<!-- Generator: Adobe Illustrator 19.0.0, SVG Export Plug-In  -->
<svg version="1.1"
	 xmlns="http://www.w3.org/2000/svg" xmlns:xlink="http://www.w3.org/1999/xlink" xmlns:a="http://ns.adobe.com/AdobeSVGViewerExtensions/3.0/"
	 x="0px" y="0px" width="181.3px" height="120.1px" viewBox="0 0 181.3 120.1" style="enable-background:new 0 0 181.3 120.1;"
	 xml:space="preserve">
<style type="text/css">
	.st0{fill:#D1D9DB;}
	.st1{fill:#FF6633;}
	.st2{fill:#FFFFFF;stroke:#FF6633;stroke-width:2;stroke-linecap:round;stroke-linejoin:round;stroke-miterlimit:10;}
	.st3{fill:#E3E3E3;}
	.st4{fill:#33CCCC;}
	.st5{fill:#086A87;}
	.st6{fill:none;stroke:#FF6633;stroke-width:2.0999;stroke-linecap:round;stroke-linejoin:round;stroke-miterlimit:10;}
	.st7{fill:none;stroke:#FF6633;stroke-linecap:round;stroke-linejoin:round;stroke-miterlimit:10;}
</style>
<defs>
</defs>
<path class="st0" d="M114.4,66.9h52.9c7.7,0,14-6.3,14-14V23.7c0-7.7-6.3-14-14-14h-52.9c-7.7,0-14,6.3-14,14v29.2
	C100.4,60.6,106.7,66.9,114.4,66.9z"/>
<polygon class="st0" points="100.7,79.5 100.7,46.6 127,51.6 "/>
<polygon class="st1" points="158.3,25.6 156,30.2 151,30.9 154.6,34.5 153.8,39.5 158.3,37.2 162.8,39.5 162,34.5 165.6,30.9 
	160.6,30.2 "/>
<polygon class="st1" points="138.1,25.6 135.9,30.2 130.8,30.9 134.5,34.5 133.6,39.5 138.1,37.2 142.7,39.5 141.8,34.5 145.5,30.9 
	140.4,30.2 "/>
<polygon class="st1" points="148.2,39.6 145.9,44.2 140.9,44.9 144.5,48.5 143.7,53.6 148.2,51.2 152.7,53.6 151.9,48.5 155.5,44.9 
	150.5,44.2 "/>
<polygon class="st1" points="128,39.6 125.8,44.2 120.7,44.9 124.4,48.5 123.5,53.6 128,51.2 132.6,53.6 131.7,48.5 135.4,44.9 
	130.3,44.2 "/>
<polygon class="st1" points="118,25.6 115.7,30.2 110.6,30.9 114.3,34.5 113.4,39.5 118,37.2 122.5,39.5 121.6,34.5 125.3,30.9 
	120.2,30.2 "/>
<rect x="32.3" y="73.5" class="st2" width="36.5" height="29.8"/>
<circle class="st2" cx="87" cy="47" r="6.6"/>
<circle class="st2" cx="15.7" cy="47" r="6.6"/>
<path class="st3" d="M28.7,21h45.2v16.5l6.2,6.5V27.5h0C80.1,12.3,67.2,0,51.2,0C35.3,0,22.4,12.3,22.3,27.5h0v17.8l6.4-6.7V21z"/>
<path class="st2" d="M22.3,59.2C22.3,59.2,22.3,59.2,22.3,59.2c0,15.3,12.9,27.7,28.9,27.7c5.4,0,10.4-1.4,14.8-3.9v-0.1V83
	c8.5-4.8,14.2-13.6,14.2-23.7c0,0,0-0.1,0-0.1h0V44l-6.2-6.5V21H28.7v17.7l-6.4,6.7L22.3,59.2L22.3,59.2z"/>
<polygon class="st1" points="52.6,39.6 41.3,60.1 52.6,60.1 "/>
<circle class="st1" cx="35.3" cy="46.2" r="3.3"/>
<path class="st3" d="M50.8,93.4c-3.3,0-6.5,0.1-9.6,0.3v26.3H62V93.8C58.4,93.5,54.6,93.4,50.8,93.4z"/>
<path class="st4" d="M0,120.1h15.7v-7.7v7.7h25.5V93.9C17.8,95.6,0.5,103.7,0,120.1z"/>
<path class="st4" d="M62,94v26.1h25.8v-8v8h15.4C102.7,104.1,85,95.9,62,94z"/>
<polygon class="st5" points="51.2,107.6 45.5,109.9 45.5,119.3 51.2,119.3 57,119.3 57,109.9 "/>
<path class="st6" d="M45.7,55.7H21c-1.2,0-2.3-1-2.3-2.3V41.2c0-1.2,1-2.3,2.3-2.3h24.7c1.2,0,2.3,1,2.3,2.3v12.2
	C47.9,54.7,46.9,55.7,45.7,55.7z"/>
<path class="st1" d="M48.2,70.9c0,1.3,1,2.3,2.3,2.3c1.3,0,2.3-1,2.3-2.3H48.2z"/>
<path class="st7" d="M41.2,64.5c0,0,9.1,6.9,16,0"/>
<path class="st5" d="M53.1,108.3H50c-1.5,0-2.8-1.2-2.8-2.8v-4.3c0-1.5,1.2-2.8,2.8-2.8h3.2c1.5,0,2.8,1.2,2.8,2.8v4.3
	C55.9,107,54.7,108.3,53.1,108.3z"/>
<rect x="17.7" y="37.7" class="st5" width="31.2" height="3.1"/>
<rect x="48.9" y="41.5" class="st5" width="4.2" height="3.1"/>
<circle class="st1" cx="66.8" cy="46.3" r="3.3"/>
<path class="st6" d="M56.4,55.8h24.7c1.2,0,2.3-1,2.3-2.3V41.4c0-1.2-1-2.3-2.3-2.3H56.4c-1.2,0-2.3,1-2.3,2.3v12.2
	C54.2,54.8,55.2,55.8,56.4,55.8z"/>
<rect x="53.2" y="37.8" class="st5" width="31.2" height="3.1"/>
</svg>