<!-- Generator: Adobe Illustrator 19.0.0, SVG Export Plug-In  -->
<svg version="1.1"
	 xmlns="http://www.w3.org/2000/svg" xmlns:xlink="http://www.w3.org/1999/xlink" xmlns:a="http://ns.adobe.com/AdobeSVGViewerExtensions/3.0/"
	 x="0px" y="0px" width="120.8px" height="120.8px" viewBox="0 0 120.8 120.8" style="enable-background:new 0 0 120.8 120.8;"
	 xml:space="preserve">
<style type="text/css">
	.st0{fill:#EDEDED;}
	.st1{fill:#F99700;}
	.st2{fill:#0B4451;}
	.st3{fill:#FFFFFF;}
</style>
<defs>
</defs>
<g>
	<circle class="st0" cx="60.4" cy="60.4" r="60.4"/>
	<rect x="0.2" y="38.7" class="st1" width="120.5" height="37.6"/>
	<rect x="0.2" y="76.3" class="st2" width="120.5" height="8.5"/>
	<g>
		<path class="st3" d="M34.1,58.1c0,1.7-0.6,3-1.8,4s-2.9,1.5-5.1,1.5c-2.3,0-4.1-0.3-5.3-0.9v-2.3c0.8,0.4,1.7,0.6,2.7,0.8
			c1,0.2,1.9,0.3,2.7,0.3c1.4,0,2.5-0.3,3.3-0.8c0.7-0.6,1.1-1.3,1.1-2.3c0-0.6-0.1-1.2-0.4-1.6s-0.7-0.8-1.3-1.2
			c-0.6-0.4-1.6-0.8-2.8-1.2c-1.8-0.7-3.1-1.4-3.8-2.3c-0.8-0.9-1.1-2-1.1-3.4c0-1.5,0.6-2.7,1.7-3.6c1.1-0.9,2.6-1.3,4.5-1.3
			c1.9,0,3.7,0.4,5.3,1.1l-0.8,2.1c-1.7-0.7-3.2-1-4.6-1c-1.1,0-2,0.2-2.7,0.7c-0.6,0.5-1,1.2-1,2.1c0,0.6,0.1,1.2,0.4,1.6
			c0.3,0.4,0.7,0.8,1.2,1.1c0.6,0.3,1.4,0.7,2.6,1.2c1.4,0.5,2.5,1,3.2,1.5c0.7,0.5,1.2,1.1,1.6,1.7C34,56.4,34.1,57.2,34.1,58.1z"
			/>
		<path class="st3" d="M48.9,58.1c0,1.7-0.6,3-1.8,4s-2.9,1.5-5.1,1.5c-2.3,0-4.1-0.3-5.3-0.9v-2.3c0.8,0.4,1.7,0.6,2.7,0.8
			c1,0.2,1.9,0.3,2.7,0.3c1.4,0,2.5-0.3,3.3-0.8c0.7-0.6,1.1-1.3,1.1-2.3c0-0.6-0.1-1.2-0.4-1.6s-0.7-0.8-1.3-1.2
			c-0.6-0.4-1.6-0.8-2.8-1.2c-1.8-0.7-3.1-1.4-3.8-2.3c-0.8-0.9-1.1-2-1.1-3.4c0-1.5,0.6-2.7,1.7-3.6c1.1-0.9,2.6-1.3,4.5-1.3
			c1.9,0,3.7,0.4,5.3,1.1l-0.8,2.1c-1.7-0.7-3.2-1-4.6-1c-1.1,0-2,0.2-2.7,0.7c-0.6,0.5-1,1.2-1,2.1c0,0.6,0.1,1.2,0.4,1.6
			c0.3,0.4,0.7,0.8,1.2,1.1c0.6,0.3,1.4,0.7,2.6,1.2c1.4,0.5,2.5,1,3.2,1.5c0.7,0.5,1.2,1.1,1.6,1.7C48.8,56.4,48.9,57.2,48.9,58.1z
			"/>
		<path class="st3" d="M52.8,63.2V44h2.4v17.1h8.4v2.2H52.8z"/>
	</g>
</g>
</svg>