<!-- Generator: Adobe Illustrator 19.0.0, SVG Export Plug-In  -->
<svg version="1.1"
	 xmlns="http://www.w3.org/2000/svg" xmlns:xlink="http://www.w3.org/1999/xlink" xmlns:a="http://ns.adobe.com/AdobeSVGViewerExtensions/3.0/"
	 x="0px" y="0px" width="700px" height="453.9px" viewBox="0 0 700 453.9" style="enable-background:new 0 0 700 453.9;"
	 xml:space="preserve">
<style type="text/css">
	.st0{fill:#33CCCC;}
	.st1{fill:#FFFFFF;stroke:#FF6633;stroke-width:3;stroke-miterlimit:10;}
	.st2{fill:#636362;}
	.st3{fill:#086A87;}
	.st4{fill:#F99700;}
	.st5{fill:none;stroke:#FF6633;stroke-width:3;stroke-miterlimit:10;}
	.st6{fill:#FF6633;}
	.st7{fill:none;stroke:#FF6633;stroke-width:2.5586;stroke-miterlimit:10;}
	.st8{fill:none;stroke:#FF6633;stroke-width:2.1395;stroke-miterlimit:10;}
	.st9{fill:none;stroke:#FF6633;stroke-width:2;stroke-miterlimit:10;}
	.st10{fill:#FFFFFF;stroke:#FF6633;stroke-width:2.5586;stroke-miterlimit:10;}
	.st11{fill:#D8D8D8;}
	.st12{fill:#FFFFFF;stroke:#FF6633;stroke-width:2;stroke-miterlimit:10;}
	.st13{fill:none;stroke:#FF6633;stroke-width:2.0267;stroke-miterlimit:10;}
	.st14{fill:#FFFFFF;stroke:#FF6633;stroke-miterlimit:10;}
	.st15{fill:none;stroke:#FF6633;stroke-width:2;stroke-linecap:round;stroke-linejoin:round;stroke-miterlimit:10;}
	.st16{fill:#FFFFFF;stroke:#FF6633;stroke-width:1.8254;stroke-linecap:round;stroke-linejoin:round;stroke-miterlimit:10;}
	.st17{fill:none;stroke:#FF6633;stroke-width:1.9267;stroke-miterlimit:10;}
	.st18{fill:none;stroke:#FF6633;stroke-width:1.0536;stroke-miterlimit:10;}
	.st19{fill:#FFFFFF;}
	.st20{fill:none;stroke:#FFFFFF;stroke-width:5;stroke-miterlimit:10;}
	.st21{fill:#F45722;}
	.st22{opacity:0.3;fill:#A7A9AC;}
	.st23{opacity:0.35;fill:#DADFE0;}
	.st24{opacity:0.35;fill:#F4F4F4;}
	.st25{fill:#A6B0B2;}
	.st26{fill:none;stroke:#A6B0B2;stroke-miterlimit:10;}
</style>
<defs>
</defs>
<rect class="st0" width="700" height="452.4"/>
<path class="st1" d="M77.6,236.2H45.2c-7.7,0-14-6.3-14-14v-3.9c0-7.7,6.3-14,14-14h32.4c7.7,0,14,6.3,14,14v3.9
	C91.6,229.9,85.3,236.2,77.6,236.2z"/>
<rect x="32.4" y="279.7" class="st1" width="72.3" height="172.7"/>
<g>
	<path class="st2" d="M655.8,412.7H87.8c-7.7,0-14-6.3-14-14V81.6c0-7.7,6.3-14,14-14h567.9c7.7,0,14,6.3,14,14v317.1
		C669.8,406.4,663.5,412.7,655.8,412.7z"/>
	<path class="st3" d="M655.8,392.9H87.8c-7.7,0-14-6.3-14-14V61.7c0-7.7,6.3-14,14-14h567.9c7.7,0,14,6.3,14,14v317.1
		C669.8,386.6,663.5,392.9,655.8,392.9z"/>
	<path class="st4" d="M178.4,307.5h-59.7c-7.7,0-14-6.3-14-14v-33.5c0-7.7,6.3-14,14-14h59.7c7.7,0,14,6.3,14,14v33.5
		C192.4,301.2,186.1,307.5,178.4,307.5z"/>
	<g>
		<g>
			<g>
				<path class="st4" d="M556.3,318l-0.4-0.3c0,0-3.8-25.7-36.7-30.7h-17.4h-5.4h-17.4c-32.9,5-35.8,30.9-35.8,30.9v11.9v24.4v39.8
					h113v-64.2l0,0V318z"/>
				<rect x="485.8" y="274.6" class="st1" width="27" height="29"/>
				<g>
					<path class="st1" d="M481.8,246.8c0,5.4-4.4,9.8-9.8,9.8h-0.4c-5.4,0-9.8-4.4-9.8-9.8v-0.4c0-5.4,4.4-9.8,9.8-9.8h0.4
						c5.4,0,9.8,4.4,9.8,9.8V246.8z"/>
					<path class="st1" d="M540.8,246.8c0,5.4-4.4,9.8-9.8,9.8h-0.4c-5.4,0-9.8-4.4-9.8-9.8v-0.4c0-5.4,4.4-9.8,9.8-9.8h0.4
						c5.4,0,9.8,4.4,9.8,9.8V246.8z"/>
					<path class="st1" d="M502.5,288.6h-1.1c-15.3,0-27.6-12.6-27.6-29.1v-37.2c0-16.5,12.3-30.7,27.6-30.7h1.1
						c15.3,0,28.3,14.2,28.3,30.7v37.2C530.8,276,517.7,288.6,502.5,288.6z"/>
					<polygon class="st5" points="501.8,241 496.6,259.6 507.3,259.6 					"/>
					<ellipse class="st6" cx="490.2" cy="247.5" rx="2.5" ry="3.8"/>
					<ellipse class="st6" cx="512.9" cy="247.5" rx="2.5" ry="3.8"/>
					<polygon class="st6" points="483.8,234.1 496.3,234.1 496.3,239.1 483.2,239.1 					"/>
					<polygon class="st6" points="522.5,234.1 509.3,234.1 509.3,239.1 523.1,239.1 					"/>
					<path class="st7" d="M467.2,239.9"/>
					<path class="st7" d="M531.9,224.6c-13.2,0-20.3-9.1-20.3-9.1l3.5,9.1c-16.8,0-19.5-15.1-19.5-15.1l-24.3,23.6"/>
					<path class="st7" d="M467,239.8"/>
					<path class="st8" d="M512,257.5c0,5.6-4.6,10.2-10.2,10.2c-5.6,0-10.2-4.6-10.2-10.2"/>
					<line class="st9" x1="488.3" y1="257.1" x2="493.3" y2="257.1"/>
					<line class="st9" x1="512.3" y1="257.1" x2="517.3" y2="257.1"/>
				</g>
				<polygon class="st10" points="482.8,281.7 499.1,304.6 487.6,315.8 476,291.2 				"/>
				<polygon class="st10" points="518,284.3 499.1,304.6 510.7,315.8 522.3,291.2 				"/>
			</g>
		</g>
		<g>
			<g>
				<g>
					<g>
						<path class="st11" d="M444.3,317.1l-0.1-0.3c0,0-3.5-25.7-36.4-30.7h-17.4H385h-17.4c-32.9,5-36.4,31-36.4,31v11.9v24.4v39.7
							h113v-64.1l0,0V317.1z"/>
						<path class="st1" d="M371.8,248.8c0,5.4-4.4,9.8-9.8,9.8h-0.4c-5.4,0-9.8-4.4-9.8-9.8v-0.4c0-5.4,4.4-9.8,9.8-9.8h0.4
							c5.4,0,9.8,4.4,9.8,9.8V248.8z"/>
						<path class="st1" d="M430.8,247.8c0,5.4-4.4,9.8-9.8,9.8h-0.4c-5.4,0-9.8-4.4-9.8-9.8v-0.4c0-5.4,4.4-9.8,9.8-9.8h0.4
							c5.4,0,9.8,4.4,9.8,9.8V247.8z"/>
						<path class="st1" d="M392.6,289.6h-1.1c-15.3,0-27.7-12.1-27.7-28.6v-37.2c0-16.5,12.4-31.2,27.7-31.2h1.1
							c15.3,0,28.2,14.7,28.2,31.2V261C420.8,277.5,407.8,289.6,392.6,289.6z"/>
						<polygon class="st1" points="391.9,242 386.7,260.6 397.4,260.6 						"/>
						<ellipse class="st6" cx="380.7" cy="245.5" rx="2.5" ry="3.8"/>
						<ellipse class="st6" cx="403.4" cy="246.2" rx="2.5" ry="3.8"/>
						<path class="st10" d="M357.3,241.4"/>
						<path class="st10" d="M357.1,241.3"/>
						<polyline class="st12" points="365.3,229.1 403.4,229.1 405.9,217.8 408.4,229.1 420.3,229.1 						"/>
						<path class="st13" d="M375.5,240.2c0-3.3,2.6-5.9,5.9-5.9c3.3,0,5.9,2.6,5.9,5.9"/>
						<path class="st13" d="M397.8,240.2c0-3.3,2.6-5.9,5.9-5.9c3.3,0,5.9,2.6,5.9,5.9"/>
					</g>
				</g>
			</g>
			<path class="st7" d="M380.5,258.2c0,6.4,5.2,11.5,11.5,11.5s11.5-5.2,11.5-11.5"/>
			<polygon class="st11" points="363.7,292.8 363.7,272.1 418.6,272.1 411,292.8 			"/>
		</g>
		<g>
			<path class="st1" d="M557.8,249.1v2v78.5l67-1.3v-76.7v0.1l-0.2-2.4c0-15.6-15.1-28.2-33.7-28.2c-18.6,0-33.3,12.3-33.3,27.9"/>
			<path class="st12" d="M565.3,283.1h-0.2c-4.9,0-8.8-3.2-8.8-8.1v-0.7c0-4.9,3.9-10.2,8.8-10.2h0.2"/>
			<path class="st12" d="M626.3,274c0-5-4-9-9-9h-0.1c-5,0-9,4-9,9v1.1c0,5,4,9,9,9h0.1c5,0,9-4,9-9V274z"/>
			<polyline class="st14" points="580.8,296.1 580.8,316.6 600.8,316.6 600.8,296.1 			"/>
			<path class="st15" d="M590.3,302.4c-3.2-0.3-22-2-24-19.7v-18.1v-1.5h10v-15.8l6.3,15.8h41.7"/>
			<path class="st16" d="M614.7,263.6l0.5,19.1c-2.2,17.7-21.9,19.6-25.1,20c0,0-12.5-0.3-19.6-8.9"/>
			<path class="st6" d="M582.3,273.6c0,1.4-1.1,2.5-2.5,2.5l0,0c-1.4,0-2.5-1.1-2.5-2.5v-3c0-1.4,1.1-2.5,2.5-2.5l0,0
				c1.4,0,2.5,1.1,2.5,2.5V273.6z"/>
			<path class="st6" d="M606.3,273.6c0,1.4-1.1,2.5-2.5,2.5l0,0c-1.4,0-2.5-1.1-2.5-2.5v-3c0-1.4,1.1-2.5,2.5-2.5l0,0
				c1.4,0,2.5,1.1,2.5,2.5V273.6z"/>
			<path class="st12" d="M580.8,260.1H576c-0.3,0-0.5-0.3-0.5-0.5l0,0c0-0.2,0.2-0.5,0.5-0.5h4.8c0.3,0,0.5,0.3,0.5,0.5l0,0
				C581.4,259.7,581.1,260.1,580.8,260.1z"/>
			<path class="st6" d="M604,308.1h-11.9h-3.5H577c-22.1,5-24.4,25-24.4,25h36h3.5h36.4C628.5,333.1,626.2,313.1,604,308.1z"/>
			<path class="st12" d="M605.7,260.1h-4.8c-0.3,0-0.5,0-0.5,0l0,0c0,0,0.2,0,0.5,0H605.7c0.3,0,0.5,0,0.5,0l0,0
				C606.3,260.1,606,260.1,605.7,260.1z"/>
			<polygon class="st12" points="591.8,268.3 587.1,282.1 596.7,282.1 			"/>
			<path class="st17" d="M601.1,279.8c0,5.1-4.1,9.2-9.2,9.2c-5.1,0-9.2-4.1-9.2-9.2"/>
			<path class="st18" d="M605.1,270.4c0,0,1,2.1,3.1,0"/>
			<path class="st18" d="M574.5,270.4c0,0,1,2.1,3.1,0"/>
			<rect x="553.3" y="333.1" class="st6" width="76" height="61"/>
		</g>
	</g>
	<g>
		<path class="st19" d="M120,118.4l-2.4-6.2h-7.9l-2.4,6.2h-2.5l7.8-20.1h2.3l7.8,20.1H120z M116.8,109.9l-2.2-6.1l-1-3
			c-0.3,1.1-0.6,2.1-0.9,3l-2.3,6.1H116.8z"/>
		<path class="st19" d="M135.2,118.4v-9.6c0-1.2-0.3-2.1-0.8-2.7c-0.5-0.6-1.4-0.9-2.5-0.9c-1.5,0-2.7,0.4-3.4,1.3
			c-0.7,0.9-1,2.2-1,4.2v7.8H125v-15h2l0.4,2.1h0.1c0.5-0.7,1.1-1.3,2-1.7c0.8-0.4,1.8-0.6,2.8-0.6c1.8,0,3.2,0.4,4.1,1.3
			c0.9,0.9,1.3,2.3,1.3,4.2v9.8H135.2z"/>
		<path class="st19" d="M155.5,118.4h-7.2v-1.4l2.4-0.5v-16l-2.4-0.6v-1.4h7.2v1.4l-2.4,0.6v16l2.4,0.5V118.4z"/>
		<path class="st19" d="M169.3,118.4v-9.6c0-1.2-0.3-2.1-0.8-2.7c-0.5-0.6-1.4-0.9-2.5-0.9c-1.5,0-2.7,0.4-3.4,1.3
			c-0.7,0.9-1,2.2-1,4.2v7.8H159v-15h2l0.4,2.1h0.1c0.5-0.7,1.1-1.3,2-1.7c0.8-0.4,1.8-0.6,2.8-0.6c1.8,0,3.2,0.4,4.1,1.3
			c0.9,0.9,1.3,2.3,1.3,4.2v9.8H169.3z"/>
		<path class="st19" d="M186.1,114.2c0,1.4-0.5,2.5-1.6,3.3c-1,0.8-2.5,1.2-4.4,1.2c-2,0-3.5-0.3-4.7-0.9v-2.2
			c1.6,0.8,3.2,1.2,4.8,1.2c1.2,0,2.1-0.2,2.7-0.6c0.6-0.4,0.8-0.9,0.8-1.6c0-0.6-0.3-1.1-0.8-1.5s-1.5-0.9-2.9-1.4
			c-1.4-0.5-2.4-1-3-1.4c-0.6-0.4-1-0.8-1.3-1.3c-0.3-0.5-0.4-1.1-0.4-1.8c0-1.2,0.5-2.2,1.5-2.9s2.4-1.1,4.1-1.1
			c1.7,0,3.3,0.3,4.8,1l-0.8,2c-1.5-0.6-2.9-1-4.1-1c-1,0-1.8,0.2-2.3,0.5c-0.5,0.3-0.8,0.8-0.8,1.3c0,0.5,0.2,1,0.7,1.4
			c0.5,0.4,1.5,0.9,3.2,1.5c1.2,0.5,2.2,0.9,2.8,1.3c0.6,0.4,1,0.9,1.3,1.4C186,112.9,186.1,113.5,186.1,114.2z"/>
		<path class="st19" d="M189.6,99.3c0-0.5,0.1-0.9,0.4-1.2s0.6-0.4,1-0.4c0.4,0,0.7,0.1,1,0.4s0.4,0.6,0.4,1.2
			c0,0.5-0.1,0.9-0.4,1.2c-0.3,0.3-0.6,0.4-1,0.4c-0.4,0-0.8-0.1-1-0.4C189.7,100.2,189.6,99.8,189.6,99.3z M192.2,118.4h-2.5v-15
			h2.5V118.4z"/>
		<path class="st19" d="M207,118.2l0.1-1.8H207c-1,1.5-2.6,2.3-4.6,2.3c-1.9,0-3.5-0.7-4.5-2s-1.6-3.3-1.6-5.7
			c0-2.4,0.5-4.3,1.6-5.7s2.6-2.1,4.5-2.1c2,0,3.6,0.8,4.7,2.3h0.2l0.3-2h2v15.3c0,2.2-0.5,3.8-1.6,4.9c-1.1,1.1-2.8,1.6-5.1,1.6
			c-2.2,0-4-0.3-5.4-1v-2.3c1.5,0.8,3.3,1.2,5.5,1.2c1.3,0,2.3-0.4,3-1.1c0.7-0.7,1.1-1.8,1.1-3.1V118.2z M202.7,116.6
			c1.5,0,2.6-0.4,3.3-1.2c0.7-0.8,1-2.1,1-3.9v-0.6c0-2-0.3-3.5-1-4.4c-0.7-0.9-1.8-1.4-3.3-1.4c-1.3,0-2.2,0.5-2.9,1.5
			s-1,2.4-1,4.3c0,1.9,0.3,3.3,1,4.3C200.4,116.1,201.4,116.6,202.7,116.6z"/>
		<path class="st19" d="M224.4,118.4v-9.6c0-1.2-0.3-2.1-0.8-2.7c-0.5-0.6-1.4-0.9-2.5-0.9c-1.5,0-2.6,0.4-3.3,1.3
			c-0.7,0.8-1.1,2.2-1.1,4.2v7.8h-2.5V97.1h2.5v6.2c0,0.8,0,1.5-0.1,2.1h0.2c0.4-0.7,1.1-1.3,1.9-1.7s1.7-0.6,2.8-0.6
			c1.8,0,3.2,0.4,4.1,1.3c0.9,0.9,1.4,2.3,1.4,4.2v9.8H224.4z"/>
		<path class="st19" d="M236.5,116.6c0.3,0,0.7,0,1.1-0.1c0.4-0.1,0.8-0.1,1-0.2v1.9c-0.2,0.1-0.6,0.2-1.1,0.3s-1,0.1-1.5,0.1
			c-2.9,0-4.4-1.5-4.4-4.6v-8.7h-2.1v-1.2l2.1-1l1-3.2h1.5v3.4h4.3v1.9h-4.3v8.7c0,0.9,0.2,1.5,0.6,2S235.8,116.6,236.5,116.6z"/>
		<path class="st19" d="M248.7,99.3c0-0.5,0.1-0.9,0.4-1.2s0.6-0.4,1-0.4c0.4,0,0.7,0.1,1,0.4s0.4,0.6,0.4,1.2
			c0,0.5-0.1,0.9-0.4,1.2c-0.3,0.3-0.6,0.4-1,0.4c-0.4,0-0.8-0.1-1-0.4C248.8,100.2,248.7,99.8,248.7,99.3z M251.4,118.4h-2.5v-15
			h2.5V118.4z"/>
		<path class="st19" d="M266.3,118.4v-9.6c0-1.2-0.3-2.1-0.8-2.7c-0.5-0.6-1.4-0.9-2.5-0.9c-1.5,0-2.7,0.4-3.4,1.3
			c-0.7,0.9-1,2.2-1,4.2v7.8h-2.5v-15h2l0.4,2.1h0.1c0.5-0.7,1.1-1.3,2-1.7c0.8-0.4,1.8-0.6,2.8-0.6c1.8,0,3.2,0.4,4.1,1.3
			c0.9,0.9,1.3,2.3,1.3,4.2v9.8H266.3z"/>
		<path class="st19" d="M278.4,116.6c0.3,0,0.7,0,1.1-0.1c0.4-0.1,0.8-0.1,1-0.2v1.9c-0.2,0.1-0.6,0.2-1.1,0.3s-1,0.1-1.5,0.1
			c-2.9,0-4.4-1.5-4.4-4.6v-8.7h-2.1v-1.2l2.1-1l1-3.2h1.5v3.4h4.3v1.9h-4.3v8.7c0,0.9,0.2,1.5,0.6,2S277.7,116.6,278.4,116.6z"/>
		<path class="st19" d="M296.6,110.8c0,2.5-0.6,4.4-1.9,5.7c-1.2,1.4-3,2.1-5.1,2.1c-1.4,0-2.6-0.3-3.6-1c-1-0.6-1.9-1.5-2.4-2.7
			c-0.6-1.2-0.8-2.6-0.8-4.1c0-2.4,0.6-4.3,1.8-5.7c1.2-1.4,2.9-2,5.1-2c2.1,0,3.8,0.7,5,2.1C296,106.6,296.6,108.4,296.6,110.8z
			 M285.2,110.8c0,1.9,0.4,3.3,1.1,4.3c0.7,1,1.8,1.5,3.3,1.5c1.4,0,2.5-0.5,3.3-1.5c0.7-1,1.1-2.4,1.1-4.3s-0.4-3.3-1.1-4.3
			c-0.8-1-1.9-1.4-3.3-1.4C286.7,105.1,285.2,107,285.2,110.8z"/>
		<path class="st19" d="M127.6,148.5c0,3.7-0.9,6.5-2.7,8.5s-4.4,3-7.8,3c-3.4,0-6-1-7.8-3s-2.7-4.8-2.7-8.5c0-3.7,0.9-6.5,2.7-8.4
			c1.8-1.9,4.4-2.9,7.8-2.9s6,1,7.8,2.9C126.7,142,127.6,144.8,127.6,148.5z M111.4,148.5c0,2.5,0.5,4.3,1.4,5.6s2.3,1.9,4.2,1.9
			c3.7,0,5.6-2.5,5.6-7.5c0-5-1.9-7.5-5.6-7.5c-1.9,0-3.3,0.6-4.2,1.9C111.9,144.2,111.4,146,111.4,148.5z"/>
		<path class="st19" d="M147.5,159.6h-4.6v-9.9c0-1.2-0.2-2.1-0.7-2.8s-1.1-0.9-2.1-0.9c-1.3,0-2.2,0.4-2.8,1.3
			c-0.6,0.9-0.9,2.3-0.9,4.3v8h-4.6v-16.9h3.5l0.6,2.2h0.3c0.5-0.8,1.2-1.4,2.1-1.9c0.9-0.4,1.9-0.6,3.1-0.6c2,0,3.5,0.5,4.5,1.6
			c1,1.1,1.5,2.6,1.5,4.6V159.6z"/>
		<path class="st19" d="M156.8,159.6h-4.6V136h4.6V159.6z"/>
		<path class="st19" d="M161.5,138.3c0-1.5,0.8-2.3,2.5-2.3s2.5,0.8,2.5,2.3c0,0.7-0.2,1.3-0.6,1.7c-0.4,0.4-1,0.6-1.9,0.6
			C162.3,140.6,161.5,139.8,161.5,138.3z M166.3,159.6h-4.6v-16.9h4.6V159.6z"/>
		<path class="st19" d="M186.8,159.6h-4.6v-9.9c0-1.2-0.2-2.1-0.7-2.8c-0.4-0.6-1.1-0.9-2.1-0.9c-1.3,0-2.2,0.4-2.8,1.3
			s-0.9,2.3-0.9,4.3v8h-4.6v-16.9h3.5l0.6,2.2h0.3c0.5-0.8,1.2-1.4,2.1-1.9c0.9-0.4,1.9-0.6,3.1-0.6c2,0,3.5,0.5,4.5,1.6
			s1.5,2.6,1.5,4.6V159.6z"/>
		<path class="st19" d="M199.2,159.9c-2.7,0-4.9-0.8-6.4-2.3c-1.5-1.5-2.3-3.6-2.3-6.4c0-2.8,0.7-5,2.1-6.6c1.4-1.6,3.4-2.3,5.9-2.3
			c2.4,0,4.3,0.7,5.6,2c1.3,1.4,2,3.2,2,5.7v2.2h-10.9c0.1,1.3,0.4,2.3,1.2,3.1s1.7,1.1,3.1,1.1c1,0,2-0.1,2.9-0.3
			c0.9-0.2,1.9-0.6,2.8-1v3.6c-0.8,0.4-1.7,0.7-2.6,0.9C201.7,159.8,200.6,159.9,199.2,159.9z M198.6,145.6c-1,0-1.7,0.3-2.3,0.9
			c-0.6,0.6-0.9,1.5-1,2.6h6.5c0-1.1-0.3-2-0.9-2.6C200.3,145.9,199.6,145.6,198.6,145.6z"/>
		<path class="st19" d="M233.6,144.4c0,2.4-0.7,4.2-2.2,5.5c-1.5,1.3-3.6,1.9-6.4,1.9h-2v7.9h-4.7v-22.2h7.1c2.7,0,4.7,0.6,6.1,1.7
			C232.9,140.3,233.6,142.1,233.6,144.4z M223,147.9h1.5c1.4,0,2.5-0.3,3.2-0.9c0.7-0.6,1.1-1.4,1.1-2.5c0-1.1-0.3-1.9-0.9-2.4
			c-0.6-0.5-1.5-0.8-2.8-0.8H223V147.9z"/>
		<path class="st19" d="M248.2,159.6l-0.9-2.3h-0.1c-0.8,1-1.6,1.7-2.4,2c-0.8,0.4-1.9,0.6-3.2,0.6c-1.6,0-2.9-0.5-3.8-1.4
			c-0.9-0.9-1.4-2.3-1.4-4c0-1.8,0.6-3.1,1.9-4c1.3-0.9,3.2-1.3,5.7-1.4l2.9-0.1v-0.7c0-1.7-0.9-2.6-2.6-2.6c-1.4,0-2.9,0.4-4.8,1.2
			l-1.5-3.1c2-1,4.1-1.5,6.5-1.5c2.3,0,4,0.5,5.2,1.5c1.2,1,1.8,2.5,1.8,4.5v11.3H248.2z M246.8,151.8l-1.8,0.1
			c-1.3,0-2.3,0.3-3,0.7c-0.7,0.4-1,1.1-1,2c0,1.3,0.7,2,2.2,2c1.1,0,1.9-0.3,2.6-0.9s1-1.4,1-2.5V151.8z"/>
		<path class="st19" d="M253.8,142.7h5.1l3.2,9.5c0.3,0.8,0.5,1.8,0.6,2.9h0.1c0.1-1,0.3-2,0.7-2.9l3.1-9.5h5l-7.2,19.1
			c-0.7,1.8-1.6,3.1-2.8,4c-1.2,0.9-2.6,1.3-4.3,1.3c-0.8,0-1.6-0.1-2.3-0.3v-3.7c0.6,0.1,1.2,0.2,1.8,0.2c0.8,0,1.5-0.3,2.1-0.8
			s1.1-1.3,1.4-2.3l0.3-0.8L253.8,142.7z"/>
		<path class="st19" d="M289,159.6h-4.6v-9.9c0-1.2-0.2-2.1-0.6-2.8s-1.1-0.9-1.9-0.9c-1.2,0-2,0.4-2.6,1.3
			c-0.5,0.9-0.8,2.3-0.8,4.3v8h-4.6v-16.9h3.5l0.6,2.2h0.3c0.5-0.8,1.1-1.4,2-1.8s1.8-0.7,3-0.7c2.5,0,4.3,0.8,5.2,2.5h0.4
			c0.5-0.8,1.1-1.4,2-1.8c0.9-0.4,1.9-0.7,3-0.7c1.9,0,3.4,0.5,4.4,1.5c1,1,1.5,2.6,1.5,4.7v11h-4.6v-9.9c0-1.2-0.2-2.1-0.6-2.8
			s-1.1-0.9-1.9-0.9c-1.1,0-2,0.4-2.5,1.2s-0.8,2.1-0.8,3.8V159.6z"/>
		<path class="st19" d="M312,159.9c-2.7,0-4.9-0.8-6.4-2.3s-2.3-3.6-2.3-6.4c0-2.8,0.7-5,2.1-6.6c1.4-1.6,3.4-2.3,5.9-2.3
			c2.4,0,4.3,0.7,5.6,2c1.3,1.4,2,3.2,2,5.7v2.2H308c0.1,1.3,0.4,2.3,1.2,3.1s1.7,1.1,3.1,1.1c1,0,2-0.1,2.9-0.3
			c0.9-0.2,1.9-0.6,2.8-1v3.6c-0.8,0.4-1.7,0.7-2.6,0.9C314.4,159.8,313.3,159.9,312,159.9z M311.3,145.6c-1,0-1.7,0.3-2.3,0.9
			c-0.6,0.6-0.9,1.5-1,2.6h6.5c0-1.1-0.3-2-0.9-2.6C313.1,145.9,312.3,145.6,311.3,145.6z"/>
		<path class="st19" d="M338.3,159.6h-4.6v-9.9c0-1.2-0.2-2.1-0.7-2.8s-1.1-0.9-2.1-0.9c-1.3,0-2.2,0.4-2.8,1.3
			c-0.6,0.9-0.9,2.3-0.9,4.3v8h-4.6v-16.9h3.5l0.6,2.2h0.3c0.5-0.8,1.2-1.4,2.1-1.9c0.9-0.4,1.9-0.6,3.1-0.6c2,0,3.5,0.5,4.5,1.6
			s1.5,2.6,1.5,4.6V159.6z"/>
		<path class="st19" d="M350.2,156.2c0.8,0,1.8-0.2,2.9-0.5v3.4c-1.2,0.5-2.6,0.8-4.2,0.8c-1.8,0-3.2-0.5-4-1.4
			c-0.8-0.9-1.3-2.3-1.3-4.2v-8.2h-2.2v-2l2.5-1.5l1.3-3.6h3v3.6h4.7v3.5h-4.7v8.2c0,0.7,0.2,1.1,0.6,1.5
			C349.1,156.1,349.6,156.2,350.2,156.2z"/>
		<path class="st19" d="M120.1,205.2h-14v-3.7l3.7-1.7v-19.9l-3.7-1.7v-3.7h14v3.7l-3.7,1.7v19.9l3.7,1.7V205.2z"/>
		<path class="st19" d="M146.5,205.2h-6.4v-13.7c0-1.7-0.3-3-0.9-3.8c-0.6-0.8-1.6-1.3-2.9-1.3c-1.8,0-3.1,0.6-3.9,1.8
			c-0.8,1.2-1.2,3.2-1.2,6v11h-6.4v-23.5h4.9l0.9,3h0.4c0.7-1.1,1.7-2,3-2.6c1.3-0.6,2.7-0.9,4.3-0.9c2.7,0,4.8,0.7,6.2,2.2
			c1.4,1.5,2.1,3.6,2.1,6.4V205.2z"/>
		<path class="st19" d="M169.4,198.2c0,2.4-0.8,4.2-2.5,5.5c-1.7,1.3-4.2,1.9-7.5,1.9c-1.7,0-3.2-0.1-4.4-0.3
			c-1.2-0.2-2.3-0.6-3.4-1V199c1.2,0.6,2.5,1,4,1.4c1.5,0.4,2.8,0.6,3.9,0.6c2.3,0,3.5-0.7,3.5-2c0-0.5-0.2-0.9-0.5-1.2
			c-0.3-0.3-0.8-0.7-1.6-1.1c-0.8-0.4-1.8-0.9-3-1.4c-1.8-0.8-3.1-1.5-4-2.1c-0.8-0.6-1.5-1.4-1.8-2.2c-0.4-0.8-0.6-1.9-0.6-3.1
			c0-2.1,0.8-3.7,2.4-4.8c1.6-1.1,3.9-1.7,6.9-1.7c2.8,0,5.6,0.6,8.3,1.8l-1.9,4.6c-1.2-0.5-2.3-0.9-3.3-1.2c-1-0.3-2.1-0.5-3.1-0.5
			c-1.9,0-2.8,0.5-2.8,1.5c0,0.6,0.3,1.1,0.9,1.5c0.6,0.4,1.9,1,4,1.9c1.8,0.7,3.2,1.4,4,2.1c0.9,0.6,1.5,1.4,1.9,2.2
			S169.4,197.1,169.4,198.2z"/>
		<path class="st19" d="M185.1,205.6c-3.8,0-6.7-1-8.9-3.1c-2.1-2.1-3.2-5-3.2-8.9c0-3.9,1-7,3-9.1c2-2.1,4.7-3.2,8.2-3.2
			c3.3,0,5.9,0.9,7.7,2.8s2.8,4.5,2.8,7.8v3.1h-15.1c0.1,1.8,0.6,3.2,1.6,4.3c1,1,2.4,1.5,4.2,1.5c1.4,0,2.8-0.1,4-0.4
			s2.6-0.8,3.9-1.4v5c-1.1,0.6-2.3,1-3.6,1.2C188.4,205.5,186.9,205.6,185.1,205.6z M184.2,185.8c-1.4,0-2.4,0.4-3.2,1.3
			c-0.8,0.9-1.2,2.1-1.3,3.7h9c0-1.6-0.4-2.8-1.2-3.7C186.6,186.3,185.5,185.8,184.2,185.8z"/>
		<path class="st19" d="M209.4,205.6c-7.3,0-11-4-11-12c0-4,1-7,3-9.1c2-2.1,4.8-3.2,8.5-3.2c2.7,0,5.2,0.5,7.3,1.6l-1.9,5
			c-1-0.4-1.9-0.7-2.8-1c-0.9-0.3-1.7-0.4-2.6-0.4c-3.3,0-5,2.4-5,7.1c0,4.6,1.7,6.9,5,6.9c1.2,0,2.4-0.2,3.4-0.5
			c1-0.3,2.1-0.8,3.1-1.5v5.5c-1,0.7-2.1,1.1-3.1,1.4C212.3,205.5,211,205.6,209.4,205.6z"/>
		<path class="st19" d="M238.6,205.2l-0.9-3h-0.3c-0.7,1.1-1.7,1.9-2.9,2.5c-1.3,0.6-2.7,0.9-4.3,0.9c-2.8,0-4.8-0.7-6.2-2.2
			c-1.4-1.5-2.1-3.6-2.1-6.4v-15.3h6.4v13.7c0,1.7,0.3,3,0.9,3.8c0.6,0.8,1.6,1.3,2.9,1.3c1.8,0,3.1-0.6,3.9-1.8
			c0.8-1.2,1.2-3.2,1.2-6v-11h6.4v23.5H238.6z"/>
		<path class="st19" d="M263.3,181.3c0.9,0,1.6,0.1,2.2,0.2l-0.5,6c-0.5-0.1-1.1-0.2-1.9-0.2c-2,0-3.6,0.5-4.8,1.6
			c-1.1,1-1.7,2.5-1.7,4.4v11.9h-6.4v-23.5h4.8l0.9,3.9h0.3c0.7-1.3,1.7-2.4,3-3.2C260.5,181.7,261.9,181.3,263.3,181.3z"/>
		<path class="st19" d="M269.5,175.7c0-2.1,1.2-3.1,3.5-3.1c2.3,0,3.5,1,3.5,3.1c0,1-0.3,1.8-0.9,2.3c-0.6,0.6-1.5,0.8-2.6,0.8
			C270.6,178.8,269.5,177.8,269.5,175.7z M276.1,205.2h-6.4v-23.5h6.4V205.2z"/>
		<path class="st19" d="M292.7,200.5c1.1,0,2.5-0.2,4-0.7v4.8c-1.6,0.7-3.6,1.1-5.9,1.1c-2.6,0-4.4-0.6-5.6-1.9
			c-1.2-1.3-1.8-3.2-1.8-5.8v-11.3h-3.1v-2.7l3.5-2.1l1.8-5h4.1v5h6.6v4.8H290v11.3c0,0.9,0.3,1.6,0.8,2
			C291.2,200.3,291.9,200.5,292.7,200.5z"/>
		<path class="st19" d="M301.2,175.7c0-2.1,1.2-3.1,3.5-3.1c2.3,0,3.5,1,3.5,3.1c0,1-0.3,1.8-0.9,2.3c-0.6,0.6-1.5,0.8-2.6,0.8
			C302.4,178.8,301.2,177.8,301.2,175.7z M307.9,205.2h-6.4v-23.5h6.4V205.2z"/>
		<path class="st19" d="M325.3,205.6c-3.8,0-6.7-1-8.9-3.1c-2.1-2.1-3.2-5-3.2-8.9c0-3.9,1-7,3-9.1c2-2.1,4.7-3.2,8.2-3.2
			c3.3,0,5.9,0.9,7.7,2.8s2.8,4.5,2.8,7.8v3.1h-15.1c0.1,1.8,0.6,3.2,1.6,4.3c1,1,2.4,1.5,4.2,1.5c1.4,0,2.8-0.1,4-0.4
			s2.6-0.8,3.9-1.4v5c-1.1,0.6-2.3,1-3.6,1.2C328.7,205.5,327.1,205.6,325.3,205.6z M324.4,185.8c-1.4,0-2.4,0.4-3.2,1.3
			c-0.8,0.9-1.2,2.1-1.3,3.7h9c0-1.6-0.4-2.8-1.2-3.7C326.8,186.3,325.7,185.8,324.4,185.8z"/>
		<path class="st19" d="M356.4,198.2c0,2.4-0.8,4.2-2.5,5.5c-1.7,1.3-4.2,1.9-7.5,1.9c-1.7,0-3.2-0.1-4.4-0.3
			c-1.2-0.2-2.3-0.6-3.4-1V199c1.2,0.6,2.5,1,4,1.4c1.5,0.4,2.8,0.6,3.9,0.6c2.3,0,3.5-0.7,3.5-2c0-0.5-0.2-0.9-0.5-1.2
			c-0.3-0.3-0.8-0.7-1.6-1.1c-0.8-0.4-1.8-0.9-3-1.4c-1.8-0.8-3.1-1.5-4-2.1c-0.8-0.6-1.5-1.4-1.8-2.2c-0.4-0.8-0.6-1.9-0.6-3.1
			c0-2.1,0.8-3.7,2.4-4.8c1.6-1.1,3.9-1.7,6.9-1.7c2.8,0,5.6,0.6,8.3,1.8l-1.9,4.6c-1.2-0.5-2.3-0.9-3.3-1.2c-1-0.3-2.1-0.5-3.1-0.5
			c-1.9,0-2.8,0.5-2.8,1.5c0,0.6,0.3,1.1,0.9,1.5c0.6,0.4,1.9,1,4,1.9c1.8,0.7,3.2,1.4,4,2.1c0.9,0.6,1.5,1.4,1.9,2.2
			C356.2,196.1,356.4,197.1,356.4,198.2z"/>
	</g>
	<path class="st20" d="M499.2,324.4c-7.8,0-14.1,6.3-14.1,14.1v20.8h28.3v-20.8C513.3,330.8,507,324.4,499.2,324.4z"/>
	<rect x="476.1" y="343" class="st21" width="46.2" height="30.3"/>
	<rect x="509" y="343" class="st3" width="13.2" height="30.3"/>
	<polygon class="st1" points="456.8,393.7 476.1,370 509,370 521.8,359.4 534.9,359.4 507.7,390.1 483.3,386.8 479.5,393.7 	"/>
	<rect x="104.7" y="333.7" class="st19" width="39.4" height="9.3"/>
	<rect x="160.1" y="333.7" class="st19" width="39.4" height="9.3"/>
	<rect x="215.6" y="333.7" class="st19" width="39.4" height="9.3"/>
	<rect x="271" y="333.7" class="st19" width="39.4" height="9.3"/>
	<circle class="st19" cx="493.1" cy="351.8" r="3.4"/>
	<polygon class="st19" points="485.9,365.7 493.2,353 500.5,365.7 	"/>
	<g>
		<path class="st22" d="M368.7,231.1c0,0-3.8,23.9,13.1,22.4c0,0,12.6-2.5,12.6-16.3L368.7,231.1z"/>
		<path class="st22" d="M415.2,231.1c0,0,3.8,23.9-13.1,22.4c0,0-12.6-2.5-12.6-16.3L415.2,231.1z"/>
		<ellipse class="st6" cx="394.7" cy="227.1" rx="61.9" ry="15.3"/>
		<path class="st6" d="M419.4,221.5h-56.6c0,0-0.7-9.2,1.6-18.6c1.5-6.2,4.2-12.5,9.3-16.4c3.7-2.8,8.9-2.3,12.2,1l0.1,0.1
			c3,3,7.8,3.4,11.3,0.9l3.8-2.8c2.3-1.7,5.4-1.9,7.8-0.4c4.1,2.6,9.8,7.8,11.6,17.5C421.5,207.8,421.4,214,419.4,221.5z"/>
		<path class="st0" d="M419.4,221.5h-56.6c0,0-0.7-9.2,1.6-18.6h56.2C421.5,207.8,421.4,214,419.4,221.5z"/>
	</g>
	<polygon class="st23" points="490,47.7 316.6,392.9 379.8,392.9 554.8,47.7 	"/>
	<polygon class="st24" points="584.4,47.7 411,392.9 474.3,392.9 649.2,47.7 	"/>
	<rect x="413.4" y="292.8" class="st25" width="5.2" height="100.6"/>
	<polyline class="st26" points="418.6,292.8 349.2,292.8 418.6,292.8 	"/>
	<circle class="st25" cx="382" cy="360.7" r="5.5"/>
	<circle class="st25" cx="403.1" cy="360.7" r="5.5"/>
	<circle class="st25" cx="382" cy="378.8" r="5.5"/>
	<circle class="st25" cx="403.1" cy="378.8" r="5.5"/>
</g>
<path class="st1" d="M150.6,223.8H37.3c-2.7,0-4.9,2.2-4.9,4.9v0v25.6v63c0,0,64.3,2.3,54.6-63h33
	C155.5,254.3,150.6,223.8,150.6,223.8z"/>
</svg>