<?xml version="1.0" encoding="utf-8"?>
<!-- Generator: Adobe Illustrator 19.0.0, SVG Export Plug-In . SVG Version: 6.00 Build 0)  -->
<svg version="1.1" id="Layer_1" xmlns="http://www.w3.org/2000/svg" xmlns:xlink="http://www.w3.org/1999/xlink" x="0px" y="0px"
	 viewBox="0 0 103.2 116.8" style="enable-background:new 0 0 103.2 116.8;" xml:space="preserve">
<style type="text/css">
	.st0{fill:#FFFFFF;stroke:#F2673A;stroke-width:2;stroke-linecap:round;stroke-linejoin:round;stroke-miterlimit:10;}
	.st1{fill:#E3E3E3;}
	.st2{fill:#F2673A;}
	.st3{fill:#49C2C6;}
	.st4{fill:#0C6B88;}
	.st5{fill:none;stroke:#F2673A;stroke-width:2.0999;stroke-linecap:round;stroke-linejoin:round;stroke-miterlimit:10;}
	.st6{fill:none;stroke:#F2673A;stroke-linecap:round;stroke-linejoin:round;stroke-miterlimit:10;}
</style>
<rect x="32.3" y="73.5" class="st0" width="36.5" height="29.8"/>
<circle class="st0" cx="87" cy="47" r="6.6"/>
<circle class="st0" cx="15.7" cy="47" r="6.6"/>
<path class="st1" d="M28.7,21h45.2v16.5l6.2,6.5V27.5h0C80.1,12.3,67.2,0,51.2,0C35.3,0,22.4,12.3,22.3,27.5h0v17.8l6.4-6.7V21z"/>
<path class="st0" d="M22.3,59.2C22.3,59.2,22.3,59.2,22.3,59.2c0,15.3,12.9,27.7,28.9,27.7c5.4,0,10.4-1.4,14.8-3.9v-0.1V83
	c8.5-4.8,14.2-13.6,14.2-23.7c0,0,0-0.1,0-0.1h0V44l-6.2-6.5V21H28.7v17.7l-6.4,6.7L22.3,59.2L22.3,59.2z"/>
<polygon class="st2" points="52.6,39.6 41.3,60.1 52.6,60.1 "/>
<circle class="st2" cx="35.3" cy="46.2" r="3.3"/>
<path id="XMLID_768_" class="st1" d="M50.8,93.4c-3.3,0-6.5,0.1-9.6,0.3v23.1H62v-23C58.4,93.5,54.6,93.4,50.8,93.4z"/>
<path id="XMLID_767_" class="st3" d="M0,116.8h15.7v-6.8v6.8h25.5V93.7C17.8,95.2,0.5,102.4,0,116.8z"/>
<path id="XMLID_766_" class="st3" d="M62,93.8v23h25.8v-7v7h15.4C102.7,102.7,85,95.5,62,93.8z"/>
<polygon id="XMLID_769_" class="st4" points="51.2,107.6 45.5,109.4 45.5,116.8 51.2,116.8 57,116.8 57,109.4 "/>
<path class="st5" d="M45.7,55.7H21c-1.2,0-2.3-1-2.3-2.3V41.2c0-1.2,1-2.3,2.3-2.3h24.7c1.2,0,2.3,1,2.3,2.3v12.2
	C47.9,54.7,46.9,55.7,45.7,55.7z"/>
<path class="st2" d="M48.2,70.9c0,1.3,1,2.3,2.3,2.3c1.3,0,2.3-1,2.3-2.3H48.2z"/>
<path class="st6" d="M41.2,64.5c0,0,9.1,6.9,16,0"/>
<path id="XMLID_771_" class="st4" d="M53.1,107.3H50c-1.5,0-2.8-1.2-2.8-2.8v-4.3c0-1.5,1.2-2.8,2.8-2.8h3.2c1.5,0,2.8,1.2,2.8,2.8
	v4.3C55.9,106,54.7,107.3,53.1,107.3z"/>
<rect x="17.7" y="37.7" class="st4" width="31.2" height="3.1"/>
<rect x="48.9" y="41.5" class="st4" width="4.2" height="3.1"/>
<circle class="st2" cx="66.8" cy="46.3" r="3.3"/>
<path class="st5" d="M56.4,55.8h24.7c1.2,0,2.3-1,2.3-2.3V41.4c0-1.2-1-2.3-2.3-2.3H56.4c-1.2,0-2.3,1-2.3,2.3v12.2
	C54.2,54.8,55.2,55.8,56.4,55.8z"/>
<rect x="53.2" y="37.8" class="st4" width="31.2" height="3.1"/>
</svg>
