<!-- Generator: Adobe Illustrator 19.0.0, SVG Export Plug-In  -->
<svg version="1.1"
	 xmlns="http://www.w3.org/2000/svg" xmlns:xlink="http://www.w3.org/1999/xlink" xmlns:a="http://ns.adobe.com/AdobeSVGViewerExtensions/3.0/"
	 x="0px" y="0px" width="125.3px" height="120.8px" viewBox="0 0 125.3 120.8" style="enable-background:new 0 0 125.3 120.8;"
	 xml:space="preserve">
<style type="text/css">
	.st0{fill:#086A87;}
	.st1{fill:#6D6D6D;}
	.st2{fill:#EDEDED;}
	.st3{fill:none;stroke:#F99700;stroke-miterlimit:10;}
	.st4{fill:#F99700;}
	.st5{fill:#F9CF00;}
	.st6{fill:#FFFFFF;}
</style>
<defs>
</defs>
<g>
	<circle class="st0" cx="64.9" cy="60.4" r="60.4"/>
	<path class="st1" d="M117.3,27v66.9c0,3.1-2.5,5.6-5.6,5.6H13.5c-3.1,0-5.6-2.5-5.6-5.6V27c0-3.1,2.5-5.6,5.6-5.6h98.1
		C114.8,21.3,117.3,23.9,117.3,27z"/>
	<path class="st2" d="M117.3,32.8v61c0,3.1-2.5,5.6-5.6,5.6H13.5c-3.1,0-5.6-2.5-5.6-5.6v-61H117.3z"/>
	<circle class="st3" cx="10.1" cy="24.3" r="9.6"/>
	<circle class="st4" cx="10.1" cy="24.3" r="7"/>
	<path class="st5" d="M38.3,69.8L38.3,69.8c-1.5,0.8-3.4,0.1-4.2-1.4l-9.5-18.8c-0.8-1.5-0.1-3.4,1.4-4.2h0c1.5-0.8,3.4-0.1,4.2,1.4
		l9.5,18.8C40.4,67.2,39.8,69,38.3,69.8z"/>
	<path class="st5" d="M45.1,69.3L45.1,69.3c-1.6,0.8-3.5,0.1-4.3-1.4l-6.2-12.4c-0.8-1.6-0.1-3.5,1.4-4.3h0c1.6-0.8,3.5-0.1,4.3,1.4
		l6.2,12.4C47.3,66.5,46.7,68.5,45.1,69.3z"/>
	<path class="st5" d="M50.9,66.4L50.9,66.4c-1.6,0.8-3.5,0.1-4.3-1.4l-6.2-12.4c-0.8-1.6-0.1-3.5,1.4-4.3l0,0
		c1.6-0.8,3.5-0.1,4.3,1.4L52.3,62C53.1,63.6,52.5,65.6,50.9,66.4z"/>
	<path class="st5" d="M56.6,63.5L56.6,63.5c-1.6,0.8-3.5,0.1-4.3-1.4l-6.2-12.4c-0.8-1.6-0.1-3.5,1.4-4.3h0c1.6-0.8,3.5-0.1,4.3,1.4
		l6.2,12.4C58.9,60.7,58.2,62.7,56.6,63.5z"/>
	<circle class="st5" cx="46.9" cy="66.1" r="13.4"/>
	<path class="st6" d="M6.6,27.7L6.6,27.7c-0.4-0.4-0.4-1,0-1.4l5.5-5.5c0.4-0.4,1-0.4,1.4,0l0,0c0.4,0.4,0.4,1,0,1.4L8,27.7
		C7.6,28.1,7,28.1,6.6,27.7z"/>
	<path class="st6" d="M6.6,20.9L6.6,20.9c0.4-0.4,1-0.4,1.4,0l5.5,5.5c0.4,0.4,0.4,1,0,1.4l0,0c-0.4,0.4-1,0.4-1.4,0l-5.5-5.5
		C6.2,21.9,6.2,21.2,6.6,20.9z"/>
	<polygon class="st5" points="54.7,66.7 73.7,99.5 52.1,99.5 33.2,66.7 	"/>
	<path class="st5" d="M24.3,63.2l5.9,12.5c0,0,9.3,0.8,9.8,1.2s-6.5-10.9-6.5-10.9l-1.3,0.6C32.2,66.7,30.3,61.3,24.3,63.2z"/>
</g>
</svg>