<!-- Generator: Adobe Illustrator 19.0.0, SVG Export Plug-In  -->
<svg version="1.1"
	 xmlns="http://www.w3.org/2000/svg" xmlns:xlink="http://www.w3.org/1999/xlink" xmlns:a="http://ns.adobe.com/AdobeSVGViewerExtensions/3.0/"
	 x="0px" y="0px" width="135.5px" height="132px" viewBox="0 0 135.5 132" style="enable-background:new 0 0 135.5 132;"
	 xml:space="preserve">
<style type="text/css">
	.st0{fill:#FFFFFF;}
	.st1{fill:#F45722;}
	.st2{fill:#636362;}
	.st3{fill:#086A87;}
	.st4{fill:#F99700;}
	.st5{opacity:0.35;fill:#DADFE0;}
	.st6{opacity:0.35;fill:#F4F4F4;}
</style>
<defs>
</defs>
<g>
	<g>
		<rect y="61" class="st0" width="135.5" height="71"/>
		<rect y="42.5" class="st0" width="21.5" height="71.5"/>
		<rect x="38" y="42.5" class="st0" width="21.5" height="71.5"/>
		<rect x="76" y="42.5" class="st0" width="21.5" height="71.5"/>
		<rect x="114" y="42.5" class="st0" width="21.5" height="71.5"/>
		<rect x="67.8" class="st1" width="46.3" height="22.5"/>
		<rect x="67.2" class="st0" width="2.8" height="61"/>
	</g>
	<g>
		<path class="st2" d="M98.2,131.7H34.3c-1,0-1.8-0.8-1.8-1.8V94.5c0-1,0.8-1.8,1.8-1.8h63.9c1,0,1.8,0.8,1.8,1.8v35.5
			C100,130.9,99.2,131.7,98.2,131.7z"/>
		<path class="st3" d="M98,129.5H34.5c-1.1,0-2-0.9-2-2v-35c0-1.1,0.9-2,2-2H98c1.1,0,2,0.9,2,2v35C100,128.6,99.1,129.5,98,129.5z"
			/>
		<path class="st4" d="M44.6,119.8h-7.2c-0.7,0-1.3-0.6-1.3-1.3v-4.3c0-0.7,0.6-1.3,1.3-1.3h7.2c0.7,0,1.3,0.6,1.3,1.3v4.3
			C45.9,119.2,45.3,119.8,44.6,119.8z"/>
		<rect x="36" y="122.8" class="st0" width="4.5" height="1.1"/>
		<rect x="42.3" y="122.8" class="st0" width="4.5" height="1.1"/>
		<rect x="48.6" y="122.8" class="st0" width="4.5" height="1.1"/>
		<rect x="54.8" y="122.8" class="st0" width="4.5" height="1.1"/>
		<polygon class="st5" points="79.6,90.4 60,129.5 67.2,129.5 86.9,90.4 		"/>
		<polygon class="st6" points="90.3,90.4 70.7,129.5 77.8,129.5 97.6,90.4 		"/>
	</g>
</g>
</svg>