<!-- Generator: Adobe Illustrator 19.0.0, SVG Export Plug-In  -->
<svg version="1.1"
	 xmlns="http://www.w3.org/2000/svg" xmlns:xlink="http://www.w3.org/1999/xlink" xmlns:a="http://ns.adobe.com/AdobeSVGViewerExtensions/3.0/"
	 x="0px" y="0px" width="144px" height="120.8px" viewBox="0 0 144 120.8" style="enable-background:new 0 0 144 120.8;"
	 xml:space="preserve">
<style type="text/css">
	.st0{fill:#086A87;}
	.st1{fill:#F45722;}
	.st2{fill:#EDEDED;}
	.st3{fill:none;stroke:#FFFFFF;stroke-miterlimit:10;}
	.st4{fill:none;stroke:#FFFFFF;stroke-miterlimit:10;stroke-dasharray:2.9701,2.9701;}
	.st5{fill:#F9CF00;}
	.st6{fill:#F99700;}
	.st7{fill:#FAFFFF;}
</style>
<defs>
</defs>
<g>
	<circle class="st0" cx="72" cy="60.4" r="60.4"/>
	<rect x="106" y="90.4" class="st1" width="17.7" height="12.8"/>
	<path class="st1" d="M139.5,94.2H87.1c-2.4,0-4.5-2-4.5-4.5V58c0-2.4,2-4.5,4.5-4.5h52.4c2.4,0,4.5,2,4.5,4.5v31.8
		C144,92.2,142,94.2,139.5,94.2z"/>
	<rect x="86.9" y="57.4" class="st2" width="52.8" height="32.9"/>
	<rect x="100.6" y="100.6" class="st1" width="27.3" height="5.1"/>
	<rect x="23.4" y="92.7" class="st1" width="17.7" height="12.8"/>
	<path class="st1" d="M56.8,96.5H4.5c-2.4,0-4.5-2-4.5-4.5V60.3c0-2.4,2-4.5,4.5-4.5h52.4c2.4,0,4.5,2,4.5,4.5v31.8
		C61.3,94.5,59.3,96.5,56.8,96.5z"/>
	<rect x="4.3" y="59.7" class="st2" width="52.8" height="32.9"/>
	<rect x="17.9" y="102.9" class="st1" width="27.3" height="5.1"/>
	<g>
		<g>
			<path class="st3" d="M35.4,72.5c0-0.5,0-1,0-1.5"/>
			<path class="st4" d="M35.7,68c2.2-18.8,18.2-33.4,37.6-33.4c19.9,0,36.2,15.3,37.7,34.9"/>
			<path class="st3" d="M111,71c0,0.5,0,1,0,1.5"/>
		</g>
	</g>
	<circle class="st5" cx="72.7" cy="33.9" r="19.6"/>
	<circle class="st6" cx="72.7" cy="29.8" r="19.6"/>
	<g>
		<path class="st7" d="M80.4,33.7c0,1.6-0.6,2.9-1.8,3.9c-1.2,1-2.8,1.6-4.9,1.8v3.1h-2.1v-3.1c-2.5-0.1-4.6-0.5-6.5-1.3v-4
			c0.9,0.4,1.9,0.8,3.2,1.2c1.2,0.3,2.4,0.5,3.3,0.6v-4.7l-1-0.4c-2-0.8-3.4-1.7-4.3-2.6c-0.8-0.9-1.3-2.1-1.3-3.4
			c0-1.5,0.6-2.7,1.7-3.6c1.2-0.9,2.8-1.5,4.8-1.7v-2.3h2.1v2.3c2.3,0.1,4.4,0.6,6.3,1.4l-1.4,3.6c-1.6-0.6-3.2-1-4.9-1.2v4.5
			c2,0.8,3.4,1.4,4.2,2c0.8,0.6,1.5,1.2,1.8,1.8S80.4,32.9,80.4,33.7z M69.7,24.7c0,0.4,0.2,0.8,0.5,1.1c0.3,0.3,0.8,0.6,1.5,0.9
			v-3.6C70.3,23.3,69.7,23.9,69.7,24.7z M75.8,34c0-0.4-0.2-0.8-0.5-1.1c-0.3-0.3-0.9-0.6-1.6-0.9v3.8C75.1,35.5,75.8,34.9,75.8,34z
			"/>
	</g>
</g>
</svg>