<?xml version="1.0" encoding="utf-8"?>
<!-- Generator: Adobe Illustrator 19.0.0, SVG Export Plug-In . SVG Version: 6.00 Build 0)  -->
<svg version="1.1" id="Layer_1" xmlns="http://www.w3.org/2000/svg" xmlns:xlink="http://www.w3.org/1999/xlink" x="0px" y="0px"
	 viewBox="0 0 161.1 165.6" style="enable-background:new 0 0 161.1 165.6;" xml:space="preserve">
<style type="text/css">
	.st0{fill:#06948C;}
	.st1{fill:#D9E4F4;}
	.st2{fill:#37558A;}
	.st3{fill:#A1B3D1;}
	.st4{fill:#A78AB7;}
	.st5{fill:#142B51;}
	.st6{fill:#BDD5E8;}
	.st7{fill:#8A699E;}
	.st8{fill:#EFDFDB;}
	.st9{fill:#76598A;}
	.st10{fill:#FFFFFF;}
	.st11{fill:#FDEB64;}
	.st12{fill:none;stroke:#37558A;stroke-width:5;stroke-miterlimit:10;}
	.st13{fill:none;stroke:#142B51;stroke-miterlimit:10;}
	.st14{fill:#6CAD44;}
	.st15{fill:#96CB69;}
</style>
<rect x="0" y="0" class="st0" width="161.1" height="165.6"/>
<path id="XMLID_19_" class="st1" d="M133.4,119.1H46.1c-5,0-9-4-9-9v-44c0-5,4-9,9-9h87.3c5,0,9,4,9,9v44
	C142.4,115.1,138.4,119.1,133.4,119.1z"/>
<path id="XMLID_18_" class="st2" d="M141.6,62.8H41.6c-5.2,0-9.4-4.2-9.4-9.4v-0.1c0-5.2,4.2-9.4,9.4-9.4h100.1
	c5.2,0,9.4,4.2,9.4,9.4v0.1C151,58.6,146.8,62.8,141.6,62.8z"/>
<path class="st2" d="M152.1,59.7h-121c-1.7,0-3.1-1.4-3.1-3.1v0c0-1.7,1.4-3.1,3.1-3.1h121c1.7,0,3.1,1.4,3.1,3.1v0
	C155.2,58.3,153.8,59.7,152.1,59.7z"/>
<path id="XMLID_17_" class="st1" d="M150.3,66h-121c-1.7,0-3.1-1.4-3.1-3.1v0c0-1.7,1.4-3.1,3.1-3.1h121c1.7,0,3.1,1.4,3.1,3.1v0
	C153.4,64.6,152,66,150.3,66z"/>
<path id="XMLID_16_" class="st3" d="M133.9,119.1H91.6V66.9h50.8v43.8C142.4,115.3,138.6,119.1,133.9,119.1z"/>
<path class="st4" d="M69.9,134.1l-33.5,0.8c-6.2,0.2-11.3-6.8-11.4-15.6l-0.9-75.5c-0.1-8.8,4.8-16,11-16.2l33.5-0.8
	c6.2-0.2,11.3,6.8,11.4,15.6l0.9,75.5C81,126.7,76.1,133.9,69.9,134.1z"/>
<path class="st5" d="M150.3,49.9H81.2c-0.7,0-1.3-0.6-1.3-1.3v-0.8c0-0.7,0.6-1.3,1.3-1.3h69.1c0.7,0,1.3,0.6,1.3,1.3v0.8
	C151.6,49.3,151,49.9,150.3,49.9z"/>
<path class="st6" d="M150.3,53.2H81.2c-0.7,0-1.3-0.6-1.3-1.3v-0.8c0-0.7,0.6-1.3,1.3-1.3h69.1c0.7,0,1.3,0.6,1.3,1.3v0.8
	C151.6,52.6,151,53.2,150.3,53.2z"/>
<rect x="24.1" y="18.1" class="st4" width="55.8" height="23.6"/>
<rect x="50.7" y="21.9" class="st7" width="22.6" height="112.4"/>
<path class="st8" d="M76,14.9H27.5c-1.2,0-2.2-1-2.2-2.2l0,0c0-1.2,1-2.2,2.2-2.2H76c1.2,0,2.2,1,2.2,2.2l0,0
	C78.2,13.9,77.2,14.9,76,14.9z"/>
<path id="XMLID_15_" class="st9" d="M78.3,20.4H25.8c-2,0-3.6-1.6-3.6-3.6v-0.1c0-2,1.6-3.6,3.6-3.6h52.5c2,0,3.6,1.6,3.6,3.6v0.1
	C81.9,18.8,80.2,20.4,78.3,20.4z"/>
<path id="XMLID_14_" class="st4" d="M81.9,20.4H22.2c-1,0-1.7-0.8-1.7-1.7v0c0-1,0.8-1.7,1.7-1.7h59.7c1,0,1.7,0.8,1.7,1.7v0
	C83.6,19.6,82.8,20.4,81.9,20.4z"/>
<rect x="10.8" y="94.8" class="st5" width="57.4" height="50.1"/>
<rect x="10.8" y="62.1" class="st10" width="57.4" height="32.8"/>
<rect x="10.8" y="81.6" class="st11" width="57.4" height="13.3"/>
<g>
	<circle class="st2" cx="40" cy="63.5" r="28.9"/>
	<circle class="st5" cx="39.5" cy="63.4" r="25.7"/>
	<rect x="35.5" y="60.7" class="st2" width="9.9" height="12.8"/>
	<path class="st2" d="M46.6,62.6H34.7c-0.3,0-0.5-0.2-0.5-0.5l0,0c0-0.3,0.2-0.5,0.5-0.5h11.9c0.3,0,0.5,0.2,0.5,0.5l0,0
		C47.1,62.3,46.9,62.6,46.6,62.6z"/>
	<circle class="st8" cx="40.9" cy="73" r="7.5"/>
	<circle class="st2" cx="40.9" cy="73" r="5.6"/>
</g>
<rect x="59" y="86.2" class="st2" width="7.6" height="17.3"/>
<path class="st12" d="M62.8,102.4v24.1c0,4.7,1.4,9.4,4.1,13.2c0,0.1,0.1,0.1,0.1,0.2c2.3,3.2,6.1,5,10,5h43.2h21
	c0,0,13.7-2.3,11.3-14.9c-2.2-11.6-12.8-11.1-12.8-11.1H75.3h-7.2"/>
<line class="st13" x1="65.8" y1="102.5" x2="59.9" y2="87.3"/>
<line class="st13" x1="59.6" y1="102.3" x2="66.1" y2="87.5"/>
<path class="st1" d="M104.4,126.2v18.4c0,4.6-3.8,8.3-8.3,8.3H54.4c-4.4,0-8-3.6-8-8v-18.7c0-0.4,0-1.1,0-1.5
	c0.1-1.2,0.4-1.7,0.8-3.7h56.6c0.4,2,0.5,2.5,0.7,3.7C104.5,125.1,104.4,125.7,104.4,126.2z"/>
<path class="st14" d="M98.7,119.3H53c-2,0-3.6-1.6-3.6-3.6v0c0-2,1.6-3.6,3.6-3.6h45.7c2,0,3.6,1.6,3.6,3.6v0
	C102.3,117.7,100.6,119.3,98.7,119.3z"/>
<path class="st14" d="M102.4,124.8H49.9c-2,0-3.6-1.6-3.6-3.6v-0.1c0-2,1.6-3.6,3.6-3.6h52.5c2,0,3.6,1.6,3.6,3.6v0.1
	C106,123.2,104.3,124.8,102.4,124.8z"/>
<path id="XMLID_20_" class="st15" d="M106.8,122.2c0,0.8-0.7,1.5-1.5,1.5h-60c-0.8,0-1.5-0.7-1.5-1.5l0,0c0-0.8,0.7-1.5,1.5-1.5h60
	C106.1,120.7,106.8,121.4,106.8,122.2L106.8,122.2z"/>
<rect x="46.4" y="123.5" class="st15" width="58.1" height="5.2"/>
</svg>
