<!-- Generator: Adobe Illustrator 19.0.0, SVG Export Plug-In  -->
<svg version="1.1"
	 xmlns="http://www.w3.org/2000/svg" xmlns:xlink="http://www.w3.org/1999/xlink" xmlns:a="http://ns.adobe.com/AdobeSVGViewerExtensions/3.0/"
	 x="0px" y="0px" width="102.2px" height="79.7px" viewBox="0 0 102.2 79.7" style="enable-background:new 0 0 102.2 79.7;"
	 xml:space="preserve">
<style type="text/css">
	.st0{fill:#FFFFFF;}
	.st1{fill:#F2AC2F;}
	.st2{clip-path:url(#XMLID_136_);fill:#3D9348;}
	.st3{clip-path:url(#XMLID_136_);fill:#F4F4F4;}
	.st4{clip-path:url(#XMLID_136_);fill:#D80031;}
	.st5{clip-path:url(#XMLID_137_);fill:#3D9348;}
	.st6{clip-path:url(#XMLID_137_);fill:#F4F4F4;}
	.st7{clip-path:url(#XMLID_137_);fill:#D80031;}
</style>
<defs>
</defs>
<g id="XMLID_21_">
	<g id="XMLID_129_">
		<circle id="XMLID_133_" class="st0" cx="35.7" cy="4.5" r="4.5"/>
		<rect id="XMLID_130_" x="31.1" y="4.5" class="st0" width="9.1" height="25.4"/>
	</g>
	<g id="XMLID_122_">
		<circle id="XMLID_126_" class="st0" cx="57.7" cy="13.7" r="4.5"/>
		
			<rect id="XMLID_123_" x="44.2" y="9.9" transform="matrix(0.7071 0.7071 -0.7071 0.7071 30.2747 -27.8057)" class="st0" width="9.1" height="25.4"/>
	</g>
	<g id="XMLID_115_">
		<circle id="XMLID_119_" class="st0" cx="66.8" cy="35.7" r="4.5"/>
		<rect id="XMLID_116_" x="41.4" y="31.1" class="st0" width="25.4" height="9.1"/>
	</g>
	<g id="XMLID_108_">
		<circle id="XMLID_112_" class="st0" cx="57.7" cy="57.7" r="4.5"/>
		
			<rect id="XMLID_109_" x="44.1" y="36" transform="matrix(-0.7071 0.7071 -0.7071 -0.7071 117.5374 48.7189)" class="st0" width="9.1" height="25.4"/>
	</g>
	<g id="XMLID_101_">
		<circle id="XMLID_105_" class="st0" cx="35.6" cy="66.8" r="4.5"/>
		<rect id="XMLID_102_" x="31.1" y="41.4" class="st0" width="9.1" height="25.4"/>
	</g>
	<g id="XMLID_94_">
		<circle id="XMLID_98_" class="st0" cx="13.6" cy="57.7" r="4.5"/>
		
			<rect id="XMLID_95_" x="18.1" y="36" transform="matrix(-0.7071 -0.7071 0.7071 -0.7071 4.1918 99.0941)" class="st0" width="9.1" height="25.4"/>
	</g>
	<g id="XMLID_87_">
		<circle id="XMLID_91_" class="st0" cx="4.5" cy="35.6" r="4.5"/>
		<rect id="XMLID_88_" x="4.5" y="31.1" class="st0" width="25.4" height="9.1"/>
	</g>
	<g id="XMLID_80_">
		<circle id="XMLID_84_" class="st0" cx="13.7" cy="13.6" r="4.5"/>
		
			<rect id="XMLID_81_" x="18.1" y="9.9" transform="matrix(0.7071 -0.7071 0.7071 0.7071 -9.3623 22.6352)" class="st0" width="9.1" height="25.4"/>
	</g>
	<g id="XMLID_23_">
		<g id="XMLID_73_">
			<circle id="XMLID_77_" class="st0" cx="64.5" cy="46.6" r="4.5"/>
			
				<rect id="XMLID_74_" x="48.2" y="29.1" transform="matrix(-0.3771 0.9262 -0.9262 -0.3771 111.2639 8.7046)" class="st0" width="9.1" height="25.4"/>
		</g>
		<g id="XMLID_66_">
			<circle id="XMLID_70_" class="st0" cx="47.7" cy="63.5" r="4.5"/>
			
				<rect id="XMLID_67_" x="38.3" y="39.1" transform="matrix(-0.9215 0.3883 -0.3883 -0.9215 102.3205 82.9095)" class="st0" width="9.1" height="25.4"/>
		</g>
		<g id="XMLID_59_">
			<circle id="XMLID_63_" class="st0" cx="23.9" cy="63.6" r="4.5"/>
			
				<rect id="XMLID_60_" x="24.2" y="39.2" transform="matrix(-0.9262 -0.3771 0.3771 -0.9262 35.6864 110.7168)" class="st0" width="9.1" height="25.4"/>
		</g>
		<g id="XMLID_52_">
			<circle id="XMLID_56_" class="st0" cx="6.9" cy="46.9" r="4.5"/>
			
				<rect id="XMLID_53_" x="14.1" y="29.2" transform="matrix(-0.3883 -0.9215 0.9215 -0.3883 -12.7537 75.4225)" class="st0" width="9.1" height="25.4"/>
		</g>
		<g id="XMLID_45_">
			<circle id="XMLID_49_" class="st0" cx="6.8" cy="23.1" r="4.5"/>
			
				<rect id="XMLID_46_" x="14.1" y="15.1" transform="matrix(0.3771 -0.9262 0.9262 0.3771 -14.2098 34.5541)" class="st0" width="9.1" height="25.4"/>
		</g>
		<g id="XMLID_38_">
			<circle id="XMLID_42_" class="st0" cx="23.6" cy="6.1" r="4.5"/>
			
				<rect id="XMLID_39_" x="24" y="5.1" transform="matrix(0.9215 -0.3883 0.3883 0.9215 -4.6814 12.4652)" class="st0" width="9.1" height="25.4"/>
		</g>
		<g id="XMLID_31_">
			<circle id="XMLID_35_" class="st0" cx="47.4" cy="6" r="4.5"/>
			
				<rect id="XMLID_32_" x="38.1" y="5" transform="matrix(0.9262 0.3771 -0.3771 0.9262 9.8363 -14.7569)" class="st0" width="9.1" height="25.4"/>
		</g>
		<g id="XMLID_24_">
			<circle id="XMLID_28_" class="st0" cx="64.3" cy="22.7" r="4.5"/>
			
				<rect id="XMLID_25_" x="48.1" y="15" transform="matrix(0.3883 0.9215 -0.9215 0.3883 57.6912 -31.5792)" class="st0" width="9.1" height="25.4"/>
		</g>
	</g>
	<circle id="XMLID_22_" class="st1" cx="35.7" cy="35.1" r="6.7"/>
</g>
<g id="XMLID_15_">
	<g id="XMLID_16_">
		<defs>
			<rect id="XMLID_17_" x="43.3" y="45.3" width="58.9" height="34.4"/>
		</defs>
		<clipPath id="XMLID_136_">
			<use xlink:href="#XMLID_17_"  style="overflow:visible;"/>
		</clipPath>
		<rect id="XMLID_20_" x="43.3" y="45.3" class="st2" width="19.6" height="34.4"/>
		<rect id="XMLID_19_" x="62.9" y="45.3" class="st3" width="19.6" height="34.4"/>
		<rect id="XMLID_18_" x="82.6" y="45.3" class="st4" width="19.6" height="34.4"/>
	</g>
</g>
</svg>