<!-- Generator: Adobe Illustrator 19.0.0, SVG Export Plug-In  -->
<svg version="1.1"
	 xmlns="http://www.w3.org/2000/svg" xmlns:xlink="http://www.w3.org/1999/xlink" xmlns:a="http://ns.adobe.com/AdobeSVGViewerExtensions/3.0/"
	 x="0px" y="0px" width="165.6px" height="167.3px" viewBox="0 0 165.6 167.3" style="enable-background:new 0 0 165.6 167.3;"
	 xml:space="preserve">
<style type="text/css">
	.st0{fill:#EAA43F;}
	.st1{fill:#E5E5E3;}
	.st2{fill:#0F464C;}
	.st3{fill:#C9C9C5;}
	.st4{fill:#A00D30;}
	.st5{fill:#EAD971;}
	.st6{fill:#CC0D29;}
	.st7{fill:#3F3F3F;stroke:#3F3F3F;stroke-width:0.2;stroke-miterlimit:10;}
</style>
<defs>
</defs>
<rect id="XMLID_117_" x="16.8" class="st0" width="148.8" height="167"/>
<polygon id="XMLID_116_" class="st1" points="19.6,167.3 19.2,148.1 0,167.3 "/>
<g id="XMLID_109_">
	<circle id="XMLID_115_" class="st2" cx="91.2" cy="50.3" r="33.1"/>
	<path id="XMLID_114_" class="st3" d="M117.6,50.8c0,14.6-11.8,26.4-26.4,26.4c-12.2,0-22.5-8.3-25.5-19.5c-0.6-2.2-0.9-4.5-0.9-6.9
		c0-14.6,11.8-26.4,26.4-26.4c14.3,0,26,11.4,26.4,25.7C117.6,50.3,117.6,50.5,117.6,50.8z"/>
	<path id="XMLID_113_" class="st1" d="M117.6,50.8c0,14.6-11.8,26.4-26.4,26.4c-12.2,0-22.5-8.3-25.5-19.5c0-0.2,0-0.5,0-0.7
		c0-14.6,11.8-26.4,26.4-26.4c12.2,0,22.4,8.3,25.5,19.5C117.6,50.3,117.6,50.5,117.6,50.8z"/>
	<polygon id="XMLID_112_" class="st4" points="87.7,50.3 92.1,25.6 96.4,50.3 	"/>
	<polygon id="XMLID_111_" class="st5" points="96.5,50.3 92.1,75.1 87.8,50.3 	"/>
	<circle id="XMLID_110_" class="st4" cx="92" cy="50.6" r="2.3"/>
</g>
<g id="XMLID_104_">
	<circle id="XMLID_108_" class="st6" cx="30.6" cy="104.1" r="4"/>
	<path id="XMLID_107_" class="st6" d="M26.5,104.1h8.1v10.1C34.6,114.1,26.5,109.2,26.5,104.1z"/>
	<circle id="XMLID_106_" class="st6" cx="38.6" cy="103.9" r="4"/>
	<path id="XMLID_105_" class="st6" d="M42.6,103.9h-8.1V114C34.6,114,42.6,109,42.6,103.9z"/>
</g>
<g id="XMLID_15_">
	<path id="XMLID_102_" class="st7" d="M53,102.1c-0.8,0-1.4,0.3-1.9,0.9c-0.4,0.6-0.7,1.4-0.7,2.5c0,2.2,0.8,3.3,2.5,3.3
		c0.7,0,1.6-0.2,2.5-0.5v1.8c-0.8,0.3-1.7,0.5-2.7,0.5c-1.5,0-2.6-0.4-3.3-1.3c-0.8-0.9-1.2-2.1-1.2-3.8c0-1,0.2-1.9,0.6-2.7
		c0.4-0.8,0.9-1.4,1.6-1.8c0.7-0.4,1.5-0.6,2.5-0.6c1,0,1.9,0.2,2.9,0.7l-0.7,1.7c-0.4-0.2-0.7-0.3-1.1-0.5S53.3,102.1,53,102.1z"/>
	<path id="XMLID_99_" class="st7" d="M64.4,106.7c0,1.2-0.3,2.2-1,2.9s-1.6,1.1-2.7,1.1c-0.7,0-1.4-0.2-1.9-0.5
		c-0.6-0.3-1-0.8-1.3-1.4s-0.5-1.3-0.5-2.1c0-1.2,0.3-2.2,1-2.9s1.6-1,2.7-1c0.7,0,1.4,0.2,1.9,0.5s1,0.8,1.3,1.4
		S64.4,105.9,64.4,106.7z M59.1,106.7c0,0.8,0.1,1.3,0.4,1.7c0.2,0.4,0.7,0.6,1.2,0.6c0.6,0,1-0.2,1.2-0.6c0.2-0.4,0.4-1,0.4-1.7
		c0-0.8-0.1-1.3-0.4-1.7s-0.6-0.6-1.2-0.6c-0.6,0-1,0.2-1.2,0.6C59.2,105.3,59.1,105.9,59.1,106.7z"/>
	<path id="XMLID_97_" class="st7" d="M73,110.5h-2.1V106c0-0.6-0.1-1-0.3-1.2c-0.2-0.3-0.5-0.4-0.9-0.4c-0.5,0-0.9,0.2-1.2,0.6
		s-0.4,1-0.4,1.9v3.6h-2.1v-7.6h1.6l0.3,1h0.1c0.2-0.4,0.5-0.6,0.9-0.8c0.4-0.2,0.8-0.3,1.3-0.3c1.1,0,1.9,0.4,2.3,1.1h0.2
		c0.2-0.4,0.5-0.6,0.9-0.8c0.4-0.2,0.8-0.3,1.4-0.3c0.9,0,1.5,0.2,2,0.7c0.4,0.4,0.7,1.2,0.7,2.1v5h-2.1V106c0-0.6-0.1-1-0.3-1.2
		c-0.2-0.3-0.5-0.4-0.9-0.4c-0.5,0-0.9,0.2-1.1,0.5s-0.4,0.9-0.4,1.7V110.5z"/>
	<path id="XMLID_94_" class="st7" d="M84.1,110.6c-0.9,0-1.6-0.3-2.1-1h-0.1c0.1,0.6,0.1,1,0.1,1.1v3.1h-2.1v-11h1.7l0.3,1H82
		c0.5-0.8,1.2-1.1,2.2-1.1c0.9,0,1.6,0.3,2.1,1s0.8,1.7,0.8,2.9c0,0.8-0.1,1.5-0.4,2.1s-0.6,1.1-1,1.4S84.7,110.6,84.1,110.6z
		 M83.5,104.4c-0.5,0-0.9,0.2-1.1,0.5c-0.2,0.3-0.4,0.8-0.4,1.6v0.2c0,0.8,0.1,1.4,0.4,1.8c0.2,0.4,0.6,0.5,1.2,0.5
		c0.9,0,1.4-0.8,1.4-2.3c0-0.8-0.1-1.3-0.3-1.7C84.3,104.6,84,104.4,83.5,104.4z"/>
	<path id="XMLID_91_" class="st7" d="M93.6,110.5l-0.4-1h-0.1c-0.4,0.4-0.7,0.7-1.1,0.9c-0.4,0.2-0.9,0.3-1.5,0.3
		c-0.7,0-1.3-0.2-1.7-0.6c-0.4-0.4-0.6-1-0.6-1.8c0-0.8,0.3-1.4,0.9-1.8c0.6-0.4,1.4-0.6,2.6-0.6l1.3,0v-0.3c0-0.8-0.4-1.2-1.2-1.2
		c-0.6,0-1.3,0.2-2.2,0.6l-0.7-1.4c0.9-0.5,1.9-0.7,2.9-0.7c1,0,1.8,0.2,2.4,0.7s0.8,1.1,0.8,2v5.1H93.6z M93,107l-0.8,0
		c-0.6,0-1.1,0.1-1.4,0.3s-0.4,0.5-0.4,0.9c0,0.6,0.3,0.9,1,0.9c0.5,0,0.9-0.1,1.2-0.4c0.3-0.3,0.4-0.6,0.4-1.1V107z"/>
	<path id="XMLID_89_" class="st7" d="M102.5,108.2c0,0.8-0.3,1.4-0.8,1.8c-0.5,0.4-1.4,0.6-2.4,0.6c-0.6,0-1,0-1.4-0.1
		c-0.4-0.1-0.8-0.2-1.1-0.3v-1.7c0.4,0.2,0.8,0.3,1.3,0.5s0.9,0.2,1.3,0.2c0.8,0,1.1-0.2,1.1-0.7c0-0.2-0.1-0.3-0.2-0.4
		c-0.1-0.1-0.3-0.2-0.5-0.3c-0.2-0.1-0.6-0.3-1-0.5c-0.6-0.2-1-0.5-1.3-0.7c-0.3-0.2-0.5-0.5-0.6-0.7c-0.1-0.3-0.2-0.6-0.2-1
		c0-0.7,0.3-1.2,0.8-1.6c0.5-0.4,1.3-0.6,2.2-0.6c0.9,0,1.8,0.2,2.7,0.6l-0.6,1.5c-0.4-0.2-0.7-0.3-1.1-0.4s-0.7-0.2-1-0.2
		c-0.6,0-0.9,0.2-0.9,0.5c0,0.2,0.1,0.3,0.3,0.5s0.6,0.3,1.3,0.6c0.6,0.2,1,0.5,1.3,0.7s0.5,0.5,0.6,0.7S102.5,107.8,102.5,108.2z"
		/>
	<path id="XMLID_87_" class="st7" d="M109.5,108.2c0,0.8-0.3,1.4-0.8,1.8c-0.5,0.4-1.4,0.6-2.4,0.6c-0.6,0-1,0-1.4-0.1
		c-0.4-0.1-0.8-0.2-1.1-0.3v-1.7c0.4,0.2,0.8,0.3,1.3,0.5s0.9,0.2,1.3,0.2c0.8,0,1.1-0.2,1.1-0.7c0-0.2-0.1-0.3-0.2-0.4
		c-0.1-0.1-0.3-0.2-0.5-0.3c-0.2-0.1-0.6-0.3-1-0.5c-0.6-0.2-1-0.5-1.3-0.7c-0.3-0.2-0.5-0.5-0.6-0.7c-0.1-0.3-0.2-0.6-0.2-1
		c0-0.7,0.3-1.2,0.8-1.6c0.5-0.4,1.3-0.6,2.2-0.6c0.9,0,1.8,0.2,2.7,0.6l-0.6,1.5c-0.4-0.2-0.7-0.3-1.1-0.4s-0.7-0.2-1-0.2
		c-0.6,0-0.9,0.2-0.9,0.5c0,0.2,0.1,0.3,0.3,0.5s0.6,0.3,1.3,0.6c0.6,0.2,1,0.5,1.3,0.7s0.5,0.5,0.6,0.7S109.5,107.8,109.5,108.2z"
		/>
	<path id="XMLID_85_" class="st7" d="M51.3,122l2.6-4.8h1.3l-3.3,6v3.8h-1.2v-3.8l-3.3-6.1h1.4L51.3,122z"/>
	<path id="XMLID_82_" class="st7" d="M62.5,123.3c0,1.2-0.3,2.1-0.9,2.8c-0.6,0.7-1.5,1-2.5,1c-0.7,0-1.3-0.2-1.8-0.5
		c-0.5-0.3-0.9-0.8-1.2-1.3c-0.3-0.6-0.4-1.3-0.4-2c0-1.2,0.3-2.1,0.9-2.8c0.6-0.7,1.4-1,2.5-1c1,0,1.9,0.3,2.5,1
		C62.2,121.2,62.5,122.1,62.5,123.3z M56.9,123.3c0,0.9,0.2,1.6,0.5,2.1c0.4,0.5,0.9,0.7,1.6,0.7c0.7,0,1.2-0.2,1.6-0.7
		c0.4-0.5,0.6-1.2,0.6-2.1c0-0.9-0.2-1.6-0.6-2.1c-0.4-0.5-0.9-0.7-1.6-0.7C57.6,120.5,56.9,121.4,56.9,123.3z"/>
	<path id="XMLID_80_" class="st7" d="M65.5,119.6v4.8c0,0.6,0.1,1,0.4,1.3s0.7,0.4,1.2,0.4c0.8,0,1.3-0.2,1.7-0.6
		c0.3-0.4,0.5-1.1,0.5-2v-3.8h1.2v7.4h-1l-0.2-1h-0.1c-0.2,0.4-0.5,0.6-0.9,0.8c-0.4,0.2-0.9,0.3-1.4,0.3c-0.9,0-1.6-0.2-2-0.6
		s-0.7-1.1-0.7-2v-4.8H65.5z"/>
	<path id="XMLID_78_" class="st7" d="M82.5,127l-1.3-4.2c-0.1-0.3-0.3-1-0.5-2h-0.1c-0.2,0.9-0.4,1.5-0.5,2l-1.3,4.1h-1.4l-2-7.4
		h1.3c0.5,1.8,0.8,3.2,1.1,4.1s0.4,1.6,0.4,2h0.1l0.1-0.4c0.1-0.6,0.3-1.2,0.4-1.6l1.3-4.2h1.3l1.3,4.2c0,0.2,0.1,0.3,0.1,0.5
		c0.1,0.2,0.1,0.4,0.1,0.5c0,0.2,0.1,0.3,0.1,0.5c0,0.2,0.1,0.3,0.1,0.4h0.1c0-0.3,0.2-1.1,0.5-2.2l1-3.9H86l-2,7.4H82.5z"/>
	<path id="XMLID_75_" class="st7" d="M87.2,117.6c0-0.3,0.1-0.5,0.2-0.6s0.3-0.2,0.5-0.2c0.2,0,0.4,0.1,0.5,0.2
		c0.1,0.1,0.2,0.3,0.2,0.6c0,0.3-0.1,0.5-0.2,0.6c-0.1,0.1-0.3,0.2-0.5,0.2c-0.2,0-0.4-0.1-0.5-0.2
		C87.3,118.1,87.2,117.9,87.2,117.6z M88.5,127h-1.2v-7.4h1.2V127z"/>
	<path id="XMLID_73_" class="st7" d="M92.1,127h-1.2v-10.5h1.2V127z"/>
	<path id="XMLID_71_" class="st7" d="M95.6,127h-1.2v-10.5h1.2V127z"/>
	<path id="XMLID_68_" class="st7" d="M106.1,127l-0.2-1h-0.1c-0.4,0.5-0.7,0.8-1.1,0.9c-0.4,0.2-0.8,0.2-1.4,0.2
		c-0.7,0-1.3-0.2-1.7-0.6c-0.4-0.4-0.6-0.9-0.6-1.6c0-1.5,1.2-2.3,3.5-2.4l1.3,0v-0.4c0-0.6-0.1-1-0.4-1.2c-0.2-0.3-0.6-0.4-1.2-0.4
		c-0.4,0-0.8,0.1-1.1,0.2c-0.3,0.1-0.7,0.2-1,0.4l-0.4-0.9c0.4-0.2,0.8-0.4,1.2-0.5c0.4-0.1,0.9-0.2,1.3-0.2c0.9,0,1.6,0.2,2,0.6
		c0.4,0.4,0.7,1,0.7,1.9v5H106.1z M103.6,126.2c0.7,0,1.2-0.2,1.6-0.5s0.6-0.9,0.6-1.6v-0.7l-1.1,0c-0.8,0-1.5,0.2-1.9,0.4
		c-0.4,0.2-0.6,0.6-0.6,1.1c0,0.4,0.1,0.7,0.4,0.9C102.8,126.1,103.2,126.2,103.6,126.2z"/>
	<path id="XMLID_66_" class="st7" d="M110.5,127h-1.2v-10.5h1.2V127z"/>
	<path id="XMLID_64_" class="st7" d="M118.8,127l-1.3-4.2c-0.1-0.3-0.3-1-0.5-2H117c-0.2,0.9-0.4,1.5-0.5,2l-1.3,4.1h-1.4l-2-7.4
		h1.3c0.5,1.8,0.8,3.2,1.1,4.1s0.4,1.6,0.4,2h0.1l0.1-0.4c0.1-0.6,0.3-1.2,0.4-1.6l1.3-4.2h1.3l1.3,4.2c0,0.2,0.1,0.3,0.1,0.5
		c0.1,0.2,0.1,0.4,0.1,0.5s0.1,0.3,0.1,0.5c0,0.2,0.1,0.3,0.1,0.4h0.1c0-0.3,0.2-1.1,0.5-2.2l1-3.9h1.2l-2,7.4H118.8z"/>
	<path id="XMLID_61_" class="st7" d="M128.2,127l-0.2-1h-0.1c-0.4,0.5-0.7,0.8-1.1,0.9c-0.4,0.2-0.8,0.2-1.4,0.2
		c-0.7,0-1.3-0.2-1.7-0.6s-0.6-0.9-0.6-1.6c0-1.5,1.2-2.3,3.5-2.4l1.3,0v-0.4c0-0.6-0.1-1-0.4-1.2c-0.2-0.3-0.6-0.4-1.2-0.4
		c-0.4,0-0.8,0.1-1.1,0.2c-0.3,0.1-0.7,0.2-1,0.4l-0.4-0.9c0.4-0.2,0.8-0.4,1.2-0.5c0.4-0.1,0.9-0.2,1.3-0.2c0.9,0,1.6,0.2,2,0.6
		c0.4,0.4,0.7,1,0.7,1.9v5H128.2z M125.7,126.2c0.7,0,1.2-0.2,1.6-0.5c0.4-0.4,0.6-0.9,0.6-1.6v-0.7l-1.1,0c-0.8,0-1.5,0.2-1.9,0.4
		c-0.4,0.2-0.6,0.6-0.6,1.1c0,0.4,0.1,0.7,0.4,0.9C124.9,126.1,125.2,126.2,125.7,126.2z"/>
	<path id="XMLID_59_" class="st7" d="M130.2,119.6h1.3l1.6,4.2c0.3,0.9,0.5,1.6,0.6,2h0.1c0-0.2,0.1-0.5,0.3-0.9
		c0.1-0.5,0.3-0.8,0.4-1.1l1.5-4.2h1.3L134,128c-0.3,0.8-0.7,1.4-1.1,1.8s-1,0.5-1.6,0.5c-0.3,0-0.7,0-1-0.1v-1
		c0.2,0.1,0.5,0.1,0.8,0.1c0.4,0,0.7-0.1,1-0.3c0.3-0.2,0.5-0.5,0.7-1l0.4-1L130.2,119.6z"/>
	<path id="XMLID_57_" class="st7" d="M143.2,125c0,0.7-0.3,1.2-0.8,1.6c-0.5,0.4-1.2,0.6-2.2,0.6c-1,0-1.7-0.2-2.3-0.5v-1.1
		c0.8,0.4,1.6,0.6,2.3,0.6c0.6,0,1.1-0.1,1.3-0.3c0.3-0.2,0.4-0.5,0.4-0.8c0-0.3-0.1-0.5-0.4-0.7s-0.7-0.4-1.4-0.7
		c-0.7-0.3-1.2-0.5-1.5-0.7c-0.3-0.2-0.5-0.4-0.6-0.6c-0.1-0.2-0.2-0.5-0.2-0.9c0-0.6,0.2-1.1,0.7-1.4c0.5-0.3,1.2-0.5,2-0.5
		c0.8,0,1.6,0.2,2.4,0.5l-0.4,1c-0.7-0.3-1.4-0.5-2-0.5c-0.5,0-0.9,0.1-1.1,0.2s-0.4,0.4-0.4,0.7c0,0.3,0.1,0.5,0.3,0.7
		s0.7,0.4,1.6,0.7c0.6,0.2,1.1,0.4,1.4,0.6s0.5,0.4,0.6,0.7C143.1,124.3,143.2,124.6,143.2,125z"/>
	<path id="XMLID_55_" class="st7" d="M52,137.1h-1.9v6.4h-1.2v-6.4h-1.3v-0.6l1.3-0.4v-0.4c0-0.9,0.2-1.6,0.6-2
		c0.4-0.4,1-0.7,1.8-0.7c0.5,0,0.9,0.1,1.4,0.2l-0.3,0.9c-0.4-0.1-0.8-0.2-1.1-0.2c-0.4,0-0.7,0.1-0.9,0.4c-0.2,0.3-0.3,0.7-0.3,1.3
		v0.5H52V137.1z"/>
	<path id="XMLID_52_" class="st7" d="M53.3,134.2c0-0.3,0.1-0.5,0.2-0.6s0.3-0.2,0.5-0.2c0.2,0,0.4,0.1,0.5,0.2
		c0.1,0.1,0.2,0.3,0.2,0.6c0,0.3-0.1,0.5-0.2,0.6c-0.1,0.1-0.3,0.2-0.5,0.2c-0.2,0-0.4-0.1-0.5-0.2S53.3,134.4,53.3,134.2z
		 M54.6,143.5h-1.2v-7.4h1.2V143.5z"/>
	<path id="XMLID_50_" class="st7" d="M61.9,143.5v-4.7c0-0.6-0.1-1-0.4-1.3c-0.3-0.3-0.7-0.4-1.3-0.4c-0.8,0-1.3,0.2-1.6,0.6
		c-0.3,0.4-0.5,1.1-0.5,2v3.8h-1.2v-7.4h1l0.2,1h0.1c0.2-0.4,0.5-0.6,1-0.8s0.9-0.3,1.4-0.3c0.9,0,1.6,0.2,2,0.7
		c0.4,0.4,0.7,1.1,0.7,2v4.8H61.9z"/>
	<path id="XMLID_47_" class="st7" d="M68,143.7c-1,0-1.7-0.3-2.2-1c-0.5-0.7-0.8-1.6-0.8-2.8c0-1.2,0.3-2.1,0.8-2.8
		c0.5-0.7,1.3-1,2.2-1c1,0,1.8,0.4,2.3,1.1h0.1c0-0.1,0-0.3-0.1-0.5c0-0.3,0-0.5,0-0.5v-2.9h1.2v10.5h-1l-0.2-1h-0.1
		C69.8,143.3,69,143.7,68,143.7z M68.2,142.7c0.7,0,1.3-0.2,1.6-0.6s0.5-1.1,0.5-2v-0.2c0-1-0.2-1.8-0.5-2.2
		c-0.3-0.4-0.9-0.7-1.6-0.7c-0.6,0-1.1,0.2-1.4,0.7c-0.3,0.5-0.5,1.2-0.5,2.1c0,0.9,0.2,1.6,0.5,2.1
		C67.1,142.4,67.6,142.7,68.2,142.7z"/>
	<path id="XMLID_45_" class="st7" d="M76.3,136.2h1.3l1.6,4.2c0.3,0.9,0.5,1.6,0.6,2h0.1c0-0.2,0.1-0.5,0.3-0.9
		c0.1-0.5,0.3-0.8,0.4-1.1l1.5-4.2h1.3l-3.2,8.4c-0.3,0.8-0.7,1.4-1.1,1.8c-0.4,0.4-1,0.5-1.6,0.5c-0.3,0-0.7,0-1-0.1v-1
		c0.2,0.1,0.5,0.1,0.8,0.1c0.4,0,0.7-0.1,1-0.3c0.3-0.2,0.5-0.5,0.7-1l0.4-1L76.3,136.2z"/>
	<path id="XMLID_42_" class="st7" d="M90.9,139.8c0,1.2-0.3,2.1-0.9,2.8c-0.6,0.7-1.5,1-2.5,1c-0.7,0-1.3-0.2-1.8-0.5
		c-0.5-0.3-0.9-0.8-1.2-1.3s-0.4-1.3-0.4-2c0-1.2,0.3-2.1,0.9-2.8s1.4-1,2.5-1c1,0,1.9,0.3,2.5,1C90.6,137.7,90.9,138.7,90.9,139.8z
		 M85.3,139.8c0,0.9,0.2,1.6,0.5,2.1s0.9,0.7,1.6,0.7c0.7,0,1.2-0.2,1.6-0.7c0.4-0.5,0.6-1.2,0.6-2.1s-0.2-1.6-0.6-2.1
		c-0.4-0.5-0.9-0.7-1.6-0.7C86,137,85.3,138,85.3,139.8z"/>
	<path id="XMLID_40_" class="st7" d="M93.9,136.2v4.8c0,0.6,0.1,1,0.4,1.3s0.7,0.4,1.2,0.4c0.8,0,1.3-0.2,1.7-0.6
		c0.3-0.4,0.5-1.1,0.5-2v-3.8H99v7.4h-1l-0.2-1h-0.1c-0.2,0.4-0.5,0.6-0.9,0.8s-0.9,0.3-1.4,0.3c-0.9,0-1.6-0.2-2-0.6
		s-0.7-1.1-0.7-2v-4.8H93.9z"/>
	<path id="XMLID_38_" class="st7" d="M104.7,136c0.3,0,0.6,0,0.9,0.1l-0.1,1.1c-0.3-0.1-0.5-0.1-0.8-0.1c-0.4,0-0.8,0.1-1.1,0.3
		c-0.3,0.2-0.6,0.5-0.8,0.9s-0.3,0.8-0.3,1.3v3.9h-1.2v-7.4h1l0.1,1.4h0.1c0.3-0.5,0.6-0.9,1-1.1C103.9,136.1,104.3,136,104.7,136z"
		/>
	<path id="XMLID_36_" class="st7" d="M116.6,143.5l-1.3-4.2c-0.1-0.3-0.3-1-0.5-2h-0.1c-0.2,0.9-0.4,1.5-0.5,2l-1.3,4.1h-1.4l-2-7.4
		h1.3c0.5,1.8,0.8,3.2,1.1,4.1s0.4,1.6,0.4,2h0.1l0.1-0.4c0.1-0.6,0.3-1.2,0.4-1.6l1.3-4.2h1.3l1.3,4.2c0,0.2,0.1,0.3,0.1,0.5
		c0.1,0.2,0.1,0.4,0.1,0.5c0,0.2,0.1,0.3,0.1,0.5c0,0.2,0.1,0.3,0.1,0.4h0.1c0-0.3,0.2-1.1,0.5-2.2l1-3.9h1.2l-2,7.4H116.6z"/>
	<path id="XMLID_33_" class="st7" d="M125.9,143.5l-0.2-1h-0.1c-0.4,0.5-0.7,0.8-1.1,0.9c-0.4,0.2-0.8,0.2-1.4,0.2
		c-0.7,0-1.3-0.2-1.7-0.6s-0.6-0.9-0.6-1.6c0-1.5,1.2-2.3,3.5-2.4l1.3,0v-0.4c0-0.6-0.1-1-0.4-1.2c-0.2-0.3-0.6-0.4-1.2-0.4
		c-0.4,0-0.8,0.1-1.1,0.2c-0.3,0.1-0.7,0.2-1,0.4l-0.4-0.9c0.4-0.2,0.8-0.4,1.2-0.5c0.4-0.1,0.9-0.2,1.3-0.2c0.9,0,1.6,0.2,2,0.6
		s0.7,1,0.7,1.9v5H125.9z M123.5,142.7c0.7,0,1.2-0.2,1.6-0.5s0.6-0.9,0.6-1.6v-0.7l-1.1,0c-0.8,0-1.5,0.2-1.9,0.4
		c-0.4,0.2-0.6,0.6-0.6,1.1c0,0.4,0.1,0.7,0.4,0.9C122.7,142.6,123,142.7,123.5,142.7z"/>
	<path id="XMLID_31_" class="st7" d="M128,136.2h1.3l1.6,4.2c0.3,0.9,0.5,1.6,0.6,2h0.1c0-0.2,0.1-0.5,0.3-0.9
		c0.1-0.5,0.3-0.8,0.4-1.1l1.5-4.2h1.3l-3.2,8.4c-0.3,0.8-0.7,1.4-1.1,1.8c-0.4,0.4-1,0.5-1.6,0.5c-0.3,0-0.7,0-1-0.1v-1
		c0.2,0.1,0.5,0.1,0.8,0.1c0.4,0,0.7-0.1,1-0.3c0.3-0.2,0.5-0.5,0.7-1l0.4-1L128,136.2z"/>
	<path id="XMLID_28_" class="st7" d="M48.5,150.7c0-0.3,0.1-0.5,0.2-0.6s0.3-0.2,0.5-0.2c0.2,0,0.4,0.1,0.5,0.2
		c0.1,0.1,0.2,0.3,0.2,0.6c0,0.3-0.1,0.5-0.2,0.6c-0.1,0.1-0.3,0.2-0.5,0.2c-0.2,0-0.4-0.1-0.5-0.2S48.5,150.9,48.5,150.7z
		 M49.8,160h-1.2v-7.4h1.2V160z"/>
	<path id="XMLID_26_" class="st7" d="M57.2,160v-4.7c0-0.6-0.1-1-0.4-1.3c-0.3-0.3-0.7-0.4-1.3-0.4c-0.8,0-1.3,0.2-1.6,0.6
		c-0.3,0.4-0.5,1.1-0.5,2v3.8h-1.2v-7.4h1l0.2,1h0.1c0.2-0.4,0.5-0.6,1-0.8c0.4-0.2,0.9-0.3,1.4-0.3c0.9,0,1.6,0.2,2,0.7
		s0.7,1.1,0.7,2v4.8H57.2z"/>
	<path id="XMLID_24_" class="st7" d="M65.5,160h-1.2v-10.5h1.2V160z"/>
	<path id="XMLID_21_" class="st7" d="M67.7,150.7c0-0.3,0.1-0.5,0.2-0.6s0.3-0.2,0.5-0.2c0.2,0,0.4,0.1,0.5,0.2
		c0.1,0.1,0.2,0.3,0.2,0.6c0,0.3-0.1,0.5-0.2,0.6c-0.1,0.1-0.3,0.2-0.5,0.2c-0.2,0-0.4-0.1-0.5-0.2S67.7,150.9,67.7,150.7z M69,160
		h-1.2v-7.4H69V160z"/>
	<path id="XMLID_19_" class="st7" d="M74.7,153.6h-1.9v6.4h-1.2v-6.4h-1.3V153l1.3-0.4v-0.4c0-0.9,0.2-1.6,0.6-2
		c0.4-0.4,1-0.7,1.8-0.7c0.5,0,0.9,0.1,1.4,0.3l-0.3,0.9c-0.4-0.1-0.8-0.2-1.1-0.2c-0.4,0-0.7,0.1-0.9,0.4c-0.2,0.3-0.3,0.7-0.3,1.3
		v0.5h1.9V153.6z"/>
	<path id="XMLID_16_" class="st7" d="M79.2,160.2c-1.1,0-2-0.3-2.6-1c-0.6-0.7-0.9-1.6-0.9-2.8c0-1.2,0.3-2.1,0.9-2.8
		c0.6-0.7,1.4-1.1,2.4-1.1c0.9,0,1.7,0.3,2.2,0.9c0.6,0.6,0.8,1.4,0.8,2.4v0.7h-5.1c0,0.8,0.2,1.5,0.6,1.9c0.4,0.4,1,0.7,1.7,0.7
		c0.4,0,0.8,0,1.1-0.1c0.4-0.1,0.8-0.2,1.2-0.4v1.1c-0.4,0.2-0.8,0.3-1.1,0.4C80.1,160.1,79.7,160.2,79.2,160.2z M78.9,153.5
		c-0.6,0-1,0.2-1.4,0.6c-0.3,0.4-0.5,0.9-0.6,1.6h3.8c0-0.7-0.2-1.2-0.5-1.6S79.5,153.5,78.9,153.5z"/>
</g>
</svg>