<!-- Generator: Adobe Illustrator 19.0.0, SVG Export Plug-In  -->
<svg version="1.1"
	 xmlns="http://www.w3.org/2000/svg" xmlns:xlink="http://www.w3.org/1999/xlink" xmlns:a="http://ns.adobe.com/AdobeSVGViewerExtensions/3.0/"
	 x="0px" y="0px" width="165.1px" height="167.8px" viewBox="0 0 165.1 167.8" style="enable-background:new 0 0 165.1 167.8;"
	 xml:space="preserve">
<style type="text/css">
	.st0{fill:#FFFFFF;}
	.st1{fill:#404215;}
	.st2{fill:#3F3F3F;}
	.st3{fill:#B77E21;}
	.st4{fill:#F4B23D;}
	.st5{fill:#CC0D29;}
</style>
<defs>
</defs>
<g id="XMLID_15_">
	<polygon id="XMLID_152_" class="st0" points="19.2,167.6 19.2,148.6 0,167.8 	"/>
	<rect id="XMLID_151_" x="15.1" class="st1" width="149.9" height="167"/>
	<rect id="XMLID_150_" x="15.1" y="104.6" class="st0" width="149.9" height="63.2"/>
	<g id="XMLID_27_">
		<g id="XMLID_29_">
			<path id="XMLID_88_" class="st2" d="M55.1,116.3H59v5.1c-0.6,0.2-1.2,0.3-1.8,0.4c-0.6,0.1-1.1,0.1-1.7,0.1
				c-1.5,0-2.6-0.4-3.4-1.3c-0.8-0.9-1.2-2.1-1.2-3.8c0-1.6,0.5-2.8,1.4-3.7s2.2-1.3,3.8-1.3c1,0,2,0.2,2.9,0.6l-0.7,1.7
				c-0.7-0.4-1.5-0.5-2.2-0.5c-0.9,0-1.6,0.3-2.2,0.9c-0.5,0.6-0.8,1.4-0.8,2.4c0,1.1,0.2,1.9,0.7,2.4c0.4,0.6,1.1,0.8,1.9,0.8
				c0.4,0,0.9,0,1.3-0.1V118h-1.9V116.3z"/>
			<path id="XMLID_85_" class="st2" d="M61.1,112.4c0-0.7,0.4-1,1.1-1c0.7,0,1.1,0.3,1.1,1c0,0.3-0.1,0.6-0.3,0.7
				c-0.2,0.2-0.5,0.3-0.8,0.3C61.4,113.4,61.1,113,61.1,112.4z M63.2,121.8h-2v-7.5h2V121.8z"/>
			<path id="XMLID_83_" class="st2" d="M69.5,115.8h-1.8v6h-2v-6h-1.1v-1l1.1-0.6v-0.6c0-0.9,0.2-1.5,0.6-1.9c0.4-0.4,1.1-0.6,2-0.6
				c0.7,0,1.3,0.1,1.9,0.3l-0.5,1.5c-0.4-0.1-0.8-0.2-1.1-0.2c-0.3,0-0.5,0.1-0.6,0.3c-0.1,0.2-0.2,0.4-0.2,0.7v0.5h1.8V115.8z"/>
			<path id="XMLID_81_" class="st2" d="M73.9,120.3c0.4,0,0.8-0.1,1.3-0.2v1.5c-0.5,0.2-1.1,0.3-1.9,0.3c-0.8,0-1.4-0.2-1.8-0.6
				s-0.6-1-0.6-1.9v-3.6h-1V115l1.1-0.7l0.6-1.6H73v1.6h2.1v1.5H73v3.6c0,0.3,0.1,0.5,0.2,0.6C73.4,120.2,73.6,120.3,73.9,120.3z"/>
			<path id="XMLID_79_" class="st2" d="M82,121.8l-2.9-7.5h2.1l1.5,4.3c0.1,0.5,0.2,1,0.3,1.5h0.1c0-0.5,0.1-1,0.3-1.5l1.4-4.3H87
				l-2.9,7.5H82z"/>
			<path id="XMLID_76_" class="st2" d="M94.9,118c0,1.2-0.3,2.2-1,2.9c-0.6,0.7-1.5,1-2.7,1c-0.7,0-1.4-0.2-1.9-0.5
				c-0.6-0.3-1-0.8-1.3-1.4c-0.3-0.6-0.4-1.3-0.4-2.1c0-1.2,0.3-2.2,1-2.9c0.6-0.7,1.5-1,2.7-1c0.7,0,1.4,0.2,1.9,0.5
				c0.6,0.3,1,0.8,1.3,1.4C94.7,116.6,94.9,117.3,94.9,118z M89.7,118c0,0.7,0.1,1.3,0.4,1.7c0.2,0.4,0.6,0.6,1.2,0.6
				c0.5,0,0.9-0.2,1.2-0.6c0.2-0.4,0.4-0.9,0.4-1.7c0-0.7-0.1-1.3-0.4-1.7c-0.2-0.4-0.6-0.6-1.2-0.6c-0.5,0-0.9,0.2-1.2,0.6
				C89.8,116.7,89.7,117.3,89.7,118z"/>
			<path id="XMLID_74_" class="st2" d="M101.9,121.8l-0.3-1h-0.1c-0.2,0.3-0.5,0.6-0.9,0.8s-0.9,0.3-1.4,0.3c-0.9,0-1.5-0.2-2-0.7
				s-0.7-1.2-0.7-2v-4.9h2v4.4c0,0.5,0.1,0.9,0.3,1.2c0.2,0.3,0.5,0.4,0.9,0.4c0.6,0,1-0.2,1.2-0.6c0.3-0.4,0.4-1,0.4-1.9v-3.5h2
				v7.5H101.9z"/>
			<path id="XMLID_72_" class="st2" d="M108.7,121.9c-2.3,0-3.5-1.3-3.5-3.8c0-1.3,0.3-2.3,1-2.9c0.6-0.7,1.5-1,2.7-1
				c0.9,0,1.6,0.2,2.3,0.5l-0.6,1.6c-0.3-0.1-0.6-0.2-0.9-0.3s-0.6-0.1-0.8-0.1c-1.1,0-1.6,0.8-1.6,2.3c0,1.5,0.5,2.2,1.6,2.2
				c0.4,0,0.8-0.1,1.1-0.2c0.3-0.1,0.7-0.3,1-0.5v1.8c-0.3,0.2-0.7,0.4-1,0.4C109.6,121.9,109.2,121.9,108.7,121.9z"/>
			<path id="XMLID_70_" class="st2" d="M119.6,121.8h-2v-4.4c0-1.1-0.4-1.6-1.2-1.6c-0.6,0-1,0.2-1.2,0.6c-0.3,0.4-0.4,1-0.4,1.9
				v3.5h-2v-10.5h2v2.1c0,0.2,0,0.6,0,1.2l0,0.6h0.1c0.5-0.7,1.2-1.1,2.2-1.1c0.9,0,1.6,0.2,2,0.7s0.7,1.2,0.7,2V121.8z"/>
			<path id="XMLID_67_" class="st2" d="M125.2,121.9c-1.2,0-2.2-0.3-2.8-1c-0.7-0.7-1-1.6-1-2.8c0-1.3,0.3-2.2,0.9-2.9
				c0.6-0.7,1.5-1,2.6-1c1.1,0,1.9,0.3,2.5,0.9c0.6,0.6,0.9,1.4,0.9,2.5v1h-4.8c0,0.6,0.2,1,0.5,1.4s0.8,0.5,1.4,0.5
				c0.5,0,0.9,0,1.3-0.1s0.8-0.2,1.3-0.5v1.6c-0.4,0.2-0.7,0.3-1.1,0.4C126.2,121.9,125.7,121.9,125.2,121.9z M124.9,115.6
				c-0.4,0-0.8,0.1-1,0.4c-0.2,0.3-0.4,0.7-0.4,1.2h2.9c0-0.5-0.1-0.9-0.4-1.2C125.6,115.8,125.3,115.6,124.9,115.6z"/>
			<path id="XMLID_65_" class="st2" d="M134.1,114.2c0.3,0,0.5,0,0.7,0.1l-0.2,1.9c-0.2,0-0.4-0.1-0.6-0.1c-0.7,0-1.2,0.2-1.5,0.5
				s-0.5,0.8-0.5,1.4v3.8h-2v-7.5h1.6l0.3,1.3h0.1c0.2-0.4,0.5-0.8,0.9-1C133.2,114.3,133.6,114.2,134.1,114.2z"/>
			<path id="XMLID_63_" class="st2" d="M141.4,119.6c0,0.8-0.3,1.4-0.8,1.8c-0.5,0.4-1.3,0.6-2.4,0.6c-0.5,0-1,0-1.4-0.1
				c-0.4-0.1-0.7-0.2-1.1-0.3v-1.7c0.4,0.2,0.8,0.3,1.3,0.5c0.5,0.1,0.9,0.2,1.3,0.2c0.7,0,1.1-0.2,1.1-0.6c0-0.2,0-0.3-0.1-0.4
				c-0.1-0.1-0.3-0.2-0.5-0.3c-0.2-0.1-0.6-0.3-1-0.4c-0.6-0.2-1-0.5-1.3-0.7c-0.3-0.2-0.5-0.4-0.6-0.7c-0.1-0.3-0.2-0.6-0.2-1
				c0-0.7,0.3-1.2,0.8-1.5s1.3-0.5,2.2-0.5c0.9,0,1.8,0.2,2.6,0.6l-0.6,1.5c-0.4-0.2-0.7-0.3-1.1-0.4c-0.3-0.1-0.7-0.2-1-0.2
				c-0.6,0-0.9,0.2-0.9,0.5c0,0.2,0.1,0.3,0.3,0.5c0.2,0.1,0.6,0.3,1.3,0.6c0.6,0.2,1,0.5,1.3,0.7c0.3,0.2,0.5,0.4,0.6,0.7
				C141.3,118.9,141.4,119.2,141.4,119.6z"/>
			<path id="XMLID_61_" class="st2" d="M54.2,138.3h-3.5v-0.7l1.2-0.3v-7.9l-1.2-0.3v-0.7h3.5v0.7l-1.2,0.3v7.9l1.2,0.3V138.3z"/>
			<path id="XMLID_59_" class="st2" d="M63,130.8c0.3,0,0.6,0,0.9,0.1l-0.1,1.1c-0.3-0.1-0.5-0.1-0.8-0.1c-0.4,0-0.8,0.1-1.1,0.3
				c-0.3,0.2-0.6,0.5-0.8,0.9c-0.2,0.4-0.3,0.8-0.3,1.3v3.9h-1.2v-7.4h1l0.1,1.4h0.1c0.3-0.5,0.6-0.9,1-1.1
				C62.1,130.9,62.5,130.8,63,130.8z"/>
			<path id="XMLID_56_" class="st2" d="M68.2,138.5c-1.1,0-2-0.3-2.6-1c-0.6-0.7-0.9-1.6-0.9-2.8c0-1.2,0.3-2.1,0.9-2.8
				s1.4-1.1,2.4-1.1c0.9,0,1.7,0.3,2.2,0.9c0.6,0.6,0.8,1.4,0.8,2.4v0.7h-5.1c0,0.8,0.2,1.5,0.6,1.9c0.4,0.4,1,0.7,1.7,0.7
				c0.4,0,0.8,0,1.1-0.1s0.8-0.2,1.2-0.4v1.1c-0.4,0.2-0.8,0.3-1.1,0.4C69.1,138.4,68.7,138.5,68.2,138.5z M67.9,131.8
				c-0.6,0-1,0.2-1.4,0.6c-0.3,0.4-0.5,0.9-0.6,1.6h3.8c0-0.7-0.2-1.2-0.5-1.6C68.9,132,68.5,131.8,67.9,131.8z"/>
			<path id="XMLID_53_" class="st2" d="M77.4,138.3l-0.2-1h-0.1c-0.4,0.5-0.7,0.8-1.1,0.9c-0.4,0.2-0.8,0.2-1.4,0.2
				c-0.7,0-1.3-0.2-1.7-0.6c-0.4-0.4-0.6-0.9-0.6-1.6c0-1.5,1.2-2.3,3.5-2.4l1.3,0v-0.4c0-0.6-0.1-1-0.4-1.2s-0.6-0.4-1.2-0.4
				c-0.4,0-0.8,0.1-1.1,0.2c-0.3,0.1-0.7,0.2-1,0.4l-0.4-0.9c0.4-0.2,0.8-0.4,1.2-0.5c0.4-0.1,0.9-0.2,1.3-0.2c0.9,0,1.6,0.2,2,0.6
				c0.4,0.4,0.7,1,0.7,1.9v5H77.4z M74.9,137.5c0.7,0,1.2-0.2,1.6-0.5s0.6-0.9,0.6-1.6v-0.7l-1.1,0c-0.8,0-1.5,0.2-1.9,0.4
				c-0.4,0.2-0.6,0.6-0.6,1.1c0,0.4,0.1,0.7,0.4,0.9C74.1,137.4,74.5,137.5,74.9,137.5z"/>
			<path id="XMLID_51_" class="st2" d="M81.8,138.3h-1.2v-10.5h1.2V138.3z"/>
			<path id="XMLID_49_" class="st2" d="M85.3,138.3h-1.2v-10.5h1.2V138.3z"/>
			<path id="XMLID_47_" class="st2" d="M86.5,130.9h1.3l1.6,4.2c0.3,0.9,0.5,1.6,0.6,2h0.1c0-0.2,0.1-0.5,0.3-0.9
				c0.1-0.5,0.3-0.8,0.4-1.1l1.5-4.2h1.3l-3.2,8.4c-0.3,0.8-0.7,1.4-1.1,1.8s-1,0.5-1.6,0.5c-0.3,0-0.7,0-1-0.1v-1
				c0.2,0.1,0.5,0.1,0.8,0.1c0.4,0,0.7-0.1,1-0.3c0.3-0.2,0.5-0.5,0.7-1l0.4-1L86.5,130.9z"/>
			<path id="XMLID_45_" class="st2" d="M99.5,138.3h-1.2v-10.5h1.2V138.3z"/>
			<path id="XMLID_42_" class="st2" d="M101.7,129c0-0.3,0.1-0.5,0.2-0.6s0.3-0.2,0.5-0.2c0.2,0,0.4,0.1,0.5,0.2
				c0.1,0.1,0.2,0.3,0.2,0.6c0,0.3-0.1,0.5-0.2,0.6c-0.1,0.1-0.3,0.2-0.5,0.2c-0.2,0-0.4-0.1-0.5-0.2
				C101.8,129.4,101.7,129.2,101.7,129z M103,138.3h-1.2v-7.4h1.2V138.3z"/>
			<path id="XMLID_40_" class="st2" d="M106.5,134.5l0.4-0.5l0.5-0.6l2.4-2.5h1.4l-3,3.2l3.2,4.2h-1.5l-2.6-3.4l-0.8,0.7v2.7h-1.2
				v-10.5h1.2v5.5V134.5L106.5,134.5z"/>
			<path id="XMLID_37_" class="st2" d="M115.7,138.5c-1.1,0-2-0.3-2.6-1c-0.6-0.7-0.9-1.6-0.9-2.8c0-1.2,0.3-2.1,0.9-2.8
				c0.6-0.7,1.4-1.1,2.4-1.1c0.9,0,1.7,0.3,2.2,0.9s0.8,1.4,0.8,2.4v0.7h-5.1c0,0.8,0.2,1.5,0.6,1.9c0.4,0.4,1,0.7,1.7,0.7
				c0.4,0,0.8,0,1.1-0.1c0.4-0.1,0.8-0.2,1.2-0.4v1.1c-0.4,0.2-0.8,0.3-1.1,0.4C116.6,138.4,116.2,138.5,115.7,138.5z M115.4,131.8
				c-0.6,0-1,0.2-1.4,0.6s-0.5,0.9-0.6,1.6h3.8c0-0.7-0.2-1.2-0.5-1.6C116.4,132,116,131.8,115.4,131.8z"/>
			<path id="XMLID_35_" class="st2" d="M122.7,130.9h1.3l1.6,4.2c0.3,0.9,0.5,1.6,0.6,2h0.1c0-0.2,0.1-0.5,0.3-0.9
				c0.1-0.5,0.3-0.8,0.4-1.1l1.5-4.2h1.3l-3.2,8.4c-0.3,0.8-0.7,1.4-1.1,1.8s-1,0.5-1.6,0.5c-0.3,0-0.7,0-1-0.1v-1
				c0.2,0.1,0.5,0.1,0.8,0.1c0.4,0,0.7-0.1,1-0.3c0.3-0.2,0.5-0.5,0.7-1l0.4-1L122.7,130.9z"/>
			<path id="XMLID_32_" class="st2" d="M137.3,134.6c0,1.2-0.3,2.1-0.9,2.8c-0.6,0.7-1.5,1-2.5,1c-0.7,0-1.3-0.2-1.8-0.5
				c-0.5-0.3-0.9-0.8-1.2-1.3c-0.3-0.6-0.4-1.3-0.4-2c0-1.2,0.3-2.1,0.9-2.8c0.6-0.7,1.4-1,2.5-1c1,0,1.9,0.3,2.5,1
				C137,132.5,137.3,133.5,137.3,134.6z M131.8,134.6c0,0.9,0.2,1.6,0.5,2.1c0.4,0.5,0.9,0.7,1.6,0.7c0.7,0,1.2-0.2,1.6-0.7
				c0.4-0.5,0.6-1.2,0.6-2.1s-0.2-1.6-0.6-2.1c-0.4-0.5-0.9-0.7-1.6-0.7C132.5,131.8,131.8,132.8,131.8,134.6z"/>
			<path id="XMLID_30_" class="st2" d="M140.4,130.9v4.8c0,0.6,0.1,1,0.4,1.3s0.7,0.4,1.2,0.4c0.8,0,1.3-0.2,1.7-0.6
				c0.3-0.4,0.5-1.1,0.5-2v-3.8h1.2v7.4h-1l-0.2-1h-0.1c-0.2,0.4-0.5,0.6-0.9,0.8c-0.4,0.2-0.9,0.3-1.4,0.3c-0.9,0-1.6-0.2-2-0.6
				s-0.7-1.1-0.7-2v-4.8H140.4z"/>
		</g>
	</g>
	<g id="XMLID_21_">
		<rect id="XMLID_26_" x="41.5" y="55.8" class="st3" width="93.9" height="34.3"/>
		
			<rect id="XMLID_25_" x="38.1" y="33" transform="matrix(0.9075 -0.42 0.42 0.9075 -14.2776 39.7863)" class="st4" width="90.2" height="38.6"/>
		<circle id="XMLID_24_" class="st0" cx="97.2" cy="40.3" r="3.8"/>
		<circle id="XMLID_23_" class="st0" cx="115.3" cy="44.2" r="3.8"/>
		
			<rect id="XMLID_22_" x="104.6" y="28.4" transform="matrix(0.9416 0.3368 -0.3368 0.9416 20.4294 -33.1341)" class="st0" width="2.3" height="27.8"/>
	</g>
	<g id="XMLID_16_">
		<circle id="XMLID_20_" class="st5" cx="29.9" cy="115.8" r="4"/>
		<path id="XMLID_19_" class="st5" d="M25.8,115.8h8.1v10.1C33.9,125.8,25.8,120.9,25.8,115.8z"/>
		<circle id="XMLID_18_" class="st5" cx="37.9" cy="115.6" r="4"/>
		<path id="XMLID_17_" class="st5" d="M41.9,115.6h-8.1v10.1C33.9,125.7,41.9,120.8,41.9,115.6z"/>
	</g>
</g>
</svg>