<!-- Generator: Adobe Illustrator 19.0.0, SVG Export Plug-In  -->
<svg version="1.1"
	 xmlns="http://www.w3.org/2000/svg" xmlns:xlink="http://www.w3.org/1999/xlink" xmlns:a="http://ns.adobe.com/AdobeSVGViewerExtensions/3.0/"
	 x="0px" y="0px" width="168.9px" height="168px" viewBox="0 0 168.9 168" style="enable-background:new 0 0 168.9 168;"
	 xml:space="preserve">
<style type="text/css">
	.st0{fill:#EF0A5D;}
	.st1{fill:#FFFFFF;}
	.st2{fill:#3F3F3F;stroke:#353535;stroke-width:0.2;stroke-miterlimit:10;}
	.st3{fill:#CC0D29;}
	.st4{fill:#E1E1E1;}
	.st5{fill:#BBBBBB;}
	.st6{fill:#8C8C8C;}
	.st7{fill:#C1A42B;}
	.st8{fill:#FFDE3E;}
	.st9{fill:#DFDFDF;}
	.st10{fill:#C8C8C8;}
	.st11{fill:none;stroke:#FFFFFF;stroke-width:0.5;stroke-miterlimit:10;}
</style>
<defs>
</defs>
<rect id="XMLID_141_" x="0.2" class="st0" width="150.5" height="167"/>
<rect id="XMLID_140_" y="88.9" class="st1" width="150.9" height="78.6"/>
<polygon id="XMLID_139_" class="st1" points="149.7,167.8 149.7,148.8 168.9,168 "/>
<g id="XMLID_39_">
	<path id="XMLID_137_" class="st2" d="M44.8,106h-2.4l-1.4-5.3c-0.1-0.2-0.1-0.6-0.3-1.2c-0.1-0.6-0.2-1-0.2-1.2
		c0,0.2-0.1,0.6-0.2,1.2c-0.1,0.5-0.2,0.9-0.3,1.2l-1.3,5.2h-2.4l-2.5-10h2.1l1.3,5.5c0.2,1,0.4,1.9,0.5,2.6c0-0.3,0.1-0.7,0.2-1.2
		c0.1-0.5,0.2-1,0.3-1.3l1.5-5.6h2l1.5,5.6c0.1,0.3,0.1,0.6,0.2,1.1c0.1,0.5,0.2,1,0.2,1.3c0-0.4,0.1-0.8,0.2-1.3
		c0.1-0.5,0.2-1,0.3-1.3l1.3-5.5h2.1L44.8,106z"/>
	<path id="XMLID_134_" class="st2" d="M53.1,106l-0.4-1h-0.1c-0.4,0.4-0.7,0.7-1.1,0.9c-0.4,0.2-0.9,0.3-1.5,0.3
		c-0.7,0-1.3-0.2-1.7-0.6c-0.4-0.4-0.6-1-0.6-1.8c0-0.8,0.3-1.4,0.9-1.8c0.6-0.4,1.4-0.6,2.6-0.6l1.3,0v-0.3c0-0.8-0.4-1.2-1.2-1.2
		c-0.6,0-1.3,0.2-2.2,0.6l-0.7-1.4c0.9-0.5,1.9-0.7,2.9-0.7c1,0,1.8,0.2,2.4,0.7c0.5,0.4,0.8,1.1,0.8,2v5.1H53.1z M52.5,102.4
		l-0.8,0c-0.6,0-1.1,0.1-1.4,0.3c-0.3,0.2-0.4,0.5-0.4,0.9c0,0.6,0.3,0.9,1,0.9c0.5,0,0.9-0.1,1.2-0.4c0.3-0.3,0.4-0.6,0.4-1.1
		V102.4z"/>
	<path id="XMLID_132_" class="st2" d="M60,104.4c0.4,0,0.8-0.1,1.3-0.2v1.6c-0.5,0.2-1.2,0.3-1.9,0.3c-0.8,0-1.4-0.2-1.8-0.6
		c-0.4-0.4-0.6-1.1-0.6-1.9v-3.7h-1V99l1.1-0.7l0.6-1.6h1.3v1.6h2.1v1.6h-2.1v3.7c0,0.3,0.1,0.5,0.2,0.7
		C59.5,104.4,59.7,104.4,60,104.4z"/>
	<path id="XMLID_130_" class="st2" d="M65.9,106.1c-2.4,0-3.6-1.3-3.6-3.9c0-1.3,0.3-2.3,1-3c0.6-0.7,1.6-1,2.8-1
		c0.9,0,1.7,0.2,2.4,0.5l-0.6,1.6c-0.3-0.1-0.6-0.2-0.9-0.3c-0.3-0.1-0.6-0.1-0.8-0.1c-1.1,0-1.6,0.8-1.6,2.3c0,1.5,0.5,2.2,1.6,2.2
		c0.4,0,0.8-0.1,1.1-0.2c0.3-0.1,0.7-0.3,1-0.5v1.8c-0.3,0.2-0.7,0.4-1,0.4C66.9,106.1,66.5,106.1,65.9,106.1z"/>
	<path id="XMLID_128_" class="st2" d="M77.1,106H75v-4.5c0-1.1-0.4-1.7-1.2-1.7c-0.6,0-1,0.2-1.3,0.6s-0.4,1-0.4,1.9v3.6H70V95.3
		h2.1v2.2c0,0.2,0,0.6,0,1.2l0,0.6h0.1c0.5-0.7,1.2-1.1,2.2-1.1c0.9,0,1.6,0.2,2,0.7c0.5,0.5,0.7,1.2,0.7,2.1V106z"/>
	<path id="XMLID_125_" class="st2" d="M82.7,106.1c-1.2,0-2.2-0.3-2.9-1c-0.7-0.7-1-1.6-1-2.9c0-1.3,0.3-2.3,1-3
		c0.6-0.7,1.5-1,2.7-1c1.1,0,1.9,0.3,2.5,0.9s0.9,1.5,0.9,2.5v1h-4.9c0,0.6,0.2,1.1,0.5,1.4c0.3,0.3,0.8,0.5,1.4,0.5
		c0.5,0,0.9,0,1.3-0.1s0.8-0.2,1.3-0.5v1.6c-0.4,0.2-0.8,0.3-1.2,0.4S83.3,106.1,82.7,106.1z M82.4,99.7c-0.4,0-0.8,0.1-1,0.4
		s-0.4,0.7-0.4,1.2h2.9c0-0.5-0.1-0.9-0.4-1.2S82.8,99.7,82.4,99.7z"/>
	<path id="XMLID_123_" class="st2" d="M92.8,103.7c0,0.8-0.3,1.4-0.8,1.8c-0.5,0.4-1.4,0.6-2.4,0.6c-0.6,0-1,0-1.4-0.1
		s-0.8-0.2-1.1-0.3v-1.7c0.4,0.2,0.8,0.3,1.3,0.5s0.9,0.2,1.3,0.2c0.8,0,1.1-0.2,1.1-0.7c0-0.2-0.1-0.3-0.2-0.4s-0.3-0.2-0.5-0.3
		s-0.6-0.3-1-0.5c-0.6-0.2-1-0.5-1.3-0.7c-0.3-0.2-0.5-0.5-0.6-0.7c-0.1-0.3-0.2-0.6-0.2-1c0-0.7,0.3-1.2,0.8-1.6
		c0.5-0.4,1.3-0.6,2.2-0.6c0.9,0,1.8,0.2,2.7,0.6l-0.6,1.5c-0.4-0.2-0.7-0.3-1.1-0.4c-0.3-0.1-0.7-0.2-1-0.2c-0.6,0-0.9,0.2-0.9,0.5
		c0,0.2,0.1,0.3,0.3,0.5s0.6,0.3,1.3,0.6c0.6,0.2,1,0.5,1.3,0.7c0.3,0.2,0.5,0.5,0.6,0.7S92.8,103.3,92.8,103.7z"/>
	<path id="XMLID_121_" class="st2" d="M37.4,120.4h-3.1v-0.6l1-0.2v-6.9l-1-0.2v-0.6h3.1v0.6l-1,0.2v6.9l1,0.2V120.4z"/>
	<path id="XMLID_118_" class="st2" d="M46,120.4l-0.2-0.9h0c-0.3,0.4-0.6,0.7-1,0.8s-0.7,0.2-1.2,0.2c-0.6,0-1.1-0.2-1.5-0.5
		s-0.5-0.8-0.5-1.4c0-1.3,1-2,3.1-2.1l1.1,0v-0.4c0-0.5-0.1-0.8-0.3-1.1s-0.5-0.3-1-0.3c-0.3,0-0.7,0.1-1,0.2s-0.6,0.2-0.9,0.3
		l-0.3-0.8c0.3-0.2,0.7-0.3,1.1-0.4s0.8-0.1,1.1-0.1c0.8,0,1.4,0.2,1.7,0.5s0.6,0.9,0.6,1.6v4.4H46z M43.8,119.6
		c0.6,0,1.1-0.2,1.4-0.5s0.5-0.8,0.5-1.4v-0.6l-0.9,0c-0.7,0-1.3,0.1-1.6,0.4s-0.5,0.5-0.5,1c0,0.3,0.1,0.6,0.3,0.8
		S43.4,119.6,43.8,119.6z"/>
	<path id="XMLID_115_" class="st2" d="M51.8,120.5c-0.9,0-1.5-0.3-2-0.9h-0.1l0,0.2c0,0.3,0,0.6,0,0.8v2.6h-1.1v-9.3h0.9l0.1,0.9h0
		c0.3-0.4,0.5-0.6,0.9-0.8s0.7-0.2,1.1-0.2c0.8,0,1.5,0.3,1.9,0.9s0.7,1.4,0.7,2.5c0,1.1-0.2,1.9-0.7,2.5S52.6,120.5,51.8,120.5z
		 M51.6,114.7c-0.6,0-1.1,0.2-1.4,0.5s-0.4,0.9-0.4,1.7v0.2c0,0.9,0.1,1.5,0.4,1.9s0.8,0.6,1.4,0.6c0.5,0,1-0.2,1.3-0.7
		s0.5-1,0.5-1.8c0-0.8-0.2-1.4-0.5-1.8S52.2,114.7,51.6,114.7z"/>
	<path id="XMLID_112_" class="st2" d="M59.2,120.5c-0.9,0-1.5-0.3-2-0.9h-0.1l0,0.2c0,0.3,0,0.6,0,0.8v2.6h-1.1v-9.3H57l0.1,0.9h0
		c0.3-0.4,0.5-0.6,0.9-0.8s0.7-0.2,1.1-0.2c0.8,0,1.5,0.3,1.9,0.9s0.7,1.4,0.7,2.5c0,1.1-0.2,1.9-0.7,2.5S60,120.5,59.2,120.5z
		 M59,114.7c-0.6,0-1.1,0.2-1.4,0.5s-0.4,0.9-0.4,1.7v0.2c0,0.9,0.1,1.5,0.4,1.9s0.8,0.6,1.4,0.6c0.5,0,1-0.2,1.3-0.7s0.5-1,0.5-1.8
		c0-0.8-0.2-1.4-0.5-1.8S59.5,114.7,59,114.7z"/>
	<path id="XMLID_110_" class="st2" d="M66.5,113.8c0.3,0,0.5,0,0.8,0.1l-0.1,1c-0.2-0.1-0.5-0.1-0.7-0.1c-0.3,0-0.7,0.1-0.9,0.3
		s-0.5,0.4-0.7,0.8s-0.2,0.7-0.2,1.1v3.4h-1.1v-6.4h0.9l0.1,1.2h0c0.2-0.4,0.5-0.7,0.9-1S66.1,113.8,66.5,113.8z"/>
	<path id="XMLID_107_" class="st2" d="M71.1,120.5c-1,0-1.7-0.3-2.3-0.9s-0.8-1.4-0.8-2.4c0-1,0.3-1.9,0.8-2.5s1.2-0.9,2.1-0.9
		c0.8,0,1.5,0.3,1.9,0.8s0.7,1.2,0.7,2.1v0.6h-4.4c0,0.7,0.2,1.3,0.6,1.7s0.8,0.6,1.5,0.6c0.3,0,0.7,0,1-0.1s0.7-0.2,1.1-0.4v0.9
		c-0.4,0.2-0.7,0.3-1,0.3S71.5,120.5,71.1,120.5z M70.8,114.7c-0.5,0-0.9,0.2-1.2,0.5s-0.5,0.8-0.5,1.4h3.3c0-0.6-0.1-1.1-0.4-1.4
		S71.3,114.7,70.8,114.7z"/>
	<path id="XMLID_105_" class="st2" d="M77.7,120.5c-0.9,0-1.6-0.3-2.2-0.9s-0.8-1.4-0.8-2.4c0-1.1,0.3-1.9,0.8-2.5s1.3-0.9,2.2-0.9
		c0.3,0,0.6,0,0.9,0.1s0.6,0.1,0.8,0.2l-0.3,0.9c-0.5-0.2-1-0.3-1.4-0.3c-0.6,0-1.1,0.2-1.4,0.6s-0.5,1-0.5,1.8
		c0,0.8,0.2,1.4,0.5,1.8s0.8,0.6,1.4,0.6c0.6,0,1.1-0.1,1.7-0.4v0.9C78.9,120.4,78.3,120.5,77.7,120.5z"/>
	<path id="XMLID_102_" class="st2" d="M80.8,112.2c0-0.2,0.1-0.4,0.2-0.5s0.3-0.2,0.4-0.2c0.2,0,0.3,0.1,0.4,0.2s0.2,0.3,0.2,0.5
		c0,0.2-0.1,0.4-0.2,0.5s-0.3,0.2-0.4,0.2c-0.2,0-0.3-0.1-0.4-0.2S80.8,112.4,80.8,112.2z M81.9,120.4h-1.1v-6.4h1.1V120.4z"/>
	<path id="XMLID_99_" class="st2" d="M87.9,120.4l-0.2-0.9h0c-0.3,0.4-0.6,0.7-1,0.8s-0.7,0.2-1.2,0.2c-0.6,0-1.1-0.2-1.5-0.5
		s-0.5-0.8-0.5-1.4c0-1.3,1-2,3.1-2.1l1.1,0v-0.4c0-0.5-0.1-0.8-0.3-1.1s-0.5-0.3-1-0.3c-0.3,0-0.7,0.1-1,0.2s-0.6,0.2-0.9,0.3
		l-0.3-0.8c0.3-0.2,0.7-0.3,1.1-0.4s0.8-0.1,1.1-0.1c0.8,0,1.4,0.2,1.7,0.5s0.6,0.9,0.6,1.6v4.4H87.9z M85.8,119.6
		c0.6,0,1.1-0.2,1.4-0.5s0.5-0.8,0.5-1.4v-0.6l-0.9,0c-0.7,0-1.3,0.1-1.6,0.4s-0.5,0.5-0.5,1c0,0.3,0.1,0.6,0.3,0.8
		S85.4,119.6,85.8,119.6z"/>
	<path id="XMLID_97_" class="st2" d="M92.8,119.6c0.1,0,0.3,0,0.5,0s0.3-0.1,0.4-0.1v0.8c-0.1,0-0.2,0.1-0.5,0.1s-0.4,0.1-0.6,0.1
		c-1.3,0-1.9-0.7-1.9-2v-3.7h-0.9v-0.5l0.9-0.4l0.4-1.4h0.6v1.5h1.9v0.8h-1.9v3.7c0,0.4,0.1,0.7,0.3,0.9S92.5,119.6,92.8,119.6z"/>
	<path id="XMLID_94_" class="st2" d="M97.8,120.5c-1,0-1.7-0.3-2.3-0.9s-0.8-1.4-0.8-2.4c0-1,0.3-1.9,0.8-2.5s1.2-0.9,2.1-0.9
		c0.8,0,1.5,0.3,1.9,0.8s0.7,1.2,0.7,2.1v0.6h-4.4c0,0.7,0.2,1.3,0.6,1.7s0.8,0.6,1.5,0.6c0.3,0,0.7,0,1-0.1s0.7-0.2,1.1-0.4v0.9
		c-0.4,0.2-0.7,0.3-1,0.3S98.2,120.5,97.8,120.5z M97.5,114.7c-0.5,0-0.9,0.2-1.2,0.5s-0.5,0.8-0.5,1.4h3.3c0-0.6-0.1-1.1-0.4-1.4
		S98,114.7,97.5,114.7z"/>
	<path id="XMLID_92_" class="st2" d="M107.1,119.6c0.1,0,0.3,0,0.5,0s0.3-0.1,0.4-0.1v0.8c-0.1,0-0.2,0.1-0.5,0.1s-0.4,0.1-0.6,0.1
		c-1.3,0-1.9-0.7-1.9-2v-3.7h-0.9v-0.5l0.9-0.4l0.4-1.4h0.6v1.5h1.9v0.8h-1.9v3.7c0,0.4,0.1,0.7,0.3,0.9S106.7,119.6,107.1,119.6z"
		/>
	<path id="XMLID_90_" class="st2" d="M113.6,120.4v-4.1c0-0.5-0.1-0.9-0.3-1.2s-0.6-0.4-1.1-0.4c-0.7,0-1.1,0.2-1.4,0.5
		s-0.5,1-0.5,1.8v3.3h-1.1v-9.1h1.1v2.7c0,0.4,0,0.7-0.1,0.9h0.1c0.2-0.3,0.5-0.6,0.8-0.7s0.7-0.3,1.2-0.3c0.8,0,1.4,0.2,1.8,0.6
		s0.6,1,0.6,1.8v4.2H113.6z"/>
	<path id="XMLID_87_" class="st2" d="M119.4,120.5c-1,0-1.7-0.3-2.3-0.9s-0.8-1.4-0.8-2.4c0-1,0.3-1.9,0.8-2.5s1.2-0.9,2.1-0.9
		c0.8,0,1.5,0.3,1.9,0.8s0.7,1.2,0.7,2.1v0.6h-4.4c0,0.7,0.2,1.3,0.6,1.7s0.8,0.6,1.5,0.6c0.3,0,0.7,0,1-0.1s0.7-0.2,1.1-0.4v0.9
		c-0.4,0.2-0.7,0.3-1,0.3S119.8,120.5,119.4,120.5z M119.1,114.7c-0.5,0-0.9,0.2-1.2,0.5s-0.5,0.8-0.5,1.4h3.3
		c0-0.6-0.1-1.1-0.4-1.4S119.6,114.7,119.1,114.7z"/>
	<path id="XMLID_85_" class="st2" d="M37,134c0.1,0,0.3,0,0.5,0s0.3-0.1,0.4-0.1v0.8c-0.1,0-0.2,0.1-0.5,0.1s-0.4,0.1-0.6,0.1
		c-1.3,0-1.9-0.7-1.9-2v-3.7H34v-0.5l0.9-0.4l0.4-1.4H36v1.5h1.9v0.8H36v3.7c0,0.4,0.1,0.7,0.3,0.9S36.7,134,37,134z"/>
	<path id="XMLID_82_" class="st2" d="M39.1,126.6c0-0.2,0.1-0.4,0.2-0.5s0.3-0.2,0.4-0.2c0.2,0,0.3,0.1,0.4,0.2s0.2,0.3,0.2,0.5
		c0,0.2-0.1,0.4-0.2,0.5s-0.3,0.2-0.4,0.2c-0.2,0-0.3-0.1-0.4-0.2S39.1,126.8,39.1,126.6z M40.2,134.8h-1.1v-6.4h1.1V134.8z"/>
	<path id="XMLID_80_" class="st2" d="M50.4,134.8v-4.1c0-1-0.4-1.5-1.3-1.5c-0.6,0-1,0.2-1.3,0.5s-0.4,0.9-0.4,1.6v3.6h-1v-4.1
		c0-0.5-0.1-0.9-0.3-1.1s-0.5-0.4-1-0.4c-0.6,0-1,0.2-1.3,0.5s-0.4,1-0.4,1.8v3.3h-1.1v-6.4h0.8l0.2,0.9h0.1
		c0.2-0.3,0.4-0.6,0.8-0.7s0.7-0.3,1.1-0.3c1,0,1.7,0.4,2,1.1h0.1c0.2-0.3,0.5-0.6,0.8-0.8s0.8-0.3,1.2-0.3c0.7,0,1.3,0.2,1.6,0.6
		s0.5,1,0.5,1.8v4.2H50.4z"/>
	<path id="XMLID_77_" class="st2" d="M56.2,134.9c-1,0-1.7-0.3-2.3-0.9s-0.8-1.4-0.8-2.4c0-1,0.3-1.9,0.8-2.5s1.2-0.9,2.1-0.9
		c0.8,0,1.5,0.3,1.9,0.8s0.7,1.2,0.7,2.1v0.6h-4.4c0,0.7,0.2,1.3,0.6,1.7s0.8,0.6,1.5,0.6c0.3,0,0.7,0,1-0.1s0.7-0.2,1.1-0.4v0.9
		c-0.4,0.2-0.7,0.3-1,0.3S56.6,134.9,56.2,134.9z M55.9,129.1c-0.5,0-0.9,0.2-1.2,0.5s-0.5,0.8-0.5,1.4h3.3c0-0.6-0.1-1.1-0.4-1.4
		S56.4,129.1,55.9,129.1z"/>
	<path id="XMLID_75_" class="st2" d="M68.6,134.8l-1.1-3.6c-0.1-0.3-0.3-0.9-0.4-1.7h0c-0.2,0.8-0.3,1.3-0.4,1.7l-1.2,3.6h-1.2
		l-1.8-6.4h1.1c0.4,1.6,0.7,2.8,0.9,3.6s0.3,1.4,0.4,1.7h0l0.1-0.4c0.1-0.6,0.2-1,0.4-1.4l1.1-3.6h1.1l1.1,3.6
		c0,0.1,0.1,0.3,0.1,0.4s0.1,0.3,0.1,0.5s0.1,0.3,0.1,0.4s0.1,0.3,0.1,0.4h0.1c0-0.3,0.2-0.9,0.4-1.9l0.9-3.4h1.1l-1.8,6.4H68.6z"/>
	<path id="XMLID_72_" class="st2" d="M75.5,134.9c-1,0-1.7-0.3-2.3-0.9s-0.8-1.4-0.8-2.4c0-1,0.3-1.9,0.8-2.5s1.2-0.9,2.1-0.9
		c0.8,0,1.5,0.3,1.9,0.8s0.7,1.2,0.7,2.1v0.6h-4.4c0,0.7,0.2,1.3,0.6,1.7s0.8,0.6,1.5,0.6c0.3,0,0.7,0,1-0.1s0.7-0.2,1.1-0.4v0.9
		c-0.4,0.2-0.7,0.3-1,0.3S75.9,134.9,75.5,134.9z M75.3,129.1c-0.5,0-0.9,0.2-1.2,0.5s-0.5,0.8-0.5,1.4h3.3c0-0.6-0.1-1.1-0.4-1.4
		S75.7,129.1,75.3,129.1z"/>
	<path id="XMLID_70_" class="st2" d="M86.9,133c0,0.6-0.2,1.1-0.7,1.4s-1.1,0.5-1.9,0.5c-0.8,0-1.5-0.1-2-0.4v-1
		c0.7,0.3,1.4,0.5,2,0.5c0.5,0,0.9-0.1,1.2-0.3s0.4-0.4,0.4-0.7c0-0.3-0.1-0.5-0.3-0.6s-0.6-0.4-1.2-0.6c-0.6-0.2-1-0.4-1.3-0.6
		s-0.4-0.4-0.5-0.6s-0.2-0.5-0.2-0.8c0-0.5,0.2-0.9,0.6-1.2s1-0.5,1.8-0.5c0.7,0,1.4,0.1,2.1,0.4l-0.4,0.8c-0.7-0.3-1.2-0.4-1.8-0.4
		c-0.4,0-0.8,0.1-1,0.2s-0.3,0.3-0.3,0.6c0,0.2,0.1,0.4,0.3,0.6s0.7,0.4,1.4,0.6c0.5,0.2,0.9,0.4,1.2,0.6s0.4,0.4,0.6,0.6
		S86.9,132.7,86.9,133z"/>
	<path id="XMLID_67_" class="st2" d="M91.5,134.9c-0.9,0-1.5-0.3-2-0.9h-0.1l0,0.2c0,0.3,0,0.6,0,0.8v2.6h-1.1v-9.3h0.9l0.1,0.9h0
		c0.3-0.4,0.5-0.6,0.9-0.8s0.7-0.2,1.1-0.2c0.8,0,1.5,0.3,1.9,0.9s0.7,1.4,0.7,2.5c0,1.1-0.2,1.9-0.7,2.5S92.3,134.9,91.5,134.9z
		 M91.3,129.1c-0.6,0-1.1,0.2-1.4,0.5s-0.4,0.9-0.4,1.7v0.2c0,0.9,0.1,1.5,0.4,1.9s0.8,0.6,1.4,0.6c0.5,0,1-0.2,1.3-0.7
		s0.5-1,0.5-1.8c0-0.8-0.2-1.4-0.5-1.8S91.8,129.1,91.3,129.1z"/>
	<path id="XMLID_64_" class="st2" d="M98.5,134.9c-1,0-1.7-0.3-2.3-0.9s-0.8-1.4-0.8-2.4c0-1,0.3-1.9,0.8-2.5s1.2-0.9,2.1-0.9
		c0.8,0,1.5,0.3,1.9,0.8s0.7,1.2,0.7,2.1v0.6h-4.4c0,0.7,0.2,1.3,0.6,1.7s0.8,0.6,1.5,0.6c0.3,0,0.7,0,1-0.1s0.7-0.2,1.1-0.4v0.9
		c-0.4,0.2-0.7,0.3-1,0.3S99,134.9,98.5,134.9z M98.3,129.1c-0.5,0-0.9,0.2-1.2,0.5s-0.5,0.8-0.5,1.4h3.3c0-0.6-0.1-1.1-0.4-1.4
		S98.8,129.1,98.3,129.1z"/>
	<path id="XMLID_62_" class="st2" d="M106.9,134.8v-4.1c0-0.5-0.1-0.9-0.3-1.2s-0.6-0.4-1.1-0.4c-0.7,0-1.1,0.2-1.4,0.5
		s-0.4,1-0.4,1.8v3.3h-1.1v-6.4h0.8l0.2,0.9h0.1c0.2-0.3,0.5-0.6,0.8-0.7s0.8-0.3,1.2-0.3c0.8,0,1.4,0.2,1.8,0.6s0.6,1,0.6,1.8v4.2
		H106.9z"/>
	<path id="XMLID_60_" class="st2" d="M112.1,134c0.1,0,0.3,0,0.5,0s0.3-0.1,0.4-0.1v0.8c-0.1,0-0.2,0.1-0.5,0.1s-0.4,0.1-0.6,0.1
		c-1.3,0-1.9-0.7-1.9-2v-3.7h-0.9v-0.5l0.9-0.4l0.4-1.4h0.6v1.5h1.9v0.8h-1.9v3.7c0,0.4,0.1,0.7,0.3,0.9S111.8,134,112.1,134z"/>
	<path id="XMLID_58_" class="st2" d="M37,148.4c0.1,0,0.3,0,0.5,0s0.3-0.1,0.4-0.1v0.8c-0.1,0-0.2,0.1-0.5,0.1s-0.4,0.1-0.6,0.1
		c-1.3,0-1.9-0.7-1.9-2v-3.7H34V143l0.9-0.4l0.4-1.4H36v1.5h1.9v0.8H36v3.7c0,0.4,0.1,0.7,0.3,0.9S36.7,148.4,37,148.4z"/>
	<path id="XMLID_55_" class="st2" d="M44.7,145.9c0,1.1-0.3,1.9-0.8,2.5s-1.3,0.9-2.2,0.9c-0.6,0-1.1-0.1-1.5-0.4s-0.8-0.7-1-1.2
		s-0.4-1.1-0.4-1.8c0-1,0.3-1.9,0.8-2.4s1.3-0.9,2.2-0.9c0.9,0,1.6,0.3,2.2,0.9S44.7,144.9,44.7,145.9z M39.9,145.9
		c0,0.8,0.2,1.4,0.5,1.8s0.8,0.6,1.4,0.6c0.6,0,1.1-0.2,1.4-0.6s0.5-1,0.5-1.8s-0.2-1.4-0.5-1.8s-0.8-0.6-1.4-0.6
		C40.5,143.5,39.9,144.3,39.9,145.9z"/>
	<path id="XMLID_52_" class="st2" d="M50.7,149.1l0-0.8h0c-0.4,0.6-1.1,1-2,1c-0.8,0-1.5-0.3-1.9-0.9s-0.7-1.4-0.7-2.5
		c0-1,0.2-1.9,0.7-2.4s1.1-0.9,1.9-0.9c0.9,0,1.5,0.3,2,1h0.1l0.1-0.9h0.8v6.5c0,0.9-0.2,1.6-0.7,2.1s-1.2,0.7-2.2,0.7
		c-0.9,0-1.7-0.1-2.3-0.4v-1c0.6,0.3,1.4,0.5,2.4,0.5c0.5,0,1-0.2,1.3-0.5s0.5-0.8,0.5-1.3V149.1z M48.9,148.4
		c0.6,0,1.1-0.2,1.4-0.5s0.4-0.9,0.4-1.7V146c0-0.9-0.1-1.5-0.4-1.9s-0.8-0.6-1.4-0.6c-0.5,0-1,0.2-1.3,0.6s-0.4,1-0.4,1.8
		c0,0.8,0.1,1.4,0.4,1.8S48.3,148.4,48.9,148.4z"/>
	<path id="XMLID_49_" class="st2" d="M56.5,149.3c-1,0-1.7-0.3-2.3-0.9s-0.8-1.4-0.8-2.4c0-1,0.3-1.9,0.8-2.5s1.2-0.9,2.1-0.9
		c0.8,0,1.5,0.3,1.9,0.8s0.7,1.2,0.7,2.1v0.6h-4.4c0,0.7,0.2,1.3,0.6,1.7s0.8,0.6,1.5,0.6c0.3,0,0.7,0,1-0.1s0.7-0.2,1.1-0.4v0.9
		c-0.4,0.2-0.7,0.3-1,0.3S57,149.3,56.5,149.3z M56.3,143.5c-0.5,0-0.9,0.2-1.2,0.5s-0.5,0.8-0.5,1.4h3.3c0-0.6-0.1-1.1-0.4-1.4
		S56.8,143.5,56.3,143.5z"/>
	<path id="XMLID_47_" class="st2" d="M62.7,148.4c0.1,0,0.3,0,0.5,0s0.3-0.1,0.4-0.1v0.8c-0.1,0-0.2,0.1-0.5,0.1s-0.4,0.1-0.6,0.1
		c-1.3,0-1.9-0.7-1.9-2v-3.7h-0.9V143l0.9-0.4l0.4-1.4h0.6v1.5h1.9v0.8h-1.9v3.7c0,0.4,0.1,0.7,0.3,0.9S62.4,148.4,62.7,148.4z"/>
	<path id="XMLID_45_" class="st2" d="M69.3,149.2V145c0-0.5-0.1-0.9-0.3-1.2s-0.6-0.4-1.1-0.4c-0.7,0-1.1,0.2-1.4,0.5
		s-0.5,1-0.5,1.8v3.3h-1.1V140h1.1v2.7c0,0.4,0,0.7-0.1,0.9H66c0.2-0.3,0.5-0.6,0.8-0.7s0.7-0.3,1.2-0.3c0.8,0,1.4,0.2,1.8,0.6
		s0.6,1,0.6,1.8v4.2H69.3z"/>
	<path id="XMLID_42_" class="st2" d="M75,149.3c-1,0-1.7-0.3-2.3-0.9s-0.8-1.4-0.8-2.4c0-1,0.3-1.9,0.8-2.5s1.2-0.9,2.1-0.9
		c0.8,0,1.5,0.3,1.9,0.8s0.7,1.2,0.7,2.1v0.6H73c0,0.7,0.2,1.3,0.6,1.7s0.8,0.6,1.5,0.6c0.3,0,0.7,0,1-0.1s0.7-0.2,1.1-0.4v0.9
		c-0.4,0.2-0.7,0.3-1,0.3S75.5,149.3,75,149.3z M74.8,143.5c-0.5,0-0.9,0.2-1.2,0.5s-0.5,0.8-0.5,1.4h3.3c0-0.6-0.1-1.1-0.4-1.4
		S75.3,143.5,74.8,143.5z"/>
	<path id="XMLID_40_" class="st2" d="M82.1,142.6c0.3,0,0.5,0,0.8,0.1l-0.1,1c-0.2-0.1-0.5-0.1-0.7-0.1c-0.3,0-0.7,0.1-0.9,0.3
		s-0.5,0.4-0.7,0.8s-0.2,0.7-0.2,1.1v3.4h-1.1v-6.4h0.9l0.1,1.2h0c0.2-0.4,0.5-0.7,0.9-1S81.7,142.6,82.1,142.6z"/>
</g>
<g id="XMLID_34_">
	<circle id="XMLID_38_" class="st3" cx="12.9" cy="100.7" r="4"/>
	<path id="XMLID_37_" class="st3" d="M8.9,100.7H17v10.1C17,110.8,8.9,105.9,8.9,100.7z"/>
	<circle id="XMLID_36_" class="st3" cx="21" cy="100.5" r="4"/>
	<path id="XMLID_35_" class="st3" d="M25,100.5H17v10.1C17,110.6,25,105.7,25,100.5z"/>
</g>
<g id="XMLID_15_">
	<polyline id="XMLID_33_" class="st1" points="84.3,29.3 86.1,29.3 86.1,9.7 64.5,9.7 64.5,29.3 64.8,29.3 	"/>
	<rect id="XMLID_32_" x="64.5" y="15.8" class="st4" width="21.6" height="5.3"/>
	<rect id="XMLID_31_" x="84.3" y="9.7" class="st5" width="1.9" height="22.5"/>
	<rect id="XMLID_30_" x="84.3" y="15.8" class="st6" width="1.9" height="5.3"/>
	
		<rect id="XMLID_29_" x="91.9" y="50.8" transform="matrix(0.9191 0.394 -0.394 0.9191 28.6339 -32.917)" class="st7" width="5.1" height="4.9"/>
	
		<rect id="XMLID_28_" x="90.3" y="50.1" transform="matrix(0.9191 0.3939 -0.3939 0.9191 28.2221 -32.3191)" class="st8" width="5.1" height="4.9"/>
	<polyline id="XMLID_27_" class="st1" points="84.3,63.3 86.1,63.3 86.1,82.9 64.5,82.9 64.5,63.3 64.8,63.3 	"/>
	
		<rect id="XMLID_26_" x="93.6" y="34.4" transform="matrix(-0.9191 0.394 -0.394 -0.9191 199.0356 32.7988)" class="st8" width="5.1" height="4.9"/>
	<line id="XMLID_25_" class="st1" x1="65.3" y1="76.8" x2="85.4" y2="76.8"/>
	<line id="XMLID_24_" class="st1" x1="65.3" y1="70.1" x2="85.4" y2="70.1"/>
	<rect id="XMLID_23_" x="64.5" y="71.5" class="st4" width="21.6" height="5.3"/>
	<rect id="XMLID_22_" x="84.3" y="60.4" class="st5" width="1.9" height="22.5"/>
	<rect id="XMLID_21_" x="84.3" y="71.5" class="st6" width="1.9" height="5.3"/>
	<circle id="XMLID_20_" class="st6" cx="74.5" cy="45.3" r="20.5"/>
	<circle id="XMLID_19_" class="st9" cx="74.5" cy="45.3" r="15.2"/>
	<circle id="XMLID_18_" class="st10" cx="74.4" cy="45.3" r="13.3"/>
	<polyline id="XMLID_17_" class="st11" points="74.5,35.1 74.5,45.3 84,45.3 	"/>
	<circle id="XMLID_16_" class="st11" cx="74.4" cy="45.4" r="3.4"/>
</g>
</svg>