<!-- Generator: Adobe Illustrator 19.0.0, SVG Export Plug-In  -->
<svg version="1.1"
	 xmlns="http://www.w3.org/2000/svg" xmlns:xlink="http://www.w3.org/1999/xlink" xmlns:a="http://ns.adobe.com/AdobeSVGViewerExtensions/3.0/"
	 x="0px" y="0px" width="164.5px" height="166px" viewBox="0 0 164.5 166" style="enable-background:new 0 0 164.5 166;"
	 xml:space="preserve">
<style type="text/css">
	.st0{fill:#12B27D;}
	.st1{fill:#FFFFFF;}
	.st2{fill:#871616;}
	.st3{fill:#D24919;}
	.st4{fill:#B53209;}
	.st5{fill:#BFB77B;}
	.st6{fill:#F9A621;}
	.st7{fill:#FFDE9C;}
	.st8{fill:#FC2443;}
	.st9{fill:#F9E558;}
	.st10{fill:#149147;}
	.st11{fill:#0DCE5B;}
	.st12{fill:#A0944D;}
	.st13{fill:#CC0D29;}
	.st14{fill:#3F3F3F;}
	.st15{fill:#3F3F3F;stroke:#3F3F3F;stroke-width:0.2;stroke-miterlimit:10;}
</style>
<defs>
</defs>
<g id="XMLID_15_">
	<rect id="XMLID_140_" class="st0" width="150" height="141.6"/>
	<g id="XMLID_134_">
		<polygon id="XMLID_139_" class="st1" points="145.2,166 145.2,146.8 164.5,166 		"/>
		<g id="XMLID_135_">
			<rect id="XMLID_138_" y="95.7" class="st1" width="150" height="70.3"/>
			<rect id="XMLID_137_" y="95.7" class="st1" width="150" height="70.3"/>
		</g>
	</g>
	<rect id="XMLID_133_" x="25.9" y="11.5" class="st2" width="95.3" height="59.9"/>
	<rect id="XMLID_132_" x="25.9" y="30.5" class="st3" width="73.4" height="3"/>
	<rect id="XMLID_131_" x="25.9" y="11.5" class="st3" width="3" height="59.9"/>
	<rect id="XMLID_130_" x="49.3" y="11.5" class="st3" width="3" height="59.9"/>
	<rect id="XMLID_129_" x="72.8" y="11.5" class="st3" width="3" height="59.9"/>
	<rect id="XMLID_128_" x="96.2" y="11.5" class="st3" width="3" height="59.9"/>
	<rect id="XMLID_127_" x="119.7" y="8.5" class="st3" width="3" height="63"/>
	<rect id="XMLID_126_" x="25.9" y="49.4" class="st3" width="95.3" height="3"/>
	<rect id="XMLID_125_" x="25.9" y="8.5" class="st3" width="95.6" height="3"/>
	<rect id="XMLID_124_" x="25.9" y="69.5" class="st4" width="96.9" height="13.7"/>
	<circle id="XMLID_123_" class="st5" cx="87.1" cy="41.5" r="6.7"/>
	<path id="XMLID_122_" class="st5" d="M56.5,60.4c0-3.7,3-6.7,6.7-6.7c3.7,0,6.7,3,6.7,6.7"/>
	<circle id="XMLID_121_" class="st5" cx="86.2" cy="21.3" r="6.7"/>
	<circle id="XMLID_120_" class="st6" cx="62.6" cy="21.3" r="6.7"/>
	<circle id="XMLID_119_" class="st6" cx="85.8" cy="60" r="6.7"/>
	<circle id="XMLID_118_" class="st6" cx="109" cy="60" r="6.7"/>
	<circle id="XMLID_117_" class="st6" cx="39.2" cy="60.4" r="6.7"/>
	<circle id="XMLID_116_" class="st7" cx="39.2" cy="60.4" r="3.9"/>
	<circle id="XMLID_115_" class="st8" cx="40.2" cy="21.3" r="6.7"/>
	<circle id="XMLID_114_" class="st6" cx="40.2" cy="41.5" r="6.7"/>
	<path id="XMLID_113_" class="st9" d="M116.4,25.4v7.4c0,4.1-3.3,7.4-7.4,7.4l0,0c-4.1,0-7.4-3.3-7.4-7.4v-7.4
		c0-4.1,3.3-7.4,7.4-7.4l0,0C113.1,18,116.4,21.4,116.4,25.4z"/>
	<path id="XMLID_112_" class="st10" d="M96.5,16.7l-9.4,10.7C87.1,27.4,94.8,29.6,96.5,16.7z"/>
	<path id="XMLID_111_" class="st11" d="M96.7,16.9l-9.4,10.7C87.3,27.6,85.3,18.8,96.7,16.9z"/>
	<path id="XMLID_110_" class="st7" d="M66.4,46.7h-7.7c-1.6,0-2.8-1.3-2.8-2.8v-6.2c0-1.6,1.3-2.8,2.8-2.8h7.7
		c1.6,0,2.8,1.3,2.8,2.8v6.2C69.2,45.5,68,46.7,66.4,46.7z"/>
	<rect id="XMLID_109_" x="26.5" y="68" class="st3" width="95.6" height="3"/>
	<path id="XMLID_108_" class="st7" d="M67.9,62.8h-9.5c-1.1,0-1.9-0.9-1.9-1.9l0,0c0-1.1,0.9-1.9,1.9-1.9h9.5c1.1,0,1.9,0.9,1.9,1.9
		l0,0C69.8,61.9,68.9,62.8,67.9,62.8z"/>
	<path id="XMLID_107_" class="st8" d="M67.6,61.7h-9c-0.3,0-0.6-0.3-0.6-0.6v-0.5c0-0.3,0.3-0.6,0.6-0.6h9c0.3,0,0.6,0.3,0.6,0.6
		v0.5C68.3,61.4,68,61.7,67.6,61.7z"/>
	<path id="XMLID_106_" class="st12" d="M85.8,40.8L85.8,40.8c-0.7,0-1.3-0.6-1.3-1.3l0,0c0-0.7,0.6-1.3,1.3-1.3l0,0
		c0.7,0,1.3,0.6,1.3,1.3l0,0C87.1,40.2,86.5,40.8,85.8,40.8z"/>
	<path id="XMLID_105_" class="st12" d="M88.2,43.5L88.2,43.5c-0.7,0-1.3-0.6-1.3-1.3l0,0c0-0.7,0.6-1.3,1.3-1.3l0,0
		c0.7,0,1.3,0.6,1.3,1.3l0,0C89.5,43,89,43.5,88.2,43.5z"/>
	<path id="XMLID_104_" class="st12" d="M90.4,40.8L90.4,40.8c-0.7,0-1.3-0.6-1.3-1.3l0,0c0-0.7,0.6-1.3,1.3-1.3l0,0
		c0.7,0,1.3,0.6,1.3,1.3l0,0C91.7,40.2,91.1,40.8,90.4,40.8z"/>
	<g id="XMLID_99_">
		<circle id="XMLID_103_" class="st13" cx="17.4" cy="107" r="4"/>
		<path id="XMLID_102_" class="st13" d="M13.4,107h8.1V117C21.4,117,13.4,112.1,13.4,107z"/>
		<circle id="XMLID_101_" class="st13" cx="25.5" cy="106.8" r="4"/>
		<path id="XMLID_100_" class="st13" d="M29.5,106.8h-8.1v10.1C21.4,116.9,29.5,112,29.5,106.8z"/>
	</g>
	<g id="XMLID_16_">
		<path id="XMLID_97_" class="st14" d="M42.8,113.7h-2.1v-10h5.7v1.7h-3.6v2.6h3.4v1.7h-3.4V113.7z"/>
		<path id="XMLID_94_" class="st14" d="M55.2,109.9c0,1.2-0.3,2.2-1,2.9s-1.6,1.1-2.7,1.1c-0.7,0-1.4-0.2-1.9-0.5s-1-0.8-1.3-1.4
			s-0.5-1.3-0.5-2.1c0-1.2,0.3-2.2,1-2.9s1.6-1,2.7-1c0.7,0,1.4,0.2,1.9,0.5s1,0.8,1.3,1.4S55.2,109.1,55.2,109.9z M49.9,109.9
			c0,0.8,0.1,1.3,0.4,1.7s0.7,0.6,1.2,0.6c0.6,0,1-0.2,1.2-0.6s0.4-1,0.4-1.7c0-0.8-0.1-1.3-0.4-1.7s-0.6-0.6-1.2-0.6
			c-0.6,0-1,0.2-1.2,0.6S49.9,109.1,49.9,109.9z"/>
		<path id="XMLID_91_" class="st14" d="M63.8,109.9c0,1.2-0.3,2.2-1,2.9s-1.6,1.1-2.7,1.1c-0.7,0-1.4-0.2-1.9-0.5s-1-0.8-1.3-1.4
			s-0.5-1.3-0.5-2.1c0-1.2,0.3-2.2,1-2.9s1.6-1,2.7-1c0.7,0,1.4,0.2,1.9,0.5s1,0.8,1.3,1.4S63.8,109.1,63.8,109.9z M58.5,109.9
			c0,0.8,0.1,1.3,0.4,1.7s0.7,0.6,1.2,0.6c0.6,0,1-0.2,1.2-0.6s0.4-1,0.4-1.7c0-0.8-0.1-1.3-0.4-1.7s-0.6-0.6-1.2-0.6
			c-0.6,0-1,0.2-1.2,0.6S58.5,109.1,58.5,109.9z"/>
		<path id="XMLID_88_" class="st14" d="M68,113.9c-0.9,0-1.6-0.3-2.1-1s-0.8-1.7-0.8-2.9c0-1.3,0.3-2.2,0.8-2.9s1.2-1,2.2-1
			c1,0,1.7,0.4,2.2,1.1h0.1c-0.1-0.6-0.2-1.1-0.2-1.5v-2.4h2.1v10.6h-1.6l-0.4-1h-0.1C69.7,113.5,68.9,113.9,68,113.9z M68.7,112.2
			c0.5,0,0.9-0.2,1.2-0.5s0.4-0.8,0.4-1.6v-0.2c0-0.8-0.1-1.4-0.4-1.8s-0.7-0.5-1.2-0.5c-0.5,0-0.8,0.2-1.1,0.6s-0.4,1-0.4,1.7
			s0.1,1.3,0.4,1.7S68.2,112.2,68.7,112.2z"/>
		<path id="XMLID_86_" class="st15" d="M40.8,128.5v-10H42v8.9h4.4v1.1H40.8z"/>
		<path id="XMLID_83_" class="st15" d="M51.1,128.7c-1.1,0-2-0.3-2.6-1c-0.6-0.7-1-1.6-1-2.8c0-1.2,0.3-2.2,0.9-2.9s1.4-1.1,2.4-1.1
			c0.9,0,1.7,0.3,2.3,0.9s0.8,1.4,0.8,2.5v0.7h-5.1c0,0.9,0.2,1.5,0.6,1.9s1,0.7,1.7,0.7c0.4,0,0.8,0,1.1-0.1s0.8-0.2,1.3-0.4v1.1
			c-0.4,0.2-0.8,0.3-1.2,0.4S51.6,128.7,51.1,128.7z M50.8,121.9c-0.6,0-1.1,0.2-1.4,0.6s-0.5,0.9-0.6,1.6h3.8
			c0-0.7-0.2-1.2-0.5-1.6S51.4,121.9,50.8,121.9z"/>
		<path id="XMLID_81_" class="st15" d="M58.4,127.6c0.2,0,0.3,0,0.6,0s0.4-0.1,0.5-0.1v0.9c-0.1,0.1-0.3,0.1-0.5,0.1
			s-0.5,0.1-0.7,0.1c-1.5,0-2.2-0.8-2.2-2.3V122h-1.1v-0.6l1.1-0.5l0.5-1.6h0.7v1.7h2.2v1h-2.2v4.3c0,0.4,0.1,0.8,0.3,1
			S58,127.6,58.4,127.6z"/>
		<path id="XMLID_79_" class="st15" d="M62,118.5l0.1,0.2c-0.2,0.9-0.6,2-1.2,3.3H60c0.3-1.3,0.6-2.4,0.7-3.4H62z"/>
		<path id="XMLID_77_" class="st15" d="M68.2,126.4c0,0.7-0.3,1.2-0.8,1.6c-0.5,0.4-1.3,0.6-2.2,0.6c-1,0-1.8-0.2-2.4-0.5v-1.1
			c0.8,0.4,1.6,0.6,2.4,0.6c0.6,0,1.1-0.1,1.4-0.3s0.4-0.5,0.4-0.8c0-0.3-0.1-0.5-0.4-0.8s-0.8-0.4-1.4-0.7
			c-0.7-0.3-1.2-0.5-1.5-0.7s-0.5-0.4-0.6-0.7s-0.2-0.5-0.2-0.9c0-0.6,0.3-1.1,0.8-1.5c0.5-0.4,1.2-0.5,2.1-0.5
			c0.9,0,1.6,0.2,2.4,0.5l-0.4,1c-0.8-0.3-1.4-0.5-2.1-0.5c-0.5,0-0.9,0.1-1.2,0.2s-0.4,0.4-0.4,0.7c0,0.3,0.1,0.5,0.3,0.7
			s0.8,0.4,1.6,0.7c0.6,0.2,1.1,0.4,1.4,0.6s0.5,0.4,0.7,0.7S68.2,126.1,68.2,126.4z"/>
		<path id="XMLID_75_" class="st15" d="M76.1,127.6c0.2,0,0.3,0,0.6,0s0.4-0.1,0.5-0.1v0.9c-0.1,0.1-0.3,0.1-0.5,0.1
			s-0.5,0.1-0.7,0.1c-1.5,0-2.2-0.8-2.2-2.3V122h-1.1v-0.6l1.1-0.5l0.5-1.6H75v1.7h2.2v1H75v4.3c0,0.4,0.1,0.8,0.3,1
			S75.8,127.6,76.1,127.6z"/>
		<path id="XMLID_72_" class="st15" d="M83.3,128.5l-0.2-1.1H83c-0.4,0.5-0.7,0.8-1.1,1s-0.8,0.2-1.4,0.2c-0.7,0-1.3-0.2-1.7-0.6
			c-0.4-0.4-0.6-0.9-0.6-1.6c0-1.5,1.2-2.3,3.6-2.4l1.3,0v-0.4c0-0.6-0.1-1-0.4-1.3s-0.6-0.4-1.2-0.4c-0.4,0-0.8,0.1-1.1,0.2
			s-0.7,0.3-1,0.4l-0.4-0.9c0.4-0.2,0.8-0.4,1.2-0.5s0.9-0.2,1.3-0.2c0.9,0,1.6,0.2,2,0.6s0.7,1,0.7,1.9v5.1H83.3z M80.8,127.7
			c0.7,0,1.2-0.2,1.6-0.6s0.6-0.9,0.6-1.6v-0.7l-1.1,0c-0.9,0-1.5,0.2-1.9,0.4s-0.6,0.6-0.6,1.1c0,0.4,0.1,0.7,0.4,0.9
			S80.3,127.7,80.8,127.7z"/>
		<path id="XMLID_70_" class="st15" d="M87.7,124.7l0.4-0.5l0.5-0.6L91,121h1.4l-3,3.2l3.2,4.3h-1.5l-2.6-3.5l-0.9,0.7v2.8h-1.2
			v-10.6h1.2v5.6V124.7L87.7,124.7z"/>
		<path id="XMLID_67_" class="st15" d="M97.1,128.7c-1.1,0-2-0.3-2.6-1c-0.6-0.7-1-1.6-1-2.8c0-1.2,0.3-2.2,0.9-2.9s1.4-1.1,2.4-1.1
			c0.9,0,1.7,0.3,2.3,0.9s0.8,1.4,0.8,2.5v0.7h-5.1c0,0.9,0.2,1.5,0.6,1.9s1,0.7,1.7,0.7c0.4,0,0.8,0,1.1-0.1s0.8-0.2,1.3-0.4v1.1
			c-0.4,0.2-0.8,0.3-1.2,0.4S97.6,128.7,97.1,128.7z M96.8,121.9c-0.6,0-1.1,0.2-1.4,0.6s-0.5,0.9-0.6,1.6h3.8
			c0-0.7-0.2-1.2-0.5-1.6S97.3,121.9,96.8,121.9z"/>
		<path id="XMLID_65_" class="st15" d="M108.4,128.7c-1.1,0-1.9-0.3-2.5-1c-0.6-0.7-0.9-1.6-0.9-2.9c0-1.3,0.3-2.2,0.9-2.9
			s1.5-1,2.6-1c0.4,0,0.7,0,1.1,0.1s0.7,0.2,0.9,0.3l-0.4,1c-0.6-0.2-1.2-0.4-1.6-0.4c-0.8,0-1.3,0.2-1.7,0.7s-0.5,1.2-0.5,2.1
			c0,0.9,0.2,1.6,0.5,2.1s0.9,0.7,1.6,0.7c0.7,0,1.3-0.1,1.9-0.4v1.1C109.8,128.5,109.2,128.7,108.4,128.7z"/>
		<path id="XMLID_62_" class="st15" d="M116.8,128.5l-0.2-1.1h-0.1c-0.4,0.5-0.7,0.8-1.1,1s-0.8,0.2-1.4,0.2c-0.7,0-1.3-0.2-1.7-0.6
			c-0.4-0.4-0.6-0.9-0.6-1.6c0-1.5,1.2-2.3,3.6-2.4l1.3,0v-0.4c0-0.6-0.1-1-0.4-1.3s-0.6-0.4-1.2-0.4c-0.4,0-0.8,0.1-1.1,0.2
			s-0.7,0.3-1,0.4l-0.4-0.9c0.4-0.2,0.8-0.4,1.2-0.5s0.9-0.2,1.3-0.2c0.9,0,1.6,0.2,2,0.6s0.7,1,0.7,1.9v5.1H116.8z M114.2,127.7
			c0.7,0,1.2-0.2,1.6-0.6s0.6-0.9,0.6-1.6v-0.7l-1.1,0c-0.9,0-1.5,0.2-1.9,0.4s-0.6,0.6-0.6,1.1c0,0.4,0.1,0.7,0.4,0.9
			S113.8,127.7,114.2,127.7z"/>
		<path id="XMLID_60_" class="st15" d="M123.5,120.9c0.3,0,0.6,0,0.9,0.1l-0.2,1.1c-0.3-0.1-0.5-0.1-0.8-0.1c-0.4,0-0.8,0.1-1.1,0.3
			s-0.6,0.5-0.8,0.9s-0.3,0.8-0.3,1.3v4H120V121h1l0.1,1.4h0.1c0.3-0.5,0.6-0.9,1-1.1S123,120.9,123.5,120.9z"/>
		<path id="XMLID_57_" class="st15" d="M128.8,128.7c-1.1,0-2-0.3-2.6-1c-0.6-0.7-1-1.6-1-2.8c0-1.2,0.3-2.2,0.9-2.9
			s1.4-1.1,2.4-1.1c0.9,0,1.7,0.3,2.3,0.9s0.8,1.4,0.8,2.5v0.7h-5.1c0,0.9,0.2,1.5,0.6,1.9s1,0.7,1.7,0.7c0.4,0,0.8,0,1.1-0.1
			s0.8-0.2,1.3-0.4v1.1c-0.4,0.2-0.8,0.3-1.2,0.4S129.3,128.7,128.8,128.7z M128.5,121.9c-0.6,0-1.1,0.2-1.4,0.6s-0.5,0.9-0.6,1.6
			h3.8c0-0.7-0.2-1.2-0.5-1.6S129.1,121.9,128.5,121.9z"/>
		<path id="XMLID_54_" class="st15" d="M45.3,143.3l-0.2-1.1H45c-0.4,0.5-0.7,0.8-1.1,1s-0.8,0.2-1.4,0.2c-0.7,0-1.3-0.2-1.7-0.6
			s-0.6-0.9-0.6-1.6c0-1.5,1.2-2.3,3.6-2.4l1.3,0v-0.4c0-0.6-0.1-1-0.4-1.3s-0.6-0.4-1.2-0.4c-0.4,0-0.8,0.1-1.1,0.2s-0.7,0.3-1,0.4
			l-0.4-0.9c0.4-0.2,0.8-0.4,1.2-0.5s0.9-0.2,1.3-0.2c0.9,0,1.6,0.2,2,0.6s0.7,1,0.7,1.9v5.1H45.3z M42.7,142.5
			c0.7,0,1.2-0.2,1.6-0.6s0.6-0.9,0.6-1.6v-0.7l-1.1,0c-0.9,0-1.5,0.2-1.9,0.4s-0.6,0.6-0.6,1.1c0,0.4,0.1,0.7,0.4,0.9
			S42.3,142.5,42.7,142.5z"/>
		<path id="XMLID_52_" class="st15" d="M53.6,143.3v-4.8c0-0.6-0.1-1.1-0.4-1.4s-0.7-0.4-1.3-0.4c-0.8,0-1.3,0.2-1.7,0.6
			s-0.5,1.1-0.5,2.1v3.9h-1.2v-7.5h1l0.2,1h0.1c0.2-0.4,0.6-0.7,1-0.9s0.9-0.3,1.4-0.3c0.9,0,1.6,0.2,2.1,0.7s0.7,1.1,0.7,2.1v4.9
			H53.6z"/>
		<path id="XMLID_49_" class="st15" d="M59.8,143.5c-1,0-1.7-0.3-2.3-1s-0.8-1.6-0.8-2.9c0-1.2,0.3-2.2,0.8-2.9s1.3-1,2.3-1
			c1,0,1.8,0.4,2.3,1.1h0.1c0-0.1,0-0.3-0.1-0.6s0-0.5,0-0.6v-3h1.2v10.6h-1l-0.2-1h-0.1C61.6,143.1,60.8,143.5,59.8,143.5z
			 M60,142.4c0.7,0,1.3-0.2,1.6-0.6s0.5-1.1,0.5-2v-0.2c0-1-0.2-1.8-0.5-2.2s-0.9-0.7-1.6-0.7c-0.6,0-1.1,0.3-1.5,0.8
			s-0.5,1.2-0.5,2.2c0,0.9,0.2,1.6,0.5,2.1S59.3,142.4,60,142.4z"/>
		<path id="XMLID_47_" class="st15" d="M74.5,143.3v-4.8c0-0.6-0.1-1.1-0.4-1.4s-0.7-0.4-1.3-0.4c-0.8,0-1.3,0.2-1.7,0.6
			s-0.5,1.1-0.5,2.1v3.9h-1.2v-10.6h1.2v3.1c0,0.4,0,0.8-0.1,1.1h0.1c0.2-0.4,0.5-0.6,1-0.9s0.9-0.3,1.4-0.3c0.9,0,1.6,0.2,2.1,0.7
			s0.7,1.1,0.7,2.1v4.9H74.5z"/>
		<path id="XMLID_44_" class="st15" d="M81.2,143.5c-1.1,0-2-0.3-2.6-1s-1-1.6-1-2.8c0-1.2,0.3-2.2,0.9-2.9s1.4-1.1,2.4-1.1
			c0.9,0,1.7,0.3,2.3,0.9s0.8,1.4,0.8,2.5v0.7h-5.1c0,0.9,0.2,1.5,0.6,1.9s1,0.7,1.7,0.7c0.4,0,0.8,0,1.1-0.1s0.8-0.2,1.3-0.4v1.1
			c-0.4,0.2-0.8,0.3-1.2,0.4S81.7,143.5,81.2,143.5z M80.9,136.7c-0.6,0-1.1,0.2-1.4,0.6s-0.5,0.9-0.6,1.6h3.8
			c0-0.7-0.2-1.2-0.5-1.6S81.5,136.7,80.9,136.7z"/>
		<path id="XMLID_42_" class="st15" d="M87.2,143.3h-1.2v-10.6h1.2V143.3z"/>
		<path id="XMLID_39_" class="st15" d="M93.1,143.5c-1,0-1.8-0.4-2.3-1.1h-0.1l0,0.3c0,0.4,0.1,0.7,0.1,1v3.1h-1.2v-10.9h1l0.2,1
			h0.1c0.3-0.4,0.6-0.7,1-0.9s0.8-0.3,1.3-0.3c1,0,1.7,0.3,2.3,1s0.8,1.6,0.8,2.9c0,1.2-0.3,2.2-0.8,2.9S94.1,143.5,93.1,143.5z
			 M92.9,136.7c-0.7,0-1.3,0.2-1.6,0.6s-0.5,1.1-0.5,2v0.2c0,1,0.2,1.8,0.5,2.2s0.9,0.7,1.6,0.7c0.6,0,1.1-0.3,1.5-0.8
			s0.5-1.2,0.5-2.1c0-0.9-0.2-1.6-0.5-2.1S93.5,136.7,92.9,136.7z"/>
		<path id="XMLID_36_" class="st15" d="M105,143.5c-1.1,0-2-0.3-2.6-1s-1-1.6-1-2.8c0-1.2,0.3-2.2,0.9-2.9s1.4-1.1,2.4-1.1
			c0.9,0,1.7,0.3,2.3,0.9s0.8,1.4,0.8,2.5v0.7h-5.1c0,0.9,0.2,1.5,0.6,1.9s1,0.7,1.7,0.7c0.4,0,0.8,0,1.1-0.1s0.8-0.2,1.3-0.4v1.1
			c-0.4,0.2-0.8,0.3-1.2,0.4S105.5,143.5,105,143.5z M104.7,136.7c-0.6,0-1.1,0.2-1.4,0.6s-0.5,0.9-0.6,1.6h3.8
			c0-0.7-0.2-1.2-0.5-1.6S105.2,136.7,104.7,136.7z"/>
		<path id="XMLID_33_" class="st15" d="M114.3,143.3l-0.2-1.1H114c-0.4,0.5-0.7,0.8-1.1,1s-0.8,0.2-1.4,0.2c-0.7,0-1.3-0.2-1.7-0.6
			s-0.6-0.9-0.6-1.6c0-1.5,1.2-2.3,3.6-2.4l1.3,0v-0.4c0-0.6-0.1-1-0.4-1.3s-0.6-0.4-1.2-0.4c-0.4,0-0.8,0.1-1.1,0.2s-0.7,0.3-1,0.4
			l-0.4-0.9c0.4-0.2,0.8-0.4,1.2-0.5s0.9-0.2,1.3-0.2c0.9,0,1.6,0.2,2,0.6s0.7,1,0.7,1.9v5.1H114.3z M111.8,142.5
			c0.7,0,1.2-0.2,1.6-0.6s0.6-0.9,0.6-1.6v-0.7l-1.1,0c-0.9,0-1.5,0.2-1.9,0.4s-0.6,0.6-0.6,1.1c0,0.4,0.1,0.7,0.4,0.9
			S111.3,142.5,111.8,142.5z"/>
		<path id="XMLID_31_" class="st15" d="M120.5,143.5c-1.1,0-1.9-0.3-2.5-1s-0.9-1.6-0.9-2.9c0-1.3,0.3-2.2,0.9-2.9s1.5-1,2.6-1
			c0.4,0,0.7,0,1.1,0.1s0.7,0.2,0.9,0.3l-0.4,1c-0.6-0.2-1.2-0.4-1.6-0.4c-0.8,0-1.3,0.2-1.7,0.7s-0.5,1.2-0.5,2.1
			c0,0.9,0.2,1.6,0.5,2.1s0.9,0.7,1.6,0.7c0.7,0,1.3-0.1,1.9-0.4v1.1C122,143.3,121.3,143.5,120.5,143.5z"/>
		<path id="XMLID_29_" class="st15" d="M129.4,143.3v-4.8c0-0.6-0.1-1.1-0.4-1.4s-0.7-0.4-1.3-0.4c-0.8,0-1.3,0.2-1.7,0.6
			s-0.5,1.1-0.5,2.1v3.9h-1.2v-10.6h1.2v3.1c0,0.4,0,0.8-0.1,1.1h0.1c0.2-0.4,0.5-0.6,1-0.9s0.9-0.3,1.4-0.3c0.9,0,1.6,0.2,2.1,0.7
			s0.7,1.1,0.7,2.1v4.9H129.4z"/>
		<path id="XMLID_26_" class="st15" d="M47.1,154.3c0,1.2-0.3,2.2-0.9,2.9s-1.5,1-2.6,1c-0.7,0-1.3-0.2-1.8-0.5s-0.9-0.8-1.2-1.4
			s-0.4-1.3-0.4-2.1c0-1.2,0.3-2.2,0.9-2.9s1.5-1,2.6-1c1.1,0,1.9,0.3,2.5,1S47.1,153.2,47.1,154.3z M41.5,154.3
			c0,0.9,0.2,1.7,0.6,2.1s0.9,0.7,1.6,0.7c0.7,0,1.3-0.2,1.6-0.7s0.6-1.2,0.6-2.1s-0.2-1.7-0.6-2.1s-0.9-0.7-1.7-0.7
			C42.2,151.5,41.5,152.5,41.5,154.3z"/>
		<path id="XMLID_24_" class="st15" d="M51.6,157.2c0.2,0,0.3,0,0.6,0s0.4-0.1,0.5-0.1v0.9c-0.1,0.1-0.3,0.1-0.5,0.1
			s-0.5,0.1-0.7,0.1c-1.5,0-2.2-0.8-2.2-2.3v-4.4h-1.1V151l1.1-0.5l0.5-1.6h0.7v1.7h2.2v1h-2.2v4.3c0,0.4,0.1,0.8,0.3,1
			S51.2,157.2,51.6,157.2z"/>
		<path id="XMLID_22_" class="st15" d="M59.3,158.1v-4.8c0-0.6-0.1-1.1-0.4-1.4s-0.7-0.4-1.3-0.4c-0.8,0-1.3,0.2-1.7,0.6
			s-0.5,1.1-0.5,2.1v3.9h-1.2v-10.6h1.2v3.1c0,0.4,0,0.8-0.1,1.1h0.1c0.2-0.4,0.5-0.6,1-0.9s0.9-0.3,1.4-0.3c0.9,0,1.6,0.2,2.1,0.7
			s0.7,1.1,0.7,2.1v4.9H59.3z"/>
		<path id="XMLID_19_" class="st15" d="M66,158.3c-1.1,0-2-0.3-2.6-1s-1-1.6-1-2.8c0-1.2,0.3-2.2,0.9-2.9s1.4-1.1,2.4-1.1
			c0.9,0,1.7,0.3,2.3,0.9s0.8,1.4,0.8,2.5v0.7h-5.1c0,0.9,0.2,1.5,0.6,1.9c0.4,0.4,1,0.7,1.7,0.7c0.4,0,0.8,0,1.1-0.1
			s0.8-0.2,1.3-0.4v1.1c-0.4,0.2-0.8,0.3-1.2,0.4S66.5,158.3,66,158.3z M65.7,151.5c-0.6,0-1.1,0.2-1.4,0.6
			c-0.3,0.4-0.5,0.9-0.6,1.6h3.8c0-0.7-0.2-1.2-0.5-1.6S66.3,151.5,65.7,151.5z"/>
		<path id="XMLID_17_" class="st15" d="M74.2,150.5c0.3,0,0.6,0,0.9,0.1l-0.2,1.1c-0.3-0.1-0.5-0.1-0.8-0.1c-0.4,0-0.8,0.1-1.1,0.3
			s-0.6,0.5-0.8,0.9s-0.3,0.8-0.3,1.3v4h-1.2v-7.5h1l0.1,1.4h0.1c0.3-0.5,0.6-0.9,1-1.1S73.7,150.5,74.2,150.5z"/>
	</g>
</g>
</svg>