<!-- Generator: Adobe Illustrator 19.0.0, SVG Export Plug-In  -->
<svg version="1.1"
	 xmlns="http://www.w3.org/2000/svg" xmlns:xlink="http://www.w3.org/1999/xlink" xmlns:a="http://ns.adobe.com/AdobeSVGViewerExtensions/3.0/"
	 x="0px" y="0px" width="165.8px" height="167.8px" viewBox="0 0 165.8 167.8" style="enable-background:new 0 0 165.8 167.8;"
	 xml:space="preserve">
<style type="text/css">
	.st0{fill:#A00D30;}
	.st1{fill:#FFFFFF;}
	.st2{fill:#0C0C0C;}
	.st3{fill:#3F3F3F;}
	.st4{fill:#CC0D29;}
	.st5{fill:#C17805;}
	.st6{fill:#B79E7D;}
	.st7{fill:#211D1E;}
</style>
<defs>
</defs>
<g id="XMLID_15_">
	<rect id="XMLID_161_" x="16.6" class="st0" width="149.2" height="167"/>
	<polygon id="XMLID_160_" class="st1" points="19.2,167.7 19.2,148.6 0,167.8 	"/>
	<rect id="XMLID_159_" x="16.6" y="110.2" class="st1" width="149.2" height="57.6"/>
	<g id="XMLID_38_">
		<g id="XMLID_40_">
			<path id="XMLID_98_" class="st2" d="M57.9,125.8c0,0.9-0.3,1.6-1,2.1s-1.6,0.8-2.7,0.8c-1.1,0-2-0.2-2.8-0.6v-2
				c0.7,0.3,1.2,0.5,1.7,0.6c0.5,0.1,0.9,0.2,1.3,0.2c0.5,0,0.8-0.1,1.1-0.3c0.2-0.2,0.4-0.4,0.4-0.8c0-0.2-0.1-0.4-0.2-0.5
				c-0.1-0.2-0.3-0.3-0.5-0.4c-0.2-0.1-0.6-0.4-1.3-0.7c-0.6-0.3-1.1-0.6-1.4-0.8c-0.3-0.3-0.5-0.6-0.7-0.9
				c-0.2-0.4-0.3-0.8-0.3-1.2c0-0.9,0.3-1.6,0.9-2.1c0.6-0.5,1.4-0.8,2.5-0.8c0.5,0,1,0.1,1.5,0.2s1,0.3,1.5,0.5l-0.7,1.6
				c-0.5-0.2-1-0.4-1.3-0.5c-0.3-0.1-0.7-0.1-1-0.1c-0.4,0-0.7,0.1-0.9,0.3c-0.2,0.2-0.3,0.4-0.3,0.7c0,0.2,0,0.3,0.1,0.5
				c0.1,0.1,0.2,0.3,0.4,0.4c0.2,0.1,0.6,0.4,1.3,0.7c0.9,0.4,1.6,0.9,1.9,1.3C57.8,124.6,57.9,125.2,57.9,125.8z"/>
			<path id="XMLID_96_" class="st2" d="M62.8,127.1c0.4,0,0.8-0.1,1.3-0.2v1.6c-0.5,0.2-1.2,0.3-1.9,0.3c-0.8,0-1.4-0.2-1.8-0.6
				c-0.4-0.4-0.6-1.1-0.6-1.9v-3.7h-1v-0.9l1.1-0.7l0.6-1.6h1.3v1.6H64v1.6h-2.1v3.7c0,0.3,0.1,0.5,0.2,0.7
				C62.3,127,62.5,127.1,62.8,127.1z"/>
			<path id="XMLID_94_" class="st2" d="M71.1,128.6l-0.3-1h-0.1c-0.2,0.4-0.5,0.6-1,0.8c-0.4,0.2-0.9,0.3-1.4,0.3
				c-0.9,0-1.6-0.2-2-0.7c-0.5-0.5-0.7-1.2-0.7-2.1v-5h2.1v4.5c0,0.6,0.1,1,0.3,1.2c0.2,0.3,0.5,0.4,0.9,0.4c0.6,0,1-0.2,1.3-0.6
				s0.4-1,0.4-1.9v-3.6h2.1v7.6H71.1z"/>
			<path id="XMLID_92_" class="st2" d="M79.1,122.5h-1.8v6.1h-2.1v-6.1h-1.1v-1l1.1-0.6v-0.6c0-0.9,0.2-1.5,0.6-1.9
				c0.4-0.4,1.1-0.6,2.1-0.6c0.7,0,1.4,0.1,1.9,0.3l-0.5,1.5c-0.4-0.1-0.8-0.2-1.2-0.2c-0.3,0-0.5,0.1-0.6,0.3
				c-0.1,0.2-0.2,0.4-0.2,0.7v0.5h1.8V122.5z"/>
			<path id="XMLID_90_" class="st2" d="M84.5,122.5h-1.8v6.1h-2.1v-6.1h-1.1v-1l1.1-0.6v-0.6c0-0.9,0.2-1.5,0.6-1.9
				c0.4-0.4,1.1-0.6,2.1-0.6c0.7,0,1.4,0.1,1.9,0.3l-0.5,1.5c-0.4-0.1-0.8-0.2-1.2-0.2c-0.3,0-0.5,0.1-0.6,0.3
				c-0.1,0.2-0.2,0.4-0.2,0.7v0.5h1.8V122.5z"/>
			<path id="XMLID_87_" class="st2" d="M89.2,128.7c-1.2,0-2.2-0.3-2.9-1c-0.7-0.7-1-1.6-1-2.9c0-1.3,0.3-2.3,1-3
				c0.6-0.7,1.5-1,2.7-1c1.1,0,1.9,0.3,2.5,0.9s0.9,1.5,0.9,2.5v1h-4.9c0,0.6,0.2,1.1,0.5,1.4c0.3,0.3,0.8,0.5,1.4,0.5
				c0.5,0,0.9,0,1.3-0.1s0.8-0.2,1.3-0.5v1.6c-0.4,0.2-0.8,0.3-1.2,0.4S89.8,128.7,89.2,128.7z M88.9,122.3c-0.4,0-0.8,0.1-1,0.4
				s-0.4,0.7-0.4,1.2h2.9c0-0.5-0.1-0.9-0.4-1.2S89.3,122.3,88.9,122.3z"/>
			<path id="XMLID_84_" class="st2" d="M96.4,128.7c-0.9,0-1.6-0.3-2.1-1s-0.8-1.7-0.8-2.9c0-1.3,0.3-2.2,0.8-2.9
				c0.5-0.7,1.2-1,2.2-1c1,0,1.7,0.4,2.2,1.1h0.1c-0.1-0.6-0.2-1.1-0.2-1.5V118h2.1v10.6h-1.6l-0.4-1h-0.1
				C98.1,128.3,97.4,128.7,96.4,128.7z M97.1,127.1c0.5,0,0.9-0.2,1.2-0.5c0.2-0.3,0.4-0.8,0.4-1.6v-0.2c0-0.8-0.1-1.4-0.4-1.8
				s-0.7-0.5-1.2-0.5c-0.5,0-0.8,0.2-1.1,0.6c-0.3,0.4-0.4,1-0.4,1.7s0.1,1.3,0.4,1.7S96.7,127.1,97.1,127.1z"/>
			<path id="XMLID_81_" class="st2" d="M111.3,128.6l-0.4-1h-0.1c-0.4,0.4-0.7,0.7-1.1,0.9c-0.4,0.2-0.9,0.3-1.5,0.3
				c-0.7,0-1.3-0.2-1.7-0.6c-0.4-0.4-0.6-1-0.6-1.8c0-0.8,0.3-1.4,0.9-1.8c0.6-0.4,1.4-0.6,2.6-0.6l1.3,0v-0.3
				c0-0.8-0.4-1.2-1.2-1.2c-0.6,0-1.3,0.2-2.2,0.6l-0.7-1.4c0.9-0.5,1.9-0.7,2.9-0.7c1,0,1.8,0.2,2.4,0.7c0.5,0.4,0.8,1.1,0.8,2v5.1
				H111.3z M110.7,125l-0.8,0c-0.6,0-1.1,0.1-1.4,0.3c-0.3,0.2-0.4,0.5-0.4,0.9c0,0.6,0.3,0.9,1,0.9c0.5,0,0.9-0.1,1.2-0.4
				c0.3-0.3,0.4-0.6,0.4-1.1V125z"/>
			<path id="XMLID_79_" class="st2" d="M122,128.6h-2.1v-4.5c0-0.6-0.1-1-0.3-1.2c-0.2-0.3-0.5-0.4-0.9-0.4c-0.6,0-1,0.2-1.3,0.6
				s-0.4,1-0.4,1.9v3.6h-2.1v-7.6h1.6l0.3,1h0.1c0.2-0.4,0.6-0.6,1-0.8c0.4-0.2,0.9-0.3,1.4-0.3c0.9,0,1.6,0.2,2,0.7
				c0.5,0.5,0.7,1.2,0.7,2.1V128.6z"/>
			<path id="XMLID_76_" class="st2" d="M124.1,119c0-0.7,0.4-1,1.1-1s1.1,0.3,1.1,1c0,0.3-0.1,0.6-0.3,0.8c-0.2,0.2-0.5,0.3-0.9,0.3
				C124.4,120,124.1,119.7,124.1,119z M126.2,128.6h-2.1v-7.6h2.1V128.6z"/>
			<path id="XMLID_74_" class="st2" d="M135.3,128.6h-2.1v-4.5c0-0.6-0.1-1-0.3-1.2c-0.2-0.3-0.5-0.4-0.9-0.4
				c-0.5,0-0.9,0.2-1.2,0.6c-0.2,0.4-0.4,1-0.4,1.9v3.6h-2.1v-7.6h1.6l0.3,1h0.1c0.2-0.4,0.5-0.6,0.9-0.8s0.8-0.3,1.3-0.3
				c1.1,0,1.9,0.4,2.3,1.1h0.2c0.2-0.4,0.5-0.6,0.9-0.8c0.4-0.2,0.8-0.3,1.4-0.3c0.9,0,1.5,0.2,2,0.7s0.7,1.2,0.7,2.1v5h-2.1v-4.5
				c0-0.6-0.1-1-0.3-1.2c-0.2-0.3-0.5-0.4-0.9-0.4c-0.5,0-0.9,0.2-1.1,0.5c-0.3,0.4-0.4,0.9-0.4,1.7V128.6z"/>
			<path id="XMLID_71_" class="st2" d="M147,128.6l-0.4-1h-0.1c-0.4,0.4-0.7,0.7-1.1,0.9c-0.4,0.2-0.9,0.3-1.5,0.3
				c-0.7,0-1.3-0.2-1.7-0.6c-0.4-0.4-0.6-1-0.6-1.8c0-0.8,0.3-1.4,0.9-1.8c0.6-0.4,1.4-0.6,2.6-0.6l1.3,0v-0.3
				c0-0.8-0.4-1.2-1.2-1.2c-0.6,0-1.3,0.2-2.2,0.6l-0.7-1.4c0.9-0.5,1.9-0.7,2.9-0.7c1,0,1.8,0.2,2.4,0.7c0.5,0.4,0.8,1.1,0.8,2v5.1
				H147z M146.4,125l-0.8,0c-0.6,0-1.1,0.1-1.4,0.3c-0.3,0.2-0.4,0.5-0.4,0.9c0,0.6,0.3,0.9,1,0.9c0.5,0,0.9-0.1,1.2-0.4
				c0.3-0.3,0.4-0.6,0.4-1.1V125z"/>
			<path id="XMLID_69_" class="st2" d="M152.7,128.6h-2.1V118h2.1V128.6z"/>
			<path id="XMLID_67_" class="st3" d="M54.8,140.3l2.6-4.9h1.4l-3.3,6.1v3.9h-1.3v-3.8l-3.3-6.2h1.4L54.8,140.3z"/>
			<path id="XMLID_64_" class="st3" d="M66.1,141.6c0,1.2-0.3,2.2-0.9,2.9c-0.6,0.7-1.5,1-2.6,1c-0.7,0-1.3-0.2-1.8-0.5
				c-0.5-0.3-0.9-0.8-1.2-1.4c-0.3-0.6-0.4-1.3-0.4-2.1c0-1.2,0.3-2.2,0.9-2.9c0.6-0.7,1.5-1,2.6-1c1.1,0,1.9,0.3,2.5,1
				C65.8,139.5,66.1,140.4,66.1,141.6z M60.4,141.6c0,0.9,0.2,1.7,0.6,2.2c0.4,0.5,0.9,0.7,1.6,0.7c0.7,0,1.3-0.2,1.6-0.7
				c0.4-0.5,0.6-1.2,0.6-2.2s-0.2-1.7-0.6-2.1c-0.4-0.5-0.9-0.7-1.7-0.7C61.1,138.8,60.4,139.7,60.4,141.6z"/>
			<path id="XMLID_62_" class="st3" d="M69.2,137.9v4.8c0,0.6,0.1,1.1,0.4,1.4c0.3,0.3,0.7,0.4,1.3,0.4c0.8,0,1.3-0.2,1.7-0.6
				c0.4-0.4,0.5-1.1,0.5-2.1v-3.9h1.2v7.5h-1l-0.2-1h-0.1c-0.2,0.4-0.5,0.6-1,0.8c-0.4,0.2-0.9,0.3-1.4,0.3c-0.9,0-1.6-0.2-2-0.6
				c-0.5-0.4-0.7-1.1-0.7-2.1v-4.9H69.2z"/>
			<path id="XMLID_60_" class="st3" d="M77.7,135.4l0.1,0.2c-0.2,0.9-0.6,2-1.2,3.3h-0.9c0.3-1.3,0.6-2.4,0.7-3.4H77.7z"/>
			<path id="XMLID_58_" class="st3" d="M82.4,137.7c0.3,0,0.6,0,0.9,0.1l-0.2,1.1c-0.3-0.1-0.5-0.1-0.8-0.1c-0.4,0-0.8,0.1-1.1,0.3
				c-0.3,0.2-0.6,0.5-0.8,0.9c-0.2,0.4-0.3,0.8-0.3,1.3v4h-1.2v-7.5h1l0.1,1.4h0.1c0.3-0.5,0.6-0.9,1-1.1
				C81.5,137.9,82,137.7,82.4,137.7z"/>
			<path id="XMLID_55_" class="st3" d="M87.8,145.5c-1.1,0-2-0.3-2.6-1c-0.6-0.7-1-1.6-1-2.8c0-1.2,0.3-2.2,0.9-2.9
				c0.6-0.7,1.4-1.1,2.4-1.1c0.9,0,1.7,0.3,2.3,0.9s0.8,1.4,0.8,2.5v0.7h-5.1c0,0.9,0.2,1.5,0.6,1.9c0.4,0.4,1,0.7,1.7,0.7
				c0.4,0,0.8,0,1.1-0.1c0.4-0.1,0.8-0.2,1.3-0.4v1.1c-0.4,0.2-0.8,0.3-1.2,0.4C88.7,145.5,88.3,145.5,87.8,145.5z M87.5,138.7
				c-0.6,0-1.1,0.2-1.4,0.6c-0.3,0.4-0.5,0.9-0.6,1.6h3.8c0-0.7-0.2-1.2-0.5-1.6C88.5,138.9,88,138.7,87.5,138.7z"/>
			<path id="XMLID_53_" class="st3" d="M101,143.3c0,0.7-0.3,1.2-0.8,1.6c-0.5,0.4-1.3,0.6-2.2,0.6c-1,0-1.8-0.2-2.4-0.5v-1.1
				c0.8,0.4,1.6,0.6,2.4,0.6c0.6,0,1.1-0.1,1.4-0.3c0.3-0.2,0.4-0.5,0.4-0.8c0-0.3-0.1-0.5-0.4-0.8c-0.3-0.2-0.8-0.4-1.4-0.7
				c-0.7-0.3-1.2-0.5-1.5-0.7c-0.3-0.2-0.5-0.4-0.6-0.7c-0.1-0.2-0.2-0.5-0.2-0.9c0-0.6,0.3-1.1,0.8-1.5s1.2-0.5,2.1-0.5
				c0.9,0,1.6,0.2,2.4,0.5l-0.4,1c-0.8-0.3-1.4-0.5-2.1-0.5c-0.5,0-0.9,0.1-1.2,0.2c-0.3,0.2-0.4,0.4-0.4,0.7c0,0.3,0.1,0.5,0.3,0.7
				c0.2,0.2,0.8,0.4,1.6,0.7c0.6,0.2,1.1,0.4,1.4,0.6c0.3,0.2,0.5,0.4,0.7,0.7C100.9,142.7,101,143,101,143.3z"/>
			<path id="XMLID_50_" class="st3" d="M109.3,141.6c0,1.2-0.3,2.2-0.9,2.9c-0.6,0.7-1.5,1-2.6,1c-0.7,0-1.3-0.2-1.8-0.5
				c-0.5-0.3-0.9-0.8-1.2-1.4c-0.3-0.6-0.4-1.3-0.4-2.1c0-1.2,0.3-2.2,0.9-2.9c0.6-0.7,1.5-1,2.6-1c1.1,0,1.9,0.3,2.5,1
				C109,139.5,109.3,140.4,109.3,141.6z M103.7,141.6c0,0.9,0.2,1.7,0.6,2.2c0.4,0.5,0.9,0.7,1.6,0.7c0.7,0,1.3-0.2,1.6-0.7
				c0.4-0.5,0.6-1.2,0.6-2.2s-0.2-1.7-0.6-2.1c-0.4-0.5-0.9-0.7-1.7-0.7C104.4,138.8,103.7,139.7,103.7,141.6z"/>
			<path id="XMLID_48_" class="st3" d="M117.9,145.5c-1.1,0-1.9-0.3-2.5-1s-0.9-1.6-0.9-2.9c0-1.3,0.3-2.2,0.9-2.9
				c0.6-0.7,1.5-1,2.6-1c0.4,0,0.7,0,1.1,0.1c0.4,0.1,0.7,0.2,0.9,0.3l-0.4,1c-0.6-0.2-1.2-0.4-1.6-0.4c-0.8,0-1.3,0.2-1.7,0.7
				c-0.4,0.5-0.5,1.2-0.5,2.1c0,0.9,0.2,1.6,0.5,2.1c0.4,0.5,0.9,0.7,1.6,0.7c0.7,0,1.3-0.1,1.9-0.4v1.1
				C119.3,145.4,118.7,145.5,117.9,145.5z"/>
			<path id="XMLID_46_" class="st3" d="M122.8,137.9v4.8c0,0.6,0.1,1.1,0.4,1.4c0.3,0.3,0.7,0.4,1.3,0.4c0.8,0,1.3-0.2,1.7-0.6
				c0.4-0.4,0.5-1.1,0.5-2.1v-3.9h1.2v7.5h-1l-0.2-1h-0.1c-0.2,0.4-0.5,0.6-1,0.8c-0.4,0.2-0.9,0.3-1.4,0.3c-0.9,0-1.6-0.2-2-0.6
				c-0.5-0.4-0.7-1.1-0.7-2.1v-4.9H122.8z"/>
			<path id="XMLID_44_" class="st3" d="M132.8,144.5c0.2,0,0.3,0,0.6,0c0.2,0,0.4-0.1,0.5-0.1v0.9c-0.1,0.1-0.3,0.1-0.5,0.1
				s-0.5,0.1-0.7,0.1c-1.5,0-2.2-0.8-2.2-2.3v-4.4h-1.1v-0.6l1.1-0.5l0.5-1.6h0.7v1.7h2.2v1h-2.2v4.3c0,0.4,0.1,0.8,0.3,1
				C132.1,144.4,132.4,144.5,132.8,144.5z"/>
			<path id="XMLID_41_" class="st3" d="M138.5,145.5c-1.1,0-2-0.3-2.6-1c-0.6-0.7-1-1.6-1-2.8c0-1.2,0.3-2.2,0.9-2.9
				c0.6-0.7,1.4-1.1,2.4-1.1c0.9,0,1.7,0.3,2.3,0.9s0.8,1.4,0.8,2.5v0.7h-5.1c0,0.9,0.2,1.5,0.6,1.9c0.4,0.4,1,0.7,1.7,0.7
				c0.4,0,0.8,0,1.1-0.1c0.4-0.1,0.8-0.2,1.3-0.4v1.1c-0.4,0.2-0.8,0.3-1.2,0.4C139.5,145.5,139,145.5,138.5,145.5z M138.2,138.7
				c-0.6,0-1.1,0.2-1.4,0.6c-0.3,0.4-0.5,0.9-0.6,1.6h3.8c0-0.7-0.2-1.2-0.5-1.6C139.2,138.9,138.8,138.7,138.2,138.7z"/>
		</g>
	</g>
	<g id="XMLID_33_">
		<circle id="XMLID_37_" class="st4" cx="31.2" cy="122.7" r="4"/>
		<path id="XMLID_36_" class="st4" d="M27.2,122.7h8.1v10.1C35.2,132.7,27.2,127.8,27.2,122.7z"/>
		<circle id="XMLID_35_" class="st4" cx="39.3" cy="122.5" r="4"/>
		<path id="XMLID_34_" class="st4" d="M43.3,122.5h-8.1v10.1C35.2,132.6,43.3,127.6,43.3,122.5z"/>
	</g>
	<g id="XMLID_16_">
		<path id="XMLID_32_" class="st5" d="M98.5,92.2L98.5,92.2c-6,0-11-4.9-11-11V56.3c0-6,4.9-11,11-11l0,0c6,0,11,4.9,11,11v24.9
			C109.4,87.3,104.5,92.2,98.5,92.2z"/>
		<path id="XMLID_31_" class="st6" d="M90.2,90.7L90.2,90.7c-5.7,0-10.4-4.7-10.4-10.4v0c0-5.7,4.7-10.4,10.4-10.4l0,0
			c5.7,0,10.4,4.7,10.4,10.4v0C100.5,86,95.9,90.7,90.2,90.7z"/>
		<path id="XMLID_30_" class="st5" d="M67.6,92.9L67.6,92.9c-2.9,0-5.3-2.4-5.3-5.3v-7.4c0-2.9,2.4-5.3,5.3-5.3l0,0
			c2.9,0,5.2,2.4,5.2,5.3v7.4C72.9,90.5,70.5,92.9,67.6,92.9z"/>
		<path id="XMLID_29_" class="st5" d="M97.6,92.8H68.3c-3.3,0-5.9-2.7-5.9-5.9l0,0c0-3.3,2.7-5.9,5.9-5.9h29.2
			c3.3,0,5.9,2.7,5.9,5.9l0,0C103.5,90.1,100.8,92.8,97.6,92.8z"/>
		<path id="XMLID_28_" class="st5" d="M117.5,82.2L117.5,82.2c-2.9,2-7,1.3-9-1.6L94.9,61.3c-2-2.9-1.3-7,1.6-9l0,0
			c2.9-2,7-1.3,9,1.6l13.6,19.3C121.1,76.1,120.4,80.1,117.5,82.2z"/>
		<rect id="XMLID_27_" x="87" y="59.2" class="st6" width="12.4" height="16.4"/>
		<rect id="XMLID_26_" x="92.3" y="60.8" class="st5" width="16.7" height="22.6"/>
		<circle id="XMLID_25_" class="st5" cx="98.8" cy="45.7" r="19.5"/>
		<circle id="XMLID_24_" class="st5" cx="83.4" cy="32.8" r="7.3"/>
		<circle id="XMLID_23_" class="st5" cx="116.3" cy="34.1" r="7.3"/>
		<circle id="XMLID_22_" class="st7" cx="109.1" cy="46.8" r="2.6"/>
		<circle id="XMLID_21_" class="st7" cx="89.6" cy="46.8" r="2.6"/>
		<g id="XMLID_17_">
			<polygon id="XMLID_20_" class="st7" points="97.5,48 99.3,50.8 101.3,48 			"/>
			<path id="XMLID_19_" class="st7" d="M99.4,50.1c0,1.5-1.2,2.7-2.7,2.7s-2.7-1.2-2.7-2.7"/>
			<path id="XMLID_18_" class="st7" d="M104.7,50.1c0,1.5-1.2,2.7-2.7,2.7c-1.5,0-2.7-1.2-2.7-2.7"/>
		</g>
	</g>
</g>
</svg>