<!-- Generator: Adobe Illustrator 19.0.0, SVG Export Plug-In  -->
<svg version="1.1"
	 xmlns="http://www.w3.org/2000/svg" xmlns:xlink="http://www.w3.org/1999/xlink" xmlns:a="http://ns.adobe.com/AdobeSVGViewerExtensions/3.0/"
	 x="0px" y="0px" width="166px" height="167px" viewBox="0 0 166 167" style="enable-background:new 0 0 166 167;"
	 xml:space="preserve">
<style type="text/css">
	.st0{fill:#0F5A7C;}
	.st1{fill:#FFFFFF;}
	.st2{fill:#3F3F3F;}
	.st3{fill:#3F3F3F;stroke:#3F3F3F;stroke-width:0.2;stroke-miterlimit:10;}
	.st4{fill:#CC0D29;}
	.st5{fill:#177596;}
	.st6{fill:#D24919;}
	.st7{fill:#8E878B;}
	.st8{fill:#EF962B;}
	.st9{fill:#F9B95A;}
	.st10{fill:#E27D23;}
	.st11{fill:#F9F9F9;}
	.st12{fill:#B7B6B6;}
</style>
<defs>
</defs>
<g id="XMLID_15_">
	<rect id="XMLID_194_" class="st0" width="150" height="159.7"/>
	<polygon id="XMLID_193_" class="st1" points="146.8,166.9 146.8,147.8 166,167 	"/>
	<rect id="XMLID_192_" y="95.6" class="st1" width="150" height="71.3"/>
	<g id="XMLID_43_">
		<g id="XMLID_45_">
			<path id="XMLID_117_" class="st2" d="M41,117.5c-0.5,0-0.9-0.1-1.3-0.2v-1.8c0.4,0.1,0.7,0.1,1,0.1c0.5,0,0.8-0.1,1-0.4
				s0.3-0.7,0.3-1.4v-9.4h2.1v9.4c0,1.2-0.3,2.1-0.8,2.7S42,117.5,41,117.5z"/>
			<path id="XMLID_114_" class="st2" d="M50,114.7c-1.2,0-2.2-0.3-2.9-1s-1-1.6-1-2.9c0-1.3,0.3-2.3,1-3c0.6-0.7,1.5-1,2.7-1
				c1.1,0,1.9,0.3,2.5,0.9s0.9,1.5,0.9,2.5v1h-4.9c0,0.6,0.2,1.1,0.5,1.4s0.8,0.5,1.4,0.5c0.5,0,0.9,0,1.3-0.1s0.8-0.2,1.3-0.5v1.6
				c-0.4,0.2-0.8,0.3-1.2,0.4S50.6,114.7,50,114.7z M49.7,108.3c-0.4,0-0.8,0.1-1,0.4s-0.4,0.7-0.4,1.2h2.9c0-0.5-0.1-0.9-0.4-1.2
				S50.1,108.3,49.7,108.3z"/>
			<path id="XMLID_112_" class="st2" d="M60.9,114.6l-0.6-2.7l-0.8-3.4h-0.1l-1.4,6h-2.2l-2.2-7.6h2.1l0.9,3.4
				c0.1,0.4,0.2,1.2,0.4,2.5h0.1c0-0.3,0.1-0.9,0.2-1.6l0.1-0.6l0.9-3.7h2.3l0.9,3.7c0.1,0.3,0.1,0.6,0.2,1.1
				c0.1,0.5,0.1,0.9,0.1,1.1H62c0.1-0.4,0.1-0.9,0.2-1.4s0.2-0.9,0.2-1.1l0.9-3.4h2l-2.2,7.6H60.9z"/>
			<path id="XMLID_109_" class="st2" d="M70.1,114.7c-1.2,0-2.2-0.3-2.9-1s-1-1.6-1-2.9c0-1.3,0.3-2.3,1-3c0.6-0.7,1.5-1,2.7-1
				c1.1,0,1.9,0.3,2.5,0.9s0.9,1.5,0.9,2.5v1h-4.9c0,0.6,0.2,1.1,0.5,1.4s0.8,0.5,1.4,0.5c0.5,0,0.9,0,1.3-0.1s0.8-0.2,1.3-0.5v1.6
				c-0.4,0.2-0.8,0.3-1.2,0.4S70.7,114.7,70.1,114.7z M69.8,108.3c-0.4,0-0.8,0.1-1,0.4s-0.4,0.7-0.4,1.2h2.9c0-0.5-0.1-0.9-0.4-1.2
				S70.2,108.3,69.8,108.3z"/>
			<path id="XMLID_107_" class="st2" d="M77,114.6h-2.1v-10.6H77V114.6z"/>
			<path id="XMLID_105_" class="st2" d="M83.4,106.8c0.3,0,0.5,0,0.7,0.1l-0.2,2c-0.2,0-0.4-0.1-0.6-0.1c-0.7,0-1.2,0.2-1.6,0.5
				c-0.4,0.3-0.6,0.8-0.6,1.4v3.9h-2.1v-7.6h1.6l0.3,1.3h0.1c0.2-0.4,0.6-0.8,1-1S83,106.8,83.4,106.8z"/>
			<path id="XMLID_103_" class="st2" d="M84.4,106.9h2.3l1.4,4.3c0.1,0.4,0.2,0.8,0.3,1.3h0c0.1-0.5,0.1-0.9,0.3-1.3l1.4-4.3h2.2
				l-3.2,8.6c-0.3,0.8-0.7,1.4-1.3,1.8c-0.5,0.4-1.2,0.6-1.9,0.6c-0.4,0-0.7,0-1.1-0.1v-1.7c0.3,0.1,0.5,0.1,0.8,0.1
				c0.4,0,0.7-0.1,1-0.3c0.3-0.2,0.5-0.6,0.6-1l0.1-0.4L84.4,106.9z"/>
			<path id="XMLID_101_" class="st3" d="M42.1,131.1v-9.8h1.2v8.7h4.3v1.1H42.1z"/>
			<path id="XMLID_98_" class="st3" d="M55.6,127.4c0,1.2-0.3,2.1-0.9,2.8c-0.6,0.7-1.5,1-2.5,1c-0.7,0-1.3-0.2-1.8-0.5
				c-0.5-0.3-0.9-0.8-1.2-1.3s-0.4-1.3-0.4-2c0-1.2,0.3-2.1,0.9-2.8s1.4-1,2.5-1c1,0,1.9,0.3,2.5,1
				C55.3,125.3,55.6,126.2,55.6,127.4z M50,127.4c0,0.9,0.2,1.6,0.5,2.1s0.9,0.7,1.6,0.7c0.7,0,1.2-0.2,1.6-0.7s0.6-1.2,0.6-2.1
				c0-0.9-0.2-1.6-0.6-2.1c-0.4-0.5-0.9-0.7-1.6-0.7C50.7,124.6,50,125.5,50,127.4z"/>
			<path id="XMLID_96_" class="st3" d="M62.5,131.1v-4.7c0-0.6-0.1-1-0.4-1.3s-0.7-0.4-1.3-0.4c-0.8,0-1.3,0.2-1.6,0.6
				c-0.3,0.4-0.5,1.1-0.5,2v3.8h-1.2v-7.4h1l0.2,1h0.1c0.2-0.4,0.5-0.6,1-0.8c0.4-0.2,0.9-0.3,1.4-0.3c0.9,0,1.6,0.2,2,0.7
				c0.4,0.4,0.7,1.1,0.7,2v4.8H62.5z"/>
			<path id="XMLID_93_" class="st3" d="M70.9,131l0-0.9h-0.1c-0.5,0.7-1.3,1.1-2.3,1.1c-1,0-1.7-0.3-2.2-1c-0.5-0.7-0.8-1.6-0.8-2.8
				c0-1.2,0.3-2.1,0.8-2.8c0.5-0.7,1.3-1,2.2-1c1,0,1.8,0.4,2.3,1.1H71l0.2-1h1v7.5c0,1.1-0.3,1.9-0.8,2.4s-1.4,0.8-2.5,0.8
				c-1.1,0-2-0.2-2.7-0.5v-1.1c0.7,0.4,1.6,0.6,2.7,0.6c0.6,0,1.1-0.2,1.5-0.6c0.4-0.4,0.5-0.9,0.5-1.5V131z M68.8,130.2
				c0.7,0,1.3-0.2,1.6-0.6c0.3-0.4,0.5-1,0.5-1.9v-0.3c0-1-0.2-1.7-0.5-2.2c-0.3-0.4-0.9-0.7-1.6-0.7c-0.6,0-1.1,0.2-1.4,0.7
				c-0.3,0.5-0.5,1.2-0.5,2.1c0,0.9,0.2,1.6,0.5,2.1C67.7,130,68.1,130.2,68.8,130.2z"/>
			<path id="XMLID_91_" class="st3" d="M79.2,131.1H78v-10.5h1.2V131.1z"/>
			<path id="XMLID_88_" class="st3" d="M86.1,131.1l-0.2-1h-0.1c-0.4,0.5-0.7,0.8-1.1,0.9s-0.8,0.2-1.4,0.2c-0.7,0-1.3-0.2-1.7-0.6
				c-0.4-0.4-0.6-0.9-0.6-1.6c0-1.5,1.2-2.3,3.5-2.4l1.3,0v-0.4c0-0.6-0.1-1-0.4-1.2c-0.2-0.3-0.6-0.4-1.2-0.4
				c-0.4,0-0.8,0.1-1.1,0.2c-0.3,0.1-0.7,0.2-1,0.4l-0.4-0.9c0.4-0.2,0.8-0.4,1.2-0.5c0.4-0.1,0.9-0.2,1.3-0.2c0.9,0,1.6,0.2,2,0.6
				s0.7,1,0.7,1.9v5H86.1z M83.6,130.3c0.7,0,1.2-0.2,1.6-0.5c0.4-0.4,0.6-0.9,0.6-1.6v-0.7l-1.1,0c-0.8,0-1.5,0.2-1.9,0.4
				c-0.4,0.2-0.6,0.6-0.6,1.1c0,0.4,0.1,0.7,0.4,0.9C82.9,130.2,83.2,130.3,83.6,130.3z"/>
			<path id="XMLID_86_" class="st3" d="M94.1,129.1c0,0.7-0.3,1.2-0.8,1.6c-0.5,0.4-1.2,0.6-2.2,0.6c-1,0-1.7-0.2-2.3-0.5v-1.1
				c0.8,0.4,1.6,0.6,2.3,0.6c0.6,0,1.1-0.1,1.3-0.3c0.3-0.2,0.4-0.5,0.4-0.8c0-0.3-0.1-0.5-0.4-0.7s-0.7-0.4-1.4-0.7
				c-0.7-0.3-1.2-0.5-1.5-0.7s-0.5-0.4-0.6-0.6c-0.1-0.2-0.2-0.5-0.2-0.9c0-0.6,0.2-1.1,0.7-1.4c0.5-0.3,1.2-0.5,2-0.5
				c0.8,0,1.6,0.2,2.4,0.5l-0.4,1c-0.7-0.3-1.4-0.5-2-0.5c-0.5,0-0.9,0.1-1.1,0.2s-0.4,0.4-0.4,0.7c0,0.3,0.1,0.5,0.3,0.7
				c0.2,0.2,0.7,0.4,1.6,0.7c0.6,0.2,1.1,0.4,1.4,0.6c0.3,0.2,0.5,0.4,0.6,0.7C94,128.4,94.1,128.7,94.1,129.1z"/>
			<path id="XMLID_84_" class="st3" d="M98.4,130.2c0.2,0,0.3,0,0.6,0s0.4-0.1,0.5-0.1v0.9c-0.1,0-0.3,0.1-0.5,0.1
				c-0.2,0-0.5,0.1-0.7,0.1c-1.4,0-2.2-0.8-2.2-2.3v-4.3h-1v-0.6l1.1-0.5l0.5-1.6h0.7v1.7h2.1v0.9h-2.1v4.3c0,0.4,0.1,0.8,0.3,1
				S98,130.2,98.4,130.2z"/>
			<path id="XMLID_81_" class="st3" d="M100.8,121.7c0-0.3,0.1-0.5,0.2-0.6s0.3-0.2,0.5-0.2c0.2,0,0.4,0.1,0.5,0.2
				c0.1,0.1,0.2,0.3,0.2,0.6c0,0.3-0.1,0.5-0.2,0.6c-0.1,0.1-0.3,0.2-0.5,0.2c-0.2,0-0.4-0.1-0.5-0.2S100.8,122,100.8,121.7z
				 M102.1,131.1h-1.2v-7.4h1.2V131.1z"/>
			<path id="XMLID_79_" class="st3" d="M109.4,131.1v-4.7c0-0.6-0.1-1-0.4-1.3s-0.7-0.4-1.3-0.4c-0.8,0-1.3,0.2-1.6,0.6
				c-0.3,0.4-0.5,1.1-0.5,2v3.8h-1.2v-7.4h1l0.2,1h0.1c0.2-0.4,0.5-0.6,1-0.8c0.4-0.2,0.9-0.3,1.4-0.3c0.9,0,1.6,0.2,2,0.7
				c0.4,0.4,0.7,1.1,0.7,2v4.8H109.4z"/>
			<path id="XMLID_76_" class="st3" d="M117.8,131l0-0.9h-0.1c-0.5,0.7-1.3,1.1-2.3,1.1c-1,0-1.7-0.3-2.2-1
				c-0.5-0.7-0.8-1.6-0.8-2.8c0-1.2,0.3-2.1,0.8-2.8c0.5-0.7,1.3-1,2.2-1c1,0,1.8,0.4,2.3,1.1h0.1l0.2-1h1v7.5
				c0,1.1-0.3,1.9-0.8,2.4s-1.4,0.8-2.5,0.8c-1.1,0-2-0.2-2.7-0.5v-1.1c0.7,0.4,1.6,0.6,2.7,0.6c0.6,0,1.1-0.2,1.5-0.6
				c0.4-0.4,0.5-0.9,0.5-1.5V131z M115.7,130.2c0.7,0,1.3-0.2,1.6-0.6c0.3-0.4,0.5-1,0.5-1.9v-0.3c0-1-0.2-1.7-0.5-2.2
				c-0.3-0.4-0.9-0.7-1.6-0.7c-0.6,0-1.1,0.2-1.4,0.7c-0.3,0.5-0.5,1.2-0.5,2.1c0,0.9,0.2,1.6,0.5,2.1
				C114.6,130,115.1,130.2,115.7,130.2z"/>
			<path id="XMLID_74_" class="st3" d="M45.4,140.1c0.3,0,0.6,0,0.9,0.1l-0.1,1.1c-0.3-0.1-0.5-0.1-0.8-0.1c-0.4,0-0.8,0.1-1.1,0.3
				c-0.3,0.2-0.6,0.5-0.8,0.9c-0.2,0.4-0.3,0.8-0.3,1.3v3.9h-1.2v-7.4h1l0.1,1.4h0.1c0.3-0.5,0.6-0.9,1-1.1S44.9,140.1,45.4,140.1z"
				/>
			<path id="XMLID_71_" class="st3" d="M50.6,147.8c-1.1,0-2-0.3-2.6-1c-0.6-0.7-0.9-1.6-0.9-2.8c0-1.2,0.3-2.1,0.9-2.8
				s1.4-1.1,2.4-1.1c0.9,0,1.7,0.3,2.2,0.9c0.6,0.6,0.8,1.4,0.8,2.4v0.7h-5.1c0,0.8,0.2,1.5,0.6,1.9c0.4,0.4,1,0.7,1.7,0.7
				c0.4,0,0.8,0,1.1-0.1s0.8-0.2,1.2-0.4v1.1c-0.4,0.2-0.8,0.3-1.1,0.4S51.1,147.8,50.6,147.8z M50.3,141.1c-0.6,0-1,0.2-1.4,0.6
				c-0.3,0.4-0.5,0.9-0.6,1.6h3.8c0-0.7-0.2-1.2-0.5-1.6S50.9,141.1,50.3,141.1z"/>
			<path id="XMLID_69_" class="st3" d="M56.5,147.6h-1.2v-10.5h1.2V147.6z"/>
			<path id="XMLID_66_" class="st3" d="M63.4,147.6l-0.2-1h-0.1c-0.4,0.5-0.7,0.8-1.1,0.9s-0.8,0.2-1.4,0.2c-0.7,0-1.3-0.2-1.7-0.6
				c-0.4-0.4-0.6-0.9-0.6-1.6c0-1.5,1.2-2.3,3.5-2.4l1.3,0v-0.4c0-0.6-0.1-1-0.4-1.2c-0.2-0.3-0.6-0.4-1.2-0.4
				c-0.4,0-0.8,0.1-1.1,0.2c-0.3,0.1-0.7,0.2-1,0.4l-0.4-0.9c0.4-0.2,0.8-0.4,1.2-0.5c0.4-0.1,0.9-0.2,1.3-0.2c0.9,0,1.6,0.2,2,0.6
				c0.4,0.4,0.7,1,0.7,1.9v5H63.4z M60.9,146.8c0.7,0,1.2-0.2,1.6-0.5c0.4-0.4,0.6-0.9,0.6-1.6V144l-1.1,0c-0.8,0-1.5,0.2-1.9,0.4
				c-0.4,0.2-0.6,0.6-0.6,1.1c0,0.4,0.1,0.7,0.4,0.9C60.1,146.7,60.4,146.8,60.9,146.8z"/>
			<path id="XMLID_64_" class="st3" d="M69,146.8c0.2,0,0.3,0,0.6,0c0.2,0,0.4-0.1,0.5-0.1v0.9c-0.1,0-0.3,0.1-0.5,0.1
				c-0.2,0-0.5,0.1-0.7,0.1c-1.4,0-2.2-0.8-2.2-2.3v-4.3h-1v-0.6l1.1-0.5l0.5-1.6h0.7v1.7H70v0.9h-2.1v4.3c0,0.4,0.1,0.8,0.3,1
				C68.3,146.7,68.6,146.8,69,146.8z"/>
			<path id="XMLID_61_" class="st3" d="M71.4,138.2c0-0.3,0.1-0.5,0.2-0.6s0.3-0.2,0.5-0.2c0.2,0,0.4,0.1,0.5,0.2s0.2,0.3,0.2,0.6
				c0,0.3-0.1,0.5-0.2,0.6s-0.3,0.2-0.5,0.2c-0.2,0-0.4-0.1-0.5-0.2S71.4,138.5,71.4,138.2z M72.7,147.6h-1.2v-7.4h1.2V147.6z"/>
			<path id="XMLID_58_" class="st3" d="M81.5,143.9c0,1.2-0.3,2.1-0.9,2.8c-0.6,0.7-1.5,1-2.5,1c-0.7,0-1.3-0.2-1.8-0.5
				c-0.5-0.3-0.9-0.8-1.2-1.3c-0.3-0.6-0.4-1.3-0.4-2c0-1.2,0.3-2.1,0.9-2.8c0.6-0.7,1.4-1,2.5-1c1,0,1.9,0.3,2.5,1
				C81.1,141.8,81.5,142.7,81.5,143.9z M75.9,143.9c0,0.9,0.2,1.6,0.5,2.1s0.9,0.7,1.6,0.7c0.7,0,1.2-0.2,1.6-0.7s0.6-1.2,0.6-2.1
				c0-0.9-0.2-1.6-0.6-2.1s-0.9-0.7-1.6-0.7C76.6,141.1,75.9,142.1,75.9,143.9z"/>
			<path id="XMLID_56_" class="st3" d="M88.4,147.6v-4.7c0-0.6-0.1-1-0.4-1.3s-0.7-0.4-1.3-0.4c-0.8,0-1.3,0.2-1.6,0.6
				c-0.3,0.4-0.5,1.1-0.5,2v3.8h-1.2v-7.4h1l0.2,1h0.1c0.2-0.4,0.5-0.6,1-0.8c0.4-0.2,0.9-0.3,1.4-0.3c0.9,0,1.6,0.2,2,0.7
				c0.4,0.4,0.7,1.1,0.7,2v4.8H88.4z"/>
			<path id="XMLID_54_" class="st3" d="M96.7,145.6c0,0.7-0.3,1.2-0.8,1.6c-0.5,0.4-1.2,0.6-2.2,0.6c-1,0-1.7-0.2-2.3-0.5v-1.1
				c0.8,0.4,1.6,0.6,2.3,0.6c0.6,0,1.1-0.1,1.3-0.3s0.4-0.5,0.4-0.8c0-0.3-0.1-0.5-0.4-0.7s-0.7-0.4-1.4-0.7
				c-0.7-0.3-1.2-0.5-1.5-0.7s-0.5-0.4-0.6-0.6s-0.2-0.5-0.2-0.9c0-0.6,0.2-1.1,0.7-1.4c0.5-0.3,1.2-0.5,2-0.5
				c0.8,0,1.6,0.2,2.4,0.5l-0.4,1c-0.7-0.3-1.4-0.5-2-0.5c-0.5,0-0.9,0.1-1.1,0.2s-0.4,0.4-0.4,0.7c0,0.3,0.1,0.5,0.3,0.7
				c0.2,0.2,0.7,0.4,1.6,0.7c0.6,0.2,1.1,0.4,1.4,0.6c0.3,0.2,0.5,0.4,0.6,0.7C96.6,144.9,96.7,145.2,96.7,145.6z"/>
			<path id="XMLID_52_" class="st3" d="M103.5,147.6v-4.7c0-0.6-0.1-1-0.4-1.3s-0.7-0.4-1.3-0.4c-0.7,0-1.3,0.2-1.6,0.6
				c-0.3,0.4-0.5,1.1-0.5,2.1v3.8h-1.2v-10.5h1.2v3.1c0,0.4,0,0.7-0.1,1h0.1c0.2-0.4,0.5-0.6,0.9-0.8s0.9-0.3,1.4-0.3
				c0.9,0,1.6,0.2,2,0.6c0.5,0.4,0.7,1.1,0.7,2.1v4.8H103.5z"/>
			<path id="XMLID_49_" class="st3" d="M106.9,138.2c0-0.3,0.1-0.5,0.2-0.6s0.3-0.2,0.5-0.2c0.2,0,0.4,0.1,0.5,0.2
				c0.1,0.1,0.2,0.3,0.2,0.6c0,0.3-0.1,0.5-0.2,0.6c-0.1,0.1-0.3,0.2-0.5,0.2c-0.2,0-0.4-0.1-0.5-0.2S106.9,138.5,106.9,138.2z
				 M108.2,147.6H107v-7.4h1.2V147.6z"/>
			<path id="XMLID_46_" class="st3" d="M114,147.8c-1,0-1.8-0.4-2.3-1.1h-0.1l0,0.3c0,0.3,0.1,0.7,0.1,0.9v3h-1.2v-10.7h1l0.2,1h0.1
				c0.3-0.4,0.6-0.7,1-0.9s0.8-0.3,1.3-0.3c1,0,1.7,0.3,2.2,1c0.5,0.7,0.8,1.6,0.8,2.8c0,1.2-0.3,2.1-0.8,2.8
				C115.7,147.4,115,147.8,114,147.8z M113.8,141.1c-0.7,0-1.3,0.2-1.6,0.6s-0.5,1.1-0.5,1.9v0.2c0,1,0.2,1.7,0.5,2.2
				c0.3,0.4,0.9,0.7,1.6,0.7c0.6,0,1.1-0.3,1.4-0.8c0.3-0.5,0.5-1.2,0.5-2.1c0-0.9-0.2-1.6-0.5-2.1
				C114.9,141.4,114.5,141.1,113.8,141.1z"/>
		</g>
	</g>
	<g id="XMLID_38_">
		<circle id="XMLID_42_" class="st4" cx="15" cy="110.6" r="4"/>
		<path id="XMLID_41_" class="st4" d="M10.9,110.6H19v10.1C19,120.6,10.9,115.7,10.9,110.6z"/>
		<circle id="XMLID_40_" class="st4" cx="23" cy="110.4" r="4"/>
		<path id="XMLID_39_" class="st4" d="M27,110.4H19v10.1C19,120.5,27,115.5,27,110.4z"/>
	</g>
	<g id="XMLID_16_">
		<circle id="XMLID_37_" class="st5" cx="79.6" cy="48.7" r="42.9"/>
		<g id="XMLID_25_">
			<polygon id="XMLID_36_" class="st6" points="70.9,29.9 64.3,23.2 72.3,12.9 81.4,12.9 81.4,33.7 			"/>
			<polygon id="XMLID_35_" class="st6" points="86.4,29.9 93.1,23.2 85,12.9 76,12.9 76,33.7 			"/>
			<path id="XMLID_34_" class="st7" d="M102,53.2c0,1-0.1,2-0.2,2.9c-1.4,12.1-11.7,21.4-24.2,21.4c-13.4,0-24.4-10.9-24.4-24.3
				c0-13.4,10.9-24.4,24.4-24.4c11.9,0,21.7,8.5,23.9,19.7c0.2,1,0.3,1.9,0.4,2.9v0C102,52.1,102,52.6,102,53.2z"/>
			<polygon id="XMLID_33_" class="st8" points="64.3,23.2 93.1,23.2 85,12.9 72.3,12.9 			"/>
			<polygon id="XMLID_32_" class="st9" points="72.3,12.9 78.7,23.2 85,12.9 			"/>
			<polygon id="XMLID_31_" class="st10" points="72.3,12.9 67.7,23.2 78.7,23.2 			"/>
			<polygon id="XMLID_30_" class="st10" points="85,12.9 89.7,23.2 78.7,23.2 			"/>
			<polygon id="XMLID_29_" class="st11" points="101.6,48.6 94.3,48.6 94.3,51.5 102,51.5 			"/>
			<path id="XMLID_28_" class="st11" d="M102,53.2c0,1-0.1,2-0.2,2.9h-7.5v-2.9H102z"/>
			<circle id="XMLID_27_" class="st12" cx="77.7" cy="52.8" r="21.5"/>
			<circle id="XMLID_26_" class="st5" cx="77.7" cy="52.8" r="17.3"/>
		</g>
		<g id="XMLID_17_">
			<path id="XMLID_24_" class="st9" d="M48.9,3.3c0,0-0.7,3.5-4.2,4c3.5,0.5,4.2,4,4.2,4s0.7-3.5,4.2-4C49.6,6.8,48.9,3.3,48.9,3.3"
				/>
			<path id="XMLID_23_" class="st9" d="M59.1,22.8c0,0-0.7,3.5-4.2,4c3.5,0.5,4.2,4,4.2,4s0.7-3.5,4.2-4
				C59.8,26.3,59.1,22.8,59.1,22.8"/>
			<path id="XMLID_20_" class="st9" d="M43.8,12.9c0,0-1.7,8.7-10.3,9.9c8.6,1.3,10.3,9.9,10.3,9.9s1.7-8.7,10.3-9.9
				C45.5,21.6,43.8,12.9,43.8,12.9 M43.8,15.5c0.3,0.7,0.7,1.5,1.2,2.3c1.5,2.3,3.5,4,5.9,5c-2.4,1-4.4,2.7-5.9,5
				c-0.5,0.8-0.9,1.6-1.2,2.3c-0.3-0.7-0.7-1.5-1.2-2.3c-1.5-2.3-3.5-4-5.9-5c2.4-1,4.4-2.7,5.9-5C43.1,17,43.5,16.2,43.8,15.5"/>
			<path id="XMLID_19_" class="st9" d="M37.4,17.4c-0.4-0.8-1.1-1.9-2.4-2.5c1.3-0.6,2-1.7,2.4-2.5c0.4,0.8,1.1,1.9,2.4,2.5
				C38.5,15.5,37.8,16.6,37.4,17.4z"/>
			<circle id="XMLID_18_" class="st9" cx="52.1" cy="33.1" r="2"/>
		</g>
	</g>
</g>
</svg>