<!-- Generator: Adobe Illustrator 19.0.0, SVG Export Plug-In  -->
<svg version="1.1"
	 xmlns="http://www.w3.org/2000/svg" xmlns:xlink="http://www.w3.org/1999/xlink" xmlns:a="http://ns.adobe.com/AdobeSVGViewerExtensions/3.0/"
	 x="0px" y="0px" width="120.8px" height="120.8px" viewBox="0 0 120.8 120.8" style="enable-background:new 0 0 120.8 120.8;"
	 xml:space="preserve">
<style type="text/css">
	.st0{fill:#086A87;}
	.st1{fill:none;stroke:#FFFFFF;stroke-width:2;stroke-miterlimit:10;}
	.st2{fill:#33CCCC;}
	.st3{fill:none;stroke:#FFFFFF;stroke-width:5;stroke-miterlimit:10;}
	.st4{fill:#F45722;}
	.st5{fill:#F99700;}
	.st6{fill:#F9CF00;}
	.st7{fill:#B6C9CC;}
</style>
<defs>
</defs>
<circle class="st0" cx="60.4" cy="60.4" r="60.4"/>
<path class="st1" d="M65.2,10c-8.1,0-14.6,6.5-14.6,14.6V46h29.2V24.6C79.8,16.5,73.3,10,65.2,10z"/>
<path class="st1" d="M79.8,10c-8.1,0-14.6,6.5-14.6,14.6V46h29.2V24.6C94.4,16.5,87.9,10,79.8,10z"/>
<rect x="33.8" y="31.8" class="st2" width="55.2" height="75.7"/>
<path class="st3" d="M35.7,27.5c-5.2,0-9.3,4.2-9.3,9.3v13.7H45V36.9C45,31.7,40.9,27.5,35.7,27.5z"/>
<rect x="20.5" y="39.8" class="st4" width="30.4" height="20"/>
<rect x="42.2" y="39.8" class="st5" width="8.7" height="20"/>
<rect x="25.2" y="43.7" class="st6" width="10.5" height="7.7"/>
<circle class="st6" cx="30.4" cy="51.5" r="5.3"/>
<rect x="89.1" y="31.8" class="st7" width="12" height="75.7"/>
</svg>