<!-- Generator: Adobe Illustrator 19.0.0, SVG Export Plug-In  -->
<svg version="1.1"
	 xmlns="http://www.w3.org/2000/svg" xmlns:xlink="http://www.w3.org/1999/xlink" xmlns:a="http://ns.adobe.com/AdobeSVGViewerExtensions/3.0/"
	 x="0px" y="0px" width="149px" height="118px" viewBox="0 0 149 118" style="enable-background:new 0 0 149 118;"
	 xml:space="preserve">
<style type="text/css">
	.st0{fill:#086A87;}
	.st1{fill:#6D6D6D;}
	.st2{fill:#EDEDED;}
	.st3{fill:#F99700;}
	.st4{fill:#FF6633;}
</style>
<defs>
</defs>
<g>
	<circle class="st0" cx="75.1" cy="59" r="59"/>
	<path class="st1" d="M13.1,22.6c0-3.5,2.8-6.3,6.3-6.3h110.1c3.5,0,6.3,2.8,6.3,6.3v75.1c0,3.5-2.8,6.3-6.3,6.3H19.4
		c-3.5,0-6.3-2.8-6.3-6.3"/>
	<path class="st2" d="M13.1,29.2h122.8v68.5c0,3.5-2.8,6.3-6.3,6.3H19.4c-3.5,0-6.3-2.8-6.3-6.3"/>
	<rect x="13.1" y="29.2" class="st3" width="122.8" height="14.1"/>
	<rect y="33" class="st4" width="149" height="47.8"/>
	<rect x="8.6" y="39.7" class="st2" width="130.5" height="30.4"/>
	<g>
		<path class="st0" d="M34,61.4h-3.5v-7.5c0-1.8-0.7-2.8-2.1-2.8c-1,0-1.7,0.3-2.1,1c-0.4,0.7-0.7,1.7-0.7,3.2v6h-3.5V43.5h3.5v3.6
			c0,0.3,0,0.9-0.1,2l-0.1,1h0.2c0.8-1.3,2-1.9,3.7-1.9c1.5,0,2.6,0.4,3.4,1.2s1.2,2,1.2,3.5V61.4z"/>
		<path class="st0" d="M43,58.8c0.6,0,1.3-0.1,2.2-0.4V61c-0.9,0.4-1.9,0.6-3.2,0.6c-1.4,0-2.4-0.4-3.1-1.1c-0.6-0.7-1-1.8-1-3.2
			v-6.2h-1.7v-1.5l1.9-1.2l1-2.7h2.2v2.7H45v2.6h-3.6v6.2c0,0.5,0.1,0.9,0.4,1.1S42.5,58.8,43,58.8z"/>
		<path class="st0" d="M53.2,58.8c0.6,0,1.3-0.1,2.2-0.4V61c-0.9,0.4-1.9,0.6-3.2,0.6c-1.4,0-2.4-0.4-3-1.1c-0.6-0.7-1-1.8-1-3.2
			v-6.2h-1.7v-1.5l1.9-1.2l1-2.7h2.2v2.7h3.6v2.6h-3.6v6.2c0,0.5,0.1,0.9,0.4,1.1C52.3,58.7,52.7,58.8,53.2,58.8z"/>
		<path class="st0" d="M65,61.6c-1.5,0-2.7-0.5-3.5-1.6h-0.2c0.1,1.1,0.2,1.7,0.2,1.9V67h-3.5V48.6h2.8l0.5,1.7h0.2
			c0.8-1.3,2-1.9,3.6-1.9c1.5,0,2.7,0.6,3.5,1.8c0.9,1.2,1.3,2.8,1.3,4.9c0,1.4-0.2,2.6-0.6,3.6c-0.4,1-1,1.8-1.7,2.3
			S66,61.6,65,61.6z M63.9,51.1c-0.9,0-1.5,0.3-1.9,0.8c-0.4,0.5-0.6,1.4-0.6,2.6v0.4c0,1.4,0.2,2.4,0.6,3c0.4,0.6,1.1,0.9,1.9,0.9
			c1.6,0,2.3-1.3,2.3-3.9c0-1.3-0.2-2.2-0.6-2.8C65.4,51.4,64.8,51.1,63.9,51.1z"/>
		<path class="st0" d="M81.7,57.6c0,1.3-0.5,2.3-1.4,3c-0.9,0.7-2.3,1-4.1,1c-0.9,0-1.7-0.1-2.4-0.2s-1.3-0.3-1.8-0.6V58
			c0.6,0.3,1.4,0.6,2.2,0.8c0.8,0.2,1.5,0.3,2.1,0.3c1.3,0,1.9-0.4,1.9-1.1c0-0.3-0.1-0.5-0.3-0.7c-0.2-0.2-0.5-0.4-0.9-0.6
			c-0.4-0.2-1-0.5-1.6-0.8c-1-0.4-1.7-0.8-2.2-1.1s-0.8-0.8-1-1.2c-0.2-0.5-0.3-1-0.3-1.7c0-1.1,0.4-2,1.3-2.6
			c0.9-0.6,2.1-0.9,3.7-0.9c1.5,0,3,0.3,4.5,1l-1.1,2.5c-0.6-0.3-1.2-0.5-1.8-0.7c-0.6-0.2-1.1-0.3-1.7-0.3c-1,0-1.5,0.3-1.5,0.8
			c0,0.3,0.2,0.6,0.5,0.8c0.3,0.2,1.1,0.6,2.2,1c1,0.4,1.7,0.8,2.2,1.1c0.5,0.4,0.8,0.8,1,1.2C81.6,56.4,81.7,56.9,81.7,57.6z"/>
		<path class="st0" d="M83.9,50.3c0-0.6,0.2-1.1,0.5-1.5s0.8-0.5,1.5-0.5c0.6,0,1.1,0.2,1.5,0.5c0.3,0.3,0.5,0.8,0.5,1.4
			c0,0.6-0.2,1.1-0.5,1.4c-0.4,0.3-0.8,0.5-1.5,0.5c-0.6,0-1.1-0.2-1.5-0.5C84.1,51.4,83.9,50.9,83.9,50.3z M83.9,59.7
			c0-0.6,0.2-1.1,0.5-1.5s0.8-0.5,1.5-0.5c0.6,0,1.1,0.2,1.5,0.5c0.3,0.3,0.5,0.8,0.5,1.4c0,0.6-0.2,1.1-0.5,1.4
			c-0.4,0.3-0.8,0.5-1.5,0.5c-0.6,0-1.1-0.2-1.5-0.5C84.1,60.8,83.9,60.3,83.9,59.7z"/>
		<path class="st0" d="M98.8,44.6l-6.2,16.7h-3.2l6.2-16.7H98.8z"/>
		<path class="st0" d="M108.5,44.6l-6.2,16.7h-3.2l6.2-16.7H108.5z"/>
	</g>
</g>
</svg>