<!-- Generator: Adobe Illustrator 19.0.0, SVG Export Plug-In  -->
<svg version="1.1"
	 xmlns="http://www.w3.org/2000/svg" xmlns:xlink="http://www.w3.org/1999/xlink" xmlns:a="http://ns.adobe.com/AdobeSVGViewerExtensions/3.0/"
	 x="0px" y="0px" width="164.9px" height="65.1px" viewBox="0 0 164.9 65.1" style="enable-background:new 0 0 164.9 65.1;"
	 xml:space="preserve">
<style type="text/css">
	.st0{fill:#F99700;}
	.st1{fill:#F45722;}
	.st2{fill:#FFFFFF;}
</style>
<defs>
</defs>
<rect class="st0" width="164.9" height="54.5"/>
<polygon class="st1" points="114.5,65.1 137.9,24.5 161.4,65.1 "/>
<g>
	<path class="st2" d="M136.3,56c0-0.7,0.2-1.2,0.5-1.6c0.4-0.3,0.9-0.5,1.6-0.5c0.7,0,1.2,0.2,1.6,0.5c0.4,0.4,0.6,0.9,0.6,1.5
		c0,0.6-0.2,1.1-0.6,1.5c-0.4,0.4-0.9,0.6-1.6,0.6c-0.7,0-1.2-0.2-1.6-0.5C136.4,57.2,136.3,56.7,136.3,56z M139.9,51.8h-3
		l-0.6-11.9h4.2L139.9,51.8z"/>
</g>
<g>
	<path class="st2" d="M26.4,29.1c0,1.3-0.5,2.3-1.4,3.1c-0.9,0.8-2.2,1.3-3.9,1.4v2.5h-1.7v-2.5c-2,0-3.7-0.4-5.2-1v-3.2
		c0.7,0.4,1.6,0.7,2.6,0.9c1,0.3,1.9,0.4,2.7,0.5v-3.8l-0.8-0.3c-1.6-0.6-2.8-1.3-3.4-2.1c-0.7-0.7-1-1.7-1-2.8
		c0-1.2,0.5-2.2,1.4-2.9c0.9-0.8,2.2-1.2,3.9-1.4v-1.9h1.7v1.8c1.9,0.1,3.5,0.5,5.1,1.1L25,21.6c-1.3-0.5-2.6-0.8-3.9-1v3.6
		c1.6,0.6,2.7,1.1,3.4,1.6c0.7,0.4,1.2,0.9,1.5,1.5C26.3,27.8,26.4,28.4,26.4,29.1z M17.9,21.9c0,0.4,0.1,0.7,0.4,0.9
		c0.2,0.2,0.6,0.5,1.2,0.7v-2.9C18.4,20.8,17.9,21.2,17.9,21.9z M22.8,29.3c0-0.3-0.1-0.6-0.4-0.9c-0.3-0.2-0.7-0.5-1.2-0.7v3
		C22.2,30.6,22.8,30.1,22.8,29.3z"/>
</g>
</svg>