<!-- Generator: Adobe Illustrator 19.0.0, SVG Export Plug-In  -->
<svg version="1.1"
	 xmlns="http://www.w3.org/2000/svg" xmlns:xlink="http://www.w3.org/1999/xlink" xmlns:a="http://ns.adobe.com/AdobeSVGViewerExtensions/3.0/"
	 x="0px" y="0px" width="203px" height="203px" viewBox="0 0 203 203" style="enable-background:new 0 0 203 203;"
	 xml:space="preserve">
<style type="text/css">
	.st0{fill:#E0E0E0;stroke:#15103F;stroke-width:3;stroke-miterlimit:10;}
	.st1{fill:#EE2361;stroke:#15103F;stroke-width:3;stroke-miterlimit:10;}
	.st2{fill:#FFFFFF;}
	.st3{fill:#EE2361;stroke:#15103F;stroke-width:3;stroke-linecap:round;stroke-linejoin:round;stroke-miterlimit:10;}
</style>
<defs>
</defs>
<rect x="1.5" y="1.5" class="st0" width="200" height="200"/>
<rect x="1.5" y="1.5" class="st1" width="200" height="100"/>
<g>
	<path class="st2" d="M62,21.4c0,0.8-0.3,1.4-0.8,1.8s-1.3,0.7-2.3,0.7c-0.9,0-1.7-0.2-2.4-0.5v-1.7c0.6,0.3,1.1,0.4,1.5,0.5
		s0.8,0.2,1.1,0.2c0.4,0,0.7-0.1,0.9-0.2s0.3-0.4,0.3-0.7c0-0.2,0-0.3-0.1-0.4s-0.2-0.3-0.4-0.4s-0.6-0.3-1.1-0.6
		c-0.5-0.2-0.9-0.5-1.2-0.7s-0.5-0.5-0.6-0.8s-0.2-0.7-0.2-1.1c0-0.8,0.3-1.4,0.8-1.8c0.5-0.4,1.2-0.7,2.1-0.7
		c0.4,0,0.9,0.1,1.3,0.2s0.8,0.3,1.3,0.4l-0.6,1.4c-0.5-0.2-0.8-0.3-1.1-0.4s-0.6-0.1-0.9-0.1c-0.3,0-0.6,0.1-0.8,0.2
		s-0.3,0.4-0.3,0.6c0,0.2,0,0.3,0.1,0.4s0.2,0.2,0.4,0.3s0.5,0.3,1.2,0.6c0.8,0.4,1.3,0.8,1.6,1.2S62,20.8,62,21.4z"/>
	<path class="st2" d="M66.2,22.5c0.3,0,0.7-0.1,1.1-0.2v1.3c-0.4,0.2-1,0.3-1.6,0.3c-0.7,0-1.2-0.2-1.6-0.5s-0.5-0.9-0.5-1.6v-3.2
		h-0.9v-0.8l1-0.6l0.5-1.4h1.1v1.4h1.8v1.3h-1.8v3.2c0,0.3,0.1,0.4,0.2,0.6S65.9,22.5,66.2,22.5z"/>
	<path class="st2" d="M72.3,17.1c0.2,0,0.4,0,0.6,0.1l-0.1,1.7c-0.1,0-0.3-0.1-0.5-0.1c-0.6,0-1,0.1-1.3,0.4s-0.5,0.7-0.5,1.2v3.3
		h-1.8v-6.6H70l0.3,1.1h0.1c0.2-0.4,0.5-0.7,0.8-0.9S71.9,17.1,72.3,17.1z"/>
	<path class="st2" d="M78.1,23.8l-0.3-0.9h0c-0.3,0.4-0.6,0.6-0.9,0.8s-0.7,0.2-1.2,0.2c-0.6,0-1.1-0.2-1.5-0.5s-0.5-0.9-0.5-1.5
		c0-0.7,0.2-1.2,0.7-1.5s1.2-0.5,2.2-0.5l1.1,0v-0.3c0-0.7-0.3-1-1-1c-0.5,0-1.1,0.2-1.8,0.5l-0.6-1.2c0.8-0.4,1.6-0.6,2.5-0.6
		c0.9,0,1.6,0.2,2,0.6s0.7,1,0.7,1.7v4.4H78.1z M77.6,20.7l-0.7,0c-0.5,0-0.9,0.1-1.2,0.3s-0.4,0.4-0.4,0.8c0,0.5,0.3,0.8,0.9,0.8
		c0.4,0,0.7-0.1,1-0.4s0.4-0.6,0.4-0.9V20.7z"/>
	<path class="st2" d="M86.6,23.8l-0.5-2.3l-0.7-2.9h-0.1l-1.2,5.2h-1.9l-1.9-6.6h1.8l0.8,2.9c0.1,0.3,0.2,1.1,0.4,2.2h0
		c0-0.3,0.1-0.8,0.2-1.4l0.1-0.5l0.8-3.1h2l0.8,3.1c0,0.2,0.1,0.5,0.2,0.9s0.1,0.7,0.1,1h0c0-0.3,0.1-0.7,0.2-1.2s0.1-0.8,0.2-1
		l0.8-2.9h1.8l-1.9,6.6H86.6z"/>
	<path class="st2" d="M95.1,17.1c0.8,0,1.4,0.3,1.8,0.9s0.7,1.4,0.7,2.5c0,1.1-0.2,1.9-0.7,2.5s-1.1,0.9-1.8,0.9
		c-0.8,0-1.4-0.3-1.8-0.8h-0.1l-0.3,0.7h-1.4v-9.1h1.8v2.1c0,0.3,0,0.7-0.1,1.3h0.1C93.7,17.4,94.3,17.1,95.1,17.1z M94.5,18.5
		c-0.4,0-0.8,0.1-1,0.4s-0.3,0.7-0.3,1.3v0.2c0,0.7,0.1,1.2,0.3,1.5s0.5,0.5,1,0.5c0.4,0,0.7-0.2,0.9-0.5s0.3-0.8,0.3-1.5
		s-0.1-1.1-0.3-1.5S94.9,18.5,94.5,18.5z"/>
	<path class="st2" d="M102,23.9c-1.1,0-1.9-0.3-2.5-0.9s-0.9-1.4-0.9-2.5c0-1.1,0.3-1.9,0.8-2.5s1.3-0.9,2.3-0.9
		c0.9,0,1.6,0.3,2.2,0.8s0.8,1.3,0.8,2.2V21h-4.2c0,0.5,0.2,0.9,0.5,1.2s0.7,0.4,1.2,0.4c0.4,0,0.8,0,1.1-0.1s0.7-0.2,1.1-0.4v1.4
		c-0.3,0.2-0.6,0.3-1,0.3S102.5,23.9,102,23.9z M101.8,18.4c-0.4,0-0.7,0.1-0.9,0.4s-0.3,0.6-0.4,1h2.5c0-0.4-0.1-0.8-0.3-1
		S102.1,18.4,101.8,18.4z"/>
	<path class="st2" d="M109.8,17.1c0.2,0,0.4,0,0.6,0.1l-0.1,1.7c-0.1,0-0.3-0.1-0.5-0.1c-0.6,0-1,0.1-1.3,0.4s-0.5,0.7-0.5,1.2v3.3
		h-1.8v-6.6h1.4l0.3,1.1h0.1c0.2-0.4,0.5-0.7,0.8-0.9S109.4,17.1,109.8,17.1z"/>
	<path class="st2" d="M115.2,17.1c0.2,0,0.4,0,0.6,0.1l-0.1,1.7c-0.1,0-0.3-0.1-0.5-0.1c-0.6,0-1,0.1-1.3,0.4s-0.5,0.7-0.5,1.2v3.3
		h-1.8v-6.6h1.4l0.3,1.1h0.1c0.2-0.4,0.5-0.7,0.8-0.9S114.8,17.1,115.2,17.1z"/>
	<path class="st2" d="M116.1,17.2h2l1.2,3.7c0.1,0.3,0.2,0.7,0.2,1.1h0c0-0.4,0.1-0.8,0.3-1.1l1.2-3.7h1.9l-2.8,7.4
		c-0.3,0.7-0.6,1.2-1.1,1.5s-1,0.5-1.6,0.5c-0.3,0-0.6,0-0.9-0.1v-1.4c0.2,0.1,0.4,0.1,0.7,0.1c0.3,0,0.6-0.1,0.8-0.3
		s0.4-0.5,0.6-0.9l0.1-0.3L116.1,17.2z"/>
	<path class="st2" d="M123.4,22.9c0-0.3,0.1-0.6,0.3-0.7s0.4-0.3,0.8-0.3c0.3,0,0.6,0.1,0.8,0.3s0.3,0.4,0.3,0.7
		c0,0.3-0.1,0.6-0.3,0.7s-0.4,0.3-0.8,0.3c-0.3,0-0.6-0.1-0.8-0.3S123.4,23.3,123.4,22.9z"/>
	<path class="st2" d="M133.1,23.8h-1.8V20c0-0.5-0.1-0.8-0.3-1.1s-0.4-0.4-0.8-0.4c-0.5,0-0.9,0.2-1.1,0.5s-0.3,0.9-0.3,1.7v3.1
		h-1.8v-6.6h1.4l0.2,0.8h0.1c0.2-0.3,0.5-0.6,0.8-0.7s0.7-0.2,1.2-0.2c0.8,0,1.3,0.2,1.7,0.6s0.6,1,0.6,1.8V23.8z"/>
	<path class="st2" d="M137.9,23.9c-1.1,0-1.9-0.3-2.5-0.9s-0.9-1.4-0.9-2.5c0-1.1,0.3-1.9,0.8-2.5s1.3-0.9,2.3-0.9
		c0.9,0,1.6,0.3,2.2,0.8s0.8,1.3,0.8,2.2V21h-4.2c0,0.5,0.2,0.9,0.5,1.2s0.7,0.4,1.2,0.4c0.4,0,0.8,0,1.1-0.1s0.7-0.2,1.1-0.4v1.4
		c-0.3,0.2-0.6,0.3-1,0.3S138.4,23.9,137.9,23.9z M137.7,18.4c-0.4,0-0.7,0.1-0.9,0.4s-0.3,0.6-0.4,1h2.5c0-0.4-0.1-0.8-0.3-1
		S138,18.4,137.7,18.4z"/>
	<path class="st2" d="M144.8,22.5c0.3,0,0.7-0.1,1.1-0.2v1.3c-0.4,0.2-1,0.3-1.6,0.3c-0.7,0-1.2-0.2-1.6-0.5s-0.5-0.9-0.5-1.6v-3.2
		h-0.9v-0.8l1-0.6l0.5-1.4h1.1v1.4h1.8v1.3H144v3.2c0,0.3,0.1,0.4,0.2,0.6S144.6,22.5,144.8,22.5z"/>
</g>
<g>
	<path class="st2" d="M13.7,34.8h3.3c1.5,0,2.6,0.2,3.3,0.6c0.7,0.4,1,1.1,1,2.1c0,0.6-0.1,1.2-0.5,1.6c-0.3,0.4-0.7,0.7-1.2,0.7
		v0.1c0.7,0.2,1.2,0.4,1.5,0.8c0.3,0.4,0.5,1,0.5,1.7c0,1-0.4,1.7-1.1,2.3s-1.7,0.8-2.9,0.8h-4V34.8z M16,39h1.3
		c0.6,0,1.1-0.1,1.3-0.3c0.3-0.2,0.4-0.5,0.4-0.9c0-0.4-0.2-0.7-0.5-0.9c-0.3-0.2-0.8-0.3-1.4-0.3H16V39z M16,40.8v2.8h1.5
		c0.6,0,1.1-0.1,1.4-0.4c0.3-0.2,0.4-0.6,0.4-1.1c0-0.9-0.6-1.3-1.9-1.3H16z"/>
	<path class="st2" d="M27.4,45.6c-1.3,0-2.3-0.4-3.1-1.1c-0.7-0.7-1.1-1.8-1.1-3.1c0-1.4,0.3-2.4,1-3.2c0.7-0.8,1.6-1.1,2.8-1.1
		c1.2,0,2.1,0.3,2.7,1s1,1.6,1,2.7V42h-5.3c0,0.6,0.2,1.1,0.6,1.5s0.8,0.5,1.5,0.5c0.5,0,1-0.1,1.4-0.2s0.9-0.3,1.4-0.5v1.7
		c-0.4,0.2-0.8,0.3-1.3,0.4C28.5,45.6,28,45.6,27.4,45.6z M27,38.7c-0.5,0-0.8,0.2-1.1,0.5c-0.3,0.3-0.4,0.7-0.5,1.3h3.1
		c0-0.6-0.2-1-0.4-1.3C27.9,38.9,27.5,38.7,27,38.7z"/>
	<path class="st2" d="M43.7,45.5h-2.2v-4.8c0-0.6-0.1-1-0.3-1.3c-0.2-0.3-0.5-0.4-0.9-0.4c-0.6,0-1,0.2-1.2,0.6
		c-0.3,0.4-0.4,1.1-0.4,2.1v3.9h-2.2v-8.2h1.7l0.3,1h0.1c0.2-0.4,0.5-0.7,1-0.9c0.4-0.2,0.9-0.3,1.4-0.3c1.2,0,2.1,0.4,2.5,1.2h0.2
		c0.2-0.4,0.5-0.7,1-0.9s0.9-0.3,1.4-0.3c0.9,0,1.6,0.2,2.1,0.7c0.5,0.5,0.7,1.2,0.7,2.3v5.3h-2.2v-4.8c0-0.6-0.1-1-0.3-1.3
		c-0.2-0.3-0.5-0.4-0.9-0.4c-0.5,0-1,0.2-1.2,0.6c-0.3,0.4-0.4,1-0.4,1.9V45.5z"/>
	<path class="st2" d="M50,37.3h2.4l1.5,4.6c0.1,0.4,0.2,0.9,0.3,1.4h0c0.1-0.5,0.2-1,0.3-1.4l1.5-4.6h2.4L55,46.5
		c-0.3,0.9-0.8,1.5-1.4,1.9c-0.6,0.4-1.3,0.6-2.1,0.6c-0.4,0-0.8,0-1.1-0.1v-1.8c0.3,0.1,0.6,0.1,0.9,0.1c0.4,0,0.7-0.1,1-0.4
		c0.3-0.2,0.5-0.6,0.7-1.1l0.1-0.4L50,37.3z"/>
	<path class="st2" d="M69.8,34.8h2.3l-3.6,10.7H66l-3.6-10.7h2.3l2,6.4c0.1,0.4,0.2,0.8,0.3,1.3c0.1,0.5,0.2,0.8,0.2,1
		c0.1-0.4,0.2-1.2,0.5-2.4L69.8,34.8z"/>
	<path class="st2" d="M78.4,45.5l-0.4-1.1h-0.1c-0.4,0.5-0.8,0.8-1.2,1c-0.4,0.2-0.9,0.3-1.6,0.3c-0.8,0-1.4-0.2-1.9-0.7
		s-0.7-1.1-0.7-1.9c0-0.9,0.3-1.5,0.9-1.9c0.6-0.4,1.5-0.6,2.8-0.7l1.4,0V40c0-0.8-0.4-1.2-1.3-1.2c-0.7,0-1.4,0.2-2.3,0.6l-0.7-1.5
		c0.9-0.5,2-0.7,3.1-0.7c1.1,0,1.9,0.2,2.5,0.7s0.9,1.2,0.9,2.2v5.5H78.4z M77.7,41.7l-0.9,0c-0.6,0-1.1,0.1-1.4,0.4
		c-0.3,0.2-0.5,0.5-0.5,1c0,0.6,0.4,0.9,1.1,0.9c0.5,0,0.9-0.1,1.2-0.4c0.3-0.3,0.5-0.7,0.5-1.2V41.7z"/>
	<path class="st2" d="M84.5,45.5h-2.2V34.1h2.2V45.5z"/>
	<path class="st2" d="M90.5,45.6c-1.3,0-2.3-0.4-3.1-1.1c-0.7-0.7-1.1-1.8-1.1-3.1c0-1.4,0.3-2.4,1-3.2c0.7-0.8,1.6-1.1,2.8-1.1
		c1.2,0,2.1,0.3,2.7,1s1,1.6,1,2.7V42h-5.3c0,0.6,0.2,1.1,0.6,1.5S90,44,90.6,44c0.5,0,1-0.1,1.4-0.2s0.9-0.3,1.4-0.5v1.7
		c-0.4,0.2-0.8,0.3-1.3,0.4C91.7,45.6,91.1,45.6,90.5,45.6z M90.2,38.7c-0.5,0-0.8,0.2-1.1,0.5c-0.3,0.3-0.4,0.7-0.5,1.3h3.1
		c0-0.6-0.2-1-0.4-1.3C91,38.9,90.7,38.7,90.2,38.7z"/>
	<path class="st2" d="M103.2,45.5H101v-4.8c0-0.6-0.1-1-0.3-1.3c-0.2-0.3-0.5-0.4-1-0.4c-0.6,0-1.1,0.2-1.4,0.6
		c-0.3,0.4-0.4,1.1-0.4,2.1v3.9h-2.2v-8.2h1.7l0.3,1h0.1c0.2-0.4,0.6-0.7,1-0.9c0.4-0.2,0.9-0.3,1.5-0.3c1,0,1.7,0.3,2.2,0.8
		c0.5,0.5,0.7,1.3,0.7,2.2V45.5z"/>
	<path class="st2" d="M109,43.9c0.4,0,0.9-0.1,1.4-0.3v1.7c-0.6,0.2-1.2,0.4-2.1,0.4c-0.9,0-1.5-0.2-2-0.7c-0.4-0.5-0.6-1.1-0.6-2
		V39h-1.1V38l1.2-0.7l0.6-1.7h1.4v1.7h2.3V39H108v3.9c0,0.3,0.1,0.6,0.3,0.7C108.4,43.8,108.7,43.9,109,43.9z"/>
	<path class="st2" d="M111.9,35.2c0-0.7,0.4-1.1,1.2-1.1s1.2,0.4,1.2,1.1c0,0.3-0.1,0.6-0.3,0.8c-0.2,0.2-0.5,0.3-0.9,0.3
		C112.3,36.3,111.9,35.9,111.9,35.2z M114.3,45.5H112v-8.2h2.2V45.5z"/>
	<path class="st2" d="M124.2,45.5h-2.2v-4.8c0-0.6-0.1-1-0.3-1.3c-0.2-0.3-0.5-0.4-1-0.4c-0.6,0-1.1,0.2-1.4,0.6
		c-0.3,0.4-0.4,1.1-0.4,2.1v3.9h-2.2v-8.2h1.7l0.3,1h0.1c0.2-0.4,0.6-0.7,1-0.9c0.4-0.2,0.9-0.3,1.5-0.3c1,0,1.7,0.3,2.2,0.8
		c0.5,0.5,0.7,1.3,0.7,2.2V45.5z"/>
	<path class="st2" d="M130.2,45.6c-1.3,0-2.3-0.4-3.1-1.1c-0.7-0.7-1.1-1.8-1.1-3.1c0-1.4,0.3-2.4,1-3.2c0.7-0.8,1.6-1.1,2.8-1.1
		c1.2,0,2.1,0.3,2.7,1s1,1.6,1,2.7V42h-5.3c0,0.6,0.2,1.1,0.6,1.5s0.8,0.5,1.5,0.5c0.5,0,1-0.1,1.4-0.2s0.9-0.3,1.4-0.5v1.7
		c-0.4,0.2-0.8,0.3-1.3,0.4C131.4,45.6,130.8,45.6,130.2,45.6z M129.9,38.7c-0.5,0-0.8,0.2-1.1,0.5c-0.3,0.3-0.4,0.7-0.5,1.3h3.1
		c0-0.6-0.2-1-0.4-1.3C130.7,38.9,130.3,38.7,129.9,38.7z"/>
	<path class="st2" d="M145.7,42.5c0,1-0.3,1.7-1,2.3c-0.7,0.6-1.7,0.8-2.9,0.8c-1.1,0-2.2-0.2-3-0.6v-2.1c0.7,0.3,1.3,0.5,1.8,0.7
		c0.5,0.1,1,0.2,1.4,0.2c0.5,0,0.9-0.1,1.1-0.3c0.3-0.2,0.4-0.5,0.4-0.8c0-0.2-0.1-0.4-0.2-0.6c-0.1-0.2-0.3-0.3-0.5-0.5
		c-0.2-0.2-0.7-0.4-1.4-0.7c-0.7-0.3-1.1-0.6-1.5-0.9c-0.3-0.3-0.6-0.6-0.8-1s-0.3-0.8-0.3-1.3c0-0.9,0.3-1.7,1-2.2s1.5-0.8,2.7-0.8
		c0.6,0,1.1,0.1,1.6,0.2s1,0.3,1.6,0.6l-0.7,1.8c-0.6-0.2-1-0.4-1.4-0.5s-0.7-0.1-1.1-0.1c-0.4,0-0.8,0.1-1,0.3s-0.3,0.5-0.3,0.8
		c0,0.2,0,0.4,0.1,0.5c0.1,0.1,0.2,0.3,0.4,0.4c0.2,0.1,0.7,0.4,1.4,0.8c1,0.5,1.7,1,2.1,1.4C145.5,41.2,145.7,41.8,145.7,42.5z"/>
	<path class="st2" d="M152,45.6c-1,0-1.7-0.3-2.3-1h-0.1c0.1,0.7,0.1,1.1,0.1,1.2v3.3h-2.2V37.3h1.8l0.3,1.1h0.1
		c0.5-0.8,1.3-1.2,2.3-1.2c1,0,1.7,0.4,2.3,1.1s0.8,1.8,0.8,3.1c0,0.9-0.1,1.6-0.4,2.3s-0.6,1.1-1.1,1.5
		C153.2,45.5,152.6,45.6,152,45.6z M151.3,38.9c-0.6,0-1,0.2-1.2,0.5c-0.3,0.3-0.4,0.9-0.4,1.7v0.2c0,0.9,0.1,1.5,0.4,1.9
		s0.7,0.6,1.2,0.6c1,0,1.5-0.8,1.5-2.5c0-0.8-0.1-1.4-0.4-1.8C152.2,39.1,151.9,38.9,151.3,38.9z"/>
	<path class="st2" d="M160.7,45.6c-1.3,0-2.3-0.4-3.1-1.1c-0.7-0.7-1.1-1.8-1.1-3.1c0-1.4,0.3-2.4,1-3.2c0.7-0.8,1.6-1.1,2.8-1.1
		c1.2,0,2.1,0.3,2.7,1s1,1.6,1,2.7V42h-5.3c0,0.6,0.2,1.1,0.6,1.5s0.8,0.5,1.5,0.5c0.5,0,1-0.1,1.4-0.2s0.9-0.3,1.4-0.5v1.7
		c-0.4,0.2-0.8,0.3-1.3,0.4C161.9,45.6,161.3,45.6,160.7,45.6z M160.4,38.7c-0.5,0-0.8,0.2-1.1,0.5c-0.3,0.3-0.4,0.7-0.5,1.3h3.1
		c0-0.6-0.2-1-0.4-1.3C161.2,38.9,160.8,38.7,160.4,38.7z"/>
	<path class="st2" d="M169.2,45.6c-2.5,0-3.8-1.4-3.8-4.2c0-1.4,0.3-2.5,1-3.2c0.7-0.7,1.7-1.1,3-1.1c0.9,0,1.8,0.2,2.5,0.6
		l-0.7,1.7c-0.4-0.1-0.7-0.3-1-0.3c-0.3-0.1-0.6-0.1-0.9-0.1c-1.2,0-1.7,0.8-1.7,2.5c0,1.6,0.6,2.4,1.7,2.4c0.4,0,0.8-0.1,1.2-0.2
		c0.4-0.1,0.7-0.3,1.1-0.5V45c-0.4,0.2-0.7,0.4-1.1,0.5S169.7,45.6,169.2,45.6z"/>
	<path class="st2" d="M173.5,35.2c0-0.7,0.4-1.1,1.2-1.1s1.2,0.4,1.2,1.1c0,0.3-0.1,0.6-0.3,0.8c-0.2,0.2-0.5,0.3-0.9,0.3
		C173.9,36.3,173.5,35.9,173.5,35.2z M175.8,45.5h-2.2v-8.2h2.2V45.5z"/>
	<path class="st2" d="M183.3,45.5l-0.4-1.1h-0.1c-0.4,0.5-0.8,0.8-1.2,1c-0.4,0.2-0.9,0.3-1.6,0.3c-0.8,0-1.4-0.2-1.9-0.7
		s-0.7-1.1-0.7-1.9c0-0.9,0.3-1.5,0.9-1.9c0.6-0.4,1.5-0.6,2.8-0.7l1.4,0V40c0-0.8-0.4-1.2-1.3-1.2c-0.7,0-1.4,0.2-2.3,0.6l-0.7-1.5
		c0.9-0.5,2-0.7,3.1-0.7c1.1,0,1.9,0.2,2.5,0.7s0.9,1.2,0.9,2.2v5.5H183.3z M182.7,41.7l-0.9,0c-0.6,0-1.1,0.1-1.4,0.4
		c-0.3,0.2-0.5,0.5-0.5,1c0,0.6,0.4,0.9,1.1,0.9c0.5,0,0.9-0.1,1.2-0.4c0.3-0.3,0.5-0.7,0.5-1.2V41.7z"/>
	<path class="st2" d="M189.4,45.5h-2.2V34.1h2.2V45.5z"/>
	<path class="st2" d="M39.9,63.5h-1.3V56c0-0.7,0-1.3,0.1-1.8c-0.1,0.1-0.3,0.3-0.4,0.4c-0.5,0.4-1,0.9-1.6,1.3L35.9,55l2.9-2.2h1.1
		V63.5z"/>
	<path class="st2" d="M51,58.1c0,1.9-0.3,3.2-0.9,4.2s-1.5,1.4-2.7,1.4c-1.2,0-2-0.5-2.6-1.4c-0.6-0.9-0.9-2.3-0.9-4.1
		c0-1.9,0.3-3.2,0.9-4.2s1.5-1.4,2.7-1.4c1.2,0,2,0.5,2.7,1.4S51,56.3,51,58.1z M45.2,58.1c0,1.6,0.2,2.7,0.5,3.4
		c0.4,0.7,0.9,1,1.7,1c0.8,0,1.3-0.4,1.7-1.1c0.4-0.7,0.5-1.8,0.5-3.3c0-1.5-0.2-2.6-0.5-3.3c-0.4-0.7-0.9-1.1-1.7-1.1
		s-1.3,0.3-1.7,1C45.4,55.5,45.2,56.6,45.2,58.1z"/>
	<path class="st2" d="M59.6,58.1c0,1.9-0.3,3.2-0.9,4.2c-0.6,0.9-1.5,1.4-2.7,1.4c-1.2,0-2-0.5-2.6-1.4c-0.6-0.9-0.9-2.3-0.9-4.1
		c0-1.9,0.3-3.2,0.9-4.2c0.6-0.9,1.5-1.4,2.7-1.4c1.2,0,2,0.5,2.7,1.4C59.3,55,59.6,56.3,59.6,58.1z M53.8,58.1
		c0,1.6,0.2,2.7,0.5,3.4s0.9,1,1.7,1c0.8,0,1.3-0.4,1.7-1.1c0.4-0.7,0.5-1.8,0.5-3.3c0-1.5-0.2-2.6-0.5-3.3
		c-0.4-0.7-0.9-1.1-1.7-1.1s-1.3,0.3-1.7,1C54,55.5,53.8,56.6,53.8,58.1z"/>
	<path class="st2" d="M68.2,58.1c0,1.9-0.3,3.2-0.9,4.2c-0.6,0.9-1.5,1.4-2.7,1.4c-1.2,0-2-0.5-2.6-1.4c-0.6-0.9-0.9-2.3-0.9-4.1
		c0-1.9,0.3-3.2,0.9-4.2c0.6-0.9,1.5-1.4,2.7-1.4c1.2,0,2,0.5,2.7,1.4C67.9,55,68.2,56.3,68.2,58.1z M62.4,58.1
		c0,1.6,0.2,2.7,0.5,3.4c0.4,0.7,0.9,1,1.7,1c0.8,0,1.3-0.4,1.7-1.1c0.4-0.7,0.5-1.8,0.5-3.3c0-1.5-0.2-2.6-0.5-3.3
		s-0.9-1.1-1.7-1.1s-1.3,0.3-1.7,1C62.6,55.5,62.4,56.6,62.4,58.1z"/>
	<path class="st2" d="M78.9,57.8h3.7v5.3c-0.6,0.2-1.1,0.3-1.7,0.4c-0.6,0.1-1.3,0.1-2,0.1c-1.6,0-2.9-0.5-3.8-1.5s-1.3-2.3-1.3-4
		c0-1.1,0.2-2.1,0.7-2.9c0.4-0.8,1.1-1.5,1.9-1.9c0.8-0.4,1.8-0.7,3-0.7c1.1,0,2.2,0.2,3.2,0.6l-0.5,1.2c-0.9-0.4-1.9-0.6-2.8-0.6
		c-1.3,0-2.3,0.4-3,1.2s-1.1,1.8-1.1,3.2c0,1.4,0.3,2.5,1,3.2s1.7,1.1,3,1.1c0.7,0,1.4-0.1,2.1-0.3V59h-2.4V57.8z"/>
	<path class="st2" d="M84.9,53.3c0-0.3,0.1-0.5,0.2-0.6s0.3-0.2,0.6-0.2c0.2,0,0.4,0.1,0.5,0.2s0.2,0.3,0.2,0.6
		c0,0.3-0.1,0.5-0.2,0.6s-0.3,0.2-0.5,0.2c-0.2,0-0.4-0.1-0.6-0.2S84.9,53.6,84.9,53.3z M86.3,63.5H85v-8h1.3V63.5z"/>
	<path class="st2" d="M92.6,56.5h-2v7h-1.3v-7h-1.4v-0.6l1.4-0.5V55c0-1,0.2-1.7,0.6-2.2s1.1-0.7,2-0.7c0.5,0,1,0.1,1.6,0.3l-0.4,1
		c-0.5-0.1-0.9-0.2-1.2-0.2c-0.4,0-0.8,0.1-1,0.4s-0.3,0.8-0.3,1.4v0.5h2V56.5z"/>
	<path class="st2" d="M96.7,62.6c0.2,0,0.4,0,0.6-0.1c0.2,0,0.4-0.1,0.5-0.1v1c-0.1,0.1-0.3,0.1-0.6,0.2c-0.3,0.1-0.5,0.1-0.8,0.1
		c-1.6,0-2.4-0.8-2.4-2.5v-4.7H93v-0.6l1.2-0.5l0.5-1.7h0.8v1.8h2.3v1h-2.3v4.6c0,0.5,0.1,0.8,0.3,1.1C96,62.4,96.3,62.6,96.7,62.6z
		"/>
	<path class="st2" d="M106.5,63.5h-3.9v-0.8l1.3-0.3v-8.6l-1.3-0.3v-0.8h3.9v0.8l-1.3,0.3v8.6l1.3,0.3V63.5z"/>
	<path class="st2" d="M111.3,63.6c-1,0-1.9-0.4-2.4-1.1s-0.9-1.7-0.9-3.1c0-1.3,0.3-2.3,0.9-3.1c0.6-0.7,1.4-1.1,2.4-1.1
		c1.1,0,1.9,0.4,2.5,1.2h0.1c0-0.1,0-0.3-0.1-0.6c0-0.3,0-0.5,0-0.6v-3.2h1.3v11.4H114l-0.2-1.1h-0.1
		C113.2,63.2,112.4,63.6,111.3,63.6z M111.5,62.6c0.8,0,1.4-0.2,1.8-0.7c0.4-0.4,0.6-1.2,0.6-2.1v-0.2c0-1.1-0.2-1.9-0.6-2.4
		c-0.4-0.5-1-0.7-1.8-0.7c-0.7,0-1.2,0.3-1.6,0.8c-0.4,0.5-0.6,1.3-0.6,2.3c0,1,0.2,1.8,0.6,2.3C110.2,62.3,110.8,62.6,111.5,62.6z"
		/>
	<path class="st2" d="M121.1,63.6c-1.2,0-2.2-0.4-2.8-1.1c-0.7-0.7-1-1.7-1-3c0-1.3,0.3-2.3,1-3.1c0.6-0.8,1.5-1.1,2.6-1.1
		c1,0,1.8,0.3,2.4,1c0.6,0.7,0.9,1.5,0.9,2.6v0.8h-5.5c0,0.9,0.3,1.6,0.7,2.1s1.1,0.7,1.9,0.7c0.4,0,0.8,0,1.2-0.1
		c0.4-0.1,0.8-0.2,1.4-0.4v1.2c-0.4,0.2-0.9,0.3-1.3,0.4S121.6,63.6,121.1,63.6z M120.7,56.4c-0.6,0-1.1,0.2-1.5,0.6
		c-0.4,0.4-0.6,1-0.7,1.7h4.1c0-0.8-0.2-1.3-0.5-1.7S121.3,56.4,120.7,56.4z"/>
	<path class="st2" d="M131.1,63.5l-0.3-1.1h-0.1c-0.4,0.5-0.8,0.8-1.2,1c-0.4,0.2-0.9,0.3-1.5,0.3c-0.8,0-1.4-0.2-1.9-0.6
		c-0.4-0.4-0.7-1-0.7-1.8c0-1.6,1.3-2.5,3.9-2.6l1.4-0.1v-0.5c0-0.6-0.1-1.1-0.4-1.4c-0.3-0.3-0.7-0.4-1.3-0.4
		c-0.4,0-0.8,0.1-1.2,0.2c-0.4,0.1-0.7,0.3-1.1,0.4l-0.4-1c0.4-0.2,0.8-0.4,1.3-0.5c0.5-0.1,1-0.2,1.4-0.2c1,0,1.7,0.2,2.2,0.6
		s0.7,1.1,0.7,2.1v5.5H131.1z M128.3,62.6c0.7,0,1.3-0.2,1.7-0.6c0.4-0.4,0.6-1,0.6-1.7v-0.7l-1.2,0.1c-0.9,0-1.6,0.2-2,0.4
		s-0.6,0.7-0.6,1.2c0,0.4,0.1,0.7,0.4,1C127.5,62.5,127.9,62.6,128.3,62.6z"/>
	<path class="st2" d="M139.8,61.3c0,0.8-0.3,1.3-0.8,1.7c-0.6,0.4-1.4,0.6-2.4,0.6c-1.1,0-1.9-0.2-2.5-0.5v-1.2
		c0.9,0.4,1.7,0.6,2.6,0.6c0.7,0,1.1-0.1,1.5-0.3c0.3-0.2,0.5-0.5,0.5-0.9c0-0.3-0.1-0.6-0.4-0.8c-0.3-0.2-0.8-0.5-1.5-0.8
		c-0.8-0.3-1.3-0.5-1.6-0.8c-0.3-0.2-0.5-0.4-0.7-0.7c-0.1-0.3-0.2-0.6-0.2-0.9c0-0.7,0.3-1.2,0.8-1.6s1.3-0.6,2.2-0.6
		c0.9,0,1.8,0.2,2.6,0.5l-0.4,1c-0.8-0.3-1.6-0.5-2.2-0.5c-0.5,0-1,0.1-1.2,0.3c-0.3,0.2-0.4,0.4-0.4,0.7c0,0.3,0.1,0.5,0.4,0.7
		c0.2,0.2,0.8,0.5,1.7,0.8c0.7,0.3,1.2,0.5,1.5,0.7c0.3,0.2,0.6,0.5,0.7,0.7C139.7,60.6,139.8,60.9,139.8,61.3z"/>
	<path class="st2" d="M153.9,52.8v6.9c0,1.2-0.4,2.2-1.1,2.9s-1.8,1-3.1,1c-1.3,0-2.3-0.4-3-1.1c-0.7-0.7-1.1-1.7-1.1-2.9v-6.9h1.4
		v6.9c0,0.9,0.2,1.6,0.7,2c0.5,0.5,1.2,0.7,2.1,0.7c0.9,0,1.6-0.2,2-0.7c0.5-0.5,0.7-1.2,0.7-2.1v-6.9H153.9z"/>
	<path class="st2" d="M160.4,63.6c-1.1,0-1.9-0.4-2.5-1.2h-0.1l0,0.3c0,0.4,0.1,0.7,0.1,1v3.3h-1.3V55.5h1.1l0.2,1.1h0.1
		c0.3-0.4,0.7-0.8,1.1-1s0.9-0.3,1.4-0.3c1,0,1.9,0.4,2.4,1.1c0.6,0.7,0.9,1.7,0.9,3.1c0,1.3-0.3,2.3-0.9,3.1
		C162.2,63.3,161.4,63.6,160.4,63.6z M160.1,56.4c-0.8,0-1.4,0.2-1.7,0.7c-0.4,0.4-0.5,1.2-0.5,2.1v0.3c0,1.1,0.2,1.9,0.5,2.4
		c0.4,0.5,0.9,0.7,1.8,0.7c0.7,0,1.2-0.3,1.6-0.8c0.4-0.5,0.6-1.3,0.6-2.3c0-1-0.2-1.7-0.6-2.3C161.4,56.7,160.8,56.4,160.1,56.4z"
		/>
	<path class="st2" d="M69.8,80.6c0.2,0,0.4,0,0.6-0.1c0.2,0,0.4-0.1,0.5-0.1v1c-0.1,0.1-0.3,0.1-0.6,0.2c-0.3,0.1-0.5,0.1-0.8,0.1
		c-1.6,0-2.4-0.8-2.4-2.5v-4.7h-1.1v-0.6l1.2-0.5l0.5-1.7h0.8v1.8h2.3v1h-2.3v4.6c0,0.5,0.1,0.8,0.3,1.1
		C69.1,80.4,69.4,80.6,69.8,80.6z"/>
	<path class="st2" d="M79.5,77.5c0,1.3-0.3,2.3-1,3.1s-1.6,1.1-2.8,1.1c-0.7,0-1.4-0.2-1.9-0.5c-0.6-0.3-1-0.8-1.3-1.5
		c-0.3-0.6-0.5-1.4-0.5-2.2c0-1.3,0.3-2.3,1-3.1c0.7-0.7,1.6-1.1,2.8-1.1c1.1,0,2,0.4,2.7,1.1C79.2,75.2,79.5,76.2,79.5,77.5z
		 M73.5,77.5c0,1,0.2,1.8,0.6,2.3c0.4,0.5,1,0.8,1.8,0.8c0.8,0,1.4-0.3,1.8-0.8c0.4-0.5,0.6-1.3,0.6-2.3c0-1-0.2-1.8-0.6-2.3
		c-0.4-0.5-1-0.8-1.8-0.8C74.2,74.4,73.5,75.4,73.5,77.5z"/>
	<path class="st2" d="M86.3,81.5l4.4-9.5h-5.8v-1.2h7.2v1l-4.3,9.7H86.3z"/>
	<path class="st2" d="M100.7,76.1c0,1.9-0.3,3.2-0.9,4.2c-0.6,0.9-1.5,1.4-2.7,1.4c-1.2,0-2-0.5-2.6-1.4c-0.6-0.9-0.9-2.3-0.9-4.1
		c0-1.9,0.3-3.2,0.9-4.2c0.6-0.9,1.5-1.4,2.7-1.4c1.2,0,2,0.5,2.7,1.4C100.4,73,100.7,74.3,100.7,76.1z M94.9,76.1
		c0,1.6,0.2,2.7,0.5,3.4c0.4,0.7,0.9,1,1.7,1c0.8,0,1.3-0.4,1.7-1.1c0.4-0.7,0.5-1.8,0.5-3.3c0-1.5-0.2-2.6-0.5-3.3
		s-0.9-1.1-1.7-1.1s-1.3,0.3-1.7,1C95,73.5,94.9,74.6,94.9,76.1z"/>
	<path class="st2" d="M106.6,74c0,1.1-0.2,2-0.6,2.5c-0.4,0.6-0.9,0.9-1.7,0.9c-0.7,0-1.2-0.3-1.6-0.9c-0.4-0.6-0.6-1.4-0.6-2.5
		c0-1.1,0.2-2,0.6-2.5c0.4-0.6,0.9-0.8,1.6-0.8c0.7,0,1.3,0.3,1.7,0.9C106.4,72.1,106.6,72.9,106.6,74z M103.2,74
		c0,0.8,0.1,1.4,0.3,1.8c0.2,0.4,0.5,0.6,0.8,0.6c0.8,0,1.2-0.8,1.2-2.4c0-1.6-0.4-2.4-1.2-2.4c-0.4,0-0.7,0.2-0.8,0.6
		C103.3,72.6,103.2,73.2,103.2,74z M111.2,70.8l-5.9,10.7h-1.1l5.9-10.7H111.2z M113.1,78.3c0,1.1-0.2,1.9-0.6,2.5
		c-0.4,0.6-0.9,0.9-1.7,0.9c-0.7,0-1.2-0.3-1.6-0.9c-0.4-0.6-0.6-1.4-0.6-2.5c0-1.1,0.2-2,0.6-2.5s0.9-0.8,1.6-0.8s1.3,0.3,1.7,0.9
		C112.9,76.4,113.1,77.2,113.1,78.3z M109.8,78.3c0,0.8,0.1,1.4,0.3,1.8c0.2,0.4,0.5,0.6,0.8,0.6c0.4,0,0.7-0.2,0.9-0.6
		c0.2-0.4,0.3-1,0.3-1.8c0-1.6-0.4-2.4-1.2-2.4c-0.4,0-0.7,0.2-0.8,0.6C109.9,76.9,109.8,77.5,109.8,78.3z"/>
	<path class="st2" d="M126,77.5c0,1.3-0.3,2.3-1,3.1s-1.6,1.1-2.8,1.1c-0.7,0-1.4-0.2-1.9-0.5c-0.6-0.3-1-0.8-1.3-1.5
		c-0.3-0.6-0.5-1.4-0.5-2.2c0-1.3,0.3-2.3,1-3.1c0.7-0.7,1.6-1.1,2.8-1.1c1.1,0,2,0.4,2.7,1.1C125.7,75.2,126,76.2,126,77.5z
		 M119.9,77.5c0,1,0.2,1.8,0.6,2.3c0.4,0.5,1,0.8,1.8,0.8c0.8,0,1.3-0.3,1.8-0.8c0.4-0.5,0.6-1.3,0.6-2.3c0-1-0.2-1.8-0.6-2.3
		c-0.4-0.5-1-0.8-1.8-0.8C120.7,74.4,119.9,75.4,119.9,77.5z"/>
	<path class="st2" d="M131.8,74.5h-2v7h-1.3v-7h-1.4v-0.6l1.4-0.5V73c0-1,0.2-1.7,0.6-2.2c0.4-0.5,1.1-0.7,2-0.7
		c0.5,0,1,0.1,1.6,0.3l-0.4,1c-0.5-0.1-0.9-0.2-1.2-0.2c-0.4,0-0.8,0.1-1,0.4s-0.3,0.8-0.3,1.4v0.5h2V74.5z"/>
	<path class="st2" d="M137,74.5h-2v7h-1.3v-7h-1.4v-0.6l1.4-0.5V73c0-1,0.2-1.7,0.6-2.2c0.4-0.5,1.1-0.7,2-0.7c0.5,0,1,0.1,1.6,0.3
		l-0.4,1c-0.5-0.1-0.9-0.2-1.2-0.2c-0.4,0-0.8,0.1-1,0.4s-0.3,0.8-0.3,1.4v0.5h2V74.5z"/>
</g>
<path class="st3" d="M126.6,130.1c0-0.3,0-0.5,0-0.5c0-5.5-4.5-10-10-10c-5.5,0-10,4.5-10,10c0-5.5-4.5-10-10-10
	c-5.5,0-10,4.5-10,10c0,0,0,0.2,0,0.5c0,0.7,0.1,1.3,0.3,2c0.9,4.5,4.7,13.8,19.7,16.8c15-3,18.8-12.3,19.7-16.8
	C126.5,131.4,126.6,130.8,126.6,130.1z"/>
<g>
	<g>
		<path d="M29.6,154.6h1.8l-2.9,8.6h-2l-2.9-8.6h1.8l1.6,5.1c0.1,0.3,0.2,0.7,0.3,1.1s0.2,0.7,0.2,0.8c0-0.4,0.2-1,0.4-1.9
			L29.6,154.6z"/>
		<path d="M36.4,163.2l-0.3-0.9h0c-0.3,0.4-0.6,0.6-0.9,0.8s-0.7,0.2-1.2,0.2c-0.6,0-1.1-0.2-1.5-0.5s-0.5-0.9-0.5-1.5
			c0-0.7,0.2-1.2,0.7-1.5s1.2-0.5,2.2-0.5l1.1,0v-0.3c0-0.7-0.3-1-1-1c-0.5,0-1.1,0.2-1.8,0.5l-0.6-1.2c0.8-0.4,1.6-0.6,2.5-0.6
			c0.9,0,1.6,0.2,2,0.6s0.7,1,0.7,1.7v4.4H36.4z M35.9,160.1l-0.7,0c-0.5,0-0.9,0.1-1.2,0.3s-0.4,0.4-0.4,0.8c0,0.5,0.3,0.8,0.9,0.8
			c0.4,0,0.7-0.1,1-0.4s0.4-0.6,0.4-0.9V160.1z"/>
		<path d="M41.3,163.2h-1.8v-9.1h1.8V163.2z"/>
		<path d="M46.1,163.3c-1.1,0-1.9-0.3-2.5-0.9s-0.9-1.4-0.9-2.5c0-1.1,0.3-1.9,0.8-2.5s1.3-0.9,2.3-0.9c0.9,0,1.6,0.3,2.2,0.8
			s0.8,1.3,0.8,2.2v0.9h-4.2c0,0.5,0.2,0.9,0.5,1.2s0.7,0.4,1.2,0.4c0.4,0,0.8,0,1.1-0.1s0.7-0.2,1.1-0.4v1.4
			c-0.3,0.2-0.6,0.3-1,0.3S46.6,163.3,46.1,163.3z M45.9,157.8c-0.4,0-0.7,0.1-0.9,0.4s-0.3,0.6-0.4,1h2.5c0-0.4-0.1-0.8-0.3-1
			S46.2,157.8,45.9,157.8z"/>
		<path d="M56.3,163.2h-1.8v-3.8c0-0.5-0.1-0.8-0.3-1.1s-0.4-0.4-0.8-0.4c-0.5,0-0.9,0.2-1.1,0.5s-0.3,0.9-0.3,1.7v3.1h-1.8v-6.6
			h1.4l0.2,0.8h0.1c0.2-0.3,0.5-0.6,0.8-0.7s0.7-0.2,1.2-0.2c0.8,0,1.3,0.2,1.7,0.6s0.6,1,0.6,1.8V163.2z"/>
		<path d="M60.9,161.9c0.3,0,0.7-0.1,1.1-0.2v1.3c-0.4,0.2-1,0.3-1.6,0.3c-0.7,0-1.2-0.2-1.6-0.5s-0.5-0.9-0.5-1.6V158h-0.9v-0.8
			l1-0.6l0.5-1.4h1.1v1.4h1.8v1.3h-1.8v3.2c0,0.3,0.1,0.4,0.2,0.6S60.6,161.9,60.9,161.9z"/>
		<path d="M63.3,154.9c0-0.6,0.3-0.9,1-0.9s1,0.3,1,0.9c0,0.3-0.1,0.5-0.2,0.6s-0.4,0.2-0.7,0.2C63.6,155.8,63.3,155.5,63.3,154.9z
			 M65.1,163.2h-1.8v-6.6h1.8V163.2z"/>
		<path d="M73,163.2h-1.8v-3.8c0-0.5-0.1-0.8-0.3-1.1s-0.4-0.4-0.8-0.4c-0.5,0-0.9,0.2-1.1,0.5s-0.3,0.9-0.3,1.7v3.1H67v-6.6h1.4
			l0.2,0.8h0.1c0.2-0.3,0.5-0.6,0.8-0.7s0.7-0.2,1.2-0.2c0.8,0,1.3,0.2,1.7,0.6s0.6,1,0.6,1.8V163.2z"/>
		<path d="M77.8,163.3c-1.1,0-1.9-0.3-2.5-0.9s-0.9-1.4-0.9-2.5c0-1.1,0.3-1.9,0.8-2.5s1.3-0.9,2.3-0.9c0.9,0,1.6,0.3,2.2,0.8
			s0.8,1.3,0.8,2.2v0.9h-4.2c0,0.5,0.2,0.9,0.5,1.2s0.7,0.4,1.2,0.4c0.4,0,0.8,0,1.1-0.1s0.7-0.2,1.1-0.4v1.4
			c-0.3,0.2-0.6,0.3-1,0.3S78.4,163.3,77.8,163.3z M77.6,157.8c-0.4,0-0.7,0.1-0.9,0.4s-0.3,0.6-0.4,1h2.5c0-0.4-0.1-0.8-0.3-1
			S78,157.8,77.6,157.8z"/>
		<path d="M83.4,154.6l-0.2,3.1H82l-0.2-3.1H83.4z"/>
		<path d="M89.5,161.2c0,0.7-0.2,1.2-0.7,1.5s-1.2,0.5-2.1,0.5c-0.5,0-0.9,0-1.2-0.1s-0.7-0.2-0.9-0.3v-1.5c0.3,0.2,0.7,0.3,1.1,0.4
			s0.8,0.2,1.1,0.2c0.6,0,1-0.2,1-0.6c0-0.1,0-0.3-0.1-0.3s-0.2-0.2-0.4-0.3s-0.5-0.2-0.8-0.4c-0.5-0.2-0.9-0.4-1.1-0.6
			s-0.4-0.4-0.5-0.6s-0.2-0.5-0.2-0.9c0-0.6,0.2-1,0.7-1.4s1.1-0.5,1.9-0.5c0.8,0,1.6,0.2,2.3,0.5l-0.5,1.3
			c-0.3-0.1-0.6-0.3-0.9-0.3s-0.6-0.1-0.9-0.1c-0.5,0-0.8,0.1-0.8,0.4c0,0.2,0.1,0.3,0.3,0.4s0.5,0.3,1.1,0.5
			c0.5,0.2,0.9,0.4,1.1,0.6s0.4,0.4,0.5,0.6S89.5,160.9,89.5,161.2z"/>
		<path d="M101.3,158.8c0,1.4-0.4,2.5-1.2,3.2s-2,1.1-3.5,1.1h-2.4v-8.6h2.7c1.4,0,2.5,0.4,3.3,1.1S101.3,157.5,101.3,158.8z
			 M99.4,158.9c0-1.8-0.8-2.8-2.4-2.8h-1v5.6h0.8C98.5,161.7,99.4,160.7,99.4,158.9z"/>
		<path d="M107,163.2l-0.3-0.9h0c-0.3,0.4-0.6,0.6-0.9,0.8s-0.7,0.2-1.2,0.2c-0.6,0-1.1-0.2-1.5-0.5s-0.5-0.9-0.5-1.5
			c0-0.7,0.2-1.2,0.7-1.5s1.2-0.5,2.2-0.5l1.1,0v-0.3c0-0.7-0.3-1-1-1c-0.5,0-1.1,0.2-1.8,0.5l-0.6-1.2c0.8-0.4,1.6-0.6,2.5-0.6
			c0.9,0,1.6,0.2,2,0.6s0.7,1,0.7,1.7v4.4H107z M106.5,160.1l-0.7,0c-0.5,0-0.9,0.1-1.2,0.3s-0.4,0.4-0.4,0.8c0,0.5,0.3,0.8,0.9,0.8
			c0.4,0,0.7-0.1,1-0.4s0.4-0.6,0.4-0.9V160.1z"/>
		<path d="M109.2,156.6h2l1.2,3.7c0.1,0.3,0.2,0.7,0.2,1.1h0c0-0.4,0.1-0.8,0.3-1.1l1.2-3.7h1.9l-2.8,7.4c-0.3,0.7-0.6,1.2-1.1,1.5
			s-1,0.5-1.6,0.5c-0.3,0-0.6,0-0.9-0.1v-1.4c0.2,0.1,0.4,0.1,0.7,0.1c0.3,0,0.6-0.1,0.8-0.3s0.4-0.5,0.6-0.9l0.1-0.3L109.2,156.6z"
			/>
		<path d="M123.5,158.4h3.4v4.4c-0.6,0.2-1.1,0.3-1.6,0.4s-1,0.1-1.5,0.1c-1.3,0-2.3-0.4-3-1.1s-1-1.9-1-3.3c0-1.4,0.4-2.5,1.2-3.2
			s1.9-1.2,3.3-1.2c0.9,0,1.7,0.2,2.5,0.5l-0.6,1.5c-0.6-0.3-1.3-0.5-2-0.5c-0.8,0-1.4,0.3-1.9,0.8s-0.7,1.2-0.7,2.1
			c0,0.9,0.2,1.6,0.6,2.1s0.9,0.7,1.7,0.7c0.4,0,0.8,0,1.2-0.1v-1.8h-1.6V158.4z"/>
		<path d="M128.7,154.9c0-0.6,0.3-0.9,1-0.9s1,0.3,1,0.9c0,0.3-0.1,0.5-0.2,0.6s-0.4,0.2-0.7,0.2C129,155.8,128.7,155.5,128.7,154.9
			z M130.6,163.2h-1.8v-6.6h1.8V163.2z"/>
		<path d="M136.1,158h-1.5v5.2h-1.8V158h-1v-0.9l1-0.5v-0.5c0-0.7,0.2-1.3,0.6-1.6s1-0.5,1.8-0.5c0.6,0,1.2,0.1,1.6,0.3l-0.5,1.3
			c-0.4-0.1-0.7-0.2-1-0.2c-0.3,0-0.4,0.1-0.6,0.2s-0.2,0.3-0.2,0.6v0.4h1.5V158z"/>
		<path d="M139.8,161.9c0.3,0,0.7-0.1,1.1-0.2v1.3c-0.4,0.2-1,0.3-1.6,0.3c-0.7,0-1.2-0.2-1.6-0.5s-0.5-0.9-0.5-1.6V158h-0.9v-0.8
			l1-0.6l0.5-1.4h1.1v1.4h1.8v1.3h-1.8v3.2c0,0.3,0.1,0.4,0.2,0.6S139.6,161.9,139.8,161.9z"/>
		<path d="M148.8,158.4h3.4v4.4c-0.6,0.2-1.1,0.3-1.6,0.4s-1,0.1-1.5,0.1c-1.3,0-2.3-0.4-3-1.1s-1-1.9-1-3.3c0-1.4,0.4-2.5,1.2-3.2
			s1.9-1.2,3.3-1.2c0.9,0,1.7,0.2,2.5,0.5l-0.6,1.5c-0.6-0.3-1.3-0.5-2-0.5c-0.8,0-1.4,0.3-1.9,0.8s-0.7,1.2-0.7,2.1
			c0,0.9,0.2,1.6,0.6,2.1s0.9,0.7,1.7,0.7c0.4,0,0.8,0,1.2-0.1v-1.8h-1.6V158.4z"/>
		<path d="M158.7,163.2l-0.2-0.8h-0.1c-0.2,0.3-0.5,0.5-0.8,0.7s-0.8,0.2-1.2,0.2c-0.8,0-1.3-0.2-1.7-0.6s-0.6-1-0.6-1.8v-4.3h1.8
			v3.8c0,0.5,0.1,0.8,0.3,1.1s0.4,0.4,0.8,0.4c0.5,0,0.9-0.2,1.1-0.5s0.3-0.9,0.3-1.7v-3.1h1.8v6.6H158.7z"/>
		<path d="M161.9,154.9c0-0.6,0.3-0.9,1-0.9s1,0.3,1,0.9c0,0.3-0.1,0.5-0.2,0.6s-0.4,0.2-0.7,0.2
			C162.2,155.8,161.9,155.5,161.9,154.9z M163.8,163.2H162v-6.6h1.8V163.2z"/>
		<path d="M167.7,163.3c-0.8,0-1.4-0.3-1.8-0.9s-0.7-1.4-0.7-2.5c0-1.1,0.2-1.9,0.7-2.5s1.1-0.9,1.8-0.9c0.8,0,1.5,0.3,1.9,1h0.1
			c-0.1-0.5-0.1-0.9-0.1-1.3v-2.1h1.8v9.1H170l-0.3-0.8h-0.1C169.2,163,168.5,163.3,167.7,163.3z M168.3,161.9c0.5,0,0.8-0.1,1-0.4
			s0.3-0.7,0.3-1.4v-0.2c0-0.7-0.1-1.2-0.3-1.5s-0.6-0.5-1.1-0.5c-0.4,0-0.7,0.2-0.9,0.5s-0.3,0.8-0.3,1.5s0.1,1.1,0.3,1.5
			S167.9,161.9,168.3,161.9z"/>
		<path d="M176.2,163.3c-1.1,0-1.9-0.3-2.5-0.9s-0.9-1.4-0.9-2.5c0-1.1,0.3-1.9,0.8-2.5s1.3-0.9,2.3-0.9c0.9,0,1.6,0.3,2.2,0.8
			s0.8,1.3,0.8,2.2v0.9h-4.2c0,0.5,0.2,0.9,0.5,1.2s0.7,0.4,1.2,0.4c0.4,0,0.8,0,1.1-0.1s0.7-0.2,1.1-0.4v1.4
			c-0.3,0.2-0.6,0.3-1,0.3S176.7,163.3,176.2,163.3z M175.9,157.8c-0.4,0-0.7,0.1-0.9,0.4s-0.3,0.6-0.4,1h2.5c0-0.4-0.1-0.8-0.3-1
			S176.3,157.8,175.9,157.8z"/>
	</g>
</g>
</svg>