<!-- Generator: Adobe Illustrator 19.1.0, SVG Export Plug-In  -->
<svg version="1.1"
	 xmlns="http://www.w3.org/2000/svg" xmlns:xlink="http://www.w3.org/1999/xlink" xmlns:a="http://ns.adobe.com/AdobeSVGViewerExtensions/3.0/"
	 x="0px" y="0px" width="780.1px" height="540.4px" viewBox="0 0 780.1 540.4"
	 style="overflow:scroll;enable-background:new 0 0 780.1 540.4;" xml:space="preserve">
<style type="text/css">
	.st0{fill:#E3E3E3;stroke:#E3E3E3;stroke-width:2.0919;stroke-miterlimit:10;}
	.st1{fill:#9D9FA0;}
	.st2{fill:#ED6A4A;}
	.st3{fill:#086A87;stroke:#086A87;stroke-width:1.81;stroke-linecap:round;stroke-linejoin:round;stroke-miterlimit:10;}
	.st4{fill:#33CCCC;}
	.st5{fill:none;stroke:#ED6A4A;stroke-width:7.4568;stroke-miterlimit:10;}
	.st6{fill:#FF6633;}
	.st7{fill:none;stroke:#ED6A4A;stroke-width:7.3184;stroke-miterlimit:10;}
	.st8{fill:#086A87;stroke:#086A87;stroke-width:2.2793;stroke-linecap:round;stroke-linejoin:round;stroke-miterlimit:10;}
	.st9{fill:#E3E3E3;stroke:#FFFFFF;stroke-width:4;stroke-miterlimit:10;}
	.st10{fill:#086A87;stroke:#086A87;stroke-width:2.3031;stroke-linecap:round;stroke-linejoin:round;stroke-miterlimit:10;}
	.st11{fill:#FFFFFF;stroke:#ED6A4A;stroke-width:2.3031;stroke-miterlimit:10;}
	.st12{fill:#FFFFFF;}
</style>
<defs>
</defs>
<rect x="3.7" y="143.9" class="st0" width="277.6" height="392.7"/>
<rect x="281.3" y="444.1" class="st1" width="400.3" height="66.3"/>
<rect x="281.3" y="355.5" class="st2" width="379.6" height="66.3"/>
<rect x="281.3" y="268.7" class="st3" width="444.1" height="66.3"/>
<rect x="281.3" y="177.9" class="st4" width="416.4" height="66.3"/>
<rect x="3.7" y="153.1" class="st5" width="771.4" height="383.6"/>
<g>
	<line class="st4" x1="47.3" y1="216.4" x2="56.3" y2="225.3"/>
	<line class="st4" x1="56.3" y1="216.4" x2="47.3" y2="225.3"/>
</g>
<polygon class="st6" points="694.6,528.8 694.6,463 763.1,463 "/>
<line class="st7" x1="281.3" y1="153.1" x2="281.3" y2="536.7"/>
<rect x="1.3" y="29.1" class="st8" width="777.6" height="130"/>
<path class="st9" d="M144.5,52.9h-3.1c-5.7,0-10.3-4.6-10.3-10.3V12.3c0-5.7,4.6-10.3,10.3-10.3h3.1c5.7,0,10.3,4.6,10.3,10.3v30.4
	C154.8,48.3,150.1,52.9,144.5,52.9z"/>
<path class="st9" d="M659.1,52.9H656c-5.7,0-10.3-4.6-10.3-10.3V12.3C645.7,6.6,650.3,2,656,2h3.1c5.7,0,10.3,4.6,10.3,10.3v30.4
	C669.4,48.3,664.8,52.9,659.1,52.9z"/>
<g>
	<circle class="st10" cx="141.7" cy="350.5" r="112.5"/>
	<circle class="st11" cx="141.7" cy="350.5" r="91.8"/>
	<polyline class="st11" points="141.7,290.7 141.7,350.5 185.1,350.5 	"/>
	<rect x="121.3" y="222.2" class="st10" width="42.2" height="21.7"/>
	<rect x="110.7" y="198" class="st10" width="62" height="24.2"/>
	<rect x="141.7" y="198" class="st4" width="13.1" height="24.2"/>
	<rect x="153" y="198" class="st12" width="6.5" height="24.2"/>
</g>
<g>
	<g>
		<path class="st12" d="M304.3,219.8l-4.9-16h-0.1c0.2,3.2,0.3,5.4,0.3,6.5v9.5h-3.9v-20.3h5.9l4.8,15.6h0.1l5.1-15.6h5.9v20.3h-4
			v-9.6c0-0.5,0-1,0-1.6s0.1-2.2,0.2-4.7h-0.1l-5.2,15.9H304.3z"/>
		<path class="st12" d="M336.4,212c0,2.5-0.7,4.5-2,5.9s-3.2,2.1-5.6,2.1c-1.5,0-2.8-0.3-4-1c-1.1-0.7-2-1.6-2.6-2.8
			s-0.9-2.7-0.9-4.3c0-2.5,0.7-4.5,2-5.9c1.3-1.4,3.2-2.1,5.6-2.1c1.5,0,2.8,0.3,4,1s2,1.6,2.6,2.8
			C336.1,208.9,336.4,210.4,336.4,212z M334,202.5h-2c-1.3-0.7-2.4-1.4-3.2-2.1c-0.8,0.7-1.8,1.4-3.2,2.1h-2v-0.4
			c1.6-1.5,2.7-2.7,3.3-3.6h3.8c0.4,0.6,1,1.3,1.6,1.9c0.6,0.6,1.2,1.2,1.7,1.7V202.5z M330.9,197.7c-0.4,0-0.8-0.1-1.2-0.2
			c-0.4-0.1-0.7-0.3-1.1-0.4c-0.3-0.2-0.6-0.3-0.9-0.4s-0.6-0.2-0.8-0.2c-0.4,0-0.7,0.1-0.9,0.3c-0.2,0.2-0.3,0.5-0.5,0.9h-1.7
			c0.1-1,0.4-1.8,1-2.4c0.5-0.6,1.2-0.9,2.1-0.9c0.5,0,0.9,0.1,1.2,0.2c0.4,0.1,0.7,0.3,1.1,0.4c0.3,0.2,0.6,0.3,0.9,0.4
			c0.3,0.1,0.6,0.2,0.8,0.2c0.4,0,0.7-0.1,0.9-0.3c0.2-0.2,0.3-0.5,0.4-0.9h1.7c-0.1,1.1-0.5,1.9-1,2.4
			C332.5,197.5,331.8,197.7,330.9,197.7z M325.6,212c0,1.5,0.3,2.7,0.8,3.5c0.5,0.8,1.3,1.2,2.5,1.2c1.1,0,1.9-0.4,2.4-1.2
			c0.5-0.8,0.7-2,0.7-3.5c0-1.5-0.3-2.7-0.8-3.5c-0.5-0.8-1.3-1.2-2.5-1.2c-1.1,0-1.9,0.4-2.4,1.1S325.6,210.4,325.6,212z"/>
		<path class="st12" d="M339.7,200.2c0-1.4,0.8-2.1,2.3-2.1c1.5,0,2.3,0.7,2.3,2.1c0,0.7-0.2,1.2-0.6,1.5c-0.4,0.4-1,0.5-1.7,0.5
			C340.5,202.3,339.7,201.6,339.7,200.2z M344.1,219.8h-4.2v-15.6h4.2V219.8z"/>
		<path class="st12" d="M360.2,219.8H356v-21.7h4.2V219.8z"/>
		<path class="st12" d="M367.1,199.8H365c-1.5-1.1-2.6-2.1-3.2-2.9v-0.3h3.4c0.5,1,1.1,2,1.9,2.8V199.8z M374.6,219.8l-0.8-2.1h-0.1
			c-0.7,0.9-1.5,1.5-2.2,1.9c-0.8,0.3-1.7,0.5-3,0.5c-1.5,0-2.7-0.4-3.5-1.3c-0.9-0.9-1.3-2.1-1.3-3.6c0-1.7,0.6-2.9,1.7-3.7
			c1.2-0.8,2.9-1.2,5.2-1.3l2.7-0.1v-0.7c0-1.6-0.8-2.4-2.4-2.4c-1.2,0-2.7,0.4-4.4,1.1l-1.4-2.9c1.8-0.9,3.8-1.4,6-1.4
			c2.1,0,3.7,0.5,4.8,1.4c1.1,0.9,1.7,2.3,1.7,4.1v10.4H374.6z M365.9,202.1c1-1.2,2-2.5,3-3.9h4.4c0.5,0.7,1,1.4,1.6,2.1
			c0.6,0.8,1.1,1.3,1.4,1.8v0.4H374c-0.9-0.6-1.9-1.4-2.9-2.3c-1,0.9-2,1.7-2.9,2.3h-2.3V202.1z M373.3,212.6l-1.6,0.1
			c-1.2,0-2.2,0.3-2.8,0.7c-0.6,0.4-0.9,1-0.9,1.9c0,1.2,0.7,1.8,2.1,1.8c1,0,1.8-0.3,2.4-0.8c0.6-0.6,0.9-1.3,0.9-2.3V212.6z"/>
		<path class="st12" d="M396.3,219.8H392v-9.1c0-1.1-0.2-2-0.6-2.5c-0.4-0.6-1-0.8-1.9-0.8c-1.2,0-2,0.4-2.6,1.2
			c-0.5,0.8-0.8,2.1-0.8,3.9v7.3h-4.2v-15.6h3.2l0.6,2h0.2c0.5-0.8,1.1-1.3,2-1.7c0.8-0.4,1.8-0.6,2.8-0.6c1.8,0,3.2,0.5,4.1,1.5
			c0.9,1,1.4,2.4,1.4,4.2V219.8z"/>
		<path class="st12" d="M422,219.8h-4.2v-9.1c0-1.1-0.2-2-0.6-2.5c-0.4-0.6-1-0.8-1.8-0.8c-1.1,0-1.9,0.4-2.4,1.2
			c-0.5,0.8-0.7,2.1-0.7,3.9v7.3H408v-15.6h3.2l0.6,2h0.2c0.4-0.7,1-1.3,1.8-1.7c0.8-0.4,1.7-0.6,2.7-0.6c2.3,0,3.9,0.8,4.7,2.3h0.4
			c0.4-0.7,1-1.3,1.8-1.7c0.8-0.4,1.7-0.6,2.7-0.6c1.8,0,3.1,0.5,4,1.4s1.4,2.4,1.4,4.3v10.1h-4.3v-9.1c0-1.1-0.2-2-0.6-2.5
			c-0.4-0.6-1-0.8-1.8-0.8c-1,0-1.8,0.4-2.3,1.1s-0.8,1.9-0.8,3.5V219.8z"/>
		<path class="st12" d="M450.2,212c0,2.5-0.7,4.5-2,5.9s-3.2,2.1-5.6,2.1c-1.5,0-2.8-0.3-4-1c-1.1-0.7-2-1.6-2.6-2.8
			s-0.9-2.7-0.9-4.3c0-2.5,0.7-4.5,2-5.9c1.3-1.4,3.2-2.1,5.6-2.1c1.5,0,2.8,0.3,4,1c1.1,0.6,2,1.6,2.6,2.8
			C449.9,208.9,450.2,210.4,450.2,212z M445.8,202.5c-1.5-0.9-2.5-1.7-3.3-2.4c-0.7,0.8-1.8,1.6-3.2,2.4h-2.8v-0.4
			c1.8-1.8,2.9-3.2,3.6-4.2h5c0.3,0.5,0.8,1.1,1.5,2c0.7,0.8,1.4,1.6,2.1,2.2v0.4H445.8z M439.4,212c0,1.5,0.3,2.7,0.8,3.5
			c0.5,0.8,1.3,1.2,2.5,1.2c1.1,0,1.9-0.4,2.4-1.2c0.5-0.8,0.7-2,0.7-3.5c0-1.5-0.3-2.7-0.8-3.5c-0.5-0.8-1.3-1.2-2.5-1.2
			c-1.1,0-1.9,0.4-2.4,1.1S439.4,210.4,439.4,212z M440.3,223.7c0-1.4,0.8-2.1,2.3-2.1c1.5,0,2.3,0.7,2.3,2.1c0,0.7-0.2,1.2-0.6,1.5
			c-0.4,0.4-1,0.5-1.7,0.5C441.1,225.8,440.3,225.1,440.3,223.7z"/>
		<path class="st12" d="M460.2,216.7c0.7,0,1.6-0.2,2.7-0.5v3.2c-1.1,0.5-2.4,0.7-3.9,0.7c-1.7,0-2.9-0.4-3.7-1.3
			c-0.8-0.9-1.2-2.1-1.2-3.9v-7.5h-2v-1.8l2.3-1.4l1.2-3.3h2.7v3.3h4.4v3.2h-4.4v7.5c0,0.6,0.2,1,0.5,1.3
			C459.2,216.5,459.7,216.7,460.2,216.7z"/>
		<path class="st12" d="M487.8,219.8h-4.2v-9.1c0-1.1-0.2-2-0.6-2.5c-0.4-0.6-1-0.8-1.9-0.8c-1.2,0-2,0.4-2.6,1.2
			c-0.5,0.8-0.8,2.1-0.8,3.9v7.3h-4.2v-15.6h3.2l0.6,2h0.2c0.5-0.8,1.1-1.3,2-1.7c0.8-0.4,1.8-0.6,2.8-0.6c1.8,0,3.2,0.5,4.1,1.5
			c0.9,1,1.4,2.4,1.4,4.2V219.8z"/>
		<path class="st12" d="M502.1,219.8l-0.8-2.1h-0.1c-0.7,0.9-1.4,1.5-2.2,1.9c-0.8,0.3-1.7,0.5-3,0.5c-1.5,0-2.7-0.4-3.5-1.3
			c-0.9-0.9-1.3-2.1-1.3-3.6c0-1.7,0.6-2.9,1.7-3.7c1.2-0.8,2.9-1.2,5.2-1.3l2.7-0.1v-0.7c0-1.6-0.8-2.4-2.4-2.4
			c-1.2,0-2.7,0.4-4.4,1.1l-1.4-2.9c1.8-0.9,3.8-1.4,6-1.4c2.1,0,3.7,0.5,4.8,1.4c1.1,0.9,1.7,2.3,1.7,4.1v10.4H502.1z M504.3,197.8
			c-0.1,1.4-0.7,2.6-1.7,3.4c-1,0.9-2.3,1.3-3.8,1.3c-1.6,0-2.9-0.4-3.9-1.3c-1-0.8-1.5-2-1.6-3.4h2.4c0,0.4,0.2,0.8,0.4,1
			c0.2,0.3,0.5,0.4,0.9,0.5c0.4,0.1,1,0.2,1.8,0.2c1.9,0,2.9-0.6,3.1-1.7H504.3z M500.8,212.6l-1.6,0.1c-1.2,0-2.2,0.3-2.8,0.7
			c-0.6,0.4-0.9,1-0.9,1.9c0,1.2,0.7,1.8,2.1,1.8c1,0,1.8-0.3,2.4-0.8c0.6-0.6,0.9-1.3,0.9-2.3V212.6z"/>
		<path class="st12" d="M523.4,219.8h-4.2v-9.1c0-1.1-0.2-2-0.6-2.5c-0.4-0.6-1-0.8-1.8-0.8c-1.1,0-1.9,0.4-2.4,1.2
			c-0.5,0.8-0.7,2.1-0.7,3.9v7.3h-4.2v-15.6h3.2l0.6,2h0.2c0.4-0.7,1-1.3,1.8-1.7s1.7-0.6,2.7-0.6c2.3,0,3.9,0.8,4.7,2.3h0.4
			c0.4-0.7,1-1.3,1.8-1.7c0.8-0.4,1.7-0.6,2.7-0.6c1.8,0,3.1,0.5,4,1.4s1.4,2.4,1.4,4.3v10.1h-4.3v-9.1c0-1.1-0.2-2-0.6-2.5
			c-0.4-0.6-1-0.8-1.8-0.8c-1,0-1.8,0.4-2.3,1.1c-0.5,0.7-0.8,1.9-0.8,3.5V219.8z"/>
		<path class="st12" d="M594.2,204c0,1.3-0.4,2.4-1.2,3.2c-0.8,0.9-1.9,1.5-3.2,1.8v0.1c1.6,0.2,2.9,0.7,3.7,1.5
			c0.8,0.8,1.3,1.9,1.3,3.2c0,2-0.7,3.5-2.1,4.6c-1.4,1.1-3.4,1.6-6.1,1.6c-2.2,0-4.2-0.4-5.9-1.1v-3.7c0.8,0.4,1.7,0.7,2.6,1
			c0.9,0.3,1.9,0.4,2.8,0.4c1.4,0,2.5-0.2,3.1-0.7c0.7-0.5,1-1.3,1-2.3c0-1-0.4-1.6-1.2-2c-0.8-0.4-2-0.6-3.7-0.6h-1.5v-3.3h1.6
			c1.6,0,2.7-0.2,3.5-0.6c0.7-0.4,1.1-1.1,1.1-2.1c0-1.5-1-2.3-2.9-2.3c-0.7,0-1.3,0.1-2,0.3c-0.7,0.2-1.5,0.6-2.3,1.2l-2-3
			c1.9-1.3,4.1-2,6.6-2c2.1,0,3.8,0.4,5,1.3C593.6,201.3,594.2,202.5,594.2,204z"/>
		<path class="st12" d="M604.5,206.8c2,0,3.5,0.6,4.7,1.7s1.7,2.6,1.7,4.5c0,2.3-0.7,4-2.1,5.2s-3.4,1.8-6,1.8
			c-2.3,0-4.1-0.4-5.5-1.1v-3.7c0.7,0.4,1.6,0.7,2.6,1c1,0.2,1.9,0.4,2.8,0.4c2.6,0,3.9-1.1,3.9-3.2c0-2.1-1.4-3.1-4.1-3.1
			c-0.5,0-1,0-1.6,0.1c-0.6,0.1-1.1,0.2-1.4,0.3l-1.7-0.9l0.8-10.4h11v3.6h-7.3l-0.4,4l0.5-0.1C602.9,206.9,603.6,206.8,604.5,206.8
			z"/>
		<path class="st12" d="M622.8,205.5c0,2.1-0.4,3.7-1.2,4.8c-0.8,1.1-2,1.6-3.6,1.6c-1.5,0-2.7-0.5-3.5-1.6
			c-0.8-1.1-1.3-2.7-1.3-4.8c0-4.2,1.6-6.4,4.8-6.4c1.6,0,2.8,0.5,3.6,1.6C622.3,201.9,622.8,203.5,622.8,205.5z M616.6,205.5
			c0,1.2,0.1,2.1,0.3,2.6c0.2,0.6,0.5,0.9,1,0.9c0.9,0,1.3-1.2,1.3-3.5c0-2.3-0.4-3.5-1.3-3.5c-0.5,0-0.8,0.3-1,0.9
			C616.7,203.5,616.6,204.4,616.6,205.5z M632.3,199.4L621,219.8h-3.3l11.3-20.3H632.3z M637,213.6c0,2.1-0.4,3.7-1.2,4.8
			c-0.8,1.1-2,1.6-3.6,1.6c-1.5,0-2.7-0.5-3.5-1.6c-0.8-1.1-1.3-2.7-1.3-4.8c0-4.2,1.6-6.4,4.8-6.4c1.6,0,2.8,0.5,3.6,1.6
			C636.6,210,637,211.6,637,213.6z M630.8,213.7c0,1.2,0.1,2.1,0.3,2.6c0.2,0.6,0.5,0.9,1,0.9c0.9,0,1.3-1.2,1.3-3.5
			c0-2.3-0.4-3.5-1.3-3.5c-0.5,0-0.8,0.3-1,0.9C631,211.6,630.8,212.5,630.8,213.7z"/>
	</g>
</g>
<g>
	<g>
		<path class="st12" d="M303.9,312.2l-4.9-16h-0.1c0.2,3.2,0.3,5.4,0.3,6.5v9.5h-3.9v-20.3h5.9l4.8,15.6h0.1l5.1-15.6h5.9v20.3h-4
			v-9.6c0-0.5,0-1,0-1.6c0-0.6,0.1-2.2,0.2-4.7h-0.1l-5.2,15.9H303.9z"/>
		<path class="st12" d="M336,304.4c0,2.5-0.7,4.5-2,5.9s-3.2,2.1-5.6,2.1c-1.5,0-2.8-0.3-4-1c-1.1-0.7-2-1.6-2.6-2.8
			s-0.9-2.7-0.9-4.3c0-2.5,0.7-4.5,2-5.9c1.3-1.4,3.2-2.1,5.6-2.1c1.5,0,2.8,0.3,4,1c1.1,0.6,2,1.6,2.6,2.8S336,302.8,336,304.4z
			 M333.6,294.9h-2c-1.3-0.7-2.4-1.4-3.2-2.1c-0.8,0.7-1.8,1.4-3.2,2.1h-2v-0.4c1.6-1.5,2.7-2.7,3.3-3.6h3.8c0.4,0.6,1,1.3,1.6,1.9
			c0.6,0.6,1.2,1.2,1.7,1.7V294.9z M330.5,290.1c-0.4,0-0.8-0.1-1.2-0.2c-0.4-0.1-0.7-0.3-1.1-0.4c-0.3-0.2-0.6-0.3-0.9-0.4
			c-0.3-0.1-0.6-0.2-0.8-0.2c-0.4,0-0.7,0.1-0.9,0.3c-0.2,0.2-0.3,0.5-0.5,0.9h-1.7c0.1-1,0.4-1.8,1-2.4c0.5-0.6,1.2-0.9,2.1-0.9
			c0.5,0,0.9,0.1,1.2,0.2c0.4,0.1,0.7,0.3,1.1,0.4c0.3,0.2,0.6,0.3,0.9,0.4c0.3,0.1,0.6,0.2,0.8,0.2c0.4,0,0.7-0.1,0.9-0.3
			s0.3-0.5,0.4-0.9h1.7c-0.1,1.1-0.5,1.9-1,2.4C332.1,289.9,331.4,290.1,330.5,290.1z M325.2,304.4c0,1.5,0.3,2.7,0.8,3.5
			c0.5,0.8,1.3,1.2,2.5,1.2c1.1,0,1.9-0.4,2.4-1.2c0.5-0.8,0.7-2,0.7-3.5c0-1.5-0.3-2.7-0.8-3.5c-0.5-0.8-1.3-1.2-2.5-1.2
			c-1.1,0-1.9,0.4-2.4,1.1C325.5,301.7,325.2,302.8,325.2,304.4z"/>
		<path class="st12" d="M339.3,292.6c0-1.4,0.8-2.1,2.3-2.1c1.5,0,2.3,0.7,2.3,2.1c0,0.7-0.2,1.2-0.6,1.5s-1,0.5-1.7,0.5
			C340.1,294.7,339.3,294,339.3,292.6z M343.7,312.2h-4.2v-15.6h4.2V312.2z"/>
		<path class="st12" d="M359.8,312.2h-4.2v-21.7h4.2V312.2z"/>
		<path class="st12" d="M366.7,292.2h-2.1c-1.5-1.1-2.6-2.1-3.2-2.9V289h3.4c0.5,1,1.1,2,1.9,2.8V292.2z M374.2,312.2l-0.8-2.1h-0.1
			c-0.7,0.9-1.4,1.5-2.2,1.9c-0.8,0.3-1.7,0.5-3,0.5c-1.5,0-2.7-0.4-3.5-1.3c-0.9-0.9-1.3-2.1-1.3-3.6c0-1.7,0.6-2.9,1.7-3.7
			c1.2-0.8,2.9-1.2,5.2-1.3l2.7-0.1v-0.7c0-1.6-0.8-2.4-2.4-2.4c-1.2,0-2.7,0.4-4.4,1.1l-1.4-2.9c1.8-0.9,3.8-1.4,6-1.4
			c2.1,0,3.7,0.5,4.8,1.4c1.1,0.9,1.7,2.3,1.7,4.1v10.4H374.2z M365.5,294.5c1-1.2,2-2.5,3-3.9h4.4c0.5,0.7,1,1.4,1.6,2.1
			c0.6,0.8,1.1,1.3,1.4,1.8v0.4h-2.3c-0.9-0.6-1.9-1.4-2.9-2.3c-1,0.9-2,1.7-2.9,2.3h-2.3V294.5z M372.9,305l-1.6,0.1
			c-1.2,0-2.2,0.3-2.8,0.7c-0.6,0.4-0.9,1-0.9,1.9c0,1.2,0.7,1.8,2.1,1.8c1,0,1.8-0.3,2.4-0.8c0.6-0.6,0.9-1.3,0.9-2.3V305z"/>
		<path class="st12" d="M395.9,312.2h-4.2v-9.1c0-1.1-0.2-2-0.6-2.5s-1-0.8-1.9-0.8c-1.2,0-2,0.4-2.6,1.2c-0.5,0.8-0.8,2.1-0.8,3.9
			v7.3h-4.2v-15.6h3.2l0.6,2h0.2c0.5-0.8,1.1-1.3,2-1.7s1.8-0.6,2.8-0.6c1.8,0,3.2,0.5,4.1,1.5s1.4,2.4,1.4,4.2V312.2z"/>
		<path class="st12" d="M421.6,312.2h-4.2v-9.1c0-1.1-0.2-2-0.6-2.5c-0.4-0.6-1-0.8-1.8-0.8c-1.1,0-1.9,0.4-2.4,1.2
			c-0.5,0.8-0.7,2.1-0.7,3.9v7.3h-4.2v-15.6h3.2l0.6,2h0.2c0.4-0.7,1-1.3,1.8-1.7s1.7-0.6,2.7-0.6c2.3,0,3.9,0.8,4.7,2.3h0.4
			c0.4-0.7,1-1.3,1.8-1.7s1.7-0.6,2.7-0.6c1.8,0,3.1,0.5,4,1.4s1.4,2.4,1.4,4.3v10.1H427v-9.1c0-1.1-0.2-2-0.6-2.5
			c-0.4-0.6-1-0.8-1.8-0.8c-1,0-1.8,0.4-2.3,1.1c-0.5,0.7-0.8,1.9-0.8,3.5V312.2z"/>
		<path class="st12" d="M449.8,304.4c0,2.5-0.7,4.5-2,5.9s-3.2,2.1-5.6,2.1c-1.5,0-2.8-0.3-4-1c-1.1-0.7-2-1.6-2.6-2.8
			s-0.9-2.7-0.9-4.3c0-2.5,0.7-4.5,2-5.9s3.2-2.1,5.6-2.1c1.5,0,2.8,0.3,4,1c1.1,0.6,2,1.6,2.6,2.8S449.8,302.8,449.8,304.4z
			 M445.4,294.9c-1.5-0.9-2.5-1.7-3.3-2.4c-0.7,0.8-1.8,1.6-3.2,2.4h-2.8v-0.4c1.8-1.8,2.9-3.2,3.6-4.2h5c0.3,0.5,0.8,1.1,1.5,2
			c0.7,0.8,1.4,1.6,2.1,2.2v0.4H445.4z M439,304.4c0,1.5,0.3,2.7,0.8,3.5c0.5,0.8,1.3,1.2,2.5,1.2c1.1,0,1.9-0.4,2.4-1.2
			c0.5-0.8,0.7-2,0.7-3.5c0-1.5-0.3-2.7-0.8-3.5c-0.5-0.8-1.3-1.2-2.5-1.2c-1.1,0-1.9,0.4-2.4,1.1C439.3,301.7,439,302.8,439,304.4z
			 M439.9,316.1c0-1.4,0.8-2.1,2.3-2.1c1.5,0,2.3,0.7,2.3,2.1c0,0.7-0.2,1.2-0.6,1.5c-0.4,0.4-1,0.5-1.7,0.5
			C440.7,318.2,439.9,317.5,439.9,316.1z"/>
		<path class="st12" d="M459.8,309.1c0.7,0,1.6-0.2,2.7-0.5v3.2c-1.1,0.5-2.4,0.7-3.9,0.7c-1.7,0-2.9-0.4-3.7-1.3
			c-0.8-0.9-1.2-2.1-1.2-3.9v-7.5h-2V298l2.3-1.4l1.2-3.3h2.7v3.3h4.4v3.2H458v7.5c0,0.6,0.2,1,0.5,1.3
			C458.8,308.9,459.3,309.1,459.8,309.1z"/>
		<path class="st12" d="M479.6,309.1c0.7,0,1.6-0.2,2.7-0.5v3.2c-1.1,0.5-2.4,0.7-3.9,0.7c-1.7,0-2.9-0.4-3.7-1.3
			c-0.8-0.9-1.2-2.1-1.2-3.9v-7.5h-2V298l2.3-1.4l1.2-3.3h2.7v3.3h4.4v3.2h-4.4v7.5c0,0.6,0.2,1,0.5,1.3
			C478.6,308.9,479.1,309.1,479.6,309.1z"/>
		<path class="st12" d="M499.8,312.2h-4.2v-9.1c0-2.2-0.8-3.4-2.5-3.4c-1.2,0-2,0.4-2.6,1.2c-0.5,0.8-0.8,2.1-0.8,3.9v7.3h-4.2
			v-21.7h4.2v4.4c0,0.3,0,1.2-0.1,2.4l-0.1,1.3h0.2c0.9-1.5,2.4-2.3,4.5-2.3c1.8,0,3.2,0.5,4.2,1.5s1.4,2.4,1.4,4.2V312.2z"/>
		<path class="st12" d="M514.1,312.2l-0.8-2.1h-0.1c-0.7,0.9-1.4,1.5-2.2,1.9c-0.8,0.3-1.7,0.5-3,0.5c-1.5,0-2.7-0.4-3.5-1.3
			c-0.9-0.9-1.3-2.1-1.3-3.6c0-1.7,0.6-2.9,1.7-3.7c1.2-0.8,2.9-1.2,5.2-1.3l2.7-0.1v-0.7c0-1.6-0.8-2.4-2.4-2.4
			c-1.2,0-2.7,0.4-4.4,1.1l-1.4-2.9c1.8-0.9,3.8-1.4,6-1.4c2.1,0,3.7,0.5,4.8,1.4c1.1,0.9,1.7,2.3,1.7,4.1v10.4H514.1z M512.8,305
			l-1.6,0.1c-1.2,0-2.2,0.3-2.8,0.7c-0.6,0.4-0.9,1-0.9,1.9c0,1.2,0.7,1.8,2.1,1.8c1,0,1.8-0.3,2.4-0.8s0.9-1.3,0.9-2.3V305z
			 M508.1,294.9v-0.4c1.6-1.9,2.7-3.3,3.3-4.2h4.8v0.3c-0.5,0.5-1.3,1.2-2.5,2.2s-2.1,1.7-2.7,2.1H508.1z"/>
		<path class="st12" d="M535.8,312.2h-4.2v-9.1c0-1.1-0.2-2-0.6-2.5c-0.4-0.6-1-0.8-1.9-0.8c-1.2,0-2,0.4-2.6,1.2
			c-0.5,0.8-0.8,2.1-0.8,3.9v7.3h-4.2v-15.6h3.2l0.6,2h0.2c0.5-0.8,1.1-1.3,2-1.7s1.8-0.6,2.8-0.6c1.8,0,3.2,0.5,4.1,1.5
			s1.4,2.4,1.4,4.2V312.2z"/>
		<path class="st12" d="M553.7,312.2c0,2.2-0.7,3.9-2,5.1c-1.3,1.2-3.2,1.7-5.8,1.7c-2.3,0-4.2-0.3-5.8-0.9v-3.4
			c1.9,0.8,3.9,1.2,6.1,1.2c2.2,0,3.3-1.2,3.3-3.5v-0.3l0.1-1.9h-0.1c-1,1.5-2.5,2.3-4.4,2.3c-1.9,0-3.3-0.7-4.3-2.2
			c-1-1.4-1.5-3.4-1.5-5.9c0-2.6,0.5-4.5,1.6-6c1.1-1.4,2.5-2.1,4.4-2.1c1.9,0,3.4,0.8,4.5,2.3h0.1l0.3-2h3.6V312.2z M546.6,309.1
			c1.1,0,2-0.3,2.4-1c0.5-0.7,0.7-1.7,0.7-3.2v-0.5c0-1.7-0.3-2.9-0.8-3.6c-0.5-0.7-1.3-1.1-2.5-1.1c-2,0-3,1.6-3,4.7
			c0,1.6,0.2,2.7,0.7,3.5C544.7,308.8,545.5,309.1,546.6,309.1z"/>
		<path class="st12" d="M592.7,296.4c0,1.3-0.4,2.4-1.2,3.2c-0.8,0.9-1.9,1.5-3.2,1.8v0.1c1.6,0.2,2.9,0.7,3.7,1.5
			c0.8,0.8,1.3,1.9,1.3,3.2c0,2-0.7,3.5-2.1,4.6s-3.4,1.6-6.1,1.6c-2.2,0-4.2-0.4-5.9-1.1v-3.7c0.8,0.4,1.7,0.7,2.6,1
			s1.9,0.4,2.8,0.4c1.4,0,2.5-0.2,3.1-0.7c0.7-0.5,1-1.3,1-2.3c0-1-0.4-1.6-1.2-2c-0.8-0.4-2-0.6-3.7-0.6h-1.5v-3.3h1.6
			c1.6,0,2.7-0.2,3.5-0.6c0.7-0.4,1.1-1.1,1.1-2.1c0-1.5-1-2.3-2.9-2.3c-0.7,0-1.3,0.1-2,0.3c-0.7,0.2-1.5,0.6-2.3,1.2l-2-3
			c1.9-1.3,4.1-2,6.6-2c2.1,0,3.8,0.4,5,1.3C592.1,293.7,592.7,294.9,592.7,296.4z"/>
		<path class="st12" d="M595.4,303.6c0-4,0.9-7,2.6-9c1.7-2,4.3-3,7.6-3c1.2,0,2.1,0.1,2.7,0.2v3.4c-0.8-0.2-1.6-0.3-2.4-0.3
			c-1.5,0-2.7,0.2-3.6,0.7s-1.6,1.1-2.1,2c-0.5,0.9-0.7,2.1-0.8,3.7h0.2c0.9-1.6,2.4-2.4,4.4-2.4c1.8,0,3.2,0.6,4.3,1.7
			c1,1.1,1.5,2.7,1.5,4.7c0,2.2-0.6,3.9-1.8,5.2c-1.2,1.3-2.9,1.9-5.1,1.9c-1.5,0-2.8-0.3-3.9-1c-1.1-0.7-2-1.7-2.6-3
			C595.8,307,595.4,305.4,595.4,303.6z M602.8,309c0.9,0,1.6-0.3,2.1-0.9c0.5-0.6,0.7-1.5,0.7-2.6c0-1-0.2-1.8-0.7-2.3
			c-0.5-0.6-1.2-0.9-2.1-0.9c-0.9,0-1.6,0.3-2.2,0.8c-0.6,0.6-0.9,1.2-0.9,2c0,1.1,0.3,2,0.9,2.8C601.2,308.7,601.9,309,602.8,309z"
			/>
		<path class="st12" d="M612.4,310.2c0-0.8,0.2-1.4,0.6-1.8c0.4-0.4,1-0.6,1.8-0.6c0.8,0,1.4,0.2,1.8,0.6c0.4,0.4,0.6,1,0.6,1.8
			c0,0.7-0.2,1.3-0.6,1.7c-0.4,0.4-1,0.6-1.8,0.6c-0.8,0-1.4-0.2-1.8-0.6C612.6,311.5,612.4,311,612.4,310.2z"/>
		<path class="st12" d="M627.4,299.2c2,0,3.5,0.6,4.7,1.7s1.7,2.6,1.7,4.5c0,2.3-0.7,4-2.1,5.2s-3.4,1.8-6,1.8
			c-2.3,0-4.1-0.4-5.5-1.1v-3.7c0.7,0.4,1.6,0.7,2.6,1c1,0.2,1.9,0.4,2.8,0.4c2.6,0,3.9-1.1,3.9-3.2c0-2.1-1.4-3.1-4.1-3.1
			c-0.5,0-1,0-1.6,0.1s-1.1,0.2-1.4,0.3l-1.7-0.9l0.8-10.4h11v3.6h-7.3l-0.4,4l0.5-0.1C625.9,299.3,626.6,299.2,627.4,299.2z"/>
		<path class="st12" d="M645.7,297.9c0,2.1-0.4,3.7-1.2,4.8c-0.8,1.1-2,1.6-3.6,1.6c-1.5,0-2.7-0.5-3.5-1.6
			c-0.8-1.1-1.3-2.7-1.3-4.8c0-4.2,1.6-6.4,4.8-6.4c1.6,0,2.8,0.5,3.6,1.6C645.3,294.3,645.7,295.9,645.7,297.9z M639.6,297.9
			c0,1.2,0.1,2.1,0.3,2.6s0.5,0.9,1,0.9c0.9,0,1.3-1.2,1.3-3.5c0-2.3-0.4-3.5-1.3-3.5c-0.5,0-0.8,0.3-1,0.9S639.6,296.8,639.6,297.9
			z M655.3,291.8L644,312.2h-3.3l11.3-20.3H655.3z M660,306c0,2.1-0.4,3.7-1.2,4.8c-0.8,1.1-2,1.6-3.6,1.6c-1.5,0-2.7-0.5-3.5-1.6
			s-1.3-2.7-1.3-4.8c0-4.2,1.6-6.4,4.8-6.4c1.6,0,2.8,0.5,3.6,1.6C659.6,302.4,660,304,660,306z M653.8,306.1c0,1.2,0.1,2.1,0.3,2.6
			c0.2,0.6,0.5,0.9,1,0.9c0.9,0,1.3-1.2,1.3-3.5c0-2.3-0.4-3.5-1.3-3.5c-0.5,0-0.8,0.3-1,0.9C653.9,304,653.8,304.9,653.8,306.1z"/>
	</g>
</g>
<g>
	<g>
		<path class="st12" d="M297.9,399.9l-4.9-16h-0.1c0.2,3.2,0.3,5.4,0.3,6.5v9.5h-3.9v-20.3h5.9l4.8,15.6h0.1l5.1-15.6h5.9v20.3h-4
			v-9.6c0-0.5,0-1,0-1.6c0-0.6,0.1-2.2,0.2-4.7h-0.1l-5.2,15.9H297.9z"/>
		<path class="st12" d="M330,392.1c0,2.5-0.7,4.5-2,5.9s-3.2,2.1-5.6,2.1c-1.5,0-2.8-0.3-4-1c-1.1-0.7-2-1.6-2.6-2.8
			s-0.9-2.7-0.9-4.3c0-2.5,0.7-4.5,2-5.9c1.3-1.4,3.2-2.1,5.6-2.1c1.5,0,2.8,0.3,4,1c1.1,0.6,2,1.6,2.6,2.8
			C329.7,389,330,390.4,330,392.1z M327.7,382.6h-2c-1.3-0.7-2.4-1.4-3.2-2.1c-0.8,0.7-1.8,1.4-3.2,2.1h-2v-0.4
			c1.6-1.5,2.7-2.7,3.3-3.6h3.8c0.4,0.6,1,1.3,1.6,1.9c0.6,0.6,1.2,1.2,1.7,1.7V382.6z M324.5,377.8c-0.4,0-0.8-0.1-1.2-0.2
			c-0.4-0.1-0.7-0.3-1.1-0.4c-0.3-0.2-0.6-0.3-0.9-0.4c-0.3-0.1-0.6-0.2-0.8-0.2c-0.4,0-0.7,0.1-0.9,0.3c-0.2,0.2-0.3,0.5-0.5,0.9
			h-1.7c0.1-1,0.4-1.8,1-2.4c0.5-0.6,1.2-0.9,2.1-0.9c0.5,0,0.9,0.1,1.2,0.2c0.4,0.1,0.7,0.3,1.1,0.4c0.3,0.2,0.6,0.3,0.9,0.4
			c0.3,0.1,0.6,0.2,0.8,0.2c0.4,0,0.7-0.1,0.9-0.3c0.2-0.2,0.3-0.5,0.4-0.9h1.7c-0.1,1.1-0.5,1.9-1,2.4
			C326.1,377.5,325.4,377.8,324.5,377.8z M319.2,392.1c0,1.5,0.3,2.7,0.8,3.5c0.5,0.8,1.3,1.2,2.5,1.2c1.1,0,1.9-0.4,2.4-1.2
			c0.5-0.8,0.7-2,0.7-3.5c0-1.5-0.3-2.7-0.8-3.5s-1.3-1.2-2.5-1.2c-1.1,0-1.9,0.4-2.4,1.1C319.5,389.4,319.2,390.5,319.2,392.1z"/>
		<path class="st12" d="M333.3,380.3c0-1.4,0.8-2.1,2.3-2.1c1.5,0,2.3,0.7,2.3,2.1c0,0.7-0.2,1.2-0.6,1.5c-0.4,0.4-1,0.5-1.7,0.5
			C334.1,382.4,333.3,381.7,333.3,380.3z M337.7,399.9h-4.2v-15.6h4.2V399.9z"/>
		<path class="st12" d="M353.8,399.9h-4.2v-21.7h4.2V399.9z"/>
		<path class="st12" d="M360.7,379.9h-2.1c-1.5-1.1-2.6-2.1-3.2-2.9v-0.3h3.4c0.5,1,1.1,2,1.9,2.8V379.9z M368.2,399.9l-0.8-2.1
			h-0.1c-0.7,0.9-1.5,1.5-2.2,1.9c-0.8,0.3-1.7,0.5-3,0.5c-1.5,0-2.7-0.4-3.5-1.3c-0.9-0.9-1.3-2.1-1.3-3.6c0-1.7,0.6-2.9,1.7-3.7
			c1.2-0.8,2.9-1.2,5.2-1.3l2.7-0.1v-0.7c0-1.6-0.8-2.4-2.4-2.4c-1.2,0-2.7,0.4-4.4,1.1l-1.4-2.9c1.8-0.9,3.8-1.4,6-1.4
			c2.1,0,3.7,0.5,4.8,1.4c1.1,0.9,1.7,2.3,1.7,4.1v10.4H368.2z M359.5,382.2c1-1.2,2-2.5,3-3.9h4.4c0.5,0.7,1,1.4,1.6,2.1
			c0.6,0.8,1.1,1.3,1.4,1.8v0.4h-2.3c-0.9-0.6-1.9-1.4-2.9-2.3c-1,0.9-2,1.7-2.9,2.3h-2.3V382.2z M366.9,392.7l-1.6,0.1
			c-1.2,0-2.2,0.3-2.8,0.7c-0.6,0.4-0.9,1-0.9,1.9c0,1.2,0.7,1.8,2.1,1.8c1,0,1.8-0.3,2.4-0.8c0.6-0.6,0.9-1.3,0.9-2.3V392.7z"/>
		<path class="st12" d="M389.9,399.9h-4.2v-9.1c0-1.1-0.2-2-0.6-2.5c-0.4-0.6-1-0.8-1.9-0.8c-1.2,0-2,0.4-2.6,1.2
			c-0.5,0.8-0.8,2.1-0.8,3.9v7.3h-4.2v-15.6h3.2l0.6,2h0.2c0.5-0.8,1.1-1.3,2-1.7c0.8-0.4,1.8-0.6,2.8-0.6c1.8,0,3.2,0.5,4.1,1.5
			c0.9,1,1.4,2.4,1.4,4.2V399.9z"/>
		<path class="st12" d="M415.6,399.9h-4.2v-9.1c0-1.1-0.2-2-0.6-2.5c-0.4-0.6-1-0.8-1.8-0.8c-1.1,0-1.9,0.4-2.4,1.2
			c-0.5,0.8-0.7,2.1-0.7,3.9v7.3h-4.2v-15.6h3.2l0.6,2h0.2c0.4-0.7,1-1.3,1.8-1.7c0.8-0.4,1.7-0.6,2.7-0.6c2.3,0,3.9,0.8,4.7,2.3
			h0.4c0.4-0.7,1-1.3,1.8-1.7c0.8-0.4,1.7-0.6,2.7-0.6c1.8,0,3.1,0.5,4,1.4s1.4,2.4,1.4,4.3v10.1H421v-9.1c0-1.1-0.2-2-0.6-2.5
			c-0.4-0.6-1-0.8-1.8-0.8c-1,0-1.8,0.4-2.3,1.1c-0.5,0.7-0.8,1.9-0.8,3.5V399.9z"/>
		<path class="st12" d="M443.8,392.1c0,2.5-0.7,4.5-2,5.9c-1.3,1.4-3.2,2.1-5.6,2.1c-1.5,0-2.8-0.3-4-1s-2-1.6-2.6-2.8
			c-0.6-1.2-0.9-2.7-0.9-4.3c0-2.5,0.7-4.5,2-5.9c1.3-1.4,3.2-2.1,5.6-2.1c1.5,0,2.8,0.3,4,1c1.1,0.6,2,1.6,2.6,2.8
			C443.5,389,443.8,390.4,443.8,392.1z M439.5,382.6c-1.5-0.9-2.5-1.7-3.3-2.4c-0.7,0.8-1.8,1.6-3.2,2.4h-2.8v-0.4
			c1.8-1.8,2.9-3.2,3.6-4.2h5c0.3,0.5,0.8,1.1,1.5,2s1.4,1.6,2.1,2.2v0.4H439.5z M433,392.1c0,1.5,0.3,2.7,0.8,3.5
			c0.5,0.8,1.3,1.2,2.5,1.2c1.1,0,1.9-0.4,2.4-1.2c0.5-0.8,0.7-2,0.7-3.5c0-1.5-0.3-2.7-0.8-3.5s-1.3-1.2-2.5-1.2
			c-1.1,0-1.9,0.4-2.4,1.1C433.3,389.4,433,390.5,433,392.1z M433.9,403.8c0-1.4,0.8-2.1,2.3-2.1c1.5,0,2.3,0.7,2.3,2.1
			c0,0.7-0.2,1.2-0.6,1.5s-1,0.5-1.7,0.5C434.7,405.9,433.9,405.2,433.9,403.8z"/>
		<path class="st12" d="M453.9,396.8c0.7,0,1.6-0.2,2.7-0.5v3.2c-1.1,0.5-2.4,0.7-3.9,0.7c-1.7,0-2.9-0.4-3.7-1.3
			c-0.8-0.9-1.2-2.1-1.2-3.9v-7.5h-2v-1.8l2.3-1.4l1.2-3.3h2.7v3.3h4.4v3.2H452v7.5c0,0.6,0.2,1,0.5,1.3
			C452.9,396.6,453.3,396.8,453.9,396.8z"/>
		<path class="st12" d="M473.6,396.8c0.7,0,1.6-0.2,2.7-0.5v3.2c-1.1,0.5-2.4,0.7-3.9,0.7c-1.7,0-2.9-0.4-3.7-1.3
			c-0.8-0.9-1.2-2.1-1.2-3.9v-7.5h-2v-1.8l2.3-1.4l1.2-3.3h2.7v3.3h4.4v3.2h-4.4v7.5c0,0.6,0.2,1,0.5,1.3
			C472.6,396.6,473.1,396.8,473.6,396.8z"/>
		<path class="st12" d="M490.5,399.9l-0.6-2h-0.2c-0.5,0.7-1.1,1.3-1.9,1.7c-0.8,0.4-1.8,0.6-2.9,0.6c-1.8,0-3.2-0.5-4.1-1.5
			c-0.9-1-1.4-2.4-1.4-4.2v-10.1h4.2v9.1c0,1.1,0.2,2,0.6,2.5c0.4,0.6,1,0.8,1.9,0.8c1.2,0,2-0.4,2.6-1.2c0.5-0.8,0.8-2.1,0.8-3.9
			v-7.3h4.2v15.6H490.5z"/>
		<path class="st12" d="M500.6,379.9h-2.1c-1.5-1.1-2.6-2.1-3.2-2.9v-0.3h3.4c0.5,1,1.1,2,1.9,2.8V379.9z M508.1,399.9l-0.8-2.1
			h-0.1c-0.7,0.9-1.4,1.5-2.2,1.9c-0.8,0.3-1.7,0.5-3,0.5c-1.5,0-2.7-0.4-3.5-1.3s-1.3-2.1-1.3-3.6c0-1.7,0.6-2.9,1.7-3.7
			c1.2-0.8,2.9-1.2,5.2-1.3l2.7-0.1v-0.7c0-1.6-0.8-2.4-2.4-2.4c-1.2,0-2.7,0.4-4.4,1.1l-1.4-2.9c1.8-0.9,3.8-1.4,6-1.4
			c2.1,0,3.7,0.5,4.8,1.4c1.1,0.9,1.7,2.3,1.7,4.1v10.4H508.1z M499.4,382.2c1-1.2,2-2.5,3-3.9h4.4c0.5,0.7,1,1.4,1.6,2.1
			c0.6,0.8,1.1,1.3,1.4,1.8v0.4h-2.3c-0.9-0.6-1.9-1.4-2.9-2.3c-1,0.9-2,1.7-2.9,2.3h-2.3V382.2z M506.8,392.7l-1.6,0.1
			c-1.2,0-2.2,0.3-2.8,0.7c-0.6,0.4-0.9,1-0.9,1.9c0,1.2,0.7,1.8,2.1,1.8c1,0,1.8-0.3,2.4-0.8c0.6-0.6,0.9-1.3,0.9-2.3V392.7z"/>
		<path class="st12" d="M529.8,399.9h-4.2v-9.1c0-1.1-0.2-2-0.6-2.5c-0.4-0.6-1-0.8-1.9-0.8c-1.2,0-2,0.4-2.6,1.2s-0.8,2.1-0.8,3.9
			v7.3h-4.2v-15.6h3.2l0.6,2h0.2c0.5-0.8,1.1-1.3,2-1.7s1.8-0.6,2.8-0.6c1.8,0,3.2,0.5,4.1,1.5c0.9,1,1.4,2.4,1.4,4.2V399.9z"/>
		<path class="st12" d="M580.7,399.9h-4.3v-11.8l0-1.9l0.1-2.1c-0.7,0.7-1.2,1.2-1.5,1.4l-2.3,1.9l-2.1-2.6l6.6-5.2h3.5V399.9z"/>
		<path class="st12" d="M597,399.9h-4.3v-11.8l0-1.9l0.1-2.1c-0.7,0.7-1.2,1.2-1.5,1.4l-2.3,1.9l-2.1-2.6l6.6-5.2h3.5V399.9z"/>
		<path class="st12" d="M603.2,397.9c0-0.8,0.2-1.4,0.6-1.8c0.4-0.4,1-0.6,1.8-0.6c0.8,0,1.4,0.2,1.8,0.6c0.4,0.4,0.6,1,0.6,1.8
			c0,0.7-0.2,1.3-0.6,1.7c-0.4,0.4-1,0.6-1.8,0.6c-0.8,0-1.4-0.2-1.8-0.6C603.4,399.2,603.2,398.6,603.2,397.9z"/>
		<path class="st12" d="M618.2,386.9c2,0,3.5,0.6,4.7,1.7s1.7,2.6,1.7,4.5c0,2.3-0.7,4-2.1,5.2c-1.4,1.2-3.4,1.8-6,1.8
			c-2.3,0-4.1-0.4-5.5-1.1v-3.7c0.7,0.4,1.6,0.7,2.6,1s1.9,0.4,2.8,0.4c2.6,0,3.9-1.1,3.9-3.2c0-2.1-1.4-3.1-4.1-3.1
			c-0.5,0-1,0-1.6,0.1c-0.6,0.1-1.1,0.2-1.4,0.3l-1.7-0.9l0.8-10.4h11v3.6H616l-0.4,4l0.5-0.1C616.7,386.9,617.4,386.9,618.2,386.9z
			"/>
		<path class="st12" d="M636.5,385.6c0,2.1-0.4,3.7-1.2,4.8c-0.8,1.1-2,1.6-3.6,1.6c-1.5,0-2.7-0.5-3.5-1.6
			c-0.8-1.1-1.3-2.7-1.3-4.8c0-4.2,1.6-6.4,4.8-6.4c1.6,0,2.8,0.5,3.6,1.6C636.1,382,636.5,383.5,636.5,385.6z M630.3,385.6
			c0,1.2,0.1,2.1,0.3,2.6c0.2,0.6,0.5,0.9,1,0.9c0.9,0,1.3-1.2,1.3-3.5c0-2.3-0.4-3.5-1.3-3.5c-0.5,0-0.8,0.3-1,0.9
			C630.5,383.6,630.3,384.4,630.3,385.6z M646.1,379.5l-11.3,20.3h-3.3l11.3-20.3H646.1z M650.8,393.7c0,2.1-0.4,3.7-1.2,4.8
			c-0.8,1.1-2,1.6-3.6,1.6c-1.5,0-2.7-0.5-3.5-1.6c-0.8-1.1-1.3-2.7-1.3-4.8c0-4.2,1.6-6.4,4.8-6.4c1.6,0,2.8,0.5,3.6,1.6
			C650.3,390.1,650.8,391.7,650.8,393.7z M644.6,393.7c0,1.2,0.1,2.1,0.3,2.6c0.2,0.6,0.5,0.9,1,0.9c0.9,0,1.3-1.2,1.3-3.5
			c0-2.3-0.4-3.5-1.3-3.5c-0.5,0-0.8,0.3-1,0.9C644.7,391.7,644.6,392.6,644.6,393.7z"/>
	</g>
</g>
<g>
	<g>
		<path class="st12" d="M307.8,490.1l-4.9-16h-0.1c0.2,3.2,0.3,5.4,0.3,6.5v9.5h-3.9v-20.3h5.9l4.8,15.6h0.1l5.1-15.6h5.9v20.3h-4
			v-9.6c0-0.5,0-1,0-1.6c0-0.6,0.1-2.2,0.2-4.7H317l-5.2,15.9H307.8z"/>
		<path class="st12" d="M339.9,482.3c0,2.5-0.7,4.5-2,5.9s-3.2,2.1-5.6,2.1c-1.5,0-2.8-0.3-4-1c-1.1-0.7-2-1.6-2.6-2.8
			s-0.9-2.7-0.9-4.3c0-2.5,0.7-4.5,2-5.9c1.3-1.4,3.2-2.1,5.6-2.1c1.5,0,2.8,0.3,4,1s2,1.6,2.6,2.8
			C339.6,479.2,339.9,480.6,339.9,482.3z M337.5,472.8h-2c-1.3-0.7-2.4-1.4-3.2-2.1c-0.8,0.7-1.8,1.4-3.2,2.1h-2v-0.4
			c1.6-1.5,2.7-2.7,3.3-3.6h3.8c0.4,0.6,1,1.3,1.6,1.9c0.6,0.6,1.2,1.2,1.7,1.7V472.8z M334.4,468c-0.4,0-0.8-0.1-1.2-0.2
			c-0.4-0.1-0.7-0.3-1.1-0.4c-0.3-0.2-0.6-0.3-0.9-0.4c-0.3-0.1-0.6-0.2-0.8-0.2c-0.4,0-0.7,0.1-0.9,0.3c-0.2,0.2-0.3,0.5-0.5,0.9
			h-1.7c0.1-1,0.4-1.8,1-2.4c0.5-0.6,1.2-0.9,2.1-0.9c0.5,0,0.9,0.1,1.2,0.2c0.4,0.1,0.7,0.3,1.1,0.4c0.3,0.2,0.6,0.3,0.9,0.4
			c0.3,0.1,0.6,0.2,0.8,0.2c0.4,0,0.7-0.1,0.9-0.3c0.2-0.2,0.3-0.5,0.4-0.9h1.7c-0.1,1.1-0.5,1.9-1,2.4
			C336,467.7,335.2,468,334.4,468z M329.1,482.3c0,1.5,0.3,2.7,0.8,3.5c0.5,0.8,1.3,1.2,2.5,1.2c1.1,0,1.9-0.4,2.4-1.2
			c0.5-0.8,0.7-2,0.7-3.5c0-1.5-0.3-2.7-0.8-3.5c-0.5-0.8-1.3-1.2-2.5-1.2c-1.1,0-1.9,0.4-2.4,1.1S329.1,480.7,329.1,482.3z"/>
		<path class="st12" d="M343.2,470.5c0-1.4,0.8-2.1,2.3-2.1c1.5,0,2.3,0.7,2.3,2.1c0,0.7-0.2,1.2-0.6,1.5c-0.4,0.4-1,0.5-1.7,0.5
			C344,472.6,343.2,471.9,343.2,470.5z M347.6,490.1h-4.2v-15.6h4.2V490.1z"/>
		<path class="st12" d="M373.8,490.1h-4.2V481c0-1.1-0.2-2-0.6-2.5c-0.4-0.6-1-0.8-1.9-0.8c-1.2,0-2,0.4-2.6,1.2
			c-0.5,0.8-0.8,2.1-0.8,3.9v7.3h-4.2v-15.6h3.2l0.6,2h0.2c0.5-0.8,1.1-1.3,2-1.7c0.8-0.4,1.8-0.6,2.8-0.6c1.8,0,3.2,0.5,4.1,1.5
			c0.9,1,1.4,2.4,1.4,4.2V490.1z"/>
		<path class="st12" d="M391.8,490.1c0,2.2-0.7,3.9-2,5.1c-1.3,1.2-3.2,1.7-5.8,1.7c-2.3,0-4.2-0.3-5.8-0.9v-3.4
			c1.9,0.8,3.9,1.2,6.1,1.2c2.2,0,3.3-1.2,3.3-3.5V490l0.1-1.9h-0.1c-1,1.5-2.5,2.3-4.4,2.3c-1.9,0-3.3-0.7-4.3-2.2
			c-1-1.4-1.5-3.4-1.5-5.9c0-2.6,0.5-4.5,1.6-6c1.1-1.4,2.5-2.1,4.4-2.1c1.9,0,3.4,0.8,4.5,2.3h0.1l0.3-2h3.6V490.1z M384.7,487
			c1.1,0,2-0.3,2.4-1c0.5-0.7,0.7-1.7,0.7-3.2v-0.5c0-1.7-0.3-2.9-0.8-3.6c-0.5-0.7-1.3-1.1-2.5-1.1c-2,0-3,1.6-3,4.7
			c0,1.6,0.2,2.7,0.7,3.5C382.8,486.6,383.6,487,384.7,487z"/>
		<path class="st12" d="M406.1,490.1l-0.8-2.1h-0.1c-0.7,0.9-1.4,1.5-2.2,1.9c-0.8,0.3-1.7,0.5-3,0.5c-1.5,0-2.7-0.4-3.5-1.3
			c-0.9-0.9-1.3-2.1-1.3-3.6c0-1.7,0.6-2.9,1.7-3.7c1.2-0.8,2.9-1.2,5.2-1.3l2.7-0.1v-0.7c0-1.6-0.8-2.4-2.4-2.4
			c-1.2,0-2.7,0.4-4.4,1.1l-1.4-2.9c1.8-0.9,3.8-1.4,6-1.4c2.1,0,3.7,0.5,4.8,1.4c1.1,0.9,1.7,2.3,1.7,4.1v10.4H406.1z M402.6,472.8
			c-0.6-0.4-1.4-1.1-2.6-2c-1.1-0.9-2-1.7-2.6-2.3v-0.3h4.8c0.6,0.9,1.7,2.3,3.3,4.2v0.4H402.6z M404.9,482.9l-1.6,0.1
			c-1.2,0-2.2,0.3-2.8,0.7c-0.6,0.4-0.9,1-0.9,1.9c0,1.2,0.7,1.8,2.1,1.8c1,0,1.8-0.3,2.4-0.8c0.6-0.6,0.9-1.3,0.9-2.3V482.9z"/>
		<path class="st12" d="M411.2,474.5h4.6l2.9,8.8c0.3,0.8,0.4,1.7,0.5,2.7h0.1c0.1-1,0.3-1.9,0.6-2.7l2.9-8.8h4.6l-6.6,17.6
			c-0.6,1.6-1.5,2.8-2.6,3.6c-1.1,0.8-2.4,1.2-3.9,1.2c-0.7,0-1.5-0.1-2.2-0.2v-3.4c0.5,0.1,1.1,0.2,1.7,0.2c0.8,0,1.4-0.2,2-0.7
			c0.6-0.5,1-1.2,1.3-2.1l0.3-0.8L411.2,474.5z"/>
		<path class="st12" d="M594.7,490.1h-4.3v-11.8l0-1.9l0.1-2.1c-0.7,0.7-1.2,1.2-1.5,1.4l-2.3,1.9l-2.1-2.6l6.6-5.2h3.5V490.1z"/>
		<path class="st12" d="M602.4,490.1l7.6-16.7h-10v-3.6h14.6v2.7l-7.7,17.6H602.4z"/>
		<path class="st12" d="M626.1,475.8c0,2.1-0.4,3.7-1.2,4.8c-0.8,1.1-2,1.6-3.6,1.6c-1.5,0-2.7-0.5-3.5-1.6
			c-0.8-1.1-1.3-2.7-1.3-4.8c0-4.2,1.6-6.4,4.8-6.4c1.6,0,2.8,0.5,3.6,1.6C625.7,472.2,626.1,473.8,626.1,475.8z M619.9,475.8
			c0,1.2,0.1,2.1,0.3,2.6c0.2,0.6,0.5,0.9,1,0.9c0.9,0,1.3-1.2,1.3-3.5c0-2.3-0.4-3.5-1.3-3.5c-0.5,0-0.8,0.3-1,0.9
			C620,473.8,619.9,474.7,619.9,475.8z M635.7,469.7l-11.3,20.3h-3.3l11.3-20.3H635.7z M640.4,483.9c0,2.1-0.4,3.7-1.2,4.8
			c-0.8,1.1-2,1.6-3.6,1.6c-1.5,0-2.7-0.5-3.5-1.6c-0.8-1.1-1.3-2.7-1.3-4.8c0-4.2,1.6-6.4,4.8-6.4c1.6,0,2.8,0.5,3.6,1.6
			C639.9,480.3,640.4,481.9,640.4,483.9z M634.2,484c0,1.2,0.1,2.1,0.3,2.6c0.2,0.6,0.5,0.9,1,0.9c0.9,0,1.3-1.2,1.3-3.5
			c0-2.3-0.4-3.5-1.3-3.5c-0.5,0-0.8,0.3-1,0.9C634.3,481.9,634.2,482.8,634.2,484z"/>
	</g>
</g>
<g>
	<g>
		<path class="st12" d="M75.7,107.3H70V85.5h-7.2v-4.7h20v4.7h-7.2V107.3z"/>
		<path class="st12" d="M89.7,81.3h-2.7c-2-1.4-3.4-2.7-4.1-3.7v-0.4h4.4c0.7,1.4,1.5,2.6,2.5,3.6V81.3z M99.4,107.3l-1.1-2.8h-0.1
			c-0.9,1.2-1.9,2-2.9,2.4c-1,0.5-2.3,0.7-3.9,0.7c-1.9,0-3.5-0.6-4.6-1.7c-1.1-1.1-1.7-2.7-1.7-4.8c0-2.2,0.8-3.7,2.3-4.8
			c1.5-1,3.8-1.6,6.8-1.7l3.5-0.1v-0.9c0-2.1-1.1-3.1-3.2-3.1c-1.6,0-3.5,0.5-5.7,1.5l-1.8-3.7c2.3-1.2,4.9-1.8,7.8-1.8
			c2.7,0,4.8,0.6,6.3,1.8c1.5,1.2,2.2,3,2.2,5.4v13.5H99.4z M88.1,84.3c1.4-1.6,2.7-3.3,3.9-5.1h5.7c0.6,0.9,1.3,1.8,2,2.8
			c0.8,1,1.4,1.8,1.9,2.3v0.5h-2.9c-1.2-0.8-2.4-1.8-3.8-3c-1.3,1.2-2.6,2.2-3.8,3h-2.9V84.3z M97.8,97.9L95.6,98
			c-1.6,0-2.8,0.3-3.6,0.9c-0.8,0.5-1.2,1.3-1.2,2.4c0,1.6,0.9,2.3,2.7,2.3c1.3,0,2.3-0.4,3.1-1.1c0.8-0.7,1.2-1.7,1.2-2.9V97.9z"/>
		<path class="st12" d="M127.7,107.3h-5.5V95.5c0-1.5-0.3-2.6-0.8-3.3c-0.5-0.7-1.3-1.1-2.5-1.1c-1.5,0-2.7,0.5-3.4,1.6
			c-0.7,1-1,2.7-1,5.1v9.5h-5.5V87h4.2l0.7,2.6h0.3c0.6-1,1.5-1.7,2.5-2.2c1.1-0.5,2.3-0.8,3.7-0.8c2.4,0,4.1,0.6,5.4,1.9
			c1.2,1.3,1.8,3.1,1.8,5.5V107.3z"/>
		<path class="st12" d="M157.1,101.3c0,2.1-0.7,3.7-2.2,4.8c-1.4,1.1-3.6,1.6-6.5,1.6c-1.5,0-2.7-0.1-3.8-0.3c-1-0.2-2-0.5-2.9-0.9
			v-4.6c1,0.5,2.2,0.9,3.5,1.2c1.3,0.3,2.4,0.5,3.4,0.5c2,0,3-0.6,3-1.7c0-0.4-0.1-0.8-0.4-1.1c-0.3-0.3-0.7-0.6-1.4-0.9
			c-0.7-0.3-1.5-0.7-2.6-1.2c-1.6-0.7-2.7-1.3-3.4-1.8c-0.7-0.6-1.3-1.2-1.6-1.9c-0.3-0.7-0.5-1.6-0.5-2.7c0-1.8,0.7-3.2,2.1-4.2
			c1.4-1,3.4-1.5,5.9-1.5c2.4,0,4.8,0.5,7.1,1.6l-1.7,4c-1-0.4-2-0.8-2.8-1.1c-0.9-0.3-1.8-0.4-2.7-0.4c-1.6,0-2.4,0.4-2.4,1.3
			c0,0.5,0.3,0.9,0.8,1.3s1.7,0.9,3.5,1.6c1.6,0.6,2.7,1.2,3.5,1.8c0.7,0.6,1.3,1.2,1.6,1.9C157,99.4,157.1,100.3,157.1,101.3z"/>
		<path class="st12" d="M179.9,97.1c0,3.3-0.9,5.9-2.6,7.7s-4.2,2.8-7.3,2.8c-1.9,0-3.7-0.4-5.2-1.3c-1.5-0.9-2.6-2.1-3.4-3.7
			c-0.8-1.6-1.2-3.5-1.2-5.6c0-3.3,0.9-5.9,2.6-7.7s4.2-2.8,7.3-2.8c1.9,0,3.7,0.4,5.2,1.3s2.6,2.1,3.4,3.6
			C179.5,93.1,179.9,95,179.9,97.1z M176.7,84.8h-2.9c-1.4-0.9-2.6-1.9-3.8-3c-1.4,1.2-2.7,2.2-3.8,3h-2.9v-0.5
			c1.4-1.6,2.7-3.3,3.9-5.1h5.7c0.6,0.9,1.4,1.9,2.2,3c0.8,1,1.4,1.7,1.7,2.1V84.8z M165.9,97.1c0,2,0.3,3.5,1,4.6
			c0.7,1,1.7,1.5,3.2,1.5c1.5,0,2.5-0.5,3.2-1.5c0.6-1,1-2.5,1-4.6c0-2-0.3-3.5-1-4.5c-0.7-1-1.7-1.5-3.2-1.5
			c-1.5,0-2.5,0.5-3.2,1.5C166.2,93.6,165.9,95.1,165.9,97.1z M175.1,80.8c1-1.1,1.9-2.3,2.5-3.6h4.4v0.4c-0.8,1.1-2.2,2.3-4.1,3.7
			h-2.8V80.8z"/>
		<path class="st12" d="M212.3,107.3h-5.5V95.5c0-1.5-0.2-2.6-0.7-3.3c-0.5-0.7-1.3-1.1-2.3-1.1c-1.4,0-2.4,0.5-3.1,1.6
			c-0.6,1-1,2.8-1,5.1v9.5h-5.5V87h4.2l0.7,2.6h0.3c0.5-0.9,1.3-1.7,2.4-2.2c1-0.5,2.2-0.8,3.5-0.8c3,0,5.1,1,6.2,3h0.5
			c0.5-0.9,1.3-1.7,2.4-2.2c1.1-0.5,2.3-0.8,3.6-0.8c2.3,0,4,0.6,5.2,1.8c1.2,1.2,1.8,3.1,1.8,5.7v13.2h-5.5V95.5
			c0-1.5-0.2-2.6-0.7-3.3c-0.5-0.7-1.3-1.1-2.3-1.1c-1.4,0-2.4,0.5-3,1.5c-0.7,1-1,2.5-1,4.6V107.3z"/>
		<path class="st12" d="M244.9,107.3l-0.7-2.6h-0.3c-0.6,0.9-1.4,1.7-2.5,2.2c-1.1,0.5-2.3,0.8-3.7,0.8c-2.4,0-4.2-0.6-5.4-1.9
			c-1.2-1.3-1.8-3.1-1.8-5.5V87h5.5v11.8c0,1.5,0.3,2.6,0.8,3.3c0.5,0.7,1.3,1.1,2.5,1.1c1.5,0,2.7-0.5,3.4-1.6c0.7-1,1-2.7,1-5.1
			V87h5.5v20.3H244.9z"/>
		<path class="st12" d="M267.9,107.3l-1.1-2.8h-0.1c-0.9,1.2-1.9,2-2.9,2.4c-1,0.5-2.3,0.7-3.9,0.7c-1.9,0-3.5-0.6-4.6-1.7
			c-1.1-1.1-1.7-2.7-1.7-4.8c0-2.2,0.8-3.7,2.3-4.8c1.5-1,3.8-1.6,6.8-1.7l3.5-0.1v-0.9c0-2.1-1.1-3.1-3.2-3.1
			c-1.6,0-3.5,0.5-5.7,1.5l-1.8-3.7c2.3-1.2,4.9-1.8,7.8-1.8c2.7,0,4.8,0.6,6.3,1.8c1.5,1.2,2.2,3,2.2,5.4v13.5H267.9z M266.2,97.9
			l-2.1,0.1c-1.6,0-2.8,0.3-3.6,0.9s-1.2,1.3-1.2,2.4c0,1.6,0.9,2.3,2.7,2.3c1.3,0,2.3-0.4,3.1-1.1c0.8-0.7,1.2-1.7,1.2-2.9V97.9z"
			/>
		<path class="st12" d="M301.2,101.3c0,2.1-0.7,3.7-2.2,4.8s-3.6,1.6-6.5,1.6c-1.5,0-2.7-0.1-3.8-0.3c-1-0.2-2-0.5-2.9-0.9v-4.6
			c1,0.5,2.2,0.9,3.5,1.2c1.3,0.3,2.4,0.5,3.4,0.5c2,0,3-0.6,3-1.7c0-0.4-0.1-0.8-0.4-1.1c-0.3-0.3-0.7-0.6-1.4-0.9
			c-0.7-0.3-1.5-0.7-2.6-1.2c-1.6-0.7-2.7-1.3-3.4-1.8c-0.7-0.6-1.3-1.2-1.6-1.9c-0.3-0.7-0.5-1.6-0.5-2.7c0-1.8,0.7-3.2,2.1-4.2
			c1.4-1,3.4-1.5,5.9-1.5c2.4,0,4.8,0.5,7.1,1.6l-1.7,4c-1-0.4-2-0.8-2.8-1.1c-0.9-0.3-1.8-0.4-2.7-0.4c-1.6,0-2.4,0.4-2.4,1.3
			c0,0.5,0.3,0.9,0.8,1.3c0.5,0.4,1.7,0.9,3.5,1.6c1.6,0.6,2.7,1.2,3.5,1.8c0.7,0.6,1.3,1.2,1.6,1.9
			C301,99.4,301.2,100.3,301.2,101.3z"/>
		<path class="st12" d="M318.4,107.3l-1.1-2.8h-0.1c-0.9,1.2-1.9,2-2.9,2.4c-1,0.5-2.3,0.7-3.9,0.7c-1.9,0-3.5-0.6-4.6-1.7
			s-1.7-2.7-1.7-4.8c0-2.2,0.8-3.7,2.3-4.8c1.5-1,3.8-1.6,6.8-1.7l3.5-0.1v-0.9c0-2.1-1.1-3.1-3.2-3.1c-1.6,0-3.5,0.5-5.7,1.5
			l-1.8-3.7c2.3-1.2,4.9-1.8,7.8-1.8c2.7,0,4.8,0.6,6.3,1.8c1.5,1.2,2.2,3,2.2,5.4v13.5H318.4z M320.4,78.7c-0.1,1.9-0.8,3.4-2,4.5
			c-1.2,1.1-2.7,1.6-4.7,1.6c-2,0-3.6-0.5-4.7-1.6s-1.7-2.6-1.8-4.6h2.7c0.1,1.1,0.5,1.8,1.2,2.3c0.7,0.5,1.6,0.8,2.6,0.8
			s1.9-0.3,2.6-0.9c0.7-0.6,1.1-1.3,1.2-2.2H320.4z M316.8,97.9l-2.1,0.1c-1.6,0-2.8,0.3-3.6,0.9s-1.2,1.3-1.2,2.4
			c0,1.6,0.9,2.3,2.7,2.3c1.3,0,2.3-0.4,3.1-1.1c0.8-0.7,1.2-1.7,1.2-2.9V97.9z M312,79.6c0.8-1.3,1.6-2.5,2.1-3.6h4v0.4
			c-1.1,1.3-2.4,2.6-3.8,3.8H312V79.6z"/>
		<path class="st12" d="M346.1,107.3h-5.5V95.5c0-1.5-0.2-2.6-0.7-3.3c-0.5-0.7-1.3-1.1-2.3-1.1c-1.4,0-2.4,0.5-3.1,1.6
			c-0.6,1-1,2.8-1,5.1v9.5H328V87h4.2l0.7,2.6h0.3c0.5-0.9,1.3-1.7,2.4-2.2c1-0.5,2.2-0.8,3.5-0.8c3,0,5.1,1,6.2,3h0.5
			c0.5-0.9,1.3-1.7,2.4-2.2c1.1-0.5,2.3-0.8,3.6-0.8c2.3,0,4,0.6,5.2,1.8c1.2,1.2,1.8,3.1,1.8,5.7v13.2h-5.5V95.5
			c0-1.5-0.2-2.6-0.7-3.3c-0.5-0.7-1.3-1.1-2.3-1.1c-1.4,0-2.4,0.5-3,1.5c-0.7,1-1,2.5-1,4.6V107.3z"/>
		<path class="st12" d="M380.5,107.7c-2.4,0-4.3-0.9-5.6-2.8c-1.4-1.8-2-4.4-2-7.7c0-3.3,0.7-5.9,2.1-7.8c1.4-1.9,3.3-2.8,5.7-2.8
			c1.3,0,2.4,0.2,3.4,0.7c1,0.5,1.8,1.2,2.5,2.2h0.1l0.5-2.6h4.7v29.2h-5.5v-8.5c0-0.7,0.1-1.8,0.2-3h-0.2c-0.6,1-1.4,1.7-2.4,2.2
			S381.8,107.7,380.5,107.7z M382.5,103.3c1.4,0,2.4-0.4,3.1-1.2c0.7-0.8,1-2.2,1.1-4.2v-0.7c0-2.2-0.3-3.7-1-4.7
			c-0.7-0.9-1.7-1.4-3.2-1.4c-2.6,0-3.9,2-3.9,6.1c0,2,0.3,3.5,1,4.6C380.1,102.8,381.1,103.3,382.5,103.3z"/>
		<path class="st12" d="M412,107.3l-0.7-2.6h-0.3c-0.6,0.9-1.4,1.7-2.5,2.2c-1.1,0.5-2.3,0.8-3.7,0.8c-2.4,0-4.2-0.6-5.4-1.9
			c-1.2-1.3-1.8-3.1-1.8-5.5V87h5.5v11.8c0,1.5,0.3,2.6,0.8,3.3c0.5,0.7,1.3,1.1,2.5,1.1c1.5,0,2.7-0.5,3.4-1.6c0.7-1,1-2.7,1-5.1
			V87h5.5v20.3H412z"/>
		<path class="st12" d="M434.9,107.3l-1.1-2.8h-0.1c-0.9,1.2-1.9,2-2.9,2.4c-1,0.5-2.3,0.7-3.9,0.7c-1.9,0-3.5-0.6-4.6-1.7
			s-1.7-2.7-1.7-4.8c0-2.2,0.8-3.7,2.3-4.8c1.5-1,3.8-1.6,6.8-1.7l3.5-0.1v-0.9c0-2.1-1.1-3.1-3.2-3.1c-1.6,0-3.5,0.5-5.7,1.5
			l-1.8-3.7c2.3-1.2,4.9-1.8,7.8-1.8c2.7,0,4.8,0.6,6.3,1.8c1.5,1.2,2.2,3,2.2,5.4v13.5H434.9z M433.2,97.9l-2.1,0.1
			c-1.6,0-2.8,0.3-3.6,0.9s-1.2,1.3-1.2,2.4c0,1.6,0.9,2.3,2.7,2.3c1.3,0,2.3-0.4,3.1-1.1c0.8-0.7,1.2-1.7,1.2-2.9V97.9z"/>
		<path class="st12" d="M462.6,103.3c1,0,2.1-0.2,3.5-0.6v4.1c-1.4,0.6-3.1,0.9-5.1,0.9c-2.2,0-3.8-0.6-4.8-1.7
			c-1-1.1-1.5-2.8-1.5-5v-9.8H452v-2.3l3-1.8l1.6-4.3h3.5V87h5.7v4.2h-5.7v9.8c0,0.8,0.2,1.4,0.7,1.7
			C461.3,103.1,461.9,103.3,462.6,103.3z"/>
		<path class="st12" d="M488.9,107.3h-5.5V95.5c0-2.9-1.1-4.4-3.3-4.4c-1.5,0-2.7,0.5-3.4,1.6c-0.7,1.1-1,2.8-1,5.1v9.5h-5.5V79.1
			h5.5v5.7c0,0.4,0,1.5-0.1,3.2l-0.1,1.6h0.3c1.2-2,3.2-3,5.9-3c2.4,0,4.2,0.6,5.4,1.9c1.2,1.3,1.8,3.1,1.8,5.5V107.3z"/>
		<path class="st12" d="M494.4,81.8c0-1.8,1-2.7,3-2.7s3,0.9,3,2.7c0,0.9-0.3,1.5-0.8,2c-0.5,0.5-1.3,0.7-2.3,0.7
			C495.4,84.5,494.4,83.6,494.4,81.8z M500.1,107.3h-5.5V87h5.5V107.3z"/>
		<path class="st12" d="M515.1,107.7c-3.3,0-5.8-0.9-7.7-2.7c-1.8-1.8-2.8-4.4-2.8-7.7c0-3.4,0.8-6,2.5-7.9c1.7-1.9,4-2.8,7-2.8
			c2.9,0,5.1,0.8,6.7,2.4c1.6,1.6,2.4,3.9,2.4,6.8v2.7h-13.1c0.1,1.6,0.5,2.8,1.4,3.7c0.9,0.9,2.1,1.3,3.7,1.3
			c1.2,0,2.4-0.1,3.5-0.4c1.1-0.3,2.2-0.7,3.4-1.2v4.3c-1,0.5-2,0.8-3.1,1.1C518.1,107.5,516.7,107.7,515.1,107.7z M521.1,84.8h-2.9
			c-1.4-0.9-2.6-1.9-3.8-3c-1.4,1.2-2.7,2.2-3.8,3h-2.9v-0.5c1.4-1.6,2.7-3.3,3.9-5.1h5.7c0.6,0.9,1.4,1.9,2.2,3
			c0.8,1,1.4,1.7,1.7,2.1V84.8z M514.3,90.6c-1.2,0-2.1,0.4-2.8,1.1c-0.7,0.7-1,1.8-1.1,3.2h7.8c0-1.4-0.4-2.4-1.1-3.2
			C516.5,90.9,515.5,90.6,514.3,90.6z M519.5,80.8c1-1.1,1.9-2.3,2.5-3.6h4.4v0.4c-0.8,1.1-2.2,2.3-4.1,3.7h-2.8V80.8z"/>
		<path class="st12" d="M536.4,103.3c1,0,2.1-0.2,3.5-0.6v4.1c-1.4,0.6-3.1,0.9-5.1,0.9c-2.2,0-3.8-0.6-4.8-1.7
			c-1-1.1-1.5-2.8-1.5-5v-9.8h-2.6v-2.3l3-1.8l1.6-4.3h3.5V87h5.7v4.2H534v9.8c0,0.8,0.2,1.4,0.7,1.7
			C535.1,103.1,535.7,103.3,536.4,103.3z"/>
		<path class="st12" d="M564.9,86.6c2.4,0,4.3,0.9,5.6,2.8c1.4,1.9,2,4.4,2,7.7c0,3.3-0.7,5.9-2.1,7.8c-1.4,1.8-3.3,2.8-5.7,2.8
			c-2.4,0-4.2-0.9-5.6-2.6h-0.4l-0.9,2.2h-4.2V79.1h5.5v6.6c0,0.8-0.1,2.2-0.2,4h0.2C560.5,87.6,562.4,86.6,564.9,86.6z M563.2,91.1
			c-1.4,0-2.4,0.4-3,1.3c-0.6,0.8-1,2.2-1,4.2v0.6c0,2.2,0.3,3.7,1,4.7s1.7,1.4,3.1,1.4c1.1,0,2-0.5,2.7-1.6c0.7-1,1-2.6,1-4.6
			s-0.3-3.5-1-4.5C565.3,91.6,564.3,91.1,563.2,91.1z"/>
		<path class="st12" d="M576.9,112.4c0-1.8,1-2.7,3-2.7c2,0,3,0.9,3,2.7c0,0.9-0.3,1.5-0.8,2c-0.5,0.5-1.3,0.7-2.2,0.7
			C577.9,115.1,576.9,114.2,576.9,112.4z M576.9,81.8c0-1.8,1-2.7,3-2.7s3,0.9,3,2.7c0,0.9-0.3,1.5-0.8,2c-0.5,0.5-1.3,0.7-2.3,0.7
			C577.9,84.5,576.9,83.6,576.9,81.8z M582.7,107.3h-5.5V87h5.5V107.3z"/>
		<path class="st12" d="M604.6,107.7c-2.4,0-4.3-0.9-5.6-2.8c-1.4-1.8-2-4.4-2-7.7c0-3.3,0.7-5.9,2.1-7.8c1.4-1.9,3.3-2.8,5.7-2.8
			c2.6,0,4.5,1,5.8,3h0.2c-0.3-1.5-0.4-2.9-0.4-4v-6.5h5.5v28.2h-4.2l-1.1-2.6h-0.2C609.1,106.7,607.1,107.7,604.6,107.7z
			 M606.5,103.3c1.4,0,2.5-0.4,3.1-1.2c0.7-0.8,1-2.2,1.1-4.2v-0.6c0-2.2-0.3-3.7-1-4.7c-0.7-0.9-1.8-1.4-3.3-1.4
			c-1.2,0-2.2,0.5-2.9,1.6c-0.7,1-1,2.6-1,4.6c0,2,0.3,3.5,1,4.5C604.2,102.8,605.2,103.3,606.5,103.3z"/>
		<path class="st12" d="M621.4,81.8c0-1.8,1-2.7,3-2.7s3,0.9,3,2.7c0,0.9-0.3,1.5-0.8,2c-0.5,0.5-1.3,0.7-2.3,0.7
			C622.4,84.5,621.4,83.6,621.4,81.8z M627.2,107.3h-5.5V87h5.5V107.3z"/>
		<path class="st12" d="M649.1,107.7c-2.4,0-4.3-0.9-5.6-2.6s-2-4.2-2-7.3c0-3.2,0.7-5.6,2.1-7.4c1.4-1.7,3.3-2.6,5.7-2.6
			c2.6,0,4.5,1,5.8,3h0.2c-0.3-1.6-0.4-3-0.4-4.2v-0.9h-5.7V82h5.7v-2.9h5.5V82h2.8v3.6h-2.8v21.7h-4.2l-1.1-2.6h-0.2
			C653.6,106.7,651.6,107.7,649.1,107.7z M651,103.3c1.4,0,2.5-0.4,3.1-1.1c0.7-0.8,1-2,1.1-3.8v-0.5c0-2-0.3-3.4-1-4.3
			c-0.7-0.9-1.8-1.3-3.3-1.3c-1.2,0-2.2,0.5-2.9,1.4c-0.7,0.9-1,2.3-1,4.1c0,1.8,0.3,3.2,1,4.1S649.7,103.3,651,103.3z"/>
		<path class="st12" d="M685.2,97.1c0,3.3-0.9,5.9-2.6,7.7s-4.2,2.8-7.3,2.8c-1.9,0-3.7-0.4-5.2-1.3c-1.5-0.9-2.6-2.1-3.4-3.7
			c-0.8-1.6-1.2-3.5-1.2-5.6c0-3.3,0.9-5.9,2.6-7.7c1.7-1.8,4.2-2.8,7.3-2.8c1.9,0,3.7,0.4,5.2,1.3c1.5,0.8,2.6,2.1,3.4,3.6
			C684.8,93.1,685.2,95,685.2,97.1z M679.5,84.8c-1.9-1.1-3.3-2.2-4.2-3.2c-0.9,1-2.3,2-4.2,3.2h-3.7v-0.5c2.3-2.3,3.8-4.1,4.6-5.5
			h6.5c0.4,0.6,1,1.5,1.9,2.6c0.9,1.1,1.8,2,2.7,2.9v0.5H679.5z M671.2,97.1c0,2,0.3,3.5,1,4.6c0.7,1,1.7,1.5,3.2,1.5
			c1.5,0,2.5-0.5,3.2-1.5c0.6-1,1-2.5,1-4.6c0-2-0.3-3.5-1-4.5c-0.7-1-1.7-1.5-3.2-1.5c-1.5,0-2.5,0.5-3.2,1.5
			C671.5,93.6,671.2,95.1,671.2,97.1z M672.3,112.4c0-1.8,1-2.7,3-2.7s3,0.9,3,2.7c0,0.9-0.3,1.5-0.8,2c-0.5,0.5-1.3,0.7-2.2,0.7
			C673.3,115.1,672.3,114.2,672.3,112.4z"/>
		<path class="st12" d="M708.5,107.3h-5.5V95.5c0-1.5-0.3-2.6-0.8-3.3c-0.5-0.7-1.3-1.1-2.5-1.1c-1.5,0-2.7,0.5-3.4,1.6
			c-0.7,1-1,2.7-1,5.1v9.5h-5.5V87h4.2l0.7,2.6h0.3c0.6-1,1.5-1.7,2.5-2.2c1.1-0.5,2.3-0.8,3.7-0.8c2.4,0,4.1,0.6,5.4,1.9
			c1.2,1.3,1.8,3.1,1.8,5.5V107.3z"/>
		<path class="st12" d="M731.9,107.3c0,2.9-0.8,5.1-2.5,6.6c-1.7,1.5-4.2,2.3-7.6,2.3c-3,0-5.5-0.4-7.6-1.2v-4.4
			c2.5,1,5.1,1.6,7.9,1.6c2.8,0,4.3-1.5,4.3-4.6v-0.4l0.2-2.5h-0.2c-1.3,2-3.2,3-5.7,3c-2.4,0-4.3-0.9-5.6-2.8c-1.3-1.9-2-4.4-2-7.7
			c0-3.3,0.7-5.9,2.1-7.8c1.4-1.9,3.3-2.8,5.7-2.8c2.5,0,4.4,1,5.9,3h0.1l0.5-2.6h4.7V107.3z M722.5,103.3c1.5,0,2.6-0.4,3.2-1.3
			c0.6-0.9,1-2.2,1-4.1v-0.7c0-2.2-0.3-3.7-1-4.7c-0.7-0.9-1.7-1.4-3.2-1.4c-2.6,0-3.9,2-3.9,6.1c0,2,0.3,3.5,1,4.6
			C720.2,102.8,721.2,103.3,722.5,103.3z"/>
	</g>
</g>
</svg>