<!-- Generator: Adobe Illustrator 19.1.0, SVG Export Plug-In  -->
<svg version="1.1"
	 xmlns="http://www.w3.org/2000/svg" xmlns:xlink="http://www.w3.org/1999/xlink" xmlns:a="http://ns.adobe.com/AdobeSVGViewerExtensions/3.0/"
	 x="0px" y="0px" width="184.3px" height="129.1px" viewBox="0 0 184.3 129.1"
	 style="overflow:scroll;enable-background:new 0 0 184.3 129.1;" xml:space="preserve">
<style type="text/css">
	.st0{fill:#FF6633;}
	.st1{fill:#086A87;}
</style>
<defs>
</defs>
<g>
	<path class="st0" d="M39.2,36.9h-7.7V15.9l0.1-3.5l0.1-3.8c-1.3,1.3-2.2,2.1-2.7,2.5l-4.2,3.4l-3.7-4.6l11.7-9.3h6.3V36.9z"/>
	<path class="st0" d="M68.3,36.9h-7.7V15.9l0.1-3.5l0.1-3.8c-1.3,1.3-2.2,2.1-2.7,2.5L54,14.5l-3.7-4.6L62,0.5h6.3V36.9z"/>
	<path class="st0" d="M79.3,33.4c0-1.4,0.4-2.4,1.1-3.2s1.8-1.1,3.3-1.1c1.4,0,2.4,0.4,3.2,1.1c0.8,0.7,1.1,1.8,1.1,3.1
		c0,1.3-0.4,2.3-1.1,3.1c-0.8,0.8-1.8,1.1-3.2,1.1c-1.4,0-2.5-0.4-3.2-1.1C79.7,35.8,79.3,34.7,79.3,33.4z"/>
	<path class="st0" d="M106.3,13.7c3.5,0,6.3,1,8.4,3c2.1,2,3.1,4.7,3.1,8.1c0,4.1-1.3,7.2-3.8,9.4c-2.5,2.2-6.1,3.3-10.8,3.3
		c-4.1,0-7.3-0.7-9.8-2v-6.6c1.3,0.7,2.8,1.3,4.6,1.7s3.4,0.7,5,0.7c4.7,0,7-1.9,7-5.8c0-3.7-2.4-5.5-7.3-5.5
		c-0.9,0-1.9,0.1-2.9,0.3c-1.1,0.2-1.9,0.4-2.6,0.6l-3.1-1.6l1.4-18.6h19.7V7h-13l-0.7,7.1l0.9-0.2
		C103.5,13.8,104.8,13.7,106.3,13.7z"/>
	<path class="st0" d="M139,11.4c0,3.8-0.7,6.7-2.2,8.6c-1.5,1.9-3.6,2.9-6.5,2.9c-2.7,0-4.9-1-6.4-3c-1.5-2-2.2-4.8-2.2-8.5
		c0-7.6,2.9-11.4,8.6-11.4c2.8,0,5,1,6.5,3C138.3,4.9,139,7.7,139,11.4z M128,11.4c0,2.1,0.2,3.7,0.6,4.7c0.4,1,1,1.6,1.8,1.6
		c1.6,0,2.4-2.1,2.4-6.3c0-4.2-0.8-6.2-2.4-6.2c-0.8,0-1.4,0.5-1.8,1.5C128.2,7.8,128,9.3,128,11.4z M156.1,0.5L136,36.9h-6
		l20.2-36.4H156.1z M164.5,25.9c0,3.8-0.7,6.7-2.2,8.6c-1.5,1.9-3.6,2.9-6.5,2.9c-2.7,0-4.9-1-6.4-3c-1.5-2-2.2-4.8-2.2-8.5
		c0-7.6,2.9-11.4,8.6-11.4c2.8,0,5,1,6.5,3C163.8,19.5,164.5,22.3,164.5,25.9z M153.5,26c0,2.1,0.2,3.7,0.6,4.7c0.4,1,1,1.6,1.8,1.6
		c1.6,0,2.4-2.1,2.4-6.3c0-4.2-0.8-6.2-2.4-6.2c-0.8,0-1.4,0.5-1.8,1.5C153.7,22.3,153.5,23.9,153.5,26z"/>
	<path class="st1" d="M6.8,66c-1.5,0-2.7-0.6-3.6-1.8s-1.3-2.9-1.3-5c0-2.1,0.4-3.8,1.3-5s2.1-1.8,3.7-1.8c1.6,0,2.9,0.6,3.8,1.9
		h0.1c-0.2-1-0.3-1.8-0.3-2.6v-4.2h3.6v18.2h-2.7L10.7,64h-0.2C9.7,65.3,8.5,66,6.8,66z M8.1,63.1c0.9,0,1.6-0.3,2-0.8
		s0.7-1.4,0.7-2.7v-0.4c0-1.4-0.2-2.4-0.7-3S9,55.3,8,55.3c-0.8,0-1.4,0.3-1.9,1S5.5,58,5.5,59.2s0.2,2.3,0.7,2.9S7.2,63.1,8.1,63.1
		z"/>
	<path class="st1" d="M23.8,66c-2.1,0-3.8-0.6-4.9-1.7s-1.8-2.8-1.8-4.9c0-2.2,0.5-3.9,1.6-5.1s2.6-1.8,4.6-1.8
		c1.9,0,3.3,0.5,4.3,1.6s1.5,2.5,1.5,4.4v1.7h-8.4c0,1,0.3,1.8,0.9,2.4s1.4,0.9,2.4,0.9c0.8,0,1.5-0.1,2.2-0.2s1.4-0.4,2.2-0.8V65
		c-0.6,0.3-1.3,0.5-2,0.7S24.8,66,23.8,66z M27.7,51.2H26c-1.1-0.6-2-1.1-2.7-1.8c-0.6,0.6-1.6,1.2-2.7,1.8h-1.7v-0.3
		c1.3-1.3,2.3-2.3,2.8-3h3.2c0.4,0.5,0.8,1.1,1.3,1.6s1,1,1.5,1.5V51.2z M25,47.2c-0.3,0-0.7-0.1-1-0.2s-0.6-0.2-0.9-0.4
		s-0.5-0.2-0.8-0.4s-0.5-0.2-0.7-0.2c-0.3,0-0.6,0.1-0.8,0.2s-0.3,0.4-0.4,0.8H19c0.1-0.9,0.4-1.5,0.8-2s1-0.7,1.8-0.7
		c0.4,0,0.7,0.1,1,0.2s0.6,0.2,0.9,0.4s0.5,0.2,0.8,0.4s0.5,0.2,0.7,0.2c0.3,0,0.6-0.1,0.7-0.3s0.3-0.4,0.4-0.8h1.5
		c-0.1,0.9-0.4,1.6-0.8,2.1S25.7,47.2,25,47.2z M23.3,54.9c-0.8,0-1.4,0.2-1.8,0.7s-0.7,1.2-0.7,2h5c0-0.9-0.2-1.6-0.7-2
		S24,54.9,23.3,54.9z"/>
	<path class="st1" d="M42.4,66c-1.5,0-2.7-0.6-3.6-1.8s-1.3-2.9-1.3-5c0-2.1,0.4-3.8,1.3-5s2.1-1.8,3.7-1.8c1.6,0,2.9,0.6,3.8,1.9
		h0.1c-0.2-1-0.3-1.8-0.3-2.6v-4.2h3.6v18.2H47L46.3,64h-0.2C45.3,65.3,44.1,66,42.4,66z M43.7,63.1c0.9,0,1.6-0.3,2-0.8
		s0.7-1.4,0.7-2.7v-0.4c0-1.4-0.2-2.4-0.7-3s-1.1-0.9-2.1-0.9c-0.8,0-1.4,0.3-1.9,1s-0.7,1.7-0.7,2.9s0.2,2.3,0.7,2.9
		S42.8,63.1,43.7,63.1z"/>
	<path class="st1" d="M61.8,65.7l-0.7-1.8H61c-0.6,0.8-1.2,1.3-1.9,1.6S57.7,66,56.6,66c-1.3,0-2.2-0.4-3-1.1s-1.1-1.7-1.1-3.1
		c0-1.4,0.5-2.4,1.5-3.1s2.4-1,4.4-1.1l2.3-0.1V57c0-1.3-0.7-2-2-2c-1,0-2.3,0.3-3.7,0.9l-1.2-2.4c1.5-0.8,3.2-1.2,5-1.2
		c1.8,0,3.1,0.4,4,1.1s1.4,1.9,1.4,3.5v8.7H61.8z M58.8,51.2c-0.5-0.3-1.2-0.9-2.2-1.7s-1.7-1.4-2.2-1.9v-0.2h4
		c0.5,0.8,1.4,2,2.8,3.5v0.3H58.8z M60.7,59.7l-1.4,0c-1,0-1.8,0.2-2.3,0.6s-0.8,0.9-0.8,1.6c0,1,0.6,1.5,1.7,1.5
		c0.8,0,1.5-0.2,2-0.7s0.7-1.1,0.7-1.9V59.7z"/>
	<path class="st1" d="M80,65.7h-3.6v-7.7c0-0.9-0.2-1.7-0.5-2.1s-0.9-0.7-1.6-0.7c-1,0-1.7,0.3-2.2,1s-0.7,1.8-0.7,3.3v6.2h-3.6
		V52.6h2.7l0.5,1.7h0.2c0.4-0.6,0.9-1.1,1.6-1.4s1.5-0.5,2.4-0.5c1.5,0,2.7,0.4,3.5,1.2s1.2,2,1.2,3.6V65.7z"/>
	<path class="st1" d="M95.2,65.8c0,1.9-0.5,3.3-1.6,4.3s-2.7,1.5-4.9,1.5c-1.9,0-3.5-0.3-4.9-0.8v-2.9c1.6,0.7,3.3,1,5.1,1
		c1.8,0,2.8-1,2.8-3v-0.3l0.1-1.6h-0.1c-0.8,1.3-2.1,1.9-3.7,1.9c-1.6,0-2.8-0.6-3.7-1.8s-1.3-2.9-1.3-4.9c0-2.1,0.4-3.8,1.3-5
		s2.1-1.8,3.7-1.8c1.6,0,2.9,0.6,3.8,1.9h0.1l0.3-1.7h3V65.8z M89.1,63.2c1,0,1.6-0.3,2.1-0.8s0.6-1.4,0.6-2.7v-0.4
		c0-1.4-0.2-2.4-0.7-3s-1.1-0.9-2.1-0.9c-1.7,0-2.5,1.3-2.5,4c0,1.3,0.2,2.3,0.6,2.9S88.3,63.2,89.1,63.2z"/>
	<path class="st1" d="M104.2,59.2c0-2.1,0.3-4,0.9-5.8s1.5-3.4,2.6-4.7h2.9c-1.1,1.5-1.9,3.2-2.5,5s-0.8,3.7-0.8,5.6
		c0,1.9,0.3,3.8,0.9,5.5s1.4,3.4,2.5,4.8h-2.9c-1.1-1.3-2-2.9-2.6-4.7S104.2,61.2,104.2,59.2z"/>
	<path class="st1" d="M118.8,63.1c0.6,0,1.4-0.1,2.3-0.4v2.7c-0.9,0.4-2,0.6-3.3,0.6c-1.4,0-2.5-0.4-3.1-1.1s-1-1.8-1-3.3v-6.3h-1.7
		v-1.5l2-1.2l1-2.8h2.3v2.8h3.7v2.7h-3.7v6.3c0,0.5,0.1,0.9,0.4,1.1S118.3,63.1,118.8,63.1z"/>
	<path class="st1" d="M135.8,65.7h-3.6v-7.7c0-1.9-0.7-2.8-2.1-2.8c-1,0-1.7,0.3-2.2,1s-0.7,1.8-0.7,3.3v6.2h-3.6V47.5h3.6v3.7
		c0,0.3,0,1-0.1,2l-0.1,1.1h0.2c0.8-1.3,2.1-1.9,3.8-1.9c1.5,0,2.7,0.4,3.5,1.2s1.2,2,1.2,3.6V65.7z"/>
	<path class="st1" d="M151.4,59.2c0,2.1-0.6,3.8-1.7,5S147,66,145,66c-1.3,0-2.4-0.3-3.3-0.8s-1.7-1.3-2.2-2.4s-0.8-2.2-0.8-3.6
		c0-2.1,0.6-3.8,1.7-5s2.7-1.8,4.7-1.8c1.3,0,2.4,0.3,3.3,0.8s1.7,1.3,2.2,2.4S151.4,57.8,151.4,59.2z M147.7,51.2
		c-1.2-0.7-2.1-1.4-2.7-2.1c-0.6,0.6-1.5,1.3-2.7,2.1h-2.4v-0.3c1.5-1.5,2.5-2.7,3-3.5h4.2c0.2,0.4,0.7,1,1.3,1.7s1.2,1.3,1.7,1.9
		v0.3H147.7z M142.3,59.2c0,1.3,0.2,2.3,0.6,2.9s1.1,1,2.1,1c1,0,1.6-0.3,2.1-1s0.6-1.6,0.6-2.9c0-1.3-0.2-2.3-0.6-2.9s-1.1-1-2.1-1
		c-1,0-1.6,0.3-2.1,1S142.3,57.9,142.3,59.2z"/>
	<path class="st1" d="M166.4,65.7h-3.6v-7.7c0-0.9-0.2-1.7-0.5-2.1s-0.9-0.7-1.6-0.7c-1,0-1.7,0.3-2.2,1s-0.7,1.8-0.7,3.3v6.2h-3.6
		V52.6h2.7l0.5,1.7h0.2c0.4-0.6,0.9-1.1,1.6-1.4s1.5-0.5,2.4-0.5c1.5,0,2.7,0.4,3.5,1.2s1.2,2,1.2,3.6V65.7z"/>
	<path class="st1" d="M181.5,65.8c0,1.9-0.5,3.3-1.6,4.3s-2.7,1.5-4.9,1.5c-1.9,0-3.5-0.3-4.9-0.8v-2.9c1.6,0.7,3.3,1,5.1,1
		c1.8,0,2.8-1,2.8-3v-0.3l0.1-1.6H178c-0.8,1.3-2.1,1.9-3.7,1.9c-1.6,0-2.8-0.6-3.7-1.8s-1.3-2.9-1.3-4.9c0-2.1,0.4-3.8,1.3-5
		s2.1-1.8,3.7-1.8c1.6,0,2.9,0.6,3.8,1.9h0.1l0.3-1.7h3V65.8z M175.5,63.2c1,0,1.6-0.3,2.1-0.8s0.6-1.4,0.6-2.7v-0.4
		c0-1.4-0.2-2.4-0.7-3s-1.1-0.9-2.1-0.9c-1.7,0-2.5,1.3-2.5,4c0,1.3,0.2,2.3,0.6,2.9S174.6,63.2,175.5,63.2z"/>
	<path class="st1" d="M28.1,94.8c-1.5,0-2.8-0.6-3.6-1.8s-1.3-2.8-1.3-5c0-2.1,0.4-3.8,1.3-5s2.1-1.8,3.7-1.8c0.8,0,1.6,0.2,2.2,0.5
		s1.2,0.8,1.6,1.5h0.1l0.3-1.7h3v18.9h-3.6v-5.5c0-0.5,0.1-1.1,0.2-2h-0.2c-0.4,0.6-0.9,1.1-1.5,1.4S28.9,94.8,28.1,94.8z M29.4,92
		c0.9,0,1.6-0.3,2-0.8s0.7-1.4,0.7-2.7V88c0-1.4-0.2-2.4-0.7-3s-1.1-0.9-2.1-0.9c-1.7,0-2.5,1.3-2.5,4c0,1.3,0.2,2.3,0.6,2.9
		S28.5,92,29.4,92z"/>
	<path class="st1" d="M48.4,94.5l-0.5-1.7h-0.2c-0.4,0.6-0.9,1.1-1.6,1.4s-1.5,0.5-2.4,0.5c-1.5,0-2.7-0.4-3.5-1.2s-1.2-2-1.2-3.6
		v-8.5h3.6v7.7c0,0.9,0.2,1.7,0.5,2.1s0.9,0.7,1.6,0.7c1,0,1.7-0.3,2.2-1s0.7-1.8,0.7-3.3v-6.2h3.6v13.1H48.4z"/>
	<path class="st1" d="M63.2,94.5l-0.7-1.8h-0.1c-0.6,0.8-1.2,1.3-1.9,1.6s-1.5,0.4-2.5,0.4c-1.3,0-2.2-0.4-3-1.1S54,91.9,54,90.6
		c0-1.4,0.5-2.4,1.5-3.1s2.4-1,4.4-1.1l2.3-0.1v-0.6c0-1.3-0.7-2-2-2c-1,0-2.3,0.3-3.7,0.9l-1.2-2.4c1.5-0.8,3.2-1.2,5-1.2
		c1.8,0,3.1,0.4,4,1.1s1.4,1.9,1.4,3.5v8.7H63.2z M62.2,88.5l-1.4,0c-1,0-1.8,0.2-2.3,0.6s-0.8,0.9-0.8,1.6c0,1,0.6,1.5,1.7,1.5
		c0.8,0,1.5-0.2,2-0.7s0.7-1.1,0.7-1.9V88.5z"/>
	<path class="st1" d="M81,94.8c-4.1,0-6.1-2.2-6.1-6.7c0-2.2,0.6-3.9,1.7-5.1s2.7-1.8,4.8-1.8c1.5,0,2.9,0.3,4.1,0.9l-1.1,2.8
		c-0.6-0.2-1.1-0.4-1.6-0.6s-1-0.2-1.5-0.2c-1.9,0-2.8,1.3-2.8,4c0,2.6,0.9,3.8,2.8,3.8c0.7,0,1.3-0.1,1.9-0.3s1.2-0.5,1.8-0.9v3.1
		c-0.6,0.4-1.2,0.6-1.8,0.8S81.9,94.8,81,94.8z"/>
	<path class="st1" d="M96.3,94.5l-0.7-1.8h-0.1c-0.6,0.8-1.2,1.3-1.9,1.6s-1.5,0.4-2.5,0.4c-1.3,0-2.2-0.4-3-1.1s-1.1-1.7-1.1-3.1
		c0-1.4,0.5-2.4,1.5-3.1s2.4-1,4.4-1.1l2.3-0.1v-0.6c0-1.3-0.7-2-2-2c-1,0-2.3,0.3-3.7,0.9l-1.2-2.4c1.5-0.8,3.2-1.2,5-1.2
		c1.8,0,3.1,0.4,4,1.1s1.4,1.9,1.4,3.5v8.7H96.3z M95.2,88.5l-1.4,0c-1,0-1.8,0.2-2.3,0.6s-0.8,0.9-0.8,1.6c0,1,0.6,1.5,1.7,1.5
		c0.8,0,1.5-0.2,2-0.7s0.7-1.1,0.7-1.9V88.5z M91.3,80v-0.3c1.3-1.6,2.3-2.7,2.8-3.5h4v0.2c-0.4,0.4-1.1,1-2.1,1.8s-1.7,1.4-2.3,1.8
		H91.3z"/>
	<path class="st1" d="M107.8,94.8c-4.1,0-6.1-2.2-6.1-6.7c0-2.2,0.6-3.9,1.7-5.1s2.7-1.8,4.8-1.8c1.5,0,2.9,0.3,4.1,0.9l-1.1,2.8
		c-0.6-0.2-1.1-0.4-1.6-0.6s-1-0.2-1.5-0.2c-1.9,0-2.8,1.3-2.8,4c0,2.6,0.9,3.8,2.8,3.8c0.7,0,1.3-0.1,1.9-0.3s1.2-0.5,1.8-0.9v3.1
		c-0.6,0.4-1.2,0.6-1.8,0.8S108.7,94.8,107.8,94.8z"/>
	<path class="st1" d="M130.3,94.5l-0.5-1.7h-0.2c-0.4,0.6-0.9,1.1-1.6,1.4s-1.5,0.5-2.4,0.5c-1.5,0-2.7-0.4-3.5-1.2s-1.2-2-1.2-3.6
		v-8.5h3.6v7.7c0,0.9,0.2,1.7,0.5,2.1s0.9,0.7,1.6,0.7c1,0,1.7-0.3,2.2-1s0.7-1.8,0.7-3.3v-6.2h3.6v1.4c0.6-0.2,1-0.5,1.3-1.1
		s0.5-1.3,0.5-2.2h3.5l0.2,0.3c-0.3,1.2-0.6,2.2-1,2.8s-1,1.2-1.7,1.6s-1.6,0.7-2.7,0.8v9.6H130.3z M125.1,80v-0.3
		c1.3-1.6,2.3-2.7,2.8-3.5h4v0.2c-0.4,0.4-1.1,1-2.1,1.8s-1.7,1.4-2.3,1.8H125.1z"/>
	<path class="st1" d="M151.4,94.5h-3.6v-7.7c0-0.9-0.2-1.7-0.5-2.1s-0.9-0.7-1.6-0.7c-1,0-1.7,0.3-2.2,1s-0.7,1.8-0.7,3.3v6.2h-3.6
		V81.4h2.7l0.5,1.7h0.2c0.4-0.6,0.9-1.1,1.6-1.4s1.5-0.5,2.4-0.5c1.5,0,2.7,0.4,3.5,1.2s1.2,2,1.2,3.6V94.5z"/>
	<path class="st1" d="M166.5,94.6c0,1.9-0.5,3.3-1.6,4.3s-2.7,1.5-4.9,1.5c-1.9,0-3.5-0.3-4.9-0.8v-2.9c1.6,0.7,3.3,1,5.1,1
		c1.8,0,2.8-1,2.8-3v-0.3l0.1-1.6h-0.1c-0.8,1.3-2.1,1.9-3.7,1.9c-1.6,0-2.8-0.6-3.7-1.8s-1.3-2.9-1.3-4.9c0-2.1,0.4-3.8,1.3-5
		s2.1-1.8,3.7-1.8c1.6,0,2.9,0.6,3.8,1.9h0.1l0.3-1.7h3V94.6z M160.5,92c1,0,1.6-0.3,2.1-0.8s0.6-1.4,0.6-2.7V88
		c0-1.4-0.2-2.4-0.7-3s-1.1-0.9-2.1-0.9c-1.7,0-2.5,1.3-2.5,4c0,1.3,0.2,2.3,0.6,2.9S159.6,92,160.5,92z"/>
	<path class="st1" d="M4.9,123.6c-1.5,0-2.7-0.6-3.6-1.8s-1.3-2.9-1.3-5c0-2.1,0.4-3.8,1.3-5S3.5,110,5,110c1.6,0,2.9,0.6,3.8,1.9
		h0.1c-0.2-1-0.3-1.8-0.3-2.6v-4.2h3.6v18.2H9.5l-0.7-1.7H8.7C7.8,122.9,6.6,123.6,4.9,123.6z M6.2,120.7c0.9,0,1.6-0.3,2-0.8
		s0.7-1.4,0.7-2.7v-0.4c0-1.4-0.2-2.4-0.7-3s-1.1-0.9-2.1-0.9c-0.8,0-1.4,0.3-1.9,1s-0.7,1.7-0.7,2.9s0.2,2.3,0.7,2.9
		S5.4,120.7,6.2,120.7z"/>
	<path class="st1" d="M25.3,123.3l-0.5-1.7h-0.2c-0.4,0.6-0.9,1.1-1.6,1.4s-1.5,0.5-2.4,0.5c-1.5,0-2.7-0.4-3.5-1.2s-1.2-2-1.2-3.6
		v-8.5h3.6v7.7c0,0.9,0.2,1.7,0.5,2.1s0.9,0.7,1.6,0.7c1,0,1.7-0.3,2.2-1s0.7-1.8,0.7-3.3v-6.2H28v13.1H25.3z M20,126.6
		c0-1.2,0.6-1.8,1.9-1.8s1.9,0.6,1.9,1.8c0,0.6-0.2,1-0.5,1.3s-0.8,0.5-1.5,0.5C20.7,128.4,20,127.8,20,126.6z"/>
	<path class="st1" d="M43.9,123.3h-3.6v-7.7c0-0.9-0.2-1.7-0.5-2.1s-0.9-0.7-1.6-0.7c-1,0-1.7,0.3-2.2,1s-0.7,1.8-0.7,3.3v6.2h-3.6
		v-13.1h2.7l0.5,1.7h0.2c0.4-0.6,0.9-1.1,1.6-1.4s1.5-0.5,2.4-0.5c1.5,0,2.7,0.4,3.5,1.2s1.2,2,1.2,3.6V123.3z"/>
	<path class="st1" d="M59,123.4c0,1.9-0.5,3.3-1.6,4.3s-2.7,1.5-4.9,1.5c-1.9,0-3.5-0.3-4.9-0.8v-2.9c1.6,0.7,3.3,1,5.1,1
		c1.8,0,2.8-1,2.8-3v-0.3l0.1-1.6h-0.1c-0.8,1.3-2.1,1.9-3.7,1.9c-1.6,0-2.8-0.6-3.7-1.8s-1.3-2.9-1.3-4.9c0-2.1,0.4-3.8,1.3-5
		s2.1-1.8,3.7-1.8c1.6,0,2.9,0.6,3.8,1.9h0.1l0.3-1.7h3V123.4z M53,120.8c1,0,1.6-0.3,2.1-0.8s0.6-1.4,0.6-2.7v-0.4
		c0-1.4-0.2-2.4-0.7-3s-1.1-0.9-2.1-0.9c-1.7,0-2.5,1.3-2.5,4c0,1.3,0.2,2.3,0.6,2.9S52.1,120.8,53,120.8z"/>
	<path class="st1" d="M80.7,123.3h-3.6v-7.7c0-0.9-0.2-1.7-0.5-2.1s-0.8-0.7-1.5-0.7c-0.9,0-1.6,0.3-2,1s-0.6,1.8-0.6,3.3v6.2H69
		v-13.1h2.7l0.5,1.7h0.2c0.4-0.6,0.9-1.1,1.5-1.4s1.4-0.5,2.3-0.5c2,0,3.3,0.6,4,1.9h0.3c0.4-0.6,0.9-1.1,1.6-1.4s1.5-0.5,2.3-0.5
		c1.5,0,2.6,0.4,3.4,1.1s1.1,2,1.1,3.7v8.5h-3.6v-7.7c0-0.9-0.2-1.7-0.5-2.1s-0.8-0.7-1.5-0.7c-0.9,0-1.5,0.3-2,0.9s-0.7,1.6-0.7,3
		V123.3z"/>
	<path class="st1" d="M101.8,123.3l-0.5-1.7h-0.2c-0.4,0.6-0.9,1.1-1.6,1.4s-1.5,0.5-2.4,0.5c-1.5,0-2.7-0.4-3.5-1.2s-1.2-2-1.2-3.6
		v-8.5H96v7.7c0,0.9,0.2,1.7,0.5,2.1s0.9,0.7,1.6,0.7c1,0,1.7-0.3,2.2-1s0.7-1.8,0.7-3.3v-6.2h3.6v13.1H101.8z"/>
	<path class="st1" d="M116.6,123.3l-0.7-1.8h-0.1c-0.6,0.8-1.2,1.3-1.9,1.6s-1.5,0.4-2.5,0.4c-1.3,0-2.2-0.4-3-1.1s-1.1-1.7-1.1-3.1
		c0-1.4,0.5-2.4,1.5-3.1s2.4-1,4.4-1.1l2.3-0.1v-0.6c0-1.3-0.7-2-2-2c-1,0-2.3,0.3-3.7,0.9l-1.2-2.4c1.5-0.8,3.2-1.2,5-1.2
		c1.8,0,3.1,0.4,4,1.1s1.4,1.9,1.4,3.5v8.7H116.6z M115.6,117.3l-1.4,0c-1,0-1.8,0.2-2.3,0.6s-0.8,0.9-0.8,1.6c0,1,0.6,1.5,1.7,1.5
		c0.8,0,1.5-0.2,2-0.7s0.7-1.1,0.7-1.9V117.3z"/>
	<path class="st1" d="M138.2,119.4c0,1.3-0.5,2.4-1.4,3.1s-2.3,1.1-4.2,1.1c-1,0-1.8-0.1-2.4-0.2s-1.3-0.3-1.9-0.6v-3
		c0.7,0.3,1.4,0.6,2.2,0.8s1.6,0.3,2.2,0.3c1.3,0,1.9-0.4,1.9-1.1c0-0.3-0.1-0.5-0.3-0.7s-0.5-0.4-0.9-0.6s-1-0.5-1.7-0.8
		c-1-0.4-1.7-0.8-2.2-1.2s-0.8-0.8-1-1.2s-0.3-1-0.3-1.7c0-1.2,0.5-2.1,1.4-2.7s2.2-1,3.8-1c1.6,0,3.1,0.3,4.6,1l-1.1,2.6
		c-0.7-0.3-1.3-0.5-1.8-0.7s-1.2-0.3-1.7-0.3c-1.1,0-1.6,0.3-1.6,0.9c0,0.3,0.2,0.6,0.5,0.8s1.1,0.6,2.2,1c1,0.4,1.8,0.8,2.3,1.2
		s0.8,0.8,1.1,1.2S138.2,118.8,138.2,119.4z"/>
	<path class="st1" d="M149.3,123.3l-0.7-1.8h-0.1c-0.6,0.8-1.2,1.3-1.9,1.6s-1.5,0.4-2.5,0.4c-1.3,0-2.2-0.4-3-1.1s-1.1-1.7-1.1-3.1
		c0-1.4,0.5-2.4,1.5-3.1s2.4-1,4.4-1.1l2.3-0.1v-0.6c0-1.3-0.7-2-2-2c-1,0-2.3,0.3-3.7,0.9l-1.2-2.4c1.5-0.8,3.2-1.2,5-1.2
		c1.8,0,3.1,0.4,4,1.1s1.4,1.9,1.4,3.5v8.7H149.3z M150.6,104.8c-0.1,1.2-0.5,2.2-1.3,2.9s-1.8,1.1-3,1.1c-1.3,0-2.3-0.3-3-1
		s-1.1-1.7-1.2-3h1.8c0.1,0.7,0.3,1.2,0.8,1.5s1,0.5,1.7,0.5s1.3-0.2,1.7-0.6s0.7-0.8,0.8-1.4H150.6z M148.2,117.3l-1.4,0
		c-1,0-1.8,0.2-2.3,0.6s-0.8,0.9-0.8,1.6c0,1,0.6,1.5,1.7,1.5c0.8,0,1.5-0.2,2-0.7s0.7-1.1,0.7-1.9V117.3z M145.1,105.4
		c0.5-0.8,1-1.6,1.4-2.4h2.6v0.2c-0.7,0.9-1.5,1.7-2.4,2.4h-1.5V105.4z"/>
	<path class="st1" d="M167.2,123.3h-3.6v-7.7c0-0.9-0.2-1.7-0.5-2.1s-0.8-0.7-1.5-0.7c-0.9,0-1.6,0.3-2,1s-0.6,1.8-0.6,3.3v6.2h-3.6
		v-13.1h2.7l0.5,1.7h0.2c0.4-0.6,0.9-1.1,1.5-1.4s1.4-0.5,2.3-0.5c2,0,3.3,0.6,4,1.9h0.3c0.4-0.6,0.9-1.1,1.6-1.4s1.5-0.5,2.3-0.5
		c1.5,0,2.6,0.4,3.4,1.1s1.1,2,1.1,3.7v8.5h-3.6v-7.7c0-0.9-0.2-1.7-0.5-2.1s-0.8-0.7-1.5-0.7c-0.9,0-1.5,0.3-2,0.9s-0.7,1.6-0.7,3
		V123.3z"/>
	<path class="st1" d="M184.3,116.8c0,2.1-0.3,4-0.9,5.7s-1.5,3.3-2.6,4.6h-2.9c1.1-1.4,1.9-3,2.4-4.8s0.9-3.6,0.9-5.6
		c0-1.9-0.3-3.8-0.8-5.6s-1.4-3.5-2.5-5h2.9c1.1,1.4,2,3,2.6,4.8S184.3,114.7,184.3,116.8z"/>
</g>
</svg>