<!-- Generator: Adobe Illustrator 19.1.0, SVG Export Plug-In  -->
<svg version="1.1"
	 xmlns="http://www.w3.org/2000/svg" xmlns:xlink="http://www.w3.org/1999/xlink" xmlns:a="http://ns.adobe.com/AdobeSVGViewerExtensions/3.0/"
	 x="0px" y="0px" width="232.7px" height="276.1px" viewBox="0 0 232.7 276.1"
	 style="overflow:scroll;enable-background:new 0 0 232.7 276.1;" xml:space="preserve">
<style type="text/css">
	.st0{fill:#086A87;}
	.st1{fill:none;stroke:#33CCCC;stroke-width:4.9002;stroke-linecap:round;stroke-linejoin:round;stroke-miterlimit:10;}
	.st2{fill:#FF6633;}
</style>
<defs>
</defs>
<g>
	<path class="st0" d="M26.2,67.2l-5.7-18.5h-0.1c0.2,3.8,0.3,6.3,0.3,7.5v11h-4.5V43.7H23l5.6,18h0.1l5.9-18h6.8v23.6h-4.7V56.1
		c0-0.5,0-1.1,0-1.8s0.1-2.5,0.2-5.5h-0.1l-6.1,18.5H26.2z"/>
	<path class="st0" d="M59.7,67.2L59,64.9h-0.3c-0.5,0.8-1.3,1.5-2.2,1.9c-1,0.5-2.1,0.7-3.3,0.7c-2.1,0-3.7-0.6-4.8-1.7
		c-1.1-1.1-1.6-2.8-1.6-4.9V49.2h4.9v10.5c0,1.3,0.2,2.3,0.7,2.9c0.5,0.7,1.2,1,2.2,1c1.4,0,2.4-0.5,3-1.4c0.6-0.9,0.9-2.4,0.9-4.6
		v-8.5h4.9v1.9c0.8-0.2,1.4-0.7,1.8-1.5c0.4-0.8,0.6-1.8,0.6-3.1h4.9l0.2,0.4c-0.3,1.7-0.8,3-1.4,3.9s-1.4,1.6-2.3,2.2
		s-2.2,0.9-3.8,1.2v13.2H59.7z M52.4,47.2v-0.4c1.8-2.1,3.1-3.8,3.8-4.9h5.5v0.3c-0.6,0.6-1.5,1.4-2.9,2.5c-1.3,1.1-2.4,1.9-3.2,2.5
		H52.4z"/>
	<path class="st0" d="M79.3,67.6c-5.6,0-8.4-3.1-8.4-9.2c0-3.1,0.8-5.4,2.3-7c1.5-1.6,3.7-2.4,6.6-2.4c2.1,0,4,0.4,5.6,1.2l-1.5,3.8
		c-0.8-0.3-1.5-0.6-2.2-0.8c-0.7-0.2-1.3-0.3-2-0.3c-2.6,0-3.8,1.8-3.8,5.4c0,3.5,1.3,5.3,3.8,5.3c0.9,0,1.8-0.1,2.6-0.4
		c0.8-0.3,1.6-0.6,2.4-1.2v4.2c-0.8,0.5-1.6,0.9-2.4,1C81.6,67.5,80.5,67.6,79.3,67.6z"/>
	<path class="st0" d="M104.8,67.6c-5.6,0-8.4-3.1-8.4-9.2c0-3.1,0.8-5.4,2.3-7c1.5-1.6,3.7-2.4,6.6-2.4c2.1,0,4,0.4,5.6,1.2
		l-1.5,3.8c-0.8-0.3-1.5-0.6-2.2-0.8c-0.7-0.2-1.3-0.3-2-0.3c-2.6,0-3.8,1.8-3.8,5.4c0,3.5,1.3,5.3,3.8,5.3c0.9,0,1.8-0.1,2.6-0.4
		c0.8-0.3,1.6-0.6,2.4-1.2v4.2c-0.8,0.5-1.6,0.9-2.4,1C107.1,67.5,106.1,67.6,104.8,67.6z"/>
	<path class="st0" d="M131.1,67.2h-4.9V56.7c0-2.6-1-3.9-2.9-3.9c-1.4,0-2.4,0.5-3,1.4s-0.9,2.4-0.9,4.5v8.5h-4.9V42.2h4.9v5.1
		c0,0.4,0,1.3-0.1,2.8l-0.1,1.5h0.3c1.1-1.8,2.8-2.6,5.2-2.6c2.1,0,3.7,0.6,4.8,1.7s1.6,2.8,1.6,4.9V67.2z"/>
	<path class="st0" d="M136,44.6c0-1.6,0.9-2.4,2.7-2.4s2.7,0.8,2.7,2.4c0,0.8-0.2,1.4-0.7,1.8c-0.4,0.4-1.1,0.6-2,0.6
		C136.9,47,136,46.2,136,44.6z M141.1,67.2h-4.9v-18h4.9V67.2z"/>
	<path class="st0" d="M162.4,63.6c0.9,0,1.9-0.2,3.1-0.6v3.7c-1.2,0.5-2.7,0.8-4.5,0.8c-2,0-3.4-0.5-4.3-1.5c-0.9-1-1.3-2.5-1.3-4.5
		v-8.7H153v-2.1l2.7-1.6l1.4-3.8h3.1v3.8h5v3.7h-5v8.7c0,0.7,0.2,1.2,0.6,1.5C161.3,63.5,161.8,63.6,162.4,63.6z"/>
	<path class="st0" d="M168.9,44.6c0-1.6,0.9-2.4,2.7-2.4s2.7,0.8,2.7,2.4c0,0.8-0.2,1.4-0.7,1.8c-0.4,0.4-1.1,0.6-2,0.6
		C169.8,47,168.9,46.2,168.9,44.6z M174.1,67.2h-4.9v-18h4.9V67.2z"/>
	<path class="st0" d="M187.4,67.6c-2.9,0-5.2-0.8-6.8-2.4c-1.6-1.6-2.4-3.9-2.4-6.8c0-3,0.8-5.4,2.3-7c1.5-1.6,3.6-2.5,6.3-2.5
		c2.5,0,4.5,0.7,5.9,2.2s2.1,3.5,2.1,6v2.4h-11.6c0.1,1.4,0.5,2.5,1.2,3.3s1.9,1.2,3.3,1.2c1.1,0,2.1-0.1,3.1-0.3s2-0.6,3-1.1v3.8
		c-0.9,0.4-1.8,0.8-2.8,1C190,67.5,188.8,67.6,187.4,67.6z M190.5,47.2c-1.7-1-2.9-1.9-3.8-2.8c-0.8,0.9-2.1,1.8-3.7,2.8h-3.3v-0.4
		c2-2,3.4-3.6,4.1-4.9h5.8c0.3,0.6,0.9,1.3,1.7,2.3c0.8,1,1.6,1.8,2.4,2.6v0.4H190.5z M186.7,52.4c-1,0-1.9,0.3-2.4,1
		c-0.6,0.7-0.9,1.6-1,2.8h6.9c0-1.2-0.3-2.2-1-2.8C188.5,52.7,187.7,52.4,186.7,52.4z"/>
	<path class="st0" d="M211.5,67.2l-0.7-2.3h-0.3c-0.5,0.8-1.3,1.5-2.2,1.9c-1,0.5-2.1,0.7-3.3,0.7c-2.1,0-3.7-0.6-4.8-1.7
		c-1.1-1.1-1.6-2.8-1.6-4.9V49.2h4.9v10.5c0,1.3,0.2,2.3,0.7,2.9c0.5,0.7,1.2,1,2.2,1c1.4,0,2.4-0.5,3-1.4c0.6-0.9,0.9-2.4,0.9-4.6
		v-8.5h4.9v18H211.5z"/>
	<path class="st0" d="M32,112.4c0.9,0,1.9-0.2,3.1-0.6v3.7c-1.2,0.5-2.7,0.8-4.5,0.8c-2,0-3.4-0.5-4.3-1.5c-0.9-1-1.3-2.5-1.3-4.5
		v-8.7h-2.4v-2.1l2.7-1.6l1.4-3.8h3.1v3.8h5v3.7h-5v8.7c0,0.7,0.2,1.2,0.6,1.5C30.8,112.2,31.3,112.4,32,112.4z"/>
	<path class="st0" d="M48.8,97.6c0.7,0,1.2,0,1.7,0.1l-0.4,4.6c-0.4-0.1-0.9-0.2-1.5-0.2c-1.6,0-2.8,0.4-3.7,1.2
		c-0.9,0.8-1.3,1.9-1.3,3.4v9.2h-4.9v-18h3.7l0.7,3h0.2c0.6-1,1.3-1.8,2.3-2.4C46.6,97.9,47.6,97.6,48.8,97.6z"/>
	<path class="st0" d="M66.4,116l-0.7-2.3h-0.3c-0.5,0.8-1.3,1.5-2.2,1.9c-1,0.5-2.1,0.7-3.3,0.7c-2.1,0-3.7-0.6-4.8-1.7
		c-1.1-1.1-1.6-2.8-1.6-4.9V97.9h4.9v10.5c0,1.3,0.2,2.3,0.7,2.9c0.5,0.7,1.2,1,2.2,1c1.4,0,2.4-0.5,3-1.4c0.6-0.9,0.9-2.4,0.9-4.6
		v-8.5h4.9v18H66.4z"/>
	<path class="st0" d="M92,116h-4.9v-10.5c0-1.3-0.2-2.3-0.7-2.9c-0.5-0.7-1.2-1-2.2-1c-1.4,0-2.4,0.5-3,1.4
		c-0.6,0.9-0.9,2.4-0.9,4.6v8.5h-4.9v-18h3.8l0.7,2.3h0.3c0.5-0.9,1.3-1.5,2.3-2c1-0.4,2.1-0.7,3.3-0.7c2.1,0,3.7,0.6,4.8,1.7
		c1.1,1.1,1.6,2.8,1.6,4.9V116z"/>
	<path class="st0" d="M112.8,116c0,2.6-0.8,4.6-2.3,5.9c-1.5,1.3-3.8,2-6.7,2c-2.6,0-4.9-0.4-6.7-1.1v-3.9c2.2,0.9,4.5,1.4,7,1.4
		c2.5,0,3.8-1.4,3.8-4.1v-0.4l0.1-2.2h-0.1c-1.1,1.8-2.9,2.7-5.1,2.7c-2.2,0-3.8-0.8-5-2.5c-1.2-1.7-1.8-3.9-1.8-6.8
		c0-3,0.6-5.3,1.8-6.9c1.2-1.6,2.9-2.5,5.1-2.5c2.2,0,4,0.9,5.2,2.6h0.1l0.4-2.3h4.2V116z M104.5,112.4c1.3,0,2.3-0.4,2.8-1.1
		c0.6-0.8,0.9-2,0.9-3.7V107c0-1.9-0.3-3.3-0.9-4.1c-0.6-0.8-1.6-1.3-2.9-1.3c-2.3,0-3.5,1.8-3.5,5.4c0,1.8,0.3,3.2,0.9,4
		C102.4,112,103.3,112.4,104.5,112.4z"/>
	<path class="st0" d="M136.5,97.6c2.1,0,3.8,0.8,5,2.5c1.2,1.7,1.8,3.9,1.8,6.8c0,3-0.6,5.3-1.9,6.9s-2.9,2.4-5.1,2.4
		c-2.1,0-3.8-0.8-5-2.3h-0.3l-0.8,2h-3.8V90.9h4.9v5.8c0,0.7-0.1,1.9-0.2,3.6h0.2C132.6,98.5,134.3,97.6,136.5,97.6z M135,101.5
		c-1.2,0-2.1,0.4-2.7,1.1c-0.6,0.7-0.8,2-0.9,3.7v0.5c0,1.9,0.3,3.3,0.9,4.2c0.6,0.8,1.5,1.3,2.7,1.3c1,0,1.8-0.5,2.4-1.4
		c0.6-0.9,0.9-2.3,0.9-4.1s-0.3-3.1-0.9-4C136.8,102,136,101.5,135,101.5z"/>
	<path class="st0" d="M149.2,96c-0.7-0.5-1.7-1.2-3-2.3c-1.3-1.1-2.3-1.9-3.1-2.7v-0.3h5.5c0.7,1.1,1.9,2.7,3.8,4.9V96H149.2z
		 M152.3,116h-4.9v-18h4.9V116z"/>
	<path class="st0" d="M174.1,116h-4.9v-10.5c0-1.3-0.2-2.3-0.7-2.9c-0.5-0.7-1.2-1-2.2-1c-1.4,0-2.4,0.5-3,1.4
		c-0.6,0.9-0.9,2.4-0.9,4.6v8.5h-4.9v-18h3.8l0.7,2.3h0.3c0.5-0.9,1.3-1.5,2.3-2c1-0.4,2.1-0.7,3.3-0.7c2.1,0,3.7,0.6,4.8,1.7
		c1.1,1.1,1.6,2.8,1.6,4.9V116z"/>
	<path class="st0" d="M195.8,116h-4.9v-10.5c0-2.6-1-3.9-2.9-3.9c-1.4,0-2.4,0.5-3,1.4s-0.9,2.4-0.9,4.5v8.5h-4.9V90.9h4.9V96
		c0,0.4,0,1.3-0.1,2.8l-0.1,1.5h0.3c1.1-1.8,2.8-2.6,5.2-2.6c2.1,0,3.7,0.6,4.8,1.7s1.6,2.8,1.6,4.9V116z"/>
</g>
<rect x="2.5" y="2.5" class="st1" width="227.8" height="271.2"/>
<g>
	<path class="st2" d="M110.8,230.2v-10.2c-13.3-1.8-19.6-11.5-20.5-19.6l11.9-2.9c0.6,6,4.6,11.6,13.4,11.6c6.2,0,9.8-3,9.8-7.2
		c0-3.3-2.4-5.7-7.2-6.8l-8.8-1.9c-10.3-2.3-16.7-8.8-16.7-18c0-10.1,7.8-17.6,18.1-19.2v-10.2h9.8v10.5c11,2,15.8,9.7,17.1,16.1
		l-11.8,3.3c-0.6-3.3-3.1-8.9-10.9-8.9c-6.1,0-9.5,3.5-9.5,7.5c0,3,2.1,5.5,6.6,6.4l8.7,2c12,2.7,17.5,9.8,17.5,18.5
		c0,8.8-6.3,16.9-17.8,18.7v10.3H110.8z"/>
</g>
</svg>