<!-- Generator: Adobe Illustrator 19.0.0, SVG Export Plug-In  -->
<svg version="1.1"
	 xmlns="http://www.w3.org/2000/svg" xmlns:xlink="http://www.w3.org/1999/xlink" xmlns:a="http://ns.adobe.com/AdobeSVGViewerExtensions/3.0/"
	 x="0px" y="0px" width="203px" height="203px" viewBox="0 0 203 203" style="enable-background:new 0 0 203 203;"
	 xml:space="preserve">
<style type="text/css">
	.st0{fill:#E0E0E0;stroke:#15103F;stroke-width:3;stroke-miterlimit:10;}
	.st1{fill:#EE2361;stroke:#15103F;stroke-width:3;stroke-miterlimit:10;}
	.st2{fill:#FFFFFF;}
	.st3{fill:#F9F9F8;stroke:#15103F;stroke-width:3;stroke-miterlimit:10;}
	.st4{fill:#EE2361;stroke:#15103F;stroke-width:3;stroke-linecap:round;stroke-linejoin:round;stroke-miterlimit:10;}
</style>
<defs>
</defs>
<g>
	<rect x="1.5" y="1.5" class="st0" width="200" height="200"/>
	<rect x="1.5" y="1.5" class="st1" width="200" height="100"/>
	<g>
		<g>
			<path class="st2" d="M58.4,21.4c0,0.8-0.3,1.4-0.8,1.8s-1.3,0.7-2.3,0.7c-0.9,0-1.7-0.2-2.4-0.5v-1.7c0.6,0.3,1.1,0.4,1.5,0.5
				s0.8,0.2,1.1,0.2c0.4,0,0.7-0.1,0.9-0.2s0.3-0.4,0.3-0.7c0-0.2,0-0.3-0.1-0.4s-0.2-0.3-0.4-0.4s-0.6-0.3-1.1-0.6
				c-0.5-0.2-0.9-0.5-1.2-0.7s-0.5-0.5-0.6-0.8s-0.2-0.7-0.2-1.1c0-0.8,0.3-1.4,0.8-1.8s1.2-0.7,2.1-0.7c0.4,0,0.9,0.1,1.3,0.2
				s0.8,0.3,1.3,0.4l-0.6,1.4c-0.5-0.2-0.8-0.3-1.1-0.4s-0.6-0.1-0.9-0.1c-0.3,0-0.6,0.1-0.8,0.2s-0.3,0.4-0.3,0.6
				c0,0.2,0,0.3,0.1,0.4s0.2,0.2,0.4,0.3s0.5,0.3,1.2,0.6c0.8,0.4,1.3,0.8,1.6,1.2S58.4,20.8,58.4,21.4z"/>
			<path class="st2" d="M62.6,22.5c0.3,0,0.7-0.1,1.1-0.2v1.3c-0.4,0.2-1,0.3-1.6,0.3c-0.7,0-1.2-0.2-1.6-0.5S60,22.5,60,21.7v-3.2
				h-0.9v-0.8l1-0.6l0.5-1.4h1.1v1.4h1.8v1.3h-1.8v3.2c0,0.3,0.1,0.4,0.2,0.6S62.4,22.5,62.6,22.5z"/>
			<path class="st2" d="M68.7,17.1c0.2,0,0.4,0,0.6,0.1l-0.1,1.7c-0.1,0-0.3-0.1-0.5-0.1c-0.6,0-1,0.1-1.3,0.4s-0.5,0.7-0.5,1.2v3.3
				H65v-6.6h1.4l0.3,1.1h0.1c0.2-0.4,0.5-0.7,0.8-0.9S68.3,17.1,68.7,17.1z"/>
			<path class="st2" d="M74.5,23.8l-0.3-0.9h0c-0.3,0.4-0.6,0.6-0.9,0.8s-0.7,0.2-1.2,0.2c-0.6,0-1.1-0.2-1.5-0.5s-0.5-0.9-0.5-1.5
				c0-0.7,0.2-1.2,0.7-1.5s1.2-0.5,2.2-0.5l1.1,0v-0.3c0-0.7-0.3-1-1-1c-0.5,0-1.1,0.2-1.8,0.5l-0.6-1.2c0.8-0.4,1.6-0.6,2.5-0.6
				c0.9,0,1.6,0.2,2,0.6s0.7,1,0.7,1.7v4.4H74.5z M74,20.7l-0.7,0c-0.5,0-0.9,0.1-1.2,0.3s-0.4,0.4-0.4,0.8c0,0.5,0.3,0.8,0.9,0.8
				c0.4,0,0.7-0.1,1-0.4s0.4-0.6,0.4-0.9V20.7z"/>
			<path class="st2" d="M83,23.8l-0.5-2.3l-0.7-2.9h-0.1l-1.2,5.2h-1.9l-1.9-6.6h1.8l0.8,2.9c0.1,0.3,0.2,1.1,0.4,2.2h0
				c0-0.3,0.1-0.8,0.2-1.4l0.1-0.5l0.8-3.1h2l0.8,3.1c0,0.2,0.1,0.5,0.2,0.9s0.1,0.7,0.1,1h0c0-0.3,0.1-0.7,0.2-1.2s0.1-0.8,0.2-1
				l0.8-2.9h1.8l-1.9,6.6H83z"/>
			<path class="st2" d="M91.5,17.1c0.8,0,1.4,0.3,1.8,0.9s0.7,1.4,0.7,2.5c0,1.1-0.2,1.9-0.7,2.5s-1.1,0.9-1.8,0.9
				c-0.8,0-1.4-0.3-1.8-0.8h-0.1l-0.3,0.7h-1.4v-9.1h1.8v2.1c0,0.3,0,0.7-0.1,1.3h0.1C90.1,17.4,90.7,17.1,91.5,17.1z M91,18.5
				c-0.4,0-0.8,0.1-1,0.4s-0.3,0.7-0.3,1.3v0.2c0,0.7,0.1,1.2,0.3,1.5s0.5,0.5,1,0.5c0.4,0,0.7-0.2,0.9-0.5s0.3-0.8,0.3-1.5
				s-0.1-1.1-0.3-1.5S91.3,18.5,91,18.5z"/>
			<path class="st2" d="M98.4,23.9c-1.1,0-1.9-0.3-2.5-0.9s-0.9-1.4-0.9-2.5c0-1.1,0.3-1.9,0.8-2.5s1.3-0.9,2.3-0.9
				c0.9,0,1.6,0.3,2.2,0.8s0.8,1.3,0.8,2.2V21h-4.2c0,0.5,0.2,0.9,0.5,1.2s0.7,0.4,1.2,0.4c0.4,0,0.8,0,1.1-0.1s0.7-0.2,1.1-0.4v1.4
				c-0.3,0.2-0.6,0.3-1,0.3S99,23.9,98.4,23.9z M98.2,18.4c-0.4,0-0.7,0.1-0.9,0.4s-0.3,0.6-0.4,1h2.5c0-0.4-0.1-0.8-0.3-1
				S98.6,18.4,98.2,18.4z"/>
			<path class="st2" d="M106.2,17.1c0.2,0,0.4,0,0.6,0.1l-0.1,1.7c-0.1,0-0.3-0.1-0.5-0.1c-0.6,0-1,0.1-1.3,0.4s-0.5,0.7-0.5,1.2
				v3.3h-1.8v-6.6h1.4l0.3,1.1h0.1c0.2-0.4,0.5-0.7,0.8-0.9S105.8,17.1,106.2,17.1z"/>
			<path class="st2" d="M111.7,17.1c0.2,0,0.4,0,0.6,0.1l-0.1,1.7c-0.1,0-0.3-0.1-0.5-0.1c-0.6,0-1,0.1-1.3,0.4s-0.5,0.7-0.5,1.2
				v3.3H108v-6.6h1.4l0.3,1.1h0.1c0.2-0.4,0.5-0.7,0.8-0.9S111.3,17.1,111.7,17.1z"/>
			<path class="st2" d="M112.5,17.2h2l1.2,3.7c0.1,0.3,0.2,0.7,0.2,1.1h0c0-0.4,0.1-0.8,0.3-1.1l1.2-3.7h1.9l-2.8,7.4
				c-0.3,0.7-0.6,1.2-1.1,1.5s-1,0.5-1.6,0.5c-0.3,0-0.6,0-0.9-0.1v-1.4c0.2,0.1,0.4,0.1,0.7,0.1c0.3,0,0.6-0.1,0.8-0.3
				s0.4-0.5,0.6-0.9l0.1-0.3L112.5,17.2z"/>
			<path class="st2" d="M119.8,22.9c0-0.3,0.1-0.6,0.3-0.7s0.4-0.3,0.8-0.3c0.3,0,0.6,0.1,0.8,0.3s0.3,0.4,0.3,0.7
				c0,0.3-0.1,0.6-0.3,0.7s-0.4,0.3-0.8,0.3c-0.3,0-0.6-0.1-0.8-0.3S119.8,23.3,119.8,22.9z"/>
			<path class="st2" d="M129.5,23.8h-1.8V20c0-0.5-0.1-0.8-0.3-1.1s-0.4-0.4-0.8-0.4c-0.5,0-0.9,0.2-1.1,0.5s-0.3,0.9-0.3,1.7v3.1
				h-1.8v-6.6h1.4l0.2,0.8h0.1c0.2-0.3,0.5-0.6,0.8-0.7s0.7-0.2,1.2-0.2c0.8,0,1.3,0.2,1.7,0.6s0.6,1,0.6,1.8V23.8z"/>
			<path class="st2" d="M134.3,23.9c-1.1,0-1.9-0.3-2.5-0.9s-0.9-1.4-0.9-2.5c0-1.1,0.3-1.9,0.8-2.5s1.3-0.9,2.3-0.9
				c0.9,0,1.6,0.3,2.2,0.8s0.8,1.3,0.8,2.2V21h-4.2c0,0.5,0.2,0.9,0.5,1.2s0.7,0.4,1.2,0.4c0.4,0,0.8,0,1.1-0.1s0.7-0.2,1.1-0.4v1.4
				c-0.3,0.2-0.6,0.3-1,0.3S134.8,23.9,134.3,23.9z M134.1,18.4c-0.4,0-0.7,0.1-0.9,0.4s-0.3,0.6-0.4,1h2.5c0-0.4-0.1-0.8-0.3-1
				S134.5,18.4,134.1,18.4z"/>
			<path class="st2" d="M141.2,22.5c0.3,0,0.7-0.1,1.1-0.2v1.3c-0.4,0.2-1,0.3-1.6,0.3c-0.7,0-1.2-0.2-1.6-0.5s-0.5-0.9-0.5-1.6
				v-3.2h-0.9v-0.8l1-0.6l0.5-1.4h1.1v1.4h1.8v1.3h-1.8v3.2c0,0.3,0.1,0.4,0.2,0.6S141,22.5,141.2,22.5z"/>
		</g>
	</g>
	<g>
		<path class="st2" d="M39.9,55.3c-0.6,0-1.1-0.1-1.6-0.2v-2.3c0.5,0.1,0.9,0.2,1.3,0.2c0.6,0,1-0.2,1.3-0.6
			c0.3-0.4,0.4-0.9,0.4-1.7v-12h2.7v11.9c0,1.5-0.3,2.6-1,3.4C42.2,54.9,41.2,55.3,39.9,55.3z"/>
		<path class="st2" d="M53.1,51.5l-0.5-1.3h-0.1c-0.4,0.6-0.9,1-1.4,1.2c-0.5,0.2-1.1,0.3-1.9,0.3c-0.9,0-1.7-0.3-2.2-0.8
			c-0.5-0.5-0.8-1.3-0.8-2.3c0-1,0.4-1.8,1.1-2.3c0.7-0.5,1.8-0.8,3.3-0.8l1.7-0.1V45c0-1-0.5-1.5-1.5-1.5c-0.8,0-1.7,0.2-2.8,0.7
			l-0.9-1.8c1.1-0.6,2.4-0.9,3.7-0.9c1.3,0,2.3,0.3,3,0.9s1,1.4,1,2.6v6.5H53.1z M52.3,47l-1,0c-0.8,0-1.3,0.2-1.7,0.4
			S49,48.1,49,48.6c0,0.8,0.4,1.1,1.3,1.1c0.6,0,1.1-0.2,1.5-0.5c0.4-0.4,0.6-0.8,0.6-1.4V47z"/>
		<path class="st2" d="M66.7,51.5h-2.7v-5.7c0-0.7-0.1-1.2-0.4-1.6c-0.3-0.4-0.6-0.5-1.2-0.5c-0.7,0-1.3,0.2-1.6,0.7
			c-0.3,0.5-0.5,1.3-0.5,2.5v4.6h-2.7v-9.8h2l0.4,1.2h0.1c0.3-0.5,0.7-0.8,1.2-1.1c0.5-0.2,1.1-0.4,1.8-0.4c1.1,0,2,0.3,2.6,0.9
			c0.6,0.6,0.9,1.5,0.9,2.7V51.5z"/>
		<path class="st2" d="M76.4,51.5L76,50.3h-0.1c-0.3,0.5-0.7,0.8-1.2,1.1s-1.1,0.4-1.8,0.4c-1.1,0-2-0.3-2.6-0.9
			c-0.6-0.6-0.9-1.5-0.9-2.6v-6.4h2.7v5.7c0,0.7,0.1,1.2,0.4,1.6c0.3,0.4,0.6,0.5,1.2,0.5c0.7,0,1.3-0.2,1.6-0.7
			c0.3-0.5,0.5-1.3,0.5-2.5v-4.6h2.7v9.8H76.4z"/>
		<path class="st2" d="M87.4,51.5l-0.5-1.3h-0.1c-0.4,0.6-0.9,1-1.4,1.2c-0.5,0.2-1.1,0.3-1.9,0.3c-0.9,0-1.7-0.3-2.2-0.8
			c-0.5-0.5-0.8-1.3-0.8-2.3c0-1,0.4-1.8,1.1-2.3c0.7-0.5,1.8-0.8,3.3-0.8l1.7-0.1V45c0-1-0.5-1.5-1.5-1.5c-0.8,0-1.7,0.2-2.8,0.7
			l-0.9-1.8c1.1-0.6,2.4-0.9,3.7-0.9c1.3,0,2.3,0.3,3,0.9c0.7,0.6,1,1.4,1,2.6v6.5H87.4z M86.6,47l-1,0c-0.8,0-1.3,0.2-1.7,0.4
			c-0.4,0.3-0.6,0.6-0.6,1.2c0,0.8,0.4,1.1,1.3,1.1c0.6,0,1.1-0.2,1.5-0.5c0.4-0.4,0.6-0.8,0.6-1.4V47z"/>
		<path class="st2" d="M97.5,41.6c0.4,0,0.7,0,0.9,0.1l-0.2,2.5c-0.2-0.1-0.5-0.1-0.8-0.1c-0.8,0-1.5,0.2-2,0.7s-0.7,1-0.7,1.8v5H92
			v-9.8h2l0.4,1.6h0.1c0.3-0.5,0.7-1,1.2-1.3C96.3,41.7,96.9,41.6,97.5,41.6z"/>
		<path class="st2" d="M98.7,41.7h2.9l1.8,5.5c0.2,0.5,0.3,1,0.3,1.7h0.1c0.1-0.6,0.2-1.2,0.4-1.7l1.8-5.5h2.9l-4.1,11
			c-0.4,1-0.9,1.8-1.6,2.3s-1.5,0.8-2.5,0.8c-0.5,0-0.9,0-1.4-0.1v-2.1c0.3,0.1,0.7,0.1,1,0.1c0.5,0,0.9-0.1,1.2-0.4
			s0.6-0.7,0.8-1.3l0.2-0.5L98.7,41.7z"/>
		<path class="st2" d="M120.1,51.5h-2.7V41h-3.5v-2.3h9.6V41h-3.5V51.5z"/>
		<path class="st2" d="M133.6,46.6c0,1.6-0.4,2.8-1.3,3.7c-0.8,0.9-2,1.3-3.5,1.3c-0.9,0-1.8-0.2-2.5-0.6s-1.3-1-1.7-1.8
			c-0.4-0.8-0.6-1.7-0.6-2.7c0-1.6,0.4-2.8,1.2-3.7s2-1.3,3.5-1.3c0.9,0,1.8,0.2,2.5,0.6c0.7,0.4,1.3,1,1.7,1.8
			C133.4,44.7,133.6,45.6,133.6,46.6z M126.8,46.6c0,1,0.2,1.7,0.5,2.2c0.3,0.5,0.8,0.7,1.5,0.7c0.7,0,1.2-0.2,1.5-0.7
			c0.3-0.5,0.5-1.2,0.5-2.2c0-1-0.2-1.7-0.5-2.2c-0.3-0.5-0.8-0.7-1.5-0.7c-0.7,0-1.2,0.2-1.5,0.7C127,44.9,126.8,45.6,126.8,46.6z"
			/>
		<path class="st2" d="M141.1,51.7c-1.1,0-2-0.4-2.7-1.2h-0.1c0.1,0.8,0.1,1.3,0.1,1.4v4h-2.7V41.7h2.2l0.4,1.3h0.1
			c0.6-1,1.5-1.4,2.8-1.4c1.2,0,2.1,0.4,2.7,1.3c0.7,0.9,1,2.1,1,3.7c0,1-0.2,1.9-0.5,2.7c-0.3,0.8-0.7,1.4-1.3,1.8
			S141.9,51.7,141.1,51.7z M140.3,43.7c-0.7,0-1.1,0.2-1.4,0.6c-0.3,0.4-0.5,1.1-0.5,2v0.3c0,1,0.2,1.8,0.5,2.3
			c0.3,0.5,0.8,0.7,1.5,0.7c1.2,0,1.8-1,1.8-3c0-1-0.1-1.7-0.4-2.2C141.4,43.9,141,43.7,140.3,43.7z"/>
		<path class="st2" d="M160.2,48.9h-1.5v2.6h-2.6v-2.6h-5.4V47l5.6-8.2h2.5v8h1.5V48.9z M156.1,46.8v-2.2c0-0.4,0-0.9,0-1.6
			s0.1-1.1,0.1-1.2h-0.1c-0.2,0.5-0.5,0.9-0.8,1.4l-2.3,3.5H156.1z"/>
		<path class="st2" d="M170.1,45.1c0,2.2-0.4,3.9-1.1,4.9c-0.7,1.1-1.9,1.6-3.4,1.6c-1.5,0-2.6-0.6-3.3-1.7
			c-0.7-1.1-1.1-2.7-1.1-4.9c0-2.3,0.4-3.9,1.1-5c0.7-1.1,1.8-1.6,3.4-1.6c1.5,0,2.6,0.6,3.3,1.7S170.1,43,170.1,45.1z M163.9,45.1
			c0,1.6,0.1,2.7,0.4,3.4c0.3,0.7,0.7,1,1.4,1c0.6,0,1.1-0.3,1.4-1c0.3-0.7,0.4-1.8,0.4-3.4c0-1.6-0.1-2.7-0.4-3.4s-0.7-1-1.4-1
			c-0.6,0-1.1,0.3-1.4,1S163.9,43.6,163.9,45.1z"/>
		<path class="st2" d="M54.7,63.4v6.2c0,0.8,0.2,1.3,0.5,1.7c0.3,0.4,0.9,0.6,1.6,0.6c1,0,1.7-0.3,2.1-0.8c0.4-0.5,0.7-1.4,0.7-2.6
			v-5h1.6V73h-1.3l-0.2-1.3h-0.1c-0.3,0.5-0.7,0.8-1.2,1.1c-0.5,0.3-1.1,0.4-1.8,0.4c-1.2,0-2-0.3-2.6-0.8c-0.6-0.6-0.9-1.4-0.9-2.7
			v-6.3H54.7z"/>
		<path class="st2" d="M68.8,73.1c-1.3,0-2.3-0.5-3-1.4h-0.1l0,0.4c0,0.5,0.1,0.9,0.1,1.2v3.9h-1.6V63.4h1.3l0.2,1.3h0.1
			c0.4-0.5,0.8-0.9,1.3-1.1c0.5-0.2,1.1-0.3,1.7-0.3c1.2,0,2.2,0.4,2.9,1.3c0.7,0.9,1,2.1,1,3.7c0,1.6-0.3,2.8-1,3.7
			C71,72.7,70,73.1,68.8,73.1z M68.5,64.5c-0.9,0-1.6,0.3-2.1,0.8s-0.6,1.4-0.7,2.5v0.3c0,1.3,0.2,2.2,0.6,2.8
			c0.4,0.6,1.1,0.9,2.1,0.9c0.8,0,1.4-0.3,1.9-1s0.7-1.6,0.7-2.7c0-1.2-0.2-2.1-0.7-2.7C70,64.8,69.3,64.5,68.5,64.5z"/>
		<path class="st2" d="M83.1,71.8c0.2,0,0.4,0,0.7-0.1c0.3,0,0.5-0.1,0.6-0.1v1.2C84.3,72.9,84,73,83.7,73c-0.3,0.1-0.6,0.1-0.9,0.1
			c-1.9,0-2.8-1-2.8-3v-5.6h-1.4v-0.8l1.4-0.6l0.6-2h0.9v2.2h2.8v1.2h-2.8v5.5c0,0.6,0.1,1,0.4,1.3S82.6,71.8,83.1,71.8z"/>
		<path class="st2" d="M94.7,68.1c0,1.6-0.4,2.8-1.2,3.7s-1.9,1.3-3.3,1.3c-0.9,0-1.6-0.2-2.3-0.6c-0.7-0.4-1.2-1-1.5-1.7
			c-0.4-0.8-0.5-1.6-0.5-2.6c0-1.6,0.4-2.8,1.2-3.6c0.8-0.9,1.9-1.3,3.3-1.3c1.3,0,2.4,0.4,3.2,1.3C94.3,65.4,94.7,66.6,94.7,68.1z
			 M87.4,68.1c0,1.2,0.2,2.1,0.7,2.7c0.5,0.6,1.2,0.9,2.1,0.9c0.9,0,1.6-0.3,2.1-0.9c0.5-0.6,0.7-1.5,0.7-2.7c0-1.2-0.2-2.1-0.7-2.7
			s-1.2-0.9-2.1-0.9C88.3,64.5,87.4,65.7,87.4,68.1z"/>
		<path class="st2" d="M102.7,73l5.2-11.3h-6.9v-1.4h8.6v1.2L104.4,73H102.7z"/>
		<path class="st2" d="M115.4,65.1c1.3,0,2.4,0.3,3.1,1c0.8,0.7,1.1,1.6,1.1,2.8c0,1.3-0.4,2.4-1.3,3.1c-0.8,0.8-2,1.1-3.5,1.1
			c-1.4,0-2.5-0.2-3.3-0.7V71c0.4,0.3,0.9,0.5,1.6,0.6c0.6,0.2,1.2,0.2,1.8,0.2c1,0,1.8-0.2,2.3-0.7c0.5-0.5,0.8-1.2,0.8-2
			c0-1.7-1.1-2.6-3.2-2.6c-0.7,0-1.4,0.1-2.2,0.3l-0.8-0.5l0.5-6h6.4v1.4h-5.1l-0.3,3.7C114.1,65.2,114.8,65.1,115.4,65.1z"/>
		<path class="st2" d="M126.9,64c0,1.3-0.2,2.3-0.7,3s-1.1,1-2,1c-0.8,0-1.5-0.3-1.9-1c-0.5-0.7-0.7-1.7-0.7-3c0-1.3,0.2-2.3,0.7-3
			c0.4-0.7,1.1-1,1.9-1c0.9,0,1.5,0.3,2,1C126.6,61.7,126.9,62.7,126.9,64z M122.9,64c0,1,0.1,1.7,0.3,2.2c0.2,0.5,0.5,0.7,1,0.7
			c0.9,0,1.4-1,1.4-2.9c0-1.9-0.5-2.9-1.4-2.9c-0.5,0-0.8,0.2-1,0.7C123,62.3,122.9,63,122.9,64z M132.4,60.2L125.3,73h-1.4
			l7.1-12.8H132.4z M134.7,69.1c0,1.3-0.2,2.3-0.7,3c-0.5,0.7-1.1,1-2,1c-0.8,0-1.5-0.3-1.9-1s-0.7-1.7-0.7-3c0-1.3,0.2-2.3,0.7-3
			c0.4-0.7,1.1-1,1.9-1s1.5,0.3,2,1C134.5,66.8,134.7,67.8,134.7,69.1z M130.7,69.1c0,1,0.1,1.7,0.3,2.2c0.2,0.5,0.5,0.7,1,0.7
			c0.5,0,0.8-0.2,1-0.7c0.2-0.5,0.3-1.2,0.3-2.2c0-1.9-0.5-2.9-1.4-2.9c-0.5,0-0.8,0.2-1,0.7S130.7,68.2,130.7,69.1z"/>
		<path class="st2" d="M150.1,68.1c0,1.6-0.4,2.8-1.2,3.7c-0.8,0.9-1.9,1.3-3.3,1.3c-0.9,0-1.6-0.2-2.3-0.6c-0.7-0.4-1.2-1-1.5-1.7
			c-0.4-0.8-0.5-1.6-0.5-2.6c0-1.6,0.4-2.8,1.2-3.6c0.8-0.9,1.9-1.3,3.3-1.3c1.3,0,2.4,0.4,3.2,1.3
			C149.7,65.4,150.1,66.6,150.1,68.1z M142.8,68.1c0,1.2,0.2,2.1,0.7,2.7c0.5,0.6,1.2,0.9,2.1,0.9c0.9,0,1.6-0.3,2.1-0.9
			c0.5-0.6,0.7-1.5,0.7-2.7c0-1.2-0.2-2.1-0.7-2.7c-0.5-0.6-1.2-0.9-2.1-0.9C143.7,64.5,142.8,65.7,142.8,68.1z"/>
		<path class="st2" d="M157,64.6h-2.4V73H153v-8.4h-1.7v-0.7l1.7-0.5v-0.5c0-1.2,0.3-2,0.8-2.6s1.3-0.9,2.4-0.9
			c0.6,0,1.2,0.1,1.9,0.3l-0.4,1.2c-0.5-0.2-1-0.3-1.4-0.3c-0.5,0-0.9,0.2-1.2,0.5c-0.3,0.3-0.4,0.9-0.4,1.7v0.6h2.4V64.6z"/>
		<path class="st2" d="M163.1,64.6h-2.4V73h-1.6v-8.4h-1.7v-0.7l1.7-0.5v-0.5c0-1.2,0.3-2,0.8-2.6c0.5-0.6,1.3-0.9,2.4-0.9
			c0.6,0,1.2,0.1,1.9,0.3l-0.4,1.2c-0.5-0.2-1-0.3-1.4-0.3c-0.5,0-0.9,0.2-1.2,0.5c-0.3,0.3-0.4,0.9-0.4,1.7v0.6h2.4V64.6z"/>
	</g>
	<rect x="101.5" y="101.5" class="st3" width="100" height="100"/>
	<g>
		<path d="M115.5,140.4c0,0.8-0.3,1.4-0.8,1.8s-1.3,0.7-2.3,0.7c-0.9,0-1.7-0.2-2.4-0.5v-1.7c0.6,0.3,1.1,0.4,1.5,0.5
			s0.8,0.2,1.1,0.2c0.4,0,0.7-0.1,0.9-0.2s0.3-0.4,0.3-0.7c0-0.2,0-0.3-0.1-0.4s-0.2-0.3-0.4-0.4s-0.6-0.3-1.1-0.6
			c-0.5-0.2-0.9-0.5-1.2-0.7s-0.5-0.5-0.6-0.8s-0.2-0.7-0.2-1.1c0-0.8,0.3-1.4,0.8-1.8s1.2-0.7,2.1-0.7c0.4,0,0.9,0.1,1.3,0.2
			s0.8,0.3,1.3,0.4l-0.6,1.4c-0.5-0.2-0.8-0.3-1.1-0.4s-0.6-0.1-0.9-0.1c-0.3,0-0.6,0.1-0.8,0.2s-0.3,0.4-0.3,0.6
			c0,0.2,0,0.3,0.1,0.4s0.2,0.2,0.4,0.3s0.5,0.3,1.2,0.6c0.8,0.4,1.3,0.8,1.6,1.2S115.5,139.9,115.5,140.4z"/>
		<path d="M121.1,142.8l-0.3-0.9h0c-0.3,0.4-0.6,0.6-0.9,0.8s-0.7,0.2-1.2,0.2c-0.6,0-1.1-0.2-1.5-0.5s-0.5-0.9-0.5-1.5
			c0-0.7,0.2-1.2,0.7-1.5s1.2-0.5,2.2-0.5l1.1,0v-0.3c0-0.7-0.3-1-1-1c-0.5,0-1.1,0.2-1.8,0.5l-0.6-1.2c0.8-0.4,1.6-0.6,2.5-0.6
			c0.9,0,1.6,0.2,2,0.6s0.7,1,0.7,1.7v4.4H121.1z M120.6,139.8l-0.7,0c-0.5,0-0.9,0.1-1.2,0.3s-0.4,0.4-0.4,0.8
			c0,0.5,0.3,0.8,0.9,0.8c0.4,0,0.7-0.1,1-0.4s0.4-0.6,0.4-0.9V139.8z"/>
		<path d="M125.7,142.8l-2.5-6.6h1.9l1.3,3.7c0.1,0.4,0.2,0.9,0.3,1.3h0c0-0.4,0.1-0.9,0.3-1.3l1.3-3.7h1.9l-2.5,6.6H125.7z"/>
		<path d="M134,142.9c-1.1,0-1.9-0.3-2.5-0.9s-0.9-1.4-0.9-2.5c0-1.1,0.3-1.9,0.8-2.5s1.3-0.9,2.3-0.9c0.9,0,1.6,0.3,2.2,0.8
			s0.8,1.3,0.8,2.2v0.9h-4.2c0,0.5,0.2,0.9,0.5,1.2s0.7,0.4,1.2,0.4c0.4,0,0.8,0,1.1-0.1s0.7-0.2,1.1-0.4v1.4
			c-0.3,0.2-0.6,0.3-1,0.3S134.5,142.9,134,142.9z M133.7,137.4c-0.4,0-0.7,0.1-0.9,0.4s-0.3,0.6-0.4,1h2.5c0-0.4-0.1-0.8-0.3-1
			S134.1,137.4,133.7,137.4z"/>
		<path d="M145,142.8l-2.1-6.7h-0.1c0.1,1.4,0.1,2.3,0.1,2.7v4h-1.6v-8.6h2.5l2,6.6h0l2.2-6.6h2.5v8.6h-1.7v-4.1c0-0.2,0-0.4,0-0.7
			s0-0.9,0.1-2h-0.1l-2.2,6.7H145z"/>
		<path d="M158.5,139.5c0,1.1-0.3,1.9-0.8,2.5s-1.3,0.9-2.3,0.9c-0.6,0-1.2-0.1-1.7-0.4s-0.8-0.7-1.1-1.2s-0.4-1.1-0.4-1.8
			c0-1.1,0.3-1.9,0.8-2.5s1.3-0.9,2.4-0.9c0.6,0,1.2,0.1,1.7,0.4s0.8,0.7,1.1,1.2S158.5,138.8,158.5,139.5z M154,139.5
			c0,0.6,0.1,1.1,0.3,1.5s0.6,0.5,1,0.5c0.5,0,0.8-0.2,1-0.5s0.3-0.8,0.3-1.5c0-0.6-0.1-1.1-0.3-1.5s-0.6-0.5-1-0.5
			c-0.5,0-0.8,0.2-1,0.5S154,138.9,154,139.5z"/>
		<path d="M163.6,136.1c0.2,0,0.4,0,0.6,0.1l-0.1,1.7c-0.1,0-0.3-0.1-0.5-0.1c-0.6,0-1,0.1-1.3,0.4s-0.5,0.7-0.5,1.2v3.3H160v-6.6
			h1.4l0.3,1.1h0.1c0.2-0.4,0.5-0.7,0.8-0.9S163.2,136.1,163.6,136.1z"/>
		<path d="M168.3,142.9c-1.1,0-1.9-0.3-2.5-0.9s-0.9-1.4-0.9-2.5c0-1.1,0.3-1.9,0.8-2.5s1.3-0.9,2.3-0.9c0.9,0,1.6,0.3,2.2,0.8
			s0.8,1.3,0.8,2.2v0.9h-4.2c0,0.5,0.2,0.9,0.5,1.2s0.7,0.4,1.2,0.4c0.4,0,0.8,0,1.1-0.1s0.7-0.2,1.1-0.4v1.4
			c-0.3,0.2-0.6,0.3-1,0.3S168.8,142.9,168.3,142.9z M168,137.4c-0.4,0-0.7,0.1-0.9,0.4s-0.3,0.6-0.4,1h2.5c0-0.4-0.1-0.8-0.3-1
			S168.4,137.4,168,137.4z"/>
		<path d="M115.7,157.2l-0.5-2.3l-0.7-2.9h-0.1l-1.2,5.2h-1.9l-1.9-6.6h1.8l0.8,2.9c0.1,0.3,0.2,1.1,0.4,2.2h0
			c0-0.3,0.1-0.8,0.2-1.4l0.1-0.5l0.8-3.1h2l0.8,3.1c0,0.2,0.1,0.5,0.2,0.9s0.1,0.7,0.1,1h0c0-0.3,0.1-0.7,0.2-1.2s0.1-0.8,0.2-1
			l0.8-2.9h1.8l-1.9,6.6H115.7z"/>
		<path d="M120.5,149c0-0.6,0.3-0.9,1-0.9s1,0.3,1,0.9c0,0.3-0.1,0.5-0.2,0.6s-0.4,0.2-0.7,0.2C120.8,149.9,120.5,149.6,120.5,149z
			 M122.4,157.2h-1.8v-6.6h1.8V157.2z"/>
		<path d="M127,155.9c0.3,0,0.7-0.1,1.1-0.2v1.3c-0.4,0.2-1,0.3-1.6,0.3c-0.7,0-1.2-0.2-1.6-0.5s-0.5-0.9-0.5-1.6V152h-0.9v-0.8
			l1-0.6l0.5-1.4h1.1v1.4h1.8v1.3h-1.8v3.2c0,0.3,0.1,0.4,0.2,0.6S126.8,155.9,127,155.9z"/>
		<path d="M135.5,157.2h-1.8v-3.8c0-0.9-0.4-1.4-1.1-1.4c-0.5,0-0.9,0.2-1.1,0.5s-0.3,0.9-0.3,1.7v3.1h-1.8v-9.1h1.8v1.9
			c0,0.1,0,0.5,0,1l0,0.5h0.1c0.4-0.6,1-1,1.9-1c0.8,0,1.4,0.2,1.8,0.6s0.6,1,0.6,1.8V157.2z"/>
		<path d="M144.3,150c-0.7,0-1.2,0.3-1.6,0.8s-0.6,1.2-0.6,2.1c0,1.9,0.7,2.9,2.2,2.9c0.6,0,1.3-0.2,2.2-0.5v1.5
			c-0.7,0.3-1.5,0.4-2.4,0.4c-1.2,0-2.2-0.4-2.9-1.1s-1-1.8-1-3.3c0-0.9,0.2-1.7,0.5-2.3s0.8-1.2,1.4-1.5s1.3-0.5,2.1-0.5
			c0.8,0,1.7,0.2,2.5,0.6l-0.6,1.5c-0.3-0.2-0.6-0.3-1-0.4S144.6,150,144.3,150z"/>
		<path d="M154.1,153.9c0,1.1-0.3,1.9-0.8,2.5s-1.3,0.9-2.3,0.9c-0.6,0-1.2-0.1-1.7-0.4s-0.8-0.7-1.1-1.2s-0.4-1.1-0.4-1.8
			c0-1.1,0.3-1.9,0.8-2.5s1.3-0.9,2.4-0.9c0.6,0,1.2,0.1,1.7,0.4s0.8,0.7,1.1,1.2S154.1,153.2,154.1,153.9z M149.5,153.9
			c0,0.6,0.1,1.1,0.3,1.5s0.6,0.5,1,0.5c0.5,0,0.8-0.2,1-0.5s0.3-0.8,0.3-1.5c0-0.6-0.1-1.1-0.3-1.5s-0.6-0.5-1-0.5
			c-0.5,0-0.8,0.2-1,0.5S149.5,153.3,149.5,153.9z"/>
		<path d="M160.2,157.2l-0.2-0.8h-0.1c-0.2,0.3-0.5,0.5-0.8,0.7s-0.8,0.2-1.2,0.2c-0.8,0-1.3-0.2-1.7-0.6s-0.6-1-0.6-1.8v-4.3h1.8
			v3.8c0,0.5,0.1,0.8,0.3,1.1s0.4,0.4,0.8,0.4c0.5,0,0.9-0.2,1.1-0.5s0.3-0.9,0.3-1.7v-3.1h1.8v6.6H160.2z"/>
		<path d="M167,157.3c-0.8,0-1.4-0.3-1.8-0.8h-0.1c0.1,0.5,0.1,0.9,0.1,0.9v2.7h-1.8v-9.4h1.5l0.3,0.8h0.1c0.4-0.6,1-1,1.9-1
			c0.8,0,1.4,0.3,1.8,0.9s0.7,1.4,0.7,2.5c0,0.7-0.1,1.3-0.3,1.8s-0.5,0.9-0.9,1.2S167.5,157.3,167,157.3z M166.5,152
			c-0.4,0-0.8,0.1-1,0.4s-0.3,0.7-0.3,1.3v0.2c0,0.7,0.1,1.2,0.3,1.5s0.5,0.5,1,0.5c0.8,0,1.2-0.7,1.2-2c0-0.6-0.1-1.1-0.3-1.5
			S166.9,152,166.5,152z"/>
		<path d="M177,153.9c0,1.1-0.3,1.9-0.8,2.5s-1.3,0.9-2.3,0.9c-0.6,0-1.2-0.1-1.7-0.4s-0.8-0.7-1.1-1.2s-0.4-1.1-0.4-1.8
			c0-1.1,0.3-1.9,0.8-2.5s1.3-0.9,2.4-0.9c0.6,0,1.2,0.1,1.7,0.4s0.8,0.7,1.1,1.2S177,153.2,177,153.9z M172.5,153.9
			c0,0.6,0.1,1.1,0.3,1.5s0.6,0.5,1,0.5c0.5,0,0.8-0.2,1-0.5s0.3-0.8,0.3-1.5c0-0.6-0.1-1.1-0.3-1.5s-0.6-0.5-1-0.5
			c-0.5,0-0.8,0.2-1,0.5S172.5,153.3,172.5,153.9z"/>
		<path d="M184.5,157.2h-1.8v-3.8c0-0.5-0.1-0.8-0.3-1.1s-0.4-0.4-0.8-0.4c-0.5,0-0.9,0.2-1.1,0.5s-0.3,0.9-0.3,1.7v3.1h-1.8v-6.6
			h1.4l0.2,0.8h0.1c0.2-0.3,0.5-0.6,0.8-0.7s0.7-0.2,1.2-0.2c0.8,0,1.3,0.2,1.7,0.6s0.6,1,0.6,1.8V157.2z"/>
		<path d="M190.9,155.3c0,0.7-0.2,1.2-0.7,1.5s-1.2,0.5-2.1,0.5c-0.5,0-0.9,0-1.2-0.1s-0.7-0.2-0.9-0.3v-1.5
			c0.3,0.2,0.7,0.3,1.1,0.4s0.8,0.2,1.1,0.2c0.6,0,1-0.2,1-0.6c0-0.1,0-0.3-0.1-0.3s-0.2-0.2-0.4-0.3s-0.5-0.2-0.8-0.4
			c-0.5-0.2-0.9-0.4-1.1-0.6s-0.4-0.4-0.5-0.6s-0.2-0.5-0.2-0.9c0-0.6,0.2-1,0.7-1.4s1.1-0.5,1.9-0.5c0.8,0,1.6,0.2,2.3,0.5
			l-0.5,1.3c-0.3-0.1-0.6-0.3-0.9-0.3s-0.6-0.1-0.9-0.1c-0.5,0-0.8,0.1-0.8,0.4c0,0.2,0.1,0.3,0.3,0.4s0.5,0.3,1.1,0.5
			c0.5,0.2,0.9,0.4,1.1,0.6s0.4,0.4,0.5,0.6S190.9,154.9,190.9,155.3z"/>
		<path d="M192.1,156.4c0-0.3,0.1-0.6,0.3-0.7s0.4-0.3,0.8-0.3c0.3,0,0.6,0.1,0.8,0.3s0.3,0.4,0.3,0.7c0,0.3-0.1,0.6-0.3,0.7
			s-0.4,0.3-0.8,0.3c-0.3,0-0.6-0.1-0.8-0.3S192.1,156.7,192.1,156.4z"/>
	</g>
	<polygon class="st4" points="51.8,123.5 58.4,115.1 61.3,125.4 70.7,120.2 69.5,130.8 80.1,129.6 74.9,138.9 85.1,141.8 
		76.8,148.5 85.1,155.1 74.9,158 80.1,167.4 69.5,166.2 70.7,176.8 61.3,171.6 58.4,181.8 51.8,173.5 45.1,181.8 42.2,171.6 
		32.9,176.8 34.1,166.2 23.5,167.4 28.7,158 18.4,155.1 26.8,148.5 18.4,141.8 28.7,138.9 23.5,129.6 34.1,130.8 32.9,120.2 
		42.2,125.4 45.1,115.1 	"/>
	<g>
		<path d="M38.3,143.7c0-3.3,2.7-5.6,5.7-5.6c3,0,5.7,2.3,5.7,5.6c0,3.3-2.7,5.6-5.7,5.6C41,149.3,38.3,147,38.3,143.7z M46.3,143.7
			c0-1.4-1.1-2.4-2.3-2.4c-1.2,0-2.3,0.9-2.3,2.4c0,1.4,1.1,2.4,2.3,2.4C45.2,146.1,46.3,145.2,46.3,143.7z M55.7,138.4h3.9
			l-11.7,20H44L55.7,138.4z M53.9,153.2c0-3.3,2.7-5.6,5.7-5.6c3,0,5.7,2.3,5.7,5.6s-2.7,5.6-5.7,5.6
			C56.5,158.8,53.9,156.5,53.9,153.2z M61.8,153.2c0-1.4-1.1-2.4-2.3-2.4c-1.2,0-2.3,0.9-2.3,2.4c0,1.4,1.1,2.4,2.3,2.4
			C60.8,155.6,61.8,154.7,61.8,153.2z"/>
	</g>
</g>
</svg>