<!-- Generator: Adobe Illustrator 19.0.0, SVG Export Plug-In  -->
<svg version="1.1"
	 xmlns="http://www.w3.org/2000/svg" xmlns:xlink="http://www.w3.org/1999/xlink" xmlns:a="http://ns.adobe.com/AdobeSVGViewerExtensions/3.0/"
	 x="0px" y="0px" width="747.7px" height="70.1px" viewBox="0 0 747.7 70.1" style="enable-background:new 0 0 747.7 70.1;"
	 xml:space="preserve">
<style type="text/css">
	.st0{fill:none;stroke:#15103F;stroke-width:3;stroke-miterlimit:10;}
	.st1{fill:#15103F;}
</style>
<defs>
</defs>
<line class="st0" x1="0" y1="16" x2="747.7" y2="16"/>
<circle class="st1" cx="83.3" cy="16.7" r="16.7"/>
<circle class="st1" cx="377.3" cy="16.7" r="16.7"/>
<circle class="st1" cx="678.7" cy="16.7" r="16.7"/>
<g>
	<path d="M72.7,50.2h-4.9v-8.6h4.9v1.5h-3.1V45h2.9v1.5h-2.9v2.2h3.1V50.2z"/>
	<path d="M80.4,50.2h-1.8v-3.8c0-0.5-0.1-0.8-0.3-1.1s-0.4-0.4-0.8-0.4c-0.5,0-0.9,0.2-1.1,0.5s-0.3,0.9-0.3,1.7v3.1h-1.8v-6.6h1.4
		l0.2,0.8H76c0.2-0.3,0.5-0.6,0.8-0.7s0.7-0.2,1.2-0.2c0.8,0,1.3,0.2,1.7,0.6s0.6,1,0.6,1.8V50.2z"/>
	<path d="M84.3,50.3c-0.8,0-1.4-0.3-1.8-0.9s-0.7-1.4-0.7-2.5c0-1.1,0.2-1.9,0.7-2.5s1.1-0.9,1.8-0.9c0.8,0,1.5,0.3,1.9,1h0.1
		c-0.1-0.5-0.1-0.9-0.1-1.3v-2.1h1.8v9.1h-1.4l-0.3-0.8h-0.1C85.7,50,85.1,50.3,84.3,50.3z M84.9,48.9c0.5,0,0.8-0.1,1-0.4
		s0.3-0.7,0.3-1.4v-0.2c0-0.7-0.1-1.2-0.3-1.5S85.4,45,84.9,45c-0.4,0-0.7,0.2-0.9,0.5s-0.3,0.8-0.3,1.5s0.1,1.1,0.3,1.5
		S84.5,48.9,84.9,48.9z"/>
	<path d="M94.4,48.2c0,0.7-0.2,1.2-0.7,1.5s-1.2,0.5-2.1,0.5c-0.5,0-0.9,0-1.2-0.1s-0.7-0.2-0.9-0.3v-1.5c0.3,0.2,0.7,0.3,1.1,0.4
		s0.8,0.2,1.1,0.2c0.6,0,1-0.2,1-0.6c0-0.1,0-0.3-0.1-0.3s-0.2-0.2-0.4-0.3s-0.5-0.2-0.8-0.4c-0.5-0.2-0.9-0.4-1.1-0.6
		s-0.4-0.4-0.5-0.6s-0.2-0.5-0.2-0.9c0-0.6,0.2-1,0.7-1.4s1.1-0.5,1.9-0.5c0.8,0,1.6,0.2,2.3,0.5l-0.5,1.3c-0.3-0.1-0.6-0.3-0.9-0.3
		s-0.6-0.1-0.9-0.1c-0.5,0-0.8,0.1-0.8,0.4c0,0.2,0.1,0.3,0.3,0.4s0.5,0.3,1.1,0.5c0.5,0.2,0.9,0.4,1.1,0.6s0.4,0.4,0.5,0.6
		S94.4,47.9,94.4,48.2z"/>
	<path d="M66.8,67.1c-0.4,0-0.8,0-1.1-0.1v-1.5c0.3,0.1,0.6,0.1,0.9,0.1c0.4,0,0.7-0.1,0.9-0.4s0.3-0.6,0.3-1.2v-8h1.8v8
		c0,1-0.2,1.8-0.7,2.3S67.7,67.1,66.8,67.1z"/>
	<path d="M75.7,64.6l-0.3-0.9h0c-0.3,0.4-0.6,0.6-0.9,0.8s-0.7,0.2-1.2,0.2c-0.6,0-1.1-0.2-1.5-0.5c-0.4-0.4-0.5-0.9-0.5-1.5
		c0-0.7,0.2-1.2,0.7-1.5s1.2-0.5,2.2-0.5l1.1,0v-0.3c0-0.7-0.3-1-1-1c-0.5,0-1.1,0.2-1.8,0.5l-0.6-1.2c0.8-0.4,1.6-0.6,2.5-0.6
		c0.9,0,1.6,0.2,2,0.6s0.7,1,0.7,1.7v4.4H75.7z M75.2,61.5l-0.7,0c-0.5,0-0.9,0.1-1.2,0.3S73,62.3,73,62.6c0,0.5,0.3,0.8,0.9,0.8
		c0.4,0,0.7-0.1,1-0.4s0.4-0.6,0.4-0.9V61.5z"/>
	<path d="M84.9,64.6h-1.8v-3.8c0-0.5-0.1-0.8-0.3-1.1s-0.4-0.4-0.8-0.4c-0.5,0-0.9,0.2-1.1,0.5s-0.3,0.9-0.3,1.7v3.1h-1.8V58h1.4
		l0.2,0.8h0.1c0.2-0.3,0.5-0.6,0.8-0.7s0.7-0.2,1.2-0.2c0.8,0,1.3,0.2,1.7,0.6s0.6,1,0.6,1.8V64.6z"/>
	<path d="M91.3,64.6l-0.2-0.8H91c-0.2,0.3-0.5,0.5-0.8,0.7s-0.8,0.2-1.2,0.2c-0.8,0-1.3-0.2-1.7-0.6c-0.4-0.4-0.6-1-0.6-1.8V58h1.8
		v3.8c0,0.5,0.1,0.8,0.3,1.1s0.4,0.4,0.8,0.4c0.5,0,0.9-0.2,1.1-0.5s0.3-0.9,0.3-1.7V58h1.8v6.6H91.3z"/>
	<path d="M98.7,64.6l-0.3-0.9h0c-0.3,0.4-0.6,0.6-0.9,0.8s-0.7,0.2-1.2,0.2c-0.6,0-1.1-0.2-1.5-0.5c-0.4-0.4-0.5-0.9-0.5-1.5
		c0-0.7,0.2-1.2,0.7-1.5s1.2-0.5,2.2-0.5l1.1,0v-0.3c0-0.7-0.3-1-1-1c-0.5,0-1.1,0.2-1.8,0.5l-0.6-1.2c0.8-0.4,1.6-0.6,2.5-0.6
		c0.9,0,1.6,0.2,2,0.6s0.7,1,0.7,1.7v4.4H98.7z M98.2,61.5l-0.7,0c-0.5,0-0.9,0.1-1.2,0.3S96,62.3,96,62.6c0,0.5,0.3,0.8,0.9,0.8
		c0.4,0,0.7-0.1,1-0.4s0.4-0.6,0.4-0.9V61.5z"/>
	<path d="M105.5,57.9c0.2,0,0.4,0,0.6,0.1l-0.1,1.7c-0.1,0-0.3-0.1-0.5-0.1c-0.6,0-1,0.1-1.3,0.4s-0.5,0.7-0.5,1.2v3.3h-1.8V58h1.4
		l0.3,1.1h0.1c0.2-0.4,0.5-0.7,0.8-0.9S105.1,57.9,105.5,57.9z"/>
	<path d="M106.3,58h2l1.2,3.7c0.1,0.3,0.2,0.7,0.2,1.1h0c0-0.4,0.1-0.8,0.3-1.1l1.2-3.7h1.9l-2.8,7.4c-0.3,0.7-0.6,1.2-1.1,1.5
		s-1,0.5-1.6,0.5c-0.3,0-0.6,0-0.9-0.1v-1.4c0.2,0.1,0.4,0.1,0.7,0.1c0.3,0,0.6-0.1,0.8-0.3s0.4-0.5,0.6-0.9l0.1-0.3L106.3,58z"/>
	<path d="M122.8,64.6h-6v-1.3l2.2-2.2c0.6-0.7,1.1-1.1,1.2-1.4s0.3-0.5,0.4-0.7s0.1-0.4,0.1-0.7c0-0.3-0.1-0.6-0.3-0.8
		s-0.4-0.3-0.8-0.3c-0.3,0-0.7,0.1-1,0.2s-0.6,0.4-1,0.7l-1-1.2c0.4-0.4,0.8-0.6,1-0.8s0.6-0.3,0.9-0.3s0.7-0.1,1.1-0.1
		c0.5,0,1,0.1,1.4,0.3s0.7,0.5,1,0.8s0.3,0.8,0.3,1.2c0,0.4-0.1,0.8-0.2,1.1s-0.4,0.7-0.6,1.1s-0.8,0.9-1.5,1.6l-1.1,1v0.1h3.7V64.6
		z"/>
	<path d="M129.6,59.7c0,1.7-0.4,2.9-1.1,3.8c-0.7,0.8-1.8,1.2-3.2,1.2c-0.5,0-0.9,0-1.2-0.1v-1.5c0.3,0.1,0.7,0.1,1,0.1
		c0.6,0,1.1-0.1,1.5-0.3s0.7-0.5,0.9-0.8s0.3-0.9,0.4-1.6h-0.1c-0.2,0.4-0.5,0.6-0.8,0.8s-0.7,0.2-1.1,0.2c-0.7,0-1.3-0.2-1.8-0.7
		s-0.6-1.1-0.6-2c0-0.9,0.3-1.6,0.8-2.2s1.2-0.8,2.1-0.8c0.6,0,1.2,0.1,1.7,0.4c0.5,0.3,0.8,0.7,1.1,1.3S129.6,58.9,129.6,59.7z
		 M126.5,57.4c-0.4,0-0.7,0.1-0.9,0.4s-0.3,0.6-0.3,1.1c0,0.4,0.1,0.7,0.3,1s0.5,0.4,0.9,0.4c0.4,0,0.7-0.1,0.9-0.4s0.4-0.5,0.4-0.8
		c0-0.5-0.1-0.9-0.4-1.2S126.9,57.4,126.5,57.4z"/>
</g>
<g>
	<path d="M366.2,50.8h-4.9v-8.6h4.9v1.5h-3.1v1.9h2.9v1.5h-2.9v2.2h3.1V50.8z"/>
	<path d="M373.9,50.8h-1.8V47c0-0.5-0.1-0.8-0.3-1.1s-0.4-0.4-0.8-0.4c-0.5,0-0.9,0.2-1.1,0.5s-0.3,0.9-0.3,1.7v3.1h-1.8v-6.6h1.4
		l0.2,0.8h0.1c0.2-0.3,0.5-0.6,0.8-0.7s0.7-0.2,1.2-0.2c0.8,0,1.3,0.2,1.7,0.6s0.6,1,0.6,1.8V50.8z"/>
	<path d="M377.8,50.9c-0.8,0-1.4-0.3-1.8-0.9s-0.7-1.4-0.7-2.5c0-1.1,0.2-1.9,0.7-2.5s1.1-0.9,1.8-0.9c0.8,0,1.5,0.3,1.9,1h0.1
		c-0.1-0.5-0.1-0.9-0.1-1.3v-2.1h1.8v9.1h-1.4l-0.3-0.8h-0.1C379.3,50.6,378.6,50.9,377.8,50.9z M378.4,49.5c0.5,0,0.8-0.1,1-0.4
		s0.3-0.7,0.3-1.4v-0.2c0-0.7-0.1-1.2-0.3-1.5s-0.6-0.5-1.1-0.5c-0.4,0-0.7,0.2-0.9,0.5s-0.3,0.8-0.3,1.5s0.1,1.1,0.3,1.5
		S378,49.5,378.4,49.5z"/>
	<path d="M387.9,48.8c0,0.7-0.2,1.2-0.7,1.5s-1.2,0.5-2.1,0.5c-0.5,0-0.9,0-1.2-0.1s-0.7-0.2-0.9-0.3v-1.5c0.3,0.2,0.7,0.3,1.1,0.4
		s0.8,0.2,1.1,0.2c0.6,0,1-0.2,1-0.6c0-0.1,0-0.3-0.1-0.3s-0.2-0.2-0.4-0.3s-0.5-0.2-0.8-0.4c-0.5-0.2-0.9-0.4-1.1-0.6
		s-0.4-0.4-0.5-0.6s-0.2-0.5-0.2-0.9c0-0.6,0.2-1,0.7-1.4s1.1-0.5,1.9-0.5c0.8,0,1.6,0.2,2.3,0.5l-0.5,1.3c-0.3-0.1-0.6-0.3-0.9-0.3
		s-0.6-0.1-0.9-0.1c-0.5,0-0.8,0.1-0.8,0.4c0,0.2,0.1,0.3,0.3,0.4s0.5,0.3,1.1,0.5c0.5,0.2,0.9,0.4,1.1,0.6s0.4,0.4,0.5,0.6
		S387.9,48.5,387.9,48.8z"/>
	<path d="M360.4,67.7c-0.4,0-0.8,0-1.1-0.1v-1.5c0.3,0.1,0.6,0.1,0.9,0.1c0.4,0,0.7-0.1,0.9-0.4s0.3-0.6,0.3-1.2v-8h1.8v8
		c0,1-0.2,1.8-0.7,2.3S361.3,67.7,360.4,67.7z"/>
	<path d="M369.3,65.2l-0.3-0.9h0c-0.3,0.4-0.6,0.6-0.9,0.8s-0.7,0.2-1.2,0.2c-0.6,0-1.1-0.2-1.5-0.5s-0.5-0.9-0.5-1.5
		c0-0.7,0.2-1.2,0.7-1.5s1.2-0.5,2.2-0.5l1.1,0v-0.3c0-0.7-0.3-1-1-1c-0.5,0-1.1,0.2-1.8,0.5l-0.6-1.2c0.8-0.4,1.6-0.6,2.5-0.6
		c0.9,0,1.6,0.2,2,0.6s0.7,1,0.7,1.7v4.4H369.3z M368.7,62.2l-0.7,0c-0.5,0-0.9,0.1-1.2,0.3s-0.4,0.4-0.4,0.8c0,0.5,0.3,0.8,0.9,0.8
		c0.4,0,0.7-0.1,1-0.4s0.4-0.6,0.4-0.9V62.2z"/>
	<path d="M378.4,65.2h-1.8v-3.8c0-0.5-0.1-0.8-0.3-1.1s-0.4-0.4-0.8-0.4c-0.5,0-0.9,0.2-1.1,0.5s-0.3,0.9-0.3,1.7v3.1h-1.8v-6.6h1.4
		l0.2,0.8h0.1c0.2-0.3,0.5-0.6,0.8-0.7s0.7-0.2,1.2-0.2c0.8,0,1.3,0.2,1.7,0.6s0.6,1,0.6,1.8V65.2z"/>
	<path d="M384.9,65.2l-0.2-0.8h-0.1c-0.2,0.3-0.5,0.5-0.8,0.7s-0.8,0.2-1.2,0.2c-0.8,0-1.3-0.2-1.7-0.6s-0.6-1-0.6-1.8v-4.3h1.8v3.8
		c0,0.5,0.1,0.8,0.3,1.1s0.4,0.4,0.8,0.4c0.5,0,0.9-0.2,1.1-0.5s0.3-0.9,0.3-1.7v-3.1h1.8v6.6H384.9z"/>
	<path d="M392.3,65.2l-0.3-0.9h0c-0.3,0.4-0.6,0.6-0.9,0.8s-0.7,0.2-1.2,0.2c-0.6,0-1.1-0.2-1.5-0.5s-0.5-0.9-0.5-1.5
		c0-0.7,0.2-1.2,0.7-1.5s1.2-0.5,2.2-0.5l1.1,0v-0.3c0-0.7-0.3-1-1-1c-0.5,0-1.1,0.2-1.8,0.5l-0.6-1.2c0.8-0.4,1.6-0.6,2.5-0.6
		c0.9,0,1.6,0.2,2,0.6s0.7,1,0.7,1.7v4.4H392.3z M391.7,62.2l-0.7,0c-0.5,0-0.9,0.1-1.2,0.3s-0.4,0.4-0.4,0.8c0,0.5,0.3,0.8,0.9,0.8
		c0.4,0,0.7-0.1,1-0.4s0.4-0.6,0.4-0.9V62.2z"/>
	<path d="M399,58.5c0.2,0,0.4,0,0.6,0.1l-0.1,1.7c-0.1,0-0.3-0.1-0.5-0.1c-0.6,0-1,0.1-1.3,0.4s-0.5,0.7-0.5,1.2v3.3h-1.8v-6.6h1.4
		l0.3,1.1h0.1c0.2-0.4,0.5-0.7,0.8-0.9S398.6,58.5,399,58.5z"/>
	<path d="M399.9,58.6h2l1.2,3.7c0.1,0.3,0.2,0.7,0.2,1.1h0c0-0.4,0.1-0.8,0.3-1.1l1.2-3.7h1.9l-2.8,7.4c-0.3,0.7-0.6,1.2-1.1,1.5
		s-1,0.5-1.7,0.5c-0.3,0-0.6,0-0.9-0.1v-1.4c0.2,0.1,0.4,0.1,0.7,0.1c0.3,0,0.6-0.1,0.8-0.3s0.4-0.5,0.6-0.9l0.1-0.3L399.9,58.6z"/>
	<path d="M416,58.5c0,0.5-0.2,1-0.5,1.4s-0.8,0.6-1.4,0.8v0c0.7,0.1,1.2,0.3,1.6,0.6s0.5,0.8,0.5,1.4c0,0.8-0.3,1.5-0.9,1.9
		s-1.5,0.7-2.6,0.7c-0.9,0-1.8-0.2-2.5-0.5v-1.5c0.3,0.2,0.7,0.3,1.1,0.4s0.8,0.2,1.2,0.2c0.6,0,1-0.1,1.3-0.3s0.4-0.5,0.4-1
		c0-0.4-0.2-0.7-0.5-0.9s-0.9-0.3-1.6-0.3h-0.7v-1.4h0.7c0.7,0,1.2-0.1,1.5-0.3s0.5-0.5,0.5-0.9c0-0.6-0.4-1-1.2-1
		c-0.3,0-0.6,0-0.9,0.1s-0.6,0.3-1,0.5l-0.8-1.2c0.8-0.6,1.7-0.8,2.8-0.8c0.9,0,1.6,0.2,2.1,0.5S416,57.9,416,58.5z"/>
	<path d="M421.6,65.2h-1.8v-5l0-0.8l0-0.9c-0.3,0.3-0.5,0.5-0.6,0.6l-1,0.8l-0.9-1.1l2.8-2.2h1.5V65.2z"/>
</g>
<g>
	<path d="M660.3,52.8h-4.9v-8.6h4.9v1.5h-3.1v1.9h2.9v1.5h-2.9v2.2h3.1V52.8z"/>
	<path d="M668,52.8h-1.8V49c0-0.5-0.1-0.8-0.3-1.1s-0.4-0.4-0.8-0.4c-0.5,0-0.9,0.2-1.1,0.5s-0.3,0.9-0.3,1.7v3.1h-1.8v-6.6h1.4
		l0.2,0.8h0.1c0.2-0.3,0.5-0.6,0.8-0.7s0.7-0.2,1.2-0.2c0.8,0,1.3,0.2,1.7,0.6s0.6,1,0.6,1.8V52.8z"/>
	<path d="M671.9,52.9c-0.8,0-1.4-0.3-1.8-0.9s-0.7-1.4-0.7-2.5c0-1.1,0.2-1.9,0.7-2.5s1.1-0.9,1.8-0.9c0.8,0,1.5,0.3,1.9,1h0.1
		c-0.1-0.5-0.1-0.9-0.1-1.3v-2.1h1.8v9.1h-1.4l-0.3-0.8h-0.1C673.3,52.6,672.7,52.9,671.9,52.9z M672.5,51.5c0.5,0,0.8-0.1,1-0.4
		s0.3-0.7,0.3-1.4v-0.2c0-0.7-0.1-1.2-0.3-1.5s-0.6-0.5-1.1-0.5c-0.4,0-0.7,0.2-0.9,0.5s-0.3,0.8-0.3,1.5s0.1,1.1,0.3,1.5
		S672.1,51.5,672.5,51.5z"/>
	<path d="M682,50.8c0,0.7-0.2,1.2-0.7,1.5s-1.2,0.5-2.1,0.5c-0.5,0-0.9,0-1.2-0.1s-0.7-0.2-0.9-0.3v-1.5c0.3,0.2,0.7,0.3,1.1,0.4
		s0.8,0.2,1.1,0.2c0.6,0,1-0.2,1-0.6c0-0.1,0-0.3-0.1-0.3s-0.2-0.2-0.4-0.3s-0.5-0.2-0.8-0.4c-0.5-0.2-0.9-0.4-1.1-0.6
		s-0.4-0.4-0.5-0.6s-0.2-0.5-0.2-0.9c0-0.6,0.2-1,0.7-1.4s1.1-0.5,1.9-0.5c0.8,0,1.6,0.2,2.3,0.5l-0.5,1.3c-0.3-0.1-0.6-0.3-0.9-0.3
		s-0.6-0.1-0.9-0.1c-0.5,0-0.8,0.1-0.8,0.4c0,0.2,0.1,0.3,0.3,0.4s0.5,0.3,1.1,0.5c0.5,0.2,0.9,0.4,1.1,0.6s0.4,0.4,0.5,0.6
		S682,50.5,682,50.8z"/>
	<path d="M654.4,69.7c-0.4,0-0.8,0-1.1-0.1v-1.5c0.3,0.1,0.6,0.1,0.9,0.1c0.4,0,0.7-0.1,0.9-0.4s0.3-0.6,0.3-1.2v-8h1.8v8
		c0,1-0.2,1.8-0.7,2.3S655.3,69.7,654.4,69.7z"/>
	<path d="M663.3,67.2l-0.3-0.9h0c-0.3,0.4-0.6,0.6-0.9,0.8s-0.7,0.2-1.2,0.2c-0.6,0-1.1-0.2-1.5-0.5s-0.5-0.9-0.5-1.5
		c0-0.7,0.2-1.2,0.7-1.5c0.5-0.3,1.2-0.5,2.2-0.5l1.1,0v-0.3c0-0.7-0.3-1-1-1c-0.5,0-1.1,0.2-1.8,0.5l-0.6-1.2
		c0.8-0.4,1.6-0.6,2.5-0.6c0.9,0,1.6,0.2,2,0.6s0.7,1,0.7,1.7v4.4H663.3z M662.8,64.2l-0.7,0c-0.5,0-0.9,0.1-1.2,0.3
		s-0.4,0.4-0.4,0.8c0,0.5,0.3,0.8,0.9,0.8c0.4,0,0.7-0.1,1-0.4s0.4-0.6,0.4-0.9V64.2z"/>
	<path d="M672.5,67.2h-1.8v-3.8c0-0.5-0.1-0.8-0.3-1.1S670,62,669.6,62c-0.5,0-0.9,0.2-1.1,0.5s-0.3,0.9-0.3,1.7v3.1h-1.8v-6.6h1.4
		l0.2,0.8h0.1c0.2-0.3,0.5-0.6,0.8-0.7s0.7-0.2,1.2-0.2c0.8,0,1.3,0.2,1.7,0.6s0.6,1,0.6,1.8V67.2z"/>
	<path d="M678.9,67.2l-0.2-0.8h-0.1c-0.2,0.3-0.5,0.5-0.8,0.7s-0.8,0.2-1.2,0.2c-0.8,0-1.3-0.2-1.7-0.6s-0.6-1-0.6-1.8v-4.3h1.8v3.8
		c0,0.5,0.1,0.8,0.3,1.1s0.4,0.4,0.8,0.4c0.5,0,0.9-0.2,1.1-0.5s0.3-0.9,0.3-1.7v-3.1h1.8v6.6H678.9z"/>
	<path d="M686.3,67.2l-0.3-0.9h0c-0.3,0.4-0.6,0.6-0.9,0.8s-0.7,0.2-1.2,0.2c-0.6,0-1.1-0.2-1.5-0.5s-0.5-0.9-0.5-1.5
		c0-0.7,0.2-1.2,0.7-1.5c0.5-0.3,1.2-0.5,2.2-0.5l1.1,0v-0.3c0-0.7-0.3-1-1-1c-0.5,0-1.1,0.2-1.8,0.5l-0.6-1.2
		c0.8-0.4,1.6-0.6,2.5-0.6c0.9,0,1.6,0.2,2,0.6s0.7,1,0.7,1.7v4.4H686.3z M685.8,64.2l-0.7,0c-0.5,0-0.9,0.1-1.2,0.3
		s-0.4,0.4-0.4,0.8c0,0.5,0.3,0.8,0.9,0.8c0.4,0,0.7-0.1,1-0.4s0.4-0.6,0.4-0.9V64.2z"/>
	<path d="M693.1,60.5c0.2,0,0.4,0,0.6,0.1l-0.1,1.7c-0.1,0-0.3-0.1-0.5-0.1c-0.6,0-1,0.1-1.3,0.4s-0.5,0.7-0.5,1.2v3.3h-1.8v-6.6
		h1.4l0.3,1.1h0.1c0.2-0.4,0.5-0.7,0.8-0.9S692.7,60.5,693.1,60.5z"/>
	<path d="M693.9,60.6h2l1.2,3.7c0.1,0.3,0.2,0.7,0.2,1.1h0c0-0.4,0.1-0.8,0.3-1.1l1.2-3.7h1.9L698,68c-0.3,0.7-0.6,1.2-1.1,1.5
		s-1,0.5-1.6,0.5c-0.3,0-0.6,0-0.9-0.1v-1.4c0.2,0.1,0.4,0.1,0.7,0.1c0.3,0,0.6-0.1,0.8-0.3s0.4-0.5,0.6-0.9l0.1-0.3L693.9,60.6z"/>
	<path d="M710,60.5c0,0.5-0.2,1-0.5,1.4s-0.8,0.6-1.4,0.8v0c0.7,0.1,1.2,0.3,1.6,0.6s0.5,0.8,0.5,1.4c0,0.8-0.3,1.5-0.9,1.9
		s-1.5,0.7-2.6,0.7c-0.9,0-1.8-0.2-2.5-0.5v-1.5c0.3,0.2,0.7,0.3,1.1,0.4s0.8,0.2,1.2,0.2c0.6,0,1-0.1,1.3-0.3s0.4-0.5,0.4-1
		c0-0.4-0.2-0.7-0.5-0.9s-0.9-0.3-1.6-0.3h-0.7v-1.4h0.7c0.7,0,1.1-0.1,1.5-0.3s0.5-0.5,0.5-0.9c0-0.6-0.4-1-1.2-1
		c-0.3,0-0.6,0-0.9,0.1s-0.6,0.3-1,0.5l-0.8-1.2c0.8-0.6,1.7-0.8,2.8-0.8c0.9,0,1.6,0.2,2.1,0.5S710,59.9,710,60.5z"/>
	<path d="M715.7,67.2h-1.8v-5l0-0.8l0-0.9c-0.3,0.3-0.5,0.5-0.6,0.6l-1,0.8l-0.9-1.1l2.8-2.2h1.5V67.2z"/>
</g>
</svg>