<?xml version="1.0" encoding="utf-8"?>
<!-- Generator: Adobe Illustrator 19.0.0, SVG Export Plug-In . SVG Version: 6.00 Build 0)  -->
<svg version="1.1" id="Layer_1" xmlns="http://www.w3.org/2000/svg" xmlns:xlink="http://www.w3.org/1999/xlink" x="0px" y="0px"
	 viewBox="0 0 296.9 207.9" style="enable-background:new 0 0 296.9 207.9;" xml:space="preserve">
<style type="text/css">
	.st0{fill:#F8981D;}
	.st1{fill:#FFFFFF;}
	.st2{fill:#F8CF0C;}
	.st3{fill:#5AB9C9;}
</style>
<g>
	<circle class="st0" cx="51.8" cy="127.9" r="51.8"/>
	<circle class="st0" cx="133.2" cy="90.1" r="90.1"/>
	<circle class="st0" cx="195.9" cy="105.5" r="72.2"/>
	<circle class="st0" cx="261.2" cy="144.5" r="35.7"/>
	<g id="XMLID_32_">
		<path id="XMLID_33_" class="st1" d="M56.3,68.7h-3.1l-1.5,2.9h-1.3l5-9.3h1.2l1.1,9.3h-1.1L56.3,68.7z M56.1,67.6l-0.2-1.9
			c-0.1-1-0.2-1.7-0.2-2.2c-0.1,0.3-0.3,0.7-0.4,1c-0.2,0.3-0.7,1.4-1.6,3.1H56.1z"/>
		<path id="XMLID_216_" class="st1" d="M63.4,64.5c0.6,0,1.1,0.2,1.4,0.6s0.5,1,0.5,1.7c0,0.9-0.1,1.7-0.4,2.5
			c-0.3,0.7-0.7,1.3-1.2,1.7c-0.5,0.4-1.1,0.6-1.7,0.6c-0.8,0-1.4-0.4-1.8-1.2H60c-0.1,0.6-0.1,1-0.2,1.2l-0.6,3h-1.1l2.1-10.1h0.9
			L61,65.9h0.1c0.4-0.5,0.8-0.9,1.2-1.1C62.6,64.6,63,64.5,63.4,64.5z M63,65.4c-0.4,0-0.8,0.2-1.2,0.6s-0.7,0.9-1,1.5
			s-0.4,1.2-0.4,1.8c0,0.4,0.1,0.8,0.3,1c0.2,0.2,0.6,0.4,1,0.4c0.4,0,0.8-0.2,1.2-0.5c0.4-0.3,0.6-0.8,0.8-1.4
			c0.2-0.6,0.3-1.3,0.3-1.9C64.1,65.9,63.7,65.4,63,65.4z"/>
		<path id="XMLID_219_" class="st1" d="M68.4,71.7c-0.6,0-1-0.2-1.4-0.6s-0.5-1-0.5-1.8c0-0.9,0.1-1.7,0.4-2.4
			c0.3-0.8,0.7-1.3,1.2-1.8c0.5-0.4,1.1-0.6,1.7-0.6c0.4,0,0.7,0.1,1,0.3c0.3,0.2,0.5,0.5,0.7,0.9h0.1l0.4-1.1h0.9l-1.5,7h-0.9
			l0.2-1.3h-0.1C70.1,71.2,69.3,71.7,68.4,71.7z M68.8,70.8c0.4,0,0.8-0.2,1.2-0.6c0.4-0.4,0.7-0.9,1-1.5c0.2-0.6,0.4-1.2,0.4-1.9
			c0-0.4-0.1-0.8-0.3-1s-0.5-0.4-0.9-0.4c-0.4,0-0.8,0.2-1.2,0.5s-0.7,0.8-0.9,1.4c-0.2,0.6-0.3,1.3-0.3,1.9c0,0.5,0.1,0.8,0.3,1.1
			S68.5,70.8,68.8,70.8z"/>
		<path id="XMLID_222_" class="st1" d="M78.8,64.6h1.4l-3,3l1.9,4h-1.3l-1.5-3.3l-0.9,0.7l-0.5,2.5h-1.2l2.1-9.9h1.2
			c-0.4,1.7-0.7,3.1-0.9,4c-0.2,0.9-0.4,1.7-0.6,2.3h0L78.8,64.6z"/>
		<path id="XMLID_224_" class="st1" d="M82.2,71.7c-0.6,0-1-0.2-1.4-0.6s-0.5-1-0.5-1.8c0-0.9,0.1-1.7,0.4-2.4
			c0.3-0.8,0.7-1.3,1.2-1.8c0.5-0.4,1.1-0.6,1.7-0.6c0.4,0,0.7,0.1,1,0.3c0.3,0.2,0.5,0.5,0.7,0.9h0.1l0.4-1.1h0.9l-1.5,7h-0.9
			l0.2-1.3h-0.1C83.9,71.2,83.1,71.7,82.2,71.7z M82.6,70.8c0.4,0,0.8-0.2,1.2-0.6c0.4-0.4,0.7-0.9,1-1.5c0.2-0.6,0.4-1.2,0.4-1.9
			c0-0.4-0.1-0.8-0.3-1s-0.5-0.4-0.9-0.4c-0.4,0-0.8,0.2-1.2,0.5s-0.7,0.8-0.9,1.4c-0.2,0.6-0.3,1.3-0.3,1.9c0,0.5,0.1,0.8,0.3,1.1
			S82.3,70.8,82.6,70.8z"/>
		<path id="XMLID_228_" class="st1" d="M92.9,71.6h-1.1l0.9-4.4c0.1-0.4,0.1-0.7,0.1-0.9c0-0.6-0.3-0.9-0.9-0.9
			c-0.4,0-0.7,0.1-1.1,0.4s-0.7,0.6-0.9,1.1s-0.5,1-0.6,1.7l-0.6,3h-1.1l2.1-9.9h1.1l-0.6,2.6c-0.1,0.3-0.1,0.5-0.2,0.8
			s-0.1,0.6-0.2,0.8h0.1c0.4-0.5,0.8-0.9,1.1-1.1c0.4-0.2,0.8-0.3,1.2-0.3c0.6,0,1,0.2,1.3,0.5s0.5,0.7,0.5,1.3c0,0.2,0,0.6-0.1,1.1
			L92.9,71.6z"/>
		<path id="XMLID_232_" class="st1" d="M102.7,69.6c0,0.7-0.2,1.2-0.7,1.6c-0.5,0.4-1.1,0.6-2,0.6c-0.8,0-1.4-0.1-1.9-0.4v-1.1
			c0.3,0.2,0.6,0.3,0.9,0.4c0.3,0.1,0.7,0.2,1,0.2c0.5,0,0.9-0.1,1.2-0.3s0.4-0.5,0.4-0.8c0-0.2-0.1-0.4-0.2-0.6
			c-0.1-0.2-0.5-0.4-0.9-0.7c-0.5-0.3-0.9-0.6-1.2-0.9s-0.3-0.7-0.3-1.1c0-0.6,0.2-1.1,0.6-1.4c0.4-0.4,1-0.5,1.7-0.5
			c0.7,0,1.4,0.2,2.1,0.5l-0.4,0.9c-0.2-0.1-0.5-0.2-0.8-0.3s-0.6-0.1-1-0.1c-0.4,0-0.7,0.1-0.9,0.3c-0.2,0.2-0.3,0.4-0.3,0.7
			c0,0.2,0.1,0.4,0.2,0.6s0.5,0.4,0.9,0.6c0.5,0.3,0.8,0.5,1,0.7s0.3,0.4,0.4,0.6C102.7,69.1,102.7,69.3,102.7,69.6z"/>
		<path id="XMLID_234_" class="st1" d="M106.2,71.7c-0.6,0-1-0.2-1.4-0.6s-0.5-1-0.5-1.8c0-0.9,0.1-1.7,0.4-2.4
			c0.3-0.8,0.7-1.3,1.2-1.8c0.5-0.4,1.1-0.6,1.7-0.6c0.4,0,0.7,0.1,1,0.3c0.3,0.2,0.5,0.5,0.7,0.9h0.1l0.4-1.1h0.9l-1.5,7h-0.9
			l0.2-1.3h-0.1C107.8,71.2,107,71.7,106.2,71.7z M106.5,70.8c0.4,0,0.8-0.2,1.2-0.6c0.4-0.4,0.7-0.9,1-1.5c0.2-0.6,0.4-1.2,0.4-1.9
			c0-0.4-0.1-0.8-0.3-1s-0.5-0.4-0.9-0.4c-0.4,0-0.8,0.2-1.2,0.5s-0.7,0.8-0.9,1.4c-0.2,0.6-0.3,1.3-0.3,1.9c0,0.5,0.1,0.8,0.3,1.1
			S106.2,70.8,106.5,70.8z"/>
		<path id="XMLID_237_" class="st1" d="M111.6,64.6h1.1l0.5,3.4c0,0.3,0.1,0.7,0.1,1.2c0,0.5,0.1,1,0.1,1.4h0
			c0.1-0.3,0.3-0.7,0.5-1.1c0.2-0.5,0.4-0.8,0.5-1.1l2-3.8h1.2l-4.4,8.1c-0.4,0.7-0.8,1.2-1.2,1.5c-0.4,0.3-0.9,0.4-1.4,0.4
			c-0.3,0-0.6,0-0.9-0.1v-0.9c0.3,0.1,0.5,0.1,0.8,0.1c0.3,0,0.6-0.1,0.9-0.3s0.5-0.5,0.7-0.9l0.5-0.8L111.6,64.6z"/>
		<path id="XMLID_239_" class="st1" d="M119.6,71.7c-0.6,0-1-0.2-1.4-0.6s-0.5-1-0.5-1.8c0-0.9,0.1-1.7,0.4-2.4
			c0.3-0.8,0.7-1.3,1.2-1.8c0.5-0.4,1.1-0.6,1.7-0.6c0.4,0,0.7,0.1,1,0.3c0.3,0.2,0.5,0.5,0.7,0.9h0.1l0.4-1.1h0.9l-1.5,7h-0.9
			l0.2-1.3H122C121.2,71.2,120.4,71.7,119.6,71.7z M120,70.8c0.4,0,0.8-0.2,1.2-0.6c0.4-0.4,0.7-0.9,1-1.5c0.2-0.6,0.4-1.2,0.4-1.9
			c0-0.4-0.1-0.8-0.3-1s-0.5-0.4-0.9-0.4c-0.4,0-0.8,0.2-1.2,0.5s-0.7,0.8-0.9,1.4c-0.2,0.6-0.3,1.3-0.3,1.9c0,0.5,0.1,0.8,0.3,1.1
			S119.6,70.8,120,70.8z"/>
		<path id="XMLID_242_" class="st1" d="M132.8,64.5c0.5,0,0.8,0.1,1.1,0.4c0.3,0.3,0.4,0.7,0.5,1.1h0.1c0.7-1,1.5-1.5,2.4-1.5
			c0.5,0,1,0.1,1.3,0.4s0.4,0.7,0.4,1.3c0,0.4,0,0.8-0.1,1.1l-0.9,4.2h-1.2l0.9-4.4c0.1-0.4,0.1-0.7,0.1-0.9c0-0.3-0.1-0.5-0.2-0.6
			s-0.4-0.2-0.7-0.2c-0.3,0-0.7,0.1-1,0.4s-0.6,0.6-0.9,1c-0.3,0.5-0.4,1-0.6,1.6l-0.7,3.1h-1.1l0.9-4.4c0.1-0.4,0.1-0.7,0.1-0.9
			c0-0.6-0.3-0.9-0.8-0.9c-0.3,0-0.7,0.1-1,0.4s-0.6,0.6-0.9,1.1s-0.4,1-0.6,1.7l-0.6,3h-1.1l1.5-7h0.9l-0.1,1.3h0.1
			c0.3-0.4,0.5-0.7,0.7-0.8c0.2-0.2,0.4-0.3,0.7-0.4C132.2,64.5,132.5,64.5,132.8,64.5z"/>
		<path id="XMLID_244_" class="st1" d="M142.4,71.7c-0.8,0-1.4-0.2-1.9-0.7c-0.4-0.5-0.7-1.1-0.7-1.9c0-0.8,0.2-1.6,0.5-2.3
			c0.3-0.7,0.7-1.3,1.3-1.7c0.5-0.4,1.1-0.6,1.8-0.6c0.7,0,1.2,0.1,1.5,0.4c0.3,0.3,0.5,0.7,0.5,1.2c0,0.8-0.4,1.4-1.1,1.8
			s-1.7,0.7-3,0.7H141l0,0.5c0,0.5,0.1,1,0.4,1.3s0.7,0.5,1.2,0.5c0.3,0,0.6,0,0.9-0.1c0.3-0.1,0.6-0.2,1-0.4v1
			c-0.4,0.2-0.8,0.3-1.1,0.4C143.1,71.7,142.7,71.7,142.4,71.7z M143.3,65.4c-0.4,0-0.8,0.2-1.2,0.6c-0.4,0.4-0.7,0.9-0.8,1.6h0.1
			c0.9,0,1.6-0.1,2.1-0.4c0.5-0.2,0.8-0.6,0.8-1.1c0-0.2-0.1-0.4-0.2-0.6C143.8,65.5,143.6,65.4,143.3,65.4z"/>
		<path id="XMLID_247_" class="st1" d="M150.7,64.5c0.5,0,0.8,0.1,1.1,0.4c0.3,0.3,0.4,0.7,0.5,1.1h0.1c0.7-1,1.5-1.5,2.4-1.5
			c0.5,0,1,0.1,1.3,0.4s0.4,0.7,0.4,1.3c0,0.4,0,0.8-0.1,1.1l-0.9,4.2h-1.2l0.9-4.4c0.1-0.4,0.1-0.7,0.1-0.9c0-0.3-0.1-0.5-0.2-0.6
			s-0.4-0.2-0.7-0.2c-0.3,0-0.7,0.1-1,0.4s-0.6,0.6-0.9,1c-0.3,0.5-0.4,1-0.6,1.6l-0.7,3.1h-1.1l0.9-4.4c0.1-0.4,0.1-0.7,0.1-0.9
			c0-0.6-0.3-0.9-0.8-0.9c-0.3,0-0.7,0.1-1,0.4s-0.6,0.6-0.9,1.1s-0.4,1-0.6,1.7l-0.6,3h-1.1l1.5-7h0.9l-0.1,1.3h0.1
			c0.3-0.4,0.5-0.7,0.7-0.8c0.2-0.2,0.4-0.3,0.7-0.4C150.1,64.5,150.4,64.5,150.7,64.5z"/>
		<path id="XMLID_249_" class="st1" d="M160.6,71.7c-0.4,0-0.8-0.1-1.1-0.3c-0.3-0.2-0.5-0.5-0.7-0.9h-0.1l-0.4,1.1h-0.9l2.1-9.9
			h1.1l-0.5,2.3c-0.1,0.4-0.2,0.8-0.3,1.2s-0.2,0.6-0.2,0.7h0.1c0.4-0.5,0.8-0.9,1.2-1.1c0.4-0.2,0.7-0.3,1.1-0.3
			c0.6,0,1.1,0.2,1.4,0.6c0.3,0.4,0.5,1,0.5,1.7c0,0.9-0.1,1.7-0.4,2.4c-0.3,0.8-0.7,1.3-1.2,1.8C161.8,71.5,161.2,71.7,160.6,71.7z
			 M161.7,65.4c-0.4,0-0.8,0.2-1.2,0.6c-0.4,0.4-0.7,0.9-1,1.5c-0.2,0.6-0.4,1.2-0.4,1.8c0,0.4,0.1,0.8,0.3,1c0.2,0.2,0.6,0.4,1,0.4
			c0.4,0,0.8-0.2,1.2-0.5c0.4-0.3,0.6-0.8,0.8-1.4c0.2-0.6,0.3-1.3,0.3-1.9C162.8,65.9,162.4,65.4,161.7,65.4z"/>
		<path id="XMLID_252_" class="st1" d="M167.1,71.7c-0.6,0-1-0.2-1.4-0.6s-0.5-1-0.5-1.8c0-0.9,0.1-1.7,0.4-2.4
			c0.3-0.8,0.7-1.3,1.2-1.8c0.5-0.4,1.1-0.6,1.7-0.6c0.4,0,0.7,0.1,1,0.3c0.3,0.2,0.5,0.5,0.7,0.9h0.1l0.4-1.1h0.9l-1.5,7h-0.9
			l0.2-1.3h-0.1C168.8,71.2,168,71.7,167.1,71.7z M167.5,70.8c0.4,0,0.8-0.2,1.2-0.6c0.4-0.4,0.7-0.9,1-1.5c0.2-0.6,0.4-1.2,0.4-1.9
			c0-0.4-0.1-0.8-0.3-1s-0.5-0.4-0.9-0.4c-0.4,0-0.8,0.2-1.2,0.5s-0.7,0.8-0.9,1.4c-0.2,0.6-0.3,1.3-0.3,1.9c0,0.5,0.1,0.8,0.3,1.1
			S167.2,70.8,167.5,70.8z"/>
		<path id="XMLID_255_" class="st1" d="M172.6,64.6h1.1l0.5,3.4c0,0.3,0.1,0.7,0.1,1.2c0,0.5,0.1,1,0.1,1.4h0
			c0.1-0.3,0.3-0.7,0.5-1.1c0.2-0.5,0.4-0.8,0.5-1.1l2-3.8h1.2l-4.4,8.1c-0.4,0.7-0.8,1.2-1.2,1.5c-0.4,0.3-0.9,0.4-1.4,0.4
			c-0.3,0-0.6,0-0.9-0.1v-0.9c0.3,0.1,0.5,0.1,0.8,0.1c0.3,0,0.6-0.1,0.9-0.3s0.5-0.5,0.7-0.9l0.5-0.8L172.6,64.6z"/>
		<path id="XMLID_257_" class="st1" d="M180.6,71.7c-0.6,0-1-0.2-1.4-0.6s-0.5-1-0.5-1.8c0-0.9,0.1-1.7,0.4-2.4
			c0.3-0.8,0.7-1.3,1.2-1.8c0.5-0.4,1.1-0.6,1.7-0.6c0.4,0,0.7,0.1,1,0.3c0.3,0.2,0.5,0.5,0.7,0.9h0.1l0.4-1.1h0.9l-1.5,7h-0.9
			l0.2-1.3h-0.1C182.2,71.2,181.4,71.7,180.6,71.7z M181,70.8c0.4,0,0.8-0.2,1.2-0.6c0.4-0.4,0.7-0.9,1-1.5c0.2-0.6,0.4-1.2,0.4-1.9
			c0-0.4-0.1-0.8-0.3-1s-0.5-0.4-0.9-0.4c-0.4,0-0.8,0.2-1.2,0.5s-0.7,0.8-0.9,1.4c-0.2,0.6-0.3,1.3-0.3,1.9c0,0.5,0.1,0.8,0.3,1.1
			S180.6,70.8,181,70.8z"/>
		<path id="XMLID_260_" class="st1" d="M190.3,64.5c0.3,0,0.5,0,0.8,0.1l-0.2,1c-0.2-0.1-0.5-0.1-0.7-0.1c-0.4,0-0.7,0.1-1.1,0.4
			c-0.3,0.2-0.6,0.6-0.9,1c-0.2,0.4-0.4,0.9-0.5,1.5l-0.7,3.2h-1.1l1.5-7h0.9l-0.1,1.3h0.1c0.3-0.4,0.6-0.7,0.8-0.9s0.4-0.3,0.6-0.4
			C189.8,64.5,190,64.5,190.3,64.5z"/>
		<path id="XMLID_262_" class="st1" d="M196.5,71.7c-0.6,0-1-0.2-1.4-0.6c-0.3-0.4-0.5-1-0.5-1.8c0-0.9,0.1-1.7,0.4-2.5
			c0.3-0.8,0.7-1.3,1.2-1.8s1.1-0.6,1.7-0.6c0.8,0,1.4,0.4,1.8,1.2h0.1c0.1-0.7,0.2-1.3,0.3-1.7l0.5-2.3h1.1l-2.1,9.9h-0.9l0.1-1.3
			h-0.1c-0.4,0.5-0.8,0.9-1.2,1.1C197.3,71.6,196.9,71.7,196.5,71.7z M196.9,70.8c0.4,0,0.8-0.2,1.2-0.6s0.7-0.9,1-1.5
			s0.4-1.2,0.4-1.8c0-0.5-0.1-0.8-0.3-1s-0.5-0.4-1-0.4c-0.4,0-0.8,0.2-1.2,0.5s-0.6,0.8-0.8,1.4c-0.2,0.6-0.3,1.3-0.3,1.9
			C195.8,70.3,196.2,70.8,196.9,70.8z"/>
		<path id="XMLID_265_" class="st1" d="M204.7,71.7c-0.8,0-1.4-0.2-1.9-0.7c-0.4-0.5-0.7-1.1-0.7-1.9c0-0.8,0.2-1.6,0.5-2.3
			c0.3-0.7,0.7-1.3,1.3-1.7c0.5-0.4,1.1-0.6,1.8-0.6c0.7,0,1.2,0.1,1.5,0.4c0.3,0.3,0.5,0.7,0.5,1.2c0,0.8-0.4,1.4-1.1,1.8
			s-1.7,0.7-3,0.7h-0.2l0,0.5c0,0.5,0.1,1,0.4,1.3s0.7,0.5,1.2,0.5c0.3,0,0.6,0,0.9-0.1c0.3-0.1,0.6-0.2,1-0.4v1
			c-0.4,0.2-0.8,0.3-1.1,0.4C205.4,71.7,205,71.7,204.7,71.7z M205.6,65.4c-0.4,0-0.8,0.2-1.2,0.6c-0.4,0.4-0.7,0.9-0.8,1.6h0.1
			c0.9,0,1.6-0.1,2.1-0.4c0.5-0.2,0.8-0.6,0.8-1.1c0-0.2-0.1-0.4-0.2-0.6C206.1,65.5,205.9,65.4,205.6,65.4z"/>
		<path id="XMLID_268_" class="st1" d="M213.8,71.6h-1.1l0.9-4.4c0.1-0.4,0.1-0.7,0.1-0.9c0-0.3-0.1-0.5-0.2-0.6
			c-0.1-0.2-0.4-0.2-0.7-0.2c-0.4,0-0.7,0.1-1.1,0.4s-0.7,0.6-0.9,1.1c-0.3,0.5-0.5,1-0.6,1.7l-0.6,3h-1.1l1.5-7h0.9l-0.1,1.3h0.1
			c0.3-0.4,0.5-0.6,0.8-0.8s0.5-0.3,0.7-0.4c0.3-0.1,0.5-0.2,0.8-0.2c0.5,0,1,0.1,1.3,0.4c0.3,0.3,0.5,0.7,0.5,1.3
			c0,0.3,0,0.7-0.1,1.1L213.8,71.6z"/>
		<path id="XMLID_270_" class="st1" d="M218,74.7c-0.8,0-1.5-0.1-2.1-0.4v-1.1c0.3,0.2,0.6,0.3,1,0.4c0.4,0.1,0.7,0.2,1.1,0.2
			c0.6,0,1-0.1,1.3-0.4c0.3-0.3,0.6-0.7,0.7-1.3l0.3-1.3l0.1-0.4h-0.1c-0.4,0.5-0.8,0.9-1.1,1.1c-0.4,0.2-0.8,0.3-1.2,0.3
			c-0.6,0-1.1-0.2-1.4-0.6s-0.5-1-0.5-1.8c0-0.9,0.2-1.7,0.5-2.5c0.3-0.8,0.7-1.3,1.2-1.7c0.5-0.4,1.1-0.6,1.7-0.6
			c0.8,0,1.4,0.4,1.8,1.2h0.1l0.4-1.1h0.9l-1.6,7.4c-0.2,0.9-0.6,1.6-1.1,2.1C219.5,74.5,218.9,74.7,218,74.7z M218.4,70.8
			c0.4,0,0.8-0.2,1.2-0.6s0.7-0.9,1-1.5s0.4-1.2,0.4-1.8c0-0.9-0.4-1.4-1.3-1.4c-0.4,0-0.8,0.2-1.2,0.5c-0.4,0.4-0.6,0.8-0.8,1.5
			c-0.2,0.6-0.3,1.3-0.3,1.9C217.3,70.3,217.7,70.8,218.4,70.8z"/>
		<path id="XMLID_273_" class="st1" d="M225.6,71.7c-0.6,0-1-0.2-1.4-0.6s-0.5-1-0.5-1.8c0-0.9,0.1-1.7,0.4-2.4
			c0.3-0.8,0.7-1.3,1.2-1.8c0.5-0.4,1.1-0.6,1.7-0.6c0.4,0,0.7,0.1,1,0.3c0.3,0.2,0.5,0.5,0.7,0.9h0.1l0.4-1.1h0.9l-1.5,7h-0.9
			l0.2-1.3H228C227.2,71.2,226.4,71.7,225.6,71.7z M226,70.8c0.4,0,0.8-0.2,1.2-0.6c0.4-0.4,0.7-0.9,1-1.5c0.2-0.6,0.4-1.2,0.4-1.9
			c0-0.4-0.1-0.8-0.3-1s-0.5-0.4-0.9-0.4c-0.4,0-0.8,0.2-1.2,0.5s-0.7,0.8-0.9,1.4c-0.2,0.6-0.3,1.3-0.3,1.9c0,0.5,0.1,0.8,0.3,1.1
			S225.6,70.8,226,70.8z"/>
		<path id="XMLID_276_" class="st1" d="M236.2,71.6h-1.1l0.9-4.4c0.1-0.4,0.1-0.7,0.1-0.9c0-0.3-0.1-0.5-0.2-0.6
			c-0.1-0.2-0.4-0.2-0.7-0.2c-0.4,0-0.7,0.1-1.1,0.4s-0.7,0.6-0.9,1.1c-0.3,0.5-0.5,1-0.6,1.7l-0.6,3h-1.1l1.5-7h0.9l-0.1,1.3h0.1
			c0.3-0.4,0.5-0.6,0.8-0.8s0.5-0.3,0.7-0.4c0.3-0.1,0.5-0.2,0.8-0.2c0.5,0,1,0.1,1.3,0.4c0.3,0.3,0.5,0.7,0.5,1.3
			c0,0.3,0,0.7-0.1,1.1L236.2,71.6z"/>
		<path id="XMLID_278_" class="st1" d="M56.8,87.2h-1.1l0.9-4.4c0.1-0.4,0.1-0.7,0.1-0.9c0-0.6-0.3-0.9-0.9-0.9
			c-0.4,0-0.7,0.1-1.1,0.4s-0.7,0.6-0.9,1.1s-0.5,1-0.6,1.7l-0.6,3h-1.1l2.1-9.9h1.1l-0.6,2.6c-0.1,0.3-0.1,0.5-0.2,0.8
			s-0.1,0.6-0.2,0.8h0.1c0.4-0.5,0.8-0.9,1.1-1.1c0.4-0.2,0.8-0.3,1.2-0.3c0.6,0,1,0.2,1.3,0.5s0.5,0.7,0.5,1.3c0,0.2,0,0.6-0.1,1.1
			L56.8,87.2z"/>
		<path id="XMLID_280_" class="st1" d="M61.1,87.3c-0.6,0-1-0.2-1.4-0.6s-0.5-1-0.5-1.8c0-0.9,0.1-1.7,0.4-2.4
			c0.3-0.8,0.7-1.3,1.2-1.8c0.5-0.4,1.1-0.6,1.7-0.6c0.4,0,0.7,0.1,1,0.3c0.3,0.2,0.5,0.5,0.7,0.9h0.1l0.4-1.1h0.9l-1.5,7h-0.9
			l0.2-1.3h-0.1C62.8,86.8,62,87.3,61.1,87.3z M61.5,86.4c0.4,0,0.8-0.2,1.2-0.6c0.4-0.4,0.7-0.9,1-1.5c0.2-0.6,0.4-1.2,0.4-1.9
			c0-0.4-0.1-0.8-0.3-1S63.1,81,62.8,81c-0.4,0-0.8,0.2-1.2,0.5s-0.7,0.8-0.9,1.4c-0.2,0.6-0.3,1.3-0.3,1.9c0,0.5,0.1,0.8,0.3,1.1
			S61.2,86.4,61.5,86.4z"/>
		<path id="XMLID_283_" class="st1" d="M70.8,80.1c0.3,0,0.5,0,0.8,0.1l-0.2,1c-0.2-0.1-0.5-0.1-0.7-0.1c-0.4,0-0.7,0.1-1.1,0.4
			c-0.3,0.2-0.6,0.6-0.9,1c-0.2,0.4-0.4,0.9-0.5,1.5l-0.7,3.2h-1.1l1.5-7h0.9l-0.1,1.3h0.1c0.3-0.4,0.6-0.7,0.8-0.9s0.4-0.3,0.6-0.4
			C70.3,80.1,70.6,80.1,70.8,80.1z"/>
		<path id="XMLID_285_" class="st1" d="M73.6,90.3c-0.8,0-1.5-0.1-2.1-0.4v-1.1c0.3,0.2,0.6,0.3,1,0.4c0.4,0.1,0.7,0.2,1.1,0.2
			c0.6,0,1-0.1,1.3-0.4c0.3-0.3,0.6-0.7,0.7-1.3l0.3-1.3l0.1-0.4H76c-0.4,0.5-0.8,0.9-1.1,1.1c-0.4,0.2-0.8,0.3-1.2,0.3
			c-0.6,0-1.1-0.2-1.4-0.6s-0.5-1-0.5-1.8c0-0.9,0.2-1.7,0.5-2.5c0.3-0.8,0.7-1.3,1.2-1.7c0.5-0.4,1.1-0.6,1.7-0.6
			c0.8,0,1.4,0.4,1.8,1.2H77l0.4-1.1h0.9l-1.6,7.4c-0.2,0.9-0.6,1.6-1.1,2.1C75.2,90.1,74.5,90.3,73.6,90.3z M74.1,86.4
			c0.4,0,0.8-0.2,1.2-0.6s0.7-0.9,1-1.5s0.4-1.2,0.4-1.8c0-0.9-0.4-1.4-1.3-1.4c-0.4,0-0.8,0.2-1.2,0.5c-0.4,0.4-0.6,0.8-0.8,1.5
			C73.1,83.6,73,84.3,73,85C73,85.9,73.3,86.4,74.1,86.4z"/>
		<path id="XMLID_288_" class="st1" d="M81.2,87.3c-0.6,0-1-0.2-1.4-0.6s-0.5-1-0.5-1.8c0-0.9,0.1-1.7,0.4-2.4
			c0.3-0.8,0.7-1.3,1.2-1.8c0.5-0.4,1.1-0.6,1.7-0.6c0.4,0,0.7,0.1,1,0.3c0.3,0.2,0.5,0.5,0.7,0.9h0.1l0.4-1.1h0.9l-1.5,7h-0.9
			l0.2-1.3h-0.1C82.8,86.8,82,87.3,81.2,87.3z M81.6,86.4c0.4,0,0.8-0.2,1.2-0.6c0.4-0.4,0.7-0.9,1-1.5c0.2-0.6,0.4-1.2,0.4-1.9
			c0-0.4-0.1-0.8-0.3-1S83.2,81,82.9,81c-0.4,0-0.8,0.2-1.2,0.5S81,82.4,80.8,83c-0.2,0.6-0.3,1.3-0.3,1.9c0,0.5,0.1,0.8,0.3,1.1
			S81.2,86.4,81.6,86.4z"/>
		<path id="XMLID_291_" class="st1" d="M90.1,80.2h1.1l0.5,3.4c0,0.3,0.1,0.7,0.1,1.2c0,0.5,0.1,1,0.1,1.4h0
			c0.1-0.3,0.3-0.7,0.5-1.1c0.2-0.5,0.4-0.8,0.5-1.1l2-3.8h1.2l-4.4,8.1c-0.4,0.7-0.8,1.2-1.2,1.5c-0.4,0.3-0.9,0.4-1.4,0.4
			c-0.3,0-0.6,0-0.9-0.1v-0.9c0.3,0.1,0.5,0.1,0.8,0.1c0.3,0,0.6-0.1,0.9-0.3s0.5-0.5,0.7-0.9l0.5-0.8L90.1,80.2z"/>
		<path id="XMLID_293_" class="st1" d="M98,87.3c-0.6,0-1-0.2-1.4-0.6s-0.5-1-0.5-1.8c0-0.9,0.1-1.7,0.4-2.4
			c0.3-0.8,0.7-1.3,1.2-1.8c0.5-0.4,1.1-0.6,1.7-0.6c0.4,0,0.7,0.1,1,0.3c0.3,0.2,0.5,0.5,0.7,0.9h0.1l0.4-1.1h0.9l-1.5,7h-0.9
			l0.2-1.3h-0.1C99.7,86.8,98.9,87.3,98,87.3z M98.4,86.4c0.4,0,0.8-0.2,1.2-0.6c0.4-0.4,0.7-0.9,1-1.5c0.2-0.6,0.4-1.2,0.4-1.9
			c0-0.4-0.1-0.8-0.3-1s-0.5-0.4-0.9-0.4c-0.4,0-0.8,0.2-1.2,0.5s-0.7,0.8-0.9,1.4c-0.2,0.6-0.3,1.3-0.3,1.9c0,0.5,0.1,0.8,0.3,1.1
			S98.1,86.4,98.4,86.4z"/>
		<path id="XMLID_296_" class="st1" d="M108.7,87.2h-1.1l0.9-4.4c0.1-0.4,0.1-0.7,0.1-0.9c0-0.3-0.1-0.5-0.2-0.6
			c-0.1-0.2-0.4-0.2-0.7-0.2c-0.4,0-0.7,0.1-1.1,0.4s-0.7,0.6-0.9,1.1c-0.3,0.5-0.5,1-0.6,1.7l-0.6,3h-1.1l1.5-7h0.9l-0.1,1.3h0.1
			c0.3-0.4,0.5-0.6,0.8-0.8s0.5-0.3,0.7-0.4c0.3-0.1,0.5-0.2,0.8-0.2c0.5,0,1,0.1,1.3,0.4c0.3,0.3,0.5,0.7,0.5,1.3
			c0,0.3,0,0.7-0.1,1.1L108.7,87.2z"/>
		<path id="XMLID_298_" class="st1" d="M112.9,90.3c-0.8,0-1.5-0.1-2.1-0.4v-1.1c0.3,0.2,0.6,0.3,1,0.4c0.4,0.1,0.7,0.2,1.1,0.2
			c0.6,0,1-0.1,1.3-0.4c0.3-0.3,0.6-0.7,0.7-1.3l0.3-1.3l0.1-0.4h-0.1c-0.4,0.5-0.8,0.9-1.1,1.1c-0.4,0.2-0.8,0.3-1.2,0.3
			c-0.6,0-1.1-0.2-1.4-0.6s-0.5-1-0.5-1.8c0-0.9,0.2-1.7,0.5-2.5c0.3-0.8,0.7-1.3,1.2-1.7c0.5-0.4,1.1-0.6,1.7-0.6
			c0.8,0,1.4,0.4,1.8,1.2h0.1l0.4-1.1h0.9l-1.6,7.4c-0.2,0.9-0.6,1.6-1.1,2.1C114.4,90.1,113.7,90.3,112.9,90.3z M113.3,86.4
			c0.4,0,0.8-0.2,1.2-0.6s0.7-0.9,1-1.5s0.4-1.2,0.4-1.8c0-0.9-0.4-1.4-1.3-1.4c-0.4,0-0.8,0.2-1.2,0.5c-0.4,0.4-0.6,0.8-0.8,1.5
			c-0.2,0.6-0.3,1.3-0.3,1.9C112.2,85.9,112.6,86.4,113.3,86.4z"/>
		<path id="XMLID_301_" class="st1" d="M123.9,86.4c0.3,0,0.6-0.1,0.9-0.2v0.9c-0.1,0.1-0.3,0.1-0.5,0.2c-0.2,0-0.4,0.1-0.6,0.1
			c-0.5,0-1-0.1-1.2-0.4s-0.4-0.6-0.4-1.1c0-0.3,0-0.6,0.1-0.9l0.8-3.8h-1.1l0.1-0.5l1.2-0.5l0.8-1.4h0.7l-0.3,1.6h1.8l-0.2,0.9
			h-1.7l-0.8,3.8c-0.1,0.3-0.1,0.6-0.1,0.8c0,0.2,0.1,0.4,0.2,0.5S123.7,86.4,123.9,86.4z"/>
		<path id="XMLID_303_" class="st1" d="M128.8,87.3c-0.8,0-1.4-0.2-1.9-0.7c-0.4-0.5-0.7-1.1-0.7-1.9c0-0.8,0.2-1.6,0.5-2.3
			c0.3-0.7,0.7-1.3,1.3-1.7c0.5-0.4,1.1-0.6,1.8-0.6c0.7,0,1.2,0.1,1.5,0.4c0.3,0.3,0.5,0.7,0.5,1.2c0,0.8-0.4,1.4-1.1,1.8
			s-1.7,0.7-3,0.7h-0.2l0,0.5c0,0.5,0.1,1,0.4,1.3s0.7,0.5,1.2,0.5c0.3,0,0.6,0,0.9-0.1c0.3-0.1,0.6-0.2,1-0.4v1
			c-0.4,0.2-0.8,0.3-1.1,0.4C129.5,87.3,129.2,87.3,128.8,87.3z M129.7,81c-0.4,0-0.8,0.2-1.2,0.6c-0.4,0.4-0.7,0.9-0.8,1.6h0.1
			c0.9,0,1.6-0.1,2.1-0.4c0.5-0.2,0.8-0.6,0.8-1.1c0-0.2-0.1-0.4-0.2-0.6C130.3,81.1,130,81,129.7,81z"/>
		<path id="XMLID_306_" class="st1" d="M137,80.1c0.3,0,0.5,0,0.8,0.1l-0.2,1c-0.2-0.1-0.5-0.1-0.7-0.1c-0.4,0-0.7,0.1-1.1,0.4
			c-0.3,0.2-0.6,0.6-0.9,1c-0.2,0.4-0.4,0.9-0.5,1.5l-0.7,3.2h-1.1l1.5-7h0.9l-0.1,1.3h0.1c0.3-0.4,0.6-0.7,0.8-0.9s0.4-0.3,0.6-0.4
			C136.5,80.1,136.7,80.1,137,80.1z"/>
		<path id="XMLID_308_" class="st1" d="M140.8,87.3c-0.4,0-0.8-0.1-1.1-0.3c-0.3-0.2-0.5-0.5-0.7-0.9H139l-0.4,1.1h-0.9l2.1-9.9h1.1
			l-0.5,2.3c-0.1,0.4-0.2,0.8-0.3,1.2s-0.2,0.6-0.2,0.7h0.1c0.4-0.5,0.8-0.9,1.2-1.1c0.4-0.2,0.7-0.3,1.1-0.3c0.6,0,1.1,0.2,1.4,0.6
			c0.3,0.4,0.5,1,0.5,1.7c0,0.9-0.1,1.7-0.4,2.4c-0.3,0.8-0.7,1.3-1.2,1.8C142,87.1,141.5,87.3,140.8,87.3z M141.9,81
			c-0.4,0-0.8,0.2-1.2,0.6c-0.4,0.4-0.7,0.9-1,1.5c-0.2,0.6-0.4,1.2-0.4,1.8c0,0.4,0.1,0.8,0.3,1c0.2,0.2,0.6,0.4,1,0.4
			c0.4,0,0.8-0.2,1.2-0.5c0.4-0.3,0.6-0.8,0.8-1.4c0.2-0.6,0.3-1.3,0.3-1.9C143,81.5,142.7,81,141.9,81z"/>
		<path id="XMLID_311_" class="st1" d="M147.4,87.3c-0.6,0-1-0.2-1.4-0.6s-0.5-1-0.5-1.8c0-0.9,0.1-1.7,0.4-2.4
			c0.3-0.8,0.7-1.3,1.2-1.8c0.5-0.4,1.1-0.6,1.7-0.6c0.4,0,0.7,0.1,1,0.3c0.3,0.2,0.5,0.5,0.7,0.9h0.1l0.4-1.1h0.9l-1.5,7h-0.9
			l0.2-1.3h-0.1C149,86.8,148.2,87.3,147.4,87.3z M147.7,86.4c0.4,0,0.8-0.2,1.2-0.6c0.4-0.4,0.7-0.9,1-1.5c0.2-0.6,0.4-1.2,0.4-1.9
			c0-0.4-0.1-0.8-0.3-1S149.4,81,149,81c-0.4,0-0.8,0.2-1.2,0.5s-0.7,0.8-0.9,1.4c-0.2,0.6-0.3,1.3-0.3,1.9c0,0.5,0.1,0.8,0.3,1.1
			S147.4,86.4,147.7,86.4z"/>
		<path id="XMLID_314_" class="st1" d="M153.7,87.2h-1.1l1.5-7h1.1L153.7,87.2z M154.4,78.4c0-0.2,0.1-0.4,0.2-0.6s0.3-0.2,0.6-0.2
			c0.4,0,0.6,0.2,0.6,0.6c0,0.3-0.1,0.5-0.2,0.6c-0.1,0.2-0.3,0.2-0.5,0.2c-0.2,0-0.3-0.1-0.4-0.2C154.4,78.8,154.4,78.6,154.4,78.4
			z"/>
		<path id="XMLID_317_" class="st1" d="M161,80.2h1.4l-3,3l1.9,4H160l-1.5-3.3l-0.9,0.7l-0.5,2.5h-1.2l2.1-9.9h1.2
			c-0.4,1.7-0.7,3.1-0.9,4c-0.2,0.9-0.4,1.7-0.6,2.3h0L161,80.2z"/>
		<path id="XMLID_319_" class="st1" d="M163,86.7c0-0.3,0.1-0.6,0.3-0.8c0.2-0.2,0.4-0.3,0.7-0.3c0.2,0,0.3,0.1,0.5,0.2
			s0.2,0.3,0.2,0.5c0,0.3-0.1,0.6-0.3,0.8c-0.2,0.2-0.4,0.3-0.7,0.3c-0.2,0-0.4-0.1-0.5-0.2C163.1,87.1,163,86.9,163,86.7z
			 M163.7,84.6c0.1-0.6,0.3-1,0.5-1.4c0.2-0.4,0.6-0.7,1-1.1c0.5-0.4,0.8-0.7,1-0.9c0.2-0.2,0.3-0.4,0.4-0.6
			c0.1-0.2,0.1-0.4,0.1-0.7c0-0.4-0.1-0.7-0.3-0.9c-0.2-0.2-0.5-0.3-0.9-0.3c-0.3,0-0.7,0.1-1,0.2c-0.3,0.1-0.6,0.2-0.9,0.4
			l-0.4-0.9c0.4-0.2,0.8-0.4,1.2-0.5s0.8-0.2,1.2-0.2c0.7,0,1.3,0.2,1.7,0.5s0.6,0.9,0.6,1.5c0,0.5-0.1,1-0.4,1.4s-0.8,0.9-1.5,1.4
			c-0.5,0.4-0.9,0.7-1.1,0.9c-0.2,0.2-0.3,0.6-0.4,1H163.7z"/>
		<path id="XMLID_333_" class="st1" d="M176.8,84.5c0,0.9-0.3,1.6-0.9,2.1c-0.6,0.5-1.4,0.7-2.5,0.7c-0.9,0-1.6-0.1-2.2-0.4v-1.1
			c0.7,0.4,1.4,0.5,2.2,0.5c0.7,0,1.2-0.2,1.6-0.5s0.6-0.7,0.6-1.3c0-0.3-0.1-0.6-0.3-0.9c-0.2-0.2-0.6-0.5-1.2-0.9
			c-0.6-0.4-1.1-0.7-1.3-1.1c-0.2-0.4-0.4-0.8-0.4-1.3c0-0.5,0.1-1,0.4-1.4s0.6-0.7,1.1-0.9s1-0.3,1.6-0.3c0.8,0,1.6,0.2,2.3,0.5
			l-0.4,1c-0.3-0.2-0.6-0.3-0.9-0.4c-0.3-0.1-0.7-0.1-1-0.1c-0.5,0-1,0.1-1.3,0.4c-0.3,0.3-0.5,0.7-0.5,1.2c0,0.3,0.1,0.6,0.2,0.8
			c0.2,0.2,0.5,0.5,1.1,0.8c0.6,0.4,1,0.7,1.2,0.9s0.4,0.5,0.5,0.7C176.7,83.8,176.8,84.1,176.8,84.5z"/>
		<path id="XMLID_335_" class="st1" d="M180.7,87.3c-0.8,0-1.4-0.2-1.9-0.7c-0.4-0.5-0.7-1.1-0.7-1.9c0-0.8,0.2-1.6,0.5-2.3
			c0.3-0.7,0.7-1.3,1.3-1.7c0.5-0.4,1.1-0.6,1.8-0.6c0.7,0,1.2,0.1,1.5,0.4c0.3,0.3,0.5,0.7,0.5,1.2c0,0.8-0.4,1.4-1.1,1.8
			s-1.7,0.7-3,0.7h-0.2l0,0.5c0,0.5,0.1,1,0.4,1.3s0.7,0.5,1.2,0.5c0.3,0,0.6,0,0.9-0.1c0.3-0.1,0.6-0.2,1-0.4v1
			c-0.4,0.2-0.8,0.3-1.1,0.4C181.4,87.3,181.1,87.3,180.7,87.3z M181.6,81c-0.4,0-0.8,0.2-1.2,0.6c-0.4,0.4-0.7,0.9-0.8,1.6h0.1
			c0.9,0,1.6-0.1,2.1-0.4c0.5-0.2,0.8-0.6,0.8-1.1c0-0.2-0.1-0.4-0.2-0.6C182.1,81.1,181.9,81,181.6,81z"/>
		<path id="XMLID_338_" class="st1" d="M187.5,87.3c-0.4,0-0.8-0.1-1.1-0.3c-0.3-0.2-0.5-0.5-0.7-0.9h-0.1l-0.4,1.1h-0.9l2.1-9.9
			h1.1l-0.5,2.3c-0.1,0.4-0.2,0.8-0.3,1.2s-0.2,0.6-0.2,0.7h0.1c0.4-0.5,0.8-0.9,1.2-1.1c0.4-0.2,0.7-0.3,1.1-0.3
			c0.6,0,1.1,0.2,1.4,0.6c0.3,0.4,0.5,1,0.5,1.7c0,0.9-0.1,1.7-0.4,2.4c-0.3,0.8-0.7,1.3-1.2,1.8C188.8,87.1,188.2,87.3,187.5,87.3z
			 M188.7,81c-0.4,0-0.8,0.2-1.2,0.6c-0.4,0.4-0.7,0.9-1,1.5c-0.2,0.6-0.4,1.2-0.4,1.8c0,0.4,0.1,0.8,0.3,1c0.2,0.2,0.6,0.4,1,0.4
			c0.4,0,0.8-0.2,1.2-0.5c0.4-0.3,0.6-0.8,0.8-1.4c0.2-0.6,0.3-1.3,0.3-1.9C189.8,81.5,189.4,81,188.7,81z"/>
		<path id="XMLID_341_" class="st1" d="M194.7,87.3c-0.8,0-1.4-0.2-1.9-0.7c-0.4-0.5-0.7-1.1-0.7-1.9c0-0.8,0.2-1.6,0.5-2.3
			c0.3-0.7,0.7-1.3,1.3-1.7c0.5-0.4,1.1-0.6,1.8-0.6c0.7,0,1.2,0.1,1.5,0.4c0.3,0.3,0.5,0.7,0.5,1.2c0,0.8-0.4,1.4-1.1,1.8
			s-1.7,0.7-3,0.7h-0.2l0,0.5c0,0.5,0.1,1,0.4,1.3s0.7,0.5,1.2,0.5c0.3,0,0.6,0,0.9-0.1c0.3-0.1,0.6-0.2,1-0.4v1
			c-0.4,0.2-0.8,0.3-1.1,0.4C195.4,87.3,195.1,87.3,194.7,87.3z M195.6,81c-0.4,0-0.8,0.2-1.2,0.6c-0.4,0.4-0.7,0.9-0.8,1.6h0.1
			c0.9,0,1.6-0.1,2.1-0.4c0.5-0.2,0.8-0.6,0.8-1.1c0-0.2-0.1-0.4-0.2-0.6C196.2,81.1,195.9,81,195.6,81z"/>
		<path id="XMLID_344_" class="st1" d="M202.9,80.1c0.3,0,0.5,0,0.8,0.1l-0.2,1c-0.2-0.1-0.5-0.1-0.7-0.1c-0.4,0-0.7,0.1-1.1,0.4
			c-0.3,0.2-0.6,0.6-0.9,1c-0.2,0.4-0.4,0.9-0.5,1.5l-0.7,3.2h-1.1l1.5-7h0.9l-0.1,1.3h0.1c0.3-0.4,0.6-0.7,0.8-0.9s0.4-0.3,0.6-0.4
			C202.4,80.1,202.6,80.1,202.9,80.1z"/>
		<path id="XMLID_346_" class="st1" d="M205.7,87.3c-0.6,0-1-0.2-1.4-0.6s-0.5-1-0.5-1.8c0-0.9,0.1-1.7,0.4-2.4
			c0.3-0.8,0.7-1.3,1.2-1.8c0.5-0.4,1.1-0.6,1.7-0.6c0.4,0,0.7,0.1,1,0.3c0.3,0.2,0.5,0.5,0.7,0.9h0.1l0.4-1.1h0.9l-1.5,7H208
			l0.2-1.3h-0.1C207.4,86.8,206.6,87.3,205.7,87.3z M206.1,86.4c0.4,0,0.8-0.2,1.2-0.6c0.4-0.4,0.7-0.9,1-1.5
			c0.2-0.6,0.4-1.2,0.4-1.9c0-0.4-0.1-0.8-0.3-1s-0.5-0.4-0.9-0.4c-0.4,0-0.8,0.2-1.2,0.5s-0.7,0.8-0.9,1.4
			c-0.2,0.6-0.3,1.3-0.3,1.9c0,0.5,0.1,0.8,0.3,1.1S205.8,86.4,206.1,86.4z"/>
		<path id="XMLID_349_" class="st1" d="M215.6,80.1c0.6,0,1.1,0.2,1.4,0.6s0.5,1,0.5,1.7c0,0.9-0.1,1.7-0.4,2.5
			c-0.3,0.7-0.7,1.3-1.2,1.7c-0.5,0.4-1.1,0.6-1.7,0.6c-0.8,0-1.4-0.4-1.8-1.2h-0.1c-0.1,0.6-0.1,1-0.2,1.2l-0.6,3h-1.1l2.1-10.1
			h0.9l-0.2,1.3h0.1c0.4-0.5,0.8-0.9,1.2-1.1C214.8,80.2,215.2,80.1,215.6,80.1z M215.2,81c-0.4,0-0.8,0.2-1.2,0.6s-0.7,0.9-1,1.5
			s-0.4,1.2-0.4,1.8c0,0.4,0.1,0.8,0.3,1c0.2,0.2,0.6,0.4,1,0.4c0.4,0,0.8-0.2,1.2-0.5c0.4-0.3,0.6-0.8,0.8-1.4
			c0.2-0.6,0.3-1.3,0.3-1.9C216.3,81.5,216,81,215.2,81z"/>
		<path id="XMLID_352_" class="st1" d="M220.6,87.3c-0.6,0-1-0.2-1.4-0.6s-0.5-1-0.5-1.8c0-0.9,0.1-1.7,0.4-2.4
			c0.3-0.8,0.7-1.3,1.2-1.8c0.5-0.4,1.1-0.6,1.7-0.6c0.4,0,0.7,0.1,1,0.3c0.3,0.2,0.5,0.5,0.7,0.9h0.1l0.4-1.1h0.9l-1.5,7h-0.9
			l0.2-1.3H223C222.3,86.8,221.5,87.3,220.6,87.3z M221,86.4c0.4,0,0.8-0.2,1.2-0.6c0.4-0.4,0.7-0.9,1-1.5c0.2-0.6,0.4-1.2,0.4-1.9
			c0-0.4-0.1-0.8-0.3-1s-0.5-0.4-0.9-0.4c-0.4,0-0.8,0.2-1.2,0.5s-0.7,0.8-0.9,1.4c-0.2,0.6-0.3,1.3-0.3,1.9c0,0.5,0.1,0.8,0.3,1.1
			S220.7,86.4,221,86.4z"/>
		<path id="XMLID_355_" class="st1" d="M229.5,80.2h1.1l0.5,3.4c0,0.3,0.1,0.7,0.1,1.2c0,0.5,0.1,1,0.1,1.4h0
			c0.1-0.3,0.3-0.7,0.5-1.1c0.2-0.5,0.4-0.8,0.5-1.1l2-3.8h1.2l-4.4,8.1c-0.4,0.7-0.8,1.2-1.2,1.5c-0.4,0.3-0.9,0.4-1.4,0.4
			c-0.3,0-0.6,0-0.9-0.1v-0.9c0.3,0.1,0.5,0.1,0.8,0.1c0.3,0,0.6-0.1,0.9-0.3s0.5-0.5,0.7-0.9l0.5-0.8L229.5,80.2z"/>
		<path id="XMLID_357_" class="st1" d="M237.5,87.3c-0.6,0-1-0.2-1.4-0.6s-0.5-1-0.5-1.8c0-0.9,0.1-1.7,0.4-2.4
			c0.3-0.8,0.7-1.3,1.2-1.8c0.5-0.4,1.1-0.6,1.7-0.6c0.4,0,0.7,0.1,1,0.3c0.3,0.2,0.5,0.5,0.7,0.9h0.1l0.4-1.1h0.9l-1.5,7h-0.9
			l0.2-1.3h-0.1C239.1,86.8,238.3,87.3,237.5,87.3z M237.9,86.4c0.4,0,0.8-0.2,1.2-0.6c0.4-0.4,0.7-0.9,1-1.5
			c0.2-0.6,0.4-1.2,0.4-1.9c0-0.4-0.1-0.8-0.3-1s-0.5-0.4-0.9-0.4c-0.4,0-0.8,0.2-1.2,0.5s-0.7,0.8-0.9,1.4
			c-0.2,0.6-0.3,1.3-0.3,1.9c0,0.5,0.1,0.8,0.3,1.1S237.5,86.4,237.9,86.4z"/>
		<path id="XMLID_360_" class="st1" d="M247.8,80.2h1.4l-3,3l1.9,4h-1.3l-1.5-3.3l-0.9,0.7l-0.5,2.5h-1.2l2.1-9.9h1.2
			c-0.4,1.7-0.7,3.1-0.9,4c-0.2,0.9-0.4,1.7-0.6,2.3h0L247.8,80.2z"/>
		<path id="XMLID_362_" class="st1" d="M250.3,87.2h-1.1l1.5-7h1.1L250.3,87.2z M250.9,78.4c0-0.2,0.1-0.4,0.2-0.6s0.3-0.2,0.6-0.2
			c0.4,0,0.6,0.2,0.6,0.6c0,0.3-0.1,0.5-0.2,0.6c-0.1,0.2-0.3,0.2-0.5,0.2c-0.2,0-0.3-0.1-0.4-0.2C251,78.8,250.9,78.6,250.9,78.4z"
			/>
		<path id="XMLID_365_" class="st1" d="M257.9,87.2h-1.1l0.9-4.4c0.1-0.4,0.1-0.7,0.1-0.9c0-0.3-0.1-0.5-0.2-0.6
			c-0.1-0.2-0.4-0.2-0.7-0.2c-0.4,0-0.7,0.1-1.1,0.4c-0.3,0.3-0.7,0.6-0.9,1.1c-0.3,0.5-0.5,1-0.6,1.7l-0.6,3h-1.1l1.5-7h0.9
			l-0.1,1.3h0.1c0.3-0.4,0.5-0.6,0.8-0.8s0.5-0.3,0.7-0.4c0.3-0.1,0.5-0.2,0.8-0.2c0.5,0,1,0.1,1.3,0.4c0.3,0.3,0.5,0.7,0.5,1.3
			c0,0.3,0,0.7-0.1,1.1L257.9,87.2z"/>
		<path id="XMLID_367_" class="st1" d="M55.8,100.8c0,0.7-0.2,1.2-0.7,1.6c-0.5,0.4-1.1,0.6-2,0.6c-0.8,0-1.4-0.1-1.9-0.4v-1.1
			c0.3,0.2,0.6,0.3,0.9,0.4c0.3,0.1,0.7,0.2,1,0.2c0.5,0,0.9-0.1,1.2-0.3s0.4-0.5,0.4-0.8c0-0.2-0.1-0.4-0.2-0.6
			c-0.1-0.2-0.5-0.4-0.9-0.7c-0.5-0.3-0.9-0.6-1.2-0.9S52,98,52,97.6c0-0.6,0.2-1.1,0.6-1.4c0.4-0.4,1-0.5,1.7-0.5
			c0.7,0,1.4,0.2,2.1,0.5l-0.4,0.9c-0.2-0.1-0.5-0.2-0.8-0.3s-0.6-0.1-1-0.1c-0.4,0-0.7,0.1-0.9,0.3c-0.2,0.2-0.3,0.4-0.3,0.7
			c0,0.2,0.1,0.4,0.2,0.6s0.5,0.4,0.9,0.6c0.5,0.3,0.8,0.5,1,0.7s0.3,0.4,0.4,0.6C55.8,100.3,55.8,100.5,55.8,100.8z"/>
		<path id="XMLID_369_" class="st1" d="M59.2,102.9c-0.6,0-1-0.2-1.4-0.6s-0.5-1-0.5-1.8c0-0.9,0.1-1.7,0.4-2.4
			c0.3-0.8,0.7-1.3,1.2-1.8c0.5-0.4,1.1-0.6,1.7-0.6c0.4,0,0.7,0.1,1,0.3c0.3,0.2,0.5,0.5,0.7,0.9h0.1l0.4-1.1h0.9l-1.5,7h-0.9
			l0.2-1.3h-0.1C60.8,102.4,60.1,102.9,59.2,102.9z M59.6,102c0.4,0,0.8-0.2,1.2-0.6c0.4-0.4,0.7-0.9,1-1.5c0.2-0.6,0.4-1.2,0.4-1.9
			c0-0.4-0.1-0.8-0.3-1s-0.5-0.4-0.9-0.4c-0.4,0-0.8,0.2-1.2,0.5S59,98,58.8,98.6c-0.2,0.6-0.3,1.3-0.3,1.9c0,0.5,0.1,0.8,0.3,1.1
			S59.2,102,59.6,102z"/>
		<path id="XMLID_372_" class="st1" d="M64.7,95.8h1.1l0.5,3.4c0,0.3,0.1,0.7,0.1,1.2c0,0.5,0.1,1,0.1,1.4h0
			c0.1-0.3,0.3-0.7,0.5-1.1c0.2-0.5,0.4-0.8,0.5-1.1l2-3.8h1.2l-4.4,8.1c-0.4,0.7-0.8,1.2-1.2,1.5c-0.4,0.3-0.9,0.4-1.4,0.4
			c-0.3,0-0.6,0-0.9-0.1v-0.9c0.3,0.1,0.5,0.1,0.8,0.1c0.3,0,0.6-0.1,0.9-0.3s0.5-0.5,0.7-0.9l0.5-0.8L64.7,95.8z"/>
		<path id="XMLID_374_" class="st1" d="M72.7,102.9c-0.6,0-1-0.2-1.4-0.6s-0.5-1-0.5-1.8c0-0.9,0.1-1.7,0.4-2.4
			c0.3-0.8,0.7-1.3,1.2-1.8c0.5-0.4,1.1-0.6,1.7-0.6c0.4,0,0.7,0.1,1,0.3c0.3,0.2,0.5,0.5,0.7,0.9H76l0.4-1.1h0.9l-1.5,7h-0.9
			l0.2-1.3H75C74.3,102.4,73.5,102.9,72.7,102.9z M73,102c0.4,0,0.8-0.2,1.2-0.6c0.4-0.4,0.7-0.9,1-1.5c0.2-0.6,0.4-1.2,0.4-1.9
			c0-0.4-0.1-0.8-0.3-1s-0.5-0.4-0.9-0.4c-0.4,0-0.8,0.2-1.2,0.5s-0.7,0.8-0.9,1.4c-0.2,0.6-0.3,1.3-0.3,1.9c0,0.5,0.1,0.8,0.3,1.1
			S72.7,102,73,102z"/>
		<path id="XMLID_377_" class="st1" d="M84.4,102.9c-0.4,0-0.8-0.1-1.1-0.3c-0.3-0.2-0.5-0.5-0.7-0.9h-0.1l-0.4,1.1h-0.9l2.1-9.9
			h1.1L84,95.2c-0.1,0.4-0.2,0.8-0.3,1.2s-0.2,0.6-0.2,0.7h0.1c0.4-0.5,0.8-0.9,1.2-1.1c0.4-0.2,0.7-0.3,1.1-0.3
			c0.6,0,1.1,0.2,1.4,0.6c0.3,0.4,0.5,1,0.5,1.7c0,0.9-0.1,1.7-0.4,2.4c-0.3,0.8-0.7,1.3-1.2,1.8C85.6,102.7,85.1,102.9,84.4,102.9z
			 M85.5,96.6c-0.4,0-0.8,0.2-1.2,0.6c-0.4,0.4-0.7,0.9-1,1.5c-0.2,0.6-0.4,1.2-0.4,1.8c0,0.4,0.1,0.8,0.3,1c0.2,0.2,0.6,0.4,1,0.4
			c0.4,0,0.8-0.2,1.2-0.5c0.4-0.3,0.6-0.8,0.8-1.4c0.2-0.6,0.3-1.3,0.3-1.9C86.6,97.1,86.3,96.6,85.5,96.6z"/>
		<path id="XMLID_380_" class="st1" d="M90.9,102.9c-0.6,0-1-0.2-1.4-0.6s-0.5-1-0.5-1.8c0-0.9,0.1-1.7,0.4-2.4
			c0.3-0.8,0.7-1.3,1.2-1.8c0.5-0.4,1.1-0.6,1.7-0.6c0.4,0,0.7,0.1,1,0.3c0.3,0.2,0.5,0.5,0.7,0.9h0.1l0.4-1.1h0.9l-1.5,7h-0.9
			l0.2-1.3h-0.1C92.6,102.4,91.8,102.9,90.9,102.9z M91.3,102c0.4,0,0.8-0.2,1.2-0.6c0.4-0.4,0.7-0.9,1-1.5c0.2-0.6,0.4-1.2,0.4-1.9
			c0-0.4-0.1-0.8-0.3-1s-0.5-0.4-0.9-0.4c-0.4,0-0.8,0.2-1.2,0.5s-0.7,0.8-0.9,1.4c-0.2,0.6-0.3,1.3-0.3,1.9c0,0.5,0.1,0.8,0.3,1.1
			S91,102,91.3,102z"/>
		<path id="XMLID_383_" class="st1" d="M101.6,102.8h-1.1l0.9-4.4c0.1-0.4,0.1-0.7,0.1-0.9c0-0.6-0.3-0.9-0.9-0.9
			c-0.4,0-0.7,0.1-1.1,0.4s-0.7,0.6-0.9,1.1s-0.5,1-0.6,1.7l-0.6,3h-1.1l2.1-9.9h1.1l-0.6,2.6c-0.1,0.3-0.1,0.5-0.2,0.8
			s-0.1,0.6-0.2,0.8h0.1c0.4-0.5,0.8-0.9,1.1-1.1c0.4-0.2,0.8-0.3,1.2-0.3c0.6,0,1,0.2,1.3,0.5s0.5,0.7,0.5,1.3c0,0.2,0,0.6-0.1,1.1
			L101.6,102.8z"/>
		<path id="XMLID_385_" class="st1" d="M108.4,96.9l-0.3,0.8l-0.5,1.2l-1.8,3.9h-1.4l-0.3-7h1.1l0.1,4.4c0,0.3,0,0.8-0.1,1.6h0.1
			c0-0.1,0.2-0.4,0.3-0.8c0.2-0.4,0.3-0.8,0.5-1.1c0.1-0.3,0.8-1.7,1.9-4.1h1.2l0.2,3.7l0,1.6v0.4l0,0.3h0.1c0.2-0.7,0.6-1.5,1-2.5
			l1.5-3.4h1.2l-3.2,7h-1.4l-0.2-3.8l0-0.9L108.4,96.9L108.4,96.9z"/>
		<path id="XMLID_387_" class="st1" d="M115.3,102.9c-0.6,0-1-0.2-1.4-0.6s-0.5-1-0.5-1.8c0-0.9,0.1-1.7,0.4-2.4
			c0.3-0.8,0.7-1.3,1.2-1.8c0.5-0.4,1.1-0.6,1.7-0.6c0.4,0,0.7,0.1,1,0.3c0.3,0.2,0.5,0.5,0.7,0.9h0.1l0.4-1.1h0.9l-1.5,7h-0.9
			l0.2-1.3h-0.1C116.9,102.4,116.1,102.9,115.3,102.9z M115.6,102c0.4,0,0.8-0.2,1.2-0.6c0.4-0.4,0.7-0.9,1-1.5
			c0.2-0.6,0.4-1.2,0.4-1.9c0-0.4-0.1-0.8-0.3-1s-0.5-0.4-0.9-0.4c-0.4,0-0.8,0.2-1.2,0.5s-0.7,0.8-0.9,1.4
			c-0.2,0.6-0.3,1.3-0.3,1.9c0,0.5,0.1,0.8,0.3,1.1S115.3,102,115.6,102z"/>
		<path id="XMLID_390_" class="st1" d="M126.1,102c0.3,0,0.6-0.1,0.9-0.2v0.9c-0.1,0.1-0.3,0.1-0.5,0.2c-0.2,0-0.4,0.1-0.6,0.1
			c-0.5,0-1-0.1-1.2-0.4s-0.4-0.6-0.4-1.1c0-0.3,0-0.6,0.1-0.9l0.8-3.8h-1.1l0.1-0.5l1.2-0.5l0.8-1.4h0.7l-0.3,1.6h1.8l-0.2,0.9
			h-1.7l-0.8,3.8c-0.1,0.3-0.1,0.6-0.1,0.8c0,0.2,0.1,0.4,0.2,0.5S125.8,102,126.1,102z"/>
		<path id="XMLID_392_" class="st1" d="M132.7,95.7c0.3,0,0.5,0,0.8,0.1l-0.2,1c-0.2-0.1-0.5-0.1-0.7-0.1c-0.4,0-0.7,0.1-1.1,0.4
			c-0.3,0.2-0.6,0.6-0.9,1c-0.2,0.4-0.4,0.9-0.5,1.5l-0.7,3.2h-1.1l1.5-7h0.9l-0.1,1.3h0.1c0.3-0.4,0.6-0.7,0.8-0.9s0.4-0.3,0.6-0.4
			C132.1,95.7,132.4,95.7,132.7,95.7z"/>
		<path id="XMLID_394_" class="st1" d="M135.5,102.9c-0.6,0-1-0.2-1.4-0.6s-0.5-1-0.5-1.8c0-0.9,0.1-1.7,0.4-2.4
			c0.3-0.8,0.7-1.3,1.2-1.8c0.5-0.4,1.1-0.6,1.7-0.6c0.4,0,0.7,0.1,1,0.3c0.3,0.2,0.5,0.5,0.7,0.9h0.1l0.4-1.1h0.9l-1.5,7h-0.9
			l0.2-1.3h-0.1C137.1,102.4,136.4,102.9,135.5,102.9z M135.9,102c0.4,0,0.8-0.2,1.2-0.6c0.4-0.4,0.7-0.9,1-1.5
			c0.2-0.6,0.4-1.2,0.4-1.9c0-0.4-0.1-0.8-0.3-1s-0.5-0.4-0.9-0.4c-0.4,0-0.8,0.2-1.2,0.5s-0.7,0.8-0.9,1.4
			c-0.2,0.6-0.3,1.3-0.3,1.9c0,0.5,0.1,0.8,0.3,1.1S135.5,102,135.9,102z"/>
		<path id="XMLID_397_" class="st1" d="M146.1,102.8H145l0.9-4.4c0.1-0.4,0.1-0.7,0.1-0.9c0-0.3-0.1-0.5-0.2-0.6
			c-0.1-0.2-0.4-0.2-0.7-0.2c-0.4,0-0.7,0.1-1.1,0.4s-0.7,0.6-0.9,1.1c-0.3,0.5-0.5,1-0.6,1.7l-0.6,3h-1.1l1.5-7h0.9l-0.1,1.3h0.1
			c0.3-0.4,0.5-0.6,0.8-0.8s0.5-0.3,0.7-0.4c0.3-0.1,0.5-0.2,0.8-0.2c0.5,0,1,0.1,1.3,0.4c0.3,0.3,0.5,0.7,0.5,1.3
			c0,0.3,0,0.7-0.1,1.1L146.1,102.8z"/>
		<path id="XMLID_399_" class="st1" d="M152.6,100.8c0,0.7-0.2,1.2-0.7,1.6c-0.5,0.4-1.1,0.6-2,0.6c-0.8,0-1.4-0.1-1.9-0.4v-1.1
			c0.3,0.2,0.6,0.3,0.9,0.4c0.3,0.1,0.7,0.2,1,0.2c0.5,0,0.9-0.1,1.2-0.3s0.4-0.5,0.4-0.8c0-0.2-0.1-0.4-0.2-0.6
			c-0.1-0.2-0.5-0.4-0.9-0.7c-0.5-0.3-0.9-0.6-1.2-0.9s-0.3-0.7-0.3-1.1c0-0.6,0.2-1.1,0.6-1.4c0.4-0.4,1-0.5,1.7-0.5
			c0.7,0,1.4,0.2,2.1,0.5l-0.4,0.9c-0.2-0.1-0.5-0.2-0.8-0.3s-0.6-0.1-1-0.1c-0.4,0-0.7,0.1-0.9,0.3c-0.2,0.2-0.3,0.4-0.3,0.7
			c0,0.2,0.1,0.4,0.2,0.6s0.5,0.4,0.9,0.6c0.5,0.3,0.8,0.5,1,0.7s0.3,0.4,0.4,0.6C152.6,100.3,152.6,100.5,152.6,100.8z"/>
		<path id="XMLID_401_" class="st1" d="M156,102.9c-0.6,0-1-0.2-1.4-0.6s-0.5-1-0.5-1.8c0-0.9,0.1-1.7,0.4-2.4
			c0.3-0.8,0.7-1.3,1.2-1.8c0.5-0.4,1.1-0.6,1.7-0.6c0.4,0,0.7,0.1,1,0.3c0.3,0.2,0.5,0.5,0.7,0.9h0.1l0.4-1.1h0.9l-1.5,7h-0.9
			l0.2-1.3h-0.1C157.7,102.4,156.9,102.9,156,102.9z M156.4,102c0.4,0,0.8-0.2,1.2-0.6c0.4-0.4,0.7-0.9,1-1.5
			c0.2-0.6,0.4-1.2,0.4-1.9c0-0.4-0.1-0.8-0.3-1s-0.5-0.4-0.9-0.4c-0.4,0-0.8,0.2-1.2,0.5s-0.7,0.8-0.9,1.4
			c-0.2,0.6-0.3,1.3-0.3,1.9c0,0.5,0.1,0.8,0.3,1.1S156.1,102,156.4,102z"/>
		<path id="XMLID_404_" class="st1" d="M166.4,95.8h1.4l-3,3l1.9,4h-1.3l-1.5-3.3l-0.9,0.7l-0.5,2.5h-1.2l2.1-9.9h1.2
			c-0.4,1.7-0.7,3.1-0.9,4c-0.2,0.9-0.4,1.7-0.6,2.3h0L166.4,95.8z"/>
		<path id="XMLID_406_" class="st1" d="M172,100.8c0,0.7-0.2,1.2-0.7,1.6c-0.5,0.4-1.1,0.6-2,0.6c-0.8,0-1.4-0.1-1.9-0.4v-1.1
			c0.3,0.2,0.6,0.3,0.9,0.4c0.3,0.1,0.7,0.2,1,0.2c0.5,0,0.9-0.1,1.2-0.3s0.4-0.5,0.4-0.8c0-0.2-0.1-0.4-0.2-0.6
			c-0.1-0.2-0.5-0.4-0.9-0.7c-0.5-0.3-0.9-0.6-1.2-0.9s-0.3-0.7-0.3-1.1c0-0.6,0.2-1.1,0.6-1.4c0.4-0.4,1-0.5,1.7-0.5
			c0.7,0,1.4,0.2,2.1,0.5l-0.4,0.9c-0.2-0.1-0.5-0.2-0.8-0.3s-0.6-0.1-1-0.1c-0.4,0-0.7,0.1-0.9,0.3c-0.2,0.2-0.3,0.4-0.3,0.7
			c0,0.2,0.1,0.4,0.2,0.6s0.5,0.4,0.9,0.6c0.5,0.3,0.8,0.5,1,0.7s0.3,0.4,0.4,0.6C172,100.3,172,100.5,172,100.8z"/>
		<path id="XMLID_408_" class="st1" d="M174.4,102.8h-1.1l1.5-7h1.1L174.4,102.8z M175.1,94c0-0.2,0.1-0.4,0.2-0.6s0.3-0.2,0.6-0.2
			c0.4,0,0.6,0.2,0.6,0.6c0,0.3-0.1,0.5-0.2,0.6c-0.1,0.2-0.3,0.2-0.5,0.2c-0.2,0-0.3-0.1-0.4-0.2C175.1,94.4,175.1,94.2,175.1,94z"
			/>
		<path id="XMLID_411_" class="st1" d="M181.1,102.8H180l1.5-7h1.1L181.1,102.8z M181.8,94c0-0.2,0.1-0.4,0.2-0.6s0.3-0.2,0.6-0.2
			c0.4,0,0.6,0.2,0.6,0.6c0,0.3-0.1,0.5-0.2,0.6c-0.1,0.2-0.3,0.2-0.5,0.2c-0.2,0-0.3-0.1-0.4-0.2C181.8,94.4,181.8,94.2,181.8,94z"
			/>
		<path id="XMLID_414_" class="st1" d="M188.7,102.8h-1.1l0.9-4.4c0.1-0.4,0.1-0.7,0.1-0.9c0-0.3-0.1-0.5-0.2-0.6
			c-0.1-0.2-0.4-0.2-0.7-0.2c-0.4,0-0.7,0.1-1.1,0.4s-0.7,0.6-0.9,1.1c-0.3,0.5-0.5,1-0.6,1.7l-0.6,3h-1.1l1.5-7h0.9l-0.1,1.3h0.1
			c0.3-0.4,0.5-0.6,0.8-0.8s0.5-0.3,0.7-0.4c0.3-0.1,0.5-0.2,0.8-0.2c0.5,0,1,0.1,1.3,0.4c0.3,0.3,0.5,0.7,0.5,1.3
			c0,0.3,0,0.7-0.1,1.1L188.7,102.8z"/>
		<path id="XMLID_416_" class="st1" d="M192,102.8h-1.1l1.5-7h1.1L192,102.8z M192.7,94c0-0.2,0.1-0.4,0.2-0.6s0.3-0.2,0.6-0.2
			c0.4,0,0.6,0.2,0.6,0.6c0,0.3-0.1,0.5-0.2,0.6c-0.1,0.2-0.3,0.2-0.5,0.2c-0.2,0-0.3-0.1-0.4-0.2C192.7,94.4,192.7,94.2,192.7,94z"
			/>
		<path id="XMLID_419_" class="st1" d="M200.7,102.9c-0.4,0-0.8-0.1-1.1-0.3c-0.3-0.2-0.5-0.5-0.7-0.9h-0.1l-0.4,1.1h-0.9l2.1-9.9
			h1.1l-0.5,2.3c-0.1,0.4-0.2,0.8-0.3,1.2s-0.2,0.6-0.2,0.7h0.1c0.4-0.5,0.8-0.9,1.2-1.1c0.4-0.2,0.7-0.3,1.1-0.3
			c0.6,0,1.1,0.2,1.4,0.6c0.3,0.4,0.5,1,0.5,1.7c0,0.9-0.1,1.7-0.4,2.4c-0.3,0.8-0.7,1.3-1.2,1.8C202,102.7,201.4,102.9,200.7,102.9
			z M201.9,96.6c-0.4,0-0.8,0.2-1.2,0.6c-0.4,0.4-0.7,0.9-1,1.5c-0.2,0.6-0.4,1.2-0.4,1.8c0,0.4,0.1,0.8,0.3,1
			c0.2,0.2,0.6,0.4,1,0.4c0.4,0,0.8-0.2,1.2-0.5c0.4-0.3,0.6-0.8,0.8-1.4c0.2-0.6,0.3-1.3,0.3-1.9C203,97.1,202.6,96.6,201.9,96.6z"
			/>
		<path id="XMLID_422_" class="st1" d="M206.5,95.8h1.2l-0.9,4.4c-0.1,0.4-0.1,0.7-0.1,0.9c0,0.6,0.3,0.9,0.9,0.9
			c0.4,0,0.7-0.1,1.1-0.4s0.7-0.6,0.9-1.1c0.3-0.5,0.5-1,0.6-1.7l0.6-3h1.1l-1.5,7h-0.9l0.1-1.3h-0.1c-0.4,0.5-0.8,0.9-1.1,1.1
			c-0.4,0.2-0.8,0.3-1.2,0.3c-0.5,0-1-0.2-1.3-0.5s-0.5-0.7-0.5-1.3c0-0.3,0-0.6,0.1-1.1L206.5,95.8z"/>
		<path id="XMLID_424_" class="st1" d="M217.8,95.8h1.4l-3,3l1.9,4h-1.3l-1.5-3.3l-0.9,0.7l-0.5,2.5h-1.2l2.1-9.9h1.2
			c-0.4,1.7-0.7,3.1-0.9,4c-0.2,0.9-0.4,1.7-0.6,2.3h0L217.8,95.8z"/>
		<path id="XMLID_426_" class="st1" d="M221.2,102.9c-0.6,0-1-0.2-1.4-0.6s-0.5-1-0.5-1.8c0-0.9,0.1-1.7,0.4-2.4
			c0.3-0.8,0.7-1.3,1.2-1.8c0.5-0.4,1.1-0.6,1.7-0.6c0.4,0,0.7,0.1,1,0.3c0.3,0.2,0.5,0.5,0.7,0.9h0.1l0.4-1.1h0.9l-1.5,7h-0.9
			l0.2-1.3h-0.1C222.9,102.4,222.1,102.9,221.2,102.9z M221.6,102c0.4,0,0.8-0.2,1.2-0.6c0.4-0.4,0.7-0.9,1-1.5
			c0.2-0.6,0.4-1.2,0.4-1.9c0-0.4-0.1-0.8-0.3-1s-0.5-0.4-0.9-0.4c-0.4,0-0.8,0.2-1.2,0.5s-0.7,0.8-0.9,1.4
			c-0.2,0.6-0.3,1.3-0.3,1.9c0,0.5,0.1,0.8,0.3,1.1S221.3,102,221.6,102z"/>
		<path id="XMLID_429_" class="st1" d="M231.9,102.8h-1.1l0.9-4.4c0.1-0.4,0.1-0.7,0.1-0.9c0-0.3-0.1-0.5-0.2-0.6
			c-0.1-0.2-0.4-0.2-0.7-0.2c-0.4,0-0.7,0.1-1.1,0.4s-0.7,0.6-0.9,1.1c-0.3,0.5-0.5,1-0.6,1.7l-0.6,3h-1.1l1.5-7h0.9l-0.1,1.3h0.1
			c0.3-0.4,0.5-0.6,0.8-0.8s0.5-0.3,0.7-0.4c0.3-0.1,0.5-0.2,0.8-0.2c0.5,0,1,0.1,1.3,0.4c0.3,0.3,0.5,0.7,0.5,1.3
			c0,0.3,0,0.7-0.1,1.1L231.9,102.8z"/>
		<path id="XMLID_431_" class="st1" d="M235.1,102.8H234l2.1-9.9h1.1L235.1,102.8z"/>
		<path id="XMLID_433_" class="st1" d="M239.5,102.9c-0.6,0-1-0.2-1.4-0.6s-0.5-1-0.5-1.8c0-0.9,0.1-1.7,0.4-2.4
			c0.3-0.8,0.7-1.3,1.2-1.8c0.5-0.4,1.1-0.6,1.7-0.6c0.4,0,0.7,0.1,1,0.3c0.3,0.2,0.5,0.5,0.7,0.9h0.1l0.4-1.1h0.9l-1.5,7h-0.9
			l0.2-1.3h-0.1C241.1,102.4,240.4,102.9,239.5,102.9z M239.9,102c0.4,0,0.8-0.2,1.2-0.6c0.4-0.4,0.7-0.9,1-1.5
			c0.2-0.6,0.4-1.2,0.4-1.9c0-0.4-0.1-0.8-0.3-1s-0.5-0.4-0.9-0.4c-0.4,0-0.8,0.2-1.2,0.5s-0.7,0.8-0.9,1.4
			c-0.2,0.6-0.3,1.3-0.3,1.9c0,0.5,0.1,0.8,0.3,1.1S239.5,102,239.9,102z"/>
		<path id="XMLID_436_" class="st1" d="M250.1,102.8H249l0.9-4.4c0.1-0.4,0.1-0.7,0.1-0.9c0-0.6-0.3-0.9-0.9-0.9
			c-0.4,0-0.7,0.1-1.1,0.4s-0.7,0.6-0.9,1.1s-0.5,1-0.6,1.7l-0.6,3h-1.1l2.1-9.9h1.1l-0.6,2.6c-0.1,0.3-0.1,0.5-0.2,0.8
			s-0.1,0.6-0.2,0.8h0.1c0.4-0.5,0.8-0.9,1.1-1.1c0.4-0.2,0.8-0.3,1.2-0.3c0.6,0,1,0.2,1.3,0.5s0.5,0.7,0.5,1.3c0,0.2,0,0.6-0.1,1.1
			L250.1,102.8z"/>
		<path id="XMLID_438_" class="st1" d="M56.1,111.3c0.6,0,1.1,0.2,1.4,0.6s0.5,1,0.5,1.7c0,0.9-0.1,1.7-0.4,2.5
			c-0.3,0.7-0.7,1.3-1.2,1.7c-0.5,0.4-1.1,0.6-1.7,0.6c-0.8,0-1.4-0.4-1.8-1.2h-0.1c-0.1,0.6-0.1,1-0.2,1.2l-0.6,3h-1.1l2.1-10.1
			h0.9l-0.2,1.3h0.1c0.4-0.5,0.8-0.9,1.2-1.1C55.3,111.4,55.7,111.3,56.1,111.3z M55.7,112.2c-0.4,0-0.8,0.2-1.2,0.6s-0.7,0.9-1,1.5
			s-0.4,1.2-0.4,1.8c0,0.4,0.1,0.8,0.3,1c0.2,0.2,0.6,0.4,1,0.4c0.4,0,0.8-0.2,1.2-0.5c0.4-0.3,0.6-0.8,0.8-1.4
			c0.2-0.6,0.3-1.3,0.3-1.9C56.8,112.7,56.4,112.2,55.7,112.2z"/>
		<path id="XMLID_441_" class="st1" d="M61.8,118.5c-0.8,0-1.4-0.2-1.9-0.7c-0.4-0.5-0.7-1.1-0.7-1.9c0-0.8,0.2-1.6,0.5-2.3
			c0.3-0.7,0.7-1.3,1.3-1.7c0.5-0.4,1.1-0.6,1.8-0.6c0.7,0,1.2,0.1,1.5,0.4c0.3,0.3,0.5,0.7,0.5,1.2c0,0.8-0.4,1.4-1.1,1.8
			c-0.7,0.4-1.7,0.7-3,0.7h-0.2l0,0.5c0,0.5,0.1,1,0.4,1.3s0.7,0.5,1.2,0.5c0.3,0,0.6,0,0.9-0.1c0.3-0.1,0.6-0.2,1-0.4v1
			c-0.4,0.2-0.8,0.3-1.1,0.4C62.4,118.5,62.1,118.5,61.8,118.5z M62.7,112.2c-0.4,0-0.8,0.2-1.2,0.6c-0.4,0.4-0.7,0.9-0.8,1.6h0.1
			c0.9,0,1.6-0.1,2.1-0.4c0.5-0.2,0.8-0.6,0.8-1.1c0-0.2-0.1-0.4-0.2-0.6C63.2,112.3,63,112.2,62.7,112.2z"/>
		<path id="XMLID_444_" class="st1" d="M70.8,118.4h-1.1l0.9-4.4c0.1-0.4,0.1-0.7,0.1-0.9c0-0.3-0.1-0.5-0.2-0.6
			c-0.1-0.2-0.4-0.2-0.7-0.2c-0.4,0-0.7,0.1-1.1,0.4s-0.7,0.6-0.9,1.1c-0.3,0.5-0.5,1-0.6,1.7l-0.6,3h-1.1l1.5-7h0.9l-0.1,1.3h0.1
			c0.3-0.4,0.5-0.6,0.8-0.8s0.5-0.3,0.7-0.4c0.3-0.1,0.5-0.2,0.8-0.2c0.5,0,1,0.1,1.3,0.4c0.3,0.3,0.5,0.7,0.5,1.3
			c0,0.3,0,0.7-0.1,1.1L70.8,118.4z"/>
		<path id="XMLID_446_" class="st1" d="M74.1,118.4H73l1.5-7h1.1L74.1,118.4z M74.8,109.6c0-0.2,0.1-0.4,0.2-0.6s0.3-0.2,0.6-0.2
			c0.4,0,0.6,0.2,0.6,0.6c0,0.3-0.1,0.5-0.2,0.6c-0.1,0.2-0.3,0.2-0.5,0.2c-0.2,0-0.3-0.1-0.4-0.2C74.8,110,74.8,109.8,74.8,109.6z"
			/>
		<path id="XMLID_449_" class="st1" d="M81,111.3c0.6,0,1.1,0.2,1.4,0.6s0.5,1,0.5,1.7c0,0.9-0.1,1.7-0.4,2.5
			c-0.3,0.7-0.7,1.3-1.2,1.7c-0.5,0.4-1.1,0.6-1.7,0.6c-0.8,0-1.4-0.4-1.8-1.2h-0.1c-0.1,0.6-0.1,1-0.2,1.2l-0.6,3h-1.1l2.1-10.1
			h0.9l-0.2,1.3h0.1c0.4-0.5,0.8-0.9,1.2-1.1C80.2,111.4,80.6,111.3,81,111.3z M80.6,112.2c-0.4,0-0.8,0.2-1.2,0.6s-0.7,0.9-1,1.5
			s-0.4,1.2-0.4,1.8c0,0.4,0.1,0.8,0.3,1c0.2,0.2,0.6,0.4,1,0.4c0.4,0,0.8-0.2,1.2-0.5c0.4-0.3,0.6-0.8,0.8-1.4
			c0.2-0.6,0.3-1.3,0.3-1.9C81.7,112.7,81.3,112.2,80.6,112.2z"/>
		<path id="XMLID_452_" class="st1" d="M85.3,111.4h1.2l-0.9,4.4c-0.1,0.4-0.1,0.7-0.1,0.9c0,0.6,0.3,0.9,0.9,0.9
			c0.4,0,0.7-0.1,1.1-0.4s0.7-0.6,0.9-1.1c0.3-0.5,0.5-1,0.6-1.7l0.6-3h1.1l-1.5,7h-0.9l0.1-1.3h-0.1c-0.4,0.5-0.8,0.9-1.1,1.1
			c-0.4,0.2-0.8,0.3-1.2,0.3c-0.5,0-1-0.2-1.3-0.5s-0.5-0.7-0.5-1.3c0-0.3,0-0.6,0.1-1.1L85.3,111.4z"/>
		<path id="XMLID_454_" class="st1" d="M93.5,118.5c-0.6,0-1-0.2-1.4-0.6s-0.5-1-0.5-1.8c0-0.9,0.1-1.7,0.4-2.4
			c0.3-0.8,0.7-1.3,1.2-1.8c0.5-0.4,1.1-0.6,1.7-0.6c0.4,0,0.7,0.1,1,0.3c0.3,0.2,0.5,0.5,0.7,0.9h0.1l0.4-1.1h0.9l-1.5,7h-0.9
			l0.2-1.3h-0.1C95.2,118,94.4,118.5,93.5,118.5z M93.9,117.6c0.4,0,0.8-0.2,1.2-0.6c0.4-0.4,0.7-0.9,1-1.5c0.2-0.6,0.4-1.2,0.4-1.9
			c0-0.4-0.1-0.8-0.3-1s-0.5-0.4-0.9-0.4c-0.4,0-0.8,0.2-1.2,0.5s-0.7,0.8-0.9,1.4c-0.2,0.6-0.3,1.3-0.3,1.9c0,0.5,0.1,0.8,0.3,1.1
			S93.6,117.6,93.9,117.6z"/>
		<path id="XMLID_457_" class="st1" d="M104.2,118.4H103l0.9-4.4c0.1-0.4,0.1-0.7,0.1-0.9c0-0.3-0.1-0.5-0.2-0.6
			c-0.1-0.2-0.4-0.2-0.7-0.2c-0.4,0-0.7,0.1-1.1,0.4s-0.7,0.6-0.9,1.1c-0.3,0.5-0.5,1-0.6,1.7l-0.6,3h-1.1l1.5-7h0.9l-0.1,1.3h0.1
			c0.3-0.4,0.5-0.6,0.8-0.8s0.5-0.3,0.7-0.4c0.3-0.1,0.5-0.2,0.8-0.2c0.5,0,1,0.1,1.3,0.4c0.3,0.3,0.5,0.7,0.5,1.3
			c0,0.3,0,0.7-0.1,1.1L104.2,118.4z"/>
		<path id="XMLID_459_" class="st1" d="M106.9,117.9c0-0.3,0.1-0.6,0.3-0.8c0.2-0.2,0.4-0.3,0.7-0.3c0.2,0,0.3,0.1,0.5,0.2
			s0.2,0.3,0.2,0.5c0,0.3-0.1,0.6-0.3,0.8c-0.2,0.2-0.4,0.3-0.7,0.3c-0.2,0-0.4-0.1-0.5-0.2C107,118.3,106.9,118.1,106.9,117.9z
			 M107.6,115.8c0.1-0.6,0.3-1,0.5-1.4c0.2-0.4,0.6-0.7,1-1.1c0.5-0.4,0.8-0.7,1-0.9c0.2-0.2,0.3-0.4,0.4-0.6
			c0.1-0.2,0.1-0.4,0.1-0.7c0-0.4-0.1-0.7-0.3-0.9c-0.2-0.2-0.5-0.3-0.9-0.3c-0.3,0-0.7,0.1-1,0.2c-0.3,0.1-0.6,0.2-0.9,0.4
			l-0.4-0.9c0.4-0.2,0.8-0.4,1.2-0.5s0.8-0.2,1.2-0.2c0.7,0,1.3,0.2,1.7,0.5s0.6,0.9,0.6,1.5c0,0.5-0.1,1-0.4,1.4s-0.8,0.9-1.5,1.4
			c-0.5,0.4-0.9,0.7-1.1,0.9c-0.2,0.2-0.3,0.6-0.4,1H107.6z"/>
		<path id="XMLID_462_" class="st1" d="M120.1,115.5H117l-1.5,2.9h-1.3l5-9.3h1.2l1.1,9.3h-1.1L120.1,115.5z M120,114.4l-0.2-1.9
			c-0.1-1-0.2-1.7-0.2-2.2c-0.1,0.3-0.3,0.7-0.4,1c-0.2,0.3-0.7,1.4-1.6,3.1H120z"/>
		<path id="XMLID_465_" class="st1" d="M127.2,111.3c0.6,0,1.1,0.2,1.4,0.6s0.5,1,0.5,1.7c0,0.9-0.1,1.7-0.4,2.5
			c-0.3,0.7-0.7,1.3-1.2,1.7c-0.5,0.4-1.1,0.6-1.7,0.6c-0.8,0-1.4-0.4-1.8-1.2h-0.1c-0.1,0.6-0.1,1-0.2,1.2l-0.6,3h-1.1l2.1-10.1
			h0.9l-0.2,1.3h0.1c0.4-0.5,0.8-0.9,1.2-1.1C126.5,111.4,126.8,111.3,127.2,111.3z M126.8,112.2c-0.4,0-0.8,0.2-1.2,0.6
			s-0.7,0.9-1,1.5s-0.4,1.2-0.4,1.8c0,0.4,0.1,0.8,0.3,1c0.2,0.2,0.6,0.4,1,0.4c0.4,0,0.8-0.2,1.2-0.5c0.4-0.3,0.6-0.8,0.8-1.4
			c0.2-0.6,0.3-1.3,0.3-1.9C127.9,112.7,127.6,112.2,126.8,112.2z"/>
		<path id="XMLID_468_" class="st1" d="M132.3,118.5c-0.6,0-1-0.2-1.4-0.6s-0.5-1-0.5-1.8c0-0.9,0.1-1.7,0.4-2.4
			c0.3-0.8,0.7-1.3,1.2-1.8c0.5-0.4,1.1-0.6,1.7-0.6c0.4,0,0.7,0.1,1,0.3c0.3,0.2,0.5,0.5,0.7,0.9h0.1l0.4-1.1h0.9l-1.5,7h-0.9
			l0.2-1.3h-0.1C133.9,118,133.1,118.5,132.3,118.5z M132.6,117.6c0.4,0,0.8-0.2,1.2-0.6c0.4-0.4,0.7-0.9,1-1.5
			c0.2-0.6,0.4-1.2,0.4-1.9c0-0.4-0.1-0.8-0.3-1s-0.5-0.4-0.9-0.4c-0.4,0-0.8,0.2-1.2,0.5s-0.7,0.8-0.9,1.4
			c-0.2,0.6-0.3,1.3-0.3,1.9c0,0.5,0.1,0.8,0.3,1.1S132.3,117.6,132.6,117.6z"/>
		<path id="XMLID_471_" class="st1" d="M142.6,111.4h1.4l-3,3l1.9,4h-1.3l-1.5-3.3l-0.9,0.7l-0.5,2.5h-1.2l2.1-9.9h1.2
			c-0.4,1.7-0.7,3.1-0.9,4c-0.2,0.9-0.4,1.7-0.6,2.3h0L142.6,111.4z"/>
		<path id="XMLID_473_" class="st1" d="M146.1,118.5c-0.6,0-1-0.2-1.4-0.6s-0.5-1-0.5-1.8c0-0.9,0.1-1.7,0.4-2.4
			c0.3-0.8,0.7-1.3,1.2-1.8c0.5-0.4,1.1-0.6,1.7-0.6c0.4,0,0.7,0.1,1,0.3c0.3,0.2,0.5,0.5,0.7,0.9h0.1l0.4-1.1h0.9l-1.5,7h-0.9
			l0.2-1.3h-0.1C147.7,118,146.9,118.5,146.1,118.5z M146.5,117.6c0.4,0,0.8-0.2,1.2-0.6c0.4-0.4,0.7-0.9,1-1.5
			c0.2-0.6,0.4-1.2,0.4-1.9c0-0.4-0.1-0.8-0.3-1s-0.5-0.4-0.9-0.4c-0.4,0-0.8,0.2-1.2,0.5s-0.7,0.8-0.9,1.4
			c-0.2,0.6-0.3,1.3-0.3,1.9c0,0.5,0.1,0.8,0.3,1.1S146.1,117.6,146.5,117.6z"/>
		<path id="XMLID_476_" class="st1" d="M156.7,118.4h-1.1l0.9-4.4c0.1-0.4,0.1-0.7,0.1-0.9c0-0.6-0.3-0.9-0.9-0.9
			c-0.4,0-0.7,0.1-1.1,0.4s-0.7,0.6-0.9,1.1s-0.5,1-0.6,1.7l-0.6,3h-1.1l2.1-9.9h1.1l-0.6,2.6c-0.1,0.3-0.1,0.5-0.2,0.8
			s-0.1,0.6-0.2,0.8h0.1c0.4-0.5,0.8-0.9,1.1-1.1c0.4-0.2,0.8-0.3,1.2-0.3c0.6,0,1,0.2,1.3,0.5s0.5,0.7,0.5,1.3c0,0.2,0,0.6-0.1,1.1
			L156.7,118.4z"/>
		<path id="XMLID_478_" class="st1" d="M166.6,116.4c0,0.7-0.2,1.2-0.7,1.6c-0.5,0.4-1.1,0.6-2,0.6c-0.8,0-1.4-0.1-1.9-0.4V117
			c0.3,0.2,0.6,0.3,0.9,0.4c0.3,0.1,0.7,0.2,1,0.2c0.5,0,0.9-0.1,1.2-0.3s0.4-0.5,0.4-0.8c0-0.2-0.1-0.4-0.2-0.6
			c-0.1-0.2-0.5-0.4-0.9-0.7c-0.5-0.3-0.9-0.6-1.2-0.9s-0.3-0.7-0.3-1.1c0-0.6,0.2-1.1,0.6-1.4c0.4-0.4,1-0.5,1.7-0.5
			c0.7,0,1.4,0.2,2.1,0.5l-0.4,0.9c-0.2-0.1-0.5-0.2-0.8-0.3s-0.6-0.1-1-0.1c-0.4,0-0.7,0.1-0.9,0.3c-0.2,0.2-0.3,0.4-0.3,0.7
			c0,0.2,0.1,0.4,0.2,0.6s0.5,0.4,0.9,0.6c0.5,0.3,0.8,0.5,1,0.7s0.3,0.4,0.4,0.6C166.5,115.9,166.6,116.1,166.6,116.4z"/>
		<path id="XMLID_480_" class="st1" d="M169,118.4h-1.1l1.5-7h1.1L169,118.4z M169.6,109.6c0-0.2,0.1-0.4,0.2-0.6s0.3-0.2,0.6-0.2
			c0.4,0,0.6,0.2,0.6,0.6c0,0.3-0.1,0.5-0.2,0.6c-0.1,0.2-0.3,0.2-0.5,0.2c-0.2,0-0.3-0.1-0.4-0.2
			C169.7,110,169.6,109.8,169.6,109.6z"/>
		<path id="XMLID_483_" class="st1" d="M173.4,117.6c0.3,0,0.6-0.1,0.9-0.2v0.9c-0.1,0.1-0.3,0.1-0.5,0.2c-0.2,0-0.4,0.1-0.6,0.1
			c-0.5,0-1-0.1-1.2-0.4s-0.4-0.6-0.4-1.1c0-0.3,0-0.6,0.1-0.9l0.8-3.8h-1.1l0.1-0.5l1.2-0.5l0.8-1.4h0.7l-0.3,1.6h1.8l-0.2,0.9
			h-1.7l-0.8,3.8c-0.1,0.3-0.1,0.6-0.1,0.8c0,0.2,0.1,0.4,0.2,0.5S173.2,117.6,173.4,117.6z"/>
		<path id="XMLID_485_" class="st1" d="M176.9,111.4h1.2l-0.9,4.4c-0.1,0.4-0.1,0.7-0.1,0.9c0,0.6,0.3,0.9,0.9,0.9
			c0.4,0,0.7-0.1,1.1-0.4s0.7-0.6,0.9-1.1c0.3-0.5,0.5-1,0.6-1.7l0.6-3h1.1l-1.5,7h-0.9l0.1-1.3H180c-0.4,0.5-0.8,0.9-1.1,1.1
			c-0.4,0.2-0.8,0.3-1.2,0.3c-0.5,0-1-0.2-1.3-0.5s-0.5-0.7-0.5-1.3c0-0.3,0-0.6,0.1-1.1L176.9,111.4z"/>
		<path id="XMLID_487_" class="st1" d="M187.4,116.4c0,0.7-0.2,1.2-0.7,1.6c-0.5,0.4-1.1,0.6-2,0.6c-0.8,0-1.4-0.1-1.9-0.4V117
			c0.3,0.2,0.6,0.3,0.9,0.4c0.3,0.1,0.7,0.2,1,0.2c0.5,0,0.9-0.1,1.2-0.3s0.4-0.5,0.4-0.8c0-0.2-0.1-0.4-0.2-0.6
			c-0.1-0.2-0.5-0.4-0.9-0.7c-0.5-0.3-0.9-0.6-1.2-0.9s-0.3-0.7-0.3-1.1c0-0.6,0.2-1.1,0.6-1.4c0.4-0.4,1-0.5,1.7-0.5
			c0.7,0,1.4,0.2,2.1,0.5l-0.4,0.9c-0.2-0.1-0.5-0.2-0.8-0.3s-0.6-0.1-1-0.1c-0.4,0-0.7,0.1-0.9,0.3c-0.2,0.2-0.3,0.4-0.3,0.7
			c0,0.2,0.1,0.4,0.2,0.6s0.5,0.4,0.9,0.6c0.5,0.3,0.8,0.5,1,0.7s0.3,0.4,0.4,0.6C187.3,115.9,187.4,116.1,187.4,116.4z"/>
		<path id="XMLID_489_" class="st1" d="M193.2,118.4H192l1.5-7h1.1L193.2,118.4z M193.8,109.6c0-0.2,0.1-0.4,0.2-0.6
			s0.3-0.2,0.6-0.2c0.4,0,0.6,0.2,0.6,0.6c0,0.3-0.1,0.5-0.2,0.6c-0.1,0.2-0.3,0.2-0.5,0.2c-0.2,0-0.3-0.1-0.4-0.2
			C193.9,110,193.8,109.8,193.8,109.6z"/>
		<path id="XMLID_492_" class="st1" d="M200.8,118.4h-1.1l0.9-4.4c0.1-0.4,0.1-0.7,0.1-0.9c0-0.3-0.1-0.5-0.2-0.6
			c-0.1-0.2-0.4-0.2-0.7-0.2c-0.4,0-0.7,0.1-1.1,0.4s-0.7,0.6-0.9,1.1c-0.3,0.5-0.5,1-0.6,1.7l-0.6,3h-1.1l1.5-7h0.9l-0.1,1.3h0.1
			c0.3-0.4,0.5-0.6,0.8-0.8s0.5-0.3,0.7-0.4c0.3-0.1,0.5-0.2,0.8-0.2c0.5,0,1,0.1,1.3,0.4c0.3,0.3,0.5,0.7,0.5,1.3
			c0,0.3,0,0.7-0.1,1.1L200.8,118.4z"/>
		<path id="XMLID_494_" class="st1" d="M204.1,118.4h-1.1l1.5-7h1.1L204.1,118.4z M204.7,109.6c0-0.2,0.1-0.4,0.2-0.6
			s0.3-0.2,0.6-0.2c0.4,0,0.6,0.2,0.6,0.6c0,0.3-0.1,0.5-0.2,0.6c-0.1,0.2-0.3,0.2-0.5,0.2c-0.2,0-0.3-0.1-0.4-0.2
			C204.7,110,204.7,109.8,204.7,109.6z"/>
		<path id="XMLID_497_" class="st1" d="M211.8,118.5c-0.6,0-1-0.2-1.4-0.6c-0.3-0.4-0.5-1-0.5-1.8c0-0.9,0.1-1.7,0.4-2.5
			c0.3-0.8,0.7-1.3,1.2-1.8s1.1-0.6,1.7-0.6c0.8,0,1.4,0.4,1.8,1.2h0.1c0.1-0.7,0.2-1.3,0.3-1.7l0.5-2.3h1.1l-2.1,9.9H214l0.1-1.3
			h-0.1c-0.4,0.5-0.8,0.9-1.2,1.1C212.6,118.4,212.2,118.5,211.8,118.5z M212.2,117.6c0.4,0,0.8-0.2,1.2-0.6s0.7-0.9,1-1.5
			s0.4-1.2,0.4-1.8c0-0.5-0.1-0.8-0.3-1s-0.5-0.4-1-0.4c-0.4,0-0.8,0.2-1.2,0.5s-0.6,0.8-0.8,1.4c-0.2,0.6-0.3,1.3-0.3,1.9
			C211.1,117.1,211.4,117.6,212.2,117.6z"/>
		<path id="XMLID_500_" class="st1" d="M219.3,118.5c-0.6,0-1-0.2-1.4-0.6s-0.5-1-0.5-1.8c0-0.9,0.1-1.7,0.4-2.4
			c0.3-0.8,0.7-1.3,1.2-1.8c0.5-0.4,1.1-0.6,1.7-0.6c0.4,0,0.7,0.1,1,0.3c0.3,0.2,0.5,0.5,0.7,0.9h0.1l0.4-1.1h0.9l-1.5,7h-0.9
			l0.2-1.3h-0.1C220.9,118,220.2,118.5,219.3,118.5z M219.7,117.6c0.4,0,0.8-0.2,1.2-0.6c0.4-0.4,0.7-0.9,1-1.5
			c0.2-0.6,0.4-1.2,0.4-1.9c0-0.4-0.1-0.8-0.3-1s-0.5-0.4-0.9-0.4c-0.4,0-0.8,0.2-1.2,0.5s-0.7,0.8-0.9,1.4
			c-0.2,0.6-0.3,1.3-0.3,1.9c0,0.5,0.1,0.8,0.3,1.1S219.3,117.6,219.7,117.6z"/>
		<path id="XMLID_503_" class="st1" d="M229.2,111.3c0.6,0,1.1,0.2,1.4,0.6s0.5,1,0.5,1.7c0,0.9-0.1,1.7-0.4,2.5
			c-0.3,0.7-0.7,1.3-1.2,1.7c-0.5,0.4-1.1,0.6-1.7,0.6c-0.8,0-1.4-0.4-1.8-1.2h-0.1c-0.1,0.6-0.1,1-0.2,1.2l-0.6,3h-1.1l2.1-10.1
			h0.9l-0.2,1.3h0.1c0.4-0.5,0.8-0.9,1.2-1.1C228.4,111.4,228.8,111.3,229.2,111.3z M228.8,112.2c-0.4,0-0.8,0.2-1.2,0.6
			s-0.7,0.9-1,1.5s-0.4,1.2-0.4,1.8c0,0.4,0.1,0.8,0.3,1c0.2,0.2,0.6,0.4,1,0.4c0.4,0,0.8-0.2,1.2-0.5c0.4-0.3,0.6-0.8,0.8-1.4
			c0.2-0.6,0.3-1.3,0.3-1.9C229.9,112.7,229.5,112.2,228.8,112.2z"/>
		<path id="XMLID_506_" class="st1" d="M234.2,118.5c-0.6,0-1-0.2-1.4-0.6s-0.5-1-0.5-1.8c0-0.9,0.1-1.7,0.4-2.4
			c0.3-0.8,0.7-1.3,1.2-1.8c0.5-0.4,1.1-0.6,1.7-0.6c0.4,0,0.7,0.1,1,0.3c0.3,0.2,0.5,0.5,0.7,0.9h0.1l0.4-1.1h0.9l-1.5,7h-0.9
			l0.2-1.3h-0.1C235.9,118,235.1,118.5,234.2,118.5z M234.6,117.6c0.4,0,0.8-0.2,1.2-0.6c0.4-0.4,0.7-0.9,1-1.5
			c0.2-0.6,0.4-1.2,0.4-1.9c0-0.4-0.1-0.8-0.3-1s-0.5-0.4-0.9-0.4c-0.4,0-0.8,0.2-1.2,0.5s-0.7,0.8-0.9,1.4
			c-0.2,0.6-0.3,1.3-0.3,1.9c0,0.5,0.1,0.8,0.3,1.1S234.3,117.6,234.6,117.6z"/>
		<path id="XMLID_509_" class="st1" d="M241.7,117.6c0.3,0,0.6-0.1,0.9-0.2v0.9c-0.1,0.1-0.3,0.1-0.5,0.2c-0.2,0-0.4,0.1-0.6,0.1
			c-0.5,0-1-0.1-1.2-0.4s-0.4-0.6-0.4-1.1c0-0.3,0-0.6,0.1-0.9l0.8-3.8h-1.1l0.1-0.5l1.2-0.5l0.8-1.4h0.7l-0.3,1.6h1.8l-0.2,0.9
			h-1.7l-0.8,3.8c-0.1,0.3-0.1,0.6-0.1,0.8c0,0.2,0.1,0.4,0.2,0.5S241.4,117.6,241.7,117.6z"/>
		<path id="XMLID_511_" class="st1" d="M53.6,134.1c-0.6,0-1-0.2-1.4-0.6c-0.3-0.4-0.5-1-0.5-1.8c0-0.9,0.1-1.7,0.4-2.5
			c0.3-0.8,0.7-1.3,1.2-1.8s1.1-0.6,1.7-0.6c0.8,0,1.4,0.4,1.8,1.2h0.1c0.1-0.7,0.2-1.3,0.3-1.7l0.5-2.3h1.1l-2.1,9.9h-0.9l0.1-1.3
			h-0.1c-0.4,0.5-0.8,0.9-1.2,1.1C54.4,134,54,134.1,53.6,134.1z M54,133.2c0.4,0,0.8-0.2,1.2-0.6s0.7-0.9,1-1.5s0.4-1.2,0.4-1.8
			c0-0.5-0.1-0.8-0.3-1c-0.2-0.2-0.5-0.4-1-0.4c-0.4,0-0.8,0.2-1.2,0.5s-0.6,0.8-0.8,1.4c-0.2,0.6-0.3,1.3-0.3,1.9
			C52.9,132.7,53.2,133.2,54,133.2z"/>
		<path id="XMLID_514_" class="st1" d="M60.1,134H59l1.5-7h1.1L60.1,134z M60.8,125.2c0-0.2,0.1-0.4,0.2-0.6s0.3-0.2,0.6-0.2
			c0.4,0,0.6,0.2,0.6,0.6c0,0.3-0.1,0.5-0.2,0.6c-0.1,0.2-0.3,0.2-0.5,0.2c-0.2,0-0.3-0.1-0.4-0.2C60.8,125.6,60.8,125.4,60.8,125.2
			z"/>
		<path id="XMLID_517_" class="st1" d="M67,126.9c0.6,0,1.1,0.2,1.4,0.6s0.5,1,0.5,1.7c0,0.9-0.1,1.7-0.4,2.5
			c-0.3,0.7-0.7,1.3-1.2,1.7c-0.5,0.4-1.1,0.6-1.7,0.6c-0.8,0-1.4-0.4-1.8-1.2h-0.1c-0.1,0.6-0.1,1-0.2,1.2l-0.6,3h-1.1l2.1-10.1
			h0.9l-0.2,1.3h0.1c0.4-0.5,0.8-0.9,1.2-1.1C66.2,127,66.6,126.9,67,126.9z M66.6,127.8c-0.4,0-0.8,0.2-1.2,0.6s-0.7,0.9-1,1.5
			s-0.4,1.2-0.4,1.8c0,0.4,0.1,0.8,0.3,1c0.2,0.2,0.6,0.4,1,0.4c0.4,0,0.8-0.2,1.2-0.5c0.4-0.3,0.6-0.8,0.8-1.4
			c0.2-0.6,0.3-1.3,0.3-1.9C67.7,128.3,67.3,127.8,66.6,127.8z"/>
		<path id="XMLID_520_" class="st1" d="M72.6,134.1c-0.8,0-1.4-0.2-1.9-0.7c-0.4-0.5-0.7-1.1-0.7-1.9c0-0.8,0.2-1.6,0.5-2.3
			c0.3-0.7,0.7-1.3,1.3-1.7c0.5-0.4,1.1-0.6,1.8-0.6c0.7,0,1.2,0.1,1.5,0.4c0.3,0.3,0.5,0.7,0.5,1.2c0,0.8-0.4,1.4-1.1,1.8
			s-1.7,0.7-3,0.7h-0.2l0,0.5c0,0.5,0.1,1,0.4,1.3s0.7,0.5,1.2,0.5c0.3,0,0.6,0,0.9-0.1c0.3-0.1,0.6-0.2,1-0.4v1
			c-0.4,0.2-0.8,0.3-1.1,0.4C73.3,134.1,73,134.1,72.6,134.1z M73.5,127.8c-0.4,0-0.8,0.2-1.2,0.6c-0.4,0.4-0.7,0.9-0.8,1.6h0.1
			c0.9,0,1.6-0.1,2.1-0.4c0.5-0.2,0.8-0.6,0.8-1.1c0-0.2-0.1-0.4-0.2-0.6C74.1,127.9,73.9,127.8,73.5,127.8z"/>
		<path id="XMLID_523_" class="st1" d="M80.8,126.9c0.3,0,0.5,0,0.8,0.1l-0.2,1c-0.2-0.1-0.5-0.1-0.7-0.1c-0.4,0-0.7,0.1-1.1,0.4
			c-0.3,0.2-0.6,0.6-0.9,1c-0.2,0.4-0.4,0.9-0.5,1.5l-0.7,3.2h-1.1l1.5-7h0.9l-0.1,1.3h0.1c0.3-0.4,0.6-0.7,0.8-0.9s0.4-0.3,0.6-0.4
			C80.3,126.9,80.5,126.9,80.8,126.9z"/>
		<path id="XMLID_525_" class="st1" d="M84.7,134.1c-0.8,0-1.5-0.2-1.9-0.7c-0.5-0.5-0.7-1.1-0.7-1.9c0-0.9,0.2-1.6,0.5-2.4
			c0.3-0.7,0.7-1.3,1.3-1.7c0.5-0.4,1.2-0.6,1.9-0.6c0.6,0,1.2,0.1,1.7,0.3l-0.3,1c-0.5-0.2-0.9-0.3-1.4-0.3c-0.5,0-0.9,0.2-1.3,0.5
			c-0.4,0.3-0.7,0.8-0.9,1.3c-0.2,0.6-0.3,1.2-0.3,1.8c0,0.5,0.1,0.9,0.4,1.2s0.6,0.4,1.1,0.4c0.3,0,0.6,0,0.9-0.1
			c0.3-0.1,0.5-0.2,0.8-0.3v1C85.9,134,85.3,134.1,84.7,134.1z"/>
		<path id="XMLID_527_" class="st1" d="M89.9,134.1c-0.6,0-1-0.2-1.4-0.6s-0.5-1-0.5-1.8c0-0.9,0.1-1.7,0.4-2.4
			c0.3-0.8,0.7-1.3,1.2-1.8c0.5-0.4,1.1-0.6,1.7-0.6c0.4,0,0.7,0.1,1,0.3c0.3,0.2,0.5,0.5,0.7,0.9h0.1l0.4-1.1h0.9l-1.5,7h-0.9
			l0.2-1.3h-0.1C91.5,133.6,90.7,134.1,89.9,134.1z M90.2,133.2c0.4,0,0.8-0.2,1.2-0.6c0.4-0.4,0.7-0.9,1-1.5
			c0.2-0.6,0.4-1.2,0.4-1.9c0-0.4-0.1-0.8-0.3-1c-0.2-0.3-0.5-0.4-0.9-0.4c-0.4,0-0.8,0.2-1.2,0.5s-0.7,0.8-0.9,1.4
			c-0.2,0.6-0.3,1.3-0.3,1.9c0,0.5,0.1,0.8,0.3,1.1S89.9,133.2,90.2,133.2z"/>
		<path id="XMLID_530_" class="st1" d="M95.4,127h1.1l0.5,3.4c0,0.3,0.1,0.7,0.1,1.2c0,0.5,0.1,1,0.1,1.4h0c0.1-0.3,0.3-0.7,0.5-1.1
			c0.2-0.5,0.4-0.8,0.5-1.1l2-3.8h1.2l-4.4,8.1c-0.4,0.7-0.8,1.2-1.2,1.5c-0.4,0.3-0.9,0.4-1.4,0.4c-0.3,0-0.6,0-0.9-0.1V136
			c0.3,0.1,0.5,0.1,0.8,0.1c0.3,0,0.6-0.1,0.9-0.3s0.5-0.5,0.7-0.9l0.5-0.8L95.4,127z"/>
		<path id="XMLID_532_" class="st1" d="M103.3,134.1c-0.6,0-1-0.2-1.4-0.6s-0.5-1-0.5-1.8c0-0.9,0.1-1.7,0.4-2.4
			c0.3-0.8,0.7-1.3,1.2-1.8c0.5-0.4,1.1-0.6,1.7-0.6c0.4,0,0.7,0.1,1,0.3c0.3,0.2,0.5,0.5,0.7,0.9h0.1l0.4-1.1h0.9l-1.5,7h-0.9
			l0.2-1.3h-0.1C105,133.6,104.2,134.1,103.3,134.1z M103.7,133.2c0.4,0,0.8-0.2,1.2-0.6c0.4-0.4,0.7-0.9,1-1.5
			c0.2-0.6,0.4-1.2,0.4-1.9c0-0.4-0.1-0.8-0.3-1c-0.2-0.3-0.5-0.4-0.9-0.4c-0.4,0-0.8,0.2-1.2,0.5s-0.7,0.8-0.9,1.4
			c-0.2,0.6-0.3,1.3-0.3,1.9c0,0.5,0.1,0.8,0.3,1.1S103.4,133.2,103.7,133.2z"/>
		<path id="XMLID_535_" class="st1" d="M109.2,133.5c0-0.3,0.1-0.6,0.3-0.8c0.2-0.2,0.4-0.3,0.7-0.3c0.2,0,0.3,0.1,0.5,0.2
			s0.2,0.3,0.2,0.5c0,0.3-0.1,0.6-0.3,0.8c-0.2,0.2-0.4,0.3-0.7,0.3c-0.2,0-0.4-0.1-0.5-0.2C109.3,133.9,109.2,133.7,109.2,133.5z
			 M109.8,131.4c0.1-0.6,0.3-1,0.5-1.4c0.2-0.4,0.6-0.7,1-1.1c0.5-0.4,0.8-0.7,1-0.9c0.2-0.2,0.3-0.4,0.4-0.6
			c0.1-0.2,0.1-0.4,0.1-0.7c0-0.4-0.1-0.7-0.3-0.9c-0.2-0.2-0.5-0.3-0.9-0.3c-0.3,0-0.7,0.1-1,0.2c-0.3,0.1-0.6,0.2-0.9,0.4
			l-0.4-0.9c0.4-0.2,0.8-0.4,1.2-0.5s0.8-0.2,1.2-0.2c0.7,0,1.3,0.2,1.7,0.5s0.6,0.9,0.6,1.5c0,0.5-0.1,1-0.4,1.4
			c-0.3,0.4-0.8,0.9-1.5,1.4c-0.5,0.4-0.9,0.7-1.1,0.9c-0.2,0.2-0.3,0.6-0.4,1H109.8z"/>
		<path id="XMLID_538_" class="st1" d="M122.3,131.1h-3.1l-1.5,2.9h-1.3l5-9.3h1.2l1.1,9.3h-1.1L122.3,131.1z M122.2,130.1l-0.2-1.9
			c-0.1-1-0.2-1.7-0.2-2.2c-0.1,0.3-0.3,0.7-0.4,1c-0.2,0.3-0.7,1.4-1.6,3.1H122.2z"/>
		<path id="XMLID_541_" class="st1" d="M129.5,126.9c0.6,0,1.1,0.2,1.4,0.6s0.5,1,0.5,1.7c0,0.9-0.1,1.7-0.4,2.5
			c-0.3,0.7-0.7,1.3-1.2,1.7c-0.5,0.4-1.1,0.6-1.7,0.6c-0.8,0-1.4-0.4-1.8-1.2h-0.1c-0.1,0.6-0.1,1-0.2,1.2l-0.6,3h-1.1l2.1-10.1
			h0.9l-0.2,1.3h0.1c0.4-0.5,0.8-0.9,1.2-1.1C128.7,127,129.1,126.9,129.5,126.9z M129.1,127.8c-0.4,0-0.8,0.2-1.2,0.6
			s-0.7,0.9-1,1.5s-0.4,1.2-0.4,1.8c0,0.4,0.1,0.8,0.3,1c0.2,0.2,0.6,0.4,1,0.4c0.4,0,0.8-0.2,1.2-0.5c0.4-0.3,0.6-0.8,0.8-1.4
			c0.2-0.6,0.3-1.3,0.3-1.9C130.2,128.3,129.8,127.8,129.1,127.8z"/>
		<path id="XMLID_544_" class="st1" d="M134.5,134.1c-0.6,0-1-0.2-1.4-0.6s-0.5-1-0.5-1.8c0-0.9,0.1-1.7,0.4-2.4
			c0.3-0.8,0.7-1.3,1.2-1.8c0.5-0.4,1.1-0.6,1.7-0.6c0.4,0,0.7,0.1,1,0.3c0.3,0.2,0.5,0.5,0.7,0.9h0.1l0.4-1.1h0.9l-1.5,7h-0.9
			l0.2-1.3h-0.1C136.1,133.6,135.4,134.1,134.5,134.1z M134.9,133.2c0.4,0,0.8-0.2,1.2-0.6c0.4-0.4,0.7-0.9,1-1.5
			c0.2-0.6,0.4-1.2,0.4-1.9c0-0.4-0.1-0.8-0.3-1c-0.2-0.3-0.5-0.4-0.9-0.4c-0.4,0-0.8,0.2-1.2,0.5s-0.7,0.8-0.9,1.4
			c-0.2,0.6-0.3,1.3-0.3,1.9c0,0.5,0.1,0.8,0.3,1.1S134.5,133.2,134.9,133.2z"/>
		<path id="XMLID_547_" class="st1" d="M144.9,127h1.4l-3,3l1.9,4h-1.3l-1.5-3.3l-0.9,0.7l-0.5,2.5h-1.2l2.1-9.9h1.2
			c-0.4,1.7-0.7,3.1-0.9,4c-0.2,0.9-0.4,1.7-0.6,2.3h0L144.9,127z"/>
		<path id="XMLID_549_" class="st1" d="M148.3,134.1c-0.6,0-1-0.2-1.4-0.6s-0.5-1-0.5-1.8c0-0.9,0.1-1.7,0.4-2.4
			c0.3-0.8,0.7-1.3,1.2-1.8c0.5-0.4,1.1-0.6,1.7-0.6c0.4,0,0.7,0.1,1,0.3c0.3,0.2,0.5,0.5,0.7,0.9h0.1l0.4-1.1h0.9l-1.5,7h-0.9
			l0.2-1.3h-0.1C150,133.6,149.2,134.1,148.3,134.1z M148.7,133.2c0.4,0,0.8-0.2,1.2-0.6c0.4-0.4,0.7-0.9,1-1.5
			c0.2-0.6,0.4-1.2,0.4-1.9c0-0.4-0.1-0.8-0.3-1c-0.2-0.3-0.5-0.4-0.9-0.4c-0.4,0-0.8,0.2-1.2,0.5s-0.7,0.8-0.9,1.4
			c-0.2,0.6-0.3,1.3-0.3,1.9c0,0.5,0.1,0.8,0.3,1.1S148.4,133.2,148.7,133.2z"/>
		<path id="XMLID_552_" class="st1" d="M158.9,134h-1.1l0.9-4.4c0.1-0.4,0.1-0.7,0.1-0.9c0-0.6-0.3-0.9-0.9-0.9
			c-0.4,0-0.7,0.1-1.1,0.4c-0.3,0.3-0.7,0.6-0.9,1.1s-0.5,1-0.6,1.7l-0.6,3h-1.1l2.1-9.9h1.1l-0.6,2.6c-0.1,0.3-0.1,0.5-0.2,0.8
			s-0.1,0.6-0.2,0.8h0.1c0.4-0.5,0.8-0.9,1.1-1.1c0.4-0.2,0.8-0.3,1.2-0.3c0.6,0,1,0.2,1.3,0.5s0.5,0.7,0.5,1.3c0,0.2,0,0.6-0.1,1.1
			L158.9,134z"/>
		<path id="XMLID_554_" class="st1" d="M169.6,127h1.4l-3,3l1.9,4h-1.3l-1.5-3.3l-0.9,0.7l-0.5,2.5h-1.2l2.1-9.9h1.2
			c-0.4,1.7-0.7,3.1-0.9,4c-0.2,0.9-0.4,1.7-0.6,2.3h0L169.6,127z"/>
		<path id="XMLID_556_" class="st1" d="M173.6,134.1c-0.8,0-1.4-0.2-1.9-0.7c-0.4-0.5-0.7-1.1-0.7-1.9c0-0.8,0.2-1.6,0.5-2.3
			c0.3-0.7,0.7-1.3,1.3-1.7c0.5-0.4,1.1-0.6,1.8-0.6c0.7,0,1.2,0.1,1.5,0.4c0.3,0.3,0.5,0.7,0.5,1.2c0,0.8-0.4,1.4-1.1,1.8
			s-1.7,0.7-3,0.7h-0.2l0,0.5c0,0.5,0.1,1,0.4,1.3s0.7,0.5,1.2,0.5c0.3,0,0.6,0,0.9-0.1c0.3-0.1,0.6-0.2,1-0.4v1
			c-0.4,0.2-0.8,0.3-1.1,0.4C174.3,134.1,173.9,134.1,173.6,134.1z M174.5,127.8c-0.4,0-0.8,0.2-1.2,0.6c-0.4,0.4-0.7,0.9-0.8,1.6
			h0.1c0.9,0,1.6-0.1,2.1-0.4c0.5-0.2,0.8-0.6,0.8-1.1c0-0.2-0.1-0.4-0.2-0.6C175,127.9,174.8,127.8,174.5,127.8z"/>
		<path id="XMLID_559_" class="st1" d="M179.4,134.1c-0.6,0-1-0.2-1.4-0.6s-0.5-1-0.5-1.8c0-0.9,0.1-1.7,0.4-2.4
			c0.3-0.8,0.7-1.3,1.2-1.8c0.5-0.4,1.1-0.6,1.7-0.6c0.4,0,0.7,0.1,1,0.3c0.3,0.2,0.5,0.5,0.7,0.9h0.1l0.4-1.1h0.9l-1.5,7h-0.9
			l0.2-1.3h-0.1C181,133.6,180.3,134.1,179.4,134.1z M179.8,133.2c0.4,0,0.8-0.2,1.2-0.6c0.4-0.4,0.7-0.9,1-1.5
			c0.2-0.6,0.4-1.2,0.4-1.9c0-0.4-0.1-0.8-0.3-1c-0.2-0.3-0.5-0.4-0.9-0.4c-0.4,0-0.8,0.2-1.2,0.5s-0.7,0.8-0.9,1.4
			c-0.2,0.6-0.3,1.3-0.3,1.9c0,0.5,0.1,0.8,0.3,1.1S179.4,133.2,179.8,133.2z"/>
		<path id="XMLID_562_" class="st1" d="M189.2,126.9c0.5,0,0.8,0.1,1.1,0.4c0.3,0.3,0.4,0.7,0.5,1.1h0.1c0.7-1,1.5-1.5,2.4-1.5
			c0.5,0,1,0.1,1.3,0.4s0.4,0.7,0.4,1.3c0,0.4,0,0.8-0.1,1.1l-0.9,4.2h-1.2l0.9-4.4c0.1-0.4,0.1-0.7,0.1-0.9c0-0.3-0.1-0.5-0.2-0.6
			c-0.1-0.2-0.4-0.2-0.7-0.2c-0.3,0-0.7,0.1-1,0.4c-0.3,0.2-0.6,0.6-0.9,1c-0.3,0.5-0.4,1-0.6,1.6l-0.7,3.1h-1.1l0.9-4.4
			c0.1-0.4,0.1-0.7,0.1-0.9c0-0.6-0.3-0.9-0.8-0.9c-0.3,0-0.7,0.1-1,0.4c-0.3,0.3-0.6,0.6-0.9,1.1s-0.4,1-0.6,1.7l-0.6,3h-1.1l1.5-7
			h0.9l-0.1,1.3h0.1c0.3-0.4,0.5-0.7,0.7-0.8c0.2-0.2,0.4-0.3,0.7-0.4C188.7,126.9,188.9,126.9,189.2,126.9z"/>
		<path id="XMLID_564_" class="st1" d="M198.2,134.1c-0.6,0-1-0.2-1.4-0.6s-0.5-1-0.5-1.8c0-0.9,0.1-1.7,0.4-2.4
			c0.3-0.8,0.7-1.3,1.2-1.8c0.5-0.4,1.1-0.6,1.7-0.6c0.4,0,0.7,0.1,1,0.3c0.3,0.2,0.5,0.5,0.7,0.9h0.1l0.4-1.1h0.9l-1.5,7h-0.9
			l0.2-1.3h-0.1C199.8,133.6,199,134.1,198.2,134.1z M198.5,133.2c0.4,0,0.8-0.2,1.2-0.6c0.4-0.4,0.7-0.9,1-1.5
			c0.2-0.6,0.4-1.2,0.4-1.9c0-0.4-0.1-0.8-0.3-1c-0.2-0.3-0.5-0.4-0.9-0.4c-0.4,0-0.8,0.2-1.2,0.5s-0.7,0.8-0.9,1.4
			c-0.2,0.6-0.3,1.3-0.3,1.9c0,0.5,0.1,0.8,0.3,1.1S198.2,133.2,198.5,133.2z"/>
		<path id="XMLID_567_" class="st1" d="M208.8,134h-1.1l0.9-4.4c0.1-0.4,0.1-0.7,0.1-0.9c0-0.3-0.1-0.5-0.2-0.6
			c-0.1-0.2-0.4-0.2-0.7-0.2c-0.4,0-0.7,0.1-1.1,0.4c-0.3,0.3-0.7,0.6-0.9,1.1c-0.3,0.5-0.5,1-0.6,1.7l-0.6,3h-1.1l1.5-7h0.9
			l-0.1,1.3h0.1c0.3-0.4,0.5-0.6,0.8-0.8s0.5-0.3,0.7-0.4c0.3-0.1,0.5-0.2,0.8-0.2c0.5,0,1,0.1,1.3,0.4c0.3,0.3,0.5,0.7,0.5,1.3
			c0,0.3,0,0.7-0.1,1.1L208.8,134z"/>
		<path id="XMLID_569_" class="st1" d="M213.1,134.1c-0.6,0-1-0.2-1.4-0.6s-0.5-1-0.5-1.8c0-0.9,0.1-1.7,0.4-2.4
			c0.3-0.8,0.7-1.3,1.2-1.8c0.5-0.4,1.1-0.6,1.7-0.6c0.4,0,0.7,0.1,1,0.3c0.3,0.2,0.5,0.5,0.7,0.9h0.1l0.4-1.1h0.9l-1.5,7h-0.9
			l0.2-1.3h-0.1C214.7,133.6,213.9,134.1,213.1,134.1z M213.5,133.2c0.4,0,0.8-0.2,1.2-0.6c0.4-0.4,0.7-0.9,1-1.5
			c0.2-0.6,0.4-1.2,0.4-1.9c0-0.4-0.1-0.8-0.3-1c-0.2-0.3-0.5-0.4-0.9-0.4c-0.4,0-0.8,0.2-1.2,0.5s-0.7,0.8-0.9,1.4
			c-0.2,0.6-0.3,1.3-0.3,1.9c0,0.5,0.1,0.8,0.3,1.1S213.1,133.2,213.5,133.2z"/>
		<path id="XMLID_572_" class="st1" d="M223.7,134h-1.1l0.9-4.4c0.1-0.4,0.1-0.7,0.1-0.9c0-0.3-0.1-0.5-0.2-0.6
			c-0.1-0.2-0.4-0.2-0.7-0.2c-0.4,0-0.7,0.1-1.1,0.4c-0.3,0.3-0.7,0.6-0.9,1.1c-0.3,0.5-0.5,1-0.6,1.7l-0.6,3h-1.1l1.5-7h0.9
			l-0.1,1.3h0.1c0.3-0.4,0.5-0.6,0.8-0.8s0.5-0.3,0.7-0.4c0.3-0.1,0.5-0.2,0.8-0.2c0.5,0,1,0.1,1.3,0.4c0.3,0.3,0.5,0.7,0.5,1.3
			c0,0.3,0,0.7-0.1,1.1L223.7,134z"/>
		<path id="XMLID_574_" class="st1" d="M233.6,132c0,0.7-0.2,1.2-0.7,1.6c-0.5,0.4-1.1,0.6-2,0.6c-0.8,0-1.4-0.1-1.9-0.4v-1.1
			c0.3,0.2,0.6,0.3,0.9,0.4c0.3,0.1,0.7,0.2,1,0.2c0.5,0,0.9-0.1,1.2-0.3s0.4-0.5,0.4-0.8c0-0.2-0.1-0.4-0.2-0.6
			c-0.1-0.2-0.5-0.4-0.9-0.7c-0.5-0.3-0.9-0.6-1.2-0.9s-0.3-0.7-0.3-1.1c0-0.6,0.2-1.1,0.6-1.4c0.4-0.4,1-0.5,1.7-0.5
			c0.7,0,1.4,0.2,2.1,0.5l-0.4,0.9c-0.2-0.1-0.5-0.2-0.8-0.3c-0.3-0.1-0.6-0.1-1-0.1c-0.4,0-0.7,0.1-0.9,0.3
			c-0.2,0.2-0.3,0.4-0.3,0.7c0,0.2,0.1,0.4,0.2,0.6s0.5,0.4,0.9,0.6c0.5,0.3,0.8,0.5,1,0.7s0.3,0.4,0.4,0.6
			C233.5,131.5,233.6,131.7,233.6,132z"/>
		<path id="XMLID_576_" class="st1" d="M237,134.1c-0.6,0-1-0.2-1.4-0.6s-0.5-1-0.5-1.8c0-0.9,0.1-1.7,0.4-2.4
			c0.3-0.8,0.7-1.3,1.2-1.8c0.5-0.4,1.1-0.6,1.7-0.6c0.4,0,0.7,0.1,1,0.3c0.3,0.2,0.5,0.5,0.7,0.9h0.1l0.4-1.1h0.9l-1.5,7h-0.9
			l0.2-1.3h-0.1C238.6,133.6,237.8,134.1,237,134.1z M237.4,133.2c0.4,0,0.8-0.2,1.2-0.6c0.4-0.4,0.7-0.9,1-1.5
			c0.2-0.6,0.4-1.2,0.4-1.9c0-0.4-0.1-0.8-0.3-1c-0.2-0.3-0.5-0.4-0.9-0.4c-0.4,0-0.8,0.2-1.2,0.5s-0.7,0.8-0.9,1.4
			c-0.2,0.6-0.3,1.3-0.3,1.9c0,0.5,0.1,0.8,0.3,1.1S237,133.2,237.4,133.2z"/>
		<path id="XMLID_579_" class="st1" d="M242.5,127h1.1l0.5,3.4c0,0.3,0.1,0.7,0.1,1.2c0,0.5,0.1,1,0.1,1.4h0
			c0.1-0.3,0.3-0.7,0.5-1.1c0.2-0.5,0.4-0.8,0.5-1.1l2-3.8h1.2l-4.4,8.1c-0.4,0.7-0.8,1.2-1.2,1.5c-0.4,0.3-0.9,0.4-1.4,0.4
			c-0.3,0-0.6,0-0.9-0.1V136c0.3,0.1,0.5,0.1,0.8,0.1c0.3,0,0.6-0.1,0.9-0.3s0.5-0.5,0.7-0.9l0.5-0.8L242.5,127z"/>
		<path id="XMLID_581_" class="st1" d="M250.4,134.1c-0.6,0-1-0.2-1.4-0.6s-0.5-1-0.5-1.8c0-0.9,0.1-1.7,0.4-2.4
			c0.3-0.8,0.7-1.3,1.2-1.8c0.5-0.4,1.1-0.6,1.7-0.6c0.4,0,0.7,0.1,1,0.3c0.3,0.2,0.5,0.5,0.7,0.9h0.1l0.4-1.1h0.9l-1.5,7h-0.9
			l0.2-1.3h-0.1C252.1,133.6,251.3,134.1,250.4,134.1z M250.8,133.2c0.4,0,0.8-0.2,1.2-0.6c0.4-0.4,0.7-0.9,1-1.5
			c0.2-0.6,0.4-1.2,0.4-1.9c0-0.4-0.1-0.8-0.3-1c-0.2-0.3-0.5-0.4-0.9-0.4c-0.4,0-0.8,0.2-1.2,0.5s-0.7,0.8-0.9,1.4
			c-0.2,0.6-0.3,1.3-0.3,1.9c0,0.5,0.1,0.8,0.3,1.1S250.5,133.2,250.8,133.2z"/>
		<path id="XMLID_584_" class="st1" d="M55.8,147.6c0,0.7-0.2,1.2-0.7,1.6c-0.5,0.4-1.1,0.6-2,0.6c-0.8,0-1.4-0.1-1.9-0.4v-1.1
			c0.3,0.2,0.6,0.3,0.9,0.4c0.3,0.1,0.7,0.2,1,0.2c0.5,0,0.9-0.1,1.2-0.3s0.4-0.5,0.4-0.8c0-0.2-0.1-0.4-0.2-0.6
			c-0.1-0.2-0.5-0.4-0.9-0.7c-0.5-0.3-0.9-0.6-1.2-0.9s-0.3-0.7-0.3-1.1c0-0.6,0.2-1.1,0.6-1.4c0.4-0.4,1-0.5,1.7-0.5
			c0.7,0,1.4,0.2,2.1,0.5l-0.4,0.9c-0.2-0.1-0.5-0.2-0.8-0.3s-0.6-0.1-1-0.1c-0.4,0-0.7,0.1-0.9,0.3c-0.2,0.2-0.3,0.4-0.3,0.7
			c0,0.2,0.1,0.4,0.2,0.6s0.5,0.4,0.9,0.6c0.5,0.3,0.8,0.5,1,0.7s0.3,0.4,0.4,0.6C55.8,147.1,55.8,147.3,55.8,147.6z"/>
		<path id="XMLID_586_" class="st1" d="M59.8,149.7c-0.8,0-1.4-0.2-1.9-0.7c-0.4-0.5-0.7-1.1-0.7-1.9c0-0.8,0.2-1.6,0.5-2.3
			c0.3-0.7,0.7-1.3,1.3-1.7c0.5-0.4,1.1-0.6,1.8-0.6c0.7,0,1.2,0.1,1.5,0.4c0.3,0.3,0.5,0.7,0.5,1.2c0,0.8-0.4,1.4-1.1,1.8
			s-1.7,0.7-3,0.7h-0.2l0,0.5c0,0.5,0.1,1,0.4,1.3s0.7,0.5,1.2,0.5c0.3,0,0.6,0,0.9-0.1c0.3-0.1,0.6-0.2,1-0.4v1
			c-0.4,0.2-0.8,0.3-1.1,0.4C60.5,149.7,60.2,149.7,59.8,149.7z M60.7,143.4c-0.4,0-0.8,0.2-1.2,0.6c-0.4,0.4-0.7,0.9-0.8,1.6h0.1
			c0.9,0,1.6-0.1,2.1-0.4c0.5-0.2,0.8-0.6,0.8-1.1c0-0.2-0.1-0.4-0.2-0.6C61.3,143.5,61.1,143.4,60.7,143.4z"/>
		<path id="XMLID_589_" class="st1" d="M65.7,149.7c-0.6,0-1-0.2-1.4-0.6c-0.3-0.4-0.5-1-0.5-1.8c0-0.9,0.1-1.7,0.4-2.5
			c0.3-0.8,0.7-1.3,1.2-1.8s1.1-0.6,1.7-0.6c0.8,0,1.4,0.4,1.8,1.2h0.1c0.1-0.7,0.2-1.3,0.3-1.7l0.5-2.3H71l-2.1,9.9h-0.9l0.1-1.3
			H68c-0.4,0.5-0.8,0.9-1.2,1.1C66.5,149.6,66.1,149.7,65.7,149.7z M66.1,148.8c0.4,0,0.8-0.2,1.2-0.6s0.7-0.9,1-1.5
			s0.4-1.2,0.4-1.8c0-0.5-0.1-0.8-0.3-1s-0.5-0.4-1-0.4c-0.4,0-0.8,0.2-1.2,0.5s-0.6,0.8-0.8,1.4c-0.2,0.6-0.3,1.3-0.3,1.9
			C65,148.3,65.4,148.8,66.1,148.8z"/>
		<path id="XMLID_592_" class="st1" d="M73.2,149.7c-0.6,0-1-0.2-1.4-0.6s-0.5-1-0.5-1.8c0-0.9,0.1-1.7,0.4-2.4
			c0.3-0.8,0.7-1.3,1.2-1.8c0.5-0.4,1.1-0.6,1.7-0.6c0.4,0,0.7,0.1,1,0.3c0.3,0.2,0.5,0.5,0.7,0.9h0.1l0.4-1.1h0.9l-1.5,7h-0.9
			l0.2-1.3h-0.1C74.9,149.2,74.1,149.7,73.2,149.7z M73.6,148.8c0.4,0,0.8-0.2,1.2-0.6c0.4-0.4,0.7-0.9,1-1.5
			c0.2-0.6,0.4-1.2,0.4-1.9c0-0.4-0.1-0.8-0.3-1s-0.5-0.4-0.9-0.4c-0.4,0-0.8,0.2-1.2,0.5s-0.7,0.8-0.9,1.4
			c-0.2,0.6-0.3,1.3-0.3,1.9c0,0.5,0.1,0.8,0.3,1.1S73.3,148.8,73.6,148.8z"/>
		<path id="XMLID_595_" class="st1" d="M83.8,149.6h-1.1l0.9-4.4c0.1-0.4,0.1-0.7,0.1-0.9c0-0.3-0.1-0.5-0.2-0.6
			c-0.1-0.2-0.4-0.2-0.7-0.2c-0.4,0-0.7,0.1-1.1,0.4s-0.7,0.6-0.9,1.1c-0.3,0.5-0.5,1-0.6,1.7l-0.6,3h-1.1l1.5-7h0.9l-0.1,1.3h0.1
			c0.3-0.4,0.5-0.6,0.8-0.8s0.5-0.3,0.7-0.4c0.3-0.1,0.5-0.2,0.8-0.2c0.5,0,1,0.1,1.3,0.4c0.3,0.3,0.5,0.7,0.5,1.3
			c0,0.3,0,0.7-0.1,1.1L83.8,149.6z"/>
		<path id="XMLID_597_" class="st1" d="M88,152.7c-0.8,0-1.5-0.1-2.1-0.4v-1.1c0.3,0.2,0.6,0.3,1,0.4c0.4,0.1,0.7,0.2,1.1,0.2
			c0.6,0,1-0.1,1.3-0.4c0.3-0.3,0.6-0.7,0.7-1.3l0.3-1.3l0.1-0.4h-0.1c-0.4,0.5-0.8,0.9-1.1,1.1c-0.4,0.2-0.8,0.3-1.2,0.3
			c-0.6,0-1.1-0.2-1.4-0.6s-0.5-1-0.5-1.8c0-0.9,0.2-1.7,0.5-2.5c0.3-0.8,0.7-1.3,1.2-1.7c0.5-0.4,1.1-0.6,1.7-0.6
			c0.8,0,1.4,0.4,1.8,1.2h0.1l0.4-1.1h0.9l-1.6,7.4c-0.2,0.9-0.6,1.6-1.1,2.1C89.6,152.5,88.9,152.7,88,152.7z M88.5,148.8
			c0.4,0,0.8-0.2,1.2-0.6s0.7-0.9,1-1.5s0.4-1.2,0.4-1.8c0-0.9-0.4-1.4-1.3-1.4c-0.4,0-0.8,0.2-1.2,0.5c-0.4,0.4-0.6,0.8-0.8,1.5
			c-0.2,0.6-0.3,1.3-0.3,1.9C87.4,148.3,87.8,148.8,88.5,148.8z"/>
		<path id="XMLID_600_" class="st1" d="M99.1,148.8c0.3,0,0.6-0.1,0.9-0.2v0.9c-0.1,0.1-0.3,0.1-0.5,0.2c-0.2,0-0.4,0.1-0.6,0.1
			c-0.5,0-1-0.1-1.2-0.4s-0.4-0.6-0.4-1.1c0-0.3,0-0.6,0.1-0.9l0.8-3.8h-1.1l0.1-0.5l1.2-0.5l0.8-1.4h0.7l-0.3,1.6h1.8l-0.2,0.9
			h-1.7l-0.8,3.8c-0.1,0.3-0.1,0.6-0.1,0.8c0,0.2,0.1,0.4,0.2,0.5S98.9,148.8,99.1,148.8z"/>
		<path id="XMLID_602_" class="st1" d="M104,149.7c-0.8,0-1.4-0.2-1.9-0.7c-0.4-0.5-0.7-1.1-0.7-1.9c0-0.8,0.2-1.6,0.5-2.3
			c0.3-0.7,0.7-1.3,1.3-1.7c0.5-0.4,1.1-0.6,1.8-0.6c0.7,0,1.2,0.1,1.5,0.4c0.3,0.3,0.5,0.7,0.5,1.2c0,0.8-0.4,1.4-1.1,1.8
			s-1.7,0.7-3,0.7h-0.2l0,0.5c0,0.5,0.1,1,0.4,1.3s0.7,0.5,1.2,0.5c0.3,0,0.6,0,0.9-0.1c0.3-0.1,0.6-0.2,1-0.4v1
			c-0.4,0.2-0.8,0.3-1.1,0.4C104.7,149.7,104.4,149.7,104,149.7z M104.9,143.4c-0.4,0-0.8,0.2-1.2,0.6c-0.4,0.4-0.7,0.9-0.8,1.6h0.1
			c0.9,0,1.6-0.1,2.1-0.4c0.5-0.2,0.8-0.6,0.8-1.1c0-0.2-0.1-0.4-0.2-0.6C105.4,143.5,105.2,143.4,104.9,143.4z"/>
		<path id="XMLID_605_" class="st1" d="M112.2,142.5c0.3,0,0.5,0,0.8,0.1l-0.2,1c-0.2-0.1-0.5-0.1-0.7-0.1c-0.4,0-0.7,0.1-1.1,0.4
			c-0.3,0.2-0.6,0.6-0.9,1c-0.2,0.4-0.4,0.9-0.5,1.5l-0.7,3.2h-1.1l1.5-7h0.9l-0.1,1.3h0.1c0.3-0.4,0.6-0.7,0.8-0.9s0.4-0.3,0.6-0.4
			C111.7,142.5,111.9,142.5,112.2,142.5z"/>
		<path id="XMLID_607_" class="st1" d="M115,149.7c-0.6,0-1-0.2-1.4-0.6s-0.5-1-0.5-1.8c0-0.9,0.1-1.7,0.4-2.4
			c0.3-0.8,0.7-1.3,1.2-1.8c0.5-0.4,1.1-0.6,1.7-0.6c0.4,0,0.7,0.1,1,0.3c0.3,0.2,0.5,0.5,0.7,0.9h0.1l0.4-1.1h0.9l-1.5,7h-0.9
			l0.2-1.3h-0.1C116.7,149.2,115.9,149.7,115,149.7z M115.4,148.8c0.4,0,0.8-0.2,1.2-0.6c0.4-0.4,0.7-0.9,1-1.5
			c0.2-0.6,0.4-1.2,0.4-1.9c0-0.4-0.1-0.8-0.3-1s-0.5-0.4-0.9-0.4c-0.4,0-0.8,0.2-1.2,0.5s-0.7,0.8-0.9,1.4
			c-0.2,0.6-0.3,1.3-0.3,1.9c0,0.5,0.1,0.8,0.3,1.1S115.1,148.8,115.4,148.8z"/>
		<path id="XMLID_610_" class="st1" d="M125.6,149.6h-1.1l0.9-4.4c0.1-0.4,0.1-0.7,0.1-0.9c0-0.3-0.1-0.5-0.2-0.6
			c-0.1-0.2-0.4-0.2-0.7-0.2c-0.4,0-0.7,0.1-1.1,0.4s-0.7,0.6-0.9,1.1c-0.3,0.5-0.5,1-0.6,1.7l-0.6,3h-1.1l1.5-7h0.9l-0.1,1.3h0.1
			c0.3-0.4,0.5-0.6,0.8-0.8s0.5-0.3,0.7-0.4c0.3-0.1,0.5-0.2,0.8-0.2c0.5,0,1,0.1,1.3,0.4c0.3,0.3,0.5,0.7,0.5,1.3
			c0,0.3,0,0.7-0.1,1.1L125.6,149.6z"/>
		<path id="XMLID_612_" class="st1" d="M130.6,149.7c-0.8,0-1.5-0.2-1.9-0.7c-0.5-0.5-0.7-1.1-0.7-1.9c0-0.9,0.2-1.6,0.5-2.4
			c0.3-0.7,0.7-1.3,1.3-1.7c0.5-0.4,1.2-0.6,1.9-0.6c0.6,0,1.2,0.1,1.7,0.3l-0.3,1c-0.5-0.2-0.9-0.3-1.4-0.3c-0.5,0-0.9,0.2-1.3,0.5
			c-0.4,0.3-0.7,0.8-0.9,1.3c-0.2,0.6-0.3,1.2-0.3,1.8c0,0.5,0.1,0.9,0.4,1.2s0.6,0.4,1.1,0.4c0.3,0,0.6,0,0.9-0.1
			c0.3-0.1,0.5-0.2,0.8-0.3v1C131.9,149.6,131.3,149.7,130.6,149.7z"/>
		<path id="XMLID_614_" class="st1" d="M135.8,149.7c-0.6,0-1-0.2-1.4-0.6s-0.5-1-0.5-1.8c0-0.9,0.1-1.7,0.4-2.4
			c0.3-0.8,0.7-1.3,1.2-1.8c0.5-0.4,1.1-0.6,1.7-0.6c0.4,0,0.7,0.1,1,0.3c0.3,0.2,0.5,0.5,0.7,0.9h0.1l0.4-1.1h0.9l-1.5,7h-0.9
			l0.2-1.3h-0.1C137.5,149.2,136.7,149.7,135.8,149.7z M136.2,148.8c0.4,0,0.8-0.2,1.2-0.6c0.4-0.4,0.7-0.9,1-1.5
			c0.2-0.6,0.4-1.2,0.4-1.9c0-0.4-0.1-0.8-0.3-1s-0.5-0.4-0.9-0.4c-0.4,0-0.8,0.2-1.2,0.5s-0.7,0.8-0.9,1.4
			c-0.2,0.6-0.3,1.3-0.3,1.9c0,0.5,0.1,0.8,0.3,1.1S135.9,148.8,136.2,148.8z"/>
		<path id="XMLID_617_" class="st1" d="M145.6,142.5c0.5,0,0.8,0.1,1.1,0.4c0.3,0.3,0.4,0.7,0.5,1.1h0.1c0.7-1,1.5-1.5,2.4-1.5
			c0.5,0,1,0.1,1.3,0.4s0.4,0.7,0.4,1.3c0,0.4,0,0.8-0.1,1.1l-0.9,4.2h-1.2l0.9-4.4c0.1-0.4,0.1-0.7,0.1-0.9c0-0.3-0.1-0.5-0.2-0.6
			s-0.4-0.2-0.7-0.2c-0.3,0-0.7,0.1-1,0.4s-0.6,0.6-0.9,1c-0.3,0.5-0.4,1-0.6,1.6l-0.7,3.1h-1.1l0.9-4.4c0.1-0.4,0.1-0.7,0.1-0.9
			c0-0.6-0.3-0.9-0.8-0.9c-0.3,0-0.7,0.1-1,0.4s-0.6,0.6-0.9,1.1s-0.4,1-0.6,1.7l-0.6,3h-1.1l1.5-7h0.9l-0.1,1.3h0.1
			c0.3-0.4,0.5-0.7,0.7-0.8c0.2-0.2,0.4-0.3,0.7-0.4C145.1,142.5,145.3,142.5,145.6,142.5z"/>
		<path id="XMLID_619_" class="st1" d="M153.1,149.1c0-0.3,0.1-0.6,0.3-0.8c0.2-0.2,0.4-0.3,0.7-0.3c0.2,0,0.3,0.1,0.5,0.2
			s0.2,0.3,0.2,0.5c0,0.3-0.1,0.6-0.3,0.8c-0.2,0.2-0.4,0.3-0.7,0.3c-0.2,0-0.4-0.1-0.5-0.2C153.1,149.5,153.1,149.3,153.1,149.1z
			 M153.7,147c0.1-0.6,0.3-1,0.5-1.4c0.2-0.4,0.6-0.7,1-1.1c0.5-0.4,0.8-0.7,1-0.9c0.2-0.2,0.3-0.4,0.4-0.6c0.1-0.2,0.1-0.4,0.1-0.7
			c0-0.4-0.1-0.7-0.3-0.9c-0.2-0.2-0.5-0.3-0.9-0.3c-0.3,0-0.7,0.1-1,0.2c-0.3,0.1-0.6,0.2-0.9,0.4l-0.4-0.9
			c0.4-0.2,0.8-0.4,1.2-0.5s0.8-0.2,1.2-0.2c0.7,0,1.3,0.2,1.7,0.5s0.6,0.9,0.6,1.5c0,0.5-0.1,1-0.4,1.4s-0.8,0.9-1.5,1.4
			c-0.5,0.4-0.9,0.7-1.1,0.9c-0.2,0.2-0.3,0.6-0.4,1H153.7z"/>
	</g>
	<rect x="45.3" y="156.9" class="st0" width="215.9" height="23.3"/>
</g>
<circle id="XMLID_20_" class="st2" cx="227.7" cy="175.6" r="32.3"/>
<g id="XMLID_14_">
	<path id="XMLID_16_" class="st3" d="M222.2,183.8v-1.4c0-2.1,0.3-3.8,1-5.1c0.7-1.3,1.8-2.6,3.5-4c1.9-1.6,3.1-2.7,3.7-3.4
		c0.6-0.7,1-1.4,1.3-2.1c0.2-0.7,0.4-1.5,0.4-2.4c0-1.7-0.6-3-1.7-4c-1.1-0.9-2.7-1.4-4.8-1.4c-1.4,0-2.8,0.2-4.1,0.5
		c-1.3,0.3-2.8,0.9-4.5,1.7l-1.6-3.7c3.3-1.8,6.8-2.6,10.5-2.6c3.3,0,5.9,0.8,7.8,2.5c1.9,1.6,2.8,3.9,2.8,6.9
		c0,1.3-0.2,2.4-0.5,3.4c-0.3,1-0.9,1.9-1.6,2.8s-2.1,2.2-4.2,4c-1.7,1.5-2.9,2.7-3.4,3.7c-0.6,1-0.8,2.2-0.8,3.8v0.9H222.2z
		 M221,191.7c0-2.4,1.1-3.6,3.3-3.6c1,0,1.8,0.3,2.4,0.9c0.6,0.6,0.9,1.5,0.9,2.7c0,1.2-0.3,2.1-0.9,2.7c-0.6,0.6-1.4,1-2.4,1
		c-1,0-1.8-0.3-2.4-0.9C221.3,193.9,221,193,221,191.7z"/>
</g>
</svg>
