<?xml version="1.0" encoding="utf-8"?>
<!-- Generator: Adobe Illustrator 19.0.0, SVG Export Plug-In . SVG Version: 6.00 Build 0)  -->
<svg version="1.1" id="Layer_1" xmlns="http://www.w3.org/2000/svg" xmlns:xlink="http://www.w3.org/1999/xlink" x="0px" y="0px"
	 viewBox="0 0 575 261.4" style="enable-background:new 0 0 575 261.4;" xml:space="preserve">
<style type="text/css">
	.st0{fill:#FFFFFF;stroke:#F2673A;stroke-width:3;stroke-miterlimit:10;}
	.st1{fill:#FFFFFF;stroke:#F2673A;stroke-width:2;stroke-miterlimit:10;}
	.st2{fill:#FFFFFF;stroke:#F2673A;stroke-miterlimit:10;}
	.st3{fill:none;stroke:#F2673A;stroke-width:2;stroke-linecap:round;stroke-linejoin:round;stroke-miterlimit:10;}
	.st4{fill:#FFFFFF;stroke:#F2673A;stroke-width:1.8254;stroke-linecap:round;stroke-linejoin:round;stroke-miterlimit:10;}
	.st5{fill:#F2673A;}
	.st6{fill:none;stroke:#F2673A;stroke-width:1.9267;stroke-miterlimit:10;}
	.st7{fill:none;stroke:#F2673A;stroke-width:1.0536;stroke-miterlimit:10;}
	.st8{fill:#49C2C6;}
	.st9{fill:#FFFFFF;}
	.st10{fill:#EDEDED;}
	.st11{fill:#C9C7C8;}
</style>
<g>
	<path id="XMLID_30_" class="st0" d="M28.6,43.3l0.3,3v117.8l100-1.9v-115v0.2l-0.2-3.6c0-23.4-22.3-42.3-50-42.3
		C51,1.5,28.6,20,28.6,43.3"/>
	<path id="XMLID_29_" class="st1" d="M40.4,94.6L40.4,94.6c-7.4,0-13-5.1-13-12.5v-1.1c0-7.4,5.6-14.4,13-14.4h0"/>
	<path id="XMLID_28_" class="st1" d="M131.4,76.6c0-5-4-9-9-9h-9.1c-5,0-9,4-9,9v10.1c0,5,4,9,9,9h9.1c5,0,9-4,9-9V76.6z"/>
	<polyline id="XMLID_27_" class="st2" points="62.9,113.6 62.9,145.1 93.9,145.1 93.9,113.6 	"/>
	<path id="XMLID_26_" class="st3" d="M78,124c-4.8-0.5-33.6-3.6-35.6-30.2V66.6v-1h14V40.7l10,24.9h62"/>
	<path class="st4" d="M114.3,65.2l0.8,28.6c-3.2,26.6-32.6,29.5-37.4,29.9c0,0-18.6-0.4-29.1-13.4"/>
	<path id="XMLID_22_" class="st5" d="M64.4,81.5c0,1.9-1.6,3.5-3.5,3.5l0,0c-1.9,0-3.5-1.6-3.5-3.5v-5c0-1.9,1.6-3.5,3.5-3.5l0,0
		c1.9,0,3.5,1.6,3.5,3.5V81.5z"/>
	<path id="XMLID_20_" class="st5" d="M101.4,81.5c0,1.9-1.6,3.5-3.5,3.5l0,0c-1.9,0-3.5-1.6-3.5-3.5v-5c0-1.9,1.6-3.5,3.5-3.5l0,0
		c1.9,0,3.5,1.6,3.5,3.5V81.5z"/>
	<path id="XMLID_18_" class="st1" d="M63.8,59.6h-7.1c-0.4,0-0.8-0.3-0.8-0.5l0,0c0-0.2,0.3-0.5,0.8-0.5h7.1c0.4,0,0.8,0.3,0.8,0.5
		l0,0C64.6,59.4,64.3,59.6,63.8,59.6z"/>
	<path id="XMLID_17_" class="st5" d="M98.4,131.6H80.6h-5.2H58.2c-32.9,8-36.4,38-36.4,38h53.6h5.2h54.1
		C134.8,169.6,131.3,139.6,98.4,131.6z"/>
	<path id="XMLID_16_" class="st1" d="M100.9,59.6h-7.1c-0.4,0-0.8,0-0.8,0l0,0c0,0,0.3,0,0.8,0H100.9c0.4,0,0.8,0,0.8,0l0,0
		C101.7,59.6,101.3,59.6,100.9,59.6z"/>
	<polygon id="XMLID_14_" class="st1" points="80.1,73 73.1,93.6 87.4,93.6 	"/>
	<path class="st6" d="M94,89.4c0,7.7-6.2,13.9-13.7,13.9c-7.6,0-13.7-6.2-13.7-13.9"/>
	<path class="st7" d="M100,75.3c0,0,1.5,3.2,4.6,0"/>
	<path class="st7" d="M54.4,75.3c0,0,1.5,3.2,4.6,0"/>
	<rect id="XMLID_13_" x="22.4" y="169.6" class="st5" width="113" height="91"/>
</g>
<path class="st8" d="M550,48H208.3c-13.8,0-25,11.2-25,25v102.6l-36.8,51.6h61.7H228h322c13.8,0,25-11.2,25-25V72.9
	C575,59.1,563.8,48,550,48z"/>
<g id="XMLID_31_">
	<path id="XMLID_34_" class="st9" d="M251.1,87c0,2.2-0.8,4-2.3,5.2c-1.5,1.2-3.7,1.8-6.5,1.8h-2.5v8.6h-2.8v-22h5.8
		C248.4,80.5,251.1,82.7,251.1,87z M239.8,91.6h2.2c2.2,0,3.8-0.4,4.8-1.1c1-0.7,1.5-1.8,1.5-3.4c0-1.4-0.5-2.5-1.4-3.2
		c-0.9-0.7-2.3-1.1-4.3-1.1h-2.8V91.6z"/>
	<path id="XMLID_39_" class="st9" d="M262.4,102.8c-2.5,0-4.4-0.8-5.8-2.3c-1.4-1.5-2.1-3.6-2.1-6.2c0-2.6,0.7-4.8,2-6.3
		c1.3-1.6,3.1-2.4,5.3-2.4c2.1,0,3.7,0.7,5,2c1.2,1.3,1.9,3.2,1.9,5.4v1.6h-11.3c0,1.9,0.5,3.3,1.4,4.3c0.9,1,2.2,1.5,3.8,1.5
		c0.9,0,1.7-0.1,2.5-0.2c0.8-0.2,1.7-0.5,2.8-0.9v2.4c-0.9,0.4-1.8,0.7-2.6,0.8C264.4,102.8,263.5,102.8,262.4,102.8z M261.7,87.9
		c-1.3,0-2.3,0.4-3.1,1.2c-0.8,0.8-1.2,2-1.3,3.5h8.4c0-1.5-0.4-2.7-1.1-3.5C263.9,88.3,262.9,87.9,261.7,87.9z"/>
	<path id="XMLID_42_" class="st9" d="M293.7,102.5V91.9c0-2.6-1.1-3.9-3.4-3.9c-1.5,0-2.7,0.4-3.4,1.3c-0.7,0.9-1.1,2.3-1.1,4.1v9.1
		h-2.7V91.9c0-1.3-0.3-2.3-0.8-2.9c-0.5-0.7-1.4-1-2.6-1c-1.5,0-2.6,0.5-3.3,1.4c-0.7,0.9-1.1,2.5-1.1,4.6v8.6h-2.7V86h2.2l0.4,2.3
		h0.2c0.5-0.8,1.1-1.4,2-1.9c0.9-0.5,1.8-0.7,2.9-0.7c2.6,0,4.3,0.9,5.1,2.8h0.2c0.5-0.9,1.3-1.6,2.2-2c0.9-0.5,2-0.7,3.1-0.7
		c1.9,0,3.3,0.5,4.2,1.4c0.9,1,1.4,2.5,1.4,4.6v10.8H293.7z"/>
	<path id="XMLID_44_" class="st9" d="M309.4,85.7c2.2,0,3.9,0.8,5,2.3c1.2,1.5,1.8,3.6,1.8,6.3c0,2.7-0.6,4.8-1.8,6.3
		c-1.2,1.5-2.9,2.2-5,2.2c-1.1,0-2.1-0.2-3-0.6s-1.6-1-2.1-1.8H304c-0.3,1.2-0.5,1.9-0.6,2.1h-1.9V79.1h2.7v5.7
		c0,1.1-0.1,2.3-0.2,3.4h0.2C305.4,86.6,307.1,85.7,309.4,85.7z M308.9,88c-1.7,0-2.9,0.5-3.6,1.4c-0.7,0.9-1.1,2.5-1.1,4.8v0.1
		c0,2.3,0.4,3.9,1.1,4.8c0.7,1,1.9,1.5,3.6,1.5c1.5,0,2.6-0.5,3.3-1.6c0.7-1.1,1.1-2.7,1.1-4.7c0-2.1-0.4-3.7-1.1-4.7
		C311.6,88.5,310.4,88,308.9,88z"/>
	<path id="XMLID_47_" class="st9" d="M330.7,102.5l-0.5-2.3h-0.1c-0.8,1-1.6,1.7-2.5,2.1c-0.8,0.4-1.8,0.5-3.1,0.5
		c-1.6,0-2.9-0.4-3.8-1.3c-0.9-0.9-1.4-2.1-1.4-3.6c0-3.4,2.6-5.1,7.9-5.3l2.8-0.1v-1c0-1.3-0.3-2.2-0.8-2.8
		c-0.5-0.6-1.4-0.9-2.6-0.9c-0.9,0-1.7,0.1-2.5,0.4c-0.8,0.3-1.5,0.6-2.2,0.9l-0.8-2c0.8-0.4,1.7-0.8,2.7-1c1-0.3,2-0.4,2.9-0.4
		c2,0,3.5,0.4,4.5,1.3c1,0.9,1.5,2.3,1.5,4.2v11.3H330.7z M325.1,100.7c1.5,0,2.7-0.4,3.6-1.2c0.9-0.8,1.3-2,1.3-3.5v-1.5l-2.4,0.1
		c-1.9,0.1-3.3,0.4-4.1,0.9c-0.9,0.5-1.3,1.4-1.3,2.5c0,0.9,0.3,1.5,0.8,2C323.4,100.4,324.2,100.7,325.1,100.7z"/>
	<path id="XMLID_50_" class="st9" d="M335.2,86h2.9l3.6,9.4c0.8,2,1.2,3.5,1.4,4.5h0.1c0.1-0.4,0.3-1.1,0.6-2.1
		c0.3-1,0.6-1.8,0.8-2.4L348,86h2.9l-7.1,18.8c-0.7,1.8-1.5,3.1-2.5,3.9c-1,0.8-2.1,1.2-3.5,1.2c-0.8,0-1.5-0.1-2.2-0.3v-2.2
		c0.5,0.1,1.1,0.2,1.8,0.2c0.9,0,1.6-0.2,2.2-0.7c0.6-0.5,1.1-1.2,1.5-2.2l0.9-2.2L335.2,86z"/>
	<path id="XMLID_52_" class="st9" d="M363.7,102.5l-0.5-2.3h-0.1c-0.8,1-1.6,1.7-2.5,2.1c-0.8,0.4-1.8,0.5-3.1,0.5
		c-1.6,0-2.9-0.4-3.8-1.3c-0.9-0.9-1.4-2.1-1.4-3.6c0-3.4,2.6-5.1,7.9-5.3l2.8-0.1v-1c0-1.3-0.3-2.2-0.8-2.8
		c-0.5-0.6-1.4-0.9-2.6-0.9c-0.9,0-1.7,0.1-2.5,0.4c-0.8,0.3-1.5,0.6-2.2,0.9l-0.8-2c0.8-0.4,1.7-0.8,2.7-1c1-0.3,2-0.4,2.9-0.4
		c2,0,3.5,0.4,4.5,1.3c1,0.9,1.5,2.3,1.5,4.2v11.3H363.7z M358.1,100.7c1.5,0,2.7-0.4,3.6-1.2c0.9-0.8,1.3-2,1.3-3.5v-1.5l-2.4,0.1
		c-1.9,0.1-3.3,0.4-4.1,0.9c-0.9,0.5-1.3,1.4-1.3,2.5c0,0.9,0.3,1.5,0.8,2C356.5,100.4,357.2,100.7,358.1,100.7z"/>
	<path id="XMLID_56_" class="st9" d="M378.5,85.7c0.7,0,1.4,0.1,1.9,0.2l-0.3,2.5c-0.6-0.1-1.2-0.2-1.8-0.2c-0.9,0-1.7,0.2-2.4,0.7
		c-0.7,0.5-1.3,1.1-1.8,2c-0.4,0.8-0.6,1.8-0.6,2.8v8.8h-2.7V86h2.2l0.3,3h0.1c0.6-1.1,1.4-1.9,2.2-2.5
		C376.6,86,377.5,85.7,378.5,85.7z"/>
	<path id="XMLID_58_" class="st9" d="M393.5,102.5l-0.5-2.3h-0.1c-0.8,1-1.6,1.7-2.5,2.1c-0.8,0.4-1.8,0.5-3.1,0.5
		c-1.6,0-2.9-0.4-3.8-1.3c-0.9-0.9-1.4-2.1-1.4-3.6c0-3.4,2.6-5.1,7.9-5.3l2.8-0.1v-1c0-1.3-0.3-2.2-0.8-2.8
		c-0.5-0.6-1.4-0.9-2.6-0.9c-0.9,0-1.7,0.1-2.5,0.4c-0.8,0.3-1.5,0.6-2.2,0.9l-0.8-2c0.8-0.4,1.7-0.8,2.7-1c1-0.3,2-0.4,2.9-0.4
		c2,0,3.5,0.4,4.5,1.3c1,0.9,1.5,2.3,1.5,4.2v11.3H393.5z M387.9,100.7c1.5,0,2.7-0.4,3.6-1.2c0.9-0.8,1.3-2,1.3-3.5v-1.5l-2.4,0.1
		c-1.9,0.1-3.3,0.4-4.1,0.9c-0.9,0.5-1.3,1.4-1.3,2.5c0,0.9,0.3,1.5,0.8,2C386.2,100.4,386.9,100.7,387.9,100.7z"/>
	<path id="XMLID_61_" class="st9" d="M411.8,102.5V92c0-1.3-0.3-2.3-0.9-3c-0.6-0.7-1.5-1-2.8-1c-1.7,0-2.9,0.5-3.7,1.4
		c-0.8,0.9-1.2,2.5-1.2,4.6v8.6h-2.7V86h2.2l0.4,2.3h0.2c0.5-0.8,1.2-1.4,2.2-1.9c0.9-0.4,1.9-0.7,3.1-0.7c2,0,3.5,0.5,4.5,1.5
		c1,1,1.5,2.5,1.5,4.6v10.8H411.8z"/>
	<path id="XMLID_63_" class="st9" d="M440.5,96.7c0,1.9-0.7,3.4-2.1,4.5c-1.4,1.1-3.3,1.7-5.8,1.7c-2.6,0-4.6-0.3-6.1-1v-2.6
		c0.9,0.4,2,0.7,3.1,0.9c1.1,0.2,2.1,0.3,3.1,0.3c1.6,0,2.9-0.3,3.7-0.9c0.8-0.6,1.2-1.5,1.2-2.6c0-0.7-0.2-1.3-0.5-1.8
		c-0.3-0.5-0.8-0.9-1.5-1.3c-0.7-0.4-1.8-0.9-3.2-1.4c-2-0.7-3.5-1.6-4.4-2.6c-0.9-1-1.3-2.3-1.3-3.9c0-1.7,0.6-3.1,1.9-4.1
		c1.3-1,3-1.5,5.1-1.5c2.2,0,4.2,0.4,6.1,1.2l-0.9,2.4c-1.9-0.8-3.6-1.2-5.3-1.2c-1.3,0-2.3,0.3-3.1,0.8c-0.7,0.6-1.1,1.4-1.1,2.4
		c0,0.7,0.1,1.3,0.4,1.8c0.3,0.5,0.7,0.9,1.4,1.3c0.6,0.4,1.6,0.8,3,1.3c1.6,0.6,2.9,1.2,3.7,1.8c0.8,0.6,1.4,1.2,1.8,2
		C440.3,94.8,440.5,95.6,440.5,96.7z"/>
	<path id="XMLID_65_" class="st9" d="M451.6,102.8c-2.5,0-4.4-0.8-5.8-2.3c-1.4-1.5-2.1-3.6-2.1-6.2c0-2.6,0.7-4.8,2-6.3
		c1.3-1.6,3.1-2.4,5.3-2.4c2.1,0,3.7,0.7,5,2c1.2,1.3,1.9,3.2,1.9,5.4v1.6h-11.3c0,1.9,0.5,3.3,1.4,4.3c0.9,1,2.2,1.5,3.8,1.5
		c0.9,0,1.7-0.1,2.5-0.2c0.8-0.2,1.7-0.5,2.8-0.9v2.4c-0.9,0.4-1.8,0.7-2.6,0.8C453.6,102.8,452.7,102.8,451.6,102.8z M450.9,87.9
		c-1.3,0-2.3,0.4-3.1,1.2c-0.8,0.8-1.2,2-1.3,3.5h8.4c0-1.5-0.4-2.7-1.1-3.5C453.1,88.3,452.2,87.9,450.9,87.9z"/>
	<path id="XMLID_68_" class="st9" d="M468.6,102.8c-2.4,0-4.2-0.7-5.6-2.2c-1.3-1.5-2-3.6-2-6.3c0-2.8,0.7-4.9,2-6.4
		c1.3-1.5,3.2-2.3,5.7-2.3c0.8,0,1.6,0.1,2.4,0.2c0.8,0.2,1.4,0.4,2,0.6l-0.8,2.3c-1.4-0.5-2.6-0.8-3.6-0.8c-1.7,0-2.9,0.5-3.7,1.6
		c-0.8,1-1.2,2.6-1.2,4.7c0,2,0.4,3.5,1.2,4.6c0.8,1.1,2,1.6,3.5,1.6c1.5,0,2.9-0.3,4.3-1v2.4C471.7,102.6,470.2,102.8,468.6,102.8z
		"/>
	<path id="XMLID_70_" class="st9" d="M486.9,102.5l-0.5-2.3h-0.1c-0.8,1-1.6,1.7-2.5,2.1c-0.8,0.4-1.8,0.5-3.1,0.5
		c-1.6,0-2.9-0.4-3.8-1.3c-0.9-0.9-1.4-2.1-1.4-3.6c0-3.4,2.6-5.1,7.9-5.3l2.8-0.1v-1c0-1.3-0.3-2.2-0.8-2.8
		c-0.5-0.6-1.4-0.9-2.6-0.9c-0.9,0-1.7,0.1-2.5,0.4c-0.8,0.3-1.5,0.6-2.2,0.9l-0.8-2c0.8-0.4,1.7-0.8,2.7-1c1-0.3,2-0.4,2.9-0.4
		c2,0,3.5,0.4,4.5,1.3c1,0.9,1.5,2.3,1.5,4.2v11.3H486.9z M481.3,100.7c1.5,0,2.7-0.4,3.6-1.2c0.9-0.8,1.3-2,1.3-3.5v-1.5l-2.4,0.1
		c-1.9,0.1-3.3,0.4-4.1,0.9c-0.9,0.5-1.3,1.4-1.3,2.5c0,0.9,0.3,1.5,0.8,2C479.7,100.4,480.4,100.7,481.3,100.7z"/>
	<path id="XMLID_73_" class="st9" d="M501.7,85.7c0.7,0,1.4,0.1,1.9,0.2l-0.3,2.5c-0.6-0.1-1.2-0.2-1.8-0.2c-0.9,0-1.7,0.2-2.4,0.7
		c-0.7,0.5-1.3,1.1-1.8,2c-0.4,0.8-0.6,1.8-0.6,2.8v8.8H494V86h2.2l0.3,3h0.1c0.6-1.1,1.4-1.9,2.2-2.5
		C499.8,86,500.7,85.7,501.7,85.7z"/>
	<path id="XMLID_75_" class="st9" d="M516.7,102.5l-0.5-2.3H516c-0.8,1-1.6,1.7-2.5,2.1c-0.8,0.4-1.8,0.5-3.1,0.5
		c-1.6,0-2.9-0.4-3.8-1.3c-0.9-0.9-1.4-2.1-1.4-3.6c0-3.4,2.6-5.1,7.9-5.3l2.8-0.1v-1c0-1.3-0.3-2.2-0.8-2.8
		c-0.5-0.6-1.4-0.9-2.6-0.9c-0.9,0-1.7,0.1-2.5,0.4c-0.8,0.3-1.5,0.6-2.2,0.9l-0.8-2c0.8-0.4,1.7-0.8,2.7-1c1-0.3,2-0.4,2.9-0.4
		c2,0,3.5,0.4,4.5,1.3c1,0.9,1.5,2.3,1.5,4.2v11.3H516.7z M511.1,100.7c1.5,0,2.7-0.4,3.6-1.2c0.9-0.8,1.3-2,1.3-3.5v-1.5l-2.4,0.1
		c-1.9,0.1-3.3,0.4-4.1,0.9c-0.9,0.5-1.3,1.4-1.3,2.5c0,0.9,0.3,1.5,0.8,2C509.4,100.4,510.1,100.7,511.1,100.7z"/>
	<path id="XMLID_78_" class="st9" d="M256.3,123.2c0,3.5-0.9,6.3-2.7,8.3c-1.8,2-4.3,3-7.5,3c-3.2,0-5.7-1-7.5-3
		c-1.8-2-2.7-4.8-2.7-8.4c0-3.6,0.9-6.4,2.6-8.3c1.8-2,4.3-3,7.6-3c3.2,0,5.7,1,7.5,3C255.4,116.9,256.3,119.7,256.3,123.2z
		 M238.9,123.2c0,2.9,0.6,5.1,1.9,6.7c1.2,1.5,3,2.3,5.4,2.3c2.4,0,4.1-0.8,5.4-2.3c1.2-1.5,1.8-3.7,1.8-6.7c0-2.9-0.6-5.2-1.8-6.6
		c-1.2-1.5-3-2.2-5.4-2.2c-2.4,0-4.2,0.8-5.4,2.3C239.5,118.1,238.9,120.3,238.9,123.2z"/>
	<path id="XMLID_91_" class="st9" d="M272,134.3v-10.6c0-1.3-0.3-2.3-0.9-3c-0.6-0.7-1.5-1-2.8-1c-1.7,0-2.9,0.5-3.7,1.4
		c-0.8,0.9-1.2,2.5-1.2,4.6v8.6h-2.7v-16.5h2.2l0.4,2.3h0.2c0.5-0.8,1.2-1.4,2.2-1.9c0.9-0.4,1.9-0.7,3.1-0.7c2,0,3.5,0.5,4.5,1.5
		c1,1,1.5,2.5,1.5,4.6v10.8H272z"/>
	<path id="XMLID_96_" class="st9" d="M282.5,134.3h-2.7v-23.4h2.7V134.3z"/>
	<path id="XMLID_98_" class="st9" d="M287.5,113.3c0-0.6,0.2-1,0.5-1.3c0.3-0.3,0.7-0.4,1.1-0.4c0.4,0,0.8,0.1,1.1,0.4
		c0.3,0.3,0.5,0.7,0.5,1.3c0,0.6-0.2,1-0.5,1.3c-0.3,0.3-0.7,0.4-1.1,0.4c-0.5,0-0.8-0.1-1.1-0.4
		C287.7,114.3,287.5,113.9,287.5,113.3z M290.5,134.3h-2.7v-16.5h2.7V134.3z"/>
	<path id="XMLID_101_" class="st9" d="M307,134.3v-10.6c0-1.3-0.3-2.3-0.9-3c-0.6-0.7-1.5-1-2.8-1c-1.7,0-2.9,0.5-3.7,1.4
		c-0.8,0.9-1.2,2.5-1.2,4.6v8.6h-2.7v-16.5h2.2l0.4,2.3h0.2c0.5-0.8,1.2-1.4,2.2-1.9c0.9-0.4,1.9-0.7,3.1-0.7c2,0,3.5,0.5,4.5,1.5
		c1,1,1.5,2.5,1.5,4.6v10.8H307z"/>
	<path id="XMLID_103_" class="st9" d="M321.8,134.6c-2.5,0-4.4-0.8-5.8-2.3s-2.1-3.6-2.1-6.2c0-2.6,0.7-4.8,2-6.3
		c1.3-1.6,3.1-2.4,5.3-2.4c2.1,0,3.7,0.7,5,2c1.2,1.3,1.9,3.2,1.9,5.4v1.6h-11.3c0,1.9,0.5,3.3,1.4,4.3c0.9,1,2.2,1.5,3.8,1.5
		c0.9,0,1.7-0.1,2.5-0.2c0.8-0.2,1.7-0.5,2.8-0.9v2.4c-0.9,0.4-1.8,0.7-2.6,0.8C323.8,134.5,322.9,134.6,321.8,134.6z M321.1,119.6
		c-1.3,0-2.3,0.4-3.1,1.2c-0.8,0.8-1.2,2-1.3,3.5h8.4c0-1.5-0.4-2.7-1.1-3.5C323.4,120,322.4,119.6,321.1,119.6z"/>
	<path id="XMLID_106_" class="st9" d="M346,134.6c-2.1,0-3.8-0.7-5-2.2c-1.2-1.5-1.8-3.6-1.8-6.3c0-2.7,0.6-4.8,1.8-6.3
		c1.2-1.5,2.9-2.3,5-2.3c2.2,0,3.9,0.8,5.1,2.4h0.2c0-0.2-0.1-0.6-0.1-1.2c-0.1-0.6-0.1-1-0.1-1.2v-6.6h2.7v23.4h-2.2l-0.4-2.2h-0.1
		C350,133.7,348.3,134.6,346,134.6z M346.5,132.3c1.6,0,2.8-0.4,3.6-1.3c0.8-0.9,1.1-2.4,1.1-4.4v-0.5c0-2.3-0.4-3.9-1.2-4.9
		c-0.8-1-2-1.5-3.6-1.5c-1.4,0-2.5,0.6-3.2,1.7c-0.8,1.1-1.1,2.7-1.1,4.8c0,2,0.4,3.6,1.1,4.7C343.9,131.8,345,132.3,346.5,132.3z"
		/>
	<path id="XMLID_109_" class="st9" d="M369.3,134.3l-0.5-2.3h-0.1c-0.8,1-1.6,1.7-2.5,2.1c-0.8,0.4-1.8,0.5-3.1,0.5
		c-1.6,0-2.9-0.4-3.8-1.3c-0.9-0.9-1.4-2.1-1.4-3.6c0-3.4,2.6-5.1,7.9-5.3l2.8-0.1v-1c0-1.3-0.3-2.2-0.8-2.8s-1.4-0.9-2.6-0.9
		c-0.9,0-1.7,0.1-2.5,0.4c-0.8,0.3-1.5,0.6-2.2,0.9l-0.8-2c0.8-0.4,1.7-0.8,2.7-1c1-0.3,2-0.4,2.9-0.4c2,0,3.5,0.4,4.5,1.3
		c1,0.9,1.5,2.3,1.5,4.2v11.3H369.3z M363.7,132.4c1.5,0,2.7-0.4,3.6-1.2c0.9-0.8,1.3-2,1.3-3.5v-1.5l-2.4,0.1
		c-1.9,0.1-3.3,0.4-4.1,0.9c-0.9,0.5-1.3,1.4-1.3,2.5c0,0.9,0.3,1.5,0.8,2C362.1,132.1,362.8,132.4,363.7,132.4z"/>
	<path id="XMLID_112_" class="st9" d="M387.7,134.3v-10.6c0-1.3-0.3-2.3-0.9-3c-0.6-0.7-1.5-1-2.8-1c-1.7,0-2.9,0.5-3.7,1.4
		c-0.8,0.9-1.2,2.5-1.2,4.6v8.6h-2.7v-16.5h2.2l0.4,2.3h0.2c0.5-0.8,1.2-1.4,2.2-1.9c0.9-0.4,1.9-0.7,3.1-0.7c2,0,3.5,0.5,4.5,1.5
		c1,1,1.5,2.5,1.5,4.6v10.8H387.7z"/>
	<path id="XMLID_114_" class="st9" d="M418,118.7c0,2.2-0.8,4-2.3,5.2c-1.5,1.2-3.7,1.8-6.5,1.8h-2.5v8.6h-2.8v-22h5.8
		C415.2,112.2,418,114.4,418,118.7z M406.6,123.3h2.2c2.2,0,3.8-0.4,4.8-1.1c1-0.7,1.5-1.8,1.5-3.4c0-1.4-0.5-2.5-1.4-3.2
		c-0.9-0.7-2.3-1.1-4.3-1.1h-2.8V123.3z"/>
	<path id="XMLID_117_" class="st9" d="M432.3,134.3l-0.5-2.3h-0.1c-0.8,1-1.6,1.7-2.5,2.1c-0.8,0.4-1.8,0.5-3.1,0.5
		c-1.6,0-2.9-0.4-3.8-1.3c-0.9-0.9-1.4-2.1-1.4-3.6c0-3.4,2.6-5.1,7.9-5.3l2.8-0.1v-1c0-1.3-0.3-2.2-0.8-2.8s-1.4-0.9-2.6-0.9
		c-0.9,0-1.7,0.1-2.5,0.4c-0.8,0.3-1.5,0.6-2.2,0.9l-0.8-2c0.8-0.4,1.7-0.8,2.7-1c1-0.3,2-0.4,2.9-0.4c2,0,3.5,0.4,4.5,1.3
		c1,0.9,1.5,2.3,1.5,4.2v11.3H432.3z M426.8,132.4c1.5,0,2.7-0.4,3.6-1.2c0.9-0.8,1.3-2,1.3-3.5v-1.5l-2.4,0.1
		c-1.9,0.1-3.3,0.4-4.1,0.9c-0.9,0.5-1.3,1.4-1.3,2.5c0,0.9,0.3,1.5,0.8,2C425.1,132.1,425.8,132.4,426.8,132.4z"/>
	<path id="XMLID_120_" class="st9" d="M450.7,134.3v-10.6c0-1.3-0.3-2.3-0.9-3c-0.6-0.7-1.5-1-2.8-1c-1.7,0-2.9,0.5-3.7,1.4
		c-0.8,0.9-1.2,2.5-1.2,4.6v8.6h-2.7v-16.5h2.2l0.4,2.3h0.2c0.5-0.8,1.2-1.4,2.2-1.9c0.9-0.4,1.9-0.7,3.1-0.7c2,0,3.5,0.5,4.5,1.5
		c1,1,1.5,2.5,1.5,4.6v10.8H450.7z"/>
	<path id="XMLID_122_" class="st9" d="M464.4,134.6c-2.1,0-3.8-0.7-5-2.2c-1.2-1.5-1.8-3.6-1.8-6.3c0-2.7,0.6-4.8,1.8-6.3
		c1.2-1.5,2.9-2.3,5-2.3c2.2,0,3.9,0.8,5.1,2.4h0.2c0-0.2-0.1-0.6-0.1-1.2c0-0.6-0.1-1-0.1-1.2v-6.6h2.7v23.4H470l-0.4-2.2h-0.1
		C468.3,133.7,466.6,134.6,464.4,134.6z M464.8,132.3c1.6,0,2.8-0.4,3.6-1.3c0.8-0.9,1.1-2.4,1.1-4.4v-0.5c0-2.3-0.4-3.9-1.2-4.9
		c-0.8-1-2-1.5-3.6-1.5c-1.4,0-2.5,0.6-3.2,1.7c-0.8,1.1-1.1,2.7-1.1,4.8c0,2,0.4,3.6,1.1,4.7C462.3,131.8,463.4,132.3,464.8,132.3z
		"/>
	<path id="XMLID_125_" class="st9" d="M480,117.7v10.6c0,1.3,0.3,2.3,0.9,3c0.6,0.6,1.5,1,2.8,1c1.7,0,2.9-0.5,3.7-1.4
		c0.8-0.9,1.2-2.5,1.2-4.6v-8.6h2.7v16.5h-2.2l-0.4-2.2h-0.1c-0.5,0.8-1.2,1.4-2.1,1.8c-0.9,0.4-2,0.6-3.1,0.6c-2,0-3.5-0.5-4.5-1.4
		c-1-1-1.5-2.5-1.5-4.6v-10.8H480z"/>
	<path id="XMLID_127_" class="st9" d="M506.7,134.3l-0.5-2.3h-0.1c-0.8,1-1.6,1.7-2.5,2.1c-0.8,0.4-1.8,0.5-3.1,0.5
		c-1.6,0-2.9-0.4-3.8-1.3c-0.9-0.9-1.4-2.1-1.4-3.6c0-3.4,2.6-5.1,7.9-5.3l2.8-0.1v-1c0-1.3-0.3-2.2-0.8-2.8s-1.4-0.9-2.6-0.9
		c-0.9,0-1.7,0.1-2.5,0.4c-0.8,0.3-1.5,0.6-2.2,0.9l-0.8-2c0.8-0.4,1.7-0.8,2.7-1c1-0.3,2-0.4,2.9-0.4c2,0,3.5,0.4,4.5,1.3
		c1,0.9,1.5,2.3,1.5,4.2v11.3H506.7z M501.1,132.4c1.5,0,2.7-0.4,3.6-1.2c0.9-0.8,1.3-2,1.3-3.5v-1.5l-2.4,0.1
		c-1.9,0.1-3.3,0.4-4.1,0.9c-0.9,0.5-1.3,1.4-1.3,2.5c0,0.9,0.3,1.5,0.8,2C499.4,132.1,500.2,132.4,501.1,132.4z"/>
	<path id="XMLID_130_" class="st9" d="M525.1,134.3v-10.6c0-1.3-0.3-2.3-0.9-3c-0.6-0.7-1.5-1-2.8-1c-1.7,0-2.9,0.5-3.7,1.4
		c-0.8,0.9-1.2,2.5-1.2,4.6v8.6h-2.7v-16.5h2.2l0.4,2.3h0.2c0.5-0.8,1.2-1.4,2.2-1.9c0.9-0.4,1.9-0.7,3.1-0.7c2,0,3.5,0.5,4.5,1.5
		c1,1,1.5,2.5,1.5,4.6v10.8H525.1z"/>
	<path id="XMLID_132_" class="st9" d="M242.5,166.3c-2.1,0-3.8-0.7-5-2.2c-1.2-1.5-1.8-3.6-1.8-6.3c0-2.7,0.6-4.8,1.8-6.3
		c1.2-1.5,2.9-2.3,5-2.3c2.2,0,3.9,0.8,5.1,2.4h0.2c0-0.2-0.1-0.6-0.1-1.2c-0.1-0.6-0.1-1-0.1-1.2v-6.6h2.7V166h-2.2l-0.4-2.2h-0.1
		C246.5,165.4,244.8,166.3,242.5,166.3z M243,164c1.6,0,2.8-0.4,3.6-1.3c0.8-0.9,1.1-2.4,1.1-4.4v-0.5c0-2.3-0.4-3.9-1.2-4.9
		c-0.8-1-2-1.5-3.6-1.5c-1.4,0-2.5,0.6-3.2,1.7c-0.8,1.1-1.1,2.7-1.1,4.8c0,2,0.4,3.6,1.1,4.7C240.5,163.5,241.5,164,243,164z"/>
	<path id="XMLID_135_" class="st9" d="M265.9,166l-0.5-2.3h-0.1c-0.8,1-1.6,1.7-2.5,2.1c-0.8,0.4-1.8,0.5-3.1,0.5
		c-1.6,0-2.9-0.4-3.8-1.3c-0.9-0.9-1.4-2.1-1.4-3.6c0-3.4,2.6-5.1,7.9-5.3l2.8-0.1v-1c0-1.3-0.3-2.2-0.8-2.8s-1.4-0.9-2.6-0.9
		c-0.9,0-1.7,0.1-2.5,0.4c-0.8,0.3-1.5,0.6-2.2,0.9l-0.8-2c0.8-0.4,1.7-0.8,2.7-1c1-0.3,2-0.4,2.9-0.4c2,0,3.5,0.4,4.5,1.3
		c1,0.9,1.5,2.3,1.5,4.2V166H265.9z M260.3,164.1c1.5,0,2.7-0.4,3.6-1.2c0.9-0.8,1.3-2,1.3-3.5v-1.5l-2.4,0.1
		c-1.9,0.1-3.3,0.4-4.1,0.9c-0.9,0.5-1.3,1.4-1.3,2.5c0,0.9,0.3,1.5,0.8,2C258.6,163.9,259.3,164.1,260.3,164.1z"/>
	<path id="XMLID_138_" class="st9" d="M275.7,166h-2.7v-23.4h2.7V166z"/>
	<path id="XMLID_140_" class="st9" d="M291.1,166l-0.5-2.3h-0.1c-0.8,1-1.6,1.7-2.5,2.1c-0.8,0.4-1.8,0.5-3.1,0.5
		c-1.6,0-2.9-0.4-3.8-1.3c-0.9-0.9-1.4-2.1-1.4-3.6c0-3.4,2.6-5.1,7.9-5.3l2.8-0.1v-1c0-1.3-0.3-2.2-0.8-2.8
		c-0.5-0.6-1.4-0.9-2.6-0.9c-0.9,0-1.7,0.1-2.5,0.4c-0.8,0.3-1.5,0.6-2.2,0.9l-0.8-2c0.8-0.4,1.7-0.8,2.7-1c1-0.3,2-0.4,2.9-0.4
		c2,0,3.5,0.4,4.5,1.3c1,0.9,1.5,2.3,1.5,4.2V166H291.1z M285.5,164.1c1.5,0,2.7-0.4,3.6-1.2c0.9-0.8,1.3-2,1.3-3.5v-1.5L288,158
		c-1.9,0.1-3.3,0.4-4.1,0.9c-0.9,0.5-1.3,1.4-1.3,2.5c0,0.9,0.3,1.5,0.8,2C283.8,163.9,284.6,164.1,285.5,164.1z"/>
	<path id="XMLID_143_" class="st9" d="M319.2,166v-10.6c0-2.6-1.1-3.9-3.4-3.9c-1.5,0-2.7,0.4-3.4,1.3c-0.7,0.9-1.1,2.3-1.1,4.1v9.1
		h-2.7v-10.6c0-1.3-0.3-2.3-0.8-2.9c-0.5-0.7-1.4-1-2.6-1c-1.5,0-2.6,0.5-3.3,1.4c-0.7,0.9-1.1,2.5-1.1,4.6v8.6h-2.7v-16.5h2.2
		l0.4,2.3h0.2c0.5-0.8,1.1-1.4,2-1.9c0.9-0.5,1.8-0.7,2.9-0.7c2.6,0,4.3,0.9,5.1,2.8h0.2c0.5-0.9,1.3-1.6,2.2-2
		c0.9-0.5,2-0.7,3.1-0.7c1.9,0,3.3,0.5,4.2,1.4c0.9,1,1.4,2.5,1.4,4.6V166H319.2z"/>
	<path id="XMLID_145_" class="st9" d="M345.1,166l-7.3-19.3h-0.1c0.2,1.6,0.2,3.6,0.2,5.9V166h-2.6v-22h4.1l6.8,18h0.1l6.9-18h4.1
		v22h-2.7v-13.5c0-1.5,0.1-3.4,0.2-5.7h-0.1l-7.3,19.3H345.1z"/>
	<path id="XMLID_147_" class="st9" d="M370,166.3c-2.5,0-4.4-0.8-5.8-2.3s-2.1-3.6-2.1-6.2c0-2.6,0.7-4.8,2-6.3
		c1.3-1.6,3.1-2.4,5.3-2.4c2.1,0,3.7,0.7,5,2c1.2,1.3,1.9,3.2,1.9,5.4v1.6h-11.3c0,1.9,0.5,3.3,1.4,4.3c0.9,1,2.2,1.5,3.8,1.5
		c0.9,0,1.7-0.1,2.5-0.2c0.8-0.2,1.7-0.5,2.8-0.9v2.4c-0.9,0.4-1.8,0.7-2.6,0.8C372.1,166.2,371.1,166.3,370,166.3z M369.3,151.4
		c-1.3,0-2.3,0.4-3.1,1.2c-0.8,0.8-1.2,2-1.3,3.5h8.4c0-1.5-0.4-2.7-1.1-3.5C371.6,151.8,370.6,151.4,369.3,151.4z"/>
	<path id="XMLID_150_" class="st9" d="M391.6,166v-10.6c0-1.3-0.3-2.3-0.9-3c-0.6-0.7-1.5-1-2.8-1c-1.7,0-2.9,0.5-3.7,1.4
		c-0.8,0.9-1.2,2.5-1.2,4.6v8.6h-2.7v-16.5h2.2l0.4,2.3h0.2c0.5-0.8,1.2-1.4,2.2-1.9c0.9-0.4,1.9-0.7,3.1-0.7c2,0,3.5,0.5,4.5,1.5
		c1,1,1.5,2.5,1.5,4.6V166H391.6z"/>
	<path id="XMLID_152_" class="st9" d="M410.5,165.8l0.1-2h-0.1c-1.1,1.7-2.8,2.5-5.1,2.5c-2.1,0-3.8-0.7-5-2.2
		c-1.2-1.5-1.8-3.6-1.8-6.3c0-2.7,0.6-4.8,1.8-6.3c1.2-1.5,2.9-2.3,5-2.3c2.2,0,4,0.8,5.2,2.5h0.2l0.4-2.2h2.2v16.8
		c0,2.4-0.6,4.1-1.8,5.3c-1.2,1.2-3.1,1.8-5.6,1.8c-2.4,0-4.4-0.4-5.9-1.1v-2.5c1.6,0.9,3.6,1.3,6.1,1.3c1.4,0,2.5-0.4,3.3-1.2
		c0.8-0.8,1.2-2,1.2-3.4V165.8z M405.7,164.1c1.7,0,2.9-0.4,3.6-1.3c0.8-0.9,1.1-2.3,1.1-4.3v-0.6c0-2.2-0.4-3.8-1.1-4.8
		c-0.8-1-2-1.5-3.7-1.5c-1.4,0-2.5,0.5-3.2,1.6c-0.8,1.1-1.1,2.7-1.1,4.7c0,2,0.4,3.6,1.1,4.7C403.2,163.5,404.3,164.1,405.7,164.1z
		"/>
	<path id="XMLID_155_" class="st9" d="M428.6,166l-0.5-2.3H428c-0.8,1-1.6,1.7-2.5,2.1c-0.8,0.4-1.8,0.5-3.1,0.5
		c-1.6,0-2.9-0.4-3.8-1.3c-0.9-0.9-1.4-2.1-1.4-3.6c0-3.4,2.6-5.1,7.9-5.3l2.8-0.1v-1c0-1.3-0.3-2.2-0.8-2.8s-1.4-0.9-2.6-0.9
		c-0.9,0-1.7,0.1-2.5,0.4c-0.8,0.3-1.5,0.6-2.2,0.9l-0.8-2c0.8-0.4,1.7-0.8,2.7-1c1-0.3,2-0.4,2.9-0.4c2,0,3.5,0.4,4.5,1.3
		c1,0.9,1.5,2.3,1.5,4.2V166H428.6z M423,164.1c1.5,0,2.7-0.4,3.6-1.2c0.9-0.8,1.3-2,1.3-3.5v-1.5l-2.4,0.1
		c-1.9,0.1-3.3,0.4-4.1,0.9c-0.9,0.5-1.3,1.4-1.3,2.5c0,0.9,0.3,1.5,0.8,2C421.3,163.9,422.1,164.1,423,164.1z"/>
	<path id="XMLID_158_" class="st9" d="M456.7,166v-10.6c0-2.6-1.1-3.9-3.4-3.9c-1.5,0-2.7,0.4-3.4,1.3c-0.7,0.9-1.1,2.3-1.1,4.1v9.1
		h-2.7v-10.6c0-1.3-0.3-2.3-0.8-2.9c-0.5-0.7-1.4-1-2.6-1c-1.5,0-2.6,0.5-3.3,1.4c-0.7,0.9-1.1,2.5-1.1,4.6v8.6h-2.7v-16.5h2.2
		l0.4,2.3h0.2c0.5-0.8,1.1-1.4,2-1.9c0.9-0.5,1.8-0.7,2.9-0.7c2.6,0,4.3,0.9,5.1,2.8h0.2c0.5-0.9,1.3-1.6,2.2-2
		c0.9-0.5,2-0.7,3.1-0.7c1.9,0,3.3,0.5,4.2,1.4s1.4,2.5,1.4,4.6V166H456.7z"/>
	<path id="XMLID_160_" class="st9" d="M472.4,149.2c2.2,0,3.9,0.8,5,2.3c1.2,1.5,1.8,3.6,1.8,6.3c0,2.7-0.6,4.8-1.8,6.3
		c-1.2,1.5-2.9,2.2-5,2.2c-1.1,0-2.1-0.2-3-0.6s-1.6-1-2.1-1.8H467c-0.3,1.2-0.5,1.9-0.6,2.1h-1.9v-23.4h2.7v5.7
		c0,1.1-0.1,2.3-0.2,3.4h0.2C468.4,150,470.1,149.2,472.4,149.2z M471.9,151.4c-1.7,0-2.9,0.5-3.6,1.4c-0.7,0.9-1.1,2.5-1.1,4.8v0.1
		c0,2.3,0.4,3.9,1.1,4.8c0.7,1,1.9,1.5,3.6,1.5c1.5,0,2.6-0.5,3.3-1.6c0.7-1.1,1.1-2.7,1.1-4.7c0-2.1-0.4-3.7-1.1-4.7
		C474.5,151.9,473.4,151.4,471.9,151.4z"/>
	<path id="XMLID_163_" class="st9" d="M483.3,145c0-0.6,0.2-1,0.5-1.3c0.3-0.3,0.7-0.4,1.1-0.4c0.4,0,0.8,0.1,1.1,0.4
		c0.3,0.3,0.5,0.7,0.5,1.3c0,0.6-0.2,1-0.5,1.3c-0.3,0.3-0.7,0.4-1.1,0.4c-0.5,0-0.8-0.1-1.1-0.4C483.4,146,483.3,145.6,483.3,145z
		 M486.2,166h-2.7v-16.5h2.7V166z"/>
	<path id="XMLID_166_" class="st9" d="M494.2,166h-2.7v-23.4h2.7V166z"/>
	<path id="XMLID_168_" class="st9" d="M253.1,197.7h-3.3l-7.8-10.5l-2.2,2v8.5h-2.8v-22h2.8v10.9l1.9-2.1l7.8-8.8h3.2l-8.7,9.6
		L253.1,197.7z"/>
	<path id="XMLID_170_" class="st9" d="M262.8,198c-2.5,0-4.4-0.8-5.8-2.3c-1.4-1.5-2.1-3.6-2.1-6.2c0-2.6,0.7-4.8,2-6.3
		c1.3-1.6,3.1-2.4,5.3-2.4c2.1,0,3.7,0.7,5,2c1.2,1.3,1.9,3.2,1.9,5.4v1.6h-11.3c0,1.9,0.5,3.3,1.4,4.3c0.9,1,2.2,1.5,3.8,1.5
		c0.9,0,1.7-0.1,2.5-0.2c0.8-0.2,1.7-0.5,2.8-0.9v2.4c-0.9,0.4-1.8,0.7-2.6,0.8C264.8,197.9,263.9,198,262.8,198z M262.1,183.1
		c-1.3,0-2.3,0.4-3.1,1.2c-0.8,0.8-1.2,2-1.3,3.5h8.4c0-1.5-0.4-2.7-1.1-3.5C264.4,183.5,263.4,183.1,262.1,183.1z"/>
	<path id="XMLID_173_" class="st9" d="M281,198c-2.2,0-3.9-0.8-5.1-2.4h-0.2l0.1,0.6c0.1,0.8,0.1,1.5,0.1,2.1v6.8h-2.7v-23.9h2.2
		l0.4,2.3h0.1c0.6-0.9,1.4-1.6,2.2-2c0.8-0.4,1.8-0.6,2.9-0.6c2.1,0,3.8,0.7,5,2.2c1.2,1.5,1.8,3.6,1.8,6.3c0,2.7-0.6,4.8-1.8,6.3
		C284.8,197.2,283.1,198,281,198z M280.5,183.1c-1.6,0-2.8,0.5-3.5,1.4c-0.7,0.9-1.1,2.4-1.1,4.4v0.5c0,2.2,0.4,3.9,1.1,4.9
		c0.7,1,1.9,1.5,3.6,1.5c1.4,0,2.5-0.6,3.2-1.7c0.8-1.1,1.2-2.7,1.2-4.7c0-2-0.4-3.6-1.2-4.6C283.1,183.7,282,183.1,280.5,183.1z"/>
	<path id="XMLID_176_" class="st9" d="M294.7,181.2v10.6c0,1.3,0.3,2.3,0.9,3c0.6,0.6,1.5,1,2.8,1c1.7,0,2.9-0.5,3.7-1.4
		c0.8-0.9,1.2-2.5,1.2-4.6v-8.6h2.7v16.5h-2.2l-0.4-2.2h-0.1c-0.5,0.8-1.2,1.4-2.1,1.8c-0.9,0.4-2,0.6-3.1,0.6c-2,0-3.5-0.5-4.5-1.4
		c-1-1-1.5-2.5-1.5-4.6v-10.8H294.7z"/>
	<path id="XMLID_178_" class="st9" d="M316.7,195.8c0.4,0,0.8,0,1.2-0.1c0.5-0.1,0.8-0.2,1.1-0.2v2.1c-0.3,0.1-0.6,0.2-1.2,0.3
		c-0.5,0.1-1.1,0.2-1.6,0.2c-3.2,0-4.8-1.7-4.8-5.1v-9.6h-2.3V182l2.4-1.1l1.1-3.5h1.6v3.8h4.8v2.1h-4.8v9.5c0,1,0.2,1.7,0.7,2.2
		C315.3,195.5,315.9,195.8,316.7,195.8z"/>
	<path id="XMLID_180_" class="st9" d="M324.9,181.2v10.6c0,1.3,0.3,2.3,0.9,3c0.6,0.6,1.5,1,2.8,1c1.7,0,2.9-0.5,3.7-1.4
		c0.8-0.9,1.2-2.5,1.2-4.6v-8.6h2.7v16.5h-2.2l-0.4-2.2h-0.1c-0.5,0.8-1.2,1.4-2.1,1.8c-0.9,0.4-2,0.6-3.1,0.6c-2,0-3.5-0.5-4.5-1.4
		c-1-1-1.5-2.5-1.5-4.6v-10.8H324.9z"/>
	<path id="XMLID_182_" class="st9" d="M352.1,193.1c0,1.5-0.6,2.7-1.7,3.6c-1.2,0.8-2.8,1.3-4.9,1.3c-2.2,0-3.9-0.3-5.2-1v-2.5
		c1.8,0.9,3.6,1.3,5.3,1.3c1.4,0,2.4-0.2,3-0.7c0.6-0.4,0.9-1,0.9-1.8c0-0.7-0.3-1.2-0.9-1.7c-0.6-0.5-1.7-1-3.2-1.6
		c-1.6-0.6-2.6-1.1-3.3-1.5c-0.6-0.4-1.1-0.9-1.4-1.4c-0.3-0.5-0.4-1.2-0.4-1.9c0-1.4,0.6-2.4,1.7-3.2c1.1-0.8,2.6-1.2,4.5-1.2
		c1.9,0,3.6,0.4,5.3,1.1l-0.9,2.2c-1.7-0.7-3.2-1.1-4.5-1.1c-1.1,0-2,0.2-2.6,0.5c-0.6,0.4-0.9,0.8-0.9,1.5c0,0.6,0.3,1.1,0.8,1.5
		c0.5,0.4,1.7,0.9,3.5,1.6c1.4,0.5,2.4,1,3,1.4c0.7,0.4,1.1,0.9,1.5,1.5C352,191.7,352.1,192.3,352.1,193.1z"/>
	<path id="XMLID_184_" class="st9" d="M366.3,197.7l-0.5-2.3h-0.1c-0.8,1-1.6,1.7-2.5,2.1c-0.8,0.4-1.8,0.5-3.1,0.5
		c-1.6,0-2.9-0.4-3.8-1.3c-0.9-0.9-1.4-2.1-1.4-3.6c0-3.4,2.6-5.1,7.9-5.3l2.8-0.1v-1c0-1.3-0.3-2.2-0.8-2.8
		c-0.5-0.6-1.4-0.9-2.6-0.9c-0.9,0-1.7,0.1-2.5,0.4c-0.8,0.3-1.5,0.6-2.2,0.9l-0.8-2c0.8-0.4,1.7-0.8,2.7-1c1-0.3,2-0.4,2.9-0.4
		c2,0,3.5,0.4,4.5,1.3c1,0.9,1.5,2.3,1.5,4.2v11.3H366.3z M360.8,195.8c1.5,0,2.7-0.4,3.6-1.2c0.9-0.8,1.3-2,1.3-3.5v-1.5l-2.4,0.1
		c-1.9,0.1-3.3,0.4-4.1,0.9c-0.9,0.5-1.3,1.4-1.3,2.5c0,0.9,0.3,1.5,0.8,2C359.1,195.6,359.8,195.8,360.8,195.8z"/>
	<path id="XMLID_187_" class="st9" d="M384.7,197.7v-10.6c0-1.3-0.3-2.3-0.9-3c-0.6-0.7-1.5-1-2.8-1c-1.7,0-2.9,0.5-3.7,1.4
		c-0.8,0.9-1.2,2.5-1.2,4.6v8.6h-2.7v-16.5h2.2l0.4,2.3h0.2c0.5-0.8,1.2-1.4,2.2-1.9c0.9-0.4,1.9-0.7,3.1-0.7c2,0,3.5,0.5,4.5,1.5
		c1,1,1.5,2.5,1.5,4.6v10.8H384.7z"/>
</g>
<path class="st10" d="M159.1,247.2H0V161c0-2.8,2.2-5,5-5h149.1c2.8,0,5,2.2,5,5V247.2z"/>
<path class="st11" d="M152.1,261.4H7c-3.9,0-7-3.1-7-7v-7.2h159.1v7.2C159.1,258.3,155.9,261.4,152.1,261.4z"/>
</svg>
