<!-- Generator: Adobe Illustrator 19.0.0, SVG Export Plug-In  -->
<svg version="1.1"
	 xmlns="http://www.w3.org/2000/svg" xmlns:xlink="http://www.w3.org/1999/xlink" xmlns:a="http://ns.adobe.com/AdobeSVGViewerExtensions/3.0/"
	 x="0px" y="0px" width="118px" height="132.5px" viewBox="0 0 118 132.5" style="enable-background:new 0 0 118 132.5;"
	 xml:space="preserve">
<style type="text/css">
	.st0{fill:#F99700;}
	.st1{fill:#E3E3E3;stroke:#E3E3E3;stroke-width:1.5;stroke-miterlimit:10;}
	.st2{fill:#33CCCC;stroke:#33CCCC;stroke-width:1.5;stroke-miterlimit:10;}
	.st3{fill:#F8F7F9;stroke:#E3E3E3;stroke-width:1.5;stroke-miterlimit:10;}
	.st4{fill:#FF6633;}
	.st5{fill:#E3E3E3;}
	.st6{fill:#B6B7B7;}
	.st7{fill:#E3E3E3;stroke:#E3E3E3;stroke-width:1.5;stroke-linecap:round;stroke-linejoin:round;stroke-miterlimit:10;}
	.st8{fill:#FFFFFF;stroke:#E3E3E3;stroke-width:1.5;stroke-linecap:round;stroke-linejoin:round;stroke-miterlimit:10;}
	.st9{fill:#FFFFFF;}
	.st10{fill:#33CCCC;}
	.st11{fill:#086A87;}
</style>
<defs>
</defs>
<g>
	<circle class="st0" cx="59" cy="71" r="59"/>
	<g>
		<g>
			<g>
				<g>
					<g>
						<circle class="st1" cx="15.4" cy="8.8" r="2.3"/>
						<circle class="st1" cx="23.7" cy="8.8" r="2.3"/>
						<circle class="st1" cx="31.9" cy="8.8" r="2.3"/>
						<path class="st1" d="M101.4,0.8H8.8C6.7,0.8,5,2.4,5,4.5v10.6h100.2V4.5C105.2,2.4,103.5,0.8,101.4,0.8z M15.4,11.1
							c-1.3,0-2.3-1-2.3-2.3s1-2.3,2.3-2.3c1.3,0,2.3,1,2.3,2.3S16.6,11.1,15.4,11.1z M23.7,11.1c-1.3,0-2.3-1-2.3-2.3
							s1-2.3,2.3-2.3c1.3,0,2.3,1,2.3,2.3S24.9,11.1,23.7,11.1z M31.9,11.1c-1.3,0-2.3-1-2.3-2.3s1-2.3,2.3-2.3s2.3,1,2.3,2.3
							S33.2,11.1,31.9,11.1z"/>
						<rect x="5" y="15.2" class="st2" width="100.2" height="20.5"/>
					</g>
					<rect x="5" y="35.6" class="st3" width="100.2" height="96.1"/>
					<circle class="st4" cx="15.4" cy="8.8" r="2.3"/>
					<circle class="st4" cx="23.7" cy="8.8" r="2.3"/>
					<circle class="st4" cx="31.9" cy="8.8" r="2.3"/>
				</g>
				<rect x="44" y="50" class="st5" width="14.3" height="20.3"/>
				<rect x="61.4" y="50" class="st5" width="14.3" height="20.3"/>
				<rect x="78.7" y="50" class="st5" width="14.3" height="20.3"/>
				<rect x="44" y="78.2" class="st5" width="14.3" height="20.3"/>
				<rect x="61.4" y="78.2" class="st5" width="14.3" height="20.3"/>
				<rect x="78.7" y="78.2" class="st5" width="14.3" height="20.3"/>
				<rect x="44" y="106.4" class="st5" width="14.3" height="20.3"/>
				<rect x="61.4" y="106.4" class="st5" width="14.3" height="20.3"/>
				<rect x="78.7" y="106.4" class="st5" width="14.3" height="20.3"/>
				<rect x="11.8" y="43.4" class="st1" width="24.1" height="5.5"/>
				<rect x="11.8" y="80.3" class="st1" width="24.1" height="5.5"/>
				<rect x="11.8" y="75.7" class="st6" width="24.1" height="2"/>
				<line class="st7" x1="11.8" y1="51.8" x2="31.2" y2="51.8"/>
				<line class="st7" x1="11.8" y1="54.6" x2="31.2" y2="54.6"/>
				<line class="st7" x1="11.8" y1="57.5" x2="31.2" y2="57.5"/>
				<line class="st7" x1="11.8" y1="60.3" x2="31.2" y2="60.3"/>
				<line class="st7" x1="11.8" y1="63.2" x2="31.2" y2="63.2"/>
				<line class="st7" x1="11.8" y1="66" x2="31.2" y2="66"/>
				<line class="st7" x1="11.8" y1="68.8" x2="31.2" y2="68.8"/>
				<line class="st7" x1="11.8" y1="88.5" x2="31.2" y2="88.5"/>
				<line class="st7" x1="11.8" y1="91.3" x2="31.2" y2="91.3"/>
				<line class="st7" x1="11.8" y1="94.2" x2="31.2" y2="94.2"/>
				<line class="st7" x1="11.8" y1="97" x2="31.2" y2="97"/>
				<line class="st7" x1="11.8" y1="99.8" x2="31.2" y2="99.8"/>
				<line class="st7" x1="11.8" y1="102.7" x2="31.2" y2="102.7"/>
				<line class="st7" x1="11.8" y1="105.5" x2="31.2" y2="105.5"/>
				<line class="st7" x1="11.8" y1="71.7" x2="31.2" y2="71.7"/>
				<path class="st8" d="M16.5,78.2h-2c-0.9,0-1.6-0.7-1.6-1.6l0,0c0-0.9,0.7-1.6,1.6-1.6h2c0.9,0,1.6,0.7,1.6,1.6v0
					C18.1,77.5,17.4,78.2,16.5,78.2z"/>
				<path class="st8" d="M32.9,78.2h-2c-0.9,0-1.6-0.7-1.6-1.6l0,0c0-0.9,0.7-1.6,1.6-1.6h2c0.9,0,1.6,0.7,1.6,1.6l0,0
					C34.5,77.5,33.8,78.2,32.9,78.2z"/>
				<rect x="43.4" y="22.7" class="st9" width="49.9" height="5.7"/>
				<rect x="81.4" y="44" class="st7" width="13.7" height="3.1"/>
				<line class="st7" x1="43.2" y1="44" x2="65.5" y2="44"/>
				<line class="st7" x1="43.2" y1="45.7" x2="65.5" y2="45.7"/>
				<path class="st6" d="M46.6,59.1c0,0-0.1-1.8,1.4-2.1l3.6,4.6c0,0,0.9,0.8,1.3-0.5c0-0.1,2.7,1.2,2.7,1.2s0.5,1.2-0.8,1.1h-3.7
					c0,0-0.5-0.1-1.9-1.7l-1.5-1.5v3.2h-1.2L46.6,59.1z"/>
				<path class="st10" d="M64,59.2c0,0-0.1-1.8,1.4-2.1l3.6,4.6c0,0,0.9,0.8,1.3-0.5c0-0.1,2.7,1.2,2.7,1.2s0.5,1.2-0.8,1.1h-3.7
					c0,0-0.5-0.1-1.9-1.7l-1.5-1.5v3.2H64L64,59.2z"/>
				<path class="st11" d="M46.6,87.3c0,0-0.1-1.8,1.4-2.1l3.6,4.6c0,0,0.9,0.8,1.3-0.5c0-0.1,2.7,1.2,2.7,1.2s0.5,1.2-0.8,1.1h-3.7
					c0,0-0.5-0.1-1.9-1.7l-1.5-1.5v3.2h-1.2L46.6,87.3z"/>
				<path class="st6" d="M64,87.3c0,0-0.1-1.8,1.4-2.1l3.6,4.6c0,0,0.9,0.8,1.3-0.5c0-0.1,2.7,1.2,2.7,1.2s0.5,1.2-0.8,1.1h-3.7
					c0,0-0.5-0.1-1.9-1.7l-1.5-1.5v3.2H64L64,87.3z"/>
				<path class="st10" d="M81.3,87.4c0,0-0.1-1.8,1.4-2.1l3.6,4.6c0,0,0.9,0.8,1.3-0.5c0-0.1,2.7,1.2,2.7,1.2s0.5,1.2-0.8,1.1h-3.7
					c0,0-0.5-0.1-1.9-1.7l-1.5-1.5v3.2h-1.2L81.3,87.4z"/>
				<path class="st10" d="M81.3,59.1c0,0-0.1-1.8,1.4-2.1l3.6,4.6c0,0,0.9,0.8,1.3-0.5c0-0.1,2.7,1.2,2.7,1.2s0.5,1.2-0.8,1.1h-3.7
					c0,0-0.5-0.1-1.9-1.7l-1.5-1.5v3.2h-1.2L81.3,59.1z"/>
				<path class="st11" d="M81.3,115.4c0,0-0.1-1.8,1.4-2.1l3.6,4.6c0,0,0.9,0.8,1.3-0.5c0-0.1,2.7,1.2,2.7,1.2s0.5,1.2-0.8,1.1h-3.7
					c0,0-0.5-0.1-1.9-1.7l-1.5-1.5v3.2h-1.2L81.3,115.4z"/>
				<path class="st11" d="M64,115.4c0,0-0.1-1.8,1.4-2.1l3.6,4.6c0,0,0.9,0.8,1.3-0.5c0-0.1,2.7,1.2,2.7,1.2s0.5,1.2-0.8,1.1h-3.7
					c0,0-0.5-0.1-1.9-1.7l-1.5-1.5v3.2H64L64,115.4z"/>
				<path class="st10" d="M46.6,115.4c0,0-0.1-1.8,1.4-2.1l3.6,4.6c0,0,0.9,0.8,1.3-0.5c0-0.1,2.7,1.2,2.7,1.2s0.5,1.2-0.8,1.1h-3.7
					c0,0-0.5-0.1-1.9-1.7l-1.5-1.5v3.2h-1.2L46.6,115.4z"/>
			</g>
			<g>
				<g>
					<path class="st9" d="M12,20.5c0-0.3,0.2-0.4,0.5-0.4c0.2,0,0.5,0.2,0.5,0.4c0,0.3-0.2,0.5-0.5,0.5C12.2,20.9,12,20.7,12,20.5z"
						/>
					<rect x="12" y="21.8" class="st9" width="0.9" height="3.8"/>
				</g>
				<path class="st9" d="M22,20.1c-0.2,0-0.5,0.2-0.5,0.4c0,0.3,0.2,0.5,0.5,0.5c0.2,0,0.5-0.2,0.5-0.5C22.4,20.3,22.2,20.1,22,20.1
					z M21.5,21.9v3.8h0.9v-3.8H21.5z"/>
				<g>
					<path class="st9" d="M15.9,27.1l-0.4-0.7h0.2l0.2,0.4c0,0.1,0.1,0.1,0.1,0.1s0-0.1,0.1-0.1l0.2-0.4h0.2L16.1,27v0.3h-0.2V27.1z
						"/>
					<path class="st9" d="M16.4,27.1c0-0.2,0.1-0.3,0.3-0.3c0.2,0,0.3,0.1,0.3,0.3c0,0.2-0.1,0.3-0.3,0.3
						C16.5,27.4,16.4,27.2,16.4,27.1z M16.9,27.1c0-0.1-0.1-0.2-0.2-0.2s-0.2,0.1-0.2,0.2c0,0.1,0.1,0.2,0.2,0.2
						S16.9,27.2,16.9,27.1z"/>
					<path class="st9" d="M17.2,27.1v-0.4h0.1v0.3c0,0.1,0,0.1,0.1,0.1c0.1,0,0.2-0.1,0.2-0.2v-0.3h0.1v0.6h-0.1l0-0.1
						c0,0.1-0.1,0.1-0.2,0.1C17.3,27.4,17.2,27.3,17.2,27.1z"/>
					<path class="st9" d="M17.9,26.8h0.1l0,0.1c0-0.1,0.1-0.1,0.2-0.1c0,0,0.1,0,0.1,0l0,0.1c0,0,0,0-0.1,0c-0.1,0-0.1,0.1-0.1,0.2
						v0.3h-0.1V26.8z"/>
					<path class="st9" d="M18.7,27.1c0-0.2,0.1-0.3,0.3-0.3c0.2,0,0.3,0.1,0.3,0.3c0,0.2-0.1,0.3-0.3,0.3
						C18.9,27.4,18.7,27.2,18.7,27.1z M19.2,27.1c0-0.1-0.1-0.2-0.2-0.2c-0.1,0-0.2,0.1-0.2,0.2c0,0.1,0.1,0.2,0.2,0.2
						C19.2,27.3,19.2,27.2,19.2,27.1z"/>
					<path class="st9" d="M19.5,26.8h0.1l0,0.1c0-0.1,0.1-0.1,0.2-0.1c0.1,0,0.2,0.1,0.2,0.3v0.4H20V27c0-0.1,0-0.1-0.1-0.1
						c-0.1,0-0.2,0.1-0.2,0.2v0.3h-0.1V26.8z"/>
					<path class="st9" d="M20.6,27.3c0.1,0,0.1,0,0.2-0.1l0.1,0.1c-0.1,0.1-0.1,0.1-0.3,0.1c-0.2,0-0.3-0.1-0.3-0.3
						c0-0.2,0.1-0.3,0.3-0.3c0.2,0,0.3,0.2,0.3,0.4h-0.5C20.4,27.2,20.5,27.3,20.6,27.3z M20.8,27c0-0.1-0.1-0.1-0.2-0.1
						c-0.1,0-0.2,0.1-0.2,0.1H20.8z"/>
					<path class="st9" d="M21.3,27.3L21.3,27.3c0.1,0,0.2,0,0.3,0c0.1,0,0.1,0,0.1-0.1c0,0,0-0.1-0.1-0.1c-0.1,0-0.2-0.1-0.2-0.2
						c0-0.1,0.1-0.2,0.2-0.2c0.1,0,0.2,0,0.2,0.1l-0.1,0.1c0,0-0.1-0.1-0.1-0.1c-0.1,0-0.1,0-0.1,0.1c0,0,0,0.1,0.1,0.1
						c0.1,0,0.2,0.1,0.2,0.2c0,0.1-0.1,0.2-0.2,0.2C21.5,27.4,21.4,27.3,21.3,27.3z"/>
					<path class="st9" d="M22,27.2v-0.3h-0.1v-0.1H22v-0.3h0.1v0.3h0.2v0.1h-0.2v0.3c0,0.1,0,0.1,0.1,0.1c0,0,0.1,0,0.1,0l0.1,0.1
						c0,0-0.1,0.1-0.2,0.1C22.1,27.4,22,27.3,22,27.2z"/>
					<path class="st9" d="M22.4,27.1c0-0.2,0.1-0.3,0.3-0.3c0.2,0,0.3,0.1,0.3,0.3c0,0.2-0.1,0.3-0.3,0.3
						C22.6,27.4,22.4,27.2,22.4,27.1z M22.9,27.1c0-0.1-0.1-0.2-0.2-0.2c-0.1,0-0.2,0.1-0.2,0.2c0,0.1,0.1,0.2,0.2,0.2
						C22.9,27.3,22.9,27.2,22.9,27.1z"/>
					<path class="st9" d="M23.2,26.8h0.1l0,0.1c0-0.1,0.1-0.1,0.2-0.1c0.2,0,0.3,0.1,0.3,0.3s-0.1,0.3-0.3,0.3c-0.1,0-0.2,0-0.2-0.1
						v0.4h-0.1V26.8z M23.7,27.1c0-0.1-0.1-0.2-0.2-0.2c-0.1,0-0.2,0.1-0.2,0.2c0,0.1,0.1,0.2,0.2,0.2
						C23.7,27.2,23.7,27.2,23.7,27.1z"/>
					<path class="st9" d="M24.3,27.3L24.3,27.3c0.1,0,0.2,0,0.3,0c0.1,0,0.1,0,0.1-0.1c0,0,0-0.1-0.1-0.1c-0.1,0-0.2-0.1-0.2-0.2
						c0-0.1,0.1-0.2,0.2-0.2c0.1,0,0.2,0,0.2,0.1l-0.1,0.1c0,0-0.1-0.1-0.1-0.1c-0.1,0-0.1,0-0.1,0.1c0,0,0,0.1,0.1,0.1
						c0.1,0,0.2,0.1,0.2,0.2c0,0.1-0.1,0.2-0.2,0.2C24.4,27.4,24.3,27.3,24.3,27.3z"/>
					<path class="st9" d="M25,26.3h0.1v0.5c0-0.1,0.1-0.1,0.2-0.1c0.1,0,0.2,0.1,0.2,0.3v0.4h-0.1V27c0-0.1,0-0.1-0.1-0.1
						c-0.1,0-0.2,0.1-0.2,0.2v0.3H25V26.3z"/>
					<path class="st9" d="M25.7,27.1c0-0.2,0.1-0.3,0.3-0.3c0.2,0,0.3,0.1,0.3,0.3c0,0.2-0.1,0.3-0.3,0.3
						C25.8,27.4,25.7,27.2,25.7,27.1z M26.2,27.1c0-0.1-0.1-0.2-0.2-0.2c-0.1,0-0.2,0.1-0.2,0.2c0,0.1,0.1,0.2,0.2,0.2
						C26.1,27.3,26.2,27.2,26.2,27.1z"/>
					<path class="st9" d="M26.5,26.8h0.1l0,0.1c0-0.1,0.1-0.1,0.2-0.1c0.2,0,0.3,0.1,0.3,0.3s-0.1,0.3-0.3,0.3c-0.1,0-0.2,0-0.2-0.1
						v0.4h-0.1V26.8z M27,27.1c0-0.1-0.1-0.2-0.2-0.2c-0.1,0-0.2,0.1-0.2,0.2c0,0.1,0.1,0.2,0.2,0.2C26.9,27.2,27,27.2,27,27.1z"/>
					<path class="st9" d="M27.3,26.8h0.1l0,0.1c0-0.1,0.1-0.1,0.2-0.1c0.2,0,0.3,0.1,0.3,0.3s-0.1,0.3-0.3,0.3c-0.1,0-0.2,0-0.2-0.1
						v0.4h-0.1V26.8z M27.8,27.1c0-0.1-0.1-0.2-0.2-0.2c-0.1,0-0.2,0.1-0.2,0.2c0,0.1,0.1,0.2,0.2,0.2
						C27.7,27.2,27.8,27.2,27.8,27.1z"/>
					<path class="st9" d="M28,26.5C28,26.5,28.1,26.4,28,26.5c0.1-0.1,0.2-0.1,0.2,0C28.2,26.6,28.2,26.6,28,26.5
						C28.1,26.6,28,26.6,28,26.5z M28.1,26.8h0.1v0.6h-0.1V26.8z"/>
					<path class="st9" d="M28.4,26.8h0.1l0,0.1c0-0.1,0.1-0.1,0.2-0.1c0.1,0,0.2,0.1,0.2,0.3v0.4h-0.1V27c0-0.1,0-0.1-0.1-0.1
						c-0.1,0-0.2,0.1-0.2,0.2v0.3h-0.1V26.8z"/>
					<path class="st9" d="M29.7,26.8v0.1h-0.1c0,0,0,0.1,0,0.1c0,0.1-0.1,0.2-0.2,0.2c0,0-0.1,0-0.1,0c0,0,0,0,0,0.1
						c0,0,0,0,0.1,0.1l0.2,0c0.2,0,0.3,0.1,0.3,0.2c0,0.1-0.1,0.2-0.3,0.2c-0.2,0-0.3-0.1-0.3-0.2c0-0.1,0.1-0.1,0.1-0.1
						c-0.1,0-0.1-0.1-0.1-0.1c0-0.1,0-0.1,0.1-0.1c0,0-0.1-0.1-0.1-0.1c0-0.1,0.1-0.2,0.2-0.2c0,0,0.1,0,0.1,0H29.7z M29.2,27.5
						c0,0.1,0.1,0.1,0.2,0.1c0.1,0,0.2,0,0.2-0.1c0-0.1,0-0.1-0.1-0.1L29.2,27.5C29.2,27.4,29.2,27.4,29.2,27.5z M29.5,27
						c0-0.1,0-0.1-0.1-0.1s-0.1,0-0.1,0.1c0,0.1,0,0.1,0.1,0.1S29.5,27,29.5,27z"/>
					<path class="st9" d="M30.1,27.1c0-0.2,0.1-0.3,0.3-0.3c0.1,0,0.2,0,0.2,0.1v-0.5h0.1v1h-0.1l0-0.1c0,0.1-0.1,0.1-0.2,0.1
						C30.3,27.4,30.1,27.2,30.1,27.1z M30.6,27.1c0-0.1-0.1-0.2-0.2-0.2c-0.1,0-0.2,0.1-0.2,0.2c0,0.1,0.1,0.2,0.2,0.2
						C30.6,27.2,30.6,27.2,30.6,27.1z"/>
					<path class="st9" d="M31.3,27.3c0.1,0,0.1,0,0.2-0.1l0.1,0.1c-0.1,0.1-0.1,0.1-0.3,0.1c-0.2,0-0.3-0.1-0.3-0.3
						c0-0.2,0.1-0.3,0.3-0.3c0.2,0,0.3,0.2,0.3,0.4h-0.5C31.1,27.2,31.1,27.3,31.3,27.3z M31.4,27c0-0.1-0.1-0.1-0.2-0.1
						c-0.1,0-0.2,0.1-0.2,0.1H31.4z"/>
					<path class="st9" d="M31.6,27.3L31.6,27.3c0.1,0,0.2,0,0.3,0c0.1,0,0.1,0,0.1-0.1c0,0,0-0.1-0.1-0.1c-0.1,0-0.2-0.1-0.2-0.2
						c0-0.1,0.1-0.2,0.2-0.2c0.1,0,0.2,0,0.2,0.1L32,26.9c0,0-0.1-0.1-0.1-0.1c-0.1,0-0.1,0-0.1,0.1c0,0,0,0.1,0.1,0.1
						c0.1,0,0.2,0.1,0.2,0.2c0,0.1-0.1,0.2-0.2,0.2C31.8,27.4,31.7,27.3,31.6,27.3z"/>
					<path class="st9" d="M32.3,27.2v-0.3h-0.1v-0.1h0.1v-0.3h0.1v0.3h0.2v0.1h-0.2v0.3c0,0.1,0,0.1,0.1,0.1c0,0,0.1,0,0.1,0
						l0.1,0.1c0,0-0.1,0.1-0.2,0.1C32.4,27.4,32.3,27.3,32.3,27.2z"/>
					<path class="st9" d="M32.8,26.5C32.8,26.5,32.8,26.4,32.8,26.5c0.1-0.1,0.2-0.1,0.2,0C33,26.6,32.9,26.6,32.8,26.5
						C32.8,26.6,32.8,26.6,32.8,26.5z M32.8,26.8h0.1v0.6h-0.1V26.8z"/>
					<path class="st9" d="M33.1,26.8h0.1l0,0.1c0-0.1,0.1-0.1,0.2-0.1c0.1,0,0.2,0.1,0.2,0.3v0.4h-0.1V27c0-0.1,0-0.1-0.1-0.1
						c-0.1,0-0.2,0.1-0.2,0.2v0.3h-0.1V26.8z"/>
					<path class="st9" d="M34.1,26.9c-0.1,0-0.1,0-0.2,0.1l-0.1-0.1c0.1-0.1,0.1-0.1,0.3-0.1c0.1,0,0.3,0.1,0.3,0.3v0.4h-0.1l0-0.1
						c0,0.1-0.1,0.1-0.2,0.1c-0.1,0-0.2-0.1-0.2-0.2c0-0.1,0.1-0.2,0.2-0.2h0.2C34.2,26.9,34.2,26.9,34.1,26.9z M34.1,27.1
						c-0.1,0-0.1,0-0.1,0.1c0,0.1,0,0.1,0.1,0.1c0.1,0,0.1,0,0.1-0.1v0H34.1z"/>
					<path class="st9" d="M34.6,27.2v-0.3h-0.1v-0.1h0.1v-0.3h0.1v0.3h0.2v0.1h-0.2v0.3c0,0.1,0,0.1,0.1,0.1c0,0,0.1,0,0.1,0
						l0.1,0.1c0,0-0.1,0.1-0.2,0.1C34.7,27.4,34.6,27.3,34.6,27.2z"/>
					<path class="st9" d="M35,26.5C35,26.5,35.1,26.4,35,26.5c0.1-0.1,0.2-0.1,0.2,0C35.2,26.6,35.2,26.6,35,26.5
						C35.1,26.6,35,26.6,35,26.5z M35.1,26.8h0.1v0.6h-0.1V26.8z"/>
					<path class="st9" d="M35.4,27.1c0-0.2,0.1-0.3,0.3-0.3c0.2,0,0.3,0.1,0.3,0.3c0,0.2-0.1,0.3-0.3,0.3
						C35.5,27.4,35.4,27.2,35.4,27.1z M35.9,27.1c0-0.1-0.1-0.2-0.2-0.2c-0.1,0-0.2,0.1-0.2,0.2c0,0.1,0.1,0.2,0.2,0.2
						C35.8,27.3,35.9,27.2,35.9,27.1z"/>
					<path class="st9" d="M36.2,26.8h0.1l0,0.1c0-0.1,0.1-0.1,0.2-0.1c0.1,0,0.2,0.1,0.2,0.3v0.4h-0.1V27c0-0.1,0-0.1-0.1-0.1
						c-0.1,0-0.2,0.1-0.2,0.2v0.3h-0.1V26.8z"/>
				</g>
				<g>
					<path class="st9" d="M36.3,23.1l-0.4-0.4l0,0l-0.1-0.1l-0.1-0.1l-0.1-0.1L35,21.8l0,0l-0.4-0.4l-0.4,0.4l-1.9,1.9l-0.4,0.4
						l0.4,0.4l1.3,1.3l0.4,0.4l0.4-0.4l1.9-1.9l0.4-0.4L36.3,23.1z M34,25.4l-1.3-1.3l1.9-1.9l0.4,0.4l0,0l0.4,0.4l0,0l0.4,0.4
						L34,25.4z"/>
					<path class="st9" d="M36.3,23.1l0.2-0.2l0,0c0.3-0.4,0.3-0.9,0-1.3c-0.4-0.4-0.9-0.4-1.3,0l0,0l-0.6,0.6l0.4,0.4l0.6-0.6
						c0.1-0.1,0.3-0.1,0.4,0c0.1,0.1,0.1,0.3,0,0.4l-0.2,0.2L36.3,23.1"/>
				</g>
				<line class="st9" x1="19.3" y1="25.6" x2="18.4" y2="25.6"/>
				<path class="st9" d="M25.2,24.8c-0.6,0-1.1-0.5-1.1-1.1s0.5-1.1,1.1-1.1c0.4,0,0.7,0.2,0.9,0.4l0.7-0.5
					c-0.4-0.5-0.9-0.8-1.6-0.8c-1.1,0-2,0.9-2,2s0.9,2,2,2c0.6,0,1.2-0.3,1.6-0.7L26,24.4C25.8,24.7,25.5,24.8,25.2,24.8z"/>
				<polygon class="st9" points="14.7,22.3 14.7,22.3 14.7,21.8 14.7,21.9 				"/>
				<path class="st9" d="M15.8,21.8C15.8,21.8,15.8,21.8,15.8,21.8C15.7,21.8,15.7,21.8,15.8,21.8c-0.4,0-0.7,0.1-0.9,0.2
					c-0.1,0-0.2,0.1-0.2,0.1v-0.3l0,0h-0.9v5.5h0.9v-0.5v-1.5c0.3,0.2,0.7,0.4,1.1,0.4c1.1,0,2-0.9,2-2S16.9,21.8,15.8,21.8z
					 M15.8,24.9c-0.6,0-1.1-0.5-1.1-1.1s0.5-1.1,1.1-1.1c0.6,0,1.1,0.5,1.1,1.1S16.4,24.9,15.8,24.9z"/>
				<path class="st9" d="M20.6,21.9c-0.7-0.2-1.1,0.1-1.3,0.3v-0.4h-0.9V23h0v2.6h0.9v-1.7c0-0.8,0.4-1.2,0.9-1.2
					c0.2,0,0.3,0.1,0.5,0.1l0.3-0.8C20.8,22,20.7,21.9,20.6,21.9z"/>
				<polygon class="st9" points="28.2,24.2 28.2,24.1 28.2,24.2 				"/>
				<polygon class="st9" points="28.2,24.1 28.2,24.1 28.2,24.1 				"/>
				<path class="st9" d="M31.2,24.1c0-0.1,0.1-0.3,0.1-0.5c0-0.1,0-0.2,0-0.3c0-0.1,0-0.1,0-0.2c-0.2-0.9-1-1.6-2-1.6
					s-1.8,0.7-2,1.6c0,0.1-0.1,0.3-0.1,0.5c0,0,0,0,0,0.1l0,0c0,0,0,0.1,0,0.1c0,0.3,0.1,0.5,0.2,0.7c0.1,0.2,0.3,0.5,0.4,0.6
					c0.2,0.2,0.4,0.3,0.7,0.4c0.3,0.1,0.5,0.1,0.8,0.1c0.3,0,0.6-0.1,0.9-0.2c0.3-0.1,0.5-0.3,0.8-0.6l-0.7-0.5
					c-0.1,0.2-0.3,0.3-0.4,0.4C29.7,25,29.5,25,29.2,25c-0.3,0-0.5-0.1-0.7-0.2c-0.2-0.1-0.3-0.4-0.3-0.6c0,0,0,0,0,0c0,0,0,0,0,0h0
					H31.2z M28.5,22.7c0.2-0.2,0.4-0.2,0.7-0.2c0.3,0,0.5,0.1,0.7,0.2c0.2,0.2,0.3,0.4,0.3,0.7h-2C28.2,23.1,28.3,22.9,28.5,22.7z"
					/>
			</g>
			<circle class="st6" cx="14" cy="111.7" r="2.2"/>
			<circle class="st10" cx="19.6" cy="111.7" r="2.2"/>
			<circle class="st4" cx="25.3" cy="111.7" r="2.2"/>
			<circle class="st11" cx="30.9" cy="111.7" r="2.2"/>
		</g>
	</g>
</g>
</svg>