<!-- Generator: Adobe Illustrator 19.0.0, SVG Export Plug-In  -->
<svg version="1.1"
	 xmlns="http://www.w3.org/2000/svg" xmlns:xlink="http://www.w3.org/1999/xlink" xmlns:a="http://ns.adobe.com/AdobeSVGViewerExtensions/3.0/"
	 x="0px" y="0px" width="163.8px" height="118px" viewBox="0 0 163.8 118" style="enable-background:new 0 0 163.8 118;"
	 xml:space="preserve">
<style type="text/css">
	.st0{fill:#F99700;}
	.st1{fill:#6D6D6D;}
	.st2{fill:#EDEDED;}
	.st3{fill:#FFFFFF;}
	.st4{fill:#FF6633;}
	.st5{fill:#E3E3E3;stroke:#E3E3E3;stroke-width:1.4159;stroke-miterlimit:10;}
</style>
<defs>
</defs>
<g>
	<circle class="st0" cx="59" cy="59" r="59"/>
	<path class="st1" d="M5.6,26.3c0-3,2.5-5.5,5.5-5.5h95.8c3,0,5.5,2.5,5.5,5.5v65.3c0,3-2.5,5.5-5.5,5.5H11.1c-3,0-5.5-2.5-5.5-5.5"
		/>
	<path class="st2" d="M5.6,32h106.8v59.6c0,3-2.5,5.5-5.5,5.5H11.1c-3,0-5.5-2.5-5.5-5.5"/>
	<circle class="st3" cx="19.5" cy="27.3" r="2.1"/>
	<circle class="st3" cx="12.7" cy="27.3" r="2.1"/>
	<circle class="st3" cx="27.5" cy="27.3" r="2.1"/>
	<polygon class="st4" points="86.2,58.7 86.2,75.8 89.6,72.3 93.1,75.8 93.1,57.9 	"/>
	<polygon class="st4" points="89.6,44.2 92.5,42.2 94.3,45.2 97.6,44.5 98.1,47.9 101.4,48.7 100.4,52 103.2,54.1 100.9,56.7 
		102.6,59.7 99.5,61.2 99.7,64.6 96.3,64.7 95.2,67.9 92,66.6 89.6,69.1 87.3,66.6 84.1,67.9 83,64.7 79.5,64.6 79.8,61.2 
		76.7,59.7 78.4,56.7 76.1,54.1 78.9,52 77.9,48.7 81.2,47.9 81.7,44.5 85,45.2 86.8,42.2 	"/>
	<g>
		<path class="st4" d="M153,20.8c0,0-1.4,7.3-8.7,8.4c7.3,1.1,8.7,8.4,8.7,8.4s1.4-7.3,8.7-8.4C154.4,28.1,153,20.8,153,20.8"/>
		<path class="st4" d="M142.5,40.7c0,0-3.4,18-21.3,20.6c17.8,2.6,21.3,20.6,21.3,20.6s3.4-18,21.3-20.6
			C145.9,58.7,142.5,40.7,142.5,40.7 M142.5,46.2c0.6,1.4,1.4,3,2.5,4.7c3.1,4.8,7.3,8.3,12.3,10.3c-5,2-9.2,5.5-12.3,10.3
			c-1.1,1.7-1.9,3.3-2.5,4.7c-0.6-1.4-1.4-3-2.5-4.7c-3.1-4.8-7.3-8.3-12.3-10.3c5-2,9.2-5.5,12.3-10.3
			C141.1,49.3,141.9,47.7,142.5,46.2"/>
		<path class="st5" d="M122.5,46.7c-0.8-1.7-2.3-3.9-5-5.1c2.6-1.2,4.1-3.4,5-5.1c0.8,1.7,2.3,3.9,5,5.1
			C124.8,42.8,123.3,45,122.5,46.7z"/>
	</g>
</g>
</svg>