<?xml version="1.0" encoding="utf-8"?>
<!-- Generator: Adobe Illustrator 19.0.0, SVG Export Plug-In . SVG Version: 6.00 Build 0)  -->
<svg version="1.1" id="Layer_1" xmlns="http://www.w3.org/2000/svg" xmlns:xlink="http://www.w3.org/1999/xlink" x="0px" y="0px"
	 viewBox="0 0 325.7 180.1" style="enable-background:new 0 0 325.7 180.1;" xml:space="preserve">
<style type="text/css">
	.st0{fill:#F8981D;}
	.st1{fill:#FFFFFF;}
</style>
<g>
	<circle class="st0" cx="57" cy="122.4" r="57"/>
	<circle class="st0" cx="133.9" cy="89.7" r="89.7"/>
	<circle class="st0" cx="223.4" cy="98.2" r="79.5"/>
	<circle class="st0" cx="285.8" cy="140.1" r="40"/>
	<rect x="57" y="130.1" class="st0" width="238.8" height="49.2"/>
	<g id="XMLID_16_">
		<path id="XMLID_17_" class="st1" d="M70.5,54.4c0,0.9-0.3,1.6-0.9,2.1c-0.6,0.5-1.4,0.7-2.5,0.7c-0.9,0-1.6-0.1-2.2-0.4v-1.1
			c0.7,0.4,1.4,0.5,2.2,0.5c0.7,0,1.2-0.2,1.6-0.5s0.6-0.7,0.6-1.3c0-0.3-0.1-0.6-0.3-0.9c-0.2-0.2-0.6-0.5-1.2-0.9
			c-0.6-0.4-1.1-0.7-1.3-1.1c-0.2-0.4-0.4-0.8-0.4-1.3c0-0.5,0.1-1,0.4-1.4s0.6-0.7,1.1-0.9s1-0.3,1.6-0.3c0.8,0,1.6,0.2,2.3,0.5
			l-0.4,1c-0.3-0.2-0.6-0.3-0.9-0.4c-0.3-0.1-0.7-0.1-1-0.1c-0.5,0-1,0.1-1.3,0.4c-0.3,0.3-0.5,0.7-0.5,1.2c0,0.3,0.1,0.6,0.2,0.8
			c0.2,0.2,0.5,0.5,1.1,0.8c0.6,0.4,1,0.7,1.2,0.9s0.4,0.5,0.5,0.7C70.5,53.8,70.5,54.1,70.5,54.4z"/>
		<path id="XMLID_20_" class="st1" d="M74.4,57.2c-0.8,0-1.4-0.2-1.9-0.7c-0.4-0.5-0.7-1.1-0.7-1.9c0-0.8,0.2-1.6,0.5-2.3
			c0.3-0.7,0.7-1.3,1.3-1.7c0.5-0.4,1.1-0.6,1.8-0.6c0.7,0,1.2,0.1,1.5,0.4c0.3,0.3,0.5,0.7,0.5,1.2c0,0.8-0.4,1.4-1.1,1.8
			s-1.7,0.7-3,0.7h-0.2l0,0.5c0,0.5,0.1,1,0.4,1.3s0.7,0.5,1.2,0.5c0.3,0,0.6,0,0.9-0.1c0.3-0.1,0.6-0.2,1-0.4v1
			c-0.4,0.2-0.8,0.3-1.1,0.4C75.1,57.2,74.8,57.2,74.4,57.2z M75.3,51c-0.4,0-0.8,0.2-1.2,0.6c-0.4,0.4-0.7,0.9-0.8,1.6h0.1
			c0.9,0,1.6-0.1,2.1-0.4c0.5-0.2,0.8-0.6,0.8-1.1c0-0.2-0.1-0.4-0.2-0.6C75.9,51,75.6,51,75.3,51z"/>
		<path id="XMLID_36_" class="st1" d="M79.3,57.1h-1.1l2.1-9.9h1.1L79.3,57.1z"/>
		<path id="XMLID_216_" class="st1" d="M83.6,57.2c-0.6,0-1-0.2-1.4-0.6s-0.5-1-0.5-1.8c0-0.9,0.1-1.7,0.4-2.4
			c0.3-0.8,0.7-1.3,1.2-1.8c0.5-0.4,1.1-0.6,1.7-0.6c0.4,0,0.7,0.1,1,0.3c0.3,0.2,0.5,0.5,0.7,0.9H87l0.4-1.1h0.9l-1.5,7h-0.9
			l0.2-1.3H86C85.3,56.8,84.5,57.2,83.6,57.2z M84,56.3c0.4,0,0.8-0.2,1.2-0.6c0.4-0.4,0.7-0.9,1-1.5c0.2-0.6,0.4-1.2,0.4-1.9
			c0-0.4-0.1-0.8-0.3-1S85.6,51,85.3,51c-0.4,0-0.8,0.2-1.2,0.5s-0.7,0.8-0.9,1.4c-0.2,0.6-0.3,1.3-0.3,1.9c0,0.5,0.1,0.8,0.3,1.1
			S83.7,56.3,84,56.3z"/>
		<path id="XMLID_219_" class="st1" d="M90,57.1h-1.1l1.5-7h1.1L90,57.1z M90.6,48.4c0-0.2,0.1-0.4,0.2-0.6s0.3-0.2,0.6-0.2
			c0.4,0,0.6,0.2,0.6,0.6c0,0.3-0.1,0.5-0.2,0.6c-0.1,0.2-0.3,0.2-0.5,0.2c-0.2,0-0.3-0.1-0.4-0.2C90.7,48.7,90.6,48.6,90.6,48.4z"
			/>
		<path id="XMLID_222_" class="st1" d="M97.6,57.1h-1.1l0.9-4.4c0.1-0.4,0.1-0.7,0.1-0.9c0-0.3-0.1-0.5-0.2-0.6
			c-0.1-0.2-0.4-0.2-0.7-0.2c-0.4,0-0.7,0.1-1.1,0.4s-0.7,0.6-0.9,1.1c-0.3,0.5-0.5,1-0.6,1.7l-0.6,3h-1.1l1.5-7h0.9l-0.1,1.3h0.1
			c0.3-0.4,0.5-0.6,0.8-0.8s0.5-0.3,0.7-0.4c0.3-0.1,0.5-0.2,0.8-0.2c0.5,0,1,0.1,1.3,0.4c0.3,0.3,0.5,0.7,0.5,1.3
			c0,0.3,0,0.7-0.1,1.1L97.6,57.1z"/>
		<path id="XMLID_224_" class="st1" d="M106.3,57.2c-0.4,0-0.8-0.1-1.1-0.3c-0.3-0.2-0.5-0.5-0.7-0.9h-0.1l-0.4,1.1h-0.9l2.1-9.9
			h1.1l-0.5,2.3c-0.1,0.4-0.2,0.8-0.3,1.2s-0.2,0.6-0.2,0.7h0.1c0.4-0.5,0.8-0.9,1.2-1.1c0.4-0.2,0.7-0.3,1.1-0.3
			c0.6,0,1.1,0.2,1.4,0.6c0.3,0.4,0.5,1,0.5,1.7c0,0.9-0.1,1.7-0.4,2.4c-0.3,0.8-0.7,1.3-1.2,1.8C107.5,57,106.9,57.2,106.3,57.2z
			 M107.4,51c-0.4,0-0.8,0.2-1.2,0.6c-0.4,0.4-0.7,0.9-1,1.5c-0.2,0.6-0.4,1.2-0.4,1.8c0,0.4,0.1,0.8,0.3,1c0.2,0.2,0.6,0.4,1,0.4
			c0.4,0,0.8-0.2,1.2-0.5c0.4-0.3,0.6-0.8,0.8-1.4c0.2-0.6,0.3-1.3,0.3-1.9C108.5,51.5,108.1,51,107.4,51z"/>
		<path id="XMLID_228_" class="st1" d="M113.4,57.2c-0.8,0-1.4-0.2-1.9-0.7c-0.4-0.5-0.7-1.1-0.7-1.9c0-0.8,0.2-1.6,0.5-2.3
			c0.3-0.7,0.7-1.3,1.3-1.7c0.5-0.4,1.1-0.6,1.8-0.6c0.7,0,1.2,0.1,1.5,0.4c0.3,0.3,0.5,0.7,0.5,1.2c0,0.8-0.4,1.4-1.1,1.8
			s-1.7,0.7-3,0.7h-0.2l0,0.5c0,0.5,0.1,1,0.4,1.3s0.7,0.5,1.2,0.5c0.3,0,0.6,0,0.9-0.1c0.3-0.1,0.6-0.2,1-0.4v1
			c-0.4,0.2-0.8,0.3-1.1,0.4C114.1,57.2,113.8,57.2,113.4,57.2z M114.3,51c-0.4,0-0.8,0.2-1.2,0.6c-0.4,0.4-0.7,0.9-0.8,1.6h0.1
			c0.9,0,1.6-0.1,2.1-0.4c0.5-0.2,0.8-0.6,0.8-1.1c0-0.2-0.1-0.4-0.2-0.6C114.9,51,114.6,51,114.3,51z"/>
		<path id="XMLID_233_" class="st1" d="M121.6,50c0.3,0,0.5,0,0.8,0.1l-0.2,1c-0.2-0.1-0.5-0.1-0.7-0.1c-0.4,0-0.7,0.1-1.1,0.4
			c-0.3,0.2-0.6,0.6-0.9,1c-0.2,0.4-0.4,0.9-0.5,1.5l-0.7,3.2h-1.1l1.5-7h0.9l-0.1,1.3h0.1c0.3-0.4,0.6-0.7,0.8-0.9s0.4-0.3,0.6-0.4
			C121.1,50.1,121.3,50,121.6,50z"/>
		<path id="XMLID_235_" class="st1" d="M125.4,57.2c-0.4,0-0.8-0.1-1.1-0.3c-0.3-0.2-0.5-0.5-0.7-0.9h-0.1l-0.4,1.1h-0.9l2.1-9.9
			h1.1l-0.5,2.3c-0.1,0.4-0.2,0.8-0.3,1.2s-0.2,0.6-0.2,0.7h0.1c0.4-0.5,0.8-0.9,1.2-1.1c0.4-0.2,0.7-0.3,1.1-0.3
			c0.6,0,1.1,0.2,1.4,0.6c0.3,0.4,0.5,1,0.5,1.7c0,0.9-0.1,1.7-0.4,2.4c-0.3,0.8-0.7,1.3-1.2,1.8C126.7,57,126.1,57.2,125.4,57.2z
			 M126.6,51c-0.4,0-0.8,0.2-1.2,0.6c-0.4,0.4-0.7,0.9-1,1.5c-0.2,0.6-0.4,1.2-0.4,1.8c0,0.4,0.1,0.8,0.3,1c0.2,0.2,0.6,0.4,1,0.4
			c0.4,0,0.8-0.2,1.2-0.5c0.4-0.3,0.6-0.8,0.8-1.4c0.2-0.6,0.3-1.3,0.3-1.9C127.7,51.5,127.3,51,126.6,51z"/>
		<path id="XMLID_238_" class="st1" d="M132.6,57.2c-0.8,0-1.4-0.2-1.9-0.7c-0.4-0.5-0.7-1.1-0.7-1.9c0-0.8,0.2-1.6,0.5-2.3
			c0.3-0.7,0.7-1.3,1.3-1.7c0.5-0.4,1.1-0.6,1.8-0.6c0.7,0,1.2,0.1,1.5,0.4c0.3,0.3,0.5,0.7,0.5,1.2c0,0.8-0.4,1.4-1.1,1.8
			s-1.7,0.7-3,0.7h-0.2l0,0.5c0,0.5,0.1,1,0.4,1.3s0.7,0.5,1.2,0.5c0.3,0,0.6,0,0.9-0.1c0.3-0.1,0.6-0.2,1-0.4v1
			c-0.4,0.2-0.8,0.3-1.1,0.4C133.3,57.2,133,57.2,132.6,57.2z M133.5,51c-0.4,0-0.8,0.2-1.2,0.6c-0.4,0.4-0.7,0.9-0.8,1.6h0.1
			c0.9,0,1.6-0.1,2.1-0.4c0.5-0.2,0.8-0.6,0.8-1.1c0-0.2-0.1-0.4-0.2-0.6C134.1,51,133.8,51,133.5,51z"/>
		<path id="XMLID_241_" class="st1" d="M137.5,57.1h-1.1l2.1-9.9h1.1L137.5,57.1z"/>
		<path id="XMLID_243_" class="st1" d="M141.8,57.2c-0.6,0-1-0.2-1.4-0.6s-0.5-1-0.5-1.8c0-0.9,0.1-1.7,0.4-2.4
			c0.3-0.8,0.7-1.3,1.2-1.8c0.5-0.4,1.1-0.6,1.7-0.6c0.4,0,0.7,0.1,1,0.3c0.3,0.2,0.5,0.5,0.7,0.9h0.1l0.4-1.1h0.9l-1.5,7h-0.9
			l0.2-1.3h-0.1C143.5,56.8,142.7,57.2,141.8,57.2z M142.2,56.3c0.4,0,0.8-0.2,1.2-0.6c0.4-0.4,0.7-0.9,1-1.5
			c0.2-0.6,0.4-1.2,0.4-1.9c0-0.4-0.1-0.8-0.3-1s-0.5-0.4-0.9-0.4c-0.4,0-0.8,0.2-1.2,0.5s-0.7,0.8-0.9,1.4
			c-0.2,0.6-0.3,1.3-0.3,1.9c0,0.5,0.1,0.8,0.3,1.1S141.9,56.3,142.2,56.3z"/>
		<path id="XMLID_246_" class="st1" d="M152.4,57.1h-1.1l0.9-4.4c0.1-0.4,0.1-0.7,0.1-0.9c0-0.3-0.1-0.5-0.2-0.6
			c-0.1-0.2-0.4-0.2-0.7-0.2c-0.4,0-0.7,0.1-1.1,0.4s-0.7,0.6-0.9,1.1c-0.3,0.5-0.5,1-0.6,1.7l-0.6,3h-1.1l1.5-7h0.9l-0.1,1.3h0.1
			c0.3-0.4,0.5-0.6,0.8-0.8s0.5-0.3,0.7-0.4c0.3-0.1,0.5-0.2,0.8-0.2c0.5,0,1,0.1,1.3,0.4c0.3,0.3,0.5,0.7,0.5,1.3
			c0,0.3,0,0.7-0.1,1.1L152.4,57.1z"/>
		<path id="XMLID_248_" class="st1" d="M153.4,60.2c-0.3,0-0.6,0-0.8-0.1v-1c0.2,0.1,0.5,0.1,0.8,0.1c0.5,0,0.9-0.4,1.1-1.3l1.7-7.9
			h1.1l-1.7,8c-0.2,0.7-0.4,1.3-0.8,1.6C154.4,60.1,154,60.2,153.4,60.2z M156.4,48.4c0-0.2,0.1-0.4,0.2-0.6s0.3-0.2,0.6-0.2
			c0.4,0,0.6,0.2,0.6,0.6c0,0.3-0.1,0.5-0.2,0.6c-0.1,0.2-0.3,0.2-0.5,0.2c-0.2,0-0.3-0.1-0.4-0.2C156.4,48.7,156.4,48.6,156.4,48.4
			z"/>
		<path id="XMLID_251_" class="st1" d="M160.1,57.2c-0.6,0-1-0.2-1.4-0.6s-0.5-1-0.5-1.8c0-0.9,0.1-1.7,0.4-2.4
			c0.3-0.8,0.7-1.3,1.2-1.8c0.5-0.4,1.1-0.6,1.7-0.6c0.4,0,0.7,0.1,1,0.3c0.3,0.2,0.5,0.5,0.7,0.9h0.1l0.4-1.1h0.9l-1.5,7h-0.9
			l0.2-1.3h-0.1C161.7,56.8,160.9,57.2,160.1,57.2z M160.5,56.3c0.4,0,0.8-0.2,1.2-0.6c0.4-0.4,0.7-0.9,1-1.5
			c0.2-0.6,0.4-1.2,0.4-1.9c0-0.4-0.1-0.8-0.3-1s-0.5-0.4-0.9-0.4c-0.4,0-0.8,0.2-1.2,0.5s-0.7,0.8-0.9,1.4
			c-0.2,0.6-0.3,1.3-0.3,1.9c0,0.5,0.1,0.8,0.3,1.1S160.1,56.3,160.5,56.3z"/>
		<path id="XMLID_254_" class="st1" d="M173,55.1c0,0.7-0.2,1.2-0.7,1.6c-0.5,0.4-1.1,0.6-2,0.6c-0.8,0-1.4-0.1-1.9-0.4v-1.1
			c0.3,0.2,0.6,0.3,0.9,0.4c0.3,0.1,0.7,0.2,1,0.2c0.5,0,0.9-0.1,1.2-0.3s0.4-0.5,0.4-0.8c0-0.2-0.1-0.4-0.2-0.6
			c-0.1-0.2-0.5-0.4-0.9-0.7c-0.5-0.3-0.9-0.6-1.2-0.9s-0.3-0.7-0.3-1.1c0-0.6,0.2-1.1,0.6-1.4c0.4-0.4,1-0.5,1.7-0.5
			c0.7,0,1.4,0.2,2.1,0.5l-0.4,0.9c-0.2-0.1-0.5-0.2-0.8-0.3s-0.6-0.1-1-0.1c-0.4,0-0.7,0.1-0.9,0.3c-0.2,0.2-0.3,0.4-0.3,0.7
			c0,0.2,0.1,0.4,0.2,0.6s0.5,0.4,0.9,0.6c0.5,0.3,0.8,0.5,1,0.7s0.3,0.4,0.4,0.6C173,54.6,173,54.8,173,55.1z"/>
		<path id="XMLID_256_" class="st1" d="M177.1,57.2c-0.8,0-1.4-0.2-1.9-0.7c-0.4-0.5-0.7-1.1-0.7-1.9c0-0.8,0.2-1.6,0.5-2.3
			c0.3-0.7,0.7-1.3,1.3-1.7c0.5-0.4,1.1-0.6,1.8-0.6c0.7,0,1.2,0.1,1.5,0.4c0.3,0.3,0.5,0.7,0.5,1.2c0,0.8-0.4,1.4-1.1,1.8
			s-1.7,0.7-3,0.7h-0.2l0,0.5c0,0.5,0.1,1,0.4,1.3s0.7,0.5,1.2,0.5c0.3,0,0.6,0,0.9-0.1c0.3-0.1,0.6-0.2,1-0.4v1
			c-0.4,0.2-0.8,0.3-1.1,0.4C177.8,57.2,177.5,57.2,177.1,57.2z M178,51c-0.4,0-0.8,0.2-1.2,0.6c-0.4,0.4-0.7,0.9-0.8,1.6h0.1
			c0.9,0,1.6-0.1,2.1-0.4c0.5-0.2,0.8-0.6,0.8-1.1c0-0.2-0.1-0.4-0.2-0.6C178.5,51,178.3,51,178,51z"/>
		<path id="XMLID_259_" class="st1" d="M183.6,57.2c-0.8,0-1.5-0.2-1.9-0.7c-0.5-0.5-0.7-1.1-0.7-1.9c0-0.9,0.2-1.6,0.5-2.4
			c0.3-0.7,0.7-1.3,1.3-1.7c0.5-0.4,1.2-0.6,1.9-0.6c0.6,0,1.2,0.1,1.7,0.3l-0.3,1c-0.5-0.2-0.9-0.3-1.4-0.3c-0.5,0-0.9,0.2-1.3,0.5
			c-0.4,0.3-0.7,0.8-0.9,1.3c-0.2,0.6-0.3,1.2-0.3,1.8c0,0.5,0.1,0.9,0.4,1.2s0.6,0.4,1.1,0.4c0.3,0,0.6,0,0.9-0.1
			c0.3-0.1,0.5-0.2,0.8-0.3v1C184.9,57.1,184.3,57.2,183.6,57.2z"/>
		<path id="XMLID_261_" class="st1" d="M188.8,57.2c-0.6,0-1-0.2-1.4-0.6s-0.5-1-0.5-1.8c0-0.9,0.1-1.7,0.4-2.4
			c0.3-0.8,0.7-1.3,1.2-1.8c0.5-0.4,1.1-0.6,1.7-0.6c0.4,0,0.7,0.1,1,0.3c0.3,0.2,0.5,0.5,0.7,0.9h0.1l0.4-1.1h0.9l-1.5,7h-0.9
			l0.2-1.3h-0.1C190.5,56.8,189.7,57.2,188.8,57.2z M189.2,56.3c0.4,0,0.8-0.2,1.2-0.6c0.4-0.4,0.7-0.9,1-1.5
			c0.2-0.6,0.4-1.2,0.4-1.9c0-0.4-0.1-0.8-0.3-1s-0.5-0.4-0.9-0.4c-0.4,0-0.8,0.2-1.2,0.5s-0.7,0.8-0.9,1.4
			c-0.2,0.6-0.3,1.3-0.3,1.9c0,0.5,0.1,0.8,0.3,1.1S188.9,56.3,189.2,56.3z"/>
		<path id="XMLID_264_" class="st1" d="M198.5,50c0.3,0,0.5,0,0.8,0.1l-0.2,1c-0.2-0.1-0.5-0.1-0.7-0.1c-0.4,0-0.7,0.1-1.1,0.4
			c-0.3,0.2-0.6,0.6-0.9,1c-0.2,0.4-0.4,0.9-0.5,1.5l-0.7,3.2h-1.1l1.5-7h0.9l-0.1,1.3h0.1c0.3-0.4,0.6-0.7,0.8-0.9s0.4-0.3,0.6-0.4
			C198,50.1,198.3,50,198.5,50z"/>
		<path id="XMLID_266_" class="st1" d="M201.4,57.2c-0.6,0-1-0.2-1.4-0.6s-0.5-1-0.5-1.8c0-0.9,0.1-1.7,0.4-2.4
			c0.3-0.8,0.7-1.3,1.2-1.8c0.5-0.4,1.1-0.6,1.7-0.6c0.4,0,0.7,0.1,1,0.3c0.3,0.2,0.5,0.5,0.7,0.9h0.1l0.4-1.1h0.9l-1.5,7h-0.9
			l0.2-1.3h-0.1C203,56.8,202.2,57.2,201.4,57.2z M201.8,56.3c0.4,0,0.8-0.2,1.2-0.6c0.4-0.4,0.7-0.9,1-1.5c0.2-0.6,0.4-1.2,0.4-1.9
			c0-0.4-0.1-0.8-0.3-1S203.4,51,203,51c-0.4,0-0.8,0.2-1.2,0.5s-0.7,0.8-0.9,1.4c-0.2,0.6-0.3,1.3-0.3,1.9c0,0.5,0.1,0.8,0.3,1.1
			S201.4,56.3,201.8,56.3z"/>
		<path id="XMLID_269_" class="st1" d="M216.4,52.8c0,0.8-0.2,1.6-0.5,2.3c-0.3,0.7-0.7,1.2-1.2,1.6c-0.5,0.4-1.1,0.6-1.8,0.6
			c-0.8,0-1.4-0.2-1.9-0.7c-0.5-0.5-0.7-1.1-0.7-2c0-0.8,0.2-1.6,0.5-2.3s0.7-1.3,1.3-1.6c0.5-0.4,1.1-0.6,1.8-0.6
			c0.8,0,1.4,0.2,1.9,0.7C216.1,51.3,216.4,51.9,216.4,52.8z M215.2,52.6c0-0.5-0.1-0.9-0.4-1.2s-0.6-0.4-1-0.4
			c-0.4,0-0.9,0.2-1.2,0.5c-0.4,0.3-0.6,0.7-0.8,1.3c-0.2,0.6-0.3,1.2-0.3,1.8c0,0.5,0.1,1,0.4,1.3c0.3,0.3,0.6,0.4,1.1,0.4
			c0.4,0,0.8-0.2,1.2-0.5s0.6-0.7,0.8-1.3C215.1,54,215.2,53.3,215.2,52.6z"/>
		<path id="XMLID_272_" class="st1" d="M222.7,57.1h-1.1l0.9-4.4c0.1-0.4,0.1-0.7,0.1-0.9c0-0.3-0.1-0.5-0.2-0.6
			c-0.1-0.2-0.4-0.2-0.7-0.2c-0.4,0-0.7,0.1-1.1,0.4s-0.7,0.6-0.9,1.1c-0.3,0.5-0.5,1-0.6,1.7l-0.6,3h-1.1l1.5-7h0.9l-0.1,1.3h0.1
			c0.3-0.4,0.5-0.6,0.8-0.8s0.5-0.3,0.7-0.4c0.3-0.1,0.5-0.2,0.8-0.2c0.5,0,1,0.1,1.3,0.4c0.3,0.3,0.5,0.7,0.5,1.3
			c0,0.3,0,0.7-0.1,1.1L222.7,57.1z"/>
		<path id="XMLID_274_" class="st1" d="M226,57.1h-1.1l2.1-9.9h1.1L226,57.1z"/>
		<path id="XMLID_276_" class="st1" d="M229.4,57.1h-1.1l1.5-7h1.1L229.4,57.1z M230,48.4c0-0.2,0.1-0.4,0.2-0.6s0.3-0.2,0.6-0.2
			c0.4,0,0.6,0.2,0.6,0.6c0,0.3-0.1,0.5-0.2,0.6c-0.1,0.2-0.3,0.2-0.5,0.2c-0.2,0-0.3-0.1-0.4-0.2C230,48.7,230,48.6,230,48.4z"/>
		<path id="XMLID_279_" class="st1" d="M236.9,57.1h-1.1l0.9-4.4c0.1-0.4,0.1-0.7,0.1-0.9c0-0.3-0.1-0.5-0.2-0.6
			c-0.1-0.2-0.4-0.2-0.7-0.2c-0.4,0-0.7,0.1-1.1,0.4s-0.7,0.6-0.9,1.1c-0.3,0.5-0.5,1-0.6,1.7l-0.6,3h-1.1l1.5-7h0.9l-0.1,1.3h0.1
			c0.3-0.4,0.5-0.6,0.8-0.8s0.5-0.3,0.7-0.4c0.3-0.1,0.5-0.2,0.8-0.2c0.5,0,1,0.1,1.3,0.4c0.3,0.3,0.5,0.7,0.5,1.3
			c0,0.3,0,0.7-0.1,1.1L236.9,57.1z"/>
		<path id="XMLID_281_" class="st1" d="M241.9,57.2c-0.8,0-1.4-0.2-1.9-0.7c-0.4-0.5-0.7-1.1-0.7-1.9c0-0.8,0.2-1.6,0.5-2.3
			c0.3-0.7,0.7-1.3,1.3-1.7c0.5-0.4,1.1-0.6,1.8-0.6c0.7,0,1.2,0.1,1.5,0.4c0.3,0.3,0.5,0.7,0.5,1.2c0,0.8-0.4,1.4-1.1,1.8
			s-1.7,0.7-3,0.7h-0.2l0,0.5c0,0.5,0.1,1,0.4,1.3s0.7,0.5,1.2,0.5c0.3,0,0.6,0,0.9-0.1c0.3-0.1,0.6-0.2,1-0.4v1
			c-0.4,0.2-0.8,0.3-1.1,0.4C242.6,57.2,242.2,57.2,241.9,57.2z M242.8,51c-0.4,0-0.8,0.2-1.2,0.6c-0.4,0.4-0.7,0.9-0.8,1.6h0.1
			c0.9,0,1.6-0.1,2.1-0.4c0.5-0.2,0.8-0.6,0.8-1.1c0-0.2-0.1-0.4-0.2-0.6C243.3,51,243.1,51,242.8,51z"/>
		<path id="XMLID_284_" class="st1" d="M247.1,55.6l0.1,0.1c-0.4,0.9-1,1.9-1.7,3h-0.9c0.4-0.9,0.8-1.9,1.3-3.2H247.1z"/>
		<path id="XMLID_286_" class="st1" d="M69.7,65.6c0.5,0,0.8,0.1,1.1,0.4c0.3,0.3,0.4,0.7,0.5,1.1h0.1c0.7-1,1.5-1.5,2.4-1.5
			c0.5,0,1,0.1,1.3,0.4s0.4,0.7,0.4,1.3c0,0.4,0,0.8-0.1,1.1l-0.9,4.2h-1.2l0.9-4.4c0.1-0.4,0.1-0.7,0.1-0.9c0-0.3-0.1-0.5-0.2-0.6
			s-0.4-0.2-0.7-0.2c-0.3,0-0.7,0.1-1,0.4s-0.6,0.6-0.9,1c-0.3,0.5-0.4,1-0.6,1.6l-0.7,3.1h-1.1l0.9-4.4c0.1-0.4,0.1-0.7,0.1-0.9
			c0-0.6-0.3-0.9-0.8-0.9c-0.3,0-0.7,0.1-1,0.4s-0.6,0.6-0.9,1.1s-0.4,1-0.6,1.7l-0.6,3h-1.1l1.5-7h0.9L67.4,67h0.1
			c0.3-0.4,0.5-0.7,0.7-0.8c0.2-0.2,0.4-0.3,0.7-0.4C69.1,65.7,69.4,65.6,69.7,65.6z"/>
		<path id="XMLID_288_" class="st1" d="M77.9,65.8H79l-0.9,4.4C78,70.5,78,70.8,78,71c0,0.6,0.3,0.9,0.9,0.9c0.4,0,0.7-0.1,1.1-0.4
			s0.7-0.6,0.9-1.1c0.3-0.5,0.5-1,0.6-1.7l0.6-3h1.1l-1.5,7h-0.9l0.1-1.3h-0.1c-0.4,0.5-0.8,0.9-1.1,1.1c-0.4,0.2-0.8,0.3-1.2,0.3
			c-0.5,0-1-0.2-1.3-0.5s-0.5-0.7-0.5-1.3c0-0.3,0-0.6,0.1-1.1L77.9,65.8z"/>
		<path id="XMLID_290_" class="st1" d="M89.4,72.7h-1.1l0.9-4.4c0.1-0.4,0.1-0.7,0.1-0.9c0-0.3-0.1-0.5-0.2-0.6
			c-0.1-0.2-0.4-0.2-0.7-0.2c-0.4,0-0.7,0.1-1.1,0.4s-0.7,0.6-0.9,1.1c-0.3,0.5-0.5,1-0.6,1.7l-0.6,3H84l1.5-7h0.9L86.3,67h0.1
			c0.3-0.4,0.5-0.6,0.8-0.8s0.5-0.3,0.7-0.4c0.3-0.1,0.5-0.2,0.8-0.2c0.5,0,1,0.1,1.3,0.4c0.3,0.3,0.5,0.7,0.5,1.3
			c0,0.3,0,0.7-0.1,1.1L89.4,72.7z"/>
		<path id="XMLID_292_" class="st1" d="M93.6,75.8c-0.8,0-1.5-0.1-2.1-0.4v-1.1c0.3,0.2,0.6,0.3,1,0.4c0.4,0.1,0.7,0.2,1.1,0.2
			c0.6,0,1-0.1,1.3-0.4c0.3-0.3,0.6-0.7,0.7-1.3l0.3-1.3l0.1-0.4H96c-0.4,0.5-0.8,0.9-1.1,1.1c-0.4,0.2-0.8,0.3-1.2,0.3
			c-0.6,0-1.1-0.2-1.4-0.6s-0.5-1-0.5-1.8c0-0.9,0.2-1.7,0.5-2.5c0.3-0.8,0.7-1.3,1.2-1.7c0.5-0.4,1.1-0.6,1.7-0.6
			c0.8,0,1.4,0.4,1.8,1.2H97l0.4-1.1h0.9l-1.6,7.4c-0.2,0.9-0.6,1.6-1.1,2.1C95.1,75.6,94.4,75.8,93.6,75.8z M94,71.9
			c0.4,0,0.8-0.2,1.2-0.6s0.7-0.9,1-1.5s0.4-1.2,0.4-1.8c0-0.9-0.4-1.4-1.3-1.4c-0.4,0-0.8,0.2-1.2,0.5c-0.4,0.4-0.6,0.8-0.8,1.5
			c-0.2,0.6-0.3,1.3-0.3,1.9C92.9,71.4,93.3,71.9,94,71.9z"/>
		<path id="XMLID_295_" class="st1" d="M104.1,65.8h1.4l-3,3l1.9,4h-1.3l-1.5-3.3l-0.9,0.7l-0.5,2.5H99l2.1-9.9h1.2
			c-0.4,1.7-0.7,3.1-0.9,4c-0.2,0.9-0.4,1.7-0.6,2.3h0L104.1,65.8z"/>
		<path id="XMLID_297_" class="st1" d="M106.6,72.7h-1.1l1.5-7h1.1L106.6,72.7z M107.3,64c0-0.2,0.1-0.4,0.2-0.6s0.3-0.2,0.6-0.2
			c0.4,0,0.6,0.2,0.6,0.6c0,0.3-0.1,0.5-0.2,0.6c-0.1,0.2-0.3,0.2-0.5,0.2c-0.2,0-0.3-0.1-0.4-0.2C107.3,64.3,107.3,64.2,107.3,64z"
			/>
		<path id="XMLID_300_" class="st1" d="M114.2,72.7h-1.1l0.9-4.4c0.1-0.4,0.1-0.7,0.1-0.9c0-0.3-0.1-0.5-0.2-0.6
			c-0.1-0.2-0.4-0.2-0.7-0.2c-0.4,0-0.7,0.1-1.1,0.4s-0.7,0.6-0.9,1.1c-0.3,0.5-0.5,1-0.6,1.7l-0.6,3h-1.1l1.5-7h0.9l-0.1,1.3h0.1
			c0.3-0.4,0.5-0.6,0.8-0.8s0.5-0.3,0.7-0.4c0.3-0.1,0.5-0.2,0.8-0.2c0.5,0,1,0.1,1.3,0.4c0.3,0.3,0.5,0.7,0.5,1.3
			c0,0.3,0,0.7-0.1,1.1L114.2,72.7z"/>
		<path id="XMLID_302_" class="st1" d="M124.1,70.7c0,0.7-0.2,1.2-0.7,1.6c-0.5,0.4-1.1,0.6-2,0.6c-0.8,0-1.4-0.1-1.9-0.4v-1.1
			c0.3,0.2,0.6,0.3,0.9,0.4c0.3,0.1,0.7,0.2,1,0.2c0.5,0,0.9-0.1,1.2-0.3s0.4-0.5,0.4-0.8c0-0.2-0.1-0.4-0.2-0.6
			c-0.1-0.2-0.5-0.4-0.9-0.7c-0.5-0.3-0.9-0.6-1.2-0.9s-0.3-0.7-0.3-1.1c0-0.6,0.2-1.1,0.6-1.4c0.4-0.4,1-0.5,1.7-0.5
			c0.7,0,1.4,0.2,2.1,0.5l-0.4,0.9c-0.2-0.1-0.5-0.2-0.8-0.3s-0.6-0.1-1-0.1c-0.4,0-0.7,0.1-0.9,0.3c-0.2,0.2-0.3,0.4-0.3,0.7
			c0,0.2,0.1,0.4,0.2,0.6s0.5,0.4,0.9,0.6c0.5,0.3,0.8,0.5,1,0.7s0.3,0.4,0.4,0.6C124,70.2,124.1,70.4,124.1,70.7z"/>
		<path id="XMLID_304_" class="st1" d="M127.5,72.8c-0.6,0-1-0.2-1.4-0.6s-0.5-1-0.5-1.8c0-0.9,0.1-1.7,0.4-2.4
			c0.3-0.8,0.7-1.3,1.2-1.8c0.5-0.4,1.1-0.6,1.7-0.6c0.4,0,0.7,0.1,1,0.3c0.3,0.2,0.5,0.5,0.7,0.9h0.1l0.4-1.1h0.9l-1.5,7h-0.9
			l0.2-1.3h-0.1C129.1,72.4,128.3,72.8,127.5,72.8z M127.9,71.9c0.4,0,0.8-0.2,1.2-0.6c0.4-0.4,0.7-0.9,1-1.5
			c0.2-0.6,0.4-1.2,0.4-1.9c0-0.4-0.1-0.8-0.3-1s-0.5-0.4-0.9-0.4c-0.4,0-0.8,0.2-1.2,0.5s-0.7,0.8-0.9,1.4
			c-0.2,0.6-0.3,1.3-0.3,1.9c0,0.5,0.1,0.8,0.3,1.1S127.5,71.9,127.9,71.9z"/>
		<path id="XMLID_307_" class="st1" d="M133,65.8h1.1l0.5,3.4c0,0.3,0.1,0.7,0.1,1.2c0,0.5,0.1,1,0.1,1.4h0c0.1-0.3,0.3-0.7,0.5-1.1
			c0.2-0.5,0.4-0.8,0.5-1.1l2-3.8h1.2l-4.4,8.1c-0.4,0.7-0.8,1.2-1.2,1.5c-0.4,0.3-0.9,0.4-1.4,0.4c-0.3,0-0.6,0-0.9-0.1v-0.9
			c0.3,0.1,0.5,0.1,0.8,0.1c0.3,0,0.6-0.1,0.9-0.3s0.5-0.5,0.7-0.9l0.5-0.8L133,65.8z"/>
		<path id="XMLID_309_" class="st1" d="M140.9,72.8c-0.6,0-1-0.2-1.4-0.6s-0.5-1-0.5-1.8c0-0.9,0.1-1.7,0.4-2.4
			c0.3-0.8,0.7-1.3,1.2-1.8c0.5-0.4,1.1-0.6,1.7-0.6c0.4,0,0.7,0.1,1,0.3c0.3,0.2,0.5,0.5,0.7,0.9h0.1l0.4-1.1h0.9l-1.5,7h-0.9
			l0.2-1.3h-0.1C142.6,72.4,141.8,72.8,140.9,72.8z M141.3,71.9c0.4,0,0.8-0.2,1.2-0.6c0.4-0.4,0.7-0.9,1-1.5
			c0.2-0.6,0.4-1.2,0.4-1.9c0-0.4-0.1-0.8-0.3-1s-0.5-0.4-0.9-0.4c-0.4,0-0.8,0.2-1.2,0.5s-0.7,0.8-0.9,1.4
			c-0.2,0.6-0.3,1.3-0.3,1.9c0,0.5,0.1,0.8,0.3,1.1S141,71.9,141.3,71.9z"/>
		<path id="XMLID_312_" class="st1" d="M152.7,72.8c-0.4,0-0.8-0.1-1.1-0.3c-0.3-0.2-0.5-0.5-0.7-0.9h-0.1l-0.4,1.1h-0.9l2.1-9.9
			h1.1l-0.5,2.3c-0.1,0.4-0.2,0.8-0.3,1.2s-0.2,0.6-0.2,0.7h0.1c0.4-0.5,0.8-0.9,1.2-1.1c0.4-0.2,0.7-0.3,1.1-0.3
			c0.6,0,1.1,0.2,1.4,0.6c0.3,0.4,0.5,1,0.5,1.7c0,0.9-0.1,1.7-0.4,2.4c-0.3,0.8-0.7,1.3-1.2,1.8C153.9,72.6,153.3,72.8,152.7,72.8z
			 M153.8,66.6c-0.4,0-0.8,0.2-1.2,0.6c-0.4,0.4-0.7,0.9-1,1.5c-0.2,0.6-0.4,1.2-0.4,1.8c0,0.4,0.1,0.8,0.3,1c0.2,0.2,0.6,0.4,1,0.4
			c0.4,0,0.8-0.2,1.2-0.5c0.4-0.3,0.6-0.8,0.8-1.4c0.2-0.6,0.3-1.3,0.3-1.9C154.9,67.1,154.5,66.6,153.8,66.6z"/>
		<path id="XMLID_315_" class="st1" d="M158.2,72.7h-1.1l1.5-7h1.1L158.2,72.7z M158.9,64c0-0.2,0.1-0.4,0.2-0.6s0.3-0.2,0.6-0.2
			c0.4,0,0.6,0.2,0.6,0.6c0,0.3-0.1,0.5-0.2,0.6c-0.1,0.2-0.3,0.2-0.5,0.2c-0.2,0-0.3-0.1-0.4-0.2C158.9,64.3,158.9,64.2,158.9,64z"
			/>
		<path id="XMLID_318_" class="st1" d="M164.8,70.7c0,0.7-0.2,1.2-0.7,1.6c-0.5,0.4-1.1,0.6-2,0.6c-0.8,0-1.4-0.1-1.9-0.4v-1.1
			c0.3,0.2,0.6,0.3,0.9,0.4c0.3,0.1,0.7,0.2,1,0.2c0.5,0,0.9-0.1,1.2-0.3s0.4-0.5,0.4-0.8c0-0.2-0.1-0.4-0.2-0.6
			c-0.1-0.2-0.5-0.4-0.9-0.7c-0.5-0.3-0.9-0.6-1.2-0.9S161,68,161,67.6c0-0.6,0.2-1.1,0.6-1.4c0.4-0.4,1-0.5,1.7-0.5
			c0.7,0,1.4,0.2,2.1,0.5l-0.4,0.9c-0.2-0.1-0.5-0.2-0.8-0.3s-0.6-0.1-1-0.1c-0.4,0-0.7,0.1-0.9,0.3c-0.2,0.2-0.3,0.4-0.3,0.7
			c0,0.2,0.1,0.4,0.2,0.6s0.5,0.4,0.9,0.6c0.5,0.3,0.8,0.5,1,0.7s0.3,0.4,0.4,0.6C164.7,70.2,164.8,70.4,164.8,70.7z"/>
		<path id="XMLID_320_" class="st1" d="M168.2,72.8c-0.6,0-1-0.2-1.4-0.6s-0.5-1-0.5-1.8c0-0.9,0.1-1.7,0.4-2.4
			c0.3-0.8,0.7-1.3,1.2-1.8c0.5-0.4,1.1-0.6,1.7-0.6c0.4,0,0.7,0.1,1,0.3c0.3,0.2,0.5,0.5,0.7,0.9h0.1l0.4-1.1h0.9l-1.5,7h-0.9
			l0.2-1.3h-0.1C169.8,72.4,169,72.8,168.2,72.8z M168.6,71.9c0.4,0,0.8-0.2,1.2-0.6c0.4-0.4,0.7-0.9,1-1.5c0.2-0.6,0.4-1.2,0.4-1.9
			c0-0.4-0.1-0.8-0.3-1s-0.5-0.4-0.9-0.4c-0.4,0-0.8,0.2-1.2,0.5s-0.7,0.8-0.9,1.4c-0.2,0.6-0.3,1.3-0.3,1.9c0,0.5,0.1,0.8,0.3,1.1
			S168.2,71.9,168.6,71.9z"/>
		<path id="XMLID_334_" class="st1" d="M181.4,65.6c0.5,0,0.8,0.1,1.1,0.4c0.3,0.3,0.4,0.7,0.5,1.1h0.1c0.7-1,1.5-1.5,2.4-1.5
			c0.5,0,1,0.1,1.3,0.4s0.4,0.7,0.4,1.3c0,0.4,0,0.8-0.1,1.1l-0.9,4.2h-1.2l0.9-4.4c0.1-0.4,0.1-0.7,0.1-0.9c0-0.3-0.1-0.5-0.2-0.6
			s-0.4-0.2-0.7-0.2c-0.3,0-0.7,0.1-1,0.4s-0.6,0.6-0.9,1c-0.3,0.5-0.4,1-0.6,1.6l-0.7,3.1h-1.1l0.9-4.4c0.1-0.4,0.1-0.7,0.1-0.9
			c0-0.6-0.3-0.9-0.8-0.9c-0.3,0-0.7,0.1-1,0.4s-0.6,0.6-0.9,1.1s-0.4,1-0.6,1.7l-0.6,3h-1.1l1.5-7h0.9l-0.1,1.3h0.1
			c0.3-0.4,0.5-0.7,0.7-0.8c0.2-0.2,0.4-0.3,0.7-0.4C180.8,65.7,181.1,65.6,181.4,65.6z"/>
		<path id="XMLID_336_" class="st1" d="M191,72.8c-0.8,0-1.4-0.2-1.9-0.7c-0.4-0.5-0.7-1.1-0.7-1.9c0-0.8,0.2-1.6,0.5-2.3
			c0.3-0.7,0.7-1.3,1.3-1.7c0.5-0.4,1.1-0.6,1.8-0.6c0.7,0,1.2,0.1,1.5,0.4c0.3,0.3,0.5,0.7,0.5,1.2c0,0.8-0.4,1.4-1.1,1.8
			s-1.7,0.7-3,0.7h-0.2l0,0.5c0,0.5,0.1,1,0.4,1.3s0.7,0.5,1.2,0.5c0.3,0,0.6,0,0.9-0.1c0.3-0.1,0.6-0.2,1-0.4v1
			c-0.4,0.2-0.8,0.3-1.1,0.4C191.7,72.8,191.3,72.8,191,72.8z M191.9,66.6c-0.4,0-0.8,0.2-1.2,0.6c-0.4,0.4-0.7,0.9-0.8,1.6h0.1
			c0.9,0,1.6-0.1,2.1-0.4c0.5-0.2,0.8-0.6,0.8-1.1c0-0.2-0.1-0.4-0.2-0.6C192.4,66.6,192.2,66.6,191.9,66.6z"/>
		<path id="XMLID_339_" class="st1" d="M200.1,72.7h-1.1l0.9-4.4c0.1-0.4,0.1-0.7,0.1-0.9c0-0.3-0.1-0.5-0.2-0.6
			c-0.1-0.2-0.4-0.2-0.7-0.2c-0.4,0-0.7,0.1-1.1,0.4s-0.7,0.6-0.9,1.1c-0.3,0.5-0.5,1-0.6,1.7l-0.6,3h-1.1l1.5-7h0.9L197,67h0.1
			c0.3-0.4,0.5-0.6,0.8-0.8s0.5-0.3,0.7-0.4c0.3-0.1,0.5-0.2,0.8-0.2c0.5,0,1,0.1,1.3,0.4c0.3,0.3,0.5,0.7,0.5,1.3
			c0,0.3,0,0.7-0.1,1.1L200.1,72.7z"/>
		<path id="XMLID_341_" class="st1" d="M204.3,75.8c-0.8,0-1.5-0.1-2.1-0.4v-1.1c0.3,0.2,0.6,0.3,1,0.4c0.4,0.1,0.7,0.2,1.1,0.2
			c0.6,0,1-0.1,1.3-0.4c0.3-0.3,0.6-0.7,0.7-1.3l0.3-1.3l0.1-0.4h-0.1c-0.4,0.5-0.8,0.9-1.1,1.1c-0.4,0.2-0.8,0.3-1.2,0.3
			c-0.6,0-1.1-0.2-1.4-0.6s-0.5-1-0.5-1.8c0-0.9,0.2-1.7,0.5-2.5c0.3-0.8,0.7-1.3,1.2-1.7c0.5-0.4,1.1-0.6,1.7-0.6
			c0.8,0,1.4,0.4,1.8,1.2h0.1l0.4-1.1h0.9l-1.6,7.4c-0.2,0.9-0.6,1.6-1.1,2.1C205.8,75.6,205.1,75.8,204.3,75.8z M204.7,71.9
			c0.4,0,0.8-0.2,1.2-0.6s0.7-0.9,1-1.5s0.4-1.2,0.4-1.8c0-0.9-0.4-1.4-1.3-1.4c-0.4,0-0.8,0.2-1.2,0.5c-0.4,0.4-0.6,0.8-0.8,1.5
			c-0.2,0.6-0.3,1.3-0.3,1.9C203.6,71.4,204,71.9,204.7,71.9z"/>
		<path id="XMLID_344_" class="st1" d="M211.1,65.8h1.2l-0.9,4.4c-0.1,0.4-0.1,0.7-0.1,0.9c0,0.6,0.3,0.9,0.9,0.9
			c0.4,0,0.7-0.1,1.1-0.4s0.7-0.6,0.9-1.1c0.3-0.5,0.5-1,0.6-1.7l0.6-3h1.1l-1.5,7h-0.9l0.1-1.3h-0.1c-0.4,0.5-0.8,0.9-1.1,1.1
			c-0.4,0.2-0.8,0.3-1.2,0.3c-0.5,0-1-0.2-1.3-0.5s-0.5-0.7-0.5-1.3c0-0.3,0-0.6,0.1-1.1L211.1,65.8z"/>
		<path id="XMLID_346_" class="st1" d="M222.6,72.7h-1.1l0.9-4.4c0.1-0.4,0.1-0.7,0.1-0.9c0-0.3-0.1-0.5-0.2-0.6
			c-0.1-0.2-0.4-0.2-0.7-0.2c-0.4,0-0.7,0.1-1.1,0.4s-0.7,0.6-0.9,1.1c-0.3,0.5-0.5,1-0.6,1.7l-0.6,3h-1.1l1.5-7h0.9l-0.1,1.3h0.1
			c0.3-0.4,0.5-0.6,0.8-0.8s0.5-0.3,0.7-0.4c0.3-0.1,0.5-0.2,0.8-0.2c0.5,0,1,0.1,1.3,0.4c0.3,0.3,0.5,0.7,0.5,1.3
			c0,0.3,0,0.7-0.1,1.1L222.6,72.7z"/>
		<path id="XMLID_348_" class="st1" d="M223.6,75.8c-0.3,0-0.6,0-0.8-0.1v-1c0.2,0.1,0.5,0.1,0.8,0.1c0.5,0,0.9-0.4,1.1-1.3l1.7-7.9
			h1.1l-1.7,8c-0.2,0.7-0.4,1.3-0.8,1.6C224.6,75.7,224.2,75.8,223.6,75.8z M226.6,64c0-0.2,0.1-0.4,0.2-0.6s0.3-0.2,0.6-0.2
			c0.4,0,0.6,0.2,0.6,0.6c0,0.3-0.1,0.5-0.2,0.6c-0.1,0.2-0.3,0.2-0.5,0.2c-0.2,0-0.3-0.1-0.4-0.2C226.6,64.3,226.6,64.2,226.6,64z"
			/>
		<path id="XMLID_351_" class="st1" d="M229.6,65.8h1.2l-0.9,4.4c-0.1,0.4-0.1,0.7-0.1,0.9c0,0.6,0.3,0.9,0.9,0.9
			c0.4,0,0.7-0.1,1.1-0.4s0.7-0.6,0.9-1.1c0.3-0.5,0.5-1,0.6-1.7l0.6-3h1.1l-1.5,7h-0.9l0.1-1.3h-0.1c-0.4,0.5-0.8,0.9-1.1,1.1
			c-0.4,0.2-0.8,0.3-1.2,0.3c-0.5,0-1-0.2-1.3-0.5s-0.5-0.7-0.5-1.3c0-0.3,0-0.6,0.1-1.1L229.6,65.8z"/>
		<path id="XMLID_353_" class="st1" d="M241.1,72.7h-1.1l0.9-4.4c0.1-0.4,0.1-0.7,0.1-0.9c0-0.3-0.1-0.5-0.2-0.6
			c-0.1-0.2-0.4-0.2-0.7-0.2c-0.4,0-0.7,0.1-1.1,0.4s-0.7,0.6-0.9,1.1c-0.3,0.5-0.5,1-0.6,1.7l-0.6,3h-1.1l1.5-7h0.9l-0.1,1.3h0.1
			c0.3-0.4,0.5-0.6,0.8-0.8s0.5-0.3,0.7-0.4c0.3-0.1,0.5-0.2,0.8-0.2c0.5,0,1,0.1,1.3,0.4c0.3,0.3,0.5,0.7,0.5,1.3
			c0,0.3,0,0.7-0.1,1.1L241.1,72.7z"/>
		<path id="XMLID_355_" class="st1" d="M245.3,75.8c-0.8,0-1.5-0.1-2.1-0.4v-1.1c0.3,0.2,0.6,0.3,1,0.4c0.4,0.1,0.7,0.2,1.1,0.2
			c0.6,0,1-0.1,1.3-0.4c0.3-0.3,0.6-0.7,0.7-1.3l0.3-1.3l0.1-0.4h-0.1c-0.4,0.5-0.8,0.9-1.1,1.1c-0.4,0.2-0.8,0.3-1.2,0.3
			c-0.6,0-1.1-0.2-1.4-0.6s-0.5-1-0.5-1.8c0-0.9,0.2-1.7,0.5-2.5c0.3-0.8,0.7-1.3,1.2-1.7c0.5-0.4,1.1-0.6,1.7-0.6
			c0.8,0,1.4,0.4,1.8,1.2h0.1l0.4-1.1h0.9l-1.6,7.4c-0.2,0.9-0.6,1.6-1.1,2.1C246.8,75.6,246.1,75.8,245.3,75.8z M245.7,71.9
			c0.4,0,0.8-0.2,1.2-0.6s0.7-0.9,1-1.5s0.4-1.2,0.4-1.8c0-0.9-0.4-1.4-1.3-1.4c-0.4,0-0.8,0.2-1.2,0.5c-0.4,0.4-0.6,0.8-0.8,1.5
			c-0.2,0.6-0.3,1.3-0.3,1.9C244.6,71.4,245,71.9,245.7,71.9z"/>
		<path id="XMLID_358_" class="st1" d="M251.9,72.7h-1.1l1.5-7h1.1L251.9,72.7z M252.5,64c0-0.2,0.1-0.4,0.2-0.6s0.3-0.2,0.6-0.2
			c0.4,0,0.6,0.2,0.6,0.6c0,0.3-0.1,0.5-0.2,0.6c-0.1,0.2-0.3,0.2-0.5,0.2c-0.2,0-0.3-0.1-0.4-0.2C252.6,64.3,252.5,64.2,252.5,64z"
			/>
		<path id="XMLID_361_" class="st1" d="M69.4,86.3c0,0.7-0.2,1.2-0.7,1.6c-0.5,0.4-1.1,0.6-2,0.6c-0.8,0-1.4-0.1-1.9-0.4V87
			c0.3,0.2,0.6,0.3,0.9,0.4c0.3,0.1,0.7,0.2,1,0.2c0.5,0,0.9-0.1,1.2-0.3s0.4-0.5,0.4-0.8c0-0.2-0.1-0.4-0.2-0.6
			c-0.1-0.2-0.5-0.4-0.9-0.7c-0.5-0.3-0.9-0.6-1.2-0.9s-0.3-0.7-0.3-1.1c0-0.6,0.2-1.1,0.6-1.4c0.4-0.4,1-0.5,1.7-0.5
			c0.7,0,1.4,0.2,2.1,0.5l-0.4,0.9c-0.2-0.1-0.5-0.2-0.8-0.3s-0.6-0.1-1-0.1c-0.4,0-0.7,0.1-0.9,0.3c-0.2,0.2-0.3,0.4-0.3,0.7
			c0,0.2,0.1,0.4,0.2,0.6s0.5,0.4,0.9,0.6c0.5,0.3,0.8,0.5,1,0.7s0.3,0.4,0.4,0.6C69.4,85.8,69.4,86,69.4,86.3z"/>
		<path id="XMLID_363_" class="st1" d="M73.5,88.4c-0.8,0-1.4-0.2-1.9-0.7c-0.4-0.5-0.7-1.1-0.7-1.9c0-0.8,0.2-1.6,0.5-2.3
			c0.3-0.7,0.7-1.3,1.3-1.7c0.5-0.4,1.1-0.6,1.8-0.6c0.7,0,1.2,0.1,1.5,0.4c0.3,0.3,0.5,0.7,0.5,1.2c0,0.8-0.4,1.4-1.1,1.8
			s-1.7,0.7-3,0.7h-0.2l0,0.5c0,0.5,0.1,1,0.4,1.3s0.7,0.5,1.2,0.5c0.3,0,0.6,0,0.9-0.1c0.3-0.1,0.6-0.2,1-0.4v1
			c-0.4,0.2-0.8,0.3-1.1,0.4C74.2,88.4,73.8,88.4,73.5,88.4z M74.4,82.2c-0.4,0-0.8,0.2-1.2,0.6c-0.4,0.4-0.7,0.9-0.8,1.6h0.1
			c0.9,0,1.6-0.1,2.1-0.4c0.5-0.2,0.8-0.6,0.8-1.1c0-0.2-0.1-0.4-0.2-0.6C74.9,82.2,74.7,82.2,74.4,82.2z"/>
		<path id="XMLID_366_" class="st1" d="M80.3,88.4c-0.4,0-0.8-0.1-1.1-0.3c-0.3-0.2-0.5-0.5-0.7-0.9h-0.1L78,88.3h-0.9l2.1-9.9h1.1
			l-0.5,2.3c-0.1,0.4-0.2,0.8-0.3,1.2s-0.2,0.6-0.2,0.7h0.1c0.4-0.5,0.8-0.9,1.2-1.1c0.4-0.2,0.7-0.3,1.1-0.3c0.6,0,1.1,0.2,1.4,0.6
			c0.3,0.4,0.5,1,0.5,1.7c0,0.9-0.1,1.7-0.4,2.4c-0.3,0.8-0.7,1.3-1.2,1.8C81.5,88.2,81,88.4,80.3,88.4z M81.4,82.2
			c-0.4,0-0.8,0.2-1.2,0.6c-0.4,0.4-0.7,0.9-1,1.5c-0.2,0.6-0.4,1.2-0.4,1.8c0,0.4,0.1,0.8,0.3,1c0.2,0.2,0.6,0.4,1,0.4
			c0.4,0,0.8-0.2,1.2-0.5c0.4-0.3,0.6-0.8,0.8-1.4c0.2-0.6,0.3-1.3,0.3-1.9C82.5,82.7,82.2,82.2,81.4,82.2z"/>
		<path id="XMLID_369_" class="st1" d="M86.1,81.4h1.2l-0.9,4.4c-0.1,0.4-0.1,0.7-0.1,0.9c0,0.6,0.3,0.9,0.9,0.9
			c0.4,0,0.7-0.1,1.1-0.4s0.7-0.6,0.9-1.1c0.3-0.5,0.5-1,0.6-1.7l0.6-3h1.1l-1.5,7h-0.9l0.1-1.3h-0.1c-0.4,0.5-0.8,0.9-1.1,1.1
			c-0.4,0.2-0.8,0.3-1.2,0.3c-0.5,0-1-0.2-1.3-0.5s-0.5-0.7-0.5-1.3c0-0.3,0-0.6,0.1-1.1L86.1,81.4z"/>
		<path id="XMLID_371_" class="st1" d="M94.4,88.4c-0.6,0-1-0.2-1.4-0.6s-0.5-1-0.5-1.8c0-0.9,0.1-1.7,0.4-2.4
			c0.3-0.8,0.7-1.3,1.2-1.8c0.5-0.4,1.1-0.6,1.7-0.6c0.4,0,0.7,0.1,1,0.3c0.3,0.2,0.5,0.5,0.7,0.9h0.1l0.4-1.1H99l-1.5,7h-0.9
			l0.2-1.3h-0.1C96,88,95.2,88.4,94.4,88.4z M94.8,87.5c0.4,0,0.8-0.2,1.2-0.6c0.4-0.4,0.7-0.9,1-1.5c0.2-0.6,0.4-1.2,0.4-1.9
			c0-0.4-0.1-0.8-0.3-1s-0.5-0.4-0.9-0.4c-0.4,0-0.8,0.2-1.2,0.5s-0.7,0.8-0.9,1.4c-0.2,0.6-0.3,1.3-0.3,1.9c0,0.5,0.1,0.8,0.3,1.1
			S94.4,87.5,94.8,87.5z"/>
		<path id="XMLID_374_" class="st1" d="M105,88.3h-1.1l0.9-4.4c0.1-0.4,0.1-0.7,0.1-0.9c0-0.6-0.3-0.9-0.9-0.9
			c-0.4,0-0.7,0.1-1.1,0.4s-0.7,0.6-0.9,1.1s-0.5,1-0.6,1.7l-0.6,3h-1.1l2.1-9.9h1.1l-0.6,2.6c-0.1,0.3-0.1,0.5-0.2,0.8
			s-0.1,0.6-0.2,0.8h0.1c0.4-0.5,0.8-0.9,1.1-1.1c0.4-0.2,0.8-0.3,1.2-0.3c0.6,0,1,0.2,1.3,0.5s0.5,0.7,0.5,1.3c0,0.2,0,0.6-0.1,1.1
			L105,88.3z"/>
		<path id="XMLID_376_" class="st1" d="M112.7,87.5c0.3,0,0.6-0.1,0.9-0.2v0.9c-0.1,0.1-0.3,0.1-0.5,0.2c-0.2,0-0.4,0.1-0.6,0.1
			c-0.5,0-1-0.1-1.2-0.4s-0.4-0.6-0.4-1.1c0-0.3,0-0.6,0.1-0.9l0.8-3.8h-1.1l0.1-0.5l1.2-0.5l0.8-1.4h0.7l-0.3,1.6h1.8l-0.2,0.9H113
			l-0.8,3.8c-0.1,0.3-0.1,0.6-0.1,0.8c0,0.2,0.1,0.4,0.2,0.5S112.5,87.5,112.7,87.5z"/>
		<path id="XMLID_378_" class="st1" d="M121.2,84c0,0.8-0.2,1.6-0.5,2.3c-0.3,0.7-0.7,1.2-1.2,1.6c-0.5,0.4-1.1,0.6-1.8,0.6
			c-0.8,0-1.4-0.2-1.9-0.7c-0.5-0.5-0.7-1.1-0.7-2c0-0.8,0.2-1.6,0.5-2.3s0.7-1.3,1.3-1.6c0.5-0.4,1.1-0.6,1.8-0.6
			c0.8,0,1.4,0.2,1.9,0.7C121,82.5,121.2,83.1,121.2,84z M120,83.8c0-0.5-0.1-0.9-0.4-1.2s-0.6-0.4-1-0.4c-0.4,0-0.9,0.2-1.2,0.5
			c-0.4,0.3-0.6,0.7-0.8,1.3c-0.2,0.6-0.3,1.2-0.3,1.8c0,0.5,0.1,1,0.4,1.3c0.3,0.3,0.6,0.4,1.1,0.4c0.4,0,0.8-0.2,1.2-0.5
			s0.6-0.7,0.8-1.3C119.9,85.2,120,84.5,120,83.8z"/>
		<path id="XMLID_381_" class="st1" d="M127.3,81.4h1.4l-3,3l1.9,4h-1.3l-1.5-3.3l-0.9,0.7l-0.5,2.5h-1.2l2.1-9.9h1.2
			c-0.4,1.7-0.7,3.1-0.9,4c-0.2,0.9-0.4,1.7-0.6,2.3h0L127.3,81.4z"/>
		<path id="XMLID_383_" class="st1" d="M134.8,84c0,0.8-0.2,1.6-0.5,2.3c-0.3,0.7-0.7,1.2-1.2,1.6c-0.5,0.4-1.1,0.6-1.8,0.6
			c-0.8,0-1.4-0.2-1.9-0.7c-0.5-0.5-0.7-1.1-0.7-2c0-0.8,0.2-1.6,0.5-2.3s0.7-1.3,1.3-1.6c0.5-0.4,1.1-0.6,1.8-0.6
			c0.8,0,1.4,0.2,1.9,0.7C134.6,82.5,134.8,83.1,134.8,84z M133.6,83.8c0-0.5-0.1-0.9-0.4-1.2s-0.6-0.4-1-0.4
			c-0.4,0-0.9,0.2-1.2,0.5c-0.4,0.3-0.6,0.7-0.8,1.3c-0.2,0.6-0.3,1.2-0.3,1.8c0,0.5,0.1,1,0.4,1.3c0.3,0.3,0.6,0.4,1.1,0.4
			c0.4,0,0.8-0.2,1.2-0.5s0.6-0.7,0.8-1.3C133.5,85.2,133.6,84.5,133.6,83.8z"/>
		<path id="XMLID_386_" class="st1" d="M139.4,81.4h1.1l0.5,3.4c0,0.3,0.1,0.7,0.1,1.2c0,0.5,0.1,1,0.1,1.4h0
			c0.1-0.3,0.3-0.7,0.5-1.1c0.2-0.5,0.4-0.8,0.5-1.1l2-3.8h1.2l-4.4,8.1c-0.4,0.7-0.8,1.2-1.2,1.5c-0.4,0.3-0.9,0.4-1.4,0.4
			c-0.3,0-0.6,0-0.9-0.1v-0.9c0.3,0.1,0.5,0.1,0.8,0.1c0.3,0,0.6-0.1,0.9-0.3s0.5-0.5,0.7-0.9l0.5-0.8L139.4,81.4z"/>
		<path id="XMLID_388_" class="st1" d="M147.4,88.4c-0.6,0-1-0.2-1.4-0.6s-0.5-1-0.5-1.8c0-0.9,0.1-1.7,0.4-2.4
			c0.3-0.8,0.7-1.3,1.2-1.8c0.5-0.4,1.1-0.6,1.7-0.6c0.4,0,0.7,0.1,1,0.3c0.3,0.2,0.5,0.5,0.7,0.9h0.1l0.4-1.1h0.9l-1.5,7h-0.9
			l0.2-1.3h-0.1C149,88,148.2,88.4,147.4,88.4z M147.8,87.5c0.4,0,0.8-0.2,1.2-0.6c0.4-0.4,0.7-0.9,1-1.5c0.2-0.6,0.4-1.2,0.4-1.9
			c0-0.4-0.1-0.8-0.3-1s-0.5-0.4-0.9-0.4c-0.4,0-0.8,0.2-1.2,0.5s-0.7,0.8-0.9,1.4c-0.2,0.6-0.3,1.3-0.3,1.9c0,0.5,0.1,0.8,0.3,1.1
			S147.4,87.5,147.8,87.5z"/>
		<path id="XMLID_391_" class="st1" d="M158,88.3h-1.1l0.9-4.4c0.1-0.4,0.1-0.7,0.1-0.9c0-0.3-0.1-0.5-0.2-0.6
			c-0.1-0.2-0.4-0.2-0.7-0.2c-0.4,0-0.7,0.1-1.1,0.4s-0.7,0.6-0.9,1.1c-0.3,0.5-0.5,1-0.6,1.7l-0.6,3h-1.1l1.5-7h0.9l-0.1,1.3h0.1
			c0.3-0.4,0.5-0.6,0.8-0.8s0.5-0.3,0.7-0.4c0.3-0.1,0.5-0.2,0.8-0.2c0.5,0,1,0.1,1.3,0.4c0.3,0.3,0.5,0.7,0.5,1.3
			c0,0.3,0,0.7-0.1,1.1L158,88.3z"/>
		<path id="XMLID_393_" class="st1" d="M162.2,91.4c-0.8,0-1.5-0.1-2.1-0.4v-1.1c0.3,0.2,0.6,0.3,1,0.4c0.4,0.1,0.7,0.2,1.1,0.2
			c0.6,0,1-0.1,1.3-0.4c0.3-0.3,0.6-0.7,0.7-1.3l0.3-1.3l0.1-0.4h-0.1c-0.4,0.5-0.8,0.9-1.1,1.1c-0.4,0.2-0.8,0.3-1.2,0.3
			c-0.6,0-1.1-0.2-1.4-0.6s-0.5-1-0.5-1.8c0-0.9,0.2-1.7,0.5-2.5c0.3-0.8,0.7-1.3,1.2-1.7c0.5-0.4,1.1-0.6,1.7-0.6
			c0.8,0,1.4,0.4,1.8,1.2h0.1l0.4-1.1h0.9l-1.6,7.4c-0.2,0.9-0.6,1.6-1.1,2.1C163.8,91.2,163.1,91.4,162.2,91.4z M162.7,87.5
			c0.4,0,0.8-0.2,1.2-0.6s0.7-0.9,1-1.5s0.4-1.2,0.4-1.8c0-0.9-0.4-1.4-1.3-1.4c-0.4,0-0.8,0.2-1.2,0.5c-0.4,0.4-0.6,0.8-0.8,1.5
			c-0.2,0.6-0.3,1.3-0.3,1.9C161.6,87,161.9,87.5,162.7,87.5z"/>
		<path id="XMLID_396_" class="st1" d="M173.2,88.4c-0.6,0-1-0.2-1.4-0.6s-0.5-1-0.5-1.8c0-0.9,0.1-1.7,0.4-2.4
			c0.3-0.8,0.7-1.3,1.2-1.8c0.5-0.4,1.1-0.6,1.7-0.6c0.4,0,0.7,0.1,1,0.3c0.3,0.2,0.5,0.5,0.7,0.9h0.1l0.4-1.1h0.9l-1.5,7h-0.9
			l0.2-1.3h-0.1C174.8,88,174,88.4,173.2,88.4z M173.6,87.5c0.4,0,0.8-0.2,1.2-0.6c0.4-0.4,0.7-0.9,1-1.5c0.2-0.6,0.4-1.2,0.4-1.9
			c0-0.4-0.1-0.8-0.3-1s-0.5-0.4-0.9-0.4c-0.4,0-0.8,0.2-1.2,0.5s-0.7,0.8-0.9,1.4c-0.2,0.6-0.3,1.3-0.3,1.9c0,0.5,0.1,0.8,0.3,1.1
			S173.2,87.5,173.6,87.5z"/>
		<path id="XMLID_399_" class="st1" d="M180.6,88.4c-0.6,0-1-0.2-1.4-0.6c-0.3-0.4-0.5-1-0.5-1.8c0-0.9,0.1-1.7,0.4-2.5
			c0.3-0.8,0.7-1.3,1.2-1.8s1.1-0.6,1.7-0.6c0.8,0,1.4,0.4,1.8,1.2h0.1c0.1-0.7,0.2-1.3,0.3-1.7l0.5-2.3h1.1l-2.1,9.9h-0.9l0.1-1.3
			h-0.1c-0.4,0.5-0.8,0.9-1.2,1.1C181.4,88.3,181,88.4,180.6,88.4z M181,87.5c0.4,0,0.8-0.2,1.2-0.6s0.7-0.9,1-1.5s0.4-1.2,0.4-1.8
			c0-0.5-0.1-0.8-0.3-1s-0.5-0.4-1-0.4c-0.4,0-0.8,0.2-1.2,0.5s-0.6,0.8-0.8,1.4c-0.2,0.6-0.3,1.3-0.3,1.9
			C179.9,87,180.2,87.5,181,87.5z"/>
		<path id="XMLID_402_" class="st1" d="M188.1,88.4c-0.6,0-1-0.2-1.4-0.6s-0.5-1-0.5-1.8c0-0.9,0.1-1.7,0.4-2.4
			c0.3-0.8,0.7-1.3,1.2-1.8c0.5-0.4,1.1-0.6,1.7-0.6c0.4,0,0.7,0.1,1,0.3c0.3,0.2,0.5,0.5,0.7,0.9h0.1l0.4-1.1h0.9l-1.5,7h-0.9
			l0.2-1.3h-0.1C189.7,88,189,88.4,188.1,88.4z M188.5,87.5c0.4,0,0.8-0.2,1.2-0.6c0.4-0.4,0.7-0.9,1-1.5c0.2-0.6,0.4-1.2,0.4-1.9
			c0-0.4-0.1-0.8-0.3-1s-0.5-0.4-0.9-0.4c-0.4,0-0.8,0.2-1.2,0.5s-0.7,0.8-0.9,1.4c-0.2,0.6-0.3,1.3-0.3,1.9c0,0.5,0.1,0.8,0.3,1.1
			S188.1,87.5,188.5,87.5z"/>
		<path id="XMLID_405_" class="st1" d="M194,87.8c0-0.3,0.1-0.6,0.3-0.8c0.2-0.2,0.4-0.3,0.7-0.3c0.2,0,0.3,0.1,0.5,0.2
			s0.2,0.3,0.2,0.5c0,0.3-0.1,0.6-0.3,0.8c-0.2,0.2-0.4,0.3-0.7,0.3c-0.2,0-0.4-0.1-0.5-0.2C194,88.2,194,88,194,87.8z M194.6,85.7
			c0.1-0.6,0.3-1,0.5-1.4c0.2-0.4,0.6-0.7,1-1.1c0.5-0.4,0.8-0.7,1-0.9c0.2-0.2,0.3-0.4,0.4-0.6c0.1-0.2,0.1-0.4,0.1-0.7
			c0-0.4-0.1-0.7-0.3-0.9c-0.2-0.2-0.5-0.3-0.9-0.3c-0.3,0-0.7,0.1-1,0.2c-0.3,0.1-0.6,0.2-0.9,0.4l-0.4-0.9
			c0.4-0.2,0.8-0.4,1.2-0.5s0.8-0.2,1.2-0.2c0.7,0,1.3,0.2,1.7,0.5s0.6,0.9,0.6,1.5c0,0.5-0.1,1-0.4,1.4s-0.8,0.9-1.5,1.4
			c-0.5,0.4-0.9,0.7-1.1,0.9c-0.2,0.2-0.3,0.6-0.4,1H194.6z"/>
		<path id="XMLID_408_" class="st1" d="M207,86.6l4.1-7.6h1.8l-1.9,9.3h-1.2l1.2-5.5c0.3-1.2,0.5-2.1,0.6-2.6h0l-4.5,8.2h-0.9
			l-1-8.1h-0.1c-0.1,0.7-0.2,1.5-0.4,2.6l-1.2,5.6h-1.1l2-9.3h1.6L207,86.6L207,86.6z"/>
		<path id="XMLID_410_" class="st1" d="M214.7,81.4h1.2l-0.9,4.4c-0.1,0.4-0.1,0.7-0.1,0.9c0,0.6,0.3,0.9,0.9,0.9
			c0.4,0,0.7-0.1,1.1-0.4s0.7-0.6,0.9-1.1c0.3-0.5,0.5-1,0.6-1.7l0.6-3h1.1l-1.5,7h-0.9l0.1-1.3h-0.1c-0.4,0.5-0.8,0.9-1.1,1.1
			c-0.4,0.2-0.8,0.3-1.2,0.3c-0.5,0-1-0.2-1.3-0.5s-0.5-0.7-0.5-1.3c0-0.3,0-0.6,0.1-1.1L214.7,81.4z"/>
		<path id="XMLID_412_" class="st1" d="M226.2,88.3H225l0.9-4.4c0.1-0.4,0.1-0.7,0.1-0.9c0-0.3-0.1-0.5-0.2-0.6
			c-0.1-0.2-0.4-0.2-0.7-0.2c-0.4,0-0.7,0.1-1.1,0.4s-0.7,0.6-0.9,1.1c-0.3,0.5-0.5,1-0.6,1.7l-0.6,3h-1.1l1.5-7h0.9l-0.1,1.3h0.1
			c0.3-0.4,0.5-0.6,0.8-0.8s0.5-0.3,0.7-0.4c0.3-0.1,0.5-0.2,0.8-0.2c0.5,0,1,0.1,1.3,0.4c0.3,0.3,0.5,0.7,0.5,1.3
			c0,0.3,0,0.7-0.1,1.1L226.2,88.3z"/>
		<path id="XMLID_414_" class="st1" d="M230.4,91.4c-0.8,0-1.5-0.1-2.1-0.4v-1.1c0.3,0.2,0.6,0.3,1,0.4c0.4,0.1,0.7,0.2,1.1,0.2
			c0.6,0,1-0.1,1.3-0.4c0.3-0.3,0.6-0.7,0.7-1.3l0.3-1.3l0.1-0.4h-0.1c-0.4,0.5-0.8,0.9-1.1,1.1c-0.4,0.2-0.8,0.3-1.2,0.3
			c-0.6,0-1.1-0.2-1.4-0.6s-0.5-1-0.5-1.8c0-0.9,0.2-1.7,0.5-2.5c0.3-0.8,0.7-1.3,1.2-1.7c0.5-0.4,1.1-0.6,1.7-0.6
			c0.8,0,1.4,0.4,1.8,1.2h0.1l0.4-1.1h0.9l-1.6,7.4c-0.2,0.9-0.6,1.6-1.1,2.1C231.9,91.2,231.2,91.4,230.4,91.4z M230.8,87.5
			c0.4,0,0.8-0.2,1.2-0.6s0.7-0.9,1-1.5s0.4-1.2,0.4-1.8c0-0.9-0.4-1.4-1.3-1.4c-0.4,0-0.8,0.2-1.2,0.5c-0.4,0.4-0.6,0.8-0.8,1.5
			c-0.2,0.6-0.3,1.3-0.3,1.9C229.7,87,230.1,87.5,230.8,87.5z"/>
		<path id="XMLID_417_" class="st1" d="M240.9,81.4h1.4l-3,3l1.9,4h-1.3l-1.5-3.3l-0.9,0.7l-0.5,2.5h-1.2l2.1-9.9h1.2
			c-0.4,1.7-0.7,3.1-0.9,4c-0.2,0.9-0.4,1.7-0.6,2.3h0L240.9,81.4z"/>
		<path id="XMLID_419_" class="st1" d="M243.4,88.3h-1.1l1.5-7h1.1L243.4,88.3z M244,79.6c0-0.2,0.1-0.4,0.2-0.6s0.3-0.2,0.6-0.2
			c0.4,0,0.6,0.2,0.6,0.6c0,0.3-0.1,0.5-0.2,0.6c-0.1,0.2-0.3,0.2-0.5,0.2c-0.2,0-0.3-0.1-0.4-0.2C244.1,79.9,244,79.8,244,79.6z"/>
		<path id="XMLID_422_" class="st1" d="M251,88.3h-1.1l0.9-4.4c0.1-0.4,0.1-0.7,0.1-0.9c0-0.3-0.1-0.5-0.2-0.6
			c-0.1-0.2-0.4-0.2-0.7-0.2c-0.4,0-0.7,0.1-1.1,0.4s-0.7,0.6-0.9,1.1c-0.3,0.5-0.5,1-0.6,1.7l-0.6,3h-1.1l1.5-7h0.9l-0.1,1.3h0.1
			c0.3-0.4,0.5-0.6,0.8-0.8s0.5-0.3,0.7-0.4c0.3-0.1,0.5-0.2,0.8-0.2c0.5,0,1,0.1,1.3,0.4c0.3,0.3,0.5,0.7,0.5,1.3
			c0,0.3,0,0.7-0.1,1.1L251,88.3z"/>
		<path id="XMLID_424_" class="st1" d="M67.2,104c-0.6,0-1-0.2-1.4-0.6s-0.5-1-0.5-1.8c0-0.9,0.1-1.7,0.4-2.4
			c0.3-0.8,0.7-1.3,1.2-1.8c0.5-0.4,1.1-0.6,1.7-0.6c0.4,0,0.7,0.1,1,0.3c0.3,0.2,0.5,0.5,0.7,0.9h0.1L71,97h0.9l-1.5,7h-0.9
			l0.2-1.3h-0.1C68.9,103.6,68.1,104,67.2,104z M67.6,103.1c0.4,0,0.8-0.2,1.2-0.6c0.4-0.4,0.7-0.9,1-1.5c0.2-0.6,0.4-1.2,0.4-1.9
			c0-0.4-0.1-0.8-0.3-1s-0.5-0.4-0.9-0.4c-0.4,0-0.8,0.2-1.2,0.5s-0.7,0.8-0.9,1.4c-0.2,0.6-0.3,1.3-0.3,1.9c0,0.5,0.1,0.8,0.3,1.1
			S67.3,103.1,67.6,103.1z"/>
		<path id="XMLID_427_" class="st1" d="M74.6,104c-0.6,0-1-0.2-1.4-0.6c-0.3-0.4-0.5-1-0.5-1.8c0-0.9,0.1-1.7,0.4-2.5
			c0.3-0.8,0.7-1.3,1.2-1.8s1.1-0.6,1.7-0.6c0.8,0,1.4,0.4,1.8,1.2H78c0.1-0.7,0.2-1.3,0.3-1.7l0.5-2.3h1.1l-2.1,9.9h-0.9l0.1-1.3
			h-0.1c-0.4,0.5-0.8,0.9-1.2,1.1C75.4,103.9,75,104,74.6,104z M75,103.1c0.4,0,0.8-0.2,1.2-0.6s0.7-0.9,1-1.5s0.4-1.2,0.4-1.8
			c0-0.5-0.1-0.8-0.3-1s-0.5-0.4-1-0.4c-0.4,0-0.8,0.2-1.2,0.5s-0.6,0.8-0.8,1.4c-0.2,0.6-0.3,1.3-0.3,1.9
			C73.9,102.6,74.3,103.1,75,103.1z"/>
		<path id="XMLID_430_" class="st1" d="M82.1,104c-0.6,0-1-0.2-1.4-0.6s-0.5-1-0.5-1.8c0-0.9,0.1-1.7,0.4-2.4
			c0.3-0.8,0.7-1.3,1.2-1.8c0.5-0.4,1.1-0.6,1.7-0.6c0.4,0,0.7,0.1,1,0.3c0.3,0.2,0.5,0.5,0.7,0.9h0.1l0.4-1.1h0.9l-1.5,7h-0.9
			l0.2-1.3h-0.1C83.8,103.6,83,104,82.1,104z M82.5,103.1c0.4,0,0.8-0.2,1.2-0.6c0.4-0.4,0.7-0.9,1-1.5c0.2-0.6,0.4-1.2,0.4-1.9
			c0-0.4-0.1-0.8-0.3-1s-0.5-0.4-0.9-0.4c-0.4,0-0.8,0.2-1.2,0.5s-0.7,0.8-0.9,1.4c-0.2,0.6-0.3,1.3-0.3,1.9c0,0.5,0.1,0.8,0.3,1.1
			S82.2,103.1,82.5,103.1z"/>
		<path id="XMLID_433_" class="st1" d="M95.4,98.1l-0.3,0.8l-0.5,1.2l-1.8,3.9h-1.4l-0.3-7h1.1l0.1,4.4c0,0.3,0,0.8-0.1,1.6h0.1
			c0-0.1,0.2-0.4,0.3-0.8c0.2-0.4,0.3-0.8,0.5-1.1c0.1-0.3,0.8-1.7,1.9-4.1h1.2l0.2,3.7l0,1.6v0.4l0,0.3h0.1c0.2-0.7,0.6-1.5,1-2.5
			l1.5-3.4h1.2l-3.2,7h-1.4l-0.2-3.8l0-0.9L95.4,98.1L95.4,98.1z"/>
		<path id="XMLID_435_" class="st1" d="M102.9,104c-0.8,0-1.4-0.2-1.9-0.7c-0.4-0.5-0.7-1.1-0.7-1.9c0-0.8,0.2-1.6,0.5-2.3
			c0.3-0.7,0.7-1.3,1.3-1.7c0.5-0.4,1.1-0.6,1.8-0.6c0.7,0,1.2,0.1,1.5,0.4c0.3,0.3,0.5,0.7,0.5,1.2c0,0.8-0.4,1.4-1.1,1.8
			s-1.7,0.7-3,0.7h-0.2l0,0.5c0,0.5,0.1,1,0.4,1.3s0.7,0.5,1.2,0.5c0.3,0,0.6,0,0.9-0.1c0.3-0.1,0.6-0.2,1-0.4v1
			c-0.4,0.2-0.8,0.3-1.1,0.4C103.6,104,103.3,104,102.9,104z M103.8,97.8c-0.4,0-0.8,0.2-1.2,0.6c-0.4,0.4-0.7,0.9-0.8,1.6h0.1
			c0.9,0,1.6-0.1,2.1-0.4c0.5-0.2,0.8-0.6,0.8-1.1c0-0.2-0.1-0.4-0.2-0.6C104.4,97.8,104.1,97.8,103.8,97.8z"/>
		<path id="XMLID_438_" class="st1" d="M109.8,104c-0.4,0-0.8-0.1-1.1-0.3c-0.3-0.2-0.5-0.5-0.7-0.9h-0.1l-0.4,1.1h-0.9l2.1-9.9h1.1
			l-0.5,2.3c-0.1,0.4-0.2,0.8-0.3,1.2s-0.2,0.6-0.2,0.7h0.1c0.4-0.5,0.8-0.9,1.2-1.1c0.4-0.2,0.7-0.3,1.1-0.3c0.6,0,1.1,0.2,1.4,0.6
			c0.3,0.4,0.5,1,0.5,1.7c0,0.9-0.1,1.7-0.4,2.4c-0.3,0.8-0.7,1.3-1.2,1.8C111,103.8,110.4,104,109.8,104z M110.9,97.8
			c-0.4,0-0.8,0.2-1.2,0.6c-0.4,0.4-0.7,0.9-1,1.5c-0.2,0.6-0.4,1.2-0.4,1.8c0,0.4,0.1,0.8,0.3,1c0.2,0.2,0.6,0.4,1,0.4
			c0.4,0,0.8-0.2,1.2-0.5c0.4-0.3,0.6-0.8,0.8-1.4c0.2-0.6,0.3-1.3,0.3-1.9C112,98.3,111.6,97.8,110.9,97.8z"/>
		<path id="XMLID_441_" class="st1" d="M118.5,101.9c0,0.7-0.2,1.2-0.7,1.6c-0.5,0.4-1.1,0.6-2,0.6c-0.8,0-1.4-0.1-1.9-0.4v-1.1
			c0.3,0.2,0.6,0.3,0.9,0.4c0.3,0.1,0.7,0.2,1,0.2c0.5,0,0.9-0.1,1.2-0.3s0.4-0.5,0.4-0.8c0-0.2-0.1-0.4-0.2-0.6
			c-0.1-0.2-0.5-0.4-0.9-0.7c-0.5-0.3-0.9-0.6-1.2-0.9s-0.3-0.7-0.3-1.1c0-0.6,0.2-1.1,0.6-1.4c0.4-0.4,1-0.5,1.7-0.5
			c0.7,0,1.4,0.2,2.1,0.5l-0.4,0.9c-0.2-0.1-0.5-0.2-0.8-0.3s-0.6-0.1-1-0.1c-0.4,0-0.7,0.1-0.9,0.3c-0.2,0.2-0.3,0.4-0.3,0.7
			c0,0.2,0.1,0.4,0.2,0.6s0.5,0.4,0.9,0.6c0.5,0.3,0.8,0.5,1,0.7s0.3,0.4,0.4,0.6C118.5,101.4,118.5,101.6,118.5,101.9z"/>
		<path id="XMLID_443_" class="st1" d="M120.9,103.9h-1.1l1.5-7h1.1L120.9,103.9z M121.6,95.2c0-0.2,0.1-0.4,0.2-0.6
			s0.3-0.2,0.6-0.2c0.4,0,0.6,0.2,0.6,0.6c0,0.3-0.1,0.5-0.2,0.6c-0.1,0.2-0.3,0.2-0.5,0.2c-0.2,0-0.3-0.1-0.4-0.2
			C121.6,95.5,121.6,95.4,121.6,95.2z"/>
		<path id="XMLID_446_" class="st1" d="M125.3,103.1c0.3,0,0.6-0.1,0.9-0.2v0.9c-0.1,0.1-0.3,0.1-0.5,0.2c-0.2,0-0.4,0.1-0.6,0.1
			c-0.5,0-1-0.1-1.2-0.4s-0.4-0.6-0.4-1.1c0-0.3,0-0.6,0.1-0.9l0.8-3.8h-1.1l0.1-0.5l1.2-0.5l0.8-1.4h0.7l-0.3,1.6h1.8l-0.2,0.9
			h-1.7l-0.8,3.8c-0.1,0.3-0.1,0.6-0.1,0.8c0,0.2,0.1,0.4,0.2,0.5S125.1,103.1,125.3,103.1z"/>
		<path id="XMLID_448_" class="st1" d="M130.2,104c-0.8,0-1.4-0.2-1.9-0.7c-0.4-0.5-0.7-1.1-0.7-1.9c0-0.8,0.2-1.6,0.5-2.3
			c0.3-0.7,0.7-1.3,1.3-1.7c0.5-0.4,1.1-0.6,1.8-0.6c0.7,0,1.2,0.1,1.5,0.4c0.3,0.3,0.5,0.7,0.5,1.2c0,0.8-0.4,1.4-1.1,1.8
			s-1.7,0.7-3,0.7h-0.2l0,0.5c0,0.5,0.1,1,0.4,1.3s0.7,0.5,1.2,0.5c0.3,0,0.6,0,0.9-0.1c0.3-0.1,0.6-0.2,1-0.4v1
			c-0.4,0.2-0.8,0.3-1.1,0.4C130.9,104,130.6,104,130.2,104z M131.1,97.8c-0.4,0-0.8,0.2-1.2,0.6c-0.4,0.4-0.7,0.9-0.8,1.6h0.1
			c0.9,0,1.6-0.1,2.1-0.4c0.5-0.2,0.8-0.6,0.8-1.1c0-0.2-0.1-0.4-0.2-0.6C131.7,97.8,131.4,97.8,131.1,97.8z"/>
		<path id="XMLID_451_" class="st1" d="M138.4,103.9h-1.1l2.1-9.9h1.1L138.4,103.9z"/>
		<path id="XMLID_453_" class="st1" d="M142.8,104c-0.6,0-1-0.2-1.4-0.6s-0.5-1-0.5-1.8c0-0.9,0.1-1.7,0.4-2.4
			c0.3-0.8,0.7-1.3,1.2-1.8c0.5-0.4,1.1-0.6,1.7-0.6c0.4,0,0.7,0.1,1,0.3c0.3,0.2,0.5,0.5,0.7,0.9h0.1l0.4-1.1h0.9l-1.5,7h-0.9
			l0.2-1.3h-0.1C144.4,103.6,143.7,104,142.8,104z M143.2,103.1c0.4,0,0.8-0.2,1.2-0.6c0.4-0.4,0.7-0.9,1-1.5
			c0.2-0.6,0.4-1.2,0.4-1.9c0-0.4-0.1-0.8-0.3-1s-0.5-0.4-0.9-0.4c-0.4,0-0.8,0.2-1.2,0.5s-0.7,0.8-0.9,1.4
			c-0.2,0.6-0.3,1.3-0.3,1.9c0,0.5,0.1,0.8,0.3,1.1S142.8,103.1,143.2,103.1z"/>
		<path id="XMLID_456_" class="st1" d="M149.2,103.9H148l1.5-7h1.1L149.2,103.9z M149.8,95.2c0-0.2,0.1-0.4,0.2-0.6s0.3-0.2,0.6-0.2
			c0.4,0,0.6,0.2,0.6,0.6c0,0.3-0.1,0.5-0.2,0.6c-0.1,0.2-0.3,0.2-0.5,0.2c-0.2,0-0.3-0.1-0.4-0.2C149.9,95.5,149.8,95.4,149.8,95.2
			z"/>
		<path id="XMLID_459_" class="st1" d="M156.8,103.9h-1.1l0.9-4.4c0.1-0.4,0.1-0.7,0.1-0.9c0-0.3-0.1-0.5-0.2-0.6
			c-0.1-0.2-0.4-0.2-0.7-0.2c-0.4,0-0.7,0.1-1.1,0.4s-0.7,0.6-0.9,1.1c-0.3,0.5-0.5,1-0.6,1.7l-0.6,3h-1.1l1.5-7h0.9l-0.1,1.3h0.1
			c0.3-0.4,0.5-0.6,0.8-0.8s0.5-0.3,0.7-0.4c0.3-0.1,0.5-0.2,0.8-0.2c0.5,0,1,0.1,1.3,0.4c0.3,0.3,0.5,0.7,0.5,1.3
			c0,0.3,0,0.7-0.1,1.1L156.8,103.9z"/>
		<path id="XMLID_461_" class="st1" d="M162.6,97h1.1l0.5,3.4c0,0.3,0.1,0.7,0.1,1.2c0,0.5,0.1,1,0.1,1.4h0c0.1-0.3,0.3-0.7,0.5-1.1
			c0.2-0.5,0.4-0.8,0.5-1.1l2-3.8h1.2l-4.4,8.1c-0.4,0.7-0.8,1.2-1.2,1.5c-0.4,0.3-0.9,0.4-1.4,0.4c-0.3,0-0.6,0-0.9-0.1V106
			c0.3,0.1,0.5,0.1,0.8,0.1c0.3,0,0.6-0.1,0.9-0.3s0.5-0.5,0.7-0.9l0.5-0.8L162.6,97z"/>
		<path id="XMLID_463_" class="st1" d="M170.5,104c-0.6,0-1-0.2-1.4-0.6s-0.5-1-0.5-1.8c0-0.9,0.1-1.7,0.4-2.4
			c0.3-0.8,0.7-1.3,1.2-1.8c0.5-0.4,1.1-0.6,1.7-0.6c0.4,0,0.7,0.1,1,0.3c0.3,0.2,0.5,0.5,0.7,0.9h0.1l0.4-1.1h0.9l-1.5,7h-0.9
			l0.2-1.3h-0.1C172.1,103.6,171.4,104,170.5,104z M170.9,103.1c0.4,0,0.8-0.2,1.2-0.6c0.4-0.4,0.7-0.9,1-1.5
			c0.2-0.6,0.4-1.2,0.4-1.9c0-0.4-0.1-0.8-0.3-1s-0.5-0.4-0.9-0.4c-0.4,0-0.8,0.2-1.2,0.5s-0.7,0.8-0.9,1.4
			c-0.2,0.6-0.3,1.3-0.3,1.9c0,0.5,0.1,0.8,0.3,1.1S170.5,103.1,170.9,103.1z"/>
		<path id="XMLID_466_" class="st1" d="M181.1,103.9H180l0.9-4.4c0.1-0.4,0.1-0.7,0.1-0.9c0-0.3-0.1-0.5-0.2-0.6
			c-0.1-0.2-0.4-0.2-0.7-0.2c-0.4,0-0.7,0.1-1.1,0.4s-0.7,0.6-0.9,1.1c-0.3,0.5-0.5,1-0.6,1.7l-0.6,3h-1.1l1.5-7h0.9l-0.1,1.3h0.1
			c0.3-0.4,0.5-0.6,0.8-0.8s0.5-0.3,0.7-0.4c0.3-0.1,0.5-0.2,0.8-0.2c0.5,0,1,0.1,1.3,0.4c0.3,0.3,0.5,0.7,0.5,1.3
			c0,0.3,0,0.7-0.1,1.1L181.1,103.9z"/>
		<path id="XMLID_468_" class="st1" d="M185.3,107c-0.8,0-1.5-0.1-2.1-0.4v-1.1c0.3,0.2,0.6,0.3,1,0.4c0.4,0.1,0.7,0.2,1.1,0.2
			c0.6,0,1-0.1,1.3-0.4c0.3-0.3,0.6-0.7,0.7-1.3l0.3-1.3l0.1-0.4h-0.1c-0.4,0.5-0.8,0.9-1.1,1.1c-0.4,0.2-0.8,0.3-1.2,0.3
			c-0.6,0-1.1-0.2-1.4-0.6s-0.5-1-0.5-1.8c0-0.9,0.2-1.7,0.5-2.5c0.3-0.8,0.7-1.3,1.2-1.7c0.5-0.4,1.1-0.6,1.7-0.6
			c0.8,0,1.4,0.4,1.8,1.2h0.1l0.4-1.1h0.9l-1.6,7.4c-0.2,0.9-0.6,1.6-1.1,2.1C186.9,106.8,186.2,107,185.3,107z M185.8,103.1
			c0.4,0,0.8-0.2,1.2-0.6s0.7-0.9,1-1.5s0.4-1.2,0.4-1.8c0-0.9-0.4-1.4-1.3-1.4c-0.4,0-0.8,0.2-1.2,0.5c-0.4,0.4-0.6,0.8-0.8,1.5
			c-0.2,0.6-0.3,1.3-0.3,1.9C184.7,102.6,185.1,103.1,185.8,103.1z"/>
		<path id="XMLID_471_" class="st1" d="M198.8,96.8c0.5,0,0.8,0.1,1.1,0.4c0.3,0.3,0.4,0.7,0.5,1.1h0.1c0.7-1,1.5-1.5,2.4-1.5
			c0.5,0,1,0.1,1.3,0.4s0.4,0.7,0.4,1.3c0,0.4,0,0.8-0.1,1.1l-0.9,4.2h-1.2l0.9-4.4c0.1-0.4,0.1-0.7,0.1-0.9c0-0.3-0.1-0.5-0.2-0.6
			s-0.4-0.2-0.7-0.2c-0.3,0-0.7,0.1-1,0.4s-0.6,0.6-0.9,1c-0.3,0.5-0.4,1-0.6,1.6l-0.7,3.1h-1.1l0.9-4.4c0.1-0.4,0.1-0.7,0.1-0.9
			c0-0.6-0.3-0.9-0.8-0.9c-0.3,0-0.7,0.1-1,0.4s-0.6,0.6-0.9,1.1s-0.4,1-0.6,1.7l-0.6,3h-1.1l1.5-7h0.9l-0.1,1.3h0.1
			c0.3-0.4,0.5-0.7,0.7-0.8c0.2-0.2,0.4-0.3,0.7-0.4C198.2,96.9,198.5,96.8,198.8,96.8z"/>
		<path id="XMLID_473_" class="st1" d="M208.3,104c-0.8,0-1.4-0.2-1.9-0.7c-0.4-0.5-0.7-1.1-0.7-1.9c0-0.8,0.2-1.6,0.5-2.3
			c0.3-0.7,0.7-1.3,1.3-1.7c0.5-0.4,1.1-0.6,1.8-0.6c0.7,0,1.2,0.1,1.5,0.4c0.3,0.3,0.5,0.7,0.5,1.2c0,0.8-0.4,1.4-1.1,1.8
			s-1.7,0.7-3,0.7H207l0,0.5c0,0.5,0.1,1,0.4,1.3s0.7,0.5,1.2,0.5c0.3,0,0.6,0,0.9-0.1c0.3-0.1,0.6-0.2,1-0.4v1
			c-0.4,0.2-0.8,0.3-1.1,0.4C209,104,208.7,104,208.3,104z M209.2,97.8c-0.4,0-0.8,0.2-1.2,0.6c-0.4,0.4-0.7,0.9-0.8,1.6h0.1
			c0.9,0,1.6-0.1,2.1-0.4c0.5-0.2,0.8-0.6,0.8-1.1c0-0.2-0.1-0.4-0.2-0.6C209.8,97.8,209.6,97.8,209.2,97.8z"/>
		<path id="XMLID_476_" class="st1" d="M217.4,103.9h-1.1l0.9-4.4c0.1-0.4,0.1-0.7,0.1-0.9c0-0.3-0.1-0.5-0.2-0.6
			c-0.1-0.2-0.4-0.2-0.7-0.2c-0.4,0-0.7,0.1-1.1,0.4s-0.7,0.6-0.9,1.1c-0.3,0.5-0.5,1-0.6,1.7l-0.6,3H212l1.5-7h0.9l-0.1,1.3h0.1
			c0.3-0.4,0.5-0.6,0.8-0.8s0.5-0.3,0.7-0.4c0.3-0.1,0.5-0.2,0.8-0.2c0.5,0,1,0.1,1.3,0.4c0.3,0.3,0.5,0.7,0.5,1.3
			c0,0.3,0,0.7-0.1,1.1L217.4,103.9z"/>
		<path id="XMLID_478_" class="st1" d="M221.7,104c-0.6,0-1-0.2-1.4-0.6s-0.5-1-0.5-1.8c0-0.9,0.1-1.7,0.4-2.4
			c0.3-0.8,0.7-1.3,1.2-1.8c0.5-0.4,1.1-0.6,1.7-0.6c0.4,0,0.7,0.1,1,0.3c0.3,0.2,0.5,0.5,0.7,0.9h0.1l0.4-1.1h0.9l-1.5,7H224
			l0.2-1.3h-0.1C223.4,103.6,222.6,104,221.7,104z M222.1,103.1c0.4,0,0.8-0.2,1.2-0.6c0.4-0.4,0.7-0.9,1-1.5
			c0.2-0.6,0.4-1.2,0.4-1.9c0-0.4-0.1-0.8-0.3-1s-0.5-0.4-0.9-0.4c-0.4,0-0.8,0.2-1.2,0.5s-0.7,0.8-0.9,1.4
			c-0.2,0.6-0.3,1.3-0.3,1.9c0,0.5,0.1,0.8,0.3,1.1S221.8,103.1,222.1,103.1z"/>
		<path id="XMLID_481_" class="st1" d="M231.6,98.1l-0.3,0.8l-0.5,1.2l-1.8,3.9h-1.4l-0.3-7h1.1l0.1,4.4c0,0.3,0,0.8-0.1,1.6h0.1
			c0-0.1,0.2-0.4,0.3-0.8c0.2-0.4,0.3-0.8,0.5-1.1c0.1-0.3,0.8-1.7,1.9-4.1h1.2l0.2,3.7l0,1.6v0.4l0,0.3h0.1c0.2-0.7,0.6-1.5,1-2.5
			l1.5-3.4h1.2l-3.2,7h-1.4l-0.2-3.8l0-0.9L231.6,98.1L231.6,98.1z"/>
		<path id="XMLID_483_" class="st1" d="M238.5,104c-0.6,0-1-0.2-1.4-0.6s-0.5-1-0.5-1.8c0-0.9,0.1-1.7,0.4-2.4
			c0.3-0.8,0.7-1.3,1.2-1.8c0.5-0.4,1.1-0.6,1.7-0.6c0.4,0,0.7,0.1,1,0.3c0.3,0.2,0.5,0.5,0.7,0.9h0.1l0.4-1.1h0.9l-1.5,7h-0.9
			l0.2-1.3h-0.1C240.1,103.6,239.3,104,238.5,104z M238.9,103.1c0.4,0,0.8-0.2,1.2-0.6c0.4-0.4,0.7-0.9,1-1.5
			c0.2-0.6,0.4-1.2,0.4-1.9c0-0.4-0.1-0.8-0.3-1s-0.5-0.4-0.9-0.4c-0.4,0-0.8,0.2-1.2,0.5s-0.7,0.8-0.9,1.4
			c-0.2,0.6-0.3,1.3-0.3,1.9c0,0.5,0.1,0.8,0.3,1.1S238.5,103.1,238.9,103.1z"/>
		<path id="XMLID_486_" class="st1" d="M248.2,96.8c0.3,0,0.5,0,0.8,0.1l-0.2,1c-0.2-0.1-0.5-0.1-0.7-0.1c-0.4,0-0.7,0.1-1.1,0.4
			c-0.3,0.2-0.6,0.6-0.9,1c-0.2,0.4-0.4,0.9-0.5,1.5l-0.7,3.2h-1.1l1.5-7h0.9l-0.1,1.3h0.1c0.3-0.4,0.6-0.7,0.8-0.9s0.4-0.3,0.6-0.4
			C247.7,96.9,247.9,96.8,248.2,96.8z"/>
		<path id="XMLID_488_" class="st1" d="M254,97h1.4l-3,3l1.9,4H253l-1.5-3.3l-0.9,0.7l-0.5,2.5h-1.2L251,94h1.2
			c-0.4,1.7-0.7,3.1-0.9,4c-0.2,0.9-0.4,1.7-0.6,2.3h0L254,97z"/>
		<path id="XMLID_490_" class="st1" d="M257.5,104c-0.6,0-1-0.2-1.4-0.6c-0.3-0.4-0.5-1-0.5-1.8c0-0.9,0.1-1.7,0.4-2.4
			c0.3-0.8,0.7-1.3,1.2-1.8c0.5-0.4,1.1-0.6,1.7-0.6c0.4,0,0.7,0.1,1,0.3c0.3,0.2,0.5,0.5,0.7,0.9h0.1l0.4-1.1h0.9l-1.5,7h-0.9
			l0.2-1.3h-0.1C259.1,103.6,258.3,104,257.5,104z M257.9,103.1c0.4,0,0.8-0.2,1.2-0.6c0.4-0.4,0.7-0.9,1-1.5
			c0.2-0.6,0.4-1.2,0.4-1.9c0-0.4-0.1-0.8-0.3-1s-0.5-0.4-0.9-0.4c-0.4,0-0.8,0.2-1.2,0.5s-0.7,0.8-0.9,1.4
			c-0.2,0.6-0.3,1.3-0.3,1.9c0,0.5,0.1,0.8,0.3,1.1S257.5,103.1,257.9,103.1z"/>
		<path id="XMLID_493_" class="st1" d="M268.1,103.9H267l0.9-4.4c0.1-0.4,0.1-0.7,0.1-0.9c0-0.3-0.1-0.5-0.2-0.6
			c-0.1-0.2-0.4-0.2-0.7-0.2c-0.4,0-0.7,0.1-1.1,0.4s-0.7,0.6-0.9,1.1c-0.3,0.5-0.5,1-0.6,1.7l-0.6,3h-1.1l1.5-7h0.9l-0.1,1.3h0.1
			c0.3-0.4,0.5-0.6,0.8-0.8s0.5-0.3,0.7-0.4c0.3-0.1,0.5-0.2,0.8-0.2c0.5,0,1,0.1,1.3,0.4c0.3,0.3,0.5,0.7,0.5,1.3
			c0,0.3,0,0.7-0.1,1.1L268.1,103.9z"/>
		<path id="XMLID_495_" class="st1" d="M70.7,111.1c-0.7,0-1.4,0.2-2,0.6c-0.6,0.4-1,1-1.3,1.8c-0.3,0.8-0.5,1.6-0.5,2.5
			c0,0.8,0.2,1.4,0.6,1.9c0.4,0.5,1,0.7,1.7,0.7c0.6,0,1.3-0.1,2.1-0.4v1c-0.7,0.3-1.4,0.4-2.3,0.4c-1,0-1.8-0.3-2.4-0.9
			s-0.9-1.5-0.9-2.6c0-1.1,0.2-2.1,0.7-3.1c0.4-1,1-1.7,1.8-2.2s1.6-0.8,2.6-0.8c0.9,0,1.6,0.2,2.3,0.5l-0.5,1
			C71.9,111.3,71.3,111.1,70.7,111.1z"/>
		<path id="XMLID_497_" class="st1" d="M81.3,113.8c0,1.2-0.2,2.2-0.6,3.1s-0.9,1.6-1.6,2.1s-1.5,0.7-2.4,0.7
			c-1.1,0-1.9-0.3-2.5-0.9c-0.6-0.6-0.9-1.5-0.9-2.7c0-1.1,0.2-2.1,0.6-3s1-1.6,1.7-2.1s1.5-0.8,2.4-0.8c1,0,1.9,0.3,2.5,1
			C81,111.7,81.3,112.6,81.3,113.8z M77.9,111.1c-0.7,0-1.2,0.2-1.8,0.6s-0.9,1-1.2,1.8c-0.3,0.8-0.4,1.6-0.4,2.5
			c0,0.8,0.2,1.5,0.6,1.9c0.4,0.5,1,0.7,1.6,0.7c0.6,0,1.2-0.2,1.7-0.6c0.5-0.4,0.9-1,1.2-1.8s0.4-1.6,0.4-2.5
			c0-0.8-0.2-1.5-0.6-1.9C79.1,111.4,78.6,111.1,77.9,111.1z"/>
		<path id="XMLID_500_" class="st1" d="M90,113.9c0,1.1-0.2,2.1-0.7,2.9c-0.4,0.8-1.1,1.5-1.9,2s-1.8,0.7-2.9,0.7h-2.3l2-9.3h2.2
			c1.2,0,2.1,0.3,2.7,0.9C89.7,111.8,90,112.7,90,113.9z M84.6,118.5c0.8,0,1.6-0.2,2.2-0.6s1.1-0.9,1.5-1.6
			c0.3-0.7,0.5-1.5,0.5-2.4c0-0.9-0.2-1.6-0.6-2s-1-0.7-1.9-0.7h-1.1l-1.5,7.3H84.6z"/>
		<path id="XMLID_503_" class="st1" d="M92.9,122.6c-0.3,0-0.6,0-0.8-0.1v-1c0.2,0.1,0.5,0.1,0.8,0.1c0.5,0,0.9-0.4,1.1-1.3l1.7-7.9
			h1.1l-1.7,8c-0.2,0.7-0.4,1.3-0.8,1.6C94,122.5,93.5,122.6,92.9,122.6z M95.9,110.8c0-0.2,0.1-0.4,0.2-0.6s0.3-0.2,0.6-0.2
			c0.4,0,0.6,0.2,0.6,0.6c0,0.3-0.1,0.5-0.2,0.6c-0.1,0.2-0.3,0.2-0.5,0.2c-0.2,0-0.3-0.1-0.4-0.2C96,111.1,95.9,111,95.9,110.8z"/>
		<path id="XMLID_506_" class="st1" d="M99.6,119.6c-0.6,0-1-0.2-1.4-0.6s-0.5-1-0.5-1.8c0-0.9,0.1-1.7,0.4-2.4
			c0.3-0.8,0.7-1.3,1.2-1.8c0.5-0.4,1.1-0.6,1.7-0.6c0.4,0,0.7,0.1,1,0.3c0.3,0.2,0.5,0.5,0.7,0.9h0.1l0.4-1.1h0.9l-1.5,7h-0.9
			l0.2-1.3H102C101.3,119.2,100.5,119.6,99.6,119.6z M100,118.7c0.4,0,0.8-0.2,1.2-0.6c0.4-0.4,0.7-0.9,1-1.5
			c0.2-0.6,0.4-1.2,0.4-1.9c0-0.4-0.1-0.8-0.3-1s-0.5-0.4-0.9-0.4c-0.4,0-0.8,0.2-1.2,0.5s-0.7,0.8-0.9,1.4
			c-0.2,0.6-0.3,1.3-0.3,1.9c0,0.5,0.1,0.8,0.3,1.1S99.7,118.7,100,118.7z"/>
		<path id="XMLID_509_" class="st1" d="M107,119.6c-0.6,0-1-0.2-1.4-0.6c-0.3-0.4-0.5-1-0.5-1.8c0-0.9,0.1-1.7,0.4-2.5
			c0.3-0.8,0.7-1.3,1.2-1.8s1.1-0.6,1.7-0.6c0.8,0,1.4,0.4,1.8,1.2h0.1c0.1-0.7,0.2-1.3,0.3-1.7l0.5-2.3h1.1l-2.1,9.9h-0.9l0.1-1.3
			h-0.1c-0.4,0.5-0.8,0.9-1.2,1.1C107.8,119.5,107.4,119.6,107,119.6z M107.4,118.7c0.4,0,0.8-0.2,1.2-0.6s0.7-0.9,1-1.5
			s0.4-1.2,0.4-1.8c0-0.5-0.1-0.8-0.3-1s-0.5-0.4-1-0.4c-0.4,0-0.8,0.2-1.2,0.5s-0.6,0.8-0.8,1.4c-0.2,0.6-0.3,1.3-0.3,1.9
			C106.3,118.2,106.7,118.7,107.4,118.7z"/>
		<path id="XMLID_512_" class="st1" d="M113.5,119.5h-1.1l1.5-7h1.1L113.5,119.5z M114.2,110.8c0-0.2,0.1-0.4,0.2-0.6
			s0.3-0.2,0.6-0.2c0.4,0,0.6,0.2,0.6,0.6c0,0.3-0.1,0.5-0.2,0.6c-0.1,0.2-0.3,0.2-0.5,0.2c-0.2,0-0.3-0.1-0.4-0.2
			C114.2,111.1,114.2,111,114.2,110.8z"/>
		<path id="XMLID_515_" class="st1" d="M123.5,117.5c0,0.7-0.2,1.2-0.7,1.6c-0.5,0.4-1.1,0.6-2,0.6c-0.8,0-1.4-0.1-1.9-0.4v-1.1
			c0.3,0.2,0.6,0.3,0.9,0.4c0.3,0.1,0.7,0.2,1,0.2c0.5,0,0.9-0.1,1.2-0.3s0.4-0.5,0.4-0.8c0-0.2-0.1-0.4-0.2-0.6
			c-0.1-0.2-0.5-0.4-0.9-0.7c-0.5-0.3-0.9-0.6-1.2-0.9s-0.3-0.7-0.3-1.1c0-0.6,0.2-1.1,0.6-1.4c0.4-0.4,1-0.5,1.7-0.5
			c0.7,0,1.4,0.2,2.1,0.5l-0.4,0.9c-0.2-0.1-0.5-0.2-0.8-0.3s-0.6-0.1-1-0.1c-0.4,0-0.7,0.1-0.9,0.3c-0.2,0.2-0.3,0.4-0.3,0.7
			c0,0.2,0.1,0.4,0.2,0.6s0.5,0.4,0.9,0.6c0.5,0.3,0.8,0.5,1,0.7s0.3,0.4,0.4,0.6C123.4,117,123.5,117.2,123.5,117.5z"/>
		<path id="XMLID_517_" class="st1" d="M126.9,119.6c-0.6,0-1-0.2-1.4-0.6s-0.5-1-0.5-1.8c0-0.9,0.1-1.7,0.4-2.4
			c0.3-0.8,0.7-1.3,1.2-1.8c0.5-0.4,1.1-0.6,1.7-0.6c0.4,0,0.7,0.1,1,0.3c0.3,0.2,0.5,0.5,0.7,0.9h0.1l0.4-1.1h0.9l-1.5,7h-0.9
			l0.2-1.3h-0.1C128.5,119.2,127.7,119.6,126.9,119.6z M127.3,118.7c0.4,0,0.8-0.2,1.2-0.6c0.4-0.4,0.7-0.9,1-1.5
			c0.2-0.6,0.4-1.2,0.4-1.9c0-0.4-0.1-0.8-0.3-1s-0.5-0.4-0.9-0.4c-0.4,0-0.8,0.2-1.2,0.5s-0.7,0.8-0.9,1.4
			c-0.2,0.6-0.3,1.3-0.3,1.9c0,0.5,0.1,0.8,0.3,1.1S126.9,118.7,127.3,118.7z"/>
		<path id="XMLID_520_" class="st1" d="M132.4,112.6h1.1l0.5,3.4c0,0.3,0.1,0.7,0.1,1.2c0,0.5,0.1,1,0.1,1.4h0
			c0.1-0.3,0.3-0.7,0.5-1.1c0.2-0.5,0.4-0.8,0.5-1.1l2-3.8h1.2l-4.4,8.1c-0.4,0.7-0.8,1.2-1.2,1.5c-0.4,0.3-0.9,0.4-1.4,0.4
			c-0.3,0-0.6,0-0.9-0.1v-0.9c0.3,0.1,0.5,0.1,0.8,0.1c0.3,0,0.6-0.1,0.9-0.3s0.5-0.5,0.7-0.9l0.5-0.8L132.4,112.6z"/>
		<path id="XMLID_522_" class="st1" d="M140.3,119.6c-0.6,0-1-0.2-1.4-0.6s-0.5-1-0.5-1.8c0-0.9,0.1-1.7,0.4-2.4
			c0.3-0.8,0.7-1.3,1.2-1.8c0.5-0.4,1.1-0.6,1.7-0.6c0.4,0,0.7,0.1,1,0.3c0.3,0.2,0.5,0.5,0.7,0.9h0.1l0.4-1.1h0.9l-1.5,7h-0.9
			l0.2-1.3h-0.1C142,119.2,141.2,119.6,140.3,119.6z M140.7,118.7c0.4,0,0.8-0.2,1.2-0.6c0.4-0.4,0.7-0.9,1-1.5
			c0.2-0.6,0.4-1.2,0.4-1.9c0-0.4-0.1-0.8-0.3-1s-0.5-0.4-0.9-0.4c-0.4,0-0.8,0.2-1.2,0.5s-0.7,0.8-0.9,1.4
			c-0.2,0.6-0.3,1.3-0.3,1.9c0,0.5,0.1,0.8,0.3,1.1S140.4,118.7,140.7,118.7z"/>
		<path id="XMLID_525_" class="st1" d="M151.2,118.7c0.3,0,0.6-0.1,0.9-0.2v0.9c-0.1,0.1-0.3,0.1-0.5,0.2c-0.2,0-0.4,0.1-0.6,0.1
			c-0.5,0-1-0.1-1.2-0.4s-0.4-0.6-0.4-1.1c0-0.3,0-0.6,0.1-0.9l0.8-3.8h-1.1l0.1-0.5l1.2-0.5l0.8-1.4h0.7l-0.3,1.6h1.8l-0.2,0.9
			h-1.7l-0.8,3.8c-0.1,0.3-0.1,0.6-0.1,0.8c0,0.2,0.1,0.4,0.2,0.5S150.9,118.7,151.2,118.7z"/>
		<path id="XMLID_527_" class="st1" d="M154.4,119.5h-1.1l1.5-7h1.1L154.4,119.5z M155,110.8c0-0.2,0.1-0.4,0.2-0.6s0.3-0.2,0.6-0.2
			c0.4,0,0.6,0.2,0.6,0.6c0,0.3-0.1,0.5-0.2,0.6c-0.1,0.2-0.3,0.2-0.5,0.2c-0.2,0-0.3-0.1-0.4-0.2C155.1,111.1,155,111,155,110.8z"
			/>
		<path id="XMLID_530_" class="st1" d="M158.8,119.6c-0.6,0-1-0.2-1.4-0.6c-0.3-0.4-0.5-1-0.5-1.8c0-0.9,0.1-1.7,0.4-2.5
			c0.3-0.8,0.7-1.3,1.2-1.8s1.1-0.6,1.7-0.6c0.8,0,1.4,0.4,1.8,1.2h0.1c0.1-0.7,0.2-1.3,0.3-1.7l0.5-2.3h1.1l-2.1,9.9H161l0.1-1.3
			h-0.1c-0.4,0.5-0.8,0.9-1.2,1.1C159.5,119.5,159.2,119.6,158.8,119.6z M159.2,118.7c0.4,0,0.8-0.2,1.2-0.6s0.7-0.9,1-1.5
			s0.4-1.2,0.4-1.8c0-0.5-0.1-0.8-0.3-1s-0.5-0.4-1-0.4c-0.4,0-0.8,0.2-1.2,0.5s-0.6,0.8-0.8,1.4c-0.2,0.6-0.3,1.3-0.3,1.9
			C158.1,118.2,158.4,118.7,159.2,118.7z"/>
		<path id="XMLID_533_" class="st1" d="M166.3,119.6c-0.6,0-1-0.2-1.4-0.6s-0.5-1-0.5-1.8c0-0.9,0.1-1.7,0.4-2.4
			c0.3-0.8,0.7-1.3,1.2-1.8c0.5-0.4,1.1-0.6,1.7-0.6c0.4,0,0.7,0.1,1,0.3c0.3,0.2,0.5,0.5,0.7,0.9h0.1l0.4-1.1h0.9l-1.5,7h-0.9
			l0.2-1.3h-0.1C167.9,119.2,167.1,119.6,166.3,119.6z M166.7,118.7c0.4,0,0.8-0.2,1.2-0.6c0.4-0.4,0.7-0.9,1-1.5
			c0.2-0.6,0.4-1.2,0.4-1.9c0-0.4-0.1-0.8-0.3-1s-0.5-0.4-0.9-0.4c-0.4,0-0.8,0.2-1.2,0.5s-0.7,0.8-0.9,1.4
			c-0.2,0.6-0.3,1.3-0.3,1.9c0,0.5,0.1,0.8,0.3,1.1S166.3,118.7,166.7,118.7z"/>
		<path id="XMLID_536_" class="st1" d="M176.6,112.6h1.4l-3,3l1.9,4h-1.3l-1.5-3.3l-0.9,0.7l-0.5,2.5h-1.2l2.1-9.9h1.2
			c-0.4,1.7-0.7,3.1-0.9,4c-0.2,0.9-0.4,1.7-0.6,2.3h0L176.6,112.6z"/>
		<path id="XMLID_538_" class="st1" d="M186,112.4c0.6,0,1.1,0.2,1.4,0.6s0.5,1,0.5,1.7c0,0.9-0.1,1.7-0.4,2.5
			c-0.3,0.7-0.7,1.3-1.2,1.7c-0.5,0.4-1.1,0.6-1.7,0.6c-0.8,0-1.4-0.4-1.8-1.2h-0.1c-0.1,0.6-0.1,1-0.2,1.2l-0.6,3h-1.1l2.1-10.1
			h0.9l-0.2,1.3h0.1c0.4-0.5,0.8-0.9,1.2-1.1C185.2,112.5,185.6,112.4,186,112.4z M185.6,113.4c-0.4,0-0.8,0.2-1.2,0.6
			s-0.7,0.9-1,1.5s-0.4,1.2-0.4,1.8c0,0.4,0.1,0.8,0.3,1c0.2,0.2,0.6,0.4,1,0.4c0.4,0,0.8-0.2,1.2-0.5c0.4-0.3,0.6-0.8,0.8-1.4
			c0.2-0.6,0.3-1.3,0.3-1.9C186.7,113.9,186.3,113.4,185.6,113.4z"/>
		<path id="XMLID_541_" class="st1" d="M191.7,119.6c-0.8,0-1.4-0.2-1.9-0.7c-0.4-0.5-0.7-1.1-0.7-1.9c0-0.8,0.2-1.6,0.5-2.3
			c0.3-0.7,0.7-1.3,1.3-1.7c0.5-0.4,1.1-0.6,1.8-0.6c0.7,0,1.2,0.1,1.5,0.4c0.3,0.3,0.5,0.7,0.5,1.2c0,0.8-0.4,1.4-1.1,1.8
			s-1.7,0.7-3,0.7h-0.2l0,0.5c0,0.5,0.1,1,0.4,1.3s0.7,0.5,1.2,0.5c0.3,0,0.6,0,0.9-0.1c0.3-0.1,0.6-0.2,1-0.4v1
			c-0.4,0.2-0.8,0.3-1.1,0.4C192.3,119.6,192,119.6,191.7,119.6z M192.5,113.4c-0.4,0-0.8,0.2-1.2,0.6c-0.4,0.4-0.7,0.9-0.8,1.6h0.1
			c0.9,0,1.6-0.1,2.1-0.4c0.5-0.2,0.8-0.6,0.8-1.1c0-0.2-0.1-0.4-0.2-0.6C193.1,113.4,192.9,113.4,192.5,113.4z"/>
		<path id="XMLID_544_" class="st1" d="M199.8,112.4c0.3,0,0.5,0,0.8,0.1l-0.2,1c-0.2-0.1-0.5-0.1-0.7-0.1c-0.4,0-0.7,0.1-1.1,0.4
			c-0.3,0.2-0.6,0.6-0.9,1c-0.2,0.4-0.4,0.9-0.5,1.5l-0.7,3.2h-1.1l1.5-7h0.9l-0.1,1.3h0.1c0.3-0.4,0.6-0.7,0.8-0.9s0.4-0.3,0.6-0.4
			C199.3,112.5,199.6,112.4,199.8,112.4z"/>
		<path id="XMLID_546_" class="st1" d="M201.7,119.5h-1.1l2.1-9.9h1.1L201.7,119.5z"/>
		<path id="XMLID_548_" class="st1" d="M205.3,112.6h1.2l-0.9,4.4c-0.1,0.4-0.1,0.7-0.1,0.9c0,0.6,0.3,0.9,0.9,0.9
			c0.4,0,0.7-0.1,1.1-0.4s0.7-0.6,0.9-1.1c0.3-0.5,0.5-1,0.6-1.7l0.6-3h1.1l-1.5,7h-0.9l0.1-1.3h-0.1c-0.4,0.5-0.8,0.9-1.1,1.1
			c-0.4,0.2-0.8,0.3-1.2,0.3c-0.5,0-1-0.2-1.3-0.5s-0.5-0.7-0.5-1.3c0-0.3,0-0.6,0.1-1.1L205.3,112.6z"/>
		<path id="XMLID_550_" class="st1" d="M69.7,128c0.5,0,0.8,0.1,1.1,0.4c0.3,0.3,0.4,0.7,0.5,1.1h0.1c0.7-1,1.5-1.5,2.4-1.5
			c0.5,0,1,0.1,1.3,0.4s0.4,0.7,0.4,1.3c0,0.4,0,0.8-0.1,1.1l-0.9,4.2h-1.2l0.9-4.4c0.1-0.4,0.1-0.7,0.1-0.9c0-0.3-0.1-0.5-0.2-0.6
			s-0.4-0.2-0.7-0.2c-0.3,0-0.7,0.1-1,0.4s-0.6,0.6-0.9,1c-0.3,0.5-0.4,1-0.6,1.6l-0.7,3.1h-1.1l0.9-4.4c0.1-0.4,0.1-0.7,0.1-0.9
			c0-0.6-0.3-0.9-0.8-0.9c-0.3,0-0.7,0.1-1,0.4s-0.6,0.6-0.9,1.1s-0.4,1-0.6,1.7l-0.6,3h-1.1l1.5-7h0.9l-0.1,1.3h0.1
			c0.3-0.4,0.5-0.7,0.7-0.8c0.2-0.2,0.4-0.3,0.7-0.4C69.1,128.1,69.4,128,69.7,128z"/>
		<path id="XMLID_552_" class="st1" d="M79.2,135.2c-0.8,0-1.4-0.2-1.9-0.7c-0.4-0.5-0.7-1.1-0.7-1.9c0-0.8,0.2-1.6,0.5-2.3
			c0.3-0.7,0.7-1.3,1.3-1.7c0.5-0.4,1.1-0.6,1.8-0.6c0.7,0,1.2,0.1,1.5,0.4c0.3,0.3,0.5,0.7,0.5,1.2c0,0.8-0.4,1.4-1.1,1.8
			s-1.7,0.7-3,0.7h-0.2l0,0.5c0,0.5,0.1,1,0.4,1.3s0.7,0.5,1.2,0.5c0.3,0,0.6,0,0.9-0.1c0.3-0.1,0.6-0.2,1-0.4v1
			c-0.4,0.2-0.8,0.3-1.1,0.4C79.9,135.2,79.6,135.2,79.2,135.2z M80.1,129c-0.4,0-0.8,0.2-1.2,0.6c-0.4,0.4-0.7,0.9-0.8,1.6h0.1
			c0.9,0,1.6-0.1,2.1-0.4c0.5-0.2,0.8-0.6,0.8-1.1c0-0.2-0.1-0.4-0.2-0.6C80.7,129,80.4,129,80.1,129z"/>
		<path id="XMLID_555_" class="st1" d="M87.5,128c0.5,0,0.8,0.1,1.1,0.4c0.3,0.3,0.4,0.7,0.5,1.1h0.1c0.7-1,1.5-1.5,2.4-1.5
			c0.5,0,1,0.1,1.3,0.4s0.4,0.7,0.4,1.3c0,0.4,0,0.8-0.1,1.1l-0.9,4.2H91l0.9-4.4c0.1-0.4,0.1-0.7,0.1-0.9c0-0.3-0.1-0.5-0.2-0.6
			s-0.4-0.2-0.7-0.2c-0.3,0-0.7,0.1-1,0.4s-0.6,0.6-0.9,1c-0.3,0.5-0.4,1-0.6,1.6l-0.7,3.1H87l0.9-4.4c0.1-0.4,0.1-0.7,0.1-0.9
			c0-0.6-0.3-0.9-0.8-0.9c-0.3,0-0.7,0.1-1,0.4s-0.6,0.6-0.9,1.1s-0.4,1-0.6,1.7l-0.6,3h-1.1l1.5-7h0.9l-0.1,1.3h0.1
			c0.3-0.4,0.5-0.7,0.7-0.8c0.2-0.2,0.4-0.3,0.7-0.4C87,128.1,87.2,128,87.5,128z"/>
		<path id="XMLID_557_" class="st1" d="M97.4,135.2c-0.4,0-0.8-0.1-1.1-0.3c-0.3-0.2-0.5-0.5-0.7-0.9h-0.1l-0.4,1.1h-0.9l2.1-9.9
			h1.1l-0.5,2.3c-0.1,0.4-0.2,0.8-0.3,1.2s-0.2,0.6-0.2,0.7h0.1c0.4-0.5,0.8-0.9,1.2-1.1c0.4-0.2,0.7-0.3,1.1-0.3
			c0.6,0,1.1,0.2,1.4,0.6c0.3,0.4,0.5,1,0.5,1.7c0,0.9-0.1,1.7-0.4,2.4c-0.3,0.8-0.7,1.3-1.2,1.8C98.7,135,98.1,135.2,97.4,135.2z
			 M98.6,129c-0.4,0-0.8,0.2-1.2,0.6c-0.4,0.4-0.7,0.9-1,1.5c-0.2,0.6-0.4,1.2-0.4,1.8c0,0.4,0.1,0.8,0.3,1c0.2,0.2,0.6,0.4,1,0.4
			c0.4,0,0.8-0.2,1.2-0.5c0.4-0.3,0.6-0.8,0.8-1.4c0.2-0.6,0.3-1.3,0.3-1.9C99.7,129.5,99.3,129,98.6,129z"/>
		<path id="XMLID_560_" class="st1" d="M104.6,135.2c-0.8,0-1.4-0.2-1.9-0.7c-0.4-0.5-0.7-1.1-0.7-1.9c0-0.8,0.2-1.6,0.5-2.3
			c0.3-0.7,0.7-1.3,1.3-1.7c0.5-0.4,1.1-0.6,1.8-0.6c0.7,0,1.2,0.1,1.5,0.4c0.3,0.3,0.5,0.7,0.5,1.2c0,0.8-0.4,1.4-1.1,1.8
			s-1.7,0.7-3,0.7h-0.2l0,0.5c0,0.5,0.1,1,0.4,1.3s0.7,0.5,1.2,0.5c0.3,0,0.6,0,0.9-0.1c0.3-0.1,0.6-0.2,1-0.4v1
			c-0.4,0.2-0.8,0.3-1.1,0.4C105.3,135.2,105,135.2,104.6,135.2z M105.5,129c-0.4,0-0.8,0.2-1.2,0.6c-0.4,0.4-0.7,0.9-0.8,1.6h0.1
			c0.9,0,1.6-0.1,2.1-0.4c0.5-0.2,0.8-0.6,0.8-1.1c0-0.2-0.1-0.4-0.2-0.6C106.1,129,105.8,129,105.5,129z"/>
		<path id="XMLID_563_" class="st1" d="M112.8,128c0.3,0,0.5,0,0.8,0.1l-0.2,1c-0.2-0.1-0.5-0.1-0.7-0.1c-0.4,0-0.7,0.1-1.1,0.4
			c-0.3,0.2-0.6,0.6-0.9,1c-0.2,0.4-0.4,0.9-0.5,1.5l-0.7,3.2h-1.1l1.5-7h0.9l-0.1,1.3h0.1c0.3-0.4,0.6-0.7,0.8-0.9s0.4-0.3,0.6-0.4
			C112.3,128.1,112.5,128,112.8,128z"/>
		<path id="XMLID_565_" class="st1" d="M114.6,135.1h-1.1l1.5-7h1.1L114.6,135.1z M115.3,126.4c0-0.2,0.1-0.4,0.2-0.6
			s0.3-0.2,0.6-0.2c0.4,0,0.6,0.2,0.6,0.6c0,0.3-0.1,0.5-0.2,0.6c-0.1,0.2-0.3,0.2-0.5,0.2c-0.2,0-0.3-0.1-0.4-0.2
			C115.3,126.7,115.3,126.6,115.3,126.4z"/>
		<path id="XMLID_568_" class="st1" d="M122,128.2h1.4l-3,3l1.9,4h-1.3l-1.5-3.3l-0.9,0.7l-0.5,2.5h-1.2l2.1-9.9h1.2
			c-0.4,1.7-0.7,3.1-0.9,4c-0.2,0.9-0.4,1.7-0.6,2.3h0L122,128.2z"/>
		<path id="XMLID_570_" class="st1" d="M125.4,135.2c-0.6,0-1-0.2-1.4-0.6s-0.5-1-0.5-1.8c0-0.9,0.1-1.7,0.4-2.4
			c0.3-0.8,0.7-1.3,1.2-1.8c0.5-0.4,1.1-0.6,1.7-0.6c0.4,0,0.7,0.1,1,0.3c0.3,0.2,0.5,0.5,0.7,0.9h0.1l0.4-1.1h0.9l-1.5,7h-0.9
			l0.2-1.3h-0.1C127.1,134.8,126.3,135.2,125.4,135.2z M125.8,134.3c0.4,0,0.8-0.2,1.2-0.6c0.4-0.4,0.7-0.9,1-1.5
			c0.2-0.6,0.4-1.2,0.4-1.9c0-0.4-0.1-0.8-0.3-1s-0.5-0.4-0.9-0.4c-0.4,0-0.8,0.2-1.2,0.5s-0.7,0.8-0.9,1.4
			c-0.2,0.6-0.3,1.3-0.3,1.9c0,0.5,0.1,0.8,0.3,1.1S125.5,134.3,125.8,134.3z"/>
		<path id="XMLID_573_" class="st1" d="M136.1,135.1h-1.1l0.9-4.4c0.1-0.4,0.1-0.7,0.1-0.9c0-0.3-0.1-0.5-0.2-0.6
			c-0.1-0.2-0.4-0.2-0.7-0.2c-0.4,0-0.7,0.1-1.1,0.4s-0.7,0.6-0.9,1.1c-0.3,0.5-0.5,1-0.6,1.7l-0.6,3h-1.1l1.5-7h0.9l-0.1,1.3h0.1
			c0.3-0.4,0.5-0.6,0.8-0.8s0.5-0.3,0.7-0.4c0.3-0.1,0.5-0.2,0.8-0.2c0.5,0,1,0.1,1.3,0.4c0.3,0.3,0.5,0.7,0.5,1.3
			c0,0.3,0,0.7-0.1,1.1L136.1,135.1z"/>
		<path id="XMLID_575_" class="st1" d="M142.7,135.1h-1.1l1.5-7h1.1L142.7,135.1z M143.4,126.4c0-0.2,0.1-0.4,0.2-0.6
			s0.3-0.2,0.6-0.2c0.4,0,0.6,0.2,0.6,0.6c0,0.3-0.1,0.5-0.2,0.6c-0.1,0.2-0.3,0.2-0.5,0.2c-0.2,0-0.3-0.1-0.4-0.2
			C143.4,126.7,143.4,126.6,143.4,126.4z"/>
		<path id="XMLID_578_" class="st1" d="M150.3,135.1h-1.1l0.9-4.4c0.1-0.4,0.1-0.7,0.1-0.9c0-0.3-0.1-0.5-0.2-0.6
			c-0.1-0.2-0.4-0.2-0.7-0.2c-0.4,0-0.7,0.1-1.1,0.4s-0.7,0.6-0.9,1.1c-0.3,0.5-0.5,1-0.6,1.7l-0.6,3h-1.1l1.5-7h0.9l-0.1,1.3h0.1
			c0.3-0.4,0.5-0.6,0.8-0.8s0.5-0.3,0.7-0.4c0.3-0.1,0.5-0.2,0.8-0.2c0.5,0,1,0.1,1.3,0.4c0.3,0.3,0.5,0.7,0.5,1.3
			c0,0.3,0,0.7-0.1,1.1L150.3,135.1z"/>
		<path id="XMLID_580_" class="st1" d="M151.5,138.2c-0.3,0-0.6,0-0.8-0.1v-1c0.3,0.1,0.5,0.1,0.7,0.1c0.3,0,0.5-0.1,0.7-0.4
			s0.3-0.6,0.4-1.1l1.4-6.8h-1.2l0.1-0.5l1.3-0.4l0.1-0.6c0.2-0.9,0.5-1.5,0.8-1.8s0.9-0.5,1.5-0.5c0.4,0,0.8,0.1,1.2,0.2l-0.3,0.9
			c-0.3-0.1-0.6-0.2-0.9-0.2c-0.4,0-0.7,0.1-0.8,0.3c-0.2,0.2-0.3,0.6-0.4,1.1l-0.2,0.7h1.5l-0.2,0.9h-1.5l-1.5,6.9
			c-0.2,0.8-0.4,1.4-0.8,1.8C152.5,138.1,152,138.2,151.5,138.2z"/>
		<path id="XMLID_582_" class="st1" d="M162.9,130.8c0,0.8-0.2,1.6-0.5,2.3c-0.3,0.7-0.7,1.2-1.2,1.6c-0.5,0.4-1.1,0.6-1.8,0.6
			c-0.8,0-1.4-0.2-1.9-0.7c-0.5-0.5-0.7-1.1-0.7-2c0-0.8,0.2-1.6,0.5-2.3s0.7-1.3,1.3-1.6c0.5-0.4,1.1-0.6,1.8-0.6
			c0.8,0,1.4,0.2,1.9,0.7C162.7,129.3,162.9,129.9,162.9,130.8z M161.8,130.6c0-0.5-0.1-0.9-0.4-1.2s-0.6-0.4-1-0.4
			c-0.4,0-0.9,0.2-1.2,0.5c-0.4,0.3-0.6,0.7-0.8,1.3c-0.2,0.6-0.3,1.2-0.3,1.8c0,0.5,0.1,1,0.4,1.3c0.3,0.3,0.6,0.4,1.1,0.4
			c0.4,0,0.8-0.2,1.2-0.5s0.6-0.7,0.8-1.3C161.7,132,161.8,131.3,161.8,130.6z"/>
		<path id="XMLID_585_" class="st1" d="M168.4,128c0.3,0,0.5,0,0.8,0.1l-0.2,1c-0.2-0.1-0.5-0.1-0.7-0.1c-0.4,0-0.7,0.1-1.1,0.4
			c-0.3,0.2-0.6,0.6-0.9,1c-0.2,0.4-0.4,0.9-0.5,1.5l-0.7,3.2h-1.1l1.5-7h0.9l-0.1,1.3h0.1c0.3-0.4,0.6-0.7,0.8-0.9s0.4-0.3,0.6-0.4
			C167.9,128.1,168.1,128,168.4,128z"/>
		<path id="XMLID_587_" class="st1" d="M173.7,128c0.5,0,0.8,0.1,1.1,0.4c0.3,0.3,0.4,0.7,0.5,1.1h0.1c0.7-1,1.5-1.5,2.4-1.5
			c0.5,0,1,0.1,1.3,0.4s0.4,0.7,0.4,1.3c0,0.4,0,0.8-0.1,1.1l-0.9,4.2h-1.2l0.9-4.4c0.1-0.4,0.1-0.7,0.1-0.9c0-0.3-0.1-0.5-0.2-0.6
			s-0.4-0.2-0.7-0.2c-0.3,0-0.7,0.1-1,0.4s-0.6,0.6-0.9,1c-0.3,0.5-0.4,1-0.6,1.6l-0.7,3.1h-1.1l0.9-4.4c0.1-0.4,0.1-0.7,0.1-0.9
			c0-0.6-0.3-0.9-0.8-0.9c-0.3,0-0.7,0.1-1,0.4s-0.6,0.6-0.9,1.1s-0.4,1-0.6,1.7l-0.6,3h-1.1l1.5-7h0.9l-0.1,1.3h0.1
			c0.3-0.4,0.5-0.7,0.7-0.8c0.2-0.2,0.4-0.3,0.7-0.4C173.1,128.1,173.4,128,173.7,128z"/>
		<path id="XMLID_589_" class="st1" d="M182.6,135.2c-0.6,0-1-0.2-1.4-0.6s-0.5-1-0.5-1.8c0-0.9,0.1-1.7,0.4-2.4
			c0.3-0.8,0.7-1.3,1.2-1.8c0.5-0.4,1.1-0.6,1.7-0.6c0.4,0,0.7,0.1,1,0.3c0.3,0.2,0.5,0.5,0.7,0.9h0.1l0.4-1.1h0.9l-1.5,7h-0.9
			l0.2-1.3H185C184.2,134.8,183.4,135.2,182.6,135.2z M183,134.3c0.4,0,0.8-0.2,1.2-0.6c0.4-0.4,0.7-0.9,1-1.5
			c0.2-0.6,0.4-1.2,0.4-1.9c0-0.4-0.1-0.8-0.3-1s-0.5-0.4-0.9-0.4c-0.4,0-0.8,0.2-1.2,0.5s-0.7,0.8-0.9,1.4
			c-0.2,0.6-0.3,1.3-0.3,1.9c0,0.5,0.1,0.8,0.3,1.1S182.6,134.3,183,134.3z"/>
		<path id="XMLID_592_" class="st1" d="M192.2,133.1c0,0.7-0.2,1.2-0.7,1.6c-0.5,0.4-1.1,0.6-2,0.6c-0.8,0-1.4-0.1-1.9-0.4v-1.1
			c0.3,0.2,0.6,0.3,0.9,0.4c0.3,0.1,0.7,0.2,1,0.2c0.5,0,0.9-0.1,1.2-0.3s0.4-0.5,0.4-0.8c0-0.2-0.1-0.4-0.2-0.6
			c-0.1-0.2-0.5-0.4-0.9-0.7c-0.5-0.3-0.9-0.6-1.2-0.9s-0.3-0.7-0.3-1.1c0-0.6,0.2-1.1,0.6-1.4c0.4-0.4,1-0.5,1.7-0.5
			c0.7,0,1.4,0.2,2.1,0.5l-0.4,0.9c-0.2-0.1-0.5-0.2-0.8-0.3s-0.6-0.1-1-0.1c-0.4,0-0.7,0.1-0.9,0.3c-0.2,0.2-0.3,0.4-0.3,0.7
			c0,0.2,0.1,0.4,0.2,0.6s0.5,0.4,0.9,0.6c0.5,0.3,0.8,0.5,1,0.7s0.3,0.4,0.4,0.6C192.1,132.6,192.2,132.8,192.2,133.1z"/>
		<path id="XMLID_594_" class="st1" d="M194.6,135.1h-1.1l1.5-7h1.1L194.6,135.1z M195.2,126.4c0-0.2,0.1-0.4,0.2-0.6
			s0.3-0.2,0.6-0.2c0.4,0,0.6,0.2,0.6,0.6c0,0.3-0.1,0.5-0.2,0.6c-0.1,0.2-0.3,0.2-0.5,0.2c-0.2,0-0.3-0.1-0.4-0.2
			C195.3,126.7,195.2,126.6,195.2,126.4z"/>
		<path id="XMLID_597_" class="st1" d="M204.8,128c0.6,0,1.1,0.2,1.4,0.6s0.5,1,0.5,1.7c0,0.9-0.1,1.7-0.4,2.5
			c-0.3,0.7-0.7,1.3-1.2,1.7c-0.5,0.4-1.1,0.6-1.7,0.6c-0.8,0-1.4-0.4-1.8-1.2h-0.1c-0.1,0.6-0.1,1-0.2,1.2l-0.6,3h-1.1l2.1-10.1
			h0.9l-0.2,1.3h0.1c0.4-0.5,0.8-0.9,1.2-1.1C204.1,128.1,204.4,128,204.8,128z M204.4,129c-0.4,0-0.8,0.2-1.2,0.6s-0.7,0.9-1,1.5
			s-0.4,1.2-0.4,1.8c0,0.4,0.1,0.8,0.3,1c0.2,0.2,0.6,0.4,1,0.4c0.4,0,0.8-0.2,1.2-0.5c0.4-0.3,0.6-0.8,0.8-1.4
			c0.2-0.6,0.3-1.3,0.3-1.9C205.5,129.5,205.2,129,204.4,129z"/>
		<path id="XMLID_600_" class="st1" d="M210.5,135.2c-0.8,0-1.4-0.2-1.9-0.7c-0.4-0.5-0.7-1.1-0.7-1.9c0-0.8,0.2-1.6,0.5-2.3
			c0.3-0.7,0.7-1.3,1.3-1.7c0.5-0.4,1.1-0.6,1.8-0.6c0.7,0,1.2,0.1,1.5,0.4c0.3,0.3,0.5,0.7,0.5,1.2c0,0.8-0.4,1.4-1.1,1.8
			s-1.7,0.7-3,0.7h-0.2l0,0.5c0,0.5,0.1,1,0.4,1.3s0.7,0.5,1.2,0.5c0.3,0,0.6,0,0.9-0.1c0.3-0.1,0.6-0.2,1-0.4v1
			c-0.4,0.2-0.8,0.3-1.1,0.4C211.2,135.2,210.9,135.2,210.5,135.2z M211.4,129c-0.4,0-0.8,0.2-1.2,0.6c-0.4,0.4-0.7,0.9-0.8,1.6h0.1
			c0.9,0,1.6-0.1,2.1-0.4c0.5-0.2,0.8-0.6,0.8-1.1c0-0.2-0.1-0.4-0.2-0.6C211.9,129,211.7,129,211.4,129z"/>
		<path id="XMLID_603_" class="st1" d="M218.7,128c0.3,0,0.5,0,0.8,0.1l-0.2,1c-0.2-0.1-0.5-0.1-0.7-0.1c-0.4,0-0.7,0.1-1.1,0.4
			c-0.3,0.2-0.6,0.6-0.9,1c-0.2,0.4-0.4,0.9-0.5,1.5l-0.7,3.2h-1.1l1.5-7h0.9l-0.1,1.3h0.1c0.3-0.4,0.6-0.7,0.8-0.9s0.4-0.3,0.6-0.4
			C218.2,128.1,218.4,128,218.7,128z"/>
		<path id="XMLID_605_" class="st1" d="M223.7,133.1c0,0.7-0.2,1.2-0.7,1.6c-0.5,0.4-1.1,0.6-2,0.6c-0.8,0-1.4-0.1-1.9-0.4v-1.1
			c0.3,0.2,0.6,0.3,0.9,0.4c0.3,0.1,0.7,0.2,1,0.2c0.5,0,0.9-0.1,1.2-0.3s0.4-0.5,0.4-0.8c0-0.2-0.1-0.4-0.2-0.6
			c-0.1-0.2-0.5-0.4-0.9-0.7c-0.5-0.3-0.9-0.6-1.2-0.9s-0.3-0.7-0.3-1.1c0-0.6,0.2-1.1,0.6-1.4c0.4-0.4,1-0.5,1.7-0.5
			c0.7,0,1.4,0.2,2.1,0.5l-0.4,0.9c-0.2-0.1-0.5-0.2-0.8-0.3s-0.6-0.1-1-0.1c-0.4,0-0.7,0.1-0.9,0.3c-0.2,0.2-0.3,0.4-0.3,0.7
			c0,0.2,0.1,0.4,0.2,0.6s0.5,0.4,0.9,0.6c0.5,0.3,0.8,0.5,1,0.7s0.3,0.4,0.4,0.6C223.7,132.6,223.7,132.8,223.7,133.1z"/>
		<path id="XMLID_607_" class="st1" d="M231.3,130.8c0,0.8-0.2,1.6-0.5,2.3c-0.3,0.7-0.7,1.2-1.2,1.6c-0.5,0.4-1.1,0.6-1.8,0.6
			c-0.8,0-1.4-0.2-1.9-0.7c-0.5-0.5-0.7-1.1-0.7-2c0-0.8,0.2-1.6,0.5-2.3s0.7-1.3,1.3-1.6c0.5-0.4,1.1-0.6,1.8-0.6
			c0.8,0,1.4,0.2,1.9,0.7C231.1,129.3,231.3,129.9,231.3,130.8z M230.2,130.6c0-0.5-0.1-0.9-0.4-1.2s-0.6-0.4-1-0.4
			c-0.4,0-0.9,0.2-1.2,0.5c-0.4,0.3-0.6,0.7-0.8,1.3c-0.2,0.6-0.3,1.2-0.3,1.8c0,0.5,0.1,1,0.4,1.3c0.3,0.3,0.6,0.4,1.1,0.4
			c0.4,0,0.8-0.2,1.2-0.5s0.6-0.7,0.8-1.3C230.1,132,230.2,131.3,230.2,130.6z"/>
		<path id="XMLID_610_" class="st1" d="M237.7,135.1h-1.1l0.9-4.4c0.1-0.4,0.1-0.7,0.1-0.9c0-0.3-0.1-0.5-0.2-0.6
			c-0.1-0.2-0.4-0.2-0.7-0.2c-0.4,0-0.7,0.1-1.1,0.4s-0.7,0.6-0.9,1.1c-0.3,0.5-0.5,1-0.6,1.7l-0.6,3h-1.1l1.5-7h0.9l-0.1,1.3h0.1
			c0.3-0.4,0.5-0.6,0.8-0.8s0.5-0.3,0.7-0.4c0.3-0.1,0.5-0.2,0.8-0.2c0.5,0,1,0.1,1.3,0.4c0.3,0.3,0.5,0.7,0.5,1.3
			c0,0.3,0,0.7-0.1,1.1L237.7,135.1z"/>
		<path id="XMLID_612_" class="st1" d="M242,135.2c-0.6,0-1-0.2-1.4-0.6s-0.5-1-0.5-1.8c0-0.9,0.1-1.7,0.4-2.4
			c0.3-0.8,0.7-1.3,1.2-1.8c0.5-0.4,1.1-0.6,1.7-0.6c0.4,0,0.7,0.1,1,0.3c0.3,0.2,0.5,0.5,0.7,0.9h0.1l0.4-1.1h0.9l-1.5,7h-0.9
			l0.2-1.3h-0.1C243.6,134.8,242.8,135.2,242,135.2z M242.4,134.3c0.4,0,0.8-0.2,1.2-0.6c0.4-0.4,0.7-0.9,1-1.5
			c0.2-0.6,0.4-1.2,0.4-1.9c0-0.4-0.1-0.8-0.3-1s-0.5-0.4-0.9-0.4c-0.4,0-0.8,0.2-1.2,0.5s-0.7,0.8-0.9,1.4
			c-0.2,0.6-0.3,1.3-0.3,1.9c0,0.5,0.1,0.8,0.3,1.1S242,134.3,242.4,134.3z"/>
		<path id="XMLID_615_" class="st1" d="M248.4,135.1h-1.1l2.1-9.9h1.1L248.4,135.1z"/>
		<path id="XMLID_617_" class="st1" d="M69.4,148.7c0,0.7-0.2,1.2-0.7,1.6c-0.5,0.4-1.1,0.6-2,0.6c-0.8,0-1.4-0.1-1.9-0.4v-1.1
			c0.3,0.2,0.6,0.3,0.9,0.4c0.3,0.1,0.7,0.2,1,0.2c0.5,0,0.9-0.1,1.2-0.3s0.4-0.5,0.4-0.8c0-0.2-0.1-0.4-0.2-0.6
			c-0.1-0.2-0.5-0.4-0.9-0.7c-0.5-0.3-0.9-0.6-1.2-0.9s-0.3-0.7-0.3-1.1c0-0.6,0.2-1.1,0.6-1.4c0.4-0.4,1-0.5,1.7-0.5
			c0.7,0,1.4,0.2,2.1,0.5l-0.4,0.9c-0.2-0.1-0.5-0.2-0.8-0.3s-0.6-0.1-1-0.1c-0.4,0-0.7,0.1-0.9,0.3c-0.2,0.2-0.3,0.4-0.3,0.7
			c0,0.2,0.1,0.4,0.2,0.6s0.5,0.4,0.9,0.6c0.5,0.3,0.8,0.5,1,0.7s0.3,0.4,0.4,0.6C69.4,148.2,69.4,148.4,69.4,148.7z"/>
		<path id="XMLID_619_" class="st1" d="M72.8,150.8c-0.6,0-1-0.2-1.4-0.6s-0.5-1-0.5-1.8c0-0.9,0.1-1.7,0.4-2.4
			c0.3-0.8,0.7-1.3,1.2-1.8c0.5-0.4,1.1-0.6,1.7-0.6c0.4,0,0.7,0.1,1,0.3c0.3,0.2,0.5,0.5,0.7,0.9h0.1l0.4-1.1h0.9l-1.5,7h-0.9
			l0.2-1.3h-0.1C74.5,150.4,73.7,150.8,72.8,150.8z M73.2,149.9c0.4,0,0.8-0.2,1.2-0.6c0.4-0.4,0.7-0.9,1-1.5
			c0.2-0.6,0.4-1.2,0.4-1.9c0-0.4-0.1-0.8-0.3-1s-0.5-0.4-0.9-0.4c-0.4,0-0.8,0.2-1.2,0.5s-0.7,0.8-0.9,1.4
			c-0.2,0.6-0.3,1.3-0.3,1.9c0,0.5,0.1,0.8,0.3,1.1S72.9,149.9,73.2,149.9z"/>
		<path id="XMLID_1178_" class="st1" d="M78.3,143.8h1.1l0.5,3.4c0,0.3,0.1,0.7,0.1,1.2c0,0.5,0.1,1,0.1,1.4h0
			c0.1-0.3,0.3-0.7,0.5-1.1c0.2-0.5,0.4-0.8,0.5-1.1l2-3.8h1.2l-4.4,8.1c-0.4,0.7-0.8,1.2-1.2,1.5c-0.4,0.3-0.9,0.4-1.4,0.4
			c-0.3,0-0.6,0-0.9-0.1v-0.9c0.3,0.1,0.5,0.1,0.8,0.1c0.3,0,0.6-0.1,0.9-0.3s0.5-0.5,0.7-0.9l0.5-0.8L78.3,143.8z"/>
		<path id="XMLID_1180_" class="st1" d="M86.3,150.8c-0.6,0-1-0.2-1.4-0.6s-0.5-1-0.5-1.8c0-0.9,0.1-1.7,0.4-2.4
			c0.3-0.8,0.7-1.3,1.2-1.8c0.5-0.4,1.1-0.6,1.7-0.6c0.4,0,0.7,0.1,1,0.3c0.3,0.2,0.5,0.5,0.7,0.9h0.1l0.4-1.1h0.9l-1.5,7h-0.9
			l0.2-1.3h-0.1C87.9,150.4,87.1,150.8,86.3,150.8z M86.7,149.9c0.4,0,0.8-0.2,1.2-0.6c0.4-0.4,0.7-0.9,1-1.5
			c0.2-0.6,0.4-1.2,0.4-1.9c0-0.4-0.1-0.8-0.3-1s-0.5-0.4-0.9-0.4c-0.4,0-0.8,0.2-1.2,0.5s-0.7,0.8-0.9,1.4
			c-0.2,0.6-0.3,1.3-0.3,1.9c0,0.5,0.1,0.8,0.3,1.1S86.3,149.9,86.7,149.9z"/>
		<path id="XMLID_1183_" class="st1" d="M99.3,148.7c0,0.7-0.2,1.2-0.7,1.6c-0.5,0.4-1.1,0.6-2,0.6c-0.8,0-1.4-0.1-1.9-0.4v-1.1
			c0.3,0.2,0.6,0.3,0.9,0.4c0.3,0.1,0.7,0.2,1,0.2c0.5,0,0.9-0.1,1.2-0.3s0.4-0.5,0.4-0.8c0-0.2-0.1-0.4-0.2-0.6
			c-0.1-0.2-0.5-0.4-0.9-0.7c-0.5-0.3-0.9-0.6-1.2-0.9s-0.3-0.7-0.3-1.1c0-0.6,0.2-1.1,0.6-1.4c0.4-0.4,1-0.5,1.7-0.5
			c0.7,0,1.4,0.2,2.1,0.5l-0.4,0.9c-0.2-0.1-0.5-0.2-0.8-0.3s-0.6-0.1-1-0.1c-0.4,0-0.7,0.1-0.9,0.3c-0.2,0.2-0.3,0.4-0.3,0.7
			c0,0.2,0.1,0.4,0.2,0.6s0.5,0.4,0.9,0.6c0.5,0.3,0.8,0.5,1,0.7s0.3,0.4,0.4,0.6C99.2,148.2,99.3,148.4,99.3,148.7z"/>
		<path id="XMLID_1185_" class="st1" d="M103.3,150.8c-0.8,0-1.4-0.2-1.9-0.7c-0.4-0.5-0.7-1.1-0.7-1.9c0-0.8,0.2-1.6,0.5-2.3
			c0.3-0.7,0.7-1.3,1.3-1.7c0.5-0.4,1.1-0.6,1.8-0.6c0.7,0,1.2,0.1,1.5,0.4c0.3,0.3,0.5,0.7,0.5,1.2c0,0.8-0.4,1.4-1.1,1.8
			s-1.7,0.7-3,0.7H102l0,0.5c0,0.5,0.1,1,0.4,1.3s0.7,0.5,1.2,0.5c0.3,0,0.6,0,0.9-0.1c0.3-0.1,0.6-0.2,1-0.4v1
			c-0.4,0.2-0.8,0.3-1.1,0.4C104,150.8,103.7,150.8,103.3,150.8z M104.2,144.6c-0.4,0-0.8,0.2-1.2,0.6c-0.4,0.4-0.7,0.9-0.8,1.6h0.1
			c0.9,0,1.6-0.1,2.1-0.4c0.5-0.2,0.8-0.6,0.8-1.1c0-0.2-0.1-0.4-0.2-0.6C104.8,144.6,104.5,144.6,104.2,144.6z"/>
		<path id="XMLID_1188_" class="st1" d="M109.9,150.8c-0.8,0-1.5-0.2-1.9-0.7c-0.5-0.5-0.7-1.1-0.7-1.9c0-0.9,0.2-1.6,0.5-2.4
			c0.3-0.7,0.7-1.3,1.3-1.7c0.5-0.4,1.2-0.6,1.9-0.6c0.6,0,1.2,0.1,1.7,0.3l-0.3,1c-0.5-0.2-0.9-0.3-1.4-0.3c-0.5,0-0.9,0.2-1.3,0.5
			c-0.4,0.3-0.7,0.8-0.9,1.3c-0.2,0.6-0.3,1.2-0.3,1.8c0,0.5,0.1,0.9,0.4,1.2s0.6,0.4,1.1,0.4c0.3,0,0.6,0,0.9-0.1
			c0.3-0.1,0.5-0.2,0.8-0.3v1C111.1,150.7,110.5,150.8,109.9,150.8z"/>
		<path id="XMLID_1190_" class="st1" d="M115,150.8c-0.6,0-1-0.2-1.4-0.6s-0.5-1-0.5-1.8c0-0.9,0.1-1.7,0.4-2.4
			c0.3-0.8,0.7-1.3,1.2-1.8c0.5-0.4,1.1-0.6,1.7-0.6c0.4,0,0.7,0.1,1,0.3c0.3,0.2,0.5,0.5,0.7,0.9h0.1l0.4-1.1h0.9l-1.5,7h-0.9
			l0.2-1.3h-0.1C116.7,150.4,115.9,150.8,115,150.8z M115.4,149.9c0.4,0,0.8-0.2,1.2-0.6c0.4-0.4,0.7-0.9,1-1.5
			c0.2-0.6,0.4-1.2,0.4-1.9c0-0.4-0.1-0.8-0.3-1s-0.5-0.4-0.9-0.4c-0.4,0-0.8,0.2-1.2,0.5s-0.7,0.8-0.9,1.4
			c-0.2,0.6-0.3,1.3-0.3,1.9c0,0.5,0.1,0.8,0.3,1.1S115.1,149.9,115.4,149.9z"/>
		<path id="XMLID_1193_" class="st1" d="M124.7,143.6c0.3,0,0.5,0,0.8,0.1l-0.2,1c-0.2-0.1-0.5-0.1-0.7-0.1c-0.4,0-0.7,0.1-1.1,0.4
			c-0.3,0.2-0.6,0.6-0.9,1c-0.2,0.4-0.4,0.9-0.5,1.5l-0.7,3.2h-1.1l1.5-7h0.9l-0.1,1.3h0.1c0.3-0.4,0.6-0.7,0.8-0.9s0.4-0.3,0.6-0.4
			C124.2,143.7,124.5,143.6,124.7,143.6z"/>
		<path id="XMLID_1195_" class="st1" d="M127.6,150.8c-0.6,0-1-0.2-1.4-0.6s-0.5-1-0.5-1.8c0-0.9,0.1-1.7,0.4-2.4
			c0.3-0.8,0.7-1.3,1.2-1.8c0.5-0.4,1.1-0.6,1.7-0.6c0.4,0,0.7,0.1,1,0.3c0.3,0.2,0.5,0.5,0.7,0.9h0.1l0.4-1.1h0.9l-1.5,7h-0.9
			l0.2-1.3H130C129.2,150.4,128.4,150.8,127.6,150.8z M128,149.9c0.4,0,0.8-0.2,1.2-0.6c0.4-0.4,0.7-0.9,1-1.5
			c0.2-0.6,0.4-1.2,0.4-1.9c0-0.4-0.1-0.8-0.3-1s-0.5-0.4-0.9-0.4c-0.4,0-0.8,0.2-1.2,0.5s-0.7,0.8-0.9,1.4
			c-0.2,0.6-0.3,1.3-0.3,1.9c0,0.5,0.1,0.8,0.3,1.1S127.6,149.9,128,149.9z"/>
		<path id="XMLID_1198_" class="st1" d="M142.6,146.4c0,0.8-0.2,1.6-0.5,2.3c-0.3,0.7-0.7,1.2-1.2,1.6c-0.5,0.4-1.1,0.6-1.8,0.6
			c-0.8,0-1.4-0.2-1.9-0.7c-0.5-0.5-0.7-1.1-0.7-2c0-0.8,0.2-1.6,0.5-2.3s0.7-1.3,1.3-1.6c0.5-0.4,1.1-0.6,1.8-0.6
			c0.8,0,1.4,0.2,1.9,0.7C142.3,144.9,142.6,145.5,142.6,146.4z M141.4,146.2c0-0.5-0.1-0.9-0.4-1.2s-0.6-0.4-1-0.4
			c-0.4,0-0.9,0.2-1.2,0.5c-0.4,0.3-0.6,0.7-0.8,1.3c-0.2,0.6-0.3,1.2-0.3,1.8c0,0.5,0.1,1,0.4,1.3c0.3,0.3,0.6,0.4,1.1,0.4
			c0.4,0,0.8-0.2,1.2-0.5s0.6-0.7,0.8-1.3C141.3,147.6,141.4,146.9,141.4,146.2z"/>
		<path id="XMLID_1201_" class="st1" d="M148.9,150.7h-1.1l0.9-4.4c0.1-0.4,0.1-0.7,0.1-0.9c0-0.3-0.1-0.5-0.2-0.6
			c-0.1-0.2-0.4-0.2-0.7-0.2c-0.4,0-0.7,0.1-1.1,0.4s-0.7,0.6-0.9,1.1c-0.3,0.5-0.5,1-0.6,1.7l-0.6,3h-1.1l1.5-7h0.9l-0.1,1.3h0.1
			c0.3-0.4,0.5-0.6,0.8-0.8s0.5-0.3,0.7-0.4c0.3-0.1,0.5-0.2,0.8-0.2c0.5,0,1,0.1,1.3,0.4c0.3,0.3,0.5,0.7,0.5,1.3
			c0,0.3,0,0.7-0.1,1.1L148.9,150.7z"/>
		<path id="XMLID_1203_" class="st1" d="M152.2,150.7H151l2.1-9.9h1.1L152.2,150.7z"/>
		<path id="XMLID_1205_" class="st1" d="M155.6,150.7h-1.1l1.5-7h1.1L155.6,150.7z M156.2,142c0-0.2,0.1-0.4,0.2-0.6
			s0.3-0.2,0.6-0.2c0.4,0,0.6,0.2,0.6,0.6c0,0.3-0.1,0.5-0.2,0.6c-0.1,0.2-0.3,0.2-0.5,0.2c-0.2,0-0.3-0.1-0.4-0.2
			C156.3,142.3,156.2,142.2,156.2,142z"/>
		<path id="XMLID_1208_" class="st1" d="M163.1,150.7H162l0.9-4.4c0.1-0.4,0.1-0.7,0.1-0.9c0-0.3-0.1-0.5-0.2-0.6
			c-0.1-0.2-0.4-0.2-0.7-0.2c-0.4,0-0.7,0.1-1.1,0.4s-0.7,0.6-0.9,1.1c-0.3,0.5-0.5,1-0.6,1.7l-0.6,3h-1.1l1.5-7h0.9L160,145h0.1
			c0.3-0.4,0.5-0.6,0.8-0.8s0.5-0.3,0.7-0.4c0.3-0.1,0.5-0.2,0.8-0.2c0.5,0,1,0.1,1.3,0.4c0.3,0.3,0.5,0.7,0.5,1.3
			c0,0.3,0,0.7-0.1,1.1L163.1,150.7z"/>
		<path id="XMLID_1210_" class="st1" d="M168.1,150.8c-0.8,0-1.4-0.2-1.9-0.7c-0.4-0.5-0.7-1.1-0.7-1.9c0-0.8,0.2-1.6,0.5-2.3
			c0.3-0.7,0.7-1.3,1.3-1.7c0.5-0.4,1.1-0.6,1.8-0.6c0.7,0,1.2,0.1,1.5,0.4c0.3,0.3,0.5,0.7,0.5,1.2c0,0.8-0.4,1.4-1.1,1.8
			s-1.7,0.7-3,0.7h-0.2l0,0.5c0,0.5,0.1,1,0.4,1.3s0.7,0.5,1.2,0.5c0.3,0,0.6,0,0.9-0.1c0.3-0.1,0.6-0.2,1-0.4v1
			c-0.4,0.2-0.8,0.3-1.1,0.4C168.8,150.8,168.4,150.8,168.1,150.8z M169,144.6c-0.4,0-0.8,0.2-1.2,0.6c-0.4,0.4-0.7,0.9-0.8,1.6h0.1
			c0.9,0,1.6-0.1,2.1-0.4c0.5-0.2,0.8-0.6,0.8-1.1c0-0.2-0.1-0.4-0.2-0.6C169.5,144.6,169.3,144.6,169,144.6z"/>
		<path id="XMLID_1213_" class="st1" d="M171.6,150.2c0-0.3,0.1-0.6,0.3-0.8c0.2-0.2,0.4-0.3,0.7-0.3c0.2,0,0.3,0.1,0.5,0.2
			s0.2,0.3,0.2,0.5c0,0.3-0.1,0.6-0.3,0.8s-0.4,0.3-0.7,0.3c-0.2,0-0.4-0.1-0.5-0.2C171.7,150.6,171.6,150.4,171.6,150.2z"/>
	</g>
</g>
</svg>
