<!-- Generator: Adobe Illustrator 19.0.0, SVG Export Plug-In  -->
<svg version="1.1"
	 xmlns="http://www.w3.org/2000/svg" xmlns:xlink="http://www.w3.org/1999/xlink" xmlns:a="http://ns.adobe.com/AdobeSVGViewerExtensions/3.0/"
	 x="0px" y="0px" width="76.2px" height="96.2px" viewBox="0 0 76.2 96.2" style="enable-background:new 0 0 76.2 96.2;"
	 xml:space="preserve">
<style type="text/css">
	.st0{fill:#6D6D6D;}
	.st1{fill:#FFFFFF;}
	.st2{fill:#DEE0E0;}
	.st3{fill:#F99700;}
	.st4{fill:#086A87;}
	.st5{fill:#F45722;}
</style>
<defs>
</defs>
<g>
	<path class="st0" d="M52,96.2H6.6c-3.6,0-6.6-3-6.6-6.6v-83C0,3,3,0,6.6,0H52c3.6,0,6.6,3,6.6,6.6v83C58.6,93.3,55.7,96.2,52,96.2z
		"/>
	<rect x="8.7" y="9" class="st1" width="41.2" height="72.2"/>
	<circle class="st1" cx="29.3" cy="89.1" r="2.9"/>
	<rect x="8.7" y="31.1" class="st2" width="15.4" height="31.1"/>
	<rect x="24.1" y="31.1" class="st3" width="46.9" height="31.1"/>
	<path class="st4" d="M24.1,31.1l19,15.7c2.6,2.1,6.3,2.1,8.9,0l19-15.7H24.1z"/>
	<circle class="st5" cx="71" cy="31.8" r="5.3"/>
</g>
</svg>