<!-- Generator: Adobe Illustrator 19.0.0, SVG Export Plug-In  -->
<svg version="1.1"
	 xmlns="http://www.w3.org/2000/svg" xmlns:xlink="http://www.w3.org/1999/xlink" xmlns:a="http://ns.adobe.com/AdobeSVGViewerExtensions/3.0/"
	 x="0px" y="0px" width="43px" height="32.2px" viewBox="0 0 43 32.2" style="enable-background:new 0 0 43 32.2;"
	 xml:space="preserve">
<style type="text/css">
	.st0{fill:#EE2361;stroke:#15103F;stroke-width:3;stroke-linecap:round;stroke-linejoin:round;stroke-miterlimit:10;}
</style>
<defs>
</defs>
<path class="st0" d="M41.5,12c0-0.3,0-0.5,0-0.5c0-5.5-4.5-10-10-10c-5.5,0-10,4.5-10,10c0-5.5-4.5-10-10-10c-5.5,0-10,4.5-10,10
	c0,0,0,0.2,0,0.5c0,0.7,0.1,1.3,0.3,2c0.9,4.5,4.7,13.8,19.7,16.8c15-3,18.8-12.3,19.7-16.8C41.3,13.3,41.4,12.6,41.5,12z"/>
</svg>