<?xml version="1.0" encoding="utf-8"?>
<!-- Generator: Adobe Illustrator 19.0.0, SVG Export Plug-In . SVG Version: 6.00 Build 0)  -->
<svg version="1.1" id="Layer_1" xmlns="http://www.w3.org/2000/svg" xmlns:xlink="http://www.w3.org/1999/xlink" x="0px" y="0px"
	 viewBox="412.4 -128.4 226.7 220.9" style="enable-background:new 412.4 -128.4 226.7 220.9;" xml:space="preserve">
<style type="text/css">
	.st0{fill:#33CCCC;}
	.st1{fill:#FFFFFF;}
	.st2{fill:none;stroke:#FFFFFF;stroke-width:1.5;stroke-miterlimit:10;}
</style>
<rect x="412.4" y="-128.4" class="st0" width="226.7" height="220.9"/>
<g>
	<g>
		<path class="st1" d="M463.4,4.2h-1.7V-8.5h-4.1v-1.6h9.8v1.6h-4.1V4.2z"/>
		<path class="st1" d="M473.4-6.7c0.4,0,0.8,0,1.2,0.1L474.4-5c-0.4-0.1-0.7-0.1-1.1-0.1c-0.5,0-1,0.2-1.4,0.5
			c-0.4,0.3-0.8,0.7-1,1.3c-0.3,0.5-0.4,1.2-0.4,1.8v5.7h-1.6V-6.5h1.3l0.2,2h0.1c0.4-0.7,0.8-1.2,1.3-1.6
			C472.3-6.5,472.8-6.7,473.4-6.7z"/>
		<path class="st1" d="M482.3,4.2L482,2.7h-0.1c-0.5,0.7-1,1.1-1.5,1.4c-0.5,0.2-1.1,0.4-1.8,0.4c-1,0-1.7-0.3-2.3-0.8
			c-0.6-0.6-0.8-1.3-0.8-2.3c0-2.2,1.6-3.3,4.7-3.4l1.7-0.1v-0.6c0-0.8-0.2-1.4-0.5-1.8c-0.3-0.4-0.8-0.6-1.6-0.6
			c-0.5,0-1,0.1-1.5,0.3c-0.5,0.2-0.9,0.4-1.3,0.6l-0.5-1.3c0.5-0.3,1-0.5,1.6-0.7c0.6-0.2,1.2-0.2,1.7-0.2c1.2,0,2.1,0.3,2.7,0.9
			c0.6,0.6,0.9,1.5,0.9,2.7v7.3H482.3z M479,3c0.9,0,1.6-0.3,2.1-0.8c0.5-0.5,0.8-1.3,0.8-2.3v-1L480.5-1c-1.1,0-2,0.2-2.5,0.6
			c-0.5,0.3-0.8,0.9-0.8,1.6c0,0.6,0.2,1,0.5,1.3C478,2.8,478.4,3,479,3z M481.9-10.4c0,0.9-0.5,1.5-1.5,1.7l-0.1,1.1h-1l-0.1-1.7
			c0.4-0.1,0.8-0.2,1.1-0.4c0.3-0.2,0.4-0.4,0.4-0.7c0-0.5-0.4-0.8-1.2-0.8c-0.3,0-0.6,0-0.9,0.1v-1c0.2-0.1,0.6-0.1,1-0.1
			C481.1-12.2,481.9-11.6,481.9-10.4z"/>
		<path class="st1" d="M486.4-9.4c0-0.4,0.1-0.7,0.3-0.8c0.2-0.2,0.4-0.3,0.7-0.3c0.3,0,0.5,0.1,0.7,0.3s0.3,0.5,0.3,0.8
			c0,0.4-0.1,0.7-0.3,0.8c-0.2,0.2-0.4,0.3-0.7,0.3c-0.3,0-0.5-0.1-0.7-0.3C486.5-8.7,486.4-9,486.4-9.4z M488.2,4.2h-1.6V-6.5h1.6
			V4.2z"/>
		<path class="st1" d="M499.6,4.4c-1.3,0-2.3-0.5-3-1.4c-0.7-1-1.1-2.3-1.1-4.1c0-1.8,0.4-3.1,1.1-4.1c0.7-1,1.7-1.5,3-1.5
			c1.3,0,2.3,0.5,3.1,1.6h0.1c0-0.1,0-0.4-0.1-0.8c0-0.4,0-0.7,0-0.8V-11h1.6V4.2H503l-0.2-1.4h-0.1C501.9,3.9,500.9,4.4,499.6,4.4z
			 M499.8,3c1,0,1.7-0.3,2.1-0.9c0.5-0.6,0.7-1.5,0.7-2.9v-0.3c0-1.5-0.2-2.6-0.7-3.2s-1.2-1-2.2-1c-0.8,0-1.5,0.4-1.9,1.1
			c-0.5,0.7-0.7,1.7-0.7,3.1c0,1.3,0.2,2.3,0.7,3C498.3,2.6,499,3,499.8,3z"/>
		<path class="st1" d="M513.5,4.2l-0.3-1.5h-0.1c-0.5,0.7-1,1.1-1.5,1.4c-0.5,0.2-1.1,0.4-1.8,0.4c-1,0-1.7-0.3-2.3-0.8
			c-0.6-0.6-0.8-1.3-0.8-2.3c0-2.2,1.6-3.3,4.7-3.4l1.7-0.1v-0.6c0-0.8-0.2-1.4-0.5-1.8c-0.3-0.4-0.8-0.6-1.6-0.6
			c-0.5,0-1,0.1-1.5,0.3c-0.5,0.2-0.9,0.4-1.3,0.6l-0.5-1.3c0.5-0.3,1-0.5,1.6-0.7c0.6-0.2,1.2-0.2,1.7-0.2c1.2,0,2.1,0.3,2.7,0.9
			c0.6,0.6,0.9,1.5,0.9,2.7v7.3H513.5z M512-7.9h-1.1c-0.4-0.4-0.9-0.9-1.5-1.5c-0.5-0.6-0.9-1.1-1.1-1.5v-0.2h1.9
			c0.2,0.4,0.5,0.9,0.8,1.5c0.4,0.6,0.7,1.1,1,1.4V-7.9z M510.1,3c0.9,0,1.6-0.3,2.1-0.8c0.5-0.5,0.8-1.3,0.8-2.3v-1L511.6-1
			c-1.1,0-2,0.2-2.5,0.6c-0.5,0.3-0.8,0.9-0.8,1.6c0,0.6,0.2,1,0.5,1.3C509.1,2.8,509.6,3,510.1,3z"/>
		<path class="st1" d="M517.6-9.4c0-0.4,0.1-0.7,0.3-0.8s0.4-0.3,0.7-0.3c0.3,0,0.5,0.1,0.7,0.3s0.3,0.5,0.3,0.8
			c0,0.4-0.1,0.7-0.3,0.8c-0.2,0.2-0.4,0.3-0.7,0.3c-0.3,0-0.5-0.1-0.7-0.3C517.7-8.7,517.6-9,517.6-9.4z M519.3,4.2h-1.6V-6.5h1.6
			V4.2z"/>
		<path class="st1" d="M530.5,3c0.2,0,0.5,0,0.7-0.1c0.3,0,0.5-0.1,0.6-0.2v1.3c-0.2,0.1-0.4,0.1-0.7,0.2c-0.3,0.1-0.6,0.1-1,0.1
			c-1.9,0-2.9-1.1-2.9-3.3v-6.2h-1.4V-6l1.4-0.7L528-9h1v2.5h2.8v1.4H529V1c0,0.6,0.1,1.1,0.4,1.4C529.6,2.8,530,3,530.5,3z"/>
		<path class="st1" d="M538.4-6.7c0.4,0,0.8,0,1.2,0.1L539.4-5c-0.4-0.1-0.7-0.1-1.1-0.1c-0.5,0-1,0.2-1.4,0.5
			c-0.4,0.3-0.8,0.7-1,1.3c-0.3,0.5-0.4,1.2-0.4,1.8v5.7h-1.6V-6.5h1.3l0.2,2h0.1c0.4-0.7,0.8-1.2,1.3-1.6
			C537.3-6.5,537.8-6.7,538.4-6.7z"/>
		<path class="st1" d="M545.5,4.4c-1.5,0-2.6-0.5-3.5-1.5c-0.8-1-1.3-2.3-1.3-4c0-1.7,0.4-3.1,1.2-4.1c0.8-1,1.8-1.5,3.2-1.5
			c1.2,0,2.2,0.4,3,1.3s1.1,2,1.1,3.5v1.1h-6.8c0,1.2,0.3,2.1,0.9,2.8c0.5,0.6,1.3,0.9,2.3,0.9c0.5,0,1-0.1,1.5-0.2
			c0.5-0.1,1-0.3,1.7-0.6v1.5c-0.5,0.3-1.1,0.4-1.5,0.5C546.7,4.4,546.1,4.4,545.5,4.4z M542-8.1c0.7-0.9,1.3-1.5,1.6-1.9
			c0.3-0.4,0.5-0.8,0.7-1h1.7c0.3,0.7,1.1,1.7,2.3,3v0.2H547c-0.5-0.3-1.2-0.9-2-1.8c-0.8,0.8-1.4,1.4-2,1.8H542V-8.1z M545-5.3
			c-0.8,0-1.4,0.3-1.8,0.8c-0.4,0.5-0.7,1.3-0.8,2.3h5c0-1-0.2-1.8-0.6-2.3C546.4-5,545.8-5.3,545-5.3z"/>
		<path class="st1" d="M558.3,4.2v-6.9c0-0.9-0.2-1.5-0.5-1.9c-0.4-0.4-0.9-0.6-1.7-0.6c-1,0-1.7,0.3-2.2,0.9
			c-0.5,0.6-0.7,1.6-0.7,3v5.6h-1.6V-6.5h1.3l0.2,1.5h0.1c0.3-0.5,0.7-0.9,1.3-1.2c0.6-0.3,1.2-0.4,1.8-0.4c1.2,0,2.1,0.3,2.7,1
			c0.6,0.6,0.9,1.6,0.9,3v7H558.3z"/>
		<path class="st1" d="M569.4,4.2l7.8-17H567v-3.7h14.9v2.7l-7.8,18H569.4z"/>
		<path class="st1" d="M434.2,23.4c0.2,0,0.5,0,0.7-0.1c0.3,0,0.5-0.1,0.6-0.2v1.3c-0.2,0.1-0.4,0.1-0.7,0.2c-0.3,0.1-0.6,0.1-1,0.1
			c-1.9,0-2.9-1.1-2.9-3.3v-6.2h-1.4v-0.8l1.4-0.7l0.6-2.3h1v2.5h2.8v1.4h-2.8v6.2c0,0.6,0.1,1.1,0.4,1.4S433.7,23.4,434.2,23.4z"/>
		<path class="st1" d="M444.2,24.6v-6.9c0-0.9-0.2-1.5-0.5-1.9c-0.4-0.4-0.9-0.6-1.7-0.6c-1,0-1.7,0.3-2.2,0.9
			c-0.5,0.6-0.7,1.6-0.7,3v5.5h-1.6V9.4h1.6v4.5c0,0.6,0,1.1-0.1,1.5h0.1c0.3-0.5,0.7-0.9,1.2-1.2c0.5-0.3,1.1-0.4,1.8-0.4
			c1.2,0,2.1,0.3,2.7,0.9c0.6,0.6,0.9,1.6,0.9,3v7H444.2z"/>
		<path class="st1" d="M448.7,27c0-0.4,0.1-0.7,0.3-0.9c0.2-0.2,0.4-0.3,0.7-0.3c0.3,0,0.5,0.1,0.7,0.3c0.2,0.2,0.3,0.5,0.3,0.9
			c0,0.3-0.1,0.6-0.3,0.8c-0.2,0.2-0.4,0.3-0.7,0.3c-0.3,0-0.5-0.1-0.7-0.3C448.8,27.6,448.7,27.4,448.7,27z M448.8,11
			c0-0.4,0.1-0.7,0.3-0.8s0.4-0.3,0.7-0.3c0.3,0,0.5,0.1,0.7,0.3s0.3,0.5,0.3,0.8c0,0.4-0.1,0.7-0.3,0.8c-0.2,0.2-0.4,0.3-0.7,0.3
			c-0.3,0-0.5-0.1-0.7-0.3C448.9,11.7,448.8,11.4,448.8,11z M450.5,24.6h-1.6V13.9h1.6V24.6z"/>
		<path class="st1" d="M461.7,23.4c0.2,0,0.5,0,0.7-0.1c0.3,0,0.5-0.1,0.6-0.2v1.3c-0.2,0.1-0.4,0.1-0.7,0.2c-0.3,0.1-0.6,0.1-1,0.1
			c-1.9,0-2.9-1.1-2.9-3.3v-6.2h-1.4v-0.8l1.4-0.7l0.6-2.3h1v2.5h2.8v1.4h-2.8v6.2c0,0.6,0.1,1.1,0.4,1.4
			C460.8,23.2,461.2,23.4,461.7,23.4z"/>
		<path class="st1" d="M469.6,13.7c0.4,0,0.8,0,1.2,0.1l-0.2,1.6c-0.4-0.1-0.7-0.1-1.1-0.1c-0.5,0-1,0.2-1.4,0.5
			c-0.4,0.3-0.8,0.7-1,1.3c-0.3,0.6-0.4,1.2-0.4,1.8v5.7H465V13.9h1.3l0.2,2h0.1c0.4-0.7,0.8-1.2,1.3-1.6
			C468.5,13.9,469,13.7,469.6,13.7z"/>
		<path class="st1" d="M474.2,13.9v6.9c0,0.9,0.2,1.5,0.5,1.9c0.4,0.4,0.9,0.6,1.7,0.6c1,0,1.7-0.3,2.2-0.9c0.5-0.6,0.7-1.6,0.7-3
			v-5.6h1.6v1.2c0.5-0.1,0.8-0.3,1-0.8c0.2-0.4,0.3-1.1,0.3-2.1h1.7l0.1,0.2c-0.2,1.2-0.6,2.2-1.1,2.8c-0.5,0.6-1.2,1-2.1,1.1v8.3
			h-1.3l-0.2-1.4h-0.1c-0.3,0.5-0.7,0.9-1.2,1.2c-0.5,0.3-1.1,0.4-1.8,0.4c-1.2,0-2.1-0.3-2.7-0.9c-0.6-0.6-0.9-1.6-0.9-3v-7H474.2z
			"/>
		<path class="st1" d="M493.6,19.2c0,1.8-0.4,3.1-1.2,4.1c-0.8,1-1.9,1.5-3.4,1.5c-0.9,0-1.7-0.2-2.4-0.7c-0.7-0.5-1.2-1.1-1.6-1.9
			c-0.4-0.8-0.6-1.8-0.6-2.9c0-1.7,0.4-3.1,1.2-4.1c0.8-1,1.9-1.5,3.4-1.5c0.6,0,1.2,0.1,1.8,0.4c0.5,0.2,1,0.6,1.4,1
			c0.3-0.1,0.5-0.3,0.7-0.5c0.2-0.2,0.3-0.5,0.4-0.8c0.1-0.3,0.1-0.8,0.1-1.5h1.7l0.1,0.2c-0.2,1-0.5,1.9-0.9,2.4
			c-0.4,0.6-0.9,1-1.5,1.2C493.4,17,493.6,18.1,493.6,19.2z M486.1,19.2c0,1.4,0.2,2.4,0.7,3.1c0.5,0.7,1.2,1,2.2,1
			c1,0,1.7-0.3,2.2-1c0.5-0.7,0.7-1.7,0.7-3.1c0-1.3-0.2-2.3-0.7-3c-0.5-0.7-1.2-1-2.2-1c-1,0-1.7,0.3-2.2,1
			C486.4,16.9,486.1,17.9,486.1,19.2z M490.2,12.5h-1.1c-0.4-0.4-0.9-0.9-1.5-1.5c-0.5-0.6-0.9-1.1-1.1-1.5V9.3h1.9
			c0.2,0.4,0.5,0.9,0.8,1.5s0.7,1.1,1,1.4V12.5z"/>
		<path class="st1" d="M503.1,24.6v-6.9c0-0.9-0.2-1.5-0.5-1.9c-0.4-0.4-0.9-0.6-1.7-0.6c-1,0-1.7,0.3-2.2,0.9
			c-0.5,0.6-0.7,1.6-0.7,3v5.6h-1.6V13.9h1.3l0.2,1.5h0.1c0.3-0.5,0.7-0.9,1.3-1.2c0.5-0.3,1.2-0.4,1.8-0.4c1.2,0,2.1,0.3,2.7,1
			c0.6,0.6,0.9,1.6,0.9,3v7H503.1z"/>
		<path class="st1" d="M514.3,24.5l0.1-1.3h-0.1c-0.7,1.1-1.7,1.6-3.1,1.6c-1.3,0-2.3-0.5-3-1.5c-0.7-1-1.1-2.3-1.1-4.1
			c0-1.7,0.4-3.1,1.1-4.1c0.7-1,1.7-1.5,3-1.5c1.3,0,2.4,0.5,3.1,1.6h0.1l0.2-1.4h1.3v10.9c0,1.5-0.4,2.7-1.1,3.5
			c-0.7,0.8-1.8,1.2-3.3,1.2c-1.4,0-2.6-0.2-3.5-0.7v-1.6c1,0.6,2.2,0.8,3.6,0.8c0.8,0,1.5-0.3,2-0.8c0.5-0.5,0.7-1.3,0.7-2.2V24.5z
			 M511.5,23.4c1,0,1.7-0.3,2.2-0.9c0.5-0.6,0.7-1.5,0.7-2.8v-0.4c0-1.4-0.2-2.5-0.7-3.1c-0.5-0.7-1.2-1-2.2-1
			c-0.8,0-1.5,0.4-1.9,1.1c-0.5,0.7-0.7,1.7-0.7,3.1c0,1.3,0.2,2.3,0.7,3C509.9,23,510.6,23.4,511.5,23.4z"/>
		<path class="st1" d="M527.7,24.8c-1.4,0-2.5-0.5-3.3-1.4c-0.8-0.9-1.2-2.3-1.2-4.1c0-1.8,0.4-3.2,1.2-4.2c0.8-1,1.9-1.5,3.4-1.5
			c0.5,0,1,0.1,1.4,0.2c0.5,0.1,0.9,0.2,1.2,0.4l-0.5,1.5c-0.8-0.3-1.5-0.5-2.1-0.5c-1,0-1.7,0.3-2.2,1c-0.5,0.7-0.7,1.7-0.7,3
			c0,1.3,0.2,2.3,0.7,3c0.5,0.7,1.2,1,2.1,1c0.9,0,1.7-0.2,2.6-0.6v1.6C529.6,24.6,528.8,24.8,527.7,24.8z"/>
		<path class="st1" d="M539.3,24.6v-6.9c0-0.9-0.2-1.5-0.5-1.9c-0.4-0.4-0.9-0.6-1.7-0.6c-1,0-1.7,0.3-2.2,0.9
			c-0.5,0.6-0.7,1.6-0.7,3v5.5h-1.6V9.4h1.6v4.5c0,0.6,0,1.1-0.1,1.5h0.1c0.3-0.5,0.7-0.9,1.2-1.2c0.5-0.3,1.1-0.4,1.8-0.4
			c1.2,0,2.1,0.3,2.7,0.9c0.6,0.6,0.9,1.6,0.9,3v7H539.3z"/>
		<path class="st1" d="M543.9,11c0-0.4,0.1-0.7,0.3-0.8s0.4-0.3,0.7-0.3c0.3,0,0.5,0.1,0.7,0.3s0.3,0.5,0.3,0.8
			c0,0.4-0.1,0.7-0.3,0.8c-0.2,0.2-0.4,0.3-0.7,0.3c-0.3,0-0.5-0.1-0.7-0.3C544,11.7,543.9,11.4,543.9,11z M545.6,24.6H544V13.9h1.6
			V24.6z"/>
		<path class="st1" d="M552.9,24.8c-1.5,0-2.6-0.5-3.5-1.5c-0.8-1-1.3-2.3-1.3-4c0-1.7,0.4-3.1,1.2-4.1c0.8-1,1.8-1.5,3.2-1.5
			c1.2,0,2.2,0.4,3,1.3s1.1,2,1.1,3.5v1.1h-6.8c0,1.2,0.3,2.1,0.9,2.8c0.5,0.6,1.3,0.9,2.3,0.9c0.5,0,1,0,1.5-0.2
			c0.5-0.1,1-0.3,1.7-0.6v1.5c-0.5,0.3-1.1,0.4-1.5,0.5C554.1,24.8,553.6,24.8,552.9,24.8z M555.3,12.5h-0.9c-0.7-0.5-1.3-1-1.9-1.6
			c-0.7,0.7-1.3,1.2-1.9,1.6h-0.9v-0.2c0.3-0.4,0.6-0.8,1-1.2s0.7-0.9,1-1.3h1.7c0.4,0.7,1.1,1.5,1.9,2.6V12.5z M552.5,15.1
			c-0.8,0-1.4,0.3-1.8,0.8c-0.4,0.5-0.7,1.3-0.8,2.3h5c0-1-0.2-1.8-0.6-2.3C553.9,15.4,553.3,15.1,552.5,15.1z M554.6,10.4
			c0.4-0.6,0.8-1.3,1.1-2h1.6v0.2c-0.5,0.7-1.1,1.4-1.8,2h-0.9V10.4z"/>
		<path class="st1" d="M565.8,24.6v-6.9c0-0.9-0.2-1.5-0.5-1.9c-0.4-0.4-0.9-0.6-1.7-0.6c-1,0-1.7,0.3-2.2,0.9
			c-0.5,0.6-0.7,1.6-0.7,3v5.6h-1.6V13.9h1.3l0.2,1.5h0.1c0.3-0.5,0.7-0.9,1.3-1.2c0.6-0.3,1.2-0.4,1.8-0.4c1.2,0,2.1,0.3,2.7,1
			c0.6,0.6,0.9,1.6,0.9,3v7H565.8z"/>
		<path class="st1" d="M576.8,24.6h-1.6V9.4h1.6V24.6z"/>
		<path class="st1" d="M581.5,13.9v6.9c0,0.9,0.2,1.5,0.5,1.9c0.4,0.4,0.9,0.6,1.7,0.6c1,0,1.7-0.3,2.2-0.9c0.5-0.6,0.7-1.6,0.7-3
			v-5.6h1.6v1.2c0.5-0.1,0.8-0.3,1-0.8c0.2-0.4,0.3-1.1,0.3-2.1h1.7l0.1,0.2c-0.2,1.2-0.6,2.2-1.1,2.8s-1.2,1-2.1,1.1v8.3h-1.3
			l-0.2-1.4h-0.1c-0.3,0.5-0.7,0.9-1.2,1.2c-0.5,0.3-1.1,0.4-1.8,0.4c-1.2,0-2.1-0.3-2.7-0.9c-0.6-0.6-0.9-1.6-0.9-3v-7H581.5z"/>
		<path class="st1" d="M600.9,19.2c0,1.8-0.4,3.1-1.2,4.1c-0.8,1-1.9,1.5-3.4,1.5c-0.9,0-1.7-0.2-2.4-0.7c-0.7-0.5-1.2-1.1-1.6-1.9
			c-0.4-0.8-0.6-1.8-0.6-2.9c0-1.7,0.4-3.1,1.2-4.1c0.8-1,1.9-1.5,3.4-1.5c0.6,0,1.2,0.1,1.8,0.4c0.5,0.2,1,0.6,1.4,1
			c0.3-0.1,0.5-0.3,0.7-0.5c0.2-0.2,0.3-0.5,0.4-0.8c0.1-0.3,0.1-0.8,0.1-1.5h1.7l0.1,0.2c-0.2,1-0.5,1.9-0.9,2.4
			c-0.4,0.6-0.9,1-1.5,1.2C600.7,17,600.9,18.1,600.9,19.2z M593.5,19.2c0,1.4,0.2,2.4,0.7,3.1c0.5,0.7,1.2,1,2.2,1
			c1,0,1.7-0.3,2.2-1c0.5-0.7,0.7-1.7,0.7-3.1c0-1.3-0.2-2.3-0.7-3c-0.5-0.7-1.2-1-2.2-1c-1,0-1.7,0.3-2.2,1
			C593.7,16.9,593.5,17.9,593.5,19.2z M595.4,27c0-0.4,0.1-0.7,0.3-0.9c0.2-0.2,0.4-0.3,0.7-0.3c0.3,0,0.5,0.1,0.7,0.3
			c0.2,0.2,0.3,0.5,0.3,0.9c0,0.3-0.1,0.6-0.3,0.8c-0.2,0.2-0.4,0.3-0.7,0.3c-0.3,0-0.5-0.1-0.7-0.3S595.4,27.4,595.4,27z"/>
		<path class="st1" d="M607.6,24.8c-1.4,0-2.5-0.5-3.3-1.4s-1.2-2.3-1.2-4.1c0-1.8,0.4-3.2,1.2-4.2c0.8-1,1.9-1.5,3.4-1.5
			c0.5,0,1,0.1,1.4,0.2s0.9,0.2,1.2,0.4l-0.5,1.5c-0.8-0.3-1.5-0.5-2.1-0.5c-1,0-1.7,0.3-2.2,1c-0.5,0.7-0.7,1.7-0.7,3
			c0,1.3,0.2,2.3,0.7,3c0.5,0.7,1.2,1,2.1,1c0.9,0,1.7-0.2,2.6-0.6v1.6C609.5,24.6,608.6,24.8,607.6,24.8z"/>
		<path class="st1" d="M477.4,37.7c0,2.3-0.6,4.1-1.8,5.4c-1.2,1.3-2.9,1.9-5.1,1.9h-3.5v-6.3h-1.4v-1.6h1.4v-6.4h3.9
			c2,0,3.6,0.6,4.8,1.8C476.9,33.8,477.4,35.5,477.4,37.7z M475.7,37.8c0-1.8-0.4-3.2-1.2-4.1c-0.8-0.9-2.1-1.4-3.7-1.4h-2v4.9h3.3
			v1.6h-3.3v4.7h1.7C473.9,43.5,475.7,41.6,475.7,37.8z"/>
		<path class="st1" d="M488.7,39.6c0,1.8-0.4,3.1-1.2,4.1c-0.8,1-1.9,1.5-3.4,1.5c-0.9,0-1.7-0.2-2.4-0.7c-0.7-0.5-1.2-1.1-1.6-1.9
			c-0.4-0.8-0.6-1.8-0.6-2.9c0-1.7,0.4-3.1,1.2-4.1c0.8-1,1.9-1.5,3.4-1.5c1.4,0,2.5,0.5,3.3,1.5C488.3,36.6,488.7,37.9,488.7,39.6z
			 M481,32.7c0.7-0.9,1.3-1.5,1.6-1.9c0.3-0.4,0.5-0.8,0.7-1h1.7c0.3,0.7,1.1,1.7,2.3,3v0.2h-1.1c-0.5-0.3-1.2-0.9-2-1.8
			c-0.8,0.8-1.4,1.4-2,1.8H481V32.7z M481.3,39.6c0,1.3,0.2,2.4,0.7,3.1c0.5,0.7,1.2,1,2.2,1c0.9,0,1.7-0.3,2.1-1
			c0.5-0.7,0.7-1.7,0.7-3.1s-0.2-2.4-0.7-3c-0.5-0.7-1.2-1-2.2-1C482.2,35.6,481.3,36.9,481.3,39.6z"/>
		<path class="st1" d="M498,45v-6.9c0-0.9-0.2-1.5-0.5-1.9c-0.4-0.4-0.9-0.6-1.7-0.6c-1,0-1.7,0.3-2.2,0.9c-0.5,0.6-0.7,1.6-0.7,3
			V45h-1.6V34.3h1.3l0.2,1.5h0.1c0.3-0.5,0.7-0.9,1.3-1.2c0.6-0.3,1.2-0.4,1.8-0.4c1.2,0,2.1,0.3,2.7,1c0.6,0.6,0.9,1.6,0.9,3v7H498
			z"/>
		<path class="st1" d="M509.2,44.9l0.1-1.3h-0.1c-0.7,1.1-1.7,1.6-3.1,1.6c-1.3,0-2.3-0.5-3-1.5s-1.1-2.3-1.1-4.1
			c0-1.7,0.4-3.1,1.1-4.1s1.7-1.5,3-1.5c1.3,0,2.4,0.5,3.1,1.6h0.1l0.2-1.4h1.3v10.9c0,1.5-0.4,2.7-1.1,3.5
			c-0.7,0.8-1.8,1.2-3.3,1.2c-1.4,0-2.6-0.2-3.5-0.7v-1.6c1,0.6,2.2,0.8,3.6,0.8c0.8,0,1.5-0.3,2-0.8c0.5-0.5,0.7-1.3,0.7-2.2V44.9z
			 M506.4,43.8c1,0,1.7-0.3,2.2-0.9c0.5-0.6,0.7-1.5,0.7-2.8v-0.4c0-1.4-0.2-2.5-0.7-3.1c-0.5-0.7-1.2-1-2.2-1
			c-0.8,0-1.5,0.4-1.9,1.1s-0.7,1.7-0.7,3.1c0,1.3,0.2,2.3,0.7,3C504.8,43.4,505.5,43.8,506.4,43.8z"/>
		<path class="st1" d="M529.3,45h-1.9l-7-11.9h-0.1l0,0.8c0.1,1.2,0.1,2.2,0.1,3.1v8h-1.5V30.7h1.9l0.4,0.7l4.3,7.2l2.3,3.9h0.1
			c0-0.2,0-0.7-0.1-1.7c0-1-0.1-1.7-0.1-2.1v-8.1h1.5V45z"/>
		<path class="st1" d="M538.8,45l-0.3-1.5h-0.1c-0.5,0.7-1,1.1-1.5,1.4c-0.5,0.2-1.1,0.4-1.8,0.4c-1,0-1.7-0.3-2.3-0.8
			c-0.6-0.6-0.8-1.3-0.8-2.3c0-2.2,1.6-3.3,4.7-3.4l1.7-0.1v-0.6c0-0.8-0.2-1.4-0.5-1.8c-0.3-0.4-0.8-0.6-1.6-0.6
			c-0.5,0-1,0.1-1.5,0.3c-0.5,0.2-0.9,0.4-1.3,0.6L533,35c0.5-0.3,1-0.5,1.6-0.7c0.6-0.2,1.2-0.2,1.7-0.2c1.2,0,2.1,0.3,2.7,0.9
			c0.6,0.6,0.9,1.5,0.9,2.7V45H538.8z M535.4,43.8c0.9,0,1.6-0.3,2.1-0.8c0.5-0.5,0.8-1.3,0.8-2.3v-1l-1.5,0.1c-1.1,0-2,0.2-2.5,0.6
			c-0.5,0.3-0.8,0.9-0.8,1.6c0,0.6,0.2,1,0.5,1.3C534.4,43.6,534.9,43.8,535.4,43.8z"/>
		<path class="st1" d="M555.5,45v-6.9c0-1.7-0.7-2.5-2-2.5c-0.9,0-1.6,0.3-2,0.9c-0.4,0.6-0.6,1.5-0.6,2.7V45h-1.6v-6.9
			c0-0.8-0.2-1.5-0.5-1.9c-0.3-0.4-0.8-0.6-1.5-0.6c-0.9,0-1.6,0.3-2,0.9s-0.6,1.6-0.6,3V45H543V34.3h1.3l0.2,1.5h0.1
			c0.3-0.5,0.7-0.9,1.2-1.2s1.1-0.4,1.7-0.4c1.5,0,2.5,0.6,3,1.8h0.1c0.3-0.6,0.7-1,1.3-1.3c0.5-0.3,1.2-0.5,1.9-0.5
			c1.1,0,1.9,0.3,2.5,0.9c0.6,0.6,0.8,1.6,0.8,3v7H555.5z"/>
		<path class="st1" d="M573.4,45l-1.6-4.4h-5.2l-1.6,4.4h-1.7l5.1-14.3h1.5l5.1,14.3H573.4z M571.3,39l-1.5-4.3l-0.6-2.1
			c-0.2,0.8-0.4,1.5-0.6,2.1l-1.5,4.3H571.3z M568.1,29.4c0.2-0.3,0.5-0.8,0.9-1.3c0.4-0.6,0.6-1.1,0.9-1.6h1.9v0.2
			c-0.3,0.4-0.7,0.9-1.2,1.6c-0.6,0.6-1,1.1-1.4,1.4h-1.1V29.4z"/>
		<path class="st1" d="M469.7,57.7h3.7v1.4h-3.7v4.1h-1.3v-4.1h-3.7v-1.4h3.7v-4.1h1.3V57.7z"/>
		<path class="st1" d="M490.9,65.4h-1.7v-6.7h-6.7v6.7h-1.7V51.1h1.7v6h6.7v-6h1.7V65.4z"/>
		<path class="st1" d="M496.2,51.4h-0.9c-0.7-0.6-1.3-1.3-1.9-2v-0.2h1.6c0.3,0.8,0.7,1.4,1.1,2V51.4z M502.8,60
			c0,1.8-0.4,3.1-1.2,4.1c-0.8,1-1.9,1.5-3.4,1.5c-0.9,0-1.7-0.2-2.4-0.7c-0.7-0.5-1.2-1.1-1.6-1.9c-0.4-0.8-0.6-1.8-0.6-2.9
			c0-1.7,0.4-3.1,1.2-4.1c0.8-1,1.9-1.5,3.4-1.5c1.4,0,2.5,0.5,3.3,1.5C502.4,57,502.8,58.3,502.8,60z M495.4,60
			c0,1.3,0.2,2.4,0.7,3.1c0.5,0.7,1.2,1,2.2,1c0.9,0,1.7-0.3,2.1-1c0.5-0.7,0.7-1.7,0.7-3.1s-0.2-2.4-0.7-3c-0.5-0.7-1.2-1-2.2-1
			C496.4,56,495.4,57.3,495.4,60z M501.1,53.3h-0.9c-0.6-0.4-1.2-1-1.9-1.6c-0.6,0.6-1.3,1.2-1.9,1.6h-0.9v-0.2l0.5-0.6
			c0.7-0.8,1.2-1.5,1.5-2h1.7c0.4,0.6,1,1.4,1.9,2.6V53.3z"/>
		<path class="st1" d="M512.1,65.4v-6.9c0-0.9-0.2-1.5-0.5-1.9c-0.4-0.4-0.9-0.6-1.7-0.6c-1,0-1.7,0.3-2.2,0.9
			c-0.5,0.6-0.7,1.6-0.7,3v5.6h-1.6V54.7h1.3l0.2,1.5h0.1c0.3-0.5,0.7-0.9,1.3-1.2c0.6-0.3,1.2-0.4,1.8-0.4c1.2,0,2.1,0.3,2.7,1
			c0.6,0.6,0.9,1.6,0.9,3v7H512.1z"/>
		<path class="st1" d="M523.4,65.3l0.1-1.3h-0.1c-0.7,1.1-1.7,1.6-3.1,1.6c-1.3,0-2.3-0.5-3-1.5c-0.7-1-1.1-2.3-1.1-4.1
			c0-1.7,0.4-3.1,1.1-4.1s1.7-1.5,3-1.5c1.3,0,2.4,0.5,3.1,1.6h0.1l0.2-1.4h1.3v10.9c0,1.5-0.4,2.7-1.1,3.5
			c-0.7,0.8-1.8,1.2-3.3,1.2c-1.4,0-2.6-0.2-3.5-0.7v-1.6c1,0.6,2.2,0.8,3.6,0.8c0.8,0,1.5-0.3,2-0.8c0.5-0.5,0.7-1.3,0.7-2.2V65.3z
			 M520.5,64.2c1,0,1.7-0.3,2.2-0.9c0.5-0.6,0.7-1.5,0.7-2.8v-0.4c0-1.4-0.2-2.5-0.7-3.1c-0.5-0.7-1.2-1-2.2-1
			c-0.8,0-1.5,0.4-1.9,1.1s-0.7,1.7-0.7,3.1c0,1.3,0.2,2.3,0.7,3C519,63.8,519.6,64.2,520.5,64.2z"/>
		<path class="st1" d="M542.7,65.4h-1.9l-4.7-6.8l-1.3,1.3v5.5h-1.7V51.1h1.7v7l1.1-1.4l4.7-5.7h1.9l-5.2,6.2L542.7,65.4z"/>
		<path class="st1" d="M552.8,60c0,1.8-0.4,3.1-1.2,4.1c-0.8,1-1.9,1.5-3.4,1.5c-0.9,0-1.7-0.2-2.4-0.7c-0.7-0.5-1.2-1.1-1.6-1.9
			c-0.4-0.8-0.6-1.8-0.6-2.9c0-1.7,0.4-3.1,1.2-4.1c0.8-1,1.9-1.5,3.4-1.5c1.4,0,2.5,0.5,3.3,1.5C552.4,57,552.8,58.3,552.8,60z
			 M545.1,53.1c0.7-0.9,1.3-1.5,1.6-1.9c0.3-0.4,0.5-0.8,0.7-1h1.7c0.3,0.7,1.1,1.7,2.3,3v0.2h-1.1c-0.5-0.3-1.2-0.9-2-1.8
			c-0.8,0.8-1.4,1.4-2,1.8h-1.1V53.1z M545.4,60c0,1.3,0.2,2.4,0.7,3.1c0.5,0.7,1.2,1,2.2,1c0.9,0,1.7-0.3,2.1-1
			c0.5-0.7,0.7-1.7,0.7-3.1s-0.2-2.4-0.7-3c-0.5-0.7-1.2-1-2.2-1C546.3,56,545.4,57.3,545.4,60z"/>
		<path class="st1" d="M562.1,65.4v-6.9c0-0.9-0.2-1.5-0.5-1.9c-0.4-0.4-0.9-0.6-1.7-0.6c-1,0-1.7,0.3-2.2,0.9
			c-0.5,0.6-0.7,1.6-0.7,3v5.6h-1.6V54.7h1.3l0.2,1.5h0.1c0.3-0.5,0.7-0.9,1.3-1.2c0.6-0.3,1.2-0.4,1.8-0.4c1.2,0,2.1,0.3,2.7,1
			c0.6,0.6,0.9,1.6,0.9,3v7H562.1z"/>
		<path class="st1" d="M573.3,65.3l0.1-1.3h-0.1c-0.7,1.1-1.7,1.6-3.1,1.6c-1.3,0-2.3-0.5-3-1.5c-0.7-1-1.1-2.3-1.1-4.1
			c0-1.7,0.4-3.1,1.1-4.1c0.7-1,1.7-1.5,3-1.5c1.3,0,2.4,0.5,3.1,1.6h0.1l0.2-1.4h1.3v10.9c0,1.5-0.4,2.7-1.1,3.5
			c-0.7,0.8-1.8,1.2-3.3,1.2c-1.4,0-2.6-0.2-3.5-0.7v-1.6c1,0.6,2.2,0.8,3.6,0.8c0.8,0,1.5-0.3,2-0.8c0.5-0.5,0.7-1.3,0.7-2.2V65.3z
			 M570.5,64.2c1,0,1.7-0.3,2.2-0.9c0.5-0.6,0.7-1.5,0.7-2.8v-0.4c0-1.4-0.2-2.5-0.7-3.1c-0.5-0.7-1.2-1-2.2-1
			c-0.8,0-1.5,0.4-1.9,1.1c-0.5,0.7-0.7,1.7-0.7,3.1c0,1.3,0.2,2.3,0.7,3C568.9,63.8,569.6,64.2,570.5,64.2z"/>
	</g>
</g>
<g>
	<path class="st2" d="M544.8-53.6c-10,11.2-27.2,12.1-38.3,2.1c-11.2-10-12.1-27.2-2.1-38.3"/>
	<circle class="st2" cx="524.9" cy="-71.4" r="21.2"/>
	<line class="st2" x1="526.5" y1="-42.9" x2="526.5" y2="-34.6"/>
	<line class="st2" x1="512.7" y1="-34.6" x2="544.1" y2="-34.6"/>
</g>
</svg>
