<?xml version="1.0" encoding="utf-8"?>
<!-- Generator: Adobe Illustrator 19.0.0, SVG Export Plug-In . SVG Version: 6.00 Build 0)  -->
<svg version="1.1" id="Layer_1" xmlns="http://www.w3.org/2000/svg" xmlns:xlink="http://www.w3.org/1999/xlink" x="0px" y="0px"
	 viewBox="670 -243.2 476 274" style="enable-background:new 670 -243.2 476 274;" xml:space="preserve">
<style type="text/css">
	.st0{fill:#D1D1D1;}
	.st1{fill:#9EA6A8;}
	.st2{fill:#FFFFFF;}
	.st3{fill:#4E5C5E;}
	.st4{fill:#AAA5A3;}
	.st5{fill:none;stroke:#D1D1D1;stroke-miterlimit:10;}
	.st6{fill:#FF6633;}
	.st7{fill:#FFFFFF;stroke:#D1D1D1;stroke-miterlimit:10;}
</style>
<g>
	<path class="st0" d="M1102,18.8H714c-7.7,0-14-6.3-14-14v-234c0-7.7,6.3-14,14-14h388c7.7,0,14,6.3,14,14v234
		C1116,12.5,1109.7,18.8,1102,18.8z"/>
	<rect x="718.2" y="-217.2" class="st1" width="377.6" height="236"/>
	<rect x="731.1" y="-184.2" class="st2" width="351.5" height="173.3"/>
	<path class="st0" d="M670,2.8L670,2.8c0,15.4,12.6,28,28,28h420c15.4,0,28-12.6,28-28l0,0H670z"/>
	<rect x="731.1" y="-211.6" class="st0" width="352.3" height="13.7"/>
	<rect x="731.1" y="-197.9" class="st3" width="351.5" height="13.7"/>
	<circle class="st2" cx="742" cy="-204.5" r="3.3"/>
	<circle class="st2" cx="752.7" cy="-204.5" r="3.3"/>
	<circle class="st2" cx="763.5" cy="-204.5" r="3.3"/>
</g>
<circle class="st2" cx="979.5" cy="-35.5" r="2.9"/>
<path class="st4" d="M965.6,12.4H855c-4,0-7.4-3.3-7.4-7.4l0,0c0-4,3.3-7.4,7.4-7.4h110.6c4,0,7.4,3.3,7.4,7.4l0,0
	C972.9,9.1,969.6,12.4,965.6,12.4z"/>
<rect x="814.2" y="-175.3" class="st5" width="176.5" height="19"/>
<rect x="990.7" y="-175.3" class="st6" width="35.5" height="19"/>
<g>
	<path class="st3" d="M820.1-172.2c0-0.7,0.4-1.1,1.1-1.1s1.1,0.4,1.1,1.1c0,0.3-0.1,0.6-0.3,0.8c-0.2,0.2-0.5,0.3-0.8,0.3
		C820.4-171.1,820.1-171.4,820.1-172.2z M822.2-161.9h-2.1v-8.2h2.1V-161.9z"/>
	<path class="st3" d="M828.5-161.7c-0.9,0-1.6-0.3-2.1-1h-0.1c0.1,0.7,0.1,1.1,0.1,1.2v3.3h-2.1v-11.8h1.7l0.3,1.1h0.1
		c0.5-0.8,1.2-1.2,2.1-1.2c0.9,0,1.6,0.4,2.1,1.1s0.8,1.8,0.8,3.1c0,0.9-0.1,1.6-0.4,2.3c-0.2,0.6-0.6,1.1-1,1.5
		S829.1-161.7,828.5-161.7z M827.9-168.4c-0.5,0-0.9,0.2-1.1,0.5s-0.4,0.9-0.4,1.7v0.2c0,0.9,0.1,1.5,0.4,1.9s0.6,0.6,1.1,0.6
		c0.9,0,1.4-0.8,1.4-2.5c0-0.8-0.1-1.4-0.3-1.8C828.7-168.2,828.4-168.4,827.9-168.4z"/>
	<path class="st3" d="M837.3-170.2c0.3,0,0.5,0,0.7,0.1l-0.2,2.1c-0.2,0-0.4-0.1-0.6-0.1c-0.7,0-1.2,0.2-1.5,0.5s-0.5,0.9-0.5,1.5
		v4.2h-2.1v-8.2h1.6l0.3,1.4h0.1c0.2-0.5,0.5-0.8,0.9-1.1S836.8-170.2,837.3-170.2z"/>
	<path class="st3" d="M839.2-172.2c0-0.7,0.4-1.1,1.1-1.1s1.1,0.4,1.1,1.1c0,0.3-0.1,0.6-0.3,0.8c-0.2,0.2-0.5,0.3-0.8,0.3
		C839.6-171.1,839.2-171.4,839.2-172.2z M841.4-161.9h-2.1v-8.2h2.1V-161.9z"/>
	<path class="st3" d="M846.6-161.7c-2.3,0-3.5-1.4-3.5-4.2c0-1.4,0.3-2.5,1-3.2c0.6-0.7,1.6-1.1,2.7-1.1c0.9,0,1.7,0.2,2.3,0.6
		l-0.6,1.7c-0.3-0.1-0.6-0.3-0.9-0.3c-0.3-0.1-0.6-0.1-0.8-0.1c-1.1,0-1.6,0.8-1.6,2.5c0,1.6,0.5,2.4,1.6,2.4c0.4,0,0.8-0.1,1.1-0.2
		c0.3-0.1,0.7-0.3,1-0.5v1.9c-0.3,0.2-0.7,0.4-1,0.5S847.1-161.7,846.6-161.7z"/>
	<path class="st3" d="M854-161.7c-1.2,0-2.2-0.4-2.8-1.1s-1-1.8-1-3.1c0-1.4,0.3-2.4,0.9-3.2c0.6-0.7,1.5-1.1,2.6-1.1
		c1.1,0,1.9,0.3,2.5,1c0.6,0.7,0.9,1.6,0.9,2.7v1.1h-4.9c0,0.6,0.2,1.1,0.5,1.5s0.8,0.5,1.4,0.5c0.5,0,0.9-0.1,1.3-0.2
		c0.4-0.1,0.8-0.3,1.3-0.5v1.7c-0.4,0.2-0.7,0.3-1.2,0.4C855.1-161.8,854.6-161.7,854-161.7z M853.7-168.6c-0.4,0-0.8,0.2-1,0.5
		c-0.2,0.3-0.4,0.7-0.4,1.3h2.9c0-0.6-0.1-1-0.4-1.3C854.5-168.5,854.2-168.6,853.7-168.6z"/>
	<path class="st3" d="M858.5-162.9c0-0.4,0.1-0.7,0.3-0.9s0.5-0.3,0.9-0.3c0.4,0,0.7,0.1,0.9,0.3s0.3,0.5,0.3,0.9
		c0,0.4-0.1,0.7-0.3,0.9c-0.2,0.2-0.5,0.3-0.9,0.3c-0.4,0-0.7-0.1-0.9-0.3C858.6-162.2,858.5-162.5,858.5-162.9z"/>
	<path class="st3" d="M864.5-161.9l-2.9-8.2h2.1l1.5,4.7c0.1,0.5,0.2,1.1,0.3,1.7h0.1c0-0.6,0.1-1.1,0.3-1.7l1.4-4.7h2.1l-2.9,8.2
		H864.5z"/>
	<path class="st3" d="M877.5-161.9h-2.1v-4.8c0-0.6-0.1-1-0.3-1.3c-0.2-0.3-0.5-0.4-0.9-0.4c-0.6,0-1,0.2-1.2,0.6
		c-0.3,0.4-0.4,1.1-0.4,2.1v3.9h-2.1v-8.2h1.6l0.3,1h0.1c0.2-0.4,0.5-0.7,0.9-0.9c0.4-0.2,0.9-0.3,1.4-0.3c0.9,0,1.5,0.3,2,0.8
		s0.7,1.3,0.7,2.2V-161.9z"/>
</g>
<rect x="835.3" y="-141.8" class="st0" width="210" height="11.5"/>
<rect x="835.3" y="-124.2" class="st0" width="177.3" height="5.7"/>
<rect x="835.3" y="-113.3" class="st0" width="177.3" height="5.7"/>
<rect x="835.3" y="-102.5" class="st0" width="177.3" height="5.7"/>
<rect x="835.3" y="-86.2" class="st0" width="210" height="11.5"/>
<rect x="835.3" y="-68.6" class="st0" width="177.3" height="5.7"/>
<rect x="835.3" y="-57.7" class="st0" width="177.3" height="5.7"/>
<rect x="835.3" y="-46.8" class="st0" width="177.3" height="5.7"/>
<rect x="814.2" y="-156.3" class="st7" width="176.5" height="97"/>
</svg>
