<?xml version="1.0" encoding="utf-8"?>
<!-- Generator: Adobe Illustrator 19.0.0, SVG Export Plug-In . SVG Version: 6.00 Build 0)  -->
<svg version="1.1" id="Layer_1" xmlns="http://www.w3.org/2000/svg" xmlns:xlink="http://www.w3.org/1999/xlink" x="0px" y="0px"
	 viewBox="379.6 -127.4 227.6 220.5" style="enable-background:new 379.6 -127.4 227.6 220.5;" xml:space="preserve">
<style type="text/css">
	.st0{fill:#33CCCC;}
	.st1{fill:#3F3F3F;}
	.st2{fill:none;stroke:#FFFFFF;stroke-width:1.5;stroke-miterlimit:10;}
</style>
<rect x="379.6" y="-127.4" class="st0" width="227.6" height="220.5"/>
<g>
	<g>
		<path class="st1" d="M404.8-10.9h1.7l3,9.2c0.4,1.2,0.7,2.2,0.8,3.1c0.1-0.8,0.4-1.9,0.8-3.2l2.9-9.1h1.8l-4.7,14.3h-1.7
			L404.8-10.9z"/>
		<path class="st1" d="M423.2,3.4l-0.3-1.5h-0.1c-0.5,0.7-1,1.1-1.5,1.4c-0.5,0.2-1.1,0.4-1.8,0.4c-1,0-1.7-0.3-2.3-0.8
			s-0.8-1.3-0.8-2.3c0-2.2,1.6-3.3,4.7-3.4l1.7-0.1v-0.6c0-0.8-0.2-1.4-0.5-1.8c-0.3-0.4-0.8-0.6-1.6-0.6c-0.5,0-1,0.1-1.5,0.3
			s-0.9,0.4-1.3,0.6l-0.5-1.3c0.5-0.3,1-0.5,1.6-0.7s1.2-0.2,1.7-0.2c1.2,0,2.1,0.3,2.7,0.9s0.9,1.5,0.9,2.7v7.3H423.2z M421.8-8.7
			h-1.1c-0.4-0.4-0.9-0.9-1.5-1.5c-0.5-0.6-0.9-1.1-1.1-1.5v-0.2h1.9c0.2,0.4,0.5,0.9,0.8,1.5c0.4,0.6,0.7,1.1,1,1.4V-8.7z
			 M419.9,2.2c0.9,0,1.6-0.3,2.1-0.8s0.8-1.3,0.8-2.3v-1l-1.5,0.1c-1.1,0-2,0.2-2.5,0.6s-0.8,0.9-0.8,1.6c0,0.6,0.2,1,0.5,1.3
			C418.9,2,419.4,2.2,419.9,2.2z"/>
		<path class="st1" d="M436.8-7.5c0.4,0,0.8,0,1.2,0.1l-0.2,1.6c-0.4-0.1-0.7-0.1-1.1-0.1c-0.5,0-1,0.2-1.4,0.5
			c-0.4,0.3-0.8,0.7-1,1.3s-0.4,1.2-0.4,1.8v5.7h-1.6V-7.3h1.3l0.2,2h0.1c0.4-0.7,0.8-1.2,1.3-1.6S436.2-7.5,436.8-7.5z"/>
		<path class="st1" d="M445.8,3.4l-0.3-1.5h-0.1c-0.5,0.7-1,1.1-1.5,1.4c-0.5,0.2-1.1,0.4-1.8,0.4c-1,0-1.7-0.3-2.3-0.8
			s-0.8-1.3-0.8-2.3c0-2.2,1.6-3.3,4.7-3.4l1.7-0.1v-0.6c0-0.8-0.2-1.4-0.5-1.8s-0.8-0.6-1.6-0.6c-0.5,0-1,0.1-1.5,0.3
			c-0.5,0.2-0.9,0.4-1.3,0.6L440-6.6c0.5-0.3,1-0.5,1.6-0.7c0.6-0.2,1.2-0.2,1.7-0.2c1.2,0,2.1,0.3,2.7,0.9s0.9,1.5,0.9,2.7v7.3
			H445.8z M446-8.7h-0.9c-0.7-0.5-1.3-1-1.9-1.6c-0.7,0.7-1.3,1.2-1.9,1.6h-0.9v-0.2c0.3-0.4,0.6-0.8,1-1.2c0.4-0.4,0.7-0.9,1-1.3
			h1.7c0.4,0.7,1.1,1.5,1.9,2.6V-8.7z M442.4,2.2c0.9,0,1.6-0.3,2.1-0.8c0.5-0.5,0.8-1.3,0.8-2.3v-1l-1.5,0.1c-1.1,0-2,0.2-2.5,0.6
			s-0.8,0.9-0.8,1.6c0,0.6,0.2,1,0.5,1.3C441.4,2,441.9,2.2,442.4,2.2z M445.3-10.8c0.4-0.6,0.8-1.3,1.1-2h1.6v0.2
			c-0.5,0.7-1.1,1.4-1.8,2h-0.9V-10.8z"/>
		<path class="st1" d="M453.3,2.2c0.2,0,0.5,0,0.7-0.1s0.5-0.1,0.6-0.2v1.3c-0.1,0.1-0.4,0.1-0.7,0.2s-0.6,0.1-1,0.1
			c-1.9,0-2.9-1.1-2.9-3.3v-6.2h-1.4v-0.8l1.4-0.7l0.6-2.3h1v2.5h2.8v1.4h-2.8v6.2c0,0.6,0.1,1.1,0.4,1.4S452.8,2.2,453.3,2.2z"/>
		<path class="st1" d="M468.1,3.4v-6.9c0-0.9-0.2-1.5-0.5-1.9c-0.4-0.4-0.9-0.6-1.7-0.6c-1,0-1.7,0.3-2.2,0.9
			c-0.5,0.6-0.7,1.6-0.7,3v5.6h-1.6V-7.3h1.3l0.2,1.5h0.1c0.3-0.5,0.7-0.9,1.3-1.2c0.6-0.3,1.2-0.4,1.8-0.4c1.2,0,2.1,0.3,2.7,1
			c0.6,0.6,0.9,1.6,0.9,3v7H468.1z"/>
		<path class="st1" d="M479.5,3.4v-6.9c0-0.9-0.2-1.5-0.5-1.9C478.6-5.8,478-6,477.3-6c-1,0-1.7,0.3-2.2,0.9s-0.7,1.6-0.7,3v5.5
			h-1.6v-15.2h1.6v4.5c0,0.6,0,1.1-0.1,1.5h0.1c0.3-0.5,0.7-0.9,1.2-1.2c0.5-0.3,1.1-0.4,1.8-0.4c1.2,0,2.1,0.3,2.7,0.9
			s0.9,1.6,0.9,3v7H479.5z"/>
		<path class="st1" d="M484-10.2c0-0.4,0.1-0.7,0.3-0.8c0.2-0.2,0.4-0.3,0.7-0.3c0.3,0,0.5,0.1,0.7,0.3s0.3,0.5,0.3,0.8
			c0,0.4-0.1,0.7-0.3,0.8s-0.4,0.3-0.7,0.3c-0.3,0-0.5-0.1-0.7-0.3C484.1-9.5,484-9.8,484-10.2z M485.7,3.4h-1.6V-7.3h1.6V3.4z"/>
		<path class="st1" d="M490.6-10.6h-0.9c-0.7-0.6-1.3-1.3-1.9-2v-0.2h1.6c0.3,0.8,0.7,1.4,1.1,2V-10.6z M493,3.6
			c-1.5,0-2.6-0.5-3.5-1.5s-1.3-2.3-1.3-4c0-1.7,0.4-3.1,1.2-4.1s1.8-1.5,3.2-1.5c1.2,0,2.2,0.4,3,1.3c0.7,0.9,1.1,2,1.1,3.5v1.1
			H490c0,1.2,0.3,2.1,0.9,2.8c0.5,0.6,1.3,0.9,2.3,0.9c0.5,0,1-0.1,1.5-0.2c0.5-0.1,1-0.3,1.7-0.6v1.5c-0.5,0.3-1.1,0.4-1.5,0.5
			C494.3,3.6,493.7,3.6,493,3.6z M495.5-8.7h-0.9c-0.6-0.4-1.2-1-1.9-1.6c-0.6,0.6-1.3,1.2-1.9,1.6h-0.9v-0.2l0.5-0.6
			c0.7-0.8,1.2-1.5,1.5-2h1.7c0.4,0.6,1,1.4,1.9,2.6V-8.7z M492.6-6.1c-0.8,0-1.4,0.3-1.8,0.8C490.4-4.7,490.1-4,490-3h5
			c0-1-0.2-1.8-0.6-2.3S493.4-6.1,492.6-6.1z"/>
		<path class="st1" d="M500.7-7.3v6.9c0,0.9,0.2,1.5,0.5,1.9c0.4,0.4,0.9,0.6,1.7,0.6c1,0,1.7-0.3,2.2-0.9s0.7-1.6,0.7-3v-5.6h1.6
			V3.4h-1.3L505.9,2h-0.1c-0.3,0.5-0.7,0.9-1.2,1.2c-0.5,0.3-1.2,0.4-1.9,0.4c-1.2,0-2.1-0.3-2.7-0.9c-0.6-0.6-0.9-1.6-0.9-3v-7
			H500.7z"/>
		<path class="st1" d="M519.3,3.6c-1.4,0-2.5-0.5-3.3-1.4s-1.2-2.3-1.2-4.1c0-1.8,0.4-3.2,1.2-4.2s1.9-1.5,3.4-1.5
			c0.5,0,1,0.1,1.4,0.2s0.9,0.2,1.2,0.4l-0.5,1.5C520.7-5.8,520-6,519.4-6c-1,0-1.7,0.3-2.2,1s-0.7,1.7-0.7,3c0,1.3,0.2,2.3,0.7,3
			s1.2,1,2.1,1c0.9,0,1.7-0.2,2.6-0.6V3C521.2,3.4,520.3,3.6,519.3,3.6z"/>
		<path class="st1" d="M530.9,3.4v-6.9c0-0.9-0.2-1.5-0.5-1.9C530-5.8,529.5-6,528.7-6c-1,0-1.7,0.3-2.2,0.9c-0.5,0.6-0.7,1.6-0.7,3
			v5.5h-1.6v-15.2h1.6v4.5c0,0.6,0,1.1-0.1,1.5h0.1c0.3-0.5,0.7-0.9,1.2-1.2s1.1-0.4,1.8-0.4c1.2,0,2.1,0.3,2.7,0.9
			c0.6,0.6,0.9,1.6,0.9,3v7H530.9z"/>
		<path class="st1" d="M537.1-7.3v6.9c0,0.9,0.2,1.5,0.5,1.9c0.4,0.4,0.9,0.6,1.7,0.6c1,0,1.7-0.3,2.2-0.9s0.7-1.6,0.7-3v-5.6h1.6
			v1.2c0.5-0.1,0.8-0.3,1-0.8c0.2-0.4,0.3-1.1,0.3-2.1h1.7l0.1,0.2c-0.2,1.2-0.6,2.2-1.1,2.8c-0.5,0.6-1.2,1-2.1,1.1v8.3h-1.3
			L542.2,2h-0.1c-0.3,0.5-0.7,0.9-1.2,1.2s-1.1,0.4-1.8,0.4c-1.2,0-2.1-0.3-2.7-0.9s-0.9-1.6-0.9-3v-7H537.1z"/>
		<path class="st1" d="M556.5-2c0,1.8-0.4,3.1-1.2,4.1c-0.8,1-1.9,1.5-3.4,1.5c-0.9,0-1.7-0.2-2.4-0.7c-0.7-0.5-1.2-1.1-1.6-1.9
			s-0.6-1.8-0.6-2.9c0-1.7,0.4-3.1,1.2-4.1s1.9-1.5,3.4-1.5c0.6,0,1.2,0.1,1.8,0.4c0.5,0.2,1,0.6,1.4,1c0.3-0.1,0.5-0.3,0.7-0.5
			s0.3-0.5,0.4-0.8s0.1-0.8,0.1-1.5h1.7l0.1,0.2c-0.2,1-0.5,1.9-0.9,2.4s-0.9,1-1.5,1.2C556.3-4.1,556.5-3.1,556.5-2z M549.1-2
			c0,1.4,0.2,2.4,0.7,3.1s1.2,1,2.2,1c1,0,1.7-0.3,2.2-1c0.5-0.7,0.7-1.7,0.7-3.1c0-1.3-0.2-2.3-0.7-3s-1.2-1-2.2-1
			c-1,0-1.7,0.3-2.2,1C549.3-4.3,549.1-3.3,549.1-2z"/>
		<path class="st1" d="M566,3.4v-6.9c0-0.9-0.2-1.5-0.5-1.9c-0.4-0.4-0.9-0.6-1.7-0.6c-1,0-1.7,0.3-2.2,0.9c-0.5,0.6-0.7,1.6-0.7,3
			v5.6h-1.6V-7.3h1.3l0.2,1.5h0.1c0.3-0.5,0.7-0.9,1.3-1.2s1.2-0.4,1.8-0.4c1.2,0,2.1,0.3,2.7,1c0.6,0.6,0.9,1.6,0.9,3v7H566z"/>
		<path class="st1" d="M577.2,3.3l0.1-1.3h-0.1c-0.7,1.1-1.7,1.6-3.1,1.6c-1.3,0-2.3-0.5-3-1.5s-1.1-2.3-1.1-4.1
			c0-1.7,0.4-3.1,1.1-4.1s1.7-1.5,3-1.5c1.3,0,2.4,0.5,3.1,1.6h0.1l0.2-1.4h1.3V3.6c0,1.5-0.4,2.7-1.1,3.5s-1.8,1.2-3.3,1.2
			c-1.4,0-2.6-0.2-3.5-0.7V5.9c1,0.6,2.2,0.8,3.6,0.8c0.8,0,1.5-0.3,2-0.8c0.5-0.5,0.7-1.3,0.7-2.2V3.3z M574.4,2.2
			c1,0,1.7-0.3,2.2-0.9s0.7-1.5,0.7-2.8v-0.4c0-1.4-0.2-2.5-0.7-3.1c-0.5-0.7-1.2-1-2.2-1c-0.8,0-1.5,0.4-1.9,1.1s-0.7,1.7-0.7,3.1
			c0,1.3,0.2,2.3,0.7,3C572.8,1.8,573.5,2.2,574.4,2.2z"/>
		<path class="st1" d="M397.1,24.6c0.2,0,0.5,0,0.7-0.1s0.5-0.1,0.6-0.2v1.3c-0.1,0.1-0.4,0.1-0.7,0.2c-0.3,0.1-0.6,0.1-1,0.1
			c-1.9,0-2.9-1.1-2.9-3.3v-6.2h-1.4v-0.8l1.4-0.7l0.6-2.3h1v2.5h2.8v1.4h-2.8v6.2c0,0.6,0.1,1.1,0.4,1.4S396.6,24.6,397.1,24.6z"/>
		<path class="st1" d="M405,14.9c0.4,0,0.8,0,1.2,0.1l-0.2,1.6c-0.4-0.1-0.7-0.1-1.1-0.1c-0.5,0-1,0.2-1.5,0.5
			c-0.4,0.3-0.8,0.7-1,1.3c-0.3,0.6-0.4,1.2-0.4,1.8v5.7h-1.6V15.1h1.3l0.2,2h0.1c0.4-0.7,0.8-1.2,1.3-1.6S404.4,14.9,405,14.9z"/>
		<path class="st1" d="M409.8,13.7h-1.1c-0.4-0.4-0.9-0.9-1.5-1.5s-0.9-1.1-1.1-1.5v-0.2h1.9c0.2,0.4,0.5,0.9,0.8,1.5
			c0.4,0.6,0.7,1.1,1,1.4V13.7z M409.6,25.8H408V15.1h1.6V25.8z"/>
		<path class="st1" d="M419.5,25.8V19c0-0.9-0.2-1.5-0.5-1.9c-0.4-0.4-0.9-0.6-1.7-0.6c-1,0-1.7,0.3-2.2,0.9s-0.7,1.6-0.7,3v5.6
			h-1.6V15.1h1.3l0.2,1.5h0.1c0.3-0.5,0.7-0.9,1.3-1.2c0.6-0.3,1.2-0.4,1.8-0.4c1.2,0,2.1,0.3,2.7,1c0.6,0.6,0.9,1.6,0.9,3v7H419.5z
			"/>
		<path class="st1" d="M430.8,25.8V19c0-0.9-0.2-1.5-0.5-1.9c-0.4-0.4-0.9-0.6-1.7-0.6c-1,0-1.7,0.3-2.2,0.9c-0.5,0.6-0.7,1.6-0.7,3
			v5.5h-1.6V10.6h1.6v4.5c0,0.6,0,1.1-0.1,1.5h0.1c0.3-0.5,0.7-0.9,1.2-1.2s1.1-0.4,1.8-0.4c1.2,0,2.1,0.3,2.7,0.9
			c0.6,0.6,0.9,1.6,0.9,3v7H430.8z"/>
		<path class="st1" d="M441.8,15.1V22c0,0.9,0.2,1.5,0.5,1.9c0.4,0.4,0.9,0.6,1.7,0.6c1,0,1.7-0.3,2.2-0.9s0.7-1.6,0.7-3v-5.6h1.6
			v1.2c0.5-0.1,0.8-0.3,1-0.8c0.2-0.4,0.3-1.1,0.3-2.1h1.7l0.1,0.2c-0.2,1.2-0.6,2.2-1.1,2.8c-0.5,0.6-1.2,1-2.1,1.1v8.3h-1.3
			l-0.2-1.4h-0.1c-0.3,0.5-0.7,0.9-1.2,1.2c-0.5,0.3-1.1,0.4-1.8,0.4c-1.2,0-2.1-0.3-2.7-0.9s-0.9-1.6-0.9-3v-7H441.8z"/>
		<path class="st1" d="M454.2,15.1V22c0,0.9,0.2,1.5,0.5,1.9c0.4,0.4,0.9,0.6,1.7,0.6c1,0,1.7-0.3,2.2-0.9s0.7-1.6,0.7-3v-5.6h1.6
			v10.7h-1.3l-0.2-1.4h-0.1c-0.3,0.5-0.7,0.9-1.2,1.2c-0.5,0.3-1.2,0.4-1.9,0.4c-1.2,0-2.1-0.3-2.7-0.9c-0.6-0.6-0.9-1.6-0.9-3v-7
			H454.2z"/>
		<path class="st1" d="M472.3,26c-1.3,0-2.3-0.5-3-1.4s-1.1-2.3-1.1-4.1c0-1.8,0.4-3.1,1.1-4.1s1.7-1.5,3-1.5c1.3,0,2.4,0.5,3.1,1.6
			h0.1c0-0.1,0-0.3-0.1-0.7c0-0.4,0-0.7,0-0.9v-1.2h-3.9v-1.3h3.9v-1.8h1.6v1.8h1.4v1.3H477v12.1h-1.3l-0.2-1.4h-0.1
			C474.6,25.5,473.6,26,472.3,26z M472.6,24.6c1,0,1.7-0.3,2.1-0.9c0.4-0.6,0.7-1.5,0.7-2.8v-0.3c0-1.5-0.2-2.6-0.7-3.2
			s-1.2-0.9-2.2-0.9c-0.8,0-1.5,0.3-1.9,1c-0.4,0.7-0.7,1.7-0.7,3.1c0,1.3,0.2,2.3,0.6,3C471,24.2,471.7,24.6,472.6,24.6z"/>
		<path class="st1" d="M486.2,25.8l-0.3-1.5h-0.1c-0.5,0.7-1,1.1-1.5,1.4c-0.5,0.2-1.1,0.4-1.8,0.4c-1,0-1.7-0.3-2.3-0.8
			c-0.6-0.6-0.8-1.3-0.8-2.3c0-2.2,1.6-3.3,4.7-3.4l1.7-0.1v-0.6c0-0.8-0.2-1.4-0.5-1.8s-0.8-0.6-1.6-0.6c-0.5,0-1,0.1-1.5,0.3
			s-0.9,0.4-1.3,0.6l-0.5-1.3c0.5-0.3,1-0.5,1.6-0.7c0.6-0.2,1.2-0.2,1.7-0.2c1.2,0,2.1,0.3,2.7,0.9c0.6,0.6,0.9,1.5,0.9,2.7v7.3
			H486.2z M485.1,13.7c-0.3,0-0.5-0.1-0.8-0.2c-0.2-0.1-0.5-0.3-0.7-0.4s-0.5-0.3-0.7-0.4s-0.4-0.2-0.6-0.2c-0.3,0-0.5,0.1-0.7,0.3
			c-0.2,0.2-0.3,0.5-0.4,0.9h-0.9c0.1-0.8,0.3-1.4,0.6-1.9c0.3-0.5,0.8-0.7,1.4-0.7c0.3,0,0.5,0.1,0.8,0.2c0.3,0.1,0.5,0.3,0.7,0.4
			s0.5,0.3,0.7,0.4c0.2,0.1,0.4,0.2,0.6,0.2c0.3,0,0.5-0.1,0.7-0.3c0.1-0.2,0.3-0.5,0.4-0.9h0.9c-0.1,0.8-0.3,1.4-0.6,1.9
			C486.1,13.4,485.7,13.7,485.1,13.7z M482.9,24.6c0.9,0,1.6-0.3,2.1-0.8s0.8-1.3,0.8-2.3v-1l-1.5,0.1c-1.1,0-2,0.2-2.5,0.6
			s-0.8,0.9-0.8,1.6c0,0.6,0.2,1,0.5,1.3C481.9,24.4,482.3,24.6,482.9,24.6z"/>
		<path class="st1" d="M490.3,12.2c0-0.4,0.1-0.7,0.3-0.8s0.4-0.3,0.7-0.3c0.3,0,0.5,0.1,0.7,0.3c0.2,0.2,0.3,0.5,0.3,0.8
			c0,0.4-0.1,0.7-0.3,0.8c-0.2,0.2-0.4,0.3-0.7,0.3c-0.3,0-0.5-0.1-0.7-0.3S490.3,12.6,490.3,12.2z M492.1,25.8h-1.6V15.1h1.6V25.8z
			"/>
		<path class="st1" d="M497,23.5l0.1,0.2c-0.3,1.4-0.9,3-1.6,4.7h-1.2c0.4-1.6,0.7-3.3,0.9-4.9H497z"/>
		<path class="st1" d="M508.8,26c-1.4,0-2.5-0.5-3.3-1.4s-1.2-2.3-1.2-4.1c0-1.8,0.4-3.2,1.2-4.2s1.9-1.5,3.4-1.5
			c0.5,0,1,0.1,1.4,0.2s0.9,0.2,1.2,0.4l-0.5,1.5c-0.8-0.3-1.5-0.5-2.1-0.5c-1,0-1.7,0.3-2.2,1c-0.5,0.7-0.7,1.7-0.7,3
			c0,1.3,0.2,2.3,0.7,3c0.5,0.7,1.2,1,2.1,1c0.9,0,1.7-0.2,2.6-0.6v1.6C510.7,25.8,509.9,26,508.8,26z"/>
		<path class="st1" d="M520.4,25.8V19c0-0.9-0.2-1.5-0.5-1.9c-0.4-0.4-0.9-0.6-1.7-0.6c-1,0-1.7,0.3-2.2,0.9c-0.5,0.6-0.7,1.6-0.7,3
			v5.5h-1.6V10.6h1.6v4.5c0,0.6,0,1.1-0.1,1.5h0.1c0.3-0.5,0.7-0.9,1.2-1.2c0.5-0.3,1.1-0.4,1.8-0.4c1.2,0,2.1,0.3,2.7,0.9
			c0.6,0.6,0.9,1.6,0.9,3v7H520.4z"/>
		<path class="st1" d="M525,12.2c0-0.4,0.1-0.7,0.3-0.8s0.4-0.3,0.7-0.3c0.3,0,0.5,0.1,0.7,0.3s0.3,0.5,0.3,0.8
			c0,0.4-0.1,0.7-0.3,0.8s-0.4,0.3-0.7,0.3c-0.3,0-0.5-0.1-0.7-0.3S525,12.6,525,12.2z M526.7,25.8h-1.6V15.1h1.6V25.8z"/>
		<path class="st1" d="M534,26c-1.5,0-2.6-0.5-3.5-1.5s-1.3-2.3-1.3-4c0-1.7,0.4-3.1,1.2-4.1c0.8-1,1.8-1.5,3.2-1.5
			c1.2,0,2.2,0.4,3,1.3c0.7,0.9,1.1,2,1.1,3.5v1.1h-6.8c0,1.2,0.3,2.1,0.9,2.8c0.5,0.6,1.3,0.9,2.3,0.9c0.5,0,1-0.1,1.5-0.2
			s1-0.3,1.7-0.6v1.5c-0.5,0.3-1.1,0.4-1.5,0.5C535.2,26,534.7,26,534,26z M536.4,13.7h-0.9c-0.7-0.5-1.3-1-1.9-1.6
			c-0.7,0.7-1.3,1.2-1.9,1.6h-0.9v-0.2c0.3-0.4,0.6-0.8,1-1.2c0.4-0.4,0.7-0.9,1-1.3h1.7c0.4,0.7,1.1,1.5,1.9,2.6V13.7z M533.6,16.3
			c-0.8,0-1.4,0.3-1.8,0.8c-0.4,0.5-0.7,1.3-0.8,2.3h5c0-1-0.2-1.8-0.6-2.3C534.9,16.6,534.4,16.3,533.6,16.3z M535.7,11.6
			c0.4-0.6,0.8-1.3,1.1-2h1.6v0.2c-0.5,0.7-1.1,1.4-1.8,2h-0.9V11.6z"/>
		<path class="st1" d="M543.5,24.6c0.2,0,0.5,0,0.7-0.1s0.5-0.1,0.6-0.2v1.3c-0.1,0.1-0.4,0.1-0.7,0.2c-0.3,0.1-0.6,0.1-1,0.1
			c-1.9,0-2.9-1.1-2.9-3.3v-6.2h-1.4v-0.8l1.4-0.7l0.6-2.3h1v2.5h2.8v1.4h-2.8v6.2c0,0.6,0.1,1.1,0.4,1.4S543,24.6,543.5,24.6z"/>
		<path class="st1" d="M553.2,20.3l0.5-0.8l0.6-0.8l3.2-3.6h1.9l-4,4.6l4.3,6.1h-1.9l-3.4-5l-1.1,1.1v3.9h-1.6V10.6h1.6v7.9V20.3
			L553.2,20.3z"/>
		<path class="st1" d="M568.1,25.8V19c0-0.9-0.2-1.5-0.5-1.9c-0.4-0.4-0.9-0.6-1.7-0.6c-1,0-1.7,0.3-2.2,0.9s-0.7,1.6-0.7,3v5.5
			h-1.6V10.6h1.6v4.5c0,0.6,0,1.1-0.1,1.5h0.1c0.3-0.5,0.7-0.9,1.2-1.2c0.5-0.3,1.1-0.4,1.8-0.4c1.2,0,2.1,0.3,2.7,0.9
			c0.6,0.6,0.9,1.6,0.9,3v7H568.1z"/>
		<path class="st1" d="M578.9,25.8l-0.3-1.5h-0.1c-0.5,0.7-1,1.1-1.5,1.4c-0.5,0.2-1.1,0.4-1.8,0.4c-1,0-1.7-0.3-2.3-0.8
			s-0.8-1.3-0.8-2.3c0-2.2,1.6-3.3,4.7-3.4l1.7-0.1v-0.6c0-0.8-0.2-1.4-0.5-1.8c-0.3-0.4-0.8-0.6-1.6-0.6c-0.5,0-1,0.1-1.5,0.3
			s-0.9,0.4-1.3,0.6l-0.5-1.3c0.5-0.3,1-0.5,1.6-0.7s1.2-0.2,1.7-0.2c1.2,0,2.1,0.3,2.7,0.9c0.6,0.6,0.9,1.5,0.9,2.7v7.3H578.9z
			 M579.1,13.7h-0.9c-0.7-0.5-1.3-1-1.9-1.6c-0.7,0.7-1.3,1.2-1.9,1.6h-0.9v-0.2c0.3-0.4,0.6-0.8,1-1.2c0.4-0.4,0.7-0.9,1-1.3h1.7
			c0.4,0.7,1.1,1.5,1.9,2.6V13.7z M575.5,24.6c0.9,0,1.6-0.3,2.1-0.8s0.8-1.3,0.8-2.3v-1l-1.5,0.1c-1.1,0-2,0.2-2.5,0.6
			s-0.8,0.9-0.8,1.6c0,0.6,0.2,1,0.5,1.3C574.5,24.4,575,24.6,575.5,24.6z M578.4,11.6c0.4-0.6,0.8-1.3,1.1-2h1.6v0.2
			c-0.5,0.7-1.1,1.4-1.8,2h-0.9V11.6z"/>
		<path class="st1" d="M584.6,15.1V22c0,0.9,0.2,1.5,0.5,1.9c0.4,0.4,0.9,0.6,1.7,0.6c1,0,1.7-0.3,2.2-0.9s0.7-1.6,0.7-3v-5.6h1.6
			v10.7H590l-0.2-1.4h-0.1c-0.3,0.5-0.7,0.9-1.2,1.2c-0.5,0.3-1.2,0.4-1.9,0.4c-1.2,0-2.1-0.3-2.7-0.9s-0.9-1.6-0.9-3v-7H584.6z"/>
		<path class="st1" d="M417.2,48.4c-1.3,0-2.3-0.5-3-1.4s-1.1-2.3-1.1-4.1c0-1.8,0.4-3.1,1.1-4.1s1.7-1.5,3-1.5
			c1.3,0,2.4,0.5,3.1,1.6h0.1c0-0.1,0-0.3-0.1-0.7s0-0.7,0-0.9v-1.2h-3.9v-1.3h3.9V33h1.6v1.8h1.4v1.3h-1.4v12.1h-1.3l-0.2-1.4h-0.1
			C419.5,47.9,418.5,48.4,417.2,48.4z M417.5,47c1,0,1.7-0.3,2.1-0.9s0.7-1.5,0.7-2.8v-0.3c0-1.5-0.2-2.6-0.7-3.2
			c-0.5-0.6-1.2-0.9-2.2-0.9c-0.8,0-1.5,0.3-1.9,1s-0.7,1.7-0.7,3.1c0,1.3,0.2,2.3,0.6,3S416.6,47,417.5,47z"/>
		<path class="st1" d="M433.6,42.8c0,1.8-0.4,3.1-1.2,4.1c-0.8,1-1.9,1.5-3.4,1.5c-0.9,0-1.7-0.2-2.4-0.7s-1.2-1.1-1.6-1.9
			s-0.6-1.8-0.6-2.9c0-1.7,0.4-3.1,1.2-4.1s1.9-1.5,3.4-1.5c1.4,0,2.5,0.5,3.3,1.5S433.6,41.1,433.6,42.8z M425.9,35.9
			c0.7-0.9,1.3-1.5,1.6-1.9c0.3-0.4,0.5-0.8,0.7-1h1.7c0.3,0.7,1.1,1.7,2.3,3v0.2H431c-0.5-0.3-1.2-0.9-2-1.8
			c-0.8,0.8-1.4,1.4-2,1.8h-1.1V35.9z M426.2,42.8c0,1.3,0.2,2.4,0.7,3.1c0.5,0.7,1.2,1,2.2,1c0.9,0,1.7-0.4,2.1-1
			c0.5-0.7,0.7-1.7,0.7-3.1s-0.2-2.4-0.7-3c-0.5-0.7-1.2-1-2.2-1C427.1,38.8,426.2,40.1,426.2,42.8z M428.1,50.6
			c0-0.4,0.1-0.7,0.3-0.9s0.4-0.3,0.7-0.3c0.3,0,0.5,0.1,0.7,0.3s0.3,0.5,0.3,0.9c0,0.3-0.1,0.6-0.3,0.8c-0.2,0.2-0.4,0.3-0.7,0.3
			c-0.3,0-0.5-0.1-0.7-0.3S428.1,51,428.1,50.6z"/>
		<path class="st1" d="M440.1,48.4c-1.4,0-2.5-0.5-3.3-1.4s-1.2-2.3-1.2-4.1c0-1.8,0.4-3.2,1.2-4.2c0.8-1,1.9-1.5,3.4-1.5
			c0.5,0,1,0.1,1.4,0.2s0.9,0.2,1.2,0.4l-0.5,1.5c-0.8-0.3-1.5-0.5-2.1-0.5c-1,0-1.7,0.3-2.2,1s-0.7,1.7-0.7,3c0,1.3,0.2,2.3,0.7,3
			s1.2,1,2.1,1c0.9,0,1.7-0.2,2.6-0.6v1.6C442,48.2,441.1,48.4,440.1,48.4z"/>
		<path class="st1" d="M453.2,48.4c-1.3,0-2.3-0.5-3-1.5s-1-2.3-1-4.1c0-1.7,0.4-3.1,1.1-4.1s1.7-1.5,3-1.5c1.3,0,2.4,0.6,3.1,1.7
			h0.1l0.2-1.5h1.3V53h-1.6v-4.6c0-0.7,0-1.3,0.1-1.7h-0.1C455.6,47.9,454.6,48.4,453.2,48.4z M453.5,47c1,0,1.7-0.3,2.1-0.9
			c0.4-0.6,0.7-1.5,0.7-2.8v-0.4c0-1.5-0.2-2.5-0.7-3.2s-1.2-1-2.2-1c-0.8,0-1.5,0.4-1.9,1.1c-0.4,0.7-0.7,1.7-0.7,3.1
			c0,1.3,0.2,2.3,0.7,3S452.6,47,453.5,47z"/>
		<path class="st1" d="M462.6,37.5v6.9c0,0.9,0.2,1.5,0.5,1.9c0.4,0.4,0.9,0.6,1.7,0.6c1,0,1.7-0.3,2.2-0.9s0.7-1.6,0.7-3v-5.6h1.6
			v10.7H468l-0.2-1.4h-0.1c-0.3,0.5-0.7,0.9-1.2,1.2c-0.5,0.3-1.2,0.4-1.9,0.4c-1.2,0-2.1-0.3-2.7-0.9s-0.9-1.6-0.9-3v-7H462.6z"/>
		<path class="st1" d="M470.9,37.5h1.7l2.1,6.1c0.4,1.3,0.7,2.3,0.8,2.9h0.1c0.1-0.2,0.2-0.7,0.4-1.4s0.4-1.2,0.5-1.6l2-6.1h1.7
			L476,49.7c-0.4,1.2-0.9,2-1.5,2.5c-0.6,0.5-1.3,0.8-2.1,0.8c-0.4,0-0.9-0.1-1.3-0.2v-1.4c0.3,0.1,0.7,0.1,1.1,0.1
			c0.5,0,1-0.2,1.3-0.5s0.7-0.8,0.9-1.4l0.5-1.4L470.9,37.5z"/>
		<path class="st1" d="M483.5,34.2h-0.9c-0.7-0.6-1.3-1.3-1.9-2V32h1.6c0.3,0.8,0.7,1.4,1.1,2V34.2z M486,48.4
			c-1.5,0-2.6-0.5-3.5-1.5c-0.8-1-1.3-2.3-1.3-4c0-1.7,0.4-3.1,1.2-4.1s1.8-1.5,3.2-1.5c1.2,0,2.2,0.4,3,1.3c0.7,0.9,1.1,2,1.1,3.5
			v1.1h-6.8c0,1.2,0.3,2.1,0.9,2.8s1.3,0.9,2.3,0.9c0.5,0,1-0.1,1.5-0.2s1-0.3,1.7-0.6v1.5c-0.5,0.3-1.1,0.4-1.5,0.5
			C487.2,48.4,486.6,48.4,486,48.4z M488.4,36.1h-0.9c-0.6-0.4-1.2-1-1.9-1.6c-0.6,0.6-1.3,1.2-1.9,1.6h-0.9v-0.2l0.5-0.6
			c0.7-0.8,1.2-1.5,1.5-2h1.7c0.4,0.6,1,1.4,1.9,2.6V36.1z M485.6,38.7c-0.8,0-1.4,0.3-1.8,0.8c-0.4,0.5-0.7,1.3-0.8,2.3h5
			c0-1-0.2-1.8-0.6-2.3S486.3,38.7,485.6,38.7z"/>
		<path class="st1" d="M498.9,48.2v-6.9c0-0.9-0.2-1.5-0.5-1.9c-0.4-0.4-0.9-0.6-1.7-0.6c-1,0-1.7,0.3-2.2,0.9
			c-0.5,0.6-0.7,1.6-0.7,3v5.6h-1.6V37.5h1.3l0.2,1.5h0.1c0.3-0.5,0.7-0.9,1.3-1.2s1.2-0.4,1.8-0.4c1.2,0,2.1,0.3,2.7,1
			c0.6,0.6,0.9,1.6,0.9,3v7H498.9z"/>
		<path class="st1" d="M511.6,47c0.2,0,0.5,0,0.7-0.1s0.5-0.1,0.6-0.2v1.3c-0.1,0.1-0.4,0.1-0.7,0.2c-0.3,0.1-0.6,0.1-1,0.1
			c-1.9,0-2.9-1.1-2.9-3.3v-6.2H507V38l1.4-0.7l0.6-2.3h1v2.5h2.8v1.4h-2.8v6.2c0,0.6,0.1,1.1,0.4,1.4C510.7,46.8,511.1,47,511.6,47
			z"/>
		<path class="st1" d="M521,48.2l-0.3-1.5h-0.1c-0.5,0.7-1,1.1-1.5,1.4c-0.5,0.2-1.1,0.4-1.8,0.4c-1,0-1.7-0.3-2.3-0.8
			s-0.8-1.3-0.8-2.3c0-2.2,1.6-3.3,4.7-3.4l1.7-0.1v-0.6c0-0.8-0.2-1.4-0.5-1.8c-0.3-0.4-0.8-0.6-1.6-0.6c-0.5,0-1,0.1-1.5,0.3
			c-0.5,0.2-0.9,0.4-1.3,0.6l-0.5-1.3c0.5-0.3,1-0.5,1.6-0.7c0.6-0.2,1.2-0.2,1.7-0.2c1.2,0,2.1,0.3,2.7,0.9s0.9,1.5,0.9,2.7v7.3
			H521z M517.7,47c0.9,0,1.6-0.3,2.1-0.8s0.8-1.3,0.8-2.3v-1l-1.5,0.1c-1.1,0-2,0.2-2.5,0.6s-0.8,0.9-0.8,1.6c0,0.6,0.2,1,0.5,1.3
			S517.1,47,517.7,47z M517,50.6c0-0.4,0.1-0.7,0.3-0.9s0.4-0.3,0.7-0.3c0.3,0,0.5,0.1,0.7,0.3c0.2,0.2,0.3,0.5,0.3,0.9
			c0,0.3-0.1,0.6-0.3,0.8s-0.4,0.3-0.7,0.3c-0.3,0-0.5-0.1-0.7-0.3S517,51,517,50.6z"/>
		<path class="st1" d="M525.1,34.6c0-0.4,0.1-0.7,0.3-0.8s0.4-0.3,0.7-0.3c0.3,0,0.5,0.1,0.7,0.3s0.3,0.5,0.3,0.8
			c0,0.4-0.1,0.7-0.3,0.8s-0.4,0.3-0.7,0.3c-0.3,0-0.5-0.1-0.7-0.3S525.1,35,525.1,34.6z M526.9,48.2h-1.6V37.5h1.6V48.2z"/>
		<path class="st1" d="M545.5,40.9c0,2.3-0.6,4.1-1.8,5.4c-1.2,1.3-2.9,1.9-5.1,1.9h-3.5v-6.3h-1.4v-1.6h1.4v-6.4h3.9
			c2,0,3.6,0.6,4.8,1.8S545.5,38.7,545.5,40.9z M543.8,41c0-1.8-0.4-3.2-1.2-4.1s-2.1-1.4-3.7-1.4h-2v4.9h3.3v1.6h-3.3v4.7h1.7
			C542,46.7,543.8,44.8,543.8,41z"/>
		<path class="st1" d="M556.5,48.2l-1.6-4.4h-5.2l-1.6,4.4h-1.7l5.1-14.3h1.5l5.1,14.3H556.5z M549.1,32.6c0.7-0.9,1.3-1.5,1.6-1.9
			c0.3-0.4,0.5-0.8,0.7-1h1.7c0.3,0.7,1.1,1.7,2.3,3v0.2h-1.1c-0.5-0.3-1.2-0.9-2-1.8c-0.8,0.8-1.4,1.4-2,1.8h-1.1V32.6z
			 M554.4,42.2l-1.5-4.3l-0.6-2.1c-0.2,0.8-0.4,1.5-0.6,2.1l-1.5,4.3H554.4z"/>
		<path class="st1" d="M562.9,41l3.4-7h1.8l-4.4,8.7v5.5H562v-5.5l-4.4-8.8h1.8L562.9,41z"/>
		<path class="st1" d="M569.4,47.1c0-0.4,0.1-0.8,0.3-1s0.5-0.3,0.8-0.3c0.4,0,0.7,0.1,0.8,0.4s0.3,0.6,0.3,1s-0.1,0.7-0.3,1
			s-0.5,0.4-0.8,0.4c-0.4,0-0.6-0.1-0.8-0.4C569.5,47.9,569.4,47.6,569.4,47.1z M571.1,44.2h-1l-0.5-10.3h2L571.1,44.2z"/>
	</g>
</g>
<path class="st2" d="M475.2-37.9l-21-21l36.3-36.3l14.4,1.3c2.8,0.3,5,2.5,5.2,5.2l1.3,14.4L475.2-37.9z"/>
<circle class="st2" cx="497.2" cy="-80.9" r="5.4"/>
</svg>
