<?xml version="1.0" encoding="utf-8"?>
<!-- Generator: Adobe Illustrator 19.0.0, SVG Export Plug-In . SVG Version: 6.00 Build 0)  -->
<svg version="1.1" id="Layer_1" xmlns="http://www.w3.org/2000/svg" xmlns:xlink="http://www.w3.org/1999/xlink" x="0px" y="0px"
	 viewBox="-799.3 -186.9 571.6 374.1" style="enable-background:new -799.3 -186.9 571.6 374.1;" xml:space="preserve">
<style type="text/css">
	.st0{fill:#FFFFFF;}
	.st1{fill:#33CCCC;}
	.st2{fill:none;stroke:#33CCCC;stroke-width:2;stroke-miterlimit:10;}
	.st3{fill:#FFFFFF;stroke:#FFFFFF;stroke-width:0.5;stroke-miterlimit:10;}
	.st4{fill:none;stroke:#FFFFFF;stroke-width:0.75;stroke-linecap:round;stroke-linejoin:round;stroke-miterlimit:10;}
	.st5{fill:#FF6633;}
	.st6{fill:#33CCCC;stroke:#FFFFFF;stroke-width:0.75;stroke-miterlimit:10;}
	.st7{fill:none;stroke:#FFFFFF;stroke-linecap:round;stroke-linejoin:round;stroke-miterlimit:10;}
	.st8{fill:none;stroke:#FFFFFF;stroke-width:0.75;stroke-miterlimit:10;}
	.st9{fill:#E3E3E3;stroke:#E3E3E3;stroke-width:0.75;stroke-miterlimit:10;}
</style>
<g>
	<path class="st0" d="M-764.6-154.3l-5.4-19h-0.1c0.2,3.9,0.3,6.4,0.3,7.7v11.3h-4.2v-24.2h6.4l5.3,18.5h0.1l5.6-18.5h6.4v24.2h-4.4
		v-11.4c0-0.5,0-1.2,0-1.9s0.1-2.6,0.2-5.6h-0.1l-5.7,18.9H-764.6z"/>
	<path class="st0" d="M-732.9-154.3l-0.6-2.4h-0.2c-0.5,0.9-1.2,1.5-2.1,2c-0.9,0.5-2,0.7-3.1,0.7c-2,0-3.5-0.6-4.5-1.7
		s-1.5-2.8-1.5-5v-12.1h4.6v10.8c0,1.3,0.2,2.3,0.7,3c0.4,0.7,1.1,1,2.1,1c1.3,0,2.2-0.5,2.8-1.4c0.6-0.9,0.9-2.5,0.9-4.7v-8.7h4.6
		v18.5H-732.9z"/>
	<path class="st0" d="M-713.7-154.3l-0.9-2.5h-0.1c-0.8,1.1-1.6,1.8-2.4,2.2c-0.8,0.4-1.9,0.6-3.2,0.6c-1.6,0-2.9-0.5-3.9-1.5
		c-0.9-1-1.4-2.5-1.4-4.3c0-2,0.6-3.4,1.9-4.3s3.2-1.4,5.7-1.5l3-0.1v-0.8c0-1.9-0.9-2.8-2.6-2.8c-1.4,0-3,0.4-4.8,1.3l-1.5-3.4
		c2-1.1,4.1-1.7,6.5-1.7c2.3,0,4,0.5,5.2,1.6c1.2,1.1,1.8,2.7,1.8,4.9v12.3H-713.7z M-715.1-162.8l-1.8,0.1c-1.3,0-2.4,0.3-3,0.8
		c-0.7,0.5-1,1.2-1,2.2c0,1.4,0.8,2.1,2.3,2.1c1.1,0,1.9-0.3,2.6-1s1-1.6,1-2.7V-162.8z"/>
	<path class="st0" d="M-685.7-159.7c0,1.9-0.6,3.3-1.8,4.3s-3,1.5-5.4,1.5c-1.2,0-2.3-0.1-3.2-0.3c-0.9-0.2-1.7-0.4-2.4-0.8v-4.2
		c0.9,0.4,1.8,0.8,2.9,1.1c1.1,0.3,2,0.4,2.9,0.4c1.7,0,2.5-0.5,2.5-1.6c0-0.4-0.1-0.7-0.3-1s-0.6-0.5-1.2-0.8
		c-0.5-0.3-1.3-0.7-2.2-1.1c-1.3-0.6-2.3-1.1-2.9-1.7c-0.6-0.5-1.1-1.1-1.3-1.7s-0.4-1.5-0.4-2.4c0-1.6,0.6-2.9,1.8-3.8
		s2.8-1.3,5-1.3c2,0,4,0.5,6,1.5l-1.4,3.6c-0.9-0.4-1.6-0.7-2.4-1s-1.5-0.4-2.3-0.4c-1.4,0-2.1,0.4-2.1,1.2c0,0.5,0.2,0.8,0.7,1.2
		c0.4,0.3,1.4,0.8,2.9,1.5c1.3,0.6,2.3,1.1,2.9,1.6c0.6,0.5,1.1,1.1,1.4,1.8C-685.9-161.5-685.7-160.7-685.7-159.7z"/>
	<path class="st0" d="M-671.3-154.3l-0.9-2.5h-0.1c-0.8,1.1-1.6,1.8-2.4,2.2c-0.8,0.4-1.9,0.6-3.2,0.6c-1.6,0-2.9-0.5-3.9-1.5
		c-0.9-1-1.4-2.5-1.4-4.3c0-2,0.6-3.4,1.9-4.3s3.2-1.4,5.7-1.5l3-0.1v-0.8c0-1.9-0.9-2.8-2.6-2.8c-1.4,0-3,0.4-4.8,1.3l-1.5-3.4
		c2-1.1,4.1-1.7,6.5-1.7c2.3,0,4,0.5,5.2,1.6c1.2,1.1,1.8,2.7,1.8,4.9v12.3H-671.3z M-669.7-180.4c-0.1,1.7-0.7,3.1-1.6,4.1
		c-1,1-2.3,1.5-3.9,1.5c-1.7,0-3-0.5-3.9-1.4s-1.5-2.3-1.5-4.2h2.3c0.1,1,0.4,1.7,1,2.1c0.6,0.5,1.3,0.7,2.2,0.7
		c0.9,0,1.6-0.3,2.2-0.8c0.6-0.5,0.9-1.2,1-2H-669.7z M-672.7-162.8l-1.8,0.1c-1.3,0-2.4,0.3-3,0.8c-0.7,0.5-1,1.2-1,2.2
		c0,1.4,0.8,2.1,2.3,2.1c1.1,0,1.9-0.3,2.6-1s1-1.6,1-2.7V-162.8z M-676.7-179.5c0.7-1.2,1.3-2.3,1.8-3.3h3.4v0.3
		c-0.9,1.2-2,2.4-3.1,3.4h-2V-179.5z"/>
	<path class="st0" d="M-648.1-154.3h-4.6v-10.8c0-1.3-0.2-2.3-0.6-3c-0.4-0.7-1.1-1-1.9-1c-1.2,0-2,0.5-2.6,1.4
		c-0.5,0.9-0.8,2.5-0.8,4.7v8.7h-4.6v-18.5h3.5l0.6,2.4h0.3c0.5-0.8,1.1-1.5,2-2s1.9-0.7,3-0.7c2.5,0,4.3,0.9,5.2,2.7h0.4
		c0.5-0.9,1.1-1.5,2-2c0.9-0.5,1.9-0.7,3-0.7c1.9,0,3.4,0.5,4.4,1.6c1,1.1,1.5,2.8,1.5,5.2v12.1h-4.7v-10.8c0-1.3-0.2-2.3-0.6-3
		c-0.4-0.7-1.1-1-1.9-1c-1.1,0-2,0.4-2.5,1.3c-0.6,0.9-0.8,2.3-0.8,4.2V-154.3z"/>
	<path class="st0" d="M-617.5-157.9c0.8,0,1.8-0.2,2.9-0.6v3.8c-1.2,0.6-2.6,0.8-4.3,0.8c-1.9,0-3.2-0.5-4.1-1.5
		c-0.8-1-1.3-2.6-1.3-4.6v-8.9h-2.2v-2.1l2.6-1.7l1.3-3.9h3v3.9h4.8v3.8h-4.8v8.9c0,0.7,0.2,1.2,0.6,1.6
		C-618.6-158.1-618.1-157.9-617.5-157.9z"/>
	<path class="st0" d="M-601.6-173.1c0.6,0,1.2,0,1.6,0.1l-0.4,4.7c-0.4-0.1-0.8-0.2-1.4-0.2c-1.5,0-2.6,0.4-3.5,1.2s-1.2,2-1.2,3.5
		v9.4h-4.6v-18.5h3.5l0.7,3.1h0.2c0.5-1,1.2-1.9,2.1-2.5C-603.6-172.8-602.7-173.1-601.6-173.1z"/>
	<path class="st0" d="M-589.6-153.9c-2.7,0-4.9-0.8-6.4-2.5c-1.5-1.6-2.3-4-2.3-7c0-3.1,0.7-5.5,2.1-7.2c1.4-1.7,3.4-2.5,5.9-2.5
		c2.4,0,4.3,0.7,5.6,2.2c1.3,1.5,2,3.5,2,6.2v2.4h-11c0.1,1.4,0.4,2.6,1.2,3.4s1.8,1.2,3.1,1.2c1,0,2-0.1,2.9-0.3
		c0.9-0.2,1.9-0.6,2.9-1.1v3.9c-0.8,0.4-1.7,0.8-2.6,1C-587.1-154-588.2-153.9-589.6-153.9z M-586.6-174.8c-1.6-1-2.8-2-3.6-2.9
		c-0.8,0.9-2,1.9-3.5,2.9h-3.1v-0.4c1.9-2.1,3.2-3.7,3.9-5h5.4c0.3,0.6,0.9,1.4,1.6,2.3c0.8,1,1.5,1.9,2.3,2.6v0.4H-586.6z
		 M-590.2-169.5c-1,0-1.8,0.3-2.3,1c-0.6,0.7-0.9,1.6-1,2.9h6.5c0-1.2-0.3-2.2-0.9-2.9C-588.5-169.2-589.2-169.5-590.2-169.5z"/>
	<path class="st0" d="M-563.2-154.3h-4.6v-10.8c0-1.3-0.2-2.3-0.7-3c-0.4-0.7-1.1-1-2.1-1c-1.3,0-2.2,0.5-2.8,1.4
		c-0.6,0.9-0.9,2.5-0.9,4.7v8.7h-4.6v-18.5h3.5l0.6,2.4h0.3c0.5-0.9,1.2-1.6,2.1-2c0.9-0.5,1.9-0.7,3.1-0.7c2,0,3.5,0.6,4.5,1.7
		c1,1.2,1.5,2.8,1.5,5V-154.3z"/>
	<path class="st0" d="M-550.5-177.5c0-1.6,0.8-2.5,2.5-2.5c1.7,0,2.5,0.8,2.5,2.5c0,0.8-0.2,1.4-0.6,1.8c-0.4,0.4-1.1,0.7-1.9,0.7
		C-549.7-175.1-550.5-175.9-550.5-177.5z M-545.7-154.3h-4.6v-18.5h4.6V-154.3z"/>
	<path class="st0" d="M-531.5-153.9c-2,0-3.6-0.8-4.7-2.4h-0.2c0.2,1.5,0.2,2.4,0.2,2.7v7.5h-4.6v-26.6h3.8l0.7,2.4h0.2
		c1.1-1.8,2.7-2.7,4.8-2.7c2,0,3.6,0.8,4.7,2.5c1.1,1.7,1.7,4,1.7,7c0,2-0.3,3.7-0.8,5.1c-0.5,1.5-1.3,2.6-2.3,3.3
		C-529-154.3-530.1-153.9-531.5-153.9z M-532.8-169.1c-1.1,0-2,0.4-2.5,1.1c-0.5,0.8-0.8,2-0.8,3.8v0.5c0,2,0.3,3.4,0.8,4.3
		s1.4,1.3,2.6,1.3c2.1,0,3.1-1.9,3.1-5.6c0-1.8-0.3-3.2-0.8-4.1C-530.9-168.6-531.7-169.1-532.8-169.1z"/>
	<path class="st0" d="M-511.6-173.1c0.6,0,1.2,0,1.6,0.1l-0.4,4.7c-0.4-0.1-0.8-0.2-1.4-0.2c-1.5,0-2.6,0.4-3.5,1.2s-1.2,2-1.2,3.5
		v9.4h-4.6v-18.5h3.5l0.7,3.1h0.2c0.5-1,1.2-1.9,2.1-2.5C-513.6-172.8-512.7-173.1-511.6-173.1z"/>
	<path class="st0" d="M-507.1-177.5c0-1.6,0.8-2.5,2.5-2.5c1.7,0,2.5,0.8,2.5,2.5c0,0.8-0.2,1.4-0.6,1.8c-0.4,0.4-1.1,0.7-1.9,0.7
		C-506.3-175.1-507.1-175.9-507.1-177.5z M-502.3-154.3h-4.6v-18.5h4.6V-154.3z"/>
	<path class="st0" d="M-490.5-153.9c-5.3,0-7.9-3.2-7.9-9.5c0-3.1,0.7-5.5,2.2-7.2s3.5-2.5,6.2-2.5c2,0,3.7,0.4,5.3,1.3l-1.4,3.9
		c-0.7-0.3-1.4-0.6-2-0.8c-0.6-0.2-1.3-0.3-1.9-0.3c-2.4,0-3.6,1.9-3.6,5.6c0,3.6,1.2,5.4,3.6,5.4c0.9,0,1.7-0.1,2.5-0.4
		c0.8-0.3,1.5-0.7,2.3-1.2v4.3c-0.8,0.5-1.5,0.9-2.3,1.1C-488.4-154-489.4-153.9-490.5-153.9z"/>
	<path class="st0" d="M-473.7-153.9c-2.7,0-4.9-0.8-6.4-2.5c-1.5-1.6-2.3-4-2.3-7c0-3.1,0.7-5.5,2.1-7.2c1.4-1.7,3.4-2.5,5.9-2.5
		c2.4,0,4.3,0.7,5.6,2.2c1.3,1.5,2,3.5,2,6.2v2.4h-11c0.1,1.4,0.4,2.6,1.2,3.4s1.8,1.2,3.1,1.2c1,0,2-0.1,2.9-0.3
		c0.9-0.2,1.9-0.6,2.9-1.1v3.9c-0.8,0.4-1.7,0.8-2.6,1C-471.3-154-472.4-153.9-473.7-153.9z M-474.4-169.5c-1,0-1.8,0.3-2.3,1
		c-0.6,0.7-0.9,1.6-1,2.9h6.5c0-1.2-0.3-2.2-0.9-2.9C-472.6-169.2-473.4-169.5-474.4-169.5z"/>
	<path class="st0" d="M-439.2-154.3h-4.6v-10.8c0-1.3-0.2-2.3-0.7-3c-0.4-0.7-1.1-1-2.1-1c-1.3,0-2.2,0.5-2.8,1.4
		c-0.6,0.9-0.9,2.5-0.9,4.7v8.7h-4.6v-18.5h3.5l0.6,2.4h0.3c0.5-0.9,1.2-1.6,2.1-2c0.9-0.5,1.9-0.7,3.1-0.7c2,0,3.5,0.6,4.5,1.7
		c1,1.2,1.5,2.8,1.5,5V-154.3z"/>
	<path class="st0" d="M-418.8-154.3h-4.6v-10.8c0-2.7-0.9-4-2.7-4c-1.3,0-2.2,0.5-2.8,1.4c-0.6,1-0.9,2.5-0.9,4.7v8.7h-4.6V-180h4.6
		v5.2c0,0.4,0,1.4-0.1,2.9l-0.1,1.5h0.2c1-1.8,2.7-2.7,4.9-2.7c2,0,3.5,0.6,4.5,1.8c1,1.2,1.6,2.8,1.6,5V-154.3z"/>
	<path class="st0" d="M-401.9-154.3l-0.6-2.4h-0.3c-0.5,0.8-1.2,1.5-2.1,2c-0.9,0.5-1.9,0.7-3.1,0.7c-2,0-3.5-0.6-4.5-1.7
		s-1.5-2.8-1.5-5v-12.1h4.6v10.8c0,1.3,0.2,2.3,0.7,3c0.4,0.7,1.1,1,2.1,1c1.3,0,2.2-0.5,2.8-1.4c0.6-0.9,0.9-2.5,0.9-4.7v-8.7h4.6
		v1.9c0.7-0.2,1.3-0.8,1.7-1.6c0.4-0.8,0.6-1.9,0.6-3.1h4.6l0.2,0.4c-0.3,1.7-0.8,3-1.3,4c-0.5,0.9-1.3,1.7-2.2,2.2
		c-0.9,0.6-2.1,1-3.6,1.2v13.5H-401.9z"/>
	<path class="st0" d="M-375.1-157.9c0.8,0,1.8-0.2,2.9-0.6v3.8c-1.2,0.6-2.6,0.8-4.3,0.8c-1.9,0-3.2-0.5-4.1-1.5
		c-0.8-1-1.3-2.6-1.3-4.6v-8.9h-2.2v-2.1l2.6-1.7l1.3-3.9h3v3.9h4.8v3.8h-4.8v8.9c0,0.7,0.2,1.2,0.6,1.6
		C-376.2-158.1-375.7-157.9-375.1-157.9z"/>
	<path class="st0" d="M-353-154.3h-4.6v-10.8c0-2.7-0.9-4-2.7-4c-1.3,0-2.2,0.5-2.8,1.4c-0.6,1-0.9,2.5-0.9,4.7v8.7h-4.6V-180h4.6
		v5.2c0,0.4,0,1.4-0.1,2.9l-0.1,1.5h0.2c1-1.8,2.7-2.7,4.9-2.7c2,0,3.5,0.6,4.5,1.8c1,1.2,1.6,2.8,1.6,5V-154.3z"/>
	<path class="st0" d="M-340.6-153.9c-2.7,0-4.9-0.8-6.4-2.5c-1.5-1.6-2.3-4-2.3-7c0-3.1,0.7-5.5,2.1-7.2c1.4-1.7,3.4-2.5,5.9-2.5
		c2.4,0,4.3,0.7,5.6,2.2c1.3,1.5,2,3.5,2,6.2v2.4h-11c0.1,1.4,0.4,2.6,1.2,3.4s1.8,1.2,3.1,1.2c1,0,2-0.1,2.9-0.3
		c0.9-0.2,1.9-0.6,2.9-1.1v3.9c-0.8,0.4-1.7,0.8-2.6,1C-338.1-154-339.2-153.9-340.6-153.9z M-335.6-174.8h-2.5
		c-1.1-0.8-2.2-1.7-3.2-2.7c-1.2,1.1-2.2,2-3.2,2.7h-2.5v-0.4c1.1-1.4,2.2-3,3.3-4.6h4.8c0.5,0.9,1.1,1.8,1.8,2.7
		c0.7,0.9,1.2,1.6,1.5,1.9V-174.8z M-341.2-169.5c-1,0-1.8,0.3-2.3,1c-0.6,0.7-0.9,1.6-1,2.9h6.5c0-1.2-0.3-2.2-0.9-2.9
		C-339.4-169.2-340.2-169.5-341.2-169.5z M-336.9-178.4c0.9-1,1.6-2.1,2.1-3.3h3.7v0.3c-0.7,1-1.8,2.1-3.5,3.4h-2.3V-178.4z"/>
	<path class="st0" d="M-306.1-154.3h-4.6v-10.8c0-1.3-0.2-2.3-0.7-3c-0.4-0.7-1.1-1-2.1-1c-1.3,0-2.2,0.5-2.8,1.4
		c-0.6,0.9-0.9,2.5-0.9,4.7v8.7h-4.6v-18.5h3.5l0.6,2.4h0.3c0.5-0.9,1.2-1.6,2.1-2c0.9-0.5,1.9-0.7,3.1-0.7c2,0,3.5,0.6,4.5,1.7
		c1,1.2,1.5,2.8,1.5,5V-154.3z"/>
	<path class="st0" d="M-290.5-154.3l-0.9-2.5h-0.1c-0.8,1.1-1.6,1.8-2.4,2.2c-0.8,0.4-1.9,0.6-3.2,0.6c-1.6,0-2.9-0.5-3.9-1.5
		c-0.9-1-1.4-2.5-1.4-4.3c0-2,0.6-3.4,1.9-4.3s3.2-1.4,5.7-1.5l3-0.1v-0.8c0-1.9-0.9-2.8-2.6-2.8c-1.4,0-3,0.4-4.8,1.3l-1.5-3.4
		c2-1.1,4.1-1.7,6.5-1.7c2.3,0,4,0.5,5.2,1.6c1.2,1.1,1.8,2.7,1.8,4.9v12.3H-290.5z M-294.4-174.8c-0.6-0.5-1.6-1.3-2.8-2.4
		c-1.2-1.1-2.2-2-2.9-2.7v-0.3h5.2c0.6,1.1,1.8,2.8,3.6,5v0.4H-294.4z M-291.9-162.8l-1.8,0.1c-1.3,0-2.4,0.3-3,0.8
		c-0.7,0.5-1,1.2-1,2.2c0,1.4,0.8,2.1,2.3,2.1c1.1,0,1.9-0.3,2.6-1s1-1.6,1-2.7V-162.8z"/>
	<path class="st0" d="M-267-163.5c0,3-0.7,5.4-2.2,7.1c-1.5,1.7-3.5,2.5-6.1,2.5c-1.6,0-3.1-0.4-4.3-1.2c-1.2-0.8-2.2-1.9-2.9-3.4
		c-0.7-1.5-1-3.2-1-5.1c0-3,0.7-5.4,2.2-7s3.5-2.5,6.1-2.5c1.6,0,3.1,0.4,4.3,1.2c1.2,0.8,2.2,1.9,2.9,3.3
		C-267.4-167.2-267-165.5-267-163.5z M-278.8-163.5c0,1.8,0.3,3.2,0.8,4.2c0.6,0.9,1.5,1.4,2.7,1.4c1.2,0,2.1-0.5,2.7-1.4
		c0.5-0.9,0.8-2.3,0.8-4.2c0-1.8-0.3-3.2-0.8-4.1c-0.5-0.9-1.4-1.4-2.7-1.4c-1.2,0-2.1,0.5-2.7,1.4
		C-278.5-166.8-278.8-165.4-278.8-163.5z"/>
	<path class="st0" d="M-261.4-162.3v-1.2c0-1.1,0.2-2,0.6-2.8s1.2-1.6,2.3-2.5c1.1-0.8,1.8-1.5,2.1-2c0.3-0.5,0.5-1.1,0.5-1.7
		c0-0.7-0.2-1.3-0.7-1.6c-0.5-0.4-1.2-0.6-2-0.6c-1.5,0-3.3,0.5-5.2,1.6l-1.7-3.6c2.3-1.4,4.7-2.1,7.2-2.1c2.1,0,3.7,0.5,5,1.6
		c1.2,1.1,1.8,2.5,1.8,4.4c0,1.2-0.3,2.3-0.8,3.1c-0.5,0.9-1.5,1.9-2.9,3c-1,0.8-1.6,1.4-1.8,1.8c-0.3,0.4-0.4,0.9-0.4,1.6v1H-261.4
		z M-261.9-156.6c0-0.9,0.2-1.6,0.7-2.1c0.5-0.5,1.1-0.7,2-0.7c0.8,0,1.5,0.2,2,0.7c0.5,0.5,0.7,1.2,0.7,2.1c0,0.9-0.2,1.6-0.7,2.1
		s-1.1,0.8-1.9,0.8c-0.9,0-1.5-0.2-2-0.7S-261.9-155.7-261.9-156.6z"/>
	<path class="st0" d="M-652.2-115.5h-5.4l-5.8-10.2l-2,1.6v8.6h-4.7v-24.2h4.7v11.1l1.9-2.8l6-8.2h5.2l-7.8,10.7L-652.2-115.5z"/>
	<path class="st0" d="M-634-115.5h-4.6v-10.8c0-2.7-0.9-4-2.7-4c-1.3,0-2.2,0.5-2.8,1.4c-0.6,1-0.9,2.5-0.9,4.7v8.7h-4.6v-25.7h4.6
		v5.2c0,0.4,0,1.4-0.1,2.9l-0.1,1.5h0.2c1-1.8,2.7-2.7,4.9-2.7c2,0,3.5,0.6,4.5,1.8c1,1.2,1.6,2.8,1.6,5V-115.5z"/>
	<path class="st0" d="M-618.5-115.5l-0.9-2.5h-0.1c-0.8,1.1-1.6,1.8-2.4,2.2c-0.8,0.4-1.9,0.6-3.2,0.6c-1.6,0-2.9-0.5-3.9-1.5
		c-0.9-1-1.4-2.5-1.4-4.3c0-2,0.6-3.4,1.9-4.3s3.2-1.4,5.7-1.5l3-0.1v-0.8c0-1.9-0.9-2.8-2.6-2.8c-1.4,0-3,0.4-4.8,1.3l-1.5-3.4
		c2-1.1,4.1-1.7,6.5-1.7c2.3,0,4,0.5,5.2,1.6c1.2,1.1,1.8,2.7,1.8,4.9v12.3H-618.5z M-619.8-124l-1.8,0.1c-1.3,0-2.4,0.3-3,0.8
		c-0.7,0.5-1,1.2-1,2.2c0,1.4,0.8,2.1,2.3,2.1c1.1,0,1.9-0.3,2.6-1s1-1.6,1-2.7V-124z M-625-136v-0.4c1.7-2.2,2.9-3.9,3.6-5h5.2v0.3
		c-0.5,0.6-1.4,1.4-2.7,2.6c-1.3,1.1-2.3,2-3,2.5H-625z"/>
	<path class="st0" d="M-595.2-115.5h-4.6v-10.8c0-1.3-0.2-2.3-0.6-3c-0.4-0.7-1.1-1-1.9-1c-1.2,0-2,0.5-2.6,1.4
		c-0.5,0.9-0.8,2.5-0.8,4.7v8.7h-4.6V-134h3.5l0.6,2.4h0.3c0.5-0.8,1.1-1.5,2-2s1.9-0.7,3-0.7c2.5,0,4.3,0.9,5.2,2.7h0.4
		c0.5-0.9,1.1-1.5,2-2c0.9-0.5,1.9-0.7,3-0.7c1.9,0,3.4,0.5,4.4,1.6c1,1.1,1.5,2.8,1.5,5.2v12.1h-4.7v-10.8c0-1.3-0.2-2.3-0.6-3
		c-0.4-0.7-1.1-1-1.9-1c-1.1,0-2,0.4-2.5,1.3c-0.6,0.9-0.8,2.3-0.8,4.2V-115.5z"/>
	<path class="st0" d="M-562.4-115.1c-2,0-3.6-0.8-4.7-2.4h-0.2c0.2,1.5,0.2,2.4,0.2,2.7v7.5h-4.6V-134h3.8l0.7,2.4h0.2
		c1.1-1.8,2.7-2.7,4.8-2.7c2,0,3.6,0.8,4.7,2.5c1.1,1.7,1.7,4,1.7,7c0,2-0.3,3.7-0.8,5.1c-0.5,1.5-1.3,2.6-2.3,3.3
		C-559.9-115.5-561.1-115.1-562.4-115.1z M-563.8-130.3c-1.1,0-2,0.4-2.5,1.1c-0.5,0.8-0.8,2-0.8,3.8v0.5c0,2,0.3,3.4,0.8,4.3
		s1.4,1.3,2.6,1.3c2.1,0,3.1-1.9,3.1-5.6c0-1.8-0.3-3.2-0.8-4.1C-561.9-129.8-562.7-130.3-563.8-130.3z"/>
	<path class="st0" d="M-536.4-115.5h-4.6v-10.8c0-2.7-0.9-4-2.7-4c-1.3,0-2.2,0.5-2.8,1.4c-0.6,1-0.9,2.5-0.9,4.7v8.7h-4.6v-25.7
		h4.6v5.2c0,0.4,0,1.4-0.1,2.9l-0.1,1.5h0.2c1-1.8,2.7-2.7,4.9-2.7c2,0,3.5,0.6,4.5,1.8c1,1.2,1.6,2.8,1.6,5V-115.5z"/>
	<path class="st0" d="M-520.8-115.5l-0.9-2.5h-0.1c-0.8,1.1-1.6,1.8-2.4,2.2c-0.8,0.4-1.9,0.6-3.2,0.6c-1.6,0-2.9-0.5-3.9-1.5
		c-0.9-1-1.4-2.5-1.4-4.3c0-2,0.6-3.4,1.9-4.3s3.2-1.4,5.7-1.5l3-0.1v-0.8c0-1.9-0.9-2.8-2.6-2.8c-1.4,0-3,0.4-4.8,1.3l-1.5-3.4
		c2-1.1,4.1-1.7,6.5-1.7c2.3,0,4,0.5,5.2,1.6c1.2,1.1,1.8,2.7,1.8,4.9v12.3H-520.8z M-522.2-124l-1.8,0.1c-1.3,0-2.4,0.3-3,0.8
		c-0.7,0.5-1,1.2-1,2.2c0,1.4,0.8,2.1,2.3,2.1c1.1,0,1.9-0.3,2.6-1s1-1.6,1-2.7V-124z M-527.3-136v-0.4c1.7-2.2,2.9-3.9,3.6-5h5.2
		v0.3c-0.5,0.6-1.4,1.4-2.7,2.6c-1.3,1.1-2.3,2-3,2.5H-527.3z"/>
	<path class="st0" d="M-492.8-121c0,1.9-0.6,3.3-1.8,4.3s-3,1.5-5.4,1.5c-1.2,0-2.3-0.1-3.2-0.3c-0.9-0.2-1.7-0.4-2.4-0.8v-4.2
		c0.9,0.4,1.8,0.8,2.9,1.1c1.1,0.3,2,0.4,2.9,0.4c1.7,0,2.5-0.5,2.5-1.6c0-0.4-0.1-0.7-0.3-1s-0.6-0.5-1.2-0.8
		c-0.5-0.3-1.3-0.7-2.2-1.1c-1.3-0.6-2.3-1.1-2.9-1.7c-0.6-0.5-1.1-1.1-1.3-1.7s-0.4-1.5-0.4-2.4c0-1.6,0.6-2.9,1.8-3.8
		s2.8-1.3,5-1.3c2,0,4,0.5,6,1.5l-1.4,3.6c-0.9-0.4-1.6-0.7-2.4-1s-1.5-0.4-2.3-0.4c-1.4,0-2.1,0.4-2.1,1.2c0,0.5,0.2,0.8,0.7,1.2
		c0.4,0.3,1.4,0.8,2.9,1.5c1.3,0.6,2.3,1.1,2.9,1.6c0.6,0.5,1.1,1.1,1.4,1.8C-493-122.7-492.8-121.9-492.8-121z"/>
	<path class="st0" d="M-478.4-115.5l-0.9-2.5h-0.1c-0.8,1.1-1.6,1.8-2.4,2.2c-0.8,0.4-1.9,0.6-3.2,0.6c-1.6,0-2.9-0.5-3.9-1.5
		c-0.9-1-1.4-2.5-1.4-4.3c0-2,0.6-3.4,1.9-4.3s3.2-1.4,5.7-1.5l3-0.1v-0.8c0-1.9-0.9-2.8-2.6-2.8c-1.4,0-3,0.4-4.8,1.3l-1.5-3.4
		c2-1.1,4.1-1.7,6.5-1.7c2.3,0,4,0.5,5.2,1.6c1.2,1.1,1.8,2.7,1.8,4.9v12.3H-478.4z M-479.8-124l-1.8,0.1c-1.3,0-2.4,0.3-3,0.8
		c-0.7,0.5-1,1.2-1,2.2c0,1.4,0.8,2.1,2.3,2.1c1.1,0,1.9-0.3,2.6-1s1-1.6,1-2.7V-124z M-478.3-140.1c0,1.7-0.8,2.8-2.5,3.3l-0.2,1.2
		h-2.6l-0.3-2.4c0.8-0.1,1.3-0.3,1.6-0.6c0.3-0.3,0.4-0.6,0.4-1c0-0.4-0.1-0.6-0.3-0.8s-0.5-0.3-0.8-0.3c-0.7,0-1.4,0.1-2.1,0.4
		v-2.8c0.3-0.1,0.7-0.2,1.3-0.3c0.5-0.1,1-0.1,1.4-0.1c1.4,0,2.5,0.3,3.2,0.9S-478.3-141.2-478.3-140.1z"/>
	<path class="st0" d="M-454.7-115.5h-4.6v-10.8c0-1.3-0.2-2.3-0.7-3c-0.4-0.7-1.1-1-2.1-1c-1.3,0-2.2,0.5-2.8,1.4
		c-0.6,0.9-0.9,2.5-0.9,4.7v8.7h-4.6V-134h3.5l0.6,2.4h0.3c0.5-0.9,1.2-1.6,2.1-2c0.9-0.5,1.9-0.7,3.1-0.7c2,0,3.5,0.6,4.5,1.7
		c1,1.2,1.5,2.8,1.5,5V-115.5z"/>
	<path class="st0" d="M-432.5-115.1c-2,0-3.6-0.8-4.7-2.4h-0.2c0.2,1.5,0.2,2.4,0.2,2.7v7.5h-4.6V-134h3.8l0.7,2.4h0.2
		c1.1-1.8,2.7-2.7,4.8-2.7c2,0,3.6,0.8,4.7,2.5c1.1,1.7,1.7,4,1.7,7c0,2-0.3,3.7-0.8,5.1c-0.5,1.5-1.3,2.6-2.3,3.3
		C-430-115.5-431.2-115.1-432.5-115.1z M-433.9-130.3c-1.1,0-2,0.4-2.5,1.1c-0.5,0.8-0.8,2-0.8,3.8v0.5c0,2,0.3,3.4,0.8,4.3
		s1.4,1.3,2.6,1.3c2.1,0,3.1-1.9,3.1-5.6c0-1.8-0.3-3.2-0.8-4.1C-432-129.8-432.8-130.3-433.9-130.3z"/>
	<path class="st0" d="M-406.4-115.5h-4.6v-10.8c0-2.7-0.9-4-2.7-4c-1.3,0-2.2,0.5-2.8,1.4c-0.6,1-0.9,2.5-0.9,4.7v8.7h-4.6v-25.7
		h4.6v5.2c0,0.4,0,1.4-0.1,2.9l-0.1,1.5h0.2c1-1.8,2.7-2.7,4.9-2.7c2,0,3.5,0.6,4.5,1.8c1,1.2,1.6,2.8,1.6,5V-115.5z"/>
	<path class="st0" d="M-390.9-115.5l-0.9-2.5h-0.1c-0.8,1.1-1.6,1.8-2.4,2.2c-0.8,0.4-1.9,0.6-3.2,0.6c-1.6,0-2.9-0.5-3.9-1.5
		c-0.9-1-1.4-2.5-1.4-4.3c0-2,0.6-3.4,1.9-4.3s3.2-1.4,5.7-1.5l3-0.1v-0.8c0-1.9-0.9-2.8-2.6-2.8c-1.4,0-3,0.4-4.8,1.3l-1.5-3.4
		c2-1.1,4.1-1.7,6.5-1.7c2.3,0,4,0.5,5.2,1.6c1.2,1.1,1.8,2.7,1.8,4.9v12.3H-390.9z M-389-136h-2.5c-1.1-0.8-2.2-1.7-3.2-2.7
		c-1.2,1.1-2.2,2-3.2,2.7h-2.5v-0.4c1.1-1.4,2.2-3,3.3-4.6h4.8c0.5,0.9,1.1,1.8,1.8,2.7c0.7,0.9,1.2,1.6,1.5,1.9V-136z M-392.2-124
		l-1.8,0.1c-1.3,0-2.4,0.3-3,0.8c-0.7,0.5-1,1.2-1,2.2c0,1.4,0.8,2.1,2.3,2.1c1.1,0,1.9-0.3,2.6-1s1-1.6,1-2.7V-124z M-386-142.5
		c0,1.3-0.6,2-1.9,2.3l-0.1,1h-1.9l-0.2-1.9c0.6,0,1-0.1,1.3-0.3s0.5-0.4,0.5-0.7c0-0.2-0.1-0.4-0.3-0.6c-0.2-0.2-0.5-0.2-0.9-0.2
		c-0.4,0-0.7,0.1-1.1,0.2v-2.1c0.2-0.1,0.7-0.1,1.4-0.1c1,0,1.7,0.2,2.3,0.6C-386.2-144-386-143.3-386-142.5z"/>
	<path class="st0" d="M-367.6-115.5h-4.6v-10.8c0-1.3-0.2-2.3-0.6-3c-0.4-0.7-1.1-1-1.9-1c-1.2,0-2,0.5-2.6,1.4
		c-0.5,0.9-0.8,2.5-0.8,4.7v8.7h-4.6V-134h3.5l0.6,2.4h0.3c0.5-0.8,1.1-1.5,2-2s1.9-0.7,3-0.7c2.5,0,4.3,0.9,5.2,2.7h0.4
		c0.5-0.9,1.1-1.5,2-2c0.9-0.5,1.9-0.7,3-0.7c1.9,0,3.4,0.5,4.4,1.6c1,1.1,1.5,2.8,1.5,5.2v12.1h-4.7v-10.8c0-1.3-0.2-2.3-0.6-3
		c-0.4-0.7-1.1-1-1.9-1c-1.1,0-2,0.4-2.5,1.3c-0.6,0.9-0.8,2.3-0.8,4.2V-115.5z"/>
</g>
<g>
	<path class="st1" d="M-557.1-13.7c0-0.7,0.4-1.1,1.1-1.1s1.1,0.4,1.1,1.1c0,0.4-0.1,0.6-0.3,0.8c-0.2,0.2-0.5,0.3-0.9,0.3
		C-556.7-12.6-557.1-13-557.1-13.7z M-554.9-3.2h-2.1v-8.4h2.1V-3.2z"/>
	<path class="st1" d="M-548.5-3c-0.9,0-1.6-0.4-2.1-1.1h-0.1c0.1,0.7,0.1,1.1,0.1,1.2v3.4h-2.1v-12.1h1.7l0.3,1.1h0.1
		c0.5-0.8,1.2-1.2,2.2-1.2c0.9,0,1.6,0.4,2.1,1.2c0.5,0.8,0.8,1.8,0.8,3.2c0,0.9-0.1,1.7-0.4,2.3s-0.6,1.2-1,1.5
		C-547.3-3.2-547.9-3-548.5-3z M-549.1-9.9c-0.5,0-0.9,0.2-1.1,0.5c-0.2,0.3-0.4,0.9-0.4,1.7v0.2c0,0.9,0.1,1.5,0.4,1.9
		c0.2,0.4,0.6,0.6,1.2,0.6c0.9,0,1.4-0.8,1.4-2.5c0-0.8-0.1-1.4-0.3-1.9S-548.6-9.9-549.1-9.9z"/>
	<path class="st1" d="M-539.4-11.7c0.3,0,0.5,0,0.7,0.1l-0.2,2.1c-0.2,0-0.4-0.1-0.6-0.1c-0.7,0-1.2,0.2-1.6,0.6s-0.6,0.9-0.6,1.6
		v4.3h-2.1v-8.4h1.6l0.3,1.4h0.1c0.2-0.5,0.6-0.9,1-1.1C-540.4-11.6-539.9-11.7-539.4-11.7z"/>
	<path class="st1" d="M-537.4-13.7c0-0.7,0.4-1.1,1.1-1.1s1.1,0.4,1.1,1.1c0,0.4-0.1,0.6-0.3,0.8c-0.2,0.2-0.5,0.3-0.9,0.3
		C-537-12.6-537.4-13-537.4-13.7z M-535.2-3.2h-2.1v-8.4h2.1V-3.2z"/>
	<path class="st1" d="M-529.9-3c-2.4,0-3.6-1.4-3.6-4.3c0-1.4,0.3-2.5,1-3.3c0.7-0.8,1.6-1.1,2.8-1.1c0.9,0,1.7,0.2,2.4,0.6
		l-0.6,1.8c-0.3-0.1-0.6-0.3-0.9-0.4c-0.3-0.1-0.6-0.1-0.9-0.1c-1.1,0-1.6,0.8-1.6,2.5c0,1.6,0.5,2.5,1.6,2.5c0.4,0,0.8-0.1,1.1-0.2
		c0.3-0.1,0.7-0.3,1-0.6v2c-0.3,0.2-0.7,0.4-1,0.5C-528.9-3.1-529.3-3-529.9-3z"/>
	<path class="st1" d="M-522.2-3c-1.2,0-2.2-0.4-2.9-1.1s-1.1-1.8-1.1-3.2c0-1.4,0.3-2.5,1-3.3c0.6-0.8,1.5-1.2,2.7-1.2
		c1.1,0,1.9,0.3,2.5,1c0.6,0.7,0.9,1.6,0.9,2.8v1.1h-5c0,0.7,0.2,1.2,0.5,1.5c0.3,0.4,0.8,0.5,1.4,0.5c0.5,0,0.9-0.1,1.3-0.2
		c0.4-0.1,0.8-0.3,1.3-0.5v1.8c-0.4,0.2-0.8,0.3-1.2,0.4C-521.1-3.1-521.6-3-522.2-3z M-522.5-10.1c-0.4,0-0.8,0.2-1.1,0.5
		s-0.4,0.7-0.4,1.3h3c0-0.6-0.1-1-0.4-1.3C-521.7-9.9-522.1-10.1-522.5-10.1z"/>
	<path class="st1" d="M-511.6-3.2h-2.1v-11.7h2.1V-3.2z"/>
	<path class="st1" d="M-504.5-3.2l-0.4-1.1h-0.1c-0.4,0.5-0.7,0.8-1.1,1c-0.4,0.2-0.9,0.3-1.5,0.3c-0.7,0-1.3-0.2-1.8-0.7
		c-0.4-0.5-0.6-1.1-0.6-2c0-0.9,0.3-1.5,0.9-2c0.6-0.4,1.4-0.7,2.6-0.7l1.3,0v-0.4c0-0.9-0.4-1.3-1.2-1.3c-0.6,0-1.3,0.2-2.2,0.6
		l-0.7-1.5c0.9-0.5,1.9-0.8,3-0.8c1,0,1.8,0.2,2.4,0.7c0.6,0.5,0.8,1.2,0.8,2.2v5.6H-504.5z M-506.2-12.5c-0.3-0.2-0.7-0.6-1.3-1.1
		s-1-0.9-1.3-1.2V-15h2.4c0.3,0.5,0.8,1.3,1.6,2.3v0.2H-506.2z M-505.1-7.1l-0.8,0c-0.6,0-1.1,0.1-1.4,0.4c-0.3,0.2-0.4,0.6-0.4,1
		c0,0.6,0.3,1,1,1c0.5,0,0.9-0.2,1.2-0.5s0.4-0.7,0.4-1.2V-7.1z"/>
	<path class="st1" d="M-490.4-3.2c0,1.2-0.3,2.1-1,2.7c-0.6,0.6-1.6,0.9-2.9,0.9c-1.1,0-2.1-0.2-2.9-0.5v-1.8c0.9,0.4,1.9,0.6,3,0.6
		c1.1,0,1.6-0.6,1.6-1.9v-0.2l0.1-1h-0.1c-0.5,0.8-1.2,1.2-2.2,1.2c-0.9,0-1.6-0.4-2.2-1.2c-0.5-0.8-0.8-1.8-0.8-3.2
		c0-1.4,0.3-2.5,0.8-3.2c0.5-0.8,1.3-1.2,2.2-1.2c0.9,0,1.7,0.4,2.2,1.2h0.1l0.2-1.1h1.8V-3.2z M-494-4.8c0.6,0,1-0.2,1.2-0.5
		c0.2-0.4,0.4-0.9,0.4-1.7v-0.3c0-0.9-0.1-1.5-0.4-1.9c-0.3-0.4-0.7-0.6-1.2-0.6c-1,0-1.5,0.8-1.5,2.5c0,0.8,0.1,1.5,0.4,1.9
		C-494.9-5-494.5-4.8-494-4.8z"/>
	<path class="st1" d="M-487.4-12.5c-0.3-0.2-0.7-0.6-1.3-1.1s-1-0.9-1.3-1.2V-15h2.4c0.3,0.5,0.8,1.3,1.6,2.3v0.2H-487.4z
		 M-486.1-3.2h-2.1v-8.4h2.1V-3.2z"/>
	<path class="st1" d="M-483.1-6.8v-0.6c0-0.5,0.1-0.9,0.3-1.3s0.5-0.7,1-1.1c0.5-0.4,0.8-0.7,1-0.9c0.2-0.2,0.2-0.5,0.2-0.8
		c0-0.3-0.1-0.6-0.3-0.7s-0.5-0.3-0.9-0.3c-0.7,0-1.5,0.2-2.4,0.7l-0.8-1.6c1-0.6,2.1-0.9,3.3-0.9c0.9,0,1.7,0.2,2.3,0.7
		c0.6,0.5,0.8,1.2,0.8,2c0,0.6-0.1,1-0.3,1.4c-0.2,0.4-0.7,0.9-1.3,1.4c-0.4,0.4-0.7,0.6-0.8,0.8c-0.1,0.2-0.2,0.4-0.2,0.7v0.5
		H-483.1z M-483.3-4.2c0-0.4,0.1-0.7,0.3-1c0.2-0.2,0.5-0.3,0.9-0.3c0.4,0,0.7,0.1,0.9,0.3c0.2,0.2,0.3,0.5,0.3,0.9
		c0,0.4-0.1,0.7-0.3,0.9s-0.5,0.3-0.9,0.3c-0.4,0-0.7-0.1-0.9-0.3C-483.2-3.5-483.3-3.8-483.3-4.2z"/>
	<path class="st0" d="M-552.6,7.9c-0.8,0-1.4,0.3-1.9,1c-0.4,0.7-0.7,1.6-0.7,2.8c0,2.5,0.8,3.7,2.5,3.7c0.7,0,1.6-0.2,2.6-0.6v2
		c-0.8,0.4-1.8,0.6-2.8,0.6c-1.5,0-2.6-0.5-3.4-1.5c-0.8-1-1.2-2.4-1.2-4.2c0-1.1,0.2-2.1,0.6-3s0.9-1.5,1.6-2s1.6-0.7,2.5-0.7
		c1,0,2,0.3,3,0.8l-0.7,1.9c-0.4-0.2-0.8-0.4-1.1-0.5S-552.2,7.9-552.6,7.9z"/>
	<path class="st0" d="M-541,12.9c0,1.4-0.3,2.4-1,3.2c-0.7,0.8-1.6,1.2-2.8,1.2c-0.7,0-1.4-0.2-2-0.5c-0.6-0.4-1-0.9-1.3-1.5
		c-0.3-0.7-0.5-1.4-0.5-2.3c0-1.4,0.3-2.4,1-3.2c0.7-0.8,1.6-1.1,2.8-1.1c0.7,0,1.4,0.2,2,0.5c0.6,0.4,1,0.9,1.3,1.5
		C-541.1,11.3-541,12.1-541,12.9z M-542.2,7.8h-1.1c-0.5-0.4-1-0.8-1.5-1.2c-0.5,0.5-1,0.9-1.5,1.2h-1.1V7.6c0.5-0.7,1-1.4,1.5-2.1
		h2.2c0.2,0.4,0.5,0.8,0.8,1.2c0.3,0.4,0.5,0.7,0.7,0.9V7.8z M-546.3,12.9c0,0.8,0.1,1.5,0.4,1.9c0.3,0.4,0.7,0.6,1.2,0.6
		c0.6,0,1-0.2,1.2-0.6c0.2-0.4,0.4-1.1,0.4-1.9c0-0.8-0.1-1.5-0.4-1.9c-0.2-0.4-0.7-0.6-1.2-0.6c-0.6,0-1,0.2-1.2,0.6
		S-546.3,12.1-546.3,12.9z M-540.8,4.9c0,0.6-0.3,0.9-0.9,1l0,0.5h-0.9l-0.1-0.9c0.3,0,0.5-0.1,0.6-0.1s0.2-0.2,0.2-0.3
		c0-0.1,0-0.2-0.1-0.3s-0.2-0.1-0.4-0.1c-0.2,0-0.3,0-0.5,0.1v-1c0.1,0,0.3,0,0.6,0c0.4,0,0.8,0.1,1,0.3
		C-541,4.2-540.8,4.5-540.8,4.9z"/>
	<path class="st0" d="M-532.1,17.2h-2.1v-4.9c0-0.6-0.1-1.1-0.3-1.4c-0.2-0.3-0.5-0.5-0.9-0.5c-0.6,0-1,0.2-1.3,0.6
		c-0.3,0.4-0.4,1.1-0.4,2.1v4h-2.1V8.7h1.6l0.3,1.1h0.1c0.2-0.4,0.6-0.7,1-0.9s0.9-0.3,1.4-0.3c0.9,0,1.6,0.3,2,0.8
		c0.5,0.5,0.7,1.3,0.7,2.3V17.2z"/>
	<path class="st0" d="M-523.2,17.2c0,1.2-0.3,2.1-1,2.7c-0.6,0.6-1.6,0.9-2.9,0.9c-1.1,0-2.1-0.2-2.9-0.5v-1.8
		c0.9,0.4,1.9,0.6,3,0.6c1.1,0,1.6-0.6,1.6-1.9v-0.2l0.1-1h-0.1c-0.5,0.8-1.2,1.2-2.2,1.2c-0.9,0-1.6-0.4-2.2-1.2
		c-0.5-0.8-0.8-1.8-0.8-3.2c0-1.4,0.3-2.5,0.8-3.2c0.5-0.8,1.3-1.2,2.2-1.2c0.9,0,1.7,0.4,2.2,1.2h0.1l0.2-1.1h1.8V17.2z
		 M-526.8,15.5c0.6,0,1-0.2,1.2-0.5c0.2-0.4,0.4-0.9,0.4-1.7V13c0-0.9-0.1-1.5-0.4-1.9c-0.3-0.4-0.7-0.6-1.2-0.6
		c-1,0-1.5,0.8-1.5,2.5c0,0.8,0.1,1.5,0.4,1.9C-527.7,15.3-527.3,15.5-526.8,15.5z"/>
	<path class="st0" d="M-514.1,15.5c0.4,0,0.8-0.1,1.3-0.3v1.7c-0.5,0.3-1.2,0.4-1.9,0.4c-0.8,0-1.5-0.2-1.8-0.7
		c-0.4-0.5-0.6-1.2-0.6-2.1v-4.1h-1v-1l1.2-0.8l0.6-1.8h1.3v1.8h2.2v1.7h-2.2v4.1c0,0.3,0.1,0.6,0.3,0.7
		C-514.6,15.4-514.3,15.5-514.1,15.5z"/>
	<path class="st0" d="M-504,17.2h-2.1v-4.9c0-1.2-0.4-1.8-1.2-1.8c-0.6,0-1,0.2-1.3,0.7s-0.4,1.1-0.4,2.1v4h-2.1V5.5h2.1v2.4
		c0,0.2,0,0.6,0,1.3l0,0.7h0.1c0.5-0.8,1.2-1.2,2.2-1.2c0.9,0,1.6,0.3,2.1,0.8c0.5,0.5,0.7,1.3,0.7,2.3V17.2z"/>
	<path class="st0" d="M-496.4,17.2l-0.3-1.1h-0.1c-0.2,0.4-0.5,0.7-1,0.9s-0.9,0.3-1.4,0.3c-0.9,0-1.6-0.3-2.1-0.8
		c-0.5-0.5-0.7-1.3-0.7-2.3V8.7h2.1v4.9c0,0.6,0.1,1.1,0.3,1.4c0.2,0.3,0.5,0.5,0.9,0.5c0.6,0,1-0.2,1.3-0.6
		c0.3-0.4,0.4-1.1,0.4-2.1v-4h2.1v0.9c0.3-0.1,0.6-0.3,0.8-0.7c0.2-0.4,0.3-0.8,0.3-1.4h2.1l0.1,0.2c-0.1,0.8-0.3,1.4-0.6,1.8
		c-0.2,0.4-0.6,0.8-1,1c-0.4,0.3-1,0.4-1.6,0.5v6.1H-496.4z"/>
	<path class="st0" d="M-484.1,12.9c0,1.4-0.3,2.4-1,3.2c-0.7,0.8-1.6,1.2-2.8,1.2c-0.7,0-1.4-0.2-2-0.5c-0.6-0.4-1-0.9-1.3-1.5
		c-0.3-0.7-0.5-1.4-0.5-2.3c0-1.4,0.3-2.4,1-3.2c0.7-0.8,1.6-1.1,2.8-1.1c0.5,0,1,0.1,1.5,0.3c0.5,0.2,0.9,0.4,1.2,0.8
		c0.7-0.2,1-0.9,1-2.1h2.1l0.1,0.2c-0.1,0.7-0.3,1.2-0.5,1.6c-0.2,0.4-0.5,0.7-0.8,1s-0.7,0.5-1.2,0.6
		C-484.2,11.5-484.1,12.2-484.1,12.9z M-489.4,12.9c0,0.8,0.1,1.5,0.4,1.9c0.3,0.4,0.7,0.6,1.2,0.6c0.6,0,1-0.2,1.2-0.6
		c0.2-0.4,0.4-1.1,0.4-1.9c0-0.8-0.1-1.5-0.4-1.9c-0.2-0.4-0.7-0.6-1.2-0.6c-0.6,0-1,0.2-1.2,0.6S-489.4,12.1-489.4,12.9z"/>
	<path class="st0" d="M-474.4,17.2h-2.1v-4.9c0-0.6-0.1-1.1-0.3-1.4c-0.2-0.3-0.5-0.5-0.9-0.5c-0.6,0-1,0.2-1.3,0.6
		c-0.3,0.4-0.4,1.1-0.4,2.1v4h-2.1V8.7h1.6l0.3,1.1h0.1c0.2-0.4,0.6-0.7,1-0.9s0.9-0.3,1.4-0.3c0.9,0,1.6,0.3,2,0.8
		c0.5,0.5,0.7,1.3,0.7,2.3V17.2z"/>
	<path class="st0" d="M-465.5,17.2c0,1.2-0.3,2.1-1,2.7c-0.6,0.6-1.6,0.9-2.9,0.9c-1.1,0-2.1-0.2-2.9-0.5v-1.8
		c0.9,0.4,1.9,0.6,3,0.6c1.1,0,1.6-0.6,1.6-1.9v-0.2l0.1-1h-0.1c-0.5,0.8-1.2,1.2-2.2,1.2c-0.9,0-1.6-0.4-2.2-1.2
		c-0.5-0.8-0.8-1.8-0.8-3.2c0-1.4,0.3-2.5,0.8-3.2c0.5-0.8,1.3-1.2,2.2-1.2c0.9,0,1.7,0.4,2.2,1.2h0.1l0.2-1.1h1.8V17.2z M-469,15.5
		c0.6,0,1-0.2,1.2-0.5c0.2-0.4,0.4-0.9,0.4-1.7V13c0-0.9-0.1-1.5-0.4-1.9c-0.3-0.4-0.7-0.6-1.2-0.6c-1,0-1.5,0.8-1.5,2.5
		c0,0.8,0.1,1.5,0.4,1.9C-469.9,15.3-469.5,15.5-469,15.5z"/>
	<path class="st0" d="M-452.7,17.2h-2.1v-4.9c0-0.6-0.1-1.1-0.3-1.4s-0.5-0.5-0.9-0.5c-0.5,0-0.9,0.2-1.2,0.6s-0.4,1.1-0.4,2.1v4
		h-2.1V8.7h1.6l0.3,1.1h0.1c0.2-0.4,0.5-0.7,0.9-0.9c0.4-0.2,0.8-0.3,1.3-0.3c1.2,0,1.9,0.4,2.3,1.2h0.2c0.2-0.4,0.5-0.7,0.9-0.9
		c0.4-0.2,0.9-0.3,1.4-0.3c0.9,0,1.5,0.2,2,0.7c0.4,0.5,0.7,1.3,0.7,2.3v5.5h-2.1v-4.9c0-0.6-0.1-1.1-0.3-1.4s-0.5-0.5-0.9-0.5
		c-0.5,0-0.9,0.2-1.2,0.6c-0.3,0.4-0.4,1-0.4,1.9V17.2z"/>
	<path class="st0" d="M-440.8,17.2l-0.4-1.1h-0.1c-0.4,0.5-0.7,0.8-1.1,1c-0.4,0.2-0.9,0.3-1.5,0.3c-0.7,0-1.3-0.2-1.8-0.7
		c-0.4-0.5-0.6-1.1-0.6-2c0-0.9,0.3-1.5,0.9-2c0.6-0.4,1.4-0.7,2.6-0.7l1.3,0v-0.4c0-0.9-0.4-1.3-1.2-1.3c-0.6,0-1.3,0.2-2.2,0.6
		l-0.7-1.5c0.9-0.5,1.9-0.8,3-0.8c1,0,1.8,0.2,2.4,0.7c0.6,0.5,0.8,1.2,0.8,2.2v5.6H-440.8z M-441.4,13.3l-0.8,0
		c-0.6,0-1.1,0.1-1.4,0.4c-0.3,0.2-0.4,0.6-0.4,1c0,0.6,0.3,1,1,1c0.5,0,0.9-0.2,1.2-0.5s0.4-0.7,0.4-1.2V13.3z M-443.9,19.3
		c0-0.8,0.4-1.1,1.1-1.1s1.1,0.4,1.1,1.1c0,0.4-0.1,0.6-0.3,0.8c-0.2,0.2-0.5,0.3-0.9,0.3C-443.5,20.4-443.9,20-443.9,19.3z"/>
	<path class="st0" d="M-437.2,6.6c0-0.7,0.4-1.1,1.1-1.1s1.1,0.4,1.1,1.1c0,0.4-0.1,0.6-0.3,0.8c-0.2,0.2-0.5,0.3-0.9,0.3
		C-436.9,7.7-437.2,7.3-437.2,6.6z M-435,17.2h-2.1V8.7h2.1V17.2z"/>
	<path class="st0" d="M-426.7,17.3c-0.9,0-1.6-0.4-2.1-1.1c-0.5-0.7-0.8-1.7-0.8-3c0-1.3,0.3-2.3,0.8-3.1s1.3-1.1,2.2-1.1
		c1,0,1.7,0.4,2.2,1.2h0.1c-0.1-0.7-0.2-1.2-0.2-1.7V8.2h-2.2V6.7h2.2V5.5h2.1v1.2h1.1v1.5h-1.1v9h-1.6l-0.4-1.1h-0.1
		C-425,16.9-425.7,17.3-426.7,17.3z M-426,15.5c0.5,0,0.9-0.2,1.2-0.5c0.3-0.3,0.4-0.8,0.4-1.6v-0.2c0-0.8-0.1-1.4-0.4-1.8
		c-0.3-0.4-0.7-0.5-1.2-0.5c-0.5,0-0.8,0.2-1.1,0.6c-0.3,0.4-0.4,1-0.4,1.7c0,0.7,0.1,1.3,0.4,1.7S-426.5,15.5-426,15.5z"/>
	<path class="st0" d="M-420.1,6.6c0-0.7,0.4-1.1,1.1-1.1s1.1,0.4,1.1,1.1c0,0.4-0.1,0.6-0.3,0.8c-0.2,0.2-0.5,0.3-0.9,0.3
		C-419.7,7.7-420.1,7.3-420.1,6.6z M-417.9,17.2h-2.1V8.7h2.1V17.2z"/>
	<path class="st0" d="M-412.2,17.3c-1.2,0-2.2-0.4-2.9-1.1s-1.1-1.8-1.1-3.2c0-1.4,0.3-2.5,1-3.3c0.6-0.8,1.5-1.2,2.7-1.2
		c1.1,0,1.9,0.3,2.5,1c0.6,0.7,0.9,1.6,0.9,2.8v1.1h-5c0,0.7,0.2,1.2,0.5,1.5c0.3,0.4,0.8,0.5,1.4,0.5c0.5,0,0.9-0.1,1.3-0.2
		c0.4-0.1,0.8-0.3,1.3-0.5v1.8c-0.4,0.2-0.8,0.3-1.2,0.4C-411,17.3-411.5,17.3-412.2,17.3z M-411,7.8c-0.7-0.5-1.3-0.9-1.6-1.3
		c-0.4,0.4-0.9,0.8-1.6,1.3h-1.4V7.6c0.9-0.9,1.5-1.7,1.8-2.3h2.5c0.1,0.3,0.4,0.6,0.7,1.1c0.4,0.4,0.7,0.8,1,1.2v0.2H-411z
		 M-412.4,10.2c-0.4,0-0.8,0.2-1.1,0.5s-0.4,0.7-0.4,1.3h3c0-0.6-0.1-1-0.4-1.3C-411.6,10.4-412,10.2-412.4,10.2z M-413.7,19.3
		c0-0.8,0.4-1.1,1.1-1.1s1.1,0.4,1.1,1.1c0,0.4-0.1,0.6-0.3,0.8s-0.5,0.3-0.9,0.3C-413.3,20.4-413.7,20-413.7,19.3z"/>
	<path class="st0" d="M-400.2,17.2h-2.1v-4.9c0-0.6-0.1-1.1-0.3-1.4c-0.2-0.3-0.5-0.5-0.9-0.5c-0.6,0-1,0.2-1.3,0.6
		c-0.3,0.4-0.4,1.1-0.4,2.1v4h-2.1V8.7h1.6l0.3,1.1h0.1c0.2-0.4,0.6-0.7,1-0.9s0.9-0.3,1.4-0.3c0.9,0,1.6,0.3,2,0.8
		c0.5,0.5,0.7,1.3,0.7,2.3V17.2z"/>
	<path class="st0" d="M-391.1,15.5c0.4,0,0.8-0.1,1.3-0.3v1.7c-0.5,0.3-1.2,0.4-1.9,0.4c-0.8,0-1.5-0.2-1.8-0.7
		c-0.4-0.5-0.6-1.2-0.6-2.1v-4.1h-1v-1l1.2-0.8l0.6-1.8h1.3v1.8h2.2v1.7h-2.2v4.1c0,0.3,0.1,0.6,0.3,0.7
		C-391.6,15.4-391.3,15.5-391.1,15.5z"/>
	<path class="st0" d="M-382.7,17.2l-0.3-1.1h-0.1c-0.2,0.4-0.5,0.7-1,0.9s-0.9,0.3-1.4,0.3c-0.9,0-1.6-0.3-2.1-0.8
		c-0.5-0.5-0.7-1.3-0.7-2.3V8.7h2.1v4.9c0,0.6,0.1,1.1,0.3,1.4c0.2,0.3,0.5,0.5,0.9,0.5c0.6,0,1-0.2,1.3-0.6
		c0.3-0.4,0.4-1.1,0.4-2.1v-4h2.1v0.9c0.3-0.1,0.6-0.3,0.8-0.7c0.2-0.4,0.3-0.8,0.3-1.4h2.1l0.1,0.2c-0.1,0.8-0.3,1.4-0.6,1.8
		c-0.2,0.4-0.6,0.8-1,1c-0.4,0.3-1,0.4-1.6,0.5v6.1H-382.7z M-382.9,6c0,0.8-0.4,1.3-1.1,1.5l-0.1,0.5h-1.2l-0.2-1.1
		c0.3-0.1,0.6-0.2,0.7-0.3c0.1-0.1,0.2-0.3,0.2-0.5c0-0.2,0-0.3-0.1-0.4c-0.1-0.1-0.2-0.1-0.4-0.1c-0.3,0-0.6,0.1-1,0.2V4.5
		c0.1,0,0.3-0.1,0.6-0.1c0.2,0,0.5,0,0.6,0c0.6,0,1.1,0.1,1.4,0.4C-383,5.1-382.9,5.5-382.9,6z"/>
	<path class="st0" d="M-371.7,12.6l0.9-1.3l2.2-2.6h2.4l-3.1,3.6l3.3,4.8h-2.4l-2.2-3.4l-0.9,0.8v2.6h-2.1V5.5h2.1v5.2L-371.7,12.6
		L-371.7,12.6z"/>
	<path class="st0" d="M-357.8,17.2h-2.1v-4.9c0-1.2-0.4-1.8-1.2-1.8c-0.6,0-1,0.2-1.3,0.7s-0.4,1.1-0.4,2.1v4h-2.1V5.5h2.1v2.4
		c0,0.2,0,0.6,0,1.3l0,0.7h0.1c0.5-0.8,1.2-1.2,2.2-1.2c0.9,0,1.6,0.3,2.1,0.8c0.5,0.5,0.7,1.3,0.7,2.3V17.2z"/>
	<path class="st0" d="M-350.8,17.2l-0.4-1.1h-0.1c-0.4,0.5-0.7,0.8-1.1,1c-0.4,0.2-0.9,0.3-1.5,0.3c-0.7,0-1.3-0.2-1.8-0.7
		c-0.4-0.5-0.6-1.1-0.6-2c0-0.9,0.3-1.5,0.9-2c0.6-0.4,1.4-0.7,2.6-0.7l1.3,0v-0.4c0-0.9-0.4-1.3-1.2-1.3c-0.6,0-1.3,0.2-2.2,0.6
		l-0.7-1.5c0.9-0.5,1.9-0.8,3-0.8c1,0,1.8,0.2,2.4,0.7c0.6,0.5,0.8,1.2,0.8,2.2v5.6H-350.8z M-351.4,13.3l-0.8,0
		c-0.6,0-1.1,0.1-1.4,0.4c-0.3,0.2-0.4,0.6-0.4,1c0,0.6,0.3,1,1,1c0.5,0,0.9-0.2,1.2-0.5s0.4-0.7,0.4-1.2V13.3z M-353.7,7.8V7.6
		c0.8-1,1.3-1.8,1.6-2.3h2.4v0.2c-0.2,0.3-0.6,0.6-1.2,1.2s-1,0.9-1.4,1.1H-353.7z"/>
	<path class="st0" d="M-340.2,17.2h-2.1v-4.9c0-0.6-0.1-1.1-0.3-1.4s-0.5-0.5-0.9-0.5c-0.5,0-0.9,0.2-1.2,0.6s-0.4,1.1-0.4,2.1v4
		h-2.1V8.7h1.6l0.3,1.1h0.1c0.2-0.4,0.5-0.7,0.9-0.9c0.4-0.2,0.8-0.3,1.3-0.3c1.2,0,1.9,0.4,2.3,1.2h0.2c0.2-0.4,0.5-0.7,0.9-0.9
		c0.4-0.2,0.9-0.3,1.4-0.3c0.9,0,1.5,0.2,2,0.7c0.4,0.5,0.7,1.3,0.7,2.3v5.5h-2.1v-4.9c0-0.6-0.1-1.1-0.3-1.4s-0.5-0.5-0.9-0.5
		c-0.5,0-0.9,0.2-1.2,0.6c-0.3,0.4-0.4,1-0.4,1.9V17.2z"/>
	<path class="st0" d="M-325.3,17.3c-0.9,0-1.6-0.4-2.1-1.1h-0.1c0.1,0.7,0.1,1.1,0.1,1.2v3.4h-2.1V8.7h1.7l0.3,1.1h0.1
		c0.5-0.8,1.2-1.2,2.2-1.2c0.9,0,1.6,0.4,2.1,1.2c0.5,0.8,0.8,1.8,0.8,3.2c0,0.9-0.1,1.7-0.4,2.3s-0.6,1.2-1,1.5
		C-324.2,17.1-324.7,17.3-325.3,17.3z M-325.9,10.4c-0.5,0-0.9,0.2-1.1,0.5c-0.2,0.3-0.4,0.9-0.4,1.7v0.2c0,0.9,0.1,1.5,0.4,1.9
		c0.2,0.4,0.6,0.6,1.2,0.6c0.9,0,1.4-0.8,1.4-2.5c0-0.8-0.1-1.4-0.3-1.9S-325.4,10.4-325.9,10.4z"/>
	<path class="st0" d="M-313.5,17.2h-2.1v-4.9c0-1.2-0.4-1.8-1.2-1.8c-0.6,0-1,0.2-1.3,0.7s-0.4,1.1-0.4,2.1v4h-2.1V5.5h2.1v2.4
		c0,0.2,0,0.6,0,1.3l0,0.7h0.1c0.5-0.8,1.2-1.2,2.2-1.2c0.9,0,1.6,0.3,2.1,0.8c0.5,0.5,0.7,1.3,0.7,2.3V17.2z"/>
	<path class="st0" d="M-306.4,17.2l-0.4-1.1h-0.1c-0.4,0.5-0.7,0.8-1.1,1c-0.4,0.2-0.9,0.3-1.5,0.3c-0.7,0-1.3-0.2-1.8-0.7
		c-0.4-0.5-0.6-1.1-0.6-2c0-0.9,0.3-1.5,0.9-2c0.6-0.4,1.4-0.7,2.6-0.7l1.3,0v-0.4c0-0.9-0.4-1.3-1.2-1.3c-0.6,0-1.3,0.2-2.2,0.6
		l-0.7-1.5c0.9-0.5,1.9-0.8,3-0.8c1,0,1.8,0.2,2.4,0.7c0.6,0.5,0.8,1.2,0.8,2.2v5.6H-306.4z M-307,13.3l-0.8,0
		c-0.6,0-1.1,0.1-1.4,0.4c-0.3,0.2-0.4,0.6-0.4,1c0,0.6,0.3,1,1,1c0.5,0,0.9-0.2,1.2-0.5s0.4-0.7,0.4-1.2V13.3z M-309.3,7.8V7.6
		c0.8-1,1.3-1.8,1.6-2.3h2.4v0.2c-0.2,0.3-0.6,0.6-1.2,1.2s-1,0.9-1.4,1.1H-309.3z"/>
	<path class="st0" d="M-293.7,14.7c0,0.9-0.3,1.5-0.8,2c-0.6,0.5-1.4,0.7-2.5,0.7c-0.6,0-1,0-1.4-0.1c-0.4-0.1-0.8-0.2-1.1-0.4v-1.9
		c0.4,0.2,0.8,0.4,1.3,0.5s0.9,0.2,1.3,0.2c0.8,0,1.1-0.2,1.1-0.7c0-0.2-0.1-0.3-0.2-0.4c-0.1-0.1-0.3-0.2-0.5-0.4
		c-0.2-0.1-0.6-0.3-1-0.5c-0.6-0.3-1-0.5-1.3-0.8c-0.3-0.2-0.5-0.5-0.6-0.8c-0.1-0.3-0.2-0.7-0.2-1.1c0-0.7,0.3-1.3,0.8-1.7
		c0.5-0.4,1.3-0.6,2.3-0.6c0.9,0,1.8,0.2,2.7,0.7l-0.6,1.7c-0.4-0.2-0.7-0.3-1.1-0.4c-0.3-0.1-0.7-0.2-1-0.2c-0.6,0-0.9,0.2-0.9,0.5
		c0,0.2,0.1,0.4,0.3,0.5c0.2,0.2,0.6,0.4,1.3,0.7c0.6,0.3,1,0.5,1.3,0.7c0.3,0.2,0.5,0.5,0.6,0.8C-293.7,13.9-293.7,14.2-293.7,14.7
		z"/>
	<path class="st0" d="M-287.1,17.2l-0.4-1.1h-0.1c-0.4,0.5-0.7,0.8-1.1,1c-0.4,0.2-0.9,0.3-1.5,0.3c-0.7,0-1.3-0.2-1.8-0.7
		c-0.4-0.5-0.6-1.1-0.6-2c0-0.9,0.3-1.5,0.9-2c0.6-0.4,1.4-0.7,2.6-0.7l1.3,0v-0.4c0-0.9-0.4-1.3-1.2-1.3c-0.6,0-1.3,0.2-2.2,0.6
		l-0.7-1.5c0.9-0.5,1.9-0.8,3-0.8c1,0,1.8,0.2,2.4,0.7c0.6,0.5,0.8,1.2,0.8,2.2v5.6H-287.1z M-287.8,13.3l-0.8,0
		c-0.6,0-1.1,0.1-1.4,0.4c-0.3,0.2-0.4,0.6-0.4,1c0,0.6,0.3,1,1,1c0.5,0,0.9-0.2,1.2-0.5s0.4-0.7,0.4-1.2V13.3z M-287.1,6
		c0,0.8-0.4,1.3-1.1,1.5l-0.1,0.5h-1.2l-0.2-1.1c0.3-0.1,0.6-0.2,0.7-0.3c0.1-0.1,0.2-0.3,0.2-0.5c0-0.2,0-0.3-0.1-0.4
		c-0.1-0.1-0.2-0.1-0.4-0.1c-0.3,0-0.6,0.1-1,0.2V4.5c0.1,0,0.3-0.1,0.6-0.1c0.2,0,0.5,0,0.6,0c0.6,0,1.1,0.1,1.4,0.4
		C-287.3,5.1-287.1,5.5-287.1,6z"/>
	<path class="st0" d="M-276.4,17.2h-2.1v-4.9c0-0.6-0.1-1.1-0.3-1.4c-0.2-0.3-0.5-0.5-0.9-0.5c-0.6,0-1,0.2-1.3,0.6
		c-0.3,0.4-0.4,1.1-0.4,2.1v4h-2.1V8.7h1.6l0.3,1.1h0.1c0.2-0.4,0.6-0.7,1-0.9s0.9-0.3,1.4-0.3c0.9,0,1.6,0.3,2,0.8
		c0.5,0.5,0.7,1.3,0.7,2.3V17.2z"/>
	<path class="st0" d="M-266.3,17.3c-0.9,0-1.6-0.4-2.1-1.1h-0.1c0.1,0.7,0.1,1.1,0.1,1.2v3.4h-2.1V8.7h1.7l0.3,1.1h0.1
		c0.5-0.8,1.2-1.2,2.2-1.2c0.9,0,1.6,0.4,2.1,1.2c0.5,0.8,0.8,1.8,0.8,3.2c0,0.9-0.1,1.7-0.4,2.3s-0.6,1.2-1,1.5
		C-265.1,17.1-265.7,17.3-266.3,17.3z M-266.9,10.4c-0.5,0-0.9,0.2-1.1,0.5c-0.2,0.3-0.4,0.9-0.4,1.7v0.2c0,0.9,0.1,1.5,0.4,1.9
		c0.2,0.4,0.6,0.6,1.2,0.6c0.9,0,1.4-0.8,1.4-2.5c0-0.8-0.1-1.4-0.3-1.9S-266.4,10.4-266.9,10.4z"/>
	<path class="st0" d="M-254.4,17.2h-2.1v-4.9c0-1.2-0.4-1.8-1.2-1.8c-0.6,0-1,0.2-1.3,0.7s-0.4,1.1-0.4,2.1v4h-2.1V5.5h2.1v2.4
		c0,0.2,0,0.6,0,1.3l0,0.7h0.1c0.5-0.8,1.2-1.2,2.2-1.2c0.9,0,1.6,0.3,2.1,0.8c0.5,0.5,0.7,1.3,0.7,2.3V17.2z"/>
	<path class="st0" d="M-247.3,17.2l-0.4-1.1h-0.1c-0.4,0.5-0.7,0.8-1.1,1c-0.4,0.2-0.9,0.3-1.5,0.3c-0.7,0-1.3-0.2-1.8-0.7
		c-0.4-0.5-0.6-1.1-0.6-2c0-0.9,0.3-1.5,0.9-2c0.6-0.4,1.4-0.7,2.6-0.7l1.3,0v-0.4c0-0.9-0.4-1.3-1.2-1.3c-0.6,0-1.3,0.2-2.2,0.6
		l-0.7-1.5c0.9-0.5,1.9-0.8,3-0.8c1,0,1.8,0.2,2.4,0.7c0.6,0.5,0.8,1.2,0.8,2.2v5.6H-247.3z M-246.5,7.8h-1.1
		c-0.5-0.4-1-0.8-1.5-1.2c-0.5,0.5-1,0.9-1.5,1.2h-1.1V7.6c0.5-0.7,1-1.4,1.5-2.1h2.2c0.2,0.4,0.5,0.8,0.8,1.2
		c0.3,0.4,0.5,0.7,0.7,0.9V7.8z M-248,13.3l-0.8,0c-0.6,0-1.1,0.1-1.4,0.4c-0.3,0.2-0.4,0.6-0.4,1c0,0.6,0.3,1,1,1
		c0.5,0,0.9-0.2,1.2-0.5s0.4-0.7,0.4-1.2V13.3z M-245.1,4.9c0,0.6-0.3,0.9-0.9,1l0,0.5h-0.9l-0.1-0.9c0.3,0,0.5-0.1,0.6-0.1
		c0.2-0.1,0.2-0.2,0.2-0.3c0-0.1,0-0.2-0.1-0.3c-0.1-0.1-0.2-0.1-0.4-0.1c-0.2,0-0.3,0-0.5,0.1v-1c0.1,0,0.3,0,0.6,0
		c0.4,0,0.8,0.1,1,0.3C-245.3,4.2-245.1,4.5-245.1,4.9z"/>
	<path class="st0" d="M-236.8,17.2h-2.1v-4.9c0-0.6-0.1-1.1-0.3-1.4s-0.5-0.5-0.9-0.5c-0.5,0-0.9,0.2-1.2,0.6s-0.4,1.1-0.4,2.1v4
		h-2.1V8.7h1.6l0.3,1.1h0.1c0.2-0.4,0.5-0.7,0.9-0.9c0.4-0.2,0.8-0.3,1.3-0.3c1.2,0,1.9,0.4,2.3,1.2h0.2c0.2-0.4,0.5-0.7,0.9-0.9
		c0.4-0.2,0.9-0.3,1.4-0.3c0.9,0,1.5,0.2,2,0.7c0.4,0.5,0.7,1.3,0.7,2.3v5.5h-2.1v-4.9c0-0.6-0.1-1.1-0.3-1.4s-0.5-0.5-0.9-0.5
		c-0.5,0-0.9,0.2-1.2,0.6c-0.3,0.4-0.4,1-0.4,1.9V17.2z"/>
	<path class="st0" d="M-227.7,15.5c-0.2,1-0.6,2.2-1.2,3.6h-1.5c0.3-1.3,0.5-2.6,0.7-3.8h1.9L-227.7,15.5z"/>
	<path class="st0" d="M-553.9,37.6c-2.4,0-3.6-1.4-3.6-4.3c0-1.4,0.3-2.5,1-3.3c0.7-0.8,1.6-1.1,2.8-1.1c0.9,0,1.7,0.2,2.4,0.6
		l-0.6,1.8c-0.3-0.1-0.6-0.3-0.9-0.4c-0.3-0.1-0.6-0.1-0.9-0.1c-1.1,0-1.6,0.8-1.6,2.5c0,1.6,0.5,2.5,1.6,2.5c0.4,0,0.8-0.1,1.1-0.2
		c0.3-0.1,0.7-0.3,1-0.6v2c-0.3,0.2-0.7,0.4-1,0.5C-552.9,37.6-553.4,37.6-553.9,37.6z"/>
	<path class="st0" d="M-542.6,37.5h-2.1v-4.9c0-1.2-0.4-1.8-1.2-1.8c-0.6,0-1,0.2-1.3,0.7s-0.4,1.1-0.4,2.1v4h-2.1V25.8h2.1v2.4
		c0,0.2,0,0.6,0,1.3l0,0.7h0.1c0.5-0.8,1.2-1.2,2.2-1.2c0.9,0,1.6,0.3,2.1,0.8c0.5,0.5,0.7,1.3,0.7,2.3V37.5z"/>
	<path class="st0" d="M-533.4,33.3c0,1.4-0.3,2.4-1,3.2c-0.7,0.8-1.6,1.2-2.8,1.2c-0.7,0-1.4-0.2-2-0.5c-0.6-0.4-1-0.9-1.3-1.5
		c-0.3-0.7-0.5-1.4-0.5-2.3c0-1.4,0.3-2.4,1-3.2c0.7-0.8,1.6-1.1,2.8-1.1c0.7,0,1.4,0.2,2,0.5c0.6,0.4,1,0.9,1.3,1.5
		C-533.6,31.6-533.4,32.4-533.4,33.3z M-538.8,33.3c0,0.8,0.1,1.5,0.4,1.9c0.3,0.4,0.7,0.6,1.2,0.6c0.6,0,1-0.2,1.2-0.6
		c0.2-0.4,0.4-1.1,0.4-1.9c0-0.8-0.1-1.5-0.4-1.9c-0.2-0.4-0.7-0.6-1.2-0.6c-0.6,0-1,0.2-1.2,0.6S-538.8,32.4-538.8,33.3z"/>
	<path class="st0" d="M-523.8,37.6c-0.9,0-1.6-0.4-2.1-1.1h-0.1c0.1,0.7,0.1,1.1,0.1,1.2v3.4h-2.1V29.1h1.7l0.3,1.1h0.1
		c0.5-0.8,1.2-1.2,2.2-1.2c0.9,0,1.6,0.4,2.1,1.2c0.5,0.8,0.8,1.8,0.8,3.2c0,0.9-0.1,1.7-0.4,2.3s-0.6,1.2-1,1.5
		C-522.6,37.5-523.2,37.6-523.8,37.6z M-524.4,30.7c-0.5,0-0.9,0.2-1.1,0.5c-0.2,0.3-0.4,0.9-0.4,1.7v0.2c0,0.9,0.1,1.5,0.4,1.9
		c0.2,0.4,0.6,0.6,1.2,0.6c0.9,0,1.4-0.8,1.4-2.5c0-0.8-0.1-1.4-0.3-1.9S-523.9,30.7-524.4,30.7z"/>
	<path class="st0" d="M-511.9,37.5h-2.1v-4.9c0-1.2-0.4-1.8-1.2-1.8c-0.6,0-1,0.2-1.3,0.7s-0.4,1.1-0.4,2.1v4h-2.1V25.8h2.1v2.4
		c0,0.2,0,0.6,0,1.3l0,0.7h0.1c0.5-0.8,1.2-1.2,2.2-1.2c0.9,0,1.6,0.3,2.1,0.8c0.5,0.5,0.7,1.3,0.7,2.3V37.5z"/>
	<path class="st0" d="M-506.3,37.6c-1.2,0-2.2-0.4-2.9-1.1s-1.1-1.8-1.1-3.2c0-1.4,0.3-2.5,1-3.3c0.6-0.8,1.5-1.2,2.7-1.2
		c1.1,0,1.9,0.3,2.5,1c0.6,0.7,0.9,1.6,0.9,2.8v1.1h-5c0,0.7,0.2,1.2,0.5,1.5c0.3,0.4,0.8,0.5,1.4,0.5c0.5,0,0.9-0.1,1.3-0.2
		c0.4-0.1,0.8-0.3,1.3-0.5V37c-0.4,0.2-0.8,0.3-1.2,0.4C-505.2,37.6-505.7,37.6-506.3,37.6z M-506.6,30.5c-0.4,0-0.8,0.2-1.1,0.5
		s-0.4,0.7-0.4,1.3h3c0-0.6-0.1-1-0.4-1.3C-505.8,30.7-506.1,30.5-506.6,30.5z M-507.8,28.1v-0.2c0.8-1,1.3-1.8,1.6-2.3h2.4v0.2
		c-0.2,0.3-0.6,0.6-1.2,1.2s-1,0.9-1.4,1.1H-507.8z"/>
	<path class="st0" d="M-497.2,37.6c-0.9,0-1.6-0.4-2.1-1.1h-0.1c0.1,0.7,0.1,1.1,0.1,1.2v3.4h-2.1V29.1h1.7l0.3,1.1h0.1
		c0.5-0.8,1.2-1.2,2.2-1.2c0.9,0,1.6,0.4,2.1,1.2c0.5,0.8,0.8,1.8,0.8,3.2c0,0.9-0.1,1.7-0.4,2.3s-0.6,1.2-1,1.5
		C-496,37.5-496.6,37.6-497.2,37.6z M-497.8,30.7c-0.5,0-0.9,0.2-1.1,0.5c-0.2,0.3-0.4,0.9-0.4,1.7v0.2c0,0.9,0.1,1.5,0.4,1.9
		c0.2,0.4,0.6,0.6,1.2,0.6c0.9,0,1.4-0.8,1.4-2.5c0-0.8-0.1-1.4-0.3-1.9S-497.3,30.7-497.8,30.7z"/>
	<path class="st0" d="M-484.5,28.9c0.9,0,1.6,0.4,2.1,1.2c0.5,0.8,0.8,1.8,0.8,3.2c0,1.4-0.3,2.5-0.8,3.2c-0.5,0.8-1.3,1.1-2.2,1.1
		c-0.9,0-1.6-0.4-2.1-1.1h-0.1l-0.4,0.9h-1.6V25.8h2.1v2.7c0,0.3,0,0.9-0.1,1.7h0.1C-486.2,29.3-485.4,28.9-484.5,28.9z
		 M-485.2,30.7c-0.5,0-0.9,0.2-1.1,0.5c-0.2,0.3-0.4,0.9-0.4,1.7v0.2c0,0.9,0.1,1.5,0.4,1.9c0.2,0.4,0.6,0.6,1.2,0.6
		c0.4,0,0.8-0.2,1-0.7c0.3-0.4,0.4-1.1,0.4-1.9c0-0.8-0.1-1.4-0.4-1.9C-484.4,31-484.7,30.7-485.2,30.7z"/>
	<path class="st0" d="M-474.9,37.5l-0.4-1.1h-0.1c-0.4,0.5-0.7,0.8-1.1,1c-0.4,0.2-0.9,0.3-1.5,0.3c-0.7,0-1.3-0.2-1.8-0.7
		c-0.4-0.5-0.6-1.1-0.6-2c0-0.9,0.3-1.5,0.9-2c0.6-0.4,1.4-0.7,2.6-0.7l1.3,0v-0.4c0-0.9-0.4-1.3-1.2-1.3c-0.6,0-1.3,0.2-2.2,0.6
		l-0.7-1.5c0.9-0.5,1.9-0.8,3-0.8c1,0,1.8,0.2,2.4,0.7c0.6,0.5,0.8,1.2,0.8,2.2v5.6H-474.9z M-475.5,33.6l-0.8,0
		c-0.6,0-1.1,0.1-1.4,0.4c-0.3,0.2-0.4,0.6-0.4,1c0,0.6,0.3,1,1,1c0.5,0,0.9-0.2,1.2-0.5s0.4-0.7,0.4-1.2V33.6z M-478,39.6
		c0-0.8,0.4-1.1,1.1-1.1s1.1,0.4,1.1,1.1c0,0.4-0.1,0.6-0.3,0.8c-0.2,0.2-0.5,0.3-0.9,0.3C-477.7,40.7-478,40.3-478,39.6z"/>
	<path class="st0" d="M-464.1,37.5h-2.1v-4.9c0-0.6-0.1-1.1-0.3-1.4c-0.2-0.3-0.5-0.5-0.9-0.5c-0.6,0-1,0.2-1.3,0.6
		c-0.3,0.4-0.4,1.1-0.4,2.1v4h-2.1v-8.4h1.6l0.3,1.1h0.1c0.2-0.4,0.6-0.7,1-0.9s0.9-0.3,1.4-0.3c0.9,0,1.6,0.3,2,0.8
		c0.5,0.5,0.7,1.3,0.7,2.3V37.5z"/>
	<path class="st0" d="M-455,35.8c0.4,0,0.8-0.1,1.3-0.3v1.7c-0.5,0.3-1.2,0.4-1.9,0.4c-0.8,0-1.5-0.2-1.8-0.7
		c-0.4-0.5-0.6-1.2-0.6-2.1v-4.1h-1v-1l1.2-0.8l0.6-1.8h1.3v1.8h2.2v1.7h-2.2v4.1c0,0.3,0.1,0.6,0.3,0.7
		C-455.5,35.7-455.3,35.8-455,35.8z"/>
	<path class="st0" d="M-452.2,26.9c0-0.7,0.4-1.1,1.1-1.1s1.1,0.4,1.1,1.1c0,0.4-0.1,0.6-0.3,0.8c-0.2,0.2-0.5,0.3-0.9,0.3
		C-451.9,28-452.2,27.7-452.2,26.9z M-450,37.5h-2.1v-8.4h2.1V37.5z"/>
	<path class="st0" d="M-444.3,37.6c-1.2,0-2.2-0.4-2.9-1.1s-1.1-1.8-1.1-3.2c0-1.4,0.3-2.5,1-3.3c0.6-0.8,1.5-1.2,2.7-1.2
		c1.1,0,1.9,0.3,2.5,1c0.6,0.7,0.9,1.6,0.9,2.8v1.1h-5c0,0.7,0.2,1.2,0.5,1.5c0.3,0.4,0.8,0.5,1.4,0.5c0.5,0,0.9-0.1,1.3-0.2
		c0.4-0.1,0.8-0.3,1.3-0.5V37c-0.4,0.2-0.8,0.3-1.2,0.4C-443.2,37.6-443.7,37.6-444.3,37.6z M-442.1,28.1h-1.1
		c-0.5-0.4-1-0.8-1.5-1.2c-0.5,0.5-1,0.9-1.5,1.2h-1.1v-0.2c0.5-0.7,1-1.4,1.5-2.1h2.2c0.2,0.4,0.5,0.8,0.8,1.2
		c0.3,0.4,0.5,0.7,0.7,0.9V28.1z M-444.6,30.5c-0.4,0-0.8,0.2-1.1,0.5s-0.4,0.7-0.4,1.3h3c0-0.6-0.1-1-0.4-1.3
		C-443.8,30.7-444.2,30.5-444.6,30.5z M-442.7,26.5c0.4-0.5,0.7-1,1-1.5h1.7v0.2c-0.3,0.4-0.8,1-1.6,1.5h-1.1V26.5z"/>
	<path class="st0" d="M-435.2,37.6c-0.9,0-1.6-0.4-2.1-1.1h-0.1c0.1,0.7,0.1,1.1,0.1,1.2v3.4h-2.1V29.1h1.7l0.3,1.1h0.1
		c0.5-0.8,1.2-1.2,2.2-1.2c0.9,0,1.6,0.4,2.1,1.2c0.5,0.8,0.8,1.8,0.8,3.2c0,0.9-0.1,1.7-0.4,2.3s-0.6,1.2-1,1.5
		C-434.1,37.5-434.6,37.6-435.2,37.6z M-435.9,30.7c-0.5,0-0.9,0.2-1.1,0.5c-0.2,0.3-0.4,0.9-0.4,1.7v0.2c0,0.9,0.1,1.5,0.4,1.9
		c0.2,0.4,0.6,0.6,1.2,0.6c0.9,0,1.4-0.8,1.4-2.5c0-0.8-0.1-1.4-0.3-1.9S-435.4,30.7-435.9,30.7z"/>
	<path class="st0" d="M-423.7,37.6c-2.4,0-3.6-1.4-3.6-4.3c0-1.4,0.3-2.5,1-3.3c0.7-0.8,1.6-1.1,2.8-1.1c0.9,0,1.7,0.2,2.4,0.6
		l-0.6,1.8c-0.3-0.1-0.6-0.3-0.9-0.4c-0.3-0.1-0.6-0.1-0.9-0.1c-1.1,0-1.6,0.8-1.6,2.5c0,1.6,0.5,2.5,1.6,2.5c0.4,0,0.8-0.1,1.1-0.2
		c0.3-0.1,0.7-0.3,1-0.6v2c-0.3,0.2-0.7,0.4-1,0.5C-422.7,37.6-423.2,37.6-423.7,37.6z"/>
	<path class="st0" d="M-414.7,37.5l-0.4-1.1h-0.1c-0.4,0.5-0.7,0.8-1.1,1c-0.4,0.2-0.9,0.3-1.5,0.3c-0.7,0-1.3-0.2-1.8-0.7
		c-0.4-0.5-0.6-1.1-0.6-2c0-0.9,0.3-1.5,0.9-2c0.6-0.4,1.4-0.7,2.6-0.7l1.3,0v-0.4c0-0.9-0.4-1.3-1.2-1.3c-0.6,0-1.3,0.2-2.2,0.6
		l-0.7-1.5c0.9-0.5,1.9-0.8,3-0.8c1,0,1.8,0.2,2.4,0.7c0.6,0.5,0.8,1.2,0.8,2.2v5.6H-414.7z M-414.8,28.2c-0.7-0.5-1.3-0.9-1.6-1.3
		c-0.4,0.4-0.9,0.8-1.6,1.3h-1.4V28c0.9-0.9,1.5-1.7,1.8-2.3h2.5c0.1,0.3,0.4,0.6,0.7,1.1c0.4,0.4,0.7,0.8,1,1.2v0.2H-414.8z
		 M-415.3,33.6l-0.8,0c-0.6,0-1.1,0.1-1.4,0.4c-0.3,0.2-0.4,0.6-0.4,1c0,0.6,0.3,1,1,1c0.5,0,0.9-0.2,1.2-0.5s0.4-0.7,0.4-1.2V33.6z
		 M-417.7,39.6c0-0.8,0.4-1.1,1.1-1.1s1.1,0.4,1.1,1.1c0,0.4-0.1,0.6-0.3,0.8c-0.2,0.2-0.5,0.3-0.9,0.3
		C-417.3,40.7-417.7,40.3-417.7,39.6z"/>
	<path class="st0" d="M-403.9,37.5h-2.1v-4.9c0-0.6-0.1-1.1-0.3-1.4c-0.2-0.3-0.5-0.5-0.9-0.5c-0.6,0-1,0.2-1.3,0.6
		c-0.3,0.4-0.4,1.1-0.4,2.1v4h-2.1v-8.4h1.6l0.3,1.1h0.1c0.2-0.4,0.6-0.7,1-0.9s0.9-0.3,1.4-0.3c0.9,0,1.6,0.3,2,0.8
		c0.5,0.5,0.7,1.3,0.7,2.3V37.5z"/>
	<path class="st0" d="M-396.2,37.5l-2.9-8.4h2.2l1.5,4.8c0.2,0.5,0.3,1.1,0.3,1.7h0.1c0-0.6,0.1-1.1,0.3-1.7l1.5-4.8h2.2l-2.9,8.4
		H-396.2z"/>
	<path class="st0" d="M-383,33.3c0,1.4-0.3,2.4-1,3.2c-0.7,0.8-1.6,1.2-2.8,1.2c-0.7,0-1.4-0.2-2-0.5c-0.6-0.4-1-0.9-1.3-1.5
		c-0.3-0.7-0.5-1.4-0.5-2.3c0-1.4,0.3-2.4,1-3.2c0.7-0.8,1.6-1.1,2.8-1.1c0.5,0,1,0.1,1.5,0.3c0.5,0.2,0.9,0.4,1.2,0.8
		c0.7-0.2,1-0.9,1-2.1h2.1l0.1,0.2c-0.1,0.7-0.3,1.2-0.5,1.6c-0.2,0.4-0.5,0.7-0.8,1s-0.7,0.5-1.2,0.6
		C-383.1,31.8-383,32.5-383,33.3z M-388.3,33.3c0,0.8,0.1,1.5,0.4,1.9c0.3,0.4,0.7,0.6,1.2,0.6c0.6,0,1-0.2,1.2-0.6
		c0.2-0.4,0.4-1.1,0.4-1.9c0-0.8-0.1-1.5-0.4-1.9c-0.2-0.4-0.7-0.6-1.2-0.6c-0.6,0-1,0.2-1.2,0.6S-388.3,32.4-388.3,33.3z
		 M-387.9,28.1v-0.2c0.8-1,1.3-1.8,1.6-2.3h2.4v0.2c-0.2,0.3-0.6,0.6-1.2,1.2s-1,0.9-1.4,1.1H-387.9z"/>
	<path class="st0" d="M-380.5,26.9c0-0.7,0.4-1.1,1.1-1.1s1.1,0.4,1.1,1.1c0,0.4-0.1,0.6-0.3,0.8c-0.2,0.2-0.5,0.3-0.9,0.3
		C-380.1,28-380.5,27.7-380.5,26.9z M-378.3,37.5h-2.1v-8.4h2.1V37.5z"/>
	<path class="st0" d="M-369.2,37.6c-2.4,0-3.6-1.4-3.6-4.3c0-1.4,0.3-2.5,1-3.3c0.7-0.8,1.6-1.1,2.8-1.1c0.9,0,1.7,0.2,2.4,0.6
		l-0.6,1.8c-0.3-0.1-0.6-0.3-0.9-0.4c-0.3-0.1-0.6-0.1-0.9-0.1c-1.1,0-1.6,0.8-1.6,2.5c0,1.6,0.5,2.5,1.6,2.5c0.4,0,0.8-0.1,1.1-0.2
		c0.3-0.1,0.7-0.3,1-0.6v2c-0.3,0.2-0.7,0.4-1,0.5C-368.3,37.6-368.7,37.6-369.2,37.6z"/>
	<path class="st0" d="M-360.2,37.5l-0.4-1.1h-0.1c-0.4,0.5-0.7,0.8-1.1,1c-0.4,0.2-0.9,0.3-1.5,0.3c-0.7,0-1.3-0.2-1.8-0.7
		c-0.4-0.5-0.6-1.1-0.6-2c0-0.9,0.3-1.5,0.9-2c0.6-0.4,1.4-0.7,2.6-0.7l1.3,0v-0.4c0-0.9-0.4-1.3-1.2-1.3c-0.6,0-1.3,0.2-2.2,0.6
		l-0.7-1.5c0.9-0.5,1.9-0.8,3-0.8c1,0,1.8,0.2,2.4,0.7c0.6,0.5,0.8,1.2,0.8,2.2v5.6H-360.2z M-360.8,33.6l-0.8,0
		c-0.6,0-1.1,0.1-1.4,0.4c-0.3,0.2-0.4,0.6-0.4,1c0,0.6,0.3,1,1,1c0.5,0,0.9-0.2,1.2-0.5s0.4-0.7,0.4-1.2V33.6z M-363.2,28.1v-0.2
		c0.8-1,1.3-1.8,1.6-2.3h2.4v0.2c-0.2,0.3-0.6,0.6-1.2,1.2s-1,0.9-1.4,1.1H-363.2z"/>
	<path class="st0" d="M-353.4,37.6c-2.4,0-3.6-1.4-3.6-4.3c0-1.4,0.3-2.5,1-3.3c0.7-0.8,1.6-1.1,2.8-1.1c0.9,0,1.7,0.2,2.4,0.6
		l-0.6,1.8c-0.3-0.1-0.6-0.3-0.9-0.4c-0.3-0.1-0.6-0.1-0.9-0.1c-1.1,0-1.6,0.8-1.6,2.5c0,1.6,0.5,2.5,1.6,2.5c0.4,0,0.8-0.1,1.1-0.2
		c0.3-0.1,0.7-0.3,1-0.6v2c-0.3,0.2-0.7,0.4-1,0.5C-352.5,37.6-352.9,37.6-353.4,37.6z"/>
	<path class="st0" d="M-342.4,35.8c0.4,0,0.8-0.1,1.3-0.3v1.7c-0.5,0.3-1.2,0.4-1.9,0.4c-0.8,0-1.5-0.2-1.8-0.7
		c-0.4-0.5-0.6-1.2-0.6-2.1v-4.1h-1v-1l1.2-0.8l0.6-1.8h1.3v1.8h2.2v1.7h-2.2v4.1c0,0.3,0.1,0.6,0.3,0.7
		C-342.9,35.7-342.6,35.8-342.4,35.8z"/>
	<path class="st0" d="M-332.3,37.5h-2.1v-4.9c0-1.2-0.4-1.8-1.2-1.8c-0.6,0-1,0.2-1.3,0.7s-0.4,1.1-0.4,2.1v4h-2.1V25.8h2.1v2.4
		c0,0.2,0,0.6,0,1.3l0,0.7h0.1c0.5-0.8,1.2-1.2,2.2-1.2c0.9,0,1.6,0.3,2.1,0.8c0.5,0.5,0.7,1.3,0.7,2.3V37.5z"/>
	<path class="st0" d="M-324.7,37.5l-0.3-1.1h-0.1c-0.2,0.4-0.5,0.7-1,0.9s-0.9,0.3-1.4,0.3c-0.9,0-1.6-0.3-2.1-0.8
		c-0.5-0.5-0.7-1.3-0.7-2.3v-5.5h2.1V34c0,0.6,0.1,1.1,0.3,1.4c0.2,0.3,0.5,0.5,0.9,0.5c0.6,0,1-0.2,1.3-0.6
		c0.3-0.4,0.4-1.1,0.4-2.1v-4h2.1V30c0.3-0.1,0.6-0.3,0.8-0.7c0.2-0.4,0.3-0.8,0.3-1.4h2.1l0.1,0.2c-0.1,0.8-0.3,1.4-0.6,1.8
		c-0.2,0.4-0.6,0.8-1,1c-0.4,0.3-1,0.4-1.6,0.5v6.1H-324.7z"/>
	<path class="st0" d="M-312.4,33.3c0,1.4-0.3,2.4-1,3.2c-0.7,0.8-1.6,1.2-2.8,1.2c-0.7,0-1.4-0.2-2-0.5c-0.6-0.4-1-0.9-1.3-1.5
		c-0.3-0.7-0.5-1.4-0.5-2.3c0-1.4,0.3-2.4,1-3.2c0.7-0.8,1.6-1.1,2.8-1.1c0.5,0,1,0.1,1.5,0.3c0.5,0.2,0.9,0.4,1.2,0.8
		c0.7-0.2,1-0.9,1-2.1h2.1l0.1,0.2c-0.1,0.7-0.3,1.2-0.5,1.6c-0.2,0.4-0.5,0.7-0.8,1s-0.7,0.5-1.2,0.6
		C-312.5,31.8-312.4,32.5-312.4,33.3z M-317.7,33.3c0,0.8,0.1,1.5,0.4,1.9c0.3,0.4,0.7,0.6,1.2,0.6c0.6,0,1-0.2,1.2-0.6
		c0.2-0.4,0.4-1.1,0.4-1.9c0-0.8-0.1-1.5-0.4-1.9c-0.2-0.4-0.7-0.6-1.2-0.6c-0.6,0-1,0.2-1.2,0.6S-317.7,32.4-317.7,33.3z"/>
	<path class="st0" d="M-302.7,37.5h-2.1v-4.9c0-0.6-0.1-1.1-0.3-1.4c-0.2-0.3-0.5-0.5-0.9-0.5c-0.6,0-1,0.2-1.3,0.6
		c-0.3,0.4-0.4,1.1-0.4,2.1v4h-2.1v-8.4h1.6l0.3,1.1h0.1c0.2-0.4,0.6-0.7,1-0.9s0.9-0.3,1.4-0.3c0.9,0,1.6,0.3,2,0.8
		c0.5,0.5,0.7,1.3,0.7,2.3V37.5z"/>
	<path class="st0" d="M-293.8,37.5c0,1.2-0.3,2.1-1,2.7c-0.6,0.6-1.6,0.9-2.9,0.9c-1.1,0-2.1-0.2-2.9-0.5v-1.8
		c0.9,0.4,1.9,0.6,3,0.6c1.1,0,1.6-0.6,1.6-1.9v-0.2l0.1-1h-0.1c-0.5,0.8-1.2,1.2-2.2,1.2c-0.9,0-1.6-0.4-2.2-1.2
		c-0.5-0.8-0.8-1.8-0.8-3.2c0-1.4,0.3-2.5,0.8-3.2c0.5-0.8,1.3-1.2,2.2-1.2c0.9,0,1.7,0.4,2.2,1.2h0.1l0.2-1.1h1.8V37.5z
		 M-297.3,35.8c0.6,0,1-0.2,1.2-0.5c0.2-0.4,0.4-0.9,0.4-1.7v-0.3c0-0.9-0.1-1.5-0.4-1.9c-0.3-0.4-0.7-0.6-1.2-0.6
		c-1,0-1.5,0.8-1.5,2.5c0,0.8,0.1,1.5,0.4,1.9C-298.2,35.6-297.8,35.8-297.3,35.8z"/>
	<path class="st0" d="M-280.7,37.5h-2.1v-4.9c0-1.2-0.4-1.8-1.2-1.8c-0.6,0-1,0.2-1.3,0.7s-0.4,1.1-0.4,2.1v4h-2.1V25.8h2.1v2.4
		c0,0.2,0,0.6,0,1.3l0,0.7h0.1c0.5-0.8,1.2-1.2,2.2-1.2c0.9,0,1.6,0.3,2.1,0.8c0.5,0.5,0.7,1.3,0.7,2.3V37.5z"/>
	<path class="st0" d="M-278.7,26.9c0-0.7,0.4-1.1,1.1-1.1s1.1,0.4,1.1,1.1c0,0.4-0.1,0.6-0.3,0.8c-0.2,0.2-0.5,0.3-0.9,0.3
		C-278.3,28-278.7,27.7-278.7,26.9z M-276.5,37.5h-2.1v-8.4h2.1V37.5z"/>
	<path class="st0" d="M-270.8,37.6c-1.2,0-2.2-0.4-2.9-1.1s-1.1-1.8-1.1-3.2c0-1.4,0.3-2.5,1-3.3c0.6-0.8,1.5-1.2,2.7-1.2
		c1.1,0,1.9,0.3,2.5,1c0.6,0.7,0.9,1.6,0.9,2.8v1.1h-5c0,0.7,0.2,1.2,0.5,1.5c0.3,0.4,0.8,0.5,1.4,0.5c0.5,0,0.9-0.1,1.3-0.2
		c0.4-0.1,0.8-0.3,1.3-0.5V37c-0.4,0.2-0.8,0.3-1.2,0.4C-269.6,37.6-270.2,37.6-270.8,37.6z M-269.6,28.1c-0.7-0.5-1.3-0.9-1.6-1.3
		c-0.4,0.4-0.9,0.8-1.6,1.3h-1.4v-0.2c0.9-0.9,1.5-1.7,1.8-2.3h2.5c0.1,0.3,0.4,0.6,0.7,1.1c0.4,0.4,0.7,0.8,1,1.2v0.2H-269.6z
		 M-271.1,30.5c-0.4,0-0.8,0.2-1.1,0.5s-0.4,0.7-0.4,1.3h3c0-0.6-0.1-1-0.4-1.3C-270.3,30.7-270.6,30.5-271.1,30.5z M-272.3,39.6
		c0-0.8,0.4-1.1,1.1-1.1s1.1,0.4,1.1,1.1c0,0.4-0.1,0.6-0.3,0.8s-0.5,0.3-0.9,0.3C-272,40.7-272.3,40.3-272.3,39.6z"/>
	<path class="st0" d="M-260.4,37.5l-0.3-1.1h-0.1c-0.2,0.4-0.5,0.7-1,0.9c-0.4,0.2-0.9,0.3-1.4,0.3c-0.9,0-1.6-0.3-2.1-0.8
		c-0.5-0.5-0.7-1.3-0.7-2.3v-5.5h2.1V34c0,0.6,0.1,1.1,0.3,1.4c0.2,0.3,0.5,0.5,0.9,0.5c0.6,0,1-0.2,1.3-0.6
		c0.3-0.4,0.4-1.1,0.4-2.1v-4h2.1v8.4H-260.4z"/>
	<path class="st0" d="M-254.5,35.9c-0.2,1-0.6,2.2-1.2,3.6h-1.5c0.3-1.3,0.5-2.6,0.7-3.8h1.9L-254.5,35.9z"/>
	<path class="st0" d="M-554.6,58c-0.9,0-1.6-0.4-2.1-1.2c-0.5-0.8-0.8-1.8-0.8-3.2c0-1.4,0.3-2.5,0.8-3.2c0.5-0.8,1.3-1.2,2.2-1.2
		c1,0,1.7,0.4,2.2,1.2h0.1c-0.1-0.6-0.2-1.2-0.2-1.7v-2.7h2.1v11.7h-1.6l-0.4-1.1h-0.1C-552.9,57.5-553.6,58-554.6,58z M-553.8,56.1
		c0.5,0,0.9-0.2,1.2-0.5c0.3-0.3,0.4-0.9,0.4-1.7v-0.2c0-0.9-0.1-1.5-0.4-1.9c-0.3-0.4-0.7-0.6-1.2-0.6c-0.5,0-0.8,0.2-1.1,0.7
		c-0.3,0.4-0.4,1.1-0.4,1.9c0,0.8,0.1,1.4,0.4,1.9C-554.7,55.9-554.3,56.1-553.8,56.1z"/>
	<path class="st0" d="M-541.1,53.6c0,1.4-0.3,2.4-1,3.2c-0.7,0.8-1.6,1.2-2.8,1.2c-0.7,0-1.4-0.2-2-0.5c-0.6-0.4-1-0.9-1.3-1.5
		c-0.3-0.7-0.5-1.4-0.5-2.3c0-1.4,0.3-2.4,1-3.2c0.7-0.8,1.6-1.1,2.8-1.1c0.7,0,1.4,0.2,2,0.5c0.6,0.4,1,0.9,1.3,1.5
		C-541.2,51.9-541.1,52.7-541.1,53.6z M-546.4,53.6c0,0.8,0.1,1.5,0.4,1.9c0.3,0.4,0.7,0.6,1.2,0.6c0.6,0,1-0.2,1.2-0.6
		c0.2-0.4,0.4-1.1,0.4-1.9c0-0.8-0.1-1.5-0.4-1.9c-0.2-0.4-0.7-0.6-1.2-0.6c-0.6,0-1,0.2-1.2,0.6S-546.4,52.7-546.4,53.6z"/>
	<path class="st0" d="M-534.4,57.8l-0.4-1.1h-0.1c-0.4,0.5-0.7,0.8-1.1,1c-0.4,0.2-0.9,0.3-1.5,0.3c-0.7,0-1.3-0.2-1.8-0.7
		c-0.4-0.5-0.6-1.1-0.6-2c0-0.9,0.3-1.5,0.9-2c0.6-0.4,1.4-0.7,2.6-0.7l1.3,0v-0.4c0-0.9-0.4-1.3-1.2-1.3c-0.6,0-1.3,0.2-2.2,0.6
		l-0.7-1.5c0.9-0.5,1.9-0.8,3-0.8c1,0,1.8,0.2,2.4,0.7c0.6,0.5,0.8,1.2,0.8,2.2v5.6H-534.4z M-535,53.9l-0.8,0
		c-0.6,0-1.1,0.1-1.4,0.4c-0.3,0.2-0.4,0.6-0.4,1c0,0.6,0.3,1,1,1c0.5,0,0.9-0.2,1.2-0.5s0.4-0.7,0.4-1.2V53.9z"/>
	<path class="st0" d="M-523.6,57.8h-2.1v-4.9c0-0.6-0.1-1.1-0.3-1.4c-0.2-0.3-0.5-0.5-0.9-0.5c-0.6,0-1,0.2-1.3,0.6
		c-0.3,0.4-0.4,1.1-0.4,2.1v4h-2.1v-8.4h1.6l0.3,1.1h0.1c0.2-0.4,0.6-0.7,1-0.9s0.9-0.3,1.4-0.3c0.9,0,1.6,0.3,2,0.8
		c0.5,0.5,0.7,1.3,0.7,2.3V57.8z"/>
	<path class="st0" d="M-514.3,57.8h-2.1v-4.9c0-1.2-0.4-1.8-1.2-1.8c-0.6,0-1,0.2-1.3,0.7s-0.4,1.1-0.4,2.1v4h-2.1V46.1h2.1v2.4
		c0,0.2,0,0.6,0,1.3l0,0.7h0.1c0.5-0.8,1.2-1.2,2.2-1.2c0.9,0,1.6,0.3,2.1,0.8c0.5,0.5,0.7,1.3,0.7,2.3V57.8z"/>
	<path class="st0" d="M-501.4,57.8h-2.1v-4.9c0-0.6-0.1-1.1-0.3-1.4c-0.2-0.3-0.5-0.5-0.9-0.5c-0.6,0-1,0.2-1.3,0.6
		c-0.3,0.4-0.4,1.1-0.4,2.1v4h-2.1v-8.4h1.6l0.3,1.1h0.1c0.2-0.4,0.6-0.7,1-0.9s0.9-0.3,1.4-0.3c0.9,0,1.6,0.3,2,0.8
		c0.5,0.5,0.7,1.3,0.7,2.3V57.8z"/>
	<path class="st0" d="M-492.4,57.8c0,1.2-0.3,2.1-1,2.7c-0.6,0.6-1.6,0.9-2.9,0.9c-1.1,0-2.1-0.2-2.9-0.5v-1.8
		c0.9,0.4,1.9,0.6,3,0.6c1.1,0,1.6-0.6,1.6-1.9v-0.2l0.1-1h-0.1c-0.5,0.8-1.2,1.2-2.2,1.2c-0.9,0-1.6-0.4-2.2-1.2
		c-0.5-0.8-0.8-1.8-0.8-3.2c0-1.4,0.3-2.5,0.8-3.2c0.5-0.8,1.3-1.2,2.2-1.2c0.9,0,1.7,0.4,2.2,1.2h0.1l0.2-1.1h1.8V57.8z M-496,56.2
		c0.6,0,1-0.2,1.2-0.5c0.2-0.4,0.4-0.9,0.4-1.7v-0.3c0-0.9-0.1-1.5-0.4-1.9c-0.3-0.4-0.7-0.6-1.2-0.6c-1,0-1.5,0.8-1.5,2.5
		c0,0.8,0.1,1.5,0.4,1.9C-496.9,55.9-496.5,56.2-496,56.2z"/>
	<path class="st0" d="M-483.1,57.8h-2.1v-4.9c0-1.2-0.4-1.8-1.2-1.8c-0.6,0-1,0.2-1.3,0.7s-0.4,1.1-0.4,2.1v4h-2.1V46.1h2.1v2.4
		c0,0.2,0,0.6,0,1.3l0,0.7h0.1c0.5-0.8,1.2-1.2,2.2-1.2c0.9,0,1.6,0.3,2.1,0.8c0.5,0.5,0.7,1.3,0.7,2.3V57.8z"/>
	<path class="st0" d="M-481,47.2c0-0.7,0.4-1.1,1.1-1.1s1.1,0.4,1.1,1.1c0,0.4-0.1,0.6-0.3,0.8c-0.2,0.2-0.5,0.3-0.9,0.3
		C-480.6,48.4-481,48-481,47.2z M-478.8,57.8h-2.1v-8.4h2.1V57.8z"/>
	<path class="st0" d="M-473.1,58c-1.2,0-2.2-0.4-2.9-1.1s-1.1-1.8-1.1-3.2c0-1.4,0.3-2.5,1-3.3c0.6-0.8,1.5-1.2,2.7-1.2
		c1.1,0,1.9,0.3,2.5,1c0.6,0.7,0.9,1.6,0.9,2.8v1.1h-5c0,0.7,0.2,1.2,0.5,1.5c0.3,0.4,0.8,0.5,1.4,0.5c0.5,0,0.9-0.1,1.3-0.2
		c0.4-0.1,0.8-0.3,1.3-0.5v1.8c-0.4,0.2-0.8,0.3-1.2,0.4C-472,57.9-472.5,58-473.1,58z M-471.9,48.5c-0.7-0.5-1.3-0.9-1.6-1.3
		c-0.4,0.4-0.9,0.8-1.6,1.3h-1.4v-0.2c0.9-0.9,1.5-1.7,1.8-2.3h2.5c0.1,0.3,0.4,0.6,0.7,1.1c0.4,0.4,0.7,0.8,1,1.2v0.2H-471.9z
		 M-473.4,50.9c-0.4,0-0.8,0.2-1.1,0.5s-0.4,0.7-0.4,1.3h3c0-0.6-0.1-1-0.4-1.3C-472.6,51-473,50.9-473.4,50.9z M-474.7,59.9
		c0-0.8,0.4-1.1,1.1-1.1s1.1,0.4,1.1,1.1c0,0.4-0.1,0.6-0.3,0.8s-0.5,0.3-0.9,0.3C-474.3,61-474.7,60.6-474.7,59.9z"/>
	<path class="st0" d="M-464,58c-0.9,0-1.6-0.4-2.1-1.1h-0.1c0.1,0.7,0.1,1.1,0.1,1.2v3.4h-2.1V49.4h1.7l0.3,1.1h0.1
		c0.5-0.8,1.2-1.2,2.2-1.2c0.9,0,1.6,0.4,2.1,1.2c0.5,0.8,0.8,1.8,0.8,3.2c0,0.9-0.1,1.7-0.4,2.3s-0.6,1.2-1,1.5
		C-462.9,57.8-463.4,58-464,58z M-464.6,51.1c-0.5,0-0.9,0.2-1.1,0.5c-0.2,0.3-0.4,0.9-0.4,1.7v0.2c0,0.9,0.1,1.5,0.4,1.9
		c0.2,0.4,0.6,0.6,1.2,0.6c0.9,0,1.4-0.8,1.4-2.5c0-0.8-0.1-1.4-0.3-1.9S-464.1,51.1-464.6,51.1z"/>
	<path class="st0" d="M-452.4,56.1c0.4,0,0.8-0.1,1.3-0.3v1.7c-0.5,0.3-1.2,0.4-1.9,0.4c-0.8,0-1.5-0.2-1.8-0.7
		c-0.4-0.5-0.6-1.2-0.6-2.1v-4.1h-1v-1l1.2-0.8l0.6-1.8h1.3v1.8h2.2v1.7h-2.2v4.1c0,0.3,0.1,0.6,0.3,0.7
		C-452.9,56-452.6,56.1-452.4,56.1z"/>
	<path class="st0" d="M-445.2,49.2c0.3,0,0.5,0,0.7,0.1l-0.2,2.1c-0.2,0-0.4-0.1-0.6-0.1c-0.7,0-1.2,0.2-1.6,0.6s-0.6,0.9-0.6,1.6
		v4.3h-2.1v-8.4h1.6l0.3,1.4h0.1c0.2-0.5,0.6-0.9,1-1.1C-446.1,49.4-445.7,49.2-445.2,49.2z"/>
	<path class="st0" d="M-436.2,53.6c0,1.4-0.3,2.4-1,3.2c-0.7,0.8-1.6,1.2-2.8,1.2c-0.7,0-1.4-0.2-2-0.5c-0.6-0.4-1-0.9-1.3-1.5
		c-0.3-0.7-0.5-1.4-0.5-2.3c0-1.4,0.3-2.4,1-3.2c0.7-0.8,1.6-1.1,2.8-1.1c0.7,0,1.4,0.2,2,0.5c0.6,0.4,1,0.9,1.3,1.5
		C-436.3,51.9-436.2,52.7-436.2,53.6z M-441.5,53.6c0,0.8,0.1,1.5,0.4,1.9c0.3,0.4,0.7,0.6,1.2,0.6c0.6,0,1-0.2,1.2-0.6
		c0.2-0.4,0.4-1.1,0.4-1.9c0-0.8-0.1-1.5-0.4-1.9c-0.2-0.4-0.7-0.6-1.2-0.6c-0.6,0-1,0.2-1.2,0.6S-441.5,52.7-441.5,53.6z"/>
	<path class="st0" d="M-427.3,57.8h-2.1v-4.9c0-0.6-0.1-1.1-0.3-1.4c-0.2-0.3-0.5-0.5-0.9-0.5c-0.6,0-1,0.2-1.3,0.6
		c-0.3,0.4-0.4,1.1-0.4,2.1v4h-2.1v-8.4h1.6l0.3,1.1h0.1c0.2-0.4,0.6-0.7,1-0.9s0.9-0.3,1.4-0.3c0.9,0,1.6,0.3,2,0.8
		c0.5,0.5,0.7,1.3,0.7,2.3V57.8z"/>
	<path class="st0" d="M-418.4,57.8c0,1.2-0.3,2.1-1,2.7c-0.6,0.6-1.6,0.9-2.9,0.9c-1.1,0-2.1-0.2-2.9-0.5v-1.8
		c0.9,0.4,1.9,0.6,3,0.6c1.1,0,1.6-0.6,1.6-1.9v-0.2l0.1-1h-0.1c-0.5,0.8-1.2,1.2-2.2,1.2c-0.9,0-1.6-0.4-2.2-1.2
		c-0.5-0.8-0.8-1.8-0.8-3.2c0-1.4,0.3-2.5,0.8-3.2c0.5-0.8,1.3-1.2,2.2-1.2c0.9,0,1.7,0.4,2.2,1.2h0.1l0.2-1.1h1.8V57.8z
		 M-421.9,56.2c0.6,0,1-0.2,1.2-0.5c0.2-0.4,0.4-0.9,0.4-1.7v-0.3c0-0.9-0.1-1.5-0.4-1.9c-0.3-0.4-0.7-0.6-1.2-0.6
		c-1,0-1.5,0.8-1.5,2.5c0,0.8,0.1,1.5,0.4,1.9C-422.8,55.9-422.5,56.2-421.9,56.2z"/>
	<path class="st0" d="M-410.7,57.8l-2.9-8.4h2.2l1.5,4.8c0.2,0.5,0.3,1.1,0.3,1.7h0.1c0-0.6,0.1-1.1,0.3-1.7l1.5-4.8h2.2l-2.9,8.4
		H-410.7z"/>
	<path class="st0" d="M-399.5,57.8l-0.4-1.1h-0.1c-0.4,0.5-0.7,0.8-1.1,1c-0.4,0.2-0.9,0.3-1.5,0.3c-0.7,0-1.3-0.2-1.8-0.7
		c-0.4-0.5-0.6-1.1-0.6-2c0-0.9,0.3-1.5,0.9-2c0.6-0.4,1.4-0.7,2.6-0.7l1.3,0v-0.4c0-0.9-0.4-1.3-1.2-1.3c-0.6,0-1.3,0.2-2.2,0.6
		l-0.7-1.5c0.9-0.5,1.9-0.8,3-0.8c1,0,1.8,0.2,2.4,0.7c0.6,0.5,0.8,1.2,0.8,2.2v5.6H-399.5z M-401.3,48.5c-0.3-0.2-0.7-0.6-1.3-1.1
		s-1-0.9-1.3-1.2V46h2.4c0.3,0.5,0.8,1.3,1.6,2.3v0.2H-401.3z M-400.2,53.9l-0.8,0c-0.6,0-1.1,0.1-1.4,0.4c-0.3,0.2-0.4,0.6-0.4,1
		c0,0.6,0.3,1,1,1c0.5,0,0.9-0.2,1.2-0.5s0.4-0.7,0.4-1.2V53.9z"/>
	<path class="st0" d="M-385.1,57.8h-2.1v-4.9c0-0.6-0.1-1.1-0.3-1.4c-0.2-0.3-0.5-0.5-0.9-0.5c-0.6,0-1,0.2-1.3,0.6
		c-0.3,0.4-0.4,1.1-0.4,2.1v4h-2.1v-8.4h1.6l0.3,1.1h0.1c0.2-0.4,0.6-0.7,1-0.9s0.9-0.3,1.4-0.3c0.9,0,1.6,0.3,2,0.8
		c0.5,0.5,0.7,1.3,0.7,2.3V57.8z"/>
	<path class="st0" d="M-376.2,57.8c0,1.2-0.3,2.1-1,2.7c-0.6,0.6-1.6,0.9-2.9,0.9c-1.1,0-2.1-0.2-2.9-0.5v-1.8
		c0.9,0.4,1.9,0.6,3,0.6c1.1,0,1.6-0.6,1.6-1.9v-0.2l0.1-1h-0.1c-0.5,0.8-1.2,1.2-2.2,1.2c-0.9,0-1.6-0.4-2.2-1.2
		c-0.5-0.8-0.8-1.8-0.8-3.2c0-1.4,0.3-2.5,0.8-3.2c0.5-0.8,1.3-1.2,2.2-1.2c0.9,0,1.7,0.4,2.2,1.2h0.1l0.2-1.1h1.8V57.8z
		 M-379.7,56.2c0.6,0,1-0.2,1.2-0.5c0.2-0.4,0.4-0.9,0.4-1.7v-0.3c0-0.9-0.1-1.5-0.4-1.9c-0.3-0.4-0.7-0.6-1.2-0.6
		c-1,0-1.5,0.8-1.5,2.5c0,0.8,0.1,1.5,0.4,1.9C-380.6,55.9-380.3,56.2-379.7,56.2z"/>
	<path class="st0" d="M-367,53.6c0,1.4-0.3,2.4-1,3.2c-0.7,0.8-1.6,1.2-2.8,1.2c-0.7,0-1.4-0.2-2-0.5c-0.6-0.4-1-0.9-1.3-1.5
		c-0.3-0.7-0.5-1.4-0.5-2.3c0-1.4,0.3-2.4,1-3.2c0.7-0.8,1.6-1.1,2.8-1.1c0.7,0,1.4,0.2,2,0.5c0.6,0.4,1,0.9,1.3,1.5
		C-367.1,51.9-367,52.7-367,53.6z M-372.3,53.6c0,0.8,0.1,1.5,0.4,1.9c0.3,0.4,0.7,0.6,1.2,0.6c0.6,0,1-0.2,1.2-0.6
		c0.2-0.4,0.4-1.1,0.4-1.9c0-0.8-0.1-1.5-0.4-1.9c-0.2-0.4-0.7-0.6-1.2-0.6c-0.6,0-1,0.2-1.2,0.6S-372.3,52.7-372.3,53.6z"/>
	<path class="st0" d="M-360.3,57.8l-0.4-1.1h-0.1c-0.4,0.5-0.7,0.8-1.1,1c-0.4,0.2-0.9,0.3-1.5,0.3c-0.7,0-1.3-0.2-1.8-0.7
		c-0.4-0.5-0.6-1.1-0.6-2c0-0.9,0.3-1.5,0.9-2c0.6-0.4,1.4-0.7,2.6-0.7l1.3,0v-0.4c0-0.9-0.4-1.3-1.2-1.3c-0.6,0-1.3,0.2-2.2,0.6
		L-365,50c0.9-0.5,1.9-0.8,3-0.8c1,0,1.8,0.2,2.4,0.7c0.6,0.5,0.8,1.2,0.8,2.2v5.6H-360.3z M-362.1,48.5c-0.3-0.2-0.7-0.6-1.3-1.1
		s-1-0.9-1.3-1.2V46h2.4c0.3,0.5,0.8,1.3,1.6,2.3v0.2H-362.1z M-360.9,53.9l-0.8,0c-0.6,0-1.1,0.1-1.4,0.4c-0.3,0.2-0.4,0.6-0.4,1
		c0,0.6,0.3,1,1,1c0.5,0,0.9-0.2,1.2-0.5s0.4-0.7,0.4-1.2V53.9z"/>
	<path class="st0" d="M-356.8,47.2c0-0.7,0.4-1.1,1.1-1.1s1.1,0.4,1.1,1.1c0,0.4-0.1,0.6-0.3,0.8c-0.2,0.2-0.5,0.3-0.9,0.3
		C-356.4,48.4-356.8,48-356.8,47.2z M-354.6,57.8h-2.1v-8.4h2.1V57.8z"/>
	<path class="st0" d="M-341.5,57.8h-2.1v-4.9c0-0.6-0.1-1.1-0.3-1.4c-0.2-0.3-0.5-0.5-0.9-0.5c-0.6,0-1,0.2-1.3,0.6
		c-0.3,0.4-0.4,1.1-0.4,2.1v4h-2.1v-8.4h1.6l0.3,1.1h0.1c0.2-0.4,0.6-0.7,1-0.9s0.9-0.3,1.4-0.3c0.9,0,1.6,0.3,2,0.8
		c0.5,0.5,0.7,1.3,0.7,2.3V57.8z"/>
	<path class="st0" d="M-333.9,57.8l-0.3-1.1h-0.1c-0.2,0.4-0.5,0.7-1,0.9s-0.9,0.3-1.4,0.3c-0.9,0-1.6-0.3-2.1-0.8
		c-0.5-0.5-0.7-1.3-0.7-2.3v-5.5h2.1v4.9c0,0.6,0.1,1.1,0.3,1.4c0.2,0.3,0.5,0.5,0.9,0.5c0.6,0,1-0.2,1.3-0.6
		c0.3-0.4,0.4-1.1,0.4-2.1v-4h2.1v0.9c0.3-0.1,0.6-0.3,0.8-0.7c0.2-0.4,0.3-0.8,0.3-1.4h2.1l0.1,0.2c-0.1,0.8-0.3,1.4-0.6,1.8
		c-0.2,0.4-0.6,0.8-1,1c-0.4,0.3-1,0.4-1.6,0.5v6.1H-333.9z"/>
	<path class="st0" d="M-321.6,53.6c0,1.4-0.3,2.4-1,3.2c-0.7,0.8-1.6,1.2-2.8,1.2c-0.7,0-1.4-0.2-2-0.5c-0.6-0.4-1-0.9-1.3-1.5
		c-0.3-0.7-0.5-1.4-0.5-2.3c0-1.4,0.3-2.4,1-3.2c0.7-0.8,1.6-1.1,2.8-1.1c0.5,0,1,0.1,1.5,0.3c0.5,0.2,0.9,0.4,1.2,0.8
		c0.7-0.2,1-0.9,1-2.1h2.1l0.1,0.2c-0.1,0.7-0.3,1.2-0.5,1.6c-0.2,0.4-0.5,0.7-0.8,1s-0.7,0.5-1.2,0.6
		C-321.7,52.1-321.6,52.8-321.6,53.6z M-326.9,53.6c0,0.8,0.1,1.5,0.4,1.9c0.3,0.4,0.7,0.6,1.2,0.6c0.6,0,1-0.2,1.2-0.6
		c0.2-0.4,0.4-1.1,0.4-1.9c0-0.8-0.1-1.5-0.4-1.9c-0.2-0.4-0.7-0.6-1.2-0.6c-0.6,0-1,0.2-1.2,0.6S-326.9,52.7-326.9,53.6z
		 M-326.6,48.5v-0.2c0.8-1,1.3-1.8,1.6-2.3h2.4v0.2c-0.2,0.3-0.6,0.6-1.2,1.2s-1,0.9-1.4,1.1H-326.6z"/>
	<path class="st0" d="M-315.9,58c-2.4,0-3.6-1.4-3.6-4.3c0-1.4,0.3-2.5,1-3.3c0.7-0.8,1.6-1.1,2.8-1.1c0.9,0,1.7,0.2,2.4,0.6
		l-0.6,1.8c-0.3-0.1-0.6-0.3-0.9-0.4c-0.3-0.1-0.6-0.1-0.9-0.1c-1.1,0-1.6,0.8-1.6,2.5c0,1.6,0.5,2.5,1.6,2.5c0.4,0,0.8-0.1,1.1-0.2
		c0.3-0.1,0.7-0.3,1-0.6v2c-0.3,0.2-0.7,0.4-1,0.5C-314.9,57.9-315.3,58-315.9,58z"/>
	<path class="st0" d="M-309.7,56.2c-0.2,1-0.6,2.2-1.2,3.6h-1.5c0.3-1.3,0.5-2.6,0.7-3.8h1.9L-309.7,56.2z"/>
	<path class="st0" d="M-300.8,56.1c0.4,0,0.8-0.1,1.3-0.3v1.7c-0.5,0.3-1.2,0.4-1.9,0.4c-0.8,0-1.5-0.2-1.8-0.7
		c-0.4-0.5-0.6-1.2-0.6-2.1v-4.1h-1v-1l1.2-0.8l0.6-1.8h1.3v1.8h2.2v1.7h-2.2v4.1c0,0.3,0.1,0.6,0.3,0.7
		C-301.3,56-301,56.1-300.8,56.1z"/>
	<path class="st0" d="M-293,57.8l-0.4-1.1h-0.1c-0.4,0.5-0.7,0.8-1.1,1c-0.4,0.2-0.9,0.3-1.5,0.3c-0.7,0-1.3-0.2-1.8-0.7
		c-0.4-0.5-0.6-1.1-0.6-2c0-0.9,0.3-1.5,0.9-2c0.6-0.4,1.4-0.7,2.6-0.7l1.3,0v-0.4c0-0.9-0.4-1.3-1.2-1.3c-0.6,0-1.3,0.2-2.2,0.6
		l-0.7-1.5c0.9-0.5,1.9-0.8,3-0.8c1,0,1.8,0.2,2.4,0.7c0.6,0.5,0.8,1.2,0.8,2.2v5.6H-293z M-293.6,53.9l-0.8,0
		c-0.6,0-1.1,0.1-1.4,0.4c-0.3,0.2-0.4,0.6-0.4,1c0,0.6,0.3,1,1,1c0.5,0,0.9-0.2,1.2-0.5s0.4-0.7,0.4-1.2V53.9z M-296.1,59.9
		c0-0.8,0.4-1.1,1.1-1.1s1.1,0.4,1.1,1.1c0,0.4-0.1,0.6-0.3,0.8c-0.2,0.2-0.5,0.3-0.9,0.3C-295.7,61-296.1,60.7-296.1,59.9z"/>
	<path class="st0" d="M-289.4,47.2c0-0.7,0.4-1.1,1.1-1.1s1.1,0.4,1.1,1.1c0,0.4-0.1,0.6-0.3,0.8c-0.2,0.2-0.5,0.3-0.9,0.3
		C-289,48.4-289.4,48-289.4,47.2z M-287.2,57.8h-2.1v-8.4h2.1V57.8z"/>
	<path class="st0" d="M-274.4,57.8h-2.1v-4.9c0-0.6-0.1-1.1-0.3-1.4s-0.5-0.5-0.9-0.5c-0.5,0-0.9,0.2-1.2,0.6s-0.4,1.1-0.4,2.1v4
		h-2.1v-8.4h1.6l0.3,1.1h0.1c0.2-0.4,0.5-0.7,0.9-0.9c0.4-0.2,0.8-0.3,1.3-0.3c1.2,0,1.9,0.4,2.3,1.2h0.2c0.2-0.4,0.5-0.7,0.9-0.9
		c0.4-0.2,0.9-0.3,1.4-0.3c0.9,0,1.5,0.2,2,0.7c0.4,0.5,0.7,1.3,0.7,2.3v5.5h-2.1v-4.9c0-0.6-0.1-1.1-0.3-1.4s-0.5-0.5-0.9-0.5
		c-0.5,0-0.9,0.2-1.2,0.6c-0.3,0.4-0.4,1-0.4,1.9V57.8z"/>
	<path class="st0" d="M-260.4,53.6c0,1.4-0.3,2.4-1,3.2c-0.7,0.8-1.6,1.2-2.8,1.2c-0.7,0-1.4-0.2-2-0.5c-0.6-0.4-1-0.9-1.3-1.5
		c-0.3-0.7-0.5-1.4-0.5-2.3c0-1.4,0.3-2.4,1-3.2c0.7-0.8,1.6-1.1,2.8-1.1c0.7,0,1.4,0.2,2,0.5c0.6,0.4,1,0.9,1.3,1.5
		C-260.6,51.9-260.4,52.7-260.4,53.6z M-262.6,48.5c-0.7-0.5-1.3-0.9-1.6-1.3c-0.4,0.4-0.9,0.8-1.6,1.3h-1.4v-0.2
		c0.9-0.9,1.5-1.7,1.8-2.3h2.5c0.1,0.3,0.4,0.6,0.7,1.1c0.4,0.4,0.7,0.8,1,1.2v0.2H-262.6z M-265.8,53.6c0,0.8,0.1,1.5,0.4,1.9
		c0.3,0.4,0.7,0.6,1.2,0.6c0.6,0,1-0.2,1.2-0.6c0.2-0.4,0.4-1.1,0.4-1.9c0-0.8-0.1-1.5-0.4-1.9c-0.2-0.4-0.7-0.6-1.2-0.6
		c-0.6,0-1,0.2-1.2,0.6S-265.8,52.7-265.8,53.6z M-265.3,59.9c0-0.8,0.4-1.1,1.1-1.1c0.8,0,1.1,0.4,1.1,1.1c0,0.4-0.1,0.6-0.3,0.8
		c-0.2,0.2-0.5,0.3-0.9,0.3C-264.9,61-265.3,60.7-265.3,59.9z"/>
	<path class="st0" d="M-255.4,56.1c0.4,0,0.8-0.1,1.3-0.3v1.7c-0.5,0.3-1.2,0.4-1.9,0.4c-0.8,0-1.5-0.2-1.8-0.7
		c-0.4-0.5-0.6-1.2-0.6-2.1v-4.1h-1v-1l1.2-0.8l0.6-1.8h1.3v1.8h2.2v1.7h-2.2v4.1c0,0.3,0.1,0.6,0.3,0.7
		C-255.9,56-255.7,56.1-255.4,56.1z"/>
	<path class="st0" d="M-554.6,78.3c-0.9,0-1.6-0.4-2.1-1.1c-0.5-0.7-0.8-1.7-0.8-3c0-1.3,0.3-2.3,0.8-3.1s1.3-1.1,2.2-1.1
		c1,0,1.7,0.4,2.2,1.2h0.1c-0.1-0.7-0.2-1.2-0.2-1.7v-0.4h-2.2v-1.5h2.2v-1.2h2.1v1.2h1.1v1.5h-1.1v9h-1.6l-0.4-1.1h-0.1
		C-552.9,77.9-553.6,78.3-554.6,78.3z M-553.8,76.4c0.5,0,0.9-0.2,1.2-0.5c0.3-0.3,0.4-0.8,0.4-1.6v-0.2c0-0.8-0.1-1.4-0.4-1.8
		c-0.3-0.4-0.7-0.5-1.2-0.5c-0.5,0-0.8,0.2-1.1,0.6c-0.3,0.4-0.4,1-0.4,1.7c0,0.7,0.1,1.3,0.4,1.7S-554.3,76.4-553.8,76.4z"/>
	<path class="st0" d="M-548,80.2c0-0.8,0.4-1.1,1.1-1.1s1.1,0.4,1.1,1.1c0,0.4-0.1,0.6-0.3,0.8c-0.2,0.2-0.5,0.3-0.9,0.3
		C-547.6,81.4-548,81-548,80.2z M-547.9,67.5c0-0.7,0.4-1.1,1.1-1.1s1.1,0.4,1.1,1.1c0,0.4-0.1,0.6-0.3,0.8
		c-0.2,0.2-0.5,0.3-0.9,0.3C-547.6,68.7-547.9,68.3-547.9,67.5z M-545.7,78.1h-2.1v-8.4h2.1V78.1z"/>
	<path class="st0" d="M-538.6,78.1L-539,77h-0.1c-0.4,0.5-0.7,0.8-1.1,1c-0.4,0.2-0.9,0.3-1.5,0.3c-0.7,0-1.3-0.2-1.8-0.7
		c-0.4-0.5-0.6-1.1-0.6-2c0-0.9,0.3-1.5,0.9-2c0.6-0.4,1.4-0.7,2.6-0.7l1.3,0v-0.4c0-0.9-0.4-1.3-1.2-1.3c-0.6,0-1.3,0.2-2.2,0.6
		l-0.7-1.5c0.9-0.5,1.9-0.8,3-0.8c1,0,1.8,0.2,2.4,0.7c0.6,0.5,0.8,1.2,0.8,2.2v5.6H-538.6z M-539.2,74.2l-0.8,0
		c-0.6,0-1.1,0.1-1.4,0.4c-0.3,0.2-0.4,0.6-0.4,1c0,0.6,0.3,1,1,1c0.5,0,0.9-0.2,1.2-0.5s0.4-0.7,0.4-1.2V74.2z"/>
	<path class="st0" d="M-528.2,78.3c-2.4,0-3.6-1.4-3.6-4.3c0-1.4,0.3-2.5,1-3.3c0.7-0.8,1.6-1.1,2.8-1.1c0.9,0,1.7,0.2,2.4,0.6
		l-0.6,1.8c-0.3-0.1-0.6-0.3-0.9-0.4c-0.3-0.1-0.6-0.1-0.9-0.1c-1.1,0-1.6,0.8-1.6,2.5c0,1.6,0.5,2.5,1.6,2.5c0.4,0,0.8-0.1,1.1-0.2
		c0.3-0.1,0.7-0.3,1-0.6v2c-0.3,0.2-0.7,0.4-1,0.5C-527.2,78.2-527.6,78.3-528.2,78.3z"/>
	<path class="st0" d="M-516.9,78.1h-2.1v-4.9c0-1.2-0.4-1.8-1.2-1.8c-0.6,0-1,0.2-1.3,0.7s-0.4,1.1-0.4,2.1v4h-2.1V66.4h2.1v2.4
		c0,0.2,0,0.6,0,1.3l0,0.7h0.1c0.5-0.8,1.2-1.2,2.2-1.2c0.9,0,1.6,0.3,2.1,0.8c0.5,0.5,0.7,1.3,0.7,2.3V78.1z"/>
	<path class="st0" d="M-511.9,66.9c0,0.8-0.4,1.3-1.1,1.5l-0.1,0.5h-1.2l-0.2-1.1c0.3-0.1,0.6-0.2,0.7-0.3s0.2-0.3,0.2-0.5
		c0-0.2,0-0.3-0.1-0.4c-0.1-0.1-0.2-0.1-0.4-0.1c-0.3,0-0.6,0.1-1,0.2v-1.3c0.1,0,0.3-0.1,0.6-0.1c0.2,0,0.5,0,0.6,0
		c0.6,0,1.1,0.1,1.4,0.4C-512,66-511.9,66.4-511.9,66.9z M-512.6,78.1h-2.1v-8.4h2.1V78.1z"/>
	<path class="st0" d="M-504.3,78.3c-0.9,0-1.6-0.4-2.1-1.2c-0.5-0.8-0.8-1.8-0.8-3.2c0-1.4,0.3-2.5,0.8-3.2c0.5-0.8,1.3-1.2,2.2-1.2
		c1,0,1.7,0.4,2.2,1.2h0.1c-0.1-0.6-0.2-1.2-0.2-1.7v-2.7h2.1v11.7h-1.6L-502,77h-0.1C-502.6,77.9-503.3,78.3-504.3,78.3z
		 M-503.6,76.4c0.5,0,0.9-0.2,1.2-0.5c0.3-0.3,0.4-0.9,0.4-1.7V74c0-0.9-0.1-1.5-0.4-1.9c-0.3-0.4-0.7-0.6-1.2-0.6
		c-0.5,0-0.8,0.2-1.1,0.7c-0.3,0.4-0.4,1.1-0.4,1.9c0,0.8,0.1,1.4,0.4,1.9C-504.4,76.2-504,76.4-503.6,76.4z"/>
	<path class="st0" d="M-492.3,78.1l-0.3-1.1h-0.1c-0.2,0.4-0.5,0.7-1,0.9c-0.4,0.2-0.9,0.3-1.4,0.3c-0.9,0-1.6-0.3-2.1-0.8
		c-0.5-0.5-0.7-1.3-0.7-2.3v-5.5h2.1v4.9c0,0.6,0.1,1.1,0.3,1.4c0.2,0.3,0.5,0.5,0.9,0.5c0.6,0,1-0.2,1.3-0.6
		c0.3-0.4,0.4-1.1,0.4-2.1v-4h2.1v8.4H-492.3z"/>
	<path class="st0" d="M-489.6,69.7h2.3l1.5,4.7c0.1,0.4,0.2,0.9,0.3,1.5h0c0.1-0.5,0.1-1,0.3-1.5l1.4-4.7h2.3l-3.3,9.5
		c-0.3,0.9-0.7,1.5-1.3,2c-0.6,0.4-1.2,0.7-1.9,0.7c-0.4,0-0.7,0-1.1-0.1v-1.8c0.3,0.1,0.5,0.1,0.8,0.1c0.4,0,0.7-0.1,1-0.4
		s0.5-0.6,0.7-1.1l0.1-0.4L-489.6,69.7z"/>
	<path class="st0" d="M-469.6,78.1h-2.1v-4.9c0-0.6-0.1-1.1-0.3-1.4c-0.2-0.3-0.5-0.5-0.9-0.5c-0.6,0-1,0.2-1.3,0.6
		c-0.3,0.4-0.4,1.1-0.4,2.1v4h-2.1v-8.4h1.6l0.3,1.1h0.1c0.2-0.4,0.6-0.7,1-0.9s0.9-0.3,1.4-0.3c0.9,0,1.6,0.3,2,0.8
		c0.5,0.5,0.7,1.3,0.7,2.3V78.1z"/>
	<path class="st0" d="M-460.3,78.1h-2.1v-4.9c0-1.2-0.4-1.8-1.2-1.8c-0.6,0-1,0.2-1.3,0.7s-0.4,1.1-0.4,2.1v4h-2.1V66.4h2.1v2.4
		c0,0.2,0,0.6,0,1.3l0,0.7h0.1c0.5-0.8,1.2-1.2,2.2-1.2c0.9,0,1.6,0.3,2.1,0.8c0.5,0.5,0.7,1.3,0.7,2.3V78.1z"/>
	<path class="st0" d="M-453.3,78.1l-0.4-1.1h-0.1c-0.4,0.5-0.7,0.8-1.1,1c-0.4,0.2-0.9,0.3-1.5,0.3c-0.7,0-1.3-0.2-1.8-0.7
		c-0.4-0.5-0.6-1.1-0.6-2c0-0.9,0.3-1.5,0.9-2c0.6-0.4,1.4-0.7,2.6-0.7l1.3,0v-0.4c0-0.9-0.4-1.3-1.2-1.3c-0.6,0-1.3,0.2-2.2,0.6
		l-0.7-1.5c0.9-0.5,1.9-0.8,3-0.8c1,0,1.8,0.2,2.4,0.7c0.6,0.5,0.8,1.2,0.8,2.2v5.6H-453.3z M-452.4,68.8h-1.1
		c-0.5-0.4-1-0.8-1.5-1.2c-0.5,0.5-1,0.9-1.5,1.2h-1.1v-0.2c0.5-0.7,1-1.4,1.5-2.1h2.2c0.2,0.4,0.5,0.8,0.8,1.2
		c0.3,0.4,0.5,0.7,0.7,0.9V68.8z M-453.9,74.2l-0.8,0c-0.6,0-1.1,0.1-1.4,0.4c-0.3,0.2-0.4,0.6-0.4,1c0,0.6,0.3,1,1,1
		c0.5,0,0.9-0.2,1.2-0.5s0.4-0.7,0.4-1.2V74.2z M-453,67.1c0.4-0.5,0.7-1,1-1.5h1.7v0.2c-0.3,0.4-0.8,1-1.6,1.5h-1.1V67.1z"/>
	<path class="st0" d="M-446.4,76.4c0.4,0,0.8-0.1,1.3-0.3v1.7c-0.5,0.3-1.2,0.4-1.9,0.4c-0.8,0-1.5-0.2-1.8-0.7
		c-0.4-0.5-0.6-1.2-0.6-2.1v-4.1h-1v-1l1.2-0.8l0.6-1.8h1.3v1.8h2.2v1.7h-2.2v4.1c0,0.3,0.1,0.6,0.3,0.7
		C-446.9,76.4-446.6,76.4-446.4,76.4z"/>
	<path class="st0" d="M-443.8,77c0-0.4,0.1-0.7,0.3-1c0.2-0.2,0.5-0.3,0.9-0.3c0.4,0,0.7,0.1,0.9,0.3c0.2,0.2,0.3,0.5,0.3,0.9
		c0,0.4-0.1,0.7-0.3,0.9c-0.2,0.2-0.5,0.3-0.9,0.3c-0.4,0-0.7-0.1-0.9-0.3C-443.7,77.8-443.8,77.5-443.8,77z M-441.7,74.5h-1.7
		l-0.4-7.3h2.4L-441.7,74.5z"/>
</g>
<g>
	<g>
		<path class="st2" d="M-611.6,36.1l-13.7,13.7l-7.2-7.2l13.6-13.6c0.8,1.3,1.9,2.6,3,3.8C-614.5,34-613.1,35.1-611.6,36.1z"/>
		<g>
			<path class="st2" d="M-652.1,62.2c-2,2-2,5.2,0,7.2c2,2,5.2,2,7.2,0l19.6-19.6l-7.2-7.2L-652.1,62.2z"/>
			<circle class="st2" cx="-600.1" cy="17" r="28.6"/>
			<path class="st2" d="M-618.9,29c-5.5-8.6-4.5-20.2,3-27.8c8.7-8.7,22.8-8.7,31.5,0c8.7,8.7,8.7,22.8,0,31.5
				c-7.4,7.4-18.7,8.5-27.3,3.3c-1.5-0.9-3-2-4.3-3.3C-617,31.6-618,30.3-618.9,29"/>
		</g>
	</g>
	<g>
		<g>
			<g>
				<path class="st3" d="M-620.7-26.1c0.4,0.4,0.8,0.5,1.3,0.5l41.8,0.1c0.5,0,1-0.2,1.3-0.5c0.4-0.3,0.5-0.8,0.5-1.3l0.1-56.4
					c0-1-0.8-1.9-1.8-1.9l-1.8,0c-0.2,0-0.4,0.2-0.4,0.4c0,0.2,0.2,0.4,0.4,0.4l1.8,0c0.5,0,1,0.4,1,1l-0.1,56.4
					c0,0.3-0.1,0.5-0.3,0.7c-0.2,0.2-0.4,0.3-0.7,0.3l-41.8-0.1c-0.3,0-0.5-0.1-0.7-0.3s-0.3-0.4-0.3-0.7l0.1-56.4
					c0-0.3,0.1-0.5,0.3-0.7c0.2-0.2,0.4-0.3,0.7-0.3l3.8,0c0.2,0,0.4-0.2,0.4-0.4c0-0.2-0.2-0.4-0.4-0.4l-3.8,0
					c-0.5,0-1,0.2-1.3,0.5c-0.4,0.3-0.5,0.8-0.5,1.3l-0.1,56.4C-621.3-26.9-621.1-26.5-620.7-26.1z"/>
			</g>
			<g>
				<path class="st3" d="M-599.1-84.9c0.1,0.1,0.2,0.1,0.3,0.1l2.6,0c0.2,0,0.4-0.2,0.4-0.4c0-0.2-0.2-0.4-0.4-0.4l-2.6,0
					c-0.2,0-0.4,0.2-0.4,0.4C-599.2-85.1-599.1-84.9-599.1-84.9z"/>
			</g>
			<g>
				<path class="st3" d="M-621.1-69.3c0.1,0.1,0.2,0.1,0.3,0.1l44.4,0.1c0.2,0,0.4-0.2,0.4-0.4c0-0.2-0.2-0.4-0.4-0.4l-44.4-0.1
					c-0.2,0-0.4,0.2-0.4,0.4C-621.2-69.5-621.1-69.4-621.1-69.3z"/>
			</g>
			<g>
				<path class="st3" d="M-596.6-80l0-7.1c0-0.5,0.2-1,0.5-1.3c0.4-0.3,0.8-0.5,1.3-0.5l13.9,0c0.5,0,1,0.2,1.3,0.5
					c0.3,0.4,0.5,0.8,0.5,1.3l0,7.1c0,0.5-0.2,1-0.5,1.3c-0.4,0.3-0.8,0.5-1.3,0.5l-13.9,0c-0.5,0-1-0.2-1.3-0.5
					C-596.4-79-596.6-79.5-596.6-80z M-580.8-88l-13.9,0c-0.3,0-0.5,0.1-0.7,0.3s-0.3,0.4-0.3,0.7l0,7.1c0,0.3,0.1,0.5,0.3,0.7
					c0.2,0.2,0.4,0.3,0.7,0.3l13.9,0c0.3,0,0.5-0.1,0.7-0.3s0.3-0.4,0.3-0.7l0-7.1c0-0.3-0.1-0.5-0.3-0.7S-580.5-88-580.8-88z"/>
			</g>
			<g>
				<path class="st3" d="M-615.9-80l0-7.1c0-0.5,0.2-1,0.5-1.3c0.4-0.3,0.8-0.5,1.3-0.5l13.9,0c0.5,0,1,0.2,1.3,0.5
					c0.3,0.4,0.5,0.8,0.5,1.3l0,7.1c0,1-0.8,1.8-1.9,1.8l-13.9,0c-0.5,0-1-0.2-1.3-0.5C-615.8-79.1-615.9-79.5-615.9-80z M-600.1-88
					l-13.9,0c-0.3,0-0.5,0.1-0.7,0.3c-0.2,0.2-0.3,0.4-0.3,0.7l0,7.1c0,0.3,0.1,0.5,0.3,0.7s0.4,0.3,0.7,0.3l13.9,0c0.5,0,1-0.4,1-1
					l0-7.1c0-0.3-0.1-0.5-0.3-0.7S-599.9-88-600.1-88z"/>
			</g>
		</g>
		<g>
			<g>
				
					<ellipse transform="matrix(0.7071 0.7071 -0.7071 0.7071 -82.05 485.6855)" class="st4" cx="-627.3" cy="143.8" rx="18.3" ry="20.3"/>
				<path class="st4" d="M-666.7,186.7l-3.5-3.5c-0.3-0.3-0.3-0.7,0-0.9l14-14c0.3-0.3,0.7-0.3,0.9,0l3.5,3.5c0.3,0.3,0.3,0.7,0,0.9
					l-14,14C-666,186.9-666.4,186.9-666.7,186.7z"/>
				<path class="st4" d="M-646.6,145.9c0,0,0.1,17.1-9,26.2"/>
				<path class="st4" d="M-629.4,163.1c0,0-17.1-0.1-26.2,9"/>
			</g>
			<path class="st4" d="M-628.4,183.6c-1.5,1.5-3.6,2.2-5.7,2c-1.5-0.2-3-0.8-4.2-2c-1.2-1.2-1.9-2.7-2-4.3c-0.2-2,0.5-4,2-5.5
				c1.5-1.5,3.6-2.2,5.5-2c1.6,0.1,3.1,0.8,4.3,2c1.2,1.2,1.9,2.7,2,4.2C-626.2,180-626.9,182.1-628.4,183.6z"/>
			<path class="st4" d="M-634.8,177.3c-1.5,1.5-3.6,2.2-5.5,2c-0.2-2,0.5-4,2-5.5c1.5-1.5,3.6-2.2,5.5-2
				C-632.6,173.7-633.2,175.8-634.8,177.3z"/>
			<path class="st4" d="M-628.4,183.6c-1.5,1.5-3.6,2.2-5.7,2c-0.2-2,0.5-4.1,2-5.7c1.6-1.6,3.6-2.2,5.7-2
				C-626.2,180-626.9,182.1-628.4,183.6z"/>
			<line class="st4" x1="-661.9" y1="174.1" x2="-655" y2="176.1"/>
			<line class="st4" x1="-665.7" y1="177.6" x2="-658.8" y2="179.6"/>
			<polyline class="st4" points="-625.9,128.4 -624.8,129.5 -621.6,132.7 -618.8,135.5 -615.6,138.6 -612.4,141.8 -611.7,142.5 			
				"/>
			<polyline class="st4" points="-630.6,129.2 -627.5,132.2 -624.3,135.4 -621.5,138.2 -618.4,141.4 -615.2,144.6 -612.5,147.2 			
				"/>
			<polyline class="st4" points="-634.3,130.9 -630.3,135 -627.1,138.2 -624.3,140.9 -621.1,144.1 -617.9,147.3 -614.3,151 			"/>
			<polyline class="st4" points="-637.4,133.3 -633,137.7 -629.8,140.9 -627,143.7 -623.8,146.9 -620.7,150.1 -616.7,154.1 			"/>
			<polyline class="st4" points="-639.9,136.3 -635.8,140.5 -632.6,143.7 -629.8,146.4 -626.6,149.6 -623.4,152.8 -619.7,156.6 			
				"/>
			<polyline class="st4" points="-641.8,140 -638.5,143.2 -635.3,146.4 -632.5,149.2 -629.3,152.4 -626.2,155.6 -623.3,158.4 			"/>
			<polyline class="st4" points="-642.7,144.5 -641.3,146 -638.1,149.1 -635.3,151.9 -632.1,155.1 -628.9,158.3 -627.8,159.4 			"/>
			
				<ellipse transform="matrix(0.7071 0.7071 -0.7071 0.7071 -81.9726 485.6541)" class="st4" cx="-627.2" cy="143.9" rx="15.1" ry="16.8"/>
			<polyline class="st4" points="-638.8,155.4 -635.3,151.9 -632.5,149.2 -629.8,146.4 -627,143.7 -624.3,140.9 -621.5,138.2 
				-618.8,135.5 -615.7,132.4 			"/>
			<polyline class="st4" points="-635,158.1 -632.1,155.1 -629.3,152.4 -626.6,149.6 -623.8,146.9 -621.1,144.1 -618.4,141.4 
				-615.6,138.6 -613.1,136.1 			"/>
			<polyline class="st4" points="-630,159.4 -628.9,158.3 -626.2,155.6 -623.4,152.8 -620.7,150.1 -617.9,147.3 -615.2,144.6 
				-612.4,141.8 -611.8,141.2 			"/>
			<polyline class="st4" points="-642.7,147.3 -641.3,146 -638.5,143.2 -635.8,140.5 -633,137.7 -630.3,135 -627.5,132.2 
				-624.8,129.5 -623.8,128.5 			"/>
			<polyline class="st4" points="-641.2,152.2 -638.1,149.1 -635.3,146.4 -632.6,143.7 -629.8,140.9 -627.1,138.2 -624.3,135.4 
				-621.6,132.7 -618.9,130 			"/>
		</g>
		<g>
			<path class="st4" d="M-687.4,108.2h-7.9c-1.2,0-2.2-1-2.2-2.2V85.8c0-1.2,1-2.2,2.2-2.2h7.9c1.2,0,2.2,1,2.2,2.2v20.1
				C-685.2,107.2-686.2,108.2-687.4,108.2z"/>
			<path class="st4" d="M-670.9,108.2h-21c-1.1,0-1.9-0.9-1.9-1.9v-6.8c0-1.1,0.9-1.9,1.9-1.9h21c1.1,0,1.9,0.9,1.9,1.9v6.8
				C-669,107.3-669.8,108.2-670.9,108.2z"/>
			<rect x="-697.4" y="90" class="st4" width="12.1" height="2.4"/>
			<line class="st4" x1="-687.9" y1="83" x2="-687.9" y2="74.1"/>
			<line class="st4" x1="-695.2" y1="83" x2="-695.2" y2="69.6"/>
			
				<ellipse transform="matrix(0.7412 -0.6713 0.6713 0.7412 -226.6687 -445.8661)" class="st4" cx="-691.6" cy="71" rx="2.4" ry="4.9"/>
			<ellipse class="st4" cx="-689.5" cy="102.8" rx="3" ry="3.8"/>
		</g>
		<g>
			<path class="st4" d="M-678.3,152.7c-1.8,1-3.9,1.6-6.1,1.6c-1.8,0-3.6-0.4-5.2-1.1"/>
			<path class="st4" d="M-694.6,155.3c2.8,2.1,6.3,3.3,10.1,3.3c3.8,0,7.4-1.3,10.2-3.4"/>
			<path class="st4" d="M-697.1,143.1c-0.1-0.5-0.1-0.9-0.1-1.4c0-1.2,0.2-2.4,0.5-3.5"/>
			<path class="st4" d="M-667.9,145.3c0.3-1.2,0.4-2.4,0.4-3.6c0-9.4-7.6-17-17-17c-9.4,0-17,7.6-17,17c0,1.9,0.3,3.8,0.9,5.5"/>
			<path class="st4" d="M-672.3,138.2c0.3,1.1,0.5,2.3,0.5,3.5c0,0.3,0,0.6,0,1"/>
			<path class="st4" d="M-696.7,138.2c1.5-5.3,6.4-9.2,12.2-9.2c5.8,0,10.7,3.9,12.2,9.2"/>
			<path class="st4" d="M-684.5,129c-5.8,0-10.7,3.9-12.2,9.2h24.4C-673.8,132.9-678.7,129-684.5,129z"/>
			<path class="st4" d="M-672.3,138.2h-24.4c-0.3,1.1-0.5,2.3-0.5,3.5c0,0.5,0,1,0.1,1.4c0.8-0.4,1.7-0.6,2.7-0.6
				c3.5,0,6.4,2.9,6.4,6.4c0,1.7-0.6,3.2-1.7,4.3c1.6,0.7,3.3,1.1,5.2,1.1c2.2,0,4.3-0.6,6.1-1.6c-0.8-1.1-1.3-2.4-1.3-3.8
				c0-3.5,2.9-6.4,6.4-6.4c0.5,0,0.9,0.1,1.4,0.1c0-0.3,0-0.6,0-1C-671.8,140.5-672,139.3-672.3,138.2z M-684.5,143.2
				c-0.9,0-1.6-0.7-1.6-1.6c0-0.9,0.7-1.6,1.6-1.6c0.9,0,1.6,0.7,1.6,1.6C-682.9,142.5-683.6,143.2-684.5,143.2z"/>
			<circle class="st4" cx="-684.5" cy="141.7" r="1.6"/>
			<path class="st4" d="M-689.6,153.2c-4-1.8-6.9-5.6-7.4-10.1"/>
			<path class="st4" d="M-700.5,147.2c1.1,3.3,3.2,6.1,5.9,8.1"/>
			<path class="st4" d="M-694.3,142.5c-1,0-1.9,0.2-2.7,0.6c0.5,4.5,3.4,8.3,7.4,10.1c1.1-1.1,1.7-2.7,1.7-4.3
				C-687.9,145.4-690.8,142.5-694.3,142.5z"/>
			<path class="st4" d="M-674.3,155.2c3.2-2.4,5.5-5.9,6.3-9.9"/>
			<path class="st4" d="M-671.9,142.6c-0.3,4.4-2.9,8.1-6.5,10.1"/>
			<path class="st4" d="M-679.6,148.9c0,1.4,0.5,2.8,1.3,3.8c3.6-2,6.1-5.8,6.5-10.1c-0.4-0.1-0.9-0.1-1.4-0.1
				C-676.8,142.5-679.6,145.4-679.6,148.9z"/>
		</g>
		<path class="st5" d="M-680.8-26.2c0,0-0.8,4-4.8,4.6c4,0.6,4.8,4.6,4.8,4.6s0.8-4,4.8-4.6C-680.1-22.2-680.8-26.2-680.8-26.2"/>
		<path class="st5" d="M-666,67.2c0,0-1.9,9.9-11.7,11.3c9.8,1.4,11.7,11.3,11.7,11.3s1.9-9.9,11.7-11.3
			C-664.1,77.1-666,67.2-666,67.2"/>
		<g>
			<path class="st4" d="M-696.9-23.8c0,5.3-4.1,4.6-4.1,4.6h-15.2c-3.4,0-6.6-1.3-9-3.7l-11.9-11.6v16.4h-3.9L-743-35
				c-2.3-14.8,7.2-15.9,7.2-15.9l19.7,23.7l0,0l5.4-2.5L-696.9-23.8z"/>
			<line class="st4" x1="-737.1" y1="-34.5" x2="-742.9" y2="-34.5"/>
		</g>
		<g>
			<polyline class="st4" points="-701.5,9.6 -701.5,-6.1 -716.5,-6.1 -716.5,8.9 			"/>
			<polyline class="st4" points="-702.8,34 -701.5,34 -701.5,47.7 -716.5,47.7 -716.5,34 -716.3,34 			"/>
			<circle class="st4" cx="-709.6" cy="21.4" r="14.3"/>
			<circle class="st4" cx="-709.6" cy="21.4" r="10.6"/>
			
				<rect x="-696.1" y="25.6" transform="matrix(0.9191 0.394 -0.394 0.9191 -45.3875 275.7361)" class="st4" width="3.6" height="3.4"/>
			
				<rect x="-696.3" y="13.8" transform="matrix(-0.9191 0.394 -0.394 -0.9191 -1326.6853 303.3716)" class="st4" width="3.6" height="3.4"/>
			<polyline class="st4" points="-709.6,14.3 -709.6,21.4 -702.9,21.4 			"/>
			<circle class="st6" cx="-709.6" cy="21.5" r="2.3"/>
			<line class="st4" x1="-716.5" y1="3.7" x2="-702.4" y2="3.7"/>
			<line class="st4" x1="-716.5" y1="-1" x2="-702.4" y2="-1"/>
			<line class="st4" x1="-716" y1="43.4" x2="-702" y2="43.4"/>
			<line class="st4" x1="-716" y1="38.7" x2="-702" y2="38.7"/>
		</g>
		<path class="st4" d="M-726.3,76.4l-13.9-49.5c0,0,8.8-5.1,5.3-16.4h-3.9L-741.7-5h-5.1v8.2c0,3.3-2.7,6-6,6c-3.3,0-6-2.7-6-6V-5
			h-5.1l-2.9,15.6h-3.3c0,0-1.2,13.5,5.3,16.4l-14.3,49.5H-726.3z"/>
		<g>
			<path class="st4" d="M-669,38.1h21.9c3.6,0,6.5-2.9,6.5-6.5V1.5c0-3.6-2.9-6.5-6.5-6.5h-27.5c-1.3,0-2.4,1.1-2.4,2.4v38.4
				c0,1.3,1.1,2.4,2.4,2.4h0.3"/>
			<line class="st4" x1="-677" y1="30" x2="-640.6" y2="30"/>
			<polygon class="st4" points="-671.7,32.9 -674.3,32.9 -674.3,43.3 -671.7,41.2 -669,43.3 -669,32.9 			"/>
			<rect x="-668.2" y="0.6" class="st4" width="23.1" height="8.9"/>
			<line class="st4" x1="-677" y1="32.9" x2="-647.6" y2="32.9"/>
			<line class="st4" x1="-673" y1="-5" x2="-673" y2="30"/>
		</g>
		<g>
			<g>
				<path class="st4" d="M-726.6,98.1l10.6,1.3c1.6,0,2.9,1.1,2.9,2.4v46.6c0,1.3-1.3,2.4-2.9,2.4h-44.3c-1.6,0-2.9-1.1-2.9-2.4
					v-46.6c0-1.3,1.3-2.4,2.9-2.4l7.5-1.3"/>
				<line class="st4" x1="-739.5" y1="103.9" x2="-739.5" y2="150.8"/>
				<polygon class="st4" points="-718.4,127.2 -724.6,129.3 -730.8,127.2 -730.8,115.4 -718.4,115.4 				"/>
				<line class="st4" x1="-748.6" y1="94" x2="-730.8" y2="94"/>
				
					<rect x="-749" y="94.2" transform="matrix(0.7071 -0.7071 0.7071 0.7071 -289.8246 -498.1215)" class="st4" width="5.6" height="13.3"/>
				
					<rect x="-736" y="94.4" transform="matrix(-0.7071 -0.7071 0.7071 -0.7071 -1322.8975 -346.4289)" class="st4" width="5.6" height="12.7"/>
				<circle class="st4" cx="-735.3" cy="112.9" r="0.9"/>
				<circle class="st4" cx="-735.3" cy="118.4" r="0.9"/>
				<circle class="st4" cx="-735.3" cy="123.9" r="0.9"/>
				<circle class="st4" cx="-735.3" cy="129.5" r="0.9"/>
				<circle class="st4" cx="-735.3" cy="135" r="0.9"/>
				<circle class="st4" cx="-735.3" cy="140.5" r="0.9"/>
				<circle class="st4" cx="-735.3" cy="146" r="0.9"/>
			</g>
		</g>
		<g>
			<path class="st4" d="M-640.8-71.7v50.3h-11.9c-4.7,0.4-5.3-2.7-5.3-2.7v-2.7c2.4-0.9,4.1-3.1,4.1-5.5c0-2.4-1.6-4.5-3.8-5.4
				l11-21.3C-650.6-72.1-640.8-71.7-640.8-71.7z"/>
			<rect x="-640.9" y="-71.7" class="st7" width="5.4" height="50"/>
			<line class="st4" x1="-653.7" y1="-45.5" x2="-649.4" y2="-42.2"/>
			<line class="st4" x1="-651.7" y1="-49.8" x2="-647.4" y2="-46.5"/>
			<line class="st4" x1="-649.9" y1="-53.6" x2="-645.6" y2="-50.3"/>
			<path class="st4" d="M-650.4-21.4c0,0-1.3-10.5,9.6-10.9"/>
			<line class="st4" x1="-646.7" y1="-59.2" x2="-640.8" y2="-59.2"/>
		</g>
		<g>
			<path class="st8" d="M-664.7-45.9h-45.4c-1.1,0-1.9-0.9-1.9-2.1v-24.6c0-1.1,0.9-2.1,1.9-2.1h45.4c1.1,0,1.9,0.9,1.9,2.1V-48
				C-662.8-46.9-663.7-45.9-664.7-45.9z"/>
			<line class="st8" x1="-712.1" y1="-68.6" x2="-662.8" y2="-68.6"/>
			<circle class="st8" cx="-687.1" cy="-57.3" r="5.8"/>
			<line class="st8" x1="-701.4" y1="-68.6" x2="-701.4" y2="-45.9"/>
			<line class="st8" x1="-673" y1="-68.6" x2="-673" y2="-45.9"/>
			<rect x="-710.1" y="-78.2" class="st8" width="9.7" height="3.5"/>
		</g>
		<g>
			<rect x="-566.4" y="94.4" class="st4" width="2.4" height="28.9"/>
			<g>
				<circle class="st4" cx="-586.1" cy="177.1" r="4.2"/>
				<circle class="st4" cx="-567.7" cy="177.1" r="4.2"/>
				
					<rect x="-599.8" y="107.8" transform="matrix(-4.746055e-003 1 -1 -4.746055e-003 -479.2671 694.9208)" class="st4" width="28.7" height="2.4"/>
				<path class="st4" d="M-594.6,170.4v-45.7c0-0.8,0.7-1.5,1.5-1.5l33.5,0c0.8,0,1.5,0.7,1.5,1.5v45.7c0,0.8-0.7,1.5-1.5,1.5h-33.5
					C-593.9,171.9-594.6,171.2-594.6,170.4z"/>
				<path class="st4" d="M-588,92.8v-1.5c0-0.9,0.8-1.7,1.7-1.7l23.1,0c0.9,0,1.7,0.8,1.7,1.7v1.5c0,0.9-0.8,1.7-1.7,1.7h-23.1
					C-587.3,94.5-588,93.7-588,92.8z"/>
				<polyline class="st4" points="-594.6,127.7 -560.7,127.7 -558.1,127.7 				"/>
			</g>
			<line class="st4" x1="-562.8" y1="171.2" x2="-562.8" y2="127.7"/>
			<line class="st4" x1="-594.2" y1="132.6" x2="-568.2" y2="132.6"/>
			<line class="st4" x1="-594.2" y1="136.8" x2="-568.2" y2="136.8"/>
			<line class="st4" x1="-594.2" y1="141" x2="-568.2" y2="141"/>
			<line class="st4" x1="-594.2" y1="145.1" x2="-568.2" y2="145.1"/>
			<line class="st4" x1="-594.2" y1="149.3" x2="-568.2" y2="149.3"/>
			<line class="st4" x1="-594.2" y1="153.5" x2="-568.2" y2="153.5"/>
			<line class="st4" x1="-594.2" y1="157.7" x2="-568.2" y2="157.7"/>
			<line class="st4" x1="-594.2" y1="161.8" x2="-568.2" y2="161.8"/>
			<line class="st4" x1="-594.2" y1="166" x2="-568.2" y2="166"/>
		</g>
		<g>
			<polygon class="st4" points="-608.9,108.9 -636.5,108.9 -636.5,83.4 -633.2,80.8 -633.2,80.8 -612.4,80.8 -608.9,83.2 
				-608.9,83.2 			"/>
			<rect x="-629.1" y="86.1" class="st4" width="13.5" height="7.8"/>
			<rect x="-629.4" y="77.9" class="st4" width="13.4" height="2.9"/>
			<line class="st4" x1="-627.5" y1="91" x2="-617.7" y2="91"/>
			<line class="st4" x1="-633.2" y1="80.8" x2="-633.2" y2="108.9"/>
			<line class="st4" x1="-612.4" y1="80.8" x2="-612.4" y2="108.9"/>
			<rect x="-627.5" y="75.3" class="st4" width="9.9" height="2.7"/>
			<rect x="-627.6" y="72.6" class="st4" width="10" height="2.7"/>
			<line class="st4" x1="-622.4" y1="75.3" x2="-614.2" y2="75.3"/>
			<circle class="st4" cx="-612.3" cy="75.3" r="2"/>
		</g>
		<g>
			<path class="st4" d="M-510,134.8h-38.3c-1.7,0-3-2.4-3-5.3h41.3"/>
			<path class="st4" d="M-510,125.6h-31.6c-1.3,0-2.4-1.1-2.4-2.4v-22c0-1.3,1.1-2.4,2.4-2.4h35.1c1.3,0,2.4,1.1,2.4,2.4v12"/>
			<path class="st4" d="M-510,129.6h-33.8c-2.3,0-4.2-1.9-4.2-4.2V99.1c0-2.3,1.9-4.2,4.2-4.2h39.5c2.3,0,4.2,1.9,4.2,4.2v14.2"/>
			<path class="st4" d="M-496.4,141.5h-10.8c-1.6,0-2.8-1.3-2.8-2.8v-22.6c0-1.6,1.3-2.8,2.8-2.8h10.8c1.6,0,2.8,1.3,2.8,2.8v22.6
				C-493.6,140.2-494.9,141.5-496.4,141.5z"/>
			<circle class="st4" cx="-501.8" cy="137.7" r="1.5"/>
			<rect x="-507.4" y="116.6" class="st4" width="11.2" height="16.4"/>
		</g>
		<g>
			<circle class="st4" cx="-547" cy="-41.1" r="15.2"/>
			<circle class="st4" cx="-547" cy="-41.1" r="11.4"/>
			<polyline class="st4" points="-538.2,-59.8 -531.7,-60.9 -526.2,-55.3 -526.2,-49.9 -533.7,-48.5 			"/>
			<line class="st4" x1="-537.8" y1="-59.4" x2="-526.2" y2="-49.9"/>
			<polyline class="st4" points="-531.7,-60.9 -532,-54.7 -526.2,-55.3 			"/>
			<line class="st4" x1="-538.2" y1="-59.8" x2="-538.2" y2="-53.6"/>
			<line class="st4" x1="-536.5" y1="-52.2" x2="-535" y2="-57.1"/>
			<line class="st4" x1="-535.6" y1="-51.2" x2="-532" y2="-54.7"/>
			<line class="st4" x1="-534.6" y1="-49.9" x2="-529.1" y2="-52.2"/>
		</g>
		<path class="st9" d="M-558.2-64.8c-0.9-1.8-2.5-4.2-5.3-5.5c2.8-1.3,4.5-3.7,5.3-5.5c0.9,1.8,2.5,4.2,5.3,5.5
			C-555.8-69-557.4-66.6-558.2-64.8z"/>
	</g>
</g>
</svg>
