<!-- Generator: Adobe Illustrator 19.0.0, SVG Export Plug-In  -->
<svg version="1.1"
	 xmlns="http://www.w3.org/2000/svg" xmlns:xlink="http://www.w3.org/1999/xlink" xmlns:a="http://ns.adobe.com/AdobeSVGViewerExtensions/3.0/"
	 x="0px" y="0px" width="476px" height="274px" viewBox="0 0 476 274" style="enable-background:new 0 0 476 274;"
	 xml:space="preserve">
<style type="text/css">
	.st0{fill:#D1D1D1;}
	.st1{fill:#9EA6A8;}
	.st2{fill:#FFFFFF;}
	.st3{fill:#FF6633;}
	.st4{fill:#AAA5A3;}
	.st5{fill:none;stroke:#D1D1D1;stroke-miterlimit:10;}
	.st6{fill:#33CCCC;}
	.st7{fill:#258986;}
	.st8{fill:#E3E3E3;stroke:#E3E3E3;stroke-width:1.5;stroke-miterlimit:10;}
	.st9{fill:#B6B7B7;}
	.st10{fill:#E3E3E3;stroke:#E3E3E3;stroke-width:1.5;stroke-linecap:round;stroke-linejoin:round;stroke-miterlimit:10;}
	.st11{fill:#FFFFFF;stroke:#E3E3E3;stroke-width:1.5;stroke-linecap:round;stroke-linejoin:round;stroke-miterlimit:10;}
	.st12{fill:#086A87;}
</style>
<defs>
</defs>
<g>
	<path class="st0" d="M432,262H44c-7.7,0-14-6.3-14-14V14c0-7.7,6.3-14,14-14h388c7.7,0,14,6.3,14,14v234
		C446,255.7,439.7,262,432,262z"/>
	<rect x="48.2" y="26" class="st1" width="377.6" height="236"/>
	<rect x="61.2" y="59" class="st2" width="352.3" height="173.3"/>
	<path class="st0" d="M0,246L0,246c0,15.4,12.6,28,28,28h420c15.4,0,28-12.6,28-28v0H0z"/>
	<rect x="61.2" y="31.7" class="st0" width="352.3" height="13.7"/>
	<rect x="61.2" y="45.3" class="st2" width="351.5" height="13.7"/>
	<circle class="st3" cx="72" cy="38.5" r="3.3"/>
	<circle class="st3" cx="82.7" cy="38.5" r="3.3"/>
	<circle class="st3" cx="93.5" cy="38.5" r="3.3"/>
</g>
<circle class="st2" cx="284.3" cy="189.6" r="2.9"/>
<path class="st4" d="M302.5,260.7H191.9c-4,0-7.4-3.3-7.4-7.4l0,0c0-4,3.3-7.4,7.4-7.4h110.6c4,0,7.4,3.3,7.4,7.4l0,0
	C309.8,257.4,306.5,260.7,302.5,260.7z"/>
<rect x="118.9" y="49.9" class="st5" width="176.5" height="19"/>
<rect x="295.4" y="49.9" class="st3" width="35.5" height="19"/>
<g>
	<path class="st1" d="M124.8,53c0-0.7,0.4-1.1,1.1-1.1c0.7,0,1.1,0.4,1.1,1.1c0,0.3-0.1,0.6-0.3,0.8c-0.2,0.2-0.5,0.3-0.8,0.3
		C125.1,54.1,124.8,53.7,124.8,53z M126.9,63.3h-2.1v-8.2h2.1V63.3z"/>
	<path class="st1" d="M133.2,63.4c-0.9,0-1.6-0.3-2.1-1H131c0.1,0.7,0.1,1.1,0.1,1.2v3.3h-2.1V55.1h1.7l0.3,1.1h0.1
		c0.5-0.8,1.2-1.2,2.1-1.2c0.9,0,1.6,0.4,2.1,1.1s0.8,1.8,0.8,3.1c0,0.9-0.1,1.6-0.4,2.3s-0.6,1.1-1,1.5
		C134.3,63.3,133.8,63.4,133.2,63.4z M132.6,56.7c-0.5,0-0.9,0.2-1.1,0.5s-0.4,0.9-0.4,1.7v0.2c0,0.9,0.1,1.5,0.4,1.9
		c0.2,0.4,0.6,0.6,1.1,0.6c0.9,0,1.4-0.8,1.4-2.5c0-0.8-0.1-1.4-0.3-1.8C133.4,56.9,133.1,56.7,132.6,56.7z"/>
	<path class="st1" d="M142,55c0.3,0,0.5,0,0.7,0.1l-0.2,2.1c-0.2,0-0.4-0.1-0.6-0.1c-0.7,0-1.2,0.2-1.5,0.5
		c-0.4,0.4-0.5,0.9-0.5,1.5v4.2h-2.1v-8.2h1.6l0.3,1.4h0.1c0.2-0.5,0.5-0.8,0.9-1.1S141.5,55,142,55z"/>
	<path class="st1" d="M144,53c0-0.7,0.4-1.1,1.1-1.1c0.7,0,1.1,0.4,1.1,1.1c0,0.3-0.1,0.6-0.3,0.8c-0.2,0.2-0.5,0.3-0.8,0.3
		C144.3,54.1,144,53.7,144,53z M146.1,63.3H144v-8.2h2.1V63.3z"/>
	<path class="st1" d="M151.3,63.4c-2.3,0-3.5-1.4-3.5-4.2c0-1.4,0.3-2.5,1-3.2c0.6-0.7,1.6-1.1,2.7-1.1c0.9,0,1.7,0.2,2.3,0.6
		l-0.6,1.7c-0.3-0.1-0.6-0.3-0.9-0.3c-0.3-0.1-0.6-0.1-0.8-0.1c-1.1,0-1.6,0.8-1.6,2.5c0,1.6,0.5,2.4,1.6,2.4c0.4,0,0.8-0.1,1.1-0.2
		c0.3-0.1,0.7-0.3,1-0.5v1.9c-0.3,0.2-0.7,0.4-1,0.5C152.3,63.4,151.8,63.4,151.3,63.4z"/>
	<path class="st1" d="M158.7,63.4c-1.2,0-2.2-0.4-2.8-1.1s-1-1.8-1-3.1c0-1.4,0.3-2.4,0.9-3.2s1.5-1.1,2.6-1.1c1.1,0,1.9,0.3,2.5,1
		c0.6,0.7,0.9,1.6,0.9,2.7v1.1H157c0,0.6,0.2,1.1,0.5,1.5c0.3,0.4,0.8,0.5,1.4,0.5c0.5,0,0.9-0.1,1.3-0.2c0.4-0.1,0.8-0.3,1.3-0.5
		v1.7c-0.4,0.2-0.7,0.3-1.2,0.4C159.8,63.4,159.3,63.4,158.7,63.4z M158.5,56.5c-0.4,0-0.8,0.2-1,0.5c-0.2,0.3-0.4,0.7-0.4,1.3h2.9
		c0-0.6-0.1-1-0.4-1.3C159.2,56.7,158.9,56.5,158.5,56.5z"/>
	<path class="st1" d="M163.2,62.2c0-0.4,0.1-0.7,0.3-0.9s0.5-0.3,0.9-0.3c0.4,0,0.7,0.1,0.9,0.3c0.2,0.2,0.3,0.5,0.3,0.9
		c0,0.4-0.1,0.7-0.3,0.9c-0.2,0.2-0.5,0.3-0.9,0.3c-0.4,0-0.7-0.1-0.9-0.3C163.3,63,163.2,62.6,163.2,62.2z"/>
	<path class="st1" d="M174.2,63.3h-2.1v-4.8c0-0.6-0.1-1-0.3-1.3c-0.2-0.3-0.5-0.4-0.9-0.4c-0.5,0-0.9,0.2-1.1,0.6
		c-0.2,0.4-0.4,1.1-0.4,2.1v3.9h-2.1v-8.2h1.6l0.3,1h0.1c0.2-0.4,0.5-0.7,0.9-0.9c0.4-0.2,0.8-0.3,1.3-0.3c1.1,0,1.9,0.4,2.3,1.2
		h0.2c0.2-0.4,0.5-0.7,0.9-0.9s0.8-0.3,1.3-0.3c0.9,0,1.5,0.2,1.9,0.7c0.4,0.5,0.7,1.2,0.7,2.3v5.3h-2.1v-4.8c0-0.6-0.1-1-0.3-1.3
		c-0.2-0.3-0.5-0.4-0.9-0.4c-0.5,0-0.9,0.2-1.1,0.6c-0.2,0.4-0.4,1-0.4,1.9V63.3z"/>
	<path class="st1" d="M179.9,55.1h2.2l1.4,4.6c0.1,0.4,0.2,0.9,0.2,1.4h0c0-0.5,0.1-1,0.3-1.4l1.4-4.6h2.2l-3.2,9.2
		c-0.3,0.9-0.7,1.5-1.2,1.9s-1.2,0.6-1.9,0.6c-0.4,0-0.7,0-1-0.1V65c0.2,0.1,0.5,0.1,0.8,0.1c0.4,0,0.7-0.1,1-0.4
		c0.3-0.2,0.5-0.6,0.6-1.1l0.1-0.4L179.9,55.1z"/>
</g>
<rect x="131.8" y="94.7" class="st5" width="280.8" height="137.6"/>
<rect x="61.2" y="43.1" class="st6" width="352.3" height="51.6"/>
<rect x="161.3" y="58.5" class="st2" width="134.1" height="20.7"/>
<rect x="295.4" y="58.5" class="st7" width="37" height="20.7"/>
<rect x="140.4" y="113.6" class="st6" width="50.1" height="6.9"/>
<rect x="140.4" y="124.3" class="st6" width="71.9" height="3.5"/>
<rect x="140.4" y="134" class="st6" width="71.9" height="3.5"/>
<rect x="140.4" y="140.8" class="st6" width="71.9" height="3.5"/>
<rect x="142.9" y="150.7" class="st6" width="47.6" height="58.3"/>
<rect x="196.3" y="150.7" class="st6" width="47.6" height="58.3"/>
<g>
	<rect x="73.5" y="117.9" class="st8" width="37.8" height="8.6"/>
	<rect x="74.6" y="162.5" class="st8" width="37.8" height="8.6"/>
	<rect x="74.6" y="155.2" class="st9" width="37.8" height="3.1"/>
	<line class="st10" x1="74.6" y1="117.7" x2="105.2" y2="117.7"/>
	<line class="st10" x1="74.6" y1="122.2" x2="105.2" y2="122.2"/>
	<line class="st10" x1="74.6" y1="131.1" x2="105.2" y2="131.1"/>
	<line class="st10" x1="74.6" y1="135.5" x2="105.2" y2="135.5"/>
	<line class="st10" x1="74.6" y1="140" x2="105.2" y2="140"/>
	<line class="st10" x1="74.6" y1="144.4" x2="105.2" y2="144.4"/>
	<line class="st10" x1="74.6" y1="175.3" x2="105.2" y2="175.3"/>
	<line class="st10" x1="74.6" y1="179.8" x2="105.2" y2="179.8"/>
	<line class="st10" x1="74.6" y1="184.2" x2="105.2" y2="184.2"/>
	<line class="st10" x1="74.6" y1="188.7" x2="105.2" y2="188.7"/>
	<line class="st10" x1="74.6" y1="193.1" x2="105.2" y2="193.1"/>
	<line class="st10" x1="74.6" y1="197.6" x2="105.2" y2="197.6"/>
	<line class="st10" x1="74.6" y1="202" x2="105.2" y2="202"/>
	<line class="st10" x1="74.6" y1="148.9" x2="105.2" y2="148.9"/>
	<path class="st11" d="M83.2,159.1h-5.4c-0.7,0-1.3-0.6-1.3-1.3v-2.3c0-0.7,0.6-1.3,1.3-1.3h5.4c0.7,0,1.3,0.6,1.3,1.3v2.3
		C84.5,158.5,83.9,159.1,83.2,159.1z"/>
	<path class="st11" d="M108.9,159.1h-5.4c-0.7,0-1.3-0.6-1.3-1.3v-2.3c0-0.7,0.6-1.3,1.3-1.3h5.4c0.7,0,1.3,0.6,1.3,1.3v2.3
		C110.3,158.5,109.7,159.1,108.9,159.1z"/>
	<circle class="st9" cx="78.1" cy="211.8" r="3.5"/>
	<circle class="st6" cx="87" cy="211.8" r="3.5"/>
	<circle class="st3" cx="95.8" cy="211.8" r="3.5"/>
	<circle class="st12" cx="104.7" cy="211.8" r="3.5"/>
	<circle class="st8" cx="80.3" cy="106.8" r="5.7"/>
	<circle class="st8" cx="95.8" cy="106.8" r="5.7"/>
</g>
</svg>