<?xml version="1.0" encoding="utf-8"?>
<!-- Generator: Adobe Illustrator 19.0.0, SVG Export Plug-In . SVG Version: 6.00 Build 0)  -->
<svg version="1.1" id="Layer_1" xmlns="http://www.w3.org/2000/svg" xmlns:xlink="http://www.w3.org/1999/xlink" x="0px" y="0px"
	 viewBox="698.7 -130 228.1 223.3" style="enable-background:new 698.7 -130 228.1 223.3;" xml:space="preserve">
<style type="text/css">
	.st0{fill:#E3E3E3;stroke:#E3E3E3;stroke-width:0.9456;stroke-miterlimit:10;}
	.st1{fill:#3F3F3F;}
	.st2{fill:#33CCCC;}
	.st3{fill:none;stroke:#33CCCC;stroke-width:1.5;stroke-miterlimit:10;}
</style>
<rect x="699.2" y="-129.5" class="st0" width="227.1" height="222.4"/>
<g>
	<path class="st1" d="M719.6-9.6h1.7l3,9.2c0.4,1.2,0.7,2.2,0.8,3.1c0.1-0.8,0.4-1.9,0.8-3.2l2.9-9.1h1.8l-4.7,14.3h-1.7L719.6-9.6z
		"/>
	<path class="st1" d="M740.6-0.7c0,1.8-0.4,3.1-1.2,4.1c-0.8,1-1.9,1.5-3.4,1.5c-0.9,0-1.7-0.2-2.4-0.7c-0.7-0.5-1.2-1.1-1.6-1.9
		s-0.6-1.8-0.6-2.9c0-1.7,0.4-3.1,1.2-4.1s1.9-1.5,3.4-1.5c0.6,0,1.2,0.1,1.8,0.4c0.5,0.2,1,0.6,1.4,1c0.3-0.1,0.5-0.3,0.7-0.5
		c0.2-0.2,0.3-0.5,0.4-0.8c0.1-0.3,0.1-0.8,0.1-1.5h1.7l0.1,0.2c-0.2,1-0.5,1.9-0.9,2.4s-0.9,1-1.5,1.2
		C740.3-2.8,740.6-1.8,740.6-0.7z M733.1-0.7c0,1.4,0.2,2.4,0.7,3.1s1.2,1,2.2,1c1,0,1.7-0.3,2.2-1c0.5-0.7,0.7-1.7,0.7-3.1
		c0-1.3-0.2-2.3-0.7-3c-0.5-0.7-1.2-1-2.2-1c-1,0-1.7,0.3-2.2,1S733.1-2,733.1-0.7z M734.9-7.6c0.2-0.3,0.5-0.8,0.9-1.3
		c0.4-0.6,0.6-1.1,0.9-1.6h1.9v0.2c-0.3,0.4-0.7,0.9-1.2,1.6s-1,1.1-1.4,1.4h-1.1V-7.6z"/>
	<path class="st1" d="M743.2-8.9c0-0.4,0.1-0.7,0.3-0.8s0.4-0.3,0.7-0.3c0.3,0,0.5,0.1,0.7,0.3s0.3,0.5,0.3,0.8
		c0,0.4-0.1,0.7-0.3,0.8s-0.4,0.3-0.7,0.3c-0.3,0-0.5-0.1-0.7-0.3S743.2-8.5,743.2-8.9z M744.9,4.7h-1.6V-6h1.6V4.7z"/>
	<path class="st1" d="M759.5,4.7v-6.9c0-0.9-0.2-1.5-0.5-1.9c-0.4-0.4-0.9-0.6-1.7-0.6c-1,0-1.7,0.3-2.2,0.9s-0.7,1.6-0.7,3v5.5
		h-1.6v-15.2h1.6V-6c0,0.6,0,1.1-0.1,1.5h0.1c0.3-0.5,0.7-0.9,1.2-1.2c0.5-0.3,1.1-0.4,1.8-0.4c1.2,0,2.1,0.3,2.7,0.9s0.9,1.6,0.9,3
		v7H759.5z"/>
	<path class="st1" d="M772.8-0.7c0,1.8-0.4,3.1-1.2,4.1c-0.8,1-1.9,1.5-3.4,1.5c-0.9,0-1.7-0.2-2.4-0.7s-1.2-1.1-1.6-1.9
		s-0.6-1.8-0.6-2.9c0-1.7,0.4-3.1,1.2-4.1s1.9-1.5,3.4-1.5c0.6,0,1.2,0.1,1.8,0.4c0.5,0.2,1,0.6,1.4,1c0.3-0.1,0.5-0.3,0.7-0.5
		c0.2-0.2,0.3-0.5,0.4-0.8c0.1-0.3,0.1-0.8,0.1-1.5h1.7l0.1,0.2c-0.2,1-0.5,1.9-0.9,2.4s-0.9,1-1.5,1.2
		C772.6-2.8,772.8-1.8,772.8-0.7z M765.3-0.7c0,1.4,0.2,2.4,0.7,3.1s1.2,1,2.2,1c1,0,1.7-0.3,2.2-1c0.5-0.7,0.7-1.7,0.7-3.1
		c0-1.3-0.2-2.3-0.7-3c-0.5-0.7-1.2-1-2.2-1c-1,0-1.7,0.3-2.2,1C765.5-3,765.3-2,765.3-0.7z"/>
	<path class="st1" d="M782.2,4.7v-6.9c0-0.9-0.2-1.5-0.5-1.9c-0.4-0.4-0.9-0.6-1.7-0.6c-1,0-1.7,0.3-2.2,0.9s-0.7,1.6-0.7,3v5.6
		h-1.6V-6h1.3l0.2,1.5h0.1c0.3-0.5,0.7-0.9,1.3-1.2c0.5-0.3,1.2-0.4,1.8-0.4c1.2,0,2.1,0.3,2.7,1s0.9,1.6,0.9,3v7H782.2z"/>
	<path class="st2" d="M802.1,4.7h-4.4v-12l0-2l0.1-2.2c-0.7,0.7-1.2,1.2-1.5,1.4L793.9-8l-2.1-2.6l6.7-5.3h3.6V4.7z"/>
	<path class="st2" d="M815.4-8.5c2,0,3.6,0.6,4.8,1.7c1.2,1.1,1.8,2.7,1.8,4.6c0,2.3-0.7,4.1-2.1,5.3c-1.4,1.2-3.5,1.9-6.1,1.9
		c-2.3,0-4.2-0.4-5.6-1.1V0.1c0.7,0.4,1.6,0.7,2.6,1c1,0.3,1.9,0.4,2.8,0.4c2.7,0,4-1.1,4-3.3c0-2.1-1.4-3.1-4.1-3.1
		c-0.5,0-1.1,0-1.7,0.1c-0.6,0.1-1.1,0.2-1.5,0.3l-1.7-0.9l0.8-10.5h11.2v3.7h-7.4l-0.4,4.1l0.5-0.1C813.8-8.4,814.5-8.5,815.4-8.5z
		"/>
	<path class="st1" d="M832.9,3.5c0.2,0,0.5,0,0.7-0.1s0.5-0.1,0.6-0.2v1.3c-0.1,0.1-0.4,0.1-0.7,0.2c-0.3,0.1-0.6,0.1-1,0.1
		c-1.9,0-2.9-1.1-2.9-3.3v-6.2h-1.4v-0.8l1.4-0.7l0.6-2.3h1V-6h2.8v1.4h-2.8v6.2c0,0.6,0.1,1.1,0.4,1.4S832.4,3.5,832.9,3.5z"/>
	<path class="st1" d="M840.8-6.2c0.4,0,0.8,0,1.2,0.1l-0.2,1.6c-0.4-0.1-0.7-0.1-1.1-0.1c-0.5,0-1,0.2-1.5,0.5
		c-0.4,0.3-0.8,0.7-1,1.3c-0.3,0.6-0.4,1.2-0.4,1.8v5.7h-1.6V-6h1.3l0.2,2h0.1c0.4-0.7,0.8-1.2,1.3-1.6S840.2-6.2,840.8-6.2z"/>
	<path class="st1" d="M843.7-8.9c0-0.4,0.1-0.7,0.3-0.8s0.4-0.3,0.7-0.3c0.3,0,0.5,0.1,0.7,0.3s0.3,0.5,0.3,0.8
		c0,0.4-0.1,0.7-0.3,0.8s-0.4,0.3-0.7,0.3c-0.3,0-0.5-0.1-0.7-0.3S843.7-8.5,843.7-8.9z M845.4,4.7h-1.6V-6h1.6V4.7z"/>
	<path class="st1" d="M852.8,4.9c-1.5,0-2.6-0.5-3.5-1.5s-1.3-2.3-1.3-4c0-1.7,0.4-3.1,1.2-4.1c0.8-1,1.8-1.5,3.2-1.5
		c1.2,0,2.2,0.4,3,1.3c0.7,0.9,1.1,2,1.1,3.5v1.1h-6.8c0,1.2,0.3,2.1,0.9,2.8c0.5,0.6,1.3,0.9,2.3,0.9c0.5,0,1-0.1,1.5-0.2
		s1-0.3,1.7-0.6v1.5c-0.5,0.3-1.1,0.4-1.5,0.5C854,4.9,853.4,4.9,852.8,4.9z M849.2-7.6c0.7-0.9,1.3-1.5,1.6-1.9
		c0.3-0.4,0.5-0.8,0.7-1h1.7c0.3,0.7,1.1,1.7,2.3,3v0.2h-1.1c-0.5-0.3-1.2-0.9-2-1.8c-0.8,0.8-1.4,1.4-2,1.8h-1.1V-7.6z M852.4-4.8
		c-0.8,0-1.4,0.3-1.8,0.8c-0.4,0.5-0.7,1.3-0.8,2.3h5c0-1-0.2-1.8-0.6-2.3C853.7-4.5,853.1-4.8,852.4-4.8z M851.4,7.1
		c0-0.4,0.1-0.7,0.3-0.9s0.4-0.3,0.7-0.3c0.3,0,0.5,0.1,0.7,0.3s0.3,0.5,0.3,0.9c0,0.3-0.1,0.6-0.3,0.8c-0.2,0.2-0.4,0.3-0.7,0.3
		c-0.3,0-0.5-0.1-0.7-0.3S851.4,7.5,851.4,7.1z"/>
	<path class="st1" d="M860.5-6v6.9c0,0.9,0.2,1.5,0.5,1.9c0.4,0.4,0.9,0.6,1.7,0.6c1,0,1.7-0.3,2.2-0.9s0.7-1.6,0.7-3V-6h1.6V4.7
		h-1.3l-0.2-1.4h-0.1c-0.3,0.5-0.7,0.9-1.2,1.2c-0.5,0.3-1.2,0.4-1.9,0.4c-1.2,0-2.1-0.3-2.7-0.9s-0.9-1.6-0.9-3v-7H860.5z"/>
	<path class="st1" d="M881.5,1.8c0,1-0.3,1.8-1,2.3c-0.7,0.6-1.7,0.8-2.9,0.8c-1.3,0-2.3-0.2-3.1-0.7V2.6c1.1,0.6,2.1,0.9,3.1,0.9
		c0.8,0,1.4-0.1,1.8-0.4s0.6-0.7,0.6-1.2c0-0.4-0.2-0.8-0.5-1.1c-0.4-0.3-1-0.6-1.9-1c-0.9-0.4-1.6-0.7-2-1s-0.7-0.6-0.8-0.9
		s-0.3-0.8-0.3-1.3c0-0.9,0.3-1.6,1-2.1s1.6-0.8,2.7-0.8c1.1,0,2.2,0.2,3.1,0.7l-0.5,1.4c-1-0.5-1.9-0.7-2.7-0.7
		c-0.7,0-1.2,0.1-1.5,0.3c-0.3,0.2-0.5,0.5-0.5,1c0,0.4,0.1,0.7,0.4,1c0.3,0.3,1,0.6,2.1,1.1c0.8,0.3,1.4,0.6,1.8,0.9
		c0.4,0.3,0.7,0.6,0.9,1S881.5,1.3,881.5,1.8z"/>
	<path class="st1" d="M890,4.7l-0.3-1.5h-0.1c-0.5,0.7-1,1.1-1.5,1.4c-0.5,0.2-1.1,0.4-1.8,0.4c-1,0-1.7-0.3-2.3-0.8
		c-0.6-0.6-0.8-1.3-0.8-2.3c0-2.2,1.6-3.3,4.7-3.4l1.7-0.1v-0.6c0-0.8-0.2-1.4-0.5-1.8s-0.8-0.6-1.6-0.6c-0.5,0-1,0.1-1.5,0.3
		s-0.9,0.4-1.3,0.6l-0.5-1.3c0.5-0.3,1-0.5,1.6-0.7c0.6-0.2,1.2-0.2,1.7-0.2c1.2,0,2.1,0.3,2.7,0.9c0.6,0.6,0.9,1.5,0.9,2.7v7.3H890
		z M886.6,3.5c0.9,0,1.6-0.3,2.1-0.8s0.8-1.3,0.8-2.3v-1l-1.5,0.1c-1.1,0-2,0.2-2.5,0.6s-0.8,0.9-0.8,1.6c0,0.6,0.2,1,0.5,1.3
		C885.6,3.4,886.1,3.5,886.6,3.5z M889.5-9.9c0,0.9-0.5,1.5-1.5,1.7l-0.1,1.1h-1l-0.1-1.7c0.4-0.1,0.8-0.2,1.1-0.4s0.4-0.4,0.4-0.7
		c0-0.5-0.4-0.8-1.2-0.8c-0.3,0-0.6,0-0.9,0.1v-1c0.2-0.1,0.6-0.1,1-0.1C888.7-11.7,889.5-11.1,889.5-9.9z"/>
	<path class="st1" d="M900.9,4.7v-6.9c0-0.9-0.2-1.5-0.5-1.9c-0.4-0.4-0.9-0.6-1.7-0.6c-1,0-1.7,0.3-2.2,0.9s-0.7,1.6-0.7,3v5.6
		h-1.6V-6h1.3l0.2,1.5h0.1c0.3-0.5,0.7-0.9,1.3-1.2c0.5-0.3,1.2-0.4,1.8-0.4c1.2,0,2.1,0.3,2.7,1c0.6,0.6,0.9,1.6,0.9,3v7H900.9z"/>
	<path class="st1" d="M762.9,31.3c-1.3,0-2.3-0.5-3.1-1.6h-0.1l0,0.4c0,0.5,0.1,1,0.1,1.4v4.4h-1.6V20.4h1.3l0.2,1.5h0.1
		c0.4-0.6,0.8-1,1.3-1.3c0.5-0.3,1.1-0.4,1.7-0.4c1.3,0,2.3,0.5,3,1.5s1.1,2.3,1.1,4.1c0,1.8-0.4,3.1-1.1,4.1S764.2,31.3,762.9,31.3
		z M762.7,21.7c-1,0-1.7,0.3-2.1,0.9s-0.7,1.5-0.7,2.8v0.3c0,1.5,0.2,2.5,0.7,3.1c0.4,0.6,1.2,1,2.2,1c0.8,0,1.5-0.4,1.9-1.1
		s0.7-1.7,0.7-3c0-1.3-0.2-2.3-0.7-3S763.5,21.7,762.7,21.7z"/>
	<path class="st1" d="M776.3,31.1v-6.9c0-0.9-0.2-1.5-0.5-1.9c-0.4-0.4-0.9-0.6-1.7-0.6c-1,0-1.7,0.3-2.2,0.9s-0.7,1.6-0.7,3v5.5
		h-1.6V15.9h1.6v4.5c0,0.6,0,1.1-0.1,1.5h0.1c0.3-0.5,0.7-0.9,1.2-1.2c0.5-0.3,1.1-0.4,1.8-0.4c1.2,0,2.1,0.3,2.7,0.9s0.9,1.6,0.9,3
		v7H776.3z"/>
	<path class="st1" d="M787,31.1l-0.3-1.5h-0.1c-0.5,0.7-1,1.1-1.5,1.4c-0.5,0.2-1.1,0.4-1.8,0.4c-1,0-1.7-0.3-2.3-0.8
		c-0.6-0.6-0.8-1.3-0.8-2.3c0-2.2,1.6-3.3,4.7-3.4l1.7-0.1V24c0-0.8-0.2-1.4-0.5-1.8s-0.8-0.6-1.6-0.6c-0.5,0-1,0.1-1.5,0.3
		s-0.9,0.4-1.3,0.6l-0.5-1.3c0.5-0.3,1-0.5,1.6-0.7c0.6-0.2,1.2-0.2,1.7-0.2c1.2,0,2.1,0.3,2.7,0.9c0.6,0.6,0.9,1.5,0.9,2.7v7.3H787
		z M787.4,19h-0.9c-0.7-0.5-1.3-1-1.9-1.6c-0.7,0.7-1.3,1.2-1.9,1.6h-0.9v-0.2c0.3-0.4,0.6-0.8,1-1.2c0.4-0.4,0.7-0.9,1-1.3h1.7
		c0.4,0.7,1.1,1.5,1.9,2.6V19z M783.7,29.9c0.9,0,1.6-0.3,2.1-0.8s0.8-1.3,0.8-2.3v-1l-1.5,0.1c-1.1,0-2,0.2-2.5,0.6
		s-0.8,0.9-0.8,1.6c0,0.6,0.2,1,0.5,1.3C782.7,29.8,783.1,29.9,783.7,29.9z M788.9,15.1c0,0.7-0.4,1.1-1.1,1.3l-0.1,0.8H787
		l-0.1-1.3c0.4-0.1,0.6-0.1,0.8-0.2s0.3-0.3,0.3-0.5c0-0.4-0.3-0.6-0.9-0.6c-0.3,0-0.5,0-0.6,0.1v-0.8c0.1,0,0.4-0.1,0.7-0.1
		C788.3,13.7,788.9,14.2,788.9,15.1z"/>
	<path class="st1" d="M803.8,31.1v-6.9c0-1.7-0.7-2.5-2-2.5c-0.9,0-1.6,0.3-2,0.9s-0.6,1.5-0.6,2.7v5.9h-1.6v-6.9
		c0-0.8-0.2-1.5-0.5-1.9s-0.8-0.6-1.5-0.6c-0.9,0-1.6,0.3-2,0.9s-0.6,1.6-0.6,3v5.6h-1.6V20.4h1.3l0.2,1.5h0.1
		c0.3-0.5,0.7-0.9,1.2-1.2s1.1-0.4,1.7-0.4c1.5,0,2.5,0.6,3,1.8h0.1c0.3-0.6,0.8-1,1.3-1.3c0.5-0.3,1.2-0.5,1.9-0.5
		c1.1,0,1.9,0.3,2.5,0.9c0.6,0.6,0.8,1.6,0.8,3v7H803.8z"/>
	<path class="st1" d="M819.6,28.2c0,1-0.3,1.8-1,2.3c-0.7,0.6-1.7,0.8-2.9,0.8c-1.3,0-2.3-0.2-3.1-0.7V29c1.1,0.6,2.1,0.9,3.1,0.9
		c0.8,0,1.4-0.1,1.8-0.4s0.6-0.7,0.6-1.2c0-0.4-0.2-0.8-0.5-1.1c-0.4-0.3-1-0.6-1.9-1c-0.9-0.4-1.6-0.7-2-1s-0.7-0.6-0.8-0.9
		c-0.2-0.3-0.3-0.8-0.3-1.3c0-0.9,0.3-1.6,1-2.1c0.7-0.5,1.6-0.8,2.7-0.8c1.1,0,2.2,0.2,3.1,0.7l-0.5,1.4c-1-0.5-1.9-0.7-2.7-0.7
		c-0.7,0-1.2,0.1-1.5,0.3c-0.3,0.2-0.5,0.5-0.5,1c0,0.4,0.2,0.7,0.4,1s1,0.6,2.1,1.1c0.8,0.3,1.4,0.6,1.8,0.9s0.7,0.6,0.9,1
		S819.6,27.7,819.6,28.2z"/>
	<path class="st1" d="M828.1,31.1l-0.3-1.5h-0.1c-0.5,0.7-1,1.1-1.5,1.4c-0.5,0.2-1.1,0.4-1.8,0.4c-1,0-1.7-0.3-2.3-0.8
		s-0.8-1.3-0.8-2.3c0-2.2,1.6-3.3,4.7-3.4l1.7-0.1V24c0-0.8-0.2-1.4-0.5-1.8s-0.8-0.6-1.6-0.6c-0.5,0-1,0.1-1.5,0.3
		c-0.5,0.2-0.9,0.4-1.3,0.6l-0.5-1.3c0.5-0.3,1-0.5,1.6-0.7c0.6-0.2,1.2-0.2,1.7-0.2c1.2,0,2.1,0.3,2.7,0.9s0.9,1.5,0.9,2.7v7.3
		H828.1z M826.9,15.6c-0.2,0-0.4,0-0.6-0.1c-0.2-0.1-0.4-0.2-0.6-0.3c-0.2-0.1-0.4-0.2-0.6-0.3c-0.2-0.1-0.4-0.1-0.5-0.1
		c-0.2,0-0.4,0.1-0.5,0.2c-0.1,0.1-0.2,0.4-0.3,0.7h-0.8c0.1-0.7,0.3-1.2,0.6-1.6c0.3-0.4,0.7-0.6,1.1-0.6c0.2,0,0.4,0,0.7,0.1
		c0.2,0.1,0.4,0.2,0.6,0.3c0.2,0.1,0.4,0.2,0.6,0.3s0.4,0.1,0.5,0.1c0.2,0,0.4-0.1,0.5-0.2s0.2-0.4,0.3-0.7h0.8
		c-0.1,0.7-0.3,1.2-0.6,1.6C827.7,15.4,827.3,15.6,826.9,15.6z M825.6,19c-1.7,0-2.6-0.9-2.7-2.6h1c0,0.4,0.2,0.8,0.4,1
		s0.7,0.3,1.3,0.3c0.6,0,1-0.1,1.3-0.3c0.3-0.2,0.4-0.5,0.5-0.9h1c-0.1,0.8-0.4,1.5-0.8,1.9S826.4,19,825.6,19z M824.8,29.9
		c0.9,0,1.6-0.3,2.1-0.8c0.5-0.5,0.8-1.3,0.8-2.3v-1l-1.5,0.1c-1.1,0-2,0.2-2.5,0.6s-0.8,0.9-0.8,1.6c0,0.6,0.2,1,0.5,1.3
		S824.2,29.9,824.8,29.9z"/>
	<path class="st1" d="M839.1,31.1v-6.9c0-0.9-0.2-1.5-0.5-1.9s-0.9-0.6-1.7-0.6c-1,0-1.7,0.3-2.2,0.9c-0.5,0.6-0.7,1.6-0.7,3v5.6
		h-1.6V20.4h1.3l0.2,1.5h0.1c0.3-0.5,0.7-0.9,1.3-1.2s1.2-0.4,1.8-0.4c1.2,0,2.1,0.3,2.7,1c0.6,0.6,0.9,1.6,0.9,3v7H839.1z"/>
	<path class="st1" d="M852.4,31.3c-1.4,0-2.5-0.5-3.3-1.4c-0.8-0.9-1.2-2.3-1.2-4.1c0-1.8,0.4-3.2,1.2-4.2c0.8-1,1.9-1.5,3.4-1.5
		c0.5,0,1,0.1,1.4,0.2c0.5,0.1,0.9,0.2,1.2,0.4l-0.5,1.5c-0.8-0.3-1.5-0.5-2.1-0.5c-1,0-1.7,0.3-2.2,1s-0.7,1.7-0.7,3
		c0,1.3,0.2,2.3,0.7,3s1.2,1,2.1,1c0.9,0,1.7-0.2,2.6-0.6v1.6C854.3,31.1,853.4,31.3,852.4,31.3z"/>
	<path class="st1" d="M865.9,25.7c0,1.8-0.4,3.1-1.2,4.1s-1.9,1.5-3.4,1.5c-0.9,0-1.7-0.2-2.4-0.7c-0.7-0.5-1.2-1.1-1.6-1.9
		c-0.4-0.8-0.6-1.8-0.6-2.9c0-1.7,0.4-3.1,1.2-4.1s1.9-1.5,3.4-1.5c1.4,0,2.5,0.5,3.3,1.5C865.5,22.7,865.9,24,865.9,25.7z
		 M858.4,25.7c0,1.3,0.2,2.4,0.7,3.1c0.5,0.7,1.2,1,2.2,1c0.9,0,1.7-0.4,2.1-1c0.5-0.7,0.7-1.7,0.7-3.1s-0.2-2.4-0.7-3
		c-0.5-0.7-1.2-1-2.2-1C859.4,21.7,858.4,23,858.4,25.7z M860,18.8c0.2-0.3,0.5-0.8,0.9-1.3c0.4-0.6,0.6-1.1,0.9-1.6h1.9V16
		c-0.3,0.4-0.7,0.9-1.2,1.6s-1,1.1-1.4,1.4H860V18.8z"/>
</g>
<g>
	<rect x="796.8" y="-82.7" class="st3" width="39.2" height="45.9"/>
	<path class="st3" d="M804.4-78.7c0-5.3,4.3-9.6,9.6-9.6s9.6,4.3,9.6,9.6"/>
	<path class="st3" d="M812.1-78.7c0-5.3,4.3-9.6,9.6-9.6s9.6,4.3,9.6,9.6"/>
	<rect x="826.5" y="-82.7" class="st3" width="9.4" height="45.9"/>
</g>
</svg>
