<?xml version="1.0" encoding="utf-8"?>
<!-- Generator: Adobe Illustrator 19.0.0, SVG Export Plug-In . SVG Version: 6.00 Build 0)  -->
<svg version="1.1" id="Layer_1" xmlns="http://www.w3.org/2000/svg" xmlns:xlink="http://www.w3.org/1999/xlink" x="0px" y="0px"
	 viewBox="-93.1 756 694.8 208.3" style="enable-background:new -93.1 756 694.8 208.3;" xml:space="preserve">
<style type="text/css">
	.st0{fill:#086A87;stroke:#086A87;stroke-width:1.5;stroke-linecap:round;stroke-linejoin:round;stroke-miterlimit:10;}
	.st1{fill:#0B90B8;}
	.st2{fill:#FFFFFF;}
</style>
<polygon class="st0" points="601,931.4 561.6,963.5 -92.3,963.5 -92.3,756.7 601,756.7 "/>
<polygon class="st1" points="562.1,963.8 601.8,931.3 564.5,928.8 "/>
<g>
	<path class="st2" d="M215.6,810.2v-20h3.9v16.5h7.5v3.5H215.6z"/>
	<path class="st2" d="M239.7,810.2l-0.5-2H239c-0.4,0.7-1,1.2-1.7,1.6s-1.6,0.6-2.6,0.6c-1.7,0-2.9-0.5-3.7-1.4
		c-0.8-1-1.3-2.3-1.3-4.1v-10h3.8v8.9c0,1.1,0.2,1.9,0.5,2.5s0.9,0.8,1.7,0.8c1.1,0,1.8-0.4,2.3-1.2s0.7-2.1,0.7-3.9v-7.2h3.8v1.6
		c0.6-0.2,1.1-0.6,1.4-1.3c0.3-0.7,0.5-1.5,0.5-2.6h3.8l0.2,0.3c-0.3,1.4-0.6,2.5-1.1,3.3c-0.5,0.8-1.1,1.4-1.8,1.8s-1.7,0.8-2.9,1
		v11.2H239.7z"/>
	<path class="st2" d="M259.3,810.2l-0.5-2h-0.2c-0.4,0.7-1,1.3-1.7,1.6s-1.6,0.6-2.6,0.6c-1.7,0-2.9-0.5-3.7-1.4
		c-0.8-1-1.3-2.3-1.3-4.1v-10h3.8v8.9c0,1.1,0.2,1.9,0.5,2.5c0.4,0.6,0.9,0.8,1.7,0.8c1.1,0,1.8-0.4,2.3-1.2s0.7-2.1,0.7-3.9v-7.2
		h3.8v15.3H259.3z"/>
	<path class="st2" d="M270.9,794.9h4.2l2.7,8.6c0.2,0.7,0.4,1.6,0.5,2.7h0.1c0.1-0.9,0.3-1.8,0.5-2.7l2.6-8.6h4.1l-5.9,17.2
		c-0.5,1.6-1.3,2.8-2.3,3.6c-1,0.8-2.2,1.2-3.5,1.2c-0.7,0-1.3-0.1-1.9-0.2v-3.3c0.5,0.1,1,0.2,1.5,0.2c0.7,0,1.3-0.2,1.8-0.7
		s0.9-1.1,1.2-2l0.2-0.8L270.9,794.9z M275.9,793.2v-0.4c1.4-1.8,2.4-3.2,3-4.1h4.3v0.3c-0.4,0.5-1.2,1.2-2.2,2.1
		c-1.1,0.9-1.9,1.6-2.5,2.1H275.9z"/>
	<path class="st2" d="M287,796.9c0-0.8,0.2-1.3,0.6-1.7s0.9-0.6,1.6-0.6c0.7,0,1.2,0.2,1.6,0.6s0.6,1,0.6,1.7c0,0.7-0.2,1.3-0.6,1.7
		s-0.9,0.6-1.6,0.6c-0.7,0-1.2-0.2-1.6-0.6C287.2,798.3,287,797.7,287,796.9z M287,808.2c0-0.8,0.2-1.3,0.6-1.7s0.9-0.6,1.6-0.6
		c0.7,0,1.2,0.2,1.6,0.6s0.6,1,0.6,1.7c0,0.7-0.2,1.3-0.6,1.7c-0.4,0.4-0.9,0.6-1.6,0.6c-0.7,0-1.2-0.2-1.6-0.6
		C287.2,809.5,287,809,287,808.2z"/>
	<path class="st2" d="M83.8,832h6.3v9.8c-1,0.3-2,0.6-3,0.8s-2.2,0.3-3.5,0.3c-2.8,0-5-0.9-6.5-2.7c-1.5-1.8-2.3-4.3-2.3-7.6
		c0-2.1,0.4-3.9,1.1-5.5c0.8-1.6,1.9-2.8,3.3-3.6c1.4-0.8,3.1-1.2,5.1-1.2c2,0,3.8,0.4,5.5,1.2l-0.9,2.2c-1.6-0.8-3.2-1.1-4.7-1.1
		c-2.2,0-3.9,0.7-5.1,2.2c-1.2,1.4-1.8,3.4-1.8,5.9c0,2.6,0.6,4.7,1.8,6s2.9,2.1,5.2,2.1c1.2,0,2.4-0.2,3.6-0.5v-5.9h-4V832z"/>
	<path class="st2" d="M94.1,823.5c0-0.5,0.1-0.9,0.4-1.2s0.6-0.4,0.9-0.4c0.4,0,0.7,0.1,0.9,0.4s0.4,0.6,0.4,1.2
		c0,0.5-0.1,0.9-0.4,1.2s-0.6,0.4-0.9,0.4c-0.4,0-0.7-0.1-0.9-0.4S94.1,824,94.1,823.5z M96.5,842.6h-2.3v-15h2.3V842.6z"/>
	<path class="st2" d="M109.4,842.6l-0.4-2.1h-0.1c-0.7,0.9-1.4,1.6-2.1,1.9c-0.7,0.3-1.5,0.5-2.6,0.5c-1.4,0-2.4-0.4-3.2-1.2
		s-1.2-1.9-1.2-3.3c0-3,2.2-4.6,6.6-4.8l2.3-0.1v-0.9c0-1.1-0.2-2-0.7-2.5c-0.5-0.5-1.2-0.8-2.2-0.8c-0.7,0-1.4,0.1-2.1,0.4
		c-0.6,0.2-1.3,0.5-1.8,0.8l-0.7-1.8c0.7-0.4,1.5-0.7,2.3-0.9c0.8-0.2,1.6-0.3,2.4-0.3c1.7,0,2.9,0.4,3.7,1.2
		c0.8,0.8,1.2,2.1,1.2,3.8v10.2H109.4z M104.8,840.9c1.3,0,2.3-0.4,3-1.1c0.7-0.7,1.1-1.8,1.1-3.2v-1.4l-2,0.1
		c-1.6,0.1-2.7,0.3-3.5,0.8s-1.1,1.2-1.1,2.3c0,0.8,0.2,1.4,0.7,1.8C103.3,840.7,104,840.9,104.8,840.9z"/>
	<path class="st2" d="M127.3,835c0,2.5-0.6,4.4-1.7,5.7c-1.1,1.4-2.7,2.1-4.7,2.1c-1.2,0-2.4-0.3-3.3-1s-1.7-1.5-2.2-2.7
		s-0.8-2.6-0.8-4.1c0-2.4,0.6-4.3,1.7-5.7s2.7-2,4.7-2c1.9,0,3.5,0.7,4.6,2.1S127.3,832.7,127.3,835z M116.9,835
		c0,1.9,0.3,3.3,1,4.3c0.7,1,1.7,1.5,3,1.5c1.3,0,2.3-0.5,3-1.5s1-2.4,1-4.3s-0.3-3.3-1-4.3c-0.7-1-1.7-1.4-3-1.4
		C118.2,829.4,116.9,831.3,116.9,835z"/>
	<path class="st2" d="M136.4,836.2V834h10.8v2.2H136.4z"/>
	<path class="st2" d="M166.5,842.6V833c0-1.2-0.3-2.1-0.7-2.7c-0.5-0.6-1.3-0.9-2.3-0.9c-1.4,0-2.4,0.4-3.1,1.3s-1,2.2-1,4.2v7.8
		h-2.3v-15h1.8l0.3,2.1h0.1c0.4-0.7,1-1.3,1.8-1.7c0.8-0.4,1.6-0.6,2.6-0.6c1.7,0,2.9,0.4,3.8,1.3s1.2,2.3,1.2,4.2v9.8H166.5z"/>
	<path class="st2" d="M182.5,842.6V833c0-1.2-0.3-2.1-0.7-2.7c-0.5-0.6-1.3-0.9-2.3-0.9c-1.4,0-2.4,0.4-3.1,1.3
		c-0.6,0.8-1,2.2-1,4.2v7.8H173v-21.3h2.3v6.2c0,0.8,0,1.5-0.1,2.1h0.2c0.4-0.7,1-1.3,1.7-1.7s1.6-0.6,2.6-0.6
		c1.7,0,2.9,0.4,3.8,1.3s1.3,2.3,1.3,4.2v9.8H182.5z"/>
	<path class="st2" d="M197.5,842.6l-0.4-2.1h-0.1c-0.7,0.9-1.4,1.6-2.1,1.9s-1.5,0.5-2.6,0.5c-1.4,0-2.4-0.4-3.2-1.2
		c-0.8-0.8-1.2-1.9-1.2-3.3c0-3,2.2-4.6,6.6-4.8l2.3-0.1v-0.9c0-1.1-0.2-2-0.7-2.5s-1.2-0.8-2.2-0.8c-0.7,0-1.4,0.1-2.1,0.4
		s-1.3,0.5-1.8,0.8l-0.7-1.8c0.7-0.4,1.5-0.7,2.3-0.9s1.6-0.3,2.4-0.3c1.7,0,2.9,0.4,3.7,1.2c0.8,0.8,1.2,2.1,1.2,3.8v10.2H197.5z
		 M189.5,825.3c1-1.2,1.8-2.1,2.2-2.7c0.4-0.6,0.7-1.1,0.9-1.5h2.3c0.4,0.9,1.5,2.3,3.2,4.2v0.3h-1.6c-0.8-0.5-1.7-1.3-2.8-2.5
		c-1.1,1.2-2,2-2.8,2.5h-1.5V825.3z M192.8,840.9c1.3,0,2.3-0.4,3-1.1s1.1-1.8,1.1-3.2v-1.4l-2,0.1c-1.6,0.1-2.7,0.3-3.5,0.8
		s-1.1,1.2-1.1,2.3c0,0.8,0.2,1.4,0.7,1.8C191.4,840.7,192,840.9,192.8,840.9z M192.2,845.9c0-0.5,0.1-0.9,0.4-1.2
		c0.3-0.3,0.6-0.4,0.9-0.4c0.4,0,0.7,0.1,0.9,0.4s0.4,0.6,0.4,1.2c0,0.5-0.1,0.9-0.4,1.1s-0.6,0.4-1,0.4c-0.4,0-0.7-0.1-1-0.4
		S192.2,846.4,192.2,845.9z"/>
	<path class="st2" d="M212.8,842.6V833c0-1.2-0.2-2.1-0.7-2.7s-1.3-0.9-2.3-0.9c-1.4,0-2.4,0.4-3.1,1.3s-1,2.2-1,4.2v7.8h-2.3v-15
		h1.8l0.3,2.1h0.1c0.4-0.7,1-1.3,1.8-1.7c0.8-0.4,1.6-0.6,2.6-0.6c1.7,0,2.9,0.4,3.8,1.3s1.2,2.3,1.2,4.2v9.8H212.8z"/>
	<path class="st2" d="M235.4,842.6V833c0-1.2-0.2-2.1-0.7-2.7c-0.5-0.6-1.3-0.9-2.3-0.9c-1.4,0-2.4,0.4-3.1,1.3s-1,2.2-1,4.2v7.8
		H226v-21.3h2.3v6.2c0,0.8,0,1.5-0.1,2.1h0.2c0.4-0.7,1-1.3,1.7-1.7s1.6-0.6,2.6-0.6c1.7,0,2.9,0.4,3.8,1.3c0.8,0.9,1.3,2.3,1.3,4.2
		v9.8H235.4z"/>
	<path class="st2" d="M250.4,842.6l-0.4-2.1h-0.1c-0.7,0.9-1.4,1.6-2.1,1.9c-0.7,0.3-1.5,0.5-2.6,0.5c-1.4,0-2.4-0.4-3.2-1.2
		c-0.8-0.8-1.2-1.9-1.2-3.3c0-3,2.2-4.6,6.6-4.8l2.3-0.1v-0.9c0-1.1-0.2-2-0.7-2.5c-0.5-0.5-1.2-0.8-2.2-0.8c-0.7,0-1.4,0.1-2.1,0.4
		s-1.3,0.5-1.8,0.8l-0.7-1.8c0.7-0.4,1.5-0.7,2.3-0.9c0.8-0.2,1.6-0.3,2.4-0.3c1.7,0,2.9,0.4,3.7,1.2c0.8,0.8,1.2,2.1,1.2,3.8v10.2
		H250.4z M248.3,825.6h-1.5c-0.6-0.5-1.3-1.3-2.1-2.1s-1.3-1.6-1.6-2.1v-0.3h2.7c0.3,0.6,0.6,1.3,1.1,2.2c0.5,0.8,0.9,1.5,1.3,2
		V825.6z M245.8,840.9c1.3,0,2.3-0.4,3-1.1s1.1-1.8,1.1-3.2v-1.4l-2,0.1c-1.6,0.1-2.7,0.3-3.5,0.8s-1.1,1.2-1.1,2.3
		c0,0.8,0.2,1.4,0.7,1.8C244.3,840.7,245,840.9,245.8,840.9z"/>
	<path class="st2" d="M265.7,842.6V833c0-1.2-0.2-2.1-0.7-2.7c-0.5-0.6-1.3-0.9-2.3-0.9c-1.4,0-2.4,0.4-3.1,1.3
		c-0.6,0.9-1,2.2-1,4.2v7.8h-2.3v-15h1.8l0.3,2.1h0.1c0.4-0.7,1-1.3,1.8-1.7s1.6-0.6,2.6-0.6c1.7,0,2.9,0.4,3.8,1.3
		c0.8,0.9,1.2,2.3,1.2,4.2v9.8H265.7z"/>
	<path class="st2" d="M281.5,842.4l0.1-1.8h-0.1c-0.9,1.5-2.4,2.3-4.3,2.3c-1.8,0-3.2-0.7-4.2-2c-1-1.4-1.5-3.3-1.5-5.7
		c0-2.4,0.5-4.3,1.5-5.7c1-1.4,2.4-2.1,4.1-2.1c1.9,0,3.3,0.8,4.3,2.3h0.1l0.3-2h1.8v15.3c0,2.2-0.5,3.8-1.5,4.9s-2.6,1.6-4.7,1.6
		c-2,0-3.7-0.3-5-1v-2.3c1.3,0.8,3,1.2,5.1,1.2c1.2,0,2.1-0.4,2.8-1.1s1-1.8,1-3.1V842.4z M277.5,840.8c1.4,0,2.4-0.4,3-1.2
		s0.9-2.1,0.9-3.9v-0.6c0-2-0.3-3.5-1-4.4s-1.7-1.4-3.1-1.4c-1.2,0-2.1,0.5-2.7,1.5s-0.9,2.4-0.9,4.3c0,1.9,0.3,3.3,0.9,4.3
		C275.4,840.4,276.3,840.8,277.5,840.8z"/>
	<path class="st2" d="M290.7,839.3l0.2,0.3c-0.5,2-1.2,4.1-2.2,6.5H287c0.5-2.3,1-4.6,1.3-6.9H290.7z"/>
	<path class="st2" d="M306.3,840.8c0.3,0,0.6,0,1-0.1c0.4-0.1,0.7-0.1,0.9-0.2v1.9c-0.2,0.1-0.5,0.2-1,0.3s-0.9,0.1-1.3,0.1
		c-2.7,0-4-1.5-4-4.6v-8.7h-1.9v-1.2l2-1l0.9-3.2h1.3v3.4h4v1.9h-4v8.7c0,0.9,0.2,1.5,0.6,2C305.1,840.6,305.6,840.8,306.3,840.8z"
		/>
	<path class="st2" d="M320.4,842.6V833c0-1.2-0.2-2.1-0.7-2.7c-0.5-0.6-1.3-0.9-2.3-0.9c-1.4,0-2.4,0.4-3.1,1.3s-1,2.2-1,4.2v7.8
		H311v-21.3h2.3v6.2c0,0.8,0,1.5-0.1,2.1h0.2c0.4-0.7,1-1.3,1.7-1.7s1.6-0.6,2.6-0.6c1.7,0,2.9,0.4,3.8,1.3c0.8,0.9,1.3,2.3,1.3,4.2
		v9.8H320.4z"/>
	<path class="st2" d="M335.4,842.6l-0.4-2.1h-0.1c-0.7,0.9-1.4,1.6-2.1,1.9c-0.7,0.3-1.5,0.5-2.6,0.5c-1.4,0-2.4-0.4-3.2-1.2
		s-1.2-1.9-1.2-3.3c0-3,2.2-4.6,6.6-4.8l2.3-0.1v-0.9c0-1.1-0.2-2-0.7-2.5s-1.2-0.8-2.2-0.8c-0.7,0-1.4,0.1-2.1,0.4
		s-1.3,0.5-1.8,0.8l-0.7-1.8c0.7-0.4,1.5-0.7,2.3-0.9s1.6-0.3,2.4-0.3c1.7,0,2.9,0.4,3.7,1.2c0.8,0.8,1.2,2.1,1.2,3.8v10.2H335.4z
		 M330.7,840.9c1.3,0,2.3-0.4,3-1.1s1.1-1.8,1.1-3.2v-1.4l-2,0.1c-1.6,0.1-2.7,0.3-3.5,0.8s-1.1,1.2-1.1,2.3c0,0.8,0.2,1.4,0.7,1.8
		C329.3,840.7,329.9,840.9,330.7,840.9z"/>
	<path class="st2" d="M350.7,842.6V833c0-1.2-0.3-2.1-0.7-2.7c-0.5-0.6-1.3-0.9-2.3-0.9c-1.4,0-2.4,0.4-3.1,1.3
		c-0.6,0.9-1,2.2-1,4.2v7.8h-2.3v-15h1.8l0.3,2.1h0.1c0.4-0.7,1-1.3,1.8-1.7s1.6-0.6,2.6-0.6c1.7,0,2.9,0.4,3.8,1.3s1.2,2.3,1.2,4.2
		v9.8H350.7z"/>
	<path class="st2" d="M366.6,842.6V833c0-1.2-0.2-2.1-0.7-2.7c-0.5-0.6-1.3-0.9-2.3-0.9c-1.4,0-2.4,0.4-3.1,1.3
		c-0.6,0.8-1,2.2-1,4.2v7.8h-2.3v-21.3h2.3v6.2c0,0.8,0,1.5-0.1,2.1h0.2c0.4-0.7,1-1.3,1.7-1.7s1.6-0.6,2.6-0.6
		c1.7,0,2.9,0.4,3.8,1.3c0.8,0.9,1.3,2.3,1.3,4.2v9.8H366.6z"/>
	<path class="st2" d="M384.4,840.8c0.3,0,0.6,0,1-0.1c0.4-0.1,0.7-0.1,0.9-0.2v1.9c-0.2,0.1-0.5,0.2-1,0.3s-0.9,0.1-1.3,0.1
		c-2.7,0-4-1.5-4-4.6v-8.7H378v-1.2l2-1l0.9-3.2h1.3v3.4h4v1.9h-4v8.7c0,0.9,0.2,1.5,0.6,2C383.2,840.6,383.7,840.8,384.4,840.8z"/>
	<path class="st2" d="M401.1,835c0,2.5-0.6,4.4-1.7,5.7c-1.1,1.4-2.7,2.1-4.7,2.1c-1.2,0-2.4-0.3-3.3-1c-1-0.6-1.7-1.5-2.2-2.7
		s-0.8-2.6-0.8-4.1c0-2.4,0.6-4.3,1.7-5.7c1.1-1.4,2.7-2,4.7-2c1.9,0,3.5,0.7,4.6,2.1S401.1,832.7,401.1,835z M390.7,835
		c0,1.9,0.3,3.3,1,4.3c0.7,1,1.7,1.5,3,1.5c1.3,0,2.3-0.5,3-1.5c0.7-1,1-2.4,1-4.3s-0.3-3.3-1-4.3c-0.7-1-1.7-1.4-3-1.4
		C392,829.4,390.7,831.3,390.7,835z"/>
	<path class="st2" d="M413.2,842.6l-0.4-2.1h-0.1c-0.7,0.9-1.4,1.6-2.1,1.9s-1.5,0.5-2.6,0.5c-1.4,0-2.4-0.4-3.2-1.2
		s-1.2-1.9-1.2-3.3c0-3,2.2-4.6,6.6-4.8l2.3-0.1v-0.9c0-1.1-0.2-2-0.7-2.5c-0.5-0.5-1.2-0.8-2.2-0.8c-0.7,0-1.4,0.1-2.1,0.4
		c-0.6,0.2-1.3,0.5-1.8,0.8l-0.7-1.8c0.7-0.4,1.5-0.7,2.3-0.9c0.8-0.2,1.6-0.3,2.4-0.3c1.7,0,2.9,0.4,3.7,1.2s1.2,2.1,1.2,3.8v10.2
		H413.2z M408.5,840.9c1.3,0,2.3-0.4,3-1.1c0.7-0.7,1.1-1.8,1.1-3.2v-1.4l-2,0.1c-1.6,0.1-2.7,0.3-3.5,0.8s-1.1,1.2-1.1,2.3
		c0,0.8,0.2,1.4,0.7,1.8C407.1,840.7,407.7,840.9,408.5,840.9z M408,825.3c0.3-0.4,0.7-1.1,1.2-1.9s0.9-1.6,1.2-2.3h2.7v0.3
		c-0.4,0.6-0.9,1.3-1.7,2.2s-1.4,1.5-2,2H408V825.3z"/>
	<path class="st2" d="M428.5,842.6V833c0-1.2-0.3-2.1-0.7-2.7s-1.3-0.9-2.3-0.9c-1.4,0-2.4,0.4-3.1,1.3s-1,2.2-1,4.2v7.8h-2.3v-15
		h1.8l0.3,2.1h0.1c0.4-0.7,1-1.3,1.8-1.7c0.8-0.4,1.6-0.6,2.6-0.6c1.7,0,2.9,0.4,3.8,1.3s1.2,2.3,1.2,4.2v9.8H428.5z"/>
	<path class="st2" d="M55.4,875l-5.2-15h2.4l2.9,8.8c0.6,1.8,0.9,3.1,1.1,4h0.1c0-0.1,0.1-0.3,0.1-0.4s0.1-0.3,0.1-0.5
		s0.4-1.2,0.9-3.1l2.9-8.8h2.4L58,875H55.4z"/>
	<path class="st2" d="M73.9,875l-0.4-2.1h-0.1c-0.7,0.9-1.4,1.6-2.1,1.9c-0.7,0.3-1.5,0.5-2.6,0.5c-1.4,0-2.4-0.4-3.2-1.2
		c-0.8-0.8-1.2-1.9-1.2-3.3c0-3,2.2-4.6,6.6-4.8l2.3-0.1V865c0-1.1-0.2-2-0.7-2.5c-0.5-0.5-1.2-0.8-2.2-0.8c-0.7,0-1.4,0.1-2.1,0.4
		s-1.3,0.5-1.8,0.8l-0.7-1.8c0.7-0.4,1.5-0.7,2.3-0.9c0.8-0.2,1.6-0.3,2.4-0.3c1.7,0,2.9,0.4,3.7,1.2s1.2,2.1,1.2,3.8V875H73.9z
		 M71.8,858h-1.5c-0.6-0.5-1.3-1.3-2.1-2.1s-1.3-1.6-1.6-2.1v-0.3h2.7c0.3,0.6,0.6,1.3,1.1,2.2c0.5,0.8,0.9,1.5,1.3,2V858z
		 M69.3,873.3c1.3,0,2.3-0.4,3-1.1s1.1-1.8,1.1-3.2v-1.4l-2,0.1c-1.6,0.1-2.7,0.3-3.5,0.8s-1.1,1.2-1.1,2.3c0,0.8,0.2,1.4,0.7,1.8
		S68.5,873.3,69.3,873.3z"/>
	<path class="st2" d="M92.1,875.3c-2,0-3.5-0.7-4.6-2s-1.7-3.2-1.7-5.7c0-2.5,0.6-4.5,1.7-5.8c1.1-1.4,2.7-2,4.8-2
		c0.7,0,1.3,0.1,2,0.2c0.7,0.2,1.2,0.3,1.6,0.6l-0.7,2.1c-1.2-0.5-2.2-0.7-3-0.7c-1.4,0-2.4,0.5-3.1,1.4c-0.7,1-1,2.4-1,4.3
		c0,1.8,0.3,3.2,1,4.2c0.7,1,1.6,1.4,2.9,1.4c1.2,0,2.4-0.3,3.6-0.9v2.2C94.7,875,93.5,875.3,92.1,875.3z"/>
	<path class="st2" d="M108.3,875v-9.6c0-1.2-0.2-2.1-0.7-2.7c-0.5-0.6-1.3-0.9-2.3-0.9c-1.4,0-2.4,0.4-3.1,1.3c-0.6,0.8-1,2.2-1,4.2
		v7.8h-2.3v-21.3h2.3v6.2c0,0.8,0,1.5-0.1,2.1h0.2c0.4-0.7,1-1.3,1.7-1.7s1.6-0.6,2.6-0.6c1.7,0,2.9,0.4,3.8,1.3s1.3,2.3,1.3,4.2
		v9.8H108.3z"/>
	<path class="st2" d="M114.7,857.7c0.3-0.4,0.7-1.1,1.2-1.9s0.9-1.6,1.2-2.3h2.7v0.3c-0.4,0.6-0.9,1.3-1.7,2.2s-1.4,1.5-2,2h-1.5
		V857.7z M117,875h-2.3v-15h2.3V875z"/>
	<path class="st2" d="M130.8,875v-9.6c0-1.2-0.2-2.1-0.7-2.7c-0.5-0.6-1.3-0.9-2.3-0.9c-1.4,0-2.4,0.4-3.1,1.3c-0.6,0.9-1,2.2-1,4.2
		v7.8h-2.3v-15h1.8l0.3,2.1h0.1c0.4-0.7,1-1.3,1.8-1.7c0.8-0.4,1.6-0.6,2.6-0.6c1.7,0,2.9,0.4,3.8,1.3c0.8,0.9,1.2,2.3,1.2,4.2v9.8
		H130.8z"/>
	<path class="st2" d="M146.7,875v-9.6c0-1.2-0.2-2.1-0.7-2.7c-0.5-0.6-1.3-0.9-2.3-0.9c-1.4,0-2.4,0.4-3.1,1.3s-1,2.2-1,4.2v7.8
		h-2.3v-21.3h2.3v6.2c0,0.8,0,1.5-0.1,2.1h0.2c0.4-0.7,1-1.3,1.7-1.7c0.8-0.4,1.6-0.6,2.6-0.6c1.7,0,2.9,0.4,3.8,1.3
		c0.8,0.9,1.3,2.3,1.3,4.2v9.8H146.7z"/>
	<path class="st2" d="M168.9,870.8c0,1.4-0.5,2.5-1.4,3.3s-2.3,1.2-4.1,1.2c-1.8,0-3.3-0.3-4.3-0.9v-2.2c1.5,0.8,3,1.2,4.4,1.2
		c1.1,0,2-0.2,2.5-0.6s0.8-0.9,0.8-1.6c0-0.6-0.2-1.1-0.7-1.5s-1.4-0.9-2.7-1.4c-1.3-0.5-2.2-1-2.7-1.4c-0.5-0.4-0.9-0.8-1.2-1.3
		c-0.2-0.5-0.4-1.1-0.4-1.8c0-1.2,0.5-2.2,1.4-2.9c0.9-0.7,2.2-1.1,3.8-1.1c1.6,0,3,0.3,4.4,1l-0.8,2c-1.4-0.6-2.7-1-3.8-1
		c-0.9,0-1.7,0.2-2.1,0.5s-0.7,0.8-0.7,1.3c0,0.5,0.2,1,0.6,1.4c0.4,0.4,1.4,0.9,2.9,1.5c1.1,0.5,2,0.9,2.5,1.3
		c0.5,0.4,1,0.9,1.2,1.4S168.9,870.1,168.9,870.8z"/>
	<path class="st2" d="M180.8,875l-0.4-2.1h-0.1c-0.7,0.9-1.4,1.6-2.1,1.9c-0.7,0.3-1.5,0.5-2.6,0.5c-1.4,0-2.4-0.4-3.2-1.2
		s-1.2-1.9-1.2-3.3c0-3,2.2-4.6,6.6-4.8l2.3-0.1V865c0-1.1-0.2-2-0.7-2.5c-0.5-0.5-1.2-0.8-2.2-0.8c-0.7,0-1.4,0.1-2.1,0.4
		c-0.6,0.2-1.3,0.5-1.8,0.8l-0.7-1.8c0.7-0.4,1.5-0.7,2.3-0.9c0.8-0.2,1.6-0.3,2.4-0.3c1.7,0,2.9,0.4,3.7,1.2s1.2,2.1,1.2,3.8V875
		H180.8z M176.1,873.3c1.3,0,2.3-0.4,3-1.1c0.7-0.7,1.1-1.8,1.1-3.2v-1.4l-2,0.1c-1.6,0.1-2.7,0.3-3.5,0.8s-1.1,1.2-1.1,2.3
		c0,0.8,0.2,1.4,0.7,1.8S175.3,873.3,176.1,873.3z M175.5,857.7c0.3-0.4,0.7-1.1,1.2-1.9c0.5-0.8,0.9-1.6,1.2-2.3h2.7v0.3
		c-0.4,0.6-0.9,1.3-1.7,2.2c-0.8,0.9-1.4,1.5-2,2h-1.5V857.7z"/>
	<path class="st2" d="M192.2,875.3c-2,0-3.5-0.7-4.6-2c-1.1-1.3-1.7-3.2-1.7-5.7c0-2.5,0.6-4.5,1.7-5.8s2.7-2,4.8-2
		c0.7,0,1.3,0.1,2,0.2s1.2,0.3,1.6,0.6l-0.7,2.1c-1.2-0.5-2.2-0.7-3-0.7c-1.4,0-2.4,0.5-3.1,1.4c-0.7,1-1,2.4-1,4.3
		c0,1.8,0.3,3.2,1,4.2c0.7,1,1.6,1.4,2.9,1.4c1.2,0,2.4-0.3,3.6-0.9v2.2C194.8,875,193.6,875.3,192.2,875.3z"/>
	<path class="st2" d="M208.4,875v-9.6c0-1.2-0.2-2.1-0.7-2.7s-1.3-0.9-2.3-0.9c-1.4,0-2.4,0.4-3.1,1.3c-0.6,0.8-1,2.2-1,4.2v7.8H199
		v-21.3h2.3v6.2c0,0.8,0,1.5-0.1,2.1h0.2c0.4-0.7,1-1.3,1.7-1.7c0.8-0.4,1.6-0.6,2.6-0.6c1.7,0,2.9,0.4,3.8,1.3
		c0.8,0.9,1.3,2.3,1.3,4.2v9.8H208.4z"/>
	<path class="st2" d="M226.5,875.3c-1.8,0-3.2-0.7-4.2-2s-1.5-3.2-1.5-5.7c0-2.5,0.5-4.4,1.5-5.7s2.4-2,4.2-2c1.9,0,3.3,0.7,4.3,2.2
		h0.2c0-0.1-0.1-0.4-0.1-0.9c0-0.5-0.1-0.9-0.1-1.3V858h-5.5v-1.8h5.5v-2.5h2.3v2.5h2v1.8h-2V875h-1.8l-0.3-2h-0.1
		C229.8,874.5,228.4,875.3,226.5,875.3z M226.9,873.2c1.4,0,2.4-0.4,3-1.2c0.6-0.8,0.9-2.1,0.9-4v-0.5c0-2.1-0.3-3.6-1-4.4
		s-1.6-1.3-3-1.3c-1.2,0-2.1,0.5-2.7,1.5c-0.6,1-0.9,2.4-0.9,4.3c0,1.8,0.3,3.2,0.9,4.2C224.7,872.7,225.7,873.2,226.9,873.2z"/>
	<path class="st2" d="M249.5,867.4c0,2.5-0.6,4.4-1.7,5.7c-1.1,1.4-2.7,2.1-4.7,2.1c-1.2,0-2.4-0.3-3.3-1c-1-0.6-1.7-1.5-2.2-2.7
		c-0.5-1.2-0.8-2.6-0.8-4.1c0-2.4,0.6-4.3,1.7-5.7c1.1-1.4,2.7-2,4.7-2c1.9,0,3.5,0.7,4.6,2.1S249.5,865.1,249.5,867.4z
		 M239.1,867.4c0,1.9,0.3,3.3,1,4.3s1.7,1.5,3,1.5c1.3,0,2.3-0.5,3-1.5c0.7-1,1-2.4,1-4.3s-0.3-3.3-1-4.3s-1.7-1.4-3-1.4
		C240.4,861.8,239.1,863.7,239.1,867.4z M247,858h-1.3c-0.9-0.7-1.8-1.4-2.7-2.3c-1,0.9-1.8,1.7-2.7,2.3h-1.3v-0.3
		c0.4-0.5,0.9-1.1,1.4-1.7s0.9-1.2,1.4-1.9h2.4c0.6,0.9,1.5,2.1,2.7,3.6V858z M249.2,852.5c0,0.9-0.5,1.5-1.6,1.8l-0.1,1.1h-1.1
		l-0.1-1.8c0.5-0.1,0.9-0.2,1.1-0.3c0.3-0.1,0.4-0.4,0.4-0.7c0-0.6-0.4-0.8-1.2-0.8c-0.4,0-0.7,0-0.9,0.1v-1.1
		c0.2-0.1,0.5-0.1,1-0.1C248.3,850.6,249.2,851.2,249.2,852.5z"/>
	<path class="st2" d="M252.9,855.9c0-0.5,0.1-0.9,0.4-1.2s0.6-0.4,0.9-0.4c0.4,0,0.7,0.1,0.9,0.4s0.4,0.6,0.4,1.2
		c0,0.5-0.1,0.9-0.4,1.2s-0.6,0.4-0.9,0.4c-0.4,0-0.7-0.1-0.9-0.4S252.9,856.4,252.9,855.9z M255.4,875h-2.3v-15h2.3V875z"/>
	<path class="st2" d="M271,873.2c0.3,0,0.6,0,1-0.1s0.7-0.1,0.9-0.2v1.9c-0.2,0.1-0.5,0.2-1,0.3s-0.9,0.1-1.3,0.1
		c-2.7,0-4-1.5-4-4.6v-8.7h-1.9v-1.2l2-1l0.9-3.2h1.3v3.4h4v1.9h-4v8.7c0,0.9,0.2,1.5,0.6,2C269.8,873,270.3,873.2,271,873.2z"/>
	<path class="st2" d="M282.1,859.7c0.6,0,1.2,0.1,1.6,0.2l-0.3,2.3c-0.5-0.1-1-0.2-1.5-0.2c-0.7,0-1.4,0.2-2,0.7
		c-0.6,0.4-1.1,1-1.5,1.8S278,866,278,867v8h-2.3v-15h1.9l0.3,2.7h0.1c0.5-1,1.2-1.7,1.9-2.3S281.3,859.7,282.1,859.7z"/>
	<path class="st2" d="M294.6,875l-0.4-2.1h-0.1c-0.7,0.9-1.4,1.6-2.1,1.9c-0.7,0.3-1.5,0.5-2.6,0.5c-1.4,0-2.4-0.4-3.2-1.2
		s-1.2-1.9-1.2-3.3c0-3,2.2-4.6,6.6-4.8l2.3-0.1V865c0-1.1-0.2-2-0.7-2.5c-0.5-0.5-1.2-0.8-2.2-0.8c-0.7,0-1.4,0.1-2.1,0.4
		c-0.6,0.2-1.3,0.5-1.8,0.8l-0.7-1.8c0.7-0.4,1.5-0.7,2.3-0.9c0.8-0.2,1.6-0.3,2.4-0.3c1.7,0,2.9,0.4,3.7,1.2s1.2,2.1,1.2,3.8V875
		H294.6z M289.9,873.3c1.3,0,2.3-0.4,3-1.1c0.7-0.7,1.1-1.8,1.1-3.2v-1.4l-2,0.1c-1.6,0.1-2.7,0.3-3.5,0.8s-1.1,1.2-1.1,2.3
		c0,0.8,0.2,1.4,0.7,1.8S289.1,873.3,289.9,873.3z M293.9,854.5c0,1.3-0.7,2.1-2.1,2.4l-0.1,1.5h-1.4l-0.2-2.4
		c0.6-0.1,1.1-0.3,1.5-0.5c0.4-0.2,0.6-0.5,0.6-1c0-0.7-0.6-1.1-1.7-1.1c-0.4,0-0.9,0-1.2,0.1v-1.4c0.3-0.1,0.8-0.2,1.4-0.2
		C292.9,852,293.9,852.8,293.9,854.5z"/>
	<path class="st2" d="M311.8,873.2c0.3,0,0.6,0,1-0.1s0.7-0.1,0.9-0.2v1.9c-0.2,0.1-0.5,0.2-1,0.3c-0.4,0.1-0.9,0.1-1.3,0.1
		c-2.7,0-4-1.5-4-4.6v-8.7h-1.9v-1.2l2-1l0.9-3.2h1.3v3.4h4v1.9h-4v8.7c0,0.9,0.2,1.5,0.6,2C310.6,873,311.1,873.2,311.8,873.2z"/>
	<path class="st2" d="M325.9,875v-9.6c0-1.2-0.2-2.1-0.7-2.7c-0.5-0.6-1.3-0.9-2.3-0.9c-1.4,0-2.4,0.4-3.1,1.3s-1,2.2-1,4.2v7.8
		h-2.3v-21.3h2.3v6.2c0,0.8,0,1.5-0.1,2.1h0.2c0.4-0.7,1-1.3,1.7-1.7s1.6-0.6,2.6-0.6c1.7,0,2.9,0.4,3.8,1.3s1.3,2.3,1.3,4.2v9.8
		H325.9z"/>
	<path class="st2" d="M334.5,860v9.7c0,1.2,0.3,2.1,0.7,2.7s1.3,0.9,2.3,0.9c1.4,0,2.4-0.4,3.1-1.3c0.6-0.9,1-2.2,1-4.1V860h2.3v15
		h-1.9l-0.3-2h-0.1c-0.4,0.7-1,1.3-1.7,1.7s-1.6,0.6-2.6,0.6c-1.7,0-2.9-0.4-3.8-1.3s-1.3-2.3-1.3-4.2V860H334.5z"/>
	<path class="st2" d="M360.3,867.4c0,2.5-0.6,4.4-1.7,5.7c-1.1,1.4-2.7,2.1-4.7,2.1c-1.2,0-2.4-0.3-3.3-1c-1-0.6-1.7-1.5-2.2-2.7
		c-0.5-1.2-0.8-2.6-0.8-4.1c0-2.4,0.6-4.3,1.7-5.7c1.1-1.4,2.7-2,4.7-2c1.9,0,3.5,0.7,4.6,2.1C359.7,863.2,360.3,865.1,360.3,867.4z
		 M349.5,857.7c1-1.2,1.8-2.1,2.2-2.7s0.7-1.1,0.9-1.5h2.3c0.4,0.9,1.5,2.3,3.2,4.2v0.3h-1.6c-0.8-0.5-1.7-1.3-2.8-2.5
		c-1.1,1.2-2,2-2.8,2.5h-1.5V857.7z M349.9,867.4c0,1.9,0.3,3.3,1,4.3s1.7,1.5,3,1.5c1.3,0,2.3-0.5,3-1.5c0.7-1,1-2.4,1-4.3
		s-0.3-3.3-1-4.3s-1.7-1.4-3-1.4C351.2,861.8,349.9,863.7,349.9,867.4z M352.6,878.3c0-0.5,0.1-0.9,0.4-1.2s0.6-0.4,0.9-0.4
		c0.4,0,0.7,0.1,0.9,0.4c0.3,0.3,0.4,0.6,0.4,1.2c0,0.5-0.1,0.9-0.4,1.1s-0.6,0.4-1,0.4c-0.4,0-0.7-0.1-1-0.4
		C352.7,879.2,352.6,878.8,352.6,878.3z"/>
	<path class="st2" d="M369.4,875.3c-2,0-3.5-0.7-4.6-2c-1.1-1.3-1.7-3.2-1.7-5.7c0-2.5,0.6-4.5,1.7-5.8c1.1-1.4,2.7-2,4.8-2
		c0.7,0,1.3,0.1,2,0.2s1.2,0.3,1.6,0.6l-0.7,2.1c-1.2-0.5-2.2-0.7-3-0.7c-1.4,0-2.4,0.5-3.1,1.4s-1,2.4-1,4.3c0,1.8,0.3,3.2,1,4.2
		s1.6,1.4,2.9,1.4c1.2,0,2.4-0.3,3.6-0.9v2.2C372,875,370.8,875.3,369.4,875.3z"/>
	<path class="st2" d="M387.8,875.3c-1.8,0-3.2-0.7-4.1-2.1c-1-1.4-1.5-3.3-1.5-5.7c0-2.4,0.5-4.4,1.5-5.7s2.4-2.1,4.2-2.1
		c1.9,0,3.3,0.8,4.3,2.3h0.1l0.3-2.1h1.8v21.7h-2.3v-6.4c0-1,0-1.8,0.1-2.3h-0.2C391.1,874.5,389.7,875.3,387.8,875.3z M388.2,873.2
		c1.3,0,2.3-0.4,3-1.2s0.9-2.1,1-4v-0.5c0-2.1-0.3-3.6-1-4.5c-0.6-0.9-1.6-1.3-3-1.3c-1.2,0-2.1,0.5-2.7,1.5c-0.6,1-0.9,2.4-0.9,4.3
		c0,1.8,0.3,3.2,0.9,4.2C386,872.7,387,873.2,388.2,873.2z"/>
	<path class="st2" d="M400.9,860v9.7c0,1.2,0.2,2.1,0.7,2.7c0.5,0.6,1.3,0.9,2.3,0.9c1.4,0,2.4-0.4,3.1-1.3s1-2.2,1-4.1V860h2.3v15
		h-1.9l-0.3-2H408c-0.4,0.7-1,1.3-1.7,1.7c-0.8,0.4-1.6,0.6-2.6,0.6c-1.7,0-2.9-0.4-3.8-1.3s-1.3-2.3-1.3-4.2V860H400.9z"/>
	<path class="st2" d="M412.5,860h2.4l3,8.5c0.6,1.9,1,3.2,1.2,4.1h0.1c0.1-0.3,0.2-1,0.5-1.9c0.3-0.9,0.5-1.7,0.7-2.2l2.8-8.5h2.4
		l-5.9,17.1c-0.6,1.7-1.3,2.8-2.1,3.6s-1.8,1.1-3,1.1c-0.6,0-1.3-0.1-1.9-0.2v-2c0.4,0.1,0.9,0.2,1.5,0.2c0.7,0,1.3-0.2,1.8-0.6
		s0.9-1.1,1.2-2l0.7-2L412.5,860z"/>
	<path class="st2" d="M430.2,855.3H429c-1-0.8-1.9-1.8-2.6-2.8v-0.3h2.2c0.5,1.1,1,2,1.6,2.8V855.3z M433.6,875.3
		c-2.1,0-3.7-0.7-4.9-2c-1.2-1.4-1.8-3.2-1.8-5.6c0-2.4,0.5-4.3,1.6-5.7s2.6-2.1,4.4-2.1c1.7,0,3.1,0.6,4.1,1.8s1.5,2.9,1.5,4.9v1.5
		h-9.4c0,1.7,0.4,3,1.2,3.9s1.8,1.3,3.2,1.3c0.7,0,1.4-0.1,2.1-0.2c0.7-0.1,1.4-0.4,2.3-0.8v2.2c-0.8,0.4-1.5,0.6-2.1,0.8
		C435.4,875.2,434.6,875.3,433.6,875.3z M437.1,858h-1.3c-0.8-0.6-1.7-1.3-2.7-2.3c-0.9,0.9-1.8,1.6-2.7,2.3h-1.3v-0.3l0.7-0.8
		c0.9-1.2,1.6-2.1,2.1-2.7h2.4c0.5,0.8,1.4,2,2.7,3.6V858z M433.1,861.7c-1.1,0-1.9,0.4-2.6,1.1c-0.6,0.8-1,1.8-1.1,3.2h7
		c0-1.4-0.3-2.5-0.9-3.2S434.1,861.7,433.1,861.7z"/>
	<path class="st2" d="M451.7,875v-9.6c0-1.2-0.3-2.1-0.7-2.7c-0.5-0.6-1.3-0.9-2.3-0.9c-1.4,0-2.4,0.4-3.1,1.3c-0.6,0.9-1,2.2-1,4.2
		v7.8h-2.3v-15h1.8l0.3,2.1h0.1c0.4-0.7,1-1.3,1.8-1.7s1.6-0.6,2.6-0.6c1.7,0,2.9,0.4,3.8,1.3s1.2,2.3,1.2,4.2v9.8H451.7z"/>
	<path class="st2" d="M69.2,907.4v-9.6c0-1.2-0.2-2.1-0.7-2.7c-0.5-0.6-1.3-0.9-2.3-0.9c-1.4,0-2.4,0.4-3.1,1.3s-1,2.2-1,4.2v7.8
		h-2.3v-21.3h2.3v6.2c0,0.8,0,1.5-0.1,2.1h0.2c0.4-0.7,1-1.3,1.7-1.7s1.6-0.6,2.6-0.6c1.7,0,2.9,0.4,3.8,1.3
		c0.8,0.9,1.3,2.3,1.3,4.2v9.8H69.2z"/>
	<path class="st2" d="M84.3,907.4l-0.4-2.1h-0.1c-0.7,0.9-1.4,1.6-2.1,1.9c-0.7,0.3-1.5,0.5-2.6,0.5c-1.4,0-2.4-0.4-3.2-1.2
		c-0.8-0.8-1.2-1.9-1.2-3.3c0-3,2.2-4.6,6.6-4.8l2.3-0.1v-0.9c0-1.1-0.2-2-0.7-2.5c-0.5-0.5-1.2-0.8-2.2-0.8c-0.7,0-1.4,0.1-2.1,0.4
		s-1.3,0.5-1.8,0.8l-0.7-1.8c0.7-0.4,1.5-0.7,2.3-0.9c0.8-0.2,1.6-0.3,2.4-0.3c1.7,0,2.9,0.4,3.7,1.2s1.2,2.1,1.2,3.8v10.2H84.3z
		 M79.6,905.7c1.3,0,2.3-0.4,3-1.1s1.1-1.8,1.1-3.2V900l-2,0.1c-1.6,0.1-2.7,0.3-3.5,0.8s-1.1,1.2-1.1,2.3c0,0.8,0.2,1.4,0.7,1.8
		S78.8,905.7,79.6,905.7z M78.6,910.7c0-0.5,0.1-0.9,0.4-1.2s0.6-0.4,0.9-0.4c0.4,0,0.7,0.1,0.9,0.4c0.3,0.3,0.4,0.6,0.4,1.2
		c0,0.5-0.1,0.9-0.4,1.1s-0.6,0.4-1,0.4c-0.4,0-0.7-0.1-1-0.4S78.6,911.2,78.6,910.7z"/>
	<path class="st2" d="M99.6,907.4v-9.6c0-1.2-0.2-2.1-0.7-2.7c-0.5-0.6-1.3-0.9-2.3-0.9c-1.4,0-2.4,0.4-3.1,1.3
		c-0.6,0.9-1,2.2-1,4.2v7.8h-2.3v-15H92l0.3,2.1h0.1c0.4-0.7,1-1.3,1.8-1.7c0.8-0.4,1.6-0.6,2.6-0.6c1.7,0,2.9,0.4,3.8,1.3
		c0.8,0.9,1.2,2.3,1.2,4.2v9.8H99.6z"/>
	<path class="st2" d="M118.3,907.7c-2,0-3.5-0.7-4.6-2s-1.7-3.2-1.7-5.7c0-2.5,0.6-4.5,1.7-5.8c1.1-1.4,2.7-2,4.8-2
		c0.7,0,1.3,0.1,2,0.2c0.7,0.2,1.2,0.3,1.6,0.6l-0.7,2.1c-1.2-0.5-2.2-0.7-3-0.7c-1.4,0-2.4,0.5-3.1,1.4c-0.7,1-1,2.4-1,4.3
		c0,1.8,0.3,3.2,1,4.2c0.7,1,1.6,1.4,2.9,1.4c1.2,0,2.4-0.3,3.6-0.9v2.2C120.9,907.4,119.7,907.7,118.3,907.7z"/>
	<path class="st2" d="M127.3,892.4v9.7c0,1.2,0.2,2.1,0.7,2.7s1.3,0.9,2.3,0.9c1.4,0,2.4-0.4,3.1-1.3c0.6-0.9,1-2.2,1-4.1v-7.8h2.3
		v15h-1.9l-0.3-2h-0.1c-0.4,0.7-1,1.3-1.7,1.7c-0.8,0.4-1.6,0.6-2.6,0.6c-1.7,0-2.9-0.4-3.8-1.3s-1.3-2.3-1.3-4.2v-9.8H127.3z
		 M133.6,886.9c0,1.3-0.7,2.1-2.1,2.4l-0.1,1.5H130l-0.2-2.4c0.6-0.1,1.1-0.3,1.5-0.5c0.4-0.2,0.6-0.5,0.6-1c0-0.7-0.6-1.1-1.7-1.1
		c-0.4,0-0.9,0-1.2,0.1v-1.4c0.3-0.1,0.8-0.2,1.4-0.2C132.5,884.4,133.6,885.2,133.6,886.9z"/>
	<path class="st2" d="M149.6,907.4l-0.4-2.1H149c-0.7,0.9-1.4,1.6-2.1,1.9s-1.5,0.5-2.6,0.5c-1.4,0-2.4-0.4-3.2-1.2
		c-0.8-0.8-1.2-1.9-1.2-3.3c0-3,2.2-4.6,6.6-4.8l2.3-0.1v-0.9c0-1.1-0.2-2-0.7-2.5s-1.2-0.8-2.2-0.8c-0.7,0-1.4,0.1-2.1,0.4
		s-1.3,0.5-1.8,0.8l-0.7-1.8c0.7-0.4,1.5-0.7,2.3-0.9s1.6-0.3,2.4-0.3c1.7,0,2.9,0.4,3.7,1.2c0.8,0.8,1.2,2.1,1.2,3.8v10.2H149.6z
		 M144.9,905.7c1.3,0,2.3-0.4,3-1.1s1.1-1.8,1.1-3.2V900l-2,0.1c-1.6,0.1-2.7,0.3-3.5,0.8s-1.1,1.2-1.1,2.3c0,0.8,0.2,1.4,0.7,1.8
		C143.5,905.5,144.1,905.7,144.9,905.7z"/>
	<path class="st2" d="M171.6,907.4v-9.6c0-1.2-0.2-2.1-0.7-2.7c-0.5-0.6-1.3-0.9-2.3-0.9c-1.4,0-2.4,0.4-3.1,1.3
		c-0.6,0.9-1,2.2-1,4.2v7.8h-2.3v-15h1.8l0.3,2.1h0.1c0.4-0.7,1-1.3,1.8-1.7c0.8-0.4,1.6-0.6,2.6-0.6c1.7,0,2.9,0.4,3.8,1.3
		c0.8,0.9,1.2,2.3,1.2,4.2v9.8H171.6z"/>
	<path class="st2" d="M187.5,907.4v-9.6c0-1.2-0.2-2.1-0.7-2.7c-0.5-0.6-1.3-0.9-2.3-0.9c-1.4,0-2.4,0.4-3.1,1.3s-1,2.2-1,4.2v7.8
		h-2.3v-21.3h2.3v6.2c0,0.8,0,1.5-0.1,2.1h0.2c0.4-0.7,1-1.3,1.7-1.7s1.6-0.6,2.6-0.6c1.7,0,2.9,0.4,3.8,1.3
		c0.8,0.9,1.3,2.3,1.3,4.2v9.8H187.5z"/>
	<path class="st2" d="M202.5,907.4l-0.4-2.1H202c-0.7,0.9-1.4,1.6-2.1,1.9c-0.7,0.3-1.5,0.5-2.6,0.5c-1.4,0-2.4-0.4-3.2-1.2
		c-0.8-0.8-1.2-1.9-1.2-3.3c0-3,2.2-4.6,6.6-4.8l2.3-0.1v-0.9c0-1.1-0.2-2-0.7-2.5c-0.5-0.5-1.2-0.8-2.2-0.8c-0.7,0-1.4,0.1-2.1,0.4
		s-1.3,0.5-1.8,0.8l-0.7-1.8c0.7-0.4,1.5-0.7,2.3-0.9c0.8-0.2,1.6-0.3,2.4-0.3c1.7,0,2.9,0.4,3.7,1.2c0.8,0.8,1.2,2.1,1.2,3.8v10.2
		H202.5z M200.4,890.4h-1.5c-0.6-0.5-1.3-1.3-2.1-2.1s-1.3-1.6-1.6-2.1v-0.3h2.7c0.3,0.6,0.6,1.3,1.1,2.2c0.5,0.8,0.9,1.5,1.3,2
		V890.4z M197.8,905.7c1.3,0,2.3-0.4,3-1.1s1.1-1.8,1.1-3.2V900l-2,0.1c-1.6,0.1-2.7,0.3-3.5,0.8s-1.1,1.2-1.1,2.3
		c0,0.8,0.2,1.4,0.7,1.8C196.4,905.5,197,905.7,197.8,905.7z"/>
	<path class="st2" d="M220.6,907.7c-2,0-3.5-0.7-4.6-2s-1.7-3.2-1.7-5.7c0-2.5,0.6-4.5,1.7-5.8c1.1-1.4,2.7-2,4.8-2
		c0.7,0,1.3,0.1,2,0.2c0.7,0.2,1.2,0.3,1.6,0.6l-0.7,2.1c-1.2-0.5-2.2-0.7-3-0.7c-1.4,0-2.4,0.5-3.1,1.4c-0.7,1-1,2.4-1,4.3
		c0,1.8,0.3,3.2,1,4.2c0.7,1,1.6,1.4,2.9,1.4c1.2,0,2.4-0.3,3.6-0.9v2.2C223.2,907.4,222,907.7,220.6,907.7z"/>
	<path class="st2" d="M229.6,892.4v9.7c0,1.2,0.2,2.1,0.7,2.7c0.5,0.6,1.3,0.9,2.3,0.9c1.4,0,2.4-0.4,3.1-1.3c0.6-0.9,1-2.2,1-4.1
		v-7.8h2.3v15h-1.9l-0.3-2h-0.1c-0.4,0.7-1,1.3-1.7,1.7c-0.8,0.4-1.6,0.6-2.6,0.6c-1.7,0-2.9-0.4-3.8-1.3s-1.3-2.3-1.3-4.2v-9.8
		H229.6z"/>
	<path class="st2" d="M252.8,907.4v-9.6c0-1.2-0.2-2.1-0.7-2.7c-0.5-0.6-1.3-0.9-2.3-0.9c-1.4,0-2.4,0.4-3.1,1.3
		c-0.6,0.9-1,2.2-1,4.2v7.8h-2.3v-15h1.8l0.3,2.1h0.1c0.4-0.7,1-1.3,1.8-1.7s1.6-0.6,2.6-0.6c1.7,0,2.9,0.4,3.8,1.3
		c0.8,0.9,1.2,2.3,1.2,4.2v9.8H252.8z"/>
	<path class="st2" d="M268.5,907.2l0.1-1.8h-0.1c-0.9,1.5-2.4,2.3-4.3,2.3c-1.8,0-3.2-0.7-4.2-2c-1-1.4-1.5-3.3-1.5-5.7
		c0-2.4,0.5-4.3,1.5-5.7c1-1.4,2.4-2.1,4.1-2.1c1.9,0,3.3,0.8,4.3,2.3h0.1l0.3-2h1.8v15.3c0,2.2-0.5,3.8-1.5,4.9s-2.6,1.6-4.7,1.6
		c-2,0-3.7-0.3-5-1v-2.3c1.3,0.8,3,1.2,5.1,1.2c1.2,0,2.1-0.4,2.8-1.1s1-1.8,1-3.1V907.2z M264.5,905.6c1.4,0,2.4-0.4,3-1.2
		s0.9-2.1,0.9-3.9v-0.6c0-2-0.3-3.5-1-4.4s-1.7-1.4-3.1-1.4c-1.2,0-2.1,0.5-2.7,1.5s-0.9,2.4-0.9,4.3c0,1.9,0.3,3.3,0.9,4.3
		C262.4,905.2,263.3,905.6,264.5,905.6z"/>
	<path class="st2" d="M287.3,907.7c-2,0-3.5-0.7-4.6-2c-1.1-1.3-1.7-3.2-1.7-5.7c0-2.5,0.6-4.5,1.7-5.8s2.7-2,4.8-2
		c0.7,0,1.3,0.1,2,0.2s1.2,0.3,1.6,0.6l-0.7,2.1c-1.2-0.5-2.2-0.7-3-0.7c-1.4,0-2.4,0.5-3.1,1.4c-0.7,1-1,2.4-1,4.3
		c0,1.8,0.3,3.2,1,4.2c0.7,1,1.6,1.4,2.9,1.4c1.2,0,2.4-0.3,3.6-0.9v2.2C289.9,907.4,288.7,907.7,287.3,907.7z"/>
	<path class="st2" d="M302.7,907.4l-0.4-2.1h-0.1c-0.7,0.9-1.4,1.6-2.1,1.9s-1.5,0.5-2.6,0.5c-1.4,0-2.4-0.4-3.2-1.2
		c-0.8-0.8-1.2-1.9-1.2-3.3c0-3,2.2-4.6,6.6-4.8l2.3-0.1v-0.9c0-1.1-0.2-2-0.7-2.5c-0.5-0.5-1.2-0.8-2.2-0.8c-0.7,0-1.4,0.1-2.1,0.4
		c-0.7,0.2-1.3,0.5-1.8,0.8l-0.7-1.8c0.7-0.4,1.5-0.7,2.3-0.9c0.8-0.2,1.6-0.3,2.4-0.3c1.7,0,2.9,0.4,3.7,1.2s1.2,2.1,1.2,3.8v10.2
		H302.7z M303,890.4h-1.3c-0.9-0.7-1.8-1.4-2.7-2.3c-1,0.9-1.8,1.7-2.7,2.3h-1.3v-0.3c0.4-0.5,0.9-1.1,1.4-1.7
		c0.5-0.6,0.9-1.2,1.4-1.9h2.4c0.6,0.9,1.5,2.1,2.7,3.6V890.4z M298,905.7c1.3,0,2.3-0.4,3-1.1s1.1-1.8,1.1-3.2V900l-2,0.1
		c-1.6,0.1-2.7,0.3-3.5,0.8s-1.1,1.2-1.1,2.3c0,0.8,0.2,1.4,0.7,1.8C296.6,905.5,297.2,905.7,298,905.7z M302,887.4
		c0.6-0.8,1.1-1.8,1.6-2.8h2.3v0.3c-0.7,1-1.5,1.9-2.6,2.8H302V887.4z"/>
	<path class="st2" d="M315.1,907.7c-1.9,0-3.3-0.7-4.3-2.2h-0.2l0,0.6c0.1,0.7,0.1,1.3,0.1,1.9v6.2h-2.3v-21.7h1.9l0.3,2.1h0.1
		c0.5-0.8,1.2-1.4,1.9-1.8c0.7-0.4,1.5-0.5,2.4-0.5c1.8,0,3.2,0.7,4.2,2s1.5,3.3,1.5,5.7c0,2.5-0.5,4.4-1.5,5.7
		S316.9,907.7,315.1,907.7z M314.7,894.2c-1.4,0-2.4,0.4-3,1.3s-0.9,2.2-0.9,4v0.5c0,2,0.3,3.5,0.9,4.4c0.6,0.9,1.6,1.4,3,1.4
		c1.2,0,2.1-0.5,2.7-1.5s1-2.4,1-4.3c0-1.8-0.3-3.2-1-4.2S315.9,894.2,314.7,894.2z"/>
	<path class="st2" d="M340.1,903.2c0,1.4-0.5,2.5-1.4,3.3c-1,0.8-2.3,1.2-4.1,1.2c-1.8,0-3.3-0.3-4.3-0.9v-2.2
		c1.5,0.8,3,1.2,4.4,1.2c1.1,0,2-0.2,2.5-0.6s0.8-0.9,0.8-1.6c0-0.6-0.2-1.1-0.7-1.5c-0.5-0.4-1.4-0.9-2.7-1.4
		c-1.3-0.5-2.2-1-2.7-1.4s-0.9-0.8-1.2-1.3c-0.2-0.5-0.4-1.1-0.4-1.8c0-1.2,0.5-2.2,1.4-2.9c0.9-0.7,2.2-1.1,3.8-1.1
		c1.6,0,3,0.3,4.4,1l-0.8,2c-1.4-0.6-2.7-1-3.8-1c-0.9,0-1.7,0.2-2.1,0.5c-0.5,0.3-0.7,0.8-0.7,1.3c0,0.5,0.2,1,0.6,1.4
		s1.4,0.9,2.9,1.5c1.1,0.5,2,0.9,2.5,1.3c0.5,0.4,1,0.9,1.2,1.4S340.1,902.5,340.1,903.2z"/>
	<path class="st2" d="M351.9,907.4l-0.4-2.1h-0.1c-0.7,0.9-1.4,1.6-2.1,1.9c-0.7,0.3-1.5,0.5-2.6,0.5c-1.4,0-2.4-0.4-3.2-1.2
		c-0.8-0.8-1.2-1.9-1.2-3.3c0-3,2.2-4.6,6.6-4.8l2.3-0.1v-0.9c0-1.1-0.2-2-0.7-2.5s-1.2-0.8-2.2-0.8c-0.7,0-1.4,0.1-2.1,0.4
		s-1.3,0.5-1.8,0.8l-0.7-1.8c0.7-0.4,1.5-0.7,2.3-0.9s1.6-0.3,2.4-0.3c1.7,0,2.9,0.4,3.7,1.2s1.2,2.1,1.2,3.8v10.2H351.9z
		 M347.3,905.7c1.3,0,2.3-0.4,3-1.1s1.1-1.8,1.1-3.2V900l-2,0.1c-1.6,0.1-2.7,0.3-3.5,0.8s-1.1,1.2-1.1,2.3c0,0.8,0.2,1.4,0.7,1.8
		C345.9,905.5,346.5,905.7,347.3,905.7z M351.3,886.9c0,1.3-0.7,2.1-2.1,2.4l-0.1,1.5h-1.4l-0.2-2.4c0.6-0.1,1.1-0.3,1.5-0.5
		s0.6-0.5,0.6-1c0-0.7-0.6-1.1-1.7-1.1c-0.4,0-0.9,0-1.2,0.1v-1.4c0.3-0.1,0.8-0.2,1.4-0.2C350.2,884.4,351.3,885.2,351.3,886.9z"/>
	<path class="st2" d="M367.3,907.4v-9.6c0-1.2-0.2-2.1-0.7-2.7c-0.5-0.6-1.3-0.9-2.3-0.9c-1.4,0-2.4,0.4-3.1,1.3
		c-0.6,0.9-1,2.2-1,4.2v7.8h-2.3v-15h1.8l0.3,2.1h0.1c0.4-0.7,1-1.3,1.8-1.7c0.8-0.4,1.6-0.6,2.6-0.6c1.7,0,2.9,0.4,3.8,1.3
		c0.8,0.9,1.2,2.3,1.2,4.2v9.8H367.3z"/>
	<path class="st2" d="M387,907.7c-1.9,0-3.3-0.7-4.3-2.2h-0.2l0.1,0.6c0.1,0.7,0.1,1.3,0.1,1.9v6.2h-2.3v-21.7h1.9l0.3,2.1h0.1
		c0.5-0.8,1.2-1.4,1.9-1.8c0.7-0.4,1.5-0.5,2.4-0.5c1.8,0,3.2,0.7,4.2,2c1,1.4,1.5,3.3,1.5,5.7c0,2.5-0.5,4.4-1.5,5.7
		S388.8,907.7,387,907.7z M386.6,894.2c-1.4,0-2.4,0.4-3,1.3c-0.6,0.8-0.9,2.2-0.9,4v0.5c0,2,0.3,3.5,0.9,4.4s1.6,1.4,3,1.4
		c1.2,0,2.1-0.5,2.7-1.5c0.6-1,1-2.4,1-4.3c0-1.8-0.3-3.2-1-4.2C388.7,894.6,387.8,894.2,386.6,894.2z"/>
	<path class="st2" d="M405.7,907.4v-9.6c0-1.2-0.3-2.1-0.7-2.7s-1.3-0.9-2.3-0.9c-1.4,0-2.4,0.4-3.1,1.3c-0.6,0.8-1,2.2-1,4.2v7.8
		h-2.3v-21.3h2.3v6.2c0,0.8,0,1.5-0.1,2.1h0.2c0.4-0.7,1-1.3,1.7-1.7s1.6-0.6,2.6-0.6c1.7,0,2.9,0.4,3.8,1.3
		c0.8,0.9,1.3,2.3,1.3,4.2v9.8H405.7z"/>
	<path class="st2" d="M420.7,907.4l-0.4-2.1h-0.1c-0.7,0.9-1.4,1.6-2.1,1.9c-0.7,0.3-1.5,0.5-2.6,0.5c-1.4,0-2.4-0.4-3.2-1.2
		c-0.8-0.8-1.2-1.9-1.2-3.3c0-3,2.2-4.6,6.6-4.8l2.3-0.1v-0.9c0-1.1-0.2-2-0.7-2.5s-1.2-0.8-2.2-0.8c-0.7,0-1.4,0.1-2.1,0.4
		s-1.3,0.5-1.8,0.8l-0.7-1.8c0.7-0.4,1.5-0.7,2.3-0.9s1.6-0.3,2.4-0.3c1.7,0,2.9,0.4,3.7,1.2c0.8,0.8,1.2,2.1,1.2,3.8v10.2H420.7z
		 M421.2,890.4h-1.3c-0.9-0.7-1.8-1.4-2.7-2.3c-1,0.9-1.8,1.7-2.7,2.3h-1.3v-0.3c0.4-0.5,0.9-1.1,1.4-1.7s0.9-1.2,1.4-1.9h2.4
		c0.6,0.9,1.5,2.1,2.7,3.6V890.4z M416.1,905.7c1.3,0,2.3-0.4,3-1.1s1.1-1.8,1.1-3.2V900l-2,0.1c-1.6,0.1-2.7,0.3-3.5,0.8
		s-1.1,1.2-1.1,2.3c0,0.8,0.2,1.4,0.7,1.8S415.3,905.7,416.1,905.7z M423.3,884.9c0,0.9-0.5,1.5-1.6,1.8l-0.1,1.1h-1.1l-0.1-1.8
		c0.5-0.1,0.9-0.2,1.1-0.3s0.4-0.4,0.4-0.7c0-0.6-0.4-0.8-1.2-0.8c-0.4,0-0.7,0-0.9,0.1v-1.1c0.2-0.1,0.5-0.1,1-0.1
		C422.5,883,423.3,883.6,423.3,884.9z"/>
	<path class="st2" d="M444.2,907.4v-9.7c0-2.4-0.9-3.6-2.8-3.6c-1.3,0-2.2,0.4-2.8,1.2c-0.6,0.8-0.9,2.1-0.9,3.7v8.3h-2.2v-9.7
		c0-1.2-0.2-2.1-0.7-2.7c-0.5-0.6-1.2-0.9-2.1-0.9c-1.3,0-2.2,0.4-2.8,1.3c-0.6,0.8-0.9,2.2-0.9,4.2v7.8h-2.3v-15h1.8l0.3,2.1h0.1
		c0.4-0.7,0.9-1.3,1.7-1.7c0.7-0.4,1.5-0.6,2.4-0.6c2.2,0,3.6,0.8,4.2,2.5h0.1c0.4-0.8,1-1.4,1.8-1.9s1.6-0.7,2.6-0.7
		c1.6,0,2.7,0.4,3.5,1.3c0.8,0.9,1.2,2.3,1.2,4.2v9.8H444.2z"/>
</g>
</svg>
