<svg id="Layer_1" data-name="Layer 1" xmlns="http://www.w3.org/2000/svg" viewBox="0 0 1600 508.1">
    <defs>
        <style>.cls-1{font-size:115.41px;fill:#8c8c8c;font-family:CircularStd-Bold, Circular
            Std;font-weight:700;}.cls-2{letter-spacing:0em;}.cls-3{letter-spacing:0.01em;}.cls-4{letter-spacing:-0.08em;}.cls-5{letter-spacing:0em;}.cls-6{letter-spacing:0em;}.cls-7{letter-spacing:-0.02em;}.cls-8{fill:#fff;}.cls-9{fill:#3cc;}
        </style>
    </defs>
    <title>Artboard 12 copy 4</title>
    <text class="cls-1" transform="translate(307.44 256.35)">
        <tspan class="cls-2">T</tspan>
        <tspan x="71.78" y="0">he Uber vs G</tspan>
        <tspan class="cls-3" x="754.28" y="0">r</tspan>
        <tspan x="800.1" y="0">ab</tspan>
        <tspan x="88.98" y="127.42">vs</tspan>
        <tspan class="cls-4" x="233.58" y="127.42">T</tspan>
        <tspan class="cls-5" x="295.21" y="127.42">axis b</tspan>
        <tspan class="cls-6" x="602.88" y="127.42">a</tspan>
        <tspan x="664.73" y="127.42">t</tspan>
        <tspan class="cls-7" x="707.78" y="127.42">t</tspan>
        <tspan class="cls-5" x="748.4" y="127.42">le</tspan>
    </text>
    <rect class="cls-8" x="-39.98" y="-45.81" width="1796.67" height="2588.25"/>
    <path class="cls-9"
          d="M474.14,508.09s-46.55,1.82-72.22-46.49c-30.9-58.18-78.72-35.44-78.72-35.44-21.53-102.65-112.48-87.82-112.48-87.82-5.94-43.16-47.32-42.26-47.32-42.26,12.51-117.29-91-124.57-91-124.57S-11.68,147.78-3.46,0H802.9V508.1H1135"/>
    <path class="cls-9"
          d="M1123.53,508.09s46.39,1.82,72-46.49c30.79-58.18,78.44-35.44,78.44-35.44C1295.39,323.51,1386,338.34,1386,338.34c5.92-43.16,47.16-42.26,47.16-42.26-12.47-117.29,90.66-124.57,90.66-124.57s83.8-23.73,75.6-171.51H795.93V508.1H465"/>
</svg>