<?xml version="1.0" encoding="utf-8"?>
<!-- Generator: Adobe Illustrator 19.0.0, SVG Export Plug-In . SVG Version: 6.00 Build 0)  -->
<svg version="1.1" id="Layer_1" xmlns="http://www.w3.org/2000/svg" xmlns:xlink="http://www.w3.org/1999/xlink" x="0px" y="0px"
	 viewBox="0 0 256.8 264.7" style="enable-background:new 0 0 256.8 264.7;" xml:space="preserve">
<style type="text/css">
	.st0{fill:#FFFFFF;}
	.st1{fill:#E88B6B;}
	.st2{fill:#010101;}
	.st3{fill:#3A3838;}
	.st4{fill:#332F64;}
</style>
<g>
	<rect x="0" y="0" class="st0" width="256.8" height="264.7"/>
	<rect x="99.1" y="87.2" class="st1" width="157.7" height="61.6"/>
	<rect x="123.6" y="60.1" class="st2" width="51.7" height="116.2"/>
	<rect x="123.6" y="82" class="st3" width="51.7" height="28.5"/>
	<rect x="136.5" y="132.4" class="st3" width="25.9" height="7.5"/>
	<rect x="136.5" y="145.1" class="st3" width="25.9" height="7.5"/>
	<rect x="136.5" y="157.8" class="st3" width="25.9" height="7.5"/>
	<path class="st1" d="M93.4,125.8L93.4,125.8c-7,0-12.7-5.7-12.7-12.7V61.3c0-7,5.7-12.7,12.7-12.7l0,0c7,0,12.7,5.7,12.7,12.7v51.8
		C106,120.1,100.3,125.8,93.4,125.8z"/>
	<rect x="130.3" y="86.9" class="st4" width="39.4" height="18"/>
	<polygon id="XMLID_22_" class="st2" points="130.5,104.8 169.7,86.7 130.8,86.7 	"/>
	<path class="st1" d="M107,104.3H30.3c-5,0-9-4.1-9-9l0,0c0-5,4.1-9,9-9H107c5,0,9,4.1,9,9l0,0C116,100.2,112,104.3,107,104.3z"/>
	<path class="st1" d="M107,122.3H30.3c-5,0-9-4.1-9-9l0,0c0-5,4.1-9,9-9H107c5,0,9,4.1,9,9l0,0C116,118.3,112,122.3,107,122.3z"/>
	<path class="st1" d="M110.4,140.4H27c-3.1,0-5.6-2.5-5.6-5.6V128c0-3.1,2.5-5.6,5.6-5.6h83.4c3.1,0,5.6,2.5,5.6,5.6v6.8
		C116,137.8,113.5,140.4,110.4,140.4z"/>
	<path class="st1" d="M107,158.4H30.3c-5,0-9-4.1-9-9l0,0c0-5,4.1-9,9-9H107c5,0,9,4.1,9,9l0,0C116,154.3,112,158.4,107,158.4z"/>
</g>
</svg>
