<?xml version="1.0" encoding="utf-8"?>
<!-- Generator: Adobe Illustrator 19.0.0, SVG Export Plug-In . SVG Version: 6.00 Build 0)  -->
<svg version="1.1" id="Layer_1" xmlns="http://www.w3.org/2000/svg" xmlns:xlink="http://www.w3.org/1999/xlink" x="0px" y="0px"
	 viewBox="0 0 256.9 264.7" style="enable-background:new 0 0 256.9 264.7;" xml:space="preserve">
<style type="text/css">
	.st0{fill:#CC2086;}
	.st1{fill:#FFFFFF;}
	.st2{fill:#70C8B6;}
	.st3{fill:#5F7FBF;}
	.st4{fill:#E88B6B;}
</style>
<g>
	<rect x="0.1" y="0" class="st0" width="256.8" height="264.7"/>
	<path class="st1" d="M211.4,199.9H52.7c-7.7,0-14-6.3-14-14V52.8c0-7.7,6.3-14,14-14h158.7c7.7,0,14,6.3,14,14v133.1
		C225.4,193.6,219.1,199.9,211.4,199.9z"/>
	<path class="st2" d="M201.1,191.1H63c-7.7,0-14-6.3-14-14V61.7c0-7.7,6.3-14,14-14h138.1c7.7,0,14,6.3,14,14v115.3
		C215.1,184.8,208.8,191.1,201.1,191.1z"/>
	<rect x="98.5" y="38.8" class="st1" width="67.1" height="56.4"/>
	<path class="st3" d="M153.8,81.7h-44.3c-3.8,0-6.9-3.1-6.9-6.9V60.3c0-3.8,3.1-6.9,6.9-6.9h44.3c3.8,0,6.9,3.1,6.9,6.9v14.6
		C160.6,78.6,157.5,81.7,153.8,81.7z"/>
	<rect x="0" y="158.1" class="st4" width="155.6" height="61.6"/>
	<path class="st4" d="M161.3,181.1L161.3,181.1c7,0,12.7,5.7,12.7,12.7v51.8c0,7-5.7,12.7-12.7,12.7l0,0c-7,0-12.7-5.7-12.7-12.7
		v-51.8C148.6,186.8,154.3,181.1,161.3,181.1z"/>
	<path class="st4" d="M147.7,202.6h76.7c5,0,9,4.1,9,9l0,0c0,5-4.1,9-9,9h-76.7c-5,0-9-4.1-9-9l0,0
		C138.7,206.6,142.7,202.6,147.7,202.6z"/>
	<path class="st4" d="M147.7,184.5h76.7c5,0,9,4.1,9,9l0,0c0,5-4.1,9-9,9h-76.7c-5,0-9-4.1-9-9l0,0
		C138.7,188.6,142.7,184.5,147.7,184.5z"/>
	<path class="st4" d="M147.7,166.5h76.7c5,0,9,4.1,9,9l0,0c0,5-4.1,9-9,9h-76.7c-5,0-9-4.1-9-9l0,0
		C138.7,170.6,142.7,166.5,147.7,166.5z"/>
	<path class="st4" d="M144.3,148.5h83.4c3.1,0,5.6,2.5,5.6,5.6v6.8c0,3.1-2.5,5.6-5.6,5.6h-83.4c-3.1,0-5.6-2.5-5.6-5.6v-6.8
		C138.7,151,141.2,148.5,144.3,148.5z"/>
</g>
</svg>
