<?xml version="1.0" encoding="utf-8"?>
<!-- Generator: Adobe Illustrator 19.0.0, SVG Export Plug-In . SVG Version: 6.00 Build 0)  -->
<svg version="1.1" id="Layer_1" xmlns="http://www.w3.org/2000/svg" xmlns:xlink="http://www.w3.org/1999/xlink" x="0px" y="0px"
	 viewBox="0 0 105 110.8" style="enable-background:new 0 0 105 110.8;" xml:space="preserve">
<style type="text/css">
	.st0{fill:#F2673A;}
	.st1{fill:#565250;stroke:#FFFFFF;stroke-miterlimit:10;stroke-dasharray:3.132;}
	.st2{fill:#FFFFFF;}
</style>
<path id="XMLID_13_" class="st0" d="M100.1,31.4H75.9c-1.3,0-2.5,0.5-3.5,1.4L27,78.3c-1.9,1.9-1.9,5,0,6.9l24.2,24.2
	c1.9,1.9,5,1.9,6.9,0L103.5,64c0.9-0.9,1.4-2.2,1.4-3.5V36.3C105,33.6,102.8,31.4,100.1,31.4z M87,54.8c-3.2,0-5.8-2.6-5.8-5.8
	c0-3.2,2.6-5.8,5.8-5.8c3.2,0,5.8,2.6,5.8,5.8C92.9,52.2,90.3,54.8,87,54.8z"/>
<line id="XMLID_12301_" class="st1" x1="31.7" y1="40.2" x2="100.4" y2="108.8"/>
<g id="XMLID_16_">
	<path id="XMLID_23_" class="st2" d="M43.3,35c-0.4-0.4-0.9-0.8-1.4-1.2L23.2,21.4l-1.1-5.3c1.2,0.3,2.5,0.4,3.7,0.1
		c4.4-0.9,7.3-5.2,6.4-9.7c-0.9-4.4-5.2-7.3-9.7-6.4c-4.4,0.9-7.3,5.2-6.4,9.7c0.1,0.2,0.1,0.5,0.2,0.7l0,0l1.5,7.3l-4.6-3l0,0
		c-0.2-0.1-0.3-0.2-0.5-0.3C9,12,3.9,13.1,1.4,16.8s-1.5,8.9,2.3,11.4s8.9,1.5,11.4-2.3c0.7-1.1,1.1-2.3,1.3-3.5l2.7,1.8l4.2,20.6
		c0.1,0.5,0.3,1,0.5,1.5c0.8,1.6,2.3,2.9,4.9,2.4l-4.3-21l19.7,13.1C45.7,38.6,44.7,36.5,43.3,35z M8.2,26.9c-3,0-5.4-2.4-5.4-5.4
		c0-3,2.4-5.4,5.4-5.4c3,0,5.4,2.4,5.4,5.4C13.6,24.4,11.2,26.9,8.2,26.9z M18.8,8.2c0-3,2.4-5.4,5.4-5.4c3,0,5.4,2.4,5.4,5.4
		c0,3-2.4,5.4-5.4,5.4C21.2,13.7,18.8,11.2,18.8,8.2z"/>
</g>
</svg>
