<!-- Generator: Adobe Illustrator 19.0.0, SVG Export Plug-In  -->
<svg version="1.1"
	 xmlns="http://www.w3.org/2000/svg" xmlns:xlink="http://www.w3.org/1999/xlink" xmlns:a="http://ns.adobe.com/AdobeSVGViewerExtensions/3.0/"
	 x="0px" y="0px" width="249.1px" height="230.5px" viewBox="0 0 249.1 230.5" style="enable-background:new 0 0 249.1 230.5;"
	 xml:space="preserve">
<style type="text/css">
	.st0{fill:#E3E3E3;stroke:#E3E3E3;stroke-width:0.9456;stroke-miterlimit:10;}
	.st1{fill:#3F3F3F;}
	.st2{fill:#33CCCC;}
	.st3{fill:none;stroke:#33CCCC;stroke-width:1.4;stroke-miterlimit:10;}
</style>
<defs>
</defs>
<rect x="0.5" y="0.5" class="st0" width="248.1" height="229.5"/>
<g>
	<path class="st1" d="M68.6,142.4H67l-2.6-9.4c-0.4-1.4-0.6-2.3-0.7-2.8c-0.1,0.7-0.3,1.7-0.6,2.9l-2.5,9.3H59l-3.5-14.3h1.7l2,8.7
		c0.3,1.1,0.5,2.3,0.6,3.4c0.1-1.1,0.4-2.2,0.7-3.5l2.3-8.6h1.7l2.4,8.7c0.3,1.1,0.6,2.3,0.7,3.4c0.1-0.9,0.3-2,0.6-3.4l2-8.7h1.7
		L68.6,142.4z"/>
	<path class="st1" d="M73.8,128.8c0-0.4,0.1-0.7,0.3-0.8c0.2-0.2,0.4-0.3,0.7-0.3c0.3,0,0.5,0.1,0.7,0.3c0.2,0.2,0.3,0.5,0.3,0.8
		c0,0.4-0.1,0.7-0.3,0.8s-0.4,0.3-0.7,0.3c-0.3,0-0.5-0.1-0.7-0.3C73.9,129.5,73.8,129.2,73.8,128.8z M75.5,142.4h-1.6v-10.7h1.6
		V142.4z"/>
	<path class="st1" d="M82,141.2c0.2,0,0.5,0,0.7-0.1s0.5-0.1,0.6-0.2v1.3c-0.1,0.1-0.4,0.1-0.7,0.2c-0.3,0.1-0.6,0.1-1,0.1
		c-1.9,0-2.9-1.1-2.9-3.3v-6.2h-1.4v-0.8l1.4-0.7l0.6-2.3h1v2.5h2.8v1.4h-2.8v6.2c0,0.6,0.1,1.1,0.4,1.4
		C81.1,141,81.5,141.2,82,141.2z"/>
	<path class="st1" d="M92,142.4v-6.9c0-0.9-0.2-1.5-0.5-1.9c-0.4-0.4-0.9-0.6-1.7-0.6c-1,0-1.7,0.3-2.2,0.9c-0.5,0.6-0.7,1.6-0.7,3
		v5.5h-1.6v-15.2h1.6v4.5c0,0.6,0,1.1-0.1,1.5h0.1c0.3-0.5,0.7-0.9,1.2-1.2s1.1-0.4,1.8-0.4c1.2,0,2.1,0.3,2.7,0.9s0.9,1.6,0.9,3v7
		H92z"/>
	<path class="st1" d="M114,142.4v-6.9c0-1.7-0.7-2.5-2-2.5c-0.9,0-1.6,0.3-2,0.9c-0.4,0.6-0.6,1.5-0.6,2.7v5.9h-1.6v-6.9
		c0-0.8-0.2-1.5-0.5-1.9s-0.8-0.6-1.5-0.6c-0.9,0-1.6,0.3-2,0.9s-0.6,1.6-0.6,3v5.6h-1.6v-10.7h1.3l0.2,1.5h0.1
		c0.3-0.5,0.7-0.9,1.2-1.2c0.5-0.3,1.1-0.4,1.7-0.4c1.5,0,2.5,0.6,3,1.8h0.1c0.3-0.6,0.7-1,1.3-1.3c0.5-0.3,1.2-0.5,1.9-0.5
		c1.1,0,1.9,0.3,2.5,0.9c0.6,0.6,0.8,1.6,0.8,3v7H114z"/>
	<path class="st1" d="M127.2,137c0,1.8-0.4,3.1-1.2,4.1c-0.8,1-1.9,1.5-3.4,1.5c-0.9,0-1.7-0.2-2.4-0.7c-0.7-0.5-1.2-1.1-1.6-1.9
		c-0.4-0.8-0.6-1.8-0.6-2.9c0-1.7,0.4-3.1,1.2-4.1s1.9-1.5,3.4-1.5c1.4,0,2.5,0.5,3.3,1.5S127.2,135.3,127.2,137z M119.7,137
		c0,1.3,0.2,2.4,0.7,3.1c0.5,0.7,1.2,1,2.2,1c0.9,0,1.7-0.4,2.1-1c0.5-0.7,0.7-1.7,0.7-3.1s-0.2-2.4-0.7-3c-0.5-0.7-1.2-1-2.2-1
		C120.7,133,119.7,134.3,119.7,137z"/>
	<path class="st1" d="M134.3,131.5c0.4,0,0.8,0,1.2,0.1l-0.2,1.6c-0.4-0.1-0.7-0.1-1.1-0.1c-0.5,0-1,0.2-1.4,0.5
		c-0.4,0.3-0.8,0.7-1,1.3s-0.4,1.2-0.4,1.8v5.7h-1.6v-10.7h1.3l0.2,2h0.1c0.4-0.7,0.8-1.2,1.3-1.6S133.7,131.5,134.3,131.5z"/>
	<path class="st1" d="M141.4,142.6c-1.5,0-2.6-0.5-3.5-1.5c-0.8-1-1.3-2.3-1.3-4c0-1.7,0.4-3.1,1.2-4.1c0.8-1,1.8-1.5,3.2-1.5
		c1.2,0,2.2,0.4,3,1.3c0.7,0.9,1.1,2,1.1,3.5v1.1h-6.8c0,1.2,0.3,2.1,0.9,2.8s1.3,0.9,2.3,0.9c0.5,0,1-0.1,1.5-0.2
		c0.5-0.1,1-0.3,1.7-0.6v1.5c-0.5,0.3-1.1,0.4-1.5,0.5C142.6,142.6,142,142.6,141.4,142.6z M141,132.9c-0.8,0-1.4,0.3-1.8,0.8
		c-0.4,0.5-0.7,1.3-0.8,2.3h5c0-1-0.2-1.8-0.6-2.3C142.3,133.2,141.7,132.9,141,132.9z"/>
	<path class="st1" d="M155.6,141.2c0.2,0,0.5,0,0.7-0.1s0.5-0.1,0.6-0.2v1.3c-0.1,0.1-0.4,0.1-0.7,0.2c-0.3,0.1-0.6,0.1-1,0.1
		c-1.9,0-2.9-1.1-2.9-3.3v-6.2H151v-0.8l1.4-0.7l0.6-2.3h1v2.5h2.8v1.4h-2.8v6.2c0,0.6,0.1,1.1,0.4,1.4
		C154.7,141,155.1,141.2,155.6,141.2z"/>
	<path class="st1" d="M165.7,142.4v-6.9c0-0.9-0.2-1.5-0.5-1.9c-0.4-0.4-0.9-0.6-1.7-0.6c-1,0-1.7,0.3-2.2,0.9
		c-0.5,0.6-0.7,1.6-0.7,3v5.5h-1.6v-15.2h1.6v4.5c0,0.6,0,1.1-0.1,1.5h0.1c0.3-0.5,0.7-0.9,1.2-1.2s1.1-0.4,1.8-0.4
		c1.2,0,2.1,0.3,2.7,0.9s0.9,1.6,0.9,3v7H165.7z"/>
	<path class="st1" d="M176.4,142.4l-0.3-1.5H176c-0.5,0.7-1,1.1-1.5,1.4c-0.5,0.2-1.1,0.4-1.8,0.4c-1,0-1.7-0.3-2.3-0.8
		c-0.6-0.6-0.8-1.3-0.8-2.3c0-2.2,1.6-3.3,4.7-3.4l1.7-0.1v-0.6c0-0.8-0.2-1.4-0.5-1.8c-0.3-0.4-0.8-0.6-1.6-0.6
		c-0.5,0-1,0.1-1.5,0.3c-0.5,0.2-0.9,0.4-1.3,0.6l-0.5-1.3c0.5-0.3,1-0.5,1.6-0.7c0.6-0.2,1.2-0.2,1.7-0.2c1.2,0,2.1,0.3,2.7,0.9
		s0.9,1.5,0.9,2.7v7.3H176.4z M173.1,141.2c0.9,0,1.6-0.3,2.1-0.8c0.5-0.5,0.8-1.3,0.8-2.3v-1l-1.5,0.1c-1.1,0-2,0.2-2.5,0.6
		c-0.5,0.3-0.8,0.9-0.8,1.6c0,0.6,0.2,1,0.5,1.3S172.5,141.2,173.1,141.2z"/>
	<path class="st1" d="M187.3,142.4v-6.9c0-0.9-0.2-1.5-0.5-1.9c-0.4-0.4-0.9-0.6-1.7-0.6c-1,0-1.7,0.3-2.2,0.9
		c-0.5,0.6-0.7,1.6-0.7,3v5.6h-1.6v-10.7h1.3l0.2,1.5h0.1c0.3-0.5,0.7-0.9,1.3-1.2s1.2-0.4,1.8-0.4c1.2,0,2.1,0.3,2.7,1
		c0.6,0.6,0.9,1.6,0.9,3v7H187.3z"/>
	<path class="st2" d="M44.6,169.2h-4.4v-12l0-2l0.1-2.2c-0.7,0.7-1.2,1.2-1.5,1.4l-2.4,1.9l-2.1-2.6l6.7-5.3h3.6V169.2z"/>
	<path class="st2" d="M57.9,156c2,0,3.6,0.6,4.8,1.7c1.2,1.1,1.8,2.7,1.8,4.6c0,2.3-0.7,4.1-2.1,5.3c-1.4,1.2-3.5,1.9-6.1,1.9
		c-2.3,0-4.2-0.4-5.6-1.1v-3.8c0.7,0.4,1.6,0.7,2.6,1c1,0.3,1.9,0.4,2.8,0.4c2.7,0,4-1.1,4-3.3c0-2.1-1.4-3.1-4.1-3.1
		c-0.5,0-1.1,0-1.7,0.1c-0.6,0.1-1.1,0.2-1.5,0.3l-1.7-0.9l0.8-10.5h11.2v3.7h-7.4l-0.4,4.1l0.5-0.1C56.4,156,57.1,156,57.9,156z"/>
	<path class="st1" d="M80.9,169.2l-4.3-12.5h-0.1c0.1,1,0.1,2.3,0.1,3.9v8.7h-1.5v-14.3h2.4l4,11.7h0.1l4.1-11.7h2.4v14.3h-1.6v-8.8
		c0-1,0-2.2,0.1-3.7h-0.1l-4.4,12.5H80.9z"/>
	<path class="st1" d="M91.5,155.6c0-0.4,0.1-0.7,0.3-0.8c0.2-0.2,0.4-0.3,0.7-0.3c0.3,0,0.5,0.1,0.7,0.3s0.3,0.5,0.3,0.8
		c0,0.4-0.1,0.7-0.3,0.8s-0.4,0.3-0.7,0.3c-0.3,0-0.5-0.1-0.7-0.3C91.6,156.3,91.5,156,91.5,155.6z M93.2,169.2h-1.6v-10.7h1.6
		V169.2z"/>
	<path class="st1" d="M97.9,169.2h-1.6V154h1.6V169.2z"/>
	<path class="st1" d="M102.7,169.2h-1.6V154h1.6V169.2z"/>
	<path class="st1" d="M105.7,155.6c0-0.4,0.1-0.7,0.3-0.8c0.2-0.2,0.4-0.3,0.7-0.3c0.3,0,0.5,0.1,0.7,0.3s0.3,0.5,0.3,0.8
		c0,0.4-0.1,0.7-0.3,0.8s-0.4,0.3-0.7,0.3c-0.3,0-0.5-0.1-0.7-0.3C105.8,156.3,105.7,156,105.7,155.6z M107.4,169.2h-1.6v-10.7h1.6
		V169.2z"/>
	<path class="st1" d="M119.1,163.8c0,1.8-0.4,3.1-1.2,4.1c-0.8,1-1.9,1.5-3.4,1.5c-0.9,0-1.7-0.2-2.4-0.7c-0.7-0.5-1.2-1.1-1.6-1.9
		c-0.4-0.8-0.6-1.8-0.6-2.9c0-1.7,0.4-3.1,1.2-4.1s1.9-1.5,3.4-1.5c1.4,0,2.5,0.5,3.3,1.5S119.1,162.1,119.1,163.8z M111.7,163.8
		c0,1.3,0.2,2.4,0.7,3.1c0.5,0.7,1.2,1,2.2,1c0.9,0,1.7-0.4,2.1-1c0.5-0.7,0.7-1.7,0.7-3.1s-0.2-2.4-0.7-3c-0.5-0.7-1.2-1-2.2-1
		C112.6,159.8,111.7,161.1,111.7,163.8z"/>
	<path class="st1" d="M128.4,169.2v-6.9c0-0.9-0.2-1.5-0.5-1.9c-0.4-0.4-0.9-0.6-1.7-0.6c-1,0-1.7,0.3-2.2,0.9
		c-0.5,0.6-0.7,1.6-0.7,3v5.6h-1.6v-10.7h1.3l0.2,1.5h0.1c0.3-0.5,0.7-0.9,1.3-1.2s1.2-0.4,1.8-0.4c1.2,0,2.1,0.3,2.7,1
		c0.6,0.6,0.9,1.6,0.9,3v7H128.4z"/>
	<path class="st1" d="M142.5,169.4c-1.3,0-2.3-0.5-3.1-1.6h-0.1l0,0.4c0,0.5,0.1,1,0.1,1.4v4.4h-1.6v-15.5h1.3l0.2,1.5h0.1
		c0.4-0.6,0.8-1,1.3-1.3s1.1-0.4,1.7-0.4c1.3,0,2.3,0.5,3,1.5s1.1,2.3,1.1,4.1c0,1.8-0.4,3.1-1.1,4.1
		C144.8,168.9,143.8,169.4,142.5,169.4z M142.2,159.8c-1,0-1.7,0.3-2.1,0.9s-0.7,1.5-0.7,2.8v0.3c0,1.5,0.2,2.5,0.7,3.1
		c0.4,0.6,1.2,1,2.2,1c0.8,0,1.5-0.4,1.9-1.1c0.5-0.7,0.7-1.7,0.7-3c0-1.3-0.2-2.3-0.7-3C143.7,160.1,143.1,159.8,142.2,159.8z"/>
	<path class="st1" d="M153.7,158.3c0.4,0,0.8,0,1.2,0.1l-0.2,1.6c-0.4-0.1-0.7-0.1-1.1-0.1c-0.5,0-1,0.2-1.4,0.5
		c-0.4,0.3-0.8,0.7-1,1.3s-0.4,1.2-0.4,1.8v5.7h-1.6v-10.7h1.3l0.2,2h0.1c0.4-0.7,0.8-1.2,1.3-1.6S153.1,158.3,153.7,158.3z"/>
	<path class="st1" d="M165.1,163.8c0,1.8-0.4,3.1-1.2,4.1c-0.8,1-1.9,1.5-3.4,1.5c-0.9,0-1.7-0.2-2.4-0.7c-0.7-0.5-1.2-1.1-1.6-1.9
		c-0.4-0.8-0.6-1.8-0.6-2.9c0-1.7,0.4-3.1,1.2-4.1s1.9-1.5,3.4-1.5c1.4,0,2.5,0.5,3.3,1.5S165.1,162.1,165.1,163.8z M157.7,163.8
		c0,1.3,0.2,2.4,0.7,3.1c0.5,0.7,1.2,1,2.2,1c0.9,0,1.7-0.4,2.1-1c0.5-0.7,0.7-1.7,0.7-3.1s-0.2-2.4-0.7-3c-0.5-0.7-1.2-1-2.2-1
		C158.6,159.8,157.7,161.1,157.7,163.8z"/>
	<path class="st1" d="M171.1,169.4c-1.3,0-2.3-0.5-3-1.4c-0.7-1-1.1-2.3-1.1-4.1c0-1.8,0.4-3.1,1.1-4.1s1.7-1.5,3-1.5
		c1.3,0,2.3,0.5,3.1,1.6h0.1c0-0.1,0-0.4-0.1-0.8c0-0.4,0-0.7,0-0.8V154h1.6v15.2h-1.3l-0.2-1.4h-0.1
		C173.5,168.9,172.5,169.4,171.1,169.4z M171.4,167.9c1,0,1.7-0.3,2.1-0.9c0.5-0.6,0.7-1.5,0.7-2.9v-0.3c0-1.5-0.2-2.6-0.7-3.2
		s-1.2-1-2.2-1c-0.8,0-1.5,0.4-1.9,1.1c-0.5,0.7-0.7,1.7-0.7,3.1c0,1.3,0.2,2.3,0.7,3C169.9,167.6,170.6,167.9,171.4,167.9z"/>
	<path class="st1" d="M180.5,158.5v6.9c0,0.9,0.2,1.5,0.5,1.9c0.4,0.4,0.9,0.6,1.7,0.6c1,0,1.7-0.3,2.2-0.9c0.5-0.6,0.7-1.6,0.7-3
		v-5.6h1.6v10.7h-1.3l-0.2-1.4h-0.1c-0.3,0.5-0.7,0.9-1.2,1.2s-1.2,0.4-1.9,0.4c-1.2,0-2.1-0.3-2.7-0.9c-0.6-0.6-0.9-1.6-0.9-3v-7
		H180.5z"/>
	<path class="st1" d="M194.3,169.4c-1.4,0-2.5-0.5-3.3-1.4c-0.8-0.9-1.2-2.3-1.2-4.1c0-1.8,0.4-3.2,1.2-4.2c0.8-1,1.9-1.5,3.4-1.5
		c0.5,0,1,0.1,1.4,0.2c0.5,0.1,0.9,0.2,1.2,0.4l-0.5,1.5c-0.8-0.3-1.5-0.5-2.1-0.5c-1,0-1.7,0.3-2.2,1c-0.5,0.7-0.7,1.7-0.7,3
		c0,1.3,0.2,2.3,0.7,3c0.5,0.7,1.2,1,2.1,1c0.9,0,1.7-0.2,2.6-0.6v1.6C196.1,169.2,195.3,169.4,194.3,169.4z"/>
	<path class="st1" d="M202.4,168c0.2,0,0.5,0,0.7-0.1s0.5-0.1,0.6-0.2v1.3c-0.1,0.1-0.4,0.1-0.7,0.2c-0.3,0.1-0.6,0.1-1,0.1
		c-1.9,0-2.9-1.1-2.9-3.3v-6.2h-1.4V159l1.4-0.7l0.6-2.3h1v2.5h2.8v1.4h-2.8v6.2c0,0.6,0.1,1.1,0.4,1.4
		C201.6,167.8,202,168,202.4,168z"/>
	<path class="st1" d="M212.2,166.2c0,1-0.3,1.8-1,2.3c-0.7,0.6-1.7,0.8-2.9,0.8c-1.3,0-2.3-0.2-3.1-0.7v-1.6
		c1.1,0.6,2.1,0.9,3.1,0.9c0.8,0,1.4-0.1,1.8-0.4c0.4-0.3,0.6-0.7,0.6-1.2c0-0.4-0.2-0.8-0.5-1.1c-0.4-0.3-1-0.6-1.9-1
		c-0.9-0.4-1.6-0.7-2-1c-0.4-0.3-0.7-0.6-0.8-0.9c-0.2-0.3-0.3-0.8-0.3-1.3c0-0.9,0.3-1.6,1-2.1c0.7-0.5,1.6-0.8,2.7-0.8
		c1.1,0,2.2,0.2,3.1,0.7l-0.5,1.4c-1-0.5-1.9-0.7-2.7-0.7c-0.7,0-1.2,0.1-1.5,0.3c-0.3,0.2-0.5,0.5-0.5,1c0,0.4,0.1,0.7,0.4,1
		s1,0.6,2.1,1.1c0.8,0.3,1.4,0.6,1.8,0.9c0.4,0.3,0.7,0.6,0.9,1C212.1,165.3,212.2,165.7,212.2,166.2z"/>
	<path class="st1" d="M80.5,192.4c0.2,0,0.5,0,0.7-0.1s0.5-0.1,0.6-0.2v1.3c-0.1,0.1-0.4,0.1-0.7,0.2c-0.3,0.1-0.6,0.1-1,0.1
		c-1.9,0-2.9-1.1-2.9-3.3v-6.2h-1.4v-0.8l1.4-0.7l0.6-2.3h1v2.5h2.8v1.4h-2.8v6.2c0,0.6,0.1,1.1,0.4,1.4
		C79.6,192.2,80,192.4,80.5,192.4z"/>
	<path class="st1" d="M92.4,188.2c0,1.8-0.4,3.1-1.2,4.1c-0.8,1-1.9,1.5-3.4,1.5c-0.9,0-1.7-0.2-2.4-0.7c-0.7-0.5-1.2-1.1-1.6-1.9
		c-0.4-0.8-0.6-1.8-0.6-2.9c0-1.7,0.4-3.1,1.2-4.1s1.9-1.5,3.4-1.5c1.4,0,2.5,0.5,3.3,1.5S92.4,186.5,92.4,188.2z M84.9,188.2
		c0,1.3,0.2,2.4,0.7,3.1c0.5,0.7,1.2,1,2.2,1c0.9,0,1.7-0.4,2.1-1c0.5-0.7,0.7-1.7,0.7-3.1s-0.2-2.4-0.7-3c-0.5-0.7-1.2-1-2.2-1
		C85.9,184.2,84.9,185.5,84.9,188.2z"/>
	<path class="st1" d="M103.2,193.8c-1.3,0-2.3-0.5-3-1.4c-0.7-1-1.1-2.3-1.1-4.1c0-1.8,0.4-3.1,1.1-4.1s1.7-1.5,3-1.5
		c1.3,0,2.3,0.5,3.1,1.6h0.1c0-0.1,0-0.4-0.1-0.8c0-0.4,0-0.7,0-0.8v-4.3h1.6v15.2h-1.3l-0.2-1.4h-0.1
		C105.6,193.3,104.6,193.8,103.2,193.8z M103.5,192.4c1,0,1.7-0.3,2.1-0.9c0.5-0.6,0.7-1.5,0.7-2.9v-0.3c0-1.5-0.2-2.6-0.7-3.2
		s-1.2-1-2.2-1c-0.8,0-1.5,0.4-1.9,1.1c-0.5,0.7-0.7,1.7-0.7,3.1c0,1.3,0.2,2.3,0.7,3C102,192,102.6,192.4,103.5,192.4z"/>
	<path class="st1" d="M110.9,180c0-0.4,0.1-0.7,0.3-0.8c0.2-0.2,0.4-0.3,0.7-0.3c0.3,0,0.5,0.1,0.7,0.3s0.3,0.5,0.3,0.8
		c0,0.4-0.1,0.7-0.3,0.8s-0.4,0.3-0.7,0.3c-0.3,0-0.5-0.1-0.7-0.3C111,180.7,110.9,180.4,110.9,180z M112.6,193.6H111v-10.7h1.6
		V193.6z"/>
	<path class="st1" d="M122.2,190.7c0,1-0.3,1.8-1,2.3c-0.7,0.6-1.7,0.8-2.9,0.8c-1.3,0-2.3-0.2-3.1-0.7v-1.6
		c1.1,0.6,2.1,0.9,3.1,0.9c0.8,0,1.4-0.1,1.8-0.4c0.4-0.3,0.6-0.7,0.6-1.2c0-0.4-0.2-0.8-0.5-1.1c-0.4-0.3-1-0.6-1.9-1
		c-0.9-0.4-1.6-0.7-2-1c-0.4-0.3-0.7-0.6-0.8-0.9c-0.2-0.3-0.3-0.8-0.3-1.3c0-0.9,0.3-1.6,1-2.1c0.7-0.5,1.6-0.8,2.7-0.8
		c1.1,0,2.2,0.2,3.1,0.7l-0.5,1.4c-1-0.5-1.9-0.7-2.7-0.7c-0.7,0-1.2,0.1-1.5,0.3c-0.3,0.2-0.5,0.5-0.5,1c0,0.4,0.1,0.7,0.4,1
		s1,0.6,2.1,1.1c0.8,0.3,1.4,0.6,1.8,0.9c0.4,0.3,0.7,0.6,0.9,1C122.1,189.7,122.2,190.1,122.2,190.7z"/>
	<path class="st1" d="M128.5,193.8c-1.4,0-2.5-0.5-3.3-1.4c-0.8-0.9-1.2-2.3-1.2-4.1c0-1.8,0.4-3.2,1.2-4.2c0.8-1,1.9-1.5,3.4-1.5
		c0.5,0,1,0.1,1.4,0.2c0.5,0.1,0.9,0.2,1.2,0.4l-0.5,1.5c-0.8-0.3-1.5-0.5-2.1-0.5c-1,0-1.7,0.3-2.2,1c-0.5,0.7-0.7,1.7-0.7,3
		c0,1.3,0.2,2.3,0.7,3c0.5,0.7,1.2,1,2.1,1c0.9,0,1.7-0.2,2.6-0.6v1.6C130.4,193.6,129.5,193.8,128.5,193.8z"/>
	<path class="st1" d="M142,188.2c0,1.8-0.4,3.1-1.2,4.1c-0.8,1-1.9,1.5-3.4,1.5c-0.9,0-1.7-0.2-2.4-0.7c-0.7-0.5-1.2-1.1-1.6-1.9
		c-0.4-0.8-0.6-1.8-0.6-2.9c0-1.7,0.4-3.1,1.2-4.1s1.9-1.5,3.4-1.5c1.4,0,2.5,0.5,3.3,1.5S142,186.5,142,188.2z M134.5,188.2
		c0,1.3,0.2,2.4,0.7,3.1c0.5,0.7,1.2,1,2.2,1c0.9,0,1.7-0.4,2.1-1c0.5-0.7,0.7-1.7,0.7-3.1s-0.2-2.4-0.7-3c-0.5-0.7-1.2-1-2.2-1
		C135.5,184.2,134.5,185.5,134.5,188.2z"/>
	<path class="st1" d="M146.5,193.6l-3.7-10.7h1.7l2.1,6.3c0.4,1.3,0.7,2.2,0.8,2.8h0.1c0-0.1,0-0.2,0.1-0.3c0-0.1,0.1-0.2,0.1-0.4
		s0.3-0.9,0.7-2.2l2.1-6.3h1.7l-3.7,10.7H146.5z"/>
	<path class="st1" d="M157.9,193.8c-1.5,0-2.6-0.5-3.5-1.5c-0.8-1-1.3-2.3-1.3-4c0-1.7,0.4-3.1,1.2-4.1c0.8-1,1.8-1.5,3.2-1.5
		c1.2,0,2.2,0.4,3,1.3c0.7,0.9,1.1,2,1.1,3.5v1.1h-6.8c0,1.2,0.3,2.1,0.9,2.8s1.3,0.9,2.3,0.9c0.5,0,1-0.1,1.5-0.2
		c0.5-0.1,1-0.3,1.7-0.6v1.5c-0.5,0.3-1.1,0.4-1.5,0.5C159.1,193.8,158.5,193.8,157.9,193.8z M157.5,184.1c-0.8,0-1.4,0.3-1.8,0.8
		c-0.4,0.5-0.7,1.3-0.8,2.3h5c0-1-0.2-1.8-0.6-2.3C158.8,184.4,158.2,184.1,157.5,184.1z"/>
	<path class="st1" d="M168.6,182.7c0.4,0,0.8,0,1.2,0.1l-0.2,1.6c-0.4-0.1-0.7-0.1-1.1-0.1c-0.5,0-1,0.2-1.4,0.5
		c-0.4,0.3-0.8,0.7-1,1.3s-0.4,1.2-0.4,1.8v5.7H164v-10.7h1.3l0.2,2h0.1c0.4-0.7,0.8-1.2,1.3-1.6S168,182.7,168.6,182.7z"/>
</g>
<g>
	<rect x="106.1" y="45.1" class="st3" width="39.2" height="45.9"/>
	<path class="st3" d="M113.7,49.2c0-5.3,4.3-9.6,9.6-9.6s9.6,4.3,9.6,9.6"/>
	<path class="st3" d="M121.4,49.2c0-5.3,4.3-9.6,9.6-9.6s9.6,4.3,9.6,9.6"/>
	<rect x="135.8" y="45.1" class="st3" width="9.4" height="45.9"/>
</g>
</svg>