<!-- Generator: Adobe Illustrator 19.0.0, SVG Export Plug-In  -->
<svg version="1.1"
	 xmlns="http://www.w3.org/2000/svg" xmlns:xlink="http://www.w3.org/1999/xlink" xmlns:a="http://ns.adobe.com/AdobeSVGViewerExtensions/3.0/"
	 x="0px" y="0px" width="69px" height="30px" viewBox="0 0 69 30" style="enable-background:new 0 0 69 30;" xml:space="preserve">
<style type="text/css">
	.st0{fill:#FFFFFF;stroke:#086A87;stroke-width:2;stroke-miterlimit:10;}
	.st1{fill:#086A87;}
</style>
<defs>
</defs>
<g>
	<rect x="1" y="1" class="st0" width="67" height="28"/>
	<g>
		<g>
			<path class="st1" d="M24.2,17.4h-6.5V16l2.3-2.4c0.7-0.7,1.1-1.2,1.4-1.5c0.2-0.3,0.4-0.5,0.5-0.8c0.1-0.2,0.1-0.5,0.1-0.7
				c0-0.4-0.1-0.6-0.3-0.8c-0.2-0.2-0.5-0.3-0.8-0.3c-0.4,0-0.7,0.1-1,0.2s-0.7,0.4-1.1,0.7l-1.1-1.3c0.5-0.4,0.8-0.7,1.1-0.8
				s0.6-0.3,1-0.4C20.2,8,20.6,8,21,8c0.6,0,1.1,0.1,1.5,0.3s0.8,0.5,1,0.9s0.4,0.8,0.4,1.3c0,0.4-0.1,0.8-0.2,1.2
				c-0.2,0.4-0.4,0.8-0.7,1.2c-0.3,0.4-0.9,1-1.7,1.7l-1.2,1.1v0.1h4V17.4z"/>
			<path class="st1" d="M31.6,12.7c0,1.6-0.3,2.8-0.8,3.6c-0.5,0.8-1.3,1.2-2.5,1.2c-1.1,0-1.9-0.4-2.4-1.2c-0.5-0.8-0.8-2-0.8-3.6
				c0-1.6,0.3-2.8,0.8-3.6c0.5-0.8,1.3-1.2,2.4-1.2c1.1,0,1.9,0.4,2.4,1.2C31.3,10,31.6,11.2,31.6,12.7z M27.1,12.7
				c0,1.1,0.1,2,0.3,2.4c0.2,0.5,0.5,0.7,1,0.7c0.5,0,0.8-0.2,1-0.7s0.3-1.3,0.3-2.4c0-1.1-0.1-2-0.3-2.5c-0.2-0.5-0.5-0.7-1-0.7
				c-0.5,0-0.8,0.2-1,0.7C27.2,10.8,27.1,11.6,27.1,12.7z"/>
			<path class="st1" d="M39,12.7c0,1.6-0.3,2.8-0.8,3.6c-0.5,0.8-1.3,1.2-2.5,1.2c-1.1,0-1.9-0.4-2.4-1.2c-0.5-0.8-0.8-2-0.8-3.6
				c0-1.6,0.3-2.8,0.8-3.6c0.5-0.8,1.3-1.2,2.4-1.2c1.1,0,1.9,0.4,2.4,1.2C38.7,10,39,11.2,39,12.7z M34.5,12.7c0,1.1,0.1,2,0.3,2.4
				c0.2,0.5,0.5,0.7,1,0.7c0.5,0,0.8-0.2,1-0.7s0.3-1.3,0.3-2.4c0-1.1-0.1-2-0.3-2.5c-0.2-0.5-0.5-0.7-1-0.7c-0.5,0-0.8,0.2-1,0.7
				C34.6,10.8,34.5,11.6,34.5,12.7z"/>
			<path class="st1" d="M46.5,12.7c0,1.6-0.3,2.8-0.8,3.6c-0.5,0.8-1.3,1.2-2.5,1.2c-1.1,0-1.9-0.4-2.4-1.2c-0.5-0.8-0.8-2-0.8-3.6
				c0-1.6,0.3-2.8,0.8-3.6c0.5-0.8,1.3-1.2,2.4-1.2c1.1,0,1.9,0.4,2.4,1.2C46.2,10,46.5,11.2,46.5,12.7z M41.9,12.7
				c0,1.1,0.1,2,0.3,2.4c0.2,0.5,0.5,0.7,1,0.7c0.5,0,0.8-0.2,1-0.7s0.3-1.3,0.3-2.4c0-1.1-0.1-2-0.3-2.5c-0.2-0.5-0.5-0.7-1-0.7
				c-0.5,0-0.8,0.2-1,0.7C42,10.8,41.9,11.6,41.9,12.7z"/>
			<path class="st1" d="M52.9,15.3c0,0.7-0.3,1.3-0.8,1.7c-0.5,0.4-1.3,0.6-2.3,0.6c-0.5,0-1,0-1.3-0.1c-0.4-0.1-0.7-0.2-1-0.3v-1.6
				c0.4,0.2,0.8,0.3,1.2,0.4c0.5,0.1,0.8,0.2,1.2,0.2c0.7,0,1.1-0.2,1.1-0.6c0-0.2,0-0.3-0.1-0.4c-0.1-0.1-0.3-0.2-0.5-0.3
				c-0.2-0.1-0.5-0.3-0.9-0.4c-0.5-0.2-0.9-0.4-1.2-0.6c-0.3-0.2-0.4-0.4-0.6-0.7c-0.1-0.3-0.2-0.6-0.2-0.9c0-0.6,0.2-1.1,0.7-1.5
				c0.5-0.3,1.2-0.5,2.1-0.5c0.9,0,1.7,0.2,2.5,0.6l-0.6,1.4c-0.4-0.2-0.7-0.3-1-0.4s-0.6-0.1-0.9-0.1c-0.6,0-0.9,0.2-0.9,0.5
				c0,0.2,0.1,0.3,0.3,0.5c0.2,0.1,0.6,0.3,1.2,0.6c0.6,0.2,1,0.4,1.2,0.6s0.4,0.4,0.6,0.7S52.9,14.9,52.9,15.3z"/>
		</g>
	</g>
</g>
</svg>