<!-- Generator: Adobe Illustrator 19.0.0, SVG Export Plug-In  -->
<svg version="1.1"
	 xmlns="http://www.w3.org/2000/svg" xmlns:xlink="http://www.w3.org/1999/xlink" xmlns:a="http://ns.adobe.com/AdobeSVGViewerExtensions/3.0/"
	 x="0px" y="0px" width="600px" height="251px" viewBox="0 0 600 251" style="enable-background:new 0 0 600 251;"
	 xml:space="preserve">
<style type="text/css">
	.st0{fill:#086A87;}
	.st1{fill:#FFFFFF;}
	.st2{fill:#FF6633;}
	.st3{fill:none;stroke:#FFFFFF;stroke-miterlimit:10;stroke-dasharray:3.132;}
</style>
<defs>
</defs>
<rect id="XMLID_59_" class="st0" width="600" height="251"/>
<g id="XMLID_17_">
	<path id="XMLID_57_" class="st1" d="M126.6,100.1c0,4.3-1.6,7.7-4.7,10.2c-3.1,2.5-7.4,3.7-13,3.7c-5.1,0-9.6-1-13.5-2.9v-9.4
		c3.2,1.4,6,2.5,8.2,3c2.2,0.6,4.3,0.9,6.1,0.9c2.2,0,3.9-0.4,5.1-1.3c1.2-0.9,1.8-2.1,1.8-3.8c0-0.9-0.3-1.8-0.8-2.5
		c-0.5-0.7-1.3-1.4-2.3-2.1c-1-0.7-3.1-1.8-6.2-3.2c-2.9-1.4-5.1-2.7-6.6-4c-1.5-1.3-2.6-2.7-3.5-4.4c-0.9-1.7-1.3-3.6-1.3-5.9
		c0-4.2,1.4-7.6,4.3-10c2.9-2.4,6.8-3.6,11.9-3.6c2.5,0,4.9,0.3,7.1,0.9c2.3,0.6,4.6,1.4,7.1,2.5l-3.3,7.9c-2.6-1-4.7-1.8-6.3-2.2
		c-1.7-0.4-3.3-0.6-4.9-0.6c-1.9,0-3.4,0.4-4.4,1.3c-1,0.9-1.5,2.1-1.5,3.5c0,0.9,0.2,1.7,0.6,2.3c0.4,0.7,1.1,1.3,2,1.9
		c0.9,0.6,3,1.7,6.4,3.4c4.5,2.1,7.5,4.3,9.2,6.4C125.8,94.4,126.6,97,126.6,100.1z"/>
	<path id="XMLID_54_" class="st1" d="M151.1,114c-5.9,0-10.5-1.6-13.8-4.9c-3.3-3.2-5-7.9-5-13.8c0-6.1,1.5-10.9,4.6-14.2
		c3.1-3.3,7.3-5,12.7-5c5.2,0,9.2,1.5,12.1,4.4s4.3,7,4.3,12.2v4.8h-23.6c0.1,2.8,0.9,5,2.5,6.6c1.6,1.6,3.8,2.4,6.6,2.4
		c2.2,0,4.3-0.2,6.2-0.7s4-1.2,6.2-2.2v7.7c-1.7,0.9-3.6,1.5-5.6,1.9C156.4,113.8,153.9,114,151.1,114z M149.7,83.2
		c-2.1,0-3.8,0.7-5,2c-1.2,1.3-1.9,3.2-2.1,5.7h14c0-2.5-0.7-4.4-1.9-5.7C153.5,83.9,151.8,83.2,149.7,83.2z"/>
	<path id="XMLID_51_" class="st1" d="M171.2,129.5c-2.6,0-4.7-0.3-6.6-0.8v-7.9c1.5,0.4,3.1,0.6,4.7,0.6c1.7,0,2.9-0.5,3.7-1.4
		c0.8-0.9,1.2-2.3,1.2-4.2V76.8h10v40.5c0,3.9-1.1,6.9-3.4,9C178.5,128.4,175.3,129.5,171.2,129.5z M173.7,67.4
		c0-3.2,1.8-4.9,5.4-4.9c3.6,0,5.4,1.6,5.4,4.9c0,1.5-0.5,2.8-1.4,3.6c-0.9,0.9-2.3,1.3-4.1,1.3C175.5,72.3,173.7,70.6,173.7,67.4z"
		/>
	<path id="XMLID_48_" class="st1" d="M217.8,113.4l-1.9-5h-0.3c-1.7,2.1-3.4,3.6-5.2,4.4c-1.8,0.8-4.1,1.2-7,1.2c-3.5,0-6.3-1-8.3-3
		c-2-2-3-4.9-3-8.6c0-3.9,1.4-6.7,4.1-8.6c2.7-1.8,6.8-2.9,12.3-3.1l6.3-0.2V89c0-3.7-1.9-5.6-5.7-5.6c-2.9,0-6.4,0.9-10.3,2.6
		l-3.3-6.7c4.2-2.2,8.9-3.3,14-3.3c4.9,0,8.7,1.1,11.3,3.2c2.6,2.1,3.9,5.4,3.9,9.7v24.4H217.8z M214.8,96.4l-3.9,0.1
		c-2.9,0.1-5.1,0.6-6.5,1.6c-1.4,1-2.1,2.4-2.1,4.4c0,2.8,1.6,4.2,4.8,4.2c2.3,0,4.2-0.7,5.5-2c1.4-1.3,2.1-3.1,2.1-5.3V96.4z"/>
	<path id="XMLID_46_" class="st1" d="M255.4,76.1c1.4,0,2.5,0.1,3.4,0.3l-0.8,9.4c-0.8-0.2-1.8-0.3-2.9-0.3c-3.2,0-5.7,0.8-7.4,2.5
		c-1.8,1.6-2.7,3.9-2.7,6.9v18.6h-10V76.8h7.6l1.5,6.2h0.5c1.1-2,2.7-3.7,4.6-5C251.1,76.8,253.2,76.1,255.4,76.1z"/>
	<path id="XMLID_43_" class="st1" d="M288,113.4l-1.9-5h-0.3c-1.7,2.1-3.4,3.6-5.2,4.4c-1.8,0.8-4.1,1.2-7,1.2c-3.5,0-6.3-1-8.3-3
		c-2-2-3-4.9-3-8.6c0-3.9,1.4-6.7,4.1-8.6c2.7-1.8,6.8-2.9,12.3-3.1l6.3-0.2V89c0-3.7-1.9-5.6-5.7-5.6c-2.9,0-6.4,0.9-10.3,2.6
		l-3.3-6.7c4.2-2.2,8.9-3.3,14-3.3c4.9,0,8.7,1.1,11.3,3.2c2.6,2.1,3.9,5.4,3.9,9.7v24.4H288z M285.1,96.4l-3.9,0.1
		c-2.9,0.1-5.1,0.6-6.5,1.6c-1.4,1-2.1,2.4-2.1,4.4c0,2.8,1.6,4.2,4.8,4.2c2.3,0,4.2-0.7,5.5-2c1.4-1.3,2.1-3.1,2.1-5.3V96.4z"/>
	<path id="XMLID_41_" class="st1" d="M339,113.4h-10V92c0-5.3-2-7.9-5.9-7.9c-2.8,0-4.8,0.9-6.1,2.8c-1.2,1.9-1.9,5-1.9,9.2v17.2
		h-10V62.5h10v10.4c0,0.8-0.1,2.7-0.2,5.7l-0.2,2.9h0.5c2.2-3.6,5.8-5.4,10.6-5.4c4.3,0,7.6,1.2,9.8,3.5c2.2,2.3,3.3,5.6,3.3,9.9
		V113.4z"/>
	<path id="XMLID_38_" class="st1" d="M378.3,114c-4.3,0-7.7-1.7-10.1-5c-2.5-3.3-3.7-8-3.7-13.9c0-6,1.2-10.7,3.7-14
		c2.5-3.3,5.9-5,10.3-5c4.6,0,8.1,1.8,10.5,5.4h0.3c-0.5-2.7-0.8-5.2-0.8-7.3V62.5h10v50.9H391l-1.9-4.7h-0.4
		C386.4,112.2,382.9,114,378.3,114z M381.8,106.1c2.6,0,4.4-0.7,5.6-2.2c1.2-1.5,1.8-4,1.9-7.6v-1.1c0-3.9-0.6-6.7-1.8-8.4
		c-1.2-1.7-3.2-2.6-5.9-2.6c-2.2,0-4,0.9-5.2,2.8c-1.2,1.9-1.8,4.6-1.8,8.2s0.6,6.3,1.9,8.1C377.7,105.2,379.5,106.1,381.8,106.1z"
		/>
	<path id="XMLID_35_" class="st1" d="M432.3,113.4l-1.9-5h-0.3c-1.7,2.1-3.4,3.6-5.2,4.4c-1.8,0.8-4.1,1.2-7,1.2c-3.5,0-6.3-1-8.3-3
		c-2-2-3-4.9-3-8.6c0-3.9,1.4-6.7,4.1-8.6c2.7-1.8,6.8-2.9,12.3-3.1l6.3-0.2V89c0-3.7-1.9-5.6-5.7-5.6c-2.9,0-6.4,0.9-10.3,2.6
		l-3.3-6.7c4.2-2.2,8.9-3.3,14-3.3c4.9,0,8.7,1.1,11.3,3.2c2.6,2.1,3.9,5.4,3.9,9.7v24.4H432.3z M429.4,96.4l-3.9,0.1
		c-2.9,0.1-5.1,0.6-6.5,1.6c-1.4,1-2.1,2.4-2.1,4.4c0,2.8,1.6,4.2,4.8,4.2c2.3,0,4.2-0.7,5.5-2c1.4-1.3,2.1-3.1,2.1-5.3V96.4z"/>
	<path id="XMLID_33_" class="st1" d="M470,76.1c1.4,0,2.5,0.1,3.4,0.3l-0.8,9.4c-0.8-0.2-1.8-0.3-2.9-0.3c-3.2,0-5.7,0.8-7.4,2.5
		c-1.8,1.6-2.7,3.9-2.7,6.9v18.6h-10V76.8h7.6l1.5,6.2h0.5c1.1-2,2.7-3.7,4.6-5C465.6,76.8,467.7,76.1,470,76.1z"/>
	<path id="XMLID_30_" class="st1" d="M479.6,67.4c0-3.2,1.8-4.9,5.4-4.9c3.6,0,5.4,1.6,5.4,4.9c0,1.5-0.5,2.8-1.4,3.6
		c-0.9,0.9-2.3,1.3-4.1,1.3C481.4,72.3,479.6,70.6,479.6,67.4z M490,113.4h-10V76.8h10V113.4z"/>
	<path id="XMLID_28_" class="st2" d="M238.8,187.8h-11.5l-12.5-20.2l-4.3,3.1v17.1h-10.1V140h10.1v21.9l4-5.6l13-16.3h11.3
		L222,161.1L238.8,187.8z"/>
	<path id="XMLID_26_" class="st2" d="M269.9,187.8l-1.3-4.7h-0.5c-1.1,1.7-2.6,3-4.5,3.9s-4.2,1.4-6.7,1.4c-4.3,0-7.5-1.2-9.7-3.5
		c-2.2-2.3-3.3-5.6-3.3-9.9v-23.8h10v21.4c0,2.6,0.5,4.6,1.4,5.9c0.9,1.3,2.4,2,4.5,2c2.8,0,4.8-0.9,6.1-2.8c1.2-1.9,1.9-5,1.9-9.3
		v-17.2h10v36.6H269.9z"/>
	<path id="XMLID_23_" class="st2" d="M308.1,188.4c-4.3,0-7.7-1.6-10.1-4.7h-0.5c0.3,3.1,0.5,4.8,0.5,5.3v14.8h-10v-52.7h8.1
		l1.4,4.7h0.5c2.3-3.6,5.8-5.4,10.4-5.4c4.3,0,7.7,1.7,10.1,5c2.4,3.3,3.7,8,3.7,13.9c0,3.9-0.6,7.3-1.7,10.2
		c-1.1,2.9-2.8,5.1-4.9,6.6C313.5,187.7,311,188.4,308.1,188.4z M305.2,158.5c-2.5,0-4.3,0.8-5.4,2.3c-1.1,1.5-1.7,4-1.8,7.5v1.1
		c0,3.9,0.6,6.7,1.8,8.4c1.2,1.7,3,2.6,5.5,2.6c4.5,0,6.7-3.7,6.7-11.1c0-3.6-0.6-6.3-1.7-8.1C309.3,159.4,307.5,158.5,305.2,158.5z
		"/>
	<path id="XMLID_20_" class="st2" d="M363.7,169.4c0,6-1.6,10.6-4.7,14c-3.1,3.4-7.5,5-13.1,5c-3.5,0-6.6-0.8-9.3-2.3
		c-2.7-1.5-4.7-3.7-6.2-6.6s-2.2-6.2-2.2-10.1c0-6,1.6-10.6,4.7-13.9s7.5-5,13.2-5c3.5,0,6.6,0.8,9.3,2.3c2.7,1.5,4.7,3.7,6.2,6.6
		C363,162.3,363.7,165.6,363.7,169.4z M338.4,169.4c0,3.6,0.6,6.4,1.8,8.2c1.2,1.9,3.1,2.8,5.8,2.8c2.7,0,4.6-0.9,5.7-2.8
		c1.2-1.8,1.8-4.6,1.8-8.2c0-3.6-0.6-6.3-1.8-8.1c-1.2-1.8-3.1-2.7-5.8-2.7c-2.7,0-4.6,0.9-5.8,2.7
		C339,163.1,338.4,165.8,338.4,169.4z"/>
	<path id="XMLID_18_" class="st2" d="M405.7,187.8h-10v-21.4c0-2.6-0.5-4.6-1.4-5.9c-0.9-1.3-2.4-2-4.5-2c-2.8,0-4.8,0.9-6.1,2.8
		c-1.2,1.9-1.9,5-1.9,9.3v17.2h-10v-36.6h7.6l1.3,4.7h0.6c1.1-1.8,2.6-3.1,4.6-4s4.2-1.4,6.7-1.4c4.3,0,7.5,1.2,9.7,3.5
		s3.3,5.6,3.3,10V187.8z"/>
</g>
<circle id="XMLID_16_" class="st0" cx="82.3" cy="166.8" r="4.3"/>
<rect id="XMLID_15_" x="44.5" y="37.5" class="st3" width="496" height="187"/>
</svg>