<?xml version="1.0" encoding="utf-8"?>
<!-- Generator: Adobe Illustrator 19.0.0, SVG Export Plug-In . SVG Version: 6.00 Build 0)  -->
<svg version="1.1" id="Layer_1" xmlns="http://www.w3.org/2000/svg" xmlns:xlink="http://www.w3.org/1999/xlink" x="0px" y="0px"
	 viewBox="0 0 166 167" style="enable-background:new 0 0 166 167;" xml:space="preserve">
<style type="text/css">
	.st0{fill:#125B7C;}
	.st1{fill:#FFFFFF;}
	.st2{fill:#CD202B;}
	.st3{fill:#197696;}
	.st4{fill:#D14C27;}
	.st5{fill:#8F878B;}
	.st6{fill:#EF972A;}
	.st7{fill:#F7B85B;}
	.st8{fill:#E17D26;}
	.st9{fill:#F9F9FA;}
	.st10{fill:#B7B7B7;}
	.st11{fill:#404040;}
	.st12{fill:#404040;stroke:#404040;stroke-width:0.2;stroke-miterlimit:10;}
</style>
<rect id="XMLID_12761_" x="0" y="0" class="st0" width="150" height="159.7"/>
<polygon id="XMLID_12760_" class="st1" points="146.8,166.9 146.8,147.8 166,167 "/>
<rect id="XMLID_12759_" x="0" y="95.6" class="st1" width="150" height="71.3"/>
<g id="XMLID_12750_">
	<circle id="XMLID_12754_" class="st2" cx="15" cy="110.6" r="4"/>
	<path id="XMLID_12753_" class="st2" d="M10.9,110.6H19v10.1C19,120.6,10.9,115.7,10.9,110.6z"/>
	<circle id="XMLID_12752_" class="st2" cx="23" cy="110.4" r="4"/>
	<path id="XMLID_12751_" class="st2" d="M27,110.4H19v10.1C19,120.5,27,115.5,27,110.4z"/>
</g>
<g id="XMLID_12728_">
	<circle id="XMLID_12749_" class="st3" cx="79.6" cy="48.7" r="42.9"/>
	<g id="XMLID_12737_">
		<polygon id="XMLID_12748_" class="st4" points="70.9,29.9 64.3,23.2 72.3,12.9 81.4,12.9 81.4,33.7 		"/>
		<polygon id="XMLID_12747_" class="st4" points="86.4,29.9 93.1,23.2 85,12.9 76,12.9 76,33.7 		"/>
		<path id="XMLID_12746_" class="st5" d="M102,53.2c0,1-0.1,2-0.2,2.9c-1.4,12.1-11.7,21.4-24.2,21.4c-13.4,0-24.4-10.9-24.4-24.3
			c0-13.4,10.9-24.4,24.4-24.4c11.9,0,21.7,8.5,23.9,19.7c0.2,1,0.3,1.9,0.4,2.9v0C102,52.1,102,52.6,102,53.2z"/>
		<polygon id="XMLID_12745_" class="st6" points="64.3,23.2 93.1,23.2 85,12.9 72.3,12.9 		"/>
		<polygon id="XMLID_12744_" class="st7" points="72.3,12.9 78.7,23.2 85,12.9 		"/>
		<polygon id="XMLID_12743_" class="st8" points="72.3,12.9 67.7,23.2 78.7,23.2 		"/>
		<polygon id="XMLID_12742_" class="st8" points="85,12.9 89.7,23.2 78.7,23.2 		"/>
		<polygon id="XMLID_12741_" class="st9" points="101.6,48.6 94.3,48.6 94.3,51.5 102,51.5 		"/>
		<path id="XMLID_12740_" class="st9" d="M102,53.2c0,1-0.1,2-0.2,2.9h-7.5v-2.9H102z"/>
		<circle id="XMLID_12739_" class="st10" cx="77.7" cy="52.8" r="21.5"/>
		<circle id="XMLID_12738_" class="st3" cx="77.7" cy="52.8" r="17.3"/>
	</g>
	<g id="XMLID_12729_">
		<path id="XMLID_12736_" class="st7" d="M48.9,3.3c0,0-0.7,3.5-4.2,4c3.5,0.5,4.2,4,4.2,4s0.7-3.5,4.2-4
			C49.6,6.8,48.9,3.3,48.9,3.3"/>
		<path id="XMLID_12735_" class="st7" d="M59.1,22.8c0,0-0.7,3.5-4.2,4c3.5,0.5,4.2,4,4.2,4s0.7-3.5,4.2-4
			C59.8,26.3,59.1,22.8,59.1,22.8"/>
		<path id="XMLID_12732_" class="st7" d="M43.8,12.9c0,0-1.7,8.7-10.3,9.9c8.6,1.3,10.3,9.9,10.3,9.9s1.7-8.7,10.3-9.9
			C45.5,21.6,43.8,12.9,43.8,12.9 M43.8,15.5c0.3,0.7,0.7,1.5,1.2,2.3c1.5,2.3,3.5,4,5.9,5c-2.4,1-4.4,2.7-5.9,5
			c-0.5,0.8-0.9,1.6-1.2,2.3c-0.3-0.7-0.7-1.5-1.2-2.3c-1.5-2.3-3.5-4-5.9-5c2.4-1,4.4-2.7,5.9-5C43.1,17,43.5,16.2,43.8,15.5"/>
		<path id="XMLID_12731_" class="st7" d="M37.4,17.4c-0.4-0.8-1.1-1.9-2.4-2.5c1.3-0.6,2-1.7,2.4-2.5c0.4,0.8,1.1,1.9,2.4,2.5
			C38.5,15.5,37.8,16.6,37.4,17.4z"/>
		<circle id="XMLID_12730_" class="st7" cx="52.1" cy="33.1" r="2"/>
	</g>
</g>
<g id="XMLID_86_">
	<g id="XMLID_811_">
		<path id="XMLID_890_" class="st11" d="M36.8,123.4c-0.5,0-0.9-0.1-1.3-0.2v-1.8c0.4,0.1,0.7,0.1,1,0.1c0.5,0,0.8-0.1,1-0.4
			s0.3-0.7,0.3-1.4v-9.4h2.1v9.4c0,1.2-0.3,2.1-0.8,2.7S37.8,123.4,36.8,123.4z"/>
		<path id="XMLID_887_" class="st11" d="M45.8,120.6c-1.2,0-2.2-0.3-2.9-1s-1-1.6-1-2.9c0-1.3,0.3-2.3,1-3c0.6-0.7,1.5-1,2.7-1
			c1.1,0,1.9,0.3,2.5,0.9s0.9,1.5,0.9,2.5v1h-4.9c0,0.6,0.2,1.1,0.5,1.4s0.8,0.5,1.4,0.5c0.5,0,0.9,0,1.3-0.1s0.8-0.2,1.3-0.5v1.6
			c-0.4,0.2-0.8,0.3-1.2,0.4S46.3,120.6,45.8,120.6z M45.5,114.2c-0.4,0-0.8,0.1-1,0.4s-0.4,0.7-0.4,1.2h2.9c0-0.5-0.1-0.9-0.4-1.2
			S45.9,114.2,45.5,114.2z"/>
		<path id="XMLID_885_" class="st11" d="M56.7,120.5l-0.6-2.7l-0.8-3.4h-0.1l-1.4,6h-2.2l-2.2-7.6h2.1l0.9,3.4
			c0.1,0.4,0.2,1.2,0.4,2.5h0.1c0-0.3,0.1-0.9,0.2-1.6l0.1-0.6l0.9-3.7h2.3l0.9,3.7c0.1,0.3,0.1,0.6,0.2,1.1
			c0.1,0.5,0.1,0.9,0.1,1.1h0.1c0.1-0.4,0.1-0.9,0.2-1.4s0.2-0.9,0.2-1.1l0.9-3.4h2l-2.2,7.6H56.7z"/>
		<path id="XMLID_882_" class="st11" d="M65.9,120.6c-1.2,0-2.2-0.3-2.9-1s-1-1.6-1-2.9c0-1.3,0.3-2.3,1-3c0.6-0.7,1.5-1,2.7-1
			c1.1,0,1.9,0.3,2.5,0.9s0.9,1.5,0.9,2.5v1h-4.9c0,0.6,0.2,1.1,0.5,1.4s0.8,0.5,1.4,0.5c0.5,0,0.9,0,1.3-0.1s0.8-0.2,1.3-0.5v1.6
			c-0.4,0.2-0.8,0.3-1.2,0.4S66.5,120.6,65.9,120.6z M65.6,114.2c-0.4,0-0.8,0.1-1,0.4s-0.4,0.7-0.4,1.2H67c0-0.5-0.1-0.9-0.4-1.2
			S66,114.2,65.6,114.2z"/>
		<path id="XMLID_880_" class="st11" d="M72.8,120.5h-2.1v-10.6h2.1V120.5z"/>
		<path id="XMLID_878_" class="st11" d="M77,120.5H75v-10.6H77V120.5z"/>
		<path id="XMLID_875_" class="st11" d="M82.7,120.6c-1.2,0-2.2-0.3-2.9-1s-1-1.6-1-2.9c0-1.3,0.3-2.3,1-3c0.6-0.7,1.5-1,2.7-1
			c1.1,0,1.9,0.3,2.5,0.9s0.9,1.5,0.9,2.5v1h-4.9c0,0.6,0.2,1.1,0.5,1.4s0.8,0.5,1.4,0.5c0.5,0,0.9,0,1.3-0.1s0.8-0.2,1.3-0.5v1.6
			c-0.4,0.2-0.8,0.3-1.2,0.4S83.3,120.6,82.7,120.6z M82.4,114.2c-0.4,0-0.8,0.1-1,0.4s-0.4,0.7-0.4,1.2h2.9c0-0.5-0.1-0.9-0.4-1.2
			S82.8,114.2,82.4,114.2z"/>
		<path id="XMLID_873_" class="st11" d="M91.8,112.7c0.3,0,0.5,0,0.7,0.1l-0.2,2c-0.2,0-0.4-0.1-0.6-0.1c-0.7,0-1.2,0.2-1.6,0.5
			c-0.4,0.3-0.6,0.8-0.6,1.4v3.9h-2.1v-7.6h1.6l0.3,1.3h0.1c0.2-0.4,0.6-0.8,1-1S91.3,112.7,91.8,112.7z"/>
		<path id="XMLID_871_" class="st11" d="M92.8,112.8H95l1.4,4.3c0.1,0.4,0.2,0.8,0.3,1.3h0c0.1-0.5,0.1-0.9,0.3-1.3l1.4-4.3h2.2
			l-3.2,8.6c-0.3,0.8-0.7,1.4-1.3,1.8c-0.5,0.4-1.2,0.6-1.9,0.6c-0.4,0-0.7,0-1.1-0.1v-1.7c0.3,0.1,0.5,0.1,0.8,0.1
			c0.4,0,0.7-0.1,1-0.3c0.3-0.2,0.5-0.6,0.6-1l0.1-0.4L92.8,112.8z"/>
		<path id="XMLID_869_" class="st12" d="M37.9,137v-9.8h1.2v8.7h4.3v1.1H37.9z"/>
		<path id="XMLID_866_" class="st12" d="M51.4,133.3c0,1.2-0.3,2.1-0.9,2.8c-0.6,0.7-1.5,1-2.5,1c-0.7,0-1.3-0.2-1.8-0.5
			c-0.5-0.3-0.9-0.8-1.2-1.3s-0.4-1.3-0.4-2c0-1.2,0.3-2.1,0.9-2.8s1.4-1,2.5-1c1,0,1.9,0.3,2.5,1C51,131.2,51.4,132.1,51.4,133.3z
			 M45.8,133.3c0,0.9,0.2,1.6,0.5,2.1s0.9,0.7,1.6,0.7c0.7,0,1.2-0.2,1.6-0.7s0.6-1.2,0.6-2.1c0-0.9-0.2-1.6-0.6-2.1
			c-0.4-0.5-0.9-0.7-1.6-0.7C46.5,130.5,45.8,131.4,45.8,133.3z"/>
		<path id="XMLID_864_" class="st12" d="M58.3,137v-4.7c0-0.6-0.1-1-0.4-1.3s-0.7-0.4-1.3-0.4c-0.8,0-1.3,0.2-1.6,0.6
			c-0.3,0.4-0.5,1.1-0.5,2v3.8h-1.2v-7.4h1l0.2,1h0.1c0.2-0.4,0.5-0.6,1-0.8c0.4-0.2,0.9-0.3,1.4-0.3c0.9,0,1.6,0.2,2,0.7
			c0.4,0.4,0.7,1.1,0.7,2v4.8H58.3z"/>
		<path id="XMLID_861_" class="st12" d="M66.7,136.9l0-0.9h-0.1c-0.5,0.7-1.3,1.1-2.3,1.1c-1,0-1.7-0.3-2.2-1
			c-0.5-0.7-0.8-1.6-0.8-2.8c0-1.2,0.3-2.1,0.8-2.8c0.5-0.7,1.3-1,2.2-1c1,0,1.8,0.4,2.3,1.1h0.1l0.2-1h1v7.5c0,1.1-0.3,1.9-0.8,2.4
			s-1.4,0.8-2.5,0.8c-1.1,0-2-0.2-2.7-0.5v-1.1c0.7,0.4,1.6,0.6,2.7,0.6c0.6,0,1.1-0.2,1.5-0.6c0.4-0.4,0.5-0.9,0.5-1.5V136.9z
			 M64.6,136.1c0.7,0,1.3-0.2,1.6-0.6c0.3-0.4,0.5-1,0.5-1.9v-0.3c0-1-0.2-1.7-0.5-2.2c-0.3-0.4-0.9-0.7-1.6-0.7
			c-0.6,0-1.1,0.2-1.4,0.7c-0.3,0.5-0.5,1.2-0.5,2.1c0,0.9,0.2,1.6,0.5,2.1C63.4,135.9,63.9,136.1,64.6,136.1z"/>
		<path id="XMLID_859_" class="st12" d="M75,137h-1.2v-10.5H75V137z"/>
		<path id="XMLID_856_" class="st12" d="M81.9,137l-0.2-1h-0.1c-0.4,0.5-0.7,0.8-1.1,0.9s-0.8,0.2-1.4,0.2c-0.7,0-1.3-0.2-1.7-0.6
			c-0.4-0.4-0.6-0.9-0.6-1.6c0-1.5,1.2-2.3,3.5-2.4l1.3,0v-0.4c0-0.6-0.1-1-0.4-1.2c-0.2-0.3-0.6-0.4-1.2-0.4
			c-0.4,0-0.8,0.1-1.1,0.2c-0.3,0.1-0.7,0.2-1,0.4l-0.4-0.9c0.4-0.2,0.8-0.4,1.2-0.5c0.4-0.1,0.9-0.2,1.3-0.2c0.9,0,1.6,0.2,2,0.6
			s0.7,1,0.7,1.9v5H81.9z M79.4,136.1c0.7,0,1.2-0.2,1.6-0.5c0.4-0.4,0.6-0.9,0.6-1.6v-0.7l-1.1,0c-0.8,0-1.5,0.2-1.9,0.4
			c-0.4,0.2-0.6,0.6-0.6,1.1c0,0.4,0.1,0.7,0.4,0.9C78.7,136,79,136.1,79.4,136.1z"/>
		<path id="XMLID_854_" class="st12" d="M89.9,134.9c0,0.7-0.3,1.2-0.8,1.6c-0.5,0.4-1.2,0.6-2.2,0.6c-1,0-1.7-0.2-2.3-0.5v-1.1
			c0.8,0.4,1.6,0.6,2.3,0.6c0.6,0,1.1-0.1,1.3-0.3c0.3-0.2,0.4-0.5,0.4-0.8c0-0.3-0.1-0.5-0.4-0.7s-0.7-0.4-1.4-0.7
			c-0.7-0.3-1.2-0.5-1.5-0.7s-0.5-0.4-0.6-0.6c-0.1-0.2-0.2-0.5-0.2-0.9c0-0.6,0.2-1.1,0.7-1.4c0.5-0.3,1.2-0.5,2-0.5
			c0.8,0,1.6,0.2,2.4,0.5l-0.4,1c-0.7-0.3-1.4-0.5-2-0.5c-0.5,0-0.9,0.1-1.1,0.2s-0.4,0.4-0.4,0.7c0,0.3,0.1,0.5,0.3,0.7
			c0.2,0.2,0.7,0.4,1.6,0.7c0.6,0.2,1.1,0.4,1.4,0.6c0.3,0.2,0.5,0.4,0.6,0.7C89.8,134.3,89.9,134.6,89.9,134.9z"/>
		<path id="XMLID_852_" class="st12" d="M94.2,136.1c0.2,0,0.3,0,0.6,0s0.4-0.1,0.5-0.1v0.9c-0.1,0-0.3,0.1-0.5,0.1
			c-0.2,0-0.5,0.1-0.7,0.1c-1.4,0-2.2-0.8-2.2-2.3v-4.3h-1V130l1.1-0.5l0.5-1.6H93v1.7h2.1v0.9H93v4.3c0,0.4,0.1,0.8,0.3,1
			S93.8,136.1,94.2,136.1z"/>
		<path id="XMLID_849_" class="st12" d="M96.6,127.6c0-0.3,0.1-0.5,0.2-0.6s0.3-0.2,0.5-0.2c0.2,0,0.4,0.1,0.5,0.2
			c0.1,0.1,0.2,0.3,0.2,0.6c0,0.3-0.1,0.5-0.2,0.6c-0.1,0.1-0.3,0.2-0.5,0.2c-0.2,0-0.4-0.1-0.5-0.2S96.6,127.9,96.6,127.6z
			 M97.9,137h-1.2v-7.4h1.2V137z"/>
		<path id="XMLID_847_" class="st12" d="M105.2,137v-4.7c0-0.6-0.1-1-0.4-1.3s-0.7-0.4-1.3-0.4c-0.8,0-1.3,0.2-1.6,0.6
			c-0.3,0.4-0.5,1.1-0.5,2v3.8h-1.2v-7.4h1l0.2,1h0.1c0.2-0.4,0.5-0.6,1-0.8c0.4-0.2,0.9-0.3,1.4-0.3c0.9,0,1.6,0.2,2,0.7
			c0.4,0.4,0.7,1.1,0.7,2v4.8H105.2z"/>
		<path id="XMLID_844_" class="st12" d="M113.6,136.9l0-0.9h-0.1c-0.5,0.7-1.3,1.1-2.3,1.1c-1,0-1.7-0.3-2.2-1
			c-0.5-0.7-0.8-1.6-0.8-2.8c0-1.2,0.3-2.1,0.8-2.8c0.5-0.7,1.3-1,2.2-1c1,0,1.8,0.4,2.3,1.1h0.1l0.2-1h1v7.5c0,1.1-0.3,1.9-0.8,2.4
			s-1.4,0.8-2.5,0.8c-1.1,0-2-0.2-2.7-0.5v-1.1c0.7,0.4,1.6,0.6,2.7,0.6c0.6,0,1.1-0.2,1.5-0.6c0.4-0.4,0.5-0.9,0.5-1.5V136.9z
			 M111.5,136.1c0.7,0,1.3-0.2,1.6-0.6c0.3-0.4,0.5-1,0.5-1.9v-0.3c0-1-0.2-1.7-0.5-2.2c-0.3-0.4-0.9-0.7-1.6-0.7
			c-0.6,0-1.1,0.2-1.4,0.7c-0.3,0.5-0.5,1.2-0.5,2.1c0,0.9,0.2,1.6,0.5,2.1C110.4,135.9,110.9,136.1,111.5,136.1z"/>
		<path id="XMLID_842_" class="st12" d="M41.2,146c0.3,0,0.6,0,0.9,0.1l-0.1,1.1c-0.3-0.1-0.5-0.1-0.8-0.1c-0.4,0-0.8,0.1-1.1,0.3
			c-0.3,0.2-0.6,0.5-0.8,0.9c-0.2,0.4-0.3,0.8-0.3,1.3v3.9h-1.2v-7.4h1l0.1,1.4h0.1c0.3-0.5,0.6-0.9,1-1.1S40.7,146,41.2,146z"/>
		<path id="XMLID_839_" class="st12" d="M46.4,153.6c-1.1,0-2-0.3-2.6-1c-0.6-0.7-0.9-1.6-0.9-2.8c0-1.2,0.3-2.1,0.9-2.8
			s1.4-1.1,2.4-1.1c0.9,0,1.7,0.3,2.2,0.9c0.6,0.6,0.8,1.4,0.8,2.4v0.7h-5.1c0,0.8,0.2,1.5,0.6,1.9c0.4,0.4,1,0.7,1.7,0.7
			c0.4,0,0.8,0,1.1-0.1s0.8-0.2,1.2-0.4v1.1c-0.4,0.2-0.8,0.3-1.1,0.4S46.9,153.6,46.4,153.6z M46.1,147c-0.6,0-1,0.2-1.4,0.6
			c-0.3,0.4-0.5,0.9-0.6,1.6h3.8c0-0.7-0.2-1.2-0.5-1.6S46.7,147,46.1,147z"/>
		<path id="XMLID_837_" class="st12" d="M52.3,153.5H51V143h1.2V153.5z"/>
		<path id="XMLID_834_" class="st12" d="M59.2,153.5l-0.2-1h-0.1c-0.4,0.5-0.7,0.8-1.1,0.9s-0.8,0.2-1.4,0.2c-0.7,0-1.3-0.2-1.7-0.6
			c-0.4-0.4-0.6-0.9-0.6-1.6c0-1.5,1.2-2.3,3.5-2.4l1.3,0v-0.4c0-0.6-0.1-1-0.4-1.2c-0.2-0.3-0.6-0.4-1.2-0.4
			c-0.4,0-0.8,0.1-1.1,0.2c-0.3,0.1-0.7,0.2-1,0.4l-0.4-0.9c0.4-0.2,0.8-0.4,1.2-0.5c0.4-0.1,0.9-0.2,1.3-0.2c0.9,0,1.6,0.2,2,0.6
			s0.7,1,0.7,1.9v5H59.2z M56.7,152.7c0.7,0,1.2-0.2,1.6-0.5c0.4-0.4,0.6-0.9,0.6-1.6v-0.7l-1.1,0c-0.8,0-1.5,0.2-1.9,0.4
			c-0.4,0.2-0.6,0.6-0.6,1.1c0,0.4,0.1,0.7,0.4,0.9C55.9,152.5,56.2,152.7,56.7,152.7z"/>
		<path id="XMLID_832_" class="st12" d="M64.8,152.6c0.2,0,0.3,0,0.6,0c0.2,0,0.4-0.1,0.5-0.1v0.9c-0.1,0-0.3,0.1-0.5,0.1
			c-0.2,0-0.5,0.1-0.7,0.1c-1.4,0-2.2-0.8-2.2-2.3v-4.3h-1v-0.6l1.1-0.5l0.5-1.6h0.7v1.7h2.1v0.9h-2.1v4.3c0,0.4,0.1,0.8,0.3,1
			C64.1,152.5,64.4,152.6,64.8,152.6z"/>
		<path id="XMLID_829_" class="st12" d="M67.2,144.1c0-0.3,0.1-0.5,0.2-0.6s0.3-0.2,0.5-0.2c0.2,0,0.4,0.1,0.5,0.2s0.2,0.3,0.2,0.6
			c0,0.3-0.1,0.5-0.2,0.6s-0.3,0.2-0.5,0.2c-0.2,0-0.4-0.1-0.5-0.2S67.2,144.4,67.2,144.1z M68.5,153.5h-1.2v-7.4h1.2V153.5z"/>
		<path id="XMLID_826_" class="st12" d="M77.2,149.8c0,1.2-0.3,2.1-0.9,2.8c-0.6,0.7-1.5,1-2.5,1c-0.7,0-1.3-0.2-1.8-0.5
			c-0.5-0.3-0.9-0.8-1.2-1.3c-0.3-0.6-0.4-1.3-0.4-2c0-1.2,0.3-2.1,0.9-2.8c0.6-0.7,1.4-1,2.5-1c1,0,1.9,0.3,2.5,1
			C76.9,147.7,77.2,148.6,77.2,149.8z M71.7,149.8c0,0.9,0.2,1.6,0.5,2.1s0.9,0.7,1.6,0.7c0.7,0,1.2-0.2,1.6-0.7s0.6-1.2,0.6-2.1
			c0-0.9-0.2-1.6-0.6-2.1s-0.9-0.7-1.6-0.7C72.4,147,71.7,147.9,71.7,149.8z"/>
		<path id="XMLID_824_" class="st12" d="M84.2,153.5v-4.7c0-0.6-0.1-1-0.4-1.3s-0.7-0.4-1.3-0.4c-0.8,0-1.3,0.2-1.6,0.6
			c-0.3,0.4-0.5,1.1-0.5,2v3.8h-1.2v-7.4h1l0.2,1h0.1c0.2-0.4,0.5-0.6,1-0.8c0.4-0.2,0.9-0.3,1.4-0.3c0.9,0,1.6,0.2,2,0.7
			c0.4,0.4,0.7,1.1,0.7,2v4.8H84.2z"/>
		<path id="XMLID_822_" class="st12" d="M92.5,151.5c0,0.7-0.3,1.2-0.8,1.6c-0.5,0.4-1.2,0.6-2.2,0.6c-1,0-1.7-0.2-2.3-0.5v-1.1
			c0.8,0.4,1.6,0.6,2.3,0.6c0.6,0,1.1-0.1,1.3-0.3s0.4-0.5,0.4-0.8c0-0.3-0.1-0.5-0.4-0.7s-0.7-0.4-1.4-0.7
			c-0.7-0.3-1.2-0.5-1.5-0.7s-0.5-0.4-0.6-0.6s-0.2-0.5-0.2-0.9c0-0.6,0.2-1.1,0.7-1.4c0.5-0.3,1.2-0.5,2-0.5c0.8,0,1.6,0.2,2.4,0.5
			l-0.4,1c-0.7-0.3-1.4-0.5-2-0.5c-0.5,0-0.9,0.1-1.1,0.2s-0.4,0.4-0.4,0.7c0,0.3,0.1,0.5,0.3,0.7c0.2,0.2,0.7,0.4,1.6,0.7
			c0.6,0.2,1.1,0.4,1.4,0.6c0.3,0.2,0.5,0.4,0.6,0.7C92.4,150.8,92.5,151.1,92.5,151.5z"/>
		<path id="XMLID_820_" class="st12" d="M99.3,153.5v-4.7c0-0.6-0.1-1-0.4-1.3s-0.7-0.4-1.3-0.4c-0.7,0-1.3,0.2-1.6,0.6
			c-0.3,0.4-0.5,1.1-0.5,2.1v3.8h-1.2V143h1.2v3.1c0,0.4,0,0.7-0.1,1h0.1c0.2-0.4,0.5-0.6,0.9-0.8s0.9-0.3,1.4-0.3
			c0.9,0,1.6,0.2,2,0.6c0.5,0.4,0.7,1.1,0.7,2.1v4.8H99.3z"/>
		<path id="XMLID_817_" class="st12" d="M102.7,144.1c0-0.3,0.1-0.5,0.2-0.6s0.3-0.2,0.5-0.2c0.2,0,0.4,0.1,0.5,0.2
			c0.1,0.1,0.2,0.3,0.2,0.6c0,0.3-0.1,0.5-0.2,0.6c-0.1,0.1-0.3,0.2-0.5,0.2c-0.2,0-0.4-0.1-0.5-0.2S102.7,144.4,102.7,144.1z
			 M104,153.5h-1.2v-7.4h1.2V153.5z"/>
		<path id="XMLID_814_" class="st12" d="M109.8,153.6c-1,0-1.8-0.4-2.3-1.1h-0.1l0,0.3c0,0.3,0.1,0.7,0.1,0.9v3h-1.2v-10.7h1l0.2,1
			h0.1c0.3-0.4,0.6-0.7,1-0.9s0.8-0.3,1.3-0.3c1,0,1.7,0.3,2.2,1c0.5,0.7,0.8,1.6,0.8,2.8c0,1.2-0.3,2.1-0.8,2.8
			C111.5,153.3,110.8,153.6,109.8,153.6z M109.6,147c-0.7,0-1.3,0.2-1.6,0.6s-0.5,1.1-0.5,1.9v0.2c0,1,0.2,1.7,0.5,2.2
			c0.3,0.4,0.9,0.7,1.6,0.7c0.6,0,1.1-0.3,1.4-0.8c0.3-0.5,0.5-1.2,0.5-2.1c0-0.9-0.2-1.6-0.5-2.1C110.7,147.2,110.2,147,109.6,147z
			"/>
		<path id="XMLID_812_" class="st12" d="M119.6,151.5c0,0.7-0.3,1.2-0.8,1.6c-0.5,0.4-1.2,0.6-2.2,0.6c-1,0-1.7-0.2-2.3-0.5v-1.1
			c0.8,0.4,1.6,0.6,2.3,0.6c0.6,0,1.1-0.1,1.3-0.3c0.3-0.2,0.4-0.5,0.4-0.8c0-0.3-0.1-0.5-0.4-0.7s-0.7-0.4-1.4-0.7
			c-0.7-0.3-1.2-0.5-1.5-0.7s-0.5-0.4-0.6-0.6c-0.1-0.2-0.2-0.5-0.2-0.9c0-0.6,0.2-1.1,0.7-1.4c0.5-0.3,1.2-0.5,2-0.5
			c0.8,0,1.6,0.2,2.4,0.5l-0.4,1c-0.7-0.3-1.4-0.5-2-0.5c-0.5,0-0.9,0.1-1.1,0.2s-0.4,0.4-0.4,0.7c0,0.3,0.1,0.5,0.3,0.7
			c0.2,0.2,0.7,0.4,1.6,0.7c0.6,0.2,1.1,0.4,1.4,0.6c0.3,0.2,0.5,0.4,0.6,0.7C119.5,150.8,119.6,151.1,119.6,151.5z"/>
	</g>
</g>
</svg>
