<!-- Generator: Adobe Illustrator 19.0.0, SVG Export Plug-In  -->
<svg version="1.1"
	 xmlns="http://www.w3.org/2000/svg" xmlns:xlink="http://www.w3.org/1999/xlink" xmlns:a="http://ns.adobe.com/AdobeSVGViewerExtensions/3.0/"
	 x="0px" y="0px" width="167.1px" height="181.4px" viewBox="0 0 167.1 181.4" style="enable-background:new 0 0 167.1 181.4;"
	 xml:space="preserve">
<style type="text/css">
	.st0{fill:#E29A59;}
	.st1{fill:#212856;}
	.st2{fill:#162051;}
	.st3{fill:#FFFDFD;}
	.st4{fill:#FFFFFF;}
	.st5{fill:#3F3F3F;}
	.st6{fill:#3F3F3F;stroke:#3F3F3F;stroke-width:0.2;stroke-miterlimit:10;}
	.st7{fill:#CC0D29;}
</style>
<defs>
</defs>
<rect id="XMLID_299_" x="17.1" class="st0" width="150" height="181.3"/>
<g id="XMLID_265_">
	<path id="XMLID_298_" class="st1" d="M119.1,77.2H65.3c-7.7,0-14-6.3-14-14V48.3c0-7.7,6.3-14,14-14h53.7c7.7,0,14,6.3,14,14v14.9
		C133.1,70.9,126.8,77.2,119.1,77.2z"/>
	<path id="XMLID_297_" class="st2" d="M83.6,40.4L83.6,40.4c-3.2,1.6-7.1,0.3-8.7-2.9L69.2,26c-1.6-3.2-0.3-7.1,2.9-8.7l0,0
		c3.2-1.6,7.1-0.3,8.7,2.9l5.8,11.6C88.1,34.9,86.8,38.8,83.6,40.4z"/>
	<path id="XMLID_296_" class="st2" d="M95.7,36.9L95.7,36.9c-2.5-2.5-2.6-6.6-0.1-9.1l9-9.2c2.5-2.5,6.6-2.6,9.1-0.1l0,0
		c2.5,2.5,2.6,6.6,0.1,9.1l-9,9.2C102.3,39.4,98.2,39.4,95.7,36.9z"/>
	<path id="XMLID_295_" class="st1" d="M93.9,38.5h-4.8c-4.6,0-8.3-3.7-8.3-8.3l0,0c0-4.6,3.7-8.3,8.3-8.3h4.8c4.6,0,8.3,3.7,8.3,8.3
		l0,0C102.2,34.7,98.5,38.5,93.9,38.5z"/>
	<circle id="XMLID_294_" class="st3" cx="94.2" cy="30.1" r="3.8"/>
	<circle id="XMLID_293_" class="st3" cx="64.4" cy="41.8" r="3.1"/>
	<circle id="XMLID_292_" class="st3" cx="64.4" cy="51.1" r="3.1"/>
	<circle id="XMLID_291_" class="st3" cx="64.4" cy="60.4" r="3.1"/>
	<circle id="XMLID_290_" class="st3" cx="64.4" cy="69.8" r="3.1"/>
	<circle id="XMLID_289_" class="st3" cx="73.9" cy="41.8" r="3.1"/>
	<circle id="XMLID_288_" class="st3" cx="73.9" cy="51.1" r="3.1"/>
	<circle id="XMLID_287_" class="st3" cx="73.9" cy="60.4" r="3.1"/>
	<circle id="XMLID_286_" class="st3" cx="73.9" cy="69.8" r="3.1"/>
	<circle id="XMLID_285_" class="st3" cx="83.4" cy="41.8" r="3.1"/>
	<circle id="XMLID_284_" class="st3" cx="83.4" cy="51.1" r="3.1"/>
	<circle id="XMLID_283_" class="st3" cx="83.4" cy="60.4" r="3.1"/>
	<circle id="XMLID_282_" class="st3" cx="83.4" cy="69.8" r="3.1"/>
	<circle id="XMLID_281_" class="st3" cx="92.9" cy="41.8" r="3.1"/>
	<circle id="XMLID_280_" class="st3" cx="92.9" cy="51.1" r="3.1"/>
	<circle id="XMLID_279_" class="st3" cx="92.9" cy="60.4" r="3.1"/>
	<circle id="XMLID_278_" class="st3" cx="92.9" cy="69.8" r="3.1"/>
	<circle id="XMLID_277_" class="st3" cx="102.4" cy="41.8" r="3.1"/>
	<circle id="XMLID_276_" class="st3" cx="102.4" cy="51.1" r="3.1"/>
	<circle id="XMLID_275_" class="st3" cx="102.4" cy="60.4" r="3.1"/>
	<circle id="XMLID_274_" class="st3" cx="102.4" cy="69.8" r="3.1"/>
	<circle id="XMLID_273_" class="st3" cx="111.9" cy="41.8" r="3.1"/>
	<circle id="XMLID_272_" class="st3" cx="111.9" cy="51.1" r="3.1"/>
	<circle id="XMLID_271_" class="st3" cx="111.9" cy="60.4" r="3.1"/>
	<circle id="XMLID_270_" class="st3" cx="111.9" cy="69.8" r="3.1"/>
	<circle id="XMLID_269_" class="st3" cx="121.4" cy="41.8" r="3.1"/>
	<circle id="XMLID_268_" class="st3" cx="121.4" cy="51.1" r="3.1"/>
	<circle id="XMLID_267_" class="st3" cx="121.4" cy="60.4" r="3.1"/>
	<circle id="XMLID_266_" class="st3" cx="121.4" cy="69.8" r="3.1"/>
</g>
<g id="XMLID_262_">
	<rect id="XMLID_264_" x="17.1" y="94.4" class="st4" width="150" height="86.9"/>
	<polygon id="XMLID_263_" class="st4" points="19.2,181.3 19.2,159.7 0,181.4 	"/>
</g>
<g id="XMLID_15_">
	<g id="XMLID_21_">
		<g id="XMLID_23_">
			<path id="XMLID_141_" class="st5" d="M62.2,102.7v6.4c0,0.7-0.2,1.4-0.5,1.9c-0.3,0.5-0.8,1-1.4,1.3c-0.6,0.3-1.3,0.4-2.2,0.4
				c-1.3,0-2.2-0.3-2.9-1c-0.7-0.6-1-1.5-1-2.7v-6.3h2.1v6c0,0.8,0.2,1.3,0.5,1.7c0.3,0.4,0.8,0.5,1.5,0.5c0.7,0,1.2-0.2,1.5-0.5
				c0.3-0.4,0.5-0.9,0.5-1.7v-6H62.2z"/>
			<path id="XMLID_139_" class="st5" d="M69.7,110.3c0,0.8-0.3,1.4-0.8,1.8c-0.5,0.4-1.3,0.6-2.4,0.6c-0.5,0-1,0-1.4-0.1
				c-0.4-0.1-0.7-0.2-1.1-0.3v-1.7c0.4,0.2,0.8,0.3,1.3,0.5c0.5,0.1,0.9,0.2,1.3,0.2c0.7,0,1.1-0.2,1.1-0.6c0-0.2,0-0.3-0.1-0.4
				c-0.1-0.1-0.3-0.2-0.5-0.3c-0.2-0.1-0.6-0.3-1-0.4c-0.6-0.2-1-0.5-1.3-0.7c-0.3-0.2-0.5-0.4-0.6-0.7c-0.1-0.3-0.2-0.6-0.2-1
				c0-0.7,0.3-1.2,0.8-1.5s1.3-0.5,2.2-0.5c0.9,0,1.8,0.2,2.6,0.6l-0.6,1.5c-0.4-0.2-0.7-0.3-1.1-0.4c-0.3-0.1-0.7-0.2-1-0.2
				c-0.6,0-0.9,0.2-0.9,0.5c0,0.2,0.1,0.3,0.3,0.5c0.2,0.1,0.6,0.3,1.3,0.6c0.6,0.2,1,0.5,1.3,0.7s0.5,0.4,0.6,0.7
				C69.6,109.6,69.7,109.9,69.7,110.3z"/>
			<path id="XMLID_136_" class="st5" d="M74.7,112.7c-1.2,0-2.2-0.3-2.8-1c-0.7-0.7-1-1.6-1-2.8c0-1.3,0.3-2.2,0.9-2.9
				c0.6-0.7,1.5-1,2.6-1c1.1,0,1.9,0.3,2.5,0.9c0.6,0.6,0.9,1.4,0.9,2.5v1h-4.8c0,0.6,0.2,1,0.5,1.4c0.3,0.3,0.8,0.5,1.4,0.5
				c0.5,0,0.9,0,1.3-0.1s0.8-0.2,1.3-0.5v1.6c-0.4,0.2-0.7,0.3-1.1,0.4C75.8,112.6,75.3,112.7,74.7,112.7z M74.4,106.3
				c-0.4,0-0.8,0.1-1,0.4c-0.2,0.3-0.4,0.7-0.4,1.2h2.9c0-0.5-0.1-0.9-0.4-1.2C75.2,106.5,74.8,106.3,74.4,106.3z"/>
			<path id="XMLID_134_" class="st5" d="M85.3,112.5h-2.1v-10h5.7v1.7h-3.6v2.6h3.4v1.7h-3.4V112.5z"/>
			<path id="XMLID_132_" class="st5" d="M96.1,112.5l-0.3-1h-0.1c-0.2,0.4-0.5,0.6-1,0.8s-0.9,0.3-1.4,0.3c-0.9,0-1.6-0.2-2-0.7
				c-0.5-0.5-0.7-1.2-0.7-2.1v-5h2.1v4.5c0,0.6,0.1,1,0.3,1.2c0.2,0.3,0.5,0.4,0.9,0.4c0.6,0,1-0.2,1.3-0.6s0.4-1,0.4-1.9v-3.6h2.1
				v7.6H96.1z"/>
			<path id="XMLID_130_" class="st5" d="M104.2,104.7c0.3,0,0.5,0,0.7,0.1l-0.2,2c-0.2,0-0.4-0.1-0.6-0.1c-0.7,0-1.2,0.2-1.6,0.5
				s-0.6,0.8-0.6,1.4v3.9h-2.1v-7.6h1.6l0.3,1.3h0.1c0.2-0.4,0.6-0.8,1-1S103.7,104.7,104.2,104.7z"/>
			<path id="XMLID_127_" class="st5" d="M113.1,108.7c0,1.2-0.3,2.2-1,2.9s-1.6,1.1-2.7,1.1c-0.7,0-1.4-0.2-1.9-0.5s-1-0.8-1.3-1.4
				s-0.5-1.3-0.5-2.1c0-1.2,0.3-2.2,1-2.9c0.7-0.7,1.6-1,2.7-1c0.7,0,1.4,0.2,1.9,0.5s1,0.8,1.3,1.4S113.1,107.9,113.1,108.7z
				 M107.8,108.7c0,0.8,0.1,1.3,0.4,1.7s0.7,0.6,1.2,0.6c0.6,0,1-0.2,1.2-0.6s0.4-1,0.4-1.7c0-0.8-0.1-1.3-0.4-1.7s-0.6-0.6-1.2-0.6
				c-0.6,0-1,0.2-1.2,0.6S107.8,107.9,107.8,108.7z"/>
			<path id="XMLID_125_" class="st5" d="M120.1,110.3c0,0.8-0.3,1.4-0.8,1.8s-1.4,0.6-2.4,0.6c-0.6,0-1,0-1.4-0.1
				c-0.4-0.1-0.8-0.2-1.1-0.3v-1.7c0.4,0.2,0.8,0.3,1.3,0.5s0.9,0.2,1.3,0.2c0.8,0,1.1-0.2,1.1-0.7c0-0.2-0.1-0.3-0.2-0.4
				c-0.1-0.1-0.3-0.2-0.5-0.3s-0.6-0.3-1-0.5c-0.6-0.2-1-0.5-1.3-0.7s-0.5-0.5-0.6-0.7s-0.2-0.6-0.2-1c0-0.7,0.3-1.2,0.8-1.6
				s1.3-0.6,2.2-0.6c0.9,0,1.8,0.2,2.7,0.6l-0.6,1.5c-0.4-0.2-0.7-0.3-1.1-0.4c-0.3-0.1-0.7-0.2-1-0.2c-0.6,0-0.9,0.2-0.9,0.5
				c0,0.2,0.1,0.3,0.3,0.5s0.6,0.3,1.3,0.6c0.6,0.2,1,0.5,1.3,0.7c0.3,0.2,0.5,0.5,0.6,0.7C120,109.6,120.1,109.9,120.1,110.3z"/>
			<path id="XMLID_123_" class="st5" d="M128.8,112.5h-2.1v-4.5c0-1.1-0.4-1.7-1.2-1.7c-0.6,0-1,0.2-1.3,0.6s-0.4,1-0.4,1.9v3.6
				h-2.1v-10.6h2.1v2.2c0,0.2,0,0.6,0,1.2l0,0.6h0.1c0.5-0.7,1.2-1.1,2.2-1.1c0.9,0,1.6,0.2,2,0.7c0.5,0.5,0.7,1.2,0.7,2.1V112.5z"
				/>
			<path id="XMLID_120_" class="st5" d="M130.9,102.9c0-0.7,0.4-1,1.1-1c0.8,0,1.1,0.3,1.1,1c0,0.3-0.1,0.6-0.3,0.8
				s-0.5,0.3-0.9,0.3C131.2,103.9,130.9,103.6,130.9,102.9z M133,112.5h-2.1v-7.6h2.1V112.5z"/>
			<path id="XMLID_118_" class="st5" d="M137.2,108.4l0.9-1.2l2.1-2.3h2.4l-3,3.3l3.2,4.3h-2.4l-2.2-3.1l-0.9,0.7v2.4h-2.1v-10.6
				h2.1v4.7L137.2,108.4L137.2,108.4z"/>
			<path id="XMLID_115_" class="st5" d="M143.8,102.9c0-0.7,0.4-1,1.1-1c0.8,0,1.1,0.3,1.1,1c0,0.3-0.1,0.6-0.3,0.8
				s-0.5,0.3-0.9,0.3C144.2,103.9,143.8,103.6,143.8,102.9z M146,112.5h-2.1v-7.6h2.1V112.5z"/>
			<path id="XMLID_112_" class="st5" d="M60.7,129.3c0,1.1-0.3,1.9-1,2.5s-1.6,0.9-2.9,0.9c-1.1,0-2.1-0.2-2.9-0.5v-1.7
				c0.9,0.4,1.9,0.6,3,0.6c1.1,0,1.6-0.6,1.6-1.7v-0.2l0.1-0.9h-0.1c-0.5,0.8-1.2,1.1-2.2,1.1c-0.9,0-1.6-0.4-2.1-1.1
				c-0.5-0.7-0.8-1.7-0.8-2.9c0-1.3,0.3-2.2,0.8-2.9s1.2-1,2.2-1c0.9,0,1.7,0.4,2.2,1.1h0.1l0.2-1h1.8V129.3z M57.2,127.8
				c0.6,0,1-0.2,1.2-0.5c0.2-0.3,0.4-0.8,0.4-1.6v-0.3c0-0.8-0.1-1.4-0.4-1.8s-0.7-0.5-1.2-0.5c-1,0-1.5,0.8-1.5,2.3
				c0,0.8,0.1,1.3,0.4,1.7S56.7,127.8,57.2,127.8z"/>
			<path id="XMLID_109_" class="st5" d="M62.8,119.7c0-0.7,0.4-1,1.1-1c0.8,0,1.1,0.3,1.1,1c0,0.3-0.1,0.6-0.3,0.8s-0.5,0.3-0.9,0.3
				C63.2,120.7,62.8,120.4,62.8,119.7z M65,129.3h-2.1v-7.6H65V129.3z"/>
			<path id="XMLID_107_" class="st5" d="M71.4,123.2h-1.8v6.1h-2.1v-6.1h-1.1v-1l1.1-0.6v-0.6c0-0.9,0.2-1.5,0.6-1.9
				c0.4-0.4,1.1-0.6,2.1-0.6c0.7,0,1.4,0.1,1.9,0.3l-0.5,1.5c-0.4-0.1-0.8-0.2-1.2-0.2c-0.3,0-0.5,0.1-0.6,0.3
				c-0.1,0.2-0.2,0.4-0.2,0.7v0.5h1.8V123.2z"/>
			<path id="XMLID_105_" class="st5" d="M75.8,127.8c0.4,0,0.8-0.1,1.3-0.2v1.6c-0.5,0.2-1.2,0.3-1.9,0.3c-0.8,0-1.4-0.2-1.8-0.6
				s-0.6-1.1-0.6-1.9v-3.7h-1v-0.9l1.1-0.7l0.6-1.6h1.3v1.6h2.1v1.6h-2.1v3.7c0,0.3,0.1,0.5,0.2,0.7S75.6,127.8,75.8,127.8z"/>
			<path id="XMLID_103_" class="st5" d="M85.4,129.5c-2.4,0-3.6-1.3-3.6-3.9c0-1.3,0.3-2.3,1-3c0.6-0.7,1.6-1,2.8-1
				c0.9,0,1.7,0.2,2.4,0.5l-0.6,1.6c-0.3-0.1-0.6-0.2-0.9-0.3c-0.3-0.1-0.6-0.1-0.8-0.1c-1.1,0-1.6,0.8-1.6,2.3
				c0,1.5,0.5,2.2,1.6,2.2c0.4,0,0.8-0.1,1.1-0.2s0.7-0.3,1-0.5v1.8c-0.3,0.2-0.7,0.4-1,0.4S85.9,129.5,85.4,129.5z"/>
			<path id="XMLID_101_" class="st5" d="M91.5,129.3h-2v-10.5h2V129.3z"/>
			<path id="XMLID_98_" class="st5" d="M100.5,125.6c0,1.2-0.3,2.2-1,2.9c-0.6,0.7-1.5,1-2.7,1c-0.7,0-1.4-0.2-1.9-0.5
				c-0.6-0.3-1-0.8-1.3-1.4c-0.3-0.6-0.4-1.3-0.4-2.1c0-1.2,0.3-2.2,1-2.9c0.6-0.7,1.5-1,2.7-1c0.7,0,1.4,0.2,1.9,0.5
				c0.6,0.3,1,0.8,1.3,1.4S100.5,124.8,100.5,125.6z M95.3,125.6c0,0.7,0.1,1.3,0.4,1.7c0.2,0.4,0.6,0.6,1.2,0.6
				c0.5,0,0.9-0.2,1.2-0.6c0.2-0.4,0.4-0.9,0.4-1.7c0-0.7-0.1-1.3-0.4-1.7c-0.2-0.4-0.6-0.6-1.2-0.6c-0.5,0-0.9,0.2-1.2,0.6
				C95.5,124.2,95.3,124.8,95.3,125.6z"/>
			<path id="XMLID_96_" class="st5" d="M105.4,127.8c0.4,0,0.8-0.1,1.3-0.2v1.5c-0.5,0.2-1.1,0.3-1.9,0.3c-0.8,0-1.4-0.2-1.8-0.6
				c-0.4-0.4-0.6-1-0.6-1.9v-3.6h-1v-0.9l1.1-0.7l0.6-1.6h1.3v1.6h2.1v1.5h-2.1v3.6c0,0.3,0.1,0.5,0.2,0.6
				C104.9,127.8,105.1,127.8,105.4,127.8z"/>
			<path id="XMLID_94_" class="st5" d="M115.1,129.3h-2v-4.4c0-1.1-0.4-1.6-1.2-1.6c-0.6,0-1,0.2-1.2,0.6s-0.4,1-0.4,1.9v3.5h-2
				v-10.5h2v2.1c0,0.2,0,0.6,0,1.2l0,0.6h0.1c0.5-0.7,1.2-1.1,2.2-1.1c0.9,0,1.6,0.2,2,0.7c0.5,0.5,0.7,1.2,0.7,2V129.3z"/>
			<path id="XMLID_92_" class="st6" d="M57.4,145.8h-1.2v-8.7h-3.1V136h7.4v1.1h-3.1V145.8z"/>
			<path id="XMLID_90_" class="st6" d="M64.9,138.3c0.3,0,0.6,0,0.9,0.1l-0.1,1.1c-0.3-0.1-0.5-0.1-0.8-0.1c-0.4,0-0.8,0.1-1.1,0.3
				c-0.3,0.2-0.6,0.5-0.8,0.9c-0.2,0.4-0.3,0.8-0.3,1.3v3.9h-1.2v-7.4h1l0.1,1.4h0.1c0.3-0.5,0.6-0.9,1-1.1
				C64,138.5,64.4,138.3,64.9,138.3z"/>
			<path id="XMLID_87_" class="st6" d="M71.6,145.8l-0.2-1h-0.1c-0.4,0.5-0.7,0.8-1.1,0.9s-0.8,0.2-1.4,0.2c-0.7,0-1.3-0.2-1.7-0.6
				c-0.4-0.4-0.6-0.9-0.6-1.6c0-1.5,1.2-2.3,3.5-2.4l1.3,0V141c0-0.6-0.1-1-0.4-1.2c-0.2-0.3-0.6-0.4-1.2-0.4
				c-0.4,0-0.8,0.1-1.1,0.2c-0.3,0.1-0.7,0.2-1,0.4l-0.4-0.9c0.4-0.2,0.8-0.4,1.2-0.5c0.4-0.1,0.9-0.2,1.3-0.2c0.9,0,1.6,0.2,2,0.6
				s0.7,1,0.7,1.9v5H71.6z M69.1,145c0.7,0,1.2-0.2,1.6-0.5c0.4-0.4,0.6-0.9,0.6-1.6v-0.7l-1.1,0c-0.8,0-1.5,0.2-1.9,0.4
				c-0.4,0.2-0.6,0.6-0.6,1.1c0,0.4,0.1,0.7,0.4,0.9C68.3,144.9,68.6,145,69.1,145z"/>
			<path id="XMLID_84_" class="st6" d="M77.3,146c-1,0-1.7-0.3-2.2-1c-0.5-0.7-0.8-1.6-0.8-2.8c0-1.2,0.3-2.1,0.8-2.8
				c0.5-0.7,1.3-1,2.2-1c1,0,1.8,0.4,2.3,1.1h0.1c0-0.1,0-0.3-0.1-0.5s0-0.5,0-0.5v-2.9h1.2v10.5h-1l-0.2-1h-0.1
				C79.1,145.6,78.4,146,77.3,146z M77.5,145c0.7,0,1.3-0.2,1.6-0.6c0.3-0.4,0.5-1.1,0.5-2v-0.2c0-1-0.2-1.8-0.5-2.2
				c-0.3-0.4-0.9-0.7-1.6-0.7c-0.6,0-1.1,0.2-1.4,0.7c-0.3,0.5-0.5,1.2-0.5,2.1c0,0.9,0.2,1.6,0.5,2.1C76.4,144.7,76.9,145,77.5,145
				z"/>
			<path id="XMLID_81_" class="st6" d="M83.1,136.5c0-0.3,0.1-0.5,0.2-0.6s0.3-0.2,0.5-0.2c0.2,0,0.4,0.1,0.5,0.2
				c0.1,0.1,0.2,0.3,0.2,0.6c0,0.3-0.1,0.5-0.2,0.6c-0.1,0.1-0.3,0.2-0.5,0.2c-0.2,0-0.4-0.1-0.5-0.2S83.1,136.7,83.1,136.5z
				 M84.4,145.8h-1.2v-7.4h1.2V145.8z"/>
			<path id="XMLID_79_" class="st6" d="M89.2,145c0.2,0,0.3,0,0.6,0c0.2,0,0.4-0.1,0.5-0.1v0.9c-0.1,0-0.3,0.1-0.5,0.1
				c-0.2,0-0.5,0.1-0.7,0.1c-1.4,0-2.2-0.8-2.2-2.3v-4.3h-1v-0.6l1.1-0.5l0.5-1.6H88v1.7h2.1v0.9H88v4.3c0,0.4,0.1,0.8,0.3,1
				C88.6,144.9,88.8,145,89.2,145z"/>
			<path id="XMLID_76_" class="st6" d="M91.6,136.5c0-0.3,0.1-0.5,0.2-0.6s0.3-0.2,0.5-0.2c0.2,0,0.4,0.1,0.5,0.2
				c0.1,0.1,0.2,0.3,0.2,0.6c0,0.3-0.1,0.5-0.2,0.6c-0.1,0.1-0.3,0.2-0.5,0.2c-0.2,0-0.4-0.1-0.5-0.2S91.6,136.7,91.6,136.5z
				 M92.9,145.8h-1.2v-7.4h1.2V145.8z"/>
			<path id="XMLID_73_" class="st6" d="M101.7,142.1c0,1.2-0.3,2.1-0.9,2.8c-0.6,0.7-1.5,1-2.5,1c-0.7,0-1.3-0.2-1.8-0.5
				s-0.9-0.8-1.2-1.3c-0.3-0.6-0.4-1.3-0.4-2c0-1.2,0.3-2.1,0.9-2.8c0.6-0.7,1.4-1,2.5-1c1,0,1.9,0.3,2.5,1
				C101.4,140,101.7,141,101.7,142.1z M96.1,142.1c0,0.9,0.2,1.6,0.5,2.1s0.9,0.7,1.6,0.7c0.7,0,1.2-0.2,1.6-0.7
				c0.4-0.5,0.6-1.2,0.6-2.1c0-0.9-0.2-1.6-0.6-2.1s-0.9-0.7-1.6-0.7C96.8,139.3,96.1,140.3,96.1,142.1z"/>
			<path id="XMLID_71_" class="st6" d="M108.6,145.8v-4.7c0-0.6-0.1-1-0.4-1.3s-0.7-0.4-1.3-0.4c-0.8,0-1.3,0.2-1.6,0.6
				c-0.3,0.4-0.5,1.1-0.5,2v3.8h-1.2v-7.4h1l0.2,1h0.1c0.2-0.4,0.5-0.6,1-0.8c0.4-0.2,0.9-0.3,1.4-0.3c0.9,0,1.6,0.2,2,0.7
				c0.4,0.4,0.7,1.1,0.7,2v4.8H108.6z"/>
			<path id="XMLID_68_" class="st6" d="M116.6,145.8l-0.2-1h-0.1c-0.4,0.5-0.7,0.8-1.1,0.9s-0.8,0.2-1.4,0.2c-0.7,0-1.3-0.2-1.7-0.6
				c-0.4-0.4-0.6-0.9-0.6-1.6c0-1.5,1.2-2.3,3.5-2.4l1.3,0V141c0-0.6-0.1-1-0.4-1.2c-0.2-0.3-0.6-0.4-1.2-0.4
				c-0.4,0-0.8,0.1-1.1,0.2c-0.3,0.1-0.7,0.2-1,0.4l-0.4-0.9c0.4-0.2,0.8-0.4,1.2-0.5c0.4-0.1,0.9-0.2,1.3-0.2c0.9,0,1.6,0.2,2,0.6
				s0.7,1,0.7,1.9v5H116.6z M114.2,145c0.7,0,1.2-0.2,1.6-0.5c0.4-0.4,0.6-0.9,0.6-1.6v-0.7l-1.1,0c-0.8,0-1.5,0.2-1.9,0.4
				c-0.4,0.2-0.6,0.6-0.6,1.1c0,0.4,0.1,0.7,0.4,0.9C113.4,144.9,113.7,145,114.2,145z"/>
			<path id="XMLID_66_" class="st6" d="M121,145.8h-1.2v-10.5h1.2V145.8z"/>
			<path id="XMLID_63_" class="st6" d="M131.5,145.8l-0.2-1h-0.1c-0.4,0.5-0.7,0.8-1.1,0.9s-0.8,0.2-1.4,0.2c-0.7,0-1.3-0.2-1.7-0.6
				c-0.4-0.4-0.6-0.9-0.6-1.6c0-1.5,1.2-2.3,3.5-2.4l1.3,0V141c0-0.6-0.1-1-0.4-1.2c-0.2-0.3-0.6-0.4-1.2-0.4
				c-0.4,0-0.8,0.1-1.1,0.2c-0.3,0.1-0.7,0.2-1,0.4l-0.4-0.9c0.4-0.2,0.8-0.4,1.2-0.5c0.4-0.1,0.9-0.2,1.3-0.2c0.9,0,1.6,0.2,2,0.6
				s0.7,1,0.7,1.9v5H131.5z M129,145c0.7,0,1.2-0.2,1.6-0.5c0.4-0.4,0.6-0.9,0.6-1.6v-0.7l-1.1,0c-0.8,0-1.5,0.2-1.9,0.4
				c-0.4,0.2-0.6,0.6-0.6,1.1c0,0.4,0.1,0.7,0.4,0.9C128.2,144.9,128.6,145,129,145z"/>
			<path id="XMLID_61_" class="st6" d="M139.7,145.8v-4.7c0-0.6-0.1-1-0.4-1.3s-0.7-0.4-1.3-0.4c-0.8,0-1.3,0.2-1.6,0.6
				c-0.3,0.4-0.5,1.1-0.5,2v3.8h-1.2v-7.4h1l0.2,1h0.1c0.2-0.4,0.5-0.6,1-0.8c0.4-0.2,0.9-0.3,1.4-0.3c0.9,0,1.6,0.2,2,0.7
				c0.4,0.4,0.7,1.1,0.7,2v4.8H139.7z"/>
			<path id="XMLID_58_" class="st6" d="M145.8,146c-1,0-1.7-0.3-2.2-1s-0.8-1.6-0.8-2.8c0-1.2,0.3-2.1,0.8-2.8c0.5-0.7,1.3-1,2.2-1
				c1,0,1.8,0.4,2.3,1.1h0.1c0-0.1,0-0.3-0.1-0.5s0-0.5,0-0.5v-2.9h1.2v10.5h-1l-0.2-1h-0.1C147.6,145.6,146.8,146,145.8,146z
				 M146,145c0.7,0,1.3-0.2,1.6-0.6c0.3-0.4,0.5-1.1,0.5-2v-0.2c0-1-0.2-1.8-0.5-2.2s-0.9-0.7-1.6-0.7c-0.6,0-1.1,0.2-1.4,0.7
				s-0.5,1.2-0.5,2.1c0,0.9,0.2,1.6,0.5,2.1C144.8,144.7,145.3,145,146,145z"/>
			<path id="XMLID_56_" class="st6" d="M63.5,162.4v-4.8c0-1.2-0.5-1.7-1.5-1.7c-0.7,0-1.2,0.2-1.5,0.6c-0.3,0.4-0.5,1-0.5,1.8v4.1
				h-1.2v-4.8c0-0.6-0.1-1-0.4-1.3c-0.2-0.3-0.6-0.4-1.1-0.4c-0.7,0-1.2,0.2-1.5,0.6c-0.3,0.4-0.5,1.1-0.5,2v3.8h-1.2V155h1l0.2,1
				h0.1c0.2-0.4,0.5-0.6,0.9-0.8c0.4-0.2,0.8-0.3,1.3-0.3c1.2,0,1.9,0.4,2.3,1.2h0.1c0.2-0.4,0.6-0.7,1-0.9c0.4-0.2,0.9-0.3,1.4-0.3
				c0.8,0,1.5,0.2,1.9,0.6c0.4,0.4,0.6,1.1,0.6,2.1v4.8H63.5z"/>
			<path id="XMLID_53_" class="st6" d="M70.1,162.5c-1.1,0-2-0.3-2.6-1c-0.6-0.7-0.9-1.6-0.9-2.8c0-1.2,0.3-2.1,0.9-2.8
				s1.4-1.1,2.4-1.1c0.9,0,1.7,0.3,2.2,0.9c0.6,0.6,0.8,1.4,0.8,2.4v0.7h-5.1c0,0.8,0.2,1.5,0.6,1.9s1,0.7,1.7,0.7
				c0.4,0,0.8,0,1.1-0.1c0.4-0.1,0.8-0.2,1.2-0.4v1.1c-0.4,0.2-0.8,0.3-1.1,0.4C71,162.5,70.6,162.5,70.1,162.5z M69.8,155.8
				c-0.6,0-1,0.2-1.4,0.6c-0.3,0.4-0.5,0.9-0.6,1.6h3.8c0-0.7-0.2-1.2-0.5-1.6C70.8,156,70.4,155.8,69.8,155.8z"/>
			<path id="XMLID_50_" class="st6" d="M79.3,162.4l-0.2-1H79c-0.4,0.5-0.7,0.8-1.1,0.9c-0.4,0.2-0.8,0.2-1.4,0.2
				c-0.7,0-1.3-0.2-1.7-0.6c-0.4-0.4-0.6-0.9-0.6-1.6c0-1.5,1.2-2.3,3.5-2.4l1.3,0v-0.4c0-0.6-0.1-1-0.4-1.2
				c-0.2-0.3-0.6-0.4-1.2-0.4c-0.4,0-0.8,0.1-1.1,0.2c-0.3,0.1-0.7,0.2-1,0.4l-0.4-0.9c0.4-0.2,0.8-0.4,1.2-0.5s0.9-0.2,1.3-0.2
				c0.9,0,1.6,0.2,2,0.6s0.7,1,0.7,1.9v5H79.3z M76.8,161.5c0.7,0,1.2-0.2,1.6-0.5s0.6-0.9,0.6-1.6v-0.7l-1.1,0
				c-0.8,0-1.5,0.2-1.9,0.4c-0.4,0.2-0.6,0.6-0.6,1.1c0,0.4,0.1,0.7,0.4,0.9C76.1,161.4,76.4,161.5,76.8,161.5z"/>
			<path id="XMLID_48_" class="st6" d="M87.5,162.4v-4.7c0-0.6-0.1-1-0.4-1.3s-0.7-0.4-1.3-0.4c-0.8,0-1.3,0.2-1.7,0.6
				c-0.3,0.4-0.5,1.1-0.5,2v3.8h-1.2V155h1l0.2,1h0.1c0.2-0.4,0.5-0.6,1-0.8c0.4-0.2,0.9-0.3,1.4-0.3c0.9,0,1.6,0.2,2,0.7
				c0.4,0.4,0.7,1.1,0.7,2v4.8H87.5z"/>
			<path id="XMLID_45_" class="st6" d="M90.9,153c0-0.3,0.1-0.5,0.2-0.6s0.3-0.2,0.5-0.2c0.2,0,0.4,0.1,0.5,0.2s0.2,0.3,0.2,0.6
				c0,0.3-0.1,0.5-0.2,0.6s-0.3,0.2-0.5,0.2c-0.2,0-0.4-0.1-0.5-0.2S90.9,153.2,90.9,153z M92.2,162.4H91V155h1.2V162.4z"/>
			<path id="XMLID_43_" class="st6" d="M99.6,162.4v-4.7c0-0.6-0.1-1-0.4-1.3s-0.7-0.4-1.3-0.4c-0.8,0-1.3,0.2-1.7,0.6
				c-0.3,0.4-0.5,1.1-0.5,2v3.8h-1.2V155h1l0.2,1h0.1c0.2-0.4,0.5-0.6,1-0.8c0.4-0.2,0.9-0.3,1.4-0.3c0.9,0,1.6,0.2,2,0.7
				c0.4,0.4,0.7,1.1,0.7,2v4.8H99.6z"/>
			<path id="XMLID_40_" class="st6" d="M108,162.3l0-0.9H108c-0.5,0.7-1.3,1.1-2.3,1.1c-1,0-1.7-0.3-2.2-1c-0.5-0.7-0.8-1.6-0.8-2.8
				c0-1.2,0.3-2.1,0.8-2.8s1.3-1,2.2-1c1,0,1.8,0.4,2.3,1.1h0.1l0.2-1h1v7.5c0,1.1-0.3,1.9-0.8,2.4c-0.5,0.5-1.4,0.8-2.5,0.8
				c-1.1,0-2-0.2-2.7-0.5v-1.1c0.7,0.4,1.6,0.6,2.7,0.6c0.6,0,1.1-0.2,1.5-0.6c0.4-0.4,0.5-0.9,0.5-1.5V162.3z M105.9,161.5
				c0.7,0,1.3-0.2,1.6-0.6s0.5-1,0.5-1.9v-0.3c0-1-0.2-1.7-0.5-2.2s-0.9-0.7-1.6-0.7c-0.6,0-1.1,0.2-1.4,0.7
				c-0.3,0.5-0.5,1.2-0.5,2.1c0,0.9,0.2,1.6,0.5,2.1C104.7,161.3,105.2,161.5,105.9,161.5z"/>
			<path id="XMLID_38_" class="st6" d="M114.9,155.9h-1.9v6.4h-1.2v-6.4h-1.3v-0.6l1.3-0.4v-0.4c0-0.9,0.2-1.6,0.6-2
				c0.4-0.4,1-0.7,1.8-0.7c0.5,0,0.9,0.1,1.4,0.2l-0.3,0.9c-0.4-0.1-0.8-0.2-1.1-0.2c-0.4,0-0.7,0.1-0.9,0.4
				c-0.2,0.3-0.3,0.7-0.3,1.3v0.5h1.9V155.9z"/>
			<path id="XMLID_36_" class="st6" d="M117.4,155v4.8c0,0.6,0.1,1,0.4,1.3s0.7,0.4,1.2,0.4c0.8,0,1.3-0.2,1.7-0.6
				c0.3-0.4,0.5-1.1,0.5-2V155h1.2v7.4h-1l-0.2-1h-0.1c-0.2,0.4-0.5,0.6-0.9,0.8c-0.4,0.2-0.9,0.3-1.4,0.3c-0.9,0-1.6-0.2-2-0.6
				s-0.7-1.1-0.7-2V155H117.4z"/>
			<path id="XMLID_34_" class="st6" d="M126,162.4h-1.2v-10.5h1.2V162.4z"/>
			<path id="XMLID_31_" class="st6" d="M136.8,162.3l0-0.9h-0.1c-0.5,0.7-1.3,1.1-2.3,1.1c-1,0-1.7-0.3-2.2-1
				c-0.5-0.7-0.8-1.6-0.8-2.8c0-1.2,0.3-2.1,0.8-2.8s1.3-1,2.2-1c1,0,1.8,0.4,2.3,1.1h0.1l0.2-1h1v7.5c0,1.1-0.3,1.9-0.8,2.4
				c-0.5,0.5-1.4,0.8-2.5,0.8c-1.1,0-2-0.2-2.7-0.5v-1.1c0.7,0.4,1.6,0.6,2.7,0.6c0.6,0,1.1-0.2,1.5-0.6c0.4-0.4,0.5-0.9,0.5-1.5
				V162.3z M134.7,161.5c0.7,0,1.3-0.2,1.6-0.6s0.5-1,0.5-1.9v-0.3c0-1-0.2-1.7-0.5-2.2s-0.9-0.7-1.6-0.7c-0.6,0-1.1,0.2-1.4,0.7
				c-0.3,0.5-0.5,1.2-0.5,2.1c0,0.9,0.2,1.6,0.5,2.1C133.5,161.3,134,161.5,134.7,161.5z"/>
			<path id="XMLID_28_" class="st6" d="M140.3,153c0-0.3,0.1-0.5,0.2-0.6s0.3-0.2,0.5-0.2c0.2,0,0.4,0.1,0.5,0.2
				c0.1,0.1,0.2,0.3,0.2,0.6c0,0.3-0.1,0.5-0.2,0.6c-0.1,0.1-0.3,0.2-0.5,0.2c-0.2,0-0.4-0.1-0.5-0.2S140.3,153.2,140.3,153z
				 M141.6,162.4h-1.2V155h1.2V162.4z"/>
			<path id="XMLID_26_" class="st6" d="M147.3,155.9h-1.9v6.4h-1.2v-6.4h-1.3v-0.6l1.3-0.4v-0.4c0-0.9,0.2-1.6,0.6-2
				c0.4-0.4,1-0.7,1.8-0.7c0.5,0,0.9,0.1,1.4,0.2l-0.3,0.9c-0.4-0.1-0.8-0.2-1.1-0.2c-0.4,0-0.7,0.1-0.9,0.4
				c-0.2,0.3-0.3,0.7-0.3,1.3v0.5h1.9V155.9z"/>
			<path id="XMLID_24_" class="st6" d="M151.1,161.5c0.2,0,0.3,0,0.6,0c0.2,0,0.4-0.1,0.5-0.1v0.9c-0.1,0-0.3,0.1-0.5,0.1
				c-0.2,0-0.5,0.1-0.7,0.1c-1.4,0-2.2-0.8-2.2-2.3v-4.3h-1v-0.6l1.1-0.5l0.5-1.6h0.7v1.7h2.1v0.9H150v4.3c0,0.4,0.1,0.8,0.3,1
				S150.7,161.5,151.1,161.5z"/>
		</g>
	</g>
	<g id="XMLID_16_">
		<circle id="XMLID_20_" class="st7" cx="33.6" cy="107" r="4"/>
		<path id="XMLID_19_" class="st7" d="M29.6,107h8.1v10.1C37.7,117.1,29.6,112.2,29.6,107z"/>
		<circle id="XMLID_18_" class="st7" cx="41.7" cy="106.8" r="4"/>
		<path id="XMLID_17_" class="st7" d="M45.7,106.8h-8.1v10.1C37.7,116.9,45.7,112,45.7,106.8z"/>
	</g>
</g>
</svg>