<!-- Generator: Adobe Illustrator 19.0.0, SVG Export Plug-In  -->
<svg version="1.1"
	 xmlns="http://www.w3.org/2000/svg" xmlns:xlink="http://www.w3.org/1999/xlink" xmlns:a="http://ns.adobe.com/AdobeSVGViewerExtensions/3.0/"
	 x="0px" y="0px" width="166.6px" height="167.3px" viewBox="0 0 166.6 167.3" style="enable-background:new 0 0 166.6 167.3;"
	 xml:space="preserve">
<style type="text/css">
	.st0{fill:#FFFFFF;}
	.st1{fill:#FC304E;}
	.st2{fill:#3F3F3F;stroke:#3F3F3F;stroke-width:0.2;stroke-miterlimit:10;}
	.st3{fill:#663F06;}
	.st4{fill:#492B03;}
	.st5{fill:#5A5F29;}
	.st6{fill:#BF1133;}
	.st7{fill:#A00B2F;}
	.st8{fill:#E5E5E3;}
	.st9{fill:#C1C0B2;}
	.st10{fill:#CC0D29;}
</style>
<defs>
</defs>
<polygon id="XMLID_270_" class="st0" points="19.4,167.3 19.2,147.9 0,167.1 "/>
<rect id="XMLID_269_" x="17.8" class="st1" width="148.8" height="167"/>
<rect id="XMLID_268_" x="17.8" y="87.1" class="st0" width="148.8" height="80.1"/>
<g id="XMLID_45_">
	<g id="XMLID_47_">
		<path id="XMLID_156_" class="st2" d="M56.6,99.2c-0.8,0-1.4,0.3-1.9,0.9c-0.4,0.6-0.7,1.4-0.7,2.5c0,2.2,0.8,3.3,2.5,3.3
			c0.7,0,1.6-0.2,2.5-0.5v1.8c-0.8,0.3-1.7,0.5-2.7,0.5c-1.5,0-2.6-0.4-3.3-1.3c-0.8-0.9-1.2-2.1-1.2-3.8c0-1,0.2-1.9,0.6-2.7
			c0.4-0.8,0.9-1.4,1.6-1.8s1.5-0.6,2.5-0.6c1,0,1.9,0.2,2.9,0.7l-0.7,1.7c-0.4-0.2-0.8-0.3-1.1-0.5C57.3,99.3,56.9,99.2,56.6,99.2z
			"/>
		<path id="XMLID_154_" class="st2" d="M68.1,107.6h-2.1v-4.5c0-1.1-0.4-1.7-1.2-1.7c-0.6,0-1,0.2-1.3,0.6s-0.4,1-0.4,1.9v3.6h-2.1
			V97h2.1v2.2c0,0.2,0,0.6,0,1.2l0,0.6h0.1c0.5-0.7,1.2-1.1,2.2-1.1c0.9,0,1.6,0.2,2,0.7c0.5,0.5,0.7,1.2,0.7,2.1V107.6z"/>
		<path id="XMLID_151_" class="st2" d="M77.2,103.8c0,1.2-0.3,2.2-1,2.9c-0.7,0.7-1.6,1.1-2.7,1.1c-0.7,0-1.4-0.2-1.9-0.5
			s-1-0.8-1.3-1.4s-0.5-1.3-0.5-2.1c0-1.2,0.3-2.2,1-2.9c0.7-0.7,1.6-1,2.7-1c0.7,0,1.4,0.2,1.9,0.5c0.6,0.3,1,0.8,1.3,1.4
			C77.1,102.3,77.2,103,77.2,103.8z M72,103.8c0,0.8,0.1,1.3,0.4,1.7c0.2,0.4,0.7,0.6,1.2,0.6c0.6,0,1-0.2,1.2-0.6
			c0.2-0.4,0.4-1,0.4-1.7c0-0.8-0.1-1.3-0.4-1.7c-0.2-0.4-0.6-0.6-1.2-0.6c-0.6,0-1,0.2-1.2,0.6S72,103,72,103.8z"/>
		<path id="XMLID_149_" class="st2" d="M82.1,107.7c-2.4,0-3.6-1.3-3.6-3.9c0-1.3,0.3-2.3,1-3c0.6-0.7,1.6-1,2.8-1
			c0.9,0,1.7,0.2,2.4,0.5l-0.6,1.6c-0.3-0.1-0.6-0.2-0.9-0.3c-0.3-0.1-0.6-0.1-0.8-0.1c-1.1,0-1.6,0.8-1.6,2.3
			c0,1.5,0.5,2.2,1.6,2.2c0.4,0,0.8-0.1,1.1-0.2c0.3-0.1,0.7-0.3,1-0.5v1.8c-0.3,0.2-0.7,0.4-1,0.4S82.6,107.7,82.1,107.7z"/>
		<path id="XMLID_146_" class="st2" d="M93.1,103.8c0,1.2-0.3,2.2-1,2.9c-0.7,0.7-1.6,1.1-2.7,1.1c-0.7,0-1.4-0.2-1.9-0.5
			s-1-0.8-1.3-1.4s-0.5-1.3-0.5-2.1c0-1.2,0.3-2.2,1-2.9c0.7-0.7,1.6-1,2.7-1c0.7,0,1.4,0.2,1.9,0.5c0.6,0.3,1,0.8,1.3,1.4
			C93,102.3,93.1,103,93.1,103.8z M87.8,103.8c0,0.8,0.1,1.3,0.4,1.7c0.2,0.4,0.7,0.6,1.2,0.6c0.6,0,1-0.2,1.2-0.6
			c0.2-0.4,0.4-1,0.4-1.7c0-0.8-0.1-1.3-0.4-1.7c-0.2-0.4-0.6-0.6-1.2-0.6c-0.6,0-1,0.2-1.2,0.6S87.8,103,87.8,103.8z"/>
		<path id="XMLID_144_" class="st2" d="M96.9,107.6h-2.1V97h2.1V107.6z"/>
		<path id="XMLID_141_" class="st2" d="M104,107.6l-0.4-1h-0.1c-0.4,0.4-0.7,0.7-1.1,0.9s-0.9,0.3-1.5,0.3c-0.7,0-1.3-0.2-1.7-0.6
			c-0.4-0.4-0.6-1-0.6-1.8c0-0.8,0.3-1.4,0.9-1.8c0.6-0.4,1.4-0.6,2.6-0.6l1.3,0v-0.3c0-0.8-0.4-1.2-1.2-1.2c-0.6,0-1.3,0.2-2.2,0.6
			l-0.7-1.4c0.9-0.5,1.9-0.7,2.9-0.7c1,0,1.8,0.2,2.4,0.7c0.5,0.4,0.8,1.1,0.8,2v5.1H104z M103.3,104l-0.8,0c-0.6,0-1.1,0.1-1.4,0.3
			c-0.3,0.2-0.4,0.5-0.4,0.9c0,0.6,0.3,0.9,1,0.9c0.5,0,0.9-0.1,1.2-0.4c0.3-0.3,0.4-0.6,0.4-1.1V104z"/>
		<path id="XMLID_139_" class="st2" d="M110.8,106.1c0.4,0,0.8-0.1,1.3-0.2v1.6c-0.5,0.2-1.2,0.3-1.9,0.3c-0.8,0-1.4-0.2-1.8-0.6
			c-0.4-0.4-0.6-1.1-0.6-1.9v-3.7h-1v-0.9l1.1-0.7l0.6-1.6h1.3v1.6h2.1v1.6h-2.1v3.7c0,0.3,0.1,0.5,0.2,0.7
			C110.3,106,110.5,106.1,110.8,106.1z"/>
		<path id="XMLID_136_" class="st2" d="M117.1,107.7c-1.2,0-2.2-0.3-2.9-1c-0.7-0.7-1-1.6-1-2.9c0-1.3,0.3-2.3,1-3
			c0.6-0.7,1.5-1,2.7-1c1.1,0,1.9,0.3,2.5,0.9s0.9,1.5,0.9,2.5v1h-4.9c0,0.6,0.2,1.1,0.5,1.4c0.3,0.3,0.8,0.5,1.4,0.5
			c0.5,0,0.9,0,1.3-0.1s0.8-0.2,1.3-0.5v1.6c-0.4,0.2-0.8,0.3-1.2,0.4C118.2,107.7,117.7,107.7,117.1,107.7z M116.8,101.3
			c-0.4,0-0.8,0.1-1,0.4c-0.3,0.3-0.4,0.7-0.4,1.2h2.9c0-0.5-0.1-0.9-0.4-1.2S117.2,101.3,116.8,101.3z"/>
		<path id="XMLID_134_" class="st2" d="M52.4,124.1v-9.8h1.2v8.7h4.3v1.1H52.4z"/>
		<path id="XMLID_131_" class="st2" d="M65.9,120.4c0,1.2-0.3,2.1-0.9,2.8c-0.6,0.7-1.5,1-2.5,1c-0.7,0-1.3-0.2-1.8-0.5
			c-0.5-0.3-0.9-0.8-1.2-1.3c-0.3-0.6-0.4-1.3-0.4-2c0-1.2,0.3-2.1,0.9-2.8s1.4-1,2.5-1c1,0,1.9,0.3,2.5,1
			C65.6,118.3,65.9,119.2,65.9,120.4z M60.3,120.4c0,0.9,0.2,1.6,0.5,2.1s0.9,0.7,1.6,0.7c0.7,0,1.2-0.2,1.6-0.7
			c0.4-0.5,0.6-1.2,0.6-2.1s-0.2-1.6-0.6-2.1c-0.4-0.5-0.9-0.7-1.6-0.7C61,117.6,60.3,118.5,60.3,120.4z"/>
		<path id="XMLID_129_" class="st2" d="M69.3,124.1l-2.8-7.4h1.3l1.6,4.3c0.3,0.9,0.5,1.5,0.6,2H70c0-0.1,0-0.1,0.1-0.2
			c0-0.1,0-0.2,0.1-0.2c0-0.1,0.2-0.6,0.5-1.5l1.6-4.3h1.3l-2.8,7.4H69.3z"/>
		<path id="XMLID_126_" class="st2" d="M77.8,124.2c-1.1,0-2-0.3-2.6-1c-0.6-0.7-0.9-1.6-0.9-2.8c0-1.2,0.3-2.1,0.9-2.8
			c0.6-0.7,1.4-1.1,2.4-1.1c0.9,0,1.7,0.3,2.2,0.9c0.6,0.6,0.8,1.4,0.8,2.4v0.7h-5.1c0,0.8,0.2,1.5,0.6,1.9c0.4,0.4,1,0.7,1.7,0.7
			c0.4,0,0.8,0,1.1-0.1c0.4-0.1,0.8-0.2,1.2-0.4v1.1c-0.4,0.2-0.8,0.3-1.1,0.4C78.7,124.2,78.3,124.2,77.8,124.2z M77.5,117.6
			c-0.6,0-1,0.2-1.4,0.6s-0.5,0.9-0.6,1.6h3.8c0-0.7-0.2-1.2-0.5-1.6C78.5,117.8,78,117.6,77.5,117.6z"/>
		<path id="XMLID_124_" class="st2" d="M83.8,122.5l0.1,0.2c-0.2,1-0.6,2-1.2,3.2h-0.9c0.3-1.1,0.5-2.2,0.7-3.4H83.8z"/>
		<path id="XMLID_121_" class="st2" d="M93.2,124.2c-1,0-1.8-0.4-2.3-1.1h-0.1l0,0.3c0,0.3,0.1,0.7,0.1,0.9v3h-1.2v-10.7h1l0.2,1
			h0.1c0.3-0.4,0.6-0.7,1-0.9c0.4-0.2,0.8-0.3,1.3-0.3c1,0,1.7,0.3,2.2,1c0.5,0.7,0.8,1.6,0.8,2.8c0,1.2-0.3,2.1-0.8,2.8
			C94.9,123.9,94.1,124.2,93.2,124.2z M93,117.6c-0.7,0-1.3,0.2-1.6,0.6c-0.3,0.4-0.5,1.1-0.5,1.9v0.2c0,1,0.2,1.7,0.5,2.2
			c0.3,0.4,0.9,0.7,1.6,0.7c0.6,0,1.1-0.3,1.4-0.8c0.3-0.5,0.5-1.2,0.5-2.1c0-0.9-0.2-1.6-0.5-2.1C94.1,117.8,93.6,117.6,93,117.6z"
			/>
		<path id="XMLID_118_" class="st2" d="M102.7,124.1l-0.2-1h-0.1c-0.4,0.5-0.7,0.8-1.1,0.9c-0.4,0.2-0.8,0.2-1.4,0.2
			c-0.7,0-1.3-0.2-1.7-0.6c-0.4-0.4-0.6-0.9-0.6-1.6c0-1.5,1.2-2.3,3.5-2.4l1.3,0v-0.4c0-0.6-0.1-1-0.4-1.2
			c-0.2-0.3-0.6-0.4-1.2-0.4c-0.4,0-0.8,0.1-1.1,0.2c-0.3,0.1-0.7,0.2-1,0.4l-0.4-0.9c0.4-0.2,0.8-0.4,1.2-0.5
			c0.4-0.1,0.9-0.2,1.3-0.2c0.9,0,1.6,0.2,2,0.6c0.4,0.4,0.7,1,0.7,1.9v5H102.7z M100.2,123.3c0.7,0,1.2-0.2,1.6-0.5
			s0.6-0.9,0.6-1.6v-0.7l-1.1,0c-0.8,0-1.5,0.2-1.9,0.4c-0.4,0.2-0.6,0.6-0.6,1.1c0,0.4,0.1,0.7,0.4,0.9
			C99.4,123.2,99.8,123.3,100.2,123.3z"/>
		<path id="XMLID_116_" class="st2" d="M110.7,122.1c0,0.7-0.3,1.2-0.8,1.6s-1.2,0.6-2.2,0.6c-1,0-1.7-0.2-2.3-0.5v-1.1
			c0.8,0.4,1.6,0.6,2.3,0.6c0.6,0,1.1-0.1,1.3-0.3c0.3-0.2,0.4-0.5,0.4-0.8c0-0.3-0.1-0.5-0.4-0.7c-0.3-0.2-0.7-0.4-1.4-0.7
			c-0.7-0.3-1.2-0.5-1.5-0.7s-0.5-0.4-0.6-0.6c-0.1-0.2-0.2-0.5-0.2-0.9c0-0.6,0.2-1.1,0.7-1.4c0.5-0.3,1.2-0.5,2-0.5
			c0.8,0,1.6,0.2,2.4,0.5l-0.4,1c-0.7-0.3-1.4-0.5-2-0.5c-0.5,0-0.9,0.1-1.1,0.2s-0.4,0.4-0.4,0.7c0,0.3,0.1,0.5,0.3,0.7
			c0.2,0.2,0.7,0.4,1.6,0.7c0.6,0.2,1.1,0.4,1.4,0.6s0.5,0.4,0.6,0.7C110.6,121.4,110.7,121.7,110.7,122.1z"/>
		<path id="XMLID_114_" class="st2" d="M117.3,122.1c0,0.7-0.3,1.2-0.8,1.6c-0.5,0.4-1.2,0.6-2.2,0.6c-1,0-1.7-0.2-2.3-0.5v-1.1
			c0.8,0.4,1.6,0.6,2.3,0.6c0.6,0,1.1-0.1,1.3-0.3s0.4-0.5,0.4-0.8c0-0.3-0.1-0.5-0.4-0.7c-0.3-0.2-0.7-0.4-1.4-0.7
			c-0.7-0.3-1.2-0.5-1.5-0.7s-0.5-0.4-0.6-0.6s-0.2-0.5-0.2-0.9c0-0.6,0.2-1.1,0.7-1.4c0.5-0.3,1.2-0.5,2-0.5c0.8,0,1.6,0.2,2.4,0.5
			l-0.4,1c-0.7-0.3-1.4-0.5-2-0.5c-0.5,0-0.9,0.1-1.1,0.2s-0.4,0.4-0.4,0.7c0,0.3,0.1,0.5,0.3,0.7c0.2,0.2,0.7,0.4,1.6,0.7
			c0.6,0.2,1.1,0.4,1.4,0.6c0.3,0.2,0.5,0.4,0.6,0.7C117.2,121.4,117.3,121.7,117.3,122.1z"/>
		<path id="XMLID_111_" class="st2" d="M118.9,114.7c0-0.3,0.1-0.5,0.2-0.6s0.3-0.2,0.5-0.2c0.2,0,0.4,0.1,0.5,0.2
			c0.1,0.1,0.2,0.3,0.2,0.6c0,0.3-0.1,0.5-0.2,0.6c-0.1,0.1-0.3,0.2-0.5,0.2c-0.2,0-0.4-0.1-0.5-0.2
			C119,115.2,118.9,115,118.9,114.7z M120.3,124.1H119v-7.4h1.2V124.1z"/>
		<path id="XMLID_108_" class="st2" d="M129,120.4c0,1.2-0.3,2.1-0.9,2.8c-0.6,0.7-1.5,1-2.5,1c-0.7,0-1.3-0.2-1.8-0.5
			c-0.5-0.3-0.9-0.8-1.2-1.3c-0.3-0.6-0.4-1.3-0.4-2c0-1.2,0.3-2.1,0.9-2.8s1.4-1,2.5-1c1,0,1.9,0.3,2.5,1
			C128.7,118.3,129,119.2,129,120.4z M123.4,120.4c0,0.9,0.2,1.6,0.5,2.1s0.9,0.7,1.6,0.7c0.7,0,1.2-0.2,1.6-0.7
			c0.4-0.5,0.6-1.2,0.6-2.1s-0.2-1.6-0.6-2.1c-0.4-0.5-0.9-0.7-1.6-0.7C124.1,117.6,123.4,118.5,123.4,120.4z"/>
		<path id="XMLID_106_" class="st2" d="M135.9,124.1v-4.7c0-0.6-0.1-1-0.4-1.3c-0.3-0.3-0.7-0.4-1.3-0.4c-0.8,0-1.3,0.2-1.6,0.6
			c-0.3,0.4-0.5,1.1-0.5,2v3.8h-1.2v-7.4h1l0.2,1h0.1c0.2-0.4,0.5-0.6,1-0.8s0.9-0.3,1.4-0.3c0.9,0,1.6,0.2,2,0.7
			c0.4,0.4,0.7,1.1,0.7,2v4.8H135.9z"/>
		<path id="XMLID_104_" class="st2" d="M140.8,122.5l0.1,0.2c-0.2,1-0.6,2-1.2,3.2h-0.9c0.3-1.1,0.5-2.2,0.7-3.4H140.8z"/>
		<path id="XMLID_102_" class="st2" d="M54.7,139.8c0.2,0,0.3,0,0.6,0s0.4-0.1,0.5-0.1v0.9c-0.1,0-0.3,0.1-0.5,0.1
			c-0.2,0-0.5,0.1-0.7,0.1c-1.4,0-2.2-0.8-2.2-2.3v-4.3h-1v-0.6l1.1-0.5l0.5-1.6h0.7v1.7h2.1v0.9h-2.1v4.3c0,0.4,0.1,0.8,0.3,1
			S54.4,139.8,54.7,139.8z"/>
		<path id="XMLID_100_" class="st2" d="M62.2,140.6v-4.7c0-0.6-0.1-1-0.4-1.3c-0.3-0.3-0.7-0.4-1.3-0.4c-0.7,0-1.3,0.2-1.6,0.6
			c-0.3,0.4-0.5,1.1-0.5,2.1v3.8h-1.2v-10.5h1.2v3.1c0,0.4,0,0.7-0.1,1h0.1c0.2-0.4,0.5-0.6,0.9-0.8c0.4-0.2,0.9-0.3,1.4-0.3
			c0.9,0,1.6,0.2,2,0.6c0.5,0.4,0.7,1.1,0.7,2.1v4.8H62.2z"/>
		<path id="XMLID_97_" class="st2" d="M72.1,136.9c0,1.2-0.3,2.1-0.9,2.8s-1.5,1-2.5,1c-0.7,0-1.3-0.2-1.8-0.5s-0.9-0.8-1.2-1.3
			c-0.3-0.6-0.4-1.3-0.4-2c0-1.2,0.3-2.1,0.9-2.8c0.6-0.7,1.4-1,2.5-1c1,0,1.9,0.3,2.5,1C71.8,134.8,72.1,135.7,72.1,136.9z
			 M66.6,136.9c0,0.9,0.2,1.6,0.5,2.1s0.9,0.7,1.6,0.7c0.7,0,1.2-0.2,1.6-0.7c0.4-0.5,0.6-1.2,0.6-2.1c0-0.9-0.2-1.6-0.6-2.1
			c-0.4-0.5-0.9-0.7-1.6-0.7C67.3,134.1,66.6,135.1,66.6,136.9z"/>
		<path id="XMLID_95_" class="st2" d="M75.2,133.2v4.8c0,0.6,0.1,1,0.4,1.3s0.7,0.4,1.2,0.4c0.8,0,1.3-0.2,1.7-0.6
			c0.3-0.4,0.5-1.1,0.5-2v-3.8h1.2v7.4h-1l-0.2-1H79c-0.2,0.4-0.5,0.6-0.9,0.8s-0.9,0.3-1.4,0.3c-0.9,0-1.6-0.2-2-0.6
			s-0.7-1.1-0.7-2v-4.8H75.2z"/>
		<path id="XMLID_92_" class="st2" d="M87.5,140.6l0-0.9h-0.1c-0.5,0.7-1.3,1.1-2.3,1.1c-1,0-1.7-0.3-2.2-1
			c-0.5-0.7-0.8-1.6-0.8-2.8c0-1.2,0.3-2.1,0.8-2.8s1.3-1,2.2-1c1,0,1.8,0.4,2.3,1.1h0.1l0.2-1h1v7.5c0,1.1-0.3,1.9-0.8,2.4
			c-0.5,0.5-1.4,0.8-2.5,0.8c-1.1,0-2-0.2-2.7-0.5v-1.1c0.7,0.4,1.6,0.6,2.7,0.6c0.6,0,1.1-0.2,1.5-0.6c0.4-0.4,0.5-0.9,0.5-1.5
			V140.6z M85.4,139.8c0.7,0,1.3-0.2,1.6-0.6c0.3-0.4,0.5-1,0.5-1.9v-0.3c0-1-0.2-1.7-0.5-2.2c-0.3-0.4-0.9-0.7-1.6-0.7
			c-0.6,0-1.1,0.2-1.4,0.7s-0.5,1.2-0.5,2.1c0,0.9,0.2,1.6,0.5,2.1C84.2,139.5,84.7,139.8,85.4,139.8z"/>
		<path id="XMLID_90_" class="st2" d="M96.1,140.6v-4.7c0-0.6-0.1-1-0.4-1.3c-0.3-0.3-0.7-0.4-1.3-0.4c-0.7,0-1.3,0.2-1.6,0.6
			c-0.3,0.4-0.5,1.1-0.5,2.1v3.8H91v-10.5h1.2v3.1c0,0.4,0,0.7-0.1,1h0.1c0.2-0.4,0.5-0.6,0.9-0.8c0.4-0.2,0.9-0.3,1.4-0.3
			c0.9,0,1.6,0.2,2,0.6c0.5,0.4,0.7,1.1,0.7,2.1v4.8H96.1z"/>
		<path id="XMLID_88_" class="st2" d="M102,139.8c0.2,0,0.3,0,0.6,0c0.2,0,0.4-0.1,0.5-0.1v0.9c-0.1,0-0.3,0.1-0.5,0.1
			c-0.2,0-0.5,0.1-0.7,0.1c-1.4,0-2.2-0.8-2.2-2.3v-4.3h-1v-0.6l1.1-0.5l0.5-1.6h0.7v1.7h2.1v0.9h-2.1v4.3c0,0.4,0.1,0.8,0.3,1
			C101.4,139.7,101.6,139.8,102,139.8z"/>
		<path id="XMLID_86_" class="st2" d="M107.9,134.2H106v6.4h-1.2v-6.4h-1.3v-0.6l1.3-0.4v-0.4c0-0.9,0.2-1.6,0.6-2
			c0.4-0.4,1-0.7,1.8-0.7c0.5,0,0.9,0.1,1.4,0.2l-0.3,0.9c-0.4-0.1-0.8-0.2-1.1-0.2c-0.4,0-0.7,0.1-0.9,0.4
			c-0.2,0.3-0.3,0.7-0.3,1.3v0.5h1.9V134.2z"/>
		<path id="XMLID_84_" class="st2" d="M110.4,133.2v4.8c0,0.6,0.1,1,0.4,1.3s0.7,0.4,1.2,0.4c0.8,0,1.3-0.2,1.7-0.6
			c0.3-0.4,0.5-1.1,0.5-2v-3.8h1.2v7.4h-1l-0.2-1h-0.1c-0.2,0.4-0.5,0.6-0.9,0.8s-0.9,0.3-1.4,0.3c-0.9,0-1.6-0.2-2-0.6
			s-0.7-1.1-0.7-2v-4.8H110.4z"/>
		<path id="XMLID_82_" class="st2" d="M119,140.6h-1.2v-10.5h1.2V140.6z"/>
		<path id="XMLID_80_" class="st2" d="M126.3,140.6v-4.7c0-0.6-0.1-1-0.4-1.3c-0.3-0.3-0.7-0.4-1.3-0.4c-0.8,0-1.3,0.2-1.6,0.6
			c-0.3,0.4-0.5,1.1-0.5,2v3.8h-1.2v-7.4h1l0.2,1h0.1c0.2-0.4,0.5-0.6,1-0.8c0.4-0.2,0.9-0.3,1.4-0.3c0.9,0,1.6,0.2,2,0.7
			c0.4,0.4,0.7,1.1,0.7,2v4.8H126.3z"/>
		<path id="XMLID_77_" class="st2" d="M132.9,140.8c-1.1,0-2-0.3-2.6-1s-0.9-1.6-0.9-2.8c0-1.2,0.3-2.1,0.9-2.8
			c0.6-0.7,1.4-1.1,2.4-1.1c0.9,0,1.7,0.3,2.2,0.9c0.6,0.6,0.8,1.4,0.8,2.4v0.7h-5.1c0,0.8,0.2,1.5,0.6,1.9s1,0.7,1.7,0.7
			c0.4,0,0.8,0,1.1-0.1s0.8-0.2,1.2-0.4v1.1c-0.4,0.2-0.8,0.3-1.1,0.4C133.9,140.7,133.4,140.8,132.9,140.8z M132.6,134.1
			c-0.6,0-1,0.2-1.4,0.6s-0.5,0.9-0.6,1.6h3.8c0-0.7-0.2-1.2-0.5-1.6S133.2,134.1,132.6,134.1z"/>
		<path id="XMLID_75_" class="st2" d="M142.4,138.6c0,0.7-0.3,1.2-0.8,1.6c-0.5,0.4-1.2,0.6-2.2,0.6c-1,0-1.7-0.2-2.3-0.5v-1.1
			c0.8,0.4,1.6,0.6,2.3,0.6c0.6,0,1.1-0.1,1.3-0.3c0.3-0.2,0.4-0.5,0.4-0.8c0-0.3-0.1-0.5-0.4-0.7c-0.3-0.2-0.7-0.4-1.4-0.7
			c-0.7-0.3-1.2-0.5-1.5-0.7s-0.5-0.4-0.6-0.6c-0.1-0.2-0.2-0.5-0.2-0.9c0-0.6,0.2-1.1,0.7-1.4c0.5-0.3,1.2-0.5,2-0.5
			c0.8,0,1.6,0.2,2.4,0.5l-0.4,1c-0.7-0.3-1.4-0.5-2-0.5c-0.5,0-0.9,0.1-1.1,0.2s-0.4,0.4-0.4,0.7c0,0.3,0.1,0.5,0.3,0.7
			s0.7,0.4,1.6,0.7c0.6,0.2,1.1,0.4,1.4,0.6c0.3,0.2,0.5,0.4,0.6,0.7C142.3,137.9,142.4,138.2,142.4,138.6z"/>
		<path id="XMLID_73_" class="st2" d="M149,138.6c0,0.7-0.3,1.2-0.8,1.6c-0.5,0.4-1.2,0.6-2.2,0.6c-1,0-1.7-0.2-2.3-0.5v-1.1
			c0.8,0.4,1.6,0.6,2.3,0.6c0.6,0,1.1-0.1,1.3-0.3s0.4-0.5,0.4-0.8c0-0.3-0.1-0.5-0.4-0.7c-0.3-0.2-0.7-0.4-1.4-0.7
			c-0.7-0.3-1.2-0.5-1.5-0.7s-0.5-0.4-0.6-0.6c-0.1-0.2-0.2-0.5-0.2-0.9c0-0.6,0.2-1.1,0.7-1.4c0.5-0.3,1.2-0.5,2-0.5
			c0.8,0,1.6,0.2,2.4,0.5l-0.4,1c-0.7-0.3-1.4-0.5-2-0.5c-0.5,0-0.9,0.1-1.1,0.2s-0.4,0.4-0.4,0.7c0,0.3,0.1,0.5,0.3,0.7
			c0.2,0.2,0.7,0.4,1.6,0.7c0.6,0.2,1.1,0.4,1.4,0.6c0.3,0.2,0.5,0.4,0.6,0.7C148.9,137.9,149,138.2,149,138.6z"/>
		<path id="XMLID_71_" class="st2" d="M152.1,139l0.1,0.2c-0.2,1-0.6,2-1.2,3.2h-0.9c0.3-1.1,0.5-2.2,0.7-3.4H152.1z"/>
		<path id="XMLID_69_" class="st2" d="M57.3,157.1v-4.7c0-0.6-0.1-1-0.4-1.3c-0.3-0.3-0.7-0.4-1.3-0.4c-0.7,0-1.3,0.2-1.6,0.6
			c-0.3,0.4-0.5,1.1-0.5,2.1v3.8h-1.2v-10.5h1.2v3.1c0,0.4,0,0.7-0.1,1h0.1c0.2-0.4,0.5-0.6,0.9-0.8c0.4-0.2,0.9-0.3,1.4-0.3
			c0.9,0,1.6,0.2,2,0.6c0.5,0.4,0.7,1.1,0.7,2.1v4.8H57.3z"/>
		<path id="XMLID_66_" class="st2" d="M65.3,157.1l-0.2-1H65c-0.4,0.5-0.7,0.8-1.1,0.9c-0.4,0.2-0.8,0.2-1.4,0.2
			c-0.7,0-1.3-0.2-1.7-0.6c-0.4-0.4-0.6-0.9-0.6-1.6c0-1.5,1.2-2.3,3.5-2.4l1.3,0v-0.4c0-0.6-0.1-1-0.4-1.2
			c-0.2-0.3-0.6-0.4-1.2-0.4c-0.4,0-0.8,0.1-1.1,0.2c-0.3,0.1-0.7,0.2-1,0.4l-0.4-0.9c0.4-0.2,0.8-0.4,1.2-0.5
			c0.4-0.1,0.9-0.2,1.3-0.2c0.9,0,1.6,0.2,2,0.6c0.4,0.4,0.7,1,0.7,1.9v5H65.3z M62.8,156.3c0.7,0,1.2-0.2,1.6-0.5s0.6-0.9,0.6-1.6
			v-0.7l-1.1,0c-0.8,0-1.5,0.2-1.9,0.4s-0.6,0.6-0.6,1.1c0,0.4,0.1,0.7,0.4,0.9C62.1,156.2,62.4,156.3,62.8,156.3z"/>
		<path id="XMLID_63_" class="st2" d="M72,157.3c-1,0-1.8-0.4-2.3-1.1h-0.1l0,0.3c0,0.3,0.1,0.7,0.1,0.9v3h-1.2v-10.7h1l0.2,1h0.1
			c0.3-0.4,0.6-0.7,1-0.9c0.4-0.2,0.8-0.3,1.3-0.3c1,0,1.7,0.3,2.2,1c0.5,0.7,0.8,1.6,0.8,2.8c0,1.2-0.3,2.1-0.8,2.8
			S72.9,157.3,72,157.3z M71.8,150.6c-0.7,0-1.3,0.2-1.6,0.6s-0.5,1.1-0.5,1.9v0.2c0,1,0.2,1.7,0.5,2.2c0.3,0.4,0.9,0.7,1.6,0.7
			c0.6,0,1.1-0.3,1.4-0.8c0.3-0.5,0.5-1.2,0.5-2.1c0-0.9-0.2-1.6-0.5-2.1C72.9,150.9,72.4,150.6,71.8,150.6z"/>
		<path id="XMLID_60_" class="st2" d="M80.4,157.3c-1,0-1.8-0.4-2.3-1.1h-0.1l0,0.3c0,0.3,0.1,0.7,0.1,0.9v3h-1.2v-10.7h1l0.2,1h0.1
			c0.3-0.4,0.6-0.7,1-0.9c0.4-0.2,0.8-0.3,1.3-0.3c1,0,1.7,0.3,2.2,1c0.5,0.7,0.8,1.6,0.8,2.8c0,1.2-0.3,2.1-0.8,2.8
			S81.4,157.3,80.4,157.3z M80.2,150.6c-0.7,0-1.3,0.2-1.6,0.6s-0.5,1.1-0.5,1.9v0.2c0,1,0.2,1.7,0.5,2.2c0.3,0.4,0.9,0.7,1.6,0.7
			c0.6,0,1.1-0.3,1.4-0.8c0.3-0.5,0.5-1.2,0.5-2.1c0-0.9-0.2-1.6-0.5-2.1C81.4,150.9,80.9,150.6,80.2,150.6z"/>
		<path id="XMLID_57_" class="st2" d="M85.3,147.8c0-0.3,0.1-0.5,0.2-0.6s0.3-0.2,0.5-0.2c0.2,0,0.4,0.1,0.5,0.2s0.2,0.3,0.2,0.6
			c0,0.3-0.1,0.5-0.2,0.6c-0.1,0.1-0.3,0.2-0.5,0.2c-0.2,0-0.4-0.1-0.5-0.2C85.4,148.2,85.3,148,85.3,147.8z M86.6,157.1h-1.2v-7.4
			h1.2V157.1z"/>
		<path id="XMLID_55_" class="st2" d="M94,157.1v-4.7c0-0.6-0.1-1-0.4-1.3c-0.3-0.3-0.7-0.4-1.3-0.4c-0.8,0-1.3,0.2-1.7,0.6
			s-0.5,1.1-0.5,2v3.8H89v-7.4h1l0.2,1h0.1c0.2-0.4,0.5-0.6,1-0.8c0.4-0.2,0.9-0.3,1.4-0.3c0.9,0,1.6,0.2,2,0.7
			c0.4,0.4,0.7,1.1,0.7,2v4.8H94z"/>
		<path id="XMLID_52_" class="st2" d="M100.6,157.3c-1.1,0-2-0.3-2.6-1s-0.9-1.6-0.9-2.8c0-1.2,0.3-2.1,0.9-2.8s1.4-1.1,2.4-1.1
			c0.9,0,1.7,0.3,2.2,0.9c0.6,0.6,0.8,1.4,0.8,2.4v0.7h-5.1c0,0.8,0.2,1.5,0.6,1.9c0.4,0.4,1,0.7,1.7,0.7c0.4,0,0.8,0,1.1-0.1
			s0.8-0.2,1.2-0.4v1.1c-0.4,0.2-0.8,0.3-1.1,0.4C101.5,157.2,101.1,157.3,100.6,157.3z M100.3,150.6c-0.6,0-1,0.2-1.4,0.6
			c-0.3,0.4-0.5,0.9-0.6,1.6h3.8c0-0.7-0.2-1.2-0.5-1.6S100.9,150.6,100.3,150.6z"/>
		<path id="XMLID_50_" class="st2" d="M110,155.1c0,0.7-0.3,1.2-0.8,1.6c-0.5,0.4-1.2,0.6-2.2,0.6c-1,0-1.7-0.2-2.3-0.5v-1.1
			c0.8,0.4,1.6,0.6,2.3,0.6c0.6,0,1.1-0.1,1.3-0.3c0.3-0.2,0.4-0.5,0.4-0.8c0-0.3-0.1-0.5-0.4-0.7c-0.3-0.2-0.7-0.4-1.4-0.7
			c-0.7-0.3-1.2-0.5-1.5-0.7s-0.5-0.4-0.6-0.6c-0.1-0.2-0.2-0.5-0.2-0.9c0-0.6,0.2-1.1,0.7-1.4c0.5-0.3,1.2-0.5,2-0.5
			c0.8,0,1.6,0.2,2.4,0.5l-0.4,1c-0.7-0.3-1.4-0.5-2-0.5c-0.5,0-0.9,0.1-1.1,0.2s-0.4,0.4-0.4,0.7c0,0.3,0.1,0.5,0.3,0.7
			c0.2,0.2,0.7,0.4,1.6,0.7c0.6,0.2,1.1,0.4,1.4,0.6c0.3,0.2,0.5,0.4,0.6,0.7C110,154.5,110,154.8,110,155.1z"/>
		<path id="XMLID_48_" class="st2" d="M116.6,155.1c0,0.7-0.3,1.2-0.8,1.6c-0.5,0.4-1.2,0.6-2.2,0.6c-1,0-1.7-0.2-2.3-0.5v-1.1
			c0.8,0.4,1.6,0.6,2.3,0.6c0.6,0,1.1-0.1,1.3-0.3c0.3-0.2,0.4-0.5,0.4-0.8c0-0.3-0.1-0.5-0.4-0.7c-0.3-0.2-0.7-0.4-1.4-0.7
			c-0.7-0.3-1.2-0.5-1.5-0.7s-0.5-0.4-0.6-0.6c-0.1-0.2-0.2-0.5-0.2-0.9c0-0.6,0.2-1.1,0.7-1.4c0.5-0.3,1.2-0.5,2-0.5
			c0.8,0,1.6,0.2,2.4,0.5l-0.4,1c-0.7-0.3-1.4-0.5-2-0.5c-0.5,0-0.9,0.1-1.1,0.2s-0.4,0.4-0.4,0.7c0,0.3,0.1,0.5,0.3,0.7
			c0.2,0.2,0.7,0.4,1.6,0.7c0.6,0.2,1.1,0.4,1.4,0.6c0.3,0.2,0.5,0.4,0.6,0.7C116.6,154.5,116.6,154.8,116.6,155.1z"/>
	</g>
</g>
<g id="XMLID_20_">
	<rect id="XMLID_44_" x="67.2" y="11.6" class="st3" width="42" height="65.2"/>
	<rect id="XMLID_43_" x="70.9" y="16.5" class="st4" width="7.3" height="11.7"/>
	<rect id="XMLID_42_" x="83.4" y="16.4" class="st4" width="7.3" height="11.7"/>
	<rect id="XMLID_41_" x="70.9" y="31.6" class="st4" width="7.3" height="11.7"/>
	<rect id="XMLID_40_" x="83.4" y="31.5" class="st4" width="7.3" height="11.7"/>
	<rect id="XMLID_39_" x="96" y="31.3" class="st4" width="7.3" height="11.7"/>
	<rect id="XMLID_38_" x="70.9" y="46.7" class="st5" width="7.3" height="11.7"/>
	<rect id="XMLID_37_" x="83.4" y="46.5" class="st5" width="7.3" height="11.7"/>
	<rect id="XMLID_36_" x="96" y="46.4" class="st4" width="7.3" height="11.7"/>
	<polygon id="XMLID_35_" class="st6" points="67.2,46.1 67.2,76.8 109.2,76.8 109.2,59.5 99.6,59.5 93.4,50.6 70.2,50.6 	"/>
	<rect id="XMLID_34_" x="67.2" y="70.9" class="st7" width="42" height="5.9"/>
	<rect id="XMLID_33_" x="107.2" y="24.9" class="st4" width="2" height="31.8"/>
	<rect id="XMLID_32_" x="96" y="16.3" class="st4" width="7.3" height="11.7"/>
	<circle id="XMLID_31_" class="st1" cx="97.6" cy="13.4" r="4.1"/>
	<circle id="XMLID_30_" class="st1" cx="101.7" cy="17.5" r="4.1"/>
	<circle id="XMLID_29_" class="st1" cx="107.2" cy="20.8" r="4.1"/>
	<polygon id="XMLID_28_" class="st1" points="95,7.2 114.4,25.3 118.1,15.7 117.2,11.6 112.8,8.7 	"/>
	<polygon id="XMLID_27_" class="st4" points="100.7,10.5 100.7,13.7 103.1,13.7 103.1,11.6 	"/>
	<polygon id="XMLID_26_" class="st4" points="103.5,15 103.5,18.3 105.8,18.3 105.8,16.1 	"/>
	<polygon id="XMLID_25_" class="st4" points="113.2,20.5 113.2,23.8 115.6,23.8 115.6,21.6 	"/>
	<polygon id="XMLID_24_" class="st4" points="100,13.8 96.8,13.8 96.8,16.2 98.9,16.2 	"/>
	<polygon id="XMLID_23_" class="st8" points="67.2,42.3 62.6,46.9 67.2,46.9 70.2,50.6 93.4,50.6 99.6,59.5 109.2,59.5 109.2,63.8 
		114.4,58.6 109,53.2 100.5,53.2 100.5,48.1 95,42.2 	"/>
	<rect id="XMLID_22_" x="74.2" y="42.3" class="st9" width="3.9" height="8.3"/>
	<rect id="XMLID_21_" x="80.2" y="42.3" class="st9" width="3.9" height="8.3"/>
</g>
<g id="XMLID_15_">
	<circle id="XMLID_19_" class="st10" cx="33.1" cy="97.9" r="4"/>
	<path id="XMLID_18_" class="st10" d="M29,97.9h8.1V108C37.1,108,29,103.1,29,97.9z"/>
	<circle id="XMLID_17_" class="st10" cx="41.1" cy="97.8" r="4"/>
	<path id="XMLID_16_" class="st10" d="M45.1,97.8h-8.1v10.1C37.1,107.8,45.1,102.9,45.1,97.8z"/>
</g>
</svg>