<!-- Generator: Adobe Illustrator 19.0.0, SVG Export Plug-In  -->
<svg version="1.1"
	 xmlns="http://www.w3.org/2000/svg" xmlns:xlink="http://www.w3.org/1999/xlink" xmlns:a="http://ns.adobe.com/AdobeSVGViewerExtensions/3.0/"
	 x="0px" y="0px" width="166.7px" height="167px" viewBox="0 0 166.7 167" style="enable-background:new 0 0 166.7 167;"
	 xml:space="preserve">
<style type="text/css">
	.st0{fill:#A00D30;}
	.st1{fill:#FFFFFF;}
	.st2{fill:#3F3F3F;stroke:#3F3F3F;stroke-width:0.2;stroke-miterlimit:10;}
	.st3{fill:#CC0D29;}
	.st4{fill:#0F5A7C;}
	.st5{fill:#07252D;}
	.st6{fill:#09465B;}
	.st7{fill:#0D3949;}
</style>
<defs>
</defs>
<g id="XMLID_15_">
	<rect id="XMLID_173_" x="18.2" class="st0" width="148.4" height="167"/>
	<polygon id="XMLID_172_" class="st1" points="19.2,166.5 19.2,147.4 0,166.6 	"/>
	<rect id="XMLID_171_" x="18" y="94.9" class="st1" width="148.6" height="71.7"/>
	<g id="XMLID_28_">
		<g id="XMLID_30_">
			<path id="XMLID_99_" class="st2" d="M55.1,117.3l-2.4-7.8h-0.1c0.1,1.6,0.1,2.7,0.1,3.2v4.6h-1.9v-10h2.9l2.4,7.6h0l2.5-7.6h2.9
				v10h-2v-4.7c0-0.2,0-0.5,0-0.8s0-1.1,0.1-2.3h-0.1l-2.6,7.8H55.1z"/>
			<path id="XMLID_96_" class="st2" d="M68.8,117.3l-0.4-1h-0.1c-0.4,0.4-0.7,0.7-1.1,0.9c-0.4,0.2-0.9,0.3-1.5,0.3
				c-0.7,0-1.3-0.2-1.7-0.6c-0.4-0.4-0.6-1-0.6-1.8c0-0.8,0.3-1.4,0.9-1.8c0.6-0.4,1.4-0.6,2.6-0.6l1.3,0v-0.3
				c0-0.8-0.4-1.2-1.2-1.2c-0.6,0-1.3,0.2-2.2,0.6l-0.7-1.4c0.9-0.5,1.9-0.7,2.9-0.7c1,0,1.8,0.2,2.4,0.7s0.8,1.1,0.8,2v5.1H68.8z
				 M68.2,113.8l-0.8,0c-0.6,0-1.1,0.1-1.4,0.3s-0.4,0.5-0.4,0.9c0,0.6,0.3,0.9,1,0.9c0.5,0,0.9-0.1,1.2-0.4
				c0.3-0.3,0.4-0.6,0.4-1.1V113.8z"/>
			<path id="XMLID_94_" class="st2" d="M77.7,115.1c0,0.8-0.3,1.4-0.8,1.8c-0.5,0.4-1.4,0.6-2.4,0.6c-0.6,0-1,0-1.4-0.1
				c-0.4-0.1-0.8-0.2-1.1-0.3v-1.7c0.4,0.2,0.8,0.3,1.3,0.5s0.9,0.2,1.3,0.2c0.8,0,1.1-0.2,1.1-0.7c0-0.2-0.1-0.3-0.2-0.4
				c-0.1-0.1-0.3-0.2-0.5-0.3c-0.2-0.1-0.6-0.3-1-0.5c-0.6-0.2-1-0.5-1.3-0.7c-0.3-0.2-0.5-0.5-0.6-0.7c-0.1-0.3-0.2-0.6-0.2-1
				c0-0.7,0.3-1.2,0.8-1.6c0.5-0.4,1.3-0.6,2.2-0.6c0.9,0,1.8,0.2,2.7,0.6l-0.6,1.5c-0.4-0.2-0.7-0.3-1.1-0.4s-0.7-0.2-1-0.2
				c-0.6,0-0.9,0.2-0.9,0.5c0,0.2,0.1,0.3,0.3,0.5s0.6,0.3,1.3,0.6c0.6,0.2,1,0.5,1.3,0.7s0.5,0.5,0.6,0.7S77.7,114.7,77.7,115.1z"
				/>
			<path id="XMLID_92_" class="st2" d="M84.7,115.1c0,0.8-0.3,1.4-0.8,1.8c-0.5,0.4-1.4,0.6-2.4,0.6c-0.6,0-1,0-1.4-0.1
				c-0.4-0.1-0.8-0.2-1.1-0.3v-1.7c0.4,0.2,0.8,0.3,1.3,0.5s0.9,0.2,1.3,0.2c0.8,0,1.1-0.2,1.1-0.7c0-0.2-0.1-0.3-0.2-0.4
				c-0.1-0.1-0.3-0.2-0.5-0.3c-0.2-0.1-0.6-0.3-1-0.5c-0.6-0.2-1-0.5-1.3-0.7c-0.3-0.2-0.5-0.5-0.6-0.7c-0.1-0.3-0.2-0.6-0.2-1
				c0-0.7,0.3-1.2,0.8-1.6c0.5-0.4,1.3-0.6,2.2-0.6c0.9,0,1.8,0.2,2.7,0.6l-0.6,1.5c-0.4-0.2-0.7-0.3-1.1-0.4s-0.7-0.2-1-0.2
				c-0.6,0-0.9,0.2-0.9,0.5c0,0.2,0.1,0.3,0.3,0.5s0.6,0.3,1.3,0.6c0.6,0.2,1,0.5,1.3,0.7s0.5,0.5,0.6,0.7S84.7,114.7,84.7,115.1z"
				/>
			<path id="XMLID_89_" class="st2" d="M91.2,117.3l-0.4-1h-0.1c-0.4,0.4-0.7,0.7-1.1,0.9c-0.4,0.2-0.9,0.3-1.5,0.3
				c-0.7,0-1.3-0.2-1.7-0.6c-0.4-0.4-0.6-1-0.6-1.8c0-0.8,0.3-1.4,0.9-1.8c0.6-0.4,1.4-0.6,2.6-0.6l1.3,0v-0.3
				c0-0.8-0.4-1.2-1.2-1.2c-0.6,0-1.3,0.2-2.2,0.6l-0.7-1.4c0.9-0.5,1.9-0.7,2.9-0.7c1,0,1.8,0.2,2.4,0.7s0.8,1.1,0.8,2v5.1H91.2z
				 M90.5,113.8l-0.8,0c-0.6,0-1.1,0.1-1.4,0.3s-0.4,0.5-0.4,0.9c0,0.6,0.3,0.9,1,0.9c0.5,0,0.9-0.1,1.2-0.4
				c0.3-0.3,0.4-0.6,0.4-1.1V113.8z"/>
			<path id="XMLID_86_" class="st2" d="M101.4,117.3c0,1.1-0.3,1.9-1,2.5c-0.6,0.6-1.6,0.9-2.9,0.9c-1.1,0-2.1-0.2-2.9-0.5v-1.7
				c0.9,0.4,1.9,0.6,3,0.6c1.1,0,1.6-0.6,1.6-1.7v-0.2l0.1-0.9h-0.1c-0.5,0.8-1.2,1.1-2.2,1.1c-0.9,0-1.6-0.4-2.1-1.1
				c-0.5-0.7-0.8-1.7-0.8-2.9c0-1.3,0.3-2.2,0.8-2.9c0.5-0.7,1.2-1,2.2-1c0.9,0,1.7,0.4,2.2,1.1h0.1l0.2-1h1.8V117.3z M97.9,115.8
				c0.6,0,1-0.2,1.2-0.5c0.2-0.3,0.4-0.8,0.4-1.6v-0.3c0-0.8-0.1-1.4-0.4-1.8c-0.3-0.4-0.7-0.5-1.2-0.5c-1,0-1.5,0.8-1.5,2.3
				c0,0.8,0.1,1.3,0.4,1.7C97,115.6,97.4,115.8,97.9,115.8z"/>
			<path id="XMLID_83_" class="st2" d="M107.1,117.5c-1.2,0-2.2-0.3-2.9-1s-1-1.6-1-2.9c0-1.3,0.3-2.3,1-3c0.6-0.7,1.5-1,2.7-1
				c1.1,0,1.9,0.3,2.5,0.9s0.9,1.5,0.9,2.5v1h-4.9c0,0.6,0.2,1.1,0.5,1.4s0.8,0.5,1.4,0.5c0.5,0,0.9,0,1.3-0.1s0.8-0.2,1.3-0.5v1.6
				c-0.4,0.2-0.8,0.3-1.2,0.4C108.2,117.4,107.7,117.5,107.1,117.5z M106.8,111c-0.4,0-0.8,0.1-1,0.4c-0.3,0.3-0.4,0.7-0.4,1.2h2.9
				c0-0.5-0.1-0.9-0.4-1.2C107.6,111.2,107.2,111,106.8,111z"/>
			<path id="XMLID_80_" class="st2" d="M54.2,134.3c-1.2,0-2.2-0.3-2.9-1s-1-1.6-1-2.9c0-1.3,0.3-2.3,1-3c0.6-0.7,1.5-1,2.7-1
				c1.1,0,1.9,0.3,2.5,0.9s0.9,1.5,0.9,2.5v1h-4.9c0,0.6,0.2,1.1,0.5,1.4s0.8,0.5,1.4,0.5c0.5,0,0.9,0,1.3-0.1s0.8-0.2,1.3-0.5v1.6
				c-0.4,0.2-0.8,0.3-1.2,0.4C55.3,134.2,54.8,134.3,54.2,134.3z M53.9,127.8c-0.4,0-0.8,0.1-1,0.4c-0.3,0.3-0.4,0.7-0.4,1.2h2.9
				c0-0.5-0.1-0.9-0.4-1.2C54.7,128,54.3,127.8,53.9,127.8z"/>
			<path id="XMLID_77_" class="st2" d="M61.4,134.3c-0.9,0-1.6-0.3-2.1-1c-0.5-0.7-0.8-1.7-0.8-2.9c0-1.2,0.3-2.2,0.8-2.9
				c0.5-0.7,1.2-1.1,2.1-1.1c0.5,0,0.9,0.1,1.3,0.3s0.7,0.5,1,0.8h0.1l0.2-1h1.8v11h-2.1v-3.2c0-0.3,0-0.7,0.1-1.1h-0.1
				c-0.2,0.4-0.5,0.6-0.9,0.8S61.9,134.3,61.4,134.3z M62.2,132.6c0.5,0,0.9-0.2,1.2-0.5c0.2-0.3,0.4-0.8,0.4-1.6v-0.3
				c0-0.8-0.1-1.4-0.4-1.8s-0.7-0.5-1.2-0.5c-1,0-1.5,0.8-1.5,2.3c0,0.8,0.1,1.3,0.4,1.7C61.3,132.4,61.7,132.6,62.2,132.6z"/>
			<path id="XMLID_75_" class="st2" d="M73.3,134.1l-0.3-1h-0.1c-0.2,0.4-0.5,0.6-1,0.8c-0.4,0.2-0.9,0.3-1.4,0.3
				c-0.9,0-1.6-0.2-2-0.7c-0.5-0.5-0.7-1.2-0.7-2.1v-5h2.1v4.5c0,0.6,0.1,1,0.3,1.2c0.2,0.3,0.5,0.4,0.9,0.4c0.6,0,1-0.2,1.3-0.6
				c0.3-0.4,0.4-1,0.4-1.9v-3.6h2.1v7.6H73.3z"/>
			<path id="XMLID_72_" class="st2" d="M77,124.5c0-0.7,0.4-1,1.1-1s1.1,0.3,1.1,1c0,0.3-0.1,0.6-0.3,0.8c-0.2,0.2-0.5,0.3-0.9,0.3
				C77.4,125.5,77,125.2,77,124.5z M79.2,134.1h-2.1v-7.6h2.1V134.1z"/>
			<path id="XMLID_69_" class="st2" d="M85.5,134.3c-0.9,0-1.6-0.3-2.1-1h-0.1c0.1,0.6,0.1,1,0.1,1.1v3.1h-2.1v-11H83l0.3,1h0.1
				c0.5-0.8,1.2-1.1,2.2-1.1c0.9,0,1.6,0.3,2.1,1s0.8,1.7,0.8,2.9c0,0.8-0.1,1.5-0.4,2.1s-0.6,1.1-1,1.4S86.1,134.3,85.5,134.3z
				 M84.9,128c-0.5,0-0.9,0.2-1.1,0.5c-0.2,0.3-0.4,0.8-0.4,1.6v0.2c0,0.8,0.1,1.4,0.4,1.8c0.2,0.4,0.6,0.5,1.2,0.5
				c0.9,0,1.4-0.8,1.4-2.3c0-0.8-0.1-1.3-0.3-1.7C85.8,128.2,85.4,128,84.9,128z"/>
			<path id="XMLID_67_" class="st2" d="M97,134.1H95v-4.5c0-0.6-0.1-1-0.3-1.2c-0.2-0.3-0.5-0.4-0.9-0.4c-0.5,0-0.9,0.2-1.2,0.6
				s-0.4,1-0.4,1.9v3.6h-2.1v-7.6h1.6l0.3,1h0.1c0.2-0.4,0.5-0.6,0.9-0.8c0.4-0.2,0.8-0.3,1.3-0.3c1.1,0,1.9,0.4,2.3,1.1h0.2
				c0.2-0.4,0.5-0.6,0.9-0.8c0.4-0.2,0.8-0.3,1.4-0.3c0.9,0,1.5,0.2,2,0.7c0.4,0.4,0.7,1.2,0.7,2.1v5h-2.1v-4.5c0-0.6-0.1-1-0.3-1.2
				c-0.2-0.3-0.5-0.4-0.9-0.4c-0.5,0-0.9,0.2-1.1,0.5s-0.4,0.9-0.4,1.7V134.1z"/>
			<path id="XMLID_64_" class="st2" d="M107.4,134.3c-1.2,0-2.2-0.3-2.9-1s-1-1.6-1-2.9c0-1.3,0.3-2.3,1-3c0.6-0.7,1.5-1,2.7-1
				c1.1,0,1.9,0.3,2.5,0.9s0.9,1.5,0.9,2.5v1h-4.9c0,0.6,0.2,1.1,0.5,1.4s0.8,0.5,1.4,0.5c0.5,0,0.9,0,1.3-0.1s0.8-0.2,1.3-0.5v1.6
				c-0.4,0.2-0.8,0.3-1.2,0.4C108.5,134.2,108,134.3,107.4,134.3z M107.1,127.8c-0.4,0-0.8,0.1-1,0.4c-0.3,0.3-0.4,0.7-0.4,1.2h2.9
				c0-0.5-0.1-0.9-0.4-1.2C107.9,128,107.6,127.8,107.1,127.8z"/>
			<path id="XMLID_62_" class="st2" d="M119.3,134.1h-2.1v-4.5c0-0.6-0.1-1-0.3-1.2c-0.2-0.3-0.5-0.4-0.9-0.4c-0.6,0-1,0.2-1.3,0.6
				c-0.3,0.4-0.4,1-0.4,1.9v3.6h-2.1v-7.6h1.6l0.3,1h0.1c0.2-0.4,0.6-0.6,1-0.8c0.4-0.2,0.9-0.3,1.4-0.3c0.9,0,1.6,0.2,2,0.7
				c0.5,0.5,0.7,1.2,0.7,2.1V134.1z"/>
			<path id="XMLID_60_" class="st2" d="M124.6,132.6c0.4,0,0.8-0.1,1.3-0.2v1.6c-0.5,0.2-1.2,0.3-1.9,0.3c-0.8,0-1.4-0.2-1.8-0.6
				c-0.4-0.4-0.6-1.1-0.6-1.9V128h-1v-0.9l1.1-0.7l0.6-1.6h1.3v1.6h2.1v1.6h-2.1v3.7c0,0.3,0.1,0.5,0.2,0.7
				C124.1,132.5,124.4,132.6,124.6,132.6z"/>
			<path id="XMLID_58_" class="st2" d="M58.6,150.9h-1.3v-4.7h-5.1v4.7H51v-10h1.3v4.2h5.1v-4.2h1.3V150.9z"/>
			<path id="XMLID_55_" class="st2" d="M64.4,151.1c-1.1,0-2-0.3-2.6-1c-0.6-0.7-1-1.6-1-2.8c0-1.2,0.3-2.2,0.9-2.9s1.4-1.1,2.4-1.1
				c0.9,0,1.7,0.3,2.3,0.9s0.8,1.4,0.8,2.5v0.7h-5.1c0,0.9,0.2,1.5,0.6,1.9c0.4,0.4,1,0.7,1.7,0.7c0.4,0,0.8,0,1.1-0.1
				s0.8-0.2,1.3-0.4v1.1c-0.4,0.2-0.8,0.3-1.2,0.4C65.3,151,64.9,151.1,64.4,151.1z M64.1,144.3c-0.6,0-1.1,0.2-1.4,0.6
				c-0.3,0.4-0.5,0.9-0.6,1.6h3.8c0-0.7-0.2-1.2-0.5-1.6C65.1,144.5,64.7,144.3,64.1,144.3z"/>
			<path id="XMLID_52_" class="st2" d="M73.7,150.9l-0.2-1.1h-0.1c-0.4,0.5-0.7,0.8-1.1,1c-0.4,0.2-0.8,0.2-1.4,0.2
				c-0.7,0-1.3-0.2-1.7-0.6c-0.4-0.4-0.6-0.9-0.6-1.6c0-1.5,1.2-2.3,3.6-2.4l1.3,0V146c0-0.6-0.1-1-0.4-1.3s-0.6-0.4-1.2-0.4
				c-0.4,0-0.8,0.1-1.1,0.2c-0.4,0.1-0.7,0.3-1,0.4l-0.4-0.9c0.4-0.2,0.8-0.4,1.2-0.5c0.4-0.1,0.9-0.2,1.3-0.2c0.9,0,1.6,0.2,2,0.6
				c0.4,0.4,0.7,1,0.7,1.9v5.1H73.7z M71.2,150.1c0.7,0,1.2-0.2,1.6-0.6c0.4-0.4,0.6-0.9,0.6-1.6v-0.7l-1.1,0
				c-0.9,0-1.5,0.2-1.9,0.4c-0.4,0.2-0.6,0.6-0.6,1.1c0,0.4,0.1,0.7,0.4,0.9C70.4,150,70.8,150.1,71.2,150.1z"/>
			<path id="XMLID_50_" class="st2" d="M78.2,150.9H77v-10.6h1.2V150.9z"/>
			<path id="XMLID_48_" class="st2" d="M83.1,150.1c0.2,0,0.3,0,0.6,0c0.2,0,0.4-0.1,0.5-0.1v0.9c-0.1,0.1-0.3,0.1-0.5,0.1
				s-0.5,0.1-0.7,0.1c-1.5,0-2.2-0.8-2.2-2.3v-4.4h-1.1v-0.6l1.1-0.5l0.5-1.6h0.7v1.7h2.2v1h-2.2v4.3c0,0.4,0.1,0.8,0.3,1
				C82.4,149.9,82.7,150.1,83.1,150.1z"/>
			<path id="XMLID_46_" class="st2" d="M90.7,150.9v-4.8c0-0.6-0.1-1.1-0.4-1.4c-0.3-0.3-0.7-0.4-1.3-0.4c-0.8,0-1.3,0.2-1.7,0.6
				c-0.4,0.4-0.5,1.1-0.5,2.1v3.9h-1.2v-10.6h1.2v3.1c0,0.4,0,0.8-0.1,1.1h0.1c0.2-0.4,0.5-0.6,1-0.9s0.9-0.3,1.4-0.3
				c0.9,0,1.6,0.2,2.1,0.7s0.7,1.1,0.7,2.1v4.9H90.7z"/>
			<path id="XMLID_43_" class="st2" d="M102.5,150.9l-0.2-1.1h-0.1c-0.4,0.5-0.7,0.8-1.1,1c-0.4,0.2-0.8,0.2-1.4,0.2
				c-0.7,0-1.3-0.2-1.7-0.6c-0.4-0.4-0.6-0.9-0.6-1.6c0-1.5,1.2-2.3,3.6-2.4l1.3,0V146c0-0.6-0.1-1-0.4-1.3s-0.6-0.4-1.2-0.4
				c-0.4,0-0.8,0.1-1.1,0.2c-0.4,0.1-0.7,0.3-1,0.4l-0.4-0.9c0.4-0.2,0.8-0.4,1.2-0.5c0.4-0.1,0.9-0.2,1.3-0.2c0.9,0,1.6,0.2,2,0.6
				c0.4,0.4,0.7,1,0.7,1.9v5.1H102.5z M100,150.1c0.7,0,1.2-0.2,1.6-0.6c0.4-0.4,0.6-0.9,0.6-1.6v-0.7l-1.1,0
				c-0.9,0-1.5,0.2-1.9,0.4c-0.4,0.2-0.6,0.6-0.6,1.1c0,0.4,0.1,0.7,0.4,0.9C99.2,150,99.6,150.1,100,150.1z"/>
			<path id="XMLID_41_" class="st2" d="M110.9,150.9v-4.8c0-0.6-0.1-1.1-0.4-1.4c-0.3-0.3-0.7-0.4-1.3-0.4c-0.8,0-1.3,0.2-1.7,0.6
				s-0.5,1.1-0.5,2.1v3.9h-1.2v-7.5h1l0.2,1h0.1c0.2-0.4,0.6-0.7,1-0.9s0.9-0.3,1.4-0.3c0.9,0,1.6,0.2,2.1,0.7
				c0.4,0.4,0.7,1.1,0.7,2.1v4.9H110.9z"/>
			<path id="XMLID_38_" class="st2" d="M117.1,151.1c-1,0-1.7-0.3-2.3-1c-0.5-0.7-0.8-1.6-0.8-2.9c0-1.2,0.3-2.2,0.8-2.9
				c0.5-0.7,1.3-1,2.3-1c1,0,1.8,0.4,2.3,1.1h0.1c0-0.1,0-0.3-0.1-0.5s0-0.5,0-0.6v-3h1.2v10.6h-1l-0.2-1h-0.1
				C118.9,150.7,118.1,151.1,117.1,151.1z M117.3,150c0.7,0,1.3-0.2,1.6-0.6c0.3-0.4,0.5-1.1,0.5-2v-0.2c0-1-0.2-1.8-0.5-2.2
				s-0.9-0.7-1.6-0.7c-0.6,0-1.1,0.3-1.5,0.8s-0.5,1.2-0.5,2.2c0,0.9,0.2,1.6,0.5,2.1C116.1,149.8,116.6,150,117.3,150z"/>
			<path id="XMLID_36_" class="st2" d="M125.4,153.6c-0.4,0-0.8-0.1-1-0.2v-1.1c0.3,0.1,0.7,0.1,1,0.1c0.5,0,0.8-0.1,1-0.4
				s0.3-0.7,0.3-1.2v-9.9h1.3v9.8c0,0.9-0.2,1.6-0.7,2.1C126.9,153.3,126.3,153.6,125.4,153.6z"/>
			<path id="XMLID_33_" class="st2" d="M137,147.2c0,1.2-0.3,2.2-0.9,2.9c-0.6,0.7-1.5,1-2.6,1c-0.7,0-1.3-0.2-1.8-0.5
				s-0.9-0.8-1.2-1.4c-0.3-0.6-0.4-1.3-0.4-2.1c0-1.2,0.3-2.2,0.9-2.9s1.5-1,2.6-1c1.1,0,1.9,0.3,2.5,1S137,146,137,147.2z
				 M131.3,147.2c0,0.9,0.2,1.7,0.6,2.1c0.4,0.5,0.9,0.7,1.6,0.7c0.7,0,1.3-0.2,1.6-0.7s0.6-1.2,0.6-2.1s-0.2-1.7-0.6-2.1
				s-0.9-0.7-1.7-0.7C132.1,144.3,131.3,145.3,131.3,147.2z"/>
			<path id="XMLID_31_" class="st2" d="M137.6,143.4h1.3l1.6,4.3c0.3,0.9,0.6,1.6,0.6,2h0.1c0-0.2,0.1-0.5,0.3-0.9s0.3-0.8,0.4-1.1
				l1.5-4.3h1.3l-3.2,8.5c-0.3,0.8-0.7,1.4-1.1,1.8c-0.4,0.4-1,0.5-1.6,0.5c-0.3,0-0.7,0-1-0.1v-1c0.2,0.1,0.5,0.1,0.8,0.1
				c0.4,0,0.7-0.1,1-0.3s0.5-0.6,0.7-1l0.4-1L137.6,143.4z"/>
		</g>
	</g>
	<g id="XMLID_23_">
		<circle id="XMLID_27_" class="st3" cx="30.2" cy="111.4" r="4"/>
		<path id="XMLID_26_" class="st3" d="M26.2,111.4h8.1v10.1C34.2,121.5,26.2,116.6,26.2,111.4z"/>
		<circle id="XMLID_25_" class="st3" cx="38.3" cy="111.2" r="4"/>
		<path id="XMLID_24_" class="st3" d="M42.3,111.2h-8.1v10.1C34.2,121.3,42.3,116.4,42.3,111.2z"/>
	</g>
	<g id="XMLID_16_">
		<path id="XMLID_22_" class="st4" d="M110.1,83.5H92.9c-7.7,0-14-6.3-14-14V25.7c0-7.7,6.3-14,14-14h17.3c7.7,0,14,6.3,14,14v43.8
			C124.1,77.2,117.8,83.5,110.1,83.5z"/>
		<path id="XMLID_21_" class="st4" d="M78.9,46.8l-4.3,36.7H37.2c0,0-0.5-30.8,16.5-35.9L78.9,46.8z"/>
		<path id="XMLID_20_" class="st5" d="M116.4,51.1H48.6c-2.4,0-4.3-1.9-4.3-4.3l0,0c0-2.4,1.9-4.3,4.3-4.3h67.8
			c2.4,0,4.3,1.9,4.3,4.3l0,0C120.7,49.2,118.8,51.1,116.4,51.1z"/>
		<path id="XMLID_19_" class="st6" d="M106.5,83.5H67.8c-7.7,0-14-6.3-14-14v-4.4c0-7.7,6.3-14,14-14h38.7c7.7,0,14,6.3,14,14v4.4
			C120.5,77.2,114.2,83.5,106.5,83.5z"/>
		<path id="XMLID_18_" class="st7" d="M120.2,82.7h-17.3c-7.7,0-14-6.3-14-14V24.9c0-7.7,6.3-14,14-14h17.3c7.7,0,14,6.3,14,14v43.8
			C134.2,76.4,127.9,82.7,120.2,82.7z"/>
		<path id="XMLID_17_" class="st7" d="M139.7,51.1H71.9c-2.4,0-4.3-1.9-4.3-4.3l0,0c0-2.4,1.9-4.3,4.3-4.3h67.8
			c2.4,0,4.3,1.9,4.3,4.3l0,0C144,49.2,142.1,51.1,139.7,51.1z"/>
	</g>
</g>
</svg>