<!-- Generator: Adobe Illustrator 19.0.0, SVG Export Plug-In  -->
<svg version="1.1"
	 xmlns="http://www.w3.org/2000/svg" xmlns:xlink="http://www.w3.org/1999/xlink" xmlns:a="http://ns.adobe.com/AdobeSVGViewerExtensions/3.0/"
	 x="0px" y="0px" width="130.2px" height="99.4px" viewBox="0 0 130.2 99.4" style="enable-background:new 0 0 130.2 99.4;"
	 xml:space="preserve">
<style type="text/css">
	.st0{fill:#E0DFDE;}
	.st1{fill:#B58335;}
	.st2{clip-path:url(#XMLID_33_);fill:#16007E;}
	.st3{clip-path:url(#XMLID_33_);fill:#FFFFFF;}
	.st4{clip-path:url(#XMLID_34_);fill:#16007E;}
	.st5{clip-path:url(#XMLID_34_);fill:#FFFFFF;}
</style>
<defs>
</defs>
<path id="XMLID_32_" class="st0" d="M97.4,36.4c0,26.9-21.8,48.7-48.7,48.7S0,63.3,0,36.4"/>
<path id="XMLID_31_" class="st1" d="M56.4,14v2.8c0,7.7-6.3,14-14,14H28.5c-7.7,0-14-6.3-14-14V14c0-7.7,6.3-14,14-14h13.8
	C50.1,0,56.4,6.3,56.4,14z"/>
<path id="XMLID_30_" class="st1" d="M130.2,15.4L130.2,15.4c0,3.3-2.7,5.9-5.9,5.9H27.6c-3.3,0-5.9-2.7-5.9-5.9l0,0
	c0-3.3,2.7-5.9,5.9-5.9h96.7C127.6,9.5,130.2,12.1,130.2,15.4z"/>
<g id="XMLID_15_">
	<g id="XMLID_16_">
		<defs>
			<rect id="XMLID_17_" x="58.4" y="63.7" width="61.2" height="35.7"/>
		</defs>
		<clipPath id="XMLID_33_">
			<use xlink:href="#XMLID_17_"  style="overflow:visible;"/>
		</clipPath>
		<rect id="XMLID_29_" x="58.4" y="95.4" class="st2" width="61.2" height="4"/>
		<rect id="XMLID_28_" x="58.4" y="91.4" class="st3" width="61.2" height="4"/>
		<rect id="XMLID_27_" x="58.4" y="87.5" class="st2" width="61.2" height="4"/>
		<rect id="XMLID_26_" x="58.4" y="83.5" class="st3" width="61.2" height="3.9"/>
		<rect id="XMLID_25_" x="58.4" y="79.6" class="st2" width="61.2" height="4"/>
		<rect id="XMLID_24_" x="58.4" y="75.6" class="st3" width="61.2" height="4"/>
		<rect id="XMLID_23_" x="58.4" y="71.6" class="st2" width="61.2" height="4"/>
		<rect id="XMLID_22_" x="58.4" y="67.7" class="st3" width="61.2" height="4"/>
		<rect id="XMLID_21_" x="58.4" y="63.7" class="st2" width="61.2" height="4"/>
		<rect id="XMLID_20_" x="58.4" y="63.7" class="st2" width="19.8" height="19.8"/>
		<rect id="XMLID_19_" x="58.4" y="71.6" class="st3" width="19.8" height="4"/>
		<rect id="XMLID_18_" x="66.3" y="63.7" class="st3" width="4" height="19.8"/>
	</g>
</g>
</svg>