<!-- Generator: Adobe Illustrator 19.0.0, SVG Export Plug-In  -->
<svg version="1.1"
	 xmlns="http://www.w3.org/2000/svg" xmlns:xlink="http://www.w3.org/1999/xlink" xmlns:a="http://ns.adobe.com/AdobeSVGViewerExtensions/3.0/"
	 x="0px" y="0px" width="166px" height="167px" viewBox="0 0 166 167" style="enable-background:new 0 0 166 167;"
	 xml:space="preserve">
<style type="text/css">
	.st0{fill:#FFFFFF;}
	.st1{fill:#5A5F29;}
	.st2{fill:#3F3F3F;stroke:#3F3F3F;stroke-width:0.2;stroke-miterlimit:10;}
	.st3{fill:#CC0D29;}
	.st4{fill:none;stroke:#B78534;stroke-width:4;stroke-miterlimit:10;}
	.st5{fill:#EF2B51;}
	.st6{fill:#ED5315;}
	.st7{fill:#22C68B;}
	.st8{fill:#B78534;}
	.st9{fill:#E09F41;}
</style>
<defs>
</defs>
<g id="XMLID_15_">
	<polygon id="XMLID_275_" class="st0" points="19.2,166.2 19.2,147.1 0,166.3 	"/>
	<rect id="XMLID_274_" x="18.6" class="st1" width="147.4" height="167"/>
	<rect id="XMLID_273_" x="18.4" y="84.5" class="st0" width="147.7" height="81.8"/>
	<g id="XMLID_28_">
		<g id="XMLID_30_">
			<path id="XMLID_150_" class="st2" d="M49.2,104.6h-2v-9.8h5.6v1.7h-3.6V99h3.3v1.7h-3.3V104.6z"/>
			<path id="XMLID_148_" class="st2" d="M58.7,97c0.3,0,0.5,0,0.7,0.1l-0.2,1.9c-0.2,0-0.4-0.1-0.6-0.1c-0.7,0-1.2,0.2-1.5,0.5
				s-0.5,0.8-0.5,1.4v3.8h-2v-7.5h1.6l0.3,1.3h0.1c0.2-0.4,0.5-0.8,0.9-1S58.2,97,58.7,97z"/>
			<path id="XMLID_146_" class="st2" d="M66.1,104.6l-0.3-1h-0.1c-0.2,0.3-0.5,0.6-0.9,0.8s-0.9,0.3-1.4,0.3c-0.9,0-1.5-0.2-2-0.7
				c-0.4-0.5-0.7-1.2-0.7-2v-4.9h2v4.4c0,0.5,0.1,0.9,0.3,1.2s0.5,0.4,0.9,0.4c0.6,0,1-0.2,1.2-0.6s0.4-1,0.4-1.9v-3.5h2v7.5H66.1z"
				/>
			<path id="XMLID_143_" class="st2" d="M69.7,95.2c0-0.7,0.4-1,1.1-1c0.7,0,1.1,0.3,1.1,1c0,0.3-0.1,0.6-0.3,0.7
				c-0.2,0.2-0.5,0.3-0.8,0.3C70.1,96.2,69.7,95.8,69.7,95.2z M71.9,104.6h-2v-7.5h2V104.6z"/>
			<path id="XMLID_141_" class="st2" d="M77.2,103.1c0.4,0,0.8-0.1,1.3-0.2v1.5c-0.5,0.2-1.1,0.3-1.9,0.3c-0.8,0-1.4-0.2-1.8-0.6
				s-0.6-1-0.6-1.9v-3.6h-1v-0.9l1.1-0.7l0.6-1.6h1.3v1.6h2.1v1.5h-2.1v3.6c0,0.3,0.1,0.5,0.2,0.6C76.7,103,76.9,103.1,77.2,103.1z"
				/>
			<path id="XMLID_138_" class="st2" d="M87.7,97c0.9,0,1.6,0.3,2.1,1c0.5,0.7,0.8,1.6,0.8,2.8c0,1.2-0.3,2.2-0.8,2.9
				c-0.5,0.7-1.2,1-2.1,1c-0.9,0-1.6-0.3-2.1-1h-0.1l-0.3,0.8h-1.6V94.2h2v2.4c0,0.3,0,0.8-0.1,1.5h0.1C86.1,97.3,86.8,97,87.7,97z
				 M87.1,98.6c-0.5,0-0.9,0.2-1.1,0.5c-0.2,0.3-0.4,0.8-0.4,1.5v0.2c0,0.8,0.1,1.4,0.4,1.7c0.2,0.3,0.6,0.5,1.1,0.5
				c0.4,0,0.8-0.2,1-0.6c0.2-0.4,0.4-1,0.4-1.7s-0.1-1.3-0.4-1.7C87.9,98.8,87.5,98.6,87.1,98.6z"/>
			<path id="XMLID_135_" class="st2" d="M97,104.6l-0.4-1h-0.1c-0.3,0.4-0.7,0.7-1.1,0.9s-0.8,0.3-1.4,0.3c-0.7,0-1.3-0.2-1.7-0.6
				c-0.4-0.4-0.6-1-0.6-1.8c0-0.8,0.3-1.4,0.8-1.8s1.4-0.6,2.5-0.6l1.3,0v-0.3c0-0.8-0.4-1.1-1.2-1.1c-0.6,0-1.3,0.2-2.1,0.5
				l-0.7-1.4c0.9-0.5,1.8-0.7,2.9-0.7c1,0,1.8,0.2,2.3,0.7c0.5,0.4,0.8,1.1,0.8,2v5H97z M96.4,101.1l-0.8,0c-0.6,0-1,0.1-1.3,0.3
				c-0.3,0.2-0.4,0.5-0.4,0.9c0,0.6,0.3,0.9,1,0.9c0.5,0,0.9-0.1,1.1-0.4c0.3-0.3,0.4-0.6,0.4-1.1V101.1z"/>
			<path id="XMLID_133_" class="st2" d="M105.8,102.4c0,0.8-0.3,1.4-0.8,1.8c-0.5,0.4-1.3,0.6-2.4,0.6c-0.5,0-1,0-1.4-0.1
				c-0.4-0.1-0.7-0.2-1.1-0.3v-1.7c0.4,0.2,0.8,0.3,1.3,0.5c0.5,0.1,0.9,0.2,1.3,0.2c0.7,0,1.1-0.2,1.1-0.6c0-0.2,0-0.3-0.1-0.4
				c-0.1-0.1-0.3-0.2-0.5-0.3c-0.2-0.1-0.6-0.3-1-0.4c-0.6-0.2-1-0.5-1.3-0.7c-0.3-0.2-0.5-0.4-0.6-0.7c-0.1-0.3-0.2-0.6-0.2-1
				c0-0.7,0.3-1.2,0.8-1.5s1.3-0.5,2.2-0.5c0.9,0,1.8,0.2,2.6,0.6l-0.6,1.5c-0.4-0.2-0.7-0.3-1.1-0.4s-0.7-0.2-1-0.2
				c-0.6,0-0.9,0.2-0.9,0.5c0,0.2,0.1,0.3,0.3,0.5c0.2,0.1,0.6,0.3,1.3,0.6c0.6,0.2,1,0.5,1.3,0.7c0.3,0.2,0.5,0.4,0.6,0.7
				C105.8,101.7,105.8,102,105.8,102.4z"/>
			<path id="XMLID_131_" class="st2" d="M109.4,100.5l0.9-1.1l2.1-2.3h2.3l-3,3.3l3.2,4.3h-2.4l-2.2-3l-0.9,0.7v2.3h-2V94.2h2v4.7
				L109.4,100.5L109.4,100.5z"/>
			<path id="XMLID_128_" class="st2" d="M119.2,104.7c-1.2,0-2.2-0.3-2.8-1c-0.7-0.7-1-1.6-1-2.8c0-1.3,0.3-2.2,0.9-2.9
				c0.6-0.7,1.5-1,2.6-1c1.1,0,1.9,0.3,2.5,0.9c0.6,0.6,0.9,1.4,0.9,2.5v1h-4.8c0,0.6,0.2,1,0.5,1.4c0.3,0.3,0.8,0.5,1.4,0.5
				c0.5,0,0.9,0,1.3-0.1c0.4-0.1,0.8-0.2,1.3-0.5v1.6c-0.4,0.2-0.7,0.3-1.1,0.4C120.3,104.7,119.8,104.7,119.2,104.7z M118.9,98.4
				c-0.4,0-0.8,0.1-1,0.4c-0.2,0.3-0.4,0.7-0.4,1.2h2.9c0-0.5-0.1-0.9-0.4-1.2C119.7,98.6,119.4,98.4,118.9,98.4z"/>
			<path id="XMLID_126_" class="st2" d="M127.1,103.1c0.4,0,0.8-0.1,1.3-0.2v1.5c-0.5,0.2-1.1,0.3-1.9,0.3c-0.8,0-1.4-0.2-1.8-0.6
				s-0.6-1-0.6-1.9v-3.6h-1v-0.9l1.1-0.7l0.6-1.6h1.3v1.6h2.1v1.5h-2.1v3.6c0,0.3,0.1,0.5,0.2,0.6
				C126.6,103,126.8,103.1,127.1,103.1z"/>
			<path id="XMLID_123_" class="st2" d="M53.5,114.2c0,1-0.3,1.8-1,2.3s-1.7,0.8-2.9,0.8h-1.1v3.8h-1.2v-9.8h2.6
				C52.3,111.3,53.5,112.3,53.5,114.2z M48.5,116.2h1c1,0,1.7-0.2,2.1-0.5c0.4-0.3,0.7-0.8,0.7-1.5c0-0.6-0.2-1.1-0.6-1.4
				c-0.4-0.3-1-0.5-1.9-0.5h-1.3V116.2z"/>
			<path id="XMLID_121_" class="st2" d="M58.8,113.6c0.3,0,0.6,0,0.9,0.1l-0.1,1.1c-0.3-0.1-0.5-0.1-0.8-0.1c-0.4,0-0.8,0.1-1.1,0.3
				c-0.3,0.2-0.6,0.5-0.8,0.9c-0.2,0.4-0.3,0.8-0.3,1.3v3.9h-1.2v-7.4h1l0.1,1.4h0.1c0.3-0.5,0.6-0.9,1-1.1
				C57.9,113.7,58.4,113.6,58.8,113.6z"/>
			<path id="XMLID_118_" class="st2" d="M65.5,121.1l-0.2-1h-0.1c-0.4,0.5-0.7,0.8-1.1,0.9c-0.4,0.2-0.8,0.2-1.4,0.2
				c-0.7,0-1.3-0.2-1.7-0.6c-0.4-0.4-0.6-0.9-0.6-1.6c0-1.5,1.2-2.3,3.5-2.4l1.2,0v-0.4c0-0.6-0.1-1-0.4-1.2s-0.6-0.4-1.2-0.4
				c-0.4,0-0.8,0.1-1.1,0.2c-0.3,0.1-0.7,0.2-1,0.4l-0.4-0.9c0.4-0.2,0.8-0.4,1.2-0.5c0.4-0.1,0.9-0.2,1.3-0.2c0.9,0,1.6,0.2,2,0.6
				c0.4,0.4,0.7,1,0.7,1.9v5H65.5z M63,120.3c0.7,0,1.2-0.2,1.6-0.5c0.4-0.4,0.6-0.9,0.6-1.6v-0.7l-1.1,0c-0.8,0-1.5,0.2-1.9,0.4
				c-0.4,0.2-0.6,0.6-0.6,1.1c0,0.4,0.1,0.7,0.4,0.9S62.6,120.3,63,120.3z"/>
			<path id="XMLID_116_" class="st2" d="M71.6,121.3c-1.1,0-1.9-0.3-2.5-1c-0.6-0.7-0.9-1.6-0.9-2.8c0-1.2,0.3-2.2,0.9-2.9
				c0.6-0.7,1.5-1,2.6-1c0.4,0,0.7,0,1.1,0.1s0.6,0.2,0.9,0.3l-0.4,1c-0.6-0.2-1.2-0.3-1.6-0.3c-0.7,0-1.3,0.2-1.6,0.7
				c-0.4,0.5-0.5,1.2-0.5,2.1c0,0.9,0.2,1.6,0.5,2s0.9,0.7,1.6,0.7c0.6,0,1.3-0.1,1.9-0.4v1.1C73,121.1,72.4,121.3,71.6,121.3z"/>
			<path id="XMLID_114_" class="st2" d="M77.7,120.3c0.2,0,0.3,0,0.6,0c0.2,0,0.4-0.1,0.5-0.1v0.9c-0.1,0-0.3,0.1-0.5,0.1
				c-0.2,0-0.5,0.1-0.7,0.1c-1.4,0-2.2-0.8-2.2-2.3v-4.3h-1v-0.6l1.1-0.5l0.5-1.6h0.7v1.7h2.1v0.9h-2.1v4.3c0,0.4,0.1,0.8,0.3,1
				C77.1,120.2,77.4,120.3,77.7,120.3z"/>
			<path id="XMLID_111_" class="st2" d="M80.1,111.8c0-0.3,0.1-0.5,0.2-0.6s0.3-0.2,0.5-0.2c0.2,0,0.4,0.1,0.5,0.2
				c0.1,0.1,0.2,0.3,0.2,0.6c0,0.3-0.1,0.5-0.2,0.6c-0.1,0.1-0.3,0.2-0.5,0.2c-0.2,0-0.4-0.1-0.5-0.2
				C80.2,112.2,80.1,112,80.1,111.8z M81.4,121.1h-1.2v-7.4h1.2V121.1z"/>
			<path id="XMLID_109_" class="st2" d="M86.7,121.3c-1.1,0-1.9-0.3-2.5-1c-0.6-0.7-0.9-1.6-0.9-2.8c0-1.2,0.3-2.2,0.9-2.9
				c0.6-0.7,1.5-1,2.6-1c0.4,0,0.7,0,1.1,0.1s0.6,0.2,0.9,0.3l-0.4,1c-0.6-0.2-1.2-0.3-1.6-0.3c-0.7,0-1.3,0.2-1.6,0.7
				c-0.4,0.5-0.5,1.2-0.5,2.1c0,0.9,0.2,1.6,0.5,2c0.4,0.5,0.9,0.7,1.6,0.7c0.6,0,1.3-0.1,1.9-0.4v1.1
				C88.1,121.1,87.5,121.3,86.7,121.3z"/>
			<path id="XMLID_106_" class="st2" d="M94.9,121.1l-0.2-1h-0.1c-0.4,0.5-0.7,0.8-1.1,0.9c-0.4,0.2-0.8,0.2-1.4,0.2
				c-0.7,0-1.3-0.2-1.7-0.6c-0.4-0.4-0.6-0.9-0.6-1.6c0-1.5,1.2-2.3,3.5-2.4l1.3,0v-0.4c0-0.6-0.1-1-0.4-1.2
				c-0.2-0.3-0.6-0.4-1.2-0.4c-0.4,0-0.8,0.1-1.1,0.2c-0.3,0.1-0.7,0.2-1,0.4l-0.4-0.9c0.4-0.2,0.8-0.4,1.2-0.5s0.9-0.2,1.3-0.2
				c0.9,0,1.6,0.2,2,0.6c0.4,0.4,0.7,1,0.7,1.9v5H94.9z M92.4,120.3c0.7,0,1.2-0.2,1.6-0.5s0.6-0.9,0.6-1.6v-0.7l-1.1,0
				c-0.8,0-1.5,0.2-1.9,0.4c-0.4,0.2-0.6,0.6-0.6,1.1c0,0.4,0.1,0.7,0.4,0.9C91.7,120.2,92,120.3,92.4,120.3z"/>
			<path id="XMLID_104_" class="st2" d="M99.3,121.1h-1.2v-10.5h1.2V121.1z"/>
			<path id="XMLID_101_" class="st2" d="M109.8,121.1l-0.2-1h-0.1c-0.4,0.5-0.7,0.8-1.1,0.9c-0.4,0.2-0.8,0.2-1.4,0.2
				c-0.7,0-1.3-0.2-1.7-0.6c-0.4-0.4-0.6-0.9-0.6-1.6c0-1.5,1.2-2.3,3.5-2.4l1.3,0v-0.4c0-0.6-0.1-1-0.4-1.2
				c-0.2-0.3-0.6-0.4-1.2-0.4c-0.4,0-0.8,0.1-1.1,0.2c-0.3,0.1-0.7,0.2-1,0.4l-0.4-0.9c0.4-0.2,0.8-0.4,1.2-0.5s0.9-0.2,1.3-0.2
				c0.9,0,1.6,0.2,2,0.6c0.4,0.4,0.7,1,0.7,1.9v5H109.8z M107.3,120.3c0.7,0,1.2-0.2,1.6-0.5s0.6-0.9,0.6-1.6v-0.7l-1.1,0
				c-0.8,0-1.5,0.2-1.9,0.4c-0.4,0.2-0.6,0.6-0.6,1.1c0,0.4,0.1,0.7,0.4,0.9C106.5,120.2,106.9,120.3,107.3,120.3z"/>
			<path id="XMLID_99_" class="st2" d="M118,121.1v-4.7c0-0.6-0.1-1-0.4-1.3s-0.7-0.4-1.3-0.4c-0.8,0-1.3,0.2-1.7,0.6
				c-0.3,0.4-0.5,1.1-0.5,2v3.8h-1.2v-7.4h1l0.2,1h0.1c0.2-0.4,0.5-0.6,1-0.8s0.9-0.3,1.4-0.3c0.9,0,1.6,0.2,2,0.7
				c0.4,0.4,0.7,1.1,0.7,2.1v4.8H118z"/>
			<path id="XMLID_96_" class="st2" d="M124.1,121.3c-1,0-1.7-0.3-2.2-1c-0.5-0.7-0.8-1.6-0.8-2.8c0-1.2,0.3-2.1,0.8-2.8
				c0.5-0.7,1.3-1,2.2-1c1,0,1.8,0.4,2.3,1.1h0.1c0-0.1,0-0.3-0.1-0.5s0-0.5,0-0.5v-2.9h1.2v10.5h-1l-0.2-1h-0.1
				C125.8,120.9,125.1,121.3,124.1,121.3z M124.3,120.3c0.7,0,1.3-0.2,1.6-0.6c0.3-0.4,0.5-1.1,0.5-2v-0.2c0-1-0.2-1.8-0.5-2.2
				c-0.3-0.4-0.9-0.7-1.6-0.7c-0.6,0-1.1,0.2-1.4,0.7c-0.3,0.5-0.5,1.2-0.5,2.1c0,0.9,0.2,1.6,0.5,2.1
				C123.1,120,123.6,120.3,124.3,120.3z"/>
			<path id="XMLID_93_" class="st2" d="M51.6,137.6l-0.2-1h-0.1c-0.4,0.5-0.7,0.8-1.1,0.9s-0.8,0.2-1.4,0.2c-0.7,0-1.3-0.2-1.7-0.6
				c-0.4-0.4-0.6-0.9-0.6-1.6c0-1.5,1.2-2.3,3.5-2.4l1.3,0v-0.4c0-0.6-0.1-1-0.4-1.2c-0.2-0.3-0.6-0.4-1.2-0.4
				c-0.4,0-0.8,0.1-1.1,0.2s-0.7,0.2-1,0.4l-0.4-0.9c0.4-0.2,0.8-0.4,1.2-0.5c0.4-0.1,0.9-0.2,1.3-0.2c0.9,0,1.6,0.2,2,0.6
				s0.7,1,0.7,1.9v5H51.6z M49.1,136.8c0.7,0,1.2-0.2,1.6-0.5c0.4-0.4,0.6-0.9,0.6-1.6V134l-1.1,0c-0.8,0-1.5,0.2-1.9,0.4
				c-0.4,0.2-0.6,0.6-0.6,1.1c0,0.4,0.1,0.7,0.4,0.9C48.4,136.7,48.7,136.8,49.1,136.8z"/>
			<path id="XMLID_91_" class="st2" d="M61.3,137.8c-1.1,0-1.9-0.3-2.5-1s-0.9-1.6-0.9-2.8c0-1.2,0.3-2.2,0.9-2.9
				c0.6-0.7,1.5-1,2.6-1c0.4,0,0.7,0,1.1,0.1s0.6,0.2,0.9,0.3l-0.4,1c-0.6-0.2-1.2-0.3-1.6-0.3c-0.7,0-1.3,0.2-1.6,0.7
				c-0.4,0.5-0.5,1.2-0.5,2.1c0,0.9,0.2,1.6,0.5,2c0.4,0.5,0.9,0.7,1.6,0.7c0.6,0,1.3-0.1,1.9-0.4v1.1
				C62.7,137.6,62.1,137.8,61.3,137.8z"/>
			<path id="XMLID_88_" class="st2" d="M71.4,133.9c0,1.2-0.3,2.1-0.9,2.8s-1.5,1-2.5,1c-0.7,0-1.3-0.2-1.8-0.5
				c-0.5-0.3-0.9-0.8-1.2-1.3s-0.4-1.3-0.4-2c0-1.2,0.3-2.1,0.9-2.8s1.4-1,2.5-1c1,0,1.9,0.3,2.5,1S71.4,132.8,71.4,133.9z
				 M65.8,133.9c0,0.9,0.2,1.6,0.5,2.1s0.9,0.7,1.6,0.7c0.7,0,1.2-0.2,1.6-0.7c0.4-0.5,0.6-1.2,0.6-2.1c0-0.9-0.2-1.6-0.6-2.1
				c-0.4-0.5-0.9-0.7-1.6-0.7C66.5,131.1,65.8,132.1,65.8,133.9z"/>
			<path id="XMLID_86_" class="st2" d="M82.7,137.6v-4.8c0-1.2-0.5-1.7-1.5-1.7c-0.7,0-1.2,0.2-1.5,0.6c-0.3,0.4-0.5,1-0.5,1.8v4.1
				H78v-4.8c0-0.6-0.1-1-0.4-1.3c-0.2-0.3-0.6-0.4-1.1-0.4c-0.7,0-1.2,0.2-1.5,0.6c-0.3,0.4-0.5,1.1-0.5,2v3.8h-1.2v-7.4h1l0.2,1
				h0.1c0.2-0.4,0.5-0.6,0.9-0.8s0.8-0.3,1.3-0.3c1.2,0,1.9,0.4,2.3,1.2H79c0.2-0.4,0.6-0.7,1-0.9c0.4-0.2,0.9-0.3,1.4-0.3
				c0.8,0,1.5,0.2,1.9,0.6c0.4,0.4,0.6,1.1,0.6,2.1v4.8H82.7z"/>
			<path id="XMLID_84_" class="st2" d="M95.5,137.6v-4.8c0-1.2-0.5-1.7-1.5-1.7c-0.7,0-1.2,0.2-1.5,0.6c-0.3,0.4-0.5,1-0.5,1.8v4.1
				h-1.2v-4.8c0-0.6-0.1-1-0.4-1.3c-0.2-0.3-0.6-0.4-1.1-0.4c-0.7,0-1.2,0.2-1.5,0.6c-0.3,0.4-0.5,1.1-0.5,2v3.8h-1.2v-7.4h1l0.2,1
				h0.1c0.2-0.4,0.5-0.6,0.9-0.8c0.4-0.2,0.8-0.3,1.3-0.3c1.2,0,1.9,0.4,2.3,1.2h0.1c0.2-0.4,0.6-0.7,1-0.9c0.4-0.2,0.9-0.3,1.4-0.3
				c0.8,0,1.5,0.2,1.9,0.6c0.4,0.4,0.6,1.1,0.6,2.1v4.8H95.5z"/>
			<path id="XMLID_81_" class="st2" d="M105.4,133.9c0,1.2-0.3,2.1-0.9,2.8s-1.5,1-2.5,1c-0.7,0-1.3-0.2-1.8-0.5
				c-0.5-0.3-0.9-0.8-1.2-1.3s-0.4-1.3-0.4-2c0-1.2,0.3-2.1,0.9-2.8s1.4-1,2.5-1c1,0,1.9,0.3,2.5,1S105.4,132.8,105.4,133.9z
				 M99.9,133.9c0,0.9,0.2,1.6,0.5,2.1s0.9,0.7,1.6,0.7c0.7,0,1.2-0.2,1.6-0.7c0.4-0.5,0.6-1.2,0.6-2.1c0-0.9-0.2-1.6-0.6-2.1
				c-0.4-0.5-0.9-0.7-1.6-0.7C100.6,131.1,99.9,132.1,99.9,133.9z"/>
			<path id="XMLID_79_" class="st2" d="M112.4,137.6v-4.7c0-0.6-0.1-1-0.4-1.3c-0.3-0.3-0.7-0.4-1.3-0.4c-0.8,0-1.3,0.2-1.6,0.6
				c-0.3,0.4-0.5,1.1-0.5,2v3.8h-1.2v-7.4h1l0.2,1h0.1c0.2-0.4,0.5-0.6,1-0.8c0.4-0.2,0.9-0.3,1.4-0.3c0.9,0,1.6,0.2,2,0.7
				s0.7,1.1,0.7,2v4.8H112.4z"/>
			<path id="XMLID_77_" class="st2" d="M122.4,137.8c-1.1,0-1.9-0.3-2.5-1s-0.9-1.6-0.9-2.8c0-1.2,0.3-2.2,0.9-2.9
				c0.6-0.7,1.5-1,2.6-1c0.4,0,0.7,0,1.1,0.1s0.6,0.2,0.9,0.3l-0.4,1c-0.6-0.2-1.2-0.3-1.6-0.3c-0.7,0-1.3,0.2-1.6,0.7
				c-0.4,0.5-0.5,1.2-0.5,2.1c0,0.9,0.2,1.6,0.5,2c0.4,0.5,0.9,0.7,1.6,0.7c0.6,0,1.3-0.1,1.9-0.4v1.1
				C123.8,137.6,123.1,137.8,122.4,137.8z"/>
			<path id="XMLID_75_" class="st2" d="M131.1,137.6v-4.7c0-0.6-0.1-1-0.4-1.3c-0.3-0.3-0.7-0.4-1.3-0.4c-0.7,0-1.3,0.2-1.6,0.6
				c-0.3,0.4-0.5,1.1-0.5,2.1v3.8H126v-10.5h1.2v3.1c0,0.4,0,0.7-0.1,1h0.1c0.2-0.4,0.5-0.6,0.9-0.8c0.4-0.2,0.9-0.3,1.4-0.3
				c0.9,0,1.6,0.2,2,0.6s0.7,1.1,0.7,2.1v4.8H131.1z"/>
			<path id="XMLID_72_" class="st2" d="M141,133.9c0,1.2-0.3,2.1-0.9,2.8s-1.5,1-2.5,1c-0.7,0-1.3-0.2-1.8-0.5
				c-0.5-0.3-0.9-0.8-1.2-1.3s-0.4-1.3-0.4-2c0-1.2,0.3-2.1,0.9-2.8s1.4-1,2.5-1c1,0,1.9,0.3,2.5,1S141,132.8,141,133.9z
				 M135.4,133.9c0,0.9,0.2,1.6,0.5,2.1s0.9,0.7,1.6,0.7c0.7,0,1.2-0.2,1.6-0.7s0.6-1.2,0.6-2.1c0-0.9-0.2-1.6-0.6-2.1
				c-0.4-0.5-0.9-0.7-1.6-0.7C136.1,131.1,135.4,132.1,135.4,133.9z"/>
			<path id="XMLID_69_" class="st2" d="M142.8,128.3c0-0.3,0.1-0.5,0.2-0.6s0.3-0.2,0.5-0.2c0.2,0,0.4,0.1,0.5,0.2
				c0.1,0.1,0.2,0.3,0.2,0.6c0,0.3-0.1,0.5-0.2,0.6c-0.1,0.1-0.3,0.2-0.5,0.2c-0.2,0-0.4-0.1-0.5-0.2S142.8,128.5,142.8,128.3z
				 M144.1,137.6h-1.2v-7.4h1.2V137.6z"/>
			<path id="XMLID_67_" class="st2" d="M149.4,137.8c-1.1,0-1.9-0.3-2.5-1c-0.6-0.7-0.9-1.6-0.9-2.8c0-1.2,0.3-2.2,0.9-2.9
				s1.5-1,2.6-1c0.4,0,0.7,0,1.1,0.1c0.4,0.1,0.6,0.2,0.9,0.3l-0.4,1c-0.6-0.2-1.2-0.3-1.6-0.3c-0.7,0-1.3,0.2-1.6,0.7
				c-0.4,0.5-0.5,1.2-0.5,2.1c0,0.9,0.2,1.6,0.5,2c0.4,0.5,0.9,0.7,1.6,0.7c0.6,0,1.3-0.1,1.9-0.4v1.1
				C150.8,137.6,150.1,137.8,149.4,137.8z"/>
			<path id="XMLID_64_" class="st2" d="M156.2,137.8c-1.1,0-2-0.3-2.6-1c-0.6-0.7-0.9-1.6-0.9-2.8c0-1.2,0.3-2.1,0.9-2.8
				s1.4-1.1,2.4-1.1c0.9,0,1.7,0.3,2.2,0.9c0.6,0.6,0.8,1.4,0.8,2.4v0.7h-5.1c0,0.8,0.2,1.5,0.6,1.9c0.4,0.4,1,0.7,1.7,0.7
				c0.4,0,0.8,0,1.1-0.1c0.4-0.1,0.8-0.2,1.2-0.4v1.1c-0.4,0.2-0.8,0.3-1.1,0.4S156.7,137.8,156.2,137.8z M155.9,131.1
				c-0.6,0-1,0.2-1.4,0.6c-0.3,0.4-0.5,0.9-0.6,1.6h3.8c0-0.7-0.2-1.2-0.5-1.6S156.4,131.1,155.9,131.1z"/>
			<path id="XMLID_62_" class="st2" d="M50.4,147.7h-1.9v6.4h-1.2v-6.4h-1.3v-0.6l1.3-0.4v-0.4c0-0.9,0.2-1.6,0.6-2
				c0.4-0.4,1-0.7,1.8-0.7c0.5,0,0.9,0.1,1.4,0.2l-0.3,0.9c-0.4-0.1-0.8-0.2-1.1-0.2c-0.4,0-0.7,0.1-0.9,0.4s-0.3,0.7-0.3,1.3v0.5
				h1.9V147.7z"/>
			<path id="XMLID_59_" class="st2" d="M58.2,150.5c0,1.2-0.3,2.1-0.9,2.8c-0.6,0.7-1.5,1-2.5,1c-0.7,0-1.3-0.2-1.8-0.5
				c-0.5-0.3-0.9-0.8-1.2-1.3s-0.4-1.3-0.4-2c0-1.2,0.3-2.1,0.9-2.8s1.4-1,2.5-1c1,0,1.9,0.3,2.5,1
				C57.9,148.4,58.2,149.3,58.2,150.5z M52.6,150.5c0,0.9,0.2,1.6,0.5,2.1s0.9,0.7,1.6,0.7c0.7,0,1.2-0.2,1.6-0.7s0.6-1.2,0.6-2.1
				s-0.2-1.6-0.6-2.1c-0.4-0.5-0.9-0.7-1.6-0.7C53.3,147.7,52.6,148.6,52.6,150.5z"/>
			<path id="XMLID_57_" class="st2" d="M63.6,146.7c0.3,0,0.6,0,0.9,0.1l-0.1,1.1c-0.3-0.1-0.5-0.1-0.8-0.1c-0.4,0-0.8,0.1-1.1,0.3
				c-0.3,0.2-0.6,0.5-0.8,0.9s-0.3,0.8-0.3,1.3v3.9h-1.2v-7.4h1l0.1,1.4h0.1c0.3-0.5,0.6-0.9,1-1.1
				C62.7,146.8,63.1,146.7,63.6,146.7z"/>
			<path id="XMLID_55_" class="st2" d="M78.8,154.2v-4.8c0-1.2-0.5-1.7-1.5-1.7c-0.7,0-1.2,0.2-1.5,0.6c-0.3,0.4-0.5,1-0.5,1.8v4.1
				h-1.2v-4.8c0-0.6-0.1-1-0.4-1.3c-0.2-0.3-0.6-0.4-1.1-0.4c-0.7,0-1.2,0.2-1.5,0.6c-0.3,0.4-0.5,1.1-0.5,2v3.8h-1.2v-7.4h1l0.2,1
				h0.1c0.2-0.4,0.5-0.6,0.9-0.8c0.4-0.2,0.8-0.3,1.3-0.3c1.2,0,1.9,0.4,2.3,1.2h0.1c0.2-0.4,0.6-0.7,1-0.9c0.4-0.2,0.9-0.3,1.4-0.3
				c0.8,0,1.5,0.2,1.9,0.6c0.4,0.4,0.6,1.1,0.6,2.1v4.8H78.8z"/>
			<path id="XMLID_52_" class="st2" d="M86.8,154.2l-0.2-1h-0.1c-0.4,0.5-0.7,0.8-1.1,0.9c-0.4,0.2-0.8,0.2-1.4,0.2
				c-0.7,0-1.3-0.2-1.7-0.6s-0.6-0.9-0.6-1.6c0-1.5,1.2-2.3,3.5-2.4l1.3,0v-0.4c0-0.6-0.1-1-0.4-1.2c-0.2-0.3-0.6-0.4-1.2-0.4
				c-0.4,0-0.8,0.1-1.1,0.2c-0.3,0.1-0.7,0.2-1,0.4l-0.4-0.9c0.4-0.2,0.8-0.4,1.2-0.5c0.4-0.1,0.9-0.2,1.3-0.2c0.9,0,1.6,0.2,2,0.6
				s0.7,1,0.7,1.9v5H86.8z M84.3,153.3c0.7,0,1.2-0.2,1.6-0.5s0.6-0.9,0.6-1.6v-0.7l-1.1,0c-0.8,0-1.5,0.2-1.9,0.4
				c-0.4,0.2-0.6,0.6-0.6,1.1c0,0.4,0.1,0.7,0.4,0.9C83.5,153.2,83.9,153.3,84.3,153.3z"/>
			<path id="XMLID_50_" class="st2" d="M95,154.2v-4.7c0-0.6-0.1-1-0.4-1.3c-0.3-0.3-0.7-0.4-1.3-0.4c-0.8,0-1.3,0.2-1.7,0.6
				c-0.3,0.4-0.5,1.1-0.5,2v3.8H90v-7.4h1l0.2,1h0.1c0.2-0.4,0.5-0.6,1-0.8s0.9-0.3,1.4-0.3c0.9,0,1.6,0.2,2,0.7
				c0.4,0.4,0.7,1.1,0.7,2v4.8H95z"/>
			<path id="XMLID_48_" class="st2" d="M97.3,146.8h1.3l1.6,4.2c0.3,0.9,0.5,1.6,0.6,2h0.1c0-0.2,0.1-0.5,0.3-0.9
				c0.1-0.5,0.3-0.8,0.4-1.1l1.5-4.2h1.3l-3.2,8.4c-0.3,0.8-0.7,1.4-1.1,1.8c-0.4,0.4-1,0.5-1.6,0.5c-0.3,0-0.7,0-1-0.1v-1
				c0.2,0.1,0.5,0.1,0.8,0.1c0.4,0,0.7-0.1,1-0.3c0.3-0.2,0.5-0.5,0.7-1l0.4-1L97.3,146.8z"/>
			<path id="XMLID_45_" class="st2" d="M112.6,154.3c-1,0-1.8-0.4-2.3-1.1h-0.1l0,0.3c0,0.3,0.1,0.7,0.1,0.9v3h-1.2v-10.7h1l0.2,1
				h0.1c0.3-0.4,0.6-0.7,1-0.9s0.8-0.3,1.3-0.3c1,0,1.7,0.3,2.2,1c0.5,0.7,0.8,1.6,0.8,2.8c0,1.2-0.3,2.1-0.8,2.8
				C114.3,154,113.5,154.3,112.6,154.3z M112.4,147.7c-0.7,0-1.3,0.2-1.6,0.6s-0.5,1.1-0.5,1.9v0.2c0,1,0.2,1.7,0.5,2.2
				c0.3,0.4,0.9,0.7,1.6,0.7c0.6,0,1.1-0.3,1.4-0.8c0.3-0.5,0.5-1.2,0.5-2.1c0-0.9-0.2-1.6-0.5-2.1
				C113.5,147.9,113,147.7,112.4,147.7z"/>
			<path id="XMLID_42_" class="st2" d="M120.7,154.3c-1.1,0-2-0.3-2.6-1c-0.6-0.7-0.9-1.6-0.9-2.8c0-1.2,0.3-2.1,0.9-2.8
				s1.4-1.1,2.4-1.1c0.9,0,1.7,0.3,2.2,0.9c0.6,0.6,0.8,1.4,0.8,2.4v0.7h-5.1c0,0.8,0.2,1.5,0.6,1.9c0.4,0.4,1,0.7,1.7,0.7
				c0.4,0,0.8,0,1.1-0.1c0.4-0.1,0.8-0.2,1.2-0.4v1.1c-0.4,0.2-0.8,0.3-1.1,0.4C121.6,154.3,121.2,154.3,120.7,154.3z M120.4,147.6
				c-0.6,0-1,0.2-1.4,0.6c-0.3,0.4-0.5,0.9-0.6,1.6h3.8c0-0.7-0.2-1.2-0.5-1.6C121.4,147.8,120.9,147.6,120.4,147.6z"/>
			<path id="XMLID_39_" class="st2" d="M131.7,150.5c0,1.2-0.3,2.1-0.9,2.8c-0.6,0.7-1.5,1-2.5,1c-0.7,0-1.3-0.2-1.8-0.5
				c-0.5-0.3-0.9-0.8-1.2-1.3c-0.3-0.6-0.4-1.3-0.4-2c0-1.2,0.3-2.1,0.9-2.8c0.6-0.7,1.4-1,2.5-1c1,0,1.9,0.3,2.5,1
				C131.4,148.4,131.7,149.3,131.7,150.5z M126.1,150.5c0,0.9,0.2,1.6,0.5,2.1s0.9,0.7,1.6,0.7c0.7,0,1.2-0.2,1.6-0.7
				s0.6-1.2,0.6-2.1s-0.2-1.6-0.6-2.1s-0.9-0.7-1.6-0.7C126.8,147.7,126.1,148.6,126.1,150.5z"/>
			<path id="XMLID_36_" class="st2" d="M137.1,154.3c-1,0-1.8-0.4-2.3-1.1h-0.1l0,0.3c0,0.3,0.1,0.7,0.1,0.9v3h-1.2v-10.7h1l0.2,1
				h0.1c0.3-0.4,0.6-0.7,1-0.9c0.4-0.2,0.8-0.3,1.3-0.3c1,0,1.7,0.3,2.2,1c0.5,0.7,0.8,1.6,0.8,2.8c0,1.2-0.3,2.1-0.8,2.8
				C138.8,154,138.1,154.3,137.1,154.3z M136.9,147.7c-0.7,0-1.3,0.2-1.6,0.6c-0.3,0.4-0.5,1.1-0.5,1.9v0.2c0,1,0.2,1.7,0.5,2.2
				s0.9,0.7,1.6,0.7c0.6,0,1.1-0.3,1.4-0.8s0.5-1.2,0.5-2.1c0-0.9-0.2-1.6-0.5-2.1C138,147.9,137.6,147.7,136.9,147.7z"/>
			<path id="XMLID_34_" class="st2" d="M143.3,154.2h-1.2v-10.5h1.2V154.2z"/>
			<path id="XMLID_31_" class="st2" d="M148.8,154.3c-1.1,0-2-0.3-2.6-1c-0.6-0.7-0.9-1.6-0.9-2.8c0-1.2,0.3-2.1,0.9-2.8
				s1.4-1.1,2.4-1.1c0.9,0,1.7,0.3,2.2,0.9c0.6,0.6,0.8,1.4,0.8,2.4v0.7h-5.1c0,0.8,0.2,1.5,0.6,1.9c0.4,0.4,1,0.7,1.7,0.7
				c0.4,0,0.8,0,1.1-0.1c0.4-0.1,0.8-0.2,1.2-0.4v1.1c-0.4,0.2-0.8,0.3-1.1,0.4C149.7,154.3,149.3,154.3,148.8,154.3z M148.5,147.6
				c-0.6,0-1,0.2-1.4,0.6c-0.3,0.4-0.5,0.9-0.6,1.6h3.8c0-0.7-0.2-1.2-0.5-1.6C149.5,147.8,149,147.6,148.5,147.6z"/>
		</g>
	</g>
	<g id="XMLID_23_">
		<circle id="XMLID_27_" class="st3" cx="29.5" cy="97.8" r="4"/>
		<path id="XMLID_26_" class="st3" d="M25.4,97.8h8.1v10.1C33.5,107.9,25.4,103,25.4,97.8z"/>
		<circle id="XMLID_25_" class="st3" cx="37.5" cy="97.7" r="4"/>
		<path id="XMLID_24_" class="st3" d="M41.5,97.7h-8.1v10.1C33.5,107.7,41.5,102.8,41.5,97.7z"/>
	</g>
	<g id="XMLID_16_">
		<path id="XMLID_22_" class="st4" d="M117.9,61H73.4c-7.7,0-14-6.3-14-14V25.6c0-7.7,6.3-14,14-14h44.5c7.7,0,14,6.3,14,14V47
			C131.9,54.7,125.6,61,117.9,61z"/>
		<circle id="XMLID_21_" class="st5" cx="81.8" cy="45.1" r="16.5"/>
		<circle id="XMLID_20_" class="st6" cx="102.6" cy="37.3" r="10.4"/>
		<circle id="XMLID_19_" class="st7" cx="118.5" cy="37.2" r="11.6"/>
		<path id="XMLID_18_" class="st8" d="M119.9,75H71.6c-7.7,0-14-6.3-14-14V43.1c0-7.7,6.3-4.5,14-4.5h48.2c7.7,0,14-3,14,4.7V61
			C133.9,68.7,127.6,75,119.9,75z"/>
		<path id="XMLID_17_" class="st9" d="M135.6,44.8H54.4c-2,0-3.6-1.6-3.6-3.6l0,0c0-2,1.6-3.6,3.6-3.6h81.2c2,0,3.6,1.6,3.6,3.6l0,0
			C139.2,43.2,137.6,44.8,135.6,44.8z"/>
	</g>
</g>
</svg>