<!-- Generator: Adobe Illustrator 19.0.0, SVG Export Plug-In  -->
<svg version="1.1"
	 xmlns="http://www.w3.org/2000/svg" xmlns:xlink="http://www.w3.org/1999/xlink" xmlns:a="http://ns.adobe.com/AdobeSVGViewerExtensions/3.0/"
	 x="0px" y="0px" width="18.9px" height="18.9px" viewBox="0 0 18.9 18.9" style="enable-background:new 0 0 18.9 18.9;"
	 xml:space="preserve">
<style type="text/css">
	.st0{fill:none;stroke:#FFFFFF;stroke-miterlimit:10;}
	.st1{fill:#FFFFFF;}
</style>
<defs>
</defs>
<circle id="XMLID_18_" class="st0" cx="9.4" cy="9.4" r="8.9"/>
<g id="XMLID_15_">
	<path id="XMLID_16_" class="st1" d="M12.3,14.3H5.7v-1l2.6-2.6C9.1,9.9,9.6,9.3,9.9,9c0.3-0.3,0.4-0.7,0.6-1c0.1-0.3,0.2-0.7,0.2-1
		c0-0.5-0.2-0.9-0.5-1.2C9.9,5.4,9.4,5.3,8.9,5.3c-0.4,0-0.8,0.1-1.2,0.2C7.3,5.6,6.9,5.9,6.5,6.2L5.8,5.4c0.9-0.8,2-1.2,3.1-1.2
		c0.9,0,1.7,0.2,2.2,0.7c0.5,0.5,0.8,1.1,0.8,1.9c0,0.4-0.1,0.9-0.2,1.3c-0.2,0.4-0.4,0.8-0.7,1.2c-0.3,0.4-0.9,1-1.6,1.7l-2.1,2.1
		v0.1h5.1V14.3z"/>
</g>
</svg>