<?xml version="1.0" encoding="utf-8"?>
<!-- Generator: Adobe Illustrator 19.0.0, SVG Export Plug-In . SVG Version: 6.00 Build 0)  -->
<svg version="1.1" id="Layer_1" xmlns="http://www.w3.org/2000/svg" xmlns:xlink="http://www.w3.org/1999/xlink" x="0px" y="0px"
	 viewBox="21.5 168.1 191.1 423.9" style="enable-background:new 21.5 168.1 191.1 423.9;" xml:space="preserve">
<style type="text/css">
	.st0{fill:#FFFFFF;}
	.st1{fill:none;stroke:#FFFFFF;stroke-miterlimit:10;}
	.st2{fill:#DFE5E2;}
	.st3{fill:#7C7F7F;}
	.st4{fill:#B7B7B7;}
	.st5{fill:#A00D30;}
	.st6{fill:#B3B7B7;}
	.st7{fill:#750626;}
	.st8{fill:#DAE0E0;}
	.st9{fill:#CB1D23;}
	.st10{fill:#A0121D;}
	.st11{fill:#EF186B;}
	.st12{fill:#FFB48F;}
	.st13{fill:#ED9D7A;}
	.st14{fill:#FF0013;}
	.st15{fill:#B93003;}
	.st16{fill:none;stroke:#000000;stroke-width:0.5;stroke-linecap:round;stroke-linejoin:round;stroke-miterlimit:10;}
</style>
<g>
	<polygon id="XMLID_4184_" class="st0" points="21.5,593 61.4,473.3 84.2,473.3 84.2,593 	"/>
	<polygon id="XMLID_3987_" class="st0" points="145,593.2 105.1,474.4 82.3,474.4 82.3,593.2 	"/>
	<path id="XMLID_4185_" class="st1" d="M99.3,377.5c0,0,18.8,63.9,92.4,63.9"/>
	<rect id="XMLID_3985_" x="65.6" y="322.9" class="st0" width="39" height="270.1"/>
	<rect id="XMLID_3984_" x="85.1" y="322.9" class="st2" width="19.5" height="270.3"/>
	<circle id="XMLID_4596_" class="st3" cx="84" cy="500.3" r="43.2"/>
	<rect id="XMLID_3982_" x="36" y="492.3" class="st4" width="96.2" height="13.8"/>
	<path id="XMLID_3981_" class="st5" d="M133.4,495.1H36.8c-1.9,0-3.4-1.5-3.4-3.4l0,0c0-1.9,1.5-3.4,3.4-3.4h96.6
		c1.9,0,3.4,1.5,3.4,3.4l0,0C136.8,493.5,135.2,495.1,133.4,495.1z"/>
	<path id="XMLID_3980_" class="st5" d="M133.4,510.5H36.8c-1.9,0-3.4-1.5-3.4-3.4l0,0c0-1.9,1.5-3.4,3.4-3.4h96.6
		c1.9,0,3.4,1.5,3.4,3.4l0,0C136.8,509,135.2,510.5,133.4,510.5z"/>
	<path id="XMLID_3979_" class="st0" d="M85.9,297.6L85.9,297.6c-1.9,0-3.5-1.6-3.5-3.5V196c0-1.9,1.6-3.5,3.5-3.5l0,0
		c1.9,0,3.5,1.6,3.5,3.5v98.1C89.4,296.1,87.8,297.6,85.9,297.6z"/>
	<g id="XMLID_5743_">
		<circle id="XMLID_5744_" class="st6" cx="51.2" cy="519.3" r="3.2"/>
		<circle id="XMLID_5745_" class="st6" cx="62.3" cy="519.3" r="3.2"/>
		<circle id="XMLID_5746_" class="st6" cx="73.4" cy="519.3" r="3.2"/>
		<circle id="XMLID_5747_" class="st6" cx="84.5" cy="519.3" r="3.2"/>
		<circle id="XMLID_5748_" class="st6" cx="95.6" cy="519.3" r="3.2"/>
		<circle id="XMLID_5749_" class="st6" cx="106.7" cy="519.3" r="3.2"/>
		<circle id="XMLID_5750_" class="st6" cx="117.8" cy="519.3" r="3.2"/>
	</g>
	<g id="XMLID_5751_">
		<circle id="XMLID_5752_" class="st6" cx="51.2" cy="482.3" r="3.2"/>
		<circle id="XMLID_5753_" class="st6" cx="62.3" cy="482.3" r="3.2"/>
		<circle id="XMLID_5754_" class="st6" cx="73.4" cy="482.3" r="3.2"/>
		<circle id="XMLID_5755_" class="st6" cx="84.5" cy="482.3" r="3.2"/>
		<circle id="XMLID_5756_" class="st6" cx="95.6" cy="482.3" r="3.2"/>
		<circle id="XMLID_5757_" class="st6" cx="106.7" cy="482.3" r="3.2"/>
		<circle id="XMLID_5758_" class="st6" cx="117.8" cy="482.3" r="3.2"/>
	</g>
	<rect id="XMLID_3949_" x="75.8" y="322.9" class="st6" width="19.1" height="137"/>
	<rect id="XMLID_2562_" x="75.8" y="362.2" class="st2" width="19.6" height="6.1"/>
	<rect id="XMLID_2561_" x="75.8" y="378" class="st2" width="19.6" height="6.1"/>
	<rect id="XMLID_2560_" x="75.8" y="393.7" class="st2" width="19.6" height="6.1"/>
	<rect id="XMLID_2559_" x="75.8" y="409.5" class="st2" width="19.6" height="6.1"/>
	<rect id="XMLID_2558_" x="75.8" y="425.2" class="st2" width="19.6" height="6.1"/>
	<rect id="XMLID_2557_" x="75.2" y="441" class="st2" width="20.2" height="6.1"/>
	<path id="XMLID_5767_" class="st7" d="M125.3,318.2c0,3.9-0.6,7.7-1.6,11.3c-4.9,16.7-20.3,28.9-38.6,28.9
		c-18.3,0-33.8-12.2-38.6-28.9c-1-3.6-1.6-7.4-1.6-11.3c0-7.4,2-14.3,5.5-20.3c7-11.9,19.9-20,34.8-20s27.8,8,34.8,20
		C123.3,303.8,125.3,310.8,125.3,318.2z"/>
	<path id="XMLID_5768_" class="st8" d="M123.7,329.5c-0.6,2.1-1.4,4.2-2.3,6.1c-1,2-2.1,3.9-3.4,5.7c-7.3,10.3-19.3,17.1-32.9,17.1
		c-13.6,0-25.6-6.8-32.9-17.1c-1.3-1.8-2.4-3.7-3.4-5.7c-0.9-2-1.7-4-2.3-6.1H123.7z"/>
	<path id="XMLID_5769_" class="st7" d="M121.4,335.6c-1,2-2.1,3.9-3.4,5.7H52.2c-1.3-1.8-2.4-3.7-3.4-5.7H121.4z"/>
	<path id="XMLID_5770_" class="st0" d="M91,244.2h-11c-0.7,0-1.3-0.6-1.3-1.3l0,0c0-0.7,0.6-1.3,1.3-1.3h11c0.7,0,1.3,0.6,1.3,1.3
		l0,0C92.3,243.6,91.7,244.2,91,244.2z"/>
	<path id="XMLID_5771_" class="st2" d="M94.2,251.2L94.2,251.2c0,4.6-3.7,8.4-8.3,8.4c-4.6,0-8.3-3.7-8.3-8.3v-0.1
		c0-4.6,3.7-8.3,8.3-8.3C90.5,242.9,94.2,246.6,94.2,251.2z"/>
	<rect id="XMLID_2551_" x="77.6" y="250.2" class="st7" width="16.6" height="2"/>
	<path id="XMLID_5772_" class="st9" d="M138.9,420c0,6.7-5.4,12.1-12,12.2h-0.1c-6.7,0-12.2-5.5-12.2-12.2c0-6.7,5.5-12.2,12.2-12.2
		h0.1C133.6,407.9,138.9,413.3,138.9,420z"/>
	<path id="XMLID_5773_" class="st10" d="M126.9,407.8v24.4h-0.1c-6.7,0-12.2-5.5-12.2-12.2c0-6.7,5.5-12.2,12.2-12.2H126.9z"/>
	<rect id="XMLID_2548_" x="121.1" y="432.1" class="st2" width="1.1" height="10.3"/>
	<rect id="XMLID_2547_" x="123.7" y="432.1" class="st2" width="1.1" height="10.3"/>
	<rect id="XMLID_2546_" x="126.2" y="432.1" class="st2" width="1.1" height="10.3"/>
	<rect id="XMLID_2545_" x="128.8" y="432.1" class="st2" width="1.1" height="10.3"/>
	<rect id="XMLID_2544_" x="131.3" y="432.1" class="st2" width="1.1" height="10.3"/>
	<rect id="XMLID_2543_" x="119.7" y="430" class="st9" width="14.3" height="2.1"/>
	<path id="XMLID_5774_" class="st9" d="M169.8,435.8c0,6.7-5.4,12.1-12,12.2h-0.1c-6.7,0-12.2-5.5-12.2-12.2
		c0-6.7,5.5-12.2,12.2-12.2h0.1C164.5,423.7,169.8,429.2,169.8,435.8z"/>
	<path id="XMLID_5775_" class="st10" d="M157.8,423.7V448h-0.1c-6.7,0-12.2-5.5-12.2-12.2c0-6.7,5.5-12.2,12.2-12.2H157.8z"/>
	<rect id="XMLID_2540_" x="152.1" y="448" class="st2" width="1.1" height="10.3"/>
	<rect id="XMLID_2539_" x="154.6" y="448" class="st2" width="1.1" height="10.3"/>
	<rect id="XMLID_2538_" x="157.2" y="448" class="st2" width="1.1" height="10.3"/>
	<rect id="XMLID_3_" x="159.7" y="448" class="st2" width="1.1" height="10.3"/>
	<rect id="XMLID_5_" x="162.2" y="448" class="st2" width="1.1" height="10.3"/>
	<rect id="XMLID_2537_" x="150.6" y="445.9" class="st9" width="14.3" height="2.1"/>
	<path id="XMLID_5776_" class="st11" d="M125.3,318.2c0,3.9-0.6,7.7-1.6,11.3H46.5c-1-3.6-1.6-7.4-1.6-11.3c0-7.4,2-14.3,5.5-20.3
		h69.5C123.3,303.8,125.3,310.8,125.3,318.2z"/>
	<path id="XMLID_5777_" class="st7" d="M94.2,251.2H77.6c0-4.6,3.7-8.3,8.3-8.3C90.5,242.9,94.2,246.6,94.2,251.2z"/>
	<path id="XMLID_2534_" class="st10" d="M122.8,335.6H48.9c-0.5,0-1-0.4-1-1l0,0c0-0.5,0.4-1,1-1h73.9c0.5,0,1,0.4,1,1l0,0
		C123.7,335.2,123.3,335.6,122.8,335.6z"/>
	<g>
		<g id="XMLID_5759_">
			<path id="XMLID_5760_" d="M57.7,484.9l0,1.1v43.6l49.1-0.7v-42.6v0.1l0.1-1.3c0-8.6-11-15.6-24.6-15.6S57.7,476.3,57.7,484.9"/>
			<path id="XMLID_3961_" class="st12" d="M104.9,509c0-2.5-2-4.5-4.5-4.5H100c-2.5,0-4.5,2-4.5,4.5v0.4c0,2.5,2,4.5,4.5,4.5h0.4
				c2.5,0,4.5-2,4.5-4.5V509z"/>
			<path id="XMLID_3960_" class="st12" d="M64.6,504.6h-0.4c-2.5,0-4.5,2-4.5,4.5v0.4c0,2.5,2,4.5,4.5,4.5h0.4"/>
			<polyline id="XMLID_5761_" class="st13" points="74.9,525.7 74.9,539.9 89.6,539.9 89.6,525.7 			"/>
			<path id="XMLID_5762_" class="st12" d="M99.9,500.1V514c-1.6,13-18.4,14.6-18.4,14.6s-9.1-0.6-14.3-6.9c0,0-3.5-3.2-3.2-10.6
				v-10.6h7.4v-12.6l6.1,12.3L99.9,500.1z"/>
			<path id="XMLID_3957_" d="M75.9,508.6c0,1-0.8,1.9-1.9,1.9h-0.2c-1,0-1.9-0.8-1.9-1.9v-2.2c0-1,0.8-1.9,1.9-1.9H74
				c1,0,1.9,0.8,1.9,1.9V508.6z"/>
			<path id="XMLID_3956_" d="M93.6,508.6c0,1-0.8,1.9-1.9,1.9h-0.2c-1,0-1.9-0.8-1.9-1.9v-2.2c0-1,0.8-1.9,1.9-1.9h0.2
				c1,0,1.9,0.8,1.9,1.9V508.6z"/>
			<path id="XMLID_5763_" class="st14" d="M90.6,536.8h-7.4H81h-7.2c-13.7,2.9-15.2,15-15.2,15H81h2.2h22.6
				C105.8,551.8,104.3,539.8,90.6,536.8z"/>
			<polygon id="XMLID_5764_" class="st15" points="83.1,506.3 81.1,512.2 85.2,512.2 			"/>
			<path id="XMLID_5765_" class="st16" d="M92.9,505.7c0,0,0.7,1.5,2.3,0"/>
			<path id="XMLID_5766_" class="st16" d="M70.5,505.7c0,0,0.7,1.5,2.3,0"/>
		</g>
		<rect id="XMLID_2533_" x="58.7" y="551.8" class="st14" width="47.1" height="41.8"/>
	</g>
</g>
</svg>
