<?xml version="1.0" encoding="utf-8"?>
<!-- Generator: Adobe Illustrator 19.0.0, SVG Export Plug-In . SVG Version: 6.00 Build 0)  -->
<svg version="1.1" id="Layer_1" xmlns="http://www.w3.org/2000/svg" xmlns:xlink="http://www.w3.org/1999/xlink" x="0px" y="0px"
	 viewBox="0 0 600 368.1" style="enable-background:new 0 0 600 368.1;" xml:space="preserve">
<style type="text/css">
	.st0{fill:#F59598;}
	.st1{fill:#A01C33;}
	.st2{fill:#453733;}
	.st3{fill:#404040;}
	.st4{fill:#D3AC5B;}
	.st5{fill:#E5E5DF;}
	.st6{fill:#AAA99B;}
	.st7{fill:#9B9B92;}
	.st8{fill:#E4ECF0;}
	.st9{fill:#DBE0DD;}
	.st10{fill:#943038;}
	.st11{fill:#B5595D;}
	.st12{fill:#E1D6CF;}
	.st13{fill:#567836;}
	.st14{fill:#EFF4CB;}
	.st15{fill:#EEEE94;}
	.st16{fill:#5D130D;}
	.st17{fill:#EFF4CF;}
	.st18{fill:#134453;}
	.st19{fill:#597836;}
	.st20{fill:#185056;}
	.st21{fill:#0C4C51;}
	.st22{fill:#5E1C0D;}
	.st23{fill:#A12922;}
	.st24{fill:#2B4E4A;}
	.st25{fill:#601A0D;}
	.st26{fill:#F6F4CB;}
	.st27{fill:#175552;}
	.st28{fill:#DD3826;}
	.st29{fill:#194B48;}
	.st30{fill:#DF3626;}
	.st31{fill:#EE3325;}
	.st32{fill:#EF3B24;}
	.st33{fill:#FFFFFF;}
	.st34{fill:#EDF2CA;}
	.st35{fill:#E8EDC8;}
	.st36{fill:#607F38;}
	.st37{fill:#4A642E;}
	.st38{fill:#63893C;}
	.st39{fill:#32655C;}
	.st40{fill:#547937;}
	.st41{fill:#587635;}
	.st42{fill:#104F44;}
	.st43{fill:#EF382E;}
	.st44{fill:#D53F27;}
	.st45{fill:#F9F8CF;}
	.st46{fill:#FBF0CC;}
	.st47{fill:none;stroke:#104F44;stroke-width:0.2;stroke-linecap:round;stroke-miterlimit:10;}
	.st48{fill:#D2DFAA;}
	.st49{fill:#F3F5CF;}
	.st50{fill:#094C59;}
	.st51{fill:#F6EECC;}
	.st52{fill:#58150A;}
	.st53{fill:#F9F8D1;}
	.st54{fill:#EE3324;}
	.st55{fill:#5E190F;}
	.st56{fill:none;stroke:#547937;stroke-miterlimit:10;}
	.st57{fill:#CC2127;}
	.st58{fill:none;stroke:#FFFFFF;stroke-linecap:round;stroke-miterlimit:10;}
	.st59{fill:none;stroke:#E38686;stroke-miterlimit:10;}
	.st60{fill:#C36262;}
</style>
<rect id="XMLID_8099_" class="st0" width="600" height="368.1"/>
<g id="XMLID_378_">
	<polygon id="XMLID_379_" class="st1" points="157.5,315.7 113.1,315.7 124.6,331.3 157.5,331.3 	"/>
	<polygon id="XMLID_8096_" class="st1" points="158.2,346.9 113.7,346.9 125.3,331.3 158.2,331.3 	"/>
	<polygon id="XMLID_380_" class="st2" points="141.4,331.3 158.2,346.9 158.2,331.3 	"/>
	<polygon id="XMLID_8094_" class="st1" points="452.4,315.7 496.8,315.7 485.3,331.3 452.4,331.3 	"/>
	<polygon id="XMLID_8093_" class="st1" points="451.8,346.9 496.2,346.9 484.6,331.3 451.8,331.3 	"/>
	<polygon id="XMLID_8092_" class="st2" points="468.5,331.3 451.8,346.9 451.8,331.3 	"/>
	<rect id="XMLID_12427_" x="141.2" y="285.1" class="st1" width="327.2" height="46.1"/>
</g>
<g id="XMLID_1998_">
	<circle id="XMLID_1999_" class="st3" cx="173.7" cy="86.3" r="19.8"/>
	<rect id="XMLID_8084_" x="153.7" y="86.6" class="st3" width="39.7" height="76"/>
	<rect id="XMLID_8083_" x="167.3" y="37.5" class="st3" width="12.6" height="77.9"/>
	<path id="XMLID_8082_" class="st3" d="M181.2,40.9H166c-0.7,0-1.3-0.6-1.3-1.3v-2.4c0-0.7,0.6-1.3,1.3-1.3h15.2
		c0.7,0,1.3,0.6,1.3,1.3v2.4C182.5,40.3,181.9,40.9,181.2,40.9z"/>
	<path id="XMLID_8081_" class="st4" d="M178.8,35.9h-9.3c-1.5,0-2.7-1.2-2.7-2.7v-5c0-1.5,1.2-2.7,2.7-2.7h9.3
		c1.5,0,2.7,1.2,2.7,2.7v5C181.5,34.7,180.3,35.9,178.8,35.9z"/>
	<rect id="XMLID_8080_" x="159.8" y="90" class="st5" width="33.6" height="52.8"/>
	<rect id="XMLID_8079_" x="163.3" y="94.6" class="st6" width="26.6" height="41.7"/>
	<path id="XMLID_2000_" class="st3" d="M187.9,166.9h-28.6c-3.1,0-5.6-2.5-5.6-5.6l0,0c0-3.1,2.5-5.6,5.6-5.6h28.6
		c3.1,0,5.6,2.5,5.6,5.6l0,0C193.5,164.3,190.9,166.9,187.9,166.9z"/>
	<rect id="XMLID_8077_" x="174.1" y="35.9" class="st7" width="5.8" height="32.5"/>
</g>
<g id="XMLID_11894_">
	<g id="XMLID_11895_">
		<path id="XMLID_11896_" class="st8" d="M213.1,166.9c2,0-10.7,0-10.7,0V92.7h9.9c0,0,19.1,22.1-5.2,37.1c-4.1,3-3.6,6.3-4,17.1
			C203.4,163.4,204.2,166.9,213.1,166.9z"/>
		<path id="XMLID_7819_" class="st8" d="M191.7,166.9c-1.8,0,10.7,0,10.7,0V92.7h-9.9c0,0-18.5,21.4,5.2,37.1
			c4.7,3.7,3.7,2.6,3.8,16.7C201.4,162,201.4,166.9,191.7,166.9z"/>
		<path id="XMLID_7818_" class="st8" d="M215.1,166.9H189c-0.4,0-0.7-0.3-0.7-0.7l0,0c0-0.4,0.3-0.7,0.7-0.7h26.1
			c0.4,0,0.7,0.3,0.7,0.7l0,0C215.8,166.5,215.5,166.9,215.1,166.9z"/>
	</g>
	<g id="XMLID_11897_">
		<path id="XMLID_11898_" class="st9" d="M210.9,95.2c0,0,12,11,3.7,25c-6,10.1-11,6.6-8.3,1.4c2.8-5.1,3.9-10,1.9-26.4
			C209.9,95.1,210.9,95.2,210.9,95.2z"/>
		<path id="XMLID_11899_" class="st9" d="M192.3,94.6c-1.9,2.7-2.6,5.1-2.9,6.2s4.3,0.8,4.3,0.8l1.8-6.4L192.3,94.6z"/>
		<path id="XMLID_11900_" class="st9" d="M189,101.6c0,0,1.7,0.7,4,0.6c0,1.4-0.6,2.7-0.6,2.7l-4.1-0.9
			C188.3,104,188.7,102.5,189,101.6z"/>
	</g>
</g>
<g id="XMLID_11901_">
	<rect id="XMLID_7811_" x="213.4" y="64.1" class="st10" width="116.2" height="21.1"/>
	<rect id="XMLID_7810_" x="221.3" y="85.2" class="st11" width="100.3" height="81"/>
	<rect id="XMLID_7809_" x="261.9" y="64.1" class="st12" width="19.2" height="102.1"/>
	<path id="XMLID_7808_" class="st12" d="M255.4,58.7h-9.6c-2.9,0-5.3-2.4-5.3-5.3V35.9c0-2.9,2.4-5.3,5.3-5.3h9.6
		c2.9,0,5.3,2.4,5.3,5.3v17.6C260.6,56.3,258.3,58.7,255.4,58.7z"/>
	<path id="XMLID_11902_" class="st12" d="M250.6,64.1c0,0-10.1-3.4-10.1-11.9h20.1c0,0-0.7,9,6.1,11.9H250.6z"/>
	<path id="XMLID_7806_" class="st12" d="M285.6,58.7h9.6c2.9,0,5.3-2.4,5.3-5.3V35.9c0-2.9-2.4-5.3-5.3-5.3h-9.6
		c-2.9,0-5.3,2.4-5.3,5.3v17.6C280.4,56.3,282.7,58.7,285.6,58.7z"/>
	<path id="XMLID_7805_" class="st12" d="M290.4,64.1c0,0,10.1-3.4,10.1-11.9h-20.1c0,0,0.7,9-6.1,11.9H290.4z"/>
</g>
<g id="XMLID_11903_">
	<g id="XMLID_11904_">
		<path id="XMLID_11905_" class="st8" d="M143.6,166.9c2,0-10.7,0-10.7,0V92.7h9.9c0,0,19.1,22.1-5.2,37.1c-4.1,3-3.6,6.3-4,17.1
			C133.9,163.4,134.7,166.9,143.6,166.9z"/>
		<path id="XMLID_7802_" class="st8" d="M122.2,166.9c-1.8,0,10.7,0,10.7,0V92.7H123c0,0-18.5,21.4,5.2,37.1
			c4.7,3.7,3.7,2.6,3.8,16.7C131.9,162,131.9,166.9,122.2,166.9z"/>
		<path id="XMLID_7801_" class="st8" d="M145.6,166.9h-26.1c-0.4,0-0.7-0.3-0.7-0.7l0,0c0-0.4,0.3-0.7,0.7-0.7h26.1
			c0.4,0,0.7,0.3,0.7,0.7l0,0C146.3,166.5,146,166.9,145.6,166.9z"/>
	</g>
	<g id="XMLID_11906_">
		<path id="XMLID_11907_" class="st9" d="M141.4,95.2c0,0,12,11,3.7,25c-6,10.1-11,6.6-8.3,1.4c2.8-5.1,3.9-10,1.9-26.4
			C140.4,95.1,141.4,95.2,141.4,95.2z"/>
		<path id="XMLID_11908_" class="st9" d="M122.8,94.6c-1.9,2.7-2.6,5.1-2.9,6.2c-0.3,1.1,4.3,0.8,4.3,0.8l1.8-6.4L122.8,94.6z"/>
		<path id="XMLID_11909_" class="st9" d="M119.5,101.6c0,0,1.7,0.7,4,0.6c0,1.4-0.6,2.7-0.6,2.7l-4.1-0.9
			C118.8,104,119.2,102.5,119.5,101.6z"/>
	</g>
</g>
<g id="XMLID_11910_">
	<g id="XMLID_11911_">
		<g id="XMLID_11912_">
			<g id="XMLID_11913_">
				<path id="XMLID_11914_" class="st13" d="M319.3,119.8c0,0-3.7-1.3-3.7-5.4c0-4.1,3.4-8.1,3.4-8.1s1.7-1.5,2-2.9
					c0.3-1.4,0,16.4,0,16.4H319.3z"/>
				<path id="XMLID_7549_" class="st13" d="M322.9,119.8c0,0,3.7-1.3,3.7-5.4c0-4.1-3.4-8.1-3.4-8.1s-1.7-1.5-2-2.9s0,16.4,0,16.4
					H322.9z"/>
			</g>
			<path id="XMLID_11915_" class="st14" d="M319.8,119.8c0,0-2.1-3.6,1.2-7c2.3,2.5,2.6,4.3,1.4,7
				C320.9,119.9,319.8,119.8,319.8,119.8z"/>
			<path id="XMLID_11916_" class="st15" d="M320.6,119.8c0,0-0.8-1.3,0.4-2.6c0.9,0.9,1,1.6,0.5,2.6
				C321,119.8,320.6,119.8,320.6,119.8z"/>
		</g>
		<g id="XMLID_11917_">
			<g id="XMLID_11918_">
				<path id="XMLID_11919_" class="st16" d="M314,165.7h5.6l-9-3.3C310.7,164.3,312.1,165.7,314,165.7z"/>
				<polygon id="XMLID_11920_" class="st16" points="310.6,149.1 334.3,157.8 334.3,153.3 310.6,144.6 				"/>
				<path id="XMLID_11921_" class="st16" d="M334.3,123.2c0-1.9-1.5-3.4-3.4-3.4H314c-1.5,0-2.7,1-3.1,2.3l23.4,8.6V123.2z"/>
				<polygon id="XMLID_11922_" class="st16" points="334.3,135.5 310.6,126.9 310.6,131.3 334.3,140 				"/>
				<path id="XMLID_11923_" class="st16" d="M310.6,157.7l21.4,7.8c1.3-0.4,2.2-1.6,2.2-3l-23.6-8.7V157.7z"/>
				<polygon id="XMLID_11924_" class="st16" points="310.6,136 310.6,139.9 334.3,148.6 334.3,144.7 				"/>
				<path id="XMLID_11925_" class="st17" d="M334.3,130.8l-23.4-8.6c-0.1,0.3-0.2,0.7-0.2,1v3.6l23.6,8.7V130.8z"/>
				<polygon id="XMLID_11926_" class="st17" points="334.3,140 310.6,131.3 310.6,136 334.3,144.7 				"/>
				<polygon id="XMLID_11927_" class="st17" points="310.6,144.6 334.3,153.3 334.3,148.6 310.6,139.9 				"/>
				<path id="XMLID_11928_" class="st17" d="M310.6,153.9l23.6,8.7c0-0.1,0-0.1,0-0.2v-4.6l-23.6-8.7V153.9z"/>
				<path id="XMLID_11929_" class="st17" d="M310.6,162.4C310.6,162.4,310.6,162.4,310.6,162.4l9,3.4h11.3c0.4,0,0.7-0.1,1.1-0.2
					l-21.4-7.8V162.4z"/>
			</g>
			<path id="XMLID_11930_" class="st18" d="M310.6,125.6c0,0,4.7,1.7,6.2,0.8c1.5-0.9,1.3,0.9,1.3,2.6s4.8,3.4,4.8,0.2
				c0-2.1,0.8-0.8,0.8,1.2c0,1,0,2.3,0,3.3c0,2.9,5.7,4.2,5.7-0.4s0-5.6,0-5.6s-0.4-0.6,1.1-1.1c1.5-0.5,3.8-0.2,3.8-0.2
				s0-3.2,0-3.8c0-0.6-0.5-2.7-3.2-2.7c-2.6,0-16.1,0-17.3,0s-3.2,0.8-3.2,2.7C310.6,124.5,310.6,125.6,310.6,125.6z"/>
		</g>
	</g>
	<g id="XMLID_11931_">
		<path id="XMLID_7234_" class="st19" d="M308.4,166.2h-18.6c-1.8,0-3.2-1.4-3.2-3.2v-50.2c0-1.8,1.4-3.2,3.2-3.2h18.6
			c1.8,0,3.2,1.4,3.2,3.2V163C311.6,164.8,310.2,166.2,308.4,166.2z"/>
		<path id="XMLID_11932_" class="st17" d="M286.7,116.7c0,0,5,2.1,6.5,1c1.5-1.2,1.3,1.1,1.3,3.3s4.6,3.6,4.6-0.4c0-4,0,1.9,0,5.5
			s7.3,5.8,7.3,0s0-6.9,0-6.9s-0.4-0.8,1.2-1.3c1.5-0.6,4-0.2,4-0.2s0-3.9,0-4.7c0-0.8-0.6-3.4-3.4-3.4s-17,0-18.2,0s-3.4,1-3.4,3.4
			C286.7,115.4,286.7,116.7,286.7,116.7z"/>
		<circle id="XMLID_11933_" class="st20" cx="292.4" cy="128.7" r="2.7"/>
		<circle id="XMLID_11934_" class="st20" cx="291" cy="155.7" r="2.7"/>
		<circle id="XMLID_11935_" class="st20" cx="299" cy="142.2" r="2.9"/>
		<circle id="XMLID_11936_" class="st20" cx="306.5" cy="161.7" r="2.6"/>
		<circle id="XMLID_11937_" class="st20" cx="308.2" cy="133.8" r="2.4"/>
		<g id="XMLID_11938_">
			<g id="XMLID_11939_">
				<path id="XMLID_11940_" class="st21" d="M297,109.6c0,0-4.5-1.6-4.5-6.7s4.3-10,4.3-10s2.1-1.9,2.4-3.6c0.4-1.7,0,20.3,0,20.3
					H297z"/>
				<path id="XMLID_7226_" class="st21" d="M301.4,109.6c0,0,4.5-1.6,4.5-6.7s-4.3-10-4.3-10s-2.1-1.9-2.4-3.6
					c-0.4-1.7,0,20.3,0,20.3H301.4z"/>
			</g>
			<path id="XMLID_11941_" class="st22" d="M297.5,109.6c0,0-2.6-4.4,1.4-8.7c2.9,3,3.3,5.3,1.7,8.7
				C298.9,109.7,297.5,109.6,297.5,109.6z"/>
			<path id="XMLID_11942_" class="st23" d="M298.5,109.6c0,0-1-1.7,0.5-3.3c1.1,1.1,1.2,2,0.7,3.3
				C299,109.7,298.5,109.6,298.5,109.6z"/>
		</g>
	</g>
</g>
<g id="XMLID_11943_">
	<g id="XMLID_11944_">
		<rect id="XMLID_7219_" x="338.1" y="51.4" class="st24" width="0.8" height="29.3"/>
		<rect id="XMLID_7161_" x="337.8" y="51.4" class="st25" width="1.5" height="18.7"/>
	</g>
	<g id="XMLID_11945_">
		<polygon id="XMLID_11946_" class="st26" points="338.8,45.8 339.9,51.3 346.2,51.2 340.9,53.2 343.3,59.9 338.8,54.1 334.2,59.9 
			336.7,53.3 331.4,51.2 337.9,51.6 		"/>
		<polygon id="XMLID_7158_" class="st26" points="342.6,47.1 340.5,52.2 345.7,55.6 340.3,54.3 338.5,61.3 338,53.9 330.9,56.1 
			336.7,52.1 333.5,47.4 338.7,51.3 		"/>
	</g>
	<g id="XMLID_11947_">
		
			<rect id="XMLID_7156_" x="344" y="55.2" transform="matrix(0.6334 0.7738 -0.7738 0.6334 180.3734 -240.9076)" class="st24" width="0.8" height="29.3"/>
		
			<rect id="XMLID_7155_" x="347.8" y="57.2" transform="matrix(0.6334 0.7738 -0.7738 0.6334 179.2751 -245.3271)" class="st25" width="1.5" height="18.7"/>
	</g>
	<g id="XMLID_11948_">
		<polygon id="XMLID_7153_" class="st26" points="360.3,57.3 356.8,61.6 360.8,66.4 356,63.6 352.3,69.7 353.9,62.5 346.5,62.7 
			353.2,60.5 351.4,55 355.3,60.2 		"/>
		<polygon id="XMLID_7152_" class="st26" points="361.8,61 356.5,62.6 357.1,68.9 354.7,63.8 348.2,66.9 353.6,61.8 347.4,57.8 
			354.1,59.7 355.8,54.2 356,60.7 		"/>
	</g>
	<g id="XMLID_11949_">
		<polygon id="XMLID_11950_" class="st27" points="340.1,35.6 340.2,36.3 341.1,36.3 340.4,36.6 340.7,37.6 340.1,36.7 339.4,37.6 
			339.8,36.6 339,36.3 339.9,36.4 		"/>
		<polygon id="XMLID_7149_" class="st27" points="340.6,35.7 340.3,36.5 341.1,37 340.3,36.8 340,37.8 340,36.7 338.9,37.1 
			339.8,36.5 339.3,35.8 340.1,36.3 		"/>
	</g>
	<g id="XMLID_11951_">
		<polygon id="XMLID_11952_" class="st26" points="349,39.3 349.2,40.4 350.4,40.4 349.4,40.7 349.9,42.1 349,40.9 348.1,42.1 
			348.6,40.8 347.6,40.4 348.8,40.4 		"/>
		<polygon id="XMLID_7146_" class="st26" points="349.8,39.5 349.3,40.5 350.4,41.2 349.3,41 349,42.3 348.9,40.9 347.5,41.3 
			348.6,40.5 348,39.6 349,40.4 		"/>
	</g>
	<g id="XMLID_11953_">
		<polygon id="XMLID_11954_" class="st26" points="367.7,67.2 368,68.8 369.8,68.7 368.3,69.3 369,71.2 367.7,69.6 366.3,71.2 
			367.1,69.4 365.5,68.7 367.4,68.8 		"/>
		<polygon id="XMLID_7143_" class="st26" points="368.8,67.5 368.1,69 369.7,70 368.1,69.6 367.6,71.6 367.4,69.5 365.4,70.2 
			367.1,69 366.1,67.6 367.6,68.8 		"/>
	</g>
	<g id="XMLID_11955_">
		<polygon id="XMLID_11956_" class="st26" points="331.4,41.2 331.6,42.3 332.8,42.3 331.8,42.6 332.3,44 331.4,42.8 330.5,44 
			331,42.7 330,42.3 331.2,42.3 		"/>
		<polygon id="XMLID_7140_" class="st26" points="332.2,41.5 331.7,42.5 332.8,43.1 331.7,42.9 331.4,44.2 331.3,42.8 329.9,43.2 
			331,42.4 330.4,41.5 331.4,42.3 		"/>
	</g>
	<g id="XMLID_11957_">
		<polygon id="XMLID_11958_" class="st28" points="357.1,46.1 357.3,47.2 358.6,47.1 357.6,47.5 358,48.9 357.1,47.7 356.2,48.9 
			356.7,47.6 355.7,47.1 357,47.2 		"/>
		<polygon id="XMLID_7137_" class="st28" points="357.9,46.3 357.5,47.3 358.5,48 357.4,47.8 357.1,49.1 357,47.7 355.6,48.1 
			356.7,47.3 356.1,46.4 357.1,47.2 		"/>
	</g>
	<g id="XMLID_11959_">
		<polygon id="XMLID_11960_" class="st29" points="368.3,48.9 368.6,49.9 369.8,49.9 368.8,50.3 369.2,51.6 368.3,50.5 367.4,51.6 
			367.9,50.3 366.9,49.9 368.2,50 		"/>
		<polygon id="XMLID_7134_" class="st29" points="369.1,49.1 368.7,50.1 369.7,50.8 368.6,50.5 368.3,51.9 368.2,50.4 366.8,50.9 
			367.9,50.1 367.3,49.2 368.3,49.9 		"/>
	</g>
	<g id="XMLID_11961_">
		<polygon id="XMLID_11962_" class="st30" points="367.7,57.7 367.9,58.8 369.2,58.8 368.1,59.2 368.6,60.5 367.7,59.4 366.8,60.5 
			367.3,59.2 366.2,58.8 367.5,58.9 		"/>
		<polygon id="XMLID_7131_" class="st30" points="368.5,58 368,59 369.1,59.7 368,59.4 367.6,60.8 367.5,59.3 366.2,59.8 367.3,59 
			366.7,58 367.7,58.8 		"/>
	</g>
	<polygon id="XMLID_11963_" class="st29" points="351.7,44.5 352.2,45.6 353.3,45.7 352.5,46.5 352.7,47.6 351.7,47.1 350.7,47.6 
		350.9,46.5 350.1,45.7 351.2,45.6 	"/>
	<polygon id="XMLID_11964_" class="st31" points="323.5,50.4 323.8,51 324.4,51.1 323.9,51.5 324.1,52.2 323.5,51.9 322.9,52.2 
		323,51.5 322.5,51.1 323.2,51 	"/>
	<polygon id="XMLID_11965_" class="st31" points="327.8,58.5 328.1,59.1 328.8,59.2 328.3,59.7 328.4,60.3 327.8,60 327.3,60.3 
		327.4,59.7 326.9,59.2 327.6,59.1 	"/>
</g>
<g id="XMLID_11966_">
	<path id="XMLID_11967_" class="st32" d="M229,155.9h-6.2c-0.4,0-5.1,0.1-5.4,0.2c1.6,0.4,7.5,1.4,8.6,2.7L229,155.9z"/>
	<polygon id="XMLID_11968_" class="st32" points="256.5,155.9 245.7,166.2 256.3,166.2 267.1,155.9 	"/>
	<polygon id="XMLID_11969_" class="st32" points="237,155.9 226.2,166.2 238.3,166.2 249.1,155.9 	"/>
	<path id="XMLID_11970_" class="st32" d="M273.8,156.1l-10.5,10.1h9.4c2.8,0,5.2-2.3,5.2-5.2C277.8,158.6,276.1,156.7,273.8,156.1z"
		/>
	<path id="XMLID_11971_" class="st32" d="M217.6,133.9c-5,0-11.4,4-14.1,10.9c-1.4,3.6-1.4,7.3-0.5,10.5l19.7-18.8
		C221.6,135,219.9,133.9,217.6,133.9z"/>
	<path id="XMLID_11972_" class="st32" d="M217.6,161c0-2.5,1.8-4.4,4.1-4.9c-0.5-0.1-1-0.2-1.5-0.2c-1.5,0-2.9-0.5-4.2-1.3l-8.1,7.8
		c0,0,0,0,0,0c3.3,2.4,4.8,3.4,10.4,3.7l1.2-1.1C218.4,164,217.6,162.6,217.6,161z"/>
	<path id="XMLID_11973_" class="st32" d="M217.6,161c0,1.6,0.8,3,1.9,3.9l6.4-6.1c-1.1-1.3-2.6-2.3-4.3-2.7
		C219.4,156.6,217.6,158.6,217.6,161z"/>
	<path id="XMLID_11974_" class="st33" d="M220.1,144.5c4.2-0.6,4.7-5,2.6-8L203,155.3c0.9,2.9,2.6,5.3,4.8,7l8.1-7.8
		C212,152,210.6,146.4,220.1,144.5z"/>
	<path id="XMLID_11975_" class="st33" d="M229,155.9l-3,2.9c2.7,3,3,7.4-3.2,7.4h3.5l10.8-10.3H229z"/>
	<path id="XMLID_11976_" class="st33" d="M219.5,164.9l-1.2,1.1c1.3,0.1,2.7,0.1,4.5,0.1C221.5,166.2,220.4,165.7,219.5,164.9z"/>
	<path id="XMLID_11977_" class="st33" d="M222.8,166.2c6.2,0,5.9-4.4,3.2-7.4l-6.4,6.1C220.4,165.7,221.5,166.2,222.8,166.2z"/>
	<polygon id="XMLID_11978_" class="st33" points="249.1,155.9 238.3,166.2 245.7,166.2 256.5,155.9 	"/>
	<path id="XMLID_11979_" class="st33" d="M272.7,155.9h-5.6l-10.8,10.3h7l10.5-10.1C273.4,156,273.1,155.9,272.7,155.9z"/>
</g>
<g id="XMLID_11980_">
	<circle id="XMLID_11981_" class="st34" cx="445.1" cy="71.8" r="28.9"/>
	<circle id="XMLID_11982_" class="st35" cx="443.7" cy="128.1" r="39.7"/>
	<path id="XMLID_12426_" class="st36" d="M469.2,95.6H422c-0.3,0-0.5-0.2-0.5-0.5v-9.7c0-0.3,0.2-0.5,0.5-0.5h47.2
		c0.3,0,0.5,0.2,0.5,0.5v9.7C469.7,95.4,469.5,95.6,469.2,95.6z"/>
	<rect id="XMLID_12425_" x="423.7" y="90.3" class="st37" width="43.3" height="9.1"/>
	<rect id="XMLID_12424_" x="435.7" y="93.7" class="st37" width="15.2" height="33.2"/>
	<rect id="XMLID_12423_" x="435.7" y="126.9" class="st37" width="1.2" height="8.9"/>
	<rect id="XMLID_12422_" x="438.6" y="126.9" class="st37" width="1.2" height="8.2"/>
	<rect id="XMLID_12421_" x="442.1" y="126.9" class="st37" width="1.2" height="8.9"/>
	<rect id="XMLID_12420_" x="445.1" y="126.9" class="st37" width="1.2" height="8.2"/>
	<rect id="XMLID_12419_" x="449.7" y="126.9" class="st37" width="1.2" height="5.9"/>
	<rect id="XMLID_12418_" x="447.4" y="126.9" class="st37" width="1.2" height="5.9"/>
	<rect id="XMLID_12417_" x="452.2" y="93.7" class="st37" width="12.4" height="27.1"/>
	<rect id="XMLID_12416_" x="452.2" y="120.8" class="st37" width="1" height="7.3"/>
	<rect id="XMLID_12415_" x="455.6" y="120.8" class="st37" width="1" height="6.7"/>
	<rect id="XMLID_12414_" x="458.7" y="120.8" class="st37" width="1" height="7.3"/>
	<rect id="XMLID_12413_" x="461.7" y="120.8" class="st37" width="1" height="6.7"/>
	<rect id="XMLID_12412_" x="463.6" y="120.8" class="st37" width="1" height="4.8"/>
	<g id="XMLID_11983_">
		
			<rect id="XMLID_12411_" x="409.1" y="101.4" transform="matrix(0.7183 0.6958 -0.6958 0.7183 193.5629 -253.8476)" class="st38" width="2.2" height="21.4"/>
		
			<rect id="XMLID_12410_" x="398.6" y="115.5" transform="matrix(0.7183 0.6958 -0.6958 0.7183 196.1583 -249.0101)" class="st39" width="14" height="4.5"/>
		
			<rect id="XMLID_12409_" x="392.7" y="115.1" transform="matrix(0.7183 0.6958 -0.6958 0.7183 198.1618 -241.0072)" class="st40" width="7.9" height="18.1"/>
		
			<rect id="XMLID_12408_" x="402.3" y="120.2" transform="matrix(0.7183 0.6958 -0.6958 0.7183 200.519 -245.7731)" class="st40" width="3" height="9.1"/>
	</g>
	
		<rect id="XMLID_12407_" x="480" y="86.2" transform="matrix(-0.7205 -0.6935 0.6935 -0.7205 760.411 500.398)" class="st38" width="2.2" height="21.4"/>
	
		<rect id="XMLID_12406_" x="489.2" y="81.3" transform="matrix(-0.7205 -0.6935 0.6935 -0.7205 786.7526 493.9714)" class="st40" width="7.5" height="14.2"/>
	<rect id="XMLID_12405_" x="426.4" y="30.7" class="st41" width="39.5" height="17.3"/>
	<rect id="XMLID_12404_" x="416.2" y="48" class="st40" width="57.8" height="5.5"/>
	<rect id="XMLID_12403_" x="426.4" y="42.9" class="st42" width="39.5" height="3.9"/>
	<ellipse id="XMLID_11984_" class="st42" cx="452.2" cy="61.2" rx="1.3" ry="3.6"/>
	<ellipse id="XMLID_11985_" class="st42" cx="436.3" cy="61.2" rx="1.3" ry="3.6"/>
	<circle id="XMLID_11986_" class="st43" cx="456.6" cy="73.3" r="4.4"/>
	<circle id="XMLID_11987_" class="st43" cx="433.5" cy="73.3" r="4.4"/>
	<path id="XMLID_11988_" class="st40" d="M443.7,64.8c0,0-11.1,4.5-14.6,4.1c-0.7-0.1-0.4,0.2,0.6,0.4c3.7,0.8,16.4,3.7,16.4,3.7
		S446.8,67.5,443.7,64.8z"/>
	<g id="XMLID_11989_">
		<rect id="XMLID_12402_" x="488.2" y="71.2" class="st44" width="22.6" height="19.1"/>
		<rect id="XMLID_12401_" x="495.2" y="71.2" class="st45" width="3.5" height="19.1"/>
		<ellipse id="XMLID_11990_" class="st46" cx="496.9" cy="71.5" rx="3.2" ry="3.3"/>
		<path id="XMLID_11991_" class="st46" d="M496.9,71.5c0,0,2.3-4.8,3.8-5.4c1.5-0.7,3.5,1,3.9,2.2c0.4,1.2,0,3.6,0,3.6L496.9,71.5z"
			/>
		<path id="XMLID_7015_" class="st46" d="M497.3,70.9c0,0-2.3-4.8-3.8-5.4c-1.5-0.7-3.5,1-3.9,2.2c-0.4,1.2,0,3.6,0,3.6L497.3,70.9z
			"/>
	</g>
	<polygon id="XMLID_7013_" class="st40" points="486.5,78.5 489.3,81.2 485.8,91.6 481.9,90.1 	"/>
	<path id="XMLID_11992_" class="st47" d="M450.3,79c0,0-5.4,10.3-12.4,0"/>
	
		<rect id="XMLID_12400_" x="478" y="91.8" transform="matrix(-0.7205 -0.6935 0.6935 -0.7205 768.7618 499.049)" class="st39" width="14" height="5.6"/>
</g>
<g id="XMLID_11993_">
	<rect id="XMLID_12399_" x="370.7" y="75.4" class="st48" width="3.6" height="40.7"/>
	<path id="XMLID_12398_" class="st49" d="M377.3,118.5h-8.6c-0.3,0-0.5-0.2-0.5-0.5v-6.5c0-0.3,0.2-0.5,0.5-0.5h8.6
		c0.3,0,0.5,0.2,0.5,0.5v6.5C377.8,118.3,377.6,118.5,377.3,118.5z"/>
	<path id="XMLID_11994_" class="st50" d="M395.1,137c0,12.5-10.2,16.8-22.7,16.8s-22.5-4.3-22.5-16.8s10.1-22.6,22.6-22.6
		C385,114.4,395.1,124.5,395.1,137z"/>
	<polygon id="XMLID_7006_" class="st51" points="387.3,159.2 387.3,163.4 405.1,163.4 400.2,159.2 405.1,154.3 387.3,154.3 	"/>
	<polygon id="XMLID_7005_" class="st52" points="387.3,159.2 395.8,159.2 398.6,157.6 398.5,148.3 387.3,144.5 	"/>
	<polygon id="XMLID_11995_" class="st51" points="357.3,159.2 357.3,163.4 339.5,163.4 344.4,159.2 339.5,154.3 357.3,154.3 	"/>
	<polygon id="XMLID_11996_" class="st52" points="357.3,159.2 348.9,159.2 346.1,157.6 346.2,148.9 357.3,144.5 	"/>
	<path id="XMLID_11997_" class="st53" d="M346.2,154.3h52.4c0,0,1.9-11.6-4.7-11.9c-6.5-0.2-42.8,0-42.8,0S345,141.2,346.2,154.3z"
		/>
	<g id="XMLID_11998_">
		<path id="XMLID_11999_" class="st54" d="M391.1,111l-4.6,8.2l-27.8-18.7c0,0-4.1-2.1-6.3,1.2c4.9-7.5,7.5-10.3,9.8-9.3
			C364.5,93.3,391.1,111,391.1,111z"/>
		<path id="XMLID_12000_" class="st55" d="M353,104.6l-0.7-2.9c0,0,2-4.2,8,0c5.6,3.7,6,4,6,4L353,104.6z"/>
	</g>
	<g id="XMLID_12001_">
		<path id="XMLID_6998_" class="st54" d="M352.4,111l4.6,8.2l27.8-18.7c0,0,4.1-2.1,6.3,1.2c-4.9-7.5-7.5-10.3-9.8-9.3
			C379,93.3,352.4,111,352.4,111z"/>
		<path id="XMLID_6997_" class="st55" d="M390.4,104.6l0.7-2.9c0,0-2-4.2-8,0c-5.6,3.7-6,4-6,4L390.4,104.6z"/>
	</g>
</g>
<g id="XMLID_12002_">
	<polygon id="XMLID_12003_" class="st56" points="392.5,57.3 405.3,50.2 405.3,54.1 392.5,61.8 	"/>
	<line id="XMLID_12004_" class="st56" x1="405.3" y1="54.1" x2="404.7" y2="66.5"/>
	<line id="XMLID_12005_" class="st56" x1="392.5" y1="62.2" x2="392.5" y2="73.2"/>
	<g id="XMLID_12006_">
		<path id="XMLID_12007_" class="st57" d="M389.8,80.5l3.6-4.6c0,0,1.9-2.6-1.5-4c-2.4-0.7-3,2.1-3,2.1L389.8,80.5z"/>
		<path id="XMLID_6990_" class="st57" d="M389.8,80.5l-4.8-3.3c0,0-2.6-1.9,0.2-4.3c2.1-1.5,3.5,1.1,3.5,1.1L389.8,80.5z"/>
	</g>
	<g id="XMLID_12008_">
		<path id="XMLID_12009_" class="st57" d="M401.5,73.5l3.6-4.6c0,0,1.9-2.6-1.5-4c-2.4-0.7-3,2.1-3,2.1L401.5,73.5z"/>
		<path id="XMLID_6987_" class="st57" d="M401.5,73.5l-4.8-3.3c0,0-2.6-1.9,0.2-4.3c2.1-1.5,3.5,1.1,3.5,1.1L401.5,73.5z"/>
	</g>
	<path id="XMLID_12010_" class="st58" d="M388.3,70.8c0,0-1.1-3.9-6.2-6"/>
	<path id="XMLID_12011_" class="st58" d="M384.3,73.2c0,0-3.1-0.9-6,2"/>
	<path id="XMLID_12012_" class="st58" d="M385.4,78.2c0,0-3.1,2-3.2,5.2"/>
	<path id="XMLID_6982_" class="st58" d="M405.6,65c0,0,1.4-2.5,5.2-3.2"/>
	<path id="XMLID_6981_" class="st58" d="M406,69.3c0,0,2.4-2.2,6.3-0.8"/>
	<path id="XMLID_6980_" class="st58" d="M403.1,72.3c0,0,3.6,0.7,5,3.6"/>
</g>
<g id="XMLID_12013_">
	<path id="XMLID_12014_" class="st59" d="M577.8,72.9h-16.3v16.5c0,0-3.7,3.7-5.3,5.5c-1.7,1.8-8.7,3.5-8.7,3.5s-3.3,1.3-2.3,5.3
		s6.3,3.3,6.3,3.3l16.3-5c0,0,3.5,0,7,0c5.7,0.1,6.3-5.3,6-7.1c-0.6-3.7-3.3-7.2-3.3-7.2L577.8,72.9z"/>
	<path id="XMLID_12015_" class="st59" d="M549.4,97.8c0,0,6.8,0.8,5.2,8.2c-2.1,1-4.2,1.5-7.1,0.4s-2.5-4.8-2.5-4.8
		S545.8,98.3,549.4,97.8z"/>
	<path id="XMLID_12016_" class="st59" d="M549.4,97.8c0,0,6.8,0.8,5.2,8.2"/>
	<path id="XMLID_12017_" class="st59" d="M577.5,87.7c0,0-9.8,0.6-8.9,14.3c2.8,0,5.5,0,5.5,0S586.6,101.9,577.5,87.7z"/>
	<path id="XMLID_12018_" class="st59" d="M577.5,87.7c0,0-10,1.7-8.9,14.3"/>
</g>
<g id="XMLID_12019_">
	<path id="XMLID_6972_" class="st59" d="M27.5,107.4h16.3v16.5c0,0,3.7,3.7,5.3,5.5c1.7,1.8,8.7,3.5,8.7,3.5s3.3,1.3,2.3,5.3
		s-6.3,3.3-6.3,3.3l-16.3-5c0,0-3.5,0-7,0c-5.7,0.1-6.3-5.3-6-7.1c0.6-3.7,3.3-7.2,3.3-7.2L27.5,107.4z"/>
	<path id="XMLID_6971_" class="st59" d="M55.9,132.3c0,0-6.8,0.8-5.2,8.2c2.1,1,4.2,1.5,7.1,0.4c2.9-1.1,2.5-4.8,2.5-4.8
		S59.5,132.8,55.9,132.3z"/>
	<path id="XMLID_6970_" class="st59" d="M55.9,132.3c0,0-6.8,0.8-5.2,8.2"/>
	<path id="XMLID_6969_" class="st59" d="M27.8,122.2c0,0,9.8,0.6,8.9,14.3c-2.8,0-5.5,0-5.5,0S18.7,136.5,27.8,122.2z"/>
	<path id="XMLID_6968_" class="st59" d="M27.8,122.2c0,0,10,1.7,8.9,14.3"/>
</g>
<path id="XMLID_12020_" class="st59" d="M513.4,149.6h-5.3v-31.7c0,0,0.3-4.8,5.3-8s13.1,0,13.1,0s7,3.1,4.6,12.4
	c-0.8,2.3-4.6,4.6-7.4-0.4c-0.4-9.8-7.6-6.8-7.7-4s0.3,31.7,0.3,31.7H513.4z"/>
<g id="XMLID_12021_">
	<circle id="XMLID_12022_" class="st59" cx="77.6" cy="184.3" r="13.3"/>
	<rect id="XMLID_6964_" x="73" y="167.7" class="st59" width="9.8" height="4.4"/>
	<path id="XMLID_12023_" class="st59" d="M77,166.9c0,0,1.3-4.6,3.1-5.5s4.1-1.5,7.8-1.1s-0.1,4.9-2.3,5.4s-3.5-0.4-6.3,1.3
		S77,166.9,77,166.9z"/>
	<path id="XMLID_6962_" class="st59" d="M77.4,166.9c0,0-1.3-4.6-3.1-5.5s-4.1-1.5-7.8-1.1c-3.6,0.4,0.1,4.9,2.3,5.4
		s3.5-0.4,6.3,1.3S77.4,166.9,77.4,166.9z"/>
</g>
<g id="XMLID_12024_">
	<path id="XMLID_12025_" class="st59" d="M118.4,28.8c0,0.8-9.8,13.2-9.8,13.2h3.7l0.2,2.2l-9.7,10h9.3l-0.3,2.1l-11.3,10.5h3
		l-1.2,2.2h16.2"/>
	<path id="XMLID_6959_" class="st59" d="M118.4,28.8c0,0.8,9.8,13.2,9.8,13.2h-3.7l-0.2,2.2l9.7,10h-9.3l0.3,2.1l11.3,10.5h-3
		l1.2,2.2h-16.2"/>
</g>
<polygon id="XMLID_12026_" class="st59" points="488,164.1 491.7,171.7 500.2,173 494.1,178.9 495.5,187.4 488,183.4 480.4,187.4 
	481.9,178.9 475.7,173 484.2,171.7 "/>
<g id="XMLID_12027_">
	<path id="XMLID_12028_" class="st59" d="M85.6,120.4c0,0,1.3-4.6,3.1-5.5s4.1-1.5,7.8-1.1s-0.1,4.9-2.3,5.4s-3.5-0.4-6.3,1.3
		S85.6,120.4,85.6,120.4z"/>
	<path id="XMLID_6843_" class="st59" d="M86,120.4c0,0-1.3-4.6-3.1-5.5s-4.1-1.5-7.8-1.1s0.1,4.9,2.3,5.4s3.5-0.4,6.3,1.3
		S86,120.4,86,120.4z"/>
	<rect id="XMLID_6842_" x="70.9" y="121.2" class="st59" width="29.8" height="24.8"/>
</g>
<g id="XMLID_12029_">
	<path id="XMLID_12030_" class="st59" d="M68.6,68.2c0,0,1.3-4.6,3.1-5.5s4.1-1.5,7.8-1.1s-0.1,4.9-2.3,5.4s-3.5-0.4-6.3,1.3
		S68.6,68.2,68.6,68.2z"/>
	<path id="XMLID_6839_" class="st59" d="M69,68.2c0,0-1.3-4.6-3.1-5.5c-1.9-0.9-4.1-1.5-7.7-1.1s0.1,4.9,2.3,5.4s3.5-0.4,6.2,1.3
		C69.3,69.8,69,68.2,69,68.2z"/>
	<path id="XMLID_12031_" class="st59" d="M68.4,68.9c9.5,1.3,9.2,5.8,9.2,5.8v13.7c0,0-0.2,2.8,2.8,4.7c3,1.8,5.3,0.7,5.3,0.7
		s-1.1,6.8-17.5,7.3"/>
	<path id="XMLID_6837_" class="st59" d="M68.6,68.9c-9.5,1.3-9.2,5.8-9.2,5.8v13.7c0,0,0.2,2.8-2.8,4.7c-3,1.8-5.3,0.7-5.3,0.7
		s1.1,6.8,17.5,7.3"/>
</g>
<g id="XMLID_12032_">
	<path id="XMLID_12033_" class="st59" d="M538.3,69.7h-22.6V36.5c0,0,0.7-6.5,5.2-7.3c4.5-0.8,10.5-0.7,10.5-0.7s6.3,2.2,6.3,8
		s0,12.6,0,12.6s3.3-3.7,5.2-5.1s3.8-0.3,3.8-0.3s2.5,2.2-0.7,6.2c-3.2,4-7.8,8.7-7.8,8.7L538.3,69.7z"/>
	<line id="XMLID_12034_" class="st59" x1="538.2" y1="64.6" x2="515.7" y2="64.6"/>
</g>
<g id="XMLID_12035_">
	<rect id="XMLID_6832_" x="535.6" y="154" class="st59" width="18.8" height="23.8"/>
	<path id="XMLID_12036_" class="st59" d="M542.8,154c0,0-2.5-1.7-3.6-3.5c-1.1-1.8-1-4.3,1.8-7.2c2.8-2.9,4.6-4.3,4.6-4.3
		s-0.9,4.3,0,4.3c0.9,0.1,4,1,4,3.8C549.4,149.6,548.6,152.7,542.8,154z"/>
</g>
<g id="XMLID_100_">
	<g id="XMLID_921_">
		<path id="XMLID_1021_" class="st60" d="M129.7,212.6v-17.4l-7.1,17.4h-4l-7.1-17.3v17.3h-4.6v-24.8h6.4l7.5,17.9l7.3-17.9h6.6
			v24.8H129.7z"/>
		<path id="XMLID_1019_" class="st60" d="M150.9,210.8c-0.9,1.6-2.9,2.3-4.8,2.3c-4.2,0-6.5-3-6.5-6.8v-10.9h4.7v9.9
			c0,1.9,1,3.5,3.2,3.5c2.1,0,3.3-1.4,3.3-3.4v-10h4.7v14.1c0,1.3,0.1,2.5,0.2,3.1H151C150.9,212.3,150.9,211.5,150.9,210.8z"/>
		<path id="XMLID_1015_" class="st60" d="M176.9,204c0,5.3-3.9,9.1-9,9.1s-9-3.9-9-9.1c0-5.3,3.9-9.1,9-9.1S176.9,198.7,176.9,204z
			 M161.8,193.3l3.9-5.1h4.6l3.9,5.1h-3.7l-2.5-2.6l-2.5,2.6H161.8z M172.3,204c0-3.3-2.1-4.9-4.4-4.9c-2.3,0-4.4,1.6-4.4,4.9
			c0,3.2,2.1,4.9,4.4,4.9C170.2,208.9,172.3,207.3,172.3,204z"/>
		<path id="XMLID_1013_" class="st60" d="M185.3,212.6h-4.7v-17.2h4.5v2.1c1.1-1.8,3.1-2.6,5-2.6c4.3,0,6.2,3,6.2,6.8v10.9h-4.7v-10
			c0-1.9-0.9-3.4-3.2-3.4c-2,0-3.2,1.6-3.2,3.6V212.6z"/>
		<path id="XMLID_1011_" class="st60" d="M209.7,212.6v-17.2h4.4v2.1c0.9-1.7,3.2-2.6,5-2.6c2.3,0,4.2,1,5.1,2.9
			c1.4-2.1,3.2-2.9,5.5-2.9c3.2,0,6.2,1.9,6.2,6.5v11.2h-4.5v-10.2c0-1.9-0.9-3.3-3-3.3c-2,0-3.2,1.5-3.2,3.4v10.1h-4.6v-10.2
			c0-1.9-0.9-3.3-3-3.3c-2,0-3.2,1.5-3.2,3.4v10.1H209.7z"/>
		<path id="XMLID_1007_" class="st60" d="M244.8,202.7l4.2-0.6c1-0.1,1.3-0.6,1.3-1.2c0-1.2-0.9-2.2-2.9-2.2c-2,0-3.2,1.3-3.3,2.8
			l-4.1-0.9c0.3-2.7,2.8-5.7,7.4-5.7c5.5,0,7.5,3.1,7.5,6.5v8.5c0,0.9,0.1,2.1,0.2,2.7h-4.3c-0.1-0.5-0.2-1.4-0.2-2.1
			c-0.9,1.4-2.5,2.6-5.1,2.6c-3.7,0-5.9-2.5-5.9-5.2C239.7,204.8,241.9,203.1,244.8,202.7z M241.4,188.1h5.4l3.2,5.3h-3.8
			L241.4,188.1z M250.3,205.6v-0.8l-3.9,0.6c-1.2,0.2-2.1,0.8-2.1,2.2c0,1,0.7,2,2.2,2C248.5,209.6,250.3,208.7,250.3,205.6z"/>
		<path id="XMLID_1005_" class="st60" d="M270.5,210.8c-0.9,1.6-2.9,2.3-4.8,2.3c-4.2,0-6.5-3-6.5-6.8v-10.9h4.7v9.9
			c0,1.9,1,3.5,3.2,3.5c2.1,0,3.3-1.4,3.3-3.4v-10h4.7v14.1c0,1.3,0.1,2.5,0.2,3.1h-4.4C270.5,212.3,270.5,211.5,270.5,210.8z"/>
		<path id="XMLID_1003_" class="st60" d="M288.5,212.6v-17.2h4.4v2.1c0.9-1.7,3.2-2.6,5-2.6c2.3,0,4.2,1,5.1,2.9
			c1.4-2.1,3.2-2.9,5.5-2.9c3.2,0,6.2,1.9,6.2,6.5v11.2h-4.5v-10.2c0-1.9-0.9-3.3-3-3.3c-2,0-3.2,1.5-3.2,3.4v10.1h-4.6v-10.2
			c0-1.9-0.9-3.3-3-3.3c-2,0-3.2,1.5-3.2,3.4v10.1H288.5z"/>
		<path id="XMLID_1001_" class="st60" d="M330.5,210.8c-0.9,1.6-2.9,2.3-4.8,2.3c-4.2,0-6.5-3-6.5-6.8v-10.9h4.7v9.9
			c0,1.9,1,3.5,3.2,3.5c2.1,0,3.3-1.4,3.3-3.4v-10h4.7v14.1c0,1.3,0.1,2.5,0.2,3.1h-4.4C330.6,212.3,330.5,211.5,330.5,210.8z"/>
		<path id="XMLID_997_" class="st60" d="M356.6,204c0,5.3-3.9,9.1-9,9.1s-9-3.9-9-9.1c0-5.3,3.9-9.1,9-9.1S356.6,198.7,356.6,204z
			 M341.4,193.3l3.8-5.1h4.6l3.9,5.1H350l-2.5-2.6l-2.5,2.6H341.4z M351.9,204c0-3.3-2.1-4.9-4.4-4.9c-2.3,0-4.4,1.6-4.4,4.9
			c0,3.2,2.1,4.9,4.4,4.9C349.8,208.9,351.9,207.3,351.9,204z"/>
		<path id="XMLID_995_" class="st60" d="M364.9,212.6h-4.7v-17.2h4.5v2.1c1-1.8,3.1-2.6,5-2.6c4.3,0,6.2,3,6.2,6.8v10.9h-4.7v-10
			c0-1.9-0.9-3.4-3.2-3.4c-2,0-3.2,1.6-3.2,3.6V212.6z"/>
		<path id="XMLID_993_" class="st60" d="M398.9,212.6h-4.7l-7-17.2h5.1l4.3,11.6l4.1-11.6h4.9L398.9,212.6z"/>
		<path id="XMLID_989_" class="st60" d="M410.2,204.7c0.1,4.2,2.7,5.9,5.8,5.9c2.2,0,3.5-0.4,4.7-0.9l0.5,2.2c-1.1,0.5-2.9,1-5.6,1
			c-5.2,0-8.3-3.4-8.3-8.5c0-5.1,3-9.1,7.9-9.1c5.5,0,7,4.9,7,8c0,0.6-0.1,1.1-0.1,1.4H410.2z M419.2,202.5c0-2-0.8-5-4.3-5
			c-3.1,0-4.5,2.9-4.7,5H419.2z M413.5,193.6c0.4-1.5,2-2,2-3.3c0-0.7-0.5-1.2-1.2-1.2c-0.7,0-1.3,0.6-1.7,1.2l-1.2-0.7
			c0.6-1.3,1.7-2.3,3.4-2.3c1.7,0,3,1.1,3,2.6c0,2-1.9,2.5-2.7,4.1L413.5,193.6z"/>
		<path id="XMLID_987_" class="st60" d="M437.9,204c0,3.1,2,4.9,4.4,4.9c2.4,0,3.6-1.6,4-2.9l4.1,1.4c-0.8,2.9-3.5,5.8-8.1,5.8
			c-5.1,0-9.1-3.9-9.1-9.1c0-5.3,3.9-9.1,8.9-9.1c4.7,0,7.4,2.9,8.1,5.8l-4.2,1.4c-0.4-1.4-1.5-2.9-3.8-2.9
			C439.9,199.2,437.9,200.9,437.9,204z"/>
		<path id="XMLID_983_" class="st60" d="M457.9,202.7l4.2-0.6c1-0.1,1.3-0.6,1.3-1.2c0-1.2-0.9-2.2-2.9-2.2c-2,0-3.2,1.3-3.3,2.8
			l-4.1-0.9c0.3-2.7,2.8-5.7,7.4-5.7c5.5,0,7.5,3.1,7.5,6.5v8.5c0,0.9,0.1,2.1,0.2,2.7h-4.3c-0.1-0.5-0.2-1.4-0.2-2.1
			c-0.9,1.4-2.5,2.6-5.1,2.6c-3.7,0-5.9-2.5-5.9-5.2C452.7,204.8,455,203.1,457.9,202.7z M463.4,205.6v-0.8l-3.9,0.6
			c-1.2,0.2-2.1,0.8-2.1,2.2c0,1,0.7,2,2.2,2C461.6,209.6,463.4,208.7,463.4,205.6z M462,193.3h-3.7l3.2-5.3h5.3L462,193.3z"/>
		<path id="XMLID_981_" class="st60" d="M475.9,204c0,3.1,2,4.9,4.4,4.9c2.4,0,3.6-1.6,4-2.9l4.1,1.4c-0.8,2.9-3.5,5.8-8.1,5.8
			c-5.1,0-9.1-3.9-9.1-9.1c0-5.3,3.9-9.1,8.9-9.1c4.7,0,7.4,2.9,8.1,5.8l-4.2,1.4c-0.4-1.4-1.5-2.9-3.8-2.9
			C477.9,199.2,475.9,200.9,475.9,204z"/>
		<path id="XMLID_979_" class="st60" d="M496.5,212.6h-4.7v-25.3h4.7v9.6c1.1-1.3,3-1.9,4.7-1.9c4.4,0,6.4,3,6.4,6.8v10.9h-4.7v-10
			c0-1.9-0.9-3.4-3.2-3.4c-2,0-3.1,1.5-3.2,3.4V212.6z"/>
		<path id="XMLID_977_" class="st60" d="M99.6,237.4h3.5v4.1h-3.5v7.2c0,1.5,0.7,2,2,2c0.6,0,1.2-0.1,1.4-0.1v3.9
			c-0.4,0.2-1.3,0.4-2.6,0.4c-3.4,0-5.5-2-5.5-5.3v-8h-3.1v-4.1h0.9c1.8,0,2.7-1.2,2.7-2.7v-2.4h4.2V237.4z"/>
		<path id="XMLID_972_" class="st60" d="M116.3,254.6l-0.2-2.1H116c-0.9,1.3-2.8,2.5-5.2,2.5c-3.4,0-5.2-2.4-5.2-4.9
			c0-4.1,3.6-6.3,10.2-6.3v-0.3c0-1.4-0.4-3.9-3.9-3.9c-1.6,0-3.2,0.5-4.4,1.3l-0.7-2c1.4-0.9,3.4-1.5,5.6-1.5
			c5.2,0,6.4,3.5,6.4,6.9v6.3c0,1.5,0.1,2.9,0.3,4.1H116.3z M110.3,230.7c0.2,1.4,1.1,2.4,2.5,2.4c1.7,0,2.4-1.3,2.5-2.4h1.8
			c0,2.6-1.7,4.3-4.3,4.3c-3.1,0-4.3-2.2-4.3-4.3H110.3z M115.9,246c-3.4-0.1-7.2,0.5-7.2,3.8c0,2,1.3,2.9,2.9,2.9
			c2.2,0,3.6-1.4,4.1-2.8c0.1-0.3,0.2-0.7,0.2-1V246z M114.6,259.2c0,1-0.7,1.8-1.8,1.8c-1,0-1.7-0.8-1.7-1.8c0-1,0.8-1.8,1.8-1.8
			C113.8,257.4,114.6,258.2,114.6,259.2z"/>
		<path id="XMLID_970_" class="st60" d="M128.4,254.6h-4.7v-17.2h4.5v2.1c1.1-1.8,3.1-2.6,5-2.6c4.3,0,6.2,3,6.2,6.8v10.9h-4.7v-10
			c0-1.9-0.9-3.4-3.2-3.4c-2,0-3.2,1.6-3.2,3.6V254.6z"/>
		<path id="XMLID_967_" class="st60" d="M147.2,254.4c0.3,1.9,1.8,3.3,4,3.3c2.9,0,4.6-1.5,4.6-4.8v-1.3c-0.7,1.1-2.3,2.2-4.8,2.2
			c-4.6,0-8-3.5-8-8.4c0-4.6,3.3-8.4,8-8.4c2.7,0,4.3,1.2,4.9,2.3v-2h4.5v15.4c0,4.7-2.6,9-9,9c-4.7,0-7.9-2.9-8.4-6.2L147.2,254.4z
			 M155.8,245.5c0-2.7-1.8-4.3-4.1-4.3c-2.3,0-4.1,1.7-4.1,4.3c0,2.7,1.7,4.4,4.1,4.4C154.2,249.8,155.8,248.1,155.8,245.5z"/>
		<path id="XMLID_964_" class="st60" d="M185.6,261.3v-8.4c-0.8,1.3-2.5,2.1-4.8,2.1c-4.9,0-8.4-3.9-8.4-9.1c0-5,3.3-9,8.3-9
			c3,0,4.6,1.4,5,2.4v-2h4.4v23.9H185.6z M181.4,250.9c2.4,0,4.3-1.8,4.3-4.9c0-3.1-1.9-4.8-4.3-4.8c-2.4,0-4.3,1.8-4.3,4.8
			C177.1,249,179,250.9,181.4,250.9z"/>
		<path id="XMLID_962_" class="st60" d="M206.1,252.8c-0.9,1.6-2.9,2.3-4.8,2.3c-4.2,0-6.5-3-6.5-6.8v-10.9h4.7v9.9
			c0,1.9,1,3.5,3.2,3.5c2.1,0,3.3-1.4,3.3-3.4v-10h4.7v14.1c0,1.3,0.1,2.5,0.2,3.1h-4.4C206.2,254.3,206.1,253.5,206.1,252.8z"/>
		<path id="XMLID_958_" class="st60" d="M219.6,244.7l4.2-0.6c1-0.1,1.3-0.6,1.3-1.2c0-1.2-0.9-2.2-2.9-2.2c-2,0-3.2,1.3-3.3,2.8
			l-4.1-0.9c0.3-2.7,2.8-5.7,7.4-5.7c5.5,0,7.5,3.1,7.5,6.5v8.5c0,0.9,0.1,2.1,0.2,2.7h-4.3c-0.1-0.5-0.2-1.4-0.2-2.1
			c-0.9,1.4-2.5,2.6-5.1,2.6c-3.7,0-5.9-2.5-5.9-5.2C214.5,246.8,216.7,245.1,219.6,244.7z M216.2,230.1h5.4l3.2,5.3H221
			L216.2,230.1z M225.1,247.6v-0.8l-3.9,0.6c-1.2,0.2-2.1,0.8-2.1,2.2c0,1,0.7,2,2.2,2C223.3,251.6,225.1,250.7,225.1,247.6z"/>
		<path id="XMLID_956_" class="st60" d="M248.8,237.4h3.5v4.1h-3.5v7.2c0,1.5,0.7,2,2,2c0.6,0,1.2-0.1,1.4-0.1v3.9
			c-0.4,0.2-1.3,0.4-2.6,0.4c-3.4,0-5.5-2-5.5-5.3v-8H241v-4.1h0.9c1.8,0,2.7-1.2,2.7-2.7v-2.4h4.2V237.4z"/>
		<path id="XMLID_954_" class="st60" d="M266.4,242c-0.5-0.1-1-0.1-1.4-0.1c-2.4,0-4.4,1.2-4.4,4.9v7.9h-4.7v-17.2h4.5v2.6
			c1-2.3,3.4-2.7,4.9-2.7c0.4,0,0.7,0,1.1,0.1V242z"/>
		<path id="XMLID_950_" class="st60" d="M285,249.7c-0.9,3-3.6,5.5-7.8,5.5c-4.7,0-8.9-3.4-8.9-9.2c0-5.5,4.1-9.1,8.5-9.1
			c5.3,0,8.5,3.4,8.5,8.9c0,0.7-0.1,1.4-0.1,1.4h-12.3c0.1,2.3,2,3.9,4.3,3.9c2.2,0,3.4-1.1,3.9-2.6L285,249.7z M270.8,235.3
			l3.9-5.1h4.6l3.9,5.1h-3.7l-2.5-2.6l-2.5,2.6H270.8z M280.7,244c-0.1-1.7-1.2-3.4-3.9-3.4c-2.4,0-3.7,1.8-3.9,3.4H280.7z"/>
		<path id="XMLID_948_" class="st60" d="M293.6,254.6h-4.7v-17.2h4.5v2.1c1-1.8,3.1-2.6,5-2.6c4.3,0,6.2,3,6.2,6.8v10.9H300v-10
			c0-1.9-0.9-3.4-3.2-3.4c-2,0-3.2,1.6-3.2,3.6V254.6z"/>
		<path id="XMLID_946_" class="st60" d="M327.8,244.6l7,10h-5.7l-4.5-6.6l-1.9,2v4.6H318v-25.3h4.7v14.5l6-6.4h6.1L327.8,244.6z"/>
		<path id="XMLID_944_" class="st60" d="M342.2,254.6h-4.7v-25.3h4.7v9.6c1.1-1.3,3-1.9,4.7-1.9c4.4,0,6.4,3,6.4,6.8v10.9h-4.7v-10
			c0-1.9-0.9-3.4-3.2-3.4c-2,0-3.1,1.5-3.2,3.4V254.6z"/>
		<path id="XMLID_939_" class="st60" d="M367.5,254.6l-0.2-2.1h-0.1c-0.9,1.3-2.8,2.5-5.2,2.5c-3.4,0-5.2-2.4-5.2-4.9
			c0-4.1,3.6-6.3,10.2-6.3v-0.3c0-1.4-0.4-3.9-3.9-3.9c-1.6,0-3.2,0.5-4.4,1.3l-0.7-2c1.4-0.9,3.4-1.5,5.6-1.5
			c5.2,0,6.4,3.5,6.4,6.9v6.3c0,1.5,0.1,2.9,0.3,4.1H367.5z M361,231.6c0.2,1.4,1.2,2.4,2.8,2.4c1.8,0,2.7-1.2,2.8-2.4h1.7
			c0,2.6-1.9,4.3-4.5,4.3c-3.1,0-4.5-2.1-4.5-4.3H361z M367,246c-3.4-0.1-7.2,0.5-7.2,3.8c0,2,1.3,2.9,2.9,2.9
			c2.2,0,3.6-1.4,4.1-2.8c0.1-0.3,0.2-0.7,0.2-1V246z M368.3,227.6l-3.9,4.6h-1.9l2.8-4.6H368.3z"/>
		<path id="XMLID_936_" class="st60" d="M374.9,261.3v-23.9h4.5v2.1c0.8-1.3,2.7-2.5,5.3-2.5c5,0,7.9,3.8,7.9,9
			c0,5.2-3.3,9.1-8.1,9.1c-2.4,0-4.1-0.9-5-2.1v8.3H374.9z M383.8,241.2c-2.4,0-4.3,1.8-4.3,4.8c0,3,1.9,4.9,4.3,4.9
			c2.4,0,4.3-1.8,4.3-4.9C388,243,386.1,241.2,383.8,241.2z"/>
		<path id="XMLID_934_" class="st60" d="M403.8,242.2c0-7.9,6-13,12.6-13c6.9,0,10.4,4.2,11.4,8.2l-4.6,1.4c-0.6-2.4-2.5-5-6.8-5
			c-3.7,0-7.6,2.7-7.6,8.3c0,5.3,3.7,8.2,7.7,8.2c4.2,0,6.3-2.8,7-5.1l4.5,1.4c-0.9,3.8-4.5,8.4-11.5,8.4
			C409.6,255.1,403.8,250.1,403.8,242.2z"/>
		<path id="XMLID_932_" class="st60" d="M436,254.6h-4.7v-25.3h4.7v9.6c1.1-1.3,3-1.9,4.7-1.9c4.4,0,6.4,3,6.4,6.8v10.9h-4.7v-10
			c0-1.9-0.9-3.4-3.2-3.4c-2,0-3.1,1.5-3.2,3.4V254.6z"/>
		<path id="XMLID_928_" class="st60" d="M455.9,244.7l4.2-0.6c1-0.1,1.3-0.6,1.3-1.2c0-1.2-0.9-2.2-2.9-2.2c-2,0-3.2,1.3-3.3,2.8
			l-4.1-0.9c0.3-2.7,2.8-5.7,7.4-5.7c5.5,0,7.5,3.1,7.5,6.5v8.5c0,0.9,0.1,2.1,0.2,2.7h-4.3c-0.1-0.5-0.2-1.4-0.2-2.1
			c-0.9,1.4-2.5,2.6-5.1,2.6c-3.7,0-5.9-2.5-5.9-5.2C450.7,246.8,453,245.1,455.9,244.7z M452.4,235.3l3.9-5.1h4.6l3.9,5.1H461
			l-2.5-2.6l-2.5,2.6H452.4z M461.4,247.6v-0.8l-3.9,0.6c-1.2,0.2-2.1,0.8-2.1,2.2c0,1,0.7,2,2.2,2
			C459.6,251.6,461.4,250.7,461.4,247.6z"/>
		<path id="XMLID_926_" class="st60" d="M481.5,252.8c-0.9,1.6-2.9,2.3-4.8,2.3c-4.2,0-6.5-3-6.5-6.8v-10.9h4.7v9.9
			c0,1.9,1,3.5,3.2,3.5c2.1,0,3.3-1.4,3.3-3.4v-10h4.7v14.1c0,1.3,0.1,2.5,0.2,3.1h-4.4C481.6,254.3,481.5,253.5,481.5,252.8z"/>
		<path id="XMLID_922_" class="st60" d="M514.7,248.9h-10.1l-2.1,5.7h-5.1l9.5-24.8h5.6l9.5,24.8h-5.3L514.7,248.9z M506.2,244.5
			h6.9l-3.4-9.4L506.2,244.5z M511.5,228h-4.3l3.6-4.4h5.7L511.5,228z"/>
	</g>
</g>
<g id="XMLID_20_">
	<path id="XMLID_24_" class="st33" d="M169.2,307.5c0-5.5,4-8.5,8.1-8.5c3.7,0,6.3,2,7.2,5.2l-2.1,0.7c-0.6-2.5-2.4-3.8-5.1-3.8
		c-3,0-5.8,2.2-5.8,6.4s2.8,6.4,5.8,6.4c2.8,0,4.5-1.7,5.2-3.9l2,0.7c-0.9,3.1-3.4,5.2-7.2,5.2C173.1,316,169.2,313,169.2,307.5z"/>
	<path id="XMLID_44_" class="st33" d="M190.8,316c-2.6,0-4.1-1.9-4.1-4.4v-7h2.2v6.6c0,1.5,0.7,2.9,2.5,2.9c1.7,0,2.6-1.2,2.6-2.8
		v-6.7h2.2v9c0,0.9,0.1,1.7,0.1,2h-2.1c0-0.3-0.1-0.9-0.1-1.3C193.5,315.5,192.1,316,190.8,316z"/>
	<path id="XMLID_46_" class="st33" d="M209.7,310c0,4.1-2.9,5.9-5.5,5.9c-3,0-5.3-2.2-5.3-5.7c0-3.7,2.4-5.9,5.5-5.9
		C207.6,304.3,209.7,306.6,209.7,310z M200.9,310.1c0,2.4,1.4,4.3,3.4,4.3c1.9,0,3.4-1.8,3.4-4.3c0-1.9-0.9-4.3-3.3-4.3
		C201.9,305.8,200.9,308,200.9,310.1z M205,299.7l2.2,3.3h-1.6l-1.3-2.2h0l-1.3,2.2h-1.5l2.2-3.3H205z M205.4,318.7
		c0,0.6-0.5,1.2-1.2,1.2c-0.6,0-1.1-0.6-1.1-1.2c0-0.6,0.5-1.2,1.2-1.2C205,317.5,205.4,318,205.4,318.7z"/>
	<path id="XMLID_51_" class="st33" d="M213.7,310.1c0,2.5,1.6,3.9,3.4,3.9c2.1,0,2.8-1.4,3.1-2.3l1.9,0.8c-0.5,1.6-2.1,3.4-5,3.4
		c-3.2,0-5.6-2.5-5.6-5.9c0-3.4,2.4-5.9,5.6-5.9c2.9,0,4.5,1.8,4.9,3.5l-2,0.8c-0.3-1.1-1.1-2.3-3-2.3
		C215.4,306.3,213.7,307.5,213.7,310.1z"/>
	<path id="XMLID_53_" class="st33" d="M231.3,312.1c0.1,1.1,1,2.1,2.6,2.1c1.2,0,1.9-0.7,1.9-1.5c0-0.7-0.5-1.2-1.4-1.4l-1.9-0.4
		c-1.7-0.4-2.8-1.5-2.8-3.1c0-1.9,1.8-3.5,3.9-3.5c3,0,4,2,4.2,3l-1.9,0.7c-0.1-0.6-0.6-1.8-2.3-1.8c-1.1,0-1.8,0.7-1.8,1.5
		c0,0.7,0.4,1.2,1.3,1.3l1.8,0.4c2,0.4,3.1,1.7,3.1,3.3c0,1.6-1.3,3.4-4,3.4c-3,0-4.3-2-4.5-3.2L231.3,312.1z"/>
	<path id="XMLID_55_" class="st33" d="M250.7,310c0,4.1-2.9,5.9-5.5,5.9c-3,0-5.3-2.2-5.3-5.7c0-3.7,2.4-5.9,5.5-5.9
		C248.5,304.3,250.7,306.6,250.7,310z M241.9,310.1c0,2.4,1.4,4.3,3.4,4.3c1.9,0,3.4-1.8,3.4-4.3c0-1.9-0.9-4.3-3.3-4.3
		C242.9,305.8,241.9,308,241.9,310.1z M246.1,299.7l2,3.3h-1.5l-1.2-2.2h0l-1.2,2.2h-1.5l1.9-3.3H246.1z M250.9,297.8l-2.3,3h-1.2
		l1.6-3H250.9z"/>
	<path id="XMLID_61_" class="st33" d="M255.6,315.7h-2.2v-11.1h2.1v1.6c0.8-1.4,2.1-1.9,3.4-1.9c2.6,0,4,1.9,4,4.4v7h-2.2V309
		c0-1.5-0.6-2.8-2.6-2.8c-1.7,0-2.6,1.4-2.6,3V315.7z"/>
	<path id="XMLID_65_" class="st33" d="M267.6,315.8c0.2,1.5,1.3,2.7,3,2.7c2.3,0,3.4-1.2,3.4-3.6v-1.6c-0.5,1-1.7,1.8-3.4,1.8
		c-2.9,0-5.1-2.2-5.1-5.4c0-3,2-5.4,5.1-5.4c1.7,0,2.9,0.6,3.4,1.7v-1.5h2.1v10.2c0,2.8-1.4,5.5-5.5,5.5c-2.8,0-4.8-1.7-5.1-4.1
		L267.6,315.8z M274.1,309.8c0-2.1-1.3-3.5-3.2-3.5c-1.9,0-3.2,1.4-3.2,3.5c0,2.2,1.2,3.5,3.2,3.5
		C272.8,313.3,274.1,311.9,274.1,309.8z"/>
	<path id="XMLID_68_" class="st33" d="M285.4,315.7V299h2.2v16.6H285.4z"/>
	<path id="XMLID_70_" class="st33" d="M293.9,309.3l3-0.4c0.7-0.1,0.9-0.4,0.9-0.8c0-1.1-0.7-2-2.4-2c-1.5,0-2.4,0.9-2.5,2.2
		l-2.1-0.5c0.2-2.1,2.1-3.6,4.5-3.6c3.3,0,4.6,1.9,4.6,4v5.5c0,1,0.1,1.5,0.1,1.8h-2.1c0-0.3-0.1-0.7-0.1-1.5
		c-0.5,0.8-1.6,1.8-3.6,1.8c-2.3,0-3.7-1.6-3.7-3.3C290.5,310.7,292,309.6,293.9,309.3z M291.9,299.8h2.7l2,3.4h-1.8L291.9,299.8z
		 M297.7,310.9v-0.5l-3.4,0.5c-0.9,0.1-1.6,0.7-1.6,1.7c0,0.8,0.7,1.6,1.8,1.6C296.3,314.2,297.7,313.3,297.7,310.9z"/>
	<path id="XMLID_74_" class="st33" d="M309,315.7v-11.1h2.1v1.5c0.7-1.2,2.1-1.8,3.4-1.8c1.4,0,2.7,0.7,3.3,2.1
		c0.9-1.6,2.3-2.1,3.7-2.1c1.9,0,3.8,1.3,3.8,4.2v7.2h-2.1v-6.9c0-1.4-0.7-2.5-2.3-2.5c-1.5,0-2.6,1.2-2.6,2.8v6.7h-2.2v-6.9
		c0-1.4-0.7-2.5-2.3-2.5c-1.5,0-2.6,1.1-2.6,2.8v6.7H309z"/>
	<path id="XMLID_76_" class="st33" d="M338.6,310c0,4.1-2.9,5.9-5.5,5.9c-3,0-5.3-2.2-5.3-5.7c0-3.7,2.4-5.9,5.5-5.9
		C336.5,304.3,338.6,306.6,338.6,310z M329.8,310.1c0,2.4,1.4,4.3,3.4,4.3c1.9,0,3.4-1.8,3.4-4.3c0-1.9-0.9-4.3-3.3-4.3
		S329.8,308,329.8,310.1z M333.9,299.7l2.2,3.3h-1.6l-1.3-2.2h0l-1.3,2.2h-1.5l2.2-3.3H333.9z M334.3,318.7c0,0.6-0.5,1.2-1.2,1.2
		c-0.6,0-1.1-0.6-1.1-1.2c0-0.6,0.5-1.2,1.2-1.2C333.9,317.5,334.3,318,334.3,318.7z"/>
	<path id="XMLID_81_" class="st33" d="M344.3,304.6h2.4v2h-2.4v5.7c0,1,0.4,1.5,1.5,1.5c0.3,0,0.7,0,0.9-0.1v1.8
		c-0.2,0.1-0.7,0.2-1.5,0.2c-1.9,0-3.1-1.1-3.1-3.1v-6.1H340v-2h0.6c1.2,0,1.7-0.7,1.7-1.7v-1.8h2V304.6z"/>
	<path id="XMLID_83_" class="st33" d="M355.3,315.7v-11.1h2.1v1.5c0.7-1.2,2.1-1.8,3.4-1.8c1.4,0,2.7,0.7,3.3,2.1
		c0.9-1.6,2.3-2.1,3.7-2.1c1.9,0,3.8,1.3,3.8,4.2v7.2h-2.1v-6.9c0-1.4-0.7-2.5-2.3-2.5c-1.5,0-2.6,1.2-2.6,2.8v6.7h-2.2v-6.9
		c0-1.4-0.7-2.5-2.3-2.5c-1.5,0-2.6,1.1-2.6,2.8v6.7H355.3z"/>
	<path id="XMLID_85_" class="st33" d="M385.4,310.1c0,3.4-2.3,5.9-5.7,5.9s-5.7-2.5-5.7-5.9c0-3.4,2.3-5.9,5.7-5.9
		S385.4,306.8,385.4,310.1z M383.2,310.1c0-2.6-1.6-3.9-3.4-3.9c-1.8,0-3.4,1.4-3.4,3.9c0,2.6,1.6,4,3.4,4
		C381.6,314.1,383.2,312.7,383.2,310.1z M380.2,303.2h-1.8l2-3.4h2.7L380.2,303.2z"/>
	<path id="XMLID_89_" class="st33" d="M390.3,315.7h-2.2v-11.1h2.1v1.6c0.8-1.4,2.1-1.9,3.4-1.9c2.6,0,4,1.9,4,4.4v7h-2.2V309
		c0-1.5-0.6-2.8-2.6-2.8c-1.7,0-2.6,1.4-2.6,3V315.7z"/>
	<path id="XMLID_91_" class="st33" d="M414.6,320v-5.9c-0.6,1.1-1.8,1.9-3.4,1.9c-3.2,0-5.2-2.6-5.2-5.9c0-3.1,2-5.8,5.2-5.8
		c1.9,0,3.1,1,3.5,2v-1.7h2.1V320H414.6z M411.3,314.1c2,0,3.3-1.7,3.3-4c0-2.3-1.3-3.9-3.3-3.9c-2,0-3.2,1.6-3.2,3.9
		C408.1,312.4,409.4,314.1,411.3,314.1z"/>
	<path id="XMLID_94_" class="st33" d="M424.2,316c-2.6,0-4.1-1.9-4.1-4.4v-7h2.2v6.6c0,1.5,0.7,2.9,2.5,2.9c1.7,0,2.6-1.2,2.6-2.8
		v-6.7h2.2v9c0,0.9,0.1,1.7,0.1,2h-2.1c0-0.3-0.1-0.9-0.1-1.3C426.9,315.5,425.5,316,424.2,316z"/>
	<path id="XMLID_96_" class="st33" d="M435.9,309.3l3-0.4c0.7-0.1,0.9-0.4,0.9-0.8c0-1.1-0.7-2-2.4-2c-1.5,0-2.4,0.9-2.5,2.2
		l-2.1-0.5c0.2-2.1,2.1-3.6,4.5-3.6c3.3,0,4.6,1.9,4.6,4v5.5c0,1,0.1,1.5,0.1,1.8h-2.1c0-0.3-0.1-0.7-0.1-1.5
		c-0.5,0.8-1.6,1.8-3.6,1.8c-2.3,0-3.7-1.6-3.7-3.3C432.5,310.7,433.9,309.6,435.9,309.3z M433.9,299.8h2.7l2,3.4h-1.8L433.9,299.8z
		 M439.7,310.9v-0.5l-3.4,0.5c-0.9,0.1-1.6,0.7-1.6,1.7c0,0.8,0.7,1.6,1.8,1.6C438.3,314.2,439.7,313.3,439.7,310.9z"/>
</g>
</svg>
