<?xml version="1.0" encoding="utf-8"?>
<!-- Generator: Adobe Illustrator 19.0.0, SVG Export Plug-In . SVG Version: 6.00 Build 0)  -->
<svg version="1.1" id="Layer_1" xmlns="http://www.w3.org/2000/svg" xmlns:xlink="http://www.w3.org/1999/xlink" x="0px" y="0px"
	 viewBox="0 0 169.6 167.1" style="enable-background:new 0 0 169.6 167.1;" xml:space="preserve">
<style type="text/css">
	.st0{fill:#E69144;}
	.st1{fill:#FFFFFF;}
	.st2{fill:#CD202B;}
	.st3{fill:#B1B4B5;}
	.st4{fill:#404040;}
</style>
<rect id="XMLID_1096_" x="0" y="0" class="st0" width="151.7" height="167"/>
<rect id="XMLID_1302_" x="0" y="89.1" class="st1" width="151.8" height="77.6"/>
<g id="XMLID_3683_">
	<circle id="XMLID_3684_" class="st2" cx="18.3" cy="103.2" r="4"/>
	<path id="XMLID_3685_" class="st2" d="M14.3,103.2h8.1v10.1C22.4,113.3,14.3,108.4,14.3,103.2z"/>
	<circle id="XMLID_1183_" class="st2" cx="26.4" cy="103.1" r="4"/>
	<path id="XMLID_1182_" class="st2" d="M30.4,103.1h-8.1v10.1C22.4,113.1,30.4,108.2,30.4,103.1z"/>
</g>
<g id="XMLID_1156_">
	<path id="XMLID_3913_" class="st3" d="M72.6,52.8L72.6,52.8c-2.7,0-4.9-2.2-4.9-4.9V18.6c0-2.7,2.2-4.9,4.9-4.9l0,0
		c2.7,0,4.9,2.2,4.9,4.9v29.3C77.4,50.6,75.2,52.8,72.6,52.8z"/>
	<path id="XMLID_1179_" class="st1" d="M65,39.1L65,39.1c-0.8,0-1.5-0.7-1.5-1.5v-16c0-0.8,0.7-1.5,1.5-1.5l0,0
		c0.8,0,1.5,0.7,1.5,1.5v16C66.4,38.4,65.8,39.1,65,39.1z"/>
	<rect id="XMLID_1178_" x="63.5" y="21.7" class="st1" width="4.2" height="10.5"/>
	<path id="XMLID_1177_" class="st3" d="M72.6,78.5L72.6,78.5c-2.7,0-4.9-2.2-4.9-4.9V37.9c0-2.7,2.2-4.9,4.9-4.9l0,0
		c2.7,0,4.9,2.2,4.9,4.9v35.7C77.4,76.3,75.3,78.5,72.6,78.5z"/>
	<rect id="XMLID_1176_" x="67.7" y="32.1" class="st1" width="9.7" height="13.9"/>
	<rect id="XMLID_1172_" x="69.4" y="9.9" class="st3" width="6.3" height="9.1"/>
	<circle id="XMLID_3914_" class="st3" cx="72.6" cy="11" r="3.2"/>
</g>
<g id="XMLID_1_">
	<g id="XMLID_905_">
		<path id="XMLID_984_" class="st4" d="M50.2,98.8h2.1l-3.4,10h-2.3l-3.4-10h2.1l1.9,5.9c0.1,0.4,0.2,0.8,0.3,1.2
			c0.1,0.5,0.2,0.8,0.2,1c0.1-0.4,0.2-1.2,0.5-2.2L50.2,98.8z"/>
		<path id="XMLID_980_" class="st4" d="M58.1,108.8l-0.4-1h-0.1c-0.4,0.4-0.7,0.7-1.1,0.9c-0.4,0.2-0.9,0.3-1.5,0.3
			c-0.7,0-1.3-0.2-1.7-0.6c-0.4-0.4-0.6-1-0.6-1.8c0-0.8,0.3-1.4,0.9-1.8s1.4-0.6,2.6-0.6l1.3,0v-0.3c0-0.8-0.4-1.2-1.2-1.2
			c-0.6,0-1.3,0.2-2.2,0.6l-0.7-1.4c0.9-0.5,1.9-0.7,2.9-0.7c1,0,1.8,0.2,2.4,0.7s0.8,1.1,0.8,2v5.1H58.1z M59.2,98
			c-0.1,0.7-0.3,1.3-0.8,1.7s-1.1,0.6-1.9,0.6c-0.8,0-1.4-0.2-1.9-0.6s-0.7-1-0.8-1.7H55c0,0.2,0.1,0.4,0.2,0.5
			c0.1,0.1,0.3,0.2,0.5,0.3c0.2,0.1,0.5,0.1,0.9,0.1c0.9,0,1.4-0.3,1.5-0.9H59.2z M57.5,105.3l-0.8,0c-0.6,0-1.1,0.1-1.4,0.3
			s-0.4,0.5-0.4,0.9c0,0.6,0.3,0.9,1,0.9c0.5,0,0.9-0.1,1.2-0.4c0.3-0.3,0.4-0.6,0.4-1.1V105.3z"/>
		<path id="XMLID_978_" class="st4" d="M68.8,108.8h-2.1v-4.5c0-0.6-0.1-1-0.3-1.2s-0.5-0.4-0.9-0.4c-0.6,0-1,0.2-1.3,0.6
			s-0.4,1-0.4,1.9v3.6h-2.1v-7.6h1.6l0.3,1h0.1c0.2-0.4,0.6-0.6,1-0.8c0.4-0.2,0.9-0.3,1.4-0.3c0.9,0,1.6,0.2,2,0.7s0.7,1.2,0.7,2.1
			V108.8z"/>
		<path id="XMLID_975_" class="st4" d="M78.8,108.9c-0.9,0-1.6-0.3-2.1-1h-0.1c0.1,0.6,0.1,1,0.1,1.1v3.1h-2.1v-11h1.7l0.3,1h0.1
			c0.5-0.8,1.2-1.1,2.2-1.1c0.9,0,1.6,0.3,2.1,1s0.8,1.7,0.8,2.9c0,0.8-0.1,1.5-0.4,2.1s-0.6,1.1-1,1.4S79.3,108.9,78.8,108.9z
			 M78.1,102.7c-0.5,0-0.9,0.2-1.1,0.5s-0.4,0.8-0.4,1.6v0.2c0,0.8,0.1,1.4,0.4,1.8c0.2,0.4,0.6,0.5,1.2,0.5c0.9,0,1.4-0.8,1.4-2.3
			c0-0.8-0.1-1.3-0.3-1.7C79,102.9,78.6,102.7,78.1,102.7z"/>
		<path id="XMLID_973_" class="st4" d="M90.5,108.8h-2.1v-4.5c0-1.1-0.4-1.7-1.2-1.7c-0.6,0-1,0.2-1.3,0.6s-0.4,1-0.4,1.9v3.6h-2.1
			V98.2h2.1v2.2c0,0.2,0,0.6,0,1.2l0,0.6h0.1c0.5-0.7,1.2-1.1,2.2-1.1c0.9,0,1.6,0.2,2,0.7s0.7,1.2,0.7,2.1V108.8z"/>
		<path id="XMLID_969_" class="st4" d="M99.6,105c0,1.2-0.3,2.2-1,2.9s-1.6,1.1-2.7,1.1c-0.7,0-1.4-0.2-1.9-0.5s-1-0.8-1.3-1.4
			s-0.5-1.3-0.5-2.1c0-1.2,0.3-2.2,1-2.9s1.6-1,2.7-1c0.7,0,1.4,0.2,1.9,0.5s1,0.8,1.3,1.4S99.6,104.2,99.6,105z M95.7,100.3
			c-0.3-0.2-0.7-0.5-1.3-1s-1-0.8-1.3-1.1v-0.1h2.3c0.3,0.5,0.8,1.1,1.6,2.1v0.2H95.7z M94.3,105c0,0.8,0.1,1.3,0.4,1.7
			c0.2,0.4,0.7,0.6,1.2,0.6c0.6,0,1-0.2,1.2-0.6c0.2-0.4,0.4-1,0.4-1.7c0-0.8-0.1-1.3-0.4-1.7s-0.6-0.6-1.2-0.6
			c-0.6,0-1,0.2-1.2,0.6S94.3,104.2,94.3,105z"/>
		<path id="XMLID_967_" class="st4" d="M108.3,108.8h-2.1v-4.5c0-0.6-0.1-1-0.3-1.2s-0.5-0.4-0.9-0.4c-0.6,0-1,0.2-1.3,0.6
			s-0.4,1-0.4,1.9v3.6h-2.1v-7.6h1.6l0.3,1h0.1c0.2-0.4,0.6-0.6,1-0.8c0.4-0.2,0.9-0.3,1.4-0.3c0.9,0,1.6,0.2,2,0.7s0.7,1.2,0.7,2.1
			V108.8z"/>
		<path id="XMLID_964_" class="st4" d="M117.2,108.8c0,1.1-0.3,1.9-1,2.5c-0.6,0.6-1.6,0.9-2.9,0.9c-1.1,0-2.1-0.2-2.9-0.5V110
			c0.9,0.4,1.9,0.6,3,0.6c1.1,0,1.6-0.6,1.6-1.7v-0.2l0.1-0.9h-0.1c-0.5,0.8-1.2,1.1-2.2,1.1c-0.9,0-1.6-0.4-2.1-1.1
			c-0.5-0.7-0.8-1.7-0.8-2.9c0-1.3,0.3-2.2,0.8-2.9c0.5-0.7,1.2-1,2.2-1c0.9,0,1.7,0.4,2.2,1.1h0.1l0.2-1h1.8V108.8z M113.6,107.3
			c0.6,0,1-0.2,1.2-0.5s0.4-0.8,0.4-1.6V105c0-0.8-0.1-1.4-0.4-1.8s-0.7-0.5-1.2-0.5c-1,0-1.5,0.8-1.5,2.3c0,0.8,0.1,1.3,0.4,1.7
			C112.8,107.1,113.1,107.3,113.6,107.3z"/>
		<path id="XMLID_961_" class="st4" d="M48.5,125.7c-0.9,0-1.6-0.3-2.1-1h-0.1c0.1,0.6,0.1,1,0.1,1.1v3.1h-2.1v-11H46l0.3,1h0.1
			c0.5-0.8,1.2-1.1,2.2-1.1c0.9,0,1.6,0.3,2.1,1s0.8,1.7,0.8,2.9c0,0.8-0.1,1.5-0.4,2.1s-0.6,1.1-1,1.4S49.1,125.7,48.5,125.7z
			 M47.9,119.5c-0.5,0-0.9,0.2-1.1,0.5s-0.4,0.8-0.4,1.6v0.2c0,0.8,0.1,1.4,0.4,1.8c0.2,0.4,0.6,0.5,1.2,0.5c0.9,0,1.4-0.8,1.4-2.3
			c0-0.8-0.1-1.3-0.3-1.7C48.7,119.7,48.4,119.5,47.9,119.5z"/>
		<path id="XMLID_959_" class="st4" d="M60.2,125.6h-2.1v-4.5c0-1.1-0.4-1.7-1.2-1.7c-0.6,0-1,0.2-1.3,0.6s-0.4,1-0.4,1.9v3.6h-2.1
			V115h2.1v2.2c0,0.2,0,0.6,0,1.2l0,0.6h0.1c0.5-0.7,1.2-1.1,2.2-1.1c0.9,0,1.6,0.2,2,0.7s0.7,1.2,0.7,2.1V125.6z"/>
		<path id="XMLID_954_" class="st4" d="M67.2,125.6l-0.4-1h-0.1c-0.4,0.4-0.7,0.7-1.1,0.9c-0.4,0.2-0.9,0.3-1.5,0.3
			c-0.7,0-1.3-0.2-1.7-0.6c-0.4-0.4-0.6-1-0.6-1.8c0-0.8,0.3-1.4,0.9-1.8s1.4-0.6,2.6-0.6l1.3,0v-0.3c0-0.8-0.4-1.2-1.2-1.2
			c-0.6,0-1.3,0.2-2.2,0.6l-0.7-1.4c0.9-0.5,1.9-0.7,2.9-0.7c1,0,1.8,0.2,2.4,0.7s0.8,1.1,0.8,2v5.1H67.2z M68,117.1h-1.1
			c-0.5-0.3-1-0.7-1.4-1.1c-0.5,0.5-1,0.8-1.4,1.1h-1.1v-0.2c0.5-0.6,1-1.2,1.5-1.9h2.2c0.2,0.4,0.5,0.7,0.8,1.1s0.5,0.7,0.7,0.8
			V117.1z M66.6,122.1l-0.8,0c-0.6,0-1.1,0.1-1.4,0.3s-0.4,0.5-0.4,0.9c0,0.6,0.3,0.9,1,0.9c0.5,0,0.9-0.1,1.2-0.4
			c0.3-0.3,0.4-0.6,0.4-1.1V122.1z M69.4,114.4c0,0.5-0.3,0.8-0.9,1l0,0.4h-0.9l-0.1-0.8c0.3,0,0.5,0,0.6-0.1s0.2-0.2,0.2-0.3
			c0-0.1,0-0.2-0.1-0.2c-0.1-0.1-0.2-0.1-0.4-0.1c-0.2,0-0.3,0-0.5,0.1v-0.9c0.1,0,0.3,0,0.6,0c0.4,0,0.8,0.1,1,0.2
			C69.3,113.8,69.4,114.1,69.4,114.4z"/>
		<path id="XMLID_952_" class="st4" d="M77.7,125.6h-2.1v-4.5c0-0.6-0.1-1-0.3-1.2s-0.5-0.4-0.9-0.4c-0.5,0-0.9,0.2-1.2,0.6
			s-0.4,1-0.4,1.9v3.6h-2.1V118h1.6l0.3,1h0.1c0.2-0.4,0.5-0.6,0.9-0.8s0.8-0.3,1.3-0.3c1.1,0,1.9,0.4,2.3,1.1h0.2
			c0.2-0.4,0.5-0.6,0.9-0.8c0.4-0.2,0.8-0.3,1.4-0.3c0.9,0,1.5,0.2,2,0.7s0.7,1.2,0.7,2.1v5h-2.1v-4.5c0-0.6-0.1-1-0.3-1.2
			s-0.5-0.4-0.9-0.4c-0.5,0-0.9,0.2-1.1,0.5s-0.4,0.9-0.4,1.7V125.6z"/>
		<path id="XMLID_950_" class="st4" d="M50.1,139.5c0,0.9-0.3,1.5-0.9,2c-0.6,0.5-1.5,0.7-2.6,0.7c-1.2,0-2.1-0.2-2.7-0.5v-1.2
			c0.4,0.2,0.9,0.3,1.4,0.4c0.5,0.1,1,0.2,1.4,0.2c0.7,0,1.3-0.1,1.7-0.4s0.6-0.7,0.6-1.2c0-0.3-0.1-0.6-0.2-0.8
			c-0.1-0.2-0.4-0.4-0.7-0.6c-0.3-0.2-0.8-0.4-1.4-0.6c-0.9-0.3-1.6-0.7-1.9-1.2c-0.4-0.5-0.6-1-0.6-1.7c0-0.8,0.3-1.4,0.9-1.8
			c0.6-0.5,1.3-0.7,2.3-0.7c1,0,1.9,0.2,2.7,0.6l-0.4,1.1c-0.8-0.3-1.6-0.5-2.4-0.5c-0.6,0-1,0.1-1.4,0.4c-0.3,0.3-0.5,0.6-0.5,1.1
			c0,0.3,0.1,0.6,0.2,0.8c0.1,0.2,0.3,0.4,0.6,0.6c0.3,0.2,0.7,0.4,1.3,0.6c0.7,0.3,1.3,0.5,1.6,0.8c0.4,0.3,0.6,0.5,0.8,0.9
			C50,138.6,50.1,139,50.1,139.5z"/>
		<path id="XMLID_947_" class="st4" d="M53.1,134.7v4.7c0,0.6,0.1,1,0.4,1.3s0.7,0.4,1.2,0.4c0.8,0,1.3-0.2,1.7-0.6
			c0.3-0.4,0.5-1.1,0.5-2v-3.8h1.2v0.8c0.4-0.1,0.6-0.2,0.8-0.5c0.2-0.3,0.2-0.8,0.2-1.5h1.3l0.1,0.2c-0.1,0.9-0.4,1.5-0.8,1.9
			s-0.9,0.7-1.6,0.7v5.7h-1l-0.2-1h-0.1c-0.2,0.4-0.5,0.6-0.9,0.8c-0.4,0.2-0.9,0.3-1.4,0.3c-0.9,0-1.6-0.2-2-0.6
			c-0.5-0.4-0.7-1.1-0.7-2v-4.8H53.1z M54.1,143.8c0-0.3,0.1-0.5,0.2-0.6c0.1-0.1,0.3-0.2,0.5-0.2c0.2,0,0.4,0.1,0.5,0.2
			c0.1,0.1,0.2,0.3,0.2,0.6c0,0.2-0.1,0.4-0.2,0.6s-0.3,0.2-0.5,0.2c-0.2,0-0.4-0.1-0.5-0.2C54.1,144.2,54.1,144,54.1,143.8z"/>
		<path id="XMLID_945_" class="st4" d="M69.8,142.1v-4.7c0-0.6-0.1-1-0.4-1.3s-0.7-0.4-1.3-0.4c-0.8,0-1.3,0.2-1.6,0.6
			c-0.3,0.4-0.5,1.1-0.5,2v3.8h-1.2v-7.4h1l0.2,1H66c0.2-0.4,0.5-0.6,1-0.8c0.4-0.2,0.9-0.3,1.4-0.3c0.9,0,1.6,0.2,2,0.7
			c0.4,0.4,0.7,1.1,0.7,2v4.8H69.8z"/>
		<path id="XMLID_942_" class="st4" d="M78.2,142l0-0.9h-0.1c-0.5,0.7-1.3,1.1-2.3,1.1c-1,0-1.7-0.3-2.2-1c-0.5-0.7-0.8-1.6-0.8-2.8
			c0-1.2,0.3-2.1,0.8-2.8s1.3-1,2.2-1c1,0,1.8,0.4,2.3,1.1h0.1l0.2-1h1v7.5c0,1.1-0.3,1.9-0.8,2.4c-0.5,0.5-1.4,0.8-2.5,0.8
			c-1.1,0-2-0.2-2.7-0.5v-1.1c0.7,0.4,1.6,0.6,2.7,0.6c0.6,0,1.1-0.2,1.5-0.6c0.4-0.4,0.5-0.9,0.5-1.5V142z M76.1,141.3
			c0.7,0,1.3-0.2,1.6-0.6c0.3-0.4,0.5-1,0.5-1.9v-0.3c0-1-0.2-1.7-0.5-2.2c-0.3-0.4-0.9-0.7-1.6-0.7c-0.6,0-1.1,0.2-1.4,0.7
			c-0.3,0.5-0.5,1.2-0.5,2.1c0,0.9,0.2,1.6,0.5,2.1C74.9,141,75.4,141.3,76.1,141.3z"/>
		<path id="XMLID_940_" class="st4" d="M86.8,142.1v-4.7c0-0.6-0.1-1-0.4-1.3s-0.7-0.4-1.3-0.4c-0.7,0-1.3,0.2-1.6,0.6
			c-0.3,0.4-0.5,1.1-0.5,2.1v3.8h-1.2v-10.5H83v3.1c0,0.4,0,0.7-0.1,1H83c0.2-0.4,0.5-0.6,0.9-0.8s0.9-0.3,1.4-0.3
			c0.9,0,1.6,0.2,2,0.6c0.5,0.4,0.7,1.1,0.7,2.1v4.8H86.8z"/>
		<path id="XMLID_937_" class="st4" d="M90.2,132.7c0-0.3,0.1-0.5,0.2-0.6s0.3-0.2,0.5-0.2c0.2,0,0.4,0.1,0.5,0.2
			c0.1,0.1,0.2,0.3,0.2,0.6c0,0.3-0.1,0.5-0.2,0.6c-0.1,0.1-0.3,0.2-0.5,0.2c-0.2,0-0.4-0.1-0.5-0.2S90.2,133,90.2,132.7z
			 M91.5,142.1h-1.2v-7.4h1.2V142.1z"/>
		<path id="XMLID_932_" class="st4" d="M96.9,142.2c-1.1,0-2-0.3-2.6-1c-0.6-0.7-0.9-1.6-0.9-2.8c0-1.2,0.3-2.1,0.9-2.8
			c0.6-0.7,1.4-1.1,2.4-1.1c0.9,0,1.7,0.3,2.2,0.9c0.6,0.6,0.8,1.4,0.8,2.4v0.7h-5.1c0,0.8,0.2,1.5,0.6,1.9s1,0.7,1.7,0.7
			c0.4,0,0.8,0,1.1-0.1s0.8-0.2,1.2-0.4v1.1c-0.4,0.2-0.8,0.3-1.1,0.4C97.9,142.2,97.4,142.2,96.9,142.2z M94.3,133.6
			c0.6-0.6,1-1,1.2-1.3c0.2-0.3,0.4-0.5,0.5-0.7h1.2c0.2,0.5,0.8,1.1,1.7,2v0.2h-0.9c-0.4-0.2-0.9-0.6-1.5-1.2
			c-0.6,0.6-1.1,1-1.5,1.2h-0.8V133.6z M96.6,135.6c-0.6,0-1,0.2-1.4,0.6s-0.5,0.9-0.6,1.6h3.8c0-0.7-0.2-1.2-0.5-1.6
			S97.2,135.6,96.6,135.6z M95.9,143.8c0-0.3,0.1-0.5,0.2-0.6c0.1-0.1,0.3-0.2,0.5-0.2c0.2,0,0.4,0.1,0.5,0.2
			c0.1,0.1,0.2,0.3,0.2,0.6c0,0.2-0.1,0.4-0.2,0.6s-0.3,0.2-0.5,0.2c-0.2,0-0.4-0.1-0.5-0.2C96,144.2,95.9,144,95.9,143.8z"/>
		<path id="XMLID_929_" class="st4" d="M105.1,142.2c-1,0-1.8-0.4-2.3-1.1h-0.1l0,0.3c0,0.3,0.1,0.7,0.1,0.9v3h-1.2v-10.7h1l0.2,1
			h0.1c0.3-0.4,0.6-0.7,1-0.9c0.4-0.2,0.8-0.3,1.3-0.3c1,0,1.7,0.3,2.2,1s0.8,1.6,0.8,2.8c0,1.2-0.3,2.1-0.8,2.8
			C106.8,141.9,106,142.2,105.1,142.2z M104.9,135.6c-0.7,0-1.3,0.2-1.6,0.6c-0.3,0.4-0.5,1.1-0.5,1.9v0.2c0,1,0.2,1.7,0.5,2.2
			s0.9,0.7,1.6,0.7c0.6,0,1.1-0.3,1.4-0.8s0.5-1.2,0.5-2.1c0-0.9-0.2-1.6-0.5-2.1C106,135.8,105.5,135.6,104.9,135.6z"/>
		<path id="XMLID_927_" class="st4" d="M46.8,157.8c0.2,0,0.3,0,0.6,0c0.2,0,0.4-0.1,0.5-0.1v0.9c-0.1,0-0.3,0.1-0.5,0.1
			c-0.2,0-0.5,0.1-0.7,0.1c-1.4,0-2.2-0.8-2.2-2.3v-4.3h-1v-0.6l1.1-0.5l0.5-1.6h0.7v1.7h2.1v0.9h-2.1v4.3c0,0.4,0.1,0.8,0.3,1
			S46.5,157.8,46.8,157.8z"/>
		<path id="XMLID_925_" class="st4" d="M54.4,158.6v-4.7c0-0.6-0.1-1-0.4-1.3s-0.7-0.4-1.3-0.4c-0.7,0-1.3,0.2-1.6,0.6
			c-0.3,0.4-0.5,1.1-0.5,2.1v3.8h-1.2v-10.5h1.2v3.1c0,0.4,0,0.7-0.1,1h0.1c0.2-0.4,0.5-0.6,0.9-0.8s0.9-0.3,1.4-0.3
			c0.9,0,1.6,0.2,2,0.6c0.5,0.4,0.7,1.1,0.7,2.1v4.8H54.4z"/>
		<path id="XMLID_921_" class="st4" d="M62.4,158.6l-0.2-1h-0.1c-0.4,0.5-0.7,0.8-1.1,0.9c-0.4,0.2-0.8,0.2-1.4,0.2
			c-0.7,0-1.3-0.2-1.7-0.6c-0.4-0.4-0.6-0.9-0.6-1.6c0-1.5,1.2-2.3,3.5-2.4l1.3,0v-0.4c0-0.6-0.1-1-0.4-1.2
			c-0.2-0.3-0.6-0.4-1.2-0.4c-0.4,0-0.8,0.1-1.1,0.2c-0.3,0.1-0.7,0.2-1,0.4l-0.4-0.9c0.4-0.2,0.8-0.4,1.2-0.5
			c0.4-0.1,0.9-0.2,1.3-0.2c0.9,0,1.6,0.2,2,0.6s0.7,1,0.7,1.9v5H62.4z M61.3,150.3h-0.8c-0.3-0.3-0.7-0.6-1.1-1s-0.7-0.8-0.9-1
			v-0.1H60c0.1,0.3,0.3,0.6,0.6,1.1c0.3,0.4,0.5,0.7,0.7,1V150.3z M59.9,157.8c0.7,0,1.2-0.2,1.6-0.5s0.6-0.9,0.6-1.6V155l-1.1,0
			c-0.8,0-1.5,0.2-1.9,0.4c-0.4,0.2-0.6,0.6-0.6,1.1c0,0.4,0.1,0.7,0.4,0.9C59.2,157.7,59.5,157.8,59.9,157.8z"/>
		<path id="XMLID_919_" class="st4" d="M70.6,158.6v-4.7c0-0.6-0.1-1-0.4-1.3s-0.7-0.4-1.3-0.4c-0.8,0-1.3,0.2-1.6,0.6
			c-0.3,0.4-0.5,1.1-0.5,2v3.8h-1.2v-7.4h1l0.2,1h0.1c0.2-0.4,0.5-0.6,1-0.8c0.4-0.2,0.9-0.3,1.4-0.3c0.9,0,1.6,0.2,2,0.7
			c0.4,0.4,0.7,1.1,0.7,2v4.8H70.6z"/>
		<path id="XMLID_917_" class="st4" d="M79.1,158.6v-4.7c0-0.6-0.1-1-0.4-1.3s-0.7-0.4-1.3-0.4c-0.7,0-1.3,0.2-1.6,0.6
			c-0.3,0.4-0.5,1.1-0.5,2.1v3.8h-1.2v-10.5h1.2v3.1c0,0.4,0,0.7-0.1,1h0.1c0.2-0.4,0.5-0.6,0.9-0.8s0.9-0.3,1.4-0.3
			c0.9,0,1.6,0.2,2,0.6c0.5,0.4,0.7,1.1,0.7,2.1v4.8H79.1z"/>
		<path id="XMLID_915_" class="st4" d="M89.1,158.8c-1.1,0-1.9-0.3-2.5-1c-0.6-0.7-0.9-1.6-0.9-2.8c0-1.2,0.3-2.2,0.9-2.9
			c0.6-0.7,1.5-1,2.6-1c0.4,0,0.7,0,1.1,0.1c0.4,0.1,0.6,0.2,0.9,0.3l-0.4,1c-0.6-0.2-1.2-0.3-1.6-0.3c-0.7,0-1.3,0.2-1.6,0.7
			c-0.4,0.5-0.5,1.2-0.5,2.1c0,0.9,0.2,1.6,0.5,2s0.9,0.7,1.6,0.7c0.6,0,1.3-0.1,1.9-0.4v1.1C90.5,158.6,89.9,158.8,89.1,158.8z"/>
		<path id="XMLID_911_" class="st4" d="M99.2,154.9c0,1.2-0.3,2.1-0.9,2.8c-0.6,0.7-1.5,1-2.5,1c-0.7,0-1.3-0.2-1.8-0.5
			c-0.5-0.3-0.9-0.8-1.2-1.3s-0.4-1.3-0.4-2c0-1.2,0.3-2.1,0.9-2.8s1.4-1,2.5-1c1,0,1.9,0.3,2.5,1C98.9,152.8,99.2,153.7,99.2,154.9
			z M93.4,150.1c0.6-0.6,1-1,1.2-1.3c0.2-0.3,0.4-0.5,0.5-0.7h1.2c0.2,0.5,0.8,1.1,1.7,2v0.2h-0.9c-0.4-0.2-0.9-0.6-1.5-1.2
			c-0.6,0.6-1.1,1-1.5,1.2h-0.8V150.1z M93.6,154.9c0,0.9,0.2,1.6,0.5,2.1s0.9,0.7,1.6,0.7c0.7,0,1.2-0.2,1.6-0.7s0.6-1.2,0.6-2.1
			c0-0.9-0.2-1.6-0.6-2.1c-0.4-0.5-0.9-0.7-1.6-0.7C94.3,152.1,93.6,153.1,93.6,154.9z"/>
		<path id="XMLID_909_" class="st4" d="M106.1,158.6v-4.7c0-0.6-0.1-1-0.4-1.3s-0.7-0.4-1.3-0.4c-0.8,0-1.3,0.2-1.6,0.6
			c-0.3,0.4-0.5,1.1-0.5,2v3.8h-1.2v-7.4h1l0.2,1h0.1c0.2-0.4,0.5-0.6,1-0.8c0.4-0.2,0.9-0.3,1.4-0.3c0.9,0,1.6,0.2,2,0.7
			c0.4,0.4,0.7,1.1,0.7,2v4.8H106.1z"/>
		<path id="XMLID_906_" class="st4" d="M114.5,158.6l0-0.9h-0.1c-0.5,0.7-1.3,1.1-2.3,1.1c-1,0-1.7-0.3-2.2-1
			c-0.5-0.7-0.8-1.6-0.8-2.8c0-1.2,0.3-2.1,0.8-2.8c0.5-0.7,1.3-1,2.2-1c1,0,1.8,0.4,2.3,1.1h0.1l0.2-1h1v7.5c0,1.1-0.3,1.9-0.8,2.4
			s-1.4,0.8-2.5,0.8c-1.1,0-2-0.2-2.7-0.5v-1.1c0.7,0.4,1.6,0.6,2.7,0.6c0.6,0,1.1-0.2,1.5-0.6c0.4-0.4,0.5-0.9,0.5-1.5V158.6z
			 M112.4,157.8c0.7,0,1.3-0.2,1.6-0.6c0.3-0.4,0.5-1,0.5-1.9v-0.3c0-1-0.2-1.7-0.5-2.2c-0.3-0.4-0.9-0.7-1.6-0.7
			c-0.6,0-1.1,0.2-1.4,0.7c-0.3,0.5-0.5,1.2-0.5,2.1c0,0.9,0.2,1.6,0.5,2.1C111.3,157.5,111.8,157.8,112.4,157.8z"/>
	</g>
</g>
<polygon id="XMLID_2330_" class="st1" points="147.8,166.7 150,147.5 169.6,167.1 "/>
</svg>
