<?xml version="1.0" encoding="utf-8"?>
<!-- Generator: Adobe Illustrator 19.0.0, SVG Export Plug-In . SVG Version: 6.00 Build 0)  -->
<svg version="1.1" id="Layer_1" xmlns="http://www.w3.org/2000/svg" xmlns:xlink="http://www.w3.org/1999/xlink" x="0px" y="0px"
	 viewBox="0 0 168.9 168" style="enable-background:new 0 0 168.9 168;" xml:space="preserve">
<style type="text/css">
	.st0{fill:#ED135E;}
	.st1{fill:#FFFFFF;}
	.st2{fill:#CD202B;}
	.st3{fill:#E1E1E1;}
	.st4{fill:#BBBBBB;}
	.st5{fill:#8C8C8C;}
	.st6{fill:#C1A52F;}
	.st7{fill:#FEDE40;}
	.st8{fill:#DFDFDF;}
	.st9{fill:#C8C8C8;}
	.st10{fill:none;stroke:#FFFFFF;stroke-width:0.5;stroke-miterlimit:10;}
	.st11{fill:#404040;}
</style>
<rect id="XMLID_4013_" x="0.2" y="0" class="st0" width="150.5" height="167"/>
<rect id="XMLID_4012_" x="0" y="88.9" class="st1" width="150.9" height="78.6"/>
<polygon id="XMLID_2494_" class="st1" points="149.7,167.8 149.7,148.8 168.9,168 "/>
<g id="XMLID_9177_">
	<circle id="XMLID_9178_" class="st2" cx="12.9" cy="100.7" r="4"/>
	<path id="XMLID_9179_" class="st2" d="M8.9,100.7H17v10.1C17,110.8,8.9,105.9,8.9,100.7z"/>
	<circle id="XMLID_2518_" class="st2" cx="21" cy="100.5" r="4"/>
	<path id="XMLID_2517_" class="st2" d="M25,100.5H17v10.1C17,110.6,25,105.7,25,100.5z"/>
</g>
<g id="XMLID_9316_">
	<polyline id="XMLID_2515_" class="st1" points="84.3,29.3 86.1,29.3 86.1,9.7 64.5,9.7 64.5,29.3 64.8,29.3 	"/>
	<rect id="XMLID_2514_" x="64.5" y="15.8" class="st3" width="21.6" height="5.3"/>
	<rect id="XMLID_2513_" x="84.3" y="9.7" class="st4" width="1.9" height="22.5"/>
	<rect id="XMLID_2512_" x="84.3" y="15.8" class="st5" width="1.9" height="5.3"/>
	
		<rect id="XMLID_2511_" x="91.9" y="50.8" transform="matrix(0.9191 0.394 -0.394 0.9191 28.6339 -32.917)" class="st6" width="5.1" height="4.9"/>
	
		<rect id="XMLID_2510_" x="90.3" y="50.1" transform="matrix(0.9191 0.3939 -0.3939 0.9191 28.2221 -32.3191)" class="st7" width="5.1" height="4.9"/>
	<polyline id="XMLID_9317_" class="st1" points="84.3,63.3 86.1,63.3 86.1,82.9 64.5,82.9 64.5,63.3 64.8,63.3 	"/>
	
		<rect id="XMLID_2508_" x="93.6" y="34.4" transform="matrix(-0.9191 0.394 -0.394 -0.9191 199.0356 32.7988)" class="st7" width="5.1" height="4.9"/>
	<line id="XMLID_9318_" class="st1" x1="65.3" y1="76.8" x2="85.4" y2="76.8"/>
	<line id="XMLID_9319_" class="st1" x1="65.3" y1="70.1" x2="85.4" y2="70.1"/>
	<rect id="XMLID_2505_" x="64.5" y="71.5" class="st3" width="21.6" height="5.3"/>
	<rect id="XMLID_2504_" x="84.3" y="60.4" class="st4" width="1.9" height="22.5"/>
	<rect id="XMLID_2503_" x="84.3" y="71.5" class="st5" width="1.9" height="5.3"/>
	<circle id="XMLID_9320_" class="st5" cx="74.5" cy="45.3" r="20.5"/>
	<circle id="XMLID_9321_" class="st8" cx="74.5" cy="45.3" r="15.2"/>
	<circle id="XMLID_9322_" class="st9" cx="74.4" cy="45.3" r="13.3"/>
	<polyline id="XMLID_9323_" class="st10" points="74.5,35.1 74.5,45.3 84,45.3 	"/>
	<circle id="XMLID_9324_" class="st10" cx="74.4" cy="45.4" r="3.4"/>
</g>
<g id="XMLID_115_">
	<path id="XMLID_116_" class="st11" d="M33.3,102.8h0.9v-4.2h3.1c1.6,0,2.9,0.4,3.8,1.3s1.4,2.1,1.4,3.6c0,1.6-0.5,2.9-1.4,3.8
		s-2.3,1.3-4.1,1.3h-2.8v-4.1h-0.9V102.8z M40.3,103.6c0-1.1-0.2-1.9-0.7-2.4c-0.5-0.5-1.2-0.8-2.1-0.8h-1.1v2.4H38v1.7h-1.6v2.3
		h0.9C39.3,106.9,40.3,105.8,40.3,103.6z"/>
	<path id="XMLID_121_" class="st11" d="M45.7,98.8h-1c-0.7-0.5-1.3-1-1.6-1.4v-0.1h1.7c0.2,0.5,0.6,1,0.9,1.4V98.8z M51.4,104.8
		c0,1.2-0.3,2.2-1,2.9s-1.6,1.1-2.7,1.1c-0.7,0-1.4-0.2-1.9-0.5s-1-0.8-1.3-1.4s-0.5-1.3-0.5-2.1c0-1.2,0.3-2.2,1-2.9
		c0.7-0.7,1.6-1,2.7-1c0.7,0,1.4,0.2,1.9,0.5s1,0.8,1.3,1.4S51.4,104,51.4,104.8z M45.1,99.9c0.5-0.6,1-1.2,1.5-1.9h2.2
		c0.2,0.3,0.5,0.7,0.8,1.1s0.5,0.7,0.7,0.9v0.2h-1.1c-0.4-0.3-0.9-0.7-1.4-1.1c-0.5,0.4-1,0.8-1.4,1.1h-1.1V99.9z M46.1,104.8
		c0,0.8,0.1,1.3,0.4,1.7s0.7,0.6,1.2,0.6c0.6,0,1-0.2,1.2-0.6s0.4-1,0.4-1.7c0-0.8-0.1-1.3-0.4-1.7s-0.6-0.6-1.2-0.6
		c-0.6,0-1,0.2-1.2,0.6S46.1,104,46.1,104.8z"/>
	<path id="XMLID_126_" class="st11" d="M60.2,108.6h-2.1v-4.5c0-0.6-0.1-1-0.3-1.2c-0.2-0.3-0.5-0.4-0.9-0.4c-0.6,0-1,0.2-1.3,0.6
		s-0.4,1-0.4,1.9v3.6h-2.1V101h1.6l0.3,1h0.1c0.2-0.4,0.6-0.6,1-0.8s0.9-0.3,1.4-0.3c0.9,0,1.6,0.2,2,0.7c0.5,0.5,0.7,1.2,0.7,2.1
		V108.6z"/>
	<path id="XMLID_128_" class="st11" d="M69,108.6c0,1.1-0.3,1.9-1,2.5s-1.6,0.9-2.9,0.9c-1.1,0-2.1-0.2-2.9-0.5v-1.7
		c0.9,0.4,1.9,0.6,3,0.6c1.1,0,1.6-0.6,1.6-1.7v-0.2l0.1-0.9h-0.1c-0.5,0.8-1.2,1.1-2.2,1.1c-0.9,0-1.6-0.4-2.1-1.1
		s-0.8-1.7-0.8-2.9c0-1.3,0.3-2.2,0.8-2.9s1.2-1,2.2-1c0.9,0,1.7,0.4,2.2,1.1h0.1l0.2-1H69V108.6z M65.5,107.1c0.6,0,1-0.2,1.2-0.5
		c0.2-0.3,0.4-0.8,0.4-1.6v-0.3c0-0.8-0.1-1.4-0.4-1.8s-0.7-0.5-1.2-0.5c-1,0-1.5,0.8-1.5,2.3c0,0.8,0.1,1.3,0.4,1.7
		S65,107.1,65.5,107.1z"/>
	<path id="XMLID_131_" class="st11" d="M81.9,108.6h-2.1v-4.5c0-1.1-0.4-1.7-1.2-1.7c-0.6,0-1,0.2-1.3,0.6s-0.4,1-0.4,1.9v3.6h-2.1
		V98h2.1v2.2c0,0.2,0,0.6,0,1.2l0,0.6h0.1c0.5-0.7,1.2-1.1,2.2-1.1c0.9,0,1.6,0.2,2,0.7s0.7,1.2,0.7,2.1V108.6z"/>
	<path id="XMLID_133_" class="st11" d="M85.3,98.8h-1c-0.7-0.5-1.3-1-1.6-1.4v-0.1h1.7c0.2,0.5,0.6,1,0.9,1.4V98.8z M90.9,104.8
		c0,1.2-0.3,2.2-1,2.9s-1.6,1.1-2.7,1.1c-0.7,0-1.4-0.2-1.9-0.5s-1-0.8-1.3-1.4s-0.5-1.3-0.5-2.1c0-1.2,0.3-2.2,1-2.9
		c0.7-0.7,1.6-1,2.7-1c0.7,0,1.4,0.2,1.9,0.5s1,0.8,1.3,1.4S90.9,104,90.9,104.8z M84.7,99.9c0.5-0.6,1-1.2,1.5-1.9h2.2
		c0.2,0.3,0.5,0.7,0.8,1.1s0.5,0.7,0.7,0.9v0.2h-1.1c-0.4-0.3-0.9-0.7-1.4-1.1c-0.5,0.4-1,0.8-1.4,1.1h-1.1V99.9z M85.7,104.8
		c0,0.8,0.1,1.3,0.4,1.7s0.7,0.6,1.2,0.6c0.6,0,1-0.2,1.2-0.6s0.4-1,0.4-1.7c0-0.8-0.1-1.3-0.4-1.7s-0.6-0.6-1.2-0.6
		c-0.6,0-1,0.2-1.2,0.6S85.7,104,85.7,104.8z"/>
	<path id="XMLID_138_" class="st11" d="M36.9,123h-1.1v-7.6h-2.7v-0.9h6.4v0.9h-2.7V123z"/>
	<path id="XMLID_140_" class="st11" d="M43.4,116.5c0.3,0,0.5,0,0.8,0.1l-0.1,1c-0.2-0.1-0.5-0.1-0.7-0.1c-0.3,0-0.7,0.1-0.9,0.3
		s-0.5,0.4-0.7,0.8s-0.2,0.7-0.2,1.1v3.4h-1.1v-6.4h0.9l0.1,1.2h0c0.2-0.4,0.5-0.7,0.9-1S43,116.5,43.4,116.5z"/>
	<path id="XMLID_142_" class="st11" d="M49.2,123l-0.2-0.9h0c-0.3,0.4-0.6,0.7-1,0.8s-0.7,0.2-1.2,0.2c-0.6,0-1.1-0.2-1.5-0.5
		s-0.5-0.8-0.5-1.4c0-1.3,1-2,3.1-2.1l1.1,0v-0.4c0-0.5-0.1-0.8-0.3-1.1s-0.5-0.3-1-0.3c-0.3,0-0.7,0.1-1,0.2s-0.6,0.2-0.9,0.3
		l-0.3-0.8c0.3-0.2,0.7-0.3,1.1-0.4s0.8-0.1,1.1-0.1c0.8,0,1.4,0.2,1.7,0.5s0.6,0.9,0.6,1.6v4.4H49.2z M45.5,115.6
		c0.5-0.5,0.8-0.9,1-1.2s0.3-0.5,0.4-0.6h1.1c0.2,0.4,0.7,1,1.5,1.8v0.1h-0.7c-0.4-0.2-0.8-0.6-1.3-1.1c-0.5,0.5-0.9,0.9-1.3,1.1
		h-0.7V115.6z M47,122.3c0.6,0,1.1-0.2,1.4-0.5s0.5-0.8,0.5-1.4v-0.6l-0.9,0c-0.7,0-1.3,0.1-1.6,0.4s-0.5,0.5-0.5,1
		c0,0.3,0.1,0.6,0.3,0.8S46.6,122.3,47,122.3z"/>
	<path id="XMLID_146_" class="st11" d="M56.3,123v-4.1c0-0.5-0.1-0.9-0.3-1.2s-0.6-0.4-1.1-0.4c-0.7,0-1.1,0.2-1.4,0.5
		s-0.4,1-0.4,1.8v3.3H52v-6.4h0.8l0.2,0.9H53c0.2-0.3,0.5-0.6,0.8-0.7s0.8-0.3,1.2-0.3c0.8,0,1.4,0.2,1.8,0.6s0.6,1,0.6,1.8v4.2
		H56.3z"/>
	<path id="XMLID_148_" class="st11" d="M64.6,122.3c0.1,0,0.3,0,0.5,0s0.3-0.1,0.4-0.1v0.8c-0.1,0-0.2,0.1-0.5,0.1s-0.4,0.1-0.6,0.1
		c-1.3,0-1.9-0.7-1.9-2v-3.7h-0.9v-0.5l0.9-0.4l0.4-1.4h0.6v1.5h1.9v0.8h-1.9v3.7c0,0.4,0.1,0.7,0.3,0.9
		C64.1,122.2,64.3,122.3,64.6,122.3z"/>
	<path id="XMLID_150_" class="st11" d="M69.8,116.5c0.3,0,0.5,0,0.8,0.1l-0.1,1c-0.2-0.1-0.5-0.1-0.7-0.1c-0.3,0-0.7,0.1-0.9,0.3
		s-0.5,0.4-0.7,0.8s-0.2,0.7-0.2,1.1v3.4h-1.1v-6.4h0.9l0.1,1.2h0c0.2-0.4,0.5-0.7,0.9-1S69.4,116.5,69.8,116.5z"/>
	<path id="XMLID_152_" class="st11" d="M77.2,119.8c0,1.1-0.3,1.9-0.8,2.5s-1.3,0.9-2.2,0.9c-0.6,0-1.1-0.1-1.5-0.4s-0.8-0.7-1-1.2
		s-0.4-1.1-0.4-1.8c0-1,0.3-1.9,0.8-2.4s1.3-0.9,2.2-0.9c0.9,0,1.6,0.3,2.2,0.9S77.2,118.8,77.2,119.8z M72.4,119.8
		c0,0.8,0.2,1.4,0.5,1.8s0.8,0.6,1.4,0.6c0.6,0,1.1-0.2,1.4-0.6s0.5-1,0.5-1.8s-0.2-1.4-0.5-1.8s-0.8-0.6-1.4-0.6
		C73,117.4,72.4,118.2,72.4,119.8z M73.6,124.5c0-0.2,0.1-0.4,0.2-0.5s0.3-0.2,0.4-0.2c0.2,0,0.3,0.1,0.4,0.2s0.2,0.3,0.2,0.5
		c0,0.2-0.1,0.4-0.2,0.5s-0.3,0.2-0.4,0.2c-0.2,0-0.3-0.1-0.5-0.2S73.6,124.7,73.6,124.5z"/>
	<path id="XMLID_156_" class="st11" d="M83.3,123v-4.1c0-0.5-0.1-0.9-0.3-1.2s-0.6-0.4-1.1-0.4c-0.7,0-1.1,0.2-1.4,0.5
		s-0.4,1-0.4,1.8v3.3h-1.1v-6.4h0.8l0.2,0.9H80c0.2-0.3,0.5-0.6,0.8-0.7s0.8-0.3,1.2-0.3c0.8,0,1.4,0.2,1.8,0.6s0.6,1,0.6,1.8v4.2
		H83.3z"/>
	<path id="XMLID_158_" class="st11" d="M90.6,123l0-0.8h0c-0.4,0.6-1.1,1-2,1c-0.8,0-1.5-0.3-1.9-0.9s-0.7-1.4-0.7-2.5
		c0-1,0.2-1.9,0.7-2.4s1.1-0.9,1.9-0.9c0.9,0,1.5,0.3,2,1h0.1l0.1-0.9h0.8v6.5c0,0.9-0.2,1.6-0.7,2.1s-1.2,0.7-2.2,0.7
		c-0.9,0-1.7-0.1-2.3-0.4v-1c0.6,0.3,1.4,0.5,2.4,0.5c0.5,0,1-0.2,1.3-0.5s0.5-0.8,0.5-1.3V123z M88.8,122.3c0.6,0,1.1-0.2,1.4-0.5
		s0.4-0.9,0.4-1.7v-0.3c0-0.9-0.1-1.5-0.4-1.9s-0.8-0.6-1.4-0.6c-0.5,0-1,0.2-1.3,0.6s-0.4,1-0.4,1.8c0,0.8,0.1,1.4,0.4,1.8
		S88.2,122.3,88.8,122.3z"/>
	<path id="XMLID_161_" class="st11" d="M99,122.3c0.1,0,0.3,0,0.5,0s0.3-0.1,0.4-0.1v0.8c-0.1,0-0.2,0.1-0.5,0.1s-0.4,0.1-0.6,0.1
		c-1.3,0-1.9-0.7-1.9-2v-3.7H96v-0.5l0.9-0.4l0.4-1.4H98v1.5h1.9v0.8H98v3.7c0,0.4,0.1,0.7,0.3,0.9S98.7,122.3,99,122.3z"/>
	<path id="XMLID_163_" class="st11" d="M105.5,123v-4.1c0-0.5-0.1-0.9-0.3-1.2s-0.6-0.4-1.1-0.4c-0.7,0-1.1,0.2-1.4,0.5
		s-0.5,1-0.5,1.8v3.3h-1.1v-9.1h1.1v2.7c0,0.4,0,0.7-0.1,0.9h0.1c0.2-0.3,0.5-0.6,0.8-0.7s0.7-0.3,1.2-0.3c0.8,0,1.4,0.2,1.8,0.6
		s0.6,1,0.6,1.8v4.2H105.5z"/>
	<path id="XMLID_165_" class="st11" d="M114.2,119.8c0,1.1-0.3,1.9-0.8,2.5s-1.3,0.9-2.2,0.9c-0.6,0-1.1-0.1-1.5-0.4s-0.8-0.7-1-1.2
		s-0.4-1.1-0.4-1.8c0-1,0.3-1.9,0.8-2.4s1.3-0.9,2.2-0.9c0.4,0,0.8,0.1,1.2,0.2s0.7,0.3,0.9,0.6c0.2-0.1,0.4-0.2,0.5-0.3
		s0.2-0.3,0.3-0.5s0.1-0.5,0.1-0.9h1.1l0.1,0.1c-0.1,0.6-0.3,1.1-0.6,1.5s-0.6,0.6-1,0.7C114,118.5,114.2,119.1,114.2,119.8z
		 M109.3,119.8c0,0.8,0.2,1.5,0.5,1.9s0.8,0.6,1.4,0.6c0.7,0,1.1-0.2,1.4-0.6s0.4-1,0.4-1.8c0-0.8-0.2-1.4-0.5-1.8s-0.8-0.6-1.4-0.6
		s-1.1,0.2-1.4,0.6S109.3,119,109.3,119.8z M112,115.7h-0.7c-0.3-0.2-0.6-0.5-1-0.9s-0.6-0.7-0.7-0.9v-0.1h1.3
		c0.1,0.3,0.3,0.6,0.5,0.9s0.4,0.6,0.6,0.9V115.7z"/>
	<path id="XMLID_169_" class="st11" d="M115.9,114.8c0-0.2,0.1-0.4,0.2-0.5s0.3-0.2,0.4-0.2c0.2,0,0.3,0.1,0.4,0.2s0.2,0.3,0.2,0.5
		c0,0.2-0.1,0.4-0.2,0.5s-0.3,0.2-0.4,0.2c-0.2,0-0.3-0.1-0.4-0.2S115.9,115.1,115.9,114.8z M117,123H116v-6.4h1.1V123z"/>
	<path id="XMLID_172_" class="st11" d="M38.3,137.4l0-0.8h0c-0.4,0.6-1.1,1-2,1c-0.8,0-1.5-0.3-1.9-0.9s-0.7-1.4-0.7-2.5
		c0-1,0.2-1.9,0.7-2.4s1.1-0.9,1.9-0.9c0.9,0,1.5,0.3,2,1h0.1l0.1-0.9h0.8v6.5c0,0.9-0.2,1.6-0.7,2.1s-1.2,0.7-2.2,0.7
		c-0.9,0-1.7-0.1-2.3-0.4v-1c0.6,0.3,1.4,0.5,2.4,0.5c0.5,0,1-0.2,1.3-0.5s0.5-0.8,0.5-1.3V137.4z M36.4,136.7
		c0.6,0,1.1-0.2,1.4-0.5s0.4-0.9,0.4-1.7v-0.3c0-0.9-0.1-1.5-0.4-1.9s-0.8-0.6-1.4-0.6c-0.5,0-1,0.2-1.3,0.6s-0.4,1-0.4,1.8
		c0,0.8,0.1,1.4,0.4,1.8S35.9,136.7,36.4,136.7z"/>
	<path id="XMLID_175_" class="st11" d="M41.3,129.2c0-0.2,0.1-0.4,0.2-0.5s0.3-0.2,0.4-0.2c0.2,0,0.3,0.1,0.4,0.2s0.2,0.3,0.2,0.5
		c0,0.2-0.1,0.4-0.2,0.5s-0.3,0.2-0.4,0.2c-0.2,0-0.3-0.1-0.4-0.2S41.3,129.5,41.3,129.2z M42.4,137.4h-1.1V131h1.1V137.4z"/>
	<path id="XMLID_178_" class="st11" d="M48.4,137.4l-0.2-0.9h0c-0.3,0.4-0.6,0.7-1,0.8s-0.7,0.2-1.2,0.2c-0.6,0-1.1-0.2-1.5-0.5
		s-0.5-0.8-0.5-1.4c0-1.3,1-2,3.1-2.1l1.1,0v-0.4c0-0.5-0.1-0.8-0.3-1.1s-0.5-0.3-1-0.3c-0.3,0-0.7,0.1-1,0.2s-0.6,0.2-0.9,0.3
		l-0.3-0.8c0.3-0.2,0.7-0.3,1.1-0.4s0.8-0.1,1.1-0.1c0.8,0,1.4,0.2,1.7,0.5s0.6,0.9,0.6,1.6v4.4H48.4z M46.3,136.7
		c0.6,0,1.1-0.2,1.4-0.5s0.5-0.8,0.5-1.4v-0.6l-0.9,0c-0.7,0-1.3,0.1-1.6,0.4s-0.5,0.5-0.5,1c0,0.3,0.1,0.6,0.3,0.8
		S45.9,136.7,46.3,136.7z"/>
	<path id="XMLID_279_" class="st11" d="M55.6,137.4v-4.1c0-0.5-0.1-0.9-0.3-1.2s-0.6-0.4-1.1-0.4c-0.7,0-1.1,0.2-1.4,0.5
		s-0.4,1-0.4,1.8v3.3h-1.1V131h0.8l0.2,0.9h0.1c0.2-0.3,0.5-0.6,0.8-0.7s0.8-0.3,1.2-0.3c0.8,0,1.4,0.2,1.8,0.6s0.6,1,0.6,1.8v4.2
		H55.6z"/>
	<path id="XMLID_281_" class="st11" d="M64.8,130.9c0.8,0,1.5,0.3,2,0.9s0.7,1.4,0.7,2.4c0,1.1-0.2,1.9-0.7,2.5s-1.1,0.9-2,0.9
		c-0.4,0-0.8-0.1-1.2-0.2s-0.6-0.4-0.8-0.7h-0.1c-0.1,0.5-0.2,0.7-0.2,0.8h-0.8v-9.1h1.1v2.2c0,0.4,0,0.9-0.1,1.3h0.1
		C63.2,131.2,63.9,130.9,64.8,130.9z M64.6,131.8c-0.6,0-1.1,0.2-1.4,0.6s-0.4,1-0.4,1.9v0c0,0.9,0.1,1.5,0.4,1.9s0.8,0.6,1.4,0.6
		c0.6,0,1-0.2,1.3-0.6s0.4-1,0.4-1.8c0-0.8-0.1-1.4-0.4-1.8S65.2,131.8,64.6,131.8z"/>
	<path id="XMLID_284_" class="st11" d="M71.9,137.5c-1,0-1.7-0.3-2.3-0.9s-0.8-1.4-0.8-2.4c0-1,0.3-1.9,0.8-2.5s1.2-0.9,2.1-0.9
		c0.8,0,1.5,0.3,1.9,0.8s0.7,1.2,0.7,2.1v0.6h-4.4c0,0.7,0.2,1.3,0.6,1.7s0.8,0.6,1.5,0.6c0.3,0,0.7,0,1-0.1s0.7-0.2,1.1-0.4v0.9
		c-0.4,0.2-0.7,0.3-1,0.3S72.3,137.5,71.9,137.5z M69.6,130c0.5-0.5,0.8-0.9,1-1.2s0.3-0.5,0.4-0.6h1.1c0.2,0.4,0.7,1,1.5,1.8v0.1
		h-0.7c-0.4-0.2-0.8-0.6-1.3-1.1c-0.5,0.5-0.9,0.9-1.3,1.1h-0.7V130z M71.6,131.7c-0.5,0-0.9,0.2-1.2,0.5s-0.5,0.8-0.5,1.4h3.3
		c0-0.6-0.1-1.1-0.4-1.4S72.1,131.7,71.6,131.7z"/>
	<path id="XMLID_288_" class="st11" d="M80.3,137.4v-4.1c0-0.5-0.1-0.9-0.3-1.2s-0.6-0.4-1.1-0.4c-0.7,0-1.1,0.2-1.4,0.5
		s-0.4,1-0.4,1.8v3.3h-1.1V131h0.8l0.2,0.9H77c0.2-0.3,0.5-0.6,0.8-0.7s0.8-0.3,1.2-0.3c0.8,0,1.4,0.2,1.8,0.6s0.6,1,0.6,1.8v4.2
		H80.3z"/>
	<path id="XMLID_290_" class="st11" d="M90.8,137.4v-4.1c0-0.5-0.1-0.9-0.3-1.2s-0.6-0.4-1.1-0.4c-0.7,0-1.1,0.2-1.4,0.5
		s-0.4,1-0.4,1.8v3.3h-1.1V131h0.8l0.2,0.9h0.1c0.2-0.3,0.5-0.6,0.8-0.7s0.8-0.3,1.2-0.3c0.8,0,1.4,0.2,1.8,0.6s0.6,1,0.6,1.8v4.2
		H90.8z"/>
	<path id="XMLID_292_" class="st11" d="M98.2,137.4v-4.1c0-0.5-0.1-0.9-0.3-1.2s-0.6-0.4-1.1-0.4c-0.7,0-1.1,0.2-1.4,0.5
		s-0.5,1-0.5,1.8v3.3h-1.1v-9.1h1.1v2.7c0,0.4,0,0.7-0.1,0.9h0.1c0.2-0.3,0.5-0.6,0.8-0.7s0.7-0.3,1.2-0.3c0.8,0,1.4,0.2,1.8,0.6
		s0.6,1,0.6,1.8v4.2H98.2z"/>
	<path id="XMLID_294_" class="st11" d="M105.2,137.4l-0.2-0.9h0c-0.3,0.4-0.6,0.7-1,0.8s-0.7,0.2-1.2,0.2c-0.6,0-1.1-0.2-1.5-0.5
		s-0.5-0.8-0.5-1.4c0-1.3,1-2,3.1-2.1l1.1,0v-0.4c0-0.5-0.1-0.8-0.3-1.1s-0.5-0.3-1-0.3c-0.3,0-0.7,0.1-1,0.2s-0.6,0.2-0.9,0.3
		l-0.3-0.8c0.3-0.2,0.7-0.3,1.1-0.4s0.8-0.1,1.1-0.1c0.8,0,1.4,0.2,1.7,0.5s0.6,0.9,0.6,1.6v4.4H105.2z M103.1,136.7
		c0.6,0,1.1-0.2,1.4-0.5s0.5-0.8,0.5-1.4v-0.6l-0.9,0c-0.7,0-1.3,0.1-1.6,0.4s-0.5,0.5-0.5,1c0,0.3,0.1,0.6,0.3,0.8
		S102.7,136.7,103.1,136.7z"/>
	<path id="XMLID_297_" class="st11" d="M109,131v4.1c0,0.5,0.1,0.9,0.3,1.2s0.6,0.4,1.1,0.4c0.7,0,1.1-0.2,1.4-0.6s0.5-1,0.5-1.8
		V131h1.1v6.4h-0.9l-0.2-0.8h-0.1c-0.2,0.3-0.5,0.5-0.8,0.7s-0.8,0.3-1.2,0.3c-0.8,0-1.4-0.2-1.7-0.6s-0.6-1-0.6-1.8V131H109z"/>
</g>
</svg>
