<?xml version="1.0" encoding="utf-8"?>
<!-- Generator: Adobe Illustrator 19.0.0, SVG Export Plug-In . SVG Version: 6.00 Build 0)  -->
<svg version="1.1" id="Layer_1" xmlns="http://www.w3.org/2000/svg" xmlns:xlink="http://www.w3.org/1999/xlink" x="0px" y="0px"
	 viewBox="0 0 165.7 167" style="enable-background:new 0 0 165.7 167;" xml:space="preserve">
<style type="text/css">
	.st0{fill:#A01C33;}
	.st1{fill:#FFFFFF;}
	.st2{fill:#CD202B;}
	.st3{fill:#125B7C;}
	.st4{fill:#0A252D;}
	.st5{fill:#0F475C;}
	.st6{fill:#0E3949;}
	.st7{fill:#404040;}
</style>
<rect id="XMLID_4028_" x="17.2" y="0" class="st0" width="148.4" height="167"/>
<rect id="XMLID_4026_" x="17" y="87.1" class="st1" width="148.6" height="79.5"/>
<g id="XMLID_5778_">
	<circle id="XMLID_5779_" class="st2" cx="27.2" cy="100.4" r="4"/>
	<path id="XMLID_5780_" class="st2" d="M23.2,100.4h8.1v10.1C31.2,110.5,23.2,105.6,23.2,100.4z"/>
	<circle id="XMLID_2491_" class="st2" cx="35.3" cy="100.2" r="4"/>
	<path id="XMLID_2490_" class="st2" d="M39.3,100.2h-8.1v10.1C31.2,110.3,39.3,105.4,39.3,100.2z"/>
</g>
<g id="XMLID_604_">
	<path id="XMLID_2488_" class="st3" d="M108.3,79.4H93.5c-7.7,0-14-6.3-14-14V25.6c0-7.7,6.3-14,14-14h14.7c7.7,0,14,6.3,14,14v39.8
		C122.3,73.1,116,79.4,108.3,79.4z"/>
	<path id="XMLID_5788_" class="st3" d="M79.5,44.8l-4,34.6H40.2c0,0-0.4-29.1,15.6-33.9L79.5,44.8z"/>
	<path id="XMLID_5789_" class="st4" d="M115,48.9H51c-2.2,0-4.1-1.8-4.1-4.1l0,0c0-2.2,1.8-4.1,4.1-4.1h64c2.2,0,4.1,1.8,4.1,4.1
		l0,0C119.1,47.1,117.2,48.9,115,48.9z"/>
	<path id="XMLID_2483_" class="st5" d="M104.8,79.4h-35c-7.7,0-14-6.3-14-14v-2.5c0-7.7,6.3-14,14-14h35c7.7,0,14,6.3,14,14v2.5
		C118.8,73.1,112.5,79.4,104.8,79.4z"/>
	<path id="XMLID_2481_" class="st6" d="M117.7,78.7H103c-7.7,0-14-6.3-14-14V24.9c0-7.7,6.3-14,14-14h14.7c7.7,0,14,6.3,14,14v39.8
		C131.7,72.4,125.4,78.7,117.7,78.7z"/>
	<path id="XMLID_5790_" class="st6" d="M137,48.9H73c-2.2,0-4.1-1.8-4.1-4.1l0,0c0-2.2,1.8-4.1,4.1-4.1h64c2.2,0,4.1,1.8,4.1,4.1
		l0,0C141.1,47.1,139.2,48.9,137,48.9z"/>
</g>
<g id="XMLID_1_">
	<g id="XMLID_739_">
		<path id="XMLID_818_" class="st7" d="M57.3,100.1c0,1.6-0.5,2.9-1.4,3.8s-2.3,1.3-4.1,1.3H49v-10h3.1c1.6,0,2.9,0.4,3.8,1.3
			S57.3,98.6,57.3,100.1z M55.1,100.2c0-2.1-0.9-3.2-2.8-3.2h-1.1v6.5h0.9C54.1,103.5,55.1,102.4,55.1,100.2z"/>
		<path id="XMLID_815_" class="st7" d="M64.7,105.2l-0.3-1h-0.1c-0.2,0.4-0.5,0.6-1,0.8s-0.9,0.3-1.4,0.3c-0.9,0-1.6-0.2-2-0.7
			c-0.5-0.5-0.7-1.2-0.7-2.1v-5h2.1v4.5c0,0.6,0.1,1,0.3,1.2c0.2,0.3,0.5,0.4,0.9,0.4c0.6,0,1-0.2,1.3-0.6c0.3-0.4,0.4-1,0.4-1.9
			v-3.6h2.1v7.6H64.7z M61.6,107.2c0-0.7,0.4-1,1.1-1c0.8,0,1.1,0.3,1.1,1c0,0.3-0.1,0.6-0.3,0.8s-0.5,0.3-0.8,0.3
			C62,108.2,61.6,107.8,61.6,107.2z"/>
		<path id="XMLID_813_" class="st7" d="M75.5,105.2h-2.1v-4.5c0-0.6-0.1-1-0.3-1.2c-0.2-0.3-0.5-0.4-0.9-0.4c-0.6,0-1,0.2-1.3,0.6
			s-0.4,1-0.4,1.9v3.6h-2.1v-7.6H70l0.3,1h0.1c0.2-0.4,0.6-0.6,1-0.8s0.9-0.3,1.4-0.3c0.9,0,1.6,0.2,2,0.7c0.5,0.5,0.7,1.2,0.7,2.1
			V105.2z"/>
		<path id="XMLID_810_" class="st7" d="M84.3,105.2c0,1.1-0.3,1.9-1,2.5s-1.6,0.9-2.9,0.9c-1.1,0-2.1-0.2-2.9-0.5v-1.7
			c0.9,0.4,1.9,0.6,3,0.6c1.1,0,1.6-0.6,1.6-1.7v-0.2l0.1-0.9h-0.1c-0.5,0.8-1.2,1.1-2.2,1.1c-0.9,0-1.6-0.4-2.1-1.1
			s-0.8-1.7-0.8-2.9c0-1.3,0.3-2.2,0.8-2.9s1.2-1,2.2-1c0.9,0,1.7,0.4,2.2,1.1h0.1l0.2-1h1.8V105.2z M80.8,103.7
			c0.6,0,1-0.2,1.2-0.5c0.2-0.3,0.4-0.8,0.4-1.6v-0.3c0-0.8-0.1-1.4-0.4-1.8s-0.7-0.5-1.2-0.5c-1,0-1.5,0.8-1.5,2.3
			c0,0.8,0.1,1.3,0.4,1.7S80.3,103.7,80.8,103.7z"/>
		<path id="XMLID_808_" class="st7" d="M93.2,105.4c-2.4,0-3.6-1.3-3.6-3.9c0-1.3,0.3-2.3,1-3c0.6-0.7,1.6-1,2.8-1
			c0.9,0,1.7,0.2,2.4,0.5l-0.6,1.6c-0.3-0.1-0.6-0.2-0.9-0.3c-0.3-0.1-0.6-0.1-0.8-0.1c-1.1,0-1.6,0.8-1.6,2.3
			c0,1.5,0.5,2.2,1.6,2.2c0.4,0,0.8-0.1,1.1-0.2s0.7-0.3,1-0.5v1.8c-0.3,0.2-0.7,0.4-1,0.4S93.8,105.4,93.2,105.4z"/>
		<path id="XMLID_805_" class="st7" d="M102.8,105.2l-0.3-1h-0.1c-0.2,0.4-0.5,0.6-1,0.8s-0.9,0.3-1.4,0.3c-0.9,0-1.6-0.2-2-0.7
			c-0.5-0.5-0.7-1.2-0.7-2.1v-5h2.1v4.5c0,0.6,0.1,1,0.3,1.2c0.2,0.3,0.5,0.4,0.9,0.4c0.6,0,1-0.2,1.3-0.6s0.4-1,0.4-1.9v-3.6h2.1
			v7.6H102.8z M99.7,107.2c0-0.7,0.4-1,1.1-1c0.8,0,1.1,0.3,1.1,1c0,0.3-0.1,0.6-0.3,0.8s-0.5,0.3-0.8,0.3
			C100.1,108.2,99.7,107.8,99.7,107.2z"/>
		<path id="XMLID_803_" class="st7" d="M55.7,122h-2.1v-4.5c0-0.6-0.1-1-0.3-1.2s-0.5-0.4-0.9-0.4c-0.5,0-0.9,0.2-1.2,0.6
			c-0.2,0.4-0.4,1-0.4,1.9v3.6h-2.1v-7.6h1.6l0.3,1h0.1c0.2-0.4,0.5-0.6,0.9-0.8c0.4-0.2,0.8-0.3,1.3-0.3c1.1,0,1.9,0.4,2.3,1.1h0.2
			c0.2-0.4,0.5-0.6,0.9-0.8s0.8-0.3,1.4-0.3c0.9,0,1.5,0.2,2,0.7s0.7,1.2,0.7,2.1v5h-2.1v-4.5c0-0.6-0.1-1-0.3-1.2s-0.5-0.4-0.9-0.4
			c-0.5,0-0.9,0.2-1.1,0.5s-0.4,0.9-0.4,1.7V122z"/>
		<path id="XMLID_800_" class="st7" d="M67.5,122l-0.4-1H67c-0.4,0.4-0.7,0.7-1.1,0.9s-0.9,0.3-1.5,0.3c-0.7,0-1.3-0.2-1.7-0.6
			s-0.6-1-0.6-1.8c0-0.8,0.3-1.4,0.9-1.8s1.4-0.6,2.6-0.6l1.3,0v-0.3c0-0.8-0.4-1.2-1.2-1.2c-0.6,0-1.3,0.2-2.2,0.6l-0.7-1.4
			c0.9-0.5,1.9-0.7,2.9-0.7c1,0,1.8,0.2,2.4,0.7s0.8,1.1,0.8,2v5.1H67.5z M66.9,118.5l-0.8,0c-0.6,0-1.1,0.1-1.4,0.3
			c-0.3,0.2-0.4,0.5-0.4,0.9c0,0.6,0.3,0.9,1,0.9c0.5,0,0.9-0.1,1.2-0.4s0.4-0.6,0.4-1.1V118.5z"/>
		<path id="XMLID_798_" class="st7" d="M76.4,119.8c0,0.8-0.3,1.4-0.8,1.8s-1.4,0.6-2.4,0.6c-0.6,0-1,0-1.4-0.1
			c-0.4-0.1-0.8-0.2-1.1-0.3V120c0.4,0.2,0.8,0.3,1.3,0.5s0.9,0.2,1.3,0.2c0.8,0,1.1-0.2,1.1-0.7c0-0.2-0.1-0.3-0.2-0.4
			c-0.1-0.1-0.3-0.2-0.5-0.3s-0.6-0.3-1-0.5c-0.6-0.2-1-0.5-1.3-0.7s-0.5-0.5-0.6-0.7s-0.2-0.6-0.2-1c0-0.7,0.3-1.2,0.8-1.6
			s1.3-0.6,2.2-0.6c0.9,0,1.8,0.2,2.7,0.6l-0.6,1.5c-0.4-0.2-0.7-0.3-1.1-0.4c-0.3-0.1-0.7-0.2-1-0.2c-0.6,0-0.9,0.2-0.9,0.5
			c0,0.2,0.1,0.3,0.3,0.5s0.6,0.3,1.3,0.6c0.6,0.2,1,0.5,1.3,0.7c0.3,0.2,0.5,0.5,0.6,0.7C76.3,119.1,76.4,119.4,76.4,119.8z"/>
		<path id="XMLID_796_" class="st7" d="M83.4,119.8c0,0.8-0.3,1.4-0.8,1.8s-1.4,0.6-2.4,0.6c-0.6,0-1,0-1.4-0.1
			c-0.4-0.1-0.8-0.2-1.1-0.3V120c0.4,0.2,0.8,0.3,1.3,0.5s0.9,0.2,1.3,0.2c0.8,0,1.1-0.2,1.1-0.7c0-0.2-0.1-0.3-0.2-0.4
			c-0.1-0.1-0.3-0.2-0.5-0.3s-0.6-0.3-1-0.5c-0.6-0.2-1-0.5-1.3-0.7s-0.5-0.5-0.6-0.7s-0.2-0.6-0.2-1c0-0.7,0.3-1.2,0.8-1.6
			s1.3-0.6,2.2-0.6c0.9,0,1.8,0.2,2.7,0.6l-0.6,1.5c-0.4-0.2-0.7-0.3-1.1-0.4c-0.3-0.1-0.7-0.2-1-0.2c-0.6,0-0.9,0.2-0.9,0.5
			c0,0.2,0.1,0.3,0.3,0.5s0.6,0.3,1.3,0.6c0.6,0.2,1,0.5,1.3,0.7c0.3,0.2,0.5,0.5,0.6,0.7C83.3,119.1,83.4,119.4,83.4,119.8z"/>
		<path id="XMLID_793_" class="st7" d="M89.9,122l-0.4-1h-0.1c-0.4,0.4-0.7,0.7-1.1,0.9s-0.9,0.3-1.5,0.3c-0.7,0-1.3-0.2-1.7-0.6
			s-0.6-1-0.6-1.8c0-0.8,0.3-1.4,0.9-1.8s1.4-0.6,2.6-0.6l1.3,0v-0.3c0-0.8-0.4-1.2-1.2-1.2c-0.6,0-1.3,0.2-2.2,0.6l-0.7-1.4
			c0.9-0.5,1.9-0.7,2.9-0.7c1,0,1.8,0.2,2.4,0.7s0.8,1.1,0.8,2v5.1H89.9z M89.2,118.5l-0.8,0c-0.6,0-1.1,0.1-1.4,0.3
			c-0.3,0.2-0.4,0.5-0.4,0.9c0,0.6,0.3,0.9,1,0.9c0.5,0,0.9-0.1,1.2-0.4s0.4-0.6,0.4-1.1V118.5z"/>
		<path id="XMLID_790_" class="st7" d="M100.1,122c0,1.1-0.3,1.9-1,2.5s-1.6,0.9-2.9,0.9c-1.1,0-2.1-0.2-2.9-0.5v-1.7
			c0.9,0.4,1.9,0.6,3,0.6c1.1,0,1.6-0.6,1.6-1.7V122l0.1-0.9H98c-0.5,0.8-1.2,1.1-2.2,1.1c-0.9,0-1.6-0.4-2.1-1.1s-0.8-1.7-0.8-2.9
			c0-1.3,0.3-2.2,0.8-2.9s1.2-1,2.2-1c0.9,0,1.7,0.4,2.2,1.1h0.1l0.2-1h1.8V122z M96.6,120.5c0.6,0,1-0.2,1.2-0.5
			c0.2-0.3,0.4-0.8,0.4-1.6v-0.3c0-0.8-0.1-1.4-0.4-1.8s-0.7-0.5-1.2-0.5c-1,0-1.5,0.8-1.5,2.3c0,0.8,0.1,1.3,0.4,1.7
			S96.1,120.5,96.6,120.5z"/>
		<path id="XMLID_787_" class="st7" d="M105.8,122.2c-1.2,0-2.2-0.3-2.9-1c-0.7-0.7-1-1.6-1-2.9c0-1.3,0.3-2.3,1-3s1.5-1,2.7-1
			c1.1,0,1.9,0.3,2.5,0.9s0.9,1.5,0.9,2.5v1H104c0,0.6,0.2,1.1,0.5,1.4s0.8,0.5,1.4,0.5c0.5,0,0.9,0,1.3-0.1s0.8-0.2,1.3-0.5v1.6
			c-0.4,0.2-0.8,0.3-1.2,0.4C106.9,122.1,106.4,122.2,105.8,122.2z M105.5,115.7c-0.4,0-0.8,0.1-1,0.4c-0.3,0.3-0.4,0.7-0.4,1.2h2.9
			c0-0.5-0.1-0.9-0.4-1.2S105.9,115.7,105.5,115.7z"/>
		<path id="XMLID_785_" class="st7" d="M56.8,138.8h-1.3v-4.7h-5.1v4.7h-1.3v-10h1.3v4.2h5.1v-4.2h1.3V138.8z"/>
		<path id="XMLID_781_" class="st7" d="M64,138.8l-0.2-1.1h-0.1c-0.4,0.5-0.7,0.8-1.1,1s-0.8,0.2-1.4,0.2c-0.7,0-1.3-0.2-1.7-0.6
			c-0.4-0.4-0.6-0.9-0.6-1.6c0-1.5,1.2-2.3,3.6-2.4l1.3,0v-0.4c0-0.6-0.1-1-0.4-1.3s-0.6-0.4-1.2-0.4c-0.4,0-0.8,0.1-1.1,0.2
			s-0.7,0.3-1,0.4l-0.4-0.9c0.4-0.2,0.8-0.4,1.2-0.5c0.4-0.1,0.9-0.2,1.3-0.2c0.9,0,1.6,0.2,2,0.6c0.4,0.4,0.7,1,0.7,1.9v5.1H64z
			 M63.1,130.3c-0.2,0-0.4,0-0.6-0.1c-0.2-0.1-0.4-0.2-0.6-0.3s-0.4-0.2-0.5-0.3s-0.3-0.1-0.5-0.1c-0.2,0-0.4,0.1-0.5,0.2
			c-0.1,0.1-0.2,0.3-0.3,0.6h-0.7c0.1-0.6,0.2-1,0.5-1.3c0.3-0.3,0.6-0.5,1.1-0.5c0.2,0,0.4,0,0.6,0.1s0.4,0.2,0.6,0.3
			s0.3,0.2,0.5,0.3s0.3,0.1,0.5,0.1c0.2,0,0.4-0.1,0.5-0.2s0.2-0.3,0.3-0.6h0.7c-0.1,0.5-0.2,1-0.5,1.3
			C63.9,130.2,63.6,130.3,63.1,130.3z M61.5,138c0.7,0,1.2-0.2,1.6-0.6s0.6-0.9,0.6-1.6v-0.7l-1.1,0c-0.9,0-1.5,0.2-1.9,0.4
			s-0.6,0.6-0.6,1.1c0,0.4,0.1,0.7,0.4,0.9S61,138,61.5,138z"/>
		<path id="XMLID_779_" class="st7" d="M66,131.3h1.3l1.6,4.3c0.3,0.9,0.6,1.6,0.6,2h0.1c0-0.2,0.1-0.5,0.3-0.9
			c0.1-0.5,0.3-0.8,0.4-1.1l1.5-4.3h1.3l-3.2,8.5c-0.3,0.8-0.7,1.4-1.1,1.8c-0.4,0.4-1,0.5-1.6,0.5c-0.3,0-0.7,0-1-0.1v-1
			c0.2,0.1,0.5,0.1,0.8,0.1c0.4,0,0.7-0.1,1-0.3s0.5-0.6,0.7-1l0.4-1L66,131.3z"/>
		<path id="XMLID_777_" class="st7" d="M79.2,138.8H78v-10.6h1.2V138.8z"/>
		<path id="XMLID_775_" class="st7" d="M82.8,131.3v4.8c0,0.6,0.1,1.1,0.4,1.4s0.7,0.4,1.3,0.4c0.8,0,1.3-0.2,1.7-0.6
			c0.4-0.4,0.5-1.1,0.5-2.1v-3.9h1.2v7.5h-1l-0.2-1h-0.1c-0.2,0.4-0.5,0.6-1,0.8s-0.9,0.3-1.4,0.3c-0.9,0-1.6-0.2-2-0.6
			s-0.7-1.1-0.7-2.1v-4.9H82.8z"/>
		<path id="XMLID_771_" class="st7" d="M96.8,135.1c0,1.2-0.3,2.2-0.9,2.9c-0.6,0.7-1.5,1-2.6,1c-0.7,0-1.3-0.2-1.8-0.5
			c-0.5-0.3-0.9-0.8-1.2-1.4c-0.3-0.6-0.4-1.3-0.4-2.1c0-1.2,0.3-2.2,0.9-2.9c0.6-0.7,1.5-1,2.6-1c1.1,0,1.9,0.3,2.5,1
			S96.8,133.9,96.8,135.1z M90.9,130.2c0.6-0.6,1-1.1,1.2-1.4s0.4-0.5,0.5-0.7h1.3c0.2,0.5,0.8,1.2,1.8,2.1v0.2h-0.9
			c-0.4-0.2-0.9-0.7-1.5-1.3c-0.6,0.6-1.1,1-1.5,1.3h-0.8V130.2z M91.1,135.1c0,0.9,0.2,1.7,0.6,2.1s0.9,0.7,1.6,0.7
			c0.7,0,1.3-0.2,1.6-0.7c0.4-0.5,0.6-1.2,0.6-2.1s-0.2-1.7-0.6-2.1s-0.9-0.7-1.7-0.7C91.8,132.2,91.1,133.2,91.1,135.1z"/>
		<path id="XMLID_769_" class="st7" d="M103.8,138.8V134c0-0.6-0.1-1.1-0.4-1.4s-0.7-0.4-1.3-0.4c-0.8,0-1.3,0.2-1.7,0.6
			s-0.5,1.1-0.5,2.1v3.9h-1.2v-7.5h1l0.2,1h0.1c0.2-0.4,0.6-0.7,1-0.9c0.4-0.2,0.9-0.3,1.4-0.3c0.9,0,1.6,0.2,2.1,0.7
			c0.4,0.4,0.7,1.1,0.7,2.1v4.9H103.8z"/>
		<path id="XMLID_767_" class="st7" d="M112.7,138.8l-2.8-7.5h1.3l1.6,4.4c0.3,0.9,0.5,1.6,0.6,2h0.1c0-0.1,0-0.1,0.1-0.2
			s0-0.2,0.1-0.2s0.2-0.6,0.5-1.5l1.6-4.4h1.3l-2.9,7.5H112.7z"/>
		<path id="XMLID_765_" class="st7" d="M119.3,131.3v4.8c0,0.6,0.1,1.1,0.4,1.4s0.7,0.4,1.3,0.4c0.8,0,1.3-0.2,1.7-0.6
			c0.4-0.4,0.5-1.1,0.5-2.1v-3.9h1.2v7.5h-1l-0.2-1h-0.1c-0.2,0.4-0.5,0.6-1,0.8s-0.9,0.3-1.4,0.3c-0.9,0-1.6-0.2-2-0.6
			s-0.7-1.1-0.7-2.1v-4.9H119.3z"/>
		<path id="XMLID_762_" class="st7" d="M126.7,129.3c0-0.3,0.1-0.5,0.2-0.6s0.3-0.2,0.5-0.2c0.2,0,0.4,0.1,0.5,0.2
			c0.1,0.1,0.2,0.3,0.2,0.6c0,0.3-0.1,0.5-0.2,0.6c-0.1,0.1-0.3,0.2-0.5,0.2c-0.2,0-0.4-0.1-0.5-0.2S126.7,129.6,126.7,129.3z
			 M128,138.8h-1.2v-7.5h1.2V138.8z"/>
		<path id="XMLID_760_" class="st7" d="M50.2,151.8l0.4-0.5l0.5-0.6l2.4-2.5h1.4l-3,3.2l3.2,4.3h-1.5l-2.6-3.5l-0.9,0.7v2.8H49V145
			h1.2v5.6V151.8L50.2,151.8z"/>
		<path id="XMLID_758_" class="st7" d="M61.6,155.6v-4.8c0-0.6-0.1-1.1-0.4-1.4s-0.7-0.4-1.3-0.4c-0.8,0-1.3,0.2-1.7,0.6
			s-0.5,1.1-0.5,2.1v3.9h-1.2V145h1.2v3.1c0,0.4,0,0.8-0.1,1.1h0.1c0.2-0.4,0.5-0.6,1-0.9s0.9-0.3,1.4-0.3c0.9,0,1.6,0.2,2.1,0.7
			c0.5,0.4,0.7,1.1,0.7,2.1v4.9H61.6z"/>
		<path id="XMLID_754_" class="st7" d="M71.6,151.9c0,1.2-0.3,2.2-0.9,2.9c-0.6,0.7-1.5,1-2.6,1c-0.7,0-1.3-0.2-1.8-0.5
			c-0.5-0.3-0.9-0.8-1.2-1.4c-0.3-0.6-0.4-1.3-0.4-2.1c0-1.2,0.3-2.2,0.9-2.9c0.6-0.7,1.5-1,2.6-1c1.1,0,1.9,0.3,2.5,1
			S71.6,150.7,71.6,151.9z M66,151.9c0,0.9,0.2,1.7,0.6,2.1s0.9,0.7,1.6,0.7c0.7,0,1.3-0.2,1.6-0.7c0.4-0.5,0.6-1.2,0.6-2.1
			s-0.2-1.7-0.6-2.1s-0.9-0.7-1.7-0.7C66.7,149,66,150,66,151.9z M69.7,145.4c0,0.6-0.4,1-1.1,1.2l-0.1,0.7h-0.8l-0.1-1.2
			c0.3-0.1,0.6-0.1,0.8-0.2c0.2-0.1,0.3-0.3,0.3-0.5c0-0.4-0.3-0.6-0.9-0.6c-0.2,0-0.5,0-0.7,0.1v-0.7c0.2-0.1,0.4-0.1,0.8-0.1
			C69.1,144.1,69.7,144.6,69.7,145.4z"/>
		<path id="XMLID_751_" class="st7" d="M76.8,155.8c-1.1,0-2-0.3-2.6-1s-1-1.6-1-2.8c0-1.2,0.3-2.2,0.9-2.9c0.6-0.7,1.4-1.1,2.4-1.1
			c0.9,0,1.7,0.3,2.3,0.9s0.8,1.4,0.8,2.5v0.7h-5.1c0,0.9,0.2,1.5,0.6,1.9s1,0.7,1.7,0.7c0.4,0,0.8,0,1.1-0.1
			c0.4-0.1,0.8-0.2,1.3-0.4v1.1c-0.4,0.2-0.8,0.3-1.2,0.4C77.7,155.7,77.3,155.8,76.8,155.8z M76.5,149c-0.6,0-1.1,0.2-1.4,0.6
			s-0.5,0.9-0.6,1.6h3.8c0-0.7-0.2-1.2-0.5-1.6S77,149,76.5,149z"/>
		<path id="XMLID_749_" class="st7" d="M90.2,155.6v-4.8c0-0.6-0.1-1.1-0.4-1.4s-0.7-0.4-1.3-0.4c-0.8,0-1.3,0.2-1.7,0.6
			s-0.5,1.1-0.5,2.1v3.9h-1.2v-7.5h1l0.2,1h0.1c0.2-0.4,0.6-0.7,1-0.9c0.4-0.2,0.9-0.3,1.4-0.3c0.9,0,1.6,0.2,2.1,0.7
			c0.4,0.4,0.7,1.1,0.7,2.1v4.9H90.2z"/>
		<path id="XMLID_747_" class="st7" d="M98.9,155.6v-4.8c0-0.6-0.1-1.1-0.4-1.4s-0.7-0.4-1.3-0.4c-0.8,0-1.3,0.2-1.7,0.6
			s-0.5,1.1-0.5,2.1v3.9h-1.2V145H95v3.1c0,0.4,0,0.8-0.1,1.1H95c0.2-0.4,0.5-0.6,1-0.9s0.9-0.3,1.4-0.3c0.9,0,1.6,0.2,2.1,0.7
			c0.5,0.4,0.7,1.1,0.7,2.1v4.9H98.9z"/>
		<path id="XMLID_743_" class="st7" d="M105.6,155.8c-1.1,0-2-0.3-2.6-1s-1-1.6-1-2.8c0-1.2,0.3-2.2,0.9-2.9
			c0.6-0.7,1.4-1.1,2.4-1.1c0.9,0,1.7,0.3,2.3,0.9s0.8,1.4,0.8,2.5v0.7h-5.1c0,0.9,0.2,1.5,0.6,1.9s1,0.7,1.7,0.7
			c0.4,0,0.8,0,1.1-0.1c0.4-0.1,0.8-0.2,1.3-0.4v1.1c-0.4,0.2-0.8,0.3-1.2,0.4C106.5,155.7,106.1,155.8,105.6,155.8z M105.3,149
			c-0.6,0-1.1,0.2-1.4,0.6s-0.5,0.9-0.6,1.6h3.8c0-0.7-0.2-1.2-0.5-1.6S105.9,149,105.3,149z M104.4,147c0.2-0.2,0.4-0.5,0.7-0.9
			s0.5-0.8,0.7-1.1h1.5v0.1c-0.2,0.3-0.5,0.7-0.9,1.1s-0.8,0.8-1.1,1h-0.8V147z"/>
		<path id="XMLID_740_" class="st7" d="M110.1,154.9c0-0.3,0.1-0.5,0.2-0.7s0.4-0.2,0.6-0.2c0.3,0,0.5,0.1,0.6,0.2s0.2,0.4,0.2,0.7
			s-0.1,0.5-0.2,0.7s-0.4,0.3-0.6,0.3c-0.3,0-0.5-0.1-0.6-0.3S110.1,155.2,110.1,154.9z M111.4,152.8h-0.8l-0.3-7.2h1.5L111.4,152.8
			z"/>
	</g>
</g>
<polygon id="XMLID_4027_" class="st1" points="19.2,166.5 19.2,147.4 0,166.6 "/>
</svg>
