<?xml version="1.0" encoding="utf-8"?>
<!-- Generator: Adobe Illustrator 19.0.0, SVG Export Plug-In . SVG Version: 6.00 Build 0)  -->
<svg version="1.1" id="Layer_1" xmlns="http://www.w3.org/2000/svg" xmlns:xlink="http://www.w3.org/1999/xlink" x="0px" y="0px"
	 viewBox="0 0 166 167" style="enable-background:new 0 0 166 167;" xml:space="preserve">
<style type="text/css">
	.st0{fill:#FFFFFF;}
	.st1{fill:#5B602A;}
	.st2{fill:#CD202B;}
	.st3{fill:none;stroke:#B78534;stroke-width:4;stroke-miterlimit:10;}
	.st4{fill:#EE2F52;}
	.st5{fill:#EC5624;}
	.st6{fill:#41BA89;}
	.st7{fill:#B78534;}
	.st8{fill:#E1A042;}
	.st9{fill:#404040;}
</style>
<polygon id="XMLID_7079_" class="st0" points="19.2,166.2 19.2,147.1 0,166.3 "/>
<rect id="XMLID_7078_" x="18.6" y="0" class="st1" width="147.4" height="167"/>
<rect id="XMLID_7085_" x="18.4" y="84.5" class="st0" width="147.7" height="81.8"/>
<g id="XMLID_5781_">
	<circle id="XMLID_5782_" class="st2" cx="27.5" cy="97.8" r="4"/>
	<path id="XMLID_5783_" class="st2" d="M23.4,97.8h8.1v10.1C31.5,107.9,23.4,103,23.4,97.8z"/>
	<circle id="XMLID_2499_" class="st2" cx="35.5" cy="97.7" r="4"/>
	<path id="XMLID_2498_" class="st2" d="M39.5,97.7h-8.1v10.1C31.5,107.7,39.5,102.8,39.5,97.7z"/>
</g>
<g id="XMLID_2474_">
	<path id="XMLID_2496_" class="st3" d="M117.9,61H73.4c-7.7,0-14-6.3-14-14V25.6c0-7.7,6.3-14,14-14h44.5c7.7,0,14,6.3,14,14V47
		C131.9,54.7,125.6,61,117.9,61z"/>
	<circle id="XMLID_5784_" class="st4" cx="81.8" cy="45.1" r="16.5"/>
	<circle id="XMLID_5785_" class="st5" cx="102.6" cy="37.3" r="10.4"/>
	<circle id="XMLID_5786_" class="st6" cx="118.5" cy="37.2" r="11.6"/>
	<path id="XMLID_2492_" class="st7" d="M119.9,75H71.6c-7.7,0-14-6.3-14-14V43.1c0-7.7,6.3-4.5,14-4.5h48.2c7.7,0,14-3,14,4.7V61
		C133.9,68.7,127.6,75,119.9,75z"/>
	<path id="XMLID_5787_" class="st8" d="M135.6,44.8H54.4c-2,0-3.6-1.6-3.6-3.6l0,0c0-2,1.6-3.6,3.6-3.6h81.2c2,0,3.6,1.6,3.6,3.6
		l0,0C139.2,43.2,137.6,44.8,135.6,44.8z"/>
</g>
<g id="XMLID_1_">
	<g id="XMLID_1306_">
		<path id="XMLID_1438_" class="st9" d="M47.9,99.3h3.9v5.1c-0.6,0.2-1.2,0.4-1.8,0.4c-0.6,0.1-1.1,0.1-1.7,0.1
			c-1.5,0-2.6-0.4-3.4-1.3c-0.8-0.9-1.2-2.1-1.2-3.8c0-1.6,0.5-2.8,1.4-3.7c0.9-0.9,2.2-1.3,3.8-1.3c1,0,2,0.2,2.9,0.6l-0.7,1.7
			c-0.7-0.4-1.5-0.5-2.2-0.5c-0.9,0-1.6,0.3-2.2,0.9c-0.5,0.6-0.8,1.4-0.8,2.4c0,1.1,0.2,1.9,0.7,2.4c0.4,0.6,1.1,0.8,1.9,0.8
			c0.4,0,0.9,0,1.3-0.1v-2h-1.9V99.3z"/>
		<path id="XMLID_1435_" class="st9" d="M53.9,95.4c0-0.7,0.4-1,1.1-1c0.7,0,1.1,0.3,1.1,1c0,0.3-0.1,0.6-0.3,0.7
			c-0.2,0.2-0.5,0.3-0.8,0.3C54.3,96.4,53.9,96.1,53.9,95.4z M56,104.9h-2v-7.5h2V104.9z"/>
		<path id="XMLID_1431_" class="st9" d="M65,101.1c0,1.2-0.3,2.2-1,2.9c-0.6,0.7-1.5,1-2.7,1c-0.7,0-1.4-0.2-1.9-0.5s-1-0.8-1.3-1.4
			c-0.3-0.6-0.4-1.3-0.4-2.1c0-1.2,0.3-2.2,1-2.9c0.6-0.7,1.5-1,2.7-1c0.7,0,1.4,0.2,1.9,0.5c0.6,0.3,1,0.8,1.3,1.4
			S65,100.3,65,101.1z M59.8,101.1c0,0.7,0.1,1.3,0.4,1.7c0.2,0.4,0.6,0.6,1.2,0.6c0.5,0,0.9-0.2,1.2-0.6c0.2-0.4,0.4-0.9,0.4-1.7
			c0-0.7-0.1-1.3-0.4-1.7c-0.2-0.4-0.6-0.6-1.2-0.6c-0.5,0-0.9,0.2-1.2,0.6S59.8,100.3,59.8,101.1z M63.1,94.9
			c0,0.7-0.4,1.1-1.1,1.3l-0.1,0.5h-1.2l-0.2-1c0.3-0.1,0.6-0.1,0.7-0.3c0.1-0.1,0.2-0.3,0.2-0.4c0-0.1,0-0.3-0.1-0.3
			s-0.2-0.1-0.4-0.1c-0.3,0-0.6,0.1-0.9,0.2v-1.1c0.1,0,0.3-0.1,0.6-0.1c0.2,0,0.4,0,0.6,0c0.6,0,1.1,0.1,1.4,0.4
			C62.9,94.1,63.1,94.4,63.1,94.9z"/>
		<path id="XMLID_1429_" class="st9" d="M73.4,103.4c0.4,0,0.8-0.1,1.3-0.2v1.5c-0.5,0.2-1.1,0.3-1.9,0.3c-0.8,0-1.4-0.2-1.8-0.6
			c-0.4-0.4-0.6-1-0.6-1.9v-3.6h-1V98l1.1-0.7l0.6-1.6h1.3v1.6h2.1v1.5h-2.1v3.6c0,0.3,0.1,0.5,0.2,0.6
			C72.9,103.3,73.2,103.4,73.4,103.4z"/>
		<path id="XMLID_1427_" class="st9" d="M80.4,97.2c0.3,0,0.5,0,0.7,0.1L81,99.2c-0.2,0-0.4-0.1-0.6-0.1c-0.7,0-1.2,0.2-1.5,0.5
			s-0.5,0.8-0.5,1.4v3.8h-2v-7.5h1.6l0.3,1.3h0.1c0.2-0.4,0.5-0.8,0.9-1C79.5,97.3,80,97.2,80.4,97.2z"/>
		<path id="XMLID_1423_" class="st9" d="M87.1,104.9l-0.4-1h-0.1c-0.3,0.4-0.7,0.7-1.1,0.9s-0.8,0.3-1.4,0.3c-0.7,0-1.3-0.2-1.7-0.6
			c-0.4-0.4-0.6-1-0.6-1.8c0-0.8,0.3-1.4,0.8-1.8c0.6-0.4,1.4-0.6,2.5-0.6l1.3,0v-0.3c0-0.8-0.4-1.1-1.2-1.1c-0.6,0-1.3,0.2-2.1,0.5
			l-0.7-1.4c0.9-0.5,1.8-0.7,2.9-0.7c1,0,1.8,0.2,2.3,0.7c0.5,0.4,0.8,1.1,0.8,2v5H87.1z M86.5,101.4l-0.8,0c-0.6,0-1,0.1-1.3,0.3
			s-0.4,0.5-0.4,0.9c0,0.6,0.3,0.9,1,0.9c0.5,0,0.9-0.1,1.1-0.4c0.3-0.3,0.4-0.6,0.4-1.1V101.4z M84.2,96.5v-0.2
			c0.8-0.9,1.3-1.6,1.6-2h2.3v0.1c-0.2,0.2-0.6,0.6-1.2,1c-0.6,0.5-1,0.8-1.3,1H84.2z"/>
		<path id="XMLID_1420_" class="st9" d="M90.6,95.4c0-0.7,0.4-1,1.1-1s1.1,0.3,1.1,1c0,0.3-0.1,0.6-0.3,0.7
			c-0.2,0.2-0.5,0.3-0.8,0.3C91,96.4,90.6,96.1,90.6,95.4z M92.7,104.9h-2v-7.5h2V104.9z"/>
		<path id="XMLID_1418_" class="st9" d="M101.5,105c-2.3,0-3.5-1.3-3.5-3.9c0-1.3,0.3-2.3,1-2.9c0.6-0.7,1.5-1,2.7-1
			c0.9,0,1.6,0.2,2.3,0.5l-0.6,1.6c-0.3-0.1-0.6-0.2-0.9-0.3s-0.6-0.1-0.8-0.1c-1.1,0-1.6,0.8-1.6,2.3c0,1.5,0.5,2.2,1.6,2.2
			c0.4,0,0.8-0.1,1.1-0.2c0.3-0.1,0.7-0.3,1-0.5v1.8c-0.3,0.2-0.7,0.4-1,0.4C102.4,105,102,105,101.5,105z"/>
		<path id="XMLID_1414_" class="st9" d="M110.3,104.9l-0.4-1h-0.1c-0.3,0.4-0.7,0.7-1.1,0.9s-0.8,0.3-1.4,0.3
			c-0.7,0-1.3-0.2-1.7-0.6c-0.4-0.4-0.6-1-0.6-1.8c0-0.8,0.3-1.4,0.8-1.8s1.4-0.6,2.5-0.6l1.3,0v-0.3c0-0.8-0.4-1.1-1.2-1.1
			c-0.6,0-1.3,0.2-2.1,0.5l-0.7-1.4c0.9-0.5,1.8-0.7,2.9-0.7c1,0,1.8,0.2,2.3,0.7c0.5,0.4,0.8,1.1,0.8,2v5H110.3z M110.1,96.5
			c-0.7-0.4-1.2-0.8-1.6-1.2c-0.3,0.4-0.9,0.8-1.5,1.2h-1.4v-0.2c0.8-0.8,1.4-1.5,1.7-2h2.4c0.1,0.2,0.4,0.5,0.7,1s0.7,0.8,1,1.1
			v0.2H110.1z M109.7,101.4l-0.8,0c-0.6,0-1,0.1-1.3,0.3c-0.3,0.2-0.4,0.5-0.4,0.9c0,0.6,0.3,0.9,1,0.9c0.5,0,0.9-0.1,1.1-0.4
			c0.3-0.3,0.4-0.6,0.4-1.1V101.4z"/>
		<path id="XMLID_1412_" class="st9" d="M112.8,97.3h2.2l1.4,4.2c0.1,0.4,0.2,0.8,0.2,1.3h0c0-0.5,0.1-0.9,0.3-1.3l1.4-4.2h2.2
			l-3.2,8.5c-0.3,0.8-0.7,1.4-1.2,1.8c-0.5,0.4-1.2,0.6-1.9,0.6c-0.4,0-0.7,0-1-0.1v-1.6c0.2,0.1,0.5,0.1,0.8,0.1
			c0.4,0,0.7-0.1,1-0.3c0.3-0.2,0.5-0.6,0.6-1l0.1-0.4L112.8,97.3z"/>
		<path id="XMLID_1410_" class="st9" d="M48.6,121.4l-3.2-8.6h-0.1c0.1,0.7,0.1,1.6,0.1,2.7v6h-1.1v-9.8h1.8l3,8.1h0.1l3.1-8.1h1.8
			v9.8h-1.2v-6c0-0.7,0-1.5,0.1-2.6h-0.1l-3.3,8.6H48.6z"/>
		<path id="XMLID_1406_" class="st9" d="M63,117.7c0,1.2-0.3,2.1-0.9,2.8c-0.6,0.7-1.5,1-2.5,1c-0.7,0-1.3-0.2-1.8-0.5
			c-0.5-0.3-0.9-0.8-1.2-1.3c-0.3-0.6-0.4-1.3-0.4-2c0-1.2,0.3-2.1,0.9-2.8c0.6-0.7,1.4-1,2.5-1c1,0,1.9,0.3,2.5,1
			C62.7,115.6,63,116.5,63,117.7z M57.4,117.7c0,0.9,0.2,1.6,0.5,2.1s0.9,0.7,1.6,0.7c0.7,0,1.2-0.2,1.6-0.7s0.6-1.2,0.6-2.1
			c0-0.9-0.2-1.6-0.6-2.1s-0.9-0.7-1.6-0.7C58.1,114.9,57.4,115.8,57.4,117.7z M58.6,112.9c0.2-0.2,0.4-0.5,0.6-0.9
			c0.3-0.4,0.5-0.8,0.7-1.1h1.5v0.1c-0.2,0.3-0.5,0.6-0.9,1.1c-0.4,0.4-0.8,0.8-1,1h-0.8V112.9z"/>
		<path id="XMLID_1404_" class="st9" d="M69.9,121.4v-4.7c0-0.6-0.1-1-0.4-1.3s-0.7-0.4-1.3-0.4c-0.8,0-1.3,0.2-1.6,0.6
			c-0.3,0.4-0.5,1.1-0.5,2v3.8h-1.2V114h1l0.2,1h0.1c0.2-0.4,0.5-0.6,1-0.8c0.4-0.2,0.9-0.3,1.4-0.3c0.9,0,1.6,0.2,2,0.7
			s0.7,1.1,0.7,2v4.8H69.9z"/>
		<path id="XMLID_1401_" class="st9" d="M79.6,121.5c-1,0-1.7-0.3-2.2-1c-0.5-0.7-0.8-1.6-0.8-2.8c0-1.2,0.3-2.1,0.8-2.8
			c0.5-0.7,1.3-1,2.2-1c1,0,1.8,0.4,2.3,1.1H82l0.2-1h1v10.7h-1.2v-3.2c0-0.5,0-0.9,0.1-1.1h-0.1C81.4,121.1,80.6,121.5,79.6,121.5z
			 M79.8,120.5c0.7,0,1.2-0.2,1.6-0.6c0.3-0.4,0.5-1,0.5-2v-0.2c0-1-0.2-1.7-0.5-2.2s-0.9-0.7-1.6-0.7c-0.6,0-1.1,0.2-1.5,0.7
			c-0.3,0.5-0.5,1.2-0.5,2.1c0,0.9,0.2,1.6,0.5,2.1C78.7,120.3,79.2,120.5,79.8,120.5z"/>
		<path id="XMLID_1399_" class="st9" d="M86.6,114v4.8c0,0.6,0.1,1,0.4,1.3s0.7,0.4,1.2,0.4c0.8,0,1.3-0.2,1.7-0.6
			c0.3-0.4,0.5-1.1,0.5-2V114h1.2v7.4h-1l-0.2-1h-0.1c-0.2,0.4-0.5,0.6-0.9,0.8c-0.4,0.2-0.9,0.3-1.4,0.3c-0.9,0-1.6-0.2-2-0.6
			s-0.7-1.1-0.7-2V114H86.6z"/>
		<path id="XMLID_1395_" class="st9" d="M98.5,121.4l-0.2-1h-0.1c-0.4,0.5-0.7,0.8-1.1,0.9c-0.4,0.2-0.8,0.2-1.4,0.2
			c-0.7,0-1.3-0.2-1.7-0.6c-0.4-0.4-0.6-0.9-0.6-1.6c0-1.5,1.2-2.3,3.5-2.4l1.3,0v-0.4c0-0.6-0.1-1-0.4-1.2
			c-0.2-0.3-0.6-0.4-1.2-0.4c-0.4,0-0.8,0.1-1.1,0.2c-0.3,0.1-0.7,0.2-1,0.4l-0.4-0.9c0.4-0.2,0.8-0.4,1.2-0.5s0.9-0.2,1.3-0.2
			c0.9,0,1.6,0.2,2,0.6s0.7,1,0.7,1.9v5H98.5z M97.4,113h-0.8c-0.3-0.3-0.7-0.6-1.1-1c-0.4-0.4-0.7-0.8-0.8-1v-0.1h1.4
			c0.1,0.3,0.3,0.6,0.6,1.1c0.3,0.4,0.5,0.7,0.7,1V113z M96,120.5c0.7,0,1.2-0.2,1.6-0.5s0.6-0.9,0.6-1.6v-0.7l-1.1,0
			c-0.8,0-1.5,0.2-1.9,0.4c-0.4,0.2-0.6,0.6-0.6,1.1c0,0.4,0.1,0.7,0.4,0.9C95.3,120.4,95.6,120.5,96,120.5z"/>
		<path id="XMLID_1393_" class="st9" d="M107.7,120.5c0.2,0,0.3,0,0.6,0c0.2,0,0.4-0.1,0.5-0.1v0.9c-0.1,0-0.3,0.1-0.5,0.1
			c-0.2,0-0.5,0.1-0.7,0.1c-1.4,0-2.2-0.8-2.2-2.3v-4.3h-1v-0.6l1.1-0.5l0.5-1.6h0.7v1.7h2.1v0.9h-2.1v4.3c0,0.4,0.1,0.8,0.3,1
			S107.4,120.5,107.7,120.5z"/>
		<path id="XMLID_1391_" class="st9" d="M115.3,121.4v-4.7c0-0.6-0.1-1-0.4-1.3s-0.7-0.4-1.3-0.4c-0.7,0-1.3,0.2-1.6,0.6
			c-0.3,0.4-0.5,1.1-0.5,2.1v3.8h-1.2v-10.5h1.2v3.1c0,0.4,0,0.7-0.1,1h0.1c0.2-0.4,0.5-0.6,0.9-0.8s0.9-0.3,1.4-0.3
			c0.9,0,1.6,0.2,2,0.6c0.5,0.4,0.7,1.1,0.7,2.1v4.8H115.3z"/>
		<path id="XMLID_1388_" class="st9" d="M119.9,114v4.7c0,0.6,0.1,1,0.4,1.3s0.7,0.4,1.2,0.4c0.8,0,1.3-0.2,1.7-0.6
			c0.3-0.4,0.5-1.1,0.5-2V114h1.2v0.8c0.4-0.1,0.6-0.2,0.8-0.5c0.2-0.3,0.2-0.8,0.2-1.5h1.3l0.1,0.2c-0.1,0.9-0.4,1.5-0.8,1.9
			s-0.9,0.7-1.6,0.7v5.7h-1l-0.2-1h-0.1c-0.2,0.4-0.5,0.6-0.9,0.8c-0.4,0.2-0.9,0.3-1.4,0.3c-0.9,0-1.6-0.2-2-0.6
			c-0.5-0.4-0.7-1.1-0.7-2V114H119.9z M120.9,123c0-0.3,0.1-0.5,0.2-0.6c0.1-0.1,0.3-0.2,0.5-0.2c0.2,0,0.4,0.1,0.5,0.2
			c0.1,0.1,0.2,0.3,0.2,0.6c0,0.2-0.1,0.4-0.2,0.6s-0.3,0.2-0.5,0.2c-0.2,0-0.4-0.1-0.5-0.2C120.9,123.5,120.9,123.3,120.9,123z"/>
		<path id="XMLID_1386_" class="st9" d="M131,121.5c-1.1,0-1.9-0.3-2.5-1c-0.6-0.7-0.9-1.6-0.9-2.8c0-1.2,0.3-2.2,0.9-2.9
			c0.6-0.7,1.5-1,2.6-1c0.4,0,0.7,0,1.1,0.1c0.4,0.1,0.6,0.2,0.9,0.3l-0.4,1c-0.6-0.2-1.2-0.3-1.6-0.3c-0.7,0-1.3,0.2-1.6,0.7
			c-0.4,0.5-0.5,1.2-0.5,2.1c0,0.9,0.2,1.6,0.5,2s0.9,0.7,1.6,0.7c0.6,0,1.3-0.1,1.9-0.4v1.1C132.4,121.4,131.7,121.5,131,121.5z"/>
		<path id="XMLID_1384_" class="st9" d="M140.7,120.5c0.2,0,0.3,0,0.6,0c0.2,0,0.4-0.1,0.5-0.1v0.9c-0.1,0-0.3,0.1-0.5,0.1
			c-0.2,0-0.5,0.1-0.7,0.1c-1.4,0-2.2-0.8-2.2-2.3v-4.3h-1v-0.6l1.1-0.5l0.5-1.6h0.7v1.7h2.1v0.9h-2.1v4.3c0,0.4,0.1,0.8,0.3,1
			C140,120.4,140.3,120.5,140.7,120.5z"/>
		<path id="XMLID_1379_" class="st9" d="M146.3,121.5c-1.1,0-2-0.3-2.6-1c-0.6-0.7-0.9-1.6-0.9-2.8c0-1.2,0.3-2.1,0.9-2.8
			c0.6-0.7,1.4-1.1,2.4-1.1c0.9,0,1.7,0.3,2.2,0.9s0.8,1.4,0.8,2.4v0.7H144c0,0.8,0.2,1.5,0.6,1.9c0.4,0.4,1,0.7,1.7,0.7
			c0.4,0,0.8,0,1.1-0.1c0.4-0.1,0.8-0.2,1.2-0.4v1.1c-0.4,0.2-0.8,0.3-1.1,0.4S146.8,121.5,146.3,121.5z M148.1,113h-0.7
			c-0.5-0.3-1-0.7-1.4-1.1c-0.5,0.5-1,0.8-1.4,1.1h-0.7v-0.2c0.2-0.3,0.5-0.5,0.7-0.8c0.3-0.3,0.5-0.6,0.7-0.9h1.3
			c0.3,0.5,0.8,1,1.5,1.8V113z M146,114.9c-0.6,0-1,0.2-1.4,0.6s-0.5,0.9-0.6,1.6h3.8c0-0.7-0.2-1.2-0.5-1.6
			C147,115,146.6,114.9,146,114.9z M147.5,111.6c0.3-0.4,0.6-0.9,0.9-1.4h1.2v0.1c-0.4,0.5-0.8,0.9-1.4,1.4h-0.7V111.6z"/>
		<path id="XMLID_1377_" class="st9" d="M152.3,119.8l0.1,0.2c-0.2,1-0.6,2-1.2,3.2h-0.9c0.3-1.1,0.5-2.2,0.7-3.4H152.3z"/>
		<path id="XMLID_1375_" class="st9" d="M46.6,137c0.2,0,0.3,0,0.6,0s0.4-0.1,0.5-0.1v0.9c-0.1,0-0.3,0.1-0.5,0.1
			c-0.2,0-0.5,0.1-0.7,0.1c-1.4,0-2.2-0.8-2.2-2.3v-4.3h-1v-0.6l1.1-0.5l0.5-1.6h0.7v1.7h2.1v0.9h-2.1v4.3c0,0.4,0.1,0.8,0.3,1
			S46.2,137,46.6,137z"/>
		<path id="XMLID_1373_" class="st9" d="M54.1,137.9v-4.7c0-0.6-0.1-1-0.4-1.3s-0.7-0.4-1.3-0.4c-0.7,0-1.3,0.2-1.6,0.6
			c-0.3,0.4-0.5,1.1-0.5,2.1v3.8h-1.2v-10.5h1.2v3.1c0,0.4,0,0.7-0.1,1h0.1c0.2-0.4,0.5-0.6,0.9-0.8s0.9-0.3,1.4-0.3
			c0.9,0,1.6,0.2,2,0.6c0.5,0.4,0.7,1.1,0.7,2.1v4.8H54.1z"/>
		<path id="XMLID_1369_" class="st9" d="M64,134.2c0,1.2-0.3,2.1-0.9,2.8c-0.6,0.7-1.5,1-2.5,1c-0.7,0-1.3-0.2-1.8-0.5
			s-0.9-0.8-1.2-1.3c-0.3-0.6-0.4-1.3-0.4-2c0-1.2,0.3-2.1,0.9-2.8c0.6-0.7,1.4-1,2.5-1c1,0,1.9,0.3,2.5,1
			C63.7,132.1,64,133,64,134.2z M58.2,129.4c0.6-0.6,1-1,1.2-1.3c0.2-0.3,0.4-0.5,0.5-0.7h1.2c0.2,0.5,0.8,1.1,1.7,2v0.2H62
			c-0.4-0.2-0.9-0.6-1.5-1.2c-0.6,0.6-1.1,1-1.5,1.2h-0.8V129.4z M58.4,134.2c0,0.9,0.2,1.6,0.5,2.1s0.9,0.7,1.6,0.7
			c0.7,0,1.2-0.2,1.6-0.7c0.4-0.5,0.6-1.2,0.6-2.1c0-0.9-0.2-1.6-0.6-2.1s-0.9-0.7-1.6-0.7C59.1,131.4,58.4,132.3,58.4,134.2z"/>
		<path id="XMLID_1367_" class="st9" d="M70.9,137.9v-4.7c0-0.6-0.1-1-0.4-1.3s-0.7-0.4-1.3-0.4c-0.8,0-1.3,0.2-1.6,0.6
			c-0.3,0.4-0.5,1.1-0.5,2v3.8h-1.2v-7.4h1l0.2,1h0.1c0.2-0.4,0.5-0.6,1-0.8c0.4-0.2,0.9-0.3,1.4-0.3c0.9,0,1.6,0.2,2,0.7
			c0.4,0.4,0.7,1.1,0.7,2v4.8H70.9z"/>
		<path id="XMLID_1364_" class="st9" d="M79.3,137.8l0-0.9h-0.1c-0.5,0.7-1.3,1.1-2.3,1.1c-1,0-1.7-0.3-2.2-1
			c-0.5-0.7-0.8-1.6-0.8-2.8c0-1.2,0.3-2.1,0.8-2.8s1.3-1,2.2-1c1,0,1.8,0.4,2.3,1.1h0.1l0.2-1h1v7.5c0,1.1-0.3,1.9-0.8,2.4
			c-0.5,0.5-1.4,0.8-2.5,0.8c-1.1,0-2-0.2-2.7-0.5v-1.1c0.7,0.4,1.6,0.6,2.7,0.6c0.6,0,1.1-0.2,1.5-0.6c0.4-0.4,0.5-0.9,0.5-1.5
			V137.8z M77.2,137c0.7,0,1.3-0.2,1.6-0.6c0.3-0.4,0.5-1,0.5-1.9v-0.3c0-1-0.2-1.7-0.5-2.2c-0.3-0.4-0.9-0.7-1.6-0.7
			c-0.6,0-1.1,0.2-1.4,0.7c-0.3,0.5-0.5,1.2-0.5,2.1c0,0.9,0.2,1.6,0.5,2.1C76.1,136.8,76.6,137,77.2,137z"/>
		<path id="XMLID_1361_" class="st9" d="M89.1,138c-1,0-1.7-0.3-2.2-1c-0.5-0.7-0.8-1.6-0.8-2.8c0-1.2,0.3-2.1,0.8-2.8
			c0.5-0.7,1.3-1,2.2-1c1,0,1.8,0.4,2.3,1.1h0.1c0-0.1,0-0.3-0.1-0.5s0-0.5,0-0.5v-2.9h1.2v10.5h-1l-0.2-1h-0.1
			C90.8,137.7,90.1,138,89.1,138z M89.3,137c0.7,0,1.3-0.2,1.6-0.6c0.3-0.4,0.5-1.1,0.5-2v-0.2c0-1-0.2-1.8-0.5-2.2
			s-0.9-0.7-1.6-0.7c-0.6,0-1.1,0.2-1.4,0.7c-0.3,0.5-0.5,1.2-0.5,2.1c0,0.9,0.2,1.6,0.5,2.1C88.1,136.8,88.6,137,89.3,137z"/>
		<path id="XMLID_1358_" class="st9" d="M96.1,130.5v4.8c0,0.6,0.1,1,0.4,1.3s0.7,0.4,1.2,0.4c0.8,0,1.3-0.2,1.7-0.6
			c0.3-0.4,0.5-1.1,0.5-2v-3.8h1.2v7.4h-1l-0.2-1h-0.1c-0.2,0.4-0.5,0.6-0.9,0.8c-0.4,0.2-0.9,0.3-1.4,0.3c-0.9,0-1.6-0.2-2-0.6
			s-0.7-1.1-0.7-2v-4.8H96.1z M97.1,139.5c0-0.3,0.1-0.5,0.2-0.6c0.1-0.1,0.3-0.2,0.5-0.2c0.2,0,0.4,0.1,0.5,0.2
			c0.1,0.1,0.2,0.3,0.2,0.6c0,0.2-0.1,0.4-0.2,0.6c-0.1,0.1-0.3,0.2-0.5,0.2c-0.2,0-0.4-0.1-0.5-0.2S97.1,139.8,97.1,139.5z"/>
		<path id="XMLID_1356_" class="st9" d="M108.5,137.9v-4.7c0-0.6-0.1-1-0.4-1.3s-0.7-0.4-1.3-0.4c-0.8,0-1.3,0.2-1.6,0.6
			c-0.3,0.4-0.5,1.1-0.5,2v3.8h-1.2v-7.4h1l0.2,1h0.1c0.2-0.4,0.5-0.6,1-0.8c0.4-0.2,0.9-0.3,1.4-0.3c0.9,0,1.6,0.2,2,0.7
			s0.7,1.1,0.7,2v4.8H108.5z"/>
		<path id="XMLID_1353_" class="st9" d="M116.9,137.8l0-0.9h-0.1c-0.5,0.7-1.3,1.1-2.3,1.1c-1,0-1.7-0.3-2.2-1
			c-0.5-0.7-0.8-1.6-0.8-2.8c0-1.2,0.3-2.1,0.8-2.8c0.5-0.7,1.3-1,2.2-1c1,0,1.8,0.4,2.3,1.1h0.1l0.2-1h1v7.5c0,1.1-0.3,1.9-0.8,2.4
			s-1.4,0.8-2.5,0.8c-1.1,0-2-0.2-2.7-0.5v-1.1c0.7,0.4,1.6,0.6,2.7,0.6c0.6,0,1.1-0.2,1.5-0.6c0.4-0.4,0.5-0.9,0.5-1.5V137.8z
			 M114.7,137c0.7,0,1.3-0.2,1.6-0.6s0.5-1,0.5-1.9v-0.3c0-1-0.2-1.7-0.5-2.2s-0.9-0.7-1.6-0.7c-0.6,0-1.1,0.2-1.4,0.7
			c-0.3,0.5-0.5,1.2-0.5,2.1c0,0.9,0.2,1.6,0.5,2.1C113.6,136.8,114.1,137,114.7,137z"/>
		<path id="XMLID_1351_" class="st9" d="M125.6,137.9l-2.8-7.4h1.3l1.6,4.3c0.3,0.9,0.5,1.5,0.6,2h0.1c0-0.1,0-0.1,0.1-0.2
			c0-0.1,0-0.2,0.1-0.2s0.2-0.6,0.5-1.5l1.6-4.3h1.3l-2.8,7.4H125.6z"/>
		<path id="XMLID_1347_" class="st9" d="M137.4,134.2c0,1.2-0.3,2.1-0.9,2.8c-0.6,0.7-1.5,1-2.5,1c-0.7,0-1.3-0.2-1.8-0.5
			c-0.5-0.3-0.9-0.8-1.2-1.3s-0.4-1.3-0.4-2c0-1.2,0.3-2.1,0.9-2.8s1.4-1,2.5-1c0.5,0,0.9,0.1,1.3,0.2c0.4,0.2,0.8,0.4,1.1,0.7
			c0.2-0.1,0.4-0.2,0.5-0.3c0.1-0.1,0.2-0.3,0.3-0.6c0.1-0.2,0.1-0.6,0.1-1.1h1.3l0.1,0.2c-0.1,0.7-0.4,1.3-0.6,1.7
			s-0.7,0.7-1.1,0.9C137.2,132.7,137.4,133.4,137.4,134.2z M131.8,134.2c0,1,0.2,1.7,0.5,2.1s0.9,0.7,1.6,0.7c0.8,0,1.3-0.2,1.6-0.7
			s0.5-1.2,0.5-2.1c0-0.9-0.2-1.6-0.5-2.1s-0.9-0.7-1.7-0.7c-0.8,0-1.3,0.2-1.6,0.7C132,132.6,131.8,133.3,131.8,134.2z
			 M133.1,129.4c0.2-0.2,0.4-0.5,0.6-0.9c0.3-0.4,0.5-0.8,0.7-1.1h1.5v0.1c-0.2,0.3-0.5,0.6-0.9,1.1c-0.4,0.4-0.8,0.8-1,1h-0.8
			V129.4z"/>
		<path id="XMLID_1344_" class="st9" d="M139.4,128.5c0-0.3,0.1-0.5,0.2-0.6s0.3-0.2,0.5-0.2c0.2,0,0.4,0.1,0.5,0.2
			c0.1,0.1,0.2,0.3,0.2,0.6c0,0.3-0.1,0.5-0.2,0.6c-0.1,0.1-0.3,0.2-0.5,0.2c-0.2,0-0.4-0.1-0.5-0.2S139.4,128.8,139.4,128.5z
			 M140.7,137.9h-1.2v-7.4h1.2V137.9z"/>
		<path id="XMLID_1342_" class="st9" d="M49.1,154.4v-4.7c0-0.6-0.1-1-0.4-1.3s-0.7-0.4-1.3-0.4c-0.8,0-1.3,0.2-1.6,0.6
			c-0.3,0.4-0.5,1.1-0.5,2v3.8h-1.2V147h1l0.2,1h0.1c0.2-0.4,0.5-0.6,1-0.8c0.4-0.2,0.9-0.3,1.4-0.3c0.9,0,1.6,0.2,2,0.7
			s0.7,1.1,0.7,2v4.8H49.1z"/>
		<path id="XMLID_1339_" class="st9" d="M57.5,154.3l0-0.9h-0.1c-0.5,0.7-1.3,1.1-2.3,1.1c-1,0-1.7-0.3-2.2-1
			c-0.5-0.7-0.8-1.6-0.8-2.8c0-1.2,0.3-2.1,0.8-2.8c0.5-0.7,1.3-1,2.2-1c1,0,1.8,0.4,2.3,1.1h0.1l0.2-1h1v7.5c0,1.1-0.3,1.9-0.8,2.4
			s-1.4,0.8-2.5,0.8c-1.1,0-2-0.2-2.7-0.5v-1.1c0.7,0.4,1.6,0.6,2.7,0.6c0.6,0,1.1-0.2,1.5-0.6c0.4-0.4,0.5-0.9,0.5-1.5V154.3z
			 M55.4,153.6c0.7,0,1.3-0.2,1.6-0.6s0.5-1,0.5-1.9v-0.3c0-1-0.2-1.7-0.5-2.2s-0.9-0.7-1.6-0.7c-0.6,0-1.1,0.2-1.4,0.7
			c-0.3,0.5-0.5,1.2-0.5,2.1c0,0.9,0.2,1.6,0.5,2.1C54.3,153.3,54.8,153.6,55.4,153.6z"/>
		<path id="XMLID_1337_" class="st9" d="M62.2,147v4.7c0,0.6,0.1,1,0.4,1.3s0.7,0.4,1.2,0.4c0.8,0,1.3-0.2,1.7-0.6
			c0.3-0.4,0.5-1.1,0.5-2V147h1.2v0.8c0.4-0.1,0.6-0.2,0.8-0.5c0.2-0.3,0.2-0.8,0.2-1.5h1.3l0.1,0.2c-0.1,0.9-0.4,1.5-0.8,1.9
			s-0.9,0.7-1.6,0.7v5.7h-1l-0.2-1H66c-0.2,0.4-0.5,0.6-0.9,0.8c-0.4,0.2-0.9,0.3-1.4,0.3c-0.9,0-1.6-0.2-2-0.6s-0.7-1.1-0.7-2V147
			H62.2z"/>
		<path id="XMLID_1333_" class="st9" d="M76.8,150.7c0,1.2-0.3,2.1-0.9,2.8c-0.6,0.7-1.5,1-2.5,1c-0.7,0-1.3-0.2-1.8-0.5
			c-0.5-0.3-0.9-0.8-1.2-1.3c-0.3-0.6-0.4-1.3-0.4-2c0-1.2,0.3-2.1,0.9-2.8c0.6-0.7,1.4-1,2.5-1c0.5,0,0.9,0.1,1.3,0.2
			s0.8,0.4,1.1,0.7c0.2-0.1,0.4-0.2,0.5-0.3c0.1-0.1,0.2-0.3,0.3-0.6c0.1-0.2,0.1-0.6,0.1-1.1H78l0.1,0.2c-0.1,0.7-0.4,1.3-0.6,1.7
			s-0.7,0.7-1.1,0.9C76.6,149.2,76.8,149.9,76.8,150.7z M71.2,150.7c0,1,0.2,1.7,0.5,2.1c0.4,0.5,0.9,0.7,1.6,0.7
			c0.8,0,1.3-0.2,1.6-0.7c0.3-0.5,0.5-1.2,0.5-2.1c0-0.9-0.2-1.6-0.5-2.1c-0.3-0.5-0.9-0.7-1.7-0.7s-1.3,0.2-1.6,0.7
			C71.4,149.1,71.2,149.8,71.2,150.7z M74.2,146.1h-0.8c-0.3-0.3-0.7-0.6-1.1-1c-0.4-0.4-0.7-0.8-0.9-1v-0.1h1.4
			c0.1,0.3,0.3,0.6,0.6,1.1c0.3,0.4,0.5,0.7,0.7,1V146.1z"/>
		<path id="XMLID_1330_" class="st9" d="M78.7,145c0-0.3,0.1-0.5,0.2-0.6s0.3-0.2,0.5-0.2c0.2,0,0.4,0.1,0.5,0.2
			c0.1,0.1,0.2,0.3,0.2,0.6c0,0.3-0.1,0.5-0.2,0.6c-0.1,0.1-0.3,0.2-0.5,0.2c-0.2,0-0.4-0.1-0.5-0.2S78.7,145.3,78.7,145z M80,154.4
			h-1.2V147H80V154.4z"/>
		<path id="XMLID_1328_" class="st9" d="M89.2,154.4H88v-8.7h-3.1v-1.1h7.4v1.1h-3.1V154.4z"/>
		<path id="XMLID_1326_" class="st9" d="M96.7,146.9c0.3,0,0.6,0,0.9,0.1l-0.1,1.1c-0.3-0.1-0.5-0.1-0.8-0.1c-0.4,0-0.8,0.1-1.1,0.3
			c-0.3,0.2-0.6,0.5-0.8,0.9c-0.2,0.4-0.3,0.8-0.3,1.3v3.9h-1.2V147h1l0.1,1.4h0.1c0.3-0.5,0.6-0.9,1-1.1S96.3,146.9,96.7,146.9z"/>
		<path id="XMLID_1324_" class="st9" d="M100.1,147v4.8c0,0.6,0.1,1,0.4,1.3s0.7,0.4,1.2,0.4c0.8,0,1.3-0.2,1.7-0.6
			c0.3-0.4,0.5-1.1,0.5-2V147h1.2v7.4h-1l-0.2-1h-0.1c-0.2,0.4-0.5,0.6-0.9,0.8c-0.4,0.2-0.9,0.3-1.4,0.3c-0.9,0-1.6-0.2-2-0.6
			s-0.7-1.1-0.7-2V147H100.1z"/>
		<path id="XMLID_1322_" class="st9" d="M112.5,154.4v-4.7c0-0.6-0.1-1-0.4-1.3s-0.7-0.4-1.3-0.4c-0.8,0-1.3,0.2-1.6,0.6
			c-0.3,0.4-0.5,1.1-0.5,2v3.8h-1.2V147h1l0.2,1h0.1c0.2-0.4,0.5-0.6,1-0.8c0.4-0.2,0.9-0.3,1.4-0.3c0.9,0,1.6,0.2,2,0.7
			s0.7,1.1,0.7,2v4.8H112.5z"/>
		<path id="XMLID_1319_" class="st9" d="M120.9,154.3l0-0.9h-0.1c-0.5,0.7-1.3,1.1-2.3,1.1c-1,0-1.7-0.3-2.2-1
			c-0.5-0.7-0.8-1.6-0.8-2.8c0-1.2,0.3-2.1,0.8-2.8c0.5-0.7,1.3-1,2.2-1c1,0,1.8,0.4,2.3,1.1h0.1l0.2-1h1v7.5c0,1.1-0.3,1.9-0.8,2.4
			s-1.4,0.8-2.5,0.8c-1.1,0-2-0.2-2.7-0.5v-1.1c0.7,0.4,1.6,0.6,2.7,0.6c0.6,0,1.1-0.2,1.5-0.6c0.4-0.4,0.5-0.9,0.5-1.5V154.3z
			 M118.8,153.6c0.7,0,1.3-0.2,1.6-0.6s0.5-1,0.5-1.9v-0.3c0-1-0.2-1.7-0.5-2.2s-0.9-0.7-1.6-0.7c-0.6,0-1.1,0.2-1.4,0.7
			c-0.3,0.5-0.5,1.2-0.5,2.1c0,0.9,0.2,1.6,0.5,2.1C117.6,153.3,118.1,153.6,118.8,153.6z"/>
		<path id="XMLID_1316_" class="st9" d="M136.8,149.5c0,1.2-0.2,2.3-0.7,3.1c-0.5,0.8-1.2,1.4-2.1,1.7l2.4,2.4h-1.8l-1.9-2.2l-0.3,0
			c-1.4,0-2.6-0.4-3.4-1.3c-0.8-0.9-1.2-2.1-1.2-3.7c0-1.6,0.4-2.8,1.2-3.7c0.8-0.9,1.9-1.3,3.4-1.3c1.4,0,2.5,0.4,3.3,1.3
			C136.4,146.7,136.8,147.9,136.8,149.5z M129,149.5c0,1.3,0.3,2.3,0.8,3s1.4,1,2.4,1c1.1,0,1.9-0.3,2.4-1c0.5-0.7,0.8-1.7,0.8-3
			c0-1.3-0.3-2.3-0.8-3c-0.5-0.7-1.3-1-2.4-1c-1.1,0-1.9,0.3-2.4,1S129,148.2,129,149.5z"/>
		<path id="XMLID_1314_" class="st9" d="M139.9,147v4.8c0,0.6,0.1,1,0.4,1.3s0.7,0.4,1.2,0.4c0.8,0,1.3-0.2,1.7-0.6
			c0.3-0.4,0.5-1.1,0.5-2V147h1.2v7.4h-1l-0.2-1h-0.1c-0.2,0.4-0.5,0.6-0.9,0.8c-0.4,0.2-0.9,0.3-1.4,0.3c-0.9,0-1.6-0.2-2-0.6
			s-0.7-1.1-0.7-2V147H139.9z"/>
		<path id="XMLID_1309_" class="st9" d="M153.7,150.7c0,1.2-0.3,2.1-0.9,2.8c-0.6,0.7-1.5,1-2.5,1c-0.7,0-1.3-0.2-1.8-0.5
			c-0.5-0.3-0.9-0.8-1.2-1.3s-0.4-1.3-0.4-2c0-1.2,0.3-2.1,0.9-2.8s1.4-1,2.5-1c1,0,1.9,0.3,2.5,1
			C153.4,148.6,153.7,149.5,153.7,150.7z M148.1,150.7c0,0.9,0.2,1.6,0.5,2.1s0.9,0.7,1.6,0.7c0.7,0,1.2-0.2,1.6-0.7
			c0.4-0.5,0.6-1.2,0.6-2.1c0-0.9-0.2-1.6-0.6-2.1c-0.4-0.5-0.9-0.7-1.6-0.7C148.8,147.9,148.1,148.8,148.1,150.7z M152.3,146.1
			h-0.7c-0.5-0.3-1-0.7-1.4-1.1c-0.5,0.5-1,0.8-1.4,1.1h-0.7v-0.2c0.2-0.3,0.5-0.5,0.7-0.8c0.3-0.3,0.5-0.6,0.7-0.9h1.3
			c0.3,0.5,0.8,1,1.5,1.8V146.1z M151.8,144.6c0.3-0.4,0.6-0.9,0.9-1.4h1.2v0.1c-0.4,0.5-0.8,0.9-1.4,1.4h-0.7V144.6z"/>
		<path id="XMLID_1307_" class="st9" d="M158.6,154.5c-1.1,0-1.9-0.3-2.5-1c-0.6-0.7-0.9-1.6-0.9-2.8c0-1.2,0.3-2.2,0.9-2.9
			c0.6-0.7,1.5-1,2.6-1c0.4,0,0.7,0,1.1,0.1c0.4,0.1,0.6,0.2,0.9,0.3l-0.4,1c-0.6-0.2-1.2-0.3-1.6-0.3c-0.7,0-1.3,0.2-1.6,0.7
			c-0.4,0.5-0.5,1.2-0.5,2.1c0,0.9,0.2,1.6,0.5,2s0.9,0.7,1.6,0.7c0.6,0,1.3-0.1,1.9-0.4v1.1C159.9,154.4,159.3,154.5,158.6,154.5z"
			/>
	</g>
</g>
</svg>
