<?xml version="1.0" encoding="utf-8"?>
<!-- Generator: Adobe Illustrator 19.0.0, SVG Export Plug-In . SVG Version: 6.00 Build 0)  -->
<svg version="1.1" id="Layer_1" xmlns="http://www.w3.org/2000/svg" xmlns:xlink="http://www.w3.org/1999/xlink" x="0px" y="0px"
	 viewBox="0 0 165.6 167.3" style="enable-background:new 0 0 165.6 167.3;" xml:space="preserve">
<style type="text/css">
	.st0{fill:#EAA43F;}
	.st1{fill:#FFFFFF;}
	.st2{fill:#12474D;}
	.st3{fill:#C9C9C5;}
	.st4{fill:#E5E5E3;}
	.st5{fill:#A01C33;}
	.st6{fill:#EADA72;}
	.st7{fill:#CD202B;}
	.st8{fill:#414141;}
	.st9{fill:#404040;}
</style>
<rect id="XMLID_1442_" x="16.8" y="0" class="st0" width="148.8" height="167"/>
<rect id="XMLID_1440_" x="16.8" y="80.9" class="st1" width="148.8" height="86.4"/>
<g id="XMLID_1167_">
	<circle id="XMLID_3910_" class="st2" cx="89.2" cy="41.3" r="33.1"/>
	<path id="XMLID_3911_" class="st3" d="M115.6,41.8c0,14.6-11.8,26.4-26.4,26.4c-12.2,0-22.5-8.3-25.5-19.5
		c-0.6-2.2-0.9-4.5-0.9-6.9c0-14.6,11.8-26.4,26.4-26.4c14.3,0,26,11.4,26.4,25.7C115.6,41.3,115.6,41.5,115.6,41.8z"/>
	<path id="XMLID_3912_" class="st4" d="M115.6,41.8c0,14.6-11.8,26.4-26.4,26.4c-12.2,0-22.5-8.3-25.5-19.5c0-0.2,0-0.5,0-0.7
		c0-14.6,11.8-26.4,26.4-26.4c12.2,0,22.4,8.3,25.5,19.5C115.6,41.3,115.6,41.5,115.6,41.8z"/>
	<polygon id="XMLID_3928_" class="st5" points="85.7,41.3 90.1,16.6 94.4,41.3 	"/>
	<polygon id="XMLID_1190_" class="st6" points="94.5,41.3 90.1,66.1 85.8,41.3 	"/>
	<circle id="XMLID_3929_" class="st5" cx="90" cy="41.6" r="2.3"/>
</g>
<g id="XMLID_3930_">
	<circle id="XMLID_3931_" class="st7" cx="30.6" cy="91.1" r="4"/>
	<path id="XMLID_3932_" class="st7" d="M26.5,91.1h8.1v10.1C34.6,101.1,26.5,96.2,26.5,91.1z"/>
	<circle id="XMLID_1185_" class="st7" cx="38.6" cy="90.9" r="4"/>
	<path id="XMLID_1184_" class="st7" d="M42.6,90.9h-8.1V101C34.6,101,42.6,96,42.6,90.9z"/>
</g>
<g id="XMLID_55_">
	<g id="XMLID_1384_">
		<path id="XMLID_1521_" class="st8" d="M50.7,96.1v-10h2.1v8.2h4.1v1.8H50.7z"/>
		<path id="XMLID_1518_" class="st8" d="M63.3,96.1l-0.4-1h-0.1c-0.4,0.4-0.7,0.7-1.1,0.9s-0.9,0.3-1.5,0.3c-0.7,0-1.3-0.2-1.7-0.6
			s-0.6-1-0.6-1.8c0-0.8,0.3-1.4,0.9-1.8s1.4-0.6,2.6-0.6l1.3,0V91c0-0.8-0.4-1.2-1.2-1.2c-0.6,0-1.3,0.2-2.2,0.6L58.7,89
			c0.9-0.5,1.9-0.7,2.9-0.7c1,0,1.8,0.2,2.4,0.7s0.8,1.1,0.8,2v5.1H63.3z M62.7,92.6l-0.8,0c-0.6,0-1.1,0.1-1.4,0.3
			c-0.3,0.2-0.4,0.5-0.4,0.9c0,0.6,0.3,0.9,1,0.9c0.5,0,0.9-0.1,1.2-0.4s0.4-0.6,0.4-1.1V92.6z"/>
		<path id="XMLID_1515_" class="st8" d="M74.8,88.3c0.9,0,1.6,0.4,2.1,1.1c0.5,0.7,0.8,1.7,0.8,2.9c0,1.3-0.3,2.2-0.8,2.9
			s-1.2,1-2.1,1c-0.9,0-1.6-0.3-2.1-1h-0.1l-0.3,0.8h-1.6V85.5h2.1v2.5c0,0.3,0,0.8-0.1,1.5h0.1C73.1,88.7,73.8,88.3,74.8,88.3z
			 M74.1,90c-0.5,0-0.9,0.2-1.1,0.5c-0.2,0.3-0.4,0.8-0.4,1.6v0.2c0,0.8,0.1,1.4,0.4,1.8s0.6,0.5,1.2,0.5c0.4,0,0.8-0.2,1-0.6
			s0.4-1,0.4-1.7s-0.1-1.3-0.4-1.7C74.9,90.2,74.6,90,74.1,90z"/>
		<path id="XMLID_1511_" class="st8" d="M84.3,96.1l-0.4-1h-0.1c-0.4,0.4-0.7,0.7-1.1,0.9s-0.9,0.3-1.5,0.3c-0.7,0-1.3-0.2-1.7-0.6
			s-0.6-1-0.6-1.8c0-0.8,0.3-1.4,0.9-1.8s1.4-0.6,2.6-0.6l1.3,0V91c0-0.8-0.4-1.2-1.2-1.2c-0.6,0-1.3,0.2-2.2,0.6L79.6,89
			c0.9-0.5,1.9-0.7,2.9-0.7c1,0,1.8,0.2,2.4,0.7s0.8,1.1,0.8,2v5.1H84.3z M82.5,87.6c-0.3-0.2-0.7-0.5-1.3-1c-0.6-0.4-1-0.8-1.3-1.1
			v-0.1h2.3c0.3,0.5,0.8,1.1,1.6,2.1v0.2H82.5z M83.6,92.6l-0.8,0c-0.6,0-1.1,0.1-1.4,0.3c-0.3,0.2-0.4,0.5-0.4,0.9
			c0,0.6,0.3,0.9,1,0.9c0.5,0,0.9-0.1,1.2-0.4s0.4-0.6,0.4-1.1V92.6z"/>
		<path id="XMLID_1509_" class="st8" d="M94.9,96.1h-2.1v-4.5c0-0.6-0.1-1-0.3-1.2C92.3,90.1,92,90,91.6,90c-0.6,0-1,0.2-1.3,0.6
			s-0.4,1-0.4,1.9v3.6h-2.1v-7.6h1.6l0.3,1h0.1c0.2-0.4,0.6-0.6,1-0.8s0.9-0.3,1.4-0.3c0.9,0,1.6,0.2,2,0.7c0.5,0.5,0.7,1.2,0.7,2.1
			V96.1z"/>
		<path id="XMLID_1505_" class="st9" d="M50.8,102.8h2.8c1.3,0,2.3,0.2,2.9,0.6s0.9,1,0.9,1.8c0,0.6-0.2,1.1-0.5,1.4
			c-0.3,0.4-0.8,0.6-1.4,0.7v0.1c0.8,0.1,1.3,0.4,1.7,0.8c0.4,0.4,0.5,0.9,0.5,1.6c0,0.9-0.3,1.6-0.9,2.1s-1.4,0.7-2.5,0.7h-3.5
			V102.8z M52,107h1.8c0.8,0,1.3-0.1,1.7-0.4c0.3-0.2,0.5-0.7,0.5-1.2c0-0.5-0.2-0.9-0.6-1.2c-0.4-0.2-1-0.4-1.8-0.4H52V107z
			 M52,108v3.6h2c0.8,0,1.4-0.2,1.8-0.5s0.6-0.8,0.6-1.4c0-0.6-0.2-1-0.6-1.3c-0.4-0.3-1-0.4-1.8-0.4H52z"/>
		<path id="XMLID_1501_" class="st9" d="M64.1,112.6l-0.2-1h-0.1c-0.4,0.5-0.7,0.8-1.1,0.9s-0.8,0.2-1.4,0.2c-0.7,0-1.3-0.2-1.7-0.6
			c-0.4-0.4-0.6-0.9-0.6-1.6c0-1.5,1.2-2.3,3.5-2.4l1.3,0v-0.4c0-0.6-0.1-1-0.4-1.2c-0.2-0.3-0.6-0.4-1.2-0.4
			c-0.4,0-0.8,0.1-1.1,0.2c-0.3,0.1-0.7,0.2-1,0.4l-0.4-0.9c0.4-0.2,0.8-0.4,1.2-0.5c0.4-0.1,0.9-0.2,1.3-0.2c0.9,0,1.6,0.2,2,0.6
			s0.7,1,0.7,1.9v5H64.1z M61.6,111.8c0.7,0,1.2-0.2,1.6-0.5c0.4-0.4,0.6-0.9,0.6-1.6V109l-1.1,0c-0.8,0-1.5,0.2-1.9,0.4
			c-0.4,0.2-0.6,0.6-0.6,1.1c0,0.4,0.1,0.7,0.4,0.9C60.9,111.7,61.2,111.8,61.6,111.8z M61.1,114.3c0-0.3,0.1-0.5,0.2-0.6
			c0.1-0.1,0.3-0.2,0.5-0.2c0.2,0,0.4,0.1,0.5,0.2c0.1,0.1,0.2,0.3,0.2,0.6c0,0.2-0.1,0.4-0.2,0.6c-0.1,0.1-0.3,0.2-0.5,0.2
			c-0.2,0-0.4-0.1-0.5-0.2S61.1,114.5,61.1,114.3z"/>
		<path id="XMLID_1499_" class="st9" d="M72.3,112.6v-4.7c0-0.6-0.1-1-0.4-1.3s-0.7-0.4-1.3-0.4c-0.8,0-1.3,0.2-1.6,0.6
			c-0.3,0.4-0.5,1.1-0.5,2v3.8h-1.2v-7.4h1l0.2,1h0.1c0.2-0.4,0.5-0.6,1-0.8c0.4-0.2,0.9-0.3,1.4-0.3c0.9,0,1.6,0.2,2,0.7
			s0.7,1.1,0.7,2v4.8H72.3z"/>
		<path id="XMLID_1497_" class="st9" d="M84.2,110.6c0,0.7-0.3,1.2-0.8,1.6c-0.5,0.4-1.2,0.6-2.2,0.6c-1,0-1.7-0.2-2.3-0.5v-1.1
			c0.8,0.4,1.6,0.6,2.3,0.6c0.6,0,1.1-0.1,1.3-0.3c0.3-0.2,0.4-0.5,0.4-0.8c0-0.3-0.1-0.5-0.4-0.7s-0.7-0.4-1.4-0.7
			c-0.7-0.3-1.2-0.5-1.5-0.7s-0.5-0.4-0.6-0.6c-0.1-0.2-0.2-0.5-0.2-0.9c0-0.6,0.2-1.1,0.7-1.4c0.5-0.3,1.2-0.5,2-0.5
			c0.8,0,1.6,0.2,2.4,0.5l-0.4,1c-0.7-0.3-1.4-0.5-2-0.5c-0.5,0-0.9,0.1-1.1,0.2s-0.4,0.4-0.4,0.7c0,0.3,0.1,0.5,0.3,0.7
			c0.2,0.2,0.7,0.4,1.6,0.7c0.6,0.2,1.1,0.4,1.4,0.6c0.3,0.2,0.5,0.4,0.6,0.7S84.2,110.2,84.2,110.6z"/>
		<path id="XMLID_1493_" class="st9" d="M89.1,112.7c-1.1,0-2-0.3-2.6-1c-0.6-0.7-0.9-1.6-0.9-2.8c0-1.2,0.3-2.1,0.9-2.8
			s1.4-1.1,2.4-1.1c0.9,0,1.7,0.3,2.2,0.9c0.6,0.6,0.8,1.4,0.8,2.4v0.7h-5.1c0,0.8,0.2,1.5,0.6,1.9s1,0.7,1.7,0.7
			c0.4,0,0.8,0,1.1-0.1c0.4-0.1,0.8-0.2,1.2-0.4v1.1c-0.4,0.2-0.8,0.3-1.1,0.4C90,112.7,89.6,112.7,89.1,112.7z M89.8,104.3
			c-0.2,0-0.4,0-0.6-0.1c-0.2-0.1-0.4-0.2-0.5-0.3c-0.2-0.1-0.3-0.2-0.5-0.3c-0.2-0.1-0.3-0.1-0.5-0.1c-0.2,0-0.4,0.1-0.5,0.2
			c-0.1,0.1-0.2,0.3-0.3,0.6h-0.7c0.1-0.5,0.2-1,0.5-1.3c0.3-0.3,0.6-0.5,1-0.5c0.2,0,0.4,0,0.6,0.1s0.4,0.2,0.5,0.3
			c0.2,0.1,0.3,0.2,0.5,0.3s0.3,0.1,0.5,0.1c0.2,0,0.4-0.1,0.5-0.2c0.1-0.1,0.2-0.3,0.3-0.6h0.7c-0.1,0.5-0.2,1-0.5,1.3
			C90.6,104.1,90.2,104.3,89.8,104.3z M88.8,106.1c-0.6,0-1,0.2-1.4,0.6c-0.3,0.4-0.5,0.9-0.6,1.6h3.8c0-0.7-0.2-1.2-0.5-1.6
			C89.8,106.3,89.4,106.1,88.8,106.1z"/>
		<path id="XMLID_1491_" class="st9" d="M98.5,112.6h-1.2v-10.5h1.2V112.6z"/>
		<path id="XMLID_1489_" class="st9" d="M102,105.2v4.8c0,0.6,0.1,1,0.4,1.3s0.7,0.4,1.2,0.4c0.8,0,1.3-0.2,1.7-0.6
			c0.3-0.4,0.5-1.1,0.5-2v-3.8h1.2v7.4h-1l-0.2-1h-0.1c-0.2,0.4-0.5,0.6-0.9,0.8c-0.4,0.2-0.9,0.3-1.4,0.3c-0.9,0-1.6-0.2-2-0.6
			s-0.7-1.1-0.7-2v-4.8H102z"/>
		<path id="XMLID_1485_" class="st9" d="M115.8,108.9c0,1.2-0.3,2.1-0.9,2.8c-0.6,0.7-1.5,1-2.5,1c-0.7,0-1.3-0.2-1.8-0.5
			c-0.5-0.3-0.9-0.8-1.2-1.3c-0.3-0.6-0.4-1.3-0.4-2c0-1.2,0.3-2.1,0.9-2.8c0.6-0.7,1.4-1,2.5-1c1,0,1.9,0.3,2.5,1
			C115.5,106.8,115.8,107.7,115.8,108.9z M110,104.1c0.6-0.6,1-1,1.2-1.3c0.2-0.3,0.4-0.5,0.5-0.7h1.2c0.2,0.5,0.8,1.1,1.7,2v0.2
			h-0.9c-0.4-0.2-0.9-0.6-1.5-1.2c-0.6,0.6-1.1,1-1.5,1.2H110V104.1z M110.2,108.9c0,0.9,0.2,1.6,0.5,2.1s0.9,0.7,1.6,0.7
			c0.7,0,1.2-0.2,1.6-0.7s0.6-1.2,0.6-2.1c0-0.9-0.2-1.6-0.6-2.1s-0.9-0.7-1.6-0.7C110.9,106.1,110.2,107,110.2,108.9z"/>
		<path id="XMLID_1483_" class="st9" d="M122.7,112.6v-4.7c0-0.6-0.1-1-0.4-1.3s-0.7-0.4-1.3-0.4c-0.8,0-1.3,0.2-1.6,0.6
			c-0.3,0.4-0.5,1.1-0.5,2v3.8h-1.2v-7.4h1l0.2,1h0.1c0.2-0.4,0.5-0.6,1-0.8c0.4-0.2,0.9-0.3,1.4-0.3c0.9,0,1.6,0.2,2,0.7
			s0.7,1.1,0.7,2v4.8H122.7z"/>
		<path id="XMLID_1481_" class="st9" d="M132.2,111.8c0.2,0,0.3,0,0.6,0c0.2,0,0.4-0.1,0.5-0.1v0.9c-0.1,0-0.3,0.1-0.5,0.1
			c-0.2,0-0.5,0.1-0.7,0.1c-1.4,0-2.2-0.8-2.2-2.3v-4.3h-1v-0.6l1.1-0.5l0.5-1.6h0.7v1.7h2.1v0.9h-2.1v4.3c0,0.4,0.1,0.8,0.3,1
			S131.9,111.8,132.2,111.8z"/>
		<path id="XMLID_1478_" class="st9" d="M136,104.3h-0.8c-0.3-0.3-0.7-0.6-1.1-1c-0.4-0.4-0.7-0.8-0.9-1v-0.1h1.4
			c0.1,0.3,0.3,0.6,0.6,1.1c0.3,0.4,0.5,0.7,0.7,1V104.3z M135.9,112.6h-1.2v-7.4h1.2V112.6z"/>
		<path id="XMLID_1476_" class="st9" d="M147.7,112.6v-4.8c0-1.2-0.5-1.7-1.5-1.7c-0.7,0-1.2,0.2-1.5,0.6c-0.3,0.4-0.5,1-0.5,1.8
			v4.1H143v-4.8c0-0.6-0.1-1-0.4-1.3c-0.2-0.3-0.6-0.4-1.1-0.4c-0.7,0-1.2,0.2-1.5,0.6c-0.3,0.4-0.5,1.1-0.5,2v3.8h-1.2v-7.4h1
			l0.2,1h0.1c0.2-0.4,0.5-0.6,0.9-0.8c0.4-0.2,0.8-0.3,1.3-0.3c1.2,0,1.9,0.4,2.3,1.2h0.1c0.2-0.4,0.6-0.7,1-0.9
			c0.4-0.2,0.9-0.3,1.4-0.3c0.8,0,1.5,0.2,1.9,0.6c0.4,0.4,0.6,1.1,0.6,2.1v4.8H147.7z"/>
		<path id="XMLID_1474_" class="st9" d="M53.1,128.3c0.2,0,0.3,0,0.6,0s0.4-0.1,0.5-0.1v0.9c-0.1,0-0.3,0.1-0.5,0.1
			c-0.2,0-0.5,0.1-0.7,0.1c-1.4,0-2.2-0.8-2.2-2.3v-4.3h-1v-0.6l1.1-0.5l0.5-1.6h0.7v1.7h2.1v0.9h-2.1v4.3c0,0.4,0.1,0.8,0.3,1
			S52.7,128.3,53.1,128.3z"/>
		<path id="XMLID_1472_" class="st9" d="M60.6,129.1v-4.7c0-0.6-0.1-1-0.4-1.3s-0.7-0.4-1.3-0.4c-0.7,0-1.3,0.2-1.6,0.6
			c-0.3,0.4-0.5,1.1-0.5,2.1v3.8h-1.2v-10.5h1.2v3.1c0,0.4,0,0.7-0.1,1h0.1c0.2-0.4,0.5-0.6,0.9-0.8s0.9-0.3,1.4-0.3
			c0.9,0,1.6,0.2,2,0.6c0.5,0.4,0.7,1.1,0.7,2.1v4.8H60.6z"/>
		<path id="XMLID_1467_" class="st9" d="M68.7,129.1l-0.2-1h-0.1c-0.4,0.5-0.7,0.8-1.1,0.9s-0.8,0.2-1.4,0.2c-0.7,0-1.3-0.2-1.7-0.6
			c-0.4-0.4-0.6-0.9-0.6-1.6c0-1.5,1.2-2.3,3.5-2.4l1.3,0v-0.4c0-0.6-0.1-1-0.4-1.2c-0.2-0.3-0.6-0.4-1.2-0.4
			c-0.4,0-0.8,0.1-1.1,0.2c-0.3,0.1-0.7,0.2-1,0.4l-0.4-0.9c0.4-0.2,0.8-0.4,1.2-0.5c0.4-0.1,0.9-0.2,1.3-0.2c0.9,0,1.6,0.2,2,0.6
			s0.7,1,0.7,1.9v5H68.7z M68.8,120.8h-0.7c-0.5-0.3-1-0.7-1.4-1.1c-0.5,0.5-1,0.8-1.4,1.1h-0.7v-0.2c0.2-0.3,0.5-0.5,0.7-0.8
			c0.3-0.3,0.5-0.6,0.7-0.9h1.3c0.3,0.5,0.8,1,1.5,1.8V120.8z M66.2,128.3c0.7,0,1.2-0.2,1.6-0.5c0.4-0.4,0.6-0.9,0.6-1.6v-0.7
			l-1.1,0c-0.8,0-1.5,0.2-1.9,0.4c-0.4,0.2-0.6,0.6-0.6,1.1c0,0.4,0.1,0.7,0.4,0.9C65.4,128.2,65.7,128.3,66.2,128.3z M68.3,119.3
			c0.3-0.4,0.6-0.9,0.9-1.4h1.2v0.1c-0.4,0.5-0.8,0.9-1.4,1.4h-0.7V119.3z"/>
		<path id="XMLID_1465_" class="st9" d="M70.7,121.7H72l1.6,4.2c0.3,0.9,0.5,1.6,0.6,2h0.1c0-0.2,0.1-0.5,0.3-0.9s0.3-0.8,0.4-1.1
			l1.5-4.2h1.3l-3.2,8.4c-0.3,0.8-0.7,1.4-1.1,1.8s-1,0.5-1.6,0.5c-0.3,0-0.7,0-1-0.1v-1c0.2,0.1,0.5,0.1,0.8,0.1
			c0.4,0,0.7-0.1,1-0.3c0.3-0.2,0.5-0.5,0.7-1l0.4-1L70.7,121.7z"/>
		<path id="XMLID_1463_" class="st9" d="M85.4,129.3c-1.1,0-1.9-0.3-2.5-1c-0.6-0.7-0.9-1.6-0.9-2.8c0-1.2,0.3-2.2,0.9-2.9
			c0.6-0.7,1.5-1,2.6-1c0.4,0,0.7,0,1.1,0.1c0.4,0.1,0.6,0.2,0.9,0.3l-0.4,1c-0.6-0.2-1.2-0.3-1.6-0.3c-0.7,0-1.3,0.2-1.6,0.7
			c-0.4,0.5-0.5,1.2-0.5,2.1c0,0.9,0.2,1.6,0.5,2s0.9,0.7,1.6,0.7c0.6,0,1.3-0.1,1.9-0.4v1.1C86.8,129.1,86.1,129.3,85.4,129.3z"/>
		<path id="XMLID_1460_" class="st9" d="M95.4,125.4c0,1.2-0.3,2.1-0.9,2.8c-0.6,0.7-1.5,1-2.5,1c-0.7,0-1.3-0.2-1.8-0.5
			s-0.9-0.8-1.2-1.3c-0.3-0.6-0.4-1.3-0.4-2c0-1.2,0.3-2.1,0.9-2.8c0.6-0.7,1.4-1,2.5-1c1,0,1.9,0.3,2.5,1
			C95.1,123.3,95.4,124.2,95.4,125.4z M89.9,125.4c0,0.9,0.2,1.6,0.5,2.1s0.9,0.7,1.6,0.7c0.7,0,1.2-0.2,1.6-0.7
			c0.4-0.5,0.6-1.2,0.6-2.1c0-0.9-0.2-1.6-0.6-2.1s-0.9-0.7-1.6-0.7C90.6,122.6,89.9,123.6,89.9,125.4z"/>
		<path id="XMLID_1458_" class="st9" d="M102.4,129.1v-4.7c0-0.6-0.1-1-0.4-1.3s-0.7-0.4-1.3-0.4c-0.8,0-1.3,0.2-1.7,0.6
			c-0.3,0.4-0.5,1.1-0.5,2v3.8h-1.2v-7.4h1l0.2,1h0.1c0.2-0.4,0.5-0.6,1-0.8c0.4-0.2,0.9-0.3,1.4-0.3c0.9,0,1.6,0.2,2,0.7
			c0.4,0.4,0.7,1.1,0.7,2v4.8H102.4z"/>
		<path id="XMLID_1455_" class="st9" d="M112,129.3c-1,0-1.7-0.3-2.2-1c-0.5-0.7-0.8-1.6-0.8-2.8c0-1.2,0.3-2.2,0.8-2.8
			c0.5-0.7,1.3-1,2.2-1c1,0,1.8,0.4,2.3,1.1h0.1c0-0.1,0-0.2-0.1-0.5s0-0.5,0-0.6v-0.8h-2.9v-0.9h2.9v-1.2h1.2v1.2h1v0.9h-1v8.3h-1
			l-0.2-1h-0.1C113.8,128.9,113,129.3,112,129.3z M112.2,128.3c0.7,0,1.3-0.2,1.6-0.6s0.5-1,0.5-2v-0.2c0-1-0.2-1.8-0.5-2.2
			s-0.9-0.6-1.6-0.6c-0.6,0-1.1,0.2-1.4,0.7c-0.3,0.5-0.5,1.2-0.5,2.1c0,0.9,0.2,1.6,0.5,2C111.1,128,111.6,128.3,112.2,128.3z"/>
		<path id="XMLID_1453_" class="st9" d="M119.1,121.8v4.7c0,0.6,0.1,1,0.4,1.3s0.7,0.4,1.2,0.4c0.8,0,1.3-0.2,1.7-0.6
			c0.3-0.4,0.5-1.1,0.5-2v-3.8h1.2v0.8c0.4-0.1,0.6-0.2,0.8-0.5c0.2-0.3,0.2-0.8,0.2-1.5h1.3l0.1,0.2c-0.1,0.9-0.4,1.5-0.8,1.9
			s-0.9,0.7-1.6,0.7v5.7h-1l-0.2-1h-0.1c-0.2,0.4-0.5,0.6-0.9,0.8c-0.4,0.2-0.9,0.3-1.4,0.3c-0.9,0-1.6-0.2-2-0.6
			c-0.5-0.4-0.7-1.1-0.7-2v-4.8H119.1z"/>
		<path id="XMLID_1449_" class="st9" d="M133.6,125.4c0,1.2-0.3,2.1-0.9,2.8c-0.6,0.7-1.5,1-2.5,1c-0.7,0-1.3-0.2-1.8-0.5
			c-0.5-0.3-0.9-0.8-1.2-1.3s-0.4-1.3-0.4-2c0-1.2,0.3-2.1,0.9-2.8c0.6-0.7,1.4-1,2.5-1c0.5,0,0.9,0.1,1.3,0.2
			c0.4,0.2,0.8,0.4,1.1,0.7c0.2-0.1,0.4-0.2,0.5-0.3c0.1-0.1,0.2-0.3,0.3-0.6c0.1-0.2,0.1-0.6,0.1-1.1h1.3l0.1,0.2
			c-0.1,0.7-0.4,1.3-0.6,1.7s-0.7,0.7-1.1,0.9C133.5,123.9,133.6,124.6,133.6,125.4z M128,125.4c0,1,0.2,1.7,0.5,2.1
			s0.9,0.7,1.6,0.7c0.8,0,1.3-0.2,1.6-0.7s0.5-1.2,0.5-2.1c0-0.9-0.2-1.6-0.5-2.1s-0.9-0.7-1.7-0.7c-0.8,0-1.3,0.2-1.6,0.7
			C128.2,123.8,128,124.5,128,125.4z M131.1,120.8h-0.8c-0.3-0.3-0.7-0.6-1.1-1c-0.4-0.4-0.7-0.8-0.8-1v-0.1h1.4
			c0.1,0.3,0.3,0.6,0.6,1.1c0.3,0.4,0.5,0.7,0.7,1V120.8z"/>
		<path id="XMLID_1447_" class="st9" d="M140.7,129.1v-4.7c0-0.6-0.1-1-0.4-1.3s-0.7-0.4-1.3-0.4c-0.8,0-1.3,0.2-1.6,0.6
			c-0.3,0.4-0.5,1.1-0.5,2v3.8h-1.2v-7.4h1l0.2,1h0.1c0.2-0.4,0.5-0.6,1-0.8c0.4-0.2,0.9-0.3,1.4-0.3c0.9,0,1.6,0.2,2,0.7
			c0.4,0.4,0.7,1.1,0.7,2v4.8H140.7z"/>
		<path id="XMLID_1444_" class="st9" d="M149.1,129.1l0-0.9h-0.1c-0.5,0.7-1.3,1.1-2.3,1.1c-1,0-1.7-0.3-2.2-1
			c-0.5-0.7-0.8-1.6-0.8-2.8c0-1.2,0.3-2.1,0.8-2.8s1.3-1,2.2-1c1,0,1.8,0.4,2.3,1.1h0.1l0.2-1h1v7.5c0,1.1-0.3,1.9-0.8,2.4
			c-0.5,0.5-1.4,0.8-2.5,0.8c-1.1,0-2-0.2-2.7-0.5v-1.1c0.7,0.4,1.6,0.6,2.7,0.6c0.6,0,1.1-0.2,1.5-0.6c0.4-0.4,0.5-0.9,0.5-1.5
			V129.1z M147,128.3c0.7,0,1.3-0.2,1.6-0.6s0.5-1,0.5-1.9v-0.3c0-1-0.2-1.7-0.5-2.2s-0.9-0.7-1.6-0.7c-0.6,0-1.1,0.2-1.4,0.7
			c-0.3,0.5-0.5,1.2-0.5,2.1c0,0.9,0.2,1.6,0.5,2.1C145.8,128,146.3,128.3,147,128.3z"/>
		<path id="XMLID_1438_" class="st9" d="M53.2,145.8c-1,0-1.7-0.3-2.2-1c-0.5-0.7-0.8-1.6-0.8-2.8c0-1.2,0.3-2.2,0.8-2.8
			c0.5-0.7,1.3-1,2.2-1c1,0,1.8,0.4,2.3,1.1h0.1c0-0.1,0-0.2-0.1-0.5s0-0.5,0-0.6v-0.8h-2.9v-0.9h2.9v-1.2h1.2v1.2h1v0.9h-1v8.3h-1
			l-0.2-1h-0.1C55,145.4,54.2,145.8,53.2,145.8z M53.4,144.8c0.7,0,1.3-0.2,1.6-0.6c0.3-0.4,0.5-1,0.5-2V142c0-1-0.2-1.8-0.5-2.2
			c-0.3-0.4-0.9-0.6-1.6-0.6c-0.6,0-1.1,0.2-1.4,0.7c-0.3,0.5-0.5,1.2-0.5,2.1c0,0.9,0.2,1.6,0.5,2
			C52.3,144.5,52.8,144.8,53.4,144.8z"/>
		<path id="XMLID_1435_" class="st9" d="M60.3,138.3v4.8c0,0.6,0.1,1,0.4,1.3s0.7,0.4,1.2,0.4c0.8,0,1.3-0.2,1.7-0.6
			c0.3-0.4,0.5-1.1,0.5-2v-3.8h1.2v7.4h-1l-0.2-1h-0.1c-0.2,0.4-0.5,0.6-0.9,0.8c-0.4,0.2-0.9,0.3-1.4,0.3c-0.9,0-1.6-0.2-2-0.6
			s-0.7-1.1-0.7-2v-4.8H60.3z M61.3,137.1c0.2-0.2,0.4-0.5,0.6-0.9c0.3-0.4,0.5-0.8,0.7-1.1h1.5v0.1c-0.2,0.3-0.5,0.6-0.9,1.1
			c-0.4,0.4-0.8,0.8-1,1h-0.8V137.1z"/>
		<path id="XMLID_1433_" class="st9" d="M72.7,145.6v-4.7c0-0.6-0.1-1-0.4-1.3s-0.7-0.4-1.3-0.4c-0.8,0-1.3,0.2-1.6,0.6
			c-0.3,0.4-0.5,1.1-0.5,2v3.8h-1.2v-7.4h1l0.2,1h0.1c0.2-0.4,0.5-0.6,1-0.8c0.4-0.2,0.9-0.3,1.4-0.3c0.9,0,1.6,0.2,2,0.7
			s0.7,1.1,0.7,2v4.8H72.7z"/>
		<path id="XMLID_1430_" class="st9" d="M81.1,145.6l0-0.9H81c-0.5,0.7-1.3,1.1-2.3,1.1c-1,0-1.7-0.3-2.2-1
			c-0.5-0.7-0.8-1.6-0.8-2.8c0-1.2,0.3-2.1,0.8-2.8c0.5-0.7,1.3-1,2.2-1c1,0,1.8,0.4,2.3,1.1h0.1l0.2-1h1v7.5c0,1.1-0.3,1.9-0.8,2.4
			s-1.4,0.8-2.5,0.8c-1.1,0-2-0.2-2.7-0.5v-1.1c0.7,0.4,1.6,0.6,2.7,0.6c0.6,0,1.1-0.2,1.5-0.6c0.4-0.4,0.5-0.9,0.5-1.5V145.6z
			 M78.9,144.8c0.7,0,1.3-0.2,1.6-0.6s0.5-1,0.5-1.9V142c0-1-0.2-1.7-0.5-2.2s-0.9-0.7-1.6-0.7c-0.6,0-1.1,0.2-1.4,0.7
			c-0.3,0.5-0.5,1.2-0.5,2.1c0,0.9,0.2,1.6,0.5,2.1C77.8,144.5,78.3,144.8,78.9,144.8z"/>
		<path id="XMLID_1427_" class="st9" d="M90.8,145.8c-1,0-1.7-0.3-2.2-1s-0.8-1.6-0.8-2.8c0-1.2,0.3-2.2,0.8-2.8
			c0.5-0.7,1.3-1,2.2-1c1,0,1.8,0.4,2.3,1.1h0.1c0-0.1,0-0.2-0.1-0.5s0-0.5,0-0.6v-0.8h-2.9v-0.9h2.9v-1.2h1.2v1.2h1v0.9h-1v8.3h-1
			l-0.2-1h-0.1C92.6,145.4,91.8,145.8,90.8,145.8z M91,144.8c0.7,0,1.3-0.2,1.6-0.6c0.3-0.4,0.5-1,0.5-2V142c0-1-0.2-1.8-0.5-2.2
			s-0.9-0.6-1.6-0.6c-0.6,0-1.1,0.2-1.4,0.7c-0.3,0.5-0.5,1.2-0.5,2.1c0,0.9,0.2,1.6,0.5,2C89.8,144.5,90.3,144.8,91,144.8z"/>
		<path id="XMLID_1422_" class="st9" d="M101.2,145.6l-0.2-1h-0.1c-0.4,0.5-0.7,0.8-1.1,0.9c-0.4,0.2-0.8,0.2-1.4,0.2
			c-0.7,0-1.3-0.2-1.7-0.6c-0.4-0.4-0.6-0.9-0.6-1.6c0-1.5,1.2-2.3,3.5-2.4l1.3,0v-0.4c0-0.6-0.1-1-0.4-1.2
			c-0.2-0.3-0.6-0.4-1.2-0.4c-0.4,0-0.8,0.1-1.1,0.2c-0.3,0.1-0.7,0.2-1,0.4l-0.4-0.9c0.4-0.2,0.8-0.4,1.2-0.5
			c0.4-0.1,0.9-0.2,1.3-0.2c0.9,0,1.6,0.2,2,0.6s0.7,1,0.7,1.9v5H101.2z M99.3,137.3c-0.7,0-1.1-0.2-1.5-0.5
			c-0.3-0.3-0.5-0.8-0.5-1.3H98c0,0.3,0.1,0.5,0.3,0.7c0.2,0.1,0.5,0.2,1,0.2c0.4,0,0.7-0.1,0.9-0.2c0.2-0.1,0.3-0.4,0.4-0.7h0.7
			c-0.1,0.6-0.3,1-0.6,1.3C100.4,137.1,99.9,137.3,99.3,137.3z M98.7,144.8c0.7,0,1.2-0.2,1.6-0.5s0.6-0.9,0.6-1.6V142l-1.1,0
			c-0.8,0-1.5,0.2-1.9,0.4c-0.4,0.2-0.6,0.6-0.6,1.1c0,0.4,0.1,0.7,0.4,0.9C98,144.7,98.3,144.8,98.7,144.8z M98.9,135.4
			c0.4-0.5,0.7-1,0.9-1.4h1.2v0.1c-0.4,0.5-0.9,1-1.4,1.4h-0.7V135.4z"/>
		<path id="XMLID_1420_" class="st9" d="M109.4,145.6v-4.7c0-0.6-0.1-1-0.4-1.3s-0.7-0.4-1.3-0.4c-0.8,0-1.3,0.2-1.6,0.6
			c-0.3,0.4-0.5,1.1-0.5,2v3.8h-1.2v-7.4h1l0.2,1h0.1c0.2-0.4,0.5-0.6,1-0.8c0.4-0.2,0.9-0.3,1.4-0.3c0.9,0,1.6,0.2,2,0.7
			c0.4,0.4,0.7,1.1,0.7,2v4.8H109.4z"/>
		<path id="XMLID_1418_" class="st9" d="M118.9,144.8c0.2,0,0.3,0,0.6,0c0.2,0,0.4-0.1,0.5-0.1v0.9c-0.1,0-0.3,0.1-0.5,0.1
			c-0.2,0-0.5,0.1-0.7,0.1c-1.4,0-2.2-0.8-2.2-2.3v-4.3h-1v-0.6l1.1-0.5l0.5-1.6h0.7v1.7h2.1v0.9h-2.1v4.3c0,0.4,0.1,0.8,0.3,1
			C118.3,144.7,118.6,144.8,118.9,144.8z"/>
		<path id="XMLID_1416_" class="st9" d="M124.9,138.1c0.3,0,0.6,0,0.9,0.1l-0.1,1.1c-0.3-0.1-0.5-0.1-0.8-0.1
			c-0.4,0-0.8,0.1-1.1,0.3c-0.3,0.2-0.6,0.5-0.8,0.9c-0.2,0.4-0.3,0.8-0.3,1.3v3.9h-1.2v-7.4h1l0.1,1.4h0.1c0.3-0.5,0.6-0.9,1-1.1
			S124.4,138.1,124.9,138.1z"/>
		<path id="XMLID_1413_" class="st9" d="M133.4,141.9c0,1.2-0.3,2.1-0.9,2.8c-0.6,0.7-1.5,1-2.5,1c-0.7,0-1.3-0.2-1.8-0.5
			c-0.5-0.3-0.9-0.8-1.2-1.3s-0.4-1.3-0.4-2c0-1.2,0.3-2.1,0.9-2.8c0.6-0.7,1.4-1,2.5-1c1,0,1.9,0.3,2.5,1
			C133.1,139.8,133.4,140.8,133.4,141.9z M127.8,141.9c0,0.9,0.2,1.6,0.5,2.1s0.9,0.7,1.6,0.7c0.7,0,1.2-0.2,1.6-0.7
			c0.4-0.5,0.6-1.2,0.6-2.1c0-0.9-0.2-1.6-0.6-2.1c-0.4-0.5-0.9-0.7-1.6-0.7C128.5,139.1,127.8,140.1,127.8,141.9z"/>
		<path id="XMLID_1411_" class="st9" d="M140.3,145.6v-4.7c0-0.6-0.1-1-0.4-1.3s-0.7-0.4-1.3-0.4c-0.8,0-1.3,0.2-1.6,0.6
			c-0.3,0.4-0.5,1.1-0.5,2v3.8h-1.2v-7.4h1l0.2,1h0.1c0.2-0.4,0.5-0.6,1-0.8c0.4-0.2,0.9-0.3,1.4-0.3c0.9,0,1.6,0.2,2,0.7
			s0.7,1.1,0.7,2v4.8H140.3z"/>
		<path id="XMLID_1408_" class="st9" d="M148.8,145.6l0-0.9h-0.1c-0.5,0.7-1.3,1.1-2.3,1.1c-1,0-1.7-0.3-2.2-1
			c-0.5-0.7-0.8-1.6-0.8-2.8c0-1.2,0.3-2.1,0.8-2.8c0.5-0.7,1.3-1,2.2-1c1,0,1.8,0.4,2.3,1.1h0.1l0.2-1h1v7.5c0,1.1-0.3,1.9-0.8,2.4
			s-1.4,0.8-2.5,0.8c-1.1,0-2-0.2-2.7-0.5v-1.1c0.7,0.4,1.6,0.6,2.7,0.6c0.6,0,1.1-0.2,1.5-0.6c0.4-0.4,0.5-0.9,0.5-1.5V145.6z
			 M146.6,144.8c0.7,0,1.3-0.2,1.6-0.6s0.5-1,0.5-1.9V142c0-1-0.2-1.7-0.5-2.2s-0.9-0.7-1.6-0.7c-0.6,0-1.1,0.2-1.4,0.7
			c-0.3,0.5-0.5,1.2-0.5,2.1c0,0.9,0.2,1.6,0.5,2.1C145.5,144.5,146,144.8,146.6,144.8z"/>
		<path id="XMLID_1406_" class="st9" d="M53.6,162.3c-1.1,0-1.9-0.3-2.5-1c-0.6-0.7-0.9-1.6-0.9-2.8c0-1.2,0.3-2.2,0.9-2.9
			s1.5-1,2.6-1c0.4,0,0.7,0,1.1,0.1c0.4,0.1,0.6,0.2,0.9,0.3l-0.4,1c-0.6-0.2-1.2-0.3-1.6-0.3c-0.7,0-1.3,0.2-1.6,0.7
			c-0.4,0.5-0.5,1.2-0.5,2.1c0,0.9,0.2,1.6,0.5,2c0.4,0.5,0.9,0.7,1.6,0.7c0.6,0,1.3-0.1,1.9-0.4v1.1
			C55,162.2,54.3,162.3,53.6,162.3z"/>
		<path id="XMLID_1404_" class="st9" d="M58.4,154.8v4.8c0,0.6,0.1,1,0.4,1.3s0.7,0.4,1.2,0.4c0.8,0,1.3-0.2,1.7-0.6
			c0.3-0.4,0.5-1.1,0.5-2v-3.8h1.2v7.4h-1l-0.2-1h-0.1c-0.2,0.4-0.5,0.6-0.9,0.8c-0.4,0.2-0.9,0.3-1.4,0.3c-0.9,0-1.6-0.2-2-0.6
			s-0.7-1.1-0.7-2v-4.8H58.4z"/>
		<path id="XMLID_1399_" class="st9" d="M72.1,158.5c0,1.2-0.3,2.1-0.9,2.8c-0.6,0.7-1.5,1-2.5,1c-0.7,0-1.3-0.2-1.8-0.5
			c-0.5-0.3-0.9-0.8-1.2-1.3s-0.4-1.3-0.4-2c0-1.2,0.3-2.1,0.9-2.8s1.4-1,2.5-1c1,0,1.9,0.3,2.5,1C71.8,156.4,72.1,157.3,72.1,158.5
			z M66.4,153.7c0.6-0.6,1-1,1.2-1.3c0.2-0.3,0.4-0.5,0.5-0.7h1.2c0.2,0.5,0.8,1.1,1.7,2v0.2h-0.9c-0.4-0.2-0.9-0.6-1.5-1.2
			c-0.6,0.6-1.1,1-1.5,1.2h-0.8V153.7z M66.6,158.5c0,0.9,0.2,1.6,0.5,2.1s0.9,0.7,1.6,0.7c0.7,0,1.2-0.2,1.6-0.7
			c0.4-0.5,0.6-1.2,0.6-2.1c0-0.9-0.2-1.6-0.6-2.1c-0.4-0.5-0.9-0.7-1.6-0.7C67.3,155.7,66.6,156.6,66.6,158.5z M68,163.8
			c0-0.3,0.1-0.5,0.2-0.6c0.1-0.1,0.3-0.2,0.5-0.2c0.2,0,0.4,0.1,0.5,0.2c0.1,0.1,0.2,0.3,0.2,0.6c0,0.2-0.1,0.4-0.2,0.6
			c-0.1,0.1-0.3,0.2-0.5,0.2c-0.2,0-0.4-0.1-0.5-0.2S68,164.1,68,163.8z"/>
		<path id="XMLID_1397_" class="st9" d="M77,162.3c-1.1,0-1.9-0.3-2.5-1c-0.6-0.7-0.9-1.6-0.9-2.8c0-1.2,0.3-2.2,0.9-2.9
			s1.5-1,2.6-1c0.4,0,0.7,0,1.1,0.1c0.4,0.1,0.6,0.2,0.9,0.3l-0.4,1c-0.6-0.2-1.2-0.3-1.6-0.3c-0.7,0-1.3,0.2-1.6,0.7
			c-0.4,0.5-0.5,1.2-0.5,2.1c0,0.9,0.2,1.6,0.5,2c0.4,0.5,0.9,0.7,1.6,0.7c0.6,0,1.3-0.1,1.9-0.4v1.1
			C78.4,162.2,77.8,162.3,77,162.3z"/>
		<path id="XMLID_1395_" class="st9" d="M89,160.1c0,0.7-0.3,1.2-0.8,1.6c-0.5,0.4-1.2,0.6-2.2,0.6c-1,0-1.7-0.2-2.3-0.5v-1.1
			c0.8,0.4,1.6,0.6,2.3,0.6c0.6,0,1.1-0.1,1.3-0.3c0.3-0.2,0.4-0.5,0.4-0.8c0-0.3-0.1-0.5-0.4-0.7s-0.7-0.4-1.4-0.7
			c-0.7-0.3-1.2-0.5-1.5-0.7s-0.5-0.4-0.6-0.6c-0.1-0.2-0.2-0.5-0.2-0.9c0-0.6,0.2-1.1,0.7-1.4c0.5-0.3,1.2-0.5,2-0.5
			c0.8,0,1.6,0.2,2.4,0.5l-0.4,1c-0.7-0.3-1.4-0.5-2-0.5c-0.5,0-0.9,0.1-1.1,0.2s-0.4,0.4-0.4,0.7c0,0.3,0.1,0.5,0.3,0.7
			c0.2,0.2,0.7,0.4,1.6,0.7c0.6,0.2,1.1,0.4,1.4,0.6c0.3,0.2,0.5,0.4,0.6,0.7C89,159.5,89,159.8,89,160.1z"/>
		<path id="XMLID_1390_" class="st9" d="M97.2,158.5c0,1.2-0.3,2.1-0.9,2.8c-0.6,0.7-1.5,1-2.5,1c-0.7,0-1.3-0.2-1.8-0.5
			s-0.9-0.8-1.2-1.3c-0.3-0.6-0.4-1.3-0.4-2c0-1.2,0.3-2.1,0.9-2.8c0.6-0.7,1.4-1,2.5-1c1,0,1.9,0.3,2.5,1
			C96.9,156.4,97.2,157.3,97.2,158.5z M91.7,158.5c0,0.9,0.2,1.6,0.5,2.1s0.9,0.7,1.6,0.7c0.7,0,1.2-0.2,1.6-0.7
			c0.4-0.5,0.6-1.2,0.6-2.1c0-0.9-0.2-1.6-0.6-2.1s-0.9-0.7-1.6-0.7C92.4,155.7,91.7,156.6,91.7,158.5z M95.9,153.8h-0.7
			c-0.5-0.3-1-0.7-1.4-1.1c-0.5,0.5-1,0.8-1.4,1.1h-0.7v-0.2c0.2-0.3,0.5-0.5,0.7-0.8c0.3-0.3,0.5-0.6,0.7-0.9h1.3
			c0.3,0.5,0.8,1,1.5,1.8V153.8z M95.4,152.3c0.3-0.4,0.6-0.9,0.9-1.4h1.2v0.1c-0.4,0.5-0.8,0.9-1.4,1.4h-0.7V152.3z"/>
		<path id="XMLID_1388_" class="st9" d="M104.2,162.2v-4.7c0-0.6-0.1-1-0.4-1.3s-0.7-0.4-1.3-0.4c-0.8,0-1.3,0.2-1.7,0.6
			c-0.3,0.4-0.5,1.1-0.5,2v3.8h-1.2v-7.4h1l0.2,1h0.1c0.2-0.4,0.5-0.6,1-0.8c0.4-0.2,0.9-0.3,1.4-0.3c0.9,0,1.6,0.2,2,0.7
			c0.4,0.4,0.7,1.1,0.7,2v4.8H104.2z"/>
		<path id="XMLID_1385_" class="st9" d="M112.6,162.1l0-0.9h-0.1c-0.5,0.7-1.3,1.1-2.3,1.1c-1,0-1.7-0.3-2.2-1
			c-0.5-0.7-0.8-1.6-0.8-2.8c0-1.2,0.3-2.1,0.8-2.8s1.3-1,2.2-1c1,0,1.8,0.4,2.3,1.1h0.1l0.2-1h1v7.5c0,1.1-0.3,1.9-0.8,2.4
			c-0.5,0.5-1.4,0.8-2.5,0.8c-1.1,0-2-0.2-2.7-0.5v-1.1c0.7,0.4,1.6,0.6,2.7,0.6c0.6,0,1.1-0.2,1.5-0.6c0.4-0.4,0.5-0.9,0.5-1.5
			V162.1z M110.5,161.3c0.7,0,1.3-0.2,1.6-0.6s0.5-1,0.5-1.9v-0.3c0-1-0.2-1.7-0.5-2.2s-0.9-0.7-1.6-0.7c-0.6,0-1.1,0.2-1.4,0.7
			c-0.3,0.5-0.5,1.2-0.5,2.1c0,0.9,0.2,1.6,0.5,2.1C109.3,161.1,109.8,161.3,110.5,161.3z"/>
	</g>
</g>
<polygon id="XMLID_1441_" class="st1" points="19.6,167.3 19.2,148.1 0,167.3 "/>
</svg>
