<?xml version="1.0" encoding="utf-8"?>
<!-- Generator: Adobe Illustrator 19.0.0, SVG Export Plug-In . SVG Version: 6.00 Build 0)  -->
<svg version="1.1" id="Layer_1" xmlns="http://www.w3.org/2000/svg" xmlns:xlink="http://www.w3.org/1999/xlink" x="0px" y="0px"
	 viewBox="0 0 169.2 167" style="enable-background:new 0 0 169.2 167;" xml:space="preserve">
<style type="text/css">
	.st0{fill:#125B7C;}
	.st1{fill:#FFFFFF;}
	.st2{fill:#CD202B;}
	.st3{fill:#F3B23E;}
	.st4{fill:#FFE6BE;}
	.st5{fill:#D29C49;}
	.st6{fill:none;stroke:#FFFFFF;stroke-miterlimit:10;}
	.st7{fill:#B72026;}
	.st8{fill:#E8636C;}
	.st9{fill:#404040;}
</style>
<rect id="XMLID_4052_" x="0" y="0" class="st0" width="151.2" height="167"/>
<rect id="XMLID_4050_" x="0" y="106.1" class="st1" width="151.2" height="60.8"/>
<g id="XMLID_5489_">
	<circle id="XMLID_5490_" class="st2" cx="12.5" cy="117.8" r="4"/>
	<path id="XMLID_5491_" class="st2" d="M8.4,117.8h8.1v10.1C16.5,127.9,8.4,123,8.4,117.8z"/>
	<circle id="XMLID_2487_" class="st2" cx="20.5" cy="117.7" r="4"/>
	<path id="XMLID_2486_" class="st2" d="M24.6,117.7h-8.1v10.1C16.5,127.7,24.6,122.8,24.6,117.7z"/>
</g>
<g id="XMLID_603_">
	<circle id="XMLID_5738_" class="st3" cx="48.5" cy="47.1" r="21.3"/>
	<path id="XMLID_5739_" class="st4" d="M35.1,47.1h31.7l-15-23.8C51.8,23.2,35.1,27.6,35.1,47.1z"/>
	<rect id="XMLID_2482_" x="35.1" y="47.1" class="st5" width="32" height="13.6"/>
	<circle id="XMLID_5740_" class="st2" cx="47.5" cy="36.2" r="3"/>
	<path id="XMLID_2480_" class="st6" d="M13.9,40.4c0,30.9,25,55.9,55.9,55.9c30.9,0,55.9-25,55.9-55.9"/>
	<rect id="XMLID_2479_" x="35.1" y="51.5" class="st4" width="31.7" height="5.4"/>
	<circle id="XMLID_2478_" class="st7" cx="96.3" cy="44.9" r="18.2"/>
	<circle id="XMLID_2477_" class="st8" cx="96.3" cy="44.9" r="11.4"/>
	<circle id="XMLID_2476_" class="st4" cx="96.3" cy="44.9" r="6.2"/>
	<path id="XMLID_2475_" class="st1" d="M95.3,45.9L95.3,45.9c-0.7-0.7-0.7-1.9,0-2.6l27.5-27.5c0.7-0.7,1.9-0.7,2.6,0l0,0
		c0.7,0.7,0.7,1.9,0,2.6L97.9,45.9C97.2,46.7,96,46.7,95.3,45.9z"/>
</g>
<polygon id="XMLID_4187_" class="st1" points="144.5,166.9 149.4,147 169.2,166.9 "/>
<g id="XMLID_106_">
	<g id="XMLID_676_">
		<path id="XMLID_734_" class="st9" d="M35.4,113.9h3.1c1.4,0,2.4,0.2,3.1,0.6s1,1,1,1.9c0,0.6-0.1,1.1-0.4,1.5s-0.7,0.6-1.1,0.7
			v0.1c0.6,0.1,1.1,0.4,1.4,0.8s0.4,0.9,0.4,1.5c0,0.9-0.3,1.6-1,2.1s-1.6,0.8-2.7,0.8h-3.7V113.9z M37.5,117.8h1.2
			c0.6,0,1-0.1,1.2-0.3s0.4-0.5,0.4-0.9c0-0.4-0.1-0.7-0.4-0.8s-0.7-0.2-1.3-0.2h-1.1V117.8z M37.5,119.5v2.6h1.4
			c0.6,0,1-0.1,1.3-0.3c0.3-0.2,0.4-0.6,0.4-1c0-0.8-0.6-1.2-1.8-1.2H37.5z"/>
		<path id="XMLID_730_" class="st9" d="M49.5,123.9l-0.4-1H49c-0.4,0.4-0.7,0.7-1.1,0.9s-0.9,0.3-1.5,0.3c-0.7,0-1.3-0.2-1.7-0.6
			s-0.6-1-0.6-1.8c0-0.8,0.3-1.4,0.9-1.8s1.4-0.6,2.6-0.6l1.3,0v-0.3c0-0.8-0.4-1.2-1.2-1.2c-0.6,0-1.3,0.2-2.2,0.6l-0.7-1.4
			c0.9-0.5,1.9-0.7,2.9-0.7c1,0,1.8,0.2,2.4,0.7s0.8,1.1,0.8,2v5.1H49.5z M48.8,120.3l-0.8,0c-0.6,0-1.1,0.1-1.4,0.3
			c-0.3,0.2-0.4,0.5-0.4,0.9c0,0.6,0.3,0.9,1,0.9c0.5,0,0.9-0.1,1.2-0.4s0.4-0.6,0.4-1.1V120.3z M46.5,115.4v-0.2
			c0.8-0.9,1.3-1.6,1.6-2.1h2.3v0.1c-0.2,0.2-0.6,0.6-1.2,1.1s-1,0.8-1.3,1H46.5z"/>
		<path id="XMLID_728_" class="st9" d="M60.1,123.9H58v-4.5c0-0.6-0.1-1-0.3-1.2c-0.2-0.3-0.5-0.4-0.9-0.4c-0.6,0-1,0.2-1.3,0.6
			s-0.4,1-0.4,1.9v3.6h-2.1v-7.6h1.6l0.3,1h0.1c0.2-0.4,0.6-0.6,1-0.8s0.9-0.3,1.4-0.3c0.9,0,1.6,0.2,2,0.7c0.5,0.5,0.7,1.2,0.7,2.1
			V123.9z"/>
		<path id="XMLID_726_" class="st9" d="M69.3,123.9h-2.1v-4.5c0-1.1-0.4-1.7-1.2-1.7c-0.6,0-1,0.2-1.3,0.6s-0.4,1-0.4,1.9v3.6h-2.1
			v-10.6h2.1v2.2c0,0.2,0,0.6,0,1.2l0,0.6h0.1c0.5-0.7,1.2-1.1,2.2-1.1c0.9,0,1.6,0.2,2,0.7s0.7,1.2,0.7,2.1V123.9z"/>
		<path id="XMLID_724_" class="st9" d="M73.5,122.4c-0.2,0.9-0.6,2-1.2,3.3h-1.5c0.3-1.2,0.5-2.4,0.7-3.4h1.9L73.5,122.4z"/>
		<path id="XMLID_722_" class="st9" d="M81.1,119.7l0.9-1.2l2.1-2.3h2.4l-3,3.3l3.2,4.3h-2.4l-2.2-3.1l-0.9,0.7v2.4h-2.1v-10.6h2.1
			v4.7L81.1,119.7L81.1,119.7z"/>
		<path id="XMLID_718_" class="st9" d="M91.1,124c-1.2,0-2.2-0.3-2.9-1c-0.7-0.7-1-1.6-1-2.9c0-1.3,0.3-2.3,1-3s1.5-1,2.7-1
			c1.1,0,1.9,0.3,2.5,0.9s0.9,1.5,0.9,2.5v1h-4.9c0,0.6,0.2,1.1,0.5,1.4s0.8,0.5,1.4,0.5c0.5,0,0.9,0,1.3-0.1s0.8-0.2,1.3-0.5v1.6
			c-0.4,0.2-0.8,0.3-1.2,0.4C92.2,124,91.7,124,91.1,124z M90.8,117.6c-0.4,0-0.8,0.1-1,0.4c-0.3,0.3-0.4,0.7-0.4,1.2h2.9
			c0-0.5-0.1-0.9-0.4-1.2S91.2,117.6,90.8,117.6z M89.5,125.8c0-0.7,0.4-1,1.1-1c0.8,0,1.1,0.3,1.1,1c0,0.3-0.1,0.6-0.3,0.8
			s-0.5,0.3-0.8,0.3C89.9,126.8,89.5,126.5,89.5,125.8z"/>
		<path id="XMLID_715_" class="st9" d="M102.9,120c0,1.2-0.3,2.2-1,2.9s-1.6,1.1-2.7,1.1c-0.7,0-1.4-0.2-1.9-0.5s-1-0.8-1.3-1.4
			s-0.5-1.3-0.5-2.1c0-1.2,0.3-2.2,1-2.9c0.7-0.7,1.6-1,2.7-1c0.7,0,1.4,0.2,1.9,0.5s1,0.8,1.3,1.4S102.9,119.2,102.9,120z
			 M97.6,120c0,0.8,0.1,1.3,0.4,1.7s0.7,0.6,1.2,0.6c0.6,0,1-0.2,1.2-0.6s0.4-1,0.4-1.7c0-0.8-0.1-1.3-0.4-1.7s-0.6-0.6-1.2-0.6
			c-0.6,0-1,0.2-1.2,0.6S97.6,119.3,97.6,120z"/>
		<path id="XMLID_713_" class="st9" d="M39.8,140.4l-3.2-8.6h-0.1c0.1,0.7,0.1,1.6,0.1,2.7v6h-1.1v-9.8h1.8l3,8.1h0.1l3.1-8.1h1.8
			v9.8H44v-6c0-0.7,0-1.5,0.1-2.6h-0.1l-3.3,8.6H39.8z"/>
		<path id="XMLID_710_" class="st9" d="M52.3,140.4l-0.2-1H52c-0.4,0.5-0.7,0.8-1.1,0.9c-0.4,0.2-0.8,0.2-1.4,0.2
			c-0.7,0-1.3-0.2-1.7-0.6c-0.4-0.4-0.6-0.9-0.6-1.6c0-1.5,1.2-2.3,3.5-2.4l1.3,0v-0.4c0-0.6-0.1-1-0.4-1.2s-0.6-0.4-1.2-0.4
			c-0.4,0-0.8,0.1-1.1,0.2c-0.3,0.1-0.7,0.2-1,0.4l-0.4-0.9c0.4-0.2,0.8-0.4,1.2-0.5c0.4-0.1,0.9-0.2,1.3-0.2c0.9,0,1.6,0.2,2,0.6
			c0.4,0.4,0.7,1,0.7,1.9v5H52.3z M49.8,139.5c0.7,0,1.2-0.2,1.6-0.5s0.6-0.9,0.6-1.6v-0.7l-1.1,0c-0.8,0-1.5,0.2-1.9,0.4
			c-0.4,0.2-0.6,0.6-0.6,1.1c0,0.4,0.1,0.7,0.4,0.9C49.1,139.4,49.4,139.5,49.8,139.5z"/>
		<path id="XMLID_708_" class="st9" d="M54.3,133h1.3l1.6,4.2c0.3,0.9,0.5,1.6,0.6,2h0.1c0-0.2,0.1-0.5,0.3-0.9
			c0.1-0.5,0.3-0.8,0.4-1.1L60,133h1.3l-3.2,8.4c-0.3,0.8-0.7,1.4-1.1,1.8c-0.4,0.4-1,0.5-1.6,0.5c-0.3,0-0.7,0-1-0.1v-1
			c0.2,0.1,0.5,0.1,0.8,0.1c0.4,0,0.7-0.1,1-0.3s0.5-0.5,0.7-1l0.4-1L54.3,133z"/>
		<path id="XMLID_706_" class="st9" d="M75.5,140.4v-4.8c0-1.2-0.5-1.7-1.5-1.7c-0.7,0-1.2,0.2-1.5,0.6c-0.3,0.4-0.5,1-0.5,1.8v4.1
			h-1.2v-4.8c0-0.6-0.1-1-0.4-1.3c-0.2-0.3-0.6-0.4-1.1-0.4c-0.7,0-1.2,0.2-1.5,0.6c-0.3,0.4-0.5,1.1-0.5,2v3.8h-1.2V133h1l0.2,1
			h0.1c0.2-0.4,0.5-0.6,0.9-0.8c0.4-0.2,0.8-0.3,1.3-0.3c1.2,0,1.9,0.4,2.3,1.2h0.1c0.2-0.4,0.6-0.7,1-0.9c0.4-0.2,0.9-0.3,1.4-0.3
			c0.8,0,1.5,0.2,1.9,0.6c0.4,0.4,0.6,1.1,0.6,2.1v4.8H75.5z"/>
		<path id="XMLID_701_" class="st9" d="M83.5,140.4l-0.2-1h-0.1c-0.4,0.5-0.7,0.8-1.1,0.9c-0.4,0.2-0.8,0.2-1.4,0.2
			c-0.7,0-1.3-0.2-1.7-0.6c-0.4-0.4-0.6-0.9-0.6-1.6c0-1.5,1.2-2.3,3.5-2.4l1.3,0v-0.4c0-0.6-0.1-1-0.4-1.2
			c-0.2-0.3-0.6-0.4-1.2-0.4c-0.4,0-0.8,0.1-1.1,0.2c-0.3,0.1-0.7,0.2-1,0.4l-0.4-0.9c0.4-0.2,0.8-0.4,1.2-0.5
			c0.4-0.1,0.9-0.2,1.3-0.2c0.9,0,1.6,0.2,2,0.6c0.4,0.4,0.7,1,0.7,1.9v5H83.5z M81.6,132c-0.7,0-1.1-0.2-1.5-0.5s-0.5-0.8-0.5-1.3
			h0.7c0,0.3,0.1,0.5,0.3,0.7c0.2,0.1,0.5,0.2,1,0.2c0.4,0,0.7-0.1,0.9-0.2c0.2-0.2,0.3-0.4,0.4-0.7h0.7c-0.1,0.6-0.3,1-0.6,1.3
			C82.7,131.9,82.2,132,81.6,132z M81,139.5c0.7,0,1.2-0.2,1.6-0.5s0.6-0.9,0.6-1.6v-0.7l-1.1,0c-0.8,0-1.5,0.2-1.9,0.4
			c-0.4,0.2-0.6,0.6-0.6,1.1c0,0.4,0.1,0.7,0.4,0.9C80.3,139.4,80.6,139.5,81,139.5z M81.2,130.1c0.4-0.5,0.7-1,0.9-1.4h1.2v0.1
			c-0.4,0.5-0.9,1-1.4,1.4h-0.7V130.1z"/>
		<path id="XMLID_699_" class="st9" d="M91.7,140.4v-4.7c0-0.6-0.1-1-0.4-1.3c-0.3-0.3-0.7-0.4-1.3-0.4c-0.8,0-1.3,0.2-1.7,0.6
			c-0.3,0.4-0.5,1.1-0.5,2v3.8h-1.2V133h1l0.2,1h0.1c0.2-0.4,0.5-0.6,1-0.8s0.9-0.3,1.4-0.3c0.9,0,1.6,0.2,2,0.7
			c0.4,0.4,0.7,1.1,0.7,2v4.8H91.7z"/>
		<path id="XMLID_697_" class="st9" d="M96.6,138.8l0.1,0.2c-0.2,1-0.6,2-1.2,3.2h-0.9c0.3-1.1,0.5-2.2,0.7-3.4H96.6z"/>
		<path id="XMLID_695_" class="st9" d="M107.5,140.4v-4.7c0-0.6-0.1-1-0.4-1.3c-0.3-0.3-0.7-0.4-1.3-0.4c-0.7,0-1.3,0.2-1.6,0.6
			c-0.3,0.4-0.5,1.1-0.5,2.1v3.8h-1.2v-10.5h1.2v3.1c0,0.4,0,0.7-0.1,1h0.1c0.2-0.4,0.5-0.6,0.9-0.8c0.4-0.2,0.9-0.3,1.4-0.3
			c0.9,0,1.6,0.2,2,0.6c0.5,0.4,0.7,1.1,0.7,2.1v4.8H107.5z"/>
		<path id="XMLID_691_" class="st9" d="M115.5,140.4l-0.2-1h-0.1c-0.4,0.5-0.7,0.8-1.1,0.9c-0.4,0.2-0.8,0.2-1.4,0.2
			c-0.7,0-1.3-0.2-1.7-0.6c-0.4-0.4-0.6-0.9-0.6-1.6c0-1.5,1.2-2.3,3.5-2.4l1.3,0v-0.4c0-0.6-0.1-1-0.4-1.2
			c-0.2-0.3-0.6-0.4-1.2-0.4c-0.4,0-0.8,0.1-1.1,0.2c-0.3,0.1-0.7,0.2-1,0.4l-0.4-0.9c0.4-0.2,0.8-0.4,1.2-0.5
			c0.4-0.1,0.9-0.2,1.3-0.2c0.9,0,1.6,0.2,2,0.6c0.4,0.4,0.7,1,0.7,1.9v5H115.5z M113,139.5c0.7,0,1.2-0.2,1.6-0.5
			c0.4-0.4,0.6-0.9,0.6-1.6v-0.7l-1.1,0c-0.8,0-1.5,0.2-1.9,0.4c-0.4,0.2-0.6,0.6-0.6,1.1c0,0.4,0.1,0.7,0.4,0.9
			S112.6,139.5,113,139.5z M112.5,142c0-0.3,0.1-0.5,0.2-0.6c0.1-0.1,0.3-0.2,0.5-0.2c0.2,0,0.4,0.1,0.5,0.2
			c0.1,0.1,0.2,0.3,0.2,0.6c0,0.2-0.1,0.4-0.2,0.6c-0.1,0.1-0.3,0.2-0.5,0.2c-0.2,0-0.4-0.1-0.5-0.2
			C112.5,142.5,112.5,142.3,112.5,142z"/>
		<path id="XMLID_689_" class="st9" d="M123.7,140.4v-4.7c0-0.6-0.1-1-0.4-1.3c-0.3-0.3-0.7-0.4-1.3-0.4c-0.8,0-1.3,0.2-1.6,0.6
			c-0.3,0.4-0.5,1.1-0.5,2v3.8h-1.2V133h1l0.2,1h0.1c0.2-0.4,0.5-0.6,1-0.8s0.9-0.3,1.4-0.3c0.9,0,1.6,0.2,2,0.7
			c0.4,0.4,0.7,1.1,0.7,2v4.8H123.7z"/>
		<path id="XMLID_687_" class="st9" d="M132.2,140.4v-4.7c0-0.6-0.1-1-0.4-1.3c-0.3-0.3-0.7-0.4-1.3-0.4c-0.7,0-1.3,0.2-1.6,0.6
			c-0.3,0.4-0.5,1.1-0.5,2.1v3.8h-1.2v-10.5h1.2v3.1c0,0.4,0,0.7-0.1,1h0.1c0.2-0.4,0.5-0.6,0.9-0.8c0.4-0.2,0.9-0.3,1.4-0.3
			c0.9,0,1.6,0.2,2,0.6c0.5,0.4,0.7,1.1,0.7,2.1v4.8H132.2z"/>
		<path id="XMLID_684_" class="st9" d="M38.8,157c-1,0-1.8-0.4-2.3-1.1h-0.1l0,0.3c0,0.3,0.1,0.7,0.1,0.9v3h-1.2v-10.7h1l0.2,1h0.1
			c0.3-0.4,0.6-0.7,1-0.9c0.4-0.2,0.8-0.3,1.3-0.3c1,0,1.7,0.3,2.2,1c0.5,0.7,0.8,1.6,0.8,2.8c0,1.2-0.3,2.1-0.8,2.8
			S39.7,157,38.8,157z M38.6,150.4c-0.7,0-1.3,0.2-1.6,0.6c-0.3,0.4-0.5,1.1-0.5,1.9v0.2c0,1,0.2,1.7,0.5,2.2
			c0.3,0.4,0.9,0.7,1.6,0.7c0.6,0,1.1-0.3,1.4-0.8s0.5-1.2,0.5-2.1c0-0.9-0.2-1.6-0.5-2.1C39.7,150.6,39.2,150.4,38.6,150.4z"/>
		<path id="XMLID_682_" class="st9" d="M48.8,156.9v-4.7c0-0.6-0.1-1-0.4-1.3c-0.3-0.3-0.7-0.4-1.3-0.4c-0.7,0-1.3,0.2-1.6,0.6
			c-0.3,0.4-0.5,1.1-0.5,2.1v3.8h-1.2v-10.5H45v3.1c0,0.4,0,0.7-0.1,1H45c0.2-0.4,0.5-0.6,0.9-0.8c0.4-0.2,0.9-0.3,1.4-0.3
			c0.9,0,1.6,0.2,2,0.6c0.5,0.4,0.7,1.1,0.7,2.1v4.8H48.8z"/>
		<path id="XMLID_679_" class="st9" d="M53.4,149.5v4.8c0,0.6,0.1,1,0.4,1.3s0.7,0.4,1.2,0.4c0.8,0,1.3-0.2,1.7-0.6
			c0.3-0.4,0.5-1.1,0.5-2v-3.8h1.2v7.4h-1l-0.2-1h-0.1c-0.2,0.4-0.5,0.6-0.9,0.8s-0.9,0.3-1.4,0.3c-0.9,0-1.6-0.2-2-0.6
			s-0.7-1.1-0.7-2v-4.8H53.4z M54.5,148.4c0.2-0.2,0.4-0.5,0.6-0.9c0.3-0.4,0.5-0.8,0.7-1.1h1.5v0.1c-0.2,0.3-0.5,0.6-0.9,1.1
			s-0.8,0.8-1,1h-0.8V148.4z"/>
		<path id="XMLID_677_" class="st9" d="M63.7,157c-1.1,0-1.9-0.3-2.5-1c-0.6-0.7-0.9-1.6-0.9-2.8c0-1.2,0.3-2.2,0.9-2.9s1.5-1,2.6-1
			c0.4,0,0.7,0,1.1,0.1c0.4,0.1,0.6,0.2,0.9,0.3l-0.4,1c-0.6-0.2-1.2-0.3-1.6-0.3c-0.7,0-1.3,0.2-1.6,0.7c-0.4,0.5-0.5,1.2-0.5,2.1
			c0,0.9,0.2,1.6,0.5,2c0.4,0.5,0.9,0.7,1.6,0.7c0.6,0,1.3-0.1,1.9-0.4v1.1C65.1,156.9,64.5,157,63.7,157z"/>
	</g>
</g>
</svg>
