<?xml version="1.0" encoding="utf-8"?>
<!-- Generator: Adobe Illustrator 19.0.0, SVG Export Plug-In . SVG Version: 6.00 Build 0)  -->
<svg version="1.1" id="Layer_1" xmlns="http://www.w3.org/2000/svg" xmlns:xlink="http://www.w3.org/1999/xlink" x="0px" y="0px"
	 viewBox="0 0 164.5 166.9" style="enable-background:new 0 0 164.5 166.9;" xml:space="preserve">
<style type="text/css">
	.st0{fill:#15B27E;}
	.st1{fill:#FFFFFF;}
	.st2{fill:#88181A;}
	.st3{fill:#D14C27;}
	.st4{fill:#B53525;}
	.st5{fill:#BFB77B;}
	.st6{fill:#F9A721;}
	.st7{fill:#FFDE9C;}
	.st8{fill:#EE3048;}
	.st9{fill:#F9E558;}
	.st10{fill:#199247;}
	.st11{fill:#4AB85B;}
	.st12{fill:#A0944C;}
	.st13{fill:#CD202B;}
	.st14{fill:#404040;}
</style>
<rect id="XMLID_12531_" class="st0" width="150" height="166.9"/>
<g id="XMLID_12525_">
	<polygon id="XMLID_12530_" class="st1" points="145.2,166 145.2,146.8 164.5,166 	"/>
	<g id="XMLID_12526_">
		<rect id="XMLID_155_" y="95.7" class="st1" width="150" height="70.3"/>
		<rect id="XMLID_153_" y="95.7" class="st1" width="150" height="70.3"/>
	</g>
</g>
<rect id="XMLID_12524_" x="25.9" y="11.5" class="st2" width="95.3" height="59.9"/>
<rect id="XMLID_12523_" x="25.9" y="30.5" class="st3" width="73.4" height="3"/>
<rect id="XMLID_12522_" x="25.9" y="11.5" class="st3" width="3" height="59.9"/>
<rect id="XMLID_12521_" x="49.3" y="11.5" class="st3" width="3" height="59.9"/>
<rect id="XMLID_12520_" x="72.8" y="11.5" class="st3" width="3" height="59.9"/>
<rect id="XMLID_12519_" x="96.2" y="11.5" class="st3" width="3" height="59.9"/>
<rect id="XMLID_12518_" x="119.7" y="8.5" class="st3" width="3" height="63"/>
<rect id="XMLID_12517_" x="25.9" y="49.4" class="st3" width="95.3" height="3"/>
<rect id="XMLID_12516_" x="25.9" y="8.5" class="st3" width="95.6" height="3"/>
<rect id="XMLID_12515_" x="25.9" y="69.5" class="st4" width="96.9" height="13.7"/>
<circle id="XMLID_12514_" class="st5" cx="87.1" cy="41.5" r="6.7"/>
<path id="XMLID_12513_" class="st5" d="M56.5,60.4c0-3.7,3-6.7,6.7-6.7c3.7,0,6.7,3,6.7,6.7"/>
<circle id="XMLID_12512_" class="st5" cx="86.2" cy="21.3" r="6.7"/>
<circle id="XMLID_12511_" class="st6" cx="62.6" cy="21.3" r="6.7"/>
<circle id="XMLID_12510_" class="st6" cx="85.8" cy="60" r="6.7"/>
<circle id="XMLID_12509_" class="st6" cx="109" cy="60" r="6.7"/>
<circle id="XMLID_12508_" class="st6" cx="39.2" cy="60.4" r="6.7"/>
<circle id="XMLID_12507_" class="st7" cx="39.2" cy="60.4" r="3.9"/>
<circle id="XMLID_12506_" class="st8" cx="40.2" cy="21.3" r="6.7"/>
<circle id="XMLID_12505_" class="st6" cx="40.2" cy="41.5" r="6.7"/>
<path id="XMLID_12504_" class="st9" d="M116.4,25.4v7.4c0,4.1-3.3,7.4-7.4,7.4l0,0c-4.1,0-7.4-3.3-7.4-7.4v-7.4
	c0-4.1,3.3-7.4,7.4-7.4l0,0C113.1,18,116.4,21.4,116.4,25.4z"/>
<path id="XMLID_12503_" class="st10" d="M96.5,16.7l-9.4,10.7C87.1,27.4,94.8,29.6,96.5,16.7z"/>
<path id="XMLID_12502_" class="st11" d="M96.7,16.9l-9.4,10.7C87.3,27.6,85.3,18.8,96.7,16.9z"/>
<path id="XMLID_12501_" class="st7" d="M66.4,46.7h-7.7c-1.6,0-2.8-1.3-2.8-2.8v-6.2c0-1.6,1.3-2.8,2.8-2.8h7.7
	c1.6,0,2.8,1.3,2.8,2.8v6.2C69.2,45.5,68,46.7,66.4,46.7z"/>
<rect id="XMLID_12500_" x="26.5" y="68" class="st3" width="95.6" height="3"/>
<path id="XMLID_12499_" class="st7" d="M67.9,62.8h-9.5c-1.1,0-1.9-0.9-1.9-1.9l0,0c0-1.1,0.9-1.9,1.9-1.9h9.5
	c1.1,0,1.9,0.9,1.9,1.9l0,0C69.8,61.9,68.9,62.8,67.9,62.8z"/>
<path id="XMLID_12498_" class="st8" d="M67.6,61.7h-9c-0.3,0-0.6-0.3-0.6-0.6v-0.5c0-0.3,0.3-0.6,0.6-0.6h9c0.3,0,0.6,0.3,0.6,0.6
	v0.5C68.3,61.4,68,61.7,67.6,61.7z"/>
<path id="XMLID_12497_" class="st12" d="M85.8,40.8L85.8,40.8c-0.7,0-1.3-0.6-1.3-1.3l0,0c0-0.7,0.6-1.3,1.3-1.3l0,0
	c0.7,0,1.3,0.6,1.3,1.3l0,0C87.1,40.2,86.5,40.8,85.8,40.8z"/>
<path id="XMLID_12496_" class="st12" d="M88.2,43.5L88.2,43.5c-0.7,0-1.3-0.6-1.3-1.3l0,0c0-0.7,0.6-1.3,1.3-1.3l0,0
	c0.7,0,1.3,0.6,1.3,1.3l0,0C89.5,43,89,43.5,88.2,43.5z"/>
<path id="XMLID_12495_" class="st12" d="M90.4,40.8L90.4,40.8c-0.7,0-1.3-0.6-1.3-1.3l0,0c0-0.7,0.6-1.3,1.3-1.3l0,0
	c0.7,0,1.3,0.6,1.3,1.3l0,0C91.7,40.2,91.1,40.8,90.4,40.8z"/>
<g id="XMLID_12490_">
	<circle id="XMLID_12494_" class="st13" cx="10.4" cy="107" r="4"/>
	<path id="XMLID_12493_" class="st13" d="M6.4,107h8.1V117C14.4,117,6.4,112.1,6.4,107z"/>
	<circle id="XMLID_12492_" class="st13" cx="18.5" cy="106.8" r="4"/>
	<path id="XMLID_12491_" class="st13" d="M22.5,106.8h-8.1v10.1C14.4,116.9,22.5,112,22.5,106.8z"/>
</g>
<g id="XMLID_145_">
	<path id="XMLID_146_" class="st14" d="M33.5,113.9h-2.1v-8.2h-2.7v-1.8h7.5v1.8h-2.7V113.9z"/>
	<path id="XMLID_148_" class="st14" d="M44.6,113.9h-2.1v-4.5c0-1.1-0.4-1.7-1.2-1.7c-0.6,0-1,0.2-1.3,0.6s-0.4,1-0.4,1.9v3.6h-2.1
		v-10.6h2.1v2.2c0,0.2,0,0.6,0,1.2l0,0.6h0.1c0.5-0.7,1.2-1.1,2.2-1.1c0.9,0,1.6,0.2,2,0.7c0.5,0.5,0.7,1.2,0.7,2.1V113.9z"/>
	<path id="XMLID_150_" class="st14" d="M52.2,113.9l-0.3-1h-0.1c-0.2,0.4-0.5,0.6-0.9,0.8c-0.4,0.2-0.9,0.3-1.4,0.3
		c-0.9,0-1.6-0.2-2-0.7c-0.5-0.5-0.7-1.2-0.7-2.1v-5h2.1v4.5c0,0.6,0.1,1,0.3,1.2c0.2,0.3,0.5,0.4,0.9,0.4c0.6,0,1-0.2,1.3-0.6
		s0.4-1,0.4-1.9v-3.6h2.1v0.8c0.3-0.1,0.6-0.3,0.8-0.7s0.3-0.8,0.3-1.3h2.1l0.1,0.2c-0.1,0.7-0.3,1.3-0.6,1.6s-0.6,0.7-1,0.9
		s-0.9,0.4-1.6,0.5v5.6H52.2z M49,115.8c0-0.7,0.4-1,1.1-1c0.8,0,1.1,0.3,1.1,1c0,0.3-0.1,0.6-0.3,0.8s-0.5,0.3-0.8,0.3
		C49.4,116.8,49,116.5,49,115.8z"/>
	<path id="XMLID_156_" class="st14" d="M60.5,114c-2.4,0-3.6-1.3-3.6-3.9c0-1.3,0.3-2.3,1-3c0.6-0.7,1.6-1,2.8-1
		c0.9,0,1.7,0.2,2.4,0.5l-0.6,1.6c-0.3-0.1-0.6-0.2-0.9-0.3c-0.3-0.1-0.6-0.1-0.8-0.1c-1.1,0-1.6,0.8-1.6,2.3c0,1.5,0.5,2.2,1.6,2.2
		c0.4,0,0.8-0.1,1.1-0.2c0.3-0.1,0.7-0.3,1-0.5v1.8c-0.3,0.2-0.7,0.4-1,0.4S61,114,60.5,114z"/>
	<path id="XMLID_158_" class="st14" d="M72.4,114c-0.9,0-1.6-0.3-2.1-1h-0.1c0.1,0.6,0.1,1,0.1,1.1v3.1h-2.1v-11h1.7l0.3,1h0.1
		c0.5-0.8,1.2-1.1,2.2-1.1c0.9,0,1.6,0.3,2.1,1c0.5,0.7,0.8,1.7,0.8,2.9c0,0.8-0.1,1.5-0.4,2.1s-0.6,1.1-1,1.4
		C73.5,113.9,73,114,72.4,114z M71.8,107.8c-0.5,0-0.9,0.2-1.1,0.5c-0.2,0.3-0.4,0.8-0.4,1.6v0.2c0,0.8,0.1,1.4,0.4,1.8
		s0.6,0.5,1.2,0.5c0.9,0,1.4-0.8,1.4-2.3c0-0.8-0.1-1.3-0.3-1.7S72.3,107.8,71.8,107.8z"/>
	<path id="XMLID_161_" class="st14" d="M84.1,113.9H82v-4.5c0-1.1-0.4-1.7-1.2-1.7c-0.6,0-1,0.2-1.3,0.6s-0.4,1-0.4,1.9v3.6h-2.1
		v-10.6h2.1v2.2c0,0.2,0,0.6,0,1.2l0,0.6h0.1c0.5-0.7,1.2-1.1,2.2-1.1c0.9,0,1.6,0.2,2,0.7c0.5,0.5,0.7,1.2,0.7,2.1V113.9z"/>
	<path id="XMLID_163_" class="st14" d="M91.1,113.9l-0.4-1h-0.1c-0.4,0.4-0.7,0.7-1.1,0.9s-0.9,0.3-1.5,0.3c-0.7,0-1.3-0.2-1.7-0.6
		c-0.4-0.4-0.6-1-0.6-1.8c0-0.8,0.3-1.4,0.9-1.8c0.6-0.4,1.4-0.6,2.6-0.6l1.3,0v-0.3c0-0.8-0.4-1.2-1.2-1.2c-0.6,0-1.3,0.2-2.2,0.6
		l-0.7-1.4c0.9-0.5,1.9-0.7,2.9-0.7c1,0,1.8,0.2,2.4,0.7c0.5,0.4,0.8,1.1,0.8,2v5.1H91.1z M92,105.4h-1.1c-0.5-0.3-1-0.7-1.4-1.1
		c-0.5,0.5-1,0.8-1.4,1.1h-1.1v-0.2c0.5-0.6,1-1.2,1.5-1.9h2.2c0.2,0.4,0.5,0.7,0.8,1.1s0.5,0.7,0.7,0.8V105.4z M90.5,110.3l-0.8,0
		c-0.6,0-1.1,0.1-1.4,0.3c-0.3,0.2-0.4,0.5-0.4,0.9c0,0.6,0.3,0.9,1,0.9c0.5,0,0.9-0.1,1.2-0.4c0.3-0.3,0.4-0.6,0.4-1.1V110.3z
		 M93.3,102.7c0,0.5-0.3,0.8-0.9,1l0,0.4h-0.9l-0.1-0.8c0.3,0,0.5,0,0.6-0.1c0.2-0.1,0.2-0.2,0.2-0.3c0-0.1,0-0.2-0.1-0.2
		s-0.2-0.1-0.4-0.1c-0.2,0-0.3,0-0.5,0.1v-0.9c0.1,0,0.3,0,0.6,0c0.4,0,0.8,0.1,1,0.2S93.3,102.4,93.3,102.7z"/>
	<path id="XMLID_168_" class="st14" d="M101.6,113.9h-2.1v-4.5c0-0.6-0.1-1-0.3-1.2c-0.2-0.3-0.5-0.4-0.9-0.4
		c-0.5,0-0.9,0.2-1.2,0.6c-0.2,0.4-0.4,1-0.4,1.9v3.6h-2.1v-7.6h1.6l0.3,1h0.1c0.2-0.4,0.5-0.6,0.9-0.8c0.4-0.2,0.8-0.3,1.3-0.3
		c1.1,0,1.9,0.4,2.3,1.1h0.2c0.2-0.4,0.5-0.6,0.9-0.8c0.4-0.2,0.8-0.3,1.4-0.3c0.9,0,1.5,0.2,2,0.7s0.7,1.2,0.7,2.1v5h-2.1v-4.5
		c0-0.6-0.1-1-0.3-1.2c-0.2-0.3-0.5-0.4-0.9-0.4c-0.5,0-0.9,0.2-1.1,0.5c-0.3,0.4-0.4,0.9-0.4,1.7V113.9z"/>
	<path id="XMLID_170_" class="st14" d="M37.3,128.7h-1.3V124H31v4.7h-1.3v-10H31v4.2h5.1v-4.2h1.3V128.7z"/>
	<path id="XMLID_172_" class="st14" d="M44.5,128.7l-0.2-1.1h-0.1c-0.4,0.5-0.7,0.8-1.1,1c-0.4,0.2-0.8,0.3-1.4,0.3
		c-0.7,0-1.3-0.2-1.7-0.6c-0.4-0.4-0.6-0.9-0.6-1.6c0-1.5,1.2-2.3,3.6-2.4l1.3,0v-0.4c0-0.6-0.1-1-0.4-1.3c-0.2-0.3-0.6-0.4-1.2-0.4
		c-0.4,0-0.8,0.1-1.1,0.2c-0.4,0.1-0.7,0.3-1,0.4l-0.4-0.9c0.4-0.2,0.8-0.4,1.2-0.5c0.4-0.1,0.9-0.2,1.3-0.2c0.9,0,1.6,0.2,2,0.6
		c0.4,0.4,0.7,1,0.7,1.9v5.1H44.5z M43.7,120.2c-0.2,0-0.4,0-0.6-0.1c-0.2-0.1-0.4-0.2-0.6-0.3c-0.2-0.1-0.4-0.2-0.5-0.3
		c-0.2-0.1-0.3-0.1-0.5-0.1c-0.2,0-0.4,0.1-0.5,0.2c-0.1,0.1-0.2,0.3-0.3,0.6h-0.7c0.1-0.6,0.2-1,0.5-1.3c0.3-0.3,0.6-0.5,1.1-0.5
		c0.2,0,0.4,0,0.6,0.1c0.2,0.1,0.4,0.2,0.6,0.3c0.2,0.1,0.3,0.2,0.5,0.3c0.2,0.1,0.3,0.1,0.5,0.1c0.2,0,0.4-0.1,0.5-0.2
		c0.1-0.1,0.2-0.3,0.3-0.6h0.7c-0.1,0.5-0.2,1-0.5,1.3C44.5,120,44.1,120.2,43.7,120.2z M42,127.8c0.7,0,1.2-0.2,1.6-0.6
		c0.4-0.4,0.6-0.9,0.6-1.6V125l-1.1,0c-0.9,0-1.5,0.2-1.9,0.4c-0.4,0.2-0.6,0.6-0.6,1.1c0,0.4,0.1,0.7,0.4,0.9
		C41.2,127.7,41.6,127.8,42,127.8z"/>
	<path id="XMLID_176_" class="st14" d="M46.6,121.2h1.3l1.6,4.3c0.3,0.9,0.6,1.6,0.6,2h0.1c0-0.2,0.1-0.5,0.3-0.9
		c0.1-0.5,0.3-0.8,0.4-1.1l1.5-4.3h1.3l-3.2,8.5c-0.3,0.8-0.7,1.4-1.1,1.8c-0.4,0.4-1,0.5-1.6,0.5c-0.3,0-0.7,0-1-0.1v-1
		c0.2,0.1,0.5,0.1,0.8,0.1c0.4,0,0.7-0.1,1-0.3c0.3-0.2,0.5-0.5,0.7-1l0.4-1L46.6,121.2z"/>
	<path id="XMLID_178_" class="st14" d="M61.2,128.8c-1,0-1.7-0.3-2.2-1s-0.8-1.6-0.8-2.9c0-1.2,0.3-2.2,0.8-2.9s1.3-1,2.3-1
		c1,0,1.8,0.4,2.3,1.2h0.1l0.2-1h1V132h-1.2v-3.2c0-0.5,0-0.9,0.1-1.2h-0.1C63,128.4,62.2,128.8,61.2,128.8z M61.4,127.8
		c0.7,0,1.3-0.2,1.6-0.6c0.3-0.4,0.5-1.1,0.5-2v-0.3c0-1-0.2-1.8-0.5-2.2c-0.3-0.4-0.9-0.7-1.6-0.7c-0.6,0-1.1,0.3-1.5,0.8
		s-0.5,1.2-0.5,2.2c0,0.9,0.2,1.6,0.5,2.1S60.7,127.8,61.4,127.8z"/>
	<path id="XMLID_181_" class="st14" d="M68.3,121.2v4.8c0,0.6,0.1,1.1,0.4,1.3s0.7,0.4,1.3,0.4c0.8,0,1.3-0.2,1.7-0.6
		c0.4-0.4,0.5-1.1,0.5-2.1v-3.9h1.2v7.5h-1l-0.2-1h-0.1c-0.2,0.4-0.5,0.6-1,0.8c-0.4,0.2-0.9,0.3-1.4,0.3c-0.9,0-1.6-0.2-2-0.6
		c-0.5-0.4-0.7-1.1-0.7-2.1v-4.9H68.3z"/>
	<path id="XMLID_183_" class="st14" d="M80.4,128.7l-0.2-1.1h-0.1c-0.4,0.5-0.7,0.8-1.1,1c-0.4,0.2-0.8,0.3-1.4,0.3
		c-0.7,0-1.3-0.2-1.7-0.6c-0.4-0.4-0.6-0.9-0.6-1.6c0-1.5,1.2-2.3,3.6-2.4l1.3,0v-0.4c0-0.6-0.1-1-0.4-1.3c-0.2-0.3-0.6-0.4-1.2-0.4
		c-0.4,0-0.8,0.1-1.1,0.2c-0.4,0.1-0.7,0.3-1,0.4l-0.4-0.9c0.4-0.2,0.8-0.4,1.2-0.5c0.4-0.1,0.9-0.2,1.3-0.2c0.9,0,1.6,0.2,2,0.6
		c0.4,0.4,0.7,1,0.7,1.9v5.1H80.4z M77.9,127.8c0.7,0,1.2-0.2,1.6-0.6c0.4-0.4,0.6-0.9,0.6-1.6V125l-1.1,0c-0.9,0-1.5,0.2-1.9,0.4
		c-0.4,0.2-0.6,0.6-0.6,1.1c0,0.4,0.1,0.7,0.4,0.9C77.1,127.7,77.5,127.8,77.9,127.8z"/>
	<path id="XMLID_186_" class="st14" d="M88.8,128.7v-4.8c0-0.6-0.1-1.1-0.4-1.4c-0.3-0.3-0.7-0.4-1.3-0.4c-0.8,0-1.3,0.2-1.7,0.6
		c-0.3,0.4-0.5,1.1-0.5,2.1v3.9h-1.2v-7.5h1l0.2,1h0.1c0.2-0.4,0.6-0.7,1-0.9c0.4-0.2,0.9-0.3,1.4-0.3c0.9,0,1.6,0.2,2.1,0.7
		c0.4,0.4,0.7,1.1,0.7,2.1v4.9H88.8z"/>
	<path id="XMLID_188_" class="st14" d="M98.5,127.8c0.2,0,0.3,0,0.6,0c0.2,0,0.4-0.1,0.5-0.1v0.9c-0.1,0-0.3,0.1-0.5,0.1
		s-0.5,0.1-0.7,0.1c-1.5,0-2.2-0.8-2.2-2.3v-4.4H95v-0.6l1.1-0.5l0.5-1.6h0.7v1.7h2.2v1h-2.2v4.3c0,0.4,0.1,0.8,0.3,1
		S98.1,127.8,98.5,127.8z"/>
	<path id="XMLID_190_" class="st14" d="M105.6,128.7l-0.2-1.1h-0.1c-0.4,0.5-0.7,0.8-1.1,1c-0.4,0.2-0.8,0.3-1.4,0.3
		c-0.7,0-1.3-0.2-1.7-0.6c-0.4-0.4-0.6-0.9-0.6-1.6c0-1.5,1.2-2.3,3.6-2.4l1.3,0v-0.4c0-0.6-0.1-1-0.4-1.3c-0.2-0.3-0.6-0.4-1.2-0.4
		c-0.4,0-0.8,0.1-1.1,0.2c-0.4,0.1-0.7,0.3-1,0.4l-0.4-0.9c0.4-0.2,0.8-0.4,1.2-0.5c0.4-0.1,0.9-0.2,1.3-0.2c0.9,0,1.6,0.2,2,0.6
		c0.4,0.4,0.7,1,0.7,1.9v5.1H105.6z M101.3,120c0.6-0.6,1-1.1,1.2-1.4c0.2-0.3,0.4-0.5,0.5-0.7h1.3c0.2,0.5,0.8,1.2,1.8,2.1v0.2
		h-0.9c-0.4-0.2-0.9-0.7-1.5-1.3c-0.6,0.6-1.1,1-1.5,1.3h-0.8V120z M103.1,127.8c0.7,0,1.2-0.2,1.6-0.6c0.4-0.4,0.6-0.9,0.6-1.6V125
		l-1.1,0c-0.9,0-1.5,0.2-1.9,0.4c-0.4,0.2-0.6,0.6-0.6,1.1c0,0.4,0.1,0.7,0.4,0.9C102.3,127.7,102.7,127.8,103.1,127.8z"/>
	<path id="XMLID_194_" class="st14" d="M118.4,128.7v-4.8c0-1.2-0.5-1.8-1.5-1.8c-0.7,0-1.2,0.2-1.5,0.6c-0.3,0.4-0.5,1-0.5,1.9v4.1
		h-1.2v-4.8c0-0.6-0.1-1-0.4-1.3c-0.2-0.3-0.6-0.4-1.2-0.4c-0.7,0-1.2,0.2-1.5,0.6s-0.5,1.1-0.5,2.1v3.9h-1.2v-7.5h1l0.2,1h0.1
		c0.2-0.4,0.5-0.6,0.9-0.9s0.8-0.3,1.3-0.3c1.2,0,1.9,0.4,2.3,1.3h0.1c0.2-0.4,0.6-0.7,1-0.9s0.9-0.3,1.4-0.3c0.8,0,1.5,0.2,1.9,0.7
		s0.6,1.1,0.6,2.1v4.9H118.4z"/>
	<path id="XMLID_196_" class="st14" d="M127.2,128.7l-2.8-7.5h1.3l1.6,4.4c0.3,0.9,0.5,1.6,0.6,2h0.1c0-0.1,0-0.1,0.1-0.2
		s0-0.2,0.1-0.2s0.2-0.6,0.5-1.5l1.6-4.4h1.3l-2.9,7.5H127.2z"/>
	<path id="XMLID_198_" class="st14" d="M137.3,128.7l-0.2-1.1H137c-0.4,0.5-0.7,0.8-1.1,1c-0.4,0.2-0.8,0.3-1.4,0.3
		c-0.7,0-1.3-0.2-1.7-0.6c-0.4-0.4-0.6-0.9-0.6-1.6c0-1.5,1.2-2.3,3.6-2.4l1.3,0v-0.4c0-0.6-0.1-1-0.4-1.3c-0.2-0.3-0.6-0.4-1.2-0.4
		c-0.4,0-0.8,0.1-1.1,0.2c-0.4,0.1-0.7,0.3-1,0.4l-0.4-0.9c0.4-0.2,0.8-0.4,1.2-0.5c0.4-0.1,0.9-0.2,1.3-0.2c0.9,0,1.6,0.2,2,0.6
		c0.4,0.4,0.7,1,0.7,1.9v5.1H137.3z M136.2,120.2h-0.8c-0.3-0.3-0.7-0.6-1.1-1.1c-0.4-0.4-0.7-0.8-0.9-1v-0.1h1.5
		c0.1,0.3,0.4,0.7,0.6,1.1c0.3,0.4,0.5,0.7,0.7,1V120.2z M134.8,127.8c0.7,0,1.2-0.2,1.6-0.6c0.4-0.4,0.6-0.9,0.6-1.6V125l-1.1,0
		c-0.9,0-1.5,0.2-1.9,0.4c-0.4,0.2-0.6,0.6-0.6,1.1c0,0.4,0.1,0.7,0.4,0.9C134,127.7,134.4,127.8,134.8,127.8z"/>
	<path id="XMLID_202_" class="st14" d="M34.5,143.4l0-0.9h-0.1c-0.5,0.8-1.3,1.1-2.3,1.1c-1,0-1.7-0.3-2.3-1s-0.8-1.6-0.8-2.9
		c0-1.2,0.3-2.2,0.8-2.9s1.3-1,2.3-1c1,0,1.8,0.4,2.4,1.1h0.1l0.2-1h1v7.6c0,1.1-0.3,1.9-0.8,2.4c-0.5,0.5-1.4,0.8-2.5,0.8
		c-1.1,0-2-0.2-2.7-0.5v-1.1c0.7,0.4,1.7,0.6,2.8,0.6c0.6,0,1.1-0.2,1.5-0.6c0.4-0.4,0.6-0.9,0.6-1.6V143.4z M32.4,142.6
		c0.8,0,1.3-0.2,1.7-0.6c0.3-0.4,0.5-1.1,0.5-2v-0.3c0-1-0.2-1.7-0.5-2.2c-0.3-0.5-0.9-0.7-1.7-0.7c-0.6,0-1.1,0.3-1.5,0.7
		s-0.5,1.2-0.5,2.1c0,0.9,0.2,1.6,0.5,2.1C31.2,142.4,31.7,142.6,32.4,142.6z"/>
	<path id="XMLID_205_" class="st14" d="M38.1,133.9c0-0.3,0.1-0.5,0.2-0.6s0.3-0.2,0.5-0.2c0.2,0,0.4,0.1,0.5,0.2s0.2,0.3,0.2,0.6
		c0,0.3-0.1,0.5-0.2,0.6c-0.1,0.1-0.3,0.2-0.5,0.2c-0.2,0-0.4-0.1-0.5-0.2C38.1,134.4,38.1,134.2,38.1,133.9z M39.4,143.5h-1.2V136
		h1.2V143.5z"/>
	<path id="XMLID_208_" class="st14" d="M42.9,136v4.8c0,0.6,0.1,1.1,0.4,1.4s0.7,0.4,1.3,0.4c0.8,0,1.3-0.2,1.7-0.6
		c0.4-0.4,0.5-1.1,0.5-2.1V136H48v7.5h-1l-0.2-1h-0.1c-0.2,0.4-0.5,0.6-1,0.8c-0.4,0.2-0.9,0.3-1.4,0.3c-0.9,0-1.6-0.2-2-0.6
		c-0.5-0.4-0.7-1.1-0.7-2.1V136H42.9z M44,134.8c0.2-0.2,0.4-0.5,0.7-0.9s0.5-0.8,0.7-1.1h1.5v0.1c-0.2,0.3-0.5,0.7-0.9,1.1
		c-0.4,0.4-0.8,0.8-1.1,1H44V134.8z"/>
	<path id="XMLID_211_" class="st14" d="M54,143.6c-1,0-1.8-0.4-2.3-1.1h-0.1l0,0.3c0,0.4,0.1,0.7,0.1,1v3.1h-1.2V136h1l0.2,1h0.1
		c0.3-0.4,0.6-0.7,1-0.9c0.4-0.2,0.8-0.3,1.3-0.3c1,0,1.7,0.3,2.3,1s0.8,1.6,0.8,2.9c0,1.2-0.3,2.2-0.8,2.9
		C55.7,143.3,54.9,143.6,54,143.6z M53.8,136.9c-0.7,0-1.3,0.2-1.6,0.6c-0.3,0.4-0.5,1.1-0.5,2v0.2c0,1,0.2,1.8,0.5,2.2
		c0.3,0.5,0.9,0.7,1.6,0.7c0.6,0,1.1-0.3,1.5-0.8c0.4-0.5,0.5-1.2,0.5-2.1c0-0.9-0.2-1.6-0.5-2.1S54.4,136.9,53.8,136.9z"/>
	<path id="XMLID_214_" class="st14" d="M65.3,143.6c-1,0-1.7-0.3-2.3-1c-0.5-0.7-0.8-1.6-0.8-2.8c0-1.2,0.3-2.2,0.8-2.9
		c0.5-0.7,1.3-1,2.3-1c1,0,1.8,0.4,2.3,1.1h0.1c0-0.1,0-0.2-0.1-0.5c0-0.3,0-0.5,0-0.6V135h-3v-0.9h3v-1.2h1.2v1.2H70v0.9h-1.1v8.5
		h-1l-0.2-1h-0.1C67.1,143.2,66.3,143.6,65.3,143.6z M65.5,142.6c0.7,0,1.3-0.2,1.6-0.6s0.5-1.1,0.5-2v-0.2c0-1-0.2-1.8-0.5-2.2
		c-0.3-0.4-0.9-0.6-1.6-0.6c-0.6,0-1.1,0.2-1.5,0.7c-0.3,0.5-0.5,1.2-0.5,2.2c0,0.9,0.2,1.6,0.5,2.1
		C64.3,142.3,64.9,142.6,65.5,142.6z"/>
	<path id="XMLID_217_" class="st14" d="M77.8,139.7c0,1.2-0.3,2.2-0.9,2.9c-0.6,0.7-1.5,1-2.6,1c-0.7,0-1.3-0.2-1.8-0.5
		c-0.5-0.3-0.9-0.8-1.2-1.4c-0.3-0.6-0.4-1.3-0.4-2.1c0-1.2,0.3-2.2,0.9-2.9c0.6-0.7,1.5-1,2.6-1c0.5,0,0.9,0.1,1.4,0.3
		c0.4,0.2,0.8,0.4,1.1,0.7c0.2-0.1,0.4-0.2,0.5-0.3c0.1-0.2,0.2-0.3,0.3-0.6c0.1-0.2,0.1-0.6,0.1-1.1h1.3l0.1,0.2
		c-0.1,0.7-0.4,1.3-0.6,1.7c-0.3,0.4-0.7,0.7-1.2,0.9C77.7,138.2,77.8,138.9,77.8,139.7z M75.4,135c-0.2,0-0.4,0-0.6-0.1
		c-0.2-0.1-0.4-0.2-0.6-0.3c-0.2-0.1-0.4-0.2-0.5-0.3c-0.2-0.1-0.3-0.1-0.5-0.1c-0.2,0-0.4,0.1-0.5,0.2c-0.1,0.1-0.2,0.3-0.3,0.6
		h-0.7c0.1-0.6,0.2-1,0.5-1.3c0.3-0.3,0.6-0.5,1.1-0.5c0.2,0,0.4,0,0.6,0.1c0.2,0.1,0.4,0.2,0.6,0.3c0.2,0.1,0.3,0.2,0.5,0.3
		c0.2,0.1,0.3,0.1,0.5,0.1c0.2,0,0.4-0.1,0.5-0.2c0.1-0.1,0.2-0.3,0.3-0.6H77c-0.1,0.5-0.2,1-0.5,1.3C76.2,134.8,75.9,135,75.4,135z
		 M72.2,139.7c0,1,0.2,1.7,0.5,2.2c0.4,0.5,0.9,0.7,1.7,0.7c0.8,0,1.3-0.2,1.7-0.7c0.3-0.5,0.5-1.2,0.5-2.2c0-0.9-0.2-1.6-0.5-2.1
		c-0.4-0.5-0.9-0.7-1.7-0.7c-0.8,0-1.3,0.2-1.7,0.7C72.3,138.1,72.2,138.8,72.2,139.7z"/>
	<path id="XMLID_221_" class="st14" d="M84.8,143.5h-1.2v-10.6h1.2V143.5z"/>
	<path id="XMLID_223_" class="st14" d="M91.8,143.5l-0.2-1.1h-0.1c-0.4,0.5-0.7,0.8-1.1,1c-0.4,0.2-0.8,0.2-1.4,0.2
		c-0.7,0-1.3-0.2-1.7-0.6c-0.4-0.4-0.6-0.9-0.6-1.6c0-1.5,1.2-2.3,3.6-2.4l1.3,0v-0.4c0-0.6-0.1-1-0.4-1.3c-0.2-0.3-0.6-0.4-1.2-0.4
		c-0.4,0-0.8,0.1-1.1,0.2c-0.4,0.1-0.7,0.3-1,0.4l-0.4-0.9c0.4-0.2,0.8-0.4,1.2-0.5c0.4-0.1,0.9-0.2,1.3-0.2c0.9,0,1.6,0.2,2,0.6
		c0.4,0.4,0.7,1,0.7,1.9v5.1H91.8z M90.8,132.6c-0.2,0-0.3,0-0.5-0.1c-0.2-0.1-0.3-0.1-0.5-0.2s-0.3-0.2-0.4-0.2
		c-0.1-0.1-0.3-0.1-0.4-0.1c-0.2,0-0.3,0.1-0.4,0.2c-0.1,0.1-0.2,0.3-0.2,0.5h-0.6c0.1-0.5,0.2-0.9,0.4-1.1c0.2-0.3,0.5-0.4,0.9-0.4
		c0.2,0,0.3,0,0.5,0.1c0.2,0.1,0.3,0.1,0.5,0.2s0.3,0.2,0.4,0.2c0.1,0.1,0.3,0.1,0.4,0.1c0.2,0,0.3-0.1,0.4-0.2
		c0.1-0.1,0.2-0.3,0.2-0.5h0.6c-0.1,0.5-0.2,0.9-0.4,1.1C91.5,132.5,91.2,132.6,90.8,132.6z M92,135h-0.7c-0.5-0.3-1-0.7-1.5-1.1
		c-0.4,0.4-0.9,0.8-1.5,1.1h-0.7v-0.2l0.4-0.4c0.5-0.6,0.9-1,1.1-1.4h1.3c0.2,0.3,0.5,0.6,0.7,0.9c0.3,0.3,0.5,0.6,0.8,0.9V135z
		 M89.3,142.6c0.7,0,1.2-0.2,1.6-0.6c0.4-0.4,0.6-0.9,0.6-1.6v-0.7l-1.1,0c-0.9,0-1.5,0.2-1.9,0.4c-0.4,0.2-0.6,0.6-0.6,1.1
		c0,0.4,0.1,0.7,0.4,0.9C88.5,142.5,88.8,142.6,89.3,142.6z"/>
	<path id="XMLID_228_" class="st14" d="M100.1,143.5v-4.8c0-0.6-0.1-1.1-0.4-1.4c-0.3-0.3-0.7-0.4-1.3-0.4c-0.8,0-1.3,0.2-1.7,0.6
		c-0.3,0.4-0.5,1.1-0.5,2.1v3.9H95V136h1l0.2,1h0.1c0.2-0.4,0.6-0.7,1-0.9c0.4-0.2,0.9-0.3,1.4-0.3c0.9,0,1.6,0.2,2.1,0.7
		c0.4,0.4,0.7,1.1,0.7,2.1v4.9H100.1z"/>
	<path id="XMLID_230_" class="st14" d="M112.4,143.5v-4.8c0-0.6-0.1-1.1-0.4-1.4c-0.3-0.3-0.7-0.4-1.3-0.4c-0.8,0-1.3,0.2-1.7,0.6
		c-0.3,0.4-0.5,1.1-0.5,2.1v3.9h-1.2V136h1l0.2,1h0.1c0.2-0.4,0.6-0.7,1-0.9c0.4-0.2,0.9-0.3,1.4-0.3c0.9,0,1.6,0.2,2.1,0.7
		c0.4,0.4,0.7,1.1,0.7,2.1v4.9H112.4z"/>
	<path id="XMLID_232_" class="st14" d="M121.1,143.5v-4.8c0-0.6-0.1-1.1-0.4-1.4c-0.3-0.3-0.7-0.4-1.3-0.4c-0.8,0-1.3,0.2-1.7,0.6
		s-0.5,1.1-0.5,2.1v3.9H116v-10.6h1.2v3.1c0,0.4,0,0.8-0.1,1.1h0.1c0.2-0.4,0.5-0.6,1-0.9s0.9-0.3,1.4-0.3c0.9,0,1.6,0.2,2.1,0.7
		c0.5,0.4,0.7,1.1,0.7,2.1v4.9H121.1z"/>
	<path id="XMLID_234_" class="st14" d="M129.3,143.5l-0.2-1.1H129c-0.4,0.5-0.7,0.8-1.1,1c-0.4,0.2-0.8,0.2-1.4,0.2
		c-0.7,0-1.3-0.2-1.7-0.6c-0.4-0.4-0.6-0.9-0.6-1.6c0-1.5,1.2-2.3,3.6-2.4l1.3,0v-0.4c0-0.6-0.1-1-0.4-1.3c-0.2-0.3-0.6-0.4-1.2-0.4
		c-0.4,0-0.8,0.1-1.1,0.2c-0.4,0.1-0.7,0.3-1,0.4l-0.4-0.9c0.4-0.2,0.8-0.4,1.2-0.5c0.4-0.1,0.9-0.2,1.3-0.2c0.9,0,1.6,0.2,2,0.6
		c0.4,0.4,0.7,1,0.7,1.9v5.1H129.3z M126.7,142.6c0.7,0,1.2-0.2,1.6-0.6c0.4-0.4,0.6-0.9,0.6-1.6v-0.7l-1.1,0
		c-0.9,0-1.5,0.2-1.9,0.4c-0.4,0.2-0.6,0.6-0.6,1.1c0,0.4,0.1,0.7,0.4,0.9C126,142.5,126.3,142.6,126.7,142.6z"/>
	<path id="XMLID_237_" class="st14" d="M133.6,136v4.8c0,0.6,0.1,1.1,0.4,1.4s0.7,0.4,1.3,0.4c0.8,0,1.3-0.2,1.7-0.6
		c0.4-0.4,0.5-1.1,0.5-2.1V136h1.2v7.5h-1l-0.2-1h-0.1c-0.2,0.4-0.5,0.6-1,0.8c-0.4,0.2-0.9,0.3-1.4,0.3c-0.9,0-1.6-0.2-2-0.6
		c-0.5-0.4-0.7-1.1-0.7-2.1V136H133.6z"/>
</g>
</svg>
