<?xml version="1.0" encoding="utf-8"?>
<!-- Generator: Adobe Illustrator 19.0.0, SVG Export Plug-In . SVG Version: 6.00 Build 0)  -->
<svg version="1.1" id="Layer_1" xmlns="http://www.w3.org/2000/svg" xmlns:xlink="http://www.w3.org/1999/xlink" x="0px" y="0px"
	 viewBox="0 0 165.3 167.3" style="enable-background:new 0 0 165.3 167.3;" xml:space="preserve">
<style type="text/css">
	.st0{fill:#A01D4F;}
	.st1{fill:#FFFFFF;}
	.st2{fill:#CD202B;}
	.st3{fill:#E4E4E4;}
	.st4{fill:none;stroke:#FFFFFF;stroke-width:0.5;stroke-miterlimit:10;}
	.st5{fill:#404040;}
</style>
<rect id="XMLID_4060_" x="16.7" y="0" class="st0" width="148.7" height="167"/>
<rect id="XMLID_4078_" x="16.7" y="106.5" class="st1" width="148.7" height="60.8"/>
<g id="XMLID_9313_">
	<circle id="XMLID_9314_" class="st2" cx="30.2" cy="119.2" r="4"/>
	<path id="XMLID_9315_" class="st2" d="M26.1,119.2h8.1v10.1C34.2,129.3,26.1,124.4,26.1,119.2z"/>
	<circle id="XMLID_2547_" class="st2" cx="38.2" cy="119" r="4"/>
	<path id="XMLID_2546_" class="st2" d="M42.2,119h-8.1v10.1C34.2,129.1,42.2,124.2,42.2,119z"/>
</g>
<g id="XMLID_9325_">
	<g id="XMLID_9326_">
		<path id="XMLID_2544_" class="st3" d="M72.8,22.1l-10.2,1.8c-2.2,0-4,1.5-4,3.3v64.1c0,1.8,1.8,3.3,4,3.3h33.1V16.5H78.2
			L72.8,22.1"/>
		<path id="XMLID_2543_" class="st3" d="M109.4,22.1l10.2,1.8c2.2,0,4,1.5,4,3.3v64.1c0,1.8-1.8,3.3-4,3.3H86.5V16.4h17.4
			L109.4,22.1"/>
		<line id="XMLID_2542_" class="st4" x1="91.1" y1="94.5" x2="91.1" y2="30.1"/>
		<polygon id="XMLID_2541_" class="st0" points="120.2,62.1 111.6,65 103.1,62.1 103.1,45.9 120.2,45.9 		"/>
		<line id="XMLID_2540_" class="st4" x1="78.6" y1="16.5" x2="103.1" y2="16.5"/>
		
			<rect id="XMLID_2539_" x="78.1" y="16.7" transform="matrix(0.7071 -0.7071 0.7071 0.7071 5.7219 65.5113)" class="st4" width="7.7" height="18.2"/>
		
			<rect id="XMLID_2538_" x="96" y="17.1" transform="matrix(-0.7071 -0.7071 0.7071 -0.7071 152.15 114.6458)" class="st4" width="7.7" height="17.5"/>
		<circle id="XMLID_2537_" class="st0" cx="96.9" cy="42.5" r="1.3"/>
		<circle id="XMLID_2536_" class="st0" cx="96.9" cy="50.1" r="1.3"/>
		<circle id="XMLID_2535_" class="st0" cx="96.9" cy="57.6" r="1.3"/>
		<circle id="XMLID_2534_" class="st0" cx="96.9" cy="65.2" r="1.3"/>
		<circle id="XMLID_2533_" class="st0" cx="96.9" cy="72.8" r="1.3"/>
		<circle id="XMLID_2532_" class="st0" cx="96.9" cy="80.4" r="1.3"/>
		<circle id="XMLID_2531_" class="st0" cx="96.9" cy="88" r="1.3"/>
	</g>
</g>
<g id="XMLID_22_">
	<g id="XMLID_737_">
		<path id="XMLID_796_" class="st5" d="M60,120.3c0,1.2-0.2,2.1-0.6,2.9c-0.4,0.8-1,1.4-1.8,1.7l2.4,2.6h-2.7l-1.8-2.2h-0.2
			c-1.5,0-2.7-0.4-3.5-1.3c-0.8-0.9-1.2-2.1-1.2-3.8s0.4-2.9,1.2-3.7c0.8-0.9,2-1.3,3.5-1.3c1.5,0,2.7,0.4,3.5,1.3
			S60,118.7,60,120.3z M52.8,120.3c0,1.1,0.2,1.9,0.6,2.5s1,0.8,1.9,0.8c1.7,0,2.5-1.1,2.5-3.3c0-2.2-0.8-3.3-2.5-3.3
			c-0.8,0-1.5,0.3-1.9,0.8C53,118.4,52.8,119.2,52.8,120.3z"/>
		<path id="XMLID_794_" class="st5" d="M67.1,125.3l-0.3-1h-0.1c-0.2,0.3-0.5,0.6-0.9,0.8s-0.9,0.3-1.4,0.3c-0.9,0-1.5-0.2-2-0.7
			s-0.7-1.2-0.7-2v-4.9h2v4.4c0,0.5,0.1,0.9,0.3,1.2c0.2,0.3,0.5,0.4,0.9,0.4c0.6,0,1-0.2,1.2-0.6c0.3-0.4,0.4-1,0.4-1.9v-3.5h2v7.5
			H67.1z"/>
		<path id="XMLID_789_" class="st5" d="M72,115.6h-1c-0.7-0.5-1.2-1-1.5-1.4v-0.1h1.6c0.2,0.5,0.5,1,0.9,1.4V115.6z M75.6,125.3
			l-0.4-1h-0.1c-0.3,0.4-0.7,0.7-1.1,0.9s-0.8,0.3-1.4,0.3c-0.7,0-1.3-0.2-1.7-0.6c-0.4-0.4-0.6-1-0.6-1.8c0-0.8,0.3-1.4,0.8-1.8
			s1.4-0.6,2.5-0.6l1.3,0v-0.3c0-0.8-0.4-1.1-1.2-1.1c-0.6,0-1.3,0.2-2.1,0.5l-0.7-1.4c0.9-0.5,1.8-0.7,2.9-0.7c1,0,1.8,0.2,2.3,0.7
			c0.5,0.4,0.8,1.1,0.8,2v5H75.6z M71.5,116.7c0.5-0.6,1-1.2,1.4-1.9H75c0.2,0.3,0.5,0.7,0.8,1c0.3,0.4,0.5,0.6,0.7,0.8v0.2h-1.1
			c-0.4-0.3-0.9-0.7-1.4-1.1c-0.5,0.4-0.9,0.8-1.4,1.1h-1.1V116.7z M75,121.8l-0.8,0c-0.6,0-1,0.1-1.3,0.3c-0.3,0.2-0.4,0.5-0.4,0.9
			c0,0.6,0.3,0.9,1,0.9c0.5,0,0.9-0.1,1.1-0.4c0.3-0.3,0.4-0.6,0.4-1.1V121.8z"/>
		<path id="XMLID_787_" class="st5" d="M86.1,125.3h-2v-4.4c0-0.5-0.1-0.9-0.3-1.2s-0.5-0.4-0.9-0.4c-0.6,0-1,0.2-1.2,0.6
			c-0.3,0.4-0.4,1-0.4,1.9v3.5h-2v-7.5h1.6l0.3,1h0.1c0.2-0.4,0.5-0.6,0.9-0.8c0.4-0.2,0.9-0.3,1.4-0.3c0.9,0,1.5,0.2,2,0.7
			c0.5,0.5,0.7,1.2,0.7,2V125.3z"/>
		<path id="XMLID_783_" class="st5" d="M96.6,125.3l-0.4-1h-0.1c-0.3,0.4-0.7,0.7-1.1,0.9s-0.8,0.3-1.4,0.3c-0.7,0-1.3-0.2-1.7-0.6
			c-0.4-0.4-0.6-1-0.6-1.8c0-0.8,0.3-1.4,0.8-1.8s1.4-0.6,2.5-0.6l1.3,0v-0.3c0-0.8-0.4-1.1-1.2-1.1c-0.6,0-1.3,0.2-2.1,0.5
			l-0.7-1.4c0.9-0.5,1.8-0.7,2.9-0.7c1,0,1.8,0.2,2.3,0.7c0.5,0.4,0.8,1.1,0.8,2v5H96.6z M96,121.8l-0.8,0c-0.6,0-1,0.1-1.3,0.3
			c-0.3,0.2-0.4,0.5-0.4,0.9c0,0.6,0.3,0.9,1,0.9c0.5,0,0.9-0.1,1.1-0.4c0.3-0.3,0.4-0.6,0.4-1.1V121.8z M93.7,116.9v-0.2
			c0.8-0.9,1.3-1.6,1.6-2h2.3v0.1c-0.2,0.2-0.6,0.6-1.2,1c-0.6,0.5-1,0.8-1.3,1H93.7z"/>
		<path id="XMLID_780_" class="st5" d="M106.9,121.5c0,1.2-0.3,2.2-1,2.9c-0.6,0.7-1.5,1-2.7,1c-0.7,0-1.4-0.2-1.9-0.5
			c-0.6-0.3-1-0.8-1.3-1.4c-0.3-0.6-0.4-1.3-0.4-2.1c0-1.2,0.3-2.2,1-2.9c0.6-0.7,1.5-1,2.7-1c0.7,0,1.4,0.2,1.9,0.5
			c0.6,0.3,1,0.8,1.3,1.4S106.9,120.7,106.9,121.5z M101.8,121.5c0,0.7,0.1,1.3,0.4,1.7c0.2,0.4,0.6,0.6,1.2,0.6
			c0.5,0,0.9-0.2,1.2-0.6c0.2-0.4,0.4-0.9,0.4-1.7c0-0.7-0.1-1.3-0.4-1.7c-0.2-0.4-0.6-0.6-1.2-0.6c-0.5,0-0.9,0.2-1.2,0.6
			C101.9,120.2,101.8,120.7,101.8,121.5z"/>
		<path id="XMLID_777_" class="st5" d="M57.8,135.3c0,1.4-0.4,2.5-1.2,3.2s-1.9,1.1-3.3,1.1H51v-3.8h-0.9v-0.9H51v-3.9h2.6
			c1.3,0,2.4,0.4,3.1,1.1S57.8,134,57.8,135.3z M56.7,135.3c0-1.1-0.3-1.9-0.8-2.5s-1.4-0.8-2.4-0.8h-1.3v2.9h2.1v0.9h-2.1v2.8h1.1
			C55.5,138.7,56.7,137.6,56.7,135.3z"/>
		<path id="XMLID_772_" class="st5" d="M60.8,131.2h-0.6c-0.5-0.4-0.9-0.8-1.2-1.2v-0.1h1c0.2,0.5,0.5,0.9,0.7,1.2V131.2z
			 M65.2,136.4c0,1.1-0.3,1.9-0.8,2.5c-0.5,0.6-1.3,0.9-2.2,0.9c-0.6,0-1.1-0.1-1.5-0.4s-0.8-0.7-1-1.2s-0.4-1.1-0.4-1.8
			c0-1,0.3-1.9,0.8-2.4s1.3-0.9,2.2-0.9c0.9,0,1.6,0.3,2.2,0.9C64.9,134.6,65.2,135.4,65.2,136.4z M60.3,136.4
			c0,0.8,0.2,1.4,0.5,1.8s0.8,0.6,1.4,0.6c0.6,0,1.1-0.2,1.4-0.6s0.5-1,0.5-1.8s-0.2-1.4-0.5-1.8s-0.8-0.6-1.4-0.6
			C60.9,134,60.3,134.8,60.3,136.4z M64,132.4h-0.6c-0.4-0.3-0.8-0.6-1.2-1c-0.4,0.4-0.8,0.7-1.2,1h-0.6v-0.1l0.3-0.4
			c0.4-0.5,0.8-0.9,1-1.2h1.1c0.2,0.3,0.7,0.9,1.3,1.5V132.4z"/>
		<path id="XMLID_770_" class="st5" d="M71.2,139.7v-4.1c0-0.5-0.1-0.9-0.3-1.2s-0.6-0.4-1.1-0.4c-0.7,0-1.1,0.2-1.4,0.5
			s-0.4,1-0.4,1.8v3.3h-1.1v-6.4h0.8l0.2,0.9h0.1c0.2-0.3,0.5-0.6,0.8-0.7s0.8-0.3,1.2-0.3c0.8,0,1.4,0.2,1.8,0.6s0.6,1,0.6,1.8v4.2
			H71.2z"/>
		<path id="XMLID_767_" class="st5" d="M78.5,139.6l0-0.8h0c-0.4,0.6-1.1,1-2,1c-0.8,0-1.5-0.3-1.9-0.9s-0.7-1.4-0.7-2.5
			c0-1,0.2-1.9,0.7-2.4s1.1-0.9,1.9-0.9c0.9,0,1.5,0.3,2,1h0.1l0.1-0.9h0.8v6.5c0,0.9-0.2,1.6-0.7,2.1s-1.2,0.7-2.2,0.7
			c-0.9,0-1.7-0.1-2.3-0.4v-1c0.6,0.3,1.4,0.5,2.4,0.5c0.5,0,1-0.2,1.3-0.5s0.5-0.8,0.5-1.3V139.6z M76.7,138.9
			c0.6,0,1.1-0.2,1.4-0.5s0.4-0.9,0.4-1.7v-0.3c0-0.9-0.1-1.5-0.4-1.9s-0.8-0.6-1.4-0.6c-0.5,0-1,0.2-1.3,0.6s-0.4,1-0.4,1.8
			c0,0.8,0.1,1.4,0.4,1.8S76.1,138.9,76.7,138.9z"/>
		<path id="XMLID_765_" class="st5" d="M89.1,139.7v-4.1c0-0.5-0.1-0.9-0.3-1.2s-0.6-0.4-1.1-0.4c-0.7,0-1.1,0.2-1.4,0.5
			s-0.5,1-0.5,1.8v3.3h-1.1v-9.1h1.1v2.7c0,0.4,0,0.7-0.1,0.9h0.1c0.2-0.3,0.5-0.6,0.8-0.7s0.7-0.3,1.2-0.3c0.8,0,1.4,0.2,1.8,0.6
			s0.6,1,0.6,1.8v4.2H89.1z"/>
		<path id="XMLID_761_" class="st5" d="M96.1,139.7l-0.2-0.9h0c-0.3,0.4-0.6,0.7-1,0.8s-0.7,0.2-1.2,0.2c-0.6,0-1.1-0.2-1.5-0.5
			s-0.5-0.8-0.5-1.4c0-1.3,1-2,3.1-2.1l1.1,0v-0.4c0-0.5-0.1-0.8-0.3-1.1s-0.5-0.3-1-0.3c-0.3,0-0.7,0.1-1,0.2s-0.6,0.2-0.9,0.3
			l-0.3-0.8c0.3-0.2,0.7-0.3,1.1-0.4s0.8-0.1,1.1-0.1c0.8,0,1.4,0.2,1.7,0.5s0.6,0.9,0.6,1.6v4.4H96.1z M95.2,132.4h-0.7
			c-0.3-0.2-0.6-0.5-1-0.9s-0.6-0.7-0.7-0.9v-0.1H94c0.1,0.3,0.3,0.6,0.5,0.9s0.4,0.6,0.6,0.9V132.4z M94,138.9
			c0.6,0,1.1-0.2,1.4-0.5s0.5-0.8,0.5-1.4v-0.6l-0.9,0c-0.7,0-1.3,0.1-1.6,0.4s-0.5,0.5-0.5,1c0,0.3,0.1,0.6,0.3,0.8
			S93.6,138.9,94,138.9z"/>
		<path id="XMLID_759_" class="st5" d="M103.3,139.7v-4.1c0-0.5-0.1-0.9-0.3-1.2s-0.6-0.4-1.1-0.4c-0.7,0-1.1,0.2-1.4,0.5
			s-0.4,1-0.4,1.8v3.3h-1.1v-6.4h0.8l0.2,0.9h0.1c0.2-0.3,0.5-0.6,0.8-0.7s0.8-0.3,1.2-0.3c0.8,0,1.4,0.2,1.8,0.6s0.6,1,0.6,1.8v4.2
			H103.3z"/>
		<path id="XMLID_757_" class="st5" d="M110.7,139.7v-4.1c0-0.5-0.1-0.9-0.3-1.2s-0.6-0.4-1.1-0.4c-0.7,0-1.1,0.2-1.4,0.5
			s-0.5,1-0.5,1.8v3.3h-1.1v-9.1h1.1v2.7c0,0.4,0,0.7-0.1,0.9h0.1c0.2-0.3,0.5-0.6,0.8-0.7s0.7-0.3,1.2-0.3c0.8,0,1.4,0.2,1.8,0.6
			s0.6,1,0.6,1.8v4.2H110.7z"/>
		<path id="XMLID_755_" class="st5" d="M53.4,154.2c-0.9,0-1.6-0.3-2.2-0.9s-0.8-1.4-0.8-2.4c0-1.1,0.3-1.9,0.8-2.5s1.3-0.9,2.2-0.9
			c0.3,0,0.6,0,0.9,0.1s0.6,0.1,0.8,0.2l-0.3,0.9c-0.5-0.2-1-0.3-1.4-0.3c-0.6,0-1.1,0.2-1.4,0.6s-0.5,1-0.5,1.8
			c0,0.8,0.2,1.4,0.5,1.8s0.8,0.6,1.4,0.6c0.6,0,1.1-0.1,1.7-0.4v0.9C54.6,154.1,54.1,154.2,53.4,154.2z"/>
		<path id="XMLID_752_" class="st5" d="M57.6,147.6v4.1c0,0.5,0.1,0.9,0.3,1.2s0.6,0.4,1.1,0.4c0.7,0,1.1-0.2,1.4-0.6s0.5-1,0.5-1.8
			v-3.4H62v6.4h-0.9l-0.2-0.8h-0.1c-0.2,0.3-0.5,0.5-0.8,0.7s-0.8,0.3-1.2,0.3c-0.8,0-1.4-0.2-1.7-0.6s-0.6-1-0.6-1.8v-4.2H57.6z
			 M59.9,146.8h-0.7c-0.3-0.2-0.6-0.5-1-0.9s-0.6-0.7-0.7-0.9v-0.1h1.3c0.1,0.3,0.3,0.6,0.5,0.9s0.4,0.6,0.6,0.9V146.8z"/>
		<path id="XMLID_750_" class="st5" d="M68.4,154.1v-4.1c0-0.5-0.1-0.9-0.3-1.2s-0.6-0.4-1.1-0.4c-0.7,0-1.1,0.2-1.4,0.5
			s-0.4,1-0.4,1.8v3.3H64v-6.4h0.8l0.2,0.9h0.1c0.2-0.3,0.5-0.6,0.8-0.7s0.8-0.3,1.2-0.3c0.8,0,1.4,0.2,1.8,0.6s0.6,1,0.6,1.8v4.2
			H68.4z"/>
		<path id="XMLID_747_" class="st5" d="M75.7,154l0-0.8h0c-0.4,0.6-1.1,1-2,1c-0.8,0-1.5-0.3-1.9-0.9s-0.7-1.4-0.7-2.5
			c0-1,0.2-1.9,0.7-2.4s1.1-0.9,1.9-0.9c0.9,0,1.5,0.3,2,1h0.1l0.1-0.9h0.8v6.5c0,0.9-0.2,1.6-0.7,2.1s-1.2,0.7-2.2,0.7
			c-0.9,0-1.7-0.1-2.3-0.4v-1c0.6,0.3,1.4,0.5,2.4,0.5c0.5,0,1-0.2,1.3-0.5s0.5-0.8,0.5-1.3V154z M73.9,153.3c0.6,0,1.1-0.2,1.4-0.5
			s0.4-0.9,0.4-1.7v-0.3c0-0.9-0.1-1.5-0.4-1.9s-0.8-0.6-1.4-0.6c-0.5,0-1,0.2-1.3,0.6s-0.4,1-0.4,1.8c0,0.8,0.1,1.4,0.4,1.8
			S73.3,153.3,73.9,153.3z"/>
		<path id="XMLID_744_" class="st5" d="M85,147.5c0.8,0,1.5,0.3,2,0.9s0.7,1.4,0.7,2.4c0,1.1-0.2,1.9-0.7,2.5s-1.1,0.9-2,0.9
			c-0.4,0-0.8-0.1-1.2-0.2s-0.6-0.4-0.8-0.7h-0.1c-0.1,0.5-0.2,0.7-0.2,0.8h-0.8v-9.1H83v2.2c0,0.4,0,0.9-0.1,1.3H83
			C83.4,147.8,84.1,147.5,85,147.5z M84.8,148.4c-0.6,0-1.1,0.2-1.4,0.6s-0.4,1-0.4,1.9v0c0,0.9,0.1,1.5,0.4,1.9s0.8,0.6,1.4,0.6
			c0.6,0,1-0.2,1.3-0.6s0.4-1,0.4-1.8c0-0.8-0.1-1.4-0.4-1.8S85.4,148.4,84.8,148.4z"/>
		<path id="XMLID_740_" class="st5" d="M93.3,154.1l-0.2-0.9h0c-0.3,0.4-0.6,0.7-1,0.8s-0.7,0.2-1.2,0.2c-0.6,0-1.1-0.2-1.5-0.5
			s-0.5-0.8-0.5-1.4c0-1.3,1-2,3.1-2.1l1.1,0v-0.4c0-0.5-0.1-0.8-0.3-1.1s-0.5-0.3-1-0.3c-0.3,0-0.7,0.1-1,0.2s-0.6,0.2-0.9,0.3
			l-0.3-0.8c0.3-0.2,0.7-0.3,1.1-0.4s0.8-0.1,1.1-0.1c0.8,0,1.4,0.2,1.7,0.5s0.6,0.9,0.6,1.6v4.4H93.3z M91.1,153.3
			c0.6,0,1.1-0.2,1.4-0.5s0.5-0.8,0.5-1.4v-0.6l-0.9,0c-0.7,0-1.3,0.1-1.6,0.4s-0.5,0.5-0.5,1c0,0.3,0.1,0.6,0.3,0.8
			S90.7,153.3,91.1,153.3z M90.6,155.5c0-0.2,0.1-0.4,0.2-0.5s0.3-0.2,0.4-0.2c0.2,0,0.3,0.1,0.4,0.2s0.2,0.3,0.2,0.5
			c0,0.2-0.1,0.4-0.2,0.5s-0.3,0.2-0.4,0.2c-0.2,0-0.3-0.1-0.5-0.2S90.6,155.7,90.6,155.5z"/>
		<path id="XMLID_738_" class="st5" d="M100.4,154.1v-4.1c0-0.5-0.1-0.9-0.3-1.2s-0.6-0.4-1.1-0.4c-0.7,0-1.1,0.2-1.4,0.5
			s-0.4,1-0.4,1.8v3.3H96v-6.4h0.8l0.2,0.9h0.1c0.2-0.3,0.5-0.6,0.8-0.7s0.8-0.3,1.2-0.3c0.8,0,1.4,0.2,1.8,0.6s0.6,1,0.6,1.8v4.2
			H100.4z"/>
	</g>
</g>
<polygon id="XMLID_4061_" class="st1" points="19.2,167.3 19.2,147.5 0,167.3 "/>
</svg>
