<?xml version="1.0" encoding="utf-8"?>
<!-- Generator: Adobe Illustrator 19.0.0, SVG Export Plug-In . SVG Version: 6.00 Build 0)  -->
<svg version="1.1" id="Layer_1" xmlns="http://www.w3.org/2000/svg" xmlns:xlink="http://www.w3.org/1999/xlink" x="0px" y="0px"
	 viewBox="0 0 166 167" style="enable-background:new 0 0 166 167;" xml:space="preserve">
<style type="text/css">
	.st0{fill:#125B7C;}
	.st1{fill:#FFFFFF;}
	.st2{fill:#CD202B;}
	.st3{fill:#197696;}
	.st4{fill:#D14C27;}
	.st5{fill:#8F878B;}
	.st6{fill:#EF972A;}
	.st7{fill:#F7B85B;}
	.st8{fill:#E17D26;}
	.st9{fill:#F9F9FA;}
	.st10{fill:#B7B7B7;}
	.st11{fill:#404040;}
</style>
<rect id="XMLID_12761_" x="0" y="0" class="st0" width="150" height="159.7"/>
<polygon id="XMLID_12760_" class="st1" points="146.8,166.9 146.8,147.8 166,167 "/>
<rect id="XMLID_12759_" x="0" y="95.6" class="st1" width="150" height="71.3"/>
<g id="XMLID_12750_">
	<circle id="XMLID_12754_" class="st2" cx="15" cy="110.6" r="4"/>
	<path id="XMLID_12753_" class="st2" d="M10.9,110.6H19v10.1C19,120.6,10.9,115.7,10.9,110.6z"/>
	<circle id="XMLID_12752_" class="st2" cx="23" cy="110.4" r="4"/>
	<path id="XMLID_12751_" class="st2" d="M27,110.4H19v10.1C19,120.5,27,115.5,27,110.4z"/>
</g>
<g id="XMLID_12728_">
	<circle id="XMLID_12749_" class="st3" cx="79.6" cy="48.7" r="42.9"/>
	<g id="XMLID_12737_">
		<polygon id="XMLID_12748_" class="st4" points="70.9,29.9 64.3,23.2 72.3,12.9 81.4,12.9 81.4,33.7 		"/>
		<polygon id="XMLID_12747_" class="st4" points="86.4,29.9 93.1,23.2 85,12.9 76,12.9 76,33.7 		"/>
		<path id="XMLID_12746_" class="st5" d="M102,53.2c0,1-0.1,2-0.2,2.9c-1.4,12.1-11.7,21.4-24.2,21.4c-13.4,0-24.4-10.9-24.4-24.3
			c0-13.4,10.9-24.4,24.4-24.4c11.9,0,21.7,8.5,23.9,19.7c0.2,1,0.3,1.9,0.4,2.9v0C102,52.1,102,52.6,102,53.2z"/>
		<polygon id="XMLID_12745_" class="st6" points="64.3,23.2 93.1,23.2 85,12.9 72.3,12.9 		"/>
		<polygon id="XMLID_12744_" class="st7" points="72.3,12.9 78.7,23.2 85,12.9 		"/>
		<polygon id="XMLID_12743_" class="st8" points="72.3,12.9 67.7,23.2 78.7,23.2 		"/>
		<polygon id="XMLID_12742_" class="st8" points="85,12.9 89.7,23.2 78.7,23.2 		"/>
		<polygon id="XMLID_12741_" class="st9" points="101.6,48.6 94.3,48.6 94.3,51.5 102,51.5 		"/>
		<path id="XMLID_12740_" class="st9" d="M102,53.2c0,1-0.1,2-0.2,2.9h-7.5v-2.9H102z"/>
		<circle id="XMLID_12739_" class="st10" cx="77.7" cy="52.8" r="21.5"/>
		<circle id="XMLID_12738_" class="st3" cx="77.7" cy="52.8" r="17.3"/>
	</g>
	<g id="XMLID_12729_">
		<path id="XMLID_12736_" class="st7" d="M48.9,3.3c0,0-0.7,3.5-4.2,4c3.5,0.5,4.2,4,4.2,4s0.7-3.5,4.2-4
			C49.6,6.8,48.9,3.3,48.9,3.3"/>
		<path id="XMLID_12735_" class="st7" d="M59.1,22.8c0,0-0.7,3.5-4.2,4c3.5,0.5,4.2,4,4.2,4s0.7-3.5,4.2-4
			C59.8,26.3,59.1,22.8,59.1,22.8"/>
		<path id="XMLID_12732_" class="st7" d="M43.8,12.9c0,0-1.7,8.7-10.3,9.9c8.6,1.3,10.3,9.9,10.3,9.9s1.7-8.7,10.3-9.9
			C45.5,21.6,43.8,12.9,43.8,12.9 M43.8,15.5c0.3,0.7,0.7,1.5,1.2,2.3c1.5,2.3,3.5,4,5.9,5c-2.4,1-4.4,2.7-5.9,5
			c-0.5,0.8-0.9,1.6-1.2,2.3c-0.3-0.7-0.7-1.5-1.2-2.3c-1.5-2.3-3.5-4-5.9-5c2.4-1,4.4-2.7,5.9-5C43.1,17,43.5,16.2,43.8,15.5"/>
		<path id="XMLID_12731_" class="st7" d="M37.4,17.4c-0.4-0.8-1.1-1.9-2.4-2.5c1.3-0.6,2-1.7,2.4-2.5c0.4,0.8,1.1,1.9,2.4,2.5
			C38.5,15.5,37.8,16.6,37.4,17.4z"/>
		<circle id="XMLID_12730_" class="st7" cx="52.1" cy="33.1" r="2"/>
	</g>
</g>
<g id="XMLID_211_">
	<g id="XMLID_673_">
		<path id="XMLID_728_" class="st11" d="M42.5,118.2h-2.1V110h-2.7v-1.8h7.5v1.8h-2.7V118.2z"/>
		<path id="XMLID_726_" class="st11" d="M50.5,110.4c0.3,0,0.5,0,0.7,0.1l-0.2,2c-0.2,0-0.4-0.1-0.6-0.1c-0.7,0-1.2,0.2-1.6,0.5
			c-0.4,0.3-0.6,0.8-0.6,1.4v3.9h-2.1v-7.6h1.6l0.3,1.3h0.1c0.2-0.4,0.6-0.8,1-1S50,110.4,50.5,110.4z"/>
		<path id="XMLID_723_" class="st11" d="M57.3,118.2l-0.4-1h-0.1c-0.4,0.4-0.7,0.7-1.1,0.9c-0.4,0.2-0.9,0.3-1.5,0.3
			c-0.7,0-1.3-0.2-1.7-0.6c-0.4-0.4-0.6-1-0.6-1.8c0-0.8,0.3-1.4,0.9-1.8s1.4-0.6,2.6-0.6l1.3,0v-0.3c0-0.8-0.4-1.2-1.2-1.2
			c-0.6,0-1.3,0.2-2.2,0.6l-0.7-1.4c0.9-0.5,1.9-0.7,2.9-0.7c1,0,1.8,0.2,2.4,0.7s0.8,1.1,0.8,2v5.1H57.3z M56.7,114.6l-0.8,0
			c-0.6,0-1.1,0.1-1.4,0.3s-0.4,0.5-0.4,0.9c0,0.6,0.3,0.9,1,0.9c0.5,0,0.9-0.1,1.2-0.4c0.3-0.3,0.4-0.6,0.4-1.1V114.6z"/>
		<path id="XMLID_721_" class="st11" d="M68,118.2h-2.1v-4.5c0-0.6-0.1-1-0.3-1.2s-0.5-0.4-0.9-0.4c-0.6,0-1,0.2-1.3,0.6
			s-0.4,1-0.4,1.9v3.6h-2.1v-7.6h1.6l0.3,1h0.1c0.2-0.4,0.6-0.6,1-0.8c0.4-0.2,0.9-0.3,1.4-0.3c0.9,0,1.6,0.2,2,0.7s0.7,1.2,0.7,2.1
			V118.2z"/>
		<path id="XMLID_718_" class="st11" d="M76.8,118.2c0,1.1-0.3,1.9-1,2.5c-0.6,0.6-1.6,0.9-2.9,0.9c-1.1,0-2.1-0.2-2.9-0.5v-1.7
			c0.9,0.4,1.9,0.6,3,0.6c1.1,0,1.6-0.6,1.6-1.7v-0.2l0.1-0.9h-0.1c-0.5,0.8-1.2,1.1-2.2,1.1c-0.9,0-1.6-0.4-2.1-1.1
			c-0.5-0.7-0.8-1.7-0.8-2.9c0-1.3,0.3-2.2,0.8-2.9c0.5-0.7,1.2-1,2.2-1c0.9,0,1.7,0.4,2.2,1.1h0.1l0.2-1h1.8V118.2z M73.3,116.7
			c0.6,0,1-0.2,1.2-0.5s0.4-0.8,0.4-1.6v-0.3c0-0.8-0.1-1.4-0.4-1.8s-0.7-0.5-1.2-0.5c-1,0-1.5,0.8-1.5,2.3c0,0.8,0.1,1.3,0.4,1.7
			C72.4,116.5,72.8,116.7,73.3,116.7z"/>
		<path id="XMLID_716_" class="st11" d="M88,115.9c0,0.8-0.3,1.4-0.8,1.8c-0.5,0.4-1.4,0.6-2.4,0.6c-0.6,0-1,0-1.4-0.1
			s-0.8-0.2-1.1-0.3v-1.7c0.4,0.2,0.8,0.3,1.3,0.5s0.9,0.2,1.3,0.2c0.8,0,1.1-0.2,1.1-0.7c0-0.2-0.1-0.3-0.2-0.4s-0.3-0.2-0.5-0.3
			s-0.6-0.3-1-0.5c-0.6-0.2-1-0.5-1.3-0.7c-0.3-0.2-0.5-0.5-0.6-0.7c-0.1-0.3-0.2-0.6-0.2-1c0-0.7,0.3-1.2,0.8-1.6s1.3-0.6,2.2-0.6
			c0.9,0,1.8,0.2,2.7,0.6l-0.6,1.5c-0.4-0.2-0.7-0.3-1.1-0.4s-0.7-0.2-1-0.2c-0.6,0-0.9,0.2-0.9,0.5c0,0.2,0.1,0.3,0.3,0.5
			s0.6,0.3,1.3,0.6c0.6,0.2,1,0.5,1.3,0.7s0.5,0.5,0.6,0.7S88,115.5,88,115.9z"/>
		<path id="XMLID_713_" class="st11" d="M95,118.2l-0.3-1h-0.1c-0.2,0.4-0.5,0.6-0.9,0.8c-0.4,0.2-0.9,0.3-1.4,0.3
			c-0.9,0-1.6-0.2-2-0.7s-0.7-1.2-0.7-2.1v-5h2.1v4.5c0,0.6,0.1,1,0.3,1.2s0.5,0.4,0.9,0.4c0.6,0,1-0.2,1.3-0.6s0.4-1,0.4-1.9v-3.6
			h2.1v0.8c0.3-0.1,0.6-0.3,0.8-0.7s0.3-0.8,0.3-1.3h2.1l0.1,0.2c-0.1,0.7-0.3,1.3-0.6,1.6s-0.6,0.7-1,0.9s-0.9,0.4-1.6,0.5v5.6H95z
			 M91.9,109.7v-0.2c0.8-0.9,1.3-1.6,1.6-2.1h2.3v0.1c-0.2,0.2-0.6,0.6-1.2,1.1c-0.6,0.5-1,0.8-1.3,1H91.9z"/>
		<path id="XMLID_711_" class="st11" d="M103.3,118.3c-2.4,0-3.6-1.3-3.6-3.9c0-1.3,0.3-2.3,1-3s1.6-1,2.8-1c0.9,0,1.7,0.2,2.4,0.5
			l-0.6,1.6c-0.3-0.1-0.6-0.2-0.9-0.3s-0.6-0.1-0.8-0.1c-1.1,0-1.6,0.8-1.6,2.3c0,1.5,0.5,2.2,1.6,2.2c0.4,0,0.8-0.1,1.1-0.2
			s0.7-0.3,1-0.5v1.8c-0.3,0.2-0.7,0.4-1,0.4C104.3,118.3,103.8,118.3,103.3,118.3z"/>
		<path id="XMLID_709_" class="st11" d="M41.8,134.7h-1.2V126h-3.1v-1.1h7.4v1.1h-3.1V134.7z"/>
		<path id="XMLID_706_" class="st11" d="M47.5,126.4h-0.8c-0.3-0.3-0.7-0.6-1.1-1c-0.4-0.4-0.7-0.8-0.9-1v-0.1h1.4
			c0.1,0.3,0.3,0.6,0.6,1.1c0.3,0.4,0.5,0.7,0.7,1V126.4z M47.4,134.7h-1.2v-7.4h1.2V134.7z"/>
		<path id="XMLID_704_" class="st11" d="M54.8,134.7V130c0-0.6-0.1-1-0.4-1.3s-0.7-0.4-1.3-0.4c-0.8,0-1.3,0.2-1.7,0.6
			c-0.3,0.4-0.5,1.1-0.5,2v3.8h-1.2v-7.4h1l0.2,1H51c0.2-0.4,0.5-0.6,1-0.8c0.4-0.2,0.9-0.3,1.4-0.3c0.9,0,1.6,0.2,2,0.7
			c0.4,0.4,0.7,1.1,0.7,2v4.8H54.8z"/>
		<path id="XMLID_702_" class="st11" d="M63.3,134.7V130c0-0.6-0.1-1-0.4-1.3s-0.7-0.4-1.3-0.4c-0.7,0-1.3,0.2-1.6,0.6
			c-0.3,0.4-0.5,1.1-0.5,2.1v3.8h-1.2v-10.5h1.2v3.1c0,0.4,0,0.7-0.1,1h0.1c0.2-0.4,0.5-0.6,0.9-0.8s0.9-0.3,1.4-0.3
			c0.9,0,1.6,0.2,2,0.6c0.5,0.4,0.7,1.1,0.7,2.1v4.8H63.3z"/>
		<path id="XMLID_700_" class="st11" d="M73.3,134.8c-1.1,0-1.9-0.3-2.5-1s-0.9-1.6-0.9-2.8c0-1.2,0.3-2.2,0.9-2.9
			c0.6-0.7,1.5-1,2.6-1c0.4,0,0.7,0,1.1,0.1c0.4,0.1,0.6,0.2,0.9,0.3l-0.4,1c-0.6-0.2-1.2-0.3-1.6-0.3c-0.7,0-1.3,0.2-1.6,0.7
			c-0.4,0.5-0.5,1.2-0.5,2.1c0,0.9,0.2,1.6,0.5,2c0.4,0.5,0.9,0.7,1.6,0.7c0.6,0,1.3-0.1,1.9-0.4v1.1
			C74.7,134.7,74.1,134.8,73.3,134.8z"/>
		<path id="XMLID_696_" class="st11" d="M81.5,134.7l-0.2-1h-0.1c-0.4,0.5-0.7,0.8-1.1,0.9c-0.4,0.2-0.8,0.2-1.4,0.2
			c-0.7,0-1.3-0.2-1.7-0.6c-0.4-0.4-0.6-0.9-0.6-1.6c0-1.5,1.2-2.3,3.5-2.4l1.3,0v-0.4c0-0.6-0.1-1-0.4-1.2
			c-0.2-0.3-0.6-0.4-1.2-0.4c-0.4,0-0.8,0.1-1.1,0.2c-0.3,0.1-0.7,0.2-1,0.4l-0.4-0.9c0.4-0.2,0.8-0.4,1.2-0.5
			c0.4-0.1,0.9-0.2,1.3-0.2c0.9,0,1.6,0.2,2,0.6s0.7,1,0.7,1.9v5H81.5z M79,133.9c0.7,0,1.2-0.2,1.6-0.5s0.6-0.9,0.6-1.6v-0.7
			l-1.1,0c-0.8,0-1.5,0.2-1.9,0.4c-0.4,0.2-0.6,0.6-0.6,1.1c0,0.4,0.1,0.7,0.4,0.9C78.3,133.8,78.6,133.9,79,133.9z M81.2,124.7
			c0,0.6-0.4,1-1.1,1.2l-0.1,0.7h-0.7l-0.1-1.2c0.3-0.1,0.6-0.1,0.8-0.2c0.2-0.1,0.3-0.3,0.3-0.5c0-0.4-0.3-0.6-0.9-0.6
			c-0.2,0-0.5,0-0.7,0.1v-0.7c0.2-0.1,0.4-0.1,0.8-0.1C80.6,123.4,81.2,123.8,81.2,124.7z"/>
		<path id="XMLID_694_" class="st11" d="M94.1,134.7V130c0-1.2-0.5-1.7-1.5-1.7c-0.7,0-1.2,0.2-1.5,0.6c-0.3,0.4-0.5,1-0.5,1.8v4.1
			h-1.2V130c0-0.6-0.1-1-0.4-1.3c-0.2-0.3-0.6-0.4-1.1-0.4c-0.7,0-1.2,0.2-1.5,0.6c-0.3,0.4-0.5,1.1-0.5,2v3.8h-1.2v-7.4h1l0.2,1
			h0.1c0.2-0.4,0.5-0.6,0.9-0.8c0.4-0.2,0.8-0.3,1.3-0.3c1.2,0,1.9,0.4,2.3,1.2h0.1c0.2-0.4,0.6-0.7,1-0.9c0.4-0.2,0.9-0.3,1.4-0.3
			c0.8,0,1.5,0.2,1.9,0.6c0.4,0.4,0.6,1.1,0.6,2.1v4.8H94.1z"/>
		<path id="XMLID_691_" class="st11" d="M104.6,127.2c1,0,1.7,0.3,2.3,1c0.5,0.7,0.8,1.6,0.8,2.8c0,1.2-0.3,2.2-0.8,2.8
			c-0.5,0.7-1.3,1-2.2,1c-0.5,0-0.9-0.1-1.3-0.3s-0.7-0.4-1-0.8h-0.1c-0.1,0.5-0.2,0.8-0.2,0.9h-0.9v-10.5h1.2v2.5
			c0,0.5,0,1-0.1,1.5h0.1C102.8,127.6,103.6,127.2,104.6,127.2z M104.4,128.2c-0.7,0-1.3,0.2-1.6,0.6c-0.3,0.4-0.5,1.1-0.5,2.1v0.1
			c0,1,0.2,1.7,0.5,2.2c0.3,0.4,0.9,0.6,1.6,0.6c0.7,0,1.2-0.2,1.5-0.7c0.3-0.5,0.5-1.2,0.5-2.1c0-0.9-0.2-1.6-0.5-2.1
			C105.6,128.4,105.1,128.2,104.4,128.2z"/>
		<path id="XMLID_686_" class="st11" d="M110.9,125.1h-0.7c-0.5-0.4-1-0.9-1.4-1.4v-0.1h1.2c0.3,0.5,0.5,1,0.9,1.4V125.1z
			 M112.7,134.8c-1.1,0-2-0.3-2.6-1c-0.6-0.7-0.9-1.6-0.9-2.8c0-1.2,0.3-2.1,0.9-2.8s1.4-1.1,2.4-1.1c0.9,0,1.7,0.3,2.2,0.9
			c0.6,0.6,0.8,1.4,0.8,2.4v0.7h-5.1c0,0.8,0.2,1.5,0.6,1.9s1,0.7,1.7,0.7c0.4,0,0.8,0,1.1-0.1c0.4-0.1,0.8-0.2,1.2-0.4v1.1
			c-0.4,0.2-0.8,0.3-1.1,0.4C113.6,134.8,113.2,134.8,112.7,134.8z M114.6,126.4h-0.7c-0.4-0.3-0.9-0.7-1.4-1.1
			c-0.5,0.4-0.9,0.8-1.4,1.1h-0.7v-0.2l0.4-0.4c0.5-0.6,0.9-1,1.1-1.4h1.3c0.3,0.4,0.8,1,1.5,1.8V126.4z M112.4,128.2
			c-0.6,0-1,0.2-1.4,0.6c-0.3,0.4-0.5,0.9-0.6,1.6h3.8c0-0.7-0.2-1.2-0.5-1.6C113.4,128.4,113,128.2,112.4,128.2z"/>
		<path id="XMLID_684_" class="st11" d="M122.4,134.7V130c0-0.6-0.1-1-0.4-1.3s-0.7-0.4-1.3-0.4c-0.8,0-1.3,0.2-1.6,0.6
			c-0.3,0.4-0.5,1.1-0.5,2v3.8h-1.2v-7.4h1l0.2,1h0.1c0.2-0.4,0.5-0.6,1-0.8c0.4-0.2,0.9-0.3,1.4-0.3c0.9,0,1.6,0.2,2,0.7
			c0.4,0.4,0.7,1.1,0.7,2v4.8H122.4z"/>
		<path id="XMLID_682_" class="st11" d="M40.2,151.2l-2.8-7.4h1.3l1.6,4.3c0.3,0.9,0.5,1.5,0.6,2h0.1c0-0.1,0-0.1,0.1-0.2
			c0-0.1,0-0.2,0.1-0.2c0-0.1,0.2-0.6,0.5-1.5l1.6-4.3h1.3l-2.8,7.4H40.2z"/>
		<path id="XMLID_679_" class="st11" d="M46.7,143.9v4.7c0,0.6,0.1,1,0.4,1.3s0.7,0.4,1.2,0.4c0.8,0,1.3-0.2,1.7-0.6
			c0.3-0.4,0.5-1.1,0.5-2v-3.8h1.2v0.8c0.4-0.1,0.6-0.2,0.8-0.5c0.2-0.3,0.2-0.8,0.2-1.5H54l0.1,0.2c-0.1,0.9-0.4,1.5-0.8,1.9
			s-0.9,0.7-1.6,0.7v5.7h-1l-0.2-1h-0.1c-0.2,0.4-0.5,0.6-0.9,0.8c-0.4,0.2-0.9,0.3-1.4,0.3c-0.9,0-1.6-0.2-2-0.6s-0.7-1.1-0.7-2
			v-4.8H46.7z M49.7,142.9c-0.2,0-0.4,0-0.6-0.1c-0.2-0.1-0.4-0.2-0.5-0.3c-0.2-0.1-0.3-0.2-0.5-0.3c-0.2-0.1-0.3-0.1-0.5-0.1
			c-0.2,0-0.4,0.1-0.5,0.2c-0.1,0.1-0.2,0.3-0.3,0.6h-0.7c0.1-0.5,0.2-1,0.5-1.3c0.3-0.3,0.6-0.5,1-0.5c0.2,0,0.4,0,0.6,0.1
			s0.4,0.2,0.5,0.3c0.2,0.1,0.3,0.2,0.5,0.3c0.2,0.1,0.3,0.1,0.5,0.1c0.2,0,0.4-0.1,0.5-0.2c0.1-0.1,0.2-0.3,0.3-0.6h0.7
			c-0.1,0.5-0.2,1-0.5,1.3S50.1,142.9,49.7,142.9z"/>
		<path id="XMLID_677_" class="st11" d="M59.9,151.2v-4.7c0-0.6-0.1-1-0.4-1.3s-0.7-0.4-1.3-0.4c-0.8,0-1.3,0.2-1.7,0.6
			c-0.3,0.4-0.5,1.1-0.5,2v3.8h-1.2v-7.4h1l0.2,1H56c0.2-0.4,0.5-0.6,1-0.8c0.4-0.2,0.9-0.3,1.4-0.3c0.9,0,1.6,0.2,2,0.7
			c0.4,0.4,0.7,1.1,0.7,2v4.8H59.9z"/>
		<path id="XMLID_674_" class="st11" d="M68.3,151.2l0-0.9h-0.1c-0.5,0.7-1.3,1.1-2.3,1.1c-1,0-1.7-0.3-2.2-1
			c-0.5-0.7-0.8-1.6-0.8-2.8c0-1.2,0.3-2.1,0.8-2.8c0.5-0.7,1.3-1,2.2-1c1,0,1.8,0.4,2.3,1.1h0.1l0.2-1h1v7.5c0,1.1-0.3,1.9-0.8,2.4
			c-0.5,0.5-1.4,0.8-2.5,0.8c-1.1,0-2-0.2-2.7-0.5v-1.1c0.7,0.4,1.6,0.6,2.7,0.6c0.6,0,1.1-0.2,1.5-0.6c0.4-0.4,0.5-0.9,0.5-1.5
			V151.2z M66.1,150.4c0.7,0,1.3-0.2,1.6-0.6s0.5-1,0.5-1.9v-0.3c0-1-0.2-1.7-0.5-2.2s-0.9-0.7-1.6-0.7c-0.6,0-1.1,0.2-1.4,0.7
			c-0.3,0.5-0.5,1.2-0.5,2.1c0,0.9,0.2,1.6,0.5,2.1C65,150.1,65.5,150.4,66.1,150.4z"/>
	</g>
</g>
</svg>
