<?xml version="1.0" encoding="utf-8"?>
<!-- Generator: Adobe Illustrator 19.0.0, SVG Export Plug-In . SVG Version: 6.00 Build 0)  -->
<svg version="1.1" id="Layer_1" xmlns="http://www.w3.org/2000/svg" xmlns:xlink="http://www.w3.org/1999/xlink" x="0px" y="0px"
	 viewBox="0 0 167.1 191.9" style="enable-background:new 0 0 167.1 191.9;" xml:space="preserve">
<style type="text/css">
	.st0{fill:#E49B5A;}
	.st1{fill:#212956;}
	.st2{fill:#1E2251;}
	.st3{fill:#FFFEFE;}
	.st4{fill:#FFFFFF;}
	.st5{fill:#CD202B;}
	.st6{fill:#404040;}
</style>
<rect id="XMLID_12879_" x="17.1" y="0" class="st0" width="150" height="181.3"/>
<g id="XMLID_12845_">
	<path id="XMLID_12878_" class="st1" d="M119.1,77.2H65.3c-7.7,0-14-6.3-14-14V48.3c0-7.7,6.3-14,14-14h53.7c7.7,0,14,6.3,14,14
		v14.9C133.1,70.9,126.8,77.2,119.1,77.2z"/>
	<path id="XMLID_12877_" class="st2" d="M83.6,40.4L83.6,40.4c-3.2,1.6-7.1,0.3-8.7-2.9L69.2,26c-1.6-3.2-0.3-7.1,2.9-8.7l0,0
		c3.2-1.6,7.1-0.3,8.7,2.9l5.8,11.6C88.1,34.9,86.8,38.8,83.6,40.4z"/>
	<path id="XMLID_12876_" class="st2" d="M95.7,36.9L95.7,36.9c-2.5-2.5-2.6-6.6-0.1-9.1l9-9.2c2.5-2.5,6.6-2.6,9.1-0.1l0,0
		c2.5,2.5,2.6,6.6,0.1,9.1l-9,9.2C102.3,39.4,98.2,39.4,95.7,36.9z"/>
	<path id="XMLID_12875_" class="st1" d="M93.9,38.5h-4.8c-4.6,0-8.3-3.7-8.3-8.3l0,0c0-4.6,3.7-8.3,8.3-8.3h4.8
		c4.6,0,8.3,3.7,8.3,8.3l0,0C102.2,34.7,98.5,38.5,93.9,38.5z"/>
	<circle id="XMLID_12874_" class="st3" cx="94.2" cy="30.1" r="3.8"/>
	<circle id="XMLID_12873_" class="st3" cx="64.4" cy="41.8" r="3.1"/>
	<circle id="XMLID_12872_" class="st3" cx="64.4" cy="51.1" r="3.1"/>
	<circle id="XMLID_12871_" class="st3" cx="64.4" cy="60.4" r="3.1"/>
	<circle id="XMLID_12870_" class="st3" cx="64.4" cy="69.8" r="3.1"/>
	<circle id="XMLID_12869_" class="st3" cx="73.9" cy="41.8" r="3.1"/>
	<circle id="XMLID_12868_" class="st3" cx="73.9" cy="51.1" r="3.1"/>
	<circle id="XMLID_12867_" class="st3" cx="73.9" cy="60.4" r="3.1"/>
	<circle id="XMLID_12866_" class="st3" cx="73.9" cy="69.8" r="3.1"/>
	<circle id="XMLID_12865_" class="st3" cx="83.4" cy="41.8" r="3.1"/>
	<circle id="XMLID_12864_" class="st3" cx="83.4" cy="51.1" r="3.1"/>
	<circle id="XMLID_12863_" class="st3" cx="83.4" cy="60.4" r="3.1"/>
	<circle id="XMLID_12862_" class="st3" cx="83.4" cy="69.8" r="3.1"/>
	<circle id="XMLID_12861_" class="st3" cx="92.9" cy="41.8" r="3.1"/>
	<circle id="XMLID_12860_" class="st3" cx="92.9" cy="51.1" r="3.1"/>
	<circle id="XMLID_12859_" class="st3" cx="92.9" cy="60.4" r="3.1"/>
	<circle id="XMLID_12858_" class="st3" cx="92.9" cy="69.8" r="3.1"/>
	<circle id="XMLID_12857_" class="st3" cx="102.4" cy="41.8" r="3.1"/>
	<circle id="XMLID_12856_" class="st3" cx="102.4" cy="51.1" r="3.1"/>
	<circle id="XMLID_12855_" class="st3" cx="102.4" cy="60.4" r="3.1"/>
	<circle id="XMLID_12854_" class="st3" cx="102.4" cy="69.8" r="3.1"/>
	<circle id="XMLID_12853_" class="st3" cx="111.9" cy="41.8" r="3.1"/>
	<circle id="XMLID_12852_" class="st3" cx="111.9" cy="51.1" r="3.1"/>
	<circle id="XMLID_12851_" class="st3" cx="111.9" cy="60.4" r="3.1"/>
	<circle id="XMLID_12850_" class="st3" cx="111.9" cy="69.8" r="3.1"/>
	<circle id="XMLID_12849_" class="st3" cx="121.4" cy="41.8" r="3.1"/>
	<circle id="XMLID_12848_" class="st3" cx="121.4" cy="51.1" r="3.1"/>
	<circle id="XMLID_12847_" class="st3" cx="121.4" cy="60.4" r="3.1"/>
	<circle id="XMLID_12846_" class="st3" cx="121.4" cy="69.8" r="3.1"/>
</g>
<rect id="XMLID_12844_" x="17.1" y="83.9" class="st4" width="150" height="108"/>
<polygon id="XMLID_12843_" class="st4" points="19.2,191.6 19.2,170.2 0,191.6 "/>
<g id="XMLID_12772_">
	<circle id="XMLID_12838_" class="st5" cx="33.6" cy="95" r="4"/>
	<path id="XMLID_12837_" class="st5" d="M29.6,95h8.1v10.1C37.7,105.1,29.6,100.2,29.6,95z"/>
	<circle id="XMLID_12836_" class="st5" cx="41.7" cy="94.8" r="4"/>
	<path id="XMLID_12835_" class="st5" d="M45.7,94.8h-8.1v10.1C37.7,104.9,45.7,100,45.7,94.8z"/>
</g>
<g id="XMLID_16_">
	<g id="XMLID_1432_">
		<path id="XMLID_1586_" class="st6" d="M56.3,95.6h3.9v5.1c-0.6,0.2-1.2,0.4-1.8,0.4c-0.6,0.1-1.1,0.1-1.7,0.1
			c-1.5,0-2.6-0.4-3.4-1.3c-0.8-0.9-1.2-2.1-1.2-3.8c0-1.6,0.5-2.8,1.4-3.7c0.9-0.9,2.2-1.3,3.8-1.3c1,0,2,0.2,2.9,0.6l-0.7,1.7
			c-0.7-0.4-1.5-0.5-2.2-0.5c-0.9,0-1.6,0.3-2.2,0.9c-0.5,0.6-0.8,1.4-0.8,2.4c0,1.1,0.2,1.9,0.7,2.4c0.4,0.6,1.1,0.8,1.9,0.8
			c0.4,0,0.9,0,1.3-0.1v-2h-1.9V95.6z"/>
		<path id="XMLID_1582_" class="st6" d="M69.2,97.3c0,1.2-0.3,2.2-1,2.9c-0.6,0.7-1.5,1-2.7,1c-0.7,0-1.4-0.2-1.9-0.5
			c-0.6-0.3-1-0.8-1.3-1.4c-0.3-0.6-0.4-1.3-0.4-2.1c0-1.2,0.3-2.2,1-2.9c0.6-0.7,1.5-1,2.7-1c0.7,0,1.4,0.2,1.9,0.5
			c0.6,0.3,1,0.8,1.3,1.4S69.2,96.6,69.2,97.3z M64,97.3c0,0.7,0.1,1.3,0.4,1.7c0.2,0.4,0.6,0.6,1.2,0.6c0.5,0,0.9-0.2,1.2-0.6
			c0.2-0.4,0.4-0.9,0.4-1.7c0-0.7-0.1-1.3-0.4-1.7c-0.2-0.4-0.6-0.6-1.2-0.6c-0.5,0-0.9,0.2-1.2,0.6C64.1,96,64,96.6,64,97.3z
			 M64.4,92.8v-0.2c0.8-0.9,1.3-1.6,1.6-2h2.3v0.1c-0.2,0.2-0.6,0.6-1.2,1c-0.6,0.5-1,0.8-1.3,1H64.4z"/>
		<path id="XMLID_1579_" class="st6" d="M70.8,91.7c0-0.7,0.4-1,1.1-1s1.1,0.3,1.1,1c0,0.3-0.1,0.6-0.3,0.7
			c-0.2,0.2-0.5,0.3-0.8,0.3C71.2,92.7,70.8,92.3,70.8,91.7z M73,101.1h-2v-7.5h2V101.1z"/>
		<path id="XMLID_1576_" class="st6" d="M81.1,101.2c-0.9,0-1.6-0.3-2.1-1c-0.5-0.7-0.8-1.6-0.8-2.9c0-1.2,0.3-2.2,0.8-2.9
			c0.5-0.7,1.2-1,2.1-1c0.5,0,0.9,0.1,1.2,0.3s0.7,0.5,0.9,0.8h0.1l0.2-1h1.7v10.8h-2.1v-3.2c0-0.3,0-0.6,0.1-1.1h-0.1
			c-0.2,0.4-0.5,0.6-0.9,0.8C82,101.2,81.5,101.2,81.1,101.2z M81.8,99.6c0.5,0,0.9-0.1,1.1-0.4c0.2-0.3,0.4-0.8,0.4-1.6v-0.2
			c0-0.8-0.1-1.4-0.4-1.7c-0.2-0.3-0.6-0.5-1.2-0.5c-1,0-1.4,0.8-1.4,2.3c0,0.8,0.1,1.3,0.4,1.7C80.9,99.5,81.3,99.6,81.8,99.6z"/>
		<path id="XMLID_1574_" class="st6" d="M92.7,101.1l-0.3-1h-0.1c-0.2,0.3-0.5,0.6-0.9,0.8c-0.4,0.2-0.9,0.3-1.4,0.3
			c-0.9,0-1.5-0.2-2-0.7c-0.4-0.5-0.7-1.2-0.7-2v-4.9h2V98c0,0.5,0.1,0.9,0.3,1.2s0.5,0.4,0.9,0.4c0.6,0,1-0.2,1.2-0.6
			c0.3-0.4,0.4-1,0.4-1.9v-3.5h2v7.5H92.7z"/>
		<path id="XMLID_1570_" class="st6" d="M101.2,101.1l-0.4-1h-0.1c-0.3,0.4-0.7,0.7-1.1,0.9s-0.8,0.3-1.4,0.3
			c-0.7,0-1.3-0.2-1.7-0.6c-0.4-0.4-0.6-1-0.6-1.8c0-0.8,0.3-1.4,0.8-1.8s1.4-0.6,2.5-0.6l1.3,0v-0.3c0-0.8-0.4-1.1-1.2-1.1
			c-0.6,0-1.3,0.2-2.1,0.5l-0.7-1.4c0.9-0.5,1.8-0.7,2.9-0.7c1,0,1.8,0.2,2.3,0.7c0.5,0.4,0.8,1.1,0.8,2v5H101.2z M99.5,92.8
			c-0.3-0.2-0.7-0.5-1.2-1c-0.5-0.4-1-0.8-1.3-1.1v-0.1h2.3c0.3,0.5,0.8,1.1,1.6,2v0.2H99.5z M100.6,97.6l-0.8,0
			c-0.6,0-1,0.1-1.3,0.3c-0.3,0.2-0.4,0.5-0.4,0.9c0,0.6,0.3,0.9,1,0.9c0.5,0,0.9-0.1,1.1-0.4c0.3-0.3,0.4-0.6,0.4-1.1V97.6z"/>
		<path id="XMLID_1568_" class="st6" d="M111.5,99.6c0.4,0,0.8-0.1,1.3-0.2v1.5c-0.5,0.2-1.1,0.3-1.9,0.3c-0.8,0-1.4-0.2-1.8-0.6
			c-0.4-0.4-0.6-1-0.6-1.9v-3.6h-1v-0.9l1.1-0.7l0.6-1.6h1.3v1.6h2.1v1.5h-2.1v3.6c0,0.3,0.1,0.5,0.2,0.6
			C111,99.5,111.2,99.6,111.5,99.6z"/>
		<path id="XMLID_1566_" class="st6" d="M121.2,101.1h-2v-4.4c0-1.1-0.4-1.6-1.2-1.6c-0.6,0-1,0.2-1.2,0.6c-0.3,0.4-0.4,1-0.4,1.9
			v3.5h-2V90.7h2v2.1c0,0.2,0,0.6,0,1.2l0,0.6h0.1c0.5-0.7,1.2-1.1,2.2-1.1c0.9,0,1.6,0.2,2,0.7c0.5,0.5,0.7,1.2,0.7,2V101.1z"/>
		<path id="XMLID_1563_" class="st6" d="M126.7,101.2c-1.2,0-2.2-0.3-2.8-1c-0.7-0.7-1-1.6-1-2.8c0-1.3,0.3-2.2,0.9-2.9
			c0.6-0.7,1.5-1,2.6-1c1.1,0,1.9,0.3,2.5,0.9c0.6,0.6,0.9,1.4,0.9,2.5v1H125c0,0.6,0.2,1,0.5,1.4s0.8,0.5,1.4,0.5
			c0.5,0,0.9,0,1.3-0.1c0.4-0.1,0.8-0.2,1.3-0.5v1.6c-0.4,0.2-0.7,0.3-1.1,0.4C127.8,101.2,127.3,101.2,126.7,101.2z M126.5,94.9
			c-0.4,0-0.8,0.1-1,0.4c-0.2,0.3-0.4,0.7-0.4,1.2h2.9c0-0.5-0.1-0.9-0.4-1.2C127.2,95.1,126.9,94.9,126.5,94.9z"/>
		<path id="XMLID_1560_" class="st6" d="M138.3,97.3c0,1.2-0.3,2.2-1,2.9s-1.5,1-2.7,1c-0.7,0-1.4-0.2-1.9-0.5s-1-0.8-1.3-1.4
			s-0.4-1.3-0.4-2.1c0-1.2,0.3-2.2,1-2.9c0.6-0.7,1.5-1,2.7-1c0.7,0,1.4,0.2,1.9,0.5c0.6,0.3,1,0.8,1.3,1.4
			C138.2,95.9,138.3,96.6,138.3,97.3z M133.1,97.3c0,0.7,0.1,1.3,0.4,1.7s0.6,0.6,1.2,0.6c0.5,0,0.9-0.2,1.2-0.6
			c0.2-0.4,0.4-0.9,0.4-1.7c0-0.7-0.1-1.3-0.4-1.7c-0.2-0.4-0.6-0.6-1.2-0.6c-0.5,0-0.9,0.2-1.2,0.6S133.1,96.6,133.1,97.3z"/>
		<path id="XMLID_1557_" class="st6" d="M56.5,117.8c-0.9,0-1.6-0.3-2.1-1h-0.1c0.1,0.6,0.1,1,0.1,1.1v3h-2v-10.8h1.7l0.3,1h0.1
			c0.5-0.7,1.2-1.1,2.1-1.1c0.9,0,1.6,0.3,2.1,1c0.5,0.7,0.8,1.6,0.8,2.9c0,0.8-0.1,1.5-0.4,2.1s-0.6,1-1,1.4
			C57.6,117.6,57.1,117.8,56.5,117.8z M55.9,111.6c-0.5,0-0.9,0.2-1.1,0.5c-0.2,0.3-0.4,0.8-0.4,1.5v0.2c0,0.8,0.1,1.4,0.4,1.7
			c0.2,0.3,0.6,0.5,1.1,0.5c0.9,0,1.4-0.8,1.4-2.3c0-0.7-0.1-1.3-0.3-1.7S56.4,111.6,55.9,111.6z"/>
		<path id="XMLID_1555_" class="st6" d="M68.1,117.6h-2v-4.4c0-1.1-0.4-1.6-1.2-1.6c-0.6,0-1,0.2-1.2,0.6c-0.3,0.4-0.4,1-0.4,1.9
			v3.5h-2v-10.5h2v2.1c0,0.2,0,0.6,0,1.2l0,0.6h0.1c0.5-0.7,1.2-1.1,2.2-1.1c0.9,0,1.6,0.2,2,0.7c0.5,0.5,0.7,1.2,0.7,2V117.6z"/>
		<path id="XMLID_1552_" class="st6" d="M77,113.9c0,1.2-0.3,2.2-1,2.9c-0.6,0.7-1.5,1-2.7,1c-0.7,0-1.4-0.2-1.9-0.5
			c-0.6-0.3-1-0.8-1.3-1.4c-0.3-0.6-0.4-1.3-0.4-2.1c0-1.2,0.3-2.2,1-2.9c0.6-0.7,1.5-1,2.7-1c0.7,0,1.4,0.2,1.9,0.5
			c0.6,0.3,1,0.8,1.3,1.4S77,113.1,77,113.9z M71.8,113.9c0,0.7,0.1,1.3,0.4,1.7c0.2,0.4,0.6,0.6,1.2,0.6c0.5,0,0.9-0.2,1.2-0.6
			c0.2-0.4,0.4-0.9,0.4-1.7c0-0.7-0.1-1.3-0.4-1.7c-0.2-0.4-0.6-0.6-1.2-0.6c-0.5,0-0.9,0.2-1.2,0.6
			C71.9,112.6,71.8,113.1,71.8,113.9z"/>
		<path id="XMLID_1550_" class="st6" d="M85.6,117.6h-2v-4.4c0-0.5-0.1-0.9-0.3-1.2c-0.2-0.3-0.5-0.4-0.9-0.4c-0.6,0-1,0.2-1.2,0.6
			c-0.3,0.4-0.4,1-0.4,1.9v3.5h-2v-7.5h1.6l0.3,1h0.1c0.2-0.4,0.5-0.6,0.9-0.8c0.4-0.2,0.9-0.3,1.4-0.3c0.9,0,1.5,0.2,2,0.7
			s0.7,1.2,0.7,2V117.6z"/>
		<path id="XMLID_1547_" class="st6" d="M94.3,117.6c0,1.1-0.3,1.9-0.9,2.5c-0.6,0.6-1.6,0.8-2.8,0.8c-1.1,0-2-0.1-2.8-0.4v-1.6
			c0.9,0.4,1.9,0.6,2.9,0.6c1.1,0,1.6-0.6,1.6-1.7v-0.1l0.1-0.9h-0.1c-0.5,0.7-1.2,1.1-2.1,1.1c-0.9,0-1.6-0.3-2.1-1
			s-0.7-1.6-0.7-2.8c0-1.2,0.3-2.2,0.8-2.9c0.5-0.7,1.2-1,2.1-1c0.9,0,1.6,0.4,2.2,1.1h0.1l0.2-1h1.7V117.6z M90.9,116.2
			c0.6,0,0.9-0.2,1.2-0.5c0.2-0.3,0.4-0.8,0.4-1.5v-0.2c0-0.8-0.1-1.4-0.4-1.7c-0.2-0.4-0.6-0.5-1.2-0.5c-1,0-1.4,0.8-1.4,2.3
			c0,0.8,0.1,1.3,0.4,1.7C90,116,90.3,116.2,90.9,116.2z"/>
		<path id="XMLID_1545_" class="st6" d="M103.1,117.8c-2.3,0-3.5-1.3-3.5-3.9c0-1.3,0.3-2.3,1-2.9c0.6-0.7,1.5-1,2.7-1
			c0.9,0,1.6,0.2,2.3,0.5l-0.6,1.6c-0.3-0.1-0.6-0.2-0.9-0.3s-0.6-0.1-0.8-0.1c-1.1,0-1.6,0.8-1.6,2.3c0,1.5,0.5,2.2,1.6,2.2
			c0.4,0,0.8-0.1,1.1-0.2c0.3-0.1,0.7-0.3,1-0.5v1.8c-0.3,0.2-0.7,0.4-1,0.4C104,117.7,103.6,117.8,103.1,117.8z"/>
		<path id="XMLID_1541_" class="st6" d="M111.9,117.6l-0.4-1h-0.1c-0.3,0.4-0.7,0.7-1.1,0.9s-0.8,0.3-1.4,0.3
			c-0.7,0-1.3-0.2-1.7-0.6s-0.6-1-0.6-1.8c0-0.8,0.3-1.4,0.8-1.8c0.6-0.4,1.4-0.6,2.5-0.6l1.3,0v-0.3c0-0.8-0.4-1.1-1.2-1.1
			c-0.6,0-1.3,0.2-2.1,0.5l-0.7-1.4c0.9-0.5,1.8-0.7,2.9-0.7c1,0,1.8,0.2,2.3,0.7c0.5,0.4,0.8,1.1,0.8,2v5H111.9z M111.3,114.1
			l-0.8,0c-0.6,0-1,0.1-1.3,0.3s-0.4,0.5-0.4,0.9c0,0.6,0.3,0.9,1,0.9c0.5,0,0.9-0.1,1.1-0.4c0.3-0.3,0.4-0.6,0.4-1.1V114.1z
			 M109,109.3v-0.2c0.8-0.9,1.3-1.6,1.6-2h2.3v0.1c-0.2,0.2-0.6,0.6-1.2,1c-0.6,0.5-1,0.8-1.3,1H109z"/>
		<path id="XMLID_1539_" class="st6" d="M118.5,117.8c-2.3,0-3.5-1.3-3.5-3.9c0-1.3,0.3-2.3,1-2.9c0.6-0.7,1.5-1,2.7-1
			c0.9,0,1.6,0.2,2.3,0.5l-0.6,1.6c-0.3-0.1-0.6-0.2-0.9-0.3s-0.6-0.1-0.8-0.1c-1.1,0-1.6,0.8-1.6,2.3c0,1.5,0.5,2.2,1.6,2.2
			c0.4,0,0.8-0.1,1.1-0.2c0.3-0.1,0.7-0.3,1-0.5v1.8c-0.3,0.2-0.7,0.4-1,0.4C119.4,117.7,119,117.8,118.5,117.8z"/>
		<path id="XMLID_1537_" class="st6" d="M129.4,117.6h-2v-4.4c0-1.1-0.4-1.6-1.2-1.6c-0.6,0-1,0.2-1.2,0.6c-0.3,0.4-0.4,1-0.4,1.9
			v3.5h-2v-10.5h2v2.1c0,0.2,0,0.6,0,1.2l0,0.6h0.1c0.5-0.7,1.2-1.1,2.2-1.1c0.9,0,1.6,0.2,2,0.7c0.5,0.5,0.7,1.2,0.7,2V117.6z"/>
		<path id="XMLID_1535_" class="st6" d="M54.6,134.1h-2v-9.8h5.6v1.7h-3.6v2.5H58v1.7h-3.3V134.1z"/>
		<path id="XMLID_1533_" class="st6" d="M65.3,134.1l-0.3-1h-0.1c-0.2,0.3-0.5,0.6-0.9,0.8c-0.4,0.2-0.9,0.3-1.4,0.3
			c-0.9,0-1.5-0.2-2-0.7c-0.4-0.5-0.7-1.2-0.7-2v-4.9h2v4.4c0,0.5,0.1,0.9,0.3,1.2s0.5,0.4,0.9,0.4c0.6,0,1-0.2,1.2-0.6
			c0.3-0.4,0.4-1,0.4-1.9v-3.5h2v7.5H65.3z"/>
		<path id="XMLID_1531_" class="st6" d="M73.2,126.5c0.3,0,0.5,0,0.7,0.1l-0.2,1.9c-0.2,0-0.4-0.1-0.6-0.1c-0.7,0-1.2,0.2-1.5,0.5
			c-0.4,0.3-0.5,0.8-0.5,1.4v3.8h-2v-7.5h1.6l0.3,1.3H71c0.2-0.4,0.5-0.8,0.9-1C72.3,126.6,72.7,126.5,73.2,126.5z"/>
		<path id="XMLID_1528_" class="st6" d="M82,130.4c0,1.2-0.3,2.2-1,2.9c-0.6,0.7-1.5,1-2.7,1c-0.7,0-1.4-0.2-1.9-0.5
			c-0.6-0.3-1-0.8-1.3-1.4c-0.3-0.6-0.4-1.3-0.4-2.1c0-1.2,0.3-2.2,1-2.9c0.6-0.7,1.5-1,2.7-1c0.7,0,1.4,0.2,1.9,0.5
			c0.6,0.3,1,0.8,1.3,1.4S82,129.6,82,130.4z M76.8,130.4c0,0.7,0.1,1.3,0.4,1.7c0.2,0.4,0.6,0.6,1.2,0.6c0.5,0,0.9-0.2,1.2-0.6
			c0.2-0.4,0.4-0.9,0.4-1.7c0-0.7-0.1-1.3-0.4-1.7c-0.2-0.4-0.6-0.6-1.2-0.6c-0.5,0-0.9,0.2-1.2,0.6
			C76.9,129.1,76.8,129.6,76.8,130.4z"/>
		<path id="XMLID_1526_" class="st6" d="M88.9,131.9c0,0.8-0.3,1.4-0.8,1.8c-0.5,0.4-1.3,0.6-2.4,0.6c-0.5,0-1,0-1.4-0.1
			c-0.4-0.1-0.7-0.2-1.1-0.3v-1.7c0.4,0.2,0.8,0.3,1.3,0.5c0.5,0.1,0.9,0.2,1.3,0.2c0.7,0,1.1-0.2,1.1-0.6c0-0.2,0-0.3-0.1-0.4
			c-0.1-0.1-0.3-0.2-0.5-0.3c-0.2-0.1-0.6-0.3-1-0.4c-0.6-0.2-1-0.5-1.3-0.7c-0.3-0.2-0.5-0.4-0.6-0.7c-0.1-0.3-0.2-0.6-0.2-1
			c0-0.7,0.3-1.2,0.8-1.5s1.3-0.5,2.2-0.5c0.9,0,1.8,0.2,2.6,0.6l-0.6,1.5c-0.4-0.2-0.7-0.3-1.1-0.4s-0.7-0.2-1-0.2
			c-0.6,0-0.9,0.2-0.9,0.5c0,0.2,0.1,0.3,0.3,0.5c0.2,0.1,0.6,0.3,1.3,0.6c0.6,0.2,1,0.5,1.3,0.7s0.5,0.4,0.6,0.7
			C88.8,131.2,88.9,131.5,88.9,131.9z"/>
		<path id="XMLID_1524_" class="st6" d="M97.4,134.1h-2v-4.4c0-1.1-0.4-1.6-1.2-1.6c-0.6,0-1,0.2-1.2,0.6c-0.3,0.4-0.4,1-0.4,1.9
			v3.5h-2v-10.5h2v2.1c0,0.2,0,0.6,0,1.2l0,0.6h0.1c0.5-0.7,1.2-1.1,2.2-1.1c0.9,0,1.6,0.2,2,0.7c0.5,0.5,0.7,1.2,0.7,2V134.1z"/>
		<path id="XMLID_1521_" class="st6" d="M99.5,124.7c0-0.7,0.4-1,1.1-1s1.1,0.3,1.1,1c0,0.3-0.1,0.6-0.3,0.7
			c-0.2,0.2-0.5,0.3-0.8,0.3C99.8,125.7,99.5,125.4,99.5,124.7z M101.6,134.1h-2v-7.5h2V134.1z"/>
		<path id="XMLID_1519_" class="st6" d="M105.7,130.1l0.9-1.1l2.1-2.3h2.3l-3,3.3l3.2,4.3h-2.4l-2.2-3l-0.9,0.7v2.3h-2v-10.5h2v4.7
			L105.7,130.1L105.7,130.1z"/>
		<path id="XMLID_1516_" class="st6" d="M112.2,124.7c0-0.7,0.4-1,1.1-1c0.7,0,1.1,0.3,1.1,1c0,0.3-0.1,0.6-0.3,0.7
			c-0.2,0.2-0.5,0.3-0.8,0.3C112.6,125.7,112.2,125.4,112.2,124.7z M114.3,134.1h-2v-7.5h2V134.1z"/>
		<path id="XMLID_1514_" class="st6" d="M60.5,150.7H59l-5.3-8.2h-0.1l0,0.5c0.1,0.8,0.1,1.5,0.1,2.1v5.5h-1.1v-9.8h1.4l0.3,0.5
			l3.2,5l1.7,2.7h0.1c0-0.1,0-0.5-0.1-1.2c0-0.7,0-1.1,0-1.4v-5.5h1.2V150.7z"/>
		<path id="XMLID_1510_" class="st6" d="M66.1,150.8c-1.1,0-2-0.3-2.6-1c-0.6-0.7-0.9-1.6-0.9-2.8c0-1.2,0.3-2.1,0.9-2.8
			s1.4-1.1,2.4-1.1c0.9,0,1.7,0.3,2.2,0.9c0.6,0.6,0.8,1.4,0.8,2.4v0.7h-5.1c0,0.8,0.2,1.5,0.6,1.9s1,0.7,1.7,0.7
			c0.4,0,0.8,0,1.1-0.1c0.4-0.1,0.8-0.2,1.2-0.4v1.1c-0.4,0.2-0.8,0.3-1.1,0.4C67,150.8,66.6,150.8,66.1,150.8z M65.8,144.1
			c-0.6,0-1,0.2-1.4,0.6c-0.3,0.4-0.5,0.9-0.6,1.6h3.8c0-0.7-0.2-1.2-0.5-1.6C66.8,144.3,66.4,144.1,65.8,144.1z M64.9,142.2
			c0.2-0.2,0.4-0.5,0.6-0.9c0.3-0.4,0.5-0.8,0.7-1.1h1.5v0.1c-0.2,0.3-0.5,0.6-0.9,1.1c-0.4,0.4-0.8,0.8-1,1h-0.8V142.2z"/>
		<path id="XMLID_1508_" class="st6" d="M73.2,149.8c0.2,0,0.3,0,0.6,0c0.2,0,0.4-0.1,0.5-0.1v0.9c-0.1,0-0.3,0.1-0.5,0.1
			c-0.2,0-0.5,0.1-0.7,0.1c-1.4,0-2.2-0.8-2.2-2.3v-4.3h-1v-0.6l1.1-0.5l0.5-1.6H72v1.7h2.1v0.9H72v4.3c0,0.4,0.1,0.8,0.3,1
			C72.5,149.7,72.8,149.8,73.2,149.8z"/>
		<path id="XMLID_1505_" class="st6" d="M81.9,150.8c-1,0-1.7-0.3-2.2-1c-0.5-0.7-0.8-1.6-0.8-2.8c0-1.2,0.3-2.2,0.8-2.8
			c0.5-0.7,1.3-1,2.2-1c1,0,1.8,0.4,2.3,1.1h0.1c0-0.1,0-0.2-0.1-0.5s0-0.5,0-0.6v-0.8h-2.9v-0.9h2.9v-1.2h1.2v1.2h1v0.9h-1v8.3h-1
			l-0.2-1h-0.1C83.7,150.4,82.9,150.8,81.9,150.8z M82.1,149.8c0.7,0,1.3-0.2,1.6-0.6c0.3-0.4,0.5-1,0.5-2V147c0-1-0.2-1.8-0.5-2.2
			c-0.3-0.4-0.9-0.6-1.6-0.6c-0.6,0-1.1,0.2-1.4,0.7c-0.3,0.5-0.5,1.2-0.5,2.1c0,0.9,0.2,1.6,0.5,2
			C80.9,149.6,81.4,149.8,82.1,149.8z"/>
		<path id="XMLID_1501_" class="st6" d="M90.9,150.8c-1.1,0-2-0.3-2.6-1c-0.6-0.7-0.9-1.6-0.9-2.8c0-1.2,0.3-2.1,0.9-2.8
			s1.4-1.1,2.4-1.1c0.9,0,1.7,0.3,2.2,0.9c0.6,0.6,0.8,1.4,0.8,2.4v0.7h-5.1c0,0.8,0.2,1.5,0.6,1.9s1,0.7,1.7,0.7
			c0.4,0,0.8,0,1.1-0.1c0.4-0.1,0.8-0.2,1.2-0.4v1.1c-0.4,0.2-0.8,0.3-1.1,0.4C91.8,150.8,91.4,150.8,90.9,150.8z M90.6,144.1
			c-0.6,0-1,0.2-1.4,0.6c-0.3,0.4-0.5,0.9-0.6,1.6h3.8c0-0.7-0.2-1.2-0.5-1.6C91.6,144.3,91.2,144.1,90.6,144.1z M89.9,152.3
			c0-0.3,0.1-0.5,0.2-0.6c0.1-0.1,0.3-0.2,0.5-0.2c0.2,0,0.4,0.1,0.5,0.2c0.1,0.1,0.2,0.3,0.2,0.6c0,0.2-0.1,0.4-0.2,0.6
			s-0.3,0.2-0.5,0.2c-0.2,0-0.4-0.1-0.5-0.2C90,152.7,89.9,152.6,89.9,152.3z"/>
		<path id="XMLID_1498_" class="st6" d="M99,150.8c-1,0-1.8-0.4-2.3-1.1h-0.1l0,0.3c0,0.3,0.1,0.7,0.1,0.9v3h-1.2v-10.7h1l0.2,1h0.1
			c0.3-0.4,0.6-0.7,1-0.9c0.4-0.2,0.8-0.3,1.3-0.3c1,0,1.7,0.3,2.2,1c0.5,0.7,0.8,1.6,0.8,2.8c0,1.2-0.3,2.1-0.8,2.8
			C100.7,150.5,100,150.8,99,150.8z M98.8,144.2c-0.7,0-1.3,0.2-1.6,0.6c-0.3,0.4-0.5,1.1-0.5,1.9v0.2c0,1,0.2,1.7,0.5,2.2
			c0.3,0.4,0.9,0.7,1.6,0.7c0.6,0,1.1-0.3,1.4-0.8c0.3-0.5,0.5-1.2,0.5-2.1c0-0.9-0.2-1.6-0.5-2.1C99.9,144.4,99.5,144.2,98.8,144.2
			z"/>
		<path id="XMLID_1496_" class="st6" d="M110,149.8c0.2,0,0.3,0,0.6,0c0.2,0,0.4-0.1,0.5-0.1v0.9c-0.1,0-0.3,0.1-0.5,0.1
			c-0.2,0-0.5,0.1-0.7,0.1c-1.4,0-2.2-0.8-2.2-2.3v-4.3h-1v-0.6l1.1-0.5l0.5-1.6h0.7v1.7h2.1v0.9h-2.1v4.3c0,0.4,0.1,0.8,0.3,1
			S109.7,149.8,110,149.8z"/>
		<path id="XMLID_1494_" class="st6" d="M116,143.1c0.3,0,0.6,0,0.9,0.1l-0.1,1.1c-0.3-0.1-0.5-0.1-0.8-0.1c-0.4,0-0.8,0.1-1.1,0.3
			c-0.3,0.2-0.6,0.5-0.8,0.9c-0.2,0.4-0.3,0.8-0.3,1.3v3.9h-1.2v-7.4h1l0.1,1.4h0.1c0.3-0.5,0.6-0.9,1-1.1
			C115.1,143.3,115.5,143.1,116,143.1z"/>
		<path id="XMLID_1492_" class="st6" d="M119.4,143.3v4.8c0,0.6,0.1,1,0.4,1.3s0.7,0.4,1.2,0.4c0.8,0,1.3-0.2,1.7-0.6
			c0.3-0.4,0.5-1.1,0.5-2v-3.8h1.2v7.4h-1l-0.2-1h-0.1c-0.2,0.4-0.5,0.6-0.9,0.8c-0.4,0.2-0.9,0.3-1.4,0.3c-0.9,0-1.6-0.2-2-0.6
			s-0.7-1.1-0.7-2v-4.8H119.4z"/>
		<path id="XMLID_1490_" class="st6" d="M125.6,143.3h1.3l1.6,4.2c0.3,0.9,0.5,1.6,0.6,2h0.1c0-0.2,0.1-0.5,0.3-0.9s0.3-0.8,0.4-1.1
			l1.5-4.2h1.3l-3.2,8.4c-0.3,0.8-0.7,1.4-1.1,1.8c-0.4,0.4-1,0.5-1.6,0.5c-0.3,0-0.7,0-1-0.1v-1c0.2,0.1,0.5,0.1,0.8,0.1
			c0.4,0,0.7-0.1,1-0.3s0.5-0.5,0.7-1l0.4-1L125.6,143.3z"/>
		<path id="XMLID_1485_" class="st6" d="M135.1,141h-0.7c-0.5-0.4-1-0.9-1.4-1.4v-0.1h1.2c0.3,0.5,0.5,1,0.9,1.4V141z M136.9,150.8
			c-1.1,0-2-0.3-2.6-1c-0.6-0.7-0.9-1.6-0.9-2.8c0-1.2,0.3-2.1,0.9-2.8c0.6-0.7,1.4-1.1,2.4-1.1c0.9,0,1.7,0.3,2.2,0.9
			s0.8,1.4,0.8,2.4v0.7h-5.1c0,0.8,0.2,1.5,0.6,1.9c0.4,0.4,1,0.7,1.7,0.7c0.4,0,0.8,0,1.1-0.1c0.4-0.1,0.8-0.2,1.2-0.4v1.1
			c-0.4,0.2-0.8,0.3-1.1,0.4S137.4,150.8,136.9,150.8z M138.7,142.3H138c-0.4-0.3-0.9-0.7-1.4-1.1c-0.5,0.4-0.9,0.8-1.4,1.1h-0.7
			v-0.2l0.4-0.4c0.5-0.6,0.9-1,1.1-1.4h1.3c0.3,0.4,0.8,1,1.5,1.8V142.3z M136.6,144.1c-0.6,0-1,0.2-1.4,0.6s-0.5,0.9-0.6,1.6h3.8
			c0-0.7-0.2-1.2-0.5-1.6C137.6,144.3,137.1,144.1,136.6,144.1z"/>
		<path id="XMLID_1483_" class="st6" d="M146.5,150.7v-4.7c0-0.6-0.1-1-0.4-1.3s-0.7-0.4-1.3-0.4c-0.8,0-1.3,0.2-1.6,0.6
			c-0.3,0.4-0.5,1.1-0.5,2v3.8h-1.2v-7.4h1l0.2,1h0.1c0.2-0.4,0.5-0.6,1-0.8c0.4-0.2,0.9-0.3,1.4-0.3c0.9,0,1.6,0.2,2,0.7
			s0.7,1.1,0.7,2v4.8H146.5z"/>
		<path id="XMLID_1481_" class="st6" d="M55,166.3c0.2,0,0.3,0,0.6,0c0.2,0,0.4-0.1,0.5-0.1v0.9c-0.1,0-0.3,0.1-0.5,0.1
			c-0.2,0-0.5,0.1-0.7,0.1c-1.4,0-2.2-0.8-2.2-2.3v-4.3h-1v-0.6l1.1-0.5l0.5-1.6h0.7v1.7H56v0.9h-2.1v4.3c0,0.4,0.1,0.8,0.3,1
			S54.6,166.3,55,166.3z"/>
		<path id="XMLID_1479_" class="st6" d="M62.5,167.2v-4.7c0-0.6-0.1-1-0.4-1.3s-0.7-0.4-1.3-0.4c-0.7,0-1.3,0.2-1.6,0.6
			c-0.3,0.4-0.5,1.1-0.5,2.1v3.8h-1.2v-10.5h1.2v3.1c0,0.4,0,0.7-0.1,1h0.1c0.2-0.4,0.5-0.6,0.9-0.8s0.9-0.3,1.4-0.3
			c0.9,0,1.6,0.2,2,0.6c0.5,0.4,0.7,1.1,0.7,2.1v4.8H62.5z"/>
		<path id="XMLID_1474_" class="st6" d="M72.4,163.5c0,1.2-0.3,2.1-0.9,2.8c-0.6,0.7-1.5,1-2.5,1c-0.7,0-1.3-0.2-1.8-0.5
			c-0.5-0.3-0.9-0.8-1.2-1.3c-0.3-0.6-0.4-1.3-0.4-2c0-1.2,0.3-2.1,0.9-2.8c0.6-0.7,1.4-1,2.5-1c1,0,1.9,0.3,2.5,1
			C72.1,161.4,72.4,162.3,72.4,163.5z M66.8,163.5c0,0.9,0.2,1.6,0.5,2.1s0.9,0.7,1.6,0.7c0.7,0,1.2-0.2,1.6-0.7s0.6-1.2,0.6-2.1
			c0-0.9-0.2-1.6-0.6-2.1s-0.9-0.7-1.6-0.7C67.5,160.7,66.8,161.6,66.8,163.5z M71.1,158.8h-0.7c-0.5-0.3-1-0.7-1.4-1.1
			c-0.5,0.5-1,0.8-1.4,1.1h-0.7v-0.2c0.2-0.3,0.5-0.5,0.7-0.8c0.3-0.3,0.5-0.6,0.7-0.9h1.3c0.3,0.5,0.8,1,1.5,1.8V158.8z
			 M70.5,157.4c0.3-0.4,0.6-0.9,0.9-1.4h1.2v0.1c-0.4,0.5-0.8,0.9-1.4,1.4h-0.7V157.4z"/>
		<path id="XMLID_1472_" class="st6" d="M79.3,167.2v-4.7c0-0.6-0.1-1-0.4-1.3s-0.7-0.4-1.3-0.4c-0.8,0-1.3,0.2-1.6,0.6
			c-0.3,0.4-0.5,1.1-0.5,2v3.8h-1.2v-7.4h1l0.2,1h0.1c0.2-0.4,0.5-0.6,1-0.8c0.4-0.2,0.9-0.3,1.4-0.3c0.9,0,1.6,0.2,2,0.7
			c0.4,0.4,0.7,1.1,0.7,2v4.8H79.3z"/>
		<path id="XMLID_1469_" class="st6" d="M87.7,167.1l0-0.9h-0.1c-0.5,0.7-1.3,1.1-2.3,1.1c-1,0-1.7-0.3-2.2-1
			c-0.5-0.7-0.8-1.6-0.8-2.8c0-1.2,0.3-2.1,0.8-2.8c0.5-0.7,1.3-1,2.2-1c1,0,1.8,0.4,2.3,1.1h0.1l0.2-1h1v7.5c0,1.1-0.3,1.9-0.8,2.4
			s-1.4,0.8-2.5,0.8c-1.1,0-2-0.2-2.7-0.5v-1.1c0.7,0.4,1.6,0.6,2.7,0.6c0.6,0,1.1-0.2,1.5-0.6c0.4-0.4,0.5-0.9,0.5-1.5V167.1z
			 M85.6,166.3c0.7,0,1.3-0.2,1.6-0.6c0.3-0.4,0.5-1,0.5-1.9v-0.3c0-1-0.2-1.7-0.5-2.2c-0.3-0.4-0.9-0.7-1.6-0.7
			c-0.6,0-1.1,0.2-1.4,0.7c-0.3,0.5-0.5,1.2-0.5,2.1c0,0.9,0.2,1.6,0.5,2.1C84.5,166.1,85,166.3,85.6,166.3z"/>
		<path id="XMLID_1467_" class="st6" d="M92.7,165.6l0.1,0.2c-0.2,1-0.6,2-1.2,3.2h-0.9c0.3-1.1,0.5-2.2,0.7-3.4H92.7z"/>
		<path id="XMLID_1464_" class="st6" d="M97.6,167.3c-1,0-1.7-0.3-2.2-1c-0.5-0.7-0.8-1.6-0.8-2.8c0-1.2,0.3-2.2,0.8-2.8
			c0.5-0.7,1.3-1,2.2-1c1,0,1.8,0.4,2.3,1.1h0.1c0-0.1,0-0.2-0.1-0.5s0-0.5,0-0.6v-0.8H97v-0.9h2.9v-1.2h1.2v1.2h1v0.9h-1v8.3h-1
			l-0.2-1h-0.1C99.4,166.9,98.6,167.3,97.6,167.3z M97.8,166.3c0.7,0,1.3-0.2,1.6-0.6c0.3-0.4,0.5-1,0.5-2v-0.2c0-1-0.2-1.8-0.5-2.2
			c-0.3-0.4-0.9-0.6-1.6-0.6c-0.6,0-1.1,0.2-1.4,0.7c-0.3,0.5-0.5,1.2-0.5,2.1c0,0.9,0.2,1.6,0.5,2
			C96.6,166.1,97.1,166.3,97.8,166.3z"/>
		<path id="XMLID_1461_" class="st6" d="M108,167.2l-0.2-1h-0.1c-0.4,0.5-0.7,0.8-1.1,0.9c-0.4,0.2-0.8,0.2-1.4,0.2
			c-0.7,0-1.3-0.2-1.7-0.6c-0.4-0.4-0.6-0.9-0.6-1.6c0-1.5,1.2-2.3,3.5-2.4l1.3,0v-0.4c0-0.6-0.1-1-0.4-1.2
			c-0.2-0.3-0.6-0.4-1.2-0.4c-0.4,0-0.8,0.1-1.1,0.2c-0.3,0.1-0.7,0.2-1,0.4l-0.4-0.9c0.4-0.2,0.8-0.4,1.2-0.5
			c0.4-0.1,0.9-0.2,1.3-0.2c0.9,0,1.6,0.2,2,0.6s0.7,1,0.7,1.9v5H108z M105.5,166.3c0.7,0,1.2-0.2,1.6-0.5s0.6-0.9,0.6-1.6v-0.7
			l-1.1,0c-0.8,0-1.5,0.2-1.9,0.4c-0.4,0.2-0.6,0.6-0.6,1.1c0,0.4,0.1,0.7,0.4,0.9C104.8,166.2,105.1,166.3,105.5,166.3z"/>
		<path id="XMLID_1459_" class="st6" d="M117.2,166.3c0.2,0,0.3,0,0.6,0s0.4-0.1,0.5-0.1v0.9c-0.1,0-0.3,0.1-0.5,0.1
			c-0.2,0-0.5,0.1-0.7,0.1c-1.4,0-2.2-0.8-2.2-2.3v-4.3h-1v-0.6l1.1-0.5l0.5-1.6h0.7v1.7h2.1v0.9h-2.1v4.3c0,0.4,0.1,0.8,0.3,1
			S116.9,166.3,117.2,166.3z"/>
		<path id="XMLID_1454_" class="st6" d="M120.9,157.5h-0.7c-0.5-0.4-1-0.9-1.4-1.4V156h1.2c0.3,0.5,0.5,1,0.9,1.4V157.5z
			 M124.3,167.2l-0.2-1H124c-0.4,0.5-0.7,0.8-1.1,0.9s-0.8,0.2-1.4,0.2c-0.7,0-1.3-0.2-1.7-0.6c-0.4-0.4-0.6-0.9-0.6-1.6
			c0-1.5,1.2-2.3,3.5-2.4l1.3,0v-0.4c0-0.6-0.1-1-0.4-1.2c-0.2-0.3-0.6-0.4-1.2-0.4c-0.4,0-0.8,0.1-1.1,0.2c-0.3,0.1-0.7,0.2-1,0.4
			l-0.4-0.9c0.4-0.2,0.8-0.4,1.2-0.5c0.4-0.1,0.9-0.2,1.3-0.2c0.9,0,1.6,0.2,2,0.6s0.7,1,0.7,1.9v5H124.3z M124.5,158.8h-0.7
			c-0.4-0.3-0.9-0.7-1.4-1.1c-0.5,0.4-0.9,0.8-1.4,1.1h-0.7v-0.2l0.4-0.4c0.5-0.6,0.9-1,1.1-1.4h1.3c0.3,0.4,0.8,1,1.5,1.8V158.8z
			 M121.8,166.3c0.7,0,1.2-0.2,1.6-0.5c0.4-0.4,0.6-0.9,0.6-1.6v-0.7l-1.1,0c-0.8,0-1.5,0.2-1.9,0.4c-0.4,0.2-0.6,0.6-0.6,1.1
			c0,0.4,0.1,0.7,0.4,0.9C121,166.2,121.4,166.3,121.8,166.3z"/>
		<path id="XMLID_1452_" class="st6" d="M132.5,167.2v-4.7c0-0.6-0.1-1-0.4-1.3s-0.7-0.4-1.3-0.4c-0.8,0-1.3,0.2-1.6,0.6
			c-0.3,0.4-0.5,1.1-0.5,2v3.8h-1.2v-7.4h1l0.2,1h0.1c0.2-0.4,0.5-0.6,1-0.8c0.4-0.2,0.9-0.3,1.4-0.3c0.9,0,1.6,0.2,2,0.7
			s0.7,1.1,0.7,2v4.8H132.5z"/>
		<path id="XMLID_1449_" class="st6" d="M140.9,167.1l0-0.9h-0.1c-0.5,0.7-1.3,1.1-2.3,1.1c-1,0-1.7-0.3-2.2-1
			c-0.5-0.7-0.8-1.6-0.8-2.8c0-1.2,0.3-2.1,0.8-2.8s1.3-1,2.2-1c1,0,1.8,0.4,2.3,1.1h0.1l0.2-1h1v7.5c0,1.1-0.3,1.9-0.8,2.4
			c-0.5,0.5-1.4,0.8-2.5,0.8c-1.1,0-2-0.2-2.7-0.5v-1.1c0.7,0.4,1.6,0.6,2.7,0.6c0.6,0,1.1-0.2,1.5-0.6c0.4-0.4,0.5-0.9,0.5-1.5
			V167.1z M138.8,166.3c0.7,0,1.3-0.2,1.6-0.6c0.3-0.4,0.5-1,0.5-1.9v-0.3c0-1-0.2-1.7-0.5-2.2c-0.3-0.4-0.9-0.7-1.6-0.7
			c-0.6,0-1.1,0.2-1.4,0.7c-0.3,0.5-0.5,1.2-0.5,2.1c0,0.9,0.2,1.6,0.5,2.1C137.6,166.1,138.1,166.3,138.8,166.3z"/>
		<path id="XMLID_1446_" class="st6" d="M51.4,176.3h1.3l1.6,4.2c0.3,0.9,0.5,1.6,0.6,2h0.1c0-0.2,0.1-0.5,0.3-0.9
			c0.1-0.5,0.3-0.8,0.4-1.1l1.5-4.2h1.3l-3.2,8.4c-0.3,0.8-0.7,1.4-1.1,1.8c-0.4,0.4-1,0.5-1.6,0.5c-0.3,0-0.7,0-1-0.1v-1
			c0.2,0.1,0.5,0.1,0.8,0.1c0.4,0,0.7-0.1,1-0.3c0.3-0.2,0.5-0.5,0.7-1l0.4-1L51.4,176.3z M54.1,175.2c0.2-0.2,0.4-0.5,0.6-0.9
			c0.3-0.4,0.5-0.8,0.7-1.1h1.5v0.1c-0.2,0.3-0.5,0.6-0.9,1.1s-0.8,0.8-1,1h-0.8V175.2z"/>
		<path id="XMLID_1444_" class="st6" d="M68.1,183.7V179c0-0.6-0.1-1-0.4-1.3s-0.7-0.4-1.3-0.4c-0.8,0-1.3,0.2-1.6,0.6
			c-0.3,0.4-0.5,1.1-0.5,2v3.8h-1.2v-7.4h1l0.2,1h0.1c0.2-0.4,0.5-0.6,1-0.8c0.4-0.2,0.9-0.3,1.4-0.3c0.9,0,1.6,0.2,2,0.7
			c0.4,0.4,0.7,1.1,0.7,2v4.8H68.1z"/>
		<path id="XMLID_1441_" class="st6" d="M76.5,183.6l0-0.9h-0.1c-0.5,0.7-1.3,1.1-2.3,1.1c-1,0-1.7-0.3-2.2-1
			c-0.5-0.7-0.8-1.6-0.8-2.8c0-1.2,0.3-2.1,0.8-2.8c0.5-0.7,1.3-1,2.2-1c1,0,1.8,0.4,2.3,1.1h0.1l0.2-1h1v7.5c0,1.1-0.3,1.9-0.8,2.4
			s-1.4,0.8-2.5,0.8c-1.1,0-2-0.2-2.7-0.5v-1.1c0.7,0.4,1.6,0.6,2.7,0.6c0.6,0,1.1-0.2,1.5-0.6c0.4-0.4,0.5-0.9,0.5-1.5V183.6z
			 M74.4,182.8c0.7,0,1.3-0.2,1.6-0.6c0.3-0.4,0.5-1,0.5-1.9V180c0-1-0.2-1.7-0.5-2.2c-0.3-0.4-0.9-0.7-1.6-0.7
			c-0.6,0-1.1,0.2-1.4,0.7c-0.3,0.5-0.5,1.2-0.5,2.1c0,0.9,0.2,1.6,0.5,2.1C73.3,182.6,73.8,182.8,74.4,182.8z"/>
		<path id="XMLID_1439_" class="st6" d="M85.1,183.7V179c0-0.6-0.1-1-0.4-1.3s-0.7-0.4-1.3-0.4c-0.7,0-1.3,0.2-1.6,0.6
			c-0.3,0.4-0.5,1.1-0.5,2.1v3.8h-1.2v-10.5h1.2v3.1c0,0.4,0,0.7-0.1,1h0.1c0.2-0.4,0.5-0.6,0.9-0.8s0.9-0.3,1.4-0.3
			c0.9,0,1.6,0.2,2,0.6c0.5,0.4,0.7,1.1,0.7,2.1v4.8H85.1z"/>
		<path id="XMLID_1436_" class="st6" d="M90.2,175.3c-0.2,0-0.4,0-0.6-0.1c-0.2-0.1-0.4-0.2-0.5-0.3c-0.2-0.1-0.3-0.2-0.5-0.3
			c-0.2-0.1-0.3-0.1-0.5-0.1c-0.2,0-0.4,0.1-0.5,0.2c-0.1,0.1-0.2,0.3-0.3,0.6h-0.7c0.1-0.5,0.2-1,0.5-1.3c0.3-0.3,0.6-0.5,1-0.5
			c0.2,0,0.4,0,0.6,0.1s0.4,0.2,0.5,0.3c0.2,0.1,0.3,0.2,0.5,0.3s0.3,0.1,0.5,0.1c0.2,0,0.4-0.1,0.5-0.2c0.1-0.1,0.2-0.3,0.3-0.6
			h0.7c-0.1,0.5-0.2,1-0.5,1.3C91,175.2,90.7,175.3,90.2,175.3z M89.8,183.7h-1.2v-7.4h1.2V183.7z"/>
		<path id="XMLID_1433_" class="st6" d="M96.7,183.7l-0.2-1h-0.1c-0.4,0.5-0.7,0.8-1.1,0.9s-0.8,0.2-1.4,0.2c-0.7,0-1.3-0.2-1.7-0.6
			c-0.4-0.4-0.6-0.9-0.6-1.6c0-1.5,1.2-2.3,3.5-2.4l1.3,0v-0.4c0-0.6-0.1-1-0.4-1.2c-0.2-0.3-0.6-0.4-1.2-0.4
			c-0.4,0-0.8,0.1-1.1,0.2c-0.3,0.1-0.7,0.2-1,0.4l-0.4-0.9c0.4-0.2,0.8-0.4,1.2-0.5c0.4-0.1,0.9-0.2,1.3-0.2c0.9,0,1.6,0.2,2,0.6
			s0.7,1,0.7,1.9v5H96.7z M94.2,182.9c0.7,0,1.2-0.2,1.6-0.5c0.4-0.4,0.6-0.9,0.6-1.6v-0.7l-1.1,0c-0.8,0-1.5,0.2-1.9,0.4
			c-0.4,0.2-0.6,0.6-0.6,1.1c0,0.4,0.1,0.7,0.4,0.9C93.4,182.8,93.8,182.9,94.2,182.9z"/>
	</g>
</g>
</svg>
