<?xml version="1.0" encoding="utf-8"?>
<!-- Generator: Adobe Illustrator 19.0.0, SVG Export Plug-In . SVG Version: 6.00 Build 0)  -->
<svg version="1.1" id="Layer_1" xmlns="http://www.w3.org/2000/svg" xmlns:xlink="http://www.w3.org/1999/xlink" x="0px" y="0px"
	 viewBox="0 0 168 167.3" style="enable-background:new 0 0 168 167.3;" xml:space="preserve">
<style type="text/css">
	.st0{fill:#FFFFFF;}
	.st1{fill:#088F5F;}
	.st2{fill:#CD202B;}
	.st3{fill:#15B27E;}
	.st4{fill:none;stroke:#FBFBFB;stroke-width:4;stroke-miterlimit:10;}
	.st5{fill:#FBFBFB;}
	.st6{fill:#404040;}
</style>
<polygon id="XMLID_818_" class="st0" points="148.8,167.2 148.8,148.1 168,167.3 "/>
<rect id="XMLID_819_" x="0" y="0" class="st1" width="150.8" height="167"/>
<rect id="XMLID_820_" x="0" y="106" class="st0" width="150.8" height="61.3"/>
<g id="XMLID_1240_">
	<circle id="XMLID_1241_" class="st2" cx="12.5" cy="117.5" r="4"/>
	<path id="XMLID_1273_" class="st2" d="M8.4,117.5h8.1v10.1C16.5,127.6,8.4,122.7,8.4,117.5z"/>
	<circle id="XMLID_1274_" class="st2" cx="20.5" cy="117.4" r="4"/>
	<path id="XMLID_226_" class="st2" d="M24.6,117.4h-8.1v10.1C16.5,127.4,24.6,122.5,24.6,117.4z"/>
</g>
<circle id="XMLID_1281_" class="st3" cx="76.2" cy="54.6" r="40.6"/>
<g id="XMLID_1282_">
	<path id="XMLID_1312_" class="st4" d="M86.5,25.8C98.2,29.9,106.5,41,106.5,54c0,16.6-13.5,30-30.2,30C59.6,84,46,70.5,46,54
		c0-13.6,9.2-25.2,21.8-28.8"/>
	<circle id="XMLID_1315_" class="st5" cx="69.6" cy="26.1" r="5.7"/>
	<circle id="XMLID_1316_" class="st5" cx="84.9" cy="26.1" r="5.7"/>
</g>
<g id="XMLID_227_">
	<path id="XMLID_228_" class="st6" d="M42.7,116h2.1l-3.4,10h-2.3l-3.4-10h2.1l1.9,5.9c0.1,0.4,0.2,0.8,0.3,1.2s0.2,0.8,0.2,1
		c0-0.4,0.2-1.2,0.5-2.2L42.7,116z"/>
	<path id="XMLID_230_" class="st6" d="M52.7,122.1c0,1.2-0.3,2.2-1,2.9s-1.6,1.1-2.7,1.1c-0.7,0-1.4-0.2-1.9-0.5s-1-0.8-1.3-1.4
		s-0.5-1.3-0.5-2.1c0-1.2,0.3-2.2,1-2.9c0.7-0.7,1.6-1,2.7-1c0.7,0,1.4,0.2,1.9,0.5s1,0.8,1.3,1.4S52.7,121.3,52.7,122.1z
		 M48.8,117.5c-0.3-0.2-0.7-0.5-1.3-1c-0.6-0.4-1-0.8-1.3-1.1v-0.1h2.3c0.3,0.5,0.8,1.1,1.6,2.1v0.2H48.8z M47.4,122.1
		c0,0.8,0.1,1.3,0.4,1.7s0.7,0.6,1.2,0.6c0.6,0,1-0.2,1.2-0.6s0.4-1,0.4-1.7c0-0.8-0.1-1.3-0.4-1.7s-0.6-0.6-1.2-0.6
		c-0.6,0-1,0.2-1.2,0.6S47.4,121.4,47.4,122.1z"/>
	<path id="XMLID_234_" class="st6" d="M61.5,126h-2.1v-4.5c0-0.6-0.1-1-0.3-1.2c-0.2-0.3-0.5-0.4-0.9-0.4c-0.6,0-1,0.2-1.3,0.6
		s-0.4,1-0.4,1.9v3.6h-2.1v-7.6H56l0.3,1h0.1c0.2-0.4,0.6-0.6,1-0.8s0.9-0.3,1.4-0.3c0.9,0,1.6,0.2,2,0.7c0.5,0.5,0.7,1.2,0.7,2.1
		V126z"/>
	<path id="XMLID_236_" class="st6" d="M70.3,126c0,1.1-0.3,1.9-1,2.5c-0.6,0.6-1.6,0.9-2.9,0.9c-1.1,0-2.1-0.2-2.9-0.5v-1.7
		c0.9,0.4,1.9,0.6,3,0.6c1.1,0,1.6-0.6,1.6-1.7v-0.2l0.1-0.9h-0.1c-0.5,0.8-1.2,1.1-2.2,1.1c-0.9,0-1.6-0.4-2.1-1.1
		s-0.8-1.7-0.8-2.9c0-1.3,0.3-2.2,0.8-2.9s1.2-1,2.2-1c0.9,0,1.7,0.4,2.2,1.1h0.1l0.2-1h1.8V126z M66.8,124.5c0.6,0,1-0.2,1.2-0.5
		c0.2-0.3,0.4-0.8,0.4-1.6v-0.3c0-0.8-0.1-1.4-0.4-1.8s-0.7-0.5-1.2-0.5c-1,0-1.5,0.8-1.5,2.3c0,0.8,0.1,1.3,0.4,1.7
		S66.3,124.5,66.8,124.5z"/>
	<path id="XMLID_239_" class="st6" d="M79.3,124.5c0.4,0,0.8-0.1,1.3-0.2v1.6c-0.5,0.2-1.2,0.3-1.9,0.3c-0.8,0-1.4-0.2-1.8-0.6
		s-0.6-1.1-0.6-1.9v-3.7h-1V119l1.1-0.7l0.6-1.6h1.3v1.6h2.1v1.6h-2.1v3.7c0,0.3,0.1,0.5,0.2,0.7S79.1,124.5,79.3,124.5z"/>
	<path id="XMLID_241_" class="st6" d="M87,126l-0.4-1h-0.1c-0.4,0.4-0.7,0.7-1.1,0.9s-0.9,0.3-1.5,0.3c-0.7,0-1.3-0.2-1.7-0.6
		s-0.6-1-0.6-1.8c0-0.8,0.3-1.4,0.9-1.8s1.4-0.6,2.6-0.6l1.3,0v-0.3c0-0.8-0.4-1.2-1.2-1.2c-0.6,0-1.3,0.2-2.2,0.6l-0.7-1.4
		c0.9-0.5,1.9-0.7,2.9-0.7c1,0,1.8,0.2,2.4,0.7s0.8,1.1,0.8,2v5.1H87z M86.4,122.4l-0.8,0c-0.6,0-1.1,0.1-1.4,0.3
		c-0.3,0.2-0.4,0.5-0.4,0.9c0,0.6,0.3,0.9,1,0.9c0.5,0,0.9-0.1,1.2-0.4s0.4-0.6,0.4-1.1V122.4z"/>
	<path id="XMLID_244_" class="st6" d="M89.6,118.3h2.3l1.4,4.3c0.1,0.4,0.2,0.8,0.3,1.3h0c0-0.5,0.1-0.9,0.3-1.3l1.4-4.3h2.2
		l-3.2,8.6c-0.3,0.8-0.7,1.4-1.3,1.8s-1.2,0.6-1.9,0.6c-0.4,0-0.7,0-1.1-0.1v-1.7c0.3,0.1,0.5,0.1,0.8,0.1c0.4,0,0.7-0.1,1-0.3
		s0.5-0.6,0.6-1l0.1-0.4L89.6,118.3z"/>
	<path id="XMLID_246_" class="st6" d="M41.3,133.8c-1.1,0-1.9,0.4-2.5,1.1s-0.9,1.7-0.9,3c0,1.3,0.3,2.3,0.9,3c0.6,0.7,1.4,1,2.5,1
		c0.7,0,1.5-0.1,2.4-0.4v1.1c-0.4,0.2-0.8,0.3-1.2,0.3c-0.4,0.1-0.8,0.1-1.4,0.1c-1.5,0-2.6-0.4-3.4-1.3s-1.2-2.2-1.2-3.8
		c0-1,0.2-1.9,0.6-2.7s0.9-1.4,1.7-1.8s1.6-0.6,2.6-0.6c1.1,0,2,0.2,2.8,0.6l-0.5,1.1C42.8,133.9,42.1,133.8,41.3,133.8z"/>
	<path id="XMLID_248_" class="st6" d="M52.3,139c0,1.2-0.3,2.2-0.9,2.9c-0.6,0.7-1.5,1-2.6,1c-0.7,0-1.3-0.2-1.8-0.5
		c-0.5-0.3-0.9-0.8-1.2-1.4c-0.3-0.6-0.4-1.3-0.4-2.1c0-1.2,0.3-2.2,0.9-2.9c0.6-0.7,1.5-1,2.6-1c1.1,0,1.9,0.3,2.5,1
		S52.3,137.8,52.3,139z M46.6,139c0,0.9,0.2,1.7,0.6,2.1s0.9,0.7,1.6,0.7c0.7,0,1.3-0.2,1.6-0.7c0.4-0.5,0.6-1.2,0.6-2.1
		s-0.2-1.7-0.6-2.1s-0.9-0.7-1.7-0.7C47.3,136.2,46.6,137.1,46.6,139z M47.8,134.1c0.2-0.2,0.4-0.5,0.7-0.9s0.5-0.8,0.7-1.1h1.5v0.1
		c-0.2,0.3-0.5,0.7-0.9,1.1s-0.8,0.8-1.1,1h-0.8V134.1z"/>
	<path id="XMLID_252_" class="st6" d="M59.1,142.8h-1.2v-10.6h1.2V142.8z"/>
	<path id="XMLID_254_" class="st6" d="M68,139c0,1.2-0.3,2.2-0.9,2.9c-0.6,0.7-1.5,1-2.6,1c-0.7,0-1.3-0.2-1.8-0.5
		c-0.5-0.3-0.9-0.8-1.2-1.4c-0.3-0.6-0.4-1.3-0.4-2.1c0-1.2,0.3-2.2,0.9-2.9c0.6-0.7,1.5-1,2.6-1c1.1,0,1.9,0.3,2.5,1
		S68,137.8,68,139z M62.1,134.1c0.6-0.6,1-1.1,1.2-1.4s0.4-0.5,0.5-0.7h1.3c0.2,0.5,0.8,1.2,1.8,2.1v0.2H66
		c-0.4-0.2-0.9-0.7-1.5-1.3c-0.6,0.6-1.1,1-1.5,1.3h-0.8V134.1z M62.3,139c0,0.9,0.2,1.7,0.6,2.1s0.9,0.7,1.6,0.7
		c0.7,0,1.3-0.2,1.6-0.7c0.4-0.5,0.6-1.2,0.6-2.1s-0.2-1.7-0.6-2.1s-0.9-0.7-1.7-0.7C63,136.2,62.3,137.1,62.3,139z M63.8,144.5
		c0-0.3,0.1-0.5,0.2-0.6s0.3-0.2,0.5-0.2c0.2,0,0.4,0.1,0.5,0.2s0.2,0.3,0.2,0.6c0,0.2-0.1,0.4-0.2,0.6s-0.3,0.2-0.5,0.2
		c-0.2,0-0.4-0.1-0.5-0.2S63.8,144.7,63.8,144.5z"/>
	<path id="XMLID_259_" class="st6" d="M72.9,142.9c-1.1,0-1.9-0.3-2.5-1s-0.9-1.6-0.9-2.9c0-1.3,0.3-2.2,0.9-2.9s1.5-1,2.6-1
		c0.4,0,0.7,0,1.1,0.1s0.7,0.2,0.9,0.3l-0.4,1c-0.6-0.2-1.2-0.4-1.6-0.4c-0.8,0-1.3,0.2-1.7,0.7c-0.4,0.5-0.5,1.2-0.5,2.1
		c0,0.9,0.2,1.6,0.5,2.1c0.4,0.5,0.9,0.7,1.6,0.7c0.7,0,1.3-0.1,1.9-0.4v1.1C74.3,142.8,73.7,142.9,72.9,142.9z"/>
	<path id="XMLID_261_" class="st6" d="M81.9,142.8l-2.8-7.5h1.3l1.6,4.4c0.3,0.9,0.5,1.6,0.6,2h0.1c0-0.1,0-0.1,0.1-0.2
		s0-0.2,0.1-0.2s0.2-0.6,0.5-1.5l1.6-4.4h1.3l-2.9,7.5H81.9z"/>
	<path id="XMLID_263_" class="st6" d="M88.7,133H88c-0.6-0.4-1-0.9-1.4-1.4v-0.1h1.2c0.3,0.5,0.5,1,0.9,1.4V133z M90.6,142.9
		c-1.1,0-2-0.3-2.6-1s-1-1.6-1-2.8c0-1.2,0.3-2.2,0.9-2.9c0.6-0.7,1.4-1.1,2.4-1.1c0.9,0,1.7,0.3,2.3,0.9s0.8,1.4,0.8,2.5v0.7h-5.1
		c0,0.9,0.2,1.5,0.6,1.9s1,0.7,1.7,0.7c0.4,0,0.8,0,1.1-0.1c0.4-0.1,0.8-0.2,1.3-0.4v1.1c-0.4,0.2-0.8,0.3-1.2,0.4
		C91.5,142.9,91.1,142.9,90.6,142.9z M92.4,134.3h-0.7c-0.4-0.3-0.9-0.7-1.4-1.1c-0.5,0.4-1,0.8-1.4,1.1h-0.7v-0.2l0.4-0.4
		c0.5-0.6,0.9-1,1.1-1.4H91c0.3,0.4,0.8,1,1.5,1.8V134.3z M90.3,136.1c-0.6,0-1.1,0.2-1.4,0.6s-0.5,0.9-0.6,1.6h3.8
		c0-0.7-0.2-1.2-0.5-1.6S90.8,136.1,90.3,136.1z"/>
	<path id="XMLID_268_" class="st6" d="M101.4,141.9c0.2,0,0.3,0,0.6,0c0.2,0,0.4-0.1,0.5-0.1v0.9c-0.1,0.1-0.3,0.1-0.5,0.1
		s-0.5,0.1-0.7,0.1c-1.5,0-2.2-0.8-2.2-2.3v-4.4H98v-0.6l1.1-0.5l0.5-1.6h0.7v1.7h2.2v1h-2.2v4.3c0,0.4,0.1,0.8,0.3,1
		S101.1,141.9,101.4,141.9z"/>
	<path id="XMLID_292_" class="st6" d="M103.9,133.2c0-0.3,0.1-0.5,0.2-0.6s0.3-0.2,0.5-0.2c0.2,0,0.4,0.1,0.5,0.2s0.2,0.3,0.2,0.6
		c0,0.3-0.1,0.5-0.2,0.6s-0.3,0.2-0.5,0.2c-0.2,0-0.4-0.1-0.5-0.2S103.9,133.5,103.9,133.2z M105.2,142.8H104v-7.5h1.2V142.8z"/>
	<path id="XMLID_295_" class="st6" d="M108.9,133h-0.7c-0.6-0.4-1-0.9-1.4-1.4v-0.1h1.2c0.3,0.5,0.5,1,0.9,1.4V133z M110.8,142.9
		c-1.1,0-2-0.3-2.6-1s-1-1.6-1-2.8c0-1.2,0.3-2.2,0.9-2.9c0.6-0.7,1.4-1.1,2.4-1.1c0.9,0,1.7,0.3,2.3,0.9s0.8,1.4,0.8,2.5v0.7h-5.1
		c0,0.9,0.2,1.5,0.6,1.9s1,0.7,1.7,0.7c0.4,0,0.8,0,1.1-0.1c0.4-0.1,0.8-0.2,1.3-0.4v1.1c-0.4,0.2-0.8,0.3-1.2,0.4
		C111.7,142.9,111.3,142.9,110.8,142.9z M112.6,134.3h-0.7c-0.4-0.3-0.9-0.7-1.4-1.1c-0.5,0.4-1,0.8-1.4,1.1h-0.7v-0.2l0.4-0.4
		c0.5-0.6,0.9-1,1.1-1.4h1.3c0.3,0.4,0.8,1,1.5,1.8V134.3z M110.5,136.1c-0.6,0-1.1,0.2-1.4,0.6s-0.5,0.9-0.6,1.6h3.8
		c0-0.7-0.2-1.2-0.5-1.6S111,136.1,110.5,136.1z"/>
	<path id="XMLID_300_" class="st6" d="M120.6,142.8V138c0-0.6-0.1-1.1-0.4-1.4s-0.7-0.4-1.3-0.4c-0.8,0-1.3,0.2-1.7,0.6
		s-0.5,1.1-0.5,2.1v3.9h-1.2v-7.5h1l0.2,1h0.1c0.2-0.4,0.6-0.7,1-0.9c0.4-0.2,0.9-0.3,1.4-0.3c0.9,0,1.6,0.2,2.1,0.7
		c0.4,0.4,0.7,1.1,0.7,2.1v4.9H120.6z"/>
	<path id="XMLID_302_" class="st6" d="M40.4,152c1,0,1.8,0.3,2.3,1c0.5,0.7,0.8,1.6,0.8,2.9c0,1.2-0.3,2.2-0.8,2.9s-1.3,1-2.3,1
		c-0.5,0-1-0.1-1.4-0.3s-0.7-0.5-1-0.8H38c-0.1,0.5-0.2,0.9-0.3,1h-0.9v-10.6h1.2v2.6c0,0.5,0,1-0.1,1.5h0.1
		C38.6,152.3,39.4,152,40.4,152z M40.2,153c-0.8,0-1.3,0.2-1.6,0.6s-0.5,1.2-0.5,2.2v0.1c0,1,0.2,1.8,0.5,2.2s0.9,0.7,1.6,0.7
		c0.7,0,1.2-0.2,1.5-0.7s0.5-1.2,0.5-2.1c0-0.9-0.2-1.7-0.5-2.1C41.4,153.2,40.9,153,40.2,153z"/>
	<path id="XMLID_305_" class="st6" d="M50.1,159.6l-0.2-1.1h-0.1c-0.4,0.5-0.7,0.8-1.1,1s-0.8,0.2-1.4,0.2c-0.7,0-1.3-0.2-1.7-0.6
		c-0.4-0.4-0.6-0.9-0.6-1.6c0-1.5,1.2-2.3,3.6-2.4l1.3,0v-0.4c0-0.6-0.1-1-0.4-1.3s-0.6-0.4-1.2-0.4c-0.4,0-0.8,0.1-1.1,0.2
		s-0.7,0.3-1,0.4l-0.4-0.9c0.4-0.2,0.8-0.4,1.2-0.5c0.4-0.1,0.9-0.2,1.3-0.2c0.9,0,1.6,0.2,2,0.6c0.4,0.4,0.7,1,0.7,1.9v5.1H50.1z
		 M47.6,158.7c0.7,0,1.2-0.2,1.6-0.6s0.6-0.9,0.6-1.6v-0.7l-1.1,0c-0.9,0-1.5,0.2-1.9,0.4s-0.6,0.6-0.6,1.1c0,0.4,0.1,0.7,0.4,0.9
		S47.2,158.7,47.6,158.7z M47.1,161.3c0-0.3,0.1-0.5,0.2-0.6s0.3-0.2,0.5-0.2c0.2,0,0.4,0.1,0.5,0.2s0.2,0.3,0.2,0.6
		c0,0.2-0.1,0.4-0.2,0.6S48,162,47.8,162c-0.2,0-0.4-0.1-0.5-0.2S47.1,161.5,47.1,161.3z"/>
	<path id="XMLID_309_" class="st6" d="M56.4,159.7c-1.1,0-1.9-0.3-2.5-1s-0.9-1.6-0.9-2.9c0-1.3,0.3-2.2,0.9-2.9s1.5-1,2.6-1
		c0.4,0,0.7,0,1.1,0.1s0.7,0.2,0.9,0.3l-0.4,1c-0.6-0.2-1.2-0.4-1.6-0.4c-0.8,0-1.3,0.2-1.7,0.7c-0.4,0.5-0.5,1.2-0.5,2.1
		c0,0.9,0.2,1.6,0.5,2.1c0.4,0.5,0.9,0.7,1.6,0.7c0.7,0,1.3-0.1,1.9-0.4v1.1C57.8,159.6,57.1,159.7,56.4,159.7z"/>
</g>
</svg>
