<?xml version="1.0" encoding="utf-8"?>
<!-- Generator: Adobe Illustrator 19.0.0, SVG Export Plug-In . SVG Version: 6.00 Build 0)  -->
<svg version="1.1" id="Layer_1" xmlns="http://www.w3.org/2000/svg" xmlns:xlink="http://www.w3.org/1999/xlink" x="0px" y="0px"
	 viewBox="0 0 165.8 167.8" style="enable-background:new 0 0 165.8 167.8;" xml:space="preserve">
<style type="text/css">
	.st0{fill:#A01C33;}
	.st1{fill:#FFFFFF;}
	.st2{fill:#CD202B;}
	.st3{fill:#C07A2A;}
	.st4{fill:#B89E7D;}
	.st5{fill:#211D1E;}
	.st6{fill:#0E0E0E;}
	.st7{fill:#404040;}
</style>
<rect id="XMLID_893_" x="16.6" y="0" class="st0" width="149.2" height="167"/>
<rect id="XMLID_891_" x="16.6" y="110.2" class="st1" width="149.2" height="57.6"/>
<g id="XMLID_883_">
	<circle id="XMLID_887_" class="st2" cx="31.2" cy="120.7" r="4"/>
	<path id="XMLID_886_" class="st2" d="M27.2,120.7h8.1v10.1C35.2,130.7,27.2,125.8,27.2,120.7z"/>
	<circle id="XMLID_885_" class="st2" cx="39.3" cy="120.5" r="4"/>
	<path id="XMLID_884_" class="st2" d="M43.3,120.5h-8.1v10.1C35.2,130.6,43.3,125.6,43.3,120.5z"/>
</g>
<g id="XMLID_866_">
	<path id="XMLID_882_" class="st3" d="M98.5,92.2L98.5,92.2c-6,0-11-4.9-11-11V56.3c0-6,4.9-11,11-11l0,0c6,0,11,4.9,11,11v24.9
		C109.4,87.3,104.5,92.2,98.5,92.2z"/>
	<path id="XMLID_881_" class="st4" d="M90.2,90.7L90.2,90.7c-5.7,0-10.4-4.7-10.4-10.4v0c0-5.7,4.7-10.4,10.4-10.4l0,0
		c5.7,0,10.4,4.7,10.4,10.4v0C100.5,86,95.9,90.7,90.2,90.7z"/>
	<path id="XMLID_880_" class="st3" d="M67.6,92.9L67.6,92.9c-2.9,0-5.3-2.4-5.3-5.3v-7.4c0-2.9,2.4-5.3,5.3-5.3l0,0
		c2.9,0,5.3,2.4,5.3,5.3v7.4C72.9,90.5,70.5,92.9,67.6,92.9z"/>
	<path id="XMLID_879_" class="st3" d="M97.6,92.8H68.3c-3.3,0-5.9-2.7-5.9-5.9l0,0c0-3.3,2.7-5.9,5.9-5.9h29.2
		c3.3,0,5.9,2.7,5.9,5.9l0,0C103.5,90.1,100.8,92.8,97.6,92.8z"/>
	<path id="XMLID_878_" class="st3" d="M117.5,82.2L117.5,82.2c-2.9,2-7,1.3-9-1.6L94.9,61.3c-2-2.9-1.3-7,1.6-9l0,0
		c2.9-2,7-1.3,9,1.6l13.6,19.3C121.1,76.1,120.4,80.1,117.5,82.2z"/>
	<rect id="XMLID_877_" x="87" y="59.2" class="st4" width="12.4" height="16.4"/>
	<rect id="XMLID_876_" x="92.3" y="60.8" class="st3" width="16.7" height="22.6"/>
	<circle id="XMLID_875_" class="st3" cx="98.8" cy="45.7" r="19.5"/>
	<circle id="XMLID_874_" class="st3" cx="83.4" cy="32.8" r="7.3"/>
	<circle id="XMLID_873_" class="st3" cx="116.3" cy="34.1" r="7.3"/>
	<circle id="XMLID_872_" class="st5" cx="109.1" cy="46.8" r="2.6"/>
	<circle id="XMLID_871_" class="st5" cx="89.6" cy="46.8" r="2.6"/>
	<g id="XMLID_867_">
		<polygon id="XMLID_870_" class="st5" points="97.5,48 99.3,50.8 101.3,48 		"/>
		<path id="XMLID_869_" class="st5" d="M99.4,50.1c0,1.5-1.2,2.7-2.7,2.7s-2.7-1.2-2.7-2.7"/>
		<path id="XMLID_868_" class="st5" d="M104.7,50.1c0,1.5-1.2,2.7-2.7,2.7c-1.5,0-2.7-1.2-2.7-2.7"/>
	</g>
</g>
<g id="XMLID_55_">
	<g id="XMLID_659_">
		<path id="XMLID_718_" class="st6" d="M61.5,127.7h-2.1v-8.2h-2.7v-1.8h7.5v1.8h-2.7V127.7z"/>
		<path id="XMLID_716_" class="st6" d="M72.6,127.7h-2.1v-4.5c0-1.1-0.4-1.7-1.2-1.7c-0.6,0-1,0.2-1.3,0.6s-0.4,1-0.4,1.9v3.6h-2.1
			V117h2.1v2.2c0,0.2,0,0.6,0,1.2l0,0.6h0.1c0.5-0.7,1.2-1.1,2.2-1.1c0.9,0,1.6,0.2,2,0.7s0.7,1.2,0.7,2.1V127.7z"/>
		<path id="XMLID_713_" class="st6" d="M80.2,127.7l-0.3-1h-0.1c-0.2,0.4-0.5,0.6-1,0.8s-0.9,0.3-1.4,0.3c-0.9,0-1.6-0.2-2-0.7
			c-0.5-0.5-0.7-1.2-0.7-2.1v-5h2.1v4.5c0,0.6,0.1,1,0.3,1.2c0.2,0.3,0.5,0.4,0.9,0.4c0.6,0,1-0.2,1.3-0.6s0.4-1,0.4-1.9V120h2.1
			v7.6H80.2z M77.1,119.2V119c0.8-0.9,1.3-1.6,1.6-2.1H81v0.1c-0.2,0.2-0.6,0.6-1.2,1.1s-1,0.8-1.3,1H77.1z"/>
		<path id="XMLID_710_" class="st6" d="M91.9,119.9c0.9,0,1.6,0.4,2.1,1.1c0.5,0.7,0.8,1.7,0.8,2.9c0,1.3-0.3,2.2-0.8,2.9
			s-1.2,1-2.1,1c-0.9,0-1.6-0.3-2.1-1h-0.1l-0.3,0.8h-1.6V117h2.1v2.5c0,0.3,0,0.8-0.1,1.5h0.1C90.2,120.3,90.9,119.9,91.9,119.9z
			 M91.2,121.6c-0.5,0-0.9,0.2-1.1,0.5c-0.2,0.3-0.4,0.8-0.4,1.6v0.2c0,0.8,0.1,1.4,0.4,1.8s0.6,0.5,1.2,0.5c0.4,0,0.8-0.2,1-0.6
			s0.4-1,0.4-1.7s-0.1-1.3-0.4-1.7C92,121.8,91.6,121.6,91.2,121.6z"/>
		<path id="XMLID_706_" class="st6" d="M103.4,123.9c0,1.2-0.3,2.2-1,2.9s-1.6,1.1-2.7,1.1c-0.7,0-1.4-0.2-1.9-0.5s-1-0.8-1.3-1.4
			s-0.5-1.3-0.5-2.1c0-1.2,0.3-2.2,1-2.9c0.7-0.7,1.6-1,2.7-1c0.7,0,1.4,0.2,1.9,0.5s1,0.8,1.3,1.4S103.4,123,103.4,123.9z
			 M101.3,119.2c-0.7-0.4-1.2-0.8-1.6-1.2c-0.4,0.4-0.9,0.8-1.6,1.2h-1.4V119c0.9-0.9,1.4-1.5,1.8-2.1h2.4c0.1,0.2,0.4,0.6,0.7,1
			s0.7,0.8,1,1.1v0.2H101.3z M98.1,123.9c0,0.8,0.1,1.3,0.4,1.7s0.7,0.6,1.2,0.6c0.6,0,1-0.2,1.2-0.6s0.4-1,0.4-1.7
			c0-0.8-0.1-1.3-0.4-1.7s-0.6-0.6-1.2-0.6c-0.6,0-1,0.2-1.2,0.6S98.1,123.1,98.1,123.9z"/>
		<path id="XMLID_704_" class="st6" d="M112.2,127.7h-2.1v-4.5c0-0.6-0.1-1-0.3-1.2c-0.2-0.3-0.5-0.4-0.9-0.4c-0.6,0-1,0.2-1.3,0.6
			s-0.4,1-0.4,1.9v3.6h-2.1V120h1.6l0.3,1h0.1c0.2-0.4,0.6-0.6,1-0.8s0.9-0.3,1.4-0.3c0.9,0,1.6,0.2,2,0.7c0.5,0.5,0.7,1.2,0.7,2.1
			V127.7z"/>
		<path id="XMLID_701_" class="st6" d="M121,127.7c0,1.1-0.3,1.9-1,2.5s-1.6,0.9-2.9,0.9c-1.1,0-2.1-0.2-2.9-0.5v-1.7
			c0.9,0.4,1.9,0.6,3,0.6c1.1,0,1.6-0.6,1.6-1.7v-0.2l0.1-0.9h-0.1c-0.5,0.8-1.2,1.1-2.2,1.1c-0.9,0-1.6-0.4-2.1-1.1
			s-0.8-1.7-0.8-2.9c0-1.3,0.3-2.2,0.8-2.9s1.2-1,2.2-1c0.9,0,1.7,0.4,2.2,1.1h0.1l0.2-1h1.8V127.7z M117.5,126.2
			c0.6,0,1-0.2,1.2-0.5c0.2-0.3,0.4-0.8,0.4-1.6v-0.3c0-0.8-0.1-1.4-0.4-1.8s-0.7-0.5-1.2-0.5c-1,0-1.5,0.8-1.5,2.3
			c0,0.8,0.1,1.3,0.4,1.7S117,126.2,117.5,126.2z"/>
		<path id="XMLID_697_" class="st7" d="M57.7,134.5h2.9c1.3,0,2.3,0.2,2.9,0.6s0.9,1,0.9,1.9c0,0.6-0.2,1.1-0.5,1.5
			c-0.3,0.4-0.8,0.6-1.4,0.7v0.1c0.8,0.1,1.3,0.4,1.7,0.8s0.5,0.9,0.5,1.6c0,0.9-0.3,1.6-0.9,2.1c-0.6,0.5-1.5,0.8-2.6,0.8h-3.5
			V134.5z M59,138.7h1.8c0.8,0,1.4-0.1,1.7-0.4s0.5-0.7,0.5-1.3c0-0.5-0.2-0.9-0.6-1.2s-1-0.4-1.8-0.4H59V138.7z M59,139.8v3.6h2
			c0.8,0,1.4-0.2,1.8-0.5c0.4-0.3,0.6-0.8,0.6-1.4c0-0.6-0.2-1-0.6-1.3s-1-0.4-1.8-0.4H59z"/>
		<path id="XMLID_693_" class="st7" d="M71.3,144.5l-0.2-1.1H71c-0.4,0.5-0.7,0.8-1.1,1s-0.8,0.2-1.4,0.2c-0.7,0-1.3-0.2-1.7-0.6
			c-0.4-0.4-0.6-0.9-0.6-1.6c0-1.5,1.2-2.3,3.6-2.4l1.3,0v-0.4c0-0.6-0.1-1-0.4-1.3s-0.6-0.4-1.2-0.4c-0.4,0-0.8,0.1-1.1,0.2
			s-0.7,0.3-1,0.4l-0.4-0.9c0.4-0.2,0.8-0.4,1.2-0.5c0.4-0.1,0.9-0.2,1.3-0.2c0.9,0,1.6,0.2,2,0.6c0.4,0.4,0.7,1,0.7,1.9v5.1H71.3z
			 M68.7,143.6c0.7,0,1.2-0.2,1.6-0.6s0.6-0.9,0.6-1.6v-0.7l-1.1,0c-0.9,0-1.5,0.2-1.9,0.4s-0.6,0.6-0.6,1.1c0,0.4,0.1,0.7,0.4,0.9
			S68.3,143.6,68.7,143.6z M68.2,146.2c0-0.3,0.1-0.5,0.2-0.6s0.3-0.2,0.5-0.2c0.2,0,0.4,0.1,0.5,0.2s0.2,0.3,0.2,0.6
			c0,0.2-0.1,0.4-0.2,0.6s-0.3,0.2-0.5,0.2c-0.2,0-0.4-0.1-0.5-0.2S68.2,146.4,68.2,146.2z"/>
		<path id="XMLID_691_" class="st7" d="M79.6,144.5v-4.8c0-0.6-0.1-1.1-0.4-1.4s-0.7-0.4-1.3-0.4c-0.8,0-1.3,0.2-1.7,0.6
			s-0.5,1.1-0.5,2.1v3.9h-1.2V137h1l0.2,1h0.1c0.2-0.4,0.6-0.7,1-0.9c0.4-0.2,0.9-0.3,1.4-0.3c0.9,0,1.6,0.2,2.1,0.7
			c0.4,0.4,0.7,1.1,0.7,2.1v4.9H79.6z"/>
		<path id="XMLID_689_" class="st7" d="M89.3,143.6c0.2,0,0.3,0,0.6,0c0.2,0,0.4-0.1,0.5-0.1v0.9c-0.1,0.1-0.3,0.1-0.5,0.1
			s-0.5,0.1-0.7,0.1c-1.5,0-2.2-0.8-2.2-2.3v-4.4h-1.1v-0.6l1.1-0.5l0.5-1.6h0.7v1.7h2.2v1h-2.2v4.3c0,0.4,0.1,0.8,0.3,1
			S88.9,143.6,89.3,143.6z"/>
		<path id="XMLID_687_" class="st7" d="M97,144.5v-4.8c0-0.6-0.1-1.1-0.4-1.4s-0.7-0.4-1.3-0.4c-0.8,0-1.3,0.2-1.7,0.6
			s-0.5,1.1-0.5,2.1v3.9h-1.2v-10.6h1.2v3.1c0,0.4,0,0.8-0.1,1.1h0.1c0.2-0.4,0.5-0.6,1-0.9s0.9-0.3,1.4-0.3c0.9,0,1.6,0.2,2.1,0.7
			c0.5,0.4,0.7,1.1,0.7,2.1v4.9H97z"/>
		<path id="XMLID_682_" class="st7" d="M105.1,144.5l-0.2-1.1h-0.1c-0.4,0.5-0.7,0.8-1.1,1s-0.8,0.2-1.4,0.2c-0.7,0-1.3-0.2-1.7-0.6
			c-0.4-0.4-0.6-0.9-0.6-1.6c0-1.5,1.2-2.3,3.6-2.4l1.3,0v-0.4c0-0.6-0.1-1-0.4-1.3s-0.6-0.4-1.2-0.4c-0.4,0-0.8,0.1-1.1,0.2
			s-0.7,0.3-1,0.4l-0.4-0.9c0.4-0.2,0.8-0.4,1.2-0.5c0.4-0.1,0.9-0.2,1.3-0.2c0.9,0,1.6,0.2,2,0.6c0.4,0.4,0.7,1,0.7,1.9v5.1H105.1z
			 M100.8,135.8c0.6-0.6,1-1.1,1.2-1.4s0.4-0.5,0.5-0.7h1.3c0.2,0.5,0.8,1.2,1.8,2.1v0.2h-0.9c-0.4-0.2-0.9-0.7-1.5-1.3
			c-0.6,0.6-1.1,1-1.5,1.3h-0.8V135.8z M102.6,143.6c0.7,0,1.2-0.2,1.6-0.6s0.6-0.9,0.6-1.6v-0.7l-1.1,0c-0.9,0-1.5,0.2-1.9,0.4
			s-0.6,0.6-0.6,1.1c0,0.4,0.1,0.7,0.4,0.9S102.2,143.6,102.6,143.6z M102.3,146.2c0-0.3,0.1-0.5,0.2-0.6s0.3-0.2,0.5-0.2
			c0.2,0,0.4,0.1,0.5,0.2s0.2,0.3,0.2,0.6c0,0.2-0.1,0.4-0.2,0.6s-0.3,0.2-0.5,0.2c-0.2,0-0.4-0.1-0.5-0.2S102.3,146.4,102.3,146.2z
			"/>
		<path id="XMLID_680_" class="st7" d="M110.9,143.6c0.2,0,0.3,0,0.6,0c0.2,0,0.4-0.1,0.5-0.1v0.9c-0.1,0.1-0.3,0.1-0.5,0.1
			s-0.5,0.1-0.7,0.1c-1.5,0-2.2-0.8-2.2-2.3v-4.4h-1.1v-0.6l1.1-0.5l0.5-1.6h0.7v1.7h2.2v1h-2.2v4.3c0,0.4,0.1,0.8,0.3,1
			S110.5,143.6,110.9,143.6z"/>
		<path id="XMLID_677_" class="st7" d="M119.7,144.6c-1,0-1.7-0.3-2.3-1c-0.5-0.7-0.8-1.6-0.8-2.8c0-1.2,0.3-2.2,0.8-2.9
			s1.3-1,2.3-1c1,0,1.8,0.4,2.3,1.1h0.1c0-0.1,0-0.2-0.1-0.5c0-0.3,0-0.5,0-0.6V136h-3v-0.9h3v-1.2h1.2v1.2h1.1v0.9h-1.1v8.5h-1
			l-0.2-1H122C121.5,144.2,120.7,144.6,119.7,144.6z M119.9,143.6c0.7,0,1.3-0.2,1.6-0.6s0.5-1.1,0.5-2v-0.2c0-1-0.2-1.8-0.5-2.2
			c-0.3-0.4-0.9-0.6-1.6-0.6c-0.6,0-1.1,0.2-1.5,0.7s-0.5,1.2-0.5,2.2c0,0.9,0.2,1.6,0.5,2.1S119.2,143.6,119.9,143.6z"/>
		<path id="XMLID_673_" class="st7" d="M130.3,144.5l-0.2-1.1H130c-0.4,0.5-0.7,0.8-1.1,1s-0.8,0.2-1.4,0.2c-0.7,0-1.3-0.2-1.7-0.6
			c-0.4-0.4-0.6-0.9-0.6-1.6c0-1.5,1.2-2.3,3.6-2.4l1.3,0v-0.4c0-0.6-0.1-1-0.4-1.3s-0.6-0.4-1.2-0.4c-0.4,0-0.8,0.1-1.1,0.2
			s-0.7,0.3-1,0.4l-0.4-0.9c0.4-0.2,0.8-0.4,1.2-0.5c0.4-0.1,0.9-0.2,1.3-0.2c0.9,0,1.6,0.2,2,0.6c0.4,0.4,0.7,1,0.7,1.9v5.1H130.3z
			 M127.8,143.6c0.7,0,1.2-0.2,1.6-0.6s0.6-0.9,0.6-1.6v-0.7l-1.1,0c-0.9,0-1.5,0.2-1.9,0.4s-0.6,0.6-0.6,1.1c0,0.4,0.1,0.7,0.4,0.9
			S127.4,143.6,127.8,143.6z M127.5,135.8c0.2-0.2,0.4-0.5,0.7-0.9c0.3-0.4,0.5-0.8,0.7-1.1h1.5v0.1c-0.2,0.3-0.5,0.7-0.9,1.1
			s-0.8,0.8-1.1,1h-0.8V135.8z"/>
		<path id="XMLID_671_" class="st7" d="M138.7,144.5v-4.8c0-0.6-0.1-1.1-0.4-1.4s-0.7-0.4-1.3-0.4c-0.8,0-1.3,0.2-1.7,0.6
			s-0.5,1.1-0.5,2.1v3.9h-1.2V137h1l0.2,1h0.1c0.2-0.4,0.6-0.7,1-0.9c0.4-0.2,0.9-0.3,1.4-0.3c0.9,0,1.6,0.2,2.1,0.7
			c0.4,0.4,0.7,1.1,0.7,2.1v4.9H138.7z"/>
		<path id="XMLID_668_" class="st7" d="M147.2,144.4l0-0.9h-0.1c-0.5,0.8-1.3,1.1-2.3,1.1c-1,0-1.7-0.3-2.3-1s-0.8-1.6-0.8-2.9
			c0-1.2,0.3-2.2,0.8-2.9s1.3-1,2.3-1c1,0,1.8,0.4,2.4,1.1h0.1l0.2-1h1v7.6c0,1.1-0.3,1.9-0.8,2.4s-1.4,0.8-2.5,0.8
			c-1.1,0-2-0.2-2.7-0.5v-1.1c0.7,0.4,1.7,0.6,2.8,0.6c0.6,0,1.1-0.2,1.5-0.6s0.6-0.9,0.6-1.6V144.4z M145.1,143.6
			c0.8,0,1.3-0.2,1.7-0.6s0.5-1.1,0.5-2v-0.3c0-1-0.2-1.7-0.5-2.2c-0.3-0.5-0.9-0.7-1.7-0.7c-0.6,0-1.1,0.2-1.5,0.7
			s-0.5,1.2-0.5,2.1c0,0.9,0.2,1.6,0.5,2.1S144.4,143.6,145.1,143.6z"/>
		<path id="XMLID_666_" class="st7" d="M56.4,153.8h1.3l1.6,4.3c0.3,0.9,0.6,1.6,0.6,2H60c0-0.2,0.1-0.5,0.3-0.9
			c0.1-0.5,0.3-0.8,0.4-1.1l1.5-4.3h1.3l-3.2,8.5c-0.3,0.8-0.7,1.4-1.1,1.8c-0.4,0.4-1,0.5-1.6,0.5c-0.3,0-0.7,0-1-0.1v-1
			c0.2,0.1,0.5,0.1,0.8,0.1c0.4,0,0.7-0.1,1-0.3s0.5-0.6,0.7-1l0.4-1L56.4,153.8z"/>
		<path id="XMLID_662_" class="st7" d="M67.9,161.4c-1.1,0-2-0.3-2.6-1s-1-1.6-1-2.8c0-1.2,0.3-2.2,0.9-2.9c0.6-0.7,1.4-1.1,2.4-1.1
			c0.9,0,1.7,0.3,2.3,0.9s0.8,1.4,0.8,2.5v0.7h-5.1c0,0.9,0.2,1.5,0.6,1.9s1,0.7,1.7,0.7c0.4,0,0.8,0,1.1-0.1
			c0.4-0.1,0.8-0.2,1.3-0.4v1.1c-0.4,0.2-0.8,0.3-1.2,0.4C68.8,161.4,68.4,161.4,67.9,161.4z M65.2,152.6c0.6-0.6,1-1.1,1.2-1.4
			s0.4-0.5,0.5-0.7h1.3c0.2,0.5,0.8,1.2,1.8,2.1v0.2h-0.9c-0.4-0.2-0.9-0.7-1.5-1.3c-0.6,0.6-1.1,1-1.5,1.3h-0.8V152.6z M67.6,154.6
			c-0.6,0-1.1,0.2-1.4,0.6s-0.5,0.9-0.6,1.6h3.8c0-0.7-0.2-1.2-0.5-1.6S68.1,154.6,67.6,154.6z"/>
		<path id="XMLID_660_" class="st7" d="M73.7,153.8v4.8c0,0.6,0.1,1.1,0.4,1.4s0.7,0.4,1.3,0.4c0.8,0,1.3-0.2,1.7-0.6
			c0.4-0.4,0.5-1.1,0.5-2.1v-3.9h1.2v7.5h-1l-0.2-1h-0.1c-0.2,0.4-0.5,0.6-1,0.8s-0.9,0.3-1.4,0.3c-0.9,0-1.6-0.2-2-0.6
			s-0.7-1.1-0.7-2.1v-4.9H73.7z"/>
	</g>
</g>
<polygon id="XMLID_892_" class="st1" points="19.2,167.7 19.2,148.6 0,167.8 "/>
</svg>
