<?xml version="1.0" encoding="utf-8"?>
<!-- Generator: Adobe Illustrator 19.0.0, SVG Export Plug-In . SVG Version: 6.00 Build 0)  -->
<svg version="1.1" id="Layer_1" xmlns="http://www.w3.org/2000/svg" xmlns:xlink="http://www.w3.org/1999/xlink" x="0px" y="0px"
	 viewBox="0 0 168.4 167.1" style="enable-background:new 0 0 168.4 167.1;" xml:space="preserve">
<style type="text/css">
	.st0{fill:#E5E5E3;}
	.st1{fill:#FFFFFF;}
	.st2{fill:#15B27E;}
	.st3{fill:#EE245D;}
	.st4{fill:#CD202B;}
	.st5{fill:#404040;}
</style>
<rect id="XMLID_1333_" x="0" y="0" class="st0" width="151.3" height="167"/>
<rect id="XMLID_1343_" x="0" y="72.2" class="st1" width="151.4" height="95"/>
<g id="XMLID_1334_">
	<g id="XMLID_3915_">
		<rect id="XMLID_1335_" x="33.8" y="27" class="st2" width="35.4" height="6.4"/>
		<rect id="XMLID_1336_" x="36.3" y="33.5" class="st2" width="30.5" height="24.6"/>
		<path id="XMLID_1337_" class="st2" d="M44.5,26L44.5,26c-1.7,0-3.1-1.4-3.1-3.1v-2.4c0-1.7,1.4-3.1,3.1-3.1l0,0
			c1.7,0,3.1,1.4,3.1,3.1v2.4C47.6,24.6,46.2,26,44.5,26z"/>
		<path id="XMLID_3916_" class="st2" d="M44.5,27c0,0-3.1-1-3.1-3.6h6.1c0,0-0.2,2.8,1.9,3.6H44.5z"/>
		<path id="XMLID_1338_" class="st2" d="M57.3,26.4L57.3,26.4c1.7,0,3.1-1.4,3.1-3.1v-2.4c0-1.7-1.4-3.1-3.1-3.1l0,0
			c-1.7,0-3.1,1.4-3.1,3.1v2.4C54.3,25,55.6,26.4,57.3,26.4z"/>
		<path id="XMLID_1339_" class="st2" d="M57.3,27c0,0,3.1-1,3.1-3.6h-6.1c0,0,0.2,2.8-1.9,3.6H57.3z"/>
		<rect id="XMLID_1340_" x="36.3" y="33.5" class="st2" width="29" height="2.2"/>
		<rect id="XMLID_1341_" x="48.6" y="27" class="st2" width="5.8" height="31.1"/>
	</g>
	<g id="XMLID_3917_">
		<rect id="XMLID_1344_" x="78.4" y="27" class="st3" width="35.4" height="6.4"/>
		<rect id="XMLID_1345_" x="80.8" y="33.5" class="st3" width="30.5" height="24.6"/>
		<path id="XMLID_1346_" class="st3" d="M89,26L89,26c-1.7,0-3.1-1.4-3.1-3.1v-2.4c0-1.7,1.4-3.1,3.1-3.1l0,0c1.7,0,3.1,1.4,3.1,3.1
			v2.4C92.1,24.6,90.7,26,89,26z"/>
		<path id="XMLID_3918_" class="st3" d="M89,27c0,0-3.1-1-3.1-3.6h6.1c0,0-0.2,2.8,1.9,3.6H89z"/>
		<path id="XMLID_1347_" class="st3" d="M101.9,26.4L101.9,26.4c1.7,0,3.1-1.4,3.1-3.1v-2.4c0-1.7-1.4-3.1-3.1-3.1l0,0
			c-1.7,0-3.1,1.4-3.1,3.1v2.4C98.8,25,100.2,26.4,101.9,26.4z"/>
		<path id="XMLID_1348_" class="st3" d="M101.9,27c0,0,3.1-1,3.1-3.6h-6.1c0,0,0.2,2.8-1.9,3.6H101.9z"/>
		<rect id="XMLID_1349_" x="80.8" y="33.5" class="st3" width="29" height="2.2"/>
		<rect id="XMLID_1350_" x="93.1" y="27" class="st3" width="5.8" height="31.1"/>
	</g>
</g>
<g id="XMLID_3946_">
	<circle id="XMLID_3947_" class="st4" cx="11.3" cy="91.3" r="4"/>
	<path id="XMLID_3948_" class="st4" d="M7.2,91.3h8.1v10.1C15.3,101.4,7.2,96.5,7.2,91.3z"/>
	<circle id="XMLID_1351_" class="st4" cx="19.3" cy="91.2" r="4"/>
	<path id="XMLID_1352_" class="st4" d="M23.4,91.2h-8.1v10.1C15.3,101.2,23.4,96.3,23.4,91.2z"/>
</g>
<g id="XMLID_162_">
	<path id="XMLID_163_" class="st5" d="M34.7,91.8h4v5.2c-0.6,0.2-1.2,0.4-1.8,0.4s-1.1,0.1-1.7,0.1c-1.5,0-2.7-0.4-3.5-1.3
		c-0.8-0.9-1.2-2.2-1.2-3.8c0-1.6,0.5-2.9,1.4-3.8c0.9-0.9,2.2-1.4,3.8-1.4c1,0,2,0.2,3,0.6L38,89.5c-0.7-0.4-1.5-0.5-2.3-0.5
		c-0.9,0-1.6,0.3-2.2,0.9s-0.8,1.4-0.8,2.5c0,1.1,0.2,1.9,0.7,2.5s1.1,0.9,1.9,0.9c0.4,0,0.9,0,1.3-0.1v-2.1h-1.9V91.8z"/>
	<path id="XMLID_165_" class="st5" d="M47.8,93.5c0,1.2-0.3,2.2-1,2.9s-1.6,1.1-2.7,1.1c-0.7,0-1.4-0.2-1.9-0.5s-1-0.8-1.3-1.4
		s-0.5-1.3-0.5-2.1c0-1.2,0.3-2.2,1-2.9s1.6-1,2.7-1c0.7,0,1.4,0.2,1.9,0.5s1,0.8,1.3,1.4S47.8,92.7,47.8,93.5z M42.6,93.5
		c0,0.8,0.1,1.3,0.4,1.7c0.2,0.4,0.7,0.6,1.2,0.6c0.6,0,1-0.2,1.2-0.6c0.2-0.4,0.4-1,0.4-1.7c0-0.8-0.1-1.3-0.4-1.7
		s-0.6-0.6-1.2-0.6c-0.6,0-1,0.2-1.2,0.6S42.6,92.8,42.6,93.5z M43,88.9v-0.2c0.8-0.9,1.3-1.6,1.6-2.1h2.3v0.1
		c-0.2,0.2-0.6,0.6-1.2,1.1c-0.6,0.5-1,0.8-1.3,1H43z"/>
	<path id="XMLID_169_" class="st5" d="M49.5,87.7c0-0.7,0.4-1,1.1-1s1.1,0.3,1.1,1c0,0.3-0.1,0.6-0.3,0.8c-0.2,0.2-0.5,0.3-0.9,0.3
		C49.9,88.8,49.5,88.4,49.5,87.7z M51.7,97.4h-2.1v-7.6h2.1V97.4z"/>
	<path id="XMLID_172_" class="st5" d="M59.9,97.5c-0.9,0-1.6-0.3-2.1-1S57,94.8,57,93.6c0-1.2,0.3-2.2,0.8-2.9
		c0.5-0.7,1.2-1.1,2.1-1.1c0.5,0,0.9,0.1,1.3,0.3s0.7,0.5,1,0.8h0.1l0.2-1h1.8v11h-2.1v-3.2c0-0.3,0-0.7,0.1-1.1h-0.1
		c-0.2,0.4-0.5,0.6-0.9,0.8S60.4,97.5,59.9,97.5z M60.6,95.9c0.5,0,0.9-0.2,1.2-0.5s0.4-0.8,0.4-1.6v-0.3c0-0.8-0.1-1.4-0.4-1.8
		s-0.7-0.5-1.2-0.5c-1,0-1.5,0.8-1.5,2.3c0,0.8,0.1,1.3,0.4,1.7C59.8,95.7,60.1,95.9,60.6,95.9z"/>
	<path id="XMLID_175_" class="st5" d="M71.8,97.4l-0.3-1h-0.1c-0.2,0.4-0.5,0.6-1,0.8s-0.9,0.3-1.4,0.3c-0.9,0-1.6-0.2-2-0.7
		s-0.7-1.2-0.7-2.1v-5h2.1v4.5c0,0.6,0.1,1,0.3,1.2s0.5,0.4,0.9,0.4c0.6,0,1-0.2,1.3-0.6s0.4-1,0.4-1.9v-3.6h2.1v7.6H71.8z"/>
	<path id="XMLID_177_" class="st5" d="M80.4,97.4l-0.4-1h-0.1c-0.4,0.4-0.7,0.7-1.1,0.9c-0.4,0.2-0.9,0.3-1.5,0.3
		c-0.7,0-1.3-0.2-1.7-0.6c-0.4-0.4-0.6-1-0.6-1.8c0-0.8,0.3-1.4,0.9-1.8s1.4-0.6,2.6-0.6l1.3,0v-0.3c0-0.8-0.4-1.2-1.2-1.2
		c-0.6,0-1.3,0.2-2.2,0.6l-0.7-1.4c0.9-0.5,1.9-0.7,2.9-0.7c1,0,1.8,0.2,2.4,0.7s0.8,1.1,0.8,2v5.1H80.4z M78.6,88.9
		c-0.3-0.2-0.7-0.5-1.3-1s-1-0.8-1.3-1.1v-0.1h2.3c0.3,0.5,0.8,1.1,1.6,2.1v0.2H78.6z M79.8,93.8l-0.8,0c-0.6,0-1.1,0.1-1.4,0.3
		s-0.4,0.5-0.4,0.9c0,0.6,0.3,0.9,1,0.9c0.5,0,0.9-0.1,1.2-0.4c0.3-0.3,0.4-0.6,0.4-1.1V93.8z"/>
	<path id="XMLID_181_" class="st5" d="M94.5,97.4h-2.1v-4.5c0-0.6-0.1-1-0.3-1.2s-0.5-0.4-0.9-0.4c-0.5,0-0.9,0.2-1.2,0.6
		s-0.4,1-0.4,1.9v3.6h-2.1v-7.6h1.6l0.3,1h0.1c0.2-0.4,0.5-0.6,0.9-0.8s0.8-0.3,1.3-0.3c1.1,0,1.9,0.4,2.3,1.1h0.2
		c0.2-0.4,0.5-0.6,0.9-0.8c0.4-0.2,0.8-0.3,1.4-0.3c0.9,0,1.5,0.2,2,0.7s0.7,1.2,0.7,2.1v5h-2.1v-4.5c0-0.6-0.1-1-0.3-1.2
		s-0.5-0.4-0.9-0.4c-0.5,0-0.9,0.2-1.1,0.5s-0.4,0.9-0.4,1.7V97.4z"/>
	<path id="XMLID_183_" class="st5" d="M106.2,97.4l-0.4-1h-0.1c-0.4,0.4-0.7,0.7-1.1,0.9c-0.4,0.2-0.9,0.3-1.5,0.3
		c-0.7,0-1.3-0.2-1.7-0.6c-0.4-0.4-0.6-1-0.6-1.8c0-0.8,0.3-1.4,0.9-1.8s1.4-0.6,2.6-0.6l1.3,0v-0.3c0-0.8-0.4-1.2-1.2-1.2
		c-0.6,0-1.3,0.2-2.2,0.6l-0.7-1.4c0.9-0.5,1.9-0.7,2.9-0.7c1,0,1.8,0.2,2.4,0.7s0.8,1.1,0.8,2v5.1H106.2z M104.5,88.9
		c-0.3-0.2-0.7-0.5-1.3-1s-1-0.8-1.3-1.1v-0.1h2.3c0.3,0.5,0.8,1.1,1.6,2.1v0.2H104.5z M105.6,93.8l-0.8,0c-0.6,0-1.1,0.1-1.4,0.3
		s-0.4,0.5-0.4,0.9c0,0.6,0.3,0.9,1,0.9c0.5,0,0.9-0.1,1.2-0.4c0.3-0.3,0.4-0.6,0.4-1.1V93.8z"/>
	<path id="XMLID_187_" class="st5" d="M115.3,97.4l-0.3-1h-0.1c-0.2,0.4-0.5,0.6-1,0.8s-0.9,0.3-1.4,0.3c-0.9,0-1.6-0.2-2-0.7
		s-0.7-1.2-0.7-2.1v-5h2.1v4.5c0,0.6,0.1,1,0.3,1.2s0.5,0.4,0.9,0.4c0.6,0,1-0.2,1.3-0.6s0.4-1,0.4-1.9v-3.6h2.1v7.6H115.3z"/>
	<path id="XMLID_189_" class="st5" d="M32.3,110.3l-2.5-3.7h2.4l1.5,2.4l1.5-2.4h2.4l-2.5,3.7l2.6,3.9h-2.4l-1.6-2.6l-1.6,2.6h-2.4
		L32.3,110.3z"/>
	<path id="XMLID_191_" class="st5" d="M43.7,114.2l-0.4-1h-0.1c-0.4,0.4-0.7,0.7-1.1,0.9c-0.4,0.2-0.9,0.3-1.5,0.3
		c-0.7,0-1.3-0.2-1.7-0.6c-0.4-0.4-0.6-1-0.6-1.8c0-0.8,0.3-1.4,0.9-1.8s1.4-0.6,2.6-0.6l1.3,0v-0.3c0-0.8-0.4-1.2-1.2-1.2
		c-0.6,0-1.3,0.2-2.2,0.6l-0.7-1.4c0.9-0.5,1.9-0.7,2.9-0.7c1,0,1.8,0.2,2.4,0.7s0.8,1.1,0.8,2v5.1H43.7z M43.1,110.6l-0.8,0
		c-0.6,0-1.1,0.1-1.4,0.3s-0.4,0.5-0.4,0.9c0,0.6,0.3,0.9,1,0.9c0.5,0,0.9-0.1,1.2-0.4c0.3-0.3,0.4-0.6,0.4-1.1V110.6z"/>
	<path id="XMLID_194_" class="st5" d="M54.4,114.2h-2.1v-4.5c0-0.6-0.1-1-0.3-1.2s-0.5-0.4-0.9-0.4c-0.6,0-1,0.2-1.3,0.6
		s-0.4,1-0.4,1.9v3.6h-2.1v-7.6h1.6l0.3,1h0.1c0.2-0.4,0.6-0.6,1-0.8c0.4-0.2,0.9-0.3,1.4-0.3c0.9,0,1.6,0.2,2,0.7s0.7,1.2,0.7,2.1
		V114.2z"/>
	<path id="XMLID_196_" class="st5" d="M63.6,114.2h-2.1v-4.5c0-1.1-0.4-1.7-1.2-1.7c-0.6,0-1,0.2-1.3,0.6s-0.4,1-0.4,1.9v3.6h-2.1
		v-10.6h2.1v2.2c0,0.2,0,0.6,0,1.2l0,0.6h0.1c0.5-0.7,1.2-1.1,2.2-1.1c0.9,0,1.6,0.2,2,0.7s0.7,1.2,0.7,2.1V114.2z"/>
	<path id="XMLID_198_" class="st5" d="M71.4,114.2h-2.1v-10.6h2.1V114.2z"/>
	<path id="XMLID_200_" class="st5" d="M78.5,114.2l-0.4-1H78c-0.4,0.4-0.7,0.7-1.1,0.9c-0.4,0.2-0.9,0.3-1.5,0.3
		c-0.7,0-1.3-0.2-1.7-0.6c-0.4-0.4-0.6-1-0.6-1.8c0-0.8,0.3-1.4,0.9-1.8s1.4-0.6,2.6-0.6l1.3,0v-0.3c0-0.8-0.4-1.2-1.2-1.2
		c-0.6,0-1.3,0.2-2.2,0.6l-0.7-1.4c0.9-0.5,1.9-0.7,2.9-0.7c1,0,1.8,0.2,2.4,0.7s0.8,1.1,0.8,2v5.1H78.5z M77.9,110.6l-0.8,0
		c-0.6,0-1.1,0.1-1.4,0.3s-0.4,0.5-0.4,0.9c0,0.6,0.3,0.9,1,0.9c0.5,0,0.9-0.1,1.2-0.4c0.3-0.3,0.4-0.6,0.4-1.1V110.6z M75.5,105.7
		v-0.2c0.8-0.9,1.3-1.6,1.6-2.1h2.3v0.1c-0.2,0.2-0.6,0.6-1.2,1.1c-0.6,0.5-1,0.8-1.3,1H75.5z"/>
	<path id="XMLID_228_" class="st5" d="M84.1,112.7c-0.2,0.9-0.6,2-1.2,3.3h-1.5c0.3-1.2,0.5-2.4,0.7-3.4H84L84.1,112.7z"/>
	<path id="XMLID_230_" class="st5" d="M92.1,114.3c-0.9,0-1.6-0.3-2.1-1s-0.8-1.6-0.8-2.7c0-1.2,0.3-2.1,0.8-2.8s1.2-1,2.2-1
		c1,0,1.7,0.4,2.2,1.1h0.1c-0.1-0.6-0.2-1.1-0.2-1.6V106h-2.2v-1.4h2.2v-1.1h2.1v1.1h1.1v1.4h-1.1v8.2h-1.6l-0.4-1h-0.1
		C93.8,113.9,93.1,114.3,92.1,114.3z M92.9,112.6c0.5,0,0.9-0.1,1.2-0.4s0.4-0.8,0.4-1.4v-0.2c0-0.7-0.1-1.3-0.4-1.6
		c-0.3-0.3-0.7-0.5-1.2-0.5c-0.5,0-0.8,0.2-1.1,0.5c-0.3,0.4-0.4,0.9-0.4,1.6c0,0.7,0.1,1.2,0.4,1.5S92.4,112.6,92.9,112.6z"/>
	<path id="XMLID_245_" class="st5" d="M105.7,110.3c0,1.2-0.3,2.2-1,2.9s-1.6,1.1-2.7,1.1c-0.7,0-1.4-0.2-1.9-0.5s-1-0.8-1.3-1.4
		s-0.5-1.3-0.5-2.1c0-1.2,0.3-2.2,1-2.9s1.6-1,2.7-1c0.7,0,1.4,0.2,1.9,0.5s1,0.8,1.3,1.4S105.7,109.5,105.7,110.3z M100.5,110.3
		c0,0.8,0.1,1.3,0.4,1.7c0.2,0.4,0.7,0.6,1.2,0.6c0.6,0,1-0.2,1.2-0.6c0.2-0.4,0.4-1,0.4-1.7c0-0.8-0.1-1.3-0.4-1.7
		s-0.6-0.6-1.2-0.6c-0.6,0-1,0.2-1.2,0.6S100.5,109.6,100.5,110.3z M103.8,104c0,0.7-0.4,1.2-1.1,1.3l-0.1,0.5h-1.2l-0.2-1
		c0.3-0.1,0.6-0.1,0.7-0.3s0.2-0.3,0.2-0.4c0-0.1,0-0.3-0.1-0.3s-0.2-0.1-0.4-0.1c-0.3,0-0.6,0.1-1,0.2v-1.1c0.1,0,0.3-0.1,0.6-0.1
		s0.5,0,0.6,0c0.6,0,1.1,0.1,1.4,0.4C103.6,103.2,103.8,103.5,103.8,104z"/>
	<path id="XMLID_249_" class="st5" d="M39,131h-1.5l-5.4-8.3h-0.1l0,0.6c0.1,0.8,0.1,1.5,0.1,2.2v5.6H31v-10h1.5l0.3,0.5l3.3,5.1
		l1.7,2.7h0.1c0-0.1,0-0.5-0.1-1.2c0-0.7,0-1.2,0-1.5V121H39V131z"/>
	<path id="XMLID_251_" class="st5" d="M46.5,130.9l0-0.9h-0.1c-0.5,0.8-1.3,1.1-2.3,1.1c-1,0-1.7-0.3-2.3-1
		c-0.5-0.7-0.8-1.6-0.8-2.9c0-1.2,0.3-2.2,0.8-2.9c0.5-0.7,1.3-1,2.3-1c1,0,1.8,0.4,2.4,1.1h0.1l0.2-1h1v7.6c0,1.1-0.3,1.9-0.8,2.4
		c-0.5,0.5-1.4,0.8-2.5,0.8c-1.1,0-2-0.2-2.7-0.5v-1.1c0.7,0.4,1.7,0.6,2.8,0.6c0.6,0,1.1-0.2,1.5-0.6c0.4-0.4,0.6-0.9,0.6-1.6
		V130.9z M44.4,130.1c0.8,0,1.3-0.2,1.7-0.6c0.3-0.4,0.5-1.1,0.5-2v-0.3c0-1-0.2-1.7-0.5-2.2s-0.9-0.7-1.7-0.7
		c-0.6,0-1.1,0.2-1.5,0.7c-0.3,0.5-0.5,1.2-0.5,2.1c0,0.9,0.2,1.6,0.5,2.1S43.7,130.1,44.4,130.1z"/>
	<path id="XMLID_254_" class="st5" d="M51.3,123.5v4.8c0,0.6,0.1,1.1,0.4,1.4c0.3,0.3,0.7,0.4,1.3,0.4c0.8,0,1.3-0.2,1.7-0.6
		s0.5-1.1,0.5-2.1v-3.9h1.2v7.5h-1l-0.2-1h-0.1c-0.2,0.4-0.5,0.6-1,0.8s-0.9,0.3-1.4,0.3c-0.9,0-1.6-0.2-2-0.6s-0.7-1.1-0.7-2.1
		v-4.9H51.3z"/>
	<path id="XMLID_256_" class="st5" d="M57.6,123.5h1.3l1.6,4.3c0.3,0.9,0.6,1.6,0.6,2h0.1c0-0.2,0.1-0.5,0.3-0.9s0.3-0.8,0.4-1.1
		l1.5-4.3h1.3l-3.2,8.5c-0.3,0.8-0.7,1.4-1.1,1.8s-1,0.5-1.6,0.5c-0.3,0-0.7,0-1-0.1v-1c0.2,0.1,0.5,0.1,0.8,0.1
		c0.4,0,0.7-0.1,1-0.3s0.5-0.6,0.7-1l0.4-1L57.6,123.5z"/>
	<path id="XMLID_258_" class="st5" d="M69.1,131.1c-1.1,0-2-0.3-2.6-1c-0.6-0.7-1-1.6-1-2.8c0-1.2,0.3-2.2,0.9-2.9s1.4-1.1,2.4-1.1
		c0.9,0,1.7,0.3,2.3,0.9s0.8,1.4,0.8,2.5v0.7h-5.1c0,0.9,0.2,1.5,0.6,1.9s1,0.7,1.7,0.7c0.4,0,0.8,0,1.1-0.1s0.8-0.2,1.3-0.4v1.1
		c-0.4,0.2-0.8,0.3-1.2,0.4S69.6,131.1,69.1,131.1z M66.4,122.3c0.6-0.6,1-1.1,1.2-1.4c0.2-0.3,0.4-0.5,0.5-0.7h1.3
		c0.2,0.5,0.8,1.2,1.8,2.1v0.2h-0.9c-0.4-0.2-0.9-0.7-1.5-1.3c-0.6,0.6-1.1,1-1.5,1.3h-0.8V122.3z M68.8,124.3
		c-0.6,0-1.1,0.2-1.4,0.6s-0.5,0.9-0.6,1.6h3.8c0-0.7-0.2-1.2-0.5-1.6S69.4,124.3,68.8,124.3z M68,132.6c0-0.3,0.1-0.5,0.2-0.6
		s0.3-0.2,0.5-0.2c0.2,0,0.4,0.1,0.5,0.2s0.2,0.3,0.2,0.6c0,0.2-0.1,0.4-0.2,0.6c-0.1,0.1-0.3,0.2-0.5,0.2c-0.2,0-0.4-0.1-0.5-0.2
		C68.1,133.1,68,132.9,68,132.6z"/>
	<path id="XMLID_263_" class="st5" d="M78.9,131v-4.8c0-0.6-0.1-1.1-0.4-1.4c-0.3-0.3-0.7-0.4-1.3-0.4c-0.8,0-1.3,0.2-1.7,0.6
		s-0.5,1.1-0.5,2.1v3.9h-1.2v-7.5h1l0.2,1H75c0.2-0.4,0.6-0.7,1-0.9s0.9-0.3,1.4-0.3c0.9,0,1.6,0.2,2.1,0.7s0.7,1.1,0.7,2.1v4.9
		H78.9z"/>
	<path id="XMLID_265_" class="st5" d="M87.3,123.5v4.8c0,0.6,0.1,1.1,0.4,1.4c0.3,0.3,0.7,0.4,1.3,0.4c0.8,0,1.3-0.2,1.7-0.6
		s0.5-1.1,0.5-2.1v-3.9h1.2v0.8c0.4-0.1,0.6-0.2,0.8-0.5c0.2-0.3,0.2-0.8,0.2-1.5h1.3l0.1,0.2c-0.1,0.9-0.4,1.5-0.8,2
		s-0.9,0.7-1.6,0.8v5.8h-1l-0.2-1h-0.1c-0.2,0.4-0.5,0.6-1,0.8s-0.9,0.3-1.4,0.3c-0.9,0-1.6-0.2-2.1-0.6s-0.7-1.1-0.7-2.1v-4.9H87.3
		z"/>
	<path id="XMLID_267_" class="st5" d="M102,127.2c0,1.2-0.3,2.2-0.9,2.9s-1.5,1-2.6,1c-0.7,0-1.3-0.2-1.8-0.5s-0.9-0.8-1.2-1.4
		s-0.4-1.3-0.4-2.1c0-1.2,0.3-2.2,0.9-2.9s1.5-1,2.6-1c0.5,0,0.9,0.1,1.4,0.2s0.8,0.4,1.1,0.7c0.2-0.1,0.4-0.2,0.5-0.3
		c0.1-0.2,0.2-0.3,0.3-0.6s0.1-0.6,0.1-1.1h1.3l0.1,0.2c-0.1,0.7-0.4,1.3-0.6,1.7s-0.7,0.7-1.2,0.9C101.9,125.7,102,126.4,102,127.2
		z M96.4,127.2c0,1,0.2,1.7,0.5,2.2s0.9,0.7,1.7,0.7c0.8,0,1.3-0.2,1.7-0.7s0.5-1.2,0.5-2.2c0-0.9-0.2-1.6-0.5-2.1
		c-0.4-0.5-0.9-0.7-1.7-0.7s-1.3,0.2-1.7,0.7S96.4,126.3,96.4,127.2z M97.7,122.3c0.2-0.2,0.4-0.5,0.7-0.9s0.5-0.8,0.7-1.1h1.5v0.1
		c-0.2,0.3-0.5,0.7-0.9,1.1s-0.8,0.8-1.1,1h-0.8V122.3z"/>
	<path id="XMLID_293_" class="st5" d="M107.2,131.1c-1.1,0-1.9-0.3-2.5-1s-0.9-1.6-0.9-2.9c0-1.3,0.3-2.2,0.9-2.9s1.5-1,2.6-1
		c0.4,0,0.7,0,1.1,0.1c0.4,0.1,0.7,0.2,0.9,0.3l-0.4,1c-0.6-0.2-1.2-0.4-1.6-0.4c-0.8,0-1.3,0.2-1.7,0.7s-0.5,1.2-0.5,2.1
		c0,0.9,0.2,1.6,0.5,2.1s0.9,0.7,1.6,0.7c0.7,0,1.3-0.1,1.9-0.4v1.1C108.6,131,107.9,131.1,107.2,131.1z"/>
	<path id="XMLID_295_" class="st5" d="M124.1,131v-4.8c0-1.2-0.5-1.8-1.5-1.8c-0.7,0-1.2,0.2-1.5,0.6s-0.5,1-0.5,1.9v4.1h-1.2v-4.8
		c0-0.6-0.1-1-0.4-1.3c-0.2-0.3-0.6-0.4-1.2-0.4c-0.7,0-1.2,0.2-1.5,0.6s-0.5,1.1-0.5,2.1v3.9h-1.2v-7.5h1l0.2,1h0.1
		c0.2-0.4,0.5-0.6,0.9-0.9s0.8-0.3,1.3-0.3c1.2,0,1.9,0.4,2.3,1.3h0.1c0.2-0.4,0.6-0.7,1-0.9s0.9-0.3,1.4-0.3c0.8,0,1.5,0.2,1.9,0.7
		c0.4,0.4,0.6,1.1,0.6,2.1v4.9H124.1z"/>
	<path id="XMLID_297_" class="st5" d="M132.2,131l-0.2-1.1h-0.1c-0.4,0.5-0.7,0.8-1.1,1c-0.4,0.2-0.8,0.2-1.4,0.2
		c-0.7,0-1.3-0.2-1.7-0.6s-0.6-0.9-0.6-1.6c0-1.5,1.2-2.3,3.6-2.4l1.3,0V126c0-0.6-0.1-1-0.4-1.3s-0.6-0.4-1.2-0.4
		c-0.4,0-0.8,0.1-1.1,0.2c-0.4,0.1-0.7,0.3-1,0.4l-0.4-0.9c0.4-0.2,0.8-0.4,1.2-0.5s0.9-0.2,1.3-0.2c0.9,0,1.6,0.2,2,0.6
		s0.7,1,0.7,1.9v5.1H132.2z M129.7,130.1c0.7,0,1.2-0.2,1.6-0.6c0.4-0.4,0.6-0.9,0.6-1.6v-0.7l-1.1,0c-0.9,0-1.5,0.2-1.9,0.4
		c-0.4,0.2-0.6,0.6-0.6,1.1c0,0.4,0.1,0.7,0.4,0.9S129.3,130.1,129.7,130.1z"/>
	<path id="XMLID_300_" class="st5" d="M134.3,123.5h1.3l1.6,4.3c0.3,0.9,0.6,1.6,0.6,2h0.1c0-0.2,0.1-0.5,0.3-0.9s0.3-0.8,0.4-1.1
		l1.5-4.3h1.3l-3.2,8.5c-0.3,0.8-0.7,1.4-1.1,1.8s-1,0.5-1.6,0.5c-0.3,0-0.7,0-1-0.1v-1c0.2,0.1,0.5,0.1,0.8,0.1
		c0.4,0,0.7-0.1,1-0.3s0.5-0.6,0.7-1l0.4-1L134.3,123.5z"/>
	<path id="XMLID_302_" class="st5" d="M40.4,147.8v-4.8c0-1.2-0.5-1.8-1.5-1.8c-0.7,0-1.2,0.2-1.5,0.6s-0.5,1-0.5,1.9v4.1h-1.2v-4.8
		c0-0.6-0.1-1-0.4-1.3c-0.2-0.3-0.6-0.4-1.2-0.4c-0.7,0-1.2,0.2-1.5,0.6s-0.5,1.1-0.5,2.1v3.9h-1.2v-7.5h1l0.2,1h0.1
		c0.2-0.4,0.5-0.6,0.9-0.9s0.8-0.3,1.3-0.3c1.2,0,1.9,0.4,2.3,1.3h0.1c0.2-0.4,0.6-0.7,1-0.9s0.9-0.3,1.4-0.3c0.8,0,1.5,0.2,1.9,0.7
		c0.4,0.4,0.6,1.1,0.6,2.1v4.9H40.4z"/>
	<path id="XMLID_304_" class="st5" d="M48.6,147.8l-0.2-1.1h-0.1c-0.4,0.5-0.7,0.8-1.1,1c-0.4,0.2-0.8,0.2-1.4,0.2
		c-0.7,0-1.3-0.2-1.7-0.6s-0.6-0.9-0.6-1.6c0-1.5,1.2-2.3,3.6-2.4l1.3,0v-0.4c0-0.6-0.1-1-0.4-1.3s-0.6-0.4-1.2-0.4
		c-0.4,0-0.8,0.1-1.1,0.2c-0.4,0.1-0.7,0.3-1,0.4l-0.4-0.9c0.4-0.2,0.8-0.4,1.2-0.5s0.9-0.2,1.3-0.2c0.9,0,1.6,0.2,2,0.6
		s0.7,1,0.7,1.9v5.1H48.6z M46.7,139.3c-0.7,0-1.2-0.2-1.5-0.5s-0.5-0.8-0.5-1.3h0.7c0,0.3,0.1,0.6,0.3,0.7s0.5,0.2,1,0.2
		c0.4,0,0.7-0.1,1-0.2s0.3-0.4,0.4-0.7h0.7c-0.1,0.6-0.3,1.1-0.6,1.4S47.3,139.3,46.7,139.3z M46.1,146.9c0.7,0,1.2-0.2,1.6-0.6
		c0.4-0.4,0.6-0.9,0.6-1.6v-0.7l-1.1,0c-0.9,0-1.5,0.2-1.9,0.4c-0.4,0.2-0.6,0.6-0.6,1.1c0,0.4,0.1,0.7,0.4,0.9
		S45.6,146.9,46.1,146.9z M46.2,137.3c0.4-0.5,0.7-1,0.9-1.4h1.2v0.1c-0.4,0.5-0.9,1-1.4,1.4h-0.7V137.3z"/>
	<path id="XMLID_309_" class="st5" d="M56.9,147.8V143c0-0.6-0.1-1.1-0.4-1.4c-0.3-0.3-0.7-0.4-1.3-0.4c-0.8,0-1.3,0.2-1.7,0.6
		s-0.5,1.1-0.5,2.1v3.9h-1.2v-7.5h1l0.2,1h0.1c0.2-0.4,0.6-0.7,1-0.9s0.9-0.3,1.4-0.3c0.9,0,1.6,0.2,2.1,0.7s0.7,1.1,0.7,2.1v4.9
		H56.9z"/>
	<path id="XMLID_311_" class="st5" d="M61.9,146.1l0.1,0.2c-0.3,1-0.7,2.1-1.2,3.3h-0.9c0.3-1.1,0.5-2.3,0.7-3.4H61.9z"/>
	<path id="XMLID_313_" class="st5" d="M70.4,146.9c0.2,0,0.3,0,0.6,0s0.4-0.1,0.5-0.1v0.9c-0.1,0.1-0.3,0.1-0.5,0.1
		s-0.5,0.1-0.7,0.1c-1.5,0-2.2-0.8-2.2-2.3v-4.4h-1.1v-0.6l1.1-0.5l0.5-1.6h0.7v1.7h2.2v1h-2.2v4.3c0,0.4,0.1,0.8,0.3,1
		C69.7,146.8,70,146.9,70.4,146.9z"/>
	<path id="XMLID_315_" class="st5" d="M79.4,144c0,1.2-0.3,2.2-0.9,2.9s-1.5,1-2.6,1c-0.7,0-1.3-0.2-1.8-0.5s-0.9-0.8-1.2-1.4
		s-0.4-1.3-0.4-2.1c0-1.2,0.3-2.2,0.9-2.9s1.5-1,2.6-1c1.1,0,1.9,0.3,2.5,1S79.4,142.8,79.4,144z M73.8,144c0,0.9,0.2,1.7,0.6,2.1
		c0.4,0.5,0.9,0.7,1.6,0.7c0.7,0,1.3-0.2,1.6-0.7s0.6-1.2,0.6-2.1s-0.2-1.7-0.6-2.1s-0.9-0.7-1.7-0.7
		C74.5,141.2,73.8,142.1,73.8,144z M78.1,139.3h-0.7c-0.5-0.3-1-0.7-1.4-1.1c-0.5,0.5-1,0.8-1.4,1.1h-0.7v-0.2
		c0.2-0.3,0.5-0.6,0.8-0.9c0.3-0.3,0.5-0.6,0.7-0.9h1.3c0.3,0.5,0.8,1.1,1.5,1.8V139.3z M77.5,137.8c0.3-0.4,0.6-0.9,0.9-1.4h1.2
		v0.1c-0.4,0.5-0.8,1-1.4,1.4h-0.7V137.8z"/>
	<path id="XMLID_320_" class="st5" d="M83.9,146.9c0.2,0,0.3,0,0.6,0s0.4-0.1,0.5-0.1v0.9c-0.1,0.1-0.3,0.1-0.5,0.1
		s-0.5,0.1-0.7,0.1c-1.5,0-2.2-0.8-2.2-2.3v-4.4h-1.1v-0.6l1.1-0.5l0.5-1.6h0.7v1.7h2.2v1h-2.2v4.3c0,0.4,0.1,0.8,0.3,1
		C83.2,146.8,83.5,146.9,83.9,146.9z"/>
	<path id="XMLID_322_" class="st5" d="M91.3,147.8h-1.2v-10.6h1.2V147.8z"/>
	<path id="XMLID_324_" class="st5" d="M98.3,147.8l-0.2-1.1H98c-0.4,0.5-0.7,0.8-1.1,1c-0.4,0.2-0.8,0.2-1.4,0.2
		c-0.7,0-1.3-0.2-1.7-0.6s-0.6-0.9-0.6-1.6c0-1.5,1.2-2.3,3.6-2.4l1.3,0v-0.4c0-0.6-0.1-1-0.4-1.3s-0.6-0.4-1.2-0.4
		c-0.4,0-0.8,0.1-1.1,0.2c-0.4,0.1-0.7,0.3-1,0.4l-0.4-0.9c0.4-0.2,0.8-0.4,1.2-0.5s0.9-0.2,1.3-0.2c0.9,0,1.6,0.2,2,0.6
		s0.7,1,0.7,1.9v5.1H98.3z M97.2,139.3h-0.8c-0.3-0.3-0.7-0.6-1.1-1.1c-0.4-0.4-0.7-0.8-0.9-1V137h1.5c0.1,0.3,0.4,0.7,0.6,1.1
		s0.5,0.7,0.7,1V139.3z M95.8,146.9c0.7,0,1.2-0.2,1.6-0.6c0.4-0.4,0.6-0.9,0.6-1.6v-0.7l-1.1,0c-0.9,0-1.5,0.2-1.9,0.4
		c-0.4,0.2-0.6,0.6-0.6,1.1c0,0.4,0.1,0.7,0.4,0.9S95.3,146.9,95.8,146.9z"/>
	<path id="XMLID_328_" class="st5" d="M106.6,147.8V143c0-0.6-0.1-1.1-0.4-1.4c-0.3-0.3-0.7-0.4-1.3-0.4c-0.8,0-1.3,0.2-1.7,0.6
		s-0.5,1.1-0.5,2.1v3.9h-1.2v-7.5h1l0.2,1h0.1c0.2-0.4,0.6-0.7,1-0.9s0.9-0.3,1.4-0.3c0.9,0,1.6,0.2,2.1,0.7s0.7,1.1,0.7,2.1v4.9
		H106.6z"/>
	<path id="XMLID_330_" class="st5" d="M115.3,147.8V143c0-0.6-0.1-1.1-0.4-1.4c-0.3-0.3-0.7-0.4-1.3-0.4c-0.8,0-1.3,0.2-1.7,0.6
		c-0.4,0.4-0.5,1.1-0.5,2.1v3.9h-1.2v-10.6h1.2v3.1c0,0.4,0,0.8-0.1,1.1h0.1c0.2-0.4,0.5-0.6,1-0.9s0.9-0.3,1.4-0.3
		c0.9,0,1.6,0.2,2.1,0.7s0.7,1.1,0.7,2.1v4.9H115.3z"/>
</g>
<polygon id="XMLID_1342_" class="st1" points="149.2,167 149.2,147.9 168.4,167.1 "/>
</svg>
