<?xml version="1.0" encoding="utf-8"?>
<!-- Generator: Adobe Illustrator 19.0.0, SVG Export Plug-In . SVG Version: 6.00 Build 0)  -->
<svg version="1.1" id="Layer_1" xmlns="http://www.w3.org/2000/svg" xmlns:xlink="http://www.w3.org/1999/xlink" x="0px" y="0px"
	 viewBox="0 0 403 391" style="enable-background:new 0 0 403 391;" xml:space="preserve">
<style type="text/css">
	.st0{fill:#EF8DB3;}
	.st1{fill:#D3D3D3;}
	.st2{fill:#2E1111;stroke:#FFFFFF;stroke-width:2;stroke-miterlimit:10;}
	.st3{fill:#125B7C;}
	.st4{fill:#D14C27;}
	.st5{fill:#FFFFFF;}
	.st6{fill:#C9C3C6;}
	.st7{fill:#898989;}
	.st8{fill:#A03522;}
	.st9{fill:#15B27E;}
	.st10{fill:#B83525;}
	.st11{fill:#CD202B;}
	.st12{fill:#010101;}
	.st13{fill:#FAB38F;}
	.st14{fill:#EE9E7B;}
	.st15{fill:none;stroke:#010101;stroke-width:0.5;stroke-linecap:round;stroke-linejoin:round;stroke-miterlimit:10;}
	.st16{fill:#49C2C6;}
	.st17{fill:#2B9C99;}
	.st18{fill:#12AFAB;}
</style>
<g id="XMLID_180_">
	<circle id="XMLID_12487_" class="st0" cx="33.9" cy="144.9" r="28.6"/>
	<circle id="XMLID_12486_" class="st0" cx="171.1" cy="164.3" r="57"/>
	<circle id="XMLID_12485_" class="st0" cx="76.9" cy="160.3" r="57"/>
	<circle id="XMLID_12484_" class="st0" cx="161.7" cy="298.3" r="71.6"/>
	<circle id="XMLID_12483_" class="st0" cx="146.5" cy="107.3" r="71.6"/>
	<circle id="XMLID_12482_" class="st0" cx="193.1" cy="194.1" r="71.6"/>
	<path id="XMLID_12481_" class="st1" d="M339.3,89.9L339.3,89.9c-2.3,0-4.2-1.9-4.2-4.2V31.6c0-2.3,1.9-4.2,4.2-4.2l0,0
		c2.3,0,4.2,1.9,4.2,4.2v54.1C343.5,88,341.6,89.9,339.3,89.9z"/>
	<circle id="XMLID_12480_" class="st0" cx="121.4" cy="209.2" r="56.9"/>
	<circle id="XMLID_12479_" class="st0" cx="203.5" cy="249.5" r="57"/>
	<line id="XMLID_12478_" class="st2" x1="156" y1="350.3" x2="156" y2="194.2"/>
	<circle id="XMLID_12477_" class="st0" cx="236.9" cy="329.3" r="57"/>
	<polygon id="XMLID_12476_" class="st3" points="117.5,348.3 179.9,234 227.4,234 304.1,346.3 	"/>
	<rect id="XMLID_12475_" x="203.5" y="185.7" class="st4" width="148.3" height="16.7"/>
	<rect id="XMLID_12474_" x="198.5" y="189.9" class="st5" width="148.3" height="8.3"/>
	<rect id="XMLID_12473_" x="331.2" y="185.9" class="st4" width="16.7" height="159.5"/>
	<rect id="XMLID_12472_" x="269" y="202.4" class="st4" width="16.7" height="24"/>
	<polygon id="XMLID_12471_" class="st0" points="338.6,318.9 338.6,299.8 319.4,319 	"/>
	<polygon id="XMLID_12470_" class="st6" points="341.1,325.7 341.1,306.7 321.9,325.9 	"/>
	<circle id="XMLID_12469_" class="st4" cx="276.7" cy="43.8" r="36.1"/>
	<rect id="XMLID_12468_" x="323.5" y="238.8" class="st7" width="32" height="4.7"/>
	<polygon id="XMLID_12467_" class="st1" points="179.9,234 161.7,267.3 184.7,267.3 184.7,279.4 200.3,263.8 214.3,263.8 
		214.3,276.3 226.2,264.3 241.4,264.3 241.4,254.4 227.4,234 	"/>
	<polygon id="XMLID_12466_" class="st5" points="173.7,245.3 199.8,245.3 199.8,238.6 206.3,245.1 235.1,245.1 227.4,234 179.9,234 
			"/>
	<rect id="XMLID_12465_" x="197.6" y="185.7" class="st4" width="16.7" height="162.4"/>
	<path id="XMLID_12464_" class="st4" d="M173.1,173.2c0,0-1.5,24.2,26.7,25v-12.5c0,0-14.5,3.6-13.4-12.3L173.1,173.2z"/>
	<path id="XMLID_12463_" class="st4" d="M373.1,173.2c0,0,1.5,24.2-26.8,25v-12.5c0,0,14.5,3.6,13.4-12.3L373.1,173.2z"/>
	<rect id="XMLID_12462_" x="193.1" y="220.3" class="st4" width="169.3" height="16.7"/>
	<rect id="XMLID_12461_" x="193.1" y="228.6" class="st8" width="169.3" height="16.7"/>
	<rect id="XMLID_12460_" x="197.5" y="169.1" class="st9" width="151.3" height="16.7"/>
	<path id="XMLID_12459_" class="st10" d="M279.9,345c0,0,47.3-49.4,47.3-129.7V86.2H340V345H279.9z"/>
	<path id="XMLID_12458_" class="st11" d="M397.9,345.5c0,0-47.3-49.4-47.3-129.7V86.7h-12.8v258.8H397.9z"/>
	<rect id="XMLID_12457_" x="326.5" y="159.7" class="st5" width="24.3" height="40.5"/>
	<rect id="XMLID_12456_" x="338.7" y="159.7" class="st1" width="12.2" height="40.5"/>
	<g id="XMLID_9874_">
		<path id="XMLID_12455_" class="st12" d="M244.7,231.6l0,1.1v43.6l49.1-0.7V233v0.1l0.1-1.3c0-8.6-11-15.6-24.6-15.6
			C255.7,216.1,244.7,222.9,244.7,231.6"/>
		<path id="XMLID_12454_" class="st13" d="M291.9,255.7c0-2.5-2-4.5-4.5-4.5h-0.4c-2.5,0-4.5,2-4.5,4.5v0.4c0,2.5,2,4.5,4.5,4.5h0.4
			c2.5,0,4.5-2,4.5-4.5V255.7z"/>
		<path id="XMLID_12453_" class="st13" d="M251.7,251.2h-0.4c-2.5,0-4.5,2-4.5,4.5v0.4c0,2.5,2,4.5,4.5,4.5h0.4"/>
		<polyline id="XMLID_12437_" class="st14" points="262,272.3 262,286.5 276.7,286.5 276.7,272.3 		"/>
		<path id="XMLID_12435_" class="st13" d="M286.9,246.8v13.8c-1.6,13-18.4,14.6-18.4,14.6s-9.1-0.6-14.3-6.9c0,0-3.5-3.2-3.2-10.6
			V247h7.4v-12.6l6.1,12.3L286.9,246.8z"/>
		<path id="XMLID_12434_" class="st12" d="M263,255.2c0,1-0.8,1.9-1.9,1.9h-0.2c-1,0-1.9-0.8-1.9-1.9v-2.2c0-1,0.8-1.9,1.9-1.9h0.2
			c1,0,1.9,0.8,1.9,1.9V255.2z"/>
		<path id="XMLID_12429_" class="st12" d="M280.6,255.2c0,1-0.8,1.9-1.9,1.9h-0.2c-1,0-1.9-0.8-1.9-1.9v-2.2c0-1,0.8-1.9,1.9-1.9
			h0.2c1,0,1.9,0.8,1.9,1.9V255.2z"/>
		<path id="XMLID_12349_" class="st14" d="M277.7,283.5h-7.4h-2.2h-7.2c-13.7,2.9-15.2,15-15.2,15h22.4h2.2h22.6
			C292.9,298.5,291.4,286.4,277.7,283.5z"/>
		<polygon id="XMLID_10605_" class="st10" points="270.2,252.9 268.2,258.8 272.3,258.8 		"/>
		<path id="XMLID_10417_" class="st15" d="M279.9,252.3c0,0,0.7,1.5,2.3,0"/>
		<path id="XMLID_10402_" class="st15" d="M257.5,252.3c0,0,0.7,1.5,2.3,0"/>
		<rect id="XMLID_10252_" x="241.4" y="298.3" class="st16" width="55.7" height="45.2"/>
	</g>
	<rect id="XMLID_9793_" x="241.4" y="320.9" class="st16" width="55.7" height="37.8"/>
	<path id="XMLID_1991_" class="st16" d="M251.4,320.9l25.6-40.3c0,0,15.9-0.8,20.1,17.7v22.6H251.4z"/>
	<path id="XMLID_1945_" class="st17" d="M262,280.6l8.2,10.6l-18.8,29.6h-10.1v-22.6C241.4,298.3,243.3,280.6,262,280.6z"/>
	<rect id="XMLID_1863_" x="241.4" y="320.9" class="st1" width="55.7" height="8.9"/>
	<line id="XMLID_1821_" class="st2" x1="156" y1="220.4" x2="182.5" y2="200.3"/>
	<path id="XMLID_1819_" class="st5" d="M355.6,114.7h-29.5c-2.3,0-4.1-1.9-4.1-4.1l0,0c0-2.3,1.9-4.1,4.1-4.1h29.5
		c2.3,0,4.1,1.9,4.1,4.1l0,0C359.7,112.9,357.8,114.7,355.6,114.7z"/>
	<path id="XMLID_1818_" class="st11" d="M339,100.8L339,100.8c-6.5,0-11.8-5.3-11.8-11.8V75.4c0-6.5,5.3-11.8,11.8-11.8l0,0
		c6.5,0,11.8,5.3,11.8,11.8V89C350.8,95.5,345.5,100.8,339,100.8z"/>
	<path id="XMLID_1774_" class="st12" d="M142.8,122.8"/>
	<polygon id="XMLID_1740_" class="st16" points="241.4,298.3 241.4,339.5 204.8,339.5 	"/>
	<polygon id="XMLID_1737_" class="st18" points="297,297.8 297,339.3 333.6,339.3 	"/>
</g>
</svg>
