<!-- Generator: Adobe Illustrator 19.0.0, SVG Export Plug-In  -->
<svg version="1.1"
	 xmlns="http://www.w3.org/2000/svg" xmlns:xlink="http://www.w3.org/1999/xlink" xmlns:a="http://ns.adobe.com/AdobeSVGViewerExtensions/3.0/"
	 x="0px" y="0px" width="82.9px" height="48.4px" viewBox="0 0 82.9 48.4" style="enable-background:new 0 0 82.9 48.4;"
	 xml:space="preserve">
<style type="text/css">
	.st0{clip-path:url(#XMLID_24_);fill:#CB1D23;}
	.st1{clip-path:url(#XMLID_24_);fill:#F7DE29;}
	.st2{clip-path:url(#XMLID_25_);fill:#CB1D23;}
	.st3{clip-path:url(#XMLID_25_);fill:#F7DE29;}
</style>
<defs>
</defs>
<g id="XMLID_15_">
	<g id="XMLID_16_">
		<defs>
			<rect id="XMLID_17_" width="82.9" height="48.4"/>
		</defs>
		<clipPath id="XMLID_24_">
			<use xlink:href="#XMLID_17_"  style="overflow:visible;"/>
		</clipPath>
		<rect id="XMLID_23_" class="st0" width="82.9" height="48.4"/>
		<polygon id="XMLID_22_" class="st1" points="8,17.6 9.5,12.7 5.5,9.7 10.5,9.7 12.1,4.9 13.7,9.7 18.7,9.7 14.7,12.7 16.2,17.6 
			12.1,14.6 		"/>
		<polygon id="XMLID_21_" class="st1" points="22.1,20.2 23.9,20.8 25,19.5 24.9,21.2 26.6,22 24.9,22.3 24.7,24.2 23.8,22.7 
			22,23.1 23.1,21.7 		"/>
		<polygon id="XMLID_20_" class="st1" points="31.5,10.9 29.6,10.5 28.7,12.1 28.4,10.3 26.7,10 28.3,9.2 28.1,7.4 29.3,8.7 31,8 
			30.1,9.5 		"/>
		<polygon id="XMLID_19_" class="st1" points="27.5,19.2 28.1,17.4 26.6,16.3 28.5,16.3 29,14.6 29.6,16.3 31.5,16.3 30,17.4 
			30.6,19.2 29,18 		"/>
		<polygon id="XMLID_18_" class="st1" points="22.3,3.1 23.9,3.9 25.2,2.6 24.9,4.4 26.6,5.1 24.8,5.5 24.6,7.3 23.7,5.7 21.9,6 
			23.1,4.7 		"/>
	</g>
</g>
</svg>