<!-- Generator: Adobe Illustrator 19.0.0, SVG Export Plug-In  -->
<svg version="1.1"
	 xmlns="http://www.w3.org/2000/svg" xmlns:xlink="http://www.w3.org/1999/xlink" xmlns:a="http://ns.adobe.com/AdobeSVGViewerExtensions/3.0/"
	 x="0px" y="0px" width="168.1px" height="167.9px" viewBox="0 0 168.1 167.9" style="enable-background:new 0 0 168.1 167.9;"
	 xml:space="preserve">
<style type="text/css">
	.st0{fill:#0F5A7C;}
	.st1{fill:#FFFFFF;}
	.st2{fill:#3F3F3F;stroke:#353535;stroke-width:0.2;stroke-miterlimit:10;}
	.st3{fill:#CC0D29;}
</style>
<defs>
</defs>
<rect id="XMLID_215_" class="st0" width="149.9" height="167"/>
<polygon id="XMLID_214_" class="st1" points="148.8,167.7 148.8,148.7 168.1,167.9 "/>
<rect id="XMLID_213_" y="107.1" class="st1" width="149.9" height="60.8"/>
<g id="XMLID_28_">
	<g id="XMLID_30_">
		<path id="XMLID_120_" class="st2" d="M30.9,117c-0.8,0-1.4,0.3-1.9,0.9s-0.7,1.4-0.7,2.5c0,2.2,0.8,3.3,2.5,3.3
			c0.7,0,1.6-0.2,2.5-0.5v1.8c-0.8,0.3-1.7,0.5-2.7,0.5c-1.5,0-2.6-0.4-3.3-1.3s-1.2-2.1-1.2-3.8c0-1,0.2-1.9,0.6-2.7
			s0.9-1.4,1.6-1.8c0.7-0.4,1.5-0.6,2.5-0.6c1,0,1.9,0.2,2.9,0.7l-0.7,1.7c-0.4-0.2-0.7-0.3-1.1-0.5C31.6,117.1,31.2,117,30.9,117z"
			/>
		<path id="XMLID_118_" class="st2" d="M39.6,117.6c0.3,0,0.5,0,0.7,0.1l-0.2,2c-0.2,0-0.4-0.1-0.6-0.1c-0.7,0-1.2,0.2-1.6,0.5
			c-0.4,0.3-0.6,0.8-0.6,1.4v3.9h-2.1v-7.6H37l0.3,1.3h0.1c0.2-0.4,0.6-0.8,1-1S39.2,117.6,39.6,117.6z"/>
		<path id="XMLID_115_" class="st2" d="M46.4,125.4l-0.4-1H46c-0.4,0.4-0.7,0.7-1.1,0.9c-0.4,0.2-0.9,0.3-1.5,0.3
			c-0.7,0-1.3-0.2-1.7-0.6c-0.4-0.4-0.6-1-0.6-1.8c0-0.8,0.3-1.4,0.9-1.8s1.4-0.6,2.6-0.6l1.3,0v-0.3c0-0.8-0.4-1.2-1.2-1.2
			c-0.6,0-1.3,0.2-2.2,0.6l-0.7-1.4c0.9-0.5,1.9-0.7,2.9-0.7c1,0,1.8,0.2,2.4,0.7c0.5,0.4,0.8,1.1,0.8,2v5.1H46.4z M45.8,121.9
			l-0.8,0c-0.6,0-1.1,0.1-1.4,0.3c-0.3,0.2-0.4,0.5-0.4,0.9c0,0.6,0.3,0.9,1,0.9c0.5,0,0.9-0.1,1.2-0.4c0.3-0.3,0.4-0.6,0.4-1.1
			V121.9z"/>
		<path id="XMLID_113_" class="st2" d="M54.3,119.3h-1.8v6.1h-2.1v-6.1h-1.1v-1l1.1-0.6v-0.6c0-0.9,0.2-1.5,0.6-1.9
			c0.4-0.4,1.1-0.6,2.1-0.6c0.7,0,1.4,0.1,1.9,0.3l-0.5,1.5c-0.4-0.1-0.8-0.2-1.2-0.2c-0.3,0-0.5,0.1-0.6,0.3s-0.2,0.4-0.2,0.7v0.5
			h1.8V119.3z"/>
		<path id="XMLID_111_" class="st2" d="M58.7,123.9c0.4,0,0.8-0.1,1.3-0.2v1.6c-0.5,0.2-1.2,0.3-1.9,0.3c-0.8,0-1.4-0.2-1.8-0.6
			c-0.4-0.4-0.6-1.1-0.6-1.9v-3.7h-1v-0.9l1.1-0.7l0.6-1.6h1.3v1.6h2.1v1.6h-2.1v3.7c0,0.3,0.1,0.5,0.2,0.7
			C58.2,123.8,58.4,123.9,58.7,123.9z"/>
		<path id="XMLID_108_" class="st2" d="M65,125.6c-1.2,0-2.2-0.3-2.9-1c-0.7-0.7-1-1.6-1-2.9c0-1.3,0.3-2.3,1-3c0.6-0.7,1.5-1,2.7-1
			c1.1,0,1.9,0.3,2.5,0.9s0.9,1.5,0.9,2.5v1h-4.9c0,0.6,0.2,1.1,0.5,1.4c0.3,0.3,0.8,0.5,1.4,0.5c0.5,0,0.9,0,1.3-0.1
			s0.8-0.2,1.3-0.5v1.6c-0.4,0.2-0.8,0.3-1.2,0.4S65.6,125.6,65,125.6z M64.7,119.1c-0.4,0-0.8,0.1-1,0.4s-0.4,0.7-0.4,1.2h2.9
			c0-0.5-0.1-0.9-0.4-1.2S65.2,119.1,64.7,119.1z"/>
		<path id="XMLID_105_" class="st2" d="M72.2,125.6c-0.9,0-1.6-0.3-2.1-1s-0.8-1.7-0.8-2.9c0-1.3,0.3-2.2,0.8-2.9
			c0.5-0.7,1.2-1,2.2-1c1,0,1.7,0.4,2.2,1.1h0.1c-0.1-0.6-0.2-1.1-0.2-1.5v-2.4h2.1v10.6h-1.6l-0.4-1h-0.1
			C73.9,125.2,73.2,125.6,72.2,125.6z M73,123.9c0.5,0,0.9-0.2,1.2-0.5c0.2-0.3,0.4-0.8,0.4-1.6v-0.2c0-0.8-0.1-1.4-0.4-1.8
			s-0.7-0.5-1.2-0.5c-0.5,0-0.8,0.2-1.1,0.6c-0.3,0.4-0.4,1-0.4,1.7s0.1,1.3,0.4,1.7S72.5,123.9,73,123.9z"/>
		<path id="XMLID_102_" class="st2" d="M86.5,125.6c-0.9,0-1.6-0.3-2.1-1h-0.1c0.1,0.6,0.1,1,0.1,1.1v3.1h-2.1v-11H84l0.3,1h0.1
			c0.5-0.8,1.2-1.1,2.2-1.1c0.9,0,1.6,0.3,2.1,1s0.8,1.7,0.8,2.9c0,0.8-0.1,1.5-0.4,2.1s-0.6,1.1-1,1.4S87.1,125.6,86.5,125.6z
			 M85.9,119.3c-0.5,0-0.9,0.2-1.1,0.5s-0.4,0.8-0.4,1.6v0.2c0,0.8,0.1,1.4,0.4,1.8c0.2,0.4,0.6,0.5,1.2,0.5c0.9,0,1.4-0.8,1.4-2.3
			c0-0.8-0.1-1.3-0.3-1.7C86.8,119.5,86.4,119.3,85.9,119.3z"/>
		<path id="XMLID_100_" class="st2" d="M95.4,117.6c0.3,0,0.5,0,0.7,0.1l-0.2,2c-0.2,0-0.4-0.1-0.6-0.1c-0.7,0-1.2,0.2-1.6,0.5
			c-0.4,0.3-0.6,0.8-0.6,1.4v3.9h-2.1v-7.6h1.6l0.3,1.3h0.1c0.2-0.4,0.6-0.8,1-1S95,117.6,95.4,117.6z"/>
		<path id="XMLID_97_" class="st2" d="M104.3,121.6c0,1.2-0.3,2.2-1,2.9c-0.7,0.7-1.6,1.1-2.7,1.1c-0.7,0-1.4-0.2-1.9-0.5
			s-1-0.8-1.3-1.4s-0.5-1.3-0.5-2.1c0-1.2,0.3-2.2,1-2.9c0.7-0.7,1.6-1,2.7-1c0.7,0,1.4,0.2,1.9,0.5c0.6,0.3,1,0.8,1.3,1.4
			C104.2,120.1,104.3,120.8,104.3,121.6z M99.1,121.6c0,0.8,0.1,1.3,0.4,1.7c0.2,0.4,0.7,0.6,1.2,0.6c0.6,0,1-0.2,1.2-0.6
			c0.2-0.4,0.4-1,0.4-1.7c0-0.8-0.1-1.3-0.4-1.7c-0.2-0.4-0.6-0.6-1.2-0.6c-0.6,0-1,0.2-1.2,0.6S99.1,120.8,99.1,121.6z"/>
		<path id="XMLID_94_" class="st2" d="M108.5,125.6c-0.9,0-1.6-0.3-2.1-1s-0.8-1.7-0.8-2.9c0-1.3,0.3-2.2,0.8-2.9
			c0.5-0.7,1.2-1,2.2-1c1,0,1.7,0.4,2.2,1.1h0.1c-0.1-0.6-0.2-1.1-0.2-1.5v-2.4h2.1v10.6h-1.6l-0.4-1h-0.1
			C110.2,125.2,109.5,125.6,108.5,125.6z M109.2,123.9c0.5,0,0.9-0.2,1.2-0.5c0.2-0.3,0.4-0.8,0.4-1.6v-0.2c0-0.8-0.1-1.4-0.4-1.8
			s-0.7-0.5-1.2-0.5c-0.5,0-0.8,0.2-1.1,0.6c-0.3,0.4-0.4,1-0.4,1.7s0.1,1.3,0.4,1.7S108.7,123.9,109.2,123.9z"/>
		<path id="XMLID_92_" class="st2" d="M120.3,125.4l-0.3-1h-0.1c-0.2,0.4-0.5,0.6-1,0.8s-0.9,0.3-1.4,0.3c-0.9,0-1.6-0.2-2-0.7
			s-0.7-1.2-0.7-2.1v-5h2.1v4.5c0,0.6,0.1,1,0.3,1.2s0.5,0.4,0.9,0.4c0.6,0,1-0.2,1.3-0.6s0.4-1,0.4-1.9v-3.6h2.1v7.6H120.3z"/>
		<path id="XMLID_90_" class="st2" d="M127.2,125.6c-2.4,0-3.6-1.3-3.6-3.9c0-1.3,0.3-2.3,1-3s1.6-1,2.8-1c0.9,0,1.7,0.2,2.4,0.5
			l-0.6,1.6c-0.3-0.1-0.6-0.2-0.9-0.3s-0.6-0.1-0.8-0.1c-1.1,0-1.6,0.8-1.6,2.3c0,1.5,0.5,2.2,1.6,2.2c0.4,0,0.8-0.1,1.1-0.2
			s0.7-0.3,1-0.5v1.8c-0.3,0.2-0.7,0.4-1,0.4C128.2,125.5,127.8,125.6,127.2,125.6z"/>
		<path id="XMLID_88_" class="st2" d="M134.5,123.9c0.4,0,0.8-0.1,1.3-0.2v1.6c-0.5,0.2-1.2,0.3-1.9,0.3c-0.8,0-1.4-0.2-1.8-0.6
			c-0.4-0.4-0.6-1.1-0.6-1.9v-3.7h-1v-0.9l1.1-0.7l0.6-1.6h1.3v1.6h2.1v1.6h-2.1v3.7c0,0.3,0.1,0.5,0.2,0.7
			C134,123.8,134.3,123.9,134.5,123.9z"/>
		<path id="XMLID_86_" class="st2" d="M142.7,123.1c0,0.8-0.3,1.4-0.8,1.8c-0.5,0.4-1.4,0.6-2.4,0.6c-0.6,0-1,0-1.4-0.1
			s-0.8-0.2-1.1-0.3v-1.7c0.4,0.2,0.8,0.3,1.3,0.5s0.9,0.2,1.3,0.2c0.8,0,1.1-0.2,1.1-0.7c0-0.2-0.1-0.3-0.2-0.4s-0.3-0.2-0.5-0.3
			s-0.6-0.3-1-0.5c-0.6-0.2-1-0.5-1.3-0.7c-0.3-0.2-0.5-0.4-0.6-0.7c-0.1-0.3-0.2-0.6-0.2-1c0-0.7,0.3-1.2,0.8-1.6s1.3-0.6,2.2-0.6
			c0.9,0,1.8,0.2,2.7,0.6l-0.6,1.5c-0.4-0.2-0.7-0.3-1.1-0.4c-0.3-0.1-0.7-0.2-1-0.2c-0.6,0-0.9,0.2-0.9,0.5c0,0.2,0.1,0.3,0.3,0.5
			s0.6,0.3,1.3,0.6c0.6,0.2,1,0.5,1.3,0.7c0.3,0.2,0.5,0.5,0.6,0.7S142.7,122.8,142.7,123.1z"/>
		<path id="XMLID_84_" class="st2" d="M30.2,132.1c-0.9,0-1.6,0.3-2.2,0.9s-0.8,1.5-0.8,2.5c0,1.1,0.3,2,0.8,2.6s1.2,0.9,2.2,0.9
			c0.6,0,1.3-0.1,2.1-0.3v0.9c-0.4,0.1-0.7,0.2-1,0.3s-0.7,0.1-1.2,0.1c-1.3,0-2.2-0.4-2.9-1.2s-1-1.9-1-3.3c0-0.9,0.2-1.7,0.5-2.3
			s0.8-1.2,1.4-1.5s1.4-0.5,2.2-0.5c0.9,0,1.7,0.2,2.4,0.5l-0.4,0.9C31.5,132.2,30.8,132.1,30.2,132.1z"/>
		<path id="XMLID_82_" class="st2" d="M38.3,139.8v-4.1c0-0.5-0.1-0.9-0.3-1.2s-0.6-0.4-1.1-0.4c-0.7,0-1.1,0.2-1.4,0.5
			s-0.5,1-0.5,1.8v3.3H34v-9.1H35v2.7c0,0.4,0,0.7-0.1,0.9H35c0.2-0.3,0.5-0.6,0.8-0.7s0.7-0.3,1.2-0.3c0.8,0,1.4,0.2,1.8,0.6
			s0.6,1,0.6,1.8v4.2H38.3z"/>
		<path id="XMLID_79_" class="st2" d="M44.1,139.9c-1,0-1.7-0.3-2.3-0.9s-0.8-1.4-0.8-2.4c0-1,0.3-1.9,0.8-2.5s1.2-0.9,2.1-0.9
			c0.8,0,1.5,0.3,1.9,0.8s0.7,1.2,0.7,2.1v0.6h-4.4c0,0.7,0.2,1.3,0.6,1.7s0.8,0.6,1.5,0.6c0.3,0,0.7,0,1-0.1s0.7-0.2,1.1-0.4v0.9
			c-0.4,0.2-0.7,0.3-1,0.3S44.5,139.9,44.1,139.9z M43.9,134.1c-0.5,0-0.9,0.2-1.2,0.5s-0.5,0.8-0.5,1.4h3.3c0-0.6-0.1-1.1-0.4-1.4
			S44.3,134.1,43.9,134.1z"/>
		<path id="XMLID_77_" class="st2" d="M51.1,133.3c0.3,0,0.5,0,0.8,0.1l-0.1,1c-0.2-0.1-0.5-0.1-0.7-0.1c-0.3,0-0.7,0.1-0.9,0.3
			s-0.5,0.4-0.7,0.8s-0.2,0.7-0.2,1.1v3.4h-1.1v-6.4H49l0.1,1.2h0c0.2-0.4,0.5-0.7,0.9-1S50.8,133.3,51.1,133.3z"/>
		<path id="XMLID_74_" class="st2" d="M53,131.6c0-0.2,0.1-0.4,0.2-0.5s0.3-0.2,0.4-0.2c0.2,0,0.3,0.1,0.4,0.2s0.2,0.3,0.2,0.5
			c0,0.2-0.1,0.4-0.2,0.5s-0.3,0.2-0.4,0.2c-0.2,0-0.3-0.1-0.4-0.2S53,131.9,53,131.6z M54.2,139.8h-1.1v-6.4h1.1V139.8z"/>
		<path id="XMLID_72_" class="st2" d="M60.4,138c0,0.6-0.2,1.1-0.7,1.4s-1.1,0.5-1.9,0.5c-0.8,0-1.5-0.1-2-0.4v-1
			c0.7,0.3,1.4,0.5,2,0.5c0.5,0,0.9-0.1,1.2-0.3s0.4-0.4,0.4-0.7c0-0.3-0.1-0.5-0.3-0.6s-0.6-0.4-1.2-0.6c-0.6-0.2-1-0.4-1.3-0.6
			s-0.4-0.4-0.5-0.6s-0.2-0.5-0.2-0.8c0-0.5,0.2-0.9,0.6-1.2s1-0.5,1.8-0.5c0.7,0,1.4,0.1,2.1,0.4l-0.4,0.8
			c-0.7-0.3-1.2-0.4-1.8-0.4c-0.4,0-0.8,0.1-1,0.2s-0.3,0.3-0.3,0.6c0,0.2,0.1,0.4,0.3,0.6s0.7,0.4,1.4,0.6c0.5,0.2,0.9,0.4,1.2,0.6
			s0.4,0.4,0.6,0.6S60.4,137.7,60.4,138z"/>
		<path id="XMLID_70_" class="st2" d="M66.3,139.8v-4.1c0-0.5-0.1-0.9-0.3-1.2s-0.6-0.4-1.1-0.4c-0.7,0-1.1,0.2-1.4,0.5
			s-0.5,1-0.5,1.8v3.3h-1.1v-9.1H63v2.7c0,0.4,0,0.7-0.1,0.9H63c0.2-0.3,0.5-0.6,0.8-0.7c0.4-0.2,0.7-0.3,1.2-0.3
			c0.8,0,1.4,0.2,1.8,0.6s0.6,1,0.6,1.8v4.2H66.3z"/>
		<path id="XMLID_68_" class="st2" d="M70.6,138.4l0.1,0.1c-0.2,0.8-0.6,1.8-1,2.8h-0.8c0.3-1,0.5-2,0.6-2.9H70.6z"/>
		<path id="XMLID_66_" class="st2" d="M80.7,137.5c0,0.7-0.3,1.3-0.8,1.8s-1.3,0.6-2.3,0.6c-1,0-1.8-0.1-2.4-0.4v-1
			c0.4,0.2,0.8,0.3,1.2,0.4s0.8,0.1,1.2,0.1c0.6,0,1.1-0.1,1.4-0.4s0.5-0.6,0.5-1c0-0.3-0.1-0.5-0.2-0.7s-0.3-0.4-0.6-0.5
			s-0.7-0.3-1.3-0.5c-0.8-0.3-1.4-0.6-1.7-1s-0.5-0.9-0.5-1.5c0-0.7,0.3-1.2,0.8-1.6s1.2-0.6,2-0.6c0.9,0,1.6,0.2,2.4,0.5l-0.3,0.9
			c-0.7-0.3-1.4-0.5-2.1-0.5c-0.5,0-0.9,0.1-1.2,0.3s-0.4,0.5-0.4,0.9c0,0.3,0.1,0.5,0.2,0.7s0.3,0.4,0.5,0.5s0.6,0.3,1.2,0.5
			c0.6,0.2,1.1,0.5,1.4,0.7s0.5,0.5,0.7,0.8S80.7,137.1,80.7,137.5z"/>
		<path id="XMLID_63_" class="st2" d="M85.3,139.9c-0.9,0-1.5-0.3-2-0.9h-0.1l0,0.2c0,0.3,0,0.6,0,0.8v2.6h-1.1v-9.3h0.9l0.1,0.9h0
			c0.3-0.4,0.5-0.6,0.9-0.8s0.7-0.2,1.1-0.2c0.8,0,1.5,0.3,1.9,0.9s0.7,1.4,0.7,2.5c0,1.1-0.2,1.9-0.7,2.5S86.2,139.9,85.3,139.9z
			 M85.2,134.1c-0.6,0-1.1,0.2-1.4,0.5s-0.4,0.9-0.4,1.7v0.2c0,0.9,0.1,1.5,0.4,1.9s0.8,0.6,1.4,0.6c0.5,0,1-0.2,1.3-0.7
			s0.5-1,0.5-1.8c0-0.8-0.2-1.4-0.5-1.8S85.7,134.1,85.2,134.1z"/>
		<path id="XMLID_60_" class="st2" d="M92.4,139.9c-1,0-1.7-0.3-2.3-0.9s-0.8-1.4-0.8-2.4c0-1,0.3-1.9,0.8-2.5s1.2-0.9,2.1-0.9
			c0.8,0,1.5,0.3,1.9,0.8s0.7,1.2,0.7,2.1v0.6h-4.4c0,0.7,0.2,1.3,0.6,1.7s0.8,0.6,1.5,0.6c0.3,0,0.7,0,1-0.1s0.7-0.2,1.1-0.4v0.9
			c-0.4,0.2-0.7,0.3-1,0.3S92.8,139.9,92.4,139.9z M92.1,134.1c-0.5,0-0.9,0.2-1.2,0.5s-0.5,0.8-0.5,1.4h3.3c0-0.6-0.1-1.1-0.4-1.4
			S92.6,134.1,92.1,134.1z"/>
		<path id="XMLID_58_" class="st2" d="M99,139.9c-0.9,0-1.6-0.3-2.2-0.9s-0.8-1.4-0.8-2.4c0-1.1,0.3-1.9,0.8-2.5s1.3-0.9,2.2-0.9
			c0.3,0,0.6,0,0.9,0.1s0.6,0.1,0.8,0.2l-0.3,0.9c-0.5-0.2-1-0.3-1.4-0.3c-0.6,0-1.1,0.2-1.4,0.6s-0.5,1-0.5,1.8
			c0,0.8,0.2,1.4,0.5,1.8s0.8,0.6,1.4,0.6c0.6,0,1.1-0.1,1.7-0.4v0.9C100.2,139.8,99.7,139.9,99,139.9z"/>
		<path id="XMLID_55_" class="st2" d="M102.1,131.6c0-0.2,0.1-0.4,0.2-0.5s0.3-0.2,0.4-0.2c0.2,0,0.3,0.1,0.4,0.2s0.2,0.3,0.2,0.5
			c0,0.2-0.1,0.4-0.2,0.5s-0.3,0.2-0.4,0.2c-0.2,0-0.3-0.1-0.4-0.2S102.1,131.9,102.1,131.6z M103.2,139.8h-1.1v-6.4h1.1V139.8z"/>
		<path id="XMLID_52_" class="st2" d="M109.3,139.8l-0.2-0.9h0c-0.3,0.4-0.6,0.7-1,0.8s-0.7,0.2-1.2,0.2c-0.6,0-1.1-0.2-1.5-0.5
			s-0.5-0.8-0.5-1.4c0-1.3,1-2,3.1-2.1l1.1,0v-0.4c0-0.5-0.1-0.8-0.3-1.1s-0.5-0.3-1-0.3c-0.3,0-0.7,0.1-1,0.2s-0.6,0.2-0.9,0.3
			l-0.3-0.8c0.3-0.2,0.7-0.3,1.1-0.4s0.8-0.1,1.1-0.1c0.8,0,1.4,0.2,1.7,0.5s0.6,0.9,0.6,1.6v4.4H109.3z M107.1,139.1
			c0.6,0,1.1-0.2,1.4-0.5s0.5-0.8,0.5-1.4v-0.6l-0.9,0c-0.7,0-1.3,0.1-1.6,0.4s-0.5,0.5-0.5,1c0,0.3,0.1,0.6,0.3,0.8
			S106.7,139.1,107.1,139.1z"/>
		<path id="XMLID_50_" class="st2" d="M113.1,139.8H112v-9.1h1.1V139.8z"/>
		<path id="XMLID_48_" class="st2" d="M116.3,138.4l0.1,0.1c-0.2,0.8-0.6,1.8-1,2.8h-0.8c0.3-1,0.5-2,0.6-2.9H116.3z"/>
		<path id="XMLID_45_" class="st2" d="M34,149.9c0,1.4-0.3,2.4-1,3.2s-1.7,1.2-2.9,1.2c-1.3,0-2.2-0.4-2.9-1.2s-1-1.9-1-3.3
			c0-1.4,0.3-2.5,1-3.2s1.7-1.2,2.9-1.2c1.2,0,2.2,0.4,2.9,1.2S34,148.5,34,149.9z M27.2,149.9c0,1.1,0.2,2,0.7,2.6s1.2,0.9,2.1,0.9
			c0.9,0,1.6-0.3,2.1-0.9c0.5-0.6,0.7-1.5,0.7-2.6c0-1.1-0.2-2-0.7-2.6c-0.5-0.6-1.2-0.9-2.1-0.9c-0.9,0-1.6,0.3-2.1,0.9
			S27.2,148.8,27.2,149.9z"/>
		<path id="XMLID_43_" class="st2" d="M40.1,154.2v-4.1c0-0.5-0.1-0.9-0.3-1.2s-0.6-0.4-1.1-0.4c-0.7,0-1.1,0.2-1.4,0.5
			s-0.4,1-0.4,1.8v3.3h-1.1v-6.4h0.8l0.2,0.9h0.1c0.2-0.3,0.5-0.6,0.8-0.7s0.8-0.3,1.2-0.3c0.8,0,1.4,0.2,1.8,0.6s0.6,1,0.6,1.8v4.2
			H40.1z"/>
		<path id="XMLID_41_" class="st2" d="M44.2,154.2h-1.1v-9.1h1.1V154.2z"/>
		<path id="XMLID_39_" class="st2" d="M45.3,147.8h1.1l1.4,3.7c0.3,0.8,0.5,1.4,0.5,1.8h0c0-0.1,0.1-0.4,0.2-0.8s0.2-0.7,0.3-1
			l1.3-3.7h1.1l-2.8,7.3c-0.3,0.7-0.6,1.2-1,1.5s-0.8,0.5-1.4,0.5c-0.3,0-0.6,0-0.9-0.1v-0.8c0.2,0,0.4,0.1,0.7,0.1
			c0.3,0,0.6-0.1,0.9-0.3s0.4-0.5,0.6-0.9l0.3-0.9L45.3,147.8z"/>
		<path id="XMLID_36_" class="st2" d="M61.1,151c0,1.1-0.3,1.9-0.8,2.5s-1.3,0.9-2.2,0.9c-0.6,0-1.1-0.1-1.5-0.4s-0.8-0.7-1-1.2
			s-0.4-1.1-0.4-1.8c0-1,0.3-1.9,0.8-2.4s1.3-0.9,2.2-0.9c0.9,0,1.6,0.3,2.2,0.9S61.1,150,61.1,151z M56.2,151
			c0,0.8,0.2,1.4,0.5,1.8s0.8,0.6,1.4,0.6c0.6,0,1.1-0.2,1.4-0.6s0.5-1,0.5-1.8s-0.2-1.4-0.5-1.8s-0.8-0.6-1.4-0.6
			C56.8,148.5,56.2,149.4,56.2,151z"/>
		<path id="XMLID_34_" class="st2" d="M67.1,154.2v-4.1c0-0.5-0.1-0.9-0.3-1.2s-0.6-0.4-1.1-0.4c-0.7,0-1.1,0.2-1.4,0.5
			c-0.3,0.4-0.4,1-0.4,1.8v3.3h-1.1v-6.4h0.8l0.2,0.9h0.1c0.2-0.3,0.5-0.6,0.8-0.7s0.8-0.3,1.2-0.3c0.8,0,1.4,0.2,1.8,0.6
			s0.6,1,0.6,1.8v4.2H67.1z"/>
		<path id="XMLID_31_" class="st2" d="M72.9,154.3c-1,0-1.7-0.3-2.3-0.9s-0.8-1.4-0.8-2.4c0-1,0.3-1.9,0.8-2.5s1.2-0.9,2.1-0.9
			c0.8,0,1.5,0.3,1.9,0.8s0.7,1.2,0.7,2.1v0.6h-4.4c0,0.7,0.2,1.3,0.6,1.7s0.8,0.6,1.5,0.6c0.3,0,0.7,0,1-0.1s0.7-0.2,1.1-0.4v0.9
			c-0.4,0.2-0.7,0.3-1,0.3S73.3,154.3,72.9,154.3z M72.6,148.5c-0.5,0-0.9,0.2-1.2,0.5s-0.5,0.8-0.5,1.4h3.3c0-0.6-0.1-1.1-0.4-1.4
			S73.1,148.5,72.6,148.5z"/>
	</g>
</g>
<g id="XMLID_23_">
	<circle id="XMLID_27_" class="st3" cx="9.5" cy="118.7" r="4"/>
	<path id="XMLID_26_" class="st3" d="M5.4,118.7h8.1v10.1C13.5,128.8,5.4,123.9,5.4,118.7z"/>
	<circle id="XMLID_25_" class="st3" cx="17.5" cy="118.5" r="4"/>
	<path id="XMLID_24_" class="st3" d="M21.6,118.5h-8.1v10.1C13.5,128.6,21.6,123.7,21.6,118.5z"/>
</g>
<g id="XMLID_15_">
	<path id="XMLID_20_" class="st1" d="M60.5,54.6c0,5.9-1.7,10.4-5,13.5s-8.2,4.7-14.5,4.7H30.9V37.1h11.2c5.8,0,10.4,1.5,13.6,4.6
		S60.5,49.1,60.5,54.6z M52.6,54.8c0-7.7-3.4-11.5-10.2-11.5h-4v23.2h3.2C49,66.6,52.6,62.7,52.6,54.8z"/>
	<path id="XMLID_18_" class="st1" d="M81.2,72.8H65v-4.3l4.3-2V43.4l-4.3-2v-4.3h16.2v4.3l-4.3,2v23.1l4.3,2V72.8z"/>
	<path id="XMLID_16_" class="st1" d="M98.4,51.8l7.4-14.7h8.2l-11.8,21.8v13.9h-7.5V59.2l-11.8-22H91L98.4,51.8z"/>
</g>
</svg>