<!-- Generator: Adobe Illustrator 19.0.0, SVG Export Plug-In  -->
<svg version="1.1"
	 xmlns="http://www.w3.org/2000/svg" xmlns:xlink="http://www.w3.org/1999/xlink" xmlns:a="http://ns.adobe.com/AdobeSVGViewerExtensions/3.0/"
	 x="0px" y="0px" width="149px" height="100.5px" viewBox="0 0 149 100.5" style="enable-background:new 0 0 149 100.5;"
	 xml:space="preserve">
<style type="text/css">
	.st0{fill:#FFFFFF;}
	.st1{fill:#494949;}
	.st2{fill:#8C8889;}
	.st3{fill:#F7F5F5;}
</style>
<defs>
</defs>
<g id="XMLID_21_">
	<path id="XMLID_24_" class="st0" d="M39.7,81.2H22.8V34.9l0.2-7.6l0.3-8.3c-2.8,2.8-4.8,4.7-5.9,5.5l-9.2,7.4L0,21.7L25.8,1.2h13.9
		V81.2z"/>
	<path id="XMLID_22_" class="st0" d="M114.9,19.1c0,5-1.5,9.3-4.5,12.8c-3,3.5-7.3,5.9-12.8,7.2v0.3c6.5,0.8,11.4,2.8,14.7,5.9
		c3.3,3.1,5,7.3,5,12.6c0,7.7-2.8,13.7-8.4,18c-5.6,4.3-13.6,6.4-23.9,6.4c-8.7,0-16.4-1.4-23.1-4.3V63.6c3.1,1.6,6.5,2.8,10.2,3.8
		s7.4,1.5,11.1,1.5c5.6,0,9.7-0.9,12.4-2.8c2.7-1.9,4-4.9,4-9.1c0-3.8-1.5-6.4-4.6-8c-3.1-1.6-8-2.4-14.7-2.4h-6.1v-13h6.2
		c6.2,0,10.7-0.8,13.6-2.4c2.9-1.6,4.3-4.4,4.3-8.4c0-6.1-3.8-9.1-11.4-9.1c-2.6,0-5.3,0.4-8,1.3c-2.7,0.9-5.7,2.4-9.1,4.5L61.9,7.9
		C69.2,2.6,77.9,0,88,0c8.3,0,14.8,1.7,19.6,5C112.5,8.4,114.9,13.1,114.9,19.1z"/>
</g>
<circle id="XMLID_20_" class="st1" cx="122.9" cy="74.4" r="26.1"/>
<circle id="XMLID_19_" class="st2" cx="122.6" cy="71.6" r="13.6"/>
<rect id="XMLID_18_" x="114.9" y="74.4" class="st2" width="15.2" height="14.2"/>
<circle id="XMLID_17_" class="st3" cx="117.2" cy="76.7" r="2.3"/>
<circle id="XMLID_16_" class="st3" cx="128.4" cy="76.7" r="2.3"/>
<path id="XMLID_15_" class="st3" d="M122.6,79.8L122.6,79.8c-0.4,0-0.8-0.4-0.8-0.8v-1.5c0-0.4,0.4-0.8,0.8-0.8h0
	c0.4,0,0.8,0.4,0.8,0.8V79C123.4,79.5,123,79.8,122.6,79.8z"/>
</svg>