<!-- Generator: Adobe Illustrator 19.0.0, SVG Export Plug-In  -->
<svg version="1.1"
	 xmlns="http://www.w3.org/2000/svg" xmlns:xlink="http://www.w3.org/1999/xlink" xmlns:a="http://ns.adobe.com/AdobeSVGViewerExtensions/3.0/"
	 x="0px" y="0px" width="578.2px" height="578.2px" viewBox="0 0 578.2 578.2" style="enable-background:new 0 0 578.2 578.2;"
	 xml:space="preserve">
<style type="text/css">
	.st0{fill:#E0E0E0;stroke:#15103F;stroke-width:3;stroke-miterlimit:10;}
	.st1{fill:#EE2361;stroke:#15103F;stroke-width:3;stroke-miterlimit:10;}
	.st2{fill:#FFFFFF;}
	.st3{fill:#F9F9F8;stroke:#15103F;stroke-width:3;stroke-miterlimit:10;}
	.st4{fill:#EE2361;stroke:#15103F;stroke-width:3;stroke-linecap:round;stroke-linejoin:round;stroke-miterlimit:10;}
</style>
<defs>
</defs>
<rect x="1.5" y="1.5" class="st0" width="575.2" height="575.2"/>
<rect x="1.5" y="1.5" class="st1" width="575.2" height="287.6"/>
<g>
	<g>
		<path class="st2" d="M194.4,58.7c0,2.2-0.8,4-2.4,5.3c-1.6,1.3-3.8,1.9-6.7,1.9c-2.6,0-5-0.5-7-1.5v-4.9c1.7,0.7,3.1,1.3,4.2,1.6
			c1.2,0.3,2.2,0.5,3.2,0.5c1.1,0,2-0.2,2.6-0.7c0.6-0.4,0.9-1.1,0.9-2c0-0.5-0.1-0.9-0.4-1.3c-0.3-0.4-0.7-0.7-1.2-1.1
			c-0.5-0.3-1.6-0.9-3.2-1.7c-1.5-0.7-2.6-1.4-3.4-2c-0.8-0.7-1.4-1.4-1.8-2.3c-0.5-0.9-0.7-1.9-0.7-3c0-2.2,0.7-3.9,2.2-5.1
			c1.5-1.2,3.5-1.9,6.1-1.9c1.3,0,2.5,0.2,3.7,0.5c1.2,0.3,2.4,0.7,3.6,1.3l-1.7,4.1c-1.3-0.5-2.4-0.9-3.3-1.1
			c-0.9-0.2-1.7-0.3-2.5-0.3c-1,0-1.7,0.2-2.3,0.7c-0.5,0.5-0.8,1.1-0.8,1.8c0,0.5,0.1,0.9,0.3,1.2c0.2,0.3,0.6,0.7,1,1
			c0.5,0.3,1.6,0.9,3.3,1.7c2.3,1.1,3.9,2.2,4.7,3.3S194.4,57.1,194.4,58.7z"/>
		<path class="st2" d="M206.4,61.8c0.9,0,2-0.2,3.2-0.6v3.8c-1.3,0.6-2.9,0.9-4.7,0.9c-2.1,0-3.6-0.5-4.5-1.6
			c-0.9-1-1.4-2.6-1.4-4.7v-9.1h-2.5v-2.2l2.8-1.7l1.5-4h3.3v4h5.3v3.9h-5.3v9.1c0,0.7,0.2,1.3,0.6,1.6
			C205.2,61.6,205.8,61.8,206.4,61.8z"/>
		<path class="st2" d="M224,46.4c0.7,0,1.3,0.1,1.7,0.2l-0.4,4.8c-0.4-0.1-0.9-0.2-1.5-0.2c-1.6,0-2.9,0.4-3.8,1.3s-1.4,2-1.4,3.5
			v9.6h-5.1V46.7h3.9l0.8,3.2h0.3c0.6-1.1,1.4-1.9,2.4-2.6C221.8,46.7,222.8,46.4,224,46.4z"/>
		<path class="st2" d="M240.8,65.6l-1-2.6h-0.1c-0.9,1.1-1.8,1.8-2.7,2.3s-2.1,0.6-3.6,0.6c-1.8,0-3.2-0.5-4.3-1.5
			c-1-1-1.6-2.5-1.6-4.4c0-2,0.7-3.5,2.1-4.4s3.5-1.5,6.3-1.6l3.3-0.1V53c0-1.9-1-2.9-2.9-2.9c-1.5,0-3.3,0.5-5.3,1.4l-1.7-3.5
			c2.2-1.1,4.6-1.7,7.2-1.7c2.5,0,4.5,0.5,5.8,1.7c1.3,1.1,2,2.8,2,5v12.6H240.8z M239.3,56.9l-2,0.1c-1.5,0-2.6,0.3-3.3,0.8
			c-0.7,0.5-1.1,1.2-1.1,2.3c0,1.4,0.8,2.2,2.5,2.2c1.2,0,2.1-0.3,2.9-1c0.7-0.7,1.1-1.6,1.1-2.7V56.9z"/>
		<path class="st2" d="M265.2,65.6l-1.4-6.6l-1.9-8.3h-0.2l-3.4,14.9h-5.5l-5.4-18.8h5.1l2.2,8.3c0.2,1,0.6,3,1,6.2h0.1
			c0-0.9,0.2-2.2,0.6-4.1l0.3-1.4l2.3-9h5.7l2.2,9c0.1,0.6,0.3,1.5,0.5,2.7s0.3,2.1,0.3,2.8h0.1c0.1-1,0.3-2.1,0.5-3.4
			c0.2-1.3,0.4-2.2,0.6-2.8l2.3-8.3h5l-5.4,18.8H265.2z"/>
		<path class="st2" d="M289.7,46.4c2.2,0,4,0.9,5.2,2.6c1.3,1.7,1.9,4.1,1.9,7.1c0,3.1-0.6,5.5-1.9,7.2c-1.3,1.7-3.1,2.6-5.3,2.6
			c-2.2,0-3.9-0.8-5.2-2.4H284l-0.9,2.1h-3.9V39.4h5.1v6.1c0,0.8-0.1,2-0.2,3.7h0.2C285.6,47.3,287.3,46.4,289.7,46.4z M288,50.5
			c-1.3,0-2.2,0.4-2.8,1.2c-0.6,0.8-0.9,2.1-0.9,3.9v0.6c0,2,0.3,3.5,0.9,4.3c0.6,0.9,1.6,1.3,2.9,1.3c1.1,0,1.9-0.5,2.5-1.5
			c0.6-1,0.9-2.4,0.9-4.2s-0.3-3.2-0.9-4.2C290,51,289.1,50.5,288,50.5z"/>
		<path class="st2" d="M309.6,65.9c-3,0-5.4-0.8-7.1-2.5c-1.7-1.7-2.6-4-2.6-7.1c0-3.2,0.8-5.6,2.4-7.3s3.8-2.6,6.5-2.6
			c2.7,0,4.7,0.8,6.2,2.3c1.5,1.5,2.2,3.6,2.2,6.3v2.5h-12.2c0.1,1.5,0.5,2.6,1.3,3.4c0.8,0.8,1.9,1.2,3.4,1.2
			c1.1,0,2.2-0.1,3.2-0.4c1-0.2,2.1-0.6,3.2-1.1v4c-0.9,0.4-1.9,0.8-2.9,1C312.3,65.8,311,65.9,309.6,65.9z M308.9,50
			c-1.1,0-1.9,0.3-2.6,1c-0.6,0.7-1,1.7-1.1,2.9h7.2c0-1.3-0.4-2.3-1-2.9C310.8,50.4,309.9,50,308.9,50z"/>
		<path class="st2" d="M332,46.4c0.7,0,1.3,0.1,1.7,0.2l-0.4,4.8c-0.4-0.1-0.9-0.2-1.5-0.2c-1.6,0-2.9,0.4-3.8,1.3s-1.4,2-1.4,3.5
			v9.6h-5.1V46.7h3.9l0.8,3.2h0.3c0.6-1.1,1.4-1.9,2.4-2.6C329.7,46.7,330.8,46.4,332,46.4z"/>
		<path class="st2" d="M347.6,46.4c0.7,0,1.3,0.1,1.7,0.2l-0.4,4.8c-0.4-0.1-0.9-0.2-1.5-0.2c-1.6,0-2.9,0.4-3.8,1.3s-1.4,2-1.4,3.5
			v9.6h-5.1V46.7h3.9l0.8,3.2h0.3c0.6-1.1,1.4-1.9,2.4-2.6C345.4,46.7,346.5,46.4,347.6,46.4z"/>
		<path class="st2" d="M350.1,46.7h5.6l3.6,10.6c0.3,0.9,0.5,2,0.6,3.3h0.1c0.1-1.2,0.4-2.2,0.7-3.3l3.5-10.6h5.5l-8,21.2
			c-0.7,2-1.8,3.4-3.1,4.4c-1.4,1-2.9,1.5-4.7,1.5c-0.9,0-1.8-0.1-2.6-0.3v-4.1c0.6,0.1,1.3,0.2,2,0.2c0.9,0,1.7-0.3,2.4-0.8
			c0.7-0.6,1.2-1.4,1.6-2.5l0.3-0.9L350.1,46.7z"/>
		<path class="st2" d="M371,63.2c0-0.9,0.3-1.7,0.8-2.1c0.5-0.5,1.2-0.7,2.2-0.7c0.9,0,1.7,0.2,2.2,0.7c0.5,0.5,0.8,1.2,0.8,2.1
			c0,0.9-0.3,1.6-0.8,2.1c-0.5,0.5-1.2,0.8-2.2,0.8c-0.9,0-1.7-0.3-2.2-0.8C371.3,64.8,371,64.1,371,63.2z"/>
		<path class="st2" d="M399,65.6h-5.1v-11c0-1.4-0.2-2.4-0.7-3.1c-0.5-0.7-1.3-1-2.3-1c-1.4,0-2.5,0.5-3.1,1.4c-0.6,1-1,2.6-1,4.8
			v8.9h-5.1V46.7h3.9l0.7,2.4h0.3c0.6-0.9,1.4-1.6,2.4-2.1c1-0.5,2.1-0.7,3.4-0.7c2.2,0,3.9,0.6,5,1.8c1.1,1.2,1.7,2.9,1.7,5.1V65.6
			z"/>
		<path class="st2" d="M412.8,65.9c-3,0-5.4-0.8-7.1-2.5c-1.7-1.7-2.6-4-2.6-7.1c0-3.2,0.8-5.6,2.4-7.3s3.8-2.6,6.5-2.6
			c2.7,0,4.7,0.8,6.2,2.3c1.5,1.5,2.2,3.6,2.2,6.3v2.5h-12.2c0.1,1.5,0.5,2.6,1.3,3.4c0.8,0.8,1.9,1.2,3.4,1.2
			c1.1,0,2.2-0.1,3.2-0.4c1-0.2,2.1-0.6,3.2-1.1v4c-0.9,0.4-1.9,0.8-2.9,1C415.5,65.8,414.3,65.9,412.8,65.9z M412.1,50
			c-1.1,0-1.9,0.3-2.6,1c-0.6,0.7-1,1.7-1.1,2.9h7.2c0-1.3-0.4-2.3-1-2.9C414,50.4,413.2,50,412.1,50z"/>
		<path class="st2" d="M432.6,61.8c0.9,0,2-0.2,3.2-0.6v3.8c-1.3,0.6-2.9,0.9-4.7,0.9c-2.1,0-3.6-0.5-4.5-1.6
			c-0.9-1-1.4-2.6-1.4-4.7v-9.1h-2.5v-2.2l2.8-1.7l1.5-4h3.3v4h5.3v3.9h-5.3v9.1c0,0.7,0.2,1.3,0.6,1.6
			C431.4,61.6,431.9,61.8,432.6,61.8z"/>
	</g>
</g>
<g>
	<path class="st2" d="M111.9,156.1c-1.8,0-3.3-0.2-4.6-0.6v-6.5c1.3,0.3,2.6,0.5,3.7,0.5c1.7,0,2.9-0.5,3.7-1.6
		c0.7-1.1,1.1-2.7,1.1-5v-34.4h7.8v34.3c0,4.3-1,7.5-2.9,9.8C118.6,155,115.7,156.1,111.9,156.1z"/>
	<path class="st2" d="M149.9,145.3l-1.5-3.8h-0.2c-1.3,1.6-2.6,2.7-4,3.4c-1.4,0.6-3.1,0.9-5.3,0.9c-2.7,0-4.8-0.8-6.4-2.3
		c-1.5-1.5-2.3-3.7-2.3-6.6c0-3,1-5.2,3.1-6.6c2.1-1.4,5.2-2.2,9.4-2.3l4.9-0.2v-1.2c0-2.8-1.5-4.3-4.4-4.3c-2.2,0-4.9,0.7-7.9,2
		l-2.5-5.2c3.2-1.7,6.8-2.5,10.7-2.5c3.8,0,6.7,0.8,8.7,2.5c2,1.6,3,4.1,3,7.5v18.7H149.9z M147.7,132.3l-3,0.1
		c-2.2,0.1-3.9,0.5-5,1.2c-1.1,0.7-1.6,1.9-1.6,3.4c0,2.2,1.2,3.2,3.7,3.2c1.8,0,3.2-0.5,4.3-1.5c1.1-1,1.6-2.4,1.6-4.1V132.3z"/>
	<path class="st2" d="M189.1,145.3h-7.7v-16.4c0-2-0.4-3.5-1.1-4.6s-1.9-1.5-3.4-1.5c-2.1,0-3.7,0.7-4.6,2.1s-1.4,3.8-1.4,7.1v13.2
		h-7.7v-28.1h5.8l1,3.6h0.4c0.9-1.4,2-2.4,3.5-3.1c1.5-0.7,3.2-1,5.1-1c3.3,0,5.7,0.9,7.4,2.6s2.5,4.3,2.5,7.6V145.3z"/>
	<path class="st2" d="M216.8,145.3l-1-3.6h-0.4c-0.8,1.3-2,2.3-3.5,3c-1.5,0.7-3.2,1.1-5.1,1.1c-3.3,0-5.8-0.9-7.5-2.6
		c-1.7-1.8-2.5-4.3-2.5-7.6v-18.3h7.7v16.4c0,2,0.4,3.5,1.1,4.6s1.9,1.5,3.4,1.5c2.1,0,3.7-0.7,4.6-2.1s1.4-3.8,1.4-7.1v-13.2h7.7
		v28.1H216.8z"/>
	<path class="st2" d="M248.6,145.3l-1.5-3.8h-0.2c-1.3,1.6-2.6,2.7-4,3.4c-1.4,0.6-3.1,0.9-5.3,0.9c-2.7,0-4.8-0.8-6.4-2.3
		c-1.5-1.5-2.3-3.7-2.3-6.6c0-3,1-5.2,3.1-6.6c2.1-1.4,5.2-2.2,9.4-2.3l4.9-0.2v-1.2c0-2.8-1.5-4.3-4.4-4.3c-2.2,0-4.9,0.7-7.9,2
		l-2.5-5.2c3.2-1.7,6.8-2.5,10.7-2.5c3.8,0,6.7,0.8,8.7,2.5c2,1.6,3,4.1,3,7.5v18.7H248.6z M246.3,132.3l-3,0.1
		c-2.2,0.1-3.9,0.5-5,1.2c-1.1,0.7-1.6,1.9-1.6,3.4c0,2.2,1.2,3.2,3.7,3.2c1.8,0,3.2-0.5,4.3-1.5c1.1-1,1.6-2.4,1.6-4.1V132.3z"/>
	<path class="st2" d="M277.5,116.7c1,0,1.9,0.1,2.6,0.2l-0.6,7.2c-0.6-0.2-1.4-0.3-2.3-0.3c-2.4,0-4.3,0.6-5.7,1.9
		c-1.4,1.3-2,3-2,5.3v14.3h-7.7v-28.1h5.8l1.1,4.7h0.4c0.9-1.6,2-2.8,3.5-3.8C274.1,117.2,275.7,116.7,277.5,116.7z"/>
	<path class="st2" d="M281.1,117.2h8.4l5.3,15.8c0.5,1.4,0.8,3,0.9,4.9h0.2c0.2-1.7,0.5-3.3,1.1-4.9l5.2-15.8h8.2l-11.9,31.7
		c-1.1,2.9-2.6,5.1-4.7,6.6c-2,1.5-4.4,2.2-7.1,2.2c-1.3,0-2.6-0.1-3.9-0.4v-6.1c0.9,0.2,1.9,0.3,3,0.3c1.4,0,2.5-0.4,3.6-1.2
		s1.8-2.1,2.4-3.8l0.5-1.4L281.1,117.2z"/>
	<path class="st2" d="M342.5,145.3h-7.8v-30.2h-10v-6.5h27.7v6.5h-10V145.3z"/>
	<path class="st2" d="M381.3,131.2c0,4.6-1.2,8.1-3.6,10.7c-2.4,2.6-5.8,3.9-10.1,3.9c-2.7,0-5.1-0.6-7.1-1.8
		c-2.1-1.2-3.6-2.9-4.7-5.1s-1.7-4.8-1.7-7.7c0-4.6,1.2-8.1,3.6-10.7c2.4-2.5,5.8-3.8,10.1-3.8c2.7,0,5.1,0.6,7.1,1.8
		c2.1,1.2,3.6,2.9,4.7,5S381.3,128.3,381.3,131.2z M361.9,131.2c0,2.8,0.5,4.9,1.4,6.3c0.9,1.4,2.4,2.1,4.5,2.1c2,0,3.5-0.7,4.4-2.1
		c0.9-1.4,1.3-3.5,1.3-6.3c0-2.8-0.5-4.9-1.4-6.3c-0.9-1.4-2.4-2.1-4.4-2.1c-2,0-3.5,0.7-4.4,2.1
		C362.3,126.3,361.9,128.4,361.9,131.2z"/>
	<path class="st2" d="M403,145.8c-3.3,0-5.9-1.2-7.8-3.6h-0.4c0.3,2.3,0.4,3.7,0.4,4.1v11.4h-7.7v-40.4h6.2l1.1,3.6h0.4
		c1.8-2.8,4.4-4.2,8-4.2c3.3,0,5.9,1.3,7.8,3.8c1.9,2.6,2.8,6.1,2.8,10.7c0,3-0.4,5.6-1.3,7.8c-0.9,2.2-2.1,3.9-3.8,5
		C407.1,145.2,405.2,145.8,403,145.8z M400.7,122.8c-1.9,0-3.3,0.6-4.1,1.7c-0.9,1.2-1.3,3.1-1.4,5.8v0.8c0,3,0.4,5.2,1.3,6.5
		s2.3,2,4.3,2c3.4,0,5.1-2.8,5.1-8.5c0-2.8-0.4-4.8-1.3-6.2C403.9,123.5,402.6,122.8,400.7,122.8z"/>
	<path class="st2" d="M458,137.7h-4.4v7.6H446v-7.6h-15.7v-5.4l16.1-23.7h7.2v23.1h4.4V137.7z M446,131.7v-6.2c0-1,0-2.5,0.1-4.5
		c0.1-2,0.2-3.1,0.2-3.4h-0.2c-0.6,1.4-1.4,2.7-2.2,4l-6.7,10.2H446z"/>
	<path class="st2" d="M486.4,126.9c0,6.4-1.1,11.2-3.2,14.2c-2.1,3.1-5.3,4.6-9.7,4.6c-4.2,0-7.4-1.6-9.6-4.8s-3.2-7.9-3.2-14.1
		c0-6.5,1-11.3,3.1-14.3s5.3-4.6,9.7-4.6c4.2,0,7.4,1.6,9.6,4.8C485.3,116.1,486.4,120.8,486.4,126.9z M468.4,126.9
		c0,4.5,0.4,7.7,1.2,9.7s2.1,2.9,3.9,2.9c1.8,0,3.1-1,3.9-3c0.8-2,1.2-5.2,1.2-9.6c0-4.5-0.4-7.7-1.2-9.7c-0.8-2-2.1-3-3.9-3
		c-1.8,0-3.1,1-3.9,3C468.8,119.2,468.4,122.4,468.4,126.9z"/>
	<path class="st2" d="M175.8,170.3V194c0,4.2-1.3,7.5-3.8,9.9c-2.5,2.4-6,3.6-10.5,3.6c-4.4,0-7.9-1.2-10.3-3.6
		c-2.4-2.4-3.7-5.7-3.7-9.9v-23.6h4.6v23.8c0,3,0.8,5.3,2.4,7c1.6,1.6,4,2.5,7.2,2.5c3,0,5.4-0.8,7-2.4s2.4-4,2.4-7v-23.7H175.8z"/>
	<path class="st2" d="M197.9,207.5c-3.7,0-6.5-1.3-8.5-4H189l0.1,1c0.1,1.3,0.2,2.5,0.2,3.5v11.3h-4.5v-39.9h3.7l0.6,3.8h0.2
		c1.1-1.5,2.3-2.6,3.7-3.3c1.4-0.7,3-1,4.9-1c3.6,0,6.4,1.2,8.3,3.7c2,2.5,3,6,3,10.5c0,4.5-1,8-3,10.5
		C204.3,206.2,201.5,207.5,197.9,207.5z M197.1,182.7c-2.7,0-4.7,0.8-5.9,2.3c-1.2,1.5-1.8,4-1.9,7.3v0.9c0,3.7,0.6,6.4,1.9,8.1
		c1.2,1.7,3.2,2.5,6,2.5c2.3,0,4.1-0.9,5.4-2.8c1.3-1.9,1.9-4.5,1.9-7.8c0-3.4-0.6-5.9-1.9-7.7S199.5,182.7,197.1,182.7z"/>
	<path class="st2" d="M239,203.8c0.6,0,1.3-0.1,2.1-0.2c0.8-0.1,1.4-0.3,1.8-0.4v3.5c-0.4,0.2-1.1,0.4-1.9,0.5
		c-0.9,0.2-1.8,0.3-2.7,0.3c-5.4,0-8.1-2.8-8.1-8.5v-16h-3.9v-2.2l3.9-1.8l1.8-5.9h2.7v6.3h8v3.5h-8v15.9c0,1.6,0.4,2.8,1.1,3.7
		C236.6,203.4,237.7,203.8,239,203.8z"/>
	<path class="st2" d="M272.3,193.2c0,4.5-1.1,8-3.4,10.5c-2.3,2.5-5.4,3.8-9.4,3.8c-2.5,0-4.7-0.6-6.6-1.7s-3.4-2.8-4.4-5
		c-1-2.2-1.6-4.7-1.6-7.6c0-4.5,1.1-8,3.4-10.5s5.4-3.8,9.4-3.8c3.9,0,7,1.3,9.3,3.8C271.2,185.3,272.3,188.8,272.3,193.2z
		 M251.5,193.2c0,3.5,0.7,6.1,2,7.9c1.4,1.8,3.4,2.7,6,2.7c2.6,0,4.6-0.9,6-2.7s2.1-4.4,2.1-7.9c0-3.5-0.7-6.1-2.1-7.8
		c-1.4-1.7-3.4-2.6-6.1-2.6C254.2,182.7,251.5,186.2,251.5,193.2z"/>
	<path class="st2" d="M295.5,207l15.1-32.6h-19.8v-4.1h24.6v3.5L300.4,207H295.5z"/>
	<path class="st2" d="M332,184.5c3.8,0,6.8,1,9,2.9c2.2,1.9,3.3,4.6,3.3,7.9c0,3.8-1.2,6.8-3.6,9c-2.4,2.2-5.8,3.3-10.1,3.3
		c-4.1,0-7.3-0.7-9.5-2v-4.3c1.2,0.7,2.7,1.3,4.5,1.8c1.7,0.4,3.4,0.7,5.1,0.7c2.9,0,5.1-0.7,6.7-2.1c1.6-1.4,2.4-3.3,2.4-5.9
		c0-5-3.1-7.4-9.2-7.4c-2,0-4.1,0.3-6.3,0.8l-2.3-1.4l1.4-17.3h18.4v4.1h-14.5l-0.9,10.6C328.3,184.7,330.1,184.5,332,184.5z"/>
	<path class="st2" d="M365,181.2c0,3.8-0.7,6.7-2,8.6c-1.3,2-3.2,2.9-5.8,2.9c-2.4,0-4.2-1-5.5-3s-2-4.9-2-8.6
		c0-3.8,0.6-6.7,1.9-8.6c1.3-1.9,3.1-2.9,5.6-2.9c2.5,0,4.4,1,5.7,3C364.3,174.7,365,177.6,365,181.2z M353.5,181.2
		c0,2.8,0.3,4.8,0.9,6.2c0.6,1.4,1.5,2.1,2.8,2.1c2.6,0,4-2.8,4-8.3c0-5.5-1.3-8.3-4-8.3c-1.3,0-2.3,0.7-2.8,2.1
		C353.8,176.4,353.5,178.5,353.5,181.2z M380.8,170.3L360.4,207h-3.9l20.4-36.7H380.8z M387.5,195.9c0,3.8-0.7,6.7-2,8.6
		c-1.3,2-3.2,2.9-5.7,2.9c-2.4,0-4.2-1-5.5-3c-1.3-2-2-4.8-2-8.5c0-3.8,0.6-6.7,1.9-8.6s3.1-2.9,5.6-2.9s4.4,1,5.7,3
		C386.8,189.4,387.5,192.3,387.5,195.9z M376,195.9c0,2.8,0.3,4.9,0.9,6.3c0.6,1.4,1.5,2.1,2.8,2.1c1.4,0,2.4-0.7,3-2
		c0.6-1.4,1-3.5,1-6.3c0-5.5-1.3-8.2-4-8.2c-1.3,0-2.3,0.7-2.8,2C376.3,191.1,376,193.2,376,195.9z"/>
	<path class="st2" d="M431.6,193.2c0,4.5-1.1,8-3.4,10.5c-2.3,2.5-5.4,3.8-9.4,3.8c-2.5,0-4.7-0.6-6.6-1.7s-3.4-2.8-4.4-5
		c-1-2.2-1.6-4.7-1.6-7.6c0-4.5,1.1-8,3.4-10.5s5.4-3.8,9.4-3.8c3.9,0,7,1.3,9.3,3.8C430.5,185.3,431.6,188.8,431.6,193.2z
		 M410.8,193.2c0,3.5,0.7,6.1,2,7.9c1.4,1.8,3.4,2.7,6,2.7c2.6,0,4.6-0.9,6-2.7s2.1-4.4,2.1-7.9c0-3.5-0.7-6.1-2.1-7.8
		c-1.4-1.7-3.4-2.6-6.1-2.6C413.5,182.7,410.8,186.2,410.8,193.2z"/>
	<path class="st2" d="M451.5,182.9h-7v24H440v-24h-4.8v-2.1l4.8-1.6v-1.6c0-3.3,0.7-5.9,2.2-7.5c1.5-1.7,3.7-2.5,6.8-2.5
		c1.8,0,3.5,0.3,5.3,0.9l-1.2,3.5c-1.6-0.5-2.9-0.8-4.1-0.8c-1.5,0-2.7,0.5-3.4,1.5s-1.1,2.6-1.1,4.8v1.8h7V182.9z"/>
	<path class="st2" d="M469.2,182.9h-7v24h-4.5v-24h-4.8v-2.1l4.8-1.6v-1.6c0-3.3,0.7-5.9,2.2-7.5c1.5-1.7,3.7-2.5,6.8-2.5
		c1.8,0,3.5,0.3,5.3,0.9l-1.2,3.5c-1.6-0.5-2.9-0.8-4.1-0.8c-1.5,0-2.7,0.5-3.4,1.5s-1.1,2.6-1.1,4.8v1.8h7V182.9z"/>
</g>
<rect x="289.1" y="289.1" class="st3" width="287.6" height="287.6"/>
<g>
	<path d="M327.1,401.1c0,2.2-0.8,4-2.4,5.3c-1.6,1.3-3.8,1.9-6.7,1.9c-2.6,0-5-0.5-7-1.5v-4.9c1.7,0.7,3.1,1.3,4.2,1.6
		c1.2,0.3,2.2,0.5,3.2,0.5c1.1,0,2-0.2,2.6-0.7c0.6-0.4,0.9-1.1,0.9-2c0-0.5-0.1-0.9-0.4-1.3c-0.3-0.4-0.7-0.7-1.2-1.1
		c-0.5-0.3-1.6-0.9-3.2-1.7c-1.5-0.7-2.6-1.4-3.4-2c-0.8-0.7-1.4-1.4-1.8-2.3c-0.5-0.9-0.7-1.9-0.7-3c0-2.2,0.7-3.9,2.2-5.1
		c1.5-1.2,3.5-1.9,6.1-1.9c1.3,0,2.5,0.2,3.7,0.5c1.2,0.3,2.4,0.7,3.6,1.3l-1.7,4.1c-1.3-0.5-2.4-0.9-3.3-1.1
		c-0.9-0.2-1.7-0.3-2.5-0.3c-1,0-1.7,0.2-2.3,0.7c-0.5,0.5-0.8,1.1-0.8,1.8c0,0.5,0.1,0.9,0.3,1.2c0.2,0.3,0.6,0.7,1,1
		c0.5,0.3,1.6,0.9,3.3,1.7c2.3,1.1,3.9,2.2,4.7,3.3S327.1,399.5,327.1,401.1z"/>
	<path d="M343.1,407.9l-1-2.6H342c-0.9,1.1-1.8,1.8-2.7,2.3s-2.1,0.6-3.6,0.6c-1.8,0-3.2-0.5-4.3-1.5c-1-1-1.6-2.5-1.6-4.4
		c0-2,0.7-3.5,2.1-4.4s3.5-1.5,6.3-1.6l3.3-0.1v-0.8c0-1.9-1-2.9-2.9-2.9c-1.5,0-3.3,0.5-5.3,1.4l-1.7-3.5c2.2-1.1,4.6-1.7,7.2-1.7
		c2.5,0,4.5,0.5,5.8,1.7c1.3,1.1,2,2.8,2,5v12.6H343.1z M341.6,399.2l-2,0.1c-1.5,0-2.6,0.3-3.3,0.8c-0.7,0.5-1.1,1.2-1.1,2.3
		c0,1.4,0.8,2.2,2.5,2.2c1.2,0,2.1-0.3,2.9-1c0.7-0.7,1.1-1.6,1.1-2.7V399.2z"/>
	<path d="M356.4,407.9l-7.2-18.8h5.4l3.6,10.7c0.4,1.2,0.6,2.5,0.7,3.9h0.1c0.1-1.3,0.3-2.6,0.8-3.9l3.6-10.7h5.4l-7.2,18.8H356.4z"
		/>
	<path d="M380.1,408.3c-3,0-5.4-0.8-7.1-2.5c-1.7-1.7-2.6-4-2.6-7.1c0-3.2,0.8-5.6,2.4-7.3s3.8-2.6,6.5-2.6c2.7,0,4.7,0.8,6.2,2.3
		c1.5,1.5,2.2,3.6,2.2,6.3v2.5h-12.2c0.1,1.5,0.5,2.6,1.3,3.4c0.8,0.8,1.9,1.2,3.4,1.2c1.1,0,2.2-0.1,3.2-0.4c1-0.2,2.1-0.6,3.2-1.1
		v4c-0.9,0.4-1.9,0.8-2.9,1C382.8,408.1,381.6,408.3,380.1,408.3z M379.4,392.4c-1.1,0-1.9,0.3-2.6,1c-0.6,0.7-1,1.7-1.1,2.9h7.2
		c0-1.3-0.4-2.3-1-2.9C381.4,392.7,380.5,392.4,379.4,392.4z"/>
	<path d="M411.8,407.9l-5.9-19.3h-0.2c0.2,3.9,0.3,6.6,0.3,7.9v11.5h-4.7v-24.6h7.1l5.8,18.8h0.1l6.2-18.8h7.1v24.6h-4.9v-11.7
		c0-0.5,0-1.2,0-1.9c0-0.7,0.1-2.6,0.2-5.7h-0.2l-6.4,19.3H411.8z"/>
	<path d="M450.6,398.5c0,3.1-0.8,5.5-2.4,7.2c-1.6,1.7-3.9,2.6-6.8,2.6c-1.8,0-3.4-0.4-4.8-1.2s-2.4-1.9-3.2-3.4
		c-0.7-1.5-1.1-3.2-1.1-5.2c0-3.1,0.8-5.5,2.4-7.2s3.9-2.6,6.8-2.6c1.8,0,3.4,0.4,4.8,1.2s2.4,1.9,3.2,3.4
		C450.2,394.8,450.6,396.5,450.6,398.5z M437.6,398.5c0,1.9,0.3,3.3,0.9,4.2s1.6,1.4,3,1.4c1.4,0,2.4-0.5,3-1.4
		c0.6-0.9,0.9-2.4,0.9-4.2c0-1.9-0.3-3.3-0.9-4.2s-1.6-1.4-3-1.4c-1.4,0-2.4,0.5-3,1.4C437.9,395.2,437.6,396.6,437.6,398.5z"/>
	<path d="M465.4,388.7c0.7,0,1.3,0.1,1.7,0.2l-0.4,4.8c-0.4-0.1-0.9-0.2-1.5-0.2c-1.6,0-2.9,0.4-3.8,1.3s-1.4,2-1.4,3.5v9.6h-5.1
		v-18.8h3.9l0.8,3.2h0.3c0.6-1.1,1.4-1.9,2.4-2.6C463.1,389,464.2,388.7,465.4,388.7z"/>
	<path d="M478.7,408.3c-3,0-5.4-0.8-7.1-2.5c-1.7-1.7-2.6-4-2.6-7.1c0-3.2,0.8-5.6,2.4-7.3s3.8-2.6,6.5-2.6c2.7,0,4.7,0.8,6.2,2.3
		c1.5,1.5,2.2,3.6,2.2,6.3v2.5h-12.2c0.1,1.5,0.5,2.6,1.3,3.4c0.8,0.8,1.9,1.2,3.4,1.2c1.1,0,2.2-0.1,3.2-0.4c1-0.2,2.1-0.6,3.2-1.1
		v4c-0.9,0.4-1.9,0.8-2.9,1C481.4,408.1,480.2,408.3,478.7,408.3z M478,392.4c-1.1,0-1.9,0.3-2.6,1c-0.6,0.7-1,1.7-1.1,2.9h7.2
		c0-1.3-0.4-2.3-1-2.9C480,392.7,479.1,392.4,478,392.4z"/>
	<path d="M327.6,449.3l-1.4-6.6l-1.9-8.3h-0.2l-3.4,14.9h-5.5l-5.4-18.8h5.1l2.2,8.3c0.2,1,0.6,3,1,6.2h0.1c0-0.9,0.2-2.2,0.6-4.1
		l0.3-1.4l2.3-9h5.7l2.2,9c0.1,0.6,0.3,1.5,0.5,2.7s0.3,2.1,0.3,2.8h0.1c0.1-1,0.3-2.1,0.5-3.4c0.2-1.3,0.4-2.2,0.6-2.8l2.3-8.3h5
		l-5.4,18.8H327.6z"/>
	<path d="M341.4,425.6c0-1.7,0.9-2.5,2.8-2.5c1.9,0,2.8,0.8,2.8,2.5c0,0.8-0.2,1.4-0.7,1.9c-0.5,0.4-1.2,0.7-2.1,0.7
		C342.4,428.1,341.4,427.3,341.4,425.6z M346.8,449.3h-5.1v-18.8h5.1V449.3z"/>
	<path d="M360.1,445.6c0.9,0,2-0.2,3.2-0.6v3.8c-1.3,0.6-2.9,0.9-4.7,0.9c-2.1,0-3.6-0.5-4.5-1.6s-1.4-2.6-1.4-4.7v-9.1h-2.5v-2.2
		l2.8-1.7l1.5-4h3.3v4h5.3v3.9h-5.3v9.1c0,0.7,0.2,1.3,0.6,1.6C358.9,445.4,359.4,445.6,360.1,445.6z"/>
	<path d="M384.6,449.3h-5.1v-11c0-2.7-1-4.1-3-4.1c-1.4,0-2.5,0.5-3.1,1.5c-0.6,1-1,2.6-1,4.8v8.9h-5.1v-26.2h5.1v5.3
		c0,0.4,0,1.4-0.1,2.9l-0.1,1.5h0.3c1.1-1.8,3-2.8,5.5-2.8c2.2,0,3.9,0.6,5,1.8c1.1,1.2,1.7,2.9,1.7,5.1V449.3z"/>
	<path d="M409.7,428.7c-2,0-3.5,0.7-4.6,2.2c-1.1,1.5-1.6,3.5-1.6,6.2c0,5.5,2.1,8.2,6.2,8.2c1.7,0,3.8-0.4,6.3-1.3v4.4
		c-2,0.8-4.3,1.3-6.8,1.3c-3.6,0-6.3-1.1-8.2-3.3c-1.9-2.2-2.8-5.3-2.8-9.4c0-2.6,0.5-4.8,1.4-6.7c0.9-1.9,2.3-3.4,4-4.4
		s3.8-1.5,6.1-1.5c2.4,0,4.8,0.6,7.2,1.7l-1.7,4.2c-0.9-0.4-1.8-0.8-2.8-1.1C411.5,428.9,410.6,428.7,409.7,428.7z"/>
	<path d="M437.9,439.9c0,3.1-0.8,5.5-2.4,7.2c-1.6,1.7-3.9,2.6-6.8,2.6c-1.8,0-3.4-0.4-4.8-1.2s-2.4-1.9-3.2-3.4
		c-0.7-1.5-1.1-3.2-1.1-5.2c0-3.1,0.8-5.5,2.4-7.2s3.9-2.6,6.8-2.6c1.8,0,3.4,0.4,4.8,1.2s2.4,1.9,3.2,3.4
		C437.6,436.2,437.9,437.9,437.9,439.9z M424.9,439.9c0,1.9,0.3,3.3,0.9,4.2s1.6,1.4,3,1.4c1.4,0,2.4-0.5,3-1.4
		c0.6-0.9,0.9-2.4,0.9-4.2c0-1.9-0.3-3.3-0.9-4.2s-1.6-1.4-3-1.4c-1.4,0-2.4,0.5-3,1.4C425.2,436.6,424.9,438,424.9,439.9z"/>
	<path d="M455.5,449.3l-0.7-2.4h-0.3c-0.6,0.9-1.3,1.6-2.3,2s-2.2,0.7-3.5,0.7c-2.2,0-3.9-0.6-5-1.8c-1.1-1.2-1.7-2.9-1.7-5.1v-12.3
		h5.1v11c0,1.4,0.2,2.4,0.7,3.1s1.3,1,2.3,1c1.4,0,2.5-0.5,3.1-1.4c0.6-1,1-2.6,1-4.8v-8.9h5.1v18.8H455.5z"/>
	<path d="M475.2,449.7c-2.2,0-3.9-0.8-5.2-2.4h-0.3c0.2,1.6,0.3,2.5,0.3,2.7v7.6h-5.1v-27.1h4.2l0.7,2.4h0.2c1.2-1.9,3-2.8,5.3-2.8
		c2.2,0,4,0.9,5.2,2.6c1.3,1.7,1.9,4.1,1.9,7.2c0,2-0.3,3.8-0.9,5.2c-0.6,1.5-1.4,2.6-2.5,3.4C478,449.3,476.7,449.7,475.2,449.7z
		 M473.7,434.2c-1.3,0-2.2,0.4-2.8,1.2c-0.6,0.8-0.9,2.1-0.9,3.9v0.6c0,2,0.3,3.5,0.9,4.3c0.6,0.9,1.6,1.3,2.9,1.3
		c2.3,0,3.5-1.9,3.5-5.7c0-1.9-0.3-3.2-0.9-4.2C475.8,434.7,474.9,434.2,473.7,434.2z"/>
	<path d="M503.8,439.9c0,3.1-0.8,5.5-2.4,7.2c-1.6,1.7-3.9,2.6-6.8,2.6c-1.8,0-3.4-0.4-4.8-1.2s-2.4-1.9-3.2-3.4
		c-0.7-1.5-1.1-3.2-1.1-5.2c0-3.1,0.8-5.5,2.4-7.2s3.9-2.6,6.8-2.6c1.8,0,3.4,0.4,4.8,1.2s2.4,1.9,3.2,3.4
		C503.4,436.2,503.8,437.9,503.8,439.9z M490.8,439.9c0,1.9,0.3,3.3,0.9,4.2s1.6,1.4,3,1.4c1.4,0,2.4-0.5,3-1.4
		c0.6-0.9,0.9-2.4,0.9-4.2c0-1.9-0.3-3.3-0.9-4.2s-1.6-1.4-3-1.4c-1.4,0-2.4,0.5-3,1.4C491.1,436.6,490.8,438,490.8,439.9z"/>
	<path d="M525.4,449.3h-5.1v-11c0-1.4-0.2-2.4-0.7-3.1c-0.5-0.7-1.3-1-2.3-1c-1.4,0-2.5,0.5-3.1,1.4c-0.6,1-1,2.6-1,4.8v8.9h-5.1
		v-18.8h3.9l0.7,2.4h0.3c0.6-0.9,1.4-1.6,2.4-2.1c1-0.5,2.1-0.7,3.4-0.7c2.2,0,3.9,0.6,5,1.8c1.1,1.2,1.7,2.9,1.7,5.1V449.3z"/>
	<path d="M543.9,443.7c0,1.9-0.7,3.4-2,4.4s-3.4,1.5-6,1.5c-1.4,0-2.5-0.1-3.5-0.3c-1-0.2-1.9-0.5-2.7-0.8v-4.2c1,0.4,2,0.8,3.2,1.1
		c1.2,0.3,2.3,0.5,3.2,0.5c1.9,0,2.8-0.5,2.8-1.6c0-0.4-0.1-0.7-0.4-1c-0.2-0.3-0.7-0.5-1.3-0.9s-1.4-0.7-2.4-1.1
		c-1.4-0.6-2.5-1.2-3.2-1.7c-0.7-0.5-1.2-1.1-1.5-1.8c-0.3-0.7-0.5-1.5-0.5-2.5c0-1.7,0.6-3,1.9-3.9c1.3-0.9,3.1-1.4,5.5-1.4
		c2.3,0,4.5,0.5,6.6,1.5l-1.5,3.7c-0.9-0.4-1.8-0.7-2.6-1c-0.8-0.3-1.7-0.4-2.5-0.4c-1.5,0-2.3,0.4-2.3,1.2c0,0.5,0.2,0.9,0.7,1.2
		c0.5,0.3,1.6,0.8,3.2,1.5c1.5,0.6,2.5,1.2,3.2,1.7c0.7,0.5,1.2,1.1,1.5,1.8C543.7,442,543.9,442.8,543.9,443.7z"/>
	<path d="M547.2,446.9c0-0.9,0.3-1.7,0.8-2.1c0.5-0.5,1.2-0.7,2.2-0.7c0.9,0,1.7,0.2,2.2,0.7c0.5,0.5,0.8,1.2,0.8,2.1
		c0,0.9-0.3,1.6-0.8,2.1c-0.5,0.5-1.2,0.8-2.2,0.8c-0.9,0-1.7-0.3-2.2-0.8C547.4,448.5,547.2,447.8,547.2,446.9z"/>
</g>
<polygon class="st4" points="146.1,352.3 165.2,328.2 173.6,357.8 200.5,342.9 196.9,373.4 227.4,369.8 212.5,396.7 242.1,405.1 
	218,424.2 242.1,443.3 212.5,451.7 227.4,478.5 196.9,475 200.5,505.5 173.6,490.6 165.2,520.1 146.1,496.1 127,520.1 118.6,490.6 
	91.8,505.5 95.3,475 64.8,478.5 79.7,451.7 50.2,443.3 74.2,424.2 50.2,405.1 79.7,396.7 64.8,369.8 95.3,373.4 91.8,342.9 
	118.6,357.8 127,328.2 "/>
<g>
	<path d="M107.3,410.5c0-9.4,7.7-16.1,16.4-16.1c8.7,0,16.4,6.7,16.4,16.1c0,9.4-7.7,16.1-16.4,16.1
		C115,426.6,107.3,419.9,107.3,410.5z M130.2,410.5c0-4.1-3-6.9-6.5-6.9c-3.5,0-6.5,2.7-6.5,6.9c0,4.1,3,6.9,6.5,6.9
		C127.2,417.4,130.2,414.7,130.2,410.5z M157.3,395.3h11.2L134.9,453h-11.2L157.3,395.3z M152.1,437.8c0-9.4,7.7-16.1,16.4-16.1
		c8.7,0,16.4,6.7,16.4,16.1c0,9.4-7.7,16.1-16.4,16.1C159.8,453.9,152.1,447.2,152.1,437.8z M175,437.8c0-4.1-3-6.9-6.5-6.9
		c-3.5,0-6.5,2.7-6.5,6.9c0,4.1,3,6.9,6.5,6.9C172,444.7,175,442,175,437.8z"/>
</g>
</svg>