<!-- Generator: Adobe Illustrator 19.0.0, SVG Export Plug-In  -->
<svg version="1.1"
	 xmlns="http://www.w3.org/2000/svg" xmlns:xlink="http://www.w3.org/1999/xlink" xmlns:a="http://ns.adobe.com/AdobeSVGViewerExtensions/3.0/"
	 x="0px" y="0px" width="203px" height="203px" viewBox="0 0 203 203" style="enable-background:new 0 0 203 203;"
	 xml:space="preserve">
<style type="text/css">
	.st0{fill:#BDD231;stroke:#16113F;stroke-width:3;stroke-miterlimit:10;}
	.st1{fill:#44BB8B;stroke:#16113F;stroke-width:3;stroke-miterlimit:10;}
	.st2{fill:#FFFFFF;}
</style>
<defs>
</defs>
<g>
	<rect x="1.5" y="1.5" class="st0" width="200" height="200"/>
	<rect x="1.5" y="1.5" class="st1" width="200" height="100"/>
	<g>
		<path class="st2" d="M79.5,23.8h-1.8v-5l0-0.8l0-0.9c-0.3,0.3-0.5,0.5-0.6,0.6l-1,0.8l-0.9-1.1l2.8-2.2h1.5V23.8z"/>
		<path class="st2" d="M86.4,23.8h-1.8v-5l0-0.8l0-0.9c-0.3,0.3-0.5,0.5-0.6,0.6l-1,0.8l-0.9-1.1l2.8-2.2h1.5V23.8z"/>
		<path class="st2" d="M94.4,21.4c0,0.8-0.3,1.4-0.8,1.8s-1.3,0.7-2.3,0.7c-0.9,0-1.7-0.2-2.4-0.5v-1.7c0.6,0.3,1.1,0.4,1.5,0.5
			s0.8,0.2,1.1,0.2c0.4,0,0.7-0.1,0.9-0.2s0.3-0.4,0.3-0.7c0-0.2,0-0.3-0.1-0.4s-0.2-0.3-0.4-0.4s-0.6-0.3-1.1-0.6
			c-0.5-0.2-0.9-0.5-1.2-0.7s-0.5-0.5-0.6-0.8s-0.2-0.7-0.2-1.1c0-0.8,0.3-1.4,0.8-1.8c0.5-0.4,1.2-0.7,2.1-0.7
			c0.4,0,0.9,0.1,1.3,0.2s0.8,0.3,1.3,0.4l-0.6,1.4c-0.5-0.2-0.8-0.3-1.1-0.4s-0.6-0.1-0.9-0.1c-0.3,0-0.6,0.1-0.8,0.2
			s-0.3,0.4-0.3,0.6c0,0.2,0,0.3,0.1,0.4s0.2,0.2,0.4,0.3s0.5,0.3,1.2,0.6c0.8,0.4,1.3,0.8,1.6,1.2S94.4,20.8,94.4,21.4z"/>
		<path class="st2" d="M98.6,22.5c0.3,0,0.7-0.1,1.1-0.2v1.3c-0.4,0.2-1,0.3-1.6,0.3c-0.7,0-1.2-0.2-1.6-0.5S96,22.5,96,21.7v-3.2
			h-0.9v-0.8l1-0.6l0.5-1.4h1.1v1.4h1.8v1.3h-1.8v3.2c0,0.3,0.1,0.4,0.2,0.6S98.3,22.5,98.6,22.5z"/>
		<path class="st2" d="M104.7,17.1c0.2,0,0.4,0,0.6,0.1l-0.1,1.7c-0.1,0-0.3-0.1-0.5-0.1c-0.6,0-1,0.1-1.3,0.4s-0.5,0.7-0.5,1.2v3.3
			H101v-6.6h1.4l0.3,1.1h0.1c0.2-0.4,0.5-0.7,0.8-0.9S104.3,17.1,104.7,17.1z"/>
		<path class="st2" d="M109.3,23.9c-1.1,0-1.9-0.3-2.5-0.9s-0.9-1.4-0.9-2.5c0-1.1,0.3-1.9,0.8-2.5s1.3-0.9,2.3-0.9
			c0.9,0,1.6,0.3,2.2,0.8s0.8,1.3,0.8,2.2V21h-4.2c0,0.5,0.2,0.9,0.5,1.2s0.7,0.4,1.2,0.4c0.4,0,0.8,0,1.1-0.1s0.7-0.2,1.1-0.4v1.4
			c-0.3,0.2-0.6,0.3-1,0.3S109.8,23.9,109.3,23.9z M109.1,18.4c-0.4,0-0.7,0.1-0.9,0.4s-0.3,0.6-0.4,1h2.5c0-0.4-0.1-0.8-0.3-1
			S109.5,18.4,109.1,18.4z"/>
		<path class="st2" d="M116.4,23.9c-1.1,0-1.9-0.3-2.5-0.9s-0.9-1.4-0.9-2.5c0-1.1,0.3-1.9,0.8-2.5s1.3-0.9,2.3-0.9
			c0.9,0,1.6,0.3,2.2,0.8s0.8,1.3,0.8,2.2V21h-4.2c0,0.5,0.2,0.9,0.5,1.2s0.7,0.4,1.2,0.4c0.4,0,0.8,0,1.1-0.1s0.7-0.2,1.1-0.4v1.4
			c-0.3,0.2-0.6,0.3-1,0.3S116.9,23.9,116.4,23.9z M116.2,18.4c-0.4,0-0.7,0.1-0.9,0.4s-0.3,0.6-0.4,1h2.5c0-0.4-0.1-0.8-0.3-1
			S116.5,18.4,116.2,18.4z"/>
		<path class="st2" d="M123.3,22.5c0.3,0,0.7-0.1,1.1-0.2v1.3c-0.4,0.2-1,0.3-1.6,0.3c-0.7,0-1.2-0.2-1.6-0.5s-0.5-0.9-0.5-1.6v-3.2
			h-0.9v-0.8l1-0.6l0.5-1.4h1.1v1.4h1.8v1.3h-1.8v3.2c0,0.3,0.1,0.4,0.2,0.6S123.1,22.5,123.3,22.5z"/>
	</g>
	<g>
		<path class="st2" d="M40.6,44.2h-2.4v-4.9h-4.5v4.9h-2.4V32.7h2.4v4.5h4.5v-4.5h2.4V44.2z"/>
		<path class="st2" d="M49.4,44.2L49.1,43H49c-0.3,0.4-0.6,0.7-1.1,0.9c-0.5,0.2-1,0.3-1.6,0.3c-1,0-1.8-0.3-2.3-0.8
			c-0.5-0.5-0.8-1.3-0.8-2.4v-5.7h2.4v5.1c0,0.6,0.1,1.1,0.3,1.4c0.2,0.3,0.6,0.5,1.1,0.5c0.7,0,1.1-0.2,1.4-0.7s0.4-1.2,0.4-2.2
			v-4.1h2.4v8.7H49.4z"/>
		<path class="st2" d="M59.3,44.2L58.9,43h-0.1c-0.4,0.5-0.8,0.9-1.2,1.1c-0.4,0.2-1,0.3-1.7,0.3c-0.8,0-1.5-0.2-2-0.7
			c-0.5-0.5-0.7-1.2-0.7-2c0-0.9,0.3-1.6,1-2.1c0.6-0.4,1.6-0.7,2.9-0.7l1.5,0v-0.4c0-0.9-0.5-1.3-1.4-1.3c-0.7,0-1.5,0.2-2.5,0.6
			L54,36c1-0.5,2.1-0.8,3.3-0.8c1.2,0,2.1,0.3,2.7,0.8c0.6,0.5,0.9,1.3,0.9,2.3v5.8H59.3z M58.6,40.1l-0.9,0c-0.7,0-1.2,0.1-1.5,0.4
			c-0.3,0.2-0.5,0.6-0.5,1c0,0.7,0.4,1,1.2,1c0.6,0,1-0.2,1.3-0.5c0.3-0.3,0.5-0.7,0.5-1.3V40.1z"/>
		<path class="st2" d="M67.1,42.4c0.4,0,0.9-0.1,1.5-0.3v1.8c-0.6,0.3-1.3,0.4-2.2,0.4c-1,0-1.6-0.2-2.1-0.7
			c-0.4-0.5-0.7-1.2-0.7-2.2v-4.2h-1.1v-1l1.3-0.8l0.7-1.8h1.5v1.9h2.4v1.8h-2.4v4.2c0,0.3,0.1,0.6,0.3,0.8
			C66.6,42.3,66.8,42.4,67.1,42.4z"/>
		<path class="st2" d="M81.7,44.2l-0.8-2.7h-4.2l-0.8,2.7h-2.6l4-11.5h3l4,11.5H81.7z M80.3,39.4c-0.8-2.5-1.2-3.9-1.3-4.2
			c-0.1-0.3-0.2-0.6-0.2-0.8c-0.2,0.7-0.7,2.3-1.5,4.9H80.3z"/>
		<path class="st2" d="M93.6,44.2h-2.4v-5.1c0-1.3-0.5-1.9-1.4-1.9c-0.7,0-1.1,0.2-1.4,0.7S88,39,88,40.1v4.1h-2.4V32H88v2.5
			c0,0.2,0,0.6-0.1,1.4l-0.1,0.7H88c0.5-0.9,1.4-1.3,2.5-1.3c1,0,1.8,0.3,2.3,0.8c0.5,0.6,0.8,1.3,0.8,2.4V44.2z"/>
		<path class="st2" d="M95.8,43c0-0.4,0.1-0.8,0.4-1c0.2-0.2,0.6-0.3,1-0.3c0.4,0,0.8,0.1,1,0.3c0.2,0.2,0.4,0.6,0.4,1
			c0,0.4-0.1,0.7-0.4,1c-0.2,0.2-0.6,0.4-1,0.4c-0.4,0-0.8-0.1-1-0.3C95.9,43.8,95.8,43.5,95.8,43z M98.1,40.4h-1.9l-0.4-7.6h2.7
			L98.1,40.4z"/>
		<path class="st2" d="M114.4,44.2H112v-4.9h-4.5v4.9H105V32.7h2.4v4.5h4.5v-4.5h2.4V44.2z"/>
		<path class="st2" d="M123.3,44.2l-0.3-1.1h-0.1c-0.3,0.4-0.6,0.7-1.1,0.9c-0.5,0.2-1,0.3-1.6,0.3c-1,0-1.8-0.3-2.3-0.8
			c-0.5-0.5-0.8-1.3-0.8-2.4v-5.7h2.4v5.1c0,0.6,0.1,1.1,0.3,1.4c0.2,0.3,0.6,0.5,1.1,0.5c0.7,0,1.1-0.2,1.4-0.7s0.4-1.2,0.4-2.2
			v-4.1h2.4v8.7H123.3z"/>
		<path class="st2" d="M133.1,44.2l-0.5-1.2h-0.1c-0.4,0.5-0.8,0.9-1.2,1.1c-0.4,0.2-1,0.3-1.7,0.3c-0.8,0-1.5-0.2-2-0.7
			c-0.5-0.5-0.7-1.2-0.7-2c0-0.9,0.3-1.6,1-2.1c0.6-0.4,1.6-0.7,2.9-0.7l1.5,0v-0.4c0-0.9-0.5-1.3-1.4-1.3c-0.7,0-1.5,0.2-2.5,0.6
			l-0.8-1.6c1-0.5,2.1-0.8,3.3-0.8c1.2,0,2.1,0.3,2.7,0.8c0.6,0.5,0.9,1.3,0.9,2.3v5.8H133.1z M132.4,40.1l-0.9,0
			c-0.7,0-1.2,0.1-1.5,0.4c-0.3,0.2-0.5,0.6-0.5,1c0,0.7,0.4,1,1.2,1c0.6,0,1-0.2,1.3-0.5c0.3-0.3,0.5-0.7,0.5-1.3V40.1z"/>
		<path class="st2" d="M140.9,42.4c0.4,0,0.9-0.1,1.5-0.3v1.8c-0.6,0.3-1.3,0.4-2.2,0.4c-1,0-1.6-0.2-2.1-0.7
			c-0.4-0.5-0.7-1.2-0.7-2.2v-4.2h-1.1v-1l1.3-0.8l0.7-1.8h1.5v1.9h2.4v1.8h-2.4v4.2c0,0.3,0.1,0.6,0.3,0.8
			C140.4,42.3,140.6,42.4,140.9,42.4z"/>
		<path class="st2" d="M155.5,44.2l-0.8-2.7h-4.2l-0.8,2.7h-2.6l4-11.5h3l4,11.5H155.5z M154.1,39.4c-0.8-2.5-1.2-3.9-1.3-4.2
			c-0.1-0.3-0.2-0.6-0.2-0.8c-0.2,0.7-0.7,2.3-1.5,4.9H154.1z"/>
		<path class="st2" d="M167.5,44.2h-2.4v-5.1c0-1.3-0.5-1.9-1.4-1.9c-0.7,0-1.1,0.2-1.4,0.7s-0.4,1.2-0.4,2.2v4.1h-2.4V32h2.4v2.5
			c0,0.2,0,0.6-0.1,1.4l-0.1,0.7h0.1c0.5-0.9,1.4-1.3,2.5-1.3c1,0,1.8,0.3,2.3,0.8c0.5,0.6,0.8,1.3,0.8,2.4V44.2z"/>
		<path class="st2" d="M169.6,43c0-0.4,0.1-0.8,0.4-1c0.2-0.2,0.6-0.3,1-0.3c0.4,0,0.8,0.1,1,0.3c0.2,0.2,0.4,0.6,0.4,1
			c0,0.4-0.1,0.7-0.4,1c-0.2,0.2-0.6,0.4-1,0.4c-0.4,0-0.8-0.1-1-0.3C169.7,43.8,169.6,43.5,169.6,43z M171.9,40.4H170l-0.4-7.6h2.7
			L171.9,40.4z"/>
		<path class="st2" d="M16,60.3c0,1-0.4,1.8-1.1,2.4c-0.7,0.6-1.7,0.9-3,0.9c-1.4,0-2.4-0.2-3.1-0.5v-1.4c0.5,0.2,1,0.4,1.6,0.5
			c0.6,0.1,1.1,0.2,1.6,0.2c0.9,0,1.5-0.2,1.9-0.5c0.4-0.3,0.6-0.8,0.6-1.4c0-0.4-0.1-0.7-0.2-0.9c-0.2-0.2-0.4-0.5-0.8-0.7
			c-0.4-0.2-0.9-0.5-1.7-0.7c-1.1-0.4-1.8-0.8-2.3-1.4s-0.7-1.2-0.7-2c0-0.9,0.3-1.6,1-2.1c0.7-0.5,1.6-0.8,2.6-0.8
			c1.1,0,2.2,0.2,3.1,0.6l-0.4,1.2c-1-0.4-1.9-0.6-2.7-0.6c-0.7,0-1.2,0.1-1.6,0.4c-0.4,0.3-0.6,0.7-0.6,1.2c0,0.4,0.1,0.7,0.2,0.9
			c0.1,0.2,0.4,0.5,0.7,0.7c0.3,0.2,0.8,0.4,1.6,0.7c0.8,0.3,1.5,0.6,1.9,0.9c0.4,0.3,0.7,0.6,0.9,1C15.9,59.3,16,59.8,16,60.3z"/>
		<path class="st2" d="M23.4,63.4l-0.3-1.2h-0.1c-0.4,0.5-0.9,0.9-1.3,1.1c-0.4,0.2-1,0.3-1.6,0.3c-0.8,0-1.5-0.2-2-0.7
			c-0.5-0.4-0.7-1.1-0.7-1.9c0-1.7,1.4-2.7,4.1-2.7l1.5-0.1v-0.5c0-0.7-0.1-1.1-0.4-1.4c-0.3-0.3-0.7-0.5-1.4-0.5
			c-0.5,0-0.9,0.1-1.3,0.2c-0.4,0.1-0.8,0.3-1.1,0.5l-0.4-1.1c0.4-0.2,0.9-0.4,1.4-0.5c0.5-0.1,1-0.2,1.5-0.2c1,0,1.8,0.2,2.3,0.7
			c0.5,0.5,0.8,1.2,0.8,2.2v5.8H23.4z M20.5,62.4c0.8,0,1.4-0.2,1.9-0.6c0.5-0.4,0.7-1,0.7-1.8v-0.8l-1.3,0.1c-1,0-1.7,0.2-2.2,0.5
			C19.2,60,19,60.4,19,61c0,0.4,0.1,0.8,0.4,1C19.6,62.3,20,62.4,20.5,62.4z"/>
		<path class="st2" d="M28.5,63.4h-1.4V51.2h1.4V63.4z"/>
		<path class="st2" d="M34.9,63.5c-1.3,0-2.3-0.4-3-1.2c-0.7-0.8-1.1-1.9-1.1-3.2c0-1.4,0.3-2.5,1-3.3c0.7-0.8,1.6-1.2,2.8-1.2
			c1.1,0,1.9,0.3,2.6,1s1,1.6,1,2.8v0.9h-5.9c0,1,0.3,1.7,0.7,2.2c0.5,0.5,1.1,0.8,2,0.8c0.5,0,0.9,0,1.3-0.1
			c0.4-0.1,0.9-0.2,1.4-0.5V63c-0.5,0.2-0.9,0.3-1.3,0.4C35.9,63.5,35.4,63.5,34.9,63.5z M34.5,55.8c-0.7,0-1.2,0.2-1.6,0.6
			c-0.4,0.4-0.6,1-0.7,1.8h4.4c0-0.8-0.2-1.4-0.6-1.8C35.7,56,35.2,55.8,34.5,55.8z"/>
		<path class="st2" d="M51.4,63.4l-1.5-4.8c-0.1-0.4-0.3-1.2-0.6-2.3h-0.1c-0.2,1-0.4,1.8-0.6,2.3l-1.5,4.8h-1.6l-2.4-8.6h1.5
			c0.5,2.1,1,3.7,1.2,4.8c0.3,1.1,0.5,1.9,0.5,2.3h0.1l0.1-0.5c0.2-0.7,0.3-1.4,0.5-1.8l1.5-4.8h1.5l1.5,4.8
			c0.1,0.2,0.1,0.4,0.2,0.6c0.1,0.2,0.1,0.4,0.2,0.6c0.1,0.2,0.1,0.4,0.1,0.6c0,0.2,0.1,0.4,0.1,0.5h0.1c0-0.4,0.2-1.2,0.6-2.5
			l1.2-4.6h1.4l-2.4,8.6H51.4z"/>
		<path class="st2" d="M56.9,52.5c0-0.3,0.1-0.5,0.2-0.7c0.2-0.1,0.4-0.2,0.6-0.2c0.2,0,0.4,0.1,0.6,0.2s0.2,0.4,0.2,0.7
			c0,0.3-0.1,0.5-0.2,0.7c-0.2,0.1-0.4,0.2-0.6,0.2c-0.2,0-0.4-0.1-0.6-0.2C57,53,56.9,52.8,56.9,52.5z M58.4,63.4H57v-8.6h1.4V63.4
			z"/>
		<path class="st2" d="M64,62.4c0.2,0,0.4,0,0.6-0.1c0.2,0,0.4-0.1,0.6-0.1v1.1c-0.1,0.1-0.3,0.1-0.6,0.2s-0.6,0.1-0.8,0.1
			c-1.7,0-2.5-0.9-2.5-2.6v-5H60v-0.7l1.2-0.6l0.6-1.8h0.8v2h2.5v1.1h-2.5v5c0,0.5,0.1,0.9,0.4,1.1C63.2,62.2,63.6,62.4,64,62.4z"/>
		<path class="st2" d="M72.7,63.4v-5.5c0-0.7-0.2-1.2-0.5-1.6c-0.3-0.3-0.8-0.5-1.5-0.5c-0.9,0-1.5,0.2-1.9,0.7
			c-0.4,0.5-0.6,1.3-0.6,2.4v4.4h-1.4V51.2h1.4v3.6c0,0.5,0,0.9-0.1,1.2h0.1c0.3-0.4,0.6-0.7,1.1-1s1-0.4,1.6-0.4
			c1,0,1.8,0.2,2.4,0.7c0.5,0.5,0.8,1.3,0.8,2.4v5.6H72.7z"/>
		<path class="st2" d="M85,54.6c1.1,0,2,0.4,2.6,1.2c0.6,0.8,0.9,1.9,0.9,3.3c0,1.4-0.3,2.5-0.9,3.3s-1.5,1.2-2.6,1.2
			c-0.6,0-1.1-0.1-1.5-0.3c-0.5-0.2-0.8-0.5-1.1-0.9h-0.1c-0.2,0.6-0.3,1-0.3,1.1h-1V51.2h1.4v3c0,0.6,0,1.2-0.1,1.8h0.1
			C82.9,55.1,83.8,54.6,85,54.6z M84.8,55.8c-0.9,0-1.5,0.2-1.9,0.7c-0.4,0.5-0.6,1.3-0.6,2.5v0.1c0,1.2,0.2,2,0.6,2.5
			c0.4,0.5,1,0.8,1.9,0.8c0.8,0,1.3-0.3,1.7-0.8c0.4-0.6,0.6-1.4,0.6-2.4c0-1.1-0.2-1.9-0.6-2.4C86.1,56.1,85.5,55.8,84.8,55.8z"/>
		<path class="st2" d="M98.2,59.1c0,1.4-0.4,2.5-1.1,3.3c-0.7,0.8-1.7,1.2-2.9,1.2c-0.8,0-1.5-0.2-2.1-0.5c-0.6-0.4-1.1-0.9-1.4-1.6
			c-0.3-0.7-0.5-1.5-0.5-2.4c0-1.4,0.3-2.5,1-3.3c0.7-0.8,1.7-1.2,2.9-1.2c1.2,0,2.2,0.4,2.9,1.2C97.9,56.6,98.2,57.7,98.2,59.1z
			 M91.7,59.1c0,1.1,0.2,1.9,0.6,2.5c0.4,0.6,1.1,0.8,1.9,0.8c0.8,0,1.4-0.3,1.9-0.8c0.4-0.6,0.6-1.4,0.6-2.5s-0.2-1.9-0.6-2.4
			c-0.4-0.5-1.1-0.8-1.9-0.8C92.6,55.8,91.7,56.9,91.7,59.1z"/>
		<path class="st2" d="M106.3,63.4v-5.5c0-0.7-0.2-1.2-0.5-1.6c-0.3-0.3-0.8-0.5-1.5-0.5c-0.9,0-1.5,0.2-1.9,0.7
			c-0.4,0.5-0.6,1.3-0.6,2.4v4.4h-1.4v-8.6h1.1l0.2,1.2h0.1c0.3-0.4,0.6-0.8,1.1-1c0.5-0.2,1-0.3,1.6-0.3c1.1,0,1.8,0.3,2.3,0.8
			c0.5,0.5,0.8,1.3,0.8,2.4v5.6H106.3z"/>
		<path class="st2" d="M111.7,54.8v5.5c0,0.7,0.2,1.2,0.5,1.5c0.3,0.3,0.8,0.5,1.4,0.5c0.9,0,1.5-0.2,1.9-0.7
			c0.4-0.5,0.6-1.3,0.6-2.4v-4.5h1.4v8.6h-1.2l-0.2-1.1h-0.1c-0.3,0.4-0.6,0.7-1.1,1c-0.5,0.2-1,0.3-1.6,0.3c-1,0-1.8-0.2-2.3-0.7
			c-0.5-0.5-0.8-1.3-0.8-2.4v-5.6H111.7z"/>
		<path class="st2" d="M125.8,61c0,0.8-0.3,1.4-0.9,1.9c-0.6,0.4-1.4,0.7-2.5,0.7c-1.1,0-2-0.2-2.7-0.5v-1.3
			c0.9,0.5,1.9,0.7,2.7,0.7c0.7,0,1.2-0.1,1.5-0.3c0.3-0.2,0.5-0.5,0.5-0.9c0-0.3-0.2-0.6-0.5-0.9c-0.3-0.2-0.9-0.5-1.7-0.8
			c-0.8-0.3-1.4-0.6-1.7-0.8c-0.3-0.2-0.6-0.5-0.7-0.7c-0.2-0.3-0.2-0.6-0.2-1c0-0.7,0.3-1.3,0.9-1.7c0.6-0.4,1.4-0.6,2.4-0.6
			c1,0,1.9,0.2,2.7,0.6l-0.5,1.1c-0.9-0.4-1.7-0.5-2.4-0.5c-0.6,0-1,0.1-1.3,0.3c-0.3,0.2-0.5,0.4-0.5,0.8c0,0.3,0.1,0.6,0.4,0.8
			c0.3,0.2,0.9,0.5,1.8,0.9c0.7,0.3,1.2,0.5,1.6,0.7c0.3,0.2,0.6,0.5,0.8,0.8C125.7,60.3,125.8,60.6,125.8,61z"/>
		<path class="st2" d="M135.5,63.5c-1.2,0-2.2-0.4-2.9-1.1s-1-1.8-1-3.3c0-1.4,0.3-2.5,1-3.3c0.7-0.8,1.7-1.2,3-1.2
			c0.4,0,0.8,0,1.2,0.1c0.4,0.1,0.7,0.2,1,0.3l-0.4,1.2c-0.7-0.3-1.3-0.4-1.9-0.4c-0.9,0-1.5,0.3-1.9,0.8c-0.4,0.5-0.6,1.4-0.6,2.4
			c0,1,0.2,1.8,0.6,2.4c0.4,0.5,1,0.8,1.8,0.8c0.8,0,1.5-0.2,2.2-0.5v1.3C137.1,63.4,136.4,63.5,135.5,63.5z"/>
		<path class="st2" d="M147.2,59.1c0,1.4-0.4,2.5-1.1,3.3c-0.7,0.8-1.7,1.2-2.9,1.2c-0.8,0-1.5-0.2-2.1-0.5
			c-0.6-0.4-1.1-0.9-1.4-1.6c-0.3-0.7-0.5-1.5-0.5-2.4c0-1.4,0.3-2.5,1-3.3c0.7-0.8,1.7-1.2,2.9-1.2c1.2,0,2.2,0.4,2.9,1.2
			C146.8,56.6,147.2,57.7,147.2,59.1z M140.7,59.1c0,1.1,0.2,1.9,0.6,2.5c0.4,0.6,1.1,0.8,1.9,0.8c0.8,0,1.4-0.3,1.9-0.8
			c0.4-0.6,0.6-1.4,0.6-2.5s-0.2-1.9-0.6-2.4c-0.4-0.5-1.1-0.8-1.9-0.8C141.5,55.8,140.7,56.9,140.7,59.1z"/>
		<path class="st2" d="M150.7,54.8v5.5c0,0.7,0.2,1.2,0.5,1.5c0.3,0.3,0.8,0.5,1.4,0.5c0.9,0,1.5-0.2,1.9-0.7
			c0.4-0.5,0.6-1.3,0.6-2.4v-4.5h1.4v8.6h-1.2l-0.2-1.1h-0.1c-0.3,0.4-0.6,0.7-1.1,1c-0.5,0.2-1,0.3-1.6,0.3c-1,0-1.8-0.2-2.3-0.7
			c-0.5-0.5-0.8-1.3-0.8-2.4v-5.6H150.7z"/>
		<path class="st2" d="M163.4,63.5c-1.2,0-2-0.4-2.7-1.2h-0.1l0,0.3c0,0.4,0.1,0.8,0.1,1.1v3.5h-1.4V54.8h1.2l0.2,1.2h0.1
			c0.3-0.5,0.7-0.8,1.2-1c0.4-0.2,0.9-0.3,1.5-0.3c1.1,0,2,0.4,2.6,1.2s0.9,1.9,0.9,3.3c0,1.4-0.3,2.5-0.9,3.3
			C165.4,63.1,164.5,63.5,163.4,63.5z M163.1,55.8c-0.8,0-1.5,0.2-1.8,0.7c-0.4,0.5-0.6,1.2-0.6,2.3v0.3c0,1.2,0.2,2,0.6,2.5
			c0.4,0.5,1,0.8,1.9,0.8c0.7,0,1.3-0.3,1.7-0.9c0.4-0.6,0.6-1.4,0.6-2.4c0-1-0.2-1.8-0.6-2.4C164.4,56.1,163.9,55.8,163.1,55.8z"/>
		<path class="st2" d="M176.6,59.1c0,1.4-0.4,2.5-1.1,3.3c-0.7,0.8-1.7,1.2-2.9,1.2c-0.8,0-1.5-0.2-2.1-0.5
			c-0.6-0.4-1.1-0.9-1.4-1.6c-0.3-0.7-0.5-1.5-0.5-2.4c0-1.4,0.3-2.5,1-3.3c0.7-0.8,1.7-1.2,2.9-1.2c1.2,0,2.2,0.4,2.9,1.2
			C176.2,56.6,176.6,57.7,176.6,59.1z M170.1,59.1c0,1.1,0.2,1.9,0.6,2.5c0.4,0.6,1.1,0.8,1.9,0.8c0.8,0,1.4-0.3,1.9-0.8
			c0.4-0.6,0.6-1.4,0.6-2.5s-0.2-1.9-0.6-2.4c-0.4-0.5-1.1-0.8-1.9-0.8C171,55.8,170.1,56.9,170.1,59.1z"/>
		<path class="st2" d="M184.7,63.4v-5.5c0-0.7-0.2-1.2-0.5-1.6c-0.3-0.3-0.8-0.5-1.5-0.5c-0.9,0-1.5,0.2-1.9,0.7
			c-0.4,0.5-0.6,1.3-0.6,2.4v4.4h-1.4v-8.6h1.1l0.2,1.2h0.1c0.3-0.4,0.6-0.8,1.1-1c0.5-0.2,1-0.3,1.6-0.3c1.1,0,1.8,0.3,2.3,0.8
			c0.5,0.5,0.8,1.3,0.8,2.4v5.6H184.7z"/>
		<path class="st2" d="M194.3,61c0,0.8-0.3,1.4-0.9,1.9c-0.6,0.4-1.4,0.7-2.5,0.7c-1.1,0-2-0.2-2.7-0.5v-1.3
			c0.9,0.5,1.9,0.7,2.7,0.7c0.7,0,1.2-0.1,1.5-0.3c0.3-0.2,0.5-0.5,0.5-0.9c0-0.3-0.2-0.6-0.5-0.9c-0.3-0.2-0.9-0.5-1.7-0.8
			c-0.8-0.3-1.4-0.6-1.7-0.8c-0.3-0.2-0.6-0.5-0.7-0.7c-0.2-0.3-0.2-0.6-0.2-1c0-0.7,0.3-1.3,0.9-1.7c0.6-0.4,1.4-0.6,2.4-0.6
			c1,0,1.9,0.2,2.7,0.6l-0.5,1.1c-0.9-0.4-1.7-0.5-2.4-0.5c-0.6,0-1,0.1-1.3,0.3c-0.3,0.2-0.5,0.4-0.5,0.8c0,0.3,0.1,0.6,0.4,0.8
			c0.3,0.2,0.9,0.5,1.8,0.9c0.7,0.3,1.2,0.5,1.6,0.7c0.3,0.2,0.6,0.5,0.8,0.8C194.2,60.3,194.3,60.6,194.3,61z"/>
		<path class="st2" d="M54.2,74v5.5c0,0.7,0.2,1.2,0.5,1.5c0.3,0.3,0.8,0.5,1.4,0.5c0.9,0,1.5-0.2,1.9-0.7c0.4-0.5,0.6-1.3,0.6-2.4
			V74h1.4v8.6h-1.2l-0.2-1.1h-0.1c-0.3,0.4-0.6,0.7-1.1,1c-0.5,0.2-1,0.3-1.6,0.3c-1,0-1.8-0.2-2.3-0.7c-0.5-0.5-0.8-1.3-0.8-2.4V74
			H54.2z"/>
		<path class="st2" d="M66.8,82.7c-1.2,0-2-0.4-2.7-1.2h-0.1l0,0.3c0,0.4,0.1,0.8,0.1,1.1v3.5h-1.4V74h1.2l0.2,1.2h0.1
			c0.3-0.5,0.7-0.8,1.2-1c0.4-0.2,0.9-0.3,1.5-0.3c1.1,0,2,0.4,2.6,1.2s0.9,1.9,0.9,3.3c0,1.4-0.3,2.5-0.9,3.3
			C68.8,82.3,68,82.7,66.8,82.7z M66.6,75c-0.8,0-1.5,0.2-1.8,0.7c-0.4,0.5-0.6,1.2-0.6,2.3v0.3c0,1.2,0.2,2,0.6,2.5
			c0.4,0.5,1,0.8,1.9,0.8c0.7,0,1.3-0.3,1.7-0.9c0.4-0.6,0.6-1.4,0.6-2.4c0-1-0.2-1.8-0.6-2.4C67.9,75.3,67.3,75,66.6,75z"/>
		<path class="st2" d="M79.6,81.6c0.2,0,0.4,0,0.6-0.1c0.2,0,0.4-0.1,0.6-0.1v1.1c-0.1,0.1-0.3,0.1-0.6,0.2s-0.6,0.1-0.8,0.1
			c-1.7,0-2.5-0.9-2.5-2.6v-5h-1.2v-0.7l1.2-0.6l0.6-1.8h0.8v2h2.5v1.1h-2.5v5c0,0.5,0.1,0.9,0.4,1.1C78.9,81.4,79.2,81.6,79.6,81.6
			z"/>
		<path class="st2" d="M90,78.3c0,1.4-0.4,2.5-1.1,3.3c-0.7,0.8-1.7,1.2-2.9,1.2c-0.8,0-1.5-0.2-2.1-0.5c-0.6-0.4-1.1-0.9-1.4-1.6
			c-0.3-0.7-0.5-1.5-0.5-2.4c0-1.4,0.3-2.5,1-3.3c0.7-0.8,1.7-1.2,2.9-1.2c1.2,0,2.2,0.4,2.9,1.2C89.6,75.8,90,76.9,90,78.3z
			 M83.5,78.3c0,1.1,0.2,1.9,0.6,2.5c0.4,0.6,1.1,0.8,1.9,0.8c0.8,0,1.4-0.3,1.9-0.8c0.4-0.6,0.6-1.4,0.6-2.5s-0.2-1.9-0.6-2.4
			C87.5,75.3,86.8,75,86,75C84.4,75,83.5,76.1,83.5,78.3z"/>
		<path class="st2" d="M99.6,71c1,0,1.9,0.2,2.5,0.7c0.6,0.5,0.9,1.2,0.9,2c0,0.6-0.2,1.1-0.5,1.5c-0.3,0.5-0.9,0.9-1.7,1.3
			c0.9,0.4,1.6,0.9,2,1.4c0.4,0.5,0.6,1,0.6,1.7c0,0.9-0.3,1.7-1,2.3c-0.7,0.6-1.6,0.8-2.7,0.8c-1.2,0-2.2-0.3-2.8-0.8
			c-0.7-0.5-1-1.3-1-2.3c0-1.3,0.8-2.3,2.4-3.1c-0.7-0.4-1.2-0.8-1.5-1.3s-0.5-1-0.5-1.6c0-0.8,0.3-1.5,0.9-2
			C97.7,71.2,98.6,71,99.6,71z M97.2,79.7c0,0.6,0.2,1.1,0.6,1.4s1,0.5,1.8,0.5c0.7,0,1.3-0.2,1.8-0.5c0.4-0.4,0.6-0.8,0.6-1.5
			c0-0.5-0.2-0.9-0.6-1.3s-1.1-0.8-2-1.1c-0.8,0.3-1.3,0.7-1.6,1.1C97.4,78.7,97.2,79.1,97.2,79.7z M99.6,72.1
			c-0.6,0-1.1,0.1-1.5,0.4c-0.4,0.3-0.5,0.7-0.5,1.2c0,0.3,0.1,0.6,0.2,0.9s0.3,0.5,0.6,0.7c0.3,0.2,0.7,0.4,1.3,0.7
			c0.7-0.3,1.2-0.6,1.5-1c0.3-0.4,0.4-0.8,0.4-1.2c0-0.5-0.2-0.9-0.6-1.2C100.7,72.3,100.2,72.1,99.6,72.1z"/>
		<path class="st2" d="M108.7,71c1,0,1.9,0.2,2.5,0.7c0.6,0.5,0.9,1.2,0.9,2c0,0.6-0.2,1.1-0.5,1.5c-0.3,0.5-0.9,0.9-1.7,1.3
			c0.9,0.4,1.6,0.9,2,1.4c0.4,0.5,0.6,1,0.6,1.7c0,0.9-0.3,1.7-1,2.3c-0.7,0.6-1.6,0.8-2.7,0.8c-1.2,0-2.2-0.3-2.8-0.8
			c-0.7-0.5-1-1.3-1-2.3c0-1.3,0.8-2.3,2.4-3.1c-0.7-0.4-1.2-0.8-1.5-1.3s-0.5-1-0.5-1.6c0-0.8,0.3-1.5,0.9-2
			C106.9,71.2,107.7,71,108.7,71z M106.3,79.7c0,0.6,0.2,1.1,0.6,1.4s1,0.5,1.8,0.5c0.7,0,1.3-0.2,1.8-0.5c0.4-0.4,0.6-0.8,0.6-1.5
			c0-0.5-0.2-0.9-0.6-1.3s-1.1-0.8-2-1.1c-0.8,0.3-1.3,0.7-1.6,1.1C106.5,78.7,106.3,79.1,106.3,79.7z M108.7,72.1
			c-0.6,0-1.1,0.1-1.5,0.4c-0.4,0.3-0.5,0.7-0.5,1.2c0,0.3,0.1,0.6,0.2,0.9s0.3,0.5,0.6,0.7c0.3,0.2,0.7,0.4,1.3,0.7
			c0.7-0.3,1.2-0.6,1.5-1c0.3-0.4,0.4-0.8,0.4-1.2c0-0.5-0.2-0.9-0.6-1.2C109.8,72.3,109.3,72.1,108.7,72.1z"/>
		<path class="st2" d="M118.8,74.6c0,1.2-0.2,2.1-0.6,2.7c-0.4,0.6-1,0.9-1.8,0.9c-0.7,0-1.3-0.3-1.7-0.9c-0.4-0.6-0.6-1.5-0.6-2.7
			c0-1.2,0.2-2.1,0.6-2.7s1-0.9,1.7-0.9c0.8,0,1.4,0.3,1.8,0.9C118.6,72.5,118.8,73.4,118.8,74.6z M115.3,74.6
			c0,0.9,0.1,1.5,0.3,1.9c0.2,0.4,0.5,0.7,0.9,0.7c0.8,0,1.2-0.9,1.2-2.6c0-1.7-0.4-2.6-1.2-2.6c-0.4,0-0.7,0.2-0.9,0.6
			C115.4,73,115.3,73.7,115.3,74.6z M123.8,71.1l-6.3,11.4h-1.2l6.3-11.4H123.8z M125.8,79.1c0,1.2-0.2,2.1-0.6,2.7
			c-0.4,0.6-1,0.9-1.8,0.9c-0.7,0-1.3-0.3-1.7-0.9c-0.4-0.6-0.6-1.5-0.6-2.7c0-1.2,0.2-2.1,0.6-2.7c0.4-0.6,1-0.9,1.7-0.9
			s1.4,0.3,1.8,0.9C125.6,77.1,125.8,78,125.8,79.1z M122.3,79.1c0,0.9,0.1,1.5,0.3,1.9c0.2,0.4,0.5,0.6,0.9,0.6
			c0.4,0,0.7-0.2,0.9-0.6c0.2-0.4,0.3-1.1,0.3-1.9c0-1.7-0.4-2.6-1.2-2.6c-0.4,0-0.7,0.2-0.9,0.6C122.4,77.6,122.3,78.3,122.3,79.1z
			"/>
		<path class="st2" d="M139.6,78.3c0,1.4-0.4,2.5-1.1,3.3c-0.7,0.8-1.7,1.2-2.9,1.2c-0.8,0-1.5-0.2-2.1-0.5
			c-0.6-0.4-1.1-0.9-1.4-1.6c-0.3-0.7-0.5-1.5-0.5-2.4c0-1.4,0.3-2.5,1-3.3c0.7-0.8,1.7-1.2,2.9-1.2c1.2,0,2.2,0.4,2.9,1.2
			C139.2,75.8,139.6,76.9,139.6,78.3z M133.1,78.3c0,1.1,0.2,1.9,0.6,2.5c0.4,0.6,1.1,0.8,1.9,0.8c0.8,0,1.4-0.3,1.9-0.8
			c0.4-0.6,0.6-1.4,0.6-2.5s-0.2-1.9-0.6-2.4c-0.4-0.5-1.1-0.8-1.9-0.8C133.9,75,133.1,76.1,133.1,78.3z"/>
		<path class="st2" d="M145.8,75.1h-2.2v7.5h-1.4v-7.5h-1.5v-0.7l1.5-0.5v-0.5c0-1,0.2-1.8,0.7-2.3c0.5-0.5,1.2-0.8,2.1-0.8
			c0.5,0,1.1,0.1,1.7,0.3l-0.4,1.1c-0.5-0.2-0.9-0.2-1.3-0.2c-0.5,0-0.8,0.2-1.1,0.5c-0.2,0.3-0.3,0.8-0.3,1.5V74h2.2V75.1z"/>
		<path class="st2" d="M151.3,75.1h-2.2v7.5h-1.4v-7.5h-1.5v-0.7l1.5-0.5v-0.5c0-1,0.2-1.8,0.7-2.3c0.5-0.5,1.2-0.8,2.1-0.8
			c0.5,0,1.1,0.1,1.7,0.3l-0.4,1.1c-0.5-0.2-0.9-0.2-1.3-0.2c-0.5,0-0.8,0.2-1.1,0.5c-0.2,0.3-0.3,0.8-0.3,1.5V74h2.2V75.1z"/>
	</g>
	<g>
		<g>
			<path d="M35.6,144.9c0,0.8-0.3,1.4-0.8,1.8s-1.3,0.7-2.3,0.7c-0.9,0-1.7-0.2-2.4-0.5v-1.7c0.6,0.3,1.1,0.4,1.5,0.5
				s0.8,0.2,1.1,0.2c0.4,0,0.7-0.1,0.9-0.2s0.3-0.4,0.3-0.7c0-0.2,0-0.3-0.1-0.4s-0.2-0.3-0.4-0.4s-0.6-0.3-1.1-0.6
				c-0.5-0.2-0.9-0.5-1.2-0.7s-0.5-0.5-0.6-0.8s-0.2-0.7-0.2-1.1c0-0.8,0.3-1.4,0.8-1.8s1.2-0.7,2.1-0.7c0.4,0,0.9,0.1,1.3,0.2
				s0.8,0.3,1.3,0.4l-0.6,1.4c-0.5-0.2-0.8-0.3-1.1-0.4s-0.6-0.1-0.9-0.1c-0.3,0-0.6,0.1-0.8,0.2s-0.3,0.4-0.3,0.6
				c0,0.2,0,0.3,0.1,0.4s0.2,0.2,0.4,0.3s0.5,0.3,1.2,0.6c0.8,0.4,1.3,0.8,1.6,1.2S35.6,144.4,35.6,144.9z"/>
			<path d="M43.1,147.3h-1.8v-3.8c0-0.9-0.4-1.4-1.1-1.4c-0.5,0-0.9,0.2-1.1,0.5s-0.3,0.9-0.3,1.7v3.1H37v-9.1h1.8v1.9
				c0,0.1,0,0.5,0,1l0,0.5h0.1c0.4-0.6,1-1,1.9-1c0.8,0,1.4,0.2,1.8,0.6s0.6,1,0.6,1.8V147.3z"/>
			<path d="M50.9,144c0,1.1-0.3,1.9-0.8,2.5s-1.3,0.9-2.3,0.9c-0.6,0-1.2-0.1-1.7-0.4s-0.8-0.7-1.1-1.2s-0.4-1.1-0.4-1.8
				c0-1.1,0.3-1.9,0.8-2.5s1.3-0.9,2.4-0.9c0.6,0,1.2,0.1,1.7,0.4s0.8,0.7,1.1,1.2S50.9,143.3,50.9,144z M46.4,144
				c0,0.6,0.1,1.1,0.3,1.5s0.6,0.5,1,0.5c0.5,0,0.8-0.2,1-0.5s0.3-0.8,0.3-1.5c0-0.6-0.1-1.1-0.3-1.5s-0.6-0.5-1-0.5
				c-0.5,0-0.8,0.2-1,0.5S46.4,143.4,46.4,144z"/>
			<path d="M56,147.4c-0.8,0-1.4-0.3-1.8-0.8h-0.1c0.1,0.5,0.1,0.9,0.1,0.9v2.7h-1.8v-9.4h1.5l0.3,0.8h0.1c0.4-0.6,1-1,1.9-1
				c0.8,0,1.4,0.3,1.8,0.9s0.7,1.4,0.7,2.5c0,0.7-0.1,1.3-0.3,1.8s-0.5,0.9-0.9,1.2S56.5,147.4,56,147.4z M55.4,142
				c-0.4,0-0.8,0.1-1,0.4s-0.3,0.7-0.3,1.3v0.2c0,0.7,0.1,1.2,0.3,1.5s0.5,0.5,1,0.5c0.8,0,1.2-0.7,1.2-2c0-0.6-0.1-1.1-0.3-1.5
				S55.9,142,55.4,142z"/>
			<path d="M68.3,144.9c0,0.8-0.3,1.4-0.8,1.8s-1.3,0.7-2.3,0.7c-0.9,0-1.7-0.2-2.4-0.5v-1.7c0.6,0.3,1.1,0.4,1.5,0.5
				c0.4,0.1,0.8,0.2,1.1,0.2c0.4,0,0.7-0.1,0.9-0.2s0.3-0.4,0.3-0.7c0-0.2,0-0.3-0.1-0.4s-0.2-0.3-0.4-0.4s-0.6-0.3-1.1-0.6
				c-0.5-0.2-0.9-0.5-1.2-0.7s-0.5-0.5-0.6-0.8s-0.2-0.7-0.2-1.1c0-0.8,0.3-1.4,0.8-1.8c0.5-0.4,1.2-0.7,2.1-0.7
				c0.4,0,0.9,0.1,1.3,0.2s0.8,0.3,1.3,0.4l-0.6,1.4c-0.5-0.2-0.8-0.3-1.1-0.4s-0.6-0.1-0.9-0.1c-0.3,0-0.6,0.1-0.8,0.2
				s-0.3,0.4-0.3,0.6c0,0.2,0,0.3,0.1,0.4s0.2,0.2,0.4,0.3s0.5,0.3,1.2,0.6c0.8,0.4,1.3,0.8,1.6,1.2S68.3,144.4,68.3,144.9z"/>
			<path d="M75.5,147.3h-1.8v-3.8c0-0.5-0.1-0.8-0.2-1.1s-0.4-0.4-0.7-0.4c-0.5,0-0.8,0.2-1,0.5s-0.3,0.9-0.3,1.7v3.1h-1.8v-6.6H71
				l0.2,0.8h0.1c0.2-0.3,0.4-0.5,0.8-0.7s0.7-0.3,1.1-0.3c1,0,1.6,0.3,2,1h0.2c0.2-0.3,0.4-0.5,0.8-0.7s0.7-0.3,1.2-0.3
				c0.7,0,1.3,0.2,1.7,0.6s0.6,1,0.6,1.8v4.3h-1.8v-3.8c0-0.5-0.1-0.8-0.2-1.1s-0.4-0.4-0.7-0.4c-0.4,0-0.8,0.2-1,0.5
				s-0.3,0.8-0.3,1.5V147.3z"/>
			<path d="M85.6,147.3l-0.3-0.9h0c-0.3,0.4-0.6,0.6-0.9,0.8s-0.7,0.2-1.2,0.2c-0.6,0-1.1-0.2-1.5-0.5S81,146,81,145.3
				c0-0.7,0.2-1.2,0.7-1.5s1.2-0.5,2.2-0.5l1.1,0v-0.3c0-0.7-0.3-1-1-1c-0.5,0-1.1,0.2-1.8,0.5l-0.6-1.2c0.8-0.4,1.6-0.6,2.5-0.6
				c0.9,0,1.6,0.2,2,0.6s0.7,1,0.7,1.7v4.4H85.6z M85.1,144.3l-0.7,0c-0.5,0-0.9,0.1-1.2,0.3s-0.4,0.4-0.4,0.8
				c0,0.5,0.3,0.8,0.9,0.8c0.4,0,0.7-0.1,1-0.4s0.4-0.6,0.4-0.9V144.3z"/>
			<path d="M92.4,140.6c0.2,0,0.4,0,0.6,0.1l-0.1,1.7c-0.1,0-0.3-0.1-0.5-0.1c-0.6,0-1,0.1-1.3,0.4s-0.5,0.7-0.5,1.2v3.3h-1.8v-6.6
				h1.4l0.3,1.1h0.1c0.2-0.4,0.5-0.7,0.8-0.9S92,140.6,92.4,140.6z"/>
			<path d="M96.9,146c0.3,0,0.7-0.1,1.1-0.2v1.3c-0.4,0.2-1,0.3-1.6,0.3c-0.7,0-1.2-0.2-1.6-0.5s-0.5-0.9-0.5-1.6v-3.2h-0.9v-0.8
				l1-0.6l0.5-1.4h1.1v1.4H98v1.3h-1.8v3.2c0,0.3,0.1,0.4,0.2,0.6S96.7,146,96.9,146z"/>
			<path d="M107.9,147.3l-0.5-2.3l-0.7-2.9h-0.1l-1.2,5.2h-1.9l-1.9-6.6h1.8l0.8,2.9c0.1,0.3,0.2,1.1,0.4,2.2h0
				c0-0.3,0.1-0.8,0.2-1.4l0.1-0.5l0.8-3.1h2l0.8,3.1c0,0.2,0.1,0.5,0.2,0.9s0.1,0.7,0.1,1h0c0-0.3,0.1-0.7,0.2-1.2s0.1-0.8,0.2-1
				l0.8-2.9h1.8l-1.9,6.6H107.9z"/>
			<path d="M112.7,139c0-0.6,0.3-0.9,1-0.9s1,0.3,1,0.9c0,0.3-0.1,0.5-0.2,0.6s-0.4,0.2-0.7,0.2C113,139.9,112.7,139.6,112.7,139z
				 M114.5,147.3h-1.8v-6.6h1.8V147.3z"/>
			<path d="M119.2,146c0.3,0,0.7-0.1,1.1-0.2v1.3c-0.4,0.2-1,0.3-1.6,0.3c-0.7,0-1.2-0.2-1.6-0.5s-0.5-0.9-0.5-1.6v-3.2h-0.9v-0.8
				l1-0.6l0.5-1.4h1.1v1.4h1.8v1.3h-1.8v3.2c0,0.3,0.1,0.4,0.2,0.6S118.9,146,119.2,146z"/>
			<path d="M127.7,147.3h-1.8v-3.8c0-0.9-0.4-1.4-1.1-1.4c-0.5,0-0.9,0.2-1.1,0.5s-0.3,0.9-0.3,1.7v3.1h-1.8v-9.1h1.8v1.9
				c0,0.1,0,0.5,0,1l0,0.5h0.1c0.4-0.6,1-1,1.9-1c0.8,0,1.4,0.2,1.8,0.6s0.6,1,0.6,1.8V147.3z"/>
			<path d="M34.2,154.5c-0.7,0-1.2,0.3-1.6,0.8s-0.6,1.2-0.6,2.1c0,1.9,0.7,2.9,2.2,2.9c0.6,0,1.3-0.2,2.2-0.5v1.5
				c-0.7,0.3-1.5,0.4-2.4,0.4c-1.2,0-2.2-0.4-2.9-1.1s-1-1.8-1-3.3c0-0.9,0.2-1.7,0.5-2.3s0.8-1.2,1.4-1.5s1.3-0.5,2.1-0.5
				c0.8,0,1.7,0.2,2.5,0.6l-0.6,1.5c-0.3-0.2-0.6-0.3-1-0.4S34.5,154.5,34.2,154.5z"/>
			<path d="M44,158.4c0,1.1-0.3,1.9-0.8,2.5s-1.3,0.9-2.3,0.9c-0.6,0-1.2-0.1-1.7-0.4s-0.8-0.7-1.1-1.2s-0.4-1.1-0.4-1.8
				c0-1.1,0.3-1.9,0.8-2.5s1.3-0.9,2.4-0.9c0.6,0,1.2,0.1,1.7,0.4s0.8,0.7,1.1,1.2S44,157.7,44,158.4z M39.5,158.4
				c0,0.6,0.1,1.1,0.3,1.5s0.6,0.5,1,0.5c0.5,0,0.8-0.2,1-0.5s0.3-0.8,0.3-1.5c0-0.6-0.1-1.1-0.3-1.5s-0.6-0.5-1-0.5
				c-0.5,0-0.8,0.2-1,0.5S39.5,157.8,39.5,158.4z"/>
			<path d="M50.2,161.7l-0.2-0.8h-0.1c-0.2,0.3-0.5,0.5-0.8,0.7s-0.8,0.2-1.2,0.2c-0.8,0-1.3-0.2-1.7-0.6s-0.6-1-0.6-1.8v-4.3h1.8
				v3.8c0,0.5,0.1,0.8,0.3,1.1s0.4,0.4,0.8,0.4c0.5,0,0.9-0.2,1.1-0.5s0.3-0.9,0.3-1.7v-3.1h1.8v6.6H50.2z"/>
			<path d="M57,161.8c-0.8,0-1.4-0.3-1.8-0.8h-0.1c0.1,0.5,0.1,0.9,0.1,0.9v2.7h-1.8v-9.4h1.5l0.3,0.8h0.1c0.4-0.6,1-1,1.9-1
				c0.8,0,1.4,0.3,1.8,0.9s0.7,1.4,0.7,2.5c0,0.7-0.1,1.3-0.3,1.8s-0.5,0.9-0.9,1.2S57.5,161.8,57,161.8z M56.5,156.4
				c-0.4,0-0.8,0.1-1,0.4s-0.3,0.7-0.3,1.3v0.2c0,0.7,0.1,1.2,0.3,1.5s0.5,0.5,1,0.5c0.8,0,1.2-0.7,1.2-2c0-0.6-0.1-1.1-0.3-1.5
				S56.9,156.4,56.5,156.4z"/>
			<path d="M66.9,158.4c0,1.1-0.3,1.9-0.8,2.5s-1.3,0.9-2.3,0.9c-0.6,0-1.2-0.1-1.7-0.4s-0.8-0.7-1.1-1.2s-0.4-1.1-0.4-1.8
				c0-1.1,0.3-1.9,0.8-2.5s1.3-0.9,2.4-0.9c0.6,0,1.2,0.1,1.7,0.4s0.8,0.7,1.1,1.2S66.9,157.7,66.9,158.4z M62.4,158.4
				c0,0.6,0.1,1.1,0.3,1.5s0.6,0.5,1,0.5c0.5,0,0.8-0.2,1-0.5s0.3-0.8,0.3-1.5c0-0.6-0.1-1.1-0.3-1.5s-0.6-0.5-1-0.5
				c-0.5,0-0.8,0.2-1,0.5S62.4,157.8,62.4,158.4z"/>
			<path d="M74.5,161.7h-1.8v-3.8c0-0.5-0.1-0.8-0.3-1.1s-0.4-0.4-0.8-0.4c-0.5,0-0.9,0.2-1.1,0.5s-0.3,0.9-0.3,1.7v3.1h-1.8v-6.6
				h1.4L70,156h0.1c0.2-0.3,0.5-0.6,0.8-0.7s0.7-0.2,1.2-0.2c0.8,0,1.3,0.2,1.7,0.6s0.6,1,0.6,1.8V161.7z"/>
			<path d="M80.9,159.7c0,0.7-0.2,1.2-0.7,1.5s-1.2,0.5-2.1,0.5c-0.5,0-0.9,0-1.2-0.1s-0.7-0.2-0.9-0.3V160c0.3,0.2,0.7,0.3,1.1,0.4
				s0.8,0.2,1.1,0.2c0.6,0,1-0.2,1-0.6c0-0.1,0-0.3-0.1-0.3s-0.2-0.2-0.4-0.3s-0.5-0.2-0.8-0.4c-0.5-0.2-0.9-0.4-1.1-0.6
				s-0.4-0.4-0.5-0.6s-0.2-0.5-0.2-0.9c0-0.6,0.2-1,0.7-1.4s1.1-0.5,1.9-0.5c0.8,0,1.6,0.2,2.3,0.5l-0.5,1.3
				c-0.3-0.1-0.6-0.3-0.9-0.3s-0.6-0.1-0.9-0.1c-0.5,0-0.8,0.1-0.8,0.4c0,0.2,0.1,0.3,0.3,0.4s0.5,0.3,1.1,0.5
				c0.5,0.2,0.9,0.4,1.1,0.6s0.4,0.4,0.5,0.6S80.9,159.4,80.9,159.7z"/>
			<path d="M91.3,158.4c0,1.1-0.3,1.9-0.8,2.5s-1.3,0.9-2.3,0.9c-0.6,0-1.2-0.1-1.7-0.4s-0.8-0.7-1.1-1.2s-0.4-1.1-0.4-1.8
				c0-1.1,0.3-1.9,0.8-2.5s1.3-0.9,2.4-0.9c0.6,0,1.2,0.1,1.7,0.4s0.8,0.7,1.1,1.2S91.3,157.7,91.3,158.4z M86.8,158.4
				c0,0.6,0.1,1.1,0.3,1.5s0.6,0.5,1,0.5c0.5,0,0.8-0.2,1-0.5s0.3-0.8,0.3-1.5c0-0.6-0.1-1.1-0.3-1.5s-0.6-0.5-1-0.5
				c-0.5,0-0.8,0.2-1,0.5S86.8,157.8,86.8,158.4z"/>
			<path d="M98.9,161.7h-1.8v-3.8c0-0.5-0.1-0.8-0.3-1.1s-0.4-0.4-0.8-0.4c-0.5,0-0.9,0.2-1.1,0.5s-0.3,0.9-0.3,1.7v3.1h-1.8v-6.6
				h1.4l0.2,0.8h0.1c0.2-0.3,0.5-0.6,0.8-0.7s0.7-0.2,1.2-0.2c0.8,0,1.3,0.2,1.7,0.6s0.6,1,0.6,1.8V161.7z"/>
			<path d="M107.8,161.7H106v-5l0-0.8l0-0.9c-0.3,0.3-0.5,0.5-0.6,0.6l-1,0.8l-0.9-1.1l2.8-2.2h1.5V161.7z"/>
			<path d="M114.7,161.7h-1.8v-5l0-0.8l0-0.9c-0.3,0.3-0.5,0.5-0.6,0.6l-1,0.8l-0.9-1.1l2.8-2.2h1.5V161.7z"/>
			<path d="M122.7,159.3c0,0.8-0.3,1.4-0.8,1.8s-1.3,0.7-2.3,0.7c-0.9,0-1.7-0.2-2.4-0.5v-1.7c0.6,0.3,1.1,0.4,1.5,0.5
				s0.8,0.2,1.1,0.2c0.4,0,0.7-0.1,0.9-0.2s0.3-0.4,0.3-0.7c0-0.2,0-0.3-0.1-0.4s-0.2-0.3-0.4-0.4s-0.6-0.3-1.1-0.6
				c-0.5-0.2-0.9-0.5-1.2-0.7s-0.5-0.5-0.6-0.8s-0.2-0.7-0.2-1.1c0-0.8,0.3-1.4,0.8-1.8s1.2-0.7,2.1-0.7c0.4,0,0.9,0.1,1.3,0.2
				s0.8,0.3,1.3,0.4l-0.6,1.4c-0.5-0.2-0.8-0.3-1.1-0.4s-0.6-0.1-0.9-0.1c-0.3,0-0.6,0.1-0.8,0.2s-0.3,0.4-0.3,0.6
				c0,0.2,0,0.3,0.1,0.4s0.2,0.2,0.4,0.3s0.5,0.3,1.2,0.6c0.8,0.4,1.3,0.8,1.6,1.2S122.7,158.8,122.7,159.3z"/>
			<path d="M126.9,160.4c0.3,0,0.7-0.1,1.1-0.2v1.3c-0.4,0.2-1,0.3-1.6,0.3c-0.7,0-1.2-0.2-1.6-0.5s-0.5-0.9-0.5-1.6v-3.2h-0.9v-0.8
				l1-0.6l0.5-1.4h1.1v1.4h1.8v1.3h-1.8v3.2c0,0.3,0.1,0.4,0.2,0.6S126.7,160.4,126.9,160.4z"/>
			<path d="M133,155c0.2,0,0.4,0,0.6,0.1l-0.1,1.7c-0.1,0-0.3-0.1-0.5-0.1c-0.6,0-1,0.1-1.3,0.4s-0.5,0.7-0.5,1.2v3.3h-1.8v-6.6h1.4
				l0.3,1.1h0.1c0.2-0.4,0.5-0.7,0.8-0.9S132.6,155,133,155z"/>
			<path d="M137.7,161.8c-1.1,0-1.9-0.3-2.5-0.9s-0.9-1.4-0.9-2.5c0-1.1,0.3-1.9,0.8-2.5s1.3-0.9,2.3-0.9c0.9,0,1.6,0.3,2.2,0.8
				s0.8,1.3,0.8,2.2v0.9h-4.2c0,0.5,0.2,0.9,0.5,1.2s0.7,0.4,1.2,0.4c0.4,0,0.8,0,1.1-0.1s0.7-0.2,1.1-0.4v1.4
				c-0.3,0.2-0.6,0.3-1,0.3S138.2,161.8,137.7,161.8z M137.4,156.3c-0.4,0-0.7,0.1-0.9,0.4s-0.3,0.6-0.4,1h2.5c0-0.4-0.1-0.8-0.3-1
				S137.8,156.3,137.4,156.3z"/>
			<path d="M144.8,161.8c-1.1,0-1.9-0.3-2.5-0.9s-0.9-1.4-0.9-2.5c0-1.1,0.3-1.9,0.8-2.5s1.3-0.9,2.3-0.9c0.9,0,1.6,0.3,2.2,0.8
				s0.8,1.3,0.8,2.2v0.9h-4.2c0,0.5,0.2,0.9,0.5,1.2s0.7,0.4,1.2,0.4c0.4,0,0.8,0,1.1-0.1s0.7-0.2,1.1-0.4v1.4
				c-0.3,0.2-0.6,0.3-1,0.3S145.3,161.8,144.8,161.8z M144.5,156.3c-0.4,0-0.7,0.1-0.9,0.4s-0.3,0.6-0.4,1h2.5c0-0.4-0.1-0.8-0.3-1
				S144.9,156.3,144.5,156.3z"/>
			<path d="M151.6,160.4c0.3,0,0.7-0.1,1.1-0.2v1.3c-0.4,0.2-1,0.3-1.6,0.3c-0.7,0-1.2-0.2-1.6-0.5s-0.5-0.9-0.5-1.6v-3.2h-0.9v-0.8
				l1-0.6l0.5-1.4h1.1v1.4h1.8v1.3h-1.8v3.2c0,0.3,0.1,0.4,0.2,0.6S151.4,160.4,151.6,160.4z"/>
			<path d="M153.8,160.9c0-0.3,0.1-0.6,0.3-0.7s0.4-0.3,0.8-0.3c0.3,0,0.6,0.1,0.8,0.3s0.3,0.4,0.3,0.7c0,0.3-0.1,0.6-0.3,0.7
				s-0.4,0.3-0.8,0.3c-0.3,0-0.6-0.1-0.8-0.3S153.8,161.2,153.8,160.9z"/>
		</g>
	</g>
	<polygon points="163.9,153 172.5,158 163.9,163 	"/>
</g>
</svg>