<!-- Generator: Adobe Illustrator 19.0.0, SVG Export Plug-In  -->
<svg version="1.1"
	 xmlns="http://www.w3.org/2000/svg" xmlns:xlink="http://www.w3.org/1999/xlink" xmlns:a="http://ns.adobe.com/AdobeSVGViewerExtensions/3.0/"
	 x="0px" y="0px" width="203px" height="203px" viewBox="0 0 203 203" style="enable-background:new 0 0 203 203;"
	 xml:space="preserve">
<style type="text/css">
	.st0{fill:#C8DA2F;stroke:#171717;stroke-width:3;stroke-miterlimit:10;}
	.st1{fill:#ED3F35;stroke:#171717;stroke-width:3;stroke-miterlimit:10;}
	.st2{fill:#FFFFFF;}
	.st3{fill:#E0E0E0;stroke:#15103F;stroke-width:3;stroke-miterlimit:10;}
	.st4{fill:#ED3F35;stroke:#171717;stroke-width:3;stroke-linecap:round;stroke-linejoin:round;stroke-miterlimit:10;}
</style>
<defs>
</defs>
<rect x="1.5" y="1.5" class="st0" width="200" height="200"/>
<rect x="1.5" y="1.5" class="st1" width="200" height="100"/>
<g>
	<path class="st2" d="M70.6,19H74v4.4c-0.6,0.2-1.1,0.3-1.6,0.4s-1,0.1-1.5,0.1c-1.3,0-2.3-0.4-3-1.1s-1-1.9-1-3.3
		c0-1.4,0.4-2.5,1.2-3.2c0.8-0.8,1.9-1.2,3.3-1.2c0.9,0,1.7,0.2,2.5,0.5l-0.6,1.5c-0.6-0.3-1.3-0.5-2-0.5c-0.8,0-1.4,0.3-1.9,0.8
		s-0.7,1.2-0.7,2.1c0,0.9,0.2,1.6,0.6,2.1s0.9,0.7,1.7,0.7c0.4,0,0.8,0,1.2-0.1v-1.8h-1.6V19z"/>
	<path class="st2" d="M78.9,23.9c-1.1,0-1.9-0.3-2.5-0.9s-0.9-1.4-0.9-2.5c0-1.1,0.3-1.9,0.8-2.5s1.3-0.9,2.3-0.9
		c0.9,0,1.6,0.3,2.2,0.8s0.8,1.3,0.8,2.2V21h-4.2c0,0.5,0.2,0.9,0.5,1.2s0.7,0.4,1.2,0.4c0.4,0,0.8,0,1.1-0.1s0.7-0.2,1.1-0.4v1.4
		c-0.3,0.2-0.6,0.3-1,0.3S79.4,23.9,78.9,23.9z M78.6,18.4c-0.4,0-0.7,0.1-0.9,0.4s-0.3,0.6-0.4,1h2.5c0-0.4-0.1-0.8-0.3-1
		S79,18.4,78.6,18.4z"/>
	<path class="st2" d="M88.9,23.8h-1.8V20c0-0.5-0.1-0.8-0.2-1.1s-0.4-0.4-0.7-0.4c-0.5,0-0.8,0.2-1,0.5s-0.3,0.9-0.3,1.7v3.1H83
		v-6.6h1.4l0.2,0.8h0.1c0.2-0.3,0.4-0.5,0.8-0.7s0.7-0.3,1.1-0.3c1,0,1.6,0.3,2,1h0.2c0.2-0.3,0.4-0.5,0.8-0.7s0.7-0.3,1.2-0.3
		c0.7,0,1.3,0.2,1.7,0.6s0.6,1,0.6,1.8v4.3h-1.8V20c0-0.5-0.1-0.8-0.2-1.1s-0.4-0.4-0.7-0.4c-0.4,0-0.8,0.2-1,0.5s-0.3,0.8-0.3,1.5
		V23.8z"/>
	<path class="st2" d="M96.7,23.8h-1.8v-8.6h4.9v1.5h-3.1v2.2h2.9v1.5h-2.9V23.8z"/>
	<path class="st2" d="M101.3,15.5c0-0.6,0.3-0.9,1-0.9s1,0.3,1,0.9c0,0.3-0.1,0.5-0.2,0.6s-0.4,0.2-0.7,0.2
		C101.6,16.4,101.3,16.1,101.3,15.5z M103.2,23.8h-1.8v-6.6h1.8V23.8z"/>
	<path class="st2" d="M106.6,23.8l-2.5-6.6h1.9l1.3,3.7c0.1,0.4,0.2,0.9,0.3,1.3h0c0-0.4,0.1-0.9,0.3-1.3l1.3-3.7h1.9l-2.5,6.6
		H106.6z"/>
	<path class="st2" d="M114.8,23.9c-1.1,0-1.9-0.3-2.5-0.9s-0.9-1.4-0.9-2.5c0-1.1,0.3-1.9,0.8-2.5s1.3-0.9,2.3-0.9
		c0.9,0,1.6,0.3,2.2,0.8s0.8,1.3,0.8,2.2V21h-4.2c0,0.5,0.2,0.9,0.5,1.2s0.7,0.4,1.2,0.4c0.4,0,0.8,0,1.1-0.1s0.7-0.2,1.1-0.4v1.4
		c-0.3,0.2-0.6,0.3-1,0.3S115.3,23.9,114.8,23.9z M114.6,18.4c-0.4,0-0.7,0.1-0.9,0.4s-0.3,0.6-0.4,1h2.5c0-0.4-0.1-0.8-0.3-1
		S114.9,18.4,114.6,18.4z"/>
	<path class="st2" d="M118.7,22.9c0-0.3,0.1-0.6,0.3-0.7s0.4-0.3,0.8-0.3c0.3,0,0.6,0.1,0.8,0.3s0.3,0.4,0.3,0.7
		c0,0.3-0.1,0.6-0.3,0.7s-0.4,0.3-0.8,0.3c-0.3,0-0.6-0.1-0.8-0.3S118.7,23.3,118.7,22.9z"/>
	<path class="st2" d="M128.4,23.8h-1.8V20c0-0.5-0.1-0.8-0.3-1.1s-0.4-0.4-0.8-0.4c-0.5,0-0.9,0.2-1.1,0.5s-0.3,0.9-0.3,1.7v3.1
		h-1.8v-6.6h1.4l0.2,0.8h0.1c0.2-0.3,0.5-0.6,0.8-0.7s0.7-0.2,1.2-0.2c0.8,0,1.3,0.2,1.7,0.6c0.4,0.4,0.6,1,0.6,1.8V23.8z"/>
	<path class="st2" d="M133.2,23.9c-1.1,0-1.9-0.3-2.5-0.9s-0.9-1.4-0.9-2.5c0-1.1,0.3-1.9,0.8-2.5s1.3-0.9,2.3-0.9
		c0.9,0,1.6,0.3,2.2,0.8s0.8,1.3,0.8,2.2V21h-4.2c0,0.5,0.2,0.9,0.5,1.2s0.7,0.4,1.2,0.4c0.4,0,0.8,0,1.1-0.1s0.7-0.2,1.1-0.4v1.4
		c-0.3,0.2-0.6,0.3-1,0.3S133.7,23.9,133.2,23.9z M133,18.4c-0.4,0-0.7,0.1-0.9,0.4s-0.3,0.6-0.4,1h2.5c0-0.4-0.1-0.8-0.3-1
		S133.3,18.4,133,18.4z"/>
	<path class="st2" d="M140.1,22.5c0.3,0,0.7-0.1,1.1-0.2v1.3c-0.4,0.2-1,0.3-1.6,0.3c-0.7,0-1.2-0.2-1.6-0.5s-0.5-0.9-0.5-1.6v-3.2
		h-0.9v-0.8l1-0.6l0.5-1.4h1.1v1.4h1.8v1.3h-1.8v3.2c0,0.3,0.1,0.4,0.2,0.6S139.9,22.5,140.1,22.5z"/>
</g>
<g>
	<path class="st2" d="M46.4,47.8c0,1.2-0.4,2.1-1.2,2.7s-2,1-3.5,1c-1.4,0-2.6-0.3-3.6-0.8v-2.5c0.9,0.4,1.6,0.7,2.2,0.8
		s1.1,0.2,1.6,0.2c0.6,0,1-0.1,1.4-0.3c0.3-0.2,0.5-0.6,0.5-1c0-0.3-0.1-0.5-0.2-0.7c-0.1-0.2-0.3-0.4-0.6-0.6s-0.8-0.5-1.7-0.9
		c-0.8-0.4-1.4-0.7-1.8-1.1c-0.4-0.3-0.7-0.7-0.9-1.2c-0.2-0.4-0.3-1-0.3-1.6c0-1.1,0.4-2,1.1-2.7c0.8-0.6,1.8-1,3.2-1
		c0.7,0,1.3,0.1,1.9,0.2c0.6,0.2,1.2,0.4,1.9,0.7l-0.9,2.1c-0.7-0.3-1.2-0.5-1.7-0.6s-0.9-0.2-1.3-0.2c-0.5,0-0.9,0.1-1.2,0.4
		c-0.3,0.2-0.4,0.5-0.4,0.9c0,0.2,0.1,0.4,0.2,0.6s0.3,0.3,0.5,0.5c0.2,0.2,0.8,0.5,1.7,0.9c1.2,0.6,2,1.1,2.5,1.7
		C46.2,46.2,46.4,46.9,46.4,47.8z"/>
	<path class="st2" d="M57.5,51.3h-2.7v-5.7c0-1.4-0.5-2.1-1.6-2.1c-0.7,0-1.3,0.3-1.6,0.8c-0.3,0.5-0.5,1.3-0.5,2.5v4.6h-2.7V37.7
		h2.7v2.8c0,0.2,0,0.7-0.1,1.5L51,42.8h0.1c0.6-1,1.5-1.4,2.8-1.4c1.1,0,2,0.3,2.6,0.9s0.9,1.5,0.9,2.7V51.3z"/>
	<path class="st2" d="M69.1,46.4c0,1.6-0.4,2.8-1.3,3.7c-0.8,0.9-2,1.3-3.5,1.3c-0.9,0-1.8-0.2-2.5-0.6s-1.3-1-1.6-1.8
		c-0.4-0.8-0.6-1.7-0.6-2.7c0-1.6,0.4-2.8,1.2-3.7s2-1.3,3.5-1.3c0.9,0,1.8,0.2,2.5,0.6s1.3,1,1.6,1.8
		C68.9,44.5,69.1,45.4,69.1,46.4z M62.4,46.4c0,1,0.2,1.7,0.5,2.2c0.3,0.5,0.8,0.7,1.5,0.7c0.7,0,1.2-0.2,1.5-0.7
		c0.3-0.5,0.5-1.2,0.5-2.2c0-1-0.2-1.7-0.5-2.2c-0.3-0.5-0.8-0.7-1.5-0.7c-0.7,0-1.2,0.2-1.5,0.7C62.5,44.7,62.4,45.5,62.4,46.4z"/>
	<path class="st2" d="M76.7,51.5c-1.1,0-2-0.4-2.7-1.2h-0.1c0.1,0.8,0.1,1.3,0.1,1.4v4h-2.7V41.6h2.2l0.4,1.3H74
		c0.6-1,1.5-1.4,2.8-1.4c1.2,0,2.1,0.4,2.7,1.3s1,2.1,1,3.7c0,1-0.2,1.9-0.5,2.7c-0.3,0.8-0.7,1.4-1.3,1.8S77.4,51.5,76.7,51.5z
		 M75.9,43.5c-0.7,0-1.1,0.2-1.4,0.6c-0.3,0.4-0.5,1.1-0.5,2v0.3c0,1,0.2,1.8,0.5,2.3s0.8,0.7,1.5,0.7c1.2,0,1.8-1,1.8-3
		c0-1-0.1-1.7-0.4-2.2C77,43.7,76.5,43.5,75.9,43.5z"/>
	<path class="st2" d="M99.3,51.3H96l-1-1c-1.1,0.8-2.4,1.2-3.8,1.2c-1.4,0-2.5-0.3-3.4-1c-0.8-0.7-1.2-1.5-1.2-2.6
		c0-0.8,0.2-1.5,0.5-2c0.4-0.6,1-1.1,1.8-1.6c-0.4-0.5-0.8-1-1-1.4c-0.2-0.5-0.3-1-0.3-1.5c0-0.9,0.3-1.6,1-2.1s1.6-0.8,2.7-0.8
		c1.1,0,1.9,0.3,2.6,0.8c0.6,0.5,1,1.2,1,2c0,0.7-0.2,1.3-0.6,1.9c-0.4,0.6-1,1.1-1.9,1.6l2.5,2.4c0.4-0.7,0.8-1.6,1.1-2.6h2.8
		c-0.2,0.8-0.5,1.6-0.9,2.3c-0.4,0.7-0.8,1.4-1.2,2L99.3,51.3z M89.4,47.6c0,0.5,0.2,0.9,0.6,1.2c0.4,0.3,0.9,0.4,1.4,0.4
		c0.7,0,1.4-0.2,2-0.5l-2.9-2.9c-0.3,0.3-0.6,0.5-0.8,0.8C89.5,46.9,89.4,47.3,89.4,47.6z M92.5,41.4c0-0.3-0.1-0.6-0.3-0.7
		c-0.2-0.2-0.5-0.3-0.8-0.3c-0.4,0-0.7,0.1-0.9,0.3c-0.2,0.2-0.3,0.5-0.3,0.8c0,0.5,0.3,1.1,0.8,1.7c0.5-0.3,0.9-0.6,1.2-0.8
		S92.5,41.8,92.5,41.4z"/>
	<path class="st2" d="M113.1,47.8c0,1.2-0.4,2.1-1.2,2.7s-2,1-3.5,1c-1.4,0-2.6-0.3-3.6-0.8v-2.5c0.9,0.4,1.6,0.7,2.2,0.8
		s1.1,0.2,1.6,0.2c0.6,0,1-0.1,1.4-0.3c0.3-0.2,0.5-0.6,0.5-1c0-0.3-0.1-0.5-0.2-0.7c-0.1-0.2-0.3-0.4-0.6-0.6s-0.8-0.5-1.7-0.9
		c-0.8-0.4-1.4-0.7-1.8-1.1c-0.4-0.3-0.7-0.7-0.9-1.2c-0.2-0.4-0.3-1-0.3-1.6c0-1.1,0.4-2,1.1-2.7c0.8-0.6,1.8-1,3.2-1
		c0.7,0,1.3,0.1,1.9,0.2c0.6,0.2,1.2,0.4,1.9,0.7l-0.9,2.1c-0.7-0.3-1.2-0.5-1.7-0.6s-0.9-0.2-1.3-0.2c-0.5,0-0.9,0.1-1.2,0.4
		c-0.3,0.2-0.4,0.5-0.4,0.9c0,0.2,0.1,0.4,0.2,0.6s0.3,0.3,0.5,0.5c0.2,0.2,0.8,0.5,1.7,0.9c1.2,0.6,2,1.1,2.5,1.7
		C112.8,46.2,113.1,46.9,113.1,47.8z"/>
	<path class="st2" d="M121.4,51.3l-0.5-1.3h-0.1c-0.4,0.6-0.9,1-1.4,1.2c-0.5,0.2-1.1,0.3-1.9,0.3c-0.9,0-1.7-0.3-2.2-0.8
		c-0.5-0.5-0.8-1.3-0.8-2.3c0-1,0.4-1.8,1.1-2.3c0.7-0.5,1.8-0.8,3.3-0.8l1.7-0.1v-0.4c0-1-0.5-1.5-1.5-1.5c-0.8,0-1.7,0.2-2.7,0.7
		l-0.9-1.8c1.1-0.6,2.4-0.9,3.7-0.9c1.3,0,2.3,0.3,3,0.9s1,1.4,1,2.6v6.5H121.4z M120.6,46.8l-1,0c-0.8,0-1.4,0.2-1.7,0.4
		s-0.6,0.6-0.6,1.2c0,0.8,0.4,1.1,1.3,1.1c0.6,0,1.1-0.2,1.5-0.5c0.4-0.4,0.6-0.8,0.6-1.4V46.8z"/>
	<path class="st2" d="M128.3,51.3l-3.7-9.8h2.8l1.9,5.6c0.2,0.6,0.3,1.3,0.4,2h0.1c0-0.7,0.2-1.3,0.4-2l1.9-5.6h2.8l-3.7,9.8H128.3z
		"/>
	<path class="st2" d="M140.5,51.5c-1.6,0-2.8-0.4-3.7-1.3s-1.3-2.1-1.3-3.7c0-1.6,0.4-2.9,1.2-3.8c0.8-0.9,1.9-1.3,3.4-1.3
		c1.4,0,2.5,0.4,3.2,1.2c0.8,0.8,1.2,1.9,1.2,3.3v1.3h-6.3c0,0.8,0.3,1.3,0.7,1.8s1,0.6,1.8,0.6c0.6,0,1.1-0.1,1.7-0.2
		c0.5-0.1,1.1-0.3,1.6-0.6v2.1c-0.5,0.2-1,0.4-1.5,0.5C142,51.4,141.3,51.5,140.5,51.5z M140.2,43.3c-0.6,0-1,0.2-1.3,0.5
		c-0.3,0.4-0.5,0.9-0.5,1.5h3.7c0-0.7-0.2-1.2-0.5-1.5C141.2,43.5,140.7,43.3,140.2,43.3z"/>
	<path class="st2" d="M34.5,60v8.3c0,1.5-0.4,2.6-1.3,3.4s-2.1,1.2-3.7,1.2c-1.5,0-2.7-0.4-3.6-1.3s-1.3-2-1.3-3.5V60h1.6v8.3
		c0,1,0.3,1.8,0.8,2.4s1.4,0.9,2.5,0.9c1.1,0,1.9-0.3,2.4-0.8s0.9-1.4,0.9-2.4V60H34.5z"/>
	<path class="st2" d="M42.2,72.9c-1.3,0-2.3-0.5-3-1.4h-0.1l0,0.4c0,0.5,0.1,0.9,0.1,1.2v3.9h-1.6V63.2H39l0.2,1.3h0.1
		c0.4-0.5,0.8-0.9,1.3-1.1c0.5-0.2,1.1-0.3,1.7-0.3c1.2,0,2.2,0.4,2.9,1.3c0.7,0.9,1,2.1,1,3.7c0,1.6-0.3,2.8-1,3.7
		C44.4,72.5,43.5,72.9,42.2,72.9z M41.9,64.3c-0.9,0-1.6,0.3-2.1,0.8s-0.6,1.4-0.7,2.5V68c0,1.3,0.2,2.2,0.6,2.8s1.1,0.9,2.1,0.9
		c0.8,0,1.4-0.3,1.9-1s0.7-1.6,0.7-2.7c0-1.2-0.2-2.1-0.7-2.7C43.4,64.6,42.8,64.3,41.9,64.3z"/>
	<path class="st2" d="M56.5,71.7c0.2,0,0.4,0,0.7-0.1c0.3,0,0.5-0.1,0.6-0.1v1.2c-0.1,0.1-0.4,0.1-0.7,0.2c-0.3,0.1-0.6,0.1-0.9,0.1
		c-1.9,0-2.8-1-2.8-3v-5.6h-1.4v-0.8l1.4-0.6l0.6-2H55v2.2h2.8v1.2H55v5.5c0,0.6,0.1,1,0.4,1.3S56,71.7,56.5,71.7z"/>
	<path class="st2" d="M68.1,68c0,1.6-0.4,2.8-1.2,3.7c-0.8,0.9-1.9,1.3-3.3,1.3c-0.9,0-1.6-0.2-2.3-0.6c-0.7-0.4-1.2-1-1.5-1.7
		c-0.4-0.8-0.5-1.6-0.5-2.6c0-1.6,0.4-2.8,1.2-3.6c0.8-0.9,1.9-1.3,3.3-1.3c1.3,0,2.4,0.4,3.2,1.3C67.7,65.2,68.1,66.4,68.1,68z
		 M60.8,68c0,1.2,0.2,2.1,0.7,2.7c0.5,0.6,1.2,0.9,2.1,0.9c0.9,0,1.6-0.3,2.1-0.9c0.5-0.6,0.7-1.5,0.7-2.7c0-1.2-0.2-2.1-0.7-2.7
		c-0.5-0.6-1.2-0.9-2.1-0.9C61.8,64.3,60.8,65.5,60.8,68z"/>
	<path class="st2" d="M77,67.5v5.3h-1.6V60h3.5c1.6,0,2.8,0.3,3.5,0.9c0.8,0.6,1.1,1.5,1.1,2.7c0,1.7-0.9,2.8-2.6,3.4l3.5,5.7h-1.9
		l-3.1-5.3H77z M77,66.1h1.9c1,0,1.8-0.2,2.3-0.6c0.5-0.4,0.7-1,0.7-1.8c0-0.8-0.2-1.4-0.7-1.8c-0.5-0.4-1.3-0.6-2.3-0.6H77V66.1z"
		/>
	<path class="st2" d="M92.2,72.8L88,61.6h-0.1C88,62.5,88,63.7,88,65v7.7h-1.5V60h2.4l3.9,10.5h0.1l4-10.5h2.4v12.8h-1.6v-7.8
		c0-0.9,0-2,0.1-3.3h-0.1l-4.3,11.2H92.2z"/>
	<path class="st2" d="M107.4,72.8h-1.5v-8.9c0-0.8,0-1.5,0.1-2.2c-0.2,0.2-0.3,0.3-0.5,0.5c-0.6,0.5-1.2,1-1.9,1.6l-0.8-1.1l3.5-2.7
		h1.3V72.8z"/>
	<path class="st2" d="M120.1,63c0,0.8-0.2,1.5-0.7,2s-1.1,0.9-2,1v0.1c1,0.1,1.8,0.5,2.3,1c0.5,0.5,0.8,1.2,0.8,2
		c0,1.2-0.4,2.2-1.3,2.8c-0.8,0.7-2.1,1-3.6,1c-0.7,0-1.3,0-1.9-0.1s-1.1-0.3-1.6-0.5v-1.5c0.5,0.3,1.1,0.5,1.7,0.6
		c0.6,0.1,1.2,0.2,1.8,0.2c2.2,0,3.2-0.8,3.2-2.5c0-1.5-1.2-2.3-3.6-2.3H114v-1.3h1.3c1,0,1.8-0.2,2.3-0.6c0.6-0.4,0.8-1,0.8-1.8
		c0-0.6-0.2-1.1-0.6-1.4c-0.4-0.3-1-0.5-1.7-0.5c-0.6,0-1.1,0.1-1.6,0.2c-0.5,0.2-1,0.4-1.7,0.8l-0.8-1.1c0.5-0.4,1.1-0.7,1.8-1
		c0.7-0.2,1.4-0.4,2.2-0.4c1.2,0,2.2,0.3,2.9,0.9C119.7,61.2,120.1,62,120.1,63z"/>
	<path class="st2" d="M126.6,59.8c1.2,0,2.1,0.3,2.8,0.8s1,1.3,1,2.2c0,0.6-0.2,1.2-0.6,1.7s-1,1-1.9,1.4c1,0.5,1.8,1,2.2,1.6
		c0.4,0.5,0.7,1.2,0.7,1.9c0,1.1-0.4,1.9-1.1,2.5c-0.8,0.6-1.8,0.9-3.1,0.9c-1.4,0-2.4-0.3-3.2-0.9c-0.7-0.6-1.1-1.4-1.1-2.5
		c0-1.5,0.9-2.6,2.6-3.4c-0.8-0.5-1.4-0.9-1.7-1.5c-0.3-0.5-0.5-1.1-0.5-1.8c0-0.9,0.3-1.7,1-2.2C124.5,60.1,125.4,59.8,126.6,59.8z
		 M123.9,69.5c0,0.7,0.2,1.2,0.7,1.6c0.5,0.4,1.1,0.6,2,0.6c0.8,0,1.5-0.2,2-0.6c0.5-0.4,0.7-0.9,0.7-1.6c0-0.6-0.2-1.1-0.7-1.5
		c-0.5-0.4-1.2-0.8-2.3-1.2c-0.8,0.4-1.5,0.8-1.8,1.2C124.1,68.4,123.9,68.9,123.9,69.5z M126.6,61.1c-0.7,0-1.2,0.2-1.6,0.5
		c-0.4,0.3-0.6,0.8-0.6,1.4c0,0.4,0.1,0.7,0.2,1s0.4,0.5,0.7,0.8c0.3,0.2,0.8,0.5,1.4,0.7c0.8-0.3,1.4-0.7,1.7-1.1
		c0.3-0.4,0.5-0.9,0.5-1.4c0-0.6-0.2-1-0.6-1.4C127.8,61.3,127.3,61.1,126.6,61.1z"/>
	<path class="st2" d="M146.2,68c0,1.6-0.4,2.8-1.2,3.7c-0.8,0.9-1.9,1.3-3.3,1.3c-0.9,0-1.6-0.2-2.3-0.6c-0.7-0.4-1.2-1-1.5-1.7
		c-0.4-0.8-0.5-1.6-0.5-2.6c0-1.6,0.4-2.8,1.2-3.6c0.8-0.9,1.9-1.3,3.3-1.3c1.3,0,2.4,0.4,3.2,1.3C145.8,65.2,146.2,66.4,146.2,68z
		 M139,68c0,1.2,0.2,2.1,0.7,2.7c0.5,0.6,1.2,0.9,2.1,0.9c0.9,0,1.6-0.3,2.1-0.9c0.5-0.6,0.7-1.5,0.7-2.7c0-1.2-0.2-2.1-0.7-2.7
		c-0.5-0.6-1.2-0.9-2.1-0.9C139.9,64.3,139,65.5,139,68z"/>
	<path class="st2" d="M153.1,64.4h-2.4v8.4h-1.6v-8.4h-1.7v-0.7l1.7-0.5v-0.5c0-1.2,0.3-2,0.8-2.6c0.5-0.6,1.3-0.9,2.4-0.9
		c0.6,0,1.2,0.1,1.9,0.3l-0.4,1.2c-0.5-0.2-1-0.3-1.4-0.3c-0.5,0-0.9,0.2-1.2,0.5c-0.3,0.3-0.4,0.9-0.4,1.7v0.6h2.4V64.4z"/>
	<path class="st2" d="M159.2,64.4h-2.4v8.4h-1.6v-8.4h-1.7v-0.7l1.7-0.5v-0.5c0-1.2,0.3-2,0.8-2.6s1.3-0.9,2.4-0.9
		c0.6,0,1.2,0.1,1.9,0.3l-0.4,1.2c-0.5-0.2-1-0.3-1.4-0.3c-0.5,0-0.9,0.2-1.2,0.5c-0.3,0.3-0.4,0.9-0.4,1.7v0.6h2.4V64.4z"/>
</g>
<rect x="101.5" y="101.5" class="st3" width="100" height="100"/>
<g>
	<g>
		<path d="M118.3,138.1h3.4v4.4c-0.6,0.2-1.1,0.3-1.6,0.4s-1,0.1-1.5,0.1c-1.3,0-2.3-0.4-3-1.1s-1-1.9-1-3.3c0-1.4,0.4-2.5,1.2-3.2
			s1.9-1.2,3.3-1.2c0.9,0,1.7,0.2,2.5,0.5l-0.6,1.5c-0.6-0.3-1.3-0.5-2-0.5c-0.8,0-1.4,0.3-1.9,0.8s-0.7,1.2-0.7,2.1
			c0,0.9,0.2,1.6,0.6,2.1s0.9,0.7,1.7,0.7c0.4,0,0.8,0,1.2-0.1v-1.8h-1.6V138.1z"/>
		<path d="M126.5,143.1c-1.1,0-1.9-0.3-2.5-0.9s-0.9-1.4-0.9-2.5c0-1.1,0.3-1.9,0.8-2.5s1.3-0.9,2.3-0.9c0.9,0,1.6,0.3,2.2,0.8
			c0.5,0.5,0.8,1.3,0.8,2.2v0.9H125c0,0.5,0.2,0.9,0.5,1.2s0.7,0.4,1.2,0.4c0.4,0,0.8,0,1.1-0.1c0.4-0.1,0.7-0.2,1.1-0.4v1.4
			c-0.3,0.2-0.6,0.3-1,0.3C127.5,143,127,143.1,126.5,143.1z M126.3,137.5c-0.4,0-0.7,0.1-0.9,0.4s-0.3,0.6-0.4,1h2.5
			c0-0.4-0.1-0.8-0.3-1S126.6,137.5,126.3,137.5z"/>
		<path d="M133.4,141.6c0.3,0,0.7-0.1,1.1-0.2v1.3c-0.4,0.2-1,0.3-1.6,0.3c-0.7,0-1.2-0.2-1.6-0.5s-0.5-0.9-0.5-1.6v-3.2H130V137
			l1-0.6l0.5-1.4h1.1v1.4h1.8v1.3h-1.8v3.2c0,0.3,0.1,0.4,0.2,0.6S133.2,141.6,133.4,141.6z"/>
		<path d="M138.6,141.6c0.3,0,0.7-0.1,1.1-0.2v1.3c-0.4,0.2-1,0.3-1.6,0.3c-0.7,0-1.2-0.2-1.6-0.5s-0.5-0.9-0.5-1.6v-3.2h-0.9V137
			l1-0.6l0.5-1.4h1.1v1.4h1.8v1.3h-1.8v3.2c0,0.3,0.1,0.4,0.2,0.6S138.4,141.6,138.6,141.6z"/>
		<path d="M141,134.7c0-0.6,0.3-0.9,1-0.9s1,0.3,1,0.9c0,0.3-0.1,0.5-0.2,0.6s-0.4,0.2-0.7,0.2C141.3,135.6,141,135.3,141,134.7z
			 M142.9,142.9h-1.8v-6.6h1.8V142.9z"/>
		<path d="M150.8,142.9H149v-3.8c0-0.5-0.1-0.8-0.3-1.1s-0.4-0.4-0.8-0.4c-0.5,0-0.9,0.2-1.1,0.5s-0.3,0.9-0.3,1.7v3.1h-1.8v-6.6
			h1.4l0.2,0.8h0.1c0.2-0.3,0.5-0.6,0.8-0.7s0.7-0.2,1.2-0.2c0.8,0,1.3,0.2,1.7,0.6s0.6,1,0.6,1.8V142.9z"/>
		<path d="M158.3,143c0,0.9-0.3,1.7-0.8,2.1s-1.4,0.7-2.5,0.7c-1,0-1.8-0.1-2.4-0.4V144c0.8,0.3,1.6,0.5,2.6,0.5
			c0.9,0,1.4-0.5,1.4-1.5v-0.1l0.1-0.8h-0.1c-0.4,0.6-1,1-1.9,1c-0.8,0-1.4-0.3-1.8-0.9s-0.6-1.4-0.6-2.5c0-1.1,0.2-1.9,0.7-2.5
			s1.1-0.9,1.8-0.9c0.8,0,1.4,0.3,1.9,1h0l0.1-0.8h1.5V143z M155.3,141.7c0.5,0,0.8-0.1,1-0.4s0.3-0.7,0.3-1.3v-0.2
			c0-0.7-0.1-1.2-0.3-1.5s-0.6-0.5-1-0.5c-0.8,0-1.3,0.7-1.3,2c0,0.7,0.1,1.1,0.3,1.5S154.9,141.7,155.3,141.7z"/>
		<path d="M166.1,141.6c0.3,0,0.7-0.1,1.1-0.2v1.3c-0.4,0.2-1,0.3-1.6,0.3c-0.7,0-1.2-0.2-1.6-0.5s-0.5-0.9-0.5-1.6v-3.2h-0.9V137
			l1-0.6l0.5-1.4h1.1v1.4h1.8v1.3h-1.8v3.2c0,0.3,0.1,0.4,0.2,0.6S165.9,141.6,166.1,141.6z"/>
		<path d="M174.6,142.9h-1.8v-3.8c0-0.9-0.4-1.4-1.1-1.4c-0.5,0-0.9,0.2-1.1,0.5s-0.3,0.9-0.3,1.7v3.1h-1.8v-9.1h1.8v1.9
			c0,0.1,0,0.5,0,1l0,0.5h0.1c0.4-0.6,1-1,1.9-1c0.8,0,1.4,0.2,1.8,0.6s0.6,1,0.6,1.8V142.9z"/>
		<path d="M179.4,143.1c-1.1,0-1.9-0.3-2.5-0.9s-0.9-1.4-0.9-2.5c0-1.1,0.3-1.9,0.8-2.5s1.3-0.9,2.3-0.9c0.9,0,1.6,0.3,2.2,0.8
			s0.8,1.3,0.8,2.2v0.9h-4.2c0,0.5,0.2,0.9,0.5,1.2s0.7,0.4,1.2,0.4c0.4,0,0.8,0,1.1-0.1s0.7-0.2,1.1-0.4v1.4
			c-0.3,0.2-0.6,0.3-1,0.3S179.9,143.1,179.4,143.1z M179.1,137.5c-0.4,0-0.7,0.1-0.9,0.4s-0.3,0.6-0.4,1h2.5c0-0.4-0.1-0.8-0.3-1
			S179.5,137.5,179.1,137.5z"/>
		<path d="M115,148.8h2.7c1.2,0,2.1,0.2,2.6,0.5s0.8,0.9,0.8,1.6c0,0.5-0.1,0.9-0.4,1.3s-0.6,0.5-1,0.6v0.1c0.5,0.1,0.9,0.3,1.2,0.7
			s0.4,0.8,0.4,1.3c0,0.8-0.3,1.4-0.8,1.8s-1.3,0.7-2.3,0.7H115V148.8z M116.8,152.2h1.1c0.5,0,0.8-0.1,1.1-0.2s0.3-0.4,0.3-0.8
			c0-0.3-0.1-0.6-0.4-0.7s-0.6-0.2-1.1-0.2h-1V152.2z M116.8,153.6v2.2h1.2c0.5,0,0.9-0.1,1.1-0.3s0.4-0.5,0.4-0.9
			c0-0.7-0.5-1.1-1.5-1.1H116.8z"/>
		<path d="M125.9,157.5c-1.1,0-1.9-0.3-2.5-0.9s-0.9-1.4-0.9-2.5c0-1.1,0.3-1.9,0.8-2.5s1.3-0.9,2.3-0.9c0.9,0,1.6,0.3,2.2,0.8
			c0.5,0.5,0.8,1.3,0.8,2.2v0.9h-4.2c0,0.5,0.2,0.9,0.5,1.2s0.7,0.4,1.2,0.4c0.4,0,0.8,0,1.1-0.1s0.7-0.2,1.1-0.4v1.4
			c-0.3,0.2-0.6,0.3-1,0.3S126.4,157.5,125.9,157.5z M125.6,151.9c-0.4,0-0.7,0.1-0.9,0.4s-0.3,0.6-0.4,1h2.5c0-0.4-0.1-0.8-0.3-1
			S126,151.9,125.6,151.9z"/>
		<path d="M134.6,155.4c0,0.7-0.2,1.2-0.7,1.5s-1.2,0.5-2.1,0.5c-0.5,0-0.9,0-1.2-0.1s-0.7-0.2-0.9-0.3v-1.5
			c0.3,0.2,0.7,0.3,1.1,0.4s0.8,0.2,1.1,0.2c0.6,0,1-0.2,1-0.6c0-0.1,0-0.3-0.1-0.3s-0.2-0.2-0.4-0.3s-0.5-0.2-0.8-0.4
			c-0.5-0.2-0.9-0.4-1.1-0.6s-0.4-0.4-0.5-0.6s-0.2-0.5-0.2-0.9c0-0.6,0.2-1,0.7-1.4s1.1-0.5,1.9-0.5c0.8,0,1.6,0.2,2.3,0.5
			l-0.5,1.3c-0.3-0.1-0.6-0.3-0.9-0.3s-0.6-0.1-0.9-0.1c-0.5,0-0.8,0.1-0.8,0.4c0,0.2,0.1,0.3,0.3,0.4s0.5,0.3,1.1,0.5
			c0.5,0.2,0.9,0.4,1.1,0.6s0.4,0.4,0.5,0.6S134.6,155.1,134.6,155.4z"/>
		<path d="M138.7,156c0.3,0,0.7-0.1,1.1-0.2v1.3c-0.4,0.2-1,0.3-1.6,0.3c-0.7,0-1.2-0.2-1.6-0.5s-0.5-0.9-0.5-1.6v-3.2h-0.9v-0.8
			l1-0.6l0.5-1.4h1.1v1.4h1.8v1.3H138v3.2c0,0.3,0.1,0.4,0.2,0.6S138.5,156,138.7,156z"/>
		<path d="M149.7,157.3l-0.5-2.3l-0.7-2.9h-0.1l-1.2,5.2h-1.9l-1.9-6.6h1.8l0.8,2.9c0.1,0.3,0.2,1.1,0.4,2.2h0
			c0-0.3,0.1-0.8,0.2-1.4l0.1-0.5l0.8-3.1h2l0.8,3.1c0,0.2,0.1,0.5,0.2,0.9s0.1,0.7,0.1,1h0c0-0.3,0.1-0.7,0.2-1.2s0.1-0.8,0.2-1
			l0.8-2.9h1.8l-1.9,6.6H149.7z"/>
		<path d="M154.5,149.1c0-0.6,0.3-0.9,1-0.9s1,0.3,1,0.9c0,0.3-0.1,0.5-0.2,0.6s-0.4,0.2-0.7,0.2C154.8,150,154.5,149.7,154.5,149.1
			z M156.4,157.3h-1.8v-6.6h1.8V157.3z"/>
		<path d="M161,156c0.3,0,0.7-0.1,1.1-0.2v1.3c-0.4,0.2-1,0.3-1.6,0.3c-0.7,0-1.2-0.2-1.6-0.5s-0.5-0.9-0.5-1.6v-3.2h-0.9v-0.8
			l1-0.6l0.5-1.4h1.1v1.4h1.8v1.3h-1.8v3.2c0,0.3,0.1,0.4,0.2,0.6S160.8,156,161,156z"/>
		<path d="M169.5,157.3h-1.8v-3.8c0-0.9-0.4-1.4-1.1-1.4c-0.5,0-0.9,0.2-1.1,0.5s-0.3,0.9-0.3,1.7v3.1h-1.8v-9.1h1.8v1.9
			c0,0.1,0,0.5,0,1l0,0.5h0.1c0.4-0.6,1-1,1.9-1c0.8,0,1.4,0.2,1.8,0.6s0.6,1,0.6,1.8V157.3z"/>
		<path d="M114.8,163.5c0-0.6,0.3-0.9,1-0.9s1,0.3,1,0.9c0,0.3-0.1,0.5-0.2,0.6s-0.4,0.2-0.7,0.2
			C115.1,164.4,114.8,164.1,114.8,163.5z M116.7,171.7h-1.8v-6.6h1.8V171.7z"/>
		<path d="M122.1,171.9c-0.8,0-1.4-0.3-1.8-0.8h-0.1c0.1,0.5,0.1,0.9,0.1,0.9v2.7h-1.8v-9.4h1.5l0.3,0.8h0.1c0.4-0.6,1-1,1.9-1
			c0.8,0,1.4,0.3,1.8,0.9s0.7,1.4,0.7,2.5c0,0.7-0.1,1.3-0.3,1.8s-0.5,0.9-0.9,1.2S122.6,171.9,122.1,171.9z M121.6,166.5
			c-0.4,0-0.8,0.1-1,0.4s-0.3,0.7-0.3,1.3v0.2c0,0.7,0.1,1.2,0.3,1.5s0.5,0.5,1,0.5c0.8,0,1.2-0.7,1.2-2c0-0.6-0.1-1.1-0.3-1.5
			S122,166.5,121.6,166.5z"/>
		<path d="M129.8,165.1c0.2,0,0.4,0,0.6,0.1l-0.1,1.7c-0.1,0-0.3-0.1-0.5-0.1c-0.6,0-1,0.1-1.3,0.4s-0.5,0.7-0.5,1.2v3.3h-1.8v-6.6
			h1.4l0.3,1.1h0.1c0.2-0.4,0.5-0.7,0.8-0.9S129.4,165.1,129.8,165.1z"/>
		<path d="M131.5,163.5c0-0.6,0.3-0.9,1-0.9s1,0.3,1,0.9c0,0.3-0.1,0.5-0.2,0.6s-0.4,0.2-0.7,0.2
			C131.8,164.4,131.5,164.1,131.5,163.5z M133.4,171.7h-1.8v-6.6h1.8V171.7z"/>
		<path d="M137.9,171.9c-2,0-3.1-1.1-3.1-3.4c0-1.1,0.3-2,0.8-2.6s1.3-0.9,2.4-0.9c0.8,0,1.4,0.1,2,0.4l-0.5,1.4
			c-0.3-0.1-0.5-0.2-0.8-0.3s-0.5-0.1-0.7-0.1c-0.9,0-1.4,0.7-1.4,2c0,1.3,0.5,1.9,1.4,1.9c0.3,0,0.7,0,1-0.1s0.6-0.2,0.9-0.4v1.5
			c-0.3,0.2-0.6,0.3-0.9,0.4S138.3,171.9,137.9,171.9z"/>
		<path d="M144.4,171.9c-1.1,0-1.9-0.3-2.5-0.9s-0.9-1.4-0.9-2.5c0-1.1,0.3-1.9,0.8-2.5s1.3-0.9,2.3-0.9c0.9,0,1.6,0.3,2.2,0.8
			s0.8,1.3,0.8,2.2v0.9h-4.2c0,0.5,0.2,0.9,0.5,1.2s0.7,0.4,1.2,0.4c0.4,0,0.8,0,1.1-0.1s0.7-0.2,1.1-0.4v1.4
			c-0.3,0.2-0.6,0.3-1,0.3S144.9,171.9,144.4,171.9z M144.1,166.3c-0.4,0-0.7,0.1-0.9,0.4s-0.3,0.6-0.4,1h2.5c0-0.4-0.1-0.8-0.3-1
			S144.5,166.3,144.1,166.3z"/>
	</g>
</g>
<polygon class="st4" points="48.6,121.8 55.2,113.4 58.1,123.7 67.5,118.5 66.2,129.1 76.8,127.9 71.7,137.2 81.9,140.2 73.6,146.8 
	81.9,153.4 71.7,156.4 76.8,165.7 66.2,164.5 67.5,175.1 58.1,169.9 55.2,180.2 48.6,171.8 41.9,180.2 39,169.9 29.7,175.1 
	30.9,164.5 20.3,165.7 25.5,156.4 15.2,153.4 23.6,146.8 15.2,140.2 25.5,137.2 20.3,127.9 30.9,129.1 29.7,118.5 39,123.7 
	41.9,113.4 "/>
<g>
	<path d="M35.1,142.1c0-3.3,2.7-5.6,5.7-5.6c3,0,5.7,2.3,5.7,5.6c0,3.3-2.7,5.6-5.7,5.6C37.7,147.6,35.1,145.3,35.1,142.1z
		 M43,142.1c0-1.4-1.1-2.4-2.3-2.4c-1.2,0-2.3,0.9-2.3,2.4c0,1.4,1.1,2.4,2.3,2.4C42,144.4,43,143.5,43,142.1z M52.5,136.8h3.9
		l-11.7,20h-3.9L52.5,136.8z M50.6,151.5c0-3.3,2.7-5.6,5.7-5.6c3,0,5.7,2.3,5.7,5.6s-2.7,5.6-5.7,5.6
		C53.3,157.1,50.6,154.8,50.6,151.5z M58.6,151.5c0-1.4-1.1-2.4-2.3-2.4c-1.2,0-2.3,0.9-2.3,2.4s1.1,2.4,2.3,2.4
		C57.6,153.9,58.6,153,58.6,151.5z"/>
</g>
<polygon points="156.1,163 164.8,168 156.1,173 "/>
</svg>