<!-- Generator: Adobe Illustrator 19.0.0, SVG Export Plug-In  -->
<svg version="1.1"
	 xmlns="http://www.w3.org/2000/svg" xmlns:xlink="http://www.w3.org/1999/xlink" xmlns:a="http://ns.adobe.com/AdobeSVGViewerExtensions/3.0/"
	 x="0px" y="0px" width="800px" height="2489.8px" viewBox="0 0 800 2489.8" style="enable-background:new 0 0 800 2489.8;"
	 xml:space="preserve">
<style type="text/css">
	.st0{fill:#E0E0E0;}
	.st1{fill:none;stroke:#15103F;stroke-width:3;stroke-miterlimit:10;}
	.st2{fill:#15103F;}
</style>
<defs>
</defs>
<rect class="st0" width="800" height="2489.8"/>
<line class="st1" x1="12.7" y1="1716.8" x2="760.4" y2="1716.8"/>
<circle class="st2" cx="96" cy="1717.5" r="16.7"/>
<circle class="st2" cx="390" cy="1717.5" r="16.7"/>
<circle class="st2" cx="691.3" cy="1717.5" r="16.7"/>
<g>
	<path d="M89,1756.1h-4.9v-8.6H89v1.5h-3.1v1.9h2.9v1.5h-2.9v2.2H89V1756.1z"/>
	<path d="M96.7,1756.1H95v-3.8c0-0.5-0.1-0.8-0.3-1.1s-0.4-0.4-0.8-0.4c-0.5,0-0.9,0.2-1.1,0.5s-0.3,0.9-0.3,1.7v3.1h-1.8v-6.6h1.4
		l0.2,0.8h0.1c0.2-0.3,0.5-0.6,0.8-0.7s0.7-0.2,1.2-0.2c0.8,0,1.3,0.2,1.7,0.6s0.6,1,0.6,1.8V1756.1z"/>
	<path d="M100.7,1756.2c-0.8,0-1.4-0.3-1.8-0.9s-0.7-1.4-0.7-2.5c0-1.1,0.2-1.9,0.7-2.5s1.1-0.9,1.8-0.9c0.8,0,1.5,0.3,1.9,1h0.1
		c-0.1-0.5-0.1-0.9-0.1-1.3v-2.1h1.8v9.1h-1.4l-0.3-0.8h-0.1C102.1,1755.9,101.5,1756.2,100.7,1756.2z M101.3,1754.8
		c0.5,0,0.8-0.1,1-0.4s0.3-0.7,0.3-1.4v-0.2c0-0.7-0.1-1.2-0.3-1.5s-0.6-0.5-1.1-0.5c-0.4,0-0.7,0.2-0.9,0.5s-0.3,0.8-0.3,1.5
		s0.1,1.1,0.3,1.4S100.9,1754.8,101.3,1754.8z"/>
	<path d="M110.7,1754.2c0,0.7-0.2,1.2-0.7,1.5s-1.2,0.5-2.1,0.5c-0.5,0-0.9,0-1.2-0.1s-0.7-0.2-0.9-0.3v-1.5
		c0.3,0.2,0.7,0.3,1.1,0.4s0.8,0.2,1.1,0.2c0.6,0,1-0.2,1-0.6c0-0.1,0-0.3-0.1-0.3s-0.2-0.2-0.4-0.3s-0.5-0.2-0.8-0.4
		c-0.5-0.2-0.9-0.4-1.1-0.6s-0.4-0.4-0.5-0.6s-0.2-0.5-0.2-0.9c0-0.6,0.2-1,0.7-1.4s1.1-0.5,1.9-0.5c0.8,0,1.6,0.2,2.3,0.5l-0.5,1.3
		c-0.3-0.1-0.6-0.3-0.9-0.3s-0.6-0.1-0.9-0.1c-0.5,0-0.8,0.1-0.8,0.4c0,0.2,0.1,0.3,0.3,0.4s0.5,0.3,1.1,0.5
		c0.5,0.2,0.9,0.4,1.1,0.6s0.4,0.4,0.5,0.6S110.7,1753.8,110.7,1754.2z"/>
	<path d="M85.9,1770.5h-1.8v-8.6H89v1.5h-3.1v2.2h2.9v1.5h-2.9V1770.5z"/>
	<path d="M93.5,1770.6c-1.1,0-1.9-0.3-2.5-0.9s-0.9-1.4-0.9-2.5c0-1.1,0.3-1.9,0.8-2.5s1.3-0.9,2.3-0.9c0.9,0,1.6,0.3,2.2,0.8
		s0.8,1.3,0.8,2.2v0.9H92c0,0.5,0.2,0.9,0.5,1.2s0.7,0.4,1.2,0.4c0.4,0,0.8,0,1.1-0.1s0.7-0.2,1.1-0.4v1.4c-0.3,0.2-0.6,0.3-1,0.3
		S94,1770.6,93.5,1770.6z M93.3,1765.1c-0.4,0-0.7,0.1-0.9,0.4s-0.3,0.6-0.4,1h2.5c0-0.4-0.1-0.8-0.3-1S93.7,1765.1,93.3,1765.1z"/>
	<path d="M101.3,1763.8c0.8,0,1.4,0.3,1.8,0.9s0.7,1.4,0.7,2.5c0,1.1-0.2,1.9-0.7,2.5s-1.1,0.9-1.8,0.9c-0.8,0-1.4-0.3-1.8-0.8h-0.1
		l-0.3,0.7h-1.4v-9.1h1.8v2.1c0,0.3,0,0.7-0.1,1.3h0.1C99.9,1764.2,100.5,1763.8,101.3,1763.8z M100.7,1765.3c-0.4,0-0.8,0.1-1,0.4
		s-0.3,0.7-0.3,1.3v0.2c0,0.7,0.1,1.2,0.3,1.5s0.5,0.5,1,0.5c0.4,0,0.7-0.2,0.9-0.5s0.3-0.8,0.3-1.5s-0.1-1.1-0.3-1.5
		S101.1,1765.3,100.7,1765.3z"/>
	<path d="M108.9,1763.8c0.2,0,0.4,0,0.6,0.1l-0.1,1.7c-0.1,0-0.3-0.1-0.5-0.1c-0.6,0-1,0.1-1.3,0.4s-0.5,0.7-0.5,1.2v3.3h-1.8v-6.6
		h1.4l0.3,1.1h0.1c0.2-0.4,0.5-0.7,0.8-0.9S108.5,1763.8,108.9,1763.8z"/>
	<path d="M115.3,1770.5l-0.2-0.8H115c-0.2,0.3-0.5,0.5-0.8,0.7s-0.8,0.3-1.2,0.3c-0.8,0-1.3-0.2-1.7-0.6s-0.6-1-0.6-1.8v-4.3h1.8
		v3.8c0,0.5,0.1,0.8,0.3,1.1s0.4,0.4,0.8,0.4c0.5,0,0.9-0.2,1.1-0.5s0.3-0.9,0.3-1.7v-3.1h1.8v6.6H115.3z"/>
	<path d="M122.7,1770.5l-0.3-0.9h0c-0.3,0.4-0.6,0.6-0.9,0.8s-0.7,0.2-1.2,0.2c-0.6,0-1.1-0.2-1.5-0.5s-0.5-0.9-0.5-1.5
		c0-0.7,0.2-1.2,0.7-1.5s1.2-0.5,2.2-0.5l1.1,0v-0.3c0-0.7-0.3-1-1-1c-0.5,0-1.1,0.2-1.8,0.5l-0.6-1.2c0.8-0.4,1.6-0.6,2.5-0.6
		c0.9,0,1.6,0.2,2,0.6s0.7,1,0.7,1.7v4.4H122.7z M122.2,1767.5l-0.7,0c-0.5,0-0.9,0.1-1.2,0.3s-0.4,0.4-0.4,0.8
		c0,0.5,0.3,0.8,0.9,0.8c0.4,0,0.7-0.1,1-0.4s0.4-0.6,0.4-0.9V1767.5z"/>
	<path d="M129.5,1763.8c0.2,0,0.4,0,0.6,0.1l-0.1,1.7c-0.1,0-0.3-0.1-0.5-0.1c-0.6,0-1,0.1-1.3,0.4c-0.3,0.3-0.5,0.7-0.5,1.2v3.3
		h-1.8v-6.6h1.4l0.3,1.1h0.1c0.2-0.4,0.5-0.7,0.8-0.9S129.1,1763.8,129.5,1763.8z"/>
	<path d="M130.3,1764h2l1.2,3.7c0.1,0.3,0.2,0.7,0.2,1.1h0c0-0.4,0.1-0.8,0.3-1.1l1.2-3.7h1.9l-2.8,7.4c-0.3,0.7-0.6,1.2-1.1,1.5
		s-1,0.5-1.6,0.5c-0.3,0-0.6,0-0.9-0.1v-1.4c0.2,0.1,0.4,0.1,0.7,0.1c0.3,0,0.6-0.1,0.8-0.3s0.4-0.5,0.6-0.9l0.1-0.3L130.3,1764z"/>
	<path d="M145.2,1770.5h-1.8v-5l0-0.8l0-0.9c-0.3,0.3-0.5,0.5-0.6,0.6l-1,0.8l-0.9-1.1l2.8-2.2h1.5V1770.5z"/>
	<path d="M153.8,1768.7h-1v1.8H151v-1.8h-3.7v-1.3l3.8-5.5h1.7v5.4h1V1768.7z M151,1767.3v-1.5c0-0.2,0-0.6,0-1.1s0-0.7,0-0.8h0
		c-0.1,0.3-0.3,0.6-0.5,0.9l-1.6,2.4H151z"/>
</g>
<g>
	<path d="M377.1,1753.3c-0.4,0-0.8,0-1.1-0.1v-1.5c0.3,0.1,0.6,0.1,0.9,0.1c0.4,0,0.7-0.1,0.9-0.4s0.3-0.6,0.3-1.2v-8h1.8v8
		c0,1-0.2,1.8-0.7,2.3S378,1753.3,377.1,1753.3z"/>
	<path d="M386,1750.7l-0.3-0.9h0c-0.3,0.4-0.6,0.6-0.9,0.8s-0.7,0.2-1.2,0.2c-0.6,0-1.1-0.2-1.5-0.5s-0.5-0.9-0.5-1.5
		c0-0.7,0.2-1.2,0.7-1.5s1.2-0.5,2.2-0.5l1.1,0v-0.3c0-0.7-0.3-1-1-1c-0.5,0-1.1,0.2-1.8,0.5l-0.6-1.2c0.8-0.4,1.6-0.6,2.5-0.6
		c0.9,0,1.6,0.2,2,0.6s0.7,1,0.7,1.7v4.4H386z M385.5,1747.7l-0.7,0c-0.5,0-0.9,0.1-1.2,0.3s-0.4,0.4-0.4,0.8c0,0.5,0.3,0.8,0.9,0.8
		c0.4,0,0.7-0.1,1-0.4s0.4-0.6,0.4-0.9V1747.7z"/>
	<path d="M395.2,1750.7h-1.8v-3.8c0-0.5-0.1-0.8-0.3-1.1s-0.4-0.4-0.8-0.4c-0.5,0-0.9,0.2-1.1,0.5s-0.3,0.9-0.3,1.7v3.1h-1.8v-6.6
		h1.4l0.2,0.8h0.1c0.2-0.3,0.5-0.6,0.8-0.7s0.7-0.2,1.2-0.2c0.8,0,1.3,0.2,1.7,0.6s0.6,1,0.6,1.8V1750.7z"/>
	<path d="M401.6,1750.7l-0.2-0.8h-0.1c-0.2,0.3-0.5,0.5-0.8,0.7s-0.8,0.2-1.2,0.2c-0.8,0-1.3-0.2-1.7-0.6s-0.6-1-0.6-1.8v-4.3h1.8
		v3.8c0,0.5,0.1,0.8,0.3,1.1s0.4,0.4,0.8,0.4c0.5,0,0.9-0.2,1.1-0.5s0.3-0.9,0.3-1.7v-3.1h1.8v6.6H401.6z"/>
	<path d="M409,1750.7l-0.3-0.9h0c-0.3,0.4-0.6,0.6-0.9,0.8s-0.7,0.2-1.2,0.2c-0.6,0-1.1-0.2-1.5-0.5s-0.5-0.9-0.5-1.5
		c0-0.7,0.2-1.2,0.7-1.5s1.2-0.5,2.2-0.5l1.1,0v-0.3c0-0.7-0.3-1-1-1c-0.5,0-1.1,0.2-1.8,0.5l-0.6-1.2c0.8-0.4,1.6-0.6,2.5-0.6
		c0.9,0,1.6,0.2,2,0.6s0.7,1,0.7,1.7v4.4H409z M408.5,1747.7l-0.7,0c-0.5,0-0.9,0.1-1.2,0.3s-0.4,0.4-0.4,0.8c0,0.5,0.3,0.8,0.9,0.8
		c0.4,0,0.7-0.1,1-0.4s0.4-0.6,0.4-0.9V1747.7z"/>
	<path d="M415.8,1744.1c0.2,0,0.4,0,0.6,0.1l-0.1,1.7c-0.1,0-0.3-0.1-0.5-0.1c-0.6,0-1,0.1-1.3,0.4s-0.5,0.7-0.5,1.2v3.3h-1.8v-6.6
		h1.4l0.3,1.1h0.1c0.2-0.4,0.5-0.7,0.8-0.9S415.4,1744.1,415.8,1744.1z"/>
	<path d="M416.6,1744.2h2l1.2,3.7c0.1,0.3,0.2,0.7,0.2,1.1h0c0-0.4,0.1-0.8,0.3-1.1l1.2-3.7h1.9l-2.8,7.4c-0.3,0.7-0.6,1.2-1.1,1.5
		s-1,0.5-1.6,0.5c-0.3,0-0.6,0-0.9-0.1v-1.4c0.2,0.1,0.4,0.1,0.7,0.1c0.3,0,0.6-0.1,0.8-0.3s0.4-0.5,0.6-0.9l0.1-0.3L416.6,1744.2z"
		/>
	<path d="M433.1,1750.7h-6v-1.3l2.2-2.2c0.6-0.7,1.1-1.1,1.2-1.4s0.3-0.5,0.4-0.7s0.1-0.4,0.1-0.7c0-0.3-0.1-0.6-0.3-0.8
		s-0.4-0.3-0.8-0.3c-0.3,0-0.7,0.1-1,0.2s-0.6,0.4-1,0.7l-1-1.2c0.4-0.4,0.8-0.6,1-0.8s0.6-0.3,0.9-0.3s0.7-0.1,1.1-0.1
		c0.5,0,1,0.1,1.4,0.3s0.7,0.5,1,0.8s0.3,0.8,0.3,1.2c0,0.4-0.1,0.8-0.2,1.1s-0.4,0.7-0.6,1.1s-0.8,0.9-1.5,1.6l-1.1,1v0.1h3.7
		V1750.7z"/>
	<path d="M433.9,1747.1c0-1.7,0.4-3,1.1-3.8s1.8-1.2,3.2-1.2c0.5,0,0.9,0,1.1,0.1v1.4c-0.3-0.1-0.7-0.1-1-0.1
		c-0.6,0-1.1,0.1-1.5,0.3s-0.7,0.5-0.9,0.8s-0.3,0.9-0.3,1.6h0.1c0.4-0.7,1-1,1.9-1c0.8,0,1.4,0.2,1.8,0.7s0.7,1.1,0.7,2
		c0,0.9-0.3,1.6-0.8,2.2s-1.2,0.8-2.1,0.8c-0.6,0-1.2-0.1-1.7-0.4s-0.8-0.7-1.1-1.3S433.9,1747.9,433.9,1747.1z M437,1749.4
		c0.4,0,0.7-0.1,0.9-0.4s0.3-0.6,0.3-1.1c0-0.4-0.1-0.7-0.3-1s-0.5-0.4-0.9-0.4c-0.4,0-0.7,0.1-0.9,0.4s-0.4,0.5-0.4,0.8
		c0,0.5,0.1,0.9,0.4,1.2S436.6,1749.4,437,1749.4z"/>
	<path d="M380.6,1763.8c0.3,0,0.7-0.1,1.1-0.2v1.3c-0.4,0.2-1,0.3-1.6,0.3c-0.7,0-1.2-0.2-1.6-0.5s-0.5-0.9-0.5-1.6v-3.2h-0.9v-0.8
		l1-0.6l0.5-1.4h1.1v1.4h1.8v1.3h-1.8v3.2c0,0.3,0.1,0.4,0.2,0.6S380.4,1763.8,380.6,1763.8z"/>
	<path d="M389,1761.8c0,1.1-0.3,1.9-0.8,2.5s-1.3,0.9-2.3,0.9c-0.6,0-1.2-0.1-1.7-0.4s-0.8-0.7-1.1-1.2s-0.4-1.1-0.4-1.8
		c0-1.1,0.3-1.9,0.8-2.5s1.3-0.9,2.4-0.9c0.6,0,1.2,0.1,1.7,0.4s0.8,0.7,1.1,1.2S389,1761.2,389,1761.8z M384.5,1761.8
		c0,0.6,0.1,1.1,0.3,1.5s0.6,0.5,1,0.5c0.5,0,0.8-0.2,1-0.5s0.3-0.8,0.3-1.5c0-0.6-0.1-1.1-0.3-1.5s-0.6-0.5-1-0.5
		c-0.5,0-0.8,0.2-1,0.5S384.5,1761.2,384.5,1761.8z"/>
	<path d="M379.8,1779.5H378v-8.6h4.9v1.5h-3.1v2.2h2.9v1.5h-2.9V1779.5z"/>
	<path d="M387.4,1779.6c-1.1,0-1.9-0.3-2.5-0.9s-0.9-1.4-0.9-2.5c0-1.1,0.3-1.9,0.8-2.5s1.3-0.9,2.3-0.9c0.9,0,1.6,0.3,2.2,0.8
		s0.8,1.3,0.8,2.2v0.9h-4.2c0,0.5,0.2,0.9,0.5,1.2s0.7,0.4,1.2,0.4c0.4,0,0.8,0,1.1-0.1s0.7-0.2,1.1-0.4v1.4c-0.3,0.2-0.6,0.3-1,0.3
		S388,1779.6,387.4,1779.6z M387.2,1774.1c-0.4,0-0.7,0.1-0.9,0.4s-0.3,0.6-0.4,1h2.5c0-0.4-0.1-0.8-0.3-1
		S387.6,1774.1,387.2,1774.1z"/>
	<path d="M395.2,1772.9c0.8,0,1.4,0.3,1.8,0.9s0.7,1.4,0.7,2.5c0,1.1-0.2,1.9-0.7,2.5s-1.1,0.9-1.8,0.9c-0.8,0-1.4-0.3-1.8-0.8h-0.1
		l-0.3,0.7h-1.4v-9.1h1.8v2.1c0,0.3,0,0.7-0.1,1.3h0.1C393.8,1773.2,394.4,1772.9,395.2,1772.9z M394.6,1774.3c-0.4,0-0.8,0.1-1,0.4
		s-0.3,0.7-0.3,1.3v0.2c0,0.7,0.1,1.2,0.3,1.5s0.5,0.5,1,0.5c0.4,0,0.7-0.2,0.9-0.5s0.3-0.8,0.3-1.5s-0.1-1.1-0.3-1.5
		S395,1774.3,394.6,1774.3z"/>
	<path d="M402.8,1772.9c0.2,0,0.4,0,0.6,0.1l-0.1,1.7c-0.1,0-0.3-0.1-0.5-0.1c-0.6,0-1,0.1-1.3,0.4s-0.5,0.7-0.5,1.2v3.3h-1.8v-6.6
		h1.4l0.3,1.1h0.1c0.2-0.4,0.5-0.7,0.8-0.9S402.4,1772.9,402.8,1772.9z"/>
	<path d="M409.2,1779.5l-0.2-0.8h-0.1c-0.2,0.3-0.5,0.5-0.8,0.7s-0.8,0.2-1.2,0.2c-0.8,0-1.3-0.2-1.7-0.6s-0.6-1-0.6-1.8v-4.3h1.8
		v3.8c0,0.5,0.1,0.8,0.3,1.1s0.4,0.4,0.8,0.4c0.5,0,0.9-0.2,1.1-0.5s0.3-0.9,0.3-1.7v-3.1h1.8v6.6H409.2z"/>
	<path d="M416.7,1779.5l-0.3-0.9h0c-0.3,0.4-0.6,0.6-0.9,0.8s-0.7,0.2-1.2,0.2c-0.6,0-1.1-0.2-1.5-0.5s-0.5-0.9-0.5-1.5
		c0-0.7,0.2-1.2,0.7-1.5s1.2-0.5,2.2-0.5l1.1,0v-0.3c0-0.7-0.3-1-1-1c-0.5,0-1.1,0.2-1.8,0.5l-0.6-1.2c0.8-0.4,1.6-0.6,2.5-0.6
		c0.9,0,1.6,0.2,2,0.6s0.7,1,0.7,1.7v4.4H416.7z M416.1,1776.5l-0.7,0c-0.5,0-0.9,0.1-1.2,0.3s-0.4,0.4-0.4,0.8
		c0,0.5,0.3,0.8,0.9,0.8c0.4,0,0.7-0.1,1-0.4s0.4-0.6,0.4-0.9V1776.5z"/>
	<path d="M423.4,1772.9c0.2,0,0.4,0,0.6,0.1l-0.1,1.7c-0.1,0-0.3-0.1-0.5-0.1c-0.6,0-1,0.1-1.3,0.4s-0.5,0.7-0.5,1.2v3.3h-1.8v-6.6
		h1.4l0.3,1.1h0.1c0.2-0.4,0.5-0.7,0.8-0.9S423,1772.9,423.4,1772.9z"/>
	<path d="M424.3,1773h2l1.2,3.7c0.1,0.3,0.2,0.7,0.2,1.1h0c0-0.4,0.1-0.8,0.3-1.1l1.2-3.7h1.9l-2.8,7.4c-0.3,0.7-0.6,1.2-1.1,1.5
		s-1,0.5-1.6,0.5c-0.3,0-0.6,0-0.9-0.1v-1.4c0.2,0.1,0.4,0.1,0.7,0.1c0.3,0,0.6-0.1,0.8-0.3s0.4-0.5,0.6-0.9l0.1-0.3L424.3,1773z"/>
	<path d="M437.6,1770.9c0.8,0,1.5,0.2,2,0.6s0.8,0.9,0.8,1.5c0,0.4-0.1,0.8-0.4,1.2s-0.6,0.6-1.2,0.9c0.6,0.3,1.1,0.7,1.4,1.1
		s0.4,0.8,0.4,1.2c0,0.7-0.3,1.3-0.8,1.7s-1.3,0.6-2.2,0.6c-0.9,0-1.7-0.2-2.2-0.6s-0.8-1-0.8-1.7c0-0.5,0.1-0.9,0.4-1.3
		s0.7-0.7,1.3-1c-0.5-0.3-0.8-0.6-1.1-1s-0.3-0.7-0.3-1.2c0-0.6,0.3-1.1,0.8-1.5S436.8,1770.9,437.6,1770.9z M436.3,1777.3
		c0,0.3,0.1,0.6,0.4,0.8s0.6,0.3,1,0.3c0.4,0,0.8-0.1,1-0.3s0.3-0.4,0.3-0.8c0-0.3-0.1-0.5-0.3-0.7s-0.6-0.5-1.1-0.7
		C436.7,1776.2,436.3,1776.7,436.3,1777.3z M437.6,1772.2c-0.3,0-0.6,0.1-0.7,0.2s-0.3,0.4-0.3,0.6c0,0.2,0.1,0.4,0.2,0.6
		s0.4,0.4,0.8,0.6c0.4-0.2,0.7-0.4,0.8-0.6s0.2-0.4,0.2-0.7c0-0.3-0.1-0.5-0.3-0.6S437.9,1772.2,437.6,1772.2z"/>
</g>
<g>
	<path d="M682.8,1754.8h-4.9v-8.6h4.9v1.5h-3.1v1.9h2.9v1.5h-2.9v2.2h3.1V1754.8z"/>
	<path d="M690.5,1754.8h-1.8v-3.8c0-0.5-0.1-0.8-0.3-1.1s-0.4-0.4-0.8-0.4c-0.5,0-0.9,0.2-1.1,0.5s-0.3,0.9-0.3,1.7v3.1h-1.8v-6.6
		h1.4l0.2,0.8h0.1c0.2-0.3,0.5-0.6,0.8-0.7s0.7-0.2,1.2-0.2c0.8,0,1.3,0.2,1.7,0.6s0.6,1,0.6,1.8V1754.8z"/>
	<path d="M694.4,1754.9c-0.8,0-1.4-0.3-1.8-0.9s-0.7-1.4-0.7-2.5c0-1.1,0.2-1.9,0.7-2.5s1.1-0.9,1.8-0.9c0.8,0,1.5,0.3,1.9,1h0.1
		c-0.1-0.5-0.1-0.9-0.1-1.3v-2.1h1.8v9.1h-1.4l-0.3-0.8h-0.1C695.9,1754.6,695.2,1754.9,694.4,1754.9z M695,1753.5
		c0.5,0,0.8-0.1,1-0.4s0.3-0.7,0.3-1.4v-0.2c0-0.7-0.1-1.2-0.3-1.5s-0.6-0.5-1.1-0.5c-0.4,0-0.7,0.2-0.9,0.5s-0.3,0.8-0.3,1.5
		s0.1,1.1,0.3,1.5S694.6,1753.5,695,1753.5z"/>
	<path d="M704.5,1752.8c0,0.7-0.2,1.2-0.7,1.5s-1.2,0.5-2.1,0.5c-0.5,0-0.9,0-1.2-0.1s-0.7-0.2-0.9-0.3v-1.5
		c0.3,0.2,0.7,0.3,1.1,0.4s0.8,0.2,1.1,0.2c0.6,0,1-0.2,1-0.6c0-0.1,0-0.3-0.1-0.3s-0.2-0.2-0.4-0.3s-0.5-0.2-0.8-0.4
		c-0.5-0.2-0.9-0.4-1.1-0.6s-0.4-0.4-0.5-0.6s-0.2-0.5-0.2-0.9c0-0.6,0.2-1,0.7-1.4s1.1-0.5,1.9-0.5c0.8,0,1.6,0.2,2.3,0.5l-0.5,1.3
		c-0.3-0.1-0.6-0.3-0.9-0.3s-0.6-0.1-0.9-0.1c-0.5,0-0.8,0.1-0.8,0.4c0,0.2,0.1,0.3,0.3,0.4s0.5,0.3,1.1,0.5
		c0.5,0.2,0.9,0.4,1.1,0.6s0.4,0.4,0.5,0.6S704.5,1752.5,704.5,1752.8z"/>
	<path d="M683.1,1769.2l-0.6-2h-3.1l-0.6,2h-2l3-8.6h2.2l3,8.6H683.1z M682.1,1765.6c-0.6-1.8-0.9-2.9-1-3.1s-0.1-0.4-0.2-0.6
		c-0.1,0.5-0.5,1.7-1.1,3.7H682.1z"/>
	<path d="M689.6,1769.3c-0.8,0-1.4-0.3-1.8-0.8h-0.1c0.1,0.5,0.1,0.9,0.1,0.9v2.7H686v-9.4h1.5l0.3,0.8h0.1c0.4-0.6,1-1,1.9-1
		c0.8,0,1.4,0.3,1.8,0.9s0.7,1.4,0.7,2.5c0,0.7-0.1,1.3-0.3,1.8s-0.5,0.9-0.9,1.2S690.1,1769.3,689.6,1769.3z M689.1,1763.9
		c-0.4,0-0.8,0.1-1,0.4s-0.3,0.7-0.3,1.3v0.2c0,0.7,0.1,1.2,0.3,1.5s0.5,0.5,1,0.5c0.8,0,1.2-0.7,1.2-2c0-0.6-0.1-1.1-0.3-1.5
		S689.5,1763.9,689.1,1763.9z"/>
	<path d="M697.3,1762.5c0.2,0,0.4,0,0.6,0.1l-0.1,1.7c-0.1,0-0.3-0.1-0.5-0.1c-0.6,0-1,0.1-1.3,0.4s-0.5,0.7-0.5,1.2v3.3h-1.8v-6.6
		h1.4l0.3,1.1h0.1c0.2-0.4,0.5-0.7,0.8-0.9S696.8,1762.5,697.3,1762.5z"/>
	<path d="M699,1760.9c0-0.6,0.3-0.9,1-0.9s1,0.3,1,0.9c0,0.3-0.1,0.5-0.2,0.6s-0.4,0.2-0.7,0.2C699.3,1761.8,699,1761.5,699,1760.9z
		 M700.8,1769.2H699v-6.6h1.8V1769.2z"/>
	<path d="M704.5,1769.2h-1.8v-9.1h1.8V1769.2z"/>
	<path d="M714.7,1762.5c0,0.5-0.2,1-0.5,1.4s-0.8,0.6-1.4,0.8v0c0.7,0.1,1.2,0.3,1.6,0.6s0.5,0.8,0.5,1.4c0,0.8-0.3,1.5-0.9,1.9
		s-1.5,0.7-2.6,0.7c-0.9,0-1.8-0.2-2.5-0.5v-1.5c0.3,0.2,0.7,0.3,1.1,0.4s0.8,0.2,1.2,0.2c0.6,0,1-0.1,1.3-0.3s0.4-0.5,0.4-1
		c0-0.4-0.2-0.7-0.5-0.9s-0.9-0.3-1.6-0.3h-0.7v-1.4h0.7c0.7,0,1.1-0.1,1.5-0.3s0.5-0.5,0.5-0.9c0-0.6-0.4-1-1.2-1
		c-0.3,0-0.6,0-0.9,0.1s-0.6,0.3-1,0.5l-0.8-1.2c0.8-0.6,1.7-0.8,2.8-0.8c0.9,0,1.6,0.2,2.1,0.5S714.7,1761.9,714.7,1762.5z"/>
	<path d="M721.8,1764.9c0,1.5-0.2,2.6-0.7,3.3s-1.2,1.1-2.3,1.1c-1,0-1.7-0.4-2.2-1.1s-0.8-1.8-0.8-3.3c0-1.5,0.2-2.6,0.7-3.3
		s1.2-1.1,2.3-1.1c1,0,1.7,0.4,2.2,1.1S721.8,1763.4,721.8,1764.9z M717.6,1764.9c0,1.1,0.1,1.8,0.3,2.3s0.5,0.7,0.9,0.7
		c0.4,0,0.7-0.2,0.9-0.7s0.3-1.2,0.3-2.3c0-1.1-0.1-1.8-0.3-2.3s-0.5-0.7-0.9-0.7c-0.4,0-0.7,0.2-0.9,0.7S717.6,1763.8,717.6,1764.9
		z"/>
</g>
</svg>