<!-- Generator: Adobe Illustrator 19.0.0, SVG Export Plug-In  -->
<svg version="1.1"
	 xmlns="http://www.w3.org/2000/svg" xmlns:xlink="http://www.w3.org/1999/xlink" xmlns:a="http://ns.adobe.com/AdobeSVGViewerExtensions/3.0/"
	 x="0px" y="0px" width="203px" height="203px" viewBox="0 0 203 203" style="enable-background:new 0 0 203 203;"
	 xml:space="preserve">
<style type="text/css">
	.st0{fill:#30B5BA;stroke:#16113F;stroke-width:3;stroke-miterlimit:10;}
	.st1{fill:#118E9B;stroke:#16113F;stroke-width:3;stroke-miterlimit:10;}
	.st2{fill:#FFFFFF;}
</style>
<defs>
</defs>
<rect x="1.5" y="1.5" class="st0" width="200" height="200"/>
<rect x="1.5" y="1.5" class="st1" width="200" height="100"/>
<g>
	<path class="st2" d="M92.1,23.8h-6.4v-1.2l4.1-5.9h-4v-1.5H92v1.2l-4.1,5.9h4.2V23.8z"/>
	<path class="st2" d="M97.5,23.8l-0.3-0.9h0c-0.3,0.4-0.6,0.6-0.9,0.8s-0.7,0.2-1.2,0.2c-0.6,0-1.1-0.2-1.5-0.5s-0.5-0.9-0.5-1.5
		c0-0.7,0.2-1.2,0.7-1.5s1.2-0.5,2.2-0.5l1.1,0v-0.3c0-0.7-0.3-1-1-1c-0.5,0-1.1,0.2-1.8,0.5l-0.6-1.2c0.8-0.4,1.6-0.6,2.5-0.6
		c0.9,0,1.6,0.2,2,0.6s0.7,1,0.7,1.7v4.4H97.5z M96.9,20.7l-0.7,0c-0.5,0-0.9,0.1-1.2,0.3s-0.4,0.4-0.4,0.8c0,0.5,0.3,0.8,0.9,0.8
		c0.4,0,0.7-0.1,1-0.4s0.4-0.6,0.4-0.9V20.7z"/>
	<path class="st2" d="M102.3,23.8h-1.8v-9.1h1.8V23.8z"/>
	<path class="st2" d="M110.2,20.5c0,1.1-0.3,1.9-0.8,2.5s-1.3,0.9-2.3,0.9c-0.6,0-1.2-0.1-1.7-0.4s-0.8-0.7-1.1-1.2
		s-0.4-1.1-0.4-1.8c0-1.1,0.3-1.9,0.8-2.5s1.3-0.9,2.4-0.9c0.6,0,1.2,0.1,1.7,0.4s0.8,0.7,1.1,1.2S110.2,19.8,110.2,20.5z
		 M105.6,20.5c0,0.6,0.1,1.1,0.3,1.5s0.6,0.5,1,0.5c0.5,0,0.8-0.2,1-0.5s0.3-0.8,0.3-1.5c0-0.6-0.1-1.1-0.3-1.5s-0.6-0.5-1-0.5
		c-0.5,0-0.8,0.2-1,0.5S105.6,19.8,105.6,20.5z"/>
	<path class="st2" d="M115.3,17.1c0.2,0,0.4,0,0.6,0.1l-0.1,1.7c-0.1,0-0.3-0.1-0.5-0.1c-0.6,0-1,0.1-1.3,0.4s-0.5,0.7-0.5,1.2v3.3
		h-1.8v-6.6h1.4l0.3,1.1h0.1c0.2-0.4,0.5-0.7,0.8-0.9S114.9,17.1,115.3,17.1z"/>
	<path class="st2" d="M121.1,23.8l-0.3-0.9h0c-0.3,0.4-0.6,0.6-0.9,0.8s-0.7,0.2-1.2,0.2c-0.6,0-1.1-0.2-1.5-0.5s-0.5-0.9-0.5-1.5
		c0-0.7,0.2-1.2,0.7-1.5s1.2-0.5,2.2-0.5l1.1,0v-0.3c0-0.7-0.3-1-1-1c-0.5,0-1.1,0.2-1.8,0.5l-0.6-1.2c0.8-0.4,1.6-0.6,2.5-0.6
		c0.9,0,1.6,0.2,2,0.6s0.7,1,0.7,1.7v4.4H121.1z M120.6,20.7l-0.7,0c-0.5,0-0.9,0.1-1.2,0.3s-0.4,0.4-0.4,0.8c0,0.5,0.3,0.8,0.9,0.8
		c0.4,0,0.7-0.1,1-0.4s0.4-0.6,0.4-0.9V20.7z"/>
</g>
<g>
	<path class="st2" d="M42.2,38.7h4c1.8,0,3.1,0.3,3.9,0.8c0.8,0.5,1.2,1.3,1.2,2.5c0,0.8-0.2,1.4-0.5,1.9c-0.4,0.5-0.8,0.8-1.4,0.9
		v0.1c0.8,0.2,1.4,0.5,1.8,1c0.4,0.5,0.5,1.2,0.5,2c0,1.2-0.4,2.1-1.3,2.7c-0.8,0.7-2,1-3.4,1h-4.8V38.7z M44.9,43.8h1.6
		c0.7,0,1.3-0.1,1.6-0.3s0.5-0.6,0.5-1.1c0-0.5-0.2-0.8-0.5-1.1c-0.4-0.2-0.9-0.3-1.7-0.3h-1.4V43.8z M44.9,45.9v3.3h1.8
		c0.7,0,1.3-0.1,1.7-0.4c0.4-0.3,0.5-0.7,0.5-1.3c0-1.1-0.8-1.6-2.3-1.6H44.9z"/>
	<path class="st2" d="M60.9,51.5l-0.4-1.2h-0.1c-0.3,0.5-0.7,0.8-1.2,1.1s-1.1,0.4-1.8,0.4c-1.1,0-2-0.3-2.6-0.9
		c-0.6-0.6-0.9-1.5-0.9-2.6v-6.4h2.7v5.7c0,0.7,0.1,1.2,0.4,1.6c0.3,0.4,0.6,0.5,1.2,0.5c0.7,0,1.3-0.2,1.6-0.7
		c0.3-0.5,0.5-1.3,0.5-2.5v-4.6h2.7v9.8H60.9z"/>
	<path class="st2" d="M64.3,41.7h2.9l1.8,5.5c0.2,0.5,0.3,1,0.3,1.7h0.1c0.1-0.6,0.2-1.2,0.4-1.7l1.8-5.5h2.9l-4.1,11
		c-0.4,1-0.9,1.8-1.6,2.3s-1.5,0.8-2.5,0.8c-0.5,0-0.9,0-1.4-0.1v-2.1c0.3,0.1,0.7,0.1,1,0.1c0.5,0,0.9-0.1,1.2-0.4s0.6-0.7,0.8-1.3
		l0.2-0.5L64.3,41.7z"/>
	<path class="st2" d="M88.8,51.5h-8.9v-1.9l3.2-3.2c0.9-1,1.6-1.6,1.9-2s0.5-0.7,0.6-1c0.1-0.3,0.2-0.7,0.2-1c0-0.5-0.1-0.9-0.4-1.1
		c-0.3-0.3-0.7-0.4-1.1-0.4c-0.5,0-1,0.1-1.4,0.3c-0.5,0.2-1,0.6-1.5,1l-1.5-1.7c0.6-0.5,1.1-0.9,1.6-1.1s0.9-0.4,1.4-0.5
		c0.5-0.1,1-0.2,1.6-0.2c0.8,0,1.5,0.1,2.1,0.4c0.6,0.3,1.1,0.7,1.4,1.2s0.5,1.1,0.5,1.8c0,0.6-0.1,1.1-0.3,1.7s-0.5,1-1,1.6
		s-1.2,1.3-2.3,2.3l-1.6,1.5v0.1h5.6V51.5z"/>
	<path class="st2" d="M104.3,46.6c0,1.6-0.4,2.8-1.3,3.7c-0.8,0.9-2,1.3-3.5,1.3c-0.9,0-1.8-0.2-2.5-0.6s-1.3-1-1.7-1.8
		c-0.4-0.8-0.6-1.7-0.6-2.7c0-1.6,0.4-2.8,1.2-3.7s2-1.3,3.5-1.3c0.9,0,1.8,0.2,2.5,0.6c0.7,0.4,1.3,1,1.7,1.8
		C104.1,44.7,104.3,45.6,104.3,46.6z M97.5,46.6c0,1,0.2,1.7,0.5,2.2c0.3,0.5,0.8,0.7,1.5,0.7c0.7,0,1.2-0.2,1.5-0.7
		c0.3-0.5,0.5-1.2,0.5-2.2c0-1-0.2-1.7-0.5-2.2c-0.3-0.5-0.8-0.7-1.5-0.7c-0.7,0-1.2,0.2-1.5,0.7C97.7,44.9,97.5,45.6,97.5,46.6z"/>
	<path class="st2" d="M111.9,41.6c0.4,0,0.7,0,0.9,0.1l-0.2,2.5c-0.2-0.1-0.5-0.1-0.8-0.1c-0.8,0-1.5,0.2-2,0.7
		c-0.5,0.4-0.7,1-0.7,1.8v5h-2.7v-9.8h2l0.4,1.6h0.1c0.3-0.5,0.7-1,1.2-1.3C110.7,41.7,111.3,41.6,111.9,41.6z"/>
	<path class="st2" d="M124.8,51.5l-3.1-10h-0.1c0.1,2,0.2,3.4,0.2,4.1v5.9h-2.4V38.7h3.7l3,9.8h0.1l3.2-9.8h3.7v12.8h-2.5v-6
		c0-0.3,0-0.6,0-1c0-0.4,0-1.4,0.1-3h-0.1l-3.3,10H124.8z"/>
	<path class="st2" d="M144.9,46.6c0,1.6-0.4,2.8-1.3,3.7c-0.8,0.9-2,1.3-3.5,1.3c-0.9,0-1.8-0.2-2.5-0.6s-1.3-1-1.7-1.8
		c-0.4-0.8-0.6-1.7-0.6-2.7c0-1.6,0.4-2.8,1.2-3.7s2-1.3,3.5-1.3c0.9,0,1.8,0.2,2.5,0.6c0.7,0.4,1.3,1,1.7,1.8
		C144.7,44.7,144.9,45.6,144.9,46.6z M138.2,46.6c0,1,0.2,1.7,0.5,2.2c0.3,0.5,0.8,0.7,1.5,0.7c0.7,0,1.2-0.2,1.5-0.7
		c0.3-0.5,0.5-1.2,0.5-2.2c0-1-0.2-1.7-0.5-2.2c-0.3-0.5-0.8-0.7-1.5-0.7c-0.7,0-1.2,0.2-1.5,0.7C138.3,44.9,138.2,45.6,138.2,46.6z
		"/>
	<path class="st2" d="M152.6,41.6c0.4,0,0.7,0,0.9,0.1l-0.2,2.5c-0.2-0.1-0.5-0.1-0.8-0.1c-0.8,0-1.5,0.2-2,0.7
		c-0.5,0.4-0.7,1-0.7,1.8v5h-2.7v-9.8h2l0.4,1.6h0.1c0.3-0.5,0.7-1,1.2-1.3C151.4,41.7,152,41.6,152.6,41.6z"/>
	<path class="st2" d="M159.5,51.7c-1.6,0-2.8-0.4-3.7-1.3c-0.9-0.9-1.3-2.1-1.3-3.7c0-1.6,0.4-2.9,1.2-3.8c0.8-0.9,1.9-1.3,3.4-1.3
		c1.4,0,2.5,0.4,3.2,1.2c0.8,0.8,1.2,1.9,1.2,3.3v1.3h-6.3c0,0.8,0.3,1.3,0.7,1.8c0.4,0.4,1,0.6,1.8,0.6c0.6,0,1.1-0.1,1.7-0.2
		c0.5-0.1,1.1-0.3,1.6-0.6V51c-0.5,0.2-1,0.4-1.5,0.5C160.9,51.6,160.3,51.7,159.5,51.7z M159.1,43.5c-0.6,0-1,0.2-1.3,0.5
		c-0.3,0.4-0.5,0.9-0.6,1.5h3.7c0-0.7-0.2-1.2-0.5-1.5C160.1,43.6,159.7,43.5,159.1,43.5z"/>
	<path class="st2" d="M62.7,72.9l0.1-1.2h-0.1c-0.6,1-1.6,1.4-3,1.4c-1.2,0-2.2-0.4-2.9-1.3c-0.7-0.9-1-2.1-1-3.7
		c0-1.5,0.4-2.8,1.1-3.6c0.7-0.9,1.7-1.3,2.9-1.3c1.3,0,2.3,0.5,3,1.4h0.1l0.2-1.3h1.2v9.7c0,1.4-0.3,2.4-1,3.1s-1.8,1-3.2,1
		c-1.4,0-2.5-0.2-3.4-0.6v-1.4c0.9,0.5,2.1,0.8,3.5,0.8c0.8,0,1.5-0.2,1.9-0.7c0.5-0.5,0.7-1.1,0.7-2V72.9z M59.9,71.8
		c1,0,1.7-0.3,2.1-0.8s0.7-1.4,0.7-2.5v-0.4c0-1.3-0.2-2.2-0.7-2.8c-0.4-0.6-1.2-0.9-2.1-0.9c-0.8,0-1.4,0.3-1.9,1
		c-0.4,0.6-0.7,1.5-0.7,2.7c0,1.2,0.2,2.1,0.6,2.7C58.5,71.5,59.1,71.8,59.9,71.8z"/>
	<path class="st2" d="M71.4,73.1c-1.4,0-2.6-0.4-3.4-1.3c-0.8-0.9-1.2-2.1-1.2-3.6c0-1.5,0.4-2.8,1.1-3.7c0.8-0.9,1.8-1.4,3.1-1.4
		c1.2,0,2.2,0.4,2.9,1.2c0.7,0.8,1.1,1.8,1.1,3.2v1h-6.6c0,1.1,0.3,1.9,0.8,2.5s1.3,0.8,2.2,0.8c0.5,0,1,0,1.5-0.1
		c0.5-0.1,1-0.3,1.6-0.5v1.4c-0.5,0.2-1,0.4-1.5,0.5S72,73.1,71.4,73.1z M71,64.5c-0.8,0-1.3,0.2-1.8,0.7c-0.4,0.5-0.7,1.2-0.8,2
		h4.9c0-0.9-0.2-1.6-0.6-2C72.3,64.7,71.7,64.5,71,64.5z"/>
	<path class="st2" d="M80.6,71.8c0.2,0,0.4,0,0.7-0.1c0.3,0,0.5-0.1,0.6-0.1v1.2c-0.1,0.1-0.4,0.1-0.7,0.2c-0.3,0.1-0.6,0.1-0.9,0.1
		c-1.9,0-2.8-1-2.8-3v-5.6h-1.4v-0.8l1.4-0.6l0.6-2h0.9v2.2h2.8v1.2h-2.8v5.5c0,0.6,0.1,1,0.4,1.3S80.1,71.8,80.6,71.8z"/>
	<path class="st2" d="M96.2,73h-8.4v-1.3l3.3-3.4c1-1,1.7-1.7,2-2.2s0.6-0.9,0.7-1.3s0.2-0.8,0.2-1.3c0-0.7-0.2-1.2-0.6-1.6
		c-0.4-0.4-1-0.6-1.7-0.6c-0.5,0-1,0.1-1.5,0.3c-0.5,0.2-1,0.5-1.6,1L88,61.5c1.2-1,2.5-1.5,3.9-1.5c1.2,0,2.1,0.3,2.8,0.9
		s1,1.4,1,2.5c0,0.6-0.1,1.1-0.3,1.6s-0.5,1-0.9,1.6c-0.4,0.5-1.1,1.3-2.1,2.2l-2.7,2.6v0.1h6.5V73z"/>
	<path class="st2" d="M106.5,66.6c0,2.2-0.4,3.9-1.1,4.9c-0.7,1.1-1.8,1.6-3.2,1.6c-1.4,0-2.4-0.6-3.2-1.7c-0.7-1.1-1.1-2.7-1.1-4.9
		c0-2.2,0.3-3.9,1-4.9c0.7-1.1,1.8-1.6,3.2-1.6c1.4,0,2.4,0.6,3.2,1.7S106.5,64.4,106.5,66.6z M99.6,66.6c0,1.9,0.2,3.2,0.6,4
		s1.1,1.2,2,1.2c0.9,0,1.6-0.4,2-1.3s0.6-2.2,0.6-4c0-1.8-0.2-3.1-0.6-4c-0.4-0.8-1.1-1.3-2-1.3c-0.9,0-1.6,0.4-2,1.2
		S99.6,64.7,99.6,66.6z"/>
	<path class="st2" d="M113.6,64c0,1.3-0.2,2.3-0.7,3s-1.1,1-2,1c-0.8,0-1.5-0.3-1.9-1s-0.7-1.7-0.7-3c0-1.3,0.2-2.3,0.7-3
		c0.4-0.7,1.1-1,1.9-1c0.9,0,1.5,0.3,2,1C113.3,61.7,113.6,62.7,113.6,64z M109.6,64c0,1,0.1,1.7,0.3,2.2c0.2,0.5,0.5,0.7,1,0.7
		c0.9,0,1.4-1,1.4-2.9c0-1.9-0.5-2.9-1.4-2.9c-0.5,0-0.8,0.2-1,0.7C109.7,62.3,109.6,63,109.6,64z M119,60.2L112,73h-1.4l7.1-12.8
		H119z M121.4,69.1c0,1.3-0.2,2.3-0.7,3c-0.5,0.7-1.1,1-2,1c-0.8,0-1.5-0.3-1.9-1s-0.7-1.7-0.7-3c0-1.3,0.2-2.3,0.7-3
		c0.4-0.7,1.1-1,1.9-1s1.5,0.3,2,1S121.4,67.8,121.4,69.1z M117.4,69.1c0,1,0.1,1.7,0.3,2.2c0.2,0.5,0.5,0.7,1,0.7
		c0.5,0,0.8-0.2,1-0.7c0.2-0.5,0.3-1.2,0.3-2.2c0-1.9-0.5-2.9-1.4-2.9c-0.5,0-0.8,0.2-1,0.7C117.5,67.4,117.4,68.2,117.4,69.1z"/>
	<path class="st2" d="M136.7,68.1c0,1.6-0.4,2.8-1.2,3.7c-0.8,0.9-1.9,1.3-3.3,1.3c-0.9,0-1.6-0.2-2.3-0.6c-0.7-0.4-1.2-1-1.5-1.7
		c-0.4-0.8-0.5-1.6-0.5-2.6c0-1.6,0.4-2.8,1.2-3.6c0.8-0.9,1.9-1.3,3.3-1.3c1.3,0,2.4,0.4,3.2,1.3C136.3,65.4,136.7,66.6,136.7,68.1
		z M129.5,68.1c0,1.2,0.2,2.1,0.7,2.7c0.5,0.6,1.2,0.9,2.1,0.9c0.9,0,1.6-0.3,2.1-0.9c0.5-0.6,0.7-1.5,0.7-2.7
		c0-1.2-0.2-2.1-0.7-2.7c-0.5-0.6-1.2-0.9-2.1-0.9C130.4,64.5,129.5,65.7,129.5,68.1z"/>
	<path class="st2" d="M143.6,64.6h-2.4V73h-1.6v-8.4H138v-0.7l1.7-0.5v-0.5c0-1.2,0.3-2,0.8-2.6c0.5-0.6,1.3-0.9,2.4-0.9
		c0.6,0,1.2,0.1,1.9,0.3l-0.4,1.2c-0.5-0.2-1-0.3-1.4-0.3c-0.5,0-0.9,0.2-1.2,0.5c-0.3,0.3-0.4,0.9-0.4,1.7v0.6h2.4V64.6z"/>
	<path class="st2" d="M149.8,64.6h-2.4V73h-1.6v-8.4h-1.7v-0.7l1.7-0.5v-0.5c0-1.2,0.3-2,0.8-2.6c0.5-0.6,1.3-0.9,2.4-0.9
		c0.6,0,1.2,0.1,1.9,0.3l-0.4,1.2c-0.5-0.2-1-0.3-1.4-0.3c-0.5,0-0.9,0.2-1.2,0.5c-0.3,0.3-0.4,0.9-0.4,1.7v0.6h2.4V64.6z"/>
</g>
<g>
	<path class="st2" d="M45.1,126.5h3.4v4.4c-0.6,0.2-1.1,0.3-1.6,0.4s-1,0.1-1.5,0.1c-1.3,0-2.3-0.4-3-1.1s-1-1.9-1-3.3
		c0-1.4,0.4-2.5,1.2-3.2s1.9-1.2,3.3-1.2c0.9,0,1.7,0.2,2.5,0.5l-0.6,1.5c-0.6-0.3-1.3-0.5-2-0.5c-0.8,0-1.4,0.3-1.9,0.8
		s-0.7,1.2-0.7,2.1c0,0.9,0.2,1.6,0.6,2.1s0.9,0.7,1.7,0.7c0.4,0,0.8,0,1.2-0.1V128h-1.6V126.5z"/>
	<path class="st2" d="M53.4,131.4c-1.1,0-1.9-0.3-2.5-0.9s-0.9-1.4-0.9-2.5c0-1.1,0.3-1.9,0.8-2.5s1.3-0.9,2.3-0.9
		c0.9,0,1.6,0.3,2.2,0.8s0.8,1.3,0.8,2.2v0.9h-4.2c0,0.5,0.2,0.9,0.5,1.2s0.7,0.4,1.2,0.4c0.4,0,0.8,0,1.1-0.1s0.7-0.2,1.1-0.4v1.4
		c-0.3,0.2-0.6,0.3-1,0.3S53.9,131.4,53.4,131.4z M53.1,125.9c-0.4,0-0.7,0.1-0.9,0.4s-0.3,0.6-0.4,1h2.5c0-0.4-0.1-0.8-0.3-1
		S53.5,125.9,53.1,125.9z"/>
	<path class="st2" d="M60.3,130c0.3,0,0.7-0.1,1.1-0.2v1.3c-0.4,0.2-1,0.3-1.6,0.3c-0.7,0-1.2-0.2-1.6-0.5s-0.5-0.9-0.5-1.6v-3.2
		h-0.9v-0.8l1-0.6l0.5-1.4h1.1v1.4h1.8v1.3h-1.8v3.2c0,0.3,0.1,0.4,0.2,0.6S60,130,60.3,130z"/>
	<path class="st2" d="M71.7,131.3h-1.8v-3.8c0-0.5-0.1-0.8-0.2-1.1s-0.4-0.4-0.7-0.4c-0.5,0-0.8,0.2-1,0.5s-0.3,0.9-0.3,1.7v3.1
		h-1.8v-6.6h1.4l0.2,0.8h0.1c0.2-0.3,0.4-0.5,0.8-0.7s0.7-0.3,1.1-0.3c1,0,1.6,0.3,2,1h0.2c0.2-0.3,0.4-0.5,0.8-0.7s0.7-0.3,1.2-0.3
		c0.7,0,1.3,0.2,1.7,0.6s0.6,1,0.6,1.8v4.3H74v-3.8c0-0.5-0.1-0.8-0.2-1.1s-0.4-0.4-0.7-0.4c-0.4,0-0.8,0.2-1,0.5s-0.3,0.8-0.3,1.5
		V131.3z"/>
	<path class="st2" d="M83.6,128c0,1.1-0.3,1.9-0.8,2.5s-1.3,0.9-2.3,0.9c-0.6,0-1.2-0.1-1.7-0.4s-0.8-0.7-1.1-1.2s-0.4-1.1-0.4-1.8
		c0-1.1,0.3-1.9,0.8-2.5s1.3-0.9,2.4-0.9c0.6,0,1.2,0.1,1.7,0.4s0.8,0.7,1.1,1.2S83.6,127.3,83.6,128z M79.1,128
		c0,0.6,0.1,1.1,0.3,1.5s0.6,0.5,1,0.5c0.5,0,0.8-0.2,1-0.5s0.3-0.8,0.3-1.5c0-0.6-0.1-1.1-0.3-1.5s-0.6-0.5-1-0.5
		c-0.5,0-0.8,0.2-1,0.5S79.1,127.4,79.1,128z"/>
	<path class="st2" d="M88.7,124.6c0.2,0,0.4,0,0.6,0.1l-0.1,1.7c-0.1,0-0.3-0.1-0.5-0.1c-0.6,0-1,0.1-1.3,0.4s-0.5,0.7-0.5,1.2v3.3
		h-1.8v-6.6h1.4l0.3,1.1h0.1c0.2-0.4,0.5-0.7,0.8-0.9S88.3,124.6,88.7,124.6z"/>
	<path class="st2" d="M93.4,131.4c-1.1,0-1.9-0.3-2.5-0.9s-0.9-1.4-0.9-2.5c0-1.1,0.3-1.9,0.8-2.5s1.3-0.9,2.3-0.9
		c0.9,0,1.6,0.3,2.2,0.8s0.8,1.3,0.8,2.2v0.9h-4.2c0,0.5,0.2,0.9,0.5,1.2s0.7,0.4,1.2,0.4c0.4,0,0.8,0,1.1-0.1s0.7-0.2,1.1-0.4v1.4
		c-0.3,0.2-0.6,0.3-1,0.3S93.9,131.4,93.4,131.4z M93.1,125.9c-0.4,0-0.7,0.1-0.9,0.4s-0.3,0.6-0.4,1h2.5c0-0.4-0.1-0.8-0.3-1
		S93.5,125.9,93.1,125.9z"/>
	<path class="st2" d="M102.7,131.4c-0.8,0-1.4-0.3-1.8-0.9s-0.7-1.4-0.7-2.5c0-1.1,0.2-1.9,0.7-2.5s1.1-0.9,1.8-0.9
		c0.8,0,1.5,0.3,1.9,1h0.1c-0.1-0.5-0.1-0.9-0.1-1.3v-2.1h1.8v9.1H105l-0.3-0.8h-0.1C104.1,131.1,103.5,131.4,102.7,131.4z
		 M103.3,130c0.5,0,0.8-0.1,1-0.4s0.3-0.7,0.3-1.4v-0.2c0-0.7-0.1-1.2-0.3-1.5s-0.6-0.5-1.1-0.5c-0.4,0-0.7,0.2-0.9,0.5
		s-0.3,0.8-0.3,1.5s0.1,1.1,0.3,1.5S102.9,130,103.3,130z"/>
	<path class="st2" d="M108.1,123.1c0-0.6,0.3-0.9,1-0.9s1,0.3,1,0.9c0,0.3-0.1,0.5-0.2,0.6s-0.4,0.2-0.7,0.2
		C108.4,123.9,108.1,123.6,108.1,123.1z M110,131.3h-1.8v-6.6h1.8V131.3z"/>
	<path class="st2" d="M116.4,129.4c0,0.7-0.2,1.2-0.7,1.5s-1.2,0.5-2.1,0.5c-0.5,0-0.9,0-1.2-0.1s-0.7-0.2-0.9-0.3v-1.5
		c0.3,0.2,0.7,0.3,1.1,0.4s0.8,0.2,1.1,0.2c0.6,0,1-0.2,1-0.6c0-0.1,0-0.3-0.1-0.3s-0.2-0.2-0.4-0.3s-0.5-0.2-0.8-0.4
		c-0.5-0.2-0.9-0.4-1.1-0.6s-0.4-0.4-0.5-0.6s-0.2-0.5-0.2-0.9c0-0.6,0.2-1,0.7-1.4s1.1-0.5,1.9-0.5c0.8,0,1.6,0.2,2.3,0.5l-0.5,1.3
		c-0.3-0.1-0.6-0.3-0.9-0.3s-0.6-0.1-0.9-0.1c-0.5,0-0.8,0.1-0.8,0.4c0,0.2,0.1,0.3,0.3,0.4s0.5,0.3,1.1,0.5
		c0.5,0.2,0.9,0.4,1.1,0.6s0.4,0.4,0.5,0.6S116.4,129,116.4,129.4z"/>
	<path class="st2" d="M120.5,131.4c-2,0-3.1-1.1-3.1-3.4c0-1.1,0.3-2,0.8-2.6s1.3-0.9,2.4-0.9c0.8,0,1.4,0.1,2,0.4l-0.5,1.4
		c-0.3-0.1-0.5-0.2-0.8-0.3s-0.5-0.1-0.7-0.1c-0.9,0-1.4,0.7-1.4,2c0,1.3,0.5,1.9,1.4,1.9c0.3,0,0.7,0,1-0.1s0.6-0.2,0.9-0.4v1.5
		c-0.3,0.2-0.6,0.3-0.9,0.4S120.9,131.4,120.5,131.4z"/>
	<path class="st2" d="M129.9,128c0,1.1-0.3,1.9-0.8,2.5s-1.3,0.9-2.3,0.9c-0.6,0-1.2-0.1-1.7-0.4s-0.8-0.7-1.1-1.2s-0.4-1.1-0.4-1.8
		c0-1.1,0.3-1.9,0.8-2.5s1.3-0.9,2.4-0.9c0.6,0,1.2,0.1,1.7,0.4c0.5,0.3,0.8,0.7,1.1,1.2S129.9,127.3,129.9,128z M125.4,128
		c0,0.6,0.1,1.1,0.3,1.5s0.6,0.5,1,0.5c0.5,0,0.8-0.2,1-0.5c0.2-0.3,0.3-0.8,0.3-1.5c0-0.6-0.1-1.1-0.3-1.5c-0.2-0.3-0.6-0.5-1-0.5
		c-0.5,0-0.8,0.2-1,0.5S125.4,127.4,125.4,128z"/>
	<path class="st2" d="M136.1,131.3l-0.2-0.8h-0.1c-0.2,0.3-0.5,0.5-0.8,0.7s-0.8,0.2-1.2,0.2c-0.8,0-1.3-0.2-1.7-0.6s-0.6-1-0.6-1.8
		v-4.3h1.8v3.8c0,0.5,0.1,0.8,0.3,1.1s0.4,0.4,0.8,0.4c0.5,0,0.9-0.2,1.1-0.5s0.3-0.9,0.3-1.7v-3.1h1.8v6.6H136.1z"/>
	<path class="st2" d="M145.4,131.3h-1.8v-3.8c0-0.5-0.1-0.8-0.3-1.1s-0.4-0.4-0.8-0.4c-0.5,0-0.9,0.2-1.1,0.5s-0.3,0.9-0.3,1.7v3.1
		h-1.8v-6.6h1.4l0.2,0.8h0.1c0.2-0.3,0.5-0.6,0.8-0.7s0.7-0.2,1.2-0.2c0.8,0,1.3,0.2,1.7,0.6s0.6,1,0.6,1.8V131.3z"/>
	<path class="st2" d="M150,130c0.3,0,0.7-0.1,1.1-0.2v1.3c-0.4,0.2-1,0.3-1.6,0.3c-0.7,0-1.2-0.2-1.6-0.5s-0.5-0.9-0.5-1.6v-3.2
		h-0.9v-0.8l1-0.6l0.5-1.4h1.1v1.4h1.8v1.3h-1.8v3.2c0,0.3,0.1,0.4,0.2,0.6S149.7,130,150,130z"/>
	<path class="st2" d="M157,129.4c0,0.7-0.2,1.2-0.7,1.5s-1.2,0.5-2.1,0.5c-0.5,0-0.9,0-1.2-0.1s-0.7-0.2-0.9-0.3v-1.5
		c0.3,0.2,0.7,0.3,1.1,0.4s0.8,0.2,1.1,0.2c0.6,0,1-0.2,1-0.6c0-0.1,0-0.3-0.1-0.3s-0.2-0.2-0.4-0.3s-0.5-0.2-0.8-0.4
		c-0.5-0.2-0.9-0.4-1.1-0.6s-0.4-0.4-0.5-0.6s-0.2-0.5-0.2-0.9c0-0.6,0.2-1,0.7-1.4s1.1-0.5,1.9-0.5c0.8,0,1.6,0.2,2.3,0.5l-0.5,1.3
		c-0.3-0.1-0.6-0.3-0.9-0.3s-0.6-0.1-0.9-0.1c-0.5,0-0.8,0.1-0.8,0.4c0,0.2,0.1,0.3,0.3,0.4s0.5,0.3,1.1,0.5
		c0.5,0.2,0.9,0.4,1.1,0.6s0.4,0.4,0.5,0.6S157,129,157,129.4z"/>
	<path class="st2" d="M158.1,130.5c0-0.3,0.1-0.6,0.3-0.7s0.4-0.3,0.8-0.3c0.3,0,0.6,0.1,0.8,0.3s0.3,0.4,0.3,0.7
		c0,0.3-0.1,0.6-0.3,0.7s-0.4,0.3-0.8,0.3c-0.3,0-0.6-0.1-0.8-0.3S158.1,130.8,158.1,130.5z M159.9,128.5h-1.4l-0.3-5.7h2
		L159.9,128.5z"/>
	<path class="st2" d="M34,141.3c0,1.4-0.4,2.5-1.2,3.2s-2,1.1-3.5,1.1h-2.4v-8.6h2.7c1.4,0,2.5,0.4,3.3,1.1S34,140,34,141.3z
		 M32.1,141.4c0-1.8-0.8-2.8-2.4-2.8h-1v5.6h0.8C31.2,144.2,32.1,143.3,32.1,141.4z"/>
	<path class="st2" d="M41.5,142.4c0,1.1-0.3,1.9-0.8,2.5s-1.3,0.9-2.3,0.9c-0.6,0-1.2-0.1-1.7-0.4s-0.8-0.7-1.1-1.2
		s-0.4-1.1-0.4-1.8c0-1.1,0.3-1.9,0.8-2.5s1.3-0.9,2.4-0.9c0.6,0,1.2,0.1,1.7,0.4s0.8,0.7,1.1,1.2S41.5,141.7,41.5,142.4z M37,142.4
		c0,0.6,0.1,1.1,0.3,1.5s0.6,0.5,1,0.5c0.5,0,0.8-0.2,1-0.5s0.3-0.8,0.3-1.5c0-0.6-0.1-1.1-0.3-1.5s-0.6-0.5-1-0.5
		c-0.5,0-0.8,0.2-1,0.5S37,141.8,37,142.4z"/>
	<path class="st2" d="M48.3,145.7l-0.5-2.3l-0.7-2.9h-0.1l-1.2,5.2h-1.9l-1.9-6.6h1.8l0.8,2.9c0.1,0.3,0.2,1.1,0.4,2.2h0
		c0-0.3,0.1-0.8,0.2-1.4l0.1-0.5l0.8-3.1h2l0.8,3.1c0,0.2,0.1,0.5,0.2,0.9s0.1,0.7,0.1,1h0c0-0.3,0.1-0.7,0.2-1.2s0.1-0.8,0.2-1
		l0.8-2.9h1.8l-1.9,6.6H48.3z"/>
	<path class="st2" d="M59.2,145.7h-1.8v-3.8c0-0.5-0.1-0.8-0.3-1.1s-0.4-0.4-0.8-0.4c-0.5,0-0.9,0.2-1.1,0.5s-0.3,0.9-0.3,1.7v3.1
		h-1.8v-6.6h1.4l0.2,0.8h0.1c0.2-0.3,0.5-0.6,0.8-0.7s0.7-0.2,1.2-0.2c0.8,0,1.3,0.2,1.7,0.6s0.6,1,0.6,1.8V145.7z"/>
	<path class="st2" d="M62.8,145.7h-1.8v-9.1h1.8V145.7z"/>
	<path class="st2" d="M70.7,142.4c0,1.1-0.3,1.9-0.8,2.5s-1.3,0.9-2.3,0.9c-0.6,0-1.2-0.1-1.7-0.4s-0.8-0.7-1.1-1.2
		s-0.4-1.1-0.4-1.8c0-1.1,0.3-1.9,0.8-2.5s1.3-0.9,2.4-0.9c0.6,0,1.2,0.1,1.7,0.4s0.8,0.7,1.1,1.2S70.7,141.7,70.7,142.4z
		 M66.1,142.4c0,0.6,0.1,1.1,0.3,1.5s0.6,0.5,1,0.5c0.5,0,0.8-0.2,1-0.5s0.3-0.8,0.3-1.5c0-0.6-0.1-1.1-0.3-1.5s-0.6-0.5-1-0.5
		c-0.5,0-0.8,0.2-1,0.5S66.1,141.8,66.1,142.4z"/>
	<path class="st2" d="M76.3,145.7l-0.3-0.9h0c-0.3,0.4-0.6,0.6-0.9,0.8s-0.7,0.2-1.2,0.2c-0.6,0-1.1-0.2-1.5-0.5s-0.5-0.9-0.5-1.5
		c0-0.7,0.2-1.2,0.7-1.5s1.2-0.5,2.2-0.5l1.1,0v-0.3c0-0.7-0.3-1-1-1c-0.5,0-1.1,0.2-1.8,0.5l-0.6-1.2c0.8-0.4,1.6-0.6,2.5-0.6
		c0.9,0,1.6,0.2,2,0.6s0.7,1,0.7,1.7v4.4H76.3z M75.8,142.7l-0.7,0c-0.5,0-0.9,0.1-1.2,0.3s-0.4,0.4-0.4,0.8c0,0.5,0.3,0.8,0.9,0.8
		c0.4,0,0.7-0.1,1-0.4s0.4-0.6,0.4-0.9V142.7z"/>
	<path class="st2" d="M81.5,145.8c-0.8,0-1.4-0.3-1.8-0.9s-0.7-1.4-0.7-2.5c0-1.1,0.2-1.9,0.7-2.5s1.1-0.9,1.8-0.9
		c0.8,0,1.5,0.3,1.9,1h0.1c-0.1-0.5-0.1-0.9-0.1-1.3v-2.1h1.8v9.1h-1.4l-0.3-0.8h-0.1C82.9,145.5,82.3,145.8,81.5,145.8z
		 M82.1,144.4c0.5,0,0.8-0.1,1-0.4s0.3-0.7,0.3-1.4v-0.2c0-0.7-0.1-1.2-0.3-1.5s-0.6-0.5-1.1-0.5c-0.4,0-0.7,0.2-0.9,0.5
		s-0.3,0.8-0.3,1.5s0.1,1.1,0.3,1.5S81.7,144.4,82.1,144.4z"/>
	<path class="st2" d="M92.9,144.4c0.3,0,0.7-0.1,1.1-0.2v1.3c-0.4,0.2-1,0.3-1.6,0.3c-0.7,0-1.2-0.2-1.6-0.5s-0.5-0.9-0.5-1.6v-3.2
		h-0.9v-0.8l1-0.6l0.5-1.4h1.1v1.4h1.8v1.3h-1.8v3.2c0,0.3,0.1,0.4,0.2,0.6S92.6,144.4,92.9,144.4z"/>
	<path class="st2" d="M101.4,145.7h-1.8v-3.8c0-0.9-0.4-1.4-1.1-1.4c-0.5,0-0.9,0.2-1.1,0.5s-0.3,0.9-0.3,1.7v3.1h-1.8v-9.1h1.8v1.9
		c0,0.1,0,0.5,0,1l0,0.5h0.1c0.4-0.6,1-1,1.9-1c0.8,0,1.4,0.2,1.8,0.6s0.6,1,0.6,1.8V145.7z"/>
	<path class="st2" d="M106.2,145.8c-1.1,0-1.9-0.3-2.5-0.9s-0.9-1.4-0.9-2.5c0-1.1,0.3-1.9,0.8-2.5s1.3-0.9,2.3-0.9
		c0.9,0,1.6,0.3,2.2,0.8s0.8,1.3,0.8,2.2v0.9h-4.2c0,0.5,0.2,0.9,0.5,1.2s0.7,0.4,1.2,0.4c0.4,0,0.8,0,1.1-0.1s0.7-0.2,1.1-0.4v1.4
		c-0.3,0.2-0.6,0.3-1,0.3S106.7,145.8,106.2,145.8z M105.9,140.3c-0.4,0-0.7,0.1-0.9,0.4s-0.3,0.6-0.4,1h2.5c0-0.4-0.1-0.8-0.3-1
		S106.3,140.3,105.9,140.3z"/>
	<path class="st2" d="M119.1,145.7h-6.4v-1.2l4.1-5.9h-4v-1.5h6.2v1.2l-4.1,5.9h4.2V145.7z"/>
	<path class="st2" d="M124.5,145.7l-0.3-0.9h0c-0.3,0.4-0.6,0.6-0.9,0.8s-0.7,0.2-1.2,0.2c-0.6,0-1.1-0.2-1.5-0.5s-0.5-0.9-0.5-1.5
		c0-0.7,0.2-1.2,0.7-1.5s1.2-0.5,2.2-0.5l1.1,0v-0.3c0-0.7-0.3-1-1-1c-0.5,0-1.1,0.2-1.8,0.5l-0.6-1.2c0.8-0.4,1.6-0.6,2.5-0.6
		c0.9,0,1.6,0.2,2,0.6s0.7,1,0.7,1.7v4.4H124.5z M124,142.7l-0.7,0c-0.5,0-0.9,0.1-1.2,0.3s-0.4,0.4-0.4,0.8c0,0.5,0.3,0.8,0.9,0.8
		c0.4,0,0.7-0.1,1-0.4s0.4-0.6,0.4-0.9V142.7z"/>
	<path class="st2" d="M129.4,145.7h-1.8v-9.1h1.8V145.7z"/>
	<path class="st2" d="M137.2,142.4c0,1.1-0.3,1.9-0.8,2.5s-1.3,0.9-2.3,0.9c-0.6,0-1.2-0.1-1.7-0.4s-0.8-0.7-1.1-1.2
		s-0.4-1.1-0.4-1.8c0-1.1,0.3-1.9,0.8-2.5s1.3-0.9,2.4-0.9c0.6,0,1.2,0.1,1.7,0.4s0.8,0.7,1.1,1.2S137.2,141.7,137.2,142.4z
		 M132.7,142.4c0,0.6,0.1,1.1,0.3,1.5s0.6,0.5,1,0.5c0.5,0,0.8-0.2,1-0.5s0.3-0.8,0.3-1.5c0-0.6-0.1-1.1-0.3-1.5s-0.6-0.5-1-0.5
		c-0.5,0-0.8,0.2-1,0.5S132.7,141.8,132.7,142.4z"/>
	<path class="st2" d="M142.4,139c0.2,0,0.4,0,0.6,0.1l-0.1,1.7c-0.1,0-0.3-0.1-0.5-0.1c-0.6,0-1,0.1-1.3,0.4s-0.5,0.7-0.5,1.2v3.3
		h-1.8v-6.6h1.4l0.3,1.1h0.1c0.2-0.4,0.5-0.7,0.8-0.9S142,139,142.4,139z"/>
	<path class="st2" d="M148.2,145.7l-0.3-0.9h0c-0.3,0.4-0.6,0.6-0.9,0.8s-0.7,0.2-1.2,0.2c-0.6,0-1.1-0.2-1.5-0.5s-0.5-0.9-0.5-1.5
		c0-0.7,0.2-1.2,0.7-1.5s1.2-0.5,2.2-0.5l1.1,0v-0.3c0-0.7-0.3-1-1-1c-0.5,0-1.1,0.2-1.8,0.5l-0.6-1.2c0.8-0.4,1.6-0.6,2.5-0.6
		c0.9,0,1.6,0.2,2,0.6s0.7,1,0.7,1.7v4.4H148.2z M147.7,142.7l-0.7,0c-0.5,0-0.9,0.1-1.2,0.3s-0.4,0.4-0.4,0.8
		c0,0.5,0.3,0.8,0.9,0.8c0.4,0,0.7-0.1,1-0.4s0.4-0.6,0.4-0.9V142.7z"/>
	<path class="st2" d="M158.6,145.7l-0.3-0.9h0c-0.3,0.4-0.6,0.6-0.9,0.8s-0.7,0.2-1.2,0.2c-0.6,0-1.1-0.2-1.5-0.5s-0.5-0.9-0.5-1.5
		c0-0.7,0.2-1.2,0.7-1.5s1.2-0.5,2.2-0.5l1.1,0v-0.3c0-0.7-0.3-1-1-1c-0.5,0-1.1,0.2-1.8,0.5l-0.6-1.2c0.8-0.4,1.6-0.6,2.5-0.6
		c0.9,0,1.6,0.2,2,0.6s0.7,1,0.7,1.7v4.4H158.6z M158,142.7l-0.7,0c-0.5,0-0.9,0.1-1.2,0.3s-0.4,0.4-0.4,0.8c0,0.5,0.3,0.8,0.9,0.8
		c0.4,0,0.7-0.1,1-0.4s0.4-0.6,0.4-0.9V142.7z"/>
	<path class="st2" d="M165.2,145.8c-0.8,0-1.4-0.3-1.8-0.8h-0.1c0.1,0.5,0.1,0.9,0.1,0.9v2.7h-1.8v-9.4h1.5l0.3,0.8h0.1
		c0.4-0.6,1-1,1.9-1c0.8,0,1.4,0.3,1.8,0.9s0.7,1.4,0.7,2.5c0,0.7-0.1,1.3-0.3,1.8s-0.5,0.9-0.9,1.2S165.8,145.8,165.2,145.8z
		 M164.7,140.5c-0.4,0-0.8,0.1-1,0.4s-0.3,0.7-0.3,1.3v0.2c0,0.7,0.1,1.2,0.3,1.5s0.5,0.5,1,0.5c0.8,0,1.2-0.7,1.2-2
		c0-0.6-0.1-1.1-0.3-1.5S165.1,140.5,164.7,140.5z"/>
	<path class="st2" d="M172.8,145.8c-0.8,0-1.4-0.3-1.8-0.8h-0.1c0.1,0.5,0.1,0.9,0.1,0.9v2.7h-1.8v-9.4h1.5l0.3,0.8h0.1
		c0.4-0.6,1-1,1.9-1c0.8,0,1.4,0.3,1.8,0.9s0.7,1.4,0.7,2.5c0,0.7-0.1,1.3-0.3,1.8s-0.5,0.9-0.9,1.2S173.4,145.8,172.8,145.8z
		 M172.3,140.5c-0.4,0-0.8,0.1-1,0.4s-0.3,0.7-0.3,1.3v0.2c0,0.7,0.1,1.2,0.3,1.5s0.5,0.5,1,0.5c0.8,0,1.2-0.7,1.2-2
		c0-0.6-0.1-1.1-0.3-1.5S172.7,140.5,172.3,140.5z"/>
	<path class="st2" d="M36.7,160.1l-0.3-0.9h0c-0.3,0.4-0.6,0.6-0.9,0.8s-0.7,0.2-1.2,0.2c-0.6,0-1.1-0.2-1.5-0.5s-0.5-0.9-0.5-1.5
		c0-0.7,0.2-1.2,0.7-1.5s1.2-0.5,2.2-0.5l1.1,0v-0.3c0-0.7-0.3-1-1-1c-0.5,0-1.1,0.2-1.8,0.5l-0.6-1.2c0.8-0.4,1.6-0.6,2.5-0.6
		c0.9,0,1.6,0.2,2,0.6s0.7,1,0.7,1.7v4.4H36.7z M36.2,157.1l-0.7,0c-0.5,0-0.9,0.1-1.2,0.3s-0.4,0.4-0.4,0.8c0,0.5,0.3,0.8,0.9,0.8
		c0.4,0,0.7-0.1,1-0.4s0.4-0.6,0.4-0.9V157.1z"/>
	<path class="st2" d="M45.8,160.1H44v-3.8c0-0.5-0.1-0.8-0.3-1.1s-0.4-0.4-0.8-0.4c-0.5,0-0.9,0.2-1.1,0.5s-0.3,0.9-0.3,1.7v3.1
		h-1.8v-6.6h1.4l0.2,0.8h0.1c0.2-0.3,0.5-0.6,0.8-0.7s0.7-0.2,1.2-0.2c0.8,0,1.3,0.2,1.7,0.6s0.6,1,0.6,1.8V160.1z"/>
	<path class="st2" d="M49.7,160.2c-0.8,0-1.4-0.3-1.8-0.9s-0.7-1.4-0.7-2.5c0-1.1,0.2-1.9,0.7-2.5s1.1-0.9,1.8-0.9
		c0.8,0,1.5,0.3,1.9,1h0.1c-0.1-0.5-0.1-0.9-0.1-1.3V151h1.8v9.1H52l-0.3-0.8h-0.1C51.2,159.9,50.6,160.2,49.7,160.2z M50.4,158.8
		c0.5,0,0.8-0.1,1-0.4s0.3-0.7,0.3-1.4v-0.2c0-0.7-0.1-1.2-0.3-1.5s-0.6-0.5-1.1-0.5c-0.4,0-0.7,0.2-0.9,0.5s-0.3,0.8-0.3,1.5
		s0.1,1.1,0.3,1.5S49.9,158.8,50.4,158.8z"/>
	<path class="st2" d="M63,160.1l-0.2-0.8h-0.1c-0.2,0.3-0.5,0.5-0.8,0.7s-0.8,0.2-1.2,0.2c-0.8,0-1.3-0.2-1.7-0.6s-0.6-1-0.6-1.8
		v-4.3h1.8v3.8c0,0.5,0.1,0.8,0.3,1.1s0.4,0.4,0.8,0.4c0.5,0,0.9-0.2,1.1-0.5s0.3-0.9,0.3-1.7v-3.1h1.8v6.6H63z"/>
	<path class="st2" d="M70.8,158.2c0,0.7-0.2,1.2-0.7,1.5s-1.2,0.5-2.1,0.5c-0.5,0-0.9,0-1.2-0.1s-0.7-0.2-0.9-0.3v-1.5
		c0.3,0.2,0.7,0.3,1.1,0.4s0.8,0.2,1.1,0.2c0.6,0,1-0.2,1-0.6c0-0.1,0-0.3-0.1-0.3s-0.2-0.2-0.4-0.3s-0.5-0.2-0.8-0.4
		c-0.5-0.2-0.9-0.4-1.1-0.6s-0.4-0.4-0.5-0.6s-0.2-0.5-0.2-0.9c0-0.6,0.2-1,0.7-1.4s1.1-0.5,1.9-0.5c0.8,0,1.6,0.2,2.3,0.5l-0.5,1.3
		c-0.3-0.1-0.6-0.3-0.9-0.3s-0.6-0.1-0.9-0.1c-0.5,0-0.8,0.1-0.8,0.4c0,0.2,0.1,0.3,0.3,0.4s0.5,0.3,1.1,0.5
		c0.5,0.2,0.9,0.4,1.1,0.6s0.4,0.4,0.5,0.6S70.8,157.8,70.8,158.2z"/>
	<path class="st2" d="M75.2,160.2c-1.1,0-1.9-0.3-2.5-0.9s-0.9-1.4-0.9-2.5c0-1.1,0.3-1.9,0.8-2.5s1.3-0.9,2.3-0.9
		c0.9,0,1.6,0.3,2.2,0.8s0.8,1.3,0.8,2.2v0.9h-4.2c0,0.5,0.2,0.9,0.5,1.2s0.7,0.4,1.2,0.4c0.4,0,0.8,0,1.1-0.1s0.7-0.2,1.1-0.4v1.4
		c-0.3,0.2-0.6,0.3-1,0.3S75.7,160.2,75.2,160.2z M74.9,154.7c-0.4,0-0.7,0.1-0.9,0.4s-0.3,0.6-0.4,1h2.5c0-0.4-0.1-0.8-0.3-1
		S75.3,154.7,74.9,154.7z"/>
	<path class="st2" d="M85.1,160.2c-2,0-3.1-1.1-3.1-3.4c0-1.1,0.3-2,0.8-2.6s1.3-0.9,2.4-0.9c0.8,0,1.4,0.1,2,0.4l-0.5,1.4
		c-0.3-0.1-0.5-0.2-0.8-0.3s-0.5-0.1-0.7-0.1c-0.9,0-1.4,0.7-1.4,2c0,1.3,0.5,1.9,1.4,1.9c0.3,0,0.7,0,1-0.1s0.6-0.2,0.9-0.4v1.5
		c-0.3,0.2-0.6,0.3-0.9,0.4S85.5,160.2,85.1,160.2z"/>
	<path class="st2" d="M94.6,156.8c0,1.1-0.3,1.9-0.8,2.5s-1.3,0.9-2.3,0.9c-0.6,0-1.2-0.1-1.7-0.4s-0.8-0.7-1.1-1.2
		s-0.4-1.1-0.4-1.8c0-1.1,0.3-1.9,0.8-2.5s1.3-0.9,2.4-0.9c0.6,0,1.2,0.1,1.7,0.4s0.8,0.7,1.1,1.2S94.6,156.1,94.6,156.8z M90,156.8
		c0,0.6,0.1,1.1,0.3,1.5s0.6,0.5,1,0.5c0.5,0,0.8-0.2,1-0.5s0.3-0.8,0.3-1.5c0-0.6-0.1-1.1-0.3-1.5s-0.6-0.5-1-0.5
		c-0.5,0-0.8,0.2-1,0.5S90,156.2,90,156.8z"/>
	<path class="st2" d="M98.1,160.2c-0.8,0-1.4-0.3-1.8-0.9s-0.7-1.4-0.7-2.5c0-1.1,0.2-1.9,0.7-2.5s1.1-0.9,1.8-0.9
		c0.8,0,1.5,0.3,1.9,1h0.1c-0.1-0.5-0.1-0.9-0.1-1.3V151h1.8v9.1h-1.4l-0.3-0.8H100C99.6,159.9,98.9,160.2,98.1,160.2z M98.7,158.8
		c0.5,0,0.8-0.1,1-0.4s0.3-0.7,0.3-1.4v-0.2c0-0.7-0.1-1.2-0.3-1.5s-0.6-0.5-1.1-0.5c-0.4,0-0.7,0.2-0.9,0.5s-0.3,0.8-0.3,1.5
		s0.1,1.1,0.3,1.5S98.3,158.8,98.7,158.8z"/>
	<path class="st2" d="M106.6,160.2c-1.1,0-1.9-0.3-2.5-0.9s-0.9-1.4-0.9-2.5c0-1.1,0.3-1.9,0.8-2.5s1.3-0.9,2.3-0.9
		c0.9,0,1.6,0.3,2.2,0.8s0.8,1.3,0.8,2.2v0.9H105c0,0.5,0.2,0.9,0.5,1.2s0.7,0.4,1.2,0.4c0.4,0,0.8,0,1.1-0.1s0.7-0.2,1.1-0.4v1.4
		c-0.3,0.2-0.6,0.3-1,0.3S107.1,160.2,106.6,160.2z M106.3,154.7c-0.4,0-0.7,0.1-0.9,0.4s-0.3,0.6-0.4,1h2.5c0-0.4-0.1-0.8-0.3-1
		S106.7,154.7,106.3,154.7z"/>
	<path class="st2" d="M115.3,151.5l-0.2,3.1h-1.2l-0.2-3.1H115.3z"/>
	<path class="st2" d="M122.8,160.1h-6.4v-1.2l4.1-5.9h-4v-1.5h6.2v1.2l-4.1,5.9h4.2V160.1z"/>
	<path class="st2" d="M124.1,160.1v-8.6h1.8v7.1h3.5v1.5H124.1z"/>
	<path class="st2" d="M136.1,160.1l-0.6-2h-3.1l-0.6,2h-2l3-8.6h2.2l3,8.6H136.1z M135.1,156.5c-0.6-1.8-0.9-2.9-1-3.1
		s-0.1-0.4-0.2-0.6c-0.1,0.5-0.5,1.7-1.1,3.7H135.1z"/>
	<path class="st2" d="M145.1,154.2c0,0.9-0.3,1.6-0.9,2.1s-1.4,0.7-2.5,0.7H141v3h-1.8v-8.6h2.7c1,0,1.8,0.2,2.4,0.7
		S145.1,153.3,145.1,154.2z M141,155.6h0.6c0.6,0,1-0.1,1.3-0.3s0.4-0.5,0.4-1c0-0.4-0.1-0.7-0.3-0.9s-0.6-0.3-1.1-0.3H141V155.6z"
		/>
	<path class="st2" d="M152.6,154.2c0,0.9-0.3,1.6-0.9,2.1s-1.4,0.7-2.5,0.7h-0.8v3h-1.8v-8.6h2.7c1,0,1.8,0.2,2.4,0.7
		S152.6,153.3,152.6,154.2z M148.5,155.6h0.6c0.6,0,1-0.1,1.3-0.3s0.4-0.5,0.4-1c0-0.4-0.1-0.7-0.3-0.9s-0.6-0.3-1.1-0.3h-0.8V155.6
		z"/>
	<path class="st2" d="M158.1,160.1h-1.8v-5l0-0.8l0-0.9c-0.3,0.3-0.5,0.5-0.6,0.6l-1,0.8l-0.9-1.1l2.8-2.2h1.5V160.1z"/>
	<path class="st2" d="M163.6,154.6c0.8,0,1.5,0.2,2,0.7s0.7,1.1,0.7,1.9c0,1-0.3,1.7-0.9,2.2s-1.4,0.8-2.5,0.8c-1,0-1.7-0.2-2.3-0.5
		v-1.6c0.3,0.2,0.7,0.3,1.1,0.4s0.8,0.2,1.2,0.2c1.1,0,1.7-0.5,1.7-1.4c0-0.9-0.6-1.3-1.7-1.3c-0.2,0-0.4,0-0.7,0.1
		s-0.5,0.1-0.6,0.1l-0.7-0.4l0.3-4.4h4.6v1.5h-3.1l-0.2,1.7l0.2,0C163,154.7,163.3,154.6,163.6,154.6z"/>
	<path class="st2" d="M169.3,151.5l-0.2,3.1h-1.2l-0.2-3.1H169.3z"/>
	<path class="st2" d="M64.5,173.2c0.3,0,0.7-0.1,1.1-0.2v1.3c-0.4,0.2-1,0.3-1.6,0.3c-0.7,0-1.2-0.2-1.6-0.5s-0.5-0.9-0.5-1.6v-3.2
		h-0.9v-0.8l1-0.6l0.5-1.4h1.1v1.4h1.8v1.3h-1.8v3.2c0,0.3,0.1,0.4,0.2,0.6C64.1,173.1,64.3,173.2,64.5,173.2z"/>
	<path class="st2" d="M72.9,171.2c0,1.1-0.3,1.9-0.8,2.5s-1.3,0.9-2.3,0.9c-0.6,0-1.2-0.1-1.7-0.4s-0.8-0.7-1.1-1.2
		s-0.4-1.1-0.4-1.8c0-1.1,0.3-1.9,0.8-2.5s1.3-0.9,2.4-0.9c0.6,0,1.2,0.1,1.7,0.4s0.8,0.7,1.1,1.2S72.9,170.5,72.9,171.2z
		 M68.4,171.2c0,0.6,0.1,1.1,0.3,1.5s0.6,0.5,1,0.5c0.5,0,0.8-0.2,1-0.5s0.3-0.8,0.3-1.5c0-0.6-0.1-1.1-0.3-1.5s-0.6-0.5-1-0.5
		c-0.5,0-0.8,0.2-1,0.5S68.4,170.6,68.4,171.2z"/>
	<path class="st2" d="M83.2,174.5c0,0.9-0.3,1.7-0.8,2.1s-1.4,0.7-2.5,0.7c-1,0-1.8-0.1-2.4-0.4v-1.4c0.8,0.3,1.6,0.5,2.6,0.5
		c0.9,0,1.4-0.5,1.4-1.5v-0.1l0.1-0.8h-0.1c-0.4,0.6-1,1-1.9,1c-0.8,0-1.4-0.3-1.8-0.9s-0.6-1.4-0.6-2.5c0-1.1,0.2-1.9,0.7-2.5
		s1.1-0.9,1.8-0.9c0.8,0,1.4,0.3,1.9,1h0l0.1-0.8h1.5V174.5z M80.2,173.2c0.5,0,0.8-0.1,1-0.4s0.3-0.7,0.3-1.3v-0.2
		c0-0.7-0.1-1.2-0.3-1.5s-0.6-0.5-1-0.5c-0.8,0-1.3,0.7-1.3,2c0,0.7,0.1,1.1,0.3,1.5S79.8,173.2,80.2,173.2z"/>
	<path class="st2" d="M88.1,174.6c-1.1,0-1.9-0.3-2.5-0.9s-0.9-1.4-0.9-2.5c0-1.1,0.3-1.9,0.8-2.5s1.3-0.9,2.3-0.9
		c0.9,0,1.6,0.3,2.2,0.8s0.8,1.3,0.8,2.2v0.9h-4.2c0,0.5,0.2,0.9,0.5,1.2s0.7,0.4,1.2,0.4c0.4,0,0.8,0,1.1-0.1s0.7-0.2,1.1-0.4v1.4
		c-0.3,0.2-0.6,0.3-1,0.3S88.6,174.6,88.1,174.6z M87.8,169.1c-0.4,0-0.7,0.1-0.9,0.4s-0.3,0.6-0.4,1h2.5c0-0.4-0.1-0.8-0.3-1
		S88.2,169.1,87.8,169.1z"/>
	<path class="st2" d="M95,173.2c0.3,0,0.7-0.1,1.1-0.2v1.3c-0.4,0.2-1,0.3-1.6,0.3c-0.7,0-1.2-0.2-1.6-0.5s-0.5-0.9-0.5-1.6v-3.2
		h-0.9v-0.8l1-0.6l0.5-1.4h1.1v1.4H96v1.3h-1.8v3.2c0,0.3,0.1,0.4,0.2,0.6S94.7,173.2,95,173.2z"/>
	<path class="st2" d="M104.5,174.5h-1.8v-5l0-0.8l0-0.9c-0.3,0.3-0.5,0.5-0.6,0.6l-1,0.8l-0.9-1.1l2.8-2.2h1.5V174.5z"/>
	<path class="st2" d="M110,169c0.8,0,1.5,0.2,2,0.7s0.7,1.1,0.7,1.9c0,1-0.3,1.7-0.9,2.2s-1.4,0.8-2.5,0.8c-1,0-1.7-0.2-2.3-0.5
		v-1.6c0.3,0.2,0.7,0.3,1.1,0.4s0.8,0.2,1.2,0.2c1.1,0,1.7-0.5,1.7-1.4c0-0.9-0.6-1.3-1.7-1.3c-0.2,0-0.4,0-0.7,0.1
		s-0.5,0.1-0.6,0.1l-0.7-0.4l0.3-4.4h4.6v1.5h-3.1l-0.2,1.7l0.2,0C109.4,169.1,109.7,169,110,169z"/>
	<path class="st2" d="M117.8,168.5c0,0.9-0.2,1.6-0.5,2s-0.9,0.7-1.5,0.7c-0.6,0-1.1-0.2-1.5-0.7s-0.5-1.1-0.5-2
		c0-1.8,0.7-2.7,2-2.7c0.7,0,1.2,0.2,1.5,0.7S117.8,167.6,117.8,168.5z M115.2,168.5c0,0.5,0,0.9,0.1,1.1s0.2,0.4,0.4,0.4
		c0.4,0,0.6-0.5,0.6-1.5c0-1-0.2-1.5-0.6-1.5c-0.2,0-0.3,0.1-0.4,0.4S115.2,168,115.2,168.5z M121.8,165.9l-4.8,8.6h-1.4l4.8-8.6
		H121.8z M123.8,171.9c0,0.9-0.2,1.6-0.5,2s-0.9,0.7-1.5,0.7c-0.6,0-1.1-0.2-1.5-0.7s-0.5-1.1-0.5-2c0-1.8,0.7-2.7,2-2.7
		c0.7,0,1.2,0.2,1.5,0.7S123.8,171.1,123.8,171.9z M121.2,171.9c0,0.5,0,0.9,0.1,1.1s0.2,0.4,0.4,0.4c0.4,0,0.6-0.5,0.6-1.5
		c0-1-0.2-1.5-0.6-1.5c-0.2,0-0.3,0.1-0.4,0.4S121.2,171.4,121.2,171.9z"/>
	<path class="st2" d="M134.1,171.2c0,1.1-0.3,1.9-0.8,2.5s-1.3,0.9-2.3,0.9c-0.6,0-1.2-0.1-1.7-0.4s-0.8-0.7-1.1-1.2
		c-0.3-0.5-0.4-1.1-0.4-1.8c0-1.1,0.3-1.9,0.8-2.5s1.3-0.9,2.4-0.9c0.6,0,1.2,0.1,1.7,0.4s0.8,0.7,1.1,1.2S134.1,170.5,134.1,171.2z
		 M129.6,171.2c0,0.6,0.1,1.1,0.3,1.5s0.6,0.5,1,0.5c0.5,0,0.8-0.2,1-0.5s0.3-0.8,0.3-1.5c0-0.6-0.1-1.1-0.3-1.5s-0.6-0.5-1-0.5
		c-0.5,0-0.8,0.2-1,0.5S129.6,170.6,129.6,171.2z"/>
	<path class="st2" d="M139.2,169.3h-1.5v5.2h-1.8v-5.2h-1v-0.9l1-0.5v-0.5c0-0.7,0.2-1.3,0.6-1.6s1-0.5,1.8-0.5
		c0.6,0,1.2,0.1,1.6,0.3l-0.5,1.3c-0.4-0.1-0.7-0.2-1-0.2c-0.3,0-0.4,0.1-0.6,0.2s-0.2,0.3-0.2,0.6v0.4h1.5V169.3z"/>
	<path class="st2" d="M143.9,169.3h-1.5v5.2h-1.8v-5.2h-1v-0.9l1-0.5v-0.5c0-0.7,0.2-1.3,0.6-1.6s1-0.5,1.8-0.5
		c0.6,0,1.2,0.1,1.6,0.3l-0.5,1.3c-0.4-0.1-0.7-0.2-1-0.2c-0.3,0-0.4,0.1-0.6,0.2s-0.2,0.3-0.2,0.6v0.4h1.5V169.3z"/>
</g>
</svg>