<!-- Generator: Adobe Illustrator 19.0.0, SVG Export Plug-In  -->
<svg version="1.1"
	 xmlns="http://www.w3.org/2000/svg" xmlns:xlink="http://www.w3.org/1999/xlink" xmlns:a="http://ns.adobe.com/AdobeSVGViewerExtensions/3.0/"
	 x="0px" y="0px" width="203px" height="203px" viewBox="0 0 203 203" style="enable-background:new 0 0 203 203;"
	 xml:space="preserve">
<style type="text/css">
	.st0{fill:#E0E0E0;stroke:#15103F;stroke-width:3;stroke-miterlimit:10;}
	.st1{fill:#EE2361;stroke:#15103F;stroke-width:3;stroke-miterlimit:10;}
	.st2{fill:#FFFFFF;}
</style>
<defs>
</defs>
<rect x="1.5" y="1.5" class="st0" width="200" height="200"/>
<rect x="1.5" y="1.5" class="st1" width="200" height="100"/>
<g>
	<path class="st2" d="M53.4,21.4c0,0.8-0.3,1.4-0.8,1.8s-1.3,0.7-2.3,0.7c-0.9,0-1.7-0.2-2.4-0.5v-1.7c0.6,0.3,1.1,0.4,1.5,0.5
		s0.8,0.2,1.1,0.2c0.4,0,0.7-0.1,0.9-0.2s0.3-0.4,0.3-0.7c0-0.2,0-0.3-0.1-0.4s-0.2-0.3-0.4-0.4s-0.6-0.3-1.1-0.6
		c-0.5-0.2-0.9-0.5-1.2-0.7s-0.5-0.5-0.6-0.8s-0.2-0.7-0.2-1.1c0-0.8,0.3-1.4,0.8-1.8s1.2-0.7,2.1-0.7c0.4,0,0.9,0.1,1.3,0.2
		s0.8,0.3,1.3,0.4l-0.6,1.4c-0.5-0.2-0.8-0.3-1.1-0.4s-0.6-0.1-0.9-0.1c-0.3,0-0.6,0.1-0.8,0.2s-0.3,0.4-0.3,0.6
		c0,0.2,0,0.3,0.1,0.4s0.2,0.2,0.4,0.3s0.5,0.3,1.2,0.6c0.8,0.4,1.3,0.8,1.6,1.2S53.4,20.8,53.4,21.4z"/>
	<path class="st2" d="M57.6,22.5c0.3,0,0.7-0.1,1.1-0.2v1.3c-0.4,0.2-1,0.3-1.6,0.3c-0.7,0-1.2-0.2-1.6-0.5S55,22.5,55,21.7v-3.2
		h-0.9v-0.8l1-0.6l0.5-1.4h1.1v1.4h1.8v1.3h-1.8v3.2c0,0.3,0.1,0.4,0.2,0.6S57.4,22.5,57.6,22.5z"/>
	<path class="st2" d="M63.7,17.1c0.2,0,0.4,0,0.6,0.1l-0.1,1.7c-0.1,0-0.3-0.1-0.5-0.1c-0.6,0-1,0.1-1.3,0.4s-0.5,0.7-0.5,1.2v3.3
		H60v-6.6h1.4l0.3,1.1h0.1c0.2-0.4,0.5-0.7,0.8-0.9S63.3,17.1,63.7,17.1z"/>
	<path class="st2" d="M69.5,23.8l-0.3-0.9h0c-0.3,0.4-0.6,0.6-0.9,0.8s-0.7,0.2-1.2,0.2c-0.6,0-1.1-0.2-1.5-0.5s-0.5-0.9-0.5-1.5
		c0-0.7,0.2-1.2,0.7-1.5s1.2-0.5,2.2-0.5l1.1,0v-0.3c0-0.7-0.3-1-1-1c-0.5,0-1.1,0.2-1.8,0.5l-0.6-1.2c0.8-0.4,1.6-0.6,2.5-0.6
		c0.9,0,1.6,0.2,2,0.6s0.7,1,0.7,1.7v4.4H69.5z M69,20.7l-0.7,0c-0.5,0-0.9,0.1-1.2,0.3s-0.4,0.4-0.4,0.8c0,0.5,0.3,0.8,0.9,0.8
		c0.4,0,0.7-0.1,1-0.4s0.4-0.6,0.4-0.9V20.7z"/>
	<path class="st2" d="M78,23.8l-0.5-2.3l-0.7-2.9h-0.1l-1.2,5.2h-1.9l-1.9-6.6h1.8l0.8,2.9c0.1,0.3,0.2,1.1,0.4,2.2h0
		c0-0.3,0.1-0.8,0.2-1.4l0.1-0.5l0.8-3.1h2l0.8,3.1c0,0.2,0.1,0.5,0.2,0.9s0.1,0.7,0.1,1h0c0-0.3,0.1-0.7,0.2-1.2s0.1-0.8,0.2-1
		l0.8-2.9h1.8l-1.9,6.6H78z"/>
	<path class="st2" d="M86.5,17.1c0.8,0,1.4,0.3,1.8,0.9s0.7,1.4,0.7,2.5c0,1.1-0.2,1.9-0.7,2.5s-1.1,0.9-1.8,0.9
		c-0.8,0-1.4-0.3-1.8-0.8h-0.1l-0.3,0.7h-1.4v-9.1h1.8v2.1c0,0.3,0,0.7-0.1,1.3h0.1C85.1,17.4,85.7,17.1,86.5,17.1z M86,18.5
		c-0.4,0-0.8,0.1-1,0.4s-0.3,0.7-0.3,1.3v0.2c0,0.7,0.1,1.2,0.3,1.5s0.5,0.5,1,0.5c0.4,0,0.7-0.2,0.9-0.5s0.3-0.8,0.3-1.5
		s-0.1-1.1-0.3-1.5S86.3,18.5,86,18.5z"/>
	<path class="st2" d="M93.4,23.9c-1.1,0-1.9-0.3-2.5-0.9s-0.9-1.4-0.9-2.5c0-1.1,0.3-1.9,0.8-2.5s1.3-0.9,2.3-0.9
		c0.9,0,1.6,0.3,2.2,0.8s0.8,1.3,0.8,2.2V21h-4.2c0,0.5,0.2,0.9,0.5,1.2s0.7,0.4,1.2,0.4c0.4,0,0.8,0,1.1-0.1s0.7-0.2,1.1-0.4v1.4
		c-0.3,0.2-0.6,0.3-1,0.3S94,23.9,93.4,23.9z M93.2,18.4c-0.4,0-0.7,0.1-0.9,0.4s-0.3,0.6-0.4,1h2.5c0-0.4-0.1-0.8-0.3-1
		S93.6,18.4,93.2,18.4z"/>
	<path class="st2" d="M101.2,17.1c0.2,0,0.4,0,0.6,0.1l-0.1,1.7c-0.1,0-0.3-0.1-0.5-0.1c-0.6,0-1,0.1-1.3,0.4s-0.5,0.7-0.5,1.2v3.3
		h-1.8v-6.6h1.4l0.3,1.1h0.1c0.2-0.4,0.5-0.7,0.8-0.9S100.8,17.1,101.2,17.1z"/>
	<path class="st2" d="M106.7,17.1c0.2,0,0.4,0,0.6,0.1l-0.1,1.7c-0.1,0-0.3-0.1-0.5-0.1c-0.6,0-1,0.1-1.3,0.4s-0.5,0.7-0.5,1.2v3.3
		H103v-6.6h1.4l0.3,1.1h0.1c0.2-0.4,0.5-0.7,0.8-0.9S106.3,17.1,106.7,17.1z"/>
	<path class="st2" d="M107.5,17.2h2l1.2,3.7c0.1,0.3,0.2,0.7,0.2,1.1h0c0-0.4,0.1-0.8,0.3-1.1l1.2-3.7h1.9l-2.8,7.4
		c-0.3,0.7-0.6,1.2-1.1,1.5s-1,0.5-1.7,0.5c-0.3,0-0.6,0-0.9-0.1v-1.4c0.2,0.1,0.4,0.1,0.7,0.1c0.3,0,0.6-0.1,0.8-0.3
		s0.4-0.5,0.6-0.9l0.1-0.3L107.5,17.2z"/>
	<path class="st2" d="M114.8,22.9c0-0.3,0.1-0.6,0.3-0.7s0.4-0.3,0.8-0.3c0.3,0,0.6,0.1,0.8,0.3s0.3,0.4,0.3,0.7
		c0,0.3-0.1,0.6-0.3,0.7s-0.4,0.3-0.8,0.3c-0.3,0-0.6-0.1-0.8-0.3S114.8,23.3,114.8,22.9z"/>
	<path class="st2" d="M124.5,23.8h-1.8V20c0-0.5-0.1-0.8-0.3-1.1s-0.4-0.4-0.8-0.4c-0.5,0-0.9,0.2-1.1,0.5s-0.3,0.9-0.3,1.7v3.1
		h-1.8v-6.6h1.4l0.2,0.8h0.1c0.2-0.3,0.5-0.6,0.8-0.7s0.7-0.2,1.2-0.2c0.8,0,1.3,0.2,1.7,0.6s0.6,1,0.6,1.8V23.8z"/>
	<path class="st2" d="M129.3,23.9c-1.1,0-1.9-0.3-2.5-0.9s-0.9-1.4-0.9-2.5c0-1.1,0.3-1.9,0.8-2.5s1.3-0.9,2.3-0.9
		c0.9,0,1.6,0.3,2.2,0.8s0.8,1.3,0.8,2.2V21h-4.2c0,0.5,0.2,0.9,0.5,1.2s0.7,0.4,1.2,0.4c0.4,0,0.8,0,1.1-0.1s0.7-0.2,1.1-0.4v1.4
		c-0.3,0.2-0.6,0.3-1,0.3S129.8,23.9,129.3,23.9z M129.1,18.4c-0.4,0-0.7,0.1-0.9,0.4s-0.3,0.6-0.4,1h2.5c0-0.4-0.1-0.8-0.3-1
		S129.5,18.4,129.1,18.4z"/>
	<path class="st2" d="M136.2,22.5c0.3,0,0.7-0.1,1.1-0.2v1.3c-0.4,0.2-1,0.3-1.6,0.3c-0.7,0-1.2-0.2-1.6-0.5s-0.5-0.9-0.5-1.6v-3.2
		h-0.9v-0.8l1-0.6l0.5-1.4h1.1v1.4h1.8v1.3h-1.8v3.2c0,0.3,0.1,0.4,0.2,0.6S136,22.5,136.2,22.5z"/>
</g>
<g>
	<path class="st2" d="M21.1,55.3c-0.6,0-1.1-0.1-1.6-0.2v-2.3c0.5,0.1,0.9,0.2,1.3,0.2c0.6,0,1-0.2,1.3-0.6c0.3-0.4,0.4-0.9,0.4-1.7
		v-12h2.7v11.9c0,1.5-0.3,2.6-1,3.4C23.4,54.9,22.4,55.3,21.1,55.3z"/>
	<path class="st2" d="M34.3,51.5l-0.5-1.3h-0.1c-0.4,0.6-0.9,1-1.4,1.2c-0.5,0.2-1.1,0.3-1.9,0.3c-0.9,0-1.7-0.3-2.2-0.8
		c-0.5-0.5-0.8-1.3-0.8-2.3c0-1,0.4-1.8,1.1-2.3c0.7-0.5,1.8-0.8,3.3-0.8l1.7-0.1V45c0-1-0.5-1.5-1.5-1.5c-0.8,0-1.7,0.2-2.8,0.7
		l-0.9-1.8c1.1-0.6,2.4-0.9,3.7-0.9c1.3,0,2.3,0.3,3,0.9s1,1.4,1,2.6v6.5H34.3z M33.5,47l-1,0c-0.8,0-1.3,0.2-1.7,0.4
		c-0.4,0.3-0.6,0.6-0.6,1.2c0,0.8,0.4,1.1,1.3,1.1c0.6,0,1.1-0.2,1.5-0.5c0.4-0.4,0.6-0.8,0.6-1.4V47z"/>
	<path class="st2" d="M47.9,51.5h-2.7v-5.7c0-0.7-0.1-1.2-0.4-1.6c-0.3-0.4-0.6-0.5-1.2-0.5c-0.7,0-1.3,0.2-1.6,0.7
		c-0.3,0.5-0.5,1.3-0.5,2.5v4.6h-2.7v-9.8h2l0.4,1.2h0.1c0.3-0.5,0.7-0.8,1.2-1.1c0.5-0.2,1.1-0.4,1.8-0.4c1.1,0,2,0.3,2.6,0.9
		c0.6,0.6,0.9,1.5,0.9,2.7V51.5z"/>
	<path class="st2" d="M57.6,51.5l-0.4-1.2h-0.1c-0.3,0.5-0.7,0.8-1.2,1.1c-0.5,0.2-1.1,0.4-1.8,0.4c-1.1,0-2-0.3-2.6-0.9
		c-0.6-0.6-0.9-1.5-0.9-2.6v-6.4h2.7v5.7c0,0.7,0.1,1.2,0.4,1.6c0.3,0.4,0.6,0.5,1.2,0.5c0.7,0,1.3-0.2,1.6-0.7
		c0.3-0.5,0.5-1.3,0.5-2.5v-4.6h2.7v9.8H57.6z"/>
	<path class="st2" d="M68.6,51.5l-0.5-1.3H68c-0.4,0.6-0.9,1-1.4,1.2c-0.5,0.2-1.1,0.3-1.9,0.3c-0.9,0-1.7-0.3-2.2-0.8
		c-0.5-0.5-0.8-1.3-0.8-2.3c0-1,0.4-1.8,1.1-2.3c0.7-0.5,1.8-0.8,3.3-0.8l1.7-0.1V45c0-1-0.5-1.5-1.5-1.5c-0.8,0-1.7,0.2-2.7,0.7
		l-0.9-1.8c1.1-0.6,2.4-0.9,3.7-0.9c1.3,0,2.3,0.3,3,0.9s1,1.4,1,2.6v6.5H68.6z M67.8,47l-1,0c-0.8,0-1.4,0.2-1.7,0.4
		s-0.6,0.6-0.6,1.2c0,0.8,0.4,1.1,1.3,1.1c0.6,0,1.1-0.2,1.5-0.5c0.4-0.4,0.6-0.8,0.6-1.4V47z"/>
	<path class="st2" d="M78.7,41.6c0.4,0,0.7,0,0.9,0.1l-0.2,2.5c-0.2-0.1-0.5-0.1-0.8-0.1c-0.8,0-1.5,0.2-2,0.7
		c-0.5,0.4-0.7,1-0.7,1.8v5h-2.7v-9.8h2l0.4,1.6h0.1c0.3-0.5,0.7-1,1.2-1.3C77.5,41.7,78.1,41.6,78.7,41.6z"/>
	<path class="st2" d="M79.9,41.7h2.9l1.8,5.5c0.2,0.5,0.3,1,0.3,1.7h0.1c0.1-0.6,0.2-1.2,0.4-1.7l1.8-5.5h2.9l-4.1,11
		c-0.4,1-0.9,1.8-1.6,2.3s-1.5,0.8-2.5,0.8c-0.5,0-0.9,0-1.4-0.1v-2.1c0.3,0.1,0.7,0.1,1,0.1c0.5,0,0.9-0.1,1.2-0.4
		c0.4-0.3,0.6-0.7,0.8-1.3l0.2-0.5L79.9,41.7z"/>
	<path class="st2" d="M99,51.5h-2.7V38.7h7.3V41H99v3.3h4.3v2.2H99V51.5z"/>
	<path class="st2" d="M110.4,51.7c-1.6,0-2.8-0.4-3.7-1.3c-0.9-0.9-1.3-2.1-1.3-3.7c0-1.6,0.4-2.9,1.2-3.8c0.8-0.9,1.9-1.3,3.4-1.3
		c1.4,0,2.5,0.4,3.2,1.2c0.8,0.8,1.2,1.9,1.2,3.3v1.3h-6.3c0,0.8,0.3,1.3,0.7,1.8s1,0.6,1.8,0.6c0.6,0,1.1-0.1,1.7-0.2
		s1.1-0.3,1.6-0.6V51c-0.5,0.2-1,0.4-1.5,0.5C111.8,51.6,111.1,51.7,110.4,51.7z M110,43.5c-0.6,0-1,0.2-1.3,0.5
		c-0.3,0.4-0.5,0.9-0.6,1.5h3.7c0-0.7-0.2-1.2-0.5-1.5C111,43.6,110.6,43.5,110,43.5z"/>
	<path class="st2" d="M120.9,51.7c-1.6,0-2.8-0.4-3.7-1.3s-1.3-2.1-1.3-3.7c0-1.6,0.4-2.9,1.2-3.8c0.8-0.9,1.9-1.3,3.4-1.3
		c1.4,0,2.5,0.4,3.2,1.2c0.8,0.8,1.2,1.9,1.2,3.3v1.3h-6.3c0,0.8,0.3,1.3,0.7,1.8s1,0.6,1.8,0.6c0.6,0,1.1-0.1,1.7-0.2
		c0.5-0.1,1.1-0.3,1.6-0.6V51c-0.5,0.2-1,0.4-1.5,0.5C122.4,51.6,121.7,51.7,120.9,51.7z M120.6,43.5c-0.6,0-1,0.2-1.3,0.5
		c-0.3,0.4-0.5,0.9-0.5,1.5h3.7c0-0.7-0.2-1.2-0.5-1.5C121.6,43.6,121.1,43.5,120.6,43.5z"/>
	<path class="st2" d="M129.7,51.5h-2.7V37.9h2.7V51.5z"/>
	<path class="st2" d="M142.2,44.3h5.1v6.6c-0.8,0.3-1.6,0.5-2.3,0.6c-0.7,0.1-1.5,0.2-2.2,0.2c-1.9,0-3.4-0.6-4.4-1.7
		c-1-1.1-1.5-2.8-1.5-4.9c0-2.1,0.6-3.7,1.8-4.8c1.2-1.2,2.8-1.7,4.9-1.7c1.3,0,2.6,0.3,3.8,0.8l-0.9,2.2c-0.9-0.5-1.9-0.7-2.9-0.7
		c-1.2,0-2.1,0.4-2.8,1.2c-0.7,0.8-1.1,1.8-1.1,3.2c0,1.4,0.3,2.4,0.9,3.2s1.4,1.1,2.5,1.1c0.6,0,1.1-0.1,1.7-0.2v-2.7h-2.4V44.3z"
		/>
	<path class="st2" d="M159,46.6c0,1.6-0.4,2.8-1.3,3.7c-0.8,0.9-2,1.3-3.5,1.3c-0.9,0-1.8-0.2-2.5-0.6s-1.3-1-1.6-1.8
		c-0.4-0.8-0.6-1.7-0.6-2.7c0-1.6,0.4-2.8,1.2-3.7s2-1.3,3.5-1.3c0.9,0,1.8,0.2,2.5,0.6s1.3,1,1.6,1.8C158.8,44.7,159,45.6,159,46.6
		z M152.3,46.6c0,1,0.2,1.7,0.5,2.2c0.3,0.5,0.8,0.7,1.5,0.7c0.7,0,1.2-0.2,1.5-0.7c0.3-0.5,0.5-1.2,0.5-2.2c0-1-0.2-1.7-0.5-2.2
		c-0.3-0.5-0.8-0.7-1.5-0.7c-0.7,0-1.2,0.2-1.5,0.7C152.4,44.9,152.3,45.6,152.3,46.6z"/>
	<path class="st2" d="M170.1,46.6c0,1.6-0.4,2.8-1.3,3.7c-0.8,0.9-2,1.3-3.5,1.3c-0.9,0-1.8-0.2-2.5-0.6s-1.3-1-1.7-1.8
		c-0.4-0.8-0.6-1.7-0.6-2.7c0-1.6,0.4-2.8,1.2-3.7s2-1.3,3.5-1.3c0.9,0,1.8,0.2,2.5,0.6s1.3,1,1.7,1.8
		C169.9,44.7,170.1,45.6,170.1,46.6z M163.3,46.6c0,1,0.2,1.7,0.5,2.2c0.3,0.5,0.8,0.7,1.5,0.7c0.7,0,1.2-0.2,1.5-0.7
		c0.3-0.5,0.5-1.2,0.5-2.2c0-1-0.2-1.7-0.5-2.2c-0.3-0.5-0.8-0.7-1.5-0.7c-0.7,0-1.2,0.2-1.5,0.7C163.5,44.9,163.3,45.6,163.3,46.6z
		"/>
	<path class="st2" d="M175.4,51.7c-1.1,0-2-0.4-2.7-1.3c-0.7-0.9-1-2.1-1-3.7c0-1.6,0.3-2.8,1-3.7c0.7-0.9,1.6-1.3,2.8-1.3
		c1.2,0,2.2,0.5,2.8,1.4h0.1c-0.1-0.7-0.2-1.4-0.2-1.9v-3.1h2.7v13.6h-2l-0.5-1.3h-0.1C177.5,51.2,176.6,51.7,175.4,51.7z
		 M176.3,49.6c0.7,0,1.2-0.2,1.5-0.6s0.5-1.1,0.5-2v-0.3c0-1-0.2-1.8-0.5-2.3c-0.3-0.5-0.8-0.7-1.6-0.7c-0.6,0-1.1,0.3-1.4,0.8
		c-0.3,0.5-0.5,1.2-0.5,2.2s0.2,1.7,0.5,2.2C175.2,49.3,175.7,49.6,176.3,49.6z"/>
	<path class="st2" d="M35.5,69.4c0,1.2-0.4,2.1-1.2,2.7s-2,1-3.5,1c-1.4,0-2.6-0.3-3.6-0.8v-2.5c0.9,0.4,1.6,0.7,2.2,0.8
		s1.1,0.2,1.6,0.2c0.6,0,1-0.1,1.4-0.3c0.3-0.2,0.5-0.6,0.5-1c0-0.3-0.1-0.5-0.2-0.7c-0.1-0.2-0.3-0.4-0.6-0.6
		c-0.3-0.2-0.8-0.5-1.7-0.9c-0.8-0.4-1.4-0.7-1.8-1.1c-0.4-0.3-0.7-0.7-0.9-1.2c-0.2-0.4-0.3-1-0.3-1.6c0-1.1,0.4-2,1.1-2.7
		c0.8-0.6,1.8-1,3.2-1c0.7,0,1.3,0.1,1.9,0.2c0.6,0.2,1.2,0.4,1.9,0.7L34.5,63c-0.7-0.3-1.2-0.5-1.7-0.6s-0.9-0.2-1.3-0.2
		c-0.5,0-0.9,0.1-1.2,0.4c-0.3,0.2-0.4,0.5-0.4,0.9c0,0.2,0.1,0.4,0.2,0.6c0.1,0.2,0.3,0.3,0.5,0.5c0.2,0.2,0.8,0.5,1.7,0.9
		c1.2,0.6,2,1.1,2.5,1.7C35.2,67.9,35.5,68.6,35.5,69.4z"/>
	<path class="st2" d="M43.8,73l-0.5-1.3h-0.1c-0.4,0.6-0.9,1-1.4,1.2c-0.5,0.2-1.1,0.3-1.9,0.3c-0.9,0-1.7-0.3-2.2-0.8
		c-0.5-0.5-0.8-1.3-0.8-2.3c0-1,0.4-1.8,1.1-2.3c0.7-0.5,1.8-0.8,3.3-0.8l1.7-0.1v-0.4c0-1-0.5-1.5-1.5-1.5c-0.8,0-1.7,0.2-2.7,0.7
		l-0.9-1.8c1.1-0.6,2.4-0.9,3.7-0.9c1.3,0,2.3,0.3,3,0.9c0.7,0.6,1,1.4,1,2.6V73H43.8z M43,68.4l-1,0c-0.8,0-1.4,0.2-1.7,0.4
		s-0.6,0.6-0.6,1.2c0,0.8,0.4,1.1,1.3,1.1c0.6,0,1.1-0.2,1.5-0.5c0.4-0.4,0.6-0.8,0.6-1.4V68.4z"/>
	<path class="st2" d="M51,73h-2.7V59.4H51V73z"/>
	<path class="st2" d="M58.2,73.1c-1.6,0-2.8-0.4-3.7-1.3c-0.9-0.9-1.3-2.1-1.3-3.7c0-1.6,0.4-2.9,1.2-3.8c0.8-0.9,1.9-1.3,3.4-1.3
		c1.4,0,2.5,0.4,3.2,1.2c0.8,0.8,1.2,1.9,1.2,3.3v1.3h-6.3c0,0.8,0.3,1.3,0.7,1.8s1,0.6,1.8,0.6c0.6,0,1.1-0.1,1.7-0.2
		s1.1-0.3,1.6-0.6v2.1c-0.5,0.2-1,0.4-1.5,0.5C59.6,73.1,59,73.1,58.2,73.1z M57.9,64.9c-0.6,0-1,0.2-1.3,0.5
		C56.2,65.8,56,66.3,56,67h3.7c0-0.7-0.2-1.2-0.5-1.5C58.9,65.1,58.4,64.9,57.9,64.9z"/>
	<path class="st2" d="M79.1,60.2v8.3c0,1.5-0.4,2.6-1.3,3.4s-2.1,1.2-3.7,1.2c-1.5,0-2.7-0.4-3.6-1.3s-1.3-2-1.3-3.5v-8.2h1.6v8.3
		c0,1,0.3,1.8,0.8,2.4s1.4,0.9,2.5,0.9c1.1,0,1.9-0.3,2.4-0.8s0.9-1.4,0.9-2.4v-8.3H79.1z"/>
	<path class="st2" d="M86.8,73.1c-1.3,0-2.3-0.5-3-1.4h-0.1l0,0.4c0,0.5,0.1,0.9,0.1,1.2v3.9h-1.6V63.4h1.3l0.2,1.3h0.1
		c0.4-0.5,0.8-0.9,1.3-1.1c0.5-0.2,1.1-0.3,1.7-0.3c1.2,0,2.2,0.4,2.9,1.3c0.7,0.9,1,2.1,1,3.7c0,1.6-0.3,2.8-1,3.7
		S88,73.1,86.8,73.1z M86.5,64.5c-0.9,0-1.6,0.3-2.1,0.8s-0.6,1.4-0.7,2.5v0.3c0,1.3,0.2,2.2,0.6,2.8s1.1,0.9,2.1,0.9
		c0.8,0,1.4-0.3,1.9-1c0.5-0.7,0.7-1.6,0.7-2.7c0-1.2-0.2-2.1-0.7-2.7C88,64.8,87.3,64.5,86.5,64.5z"/>
	<path class="st2" d="M101.1,71.8c0.2,0,0.4,0,0.7-0.1c0.3,0,0.5-0.1,0.6-0.1v1.2c-0.1,0.1-0.4,0.1-0.7,0.2
		c-0.3,0.1-0.6,0.1-0.9,0.1c-1.9,0-2.8-1-2.8-3v-5.6h-1.4v-0.7l1.4-0.6l0.6-2h0.9v2.2h2.8v1.2h-2.8v5.5c0,0.6,0.1,1,0.4,1.3
		S100.6,71.8,101.1,71.8z"/>
	<path class="st2" d="M112.6,68.1c0,1.6-0.4,2.8-1.2,3.7c-0.8,0.9-1.9,1.3-3.3,1.3c-0.9,0-1.6-0.2-2.3-0.6c-0.7-0.4-1.2-1-1.5-1.7
		c-0.4-0.8-0.5-1.6-0.5-2.6c0-1.6,0.4-2.8,1.2-3.6c0.8-0.9,1.9-1.3,3.3-1.3c1.3,0,2.4,0.4,3.2,1.3C112.2,65.4,112.6,66.6,112.6,68.1
		z M105.4,68.1c0,1.2,0.2,2.1,0.7,2.7c0.5,0.6,1.2,0.9,2.1,0.9c0.9,0,1.6-0.3,2.1-0.9c0.5-0.6,0.7-1.5,0.7-2.7
		c0-1.2-0.2-2.1-0.7-2.7c-0.5-0.6-1.2-0.9-2.1-0.9C106.3,64.5,105.4,65.7,105.4,68.1z"/>
	<path class="st2" d="M120.7,73l5.2-11.3H119v-1.4h8.6v1.2L122.4,73H120.7z"/>
	<path class="st2" d="M137.8,66.6c0,2.2-0.4,3.9-1.1,4.9c-0.7,1.1-1.8,1.6-3.2,1.6c-1.4,0-2.4-0.6-3.2-1.7c-0.7-1.1-1.1-2.7-1.1-4.9
		c0-2.2,0.3-3.9,1-4.9c0.7-1.1,1.8-1.6,3.2-1.6c1.4,0,2.4,0.6,3.2,1.7S137.8,64.4,137.8,66.6z M130.9,66.6c0,1.9,0.2,3.2,0.6,4
		s1.1,1.2,2,1.2c0.9,0,1.6-0.4,2-1.3s0.6-2.2,0.6-4c0-1.8-0.2-3.1-0.6-4c-0.4-0.8-1.1-1.3-2-1.3s-1.6,0.4-2,1.2
		S130.9,64.7,130.9,66.6z"/>
	<path class="st2" d="M144.9,64c0,1.3-0.2,2.3-0.7,3s-1.1,1-2,1c-0.8,0-1.5-0.3-1.9-1s-0.7-1.7-0.7-3c0-1.3,0.2-2.3,0.7-3
		c0.4-0.7,1.1-1,1.9-1c0.9,0,1.5,0.3,2,1C144.6,61.7,144.9,62.7,144.9,64z M140.9,64c0,1,0.1,1.7,0.3,2.2c0.2,0.5,0.5,0.7,1,0.7
		c0.9,0,1.4-1,1.4-2.9c0-1.9-0.5-2.9-1.4-2.9c-0.5,0-0.8,0.2-1,0.7C141,62.3,140.9,63,140.9,64z M150.3,60.2L143.3,73h-1.4l7.1-12.8
		H150.3z M152.7,69.1c0,1.3-0.2,2.3-0.7,3c-0.5,0.7-1.1,1-2,1c-0.8,0-1.5-0.3-1.9-1c-0.5-0.7-0.7-1.7-0.7-3c0-1.3,0.2-2.3,0.7-3
		c0.4-0.7,1.1-1,1.9-1s1.5,0.3,2,1S152.7,67.8,152.7,69.1z M148.7,69.1c0,1,0.1,1.7,0.3,2.2c0.2,0.5,0.5,0.7,1,0.7
		c0.5,0,0.8-0.2,1-0.7c0.2-0.5,0.3-1.2,0.3-2.2c0-1.9-0.5-2.9-1.4-2.9c-0.5,0-0.8,0.2-1,0.7C148.8,67.4,148.7,68.1,148.7,69.1z"/>
	<path class="st2" d="M168,68.1c0,1.6-0.4,2.8-1.2,3.7c-0.8,0.9-1.9,1.3-3.3,1.3c-0.9,0-1.6-0.2-2.3-0.6c-0.7-0.4-1.2-1-1.5-1.7
		c-0.4-0.8-0.5-1.6-0.5-2.6c0-1.6,0.4-2.8,1.2-3.6c0.8-0.9,1.9-1.3,3.3-1.3c1.3,0,2.4,0.4,3.2,1.3C167.6,65.4,168,66.6,168,68.1z
		 M160.8,68.1c0,1.2,0.2,2.1,0.7,2.7c0.5,0.6,1.2,0.9,2.1,0.9c0.9,0,1.6-0.3,2.1-0.9c0.5-0.6,0.7-1.5,0.7-2.7c0-1.2-0.2-2.1-0.7-2.7
		c-0.5-0.6-1.2-0.9-2.1-0.9C161.7,64.5,160.8,65.7,160.8,68.1z"/>
	<path class="st2" d="M174.9,64.6h-2.4V73H171v-8.4h-1.7v-0.7l1.7-0.5v-0.5c0-1.2,0.3-2,0.8-2.6c0.5-0.6,1.3-0.9,2.4-0.9
		c0.6,0,1.2,0.1,1.9,0.3l-0.4,1.2c-0.5-0.2-1-0.3-1.4-0.3c-0.5,0-0.9,0.2-1.2,0.5c-0.3,0.3-0.4,0.9-0.4,1.7v0.6h2.4V64.6z"/>
	<path class="st2" d="M181.1,64.6h-2.4V73h-1.6v-8.4h-1.7v-0.7l1.7-0.5v-0.5c0-1.2,0.3-2,0.8-2.6s1.3-0.9,2.4-0.9
		c0.6,0,1.2,0.1,1.9,0.3l-0.4,1.2c-0.5-0.2-1-0.3-1.4-0.3c-0.5,0-0.9,0.2-1.2,0.5c-0.3,0.3-0.4,0.9-0.4,1.7v0.6h2.4V64.6z"/>
</g>
<g>
	<g>
		<path d="M67.1,143.3c0-0.6,0.3-0.9,1-0.9s1,0.3,1,0.9c0,0.3-0.1,0.5-0.2,0.6s-0.4,0.2-0.7,0.2C67.5,144.1,67.1,143.8,67.1,143.3z
			 M69,151.5h-1.8v-6.6H69V151.5z"/>
		<path d="M74.5,151.6c-0.8,0-1.4-0.3-1.8-0.8h-0.1c0.1,0.5,0.1,0.9,0.1,0.9v2.7h-1.8v-9.4h1.5l0.3,0.8h0.1c0.4-0.6,1-1,1.9-1
			c0.8,0,1.4,0.3,1.8,0.9s0.7,1.4,0.7,2.5c0,0.7-0.1,1.3-0.3,1.8s-0.5,0.9-0.9,1.2S75,151.6,74.5,151.6z M74,146.3
			c-0.4,0-0.8,0.1-1,0.4s-0.3,0.7-0.3,1.3v0.2c0,0.7,0.1,1.2,0.3,1.5s0.5,0.5,1,0.5c0.8,0,1.2-0.7,1.2-2c0-0.6-0.1-1.1-0.3-1.5
			S74.4,146.3,74,146.3z"/>
		<path d="M82.1,144.8c0.2,0,0.4,0,0.6,0.1l-0.1,1.7c-0.1,0-0.3-0.1-0.5-0.1c-0.6,0-1,0.1-1.3,0.4s-0.5,0.7-0.5,1.2v3.3h-1.8v-6.6
			h1.4l0.3,1.1h0.1c0.2-0.4,0.5-0.7,0.8-0.9S81.7,144.8,82.1,144.8z"/>
		<path d="M83.8,143.3c0-0.6,0.3-0.9,1-0.9s1,0.3,1,0.9c0,0.3-0.1,0.5-0.2,0.6s-0.4,0.2-0.7,0.2C84.2,144.1,83.8,143.8,83.8,143.3z
			 M85.7,151.5h-1.8v-6.6h1.8V151.5z"/>
		<path d="M90.2,151.6c-2,0-3.1-1.1-3.1-3.4c0-1.1,0.3-2,0.8-2.6s1.3-0.9,2.4-0.9c0.8,0,1.4,0.1,2,0.4l-0.5,1.4
			c-0.3-0.1-0.5-0.2-0.8-0.3s-0.5-0.1-0.7-0.1c-0.9,0-1.4,0.7-1.4,2c0,1.3,0.5,1.9,1.4,1.9c0.3,0,0.7,0,1-0.1s0.6-0.2,0.9-0.4v1.5
			c-0.3,0.2-0.6,0.3-0.9,0.4S90.7,151.6,90.2,151.6z"/>
		<path d="M96.7,151.6c-1.1,0-1.9-0.3-2.5-0.9s-0.9-1.4-0.9-2.5c0-1.1,0.3-1.9,0.8-2.5s1.3-0.9,2.3-0.9c0.9,0,1.6,0.3,2.2,0.8
			s0.8,1.3,0.8,2.2v0.9h-4.2c0,0.5,0.2,0.9,0.5,1.2s0.7,0.4,1.2,0.4c0.4,0,0.8,0,1.1-0.1s0.7-0.2,1.1-0.4v1.4
			c-0.3,0.2-0.6,0.3-1,0.3S97.2,151.6,96.7,151.6z M96.5,146.1c-0.4,0-0.7,0.1-0.9,0.4s-0.3,0.6-0.4,1h2.5c0-0.4-0.1-0.8-0.3-1
			S96.8,146.1,96.5,146.1z"/>
		<path d="M110,145.6c0,0.9-0.3,1.6-0.9,2.1s-1.4,0.7-2.5,0.7h-0.8v3h-1.8v-8.6h2.7c1,0,1.8,0.2,2.4,0.7S110,144.7,110,145.6z
			 M105.9,147h0.6c0.6,0,1-0.1,1.3-0.3s0.4-0.5,0.4-1c0-0.4-0.1-0.7-0.3-0.9s-0.6-0.3-1.1-0.3h-0.8V147z"/>
		<path d="M111.4,143.3c0-0.6,0.3-0.9,1-0.9s1,0.3,1,0.9c0,0.3-0.1,0.5-0.2,0.6s-0.4,0.2-0.7,0.2
			C111.7,144.1,111.4,143.8,111.4,143.3z M113.3,151.5h-1.8v-6.6h1.8V151.5z"/>
		<path d="M117.8,151.6c-2,0-3.1-1.1-3.1-3.4c0-1.1,0.3-2,0.8-2.6s1.3-0.9,2.4-0.9c0.8,0,1.4,0.1,2,0.4l-0.5,1.4
			c-0.3-0.1-0.5-0.2-0.8-0.3s-0.5-0.1-0.7-0.1c-0.9,0-1.4,0.7-1.4,2c0,1.3,0.5,1.9,1.4,1.9c0.3,0,0.7,0,1-0.1s0.6-0.2,0.9-0.4v1.5
			c-0.3,0.2-0.6,0.3-0.9,0.4S118.3,151.6,117.8,151.6z"/>
		<path d="M123,147.9l0.8-1l1.8-2h2l-2.6,2.8l2.8,3.7h-2.1l-1.9-2.7l-0.8,0.6v2h-1.8v-9.1h1.8v4.1L123,147.9L123,147.9z"/>
		<path d="M133.3,149.6c0,0.7-0.2,1.2-0.7,1.5s-1.2,0.5-2.1,0.5c-0.5,0-0.9,0-1.2-0.1s-0.7-0.2-0.9-0.3v-1.5
			c0.3,0.2,0.7,0.3,1.1,0.4s0.8,0.2,1.1,0.2c0.6,0,1-0.2,1-0.6c0-0.1,0-0.3-0.1-0.3s-0.2-0.2-0.4-0.3s-0.5-0.2-0.8-0.4
			c-0.5-0.2-0.9-0.4-1.1-0.6s-0.4-0.4-0.5-0.6s-0.2-0.5-0.2-0.9c0-0.6,0.2-1,0.7-1.4s1.1-0.5,1.9-0.5c0.8,0,1.6,0.2,2.3,0.5
			l-0.5,1.3c-0.3-0.1-0.6-0.3-0.9-0.3s-0.6-0.1-0.9-0.1c-0.5,0-0.8,0.1-0.8,0.4c0,0.2,0.1,0.3,0.3,0.4s0.5,0.3,1.1,0.5
			c0.5,0.2,0.9,0.4,1.1,0.6s0.4,0.4,0.5,0.6S133.3,149.2,133.3,149.6z"/>
		<path d="M134.5,150.7c0-0.3,0.1-0.6,0.3-0.7s0.4-0.3,0.8-0.3c0.3,0,0.6,0.1,0.8,0.3s0.3,0.4,0.3,0.7c0,0.3-0.1,0.6-0.3,0.7
			s-0.4,0.3-0.8,0.3c-0.3,0-0.6-0.1-0.8-0.3S134.5,151,134.5,150.7z M136.2,148.7h-1.4l-0.3-5.7h2L136.2,148.7z"/>
	</g>
</g>
<polygon points="144.3,142.4 153,147.5 144.3,152.5 "/>
</svg>