<!-- Generator: Adobe Illustrator 19.0.0, SVG Export Plug-In  -->
<svg version="1.1"
	 xmlns="http://www.w3.org/2000/svg" xmlns:xlink="http://www.w3.org/1999/xlink" xmlns:a="http://ns.adobe.com/AdobeSVGViewerExtensions/3.0/"
	 x="0px" y="0px" width="70px" height="30px" viewBox="0 0 70 30" style="enable-background:new 0 0 70 30;" xml:space="preserve">
<style type="text/css">
	.st0{fill:#FFFFFF;stroke:#086A87;stroke-width:2;stroke-miterlimit:10;}
	.st1{fill:#086A87;}
</style>
<defs>
</defs>
<rect x="1" y="1" class="st0" width="68" height="28"/>
<g>
	<g>
		<path class="st1" d="M22.6,20.4h-2V15l0-0.9l0-1c-0.3,0.3-0.6,0.5-0.7,0.6l-1.1,0.9L18,13.5l3-2.4h1.6V20.4z"/>
		<path class="st1" d="M31.6,15.1c0,1.8-0.4,3.2-1.2,4.1c-0.8,0.9-1.9,1.4-3.5,1.4c-0.6,0-1,0-1.3-0.1v-1.6c0.4,0.1,0.7,0.1,1.1,0.1
			c0.7,0,1.2-0.1,1.6-0.3c0.4-0.2,0.7-0.5,1-0.9c0.2-0.4,0.4-1,0.4-1.7h-0.1c-0.2,0.4-0.5,0.7-0.9,0.8s-0.7,0.2-1.2,0.2
			c-0.8,0-1.4-0.3-1.9-0.8c-0.5-0.5-0.7-1.2-0.7-2.2c0-1,0.3-1.8,0.8-2.4c0.6-0.6,1.3-0.9,2.3-0.9c0.7,0,1.3,0.2,1.8,0.5
			c0.5,0.3,0.9,0.8,1.2,1.4C31.5,13.5,31.6,14.3,31.6,15.1z M28.2,12.6c-0.4,0-0.7,0.1-1,0.4s-0.3,0.7-0.3,1.2
			c0,0.4,0.1,0.8,0.3,1.1c0.2,0.3,0.5,0.4,0.9,0.4c0.4,0,0.7-0.1,1-0.4c0.3-0.3,0.4-0.6,0.4-0.9c0-0.5-0.1-0.9-0.4-1.3
			C29,12.8,28.7,12.6,28.2,12.6z"/>
		<path class="st1" d="M38.7,13.2c0,0.6-0.2,1.1-0.5,1.5s-0.8,0.7-1.5,0.8v0c0.7,0.1,1.3,0.3,1.7,0.7c0.4,0.4,0.6,0.8,0.6,1.5
			c0,0.9-0.3,1.6-1,2.1c-0.6,0.5-1.6,0.7-2.8,0.7c-1,0-1.9-0.2-2.7-0.5v-1.7c0.4,0.2,0.8,0.3,1.2,0.4S34.6,19,35,19
			c0.6,0,1.1-0.1,1.4-0.3c0.3-0.2,0.5-0.6,0.5-1.1c0-0.4-0.2-0.7-0.5-0.9s-0.9-0.3-1.7-0.3H34v-1.5h0.7c0.7,0,1.2-0.1,1.6-0.3
			c0.3-0.2,0.5-0.5,0.5-1c0-0.7-0.4-1.1-1.3-1.1c-0.3,0-0.6,0.1-0.9,0.2c-0.3,0.1-0.7,0.3-1.1,0.5l-0.9-1.4c0.8-0.6,1.9-0.9,3-0.9
			c1,0,1.7,0.2,2.3,0.6C38.4,12,38.7,12.5,38.7,13.2z"/>
		<path class="st1" d="M46.5,15.8c0,1.6-0.3,2.8-0.8,3.6c-0.5,0.8-1.3,1.2-2.5,1.2c-1.1,0-1.9-0.4-2.4-1.2c-0.5-0.8-0.8-2-0.8-3.6
			c0-1.6,0.3-2.8,0.8-3.6c0.5-0.8,1.3-1.2,2.4-1.2c1.1,0,1.9,0.4,2.4,1.2C46.2,13,46.5,14.2,46.5,15.8z M41.9,15.8
			c0,1.1,0.1,2,0.3,2.4c0.2,0.5,0.5,0.7,1,0.7c0.5,0,0.8-0.2,1-0.7s0.3-1.3,0.3-2.4c0-1.1-0.1-2-0.3-2.5c-0.2-0.5-0.5-0.7-1-0.7
			c-0.5,0-0.8,0.2-1,0.7C42,13.8,41.9,14.6,41.9,15.8z"/>
		<path class="st1" d="M52.9,18.3c0,0.7-0.3,1.3-0.8,1.7c-0.5,0.4-1.3,0.6-2.3,0.6c-0.5,0-1,0-1.3-0.1c-0.4-0.1-0.7-0.2-1-0.3v-1.6
			c0.4,0.2,0.8,0.3,1.2,0.4c0.5,0.1,0.8,0.2,1.2,0.2c0.7,0,1.1-0.2,1.1-0.6c0-0.2,0-0.3-0.1-0.4c-0.1-0.1-0.3-0.2-0.5-0.3
			c-0.2-0.1-0.5-0.3-0.9-0.4c-0.5-0.2-0.9-0.4-1.2-0.6c-0.3-0.2-0.4-0.4-0.6-0.7c-0.1-0.3-0.2-0.6-0.2-0.9c0-0.6,0.2-1.1,0.7-1.5
			c0.5-0.3,1.2-0.5,2.1-0.5c0.9,0,1.7,0.2,2.5,0.6l-0.6,1.4c-0.4-0.2-0.7-0.3-1-0.4c-0.3-0.1-0.6-0.1-0.9-0.1
			c-0.6,0-0.9,0.2-0.9,0.5c0,0.2,0.1,0.3,0.3,0.5c0.2,0.1,0.6,0.3,1.2,0.6c0.6,0.2,1,0.4,1.2,0.6c0.3,0.2,0.4,0.4,0.6,0.7
			C52.8,17.7,52.9,18,52.9,18.3z"/>
	</g>
</g>
</svg>