<!-- Generator: Adobe Illustrator 19.0.0, SVG Export Plug-In  -->
<svg version="1.1"
	 xmlns="http://www.w3.org/2000/svg" xmlns:xlink="http://www.w3.org/1999/xlink" xmlns:a="http://ns.adobe.com/AdobeSVGViewerExtensions/3.0/"
	 x="0px" y="0px" width="69px" height="30px" viewBox="0 0 69 30" style="enable-background:new 0 0 69 30;" xml:space="preserve">
<style type="text/css">
	.st0{fill:#FFFFFF;stroke:#086A87;stroke-width:2;stroke-miterlimit:10;}
	.st1{fill:#086A87;}
</style>
<defs>
</defs>
<rect x="1" y="1" class="st0" width="67" height="28"/>
<g>
	<g>
		<path class="st1" d="M22.6,18.9h-2v-5.4l0-0.9l0-1c-0.3,0.3-0.6,0.5-0.7,0.6l-1.1,0.9L18,12l3-2.4h1.6V18.9z"/>
		<path class="st1" d="M31.6,13.6c0,1.8-0.4,3.2-1.2,4.1c-0.8,0.9-1.9,1.4-3.5,1.4c-0.6,0-1,0-1.3-0.1v-1.6c0.4,0.1,0.7,0.1,1.1,0.1
			c0.7,0,1.2-0.1,1.6-0.3c0.4-0.2,0.7-0.5,1-0.9c0.2-0.4,0.4-1,0.4-1.7h-0.1c-0.2,0.4-0.5,0.7-0.9,0.8s-0.7,0.2-1.2,0.2
			c-0.8,0-1.4-0.3-1.9-0.8c-0.5-0.5-0.7-1.2-0.7-2.2c0-1,0.3-1.8,0.8-2.4c0.6-0.6,1.3-0.9,2.3-0.9c0.7,0,1.3,0.2,1.8,0.5
			c0.5,0.3,0.9,0.8,1.2,1.4C31.5,12,31.6,12.7,31.6,13.6z M28.2,11.1c-0.4,0-0.7,0.1-1,0.4s-0.3,0.7-0.3,1.2c0,0.4,0.1,0.8,0.3,1.1
			c0.2,0.3,0.5,0.4,0.9,0.4c0.4,0,0.7-0.1,1-0.4c0.3-0.3,0.4-0.6,0.4-0.9c0-0.5-0.1-0.9-0.4-1.3C29,11.2,28.7,11.1,28.2,11.1z"/>
		<path class="st1" d="M35.8,9.5c0.9,0,1.6,0.2,2.1,0.6c0.5,0.4,0.8,0.9,0.8,1.6c0,0.5-0.1,0.9-0.4,1.3c-0.3,0.4-0.7,0.7-1.3,1
			c0.7,0.4,1.2,0.8,1.5,1.2c0.3,0.4,0.5,0.8,0.5,1.3c0,0.8-0.3,1.4-0.9,1.8c-0.6,0.5-1.4,0.7-2.4,0.7c-1,0-1.8-0.2-2.4-0.6
			c-0.6-0.4-0.9-1-0.9-1.8c0-0.5,0.1-1,0.4-1.4c0.3-0.4,0.7-0.8,1.4-1.1c-0.5-0.3-0.9-0.7-1.1-1.1s-0.3-0.8-0.3-1.3
			c0-0.7,0.3-1.2,0.8-1.6C34.2,9.7,34.9,9.5,35.8,9.5z M34.3,16.4c0,0.4,0.1,0.6,0.4,0.9s0.6,0.3,1,0.3c0.5,0,0.9-0.1,1.1-0.3
			c0.2-0.2,0.4-0.5,0.4-0.8c0-0.3-0.1-0.5-0.4-0.8c-0.2-0.2-0.6-0.5-1.2-0.8C34.8,15.2,34.3,15.8,34.3,16.4z M35.8,10.9
			c-0.3,0-0.6,0.1-0.8,0.3c-0.2,0.2-0.3,0.4-0.3,0.7c0,0.3,0.1,0.5,0.2,0.7c0.2,0.2,0.5,0.4,0.9,0.6c0.4-0.2,0.7-0.4,0.9-0.6
			s0.2-0.4,0.2-0.7c0-0.3-0.1-0.5-0.3-0.7S36.1,10.9,35.8,10.9z"/>
		<path class="st1" d="M46.5,14.2c0,1.6-0.3,2.8-0.8,3.6c-0.5,0.8-1.3,1.2-2.5,1.2c-1.1,0-1.9-0.4-2.4-1.2c-0.5-0.8-0.8-2-0.8-3.6
			c0-1.6,0.3-2.8,0.8-3.6c0.5-0.8,1.3-1.2,2.4-1.2c1.1,0,1.9,0.4,2.4,1.2C46.2,11.5,46.5,12.7,46.5,14.2z M41.9,14.2
			c0,1.1,0.1,2,0.3,2.4c0.2,0.5,0.5,0.7,1,0.7c0.5,0,0.8-0.2,1-0.7s0.3-1.3,0.3-2.4c0-1.1-0.1-2-0.3-2.5c-0.2-0.5-0.5-0.7-1-0.7
			c-0.5,0-0.8,0.2-1,0.7C42,12.3,41.9,13.1,41.9,14.2z"/>
		<path class="st1" d="M52.9,16.8c0,0.7-0.3,1.3-0.8,1.7c-0.5,0.4-1.3,0.6-2.3,0.6c-0.5,0-1,0-1.3-0.1c-0.4-0.1-0.7-0.2-1-0.3V17
			c0.4,0.2,0.8,0.3,1.2,0.4c0.5,0.1,0.8,0.2,1.2,0.2c0.7,0,1.1-0.2,1.1-0.6c0-0.2,0-0.3-0.1-0.4c-0.1-0.1-0.3-0.2-0.5-0.3
			c-0.2-0.1-0.5-0.3-0.9-0.4c-0.5-0.2-0.9-0.4-1.2-0.6c-0.3-0.2-0.4-0.4-0.6-0.7c-0.1-0.3-0.2-0.6-0.2-0.9c0-0.6,0.2-1.1,0.7-1.5
			c0.5-0.3,1.2-0.5,2.1-0.5c0.9,0,1.7,0.2,2.5,0.6l-0.6,1.4c-0.4-0.2-0.7-0.3-1-0.4c-0.3-0.1-0.6-0.1-0.9-0.1
			c-0.6,0-0.9,0.2-0.9,0.5c0,0.2,0.1,0.3,0.3,0.5c0.2,0.1,0.6,0.3,1.2,0.6c0.6,0.2,1,0.4,1.2,0.6c0.3,0.2,0.4,0.4,0.6,0.7
			C52.8,16.1,52.9,16.4,52.9,16.8z"/>
	</g>
</g>
</svg>