<?xml version="1.0" encoding="utf-8"?>
<!-- Generator: Adobe Illustrator 19.0.0, SVG Export Plug-In . SVG Version: 6.00 Build 0)  -->
<svg version="1.1" id="Layer_1" xmlns="http://www.w3.org/2000/svg" xmlns:xlink="http://www.w3.org/1999/xlink" x="0px" y="0px"
	 viewBox="-773.3 -1878.2 148.2 455.9" style="enable-background:new -773.3 -1878.2 148.2 455.9;" xml:space="preserve">
<style type="text/css">
	.st0{fill:#E88B6B;}
	.st1{fill:#870759;}
	.st2{fill:#CC1D86;}
	.st3{fill:#F2F0F1;}
</style>
<g>
	
		<rect x="-686" y="-1757.7" transform="matrix(0.9853 -0.1709 0.1709 0.9853 280.8765 -140.3158)" class="st0" width="22.9" height="112.2"/>
	<path class="st0" d="M-641.6-1634.3h-22.8c-6.8,0-12.4-5.6-12.4-12.4v0c0-6.8,5.6-12.4,12.4-12.4h22.8c6.8,0,12.4,5.6,12.4,12.4v0
		C-629.1-1639.9-634.7-1634.3-641.6-1634.3z"/>
	
		<rect x="-698.7" y="-1767.3" transform="matrix(0.9853 -0.1709 0.1709 0.9853 287.0563 -142.084)" class="st1" width="34" height="58"/>
	<circle class="st1" cx="-685.9" cy="-1765.2" r="17.8"/>
	<rect x="-709.9" y="-1806.3" class="st0" width="29.2" height="33.2"/>
	<rect x="-733.7" y="-1572.2" class="st0" width="23.7" height="123.3"/>
	<rect x="-729.9" y="-1658.3" class="st1" width="49.5" height="85.9"/>
	<path class="st2" d="M-679.1-1624.2h-66.8v-128.7c0-17.4,14.1-31.4,31.4-31.4h35.3V-1624.2z"/>
	<rect x="-754.7" y="-1645.6" class="st2" width="49.5" height="73.2"/>
	<circle class="st2" cx="-708.5" cy="-1650.4" r="46.2"/>
	<path class="st0" d="M-719.8-1821.7h-7.6c-3.3,0-6-2.1-6-4.7l0,0c0-2.6,2.7-4.7,6-4.7h7.6c3.3,0,6,2.1,6,4.7l0,0
		C-713.8-1823.9-716.5-1821.7-719.8-1821.7z"/>
	<path class="st0" d="M-704.1-1797L-704.1-1797c-14.2,0-25.8-11.6-25.8-25.8v-18.8c0-14.2,11.6-25.8,25.8-25.8l0,0
		c14.2,0,25.8,11.6,25.8,25.8v18.8C-678.2-1808.7-689.9-1797-704.1-1797z"/>
	<path class="st0" d="M-675.7-1826.3h-5.6c-2.4,0-4.4-2-4.4-4.4l0,0c0-2.4,2-4.4,4.4-4.4h5.6c2.4,0,4.4,2,4.4,4.4l0,0
		C-671.3-1828.3-673.3-1826.3-675.7-1826.3z"/>
	<path d="M-725.8-1829.2c0-2.2,1.8-4,4-4c2.2,0,4,1.8,4,4"/>
	<path class="st3" d="M-726.2-1825c0,3,3.1,6.8,6.8,6.8c3.8,0,6.8-3.8,6.8-6.8H-726.2z"/>
	<path d="M-731.4-1852.2c0,0,0.7,20.7,27.6,21.2v79.4c0,0-5.2,36.2,34.9,45.6h26.2c0,0-28-7.2-28-46.4v-90.1c0-9.6-3.4-18.9-10-25.8
		c-5.4-5.8-13.4-10.5-24.9-9.7C-732.4-1876.2-731.4-1852.2-731.4-1852.2z"/>
	<path d="M-713.8-1852.2c0,0,0.7,20.7,27.6,21.2v79.4c0,0-5.2,36.2,34.9,45.6h26.2c0,0-28-7.2-28-46.4v-90.1c0-9.6-3.4-18.9-10-25.8
		c-5.4-5.8-13.4-10.5-24.9-9.7C-714.8-1876.2-713.8-1852.2-713.8-1852.2z"/>
	
		<rect x="-731.9" y="-1757.1" transform="matrix(0.9853 -0.1709 0.1709 0.9853 280.1034 -148.1413)" class="st0" width="22.9" height="112.2"/>
	
		<rect x="-743.2" y="-1762.2" transform="matrix(0.9853 -0.1709 0.1709 0.9853 285.5168 -149.6157)" class="st1" width="34" height="58"/>
	<path class="st0" d="M-686.3-1635.3h-20c-6.2,0-11.4-5.1-11.4-11.4v-0.5c0-6.2,5.1-11.4,11.4-11.4h20c6.2,0,11.4,5.1,11.4,11.4v0.5
		C-675-1640.5-680.1-1635.3-686.3-1635.3z"/>
	<path class="st0" d="M-711.8-1652.2v10.9c0,3.3-2.7,5.9-5.9,5.9h0c-3.3,0-5.9-2.7-5.9-5.9v-10.9c0-3.3,2.7-5.9,5.9-5.9h0
		C-714.4-1658.1-711.8-1655.5-711.8-1652.2z"/>
	<rect x="-705.2" y="-1572.4" class="st0" width="24.5" height="123.5"/>
	<circle class="st1" cx="-730.4" cy="-1760" r="17.8"/>
	<path class="st1" d="M-680.7-1468.6v46.3h-7.9v-9.5l-7.3,9.5h-48.2c1.1-12.8,11.1-21.2,23.3-21.2c5.1,0,9.7,1.3,13.5,3.9v-29
		H-680.7z"/>
	<path class="st2" d="M-709.9-1468.6v46.3h-7.9v-9.5l-7.3,9.5h-48.2c1.1-12.8,11.1-21.2,23.3-21.2c5.1,0,9.7,1.3,13.5,3.9v-29
		H-709.9z"/>
</g>
</svg>
