<?xml version="1.0" encoding="utf-8"?>
<!-- Generator: Adobe Illustrator 19.0.0, SVG Export Plug-In . SVG Version: 6.00 Build 0)  -->
<svg version="1.1" id="Layer_1" xmlns="http://www.w3.org/2000/svg" xmlns:xlink="http://www.w3.org/1999/xlink" x="0px" y="0px"
	 viewBox="0 0 107.2 107.2" style="enable-background:new 0 0 107.2 107.2;" xml:space="preserve">
<style type="text/css">
	.st0{fill:#FFFFFF;}
	.st1{fill:#F2673A;}
</style>
<g>
	<path class="st0" d="M97.3,38.4l-9.6-9.6l0,0l-3.2-3.2l-3.1-3.1l-3.2-3.2l-9-9l-0.6-0.6l-9.5-9.5l-9.5,9.5L9.5,50.2L0,59.7l9.5,9.5
		L38,97.7l9.5,9.5l9.5-9.5l40.3-40.3l9.5-9.5L97.3,38.4z M47.5,88.2L18.9,59.7l40.3-40.3l9.3,9.3l0.2,0.2l9.5,9.5l0.2,0.2l9.3,9.3
		L47.5,88.2z"/>
	<path class="st1" d="M97.3,38.4l4.5-4.5l0,0c7.4-7.9,7.2-20.3-0.5-28c-7.7-7.7-20.1-7.9-28-0.5l0,0l-14,14l9.6,9.6l14-14
		c2.6-2.6,6.8-2.6,9.5,0c2.6,2.6,2.6,6.8,0,9.5l-4.5,4.5L97.3,38.4"/>
</g>
</svg>
