<!-- Generator: Adobe Illustrator 19.0.0, SVG Export Plug-In  -->
<svg version="1.1"
	 xmlns="http://www.w3.org/2000/svg" xmlns:xlink="http://www.w3.org/1999/xlink" xmlns:a="http://ns.adobe.com/AdobeSVGViewerExtensions/3.0/"
	 x="0px" y="0px" width="91.3px" height="98.9px" viewBox="0 0 91.3 98.9" style="enable-background:new 0 0 91.3 98.9;"
	 xml:space="preserve">
<style type="text/css">
	.st0{fill:#FFFFFF;stroke:#FFFFFF;stroke-width:2;stroke-miterlimit:10;}
	.st1{fill:#FFFFFF;}
	.st2{fill:#E0E0DA;}
	.st3{fill:#F2AC2F;}
	.st4{fill:#C1BCBD;}
	.st5{fill:#E2DEDE;}
	.st6{fill:#EA1F63;}
	.st7{clip-path:url(#XMLID_103_);fill:#CB001C;}
	.st8{clip-path:url(#XMLID_103_);fill:#FFFFFF;}
	.st9{clip-path:url(#XMLID_103_);fill:#2A3560;}
	.st10{clip-path:url(#XMLID_104_);fill:#CB001C;}
	.st11{clip-path:url(#XMLID_104_);fill:#FFFFFF;}
	.st12{clip-path:url(#XMLID_104_);fill:#2A3560;}
</style>
<defs>
</defs>
<g id="XMLID_82_">
	<g id="XMLID_84_">
		<line id="XMLID_93_" class="st0" x1="31" y1="4.4" x2="48.9" y2="4.4"/>
		<polygon id="XMLID_92_" class="st1" points="60.5,79.5 0,79.5 0,23.7 7.3,17.9 7.3,17.9 52.8,17.9 60.5,23.2 60.5,23.2 		"/>
		<rect id="XMLID_91_" x="7.3" y="17.9" class="st2" width="45.7" height="61.5"/>
		<rect id="XMLID_90_" x="16.1" y="29.6" class="st3" width="29.5" height="17"/>
		<rect id="XMLID_89_" x="15.6" y="11.6" class="st4" width="29.3" height="6.3"/>
		<rect id="XMLID_88_" x="19.7" y="5.8" class="st5" width="21.6" height="5.8"/>
		<rect id="XMLID_87_" x="19.6" class="st4" width="21.7" height="5.8"/>
		<circle id="XMLID_86_" class="st6" cx="53" cy="4.4" r="4.4"/>
		<rect id="XMLID_85_" x="16.1" y="43" class="st1" width="29.5" height="3.6"/>
	</g>
</g>
<g id="XMLID_15_">
	<g id="XMLID_16_">
		<defs>
			<rect id="XMLID_17_" x="29.7" y="62.9" width="61.7" height="35.9"/>
		</defs>
		<clipPath id="XMLID_103_">
			<use xlink:href="#XMLID_17_"  style="overflow:visible;"/>
		</clipPath>
		<rect id="XMLID_81_" x="29.7" y="96.1" class="st7" width="61.7" height="2.8"/>
		<rect id="XMLID_80_" x="29.7" y="93.4" class="st8" width="61.7" height="2.7"/>
		<rect id="XMLID_79_" x="29.7" y="90.6" class="st7" width="61.7" height="2.8"/>
		<rect id="XMLID_78_" x="29.7" y="87.9" class="st8" width="61.7" height="2.7"/>
		<rect id="XMLID_77_" x="29.7" y="85" class="st7" width="61.7" height="3"/>
		<rect id="XMLID_76_" x="29.7" y="82.2" class="st8" width="61.7" height="2.8"/>
		<rect id="XMLID_75_" x="29.7" y="79.5" class="st7" width="61.7" height="2.7"/>
		<rect id="XMLID_74_" x="29.7" y="76.7" class="st8" width="61.7" height="2.8"/>
		<rect id="XMLID_73_" x="29.7" y="74" class="st7" width="61.7" height="2.7"/>
		<rect id="XMLID_72_" x="29.7" y="71.2" class="st8" width="61.7" height="2.8"/>
		<rect id="XMLID_71_" x="29.7" y="68.4" class="st7" width="61.7" height="2.8"/>
		<rect id="XMLID_70_" x="29.7" y="65.6" class="st8" width="61.7" height="2.8"/>
		<rect id="XMLID_69_" x="29.7" y="62.9" class="st7" width="61.7" height="2.7"/>
		<rect id="XMLID_68_" x="29.7" y="62.9" class="st9" width="28.2" height="19.2"/>
		<polygon id="XMLID_67_" class="st8" points="32.2,65 32.4,65.7 33.2,65.7 32.5,66.2 32.8,66.8 32.2,66.5 31.6,66.8 31.8,66.2 
			31.1,65.7 31.9,65.7 		"/>
		<polygon id="XMLID_66_" class="st8" points="32.2,68.3 32.4,69 33.2,69 32.5,69.5 32.8,70.3 32.2,69.8 31.6,70.3 31.8,69.5 
			31.1,69 31.9,69 		"/>
		<polygon id="XMLID_65_" class="st8" points="32.2,71.5 32.4,72.2 33.2,72.2 32.5,72.6 32.8,73.4 32.2,72.9 31.6,73.4 31.8,72.6 
			31.1,72.2 31.9,72.2 		"/>
		<polygon id="XMLID_64_" class="st8" points="32.2,74.7 32.4,75.4 33.2,75.4 32.5,75.9 32.8,76.7 32.2,76.2 31.6,76.7 31.8,75.9 
			31.1,75.4 31.9,75.4 		"/>
		<polygon id="XMLID_63_" class="st8" points="32.2,78.1 32.4,78.7 33.2,78.7 32.5,79.2 32.8,80 32.2,79.5 31.6,80 31.8,79.2 
			31.1,78.7 31.9,78.7 		"/>
		<polygon id="XMLID_62_" class="st8" points="34.4,66.7 34.7,67.5 35.4,67.5 34.8,67.8 35,68.7 34.4,68.3 33.8,68.7 34.1,67.8 
			33.4,67.5 34.2,67.5 		"/>
		<polygon id="XMLID_61_" class="st8" points="34.4,70 34.7,70.8 35.4,70.8 34.8,71.2 35,71.9 34.4,71.5 33.8,71.9 34.1,71.2 
			33.4,70.8 34.2,70.8 		"/>
		<polygon id="XMLID_60_" class="st8" points="34.4,73.3 34.7,74 35.4,74 34.8,74.3 35,75.1 34.4,74.7 33.8,75.1 34.1,74.3 33.4,74 
			34.2,74 		"/>
		<polygon id="XMLID_59_" class="st8" points="34.4,76.4 34.7,77.2 35.4,77.2 34.8,77.6 35,78.4 34.4,77.9 33.8,78.4 34.1,77.6 
			33.4,77.2 34.2,77.2 		"/>
		<polygon id="XMLID_58_" class="st8" points="36.7,65 37,65.7 37.7,65.7 37.1,66.2 37.3,66.8 36.7,66.5 36.1,66.8 36.3,66.2 
			35.7,65.7 36.5,65.7 		"/>
		<polygon id="XMLID_57_" class="st8" points="36.7,68.3 37,69 37.7,69 37.1,69.5 37.3,70.3 36.7,69.8 36.1,70.3 36.3,69.5 35.7,69 
			36.5,69 		"/>
		<polygon id="XMLID_56_" class="st8" points="36.7,71.5 37,72.2 37.7,72.2 37.1,72.6 37.3,73.4 36.7,72.9 36.1,73.4 36.3,72.6 
			35.7,72.2 36.5,72.2 		"/>
		<polygon id="XMLID_55_" class="st8" points="36.7,74.7 37,75.4 37.7,75.4 37.1,75.9 37.3,76.7 36.7,76.2 36.1,76.7 36.3,75.9 
			35.7,75.4 36.5,75.4 		"/>
		<polygon id="XMLID_54_" class="st8" points="36.7,78.1 37,78.7 37.7,78.7 37.1,79.2 37.3,80 36.7,79.5 36.1,80 36.3,79.2 
			35.7,78.7 36.5,78.7 		"/>
		<polygon id="XMLID_53_" class="st8" points="39,66.7 39.2,67.5 40,67.5 39.3,67.8 39.6,68.7 39,68.3 38.3,68.7 38.6,67.8 38,67.5 
			38.8,67.5 		"/>
		<polygon id="XMLID_52_" class="st8" points="39,70 39.2,70.8 40,70.8 39.3,71.2 39.6,71.9 39,71.5 38.3,71.9 38.6,71.2 38,70.8 
			38.8,70.8 		"/>
		<polygon id="XMLID_51_" class="st8" points="39,73.3 39.2,74 40,74 39.3,74.3 39.6,75.1 39,74.7 38.3,75.1 38.6,74.3 38,74 
			38.8,74 		"/>
		<polygon id="XMLID_50_" class="st8" points="39,76.4 39.2,77.2 40,77.2 39.3,77.6 39.6,78.4 39,77.9 38.3,78.4 38.6,77.6 38,77.2 
			38.8,77.2 		"/>
		<polygon id="XMLID_49_" class="st8" points="41.3,65 41.5,65.7 42.3,65.7 41.6,66.2 41.8,66.8 41.3,66.5 40.6,66.8 40.9,66.2 
			40.2,65.7 41,65.7 		"/>
		<polygon id="XMLID_48_" class="st8" points="41.3,68.3 41.5,69 42.3,69 41.6,69.5 41.8,70.3 41.3,69.8 40.6,70.3 40.9,69.5 
			40.2,69 41,69 		"/>
		<polygon id="XMLID_47_" class="st8" points="41.3,71.5 41.5,72.2 42.3,72.2 41.6,72.6 41.8,73.4 41.3,72.9 40.6,73.4 40.9,72.6 
			40.2,72.2 41,72.2 		"/>
		<polygon id="XMLID_46_" class="st8" points="41.3,74.7 41.5,75.4 42.3,75.4 41.6,75.9 41.8,76.7 41.3,76.2 40.6,76.7 40.9,75.9 
			40.2,75.4 41,75.4 		"/>
		<polygon id="XMLID_45_" class="st8" points="41.3,78.1 41.5,78.7 42.3,78.7 41.6,79.2 41.8,80 41.3,79.5 40.6,80 40.9,79.2 
			40.2,78.7 41,78.7 		"/>
		<polygon id="XMLID_44_" class="st8" points="43.5,66.7 43.8,67.5 44.5,67.5 43.9,67.8 44.2,68.7 43.5,68.3 42.9,68.7 43.1,67.8 
			42.5,67.5 43.3,67.5 		"/>
		<polygon id="XMLID_43_" class="st8" points="43.5,70 43.8,70.8 44.5,70.8 43.9,71.2 44.2,71.9 43.5,71.5 42.9,71.9 43.1,71.2 
			42.5,70.8 43.3,70.8 		"/>
		<polygon id="XMLID_42_" class="st8" points="43.5,73.3 43.8,74 44.5,74 43.9,74.3 44.2,75.1 43.5,74.7 42.9,75.1 43.1,74.3 
			42.5,74 43.3,74 		"/>
		<polygon id="XMLID_41_" class="st8" points="43.5,76.4 43.8,77.2 44.5,77.2 43.9,77.6 44.2,78.4 43.5,77.9 42.9,78.4 43.1,77.6 
			42.5,77.2 43.3,77.2 		"/>
		<polygon id="XMLID_40_" class="st8" points="45.8,65 46,65.7 46.8,65.7 46.1,66.2 46.4,66.8 45.8,66.5 45.2,66.8 45.4,66.2 
			44.8,65.7 45.6,65.7 		"/>
		<polygon id="XMLID_39_" class="st8" points="45.8,68.3 46,69 46.8,69 46.1,69.5 46.4,70.3 45.8,69.8 45.2,70.3 45.4,69.5 44.8,69 
			45.6,69 		"/>
		<polygon id="XMLID_38_" class="st8" points="45.8,71.5 46,72.2 46.8,72.2 46.1,72.6 46.4,73.4 45.8,72.9 45.2,73.4 45.4,72.6 
			44.8,72.2 45.6,72.2 		"/>
		<polygon id="XMLID_37_" class="st8" points="45.8,74.7 46,75.4 46.8,75.4 46.1,75.9 46.4,76.7 45.8,76.2 45.2,76.7 45.4,75.9 
			44.8,75.4 45.6,75.4 		"/>
		<polygon id="XMLID_36_" class="st8" points="45.8,78.1 46,78.7 46.8,78.7 46.1,79.2 46.4,80 45.8,79.5 45.2,80 45.4,79.2 
			44.8,78.7 45.6,78.7 		"/>
		<polygon id="XMLID_35_" class="st8" points="48.1,66.7 48.3,67.5 49.1,67.5 48.4,67.8 48.6,68.7 48.1,68.3 47.4,68.7 47.7,67.8 
			47.1,67.5 47.8,67.5 		"/>
		<polygon id="XMLID_34_" class="st8" points="48.1,70 48.3,70.8 49.1,70.8 48.4,71.2 48.6,71.9 48.1,71.5 47.4,71.9 47.7,71.2 
			47.1,70.8 47.8,70.8 		"/>
		<polygon id="XMLID_33_" class="st8" points="48.1,73.3 48.3,74 49.1,74 48.4,74.3 48.6,75.1 48.1,74.7 47.4,75.1 47.7,74.3 
			47.1,74 47.8,74 		"/>
		<polygon id="XMLID_32_" class="st8" points="48.1,76.4 48.3,77.2 49.1,77.2 48.4,77.6 48.6,78.4 48.1,77.9 47.4,78.4 47.7,77.6 
			47.1,77.2 47.8,77.2 		"/>
		<polygon id="XMLID_31_" class="st8" points="50.3,65 50.6,65.7 51.3,65.7 50.7,66.2 50.9,66.8 50.3,66.5 49.7,66.8 49.9,66.2 
			49.3,65.7 50.1,65.7 		"/>
		<polygon id="XMLID_30_" class="st8" points="50.3,68.3 50.6,69 51.3,69 50.7,69.5 50.9,70.3 50.3,69.8 49.7,70.3 49.9,69.5 
			49.3,69 50.1,69 		"/>
		<polygon id="XMLID_29_" class="st8" points="50.3,71.5 50.6,72.2 51.3,72.2 50.7,72.6 50.9,73.4 50.3,72.9 49.7,73.4 49.9,72.6 
			49.3,72.2 50.1,72.2 		"/>
		<polygon id="XMLID_28_" class="st8" points="50.3,74.7 50.6,75.4 51.3,75.4 50.7,75.9 50.9,76.7 50.3,76.2 49.7,76.7 49.9,75.9 
			49.3,75.4 50.1,75.4 		"/>
		<polygon id="XMLID_27_" class="st8" points="50.3,78.1 50.6,78.7 51.3,78.7 50.7,79.2 50.9,80 50.3,79.5 49.7,80 49.9,79.2 
			49.3,78.7 50.1,78.7 		"/>
		<polygon id="XMLID_26_" class="st8" points="52.6,66.7 52.8,67.5 53.6,67.5 53,67.8 53.2,68.7 52.6,68.3 52,68.7 52.2,67.8 
			51.6,67.5 52.3,67.5 		"/>
		<polygon id="XMLID_25_" class="st8" points="52.6,70 52.8,70.8 53.6,70.8 53,71.2 53.2,71.9 52.6,71.5 52,71.9 52.2,71.2 
			51.6,70.8 52.3,70.8 		"/>
		<polygon id="XMLID_24_" class="st8" points="52.6,73.3 52.8,74 53.6,74 53,74.3 53.2,75.1 52.6,74.7 52,75.1 52.2,74.3 51.6,74 
			52.3,74 		"/>
		<polygon id="XMLID_23_" class="st8" points="52.6,76.4 52.8,77.2 53.6,77.2 53,77.6 53.2,78.4 52.6,77.9 52,78.4 52.2,77.6 
			51.6,77.2 52.3,77.2 		"/>
		<polygon id="XMLID_22_" class="st8" points="54.8,65 55.1,65.7 55.9,65.7 55.2,66.2 55.4,66.8 54.8,66.5 54.3,66.8 54.5,66.2 
			53.9,65.7 54.6,65.7 		"/>
		<polygon id="XMLID_21_" class="st8" points="54.8,68.3 55.1,69 55.9,69 55.2,69.5 55.4,70.3 54.8,69.8 54.3,70.3 54.5,69.5 
			53.9,69 54.6,69 		"/>
		<polygon id="XMLID_20_" class="st8" points="54.8,71.5 55.1,72.2 55.9,72.2 55.2,72.6 55.4,73.4 54.8,72.9 54.3,73.4 54.5,72.6 
			53.9,72.2 54.6,72.2 		"/>
		<polygon id="XMLID_19_" class="st8" points="54.8,74.7 55.1,75.4 55.9,75.4 55.2,75.9 55.4,76.7 54.8,76.2 54.3,76.7 54.5,75.9 
			53.9,75.4 54.6,75.4 		"/>
		<polygon id="XMLID_18_" class="st8" points="54.8,78.1 55.1,78.7 55.9,78.7 55.2,79.2 55.4,80 54.8,79.5 54.3,80 54.5,79.2 
			53.9,78.7 54.6,78.7 		"/>
	</g>
</g>
</svg>