<!-- Generator: Adobe Illustrator 19.0.0, SVG Export Plug-In  -->
<svg version="1.1"
	 xmlns="http://www.w3.org/2000/svg" xmlns:xlink="http://www.w3.org/1999/xlink" xmlns:a="http://ns.adobe.com/AdobeSVGViewerExtensions/3.0/"
	 x="0px" y="0px" width="82.2px" height="48px" viewBox="0 0 82.2 48" style="enable-background:new 0 0 82.2 48;"
	 xml:space="preserve">
<style type="text/css">
	.st0{clip-path:url(#XMLID_37_);fill:#D80031;}
	.st1{clip-path:url(#XMLID_37_);fill:#FFFFFF;}
	.st2{clip-path:url(#XMLID_37_);fill:#043344;}
	.st3{clip-path:url(#XMLID_37_);}
	.st4{clip-path:url(#XMLID_38_);fill:#F5D028;}
	.st5{clip-path:url(#XMLID_39_);fill:#D80031;}
	.st6{clip-path:url(#XMLID_39_);fill:#FFFFFF;}
	.st7{clip-path:url(#XMLID_39_);fill:#043344;}
	.st8{clip-path:url(#XMLID_39_);}
	.st9{clip-path:url(#XMLID_40_);fill:#F5D028;}
</style>
<defs>
</defs>
<g id="XMLID_15_">
	<g id="XMLID_16_">
		<defs>
			<rect id="XMLID_17_" width="82.2" height="48"/>
		</defs>
		<clipPath id="XMLID_37_">
			<use xlink:href="#XMLID_17_"  style="overflow:visible;"/>
		</clipPath>
		<rect id="XMLID_36_" class="st0" width="82.2" height="3.4"/>
		<rect id="XMLID_35_" y="3.4" class="st1" width="82.2" height="3.4"/>
		<rect id="XMLID_34_" y="6.9" class="st0" width="82.2" height="3.5"/>
		<rect id="XMLID_33_" y="10.4" class="st1" width="82.2" height="3.4"/>
		<rect id="XMLID_32_" y="13.7" class="st0" width="82.2" height="3.4"/>
		<rect id="XMLID_31_" y="17.2" class="st1" width="82.2" height="3.4"/>
		<rect id="XMLID_30_" y="20.5" class="st0" width="82.2" height="3.4"/>
		<rect id="XMLID_29_" y="24" class="st1" width="82.2" height="3.4"/>
		<rect id="XMLID_28_" y="27.4" class="st0" width="82.2" height="3.4"/>
		<rect id="XMLID_27_" y="30.8" class="st1" width="82.2" height="3.5"/>
		<rect id="XMLID_26_" y="34.3" class="st0" width="82.2" height="3.4"/>
		<rect id="XMLID_25_" y="37.7" class="st1" width="82.2" height="3.4"/>
		<rect id="XMLID_24_" y="41.1" class="st0" width="82.2" height="3.4"/>
		<rect id="XMLID_23_" y="44.5" class="st1" width="82.2" height="3.4"/>
		<rect id="XMLID_22_" class="st2" width="48" height="27.4"/>
		<g id="XMLID_18_" class="st3">
			<defs>
				<rect id="XMLID_19_" width="82.2" height="48"/>
			</defs>
			<clipPath id="XMLID_38_">
				<use xlink:href="#XMLID_19_"  style="overflow:visible;"/>
			</clipPath>
			<path id="XMLID_21_" class="st4" d="M12.9,13.7c0-5,4-9,8.9-9c1.8,0,3.3,0.5,4.7,1.3c-1.8-1.6-4.2-2.6-6.8-2.6
				c-5.6,0-10.3,4.6-10.3,10.3S14.1,24,19.8,24c2.6,0,5-1,6.8-2.7c-1.4,0.9-2.9,1.4-4.7,1.4C16.9,22.7,12.9,18.7,12.9,13.7"/>
			<polygon id="XMLID_20_" class="st4" points="33.4,13.7 38.4,11.8 33.2,12.2 36.7,8.3 32.1,11.1 33.8,6 30.8,10.4 30,5.2 
				29.4,8.8 29.2,10 29.1,10.4 26.3,6 27.9,11.1 23.3,8.3 26.9,12.2 21.7,11.8 26.5,13.7 21.7,15.6 26.9,15.2 23.3,19.1 27.9,16.4 
				26.3,21.4 29.1,17.1 29.2,17.5 29.4,18.5 30,22.3 30.8,17.1 33.8,21.4 32.1,16.4 36.7,19.1 33.2,15.2 38.4,15.6 			"/>
		</g>
	</g>
</g>
</svg>