<?xml version="1.0" encoding="utf-8"?>
<!-- Generator: Adobe Illustrator 19.0.0, SVG Export Plug-In . SVG Version: 6.00 Build 0)  -->
<svg version="1.1" id="Layer_1" xmlns="http://www.w3.org/2000/svg" xmlns:xlink="http://www.w3.org/1999/xlink" x="0px" y="0px"
	 viewBox="0 0 164.5 167" style="enable-background:new 0 0 164.5 167;" xml:space="preserve">
<style type="text/css">
	.st0{fill:#15B27E;}
	.st1{fill:#FFFFFF;}
	.st2{fill:#88181A;}
	.st3{fill:#D14C27;}
	.st4{fill:#B53525;}
	.st5{fill:#BFB77B;}
	.st6{fill:#F9A721;}
	.st7{fill:#FFDE9C;}
	.st8{fill:#EE3048;}
	.st9{fill:#F9E558;}
	.st10{fill:#199247;}
	.st11{fill:#4AB85B;}
	.st12{fill:#A0944C;}
	.st13{fill:#CD202B;}
	.st14{fill:#404040;stroke:#404040;stroke-width:0.5;stroke-miterlimit:10;}
	.st15{fill:#404040;}
</style>
<rect id="XMLID_12531_" class="st0" width="150" height="166.9"/>
<g id="XMLID_12525_">
	<polygon id="XMLID_12530_" class="st1" points="145.2,167 145.2,147.8 164.5,167 	"/>
	<g id="XMLID_12526_">
		<rect id="XMLID_279_" y="96.7" class="st1" width="150" height="70.3"/>
		<rect id="XMLID_277_" y="96.7" class="st1" width="150" height="70.3"/>
	</g>
</g>
<rect id="XMLID_12524_" x="25.9" y="11.5" class="st2" width="95.3" height="59.9"/>
<rect id="XMLID_12523_" x="25.9" y="30.5" class="st3" width="73.4" height="3"/>
<rect id="XMLID_12522_" x="25.9" y="11.5" class="st3" width="3" height="59.9"/>
<rect id="XMLID_12521_" x="49.3" y="11.5" class="st3" width="3" height="59.9"/>
<rect id="XMLID_12520_" x="72.8" y="11.5" class="st3" width="3" height="59.9"/>
<rect id="XMLID_12519_" x="96.2" y="11.5" class="st3" width="3" height="59.9"/>
<rect id="XMLID_12518_" x="119.7" y="8.5" class="st3" width="3" height="63"/>
<rect id="XMLID_12517_" x="25.9" y="49.4" class="st3" width="95.3" height="3"/>
<rect id="XMLID_12516_" x="25.9" y="8.5" class="st3" width="95.6" height="3"/>
<rect id="XMLID_12515_" x="25.9" y="69.5" class="st4" width="96.9" height="13.7"/>
<circle id="XMLID_12514_" class="st5" cx="87.1" cy="41.5" r="6.7"/>
<path id="XMLID_12513_" class="st5" d="M56.5,60.4c0-3.7,3-6.7,6.7-6.7c3.7,0,6.7,3,6.7,6.7"/>
<circle id="XMLID_12512_" class="st5" cx="86.2" cy="21.3" r="6.7"/>
<circle id="XMLID_12511_" class="st6" cx="62.6" cy="21.3" r="6.7"/>
<circle id="XMLID_12510_" class="st6" cx="85.8" cy="60" r="6.7"/>
<circle id="XMLID_12509_" class="st6" cx="109" cy="60" r="6.7"/>
<circle id="XMLID_12508_" class="st6" cx="39.2" cy="60.4" r="6.7"/>
<circle id="XMLID_12507_" class="st7" cx="39.2" cy="60.4" r="3.9"/>
<circle id="XMLID_12506_" class="st8" cx="40.2" cy="21.3" r="6.7"/>
<circle id="XMLID_12505_" class="st6" cx="40.2" cy="41.5" r="6.7"/>
<path id="XMLID_12504_" class="st9" d="M116.4,25.4v7.4c0,4.1-3.3,7.4-7.4,7.4l0,0c-4.1,0-7.4-3.3-7.4-7.4v-7.4
	c0-4.1,3.3-7.4,7.4-7.4l0,0C113.1,18,116.4,21.4,116.4,25.4z"/>
<path id="XMLID_12503_" class="st10" d="M96.5,16.7l-9.4,10.7C87.1,27.4,94.8,29.6,96.5,16.7z"/>
<path id="XMLID_12502_" class="st11" d="M96.7,16.9l-9.4,10.7C87.3,27.6,85.3,18.8,96.7,16.9z"/>
<path id="XMLID_12501_" class="st7" d="M66.4,46.7h-7.7c-1.6,0-2.8-1.3-2.8-2.8v-6.2c0-1.6,1.3-2.8,2.8-2.8h7.7
	c1.6,0,2.8,1.3,2.8,2.8v6.2C69.2,45.5,68,46.7,66.4,46.7z"/>
<rect id="XMLID_12500_" x="26.5" y="68" class="st3" width="95.6" height="3"/>
<path id="XMLID_12499_" class="st7" d="M67.9,62.8h-9.5c-1.1,0-1.9-0.9-1.9-1.9l0,0c0-1.1,0.9-1.9,1.9-1.9h9.5
	c1.1,0,1.9,0.9,1.9,1.9l0,0C69.8,61.9,68.9,62.8,67.9,62.8z"/>
<path id="XMLID_12498_" class="st8" d="M67.6,61.7h-9c-0.3,0-0.6-0.3-0.6-0.6v-0.5c0-0.3,0.3-0.6,0.6-0.6h9c0.3,0,0.6,0.3,0.6,0.6
	v0.5C68.3,61.4,68,61.7,67.6,61.7z"/>
<path id="XMLID_12497_" class="st12" d="M85.8,40.8L85.8,40.8c-0.7,0-1.3-0.6-1.3-1.3l0,0c0-0.7,0.6-1.3,1.3-1.3l0,0
	c0.7,0,1.3,0.6,1.3,1.3l0,0C87.1,40.2,86.5,40.8,85.8,40.8z"/>
<path id="XMLID_12496_" class="st12" d="M88.2,43.5L88.2,43.5c-0.7,0-1.3-0.6-1.3-1.3l0,0c0-0.7,0.6-1.3,1.3-1.3l0,0
	c0.7,0,1.3,0.6,1.3,1.3l0,0C89.5,43,89,43.5,88.2,43.5z"/>
<path id="XMLID_12495_" class="st12" d="M90.4,40.8L90.4,40.8c-0.7,0-1.3-0.6-1.3-1.3l0,0c0-0.7,0.6-1.3,1.3-1.3l0,0
	c0.7,0,1.3,0.6,1.3,1.3l0,0C91.7,40.2,91.1,40.8,90.4,40.8z"/>
<g id="XMLID_12490_">
	<circle id="XMLID_12494_" class="st13" cx="17.4" cy="107" r="4"/>
	<path id="XMLID_12493_" class="st13" d="M13.4,107h8.1V117C21.4,117,13.4,112.1,13.4,107z"/>
	<circle id="XMLID_12492_" class="st13" cx="25.5" cy="106.8" r="4"/>
	<path id="XMLID_12491_" class="st13" d="M29.5,106.8h-8.1v10.1C21.4,116.9,29.5,112,29.5,106.8z"/>
</g>
<g id="XMLID_21_">
	<path id="XMLID_127_" class="st14" d="M50.4,109.5c0,0.5-0.2,0.9-0.4,1.3c-0.1,0.2-0.2,0.3-0.3,0.5c-0.1,0.2-0.3,0.3-0.5,0.4
		c-0.2,0.1-0.4,0.2-0.7,0.3s-0.6,0.1-0.9,0.1c-0.4,0-0.7,0-0.9-0.1s-0.5-0.2-0.7-0.3c-0.2-0.1-0.4-0.3-0.5-0.4s-0.3-0.3-0.3-0.5
		c-0.2-0.4-0.3-0.8-0.4-1.3V108h2.1v1h-1v0.5c0,0.2,0,0.4,0.1,0.5c0,0.2,0.1,0.3,0.2,0.4s0.2,0.2,0.3,0.3s0.2,0.1,0.3,0.2
		c0.3,0.1,0.6,0.2,0.9,0.2c0.3,0,0.6-0.1,0.9-0.2c0.1-0.1,0.2-0.1,0.3-0.2s0.2-0.2,0.3-0.3s0.2-0.2,0.2-0.4c0-0.2,0.1-0.3,0.1-0.5
		v-2.2c0-0.2,0-0.4-0.1-0.5c-0.1-0.1-0.1-0.3-0.2-0.4s-0.2-0.2-0.3-0.3s-0.2-0.1-0.3-0.2c-0.3-0.1-0.6-0.2-0.9-0.2h-0.1
		c-0.1,0-0.2,0-0.3,0s-0.3,0.1-0.5,0.2s-0.3,0.2-0.5,0.3s-0.3,0.3-0.3,0.6h-1.1c0-0.1,0.1-0.3,0.1-0.4s0.1-0.3,0.2-0.5
		s0.2-0.3,0.4-0.5s0.3-0.3,0.5-0.4s0.4-0.2,0.7-0.3c0.3-0.1,0.6-0.1,0.9-0.1c0.3,0,0.7,0,0.9,0.1s0.5,0.2,0.7,0.3
		c0.2,0.1,0.4,0.3,0.5,0.4c0.1,0.2,0.3,0.3,0.3,0.5c0.2,0.4,0.3,0.8,0.4,1.3V109.5z"/>
	<path id="XMLID_132_" class="st14" d="M52.5,104.6c0,0,0.1,0,0.2,0s0.2,0,0.4,0.1c0.1,0,0.3,0.1,0.5,0.2c0.2,0.1,0.3,0.2,0.4,0.4
		s0.2,0.4,0.3,0.6s0.1,0.5,0.1,0.9v5.2h-1.1v-5.2c0-0.2,0-0.4-0.1-0.5c0-0.1-0.1-0.1-0.1-0.2s-0.1-0.1-0.2-0.2
		c-0.1-0.1-0.1-0.1-0.2-0.1s-0.2,0-0.3,0c-0.2,0-0.3,0-0.5,0.1s-0.2,0.1-0.3,0.1s-0.1,0.1-0.2,0.2s-0.1,0.1-0.1,0.1l-0.8-0.8
		c0.1-0.1,0.3-0.3,0.4-0.4c0.2-0.1,0.3-0.2,0.6-0.3S52.2,104.6,52.5,104.6z"/>
	<path id="XMLID_263_" class="st14" d="M55.9,104.7H57v1.9h2.4c0.1,0,0.2-0.1,0.4-0.1c0.1-0.1,0.2-0.2,0.3-0.3s0.2-0.3,0.2-0.5v-1
		h1.1v1.1c0,0.1,0,0.2,0,0.3s-0.1,0.2-0.1,0.4s-0.1,0.3-0.2,0.4s-0.2,0.2-0.3,0.3c0.1,0.1,0.3,0.3,0.4,0.5c0.1,0.2,0.2,0.3,0.3,0.6
		s0.1,0.5,0.1,0.7v3.2h-1.1v-3.2c0-0.1,0-0.2-0.1-0.3s-0.1-0.2-0.1-0.3c0-0.1-0.1-0.2-0.2-0.3c-0.1-0.1-0.2-0.2-0.3-0.2
		c-0.1-0.1-0.2-0.1-0.4-0.1H57v4.5h-1.1V104.7z"/>
	<path id="XMLID_278_" class="st14" d="M64,104.6c0,0,0.1,0,0.2,0s0.2,0,0.4,0.1c0.1,0,0.3,0.1,0.5,0.2c0.2,0.1,0.3,0.2,0.4,0.4
		s0.2,0.4,0.3,0.6s0.1,0.5,0.1,0.9v5.2h-1.1v-5.2c0-0.2,0-0.4-0.1-0.5c0-0.1-0.1-0.1-0.1-0.2s-0.1-0.1-0.2-0.2
		c-0.1-0.1-0.1-0.1-0.2-0.1s-0.2,0-0.3,0c-0.2,0-0.3,0-0.5,0.1s-0.2,0.1-0.3,0.1s-0.1,0.1-0.2,0.2s-0.1,0.1-0.1,0.1l-0.8-0.8
		c0.1-0.1,0.3-0.3,0.4-0.4c0.2-0.1,0.3-0.2,0.6-0.3S63.7,104.6,64,104.6z"/>
	<path id="XMLID_281_" class="st14" d="M71.6,106.6l-0.5-0.3c-0.1-0.1-0.2-0.1-0.4-0.2c-0.1-0.1-0.3-0.1-0.4-0.2s-0.3-0.1-0.4-0.1
		c-0.1,0-0.2,0-0.3,0c-0.2,0-0.3,0-0.5,0c-0.2,0-0.3,0.1-0.4,0.2c-0.1,0.1-0.2,0.2-0.3,0.3s-0.1,0.3-0.1,0.5s0.1,0.4,0.2,0.5
		s0.3,0.2,0.5,0.3s0.4,0.1,0.7,0.2c0.2,0,0.5,0.1,0.7,0.1c0.2,0,0.5,0.1,0.7,0.2c0.2,0.1,0.4,0.3,0.6,0.4s0.3,0.4,0.4,0.6
		s0.2,0.5,0.2,0.7c0,0.4-0.1,0.7-0.2,1s-0.3,0.5-0.6,0.7s-0.5,0.3-0.8,0.4s-0.7,0.1-1,0.1c-0.5,0-0.9-0.1-1.3-0.2s-0.6-0.2-0.9-0.4
		c-0.3-0.2-0.5-0.3-0.7-0.5l0.7-0.7c0.1,0.1,0.2,0.2,0.3,0.3c0.1,0.1,0.3,0.2,0.5,0.2s0.4,0.1,0.6,0.2s0.4,0.1,0.7,0.1
		c0.2,0,0.4,0,0.6-0.1s0.3-0.1,0.5-0.2s0.2-0.2,0.3-0.4s0.1-0.3,0.1-0.5c0-0.2,0-0.3-0.1-0.4c-0.1-0.1-0.1-0.2-0.2-0.3
		s-0.2-0.1-0.2-0.1s-0.1,0-0.2-0.1c0,0-0.1,0-0.2,0s-0.3,0-0.4-0.1s-0.3-0.1-0.5-0.1s-0.3-0.1-0.4-0.1c-0.1,0-0.1,0-0.2-0.1
		c-0.1,0-0.2-0.1-0.3-0.1s-0.2-0.1-0.4-0.2s-0.2-0.2-0.3-0.4s-0.2-0.3-0.2-0.5c-0.1-0.2-0.1-0.4-0.1-0.7c0-0.4,0.1-0.7,0.2-1
		c0.1-0.3,0.3-0.5,0.6-0.7c0.2-0.2,0.5-0.3,0.8-0.4s0.6-0.1,0.9-0.1c0.3,0,0.6,0,0.8,0.1s0.5,0.1,0.6,0.2c0.2,0.1,0.4,0.2,0.6,0.3
		l0.6,0.4L71.6,106.6z"/>
	<path id="XMLID_283_" class="st15" d="M44.7,126.8v-5.6c0.2-0.3,0.3-0.5,0.5-0.7s0.4-0.4,0.6-0.5s0.4-0.2,0.6-0.3s0.4-0.1,0.5-0.2
		s0.3-0.1,0.4-0.1c0.1,0,0.2,0,0.3,0h0.1c0.4,0,0.7,0.1,0.9,0.1c0.3,0.1,0.5,0.2,0.7,0.3s0.4,0.3,0.5,0.4s0.3,0.3,0.3,0.5
		c0.1,0.2,0.2,0.3,0.2,0.5c0,0.2,0.1,0.3,0.1,0.4s0,0.2,0,0.3c0,0.1,0,0.2,0,0.2v4.5h-1.1v-4.5c0-0.3,0-0.5-0.1-0.7
		s-0.2-0.4-0.3-0.5s-0.3-0.2-0.4-0.3s-0.3-0.1-0.4-0.2c-0.1,0-0.2-0.1-0.3-0.1s-0.2,0-0.2,0c-0.2,0-0.4,0-0.6,0.1
		c-0.2,0.1-0.3,0.1-0.4,0.2s-0.2,0.2-0.3,0.3s-0.2,0.2-0.2,0.3c-0.1,0.3-0.2,0.5-0.2,0.9v4.5H44.7z"/>
	<path id="XMLID_285_" class="st15" d="M52.9,119.4c0,0,0.1,0,0.2,0s0.2,0,0.4,0.1c0.1,0,0.3,0.1,0.5,0.2c0.2,0.1,0.3,0.2,0.4,0.4
		s0.2,0.4,0.3,0.6s0.1,0.5,0.1,0.9v5.2h-1.1v-5.2c0-0.2,0-0.4-0.1-0.5c0-0.1-0.1-0.1-0.1-0.2s-0.1-0.1-0.2-0.2
		c-0.1-0.1-0.1-0.1-0.2-0.1s-0.2,0-0.3,0c-0.2,0-0.3,0-0.5,0.1s-0.2,0.1-0.3,0.1s-0.1,0.1-0.2,0.2s-0.1,0.1-0.1,0.1l-0.8-0.8
		c0.1-0.1,0.3-0.3,0.4-0.4c0.2-0.1,0.3-0.2,0.6-0.3S52.6,119.4,52.9,119.4z"/>
	<path id="XMLID_287_" class="st15" d="M60.5,121.4l-0.5-0.3c-0.1-0.1-0.2-0.1-0.4-0.2c-0.1-0.1-0.3-0.1-0.4-0.2s-0.3-0.1-0.4-0.1
		c-0.1,0-0.2,0-0.3,0c-0.2,0-0.3,0-0.5,0c-0.2,0-0.3,0.1-0.4,0.2c-0.1,0.1-0.2,0.2-0.3,0.3s-0.1,0.3-0.1,0.5s0.1,0.4,0.2,0.5
		s0.3,0.2,0.5,0.3s0.4,0.1,0.7,0.2c0.2,0,0.5,0.1,0.7,0.1c0.2,0,0.5,0.1,0.7,0.2c0.2,0.1,0.4,0.3,0.6,0.4s0.3,0.4,0.4,0.6
		s0.2,0.5,0.2,0.7c0,0.4-0.1,0.7-0.2,1s-0.3,0.5-0.6,0.7s-0.5,0.3-0.8,0.4s-0.7,0.1-1,0.1c-0.5,0-0.9-0.1-1.3-0.2s-0.6-0.2-0.9-0.4
		c-0.3-0.2-0.5-0.3-0.7-0.5l0.7-0.7c0.1,0.1,0.2,0.2,0.3,0.3c0.1,0.1,0.3,0.2,0.5,0.2s0.4,0.1,0.6,0.2s0.4,0.1,0.7,0.1
		c0.2,0,0.4,0,0.6-0.1s0.3-0.1,0.5-0.2s0.2-0.2,0.3-0.4s0.1-0.3,0.1-0.5c0-0.2,0-0.3-0.1-0.4c-0.1-0.1-0.1-0.2-0.2-0.3
		s-0.2-0.1-0.2-0.1s-0.1,0-0.2-0.1c0,0-0.1,0-0.2,0s-0.3,0-0.4-0.1s-0.3-0.1-0.5-0.1s-0.3-0.1-0.4-0.1c-0.1,0-0.1,0-0.2-0.1
		c-0.1,0-0.2-0.1-0.3-0.1s-0.2-0.1-0.4-0.2s-0.2-0.2-0.3-0.4s-0.2-0.3-0.2-0.5c-0.1-0.2-0.1-0.4-0.1-0.7c0-0.4,0.1-0.7,0.2-1
		c0.1-0.3,0.3-0.5,0.6-0.7c0.2-0.2,0.5-0.3,0.8-0.4s0.6-0.1,0.9-0.1c0.3,0,0.6,0,0.8,0.1s0.5,0.1,0.6,0.2c0.2,0.1,0.4,0.2,0.6,0.3
		l0.6,0.4L60.5,121.4z"/>
	<path id="XMLID_289_" class="st15" d="M66.5,120.9c0.2,0.1,0.4,0.2,0.6,0.3c0.1,0.2,0.2,0.3,0.2,0.6v2.6c0,0.4-0.1,0.8-0.2,1
		s-0.3,0.5-0.4,0.7s-0.4,0.3-0.6,0.4s-0.4,0.2-0.6,0.2s-0.4,0.1-0.5,0.1c-0.1,0-0.2,0-0.3,0c-0.4,0-0.8-0.1-1.1-0.2
		c-0.3-0.1-0.5-0.3-0.7-0.4s-0.3-0.4-0.5-0.6s-0.2-0.4-0.2-0.6c-0.1-0.2-0.1-0.4-0.1-0.5s0-0.2,0-0.3c0-0.2,0-0.5,0.1-0.6
		s0.2-0.4,0.3-0.5c0.1-0.2,0.2-0.3,0.3-0.4s0.2-0.2,0.3-0.4s0.2-0.2,0.3-0.3c0.1-0.1,0.1-0.2,0.1-0.3c0,0,0-0.1,0-0.1s0-0.1,0-0.1
		c0-0.2,0-0.3-0.1-0.4s-0.1-0.2-0.2-0.3s-0.2-0.1-0.3-0.2s-0.2-0.1-0.3-0.1c-0.1,0-0.2,0-0.3,0s-0.2,0-0.2,0h-0.1v-1h0.6
		c0.3,0,0.5,0,0.8,0.1c0.2,0.1,0.4,0.2,0.5,0.3c0.1,0.1,0.3,0.3,0.3,0.4s0.1,0.3,0.2,0.5s0.1,0.3,0.1,0.4s0,0.2,0,0.3c0,0,0,0,0,0.1
		s0,0,0,0v0c0,0.1,0,0.3-0.1,0.4s-0.1,0.2-0.2,0.3c-0.1,0.1-0.2,0.2-0.2,0.3c-0.2,0.2-0.4,0.4-0.5,0.6s-0.2,0.3-0.3,0.5
		s-0.1,0.2-0.1,0.3s0,0.1,0,0.2c0,0.3,0,0.5,0.1,0.6s0.1,0.3,0.2,0.4c0.1,0.1,0.2,0.2,0.3,0.3c0.1,0.1,0.2,0.1,0.3,0.1s0.2,0,0.3,0
		s0.1,0,0.2,0c0.2,0,0.4,0,0.6-0.1s0.3-0.2,0.4-0.3s0.2-0.2,0.3-0.3s0.1-0.2,0.2-0.3c0-0.1,0.1-0.2,0.1-0.3s0-0.1,0-0.2v-2.3
		c0-0.5-0.3-0.7-1-0.7h-0.4v-0.8h0.4c0.3,0,0.6-0.1,0.7-0.2s0.2-0.4,0.2-0.6v-0.2h1.1v0.4C67.3,120.4,67.1,120.8,66.5,120.9z"/>
	<path id="XMLID_291_" class="st15" d="M66.6,116.5v2.1h-1v-2.1H66.6z"/>
	<path id="XMLID_293_" class="st15" d="M70.9,119.4c0.1,0,0.2,0,0.3,0c0.1,0,0.3,0,0.5,0.1s0.4,0.1,0.6,0.2s0.4,0.3,0.5,0.4
		c0.2,0.2,0.3,0.4,0.4,0.7c0.1,0.3,0.2,0.6,0.2,1v2.4c0,0.5-0.1,0.9-0.3,1.3c-0.1,0.2-0.2,0.3-0.3,0.5c-0.1,0.2-0.3,0.3-0.4,0.4
		c-0.2,0.1-0.4,0.2-0.6,0.3s-0.5,0.1-0.8,0.1c-0.3,0-0.6,0-0.8-0.1c-0.2-0.1-0.4-0.2-0.6-0.3s-0.3-0.3-0.4-0.4
		c-0.1-0.2-0.2-0.3-0.3-0.5c0,0,0.1-0.1,0.2-0.1s0.2-0.1,0.3-0.2c0.1-0.1,0.2-0.1,0.3-0.2s0.1-0.1,0.2-0.1c0.1,0.2,0.2,0.4,0.3,0.5
		c0.1,0.1,0.3,0.2,0.4,0.2c0.2,0.1,0.3,0.1,0.5,0.1c0.3,0,0.5-0.1,0.7-0.2c0.1-0.1,0.2-0.1,0.3-0.2s0.2-0.2,0.2-0.3
		c0.1-0.1,0.1-0.2,0.2-0.3s0.1-0.3,0.1-0.5V122c0-0.3-0.1-0.5-0.2-0.7c0-0.1-0.1-0.2-0.2-0.3s-0.1-0.2-0.2-0.2s-0.2-0.1-0.3-0.2
		c-0.1,0-0.3-0.1-0.4-0.1c-0.2,0-0.4,0-0.6,0.1s-0.3,0.1-0.4,0.2s-0.2,0.2-0.3,0.4c-0.1,0.1-0.2,0.3-0.3,0.5h-1.1
		c0-0.3,0.1-0.6,0.2-0.9s0.3-0.5,0.5-0.7s0.5-0.3,0.8-0.5S70.5,119.4,70.9,119.4L70.9,119.4L70.9,119.4z"/>
	<path id="XMLID_295_" class="st15" d="M80.2,119.5v5.3c0,0.3,0,0.6-0.1,0.8c-0.1,0.2-0.2,0.4-0.3,0.6c-0.1,0.2-0.3,0.3-0.5,0.4
		c-0.2,0.1-0.3,0.2-0.5,0.2c-0.2,0-0.3,0.1-0.4,0.1c-0.1,0-0.2,0-0.3,0h-1.4c-0.4,0-0.7,0-0.9-0.1c-0.3-0.1-0.5-0.2-0.6-0.3
		c-0.2-0.1-0.3-0.3-0.4-0.4s-0.2-0.3-0.2-0.4s-0.1-0.3-0.1-0.4s0-0.2,0-0.3c0-0.3,0.1-0.5,0.2-0.7c0.1-0.2,0.2-0.4,0.4-0.5
		s0.3-0.2,0.4-0.3c0.1-0.1,0.2-0.1,0.2-0.1c-0.1,0-0.3-0.1-0.4-0.1s-0.2-0.1-0.3-0.2s-0.2-0.2-0.2-0.3s-0.1-0.2-0.1-0.3
		c-0.1-0.2-0.1-0.5-0.2-0.7c0-0.3,0-0.5,0.1-0.7c0-0.2,0.1-0.4,0.2-0.5s0.2-0.3,0.3-0.4s0.2-0.2,0.3-0.3c0.3-0.2,0.6-0.2,0.9-0.3
		h1.5v1h-0.9c-0.2,0-0.3,0-0.4,0s-0.2,0.1-0.3,0.1s-0.2,0.1-0.2,0.2s-0.1,0.1-0.2,0.2c-0.1,0.2-0.1,0.3-0.2,0.5c0,0.2,0,0.3,0.1,0.5
		c0.1,0.1,0.1,0.2,0.2,0.3c0.1,0.1,0.2,0.1,0.3,0.2s0.2,0.1,0.3,0.1s0.2,0,0.2,0s0.1,0,0.1,0h0.9v1h-0.9c-0.2,0-0.4,0-0.5,0.1
		s-0.2,0.1-0.3,0.2c-0.1,0.1-0.2,0.1-0.2,0.2s-0.1,0.2-0.1,0.2c0,0.1,0,0.1,0,0.2c0,0.1,0,0.1,0,0.1c0,0.2,0,0.3,0.1,0.5
		c0,0.1,0.1,0.2,0.2,0.3c0.1,0.1,0.2,0.1,0.3,0.2s0.2,0.1,0.3,0.1c0.1,0,0.2,0,0.2,0s0.1,0,0.1,0h0H78c0.3,0,0.5-0.1,0.6-0.2
		c0.1-0.1,0.3-0.2,0.3-0.4c0.1-0.2,0.1-0.3,0.2-0.5v-5.3H80.2z"/>
	<path id="XMLID_297_" class="st15" d="M82.8,126.8h-1.1v-7.3h1.1V126.8z"/>
	<path id="XMLID_312_" class="st15" d="M84.2,119.5h1.1v1.9h2.4c0.1,0,0.2-0.1,0.4-0.1c0.1-0.1,0.2-0.2,0.3-0.3s0.2-0.3,0.2-0.5v-1
		h1.1v1.1c0,0.1,0,0.2,0,0.3s-0.1,0.2-0.1,0.4s-0.1,0.3-0.2,0.4s-0.2,0.2-0.3,0.3c0.1,0.1,0.3,0.3,0.4,0.5c0.1,0.2,0.2,0.3,0.3,0.6
		s0.1,0.5,0.1,0.7v3.2h-1.1v-3.2c0-0.1,0-0.2-0.1-0.3s-0.1-0.2-0.1-0.3c0-0.1-0.1-0.2-0.2-0.3c-0.1-0.1-0.2-0.2-0.3-0.2
		c-0.1-0.1-0.2-0.1-0.4-0.1h-2.4v4.5h-1.1V119.5z"/>
	<path id="XMLID_314_" class="st15" d="M94.9,119.6c0.3,0.1,0.6,0.3,0.8,0.5s0.4,0.4,0.5,0.6s0.2,0.4,0.3,0.7s0.1,0.4,0.1,0.6
		s0,0.3,0,0.4v0.1v4.5h-1.1v-2.2c0-0.2,0-0.4-0.1-0.5s-0.2-0.3-0.4-0.4s-0.3-0.2-0.5-0.2s-0.3-0.1-0.5-0.1s-0.3,0-0.5-0.1
		c0,0-0.1,0-0.1,0s-0.2,0-0.3,0s-0.2,0.1-0.4,0.1c-0.1,0-0.2,0.1-0.4,0.2s-0.2,0.2-0.3,0.3s-0.2,0.3-0.2,0.5c0,0.1,0,0.1,0,0.2
		c0,0.2,0,0.3,0.1,0.4c0.1,0.1,0.2,0.2,0.3,0.3c0.1,0.1,0.3,0.1,0.4,0.2s0.3,0.1,0.4,0.1s0.3,0,0.4,0c0.1,0,0.2,0,0.3,0h0.1v1h-1.2
		c-0.3,0-0.5-0.1-0.7-0.2s-0.4-0.3-0.6-0.4c-0.2-0.2-0.3-0.4-0.4-0.7s-0.1-0.5-0.1-0.8c0-0.3,0.1-0.5,0.2-0.8s0.3-0.5,0.6-0.8
		c0.2-0.2,0.3-0.3,0.5-0.4s0.4-0.2,0.5-0.3s0.4-0.1,0.5-0.1c0.2,0,0.3,0,0.5,0c0.3,0,0.5,0,0.7,0.1s0.4,0.1,0.6,0.2
		c0.2,0.1,0.4,0.1,0.5,0.2v-0.4c0-0.2,0-0.4-0.1-0.6c-0.1-0.2-0.1-0.3-0.2-0.5S95.1,121,95,121s-0.2-0.2-0.3-0.2
		c-0.3-0.1-0.6-0.2-0.9-0.2c-0.3,0-0.5,0.1-0.8,0.2s-0.4,0.2-0.5,0.4c-0.1,0.2-0.2,0.3-0.3,0.5s-0.1,0.3-0.2,0.4h-1.1
		c0-0.4,0.1-0.7,0.2-1s0.3-0.5,0.5-0.7s0.4-0.3,0.6-0.4c0.2-0.1,0.4-0.2,0.6-0.2s0.4-0.1,0.5-0.1s0.3,0,0.3,0h0.1
		C94.2,119.4,94.6,119.5,94.9,119.6z"/>
	<path id="XMLID_316_" class="st15" d="M96.2,116.8v1.8h-4.5v-1h1.8v-0.8h1v0.8h0.6v-0.8H96.2z"/>
	<path id="XMLID_318_" class="st15" d="M103.4,124.3c0,0.5-0.2,0.9-0.4,1.3c-0.1,0.2-0.2,0.3-0.3,0.5c-0.1,0.2-0.3,0.3-0.5,0.4
		c-0.2,0.1-0.4,0.2-0.7,0.3s-0.6,0.1-0.9,0.1c-0.4,0-0.7,0-0.9-0.1s-0.5-0.2-0.7-0.3c-0.2-0.1-0.4-0.3-0.5-0.4s-0.3-0.3-0.3-0.5
		c-0.2-0.4-0.3-0.8-0.4-1.3v-1.5h2.1v1h-1v0.5c0,0.2,0,0.4,0.1,0.5c0,0.2,0.1,0.3,0.2,0.4s0.2,0.2,0.3,0.3s0.2,0.1,0.3,0.2
		c0.3,0.1,0.6,0.2,0.9,0.2c0.3,0,0.6-0.1,0.9-0.2c0.1-0.1,0.2-0.1,0.3-0.2s0.2-0.2,0.3-0.3s0.2-0.2,0.2-0.4c0-0.2,0.1-0.3,0.1-0.5
		v-2.2c0-0.2,0-0.4-0.1-0.5c-0.1-0.1-0.1-0.3-0.2-0.4s-0.2-0.2-0.3-0.3s-0.2-0.1-0.3-0.2c-0.3-0.1-0.6-0.2-0.9-0.2h-0.1
		c-0.1,0-0.2,0-0.3,0s-0.3,0.1-0.5,0.2s-0.3,0.2-0.5,0.3s-0.3,0.3-0.3,0.6h-1.1c0-0.1,0.1-0.3,0.1-0.4s0.1-0.3,0.2-0.5
		s0.2-0.3,0.4-0.5s0.3-0.3,0.5-0.4s0.4-0.2,0.7-0.3c0.3-0.1,0.6-0.1,0.9-0.1c0.3,0,0.7,0,0.9,0.1s0.5,0.2,0.7,0.3
		c0.2,0.1,0.4,0.3,0.5,0.4c0.1,0.2,0.3,0.3,0.3,0.5c0.2,0.4,0.3,0.8,0.4,1.3V124.3z"/>
	<path id="XMLID_320_" class="st15" d="M105.5,126.8h-1.1v-7.3h1.1V126.8z M107.8,126.8h-1.1v-7.3h1.1V126.8z"/>
	<path id="XMLID_323_" class="st15" d="M112.9,119.6c0.3,0.1,0.6,0.3,0.8,0.5s0.4,0.4,0.5,0.6s0.2,0.4,0.3,0.7s0.1,0.4,0.1,0.6
		s0,0.3,0,0.4v0.1v4.5h-1.1v-2.2c0-0.2,0-0.4-0.1-0.5s-0.2-0.3-0.4-0.4s-0.3-0.2-0.5-0.2s-0.3-0.1-0.5-0.1s-0.3,0-0.5-0.1
		c0,0-0.1,0-0.1,0s-0.2,0-0.3,0s-0.2,0.1-0.4,0.1c-0.1,0-0.2,0.1-0.4,0.2s-0.2,0.2-0.3,0.3s-0.2,0.3-0.2,0.5c0,0.1,0,0.1,0,0.2
		c0,0.2,0,0.3,0.1,0.4c0.1,0.1,0.2,0.2,0.3,0.3c0.1,0.1,0.3,0.1,0.4,0.2s0.3,0.1,0.4,0.1s0.3,0,0.4,0c0.1,0,0.2,0,0.3,0h0.1v1h-1.2
		c-0.3,0-0.5-0.1-0.7-0.2s-0.4-0.3-0.6-0.4c-0.2-0.2-0.3-0.4-0.4-0.7s-0.1-0.5-0.1-0.8c0-0.3,0.1-0.5,0.2-0.8s0.3-0.5,0.6-0.8
		c0.2-0.2,0.3-0.3,0.5-0.4s0.4-0.2,0.5-0.3s0.4-0.1,0.5-0.1c0.2,0,0.3,0,0.5,0c0.3,0,0.5,0,0.7,0.1s0.4,0.1,0.6,0.2
		c0.2,0.1,0.4,0.1,0.5,0.2v-0.4c0-0.2,0-0.4-0.1-0.6c-0.1-0.2-0.1-0.3-0.2-0.5s-0.2-0.2-0.3-0.3s-0.2-0.2-0.3-0.2
		c-0.3-0.1-0.6-0.2-0.9-0.2c-0.3,0-0.5,0.1-0.8,0.2s-0.4,0.2-0.5,0.4c-0.1,0.2-0.2,0.3-0.3,0.5s-0.1,0.3-0.2,0.4h-1.1
		c0-0.4,0.1-0.7,0.2-1s0.3-0.5,0.5-0.7s0.4-0.3,0.6-0.4c0.2-0.1,0.4-0.2,0.6-0.2s0.4-0.1,0.5-0.1s0.3,0,0.3,0h0.1
		C112.2,119.4,112.6,119.5,112.9,119.6z"/>
	<path id="XMLID_325_" class="st15" d="M116.5,120.1v0.5h1.9v1h-2.5c-0.1,0-0.2,0-0.3-0.1c-0.1,0-0.1-0.1-0.1-0.2
		c0-0.1-0.1-0.2-0.1-0.2v-1.1H116.5z M116.5,124.6v0.5h1.9v1h-2.5c-0.1,0-0.2,0-0.3-0.1c-0.1,0-0.1-0.1-0.1-0.2
		c0-0.1-0.1-0.2-0.1-0.2v-1.1H116.5z"/>
	<path id="XMLID_328_" class="st15" d="M49.4,141.6V137c0-0.3-0.1-0.6-0.2-0.8c-0.1-0.1-0.1-0.2-0.2-0.3c-0.1-0.1-0.2-0.2-0.3-0.3
		c-0.1-0.1-0.3-0.1-0.5-0.2s-0.4-0.1-0.6-0.1s-0.4,0-0.6,0.1s-0.3,0.1-0.5,0.2s-0.2,0.2-0.3,0.3c-0.1,0.1-0.2,0.2-0.2,0.3
		c-0.1,0.2-0.2,0.5-0.2,0.8v2.4c0,0.2,0.1,0.3,0.1,0.4c0,0.1,0.1,0.2,0.2,0.4s0.2,0.2,0.3,0.3c0.2,0.1,0.3,0.2,0.4,0.2
		c0.1,0,0.3,0,0.4-0.1c0.1-0.1,0.2-0.1,0.3-0.2l0.7,0.7c-0.1,0.1-0.2,0.2-0.4,0.3c-0.1,0.1-0.3,0.1-0.4,0.2s-0.4,0.1-0.6,0.1
		c-0.1,0-0.1,0-0.2,0s-0.1,0-0.2,0c-0.3-0.1-0.5-0.2-0.7-0.3s-0.4-0.3-0.5-0.5s-0.2-0.4-0.3-0.7s-0.1-0.5-0.1-0.7V137
		c0-0.4,0.1-0.8,0.3-1.1s0.3-0.6,0.5-0.8c0.2-0.2,0.4-0.4,0.6-0.5c0.2-0.1,0.4-0.2,0.6-0.3c0.2-0.1,0.4-0.1,0.5-0.1
		c0.2,0,0.3,0,0.4,0h0.1h0.1c0.1,0,0.2,0,0.4,0c0.2,0,0.3,0.1,0.5,0.1c0.2,0.1,0.4,0.1,0.6,0.3s0.4,0.3,0.6,0.5
		c0.2,0.2,0.3,0.5,0.5,0.8s0.2,0.7,0.3,1.1v4.6H49.4z"/>
	<path id="XMLID_330_" class="st15" d="M50.2,142.2v1.9c0,0.1,0,0.2-0.1,0.3c-0.1,0.1-0.2,0.1-0.3,0.1h-1.4c-0.1,0-0.2,0-0.3-0.1
		c-0.1-0.1-0.1-0.2-0.1-0.3v-1h-0.4v-0.9h0.9c0.1,0,0.2,0,0.3,0.1c0.1,0,0.1,0.1,0.1,0.1s0,0.1,0,0.2v1h0.6v-1.4H50.2z"/>
	<path id="XMLID_332_" class="st15" d="M52.9,141.6h-1.1v-7.3h1.1V141.6z M55.2,141.6h-1.1v-7.3h1.1V141.6z"/>
	<path id="XMLID_335_" class="st15" d="M60.3,134.4c0.3,0.1,0.6,0.3,0.8,0.5s0.4,0.4,0.5,0.6s0.2,0.4,0.3,0.7s0.1,0.4,0.1,0.6
		s0,0.3,0,0.4v0.1v4.5h-1.1v-2.2c0-0.2,0-0.4-0.1-0.5s-0.2-0.3-0.4-0.4s-0.3-0.2-0.5-0.2s-0.3-0.1-0.5-0.1s-0.3,0-0.5-0.1
		c0,0-0.1,0-0.1,0s-0.2,0-0.3,0s-0.2,0.1-0.4,0.1c-0.1,0-0.2,0.1-0.4,0.2s-0.2,0.2-0.3,0.3s-0.2,0.3-0.2,0.5c0,0.1,0,0.1,0,0.2
		c0,0.2,0,0.3,0.1,0.4c0.1,0.1,0.2,0.2,0.3,0.3c0.1,0.1,0.3,0.1,0.4,0.2s0.3,0.1,0.4,0.1s0.3,0,0.4,0c0.1,0,0.2,0,0.3,0h0.1v1h-1.2
		c-0.3,0-0.5-0.1-0.7-0.2s-0.4-0.3-0.6-0.4c-0.2-0.2-0.3-0.4-0.4-0.7s-0.1-0.5-0.1-0.8c0-0.3,0.1-0.5,0.2-0.8s0.3-0.5,0.6-0.8
		c0.2-0.2,0.3-0.3,0.5-0.4s0.4-0.2,0.5-0.3s0.4-0.1,0.5-0.1c0.2,0,0.3,0,0.5,0c0.3,0,0.5,0,0.7,0.1s0.4,0.1,0.6,0.2
		c0.2,0.1,0.4,0.1,0.5,0.2v-0.4c0-0.2,0-0.4-0.1-0.6c-0.1-0.2-0.1-0.3-0.2-0.5s-0.2-0.2-0.3-0.3s-0.2-0.2-0.3-0.2
		c-0.3-0.1-0.6-0.2-0.9-0.2c-0.3,0-0.5,0.1-0.8,0.2s-0.4,0.2-0.5,0.4c-0.1,0.2-0.2,0.3-0.3,0.5s-0.1,0.3-0.2,0.4h-1.1
		c0-0.4,0.1-0.7,0.2-1s0.3-0.5,0.5-0.7s0.4-0.3,0.6-0.4c0.2-0.1,0.4-0.2,0.6-0.2s0.4-0.1,0.5-0.1s0.3,0,0.3,0h0.1
		C59.6,134.2,59.9,134.3,60.3,134.4z"/>
	<path id="XMLID_337_" class="st15" d="M67.7,135.7c0.5,0.1,0.8,0.4,0.8,0.9v2.6c0,0.4-0.1,0.8-0.2,1s-0.3,0.5-0.4,0.7
		s-0.4,0.3-0.6,0.4s-0.4,0.2-0.6,0.2s-0.4,0.1-0.5,0.1c-0.1,0-0.2,0-0.3,0c-0.4,0-0.8-0.1-1.1-0.2s-0.5-0.3-0.7-0.4
		c-0.2-0.2-0.3-0.4-0.5-0.6s-0.2-0.4-0.2-0.6c-0.1-0.2-0.1-0.4-0.1-0.5s0-0.2,0-0.3c0-0.2,0-0.5,0.1-0.6s0.2-0.4,0.3-0.5
		c0.1-0.2,0.2-0.3,0.3-0.4c0.1-0.1,0.2-0.2,0.3-0.4s0.2-0.2,0.3-0.3c0.1-0.1,0.1-0.2,0.1-0.3c0,0,0-0.1,0-0.1s0-0.1,0-0.1
		c0-0.1,0-0.2,0-0.3c0-0.1-0.1-0.2-0.1-0.2l-0.5,0.5l-1.3-1.4l0.7-0.7l0.6,0.6l0.6-0.6l0.7,0.7c0.1,0.1,0.2,0.2,0.2,0.3
		c0,0.1,0.1,0.3,0.1,0.4s0,0.3,0,0.4c0,0.1,0,0.2,0,0.3v0.1c0,0.1-0.1,0.3-0.1,0.4s-0.1,0.2-0.2,0.3c-0.1,0.1-0.2,0.2-0.2,0.3
		c-0.2,0.2-0.4,0.4-0.5,0.6s-0.2,0.3-0.3,0.5s-0.1,0.2-0.1,0.3s0,0.1,0,0.2c0,0.2,0,0.5,0.1,0.6s0.1,0.3,0.2,0.4
		c0.1,0.1,0.2,0.2,0.3,0.3s0.2,0.1,0.3,0.1s0.2,0,0.3,0s0.1,0,0.2,0c0.2,0,0.4,0,0.6-0.1s0.3-0.1,0.4-0.2s0.2-0.2,0.3-0.3
		s0.1-0.2,0.2-0.3c0-0.1,0.1-0.2,0.1-0.3s0-0.1,0-0.2v-2.3c0-0.5-0.3-0.7-1-0.7H66v-0.8h0.4c0.3,0,0.6-0.1,0.7-0.2s0.2-0.4,0.2-0.6
		v-0.2h1.1v0.4C68.5,135.3,68.2,135.6,67.7,135.7z"/>
	<path id="XMLID_339_" class="st15" d="M67.2,130.8c0.2,0,0.3,0,0.5,0.1c0.2,0.1,0.3,0.2,0.4,0.3s0.2,0.3,0.3,0.4s0.1,0.3,0.1,0.5
		c0,0.2,0,0.3-0.1,0.5s-0.2,0.3-0.3,0.4s-0.3,0.2-0.4,0.3c-0.2,0.1-0.3,0.1-0.5,0.1h-4.2v-1h3c0,0,0-0.1,0-0.1c0,0,0-0.1,0-0.1
		c0-0.2,0-0.3,0.1-0.5s0.2-0.3,0.3-0.4s0.3-0.2,0.4-0.3S67,130.8,67.2,130.8z M67.2,132.5c0.1,0,0.2,0,0.3-0.1s0.1-0.2,0.1-0.3
		s0-0.2-0.1-0.3s-0.2-0.1-0.3-0.1c-0.1,0-0.2,0-0.3,0.1s-0.1,0.2-0.1,0.3s0,0.2,0.1,0.3S67.1,132.5,67.2,132.5z"/>
	<path id="XMLID_342_" class="st15" d="M68,128.5v2.1h-1v-2.1H68z"/>
	<path id="XMLID_344_" class="st15" d="M71,134.3h2.1v5.3c0,0.4,0,0.6-0.1,0.9s-0.2,0.4-0.3,0.6s-0.3,0.3-0.4,0.4s-0.3,0.2-0.5,0.2
		c-0.1,0-0.3,0.1-0.4,0.1s-0.2,0-0.2,0c-0.3,0-0.6,0-0.8-0.1c-0.2-0.1-0.4-0.2-0.6-0.3c-0.2-0.1-0.3-0.3-0.4-0.4l0.7-0.7
		c0,0,0.1,0.1,0.1,0.1s0.1,0.1,0.2,0.2s0.2,0.1,0.3,0.1s0.3,0.1,0.4,0.1c0.1,0,0.2,0,0.3,0s0.2-0.1,0.2-0.1s0.1-0.1,0.2-0.2
		s0.1-0.1,0.1-0.2c0.1-0.2,0.1-0.4,0.1-0.6v-4.3h-1V134.3z"/>
	<path id="XMLID_346_" class="st15" d="M74.4,141.6V136c0.2-0.3,0.3-0.5,0.5-0.7s0.4-0.4,0.6-0.5s0.4-0.2,0.6-0.3s0.4-0.1,0.5-0.2
		s0.3-0.1,0.4-0.1c0.1,0,0.2,0,0.3,0h0.1c0.4,0,0.7,0.1,0.9,0.1c0.3,0.1,0.5,0.2,0.7,0.3s0.4,0.3,0.5,0.4s0.3,0.3,0.3,0.5
		c0.1,0.2,0.2,0.3,0.2,0.5c0,0.2,0.1,0.3,0.1,0.4s0,0.2,0,0.3c0,0.1,0,0.2,0,0.2v4.5h-1.1v-4.5c0-0.3,0-0.5-0.1-0.7
		s-0.2-0.4-0.3-0.5s-0.3-0.2-0.4-0.3s-0.3-0.1-0.4-0.2c-0.1,0-0.2-0.1-0.3-0.1s-0.2,0-0.2,0c-0.2,0-0.4,0-0.6,0.1
		c-0.2,0.1-0.3,0.1-0.4,0.2s-0.2,0.2-0.3,0.3s-0.2,0.2-0.2,0.3c-0.1,0.3-0.2,0.5-0.2,0.9v4.5H74.4z"/>
	<path id="XMLID_348_" class="st15" d="M77.9,131.8v0.5h2.7v1h-3.3c-0.1,0-0.2,0-0.3-0.1c-0.1,0-0.1-0.1-0.1-0.2
		c0-0.1-0.1-0.2-0.1-0.2v-1.1H77.9z"/>
	<path id="XMLID_350_" class="st15" d="M82.6,134.3v4.6c0,0.3,0,0.6,0.1,0.8s0.2,0.4,0.3,0.5s0.3,0.2,0.4,0.3
		c0.1,0.1,0.3,0.1,0.4,0.2c0.1,0,0.2,0.1,0.3,0.1s0.2,0,0.2,0c0.3,0,0.5,0,0.7-0.1c0.2-0.1,0.4-0.2,0.5-0.3c0.1-0.1,0.2-0.3,0.3-0.4
		s0.1-0.3,0.2-0.4s0.1-0.3,0.1-0.4s0-0.2,0-0.2v-4.6h1.1v7.3h-1.1v-1c0,0.1,0,0.3-0.1,0.4s-0.1,0.2-0.2,0.3s-0.2,0.1-0.3,0.2
		s-0.2,0.1-0.3,0.1c-0.3,0.1-0.5,0.1-0.8,0.2h-0.3c-0.4,0-0.8-0.1-1.1-0.2s-0.5-0.3-0.7-0.4s-0.3-0.4-0.5-0.6s-0.2-0.4-0.2-0.6
		s-0.1-0.4-0.1-0.6s0-0.3,0-0.4v-0.1v-4.6H82.6z"/>
	<path id="XMLID_352_" class="st15" d="M89.7,141.6h-1.1v-7.3h1.1V141.6z M92,141.6h-1.1v-7.3H92V141.6z"/>
	<path id="XMLID_355_" class="st15" d="M97.1,134.4c0.3,0.1,0.6,0.3,0.8,0.5s0.4,0.4,0.5,0.6s0.2,0.4,0.3,0.7s0.1,0.4,0.1,0.6
		s0,0.3,0,0.4v0.1v4.5h-1.1v-2.2c0-0.2,0-0.4-0.1-0.5s-0.2-0.3-0.4-0.4s-0.3-0.2-0.5-0.2s-0.3-0.1-0.5-0.1s-0.3,0-0.5-0.1
		c0,0-0.1,0-0.1,0s-0.2,0-0.3,0s-0.2,0.1-0.4,0.1c-0.1,0-0.2,0.1-0.4,0.2s-0.2,0.2-0.3,0.3s-0.2,0.3-0.2,0.5c0,0.1,0,0.1,0,0.2
		c0,0.2,0,0.3,0.1,0.4c0.1,0.1,0.2,0.2,0.3,0.3c0.1,0.1,0.3,0.1,0.4,0.2s0.3,0.1,0.4,0.1s0.3,0,0.4,0c0.1,0,0.2,0,0.3,0h0.1v1h-1.2
		c-0.3,0-0.5-0.1-0.7-0.2s-0.4-0.3-0.6-0.4c-0.2-0.2-0.3-0.4-0.4-0.7s-0.1-0.5-0.1-0.8c0-0.3,0.1-0.5,0.2-0.8s0.3-0.5,0.6-0.8
		c0.2-0.2,0.3-0.3,0.5-0.4s0.4-0.2,0.5-0.3s0.4-0.1,0.5-0.1c0.2,0,0.3,0,0.5,0c0.3,0,0.5,0,0.7,0.1s0.4,0.1,0.6,0.2
		c0.2,0.1,0.4,0.1,0.5,0.2v-0.4c0-0.2,0-0.4-0.1-0.6c-0.1-0.2-0.1-0.3-0.2-0.5s-0.2-0.2-0.3-0.3s-0.2-0.2-0.3-0.2
		c-0.3-0.1-0.6-0.2-0.9-0.2c-0.3,0-0.5,0.1-0.8,0.2s-0.4,0.2-0.5,0.4c-0.1,0.2-0.2,0.3-0.3,0.5s-0.1,0.3-0.2,0.4H93
		c0-0.4,0.1-0.7,0.2-1s0.3-0.5,0.5-0.7s0.4-0.3,0.6-0.4c0.2-0.1,0.4-0.2,0.6-0.2s0.4-0.1,0.5-0.1s0.3,0,0.3,0h0.1
		C96.4,134.2,96.7,134.3,97.1,134.4z"/>
	<path id="XMLID_357_" class="st15" d="M100.7,134.9v0.5h1.9v1h-2.5c-0.1,0-0.2,0-0.3-0.1c-0.1,0-0.1-0.1-0.1-0.2
		c0-0.1-0.1-0.2-0.1-0.2v-1.1H100.7z M100.7,139.4v0.5h1.9v1h-2.5c-0.1,0-0.2,0-0.3-0.1c-0.1,0-0.1-0.1-0.1-0.2
		c0-0.1-0.1-0.2-0.1-0.2v-1.1H100.7z"/>
	<path id="XMLID_360_" class="st15" d="M103.7,141.6V136c0.2-0.3,0.3-0.5,0.5-0.7s0.4-0.4,0.6-0.5s0.4-0.2,0.6-0.3s0.4-0.1,0.5-0.2
		s0.3-0.1,0.4-0.1c0.1,0,0.2,0,0.3,0h0.1c0.4,0,0.7,0.1,0.9,0.1c0.3,0.1,0.5,0.2,0.7,0.3s0.4,0.3,0.5,0.4s0.3,0.3,0.3,0.5
		c0.1,0.2,0.2,0.3,0.2,0.5c0,0.2,0.1,0.3,0.1,0.4s0,0.2,0,0.3c0,0.1,0,0.2,0,0.2v4.5h-1.1v-4.5c0-0.3,0-0.5-0.1-0.7
		s-0.2-0.4-0.3-0.5s-0.3-0.2-0.4-0.3s-0.3-0.1-0.4-0.2c-0.1,0-0.2-0.1-0.3-0.1s-0.2,0-0.2,0c-0.2,0-0.4,0-0.6,0.1
		c-0.2,0.1-0.3,0.1-0.4,0.2s-0.2,0.2-0.3,0.3s-0.2,0.2-0.2,0.3c-0.1,0.3-0.2,0.5-0.2,0.9v4.5H103.7z"/>
	<path id="XMLID_362_" class="st15" d="M107.2,131.8v0.5h2.7v1h-3.3c-0.1,0-0.2,0-0.3-0.1c-0.1,0-0.1-0.1-0.1-0.2
		c0-0.1-0.1-0.2-0.1-0.2v-1.1H107.2z"/>
	<path id="XMLID_364_" class="st15" d="M111.9,134.3v4.6c0,0.3,0,0.6,0.1,0.8s0.2,0.4,0.3,0.5s0.3,0.2,0.4,0.3
		c0.1,0.1,0.3,0.1,0.4,0.2c0.1,0,0.2,0.1,0.3,0.1s0.2,0,0.2,0c0.3,0,0.5,0,0.7-0.1c0.2-0.1,0.4-0.2,0.5-0.3c0.1-0.1,0.2-0.3,0.3-0.4
		s0.1-0.3,0.2-0.4s0.1-0.3,0.1-0.4s0-0.2,0-0.2v-4.6h1.1v7.3h-1.1v-1c0,0.1,0,0.3-0.1,0.4s-0.1,0.2-0.2,0.3s-0.2,0.1-0.3,0.2
		s-0.2,0.1-0.3,0.1c-0.3,0.1-0.5,0.1-0.8,0.2h-0.3c-0.4,0-0.8-0.1-1.1-0.2s-0.5-0.3-0.7-0.4s-0.3-0.4-0.5-0.6s-0.2-0.4-0.2-0.6
		s-0.1-0.4-0.1-0.6s0-0.3,0-0.4v-0.1v-4.6H111.9z"/>
</g>
</svg>
