<?xml version="1.0" encoding="utf-8"?>
<!-- Generator: Adobe Illustrator 19.0.0, SVG Export Plug-In . SVG Version: 6.00 Build 0)  -->
<svg version="1.1" id="Layer_1" xmlns="http://www.w3.org/2000/svg" xmlns:xlink="http://www.w3.org/1999/xlink" x="0px" y="0px"
	 viewBox="0 0 166 174.4" style="enable-background:new 0 0 166 174.4;" xml:space="preserve">
<style type="text/css">
	.st0{fill:#ADD6DD;}
	.st1{fill:#A0813C;}
	.st2{fill:#7D6537;}
	.st3{fill:#216676;}
	.st4{fill:#FFFFFF;}
	.st5{fill:#404040;}
	.st6{fill:#D3AC5B;}
	.st7{fill:#E5E5DF;}
	.st8{fill:#AAA99B;}
	.st9{fill:#9B9B92;}
	.st10{fill:#CD202B;}
	.st11{fill:#404040;stroke:#404040;stroke-width:0.5;stroke-miterlimit:10;}
</style>
<rect id="XMLID_2495_" x="16.8" y="0" class="st0" width="149.2" height="167"/>
<rect id="XMLID_2525_" x="16.8" y="68.4" class="st1" width="149" height="20.3"/>
<rect id="XMLID_2524_" x="16.8" y="39.7" class="st2" width="149" height="28.8"/>
<rect id="XMLID_2521_" x="16.8" y="28.8" class="st3" width="149" height="23.3"/>
<polygon id="XMLID_7202_" class="st4" points="19.2,174.1 19.2,155.1 0,174.3 "/>
<rect id="XMLID_7201_" x="16.8" y="79.2" class="st4" width="149.2" height="95.2"/>
<g id="XMLID_9307_">
	<circle id="XMLID_9308_" class="st5" cx="91.8" cy="36.1" r="9.1"/>
	<rect id="XMLID_2516_" x="82.6" y="36.2" class="st5" width="18.3" height="35"/>
	<rect id="XMLID_2507_" x="88.9" y="13.6" class="st5" width="5.8" height="35.9"/>
	<path id="XMLID_2506_" class="st5" d="M94.8,15.1h-6.1c-0.6,0-1-0.5-1-1v-0.2c0-0.6,0.5-1,1-1h6.1c0.6,0,1,0.5,1,1v0.2
		C95.9,14.7,95.4,15.1,94.8,15.1z"/>
	<path id="XMLID_2502_" class="st6" d="M93.2,12.9h-2.4c-1.2,0-2.2-1-2.2-2.2v-0.4c0-1.2,1-2.2,2.2-2.2h2.4c1.2,0,2.2,1,2.2,2.2v0.4
		C95.4,11.9,94.4,12.9,93.2,12.9z"/>
	<rect id="XMLID_2501_" x="85.4" y="37.8" class="st7" width="15.5" height="24.3"/>
	<rect id="XMLID_2500_" x="87.1" y="39.9" class="st8" width="12.3" height="19.2"/>
	<path id="XMLID_9309_" class="st5" d="M98.4,73.2H85.2c-1.4,0-2.6-1.2-2.6-2.6l0,0c0-1.4,1.2-2.6,2.6-2.6h13.2
		c1.4,0,2.6,1.2,2.6,2.6l0,0C100.9,72,99.8,73.2,98.4,73.2z"/>
	<rect id="XMLID_2497_" x="92" y="12.9" class="st9" width="2.7" height="15"/>
</g>
<g id="XMLID_9310_">
	<circle id="XMLID_9311_" class="st10" cx="30.2" cy="91.5" r="4"/>
	<path id="XMLID_9312_" class="st10" d="M26.2,91.5h8.1v10.1C34.3,101.6,26.2,96.7,26.2,91.5z"/>
	<circle id="XMLID_2528_" class="st10" cx="38.3" cy="91.3" r="4"/>
	<path id="XMLID_2527_" class="st10" d="M42.3,91.3h-8.1v10.1C34.3,101.4,42.3,96.5,42.3,91.3z"/>
</g>
<g id="XMLID_1_">
	<g id="XMLID_1623_">
		<path id="XMLID_1785_" class="st11" d="M49.6,84.5c0.2,0.1,0.3,0.2,0.5,0.3c0.1,0.1,0.2,0.2,0.3,0.3s0.2,0.2,0.2,0.4
			c0.1,0.3,0.2,0.6,0.2,1v10.1h-1.1V86.4c0-0.1,0-0.2-0.1-0.3c-0.1-0.1-0.1-0.2-0.2-0.3c-0.1-0.1-0.2-0.2-0.2-0.3l-0.9,0.9l-1.1-1.4
			l0.7-0.6l0.5,0.7l0.5-0.8C49.2,84.3,49.4,84.4,49.6,84.5z"/>
		<path id="XMLID_1783_" class="st11" d="M54.4,89.2c0.1,0,0.2,0,0.3,0c0.1,0,0.3,0,0.5,0.1s0.4,0.1,0.6,0.2s0.4,0.3,0.5,0.4
			c0.2,0.2,0.3,0.4,0.4,0.7c0.1,0.3,0.2,0.6,0.2,1v2.4c0,0.5-0.1,0.9-0.3,1.3c-0.1,0.2-0.2,0.3-0.3,0.5c-0.1,0.2-0.3,0.3-0.4,0.4
			c-0.2,0.1-0.4,0.2-0.6,0.3c-0.2,0.1-0.5,0.1-0.8,0.1c-0.3,0-0.6,0-0.8-0.1c-0.2-0.1-0.4-0.2-0.6-0.3c-0.2-0.1-0.3-0.3-0.4-0.4
			c-0.1-0.2-0.2-0.3-0.3-0.5c0,0,0.1-0.1,0.2-0.1s0.2-0.1,0.3-0.2c0.1-0.1,0.2-0.1,0.3-0.2s0.1-0.1,0.2-0.1c0.1,0.2,0.2,0.4,0.3,0.5
			c0.1,0.1,0.3,0.2,0.4,0.2c0.2,0.1,0.3,0.1,0.5,0.1c0.3,0,0.5-0.1,0.7-0.2c0.1,0,0.2-0.1,0.3-0.2c0.1-0.1,0.2-0.2,0.2-0.3
			c0.1-0.1,0.1-0.2,0.2-0.3c0-0.1,0.1-0.3,0.1-0.5v-2.4c0-0.3-0.1-0.5-0.2-0.7c0-0.1-0.1-0.2-0.2-0.3c-0.1-0.1-0.1-0.2-0.2-0.2
			s-0.2-0.1-0.3-0.2c-0.1,0-0.3-0.1-0.4-0.1c-0.2,0-0.4,0-0.6,0.1c-0.2,0-0.3,0.1-0.4,0.2c-0.1,0.1-0.2,0.2-0.3,0.4
			c-0.1,0.1-0.2,0.3-0.3,0.5h-1.1c0-0.3,0.1-0.6,0.2-0.9c0.1-0.3,0.3-0.5,0.5-0.7c0.2-0.2,0.5-0.3,0.8-0.5S53.9,89.2,54.4,89.2
			L54.4,89.2L54.4,89.2z"/>
		<path id="XMLID_1781_" class="st11" d="M59.1,89.2v4.6c0,0.3,0,0.6,0.1,0.8s0.2,0.4,0.3,0.5s0.3,0.2,0.4,0.3
			c0.1,0.1,0.3,0.1,0.4,0.2c0.1,0,0.2,0.1,0.3,0.1s0.2,0,0.2,0c0.3,0,0.5,0,0.7-0.1c0.2-0.1,0.4-0.2,0.5-0.3
			c0.1-0.1,0.2-0.3,0.3-0.4c0.1-0.2,0.1-0.3,0.2-0.4s0.1-0.3,0.1-0.4c0-0.1,0-0.2,0-0.2v-4.6h1.1v7.3h-1.1v-1c0,0.1,0,0.3-0.1,0.4
			s-0.1,0.2-0.2,0.3c-0.1,0.1-0.2,0.1-0.3,0.2s-0.2,0.1-0.3,0.1c-0.3,0.1-0.5,0.1-0.8,0.2h-0.3c-0.4,0-0.8-0.1-1.1-0.2
			s-0.5-0.3-0.7-0.4s-0.3-0.4-0.5-0.6s-0.2-0.4-0.2-0.6c-0.1-0.2-0.1-0.4-0.1-0.6c0-0.2,0-0.3,0-0.4v-0.1v-4.6H59.1z"/>
		<path id="XMLID_1779_" class="st11" d="M61,88.3v-1.1c0-0.1,0-0.2,0.1-0.2c0-0.1,0.1-0.1,0.1-0.2c0.1,0,0.2-0.1,0.3-0.1h2.4v1H62
			v0.5H61z"/>
		<path id="XMLID_1777_" class="st5" d="M53.9,104.6C53.9,104.6,53.9,104.6,53.9,104.6c-0.1,0.1-0.1,0.2-0.2,0.3s-0.1,0.1-0.2,0.2
			s-0.1,0.1-0.2,0.2s-0.1,0.1-0.2,0.1s-0.1,0.1-0.1,0.1c0.1,0.2,0.2,0.3,0.3,0.5s0.1,0.3,0.2,0.5s0.1,0.3,0.1,0.4s0,0.2,0,0.3v0.1
			v3.8h-0.9v-1.9c0-0.2,0-0.3-0.1-0.5s-0.2-0.2-0.3-0.3s-0.3-0.1-0.4-0.2s-0.3-0.1-0.4-0.1s-0.3,0-0.4,0c0,0,0,0-0.1,0s-0.1,0-0.2,0
			s-0.2,0.1-0.3,0.1s-0.2,0.1-0.3,0.2s-0.2,0.2-0.3,0.3s-0.1,0.3-0.2,0.4c0,0,0,0.1,0,0.1s0,0,0,0.1c0,0.1,0,0.2,0.1,0.3
			s0.2,0.2,0.3,0.2s0.2,0.1,0.3,0.2s0.3,0.1,0.4,0.1s0.2,0,0.3,0s0.2,0,0.2,0h0.1v0.9h-1.1c-0.2,0-0.4,0-0.6-0.1s-0.4-0.2-0.5-0.4
			s-0.3-0.3-0.3-0.6s-0.1-0.4-0.1-0.7c0-0.2,0.1-0.5,0.2-0.7s0.3-0.5,0.5-0.7c0.1-0.1,0.3-0.2,0.4-0.3s0.3-0.2,0.5-0.2
			s0.3-0.1,0.5-0.1s0.3,0,0.4,0c0.2,0,0.4,0,0.6,0.1s0.4,0.1,0.5,0.1c0.2,0.1,0.3,0.1,0.4,0.2v-0.4c0-0.2,0-0.4-0.1-0.5
			s-0.1-0.3-0.2-0.4s-0.2-0.2-0.2-0.3s-0.2-0.1-0.3-0.2c-0.2-0.1-0.5-0.2-0.8-0.2c-0.3,0-0.5,0-0.6,0.1s-0.3,0.2-0.4,0.3
			s-0.2,0.3-0.3,0.4s-0.1,0.3-0.1,0.4h-1c0-0.3,0.1-0.6,0.2-0.9s0.2-0.4,0.4-0.6s0.3-0.3,0.5-0.4s0.4-0.2,0.5-0.2s0.3-0.1,0.5-0.1
			s0.2,0,0.3,0h0.1c0.3,0,0.6,0,0.9,0.1c0.2,0,0.3-0.1,0.5-0.1c0.1-0.1,0.3-0.1,0.4-0.2s0.3-0.3,0.3-0.4l0.3,0.3
			c0,0,0.1,0.1,0.1,0.1s0.1,0.1,0.1,0.1S53.9,104.5,53.9,104.6C53.9,104.6,53.9,104.6,53.9,104.6z"/>
		<path id="XMLID_1775_" class="st5" d="M51.6,102.6v0.5H54v0.9h-2.8c-0.1,0-0.2,0-0.2-0.1s-0.1-0.1-0.1-0.1c0-0.1-0.1-0.1-0.1-0.2
			v-0.9H51.6z"/>
		<path id="XMLID_1773_" class="st5" d="M63.6,111.2c0,0.3,0,0.6-0.1,0.8s-0.2,0.4-0.3,0.5s-0.2,0.2-0.4,0.3s-0.3,0.1-0.4,0.2
			s-0.2,0.1-0.3,0.1s-0.1,0-0.2,0c-0.3,0-0.5,0-0.7-0.1s-0.4-0.1-0.5-0.2c-0.2-0.1-0.3-0.2-0.4-0.3l0.6-0.8c0,0,0.1,0.1,0.1,0.1
			s0.1,0.1,0.2,0.1s0.2,0.1,0.3,0.1s0.2,0.1,0.4,0.1c0.2,0,0.3,0,0.4-0.1s0.2-0.2,0.2-0.3c0.1-0.1,0.1-0.3,0.1-0.4v-1.1
			c0,0.1,0,0.2-0.1,0.3s-0.1,0.2-0.2,0.2s-0.2,0.1-0.2,0.2s-0.2,0.1-0.3,0.1c-0.2,0.1-0.4,0.1-0.7,0.2h-0.2c-0.4,0-0.7,0-0.9-0.1
			s-0.5-0.2-0.6-0.4s-0.3-0.3-0.4-0.5s-0.2-0.4-0.2-0.5s-0.1-0.3-0.1-0.5s0-0.3,0-0.3v-1.6c0-0.3,0-0.5-0.1-0.6s-0.2-0.3-0.3-0.4
			s-0.2-0.2-0.3-0.3s-0.2-0.1-0.4-0.1s-0.2,0-0.3,0s-0.1,0-0.2,0c-0.2,0-0.4,0-0.5,0.1s-0.3,0.1-0.4,0.2s-0.2,0.2-0.3,0.2
			s-0.1,0.2-0.2,0.3c-0.1,0.2-0.2,0.5-0.2,0.8v1.9c0,0.2,0.1,0.4,0.1,0.5c0,0.1,0.1,0.1,0.1,0.2s0.1,0.1,0.2,0.2s0.2,0.1,0.3,0.1
			s0.2,0,0.4,0h0.7v0.9h-1.3c-0.3,0-0.5-0.1-0.7-0.2c-0.1-0.1-0.2-0.1-0.3-0.2s-0.2-0.2-0.2-0.3s-0.1-0.3-0.2-0.5s-0.1-0.4-0.1-0.6
			V109v-2.9c0.1-0.2,0.3-0.4,0.4-0.6s0.3-0.3,0.5-0.4s0.3-0.2,0.5-0.3s0.3-0.1,0.4-0.1s0.3-0.1,0.4-0.1s0.2,0,0.2,0h0
			c0.4,0,0.7,0.1,1,0.2s0.5,0.3,0.7,0.4s0.3,0.4,0.4,0.6s0.2,0.4,0.2,0.6s0.1,0.3,0.1,0.5s0,0.2,0,0.2v1.5c0,0.3,0,0.5,0.1,0.7
			s0.2,0.3,0.3,0.4s0.2,0.2,0.3,0.3s0.2,0.1,0.4,0.1s0.2,0,0.3,0s0.1,0,0.2,0c0.2,0,0.5,0,0.6-0.1s0.3-0.2,0.4-0.3s0.2-0.2,0.3-0.4
			s0.1-0.3,0.1-0.4s0-0.2,0-0.3s0-0.1,0-0.2v-3.9h0.9L63.6,111.2z"/>
		<path id="XMLID_1771_" class="st5" d="M67.9,104.8c0.3,0.1,0.5,0.2,0.7,0.4s0.3,0.3,0.4,0.5s0.2,0.4,0.2,0.6s0.1,0.3,0.1,0.5
			s0,0.2,0,0.3v0.1v3.8h-0.9v-1.9c0-0.2,0-0.3-0.1-0.5s-0.2-0.2-0.3-0.3s-0.3-0.1-0.4-0.2s-0.3-0.1-0.4-0.1s-0.3,0-0.4,0
			c0,0,0,0-0.1,0s-0.1,0-0.2,0s-0.2,0.1-0.3,0.1s-0.2,0.1-0.3,0.2s-0.2,0.2-0.3,0.3s-0.1,0.3-0.2,0.4c0,0.1,0,0.1,0,0.2
			c0,0.1,0,0.2,0.1,0.3s0.2,0.2,0.3,0.2s0.2,0.1,0.3,0.2s0.3,0.1,0.4,0.1s0.2,0,0.3,0s0.2,0,0.2,0h0.1v0.9H66c-0.2,0-0.4,0-0.6-0.1
			s-0.4-0.2-0.5-0.4s-0.3-0.3-0.3-0.6s-0.1-0.4-0.1-0.7c0-0.2,0.1-0.5,0.2-0.7s0.3-0.5,0.5-0.7c0.1-0.1,0.3-0.2,0.4-0.3
			s0.3-0.2,0.5-0.2s0.3-0.1,0.5-0.1s0.3,0,0.4,0c0.2,0,0.4,0,0.6,0.1s0.4,0.1,0.5,0.1c0.2,0.1,0.3,0.1,0.4,0.2v-0.4
			c0-0.2,0-0.4-0.1-0.5s-0.1-0.3-0.2-0.4s-0.2-0.2-0.2-0.3s-0.2-0.1-0.3-0.2c-0.2-0.1-0.5-0.2-0.8-0.2c-0.3,0-0.5,0-0.6,0.1
			s-0.3,0.2-0.4,0.3s-0.2,0.3-0.3,0.4s-0.1,0.3-0.1,0.4h-1c0-0.3,0.1-0.6,0.2-0.9s0.2-0.4,0.4-0.6s0.3-0.3,0.5-0.4s0.4-0.2,0.5-0.2
			s0.3-0.1,0.5-0.1s0.2,0,0.3,0h0.1C67.3,104.6,67.7,104.7,67.9,104.8z"/>
		<path id="XMLID_1769_" class="st5" d="M67.3,102.6v0.5h2.4v0.9h-2.8c-0.1,0-0.2,0-0.2-0.1s-0.1-0.1-0.1-0.1c0-0.1-0.1-0.1-0.1-0.2
			v-0.9H67.3z"/>
		<path id="XMLID_1767_" class="st5" d="M70.4,110.9v-4.8c0.1-0.2,0.3-0.4,0.4-0.6s0.3-0.3,0.5-0.4s0.3-0.2,0.5-0.3s0.3-0.1,0.4-0.1
			s0.3-0.1,0.4-0.1s0.2,0,0.2,0h0.1c0.3,0,0.6,0,0.8,0.1s0.4,0.2,0.6,0.3s0.3,0.2,0.4,0.4s0.2,0.3,0.3,0.4s0.1,0.3,0.2,0.4
			s0.1,0.3,0.1,0.4s0,0.2,0,0.3s0,0.1,0,0.2v3.9h-0.9v-3.9c0-0.3,0-0.5-0.1-0.6s-0.2-0.3-0.3-0.4s-0.2-0.2-0.3-0.3s-0.2-0.1-0.4-0.1
			s-0.2,0-0.3,0s-0.1,0-0.2,0c-0.2,0-0.4,0-0.5,0.1s-0.3,0.1-0.4,0.2s-0.2,0.2-0.3,0.2s-0.1,0.2-0.2,0.3c-0.1,0.2-0.2,0.5-0.2,0.7
			v3.9H70.4z"/>
		<path id="XMLID_1765_" class="st5" d="M81.9,107.8h-0.6v1c0,0.4-0.2,0.8-0.3,1.1c-0.1,0.1-0.2,0.3-0.3,0.4s-0.3,0.3-0.4,0.4
			s-0.4,0.2-0.6,0.3s-0.5,0.1-0.8,0.1c-0.3,0-0.6,0-0.8-0.1s-0.4-0.1-0.6-0.3s-0.3-0.2-0.4-0.4s-0.2-0.3-0.3-0.4
			c-0.2-0.3-0.3-0.7-0.3-1.1v-4.2h0.9v4.2c0,0.2,0,0.3,0.1,0.5s0.1,0.2,0.2,0.3s0.2,0.2,0.2,0.2s0.2,0.1,0.3,0.2
			c0.2,0.1,0.5,0.2,0.8,0.2c0.3,0,0.5-0.1,0.8-0.2c0.1,0,0.2-0.1,0.3-0.2s0.2-0.1,0.2-0.2s0.1-0.2,0.2-0.3s0.1-0.3,0.1-0.5v-1h-1.1
			c-0.1,0-0.2,0-0.2-0.1s-0.1-0.1-0.1-0.1c0-0.1-0.1-0.1-0.1-0.2v-0.9h0.9v0.5h0.6v-2.3h0.9v2.3h0.6V107.8z"/>
		<path id="XMLID_1763_" class="st5" d="M91.8,104.7v6.3h-0.9v-0.9c0,0.1,0,0.2-0.1,0.3s-0.1,0.2-0.2,0.2s-0.2,0.1-0.2,0.2
			s-0.2,0.1-0.3,0.1c-0.2,0.1-0.5,0.1-0.7,0.1h-0.2c-0.4,0-0.7,0-0.9-0.1s-0.5-0.2-0.6-0.4s-0.3-0.3-0.4-0.5s-0.2-0.4-0.2-0.5
			s-0.1-0.3-0.1-0.5s0-0.3,0-0.3c0-0.1,0-0.1,0-0.1v-1.5c0-0.3,0-0.5-0.1-0.6s-0.2-0.3-0.3-0.4s-0.2-0.2-0.3-0.3s-0.2-0.1-0.4-0.1
			s-0.2,0-0.3,0s-0.1,0-0.2,0c-0.2,0-0.4,0-0.5,0.1s-0.3,0.1-0.4,0.2s-0.2,0.2-0.3,0.2s-0.1,0.2-0.2,0.3c-0.1,0.2-0.2,0.5-0.2,0.7
			v1.9c0,0.2,0.1,0.4,0.1,0.5c0,0.1,0.1,0.1,0.1,0.2s0.1,0.1,0.2,0.2s0.2,0.1,0.3,0.1s0.2,0,0.4,0h0.7v0.9h-1.3
			c-0.3,0-0.5-0.1-0.7-0.2c-0.1-0.1-0.2-0.1-0.3-0.2s-0.2-0.2-0.2-0.3s-0.1-0.3-0.2-0.5s-0.1-0.4-0.1-0.6V109v-2.9
			c0.1-0.2,0.3-0.4,0.4-0.6s0.3-0.3,0.5-0.4s0.3-0.2,0.5-0.3s0.3-0.1,0.4-0.1s0.3-0.1,0.4-0.1s0.2,0,0.2,0h0.1c0.4,0,0.7,0.1,1,0.2
			s0.5,0.3,0.7,0.4s0.3,0.4,0.4,0.6s0.2,0.4,0.2,0.6s0.1,0.3,0.1,0.5s0,0.2,0,0.2v1.5c0,0.3,0,0.5,0.1,0.7s0.2,0.3,0.3,0.4
			s0.2,0.2,0.3,0.3s0.2,0.1,0.4,0.1s0.2,0,0.3,0.1s0.1,0,0.2,0c0.2,0,0.4,0,0.6-0.1s0.3-0.2,0.4-0.3s0.2-0.2,0.3-0.4
			s0.1-0.3,0.1-0.4s0-0.2,0.1-0.3s0-0.1,0-0.2v-3.9H91.8z"/>
		<path id="XMLID_1761_" class="st5" d="M89.4,103.9V103c0-0.1,0-0.1,0.1-0.2c0-0.1,0.1-0.1,0.1-0.1s0.1-0.1,0.2-0.1h2.1v0.9h-1.6
			v0.5H89.4z"/>
		<path id="XMLID_1759_" class="st5" d="M96.9,110.9V107c0-0.2,0-0.5-0.1-0.6s-0.2-0.3-0.3-0.4s-0.2-0.2-0.3-0.3s-0.2-0.1-0.4-0.1
			s-0.2,0-0.3,0s-0.1,0-0.2,0c-0.2,0-0.4,0-0.6,0.1s-0.3,0.2-0.4,0.3s-0.2,0.2-0.3,0.3s-0.1,0.2-0.1,0.3s0,0.2-0.1,0.3s0,0.1,0,0.1
			v3.9H93v-6.3h0.9v0.9c0-0.1,0-0.2,0.1-0.3s0.1-0.2,0.2-0.2s0.2-0.1,0.2-0.2s0.2-0.1,0.3-0.1c0.2-0.1,0.5-0.1,0.7-0.1h0.2
			c0.4,0,0.7,0,0.9,0.1s0.5,0.2,0.6,0.4s0.3,0.3,0.4,0.5s0.2,0.4,0.2,0.5s0.1,0.3,0.1,0.5s0,0.2,0,0.3v0.1v3.9H96.9z"/>
		<path id="XMLID_1757_" class="st5" d="M97.2,102.5v1.4h-3.5V103h2.6v-0.6H97.2z"/>
		<path id="XMLID_1755_" class="st5" d="M97.4,99.7v1.8h-0.9v-1.8H97.4z"/>
		<path id="XMLID_1753_" class="st5" d="M49.8,125.3h-0.9v-6.3h0.9V125.3z"/>
		<path id="XMLID_1751_" class="st5" d="M54.8,120.3c0.2,0.1,0.4,0.1,0.5,0.3s0.2,0.3,0.2,0.5v2.2c0,0.4,0,0.6-0.1,0.9
			s-0.2,0.4-0.4,0.6s-0.3,0.3-0.5,0.4s-0.4,0.2-0.5,0.2s-0.3,0.1-0.4,0.1s-0.2,0-0.2,0c-0.4,0-0.7,0-0.9-0.1s-0.5-0.2-0.6-0.4
			s-0.3-0.3-0.4-0.5s-0.2-0.4-0.2-0.5s-0.1-0.3-0.1-0.4s0-0.2,0-0.2c0-0.2,0-0.4,0.1-0.6s0.1-0.3,0.2-0.4s0.2-0.3,0.3-0.4
			s0.2-0.2,0.3-0.3s0.2-0.2,0.2-0.3s0.1-0.2,0.1-0.3c0,0,0-0.1,0-0.1s0,0,0-0.1c0-0.1,0-0.3-0.1-0.4s-0.1-0.2-0.2-0.2
			s-0.2-0.1-0.3-0.2s-0.2-0.1-0.3-0.1s-0.2,0-0.2,0s-0.1,0-0.2,0H51v-0.9h0.6c0.3,0,0.5,0,0.7,0.1s0.3,0.2,0.5,0.3s0.2,0.2,0.3,0.4
			s0.1,0.3,0.2,0.4s0.1,0.3,0.1,0.4s0,0.2,0,0.3c0,0,0,0,0,0.1s0,0,0,0v0c0,0.1,0,0.2-0.1,0.3s-0.1,0.2-0.2,0.3
			c-0.1,0.1-0.1,0.2-0.2,0.3c-0.2,0.2-0.3,0.4-0.4,0.5s-0.2,0.3-0.2,0.4s-0.1,0.2-0.1,0.3s0,0.1,0,0.1c0,0.2,0,0.4,0.1,0.5
			s0.1,0.3,0.2,0.4s0.2,0.2,0.3,0.2s0.2,0.1,0.3,0.1s0.2,0,0.2,0s0.1,0,0.1,0c0.2,0,0.4,0,0.5-0.1s0.3-0.1,0.4-0.2s0.2-0.2,0.2-0.3
			s0.1-0.2,0.1-0.3s0.1-0.2,0.1-0.3s0-0.1,0-0.1v-2c0-0.4-0.3-0.6-0.8-0.6h-0.3V120h0.3c0.3,0,0.5-0.1,0.6-0.2s0.2-0.3,0.2-0.5v-0.2
			h0.9v0.4C55.5,119.9,55.2,120.2,54.8,120.3z"/>
		<path id="XMLID_1749_" class="st5" d="M55.2,116.8v1.5h-3.9v-0.9H53v-0.7h0.9v0.7h0.5v-0.7H55.2z"/>
		<path id="XMLID_1747_" class="st5" d="M54.9,114.1v1.8H54v-1.8H54.9z"/>
		<path id="XMLID_1745_" class="st5" d="M61.5,123.2c0,0.4-0.1,0.8-0.3,1.1c-0.1,0.1-0.2,0.3-0.3,0.4s-0.3,0.3-0.4,0.4
			s-0.4,0.2-0.6,0.3s-0.5,0.1-0.8,0.1c-0.3,0-0.6,0-0.8-0.1s-0.4-0.1-0.6-0.3s-0.3-0.2-0.4-0.4s-0.2-0.3-0.3-0.4
			c-0.2-0.3-0.3-0.7-0.3-1.1v-1.3h1.8v0.9h-0.8v0.4c0,0.2,0,0.3,0.1,0.5s0.1,0.2,0.2,0.3s0.2,0.2,0.2,0.2s0.2,0.1,0.3,0.2
			c0.2,0.1,0.5,0.2,0.8,0.2c0.3,0,0.5-0.1,0.8-0.2c0.1,0,0.2-0.1,0.3-0.2s0.2-0.1,0.2-0.2s0.1-0.2,0.2-0.3s0.1-0.3,0.1-0.5v-1.9
			c0-0.2,0-0.3-0.1-0.4s-0.1-0.2-0.2-0.3s-0.2-0.2-0.2-0.2s-0.2-0.1-0.3-0.2c-0.2-0.1-0.5-0.2-0.8-0.2h-0.1c-0.1,0-0.2,0-0.3,0
			s-0.3,0.1-0.4,0.1s-0.3,0.2-0.4,0.3s-0.2,0.3-0.3,0.5h-0.9c0-0.1,0.1-0.2,0.1-0.4s0.1-0.3,0.2-0.4s0.2-0.3,0.3-0.4
			s0.3-0.3,0.4-0.4s0.4-0.2,0.6-0.2s0.5-0.1,0.8-0.1c0.3,0,0.6,0,0.8,0.1s0.4,0.2,0.6,0.3s0.3,0.2,0.4,0.4s0.2,0.3,0.3,0.4
			c0.2,0.3,0.3,0.7,0.3,1.1V123.2z"/>
		<path id="XMLID_1743_" class="st5" d="M67.3,119.1v3.9v0.1c0,0.1,0,0.2,0,0.3s0,0.3-0.1,0.5s-0.1,0.4-0.2,0.5s-0.2,0.4-0.4,0.5
			s-0.4,0.3-0.6,0.4s-0.5,0.1-0.9,0.1h-0.2c-0.3,0-0.5-0.1-0.7-0.1c-0.1,0-0.2-0.1-0.3-0.1s-0.2-0.1-0.2-0.2s-0.1-0.1-0.2-0.2
			s-0.1-0.2-0.1-0.3v0.9h-0.9v-6.3h0.9v3.9c0,0,0,0.1,0,0.2s0,0.2,0.1,0.3s0.1,0.2,0.1,0.4s0.1,0.3,0.3,0.4s0.2,0.2,0.4,0.3
			s0.4,0.1,0.6,0.1c0,0,0.1,0,0.2,0s0.2,0,0.3-0.1s0.2-0.1,0.4-0.1s0.2-0.2,0.3-0.3s0.2-0.3,0.3-0.4s0.1-0.4,0.1-0.7v-3.9H67.3z"/>
		<path id="XMLID_1741_" class="st5" d="M72.9,119.7c0.1,0.2,0.2,0.3,0.3,0.5s0.1,0.4,0.1,0.6v4.6h-0.9v-4.2c0-0.3,0-0.5-0.1-0.7
			c-0.1-0.2-0.2-0.3-0.4-0.4l-1,0.7l-1-0.7c-0.2,0.1-0.3,0.3-0.4,0.4c-0.1,0.2-0.1,0.4-0.1,0.7v2.2c0,0.2,0.1,0.4,0.1,0.5
			c0,0.1,0.1,0.1,0.1,0.2s0.1,0.1,0.2,0.2s0.2,0.1,0.3,0.1s0.2,0,0.4,0h0.7v0.9h-1.3c-0.3,0-0.5-0.1-0.7-0.2
			c-0.1-0.1-0.2-0.1-0.3-0.2s-0.2-0.2-0.2-0.3s-0.1-0.3-0.2-0.5s-0.1-0.4-0.1-0.6v-2.7c0-0.4,0.2-0.8,0.4-1.1s0.6-0.5,0.9-0.7
			l1.1,0.7L72,119C72.4,119.2,72.7,119.4,72.9,119.7z"/>
		<path id="XMLID_1739_" class="st5" d="M72.7,116.5v1.8h-0.9v-1.8H72.7z"/>
		<path id="XMLID_1737_" class="st5" d="M79.4,123.2c0,0.4-0.1,0.8-0.3,1.1c-0.1,0.1-0.2,0.3-0.3,0.4s-0.3,0.3-0.4,0.4
			s-0.4,0.2-0.6,0.3s-0.5,0.1-0.8,0.1c-0.3,0-0.6,0-0.8-0.1s-0.4-0.1-0.6-0.3s-0.3-0.2-0.4-0.4s-0.2-0.3-0.3-0.4
			c-0.2-0.3-0.3-0.7-0.3-1.1v-1.3h1.8v0.9h-0.8v0.4c0,0.2,0,0.3,0.1,0.5s0.1,0.2,0.2,0.3s0.2,0.2,0.2,0.2s0.2,0.1,0.3,0.2
			c0.2,0.1,0.5,0.2,0.8,0.2c0.3,0,0.5-0.1,0.8-0.2c0.1,0,0.2-0.1,0.3-0.2s0.2-0.1,0.2-0.2s0.1-0.2,0.2-0.3s0.1-0.3,0.1-0.5v-1.9
			c0-0.2,0-0.3-0.1-0.4s-0.1-0.2-0.2-0.3s-0.2-0.2-0.2-0.2s-0.2-0.1-0.3-0.2c-0.2-0.1-0.5-0.2-0.8-0.2h-0.1c-0.1,0-0.2,0-0.3,0
			s-0.3,0.1-0.4,0.1s-0.3,0.2-0.4,0.3s-0.2,0.3-0.3,0.5h-0.9c0-0.1,0.1-0.2,0.1-0.4s0.1-0.3,0.2-0.4s0.2-0.3,0.3-0.4
			s0.3-0.3,0.4-0.4s0.4-0.2,0.6-0.2s0.5-0.1,0.8-0.1c0.3,0,0.6,0,0.8,0.1s0.4,0.2,0.6,0.3s0.3,0.2,0.4,0.4s0.2,0.3,0.3,0.4
			c0.2,0.3,0.3,0.7,0.3,1.1V123.2z"/>
		<path id="XMLID_1735_" class="st5" d="M83.8,120.7l-0.4-0.3c-0.1-0.1-0.2-0.1-0.3-0.2s-0.2-0.1-0.4-0.1s-0.2-0.1-0.3-0.1
			s-0.2,0-0.3,0c-0.1,0-0.3,0-0.4,0s-0.3,0.1-0.4,0.1s-0.2,0.2-0.2,0.3s-0.1,0.3-0.1,0.5s0.1,0.3,0.2,0.4s0.2,0.2,0.4,0.3
			s0.4,0.1,0.6,0.1s0.4,0.1,0.6,0.1s0.4,0.1,0.6,0.2s0.4,0.2,0.5,0.4s0.3,0.3,0.4,0.5s0.1,0.4,0.1,0.6c0,0.3-0.1,0.6-0.2,0.8
			s-0.3,0.4-0.5,0.6s-0.4,0.3-0.7,0.3s-0.6,0.1-0.9,0.1c-0.4,0-0.8,0-1.1-0.1s-0.6-0.2-0.8-0.3c-0.2-0.1-0.4-0.3-0.6-0.5l0.6-0.6
			c0.1,0.1,0.2,0.2,0.3,0.2s0.3,0.1,0.4,0.2s0.3,0.1,0.5,0.2s0.4,0.1,0.6,0.1c0.2,0,0.4,0,0.5-0.1s0.3-0.1,0.4-0.2s0.2-0.2,0.3-0.3
			s0.1-0.3,0.1-0.4c0-0.2,0-0.3-0.1-0.4s-0.1-0.2-0.2-0.2s-0.1-0.1-0.2-0.1s-0.1,0-0.2,0c0,0-0.1,0-0.2,0s-0.2,0-0.4-0.1
			s-0.3,0-0.4-0.1s-0.2,0-0.3-0.1c0,0-0.1,0-0.2,0s-0.2-0.1-0.3-0.1s-0.2-0.1-0.3-0.2s-0.2-0.2-0.3-0.3s-0.2-0.3-0.2-0.4
			s-0.1-0.4-0.1-0.6c0-0.3,0.1-0.6,0.2-0.9s0.3-0.4,0.5-0.6s0.4-0.3,0.7-0.3s0.5-0.1,0.7-0.1c0.3,0,0.5,0,0.7,0.1s0.4,0.1,0.6,0.2
			c0.2,0.1,0.3,0.2,0.5,0.3l0.5,0.3L83.8,120.7z"/>
		<path id="XMLID_1732_" class="st5" d="M85.9,119.6v0.5h1.6v0.9h-2.1c-0.1,0-0.2,0-0.2-0.1s-0.1-0.1-0.1-0.1c0-0.1-0.1-0.1-0.1-0.2
			v-0.9H85.9z M85.9,123.4v0.5h1.6v0.9h-2.1c-0.1,0-0.2,0-0.2-0.1s-0.1-0.1-0.1-0.1c0-0.1-0.1-0.1-0.1-0.2v-0.9H85.9z"/>
		<path id="XMLID_1730_" class="st5" d="M88.5,119.1h0.9v1.6h2.1c0.1,0,0.2-0.1,0.3-0.1c0.1-0.1,0.2-0.1,0.2-0.2s0.1-0.2,0.2-0.4
			v-0.8h0.9v0.9c0,0.1,0,0.1,0,0.2s-0.1,0.2-0.1,0.3s-0.1,0.2-0.2,0.3s-0.1,0.2-0.2,0.3c0.1,0.1,0.2,0.2,0.3,0.4
			c0.1,0.1,0.2,0.3,0.2,0.5s0.1,0.4,0.1,0.6v2.7h-0.9v-2.7c0-0.1,0-0.2-0.1-0.3s-0.1-0.2-0.1-0.3s-0.1-0.2-0.2-0.3s-0.1-0.1-0.2-0.2
			s-0.2-0.1-0.3-0.1h-2.1v3.8h-0.9V119.1z"/>
		<path id="XMLID_1728_" class="st5" d="M96.4,119c0,0,0.1,0,0.3,0s0.3,0,0.4,0.1s0.3,0.1,0.5,0.2s0.3,0.2,0.5,0.4s0.3,0.4,0.3,0.6
			s0.1,0.5,0.1,0.9v2.1c0,0.4-0.1,0.8-0.3,1.1c-0.1,0.1-0.2,0.3-0.3,0.4s-0.2,0.2-0.4,0.3s-0.3,0.2-0.5,0.2s-0.4,0.1-0.7,0.1
			c-0.3,0-0.5,0-0.7-0.1s-0.4-0.1-0.5-0.3s-0.3-0.2-0.4-0.4s-0.2-0.3-0.2-0.4c0,0,0.1-0.1,0.2-0.1s0.1-0.1,0.2-0.1s0.2-0.1,0.2-0.1
			s0.1-0.1,0.2-0.1c0.1,0.2,0.2,0.3,0.3,0.4s0.2,0.2,0.4,0.2c0.1,0.1,0.3,0.1,0.4,0.1c0.2,0,0.4-0.1,0.6-0.2c0.1,0,0.1-0.1,0.2-0.2
			s0.1-0.1,0.2-0.2s0.1-0.2,0.1-0.3s0-0.2,0-0.4v-2.1c0-0.2-0.1-0.4-0.2-0.6c0-0.1-0.1-0.2-0.1-0.2s-0.1-0.1-0.2-0.2
			s-0.2-0.1-0.3-0.1s-0.2-0.1-0.4-0.1c-0.2,0-0.4,0-0.5,0.1s-0.3,0.1-0.4,0.2s-0.2,0.2-0.3,0.3s-0.2,0.3-0.2,0.5H94
			c0-0.3,0.1-0.5,0.2-0.8s0.3-0.4,0.4-0.6s0.4-0.3,0.7-0.4S96,119,96.4,119L96.4,119L96.4,119z"/>
		<path id="XMLID_1726_" class="st5" d="M97.7,116.5v1.8h-0.9v-1.8H97.7z"/>
		<path id="XMLID_1724_" class="st5" d="M100.5,119c0,0,0.1,0,0.2,0s0.2,0,0.3,0.1s0.3,0.1,0.4,0.2s0.3,0.2,0.4,0.3s0.2,0.3,0.3,0.5
			s0.1,0.5,0.1,0.8v4.5h-0.9v-4.5c0-0.2,0-0.3-0.1-0.5c0-0.1-0.1-0.1-0.1-0.2s-0.1-0.1-0.1-0.1s-0.1-0.1-0.2-0.1s-0.1,0-0.2,0
			c-0.2,0-0.3,0-0.4,0.1s-0.2,0.1-0.3,0.1s-0.1,0.1-0.2,0.1s-0.1,0.1-0.1,0.1l-0.6-0.7c0.1-0.1,0.2-0.2,0.4-0.3
			c0.1-0.1,0.3-0.2,0.5-0.2S100.2,119,100.5,119z"/>
		<path id="XMLID_1722_" class="st5" d="M104.2,119.1h1.8v4.5c0,0.3,0,0.6-0.1,0.8s-0.2,0.4-0.3,0.5s-0.2,0.2-0.4,0.3
			s-0.3,0.1-0.4,0.2s-0.2,0.1-0.3,0.1s-0.1,0-0.2,0c-0.3,0-0.5,0-0.7-0.1s-0.4-0.1-0.5-0.2c-0.2-0.1-0.3-0.2-0.4-0.3l0.6-0.6
			c0,0,0.1,0.1,0.1,0.1s0.1,0.1,0.2,0.1s0.2,0.1,0.3,0.1s0.2,0.1,0.4,0.1c0.1,0,0.2,0,0.2,0s0.1-0.1,0.2-0.1s0.1-0.1,0.1-0.2
			s0.1-0.1,0.1-0.2c0.1-0.1,0.1-0.3,0.1-0.5v-3.7h-0.9V119.1z"/>
		<path id="XMLID_1720_" class="st5" d="M107.7,125.4V119c0-0.1,0-0.2-0.1-0.4s-0.1-0.2-0.2-0.4s-0.2-0.2-0.3-0.4s-0.2-0.2-0.3-0.4
			s-0.2-0.3-0.2-0.4s-0.1-0.3-0.1-0.4c0-0.2,0-0.4,0.1-0.6s0.1-0.4,0.2-0.6s0.3-0.3,0.5-0.5s0.5-0.2,0.8-0.2h2.4v0.9h-2.2
			c-0.2,0-0.3,0.1-0.4,0.1c-0.1,0-0.1,0.1-0.1,0.1s-0.1,0.1-0.1,0.2s-0.1,0.1-0.1,0.2s0,0.2,0,0.3c0,0.2,0,0.3,0.1,0.4
			s0.1,0.2,0.2,0.3s0.2,0.2,0.3,0.3s0.2,0.3,0.4,0.5c0,0.1,0.1,0.1,0.1,0.2c0,0.1,0,0.2,0.1,0.3s0,0.2,0,0.4v6.2H107.7z"/>
		<path id="XMLID_1718_" class="st5" d="M112.9,119.2c0.3,0.1,0.5,0.2,0.7,0.4s0.3,0.3,0.4,0.5s0.2,0.4,0.2,0.6s0.1,0.3,0.1,0.5
			s0,0.2,0,0.3v0.1v3.8h-0.9v-1.9c0-0.2,0-0.3-0.1-0.5s-0.2-0.2-0.3-0.3s-0.3-0.1-0.4-0.2s-0.3-0.1-0.4-0.1s-0.3,0-0.4,0
			c0,0,0,0-0.1,0s-0.1,0-0.2,0s-0.2,0.1-0.3,0.1s-0.2,0.1-0.3,0.2s-0.2,0.2-0.3,0.3s-0.1,0.3-0.2,0.4c0,0.1,0,0.1,0,0.2
			c0,0.1,0,0.2,0.1,0.3s0.2,0.2,0.3,0.2s0.2,0.1,0.3,0.2s0.3,0.1,0.4,0.1s0.2,0,0.3,0s0.2,0,0.2,0h0.1v0.9H111c-0.2,0-0.4,0-0.6-0.1
			s-0.4-0.2-0.5-0.4s-0.3-0.3-0.3-0.6s-0.1-0.4-0.1-0.7c0-0.2,0.1-0.5,0.2-0.7s0.3-0.5,0.5-0.7c0.1-0.1,0.3-0.2,0.4-0.3
			s0.3-0.2,0.5-0.2s0.3-0.1,0.5-0.1s0.3,0,0.4,0c0.2,0,0.4,0,0.6,0.1s0.4,0.1,0.5,0.1c0.2,0.1,0.3,0.1,0.4,0.2v-0.4
			c0-0.2,0-0.4-0.1-0.5s-0.1-0.3-0.2-0.4s-0.2-0.2-0.2-0.3s-0.2-0.1-0.3-0.2c-0.2-0.1-0.5-0.2-0.8-0.2c-0.3,0-0.5,0-0.6,0.1
			s-0.3,0.2-0.4,0.3s-0.2,0.3-0.3,0.4s-0.1,0.3-0.1,0.4h-1c0-0.3,0.1-0.6,0.2-0.9s0.2-0.4,0.4-0.6s0.3-0.3,0.5-0.4s0.4-0.2,0.5-0.2
			s0.3-0.1,0.5-0.1s0.2,0,0.3,0h0.1C112.3,119,112.6,119.1,112.9,119.2z"/>
		<path id="XMLID_1716_" class="st5" d="M115.4,125.3v-4.8c0.1-0.2,0.3-0.4,0.4-0.6s0.3-0.3,0.5-0.4s0.3-0.2,0.5-0.3
			s0.3-0.1,0.4-0.1s0.3-0.1,0.4-0.1s0.2,0,0.2,0h0.1c0.3,0,0.6,0,0.8,0.1s0.4,0.2,0.6,0.3s0.3,0.2,0.4,0.4s0.2,0.3,0.3,0.4
			s0.1,0.3,0.2,0.4s0.1,0.3,0.1,0.4s0,0.2,0,0.3s0,0.1,0,0.2v3.9h-0.9v-3.9c0-0.3,0-0.5-0.1-0.6s-0.2-0.3-0.3-0.4s-0.2-0.2-0.3-0.3
			s-0.2-0.1-0.4-0.1s-0.2,0-0.3,0s-0.1,0-0.2,0c-0.2,0-0.4,0-0.5,0.1s-0.3,0.1-0.4,0.2s-0.2,0.2-0.3,0.2s-0.1,0.2-0.2,0.3
			c-0.1,0.2-0.2,0.5-0.2,0.7v3.9H115.4z"/>
		<path id="XMLID_1713_" class="st5" d="M49.7,139.7h-0.9v-6.3h0.9V139.7z M51.7,139.7h-0.9v-6.3h0.9V139.7z"/>
		<path id="XMLID_1711_" class="st5" d="M56.1,133.6c0.3,0.1,0.5,0.2,0.7,0.4s0.3,0.3,0.4,0.5s0.2,0.4,0.2,0.6s0.1,0.3,0.1,0.5
			s0,0.2,0,0.3v0.1v3.8h-0.9v-1.9c0-0.2,0-0.3-0.1-0.5s-0.2-0.2-0.3-0.3s-0.3-0.1-0.4-0.2s-0.3-0.1-0.4-0.1s-0.3,0-0.4,0
			c0,0,0,0-0.1,0s-0.1,0-0.2,0s-0.2,0.1-0.3,0.1s-0.2,0.1-0.3,0.2s-0.2,0.2-0.3,0.3s-0.1,0.3-0.2,0.4c0,0.1,0,0.1,0,0.2
			c0,0.1,0,0.2,0.1,0.3s0.2,0.2,0.3,0.2s0.2,0.1,0.3,0.2s0.3,0.1,0.4,0.1s0.2,0,0.3,0s0.2,0,0.2,0h0.1v0.9h-1.1
			c-0.2,0-0.4,0-0.6-0.1s-0.4-0.2-0.5-0.4s-0.3-0.3-0.3-0.6s-0.1-0.4-0.1-0.7c0-0.2,0.1-0.5,0.2-0.7s0.3-0.5,0.5-0.7
			c0.1-0.1,0.3-0.2,0.4-0.3s0.3-0.2,0.5-0.2s0.3-0.1,0.5-0.1s0.3,0,0.4,0c0.2,0,0.4,0,0.6,0.1s0.4,0.1,0.5,0.1
			c0.2,0.1,0.3,0.1,0.4,0.2v-0.4c0-0.2,0-0.4-0.1-0.5s-0.1-0.3-0.2-0.4s-0.2-0.2-0.2-0.3s-0.2-0.1-0.3-0.2c-0.2-0.1-0.5-0.2-0.8-0.2
			c-0.3,0-0.5,0-0.6,0.1s-0.3,0.2-0.4,0.3s-0.2,0.3-0.3,0.4s-0.1,0.3-0.1,0.4h-1c0-0.3,0.1-0.6,0.2-0.9s0.2-0.4,0.4-0.6
			s0.3-0.3,0.5-0.4s0.4-0.2,0.5-0.2s0.3-0.1,0.5-0.1s0.2,0,0.3,0h0.1C55.4,133.4,55.8,133.5,56.1,133.6z"/>
		<path id="XMLID_1708_" class="st5" d="M59.1,134v0.5h1.6v0.9h-2.1c-0.1,0-0.2,0-0.2-0.1s-0.1-0.1-0.1-0.1c0-0.1-0.1-0.1-0.1-0.2
			V134H59.1z M59.1,137.8v0.5h1.6v0.9h-2.1c-0.1,0-0.2,0-0.2-0.1s-0.1-0.1-0.1-0.1c0-0.1-0.1-0.1-0.1-0.2v-0.9H59.1z"/>
		<path id="XMLID_1706_" class="st5" d="M70.1,133.4C70.1,133.4,70.1,133.4,70.1,133.4c-0.1,0.1-0.1,0.2-0.2,0.3s-0.1,0.1-0.2,0.2
			s-0.1,0.1-0.2,0.2s-0.1,0.1-0.2,0.1s-0.1,0.1-0.1,0.1c0.1,0.2,0.2,0.3,0.3,0.5s0.1,0.3,0.2,0.5s0.1,0.3,0.1,0.4s0,0.2,0,0.3v0.1
			v3.8h-0.9v-1.9c0-0.2,0-0.3-0.1-0.5s-0.2-0.2-0.3-0.3S68.1,137,68,137s-0.3-0.1-0.4-0.1s-0.3,0-0.4,0c0,0,0,0-0.1,0s-0.1,0-0.2,0
			s-0.2,0.1-0.3,0.1s-0.2,0.1-0.3,0.2s-0.2,0.2-0.3,0.3s-0.1,0.3-0.2,0.4c0,0,0,0.1,0,0.1s0,0,0,0.1c0,0.1,0,0.2,0.1,0.3
			s0.2,0.2,0.3,0.2s0.2,0.1,0.3,0.2s0.3,0.1,0.4,0.1s0.2,0,0.3,0s0.2,0,0.2,0h0.1v0.9h-1.1c-0.2,0-0.4,0-0.6-0.1s-0.4-0.2-0.5-0.4
			s-0.3-0.3-0.3-0.6s-0.1-0.4-0.1-0.7c0-0.2,0.1-0.5,0.2-0.7s0.3-0.5,0.5-0.7c0.1-0.1,0.3-0.2,0.4-0.3s0.3-0.2,0.5-0.2
			s0.3-0.1,0.5-0.1s0.3,0,0.4,0c0.2,0,0.4,0,0.6,0.1s0.4,0.1,0.5,0.1c0.2,0.1,0.3,0.1,0.4,0.2v-0.4c0-0.2,0-0.4-0.1-0.5
			s-0.1-0.3-0.2-0.4s-0.2-0.2-0.2-0.3s-0.2-0.1-0.3-0.2c-0.2-0.1-0.5-0.2-0.8-0.2c-0.3,0-0.5,0-0.6,0.1s-0.3,0.2-0.4,0.3
			s-0.2,0.3-0.3,0.4s-0.1,0.3-0.1,0.4h-1c0-0.3,0.1-0.6,0.2-0.9s0.2-0.4,0.4-0.6s0.3-0.3,0.5-0.4s0.4-0.2,0.5-0.2s0.3-0.1,0.5-0.1
			s0.2,0,0.3,0h0.1c0.3,0,0.6,0,0.9,0.1c0.2,0,0.3-0.1,0.5-0.1c0.1-0.1,0.3-0.1,0.4-0.2s0.3-0.3,0.3-0.4l0.3,0.3
			c0,0,0.1,0.1,0.1,0.1s0.1,0.1,0.1,0.1S70,133.3,70.1,133.4C70.1,133.4,70.1,133.4,70.1,133.4z"/>
		<path id="XMLID_1704_" class="st5" d="M72.8,133.4c0,0,0.1,0,0.3,0s0.3,0,0.4,0.1s0.3,0.1,0.5,0.2s0.3,0.2,0.5,0.4
			s0.3,0.4,0.3,0.6s0.1,0.5,0.1,0.9v2.1c0,0.4-0.1,0.8-0.3,1.1c-0.1,0.1-0.2,0.3-0.3,0.4s-0.2,0.2-0.4,0.3s-0.3,0.2-0.5,0.2
			s-0.4,0.1-0.7,0.1c-0.3,0-0.5,0-0.7-0.1s-0.4-0.1-0.5-0.3s-0.3-0.2-0.4-0.4s-0.2-0.3-0.2-0.4c0,0,0.1-0.1,0.2-0.1s0.1-0.1,0.2-0.1
			s0.2-0.1,0.2-0.1s0.1-0.1,0.2-0.1c0.1,0.2,0.2,0.3,0.3,0.4s0.2,0.2,0.4,0.2c0.1,0.1,0.3,0.1,0.4,0.1c0.2,0,0.4-0.1,0.6-0.2
			c0.1,0,0.1-0.1,0.2-0.2s0.1-0.1,0.2-0.2s0.1-0.2,0.1-0.3s0-0.2,0-0.4v-2.1c0-0.2-0.1-0.4-0.2-0.6c0-0.1-0.1-0.2-0.1-0.2
			s-0.1-0.1-0.2-0.2s-0.2-0.1-0.3-0.1s-0.2-0.1-0.4-0.1c-0.2,0-0.4,0-0.5,0.1s-0.3,0.1-0.4,0.2s-0.2,0.2-0.3,0.3s-0.2,0.3-0.2,0.5
			h-0.9c0-0.3,0.1-0.5,0.2-0.8s0.3-0.4,0.4-0.6s0.4-0.3,0.7-0.4S72.4,133.4,72.8,133.4L72.8,133.4L72.8,133.4z"/>
		<path id="XMLID_1702_" class="st5" d="M79.5,135.1l-0.4-0.3c-0.1-0.1-0.2-0.1-0.3-0.2s-0.2-0.1-0.4-0.1s-0.2-0.1-0.3-0.1
			s-0.2,0-0.3,0c-0.1,0-0.3,0-0.4,0s-0.3,0.1-0.4,0.1s-0.2,0.2-0.2,0.3s-0.1,0.3-0.1,0.5s0.1,0.3,0.2,0.4s0.2,0.2,0.4,0.3
			s0.4,0.1,0.6,0.1s0.4,0.1,0.6,0.1s0.4,0.1,0.6,0.2s0.4,0.2,0.5,0.4s0.3,0.3,0.4,0.5s0.1,0.4,0.1,0.6c0,0.3-0.1,0.6-0.2,0.8
			s-0.3,0.4-0.5,0.6s-0.4,0.3-0.7,0.3s-0.6,0.1-0.9,0.1c-0.4,0-0.8,0-1.1-0.1s-0.6-0.2-0.8-0.3c-0.2-0.1-0.4-0.3-0.6-0.5l0.6-0.6
			c0.1,0.1,0.2,0.2,0.3,0.2s0.3,0.1,0.4,0.2s0.3,0.1,0.5,0.2s0.4,0.1,0.6,0.1c0.2,0,0.4,0,0.5-0.1s0.3-0.1,0.4-0.2s0.2-0.2,0.3-0.3
			s0.1-0.3,0.1-0.4c0-0.2,0-0.3-0.1-0.4s-0.1-0.2-0.2-0.2s-0.1-0.1-0.2-0.1s-0.1,0-0.2,0c0,0-0.1,0-0.2,0s-0.2,0-0.4-0.1
			s-0.3,0-0.4-0.1s-0.2,0-0.3-0.1c0,0-0.1,0-0.2,0s-0.2-0.1-0.3-0.1s-0.2-0.1-0.3-0.2s-0.2-0.2-0.3-0.3s-0.2-0.3-0.2-0.4
			s-0.1-0.4-0.1-0.6c0-0.3,0.1-0.6,0.2-0.9s0.3-0.4,0.5-0.6s0.4-0.3,0.7-0.3s0.5-0.1,0.7-0.1c0.3,0,0.5,0,0.7,0.1s0.4,0.1,0.6,0.2
			c0.2,0.1,0.3,0.2,0.5,0.3l0.5,0.3L79.5,135.1z"/>
		<path id="XMLID_1700_" class="st5" d="M84.5,135.1l-0.4-0.3c-0.1-0.1-0.2-0.1-0.3-0.2s-0.2-0.1-0.4-0.1s-0.2-0.1-0.3-0.1
			s-0.2,0-0.3,0c-0.1,0-0.3,0-0.4,0s-0.3,0.1-0.4,0.1s-0.2,0.2-0.2,0.3s-0.1,0.3-0.1,0.5s0.1,0.3,0.2,0.4s0.2,0.2,0.4,0.3
			s0.4,0.1,0.6,0.1s0.4,0.1,0.6,0.1s0.4,0.1,0.6,0.2s0.4,0.2,0.5,0.4s0.3,0.3,0.4,0.5s0.1,0.4,0.1,0.6c0,0.3-0.1,0.6-0.2,0.8
			s-0.3,0.4-0.5,0.6s-0.4,0.3-0.7,0.3s-0.6,0.1-0.9,0.1c-0.4,0-0.8,0-1.1-0.1s-0.6-0.2-0.8-0.3c-0.2-0.1-0.4-0.3-0.6-0.5l0.6-0.6
			c0.1,0.1,0.2,0.2,0.3,0.2s0.3,0.1,0.4,0.2s0.3,0.1,0.5,0.2s0.4,0.1,0.6,0.1c0.2,0,0.4,0,0.5-0.1s0.3-0.1,0.4-0.2s0.2-0.2,0.3-0.3
			s0.1-0.3,0.1-0.4c0-0.2,0-0.3-0.1-0.4s-0.1-0.2-0.2-0.2s-0.1-0.1-0.2-0.1s-0.1,0-0.2,0c0,0-0.1,0-0.2,0s-0.2,0-0.4-0.1
			s-0.3,0-0.4-0.1s-0.2,0-0.3-0.1c0,0-0.1,0-0.2,0s-0.2-0.1-0.3-0.1s-0.2-0.1-0.3-0.2s-0.2-0.2-0.3-0.3s-0.2-0.3-0.2-0.4
			s-0.1-0.4-0.1-0.6c0-0.3,0.1-0.6,0.2-0.9s0.3-0.4,0.5-0.6s0.4-0.3,0.7-0.3s0.5-0.1,0.7-0.1c0.3,0,0.5,0,0.7,0.1s0.4,0.1,0.6,0.2
			c0.2,0.1,0.3,0.2,0.5,0.3l0.5,0.3L84.5,135.1z"/>
		<path id="XMLID_1698_" class="st5" d="M89.4,133.6c0.3,0.1,0.5,0.2,0.7,0.4s0.3,0.3,0.4,0.5s0.2,0.4,0.2,0.6s0.1,0.3,0.1,0.5
			s0,0.2,0,0.3v0.1v3.8h-0.9v-3.8c0-0.2,0-0.4-0.1-0.5s-0.1-0.3-0.2-0.4s-0.2-0.2-0.2-0.3s-0.2-0.1-0.3-0.2
			c-0.2-0.1-0.5-0.2-0.8-0.2c-0.2,0-0.3,0-0.5,0.1s-0.3,0.1-0.4,0.2s-0.2,0.2-0.3,0.2s-0.1,0.2-0.2,0.3c-0.1,0.2-0.2,0.5-0.2,0.8
			v0.6c0.4-0.2,0.8-0.3,1.2-0.3c0.2,0,0.4,0,0.6,0.1v1c-0.1,0-0.2-0.1-0.3-0.1s-0.2,0-0.3,0c-0.3,0-0.5,0.1-0.8,0.2
			c-0.1,0.1-0.2,0.2-0.3,0.3s-0.1,0.2-0.2,0.3v1.7h-0.9v-3.9c0-0.4,0.1-0.7,0.2-1s0.2-0.5,0.4-0.7s0.3-0.3,0.5-0.4s0.4-0.2,0.6-0.2
			s0.3-0.1,0.5-0.1s0.2,0,0.3,0h0.1C88.8,133.4,89.1,133.5,89.4,133.6z"/>
		<path id="XMLID_1696_" class="st5" d="M88.4,132.7v-0.9c0-0.1,0-0.1,0.1-0.2c0-0.1,0.1-0.1,0.1-0.1s0.1-0.1,0.2-0.1h2.1v0.9h-1.6
			v0.5H88.4z"/>
		<path id="XMLID_1694_" class="st5" d="M53.7,152c0,0.4-0.1,0.8-0.3,1.1c-0.1,0.1-0.2,0.3-0.3,0.4s-0.3,0.3-0.4,0.4
			s-0.4,0.2-0.6,0.3s-0.5,0.1-0.8,0.1c-0.3,0-0.6,0-0.8-0.1s-0.4-0.1-0.6-0.3s-0.3-0.2-0.4-0.4s-0.2-0.3-0.3-0.4
			c-0.2-0.3-0.3-0.7-0.3-1.1v-1.3h1.8v0.9h-0.8v0.4c0,0.2,0,0.3,0.1,0.5s0.1,0.2,0.2,0.3s0.2,0.2,0.2,0.2s0.2,0.1,0.3,0.2
			c0.2,0.1,0.5,0.2,0.8,0.2c0.3,0,0.5-0.1,0.8-0.2c0.1,0,0.2-0.1,0.3-0.2s0.2-0.1,0.2-0.2s0.1-0.2,0.2-0.3s0.1-0.3,0.1-0.5v-1.9
			c0-0.2,0-0.3-0.1-0.4s-0.1-0.2-0.2-0.3s-0.2-0.2-0.2-0.2s-0.2-0.1-0.3-0.2c-0.2-0.1-0.5-0.2-0.8-0.2h-0.1c-0.1,0-0.2,0-0.3,0
			s-0.3,0.1-0.4,0.1s-0.3,0.2-0.4,0.3s-0.2,0.3-0.3,0.5h-0.9c0-0.1,0.1-0.2,0.1-0.4s0.1-0.3,0.2-0.4s0.2-0.3,0.3-0.4
			s0.3-0.3,0.4-0.4s0.4-0.2,0.6-0.2s0.5-0.1,0.8-0.1c0.3,0,0.6,0,0.8,0.1s0.4,0.2,0.6,0.3s0.3,0.2,0.4,0.4s0.2,0.3,0.3,0.4
			c0.2,0.3,0.3,0.7,0.3,1.1V152z"/>
		<path id="XMLID_1692_" class="st5" d="M51.5,145.8v0.5h2.4v0.9h-2.8c-0.1,0-0.2,0-0.2-0.1s-0.1-0.1-0.1-0.1c0-0.1-0.1-0.1-0.1-0.2
			v-0.9H51.5z"/>
		<path id="XMLID_1690_" class="st5" d="M55.6,147.9v3.9c0,0.3,0,0.5,0.1,0.7s0.2,0.3,0.3,0.4s0.2,0.2,0.3,0.3s0.2,0.1,0.4,0.1
			s0.2,0,0.3,0.1s0.1,0,0.2,0c0.2,0,0.4,0,0.6-0.1s0.3-0.2,0.4-0.3s0.2-0.2,0.3-0.4s0.1-0.3,0.1-0.4s0-0.2,0.1-0.3s0-0.1,0-0.2v-3.9
			h0.9v6.3h-0.9v-0.9c0,0.1,0,0.2-0.1,0.3s-0.1,0.2-0.2,0.2s-0.1,0.1-0.2,0.2s-0.2,0.1-0.3,0.1c-0.2,0.1-0.5,0.1-0.7,0.1h-0.2
			c-0.4,0-0.7,0-0.9-0.1s-0.5-0.2-0.6-0.4s-0.3-0.3-0.4-0.5s-0.2-0.4-0.2-0.5s-0.1-0.3-0.1-0.5s0-0.3,0-0.3v-0.1v-3.9H55.6z"/>
		<path id="XMLID_1688_" class="st5" d="M61.7,147.9v3.9c0,0.3,0,0.5,0.1,0.7s0.2,0.3,0.3,0.4s0.2,0.2,0.3,0.3s0.2,0.1,0.4,0.1
			s0.2,0,0.3,0.1s0.1,0,0.2,0c0.2,0,0.4,0,0.6-0.1s0.3-0.2,0.4-0.3s0.2-0.2,0.3-0.4s0.1-0.3,0.1-0.4s0-0.2,0.1-0.3s0-0.1,0-0.2v-3.9
			h0.9v6.3h-0.9v-0.9c0,0.1,0,0.2-0.1,0.3s-0.1,0.2-0.2,0.2s-0.1,0.1-0.2,0.2s-0.2,0.1-0.3,0.1c-0.2,0.1-0.5,0.1-0.7,0.1H63
			c-0.4,0-0.7,0-0.9-0.1s-0.5-0.2-0.6-0.4s-0.3-0.3-0.4-0.5s-0.2-0.4-0.2-0.5s-0.1-0.3-0.1-0.5s0-0.3,0-0.3v-0.1v-3.9H61.7z"/>
		<path id="XMLID_1684_" class="st5" d="M64,145.2c0.2,0,0.3,0,0.4,0.1s0.2,0.1,0.3,0.2s0.2,0.2,0.2,0.3s0.1,0.3,0.1,0.4
			s0,0.3-0.1,0.4s-0.1,0.2-0.2,0.3s-0.2,0.2-0.3,0.2s-0.3,0.1-0.4,0.1s-0.3,0-0.4-0.1s-0.2-0.1-0.3-0.2s-0.2-0.2-0.2-0.3
			s-0.1-0.3-0.1-0.4s0-0.3,0.1-0.4s0.1-0.2,0.2-0.3s0.2-0.2,0.3-0.2S63.9,145.2,64,145.2z M64,146.6c0.1,0,0.2,0,0.3-0.1
			s0.1-0.2,0.1-0.3s0-0.2-0.1-0.3s-0.2-0.1-0.3-0.1s-0.2,0-0.3,0.1s-0.1,0.2-0.1,0.3s0,0.2,0.1,0.3S63.9,146.6,64,146.6z M68,147.8
			c0,0,0.1,0,0.2,0s0.2,0,0.3,0.1s0.3,0.1,0.4,0.2s0.3,0.2,0.4,0.3s0.2,0.3,0.3,0.5s0.1,0.5,0.1,0.8v4.5h-0.9v-4.5
			c0-0.2,0-0.3-0.1-0.5c0-0.1-0.1-0.1-0.1-0.2s-0.1-0.1-0.1-0.1s-0.1-0.1-0.2-0.1s-0.1,0-0.2,0c-0.2,0-0.3,0-0.4,0.1
			s-0.2,0.1-0.3,0.1s-0.1,0.1-0.2,0.1s-0.1,0.1-0.1,0.1l-0.6-0.7c0.1-0.1,0.2-0.2,0.4-0.3c0.1-0.1,0.3-0.2,0.5-0.2
			S67.7,147.8,68,147.8z"/>
		<path id="XMLID_1682_" class="st5" d="M74.4,148c0.3,0.1,0.5,0.2,0.7,0.4s0.3,0.3,0.4,0.5s0.2,0.4,0.2,0.6s0.1,0.3,0.1,0.5
			s0,0.2,0,0.3v0.1v3.8h-0.9v-3.8c0-0.2,0-0.4-0.1-0.5s-0.1-0.3-0.2-0.4s-0.2-0.2-0.2-0.3s-0.2-0.1-0.3-0.2
			c-0.2-0.1-0.5-0.2-0.8-0.2c-0.2,0-0.3,0-0.5,0.1s-0.3,0.1-0.4,0.2s-0.2,0.2-0.3,0.2s-0.1,0.2-0.2,0.3c-0.1,0.2-0.2,0.5-0.2,0.8
			v0.6c0.4-0.2,0.8-0.3,1.2-0.3c0.2,0,0.4,0,0.6,0.1v1c-0.1,0-0.2-0.1-0.3-0.1s-0.2,0-0.3,0c-0.3,0-0.5,0.1-0.8,0.2
			c-0.1,0.1-0.2,0.2-0.3,0.3s-0.1,0.2-0.2,0.3v1.7h-0.9v-3.9c0-0.4,0.1-0.7,0.2-1s0.2-0.5,0.4-0.7s0.3-0.3,0.5-0.4s0.4-0.2,0.6-0.2
			s0.3-0.1,0.5-0.1s0.2,0,0.3,0h0.1C73.8,147.8,74.1,147.9,74.4,148z"/>
		<path id="XMLID_1680_" class="st5" d="M74.7,155.6h-0.4v-0.9h0.9c0.1,0,0.2,0,0.3,0.1c0.1,0.1,0.1,0.2,0.1,0.3v1.8h-0.9V155.6z"/>
		<path id="XMLID_1678_" class="st5" d="M85.9,147.9v6.3H85v-0.9c0,0.1,0,0.2-0.1,0.3s-0.1,0.2-0.2,0.2s-0.2,0.1-0.2,0.2
			s-0.2,0.1-0.3,0.1c-0.2,0.1-0.5,0.1-0.7,0.1h-0.2c-0.4,0-0.7,0-0.9-0.1s-0.5-0.2-0.6-0.4s-0.3-0.3-0.4-0.5s-0.2-0.4-0.2-0.5
			s-0.1-0.3-0.1-0.5s0-0.3,0-0.3c0-0.1,0-0.1,0-0.1v-1.5c0-0.3,0-0.5-0.1-0.6s-0.2-0.3-0.3-0.4s-0.2-0.2-0.3-0.3s-0.2-0.1-0.4-0.1
			s-0.2,0-0.3,0s-0.1,0-0.2,0c-0.2,0-0.4,0-0.5,0.1s-0.3,0.1-0.4,0.2s-0.2,0.2-0.3,0.2s-0.1,0.2-0.2,0.3c-0.1,0.2-0.2,0.5-0.2,0.7
			v1.9c0,0.2,0.1,0.4,0.1,0.5c0,0.1,0.1,0.1,0.1,0.2s0.1,0.1,0.2,0.2s0.2,0.1,0.3,0.1s0.2,0,0.4,0h0.7v0.9h-1.3
			c-0.3,0-0.5-0.1-0.7-0.2c-0.1-0.1-0.2-0.1-0.3-0.2s-0.2-0.2-0.2-0.3s-0.1-0.3-0.2-0.5s-0.1-0.4-0.1-0.6v-0.1v-2.9
			c0.1-0.2,0.3-0.4,0.4-0.6s0.3-0.3,0.5-0.4s0.3-0.2,0.5-0.3s0.3-0.1,0.4-0.1s0.3-0.1,0.4-0.1s0.2,0,0.2,0h0.1c0.4,0,0.7,0.1,1,0.2
			s0.5,0.3,0.7,0.4s0.3,0.4,0.4,0.6s0.2,0.4,0.2,0.6s0.1,0.3,0.1,0.5s0,0.2,0,0.2v1.5c0,0.3,0,0.5,0.1,0.7s0.2,0.3,0.3,0.4
			s0.2,0.2,0.3,0.3s0.2,0.1,0.4,0.1s0.2,0,0.3,0.1s0.1,0,0.2,0c0.2,0,0.4,0,0.6-0.1s0.3-0.2,0.4-0.3s0.2-0.2,0.3-0.4
			s0.1-0.3,0.1-0.4s0-0.2,0.1-0.3s0-0.1,0-0.2v-3.9H85.9z"/>
		<path id="XMLID_1676_" class="st5" d="M87.6,143.8c0.2,0.1,0.3,0.1,0.4,0.2s0.2,0.2,0.3,0.3s0.1,0.2,0.2,0.3
			c0.1,0.3,0.2,0.5,0.2,0.8v8.7h-0.9v-8.7c0-0.1,0-0.2-0.1-0.2s-0.1-0.2-0.1-0.2c-0.1-0.1-0.1-0.2-0.2-0.2l-0.8,0.8l-0.9-1.2
			l0.6-0.5l0.4,0.6l0.5-0.7C87.3,143.7,87.5,143.7,87.6,143.8z"/>
		<path id="XMLID_1674_" class="st5" d="M94.7,145.6v6.5c0,0.4-0.2,0.8-0.3,1.1c-0.1,0.1-0.2,0.3-0.3,0.4s-0.3,0.3-0.4,0.4
			s-0.4,0.2-0.6,0.3s-0.5,0.1-0.8,0.1c-0.3,0-0.6,0-0.8-0.1s-0.4-0.1-0.6-0.3s-0.3-0.2-0.4-0.4s-0.2-0.3-0.3-0.4
			c-0.2-0.3-0.3-0.7-0.3-1.1v-4.1h0.9v4.1c0,0.2,0,0.3,0.1,0.4s0.1,0.2,0.2,0.3s0.2,0.2,0.2,0.2s0.2,0.1,0.3,0.2
			c0.2,0.1,0.5,0.2,0.8,0.2c0.3,0,0.5-0.1,0.8-0.2c0.1,0,0.2-0.1,0.3-0.2s0.2-0.1,0.2-0.2s0.1-0.2,0.2-0.3s0.1-0.3,0.1-0.4v-6.5
			H94.7z"/>
		<path id="XMLID_1672_" class="st5" d="M100.9,147.8C100.9,147.8,100.9,147.8,100.9,147.8c-0.1,0.1-0.1,0.2-0.2,0.3
			s-0.1,0.1-0.2,0.2s-0.1,0.1-0.2,0.2s-0.1,0.1-0.2,0.1s-0.1,0.1-0.1,0.1c0.1,0.2,0.2,0.3,0.3,0.5s0.1,0.3,0.2,0.5s0.1,0.3,0.1,0.4
			s0,0.2,0,0.3v0.1v3.8h-0.9v-1.9c0-0.2,0-0.3-0.1-0.5s-0.2-0.2-0.3-0.3s-0.3-0.1-0.4-0.2s-0.3-0.1-0.4-0.1s-0.3,0-0.4,0
			c0,0,0,0-0.1,0s-0.1,0-0.2,0s-0.2,0.1-0.3,0.1s-0.2,0.1-0.3,0.2s-0.2,0.2-0.3,0.3s-0.1,0.3-0.2,0.4c0,0,0,0.1,0,0.1s0,0,0,0.1
			c0,0.1,0,0.2,0.1,0.3s0.2,0.2,0.3,0.2s0.2,0.1,0.3,0.2s0.3,0.1,0.4,0.1s0.2,0,0.3,0s0.2,0,0.2,0h0.1v0.9h-1.1
			c-0.2,0-0.4,0-0.6-0.1s-0.4-0.2-0.5-0.4s-0.3-0.3-0.3-0.6s-0.1-0.4-0.1-0.7c0-0.2,0.1-0.5,0.2-0.7s0.3-0.5,0.5-0.7
			c0.1-0.1,0.3-0.2,0.4-0.3s0.3-0.2,0.5-0.2s0.3-0.1,0.5-0.1s0.3,0,0.4,0c0.2,0,0.4,0,0.6,0.1s0.4,0.1,0.5,0.1
			c0.2,0.1,0.3,0.1,0.4,0.2v-0.4c0-0.2,0-0.4-0.1-0.5s-0.1-0.3-0.2-0.4s-0.2-0.2-0.2-0.3S99,149,98.9,149c-0.2-0.1-0.5-0.2-0.8-0.2
			c-0.3,0-0.5,0-0.6,0.1s-0.3,0.2-0.4,0.3s-0.2,0.3-0.3,0.4s-0.1,0.3-0.1,0.4h-1c0-0.3,0.1-0.6,0.2-0.9s0.2-0.4,0.4-0.6
			s0.3-0.3,0.5-0.4s0.4-0.2,0.5-0.2s0.3-0.1,0.5-0.1s0.2,0,0.3,0h0.1c0.3,0,0.6,0,0.9,0.1c0.2,0,0.3-0.1,0.5-0.1
			c0.1-0.1,0.3-0.1,0.4-0.2s0.3-0.3,0.3-0.4l0.3,0.3c0,0,0.1,0.1,0.1,0.1s0.1,0.1,0.1,0.1S100.9,147.7,100.9,147.8
			C100.9,147.8,100.9,147.8,100.9,147.8z"/>
		<path id="XMLID_1670_" class="st5" d="M100.3,154.6v1.6c0,0.1,0,0.2-0.1,0.3c-0.1,0.1-0.2,0.1-0.3,0.1h-1.2c-0.1,0-0.2,0-0.3-0.1
			c-0.1-0.1-0.1-0.2-0.1-0.3v-0.9h-0.4v-0.7h0.7c0.1,0,0.2,0,0.3,0.1c0,0,0.1,0.1,0.1,0.1s0,0.1,0,0.1v0.9h0.5v-1.2H100.3z"/>
		<path id="XMLID_1668_" class="st5" d="M99.9,145.3v1.8H99v-1.8H99.9z"/>
		<path id="XMLID_1666_" class="st5" d="M105.2,148c0.3,0.1,0.5,0.2,0.7,0.4s0.3,0.3,0.4,0.5s0.2,0.4,0.2,0.6s0.1,0.3,0.1,0.5
			s0,0.2,0,0.3v0.1v3.8h-0.9v-3.8c0-0.2,0-0.4-0.1-0.5s-0.1-0.3-0.2-0.4s-0.2-0.2-0.2-0.3s-0.2-0.1-0.3-0.2
			c-0.2-0.1-0.5-0.2-0.8-0.2c-0.2,0-0.3,0-0.5,0.1s-0.3,0.1-0.4,0.2s-0.2,0.2-0.3,0.2s-0.1,0.2-0.2,0.3c-0.1,0.2-0.2,0.5-0.2,0.8
			v0.6c0.4-0.2,0.8-0.3,1.2-0.3c0.2,0,0.4,0,0.6,0.1v1c-0.1,0-0.2-0.1-0.3-0.1s-0.2,0-0.3,0c-0.3,0-0.5,0.1-0.8,0.2
			c-0.1,0.1-0.2,0.2-0.3,0.3s-0.1,0.2-0.2,0.3v1.7h-0.9v-3.9c0-0.4,0.1-0.7,0.2-1s0.2-0.5,0.4-0.7s0.3-0.3,0.5-0.4s0.4-0.2,0.6-0.2
			s0.3-0.1,0.5-0.1s0.2,0,0.3,0h0.1C104.6,147.8,104.9,147.9,105.2,148z"/>
		<path id="XMLID_1664_" class="st5" d="M109.7,147.8c0,0,0.1,0,0.3,0s0.3,0,0.4,0.1s0.3,0.1,0.5,0.2s0.3,0.2,0.5,0.4
			s0.3,0.4,0.3,0.6s0.1,0.5,0.1,0.9v2.1c0,0.4-0.1,0.8-0.3,1.1c-0.1,0.1-0.2,0.3-0.3,0.4s-0.2,0.2-0.4,0.3s-0.3,0.2-0.5,0.2
			s-0.4,0.1-0.7,0.1c-0.3,0-0.5,0-0.7-0.1s-0.4-0.1-0.5-0.3s-0.3-0.2-0.4-0.4s-0.2-0.3-0.2-0.4c0,0,0.1-0.1,0.2-0.1s0.1-0.1,0.2-0.1
			s0.2-0.1,0.2-0.1s0.1-0.1,0.2-0.1c0.1,0.2,0.2,0.3,0.3,0.4s0.2,0.2,0.4,0.2c0.1,0.1,0.3,0.1,0.4,0.1c0.2,0,0.4-0.1,0.6-0.2
			c0.1,0,0.1-0.1,0.2-0.2s0.1-0.1,0.2-0.2s0.1-0.2,0.1-0.3s0-0.2,0-0.4V150c0-0.2-0.1-0.4-0.2-0.6c0-0.1-0.1-0.2-0.1-0.2
			s-0.1-0.1-0.2-0.2s-0.2-0.1-0.3-0.1s-0.2-0.1-0.4-0.1c-0.2,0-0.4,0-0.5,0.1s-0.3,0.1-0.4,0.2s-0.2,0.2-0.3,0.3s-0.2,0.3-0.2,0.5
			h-0.9c0-0.3,0.1-0.5,0.2-0.8s0.3-0.4,0.4-0.6s0.4-0.3,0.7-0.4S109.3,147.8,109.7,147.8L109.7,147.8L109.7,147.8z"/>
		<path id="XMLID_1662_" class="st5" d="M113.8,147.8c0,0,0.1,0,0.2,0s0.2,0,0.3,0.1s0.3,0.1,0.4,0.2s0.3,0.2,0.4,0.3
			s0.2,0.3,0.3,0.5s0.1,0.5,0.1,0.8v4.5h-0.9v-4.5c0-0.2,0-0.3-0.1-0.5c0-0.1-0.1-0.1-0.1-0.2s-0.1-0.1-0.1-0.1s-0.1-0.1-0.2-0.1
			s-0.1,0-0.2,0c-0.2,0-0.3,0-0.4,0.1s-0.2,0.1-0.3,0.1s-0.1,0.1-0.2,0.1s-0.1,0.1-0.1,0.1l-0.6-0.7c0.1-0.1,0.2-0.2,0.4-0.3
			c0.1-0.1,0.3-0.2,0.5-0.2S113.5,147.8,113.8,147.8z"/>
		<path id="XMLID_1660_" class="st5" d="M121.6,147.9v3.9v0.1c0,0.1,0,0.2,0,0.3s0,0.3-0.1,0.5s-0.1,0.4-0.2,0.5s-0.2,0.4-0.4,0.5
			s-0.4,0.3-0.6,0.4s-0.5,0.1-0.9,0.1h-0.2c-0.3,0-0.5-0.1-0.7-0.1c-0.1,0-0.2-0.1-0.3-0.1s-0.2-0.1-0.2-0.2s-0.1-0.1-0.2-0.2
			s-0.1-0.2-0.1-0.3v0.9h-0.9v-6.3h0.9v3.9c0,0,0,0.1,0,0.2s0,0.2,0.1,0.3s0.1,0.2,0.1,0.4s0.1,0.3,0.3,0.4s0.2,0.2,0.4,0.3
			s0.4,0.1,0.6,0.1c0,0,0.1,0,0.2,0s0.2,0,0.3-0.1s0.2-0.1,0.4-0.1s0.2-0.2,0.3-0.3s0.2-0.3,0.3-0.4s0.1-0.4,0.1-0.7v-3.9H121.6z"/>
		<path id="XMLID_1658_" class="st5" d="M123.3,154.2v-6.4c0-0.1,0-0.2-0.1-0.4s-0.1-0.2-0.2-0.4s-0.2-0.2-0.3-0.4s-0.2-0.2-0.3-0.4
			s-0.2-0.3-0.2-0.4s-0.1-0.3-0.1-0.4c0-0.2,0-0.4,0.1-0.6s0.1-0.4,0.2-0.6s0.3-0.3,0.5-0.5s0.5-0.2,0.8-0.2h2.4v0.9H124
			c-0.2,0-0.3,0.1-0.4,0.1c-0.1,0-0.1,0.1-0.1,0.1s-0.1,0.1-0.1,0.2s-0.1,0.1-0.1,0.2s0,0.2,0,0.3c0,0.2,0,0.3,0.1,0.4
			s0.1,0.2,0.2,0.3s0.2,0.2,0.3,0.3s0.2,0.3,0.4,0.5c0,0.1,0.1,0.1,0.1,0.2c0,0.1,0,0.2,0.1,0.3s0,0.2,0,0.4v6.2H123.3z"/>
		<path id="XMLID_1656_" class="st5" d="M129.1,149.1c0.2,0.1,0.4,0.1,0.5,0.3s0.2,0.3,0.2,0.5v2.2c0,0.4,0,0.6-0.1,0.9
			s-0.2,0.4-0.4,0.6s-0.3,0.3-0.5,0.4s-0.4,0.2-0.5,0.2s-0.3,0.1-0.4,0.1s-0.2,0-0.2,0c-0.4,0-0.7,0-0.9-0.1s-0.5-0.2-0.6-0.4
			s-0.3-0.3-0.4-0.5s-0.2-0.4-0.2-0.5s-0.1-0.3-0.1-0.4s0-0.2,0-0.2c0-0.2,0-0.4,0.1-0.6s0.1-0.3,0.2-0.4s0.2-0.3,0.3-0.4
			s0.2-0.2,0.3-0.3s0.2-0.2,0.2-0.3s0.1-0.2,0.1-0.3c0,0,0-0.1,0-0.1s0,0,0-0.1c0-0.1,0-0.3-0.1-0.4s-0.1-0.2-0.2-0.2
			s-0.2-0.1-0.3-0.2s-0.2-0.1-0.3-0.1s-0.2,0-0.2,0s-0.1,0-0.2,0h-0.1v-0.9h0.6c0.3,0,0.5,0,0.7,0.1s0.3,0.2,0.5,0.3
			s0.2,0.2,0.3,0.4s0.1,0.3,0.2,0.4s0.1,0.3,0.1,0.4s0,0.2,0,0.3c0,0,0,0,0,0.1s0,0,0,0v0c0,0.1,0,0.2-0.1,0.3s-0.1,0.2-0.2,0.3
			c-0.1,0.1-0.1,0.2-0.2,0.3c-0.2,0.2-0.3,0.4-0.4,0.5s-0.2,0.3-0.2,0.4s-0.1,0.2-0.1,0.3s0,0.1,0,0.1c0,0.2,0,0.4,0.1,0.5
			s0.1,0.3,0.2,0.4s0.2,0.2,0.3,0.2s0.2,0.1,0.3,0.1s0.2,0,0.2,0s0.1,0,0.1,0c0.2,0,0.4,0,0.5-0.1c0.1-0.1,0.3-0.1,0.4-0.2
			s0.2-0.2,0.2-0.3s0.1-0.2,0.1-0.3s0.1-0.2,0.1-0.3s0-0.1,0-0.1v-2c0-0.4-0.3-0.6-0.8-0.6h-0.3v-0.7h0.3c0.3,0,0.5-0.1,0.6-0.2
			s0.2-0.3,0.2-0.5v-0.2h0.9v0.4C129.8,148.7,129.6,149,129.1,149.1z"/>
		<path id="XMLID_1654_" class="st5" d="M134.4,148c0.3,0.1,0.5,0.2,0.7,0.4s0.3,0.3,0.4,0.5s0.2,0.4,0.2,0.6s0.1,0.3,0.1,0.5
			s0,0.2,0,0.3v0.1v3.8H135v-3.8c0-0.2,0-0.4-0.1-0.5s-0.1-0.3-0.2-0.4s-0.2-0.2-0.2-0.3s-0.2-0.1-0.3-0.2c-0.2-0.1-0.5-0.2-0.8-0.2
			c-0.2,0-0.3,0-0.5,0.1s-0.3,0.1-0.4,0.2s-0.2,0.2-0.3,0.2s-0.1,0.2-0.2,0.3c-0.1,0.2-0.2,0.5-0.2,0.8v0.6c0.4-0.2,0.8-0.3,1.2-0.3
			c0.2,0,0.4,0,0.6,0.1v1c-0.1,0-0.2-0.1-0.3-0.1s-0.2,0-0.3,0c-0.3,0-0.5,0.1-0.8,0.2c-0.1,0.1-0.2,0.2-0.3,0.3s-0.1,0.2-0.2,0.3
			v1.7H131v-3.9c0-0.4,0.1-0.7,0.2-1s0.2-0.5,0.4-0.7s0.3-0.3,0.5-0.4s0.4-0.2,0.6-0.2s0.3-0.1,0.5-0.1s0.2,0,0.3,0h0.1
			C133.8,147.8,134.2,147.9,134.4,148z"/>
		<path id="XMLID_1652_" class="st5" d="M141.1,154.2v-4c0-0.3-0.1-0.5-0.2-0.7c-0.1-0.1-0.1-0.2-0.2-0.3s-0.2-0.2-0.3-0.2
			s-0.2-0.1-0.4-0.2s-0.3-0.1-0.5-0.1s-0.4,0-0.5,0.1s-0.3,0.1-0.4,0.2s-0.2,0.1-0.3,0.2s-0.1,0.2-0.2,0.3c-0.1,0.2-0.2,0.4-0.2,0.7
			v2.1c0,0.1,0,0.3,0.1,0.4c0,0.1,0.1,0.2,0.1,0.3s0.1,0.2,0.2,0.3c0.1,0.1,0.3,0.1,0.4,0.1c0.1,0,0.2,0,0.3-0.1s0.2-0.1,0.2-0.2
			l0.6,0.6c-0.1,0.1-0.2,0.2-0.3,0.2c-0.1,0.1-0.2,0.1-0.4,0.2s-0.3,0.1-0.5,0.1c-0.1,0-0.1,0-0.2,0s-0.1,0-0.2,0
			c-0.2-0.1-0.4-0.1-0.6-0.3s-0.3-0.3-0.4-0.5s-0.2-0.4-0.3-0.6s-0.1-0.4-0.1-0.6v-2.1c0-0.4,0.1-0.7,0.2-1s0.3-0.5,0.4-0.7
			s0.3-0.3,0.5-0.4s0.4-0.2,0.5-0.2s0.3-0.1,0.5-0.1s0.2,0,0.3,0h0.1h0.1c0.1,0,0.2,0,0.3,0s0.3,0,0.5,0.1s0.4,0.1,0.5,0.2
			s0.4,0.2,0.5,0.4s0.3,0.4,0.4,0.7s0.2,0.6,0.2,1v4H141.1z"/>
		<path id="XMLID_1650_" class="st5" d="M141.3,145.7v1.4h-3.5v-0.9h2.6v-0.6H141.3z"/>
		<path id="XMLID_1647_" class="st5" d="M49.7,168.5h-0.9v-6.3h0.9V168.5z M51.7,168.5h-0.9v-6.3h0.9V168.5z"/>
		<path id="XMLID_1645_" class="st5" d="M56.1,162.4c0.3,0.1,0.5,0.2,0.7,0.4s0.3,0.3,0.4,0.5s0.2,0.4,0.2,0.6s0.1,0.3,0.1,0.5
			s0,0.2,0,0.3v0.1v3.8h-0.9v-1.9c0-0.2,0-0.3-0.1-0.5s-0.2-0.2-0.3-0.3s-0.3-0.1-0.4-0.2s-0.3-0.1-0.4-0.1s-0.3,0-0.4,0
			c0,0,0,0-0.1,0s-0.1,0-0.2,0s-0.2,0.1-0.3,0.1s-0.2,0.1-0.3,0.2s-0.2,0.2-0.3,0.3s-0.1,0.3-0.2,0.4c0,0.1,0,0.1,0,0.2
			c0,0.1,0,0.2,0.1,0.3s0.2,0.2,0.3,0.2s0.2,0.1,0.3,0.2s0.3,0.1,0.4,0.1s0.2,0,0.3,0s0.2,0,0.2,0h0.1v0.9h-1.1
			c-0.2,0-0.4,0-0.6-0.1s-0.4-0.2-0.5-0.4s-0.3-0.3-0.3-0.6s-0.1-0.4-0.1-0.7c0-0.2,0.1-0.5,0.2-0.7s0.3-0.5,0.5-0.7
			c0.1-0.1,0.3-0.2,0.4-0.3s0.3-0.2,0.5-0.2s0.3-0.1,0.5-0.1s0.3,0,0.4,0c0.2,0,0.4,0,0.6,0.1s0.4,0.1,0.5,0.1
			c0.2,0.1,0.3,0.1,0.4,0.2v-0.4c0-0.2,0-0.4-0.1-0.5s-0.1-0.3-0.2-0.4s-0.2-0.2-0.2-0.3s-0.2-0.1-0.3-0.2c-0.2-0.1-0.5-0.2-0.8-0.2
			c-0.3,0-0.5,0-0.6,0.1s-0.3,0.2-0.4,0.3s-0.2,0.3-0.3,0.4s-0.1,0.3-0.1,0.4h-1c0-0.3,0.1-0.6,0.2-0.9s0.2-0.4,0.4-0.6
			s0.3-0.3,0.5-0.4s0.4-0.2,0.5-0.2s0.3-0.1,0.5-0.1s0.2,0,0.3,0h0.1C55.4,162.2,55.8,162.3,56.1,162.4z"/>
		<path id="XMLID_1642_" class="st5" d="M59.1,162.8v0.5h1.6v0.9h-2.1c-0.1,0-0.2,0-0.2-0.1s-0.1-0.1-0.1-0.1c0-0.1-0.1-0.1-0.1-0.2
			v-0.9H59.1z M59.1,166.6v0.5h1.6v0.9h-2.1c-0.1,0-0.2,0-0.2-0.1s-0.1-0.1-0.1-0.1c0-0.1-0.1-0.1-0.1-0.2v-0.9H59.1z"/>
		<path id="XMLID_1640_" class="st5" d="M68.5,162.4c0.3,0.1,0.5,0.2,0.7,0.4s0.3,0.3,0.4,0.5s0.2,0.4,0.2,0.6s0.1,0.3,0.1,0.5
			s0,0.2,0,0.3v0.1v3.8H69v-3.8c0-0.2,0-0.4-0.1-0.5s-0.1-0.3-0.2-0.4s-0.2-0.2-0.2-0.3s-0.2-0.1-0.3-0.2c-0.2-0.1-0.5-0.2-0.8-0.2
			c-0.2,0-0.3,0-0.5,0.1s-0.3,0.1-0.4,0.2s-0.2,0.2-0.3,0.2s-0.1,0.2-0.2,0.3c-0.1,0.2-0.2,0.5-0.2,0.8v0.6c0.4-0.2,0.8-0.3,1.2-0.3
			c0.2,0,0.4,0,0.6,0.1v1c-0.1,0-0.2-0.1-0.3-0.1s-0.2,0-0.3,0c-0.3,0-0.5,0.1-0.8,0.2c-0.1,0.1-0.2,0.2-0.3,0.3s-0.1,0.2-0.2,0.3
			v1.7H65v-3.9c0-0.4,0.1-0.7,0.2-1s0.2-0.5,0.4-0.7s0.3-0.3,0.5-0.4s0.4-0.2,0.6-0.2s0.3-0.1,0.5-0.1s0.2,0,0.3,0h0.1
			C67.9,162.2,68.2,162.3,68.5,162.4z"/>
		<path id="XMLID_1638_" class="st5" d="M73,162.2c0,0,0.1,0,0.3,0s0.3,0,0.4,0.1s0.3,0.1,0.5,0.2s0.3,0.2,0.5,0.4s0.3,0.4,0.3,0.6
			s0.1,0.5,0.1,0.9v2.1c0,0.4-0.1,0.8-0.3,1.1c-0.1,0.1-0.2,0.3-0.3,0.4s-0.2,0.2-0.4,0.3s-0.3,0.2-0.5,0.2s-0.4,0.1-0.7,0.1
			c-0.3,0-0.5,0-0.7-0.1s-0.4-0.1-0.5-0.3s-0.3-0.2-0.4-0.4s-0.2-0.3-0.2-0.4c0,0,0.1-0.1,0.2-0.1s0.1-0.1,0.2-0.1s0.2-0.1,0.2-0.1
			s0.1-0.1,0.2-0.1c0.1,0.2,0.2,0.3,0.3,0.4s0.2,0.2,0.4,0.2c0.1,0.1,0.3,0.1,0.4,0.1c0.2,0,0.4-0.1,0.6-0.2c0.1,0,0.1-0.1,0.2-0.2
			s0.1-0.1,0.2-0.2s0.1-0.2,0.1-0.3s0-0.2,0-0.4v-2.1c0-0.2-0.1-0.4-0.2-0.6c0-0.1-0.1-0.2-0.1-0.2s-0.1-0.1-0.2-0.2
			s-0.2-0.1-0.3-0.1s-0.2-0.1-0.4-0.1c-0.2,0-0.4,0-0.5,0.1s-0.3,0.1-0.4,0.2s-0.2,0.2-0.3,0.3s-0.2,0.3-0.2,0.5h-0.9
			c0-0.3,0.1-0.5,0.2-0.8s0.3-0.4,0.4-0.6s0.4-0.3,0.7-0.4S72.6,162.2,73,162.2L73,162.2L73,162.2z"/>
		<path id="XMLID_1636_" class="st5" d="M77.1,162.2c0,0,0.1,0,0.2,0s0.2,0,0.3,0.1s0.3,0.1,0.4,0.2s0.3,0.2,0.4,0.3
			s0.2,0.3,0.3,0.5s0.1,0.5,0.1,0.8v4.5h-0.9v-4.5c0-0.2,0-0.3-0.1-0.5c0-0.1-0.1-0.1-0.1-0.2s-0.1-0.1-0.1-0.1s-0.1-0.1-0.2-0.1
			s-0.1,0-0.2,0c-0.2,0-0.3,0-0.4,0.1s-0.2,0.1-0.3,0.1s-0.1,0.1-0.2,0.1s-0.1,0.1-0.1,0.1l-0.6-0.7c0.1-0.1,0.2-0.2,0.4-0.3
			c0.1-0.1,0.3-0.2,0.5-0.2S76.8,162.2,77.1,162.2z"/>
		<path id="XMLID_1634_" class="st5" d="M84.9,162.3v3.9v0.1c0,0.1,0,0.2,0,0.3s0,0.3-0.1,0.5s-0.1,0.4-0.2,0.5s-0.2,0.4-0.4,0.5
			s-0.4,0.3-0.6,0.4s-0.5,0.1-0.9,0.1h-0.2c-0.3,0-0.5-0.1-0.7-0.1c-0.1,0-0.2-0.1-0.3-0.1s-0.2-0.1-0.2-0.2s-0.1-0.1-0.2-0.2
			s-0.1-0.2-0.1-0.3v0.9h-0.9v-6.3H81v3.9c0,0,0,0.1,0,0.2s0,0.2,0.1,0.3s0.1,0.2,0.1,0.4s0.1,0.3,0.3,0.4s0.2,0.2,0.4,0.3
			s0.4,0.1,0.6,0.1c0,0,0.1,0,0.2,0s0.2,0,0.3-0.1s0.2-0.1,0.4-0.1s0.2-0.2,0.3-0.3s0.2-0.3,0.3-0.4s0.1-0.4,0.1-0.7v-3.9H84.9z"/>
		<path id="XMLID_1632_" class="st5" d="M91.9,162.3v4.8c0,0.3-0.1,0.6-0.3,0.8c-0.1,0.1-0.1,0.2-0.2,0.3s-0.2,0.2-0.3,0.3
			s-0.3,0.1-0.4,0.2s-0.4,0.1-0.6,0.1c-0.2,0-0.3,0-0.4-0.1s-0.3-0.1-0.4-0.2s-0.2-0.2-0.2-0.3s-0.1-0.3-0.1-0.4
			c0,0.2,0,0.3-0.1,0.4s-0.1,0.2-0.2,0.3s-0.2,0.1-0.4,0.2s-0.3,0.1-0.4,0.1c-0.2,0-0.4,0-0.6-0.1s-0.3-0.1-0.4-0.2
			s-0.2-0.2-0.3-0.3s-0.2-0.2-0.2-0.3c-0.1-0.2-0.2-0.5-0.3-0.8v-4.8h1.5v0.9H87v3.5c0,0.3,0,0.5,0.1,0.6s0.1,0.3,0.2,0.3
			s0.2,0.1,0.3,0.1s0.2,0,0.2,0h0c0.2,0,0.3,0,0.4-0.1s0.2-0.2,0.2-0.3s0.1-0.2,0.1-0.3s0-0.2,0-0.3v-0.1v-4.4h0.8v4.4v0.1
			c0,0.1,0,0.1,0,0.3s0,0.2,0.1,0.3s0.1,0.2,0.2,0.3s0.2,0.1,0.4,0.1h0c0,0,0.1,0,0.2,0s0.2-0.1,0.3-0.1s0.2-0.2,0.2-0.3
			s0.1-0.4,0.1-0.6v-4.4H91.9z"/>
		<path id="XMLID_1630_" class="st5" d="M93.9,162.2c0,0,0.1,0,0.2,0s0.2,0,0.3,0.1s0.3,0.1,0.4,0.2s0.3,0.2,0.4,0.3
			s0.2,0.3,0.3,0.5s0.1,0.5,0.1,0.8v4.5h-0.9v-4.5c0-0.2,0-0.3-0.1-0.5c0-0.1-0.1-0.1-0.1-0.2s-0.1-0.1-0.1-0.1s-0.1-0.1-0.2-0.1
			s-0.1,0-0.2,0c-0.2,0-0.3,0-0.4,0.1s-0.2,0.1-0.3,0.1s-0.1,0.1-0.2,0.1s-0.1,0.1-0.1,0.1l-0.6-0.7c0.1-0.1,0.2-0.2,0.4-0.3
			c0.1-0.1,0.3-0.2,0.5-0.2S93.6,162.2,93.9,162.2z"/>
		<path id="XMLID_1628_" class="st5" d="M101.9,162.2C101.9,162.2,101.9,162.2,101.9,162.2c-0.1,0.1-0.1,0.2-0.2,0.3
			s-0.1,0.1-0.2,0.2s-0.1,0.1-0.2,0.2s-0.1,0.1-0.2,0.1s-0.1,0.1-0.1,0.1c0.1,0.2,0.2,0.3,0.3,0.5s0.1,0.3,0.2,0.5s0.1,0.3,0.1,0.4
			s0,0.2,0,0.3v0.1v3.8h-0.9v-1.9c0-0.2,0-0.3-0.1-0.5s-0.2-0.2-0.3-0.3s-0.3-0.1-0.4-0.2s-0.3-0.1-0.4-0.1s-0.3,0-0.4,0
			c0,0,0,0-0.1,0s-0.1,0-0.2,0s-0.2,0.1-0.3,0.1s-0.2,0.1-0.3,0.2s-0.2,0.2-0.3,0.3s-0.1,0.3-0.2,0.4c0,0,0,0.1,0,0.1s0,0,0,0.1
			c0,0.1,0,0.2,0.1,0.3s0.2,0.2,0.3,0.2s0.2,0.1,0.3,0.2s0.3,0.1,0.4,0.1s0.2,0,0.3,0s0.2,0,0.2,0h0.1v0.9h-1.1
			c-0.2,0-0.4,0-0.6-0.1s-0.4-0.2-0.5-0.4s-0.3-0.3-0.3-0.6s-0.1-0.4-0.1-0.7c0-0.2,0.1-0.5,0.2-0.7s0.3-0.5,0.5-0.7
			c0.1-0.1,0.3-0.2,0.4-0.3s0.3-0.2,0.5-0.2s0.3-0.1,0.5-0.1s0.3,0,0.4,0c0.2,0,0.4,0,0.6,0.1s0.4,0.1,0.5,0.1
			c0.2,0.1,0.3,0.1,0.4,0.2v-0.4c0-0.2,0-0.4-0.1-0.5s-0.1-0.3-0.2-0.4s-0.2-0.2-0.2-0.3s-0.2-0.1-0.3-0.2c-0.2-0.1-0.5-0.2-0.8-0.2
			c-0.3,0-0.5,0-0.6,0.1s-0.3,0.2-0.4,0.3s-0.2,0.3-0.3,0.4s-0.1,0.3-0.1,0.4h-1c0-0.3,0.1-0.6,0.2-0.9s0.2-0.4,0.4-0.6
			s0.3-0.3,0.5-0.4s0.4-0.2,0.5-0.2s0.3-0.1,0.5-0.1s0.2,0,0.3,0h0.1c0.3,0,0.6,0,0.9,0.1c0.2,0,0.3-0.1,0.5-0.1
			c0.1-0.1,0.3-0.1,0.4-0.2s0.3-0.3,0.3-0.4l0.3,0.3c0,0,0.1,0.1,0.1,0.1s0.1,0.1,0.1,0.1S101.8,162.1,101.9,162.2
			C101.9,162.2,101.9,162.2,101.9,162.2z"/>
		<path id="XMLID_1626_" class="st5" d="M100.4,170h-0.4v-0.9h0.9c0.1,0,0.2,0,0.3,0.1c0.1,0.1,0.1,0.2,0.1,0.3v1.8h-0.9V170z"/>
		<path id="XMLID_1624_" class="st5" d="M102.7,168.5v-4.8c0.1-0.2,0.3-0.4,0.4-0.6s0.3-0.3,0.5-0.4s0.3-0.2,0.5-0.3
			s0.3-0.1,0.4-0.1s0.3-0.1,0.4-0.1s0.2,0,0.2,0h0.1c0.3,0,0.6,0,0.8,0.1s0.4,0.2,0.6,0.3s0.3,0.2,0.4,0.4s0.2,0.3,0.3,0.4
			s0.1,0.3,0.2,0.4s0.1,0.3,0.1,0.4s0,0.2,0,0.3s0,0.1,0,0.2v3.9h-0.9v-3.9c0-0.3,0-0.5-0.1-0.6s-0.2-0.3-0.3-0.4s-0.2-0.2-0.3-0.3
			s-0.2-0.1-0.4-0.1s-0.2,0-0.3,0s-0.1,0-0.2,0c-0.2,0-0.4,0-0.5,0.1s-0.3,0.1-0.4,0.2s-0.2,0.2-0.3,0.2s-0.1,0.2-0.2,0.3
			c-0.1,0.2-0.2,0.5-0.2,0.7v3.9H102.7z"/>
	</g>
</g>
</svg>
