<?xml version="1.0" encoding="utf-8"?>
<!-- Generator: Adobe Illustrator 19.0.0, SVG Export Plug-In . SVG Version: 6.00 Build 0)  -->
<svg version="1.1" id="Layer_1" xmlns="http://www.w3.org/2000/svg" xmlns:xlink="http://www.w3.org/1999/xlink" x="0px" y="0px"
	 viewBox="0 0 166 167" style="enable-background:new 0 0 166 167;" xml:space="preserve">
<style type="text/css">
	.st0{fill:#FFFFFF;}
	.st1{fill:#5B602A;}
	.st2{fill:#CD202B;}
	.st3{fill:none;stroke:#B78534;stroke-width:4;stroke-miterlimit:10;}
	.st4{fill:#EE2F52;}
	.st5{fill:#EC5624;}
	.st6{fill:#41BA89;}
	.st7{fill:#B78534;}
	.st8{fill:#E1A042;}
	.st9{fill:#404040;stroke:#404040;stroke-width:0.5;stroke-miterlimit:10;}
	.st10{fill:#404040;}
</style>
<polygon id="XMLID_7079_" class="st0" points="19.2,166.2 19.2,147.1 0,166.3 "/>
<rect id="XMLID_7078_" x="18.6" y="0" class="st1" width="147.4" height="167"/>
<rect id="XMLID_7085_" x="18.4" y="84.5" class="st0" width="147.7" height="81.8"/>
<g id="XMLID_5781_">
	<circle id="XMLID_5782_" class="st2" cx="29.5" cy="97.8" r="4"/>
	<path id="XMLID_5783_" class="st2" d="M25.4,97.8h8.1v10.1C33.5,107.9,25.4,103,25.4,97.8z"/>
	<circle id="XMLID_2499_" class="st2" cx="37.5" cy="97.7" r="4"/>
	<path id="XMLID_2498_" class="st2" d="M41.5,97.7h-8.1v10.1C33.5,107.7,41.5,102.8,41.5,97.7z"/>
</g>
<g id="XMLID_2474_">
	<path id="XMLID_2496_" class="st3" d="M117.9,61H73.4c-7.7,0-14-6.3-14-14V25.6c0-7.7,6.3-14,14-14h44.5c7.7,0,14,6.3,14,14V47
		C131.9,54.7,125.6,61,117.9,61z"/>
	<circle id="XMLID_5784_" class="st4" cx="81.8" cy="45.1" r="16.5"/>
	<circle id="XMLID_5785_" class="st5" cx="102.6" cy="37.3" r="10.4"/>
	<circle id="XMLID_5786_" class="st6" cx="118.5" cy="37.2" r="11.6"/>
	<path id="XMLID_2492_" class="st7" d="M119.9,75H71.6c-7.7,0-14-6.3-14-14V43.1c0-7.7,6.3-4.5,14-4.5h48.2c7.7,0,14-3,14,4.7V61
		C133.9,68.7,127.6,75,119.9,75z"/>
	<path id="XMLID_5787_" class="st8" d="M135.6,44.8H54.4c-2,0-3.6-1.6-3.6-3.6l0,0c0-2,1.6-3.6,3.6-3.6h81.2c2,0,3.6,1.6,3.6,3.6
		l0,0C139.2,43.2,137.6,44.8,135.6,44.8z"/>
</g>
<g id="XMLID_1_">
	<g id="XMLID_1323_">
		<path id="XMLID_1450_" class="st9" d="M54.8,96.4c0.1,0.2,0.2,0.4,0.3,0.6c0.1,0.2,0.1,0.4,0.2,0.7v5.2h-1.1V98
			c0-0.3-0.1-0.6-0.2-0.8c-0.1-0.2-0.3-0.4-0.4-0.5l-1.2,0.8l-1.2-0.8c-0.2,0.1-0.3,0.3-0.4,0.5c-0.1,0.2-0.2,0.5-0.2,0.8v2.6
			c0,0.2,0.1,0.4,0.2,0.6c0,0.1,0.1,0.2,0.1,0.2c0.1,0.1,0.1,0.1,0.2,0.2c0.1,0.1,0.2,0.1,0.3,0.1c0.1,0,0.3,0.1,0.4,0.1h0.8v1h-1.4
			c-0.3,0-0.6-0.1-0.8-0.3c-0.1-0.1-0.2-0.2-0.3-0.3c-0.1-0.1-0.2-0.2-0.3-0.4c-0.1-0.1-0.1-0.3-0.2-0.5c0-0.2-0.1-0.4-0.1-0.7v-3.1
			c0.1-0.5,0.2-0.9,0.5-1.3s0.6-0.6,1.1-0.8l1.3,0.8l1.3-0.8C54.1,95.8,54.5,96,54.8,96.4z"/>
		<path id="XMLID_1447_" class="st9" d="M57.3,96.3v0.5h1.9v1h-2.4c-0.1,0-0.2,0-0.3-0.1s-0.1-0.1-0.1-0.2c0-0.1-0.1-0.2-0.1-0.2
			v-1.1H57.3z M57.3,100.7v0.5h1.9v1h-2.4c-0.1,0-0.2,0-0.3-0.1s-0.1-0.1-0.1-0.2c0-0.1-0.1-0.2-0.1-0.2v-1.1H57.3z"/>
		<path id="XMLID_1445_" class="st9" d="M60.3,102.9v-5.5c0.1-0.3,0.3-0.5,0.5-0.7s0.4-0.4,0.5-0.5c0.2-0.1,0.4-0.2,0.6-0.3
			c0.2-0.1,0.3-0.1,0.5-0.2c0.2,0,0.3-0.1,0.4-0.1c0.1,0,0.2,0,0.3,0h0.1c0.3,0,0.7,0.1,0.9,0.1c0.3,0.1,0.5,0.2,0.7,0.3
			s0.4,0.3,0.5,0.4c0.1,0.2,0.3,0.3,0.3,0.5c0.1,0.2,0.2,0.3,0.2,0.5s0.1,0.3,0.1,0.4s0,0.2,0,0.3c0,0.1,0,0.2,0,0.2v4.5h-1.1v-4.5
			c0-0.3,0-0.5-0.1-0.7c-0.1-0.2-0.2-0.4-0.3-0.5c-0.1-0.1-0.3-0.2-0.4-0.3c-0.1-0.1-0.3-0.1-0.4-0.2c-0.1,0-0.2-0.1-0.3-0.1
			c-0.1,0-0.2,0-0.2,0c-0.2,0-0.4,0-0.6,0.1c-0.2,0-0.3,0.1-0.4,0.2c-0.1,0.1-0.2,0.2-0.3,0.3c-0.1,0.1-0.2,0.2-0.2,0.3
			c-0.1,0.3-0.2,0.5-0.2,0.9v4.5H60.3z"/>
		<path id="XMLID_1443_" class="st9" d="M71.4,97.5l-0.5-0.3c-0.1-0.1-0.2-0.1-0.4-0.2c-0.1-0.1-0.3-0.1-0.4-0.2
			c-0.1,0-0.3-0.1-0.4-0.1c-0.1,0-0.2,0-0.3,0c-0.2,0-0.3,0-0.5,0s-0.3,0.1-0.4,0.2c-0.1,0.1-0.2,0.2-0.3,0.3s-0.1,0.3-0.1,0.5
			s0.1,0.4,0.2,0.5c0.1,0.1,0.3,0.2,0.5,0.3s0.4,0.1,0.6,0.2s0.5,0.1,0.7,0.1c0.2,0,0.5,0.1,0.7,0.2c0.2,0.1,0.4,0.3,0.6,0.4
			s0.3,0.4,0.4,0.6c0.1,0.2,0.2,0.5,0.2,0.7c0,0.4-0.1,0.7-0.2,1c-0.1,0.3-0.3,0.5-0.5,0.7c-0.2,0.2-0.5,0.3-0.8,0.4
			c-0.3,0.1-0.6,0.1-1,0.1c-0.5,0-0.9-0.1-1.3-0.2c-0.3-0.1-0.6-0.2-0.9-0.4c-0.3-0.2-0.5-0.3-0.7-0.5l0.7-0.7
			c0.1,0.1,0.2,0.2,0.3,0.3c0.1,0.1,0.3,0.2,0.5,0.2c0.2,0.1,0.4,0.1,0.6,0.2c0.2,0,0.4,0.1,0.6,0.1c0.2,0,0.4,0,0.6-0.1
			c0.2-0.1,0.3-0.1,0.5-0.2c0.1-0.1,0.2-0.2,0.3-0.4c0.1-0.1,0.1-0.3,0.1-0.5c0-0.2,0-0.3-0.1-0.4c-0.1-0.1-0.1-0.2-0.2-0.3
			s-0.2-0.1-0.2-0.1c-0.1,0-0.1,0-0.2-0.1c0,0-0.1,0-0.2,0c-0.1,0-0.3,0-0.4-0.1c-0.2,0-0.3-0.1-0.5-0.1c-0.2,0-0.3,0-0.4-0.1
			c-0.1,0-0.1,0-0.2-0.1s-0.2-0.1-0.3-0.1c-0.1-0.1-0.2-0.1-0.4-0.2c-0.1-0.1-0.2-0.2-0.3-0.3c-0.1-0.1-0.2-0.3-0.2-0.5
			C67.1,98.2,67,98,67,97.7c0-0.4,0.1-0.7,0.2-1c0.1-0.3,0.3-0.5,0.5-0.7s0.5-0.3,0.8-0.4s0.6-0.1,0.9-0.1c0.3,0,0.6,0,0.8,0.1
			c0.2,0.1,0.5,0.1,0.6,0.2c0.2,0.1,0.4,0.2,0.6,0.3l0.6,0.4L71.4,97.5z"/>
		<path id="XMLID_1441_" class="st9" d="M71.7,93.8v1h-3v-1.4h-0.5v-1h1.1c0.1,0,0.2,0,0.2,0.1c0.1,0,0.1,0.1,0.2,0.1
			c0,0.1,0.1,0.2,0.1,0.3v0.9H71.7z"/>
		<path id="XMLID_1439_" class="st9" d="M74,95.6c0,0,0.1,0,0.2,0c0.1,0,0.2,0,0.4,0.1c0.1,0,0.3,0.1,0.5,0.2s0.3,0.2,0.4,0.4
			c0.1,0.2,0.2,0.4,0.3,0.6s0.1,0.5,0.1,0.9v5.1h-1.1v-5.1c0-0.2,0-0.4-0.1-0.5c0-0.1-0.1-0.1-0.1-0.2c0-0.1-0.1-0.1-0.1-0.2
			c-0.1,0-0.1-0.1-0.2-0.1s-0.2,0-0.3,0c-0.2,0-0.3,0-0.5,0.1c-0.1,0-0.2,0.1-0.3,0.1S73.1,97,73.1,97c0,0.1-0.1,0.1-0.1,0.1
			l-0.7-0.8c0.1-0.1,0.3-0.3,0.4-0.4c0.1-0.1,0.3-0.2,0.6-0.3C73.5,95.6,73.7,95.6,74,95.6z"/>
		<path id="XMLID_1437_" class="st9" d="M84.1,95.6v5.5c0,0.3-0.1,0.7-0.3,0.9c-0.1,0.1-0.2,0.2-0.3,0.3c-0.1,0.1-0.2,0.2-0.4,0.3
			c-0.1,0.1-0.3,0.2-0.5,0.2S82.3,103,82,103c-0.2,0-0.3,0-0.5-0.1s-0.3-0.1-0.4-0.2s-0.2-0.2-0.3-0.3s-0.1-0.3-0.1-0.5
			c0,0.2,0,0.3-0.1,0.5c-0.1,0.1-0.2,0.3-0.3,0.3s-0.3,0.2-0.4,0.2c-0.2,0-0.3,0.1-0.5,0.1c-0.2,0-0.5,0-0.6-0.1
			c-0.2-0.1-0.4-0.1-0.5-0.2c-0.1-0.1-0.3-0.2-0.4-0.3c-0.1-0.1-0.2-0.2-0.2-0.3c-0.2-0.3-0.3-0.6-0.3-0.9v-5.5h1.7v1h-0.7v4
			c0,0.3,0,0.6,0.1,0.7s0.2,0.3,0.3,0.4c0.1,0.1,0.2,0.1,0.3,0.1c0.1,0,0.2,0,0.2,0h0c0.2,0,0.3,0,0.4-0.1s0.2-0.2,0.2-0.3
			s0.1-0.3,0.1-0.4s0-0.2,0-0.3v-0.1v-5h1v5v0.1c0,0.1,0,0.2,0,0.3s0.1,0.3,0.1,0.4s0.1,0.2,0.3,0.3s0.3,0.1,0.4,0.1h0.1
			c0,0,0.1,0,0.2,0s0.2-0.1,0.3-0.1c0.1-0.1,0.2-0.2,0.3-0.4c0.1-0.2,0.1-0.4,0.1-0.7v-5H84.1z"/>
		<path id="XMLID_1435_" class="st9" d="M89,95.8c0.3,0.1,0.6,0.3,0.8,0.5c0.2,0.2,0.4,0.4,0.5,0.6c0.1,0.2,0.2,0.4,0.3,0.6
			c0.1,0.2,0.1,0.4,0.1,0.6c0,0.2,0,0.3,0,0.4v0.1v4.4h-1.1v-2.1c0-0.2,0-0.4-0.1-0.5c-0.1-0.1-0.2-0.3-0.4-0.3
			c-0.1-0.1-0.3-0.2-0.5-0.2c-0.2-0.1-0.3-0.1-0.5-0.1s-0.3,0-0.5-0.1c0,0-0.1,0-0.1,0c-0.1,0-0.2,0-0.3,0c-0.1,0-0.2,0.1-0.4,0.1
			s-0.2,0.1-0.4,0.2s-0.2,0.2-0.3,0.3c-0.1,0.1-0.2,0.3-0.2,0.5c0,0.1,0,0.1,0,0.2c0,0.2,0,0.3,0.1,0.4s0.2,0.2,0.3,0.3
			c0.1,0.1,0.2,0.1,0.4,0.2c0.1,0,0.3,0.1,0.4,0.1c0.1,0,0.3,0,0.4,0s0.2,0,0.3,0H88v1h-1.2c-0.3,0-0.5-0.1-0.7-0.2
			c-0.2-0.1-0.4-0.3-0.6-0.4c-0.2-0.2-0.3-0.4-0.4-0.6c-0.1-0.2-0.1-0.5-0.1-0.8c0-0.3,0.1-0.5,0.2-0.8c0.1-0.3,0.3-0.5,0.6-0.8
			c0.2-0.2,0.3-0.3,0.5-0.4c0.2-0.1,0.3-0.2,0.5-0.2c0.2-0.1,0.3-0.1,0.5-0.1c0.2,0,0.3,0,0.5,0c0.2,0,0.5,0,0.7,0.1
			s0.4,0.1,0.6,0.2c0.2,0.1,0.4,0.1,0.5,0.2v-0.4c0-0.2,0-0.4-0.1-0.6c0-0.2-0.1-0.3-0.2-0.4c-0.1-0.1-0.2-0.2-0.3-0.3
			c-0.1-0.1-0.2-0.2-0.3-0.2c-0.3-0.1-0.5-0.2-0.9-0.2c-0.3,0-0.5,0.1-0.7,0.2c-0.2,0.1-0.4,0.2-0.5,0.4c-0.1,0.1-0.2,0.3-0.3,0.5
			c-0.1,0.2-0.1,0.3-0.2,0.4H85c0-0.4,0.1-0.7,0.2-1c0.1-0.3,0.3-0.5,0.5-0.7s0.4-0.3,0.6-0.4c0.2-0.1,0.4-0.2,0.6-0.2
			c0.2-0.1,0.4-0.1,0.5-0.1c0.2,0,0.3,0,0.3,0h0.1C88.3,95.6,88.6,95.7,89,95.8z"/>
		<path id="XMLID_1433_" class="st9" d="M92.4,91c0.2,0.1,0.3,0.2,0.5,0.3c0.1,0.1,0.2,0.2,0.3,0.3s0.2,0.2,0.2,0.4
			c0.1,0.3,0.2,0.6,0.2,1v10h-1.1v-10c0-0.1,0-0.2-0.1-0.3c0-0.1-0.1-0.2-0.2-0.3c-0.1-0.1-0.1-0.2-0.2-0.3L91.2,93l-1-1.4l0.7-0.6
			l0.5,0.7l0.5-0.8C92,90.9,92.2,90.9,92.4,91z"/>
		<path id="XMLID_1431_" class="st9" d="M100.5,95.6v4.5v0.1c0,0.1,0,0.2,0,0.4c0,0.2,0,0.4-0.1,0.6c-0.1,0.2-0.1,0.4-0.2,0.6
			s-0.3,0.4-0.4,0.6s-0.4,0.3-0.7,0.4c-0.3,0.1-0.6,0.2-1,0.2h-0.2c-0.3,0-0.6-0.1-0.8-0.2c-0.1,0-0.2-0.1-0.3-0.1
			c-0.1-0.1-0.2-0.1-0.3-0.2c-0.1-0.1-0.1-0.2-0.2-0.3S96,102,96,101.9v1h-1.1v-7.2H96v4.5c0,0,0,0.1,0,0.2s0,0.2,0.1,0.3
			c0,0.1,0.1,0.3,0.2,0.4c0.1,0.2,0.2,0.3,0.3,0.4c0.1,0.1,0.3,0.2,0.5,0.3c0.2,0.1,0.4,0.1,0.7,0.1c0,0,0.1,0,0.2,0
			c0.1,0,0.2,0,0.3-0.1c0.1,0,0.3-0.1,0.4-0.2c0.1-0.1,0.3-0.2,0.4-0.3c0.1-0.1,0.2-0.3,0.3-0.5c0.1-0.2,0.1-0.5,0.1-0.8v-4.5H100.5
			z"/>
		<path id="XMLID_1429_" class="st9" d="M100.5,93.8v1h-3v-1.4H97v-1H98c0.1,0,0.2,0,0.2,0.1c0.1,0,0.1,0.1,0.2,0.1
			c0,0.1,0.1,0.2,0.1,0.3v0.9H100.5z"/>
		<path id="XMLID_1427_" class="st10" d="M50.7,112.2v4.5c0,0.3,0,0.6,0.1,0.8c0.1,0.2,0.2,0.4,0.3,0.5c0.1,0.1,0.2,0.2,0.4,0.3
			c0.1,0.1,0.3,0.1,0.4,0.2c0.1,0,0.2,0.1,0.3,0.1s0.2,0,0.2,0c0.3,0,0.5,0,0.7-0.1c0.2-0.1,0.4-0.2,0.5-0.3
			c0.1-0.1,0.2-0.3,0.3-0.4s0.1-0.3,0.2-0.4c0-0.1,0.1-0.3,0.1-0.3c0-0.1,0-0.2,0-0.2v-4.5h1.1v7.2h-1.1v-1c0,0.1,0,0.3-0.1,0.4
			s-0.1,0.2-0.2,0.3s-0.2,0.1-0.3,0.2c-0.1,0.1-0.2,0.1-0.3,0.1c-0.2,0.1-0.5,0.1-0.8,0.2h-0.2c-0.4,0-0.8-0.1-1-0.2
			c-0.3-0.1-0.5-0.3-0.7-0.4s-0.3-0.4-0.4-0.6c-0.1-0.2-0.2-0.4-0.2-0.6c-0.1-0.2-0.1-0.4-0.1-0.6c0-0.2,0-0.3,0-0.4v-0.1v-4.5H50.7
			z"/>
		<path id="XMLID_1423_" class="st10" d="M53.4,109.1c0.2,0,0.3,0,0.5,0.1c0.2,0.1,0.3,0.2,0.4,0.3s0.2,0.2,0.3,0.4s0.1,0.3,0.1,0.5
			s0,0.3-0.1,0.5s-0.2,0.3-0.3,0.4s-0.2,0.2-0.4,0.3c-0.2,0.1-0.3,0.1-0.5,0.1s-0.3,0-0.5-0.1c-0.2-0.1-0.3-0.2-0.4-0.3
			s-0.2-0.2-0.3-0.4s-0.1-0.3-0.1-0.5s0-0.3,0.1-0.5s0.2-0.3,0.3-0.4s0.2-0.2,0.4-0.3C53,109.1,53.2,109.1,53.4,109.1z M53.4,110.7
			c0.1,0,0.2,0,0.3-0.1c0.1-0.1,0.1-0.2,0.1-0.3s0-0.2-0.1-0.3s-0.2-0.1-0.3-0.1s-0.2,0-0.3,0.1c-0.1,0.1-0.1,0.2-0.1,0.3
			s0,0.2,0.1,0.3C53.1,110.7,53.2,110.7,53.4,110.7z M57.9,112.1c0,0,0.1,0,0.2,0s0.2,0,0.4,0.1c0.1,0,0.3,0.1,0.5,0.2
			c0.2,0.1,0.3,0.2,0.4,0.4c0.1,0.2,0.2,0.4,0.3,0.6c0.1,0.2,0.1,0.5,0.1,0.9v5.1h-1.1v-5.1c0-0.2,0-0.4-0.1-0.5
			c0-0.1-0.1-0.1-0.1-0.2c0-0.1-0.1-0.1-0.1-0.2c-0.1,0-0.1-0.1-0.2-0.1s-0.2,0-0.3,0c-0.2,0-0.3,0-0.5,0.1c-0.1,0-0.2,0.1-0.3,0.1
			c-0.1,0.1-0.1,0.1-0.2,0.2c0,0.1-0.1,0.1-0.1,0.1l-0.7-0.8c0.1-0.1,0.3-0.3,0.4-0.4c0.1-0.1,0.3-0.2,0.6-0.3
			C57.3,112.2,57.6,112.1,57.9,112.1z"/>
		<path id="XMLID_1421_" class="st10" d="M61.9,107.5c0.2,0.1,0.3,0.2,0.5,0.3c0.1,0.1,0.2,0.2,0.3,0.3s0.2,0.2,0.2,0.4
			c0.1,0.3,0.2,0.6,0.2,1v10H62v-10c0-0.1,0-0.2-0.1-0.3c0-0.1-0.1-0.2-0.2-0.3c-0.1-0.1-0.2-0.2-0.2-0.3l-0.9,0.9l-1-1.4l0.7-0.6
			l0.5,0.7l0.5-0.8C61.5,107.4,61.7,107.4,61.9,107.5z"/>
		<path id="XMLID_1419_" class="st10" d="M70,109.5v7.4c0,0.5-0.2,0.9-0.4,1.3c-0.1,0.2-0.2,0.3-0.3,0.5s-0.3,0.3-0.5,0.4
			c-0.2,0.1-0.4,0.2-0.7,0.3c-0.3,0.1-0.6,0.1-0.9,0.1c-0.3,0-0.6,0-0.9-0.1c-0.3-0.1-0.5-0.2-0.7-0.3c-0.2-0.1-0.4-0.3-0.5-0.4
			s-0.3-0.3-0.3-0.5c-0.2-0.4-0.3-0.8-0.4-1.3v-4.7h1.1v4.7c0,0.2,0,0.4,0.1,0.5c0,0.1,0.1,0.3,0.2,0.4s0.2,0.2,0.3,0.3
			c0.1,0.1,0.2,0.1,0.3,0.2c0.3,0.1,0.5,0.2,0.9,0.2c0.3,0,0.6-0.1,0.9-0.2c0.1,0,0.2-0.1,0.3-0.2c0.1-0.1,0.2-0.2,0.3-0.3
			s0.1-0.2,0.2-0.4s0.1-0.3,0.1-0.5v-7.4H70z"/>
		<path id="XMLID_1417_" class="st10" d="M71.8,119.4v-7.3c0-0.2,0-0.3,0.1-0.5s0.1-0.3,0.2-0.4c0.1-0.1,0.2-0.2,0.2-0.4
			c0.1-0.1,0.2-0.2,0.3-0.3c0.1-0.1,0.2-0.2,0.3-0.3c0.1-0.1,0.1-0.2,0.2-0.2c0-0.1,0.1-0.2,0.1-0.2c0-0.1,0-0.1,0-0.2
			c0-0.2,0-0.3-0.1-0.5s-0.1-0.3-0.2-0.3c-0.1-0.1-0.2-0.2-0.4-0.2c-0.1,0-0.3-0.1-0.4-0.1c-0.3,0-0.5,0-0.7,0.1s-0.3,0.1-0.3,0.2
			c-0.1,0.1-0.1,0.2-0.1,0.2h-0.9c0,0,0,0,0,0v-0.1c0,0,0-0.1,0-0.2c0-0.1,0-0.2,0.1-0.3c0-0.1,0.1-0.2,0.2-0.3
			c0.1-0.1,0.2-0.2,0.4-0.3c0.2-0.1,0.3-0.2,0.6-0.2c0.2-0.1,0.5-0.1,0.8-0.1c0.3,0,0.6,0,0.9,0.1c0.2,0.1,0.4,0.2,0.6,0.3
			c0.2,0.1,0.3,0.3,0.4,0.4c0.1,0.1,0.2,0.3,0.2,0.4c0,0.1,0.1,0.3,0.1,0.4s0,0.2,0,0.3v0.1c0,0.1,0,0.2,0,0.3S74,110,74,110.1
			c0,0.1-0.1,0.3-0.2,0.4c-0.1,0.1-0.2,0.3-0.3,0.5c-0.1,0.2-0.2,0.3-0.3,0.4c-0.1,0.1-0.1,0.2-0.2,0.3c0,0.1-0.1,0.2-0.1,0.3v7.3
			H71.8z"/>
		<path id="XMLID_1415_" class="st10" d="M78.9,113.6c0.2,0.1,0.4,0.2,0.6,0.3c0.1,0.1,0.2,0.3,0.2,0.6v2.5c0,0.4-0.1,0.7-0.2,1
			s-0.3,0.5-0.4,0.7c-0.2,0.2-0.4,0.3-0.6,0.4c-0.2,0.1-0.4,0.2-0.6,0.2c-0.2,0-0.4,0.1-0.5,0.1c-0.1,0-0.2,0-0.3,0
			c-0.4,0-0.8-0.1-1.1-0.2s-0.5-0.3-0.7-0.4s-0.3-0.4-0.4-0.6s-0.2-0.4-0.2-0.6c0-0.2-0.1-0.4-0.1-0.5c0-0.1,0-0.2,0-0.3
			c0-0.2,0-0.4,0.1-0.6c0.1-0.2,0.2-0.4,0.3-0.5c0.1-0.2,0.2-0.3,0.3-0.4c0.1-0.1,0.2-0.2,0.3-0.4c0.1-0.1,0.2-0.2,0.3-0.3
			c0.1-0.1,0.1-0.2,0.1-0.3c0,0,0-0.1,0-0.1s0-0.1,0-0.1c0-0.2,0-0.3-0.1-0.4s-0.1-0.2-0.2-0.3c-0.1-0.1-0.2-0.1-0.3-0.2
			c-0.1,0-0.2-0.1-0.3-0.1c-0.1,0-0.2,0-0.3,0c-0.1,0-0.2,0-0.2,0h-0.1v-1h0.6c0.3,0,0.5,0,0.7,0.1c0.2,0.1,0.4,0.2,0.5,0.3
			c0.1,0.1,0.2,0.3,0.3,0.4c0.1,0.2,0.1,0.3,0.2,0.5c0,0.2,0.1,0.3,0.1,0.4c0,0.1,0,0.2,0,0.3c0,0,0,0,0,0.1s0,0,0,0v0
			c0,0.1,0,0.3-0.1,0.4c-0.1,0.1-0.1,0.2-0.2,0.3c-0.1,0.1-0.2,0.2-0.2,0.3c-0.2,0.2-0.4,0.4-0.5,0.6c-0.1,0.2-0.2,0.3-0.3,0.5
			c-0.1,0.1-0.1,0.2-0.1,0.3c0,0.1,0,0.1,0,0.2c0,0.2,0,0.5,0.1,0.6c0.1,0.2,0.1,0.3,0.2,0.4s0.2,0.2,0.3,0.3
			c0.1,0.1,0.2,0.1,0.3,0.1c0.1,0,0.2,0,0.3,0c0.1,0,0.1,0,0.2,0c0.2,0,0.4,0,0.6-0.1c0.2-0.1,0.3-0.1,0.4-0.2
			c0.1-0.1,0.2-0.2,0.3-0.3c0.1-0.1,0.1-0.2,0.2-0.3c0-0.1,0.1-0.2,0.1-0.3s0-0.1,0-0.2v-2.3c0-0.5-0.3-0.7-1-0.7h-0.4v-0.8h0.4
			c0.3,0,0.6-0.1,0.7-0.2c0.2-0.1,0.2-0.3,0.2-0.6v-0.2h1.1v0.4C79.7,113.1,79.4,113.5,78.9,113.6z"/>
		<path id="XMLID_1413_" class="st10" d="M79.7,110.3v1h-3V110h-0.5v-1h1.1c0.1,0,0.2,0,0.2,0.1c0.1,0,0.1,0.1,0.2,0.1
			c0,0.1,0.1,0.2,0.1,0.3v0.9H79.7z"/>
		<path id="XMLID_1411_" class="st10" d="M82,112.2h2.1v5.2c0,0.3,0,0.6-0.1,0.9c-0.1,0.2-0.2,0.4-0.3,0.6c-0.1,0.2-0.3,0.3-0.4,0.4
			c-0.2,0.1-0.3,0.2-0.5,0.2c-0.1,0-0.3,0.1-0.4,0.1c-0.1,0-0.2,0-0.2,0c-0.3,0-0.6,0-0.8-0.1c-0.2-0.1-0.4-0.2-0.6-0.3
			c-0.2-0.1-0.3-0.2-0.4-0.4l0.7-0.7c0,0,0.1,0.1,0.1,0.1c0.1,0.1,0.1,0.1,0.2,0.2s0.2,0.1,0.3,0.1c0.1,0,0.3,0.1,0.4,0.1
			c0.1,0,0.2,0,0.3,0c0.1,0,0.1-0.1,0.2-0.1c0.1-0.1,0.1-0.1,0.2-0.2c0-0.1,0.1-0.1,0.1-0.2c0.1-0.2,0.1-0.3,0.1-0.6v-4.2h-1V112.2z
			"/>
		<path id="XMLID_1409_" class="st10" d="M86.4,112.1c0,0,0.1,0,0.2,0s0.2,0,0.4,0.1c0.1,0,0.3,0.1,0.5,0.2c0.2,0.1,0.3,0.2,0.4,0.4
			c0.1,0.2,0.2,0.4,0.3,0.6c0.1,0.2,0.1,0.5,0.1,0.9v5.1h-1.1v-5.1c0-0.2,0-0.4-0.1-0.5c0-0.1-0.1-0.1-0.1-0.2
			c0-0.1-0.1-0.1-0.1-0.2c-0.1,0-0.1-0.1-0.2-0.1c-0.1,0-0.2,0-0.3,0c-0.2,0-0.3,0-0.5,0.1c-0.1,0-0.2,0.1-0.3,0.1
			c-0.1,0.1-0.1,0.1-0.2,0.2c0,0.1-0.1,0.1-0.1,0.1l-0.7-0.8c0.1-0.1,0.3-0.3,0.4-0.4c0.1-0.1,0.3-0.2,0.6-0.3
			C85.8,112.2,86.1,112.1,86.4,112.1z"/>
		<path id="XMLID_1407_" class="st10" d="M90.9,112.2v4.5c0,0.3,0,0.6,0.1,0.8c0.1,0.2,0.2,0.4,0.3,0.5c0.1,0.1,0.3,0.2,0.4,0.3
			c0.1,0.1,0.3,0.1,0.4,0.2c0.1,0,0.2,0.1,0.3,0.1c0.1,0,0.2,0,0.2,0c0.3,0,0.5,0,0.7-0.1c0.2-0.1,0.4-0.2,0.5-0.3s0.2-0.3,0.3-0.4
			c0.1-0.2,0.1-0.3,0.2-0.4c0-0.1,0.1-0.3,0.1-0.3s0-0.2,0-0.2v-4.5h1.1v7.2h-1.1v-1c0,0.1,0,0.3-0.1,0.4s-0.1,0.2-0.2,0.3
			s-0.2,0.1-0.3,0.2c-0.1,0.1-0.2,0.1-0.3,0.1c-0.2,0.1-0.5,0.1-0.8,0.2h-0.2c-0.4,0-0.8-0.1-1-0.2c-0.3-0.1-0.5-0.3-0.7-0.4
			s-0.3-0.4-0.4-0.6s-0.2-0.4-0.2-0.6c-0.1-0.2-0.1-0.4-0.1-0.6c0-0.2,0-0.3,0-0.4v-0.1v-4.5H90.9z"/>
		<path id="XMLID_1405_" class="st10" d="M97.4,107.5c0.2,0.1,0.3,0.2,0.5,0.3c0.1,0.1,0.2,0.2,0.3,0.3c0.1,0.1,0.2,0.2,0.2,0.4
			c0.1,0.3,0.2,0.6,0.2,1v10h-1.1v-10c0-0.1,0-0.2-0.1-0.3c0-0.1-0.1-0.2-0.2-0.3c-0.1-0.1-0.1-0.2-0.2-0.3l-0.9,0.9l-1-1.4l0.7-0.6
			l0.5,0.7l0.5-0.8C97,107.4,97.2,107.4,97.4,107.5z"/>
		<path id="XMLID_1403_" class="st10" d="M104.5,119.4v-4.5c0-0.3-0.1-0.6-0.2-0.8c-0.1-0.1-0.1-0.2-0.2-0.3s-0.2-0.2-0.3-0.3
			c-0.1-0.1-0.3-0.1-0.5-0.2s-0.4-0.1-0.6-0.1s-0.4,0-0.6,0.1s-0.3,0.1-0.5,0.2c-0.1,0.1-0.2,0.2-0.3,0.3c-0.1,0.1-0.2,0.2-0.2,0.3
			c-0.1,0.2-0.2,0.5-0.2,0.8v2.4c0,0.2,0.1,0.3,0.1,0.4c0,0.1,0.1,0.2,0.2,0.4c0.1,0.1,0.2,0.2,0.3,0.3c0.1,0.1,0.3,0.2,0.4,0.2
			c0.1,0,0.2,0,0.3-0.1c0.1-0.1,0.2-0.1,0.2-0.2l0.7,0.7c-0.1,0.1-0.2,0.2-0.4,0.3c-0.1,0.1-0.3,0.1-0.4,0.2
			c-0.2,0.1-0.3,0.1-0.5,0.1c-0.1,0-0.1,0-0.2,0s-0.1,0-0.2,0c-0.3-0.1-0.5-0.2-0.7-0.3s-0.4-0.3-0.5-0.5s-0.2-0.4-0.3-0.7
			c-0.1-0.2-0.1-0.5-0.1-0.7v-2.4c0-0.4,0.1-0.8,0.3-1.1c0.1-0.3,0.3-0.6,0.5-0.8c0.2-0.2,0.4-0.4,0.6-0.5c0.2-0.1,0.4-0.2,0.6-0.3
			c0.2-0.1,0.4-0.1,0.5-0.1c0.2,0,0.3,0,0.3,0h0.1h0.1c0.1,0,0.2,0,0.3,0c0.2,0,0.3,0.1,0.5,0.1c0.2,0.1,0.4,0.1,0.6,0.3
			c0.2,0.1,0.4,0.3,0.6,0.5c0.2,0.2,0.3,0.5,0.5,0.8c0.1,0.3,0.2,0.7,0.3,1.1v4.5H104.5z"/>
		<path id="XMLID_1401_" class="st10" d="M105.6,110.3v1h-3V110h-0.5v-1h1.1c0.1,0,0.2,0,0.2,0.1c0.1,0,0.1,0.1,0.2,0.1
			c0,0.1,0.1,0.2,0.1,0.3v0.9H105.6z"/>
		<path id="XMLID_1399_" class="st10" d="M109.7,112.1c0.2,0,0.3,0,0.6,0.1c0.2,0.1,0.4,0.1,0.6,0.3c0.2,0.1,0.4,0.3,0.6,0.5
			c0.2,0.2,0.3,0.5,0.4,0.8c0.1,0.3,0.2,0.7,0.2,1.1v4.5H111v-2c0-0.1-0.1-0.3-0.2-0.4c-0.1-0.1-0.2-0.2-0.3-0.3
			c-0.1-0.1-0.3-0.1-0.4-0.2c-0.1,0-0.3-0.1-0.5-0.1c-0.1,0-0.2,0-0.4,0c-0.1,0-0.2,0-0.3,0.1v-1.1c0.2-0.1,0.4-0.1,0.7-0.1
			c0.5,0,1,0.1,1.4,0.4V115c0-0.3-0.1-0.6-0.2-0.9c-0.1-0.1-0.1-0.2-0.2-0.3s-0.2-0.2-0.3-0.3c-0.1-0.1-0.3-0.2-0.4-0.2
			c-0.2-0.1-0.3-0.1-0.6-0.1c-0.3,0-0.6,0.1-0.9,0.2c-0.1,0.1-0.2,0.1-0.3,0.2c-0.1,0.1-0.2,0.2-0.3,0.3c-0.1,0.1-0.1,0.3-0.2,0.4
			c0,0.2-0.1,0.4-0.1,0.6h-1.1v-0.1c0-0.1,0-0.2,0-0.4c0-0.2,0-0.3,0.1-0.6c0.1-0.2,0.2-0.4,0.3-0.6s0.3-0.4,0.5-0.6
			c0.2-0.2,0.5-0.3,0.8-0.5c0.3-0.1,0.7-0.2,1.1-0.2h0.1C109.4,112.1,109.5,112.1,109.7,112.1z"/>
		<path id="XMLID_1397_" class="st10" d="M117.5,114l-0.5-0.3c-0.1-0.1-0.2-0.1-0.4-0.2c-0.1-0.1-0.3-0.1-0.4-0.2
			c-0.1,0-0.3-0.1-0.4-0.1c-0.1,0-0.2,0-0.3,0c-0.2,0-0.3,0-0.5,0s-0.3,0.1-0.4,0.2c-0.1,0.1-0.2,0.2-0.3,0.3
			c-0.1,0.1-0.1,0.3-0.1,0.5s0.1,0.4,0.2,0.5c0.1,0.1,0.3,0.2,0.5,0.3s0.4,0.1,0.6,0.2s0.5,0.1,0.7,0.1c0.2,0,0.5,0.1,0.7,0.2
			c0.2,0.1,0.4,0.3,0.6,0.4s0.3,0.4,0.4,0.6c0.1,0.2,0.2,0.5,0.2,0.7c0,0.4-0.1,0.7-0.2,1c-0.1,0.3-0.3,0.5-0.5,0.7
			c-0.2,0.2-0.5,0.3-0.8,0.4c-0.3,0.1-0.6,0.1-1,0.1c-0.5,0-0.9-0.1-1.3-0.2c-0.3-0.1-0.6-0.2-0.9-0.4c-0.3-0.2-0.5-0.3-0.7-0.5
			l0.7-0.7c0.1,0.1,0.2,0.2,0.3,0.3s0.3,0.2,0.5,0.2s0.4,0.1,0.6,0.2s0.4,0.1,0.6,0.1c0.2,0,0.4,0,0.6-0.1c0.2-0.1,0.3-0.1,0.5-0.2
			c0.1-0.1,0.2-0.2,0.3-0.4s0.1-0.3,0.1-0.5c0-0.2,0-0.3-0.1-0.4s-0.1-0.2-0.2-0.3c-0.1-0.1-0.2-0.1-0.2-0.1s-0.1,0-0.2-0.1
			c0,0-0.1,0-0.2,0c-0.1,0-0.3,0-0.4-0.1c-0.2,0-0.3-0.1-0.5-0.1c-0.2,0-0.3,0-0.4-0.1c-0.1,0-0.1,0-0.2-0.1s-0.2-0.1-0.3-0.1
			c-0.1-0.1-0.2-0.1-0.4-0.2c-0.1-0.1-0.2-0.2-0.3-0.3c-0.1-0.1-0.2-0.3-0.2-0.5c-0.1-0.2-0.1-0.4-0.1-0.7c0-0.4,0.1-0.7,0.2-1
			c0.1-0.3,0.3-0.5,0.5-0.7c0.2-0.2,0.5-0.3,0.8-0.4s0.6-0.1,0.9-0.1c0.3,0,0.6,0,0.8,0.1c0.2,0.1,0.5,0.1,0.6,0.2
			c0.2,0.1,0.4,0.2,0.6,0.3l0.6,0.4L117.5,114z"/>
		<path id="XMLID_1395_" class="st10" d="M117.4,110.3v1h-4v-1H117.4z"/>
		<path id="XMLID_1393_" class="st10" d="M120.1,112.2h2.1v5.2c0,0.3,0,0.6-0.1,0.9c-0.1,0.2-0.2,0.4-0.3,0.6
			c-0.1,0.2-0.3,0.3-0.4,0.4c-0.2,0.1-0.3,0.2-0.5,0.2c-0.1,0-0.3,0.1-0.4,0.1c-0.1,0-0.2,0-0.2,0c-0.3,0-0.6,0-0.8-0.1
			c-0.2-0.1-0.4-0.2-0.6-0.3c-0.2-0.1-0.3-0.2-0.4-0.4l0.7-0.7c0,0,0.1,0.1,0.1,0.1c0.1,0.1,0.1,0.1,0.2,0.2s0.2,0.1,0.3,0.1
			c0.1,0,0.3,0.1,0.4,0.1c0.1,0,0.2,0,0.3,0c0.1,0,0.1-0.1,0.2-0.1c0.1-0.1,0.1-0.1,0.2-0.2c0-0.1,0.1-0.1,0.1-0.2
			c0.1-0.2,0.1-0.3,0.1-0.6v-4.2h-1V112.2z"/>
		<path id="XMLID_1391_" class="st10" d="M50.7,135.9h-1.1v-7.2h1.1V135.9z"/>
		<path id="XMLID_1389_" class="st10" d="M57.6,126v7.4c0,0.5-0.2,0.9-0.4,1.3c-0.1,0.2-0.2,0.3-0.3,0.5c-0.1,0.2-0.3,0.3-0.5,0.4
			c-0.2,0.1-0.4,0.2-0.7,0.3c-0.3,0.1-0.6,0.1-0.9,0.1c-0.3,0-0.6,0-0.9-0.1c-0.3-0.1-0.5-0.2-0.7-0.3c-0.2-0.1-0.4-0.3-0.5-0.4
			c-0.1-0.2-0.3-0.3-0.3-0.5c-0.2-0.4-0.3-0.8-0.4-1.3v-4.7h1.1v4.7c0,0.2,0,0.4,0.1,0.5c0,0.1,0.1,0.3,0.2,0.4
			c0.1,0.1,0.2,0.2,0.3,0.3c0.1,0.1,0.2,0.1,0.3,0.2c0.3,0.1,0.5,0.2,0.9,0.2c0.3,0,0.6-0.1,0.9-0.2c0.1,0,0.2-0.1,0.3-0.2
			c0.1-0.1,0.2-0.2,0.3-0.3c0.1-0.1,0.1-0.2,0.2-0.4c0-0.1,0.1-0.3,0.1-0.5V126H57.6z"/>
		<path id="XMLID_1387_" class="st10" d="M56.4,125.9h-3.1c-0.1,0-0.1,0-0.2,0c0,0-0.1,0.1-0.1,0.1s0,0.1-0.1,0.2s0,0.1,0,0.2
			c0,0.1,0,0.1,0,0.2c0,0.1,0,0.1,0.1,0.2s0.1,0.1,0.1,0.1c0,0,0.1,0,0.1,0c0.1,0,0.1,0,0.2-0.1s0.1-0.1,0.1-0.1c0,0,0-0.1,0-0.2
			s0-0.1,0-0.1v-0.1h0.8v0.1c0,0,0,0.1,0,0.1c0,0.1,0,0.1,0,0.2s0.1,0.1,0.1,0.1c0,0,0.1,0.1,0.2,0.1s0.1,0,0.2-0.1
			c0,0,0.1-0.1,0.1-0.1s0-0.1,0-0.2s0-0.1,0-0.1v-0.1H56c0,0.3,0,0.5-0.1,0.7c-0.1,0.2-0.2,0.3-0.3,0.4c-0.1,0.1-0.2,0.2-0.4,0.2
			c-0.1,0-0.3,0.1-0.4,0.1c-0.1,0-0.2,0-0.3,0c-0.1,0-0.2-0.1-0.2-0.1c-0.1,0-0.1-0.1-0.2-0.1c0,0-0.1,0-0.1,0.1s-0.1,0.1-0.2,0.1
			c-0.1,0-0.1,0.1-0.2,0.1c-0.1,0-0.2,0-0.2,0c0,0-0.1,0-0.2,0c-0.1,0-0.2,0-0.2-0.1c-0.1,0-0.2-0.1-0.3-0.1s-0.2-0.1-0.2-0.2
			c-0.1-0.1-0.1-0.2-0.2-0.4c0-0.2-0.1-0.3-0.1-0.6c0-0.3,0.1-0.6,0.2-0.8s0.2-0.4,0.4-0.5s0.3-0.2,0.4-0.2c0.1,0,0.2-0.1,0.3-0.1
			h3.1V125.9z"/>
		<path id="XMLID_1385_" class="st10" d="M60.1,128.7v4.5c0,0.3,0,0.6,0.1,0.8c0.1,0.2,0.2,0.4,0.3,0.5c0.1,0.1,0.2,0.2,0.4,0.3
			c0.1,0.1,0.3,0.1,0.4,0.2s0.2,0.1,0.3,0.1c0.1,0,0.2,0,0.2,0c0.3,0,0.5,0,0.7-0.1c0.2-0.1,0.4-0.2,0.5-0.3
			c0.1-0.1,0.2-0.3,0.3-0.4c0.1-0.2,0.1-0.3,0.2-0.4c0-0.1,0.1-0.3,0.1-0.3c0-0.1,0-0.2,0-0.2v-4.5h1.1v7.2h-1.1v-1
			c0,0.1,0,0.3-0.1,0.4s-0.1,0.2-0.2,0.3c-0.1,0.1-0.2,0.1-0.3,0.2s-0.2,0.1-0.3,0.1c-0.2,0.1-0.5,0.1-0.8,0.2h-0.2
			c-0.4,0-0.8-0.1-1-0.2s-0.5-0.3-0.7-0.4s-0.3-0.4-0.4-0.6c-0.1-0.2-0.2-0.4-0.2-0.6c-0.1-0.2-0.1-0.4-0.1-0.6c0-0.2,0-0.3,0-0.4
			v-0.1v-4.5H60.1z"/>
		<path id="XMLID_1383_" class="st10" d="M71.8,128.6c0,0,0,0.1-0.1,0.1s-0.1,0.1-0.1,0.2s-0.1,0.1-0.2,0.2s-0.2,0.1-0.2,0.2
			c-0.1,0.1-0.1,0.1-0.2,0.2c-0.1,0-0.1,0.1-0.2,0.1c0.1,0.2,0.3,0.4,0.3,0.6s0.1,0.4,0.2,0.6c0,0.2,0.1,0.3,0.1,0.5s0,0.2,0,0.3
			v0.1v4.4h-1.1v-2.1c0-0.2,0-0.4-0.1-0.5c-0.1-0.1-0.2-0.3-0.4-0.3c-0.1-0.1-0.3-0.2-0.5-0.2c-0.2-0.1-0.3-0.1-0.5-0.1
			c-0.1,0-0.3,0-0.5,0c0,0-0.1,0-0.1,0c-0.1,0-0.2,0-0.3,0s-0.2,0.1-0.3,0.1c-0.1,0-0.2,0.1-0.4,0.2c-0.1,0.1-0.2,0.2-0.3,0.3
			c-0.1,0.1-0.2,0.3-0.2,0.5c0,0,0,0.1,0,0.1c0,0,0,0.1,0,0.1c0,0.2,0,0.3,0.1,0.4c0.1,0.1,0.2,0.2,0.3,0.3c0.1,0.1,0.2,0.1,0.4,0.2
			s0.3,0.1,0.4,0.1c0.1,0,0.3,0,0.4,0c0.1,0,0.2,0,0.3,0h0.1v1h-1.2c-0.3,0-0.5-0.1-0.7-0.2s-0.4-0.3-0.6-0.4
			c-0.2-0.2-0.3-0.4-0.4-0.6c-0.1-0.2-0.1-0.5-0.1-0.8c0-0.3,0.1-0.5,0.2-0.8s0.3-0.5,0.6-0.8c0.2-0.2,0.3-0.3,0.5-0.4
			c0.2-0.1,0.3-0.2,0.5-0.2c0.2-0.1,0.3-0.1,0.5-0.1c0.2,0,0.3,0,0.5,0c0.2,0,0.5,0,0.7,0.1c0.2,0,0.4,0.1,0.6,0.2
			c0.2,0.1,0.4,0.1,0.5,0.2v-0.4c0-0.2,0-0.4-0.1-0.6c0-0.2-0.1-0.3-0.2-0.4c-0.1-0.1-0.2-0.2-0.3-0.3c-0.1-0.1-0.2-0.2-0.3-0.2
			c-0.3-0.1-0.5-0.2-0.9-0.2c-0.3,0-0.5,0.1-0.7,0.2c-0.2,0.1-0.4,0.2-0.5,0.4s-0.2,0.3-0.3,0.5c-0.1,0.2-0.1,0.3-0.2,0.4h-1.1
			c0-0.4,0.1-0.7,0.2-1c0.1-0.3,0.3-0.5,0.5-0.7c0.2-0.2,0.4-0.3,0.6-0.4c0.2-0.1,0.4-0.2,0.6-0.2c0.2-0.1,0.4-0.1,0.5-0.1
			c0.2,0,0.3,0,0.3,0h0.1c0.3,0,0.7,0,1,0.1c0.2,0,0.4-0.1,0.5-0.2c0.1-0.1,0.3-0.2,0.5-0.3s0.3-0.3,0.4-0.5l0.4,0.4
			c0,0,0.1,0.1,0.1,0.1c0,0,0.1,0.1,0.1,0.1C71.7,128.5,71.8,128.5,71.8,128.6C71.8,128.6,71.8,128.6,71.8,128.6z"/>
		<path id="XMLID_1381_" class="st10" d="M71,126.8v1h-4v-1H71z"/>
		<path id="XMLID_1379_" class="st10" d="M70.8,123v2h-1v-2H70.8z"/>
		<path id="XMLID_1377_" class="st10" d="M73.7,128.7h2.1v5.2c0,0.3,0,0.6-0.1,0.9c-0.1,0.2-0.2,0.4-0.3,0.6
			c-0.1,0.2-0.3,0.3-0.4,0.4c-0.2,0.1-0.3,0.2-0.5,0.2s-0.3,0.1-0.4,0.1c-0.1,0-0.2,0-0.2,0c-0.3,0-0.6,0-0.8-0.1
			c-0.2-0.1-0.4-0.2-0.6-0.3c-0.2-0.1-0.3-0.2-0.4-0.4l0.7-0.7c0,0,0.1,0.1,0.1,0.1c0.1,0.1,0.1,0.1,0.2,0.2
			c0.1,0.1,0.2,0.1,0.3,0.1c0.1,0,0.3,0.1,0.4,0.1c0.1,0,0.2,0,0.3,0c0.1,0,0.1-0.1,0.2-0.1s0.1-0.1,0.2-0.2c0-0.1,0.1-0.1,0.1-0.2
			c0.1-0.2,0.1-0.3,0.1-0.6v-4.2h-1V128.7z"/>
		<path id="XMLID_1375_" class="st10" d="M81.6,135.9v-4.5c0-0.3,0-0.5-0.1-0.7c-0.1-0.2-0.2-0.4-0.3-0.5c-0.1-0.1-0.3-0.2-0.4-0.3
			s-0.3-0.1-0.4-0.2c-0.1,0-0.2,0-0.3-0.1c-0.1,0-0.2,0-0.2,0c-0.3,0-0.5,0-0.7,0.1c-0.2,0.1-0.4,0.2-0.5,0.3
			c-0.1,0.1-0.2,0.3-0.3,0.4c-0.1,0.1-0.1,0.3-0.2,0.4c0,0.1-0.1,0.2-0.1,0.3c0,0.1,0,0.1,0,0.2v4.5h-1.1v-7.2h1.1v1
			c0-0.1,0-0.2,0.1-0.3s0.1-0.2,0.2-0.3c0.1-0.1,0.2-0.1,0.3-0.2c0.1,0,0.2-0.1,0.3-0.1c0.2-0.1,0.5-0.1,0.8-0.1h0.2
			c0.4,0,0.8,0.1,1,0.2c0.3,0.1,0.5,0.3,0.7,0.4s0.3,0.4,0.4,0.6c0.1,0.2,0.2,0.4,0.2,0.6s0.1,0.4,0.1,0.5c0,0.2,0,0.3,0,0.4v0.1
			v4.5H81.6z"/>
		<path id="XMLID_1373_" class="st10" d="M81.8,126.2v1.7h-4v-1h3v-0.6H81.8z"/>
		<path id="XMLID_1371_" class="st10" d="M82.1,123v2h-1v-2H82.1z"/>
		<path id="XMLID_1369_" class="st10" d="M88.6,135.9v-4.5c0-0.3,0-0.5-0.1-0.7c-0.1-0.2-0.2-0.4-0.3-0.5c-0.1-0.1-0.3-0.2-0.4-0.3
			c-0.1-0.1-0.3-0.1-0.4-0.2c-0.1,0-0.2,0-0.3-0.1c-0.1,0-0.2,0-0.2,0c-0.3,0-0.5,0-0.7,0.1c-0.2,0.1-0.4,0.2-0.5,0.3
			c-0.1,0.1-0.2,0.3-0.3,0.4c-0.1,0.1-0.1,0.3-0.2,0.4c0,0.1-0.1,0.2-0.1,0.3c0,0.1,0,0.1,0,0.2v4.5H84v-7.2h1.1v1
			c0-0.1,0-0.2,0.1-0.3s0.1-0.2,0.2-0.3c0.1-0.1,0.2-0.1,0.3-0.2c0.1,0,0.2-0.1,0.3-0.1c0.2-0.1,0.5-0.1,0.8-0.1h0.2
			c0.4,0,0.8,0.1,1,0.2c0.3,0.1,0.5,0.3,0.7,0.4c0.2,0.2,0.3,0.4,0.4,0.6c0.1,0.2,0.2,0.4,0.2,0.6s0.1,0.4,0.1,0.5
			c0,0.2,0,0.3,0,0.4v0.1v4.5H88.6z"/>
		<path id="XMLID_1367_" class="st10" d="M88.4,137.6h-0.5v-1h1c0.1,0,0.3,0.1,0.4,0.2c0.1,0.1,0.2,0.2,0.2,0.4v2.1h-1V137.6z"/>
		<path id="XMLID_1365_" class="st10" d="M91,135.9v-5.5c0.1-0.3,0.3-0.5,0.5-0.7c0.2-0.2,0.4-0.4,0.5-0.5c0.2-0.1,0.4-0.2,0.6-0.3
			c0.2-0.1,0.3-0.1,0.5-0.2c0.2,0,0.3-0.1,0.4-0.1c0.1,0,0.2,0,0.3,0h0.1c0.3,0,0.7,0.1,0.9,0.1c0.3,0.1,0.5,0.2,0.7,0.3
			c0.2,0.1,0.4,0.3,0.5,0.4c0.1,0.2,0.2,0.3,0.3,0.5c0.1,0.2,0.2,0.3,0.2,0.5c0,0.2,0.1,0.3,0.1,0.4c0,0.1,0,0.2,0,0.3
			c0,0.1,0,0.2,0,0.2v4.5h-1.1v-4.5c0-0.3,0-0.5-0.1-0.7c-0.1-0.2-0.2-0.4-0.3-0.5c-0.1-0.1-0.3-0.2-0.4-0.3
			c-0.1-0.1-0.3-0.1-0.4-0.2c-0.1,0-0.2-0.1-0.3-0.1c-0.1,0-0.2,0-0.2,0c-0.2,0-0.4,0-0.6,0.1c-0.2,0-0.3,0.1-0.4,0.2
			c-0.1,0.1-0.2,0.2-0.3,0.3c-0.1,0.1-0.2,0.2-0.2,0.3c-0.1,0.3-0.2,0.5-0.2,0.9v4.5H91z"/>
		<path id="XMLID_1363_" class="st10" d="M102,128.8c0.3,0.1,0.6,0.3,0.8,0.5s0.4,0.4,0.5,0.6c0.1,0.2,0.2,0.4,0.3,0.6
			c0.1,0.2,0.1,0.4,0.1,0.6c0,0.2,0,0.3,0,0.4v0.1v4.4h-1.1v-4.4c0-0.2,0-0.4-0.1-0.6c0-0.2-0.1-0.3-0.2-0.4
			c-0.1-0.1-0.2-0.2-0.3-0.3c-0.1-0.1-0.2-0.2-0.3-0.2c-0.3-0.1-0.5-0.2-0.9-0.2c-0.2,0-0.4,0-0.6,0.1c-0.2,0.1-0.3,0.1-0.4,0.2
			s-0.2,0.2-0.3,0.3c-0.1,0.1-0.2,0.2-0.2,0.3c-0.1,0.3-0.2,0.6-0.2,0.9v0.7c0.4-0.2,0.9-0.4,1.4-0.4c0.2,0,0.5,0,0.7,0.1v1.1
			c-0.1,0-0.2-0.1-0.3-0.1c-0.1,0-0.2,0-0.4,0c-0.3,0-0.6,0.1-0.9,0.2c-0.1,0.1-0.2,0.2-0.3,0.3c-0.1,0.1-0.2,0.3-0.2,0.4v2H98v-4.5
			c0-0.4,0.1-0.8,0.2-1.1s0.3-0.6,0.4-0.8c0.2-0.2,0.4-0.4,0.6-0.5c0.2-0.1,0.4-0.2,0.6-0.3c0.2-0.1,0.4-0.1,0.6-0.1
			c0.2,0,0.3,0,0.4,0h0.1C101.3,128.6,101.7,128.7,102,128.8z"/>
		<path id="XMLID_1361_" class="st10" d="M106.1,128.7v4.5c0,0.3,0,0.6,0.1,0.8c0.1,0.2,0.2,0.4,0.3,0.5c0.1,0.1,0.3,0.2,0.4,0.3
			c0.1,0.1,0.3,0.1,0.4,0.2c0.1,0,0.2,0.1,0.3,0.1c0.1,0,0.2,0,0.2,0c0.3,0,0.5,0,0.7-0.1c0.2-0.1,0.4-0.2,0.5-0.3
			c0.1-0.1,0.2-0.3,0.3-0.4c0.1-0.2,0.1-0.3,0.2-0.4c0-0.1,0.1-0.3,0.1-0.3s0-0.2,0-0.2v-4.5h1.1v7.2h-1.1v-1c0,0.1,0,0.3-0.1,0.4
			s-0.1,0.2-0.2,0.3c-0.1,0.1-0.2,0.1-0.3,0.2s-0.2,0.1-0.3,0.1c-0.2,0.1-0.5,0.1-0.8,0.2h-0.2c-0.4,0-0.8-0.1-1-0.2
			s-0.5-0.3-0.7-0.4s-0.3-0.4-0.4-0.6c-0.1-0.2-0.2-0.4-0.2-0.6c-0.1-0.2-0.1-0.4-0.1-0.6c0-0.2,0-0.3,0-0.4v-0.1v-4.5H106.1z"/>
		<path id="XMLID_1359_" class="st10" d="M54.1,152.4v-4.5c0-0.3,0-0.5-0.1-0.7c-0.1-0.2-0.2-0.4-0.3-0.5c-0.1-0.1-0.2-0.2-0.4-0.3
			s-0.3-0.1-0.4-0.2s-0.2,0-0.3-0.1c-0.1,0-0.2,0-0.2,0c-0.3,0-0.5,0-0.7,0.1c-0.2,0.1-0.4,0.2-0.5,0.3c-0.1,0.1-0.2,0.3-0.3,0.4
			c-0.1,0.1-0.1,0.3-0.2,0.4c0,0.1-0.1,0.2-0.1,0.3c0,0.1,0,0.1,0,0.2v4.5h-1.1v-7.2h1.1v1c0-0.1,0-0.2,0.1-0.3s0.1-0.2,0.2-0.3
			c0.1-0.1,0.2-0.1,0.3-0.2c0.1,0,0.2-0.1,0.3-0.1c0.2-0.1,0.5-0.1,0.8-0.1h0.2c0.4,0,0.8,0.1,1,0.2c0.3,0.1,0.5,0.3,0.7,0.4
			c0.2,0.2,0.3,0.4,0.4,0.6c0.1,0.2,0.2,0.4,0.2,0.6s0.1,0.4,0.1,0.5c0,0.2,0,0.3,0,0.4v0.1v4.5H54.1z"/>
		<path id="XMLID_1357_" class="st10" d="M53.9,154.1h-0.5v-1h1c0.1,0,0.3,0.1,0.4,0.2c0.1,0.1,0.2,0.2,0.2,0.4v2.1h-1V154.1z"/>
		<path id="XMLID_1355_" class="st10" d="M56.6,152.4v-5.5c0.1-0.3,0.3-0.5,0.5-0.7c0.2-0.2,0.4-0.4,0.5-0.5
			c0.2-0.1,0.4-0.2,0.6-0.3c0.2-0.1,0.3-0.1,0.5-0.2c0.2,0,0.3-0.1,0.4-0.1c0.1,0,0.2,0,0.3,0h0.1c0.3,0,0.7,0.1,0.9,0.1
			c0.3,0.1,0.5,0.2,0.7,0.3c0.2,0.1,0.4,0.3,0.5,0.4c0.1,0.2,0.3,0.3,0.3,0.5c0.1,0.2,0.2,0.3,0.2,0.5c0,0.2,0.1,0.3,0.1,0.4
			c0,0.1,0,0.2,0,0.3c0,0.1,0,0.2,0,0.2v4.5h-1.1v-4.5c0-0.3,0-0.5-0.1-0.7c-0.1-0.2-0.2-0.4-0.3-0.5c-0.1-0.1-0.3-0.2-0.4-0.3
			s-0.3-0.1-0.4-0.2c-0.1,0-0.2-0.1-0.3-0.1c-0.1,0-0.2,0-0.2,0c-0.2,0-0.4,0-0.6,0.1c-0.2,0-0.3,0.1-0.4,0.2
			c-0.1,0.1-0.2,0.2-0.3,0.3c-0.1,0.1-0.2,0.2-0.2,0.3c-0.1,0.3-0.2,0.5-0.2,0.9v4.5H56.6z"/>
		<path id="XMLID_1353_" class="st10" d="M64.7,152.4h-1.1v-7.2h1.1V152.4z"/>
		<path id="XMLID_1351_" class="st10" d="M72.7,145.2v5.5c0,0.3-0.1,0.7-0.3,0.9c-0.1,0.1-0.2,0.2-0.3,0.3c-0.1,0.1-0.2,0.2-0.4,0.3
			c-0.1,0.1-0.3,0.2-0.5,0.2c-0.2,0.1-0.4,0.1-0.6,0.1c-0.2,0-0.3,0-0.5-0.1s-0.3-0.1-0.4-0.2c-0.1-0.1-0.2-0.2-0.3-0.3
			c-0.1-0.1-0.1-0.3-0.1-0.5c0,0.2,0,0.3-0.1,0.5c-0.1,0.1-0.2,0.3-0.3,0.3c-0.1,0.1-0.3,0.2-0.4,0.2s-0.3,0.1-0.5,0.1
			c-0.2,0-0.5,0-0.6-0.1c-0.2-0.1-0.4-0.1-0.5-0.2c-0.1-0.1-0.3-0.2-0.4-0.3c-0.1-0.1-0.2-0.2-0.2-0.3c-0.2-0.3-0.3-0.6-0.3-0.9
			v-5.5h1.1v5c0,0.3,0,0.6,0.1,0.7c0.1,0.2,0.2,0.3,0.3,0.4c0.1,0.1,0.2,0.1,0.3,0.1c0.1,0,0.2,0,0.2,0h0c0.2,0,0.3,0,0.4-0.1
			s0.2-0.2,0.2-0.3c0.1-0.1,0.1-0.3,0.1-0.4s0-0.2,0-0.3v-0.1v-5h1v5v0.1c0,0.1,0,0.2,0,0.3c0,0.1,0.1,0.3,0.1,0.4
			c0.1,0.1,0.1,0.2,0.2,0.3s0.3,0.1,0.4,0.1h0.1c0,0,0.1,0,0.2,0c0.1,0,0.2-0.1,0.3-0.1c0.1-0.1,0.2-0.2,0.3-0.4
			c0.1-0.2,0.1-0.4,0.1-0.7v-5H72.7z"/>
		<path id="XMLID_1349_" class="st10" d="M80,145.1c0,0,0,0.1-0.1,0.2c-0.1,0.1-0.2,0.2-0.3,0.3c-0.1,0.1-0.2,0.2-0.3,0.3
			c-0.1,0.1-0.2,0.1-0.3,0.2c0.1,0.2,0.3,0.4,0.3,0.6c0.1,0.2,0.1,0.4,0.2,0.6s0.1,0.3,0.1,0.5s0,0.2,0,0.3v0.1v4.4h-1.1V148
			c0-0.2,0-0.4-0.1-0.6s-0.1-0.3-0.2-0.4c-0.1-0.1-0.2-0.2-0.3-0.3c-0.1-0.1-0.2-0.2-0.3-0.2c-0.3-0.1-0.5-0.2-0.9-0.2
			c-0.2,0-0.4,0-0.6,0.1c-0.2,0.1-0.3,0.1-0.4,0.2c-0.1,0.1-0.2,0.2-0.3,0.3c-0.1,0.1-0.2,0.2-0.2,0.3c-0.1,0.3-0.2,0.6-0.2,0.9v0.7
			c0.2-0.1,0.4-0.2,0.7-0.3c0.2-0.1,0.5-0.1,0.7-0.1c0.2,0,0.4,0,0.7,0.1v1.1c-0.1,0-0.2-0.1-0.3-0.1s-0.2,0-0.4,0
			c-0.3,0-0.6,0.1-0.9,0.2c-0.1,0.1-0.2,0.2-0.3,0.3c-0.1,0.1-0.2,0.3-0.2,0.4v2h-1.1v-4.5c0-0.4,0.1-0.8,0.2-1.1
			c0.1-0.3,0.3-0.6,0.4-0.8c0.2-0.2,0.4-0.4,0.6-0.5c0.2-0.1,0.4-0.2,0.6-0.3c0.2-0.1,0.4-0.1,0.6-0.1c0.2,0,0.3,0,0.4,0h0.1
			c0.2,0,0.4,0,0.6,0s0.3,0.1,0.5,0.1c0,0,0.1,0,0.2,0c0.1,0,0.2-0.1,0.4-0.1c0.1-0.1,0.3-0.2,0.5-0.3s0.3-0.3,0.4-0.5
			c0.1,0.1,0.2,0.2,0.4,0.3c0,0,0.1,0.1,0.1,0.1c0,0,0.1,0.1,0.1,0.1S79.9,145,80,145.1C79.9,145.1,80,145.1,80,145.1z"/>
		<path id="XMLID_1347_" class="st10" d="M89.4,152.4v-4.5c0-0.3,0-0.5-0.1-0.7c-0.1-0.2-0.2-0.4-0.3-0.5c-0.1-0.1-0.2-0.2-0.4-0.3
			c-0.1-0.1-0.3-0.1-0.4-0.2s-0.2,0-0.3-0.1c-0.1,0-0.2,0-0.2,0c-0.3,0-0.5,0-0.7,0.1c-0.2,0.1-0.4,0.2-0.5,0.3
			c-0.1,0.1-0.2,0.3-0.3,0.4c-0.1,0.1-0.1,0.3-0.2,0.4c0,0.1-0.1,0.2-0.1,0.3c0,0.1,0,0.1,0,0.2v4.5h-1.1v-7.2H86v1
			c0-0.1,0-0.2,0.1-0.3s0.1-0.2,0.2-0.3c0.1-0.1,0.2-0.1,0.3-0.2c0.1,0,0.2-0.1,0.3-0.1c0.2-0.1,0.5-0.1,0.8-0.1h0.2
			c0.4,0,0.8,0.1,1,0.2c0.3,0.1,0.5,0.3,0.7,0.4s0.3,0.4,0.4,0.6c0.1,0.2,0.2,0.4,0.2,0.6s0.1,0.4,0.1,0.5c0,0.2,0,0.3,0,0.4v0.1
			v4.5H89.4z"/>
		<path id="XMLID_1345_" class="st10" d="M89.2,154.1h-0.5v-1h1c0.1,0,0.3,0.1,0.4,0.2c0.1,0.1,0.2,0.2,0.2,0.4v2.1h-1V154.1z"/>
		<path id="XMLID_1343_" class="st10" d="M91.9,152.4v-5.5c0.1-0.3,0.3-0.5,0.5-0.7c0.2-0.2,0.4-0.4,0.5-0.5
			c0.2-0.1,0.4-0.2,0.6-0.3s0.3-0.1,0.5-0.2c0.2,0,0.3-0.1,0.4-0.1c0.1,0,0.2,0,0.3,0h0.1c0.3,0,0.7,0.1,0.9,0.1
			c0.3,0.1,0.5,0.2,0.7,0.3c0.2,0.1,0.4,0.3,0.5,0.4c0.1,0.2,0.2,0.3,0.3,0.5c0.1,0.2,0.2,0.3,0.2,0.5c0,0.2,0.1,0.3,0.1,0.4
			c0,0.1,0,0.2,0,0.3c0,0.1,0,0.2,0,0.2v4.5h-1.1v-4.5c0-0.3,0-0.5-0.1-0.7s-0.2-0.4-0.3-0.5c-0.1-0.1-0.3-0.2-0.4-0.3
			c-0.1-0.1-0.3-0.1-0.4-0.2c-0.1,0-0.2-0.1-0.3-0.1c-0.1,0-0.2,0-0.2,0c-0.2,0-0.4,0-0.6,0.1c-0.2,0-0.3,0.1-0.4,0.2
			c-0.1,0.1-0.2,0.2-0.3,0.3c-0.1,0.1-0.2,0.2-0.2,0.3c-0.1,0.3-0.2,0.5-0.2,0.9v4.5H91.9z"/>
		<path id="XMLID_1341_" class="st10" d="M101.1,145.2c0.1,0,0.2,0,0.3,0c0.1,0,0.3,0,0.5,0.1s0.4,0.1,0.5,0.2
			c0.2,0.1,0.4,0.3,0.5,0.4c0.2,0.2,0.3,0.4,0.4,0.7c0.1,0.3,0.2,0.6,0.2,1v2.4c0,0.5-0.1,0.9-0.3,1.2c-0.1,0.2-0.2,0.3-0.3,0.5
			s-0.3,0.3-0.4,0.4s-0.4,0.2-0.6,0.3c-0.2,0.1-0.5,0.1-0.8,0.1c-0.3,0-0.6,0-0.8-0.1s-0.4-0.2-0.6-0.3s-0.3-0.3-0.4-0.4
			c-0.1-0.2-0.2-0.3-0.3-0.5c0,0,0.1-0.1,0.2-0.1s0.2-0.1,0.3-0.2s0.2-0.1,0.3-0.2c0.1,0,0.1-0.1,0.2-0.1c0.1,0.2,0.2,0.3,0.3,0.5
			c0.1,0.1,0.3,0.2,0.4,0.2c0.2,0.1,0.3,0.1,0.5,0.1c0.3,0,0.5-0.1,0.7-0.2c0.1,0,0.2-0.1,0.2-0.2c0.1-0.1,0.2-0.2,0.2-0.3
			s0.1-0.2,0.2-0.3s0.1-0.3,0.1-0.5v-2.4c0-0.3-0.1-0.5-0.2-0.7c0-0.1-0.1-0.2-0.2-0.3s-0.1-0.2-0.2-0.2s-0.2-0.1-0.3-0.2
			c-0.1,0-0.3-0.1-0.4-0.1c-0.2,0-0.4,0-0.6,0.1c-0.2,0-0.3,0.1-0.4,0.2c-0.1,0.1-0.2,0.2-0.3,0.3c-0.1,0.1-0.2,0.3-0.2,0.5h-1.1
			c0-0.3,0.1-0.6,0.2-0.9c0.1-0.3,0.3-0.5,0.5-0.7c0.2-0.2,0.5-0.3,0.8-0.5C100.2,145.2,100.6,145.2,101.1,145.2L101.1,145.2
			L101.1,145.2z"/>
		<path id="XMLID_1339_" class="st10" d="M101.2,142.8v0.5h2.7v1h-3.2c-0.1,0-0.2,0-0.3-0.1c-0.1,0-0.1-0.1-0.1-0.2
			c0-0.1-0.1-0.2-0.1-0.2v-1.1H101.2z"/>
		<path id="XMLID_1337_" class="st10" d="M110.2,145.2v5.2c0,0.3,0,0.6-0.1,0.8s-0.2,0.4-0.3,0.6s-0.3,0.3-0.5,0.4
			c-0.2,0.1-0.3,0.2-0.5,0.2c-0.2,0-0.3,0.1-0.4,0.1c-0.1,0-0.2,0-0.3,0h-1.3c-0.4,0-0.7,0-0.9-0.1c-0.3-0.1-0.5-0.2-0.6-0.3
			c-0.2-0.1-0.3-0.3-0.4-0.4c-0.1-0.1-0.2-0.3-0.2-0.4c-0.1-0.1-0.1-0.3-0.1-0.4s0-0.2,0-0.3c0-0.3,0.1-0.5,0.2-0.7
			c0.1-0.2,0.2-0.3,0.4-0.5s0.3-0.2,0.4-0.3s0.2-0.1,0.2-0.1c-0.1,0-0.3-0.1-0.4-0.1c-0.1-0.1-0.2-0.1-0.3-0.2s-0.1-0.2-0.2-0.3
			c-0.1-0.1-0.1-0.2-0.1-0.3c-0.1-0.2-0.1-0.5-0.2-0.7c0-0.3,0-0.5,0.1-0.7s0.1-0.4,0.2-0.5c0.1-0.1,0.2-0.3,0.3-0.4
			c0.1-0.1,0.2-0.2,0.3-0.3c0.3-0.2,0.6-0.2,0.9-0.3h1.4v1h-0.9c-0.2,0-0.3,0-0.4,0c-0.1,0-0.2,0.1-0.3,0.1s-0.2,0.1-0.2,0.2
			c-0.1,0.1-0.1,0.1-0.2,0.2c-0.1,0.2-0.1,0.3-0.2,0.5c0,0.2,0,0.3,0.1,0.5c0.1,0.1,0.1,0.2,0.2,0.3s0.2,0.1,0.3,0.2
			c0.1,0,0.2,0.1,0.3,0.1c0.1,0,0.2,0,0.2,0c0.1,0,0.1,0,0.1,0h0.9v1h-0.9c-0.2,0-0.3,0-0.5,0.1c-0.1,0-0.2,0.1-0.3,0.2
			c-0.1,0.1-0.2,0.1-0.2,0.2c0,0.1-0.1,0.2-0.1,0.2c0,0.1,0,0.1,0,0.2c0,0.1,0,0.1,0,0.1c0,0.2,0,0.3,0.1,0.5c0,0.1,0.1,0.2,0.2,0.3
			s0.2,0.1,0.3,0.2c0.1,0,0.2,0.1,0.3,0.1c0.1,0,0.2,0,0.2,0c0.1,0,0.1,0,0.1,0h0h1.3c0.3,0,0.5-0.1,0.6-0.2
			c0.1-0.1,0.3-0.2,0.3-0.3c0.1-0.1,0.1-0.3,0.2-0.5v-5.2H110.2z"/>
		<path id="XMLID_1335_" class="st10" d="M115.9,152.4v-7.3c0-0.2,0-0.3,0.1-0.5s0.1-0.3,0.2-0.4c0.1-0.1,0.2-0.3,0.2-0.4
			s0.2-0.2,0.3-0.3s0.2-0.2,0.3-0.3c0.1-0.1,0.1-0.2,0.2-0.2c0-0.1,0.1-0.1,0.1-0.2c0-0.1,0-0.1,0-0.2c0-0.2,0-0.3-0.1-0.5
			s-0.1-0.3-0.2-0.3s-0.2-0.2-0.4-0.2c-0.1,0-0.3-0.1-0.4-0.1c-0.3,0-0.5,0-0.7,0.1c-0.2,0.1-0.3,0.1-0.3,0.2
			c-0.1,0.1-0.1,0.2-0.1,0.2H114c0,0,0,0,0,0v-0.1c0,0,0-0.1,0-0.2s0-0.2,0.1-0.3c0-0.1,0.1-0.2,0.2-0.3c0.1-0.1,0.2-0.2,0.4-0.3
			c0.2-0.1,0.3-0.2,0.6-0.2c0.2-0.1,0.5-0.1,0.8-0.1c0.3,0,0.6,0,0.9,0.1c0.2,0.1,0.4,0.2,0.6,0.3c0.2,0.1,0.3,0.3,0.4,0.4
			c0.1,0.1,0.2,0.3,0.2,0.4c0,0.1,0.1,0.3,0.1,0.4c0,0.1,0,0.2,0,0.3v0.1c0,0.1,0,0.2,0,0.3c0,0.1-0.1,0.2-0.1,0.3s-0.1,0.3-0.2,0.4
			c-0.1,0.1-0.2,0.3-0.3,0.5c-0.1,0.2-0.2,0.3-0.3,0.4c-0.1,0.1-0.1,0.2-0.2,0.3c0,0.1-0.1,0.2-0.1,0.3v7.3H115.9z"/>
		<path id="XMLID_1332_" class="st10" d="M123,146.6c0.2,0.1,0.4,0.2,0.6,0.3c0.1,0.1,0.2,0.3,0.2,0.6v2.5c0,0.4-0.1,0.7-0.2,1
			c-0.1,0.3-0.3,0.5-0.4,0.7c-0.2,0.2-0.4,0.3-0.6,0.4c-0.2,0.1-0.4,0.2-0.6,0.2s-0.4,0.1-0.5,0.1c-0.1,0-0.2,0-0.3,0
			c-0.4,0-0.8-0.1-1.1-0.2c-0.3-0.1-0.5-0.3-0.7-0.4c-0.2-0.2-0.3-0.4-0.4-0.6c-0.1-0.2-0.2-0.4-0.2-0.6s-0.1-0.4-0.1-0.5
			s0-0.2,0-0.3c0-0.2,0-0.4,0.1-0.6c0.1-0.2,0.2-0.4,0.3-0.5c0.1-0.2,0.2-0.3,0.3-0.4c0.1-0.1,0.2-0.2,0.3-0.4s0.2-0.2,0.3-0.3
			s0.1-0.2,0.1-0.3c0,0,0-0.1,0-0.1c0,0,0,0,0-0.1c0-0.2,0-0.3-0.1-0.4s-0.1-0.2-0.2-0.3s-0.2-0.1-0.3-0.2c-0.1,0-0.2-0.1-0.3-0.1
			s-0.2,0-0.3,0c-0.1,0-0.2,0-0.2,0h-0.1v-1h0.6c0.3,0,0.5,0,0.7,0.1c0.2,0.1,0.4,0.2,0.5,0.3c0.1,0.1,0.3,0.3,0.3,0.4
			c0.1,0.2,0.1,0.3,0.2,0.5c0,0.2,0.1,0.3,0.1,0.4c0,0.1,0,0.2,0,0.3c0,0,0,0,0,0.1c0,0,0,0,0,0v0c0,0.1,0,0.3-0.1,0.4
			s-0.1,0.2-0.2,0.3c-0.1,0.1-0.1,0.2-0.2,0.3c-0.2,0.2-0.4,0.4-0.5,0.6s-0.2,0.3-0.3,0.5c-0.1,0.1-0.1,0.2-0.1,0.3
			c0,0.1,0,0.1,0,0.2c0,0.2,0,0.5,0.1,0.6s0.1,0.3,0.2,0.4s0.2,0.2,0.3,0.3s0.2,0.1,0.3,0.1c0.1,0,0.2,0,0.3,0c0.1,0,0.1,0,0.2,0
			c0.2,0,0.4,0,0.6-0.1c0.2-0.1,0.3-0.1,0.4-0.2s0.2-0.2,0.3-0.3c0.1-0.1,0.1-0.2,0.2-0.3c0-0.1,0.1-0.2,0.1-0.3c0-0.1,0-0.1,0-0.2
			v-2.3c0-0.5-0.3-0.7-1-0.7h-0.4v-0.8h0.4c0.3,0,0.6-0.1,0.7-0.2c0.2-0.1,0.2-0.3,0.2-0.6v-0.2h1.1v0.4
			C123.8,146.2,123.5,146.5,123,146.6z"/>
		<path id="XMLID_1330_" class="st10" d="M123.8,143.3v1h-3V143h-0.5v-1h1.1c0.1,0,0.2,0,0.2,0.1c0.1,0,0.1,0.1,0.2,0.1
			c0,0.1,0.1,0.2,0.1,0.3v0.9H123.8z"/>
		<path id="XMLID_1328_" class="st10" d="M125.7,140.5c0.2,0.1,0.3,0.2,0.5,0.3c0.1,0.1,0.2,0.2,0.3,0.3c0.1,0.1,0.2,0.2,0.2,0.4
			c0.1,0.3,0.2,0.6,0.2,1v10h-1.1v-10c0-0.1,0-0.2-0.1-0.3c0-0.1-0.1-0.2-0.2-0.3c-0.1-0.1-0.1-0.2-0.2-0.3l-0.9,0.9l-1-1.4l0.7-0.6
			l0.5,0.7l0.5-0.8C125.4,140.4,125.6,140.5,125.7,140.5z"/>
		<path id="XMLID_1326_" class="st10" d="M132.8,152.4v-4.5c0-0.3-0.1-0.6-0.2-0.8c-0.1-0.1-0.1-0.2-0.2-0.3
			c-0.1-0.1-0.2-0.2-0.3-0.3s-0.3-0.1-0.5-0.2c-0.2,0-0.4-0.1-0.6-0.1s-0.4,0-0.6,0.1c-0.2,0-0.3,0.1-0.5,0.2
			c-0.1,0.1-0.2,0.2-0.3,0.3s-0.2,0.2-0.2,0.3c-0.1,0.2-0.2,0.5-0.2,0.8v2.4c0,0.2,0.1,0.3,0.1,0.4c0,0.1,0.1,0.2,0.2,0.4
			c0.1,0.1,0.2,0.2,0.3,0.3c0.1,0.1,0.3,0.2,0.4,0.2c0.1,0,0.2,0,0.3-0.1c0.1-0.1,0.2-0.1,0.2-0.2l0.7,0.7c-0.1,0.1-0.2,0.2-0.4,0.3
			c-0.1,0.1-0.3,0.1-0.4,0.2c-0.2,0.1-0.3,0.1-0.5,0.1c-0.1,0-0.1,0-0.2,0c-0.1,0-0.1,0-0.2,0c-0.3-0.1-0.5-0.2-0.7-0.3
			c-0.2-0.1-0.4-0.3-0.5-0.5c-0.1-0.2-0.2-0.4-0.3-0.7c-0.1-0.2-0.1-0.5-0.1-0.7v-2.4c0-0.4,0.1-0.8,0.3-1.1
			c0.1-0.3,0.3-0.6,0.5-0.8s0.4-0.4,0.6-0.5s0.4-0.2,0.6-0.3s0.4-0.1,0.5-0.1s0.3,0,0.3,0h0.1h0.1c0.1,0,0.2,0,0.3,0
			s0.3,0.1,0.5,0.1c0.2,0.1,0.4,0.1,0.6,0.3c0.2,0.1,0.4,0.3,0.6,0.5c0.2,0.2,0.3,0.5,0.5,0.8c0.1,0.3,0.2,0.7,0.3,1.1v4.5H132.8z"
			/>
		<path id="XMLID_1324_" class="st10" d="M134,143.3v1h-3V143h-0.5v-1h1.1c0.1,0,0.2,0,0.2,0.1c0.1,0,0.1,0.1,0.2,0.1
			c0,0.1,0.1,0.2,0.1,0.3v0.9H134z"/>
	</g>
</g>
</svg>
