<?xml version="1.0" encoding="utf-8"?>
<!-- Generator: Adobe Illustrator 19.0.0, SVG Export Plug-In . SVG Version: 6.00 Build 0)  -->
<svg version="1.1" id="Layer_1" xmlns="http://www.w3.org/2000/svg" xmlns:xlink="http://www.w3.org/1999/xlink" x="0px" y="0px"
	 viewBox="0 0 166.6 167.3" style="enable-background:new 0 0 166.6 167.3;" xml:space="preserve">
<style type="text/css">
	.st0{fill:#EF3852;}
	.st1{fill:#FFFFFF;}
	.st2{fill:#654119;}
	.st3{fill:#472E13;}
	.st4{fill:#5B602A;}
	.st5{fill:#BF2035;}
	.st6{fill:#A01C32;}
	.st7{fill:#E5E5E3;}
	.st8{fill:#C1C0B2;}
	.st9{fill:#CD202B;}
	.st10{fill:#404040;stroke:#404040;stroke-width:0.5;stroke-miterlimit:10;}
	.st11{fill:#404040;}
</style>
<rect id="XMLID_26_" x="17.8" y="0" class="st0" width="148.8" height="167"/>
<rect id="XMLID_25_" x="17.8" y="87.1" class="st1" width="148.8" height="80.1"/>
<g id="XMLID_3_">
	<rect id="XMLID_24_" x="67.2" y="11.6" class="st2" width="42" height="65.2"/>
	<rect id="XMLID_23_" x="70.9" y="16.5" class="st3" width="7.3" height="11.7"/>
	<rect id="XMLID_22_" x="83.4" y="16.4" class="st3" width="7.3" height="11.7"/>
	<rect id="XMLID_21_" x="70.9" y="31.6" class="st3" width="7.3" height="11.7"/>
	<rect id="XMLID_19_" x="83.4" y="31.5" class="st3" width="7.3" height="11.7"/>
	<rect id="XMLID_16_" x="96" y="31.3" class="st3" width="7.3" height="11.7"/>
	<rect id="XMLID_15_" x="70.9" y="46.7" class="st4" width="7.3" height="11.7"/>
	<rect id="XMLID_11_" x="83.4" y="46.5" class="st4" width="7.3" height="11.7"/>
	<rect id="XMLID_10_" x="96" y="46.4" class="st3" width="7.3" height="11.7"/>
	<polygon id="XMLID_3919_" class="st5" points="67.2,46.1 67.2,76.8 109.2,76.8 109.2,59.5 99.6,59.5 93.4,50.6 70.2,50.6 	"/>
	<rect id="XMLID_9_" x="67.2" y="70.9" class="st6" width="42" height="5.9"/>
	<rect id="XMLID_8_" x="107.2" y="24.9" class="st3" width="2" height="31.8"/>
	<rect id="XMLID_7_" x="96" y="16.3" class="st3" width="7.3" height="11.7"/>
	<circle id="XMLID_3920_" class="st0" cx="97.6" cy="13.4" r="4.1"/>
	<circle id="XMLID_3921_" class="st0" cx="101.7" cy="17.5" r="4.1"/>
	<circle id="XMLID_3922_" class="st0" cx="107.2" cy="20.8" r="4.1"/>
	<polygon id="XMLID_3923_" class="st0" points="95,7.2 114.4,25.3 118.1,15.7 117.2,11.6 112.8,8.7 	"/>
	<polygon id="XMLID_3924_" class="st3" points="100.7,10.5 100.7,13.7 103.1,13.7 103.1,11.6 	"/>
	<polygon id="XMLID_3925_" class="st3" points="103.5,15 103.5,18.3 105.8,18.3 105.8,16.1 	"/>
	<polygon id="XMLID_3926_" class="st3" points="113.2,20.5 113.2,23.8 115.6,23.8 115.6,21.6 	"/>
	<polygon id="XMLID_6_" class="st3" points="100,13.8 96.8,13.8 96.8,16.2 98.9,16.2 	"/>
	<polygon id="XMLID_3927_" class="st7" points="67.2,42.3 62.6,46.9 67.2,46.9 70.2,50.6 93.4,50.6 99.6,59.5 109.2,59.5 
		109.2,63.8 114.4,58.6 109,53.2 100.5,53.2 100.5,48.1 95,42.2 	"/>
	<rect id="XMLID_5_" x="74.2" y="42.3" class="st8" width="3.9" height="8.3"/>
	<rect id="XMLID_4_" x="80.2" y="42.3" class="st8" width="3.9" height="8.3"/>
</g>
<g id="XMLID_4128_">
	<circle id="XMLID_4129_" class="st9" cx="33.1" cy="97.9" r="4"/>
	<path id="XMLID_4130_" class="st9" d="M29,97.9h8.1V108C37.1,108,29,103.1,29,97.9z"/>
	<circle id="XMLID_2_" class="st9" cx="41.1" cy="97.8" r="4"/>
	<path id="XMLID_1_" class="st9" d="M45.1,97.8h-8.1v10.1C37.1,107.8,45.1,102.9,45.1,97.8z"/>
</g>
<g id="XMLID_13_">
	<g id="XMLID_1069_">
		<path id="XMLID_1178_" class="st10" d="M57.2,101.1c0.2,0.1,0.4,0.2,0.6,0.3s0.2,0.3,0.2,0.6v2.6c0,0.4-0.1,0.8-0.2,1
			c-0.1,0.3-0.3,0.5-0.4,0.7c-0.2,0.2-0.4,0.3-0.6,0.4c-0.2,0.1-0.4,0.2-0.6,0.2c-0.2,0-0.4,0.1-0.5,0.1c-0.1,0-0.2,0-0.3,0
			c-0.4,0-0.8-0.1-1.1-0.2c-0.3-0.1-0.5-0.3-0.7-0.4c-0.2-0.2-0.3-0.4-0.5-0.6s-0.2-0.4-0.2-0.6c-0.1-0.2-0.1-0.4-0.1-0.5
			c0-0.1,0-0.2,0-0.3c0-0.2,0-0.5,0.1-0.6c0.1-0.2,0.2-0.4,0.3-0.5s0.2-0.3,0.3-0.4c0.1-0.1,0.2-0.2,0.3-0.4
			c0.1-0.1,0.2-0.2,0.3-0.3c0.1-0.1,0.1-0.2,0.1-0.3c0,0,0-0.1,0-0.1c0,0,0-0.1,0-0.1c0-0.2,0-0.3-0.1-0.4s-0.1-0.2-0.2-0.3
			c-0.1-0.1-0.2-0.1-0.3-0.2c-0.1,0-0.2-0.1-0.3-0.1c-0.1,0-0.2,0-0.3,0s-0.2,0-0.2,0h-0.1v-1h0.6c0.3,0,0.5,0,0.8,0.1
			s0.4,0.2,0.5,0.3c0.1,0.1,0.3,0.3,0.3,0.4c0.1,0.2,0.1,0.3,0.2,0.5c0,0.2,0.1,0.3,0.1,0.4c0,0.1,0,0.2,0,0.3c0,0,0,0,0,0.1
			c0,0,0,0,0,0v0c0,0.1,0,0.3-0.1,0.4c-0.1,0.1-0.1,0.2-0.2,0.3c-0.1,0.1-0.2,0.2-0.2,0.3c-0.2,0.2-0.4,0.4-0.5,0.6
			s-0.2,0.3-0.3,0.5c-0.1,0.1-0.1,0.2-0.1,0.3c0,0.1,0,0.1,0,0.2c0,0.3,0,0.5,0.1,0.6c0.1,0.2,0.1,0.3,0.2,0.4s0.2,0.2,0.3,0.3
			s0.2,0.1,0.3,0.1s0.2,0,0.3,0c0.1,0,0.1,0,0.2,0c0.2,0,0.4,0,0.6-0.1c0.2-0.1,0.3-0.2,0.4-0.3s0.2-0.2,0.3-0.3
			c0.1-0.1,0.1-0.2,0.2-0.3c0-0.1,0.1-0.2,0.1-0.3c0-0.1,0-0.1,0-0.2v-2.3c0-0.5-0.3-0.7-1-0.7h-0.4v-0.8h0.4c0.3,0,0.6-0.1,0.7-0.2
			c0.2-0.1,0.2-0.4,0.2-0.6v-0.2H58v0.4C58,100.6,57.7,101,57.2,101.1z"/>
		<path id="XMLID_1176_" class="st10" d="M57.4,96.8h-3.1c-0.1,0-0.1,0-0.2,0c0,0-0.1,0.1-0.1,0.1c0,0.1,0,0.1-0.1,0.2s0,0.1,0,0.2
			c0,0.1,0,0.1,0,0.2c0,0.1,0,0.1,0.1,0.2c0,0.1,0.1,0.1,0.1,0.1s0.1,0.1,0.1,0.1c0.1,0,0.1,0,0.2-0.1c0,0,0.1-0.1,0.1-0.1
			c0-0.1,0-0.1,0-0.2s0-0.1,0-0.1v-0.1h0.8v0.1c0,0,0,0.1,0,0.1c0,0.1,0,0.1,0,0.2s0.1,0.1,0.1,0.1s0.1,0.1,0.2,0.1s0.1,0,0.2-0.1
			c0,0,0.1-0.1,0.1-0.1c0-0.1,0-0.1,0-0.2c0-0.1,0-0.1,0-0.1v-0.1H57c0,0.3,0,0.5-0.1,0.7c-0.1,0.2-0.2,0.3-0.3,0.4
			c-0.1,0.1-0.3,0.2-0.4,0.2c-0.1,0-0.3,0.1-0.4,0.1s-0.2,0-0.3,0c-0.1,0-0.2-0.1-0.2-0.1c-0.1,0-0.2-0.1-0.2-0.1c0,0-0.1,0-0.1,0.1
			c-0.1,0-0.1,0.1-0.2,0.1c-0.1,0-0.1,0.1-0.2,0.1c-0.1,0-0.2,0-0.2,0c-0.1,0-0.1,0-0.2,0c-0.1,0-0.2,0-0.2-0.1
			c-0.1,0-0.2-0.1-0.3-0.1s-0.2-0.1-0.2-0.2c-0.1-0.1-0.1-0.2-0.2-0.4c0-0.2-0.1-0.3-0.1-0.6c0-0.3,0.1-0.6,0.2-0.8
			c0.1-0.2,0.2-0.4,0.4-0.5s0.3-0.2,0.4-0.2c0.1,0,0.2-0.1,0.3-0.1h3.1V96.8z"/>
		<path id="XMLID_1174_" class="st10" d="M65,104.4c0,0.5-0.2,0.9-0.4,1.3c-0.1,0.2-0.2,0.3-0.3,0.5s-0.3,0.3-0.5,0.4
			s-0.4,0.2-0.7,0.3s-0.6,0.1-0.9,0.1c-0.4,0-0.7,0-0.9-0.1s-0.5-0.2-0.7-0.3s-0.4-0.3-0.5-0.4c-0.1-0.2-0.3-0.3-0.3-0.5
			c-0.2-0.4-0.3-0.8-0.4-1.3V103h2.1v1h-1v0.5c0,0.2,0,0.4,0.1,0.5c0.1,0.2,0.1,0.3,0.2,0.4c0.1,0.1,0.2,0.2,0.3,0.3
			c0.1,0.1,0.2,0.1,0.3,0.2c0.3,0.1,0.6,0.2,0.9,0.2c0.3,0,0.6-0.1,0.9-0.2c0.1-0.1,0.2-0.1,0.3-0.2c0.1-0.1,0.2-0.2,0.3-0.3
			c0.1-0.1,0.2-0.2,0.2-0.4c0.1-0.2,0.1-0.3,0.1-0.5v-2.2c0-0.2,0-0.4-0.1-0.5c-0.1-0.1-0.1-0.3-0.2-0.4c-0.1-0.1-0.2-0.2-0.3-0.3
			c-0.1-0.1-0.2-0.1-0.3-0.2c-0.3-0.1-0.6-0.2-0.9-0.2H62c-0.1,0-0.2,0-0.3,0c-0.2,0-0.3,0.1-0.5,0.2c-0.2,0.1-0.3,0.2-0.5,0.3
			s-0.3,0.3-0.3,0.6h-1.1c0-0.1,0.1-0.3,0.1-0.4s0.1-0.3,0.2-0.5s0.2-0.3,0.4-0.5c0.1-0.2,0.3-0.3,0.5-0.4c0.2-0.1,0.4-0.2,0.7-0.3
			c0.3-0.1,0.6-0.1,0.9-0.1c0.3,0,0.7,0,0.9,0.1s0.5,0.2,0.7,0.3c0.2,0.1,0.4,0.3,0.5,0.4s0.3,0.3,0.3,0.5c0.2,0.4,0.3,0.8,0.4,1.3
			V104.4z"/>
		<path id="XMLID_1172_" class="st10" d="M66,107v-5.6c0.2-0.3,0.3-0.5,0.5-0.7c0.2-0.2,0.4-0.4,0.6-0.5c0.2-0.1,0.4-0.2,0.6-0.3
			s0.4-0.1,0.5-0.2c0.2,0,0.3-0.1,0.4-0.1c0.1,0,0.2,0,0.3,0h0.1c0.4,0,0.7,0.1,0.9,0.1s0.5,0.2,0.7,0.3c0.2,0.1,0.4,0.3,0.5,0.4
			c0.1,0.2,0.3,0.3,0.3,0.5c0.1,0.2,0.2,0.3,0.2,0.5s0.1,0.3,0.1,0.4c0,0.1,0,0.2,0,0.3c0,0.1,0,0.2,0,0.2v4.5h-1.1v-4.5
			c0-0.3,0-0.5-0.1-0.7c-0.1-0.2-0.2-0.4-0.3-0.5s-0.3-0.2-0.4-0.3c-0.1-0.1-0.3-0.1-0.4-0.2s-0.2-0.1-0.3-0.1c-0.1,0-0.2,0-0.2,0
			c-0.2,0-0.4,0-0.6,0.1c-0.2,0-0.3,0.1-0.4,0.2c-0.1,0.1-0.2,0.2-0.3,0.3c-0.1,0.1-0.2,0.2-0.2,0.3c-0.1,0.3-0.2,0.5-0.2,0.9v4.5
			H66z"/>
		<path id="XMLID_1170_" class="st10" d="M73.8,107v-7.4c0-0.1,0-0.3-0.1-0.4c-0.1-0.1-0.1-0.3-0.2-0.4c-0.1-0.1-0.2-0.3-0.3-0.4
			s-0.2-0.3-0.3-0.4c-0.1-0.1-0.2-0.3-0.2-0.5c-0.1-0.2-0.1-0.3-0.1-0.5c0-0.2,0-0.5,0.1-0.7c0.1-0.3,0.1-0.5,0.3-0.7
			c0.1-0.2,0.3-0.4,0.6-0.5s0.5-0.2,0.9-0.2h2.8v1h-2.5c-0.2,0-0.3,0.1-0.5,0.1c-0.1,0-0.1,0.1-0.2,0.1c-0.1,0.1-0.1,0.1-0.2,0.2
			c0,0.1-0.1,0.2-0.1,0.3s0,0.2,0,0.4c0,0.2,0,0.3,0.1,0.4c0.1,0.1,0.1,0.2,0.2,0.3c0.1,0.1,0.2,0.2,0.4,0.4
			c0.1,0.2,0.3,0.4,0.5,0.6c0,0.1,0.1,0.2,0.1,0.3c0,0.1,0,0.2,0.1,0.3c0,0.1,0,0.3,0,0.4v7.3H73.8z"/>
		<path id="XMLID_1168_" class="st10" d="M76.2,107v-5.6c0.2-0.3,0.3-0.5,0.5-0.7c0.2-0.2,0.4-0.4,0.6-0.5c0.2-0.1,0.4-0.2,0.6-0.3
			s0.4-0.1,0.5-0.2c0.2,0,0.3-0.1,0.4-0.1c0.1,0,0.2,0,0.3,0H79c0.4,0,0.7,0.1,0.9,0.1s0.5,0.2,0.7,0.3c0.2,0.1,0.4,0.3,0.5,0.4
			c0.1,0.2,0.3,0.3,0.3,0.5c0.1,0.2,0.2,0.3,0.2,0.5s0.1,0.3,0.1,0.4c0,0.1,0,0.2,0,0.3c0,0.1,0,0.2,0,0.2v4.5h-1.1v-4.5
			c0-0.3,0-0.5-0.1-0.7c-0.1-0.2-0.2-0.4-0.3-0.5s-0.3-0.2-0.4-0.3c-0.1-0.1-0.3-0.1-0.4-0.2s-0.2-0.1-0.3-0.1c-0.1,0-0.2,0-0.2,0
			c-0.2,0-0.4,0-0.6,0.1c-0.2,0-0.3,0.1-0.4,0.2c-0.1,0.1-0.2,0.2-0.3,0.3c-0.1,0.1-0.2,0.2-0.2,0.3c-0.1,0.3-0.2,0.5-0.2,0.9v4.5
			H76.2z"/>
		<path id="XMLID_1165_" class="st10" d="M84.3,107h-1.1v-7.3h1.1V107z M86.6,107h-1.1v-7.3h1.1V107z"/>
		<path id="XMLID_1163_" class="st10" d="M91.7,99.8c0.3,0.1,0.6,0.3,0.8,0.5c0.2,0.2,0.4,0.4,0.5,0.6c0.1,0.2,0.2,0.4,0.3,0.7
			s0.1,0.4,0.1,0.6c0,0.2,0,0.3,0,0.4v0.1v4.5h-1.1v-2.2c0-0.2,0-0.4-0.1-0.5s-0.2-0.3-0.4-0.4c-0.1-0.1-0.3-0.2-0.5-0.2
			c-0.2-0.1-0.3-0.1-0.5-0.1c-0.1,0-0.3,0-0.5-0.1c0,0-0.1,0-0.1,0c-0.1,0-0.2,0-0.3,0c-0.1,0-0.2,0.1-0.4,0.1s-0.2,0.1-0.4,0.2
			c-0.1,0.1-0.2,0.2-0.3,0.3c-0.1,0.1-0.2,0.3-0.2,0.5c0,0.1,0,0.1,0,0.2c0,0.2,0,0.3,0.1,0.4s0.2,0.2,0.3,0.3
			c0.1,0.1,0.3,0.1,0.4,0.2c0.1,0,0.3,0.1,0.4,0.1c0.1,0,0.3,0,0.4,0s0.2,0,0.3,0h0.1v1h-1.2c-0.3,0-0.5-0.1-0.7-0.2
			s-0.4-0.3-0.6-0.4c-0.2-0.2-0.3-0.4-0.4-0.7c-0.1-0.2-0.1-0.5-0.1-0.8c0-0.3,0.1-0.5,0.2-0.8c0.1-0.3,0.3-0.5,0.6-0.8
			c0.2-0.2,0.3-0.3,0.5-0.4c0.2-0.1,0.4-0.2,0.5-0.3s0.4-0.1,0.5-0.1s0.3,0,0.5,0c0.3,0,0.5,0,0.7,0.1c0.2,0,0.4,0.1,0.6,0.2
			c0.2,0.1,0.4,0.1,0.5,0.2v-0.4c0-0.2,0-0.4-0.1-0.6c-0.1-0.2-0.1-0.3-0.2-0.5c-0.1-0.1-0.2-0.2-0.3-0.3c-0.1-0.1-0.2-0.2-0.3-0.2
			c-0.3-0.1-0.6-0.2-0.9-0.2c-0.3,0-0.5,0.1-0.8,0.2c-0.2,0.1-0.4,0.2-0.5,0.4c-0.1,0.2-0.2,0.3-0.3,0.5c-0.1,0.2-0.1,0.3-0.2,0.4
			h-1.1c0-0.4,0.1-0.8,0.2-1c0.1-0.3,0.3-0.5,0.5-0.7c0.2-0.2,0.4-0.3,0.6-0.4s0.4-0.2,0.6-0.2c0.2-0.1,0.4-0.1,0.5-0.1s0.3,0,0.3,0
			h0.1C90.9,99.6,91.3,99.6,91.7,99.8z"/>
		<path id="XMLID_1161_" class="st10" d="M99.8,100.4c0.1,0.2,0.3,0.4,0.3,0.6c0.1,0.2,0.1,0.4,0.2,0.7v5.3h-1.1v-4.9
			c0-0.3-0.1-0.6-0.2-0.8c-0.1-0.2-0.3-0.4-0.4-0.5l-1.2,0.8l-1.2-0.8c-0.2,0.1-0.3,0.3-0.4,0.5c-0.1,0.2-0.2,0.5-0.2,0.8v2.6
			c0,0.2,0.1,0.5,0.2,0.6c0,0.1,0.1,0.2,0.2,0.2s0.1,0.1,0.2,0.2c0.1,0.1,0.2,0.1,0.3,0.1c0.1,0,0.3,0.1,0.4,0.1h0.8v1h-1.5
			c-0.3,0-0.6-0.1-0.8-0.3c-0.1-0.1-0.2-0.2-0.3-0.3s-0.2-0.2-0.3-0.4s-0.1-0.3-0.2-0.5c0-0.2-0.1-0.4-0.1-0.7v-3.2
			c0.1-0.5,0.2-0.9,0.5-1.3c0.3-0.4,0.6-0.6,1.1-0.8l1.3,0.8l1.3-0.8C99.1,99.7,99.5,100,99.8,100.4z"/>
		<path id="XMLID_1159_" class="st11" d="M56.7,116.4c0.3,0.1,0.6,0.3,0.8,0.5s0.4,0.4,0.5,0.6c0.1,0.2,0.2,0.4,0.3,0.6
			c0.1,0.2,0.1,0.4,0.1,0.6c0,0.2,0,0.3,0,0.4v0.1v4.4h-1.1v-4.4c0-0.2,0-0.4-0.1-0.6c0-0.2-0.1-0.3-0.2-0.4
			c-0.1-0.1-0.2-0.2-0.3-0.3c-0.1-0.1-0.2-0.2-0.3-0.2c-0.3-0.1-0.5-0.2-0.9-0.2c-0.2,0-0.4,0-0.6,0.1c-0.2,0.1-0.3,0.1-0.4,0.2
			c-0.1,0.1-0.2,0.2-0.3,0.3c-0.1,0.1-0.2,0.2-0.2,0.3c-0.1,0.3-0.2,0.6-0.2,0.9v0.7c0.4-0.2,0.9-0.4,1.4-0.4c0.2,0,0.5,0,0.7,0.1
			v1.1c-0.1,0-0.2-0.1-0.3-0.1c-0.1,0-0.2,0-0.4,0c-0.3,0-0.6,0.1-0.9,0.2c-0.1,0.1-0.2,0.2-0.3,0.3c-0.1,0.1-0.2,0.3-0.2,0.4v2
			h-1.1V119c0-0.4,0.1-0.8,0.2-1.1s0.3-0.6,0.4-0.8c0.2-0.2,0.4-0.4,0.6-0.5c0.2-0.1,0.4-0.2,0.6-0.3c0.2-0.1,0.4-0.1,0.6-0.1
			c0.2,0,0.3,0,0.4,0h0.1C56,116.2,56.4,116.3,56.7,116.4z"/>
		<path id="XMLID_1157_" class="st11" d="M61.9,116.2c0.1,0,0.2,0,0.3,0c0.1,0,0.3,0,0.5,0.1s0.4,0.1,0.5,0.2s0.4,0.3,0.5,0.4
			c0.2,0.2,0.3,0.4,0.4,0.7c0.1,0.3,0.2,0.6,0.2,1v2.4c0,0.5-0.1,0.9-0.3,1.2c-0.1,0.2-0.2,0.3-0.3,0.5c-0.1,0.1-0.3,0.3-0.4,0.4
			s-0.4,0.2-0.6,0.3c-0.2,0.1-0.5,0.1-0.8,0.1c-0.3,0-0.6,0-0.8-0.1c-0.2-0.1-0.4-0.2-0.6-0.3c-0.2-0.1-0.3-0.3-0.4-0.4
			c-0.1-0.2-0.2-0.3-0.3-0.5c0,0,0.1-0.1,0.2-0.1s0.2-0.1,0.3-0.2s0.2-0.1,0.3-0.2s0.1-0.1,0.2-0.1c0.1,0.2,0.2,0.3,0.3,0.5
			c0.1,0.1,0.3,0.2,0.4,0.2c0.2,0.1,0.3,0.1,0.5,0.1c0.3,0,0.5-0.1,0.7-0.2c0.1,0,0.2-0.1,0.2-0.2c0.1-0.1,0.2-0.2,0.2-0.3
			s0.1-0.2,0.2-0.3s0.1-0.3,0.1-0.5v-2.4c0-0.3-0.1-0.5-0.2-0.7c0-0.1-0.1-0.2-0.2-0.3c-0.1-0.1-0.1-0.2-0.2-0.2
			c-0.1-0.1-0.2-0.1-0.3-0.2c-0.1,0-0.3-0.1-0.4-0.1c-0.2,0-0.4,0-0.6,0.1c-0.2,0-0.3,0.1-0.4,0.2s-0.2,0.2-0.3,0.3
			c-0.1,0.1-0.2,0.3-0.2,0.5h-1.1c0-0.3,0.1-0.6,0.2-0.9c0.1-0.3,0.3-0.5,0.5-0.7c0.2-0.2,0.5-0.3,0.8-0.5
			C61.1,116.3,61.4,116.2,61.9,116.2L61.9,116.2L61.9,116.2z"/>
		<path id="XMLID_1155_" class="st11" d="M66.6,116.2c0,0,0.1,0,0.2,0c0.1,0,0.2,0,0.4,0.1c0.1,0,0.3,0.1,0.5,0.2s0.3,0.2,0.4,0.4
			c0.1,0.2,0.2,0.4,0.3,0.6s0.1,0.5,0.1,0.9v5.1h-1.1v-5.1c0-0.2,0-0.4-0.1-0.5c0-0.1-0.1-0.1-0.1-0.2c0-0.1-0.1-0.1-0.1-0.2
			c-0.1,0-0.1-0.1-0.2-0.1s-0.2,0-0.3,0c-0.2,0-0.3,0-0.5,0.1c-0.1,0-0.2,0.1-0.3,0.1s-0.1,0.1-0.2,0.2c0,0.1-0.1,0.1-0.1,0.1
			l-0.7-0.8c0.1-0.1,0.3-0.3,0.4-0.4c0.1-0.1,0.3-0.2,0.6-0.3C66,116.3,66.3,116.2,66.6,116.2z"/>
		<path id="XMLID_1153_" class="st11" d="M75.6,116.3v4.5v0.1c0,0.1,0,0.2,0,0.4c0,0.2,0,0.4-0.1,0.6c-0.1,0.2-0.1,0.4-0.2,0.6
			s-0.3,0.4-0.4,0.6s-0.4,0.3-0.7,0.4c-0.3,0.1-0.6,0.2-1,0.2h-0.2c-0.3,0-0.6-0.1-0.8-0.2c-0.1,0-0.2-0.1-0.3-0.1s-0.2-0.1-0.3-0.2
			c-0.1-0.1-0.1-0.2-0.2-0.3s-0.1-0.2-0.1-0.4v1H70v-7.2h1.1v4.5c0,0,0,0.1,0,0.2c0,0.1,0,0.2,0.1,0.3c0,0.1,0.1,0.3,0.2,0.4
			c0.1,0.2,0.2,0.3,0.3,0.4c0.1,0.1,0.3,0.2,0.5,0.3s0.4,0.1,0.7,0.1c0,0,0.1,0,0.2,0s0.2,0,0.3-0.1c0.1,0,0.3-0.1,0.4-0.2
			c0.1-0.1,0.3-0.2,0.4-0.3c0.1-0.1,0.2-0.3,0.3-0.5c0.1-0.2,0.1-0.5,0.1-0.8v-4.5H75.6z"/>
		<path id="XMLID_1151_" class="st11" d="M81,118.1l-0.5-0.3c-0.1-0.1-0.2-0.1-0.4-0.2c-0.1-0.1-0.3-0.1-0.4-0.2
			c-0.1,0-0.3-0.1-0.4-0.1c-0.1,0-0.2,0-0.3,0c-0.2,0-0.3,0-0.5,0s-0.3,0.1-0.4,0.2c-0.1,0.1-0.2,0.2-0.3,0.3s-0.1,0.3-0.1,0.5
			s0.1,0.4,0.2,0.5c0.1,0.1,0.3,0.2,0.5,0.3s0.4,0.1,0.6,0.2s0.5,0.1,0.7,0.1c0.2,0,0.5,0.1,0.7,0.2c0.2,0.1,0.4,0.3,0.6,0.4
			s0.3,0.4,0.4,0.6c0.1,0.2,0.2,0.5,0.2,0.7c0,0.4-0.1,0.7-0.2,1c-0.1,0.3-0.3,0.5-0.5,0.7c-0.2,0.2-0.5,0.3-0.8,0.4
			c-0.3,0.1-0.6,0.1-1,0.1c-0.5,0-0.9-0.1-1.3-0.2c-0.3-0.1-0.6-0.2-0.9-0.4c-0.3-0.2-0.5-0.3-0.7-0.5l0.7-0.7
			c0.1,0.1,0.2,0.2,0.3,0.3c0.1,0.1,0.3,0.2,0.5,0.2c0.2,0.1,0.4,0.1,0.6,0.2c0.2,0,0.4,0.1,0.6,0.1c0.2,0,0.4,0,0.6-0.1
			c0.2-0.1,0.3-0.1,0.5-0.2c0.1-0.1,0.2-0.2,0.3-0.4c0.1-0.1,0.1-0.3,0.1-0.5c0-0.2,0-0.3-0.1-0.4c-0.1-0.1-0.1-0.2-0.2-0.3
			s-0.2-0.1-0.2-0.1c-0.1,0-0.1,0-0.2-0.1c0,0-0.1,0-0.2,0c-0.1,0-0.3,0-0.4-0.1c-0.2,0-0.3-0.1-0.5-0.1c-0.2,0-0.3,0-0.4-0.1
			c-0.1,0-0.1,0-0.2-0.1s-0.2-0.1-0.3-0.1c-0.1-0.1-0.2-0.1-0.4-0.2c-0.1-0.1-0.2-0.2-0.3-0.3c-0.1-0.1-0.2-0.3-0.2-0.5
			c-0.1-0.2-0.1-0.4-0.1-0.7c0-0.4,0.1-0.7,0.2-1c0.1-0.3,0.3-0.5,0.5-0.7s0.5-0.3,0.8-0.4s0.6-0.1,0.9-0.1c0.3,0,0.6,0,0.8,0.1
			c0.2,0.1,0.5,0.1,0.6,0.2c0.2,0.1,0.4,0.2,0.6,0.3l0.6,0.4L81,118.1z"/>
		<path id="XMLID_1149_" class="st11" d="M79.1,113.9v0.5h2.7v1h-3.2c-0.1,0-0.2,0-0.3-0.1c-0.1,0-0.1-0.1-0.1-0.2
			c0-0.1-0.1-0.2-0.1-0.2v-1.1H79.1z"/>
		<path id="XMLID_1147_" class="st11" d="M82.6,123.5V118c0.1-0.3,0.3-0.5,0.5-0.7s0.4-0.4,0.5-0.5c0.2-0.1,0.4-0.2,0.6-0.3
			c0.2-0.1,0.3-0.1,0.5-0.2s0.3-0.1,0.4-0.1c0.1,0,0.2,0,0.3,0h0.1c0.3,0,0.7,0.1,0.9,0.1s0.5,0.2,0.7,0.3s0.4,0.3,0.5,0.4
			c0.1,0.2,0.2,0.3,0.3,0.5s0.2,0.3,0.2,0.5c0,0.2,0.1,0.3,0.1,0.4c0,0.1,0,0.2,0,0.3s0,0.2,0,0.2v4.5h-1.1V119c0-0.3,0-0.5-0.1-0.7
			c-0.1-0.2-0.2-0.4-0.3-0.5c-0.1-0.1-0.3-0.2-0.4-0.3c-0.1-0.1-0.3-0.1-0.4-0.2c-0.1,0-0.2-0.1-0.3-0.1c-0.1,0-0.2,0-0.2,0
			c-0.2,0-0.4,0-0.6,0.1c-0.2,0-0.3,0.1-0.4,0.2c-0.1,0.1-0.2,0.2-0.3,0.3c-0.1,0.1-0.2,0.2-0.2,0.3c-0.1,0.3-0.2,0.5-0.2,0.9v4.5
			H82.6z"/>
		<path id="XMLID_1145_" class="st11" d="M90,122.6h1l-0.7,2.7h-1L90,122.6z"/>
		<path id="XMLID_1143_" class="st11" d="M56.7,132.9c0.3,0.1,0.6,0.3,0.8,0.5s0.4,0.4,0.5,0.6c0.1,0.2,0.2,0.4,0.3,0.6
			c0.1,0.2,0.1,0.4,0.1,0.6c0,0.2,0,0.3,0,0.4v0.1v4.4h-1.1v-4.4c0-0.2,0-0.4-0.1-0.6c0-0.2-0.1-0.3-0.2-0.4
			c-0.1-0.1-0.2-0.2-0.3-0.3c-0.1-0.1-0.2-0.2-0.3-0.2c-0.3-0.1-0.5-0.2-0.9-0.2c-0.2,0-0.4,0-0.6,0.1c-0.2,0.1-0.3,0.1-0.4,0.2
			s-0.2,0.2-0.3,0.3c-0.1,0.1-0.2,0.2-0.2,0.3c-0.1,0.3-0.2,0.6-0.2,0.9v0.7c0.4-0.2,0.9-0.4,1.4-0.4c0.2,0,0.5,0,0.7,0.1v1.1
			c-0.1,0-0.2-0.1-0.3-0.1c-0.1,0-0.2,0-0.4,0c-0.3,0-0.6,0.1-0.9,0.2c-0.1,0.1-0.2,0.2-0.3,0.3c-0.1,0.1-0.2,0.3-0.2,0.4v2h-1.1
			v-4.5c0-0.4,0.1-0.8,0.2-1.1s0.3-0.6,0.4-0.8c0.2-0.2,0.4-0.4,0.6-0.5c0.2-0.1,0.4-0.2,0.6-0.3c0.2-0.1,0.4-0.1,0.6-0.1
			c0.2,0,0.3,0,0.4,0h0.1C56,132.7,56.4,132.8,56.7,132.9z"/>
		<path id="XMLID_1141_" class="st11" d="M61.9,132.7c0.1,0,0.2,0,0.3,0c0.1,0,0.3,0,0.5,0.1s0.4,0.1,0.5,0.2
			c0.2,0.1,0.4,0.3,0.5,0.4c0.2,0.2,0.3,0.4,0.4,0.7c0.1,0.3,0.2,0.6,0.2,1v2.4c0,0.5-0.1,0.9-0.3,1.2c-0.1,0.2-0.2,0.3-0.3,0.5
			s-0.3,0.3-0.4,0.4s-0.4,0.2-0.6,0.3c-0.2,0.1-0.5,0.1-0.8,0.1c-0.3,0-0.6,0-0.8-0.1s-0.4-0.2-0.6-0.3s-0.3-0.3-0.4-0.4
			c-0.1-0.2-0.2-0.3-0.3-0.5c0,0,0.1-0.1,0.2-0.1s0.2-0.1,0.3-0.2s0.2-0.1,0.3-0.2c0.1,0,0.1-0.1,0.2-0.1c0.1,0.2,0.2,0.3,0.3,0.5
			c0.1,0.1,0.3,0.2,0.4,0.2c0.2,0.1,0.3,0.1,0.5,0.1c0.3,0,0.5-0.1,0.7-0.2c0.1,0,0.2-0.1,0.2-0.2c0.1-0.1,0.2-0.2,0.2-0.3
			s0.1-0.2,0.2-0.3s0.1-0.3,0.1-0.5v-2.4c0-0.3-0.1-0.5-0.2-0.7c0-0.1-0.1-0.2-0.2-0.3s-0.1-0.2-0.2-0.2s-0.2-0.1-0.3-0.2
			c-0.1,0-0.3-0.1-0.4-0.1c-0.2,0-0.4,0-0.6,0.1c-0.2,0-0.3,0.1-0.4,0.2c-0.1,0.1-0.2,0.2-0.3,0.3c-0.1,0.1-0.2,0.3-0.2,0.5h-1.1
			c0-0.3,0.1-0.6,0.2-0.9c0.1-0.3,0.3-0.5,0.5-0.7c0.2-0.2,0.5-0.3,0.8-0.5C61.1,132.8,61.4,132.7,61.9,132.7L61.9,132.7L61.9,132.7
			z"/>
		<path id="XMLID_1139_" class="st11" d="M66.6,132.7c0,0,0.1,0,0.2,0c0.1,0,0.2,0,0.4,0.1c0.1,0,0.3,0.1,0.5,0.2s0.3,0.2,0.4,0.4
			c0.1,0.2,0.2,0.4,0.3,0.6c0.1,0.2,0.1,0.5,0.1,0.9v5.1h-1.1v-5.1c0-0.2,0-0.4-0.1-0.5c0-0.1-0.1-0.1-0.1-0.2
			c0-0.1-0.1-0.1-0.1-0.2c-0.1,0-0.1-0.1-0.2-0.1s-0.2,0-0.3,0c-0.2,0-0.3,0-0.5,0.1c-0.1,0-0.2,0.1-0.3,0.1s-0.1,0.1-0.2,0.2
			s-0.1,0.1-0.1,0.1l-0.7-0.8c0.1-0.1,0.3-0.3,0.4-0.4c0.1-0.1,0.3-0.2,0.6-0.3C66,132.8,66.3,132.7,66.6,132.7z"/>
		<path id="XMLID_1137_" class="st11" d="M75.6,132.8v4.5v0.1c0,0.1,0,0.2,0,0.4c0,0.2,0,0.4-0.1,0.6c-0.1,0.2-0.1,0.4-0.2,0.6
			c-0.1,0.2-0.3,0.4-0.4,0.6s-0.4,0.3-0.7,0.4c-0.3,0.1-0.6,0.2-1,0.2h-0.2c-0.3,0-0.6-0.1-0.8-0.2c-0.1,0-0.2-0.1-0.3-0.1
			s-0.2-0.1-0.3-0.2c-0.1-0.1-0.1-0.2-0.2-0.3s-0.1-0.2-0.1-0.4v1H70v-7.2h1.1v4.5c0,0,0,0.1,0,0.2c0,0.1,0,0.2,0.1,0.3
			c0,0.1,0.1,0.3,0.2,0.4c0.1,0.2,0.2,0.3,0.3,0.4c0.1,0.1,0.3,0.2,0.5,0.3c0.2,0.1,0.4,0.1,0.7,0.1c0,0,0.1,0,0.2,0s0.2,0,0.3-0.1
			s0.3-0.1,0.4-0.2c0.1-0.1,0.3-0.2,0.4-0.3c0.1-0.1,0.2-0.3,0.3-0.5c0.1-0.2,0.1-0.5,0.1-0.8v-4.5H75.6z"/>
		<path id="XMLID_1135_" class="st11" d="M82.1,133.5c0.1,0.2,0.2,0.4,0.3,0.6c0.1,0.2,0.1,0.4,0.2,0.7v5.2h-1.1v-4.8
			c0-0.3-0.1-0.6-0.2-0.8c-0.1-0.2-0.3-0.4-0.4-0.5l-1.2,0.8l-1.2-0.8c-0.2,0.1-0.3,0.3-0.4,0.5c-0.1,0.2-0.2,0.5-0.2,0.8v2.6
			c0,0.2,0.1,0.4,0.2,0.6c0,0.1,0.1,0.2,0.1,0.2c0.1,0.1,0.1,0.1,0.2,0.2c0.1,0.1,0.2,0.1,0.3,0.1s0.3,0.1,0.4,0.1H80v1h-1.4
			c-0.3,0-0.6-0.1-0.8-0.3c-0.1-0.1-0.2-0.2-0.3-0.3s-0.2-0.2-0.3-0.4c-0.1-0.1-0.1-0.3-0.2-0.5c0-0.2-0.1-0.4-0.1-0.7v-3.1
			c0.1-0.5,0.2-0.9,0.5-1.3c0.3-0.4,0.6-0.6,1.1-0.8l1.3,0.8l1.3-0.8C81.4,132.9,81.8,133.1,82.1,133.5z"/>
		<path id="XMLID_1133_" class="st11" d="M82.6,130.9v1h-3v-1.4H79v-1h1.1c0.1,0,0.2,0,0.2,0.1c0.1,0,0.1,0.1,0.2,0.1
			c0,0.1,0.1,0.2,0.1,0.3v0.9H82.6z"/>
		<path id="XMLID_1131_" class="st11" d="M89.5,137.5c0,0.5-0.2,0.9-0.4,1.3c-0.1,0.2-0.2,0.3-0.3,0.5c-0.1,0.2-0.3,0.3-0.5,0.4
			c-0.2,0.1-0.4,0.2-0.7,0.3s-0.6,0.1-0.9,0.1c-0.3,0-0.6,0-0.9-0.1s-0.5-0.2-0.7-0.3c-0.2-0.1-0.4-0.3-0.5-0.4
			c-0.1-0.2-0.3-0.3-0.3-0.5c-0.2-0.4-0.3-0.8-0.4-1.3v-1.5h2v1h-0.9v0.5c0,0.2,0,0.4,0.1,0.5s0.1,0.3,0.2,0.4
			c0.1,0.1,0.2,0.2,0.3,0.3c0.1,0.1,0.2,0.1,0.3,0.2c0.3,0.1,0.5,0.2,0.9,0.2c0.3,0,0.6-0.1,0.9-0.2c0.1,0,0.2-0.1,0.3-0.2
			s0.2-0.2,0.3-0.3c0.1-0.1,0.1-0.2,0.2-0.4s0.1-0.3,0.1-0.5v-2.2c0-0.2,0-0.4-0.1-0.5s-0.1-0.3-0.2-0.4s-0.2-0.2-0.3-0.3
			c-0.1-0.1-0.2-0.1-0.3-0.2c-0.3-0.1-0.5-0.2-0.9-0.2h-0.1c-0.1,0-0.2,0-0.3,0s-0.3,0.1-0.5,0.2s-0.3,0.2-0.5,0.3
			c-0.1,0.1-0.3,0.3-0.3,0.6h-1.1c0-0.1,0.1-0.3,0.1-0.4c0.1-0.2,0.1-0.3,0.2-0.5c0.1-0.2,0.2-0.3,0.3-0.5s0.3-0.3,0.5-0.4
			c0.2-0.1,0.4-0.2,0.7-0.3c0.3-0.1,0.6-0.1,0.9-0.1c0.3,0,0.6,0,0.9,0.1c0.3,0.1,0.5,0.2,0.7,0.3s0.4,0.3,0.5,0.4s0.3,0.3,0.3,0.5
			c0.2,0.4,0.3,0.8,0.4,1.3V137.5z"/>
		<path id="XMLID_1129_" class="st11" d="M91.5,132.8h2.1v5.2c0,0.3,0,0.6-0.1,0.9c-0.1,0.2-0.2,0.4-0.3,0.6
			c-0.1,0.2-0.3,0.3-0.4,0.4c-0.2,0.1-0.3,0.2-0.5,0.2s-0.3,0.1-0.4,0.1c-0.1,0-0.2,0-0.2,0c-0.3,0-0.6,0-0.8-0.1
			c-0.2-0.1-0.4-0.2-0.6-0.3c-0.2-0.1-0.3-0.2-0.4-0.4l0.7-0.7c0,0,0.1,0.1,0.1,0.1c0.1,0.1,0.1,0.1,0.2,0.2
			c0.1,0.1,0.2,0.1,0.3,0.1c0.1,0,0.3,0.1,0.4,0.1c0.1,0,0.2,0,0.3,0c0.1,0,0.1-0.1,0.2-0.1s0.1-0.1,0.2-0.2c0-0.1,0.1-0.1,0.1-0.2
			c0.1-0.2,0.1-0.3,0.1-0.6v-4.2h-1V132.8z"/>
		<path id="XMLID_1127_" class="st11" d="M94.8,140v-5.5c0.1-0.3,0.3-0.5,0.5-0.7c0.2-0.2,0.4-0.4,0.5-0.5c0.2-0.1,0.4-0.2,0.6-0.3
			s0.3-0.1,0.5-0.2c0.2,0,0.3-0.1,0.4-0.1c0.1,0,0.2,0,0.3,0h0.1c0.3,0,0.7,0.1,0.9,0.1c0.3,0.1,0.5,0.2,0.7,0.3
			c0.2,0.1,0.4,0.3,0.5,0.4c0.1,0.2,0.2,0.3,0.3,0.5c0.1,0.2,0.2,0.3,0.2,0.5c0,0.2,0.1,0.3,0.1,0.4c0,0.1,0,0.2,0,0.3
			c0,0.1,0,0.2,0,0.2v4.5h-1.1v-4.5c0-0.3,0-0.5-0.1-0.7s-0.2-0.4-0.3-0.5c-0.1-0.1-0.3-0.2-0.4-0.3c-0.1-0.1-0.3-0.1-0.4-0.2
			c-0.1,0-0.2-0.1-0.3-0.1c-0.1,0-0.2,0-0.2,0c-0.2,0-0.4,0-0.6,0.1c-0.2,0-0.3,0.1-0.4,0.2c-0.1,0.1-0.2,0.2-0.3,0.3
			c-0.1,0.1-0.2,0.2-0.2,0.3c-0.1,0.3-0.2,0.5-0.2,0.9v4.5H94.8z"/>
		<path id="XMLID_1125_" class="st11" d="M102.9,132.7c0,0,0.1,0,0.2,0s0.2,0,0.4,0.1c0.1,0,0.3,0.1,0.5,0.2
			c0.2,0.1,0.3,0.2,0.4,0.4c0.1,0.2,0.2,0.4,0.3,0.6c0.1,0.2,0.1,0.5,0.1,0.9v5.1h-1.1v-5.1c0-0.2,0-0.4-0.1-0.5
			c0-0.1-0.1-0.1-0.1-0.2c0-0.1-0.1-0.1-0.1-0.2c-0.1,0-0.1-0.1-0.2-0.1s-0.2,0-0.3,0c-0.2,0-0.3,0-0.5,0.1c-0.1,0-0.2,0.1-0.3,0.1
			c-0.1,0.1-0.1,0.1-0.2,0.2s-0.1,0.1-0.1,0.1l-0.7-0.8c0.1-0.1,0.3-0.3,0.4-0.4c0.1-0.1,0.3-0.2,0.6-0.3
			C102.3,132.8,102.5,132.7,102.9,132.7z"/>
		<path id="XMLID_1123_" class="st11" d="M110.3,134.6l-0.5-0.3c-0.1-0.1-0.2-0.1-0.4-0.2c-0.1-0.1-0.3-0.1-0.4-0.2
			c-0.1,0-0.3-0.1-0.4-0.1c-0.1,0-0.2,0-0.3,0c-0.2,0-0.3,0-0.5,0s-0.3,0.1-0.4,0.2c-0.1,0.1-0.2,0.2-0.3,0.3s-0.1,0.3-0.1,0.5
			c0,0.2,0.1,0.4,0.2,0.5c0.1,0.1,0.3,0.2,0.5,0.3s0.4,0.1,0.6,0.2c0.2,0,0.5,0.1,0.7,0.1c0.2,0,0.5,0.1,0.7,0.2
			c0.2,0.1,0.4,0.3,0.6,0.4c0.2,0.2,0.3,0.4,0.4,0.6s0.2,0.5,0.2,0.7c0,0.4-0.1,0.7-0.2,1c-0.1,0.3-0.3,0.5-0.5,0.7
			s-0.5,0.3-0.8,0.4c-0.3,0.1-0.6,0.1-1,0.1c-0.5,0-0.9-0.1-1.3-0.2c-0.3-0.1-0.6-0.2-0.9-0.4c-0.3-0.2-0.5-0.3-0.7-0.5l0.7-0.7
			c0.1,0.1,0.2,0.2,0.3,0.3c0.1,0.1,0.3,0.2,0.5,0.2c0.2,0.1,0.4,0.1,0.6,0.2c0.2,0,0.4,0.1,0.6,0.1c0.2,0,0.4,0,0.6-0.1
			c0.2-0.1,0.3-0.1,0.5-0.2c0.1-0.1,0.2-0.2,0.3-0.4c0.1-0.1,0.1-0.3,0.1-0.5c0-0.2,0-0.3-0.1-0.4c-0.1-0.1-0.1-0.2-0.2-0.3
			c-0.1-0.1-0.2-0.1-0.2-0.1c-0.1,0-0.1,0-0.2,0c0,0-0.1,0-0.2,0c-0.1,0-0.3,0-0.4-0.1c-0.2,0-0.3-0.1-0.5-0.1c-0.2,0-0.3,0-0.4-0.1
			c-0.1,0-0.1,0-0.2-0.1s-0.2-0.1-0.3-0.1s-0.2-0.1-0.4-0.2c-0.1-0.1-0.2-0.2-0.3-0.3c-0.1-0.1-0.2-0.3-0.2-0.5
			c-0.1-0.2-0.1-0.4-0.1-0.7c0-0.4,0.1-0.7,0.2-1c0.1-0.3,0.3-0.5,0.5-0.7c0.2-0.2,0.5-0.3,0.8-0.4s0.6-0.1,0.9-0.1
			c0.3,0,0.6,0,0.8,0.1c0.2,0.1,0.5,0.1,0.6,0.2c0.2,0.1,0.4,0.2,0.6,0.3l0.6,0.4L110.3,134.6z"/>
		<path id="XMLID_1121_" class="st11" d="M115.9,132.9c0.3,0.1,0.6,0.3,0.8,0.5c0.2,0.2,0.4,0.4,0.5,0.6c0.1,0.2,0.2,0.4,0.3,0.6
			c0.1,0.2,0.1,0.4,0.1,0.6s0,0.3,0,0.4v0.1v4.4h-1.1v-4.4c0-0.2,0-0.4-0.1-0.6c0-0.2-0.1-0.3-0.2-0.4c-0.1-0.1-0.2-0.2-0.3-0.3
			c-0.1-0.1-0.2-0.2-0.3-0.2c-0.3-0.1-0.5-0.2-0.9-0.2c-0.2,0-0.4,0-0.6,0.1s-0.3,0.1-0.4,0.2c-0.1,0.1-0.2,0.2-0.3,0.3
			c-0.1,0.1-0.2,0.2-0.2,0.3c-0.1,0.3-0.2,0.6-0.2,0.9v0.7c0.4-0.2,0.9-0.4,1.4-0.4c0.2,0,0.5,0,0.7,0.1v1.1c-0.1,0-0.2-0.1-0.3-0.1
			c-0.1,0-0.2,0-0.4,0c-0.3,0-0.6,0.1-0.9,0.2c-0.1,0.1-0.2,0.2-0.3,0.3c-0.1,0.1-0.2,0.3-0.2,0.4v2H112v-4.5c0-0.4,0.1-0.8,0.2-1.1
			c0.1-0.3,0.3-0.6,0.4-0.8s0.4-0.4,0.6-0.5c0.2-0.1,0.4-0.2,0.6-0.3c0.2-0.1,0.4-0.1,0.6-0.1c0.2,0,0.3,0,0.4,0h0.1
			C115.2,132.7,115.6,132.8,115.9,132.9z"/>
		<path id="XMLID_1119_" class="st11" d="M117.2,130.9v1h-4v-1H117.2z"/>
		<path id="XMLID_1117_" class="st11" d="M123.5,140v-4.5c0-0.3-0.1-0.6-0.2-0.8c-0.1-0.1-0.1-0.2-0.2-0.3c-0.1-0.1-0.2-0.2-0.3-0.3
			c-0.1-0.1-0.3-0.1-0.5-0.2c-0.2,0-0.4-0.1-0.6-0.1s-0.4,0-0.6,0.1c-0.2,0-0.3,0.1-0.5,0.2c-0.1,0.1-0.2,0.2-0.3,0.3
			c-0.1,0.1-0.2,0.2-0.2,0.3c-0.1,0.2-0.2,0.5-0.2,0.8v2.4c0,0.2,0.1,0.3,0.1,0.4c0,0.1,0.1,0.2,0.2,0.4c0.1,0.1,0.2,0.2,0.3,0.3
			c0.1,0.1,0.3,0.2,0.4,0.2c0.1,0,0.2,0,0.3-0.1c0.1-0.1,0.2-0.1,0.2-0.2l0.7,0.7c-0.1,0.1-0.2,0.2-0.4,0.3
			c-0.1,0.1-0.3,0.1-0.4,0.2c-0.2,0.1-0.3,0.1-0.5,0.1c-0.1,0-0.1,0-0.2,0s-0.1,0-0.2,0c-0.3-0.1-0.5-0.2-0.7-0.3
			c-0.2-0.1-0.4-0.3-0.5-0.5c-0.1-0.2-0.2-0.4-0.3-0.7s-0.1-0.5-0.1-0.7v-2.4c0-0.4,0.1-0.8,0.3-1.1c0.1-0.3,0.3-0.6,0.5-0.8
			c0.2-0.2,0.4-0.4,0.6-0.5c0.2-0.1,0.4-0.2,0.6-0.3c0.2-0.1,0.4-0.1,0.5-0.1c0.2,0,0.3,0,0.3,0h0.1h0.1c0.1,0,0.2,0,0.3,0
			s0.3,0.1,0.5,0.1s0.4,0.1,0.6,0.3s0.4,0.3,0.6,0.5s0.3,0.5,0.5,0.8c0.1,0.3,0.2,0.7,0.3,1.1v4.5H123.5z"/>
		<path id="XMLID_1115_" class="st11" d="M129.7,132.9c0.3,0.1,0.5,0.2,0.7,0.3c0.2,0.1,0.4,0.3,0.5,0.4c0.1,0.2,0.2,0.3,0.3,0.5
			c0.1,0.2,0.2,0.3,0.2,0.5c0,0.2,0.1,0.3,0.1,0.4c0,0.1,0,0.2,0,0.3c0,0.1,0,0.2,0,0.2v4.5h-1.1v-4.5c0-0.3,0-0.5-0.1-0.7
			c-0.1-0.2-0.2-0.4-0.3-0.5c-0.1-0.1-0.3-0.2-0.4-0.3c-0.1-0.1-0.3-0.1-0.4-0.2c-0.1,0-0.2-0.1-0.3-0.1c-0.1,0-0.2,0-0.2,0
			c-0.2,0-0.4,0-0.6,0.1c-0.2,0-0.3,0.1-0.4,0.2c-0.1,0.1-0.2,0.2-0.3,0.3c-0.1,0.1-0.2,0.2-0.2,0.3c-0.1,0.3-0.2,0.5-0.2,0.9v3.5
			h0.7v1H126v-5.5c0.1-0.3,0.3-0.5,0.5-0.7c0.2-0.2,0.4-0.4,0.5-0.5c0.2-0.1,0.4-0.2,0.6-0.3c0.2-0.1,0.3-0.1,0.5-0.2
			c0.2,0,0.3-0.1,0.4-0.1c0.1,0,0.2,0,0.3,0h0.1C129.2,132.7,129.5,132.8,129.7,132.9z"/>
		<path id="XMLID_1112_" class="st11" d="M130.2,129.4c0.2,0,0.3,0,0.5,0.1c0.2,0.1,0.3,0.2,0.4,0.3s0.2,0.2,0.3,0.4
			c0.1,0.2,0.1,0.3,0.1,0.5c0,0.2,0,0.3-0.1,0.5c-0.1,0.2-0.2,0.3-0.3,0.4s-0.2,0.2-0.4,0.3c-0.2,0.1-0.3,0.1-0.5,0.1H126v-1h2.9
			c0,0,0-0.1,0-0.1c0,0,0-0.1,0-0.1c0-0.2,0-0.3,0.1-0.5s0.2-0.3,0.3-0.4s0.2-0.2,0.4-0.3C129.8,129.4,130,129.4,130.2,129.4z
			 M130.2,131.1c0.1,0,0.2,0,0.3-0.1c0.1-0.1,0.1-0.2,0.1-0.3c0-0.1,0-0.2-0.1-0.3c-0.1-0.1-0.2-0.1-0.3-0.1s-0.2,0-0.3,0.1
			c-0.1,0.1-0.1,0.2-0.1,0.3c0,0.1,0,0.2,0.1,0.3C130,131,130.1,131.1,130.2,131.1z"/>
		<path id="XMLID_1110_" class="st11" d="M133.9,132.8h2.1v5.2c0,0.3,0,0.6-0.1,0.9c-0.1,0.2-0.2,0.4-0.3,0.6
			c-0.1,0.2-0.3,0.3-0.4,0.4c-0.2,0.1-0.3,0.2-0.5,0.2c-0.1,0-0.3,0.1-0.4,0.1c-0.1,0-0.2,0-0.2,0c-0.3,0-0.6,0-0.8-0.1
			c-0.2-0.1-0.4-0.2-0.6-0.3c-0.2-0.1-0.3-0.2-0.4-0.4l0.7-0.7c0,0,0.1,0.1,0.1,0.1s0.1,0.1,0.2,0.2s0.2,0.1,0.3,0.1
			c0.1,0,0.3,0.1,0.4,0.1c0.1,0,0.2,0,0.3,0c0.1,0,0.1-0.1,0.2-0.1s0.1-0.1,0.2-0.2c0-0.1,0.1-0.1,0.1-0.2c0.1-0.2,0.1-0.3,0.1-0.6
			v-4.2h-1V132.8z"/>
		<path id="XMLID_1108_" class="st11" d="M137.7,139.1h1l-0.7,2.7h-1L137.7,139.1z"/>
		<path id="XMLID_1106_" class="st11" d="M52.8,156.5V151c0.1-0.3,0.3-0.5,0.5-0.7c0.2-0.2,0.4-0.4,0.5-0.5c0.2-0.1,0.4-0.2,0.6-0.3
			s0.3-0.1,0.5-0.2s0.3-0.1,0.4-0.1c0.1,0,0.2,0,0.3,0h0.1c0.3,0,0.7,0.1,0.9,0.1c0.3,0.1,0.5,0.2,0.7,0.3c0.2,0.1,0.4,0.3,0.5,0.4
			c0.1,0.2,0.2,0.3,0.3,0.5c0.1,0.2,0.2,0.3,0.2,0.5c0,0.2,0.1,0.3,0.1,0.4c0,0.1,0,0.2,0,0.3c0,0.1,0,0.2,0,0.2v4.5h-1.1V152
			c0-0.3,0-0.5-0.1-0.7c-0.1-0.2-0.2-0.4-0.3-0.5c-0.1-0.1-0.3-0.2-0.4-0.3s-0.3-0.1-0.4-0.2c-0.1,0-0.2-0.1-0.3-0.1
			c-0.1,0-0.2,0-0.2,0c-0.2,0-0.4,0-0.6,0.1c-0.2,0-0.3,0.1-0.4,0.2c-0.1,0.1-0.2,0.2-0.3,0.3c-0.1,0.1-0.2,0.2-0.2,0.3
			c-0.1,0.3-0.2,0.5-0.2,0.9v4.5H52.8z"/>
		<path id="XMLID_1104_" class="st11" d="M60.8,149.3c0,0,0.1,0,0.2,0s0.2,0,0.4,0.1s0.3,0.1,0.5,0.2c0.2,0.1,0.3,0.2,0.4,0.4
			s0.2,0.4,0.3,0.6c0.1,0.2,0.1,0.5,0.1,0.9v5.1h-1.1v-5.1c0-0.2,0-0.4-0.1-0.5c0-0.1-0.1-0.1-0.1-0.2s-0.1-0.1-0.1-0.2
			c-0.1,0-0.1-0.1-0.2-0.1c-0.1,0-0.2,0-0.3,0c-0.2,0-0.3,0-0.5,0.1c-0.1,0-0.2,0.1-0.3,0.1c-0.1,0.1-0.1,0.1-0.2,0.2
			c0,0.1-0.1,0.1-0.1,0.1L59,150c0.1-0.1,0.3-0.3,0.4-0.4c0.1-0.1,0.3-0.2,0.6-0.3C60.2,149.3,60.5,149.3,60.8,149.3z"/>
		<path id="XMLID_1102_" class="st11" d="M68.2,151.2l-0.5-0.3c-0.1-0.1-0.2-0.1-0.4-0.2c-0.1-0.1-0.3-0.1-0.4-0.2
			c-0.1,0-0.3-0.1-0.4-0.1c-0.1,0-0.2,0-0.3,0c-0.2,0-0.3,0-0.5,0s-0.3,0.1-0.4,0.2c-0.1,0.1-0.2,0.2-0.3,0.3
			c-0.1,0.1-0.1,0.3-0.1,0.5c0,0.2,0.1,0.4,0.2,0.5s0.3,0.2,0.5,0.3s0.4,0.1,0.6,0.2c0.2,0,0.5,0.1,0.7,0.1c0.2,0,0.5,0.1,0.7,0.2
			c0.2,0.1,0.4,0.3,0.6,0.4c0.2,0.2,0.3,0.4,0.4,0.6s0.2,0.5,0.2,0.7c0,0.4-0.1,0.7-0.2,1c-0.1,0.3-0.3,0.5-0.5,0.7
			s-0.5,0.3-0.8,0.4s-0.6,0.1-1,0.1c-0.5,0-0.9-0.1-1.3-0.2c-0.3-0.1-0.6-0.2-0.9-0.4c-0.3-0.2-0.5-0.3-0.7-0.5l0.7-0.7
			c0.1,0.1,0.2,0.2,0.3,0.3s0.3,0.2,0.5,0.2c0.2,0.1,0.4,0.1,0.6,0.2c0.2,0,0.4,0.1,0.6,0.1c0.2,0,0.4,0,0.6-0.1
			c0.2-0.1,0.3-0.1,0.5-0.2c0.1-0.1,0.2-0.2,0.3-0.4c0.1-0.1,0.1-0.3,0.1-0.5c0-0.2,0-0.3-0.1-0.4c-0.1-0.1-0.1-0.2-0.2-0.3
			c-0.1-0.1-0.2-0.1-0.2-0.1c-0.1,0-0.1,0-0.2,0c0,0-0.1,0-0.2,0c-0.1,0-0.3,0-0.4-0.1c-0.2,0-0.3-0.1-0.5-0.1c-0.2,0-0.3,0-0.4-0.1
			c-0.1,0-0.1,0-0.2-0.1s-0.2-0.1-0.3-0.1s-0.2-0.1-0.4-0.2s-0.2-0.2-0.3-0.3c-0.1-0.1-0.2-0.3-0.2-0.5c-0.1-0.2-0.1-0.4-0.1-0.7
			c0-0.4,0.1-0.7,0.2-1c0.1-0.3,0.3-0.5,0.5-0.7c0.2-0.2,0.5-0.3,0.8-0.4s0.6-0.1,0.9-0.1c0.3,0,0.6,0,0.8,0.1s0.5,0.1,0.6,0.2
			c0.2,0.1,0.4,0.2,0.6,0.3l0.6,0.4L68.2,151.2z"/>
		<path id="XMLID_1100_" class="st11" d="M75.5,149.3v4.5v0.1c0,0.1,0,0.2,0,0.4c0,0.2,0,0.4-0.1,0.6s-0.1,0.4-0.2,0.6
			c-0.1,0.2-0.3,0.4-0.4,0.6s-0.4,0.3-0.7,0.4c-0.3,0.1-0.6,0.2-1,0.2h-0.2c-0.3,0-0.6-0.1-0.8-0.2c-0.1,0-0.2-0.1-0.3-0.1
			c-0.1-0.1-0.2-0.1-0.3-0.2c-0.1-0.1-0.1-0.2-0.2-0.3s-0.1-0.2-0.1-0.4v1h-1.1v-7.2H71v4.5c0,0,0,0.1,0,0.2c0,0.1,0,0.2,0.1,0.3
			s0.1,0.3,0.2,0.4c0.1,0.2,0.2,0.3,0.3,0.4c0.1,0.1,0.3,0.2,0.5,0.3c0.2,0.1,0.4,0.1,0.7,0.1c0,0,0.1,0,0.2,0c0.1,0,0.2,0,0.3-0.1
			s0.3-0.1,0.4-0.2c0.1-0.1,0.3-0.2,0.4-0.3c0.1-0.1,0.2-0.3,0.3-0.5c0.1-0.2,0.1-0.5,0.1-0.8v-4.5H75.5z"/>
		<path id="XMLID_1098_" class="st11" d="M74.6,146.8v1.7h-4v-1h3v-0.6H74.6z"/>
		<path id="XMLID_1096_" class="st11" d="M80.8,149.4c0.3,0.1,0.6,0.3,0.8,0.5c0.2,0.2,0.4,0.4,0.5,0.6c0.1,0.2,0.2,0.4,0.3,0.6
			c0.1,0.2,0.1,0.4,0.1,0.6s0,0.3,0,0.4v0.1v4.4h-1.1v-4.4c0-0.2,0-0.4-0.1-0.6s-0.1-0.3-0.2-0.4c-0.1-0.1-0.2-0.2-0.3-0.3
			c-0.1-0.1-0.2-0.2-0.3-0.2c-0.3-0.1-0.5-0.2-0.9-0.2c-0.2,0-0.4,0-0.6,0.1s-0.3,0.1-0.4,0.2s-0.2,0.2-0.3,0.3
			c-0.1,0.1-0.2,0.2-0.2,0.3c-0.1,0.3-0.2,0.6-0.2,0.9v0.7c0.4-0.2,0.9-0.4,1.4-0.4c0.2,0,0.5,0,0.7,0.1v1.1c-0.1,0-0.2-0.1-0.3-0.1
			s-0.2,0-0.4,0c-0.3,0-0.6,0.1-0.9,0.2c-0.1,0.1-0.2,0.2-0.3,0.3c-0.1,0.1-0.2,0.3-0.2,0.4v2h-1.1V152c0-0.4,0.1-0.8,0.2-1.1
			c0.1-0.3,0.3-0.6,0.4-0.8s0.4-0.4,0.6-0.5c0.2-0.1,0.4-0.2,0.6-0.3c0.2-0.1,0.4-0.1,0.6-0.1c0.2,0,0.3,0,0.4,0h0.1
			C80.1,149.3,80.5,149.3,80.8,149.4z"/>
		<path id="XMLID_1094_" class="st11" d="M86,149.3c0.1,0,0.2,0,0.3,0c0.1,0,0.3,0,0.5,0.1s0.4,0.1,0.5,0.2c0.2,0.1,0.4,0.3,0.5,0.4
			c0.2,0.2,0.3,0.4,0.4,0.7s0.2,0.6,0.2,1v2.4c0,0.5-0.1,0.9-0.3,1.2c-0.1,0.2-0.2,0.3-0.3,0.5c-0.1,0.1-0.3,0.3-0.4,0.4
			c-0.2,0.1-0.4,0.2-0.6,0.3c-0.2,0.1-0.5,0.1-0.8,0.1c-0.3,0-0.6,0-0.8-0.1c-0.2-0.1-0.4-0.2-0.6-0.3c-0.2-0.1-0.3-0.3-0.4-0.4
			s-0.2-0.3-0.3-0.5c0,0,0.1-0.1,0.2-0.1c0.1,0,0.2-0.1,0.3-0.2c0.1-0.1,0.2-0.1,0.3-0.2c0.1,0,0.1-0.1,0.2-0.1
			c0.1,0.2,0.2,0.3,0.3,0.5c0.1,0.1,0.3,0.2,0.4,0.2c0.2,0.1,0.3,0.1,0.5,0.1c0.3,0,0.5-0.1,0.7-0.2c0.1,0,0.2-0.1,0.2-0.2
			c0.1-0.1,0.2-0.2,0.2-0.3c0.1-0.1,0.1-0.2,0.2-0.3s0.1-0.3,0.1-0.5v-2.4c0-0.3-0.1-0.5-0.2-0.7c0-0.1-0.1-0.2-0.2-0.3
			c-0.1-0.1-0.1-0.2-0.2-0.2s-0.2-0.1-0.3-0.2c-0.1,0-0.3-0.1-0.4-0.1c-0.2,0-0.4,0-0.6,0.1c-0.2,0-0.3,0.1-0.4,0.2
			c-0.1,0.1-0.2,0.2-0.3,0.3s-0.2,0.3-0.2,0.5h-1.1c0-0.3,0.1-0.6,0.2-0.9c0.1-0.3,0.3-0.5,0.5-0.7s0.5-0.3,0.8-0.5
			C85.1,149.3,85.5,149.3,86,149.3L86,149.3L86,149.3z"/>
		<path id="XMLID_1092_" class="st11" d="M90.7,149.3c0,0,0.1,0,0.2,0s0.2,0,0.4,0.1s0.3,0.1,0.5,0.2c0.2,0.1,0.3,0.2,0.4,0.4
			s0.2,0.4,0.3,0.6c0.1,0.2,0.1,0.5,0.1,0.9v5.1h-1.1v-5.1c0-0.2,0-0.4-0.1-0.5c0-0.1-0.1-0.1-0.1-0.2s-0.1-0.1-0.1-0.2
			c-0.1,0-0.1-0.1-0.2-0.1c-0.1,0-0.2,0-0.3,0c-0.2,0-0.3,0-0.5,0.1c-0.1,0-0.2,0.1-0.3,0.1c-0.1,0.1-0.1,0.1-0.2,0.2
			c0,0.1-0.1,0.1-0.1,0.1l-0.7-0.8c0.1-0.1,0.3-0.3,0.4-0.4c0.1-0.1,0.3-0.2,0.6-0.3C90.1,149.3,90.4,149.3,90.7,149.3z"/>
		<path id="XMLID_1090_" class="st11" d="M99.6,149.3v4.5v0.1c0,0.1,0,0.2,0,0.4c0,0.2,0,0.4-0.1,0.6c-0.1,0.2-0.1,0.4-0.2,0.6
			c-0.1,0.2-0.3,0.4-0.4,0.6s-0.4,0.3-0.7,0.4c-0.3,0.1-0.6,0.2-1,0.2h-0.2c-0.3,0-0.6-0.1-0.8-0.2c-0.1,0-0.2-0.1-0.3-0.1
			c-0.1-0.1-0.2-0.1-0.3-0.2c-0.1-0.1-0.1-0.2-0.2-0.3s-0.1-0.2-0.1-0.4v1H94v-7.2h1.1v4.5c0,0,0,0.1,0,0.2s0,0.2,0.1,0.3
			c0,0.1,0.1,0.3,0.2,0.4c0.1,0.2,0.2,0.3,0.3,0.4c0.1,0.1,0.3,0.2,0.5,0.3c0.2,0.1,0.4,0.1,0.7,0.1c0,0,0.1,0,0.2,0
			c0.1,0,0.2,0,0.3-0.1c0.1,0,0.3-0.1,0.4-0.2c0.1-0.1,0.3-0.2,0.4-0.3c0.1-0.1,0.2-0.3,0.3-0.5c0.1-0.2,0.1-0.5,0.1-0.8v-4.5H99.6z
			"/>
		<path id="XMLID_1088_" class="st11" d="M106.8,149.2c0,0,0,0.1-0.1,0.1s-0.1,0.1-0.1,0.2s-0.1,0.1-0.2,0.2s-0.2,0.1-0.2,0.2
			c-0.1,0.1-0.1,0.1-0.2,0.2c-0.1,0-0.1,0.1-0.2,0.1c0.1,0.2,0.3,0.4,0.3,0.6s0.1,0.4,0.2,0.6c0,0.2,0.1,0.3,0.1,0.5s0,0.2,0,0.3
			v0.1v4.4h-1.1v-2.1c0-0.2,0-0.4-0.1-0.5c-0.1-0.1-0.2-0.3-0.4-0.3c-0.1-0.1-0.3-0.2-0.5-0.2c-0.2-0.1-0.3-0.1-0.5-0.1
			c-0.1,0-0.3,0-0.5,0c0,0-0.1,0-0.1,0c-0.1,0-0.2,0-0.3,0s-0.2,0.1-0.3,0.1c-0.1,0-0.2,0.1-0.4,0.2c-0.1,0.1-0.2,0.2-0.3,0.3
			c-0.1,0.1-0.2,0.3-0.2,0.5c0,0,0,0.1,0,0.1c0,0,0,0.1,0,0.1c0,0.2,0,0.3,0.1,0.4c0.1,0.1,0.2,0.2,0.3,0.3c0.1,0.1,0.2,0.1,0.4,0.2
			s0.3,0.1,0.4,0.1c0.1,0,0.3,0,0.4,0c0.1,0,0.2,0,0.3,0h0.1v1h-1.2c-0.3,0-0.5-0.1-0.7-0.2s-0.4-0.3-0.6-0.4
			c-0.2-0.2-0.3-0.4-0.4-0.6c-0.1-0.2-0.1-0.5-0.1-0.8c0-0.3,0.1-0.5,0.2-0.8s0.3-0.5,0.6-0.8c0.2-0.2,0.3-0.3,0.5-0.4
			c0.2-0.1,0.3-0.2,0.5-0.2c0.2-0.1,0.3-0.1,0.5-0.1c0.2,0,0.3,0,0.5,0c0.2,0,0.5,0,0.7,0.1c0.2,0,0.4,0.1,0.6,0.2
			c0.2,0.1,0.4,0.1,0.5,0.2v-0.4c0-0.2,0-0.4-0.1-0.6c0-0.2-0.1-0.3-0.2-0.4c-0.1-0.1-0.2-0.2-0.3-0.3c-0.1-0.1-0.2-0.2-0.3-0.2
			c-0.3-0.1-0.5-0.2-0.9-0.2c-0.3,0-0.5,0.1-0.7,0.2c-0.2,0.1-0.4,0.2-0.5,0.4s-0.2,0.3-0.3,0.5c-0.1,0.2-0.1,0.3-0.2,0.4h-1.1
			c0-0.4,0.1-0.7,0.2-1c0.1-0.3,0.3-0.5,0.5-0.7c0.2-0.2,0.4-0.3,0.6-0.4c0.2-0.1,0.4-0.2,0.6-0.2c0.2-0.1,0.4-0.1,0.5-0.1
			c0.2,0,0.3,0,0.3,0h0.1c0.3,0,0.7,0,1,0.1c0.2,0,0.4-0.1,0.5-0.2c0.1-0.1,0.3-0.2,0.5-0.3s0.3-0.3,0.4-0.5l0.4,0.4
			c0,0,0.1,0.1,0.1,0.1c0,0,0.1,0.1,0.1,0.1C106.7,149.1,106.7,149.1,106.8,149.2C106.7,149.2,106.8,149.2,106.8,149.2z"/>
		<path id="XMLID_1086_" class="st11" d="M105,158.2h-0.5v-1h1c0.1,0,0.3,0.1,0.4,0.2c0.1,0.1,0.2,0.2,0.2,0.4v2.1h-1V158.2z"/>
		<path id="XMLID_1084_" class="st11" d="M112.6,149.3v4.8c0,0.4-0.1,0.7-0.2,1c-0.1,0.3-0.3,0.5-0.4,0.7s-0.4,0.3-0.6,0.4
			c-0.2,0.1-0.4,0.2-0.6,0.2s-0.4,0.1-0.5,0.1c-0.1,0-0.2,0-0.3,0c-0.4,0-0.8-0.1-1.1-0.2c-0.3-0.1-0.5-0.3-0.7-0.4
			c-0.2-0.2-0.3-0.4-0.4-0.6c-0.1-0.2-0.2-0.4-0.2-0.6s-0.1-0.4-0.1-0.5s0-0.2,0-0.3c0-0.2,0-0.5,0.1-0.6c0.1-0.2,0.2-0.4,0.3-0.5
			s0.2-0.3,0.3-0.4c0.1-0.1,0.2-0.2,0.3-0.4s0.2-0.2,0.3-0.3s0.1-0.2,0.1-0.3c0,0,0-0.1,0-0.1c0,0,0,0,0-0.1c0-0.2,0-0.3-0.1-0.4
			s-0.1-0.2-0.2-0.3s-0.2-0.1-0.3-0.2s-0.2-0.1-0.3-0.1c-0.1,0-0.2,0-0.3,0s-0.2,0-0.2,0h-0.1v-1h0.6c0.3,0,0.5,0,0.7,0.1
			s0.4,0.2,0.5,0.3c0.1,0.1,0.3,0.3,0.3,0.4c0.1,0.2,0.1,0.3,0.2,0.5c0,0.2,0.1,0.3,0.1,0.4c0,0.1,0,0.2,0,0.3c0,0,0,0,0,0.1
			c0,0,0,0,0,0v0c0,0.1,0,0.3-0.1,0.4s-0.1,0.2-0.2,0.3c-0.1,0.1-0.2,0.2-0.2,0.3c-0.2,0.2-0.4,0.4-0.5,0.6s-0.2,0.3-0.3,0.5
			c-0.1,0.1-0.1,0.2-0.1,0.3c0,0.1,0,0.1,0,0.2c0,0.2,0,0.5,0.1,0.6s0.1,0.3,0.2,0.4s0.2,0.2,0.3,0.3s0.2,0.1,0.3,0.1
			c0.1,0,0.2,0,0.3,0c0.1,0,0.1,0,0.2,0c0.2,0,0.4,0,0.6-0.1c0.2-0.1,0.3-0.1,0.4-0.2c0.1-0.1,0.2-0.2,0.3-0.3
			c0.1-0.1,0.1-0.2,0.2-0.3c0-0.1,0.1-0.2,0.1-0.3c0-0.1,0-0.1,0-0.2v-4.8H112.6z"/>
		<path id="XMLID_1082_" class="st11" d="M114.5,156.5v-7.3c0-0.2,0-0.3,0.1-0.5s0.1-0.3,0.2-0.4c0.1-0.1,0.2-0.3,0.2-0.4
			c0.1-0.1,0.2-0.2,0.3-0.3c0.1-0.1,0.2-0.2,0.3-0.3c0.1-0.1,0.1-0.2,0.2-0.2c0-0.1,0.1-0.1,0.1-0.2c0-0.1,0-0.1,0-0.2
			c0-0.2,0-0.3-0.1-0.5s-0.1-0.3-0.2-0.3c-0.1-0.1-0.2-0.2-0.4-0.2c-0.1,0-0.3-0.1-0.4-0.1c-0.3,0-0.5,0-0.7,0.1s-0.3,0.1-0.3,0.2
			c-0.1,0.1-0.1,0.2-0.1,0.2h-0.9c0,0,0,0,0,0v-0.1c0,0,0-0.1,0-0.2c0-0.1,0-0.2,0.1-0.3c0-0.1,0.1-0.2,0.2-0.3
			c0.1-0.1,0.2-0.2,0.4-0.3s0.3-0.2,0.6-0.2c0.2-0.1,0.5-0.1,0.8-0.1c0.3,0,0.6,0,0.9,0.1s0.4,0.2,0.6,0.3c0.2,0.1,0.3,0.3,0.4,0.4
			c0.1,0.1,0.2,0.3,0.2,0.4c0,0.1,0.1,0.3,0.1,0.4c0,0.1,0,0.2,0,0.3v0.1c0,0.1,0,0.2,0,0.3c0,0.1-0.1,0.2-0.1,0.3
			c0,0.1-0.1,0.3-0.2,0.4c-0.1,0.1-0.2,0.3-0.3,0.5c-0.1,0.2-0.2,0.3-0.3,0.4c-0.1,0.1-0.1,0.2-0.2,0.3c0,0.1-0.1,0.2-0.1,0.3v7.3
			H114.5z"/>
		<path id="XMLID_1080_" class="st11" d="M118.3,149.3v4.5c0,0.3,0,0.6,0.1,0.8c0.1,0.2,0.2,0.4,0.3,0.5c0.1,0.1,0.3,0.2,0.4,0.3
			c0.1,0.1,0.3,0.1,0.4,0.2c0.1,0,0.2,0.1,0.3,0.1c0.1,0,0.2,0,0.2,0c0.3,0,0.5,0,0.7-0.1c0.2-0.1,0.4-0.2,0.5-0.3
			c0.1-0.1,0.2-0.3,0.3-0.4c0.1-0.2,0.1-0.3,0.2-0.4s0.1-0.3,0.1-0.3s0-0.2,0-0.2v-4.5h1.1v7.2h-1.1v-1c0,0.1,0,0.3-0.1,0.4
			s-0.1,0.2-0.2,0.3s-0.2,0.1-0.3,0.2c-0.1,0.1-0.2,0.1-0.3,0.1c-0.2,0.1-0.5,0.1-0.8,0.2h-0.2c-0.4,0-0.8-0.1-1-0.2
			c-0.3-0.1-0.5-0.3-0.7-0.4s-0.3-0.4-0.4-0.6c-0.1-0.2-0.2-0.4-0.2-0.6c-0.1-0.2-0.1-0.4-0.1-0.6c0-0.2,0-0.3,0-0.4v-0.1v-4.5
			H118.3z"/>
		<path id="XMLID_1078_" class="st11" d="M128.6,150.7c0.2,0.1,0.4,0.2,0.6,0.3c0.1,0.1,0.2,0.3,0.2,0.6v2.5c0,0.4-0.1,0.7-0.2,1
			c-0.1,0.3-0.3,0.5-0.4,0.7c-0.2,0.2-0.4,0.3-0.6,0.4c-0.2,0.1-0.4,0.2-0.6,0.2c-0.2,0-0.4,0.1-0.5,0.1c-0.1,0-0.2,0-0.3,0
			c-0.4,0-0.8-0.1-1.1-0.2c-0.3-0.1-0.5-0.3-0.7-0.4c-0.2-0.2-0.3-0.4-0.4-0.6c-0.1-0.2-0.2-0.4-0.2-0.6s-0.1-0.4-0.1-0.5
			s0-0.2,0-0.3c0-0.2,0-0.4,0.1-0.6c0.1-0.2,0.2-0.4,0.3-0.5c0.1-0.2,0.2-0.3,0.3-0.4c0.1-0.1,0.2-0.2,0.3-0.4
			c0.1-0.1,0.2-0.2,0.3-0.3s0.1-0.2,0.1-0.3c0,0,0-0.1,0-0.1c0,0,0,0,0-0.1c0-0.2,0-0.3-0.1-0.4s-0.1-0.2-0.2-0.3s-0.2-0.1-0.3-0.2
			c-0.1,0-0.2-0.1-0.3-0.1s-0.2,0-0.3,0s-0.2,0-0.2,0h-0.1v-1h0.6c0.3,0,0.5,0,0.7,0.1c0.2,0.1,0.4,0.2,0.5,0.3
			c0.1,0.1,0.2,0.3,0.3,0.4s0.1,0.3,0.2,0.5c0,0.2,0.1,0.3,0.1,0.4c0,0.1,0,0.2,0,0.3c0,0,0,0,0,0.1c0,0,0,0,0,0v0
			c0,0.1,0,0.3-0.1,0.4c-0.1,0.1-0.1,0.2-0.2,0.3c-0.1,0.1-0.2,0.2-0.2,0.3c-0.2,0.2-0.4,0.4-0.5,0.6s-0.2,0.3-0.3,0.5
			c-0.1,0.1-0.1,0.2-0.1,0.3c0,0.1,0,0.1,0,0.2c0,0.2,0,0.5,0.1,0.6s0.1,0.3,0.2,0.4s0.2,0.2,0.3,0.3s0.2,0.1,0.3,0.1
			c0.1,0,0.2,0,0.3,0c0.1,0,0.1,0,0.2,0c0.2,0,0.4,0,0.6-0.1c0.2-0.1,0.3-0.1,0.4-0.2c0.1-0.1,0.2-0.2,0.3-0.3
			c0.1-0.1,0.1-0.2,0.2-0.3c0-0.1,0.1-0.2,0.1-0.3c0-0.1,0-0.1,0-0.2v-2.3c0-0.5-0.3-0.7-1-0.7H127v-0.8h0.4c0.3,0,0.6-0.1,0.7-0.2
			c0.2-0.1,0.2-0.3,0.2-0.6v-0.2h1.1v0.4C129.4,150.3,129.1,150.6,128.6,150.7z"/>
		<path id="XMLID_1076_" class="st11" d="M128.5,146.8v1.7h-4v-1h3v-0.6H128.5z"/>
		<path id="XMLID_1074_" class="st11" d="M132.9,149.3c0.1,0,0.2,0,0.3,0c0.1,0,0.3,0,0.5,0.1s0.4,0.1,0.5,0.2
			c0.2,0.1,0.4,0.3,0.5,0.4c0.2,0.2,0.3,0.4,0.4,0.7s0.2,0.6,0.2,1v2.4c0,0.5-0.1,0.9-0.3,1.2c-0.1,0.2-0.2,0.3-0.3,0.5
			c-0.1,0.1-0.3,0.3-0.4,0.4c-0.2,0.1-0.4,0.2-0.6,0.3c-0.2,0.1-0.5,0.1-0.8,0.1c-0.3,0-0.6,0-0.8-0.1c-0.2-0.1-0.4-0.2-0.6-0.3
			c-0.2-0.1-0.3-0.3-0.4-0.4s-0.2-0.3-0.3-0.5c0,0,0.1-0.1,0.2-0.1c0.1,0,0.2-0.1,0.3-0.2c0.1-0.1,0.2-0.1,0.3-0.2
			c0.1,0,0.1-0.1,0.2-0.1c0.1,0.2,0.2,0.3,0.3,0.5c0.1,0.1,0.3,0.2,0.4,0.2c0.2,0.1,0.3,0.1,0.5,0.1c0.3,0,0.5-0.1,0.7-0.2
			c0.1,0,0.2-0.1,0.2-0.2c0.1-0.1,0.2-0.2,0.2-0.3c0.1-0.1,0.1-0.2,0.2-0.3s0.1-0.3,0.1-0.5v-2.4c0-0.3-0.1-0.5-0.2-0.7
			c0-0.1-0.1-0.2-0.2-0.3c-0.1-0.1-0.1-0.2-0.2-0.2s-0.2-0.1-0.3-0.2c-0.1,0-0.3-0.1-0.4-0.1c-0.2,0-0.4,0-0.6,0.1
			c-0.2,0-0.3,0.1-0.4,0.2c-0.1,0.1-0.2,0.2-0.3,0.3s-0.2,0.3-0.2,0.5h-1.1c0-0.3,0.1-0.6,0.2-0.9c0.1-0.3,0.3-0.5,0.5-0.7
			s0.5-0.3,0.8-0.5C132.1,149.3,132.4,149.3,132.9,149.3L132.9,149.3L132.9,149.3z"/>
		<path id="XMLID_1072_" class="st11" d="M134.8,147.4v1h-4v-1H134.8z"/>
		<path id="XMLID_1070_" class="st11" d="M141.7,150c0.1,0.2,0.2,0.4,0.3,0.6c0.1,0.2,0.1,0.4,0.2,0.7v5.2h-1.1v-4.8
			c0-0.3-0.1-0.6-0.2-0.8c-0.1-0.2-0.3-0.4-0.4-0.5l-1.2,0.8l-1.2-0.8c-0.2,0.1-0.3,0.3-0.4,0.5c-0.1,0.2-0.2,0.5-0.2,0.8v2.6
			c0,0.2,0.1,0.4,0.2,0.6c0,0.1,0.1,0.2,0.1,0.2c0.1,0.1,0.1,0.1,0.2,0.2c0.1,0.1,0.2,0.1,0.3,0.1c0.1,0,0.3,0.1,0.4,0.1h0.8v1h-1.4
			c-0.3,0-0.6-0.1-0.8-0.3c-0.1-0.1-0.2-0.2-0.3-0.3s-0.2-0.2-0.3-0.4c-0.1-0.1-0.1-0.3-0.2-0.5c0-0.2-0.1-0.4-0.1-0.7v-3.1
			c0.1-0.5,0.2-0.9,0.5-1.3c0.3-0.4,0.6-0.6,1.1-0.8l1.3,0.8l1.3-0.8C141.1,149.4,141.4,149.7,141.7,150z"/>
	</g>
</g>
<polygon id="XMLID_27_" class="st1" points="19.4,167.3 19.2,147.9 0,167.1 "/>
</svg>
