<?xml version="1.0" encoding="utf-8"?>
<!-- Generator: Adobe Illustrator 19.0.0, SVG Export Plug-In . SVG Version: 6.00 Build 0)  -->
<svg version="1.1" id="Layer_1" xmlns="http://www.w3.org/2000/svg" xmlns:xlink="http://www.w3.org/1999/xlink" x="0px" y="0px"
	 viewBox="0 0 168.9 168" style="enable-background:new 0 0 168.9 168;" xml:space="preserve">
<style type="text/css">
	.st0{fill:#ED135E;}
	.st1{fill:#FFFFFF;}
	.st2{fill:#CD202B;}
	.st3{fill:#E1E1E1;}
	.st4{fill:#BBBBBB;}
	.st5{fill:#8C8C8C;}
	.st6{fill:#C1A52F;}
	.st7{fill:#FEDE40;}
	.st8{fill:#DFDFDF;}
	.st9{fill:#C8C8C8;}
	.st10{fill:none;stroke:#FFFFFF;stroke-width:0.5;stroke-miterlimit:10;}
	.st11{fill:#404040;stroke:#404040;stroke-width:0.5;stroke-miterlimit:10;}
	.st12{fill:#404040;}
</style>
<rect id="XMLID_4013_" x="0.2" y="0" class="st0" width="150.5" height="167"/>
<rect id="XMLID_4012_" x="0" y="88.9" class="st1" width="150.9" height="78.6"/>
<polygon id="XMLID_2494_" class="st1" points="149.7,167.8 149.7,148.8 168.9,168 "/>
<g id="XMLID_9177_">
	<circle id="XMLID_9178_" class="st2" cx="12.9" cy="100.7" r="4"/>
	<path id="XMLID_9179_" class="st2" d="M8.9,100.7H17v10.1C17,110.8,8.9,105.9,8.9,100.7z"/>
	<circle id="XMLID_2518_" class="st2" cx="21" cy="100.5" r="4"/>
	<path id="XMLID_2517_" class="st2" d="M25,100.5H17v10.1C17,110.6,25,105.7,25,100.5z"/>
</g>
<g id="XMLID_9316_">
	<polyline id="XMLID_2515_" class="st1" points="84.3,29.3 86.1,29.3 86.1,9.7 64.5,9.7 64.5,29.3 64.8,29.3 	"/>
	<rect id="XMLID_2514_" x="64.5" y="15.8" class="st3" width="21.6" height="5.3"/>
	<rect id="XMLID_2513_" x="84.3" y="9.7" class="st4" width="1.9" height="22.5"/>
	<rect id="XMLID_2512_" x="84.3" y="15.8" class="st5" width="1.9" height="5.3"/>
	
		<rect id="XMLID_2511_" x="91.9" y="50.8" transform="matrix(0.9191 0.394 -0.394 0.9191 28.6339 -32.917)" class="st6" width="5.1" height="4.9"/>
	
		<rect id="XMLID_2510_" x="90.3" y="50.1" transform="matrix(0.9191 0.3939 -0.3939 0.9191 28.2222 -32.3191)" class="st7" width="5.1" height="4.9"/>
	<polyline id="XMLID_9317_" class="st1" points="84.3,63.3 86.1,63.3 86.1,82.9 64.5,82.9 64.5,63.3 64.8,63.3 	"/>
	
		<rect id="XMLID_2508_" x="93.6" y="34.4" transform="matrix(-0.9191 0.394 -0.394 -0.9191 199.0357 32.799)" class="st7" width="5.1" height="4.9"/>
	<line id="XMLID_9318_" class="st1" x1="65.3" y1="76.8" x2="85.4" y2="76.8"/>
	<line id="XMLID_9319_" class="st1" x1="65.3" y1="70.1" x2="85.4" y2="70.1"/>
	<rect id="XMLID_2505_" x="64.5" y="71.5" class="st3" width="21.6" height="5.3"/>
	<rect id="XMLID_2504_" x="84.3" y="60.4" class="st4" width="1.9" height="22.5"/>
	<rect id="XMLID_2503_" x="84.3" y="71.5" class="st5" width="1.9" height="5.3"/>
	<circle id="XMLID_9320_" class="st5" cx="74.5" cy="45.3" r="20.5"/>
	<circle id="XMLID_9321_" class="st8" cx="74.5" cy="45.3" r="15.2"/>
	<circle id="XMLID_9322_" class="st9" cx="74.4" cy="45.3" r="13.3"/>
	<polyline id="XMLID_9323_" class="st10" points="74.5,35.1 74.5,45.3 84,45.3 	"/>
	<circle id="XMLID_9324_" class="st10" cx="74.4" cy="45.4" r="3.4"/>
</g>
<g id="XMLID_49_">
	<path id="XMLID_50_" class="st11" d="M36.1,98.4v4.6c0,0.3,0,0.6,0.1,0.8c0.1,0.2,0.2,0.4,0.3,0.5c0.1,0.1,0.3,0.2,0.4,0.3
		c0.1,0.1,0.3,0.1,0.4,0.2s0.2,0.1,0.3,0.1c0.1,0,0.2,0,0.2,0c0.3,0,0.5,0,0.7-0.1c0.2-0.1,0.4-0.2,0.5-0.3s0.2-0.3,0.3-0.4
		c0.1-0.2,0.1-0.3,0.2-0.4s0.1-0.3,0.1-0.4c0-0.1,0-0.2,0-0.2v-4.6h1.1v7.3h-1.1v-1c0,0.1,0,0.3-0.1,0.4s-0.1,0.2-0.2,0.3
		c-0.1,0.1-0.2,0.1-0.3,0.2s-0.2,0.1-0.3,0.1c-0.3,0.1-0.5,0.1-0.8,0.2h-0.3c-0.4,0-0.8-0.1-1.1-0.2c-0.3-0.1-0.5-0.3-0.7-0.4
		c-0.2-0.2-0.3-0.4-0.5-0.6s-0.2-0.4-0.2-0.6c-0.1-0.2-0.1-0.4-0.1-0.6c0-0.2,0-0.3,0-0.4V103v-4.6H36.1z"/>
	<path id="XMLID_74_" class="st11" d="M43.2,98.4c0,0,0.1,0,0.2,0c0.1,0,0.2,0,0.4,0.1c0.1,0,0.3,0.1,0.5,0.2
		c0.2,0.1,0.3,0.2,0.4,0.4c0.1,0.2,0.2,0.4,0.3,0.6s0.1,0.5,0.1,0.9v5.2h-1.1v-5.2c0-0.2,0-0.4-0.1-0.5c0-0.1-0.1-0.1-0.1-0.2
		c0-0.1-0.1-0.1-0.2-0.2c-0.1,0-0.1-0.1-0.2-0.1c-0.1,0-0.2,0-0.3,0c-0.2,0-0.3,0-0.5,0.1c-0.1,0-0.2,0.1-0.3,0.1s-0.1,0.1-0.2,0.2
		c0,0.1-0.1,0.1-0.1,0.1l-0.8-0.8c0.1-0.1,0.3-0.3,0.4-0.4c0.2-0.1,0.3-0.2,0.6-0.3S42.9,98.4,43.2,98.4z"/>
	<path id="XMLID_149_" class="st11" d="M53.2,99.5c-0.1,0.2-0.3,0.3-0.6,0.4c0.2,0.1,0.4,0.2,0.6,0.3s0.2,0.3,0.2,0.6v3.2
		c0,0.4-0.1,0.7-0.3,0.9c-0.1,0.1-0.2,0.2-0.3,0.3c-0.1,0.1-0.2,0.2-0.4,0.3s-0.3,0.2-0.5,0.2c-0.2,0.1-0.4,0.1-0.7,0.1
		c-0.2,0-0.4,0-0.5-0.1s-0.3-0.1-0.4-0.2s-0.2-0.2-0.3-0.4c-0.1-0.1-0.1-0.3-0.1-0.5c0,0.2,0,0.4-0.1,0.5c-0.1,0.1-0.2,0.3-0.3,0.4
		s-0.3,0.2-0.4,0.2s-0.3,0.1-0.5,0.1c-0.2,0-0.5,0-0.7-0.1c-0.2-0.1-0.4-0.1-0.5-0.2s-0.3-0.2-0.4-0.3c-0.1-0.1-0.2-0.2-0.3-0.3
		c-0.2-0.3-0.3-0.6-0.3-0.9v-4.5h1.1v4.1c0,0.3,0,0.5,0.1,0.7s0.2,0.3,0.3,0.4c0.1,0.1,0.2,0.1,0.3,0.1c0.1,0,0.2,0,0.2,0h0.1
		c0.2,0,0.3,0,0.5-0.1s0.2-0.2,0.2-0.3c0.1-0.1,0.1-0.2,0.1-0.4s0-0.2,0-0.3v-0.1v-2.5h1v2.5v0.1c0,0.1,0,0.2,0,0.3s0,0.2,0.1,0.4
		c0.1,0.1,0.1,0.2,0.2,0.3s0.3,0.1,0.5,0.1h0c0.1,0,0.1,0,0.2,0c0.1,0,0.2-0.1,0.3-0.1c0.1-0.1,0.2-0.2,0.3-0.4s0.1-0.4,0.1-0.7V101
		c0-0.5-0.3-0.7-1-0.7H51v-0.8h0.4c0.3,0,0.6-0.1,0.7-0.2s0.2-0.4,0.2-0.6v-0.2h1.1v0.4C53.4,99.1,53.4,99.3,53.2,99.5z"/>
	<path id="XMLID_151_" class="st11" d="M52.8,96.5v1h-4.1v-1H52.8z"/>
	<path id="XMLID_153_" class="st11" d="M54.6,105.7v-5.6c0.2-0.3,0.3-0.5,0.5-0.7c0.2-0.2,0.4-0.4,0.6-0.5c0.2-0.1,0.4-0.2,0.6-0.3
		s0.4-0.1,0.5-0.2c0.2,0,0.3-0.1,0.4-0.1c0.1,0,0.2,0,0.3,0h0.1c0.4,0,0.7,0.1,0.9,0.1s0.5,0.2,0.7,0.3c0.2,0.1,0.4,0.3,0.5,0.4
		c0.1,0.2,0.3,0.3,0.3,0.5c0.1,0.2,0.2,0.3,0.2,0.5s0.1,0.3,0.1,0.4c0,0.1,0,0.2,0,0.3c0,0.1,0,0.2,0,0.2v4.5h-1.1v-4.5
		c0-0.3,0-0.5-0.1-0.7c-0.1-0.2-0.2-0.4-0.3-0.5s-0.3-0.2-0.4-0.3c-0.1-0.1-0.3-0.1-0.4-0.2s-0.2-0.1-0.3-0.1c-0.1,0-0.2,0-0.2,0
		c-0.2,0-0.4,0-0.6,0.1c-0.2,0.1-0.3,0.1-0.4,0.2c-0.1,0.1-0.2,0.2-0.3,0.3c-0.1,0.1-0.2,0.2-0.2,0.3c-0.1,0.3-0.2,0.5-0.2,0.9v4.5
		H54.6z"/>
	<path id="XMLID_155_" class="st11" d="M62.8,98.4c0,0,0.1,0,0.2,0c0.1,0,0.2,0,0.4,0.1c0.1,0,0.3,0.1,0.5,0.2
		c0.2,0.1,0.3,0.2,0.4,0.4c0.1,0.2,0.2,0.4,0.3,0.6s0.1,0.5,0.1,0.9v5.2h-1.1v-5.2c0-0.2,0-0.4-0.1-0.5c0-0.1-0.1-0.1-0.1-0.2
		c0-0.1-0.1-0.1-0.2-0.2c-0.1,0-0.1-0.1-0.2-0.1c-0.1,0-0.2,0-0.3,0c-0.2,0-0.3,0-0.5,0.1c-0.1,0-0.2,0.1-0.3,0.1s-0.1,0.1-0.2,0.2
		c0,0.1-0.1,0.1-0.1,0.1L61,99.2c0.1-0.1,0.3-0.3,0.4-0.4c0.2-0.1,0.3-0.2,0.6-0.3S62.5,98.4,62.8,98.4z"/>
	<path id="XMLID_193_" class="st12" d="M37.6,113.8c0.3,0,0.6,0,0.8,0.1s0.4,0.2,0.6,0.3s0.3,0.2,0.4,0.4s0.2,0.3,0.3,0.4
		c0.2,0.3,0.3,0.7,0.3,1.1v4.1h-0.9v-0.9c0,0.1,0,0.2-0.1,0.3s-0.1,0.2-0.2,0.2s-0.1,0.1-0.2,0.2s-0.2,0.1-0.3,0.1
		c-0.2,0.1-0.5,0.1-0.7,0.1h-0.2c-0.4,0-0.7,0-0.9-0.1s-0.5-0.2-0.6-0.4s-0.3-0.3-0.4-0.5s-0.2-0.4-0.2-0.6s-0.1-0.4-0.1-0.5
		s0-0.3,0-0.4h-0.3v-0.9h1.2v0.9c0,0.3,0,0.5,0.1,0.7s0.2,0.3,0.3,0.4s0.2,0.2,0.3,0.3s0.2,0.1,0.4,0.1s0.2,0,0.3,0.1s0.1,0,0.2,0
		c0.2,0,0.4,0,0.6-0.1s0.3-0.2,0.4-0.3s0.2-0.2,0.3-0.4s0.1-0.3,0.1-0.4s0-0.2,0.1-0.3s0-0.1,0-0.2v-1.7c0-0.2,0-0.3-0.1-0.4
		s-0.1-0.2-0.2-0.3s-0.2-0.2-0.2-0.2s-0.2-0.1-0.3-0.2c-0.2-0.1-0.5-0.2-0.8-0.2h-0.1c-0.1,0-0.2,0-0.3,0s-0.3,0.1-0.4,0.1
		s-0.3,0.2-0.4,0.3s-0.2,0.3-0.3,0.5h-0.9c0-0.1,0.1-0.2,0.1-0.4s0.1-0.3,0.2-0.4s0.2-0.3,0.3-0.4s0.3-0.3,0.4-0.4s0.4-0.2,0.6-0.2
		S37.3,113.8,37.6,113.8z"/>
	<path id="XMLID_195_" class="st12" d="M38.3,111.8v0.5h2.4v0.9h-2.8c-0.1,0-0.2,0-0.2-0.1s-0.1-0.1-0.1-0.1c0-0.1-0.1-0.1-0.1-0.2
		v-0.9H38.3z"/>
	<path id="XMLID_197_" class="st12" d="M42.3,113.9v3.9c0,0.3,0,0.5,0.1,0.7s0.2,0.3,0.3,0.4s0.2,0.2,0.3,0.3s0.2,0.1,0.4,0.1
		s0.2,0,0.3,0.1s0.1,0,0.2,0c0.2,0,0.4,0,0.6-0.1s0.3-0.2,0.4-0.3s0.2-0.2,0.3-0.4s0.1-0.3,0.1-0.4s0-0.2,0.1-0.3s0-0.1,0-0.2v-3.9
		h0.9v6.3h-0.9v-0.9c0,0.1,0,0.2-0.1,0.3s-0.1,0.2-0.2,0.2s-0.1,0.1-0.2,0.2s-0.2,0.1-0.3,0.1c-0.2,0.1-0.5,0.1-0.7,0.1h-0.2
		c-0.4,0-0.7,0-0.9-0.1s-0.5-0.2-0.6-0.4s-0.3-0.3-0.4-0.5s-0.2-0.4-0.2-0.5s-0.1-0.3-0.1-0.5s0-0.3,0-0.3v-0.1v-3.9H42.3z"/>
	<path id="XMLID_199_" class="st12" d="M51.4,115.1c0.4,0.1,0.7,0.4,0.7,0.8v2.2c0,0.4,0,0.6-0.1,0.9s-0.2,0.4-0.4,0.6
		s-0.3,0.3-0.5,0.4s-0.4,0.2-0.5,0.2s-0.3,0.1-0.4,0.1s-0.2,0-0.2,0c-0.4,0-0.7,0-0.9-0.1s-0.5-0.2-0.6-0.4s-0.3-0.3-0.4-0.5
		s-0.2-0.4-0.2-0.5s-0.1-0.3-0.1-0.4s0-0.2,0-0.2c0-0.2,0-0.4,0.1-0.6s0.1-0.3,0.2-0.4s0.2-0.3,0.3-0.4s0.2-0.2,0.3-0.3
		s0.2-0.2,0.2-0.3s0.1-0.2,0.1-0.3c0,0,0,0,0-0.1s0,0,0-0.1c0-0.1,0-0.2,0-0.2s0-0.1-0.1-0.2l-0.5,0.4l-1.1-1.2l0.6-0.6l0.5,0.6
		l0.5-0.6l0.6,0.6c0.1,0.1,0.1,0.2,0.2,0.3s0.1,0.2,0.1,0.3s0,0.2,0,0.3s0,0.2,0,0.2v0.1c0,0.1,0,0.2-0.1,0.3s-0.1,0.2-0.2,0.3
		c-0.1,0.1-0.1,0.2-0.2,0.3c-0.2,0.2-0.3,0.4-0.4,0.5s-0.2,0.3-0.2,0.4s-0.1,0.2-0.1,0.3s0,0.1,0,0.1c0,0.2,0,0.4,0.1,0.5
		s0.1,0.3,0.2,0.4s0.2,0.2,0.3,0.2s0.2,0.1,0.3,0.1s0.2,0,0.2,0s0.1,0,0.1,0c0.2,0,0.4,0,0.5-0.1s0.3-0.1,0.4-0.2s0.2-0.2,0.2-0.3
		s0.1-0.2,0.1-0.3s0.1-0.2,0.1-0.2s0-0.1,0-0.1v-2c0-0.4-0.3-0.6-0.8-0.6H50v-0.7h0.3c0.3,0,0.5-0.1,0.6-0.2s0.2-0.3,0.2-0.5v-0.2
		h0.9v0.4C52.1,114.7,51.8,115,51.4,115.1z"/>
	<path id="XMLID_201_" class="st12" d="M54.3,113.8c0,0,0.1,0,0.2,0s0.2,0,0.3,0.1s0.3,0.1,0.4,0.2s0.3,0.2,0.4,0.3s0.2,0.3,0.3,0.5
		s0.1,0.5,0.1,0.8v4.5H55v-4.5c0-0.2,0-0.3-0.1-0.5c0-0.1-0.1-0.1-0.1-0.2s-0.1-0.1-0.1-0.1s-0.1-0.1-0.2-0.1s-0.1,0-0.2,0
		c-0.2,0-0.3,0-0.4,0.1s-0.2,0.1-0.3,0.1s-0.1,0.1-0.2,0.1s-0.1,0.1-0.1,0.1l-0.6-0.7c0.1-0.1,0.2-0.2,0.4-0.3
		c0.1-0.1,0.3-0.2,0.5-0.2S54,113.8,54.3,113.8z"/>
	<path id="XMLID_204_" class="st12" d="M62.1,113.9v4.1c0,0.4-0.2,0.8-0.3,1.1c-0.1,0.1-0.2,0.3-0.3,0.4s-0.3,0.3-0.4,0.4
		s-0.4,0.2-0.6,0.3s-0.5,0.1-0.8,0.1c-0.3,0-0.6,0-0.8-0.1s-0.4-0.1-0.6-0.3s-0.3-0.2-0.4-0.4s-0.2-0.3-0.3-0.4
		c-0.2-0.3-0.3-0.7-0.3-1.1v-4.1h0.9v4.1c0,0.2,0,0.3,0.1,0.5s0.1,0.2,0.2,0.3s0.2,0.2,0.2,0.2s0.2,0.1,0.3,0.2
		c0.2,0.1,0.5,0.2,0.8,0.2c0.3,0,0.5-0.1,0.8-0.2c0.1,0,0.2-0.1,0.3-0.2s0.2-0.1,0.2-0.2s0.1-0.2,0.2-0.3s0.1-0.3,0.1-0.5v-4.1H62.1
		z"/>
	<path id="XMLID_206_" class="st12" d="M67.2,115.1c0.4,0.1,0.7,0.4,0.7,0.8v2.2c0,0.4,0,0.6-0.1,0.9s-0.2,0.4-0.4,0.6
		s-0.3,0.3-0.5,0.4s-0.4,0.2-0.5,0.2s-0.3,0.1-0.4,0.1s-0.2,0-0.2,0c-0.4,0-0.7,0-0.9-0.1s-0.5-0.2-0.6-0.4s-0.3-0.3-0.4-0.5
		s-0.2-0.4-0.2-0.5s-0.1-0.3-0.1-0.4s0-0.2,0-0.2c0-0.2,0-0.4,0.1-0.6s0.1-0.3,0.2-0.4s0.2-0.3,0.3-0.4s0.2-0.2,0.3-0.3
		s0.2-0.2,0.2-0.3s0.1-0.2,0.1-0.3c0,0,0,0,0-0.1s0,0,0-0.1c0-0.1,0-0.2,0-0.2s0-0.1-0.1-0.2l-0.5,0.4l-1.1-1.2l0.6-0.6l0.5,0.6
		l0.5-0.6l0.6,0.6c0.1,0.1,0.1,0.2,0.2,0.3s0.1,0.2,0.1,0.3s0,0.2,0,0.3s0,0.2,0,0.2v0.1c0,0.1,0,0.2-0.1,0.3s-0.1,0.2-0.2,0.3
		c-0.1,0.1-0.1,0.2-0.2,0.3c-0.2,0.2-0.3,0.4-0.4,0.5s-0.2,0.3-0.2,0.4s-0.1,0.2-0.1,0.3s0,0.1,0,0.1c0,0.2,0,0.4,0.1,0.5
		s0.1,0.3,0.2,0.4s0.2,0.2,0.3,0.2s0.2,0.1,0.3,0.1s0.2,0,0.2,0s0.1,0,0.1,0c0.2,0,0.4,0,0.5-0.1s0.3-0.1,0.4-0.2s0.2-0.2,0.2-0.3
		s0.1-0.2,0.1-0.3s0.1-0.2,0.1-0.2s0-0.1,0-0.1v-2c0-0.4-0.3-0.6-0.8-0.6h-0.3v-0.7h0.3c0.3,0,0.5-0.1,0.6-0.2s0.2-0.3,0.2-0.5v-0.2
		h0.9v0.4C67.9,114.7,67.7,115,67.2,115.1z"/>
	<path id="XMLID_208_" class="st12" d="M66.8,110.9c0.2,0,0.3,0,0.4,0.1s0.2,0.1,0.3,0.2s0.2,0.2,0.2,0.3s0.1,0.3,0.1,0.4
		c0,0.2,0,0.3-0.1,0.4s-0.1,0.3-0.2,0.4s-0.2,0.2-0.3,0.2s-0.3,0.1-0.4,0.1h-3.6v-0.9h2.6c0,0,0-0.1,0-0.1s0-0.1,0-0.1
		c0-0.1,0-0.3,0.1-0.4s0.1-0.2,0.2-0.3s0.2-0.2,0.4-0.2S66.6,110.9,66.8,110.9z M66.8,112.4c0.1,0,0.2,0,0.3-0.1s0.1-0.2,0.1-0.3
		s0-0.2-0.1-0.3s-0.2-0.1-0.3-0.1s-0.2,0-0.3,0.1s-0.1,0.2-0.1,0.3s0,0.2,0.1,0.3S66.7,112.4,66.8,112.4z"/>
	<path id="XMLID_233_" class="st12" d="M67.8,109.9v0.9h-2.6v-1.2h-0.5v-0.9h0.9c0.1,0,0.1,0,0.2,0.1c0.1,0,0.1,0.1,0.1,0.1
		s0.1,0.1,0.1,0.2v0.8H67.8z"/>
	<path id="XMLID_235_" class="st12" d="M70.1,113.9h1.8v4.5c0,0.3,0,0.6-0.1,0.8s-0.2,0.4-0.3,0.5s-0.2,0.2-0.4,0.3
		s-0.3,0.1-0.4,0.2s-0.2,0.1-0.3,0.1s-0.1,0-0.2,0c-0.3,0-0.5,0-0.7-0.1s-0.4-0.1-0.5-0.2c-0.2-0.1-0.3-0.2-0.4-0.3l0.6-0.6
		c0,0,0.1,0.1,0.1,0.1s0.1,0.1,0.2,0.1s0.2,0.1,0.3,0.1s0.2,0.1,0.4,0.1c0.1,0,0.2,0,0.2,0s0.1-0.1,0.2-0.1s0.1-0.1,0.1-0.2
		s0.1-0.1,0.1-0.2c0.1-0.1,0.1-0.3,0.1-0.5v-3.7h-0.9V113.9z"/>
	<path id="XMLID_237_" class="st12" d="M73.4,120.1v-6.4c0-0.1,0-0.3,0-0.4s0.1-0.2,0.1-0.4s0.1-0.2,0.2-0.3s0.2-0.2,0.3-0.3
		s0.2-0.2,0.2-0.3s0.1-0.2,0.1-0.2s0.1-0.1,0.1-0.2s0-0.1,0-0.2c0-0.2,0-0.3-0.1-0.4s-0.1-0.2-0.2-0.3s-0.2-0.1-0.3-0.2
		s-0.2-0.1-0.4-0.1c-0.3,0-0.4,0-0.6,0.1s-0.2,0.1-0.3,0.2c-0.1,0.1-0.1,0.1-0.1,0.2h-0.8c0,0,0,0,0,0v-0.1c0,0,0-0.1,0-0.2
		s0-0.2,0.1-0.3s0.1-0.2,0.2-0.3s0.2-0.2,0.3-0.3s0.3-0.1,0.5-0.2s0.4-0.1,0.7-0.1c0.3,0,0.5,0,0.7,0.1s0.4,0.1,0.5,0.3
		s0.2,0.2,0.3,0.3s0.1,0.3,0.2,0.4s0.1,0.3,0.1,0.4s0,0.2,0,0.3v0.1c0,0.1,0,0.2,0,0.3s0,0.2-0.1,0.3s-0.1,0.2-0.2,0.3
		s-0.2,0.3-0.3,0.4c-0.1,0.1-0.2,0.3-0.3,0.4s-0.1,0.2-0.1,0.3c0,0.1-0.1,0.2-0.1,0.3v6.4H73.4z"/>
	<path id="XMLID_239_" class="st12" d="M76.8,113.9v3.9c0,0.3,0,0.5,0.1,0.7s0.2,0.3,0.3,0.4s0.2,0.2,0.3,0.3s0.2,0.1,0.4,0.1
		s0.2,0,0.3,0.1s0.1,0,0.2,0c0.2,0,0.4,0,0.6-0.1s0.3-0.2,0.4-0.3s0.2-0.2,0.3-0.4s0.1-0.3,0.1-0.4s0-0.2,0.1-0.3s0-0.1,0-0.2v-3.9
		h0.9v6.3h-0.9v-0.9c0,0.1,0,0.2-0.1,0.3s-0.1,0.2-0.2,0.2s-0.1,0.1-0.2,0.2s-0.2,0.1-0.3,0.1c-0.2,0.1-0.5,0.1-0.7,0.1h-0.2
		c-0.4,0-0.7,0-0.9-0.1s-0.5-0.2-0.6-0.4s-0.3-0.3-0.4-0.5s-0.2-0.4-0.2-0.5s-0.1-0.3-0.1-0.5s0-0.3,0-0.3v-0.1v-3.9H76.8z"/>
	<path id="XMLID_241_" class="st12" d="M85.7,115.1c0.2,0.1,0.4,0.1,0.5,0.3s0.2,0.3,0.2,0.5v2.2c0,0.4,0,0.6-0.1,0.9
		s-0.2,0.4-0.4,0.6s-0.3,0.3-0.5,0.4s-0.4,0.2-0.5,0.2s-0.3,0.1-0.4,0.1s-0.2,0-0.2,0c-0.4,0-0.7,0-0.9-0.1s-0.5-0.2-0.6-0.4
		s-0.3-0.3-0.4-0.5s-0.2-0.4-0.2-0.5s-0.1-0.3-0.1-0.4s0-0.2,0-0.2c0-0.2,0-0.4,0.1-0.6s0.1-0.3,0.2-0.4s0.2-0.3,0.3-0.4
		s0.2-0.2,0.3-0.3s0.2-0.2,0.2-0.3s0.1-0.2,0.1-0.3c0,0,0-0.1,0-0.1s0,0,0-0.1c0-0.1,0-0.3-0.1-0.4S83,115.1,83,115
		s-0.2-0.1-0.3-0.2s-0.2-0.1-0.3-0.1s-0.2,0-0.2,0s-0.1,0-0.2,0h-0.1v-0.9h0.6c0.3,0,0.5,0,0.7,0.1s0.3,0.2,0.5,0.3s0.2,0.2,0.3,0.4
		s0.1,0.3,0.2,0.4s0.1,0.3,0.1,0.4s0,0.2,0,0.3c0,0,0,0,0,0.1s0,0,0,0v0c0,0.1,0,0.2-0.1,0.3s-0.1,0.2-0.2,0.3
		c-0.1,0.1-0.1,0.2-0.2,0.3c-0.2,0.2-0.3,0.4-0.4,0.5s-0.2,0.3-0.2,0.4s-0.1,0.2-0.1,0.3s0,0.1,0,0.1c0,0.2,0,0.4,0.1,0.5
		s0.1,0.3,0.2,0.4s0.2,0.2,0.3,0.2s0.2,0.1,0.3,0.1s0.2,0,0.2,0s0.1,0,0.1,0c0.2,0,0.4,0,0.5-0.1s0.3-0.1,0.4-0.2s0.2-0.2,0.2-0.3
		s0.1-0.2,0.1-0.3s0.1-0.2,0.1-0.3s0-0.1,0-0.1v-2c0-0.4-0.3-0.6-0.8-0.6h-0.3v-0.7h0.3c0.3,0,0.5-0.1,0.6-0.2s0.2-0.3,0.2-0.5v-0.2
		h0.9v0.4C86.4,114.7,86.2,115,85.7,115.1z"/>
	<path id="XMLID_243_" class="st12" d="M85.8,111.3v1.8h-0.9v-1.8H85.8z"/>
	<path id="XMLID_245_" class="st12" d="M89.5,113.8c0,0,0.1,0,0.3,0s0.3,0,0.4,0.1s0.3,0.1,0.5,0.2s0.3,0.2,0.5,0.4s0.3,0.4,0.3,0.6
		s0.1,0.5,0.1,0.9v2.1c0,0.4-0.1,0.8-0.3,1.1c-0.1,0.1-0.2,0.3-0.3,0.4s-0.2,0.2-0.4,0.3s-0.3,0.2-0.5,0.2s-0.4,0.1-0.7,0.1
		c-0.3,0-0.5,0-0.7-0.1s-0.4-0.1-0.5-0.3s-0.3-0.2-0.4-0.4s-0.2-0.3-0.2-0.4c0,0,0.1-0.1,0.2-0.1s0.1-0.1,0.2-0.1s0.2-0.1,0.2-0.1
		s0.1-0.1,0.2-0.1c0.1,0.2,0.2,0.3,0.3,0.4s0.2,0.2,0.4,0.2c0.1,0.1,0.3,0.1,0.4,0.1c0.2,0,0.4-0.1,0.6-0.2c0.1,0,0.1-0.1,0.2-0.2
		s0.1-0.1,0.2-0.2s0.1-0.2,0.1-0.3s0-0.2,0-0.4V116c0-0.2-0.1-0.4-0.2-0.6c0-0.1-0.1-0.2-0.1-0.2s-0.1-0.1-0.2-0.2s-0.2-0.1-0.3-0.1
		s-0.2-0.1-0.4-0.1c-0.2,0-0.4,0-0.5,0.1s-0.3,0.1-0.4,0.2s-0.2,0.2-0.3,0.3s-0.2,0.3-0.2,0.5h-0.9c0-0.3,0.1-0.5,0.2-0.8
		s0.3-0.4,0.4-0.6s0.4-0.3,0.7-0.4S89.1,113.8,89.5,113.8L89.5,113.8L89.5,113.8z"/>
	<path id="XMLID_247_" class="st12" d="M93.5,113.9h1.8v4.5c0,0.3,0,0.6-0.1,0.8s-0.2,0.4-0.3,0.5s-0.2,0.2-0.4,0.3
		s-0.3,0.1-0.4,0.2s-0.2,0.1-0.3,0.1s-0.1,0-0.2,0c-0.3,0-0.5,0-0.7-0.1s-0.4-0.1-0.5-0.2c-0.2-0.1-0.3-0.2-0.4-0.3l0.6-0.6
		c0,0,0.1,0.1,0.1,0.1s0.1,0.1,0.2,0.1s0.2,0.1,0.3,0.1s0.2,0.1,0.4,0.1c0.1,0,0.2,0,0.2,0s0.1-0.1,0.2-0.1s0.1-0.1,0.1-0.2
		s0.1-0.1,0.1-0.2c0.1-0.1,0.1-0.3,0.1-0.5v-3.7h-0.9V113.9z"/>
	<path id="XMLID_249_" class="st12" d="M97.4,120.1h-0.9v-6.3h0.9V120.1z"/>
	<path id="XMLID_251_" class="st12" d="M100.5,113.8c0,0,0.1,0,0.3,0s0.3,0,0.4,0.1s0.3,0.1,0.5,0.2s0.3,0.2,0.5,0.4
		s0.3,0.4,0.3,0.6s0.1,0.5,0.1,0.9v2.1c0,0.4-0.1,0.8-0.3,1.1c-0.1,0.1-0.2,0.3-0.3,0.4s-0.2,0.2-0.4,0.3s-0.3,0.2-0.5,0.2
		s-0.4,0.1-0.7,0.1c-0.3,0-0.5,0-0.7-0.1s-0.4-0.1-0.5-0.3s-0.3-0.2-0.4-0.4s-0.2-0.3-0.2-0.4c0,0,0.1-0.1,0.2-0.1s0.1-0.1,0.2-0.1
		s0.2-0.1,0.2-0.1s0.1-0.1,0.2-0.1c0.1,0.2,0.2,0.3,0.3,0.4s0.2,0.2,0.4,0.2c0.1,0.1,0.3,0.1,0.4,0.1c0.2,0,0.4-0.1,0.6-0.2
		c0.1,0,0.1-0.1,0.2-0.2s0.1-0.1,0.2-0.2s0.1-0.2,0.1-0.3s0-0.2,0-0.4V116c0-0.2-0.1-0.4-0.2-0.6c0-0.1-0.1-0.2-0.1-0.2
		s-0.1-0.1-0.2-0.2s-0.2-0.1-0.3-0.1s-0.2-0.1-0.4-0.1c-0.2,0-0.4,0-0.5,0.1s-0.3,0.1-0.4,0.2s-0.2,0.2-0.3,0.3s-0.2,0.3-0.2,0.5
		h-0.9c0-0.3,0.1-0.5,0.2-0.8s0.3-0.4,0.4-0.6s0.4-0.3,0.7-0.4S100.1,113.8,100.5,113.8L100.5,113.8L100.5,113.8z"/>
	<path id="XMLID_253_" class="st12" d="M106.8,114c0.3,0.1,0.5,0.2,0.7,0.4s0.3,0.3,0.4,0.5s0.2,0.4,0.2,0.6s0.1,0.3,0.1,0.5
		s0,0.2,0,0.3v0.1v3.8h-0.9v-1.9c0-0.2,0-0.3-0.1-0.5s-0.2-0.2-0.3-0.3s-0.3-0.1-0.4-0.2s-0.3-0.1-0.4-0.1s-0.3,0-0.4,0
		c0,0,0,0-0.1,0s-0.1,0-0.2,0s-0.2,0.1-0.3,0.1s-0.2,0.1-0.3,0.2s-0.2,0.2-0.3,0.3s-0.1,0.3-0.2,0.4c0,0.1,0,0.1,0,0.2
		c0,0.1,0,0.2,0.1,0.3s0.2,0.2,0.3,0.2s0.2,0.1,0.3,0.2s0.3,0.1,0.4,0.1s0.2,0,0.3,0s0.2,0,0.2,0h0.1v0.9h-1.1c-0.2,0-0.4,0-0.6-0.1
		s-0.4-0.2-0.5-0.4s-0.3-0.3-0.3-0.6s-0.1-0.4-0.1-0.7c0-0.2,0.1-0.5,0.2-0.7s0.3-0.5,0.5-0.7c0.1-0.1,0.3-0.2,0.4-0.3
		s0.3-0.2,0.5-0.2s0.3-0.1,0.5-0.1s0.3,0,0.4,0c0.2,0,0.4,0,0.6,0.1s0.4,0.1,0.5,0.1c0.2,0.1,0.3,0.1,0.4,0.2v-0.4
		c0-0.2,0-0.4-0.1-0.5s-0.1-0.3-0.2-0.4s-0.2-0.2-0.2-0.3s-0.2-0.1-0.3-0.2c-0.2-0.1-0.5-0.2-0.8-0.2c-0.3,0-0.5,0-0.6,0.1
		s-0.3,0.2-0.4,0.3s-0.2,0.3-0.3,0.4s-0.1,0.3-0.1,0.4h-1c0-0.3,0.1-0.6,0.2-0.9s0.2-0.4,0.4-0.6s0.3-0.3,0.5-0.4s0.4-0.2,0.5-0.2
		s0.3-0.1,0.5-0.1s0.2,0,0.3,0h0.1C106.2,113.8,106.5,113.9,106.8,114z"/>
	<path id="XMLID_255_" class="st12" d="M110.2,113.8c0,0,0.1,0,0.2,0s0.2,0,0.3,0.1s0.3,0.1,0.4,0.2s0.3,0.2,0.4,0.3
		s0.2,0.3,0.3,0.5s0.1,0.5,0.1,0.8v4.5h-0.9v-4.5c0-0.2,0-0.3-0.1-0.5c0-0.1-0.1-0.1-0.1-0.2s-0.1-0.1-0.1-0.1s-0.1-0.1-0.2-0.1
		s-0.1,0-0.2,0c-0.2,0-0.3,0-0.4,0.1s-0.2,0.1-0.3,0.1s-0.1,0.1-0.2,0.1s-0.1,0.1-0.1,0.1l-0.6-0.7c0.1-0.1,0.2-0.2,0.4-0.3
		c0.1-0.1,0.3-0.2,0.5-0.2S109.9,113.8,110.2,113.8z"/>
	<path id="XMLID_272_" class="st12" d="M35.8,134.5h-0.9v-6.3h0.9V134.5z M37.7,134.5h-0.9v-6.3h0.9V134.5z"/>
	<path id="XMLID_275_" class="st12" d="M42.1,128.4c0.3,0.1,0.5,0.2,0.7,0.4s0.3,0.3,0.4,0.5s0.2,0.4,0.2,0.6s0.1,0.3,0.1,0.5
		s0,0.2,0,0.3v0.1v3.8h-0.9v-1.9c0-0.2,0-0.3-0.1-0.5s-0.2-0.2-0.3-0.3s-0.3-0.1-0.4-0.2s-0.3-0.1-0.4-0.1s-0.3,0-0.4,0
		c0,0,0,0-0.1,0s-0.1,0-0.2,0s-0.2,0.1-0.3,0.1s-0.2,0.1-0.3,0.2s-0.2,0.2-0.3,0.3s-0.1,0.3-0.2,0.4c0,0.1,0,0.1,0,0.2
		c0,0.1,0,0.2,0.1,0.3s0.2,0.2,0.3,0.2s0.2,0.1,0.3,0.2s0.3,0.1,0.4,0.1s0.2,0,0.3,0s0.2,0,0.2,0h0.1v0.9h-1.1c-0.2,0-0.4,0-0.6-0.1
		s-0.4-0.2-0.5-0.4s-0.3-0.3-0.3-0.6s-0.1-0.4-0.1-0.7c0-0.2,0.1-0.5,0.2-0.7s0.3-0.5,0.5-0.7c0.1-0.1,0.3-0.2,0.4-0.3
		s0.3-0.2,0.5-0.2s0.3-0.1,0.5-0.1s0.3,0,0.4,0c0.2,0,0.4,0,0.6,0.1s0.4,0.1,0.5,0.1c0.2,0.1,0.3,0.1,0.4,0.2v-0.4
		c0-0.2,0-0.4-0.1-0.5s-0.1-0.3-0.2-0.4s-0.2-0.2-0.2-0.3s-0.2-0.1-0.3-0.2c-0.2-0.1-0.5-0.2-0.8-0.2c-0.3,0-0.5,0-0.6,0.1
		s-0.3,0.2-0.4,0.3s-0.2,0.3-0.3,0.4s-0.1,0.3-0.1,0.4h-1c0-0.3,0.1-0.6,0.2-0.9s0.2-0.4,0.4-0.6s0.3-0.3,0.5-0.4s0.4-0.2,0.5-0.2
		s0.3-0.1,0.5-0.1s0.2,0,0.3,0h0.1C41.5,128.2,41.8,128.3,42.1,128.4z"/>
	<path id="XMLID_295_" class="st12" d="M45.2,128.8v0.5h1.6v0.9h-2.1c-0.1,0-0.2,0-0.2-0.1s-0.1-0.1-0.1-0.1c0-0.1-0.1-0.1-0.1-0.2
		v-0.9H45.2z M45.2,132.6v0.5h1.6v0.9h-2.1c-0.1,0-0.2,0-0.2-0.1s-0.1-0.1-0.1-0.1c0-0.1-0.1-0.1-0.1-0.2v-0.9H45.2z"/>
	<path id="XMLID_298_" class="st12" d="M54.5,128.4c0.3,0.1,0.5,0.2,0.7,0.4s0.3,0.3,0.4,0.5s0.2,0.4,0.2,0.6s0.1,0.3,0.1,0.5
		s0,0.2,0,0.3v0.1v3.8h-0.9v-3.8c0-0.2,0-0.4-0.1-0.5s-0.1-0.3-0.2-0.4s-0.2-0.2-0.2-0.3s-0.2-0.1-0.3-0.2c-0.2-0.1-0.5-0.2-0.8-0.2
		c-0.2,0-0.3,0-0.5,0.1s-0.3,0.1-0.4,0.2s-0.2,0.2-0.3,0.2s-0.1,0.2-0.2,0.3c-0.1,0.2-0.2,0.5-0.2,0.8v0.6c0.4-0.2,0.8-0.3,1.2-0.3
		c0.2,0,0.4,0,0.6,0.1v1c-0.1,0-0.2-0.1-0.3-0.1s-0.2,0-0.3,0c-0.3,0-0.5,0.1-0.8,0.2c-0.1,0.1-0.2,0.2-0.3,0.3s-0.1,0.2-0.2,0.3
		v1.7h-0.9v-3.9c0-0.4,0.1-0.7,0.2-1s0.2-0.5,0.4-0.7s0.3-0.3,0.5-0.4s0.4-0.2,0.6-0.2s0.3-0.1,0.5-0.1s0.2,0,0.3,0h0.1
		C53.9,128.2,54.3,128.3,54.5,128.4z"/>
	<path id="XMLID_300_" class="st12" d="M59.1,128.2c0,0,0.1,0,0.3,0s0.3,0,0.4,0.1s0.3,0.1,0.5,0.2s0.3,0.2,0.5,0.4s0.3,0.4,0.3,0.6
		s0.1,0.5,0.1,0.9v2.1c0,0.4-0.1,0.8-0.3,1.1c-0.1,0.1-0.2,0.3-0.3,0.4s-0.2,0.2-0.4,0.3s-0.3,0.2-0.5,0.2s-0.4,0.1-0.7,0.1
		c-0.3,0-0.5,0-0.7-0.1s-0.4-0.1-0.5-0.3s-0.3-0.2-0.4-0.4s-0.2-0.3-0.2-0.4c0,0,0.1-0.1,0.2-0.1s0.1-0.1,0.2-0.1s0.2-0.1,0.2-0.1
		s0.1-0.1,0.2-0.1c0.1,0.2,0.2,0.3,0.3,0.4s0.2,0.2,0.4,0.2c0.1,0.1,0.3,0.1,0.4,0.1c0.2,0,0.4-0.1,0.6-0.2c0.1,0,0.1-0.1,0.2-0.2
		s0.1-0.1,0.2-0.2s0.1-0.2,0.1-0.3s0-0.2,0-0.4v-2.1c0-0.2-0.1-0.4-0.2-0.6c0-0.1-0.1-0.2-0.1-0.2s-0.1-0.1-0.2-0.2
		s-0.2-0.1-0.3-0.1s-0.2-0.1-0.4-0.1c-0.2,0-0.4,0-0.5,0.1s-0.3,0.1-0.4,0.2s-0.2,0.2-0.3,0.3s-0.2,0.3-0.2,0.5h-0.9
		c0-0.3,0.1-0.5,0.2-0.8s0.3-0.4,0.4-0.6s0.4-0.3,0.7-0.4S58.6,128.2,59.1,128.2L59.1,128.2L59.1,128.2z"/>
	<path id="XMLID_302_" class="st12" d="M63.1,128.2c0,0,0.1,0,0.2,0s0.2,0,0.3,0.1s0.3,0.1,0.4,0.2s0.3,0.2,0.4,0.3s0.2,0.3,0.3,0.5
		s0.1,0.5,0.1,0.8v4.5h-0.9v-4.5c0-0.2,0-0.3-0.1-0.5c0-0.1-0.1-0.1-0.1-0.2s-0.1-0.1-0.1-0.1s-0.1-0.1-0.2-0.1s-0.1,0-0.2,0
		c-0.2,0-0.3,0-0.4,0.1s-0.2,0.1-0.3,0.1s-0.1,0.1-0.2,0.1s-0.1,0.1-0.1,0.1l-0.6-0.7c0.1-0.1,0.2-0.2,0.4-0.3
		c0.1-0.1,0.3-0.2,0.5-0.2S62.9,128.2,63.1,128.2z"/>
	<path id="XMLID_304_" class="st12" d="M71,128.3v3.9v0.1c0,0.1,0,0.2,0,0.3s0,0.3-0.1,0.5s-0.1,0.4-0.2,0.5s-0.2,0.4-0.4,0.5
		s-0.4,0.3-0.6,0.4s-0.5,0.1-0.9,0.1h-0.2c-0.3,0-0.5-0.1-0.7-0.1c-0.1,0-0.2-0.1-0.3-0.1s-0.2-0.1-0.2-0.2s-0.1-0.1-0.2-0.2
		s-0.1-0.2-0.1-0.3v0.9h-0.9v-6.3H67v3.9c0,0,0,0.1,0,0.2s0,0.2,0.1,0.3s0.1,0.2,0.1,0.4s0.1,0.3,0.3,0.4s0.2,0.2,0.4,0.3
		s0.4,0.1,0.6,0.1c0,0,0.1,0,0.2,0s0.2,0,0.3-0.1s0.2-0.1,0.4-0.1s0.2-0.2,0.3-0.3s0.2-0.3,0.3-0.4s0.1-0.4,0.1-0.7v-3.9H71z"/>
	<path id="XMLID_306_" class="st12" d="M76.1,134.5v-3.9c0-0.2,0-0.5-0.1-0.6s-0.2-0.3-0.3-0.4s-0.2-0.2-0.3-0.3s-0.2-0.1-0.4-0.1
		s-0.2,0-0.3,0s-0.1,0-0.2,0c-0.2,0-0.4,0-0.6,0.1s-0.3,0.2-0.4,0.3s-0.2,0.2-0.3,0.3s-0.1,0.2-0.1,0.3s0,0.2-0.1,0.3s0,0.1,0,0.1
		v3.9h-0.9v-6.3h0.9v0.9c0-0.1,0-0.2,0.1-0.3s0.1-0.2,0.2-0.2s0.2-0.1,0.2-0.2s0.2-0.1,0.3-0.1c0.2-0.1,0.5-0.1,0.7-0.1h0.2
		c0.4,0,0.7,0,0.9,0.1s0.5,0.2,0.6,0.4s0.3,0.3,0.4,0.5s0.2,0.4,0.2,0.5s0.1,0.3,0.1,0.5s0,0.2,0,0.3v0.1v3.9H76.1z"/>
	<path id="XMLID_308_" class="st12" d="M81.8,129.9l-0.4-0.3c-0.1-0.1-0.2-0.1-0.3-0.2s-0.2-0.1-0.4-0.1s-0.2-0.1-0.3-0.1
		s-0.2,0-0.3,0c-0.1,0-0.3,0-0.4,0s-0.3,0.1-0.4,0.1s-0.2,0.2-0.2,0.3s-0.1,0.3-0.1,0.5s0.1,0.3,0.2,0.4s0.2,0.2,0.4,0.3
		s0.4,0.1,0.6,0.1s0.4,0.1,0.6,0.1s0.4,0.1,0.6,0.2s0.4,0.2,0.5,0.4s0.3,0.3,0.4,0.5s0.1,0.4,0.1,0.6c0,0.3-0.1,0.6-0.2,0.8
		s-0.3,0.4-0.5,0.6s-0.4,0.3-0.7,0.3s-0.6,0.1-0.9,0.1c-0.4,0-0.8,0-1.1-0.1s-0.6-0.2-0.8-0.3c-0.2-0.1-0.4-0.3-0.6-0.5l0.6-0.6
		c0.1,0.1,0.2,0.2,0.3,0.2s0.3,0.1,0.4,0.2s0.3,0.1,0.5,0.2s0.4,0.1,0.6,0.1c0.2,0,0.4,0,0.5-0.1s0.3-0.1,0.4-0.2s0.2-0.2,0.3-0.3
		s0.1-0.3,0.1-0.4c0-0.2,0-0.3-0.1-0.4s-0.1-0.2-0.2-0.2s-0.1-0.1-0.2-0.1s-0.1,0-0.2,0c0,0-0.1,0-0.2,0s-0.2,0-0.4-0.1
		s-0.3,0-0.4-0.1s-0.2,0-0.3-0.1c0,0-0.1,0-0.2,0s-0.2-0.1-0.3-0.1s-0.2-0.1-0.3-0.2s-0.2-0.2-0.3-0.3s-0.2-0.3-0.2-0.4
		s-0.1-0.4-0.1-0.6c0-0.3,0.1-0.6,0.2-0.9s0.3-0.4,0.5-0.6s0.4-0.3,0.7-0.3s0.5-0.1,0.7-0.1c0.3,0,0.5,0,0.7,0.1s0.4,0.1,0.6,0.2
		c0.2,0.1,0.3,0.2,0.5,0.3l0.5,0.3L81.8,129.9z"/>
	<path id="XMLID_310_" class="st12" d="M84,128.3h1.8v4.5c0,0.3,0,0.6-0.1,0.8s-0.2,0.4-0.3,0.5s-0.2,0.2-0.4,0.3s-0.3,0.1-0.4,0.2
		s-0.2,0.1-0.3,0.1s-0.1,0-0.2,0c-0.3,0-0.5,0-0.7-0.1s-0.4-0.1-0.5-0.2c-0.2-0.1-0.3-0.2-0.4-0.3l0.6-0.6c0,0,0.1,0.1,0.1,0.1
		s0.1,0.1,0.2,0.1s0.2,0.1,0.3,0.1s0.2,0.1,0.4,0.1c0.1,0,0.2,0,0.2,0s0.1-0.1,0.2-0.1s0.1-0.1,0.1-0.2s0.1-0.1,0.1-0.2
		c0.1-0.1,0.1-0.3,0.1-0.5v-3.7H84V128.3z"/>
	<path id="XMLID_312_" class="st12" d="M89.3,128.2c0.1,0,0.3,0,0.5,0.1s0.4,0.1,0.6,0.2s0.4,0.2,0.5,0.4s0.3,0.4,0.4,0.7
		s0.2,0.6,0.2,1v3.9h-0.9v-1.7c0-0.1-0.1-0.2-0.2-0.3s-0.2-0.2-0.3-0.3c-0.1-0.1-0.2-0.1-0.3-0.2s-0.3-0.1-0.4-0.1
		c-0.1,0-0.2,0-0.3,0s-0.2,0-0.3,0.1v-1c0.2,0,0.4-0.1,0.6-0.1c0.4,0,0.8,0.1,1.2,0.3v-0.6c0-0.3-0.1-0.5-0.2-0.8
		c-0.1-0.1-0.1-0.2-0.2-0.3s-0.2-0.2-0.3-0.2s-0.2-0.1-0.4-0.2s-0.3-0.1-0.5-0.1c-0.3,0-0.5,0.1-0.8,0.2c-0.1,0-0.2,0.1-0.3,0.2
		s-0.2,0.2-0.2,0.3s-0.1,0.2-0.2,0.4s-0.1,0.3-0.1,0.5h-0.9v-0.1c0-0.1,0-0.2,0-0.3s0-0.3,0.1-0.5s0.1-0.4,0.2-0.6s0.2-0.4,0.4-0.5
		s0.4-0.3,0.7-0.4s0.6-0.2,1-0.2H89C89,128.2,89.1,128.2,89.3,128.2z"/>
	<path id="XMLID_314_" class="st12" d="M89.7,125.6c0.2,0,0.3,0,0.4,0.1s0.2,0.1,0.3,0.2s0.2,0.2,0.2,0.3s0.1,0.3,0.1,0.4
		s0,0.3-0.1,0.4s-0.1,0.2-0.2,0.3s-0.2,0.2-0.3,0.2s-0.3,0.1-0.4,0.1s-0.3,0-0.4-0.1s-0.2-0.1-0.3-0.2s-0.2-0.2-0.2-0.3
		s-0.1-0.3-0.1-0.4s0-0.3,0.1-0.4s0.1-0.2,0.2-0.3s0.2-0.2,0.3-0.2S89.5,125.6,89.7,125.6z M89.7,127c0.1,0,0.2,0,0.3-0.1
		s0.1-0.2,0.1-0.3s0-0.2-0.1-0.3s-0.2-0.1-0.3-0.1s-0.2,0-0.3,0.1s-0.1,0.2-0.1,0.3s0,0.2,0.1,0.3S89.6,127,89.7,127z M93.7,128.2
		c0,0,0.1,0,0.2,0s0.2,0,0.3,0.1s0.3,0.1,0.4,0.2s0.3,0.2,0.4,0.3s0.2,0.3,0.3,0.5s0.1,0.5,0.1,0.8v4.5h-0.9v-4.5
		c0-0.2,0-0.3-0.1-0.5c0-0.1-0.1-0.1-0.1-0.2s-0.1-0.1-0.1-0.1s-0.1-0.1-0.2-0.1s-0.1,0-0.2,0c-0.2,0-0.3,0-0.4,0.1
		s-0.2,0.1-0.3,0.1s-0.1,0.1-0.2,0.1s-0.1,0.1-0.1,0.1l-0.6-0.7c0.1-0.1,0.2-0.2,0.4-0.3c0.1-0.1,0.3-0.2,0.5-0.2
		S93.4,128.2,93.7,128.2z"/>
	<path id="XMLID_318_" class="st12" d="M38.8,148.9V145c0-0.2,0-0.5-0.1-0.6s-0.2-0.3-0.3-0.4s-0.2-0.2-0.3-0.3s-0.2-0.1-0.4-0.1
		s-0.2,0-0.3,0s-0.1,0-0.2,0c-0.2,0-0.4,0-0.6,0.1s-0.3,0.2-0.4,0.3s-0.2,0.2-0.3,0.3s-0.1,0.2-0.1,0.3s0,0.2-0.1,0.3s0,0.1,0,0.1
		v3.9h-0.9v-6.3h0.9v0.9c0-0.1,0-0.2,0.1-0.3s0.1-0.2,0.2-0.2s0.2-0.1,0.2-0.2s0.2-0.1,0.3-0.1c0.2-0.1,0.5-0.1,0.7-0.1h0.2
		c0.4,0,0.7,0,0.9,0.1s0.5,0.2,0.6,0.4s0.3,0.3,0.4,0.5s0.2,0.4,0.2,0.5s0.1,0.3,0.1,0.5s0,0.2,0,0.3v0.1v3.9H38.8z"/>
	<path id="XMLID_320_" class="st12" d="M39.1,140.5v1.4h-3.5V141h2.6v-0.6H39.1z"/>
	<path id="XMLID_322_" class="st12" d="M39.3,137.7v1.8h-0.9v-1.8H39.3z"/>
	<path id="XMLID_324_" class="st12" d="M45.9,142.7v3.9v0.1c0,0.1,0,0.2,0,0.3s0,0.3-0.1,0.5s-0.1,0.4-0.2,0.5s-0.2,0.4-0.4,0.5
		s-0.4,0.3-0.6,0.4S44,149,43.6,149h-0.2c-0.3,0-0.5-0.1-0.7-0.1c-0.1,0-0.2-0.1-0.3-0.1s-0.2-0.1-0.2-0.2s-0.1-0.1-0.2-0.2
		s-0.1-0.2-0.1-0.3v0.9H41v-6.3h0.9v3.9c0,0,0,0.1,0,0.2s0,0.2,0.1,0.3s0.1,0.2,0.1,0.4s0.1,0.3,0.3,0.4s0.2,0.2,0.4,0.3
		s0.4,0.1,0.6,0.1c0,0,0.1,0,0.2,0s0.2,0,0.3-0.1s0.2-0.1,0.4-0.1s0.2-0.2,0.3-0.3s0.2-0.3,0.3-0.4s0.1-0.4,0.1-0.7v-3.9H45.9z"/>
	<path id="XMLID_326_" class="st12" d="M45.1,140.5v1.4h-3.5V141h2.6v-0.6H45.1z"/>
	<path id="XMLID_328_" class="st12" d="M50.6,144.3l-0.4-0.3c-0.1-0.1-0.2-0.1-0.3-0.2s-0.2-0.1-0.4-0.1s-0.2-0.1-0.3-0.1
		s-0.2,0-0.3,0c-0.1,0-0.3,0-0.4,0s-0.3,0.1-0.4,0.1s-0.2,0.2-0.2,0.3s-0.1,0.3-0.1,0.5s0.1,0.3,0.2,0.4s0.2,0.2,0.4,0.3
		s0.4,0.1,0.6,0.1s0.4,0.1,0.6,0.1s0.4,0.1,0.6,0.2s0.4,0.2,0.5,0.4s0.3,0.3,0.4,0.5s0.1,0.4,0.1,0.6c0,0.3-0.1,0.6-0.2,0.8
		s-0.3,0.4-0.5,0.6s-0.4,0.3-0.7,0.3s-0.6,0.1-0.9,0.1c-0.4,0-0.8,0-1.1-0.1s-0.6-0.2-0.8-0.3c-0.2-0.1-0.4-0.3-0.6-0.5l0.6-0.6
		c0.1,0.1,0.2,0.2,0.3,0.2s0.3,0.1,0.4,0.2s0.3,0.1,0.5,0.2s0.4,0.1,0.6,0.1c0.2,0,0.4,0,0.5-0.1s0.3-0.1,0.4-0.2s0.2-0.2,0.3-0.3
		s0.1-0.3,0.1-0.4c0-0.2,0-0.3-0.1-0.4s-0.1-0.2-0.2-0.2s-0.1-0.1-0.2-0.1s-0.1,0-0.2,0c0,0-0.1,0-0.2,0s-0.2,0-0.4-0.1
		s-0.3,0-0.4-0.1s-0.2,0-0.3-0.1c0,0-0.1,0-0.2,0s-0.2-0.1-0.3-0.1s-0.2-0.1-0.3-0.2s-0.2-0.2-0.3-0.3s-0.2-0.3-0.2-0.4
		s-0.1-0.4-0.1-0.6c0-0.3,0.1-0.6,0.2-0.9s0.3-0.4,0.5-0.6s0.4-0.3,0.7-0.3s0.5-0.1,0.7-0.1c0.3,0,0.5,0,0.7,0.1s0.4,0.1,0.6,0.2
		c0.2,0.1,0.3,0.2,0.5,0.3l0.5,0.3L50.6,144.3z"/>
	<path id="XMLID_330_" class="st12" d="M50.2,140.1v1.8h-0.9v-1.8H50.2z"/>
	<path id="XMLID_332_" class="st12" d="M53.9,142.6c0,0,0.1,0,0.3,0s0.3,0,0.4,0.1s0.3,0.1,0.5,0.2s0.3,0.2,0.5,0.4s0.3,0.4,0.3,0.6
		s0.1,0.5,0.1,0.9v2.1c0,0.4-0.1,0.8-0.3,1.1c-0.1,0.1-0.2,0.3-0.3,0.4s-0.2,0.2-0.4,0.3s-0.3,0.2-0.5,0.2s-0.4,0.1-0.7,0.1
		c-0.3,0-0.5,0-0.7-0.1s-0.4-0.1-0.5-0.3s-0.3-0.2-0.4-0.4s-0.2-0.3-0.2-0.4c0,0,0.1-0.1,0.2-0.1s0.1-0.1,0.2-0.1s0.2-0.1,0.2-0.1
		s0.1-0.1,0.2-0.1c0.1,0.2,0.2,0.3,0.3,0.4s0.2,0.2,0.4,0.2c0.1,0.1,0.3,0.1,0.4,0.1c0.2,0,0.4-0.1,0.6-0.2c0.1,0,0.1-0.1,0.2-0.2
		s0.1-0.1,0.2-0.2s0.1-0.2,0.1-0.3s0-0.2,0-0.4v-2.1c0-0.2-0.1-0.4-0.2-0.6c0-0.1-0.1-0.2-0.1-0.2s-0.1-0.1-0.2-0.2
		s-0.2-0.1-0.3-0.1s-0.2-0.1-0.4-0.1c-0.2,0-0.4,0-0.5,0.1s-0.3,0.1-0.4,0.2s-0.2,0.2-0.3,0.3s-0.2,0.3-0.2,0.5h-0.9
		c0-0.3,0.1-0.5,0.2-0.8s0.3-0.4,0.4-0.6s0.4-0.3,0.7-0.4S53.5,142.6,53.9,142.6L53.9,142.6L53.9,142.6z"/>
	<path id="XMLID_334_" class="st12" d="M62,142.7v3.9v0.1c0,0.1,0,0.2,0,0.3s0,0.3-0.1,0.5s-0.1,0.4-0.2,0.5s-0.2,0.4-0.4,0.5
		s-0.4,0.3-0.6,0.4s-0.5,0.1-0.9,0.1h-0.2c-0.3,0-0.5-0.1-0.7-0.1c-0.1,0-0.2-0.1-0.3-0.1s-0.2-0.1-0.2-0.2s-0.1-0.1-0.2-0.2
		s-0.1-0.2-0.1-0.3v0.9h-0.9v-6.3H58v3.9c0,0,0,0.1,0,0.2s0,0.2,0.1,0.3s0.1,0.2,0.1,0.4s0.1,0.3,0.3,0.4s0.2,0.2,0.4,0.3
		s0.4,0.1,0.6,0.1c0,0,0.1,0,0.2,0s0.2,0,0.3-0.1s0.2-0.1,0.4-0.1s0.2-0.2,0.3-0.3s0.2-0.3,0.3-0.4s0.1-0.4,0.1-0.7v-3.9H62z"/>
	<path id="XMLID_336_" class="st12" d="M63.1,148.9v-4.8c0.1-0.2,0.3-0.4,0.4-0.6s0.3-0.3,0.5-0.4s0.3-0.2,0.5-0.3s0.3-0.1,0.4-0.1
		s0.3-0.1,0.4-0.1s0.2,0,0.2,0h0.1c0.3,0,0.6,0,0.8,0.1s0.4,0.2,0.6,0.3s0.3,0.2,0.4,0.4s0.2,0.3,0.3,0.4s0.1,0.3,0.2,0.4
		s0.1,0.3,0.1,0.4s0,0.2,0,0.3s0,0.1,0,0.2v3.9h-0.9v-3.9c0-0.3,0-0.5-0.1-0.6s-0.2-0.3-0.3-0.4s-0.2-0.2-0.3-0.3s-0.2-0.1-0.4-0.1
		s-0.2,0-0.3,0s-0.1,0-0.2,0c-0.2,0-0.4,0-0.5,0.1s-0.3,0.1-0.4,0.2s-0.2,0.2-0.3,0.2s-0.1,0.2-0.2,0.3c-0.1,0.2-0.2,0.5-0.2,0.7
		v3.9H63.1z"/>
	<path id="XMLID_338_" class="st12" d="M66.2,140.6v0.5h2.4v0.9h-2.8c-0.1,0-0.2,0-0.2-0.1s-0.1-0.1-0.1-0.1c0-0.1-0.1-0.1-0.1-0.2
		v-0.9H66.2z"/>
	<path id="XMLID_340_" class="st12" d="M74.1,142.7v4.1c0,0.4-0.2,0.8-0.3,1.1c-0.1,0.1-0.2,0.3-0.3,0.4s-0.3,0.3-0.4,0.4
		s-0.4,0.2-0.6,0.3s-0.5,0.1-0.8,0.1c-0.3,0-0.6,0-0.8-0.1s-0.4-0.1-0.6-0.3s-0.3-0.2-0.4-0.4s-0.2-0.3-0.3-0.4
		c-0.2-0.3-0.3-0.7-0.3-1.1v-4.1h0.9v4.1c0,0.2,0,0.3,0.1,0.5s0.1,0.2,0.2,0.3s0.2,0.2,0.2,0.2s0.2,0.1,0.3,0.2
		c0.2,0.1,0.5,0.2,0.8,0.2c0.3,0,0.5-0.1,0.8-0.2c0.1,0,0.2-0.1,0.3-0.2s0.2-0.1,0.2-0.2s0.1-0.2,0.2-0.3s0.1-0.3,0.1-0.5v-4.1H74.1
		z"/>
	<path id="XMLID_342_" class="st12" d="M78.8,142.8c0.3,0.1,0.5,0.2,0.7,0.4s0.3,0.3,0.4,0.5s0.2,0.4,0.2,0.6s0.1,0.3,0.1,0.5
		s0,0.2,0,0.3v0.1v3.8h-0.9v-3.8c0-0.2,0-0.4-0.1-0.5s-0.1-0.3-0.2-0.4s-0.2-0.2-0.2-0.3s-0.2-0.1-0.3-0.2c-0.2-0.1-0.5-0.2-0.8-0.2
		c-0.2,0-0.3,0-0.5,0.1s-0.3,0.1-0.4,0.2s-0.2,0.2-0.3,0.2s-0.1,0.2-0.2,0.3c-0.1,0.2-0.2,0.5-0.2,0.8v0.6c0.4-0.2,0.8-0.3,1.2-0.3
		c0.2,0,0.4,0,0.6,0.1v1c-0.1,0-0.2-0.1-0.3-0.1s-0.2,0-0.3,0c-0.3,0-0.5,0.1-0.8,0.2c-0.1,0.1-0.2,0.2-0.3,0.3s-0.1,0.2-0.2,0.3
		v1.7h-0.9v-3.9c0-0.4,0.1-0.7,0.2-1s0.2-0.5,0.4-0.7s0.3-0.3,0.5-0.4s0.4-0.2,0.6-0.2s0.3-0.1,0.5-0.1s0.2,0,0.3,0h0.1
		C78.2,142.6,78.5,142.7,78.8,142.8z"/>
	<path id="XMLID_344_" class="st12" d="M79.1,150.4h-0.4v-0.9h0.9c0.1,0,0.2,0,0.3,0.1c0.1,0.1,0.1,0.2,0.1,0.3v1.8h-0.9V150.4z"/>
	<path id="XMLID_346_" class="st12" d="M90.3,142.7v6.3h-0.9v-0.9c0,0.1,0,0.2-0.1,0.3s-0.1,0.2-0.2,0.2s-0.2,0.1-0.2,0.2
		s-0.2,0.1-0.3,0.1c-0.2,0.1-0.5,0.1-0.7,0.1h-0.2c-0.4,0-0.7,0-0.9-0.1s-0.5-0.2-0.6-0.4s-0.3-0.3-0.4-0.5s-0.2-0.4-0.2-0.5
		s-0.1-0.3-0.1-0.5s0-0.3,0-0.3c0-0.1,0-0.1,0-0.1v-1.5c0-0.3,0-0.5-0.1-0.6s-0.2-0.3-0.3-0.4s-0.2-0.2-0.3-0.3s-0.2-0.1-0.4-0.1
		s-0.2,0-0.3,0s-0.1,0-0.2,0c-0.2,0-0.4,0-0.5,0.1s-0.3,0.1-0.4,0.2s-0.2,0.2-0.3,0.2s-0.1,0.2-0.2,0.3c-0.1,0.2-0.2,0.5-0.2,0.7
		v1.9c0,0.2,0.1,0.4,0.1,0.5c0,0.1,0.1,0.1,0.1,0.2s0.1,0.1,0.2,0.2s0.2,0.1,0.3,0.1s0.2,0,0.4,0h0.7v0.9h-1.3
		c-0.3,0-0.5-0.1-0.7-0.2c-0.1-0.1-0.2-0.1-0.3-0.2s-0.2-0.2-0.2-0.3s-0.1-0.3-0.2-0.5s-0.1-0.4-0.1-0.6V147v-2.9
		c0.1-0.2,0.3-0.4,0.4-0.6s0.3-0.3,0.5-0.4s0.3-0.2,0.5-0.3s0.3-0.1,0.4-0.1s0.3-0.1,0.4-0.1s0.2,0,0.2,0h0.1c0.4,0,0.7,0.1,1,0.2
		s0.5,0.3,0.7,0.4s0.3,0.4,0.4,0.6s0.2,0.4,0.2,0.6s0.1,0.3,0.1,0.5s0,0.2,0,0.2v1.5c0,0.3,0,0.5,0.1,0.7s0.2,0.3,0.3,0.4
		s0.2,0.2,0.3,0.3s0.2,0.1,0.4,0.1s0.2,0,0.3,0.1s0.1,0,0.2,0c0.2,0,0.4,0,0.6-0.1s0.3-0.2,0.4-0.3s0.2-0.2,0.3-0.4s0.1-0.3,0.1-0.4
		s0-0.2,0.1-0.3s0-0.1,0-0.2v-3.9H90.3z"/>
</g>
</svg>
