<?xml version="1.0" encoding="utf-8"?>
<!-- Generator: Adobe Illustrator 19.0.0, SVG Export Plug-In . SVG Version: 6.00 Build 0)  -->
<svg version="1.1" id="Layer_1" xmlns="http://www.w3.org/2000/svg" xmlns:xlink="http://www.w3.org/1999/xlink" x="0px" y="0px"
	 viewBox="0 0 166.5 167.4" style="enable-background:new 0 0 166.5 167.4;" xml:space="preserve">
<style type="text/css">
	.st0{fill:#A01C33;}
	.st1{fill:#FFFFFF;}
	.st2{fill:#CD202B;}
	.st3{fill:#F4C3C3;}
	.st4{fill:#E06969;}
	.st5{fill:#BB5050;}
	.st6{fill:#D89E5E;}
	.st7{fill:#404040;stroke:#404040;stroke-width:0.5;stroke-miterlimit:10;}
	.st8{fill:#404040;}
</style>
<rect id="XMLID_12635_" x="16.5" y="0" class="st0" width="150" height="147.8"/>
<g id="XMLID_12632_">
	<polygon id="XMLID_12634_" class="st1" points="19.2,167.2 19.2,144.2 0,167.4 	"/>
	<rect id="XMLID_12633_" x="16.5" y="94.7" class="st1" width="150" height="72.7"/>
</g>
<g id="XMLID_12624_">
	<circle id="XMLID_12628_" class="st2" cx="34" cy="106.6" r="4"/>
	<path id="XMLID_12627_" class="st2" d="M30,106.6h8.1v10.1C38.1,116.7,30,111.8,30,106.6z"/>
	<circle id="XMLID_12626_" class="st2" cx="42.1" cy="106.5" r="4"/>
	<path id="XMLID_12625_" class="st2" d="M46.1,106.5h-8.1v10.1C38.1,116.5,46.1,111.6,46.1,106.5z"/>
</g>
<g id="XMLID_12615_">
	<circle id="XMLID_12622_" class="st3" cx="101.9" cy="50.8" r="19.5"/>
	<g id="XMLID_12619_">
		<path id="XMLID_12621_" class="st4" d="M58.1,33l25.4,27.7h18.3V21.4C101.9,21.4,78.3,19.5,58.1,33z"/>
		<path id="XMLID_12620_" class="st5" d="M144.9,33l-25.4,27.7h-18.3V21.4C101.1,21.4,124.7,19.5,144.9,33z"/>
	</g>
	<rect id="XMLID_12618_" x="40.2" y="36.8" class="st6" width="49.6" height="40.3"/>
	<g id="XMLID_12489_">
		<path id="XMLID_12630_" class="st1" d="M48.3,57.1l-1.5-4.9h0c0.1,1,0.1,1.7,0.1,2v2.9h-1.2v-6.3h1.8l1.5,4.8h0l1.6-4.8h1.8v6.3
			h-1.2v-3c0-0.1,0-0.3,0-0.5c0-0.2,0-0.7,0.1-1.5h0l-1.6,4.9H48.3z"/>
		<path id="XMLID_12636_" class="st1" d="M57.8,57.1l-0.5-1.5H55l-0.5,1.5h-1.4l2.2-6.3H57l2.2,6.3H57.8z M57,54.5
			c-0.4-1.4-0.7-2.1-0.7-2.3s-0.1-0.3-0.1-0.4c-0.1,0.4-0.4,1.3-0.8,2.7H57z"/>
		<path id="XMLID_12639_" class="st1" d="M65.2,53.9c0,1-0.3,1.8-0.9,2.4c-0.6,0.5-1.4,0.8-2.5,0.8H60v-6.3h2c1,0,1.8,0.3,2.4,0.8
			C64.9,52.2,65.2,52.9,65.2,53.9z M63.8,53.9c0-1.3-0.6-2-1.8-2h-0.7V56h0.6C63.2,56,63.8,55.3,63.8,53.9z"/>
		<path id="XMLID_12642_" class="st1" d="M70.1,57.1h-3.6v-6.3h3.6v1.1h-2.3v1.4h2.1v1.1h-2.1V56h2.3V57.1z"/>
		<path id="XMLID_12645_" class="st1" d="M48,67.6h-2.9v-0.8l0.8-0.4v-4.1l-0.8-0.4v-0.8H48v0.8l-0.8,0.4v4.1l0.8,0.4V67.6z"/>
		<path id="XMLID_12648_" class="st1" d="M54.6,67.6h-1.7l-2.7-4.7h0c0.1,0.8,0.1,1.4,0.1,1.8v3h-1.2v-6.3h1.7l2.7,4.7h0
			c0-0.8-0.1-1.4-0.1-1.7v-3h1.2V67.6z"/>
		<path id="XMLID_12650_" class="st1" d="M57.8,69.5c-0.3,0-0.6,0-0.8-0.1v-1.1c0.2,0.1,0.4,0.1,0.6,0.1c0.3,0,0.5-0.1,0.6-0.3
			c0.1-0.2,0.2-0.5,0.2-0.9v-5.9h1.3v5.9c0,0.7-0.2,1.3-0.5,1.7C59,69.3,58.5,69.5,57.8,69.5z"/>
		<path id="XMLID_12652_" class="st1" d="M65.2,67.6l-0.5-1.5h-2.3L62,67.6h-1.4l2.2-6.3h1.6l2.2,6.3H65.2z M64.5,65
			c-0.4-1.4-0.7-2.1-0.7-2.3s-0.1-0.3-0.1-0.4c-0.1,0.4-0.4,1.3-0.8,2.7H64.5z"/>
		<path id="XMLID_12655_" class="st1" d="M71.8,63.3c0,0.7-0.2,1.2-0.6,1.5c-0.4,0.4-1,0.5-1.8,0.5h-0.6v2.2h-1.3v-6.3h2
			c0.8,0,1.3,0.2,1.7,0.5C71.6,62.2,71.8,62.7,71.8,63.3z M68.8,64.3h0.4c0.4,0,0.7-0.1,0.9-0.2c0.2-0.2,0.3-0.4,0.3-0.7
			c0-0.3-0.1-0.5-0.3-0.7c-0.2-0.1-0.4-0.2-0.8-0.2h-0.6V64.3z"/>
		<path id="XMLID_12658_" class="st1" d="M76.6,67.6l-0.5-1.5h-2.3l-0.5,1.5H72l2.2-6.3h1.6l2.2,6.3H76.6z M75.8,65
			c-0.4-1.4-0.7-2.1-0.7-2.3c-0.1-0.2-0.1-0.3-0.1-0.4c-0.1,0.4-0.4,1.3-0.8,2.7H75.8z"/>
		<path id="XMLID_12661_" class="st1" d="M84.4,67.6h-1.7L80,62.9h0c0.1,0.8,0.1,1.4,0.1,1.8v3h-1.2v-6.3h1.7l2.7,4.7h0
			c0-0.8-0.1-1.4-0.1-1.7v-3h1.2V67.6z"/>
	</g>
</g>
<g id="XMLID_35_">
	<g id="XMLID_844_">
		<path id="XMLID_917_" class="st7" d="M59.7,106.2c0,0,0,0.1-0.1,0.1s-0.1,0.1-0.1,0.2s-0.1,0.1-0.2,0.2s-0.2,0.1-0.2,0.2
			s-0.1,0.1-0.2,0.2c-0.1,0-0.1,0.1-0.2,0.1c0.1,0.2,0.3,0.4,0.3,0.6c0.1,0.2,0.1,0.4,0.2,0.6s0.1,0.3,0.1,0.5c0,0.1,0,0.2,0,0.3
			v0.1v4.5h-1.1v-2.2c0-0.2,0-0.4-0.1-0.5s-0.2-0.3-0.4-0.4s-0.3-0.2-0.5-0.2c-0.2-0.1-0.3-0.1-0.5-0.1s-0.3,0-0.5-0.1
			c0,0-0.1,0-0.1,0s-0.2,0-0.3,0s-0.2,0.1-0.4,0.1s-0.3,0.1-0.4,0.2s-0.2,0.2-0.3,0.3c-0.1,0.1-0.2,0.3-0.2,0.5c0,0,0,0.1,0,0.1
			s0,0.1,0,0.1c0,0.2,0,0.3,0.1,0.4s0.2,0.2,0.3,0.3s0.3,0.1,0.4,0.2c0.1,0,0.3,0.1,0.4,0.1s0.3,0,0.4,0c0.1,0,0.2,0,0.3,0h0.1v1
			h-1.2c-0.3,0-0.5-0.1-0.7-0.2s-0.4-0.3-0.6-0.4c-0.2-0.2-0.3-0.4-0.4-0.7c-0.1-0.2-0.1-0.5-0.1-0.8c0-0.3,0.1-0.5,0.2-0.8
			s0.3-0.5,0.6-0.8c0.2-0.2,0.3-0.3,0.5-0.4s0.4-0.2,0.5-0.3s0.4-0.1,0.5-0.1s0.3,0,0.5,0c0.3,0,0.5,0,0.7,0.1
			c0.2,0,0.4,0.1,0.6,0.2c0.2,0.1,0.4,0.1,0.5,0.2v-0.4c0-0.2,0-0.4-0.1-0.6s-0.1-0.3-0.2-0.5c-0.1-0.1-0.2-0.2-0.3-0.3
			c-0.1-0.1-0.2-0.2-0.3-0.2c-0.3-0.1-0.6-0.2-0.9-0.2c-0.3,0-0.5,0.1-0.8,0.2s-0.4,0.2-0.5,0.4s-0.2,0.3-0.3,0.5s-0.1,0.3-0.2,0.4
			h-1.1c0-0.4,0.1-0.7,0.2-1s0.3-0.5,0.5-0.7s0.4-0.3,0.6-0.4s0.4-0.2,0.6-0.2s0.4-0.1,0.5-0.1s0.3,0,0.3,0h0.1c0.3,0,0.7,0,1,0.1
			c0.2,0,0.4-0.1,0.6-0.2c0.2-0.1,0.3-0.2,0.5-0.3s0.3-0.3,0.4-0.5l0.4,0.4c0,0,0.1,0.1,0.1,0.1s0.1,0.1,0.1,0.1
			C59.6,106.1,59.6,106.2,59.7,106.2C59.7,106.2,59.7,106.2,59.7,106.2z"/>
		<path id="XMLID_915_" class="st7" d="M58.9,104.4v1h-4.1v-1H58.9z"/>
		<path id="XMLID_913_" class="st7" d="M61.7,106.3v4.6c0,0.3,0,0.6,0.1,0.8c0.1,0.2,0.2,0.4,0.3,0.5c0.1,0.1,0.3,0.2,0.4,0.3
			s0.3,0.1,0.4,0.2s0.2,0.1,0.3,0.1c0.1,0,0.2,0,0.2,0c0.3,0,0.5,0,0.7-0.1s0.4-0.2,0.5-0.3s0.2-0.3,0.3-0.4
			c0.1-0.2,0.1-0.3,0.2-0.4s0.1-0.3,0.1-0.4s0-0.2,0-0.2v-4.6h1.1v7.3h-1.1v-1c0,0.1,0,0.3-0.1,0.4s-0.1,0.2-0.2,0.3
			s-0.2,0.1-0.3,0.2s-0.2,0.1-0.3,0.1c-0.3,0.1-0.5,0.1-0.8,0.2h-0.3c-0.4,0-0.8-0.1-1.1-0.2c-0.3-0.1-0.5-0.3-0.7-0.4
			c-0.2-0.2-0.3-0.4-0.5-0.6s-0.2-0.4-0.2-0.6c-0.1-0.2-0.1-0.4-0.1-0.6s0-0.3,0-0.4v-0.1v-4.6H61.7z"/>
		<path id="XMLID_911_" class="st7" d="M71.8,106.5c0.3,0.1,0.6,0.3,0.8,0.5s0.4,0.4,0.5,0.6c0.1,0.2,0.2,0.4,0.3,0.7
			s0.1,0.4,0.1,0.6s0,0.3,0,0.4v0.1v4.5h-1.1v-4.5c0-0.2,0-0.4-0.1-0.6s-0.1-0.3-0.2-0.5c-0.1-0.1-0.2-0.2-0.3-0.3
			c-0.1-0.1-0.2-0.2-0.3-0.2c-0.3-0.1-0.6-0.2-0.9-0.2c-0.2,0-0.4,0-0.6,0.1c-0.2,0.1-0.3,0.1-0.4,0.2s-0.2,0.2-0.3,0.3
			s-0.2,0.2-0.2,0.3c-0.1,0.3-0.2,0.6-0.3,0.9v0.7c0.4-0.3,0.9-0.4,1.4-0.4c0.2,0,0.5,0,0.7,0.1v1.1c-0.1,0-0.2-0.1-0.3-0.1
			c-0.1,0-0.2,0-0.4,0c-0.3,0-0.6,0.1-0.9,0.2c-0.1,0.1-0.2,0.2-0.3,0.3c-0.1,0.1-0.2,0.3-0.2,0.4v2h-1.1v-4.5
			c0-0.5,0.1-0.8,0.2-1.2s0.3-0.6,0.5-0.8s0.4-0.4,0.6-0.5c0.2-0.1,0.4-0.2,0.6-0.3c0.2-0.1,0.4-0.1,0.6-0.1c0.2,0,0.3,0,0.4,0h0.1
			C71.1,106.3,71.5,106.3,71.8,106.5z"/>
		<path id="XMLID_909_" class="st7" d="M73.5,104.4v1h-3v-1.4h-0.5v-1H71c0.1,0,0.2,0,0.2,0.1c0.1,0,0.1,0.1,0.2,0.1
			s0.1,0.2,0.1,0.3v0.9H73.5z"/>
		<path id="XMLID_907_" class="st7" d="M75.9,106.3c0,0,0.1,0,0.2,0c0.1,0,0.2,0,0.4,0.1s0.3,0.1,0.5,0.2s0.3,0.2,0.4,0.4
			c0.1,0.2,0.2,0.4,0.3,0.6s0.1,0.5,0.1,0.9v5.2h-1.1v-5.2c0-0.2,0-0.4-0.1-0.5c0-0.1-0.1-0.1-0.1-0.2s-0.1-0.1-0.2-0.2
			s-0.1-0.1-0.2-0.1c-0.1,0-0.2,0-0.3,0c-0.2,0-0.3,0-0.5,0.1c-0.1,0-0.2,0.1-0.3,0.1s-0.1,0.1-0.2,0.2s-0.1,0.1-0.1,0.1l-0.8-0.8
			c0.1-0.1,0.3-0.3,0.4-0.4c0.2-0.1,0.3-0.2,0.6-0.3S75.6,106.3,75.9,106.3z"/>
		<path id="XMLID_905_" class="st7" d="M83.9,106.5c0.3,0.1,0.6,0.3,0.8,0.5s0.4,0.4,0.5,0.6s0.2,0.4,0.3,0.7s0.1,0.4,0.1,0.5
			c0,0.2,0,0.2,0,0.3v4.5h-1.1v-4.5c0-0.3,0-0.5-0.1-0.7c-0.1-0.2-0.2-0.4-0.3-0.5s-0.3-0.2-0.4-0.3s-0.3-0.1-0.4-0.2
			s-0.2-0.1-0.3-0.1c-0.1,0-0.2,0-0.2,0c-0.2,0-0.4,0-0.6,0.1s-0.3,0.1-0.4,0.2c-0.1,0.1-0.2,0.2-0.3,0.3s-0.2,0.2-0.2,0.3
			c-0.1,0.3-0.2,0.5-0.2,0.9v4.5h-1.8v-1h0.7v-4.6c0.1-0.3,0.3-0.5,0.5-0.7c0.2-0.2,0.4-0.4,0.6-0.5c0.2-0.1,0.4-0.2,0.6-0.3
			s0.4-0.1,0.5-0.2s0.3-0.1,0.4-0.1s0.2,0,0.3,0h0.1C83.1,106.3,83.5,106.4,83.9,106.5z"/>
		<path id="XMLID_903_" class="st7" d="M88,106.3c0,0,0.1,0,0.2,0c0.1,0,0.2,0,0.4,0.1s0.3,0.1,0.5,0.2s0.3,0.2,0.4,0.4
			c0.1,0.2,0.2,0.4,0.3,0.6s0.1,0.5,0.1,0.9v5.2h-1.1v-5.2c0-0.2,0-0.4-0.1-0.5c0-0.1-0.1-0.1-0.1-0.2s-0.1-0.1-0.2-0.2
			s-0.1-0.1-0.2-0.1c-0.1,0-0.2,0-0.3,0c-0.2,0-0.3,0-0.5,0.1c-0.1,0-0.2,0.1-0.3,0.1s-0.1,0.1-0.2,0.2s-0.1,0.1-0.1,0.1l-0.8-0.8
			c0.1-0.1,0.3-0.3,0.4-0.4c0.2-0.1,0.3-0.2,0.6-0.3S87.7,106.3,88,106.3z"/>
		<path id="XMLID_901_" class="st7" d="M97,106.3v5.3c0,0.3,0,0.6-0.1,0.8s-0.2,0.4-0.3,0.6s-0.3,0.3-0.5,0.4s-0.3,0.2-0.5,0.2
			s-0.3,0.1-0.4,0.1s-0.2,0-0.3,0h-1.4c-0.4,0-0.7,0-0.9-0.1s-0.5-0.2-0.6-0.3s-0.3-0.3-0.4-0.4s-0.2-0.3-0.2-0.4
			c-0.1-0.1-0.1-0.3-0.1-0.4c0-0.1,0-0.2,0-0.3c0-0.3,0.1-0.5,0.2-0.7s0.2-0.4,0.4-0.5c0.1-0.1,0.3-0.2,0.4-0.3s0.2-0.1,0.2-0.1
			c-0.1,0-0.3-0.1-0.4-0.1c-0.1-0.1-0.2-0.1-0.3-0.2s-0.2-0.2-0.2-0.3c-0.1-0.1-0.1-0.2-0.1-0.3c-0.1-0.2-0.1-0.5-0.2-0.7
			c0-0.3,0-0.5,0.1-0.7s0.1-0.4,0.2-0.5c0.1-0.2,0.2-0.3,0.3-0.4c0.1-0.1,0.2-0.2,0.3-0.3c0.3-0.2,0.6-0.2,0.9-0.3h1.5v1h-0.9
			c-0.2,0-0.3,0-0.4,0s-0.2,0.1-0.3,0.1s-0.2,0.1-0.2,0.2s-0.1,0.1-0.2,0.2c-0.1,0.2-0.1,0.3-0.2,0.5c0,0.2,0,0.3,0.1,0.5
			s0.1,0.2,0.2,0.3s0.2,0.1,0.3,0.2c0.1,0,0.2,0.1,0.3,0.1s0.2,0,0.2,0s0.1,0,0.1,0h0.9v1h-0.9c-0.2,0-0.4,0-0.5,0.1
			c-0.1,0-0.2,0.1-0.3,0.2s-0.2,0.1-0.2,0.2s-0.1,0.2-0.1,0.2s0,0.1,0,0.2s0,0.1,0,0.1c0,0.2,0,0.3,0.1,0.5s0.1,0.2,0.2,0.3
			s0.2,0.1,0.3,0.2s0.2,0.1,0.3,0.1s0.2,0,0.2,0c0.1,0,0.1,0,0.1,0h0h1.3c0.3,0,0.5-0.1,0.6-0.2s0.3-0.2,0.3-0.4
			c0.1-0.2,0.1-0.3,0.2-0.5v-5.3H97z"/>
		<path id="XMLID_899_" class="st7" d="M98.9,113.7v-7.4c0-0.2,0-0.3,0.1-0.5c0-0.1,0.1-0.3,0.2-0.4c0.1-0.1,0.2-0.3,0.3-0.4
			c0.1-0.1,0.2-0.2,0.3-0.3s0.2-0.2,0.3-0.3s0.1-0.2,0.2-0.3s0.1-0.2,0.1-0.2c0-0.1,0-0.1,0-0.2c0-0.2,0-0.3-0.1-0.5
			s-0.1-0.3-0.3-0.3c-0.1-0.1-0.2-0.2-0.4-0.2s-0.3-0.1-0.4-0.1c-0.3,0-0.5,0-0.7,0.1s-0.3,0.1-0.3,0.2c-0.1,0.1-0.1,0.2-0.1,0.3H97
			c0,0,0,0,0,0v-0.1c0-0.1,0-0.1,0-0.2s0-0.2,0.1-0.3s0.1-0.2,0.2-0.3s0.2-0.2,0.4-0.3s0.3-0.2,0.6-0.2c0.2-0.1,0.5-0.1,0.8-0.1
			c0.3,0,0.6,0,0.9,0.1s0.4,0.2,0.6,0.3s0.3,0.3,0.4,0.4c0.1,0.2,0.2,0.3,0.2,0.5s0.1,0.3,0.1,0.4c0,0.1,0,0.2,0,0.3v0.1
			c0,0.1,0,0.2,0,0.3s-0.1,0.2-0.1,0.3s-0.1,0.3-0.2,0.4s-0.2,0.3-0.3,0.5c-0.1,0.2-0.2,0.3-0.3,0.4s-0.1,0.2-0.2,0.3
			c0,0.1-0.1,0.2-0.1,0.3v7.4H98.9z"/>
		<path id="XMLID_897_" class="st7" d="M102.9,106.3v4.6c0,0.3,0,0.6,0.1,0.8c0.1,0.2,0.2,0.4,0.3,0.5c0.1,0.1,0.3,0.2,0.4,0.3
			s0.3,0.1,0.4,0.2s0.2,0.1,0.3,0.1c0.1,0,0.2,0,0.2,0c0.3,0,0.5,0,0.7-0.1s0.4-0.2,0.5-0.3s0.2-0.3,0.3-0.4
			c0.1-0.2,0.1-0.3,0.2-0.4s0.1-0.3,0.1-0.4s0-0.2,0-0.2v-4.6h1.1v7.3h-1.1v-1c0,0.1,0,0.3-0.1,0.4s-0.1,0.2-0.2,0.3
			s-0.2,0.1-0.3,0.2s-0.2,0.1-0.3,0.1c-0.3,0.1-0.5,0.1-0.8,0.2h-0.3c-0.4,0-0.8-0.1-1.1-0.2c-0.3-0.1-0.5-0.3-0.7-0.4
			c-0.2-0.2-0.3-0.4-0.5-0.6s-0.2-0.4-0.2-0.6c-0.1-0.2-0.1-0.4-0.1-0.6s0-0.3,0-0.4v-0.1v-4.6H102.9z"/>
		<path id="XMLID_895_" class="st7" d="M114.6,103.6v7.5c0,0.5-0.2,0.9-0.4,1.3c-0.1,0.2-0.2,0.3-0.3,0.5c-0.1,0.2-0.3,0.3-0.5,0.4
			s-0.4,0.2-0.7,0.3s-0.6,0.1-0.9,0.1c-0.4,0-0.7,0-0.9-0.1s-0.5-0.2-0.7-0.3s-0.4-0.3-0.5-0.4c-0.1-0.2-0.3-0.3-0.3-0.5
			c-0.2-0.4-0.3-0.8-0.4-1.3v-4.8h1.1v4.8c0,0.2,0,0.4,0.1,0.5s0.1,0.3,0.2,0.4c0.1,0.1,0.2,0.2,0.3,0.3c0.1,0.1,0.2,0.1,0.3,0.2
			c0.3,0.1,0.6,0.2,0.9,0.2c0.3,0,0.6-0.1,0.9-0.2c0.1,0,0.2-0.1,0.3-0.2c0.1-0.1,0.2-0.2,0.3-0.3c0.1-0.1,0.2-0.2,0.2-0.4
			s0.1-0.3,0.1-0.5v-7.5H114.6z"/>
		<path id="XMLID_893_" class="st7" d="M120.1,108.2l-0.5-0.3c-0.1-0.1-0.2-0.1-0.4-0.2s-0.3-0.1-0.4-0.2s-0.3-0.1-0.4-0.1
			s-0.2,0-0.3,0c-0.2,0-0.3,0-0.5,0s-0.3,0.1-0.4,0.2s-0.2,0.2-0.3,0.3c-0.1,0.1-0.1,0.3-0.1,0.5s0.1,0.4,0.2,0.5
			c0.1,0.1,0.3,0.2,0.5,0.3c0.2,0.1,0.4,0.1,0.7,0.2s0.5,0.1,0.7,0.1s0.5,0.1,0.7,0.2s0.4,0.3,0.6,0.4s0.3,0.4,0.4,0.6
			s0.2,0.5,0.2,0.7c0,0.4-0.1,0.7-0.2,1s-0.3,0.5-0.6,0.7c-0.2,0.2-0.5,0.3-0.8,0.4c-0.3,0.1-0.7,0.1-1,0.1c-0.5,0-0.9-0.1-1.3-0.2
			c-0.4-0.1-0.6-0.2-0.9-0.4c-0.3-0.2-0.5-0.3-0.7-0.5l0.7-0.7c0.1,0.1,0.2,0.2,0.3,0.3s0.3,0.2,0.5,0.2s0.4,0.1,0.6,0.2
			s0.4,0.1,0.7,0.1c0.2,0,0.4,0,0.6-0.1s0.3-0.1,0.5-0.2s0.2-0.2,0.3-0.4s0.1-0.3,0.1-0.5c0-0.2,0-0.3-0.1-0.4s-0.1-0.2-0.2-0.3
			c-0.1-0.1-0.2-0.1-0.2-0.1s-0.1,0-0.2-0.1c0,0-0.1,0-0.2,0s-0.3,0-0.4-0.1s-0.3-0.1-0.5-0.1s-0.3-0.1-0.4-0.1
			c-0.1,0-0.1,0-0.2-0.1s-0.2-0.1-0.3-0.1c-0.1-0.1-0.2-0.1-0.4-0.2c-0.1-0.1-0.2-0.2-0.3-0.4s-0.2-0.3-0.2-0.5s-0.1-0.4-0.1-0.7
			c0-0.4,0.1-0.7,0.2-1s0.3-0.5,0.6-0.7s0.5-0.3,0.8-0.4s0.6-0.1,0.9-0.1c0.3,0,0.6,0,0.8,0.1c0.2,0.1,0.5,0.1,0.6,0.2
			c0.2,0.1,0.4,0.2,0.6,0.3l0.6,0.4L120.1,108.2z"/>
		<path id="XMLID_890_" class="st7" d="M122.5,107v0.5h1.9v1H122c-0.1,0-0.2,0-0.3-0.1s-0.1-0.1-0.1-0.2c0-0.1-0.1-0.2-0.1-0.2V107
			H122.5z M122.5,111.4v0.5h1.9v1H122c-0.1,0-0.2,0-0.3-0.1s-0.1-0.1-0.1-0.2c0-0.1-0.1-0.2-0.1-0.2v-1.1H122.5z"/>
		<path id="XMLID_888_" class="st7" d="M126.7,113.7h-1.1v-7.3h1.1V113.7z"/>
		<path id="XMLID_886_" class="st7" d="M132.6,113.7v-4.6c0-0.3,0-0.5-0.1-0.7c-0.1-0.2-0.2-0.4-0.3-0.5c-0.1-0.1-0.3-0.2-0.4-0.3
			s-0.3-0.1-0.4-0.2s-0.2-0.1-0.3-0.1c-0.1,0-0.2,0-0.2,0c-0.3,0-0.5,0-0.7,0.1s-0.4,0.2-0.5,0.3s-0.2,0.3-0.3,0.4
			c-0.1,0.1-0.1,0.3-0.2,0.4s-0.1,0.2-0.1,0.3s0,0.1,0,0.2v4.6h-1.1v-7.3h1.1v1c0-0.1,0-0.2,0.1-0.4s0.1-0.2,0.2-0.3
			s0.2-0.1,0.3-0.2s0.2-0.1,0.3-0.1c0.3-0.1,0.5-0.1,0.8-0.1h0.3c0.4,0,0.8,0.1,1.1,0.2c0.3,0.1,0.5,0.3,0.7,0.4s0.3,0.4,0.5,0.6
			c0.1,0.2,0.2,0.4,0.2,0.6s0.1,0.4,0.1,0.6s0,0.3,0,0.4v0.1v4.6H132.6z"/>
		<path id="XMLID_884_" class="st7" d="M141.3,106.2c0,0,0,0.1-0.1,0.2s-0.2,0.2-0.3,0.3c-0.1,0.1-0.2,0.2-0.3,0.3s-0.2,0.1-0.3,0.2
			c0.2,0.2,0.3,0.4,0.4,0.6s0.2,0.4,0.2,0.6s0.1,0.3,0.1,0.5c0,0.1,0,0.2,0,0.3v0.1v4.5h-1.1v-4.5c0-0.2,0-0.4-0.1-0.6
			s-0.1-0.3-0.2-0.5c-0.1-0.1-0.2-0.2-0.3-0.3c-0.1-0.1-0.2-0.2-0.3-0.2c-0.3-0.1-0.6-0.2-0.9-0.2c-0.2,0-0.4,0-0.6,0.1
			c-0.2,0.1-0.3,0.1-0.4,0.2s-0.2,0.2-0.3,0.3s-0.2,0.2-0.2,0.3c-0.1,0.3-0.2,0.6-0.3,0.9v0.7c0.2-0.1,0.4-0.2,0.7-0.3
			c0.2-0.1,0.5-0.1,0.7-0.1c0.2,0,0.5,0,0.7,0.1v1.1c-0.1,0-0.2-0.1-0.3-0.1c-0.1,0-0.2,0-0.4,0c-0.3,0-0.6,0.1-0.9,0.2
			c-0.1,0.1-0.2,0.2-0.3,0.3c-0.1,0.1-0.2,0.3-0.2,0.4v2h-1.1v-4.5c0-0.5,0.1-0.8,0.2-1.2s0.3-0.6,0.5-0.8s0.4-0.4,0.6-0.5
			c0.2-0.1,0.4-0.2,0.6-0.3c0.2-0.1,0.4-0.1,0.6-0.1c0.2,0,0.3,0,0.4,0h0.1c0.2,0,0.4,0,0.6,0s0.3,0.1,0.5,0.1c0,0,0.1,0,0.2,0
			c0.1,0,0.2-0.1,0.4-0.1c0.1-0.1,0.3-0.2,0.5-0.3s0.3-0.3,0.4-0.5c0.1,0.1,0.3,0.2,0.4,0.4c0,0,0.1,0.1,0.1,0.1s0.1,0.1,0.1,0.1
			C141.1,106.1,141.2,106.2,141.3,106.2C141.2,106.2,141.2,106.2,141.3,106.2z"/>
		<path id="XMLID_882_" class="st8" d="M57,123.1c0.3,0,0.7,0,0.9,0.1s0.5,0.2,0.7,0.3s0.4,0.3,0.5,0.4s0.3,0.3,0.3,0.5
			c0.2,0.4,0.3,0.8,0.4,1.3v4.8h-1.1v-1c0,0.1,0,0.3-0.1,0.4s-0.1,0.2-0.2,0.3s-0.2,0.1-0.3,0.2s-0.2,0.1-0.3,0.1
			c-0.3,0.1-0.5,0.1-0.8,0.2h-0.3c-0.4,0-0.8-0.1-1.1-0.2c-0.3-0.1-0.5-0.3-0.7-0.4c-0.2-0.2-0.3-0.4-0.5-0.6s-0.2-0.4-0.2-0.7
			c-0.1-0.2-0.1-0.4-0.1-0.6c0-0.2,0-0.3,0-0.4h-0.4v-1h1.4v1.1c0,0.3,0,0.6,0.1,0.8c0.1,0.2,0.2,0.4,0.3,0.5
			c0.1,0.1,0.3,0.2,0.4,0.3s0.3,0.1,0.4,0.2s0.2,0.1,0.3,0.1c0.1,0,0.2,0,0.2,0c0.3,0,0.5,0,0.7-0.1s0.4-0.2,0.5-0.3
			s0.2-0.3,0.3-0.4c0.1-0.2,0.1-0.3,0.2-0.4s0.1-0.3,0.1-0.4s0-0.2,0-0.2v-2c0-0.2,0-0.4-0.1-0.5s-0.1-0.3-0.2-0.4
			c-0.1-0.1-0.2-0.2-0.3-0.3c-0.1-0.1-0.2-0.1-0.3-0.2c-0.3-0.1-0.6-0.2-0.9-0.2h-0.1c-0.1,0-0.2,0-0.3,0s-0.3,0.1-0.5,0.2
			c-0.2,0.1-0.3,0.2-0.5,0.3s-0.3,0.3-0.3,0.6h-1.1c0-0.1,0.1-0.3,0.1-0.4s0.1-0.3,0.2-0.5s0.2-0.3,0.4-0.5c0.1-0.2,0.3-0.3,0.5-0.4
			s0.4-0.2,0.7-0.3S56.6,123.1,57,123.1z"/>
		<path id="XMLID_880_" class="st8" d="M57.8,120.7v0.5h2.7v1h-3.3c-0.1,0-0.2,0-0.3-0.1s-0.1-0.1-0.1-0.2c0-0.1-0.1-0.2-0.1-0.2
			v-1.1H57.8z"/>
		<path id="XMLID_878_" class="st8" d="M62.5,123.1v4.6c0,0.3,0,0.6,0.1,0.8c0.1,0.2,0.2,0.4,0.3,0.5c0.1,0.1,0.3,0.2,0.4,0.3
			s0.3,0.1,0.4,0.2s0.2,0.1,0.3,0.1c0.1,0,0.2,0,0.2,0c0.3,0,0.5,0,0.7-0.1s0.4-0.2,0.5-0.3s0.2-0.3,0.3-0.4
			c0.1-0.2,0.1-0.3,0.2-0.4s0.1-0.3,0.1-0.4s0-0.2,0-0.2v-4.6H67v7.3H66v-1c0,0.1,0,0.3-0.1,0.4s-0.1,0.2-0.2,0.3s-0.2,0.1-0.3,0.2
			s-0.2,0.1-0.3,0.1c-0.3,0.1-0.5,0.1-0.8,0.2H64c-0.4,0-0.8-0.1-1.1-0.2c-0.3-0.1-0.5-0.3-0.7-0.4c-0.2-0.2-0.3-0.4-0.5-0.6
			s-0.2-0.4-0.2-0.6c-0.1-0.2-0.1-0.4-0.1-0.6c0-0.2,0-0.3,0-0.4v-0.1v-4.6H62.5z"/>
		<path id="XMLID_876_" class="st8" d="M72.6,125l-0.5-0.3c-0.1-0.1-0.2-0.1-0.4-0.2s-0.3-0.1-0.4-0.2s-0.3-0.1-0.4-0.1
			s-0.2,0-0.3,0c-0.2,0-0.3,0-0.5,0s-0.3,0.1-0.4,0.2s-0.2,0.2-0.3,0.3c-0.1,0.1-0.1,0.3-0.1,0.5s0.1,0.4,0.2,0.5
			c0.1,0.1,0.3,0.2,0.5,0.3c0.2,0.1,0.4,0.1,0.7,0.2s0.5,0.1,0.7,0.1s0.5,0.1,0.7,0.2s0.4,0.3,0.6,0.4s0.3,0.4,0.4,0.6
			s0.2,0.5,0.2,0.7c0,0.4-0.1,0.7-0.2,1s-0.3,0.5-0.6,0.7c-0.2,0.2-0.5,0.3-0.8,0.4c-0.3,0.1-0.7,0.1-1,0.1c-0.5,0-0.9-0.1-1.3-0.2
			c-0.4-0.1-0.6-0.2-0.9-0.4c-0.3-0.2-0.5-0.3-0.7-0.5l0.7-0.7c0.1,0.1,0.2,0.2,0.3,0.3s0.3,0.2,0.5,0.2s0.4,0.1,0.6,0.2
			s0.4,0.1,0.7,0.1c0.2,0,0.4,0,0.6-0.1s0.3-0.1,0.5-0.2s0.2-0.2,0.3-0.4s0.1-0.3,0.1-0.5c0-0.2,0-0.3-0.1-0.4
			c-0.1-0.1-0.1-0.2-0.2-0.3c-0.1-0.1-0.2-0.1-0.2-0.1s-0.1,0-0.2-0.1c0,0-0.1,0-0.2,0s-0.3,0-0.4-0.1s-0.3-0.1-0.5-0.1
			s-0.3-0.1-0.4-0.1c-0.1,0-0.1,0-0.2-0.1s-0.2-0.1-0.3-0.1c-0.1-0.1-0.2-0.1-0.4-0.2c-0.1-0.1-0.2-0.2-0.3-0.4s-0.2-0.3-0.2-0.5
			s-0.1-0.4-0.1-0.7c0-0.4,0.1-0.7,0.2-1s0.3-0.5,0.6-0.7s0.5-0.3,0.8-0.4s0.6-0.1,0.9-0.1c0.3,0,0.6,0,0.8,0.1
			c0.2,0.1,0.5,0.1,0.6,0.2c0.2,0.1,0.4,0.2,0.6,0.3l0.6,0.4L72.6,125z"/>
		<path id="XMLID_874_" class="st8" d="M70.7,120.7v0.5h2.7v1h-3.3c-0.1,0-0.2,0-0.3-0.1s-0.1-0.1-0.1-0.2c0-0.1-0.1-0.2-0.1-0.2
			v-1.1H70.7z"/>
		<path id="XMLID_872_" class="st8" d="M74.3,130.5v-5.6c0.2-0.3,0.3-0.5,0.5-0.7s0.4-0.4,0.6-0.5c0.2-0.1,0.4-0.2,0.6-0.3
			s0.4-0.1,0.5-0.2s0.3-0.1,0.4-0.1s0.2,0,0.3,0h0.1c0.4,0,0.7,0.1,0.9,0.1s0.5,0.2,0.7,0.3c0.2,0.1,0.4,0.3,0.5,0.4
			c0.1,0.2,0.3,0.3,0.3,0.5s0.2,0.3,0.2,0.5s0.1,0.3,0.1,0.4c0,0.1,0,0.2,0,0.3s0,0.2,0,0.2v4.5H79v-4.5c0-0.3,0-0.5-0.1-0.7
			c-0.1-0.2-0.2-0.4-0.3-0.5s-0.3-0.2-0.4-0.3c-0.1-0.1-0.3-0.1-0.4-0.2s-0.2-0.1-0.3-0.1c-0.1,0-0.2,0-0.2,0c-0.2,0-0.4,0-0.6,0.1
			s-0.3,0.1-0.4,0.2c-0.1,0.1-0.2,0.2-0.3,0.3c-0.1,0.1-0.2,0.2-0.2,0.3c-0.1,0.3-0.2,0.5-0.2,0.9v4.5H74.3z"/>
		<path id="XMLID_870_" class="st8" d="M87.1,120.4v7.5c0,0.5-0.2,0.9-0.4,1.3c-0.1,0.2-0.2,0.3-0.3,0.5c-0.1,0.2-0.3,0.3-0.5,0.4
			s-0.4,0.2-0.7,0.3s-0.6,0.1-0.9,0.1c-0.4,0-0.7,0-0.9-0.1s-0.5-0.2-0.7-0.3s-0.4-0.3-0.5-0.4c-0.1-0.2-0.3-0.3-0.3-0.5
			c-0.2-0.4-0.3-0.8-0.4-1.3v-4.8h1.1v4.8c0,0.2,0,0.4,0.1,0.5s0.1,0.3,0.2,0.4c0.1,0.1,0.2,0.2,0.3,0.3c0.1,0.1,0.2,0.1,0.3,0.2
			c0.3,0.1,0.6,0.2,0.9,0.2c0.3,0,0.6-0.1,0.9-0.2c0.1,0,0.2-0.1,0.3-0.2c0.1-0.1,0.2-0.2,0.3-0.3c0.1-0.1,0.2-0.2,0.2-0.4
			s0.1-0.3,0.1-0.5v-7.5H87.1z"/>
		<path id="XMLID_868_" class="st8" d="M92.7,125l-0.5-0.3c-0.1-0.1-0.2-0.1-0.4-0.2s-0.3-0.1-0.4-0.2s-0.3-0.1-0.4-0.1
			s-0.2,0-0.3,0c-0.2,0-0.3,0-0.5,0s-0.3,0.1-0.4,0.2s-0.2,0.2-0.3,0.3c-0.1,0.1-0.1,0.3-0.1,0.5s0.1,0.4,0.2,0.5
			c0.1,0.1,0.3,0.2,0.5,0.3c0.2,0.1,0.4,0.1,0.7,0.2s0.5,0.1,0.7,0.1s0.5,0.1,0.7,0.2s0.4,0.3,0.6,0.4s0.3,0.4,0.4,0.6
			s0.2,0.5,0.2,0.7c0,0.4-0.1,0.7-0.2,1s-0.3,0.5-0.6,0.7c-0.2,0.2-0.5,0.3-0.8,0.4c-0.3,0.1-0.7,0.1-1,0.1c-0.5,0-0.9-0.1-1.3-0.2
			c-0.4-0.1-0.6-0.2-0.9-0.4c-0.3-0.2-0.5-0.3-0.7-0.5l0.7-0.7c0.1,0.1,0.2,0.2,0.3,0.3s0.3,0.2,0.5,0.2s0.4,0.1,0.6,0.2
			s0.4,0.1,0.7,0.1c0.2,0,0.4,0,0.6-0.1s0.3-0.1,0.5-0.2s0.2-0.2,0.3-0.4s0.1-0.3,0.1-0.5c0-0.2,0-0.3-0.1-0.4
			c-0.1-0.1-0.1-0.2-0.2-0.3c-0.1-0.1-0.2-0.1-0.2-0.1s-0.1,0-0.2-0.1c0,0-0.1,0-0.2,0s-0.3,0-0.4-0.1s-0.3-0.1-0.5-0.1
			s-0.3-0.1-0.4-0.1c-0.1,0-0.1,0-0.2-0.1s-0.2-0.1-0.3-0.1c-0.1-0.1-0.2-0.1-0.4-0.2c-0.1-0.1-0.2-0.2-0.3-0.4s-0.2-0.3-0.2-0.5
			s-0.1-0.4-0.1-0.7c0-0.4,0.1-0.7,0.2-1s0.3-0.5,0.6-0.7s0.5-0.3,0.8-0.4s0.6-0.1,0.9-0.1c0.3,0,0.6,0,0.8,0.1
			c0.2,0.1,0.5,0.1,0.6,0.2c0.2,0.1,0.4,0.2,0.6,0.3l0.6,0.4L92.7,125z"/>
		<path id="XMLID_865_" class="st8" d="M95.1,123.8v0.5H97v1h-2.5c-0.1,0-0.2,0-0.3-0.1s-0.1-0.1-0.1-0.2c0-0.1-0.1-0.2-0.1-0.2
			v-1.1H95.1z M95.1,128.2v0.5H97v1h-2.5c-0.1,0-0.2,0-0.3-0.1s-0.1-0.1-0.1-0.2c0-0.1-0.1-0.2-0.1-0.2v-1.1H95.1z"/>
		<path id="XMLID_863_" class="st8" d="M99.2,130.5h-1.1v-7.3h1.1V130.5z"/>
		<path id="XMLID_861_" class="st8" d="M105.2,130.5v-4.6c0-0.3,0-0.5-0.1-0.7c-0.1-0.2-0.2-0.4-0.3-0.5c-0.1-0.1-0.3-0.2-0.4-0.3
			s-0.3-0.1-0.4-0.2s-0.2-0.1-0.3-0.1c-0.1,0-0.2,0-0.2,0c-0.3,0-0.5,0-0.7,0.1s-0.4,0.2-0.5,0.3s-0.2,0.3-0.3,0.4
			c-0.1,0.1-0.1,0.3-0.2,0.4s-0.1,0.2-0.1,0.3s0,0.1,0,0.2v4.6h-1.1v-7.3h1.1v1c0-0.1,0-0.2,0.1-0.4s0.1-0.2,0.2-0.3
			s0.2-0.1,0.3-0.2s0.2-0.1,0.3-0.1c0.3-0.1,0.5-0.1,0.8-0.1h0.3c0.4,0,0.8,0.1,1.1,0.2c0.3,0.1,0.5,0.3,0.7,0.4s0.3,0.4,0.5,0.6
			c0.1,0.2,0.2,0.4,0.2,0.6s0.1,0.4,0.1,0.6s0,0.3,0,0.4v0.1v4.6H105.2z"/>
		<path id="XMLID_859_" class="st8" d="M113.8,123c0,0,0,0.1-0.1,0.2s-0.2,0.2-0.3,0.3c-0.1,0.1-0.2,0.2-0.3,0.3s-0.2,0.1-0.3,0.2
			c0.2,0.2,0.3,0.4,0.4,0.6s0.2,0.4,0.2,0.6s0.1,0.3,0.1,0.5c0,0.1,0,0.2,0,0.3v0.1v4.5h-1.1V126c0-0.2,0-0.4-0.1-0.6
			s-0.1-0.3-0.2-0.5c-0.1-0.1-0.2-0.2-0.3-0.3c-0.1-0.1-0.2-0.2-0.3-0.2c-0.3-0.1-0.6-0.2-0.9-0.2c-0.2,0-0.4,0-0.6,0.1
			c-0.2,0.1-0.3,0.1-0.4,0.2s-0.2,0.2-0.3,0.3s-0.2,0.2-0.2,0.3c-0.1,0.3-0.2,0.6-0.3,0.9v0.7c0.2-0.1,0.4-0.2,0.7-0.3
			c0.2-0.1,0.5-0.1,0.7-0.1c0.2,0,0.5,0,0.7,0.1v1.1c-0.1,0-0.2-0.1-0.3-0.1c-0.1,0-0.2,0-0.4,0c-0.3,0-0.6,0.1-0.9,0.2
			c-0.1,0.1-0.2,0.2-0.3,0.3c-0.1,0.1-0.2,0.3-0.2,0.4v2h-1.1v-4.5c0-0.5,0.1-0.8,0.2-1.2s0.3-0.6,0.5-0.8s0.4-0.4,0.6-0.5
			c0.2-0.1,0.4-0.2,0.6-0.3c0.2-0.1,0.4-0.1,0.6-0.1c0.2,0,0.3,0,0.4,0h0.1c0.2,0,0.4,0,0.6,0s0.3,0.1,0.5,0.1c0,0,0.1,0,0.2,0
			c0.1,0,0.2-0.1,0.4-0.1c0.1-0.1,0.3-0.2,0.5-0.3s0.3-0.3,0.4-0.5c0.1,0.1,0.3,0.2,0.4,0.4c0,0,0.1,0.1,0.1,0.1s0.1,0.1,0.1,0.1
			C113.7,122.9,113.7,123,113.8,123C113.8,123,113.8,123,113.8,123z"/>
		<path id="XMLID_857_" class="st8" d="M125.2,130.7c0,0.4,0,0.6-0.1,0.9s-0.2,0.4-0.3,0.6c-0.1,0.2-0.3,0.3-0.4,0.4
			s-0.3,0.2-0.5,0.2s-0.3,0.1-0.4,0.1c-0.1,0-0.2,0-0.2,0c-0.3,0-0.6,0-0.8-0.1s-0.4-0.2-0.6-0.3c-0.2-0.1-0.3-0.3-0.4-0.4l0.7-0.9
			c0,0,0.1,0.1,0.1,0.1c0.1,0.1,0.1,0.1,0.2,0.2c0.1,0.1,0.2,0.1,0.3,0.1c0.1,0,0.3,0.1,0.4,0.1c0.2,0,0.4,0,0.5-0.1
			s0.2-0.2,0.3-0.3c0.1-0.1,0.1-0.3,0.1-0.5v-1.3c0,0.1-0.1,0.2-0.1,0.3s-0.1,0.2-0.2,0.3c-0.1,0.1-0.2,0.1-0.3,0.2
			s-0.2,0.1-0.3,0.1c-0.2,0.1-0.5,0.2-0.8,0.2h-0.2c-0.4,0-0.8-0.1-1.1-0.2c-0.3-0.1-0.5-0.3-0.7-0.4c-0.2-0.2-0.3-0.4-0.5-0.6
			s-0.2-0.4-0.2-0.6c-0.1-0.2-0.1-0.4-0.1-0.6c0-0.2,0-0.3,0-0.4v-1.9c0-0.3,0-0.5-0.1-0.7c-0.1-0.2-0.2-0.4-0.3-0.5
			s-0.3-0.2-0.4-0.3c-0.1-0.1-0.3-0.1-0.4-0.2s-0.2-0.1-0.3-0.1s-0.2,0-0.2,0c-0.2,0-0.4,0-0.6,0.1s-0.3,0.1-0.4,0.2
			c-0.1,0.1-0.2,0.2-0.3,0.3c-0.1,0.1-0.2,0.2-0.2,0.3c-0.1,0.3-0.2,0.5-0.2,0.9v2.3c0,0.2,0.1,0.5,0.2,0.6c0,0.1,0.1,0.2,0.2,0.2
			s0.1,0.1,0.2,0.2s0.2,0.1,0.3,0.1s0.3,0.1,0.4,0.1h0.8v1h-1.5c-0.3,0-0.6-0.1-0.8-0.3c-0.1-0.1-0.2-0.2-0.3-0.3
			c-0.1-0.1-0.2-0.2-0.3-0.4s-0.1-0.3-0.2-0.5s-0.1-0.4-0.1-0.7v-0.2v-3.3c0.2-0.3,0.3-0.5,0.5-0.7s0.4-0.4,0.6-0.5
			c0.2-0.1,0.4-0.2,0.6-0.3s0.4-0.1,0.5-0.2s0.3-0.1,0.4-0.1s0.2,0,0.3,0h0.1c0.5,0,0.9,0.1,1.2,0.2c0.3,0.1,0.6,0.3,0.8,0.5
			s0.4,0.4,0.5,0.6s0.2,0.5,0.3,0.7s0.1,0.4,0.1,0.5c0,0.2,0,0.2,0,0.3v1.8c0,0.3,0,0.6,0.1,0.8c0.1,0.2,0.2,0.4,0.3,0.5
			s0.3,0.2,0.4,0.3s0.3,0.1,0.4,0.2s0.2,0.1,0.3,0.1s0.2,0,0.2,0c0.3,0,0.5,0,0.7-0.1c0.2-0.1,0.4-0.2,0.5-0.3s0.2-0.3,0.3-0.4
			c0.1-0.2,0.1-0.3,0.2-0.4s0.1-0.3,0.1-0.4s0-0.2,0-0.2v-4.6h1.1L125.2,130.7z"/>
		<path id="XMLID_855_" class="st8" d="M124.4,120.6v1.7h-4.1v-1h3.1v-0.7H124.4z"/>
		<path id="XMLID_853_" class="st8" d="M124.6,117.4v2.1h-1v-2.1H124.6z"/>
		<path id="XMLID_851_" class="st8" d="M132.3,120.4v7.5c0,0.5-0.2,0.9-0.4,1.3c-0.1,0.2-0.2,0.3-0.3,0.5c-0.1,0.2-0.3,0.3-0.5,0.4
			s-0.4,0.2-0.7,0.3s-0.6,0.1-0.9,0.1c-0.4,0-0.7,0-0.9-0.1s-0.5-0.2-0.7-0.3s-0.4-0.3-0.5-0.4c-0.1-0.2-0.3-0.3-0.3-0.5
			c-0.2-0.4-0.3-0.8-0.4-1.3v-4.8h1.1v4.8c0,0.2,0,0.4,0.1,0.5s0.1,0.3,0.2,0.4c0.1,0.1,0.2,0.2,0.3,0.3c0.1,0.1,0.2,0.1,0.3,0.2
			c0.3,0.1,0.6,0.2,0.9,0.2c0.3,0,0.6-0.1,0.9-0.2c0.1,0,0.2-0.1,0.3-0.2c0.1-0.1,0.2-0.2,0.3-0.3c0.1-0.1,0.2-0.2,0.2-0.4
			s0.1-0.3,0.1-0.5v-7.5H132.3z"/>
		<path id="XMLID_849_" class="st8" d="M131,132.2h-0.5v-1h1c0.1,0,0.3,0.1,0.4,0.2c0.1,0.1,0.2,0.2,0.2,0.4v2.2h-1V132.2z"/>
		<path id="XMLID_847_" class="st8" d="M130.2,120.2v2.1h-1v-2.1H130.2z"/>
		<path id="XMLID_845_" class="st8" d="M134.8,123.1v4.6c0,0.3,0,0.6,0.1,0.8c0.1,0.2,0.2,0.4,0.3,0.5c0.1,0.1,0.3,0.2,0.4,0.3
			s0.3,0.1,0.4,0.2s0.2,0.1,0.3,0.1c0.1,0,0.2,0,0.2,0c0.3,0,0.5,0,0.7-0.1s0.4-0.2,0.5-0.3s0.2-0.3,0.3-0.4
			c0.1-0.2,0.1-0.3,0.2-0.4s0.1-0.3,0.1-0.4s0-0.2,0-0.2v-4.6h1.1v7.3h-1.1v-1c0,0.1,0,0.3-0.1,0.4s-0.1,0.2-0.2,0.3
			s-0.2,0.1-0.3,0.2s-0.2,0.1-0.3,0.1c-0.3,0.1-0.5,0.1-0.8,0.2h-0.3c-0.4,0-0.8-0.1-1.1-0.2c-0.3-0.1-0.5-0.3-0.7-0.4
			c-0.2-0.2-0.3-0.4-0.5-0.6s-0.2-0.4-0.2-0.6c-0.1-0.2-0.1-0.4-0.1-0.6c0-0.2,0-0.3,0-0.4v-0.1v-4.6H134.8z"/>
	</g>
</g>
</svg>
