<?xml version="1.0" encoding="utf-8"?>
<!-- Generator: Adobe Illustrator 19.0.0, SVG Export Plug-In . SVG Version: 6.00 Build 0)  -->
<svg version="1.1" id="Layer_1" xmlns="http://www.w3.org/2000/svg" xmlns:xlink="http://www.w3.org/1999/xlink" x="0px" y="0px"
	 viewBox="0 0 168.1 167.9" style="enable-background:new 0 0 168.1 167.9;" xml:space="preserve">
<style type="text/css">
	.st0{fill:#125B7C;}
	.st1{fill:#FFFFFF;}
	.st2{fill:#CD202B;}
	.st3{fill:#404040;stroke:#404040;stroke-width:0.5;stroke-miterlimit:10;}
	.st4{fill:#404040;}
</style>
<rect id="XMLID_5567_" x="0" y="0" class="st0" width="149.9" height="167"/>
<polygon id="XMLID_7693_" class="st1" points="148.8,167.7 148.8,148.7 168.1,167.9 "/>
<rect id="XMLID_4593_" x="0" y="107.1" class="st1" width="149.9" height="60.8"/>
<g id="XMLID_9180_">
	<circle id="XMLID_9181_" class="st2" cx="9.5" cy="118.7" r="4"/>
	<path id="XMLID_9182_" class="st2" d="M5.4,118.7h8.1v10.1C13.5,128.8,5.4,123.9,5.4,118.7z"/>
	<circle id="XMLID_2523_" class="st2" cx="17.5" cy="118.5" r="4"/>
	<path id="XMLID_2522_" class="st2" d="M21.6,118.5h-8.1v10.1C13.5,128.6,21.6,123.7,21.6,118.5z"/>
</g>
<g id="XMLID_9327_">
	<path id="XMLID_9328_" class="st1" d="M60.5,54.6c0,5.9-1.7,10.4-5,13.5s-8.2,4.7-14.5,4.7H30.9V37.1h11.2c5.8,0,10.4,1.5,13.6,4.6
		S60.5,49.1,60.5,54.6z M52.6,54.8c0-7.7-3.4-11.5-10.2-11.5h-4v23.2h3.2C49,66.6,52.6,62.7,52.6,54.8z"/>
	<path id="XMLID_9331_" class="st1" d="M81.2,72.8H65v-4.3l4.3-2V43.4l-4.3-2v-4.3h16.2v4.3l-4.3,2v23.1l4.3,2V72.8z"/>
	<path id="XMLID_9333_" class="st1" d="M98.4,51.8l7.4-14.7h8.2l-11.8,21.8v13.9h-7.5V59.2l-11.8-22H91L98.4,51.8z"/>
</g>
<g id="XMLID_49_">
	<g id="XMLID_1064_">
		<path id="XMLID_1148_" class="st3" d="M27.2,117.8h2.1v5.3c0,0.4,0,0.6-0.1,0.9c-0.1,0.2-0.2,0.4-0.3,0.6
			c-0.1,0.2-0.3,0.3-0.4,0.4s-0.3,0.2-0.5,0.2c-0.1,0-0.3,0.1-0.4,0.1c-0.1,0-0.2,0-0.2,0c-0.3,0-0.6,0-0.8-0.1
			c-0.2-0.1-0.4-0.2-0.6-0.3c-0.2-0.1-0.3-0.3-0.4-0.4l0.7-0.7c0,0,0.1,0.1,0.1,0.1c0.1,0.1,0.1,0.1,0.2,0.2s0.2,0.1,0.3,0.1
			c0.1,0,0.3,0.1,0.4,0.1c0.1,0,0.2,0,0.3,0c0.1,0,0.2-0.1,0.2-0.1c0.1-0.1,0.1-0.1,0.2-0.2s0.1-0.1,0.1-0.2
			c0.1-0.2,0.1-0.4,0.1-0.6v-4.3h-1V117.8z"/>
		<path id="XMLID_1146_" class="st3" d="M31.7,117.8c0,0,0.1,0,0.2,0c0.1,0,0.2,0,0.4,0.1c0.1,0,0.3,0.1,0.5,0.2
			c0.2,0.1,0.3,0.2,0.4,0.4c0.1,0.2,0.2,0.4,0.3,0.6s0.1,0.5,0.1,0.9v5.2h-1.1v-5.2c0-0.2,0-0.4-0.1-0.5c0-0.1-0.1-0.1-0.1-0.2
			c0-0.1-0.1-0.1-0.2-0.2c-0.1,0-0.1-0.1-0.2-0.1c-0.1,0-0.2,0-0.3,0c-0.2,0-0.3,0-0.5,0.1c-0.1,0-0.2,0.1-0.3,0.1s-0.1,0.1-0.2,0.2
			c0,0.1-0.1,0.1-0.1,0.1l-0.8-0.8c0.1-0.1,0.3-0.3,0.4-0.4c0.2-0.1,0.3-0.2,0.6-0.3S31.4,117.8,31.7,117.8z"/>
		<path id="XMLID_1144_" class="st3" d="M36.2,117.8v4.6c0,0.3,0,0.6,0.1,0.8s0.2,0.4,0.3,0.5s0.3,0.2,0.4,0.3
			c0.1,0.1,0.3,0.1,0.4,0.2c0.1,0,0.2,0.1,0.3,0.1s0.2,0,0.2,0c0.3,0,0.5,0,0.7-0.1c0.2-0.1,0.4-0.2,0.5-0.3
			c0.1-0.1,0.2-0.3,0.3-0.4c0.1-0.2,0.1-0.3,0.2-0.4s0.1-0.3,0.1-0.4c0-0.1,0-0.2,0-0.2v-4.6h1.1v7.3h-1.1v-1c0,0.1,0,0.3-0.1,0.4
			s-0.1,0.2-0.2,0.3c-0.1,0.1-0.2,0.1-0.3,0.2s-0.2,0.1-0.3,0.1c-0.3,0.1-0.5,0.1-0.8,0.2h-0.3c-0.4,0-0.8-0.1-1.1-0.2
			s-0.5-0.3-0.7-0.4s-0.3-0.4-0.5-0.6s-0.2-0.4-0.2-0.6c-0.1-0.2-0.1-0.4-0.1-0.6c0-0.2,0-0.3,0-0.4v-0.1v-4.6H36.2z"/>
		<path id="XMLID_1142_" class="st3" d="M48.4,117.7c0,0,0,0.1-0.1,0.2s-0.2,0.2-0.3,0.3c-0.1,0.1-0.2,0.2-0.3,0.3
			c-0.1,0.1-0.2,0.1-0.3,0.2c0.2,0.2,0.3,0.4,0.4,0.6c0.1,0.2,0.2,0.4,0.2,0.6s0.1,0.3,0.1,0.5c0,0.1,0,0.2,0,0.3v0.1v4.5h-1.1v-4.5
			c0-0.2,0-0.4-0.1-0.6c-0.1-0.2-0.1-0.3-0.2-0.5c-0.1-0.1-0.2-0.2-0.3-0.3s-0.2-0.2-0.3-0.2c-0.3-0.1-0.6-0.2-0.9-0.2
			c-0.2,0-0.4,0-0.6,0.1c-0.2,0.1-0.3,0.1-0.4,0.2c-0.1,0.1-0.2,0.2-0.3,0.3c-0.1,0.1-0.2,0.2-0.2,0.3c-0.1,0.3-0.2,0.6-0.3,0.9v0.7
			c0.2-0.1,0.4-0.2,0.7-0.3c0.2-0.1,0.5-0.1,0.7-0.1c0.2,0,0.5,0,0.7,0.1v1.1c-0.1,0-0.2-0.1-0.3-0.1s-0.2,0-0.4,0
			c-0.3,0-0.6,0.1-0.9,0.2c-0.1,0.1-0.2,0.2-0.3,0.3c-0.1,0.1-0.2,0.3-0.2,0.4v2h-1.1v-4.5c0-0.5,0.1-0.8,0.2-1.2
			c0.1-0.3,0.3-0.6,0.5-0.8c0.2-0.2,0.4-0.4,0.6-0.5c0.2-0.1,0.4-0.2,0.6-0.3c0.2-0.1,0.4-0.1,0.6-0.1s0.3,0,0.4,0h0.1
			c0.2,0,0.4,0,0.6,0c0.2,0,0.3,0.1,0.5,0.1c0,0,0.1,0,0.2,0s0.2-0.1,0.4-0.1s0.3-0.2,0.5-0.3c0.2-0.1,0.3-0.3,0.4-0.5
			c0.1,0.1,0.3,0.2,0.4,0.4c0,0,0.1,0.1,0.1,0.1c0,0,0.1,0.1,0.1,0.1C48.3,117.6,48.3,117.7,48.4,117.7
			C48.4,117.7,48.4,117.7,48.4,117.7z"/>
		<path id="XMLID_1140_" class="st3" d="M47.8,115.9v1h-4.1v-1H47.8z"/>
		<path id="XMLID_1138_" class="st3" d="M53.3,118c0.3,0.1,0.6,0.3,0.8,0.5c0.2,0.2,0.4,0.4,0.5,0.6c0.1,0.2,0.2,0.4,0.3,0.7
			s0.1,0.4,0.1,0.6c0,0.2,0,0.3,0,0.4v0.1v4.5h-1.1V123c0-0.2,0-0.4-0.1-0.5s-0.2-0.3-0.4-0.4c-0.1-0.1-0.3-0.2-0.5-0.2
			c-0.2-0.1-0.3-0.1-0.5-0.1c-0.1,0-0.3,0-0.5-0.1c0,0-0.1,0-0.1,0c-0.1,0-0.2,0-0.3,0c-0.1,0-0.2,0.1-0.4,0.1
			c-0.1,0-0.2,0.1-0.4,0.2c-0.1,0.1-0.2,0.2-0.3,0.3c-0.1,0.1-0.2,0.3-0.2,0.5c0,0.1,0,0.1,0,0.2c0,0.2,0,0.3,0.1,0.4
			c0.1,0.1,0.2,0.2,0.3,0.3c0.1,0.1,0.3,0.1,0.4,0.2c0.1,0,0.3,0.1,0.4,0.1c0.1,0,0.3,0,0.4,0c0.1,0,0.2,0,0.3,0h0.1v1H51
			c-0.3,0-0.5-0.1-0.7-0.2s-0.4-0.3-0.6-0.4c-0.2-0.2-0.3-0.4-0.4-0.7c-0.1-0.2-0.1-0.5-0.1-0.8c0-0.3,0.1-0.5,0.2-0.8
			c0.1-0.3,0.3-0.5,0.6-0.8c0.2-0.2,0.3-0.3,0.5-0.4c0.2-0.1,0.4-0.2,0.5-0.3s0.4-0.1,0.5-0.1c0.2,0,0.3,0,0.5,0
			c0.3,0,0.5,0,0.7,0.1s0.4,0.1,0.6,0.2c0.2,0.1,0.4,0.1,0.5,0.2v-0.4c0-0.2,0-0.4-0.1-0.6c-0.1-0.2-0.1-0.3-0.2-0.5
			c-0.1-0.1-0.2-0.2-0.3-0.3s-0.2-0.2-0.3-0.2c-0.3-0.1-0.6-0.2-0.9-0.2c-0.3,0-0.5,0.1-0.8,0.2c-0.2,0.1-0.4,0.2-0.5,0.4
			c-0.1,0.2-0.2,0.3-0.3,0.5c-0.1,0.2-0.1,0.3-0.2,0.4h-1.1c0-0.4,0.1-0.7,0.2-1c0.1-0.3,0.3-0.5,0.5-0.7c0.2-0.2,0.4-0.3,0.6-0.4
			c0.2-0.1,0.4-0.2,0.6-0.2c0.2-0.1,0.4-0.1,0.5-0.1s0.3,0,0.3,0h0.1C52.5,117.8,52.9,117.8,53.3,118z"/>
		<path id="XMLID_1136_" class="st3" d="M61.8,115.1v7.5c0,0.5-0.2,0.9-0.4,1.3c-0.1,0.2-0.2,0.3-0.3,0.5s-0.3,0.3-0.5,0.4
			c-0.2,0.1-0.4,0.2-0.7,0.3s-0.6,0.1-0.9,0.1c-0.4,0-0.7,0-0.9-0.1s-0.5-0.2-0.7-0.3c-0.2-0.1-0.4-0.3-0.5-0.4s-0.3-0.3-0.3-0.5
			c-0.2-0.4-0.3-0.8-0.4-1.3v-4.8h1.1v4.8c0,0.2,0,0.4,0.1,0.5c0,0.1,0.1,0.3,0.2,0.4s0.2,0.2,0.3,0.3s0.2,0.1,0.3,0.2
			c0.3,0.1,0.6,0.2,0.9,0.2c0.3,0,0.6-0.1,0.9-0.2c0.1,0,0.2-0.1,0.3-0.2s0.2-0.2,0.3-0.3s0.2-0.2,0.2-0.4c0-0.1,0.1-0.3,0.1-0.5
			v-7.5H61.8z"/>
		<path id="XMLID_1133_" class="st3" d="M63.9,118.5v0.5h1.9v1h-2.5c-0.1,0-0.2,0-0.3-0.1c-0.1,0-0.1-0.1-0.1-0.2
			c0-0.1-0.1-0.2-0.1-0.2v-1.1H63.9z M63.9,122.9v0.5h1.9v1h-2.5c-0.1,0-0.2,0-0.3-0.1c-0.1,0-0.1-0.1-0.1-0.2
			c0-0.1-0.1-0.2-0.1-0.2v-1.1H63.9z"/>
		<path id="XMLID_1131_" class="st3" d="M71.5,125.2v-4.6c0-0.3,0-0.5-0.1-0.7s-0.2-0.4-0.3-0.5c-0.1-0.1-0.3-0.2-0.4-0.3
			c-0.1-0.1-0.3-0.1-0.4-0.2c-0.1,0-0.2,0-0.3-0.1c-0.1,0-0.2,0-0.2,0c-0.3,0-0.5,0-0.7,0.1c-0.2,0.1-0.4,0.2-0.5,0.3
			c-0.1,0.1-0.2,0.3-0.3,0.4s-0.1,0.3-0.2,0.4c0,0.1-0.1,0.2-0.1,0.3c0,0.1,0,0.1,0,0.2v4.6H67v-7.3H68v1c0-0.1,0-0.2,0.1-0.4
			s0.1-0.2,0.2-0.3s0.2-0.1,0.3-0.2c0.1,0,0.2-0.1,0.3-0.1c0.3-0.1,0.5-0.1,0.8-0.1H70c0.4,0,0.8,0.1,1.1,0.2
			c0.3,0.1,0.5,0.3,0.7,0.4c0.2,0.2,0.3,0.4,0.5,0.6c0.1,0.2,0.2,0.4,0.2,0.6c0.1,0.2,0.1,0.4,0.1,0.6c0,0.2,0,0.3,0,0.4v0.1v4.6
			H71.5z"/>
		<path id="XMLID_1129_" class="st3" d="M71.8,115.3v1.7h-4.1v-1h3.1v-0.7H71.8z"/>
		<path id="XMLID_1127_" class="st3" d="M72,112.1v2.1h-1v-2.1H72z"/>
		<path id="XMLID_1125_" class="st3" d="M78.6,125.2v-4.6c0-0.3,0-0.5-0.1-0.7s-0.2-0.4-0.3-0.5c-0.1-0.1-0.3-0.2-0.4-0.3
			c-0.1-0.1-0.3-0.1-0.4-0.2c-0.1,0-0.2,0-0.3-0.1c-0.1,0-0.2,0-0.2,0c-0.3,0-0.5,0-0.7,0.1c-0.2,0.1-0.4,0.2-0.5,0.3
			c-0.1,0.1-0.2,0.3-0.3,0.4s-0.1,0.3-0.2,0.4c0,0.1-0.1,0.2-0.1,0.3c0,0.1,0,0.1,0,0.2v4.6h-1.1v-7.3h1.1v1c0-0.1,0-0.2,0.1-0.4
			s0.1-0.2,0.2-0.3s0.2-0.1,0.3-0.2c0.1,0,0.2-0.1,0.3-0.1c0.3-0.1,0.5-0.1,0.8-0.1h0.3c0.4,0,0.8,0.1,1.1,0.2
			c0.3,0.1,0.5,0.3,0.7,0.4c0.2,0.2,0.3,0.4,0.5,0.6c0.1,0.2,0.2,0.4,0.2,0.6c0.1,0.2,0.1,0.4,0.1,0.6c0,0.2,0,0.3,0,0.4v0.1v4.6
			H78.6z"/>
		<path id="XMLID_1121_" class="st3" d="M77.8,114.7c0.2,0,0.3,0,0.5,0.1c0.2,0.1,0.3,0.2,0.4,0.3s0.2,0.3,0.3,0.4
			c0.1,0.2,0.1,0.3,0.1,0.5s0,0.3-0.1,0.5c-0.1,0.2-0.2,0.3-0.3,0.4s-0.3,0.2-0.4,0.3c-0.2,0.1-0.3,0.1-0.5,0.1s-0.3,0-0.5-0.1
			c-0.2-0.1-0.3-0.2-0.4-0.3s-0.2-0.3-0.3-0.4c-0.1-0.2-0.1-0.3-0.1-0.5s0-0.3,0.1-0.5c0.1-0.2,0.2-0.3,0.3-0.4s0.3-0.2,0.4-0.3
			C77.5,114.7,77.7,114.7,77.8,114.7z M77.8,116.4c0.1,0,0.2,0,0.3-0.1s0.1-0.2,0.1-0.3c0-0.1,0-0.2-0.1-0.3s-0.2-0.1-0.3-0.1
			c-0.1,0-0.2,0-0.3,0.1s-0.1,0.2-0.1,0.3c0,0.1,0,0.2,0.1,0.3S77.7,116.4,77.8,116.4z M82.5,117.8c0,0,0.1,0,0.2,0
			c0.1,0,0.2,0,0.4,0.1c0.1,0,0.3,0.1,0.5,0.2c0.2,0.1,0.3,0.2,0.4,0.4c0.1,0.2,0.2,0.4,0.3,0.6c0.1,0.2,0.1,0.5,0.1,0.9v5.2h-1.1
			v-5.2c0-0.2,0-0.4-0.1-0.5c0-0.1-0.1-0.1-0.1-0.2c0-0.1-0.1-0.1-0.2-0.2c-0.1,0-0.1-0.1-0.2-0.1c-0.1,0-0.2,0-0.3,0
			c-0.2,0-0.3,0-0.5,0.1c-0.1,0-0.2,0.1-0.3,0.1s-0.1,0.1-0.2,0.2c0,0.1-0.1,0.1-0.1,0.1l-0.8-0.8c0.1-0.1,0.3-0.3,0.4-0.4
			c0.2-0.1,0.3-0.2,0.6-0.3S82.1,117.8,82.5,117.8z"/>
		<path id="XMLID_1119_" class="st3" d="M90.5,125.2v-4.6c0-0.3-0.1-0.6-0.2-0.8c-0.1-0.1-0.1-0.2-0.2-0.3c-0.1-0.1-0.2-0.2-0.3-0.3
			c-0.1-0.1-0.3-0.1-0.5-0.2s-0.4-0.1-0.6-0.1s-0.4,0-0.6,0.1s-0.3,0.1-0.5,0.2c-0.1,0.1-0.2,0.2-0.3,0.3c-0.1,0.1-0.2,0.2-0.2,0.3
			c-0.1,0.2-0.2,0.5-0.2,0.8v2.4c0,0.2,0.1,0.3,0.1,0.4c0,0.1,0.1,0.2,0.2,0.4c0.1,0.1,0.2,0.2,0.3,0.3c0.2,0.1,0.3,0.2,0.4,0.2
			c0.1,0,0.3,0,0.4-0.1c0.1-0.1,0.2-0.1,0.3-0.2l0.7,0.7c-0.1,0.1-0.2,0.2-0.4,0.3c-0.1,0.1-0.3,0.1-0.4,0.2
			c-0.2,0.1-0.4,0.1-0.6,0.1c-0.1,0-0.1,0-0.2,0s-0.1,0-0.2,0c-0.3-0.1-0.5-0.2-0.7-0.3c-0.2-0.1-0.4-0.3-0.5-0.5
			c-0.1-0.2-0.2-0.4-0.3-0.7c-0.1-0.2-0.1-0.5-0.1-0.7v-2.4c0-0.4,0.1-0.8,0.3-1.1s0.3-0.6,0.5-0.8c0.2-0.2,0.4-0.4,0.6-0.5
			c0.2-0.1,0.4-0.2,0.6-0.3c0.2-0.1,0.4-0.1,0.5-0.1c0.2,0,0.3,0,0.4,0h0.1h0.1c0.1,0,0.2,0,0.4,0c0.2,0,0.3,0.1,0.5,0.1
			c0.2,0.1,0.4,0.1,0.6,0.3c0.2,0.1,0.4,0.3,0.6,0.5c0.2,0.2,0.3,0.5,0.5,0.8s0.2,0.7,0.3,1.1v4.6H90.5z"/>
		<path id="XMLID_1117_" class="st3" d="M91.7,115.9v1h-3v-1.4h-0.5v-1h1.1c0.1,0,0.2,0,0.2,0.1c0.1,0,0.1,0.1,0.2,0.1
			c0.1,0.1,0.1,0.2,0.1,0.3v0.9H91.7z"/>
		<path id="XMLID_1115_" class="st3" d="M95.3,117.8c0.1,0,0.2,0,0.3,0c0.1,0,0.3,0,0.5,0.1s0.4,0.1,0.6,0.2s0.4,0.3,0.5,0.4
			c0.2,0.2,0.3,0.4,0.4,0.7c0.1,0.3,0.2,0.6,0.2,1v2.4c0,0.5-0.1,0.9-0.3,1.3c-0.1,0.2-0.2,0.3-0.3,0.5c-0.1,0.2-0.3,0.3-0.4,0.4
			c-0.2,0.1-0.4,0.2-0.6,0.3c-0.2,0.1-0.5,0.1-0.8,0.1c-0.3,0-0.6,0-0.8-0.1c-0.2-0.1-0.4-0.2-0.6-0.3c-0.2-0.1-0.3-0.3-0.4-0.4
			c-0.1-0.2-0.2-0.3-0.3-0.5c0,0,0.1-0.1,0.2-0.1s0.2-0.1,0.3-0.2c0.1-0.1,0.2-0.1,0.3-0.2s0.1-0.1,0.2-0.1c0.1,0.2,0.2,0.4,0.3,0.5
			c0.1,0.1,0.3,0.2,0.4,0.2c0.2,0.1,0.3,0.1,0.5,0.1c0.3,0,0.5-0.1,0.7-0.2c0.1,0,0.2-0.1,0.3-0.2c0.1-0.1,0.2-0.2,0.2-0.3
			c0.1-0.1,0.1-0.2,0.2-0.3c0-0.1,0.1-0.3,0.1-0.5v-2.4c0-0.3-0.1-0.5-0.2-0.7c0-0.1-0.1-0.2-0.2-0.3c-0.1-0.1-0.1-0.2-0.2-0.2
			s-0.2-0.1-0.3-0.2c-0.1,0-0.3-0.1-0.4-0.1c-0.2,0-0.4,0-0.6,0.1c-0.2,0-0.3,0.1-0.4,0.2c-0.1,0.1-0.2,0.2-0.3,0.4
			c-0.1,0.1-0.2,0.3-0.3,0.5h-1.1c0-0.3,0.1-0.6,0.2-0.9c0.1-0.3,0.3-0.5,0.5-0.7c0.2-0.2,0.5-0.3,0.8-0.5S94.8,117.8,95.3,117.8
			L95.3,117.8L95.3,117.8z"/>
		<path id="XMLID_1113_" class="st3" d="M104.6,117.8v5.3c0,0.3,0,0.6-0.1,0.8c-0.1,0.2-0.2,0.4-0.3,0.6c-0.1,0.2-0.3,0.3-0.5,0.4
			c-0.2,0.1-0.3,0.2-0.5,0.2c-0.2,0-0.3,0.1-0.4,0.1c-0.1,0-0.2,0-0.3,0H101c-0.4,0-0.7,0-0.9-0.1c-0.3-0.1-0.5-0.2-0.6-0.3
			c-0.2-0.1-0.3-0.3-0.4-0.4c-0.1-0.1-0.2-0.3-0.2-0.4c-0.1-0.1-0.1-0.3-0.1-0.4c0-0.1,0-0.2,0-0.3c0-0.3,0.1-0.5,0.2-0.7
			c0.1-0.2,0.2-0.4,0.4-0.5s0.3-0.2,0.4-0.3c0.1-0.1,0.2-0.1,0.2-0.1c-0.1,0-0.3-0.1-0.4-0.1s-0.2-0.1-0.3-0.2
			c-0.1-0.1-0.2-0.2-0.2-0.3s-0.1-0.2-0.1-0.3c-0.1-0.2-0.1-0.5-0.2-0.7c0-0.3,0-0.5,0.1-0.7c0-0.2,0.1-0.4,0.2-0.5s0.2-0.3,0.3-0.4
			s0.2-0.2,0.3-0.3c0.3-0.2,0.6-0.2,0.9-0.3h1.5v1H101c-0.2,0-0.3,0-0.4,0c-0.1,0-0.2,0.1-0.3,0.1c-0.1,0.1-0.2,0.1-0.2,0.2
			c-0.1,0.1-0.1,0.1-0.2,0.2c-0.1,0.2-0.1,0.3-0.2,0.5c0,0.2,0,0.3,0.1,0.5c0.1,0.1,0.1,0.2,0.2,0.3c0.1,0.1,0.2,0.1,0.3,0.2
			c0.1,0,0.2,0.1,0.3,0.1s0.2,0,0.2,0c0.1,0,0.1,0,0.1,0h0.9v1H101c-0.2,0-0.4,0-0.5,0.1c-0.1,0-0.2,0.1-0.3,0.2
			c-0.1,0.1-0.2,0.1-0.2,0.2c0,0.1-0.1,0.2-0.1,0.2c0,0.1,0,0.1,0,0.2c0,0.1,0,0.1,0,0.1c0,0.2,0,0.3,0.1,0.5c0,0.1,0.1,0.2,0.2,0.3
			c0.1,0.1,0.2,0.1,0.3,0.2c0.1,0,0.2,0.1,0.3,0.1c0.1,0,0.2,0,0.2,0c0.1,0,0.1,0,0.1,0h0h1.3c0.3,0,0.5-0.1,0.6-0.2
			c0.1-0.1,0.3-0.2,0.3-0.4c0.1-0.2,0.1-0.3,0.2-0.5v-5.3H104.6z"/>
		<path id="XMLID_1111_" class="st3" d="M111.7,117.8v4.6v0.1c0,0.1,0,0.2,0,0.4c0,0.2,0,0.4-0.1,0.6c-0.1,0.2-0.1,0.4-0.2,0.6
			s-0.3,0.4-0.5,0.6s-0.4,0.3-0.7,0.4s-0.6,0.2-1.1,0.2h-0.3c-0.3,0-0.6-0.1-0.8-0.2c-0.1,0-0.2-0.1-0.3-0.1
			c-0.1-0.1-0.2-0.1-0.3-0.2c-0.1-0.1-0.2-0.2-0.2-0.3s-0.1-0.2-0.1-0.4v1H106v-7.3h1.1v4.6c0,0,0,0.1,0,0.2c0,0.1,0,0.2,0.1,0.4
			s0.1,0.3,0.2,0.4c0.1,0.2,0.2,0.3,0.3,0.4c0.1,0.1,0.3,0.2,0.5,0.3c0.2,0.1,0.4,0.1,0.7,0.1c0,0,0.1,0,0.2,0s0.2,0,0.3-0.1
			c0.1,0,0.3-0.1,0.4-0.2c0.1-0.1,0.3-0.2,0.4-0.3s0.2-0.3,0.3-0.5s0.1-0.5,0.1-0.8v-4.6H111.7z"/>
		<path id="XMLID_1109_" class="st3" d="M111.5,115.2v1.8H107v-1h1.8v-0.8h1v0.8h0.6v-0.8H111.5z"/>
		<path id="XMLID_1107_" class="st3" d="M118.7,122.6c0,0.5-0.2,0.9-0.4,1.3c-0.1,0.2-0.2,0.3-0.3,0.5c-0.1,0.2-0.3,0.3-0.5,0.4
			c-0.2,0.1-0.4,0.2-0.7,0.3s-0.6,0.1-0.9,0.1c-0.4,0-0.7,0-0.9-0.1s-0.5-0.2-0.7-0.3c-0.2-0.1-0.4-0.3-0.5-0.4s-0.3-0.3-0.3-0.5
			c-0.2-0.4-0.3-0.8-0.4-1.3v-1.5h2.1v1h-1v0.5c0,0.2,0,0.4,0.1,0.5c0,0.2,0.1,0.3,0.2,0.4c0.1,0.1,0.2,0.2,0.3,0.3
			c0.1,0.1,0.2,0.1,0.3,0.2c0.3,0.1,0.6,0.2,0.9,0.2c0.3,0,0.6-0.1,0.9-0.2c0.1,0,0.2-0.1,0.3-0.2c0.1-0.1,0.2-0.2,0.3-0.3
			c0.1-0.1,0.2-0.2,0.2-0.4c0-0.2,0.1-0.3,0.1-0.5v-2.2c0-0.2,0-0.4-0.1-0.5c-0.1-0.1-0.1-0.3-0.2-0.4s-0.2-0.2-0.3-0.3
			c-0.1-0.1-0.2-0.1-0.3-0.2c-0.3-0.1-0.6-0.2-0.9-0.2h-0.1c-0.1,0-0.2,0-0.3,0c-0.2,0-0.3,0.1-0.5,0.2c-0.2,0.1-0.3,0.2-0.5,0.3
			s-0.3,0.3-0.3,0.6h-1.1c0-0.1,0.1-0.3,0.1-0.4s0.1-0.3,0.2-0.5s0.2-0.3,0.4-0.5c0.1-0.2,0.3-0.3,0.5-0.4c0.2-0.1,0.4-0.2,0.7-0.3
			c0.3-0.1,0.6-0.1,0.9-0.1c0.3,0,0.7,0,0.9,0.1s0.5,0.2,0.7,0.3c0.2,0.1,0.4,0.3,0.5,0.4c0.1,0.2,0.3,0.3,0.3,0.5
			c0.2,0.4,0.3,0.8,0.4,1.3V122.6z"/>
		<path id="XMLID_1105_" class="st4" d="M29.7,134.9l-0.4-0.3c-0.1-0.1-0.2-0.1-0.3-0.2s-0.2-0.1-0.4-0.1s-0.2-0.1-0.3-0.1
			s-0.2,0-0.3,0c-0.1,0-0.3,0-0.4,0s-0.3,0.1-0.4,0.1s-0.2,0.2-0.2,0.3s-0.1,0.3-0.1,0.5s0.1,0.3,0.2,0.4s0.2,0.2,0.4,0.3
			s0.4,0.1,0.6,0.1s0.4,0.1,0.6,0.1s0.4,0.1,0.6,0.2s0.4,0.2,0.5,0.4s0.3,0.3,0.4,0.5s0.1,0.4,0.1,0.6c0,0.3-0.1,0.6-0.2,0.8
			s-0.3,0.4-0.5,0.6s-0.4,0.3-0.7,0.3s-0.6,0.1-0.9,0.1c-0.4,0-0.8,0-1.1-0.1s-0.6-0.2-0.8-0.3c-0.2-0.1-0.4-0.3-0.6-0.5l0.6-0.6
			c0.1,0.1,0.2,0.2,0.3,0.2s0.3,0.1,0.4,0.2s0.3,0.1,0.5,0.2s0.4,0.1,0.6,0.1c0.2,0,0.4,0,0.5-0.1s0.3-0.1,0.4-0.2s0.2-0.2,0.3-0.3
			s0.1-0.3,0.1-0.4c0-0.2,0-0.3-0.1-0.4s-0.1-0.2-0.2-0.2s-0.1-0.1-0.2-0.1s-0.1,0-0.2,0c0,0-0.1,0-0.2,0s-0.2,0-0.4-0.1
			s-0.3,0-0.4-0.1s-0.2,0-0.3-0.1c0,0-0.1,0-0.2,0s-0.2-0.1-0.3-0.1s-0.2-0.1-0.3-0.2s-0.2-0.2-0.3-0.3s-0.2-0.3-0.2-0.4
			s-0.1-0.4-0.1-0.6c0-0.3,0.1-0.6,0.2-0.9s0.3-0.4,0.5-0.6s0.4-0.3,0.7-0.3s0.5-0.1,0.7-0.1c0.3,0,0.5,0,0.7,0.1s0.4,0.1,0.6,0.2
			c0.2,0.1,0.3,0.2,0.5,0.3l0.5,0.3L29.7,134.9z"/>
		<path id="XMLID_1103_" class="st4" d="M28.1,131.2v0.5h2.4v0.9h-2.8c-0.1,0-0.2,0-0.2-0.1s-0.1-0.1-0.1-0.1c0-0.1-0.1-0.1-0.1-0.2
			v-0.9H28.1z"/>
		<path id="XMLID_1101_" class="st4" d="M31.2,139.6v-4.8c0.1-0.2,0.3-0.4,0.4-0.6s0.3-0.3,0.5-0.4c0.2-0.1,0.3-0.2,0.5-0.3
			s0.3-0.1,0.4-0.1s0.3-0.1,0.4-0.1s0.2,0,0.2,0h0.1c0.3,0,0.6,0,0.8,0.1s0.4,0.2,0.6,0.3s0.3,0.2,0.4,0.4s0.2,0.3,0.3,0.4
			s0.1,0.3,0.2,0.4s0.1,0.3,0.1,0.4s0,0.2,0,0.3s0,0.1,0,0.2v3.9h-0.9v-3.9c0-0.3,0-0.5-0.1-0.6s-0.2-0.3-0.3-0.4s-0.2-0.2-0.3-0.3
			s-0.2-0.1-0.4-0.1s-0.2,0-0.3,0s-0.1,0-0.2,0c-0.2,0-0.4,0-0.5,0.1s-0.3,0.1-0.4,0.2s-0.2,0.2-0.3,0.2s-0.1,0.2-0.2,0.3
			c-0.1,0.2-0.2,0.5-0.2,0.7v3.9H31.2z"/>
		<path id="XMLID_1098_" class="st4" d="M38.1,139.6h-0.9v-6.3h0.9V139.6z M40.1,139.6h-0.9v-6.3h0.9V139.6z"/>
		<path id="XMLID_1096_" class="st4" d="M44.4,133.4c0.3,0.1,0.5,0.2,0.7,0.4s0.3,0.3,0.4,0.5s0.2,0.4,0.2,0.6s0.1,0.3,0.1,0.5
			s0,0.2,0,0.3v0.1v3.8H45v-1.9c0-0.2,0-0.3-0.1-0.5s-0.2-0.2-0.3-0.3s-0.3-0.1-0.4-0.2s-0.3-0.1-0.4-0.1s-0.3,0-0.4,0
			c0,0,0,0-0.1,0s-0.1,0-0.2,0s-0.2,0.1-0.3,0.1s-0.2,0.1-0.3,0.2s-0.2,0.2-0.3,0.3s-0.1,0.3-0.2,0.4c0,0.1,0,0.1,0,0.2
			c0,0.1,0,0.2,0.1,0.3s0.2,0.2,0.3,0.2s0.2,0.1,0.3,0.2s0.3,0.1,0.4,0.1s0.2,0,0.3,0s0.2,0,0.2,0h0.1v0.9h-1.1
			c-0.2,0-0.4,0-0.6-0.1s-0.4-0.2-0.5-0.4s-0.3-0.3-0.3-0.6S41,138,41,137.8c0-0.2,0.1-0.5,0.2-0.7s0.3-0.5,0.5-0.7
			c0.1-0.1,0.3-0.2,0.4-0.3s0.3-0.2,0.5-0.2s0.3-0.1,0.5-0.1s0.3,0,0.4,0c0.2,0,0.4,0,0.6,0.1s0.4,0.1,0.5,0.1
			c0.2,0.1,0.3,0.1,0.4,0.2v-0.4c0-0.2,0-0.4-0.1-0.5s-0.1-0.3-0.2-0.4s-0.2-0.2-0.2-0.3s-0.2-0.1-0.3-0.2c-0.2-0.1-0.5-0.2-0.8-0.2
			c-0.3,0-0.5,0-0.6,0.1s-0.3,0.2-0.4,0.3s-0.2,0.3-0.3,0.4s-0.1,0.3-0.1,0.4h-1c0-0.3,0.1-0.6,0.2-0.9s0.2-0.4,0.4-0.6
			s0.3-0.3,0.5-0.4s0.4-0.2,0.5-0.2s0.3-0.1,0.5-0.1s0.2,0,0.3,0h0.1C43.8,133.2,44.2,133.3,44.4,133.4z"/>
		<path id="XMLID_1093_" class="st4" d="M47.5,133.8v0.5h1.6v0.9h-2.1c-0.1,0-0.2,0-0.2-0.1s-0.1-0.1-0.1-0.1c0-0.1-0.1-0.1-0.1-0.2
			v-0.9H47.5z M47.5,137.7v0.5h1.6v0.9h-2.1c-0.1,0-0.2,0-0.2-0.1s-0.1-0.1-0.1-0.1c0-0.1-0.1-0.1-0.1-0.2v-0.9H47.5z"/>
		<path id="XMLID_1091_" class="st4" d="M50.1,133.3h0.9v1.6h2.1c0.1,0,0.2-0.1,0.3-0.1c0.1-0.1,0.2-0.1,0.2-0.2s0.1-0.2,0.2-0.4
			v-0.8h0.9v0.9c0,0.1,0,0.1,0,0.2s-0.1,0.2-0.1,0.3s-0.1,0.2-0.2,0.3s-0.1,0.2-0.2,0.3c0.1,0.1,0.2,0.2,0.3,0.4
			c0.1,0.1,0.2,0.3,0.2,0.5s0.1,0.4,0.1,0.6v2.7H54v-2.7c0-0.1,0-0.2-0.1-0.3s-0.1-0.2-0.1-0.3s-0.1-0.2-0.2-0.3s-0.1-0.1-0.2-0.2
			s-0.2-0.1-0.3-0.1h-2.1v3.8h-0.9V133.3z"/>
		<path id="XMLID_1089_" class="st4" d="M54.3,130.8v1.8h-0.9v-1.8H54.3z"/>
		<path id="XMLID_1087_" class="st4" d="M58,133.2c0,0,0.1,0,0.3,0s0.3,0,0.4,0.1s0.3,0.1,0.5,0.2s0.3,0.2,0.5,0.4s0.3,0.4,0.3,0.6
			s0.1,0.5,0.1,0.9v2.1c0,0.4-0.1,0.8-0.3,1.1c-0.1,0.1-0.2,0.3-0.3,0.4s-0.2,0.2-0.4,0.3s-0.3,0.2-0.5,0.2s-0.4,0.1-0.7,0.1
			c-0.3,0-0.5,0-0.7-0.1s-0.4-0.1-0.5-0.3s-0.3-0.2-0.4-0.4s-0.2-0.3-0.2-0.4c0,0,0.1-0.1,0.2-0.1s0.1-0.1,0.2-0.1s0.2-0.1,0.2-0.1
			s0.1-0.1,0.2-0.1c0.1,0.2,0.2,0.3,0.3,0.4s0.2,0.2,0.4,0.2c0.1,0.1,0.3,0.1,0.4,0.1c0.2,0,0.4-0.1,0.6-0.2c0.1,0,0.1-0.1,0.2-0.2
			s0.1-0.1,0.2-0.2s0.1-0.2,0.1-0.3s0-0.2,0-0.4v-2.1c0-0.2-0.1-0.4-0.2-0.6c0-0.1-0.1-0.2-0.1-0.2s-0.1-0.1-0.2-0.2
			s-0.2-0.1-0.3-0.1s-0.2-0.1-0.4-0.1c-0.2,0-0.4,0-0.5,0.1s-0.3,0.1-0.4,0.2s-0.2,0.2-0.3,0.3s-0.2,0.3-0.2,0.5h-0.9
			c0-0.3,0.1-0.5,0.2-0.8s0.3-0.4,0.4-0.6s0.4-0.3,0.7-0.4S57.6,133.2,58,133.2L58,133.2L58,133.2z"/>
		<path id="XMLID_1085_" class="st4" d="M62,133.3h1.8v4.5c0,0.3,0,0.6-0.1,0.8s-0.2,0.4-0.3,0.5s-0.2,0.2-0.4,0.3s-0.3,0.1-0.4,0.2
			s-0.2,0.1-0.3,0.1s-0.1,0-0.2,0c-0.3,0-0.5,0-0.7-0.1s-0.4-0.1-0.5-0.2c-0.2-0.1-0.3-0.2-0.4-0.3l0.6-0.6c0,0,0.1,0.1,0.1,0.1
			s0.1,0.1,0.2,0.1s0.2,0.1,0.3,0.1s0.2,0.1,0.4,0.1c0.1,0,0.2,0,0.2,0s0.1-0.1,0.2-0.1s0.1-0.1,0.1-0.2s0.1-0.1,0.1-0.2
			c0.1-0.1,0.1-0.3,0.1-0.5v-3.7H62V133.3z"/>
		<path id="XMLID_1083_" class="st4" d="M65.4,139.6v-6.4c0-0.1,0-0.3,0-0.4s0.1-0.2,0.1-0.4s0.1-0.2,0.2-0.3s0.2-0.2,0.3-0.3
			s0.2-0.2,0.2-0.3s0.1-0.2,0.1-0.2s0.1-0.1,0.1-0.2s0-0.1,0-0.2c0-0.2,0-0.3-0.1-0.4s-0.1-0.2-0.2-0.3s-0.2-0.1-0.3-0.2
			s-0.2-0.1-0.4-0.1c-0.3,0-0.4,0-0.6,0.1s-0.2,0.1-0.3,0.2c-0.1,0.1-0.1,0.1-0.1,0.2h-0.8c0,0,0,0,0,0v-0.1c0,0,0-0.1,0-0.2
			s0-0.2,0.1-0.3s0.1-0.2,0.2-0.3c0.1-0.1,0.2-0.2,0.3-0.3s0.3-0.1,0.5-0.2s0.4-0.1,0.7-0.1c0.3,0,0.5,0,0.7,0.1s0.4,0.1,0.5,0.3
			s0.2,0.2,0.3,0.3s0.1,0.3,0.2,0.4s0.1,0.3,0.1,0.4s0,0.2,0,0.3v0.1c0,0.1,0,0.2,0,0.3s0,0.2-0.1,0.3s-0.1,0.2-0.2,0.3
			s-0.2,0.3-0.3,0.4c-0.1,0.1-0.2,0.3-0.3,0.4s-0.1,0.2-0.1,0.3c0,0.1-0.1,0.2-0.1,0.3v6.4H65.4z"/>
		<path id="XMLID_1081_" class="st4" d="M72.6,133.3v4.5c0,0.3,0,0.5-0.1,0.7s-0.2,0.4-0.3,0.5s-0.3,0.2-0.4,0.3s-0.3,0.1-0.4,0.2
			s-0.3,0.1-0.4,0.1s-0.2,0-0.2,0h-1.2c-0.3,0-0.6,0-0.8-0.1s-0.4-0.1-0.6-0.3s-0.3-0.2-0.4-0.3s-0.2-0.3-0.2-0.4s-0.1-0.2-0.1-0.4
			s0-0.2,0-0.3c0-0.3,0-0.5,0.1-0.6s0.2-0.3,0.3-0.4s0.2-0.2,0.3-0.2s0.2-0.1,0.2-0.1c-0.1,0-0.2-0.1-0.3-0.1s-0.2-0.1-0.2-0.2
			s-0.1-0.1-0.2-0.2s-0.1-0.2-0.1-0.2c-0.1-0.2-0.1-0.4-0.1-0.6c0-0.2,0-0.4,0.1-0.6s0.1-0.3,0.2-0.5s0.2-0.2,0.2-0.3
			s0.2-0.2,0.3-0.2c0.2-0.1,0.5-0.2,0.8-0.2h1.3v0.9h-0.8c-0.1,0-0.3,0-0.4,0s-0.2,0.1-0.3,0.1s-0.1,0.1-0.2,0.2s-0.1,0.1-0.1,0.2
			c-0.1,0.1-0.1,0.3-0.1,0.5c0,0.2,0,0.3,0.1,0.4s0.1,0.2,0.2,0.3s0.2,0.1,0.3,0.2s0.2,0.1,0.3,0.1s0.2,0,0.2,0s0.1,0,0.1,0h0.8v0.9
			h-0.8c-0.2,0-0.3,0-0.4,0.1s-0.2,0.1-0.3,0.1s-0.1,0.1-0.2,0.2s-0.1,0.1-0.1,0.2s0,0.1,0,0.2s0,0.1,0,0.1c0,0.2,0,0.3,0.1,0.4
			s0.1,0.2,0.2,0.3s0.1,0.1,0.2,0.2s0.2,0.1,0.2,0.1s0.1,0,0.2,0s0.1,0,0.1,0h0h1.1c0.2,0,0.4,0,0.5-0.1s0.2-0.2,0.3-0.3
			c0.1-0.1,0.1-0.3,0.1-0.4v-4.5H72.6z"/>
		<path id="XMLID_1079_" class="st4" d="M74.2,138.8H75l-0.6,2.3h-0.8L74.2,138.8z"/>
		<path id="XMLID_1077_" class="st4" d="M82.7,133.4c0.3,0.1,0.5,0.2,0.7,0.4s0.3,0.3,0.4,0.5s0.2,0.4,0.2,0.6s0.1,0.3,0.1,0.5
			s0,0.2,0,0.3v0.1v3.8h-0.9v-3.8c0-0.2,0-0.4-0.1-0.5s-0.1-0.3-0.2-0.4s-0.2-0.2-0.2-0.3s-0.2-0.1-0.3-0.2
			c-0.2-0.1-0.5-0.2-0.8-0.2c-0.2,0-0.3,0-0.5,0.1s-0.3,0.1-0.4,0.2s-0.2,0.2-0.3,0.2s-0.1,0.2-0.2,0.3c-0.1,0.2-0.2,0.5-0.2,0.8
			v0.6c0.4-0.2,0.8-0.3,1.2-0.3c0.2,0,0.4,0,0.6,0.1v1c-0.1,0-0.2-0.1-0.3-0.1s-0.2,0-0.3,0c-0.3,0-0.5,0.1-0.8,0.2
			c-0.1,0.1-0.2,0.2-0.3,0.3s-0.1,0.2-0.2,0.3v1.7h-0.9v-3.9c0-0.4,0.1-0.7,0.2-1s0.2-0.5,0.4-0.7s0.3-0.3,0.5-0.4s0.4-0.2,0.6-0.2
			s0.3-0.1,0.5-0.1s0.2,0,0.3,0h0.1C82.1,133.2,82.4,133.3,82.7,133.4z"/>
		<path id="XMLID_1075_" class="st4" d="M86.3,133.3v3.9c0,0.3,0,0.5,0.1,0.7s0.2,0.3,0.3,0.4s0.2,0.2,0.3,0.3s0.2,0.1,0.4,0.1
			s0.2,0,0.3,0.1s0.1,0,0.2,0c0.2,0,0.4,0,0.6-0.1s0.3-0.2,0.4-0.3s0.2-0.2,0.3-0.4s0.1-0.3,0.1-0.4s0-0.2,0.1-0.3s0-0.1,0-0.2v-3.9
			h0.9v6.3h-0.9v-0.9c0,0.1,0,0.2-0.1,0.3s-0.1,0.2-0.2,0.2s-0.1,0.1-0.2,0.2s-0.2,0.1-0.3,0.1c-0.2,0.1-0.5,0.1-0.7,0.1h-0.2
			c-0.4,0-0.7,0-0.9-0.1s-0.5-0.2-0.6-0.4s-0.3-0.3-0.4-0.5s-0.2-0.4-0.2-0.5s-0.1-0.3-0.1-0.5s0-0.3,0-0.3v-0.1v-3.9H86.3z"/>
		<path id="XMLID_1073_" class="st4" d="M97.3,133.3v4.8c0,0.3-0.1,0.6-0.3,0.8c-0.1,0.1-0.1,0.2-0.2,0.3s-0.2,0.2-0.3,0.3
			s-0.3,0.1-0.4,0.2s-0.4,0.1-0.6,0.1c-0.2,0-0.3,0-0.4-0.1s-0.3-0.1-0.4-0.2s-0.2-0.2-0.2-0.3s-0.1-0.3-0.1-0.4
			c0,0.2,0,0.3-0.1,0.4s-0.1,0.2-0.2,0.3s-0.2,0.1-0.4,0.2s-0.3,0.1-0.4,0.1c-0.2,0-0.4,0-0.6-0.1s-0.3-0.1-0.4-0.2
			s-0.2-0.2-0.3-0.3s-0.2-0.2-0.2-0.3c-0.1-0.2-0.2-0.5-0.3-0.8v-4.8h0.9v4.4c0,0.3,0,0.5,0.1,0.6s0.1,0.3,0.2,0.3s0.2,0.1,0.3,0.1
			s0.2,0,0.2,0h0c0.2,0,0.3,0,0.4-0.1s0.2-0.2,0.2-0.3s0.1-0.2,0.1-0.3s0-0.2,0-0.3v-0.1v-4.4h0.8v4.4v0.1c0,0.1,0,0.1,0,0.3
			s0,0.2,0.1,0.3s0.1,0.2,0.2,0.3s0.2,0.1,0.4,0.1h0c0,0,0.1,0,0.2,0s0.2-0.1,0.3-0.1s0.2-0.2,0.2-0.3s0.1-0.4,0.1-0.6v-4.4H97.3z"
			/>
		<path id="XMLID_1071_" class="st4" d="M96.9,131.6v0.9h-3.5v-0.9H96.9z"/>
		<path id="XMLID_1069_" class="st4" d="M99.3,139.6h-0.9v-6.3h0.9V139.6z"/>
		<path id="XMLID_1067_" class="st4" d="M105.7,133.2c0,0,0,0.1-0.1,0.2s-0.2,0.2-0.2,0.3s-0.2,0.2-0.3,0.3s-0.2,0.1-0.2,0.1
			c0.1,0.2,0.2,0.3,0.3,0.5s0.1,0.3,0.2,0.5s0.1,0.3,0.1,0.4s0,0.2,0,0.3v0.1v3.8h-0.9v-3.8c0-0.2,0-0.4-0.1-0.5s-0.1-0.3-0.2-0.4
			s-0.2-0.2-0.2-0.3s-0.2-0.1-0.3-0.2c-0.2-0.1-0.5-0.2-0.8-0.2c-0.2,0-0.3,0-0.5,0.1s-0.3,0.1-0.4,0.2s-0.2,0.2-0.3,0.2
			s-0.1,0.2-0.2,0.3c-0.1,0.2-0.2,0.5-0.2,0.8v0.6c0.2-0.1,0.4-0.2,0.6-0.2s0.4-0.1,0.6-0.1c0.2,0,0.4,0,0.6,0.1v1
			c-0.1,0-0.2-0.1-0.3-0.1s-0.2,0-0.3,0c-0.3,0-0.5,0.1-0.8,0.2c-0.1,0.1-0.2,0.2-0.3,0.3s-0.1,0.2-0.2,0.3v1.7h-0.9v-3.9
			c0-0.4,0.1-0.7,0.2-1s0.2-0.5,0.4-0.7s0.3-0.3,0.5-0.4s0.4-0.2,0.6-0.2s0.3-0.1,0.5-0.1s0.2,0,0.3,0h0.1c0.2,0,0.3,0,0.5,0
			s0.3,0,0.4,0.1c0,0,0.1,0,0.2,0s0.2-0.1,0.3-0.1s0.3-0.1,0.4-0.2s0.2-0.3,0.3-0.4c0.1,0.1,0.2,0.2,0.3,0.3c0,0,0.1,0.1,0.1,0.1
			s0.1,0.1,0.1,0.1S105.7,133.1,105.7,133.2C105.7,133.2,105.7,133.2,105.7,133.2z"/>
		<path id="XMLID_1065_" class="st4" d="M112.1,136.4h-0.6v1c0,0.4-0.2,0.8-0.3,1.1c-0.1,0.1-0.2,0.3-0.3,0.4s-0.3,0.3-0.4,0.4
			s-0.4,0.2-0.6,0.3s-0.5,0.1-0.8,0.1c-0.3,0-0.6,0-0.8-0.1s-0.4-0.1-0.6-0.3s-0.3-0.2-0.4-0.4s-0.2-0.3-0.3-0.4
			c-0.2-0.3-0.3-0.7-0.3-1.1v-4.2h0.9v4.2c0,0.2,0,0.3,0.1,0.5s0.1,0.2,0.2,0.3s0.2,0.2,0.2,0.2s0.2,0.1,0.3,0.2
			c0.2,0.1,0.5,0.2,0.8,0.2c0.3,0,0.5-0.1,0.8-0.2c0.1,0,0.2-0.1,0.3-0.2s0.2-0.1,0.2-0.2s0.1-0.2,0.2-0.3s0.1-0.3,0.1-0.5v-1h-1.1
			c-0.1,0-0.2,0-0.2-0.1s-0.1-0.1-0.1-0.1c0-0.1-0.1-0.1-0.1-0.2V135h0.9v0.5h0.6v-2.3h0.9v2.3h0.6V136.4z"/>
	</g>
</g>
</svg>
