<?xml version="1.0" encoding="utf-8"?>
<!-- Generator: Adobe Illustrator 19.0.0, SVG Export Plug-In . SVG Version: 6.00 Build 0)  -->
<svg version="1.1" id="Layer_1" xmlns="http://www.w3.org/2000/svg" xmlns:xlink="http://www.w3.org/1999/xlink" x="0px" y="0px"
	 viewBox="0 0 165.3 167.3" style="enable-background:new 0 0 165.3 167.3;" xml:space="preserve">
<style type="text/css">
	.st0{fill:#FFFFFF;}
	.st1{fill:#A01D4F;}
	.st2{fill:#CD202B;}
	.st3{fill:#E4E4E4;}
	.st4{fill:none;stroke:#FFFFFF;stroke-width:0.5;stroke-miterlimit:10;}
	.st5{fill:#404040;stroke:#404040;stroke-width:0.5;stroke-miterlimit:10;}
	.st6{fill:#404040;}
</style>
<polygon id="XMLID_4061_" class="st0" points="19.2,167.3 19.2,147.5 0,167.3 "/>
<rect id="XMLID_4060_" x="16.7" y="0" class="st1" width="148.7" height="167"/>
<rect id="XMLID_4078_" x="16.7" y="106.5" class="st0" width="148.7" height="60.8"/>
<g id="XMLID_9313_">
	<circle id="XMLID_9314_" class="st2" cx="30.2" cy="119.2" r="4"/>
	<path id="XMLID_9315_" class="st2" d="M26.1,119.2h8.1v10.1C34.2,129.3,26.1,124.4,26.1,119.2z"/>
	<circle id="XMLID_2547_" class="st2" cx="38.2" cy="119" r="4"/>
	<path id="XMLID_2546_" class="st2" d="M42.2,119h-8.1v10.1C34.2,129.1,42.2,124.2,42.2,119z"/>
</g>
<g id="XMLID_9325_">
	<g id="XMLID_9326_">
		<path id="XMLID_2544_" class="st3" d="M72.8,22.1l-10.2,1.8c-2.2,0-4,1.5-4,3.3v64.1c0,1.8,1.8,3.3,4,3.3h33.1V16.5H78.2
			L72.8,22.1"/>
		<path id="XMLID_2543_" class="st3" d="M109.4,22.1l10.2,1.8c2.2,0,4,1.5,4,3.3v64.1c0,1.8-1.8,3.3-4,3.3H86.5V16.4h17.4
			L109.4,22.1"/>
		<line id="XMLID_2542_" class="st4" x1="91.1" y1="94.5" x2="91.1" y2="30.1"/>
		<polygon id="XMLID_2541_" class="st1" points="120.2,62.1 111.6,65 103.1,62.1 103.1,45.9 120.2,45.9 		"/>
		<line id="XMLID_2540_" class="st4" x1="78.6" y1="16.5" x2="103.1" y2="16.5"/>
		
			<rect id="XMLID_2539_" x="78.1" y="16.7" transform="matrix(0.7071 -0.7071 0.7071 0.7071 5.7217 65.5114)" class="st4" width="7.7" height="18.2"/>
		
			<rect id="XMLID_2538_" x="96" y="17.1" transform="matrix(-0.7071 -0.7071 0.7071 -0.7071 152.1499 114.6462)" class="st4" width="7.7" height="17.5"/>
		<circle id="XMLID_2537_" class="st1" cx="96.9" cy="42.5" r="1.3"/>
		<circle id="XMLID_2536_" class="st1" cx="96.9" cy="50.1" r="1.3"/>
		<circle id="XMLID_2535_" class="st1" cx="96.9" cy="57.6" r="1.3"/>
		<circle id="XMLID_2534_" class="st1" cx="96.9" cy="65.2" r="1.3"/>
		<circle id="XMLID_2533_" class="st1" cx="96.9" cy="72.8" r="1.3"/>
		<circle id="XMLID_2532_" class="st1" cx="96.9" cy="80.4" r="1.3"/>
		<circle id="XMLID_2531_" class="st1" cx="96.9" cy="88" r="1.3"/>
	</g>
</g>
<g id="XMLID_1_">
	<g id="XMLID_807_">
		<path id="XMLID_867_" class="st5" d="M51.2,129.1h-1.1v-7.2h1.1V129.1z"/>
		<path id="XMLID_865_" class="st5" d="M58.4,121.8c0,0,0,0.1-0.1,0.1s-0.1,0.1-0.1,0.2s-0.1,0.1-0.2,0.2s-0.2,0.1-0.2,0.2
			c-0.1,0.1-0.1,0.1-0.2,0.2c-0.1,0-0.1,0.1-0.2,0.1c0.1,0.2,0.3,0.4,0.3,0.6s0.1,0.4,0.2,0.6c0,0.2,0.1,0.3,0.1,0.5s0,0.2,0,0.3
			v0.1v4.4h-1.1V127c0-0.2,0-0.4-0.1-0.5c-0.1-0.1-0.2-0.3-0.4-0.3c-0.1-0.1-0.3-0.2-0.5-0.2c-0.2-0.1-0.3-0.1-0.5-0.1
			c-0.1,0-0.3,0-0.5,0c0,0-0.1,0-0.1,0c-0.1,0-0.2,0-0.3,0s-0.2,0.1-0.3,0.1c-0.1,0-0.2,0.1-0.4,0.2c-0.1,0.1-0.2,0.2-0.3,0.3
			c-0.1,0.1-0.2,0.3-0.2,0.5c0,0,0,0.1,0,0.1c0,0,0,0.1,0,0.1c0,0.2,0,0.3,0.1,0.4c0.1,0.1,0.2,0.2,0.3,0.3c0.1,0.1,0.2,0.1,0.4,0.2
			s0.3,0.1,0.4,0.1c0.1,0,0.3,0,0.4,0c0.1,0,0.2,0,0.3,0h0.1v1h-1.2c-0.3,0-0.5-0.1-0.7-0.2s-0.4-0.3-0.6-0.4
			c-0.2-0.2-0.3-0.4-0.4-0.6c-0.1-0.2-0.1-0.5-0.1-0.8c0-0.3,0.1-0.5,0.2-0.8s0.3-0.5,0.6-0.8c0.2-0.2,0.3-0.3,0.5-0.4
			c0.2-0.1,0.3-0.2,0.5-0.2c0.2-0.1,0.3-0.1,0.5-0.1c0.2,0,0.3,0,0.5,0c0.2,0,0.5,0,0.7,0.1c0.2,0,0.4,0.1,0.6,0.2
			c0.2,0.1,0.4,0.1,0.5,0.2v-0.4c0-0.2,0-0.4-0.1-0.6c0-0.2-0.1-0.3-0.2-0.4c-0.1-0.1-0.2-0.2-0.3-0.3c-0.1-0.1-0.2-0.2-0.3-0.2
			c-0.3-0.1-0.5-0.2-0.9-0.2c-0.3,0-0.5,0.1-0.7,0.2c-0.2,0.1-0.4,0.2-0.5,0.4s-0.2,0.3-0.3,0.5c-0.1,0.2-0.1,0.3-0.2,0.4h-1.1
			c0-0.4,0.1-0.7,0.2-1c0.1-0.3,0.3-0.5,0.5-0.7c0.2-0.2,0.4-0.3,0.6-0.4c0.2-0.1,0.4-0.2,0.6-0.2c0.2-0.1,0.4-0.1,0.5-0.1
			c0.2,0,0.3,0,0.3,0h0.1c0.3,0,0.7,0,1,0.1c0.2,0,0.4-0.1,0.5-0.2c0.1-0.1,0.3-0.2,0.5-0.3s0.3-0.3,0.4-0.5l0.4,0.4
			c0,0,0.1,0.1,0.1,0.1c0,0,0.1,0.1,0.1,0.1C58.3,121.7,58.3,121.7,58.4,121.8C58.4,121.8,58.4,121.8,58.4,121.8z"/>
		<path id="XMLID_863_" class="st5" d="M57.7,119.3v1.8h-4.4v-1h1.8v-0.7h1v0.7h0.6v-0.7H57.7z"/>
		<path id="XMLID_861_" class="st5" d="M57.6,117.3v1h-3V117h-0.5v-1h1.1c0.1,0,0.2,0,0.2,0.1c0.1,0,0.1,0.1,0.2,0.1
			c0,0.1,0.1,0.2,0.1,0.3v0.9H57.6z"/>
		<path id="XMLID_859_" class="st5" d="M64.8,126.6c0,0.5-0.2,0.9-0.4,1.3c-0.1,0.2-0.2,0.3-0.3,0.5c-0.1,0.2-0.3,0.3-0.5,0.4
			c-0.2,0.1-0.4,0.2-0.7,0.3c-0.3,0.1-0.6,0.1-0.9,0.1c-0.3,0-0.6,0-0.9-0.1c-0.3-0.1-0.5-0.2-0.7-0.3c-0.2-0.1-0.4-0.3-0.5-0.4
			c-0.1-0.2-0.3-0.3-0.3-0.5c-0.2-0.4-0.3-0.8-0.4-1.3v-1.5h2v1h-0.9v0.5c0,0.2,0,0.4,0.1,0.5c0,0.2,0.1,0.3,0.2,0.4
			c0.1,0.1,0.2,0.2,0.3,0.3c0.1,0.1,0.2,0.1,0.3,0.2c0.3,0.1,0.5,0.2,0.9,0.2c0.3,0,0.6-0.1,0.9-0.2c0.1,0,0.2-0.1,0.3-0.2
			c0.1-0.1,0.2-0.2,0.3-0.3c0.1-0.1,0.1-0.2,0.2-0.4c0-0.2,0.1-0.3,0.1-0.5v-2.2c0-0.2,0-0.4-0.1-0.5c0-0.1-0.1-0.3-0.2-0.4
			s-0.2-0.2-0.3-0.3c-0.1-0.1-0.2-0.1-0.3-0.2c-0.3-0.1-0.5-0.2-0.9-0.2h-0.1c-0.1,0-0.2,0-0.3,0c-0.1,0-0.3,0.1-0.5,0.2
			c-0.2,0.1-0.3,0.2-0.5,0.3c-0.1,0.1-0.3,0.3-0.3,0.6h-1.1c0-0.1,0.1-0.3,0.1-0.4c0.1-0.2,0.1-0.3,0.2-0.5c0.1-0.2,0.2-0.3,0.3-0.5
			s0.3-0.3,0.5-0.4c0.2-0.1,0.4-0.2,0.7-0.3s0.6-0.1,0.9-0.1c0.3,0,0.6,0,0.9,0.1c0.3,0.1,0.5,0.2,0.7,0.3s0.4,0.3,0.5,0.4
			c0.1,0.2,0.3,0.3,0.3,0.5c0.2,0.4,0.3,0.8,0.4,1.3V126.6z"/>
		<path id="XMLID_857_" class="st5" d="M72.5,121.9v5.5c0,0.3-0.1,0.7-0.3,0.9c-0.1,0.1-0.2,0.2-0.3,0.3c-0.1,0.1-0.2,0.2-0.4,0.3
			c-0.1,0.1-0.3,0.2-0.5,0.2c-0.2,0.1-0.4,0.1-0.6,0.1c-0.2,0-0.3,0-0.5-0.1c-0.2,0-0.3-0.1-0.4-0.2s-0.2-0.2-0.3-0.3
			c-0.1-0.1-0.1-0.3-0.1-0.5c0,0.2,0,0.3-0.1,0.5c-0.1,0.1-0.2,0.3-0.3,0.3c-0.1,0.1-0.3,0.2-0.4,0.2s-0.3,0.1-0.5,0.1
			c-0.2,0-0.5,0-0.6-0.1s-0.4-0.1-0.5-0.2c-0.1-0.1-0.3-0.2-0.4-0.3c-0.1-0.1-0.2-0.2-0.2-0.3c-0.2-0.3-0.3-0.6-0.3-0.9v-5.5h1.7v1
			H67v4c0,0.3,0,0.6,0.1,0.7c0.1,0.2,0.2,0.3,0.3,0.4c0.1,0.1,0.2,0.1,0.3,0.1c0.1,0,0.2,0,0.2,0h0c0.2,0,0.3,0,0.4-0.1
			c0.1-0.1,0.2-0.2,0.2-0.3c0.1-0.1,0.1-0.3,0.1-0.4c0-0.1,0-0.2,0-0.3V127v-5h1v5v0.1c0,0.1,0,0.2,0,0.3c0,0.1,0.1,0.3,0.1,0.4
			c0.1,0.1,0.1,0.2,0.3,0.3c0.1,0.1,0.3,0.1,0.4,0.1h0.1c0,0,0.1,0,0.2,0c0.1,0,0.2-0.1,0.3-0.1c0.1-0.1,0.2-0.2,0.3-0.4
			c0.1-0.2,0.1-0.4,0.1-0.7v-5H72.5z"/>
		<path id="XMLID_855_" class="st5" d="M72.4,120v1h-3v-1.4h-0.5v-1H70c0.1,0,0.2,0,0.2,0.1c0.1,0,0.1,0.1,0.2,0.1
			c0,0.1,0.1,0.2,0.1,0.3v0.9H72.4z"/>
		<path id="XMLID_853_" class="st5" d="M74.8,121.9c0,0,0.1,0,0.2,0s0.2,0,0.4,0.1s0.3,0.1,0.5,0.2c0.2,0.1,0.3,0.2,0.4,0.4
			s0.2,0.4,0.3,0.6c0.1,0.2,0.1,0.5,0.1,0.9v5.1h-1.1V124c0-0.2,0-0.4-0.1-0.5c0-0.1-0.1-0.1-0.1-0.2s-0.1-0.1-0.1-0.2
			c-0.1,0-0.1-0.1-0.2-0.1c-0.1,0-0.2,0-0.3,0c-0.2,0-0.3,0-0.5,0.1c-0.1,0-0.2,0.1-0.3,0.1c-0.1,0.1-0.1,0.1-0.2,0.2
			c0,0.1-0.1,0.1-0.1,0.1l-0.7-0.8c0.1-0.1,0.3-0.3,0.4-0.4c0.1-0.1,0.3-0.2,0.6-0.3C74.2,121.9,74.5,121.9,74.8,121.9z"/>
		<path id="XMLID_851_" class="st6" d="M52.4,137.2c0.1,0,0.3,0,0.5,0.1s0.4,0.1,0.6,0.2s0.4,0.2,0.5,0.4s0.3,0.4,0.4,0.7
			s0.2,0.6,0.2,1v3.9h-0.9v-1.7c0-0.1-0.1-0.2-0.2-0.3s-0.2-0.2-0.3-0.3c-0.1-0.1-0.2-0.1-0.3-0.2s-0.3-0.1-0.4-0.1
			c-0.1,0-0.2,0-0.3,0s-0.2,0-0.3,0.1v-1c0.2,0,0.4-0.1,0.6-0.1c0.4,0,0.8,0.1,1.2,0.3v-0.6c0-0.3-0.1-0.5-0.2-0.8
			c-0.1-0.1-0.1-0.2-0.2-0.3s-0.2-0.2-0.3-0.2s-0.2-0.1-0.4-0.2s-0.3-0.1-0.5-0.1c-0.3,0-0.5,0.1-0.8,0.2c-0.1,0-0.2,0.1-0.3,0.2
			s-0.2,0.2-0.2,0.3s-0.1,0.2-0.2,0.4s-0.1,0.3-0.1,0.5h-0.9v-0.1c0-0.1,0-0.2,0-0.3s0-0.3,0.1-0.5s0.1-0.4,0.2-0.6s0.2-0.4,0.4-0.5
			s0.4-0.3,0.7-0.4s0.6-0.2,1-0.2h0.1C52.1,137.2,52.2,137.2,52.4,137.2z"/>
		<path id="XMLID_848_" class="st6" d="M56.3,137.8v0.5h1.6v0.9h-2.1c-0.1,0-0.2,0-0.2-0.1s-0.1-0.1-0.1-0.1c0-0.1-0.1-0.1-0.1-0.2
			v-0.9H56.3z M56.3,141.6v0.5h1.6v0.9h-2.1c-0.1,0-0.2,0-0.2-0.1s-0.1-0.1-0.1-0.1c0-0.1-0.1-0.1-0.1-0.2v-0.9H56.3z"/>
		<path id="XMLID_846_" class="st6" d="M63.7,141.4c0,0.4-0.1,0.8-0.3,1.1c-0.1,0.1-0.2,0.3-0.3,0.4s-0.3,0.3-0.4,0.4
			s-0.4,0.2-0.6,0.3s-0.5,0.1-0.8,0.1c-0.3,0-0.6,0-0.8-0.1s-0.4-0.1-0.6-0.3s-0.3-0.2-0.4-0.4s-0.2-0.3-0.3-0.4
			c-0.2-0.3-0.3-0.7-0.3-1.1v-1.3h1.8v0.9h-0.8v0.4c0,0.2,0,0.3,0.1,0.5s0.1,0.2,0.2,0.3s0.2,0.2,0.2,0.2s0.2,0.1,0.3,0.2
			c0.2,0.1,0.5,0.2,0.8,0.2c0.3,0,0.5-0.1,0.8-0.2c0.1,0,0.2-0.1,0.3-0.2s0.2-0.1,0.2-0.2s0.1-0.2,0.2-0.3s0.1-0.3,0.1-0.5v-1.9
			c0-0.2,0-0.3-0.1-0.4s-0.1-0.2-0.2-0.3s-0.2-0.2-0.2-0.2s-0.2-0.1-0.3-0.2c-0.2-0.1-0.5-0.2-0.8-0.2h-0.1c-0.1,0-0.2,0-0.3,0
			s-0.3,0.1-0.4,0.1s-0.3,0.2-0.4,0.3s-0.2,0.3-0.3,0.5h-0.9c0-0.1,0.1-0.2,0.1-0.4s0.1-0.3,0.2-0.4s0.2-0.3,0.3-0.4
			s0.3-0.3,0.4-0.4s0.4-0.2,0.6-0.2s0.5-0.1,0.8-0.1c0.3,0,0.6,0,0.8,0.1s0.4,0.2,0.6,0.3s0.3,0.2,0.4,0.4s0.2,0.3,0.3,0.4
			c0.2,0.3,0.3,0.7,0.3,1.1V141.4z"/>
		<path id="XMLID_844_" class="st6" d="M69.4,137.2v4.5c0,0.3,0,0.5-0.1,0.7s-0.2,0.4-0.3,0.5s-0.3,0.2-0.4,0.3s-0.3,0.1-0.4,0.2
			s-0.3,0.1-0.4,0.1s-0.2,0-0.2,0h-1.2c-0.3,0-0.6,0-0.8-0.1s-0.4-0.1-0.6-0.3s-0.3-0.2-0.4-0.3s-0.2-0.3-0.2-0.4s-0.1-0.2-0.1-0.4
			s0-0.2,0-0.3c0-0.3,0-0.5,0.1-0.6s0.2-0.3,0.3-0.4s0.2-0.2,0.3-0.2s0.2-0.1,0.2-0.1c-0.1,0-0.2-0.1-0.3-0.1s-0.2-0.1-0.2-0.2
			s-0.1-0.1-0.2-0.2s-0.1-0.2-0.1-0.2c-0.1-0.2-0.1-0.4-0.1-0.6c0-0.2,0-0.4,0.1-0.6s0.1-0.3,0.2-0.5s0.2-0.2,0.2-0.3
			s0.2-0.2,0.3-0.2c0.2-0.1,0.5-0.2,0.8-0.2H67v0.9h-0.8c-0.1,0-0.3,0-0.4,0s-0.2,0.1-0.3,0.1s-0.1,0.1-0.2,0.2s-0.1,0.1-0.1,0.2
			c-0.1,0.1-0.1,0.3-0.1,0.5c0,0.2,0,0.3,0.1,0.4s0.1,0.2,0.2,0.3s0.2,0.1,0.3,0.2s0.2,0.1,0.3,0.1s0.2,0,0.2,0s0.1,0,0.1,0H67v0.9
			h-0.8c-0.2,0-0.3,0-0.4,0.1s-0.2,0.1-0.3,0.1s-0.1,0.1-0.2,0.2s-0.1,0.1-0.1,0.2s0,0.1,0,0.2s0,0.1,0,0.1c0,0.2,0,0.3,0.1,0.4
			s0.1,0.2,0.2,0.3s0.1,0.1,0.2,0.2s0.2,0.1,0.2,0.1s0.1,0,0.2,0s0.1,0,0.1,0h0h1.1c0.2,0,0.4,0,0.5-0.1s0.2-0.2,0.3-0.3
			c0.1-0.1,0.1-0.3,0.1-0.4v-4.5H69.4z"/>
		<path id="XMLID_842_" class="st6" d="M69.2,144v1.6c0,0.1,0,0.2-0.1,0.3c-0.1,0.1-0.2,0.1-0.3,0.1h-1.2c-0.1,0-0.2,0-0.3-0.1
			c-0.1-0.1-0.1-0.2-0.1-0.3v-0.9h-0.4V144h0.7c0.1,0,0.2,0,0.3,0.1c0,0,0.1,0.1,0.1,0.1s0,0.1,0,0.1v0.9h0.5V144H69.2z"/>
		<path id="XMLID_840_" class="st6" d="M68.8,134.7v1.8h-0.9v-1.8H68.8z"/>
		<path id="XMLID_838_" class="st6" d="M71.6,143.5h-0.9v-6.3h0.9V143.5z"/>
		<path id="XMLID_836_" class="st6" d="M76.2,137.3c0.3,0.1,0.5,0.2,0.7,0.4s0.3,0.3,0.4,0.5s0.2,0.4,0.2,0.6s0.1,0.3,0.1,0.5
			s0,0.2,0,0.3v0.1v3.8h-0.9v-3.8c0-0.2,0-0.4-0.1-0.5s-0.1-0.3-0.2-0.4s-0.2-0.2-0.2-0.3s-0.2-0.1-0.3-0.2
			c-0.2-0.1-0.5-0.2-0.8-0.2c-0.2,0-0.3,0-0.5,0.1s-0.3,0.1-0.4,0.2s-0.2,0.2-0.3,0.2s-0.1,0.2-0.2,0.3c-0.1,0.2-0.2,0.5-0.2,0.8
			v0.6c0.4-0.2,0.8-0.3,1.2-0.3c0.2,0,0.4,0,0.6,0.1v1c-0.1,0-0.2-0.1-0.3-0.1s-0.2,0-0.3,0c-0.3,0-0.5,0.1-0.8,0.2
			c-0.1,0.1-0.2,0.2-0.3,0.3s-0.1,0.2-0.2,0.3v1.7h-0.9v-3.9c0-0.4,0.1-0.7,0.2-1s0.2-0.5,0.4-0.7s0.3-0.3,0.5-0.4s0.4-0.2,0.6-0.2
			s0.3-0.1,0.5-0.1s0.2,0,0.3,0h0.1C75.6,137.2,76,137.2,76.2,137.3z"/>
		<path id="XMLID_834_" class="st6" d="M76.9,135v1.4h-3.5v-0.9h2.6V135H76.9z"/>
		<path id="XMLID_832_" class="st6" d="M83.6,137.2v4.5c0,0.3,0,0.5-0.1,0.7s-0.2,0.4-0.3,0.5s-0.3,0.2-0.4,0.3s-0.3,0.1-0.4,0.2
			s-0.3,0.1-0.4,0.1s-0.2,0-0.2,0h-1.2c-0.3,0-0.6,0-0.8-0.1s-0.4-0.1-0.6-0.3s-0.3-0.2-0.4-0.3s-0.2-0.3-0.2-0.4s-0.1-0.2-0.1-0.4
			s0-0.2,0-0.3c0-0.3,0-0.5,0.1-0.6s0.2-0.3,0.3-0.4s0.2-0.2,0.3-0.2s0.2-0.1,0.2-0.1c-0.1,0-0.2-0.1-0.3-0.1s-0.2-0.1-0.2-0.2
			s-0.1-0.1-0.2-0.2s-0.1-0.2-0.1-0.2c-0.1-0.2-0.1-0.4-0.1-0.6c0-0.2,0-0.4,0.1-0.6s0.1-0.3,0.2-0.5s0.2-0.2,0.2-0.3
			s0.2-0.2,0.3-0.2c0.2-0.1,0.5-0.2,0.8-0.2h1.3v0.9h-0.8c-0.1,0-0.3,0-0.4,0s-0.2,0.1-0.3,0.1s-0.1,0.1-0.2,0.2s-0.1,0.1-0.1,0.2
			c-0.1,0.1-0.1,0.3-0.1,0.5c0,0.2,0,0.3,0.1,0.4s0.1,0.2,0.2,0.3s0.2,0.1,0.3,0.2s0.2,0.1,0.3,0.1s0.2,0,0.2,0s0.1,0,0.1,0h0.8v0.9
			h-0.8c-0.2,0-0.3,0-0.4,0.1s-0.2,0.1-0.3,0.1s-0.1,0.1-0.2,0.2s-0.1,0.1-0.1,0.2s0,0.1,0,0.2s0,0.1,0,0.1c0,0.2,0,0.3,0.1,0.4
			s0.1,0.2,0.2,0.3s0.1,0.1,0.2,0.2s0.2,0.1,0.2,0.1s0.1,0,0.2,0s0.1,0,0.1,0h0h1.1c0.2,0,0.4,0,0.5-0.1s0.2-0.2,0.3-0.3
			c0.1-0.1,0.1-0.3,0.1-0.4v-4.5H83.6z"/>
		<path id="XMLID_830_" class="st6" d="M85.7,137.2h1.8v4.5c0,0.3,0,0.6-0.1,0.8s-0.2,0.4-0.3,0.5s-0.2,0.2-0.4,0.3
			s-0.3,0.1-0.4,0.2s-0.2,0.1-0.3,0.1s-0.1,0-0.2,0c-0.3,0-0.5,0-0.7-0.1s-0.4-0.1-0.5-0.2c-0.2-0.1-0.3-0.2-0.4-0.3l0.6-0.6
			c0,0,0.1,0.1,0.1,0.1s0.1,0.1,0.2,0.1s0.2,0.1,0.3,0.1s0.2,0.1,0.4,0.1c0.1,0,0.2,0,0.2,0s0.1-0.1,0.2-0.1s0.1-0.1,0.1-0.2
			s0.1-0.1,0.1-0.2c0.1-0.1,0.1-0.3,0.1-0.5v-3.7h-0.9V137.2z"/>
		<path id="XMLID_828_" class="st6" d="M93,137.2v4.2c0,0.4,0,0.6-0.1,0.9s-0.2,0.4-0.4,0.6s-0.3,0.3-0.5,0.4s-0.4,0.2-0.5,0.2
			s-0.3,0.1-0.4,0.1s-0.2,0-0.2,0c-0.4,0-0.7,0-0.9-0.1s-0.5-0.2-0.6-0.4s-0.3-0.3-0.4-0.5s-0.2-0.4-0.2-0.5s-0.1-0.3-0.1-0.4
			s0-0.2,0-0.2c0-0.2,0-0.4,0.1-0.6s0.1-0.3,0.2-0.4s0.2-0.3,0.3-0.4s0.2-0.2,0.3-0.3s0.2-0.2,0.2-0.3s0.1-0.2,0.1-0.3
			c0,0,0-0.1,0-0.1s0,0,0-0.1c0-0.1,0-0.3-0.1-0.4s-0.1-0.2-0.2-0.2s-0.2-0.1-0.3-0.2s-0.2-0.1-0.3-0.1s-0.2,0-0.2,0s-0.1,0-0.2,0
			h-0.1v-0.9H89c0.3,0,0.5,0,0.7,0.1s0.3,0.2,0.5,0.3s0.2,0.2,0.3,0.4s0.1,0.3,0.2,0.4s0.1,0.3,0.1,0.4s0,0.2,0,0.3c0,0,0,0,0,0.1
			s0,0,0,0v0c0,0.1,0,0.2-0.1,0.3s-0.1,0.2-0.2,0.3c-0.1,0.1-0.1,0.2-0.2,0.3c-0.2,0.2-0.3,0.4-0.4,0.5s-0.2,0.3-0.2,0.4
			s-0.1,0.2-0.1,0.3s0,0.1,0,0.1c0,0.2,0,0.4,0.1,0.5s0.1,0.3,0.2,0.4s0.2,0.2,0.3,0.2s0.2,0.1,0.3,0.1s0.2,0,0.2,0s0.1,0,0.1,0
			c0.2,0,0.4,0,0.5-0.1s0.3-0.1,0.4-0.2s0.2-0.2,0.2-0.3s0.1-0.2,0.1-0.3s0.1-0.2,0.1-0.3s0-0.1,0-0.1v-4.2H93z"/>
		<path id="XMLID_826_" class="st6" d="M93,135.6v0.9h-2.6v-1.2h-0.5v-0.9h0.9c0.1,0,0.1,0,0.2,0.1c0.1,0,0.1,0.1,0.1,0.1
			s0.1,0.1,0.1,0.2v0.8H93z"/>
		<path id="XMLID_824_" class="st6" d="M95.1,137.2c0,0,0.1,0,0.2,0s0.2,0,0.3,0.1s0.3,0.1,0.4,0.2s0.3,0.2,0.4,0.3s0.2,0.3,0.3,0.5
			s0.1,0.5,0.1,0.8v4.5h-0.9V139c0-0.2,0-0.3-0.1-0.5c0-0.1-0.1-0.1-0.1-0.2s-0.1-0.1-0.1-0.1s-0.1-0.1-0.2-0.1s-0.1,0-0.2,0
			c-0.2,0-0.3,0-0.4,0.1s-0.2,0.1-0.3,0.1s-0.1,0.1-0.2,0.1s-0.1,0.1-0.1,0.1l-0.6-0.7c0.1-0.1,0.2-0.2,0.4-0.3
			c0.1-0.1,0.3-0.2,0.5-0.2S94.8,137.2,95.1,137.2z"/>
		<path id="XMLID_822_" class="st6" d="M98.8,137.2h1.8v4.5c0,0.3,0,0.6-0.1,0.8s-0.2,0.4-0.3,0.5s-0.2,0.2-0.4,0.3
			s-0.3,0.1-0.4,0.2s-0.2,0.1-0.3,0.1s-0.1,0-0.2,0c-0.3,0-0.5,0-0.7-0.1s-0.4-0.1-0.5-0.2c-0.2-0.1-0.3-0.2-0.4-0.3l0.6-0.6
			c0,0,0.1,0.1,0.1,0.1s0.1,0.1,0.2,0.1s0.2,0.1,0.3,0.1s0.2,0.1,0.4,0.1c0.1,0,0.2,0,0.2,0s0.1-0.1,0.2-0.1s0.1-0.1,0.1-0.2
			s0.1-0.1,0.1-0.2c0.1-0.1,0.1-0.3,0.1-0.5v-3.7h-0.9V137.2z"/>
		<path id="XMLID_820_" class="st6" d="M105.2,137.3c0.3,0.1,0.5,0.2,0.7,0.4s0.3,0.3,0.4,0.5s0.2,0.4,0.2,0.6s0.1,0.3,0.1,0.5
			s0,0.2,0,0.3v0.1v3.8h-0.9v-3.8c0-0.2,0-0.4-0.1-0.5s-0.1-0.3-0.2-0.4s-0.2-0.2-0.2-0.3s-0.2-0.1-0.3-0.2
			c-0.2-0.1-0.5-0.2-0.8-0.2c-0.2,0-0.3,0-0.5,0.1s-0.3,0.1-0.4,0.2s-0.2,0.2-0.3,0.2s-0.1,0.2-0.2,0.3c-0.1,0.2-0.2,0.5-0.2,0.8
			v0.6c0.4-0.2,0.8-0.3,1.2-0.3c0.2,0,0.4,0,0.6,0.1v1c-0.1,0-0.2-0.1-0.3-0.1s-0.2,0-0.3,0c-0.3,0-0.5,0.1-0.8,0.2
			c-0.1,0.1-0.2,0.2-0.3,0.3s-0.1,0.2-0.2,0.3v1.7h-0.9v-3.9c0-0.4,0.1-0.7,0.2-1s0.2-0.5,0.4-0.7s0.3-0.3,0.5-0.4s0.4-0.2,0.6-0.2
			s0.3-0.1,0.5-0.1s0.2,0,0.3,0h0.1C104.6,137.2,104.9,137.2,105.2,137.3z"/>
		<path id="XMLID_818_" class="st6" d="M105.5,145h-0.4v-0.9h0.9c0.1,0,0.2,0,0.3,0.1c0.1,0.1,0.1,0.2,0.1,0.3v1.8h-0.9V145z"/>
		<path id="XMLID_816_" class="st6" d="M116.7,137.2v6.3h-0.9v-0.9c0,0.1,0,0.2-0.1,0.3s-0.1,0.2-0.2,0.2s-0.2,0.1-0.2,0.2
			s-0.2,0.1-0.3,0.1c-0.2,0.1-0.5,0.1-0.7,0.1h-0.2c-0.4,0-0.7,0-0.9-0.1s-0.5-0.2-0.6-0.4s-0.3-0.3-0.4-0.5s-0.2-0.4-0.2-0.5
			s-0.1-0.3-0.1-0.5s0-0.3,0-0.3c0-0.1,0-0.1,0-0.1v-1.5c0-0.3,0-0.5-0.1-0.6s-0.2-0.3-0.3-0.4s-0.2-0.2-0.3-0.3s-0.2-0.1-0.4-0.1
			s-0.2,0-0.3,0s-0.1,0-0.2,0c-0.2,0-0.4,0-0.5,0.1s-0.3,0.1-0.4,0.2s-0.2,0.2-0.3,0.2s-0.1,0.2-0.2,0.3c-0.1,0.2-0.2,0.5-0.2,0.7
			v1.9c0,0.2,0.1,0.4,0.1,0.5c0,0.1,0.1,0.1,0.1,0.2s0.1,0.1,0.2,0.2s0.2,0.1,0.3,0.1s0.2,0,0.4,0h0.7v0.9h-1.3
			c-0.3,0-0.5-0.1-0.7-0.2c-0.1-0.1-0.2-0.1-0.3-0.2s-0.2-0.2-0.2-0.3s-0.1-0.3-0.2-0.5s-0.1-0.4-0.1-0.6v-0.1v-2.9
			c0.1-0.2,0.3-0.4,0.4-0.6s0.3-0.3,0.5-0.4s0.3-0.2,0.5-0.3s0.3-0.1,0.4-0.1s0.3-0.1,0.4-0.1s0.2,0,0.2,0h0.1c0.4,0,0.7,0.1,1,0.2
			s0.5,0.3,0.7,0.4s0.3,0.4,0.4,0.6s0.2,0.4,0.2,0.6s0.1,0.3,0.1,0.5s0,0.2,0,0.2v1.5c0,0.3,0,0.5,0.1,0.7s0.2,0.3,0.3,0.4
			s0.2,0.2,0.3,0.3s0.2,0.1,0.4,0.1s0.2,0,0.3,0.1s0.1,0,0.2,0c0.2,0,0.4,0,0.6-0.1s0.3-0.2,0.4-0.3s0.2-0.2,0.3-0.4
			s0.1-0.3,0.1-0.4s0-0.2,0.1-0.3s0-0.1,0-0.2v-3.9H116.7z"/>
		<path id="XMLID_814_" class="st6" d="M118.9,143.5h-0.9v-6.3h0.9V143.5z"/>
		<path id="XMLID_812_" class="st6" d="M125.1,137.1C125.1,137.2,125.1,137.2,125.1,137.1c-0.1,0.1-0.1,0.2-0.2,0.3
			s-0.1,0.1-0.2,0.2s-0.1,0.1-0.2,0.2s-0.1,0.1-0.2,0.1s-0.1,0.1-0.1,0.1c0.1,0.2,0.2,0.3,0.3,0.5s0.1,0.3,0.2,0.5s0.1,0.3,0.1,0.4
			s0,0.2,0,0.3v0.1v3.8h-0.9v-1.9c0-0.2,0-0.3-0.1-0.5s-0.2-0.2-0.3-0.3s-0.3-0.1-0.4-0.2s-0.3-0.1-0.4-0.1s-0.3,0-0.4,0
			c0,0,0,0-0.1,0s-0.1,0-0.2,0s-0.2,0.1-0.3,0.1s-0.2,0.1-0.3,0.2s-0.2,0.2-0.3,0.3s-0.1,0.3-0.2,0.4c0,0,0,0.1,0,0.1s0,0,0,0.1
			c0,0.1,0,0.2,0.1,0.3s0.2,0.2,0.3,0.2s0.2,0.1,0.3,0.2s0.3,0.1,0.4,0.1s0.2,0,0.3,0s0.2,0,0.2,0h0.1v0.9h-1.1
			c-0.2,0-0.4,0-0.6-0.1s-0.4-0.2-0.5-0.4s-0.3-0.3-0.3-0.6s-0.1-0.4-0.1-0.7c0-0.2,0.1-0.5,0.2-0.7s0.3-0.5,0.5-0.7
			c0.1-0.1,0.3-0.2,0.4-0.3s0.3-0.2,0.5-0.2s0.3-0.1,0.5-0.1s0.3,0,0.4,0c0.2,0,0.4,0,0.6,0.1s0.4,0.1,0.5,0.1
			c0.2,0.1,0.3,0.1,0.4,0.2v-0.4c0-0.2,0-0.4-0.1-0.5s-0.1-0.3-0.2-0.4s-0.2-0.2-0.2-0.3s-0.2-0.1-0.3-0.2c-0.2-0.1-0.5-0.2-0.8-0.2
			c-0.3,0-0.5,0-0.6,0.1s-0.3,0.2-0.4,0.3s-0.2,0.3-0.3,0.4s-0.1,0.3-0.1,0.4h-1c0-0.3,0.1-0.6,0.2-0.9s0.2-0.4,0.4-0.6
			s0.3-0.3,0.5-0.4s0.4-0.2,0.5-0.2s0.3-0.1,0.5-0.1s0.2,0,0.3,0h0.1c0.3,0,0.6,0,0.9,0.1c0.2,0,0.3-0.1,0.5-0.1
			c0.1-0.1,0.3-0.1,0.4-0.2s0.3-0.3,0.3-0.4l0.3,0.3c0,0,0.1,0.1,0.1,0.1s0.1,0.1,0.1,0.1S125,137.1,125.1,137.1
			C125.1,137.1,125.1,137.1,125.1,137.1z"/>
		<path id="XMLID_810_" class="st6" d="M130.8,137.2v3.9v0.1c0,0.1,0,0.2,0,0.3s0,0.3-0.1,0.5s-0.1,0.4-0.2,0.5s-0.2,0.4-0.4,0.5
			s-0.4,0.3-0.6,0.4s-0.5,0.1-0.9,0.1h-0.2c-0.3,0-0.5-0.1-0.7-0.1c-0.1,0-0.2-0.1-0.3-0.1s-0.2-0.1-0.2-0.2s-0.1-0.1-0.2-0.2
			s-0.1-0.2-0.1-0.3v0.9h-0.9v-6.3h0.9v3.9c0,0,0,0.1,0,0.2s0,0.2,0.1,0.3s0.1,0.2,0.1,0.4s0.1,0.3,0.3,0.4s0.2,0.2,0.4,0.3
			s0.4,0.1,0.6,0.1c0,0,0.1,0,0.2,0s0.2,0,0.3-0.1s0.2-0.1,0.4-0.1s0.2-0.2,0.3-0.3s0.2-0.3,0.3-0.4s0.1-0.4,0.1-0.7v-3.9H130.8z"/>
		<path id="XMLID_808_" class="st6" d="M136.8,141.4c0,0.4-0.1,0.8-0.3,1.1c-0.1,0.1-0.2,0.3-0.3,0.4s-0.3,0.3-0.4,0.4
			s-0.4,0.2-0.6,0.3s-0.5,0.1-0.8,0.1c-0.3,0-0.6,0-0.8-0.1s-0.4-0.1-0.6-0.3s-0.3-0.2-0.4-0.4s-0.2-0.3-0.3-0.4
			c-0.2-0.3-0.3-0.7-0.3-1.1v-1.3h1.8v0.9h-0.8v0.4c0,0.2,0,0.3,0.1,0.5s0.1,0.2,0.2,0.3s0.2,0.2,0.2,0.2s0.2,0.1,0.3,0.2
			c0.2,0.1,0.5,0.2,0.8,0.2c0.3,0,0.5-0.1,0.8-0.2c0.1,0,0.2-0.1,0.3-0.2s0.2-0.1,0.2-0.2s0.1-0.2,0.2-0.3s0.1-0.3,0.1-0.5v-1.9
			c0-0.2,0-0.3-0.1-0.4s-0.1-0.2-0.2-0.3s-0.2-0.2-0.2-0.2s-0.2-0.1-0.3-0.2c-0.2-0.1-0.5-0.2-0.8-0.2h-0.1c-0.1,0-0.2,0-0.3,0
			s-0.3,0.1-0.4,0.1s-0.3,0.2-0.4,0.3s-0.2,0.3-0.3,0.5h-0.9c0-0.1,0.1-0.2,0.1-0.4s0.1-0.3,0.2-0.4s0.2-0.3,0.3-0.4
			s0.3-0.3,0.4-0.4s0.4-0.2,0.6-0.2s0.5-0.1,0.8-0.1c0.3,0,0.6,0,0.8,0.1s0.4,0.2,0.6,0.3s0.3,0.2,0.4,0.4s0.2,0.3,0.3,0.4
			c0.2,0.3,0.3,0.7,0.3,1.1V141.4z"/>
	</g>
</g>
</svg>
