<?xml version="1.0" encoding="utf-8"?>
<!-- Generator: Adobe Illustrator 19.0.0, SVG Export Plug-In . SVG Version: 6.00 Build 0)  -->
<svg version="1.1" id="Layer_1" xmlns="http://www.w3.org/2000/svg" xmlns:xlink="http://www.w3.org/1999/xlink" x="0px" y="0px"
	 viewBox="0 0 166 167" style="enable-background:new 0 0 166 167;" xml:space="preserve">
<style type="text/css">
	.st0{fill:#125B7C;}
	.st1{fill:#FFFFFF;}
	.st2{fill:#CD202B;}
	.st3{fill:#197696;}
	.st4{fill:#D14C27;}
	.st5{fill:#8F878B;}
	.st6{fill:#EF972A;}
	.st7{fill:#F7B85B;}
	.st8{fill:#E17D26;}
	.st9{fill:#F9F9FA;}
	.st10{fill:#B7B7B7;}
	.st11{fill:#404040;stroke:#404040;stroke-width:0.5;stroke-miterlimit:10;}
	.st12{fill:#404040;}
</style>
<rect id="XMLID_12761_" x="0" y="0" class="st0" width="150" height="159.7"/>
<polygon id="XMLID_12760_" class="st1" points="146.8,166.9 146.8,147.8 166,167 "/>
<rect id="XMLID_12759_" x="0" y="95.6" class="st1" width="150" height="71.3"/>
<g id="XMLID_12750_">
	<circle id="XMLID_12754_" class="st2" cx="15" cy="107.6" r="4"/>
	<path id="XMLID_12753_" class="st2" d="M10.9,107.6H19v10.1C19,117.6,10.9,112.7,10.9,107.6z"/>
	<circle id="XMLID_12752_" class="st2" cx="23" cy="107.4" r="4"/>
	<path id="XMLID_12751_" class="st2" d="M27,107.4H19v10.1C19,117.5,27,112.5,27,107.4z"/>
</g>
<g id="XMLID_12728_">
	<circle id="XMLID_12749_" class="st3" cx="79.6" cy="48.7" r="42.9"/>
	<g id="XMLID_12737_">
		<polygon id="XMLID_12748_" class="st4" points="70.9,29.9 64.3,23.2 72.3,12.9 81.4,12.9 81.4,33.7 		"/>
		<polygon id="XMLID_12747_" class="st4" points="86.4,29.9 93.1,23.2 85,12.9 76,12.9 76,33.7 		"/>
		<path id="XMLID_12746_" class="st5" d="M102,53.2c0,1-0.1,2-0.2,2.9c-1.4,12.1-11.7,21.4-24.2,21.4c-13.4,0-24.4-10.9-24.4-24.3
			c0-13.4,10.9-24.4,24.4-24.4c11.9,0,21.7,8.5,23.9,19.7c0.2,1,0.3,1.9,0.4,2.9v0C102,52.1,102,52.6,102,53.2z"/>
		<polygon id="XMLID_12745_" class="st6" points="64.3,23.2 93.1,23.2 85,12.9 72.3,12.9 		"/>
		<polygon id="XMLID_12744_" class="st7" points="72.3,12.9 78.7,23.2 85,12.9 		"/>
		<polygon id="XMLID_12743_" class="st8" points="72.3,12.9 67.7,23.2 78.7,23.2 		"/>
		<polygon id="XMLID_12742_" class="st8" points="85,12.9 89.7,23.2 78.7,23.2 		"/>
		<polygon id="XMLID_12741_" class="st9" points="101.6,48.6 94.3,48.6 94.3,51.5 102,51.5 		"/>
		<path id="XMLID_12740_" class="st9" d="M102,53.2c0,1-0.1,2-0.2,2.9h-7.5v-2.9H102z"/>
		<circle id="XMLID_12739_" class="st10" cx="77.7" cy="52.8" r="21.5"/>
		<circle id="XMLID_12738_" class="st3" cx="77.7" cy="52.8" r="17.3"/>
	</g>
	<g id="XMLID_12729_">
		<path id="XMLID_12736_" class="st7" d="M48.9,3.3c0,0-0.7,3.5-4.2,4c3.5,0.5,4.2,4,4.2,4s0.7-3.5,4.2-4
			C49.6,6.8,48.9,3.3,48.9,3.3"/>
		<path id="XMLID_12735_" class="st7" d="M59.1,22.8c0,0-0.7,3.5-4.2,4c3.5,0.5,4.2,4,4.2,4s0.7-3.5,4.2-4
			C59.8,26.3,59.1,22.8,59.1,22.8"/>
		<path id="XMLID_12732_" class="st7" d="M43.8,12.9c0,0-1.7,8.7-10.3,9.9c8.6,1.3,10.3,9.9,10.3,9.9s1.7-8.7,10.3-9.9
			C45.5,21.6,43.8,12.9,43.8,12.9 M43.8,15.5c0.3,0.7,0.7,1.5,1.2,2.3c1.5,2.3,3.5,4,5.9,5c-2.4,1-4.4,2.7-5.9,5
			c-0.5,0.8-0.9,1.6-1.2,2.3c-0.3-0.7-0.7-1.5-1.2-2.3c-1.5-2.3-3.5-4-5.9-5c2.4-1,4.4-2.7,5.9-5C43.1,17,43.5,16.2,43.8,15.5"/>
		<path id="XMLID_12731_" class="st7" d="M37.4,17.4c-0.4-0.8-1.1-1.9-2.4-2.5c1.3-0.6,2-1.7,2.4-2.5c0.4,0.8,1.1,1.9,2.4,2.5
			C38.5,15.5,37.8,16.6,37.4,17.4z"/>
		<circle id="XMLID_12730_" class="st7" cx="52.1" cy="33.1" r="2"/>
	</g>
</g>
<g id="XMLID_12_">
	<g id="XMLID_1207_">
		<path id="XMLID_1317_" class="st11" d="M39.6,111.4h-1.1v-7.3h1.1V111.4z"/>
		<path id="XMLID_1315_" class="st11" d="M45,104.2c0.3,0.1,0.6,0.3,0.8,0.5s0.4,0.4,0.5,0.6c0.1,0.2,0.2,0.4,0.3,0.7
			s0.1,0.4,0.1,0.6s0,0.3,0,0.4v0.1v4.5h-1.1v-4.5c0-0.2,0-0.4-0.1-0.6s-0.1-0.3-0.2-0.5c-0.1-0.1-0.2-0.2-0.3-0.3
			c-0.1-0.1-0.2-0.2-0.3-0.2c-0.3-0.1-0.6-0.2-0.9-0.2c-0.2,0-0.4,0-0.6,0.1c-0.2,0.1-0.3,0.1-0.4,0.2s-0.2,0.2-0.3,0.3
			s-0.2,0.2-0.2,0.3c-0.1,0.3-0.2,0.6-0.3,0.9v0.7c0.4-0.3,0.9-0.4,1.4-0.4c0.2,0,0.5,0,0.7,0.1v1.1c-0.1,0-0.2-0.1-0.3-0.1
			c-0.1,0-0.2,0-0.4,0c-0.3,0-0.6,0.1-0.9,0.2c-0.1,0.1-0.2,0.2-0.3,0.3c-0.1,0.1-0.2,0.3-0.2,0.4v2H41v-4.5c0-0.5,0.1-0.8,0.2-1.2
			s0.3-0.6,0.5-0.8s0.4-0.4,0.6-0.5c0.2-0.1,0.4-0.2,0.6-0.3c0.2-0.1,0.4-0.1,0.6-0.1c0.2,0,0.3,0,0.4,0h0.1
			C44.3,104,44.7,104.1,45,104.2z"/>
		<path id="XMLID_1313_" class="st11" d="M52.2,106l-0.5-0.3c-0.1-0.1-0.2-0.1-0.4-0.2s-0.3-0.1-0.4-0.2s-0.3-0.1-0.4-0.1
			s-0.2,0-0.3,0c-0.2,0-0.3,0-0.5,0s-0.3,0.1-0.4,0.2s-0.2,0.2-0.3,0.3c-0.1,0.1-0.1,0.3-0.1,0.5s0.1,0.4,0.2,0.5
			c0.1,0.1,0.3,0.2,0.5,0.3c0.2,0.1,0.4,0.1,0.7,0.2s0.5,0.1,0.7,0.1s0.5,0.1,0.7,0.2s0.4,0.3,0.6,0.4s0.3,0.4,0.4,0.6
			s0.2,0.5,0.2,0.7c0,0.4-0.1,0.7-0.2,1s-0.3,0.5-0.6,0.7c-0.2,0.2-0.5,0.3-0.8,0.4c-0.3,0.1-0.7,0.1-1,0.1c-0.5,0-0.9-0.1-1.3-0.2
			c-0.4-0.1-0.6-0.2-0.9-0.4c-0.3-0.2-0.5-0.3-0.7-0.5l0.7-0.7c0.1,0.1,0.2,0.2,0.3,0.3s0.3,0.2,0.5,0.2s0.4,0.1,0.6,0.2
			s0.4,0.1,0.7,0.1c0.2,0,0.4,0,0.6-0.1s0.3-0.1,0.5-0.2s0.2-0.2,0.3-0.4s0.1-0.3,0.1-0.5c0-0.2,0-0.3-0.1-0.4s-0.1-0.2-0.2-0.3
			c-0.1-0.1-0.2-0.1-0.2-0.1s-0.1,0-0.2-0.1c0,0-0.1,0-0.2,0s-0.3,0-0.4-0.1s-0.3-0.1-0.5-0.1s-0.3-0.1-0.4-0.1
			c-0.1,0-0.1,0-0.2-0.1s-0.2-0.1-0.3-0.1c-0.1-0.1-0.2-0.1-0.4-0.2c-0.1-0.1-0.2-0.2-0.3-0.4s-0.2-0.3-0.2-0.5s-0.1-0.4-0.1-0.7
			c0-0.4,0.1-0.7,0.2-1s0.3-0.5,0.6-0.7s0.5-0.3,0.8-0.4s0.6-0.1,0.9-0.1c0.3,0,0.6,0,0.8,0.1c0.2,0.1,0.5,0.1,0.6,0.2
			c0.2,0.1,0.4,0.2,0.6,0.3l0.6,0.4L52.2,106z"/>
		<path id="XMLID_1311_" class="st11" d="M52.3,101.4v1.8h-4.5v-1h1.8v-0.8h1v0.8h0.6v-0.8H52.3z"/>
		<path id="XMLID_1309_" class="st11" d="M51.9,98.3v2.1h-1v-2.1H51.9z"/>
		<path id="XMLID_1307_" class="st11" d="M59.5,108.9c0,0.5-0.2,0.9-0.4,1.3c-0.1,0.2-0.2,0.3-0.3,0.5s-0.3,0.3-0.5,0.4
			s-0.4,0.2-0.7,0.3s-0.6,0.1-0.9,0.1c-0.4,0-0.7,0-0.9-0.1s-0.5-0.2-0.7-0.3s-0.4-0.3-0.5-0.4c-0.1-0.2-0.3-0.3-0.3-0.5
			c-0.2-0.4-0.3-0.8-0.4-1.3v-1.5h2.1v1h-1v0.5c0,0.2,0,0.4,0.1,0.5s0.1,0.3,0.2,0.4c0.1,0.1,0.2,0.2,0.3,0.3
			c0.1,0.1,0.2,0.1,0.3,0.2c0.3,0.1,0.6,0.2,0.9,0.2c0.3,0,0.6-0.1,0.9-0.2c0.1-0.1,0.2-0.1,0.3-0.2c0.1-0.1,0.2-0.2,0.3-0.3
			c0.1-0.1,0.2-0.2,0.2-0.4s0.1-0.3,0.1-0.5v-2.2c0-0.2,0-0.4-0.1-0.5s-0.1-0.3-0.2-0.4c-0.1-0.1-0.2-0.2-0.3-0.3
			c-0.1-0.1-0.2-0.1-0.3-0.2c-0.3-0.1-0.6-0.2-0.9-0.2h-0.1c-0.1,0-0.2,0-0.3,0s-0.3,0.1-0.5,0.2c-0.2,0.1-0.3,0.2-0.5,0.3
			s-0.3,0.3-0.3,0.6h-1.1c0-0.1,0.1-0.3,0.1-0.4s0.1-0.3,0.2-0.5s0.2-0.3,0.4-0.5c0.1-0.2,0.3-0.3,0.5-0.4s0.4-0.2,0.7-0.3
			s0.6-0.1,0.9-0.1c0.3,0,0.7,0,0.9,0.1s0.5,0.2,0.7,0.3s0.4,0.3,0.5,0.4s0.3,0.3,0.3,0.5c0.2,0.4,0.3,0.8,0.4,1.3V108.9z"/>
		<path id="XMLID_1305_" class="st11" d="M61.6,104.1h2.1v5.3c0,0.4,0,0.6-0.1,0.9s-0.2,0.4-0.3,0.6c-0.1,0.2-0.3,0.3-0.4,0.4
			c-0.2,0.1-0.3,0.2-0.5,0.2s-0.3,0.1-0.4,0.1c-0.1,0-0.2,0-0.2,0c-0.3,0-0.6,0-0.8-0.1s-0.4-0.2-0.6-0.3c-0.2-0.1-0.3-0.3-0.4-0.4
			l0.7-0.7c0,0,0.1,0.1,0.1,0.1c0.1,0.1,0.1,0.1,0.2,0.2c0.1,0.1,0.2,0.1,0.3,0.1c0.1,0,0.3,0.1,0.4,0.1c0.1,0,0.2,0,0.3,0
			c0.1,0,0.2-0.1,0.2-0.1s0.1-0.1,0.2-0.2s0.1-0.1,0.1-0.2c0.1-0.2,0.1-0.4,0.1-0.6v-4.3h-1V104.1z"/>
		<path id="XMLID_1303_" class="st11" d="M70.7,101.4v7.5c0,0.5-0.2,0.9-0.4,1.3c-0.1,0.2-0.2,0.3-0.3,0.5c-0.1,0.2-0.3,0.3-0.5,0.4
			s-0.4,0.2-0.7,0.3s-0.6,0.1-0.9,0.1c-0.4,0-0.7,0-0.9-0.1s-0.5-0.2-0.7-0.3s-0.4-0.3-0.5-0.4c-0.1-0.2-0.3-0.3-0.3-0.5
			c-0.2-0.4-0.3-0.8-0.4-1.3v-4.8H66v4.8c0,0.2,0,0.4,0.1,0.5s0.1,0.3,0.2,0.4c0.1,0.1,0.2,0.2,0.3,0.3c0.1,0.1,0.2,0.1,0.3,0.2
			c0.3,0.1,0.6,0.2,0.9,0.2c0.3,0,0.6-0.1,0.9-0.2c0.1,0,0.2-0.1,0.3-0.2c0.1-0.1,0.2-0.2,0.3-0.3c0.1-0.1,0.2-0.2,0.2-0.4
			s0.1-0.3,0.1-0.5v-7.5H70.7z"/>
		<path id="XMLID_1301_" class="st11" d="M76.2,106l-0.5-0.3c-0.1-0.1-0.2-0.1-0.4-0.2s-0.3-0.1-0.4-0.2s-0.3-0.1-0.4-0.1
			s-0.2,0-0.3,0c-0.2,0-0.3,0-0.5,0s-0.3,0.1-0.4,0.2s-0.2,0.2-0.3,0.3c-0.1,0.1-0.1,0.3-0.1,0.5s0.1,0.4,0.2,0.5
			c0.1,0.1,0.3,0.2,0.5,0.3c0.2,0.1,0.4,0.1,0.7,0.2s0.5,0.1,0.7,0.1s0.5,0.1,0.7,0.2s0.4,0.3,0.6,0.4s0.3,0.4,0.4,0.6
			s0.2,0.5,0.2,0.7c0,0.4-0.1,0.7-0.2,1s-0.3,0.5-0.6,0.7c-0.2,0.2-0.5,0.3-0.8,0.4c-0.3,0.1-0.7,0.1-1,0.1c-0.5,0-0.9-0.1-1.3-0.2
			c-0.4-0.1-0.6-0.2-0.9-0.4c-0.3-0.2-0.5-0.3-0.7-0.5l0.7-0.7c0.1,0.1,0.2,0.2,0.3,0.3s0.3,0.2,0.5,0.2s0.4,0.1,0.6,0.2
			s0.4,0.1,0.7,0.1c0.2,0,0.4,0,0.6-0.1s0.3-0.1,0.5-0.2s0.2-0.2,0.3-0.4s0.1-0.3,0.1-0.5c0-0.2,0-0.3-0.1-0.4s-0.1-0.2-0.2-0.3
			c-0.1-0.1-0.2-0.1-0.2-0.1s-0.1,0-0.2-0.1c0,0-0.1,0-0.2,0s-0.3,0-0.4-0.1s-0.3-0.1-0.5-0.1s-0.3-0.1-0.4-0.1
			c-0.1,0-0.1,0-0.2-0.1s-0.2-0.1-0.3-0.1c-0.1-0.1-0.2-0.1-0.4-0.2c-0.1-0.1-0.2-0.2-0.3-0.4s-0.2-0.3-0.2-0.5s-0.1-0.4-0.1-0.7
			c0-0.4,0.1-0.7,0.2-1s0.3-0.5,0.6-0.7s0.5-0.3,0.8-0.4s0.6-0.1,0.9-0.1c0.3,0,0.6,0,0.8,0.1c0.2,0.1,0.5,0.1,0.6,0.2
			c0.2,0.1,0.4,0.2,0.6,0.3l0.6,0.4L76.2,106z"/>
		<path id="XMLID_1298_" class="st11" d="M78.6,104.7v0.5h1.9v1H78c-0.1,0-0.2,0-0.3-0.1s-0.1-0.1-0.1-0.2c0-0.1-0.1-0.2-0.1-0.2
			v-1.1H78.6z M78.6,109.2v0.5h1.9v1H78c-0.1,0-0.2,0-0.3-0.1s-0.1-0.1-0.1-0.2c0-0.1-0.1-0.2-0.1-0.2v-1.1H78.6z"/>
		<path id="XMLID_1296_" class="st11" d="M86.2,111.4v-4.6c0-0.3-0.1-0.6-0.2-0.8c-0.1-0.1-0.1-0.2-0.2-0.3s-0.2-0.2-0.3-0.3
			s-0.3-0.1-0.5-0.2c-0.2,0-0.4-0.1-0.6-0.1s-0.4,0-0.6,0.1c-0.2,0-0.3,0.1-0.5,0.2s-0.2,0.2-0.3,0.3s-0.2,0.2-0.2,0.3
			c-0.1,0.2-0.2,0.5-0.2,0.8v2.4c0,0.2,0.1,0.3,0.1,0.4c0,0.1,0.1,0.2,0.2,0.4c0.1,0.1,0.2,0.2,0.3,0.3c0.2,0.1,0.3,0.2,0.4,0.2
			c0.1,0,0.3,0,0.4-0.1s0.2-0.1,0.3-0.2l0.7,0.7c-0.1,0.1-0.2,0.2-0.4,0.3c-0.1,0.1-0.3,0.1-0.4,0.2c-0.2,0.1-0.4,0.1-0.6,0.1
			c-0.1,0-0.1,0-0.2,0c-0.1,0-0.1,0-0.2,0c-0.3-0.1-0.5-0.2-0.7-0.3s-0.4-0.3-0.5-0.5c-0.1-0.2-0.2-0.4-0.3-0.7
			c-0.1-0.2-0.1-0.5-0.1-0.7v-2.4c0-0.4,0.1-0.8,0.3-1.1s0.3-0.6,0.5-0.8s0.4-0.4,0.6-0.5s0.4-0.2,0.6-0.3s0.4-0.1,0.5-0.1
			s0.3,0,0.4,0h0.1h0.1c0.1,0,0.2,0,0.4,0s0.3,0.1,0.5,0.1s0.4,0.1,0.6,0.3c0.2,0.1,0.4,0.3,0.6,0.5s0.3,0.5,0.5,0.8
			s0.2,0.7,0.3,1.1v4.6H86.2z"/>
		<path id="XMLID_1294_" class="st11" d="M85.2,101.6v0.5h2.7v1h-3.3c-0.1,0-0.2,0-0.3-0.1s-0.1-0.1-0.1-0.2c0-0.1-0.1-0.2-0.1-0.2
			v-1.1H85.2z"/>
		<path id="XMLID_1292_" class="st11" d="M94.5,104.1v4.8c0,0.5-0.2,0.9-0.4,1.3c-0.1,0.2-0.2,0.3-0.3,0.5c-0.1,0.2-0.3,0.3-0.5,0.4
			s-0.4,0.2-0.7,0.3s-0.6,0.1-0.9,0.1c-0.4,0-0.7,0-0.9-0.1s-0.5-0.2-0.7-0.3s-0.4-0.3-0.5-0.4c-0.1-0.2-0.3-0.3-0.3-0.5
			c-0.2-0.4-0.3-0.8-0.4-1.3v-4.8h1.1v4.8c0,0.2,0,0.4,0.1,0.5s0.1,0.3,0.2,0.4c0.1,0.1,0.2,0.2,0.3,0.3c0.1,0.1,0.2,0.1,0.3,0.2
			c0.3,0.1,0.6,0.2,0.9,0.2c0.3,0,0.6-0.1,0.9-0.2c0.1-0.1,0.2-0.1,0.3-0.2c0.1-0.1,0.2-0.2,0.3-0.3c0.1-0.1,0.2-0.2,0.2-0.4
			s0.1-0.3,0.1-0.5v-4.8H94.5z"/>
		<path id="XMLID_1290_" class="st12" d="M38.5,120.7h1.1v1.8H42c0.1,0,0.2-0.1,0.4-0.1c0.1-0.1,0.2-0.2,0.3-0.3
			c0.1-0.1,0.2-0.3,0.2-0.5v-1h1.1v1.1c0,0.1,0,0.1,0,0.3c0,0.1-0.1,0.2-0.1,0.3s-0.1,0.2-0.2,0.4c-0.1,0.1-0.2,0.2-0.3,0.3
			c0.1,0.1,0.3,0.3,0.4,0.5c0.1,0.1,0.2,0.3,0.3,0.5c0.1,0.2,0.1,0.5,0.1,0.7v3.1h-1.1v-3.1c0-0.1,0-0.2-0.1-0.3
			c0-0.1-0.1-0.2-0.1-0.3s-0.1-0.2-0.2-0.3c-0.1-0.1-0.2-0.2-0.3-0.2s-0.2-0.1-0.4-0.1h-2.4v4.4h-1.1V120.7z"/>
		<path id="XMLID_1288_" class="st12" d="M47.6,120.7c0.1,0,0.1,0,0.3,0c0.1,0,0.3,0,0.5,0.1s0.4,0.1,0.5,0.2
			c0.2,0.1,0.4,0.3,0.5,0.4c0.2,0.2,0.3,0.4,0.4,0.7c0.1,0.3,0.2,0.6,0.2,1v2.4c0,0.5-0.1,0.9-0.3,1.2c-0.1,0.2-0.2,0.3-0.3,0.5
			c-0.1,0.1-0.3,0.3-0.4,0.4s-0.4,0.2-0.6,0.3s-0.5,0.1-0.8,0.1c-0.3,0-0.6,0-0.8-0.1c-0.2-0.1-0.4-0.2-0.6-0.3
			c-0.2-0.1-0.3-0.3-0.4-0.4c-0.1-0.2-0.2-0.3-0.3-0.5c0,0,0.1-0.1,0.2-0.1s0.2-0.1,0.3-0.2s0.2-0.1,0.3-0.2c0.1,0,0.1-0.1,0.2-0.1
			c0.1,0.2,0.2,0.3,0.3,0.5c0.1,0.1,0.3,0.2,0.4,0.2c0.2,0.1,0.3,0.1,0.5,0.1c0.3,0,0.5-0.1,0.7-0.2c0.1,0,0.2-0.1,0.2-0.2
			s0.2-0.2,0.2-0.3c0.1-0.1,0.1-0.2,0.2-0.3s0.1-0.3,0.1-0.5v-2.4c0-0.3-0.1-0.5-0.2-0.7c0-0.1-0.1-0.2-0.2-0.3
			c-0.1-0.1-0.1-0.2-0.2-0.2c-0.1-0.1-0.2-0.1-0.3-0.2c-0.1,0-0.3-0.1-0.4-0.1c-0.2,0-0.4,0-0.6,0.1c-0.2,0-0.3,0.1-0.4,0.2
			c-0.1,0.1-0.2,0.2-0.3,0.3c-0.1,0.1-0.2,0.3-0.2,0.5h-1.1c0-0.3,0.1-0.6,0.2-0.9c0.1-0.3,0.3-0.5,0.5-0.7c0.2-0.2,0.5-0.3,0.8-0.5
			C46.7,120.7,47.1,120.7,47.6,120.7L47.6,120.7L47.6,120.7z"/>
		<path id="XMLID_1286_" class="st12" d="M47.6,118.3v0.5h2.7v1h-3.2c-0.1,0-0.2,0-0.3-0.1c-0.1,0-0.1-0.1-0.1-0.2
			c0-0.1-0.1-0.2-0.1-0.2v-1.1H47.6z"/>
		<path id="XMLID_1284_" class="st12" d="M52.1,120.7h2.1v5.2c0,0.3,0,0.6-0.1,0.9s-0.2,0.4-0.3,0.6c-0.1,0.2-0.3,0.3-0.4,0.4
			s-0.3,0.2-0.5,0.2c-0.1,0-0.3,0.1-0.4,0.1c-0.1,0-0.2,0-0.2,0c-0.3,0-0.6,0-0.8-0.1c-0.2-0.1-0.4-0.2-0.6-0.3
			c-0.2-0.1-0.3-0.2-0.4-0.4l0.7-0.7c0,0,0.1,0.1,0.1,0.1c0.1,0.1,0.1,0.1,0.2,0.2s0.2,0.1,0.3,0.1s0.3,0.1,0.4,0.1
			c0.1,0,0.2,0,0.3,0c0.1,0,0.1-0.1,0.2-0.1c0.1-0.1,0.1-0.1,0.2-0.2c0-0.1,0.1-0.1,0.1-0.2c0.1-0.2,0.1-0.3,0.1-0.6v-4.2h-1V120.7z
			"/>
		<path id="XMLID_1282_" class="st12" d="M55.9,127.9v-7.3c0-0.2,0-0.3,0.1-0.5s0.1-0.3,0.2-0.4c0.1-0.1,0.2-0.2,0.2-0.4
			c0.1-0.1,0.2-0.2,0.3-0.3c0.1-0.1,0.2-0.2,0.3-0.3c0.1-0.1,0.1-0.2,0.2-0.2c0-0.1,0.1-0.1,0.1-0.2c0-0.1,0-0.1,0-0.2
			c0-0.2,0-0.3-0.1-0.5s-0.1-0.3-0.2-0.3s-0.2-0.2-0.4-0.2c-0.1,0-0.3-0.1-0.4-0.1c-0.3,0-0.5,0-0.7,0.1c-0.2,0.1-0.3,0.1-0.3,0.2
			c-0.1,0.1-0.1,0.2-0.1,0.2H54c0,0,0,0,0,0v-0.1c0,0,0-0.1,0-0.2s0-0.2,0.1-0.3c0-0.1,0.1-0.2,0.2-0.3s0.2-0.2,0.4-0.3
			c0.2-0.1,0.3-0.2,0.6-0.2c0.2-0.1,0.5-0.1,0.8-0.1c0.3,0,0.6,0,0.9,0.1c0.2,0.1,0.4,0.2,0.6,0.3c0.2,0.1,0.3,0.3,0.4,0.4
			s0.2,0.3,0.2,0.4s0.1,0.3,0.1,0.4c0,0.1,0,0.2,0,0.3v0.1c0,0.1,0,0.2,0,0.3c0,0.1-0.1,0.2-0.1,0.3s-0.1,0.3-0.2,0.4
			c-0.1,0.1-0.2,0.3-0.3,0.5c-0.1,0.2-0.2,0.3-0.3,0.4c-0.1,0.1-0.1,0.2-0.2,0.3c0,0.1-0.1,0.2-0.1,0.3v7.3H55.9z"/>
		<path id="XMLID_1280_" class="st12" d="M58.8,120.7h1.1v1.8h2.4c0.1,0,0.2-0.1,0.4-0.1c0.1-0.1,0.2-0.2,0.3-0.3
			c0.1-0.1,0.2-0.3,0.2-0.5v-1h1.1v1.1c0,0.1,0,0.1,0,0.3c0,0.1-0.1,0.2-0.1,0.3c-0.1,0.1-0.1,0.2-0.2,0.4c-0.1,0.1-0.2,0.2-0.3,0.3
			c0.1,0.1,0.3,0.3,0.4,0.5c0.1,0.1,0.2,0.3,0.3,0.5c0.1,0.2,0.1,0.5,0.1,0.7v3.1h-1.1v-3.1c0-0.1,0-0.2-0.1-0.3
			c0-0.1-0.1-0.2-0.1-0.3c0-0.1-0.1-0.2-0.2-0.3c-0.1-0.1-0.2-0.2-0.3-0.2s-0.2-0.1-0.4-0.1h-2.4v4.4h-1.1V120.7z"/>
		<path id="XMLID_1278_" class="st12" d="M64.3,118.9v1h-3v-1.4h-0.5v-1h1.1c0.1,0,0.2,0,0.2,0.1c0.1,0,0.1,0.1,0.2,0.1
			s0.1,0.2,0.1,0.3v0.9H64.3z"/>
		<path id="XMLID_1276_" class="st12" d="M69.6,120.9c0.3,0.1,0.6,0.3,0.8,0.5c0.2,0.2,0.4,0.4,0.5,0.6c0.1,0.2,0.2,0.4,0.3,0.6
			s0.1,0.4,0.1,0.6c0,0.2,0,0.3,0,0.4v0.1v4.4h-1.1v-4.4c0-0.2,0-0.4-0.1-0.6c0-0.2-0.1-0.3-0.2-0.4s-0.2-0.2-0.3-0.3
			c-0.1-0.1-0.2-0.2-0.3-0.2c-0.3-0.1-0.5-0.2-0.9-0.2c-0.2,0-0.4,0-0.6,0.1c-0.2,0.1-0.3,0.1-0.4,0.2c-0.1,0.1-0.2,0.2-0.3,0.3
			c-0.1,0.1-0.2,0.2-0.2,0.3c-0.1,0.3-0.2,0.6-0.2,0.9v0.7c0.4-0.2,0.9-0.4,1.4-0.4c0.2,0,0.5,0,0.7,0.1v1.1c-0.1,0-0.2-0.1-0.3-0.1
			c-0.1,0-0.2,0-0.4,0c-0.3,0-0.6,0.1-0.9,0.2c-0.1,0.1-0.2,0.2-0.3,0.3s-0.2,0.3-0.2,0.4v2h-1.1v-4.5c0-0.4,0.1-0.8,0.2-1.1
			c0.1-0.3,0.3-0.6,0.4-0.8s0.4-0.4,0.6-0.5c0.2-0.1,0.4-0.2,0.6-0.3c0.2-0.1,0.4-0.1,0.6-0.1c0.2,0,0.3,0,0.4,0h0.1
			C68.9,120.7,69.3,120.7,69.6,120.9z"/>
		<path id="XMLID_1274_" class="st12" d="M74.8,120.7c0.1,0,0.1,0,0.3,0c0.1,0,0.3,0,0.5,0.1s0.4,0.1,0.5,0.2
			c0.2,0.1,0.4,0.3,0.5,0.4s0.3,0.4,0.4,0.7c0.1,0.3,0.2,0.6,0.2,1v2.4c0,0.5-0.1,0.9-0.3,1.2c-0.1,0.2-0.2,0.3-0.3,0.5
			c-0.1,0.1-0.3,0.3-0.4,0.4c-0.2,0.1-0.4,0.2-0.6,0.3c-0.2,0.1-0.5,0.1-0.8,0.1c-0.3,0-0.6,0-0.8-0.1c-0.2-0.1-0.4-0.2-0.6-0.3
			c-0.2-0.1-0.3-0.3-0.4-0.4s-0.2-0.3-0.3-0.5c0,0,0.1-0.1,0.2-0.1c0.1,0,0.2-0.1,0.3-0.2c0.1-0.1,0.2-0.1,0.3-0.2
			c0.1,0,0.1-0.1,0.2-0.1c0.1,0.2,0.2,0.3,0.3,0.5c0.1,0.1,0.3,0.2,0.4,0.2c0.2,0.1,0.3,0.1,0.5,0.1c0.3,0,0.5-0.1,0.7-0.2
			c0.1,0,0.2-0.1,0.2-0.2c0.1-0.1,0.2-0.2,0.2-0.3c0.1-0.1,0.1-0.2,0.2-0.3s0.1-0.3,0.1-0.5v-2.4c0-0.3-0.1-0.5-0.2-0.7
			c0-0.1-0.1-0.2-0.2-0.3c-0.1-0.1-0.1-0.2-0.2-0.2c-0.1-0.1-0.2-0.1-0.3-0.2c-0.1,0-0.3-0.1-0.4-0.1c-0.2,0-0.4,0-0.6,0.1
			c-0.2,0-0.3,0.1-0.4,0.2c-0.1,0.1-0.2,0.2-0.3,0.3s-0.2,0.3-0.2,0.5h-1.1c0-0.3,0.1-0.6,0.2-0.9c0.1-0.3,0.3-0.5,0.5-0.7
			c0.2-0.2,0.5-0.3,0.8-0.5C73.9,120.7,74.3,120.7,74.8,120.7L74.8,120.7L74.8,120.7z"/>
		<path id="XMLID_1272_" class="st12" d="M79.5,120.7c0,0,0.1,0,0.2,0c0.1,0,0.2,0,0.4,0.1c0.1,0,0.3,0.1,0.5,0.2
			c0.2,0.1,0.3,0.2,0.4,0.4c0.1,0.2,0.2,0.4,0.3,0.6c0.1,0.2,0.1,0.5,0.1,0.9v5.1h-1.1v-5.1c0-0.2,0-0.4-0.1-0.5
			c0-0.1-0.1-0.1-0.1-0.2c0-0.1-0.1-0.1-0.1-0.2c-0.1,0-0.1-0.1-0.2-0.1c-0.1,0-0.2,0-0.3,0c-0.2,0-0.3,0-0.5,0.1s-0.2,0.1-0.3,0.1
			c-0.1,0.1-0.1,0.1-0.2,0.2c0,0.1-0.1,0.1-0.1,0.1l-0.7-0.8c0.1-0.1,0.3-0.3,0.4-0.4c0.1-0.1,0.3-0.2,0.6-0.3
			S79.2,120.7,79.5,120.7z"/>
		<path id="XMLID_1270_" class="st12" d="M88.4,120.7v4.5v0.1c0,0.1,0,0.2,0,0.4c0,0.2,0,0.4-0.1,0.6c-0.1,0.2-0.1,0.4-0.2,0.6
			c-0.1,0.2-0.3,0.4-0.4,0.6s-0.4,0.3-0.7,0.4c-0.3,0.1-0.6,0.2-1,0.2h-0.2c-0.3,0-0.6-0.1-0.8-0.2c-0.1,0-0.2-0.1-0.3-0.1
			c-0.1-0.1-0.2-0.1-0.3-0.2c-0.1-0.1-0.1-0.2-0.2-0.3s-0.1-0.2-0.1-0.4v1h-1.1v-7.2h1.1v4.5c0,0,0,0.1,0,0.2c0,0.1,0,0.2,0.1,0.3
			c0,0.1,0.1,0.3,0.2,0.4c0.1,0.2,0.2,0.3,0.3,0.4c0.1,0.1,0.3,0.2,0.5,0.3c0.2,0.1,0.4,0.1,0.7,0.1c0,0,0.1,0,0.2,0
			c0.1,0,0.2,0,0.3-0.1c0.1,0,0.3-0.1,0.4-0.2s0.3-0.2,0.4-0.3s0.2-0.3,0.3-0.5c0.1-0.2,0.1-0.5,0.1-0.8v-4.5H88.4z"/>
		<path id="XMLID_1268_" class="st12" d="M95.6,120.6c0,0,0,0.1-0.1,0.1s-0.1,0.1-0.1,0.2c-0.1,0.1-0.1,0.1-0.2,0.2
			c-0.1,0.1-0.2,0.1-0.2,0.2c-0.1,0.1-0.1,0.1-0.2,0.2c-0.1,0-0.1,0.1-0.2,0.1c0.1,0.2,0.3,0.4,0.3,0.6c0.1,0.2,0.1,0.4,0.2,0.6
			c0,0.2,0.1,0.3,0.1,0.5c0,0.1,0,0.2,0,0.3v0.1v4.4h-1.1v-2.1c0-0.2,0-0.4-0.1-0.5s-0.2-0.3-0.4-0.3c-0.1-0.1-0.3-0.2-0.5-0.2
			c-0.2-0.1-0.3-0.1-0.5-0.1c-0.1,0-0.3,0-0.5-0.1c0,0-0.1,0-0.1,0c-0.1,0-0.2,0-0.3,0c-0.1,0-0.2,0.1-0.3,0.1
			c-0.1,0-0.2,0.1-0.4,0.2c-0.1,0.1-0.2,0.2-0.3,0.3s-0.2,0.3-0.2,0.5c0,0,0,0.1,0,0.1c0,0,0,0.1,0,0.1c0,0.2,0,0.3,0.1,0.4
			c0.1,0.1,0.2,0.2,0.3,0.3c0.1,0.1,0.2,0.1,0.4,0.2c0.1,0,0.3,0.1,0.4,0.1c0.1,0,0.3,0,0.4,0s0.2,0,0.3,0h0.1v1h-1.2
			c-0.3,0-0.5-0.1-0.7-0.2c-0.2-0.1-0.4-0.3-0.6-0.4c-0.2-0.2-0.3-0.4-0.4-0.6c-0.1-0.2-0.1-0.5-0.1-0.8c0-0.3,0.1-0.5,0.2-0.8
			c0.1-0.3,0.3-0.5,0.6-0.8c0.2-0.2,0.3-0.3,0.5-0.4c0.2-0.1,0.3-0.2,0.5-0.2c0.2-0.1,0.3-0.1,0.5-0.1c0.2,0,0.3,0,0.5,0
			c0.2,0,0.5,0,0.7,0.1c0.2,0,0.4,0.1,0.6,0.2c0.2,0.1,0.4,0.1,0.5,0.2v-0.4c0-0.2,0-0.4-0.1-0.6c0-0.2-0.1-0.3-0.2-0.4
			s-0.2-0.2-0.3-0.3c-0.1-0.1-0.2-0.2-0.3-0.2c-0.3-0.1-0.5-0.2-0.9-0.2c-0.3,0-0.5,0.1-0.7,0.2c-0.2,0.1-0.4,0.2-0.5,0.4
			c-0.1,0.1-0.2,0.3-0.3,0.5c-0.1,0.2-0.1,0.3-0.2,0.4h-1.1c0-0.4,0.1-0.7,0.2-1c0.1-0.3,0.3-0.5,0.5-0.7c0.2-0.2,0.4-0.3,0.6-0.4
			c0.2-0.1,0.4-0.2,0.6-0.2c0.2-0.1,0.4-0.1,0.5-0.1c0.2,0,0.3,0,0.3,0h0.1c0.3,0,0.7,0,1,0.1c0.2,0,0.4-0.1,0.5-0.2
			c0.1-0.1,0.3-0.2,0.5-0.3s0.3-0.3,0.4-0.5l0.4,0.4c0,0,0.1,0.1,0.1,0.1c0,0,0.1,0.1,0.1,0.1C95.5,120.5,95.5,120.5,95.6,120.6
			C95.5,120.6,95.6,120.6,95.6,120.6z"/>
		<path id="XMLID_1266_" class="st12" d="M93,118.3v0.5h2.7v1h-3.2c-0.1,0-0.2,0-0.3-0.1c-0.1,0-0.1-0.1-0.1-0.2
			c0-0.1-0.1-0.2-0.1-0.2v-1.1H93z"/>
		<path id="XMLID_1264_" class="st12" d="M102.1,120.7v4.5v0.1c0,0.1,0,0.2,0,0.4c0,0.2,0,0.4-0.1,0.6c-0.1,0.2-0.1,0.4-0.2,0.6
			c-0.1,0.2-0.3,0.4-0.4,0.6s-0.4,0.3-0.7,0.4c-0.3,0.1-0.6,0.2-1,0.2h-0.2c-0.3,0-0.6-0.1-0.8-0.2c-0.1,0-0.2-0.1-0.3-0.1
			c-0.1-0.1-0.2-0.1-0.3-0.2c-0.1-0.1-0.1-0.2-0.2-0.3s-0.1-0.2-0.1-0.4v1h-1.1v-7.2h1.1v4.5c0,0,0,0.1,0,0.2s0,0.2,0.1,0.3
			c0,0.1,0.1,0.3,0.2,0.4c0.1,0.2,0.2,0.3,0.3,0.4c0.1,0.1,0.3,0.2,0.5,0.3c0.2,0.1,0.4,0.1,0.7,0.1c0,0,0.1,0,0.2,0
			c0.1,0,0.2,0,0.3-0.1c0.1,0,0.3-0.1,0.4-0.2c0.1-0.1,0.3-0.2,0.4-0.3s0.2-0.3,0.3-0.5c0.1-0.2,0.1-0.5,0.1-0.8v-4.5H102.1z"/>
		<path id="XMLID_1262_" class="st12" d="M110.1,120.7v5.5c0,0.3-0.1,0.7-0.3,0.9c-0.1,0.1-0.2,0.2-0.3,0.3s-0.2,0.2-0.4,0.3
			c-0.1,0.1-0.3,0.2-0.5,0.2c-0.2,0.1-0.4,0.1-0.6,0.1c-0.2,0-0.3,0-0.5-0.1c-0.2,0-0.3-0.1-0.4-0.2c-0.1-0.1-0.2-0.2-0.3-0.3
			c-0.1-0.1-0.1-0.3-0.1-0.5c0,0.2,0,0.3-0.1,0.5c-0.1,0.1-0.2,0.3-0.3,0.3c-0.1,0.1-0.3,0.2-0.4,0.2c-0.2,0-0.3,0.1-0.5,0.1
			c-0.2,0-0.5,0-0.6-0.1c-0.2-0.1-0.4-0.1-0.5-0.2c-0.1-0.1-0.3-0.2-0.4-0.3s-0.2-0.2-0.2-0.3c-0.2-0.3-0.3-0.6-0.3-0.9v-5.5h1.1v5
			c0,0.3,0,0.6,0.1,0.7c0.1,0.2,0.2,0.3,0.3,0.4c0.1,0.1,0.2,0.1,0.3,0.1c0.1,0,0.2,0,0.2,0h0c0.2,0,0.3,0,0.4-0.1s0.2-0.2,0.2-0.3
			c0.1-0.1,0.1-0.3,0.1-0.4c0-0.1,0-0.2,0-0.3v-0.1v-5h1v5v0.1c0,0.1,0,0.2,0,0.3c0,0.1,0.1,0.3,0.1,0.4c0.1,0.1,0.1,0.2,0.2,0.3
			c0.1,0.1,0.3,0.1,0.4,0.1h0.1c0,0,0.1,0,0.2,0c0.1,0,0.2-0.1,0.3-0.1c0.1-0.1,0.2-0.2,0.3-0.4c0.1-0.2,0.1-0.4,0.1-0.7v-5H110.1z"
			/>
		<path id="XMLID_1260_" class="st12" d="M107.8,118.3v0.5h2.7v1h-3.2c-0.1,0-0.2,0-0.3-0.1c-0.1,0-0.1-0.1-0.1-0.2
			c0-0.1-0.1-0.2-0.1-0.2v-1.1H107.8z"/>
		<path id="XMLID_1258_" class="st12" d="M112.4,120.7v4.5c0,0.3,0,0.6,0.1,0.8c0.1,0.2,0.2,0.4,0.3,0.5s0.3,0.2,0.4,0.3
			c0.1,0.1,0.3,0.1,0.4,0.2c0.1,0,0.2,0.1,0.3,0.1c0.1,0,0.2,0,0.2,0c0.3,0,0.5,0,0.7-0.1c0.2-0.1,0.4-0.2,0.5-0.3
			c0.1-0.1,0.2-0.3,0.3-0.4c0.1-0.2,0.1-0.3,0.2-0.4c0-0.1,0.1-0.3,0.1-0.3s0-0.2,0-0.2v-4.5h1.1v7.2h-1.1v-1c0,0.1,0,0.3-0.1,0.4
			s-0.1,0.2-0.2,0.3s-0.2,0.1-0.3,0.2c-0.1,0.1-0.2,0.1-0.3,0.1c-0.2,0.1-0.5,0.1-0.8,0.2h-0.2c-0.4,0-0.8-0.1-1-0.2
			c-0.3-0.1-0.5-0.3-0.7-0.4s-0.3-0.4-0.4-0.6c-0.1-0.2-0.2-0.4-0.2-0.6c-0.1-0.2-0.1-0.4-0.1-0.6c0-0.2,0-0.3,0-0.4v-0.1v-4.5
			H112.4z"/>
		<path id="XMLID_1256_" class="st12" d="M121.5,123.9c0.2,0,0.5,0.1,0.7,0.2s0.4,0.3,0.6,0.4c0.2,0.2,0.3,0.4,0.4,0.6
			c0.1,0.2,0.2,0.5,0.2,0.7c0,0.4-0.1,0.7-0.2,1c-0.1,0.3-0.3,0.5-0.5,0.7c-0.2,0.2-0.5,0.3-0.8,0.4c-0.3,0.1-0.6,0.1-1,0.1
			c-0.3,0-0.6,0-0.8-0.1c-0.3,0-0.5-0.1-0.7-0.2c-0.2-0.1-0.4-0.1-0.5-0.2c-0.2-0.1-0.3-0.2-0.4-0.2v-1.7h1.1v1.1
			c0.2,0.1,0.4,0.2,0.6,0.2s0.5,0.1,0.7,0.1c0.2,0,0.4,0,0.6-0.1s0.3-0.1,0.5-0.2c0.1-0.1,0.2-0.2,0.3-0.4c0.1-0.1,0.1-0.3,0.1-0.5
			c0-0.2,0-0.3-0.1-0.4c-0.1-0.1-0.1-0.2-0.2-0.3c-0.1-0.1-0.2-0.1-0.2-0.1c-0.1,0-0.1,0-0.2-0.1c0,0-0.1,0-0.2,0
			c-0.1,0-0.3,0-0.4-0.1s-0.3-0.1-0.5-0.1c-0.2,0-0.3,0-0.4-0.1c-0.1,0-0.1,0-0.2-0.1s-0.2-0.1-0.3-0.1c-0.1-0.1-0.2-0.1-0.4-0.2
			s-0.2-0.2-0.3-0.3s-0.2-0.3-0.2-0.5c-0.1-0.2-0.1-0.4-0.1-0.7c0-0.4,0.1-0.7,0.2-1c0.1-0.3,0.3-0.5,0.5-0.7
			c0.2-0.2,0.5-0.3,0.8-0.4c0.3-0.1,0.6-0.1,0.9-0.1c0.3,0,0.6,0,0.8,0.1s0.5,0.1,0.6,0.2c0.2,0.1,0.4,0.2,0.6,0.3l0.6,0.4l-0.6,0.9
			l-0.5-0.3c-0.1-0.1-0.2-0.1-0.4-0.2s-0.3-0.1-0.4-0.2s-0.3-0.1-0.4-0.1c-0.1,0-0.2,0-0.3,0c-0.2,0-0.3,0-0.5,0
			c-0.2,0-0.3,0.1-0.4,0.2c-0.1,0.1-0.2,0.2-0.3,0.3c-0.1,0.1-0.1,0.3-0.1,0.5c0,0.2,0.1,0.4,0.2,0.5c0.1,0.1,0.3,0.2,0.5,0.3
			s0.4,0.1,0.6,0.2C121,123.8,121.2,123.8,121.5,123.9z"/>
		<path id="XMLID_1254_" class="st12" d="M120.1,119.8v-1.1c0-0.1,0-0.2,0.1-0.2c0-0.1,0.1-0.1,0.1-0.2c0.1,0,0.2-0.1,0.3-0.1h2.4v1
			h-1.8v0.5H120.1z"/>
		<path id="XMLID_1252_" class="st12" d="M43,144.4v-4.5c0-0.3-0.1-0.6-0.2-0.8c-0.1-0.1-0.1-0.2-0.2-0.3c-0.1-0.1-0.2-0.2-0.3-0.3
			c-0.1-0.1-0.3-0.1-0.5-0.2c-0.2,0-0.4-0.1-0.6-0.1s-0.4,0-0.6,0.1c-0.2,0-0.3,0.1-0.5,0.2c-0.1,0.1-0.2,0.2-0.3,0.3
			s-0.2,0.2-0.2,0.3c-0.1,0.2-0.2,0.5-0.2,0.8v2.4c0,0.2,0.1,0.3,0.1,0.4c0,0.1,0.1,0.2,0.2,0.4s0.2,0.2,0.3,0.3
			c0.1,0.1,0.3,0.2,0.4,0.2c0.1,0,0.2,0,0.3-0.1c0.1-0.1,0.2-0.1,0.2-0.2l0.7,0.7c-0.1,0.1-0.2,0.2-0.4,0.3
			c-0.1,0.1-0.3,0.1-0.4,0.2c-0.2,0.1-0.3,0.1-0.5,0.1c-0.1,0-0.1,0-0.2,0c-0.1,0-0.1,0-0.2,0c-0.3-0.1-0.5-0.2-0.7-0.3
			c-0.2-0.1-0.4-0.3-0.5-0.5c-0.1-0.2-0.2-0.4-0.3-0.7c-0.1-0.2-0.1-0.5-0.1-0.7v-2.4c0-0.4,0.1-0.8,0.3-1.1s0.3-0.6,0.5-0.8
			c0.2-0.2,0.4-0.4,0.6-0.5c0.2-0.1,0.4-0.2,0.6-0.3c0.2-0.1,0.4-0.1,0.5-0.1s0.3,0,0.3,0h0.1h0.1c0.1,0,0.2,0,0.3,0
			s0.3,0.1,0.5,0.1c0.2,0.1,0.4,0.1,0.6,0.3c0.2,0.1,0.4,0.3,0.6,0.5c0.2,0.2,0.3,0.5,0.5,0.8c0.1,0.3,0.2,0.7,0.3,1.1v4.5H43z"/>
		<path id="XMLID_1248_" class="st12" d="M42.2,134.1c0.2,0,0.3,0,0.5,0.1c0.2,0.1,0.3,0.2,0.4,0.3s0.2,0.2,0.3,0.4s0.1,0.3,0.1,0.5
			s0,0.3-0.1,0.5s-0.2,0.3-0.3,0.4s-0.2,0.2-0.4,0.3c-0.2,0.1-0.3,0.1-0.5,0.1s-0.3,0-0.5-0.1c-0.2-0.1-0.3-0.2-0.4-0.3
			s-0.2-0.2-0.3-0.4s-0.1-0.3-0.1-0.5s0-0.3,0.1-0.5s0.2-0.3,0.3-0.4s0.2-0.2,0.4-0.3C41.9,134.2,42.1,134.1,42.2,134.1z
			 M42.2,135.8c0.1,0,0.2,0,0.3-0.1c0.1-0.1,0.1-0.2,0.1-0.3c0-0.1,0-0.2-0.1-0.3c-0.1-0.1-0.2-0.1-0.3-0.1s-0.2,0-0.3,0.1
			c-0.1,0.1-0.1,0.2-0.1,0.3c0,0.1,0,0.2,0.1,0.3C42,135.8,42.1,135.8,42.2,135.8z M46.8,137.2c0,0,0.1,0,0.2,0c0.1,0,0.2,0,0.4,0.1
			c0.1,0,0.3,0.1,0.5,0.2c0.2,0.1,0.3,0.2,0.4,0.4c0.1,0.2,0.2,0.4,0.3,0.6s0.1,0.5,0.1,0.9v5.1h-1.1v-5.1c0-0.2,0-0.4-0.1-0.5
			c0-0.1-0.1-0.1-0.1-0.2c0-0.1-0.1-0.1-0.1-0.2c-0.1,0-0.1-0.1-0.2-0.1s-0.2,0-0.3,0c-0.2,0-0.3,0-0.5,0.1s-0.2,0.1-0.3,0.1
			c-0.1,0.1-0.1,0.1-0.2,0.2c0,0.1-0.1,0.1-0.1,0.1L45,138c0.1-0.1,0.3-0.3,0.4-0.4c0.1-0.1,0.3-0.2,0.6-0.3
			C46.2,137.2,46.5,137.2,46.8,137.2z"/>
		<path id="XMLID_1246_" class="st12" d="M51.3,144.4h-1.1v-7.2h1.1V144.4z"/>
		<path id="XMLID_1244_" class="st12" d="M53.7,137.2v4.5c0,0.3,0,0.6,0.1,0.8s0.2,0.4,0.3,0.5c0.1,0.1,0.2,0.2,0.4,0.3
			c0.1,0.1,0.3,0.1,0.4,0.2c0.1,0,0.2,0.1,0.3,0.1c0.1,0,0.2,0,0.2,0c0.3,0,0.5,0,0.7-0.1c0.2-0.1,0.4-0.2,0.5-0.3
			c0.1-0.1,0.2-0.3,0.3-0.4c0.1-0.2,0.1-0.3,0.2-0.4c0-0.1,0.1-0.3,0.1-0.3c0-0.1,0-0.2,0-0.2v-4.5h1.1v7.2h-1.1v-1
			c0,0.1,0,0.3-0.1,0.4s-0.1,0.2-0.2,0.3c-0.1,0.1-0.2,0.1-0.3,0.2s-0.2,0.1-0.3,0.1c-0.2,0.1-0.5,0.1-0.8,0.2h-0.2
			c-0.4,0-0.8-0.1-1-0.2s-0.5-0.3-0.7-0.4s-0.3-0.4-0.4-0.6c-0.1-0.2-0.2-0.4-0.2-0.6c-0.1-0.2-0.1-0.4-0.1-0.6s0-0.3,0-0.4v-0.1
			v-4.5H53.7z"/>
		<path id="XMLID_1242_" class="st12" d="M57.9,135.4v1h-4v-1H57.9z"/>
		<path id="XMLID_1240_" class="st12" d="M60.7,137.2v4.5c0,0.3,0,0.6,0.1,0.8c0.1,0.2,0.2,0.4,0.3,0.5s0.3,0.2,0.4,0.3
			c0.1,0.1,0.3,0.1,0.4,0.2c0.1,0,0.2,0.1,0.3,0.1c0.1,0,0.2,0,0.2,0c0.3,0,0.5,0,0.7-0.1c0.2-0.1,0.4-0.2,0.5-0.3
			c0.1-0.1,0.2-0.3,0.3-0.4c0.1-0.2,0.1-0.3,0.2-0.4c0-0.1,0.1-0.3,0.1-0.3s0-0.2,0-0.2v-4.5h1.1v7.2h-1.1v-1c0,0.1,0,0.3-0.1,0.4
			s-0.1,0.2-0.2,0.3s-0.2,0.1-0.3,0.2c-0.1,0.1-0.2,0.1-0.3,0.1c-0.2,0.1-0.5,0.1-0.8,0.2h-0.2c-0.4,0-0.8-0.1-1-0.2
			c-0.3-0.1-0.5-0.3-0.7-0.4s-0.3-0.4-0.4-0.6c-0.1-0.2-0.2-0.4-0.2-0.6c-0.1-0.2-0.1-0.4-0.1-0.6c0-0.2,0-0.3,0-0.4v-0.1v-4.5H60.7
			z"/>
		<path id="XMLID_1238_" class="st12" d="M67.3,132.6c0.2,0.1,0.3,0.2,0.5,0.3c0.1,0.1,0.2,0.2,0.3,0.3c0.1,0.1,0.2,0.2,0.2,0.4
			c0.1,0.3,0.2,0.6,0.2,1v10h-1.1v-10c0-0.1,0-0.2-0.1-0.3s-0.1-0.2-0.2-0.3c-0.1-0.1-0.1-0.2-0.2-0.3l-0.9,0.9l-1-1.4l0.7-0.6
			l0.5,0.7l0.5-0.8C66.9,132.5,67.1,132.5,67.3,132.6z"/>
		<path id="XMLID_1236_" class="st12" d="M75.4,134.6v7.4c0,0.5-0.2,0.9-0.4,1.3c-0.1,0.2-0.2,0.3-0.3,0.5c-0.1,0.2-0.3,0.3-0.5,0.4
			c-0.2,0.1-0.4,0.2-0.7,0.3c-0.3,0.1-0.6,0.1-0.9,0.1c-0.3,0-0.6,0-0.9-0.1c-0.3-0.1-0.5-0.2-0.7-0.3c-0.2-0.1-0.4-0.3-0.5-0.4
			c-0.1-0.2-0.3-0.3-0.3-0.5c-0.2-0.4-0.3-0.8-0.4-1.3v-4.7h1.1v4.7c0,0.2,0,0.4,0.1,0.5c0,0.1,0.1,0.3,0.2,0.4
			c0.1,0.1,0.2,0.2,0.3,0.3c0.1,0.1,0.2,0.1,0.3,0.2c0.3,0.1,0.5,0.2,0.9,0.2c0.3,0,0.6-0.1,0.9-0.2c0.1,0,0.2-0.1,0.3-0.2
			c0.1-0.1,0.2-0.2,0.3-0.3c0.1-0.1,0.1-0.2,0.2-0.4c0-0.1,0.1-0.3,0.1-0.5v-7.4H75.4z"/>
		<path id="XMLID_1234_" class="st12" d="M81.9,138c0.1,0.2,0.2,0.4,0.3,0.6c0.1,0.2,0.1,0.4,0.2,0.7v5.2h-1.1v-4.8
			c0-0.3-0.1-0.6-0.2-0.8c-0.1-0.2-0.3-0.4-0.4-0.5l-1.2,0.8l-1.2-0.8c-0.2,0.1-0.3,0.3-0.4,0.5c-0.1,0.2-0.2,0.5-0.2,0.8v2.6
			c0,0.2,0.1,0.4,0.2,0.6c0,0.1,0.1,0.2,0.1,0.2c0.1,0.1,0.1,0.1,0.2,0.2c0.1,0.1,0.2,0.1,0.3,0.1c0.1,0,0.3,0.1,0.4,0.1h0.8v1h-1.4
			c-0.3,0-0.6-0.1-0.8-0.3c-0.1-0.1-0.2-0.2-0.3-0.3c-0.1-0.1-0.2-0.2-0.3-0.4s-0.1-0.3-0.2-0.5c0-0.2-0.1-0.4-0.1-0.7v-3.1
			c0.1-0.5,0.2-0.9,0.5-1.3c0.3-0.4,0.6-0.6,1.1-0.8l1.3,0.8l1.3-0.8C81.3,137.3,81.6,137.6,81.9,138z"/>
		<path id="XMLID_1232_" class="st12" d="M87.8,139.1l-0.5-0.3c-0.1-0.1-0.2-0.1-0.4-0.2s-0.3-0.1-0.4-0.2s-0.3-0.1-0.4-0.1
			s-0.2,0-0.3,0c-0.2,0-0.3,0-0.5,0s-0.3,0.1-0.4,0.2c-0.1,0.1-0.2,0.2-0.3,0.3s-0.1,0.3-0.1,0.5c0,0.2,0.1,0.4,0.2,0.5
			c0.1,0.1,0.3,0.2,0.5,0.3s0.4,0.1,0.6,0.2c0.2,0,0.5,0.1,0.7,0.1c0.2,0,0.5,0.1,0.7,0.2s0.4,0.3,0.6,0.4c0.2,0.2,0.3,0.4,0.4,0.6
			c0.1,0.2,0.2,0.5,0.2,0.7c0,0.4-0.1,0.7-0.2,1c-0.1,0.3-0.3,0.5-0.5,0.7c-0.2,0.2-0.5,0.3-0.8,0.4s-0.6,0.1-1,0.1
			c-0.5,0-0.9-0.1-1.3-0.2c-0.3-0.1-0.6-0.2-0.9-0.4c-0.3-0.2-0.5-0.3-0.7-0.5l0.7-0.7c0.1,0.1,0.2,0.2,0.3,0.3
			c0.1,0.1,0.3,0.2,0.5,0.2c0.2,0.1,0.4,0.1,0.6,0.2c0.2,0,0.4,0.1,0.6,0.1c0.2,0,0.4,0,0.6-0.1s0.3-0.1,0.5-0.2s0.2-0.2,0.3-0.4
			c0.1-0.1,0.1-0.3,0.1-0.5c0-0.2,0-0.3-0.1-0.4c-0.1-0.1-0.1-0.2-0.2-0.3c-0.1-0.1-0.2-0.1-0.2-0.1c-0.1,0-0.1,0-0.2-0.1
			c0,0-0.1,0-0.2,0s-0.3,0-0.4-0.1c-0.2,0-0.3-0.1-0.5-0.1s-0.3,0-0.4-0.1c-0.1,0-0.1,0-0.2-0.1s-0.2-0.1-0.3-0.1
			c-0.1-0.1-0.2-0.1-0.4-0.2s-0.2-0.2-0.3-0.3s-0.2-0.3-0.2-0.5c-0.1-0.2-0.1-0.4-0.1-0.7c0-0.4,0.1-0.7,0.2-1
			c0.1-0.3,0.3-0.5,0.5-0.7c0.2-0.2,0.5-0.3,0.8-0.4s0.6-0.1,0.9-0.1c0.3,0,0.6,0,0.8,0.1c0.2,0.1,0.5,0.1,0.6,0.2
			c0.2,0.1,0.4,0.2,0.6,0.3l0.6,0.4L87.8,139.1z"/>
		<path id="XMLID_1230_" class="st12" d="M90.5,137.2c0,0,0.1,0,0.2,0s0.2,0,0.4,0.1c0.1,0,0.3,0.1,0.5,0.2c0.2,0.1,0.3,0.2,0.4,0.4
			c0.1,0.2,0.2,0.4,0.3,0.6c0.1,0.2,0.1,0.5,0.1,0.9v5.1h-1.1v-5.1c0-0.2,0-0.4-0.1-0.5c0-0.1-0.1-0.1-0.1-0.2
			c0-0.1-0.1-0.1-0.1-0.2s-0.1-0.1-0.2-0.1c-0.1,0-0.2,0-0.3,0c-0.2,0-0.3,0-0.5,0.1c-0.1,0-0.2,0.1-0.3,0.1
			c-0.1,0.1-0.1,0.1-0.2,0.2c0,0.1-0.1,0.1-0.1,0.1l-0.7-0.8c0.1-0.1,0.3-0.3,0.4-0.4c0.1-0.1,0.3-0.2,0.6-0.3
			C90,137.2,90.2,137.2,90.5,137.2z"/>
		<path id="XMLID_1228_" class="st12" d="M99.5,137.2v4.7c0,0.5-0.2,0.9-0.4,1.3c-0.1,0.2-0.2,0.3-0.3,0.5c-0.1,0.2-0.3,0.3-0.5,0.4
			c-0.2,0.1-0.4,0.2-0.7,0.3c-0.3,0.1-0.6,0.1-0.9,0.1c-0.3,0-0.6,0-0.9-0.1c-0.3-0.1-0.5-0.2-0.7-0.3c-0.2-0.1-0.4-0.3-0.5-0.4
			c-0.1-0.2-0.3-0.3-0.3-0.5c-0.2-0.4-0.3-0.8-0.4-1.3v-4.7h1.1v4.7c0,0.2,0,0.4,0.1,0.5s0.1,0.3,0.2,0.4c0.1,0.1,0.2,0.2,0.3,0.3
			s0.2,0.1,0.3,0.2c0.3,0.1,0.5,0.2,0.9,0.2c0.3,0,0.6-0.1,0.9-0.2c0.1,0,0.2-0.1,0.3-0.2s0.2-0.2,0.3-0.3c0.1-0.1,0.1-0.2,0.2-0.4
			s0.1-0.3,0.1-0.5v-4.7H99.5z"/>
		<path id="XMLID_1226_" class="st12" d="M102,137.2v4.5c0,0.3,0,0.6,0.1,0.8s0.2,0.4,0.3,0.5c0.1,0.1,0.2,0.2,0.4,0.3
			c0.1,0.1,0.3,0.1,0.4,0.2c0.1,0,0.2,0.1,0.3,0.1c0.1,0,0.2,0,0.2,0c0.3,0,0.5,0,0.7-0.1c0.2-0.1,0.4-0.2,0.5-0.3
			c0.1-0.1,0.2-0.3,0.3-0.4c0.1-0.2,0.1-0.3,0.2-0.4c0-0.1,0.1-0.3,0.1-0.3c0-0.1,0-0.2,0-0.2v-4.5h1.1v7.2h-1.1v-1
			c0,0.1,0,0.3-0.1,0.4s-0.1,0.2-0.2,0.3c-0.1,0.1-0.2,0.1-0.3,0.2s-0.2,0.1-0.3,0.1c-0.2,0.1-0.5,0.1-0.8,0.2h-0.2
			c-0.4,0-0.8-0.1-1-0.2s-0.5-0.3-0.7-0.4s-0.3-0.4-0.4-0.6c-0.1-0.2-0.2-0.4-0.2-0.6c-0.1-0.2-0.1-0.4-0.1-0.6s0-0.3,0-0.4v-0.1
			v-4.5H102z"/>
		<path id="XMLID_1224_" class="st12" d="M109,137.2c0,0,0.1,0,0.2,0c0.1,0,0.2,0,0.4,0.1c0.1,0,0.3,0.1,0.5,0.2s0.3,0.2,0.4,0.4
			c0.1,0.2,0.2,0.4,0.3,0.6c0.1,0.2,0.1,0.5,0.1,0.9v5.1h-1.1v-5.1c0-0.2,0-0.4-0.1-0.5c0-0.1-0.1-0.1-0.1-0.2
			c0-0.1-0.1-0.1-0.1-0.2c-0.1,0-0.1-0.1-0.2-0.1s-0.2,0-0.3,0c-0.2,0-0.3,0-0.5,0.1c-0.1,0-0.2,0.1-0.3,0.1s-0.1,0.1-0.2,0.2
			c0,0.1-0.1,0.1-0.1,0.1l-0.7-0.8c0.1-0.1,0.3-0.3,0.4-0.4c0.1-0.1,0.3-0.2,0.6-0.3S108.7,137.2,109,137.2z"/>
		<path id="XMLID_1222_" class="st12" d="M113.5,137.2v4.5c0,0.3,0,0.6,0.1,0.8s0.2,0.4,0.3,0.5c0.1,0.1,0.3,0.2,0.4,0.3
			s0.3,0.1,0.4,0.2c0.1,0,0.2,0.1,0.3,0.1c0.1,0,0.2,0,0.2,0c0.3,0,0.5,0,0.7-0.1c0.2-0.1,0.4-0.2,0.5-0.3c0.1-0.1,0.2-0.3,0.3-0.4
			c0.1-0.2,0.1-0.3,0.2-0.4c0-0.1,0.1-0.3,0.1-0.3s0-0.2,0-0.2v-4.5h1.1v7.2h-1.1v-1c0,0.1,0,0.3-0.1,0.4s-0.1,0.2-0.2,0.3
			c-0.1,0.1-0.2,0.1-0.3,0.2s-0.2,0.1-0.3,0.1c-0.2,0.1-0.5,0.1-0.8,0.2H115c-0.4,0-0.8-0.1-1-0.2s-0.5-0.3-0.7-0.4
			s-0.3-0.4-0.4-0.6c-0.1-0.2-0.2-0.4-0.2-0.6c-0.1-0.2-0.1-0.4-0.1-0.6s0-0.3,0-0.4v-0.1v-4.5H113.5z"/>
		<path id="XMLID_1220_" class="st12" d="M39.5,161h-1.1v-7.2h1.1V161z"/>
		<path id="XMLID_1218_" class="st12" d="M45.4,161v-4.5c0-0.3,0-0.5-0.1-0.7s-0.2-0.4-0.3-0.5c-0.1-0.1-0.3-0.2-0.4-0.3
			s-0.3-0.1-0.4-0.2c-0.1,0-0.2,0-0.3-0.1c-0.1,0-0.2,0-0.2,0c-0.3,0-0.5,0-0.7,0.1c-0.2,0.1-0.4,0.2-0.5,0.3
			c-0.1,0.1-0.2,0.3-0.3,0.4s-0.1,0.3-0.2,0.4c0,0.1-0.1,0.2-0.1,0.3c0,0.1,0,0.1,0,0.2v4.5h-1.1v-7.2H42v1c0-0.1,0-0.2,0.1-0.3
			c0.1-0.1,0.1-0.2,0.2-0.3c0.1-0.1,0.2-0.1,0.3-0.2s0.2-0.1,0.3-0.1c0.2-0.1,0.5-0.1,0.8-0.1h0.2c0.4,0,0.8,0.1,1,0.2
			c0.3,0.1,0.5,0.3,0.7,0.4c0.2,0.2,0.3,0.4,0.4,0.6c0.1,0.2,0.2,0.4,0.2,0.6s0.1,0.4,0.1,0.5s0,0.3,0,0.4v0.1v4.5H45.4z"/>
		<path id="XMLID_1216_" class="st12" d="M45.8,150.9v2h-1v-2H45.8z"/>
		<path id="XMLID_1214_" class="st12" d="M48.9,153.7c0,0,0.1,0,0.2,0c0.1,0,0.2,0,0.4,0.1c0.1,0,0.3,0.1,0.5,0.2s0.3,0.2,0.4,0.4
			c0.1,0.2,0.2,0.4,0.3,0.6c0.1,0.2,0.1,0.5,0.1,0.9v5.1h-1.1v-5.1c0-0.2,0-0.4-0.1-0.5c0-0.1-0.1-0.1-0.1-0.2
			c0-0.1-0.1-0.1-0.1-0.2c-0.1,0-0.1-0.1-0.2-0.1s-0.2,0-0.3,0c-0.2,0-0.3,0-0.5,0.1c-0.1,0-0.2,0.1-0.3,0.1s-0.1,0.1-0.2,0.2
			c0,0.1-0.1,0.1-0.1,0.1l-0.7-0.8c0.1-0.1,0.3-0.3,0.4-0.4c0.1-0.1,0.3-0.2,0.6-0.3S48.6,153.7,48.9,153.7z"/>
		<path id="XMLID_1212_" class="st12" d="M53.4,153.8v4.5c0,0.3,0,0.6,0.1,0.8s0.2,0.4,0.3,0.5c0.1,0.1,0.3,0.2,0.4,0.3
			s0.3,0.1,0.4,0.2c0.1,0,0.2,0.1,0.3,0.1c0.1,0,0.2,0,0.2,0c0.3,0,0.5,0,0.7-0.1c0.2-0.1,0.4-0.2,0.5-0.3c0.1-0.1,0.2-0.3,0.3-0.4
			c0.1-0.2,0.1-0.3,0.2-0.4c0-0.1,0.1-0.3,0.1-0.3s0-0.2,0-0.2v-4.5h1.1v7.2h-1.1v-1c0,0.1,0,0.3-0.1,0.4s-0.1,0.2-0.2,0.3
			c-0.1,0.1-0.2,0.1-0.3,0.2s-0.2,0.1-0.3,0.1c-0.2,0.1-0.5,0.1-0.8,0.2h-0.2c-0.4,0-0.8-0.1-1-0.2s-0.5-0.3-0.7-0.4
			s-0.3-0.4-0.4-0.6c-0.1-0.2-0.2-0.4-0.2-0.6c-0.1-0.2-0.1-0.4-0.1-0.6s0-0.3,0-0.4v-0.1v-4.5H53.4z"/>
		<path id="XMLID_1210_" class="st12" d="M60.4,153.7c0,0,0.1,0,0.2,0s0.2,0,0.4,0.1c0.1,0,0.3,0.1,0.5,0.2c0.2,0.1,0.3,0.2,0.4,0.4
			c0.1,0.2,0.2,0.4,0.3,0.6c0.1,0.2,0.1,0.5,0.1,0.9v5.1h-1.1v-5.1c0-0.2,0-0.4-0.1-0.5c0-0.1-0.1-0.1-0.1-0.2
			c0-0.1-0.1-0.1-0.1-0.2c-0.1,0-0.1-0.1-0.2-0.1s-0.2,0-0.3,0c-0.2,0-0.3,0-0.5,0.1s-0.2,0.1-0.3,0.1c-0.1,0.1-0.1,0.1-0.2,0.2
			c0,0.1-0.1,0.1-0.1,0.1l-0.7-0.8c0.1-0.1,0.3-0.3,0.4-0.4c0.1-0.1,0.3-0.2,0.6-0.3C59.8,153.7,60.1,153.7,60.4,153.7z"/>
		<path id="XMLID_1208_" class="st12" d="M64.9,153.8v4.5c0,0.3,0,0.6,0.1,0.8s0.2,0.4,0.3,0.5c0.1,0.1,0.2,0.2,0.4,0.3
			c0.1,0.1,0.3,0.1,0.4,0.2c0.1,0,0.2,0.1,0.3,0.1c0.1,0,0.2,0,0.2,0c0.3,0,0.5,0,0.7-0.1c0.2-0.1,0.4-0.2,0.5-0.3
			c0.1-0.1,0.2-0.3,0.3-0.4c0.1-0.2,0.1-0.3,0.2-0.4c0-0.1,0.1-0.3,0.1-0.3c0-0.1,0-0.2,0-0.2v-4.5h1.1v7.2h-1.1v-1
			c0,0.1,0,0.3-0.1,0.4s-0.1,0.2-0.2,0.3c-0.1,0.1-0.2,0.1-0.3,0.2s-0.2,0.1-0.3,0.1c-0.2,0.1-0.5,0.1-0.8,0.2h-0.2
			c-0.4,0-0.8-0.1-1-0.2s-0.5-0.3-0.7-0.4s-0.3-0.4-0.4-0.6c-0.1-0.2-0.2-0.4-0.2-0.6c-0.1-0.2-0.1-0.4-0.1-0.6s0-0.3,0-0.4v-0.1
			v-4.5H64.9z"/>
	</g>
</g>
</svg>
