<?xml version="1.0" encoding="utf-8"?>
<!-- Generator: Adobe Illustrator 19.0.0, SVG Export Plug-In . SVG Version: 6.00 Build 0)  -->
<svg version="1.1" id="Layer_1" xmlns="http://www.w3.org/2000/svg" xmlns:xlink="http://www.w3.org/1999/xlink" x="0px" y="0px"
	 viewBox="0 0 167.1 181.4" style="enable-background:new 0 0 167.1 181.4;" xml:space="preserve">
<style type="text/css">
	.st0{fill:#E49B5A;}
	.st1{fill:#212956;}
	.st2{fill:#1E2251;}
	.st3{fill:#FFFEFE;}
	.st4{fill:#FFFFFF;}
	.st5{fill:#CD202B;}
	.st6{fill:#404040;stroke:#404040;stroke-width:0.5;stroke-miterlimit:10;}
	.st7{fill:#404040;}
</style>
<rect id="XMLID_12879_" x="17.1" y="0" class="st0" width="150" height="181.3"/>
<g id="XMLID_12845_">
	<path id="XMLID_12878_" class="st1" d="M119.1,77.2H65.3c-7.7,0-14-6.3-14-14V48.3c0-7.7,6.3-14,14-14h53.7c7.7,0,14,6.3,14,14
		v14.9C133.1,70.9,126.8,77.2,119.1,77.2z"/>
	<path id="XMLID_12877_" class="st2" d="M83.6,40.4L83.6,40.4c-3.2,1.6-7.1,0.3-8.7-2.9L69.2,26c-1.6-3.2-0.3-7.1,2.9-8.7l0,0
		c3.2-1.6,7.1-0.3,8.7,2.9l5.8,11.6C88.1,34.9,86.8,38.8,83.6,40.4z"/>
	<path id="XMLID_12876_" class="st2" d="M95.7,36.9L95.7,36.9c-2.5-2.5-2.6-6.6-0.1-9.1l9-9.2c2.5-2.5,6.6-2.6,9.1-0.1l0,0
		c2.5,2.5,2.6,6.6,0.1,9.1l-9,9.2C102.3,39.4,98.2,39.4,95.7,36.9z"/>
	<path id="XMLID_12875_" class="st1" d="M93.9,38.5h-4.8c-4.6,0-8.3-3.7-8.3-8.3l0,0c0-4.6,3.7-8.3,8.3-8.3h4.8
		c4.6,0,8.3,3.7,8.3,8.3l0,0C102.2,34.7,98.5,38.5,93.9,38.5z"/>
	<circle id="XMLID_12874_" class="st3" cx="94.2" cy="30.1" r="3.8"/>
	<circle id="XMLID_12873_" class="st3" cx="64.4" cy="41.8" r="3.1"/>
	<circle id="XMLID_12872_" class="st3" cx="64.4" cy="51.1" r="3.1"/>
	<circle id="XMLID_12871_" class="st3" cx="64.4" cy="60.4" r="3.1"/>
	<circle id="XMLID_12870_" class="st3" cx="64.4" cy="69.8" r="3.1"/>
	<circle id="XMLID_12869_" class="st3" cx="73.9" cy="41.8" r="3.1"/>
	<circle id="XMLID_12868_" class="st3" cx="73.9" cy="51.1" r="3.1"/>
	<circle id="XMLID_12867_" class="st3" cx="73.9" cy="60.4" r="3.1"/>
	<circle id="XMLID_12866_" class="st3" cx="73.9" cy="69.8" r="3.1"/>
	<circle id="XMLID_12865_" class="st3" cx="83.4" cy="41.8" r="3.1"/>
	<circle id="XMLID_12864_" class="st3" cx="83.4" cy="51.1" r="3.1"/>
	<circle id="XMLID_12863_" class="st3" cx="83.4" cy="60.4" r="3.1"/>
	<circle id="XMLID_12862_" class="st3" cx="83.4" cy="69.8" r="3.1"/>
	<circle id="XMLID_12861_" class="st3" cx="92.9" cy="41.8" r="3.1"/>
	<circle id="XMLID_12860_" class="st3" cx="92.9" cy="51.1" r="3.1"/>
	<circle id="XMLID_12859_" class="st3" cx="92.9" cy="60.4" r="3.1"/>
	<circle id="XMLID_12858_" class="st3" cx="92.9" cy="69.8" r="3.1"/>
	<circle id="XMLID_12857_" class="st3" cx="102.4" cy="41.8" r="3.1"/>
	<circle id="XMLID_12856_" class="st3" cx="102.4" cy="51.1" r="3.1"/>
	<circle id="XMLID_12855_" class="st3" cx="102.4" cy="60.4" r="3.1"/>
	<circle id="XMLID_12854_" class="st3" cx="102.4" cy="69.8" r="3.1"/>
	<circle id="XMLID_12853_" class="st3" cx="111.9" cy="41.8" r="3.1"/>
	<circle id="XMLID_12852_" class="st3" cx="111.9" cy="51.1" r="3.1"/>
	<circle id="XMLID_12851_" class="st3" cx="111.9" cy="60.4" r="3.1"/>
	<circle id="XMLID_12850_" class="st3" cx="111.9" cy="69.8" r="3.1"/>
	<circle id="XMLID_12849_" class="st3" cx="121.4" cy="41.8" r="3.1"/>
	<circle id="XMLID_12848_" class="st3" cx="121.4" cy="51.1" r="3.1"/>
	<circle id="XMLID_12847_" class="st3" cx="121.4" cy="60.4" r="3.1"/>
	<circle id="XMLID_12846_" class="st3" cx="121.4" cy="69.8" r="3.1"/>
</g>
<g id="XMLID_12842_">
	<rect id="XMLID_12844_" x="17.1" y="94.4" class="st4" width="150" height="86.9"/>
	<polygon id="XMLID_12843_" class="st4" points="19.2,181.3 19.2,159.7 0,181.4 	"/>
</g>
<g id="XMLID_12772_">
	<circle id="XMLID_12838_" class="st5" cx="22.6" cy="107" r="4"/>
	<path id="XMLID_12837_" class="st5" d="M18.6,107h8.1v10.1C26.7,117.1,18.6,112.2,18.6,107z"/>
	<circle id="XMLID_12836_" class="st5" cx="30.7" cy="106.8" r="4"/>
	<path id="XMLID_12835_" class="st5" d="M34.7,106.8h-8.1v10.1C26.7,116.9,34.7,112,34.7,106.8z"/>
</g>
<g id="XMLID_12_">
	<g id="XMLID_1349_">
		<path id="XMLID_1494_" class="st6" d="M38.8,112v-7.3c0-0.2,0-0.3,0.1-0.5s0.1-0.3,0.2-0.4s0.2-0.3,0.2-0.4
			c0.1-0.1,0.2-0.2,0.3-0.3c0.1-0.1,0.2-0.2,0.3-0.3s0.1-0.2,0.2-0.2c0-0.1,0.1-0.1,0.1-0.2c0-0.1,0-0.1,0-0.2c0-0.2,0-0.3-0.1-0.5
			s-0.1-0.3-0.2-0.3c-0.1-0.1-0.2-0.2-0.4-0.2c-0.1,0-0.3-0.1-0.4-0.1c-0.3,0-0.5,0-0.7,0.1s-0.3,0.1-0.3,0.2
			c-0.1,0.1-0.1,0.2-0.1,0.2h-0.9c0,0,0,0,0,0v-0.1c0,0,0-0.1,0-0.2c0-0.1,0-0.2,0.1-0.3c0-0.1,0.1-0.2,0.2-0.3
			c0.1-0.1,0.2-0.2,0.4-0.3c0.2-0.1,0.3-0.2,0.6-0.2c0.2-0.1,0.5-0.1,0.8-0.1c0.3,0,0.6,0,0.9,0.1c0.2,0.1,0.4,0.2,0.6,0.3
			c0.2,0.1,0.3,0.3,0.4,0.4c0.1,0.1,0.2,0.3,0.2,0.4c0,0.1,0.1,0.3,0.1,0.4s0,0.2,0,0.3v0.1c0,0.1,0,0.2,0,0.3
			c0,0.1-0.1,0.2-0.1,0.3c0,0.1-0.1,0.3-0.2,0.4c-0.1,0.1-0.2,0.3-0.3,0.5c-0.1,0.2-0.2,0.3-0.3,0.4c-0.1,0.1-0.1,0.2-0.2,0.3
			c0,0.1-0.1,0.2-0.1,0.3v7.3H38.8z"/>
		<path id="XMLID_1492_" class="st6" d="M41.6,104.8h1.1v1.8h2.4c0.1,0,0.2-0.1,0.4-0.1c0.1-0.1,0.2-0.2,0.3-0.3s0.2-0.3,0.2-0.5v-1
			H47v1.1c0,0.1,0,0.1,0,0.3s-0.1,0.2-0.1,0.3s-0.1,0.2-0.2,0.4c-0.1,0.1-0.2,0.2-0.3,0.3c0.1,0.1,0.3,0.3,0.4,0.5
			c0.1,0.1,0.2,0.3,0.3,0.5c0.1,0.2,0.1,0.5,0.1,0.7v3.1h-1.1v-3.1c0-0.1,0-0.2-0.1-0.3c0-0.1-0.1-0.2-0.1-0.3
			c0-0.1-0.1-0.2-0.2-0.3c-0.1-0.1-0.2-0.2-0.3-0.2c-0.1-0.1-0.2-0.1-0.4-0.1h-2.4v4.4h-1.1V104.8z"/>
		<path id="XMLID_1490_" class="st6" d="M47.2,103v1h-3v-1.4h-0.5v-1h1.1c0.1,0,0.2,0,0.2,0.1c0.1,0,0.1,0.1,0.2,0.1
			c0,0.1,0.1,0.2,0.1,0.3v0.9H47.2z"/>
		<path id="XMLID_1488_" class="st6" d="M53.5,104.8v4.8c0,0.4-0.1,0.7-0.2,1c-0.1,0.3-0.3,0.5-0.4,0.7c-0.2,0.2-0.4,0.3-0.6,0.4
			c-0.2,0.1-0.4,0.2-0.6,0.2s-0.4,0.1-0.5,0.1c-0.1,0-0.2,0-0.3,0c-0.4,0-0.8-0.1-1.1-0.2c-0.3-0.1-0.5-0.3-0.7-0.4
			c-0.2-0.2-0.3-0.4-0.4-0.6c-0.1-0.2-0.2-0.4-0.2-0.6c0-0.2-0.1-0.4-0.1-0.5c0-0.1,0-0.2,0-0.3c0-0.2,0-0.5,0.1-0.6
			c0.1-0.2,0.2-0.4,0.3-0.5c0.1-0.2,0.2-0.3,0.3-0.4c0.1-0.1,0.2-0.2,0.3-0.4c0.1-0.1,0.2-0.2,0.3-0.3s0.1-0.2,0.1-0.3
			c0,0,0-0.1,0-0.1c0,0,0,0,0-0.1c0-0.2,0-0.3-0.1-0.4s-0.1-0.2-0.2-0.3c-0.1-0.1-0.2-0.1-0.3-0.2c-0.1,0-0.2-0.1-0.3-0.1
			c-0.1,0-0.2,0-0.3,0c-0.1,0-0.2,0-0.2,0h-0.1v-1h0.6c0.3,0,0.5,0,0.7,0.1c0.2,0.1,0.4,0.2,0.5,0.3c0.1,0.1,0.3,0.3,0.3,0.4
			c0.1,0.2,0.1,0.3,0.2,0.5c0,0.2,0.1,0.3,0.1,0.4c0,0.1,0,0.2,0,0.3c0,0,0,0,0,0.1c0,0,0,0,0,0v0c0,0.1,0,0.3-0.1,0.4
			s-0.1,0.2-0.2,0.3c-0.1,0.1-0.2,0.2-0.2,0.3c-0.2,0.2-0.4,0.4-0.5,0.6s-0.2,0.3-0.3,0.5c-0.1,0.1-0.1,0.2-0.1,0.3
			c0,0.1,0,0.1,0,0.2c0,0.2,0,0.5,0.1,0.6c0.1,0.2,0.1,0.3,0.2,0.4c0.1,0.1,0.2,0.2,0.3,0.3c0.1,0.1,0.2,0.1,0.3,0.1
			c0.1,0,0.2,0,0.3,0c0.1,0,0.1,0,0.2,0c0.2,0,0.4,0,0.6-0.1c0.2-0.1,0.3-0.1,0.4-0.2s0.2-0.2,0.3-0.3c0.1-0.1,0.1-0.2,0.2-0.3
			c0-0.1,0.1-0.2,0.1-0.3c0-0.1,0-0.1,0-0.2v-4.8H53.5z"/>
		<path id="XMLID_1486_" class="st6" d="M60.4,109.6c0,0.5-0.2,0.9-0.4,1.3c-0.1,0.2-0.2,0.3-0.3,0.5c-0.1,0.2-0.3,0.3-0.5,0.4
			c-0.2,0.1-0.4,0.2-0.7,0.3c-0.3,0.1-0.6,0.1-0.9,0.1c-0.3,0-0.6,0-0.9-0.1c-0.3-0.1-0.5-0.2-0.7-0.3c-0.2-0.1-0.4-0.3-0.5-0.4
			c-0.1-0.2-0.3-0.3-0.3-0.5c-0.2-0.4-0.3-0.8-0.4-1.3v-1.5h2v1h-0.9v0.5c0,0.2,0,0.4,0.1,0.5c0,0.2,0.1,0.3,0.2,0.4
			c0.1,0.1,0.2,0.2,0.3,0.3c0.1,0.1,0.2,0.1,0.3,0.2c0.3,0.1,0.5,0.2,0.9,0.2c0.3,0,0.6-0.1,0.9-0.2c0.1,0,0.2-0.1,0.3-0.2
			c0.1-0.1,0.2-0.2,0.3-0.3c0.1-0.1,0.1-0.2,0.2-0.4c0-0.2,0.1-0.3,0.1-0.5v-2.2c0-0.2,0-0.4-0.1-0.5c0-0.1-0.1-0.3-0.2-0.4
			s-0.2-0.2-0.3-0.3c-0.1-0.1-0.2-0.1-0.3-0.2c-0.3-0.1-0.5-0.2-0.9-0.2h-0.1c-0.1,0-0.2,0-0.3,0c-0.1,0-0.3,0.1-0.5,0.2
			c-0.2,0.1-0.3,0.2-0.5,0.3c-0.1,0.1-0.3,0.3-0.3,0.6h-1.1c0-0.1,0.1-0.3,0.1-0.4c0.1-0.2,0.1-0.3,0.2-0.5c0.1-0.2,0.2-0.3,0.3-0.5
			s0.3-0.3,0.5-0.4c0.2-0.1,0.4-0.2,0.7-0.3s0.6-0.1,0.9-0.1c0.3,0,0.6,0,0.9,0.1c0.3,0.1,0.5,0.2,0.7,0.3s0.4,0.3,0.5,0.4
			c0.1,0.2,0.3,0.3,0.3,0.5c0.2,0.4,0.3,0.8,0.4,1.3V109.6z"/>
		<path id="XMLID_1484_" class="st6" d="M62.4,104.8h2.1v5.2c0,0.3,0,0.6-0.1,0.9c-0.1,0.2-0.2,0.4-0.3,0.6
			c-0.1,0.2-0.3,0.3-0.4,0.4c-0.2,0.1-0.3,0.2-0.5,0.2c-0.1,0-0.3,0.1-0.4,0.1c-0.1,0-0.2,0-0.2,0c-0.3,0-0.6,0-0.8-0.1
			c-0.2-0.1-0.4-0.2-0.6-0.3c-0.2-0.1-0.3-0.2-0.4-0.4l0.7-0.7c0,0,0.1,0.1,0.1,0.1s0.1,0.1,0.2,0.2s0.2,0.1,0.3,0.1
			c0.1,0,0.3,0.1,0.4,0.1c0.1,0,0.2,0,0.3,0c0.1,0,0.1-0.1,0.2-0.1s0.1-0.1,0.2-0.2c0-0.1,0.1-0.1,0.1-0.2c0.1-0.2,0.1-0.3,0.1-0.6
			v-4.2h-1V104.8z"/>
		<path id="XMLID_1482_" class="st6" d="M70.7,104.8v4.8c0,0.4-0.1,0.7-0.2,1c-0.1,0.3-0.3,0.5-0.4,0.7s-0.4,0.3-0.6,0.4
			c-0.2,0.1-0.4,0.2-0.6,0.2s-0.4,0.1-0.5,0.1c-0.1,0-0.2,0-0.3,0c-0.4,0-0.8-0.1-1.1-0.2c-0.3-0.1-0.5-0.3-0.7-0.4
			c-0.2-0.2-0.3-0.4-0.4-0.6c-0.1-0.2-0.2-0.4-0.2-0.6c0-0.2-0.1-0.4-0.1-0.5c0-0.1,0-0.2,0-0.3c0-0.2,0-0.5,0.1-0.6
			c0.1-0.2,0.2-0.4,0.3-0.5c0.1-0.2,0.2-0.3,0.3-0.4c0.1-0.1,0.2-0.2,0.3-0.4s0.2-0.2,0.3-0.3s0.1-0.2,0.1-0.3c0,0,0-0.1,0-0.1
			c0,0,0,0,0-0.1c0-0.2,0-0.3-0.1-0.4s-0.1-0.2-0.2-0.3c-0.1-0.1-0.2-0.1-0.3-0.2c-0.1,0-0.2-0.1-0.3-0.1c-0.1,0-0.2,0-0.3,0
			c-0.1,0-0.2,0-0.2,0h-0.1v-1h0.6c0.3,0,0.5,0,0.7,0.1s0.4,0.2,0.5,0.3c0.1,0.1,0.2,0.3,0.3,0.4c0.1,0.2,0.1,0.3,0.2,0.5
			c0,0.2,0.1,0.3,0.1,0.4c0,0.1,0,0.2,0,0.3c0,0,0,0,0,0.1c0,0,0,0,0,0v0c0,0.1,0,0.3-0.1,0.4s-0.1,0.2-0.2,0.3
			c-0.1,0.1-0.2,0.2-0.2,0.3c-0.2,0.2-0.4,0.4-0.5,0.6s-0.2,0.3-0.3,0.5s-0.1,0.2-0.1,0.3c0,0.1,0,0.1,0,0.2c0,0.2,0,0.5,0.1,0.6
			c0.1,0.2,0.1,0.3,0.2,0.4s0.2,0.2,0.3,0.3c0.1,0.1,0.2,0.1,0.3,0.1c0.1,0,0.2,0,0.3,0c0.1,0,0.1,0,0.2,0c0.2,0,0.4,0,0.6-0.1
			c0.2-0.1,0.3-0.1,0.4-0.2s0.2-0.2,0.3-0.3c0.1-0.1,0.1-0.2,0.2-0.3c0-0.1,0.1-0.2,0.1-0.3s0-0.1,0-0.2v-4.8H70.7z"/>
		<path id="XMLID_1480_" class="st6" d="M74.2,104.8c0.1,0,0.2,0,0.3,0c0.1,0,0.3,0,0.5,0.1s0.4,0.1,0.5,0.2
			c0.2,0.1,0.4,0.3,0.5,0.4c0.2,0.2,0.3,0.4,0.4,0.7s0.2,0.6,0.2,1v2.4c0,0.5-0.1,0.9-0.3,1.2c-0.1,0.2-0.2,0.3-0.3,0.5
			c-0.1,0.1-0.3,0.3-0.4,0.4c-0.2,0.1-0.4,0.2-0.6,0.3c-0.2,0.1-0.5,0.1-0.8,0.1c-0.3,0-0.6,0-0.8-0.1c-0.2-0.1-0.4-0.2-0.6-0.3
			c-0.2-0.1-0.3-0.3-0.4-0.4s-0.2-0.3-0.3-0.5c0,0,0.1-0.1,0.2-0.1c0.1,0,0.2-0.1,0.3-0.2c0.1-0.1,0.2-0.1,0.3-0.2
			c0.1,0,0.1-0.1,0.2-0.1c0.1,0.2,0.2,0.3,0.3,0.5c0.1,0.1,0.3,0.2,0.4,0.2c0.2,0.1,0.3,0.1,0.5,0.1c0.3,0,0.5-0.1,0.7-0.2
			c0.1,0,0.2-0.1,0.2-0.2c0.1-0.1,0.2-0.2,0.2-0.3c0.1-0.1,0.1-0.2,0.2-0.3s0.1-0.3,0.1-0.5v-2.4c0-0.3-0.1-0.5-0.2-0.7
			c0-0.1-0.1-0.2-0.2-0.3c-0.1-0.1-0.1-0.2-0.2-0.2s-0.2-0.1-0.3-0.2c-0.1,0-0.3-0.1-0.4-0.1c-0.2,0-0.4,0-0.6,0.1
			c-0.2,0-0.3,0.1-0.4,0.2c-0.1,0.1-0.2,0.2-0.3,0.3s-0.2,0.3-0.2,0.5h-1.1c0-0.3,0.1-0.6,0.2-0.9c0.1-0.3,0.3-0.5,0.5-0.7
			s0.5-0.3,0.8-0.5C73.4,104.8,73.7,104.8,74.2,104.8L74.2,104.8L74.2,104.8z"/>
		<path id="XMLID_1478_" class="st6" d="M74.3,102.4v0.5H77v1h-3.2c-0.1,0-0.2,0-0.3-0.1s-0.1-0.1-0.1-0.2c0-0.1-0.1-0.2-0.1-0.2
			v-1.1H74.3z"/>
		<path id="XMLID_1476_" class="st6" d="M88,112.3c0,0.3,0,0.6-0.1,0.9c-0.1,0.2-0.2,0.4-0.3,0.6c-0.1,0.2-0.3,0.3-0.4,0.4
			c-0.2,0.1-0.3,0.2-0.5,0.2s-0.3,0.1-0.4,0.1s-0.2,0-0.2,0c-0.3,0-0.6,0-0.8-0.1c-0.2-0.1-0.4-0.2-0.6-0.3
			c-0.2-0.1-0.3-0.2-0.4-0.4l0.7-0.9c0,0,0.1,0.1,0.1,0.1c0.1,0.1,0.1,0.1,0.2,0.2c0.1,0.1,0.2,0.1,0.3,0.1c0.1,0,0.3,0.1,0.4,0.1
			c0.2,0,0.4,0,0.5-0.1s0.2-0.2,0.3-0.3c0.1-0.1,0.1-0.3,0.1-0.5V111c0,0.1-0.1,0.2-0.1,0.3c-0.1,0.1-0.1,0.2-0.2,0.3
			s-0.2,0.1-0.3,0.2c-0.1,0.1-0.2,0.1-0.3,0.1c-0.2,0.1-0.5,0.2-0.8,0.2H85c-0.4,0-0.8-0.1-1-0.2c-0.3-0.1-0.5-0.3-0.7-0.4
			c-0.2-0.2-0.3-0.4-0.4-0.6c-0.1-0.2-0.2-0.4-0.2-0.6c-0.1-0.2-0.1-0.4-0.1-0.6c0-0.2,0-0.3,0-0.4v-1.8c0-0.3,0-0.5-0.1-0.7
			c-0.1-0.2-0.2-0.4-0.3-0.5c-0.1-0.1-0.3-0.2-0.4-0.3s-0.3-0.1-0.4-0.2c-0.1,0-0.2-0.1-0.3-0.1c-0.1,0-0.2,0-0.2,0
			c-0.2,0-0.4,0-0.6,0.1c-0.2,0-0.3,0.1-0.4,0.2c-0.1,0.1-0.2,0.2-0.3,0.3c-0.1,0.1-0.2,0.2-0.2,0.3c-0.1,0.3-0.2,0.5-0.2,0.9v2.2
			c0,0.2,0.1,0.4,0.2,0.6c0,0.1,0.1,0.2,0.1,0.2c0.1,0.1,0.1,0.1,0.2,0.2c0.1,0.1,0.2,0.1,0.3,0.1s0.3,0.1,0.4,0.1h0.8v1h-1.4
			c-0.3,0-0.6-0.1-0.8-0.3c-0.1-0.1-0.2-0.2-0.3-0.3c-0.1-0.1-0.2-0.2-0.3-0.4c-0.1-0.1-0.1-0.3-0.2-0.5c0-0.2-0.1-0.4-0.1-0.7v-0.1
			v-3.3c0.1-0.3,0.3-0.5,0.5-0.7c0.2-0.2,0.4-0.4,0.5-0.5c0.2-0.1,0.4-0.2,0.6-0.3s0.3-0.1,0.5-0.2c0.2,0,0.3-0.1,0.4-0.1
			c0.1,0,0.2,0,0.3,0h0.1c0.5,0,0.9,0.1,1.2,0.2s0.6,0.3,0.8,0.5c0.2,0.2,0.4,0.4,0.5,0.6c0.1,0.2,0.2,0.4,0.3,0.6
			c0.1,0.2,0.1,0.4,0.1,0.5c0,0.1,0,0.2,0,0.3v1.7c0,0.3,0,0.6,0.1,0.8c0.1,0.2,0.2,0.4,0.3,0.5c0.1,0.1,0.3,0.2,0.4,0.3
			c0.1,0.1,0.3,0.1,0.4,0.2c0.1,0,0.2,0.1,0.3,0.1s0.2,0,0.2,0c0.3,0,0.5,0,0.7-0.1c0.2-0.1,0.3-0.2,0.5-0.3
			c0.1-0.1,0.2-0.3,0.3-0.4s0.1-0.3,0.2-0.4s0.1-0.3,0.1-0.3c0-0.1,0-0.2,0-0.2v-4.5H88L88,112.3z"/>
		<path id="XMLID_1474_" class="st6" d="M90.4,112h-1.1v-7.2h1.1V112z"/>
		<path id="XMLID_1472_" class="st6" d="M97.4,102.2v7.4c0,0.5-0.2,0.9-0.4,1.3c-0.1,0.2-0.2,0.3-0.3,0.5c-0.1,0.2-0.3,0.3-0.5,0.4
			c-0.2,0.1-0.4,0.2-0.7,0.3c-0.3,0.1-0.6,0.1-0.9,0.1c-0.3,0-0.6,0-0.9-0.1c-0.3-0.1-0.5-0.2-0.7-0.3c-0.2-0.1-0.4-0.3-0.5-0.4
			c-0.1-0.2-0.3-0.3-0.3-0.5c-0.2-0.4-0.3-0.8-0.4-1.3v-4.7h1.1v4.7c0,0.2,0,0.4,0.1,0.5c0,0.1,0.1,0.3,0.2,0.4
			c0.1,0.1,0.2,0.2,0.3,0.3c0.1,0.1,0.2,0.1,0.3,0.2c0.3,0.1,0.5,0.2,0.9,0.2c0.3,0,0.6-0.1,0.9-0.2c0.1,0,0.2-0.1,0.3-0.2
			c0.1-0.1,0.2-0.2,0.3-0.3c0.1-0.1,0.1-0.2,0.2-0.4c0-0.1,0.1-0.3,0.1-0.5v-7.4H97.4z"/>
		<path id="XMLID_1470_" class="st6" d="M96.1,102.1h-3.1c-0.1,0-0.1,0-0.2,0c0,0-0.1,0.1-0.1,0.1s0,0.1-0.1,0.2s0,0.1,0,0.2
			c0,0.1,0,0.1,0,0.2c0,0.1,0,0.1,0.1,0.2s0.1,0.1,0.1,0.1c0,0,0.1,0,0.1,0c0.1,0,0.1,0,0.2-0.1s0.1-0.1,0.1-0.1c0,0,0-0.1,0-0.2
			s0-0.1,0-0.1v-0.1h0.8v0.1c0,0,0,0.1,0,0.1c0,0.1,0,0.1,0,0.2s0.1,0.1,0.1,0.1c0,0,0.1,0.1,0.2,0.1s0.1,0,0.2-0.1
			c0,0,0.1-0.1,0.1-0.1s0-0.1,0-0.2s0-0.1,0-0.1v-0.1h0.9c0,0.3,0,0.5-0.1,0.7c-0.1,0.2-0.2,0.3-0.3,0.4c-0.1,0.1-0.2,0.2-0.4,0.2
			c-0.1,0-0.3,0.1-0.4,0.1c-0.1,0-0.2,0-0.3,0c-0.1,0-0.2-0.1-0.2-0.1c-0.1,0-0.1-0.1-0.2-0.1c0,0-0.1,0-0.1,0.1s-0.1,0.1-0.2,0.1
			c-0.1,0-0.1,0.1-0.2,0.1c-0.1,0-0.2,0-0.2,0c0,0-0.1,0-0.2,0c-0.1,0-0.2,0-0.2-0.1c-0.1,0-0.2-0.1-0.3-0.1s-0.2-0.1-0.2-0.2
			c-0.1-0.1-0.1-0.2-0.2-0.4c0-0.2-0.1-0.3-0.1-0.6c0-0.3,0.1-0.6,0.2-0.8s0.2-0.4,0.4-0.5s0.3-0.2,0.4-0.2c0.1,0,0.2-0.1,0.3-0.1
			h3.1V102.1z"/>
		<path id="XMLID_1468_" class="st6" d="M99.8,104.8v4.5c0,0.3,0,0.6,0.1,0.8c0.1,0.2,0.2,0.4,0.3,0.5c0.1,0.1,0.2,0.2,0.4,0.3
			c0.1,0.1,0.3,0.1,0.4,0.2s0.2,0.1,0.3,0.1c0.1,0,0.2,0,0.2,0c0.3,0,0.5,0,0.7-0.1c0.2-0.1,0.4-0.2,0.5-0.3
			c0.1-0.1,0.2-0.3,0.3-0.4c0.1-0.2,0.1-0.3,0.2-0.4c0-0.1,0.1-0.3,0.1-0.3c0-0.1,0-0.2,0-0.2v-4.5h1.1v7.2h-1.1v-1
			c0,0.1,0,0.3-0.1,0.4s-0.1,0.2-0.2,0.3c-0.1,0.1-0.2,0.1-0.3,0.2s-0.2,0.1-0.3,0.1c-0.2,0.1-0.5,0.1-0.8,0.2h-0.2
			c-0.4,0-0.8-0.1-1-0.2s-0.5-0.3-0.7-0.4s-0.3-0.4-0.4-0.6c-0.1-0.2-0.2-0.4-0.2-0.6c-0.1-0.2-0.1-0.4-0.1-0.6c0-0.2,0-0.3,0-0.4
			v-0.1v-4.5H99.8z"/>
		<path id="XMLID_1466_" class="st6" d="M112.5,104.8v5.5c0,0.3-0.1,0.7-0.3,0.9c-0.1,0.1-0.2,0.2-0.3,0.3c-0.1,0.1-0.2,0.2-0.4,0.3
			c-0.1,0.1-0.3,0.2-0.5,0.2c-0.2,0.1-0.4,0.1-0.6,0.1c-0.2,0-0.3,0-0.5-0.1c-0.2,0-0.3-0.1-0.4-0.2s-0.2-0.2-0.3-0.3
			c-0.1-0.1-0.1-0.3-0.1-0.5c0,0.2,0,0.3-0.1,0.5c-0.1,0.1-0.2,0.3-0.3,0.3c-0.1,0.1-0.3,0.2-0.4,0.2s-0.3,0.1-0.5,0.1
			c-0.2,0-0.5,0-0.6-0.1c-0.2-0.1-0.4-0.1-0.5-0.2c-0.1-0.1-0.3-0.2-0.4-0.3c-0.1-0.1-0.2-0.2-0.2-0.3c-0.2-0.3-0.3-0.6-0.3-0.9
			v-5.5h1.7v1h-0.7v4c0,0.3,0,0.6,0.1,0.7c0.1,0.2,0.2,0.3,0.3,0.4c0.1,0.1,0.2,0.1,0.3,0.1c0.1,0,0.2,0,0.2,0h0
			c0.2,0,0.3,0,0.4-0.1s0.2-0.2,0.2-0.3c0.1-0.1,0.1-0.3,0.1-0.4c0-0.1,0-0.2,0-0.3v-0.1v-5h1v5v0.1c0,0.1,0,0.2,0,0.3
			c0,0.1,0.1,0.3,0.1,0.4c0.1,0.1,0.1,0.2,0.3,0.3c0.1,0.1,0.3,0.1,0.4,0.1h0.1c0,0,0.1,0,0.2,0c0.1,0,0.2-0.1,0.3-0.1
			c0.1-0.1,0.2-0.2,0.3-0.4c0.1-0.2,0.1-0.4,0.1-0.7v-5H112.5z"/>
		<path id="XMLID_1464_" class="st6" d="M112.4,103v1h-3v-1.4h-0.5v-1h1.1c0.1,0,0.2,0,0.2,0.1c0.1,0,0.1,0.1,0.2,0.1
			c0,0.1,0.1,0.2,0.1,0.3v0.9H112.4z"/>
		<path id="XMLID_1462_" class="st6" d="M114.7,104.8c0,0,0.1,0,0.2,0s0.2,0,0.4,0.1c0.1,0,0.3,0.1,0.5,0.2c0.2,0.1,0.3,0.2,0.4,0.4
			c0.1,0.2,0.2,0.4,0.3,0.6c0.1,0.2,0.1,0.5,0.1,0.9v5.1h-1.1v-5.1c0-0.2,0-0.4-0.1-0.5c0-0.1-0.1-0.1-0.1-0.2
			c0-0.1-0.1-0.1-0.1-0.2c-0.1,0-0.1-0.1-0.2-0.1s-0.2,0-0.3,0c-0.2,0-0.3,0-0.5,0.1c-0.1,0-0.2,0.1-0.3,0.1
			c-0.1,0.1-0.1,0.1-0.2,0.2s-0.1,0.1-0.1,0.1l-0.7-0.8c0.1-0.1,0.3-0.3,0.4-0.4c0.1-0.1,0.3-0.2,0.6-0.3
			C114.2,104.8,114.4,104.8,114.7,104.8z"/>
		<path id="XMLID_1460_" class="st6" d="M124.8,102.2v8.1c0,0.3-0.1,0.7-0.3,0.9c-0.1,0.1-0.2,0.2-0.3,0.3c-0.1,0.1-0.2,0.2-0.4,0.3
			c-0.1,0.1-0.3,0.2-0.5,0.2c-0.2,0.1-0.4,0.1-0.6,0.1c-0.2,0-0.3,0-0.5-0.1c-0.2,0-0.3-0.1-0.4-0.2c-0.1-0.1-0.2-0.2-0.3-0.3
			c-0.1-0.1-0.1-0.3-0.1-0.5c0,0.2,0,0.3-0.1,0.5c-0.1,0.1-0.2,0.3-0.3,0.3c-0.1,0.1-0.3,0.2-0.4,0.2s-0.3,0.1-0.5,0.1
			c-0.2,0-0.5,0-0.6-0.1c-0.2-0.1-0.4-0.1-0.5-0.2c-0.1-0.1-0.3-0.2-0.4-0.3c-0.1-0.1-0.2-0.2-0.2-0.3c-0.2-0.3-0.3-0.6-0.3-0.9
			v-5.5h1.1v5c0,0.3,0,0.6,0.1,0.7c0.1,0.2,0.2,0.3,0.3,0.4c0.1,0.1,0.2,0.1,0.3,0.1c0.1,0,0.2,0,0.2,0h0c0.2,0,0.3,0,0.4-0.1
			c0.1-0.1,0.2-0.2,0.2-0.3s0.1-0.3,0.1-0.4c0-0.1,0-0.2,0-0.3v-0.1v-5h1v5v0.1c0,0.1,0,0.2,0,0.3s0.1,0.3,0.1,0.4
			c0.1,0.1,0.1,0.2,0.2,0.3c0.1,0.1,0.3,0.1,0.4,0.1h0.1c0,0,0.1,0,0.2,0c0.1,0,0.2-0.1,0.3-0.1c0.1-0.1,0.2-0.2,0.3-0.4
			c0.1-0.2,0.1-0.4,0.1-0.7v-7.6H124.8z"/>
		<path id="XMLID_1458_" class="st6" d="M124.3,112.6v1.8c0,0.1,0,0.2-0.1,0.3c-0.1,0.1-0.2,0.1-0.3,0.1h-1.4c-0.1,0-0.2,0-0.3-0.1
			c-0.1-0.1-0.1-0.2-0.1-0.3v-1h-0.4v-0.9h0.8c0.1,0,0.2,0,0.3,0.1c0,0,0.1,0.1,0.1,0.1c0,0.1,0,0.1,0,0.2v1h0.5v-1.4H124.3z"/>
		<path id="XMLID_1456_" class="st6" d="M126.6,112.1v-7.3c0-0.1,0-0.3-0.1-0.4c-0.1-0.1-0.1-0.3-0.2-0.4c-0.1-0.1-0.2-0.3-0.3-0.4
			c-0.1-0.1-0.2-0.3-0.3-0.4c-0.1-0.1-0.2-0.3-0.2-0.4c-0.1-0.2-0.1-0.3-0.1-0.5c0-0.2,0-0.4,0.1-0.7c0.1-0.2,0.1-0.5,0.3-0.7
			s0.3-0.4,0.5-0.5c0.2-0.1,0.5-0.2,0.9-0.2h2.8v1h-2.5c-0.2,0-0.3,0.1-0.5,0.1c-0.1,0-0.1,0.1-0.2,0.1c-0.1,0.1-0.1,0.1-0.2,0.2
			s-0.1,0.2-0.1,0.3c0,0.1,0,0.2,0,0.4c0,0.2,0,0.3,0.1,0.4c0.1,0.1,0.1,0.2,0.2,0.3c0.1,0.1,0.2,0.2,0.3,0.4s0.3,0.4,0.4,0.6
			c0,0.1,0.1,0.2,0.1,0.2c0,0.1,0,0.2,0.1,0.3c0,0.1,0,0.3,0,0.4v7.1H126.6z"/>
		<path id="XMLID_1454_" class="st6" d="M133,106.7l-0.5-0.3c-0.1-0.1-0.2-0.1-0.4-0.2c-0.1-0.1-0.3-0.1-0.4-0.2
			c-0.1,0-0.3-0.1-0.4-0.1c-0.1,0-0.2,0-0.3,0c-0.2,0-0.3,0-0.5,0s-0.3,0.1-0.4,0.2c-0.1,0.1-0.2,0.2-0.3,0.3
			c-0.1,0.1-0.1,0.3-0.1,0.5c0,0.2,0.1,0.4,0.2,0.5s0.3,0.2,0.5,0.3s0.4,0.1,0.6,0.2c0.2,0,0.5,0.1,0.7,0.1c0.2,0,0.5,0.1,0.7,0.2
			c0.2,0.1,0.4,0.3,0.6,0.4c0.2,0.2,0.3,0.4,0.4,0.6s0.2,0.5,0.2,0.7c0,0.4-0.1,0.7-0.2,1c-0.1,0.3-0.3,0.5-0.5,0.7
			s-0.5,0.3-0.8,0.4s-0.6,0.1-1,0.1c-0.5,0-0.9-0.1-1.3-0.2c-0.3-0.1-0.6-0.2-0.9-0.4c-0.3-0.2-0.5-0.3-0.7-0.5l0.7-0.7
			c0.1,0.1,0.2,0.2,0.3,0.3s0.3,0.2,0.5,0.2c0.2,0.1,0.4,0.1,0.6,0.2c0.2,0,0.4,0.1,0.6,0.1c0.2,0,0.4,0,0.6-0.1
			c0.2-0.1,0.3-0.1,0.5-0.2c0.1-0.1,0.2-0.2,0.3-0.4c0.1-0.1,0.1-0.3,0.1-0.5c0-0.2,0-0.3-0.1-0.4c-0.1-0.1-0.1-0.2-0.2-0.3
			c-0.1-0.1-0.2-0.1-0.2-0.1c-0.1,0-0.1,0-0.2,0c0,0-0.1,0-0.2,0c-0.1,0-0.3,0-0.4-0.1c-0.2,0-0.3-0.1-0.5-0.1c-0.2,0-0.3,0-0.4-0.1
			c-0.1,0-0.1,0-0.2-0.1s-0.2-0.1-0.3-0.1s-0.2-0.1-0.4-0.2s-0.2-0.2-0.3-0.3c-0.1-0.1-0.2-0.3-0.2-0.5c-0.1-0.2-0.1-0.4-0.1-0.7
			c0-0.4,0.1-0.7,0.2-1c0.1-0.3,0.3-0.5,0.5-0.7c0.2-0.2,0.5-0.3,0.8-0.4s0.6-0.1,0.9-0.1c0.3,0,0.6,0,0.8,0.1s0.5,0.1,0.6,0.2
			c0.2,0.1,0.4,0.2,0.6,0.3l0.6,0.4L133,106.7z"/>
		<path id="XMLID_1452_" class="st6" d="M139,106.3c0.2,0.1,0.4,0.2,0.6,0.3c0.1,0.1,0.2,0.3,0.2,0.6v2.5c0,0.4-0.1,0.7-0.2,1
			c-0.1,0.3-0.3,0.5-0.4,0.7s-0.4,0.3-0.6,0.4c-0.2,0.1-0.4,0.2-0.6,0.2c-0.2,0-0.4,0.1-0.5,0.1c-0.1,0-0.2,0-0.3,0
			c-0.4,0-0.8-0.1-1.1-0.2c-0.3-0.1-0.5-0.3-0.7-0.4c-0.2-0.2-0.3-0.4-0.4-0.6c-0.1-0.2-0.2-0.4-0.2-0.6c0-0.2-0.1-0.4-0.1-0.5
			c0-0.1,0-0.2,0-0.3c0-0.2,0-0.4,0.1-0.6c0.1-0.2,0.2-0.4,0.3-0.5c0.1-0.2,0.2-0.3,0.3-0.4c0.1-0.1,0.2-0.2,0.3-0.4
			s0.2-0.2,0.3-0.3s0.1-0.2,0.1-0.3c0,0,0-0.1,0-0.1c0,0,0,0,0-0.1c0-0.2,0-0.3-0.1-0.4s-0.1-0.2-0.2-0.3c-0.1-0.1-0.2-0.1-0.3-0.2
			c-0.1,0-0.2-0.1-0.3-0.1c-0.1,0-0.2,0-0.3,0c-0.1,0-0.2,0-0.2,0h-0.1v-1h0.6c0.3,0,0.5,0,0.7,0.1c0.2,0.1,0.4,0.2,0.5,0.3
			c0.1,0.1,0.2,0.3,0.3,0.4c0.1,0.2,0.1,0.3,0.2,0.5c0,0.2,0.1,0.3,0.1,0.4c0,0.1,0,0.2,0,0.3c0,0,0,0,0,0.1c0,0,0,0,0,0v0
			c0,0.1,0,0.3-0.1,0.4s-0.1,0.2-0.2,0.3c-0.1,0.1-0.2,0.2-0.2,0.3c-0.2,0.2-0.4,0.4-0.5,0.6s-0.2,0.3-0.3,0.5s-0.1,0.2-0.1,0.3
			c0,0.1,0,0.1,0,0.2c0,0.2,0,0.5,0.1,0.6c0.1,0.2,0.1,0.3,0.2,0.4s0.2,0.2,0.3,0.3c0.1,0.1,0.2,0.1,0.3,0.1c0.1,0,0.2,0,0.3,0
			c0.1,0,0.1,0,0.2,0c0.2,0,0.4,0,0.6-0.1c0.2-0.1,0.3-0.1,0.4-0.2c0.1-0.1,0.2-0.2,0.3-0.3c0.1-0.1,0.1-0.2,0.2-0.3
			c0-0.1,0.1-0.2,0.1-0.3s0-0.1,0-0.2v-2.3c0-0.5-0.3-0.7-1-0.7h-0.4v-0.8h0.4c0.3,0,0.6-0.1,0.7-0.2c0.2-0.1,0.2-0.3,0.2-0.6v-0.2
			h1.1v0.4C139.8,105.8,139.5,106.1,139,106.3z"/>
		<path id="XMLID_1450_" class="st6" d="M139.4,103v1h-4v-1H139.4z"/>
		<path id="XMLID_1448_" class="st6" d="M141.1,112v-5.5c0.1-0.3,0.3-0.5,0.5-0.7c0.2-0.2,0.4-0.4,0.5-0.5c0.2-0.1,0.4-0.2,0.6-0.3
			c0.2-0.1,0.3-0.1,0.5-0.2c0.2,0,0.3-0.1,0.4-0.1c0.1,0,0.2,0,0.3,0h0.1c0.3,0,0.7,0.1,0.9,0.1c0.3,0.1,0.5,0.2,0.7,0.3
			c0.2,0.1,0.4,0.3,0.5,0.4c0.1,0.2,0.2,0.3,0.3,0.5c0.1,0.2,0.2,0.3,0.2,0.5c0,0.2,0.1,0.3,0.1,0.4c0,0.1,0,0.2,0,0.3
			c0,0.1,0,0.2,0,0.2v4.5h-1.1v-4.5c0-0.3,0-0.5-0.1-0.7c-0.1-0.2-0.2-0.4-0.3-0.5c-0.1-0.1-0.3-0.2-0.4-0.3
			c-0.1-0.1-0.3-0.1-0.4-0.2c-0.1,0-0.2-0.1-0.3-0.1c-0.1,0-0.2,0-0.2,0c-0.2,0-0.4,0-0.6,0.1c-0.2,0-0.3,0.1-0.4,0.2
			c-0.1,0.1-0.2,0.2-0.3,0.3c-0.1,0.1-0.2,0.2-0.2,0.3c-0.1,0.3-0.2,0.5-0.2,0.9v4.5H141.1z"/>
		<path id="XMLID_1446_" class="st6" d="M146.4,103v1h-4v-1H146.4z"/>
		<path id="XMLID_1444_" class="st7" d="M39.4,128.6h-1.1v-7.2h1.1V128.6z"/>
		<path id="XMLID_1442_" class="st7" d="M46.4,118.7v7.4c0,0.5-0.2,0.9-0.4,1.3c-0.1,0.2-0.2,0.3-0.3,0.5c-0.1,0.2-0.3,0.3-0.5,0.4
			c-0.2,0.1-0.4,0.2-0.7,0.3c-0.3,0.1-0.6,0.1-0.9,0.1c-0.3,0-0.6,0-0.9-0.1c-0.3-0.1-0.5-0.2-0.7-0.3c-0.2-0.1-0.4-0.3-0.5-0.4
			c-0.1-0.2-0.3-0.3-0.3-0.5c-0.2-0.4-0.3-0.8-0.4-1.3v-4.7h1.1v4.7c0,0.2,0,0.4,0.1,0.5c0,0.1,0.1,0.3,0.2,0.4
			c0.1,0.1,0.2,0.2,0.3,0.3c0.1,0.1,0.2,0.1,0.3,0.2c0.3,0.1,0.5,0.2,0.9,0.2c0.3,0,0.6-0.1,0.9-0.2c0.1,0,0.2-0.1,0.3-0.2
			c0.1-0.1,0.2-0.2,0.3-0.3c0.1-0.1,0.1-0.2,0.2-0.4c0-0.1,0.1-0.3,0.1-0.5v-7.4H46.4z"/>
		<path id="XMLID_1440_" class="st7" d="M45.1,118.6h-3.1c-0.1,0-0.1,0-0.2,0c0,0-0.1,0.1-0.1,0.1s0,0.1-0.1,0.2s0,0.1,0,0.2
			c0,0.1,0,0.1,0,0.2c0,0.1,0,0.1,0.1,0.2c0,0.1,0.1,0.1,0.1,0.1c0,0,0.1,0,0.1,0c0.1,0,0.1,0,0.2-0.1c0,0,0.1-0.1,0.1-0.1
			c0,0,0-0.1,0-0.2c0-0.1,0-0.1,0-0.1v-0.1h0.8v0.1c0,0,0,0.1,0,0.1c0,0.1,0,0.1,0,0.2s0.1,0.1,0.1,0.1c0,0,0.1,0.1,0.2,0.1
			s0.1,0,0.2-0.1c0,0,0.1-0.1,0.1-0.1s0-0.1,0-0.2c0-0.1,0-0.1,0-0.1v-0.1h0.9c0,0.3,0,0.5-0.1,0.7c-0.1,0.2-0.2,0.3-0.3,0.4
			c-0.1,0.1-0.2,0.2-0.4,0.2c-0.1,0-0.3,0.1-0.4,0.1c-0.1,0-0.2,0-0.3,0c-0.1,0-0.2-0.1-0.2-0.1c-0.1,0-0.2-0.1-0.2-0.1
			c0,0-0.1,0-0.1,0.1s-0.1,0.1-0.2,0.1c-0.1,0-0.1,0.1-0.2,0.1c-0.1,0-0.2,0-0.2,0c0,0-0.1,0-0.2,0c-0.1,0-0.2,0-0.2-0.1
			c-0.1,0-0.2-0.1-0.3-0.1s-0.2-0.1-0.2-0.2c-0.1-0.1-0.1-0.2-0.2-0.4c0-0.2-0.1-0.3-0.1-0.6c0-0.3,0.1-0.6,0.2-0.8
			c0.1-0.2,0.2-0.4,0.4-0.5s0.3-0.2,0.4-0.2s0.2-0.1,0.3-0.1h3.1V118.6z"/>
		<path id="XMLID_1438_" class="st7" d="M48.8,121.4v4.5c0,0.3,0,0.6,0.1,0.8c0.1,0.2,0.2,0.4,0.3,0.5c0.1,0.1,0.3,0.2,0.4,0.3
			c0.1,0.1,0.3,0.1,0.4,0.2c0.1,0,0.2,0.1,0.3,0.1c0.1,0,0.2,0,0.2,0c0.3,0,0.5,0,0.7-0.1c0.2-0.1,0.4-0.2,0.5-0.3
			c0.1-0.1,0.2-0.3,0.3-0.4c0.1-0.2,0.1-0.3,0.2-0.4c0-0.1,0.1-0.3,0.1-0.3s0-0.2,0-0.2v-4.5h1.1v7.2h-1.1v-1c0,0.1,0,0.3-0.1,0.4
			s-0.1,0.2-0.2,0.3c-0.1,0.1-0.2,0.1-0.3,0.2s-0.2,0.1-0.3,0.1c-0.2,0.1-0.5,0.1-0.8,0.2h-0.2c-0.4,0-0.8-0.1-1-0.2
			s-0.5-0.3-0.7-0.4s-0.3-0.4-0.4-0.6c-0.1-0.2-0.2-0.4-0.2-0.6c-0.1-0.2-0.1-0.4-0.1-0.6c0-0.2,0-0.3,0-0.4v-0.1v-4.5H48.8z"/>
		<path id="XMLID_1436_" class="st7" d="M54.8,128.6V123c0.1-0.3,0.3-0.5,0.5-0.7c0.2-0.2,0.4-0.4,0.5-0.5c0.2-0.1,0.4-0.2,0.6-0.3
			c0.2-0.1,0.3-0.1,0.5-0.2c0.2,0,0.3-0.1,0.4-0.1c0.1,0,0.2,0,0.3,0h0.1c0.3,0,0.7,0.1,0.9,0.1c0.3,0.1,0.5,0.2,0.7,0.3
			c0.2,0.1,0.4,0.3,0.5,0.4c0.1,0.2,0.3,0.3,0.3,0.5c0.1,0.2,0.2,0.3,0.2,0.5c0,0.2,0.1,0.3,0.1,0.4c0,0.1,0,0.2,0,0.3
			c0,0.1,0,0.2,0,0.2v4.5h-1.1v-4.5c0-0.3,0-0.5-0.1-0.7c-0.1-0.2-0.2-0.4-0.3-0.5c-0.1-0.1-0.3-0.2-0.4-0.3s-0.3-0.1-0.4-0.2
			c-0.1,0-0.2-0.1-0.3-0.1c-0.1,0-0.2,0-0.2,0c-0.2,0-0.4,0-0.6,0.1c-0.2,0-0.3,0.1-0.4,0.2c-0.1,0.1-0.2,0.2-0.3,0.3
			c-0.1,0.1-0.2,0.2-0.2,0.3c-0.1,0.3-0.2,0.5-0.2,0.9v4.5H54.8z"/>
		<path id="XMLID_1434_" class="st7" d="M62.9,121.3c0,0,0.1,0,0.2,0s0.2,0,0.4,0.1c0.1,0,0.3,0.1,0.5,0.2c0.2,0.1,0.3,0.2,0.4,0.4
			c0.1,0.2,0.2,0.4,0.3,0.6c0.1,0.2,0.1,0.5,0.1,0.9v5.1h-1.1v-5.1c0-0.2,0-0.4-0.1-0.5c0-0.1-0.1-0.1-0.1-0.2
			c0-0.1-0.1-0.1-0.1-0.2c-0.1,0-0.1-0.1-0.2-0.1s-0.2,0-0.3,0c-0.2,0-0.3,0-0.5,0.1c-0.1,0-0.2,0.1-0.3,0.1
			c-0.1,0.1-0.1,0.1-0.2,0.2s-0.1,0.1-0.1,0.1l-0.7-0.8c0.1-0.1,0.3-0.3,0.4-0.4c0.1-0.1,0.3-0.2,0.6-0.3
			C62.3,121.3,62.6,121.3,62.9,121.3z"/>
		<path id="XMLID_1432_" class="st7" d="M70.3,123.2l-0.5-0.3c-0.1-0.1-0.2-0.1-0.4-0.2c-0.1-0.1-0.3-0.1-0.4-0.2
			c-0.1,0-0.3-0.1-0.4-0.1c-0.1,0-0.2,0-0.3,0c-0.2,0-0.3,0-0.5,0s-0.3,0.1-0.4,0.2s-0.2,0.2-0.3,0.3c-0.1,0.1-0.1,0.3-0.1,0.5
			c0,0.2,0.1,0.4,0.2,0.5c0.1,0.1,0.3,0.2,0.5,0.3s0.4,0.1,0.6,0.2c0.2,0,0.5,0.1,0.7,0.1c0.2,0,0.5,0.1,0.7,0.2
			c0.2,0.1,0.4,0.3,0.6,0.4c0.2,0.2,0.3,0.4,0.4,0.6c0.1,0.2,0.2,0.5,0.2,0.7c0,0.4-0.1,0.7-0.2,1c-0.1,0.3-0.3,0.5-0.5,0.7
			c-0.2,0.2-0.5,0.3-0.8,0.4c-0.3,0.1-0.6,0.1-1,0.1c-0.5,0-0.9-0.1-1.3-0.2c-0.3-0.1-0.6-0.2-0.9-0.4c-0.3-0.2-0.5-0.3-0.7-0.5
			l0.7-0.7c0.1,0.1,0.2,0.2,0.3,0.3s0.3,0.2,0.5,0.2c0.2,0.1,0.4,0.1,0.6,0.2c0.2,0,0.4,0.1,0.6,0.1c0.2,0,0.4,0,0.6-0.1
			c0.2-0.1,0.3-0.1,0.5-0.2c0.1-0.1,0.2-0.2,0.3-0.4c0.1-0.1,0.1-0.3,0.1-0.5c0-0.2,0-0.3-0.1-0.4c-0.1-0.1-0.1-0.2-0.2-0.3
			c-0.1-0.1-0.2-0.1-0.2-0.1c-0.1,0-0.1,0-0.2,0c0,0-0.1,0-0.2,0c-0.1,0-0.3,0-0.4-0.1c-0.2,0-0.3-0.1-0.5-0.1c-0.2,0-0.3,0-0.4-0.1
			c-0.1,0-0.1,0-0.2-0.1s-0.2-0.1-0.3-0.1c-0.1-0.1-0.2-0.1-0.4-0.2c-0.1-0.1-0.2-0.2-0.3-0.3c-0.1-0.1-0.2-0.3-0.2-0.5
			c-0.1-0.2-0.1-0.4-0.1-0.7c0-0.4,0.1-0.7,0.2-1c0.1-0.3,0.3-0.5,0.5-0.7c0.2-0.2,0.5-0.3,0.8-0.4s0.6-0.1,0.9-0.1
			c0.3,0,0.6,0,0.8,0.1c0.2,0.1,0.5,0.1,0.6,0.2c0.2,0.1,0.4,0.2,0.6,0.3l0.6,0.4L70.3,123.2z"/>
		<path id="XMLID_1430_" class="st7" d="M77.7,121.2c0,0,0,0.1-0.1,0.1s-0.1,0.1-0.1,0.2s-0.1,0.1-0.2,0.2s-0.2,0.1-0.2,0.2
			c-0.1,0.1-0.1,0.1-0.2,0.2c-0.1,0-0.1,0.1-0.2,0.1c0.1,0.2,0.3,0.4,0.3,0.6s0.1,0.4,0.2,0.6c0,0.2,0.1,0.3,0.1,0.5s0,0.2,0,0.3
			v0.1v4.4h-1.1v-2.1c0-0.2,0-0.4-0.1-0.5c-0.1-0.1-0.2-0.3-0.4-0.3c-0.1-0.1-0.3-0.2-0.5-0.2c-0.2-0.1-0.3-0.1-0.5-0.1
			c-0.1,0-0.3,0-0.5,0c0,0-0.1,0-0.1,0c-0.1,0-0.2,0-0.3,0s-0.2,0.1-0.3,0.1c-0.1,0-0.2,0.1-0.4,0.2c-0.1,0.1-0.2,0.2-0.3,0.3
			c-0.1,0.1-0.2,0.3-0.2,0.5c0,0,0,0.1,0,0.1c0,0,0,0.1,0,0.1c0,0.2,0,0.3,0.1,0.4c0.1,0.1,0.2,0.2,0.3,0.3c0.1,0.1,0.2,0.1,0.4,0.2
			s0.3,0.1,0.4,0.1c0.1,0,0.3,0,0.4,0c0.1,0,0.2,0,0.3,0h0.1v1h-1.2c-0.3,0-0.5-0.1-0.7-0.2s-0.4-0.3-0.6-0.4
			c-0.2-0.2-0.3-0.4-0.4-0.6c-0.1-0.2-0.1-0.5-0.1-0.8c0-0.3,0.1-0.5,0.2-0.8s0.3-0.5,0.6-0.8c0.2-0.2,0.3-0.3,0.5-0.4
			c0.2-0.1,0.3-0.2,0.5-0.2c0.2-0.1,0.3-0.1,0.5-0.1c0.2,0,0.3,0,0.5,0c0.2,0,0.5,0,0.7,0.1c0.2,0,0.4,0.1,0.6,0.2
			c0.2,0.1,0.4,0.1,0.5,0.2v-0.4c0-0.2,0-0.4-0.1-0.6c0-0.2-0.1-0.3-0.2-0.4c-0.1-0.1-0.2-0.2-0.3-0.3c-0.1-0.1-0.2-0.2-0.3-0.2
			c-0.3-0.1-0.5-0.2-0.9-0.2c-0.3,0-0.5,0.1-0.7,0.2c-0.2,0.1-0.4,0.2-0.5,0.4s-0.2,0.3-0.3,0.5c-0.1,0.2-0.1,0.3-0.2,0.4h-1.1
			c0-0.4,0.1-0.7,0.2-1c0.1-0.3,0.3-0.5,0.5-0.7c0.2-0.2,0.4-0.3,0.6-0.4c0.2-0.1,0.4-0.2,0.6-0.2c0.2-0.1,0.4-0.1,0.5-0.1
			c0.2,0,0.3,0,0.3,0h0.1c0.3,0,0.7,0,1,0.1c0.2,0,0.4-0.1,0.5-0.2c0.1-0.1,0.3-0.2,0.5-0.3s0.3-0.3,0.4-0.5l0.4,0.4
			c0,0,0.1,0.1,0.1,0.1c0,0,0.1,0.1,0.1,0.1C77.6,121.1,77.7,121.2,77.7,121.2C77.7,121.2,77.7,121.2,77.7,121.2z"/>
		<path id="XMLID_1428_" class="st7" d="M77,118.7v1.8h-4.4v-1h1.8v-0.7h1v0.7H76v-0.7H77z"/>
		<path id="XMLID_1426_" class="st7" d="M84.2,121.3v4.7c0,0.5-0.2,0.9-0.4,1.3c-0.1,0.2-0.2,0.3-0.3,0.5c-0.1,0.2-0.3,0.3-0.5,0.4
			c-0.2,0.1-0.4,0.2-0.7,0.3c-0.3,0.1-0.6,0.1-0.9,0.1c-0.3,0-0.6,0-0.9-0.1c-0.3-0.1-0.5-0.2-0.7-0.3c-0.2-0.1-0.4-0.3-0.5-0.4
			c-0.1-0.2-0.3-0.3-0.3-0.5c-0.2-0.4-0.3-0.8-0.4-1.3v-4.7h1.1v4.7c0,0.2,0,0.4,0.1,0.5c0,0.2,0.1,0.3,0.2,0.4
			c0.1,0.1,0.2,0.2,0.3,0.3s0.2,0.1,0.3,0.2c0.3,0.1,0.5,0.2,0.9,0.2c0.3,0,0.6-0.1,0.9-0.2c0.1,0,0.2-0.1,0.3-0.2s0.2-0.2,0.3-0.3
			c0.1-0.1,0.1-0.2,0.2-0.4s0.1-0.3,0.1-0.5v-4.7H84.2z"/>
		<path id="XMLID_1424_" class="st7" d="M91.5,121.2c0,0,0,0.1-0.1,0.1s-0.1,0.1-0.1,0.2s-0.1,0.1-0.2,0.2s-0.2,0.1-0.2,0.2
			c-0.1,0.1-0.1,0.1-0.2,0.2c-0.1,0-0.1,0.1-0.2,0.1c0.1,0.2,0.3,0.4,0.3,0.6s0.1,0.4,0.2,0.6c0,0.2,0.1,0.3,0.1,0.5s0,0.2,0,0.3
			v0.1v4.4H90v-2.1c0-0.2,0-0.4-0.1-0.5c-0.1-0.1-0.2-0.3-0.4-0.3c-0.1-0.1-0.3-0.2-0.5-0.2c-0.2-0.1-0.3-0.1-0.5-0.1
			c-0.1,0-0.3,0-0.5,0c0,0-0.1,0-0.1,0c-0.1,0-0.2,0-0.3,0s-0.2,0.1-0.3,0.1c-0.1,0-0.2,0.1-0.4,0.2c-0.1,0.1-0.2,0.2-0.3,0.3
			c-0.1,0.1-0.2,0.3-0.2,0.5c0,0,0,0.1,0,0.1c0,0,0,0.1,0,0.1c0,0.2,0,0.3,0.1,0.4c0.1,0.1,0.2,0.2,0.3,0.3c0.1,0.1,0.2,0.1,0.4,0.2
			s0.3,0.1,0.4,0.1c0.1,0,0.3,0,0.4,0c0.1,0,0.2,0,0.3,0h0.1v1h-1.2c-0.3,0-0.5-0.1-0.7-0.2s-0.4-0.3-0.6-0.4
			c-0.2-0.2-0.3-0.4-0.4-0.6c-0.1-0.2-0.1-0.5-0.1-0.8c0-0.3,0.1-0.5,0.2-0.8s0.3-0.5,0.6-0.8c0.2-0.2,0.3-0.3,0.5-0.4
			c0.2-0.1,0.3-0.2,0.5-0.2c0.2-0.1,0.3-0.1,0.5-0.1c0.2,0,0.3,0,0.5,0c0.2,0,0.5,0,0.7,0.1c0.2,0,0.4,0.1,0.6,0.2
			c0.2,0.1,0.4,0.1,0.5,0.2v-0.4c0-0.2,0-0.4-0.1-0.6c0-0.2-0.1-0.3-0.2-0.4c-0.1-0.1-0.2-0.2-0.3-0.3c-0.1-0.1-0.2-0.2-0.3-0.2
			c-0.3-0.1-0.5-0.2-0.9-0.2c-0.3,0-0.5,0.1-0.7,0.2c-0.2,0.1-0.4,0.2-0.5,0.4s-0.2,0.3-0.3,0.5c-0.1,0.2-0.1,0.3-0.2,0.4h-1.1
			c0-0.4,0.1-0.7,0.2-1c0.1-0.3,0.3-0.5,0.5-0.7c0.2-0.2,0.4-0.3,0.6-0.4c0.2-0.1,0.4-0.2,0.6-0.2c0.2-0.1,0.4-0.1,0.5-0.1
			c0.2,0,0.3,0,0.3,0h0.1c0.3,0,0.7,0,1,0.1c0.2,0,0.4-0.1,0.5-0.2c0.1-0.1,0.3-0.2,0.5-0.3s0.3-0.3,0.4-0.5l0.4,0.4
			c0,0,0.1,0.1,0.1,0.1c0,0,0.1,0.1,0.1,0.1C91.3,121.1,91.4,121.2,91.5,121.2C91.4,121.2,91.4,121.2,91.5,121.2z"/>
		<path id="XMLID_1422_" class="st7" d="M93.4,121.3c0,0,0.1,0,0.2,0s0.2,0,0.4,0.1c0.1,0,0.3,0.1,0.5,0.2c0.2,0.1,0.3,0.2,0.4,0.4
			c0.1,0.2,0.2,0.4,0.3,0.6c0.1,0.2,0.1,0.5,0.1,0.9v5.1h-1.1v-5.1c0-0.2,0-0.4-0.1-0.5c0-0.1-0.1-0.1-0.1-0.2
			c0-0.1-0.1-0.1-0.1-0.2c-0.1,0-0.1-0.1-0.2-0.1s-0.2,0-0.3,0c-0.2,0-0.3,0-0.5,0.1c-0.1,0-0.2,0.1-0.3,0.1
			c-0.1,0.1-0.1,0.1-0.2,0.2s-0.1,0.1-0.1,0.1l-0.7-0.8c0.1-0.1,0.3-0.3,0.4-0.4c0.1-0.1,0.3-0.2,0.6-0.3
			C92.8,121.3,93.1,121.3,93.4,121.3z"/>
		<path id="XMLID_1420_" class="st7" d="M97.9,121.4v4.5c0,0.3,0,0.6,0.1,0.8c0.1,0.2,0.2,0.4,0.3,0.5c0.1,0.1,0.2,0.2,0.4,0.3
			c0.1,0.1,0.3,0.1,0.4,0.2s0.2,0.1,0.3,0.1c0.1,0,0.2,0,0.2,0c0.3,0,0.5,0,0.7-0.1c0.2-0.1,0.4-0.2,0.5-0.3
			c0.1-0.1,0.2-0.3,0.3-0.4c0.1-0.2,0.1-0.3,0.2-0.4c0-0.1,0.1-0.3,0.1-0.3c0-0.1,0-0.2,0-0.2v-4.5h1.1v7.2h-1.1v-1
			c0,0.1,0,0.3-0.1,0.4s-0.1,0.2-0.2,0.3c-0.1,0.1-0.2,0.1-0.3,0.2s-0.2,0.1-0.3,0.1c-0.2,0.1-0.5,0.1-0.8,0.2h-0.2
			c-0.4,0-0.8-0.1-1-0.2s-0.5-0.3-0.7-0.4s-0.3-0.4-0.4-0.6c-0.1-0.2-0.2-0.4-0.2-0.6c-0.1-0.2-0.1-0.4-0.1-0.6c0-0.2,0-0.3,0-0.4
			v-0.1v-4.5H97.9z"/>
		<path id="XMLID_1418_" class="st7" d="M106,121.3c0.1,0,0.2,0,0.3,0c0.1,0,0.3,0,0.5,0.1s0.4,0.1,0.5,0.2c0.2,0.1,0.4,0.3,0.5,0.4
			c0.2,0.2,0.3,0.4,0.4,0.7s0.2,0.6,0.2,1v2.4c0,0.5-0.1,0.9-0.3,1.2c-0.1,0.2-0.2,0.3-0.3,0.5c-0.1,0.1-0.3,0.3-0.4,0.4
			c-0.2,0.1-0.4,0.2-0.6,0.3c-0.2,0.1-0.5,0.1-0.8,0.1c-0.3,0-0.6,0-0.8-0.1c-0.2-0.1-0.4-0.2-0.6-0.3c-0.2-0.1-0.3-0.3-0.4-0.4
			s-0.2-0.3-0.3-0.5c0,0,0.1-0.1,0.2-0.1c0.1,0,0.2-0.1,0.3-0.2c0.1-0.1,0.2-0.1,0.3-0.2c0.1,0,0.1-0.1,0.2-0.1
			c0.1,0.2,0.2,0.3,0.3,0.5c0.1,0.1,0.3,0.2,0.4,0.2c0.2,0.1,0.3,0.1,0.5,0.1c0.3,0,0.5-0.1,0.7-0.2c0.1,0,0.2-0.1,0.2-0.2
			c0.1-0.1,0.2-0.2,0.2-0.3c0.1-0.1,0.1-0.2,0.2-0.3s0.1-0.3,0.1-0.5v-2.4c0-0.3-0.1-0.5-0.2-0.7c0-0.1-0.1-0.2-0.2-0.3
			c-0.1-0.1-0.1-0.2-0.2-0.2s-0.2-0.1-0.3-0.2c-0.1,0-0.3-0.1-0.4-0.1c-0.2,0-0.4,0-0.6,0.1c-0.2,0-0.3,0.1-0.4,0.2
			c-0.1,0.1-0.2,0.2-0.3,0.3s-0.2,0.3-0.2,0.5h-1.1c0-0.3,0.1-0.6,0.2-0.9c0.1-0.3,0.3-0.5,0.5-0.7s0.5-0.3,0.8-0.5
			C105.2,121.4,105.5,121.3,106,121.3L106,121.3L106,121.3z"/>
		<path id="XMLID_1416_" class="st7" d="M106.1,118.9v0.5h2.7v1h-3.2c-0.1,0-0.2,0-0.3-0.1s-0.1-0.1-0.1-0.2c0-0.1-0.1-0.2-0.1-0.2
			v-1.1H106.1z"/>
		<path id="XMLID_1414_" class="st7" d="M119.8,121.4v4.5v0.1c0,0.1,0,0.2,0,0.4c0,0.2,0,0.3-0.1,0.6c-0.1,0.2-0.1,0.4-0.2,0.6
			c-0.1,0.2-0.3,0.4-0.4,0.6c-0.2,0.2-0.4,0.3-0.7,0.4c-0.3,0.1-0.6,0.2-1,0.2H117c-0.3,0-0.6-0.1-0.8-0.2c-0.1,0-0.2-0.1-0.3-0.1
			c-0.1-0.1-0.2-0.1-0.3-0.2c-0.1-0.1-0.1-0.2-0.2-0.3c-0.1-0.1-0.1-0.2-0.1-0.4v1h-1.1v-4.8c0-0.3-0.1-0.5-0.2-0.8
			c-0.1-0.2-0.2-0.4-0.4-0.5l-1.2,0.8l-1.2-0.8c-0.1,0.1-0.2,0.1-0.2,0.2c-0.1,0.1-0.1,0.2-0.2,0.3c-0.1,0.2-0.2,0.5-0.2,0.8v2.6
			c0,0.2,0.1,0.4,0.2,0.6c0,0.1,0.1,0.2,0.1,0.2c0.1,0.1,0.1,0.1,0.2,0.2c0.1,0.1,0.2,0.1,0.3,0.1c0.1,0,0.3,0.1,0.4,0.1h0.8v1h-1.4
			c-0.3,0-0.6-0.1-0.8-0.3c-0.1-0.1-0.2-0.2-0.3-0.3s-0.2-0.2-0.3-0.4c-0.1-0.1-0.1-0.3-0.2-0.5c0-0.2-0.1-0.4-0.1-0.7v-3.1
			c0.1-0.5,0.2-0.9,0.5-1.3c0.1-0.2,0.3-0.3,0.5-0.5c0.2-0.1,0.4-0.2,0.6-0.3l1.3,0.8l1.3-0.8c0.2,0.1,0.4,0.2,0.6,0.3
			c0.2,0.1,0.3,0.3,0.5,0.5c0.1,0.2,0.3,0.4,0.3,0.6c0.1,0.2,0.1,0.4,0.2,0.7v2.5c0,0,0,0.1,0,0.2c0,0.1,0,0.2,0.1,0.3
			s0.1,0.3,0.2,0.4c0.1,0.2,0.2,0.3,0.3,0.4c0.1,0.1,0.3,0.2,0.5,0.3c0.2,0.1,0.4,0.1,0.7,0.1c0,0,0.1,0,0.2,0s0.2,0,0.3-0.1
			c0.1,0,0.3-0.1,0.4-0.2c0.1-0.1,0.3-0.2,0.4-0.3c0.1-0.1,0.2-0.3,0.3-0.5c0.1-0.2,0.1-0.5,0.1-0.8v-4.5H119.8z"/>
		<path id="XMLID_1412_" class="st7" d="M122.2,121.4v4.5c0,0.3,0,0.6,0.1,0.8c0.1,0.2,0.2,0.4,0.3,0.5c0.1,0.1,0.3,0.2,0.4,0.3
			c0.1,0.1,0.3,0.1,0.4,0.2c0.1,0,0.2,0.1,0.3,0.1c0.1,0,0.2,0,0.2,0c0.3,0,0.5,0,0.7-0.1c0.2-0.1,0.4-0.2,0.5-0.3
			c0.1-0.1,0.2-0.3,0.3-0.4c0.1-0.2,0.1-0.3,0.2-0.4c0-0.1,0.1-0.3,0.1-0.3s0-0.2,0-0.2v-4.5h1.1v7.2h-1.1v-1c0,0.1,0,0.3-0.1,0.4
			s-0.1,0.2-0.2,0.3c-0.1,0.1-0.2,0.1-0.3,0.2s-0.2,0.1-0.3,0.1c-0.2,0.1-0.5,0.1-0.8,0.2h-0.2c-0.4,0-0.8-0.1-1-0.2
			s-0.5-0.3-0.7-0.4s-0.3-0.4-0.4-0.6c-0.1-0.2-0.2-0.4-0.2-0.6c-0.1-0.2-0.1-0.4-0.1-0.6c0-0.2,0-0.3,0-0.4v-0.1v-4.5H122.2z"/>
		<path id="XMLID_1410_" class="st7" d="M131.2,124.5c0.2,0,0.5,0.1,0.7,0.2c0.2,0.1,0.4,0.3,0.6,0.4c0.2,0.2,0.3,0.4,0.4,0.6
			c0.1,0.2,0.2,0.5,0.2,0.7c0,0.4-0.1,0.7-0.2,1c-0.1,0.3-0.3,0.5-0.5,0.7s-0.5,0.3-0.8,0.4c-0.3,0.1-0.6,0.1-1,0.1
			c-0.3,0-0.6,0-0.8-0.1s-0.5-0.1-0.7-0.2c-0.2-0.1-0.4-0.2-0.5-0.2s-0.3-0.2-0.4-0.2v-1.7h1.1v1.1c0.2,0.1,0.4,0.2,0.6,0.2
			c0.2,0.1,0.5,0.1,0.7,0.1c0.2,0,0.4,0,0.6-0.1c0.2-0.1,0.3-0.1,0.5-0.2c0.1-0.1,0.2-0.2,0.3-0.4c0.1-0.1,0.1-0.3,0.1-0.5
			c0-0.2,0-0.3-0.1-0.4c-0.1-0.1-0.1-0.2-0.2-0.3c-0.1-0.1-0.2-0.1-0.2-0.1c-0.1,0-0.1,0-0.2,0c0,0-0.1,0-0.2,0
			c-0.1,0-0.3,0-0.4-0.1c-0.2,0-0.3-0.1-0.5-0.1c-0.2,0-0.3,0-0.4-0.1c-0.1,0-0.1,0-0.2-0.1s-0.2-0.1-0.3-0.1s-0.2-0.1-0.4-0.2
			c-0.1-0.1-0.2-0.2-0.3-0.3c-0.1-0.1-0.2-0.3-0.2-0.5c-0.1-0.2-0.1-0.4-0.1-0.7c0-0.4,0.1-0.7,0.2-1c0.1-0.3,0.3-0.5,0.5-0.7
			c0.2-0.2,0.5-0.3,0.8-0.4c0.3-0.1,0.6-0.1,0.9-0.1c0.3,0,0.6,0,0.8,0.1s0.5,0.1,0.6,0.2c0.2,0.1,0.4,0.2,0.6,0.3l0.6,0.4l-0.6,0.9
			l-0.5-0.3c-0.1-0.1-0.2-0.1-0.4-0.2c-0.1-0.1-0.3-0.1-0.4-0.2c-0.1,0-0.3-0.1-0.4-0.1c-0.1,0-0.2,0-0.3,0c-0.2,0-0.3,0-0.5,0
			s-0.3,0.1-0.4,0.2c-0.1,0.1-0.2,0.2-0.3,0.3c-0.1,0.1-0.1,0.3-0.1,0.5c0,0.2,0.1,0.4,0.2,0.5c0.1,0.1,0.3,0.2,0.5,0.3
			s0.4,0.1,0.6,0.2C130.7,124.4,131,124.5,131.2,124.5z"/>
		<path id="XMLID_1408_" class="st7" d="M138.1,123.2l-0.5-0.3c-0.1-0.1-0.2-0.1-0.4-0.2c-0.1-0.1-0.3-0.1-0.4-0.2
			c-0.1,0-0.3-0.1-0.4-0.1c-0.1,0-0.2,0-0.3,0c-0.2,0-0.3,0-0.5,0s-0.3,0.1-0.4,0.2c-0.1,0.1-0.2,0.2-0.3,0.3
			c-0.1,0.1-0.1,0.3-0.1,0.5c0,0.2,0.1,0.4,0.2,0.5s0.3,0.2,0.5,0.3s0.4,0.1,0.6,0.2c0.2,0,0.5,0.1,0.7,0.1c0.2,0,0.5,0.1,0.7,0.2
			c0.2,0.1,0.4,0.3,0.6,0.4c0.2,0.2,0.3,0.4,0.4,0.6s0.2,0.5,0.2,0.7c0,0.4-0.1,0.7-0.2,1c-0.1,0.3-0.3,0.5-0.5,0.7
			s-0.5,0.3-0.8,0.4s-0.6,0.1-1,0.1c-0.5,0-0.9-0.1-1.3-0.2c-0.3-0.1-0.6-0.2-0.9-0.4c-0.3-0.2-0.5-0.3-0.7-0.5l0.7-0.7
			c0.1,0.1,0.2,0.2,0.3,0.3s0.3,0.2,0.5,0.2c0.2,0.1,0.4,0.1,0.6,0.2c0.2,0,0.4,0.1,0.6,0.1c0.2,0,0.4,0,0.6-0.1
			c0.2-0.1,0.3-0.1,0.5-0.2c0.1-0.1,0.2-0.2,0.3-0.4c0.1-0.1,0.1-0.3,0.1-0.5c0-0.2,0-0.3-0.1-0.4c-0.1-0.1-0.1-0.2-0.2-0.3
			c-0.1-0.1-0.2-0.1-0.2-0.1c-0.1,0-0.1,0-0.2,0c0,0-0.1,0-0.2,0c-0.1,0-0.3,0-0.4-0.1c-0.2,0-0.3-0.1-0.5-0.1c-0.2,0-0.3,0-0.4-0.1
			c-0.1,0-0.1,0-0.2-0.1s-0.2-0.1-0.3-0.1s-0.2-0.1-0.4-0.2s-0.2-0.2-0.3-0.3c-0.1-0.1-0.2-0.3-0.2-0.5c-0.1-0.2-0.1-0.4-0.1-0.7
			c0-0.4,0.1-0.7,0.2-1c0.1-0.3,0.3-0.5,0.5-0.7c0.2-0.2,0.5-0.3,0.8-0.4s0.6-0.1,0.9-0.1c0.3,0,0.6,0,0.8,0.1s0.5,0.1,0.6,0.2
			c0.2,0.1,0.4,0.2,0.6,0.3l0.6,0.4L138.1,123.2z"/>
		<path id="XMLID_1406_" class="st7" d="M143.8,123.2l-0.5-0.3c-0.1-0.1-0.2-0.1-0.4-0.2c-0.1-0.1-0.3-0.1-0.4-0.2
			c-0.1,0-0.3-0.1-0.4-0.1c-0.1,0-0.2,0-0.3,0c-0.2,0-0.3,0-0.5,0s-0.3,0.1-0.4,0.2c-0.1,0.1-0.2,0.2-0.3,0.3s-0.1,0.3-0.1,0.5
			c0,0.2,0.1,0.4,0.2,0.5c0.1,0.1,0.3,0.2,0.5,0.3s0.4,0.1,0.6,0.2c0.2,0,0.5,0.1,0.7,0.1c0.2,0,0.5,0.1,0.7,0.2
			c0.2,0.1,0.4,0.3,0.6,0.4c0.2,0.2,0.3,0.4,0.4,0.6s0.2,0.5,0.2,0.7c0,0.4-0.1,0.7-0.2,1c-0.1,0.3-0.3,0.5-0.5,0.7
			s-0.5,0.3-0.8,0.4c-0.3,0.1-0.6,0.1-1,0.1c-0.5,0-0.9-0.1-1.3-0.2c-0.3-0.1-0.6-0.2-0.9-0.4c-0.3-0.2-0.5-0.3-0.7-0.5l0.7-0.7
			c0.1,0.1,0.2,0.2,0.3,0.3c0.1,0.1,0.3,0.2,0.5,0.2c0.2,0.1,0.4,0.1,0.6,0.2c0.2,0,0.4,0.1,0.6,0.1c0.2,0,0.4,0,0.6-0.1
			c0.2-0.1,0.3-0.1,0.5-0.2c0.1-0.1,0.2-0.2,0.3-0.4c0.1-0.1,0.1-0.3,0.1-0.5c0-0.2,0-0.3-0.1-0.4c-0.1-0.1-0.1-0.2-0.2-0.3
			c-0.1-0.1-0.2-0.1-0.2-0.1c-0.1,0-0.1,0-0.2,0c0,0-0.1,0-0.2,0c-0.1,0-0.3,0-0.4-0.1c-0.2,0-0.3-0.1-0.5-0.1c-0.2,0-0.3,0-0.4-0.1
			c-0.1,0-0.1,0-0.2-0.1s-0.2-0.1-0.3-0.1s-0.2-0.1-0.4-0.2c-0.1-0.1-0.2-0.2-0.3-0.3c-0.1-0.1-0.2-0.3-0.2-0.5
			c-0.1-0.2-0.1-0.4-0.1-0.7c0-0.4,0.1-0.7,0.2-1c0.1-0.3,0.3-0.5,0.5-0.7c0.2-0.2,0.5-0.3,0.8-0.4s0.6-0.1,0.9-0.1
			c0.3,0,0.6,0,0.8,0.1c0.2,0.1,0.5,0.1,0.6,0.2c0.2,0.1,0.4,0.2,0.6,0.3l0.6,0.4L143.8,123.2z"/>
		<path id="XMLID_1404_" class="st7" d="M151,121.4v4.5v0.1c0,0.1,0,0.2,0,0.4c0,0.2,0,0.4-0.1,0.6c-0.1,0.2-0.1,0.4-0.2,0.6
			c-0.1,0.2-0.3,0.4-0.4,0.6s-0.4,0.3-0.7,0.4c-0.3,0.1-0.6,0.2-1,0.2h-0.2c-0.3,0-0.6-0.1-0.8-0.2c-0.1,0-0.2-0.1-0.3-0.1
			s-0.2-0.1-0.3-0.2c-0.1-0.1-0.1-0.2-0.2-0.3s-0.1-0.2-0.1-0.4v1h-1.1v-7.2h1.1v4.5c0,0,0,0.1,0,0.2c0,0.1,0,0.2,0.1,0.3
			c0,0.1,0.1,0.3,0.2,0.4c0.1,0.2,0.2,0.3,0.3,0.4c0.1,0.1,0.3,0.2,0.5,0.3c0.2,0.1,0.4,0.1,0.7,0.1c0,0,0.1,0,0.2,0s0.2,0,0.3-0.1
			s0.3-0.1,0.4-0.2c0.1-0.1,0.3-0.2,0.4-0.3c0.1-0.1,0.2-0.3,0.3-0.5c0.1-0.2,0.1-0.5,0.1-0.8v-4.5H151z"/>
		<path id="XMLID_1402_" class="st7" d="M157,128.6V124c0-0.3-0.1-0.6-0.2-0.8c-0.1-0.1-0.1-0.2-0.2-0.3c-0.1-0.1-0.2-0.2-0.3-0.3
			c-0.1-0.1-0.3-0.1-0.5-0.2c-0.2,0-0.4-0.1-0.6-0.1s-0.4,0-0.6,0.1c-0.2,0-0.3,0.1-0.5,0.2s-0.2,0.2-0.3,0.3s-0.2,0.2-0.2,0.3
			c-0.1,0.2-0.2,0.5-0.2,0.8v2.4c0,0.2,0.1,0.3,0.1,0.4c0,0.1,0.1,0.2,0.2,0.4c0.1,0.1,0.2,0.2,0.3,0.3c0.1,0.1,0.3,0.2,0.4,0.2
			c0.1,0,0.2,0,0.3-0.1c0.1-0.1,0.2-0.1,0.2-0.2l0.7,0.7c-0.1,0.1-0.2,0.2-0.4,0.3c-0.1,0.1-0.3,0.1-0.4,0.2s-0.3,0.1-0.5,0.1
			c-0.1,0-0.1,0-0.2,0c-0.1,0-0.1,0-0.2,0c-0.3-0.1-0.5-0.2-0.7-0.3s-0.4-0.3-0.5-0.5c-0.1-0.2-0.2-0.4-0.3-0.7s-0.1-0.5-0.1-0.7
			V124c0-0.4,0.1-0.8,0.3-1.1c0.1-0.3,0.3-0.6,0.5-0.8s0.4-0.4,0.6-0.5c0.2-0.1,0.4-0.2,0.6-0.3s0.4-0.1,0.5-0.1c0.2,0,0.3,0,0.3,0
			h0.1h0.1c0.1,0,0.2,0,0.3,0c0.2,0,0.3,0.1,0.5,0.1s0.4,0.1,0.6,0.3c0.2,0.1,0.4,0.3,0.6,0.5c0.2,0.2,0.3,0.5,0.5,0.8
			c0.1,0.3,0.2,0.7,0.3,1.1v4.5H157z"/>
		<path id="XMLID_1400_" class="st7" d="M155.9,118.9v0.5h2.7v1h-3.2c-0.1,0-0.2,0-0.3-0.1s-0.1-0.1-0.1-0.2c0-0.1-0.1-0.2-0.1-0.2
			v-1.1H155.9z"/>
		<path id="XMLID_1398_" class="st7" d="M157.8,116.8v1h-3v-1.4h-0.5v-1h1.1c0.1,0,0.2,0,0.2,0.1c0.1,0,0.1,0.1,0.2,0.1
			c0,0.1,0.1,0.2,0.1,0.3v0.9H157.8z"/>
		<path id="XMLID_1396_" class="st7" d="M160.4,121.3h2.1v5.2c0,0.3,0,0.6-0.1,0.9c-0.1,0.2-0.2,0.4-0.3,0.6
			c-0.1,0.2-0.3,0.3-0.4,0.4c-0.2,0.1-0.3,0.2-0.5,0.2s-0.3,0.1-0.4,0.1c-0.1,0-0.2,0-0.2,0c-0.3,0-0.6,0-0.8-0.1
			c-0.2-0.1-0.4-0.2-0.6-0.3c-0.2-0.1-0.3-0.2-0.4-0.4l0.7-0.7c0,0,0.1,0.1,0.1,0.1c0.1,0.1,0.1,0.1,0.2,0.2
			c0.1,0.1,0.2,0.1,0.3,0.1c0.1,0,0.3,0.1,0.4,0.1c0.1,0,0.2,0,0.3,0c0.1,0,0.1-0.1,0.2-0.1s0.1-0.1,0.2-0.2c0-0.1,0.1-0.1,0.1-0.2
			c0.1-0.2,0.1-0.3,0.1-0.6v-4.2h-1V121.3z"/>
		<path id="XMLID_1394_" class="st7" d="M39.4,145.1h-1.1v-7.2h1.1V145.1z"/>
		<path id="XMLID_1392_" class="st7" d="M45.4,145.1v-4.5c0-0.3-0.1-0.6-0.2-0.8c-0.1-0.1-0.1-0.2-0.2-0.3s-0.2-0.2-0.3-0.3
			c-0.1-0.1-0.3-0.1-0.5-0.2s-0.4-0.1-0.6-0.1s-0.4,0-0.6,0.1s-0.3,0.1-0.5,0.2c-0.1,0.1-0.2,0.2-0.3,0.3c-0.1,0.1-0.2,0.2-0.2,0.3
			c-0.1,0.2-0.2,0.5-0.2,0.8v2.4c0,0.2,0.1,0.3,0.1,0.4c0,0.1,0.1,0.2,0.2,0.4c0.1,0.1,0.2,0.2,0.3,0.3c0.1,0.1,0.3,0.2,0.4,0.2
			c0.1,0,0.2,0,0.3-0.1c0.1-0.1,0.2-0.1,0.2-0.2l0.7,0.7c-0.1,0.1-0.2,0.2-0.4,0.3c-0.1,0.1-0.3,0.1-0.4,0.2
			c-0.2,0.1-0.3,0.1-0.5,0.1c-0.1,0-0.1,0-0.2,0s-0.1,0-0.2,0c-0.3-0.1-0.5-0.2-0.7-0.3s-0.4-0.3-0.5-0.5s-0.2-0.4-0.3-0.7
			c-0.1-0.2-0.1-0.5-0.1-0.7v-2.4c0-0.4,0.1-0.8,0.3-1.1c0.1-0.3,0.3-0.6,0.5-0.8c0.2-0.2,0.4-0.4,0.6-0.5c0.2-0.1,0.4-0.2,0.6-0.3
			c0.2-0.1,0.4-0.1,0.5-0.1c0.2,0,0.3,0,0.3,0h0.1h0.1c0.1,0,0.2,0,0.3,0c0.2,0,0.3,0.1,0.5,0.1c0.2,0.1,0.4,0.1,0.6,0.3
			c0.2,0.1,0.4,0.3,0.6,0.5c0.2,0.2,0.3,0.5,0.5,0.8c0.1,0.3,0.2,0.7,0.3,1.1v4.5H45.4z"/>
		<path id="XMLID_1390_" class="st7" d="M46.1,136v1h-4v-1H46.1z"/>
		<path id="XMLID_1388_" class="st7" d="M53.5,137.9v4.5v0.1c0,0.1,0,0.2,0,0.4c0,0.2,0,0.4-0.1,0.6c-0.1,0.2-0.1,0.4-0.2,0.6
			c-0.1,0.2-0.3,0.4-0.4,0.6s-0.4,0.3-0.7,0.4c-0.3,0.1-0.6,0.2-1,0.2h-0.2c-0.3,0-0.6-0.1-0.8-0.2c-0.1,0-0.2-0.1-0.3-0.1
			c-0.1-0.1-0.2-0.1-0.3-0.2c-0.1-0.1-0.1-0.2-0.2-0.3s-0.1-0.2-0.1-0.4v1h-1.1v-7.2h1.1v4.5c0,0,0,0.1,0,0.2c0,0.1,0,0.2,0.1,0.3
			c0,0.1,0.1,0.3,0.2,0.4s0.2,0.3,0.3,0.4c0.1,0.1,0.3,0.2,0.5,0.3c0.2,0.1,0.4,0.1,0.7,0.1c0,0,0.1,0,0.2,0c0.1,0,0.2,0,0.3-0.1
			c0.1,0,0.3-0.1,0.4-0.2c0.1-0.1,0.3-0.2,0.4-0.3c0.1-0.1,0.2-0.3,0.3-0.5c0.1-0.2,0.1-0.5,0.1-0.8v-4.5H53.5z"/>
		<path id="XMLID_1385_" class="st7" d="M55.8,145.1h-1.1v-7.2h1.1V145.1z M58,145.1h-1.1v-7.2H58V145.1z"/>
		<path id="XMLID_1383_" class="st7" d="M63,138c0.3,0.1,0.6,0.3,0.8,0.5s0.4,0.4,0.5,0.6c0.1,0.2,0.2,0.4,0.3,0.6
			c0.1,0.2,0.1,0.4,0.1,0.6c0,0.2,0,0.3,0,0.4v0.1v4.4h-1.1V143c0-0.2,0-0.4-0.1-0.5c-0.1-0.1-0.2-0.3-0.4-0.3
			c-0.1-0.1-0.3-0.2-0.5-0.2c-0.2-0.1-0.3-0.1-0.5-0.1s-0.3,0-0.5-0.1c0,0-0.1,0-0.1,0s-0.2,0-0.3,0c-0.1,0-0.2,0.1-0.4,0.1
			c-0.1,0-0.2,0.1-0.4,0.2s-0.2,0.2-0.3,0.3s-0.2,0.3-0.2,0.5c0,0.1,0,0.1,0,0.2c0,0.2,0,0.3,0.1,0.4c0.1,0.1,0.2,0.2,0.3,0.3
			c0.1,0.1,0.2,0.1,0.4,0.2s0.3,0.1,0.4,0.1c0.1,0,0.3,0,0.4,0s0.2,0,0.3,0h0.1v1h-1.2c-0.3,0-0.5-0.1-0.7-0.2
			c-0.2-0.1-0.4-0.3-0.6-0.4c-0.2-0.2-0.3-0.4-0.4-0.6c-0.1-0.2-0.1-0.5-0.1-0.8c0-0.3,0.1-0.5,0.2-0.8c0.1-0.3,0.3-0.5,0.6-0.8
			c0.2-0.2,0.3-0.3,0.5-0.4c0.2-0.1,0.3-0.2,0.5-0.2s0.3-0.1,0.5-0.1c0.2,0,0.3,0,0.5,0c0.2,0,0.5,0,0.7,0.1s0.4,0.1,0.6,0.2
			c0.2,0.1,0.4,0.1,0.5,0.2v-0.4c0-0.2,0-0.4-0.1-0.6c0-0.2-0.1-0.3-0.2-0.4c-0.1-0.1-0.2-0.2-0.3-0.3c-0.1-0.1-0.2-0.2-0.3-0.2
			c-0.3-0.1-0.5-0.2-0.9-0.2c-0.3,0-0.5,0.1-0.7,0.2c-0.2,0.1-0.4,0.2-0.5,0.4c-0.1,0.1-0.2,0.3-0.3,0.5c-0.1,0.2-0.1,0.3-0.2,0.4
			h-1.1c0-0.4,0.1-0.7,0.2-1c0.1-0.3,0.3-0.5,0.5-0.7c0.2-0.2,0.4-0.3,0.6-0.4c0.2-0.1,0.4-0.2,0.6-0.2s0.4-0.1,0.5-0.1s0.3,0,0.3,0
			h0.1C62.3,137.8,62.7,137.9,63,138z"/>
		<path id="XMLID_1380_" class="st7" d="M66.6,138.5v0.5h1.9v1h-2.4c-0.1,0-0.2,0-0.3-0.1s-0.1-0.1-0.1-0.2c0-0.1-0.1-0.2-0.1-0.2
			v-1.1H66.6z M66.6,142.9v0.5h1.9v1h-2.4c-0.1,0-0.2,0-0.3-0.1s-0.1-0.1-0.1-0.2c0-0.1-0.1-0.2-0.1-0.2v-1.1H66.6z"/>
		<path id="XMLID_1378_" class="st7" d="M75.1,137.9v4.5v0.1c0,0.1,0,0.2,0,0.4c0,0.2,0,0.4-0.1,0.6c-0.1,0.2-0.1,0.4-0.2,0.6
			c-0.1,0.2-0.3,0.4-0.4,0.6s-0.4,0.3-0.7,0.4s-0.6,0.2-1,0.2h-0.2c-0.3,0-0.6-0.1-0.8-0.2c-0.1,0-0.2-0.1-0.3-0.1s-0.2-0.1-0.3-0.2
			s-0.1-0.2-0.2-0.3s-0.1-0.2-0.1-0.4v1h-1.1v-7.2h1.1v4.5c0,0,0,0.1,0,0.2s0,0.2,0.1,0.3c0,0.1,0.1,0.3,0.2,0.4s0.2,0.3,0.3,0.4
			s0.3,0.2,0.5,0.3s0.4,0.1,0.7,0.1c0,0,0.1,0,0.2,0c0.1,0,0.2,0,0.3-0.1c0.1,0,0.3-0.1,0.4-0.2c0.1-0.1,0.3-0.2,0.4-0.3
			c0.1-0.1,0.2-0.3,0.3-0.5c0.1-0.2,0.1-0.5,0.1-0.8v-4.5H75.1z"/>
		<path id="XMLID_1376_" class="st7" d="M74.3,135.4v1.7h-4v-1h3v-0.6H74.3z"/>
		<path id="XMLID_1374_" class="st7" d="M80.4,138c0.3,0.1,0.6,0.3,0.8,0.5c0.2,0.2,0.4,0.4,0.5,0.6c0.1,0.2,0.2,0.4,0.3,0.6
			c0.1,0.2,0.1,0.4,0.1,0.6c0,0.2,0,0.3,0,0.4v0.1v4.4H81v-4.4c0-0.2,0-0.4-0.1-0.6c0-0.2-0.1-0.3-0.2-0.4c-0.1-0.1-0.2-0.2-0.3-0.3
			c-0.1-0.1-0.2-0.2-0.3-0.2c-0.3-0.1-0.5-0.2-0.9-0.2c-0.2,0-0.4,0-0.6,0.1c-0.2,0.1-0.3,0.1-0.4,0.2c-0.1,0.1-0.2,0.2-0.3,0.3
			c-0.1,0.1-0.2,0.2-0.2,0.3c-0.1,0.3-0.2,0.6-0.2,0.9v0.7c0.4-0.2,0.9-0.4,1.4-0.4c0.2,0,0.5,0,0.7,0.1v1.1c-0.1,0-0.2-0.1-0.3-0.1
			c-0.1,0-0.2,0-0.4,0c-0.3,0-0.6,0.1-0.9,0.2c-0.1,0.1-0.2,0.2-0.3,0.3c-0.1,0.1-0.2,0.3-0.2,0.4v2h-1.1v-4.5
			c0-0.4,0.1-0.8,0.2-1.1c0.1-0.3,0.3-0.6,0.4-0.8s0.4-0.4,0.6-0.5s0.4-0.2,0.6-0.3c0.2-0.1,0.4-0.1,0.6-0.1c0.2,0,0.3,0,0.4,0h0.1
			C79.7,137.8,80.1,137.9,80.4,138z"/>
		<path id="XMLID_1372_" class="st7" d="M85.6,137.8c0.1,0,0.2,0,0.3,0s0.3,0,0.5,0.1s0.4,0.1,0.5,0.2s0.4,0.3,0.5,0.4
			c0.2,0.2,0.3,0.4,0.4,0.7c0.1,0.3,0.2,0.6,0.2,1v2.4c0,0.5-0.1,0.9-0.3,1.2c-0.1,0.2-0.2,0.3-0.3,0.5c-0.1,0.1-0.3,0.3-0.4,0.4
			c-0.2,0.1-0.4,0.2-0.6,0.3c-0.2,0.1-0.5,0.1-0.8,0.1c-0.3,0-0.6,0-0.8-0.1c-0.2-0.1-0.4-0.2-0.6-0.3c-0.2-0.1-0.3-0.3-0.4-0.4
			s-0.2-0.3-0.3-0.5c0,0,0.1-0.1,0.2-0.1c0.1,0,0.2-0.1,0.3-0.2c0.1-0.1,0.2-0.1,0.3-0.2c0.1,0,0.1-0.1,0.2-0.1
			c0.1,0.2,0.2,0.3,0.3,0.5s0.3,0.2,0.4,0.2c0.2,0.1,0.3,0.1,0.5,0.1c0.3,0,0.5-0.1,0.7-0.2c0.1,0,0.2-0.1,0.2-0.2
			c0.1-0.1,0.2-0.2,0.2-0.3c0.1-0.1,0.1-0.2,0.2-0.3s0.1-0.3,0.1-0.5v-2.4c0-0.3-0.1-0.5-0.2-0.7c0-0.1-0.1-0.2-0.2-0.3
			c-0.1-0.1-0.1-0.2-0.2-0.2c-0.1-0.1-0.2-0.1-0.3-0.2c-0.1,0-0.3-0.1-0.4-0.1c-0.2,0-0.4,0-0.6,0.1c-0.2,0-0.3,0.1-0.4,0.2
			s-0.2,0.2-0.3,0.3s-0.2,0.3-0.2,0.5h-1.1c0-0.3,0.1-0.6,0.2-0.9s0.3-0.5,0.5-0.7c0.2-0.2,0.5-0.3,0.8-0.5
			C84.8,137.9,85.2,137.8,85.6,137.8L85.6,137.8L85.6,137.8z"/>
		<path id="XMLID_1370_" class="st7" d="M90.3,137.8c0,0,0.1,0,0.2,0s0.2,0,0.4,0.1c0.1,0,0.3,0.1,0.5,0.2c0.2,0.1,0.3,0.2,0.4,0.4
			c0.1,0.2,0.2,0.4,0.3,0.6c0.1,0.2,0.1,0.5,0.1,0.9v5.1h-1.1v-5.1c0-0.2,0-0.4-0.1-0.5c0-0.1-0.1-0.1-0.1-0.2
			c0-0.1-0.1-0.1-0.1-0.2c-0.1,0-0.1-0.1-0.2-0.1c-0.1,0-0.2,0-0.3,0c-0.2,0-0.3,0-0.5,0.1c-0.1,0-0.2,0.1-0.3,0.1
			c-0.1,0.1-0.1,0.1-0.2,0.2c0,0.1-0.1,0.1-0.1,0.1l-0.7-0.8c0.1-0.1,0.3-0.3,0.4-0.4c0.1-0.1,0.3-0.2,0.6-0.3
			C89.7,137.9,90,137.8,90.3,137.8z"/>
		<path id="XMLID_1368_" class="st7" d="M99.3,137.9v4.5v0.1c0,0.1,0,0.2,0,0.4c0,0.2,0,0.4-0.1,0.6c-0.1,0.2-0.1,0.4-0.2,0.6
			s-0.3,0.4-0.4,0.6s-0.4,0.3-0.7,0.4c-0.3,0.1-0.6,0.2-1,0.2h-0.2c-0.3,0-0.6-0.1-0.8-0.2c-0.1,0-0.2-0.1-0.3-0.1
			c-0.1-0.1-0.2-0.1-0.3-0.2c-0.1-0.1-0.1-0.2-0.2-0.3s-0.1-0.2-0.1-0.4v1h-1.1v-7.2h1.1v4.5c0,0,0,0.1,0,0.2s0,0.2,0.1,0.3
			c0,0.1,0.1,0.3,0.2,0.4c0.1,0.2,0.2,0.3,0.3,0.4c0.1,0.1,0.3,0.2,0.5,0.3c0.2,0.1,0.4,0.1,0.7,0.1c0,0,0.1,0,0.2,0
			c0.1,0,0.2,0,0.3-0.1c0.1,0,0.3-0.1,0.4-0.2c0.1-0.1,0.3-0.2,0.4-0.3c0.1-0.1,0.2-0.3,0.3-0.5c0.1-0.2,0.1-0.5,0.1-0.8v-4.5H99.3z
			"/>
		<path id="XMLID_1366_" class="st7" d="M100.7,137.9h1.1v1.8h2.4c0.1,0,0.2-0.1,0.4-0.1c0.1-0.1,0.2-0.2,0.3-0.3
			c0.1-0.1,0.2-0.3,0.2-0.5v-1h1.1v1.1c0,0.1,0,0.1,0,0.3s-0.1,0.2-0.1,0.3s-0.1,0.2-0.2,0.4c-0.1,0.1-0.2,0.2-0.3,0.3
			c0.1,0.1,0.3,0.3,0.4,0.5c0.1,0.1,0.2,0.3,0.3,0.5c0.1,0.2,0.1,0.5,0.1,0.7v3.1h-1.1V142c0-0.1,0-0.2-0.1-0.3
			c0-0.1-0.1-0.2-0.1-0.3s-0.1-0.2-0.2-0.3c-0.1-0.1-0.2-0.2-0.3-0.2c-0.1-0.1-0.2-0.1-0.4-0.1h-2.4v4.4h-1.1V137.9z"/>
		<path id="XMLID_1364_" class="st7" d="M113.1,137.9v4.5v0.1c0,0.1,0,0.2,0,0.4c0,0.2,0,0.4-0.1,0.6c-0.1,0.2-0.1,0.4-0.2,0.6
			s-0.3,0.4-0.4,0.6s-0.4,0.3-0.7,0.4c-0.3,0.1-0.6,0.2-1,0.2h-0.2c-0.3,0-0.6-0.1-0.8-0.2c-0.1,0-0.2-0.1-0.3-0.1
			c-0.1-0.1-0.2-0.1-0.3-0.2c-0.1-0.1-0.1-0.2-0.2-0.3s-0.1-0.2-0.1-0.4v1h-1.1v-7.2h1.1v4.5c0,0,0,0.1,0,0.2s0,0.2,0.1,0.3
			c0,0.1,0.1,0.3,0.2,0.4c0.1,0.2,0.2,0.3,0.3,0.4c0.1,0.1,0.3,0.2,0.5,0.3c0.2,0.1,0.4,0.1,0.7,0.1c0,0,0.1,0,0.2,0
			c0.1,0,0.2,0,0.3-0.1c0.1,0,0.3-0.1,0.4-0.2c0.1-0.1,0.3-0.2,0.4-0.3c0.1-0.1,0.2-0.3,0.3-0.5c0.1-0.2,0.1-0.5,0.1-0.8v-4.5H113.1
			z"/>
		<path id="XMLID_1362_" class="st7" d="M115.5,137.8c0,0,0.1,0,0.2,0c0.1,0,0.2,0,0.4,0.1c0.1,0,0.3,0.1,0.5,0.2
			c0.2,0.1,0.3,0.2,0.4,0.4c0.1,0.2,0.2,0.4,0.3,0.6c0.1,0.2,0.1,0.5,0.1,0.9v5.1h-1.1v-5.1c0-0.2,0-0.4-0.1-0.5
			c0-0.1-0.1-0.1-0.1-0.2c0-0.1-0.1-0.1-0.1-0.2c-0.1,0-0.1-0.1-0.2-0.1c-0.1,0-0.2,0-0.3,0c-0.2,0-0.3,0-0.5,0.1
			c-0.1,0-0.2,0.1-0.3,0.1c-0.1,0.1-0.1,0.1-0.2,0.2c0,0.1-0.1,0.1-0.1,0.1l-0.7-0.8c0.1-0.1,0.3-0.3,0.4-0.4
			c0.1-0.1,0.3-0.2,0.6-0.3C114.9,137.9,115.2,137.8,115.5,137.8z"/>
		<path id="XMLID_1360_" class="st7" d="M124.3,137.9v5.2c0,0.3,0,0.6-0.1,0.8c-0.1,0.2-0.2,0.4-0.3,0.6c-0.1,0.2-0.3,0.3-0.5,0.4
			c-0.2,0.1-0.3,0.2-0.5,0.2c-0.2,0-0.3,0.1-0.4,0.1c-0.1,0-0.2,0-0.3,0h-1.3c-0.4,0-0.7,0-0.9-0.1s-0.5-0.2-0.6-0.3
			c-0.2-0.1-0.3-0.3-0.4-0.4c-0.1-0.1-0.2-0.3-0.2-0.4c-0.1-0.1-0.1-0.3-0.1-0.4c0-0.1,0-0.2,0-0.3c0-0.3,0.1-0.5,0.2-0.7
			c0.1-0.2,0.2-0.3,0.4-0.5s0.3-0.2,0.4-0.3c0.1-0.1,0.2-0.1,0.2-0.1c-0.1,0-0.3-0.1-0.4-0.1s-0.2-0.1-0.3-0.2
			c-0.1-0.1-0.1-0.2-0.2-0.3c-0.1-0.1-0.1-0.2-0.1-0.3c-0.1-0.2-0.1-0.5-0.2-0.7c0-0.3,0-0.5,0.1-0.7c0-0.2,0.1-0.4,0.2-0.5
			c0.1-0.1,0.2-0.3,0.3-0.4c0.1-0.1,0.2-0.2,0.3-0.3c0.3-0.2,0.6-0.2,0.9-0.3h1.4v1h-0.9c-0.2,0-0.3,0-0.4,0s-0.2,0.1-0.3,0.1
			c-0.1,0.1-0.2,0.1-0.2,0.2c-0.1,0.1-0.1,0.1-0.2,0.2c-0.1,0.2-0.1,0.3-0.2,0.5c0,0.2,0,0.3,0.1,0.5c0.1,0.1,0.1,0.2,0.2,0.3
			c0.1,0.1,0.2,0.1,0.3,0.2c0.1,0,0.2,0.1,0.3,0.1c0.1,0,0.2,0,0.2,0c0.1,0,0.1,0,0.1,0h0.9v1h-0.9c-0.2,0-0.3,0-0.5,0.1
			c-0.1,0-0.2,0.1-0.3,0.2s-0.2,0.1-0.2,0.2s-0.1,0.2-0.1,0.2c0,0.1,0,0.1,0,0.2c0,0.1,0,0.1,0,0.1c0,0.2,0,0.3,0.1,0.5
			c0,0.1,0.1,0.2,0.2,0.3c0.1,0.1,0.2,0.1,0.3,0.2c0.1,0,0.2,0.1,0.3,0.1c0.1,0,0.2,0,0.2,0c0.1,0,0.1,0,0.1,0h0h1.3
			c0.3,0,0.5-0.1,0.6-0.2c0.1-0.1,0.3-0.2,0.3-0.3c0.1-0.1,0.1-0.3,0.2-0.5v-5.2H124.3z"/>
		<path id="XMLID_1358_" class="st7" d="M130.3,145.1v-4.5c0-0.3,0-0.5-0.1-0.7c-0.1-0.2-0.2-0.4-0.3-0.5c-0.1-0.1-0.2-0.2-0.4-0.3
			s-0.3-0.1-0.4-0.2c-0.1,0-0.2,0-0.3-0.1c-0.1,0-0.2,0-0.2,0c-0.3,0-0.5,0-0.7,0.1c-0.2,0.1-0.4,0.2-0.5,0.3
			c-0.1,0.1-0.2,0.3-0.3,0.4c-0.1,0.1-0.1,0.3-0.2,0.4c0,0.1-0.1,0.2-0.1,0.3c0,0.1,0,0.1,0,0.2v4.5h-1.1v-7.2h1.1v1
			c0-0.1,0-0.2,0.1-0.3c0.1-0.1,0.1-0.2,0.2-0.3c0.1-0.1,0.2-0.1,0.3-0.2c0.1,0,0.2-0.1,0.3-0.1c0.2-0.1,0.5-0.1,0.8-0.1h0.2
			c0.4,0,0.8,0.1,1,0.2c0.3,0.1,0.5,0.3,0.7,0.4c0.2,0.2,0.3,0.4,0.4,0.6c0.1,0.2,0.2,0.4,0.2,0.6s0.1,0.4,0.1,0.5
			c0,0.2,0,0.3,0,0.4v0.1v4.5H130.3z"/>
		<path id="XMLID_1356_" class="st7" d="M130.6,135.4v1.7h-4v-1h3v-0.6H130.6z"/>
		<path id="XMLID_1354_" class="st7" d="M130.8,132.2v2h-1v-2H130.8z"/>
		<path id="XMLID_1352_" class="st7" d="M137.4,145.1v-4.5c0-0.3-0.1-0.6-0.2-0.8c-0.1-0.1-0.1-0.2-0.2-0.3
			c-0.1-0.1-0.2-0.2-0.3-0.3c-0.1-0.1-0.3-0.1-0.5-0.2c-0.2,0-0.4-0.1-0.6-0.1s-0.4,0-0.6,0.1c-0.2,0-0.3,0.1-0.5,0.2
			c-0.1,0.1-0.2,0.2-0.3,0.3s-0.2,0.2-0.2,0.3c-0.1,0.2-0.2,0.5-0.2,0.8v2.4c0,0.2,0.1,0.3,0.1,0.4c0,0.1,0.1,0.2,0.2,0.4
			c0.1,0.1,0.2,0.2,0.3,0.3c0.1,0.1,0.3,0.2,0.4,0.2c0.1,0,0.2,0,0.3-0.1c0.1-0.1,0.2-0.1,0.2-0.2l0.7,0.7c-0.1,0.1-0.2,0.2-0.4,0.3
			c-0.1,0.1-0.3,0.1-0.4,0.2c-0.2,0.1-0.3,0.1-0.5,0.1c-0.1,0-0.1,0-0.2,0c-0.1,0-0.1,0-0.2,0c-0.3-0.1-0.5-0.2-0.7-0.3
			c-0.2-0.1-0.4-0.3-0.5-0.5s-0.2-0.4-0.3-0.7c-0.1-0.2-0.1-0.5-0.1-0.7v-2.4c0-0.4,0.1-0.8,0.3-1.1c0.1-0.3,0.3-0.6,0.5-0.8
			c0.2-0.2,0.4-0.4,0.6-0.5c0.2-0.1,0.4-0.2,0.6-0.3c0.2-0.1,0.4-0.1,0.5-0.1s0.3,0,0.3,0h0.1h0.1c0.1,0,0.2,0,0.3,0
			s0.3,0.1,0.5,0.1c0.2,0.1,0.4,0.1,0.6,0.3c0.2,0.1,0.4,0.3,0.6,0.5c0.2,0.2,0.3,0.5,0.5,0.8c0.1,0.3,0.2,0.7,0.3,1.1v4.5H137.4z"
			/>
		<path id="XMLID_1350_" class="st7" d="M137.7,135.4v1.7h-4v-1h3v-0.6H137.7z"/>
	</g>
</g>
</svg>
