<?xml version="1.0" encoding="utf-8"?>
<!-- Generator: Adobe Illustrator 19.0.0, SVG Export Plug-In . SVG Version: 6.00 Build 0)  -->
<svg version="1.1" id="Layer_1" xmlns="http://www.w3.org/2000/svg" xmlns:xlink="http://www.w3.org/1999/xlink" x="0px" y="0px"
	 viewBox="0 0 165.8 167.8" style="enable-background:new 0 0 165.8 167.8;" xml:space="preserve">
<style type="text/css">
	.st0{fill:#A01C33;}
	.st1{fill:#FFFFFF;}
	.st2{fill:#CD202B;}
	.st3{fill:#C07A2A;}
	.st4{fill:#B89E7D;}
	.st5{fill:#211D1E;}
	.st6{fill:#404040;stroke:#404040;stroke-width:0.5;stroke-miterlimit:10;}
	.st7{fill:#404040;}
</style>
<rect id="XMLID_893_" x="16.6" y="0" class="st0" width="149.2" height="167"/>
<polygon id="XMLID_892_" class="st1" points="19.2,167.7 19.2,148.6 0,167.8 "/>
<rect id="XMLID_891_" x="16.6" y="110.2" class="st1" width="149.2" height="57.6"/>
<g id="XMLID_883_">
	<circle id="XMLID_887_" class="st2" cx="31.2" cy="122.7" r="4"/>
	<path id="XMLID_886_" class="st2" d="M27.2,122.7h8.1v10.1C35.2,132.7,27.2,127.8,27.2,122.7z"/>
	<circle id="XMLID_885_" class="st2" cx="39.3" cy="122.5" r="4"/>
	<path id="XMLID_884_" class="st2" d="M43.3,122.5h-8.1v10.1C35.2,132.6,43.3,127.6,43.3,122.5z"/>
</g>
<g id="XMLID_866_">
	<path id="XMLID_882_" class="st3" d="M98.5,92.2L98.5,92.2c-6,0-11-4.9-11-11V56.3c0-6,4.9-11,11-11l0,0c6,0,11,4.9,11,11v24.9
		C109.4,87.3,104.5,92.2,98.5,92.2z"/>
	<path id="XMLID_881_" class="st4" d="M90.2,90.7L90.2,90.7c-5.7,0-10.4-4.7-10.4-10.4v0c0-5.7,4.7-10.4,10.4-10.4l0,0
		c5.7,0,10.4,4.7,10.4,10.4v0C100.5,86,95.9,90.7,90.2,90.7z"/>
	<path id="XMLID_880_" class="st3" d="M67.6,92.9L67.6,92.9c-2.9,0-5.3-2.4-5.3-5.3v-7.4c0-2.9,2.4-5.3,5.3-5.3l0,0
		c2.9,0,5.3,2.4,5.3,5.3v7.4C72.9,90.5,70.5,92.9,67.6,92.9z"/>
	<path id="XMLID_879_" class="st3" d="M97.6,92.8H68.3c-3.3,0-5.9-2.7-5.9-5.9l0,0c0-3.3,2.7-5.9,5.9-5.9h29.2
		c3.3,0,5.9,2.7,5.9,5.9l0,0C103.5,90.1,100.8,92.8,97.6,92.8z"/>
	<path id="XMLID_878_" class="st3" d="M117.5,82.2L117.5,82.2c-2.9,2-7,1.3-9-1.6L94.9,61.3c-2-2.9-1.3-7,1.6-9l0,0
		c2.9-2,7-1.3,9,1.6l13.6,19.3C121.1,76.1,120.4,80.1,117.5,82.2z"/>
	<rect id="XMLID_877_" x="87" y="59.2" class="st4" width="12.4" height="16.4"/>
	<rect id="XMLID_876_" x="92.3" y="60.8" class="st3" width="16.7" height="22.6"/>
	<circle id="XMLID_875_" class="st3" cx="98.8" cy="45.7" r="19.5"/>
	<circle id="XMLID_874_" class="st3" cx="83.4" cy="32.8" r="7.3"/>
	<circle id="XMLID_873_" class="st3" cx="116.3" cy="34.1" r="7.3"/>
	<circle id="XMLID_872_" class="st5" cx="109.1" cy="46.8" r="2.6"/>
	<circle id="XMLID_871_" class="st5" cx="89.6" cy="46.8" r="2.6"/>
	<g id="XMLID_867_">
		<polygon id="XMLID_870_" class="st5" points="97.5,48 99.3,50.8 101.3,48 		"/>
		<path id="XMLID_869_" class="st5" d="M99.4,50.1c0,1.5-1.2,2.7-2.7,2.7s-2.7-1.2-2.7-2.7"/>
		<path id="XMLID_868_" class="st5" d="M104.7,50.1c0,1.5-1.2,2.7-2.7,2.7c-1.5,0-2.7-1.2-2.7-2.7"/>
	</g>
</g>
<g id="XMLID_12_">
	<g id="XMLID_1230_">
		<path id="XMLID_1348_" class="st6" d="M57.1,121.1c0.1,0.2,0.3,0.4,0.3,0.6c0.1,0.2,0.1,0.4,0.2,0.7v5.3h-1.1v-4.9
			c0-0.3-0.1-0.6-0.2-0.8c-0.1-0.2-0.3-0.4-0.4-0.5l-1.2,0.8l-1.2-0.8c-0.2,0.1-0.3,0.3-0.4,0.5c-0.1,0.2-0.2,0.5-0.2,0.8v2.6
			c0,0.2,0.1,0.5,0.2,0.6c0,0.1,0.1,0.2,0.2,0.2c0.1,0.1,0.1,0.1,0.2,0.2c0.1,0.1,0.2,0.1,0.3,0.1c0.1,0,0.3,0.1,0.4,0.1H55v1h-1.5
			c-0.3,0-0.6-0.1-0.8-0.3c-0.1-0.1-0.2-0.2-0.3-0.3c-0.1-0.1-0.2-0.2-0.3-0.4c-0.1-0.2-0.1-0.3-0.2-0.5c0-0.2-0.1-0.4-0.1-0.7v-3.2
			c0.1-0.5,0.2-0.9,0.5-1.3c0.3-0.4,0.6-0.6,1.1-0.8l1.3,0.8l1.3-0.8C56.5,120.5,56.8,120.7,57.1,121.1z"/>
		<path id="XMLID_1346_" class="st6" d="M56.3,129.4h-0.5v-1h1c0.1,0,0.3,0.1,0.4,0.2c0.1,0.1,0.2,0.2,0.2,0.4v2.2h-1V129.4z"/>
		<path id="XMLID_1344_" class="st6" d="M58,118.5v1h-2.5c0-0.3,0-0.5,0-0.6c0-0.2-0.1-0.3-0.1-0.3c0-0.1-0.1-0.1-0.2-0.2l-0.9,0.9
			l-0.9-0.9c-0.1,0-0.1,0.1-0.2,0.2c0,0.1-0.1,0.2-0.1,0.3c0,0.2,0,0.4,0,0.6h-1c0-0.3,0-0.5,0.1-0.8c0-0.3,0.1-0.5,0.2-0.7
			c0.1-0.2,0.3-0.4,0.5-0.6c0.2-0.2,0.5-0.2,0.8-0.3l0.6,0.6l0.6-0.6c0.2,0,0.4,0,0.6,0.1c0.2,0.1,0.3,0.2,0.4,0.3
			c0.1,0.1,0.2,0.3,0.3,0.4s0.1,0.3,0.2,0.5H58z"/>
		<path id="XMLID_1342_" class="st6" d="M59,127.7v-5.6c0.2-0.3,0.3-0.5,0.5-0.7c0.2-0.2,0.4-0.4,0.6-0.5s0.4-0.2,0.6-0.3
			s0.4-0.1,0.5-0.2c0.2,0,0.3-0.1,0.4-0.1c0.1,0,0.2,0,0.3,0h0.1c0.4,0,0.7,0.1,0.9,0.1c0.3,0.1,0.5,0.2,0.7,0.3
			c0.2,0.1,0.4,0.3,0.5,0.4c0.1,0.2,0.3,0.3,0.3,0.5c0.1,0.2,0.2,0.3,0.2,0.5c0,0.2,0.1,0.3,0.1,0.4c0,0.1,0,0.2,0,0.3
			c0,0.1,0,0.2,0,0.2v4.5h-1.1v-4.5c0-0.3,0-0.5-0.1-0.7s-0.2-0.4-0.3-0.5s-0.3-0.2-0.4-0.3s-0.3-0.1-0.4-0.2
			c-0.1,0-0.2-0.1-0.3-0.1c-0.1,0-0.2,0-0.2,0c-0.2,0-0.4,0-0.6,0.1c-0.2,0.1-0.3,0.1-0.4,0.2s-0.2,0.2-0.3,0.3
			c-0.1,0.1-0.2,0.2-0.2,0.3c-0.1,0.3-0.2,0.5-0.2,0.9v4.5H59z"/>
		<path id="XMLID_1340_" class="st6" d="M71.4,121.1c0.1,0.2,0.3,0.4,0.3,0.6c0.1,0.2,0.1,0.4,0.2,0.7v5.3h-1.1v-4.9
			c0-0.3-0.1-0.6-0.2-0.8c-0.1-0.2-0.3-0.4-0.4-0.5l-1.2,0.8l-1.2-0.8c-0.2,0.1-0.3,0.3-0.4,0.5c-0.1,0.2-0.2,0.5-0.2,0.8v2.6
			c0,0.2,0.1,0.5,0.2,0.6c0,0.1,0.1,0.2,0.2,0.2c0.1,0.1,0.1,0.1,0.2,0.2c0.1,0.1,0.2,0.1,0.3,0.1c0.1,0,0.3,0.1,0.4,0.1h0.8v1h-1.5
			c-0.3,0-0.6-0.1-0.8-0.3c-0.1-0.1-0.2-0.2-0.3-0.3c-0.1-0.1-0.2-0.2-0.3-0.4c-0.1-0.2-0.1-0.3-0.2-0.5c0-0.2-0.1-0.4-0.1-0.7v-3.2
			c0.1-0.5,0.2-0.9,0.5-1.3c0.3-0.4,0.6-0.6,1.1-0.8l1.3,0.8l1.3-0.8C70.7,120.5,71.1,120.7,71.4,121.1z"/>
		<path id="XMLID_1338_" class="st6" d="M74.3,120.3c0,0,0.1,0,0.2,0s0.2,0,0.4,0.1c0.1,0,0.3,0.1,0.5,0.2c0.2,0.1,0.3,0.2,0.4,0.4
			c0.1,0.2,0.2,0.4,0.3,0.6s0.1,0.5,0.1,0.9v5.2h-1.1v-5.2c0-0.2,0-0.4-0.1-0.5c0-0.1-0.1-0.1-0.1-0.2c0-0.1-0.1-0.1-0.2-0.2
			c-0.1,0-0.1-0.1-0.2-0.1c-0.1,0-0.2,0-0.3,0c-0.2,0-0.3,0-0.5,0.1c-0.1,0-0.2,0.1-0.3,0.1s-0.1,0.1-0.2,0.2c0,0.1-0.1,0.1-0.1,0.1
			l-0.8-0.8c0.1-0.1,0.3-0.3,0.4-0.4c0.2-0.1,0.3-0.2,0.6-0.3S74,120.3,74.3,120.3z"/>
		<path id="XMLID_1336_" class="st6" d="M81.9,122.2l-0.5-0.3c-0.1-0.1-0.2-0.1-0.4-0.2c-0.1-0.1-0.3-0.1-0.4-0.2
			c-0.1,0-0.3-0.1-0.4-0.1c-0.1,0-0.2,0-0.3,0c-0.2,0-0.3,0-0.5,0c-0.2,0-0.3,0.1-0.4,0.2c-0.1,0.1-0.2,0.2-0.3,0.3
			c-0.1,0.1-0.1,0.3-0.1,0.5c0,0.2,0.1,0.4,0.2,0.5c0.1,0.1,0.3,0.2,0.5,0.3c0.2,0.1,0.4,0.1,0.7,0.2c0.2,0,0.5,0.1,0.7,0.1
			c0.2,0,0.5,0.1,0.7,0.2c0.2,0.1,0.4,0.3,0.6,0.4s0.3,0.4,0.4,0.6c0.1,0.2,0.2,0.5,0.2,0.7c0,0.4-0.1,0.7-0.2,1
			c-0.1,0.3-0.3,0.5-0.6,0.7c-0.2,0.2-0.5,0.3-0.8,0.4c-0.3,0.1-0.7,0.1-1,0.1c-0.5,0-0.9-0.1-1.3-0.2c-0.4-0.1-0.6-0.2-0.9-0.4
			c-0.3-0.2-0.5-0.3-0.7-0.5l0.7-0.7c0.1,0.1,0.2,0.2,0.3,0.3c0.1,0.1,0.3,0.2,0.5,0.2c0.2,0.1,0.4,0.1,0.6,0.2
			c0.2,0,0.4,0.1,0.7,0.1c0.2,0,0.4,0,0.6-0.1c0.2-0.1,0.3-0.1,0.5-0.2c0.1-0.1,0.2-0.2,0.3-0.4c0.1-0.1,0.1-0.3,0.1-0.5
			c0-0.2,0-0.3-0.1-0.4c-0.1-0.1-0.1-0.2-0.2-0.3c-0.1-0.1-0.2-0.1-0.2-0.1c-0.1,0-0.1,0-0.2-0.1c0,0-0.1,0-0.2,0s-0.3,0-0.4-0.1
			s-0.3-0.1-0.5-0.1s-0.3,0-0.4-0.1c-0.1,0-0.1,0-0.2-0.1c-0.1,0-0.2-0.1-0.3-0.1c-0.1-0.1-0.2-0.1-0.4-0.2
			c-0.1-0.1-0.2-0.2-0.3-0.4s-0.2-0.3-0.2-0.5c-0.1-0.2-0.1-0.4-0.1-0.7c0-0.4,0.1-0.7,0.2-1c0.1-0.3,0.3-0.5,0.6-0.7
			c0.2-0.2,0.5-0.3,0.8-0.4c0.3-0.1,0.6-0.1,0.9-0.1c0.3,0,0.6,0,0.8,0.1s0.5,0.1,0.6,0.2c0.2,0.1,0.4,0.2,0.6,0.3l0.6,0.4
			L81.9,122.2z"/>
		<path id="XMLID_1334_" class="st6" d="M81.9,128.2v1.9c0,0.1,0,0.2-0.1,0.3c-0.1,0.1-0.2,0.1-0.3,0.1H80c-0.1,0-0.2,0-0.3-0.1
			c-0.1-0.1-0.1-0.2-0.1-0.3v-1h-0.4v-0.9H80c0.1,0,0.2,0,0.3,0.1c0.1,0,0.1,0.1,0.1,0.1s0,0.1,0,0.2v1H81v-1.4H81.9z"/>
		<path id="XMLID_1332_" class="st6" d="M89.3,117.7v7.5c0,0.5-0.2,0.9-0.4,1.3c-0.1,0.2-0.2,0.3-0.3,0.5s-0.3,0.3-0.5,0.4
			c-0.2,0.1-0.4,0.2-0.7,0.3s-0.6,0.1-0.9,0.1c-0.4,0-0.7,0-0.9-0.1s-0.5-0.2-0.7-0.3c-0.2-0.1-0.4-0.3-0.5-0.4s-0.3-0.3-0.3-0.5
			c-0.2-0.4-0.3-0.8-0.4-1.3v-4.8h1.1v4.8c0,0.2,0,0.4,0.1,0.5c0,0.1,0.1,0.3,0.2,0.4s0.2,0.2,0.3,0.3s0.2,0.1,0.3,0.2
			c0.3,0.1,0.6,0.2,0.9,0.2c0.3,0,0.6-0.1,0.9-0.2c0.1,0,0.2-0.1,0.3-0.2s0.2-0.2,0.3-0.3s0.2-0.2,0.2-0.4c0-0.1,0.1-0.3,0.1-0.5
			v-7.5H89.3z"/>
		<path id="XMLID_1330_" class="st6" d="M96.6,120.2c0,0,0,0.1-0.1,0.1c0,0.1-0.1,0.1-0.1,0.2s-0.1,0.1-0.2,0.2
			c-0.1,0.1-0.2,0.1-0.2,0.2c-0.1,0.1-0.1,0.1-0.2,0.2s-0.1,0.1-0.2,0.1c0.1,0.2,0.3,0.4,0.3,0.6c0.1,0.2,0.1,0.4,0.2,0.6
			s0.1,0.3,0.1,0.5c0,0.1,0,0.2,0,0.3v0.1v4.5h-1.1v-2.2c0-0.2,0-0.4-0.1-0.5s-0.2-0.3-0.4-0.4c-0.1-0.1-0.3-0.2-0.5-0.2
			c-0.2-0.1-0.3-0.1-0.5-0.1c-0.1,0-0.3,0-0.5-0.1c0,0-0.1,0-0.1,0c-0.1,0-0.2,0-0.3,0c-0.1,0-0.2,0.1-0.4,0.1
			c-0.1,0-0.3,0.1-0.4,0.2c-0.1,0.1-0.2,0.2-0.3,0.3c-0.1,0.1-0.2,0.3-0.2,0.5c0,0,0,0.1,0,0.1c0,0,0,0.1,0,0.1c0,0.2,0,0.3,0.1,0.4
			c0.1,0.1,0.2,0.2,0.3,0.3c0.1,0.1,0.3,0.1,0.4,0.2c0.1,0,0.3,0.1,0.4,0.1c0.1,0,0.3,0,0.4,0s0.2,0,0.3,0h0.1v1h-1.2
			c-0.3,0-0.5-0.1-0.7-0.2s-0.4-0.3-0.6-0.4c-0.2-0.2-0.3-0.4-0.4-0.7c-0.1-0.2-0.1-0.5-0.1-0.8c0-0.3,0.1-0.5,0.2-0.8
			c0.1-0.3,0.3-0.5,0.6-0.8c0.2-0.2,0.3-0.3,0.5-0.4c0.2-0.1,0.4-0.2,0.5-0.3s0.4-0.1,0.5-0.1c0.2,0,0.3,0,0.5,0
			c0.3,0,0.5,0,0.7,0.1s0.4,0.1,0.6,0.2c0.2,0.1,0.4,0.1,0.5,0.2v-0.4c0-0.2,0-0.4-0.1-0.6c-0.1-0.2-0.1-0.3-0.2-0.5
			c-0.1-0.1-0.2-0.2-0.3-0.3s-0.2-0.2-0.3-0.2c-0.3-0.1-0.6-0.2-0.9-0.2c-0.3,0-0.5,0.1-0.8,0.2c-0.2,0.1-0.4,0.2-0.5,0.4
			c-0.1,0.2-0.2,0.3-0.3,0.5c-0.1,0.2-0.1,0.3-0.2,0.4h-1.1c0-0.4,0.1-0.7,0.2-1c0.1-0.3,0.3-0.5,0.5-0.7c0.2-0.2,0.4-0.3,0.6-0.4
			c0.2-0.1,0.4-0.2,0.6-0.2c0.2-0.1,0.4-0.1,0.5-0.1s0.3,0,0.3,0h0.1c0.3,0,0.7,0,1,0.1c0.2,0,0.4-0.1,0.6-0.2
			c0.2-0.1,0.3-0.2,0.5-0.3c0.2-0.1,0.3-0.3,0.4-0.5l0.4,0.4c0,0,0.1,0.1,0.1,0.1c0,0,0.1,0.1,0.1,0.1
			C96.4,120.1,96.5,120.2,96.6,120.2C96.5,120.2,96.6,120.2,96.6,120.2z"/>
		<path id="XMLID_1328_" class="st6" d="M93.9,117.9v0.5h2.7v1h-3.3c-0.1,0-0.2,0-0.3-0.1c-0.1,0-0.1-0.1-0.1-0.2
			c0-0.1-0.1-0.2-0.1-0.2v-1.1H93.9z"/>
		<path id="XMLID_1326_" class="st6" d="M102.7,121.1c0.1,0.2,0.3,0.4,0.3,0.6c0.1,0.2,0.1,0.4,0.2,0.7v5.3h-1.1v-4.9
			c0-0.3-0.1-0.6-0.2-0.8c-0.1-0.2-0.3-0.4-0.4-0.5l-1.2,0.8l-1.2-0.8c-0.2,0.1-0.3,0.3-0.4,0.5c-0.1,0.2-0.2,0.5-0.2,0.8v2.6
			c0,0.2,0.1,0.5,0.2,0.6c0,0.1,0.1,0.2,0.2,0.2c0.1,0.1,0.1,0.1,0.2,0.2c0.1,0.1,0.2,0.1,0.3,0.1c0.1,0,0.3,0.1,0.4,0.1h0.8v1h-1.5
			c-0.3,0-0.6-0.1-0.8-0.3c-0.1-0.1-0.2-0.2-0.3-0.3c-0.1-0.1-0.2-0.2-0.3-0.4c-0.1-0.2-0.1-0.3-0.2-0.5c0-0.2-0.1-0.4-0.1-0.7v-3.2
			c0.1-0.5,0.2-0.9,0.5-1.3c0.3-0.4,0.6-0.6,1.1-0.8l1.3,0.8l1.3-0.8C102.1,120.5,102.4,120.7,102.7,121.1z"/>
		<path id="XMLID_1324_" class="st6" d="M106.9,120.3c0.1,0,0.2,0,0.3,0c0.1,0,0.3,0,0.5,0.1s0.4,0.1,0.6,0.2s0.4,0.3,0.5,0.4
			c0.2,0.2,0.3,0.4,0.4,0.7c0.1,0.3,0.2,0.6,0.2,1v2.4c0,0.5-0.1,0.9-0.3,1.3c-0.1,0.2-0.2,0.3-0.3,0.5c-0.1,0.2-0.3,0.3-0.4,0.4
			c-0.2,0.1-0.4,0.2-0.6,0.3c-0.2,0.1-0.5,0.1-0.8,0.1c-0.3,0-0.6,0-0.8-0.1c-0.2-0.1-0.4-0.2-0.6-0.3c-0.2-0.1-0.3-0.3-0.4-0.4
			c-0.1-0.2-0.2-0.3-0.3-0.5c0,0,0.1-0.1,0.2-0.1s0.2-0.1,0.3-0.2c0.1-0.1,0.2-0.1,0.3-0.2s0.1-0.1,0.2-0.1c0.1,0.2,0.2,0.4,0.3,0.5
			c0.1,0.1,0.3,0.2,0.4,0.2c0.2,0.1,0.3,0.1,0.5,0.1c0.3,0,0.5-0.1,0.7-0.2c0.1,0,0.2-0.1,0.3-0.2c0.1-0.1,0.2-0.2,0.2-0.3
			c0.1-0.1,0.1-0.2,0.2-0.3c0-0.1,0.1-0.3,0.1-0.5v-2.4c0-0.3-0.1-0.5-0.2-0.7c0-0.1-0.1-0.2-0.2-0.3c-0.1-0.1-0.1-0.2-0.2-0.2
			s-0.2-0.1-0.3-0.2c-0.1,0-0.3-0.1-0.4-0.1c-0.2,0-0.4,0-0.6,0.1c-0.2,0-0.3,0.1-0.4,0.2c-0.1,0.1-0.2,0.2-0.3,0.4
			c-0.1,0.1-0.2,0.3-0.3,0.5h-1.1c0-0.3,0.1-0.6,0.2-0.9c0.1-0.3,0.3-0.5,0.5-0.7c0.2-0.2,0.5-0.3,0.8-0.5S106.4,120.3,106.9,120.3
			L106.9,120.3L106.9,120.3z"/>
		<path id="XMLID_1322_" class="st6" d="M106.3,119.4v-1.1c0-0.1,0-0.2,0.1-0.2c0-0.1,0.1-0.1,0.1-0.2c0.1,0,0.2-0.1,0.3-0.1h2.4v1
			h-1.9v0.5H106.3z"/>
		<path id="XMLID_1320_" class="st7" d="M57.5,142c0,0.5-0.2,0.9-0.4,1.3c-0.1,0.2-0.2,0.3-0.3,0.5c-0.1,0.2-0.3,0.3-0.5,0.4
			c-0.2,0.1-0.4,0.2-0.7,0.3s-0.6,0.1-0.9,0.1c-0.4,0-0.7,0-0.9-0.1s-0.5-0.2-0.7-0.3c-0.2-0.1-0.4-0.3-0.5-0.4s-0.3-0.3-0.3-0.5
			c-0.2-0.4-0.3-0.8-0.4-1.3v-1.5h2.1v1h-1v0.5c0,0.2,0,0.4,0.1,0.5c0,0.2,0.1,0.3,0.2,0.4c0.1,0.1,0.2,0.2,0.3,0.3
			c0.1,0.1,0.2,0.1,0.3,0.2c0.3,0.1,0.6,0.2,0.9,0.2c0.3,0,0.6-0.1,0.9-0.2c0.1,0,0.2-0.1,0.3-0.2c0.1-0.1,0.2-0.2,0.3-0.3
			c0.1-0.1,0.2-0.2,0.2-0.4c0-0.2,0.1-0.3,0.1-0.5v-2.2c0-0.2,0-0.4-0.1-0.5c-0.1-0.1-0.1-0.3-0.2-0.4s-0.2-0.2-0.3-0.3
			c-0.1-0.1-0.2-0.1-0.3-0.2c-0.3-0.1-0.6-0.2-0.9-0.2h-0.1c-0.1,0-0.2,0-0.3,0c-0.2,0-0.3,0.1-0.5,0.2c-0.2,0.1-0.3,0.2-0.5,0.3
			s-0.3,0.3-0.3,0.6h-1.1c0-0.1,0.1-0.3,0.1-0.4s0.1-0.3,0.2-0.5s0.2-0.3,0.4-0.5c0.1-0.2,0.3-0.3,0.5-0.4c0.2-0.1,0.4-0.2,0.7-0.3
			c0.3-0.1,0.6-0.1,0.9-0.1c0.3,0,0.7,0,0.9,0.1s0.5,0.2,0.7,0.3c0.2,0.1,0.4,0.3,0.5,0.4c0.1,0.2,0.3,0.3,0.3,0.5
			c0.2,0.4,0.3,0.8,0.4,1.3V142z"/>
		<path id="XMLID_1318_" class="st7" d="M59.7,137.1c0,0,0.1,0,0.2,0s0.2,0,0.4,0.1c0.1,0,0.3,0.1,0.5,0.2c0.2,0.1,0.3,0.2,0.4,0.4
			c0.1,0.2,0.2,0.4,0.3,0.6s0.1,0.5,0.1,0.9v5.2h-1.1v-5.2c0-0.2,0-0.4-0.1-0.5c0-0.1-0.1-0.1-0.1-0.2c0-0.1-0.1-0.1-0.2-0.2
			c-0.1,0-0.1-0.1-0.2-0.1c-0.1,0-0.2,0-0.3,0c-0.2,0-0.3,0-0.5,0.1c-0.1,0-0.2,0.1-0.3,0.1s-0.1,0.1-0.2,0.2c0,0.1-0.1,0.1-0.1,0.1
			l-0.8-0.8c0.1-0.1,0.3-0.3,0.4-0.4c0.2-0.1,0.3-0.2,0.6-0.3S59.3,137.1,59.7,137.1z"/>
		<path id="XMLID_1314_" class="st7" d="M65.8,137.1c0.2,0,0.4,0.1,0.6,0.1c0.2,0.1,0.4,0.1,0.6,0.3c0.2,0.1,0.4,0.3,0.6,0.5
			s0.3,0.5,0.5,0.8c0.1,0.3,0.2,0.7,0.2,1.2v4.5h-1.1v-2c-0.1-0.1-0.1-0.3-0.2-0.4s-0.2-0.2-0.3-0.3c-0.1-0.1-0.3-0.1-0.4-0.2
			c-0.1,0-0.3-0.1-0.5-0.1c-0.1,0-0.2,0-0.4,0c-0.1,0-0.2,0-0.3,0.1v-1.1c0.2-0.1,0.4-0.1,0.7-0.1c0.5,0,1,0.1,1.4,0.4V140
			c0-0.3-0.1-0.6-0.3-0.9c-0.1-0.1-0.1-0.2-0.2-0.3c-0.1-0.1-0.2-0.2-0.3-0.3c-0.1-0.1-0.3-0.2-0.4-0.2c-0.2-0.1-0.4-0.1-0.6-0.1
			c-0.3,0-0.6,0.1-0.9,0.2c-0.1,0.1-0.2,0.1-0.3,0.2s-0.2,0.2-0.3,0.3c-0.1,0.1-0.2,0.3-0.2,0.5c-0.1,0.2-0.1,0.4-0.1,0.6h-1.1v-0.1
			c0-0.1,0-0.2,0-0.4c0-0.2,0.1-0.4,0.1-0.6s0.2-0.4,0.3-0.7s0.3-0.4,0.5-0.6s0.5-0.3,0.8-0.5c0.3-0.1,0.7-0.2,1.2-0.2h0.1
			C65.5,137.1,65.7,137.1,65.8,137.1z"/>
		<path id="XMLID_1311_" class="st7" d="M69.6,137.1h1.1v1.9h2.4c0.1,0,0.2-0.1,0.4-0.1c0.1-0.1,0.2-0.2,0.3-0.3
			c0.1-0.1,0.2-0.3,0.2-0.5v-1h1.1v1.1c0,0.1,0,0.2,0,0.3s-0.1,0.2-0.1,0.4c-0.1,0.1-0.1,0.3-0.2,0.4s-0.2,0.2-0.3,0.3
			c0.1,0.1,0.3,0.3,0.4,0.5c0.1,0.2,0.2,0.3,0.3,0.6s0.1,0.5,0.1,0.7v3.2h-1.1v-3.2c0-0.1,0-0.2-0.1-0.3c0-0.1-0.1-0.2-0.1-0.3
			c0-0.1-0.1-0.2-0.2-0.3c-0.1-0.1-0.2-0.2-0.3-0.2c-0.1-0.1-0.2-0.1-0.4-0.1h-2.4v4.5h-1.1V137.1z"/>
		<path id="XMLID_1309_" class="st7" d="M82.3,137.2v4.6v0.1c0,0.1,0,0.2,0,0.4c0,0.2,0,0.4-0.1,0.6c-0.1,0.2-0.1,0.4-0.2,0.6
			s-0.3,0.4-0.5,0.6s-0.4,0.3-0.7,0.4s-0.6,0.2-1.1,0.2h-0.3c-0.3,0-0.6-0.1-0.8-0.2c-0.1,0-0.2-0.1-0.3-0.1
			c-0.1-0.1-0.2-0.1-0.3-0.2c-0.1-0.1-0.2-0.2-0.2-0.3s-0.1-0.2-0.1-0.4v1h-1.1v-7.3h1.1v4.6c0,0,0,0.1,0,0.2c0,0.1,0,0.2,0.1,0.4
			s0.1,0.3,0.2,0.4c0.1,0.2,0.2,0.3,0.3,0.4c0.1,0.1,0.3,0.2,0.5,0.3c0.2,0.1,0.4,0.1,0.7,0.1c0,0,0.1,0,0.2,0s0.2,0,0.3-0.1
			c0.1,0,0.3-0.1,0.4-0.2c0.1-0.1,0.3-0.2,0.4-0.3s0.2-0.3,0.3-0.5s0.1-0.5,0.1-0.8v-4.6H82.3z"/>
		<path id="XMLID_1307_" class="st7" d="M84.7,137.1c0,0,0.1,0,0.2,0s0.2,0,0.4,0.1c0.1,0,0.3,0.1,0.5,0.2c0.2,0.1,0.3,0.2,0.4,0.4
			c0.1,0.2,0.2,0.4,0.3,0.6s0.1,0.5,0.1,0.9v5.2h-1.1v-5.2c0-0.2,0-0.4-0.1-0.5c0-0.1-0.1-0.1-0.1-0.2c0-0.1-0.1-0.1-0.2-0.2
			c-0.1,0-0.1-0.1-0.2-0.1c-0.1,0-0.2,0-0.3,0c-0.2,0-0.3,0-0.5,0.1c-0.1,0-0.2,0.1-0.3,0.1s-0.1,0.1-0.2,0.2c0,0.1-0.1,0.1-0.1,0.1
			l-0.8-0.8c0.1-0.1,0.3-0.3,0.4-0.4c0.2-0.1,0.3-0.2,0.6-0.3S84.4,137.1,84.7,137.1z"/>
		<path id="XMLID_1305_" class="st7" d="M93.7,137.2v5.3c0,0.3,0,0.6-0.1,0.8c-0.1,0.2-0.2,0.4-0.3,0.6c-0.1,0.2-0.3,0.3-0.5,0.4
			c-0.2,0.1-0.3,0.2-0.5,0.2c-0.2,0-0.3,0.1-0.4,0.1c-0.1,0-0.2,0-0.3,0h-1.4c-0.4,0-0.7,0-0.9-0.1c-0.3-0.1-0.5-0.2-0.6-0.3
			c-0.2-0.1-0.3-0.3-0.4-0.4c-0.1-0.1-0.2-0.3-0.2-0.4c-0.1-0.1-0.1-0.3-0.1-0.4c0-0.1,0-0.2,0-0.3c0-0.3,0.1-0.5,0.2-0.7
			c0.1-0.2,0.2-0.4,0.4-0.5s0.3-0.2,0.4-0.3c0.1-0.1,0.2-0.1,0.2-0.1c-0.1,0-0.3-0.1-0.4-0.1s-0.2-0.1-0.3-0.2
			c-0.1-0.1-0.2-0.2-0.2-0.3S88,140.1,88,140c-0.1-0.2-0.1-0.5-0.2-0.7c0-0.3,0-0.5,0.1-0.7c0-0.2,0.1-0.4,0.2-0.5s0.2-0.3,0.3-0.4
			s0.2-0.2,0.3-0.3c0.3-0.2,0.6-0.2,0.9-0.3H91v1h-0.9c-0.2,0-0.3,0-0.4,0c-0.1,0-0.2,0.1-0.3,0.1c-0.1,0.1-0.2,0.1-0.2,0.2
			c-0.1,0.1-0.1,0.1-0.2,0.2c-0.1,0.2-0.1,0.3-0.2,0.5c0,0.2,0,0.3,0.1,0.5c0.1,0.1,0.1,0.2,0.2,0.3c0.1,0.1,0.2,0.1,0.3,0.2
			c0.1,0,0.2,0.1,0.3,0.1s0.2,0,0.2,0c0.1,0,0.1,0,0.1,0H91v1h-0.9c-0.2,0-0.4,0-0.5,0.1c-0.1,0-0.2,0.1-0.3,0.2
			c-0.1,0.1-0.2,0.1-0.2,0.2c0,0.1-0.1,0.2-0.1,0.2c0,0.1,0,0.1,0,0.2c0,0.1,0,0.1,0,0.1c0,0.2,0,0.3,0.1,0.5c0,0.1,0.1,0.2,0.2,0.3
			c0.1,0.1,0.2,0.1,0.3,0.2c0.1,0,0.2,0.1,0.3,0.1c0.1,0,0.2,0,0.2,0c0.1,0,0.1,0,0.1,0h0h1.3c0.3,0,0.5-0.1,0.6-0.2
			c0.1-0.1,0.3-0.2,0.3-0.4c0.1-0.2,0.1-0.3,0.2-0.5v-5.3H93.7z"/>
		<path id="XMLID_1303_" class="st7" d="M99,137.2c0.3,0.1,0.5,0.2,0.7,0.3c0.2,0.1,0.4,0.3,0.5,0.4c0.1,0.2,0.3,0.3,0.3,0.5
			c0.1,0.2,0.2,0.3,0.2,0.5c0,0.2,0.1,0.3,0.1,0.4c0,0.1,0,0.2,0,0.3c0,0.1,0,0.2,0,0.2v4.5h-1.1v-4.5c0-0.3,0-0.5-0.1-0.7
			s-0.2-0.4-0.3-0.5s-0.3-0.2-0.4-0.3s-0.3-0.1-0.4-0.2c-0.1,0-0.2-0.1-0.3-0.1c-0.1,0-0.2,0-0.2,0c-0.2,0-0.4,0-0.6,0.1
			c-0.2,0.1-0.3,0.1-0.4,0.2s-0.2,0.2-0.3,0.3c-0.1,0.1-0.2,0.2-0.2,0.3c-0.1,0.3-0.2,0.5-0.2,0.9v3.5H97v1h-1.8v-5.6
			c0.2-0.3,0.3-0.5,0.5-0.7c0.2-0.2,0.4-0.4,0.6-0.5s0.4-0.2,0.6-0.3s0.4-0.1,0.5-0.2c0.2,0,0.3-0.1,0.4-0.1c0.1,0,0.2,0,0.3,0h0.1
			C98.4,137.1,98.8,137.2,99,137.2z"/>
		<path id="XMLID_1300_" class="st7" d="M99.5,133.7c0.2,0,0.3,0,0.5,0.1c0.2,0.1,0.3,0.2,0.4,0.3s0.2,0.3,0.3,0.4
			c0.1,0.2,0.1,0.3,0.1,0.5c0,0.2,0,0.3-0.1,0.5s-0.2,0.3-0.3,0.4s-0.3,0.2-0.4,0.3c-0.2,0.1-0.3,0.1-0.5,0.1h-4.2v-1h3
			c0,0,0-0.1,0-0.1c0,0,0-0.1,0-0.1c0-0.2,0-0.3,0.1-0.5c0.1-0.2,0.2-0.3,0.3-0.4s0.3-0.2,0.4-0.3S99.3,133.7,99.5,133.7z
			 M99.5,135.4c0.1,0,0.2,0,0.3-0.1s0.1-0.2,0.1-0.3c0-0.1,0-0.2-0.1-0.3c-0.1-0.1-0.2-0.1-0.3-0.1c-0.1,0-0.2,0-0.3,0.1
			c-0.1,0.1-0.1,0.2-0.1,0.3c0,0.1,0,0.2,0.1,0.3S99.4,135.4,99.5,135.4z"/>
		<path id="XMLID_1298_" class="st7" d="M103.3,137.1h2.1v5.3c0,0.4,0,0.6-0.1,0.9c-0.1,0.2-0.2,0.4-0.3,0.6
			c-0.1,0.2-0.3,0.3-0.4,0.4s-0.3,0.2-0.5,0.2c-0.1,0-0.3,0.1-0.4,0.1c-0.1,0-0.2,0-0.2,0c-0.3,0-0.6,0-0.8-0.1
			c-0.2-0.1-0.4-0.2-0.6-0.3c-0.2-0.1-0.3-0.3-0.4-0.4l0.7-0.7c0,0,0.1,0.1,0.1,0.1c0.1,0.1,0.1,0.1,0.2,0.2s0.2,0.1,0.3,0.1
			c0.1,0,0.3,0.1,0.4,0.1c0.1,0,0.2,0,0.3,0c0.1,0,0.2-0.1,0.2-0.1c0.1-0.1,0.1-0.1,0.2-0.2s0.1-0.1,0.1-0.2
			c0.1-0.2,0.1-0.4,0.1-0.6v-4.3h-1V137.1z"/>
		<path id="XMLID_1296_" class="st7" d="M110.7,137.3c0.3,0.1,0.6,0.3,0.8,0.5c0.2,0.2,0.4,0.4,0.5,0.6c0.1,0.2,0.2,0.4,0.3,0.7
			s0.1,0.4,0.1,0.6c0,0.2,0,0.3,0,0.4v0.1v4.5h-1.1V140c0-0.2,0-0.4-0.1-0.6c-0.1-0.2-0.1-0.3-0.2-0.5c-0.1-0.1-0.2-0.2-0.3-0.3
			s-0.2-0.2-0.3-0.2c-0.3-0.1-0.6-0.2-0.9-0.2c-0.2,0-0.4,0-0.6,0.1c-0.2,0.1-0.3,0.1-0.4,0.2c-0.1,0.1-0.2,0.2-0.3,0.3
			c-0.1,0.1-0.2,0.2-0.2,0.3c-0.1,0.3-0.2,0.6-0.3,0.9v0.7c0.4-0.3,0.9-0.4,1.4-0.4c0.2,0,0.5,0,0.7,0.1v1.1c-0.1,0-0.2-0.1-0.3-0.1
			s-0.2,0-0.4,0c-0.3,0-0.6,0.1-0.9,0.2c-0.1,0.1-0.2,0.2-0.3,0.3c-0.1,0.1-0.2,0.3-0.2,0.4v2h-1.1v-4.5c0-0.5,0.1-0.8,0.2-1.2
			c0.1-0.3,0.3-0.6,0.5-0.8c0.2-0.2,0.4-0.4,0.6-0.5c0.2-0.1,0.4-0.2,0.6-0.3c0.2-0.1,0.4-0.1,0.6-0.1s0.3,0,0.4,0h0.1
			C110,137.1,110.4,137.2,110.7,137.3z"/>
		<path id="XMLID_1294_" class="st7" d="M111.1,146.2h-0.5v-1h1c0.1,0,0.3,0.1,0.4,0.2c0.1,0.1,0.2,0.2,0.2,0.4v2.2h-1V146.2z"/>
		<path id="XMLID_1292_" class="st7" d="M124.1,137.2v7.3H123v-1c0,0.1,0,0.3-0.1,0.4s-0.1,0.2-0.2,0.3c-0.1,0.1-0.2,0.1-0.3,0.2
			c-0.1,0.1-0.2,0.1-0.3,0.1c-0.3,0.1-0.5,0.1-0.8,0.2h-0.3c-0.4,0-0.8-0.1-1.1-0.2c-0.3-0.1-0.5-0.3-0.7-0.4
			c-0.2-0.2-0.3-0.4-0.5-0.6s-0.2-0.4-0.2-0.6s-0.1-0.4-0.1-0.6c0-0.2,0-0.3,0-0.4c0-0.1,0-0.1,0-0.1v-1.8c0-0.3,0-0.5-0.1-0.7
			s-0.2-0.4-0.3-0.5s-0.3-0.2-0.4-0.3c-0.1-0.1-0.3-0.1-0.4-0.2s-0.3-0.1-0.3-0.1c-0.1,0-0.2,0-0.2,0c-0.2,0-0.4,0-0.6,0.1
			c-0.2,0.1-0.3,0.1-0.4,0.2s-0.2,0.2-0.3,0.3c-0.1,0.1-0.2,0.2-0.2,0.3c-0.1,0.3-0.2,0.5-0.2,0.9v2.3c0,0.2,0.1,0.5,0.2,0.6
			c0,0.1,0.1,0.2,0.2,0.2c0.1,0.1,0.1,0.1,0.2,0.2c0.1,0.1,0.2,0.1,0.3,0.1c0.1,0,0.3,0.1,0.4,0.1h0.8v1h-1.5
			c-0.3,0-0.6-0.1-0.8-0.3c-0.1-0.1-0.2-0.2-0.3-0.3c-0.1-0.1-0.2-0.2-0.3-0.4c-0.1-0.2-0.1-0.3-0.2-0.5c0-0.2-0.1-0.4-0.1-0.7v-0.2
			v-3.3c0.1-0.3,0.3-0.5,0.5-0.7c0.2-0.2,0.4-0.4,0.6-0.5s0.4-0.2,0.6-0.3c0.2-0.1,0.4-0.1,0.5-0.2c0.2,0,0.3-0.1,0.4-0.1
			c0.1,0,0.2,0,0.3,0h0.1c0.5,0,0.9,0.1,1.2,0.2s0.6,0.3,0.8,0.5c0.2,0.2,0.4,0.4,0.5,0.6c0.1,0.2,0.2,0.5,0.3,0.7s0.1,0.4,0.1,0.5
			s0,0.2,0,0.3v1.8c0,0.3,0,0.6,0.1,0.8s0.2,0.4,0.3,0.5s0.3,0.2,0.4,0.3c0.1,0.1,0.3,0.1,0.4,0.2c0.1,0,0.2,0.1,0.3,0.1
			s0.2,0,0.2,0c0.3,0,0.5,0,0.7-0.1c0.2-0.1,0.4-0.2,0.5-0.3s0.2-0.3,0.3-0.4c0.1-0.2,0.1-0.3,0.2-0.4s0.1-0.3,0.1-0.4
			c0-0.1,0-0.2,0-0.2v-4.6H124.1z"/>
		<path id="XMLID_1290_" class="st7" d="M131.3,137.2v4.6v0.1c0,0.1,0,0.2,0,0.4c0,0.2,0,0.4-0.1,0.6c-0.1,0.2-0.1,0.4-0.2,0.6
			s-0.3,0.4-0.5,0.6s-0.4,0.3-0.7,0.4s-0.6,0.2-1.1,0.2h-0.3c-0.3,0-0.6-0.1-0.8-0.2c-0.1,0-0.2-0.1-0.3-0.1
			c-0.1-0.1-0.2-0.1-0.3-0.2c-0.1-0.1-0.2-0.2-0.2-0.3s-0.1-0.2-0.1-0.4v1h-1.1v-7.3h1.1v4.6c0,0,0,0.1,0,0.2c0,0.1,0,0.2,0.1,0.4
			s0.1,0.3,0.2,0.4c0.1,0.2,0.2,0.3,0.3,0.4c0.1,0.1,0.3,0.2,0.5,0.3c0.2,0.1,0.4,0.1,0.7,0.1c0,0,0.1,0,0.2,0s0.2,0,0.3-0.1
			c0.1,0,0.3-0.1,0.4-0.2c0.1-0.1,0.3-0.2,0.4-0.3s0.2-0.3,0.3-0.5s0.1-0.5,0.1-0.8v-4.6H131.3z"/>
		<path id="XMLID_1288_" class="st7" d="M130.4,134.6v1.7h-4.1v-1h3.1v-0.7H130.4z"/>
		<path id="XMLID_1286_" class="st7" d="M136.6,137.3c0.3,0.1,0.6,0.3,0.8,0.5c0.2,0.2,0.4,0.4,0.5,0.6c0.1,0.2,0.2,0.4,0.3,0.7
			s0.1,0.4,0.1,0.6c0,0.2,0,0.3,0,0.4v0.1v4.5h-1.1V140c0-0.2,0-0.4-0.1-0.6c-0.1-0.2-0.1-0.3-0.2-0.5c-0.1-0.1-0.2-0.2-0.3-0.3
			s-0.2-0.2-0.3-0.2c-0.3-0.1-0.6-0.2-0.9-0.2c-0.2,0-0.4,0-0.6,0.1c-0.2,0.1-0.3,0.1-0.4,0.2c-0.1,0.1-0.2,0.2-0.3,0.3
			c-0.1,0.1-0.2,0.2-0.2,0.3c-0.1,0.3-0.2,0.6-0.3,0.9v0.7c0.4-0.3,0.9-0.4,1.4-0.4c0.2,0,0.5,0,0.7,0.1v1.1c-0.1,0-0.2-0.1-0.3-0.1
			s-0.2,0-0.4,0c-0.3,0-0.6,0.1-0.9,0.2c-0.1,0.1-0.2,0.2-0.3,0.3c-0.1,0.1-0.2,0.3-0.2,0.4v2h-1.1v-4.5c0-0.5,0.1-0.8,0.2-1.2
			c0.1-0.3,0.3-0.6,0.5-0.8c0.2-0.2,0.4-0.4,0.6-0.5c0.2-0.1,0.4-0.2,0.6-0.3c0.2-0.1,0.4-0.1,0.6-0.1s0.3,0,0.4,0h0.1
			C135.9,137.1,136.3,137.2,136.6,137.3z"/>
		<path id="XMLID_1284_" class="st7" d="M142,137.1c0.1,0,0.2,0,0.3,0c0.1,0,0.3,0,0.5,0.1s0.4,0.1,0.6,0.2s0.4,0.3,0.5,0.4
			c0.2,0.2,0.3,0.4,0.4,0.7c0.1,0.3,0.2,0.6,0.2,1v2.4c0,0.5-0.1,0.9-0.3,1.3c-0.1,0.2-0.2,0.3-0.3,0.5c-0.1,0.2-0.3,0.3-0.4,0.4
			c-0.2,0.1-0.4,0.2-0.6,0.3c-0.2,0.1-0.5,0.1-0.8,0.1c-0.3,0-0.6,0-0.8-0.1c-0.2-0.1-0.4-0.2-0.6-0.3c-0.2-0.1-0.3-0.3-0.4-0.4
			c-0.1-0.2-0.2-0.3-0.3-0.5c0,0,0.1-0.1,0.2-0.1s0.2-0.1,0.3-0.2c0.1-0.1,0.2-0.1,0.3-0.2s0.1-0.1,0.2-0.1c0.1,0.2,0.2,0.4,0.3,0.5
			c0.1,0.1,0.3,0.2,0.4,0.2c0.2,0.1,0.3,0.1,0.5,0.1c0.3,0,0.5-0.1,0.7-0.2c0.1,0,0.2-0.1,0.3-0.2c0.1-0.1,0.2-0.2,0.2-0.3
			c0.1-0.1,0.1-0.2,0.2-0.3c0-0.1,0.1-0.3,0.1-0.5v-2.4c0-0.3-0.1-0.5-0.2-0.7c0-0.1-0.1-0.2-0.2-0.3c-0.1-0.1-0.1-0.2-0.2-0.2
			s-0.2-0.1-0.3-0.2c-0.1,0-0.3-0.1-0.4-0.1c-0.2,0-0.4,0-0.6,0.1c-0.2,0-0.3,0.1-0.4,0.2c-0.1,0.1-0.2,0.2-0.3,0.4
			c-0.1,0.1-0.2,0.3-0.3,0.5h-1.1c0-0.3,0.1-0.6,0.2-0.9c0.1-0.3,0.3-0.5,0.5-0.7c0.2-0.2,0.5-0.3,0.8-0.5S141.5,137.1,142,137.1
			L142,137.1L142,137.1z"/>
		<path id="XMLID_1280_" class="st7" d="M146.7,137.1c0,0,0.1,0,0.2,0s0.2,0,0.4,0.1c0.1,0,0.3,0.1,0.5,0.2c0.2,0.1,0.3,0.2,0.4,0.4
			c0.1,0.2,0.2,0.4,0.3,0.6s0.1,0.5,0.1,0.9v5.2h-1.1v-5.2c0-0.2,0-0.4-0.1-0.5c0-0.1-0.1-0.1-0.1-0.2c0-0.1-0.1-0.1-0.2-0.2
			c-0.1,0-0.1-0.1-0.2-0.1c-0.1,0-0.2,0-0.3,0c-0.2,0-0.3,0-0.5,0.1c-0.1,0-0.2,0.1-0.3,0.1s-0.1,0.1-0.2,0.2c0,0.1-0.1,0.1-0.1,0.1
			l-0.8-0.8c0.1-0.1,0.3-0.3,0.4-0.4c0.2-0.1,0.3-0.2,0.6-0.3S146.4,137.1,146.7,137.1z"/>
		<path id="XMLID_1278_" class="st7" d="M155.8,137.2v4.6v0.1c0,0.1,0,0.2,0,0.4c0,0.2,0,0.4-0.1,0.6c-0.1,0.2-0.1,0.4-0.2,0.6
			s-0.3,0.4-0.5,0.6s-0.4,0.3-0.7,0.4s-0.6,0.2-1.1,0.2H153c-0.3,0-0.6-0.1-0.8-0.2c-0.1,0-0.2-0.1-0.3-0.1
			c-0.1-0.1-0.2-0.1-0.3-0.2c-0.1-0.1-0.2-0.2-0.2-0.3s-0.1-0.2-0.1-0.4v1h-1.1v-7.3h1.1v4.6c0,0,0,0.1,0,0.2c0,0.1,0,0.2,0.1,0.4
			s0.1,0.3,0.2,0.4c0.1,0.2,0.2,0.3,0.3,0.4c0.1,0.1,0.3,0.2,0.5,0.3c0.2,0.1,0.4,0.1,0.7,0.1c0,0,0.1,0,0.2,0s0.2,0,0.3-0.1
			c0.1,0,0.3-0.1,0.4-0.2c0.1-0.1,0.3-0.2,0.4-0.3s0.2-0.3,0.3-0.5s0.1-0.5,0.1-0.8v-4.6H155.8z"/>
		<path id="XMLID_1276_" class="st7" d="M53,154v4.6c0,0.3,0,0.6,0.1,0.8s0.2,0.4,0.3,0.5s0.3,0.2,0.4,0.3c0.1,0.1,0.3,0.1,0.4,0.2
			c0.1,0,0.2,0.1,0.3,0.1s0.2,0,0.2,0c0.3,0,0.5,0,0.7-0.1c0.2-0.1,0.4-0.2,0.5-0.3c0.1-0.1,0.2-0.3,0.3-0.4
			c0.1-0.2,0.1-0.3,0.2-0.4s0.1-0.3,0.1-0.4c0-0.1,0-0.2,0-0.2V154h1.1v7.3h-1.1v-1c0,0.1,0,0.3-0.1,0.4s-0.1,0.2-0.2,0.3
			c-0.1,0.1-0.2,0.1-0.3,0.2s-0.2,0.1-0.3,0.1c-0.3,0.1-0.5,0.1-0.8,0.2h-0.3c-0.4,0-0.8-0.1-1.1-0.2s-0.5-0.3-0.7-0.4
			s-0.3-0.4-0.5-0.6s-0.2-0.4-0.2-0.6c-0.1-0.2-0.1-0.4-0.1-0.6c0-0.2,0-0.3,0-0.4v-0.1V154H53z"/>
		<path id="XMLID_1271_" class="st7" d="M56.9,151v2.1h-1V151H56.9z"/>
		<path id="XMLID_1269_" class="st7" d="M60.1,153.9c0,0,0.1,0,0.2,0s0.2,0,0.4,0.1c0.1,0,0.3,0.1,0.5,0.2c0.2,0.1,0.3,0.2,0.4,0.4
			c0.1,0.2,0.2,0.4,0.3,0.6s0.1,0.5,0.1,0.9v5.2H61v-5.2c0-0.2,0-0.4-0.1-0.5c0-0.1-0.1-0.1-0.1-0.2c0-0.1-0.1-0.1-0.2-0.2
			c-0.1-0.1-0.1-0.1-0.2-0.1c-0.1,0-0.2,0-0.3,0c-0.2,0-0.3,0-0.5,0.1c-0.1,0-0.2,0.1-0.3,0.1s-0.1,0.1-0.2,0.2
			c0,0.1-0.1,0.1-0.1,0.1l-0.8-0.8c0.1-0.1,0.3-0.3,0.4-0.4c0.2-0.1,0.3-0.2,0.6-0.3S59.8,153.9,60.1,153.9z"/>
		<path id="XMLID_1267_" class="st7" d="M67.7,155.8l-0.5-0.3c-0.1-0.1-0.2-0.1-0.4-0.2c-0.1-0.1-0.3-0.1-0.4-0.2
			c-0.1-0.1-0.3-0.1-0.4-0.1c-0.1,0-0.2,0-0.3,0c-0.2,0-0.3,0-0.5,0c-0.2,0-0.3,0.1-0.4,0.2c-0.1,0.1-0.2,0.2-0.3,0.3
			c-0.1,0.1-0.1,0.3-0.1,0.5c0,0.2,0.1,0.4,0.2,0.5c0.1,0.1,0.3,0.2,0.5,0.3c0.2,0.1,0.4,0.1,0.7,0.2c0.2,0,0.5,0.1,0.7,0.1
			c0.2,0,0.5,0.1,0.7,0.2c0.2,0.1,0.4,0.3,0.6,0.4s0.3,0.4,0.4,0.6c0.1,0.2,0.2,0.5,0.2,0.7c0,0.4-0.1,0.7-0.2,1
			c-0.1,0.3-0.3,0.5-0.6,0.7c-0.2,0.2-0.5,0.3-0.8,0.4c-0.3,0.1-0.7,0.1-1,0.1c-0.5,0-0.9-0.1-1.3-0.2c-0.4-0.1-0.6-0.2-0.9-0.4
			c-0.3-0.2-0.5-0.3-0.7-0.5l0.7-0.7c0.1,0.1,0.2,0.2,0.3,0.3c0.1,0.1,0.3,0.2,0.5,0.2c0.2,0.1,0.4,0.1,0.6,0.2
			c0.2,0,0.4,0.1,0.7,0.1c0.2,0,0.4,0,0.6-0.1c0.2-0.1,0.3-0.1,0.5-0.2c0.1-0.1,0.2-0.2,0.3-0.4c0.1-0.1,0.1-0.3,0.1-0.5
			c0-0.2,0-0.3-0.1-0.4c-0.1-0.1-0.1-0.2-0.2-0.3c-0.1-0.1-0.2-0.1-0.2-0.1c-0.1,0-0.1,0-0.2-0.1c0,0-0.1,0-0.2,0s-0.3,0-0.4-0.1
			s-0.3-0.1-0.5-0.1s-0.3-0.1-0.4-0.1c-0.1,0-0.1,0-0.2-0.1c-0.1,0-0.2-0.1-0.3-0.1c-0.1-0.1-0.2-0.1-0.4-0.2
			c-0.1-0.1-0.2-0.2-0.3-0.4s-0.2-0.3-0.2-0.5c-0.1-0.2-0.1-0.4-0.1-0.7c0-0.4,0.1-0.7,0.2-1c0.1-0.3,0.3-0.5,0.6-0.7
			c0.2-0.2,0.5-0.3,0.8-0.4c0.3-0.1,0.6-0.1,0.9-0.1c0.3,0,0.6,0,0.8,0.1s0.5,0.1,0.6,0.2c0.2,0.1,0.4,0.2,0.6,0.3l0.6,0.4
			L67.7,155.8z"/>
		<path id="XMLID_1265_" class="st7" d="M65.8,151.5v0.5h2.7v1h-3.3c-0.1,0-0.2,0-0.3-0.1c-0.1,0-0.1-0.1-0.1-0.2
			c0-0.1-0.1-0.2-0.1-0.2v-1.1H65.8z"/>
		<path id="XMLID_1263_" class="st7" d="M69.4,161.3v-5.6c0.2-0.3,0.3-0.5,0.5-0.7c0.2-0.2,0.4-0.4,0.6-0.5s0.4-0.2,0.6-0.3
			s0.4-0.1,0.5-0.2c0.2,0,0.3-0.1,0.4-0.1c0.1,0,0.2,0,0.3,0h0.1c0.4,0,0.7,0.1,0.9,0.1c0.3,0.1,0.5,0.2,0.7,0.3
			c0.2,0.1,0.4,0.3,0.5,0.4c0.1,0.2,0.3,0.3,0.3,0.5c0.1,0.2,0.2,0.3,0.2,0.5c0,0.2,0.1,0.3,0.1,0.4c0,0.1,0,0.2,0,0.3
			c0,0.1,0,0.2,0,0.2v4.5H74v-4.5c0-0.3,0-0.5-0.1-0.7s-0.2-0.4-0.3-0.5s-0.3-0.2-0.4-0.3s-0.3-0.1-0.4-0.2c-0.1,0-0.2-0.1-0.3-0.1
			c-0.1,0-0.2,0-0.2,0c-0.2,0-0.4,0-0.6,0.1c-0.2,0-0.3,0.1-0.4,0.2s-0.2,0.2-0.3,0.3c-0.1,0.1-0.2,0.2-0.2,0.3
			c-0.1,0.3-0.2,0.5-0.2,0.9v4.5H69.4z"/>
		<path id="XMLID_1261_" class="st7" d="M81.5,161.3h-1.1V154h1.1V161.3z"/>
		<path id="XMLID_1259_" class="st7" d="M82.9,153.9H84v1.9h2.4c0.1,0,0.2-0.1,0.4-0.1c0.1-0.1,0.2-0.2,0.3-0.3
			c0.1-0.1,0.2-0.3,0.2-0.5v-1h1.1v1.1c0,0.1,0,0.2,0,0.3s-0.1,0.2-0.1,0.4c-0.1,0.1-0.1,0.3-0.2,0.4s-0.2,0.2-0.3,0.3
			c0.1,0.1,0.3,0.3,0.4,0.5c0.1,0.2,0.2,0.3,0.3,0.6s0.1,0.5,0.1,0.7v3.2h-1.1v-3.2c0-0.1,0-0.2-0.1-0.3c0-0.1-0.1-0.2-0.1-0.3
			c0-0.1-0.1-0.2-0.2-0.3c-0.1-0.1-0.2-0.2-0.3-0.2c-0.1-0.1-0.2-0.1-0.4-0.1H84v4.5h-1.1V153.9z"/>
		<path id="XMLID_1257_" class="st7" d="M95.6,154v4.6v0.1c0,0.1,0,0.2,0,0.4c0,0.2,0,0.4-0.1,0.6c-0.1,0.2-0.1,0.4-0.2,0.6
			s-0.3,0.4-0.5,0.6s-0.4,0.3-0.7,0.4s-0.6,0.2-1.1,0.2h-0.3c-0.3,0-0.6-0.1-0.8-0.2c-0.1,0-0.2-0.1-0.3-0.1
			c-0.1-0.1-0.2-0.1-0.3-0.2c-0.1-0.1-0.2-0.2-0.2-0.3s-0.1-0.2-0.1-0.4v1h-1.1V154H91v4.6c0,0,0,0.1,0,0.2c0,0.1,0,0.2,0.1,0.4
			s0.1,0.3,0.2,0.4c0.1,0.2,0.2,0.3,0.3,0.4c0.1,0.1,0.3,0.2,0.5,0.3c0.2,0.1,0.4,0.1,0.7,0.1c0,0,0.1,0,0.2,0s0.2,0,0.3-0.1
			c0.1,0,0.3-0.1,0.4-0.2c0.1-0.1,0.3-0.2,0.4-0.3s0.2-0.3,0.3-0.5s0.1-0.5,0.1-0.8V154H95.6z"/>
		<path id="XMLID_1255_" class="st7" d="M95.3,151.3v1.8h-4.5v-1h1.8v-0.8h1v0.8h0.6v-0.8H95.3z"/>
		<path id="XMLID_1253_" class="st7" d="M102.6,158.8c0,0.5-0.2,0.9-0.4,1.3c-0.1,0.2-0.2,0.3-0.3,0.5c-0.1,0.2-0.3,0.3-0.5,0.4
			c-0.2,0.1-0.4,0.2-0.7,0.3s-0.6,0.1-0.9,0.1c-0.4,0-0.7,0-0.9-0.1s-0.5-0.2-0.7-0.3c-0.2-0.1-0.4-0.3-0.5-0.4s-0.3-0.3-0.3-0.5
			c-0.2-0.4-0.3-0.8-0.4-1.3v-1.5h2.1v1h-1v0.5c0,0.2,0,0.4,0.1,0.5c0,0.2,0.1,0.3,0.2,0.4c0.1,0.1,0.2,0.2,0.3,0.3
			c0.1,0.1,0.2,0.1,0.3,0.2c0.3,0.1,0.6,0.2,0.9,0.2c0.3,0,0.6-0.1,0.9-0.2c0.1-0.1,0.2-0.1,0.3-0.2c0.1-0.1,0.2-0.2,0.3-0.3
			c0.1-0.1,0.2-0.2,0.2-0.4c0-0.2,0.1-0.3,0.1-0.5v-2.2c0-0.2,0-0.4-0.1-0.5c-0.1-0.1-0.1-0.3-0.2-0.4s-0.2-0.2-0.3-0.3
			c-0.1-0.1-0.2-0.1-0.3-0.2c-0.3-0.1-0.6-0.2-0.9-0.2h-0.1c-0.1,0-0.2,0-0.3,0c-0.2,0-0.3,0.1-0.5,0.2c-0.2,0.1-0.3,0.2-0.5,0.3
			s-0.3,0.3-0.3,0.6h-1.1c0-0.1,0.1-0.3,0.1-0.4s0.1-0.3,0.2-0.5s0.2-0.3,0.4-0.5c0.1-0.2,0.3-0.3,0.5-0.4c0.2-0.1,0.4-0.2,0.7-0.3
			c0.3-0.1,0.6-0.1,0.9-0.1c0.3,0,0.7,0,0.9,0.1s0.5,0.2,0.7,0.3c0.2,0.1,0.4,0.3,0.5,0.4c0.1,0.2,0.3,0.3,0.3,0.5
			c0.2,0.4,0.3,0.8,0.4,1.3V158.8z"/>
		<path id="XMLID_1251_" class="st7" d="M104.7,154v4.6c0,0.3,0,0.6,0.1,0.8s0.2,0.4,0.3,0.5s0.3,0.2,0.4,0.3
			c0.1,0.1,0.3,0.1,0.4,0.2c0.1,0,0.2,0.1,0.3,0.1s0.2,0,0.2,0c0.3,0,0.5,0,0.7-0.1c0.2-0.1,0.4-0.2,0.5-0.3
			c0.1-0.1,0.2-0.3,0.3-0.4c0.1-0.2,0.1-0.3,0.2-0.4s0.1-0.3,0.1-0.4c0-0.1,0-0.2,0-0.2V154h1.1v7.3h-1.1v-1c0,0.1,0,0.3-0.1,0.4
			s-0.1,0.2-0.2,0.3c-0.1,0.1-0.2,0.1-0.3,0.2s-0.2,0.1-0.3,0.1c-0.3,0.1-0.5,0.1-0.8,0.2h-0.3c-0.4,0-0.8-0.1-1.1-0.2
			s-0.5-0.3-0.7-0.4s-0.3-0.4-0.5-0.6s-0.2-0.4-0.2-0.6c-0.1-0.2-0.1-0.4-0.1-0.6c0-0.2,0-0.3,0-0.4v-0.1V154H104.7z"/>
		<path id="XMLID_1249_" class="st7" d="M110.8,161.3v-5.6c0.2-0.3,0.3-0.5,0.5-0.7c0.2-0.2,0.4-0.4,0.6-0.5s0.4-0.2,0.6-0.3
			s0.4-0.1,0.5-0.2c0.2,0,0.3-0.1,0.4-0.1c0.1,0,0.2,0,0.3,0h0.1c0.4,0,0.7,0.1,0.9,0.1c0.3,0.1,0.5,0.2,0.7,0.3
			c0.2,0.1,0.4,0.3,0.5,0.4c0.1,0.2,0.3,0.3,0.3,0.5c0.1,0.2,0.2,0.3,0.2,0.5c0,0.2,0.1,0.3,0.1,0.4c0,0.1,0,0.2,0,0.3
			c0,0.1,0,0.2,0,0.2v4.5h-1.1v-4.5c0-0.3,0-0.5-0.1-0.7s-0.2-0.4-0.3-0.5s-0.3-0.2-0.4-0.3s-0.3-0.1-0.4-0.2
			c-0.1,0-0.2-0.1-0.3-0.1c-0.1,0-0.2,0-0.2,0c-0.2,0-0.4,0-0.6,0.1c-0.2,0-0.3,0.1-0.4,0.2s-0.2,0.2-0.3,0.3
			c-0.1,0.1-0.2,0.2-0.2,0.3c-0.1,0.3-0.2,0.5-0.2,0.9v4.5H110.8z"/>
		<path id="XMLID_1247_" class="st7" d="M114.3,151.5v0.5h2.7v1h-3.3c-0.1,0-0.2,0-0.3-0.1c-0.1,0-0.1-0.1-0.1-0.2
			c0-0.1-0.1-0.2-0.1-0.2v-1.1H114.3z"/>
		<path id="XMLID_1245_" class="st7" d="M123.6,153.9v4.8c0,0.5-0.2,0.9-0.4,1.3c-0.1,0.2-0.2,0.3-0.3,0.5s-0.3,0.3-0.5,0.4
			c-0.2,0.1-0.4,0.2-0.7,0.3s-0.6,0.1-0.9,0.1c-0.4,0-0.7,0-0.9-0.1s-0.5-0.2-0.7-0.3c-0.2-0.1-0.4-0.3-0.5-0.4s-0.3-0.3-0.3-0.5
			c-0.2-0.4-0.3-0.8-0.4-1.3v-4.8h1.1v4.8c0,0.2,0,0.4,0.1,0.5c0,0.2,0.1,0.3,0.2,0.4c0.1,0.1,0.2,0.2,0.3,0.3
			c0.1,0.1,0.2,0.1,0.3,0.2c0.3,0.1,0.6,0.2,0.9,0.2c0.3,0,0.6-0.1,0.9-0.2c0.1-0.1,0.2-0.1,0.3-0.2c0.1-0.1,0.2-0.2,0.3-0.3
			c0.1-0.1,0.2-0.2,0.2-0.4c0-0.2,0.1-0.3,0.1-0.5v-4.8H123.6z"/>
		<path id="XMLID_1243_" class="st7" d="M130.3,154.7c0.1,0.2,0.3,0.4,0.3,0.6c0.1,0.2,0.1,0.4,0.2,0.7v5.3h-1.1v-4.9
			c0-0.3-0.1-0.6-0.2-0.8c-0.1-0.2-0.3-0.4-0.4-0.5l-1.2,0.8l-1.2-0.8c-0.2,0.1-0.3,0.3-0.4,0.5c-0.1,0.2-0.2,0.5-0.2,0.8v2.6
			c0,0.2,0.1,0.5,0.2,0.6c0,0.1,0.1,0.2,0.2,0.2c0.1,0.1,0.1,0.1,0.2,0.2c0.1,0.1,0.2,0.1,0.3,0.1c0.1,0,0.3,0.1,0.4,0.1h0.8v1h-1.5
			c-0.3,0-0.6-0.1-0.8-0.3c-0.1-0.1-0.2-0.2-0.3-0.3c-0.1-0.1-0.2-0.2-0.3-0.4c-0.1-0.2-0.1-0.3-0.2-0.5c0-0.2-0.1-0.4-0.1-0.7V156
			c0.1-0.5,0.2-0.9,0.5-1.3c0.3-0.4,0.6-0.6,1.1-0.8l1.3,0.8l1.3-0.8C129.6,154.1,130,154.3,130.3,154.7z"/>
		<path id="XMLID_1239_" class="st7" d="M129.5,163h-0.5v-1h1c0.1,0,0.3,0.1,0.4,0.2c0.1,0.1,0.2,0.2,0.2,0.4v2.2h-1V163z"/>
		<path id="XMLID_1237_" class="st7" d="M131.2,152.1v1h-2.5c0-0.3,0-0.5,0-0.6c0-0.2-0.1-0.3-0.1-0.3c0-0.1-0.1-0.1-0.2-0.2
			l-0.9,0.9l-0.9-0.9c-0.1,0-0.1,0.1-0.2,0.2c0,0.1-0.1,0.2-0.1,0.3c0,0.2,0,0.4,0,0.6h-1c0-0.3,0-0.5,0.1-0.8
			c0-0.3,0.1-0.5,0.2-0.7c0.1-0.2,0.3-0.4,0.5-0.6c0.2-0.2,0.5-0.2,0.8-0.3l0.6,0.6l0.6-0.6c0.2,0,0.4,0,0.6,0.1
			c0.2,0.1,0.3,0.2,0.4,0.3c0.1,0.1,0.2,0.3,0.3,0.4s0.1,0.3,0.2,0.5H131.2z"/>
		<path id="XMLID_1235_" class="st7" d="M132.2,161.3v-5.6c0.2-0.3,0.3-0.5,0.5-0.7c0.2-0.2,0.4-0.4,0.6-0.5s0.4-0.2,0.6-0.3
			s0.4-0.1,0.5-0.2c0.2,0,0.3-0.1,0.4-0.1c0.1,0,0.2,0,0.3,0h0.1c0.4,0,0.7,0.1,0.9,0.1c0.3,0.1,0.5,0.2,0.7,0.3
			c0.2,0.1,0.4,0.3,0.5,0.4c0.1,0.2,0.3,0.3,0.3,0.5c0.1,0.2,0.2,0.3,0.2,0.5c0,0.2,0.1,0.3,0.1,0.4c0,0.1,0,0.2,0,0.3
			c0,0.1,0,0.2,0,0.2v4.5h-1.1v-4.5c0-0.3,0-0.5-0.1-0.7s-0.2-0.4-0.3-0.5s-0.3-0.2-0.4-0.3s-0.3-0.1-0.4-0.2
			c-0.1,0-0.2-0.1-0.3-0.1c-0.1,0-0.2,0-0.2,0c-0.2,0-0.4,0-0.6,0.1c-0.2,0-0.3,0.1-0.4,0.2s-0.2,0.2-0.3,0.3
			c-0.1,0.1-0.2,0.2-0.2,0.3c-0.1,0.3-0.2,0.5-0.2,0.9v4.5H132.2z"/>
		<path id="XMLID_1233_" class="st7" d="M144.5,154.7c0.1,0.2,0.3,0.4,0.3,0.6c0.1,0.2,0.1,0.4,0.2,0.7v5.3H144v-4.9
			c0-0.3-0.1-0.6-0.2-0.8c-0.1-0.2-0.3-0.4-0.4-0.5l-1.2,0.8l-1.2-0.8c-0.2,0.1-0.3,0.3-0.4,0.5c-0.1,0.2-0.2,0.5-0.2,0.8v2.6
			c0,0.2,0.1,0.5,0.2,0.6c0,0.1,0.1,0.2,0.2,0.2c0.1,0.1,0.1,0.1,0.2,0.2c0.1,0.1,0.2,0.1,0.3,0.1c0.1,0,0.3,0.1,0.4,0.1h0.8v1H141
			c-0.3,0-0.6-0.1-0.8-0.3c-0.1-0.1-0.2-0.2-0.3-0.3c-0.1-0.1-0.2-0.2-0.3-0.4c-0.1-0.2-0.1-0.3-0.2-0.5c0-0.2-0.1-0.4-0.1-0.7V156
			c0.1-0.5,0.2-0.9,0.5-1.3c0.3-0.4,0.6-0.6,1.1-0.8l1.3,0.8l1.3-0.8C143.9,154.1,144.3,154.3,144.5,154.7z"/>
		<path id="XMLID_1231_" class="st7" d="M147.5,153.9c0,0,0.1,0,0.2,0s0.2,0,0.4,0.1c0.1,0,0.3,0.1,0.5,0.2c0.2,0.1,0.3,0.2,0.4,0.4
			c0.1,0.2,0.2,0.4,0.3,0.6s0.1,0.5,0.1,0.9v5.2h-1.1v-5.2c0-0.2,0-0.4-0.1-0.5c0-0.1-0.1-0.1-0.1-0.2c0-0.1-0.1-0.1-0.2-0.2
			c-0.1-0.1-0.1-0.1-0.2-0.1c-0.1,0-0.2,0-0.3,0c-0.2,0-0.3,0-0.5,0.1c-0.1,0-0.2,0.1-0.3,0.1s-0.1,0.1-0.2,0.2
			c0,0.1-0.1,0.1-0.1,0.1l-0.8-0.8c0.1-0.1,0.3-0.3,0.4-0.4c0.2-0.1,0.3-0.2,0.6-0.3S147.2,153.9,147.5,153.9z"/>
	</g>
</g>
</svg>
