<?xml version="1.0" encoding="utf-8"?>
<!-- Generator: Adobe Illustrator 19.0.0, SVG Export Plug-In . SVG Version: 6.00 Build 0)  -->
<svg version="1.1" id="Layer_1" xmlns="http://www.w3.org/2000/svg" xmlns:xlink="http://www.w3.org/1999/xlink" x="0px" y="0px"
	 viewBox="0 0 462.8 314.1" style="enable-background:new 0 0 462.8 314.1;" xml:space="preserve">
<style type="text/css">
	.st0{fill:none;stroke:#F9FAFC;stroke-miterlimit:10;}
	.st1{fill:none;stroke:#0A6C89;stroke-width:5;stroke-miterlimit:10;}
	.st2{fill:#F9FAFC;}
	.st3{fill:none;stroke:#BCBEC0;stroke-width:0.2;stroke-miterlimit:10;}
	.st4{fill:#096B88;}
	.st5{fill:#FFC711;}
	.st6{fill:none;stroke:#4782B9;stroke-width:5;stroke-miterlimit:10;}
	.st7{fill:none;stroke:#F5B21B;stroke-width:5;stroke-miterlimit:10;}
	.st8{fill:none;stroke:#EA4B4C;stroke-width:5;stroke-miterlimit:10;}
	.st9{fill:none;stroke:#4BC2C6;stroke-width:3;stroke-linecap:round;stroke-linejoin:round;stroke-miterlimit:10;}
	.st10{fill:#F0D8BE;}
	.st11{fill:#1C4D60;}
	.st12{fill:#FFFFFF;}
	.st13{fill:#3B5974;}
	.st14{fill:none;stroke:#1C4D60;stroke-width:0.5;stroke-linecap:round;stroke-linejoin:round;stroke-miterlimit:10;}
	.st15{fill:#D9DBD5;}
	.st16{fill:none;stroke:#096B88;stroke-width:0.2;stroke-miterlimit:10;}
	.st17{fill:none;stroke:#88CDC4;stroke-width:2;stroke-miterlimit:10;}
	.st18{fill:none;stroke:#4BC2C6;stroke-miterlimit:10;}
	.st19{fill:#88CDC4;}
	.st20{fill:#F0BFA5;}
	.st21{opacity:0.36;fill:#096B88;}
	.st22{font-family:'CircularStd-Book';}
	.st23{font-size:14.834px;}
	.st24{opacity:0.48;fill:none;stroke:#096B88;stroke-width:0.4;stroke-miterlimit:10;stroke-dasharray:2;}
	.st25{opacity:0.26;fill:#FFFFFF;}
</style>
<g id="XMLID_164_">
	<line id="XMLID_183_" class="st0" x1="80.7" y1="179.9" x2="154.2" y2="179.9"/>
	<line id="XMLID_182_" class="st0" x1="157" y1="179.9" x2="171.5" y2="179.9"/>
	<line id="XMLID_181_" class="st0" x1="171.5" y1="219.9" x2="98" y2="219.9"/>
	<line id="XMLID_180_" class="st0" x1="95.2" y1="219.9" x2="80.7" y2="219.9"/>
	<line id="XMLID_179_" class="st0" x1="157" y1="199.9" x2="171.5" y2="199.9"/>
	<line id="XMLID_178_" class="st0" x1="114.4" y1="189.9" x2="171.5" y2="189.9"/>
	<line id="XMLID_177_" class="st0" x1="80.7" y1="199.9" x2="154.2" y2="199.9"/>
	<line id="XMLID_176_" class="st0" x1="132.9" y1="209.9" x2="171.5" y2="209.9"/>
	<line id="XMLID_175_" class="st0" x1="80.7" y1="119.9" x2="171.6" y2="119.9"/>
	<line id="XMLID_174_" class="st0" x1="80.7" y1="129.9" x2="154.2" y2="129.9"/>
	<line id="XMLID_173_" class="st0" x1="157" y1="129.9" x2="171.5" y2="129.9"/>
	<line id="XMLID_172_" class="st0" x1="171.5" y1="169.9" x2="98" y2="169.9"/>
	<line id="XMLID_171_" class="st0" x1="95.2" y1="169.9" x2="80.7" y2="169.9"/>
	<line id="XMLID_170_" class="st0" x1="157" y1="149.9" x2="171.5" y2="149.9"/>
	<line id="XMLID_169_" class="st0" x1="80.7" y1="139.9" x2="111.8" y2="139.9"/>
	<line id="XMLID_168_" class="st0" x1="114.4" y1="139.9" x2="171.5" y2="139.9"/>
	<line id="XMLID_167_" class="st0" x1="80.7" y1="149.9" x2="154.2" y2="149.9"/>
	<line id="XMLID_166_" class="st0" x1="132.9" y1="159.9" x2="171.5" y2="159.9"/>
	<line id="XMLID_165_" class="st0" x1="80.7" y1="159.9" x2="129.7" y2="159.9"/>
</g>
<g id="XMLID_152_">
	<path id="XMLID_163_" class="st1" d="M145.7,224.2l-69.9,69.9c-4,4-10.6,4-14.6,0l0,0c-4-4-4-10.6,0-14.6l69.9-69.9L145.7,224.2z"
		/>
	<path id="XMLID_162_" class="st2" d="M133.3,209.4l-71.8,71.8c-2.3,2.3-3.1,5.7-2,8.7h0c0.8,2.3,2.5,4.2,4.8,5.1l0.9,0.4
		c1.8,0.8,3.9,0.9,5.8,0.3l1.2-0.4c1.3-0.4,2.5-1.1,3.5-2.1l70.7-70.7L133.3,209.4z"/>
	<g id="XMLID_153_">
		<line id="XMLID_161_" class="st3" x1="134.6" y1="210.7" x2="59" y2="286.3"/>
		<line id="XMLID_160_" class="st3" x1="136.3" y1="212.4" x2="59.3" y2="289.3"/>
		<line id="XMLID_159_" class="st3" x1="139.2" y1="215.3" x2="61.4" y2="293.1"/>
		<line id="XMLID_158_" class="st3" x1="141.9" y1="218" x2="64.7" y2="295.2"/>
		<line id="XMLID_157_" class="st3" x1="143.5" y1="219.7" x2="67.2" y2="296"/>
		<line id="XMLID_156_" class="st3" x1="145.2" y1="221.3" x2="70.9" y2="295.7"/>
		<line id="XMLID_155_" class="st3" x1="137.9" y1="214" x2="60.3" y2="291.7"/>
		<line id="XMLID_154_" class="st3" x1="140.7" y1="216.9" x2="63.1" y2="294.5"/>
	</g>
</g>
<g id="XMLID_145_">
	<path id="XMLID_151_" class="st4" d="M4.9,302.5V292c0,0-1.1-4.2,3.5-4.2c1.5,0,9.8,0,20.4,0c22.2,0,54.5,0,54.5,0
		s9.5,1.4,9.8,10.9c0,2.8,0,3.9,0,3.9H4.9z"/>
	<path id="XMLID_150_" class="st4" d="M28.8,287.8v-11.6l-5.3-3.5v-9.1c0,0-5.3-3.5,0-9.1C21.2,244.2,2.5,149.3,2.5,149.3H0
		l4.2-55.2L28.8,125l-17.4,16.7L7,145.1l21.8,107.6l4.2-1.1L19.3,177l-6.7-37.3l3.9-3.2l20.7,114.6l7-0.7c0,0,7,7.4-6,11.6
		c1.4,4.9,2.5,8.8,2.5,8.8l-6.7,3.5l0.7,5.6l4.9-0.4l1.4-3.5l1.1,4.9l-7.4,0.7l0.7,6H28.8z"/>
	<polygon id="XMLID_149_" class="st4" points="10.8,102.4 13.4,105.6 118.6,29.7 115.9,27.9 	"/>
	<polygon id="XMLID_148_" class="st4" points="21.6,116 24.8,119.9 122.3,35.4 118.3,31.5 	"/>
	<circle id="XMLID_147_" class="st5" cx="119.1" cy="15.8" r="4"/>
	<path id="XMLID_146_" class="st4" d="M114.6,27.1l-1.4-1.4c0,0-1.2-3,0-4.6c1.2-1.6,13.2-10.7,13.2-10.7s1.1-1.8,3.9,1.6
		s9.3,11.6,9.3,11.6L185.3,45l-55.7,43.8l-8.8-53.1L114.6,27.1z"/>
</g>
<g id="XMLID_133_">
	<path id="XMLID_144_" class="st6" d="M175.1,206.1l-44.9,88c-2.6,5.1-8.8,7.1-13.9,4.5h0c-5.1-2.6-7.1-8.8-4.5-13.9l44.9-88
		L175.1,206.1z"/>
	<path id="XMLID_143_" class="st2" d="M158.7,195.8l-46.1,90.4c-1.5,2.9-1.2,6.4,0.8,9h0c1.5,2,3.7,3.2,6.2,3.4l1,0.1
		c2,0.2,3.9-0.4,5.6-1.5l1.1-0.7c1.1-0.8,2.1-1.9,2.7-3.1l45.4-89.1L158.7,195.8z"/>
	<g id="XMLID_134_">
		<line id="XMLID_142_" class="st3" x1="160.4" y1="196.7" x2="111.8" y2="292"/>
		<line id="XMLID_141_" class="st3" x1="162.4" y1="197.8" x2="113" y2="294.7"/>
		<line id="XMLID_140_" class="st3" x1="166.1" y1="199.6" x2="116.2" y2="297.6"/>
		<line id="XMLID_139_" class="st3" x1="169.5" y1="201.4" x2="119.9" y2="298.6"/>
		<line id="XMLID_138_" class="st3" x1="171.6" y1="202.4" x2="122.6" y2="298.6"/>
		<line id="XMLID_137_" class="st3" x1="173.7" y1="203.5" x2="126" y2="297.2"/>
		<line id="XMLID_136_" class="st3" x1="164.6" y1="198.8" x2="114.7" y2="296.6"/>
		<line id="XMLID_135_" class="st3" x1="168.1" y1="200.6" x2="118.2" y2="298.4"/>
	</g>
</g>
<g id="XMLID_121_">
	<path id="XMLID_132_" class="st7" d="M289.8,300.1l-119.5,0c-5.7,0-10.3-4.6-10.3-10.3l0-11c0-5.7,4.6-10.3,10.3-10.3l119.5,0
		L289.8,300.1z"/>
	<path id="XMLID_131_" class="st2" d="M291.8,270.5l-120.8,0c-3.9,0-7.4,2.8-9.1,7.3v0c-1.3,3.4-1.4,7.3-0.3,10.8l0.4,1.4
		c0.9,2.8,2.5,5.1,4.6,6.5l1.4,0.9c1.5,1,3.1,1.5,4.7,1.5l119,0L291.8,270.5z"/>
	<g id="XMLID_122_">
		<line id="XMLID_130_" class="st3" x1="291.8" y1="273.5" x2="164.6" y2="273.5"/>
		<line id="XMLID_129_" class="st3" x1="291.8" y1="277" x2="162.3" y2="277"/>
		<line id="XMLID_128_" class="st3" x1="291.8" y1="283.3" x2="160.9" y2="283.4"/>
		<line id="XMLID_127_" class="st3" x1="291.8" y1="289.1" x2="161.8" y2="289.1"/>
		<line id="XMLID_126_" class="st3" x1="291.8" y1="292.8" x2="163.4" y2="292.8"/>
		<line id="XMLID_125_" class="st3" x1="291.8" y1="296.4" x2="166.7" y2="296.4"/>
		<line id="XMLID_124_" class="st3" x1="291.8" y1="280.6" x2="161.1" y2="280.6"/>
		<line id="XMLID_123_" class="st3" x1="291.8" y1="286.7" x2="161.2" y2="286.7"/>
	</g>
</g>
<g id="XMLID_109_">
	<path id="XMLID_120_" class="st8" d="M255,264.1l-85.3,0c-5.5,0-9.9-4.4-9.9-9.9v0c0-5.5,4.4-9.9,9.9-9.9l85.3,0L255,264.1z"/>
	<path id="XMLID_119_" class="st2" d="M256.5,245.6l-88.5,0c-2.8,0-5.4,1.8-6.7,4.5v0c-0.9,2.1-1,4.6-0.2,6.7l0.3,0.8
		c0.7,1.8,1.9,3.2,3.4,4.1l1,0.6c1.1,0.6,2.3,0.9,3.5,0.9l87.2,0L256.5,245.6z"/>
	<g id="XMLID_110_">
		<line id="XMLID_118_" class="st3" x1="256.5" y1="247.5" x2="163.3" y2="247.5"/>
		<line id="XMLID_117_" class="st3" x1="256.5" y1="249.6" x2="161.6" y2="249.7"/>
		<line id="XMLID_116_" class="st3" x1="256.5" y1="253.6" x2="160.6" y2="253.7"/>
		<line id="XMLID_115_" class="st3" x1="256.5" y1="257.2" x2="161.3" y2="257.3"/>
		<line id="XMLID_114_" class="st3" x1="256.5" y1="259.5" x2="162.4" y2="259.5"/>
		<line id="XMLID_113_" class="st3" x1="256.5" y1="261.8" x2="164.9" y2="261.8"/>
		<line id="XMLID_112_" class="st3" x1="256.5" y1="251.9" x2="160.8" y2="251.9"/>
		<line id="XMLID_111_" class="st3" x1="256.5" y1="255.7" x2="160.8" y2="255.7"/>
	</g>
</g>
<g id="XMLID_97_">
	<path id="XMLID_108_" class="st9" d="M191.4,200.4l83.4,0c5.5,0,9.9,4.4,9.9,9.9v0c0,5.5-4.4,9.9-9.9,9.9l-83.4,0L191.4,200.4z"/>
	<path id="XMLID_107_" class="st2" d="M189.9,218.8l86.7,0c2.8,0,5.3-1.8,6.5-4.5l0,0c0.9-2.1,1-4.6,0.2-6.7l-0.3-0.8
		c-0.6-1.8-1.8-3.2-3.3-4.1l-1-0.6c-1-0.6-2.2-0.9-3.4-0.9l-85.4,0L189.9,218.8z"/>
	<g id="XMLID_98_">
		<line id="XMLID_106_" class="st3" x1="189.9" y1="217" x2="281.2" y2="216.9"/>
		<line id="XMLID_105_" class="st3" x1="189.9" y1="214.8" x2="282.9" y2="214.8"/>
		<line id="XMLID_104_" class="st3" x1="189.9" y1="210.8" x2="283.9" y2="210.8"/>
		<line id="XMLID_103_" class="st3" x1="189.9" y1="207.2" x2="283.2" y2="207.2"/>
		<line id="XMLID_102_" class="st3" x1="189.9" y1="204.9" x2="282.1" y2="204.9"/>
		<line id="XMLID_101_" class="st3" x1="189.9" y1="202.6" x2="279.7" y2="202.6"/>
		<line id="XMLID_100_" class="st3" x1="189.9" y1="212.5" x2="283.7" y2="212.5"/>
		<line id="XMLID_99_" class="st3" x1="189.9" y1="208.7" x2="283.7" y2="208.7"/>
	</g>
</g>
<path id="XMLID_96_" class="st10" d="M288.7,243.1l-114.6,0c-3.6,0-6.6-2.9-6.6-6.6l0-6.6c0-3.6,2.9-6.6,6.6-6.6l115.3,0
	c1.9,0,3.5,1.6,3.5,3.5l0,11.9C292.9,241.2,291,243.1,288.7,243.1z"/>
<g id="XMLID_46_">
	<circle id="XMLID_95_" class="st5" cx="264.2" cy="113.4" r="40.4"/>
	<g id="XMLID_62_">
		<path id="XMLID_94_" class="st11" d="M259.8,123.9l-12,0.6l-0.3-14.1c0,0-1.5-10.8-1.3-15c0.1-4.2,3.9-9.8,8.3-10.7
			c3.8-0.8,10.9-0.1,14.7,0c1.2,0,2.3,0.4,3.3,1.1c2.4,1.6,6.4,5.8,6.9,9.7c0.5,3.8,1,29.1,1,29.1L259.8,123.9z"/>
		<path id="XMLID_93_" class="st12" d="M255.5,130.9c0,0,5.3-5.3,5.1-7.3s-8.1-5.3-9.6-11.8c-3.3,0-5-2.3-4.8-7.8s3-3.5,3-3.5v-6.3
			c0,0,2.3-7,8-7c5.8,0,13.8,0,13.8,0s4,3.3,6,9.5c0,3.5,0,3.5,0,3.5s2.9-0.8,2.9,2.1c0,3.9-0.2,9.3-5.2,9.3
			c-0.6,4.8-4.9,9-7.9,11.2c-1.3,3.8,3.9,7.3,3.9,7.3l-8.2,6.2L255.5,130.9z"/>
		<path id="XMLID_92_" class="st13" d="M290.3,144.2c0,0-4-15.6-18-15.6c-6,7.7-15.3,5.3-18,0c-11.3,0-15.9,14-15.4,16.4
			C248,152.9,271.1,161,290.3,144.2z"/>
		<path id="XMLID_91_" class="st11" d="M279.5,96.6h-33.2c0,0,3.5-8.5,6.1-10.8c2.5-2.2,18.3-3.2,22.2,1.5S279.5,96.6,279.5,96.6z"
			/>
		<line id="XMLID_90_" class="st14" x1="275.6" y1="95.7" x2="275.6" y2="100.5"/>
		<line id="XMLID_89_" class="st14" x1="276.6" y1="95.7" x2="276.6" y2="100.5"/>
		<line id="XMLID_88_" class="st14" x1="265.6" y1="95.7" x2="265.6" y2="100.5"/>
		<line id="XMLID_87_" class="st14" x1="267.6" y1="95.7" x2="267.6" y2="100.5"/>
		<line id="XMLID_86_" class="st14" x1="268.6" y1="95.7" x2="268.6" y2="100.5"/>
		<line id="XMLID_85_" class="st14" x1="269.6" y1="95.7" x2="269.6" y2="100.5"/>
		<line id="XMLID_84_" class="st14" x1="260.6" y1="95.7" x2="260.6" y2="100.5"/>
		<line id="XMLID_83_" class="st14" x1="262.6" y1="95.7" x2="262.6" y2="100.5"/>
		<line id="XMLID_82_" class="st14" x1="263.6" y1="95.7" x2="263.6" y2="100.5"/>
		<line id="XMLID_81_" class="st14" x1="264.6" y1="95.7" x2="264.6" y2="100.5"/>
		<line id="XMLID_80_" class="st14" x1="266.6" y1="95.7" x2="266.6" y2="100.5"/>
		<line id="XMLID_79_" class="st14" x1="255.6" y1="95.7" x2="255.6" y2="100.5"/>
		<line id="XMLID_78_" class="st14" x1="256.6" y1="95.7" x2="256.6" y2="100.5"/>
		<line id="XMLID_77_" class="st14" x1="257.6" y1="95.7" x2="257.6" y2="100.5"/>
		<line id="XMLID_76_" class="st14" x1="258.6" y1="95.7" x2="258.6" y2="100.5"/>
		<line id="XMLID_75_" class="st14" x1="259.6" y1="95.7" x2="259.6" y2="100.5"/>
		<line id="XMLID_74_" class="st14" x1="261.6" y1="95.7" x2="261.6" y2="100.5"/>
		<line id="XMLID_73_" class="st14" x1="250.6" y1="95.7" x2="250.6" y2="100.5"/>
		<line id="XMLID_72_" class="st14" x1="249.6" y1="95.7" x2="249.6" y2="100.5"/>
		<line id="XMLID_71_" class="st14" x1="251.6" y1="95.7" x2="251.6" y2="100.5"/>
		<line id="XMLID_70_" class="st14" x1="252.6" y1="95.7" x2="252.6" y2="100.5"/>
		<line id="XMLID_69_" class="st14" x1="253.6" y1="95.7" x2="253.6" y2="100.5"/>
		<line id="XMLID_68_" class="st14" x1="254.6" y1="95.7" x2="254.6" y2="100.5"/>
		<line id="XMLID_67_" class="st14" x1="270.6" y1="95.7" x2="270.6" y2="100.5"/>
		<line id="XMLID_66_" class="st14" x1="271.6" y1="95.7" x2="271.6" y2="100.5"/>
		<line id="XMLID_65_" class="st14" x1="272.6" y1="95.7" x2="272.6" y2="100.5"/>
		<line id="XMLID_64_" class="st14" x1="273.6" y1="95.7" x2="273.6" y2="100.5"/>
		<line id="XMLID_63_" class="st14" x1="274.6" y1="95.7" x2="274.6" y2="100.5"/>
	</g>
	<g id="XMLID_47_">
		<g id="XMLID_59_">
			<path id="XMLID_61_" class="st15" d="M330.8,92.7H295c-6.6,0-12-5.4-12-12v-9c0-6.6,5.4-12,12-12h35.8c6.6,0,12,5.4,12,12v9
				C342.8,87.3,337.4,92.7,330.8,92.7z"/>
			<polygon id="XMLID_60_" class="st15" points="283.1,81.9 274.6,91.6 292.4,92.5 			"/>
		</g>
		<g id="XMLID_48_">
			<line id="XMLID_58_" class="st16" x1="292.4" y1="67.6" x2="302.8" y2="67.6"/>
			<line id="XMLID_57_" class="st16" x1="292.4" y1="73.6" x2="295.8" y2="73.6"/>
			<line id="XMLID_56_" class="st16" x1="305.4" y1="67.6" x2="332.7" y2="67.6"/>
			<line id="XMLID_55_" class="st16" x1="292.4" y1="70.6" x2="332.7" y2="70.6"/>
			<line id="XMLID_54_" class="st16" x1="292.4" y1="79.6" x2="332.7" y2="79.6"/>
			<line id="XMLID_53_" class="st16" x1="292.4" y1="82.6" x2="332.7" y2="82.6"/>
			<line id="XMLID_52_" class="st16" x1="292.4" y1="85.6" x2="307" y2="85.6"/>
			<line id="XMLID_51_" class="st16" x1="297.6" y1="73.6" x2="332.7" y2="73.6"/>
			<line id="XMLID_50_" class="st16" x1="310.2" y1="76.6" x2="332.7" y2="76.6"/>
			<line id="XMLID_49_" class="st16" x1="292.2" y1="76.6" x2="309" y2="76.6"/>
		</g>
	</g>
</g>
<path id="XMLID_45_" class="st4" d="M424.5,302.5h-95.8c-5.3,0-9.7-4.3-9.7-9.7V156.8c0-5.3,4.3-9.7,9.7-9.7h95.8
	c5.3,0,9.7,4.3,9.7,9.7v136.1C434.2,298.2,429.9,302.5,424.5,302.5z"/>
<rect id="XMLID_44_" x="328.2" y="164.5" class="st2" width="96.7" height="121.9"/>
<line id="XMLID_43_" class="st17" x1="340.2" y1="147.1" x2="319.1" y2="187.1"/>
<rect id="XMLID_42_" x="339.5" y="187.1" class="st18" width="19.3" height="22.2"/>
<rect id="XMLID_41_" x="339.5" y="217.1" class="st18" width="19.3" height="22.2"/>
<rect id="XMLID_40_" x="339.5" y="247.1" class="st18" width="19.3" height="22.2"/>
<line id="XMLID_39_" class="st18" x1="373.5" y1="190.9" x2="412.2" y2="190.9"/>
<line id="XMLID_38_" class="st18" x1="373.5" y1="218.9" x2="412.2" y2="218.9"/>
<line id="XMLID_37_" class="st18" x1="373.5" y1="227.9" x2="412.2" y2="227.9"/>
<line id="XMLID_36_" class="st18" x1="373.5" y1="236.9" x2="389.9" y2="236.9"/>
<line id="XMLID_35_" class="st18" x1="392.5" y1="236.9" x2="412.2" y2="236.9"/>
<line id="XMLID_34_" class="st18" x1="412.2" y1="200.4" x2="384.6" y2="200.4"/>
<line id="XMLID_33_" class="st18" x1="399.2" y1="209.4" x2="374.5" y2="209.4"/>
<line id="XMLID_32_" class="st18" x1="412.2" y1="209.4" x2="400.9" y2="209.4"/>
<line id="XMLID_31_" class="st18" x1="373.5" y1="200.5" x2="382.9" y2="200.5"/>
<line id="XMLID_30_" class="st18" x1="373.5" y1="245.9" x2="412.2" y2="245.9"/>
<line id="XMLID_29_" class="st18" x1="412.2" y1="255.4" x2="384.6" y2="255.4"/>
<line id="XMLID_28_" class="st18" x1="399.2" y1="264.4" x2="374.5" y2="264.4"/>
<line id="XMLID_27_" class="st18" x1="412.2" y1="264.4" x2="400.9" y2="264.4"/>
<line id="XMLID_26_" class="st18" x1="373.5" y1="255.5" x2="382.9" y2="255.5"/>
<g id="XMLID_23_">
	<line id="XMLID_25_" class="st9" x1="342.6" y1="195.7" x2="348.5" y2="207.3"/>
	<line id="XMLID_24_" class="st9" x1="348.5" y1="207.3" x2="366.4" y2="187.1"/>
</g>
<g id="XMLID_20_">
	<line id="XMLID_22_" class="st9" x1="342.6" y1="224.7" x2="348.5" y2="236.3"/>
	<line id="XMLID_21_" class="st9" x1="348.5" y1="236.3" x2="366.4" y2="216.1"/>
</g>
<g id="XMLID_17_">
	<line id="XMLID_19_" class="st9" x1="342.6" y1="254.7" x2="348.5" y2="266.3"/>
	<line id="XMLID_18_" class="st9" x1="348.5" y1="266.3" x2="366.4" y2="246.1"/>
</g>
<polygon id="XMLID_16_" class="st19" points="404.2,160.3 352.5,160.3 348.5,147.1 408.2,147.1 "/>
<path id="XMLID_15_" class="st20" d="M167.6,234.8h125.4c0,0,2,8.3-5.6,8.3c-8.2,0-113.9,0-113.9,0S166.7,242.1,167.6,234.8z"/>
<text id="XMLID_14_" transform="matrix(1 0 0 1 199.6954 238.3696)" class="st21 st22 st23">SURVEY</text>
<path id="XMLID_11_" class="st24" d="M186.7,223.3c0,0-1.5,0.9-1.8,2.9c-0.3,2,0,13.1,0,13.1s0,2.4,1.8,3.7"/>
<rect id="XMLID_10_" x="275.6" y="227.9" class="st20" width="7.9" height="6.9"/>
<rect id="XMLID_9_" x="275.6" y="234.9" class="st10" width="7.9" height="6.9"/>
<line id="XMLID_8_" class="st0" x1="80.7" y1="139.9" x2="154.2" y2="139.9"/>
<line id="XMLID_7_" class="st0" x1="157" y1="139.9" x2="171.5" y2="139.9"/>
<line id="XMLID_6_" class="st0" x1="80.7" y1="149.9" x2="154.2" y2="149.9"/>
<line id="XMLID_5_" class="st0" x1="157" y1="149.9" x2="171.5" y2="149.9"/>
<line id="XMLID_4_" class="st0" x1="80.7" y1="159.9" x2="154.2" y2="159.9"/>
<line id="XMLID_3_" class="st0" x1="157" y1="159.9" x2="171.5" y2="159.9"/>
<polygon id="XMLID_2_" class="st25" points="129.5,88.8 159.9,302.5 468.6,302.5 185.3,45 "/>
</svg>
