<svg id="Layer_1" data-name="Layer 1" xmlns="http://www.w3.org/2000/svg" viewBox="0 0 253.62 141.25"><defs><style>.cls-1{fill:#404040;}.cls-2{fill:#d3ac5b;}.cls-3{fill:#e5e5df;}.cls-4{fill:#aaa99b;}.cls-5{fill:#9b9b92;}.cls-6{fill:#e4ecf0;}.cls-7{fill:#dbe0dd;}.cls-8{fill:#943038;}.cls-9{fill:#b5595d;}.cls-10{fill:#e1d6cf;}.cls-11{fill:#567836;}.cls-12{fill:#eff4cb;}.cls-13{fill:#eeee94;}.cls-14{fill:#5d130d;}.cls-15{fill:#eff4cf;}.cls-16{fill:#134453;}.cls-17{fill:#597836;}.cls-18{fill:#185056;}.cls-19{fill:#0c4c51;}.cls-20{fill:#5e1c0d;}.cls-21{fill:#a12922;}.cls-22{fill:#2b4e4a;}.cls-23{fill:#601a0d;}.cls-24{fill:#f6f4cb;}.cls-25{fill:#175552;}.cls-26{fill:#dd3826;}.cls-27{fill:#194b48;}.cls-28{fill:#df3626;}.cls-29{fill:#ee3325;}.cls-30{fill:#ef3b24;}.cls-31{fill:#fff;}</style></defs><title>gift2</title><g id="_Group_" data-name="&lt;Group&gt;"><circle id="_Path_" data-name="&lt;Path&gt;" class="cls-1" cx="57.5" cy="60.67" r="19.77"/><rect class="cls-1" x="37.57" y="61.02" width="39.7" height="75.98"/><rect class="cls-1" x="51.13" y="11.91" width="12.57" height="77.91"/><rect class="cls-1" x="48.54" y="10.33" width="17.77" height="4.92" rx="1.26" ry="1.26"/><rect class="cls-2" x="50.63" width="14.65" height="10.33" rx="2.65" ry="2.65"/><rect class="cls-3" x="43.65" y="64.37" width="33.63" height="52.77"/><rect class="cls-4" x="47.16" y="68.95" width="26.6" height="41.74"/><path id="_Path_2" data-name="&lt;Path&gt;" class="cls-1" d="M71.7,141.25H43.14a5.58,5.58,0,0,1-5.57-5.57h0a5.58,5.58,0,0,1,5.57-5.57H71.7a5.58,5.58,0,0,1,5.57,5.57h0A5.58,5.58,0,0,1,71.7,141.25Z"/><rect class="cls-5" x="57.95" y="10.33" width="5.76" height="32.48"/></g><g id="_Group_2" data-name="&lt;Group&gt;"><g id="_Group_3" data-name="&lt;Group&gt;"><path id="_Path_3" data-name="&lt;Path&gt;" class="cls-6" d="M96.9,141.25H86.23V67.12H96.1s19.13,22.06-5.2,37.07c-4.15,3-3.65,6.29-4,17.14C87.25,137.81,88,141.25,96.9,141.25Z"/><path class="cls-6" d="M75.57,141.25H86.23V67.12H76.37s-18.49,21.44,5.2,37.07c4.67,3.75,3.69,2.62,3.84,16.68C85.25,136.43,85.18,141.25,75.57,141.25Z"/><rect class="cls-6" x="72.14" y="139.89" width="27.49" height="1.36" rx="0.68" ry="0.68"/></g><g id="_Group_4" data-name="&lt;Group&gt;"><path id="_Path_4" data-name="&lt;Path&gt;" class="cls-7" d="M94.75,69.56s12,11,3.67,25c-6,10.13-11,6.57-8.25,1.42s3.94-10,1.9-26.37A20.62,20.62,0,0,1,94.75,69.56Z"/><path id="_Path_5" data-name="&lt;Path&gt;" class="cls-7" d="M76.09,69a19.84,19.84,0,0,0-2.92,6.19C72.84,76.22,77.5,76,77.5,76l1.75-6.44Z"/><path id="_Path_6" data-name="&lt;Path&gt;" class="cls-7" d="M72.84,76a10.05,10.05,0,0,0,4,.64,6.64,6.64,0,0,1-.63,2.67l-4.12-.92S72.5,76.86,72.84,76Z"/></g></g><g id="_Group_5" data-name="&lt;Group&gt;"><rect class="cls-8" x="97.25" y="38.52" width="116.16" height="21.12"/><rect class="cls-9" x="105.17" y="59.64" width="100.32" height="80.96"/><rect class="cls-10" x="145.74" y="38.52" width="19.18" height="102.08"/><rect class="cls-10" x="124.32" y="5" width="20.14" height="28.09" rx="5.26" ry="5.26"/><path id="_Path_7" data-name="&lt;Path&gt;" class="cls-10" d="M134.38,38.52s-10.07-3.35-10.07-11.92h20.14s-0.72,9,6.11,11.92H134.38Z"/><rect class="cls-10" x="164.19" y="5" width="20.14" height="28.09" rx="5.26" ry="5.26" transform="translate(348.51 38.09) rotate(180)"/><path class="cls-10" d="M174.26,38.52s10.07-3.35,10.07-11.92H164.19s0.72,9-6.11,11.92h16.18Z"/></g><g id="_Group_6" data-name="&lt;Group&gt;"><g id="_Group_7" data-name="&lt;Group&gt;"><path id="_Path_8" data-name="&lt;Path&gt;" class="cls-6" d="M27.4,141.25H16.73V67.12H26.6s19.13,22.06-5.2,37.07c-4.15,3-3.65,6.29-4,17.14C17.75,137.81,18.52,141.25,27.4,141.25Z"/><path class="cls-6" d="M6.07,141.25H16.73V67.12H6.87s-18.49,21.44,5.2,37.07c4.67,3.75,3.69,2.62,3.84,16.68C15.75,136.43,15.68,141.25,6.07,141.25Z"/><rect class="cls-6" x="2.64" y="139.89" width="27.49" height="1.36" rx="0.68" ry="0.68"/></g><g id="_Group_8" data-name="&lt;Group&gt;"><path id="_Path_9" data-name="&lt;Path&gt;" class="cls-7" d="M25.25,69.56s12,11,3.67,25c-6,10.13-11,6.57-8.25,1.42s3.94-10,1.9-26.37A20.62,20.62,0,0,1,25.25,69.56Z"/><path id="_Path_10" data-name="&lt;Path&gt;" class="cls-7" d="M6.59,69a19.84,19.84,0,0,0-2.92,6.19C3.34,76.22,8,76,8,76l1.75-6.44Z"/><path id="_Path_11" data-name="&lt;Path&gt;" class="cls-7" d="M3.34,76a10.05,10.05,0,0,0,4,.64,6.64,6.64,0,0,1-.63,2.67l-4.12-.92S3,76.86,3.34,76Z"/></g></g><g id="_Group_9" data-name="&lt;Group&gt;"><g id="_Group_10" data-name="&lt;Group&gt;"><g id="_Group_11" data-name="&lt;Group&gt;"><g id="_Group_12" data-name="&lt;Group&gt;"><path id="_Path_12" data-name="&lt;Path&gt;" class="cls-11" d="M203.16,94.24a5.83,5.83,0,0,1-3.68-5.44c0-4.14,3.44-8.05,3.44-8.05a7.26,7.26,0,0,0,2-2.92c0.3-1.4,0,16.42,0,16.42h-1.74Z"/><path class="cls-11" d="M206.77,94.24a5.83,5.83,0,0,0,3.68-5.44c0-4.14-3.44-8.05-3.44-8.05a7.26,7.26,0,0,1-2-2.92c-0.3-1.4,0,16.42,0,16.42h1.74Z"/></g><path id="_Path_13" data-name="&lt;Path&gt;" class="cls-12" d="M203.59,94.22a5.93,5.93,0,0,1,1.15-7c2.35,2.45,2.64,4.32,1.41,7C204.7,94.26,203.59,94.22,203.59,94.22Z"/><path id="_Path_14" data-name="&lt;Path&gt;" class="cls-13" d="M204.41,94.23a2.23,2.23,0,0,1,.44-2.65,2.06,2.06,0,0,1,.53,2.65C204.82,94.24,204.41,94.23,204.41,94.23Z"/></g><g id="_Group_13" data-name="&lt;Group&gt;"><g id="_Group_14" data-name="&lt;Group&gt;"><path id="_Path_15" data-name="&lt;Path&gt;" class="cls-14" d="M197.8,140.13h5.63l-9-3.29A3.35,3.35,0,0,0,197.8,140.13Z"/><polygon id="_Path_16" data-name="&lt;Path&gt;" class="cls-14" points="194.44 123.49 218.09 132.17 218.09 127.72 194.44 119.03 194.44 123.49"/><path id="_Path_17" data-name="&lt;Path&gt;" class="cls-14" d="M218.08,97.61a3.36,3.36,0,0,0-3.35-3.35H197.8a3.32,3.32,0,0,0-3.14,2.31l23.43,8.61V97.61Z"/><polygon id="_Path_18" data-name="&lt;Path&gt;" class="cls-14" points="218.09 109.94 194.44 101.25 194.44 105.67 218.09 114.36 218.09 109.94"/><path id="_Path_19" data-name="&lt;Path&gt;" class="cls-14" d="M194.44,132.07l21.37,7.85a3.31,3.31,0,0,0,2.25-3l-23.61-8.67v3.81Z"/><polygon id="_Path_20" data-name="&lt;Path&gt;" class="cls-14" points="194.44 110.44 194.44 114.27 218.09 122.95 218.09 119.12 194.44 110.44"/><path id="_Path_21" data-name="&lt;Path&gt;" class="cls-15" d="M218.08,105.17l-23.43-8.61a3.28,3.28,0,0,0-.21,1v3.65l23.64,8.68v-4.77Z"/><polygon id="_Path_22" data-name="&lt;Path&gt;" class="cls-15" points="218.09 114.36 194.44 105.67 194.44 110.44 218.09 119.12 218.09 114.36"/><polygon id="_Path_23" data-name="&lt;Path&gt;" class="cls-15" points="194.44 119.03 218.09 127.72 218.09 122.95 194.44 114.27 194.44 119.03"/><path id="_Path_24" data-name="&lt;Path&gt;" class="cls-15" d="M194.44,128.25l23.61,8.67c0-.05,0-0.1,0-0.15v-4.6l-23.64-8.68v4.77Z"/><path id="_Path_25" data-name="&lt;Path&gt;" class="cls-15" d="M194.44,136.78s0,0,0,.06l9,3.29h11.31a3.29,3.29,0,0,0,1.08-.22l-21.37-7.85v4.71Z"/></g><path id="_Path_26" data-name="&lt;Path&gt;" class="cls-16" d="M194.44,100s4.73,1.71,6.18.78,1.28,0.89,1.27,2.64,4.82,3.42,4.82.2c0-2.11.76-.84,0.76,1.15v3.28c0,2.94,5.7,4.23,5.7-.44V102s-0.36-.62,1.09-1.09a11.06,11.06,0,0,1,3.82-.16V97a2.92,2.92,0,0,0-3.18-2.72H197.62c-1.14,0-3.18.78-3.18,2.72v3Z"/></g></g><g id="_Group_15" data-name="&lt;Group&gt;"><rect class="cls-17" x="170.49" y="84.04" width="24.92" height="56.55" rx="3.18" ry="3.18"/><path id="_Path_27" data-name="&lt;Path&gt;" class="cls-15" d="M170.49,91.13s5,2.11,6.52,1,1.34,1.09,1.34,3.26,4.6,3.6,4.6-.36v5.54c0,3.63,7.28,5.75,7.28,0v-6.9s-0.38-.77,1.15-1.34a10,10,0,0,1,4-.19v-4.7A3.35,3.35,0,0,0,192.06,84H173.84a3.39,3.39,0,0,0-3.35,3.35v3.74Z"/><circle id="_Path_28" data-name="&lt;Path&gt;" class="cls-18" cx="176.25" cy="103.07" r="2.67"/><circle id="_Path_29" data-name="&lt;Path&gt;" class="cls-18" cx="174.77" cy="130.1" r="2.71"/><circle id="_Path_30" data-name="&lt;Path&gt;" class="cls-18" cx="182.79" cy="116.6" r="2.92"/><circle id="_Path_31" data-name="&lt;Path&gt;" class="cls-18" cx="190.33" cy="136.05" r="2.6"/><circle id="_Path_32" data-name="&lt;Path&gt;" class="cls-18" cx="192.02" cy="108.16" r="2.42"/><g id="_Group_16" data-name="&lt;Group&gt;"><g id="_Group_17" data-name="&lt;Group&gt;"><path id="_Path_33" data-name="&lt;Path&gt;" class="cls-19" d="M180.8,84a7.21,7.21,0,0,1-4.55-6.73c0-5.12,4.25-10,4.25-10s2.07-1.88,2.44-3.61,0,20.3,0,20.3H180.8Z"/><path class="cls-19" d="M185.27,84a7.21,7.21,0,0,0,4.55-6.73c0-5.12-4.25-10-4.25-10s-2.07-1.88-2.44-3.61,0,20.3,0,20.3h2.15Z"/></g><path id="_Path_34" data-name="&lt;Path&gt;" class="cls-20" d="M181.34,84a7.33,7.33,0,0,1,1.43-8.68c2.9,3,3.26,5.34,1.75,8.68C182.71,84.07,181.34,84,181.34,84Z"/><path id="_Path_35" data-name="&lt;Path&gt;" class="cls-21" d="M182.34,84a2.76,2.76,0,0,1,.54-3.27,2.55,2.55,0,0,1,.66,3.27C182.86,84,182.34,84,182.34,84Z"/></g></g></g><g id="_Group_18" data-name="&lt;Group&gt;"><g id="_Group_19" data-name="&lt;Group&gt;"><rect class="cls-22" x="221.92" y="25.82" width="0.83" height="29.35"/><rect class="cls-23" x="221.57" y="25.82" width="1.52" height="18.71"/></g><g id="_Group_20" data-name="&lt;Group&gt;"><polygon id="_Path_36" data-name="&lt;Path&gt;" class="cls-24" points="222.58 20.24 223.69 25.69 229.97 25.61 224.72 27.55 227.15 34.3 222.58 28.45 218.01 34.3 220.56 27.75 215.19 25.61 221.71 25.95 222.58 20.24"/><polygon class="cls-24" points="226.44 21.45 224.3 26.59 229.55 30.04 224.11 28.7 222.34 35.66 221.84 28.25 214.77 30.53 220.55 26.53 217.3 21.75 222.51 25.69 226.44 21.45"/></g><g id="_Group_21" data-name="&lt;Group&gt;"><rect class="cls-22" x="227.86" y="29.64" width="0.83" height="29.35" transform="translate(117.97 -160.4) rotate(50.7)"/><rect class="cls-23" x="231.63" y="31.59" width="1.52" height="18.71" transform="translate(116.87 -164.81) rotate(50.7)"/></g><g id="_Group_22" data-name="&lt;Group&gt;"><polygon class="cls-24" points="244.11 31.68 240.59 35.99 244.63 40.8 239.8 37.97 236.12 44.12 237.76 36.88 230.33 37.05 237.02 34.86 235.27 29.36 239.14 34.62 244.11 31.68"/><polygon class="cls-24" points="245.61 35.43 240.28 37.03 240.94 43.28 238.53 38.22 232.03 41.25 237.44 36.17 231.19 32.15 237.96 34.09 239.59 28.55 239.85 35.08 245.61 35.43"/></g><g id="_Group_23" data-name="&lt;Group&gt;"><polygon id="_Path_37" data-name="&lt;Path&gt;" class="cls-25" points="223.88 9.95 224.05 10.74 224.96 10.73 224.2 11.01 224.55 11.99 223.88 11.14 223.22 11.99 223.59 11.04 222.81 10.73 223.76 10.78 223.88 9.95"/><polygon class="cls-25" points="224.44 10.13 224.13 10.87 224.9 11.38 224.11 11.18 223.85 12.19 223.78 11.12 222.75 11.45 223.59 10.87 223.12 10.17 223.88 10.74 224.44 10.13"/></g><g id="_Group_24" data-name="&lt;Group&gt;"><polygon id="_Path_38" data-name="&lt;Path&gt;" class="cls-24" points="232.83 13.71 233.05 14.77 234.27 14.75 233.25 15.13 233.72 16.45 232.83 15.31 231.94 16.45 232.44 15.17 231.39 14.75 232.66 14.82 232.83 13.71"/><polygon class="cls-24" points="233.58 13.94 233.16 14.94 234.19 15.62 233.13 15.36 232.78 16.71 232.68 15.27 231.31 15.71 232.44 14.93 231.8 14 232.82 14.77 233.58 13.94"/></g><g id="_Group_25" data-name="&lt;Group&gt;"><polygon id="_Path_39" data-name="&lt;Path&gt;" class="cls-24" points="251.48 41.59 251.8 43.16 253.61 43.13 252.09 43.7 252.79 45.64 251.48 43.95 250.16 45.64 250.89 43.75 249.34 43.13 251.22 43.23 251.48 41.59"/><polygon class="cls-24" points="252.59 41.93 251.97 43.42 253.49 44.41 251.92 44.03 251.41 46.03 251.26 43.9 249.22 44.55 250.89 43.4 249.95 42.02 251.46 43.16 252.59 41.93"/></g><g id="_Group_26" data-name="&lt;Group&gt;"><polygon id="_Path_40" data-name="&lt;Path&gt;" class="cls-24" points="215.23 15.62 215.45 16.68 216.67 16.66 215.65 17.04 216.12 18.35 215.23 17.21 214.34 18.35 214.84 17.08 213.79 16.66 215.06 16.73 215.23 15.62"/><polygon class="cls-24" points="215.98 15.85 215.56 16.85 216.59 17.52 215.53 17.26 215.18 18.62 215.09 17.17 213.71 17.62 214.84 16.84 214.2 15.91 215.22 16.68 215.98 15.85"/></g><g id="_Group_27" data-name="&lt;Group&gt;"><polygon id="_Path_41" data-name="&lt;Path&gt;" class="cls-26" points="240.95 20.48 241.17 21.56 242.41 21.54 241.37 21.92 241.85 23.25 240.95 22.1 240.05 23.25 240.55 21.96 239.49 21.54 240.78 21.61 240.95 20.48"/><polygon class="cls-26" points="241.71 20.72 241.29 21.73 242.32 22.41 241.25 22.15 240.9 23.52 240.8 22.06 239.41 22.51 240.55 21.72 239.91 20.78 240.94 21.55 241.71 20.72"/></g><g id="_Group_28" data-name="&lt;Group&gt;"><polygon id="_Path_42" data-name="&lt;Path&gt;" class="cls-27" points="252.16 23.25 252.38 24.33 253.62 24.31 252.58 24.7 253.06 26.03 252.16 24.87 251.26 26.03 251.76 24.73 250.7 24.31 251.99 24.38 252.16 23.25"/><polygon class="cls-27" points="252.92 23.49 252.5 24.51 253.53 25.19 252.46 24.92 252.11 26.3 252.01 24.83 250.62 25.29 251.76 24.49 251.12 23.55 252.15 24.33 252.92 23.49"/></g><g id="_Group_29" data-name="&lt;Group&gt;"><polygon id="_Path_43" data-name="&lt;Path&gt;" class="cls-28" points="251.52 32.14 251.74 33.21 252.98 33.2 251.94 33.58 252.42 34.91 251.52 33.76 250.62 34.91 251.12 33.62 250.06 33.2 251.34 33.26 251.52 32.14"/><polygon class="cls-28" points="252.28 32.38 251.86 33.39 252.89 34.07 251.82 33.81 251.47 35.18 251.37 33.72 249.98 34.17 251.12 33.38 250.48 32.44 251.5 33.21 252.28 32.38"/></g><polygon id="_Path_44" data-name="&lt;Path&gt;" class="cls-27" points="235.49 18.94 235.98 19.95 237.09 20.11 236.29 20.89 236.48 22 235.49 21.48 234.49 22 234.68 20.89 233.88 20.11 234.99 19.95 235.49 18.94"/><polygon id="_Path_45" data-name="&lt;Path&gt;" class="cls-29" points="207.29 24.77 207.59 25.37 208.25 25.46 207.77 25.94 207.88 26.6 207.29 26.29 206.69 26.6 206.81 25.94 206.32 25.46 206.99 25.37 207.29 24.77"/><polygon id="_Path_46" data-name="&lt;Path&gt;" class="cls-29" points="211.67 32.91 211.97 33.51 212.64 33.61 212.15 34.08 212.27 34.74 211.67 34.43 211.07 34.74 211.19 34.08 210.71 33.61 211.37 33.51 211.67 32.91"/></g><g id="_Group_30" data-name="&lt;Group&gt;"><path id="_Path_47" data-name="&lt;Path&gt;" class="cls-30" d="M112.8,130.28h-6.21c-0.38,0-5.06.14-5.42,0.22,1.64,0.42,7.49,1.43,8.59,2.69Z"/><polygon id="_Path_48" data-name="&lt;Path&gt;" class="cls-30" points="140.32 130.28 129.54 140.59 140.15 140.59 150.93 130.28 140.32 130.28"/><polygon id="_Path_49" data-name="&lt;Path&gt;" class="cls-30" points="120.85 130.28 110.07 140.59 122.09 140.59 132.88 130.28 120.85 130.28"/><path id="_Path_50" data-name="&lt;Path&gt;" class="cls-30" d="M157.64,130.51L147.1,140.59h9.4a5.17,5.17,0,0,0,5.15-5.15A5.1,5.1,0,0,0,157.64,130.51Z"/><path id="_Path_51" data-name="&lt;Path&gt;" class="cls-30" d="M101.43,108.31c-5,0-11.39,4-14.11,10.95a15.87,15.87,0,0,0-.45,10.49l19.67-18.81A6.11,6.11,0,0,0,101.43,108.31Z"/><path id="_Path_52" data-name="&lt;Path&gt;" class="cls-30" d="M101.43,135.44a5.1,5.1,0,0,1,4.07-4.94,6.27,6.27,0,0,0-1.54-.22A7.83,7.83,0,0,1,99.81,129l-8.12,7.76,0,0c3.28,2.42,4.85,3.4,10.41,3.69l1.2-1.15A5.08,5.08,0,0,1,101.43,135.44Z"/><path id="_Path_53" data-name="&lt;Path&gt;" class="cls-30" d="M101.43,135.44a5.08,5.08,0,0,0,1.9,3.9l6.43-6.15a8.69,8.69,0,0,0-4.25-2.69A5.1,5.1,0,0,0,101.43,135.44Z"/><path id="_Path_54" data-name="&lt;Path&gt;" class="cls-31" d="M104,118.89c4.16-.63,4.67-5,2.58-8L86.86,129.74a13.7,13.7,0,0,0,4.83,7L99.81,129C95.8,126.44,94.43,120.76,104,118.89Z"/><path id="_Path_55" data-name="&lt;Path&gt;" class="cls-31" d="M112.8,130.28l-3,2.91c2.7,3,3,7.4-3.17,7.4h3.49l10.78-10.31H112.8Z"/><path id="_Path_56" data-name="&lt;Path&gt;" class="cls-31" d="M103.33,139.34l-1.2,1.15c1.27,0.07,2.69.11,4.45,0.11A5.06,5.06,0,0,1,103.33,139.34Z"/><path id="_Path_57" data-name="&lt;Path&gt;" class="cls-31" d="M106.58,140.59c6.18,0,5.87-4.35,3.17-7.4l-6.43,6.15A5.06,5.06,0,0,0,106.58,140.59Z"/><polygon id="_Path_58" data-name="&lt;Path&gt;" class="cls-31" points="132.88 130.28 122.09 140.59 129.54 140.59 140.32 130.28 132.88 130.28"/><path id="_Path_59" data-name="&lt;Path&gt;" class="cls-31" d="M156.5,130.28h-5.57l-10.78,10.31h7l10.54-10.08A4.91,4.91,0,0,0,156.5,130.28Z"/></g></svg>