<?xml version="1.0" encoding="utf-8"?>
<!-- Generator: Adobe Illustrator 19.0.0, SVG Export Plug-In . SVG Version: 6.00 Build 0)  -->
<svg version="1.1" id="Layer_1" xmlns="http://www.w3.org/2000/svg" xmlns:xlink="http://www.w3.org/1999/xlink" x="0px" y="0px"
	 viewBox="0 0 459.5 377" style="enable-background:new 0 0 459.5 377;" xml:space="preserve">
<style type="text/css">
	.st0{fill:#F1F0F0;}
	.st1{fill:none;stroke:#4BC2C6;stroke-width:2;stroke-miterlimit:10;stroke-dasharray:2;}
	.st2{fill:none;stroke:#4BC2C6;stroke-width:2;stroke-miterlimit:10;}
	.st3{fill:#4BC2C6;}
	.st4{fill:none;stroke:#4BC2C6;stroke-miterlimit:10;}
	.st5{fill:#FFFFFF;stroke:#0C6B88;stroke-width:2;stroke-miterlimit:10;}
	.st6{fill:#0C6B88;}
	.st7{fill:#FFFFFF;stroke:#0A6C89;stroke-width:21;stroke-miterlimit:10;}
	.st8{fill:none;stroke:#F26839;stroke-width:5;stroke-miterlimit:10;stroke-dasharray:11.9147,11.9147;}
	.st9{fill:#F26839;}
	.st10{fill:#F79521;}
	.st11{fill:#E94F46;}
	.st12{fill:none;stroke:#F79521;stroke-width:19;stroke-miterlimit:10;}
</style>
<g id="XMLID_199_">
	<g id="XMLID_315_">
		<path id="XMLID_316_" class="st0" d="M397.5,149.1c-0.2-0.2-0.5-0.3-0.9-0.2c-0.5,0.1-0.9,0.4-1.1,0.8
			c-7.9,15.7-14.6,20.2-12.8,27.6l16.1,67.7c1.8,7.5,11.9,11.4,22.6,8.9l0,0c10.7-2.5,18-10.7,16.2-18.1l-16.1-67.7
			C419.8,160.8,407.4,156.6,397.5,149.1z M405,165.9c0.6,2.3-0.9,4.7-3.2,5.2c-2.3,0.6-4.7-0.9-5.2-3.2c-0.6-2.3,0.9-4.7,3.2-5.2
			C402.1,162.2,404.4,163.6,405,165.9z"/>
	</g>
	<path id="XMLID_314_" class="st0" d="M444,262.5l-3.4-14.2c-0.8-3.4-4.2-5.4-7.5-4.6l-26.6,6.3c-3.4,0.8-5.4,4.2-4.6,7.5l3.4,14.2
		c0.8,3.4,4.2,5.4,7.5,4.6l26.6-6.3C442.7,269.3,444.8,265.9,444,262.5z"/>
	<line id="XMLID_313_" class="st1" x1="386.5" y1="180.9" x2="418.6" y2="171.4"/>
	<circle id="XMLID_312_" class="st2" cx="401.3" cy="167" r="4.6"/>
	<g id="XMLID_296_">
		<path id="XMLID_310_" class="st3" d="M416,239.7c-2.9,0.7-5.2-1.1-5.8-3.5c-0.6-2.5,0.6-4.1,2-4.8l0.9,1.5
			c-0.8,0.4-1.6,1.3-1.2,2.9c0.3,1.3,1.6,2.5,3.7,2.1c1.9-0.5,2.7-2,2.3-3.5c-0.4-1.5-1.5-2-2.4-2.1l0.1-1.8c1.5,0,3.4,0.9,4,3.4
			C420.2,236.5,418.9,239,416,239.7z"/>
		<path id="XMLID_307_" class="st3" d="M408,226.6c-0.6-2.4,0.7-5,3.6-5.7c2.9-0.7,5.2,1.1,5.8,3.5c0.6,2.4-0.7,5-3.6,5.7
			C410.9,230.8,408.6,229,408,226.6z M415.7,224.8c-0.3-1.4-1.6-2.6-3.7-2.1c-2,0.5-2.7,2.1-2.3,3.5c0.3,1.4,1.6,2.6,3.6,2.1
			C415.4,227.8,416,226.1,415.7,224.8z"/>
		<path id="XMLID_305_" class="st3" d="M412.6,219.1l-5.8,1.4l-0.4-1.7l5.7-1.3c1.2-0.3,1.6-1.1,1.4-2.1c-0.3-1.1-1-1.6-2.2-1.3
			l-5.7,1.3l-0.4-1.7l5.8-1.4c2.2-0.5,3.7,0.7,4.2,2.7C415.6,216.8,414.8,218.6,412.6,219.1z"/>
		<path id="XMLID_302_" class="st3" d="M409.9,208.5l3.4-0.8l0.4,1.7l-9,2.1l-0.8-3.4c-0.4-1.8,0.5-3.2,2.1-3.6
			c1.6-0.4,3.1,0.5,3.5,2.3L409.9,208.5z M408,207.5c-0.2-0.9-0.8-1.3-1.6-1.1c-0.8,0.2-1.2,0.8-1,1.7l0.3,1.4l2.6-0.6L408,207.5z"
			/>
		<path id="XMLID_299_" class="st3" d="M401.7,199.9c-0.6-2.4,0.7-5,3.6-5.7c2.9-0.7,5.2,1.1,5.8,3.5c0.6,2.4-0.7,5-3.6,5.7
			C404.6,204,402.3,202.3,401.7,199.9z M409.4,198.1c-0.3-1.4-1.6-2.6-3.7-2.1c-2,0.5-2.7,2.1-2.3,3.5c0.3,1.4,1.6,2.6,3.6,2.1
			C409.1,201.1,409.7,199.4,409.4,198.1z"/>
		<path id="XMLID_297_" class="st3" d="M408.1,185.7l-5.4,5.6l6.4-1.5l0.4,1.7l-9,2.1l-0.5-2.2l5.1-5.1l-5.9,1.4l-0.4-1.7l9-2.1
			L408.1,185.7z"/>
	</g>
	<g id="XMLID_255_">
		<g id="XMLID_200_">
			<path id="XMLID_237_" class="st3" d="M416.1,258.4c-0.5,0.7-2.2,3.4-1.5,7.6l-1.8,0.5c-0.8-4.5,1.4-7.5,1.4-7.5l-4.2,1.1
				l-0.4-1.5l6.2-1.6L416.1,258.4z"/>
			<path id="XMLID_234_" class="st3" d="M417.1,257.8c0.3-0.9,1.1-1.7,2.3-2.1c1.3-0.3,2.3,0,3,0.7c0.8,0.7,1.2,1.7,1.5,2.7
				c0.3,1,0.4,2.1,0,3.1c-0.3,0.9-1.1,1.7-2.3,2.1s-2.3,0-3.1-0.7c-0.8-0.7-1.2-1.7-1.5-2.7C416.9,259.9,416.8,258.8,417.1,257.8z
				 M419.8,262.4c0.4,0.3,0.8,0.5,1.4,0.4c0.6-0.2,0.9-0.5,1.1-1c0.2-0.6,0.1-1.3-0.1-2.2c-0.2-0.9-0.5-1.6-1-2
				c-0.4-0.3-0.8-0.5-1.4-0.4c-0.6,0.2-0.9,0.5-1.1,1c-0.2,0.6-0.1,1.3,0.1,2.2C419.1,261.3,419.4,262,419.8,262.4z"/>
			<path id="XMLID_201_" class="st3" d="M427.1,262.7l3.7-9.7l1.5-0.4l-3.7,9.7L427.1,262.7z M425.8,254.2c1.1-0.3,2.3,0.4,2.6,1.5
				c0.3,1.2-0.4,2.3-1.6,2.6c-1.1,0.3-2.3-0.4-2.6-1.5C423.9,255.6,424.6,254.4,425.8,254.2z M432.4,257.1c1.1-0.3,2.3,0.4,2.6,1.5
				c0.3,1.2-0.4,2.3-1.6,2.6c-1.1,0.3-2.3-0.4-2.6-1.5C430.5,258.5,431.3,257.4,432.4,257.1z M426.5,257.1c0.5-0.1,0.7-0.6,0.6-1.1
				c-0.1-0.5-0.6-0.8-1.1-0.7c-0.5,0.1-0.7,0.6-0.6,1.1C425.6,257,426.1,257.2,426.5,257.1z M433.2,260c0.5-0.1,0.7-0.6,0.6-1.1
				s-0.6-0.8-1.1-0.7c-0.5,0.1-0.7,0.6-0.6,1.1C432.2,259.9,432.7,260.1,433.2,260z"/>
		</g>
	</g>
	<path id="XMLID_254_" class="st4" d="M401.3,167c0,0-11.4-21.9-11.8-39.1c-0.2-9.2,2.5-8.2,5.1-5.3c2.8,3.2,4.4,7.5,4.7,11.9
		L401.3,167z"/>
</g>
<g id="XMLID_160_">
	<rect id="XMLID_5_" x="36.5" y="85.8" class="st5" width="68" height="28"/>
	<g id="XMLID_161_">
		<g id="XMLID_269_">
			<path id="XMLID_283_" class="st6" d="M57.6,103.3h-2v-5.4l0-0.9l0-1c-0.3,0.3-0.6,0.5-0.7,0.6l-1.1,0.9L53,96.4l3-2.4h1.6V103.3z
				"/>
			<path id="XMLID_279_" class="st6" d="M63.4,93.9c0.9,0,1.6,0.2,2.1,0.6c0.5,0.4,0.8,0.9,0.8,1.6c0,0.5-0.1,0.9-0.4,1.3
				c-0.3,0.4-0.7,0.7-1.3,1c0.7,0.4,1.2,0.8,1.5,1.2c0.3,0.4,0.5,0.8,0.5,1.3c0,0.8-0.3,1.4-0.9,1.8c-0.6,0.5-1.4,0.7-2.4,0.7
				c-1,0-1.8-0.2-2.4-0.6c-0.6-0.4-0.9-1-0.9-1.8c0-0.5,0.1-1,0.4-1.4s0.7-0.8,1.4-1.1c-0.5-0.3-0.9-0.7-1.1-1.1s-0.3-0.8-0.3-1.3
				c0-0.7,0.3-1.2,0.8-1.6C61.8,94.1,62.5,93.9,63.4,93.9z M61.9,100.8c0,0.4,0.1,0.6,0.4,0.9s0.6,0.3,1,0.3c0.5,0,0.9-0.1,1.1-0.3
				c0.2-0.2,0.4-0.5,0.4-0.8c0-0.3-0.1-0.5-0.4-0.8c-0.2-0.2-0.6-0.5-1.2-0.8C62.4,99.7,61.9,100.2,61.9,100.8z M63.3,95.3
				c-0.3,0-0.6,0.1-0.8,0.3c-0.2,0.2-0.3,0.4-0.3,0.7c0,0.3,0.1,0.5,0.2,0.7c0.2,0.2,0.5,0.4,0.9,0.6c0.4-0.2,0.7-0.4,0.9-0.6
				c0.2-0.2,0.2-0.4,0.2-0.7c0-0.3-0.1-0.5-0.3-0.7S63.7,95.3,63.3,95.3z"/>
			<path id="XMLID_275_" class="st6" d="M70.8,93.9c0.9,0,1.6,0.2,2.1,0.6c0.5,0.4,0.8,0.9,0.8,1.6c0,0.5-0.1,0.9-0.4,1.3
				c-0.3,0.4-0.7,0.7-1.3,1c0.7,0.4,1.2,0.8,1.5,1.2c0.3,0.4,0.5,0.8,0.5,1.3c0,0.8-0.3,1.4-0.9,1.8c-0.6,0.5-1.4,0.7-2.4,0.7
				c-1,0-1.8-0.2-2.4-0.6s-0.9-1-0.9-1.8c0-0.5,0.1-1,0.4-1.4s0.7-0.8,1.4-1.1c-0.5-0.3-0.9-0.7-1.1-1.1c-0.2-0.4-0.3-0.8-0.3-1.3
				c0-0.7,0.3-1.2,0.8-1.6S69.9,93.9,70.8,93.9z M69.3,100.8c0,0.4,0.1,0.6,0.4,0.9s0.6,0.3,1,0.3c0.5,0,0.9-0.1,1.1-0.3
				c0.2-0.2,0.4-0.5,0.4-0.8c0-0.3-0.1-0.5-0.4-0.8c-0.2-0.2-0.6-0.5-1.2-0.8C69.8,99.7,69.3,100.2,69.3,100.8z M70.8,95.3
				c-0.3,0-0.6,0.1-0.8,0.3c-0.2,0.2-0.3,0.4-0.3,0.7c0,0.3,0.1,0.5,0.2,0.7c0.2,0.2,0.5,0.4,0.9,0.6c0.4-0.2,0.7-0.4,0.9-0.6
				s0.2-0.4,0.2-0.7c0-0.3-0.1-0.5-0.3-0.7C71.4,95.4,71.1,95.3,70.8,95.3z"/>
			<path id="XMLID_272_" class="st6" d="M81.5,98.7c0,1.6-0.3,2.8-0.8,3.6s-1.3,1.2-2.5,1.2c-1.1,0-1.9-0.4-2.4-1.2s-0.8-2-0.8-3.6
				c0-1.6,0.3-2.8,0.8-3.6c0.5-0.8,1.3-1.2,2.4-1.2c1.1,0,1.9,0.4,2.4,1.2S81.5,97.1,81.5,98.7z M76.9,98.7c0,1.1,0.1,2,0.3,2.4
				c0.2,0.5,0.5,0.7,1,0.7c0.5,0,0.8-0.2,1-0.7s0.3-1.3,0.3-2.4c0-1.1-0.1-2-0.3-2.5c-0.2-0.5-0.5-0.7-1-0.7c-0.5,0-0.8,0.2-1,0.7
				C77,96.7,76.9,97.5,76.9,98.7z"/>
			<path id="XMLID_270_" class="st6" d="M87.9,101.2c0,0.7-0.3,1.3-0.8,1.7s-1.3,0.6-2.3,0.6c-0.5,0-1,0-1.3-0.1
				c-0.4-0.1-0.7-0.2-1-0.3v-1.6c0.4,0.2,0.8,0.3,1.2,0.4c0.5,0.1,0.8,0.2,1.2,0.2c0.7,0,1.1-0.2,1.1-0.6c0-0.2,0-0.3-0.1-0.4
				c-0.1-0.1-0.3-0.2-0.5-0.3c-0.2-0.1-0.5-0.3-0.9-0.4c-0.5-0.2-0.9-0.4-1.2-0.6s-0.4-0.4-0.6-0.7c-0.1-0.3-0.2-0.6-0.2-0.9
				c0-0.6,0.2-1.1,0.7-1.5c0.5-0.3,1.2-0.5,2.1-0.5c0.9,0,1.7,0.2,2.5,0.6L87.2,98c-0.4-0.2-0.7-0.3-1-0.4s-0.6-0.1-0.9-0.1
				c-0.6,0-0.9,0.2-0.9,0.5c0,0.2,0.1,0.3,0.3,0.5c0.2,0.1,0.6,0.3,1.2,0.6c0.6,0.2,1,0.4,1.2,0.6s0.4,0.4,0.6,0.7
				S87.9,100.9,87.9,101.2z"/>
		</g>
	</g>
</g>
<g id="XMLID_153_">
	<circle id="XMLID_159_" class="st7" cx="240.9" cy="159.8" r="144.3"/>
	<g id="XMLID_156_">
		<circle id="XMLID_158_" class="st8" cx="240.7" cy="160" r="110"/>
	</g>
	<circle id="XMLID_155_" class="st9" cx="241.9" cy="162.6" r="12.1"/>
	<path id="XMLID_154_" class="st9" d="M241.9,162.6c0,0,15.7-67.6,23.3-80.6c6.8-11.5,18.5-9.4,11.9,5.7
		C272.2,99.2,241.9,162.6,241.9,162.6z"/>
</g>
<g id="XMLID_149_">
	
		<rect id="XMLID_152_" x="365.5" y="284.5" transform="matrix(0.6724 -0.7402 0.7402 0.6724 -94.3369 375.9148)" class="st10" width="24" height="20.1"/>
	<path id="XMLID_151_" class="st11" d="M446,364.4L446,364.4c-9.7,9-24.9,8.5-33.9-1.2l-48.3-51.8l33.6-31.3l49.7,53.4
		C455.3,342.3,454.8,356.1,446,364.4z"/>
	<circle id="XMLID_150_" class="st12" cx="309.4" cy="226" r="78"/>
</g>
<g id="XMLID_118_">
	<rect id="XMLID_4_" x="6.5" y="130.8" class="st5" width="77" height="32"/>
	<g id="XMLID_119_">
		<g id="XMLID_240_">
			<path id="XMLID_252_" class="st6" d="M30.1,150.9h-2.2v-6.1l0-1l0-1.1c-0.4,0.4-0.6,0.6-0.8,0.7l-1.2,1l-1.1-1.3l3.4-2.7h1.8
				V150.9z"/>
			<path id="XMLID_249_" class="st6" d="M40.4,144.8c0,2.1-0.4,3.6-1.3,4.7s-2.2,1.5-4,1.5c-0.6,0-1.1,0-1.4-0.1v-1.8
				c0.4,0.1,0.8,0.2,1.3,0.2c0.7,0,1.4-0.1,1.8-0.3c0.5-0.2,0.8-0.6,1.1-1c0.3-0.5,0.4-1.1,0.4-1.9h-0.1c-0.3,0.5-0.6,0.8-1,1
				c-0.4,0.2-0.8,0.3-1.4,0.3c-0.9,0-1.6-0.3-2.2-0.9c-0.5-0.6-0.8-1.4-0.8-2.5c0-1.1,0.3-2,1-2.7c0.6-0.7,1.5-1,2.6-1
				c0.8,0,1.5,0.2,2,0.5c0.6,0.4,1,0.9,1.3,1.6C40.3,143,40.4,143.8,40.4,144.8z M36.6,142c-0.5,0-0.8,0.2-1.1,0.5s-0.4,0.8-0.4,1.4
				c0,0.5,0.1,0.9,0.4,1.2s0.6,0.4,1.1,0.4c0.5,0,0.8-0.1,1.2-0.4c0.3-0.3,0.5-0.6,0.5-1c0-0.6-0.2-1.1-0.5-1.5
				C37.4,142.2,37.1,142,36.6,142z"/>
			<path id="XMLID_246_" class="st6" d="M48.9,145.6c0,1.8-0.3,3.2-0.9,4.1c-0.6,0.9-1.5,1.3-2.8,1.3c-1.2,0-2.1-0.5-2.8-1.4
				c-0.6-0.9-0.9-2.3-0.9-4c0-1.9,0.3-3.2,0.9-4.1c0.6-0.9,1.5-1.3,2.8-1.3c1.2,0,2.1,0.5,2.8,1.4C48.5,142.4,48.9,143.8,48.9,145.6
				z M43.7,145.6c0,1.3,0.1,2.2,0.3,2.8c0.2,0.6,0.6,0.8,1.1,0.8c0.5,0,0.9-0.3,1.1-0.9c0.2-0.6,0.3-1.5,0.3-2.8
				c0-1.3-0.1-2.2-0.4-2.8c-0.2-0.6-0.6-0.8-1.1-0.8c-0.5,0-0.9,0.3-1.1,0.8C43.8,143.4,43.7,144.3,43.7,145.6z"/>
			<path id="XMLID_243_" class="st6" d="M57.3,145.6c0,1.8-0.3,3.2-0.9,4.1c-0.6,0.9-1.5,1.3-2.8,1.3c-1.2,0-2.1-0.5-2.8-1.4
				c-0.6-0.9-0.9-2.3-0.9-4c0-1.9,0.3-3.2,0.9-4.1c0.6-0.9,1.5-1.3,2.8-1.3c1.2,0,2.1,0.5,2.8,1.4C57,142.4,57.3,143.8,57.3,145.6z
				 M52.1,145.6c0,1.3,0.1,2.2,0.3,2.8c0.2,0.6,0.6,0.8,1.1,0.8c0.5,0,0.9-0.3,1.1-0.9c0.2-0.6,0.3-1.5,0.3-2.8
				c0-1.3-0.1-2.2-0.3-2.8c-0.2-0.6-0.6-0.8-1.1-0.8c-0.5,0-0.9,0.3-1.1,0.8C52.3,143.4,52.1,144.3,52.1,145.6z"/>
			<path id="XMLID_241_" class="st6" d="M64.6,148.5c0,0.8-0.3,1.5-0.9,1.9c-0.6,0.4-1.4,0.6-2.6,0.6c-0.6,0-1.1,0-1.5-0.1
				c-0.4-0.1-0.8-0.2-1.2-0.4v-1.8c0.4,0.2,0.9,0.4,1.4,0.5c0.5,0.1,1,0.2,1.4,0.2c0.8,0,1.2-0.2,1.2-0.7c0-0.2-0.1-0.3-0.2-0.4
				c-0.1-0.1-0.3-0.2-0.5-0.4c-0.3-0.1-0.6-0.3-1-0.5c-0.6-0.3-1.1-0.5-1.4-0.7c-0.3-0.2-0.5-0.5-0.6-0.8c-0.1-0.3-0.2-0.6-0.2-1.1
				c0-0.7,0.3-1.3,0.8-1.7c0.6-0.4,1.3-0.6,2.4-0.6c1,0,1.9,0.2,2.8,0.6l-0.7,1.6c-0.4-0.2-0.8-0.3-1.1-0.4
				c-0.4-0.1-0.7-0.2-1.1-0.2c-0.7,0-1,0.2-1,0.5c0,0.2,0.1,0.4,0.3,0.5c0.2,0.1,0.7,0.4,1.4,0.6c0.6,0.3,1.1,0.5,1.4,0.7
				c0.3,0.2,0.5,0.5,0.6,0.8C64.6,147.7,64.6,148.1,64.6,148.5z"/>
		</g>
	</g>
</g>
<g id="XMLID_89_">
	<rect id="XMLID_3_" x="9.5" y="185.8" class="st5" width="92" height="38"/>
	<g id="XMLID_90_">
		<g id="XMLID_205_">
			<path id="XMLID_230_" class="st6" d="M38,212.5h-2.7v-7.3l0-1.2l0-1.3c-0.4,0.4-0.7,0.7-0.9,0.9l-1.4,1.2l-1.3-1.6l4-3.2H38
				V212.5z"/>
			<path id="XMLID_227_" class="st6" d="M50.3,205.3c0,2.5-0.5,4.3-1.6,5.5c-1,1.2-2.6,1.8-4.7,1.8c-0.7,0-1.3,0-1.7-0.1v-2.1
				c0.5,0.1,1,0.2,1.5,0.2c0.9,0,1.6-0.1,2.2-0.4c0.6-0.3,1-0.7,1.3-1.2c0.3-0.6,0.5-1.3,0.5-2.3h-0.1c-0.3,0.5-0.7,0.9-1.1,1.1
				c-0.4,0.2-1,0.3-1.6,0.3c-1.1,0-2-0.4-2.6-1.1c-0.6-0.7-0.9-1.7-0.9-2.9c0-1.3,0.4-2.4,1.1-3.2c0.8-0.8,1.8-1.2,3.1-1.2
				c0.9,0,1.7,0.2,2.4,0.7c0.7,0.4,1.2,1.1,1.6,1.9C50.1,203.2,50.3,204.2,50.3,205.3z M45.7,201.9c-0.5,0-1,0.2-1.3,0.6
				c-0.3,0.4-0.5,0.9-0.5,1.6c0,0.6,0.1,1.1,0.4,1.4c0.3,0.4,0.7,0.5,1.3,0.5c0.5,0,1-0.2,1.4-0.5c0.4-0.4,0.6-0.8,0.6-1.2
				c0-0.7-0.2-1.3-0.5-1.7S46.3,201.9,45.7,201.9z"/>
			<path id="XMLID_225_" class="st6" d="M59.9,202.8c0,0.8-0.2,1.5-0.7,2c-0.5,0.5-1.1,0.9-2,1.1v0.1c1,0.1,1.8,0.4,2.3,0.9
				c0.5,0.5,0.8,1.1,0.8,2c0,1.2-0.4,2.1-1.3,2.8c-0.9,0.7-2.1,1-3.8,1c-1.4,0-2.6-0.2-3.6-0.7v-2.3c0.5,0.2,1,0.4,1.6,0.6
				s1.2,0.2,1.7,0.2c0.9,0,1.5-0.1,1.9-0.4c0.4-0.3,0.6-0.8,0.6-1.4c0-0.6-0.2-1-0.7-1.3c-0.5-0.2-1.2-0.4-2.3-0.4h-1v-2h1
				c1,0,1.7-0.1,2.1-0.4c0.4-0.3,0.7-0.7,0.7-1.3c0-1-0.6-1.4-1.8-1.4c-0.4,0-0.8,0.1-1.3,0.2s-0.9,0.4-1.4,0.7l-1.2-1.8
				c1.1-0.8,2.5-1.2,4.1-1.2c1.3,0,2.3,0.3,3.1,0.8C59.5,201.1,59.9,201.8,59.9,202.8z"/>
			<path id="XMLID_208_" class="st6" d="M70.3,206.2c0,2.2-0.4,3.8-1.1,4.9c-0.7,1.1-1.8,1.6-3.3,1.6c-1.4,0-2.5-0.5-3.3-1.6
				c-0.7-1.1-1.1-2.7-1.1-4.8c0-2.2,0.4-3.8,1.1-4.9c0.7-1.1,1.8-1.6,3.3-1.6c1.4,0,2.5,0.5,3.3,1.6C70,202.5,70.3,204.1,70.3,206.2
				z M64.2,206.2c0,1.5,0.1,2.6,0.4,3.3c0.3,0.7,0.7,1,1.3,1c0.6,0,1.1-0.3,1.3-1c0.3-0.7,0.4-1.8,0.4-3.3c0-1.5-0.1-2.6-0.4-3.3
				c-0.3-0.7-0.7-1-1.3-1c-0.6,0-1.1,0.3-1.3,1C64.3,203.6,64.2,204.7,64.2,206.2z"/>
			<path id="XMLID_206_" class="st6" d="M79.1,209.7c0,1-0.3,1.7-1,2.3c-0.7,0.5-1.7,0.8-3.1,0.8c-0.7,0-1.3,0-1.8-0.1
				c-0.5-0.1-1-0.2-1.4-0.4V210c0.5,0.2,1,0.4,1.6,0.6c0.6,0.2,1.1,0.2,1.6,0.2c0.9,0,1.4-0.3,1.4-0.8c0-0.2-0.1-0.4-0.2-0.5
				c-0.1-0.1-0.3-0.3-0.7-0.4c-0.3-0.2-0.7-0.4-1.2-0.6c-0.7-0.3-1.3-0.6-1.6-0.9s-0.6-0.6-0.8-0.9c-0.2-0.3-0.2-0.8-0.2-1.3
				c0-0.9,0.3-1.5,1-2c0.7-0.5,1.6-0.7,2.8-0.7c1.2,0,2.3,0.3,3.4,0.8l-0.8,1.9c-0.5-0.2-0.9-0.4-1.3-0.5c-0.4-0.1-0.8-0.2-1.3-0.2
				c-0.8,0-1.2,0.2-1.2,0.6c0,0.2,0.1,0.4,0.4,0.6c0.2,0.2,0.8,0.4,1.6,0.8c0.8,0.3,1.3,0.6,1.6,0.9c0.3,0.3,0.6,0.6,0.8,0.9
				S79.1,209.2,79.1,209.7z"/>
		</g>
	</g>
</g>
<g id="XMLID_7_">
	<rect id="XMLID_2_" x="24.5" y="243.8" class="st5" width="103" height="43"/>
	<g id="XMLID_8_">
		<g id="XMLID_211_">
			<path id="XMLID_223_" class="st6" d="M57.3,272.3h-3v-8.2l0-1.4l0-1.5c-0.5,0.5-0.8,0.8-1,1l-1.6,1.3l-1.4-1.8l4.6-3.6h2.5V272.3
				z"/>
			<path id="XMLID_220_" class="st6" d="M71.1,264.2c0,2.8-0.6,4.9-1.8,6.3c-1.2,1.4-3,2.1-5.4,2.1c-0.8,0-1.5,0-1.9-0.1V270
				c0.5,0.1,1.1,0.2,1.7,0.2c1,0,1.8-0.1,2.5-0.4c0.6-0.3,1.1-0.8,1.5-1.4c0.3-0.6,0.5-1.5,0.6-2.6h-0.1c-0.4,0.6-0.8,1-1.3,1.3
				c-0.5,0.2-1.1,0.4-1.8,0.4c-1.2,0-2.2-0.4-2.9-1.2c-0.7-0.8-1.1-1.9-1.1-3.3c0-1.5,0.4-2.7,1.3-3.6c0.9-0.9,2-1.3,3.5-1.3
				c1,0,2,0.2,2.8,0.7c0.8,0.5,1.4,1.2,1.8,2.1C70.9,261.8,71.1,262.9,71.1,264.2z M65.9,260.4c-0.6,0-1.1,0.2-1.5,0.6
				c-0.3,0.4-0.5,1-0.5,1.8c0,0.7,0.2,1.2,0.5,1.6c0.3,0.4,0.8,0.6,1.4,0.6c0.6,0,1.1-0.2,1.6-0.6c0.4-0.4,0.7-0.9,0.7-1.4
				c0-0.8-0.2-1.4-0.6-2S66.6,260.4,65.9,260.4z"/>
			<path id="XMLID_217_" class="st6" d="M82.8,269.4h-1.7v2.9h-2.9v-2.9h-6.1v-2.1l6.2-9.2h2.8v8.9h1.7V269.4z M78.2,267v-2.4
				c0-0.4,0-1,0-1.7c0-0.8,0.1-1.2,0.1-1.3h-0.1c-0.2,0.5-0.5,1-0.9,1.6l-2.6,3.9H78.2z"/>
			<path id="XMLID_214_" class="st6" d="M93.8,265.2c0,2.5-0.4,4.3-1.2,5.5c-0.8,1.2-2.1,1.8-3.8,1.8c-1.6,0-2.9-0.6-3.7-1.8
				c-0.8-1.2-1.2-3-1.2-5.4c0-2.5,0.4-4.4,1.2-5.5c0.8-1.2,2.1-1.8,3.7-1.8c1.6,0,2.9,0.6,3.7,1.9S93.8,262.8,93.8,265.2z
				 M86.9,265.2c0,1.7,0.1,3,0.5,3.7c0.3,0.8,0.8,1.1,1.5,1.1c0.7,0,1.2-0.4,1.5-1.1c0.3-0.8,0.5-2,0.5-3.7c0-1.7-0.2-3-0.5-3.8
				c-0.3-0.8-0.8-1.1-1.5-1.1c-0.7,0-1.2,0.4-1.5,1.1C87,262.2,86.9,263.5,86.9,265.2z"/>
			<path id="XMLID_212_" class="st6" d="M103.7,269.1c0,1.1-0.4,2-1.2,2.5c-0.8,0.6-1.9,0.9-3.5,0.9c-0.8,0-1.5-0.1-2-0.2
				c-0.6-0.1-1.1-0.3-1.6-0.5v-2.4c0.5,0.3,1.2,0.5,1.9,0.7c0.7,0.2,1.3,0.3,1.8,0.3c1.1,0,1.6-0.3,1.6-0.9c0-0.2-0.1-0.4-0.2-0.6
				c-0.1-0.1-0.4-0.3-0.7-0.5c-0.3-0.2-0.8-0.4-1.4-0.6c-0.8-0.3-1.4-0.7-1.8-1c-0.4-0.3-0.7-0.6-0.9-1c-0.2-0.4-0.3-0.9-0.3-1.4
				c0-1,0.4-1.7,1.1-2.2c0.7-0.5,1.8-0.8,3.2-0.8c1.3,0,2.6,0.3,3.8,0.9l-0.9,2.1c-0.5-0.2-1.1-0.4-1.5-0.6s-1-0.2-1.4-0.2
				c-0.9,0-1.3,0.2-1.3,0.7c0,0.3,0.1,0.5,0.4,0.7c0.3,0.2,0.9,0.5,1.8,0.9c0.8,0.3,1.5,0.7,1.9,1c0.4,0.3,0.7,0.6,0.9,1
				C103.6,268.1,103.7,268.6,103.7,269.1z"/>
		</g>
	</g>
</g>
</svg>
