<?xml version="1.0" encoding="utf-8"?>
<!-- Generator: Adobe Illustrator 19.0.0, SVG Export Plug-In . SVG Version: 6.00 Build 0)  -->
<svg version="1.1" id="Layer_1" xmlns="http://www.w3.org/2000/svg" xmlns:xlink="http://www.w3.org/1999/xlink" x="0px" y="0px"
	 viewBox="0 0 600 380" style="enable-background:new 0 0 600 380;" xml:space="preserve">
<style type="text/css">
	.st0{fill:#0C6B88;}
	.st1{fill:#49C2C6;}
	.st2{fill:#FFFFFF;}
	.st3{fill:#F2673A;}
	.st4{fill:#2BBAB6;}
	.st5{fill:none;stroke:#FFFFFF;stroke-miterlimit:10;stroke-dasharray:3.132;}
</style>
<rect id="XMLID_313_" class="st0" width="600" height="380"/>
<g id="XMLID_12821_">
	<path id="XMLID_12824_" class="st1" d="M198.7,314.7h-33.6v-92.1l0.3-15.1l0.5-16.6c-5.6,5.6-9.5,9.3-11.7,11L136,216.6l-16.2-20.3
		l51.3-40.8h27.7V314.7z"/>
	<path id="XMLID_12826_" class="st1" d="M353.4,235.1c0,27.8-4.6,48.4-13.7,61.7c-9.1,13.4-23.1,20-42.1,20
		c-18.4,0-32.2-6.9-41.5-20.7c-9.3-13.8-14-34.2-14-61.1c0-28.1,4.5-48.8,13.6-62.1c9.1-13.3,23-20,41.9-20c18.4,0,32.2,7,41.6,20.9
		C348.7,187.8,353.4,208.2,353.4,235.1z M275.6,235.1c0,19.5,1.7,33.5,5.1,42c3.4,8.5,9.1,12.7,17,12.7c7.8,0,13.5-4.3,17-12.8
		s5.2-22.5,5.2-41.8c0-19.5-1.8-33.6-5.3-42.1c-3.5-8.5-9.2-12.8-16.9-12.8c-7.9,0-13.6,4.3-17,12.8
		C277.3,201.5,275.6,215.6,275.6,235.1z"/>
	<path id="XMLID_12831_" class="st1" d="M453.7,314.7h-33.6v-92.1l0.3-15.1l0.5-16.6c-5.6,5.6-9.5,9.3-11.7,11L391,216.6l-16.2-20.3
		l51.3-40.8h27.7V314.7z"/>
</g>
<g id="XMLID_12515_">
	<path id="XMLID_12517_" class="st2" d="M93.8,128.1H82.9V85.7h-14v-9.1h38.8v9.1h-14V128.1z"/>
	<path id="XMLID_12522_" class="st2" d="M151.1,128.1h-10.7v-23c0-5.7-2.1-8.5-6.3-8.5c-3,0-5.2,1-6.5,3.1s-2,5.3-2,9.9v18.5h-10.7
		V73.4h10.7v11.1c0,0.9-0.1,2.9-0.2,6.1l-0.2,3.2h0.6C128,90,131.8,88,137,88c4.6,0,8.1,1.2,10.5,3.7c2.4,2.5,3.6,6,3.6,10.7V128.1z
		"/>
	<path id="XMLID_12524_" class="st2" d="M179.9,128.8c-6.3,0-11.3-1.7-14.8-5.2c-3.6-3.5-5.3-8.4-5.3-14.8c0-6.6,1.6-11.7,4.9-15.3
		c3.3-3.6,7.8-5.4,13.7-5.4c5.6,0,9.9,1.6,13,4.7s4.6,7.5,4.6,13.1v5.2h-25.3c0.1,3,1,5.4,2.7,7.1c1.7,1.7,4.1,2.6,7.1,2.6
		c2.4,0,4.6-0.2,6.7-0.7s4.3-1.3,6.6-2.4v8.3c-1.9,0.9-3.9,1.6-6,2.1S183,128.8,179.9,128.8z M178.4,95.7c-2.3,0-4.1,0.7-5.3,2.2
		s-2,3.5-2.2,6.1h15c0-2.6-0.7-4.7-2.1-6.1S180.7,95.7,178.4,95.7z M187.8,75.8c0,3.7-1.9,6-5.7,6.9l-0.4,2.5h-6.1l-0.8-5.2
		c1.8-0.3,3-0.7,3.6-1.3s0.9-1.3,0.9-2.2c0-0.8-0.2-1.3-0.7-1.7c-0.5-0.4-1.1-0.6-1.9-0.6c-1.5,0-3.2,0.3-4.9,0.8v-5.9
		c0.7-0.2,1.7-0.4,2.9-0.6c1.2-0.2,2.3-0.2,3.3-0.2c3.3,0,5.7,0.7,7.4,2S187.8,73.4,187.8,75.8z"/>
	<path id="XMLID_12528_" class="st2" d="M257.7,128.1c0,5.6-1.6,9.9-4.9,12.8s-8.2,4.4-14.7,4.4c-5.7,0-10.6-0.8-14.7-2.3v-8.6
		c4.8,2,9.9,3,15.3,3c5.5,0,8.3-3,8.3-8.9v-0.8l0.3-4.8H247c-2.5,3.9-6.2,5.8-11.1,5.8c-4.7,0-8.4-1.8-11-5.4
		c-2.6-3.6-3.9-8.6-3.9-14.8c0-6.4,1.3-11.5,4-15.1c2.7-3.6,6.4-5.4,11.1-5.4c4.8,0,8.6,1.9,11.4,5.8h0.3l0.9-5h9.1V128.1z
		 M239.7,120.4c2.9,0,4.9-0.8,6.2-2.5s1.9-4.3,1.9-8v-1.3c0-4.2-0.7-7.2-2-9.1c-1.3-1.8-3.4-2.8-6.3-2.8c-5,0-7.6,4-7.6,11.9
		c0,3.9,0.6,6.9,1.9,8.8C235.1,119.4,237,120.4,239.7,120.4z"/>
	<path id="XMLID_12531_" class="st2" d="M268.5,78.6c0-3.5,1.9-5.2,5.8-5.2s5.8,1.7,5.8,5.2c0,1.7-0.5,3-1.5,3.9
		c-1,0.9-2.4,1.4-4.4,1.4C270.4,83.9,268.5,82.1,268.5,78.6z M279.7,128.1h-10.7V88.8h10.7V128.1z"/>
	<path id="XMLID_12534_" class="st2" d="M315.9,128.1l-2.1-5.3h-0.3c-1.8,2.3-3.7,3.8-5.6,4.7s-4.4,1.3-7.5,1.3
		c-3.8,0-6.7-1.1-8.9-3.2c-2.2-2.2-3.3-5.2-3.3-9.2c0-4.2,1.5-7.2,4.4-9.2c2.9-2,7.3-3.1,13.2-3.3l6.8-0.2v-1.7c0-4-2-6-6.1-6
		c-3.1,0-6.8,0.9-11.1,2.8l-3.6-7.2c4.5-2.4,9.5-3.6,15-3.6c5.3,0,9.3,1.1,12.1,3.4c2.8,2.3,4.2,5.8,4.2,10.5v26.2H315.9z
		 M312.7,109.9l-4.1,0.1c-3.1,0.1-5.4,0.7-7,1.7c-1.5,1-2.3,2.6-2.3,4.7c0,3,1.7,4.5,5.2,4.5c2.5,0,4.5-0.7,6-2.1
		c1.5-1.4,2.2-3.3,2.2-5.7V109.9z M316.1,75.8c0,3.7-1.9,6-5.7,6.9l-0.4,2.5h-6.1l-0.8-5.2c1.8-0.3,3-0.7,3.6-1.3s0.9-1.3,0.9-2.2
		c0-0.8-0.2-1.3-0.7-1.7c-0.5-0.4-1.1-0.6-1.9-0.6c-1.5,0-3.2,0.3-4.9,0.8v-5.9c0.7-0.2,1.7-0.4,2.9-0.6c1.2-0.2,2.3-0.2,3.3-0.2
		c3.3,0,5.7,0.7,7.4,2S316.1,73.4,316.1,75.8z"/>
	<path id="XMLID_12538_" class="st2" d="M369.6,128.1h-10.7v-23c0-2.8-0.5-5-1.4-6.4c-0.9-1.4-2.4-2.1-4.5-2.1c-2.7,0-4.7,1-6,3
		c-1.2,2-1.9,5.3-1.9,9.9v18.5h-10.7V88.8h8.2l1.4,5h0.6c1.1-1.8,2.6-3.2,4.6-4.2s4.3-1.5,6.9-1.5c5.9,0,9.9,1.9,12,5.8h0.9
		c1.1-1.8,2.6-3.2,4.7-4.3c2.1-1,4.4-1.5,6.9-1.5c4.5,0,7.8,1.1,10.1,3.4s3.4,5.9,3.4,11v25.6h-10.8v-23c0-2.8-0.5-5-1.4-6.4
		c-0.9-1.4-2.4-2.1-4.5-2.1c-2.6,0-4.6,0.9-5.9,2.8c-1.3,1.9-2,4.9-2,8.9V128.1z"/>
	<path id="XMLID_12540_" class="st2" d="M458.2,128.1c0,5.6-1.6,9.9-4.9,12.8s-8.2,4.4-14.7,4.4c-5.7,0-10.6-0.8-14.7-2.3v-8.6
		c4.8,2,9.9,3,15.3,3c5.5,0,8.3-3,8.3-8.9v-0.8l0.3-4.8h-0.3c-2.5,3.9-6.2,5.8-11.1,5.8c-4.7,0-8.4-1.8-11-5.4
		c-2.6-3.6-3.9-8.6-3.9-14.8c0-6.4,1.3-11.5,4-15.1c2.7-3.6,6.4-5.4,11.1-5.4c4.8,0,8.6,1.9,11.4,5.8h0.3l0.9-5h9.1V128.1z
		 M440.1,120.4c2.9,0,4.9-0.8,6.2-2.5s1.9-4.3,1.9-8v-1.3c0-4.2-0.7-7.2-2-9.1c-1.3-1.8-3.4-2.8-6.3-2.8c-5,0-7.6,4-7.6,11.9
		c0,3.9,0.6,6.9,1.9,8.8C435.5,119.4,437.4,120.4,440.1,120.4z"/>
	<path id="XMLID_12811_" class="st2" d="M468.9,78.6c0-3.5,1.9-5.2,5.8-5.2s5.8,1.7,5.8,5.2c0,1.7-0.5,3-1.5,3.9
		c-1,0.9-2.4,1.4-4.4,1.4C470.9,83.9,468.9,82.1,468.9,78.6z M480.1,128.1h-10.7V88.8h10.7V128.1z"/>
	<path id="XMLID_12814_" class="st2" d="M516.3,128.1l-2.1-5.3h-0.3c-1.8,2.3-3.7,3.8-5.6,4.7s-4.4,1.3-7.5,1.3
		c-3.8,0-6.7-1.1-8.9-3.2c-2.2-2.2-3.3-5.2-3.3-9.2c0-4.2,1.5-7.2,4.4-9.2c2.9-2,7.3-3.1,13.2-3.3l6.8-0.2v-1.7c0-4-2-6-6.1-6
		c-3.1,0-6.8,0.9-11.1,2.8l-3.6-7.2c4.5-2.4,9.5-3.6,15-3.6c5.3,0,9.3,1.1,12.1,3.4c2.8,2.3,4.2,5.8,4.2,10.5v26.2H516.3z
		 M513.1,109.9L509,110c-3.1,0.1-5.4,0.7-7,1.7c-1.5,1-2.3,2.6-2.3,4.7c0,3,1.7,4.5,5.2,4.5c2.5,0,4.5-0.7,6-2.1
		c1.5-1.4,2.2-3.3,2.2-5.7V109.9z M501.2,84.4v-0.9c4-4.7,6.8-8.2,8.3-10.6h12v0.7c-1.2,1.2-3.3,3-6.2,5.4c-2.9,2.4-5.2,4.2-6.9,5.4
		H501.2z"/>
</g>
<circle id="XMLID_294_" class="st3" cx="91.7" cy="200.8" r="6.5"/>
<circle id="XMLID_225_" class="st3" cx="93.3" cy="184.4" r="6.5"/>
<circle id="XMLID_212_" class="st0" cx="93.3" cy="184.4" r="4.3"/>
<circle id="XMLID_207_" class="st0" cx="91.7" cy="200.8" r="4.3"/>
<path id="XMLID_141_" class="st3" d="M118.6,204.7L94.9,189l-4.7,1.2l23.2,15.3c0.4,0.2,0.7,0.4,1.2,0.6
	C115.9,206.6,117.5,206.4,118.6,204.7z"/>
<path id="XMLID_137_" class="st3" d="M117.7,188.9l-26.9,5.5l4.1,2.9l27.9-5.7c-0.4-2.1-2.1-2.7-3.7-2.8
	C118.7,188.7,118.2,188.8,117.7,188.9z"/>
<polygon id="XMLID_127_" class="st2" points="120.1,196.5 136.3,216.6 153,203.3 "/>
<polygon id="XMLID_107_" class="st4" points="120,196.2 142.5,188.7 153,203.3 "/>
<rect id="XMLID_80_" x="55.5" y="44.5" class="st5" width="489" height="291"/>
</svg>
