<!-- Generator: Adobe Illustrator 19.0.0, SVG Export Plug-In  -->
<svg version="1.1"
	 xmlns="http://www.w3.org/2000/svg" xmlns:xlink="http://www.w3.org/1999/xlink" xmlns:a="http://ns.adobe.com/AdobeSVGViewerExtensions/3.0/"
	 x="0px" y="0px" width="71.8px" height="119.9px" viewBox="0 0 71.8 119.9" style="enable-background:new 0 0 71.8 119.9;"
	 xml:space="preserve">
<style type="text/css">
	.st0{fill:#086A87;stroke:#086A87;stroke-width:0.6;stroke-miterlimit:10;}
	.st1{fill:none;stroke:#086A87;stroke-width:1.5569;stroke-linecap:round;stroke-linejoin:round;stroke-miterlimit:10;}
	.st2{fill:#FF6633;}
</style>
<defs>
</defs>
<g id="XMLID_56_">
	<g id="XMLID_58_">
		<path id="XMLID_95_" class="st0" d="M16.1,79.6h-1.1V72h-2.7V71h6.4V72h-2.7V79.6z"/>
		<path id="XMLID_93_" class="st0" d="M24.3,79.6v-4.1c0-0.5-0.1-0.9-0.3-1.2s-0.6-0.4-1.1-0.4c-0.7,0-1.1,0.2-1.4,0.5
			s-0.5,1-0.5,1.8v3.3H20v-9.1H21v2.7c0,0.4,0,0.7-0.1,0.9H21c0.2-0.3,0.5-0.6,0.8-0.7s0.7-0.3,1.2-0.3c0.8,0,1.4,0.2,1.8,0.6
			s0.6,1,0.6,1.8v4.2H24.3z"/>
		<path id="XMLID_88_" class="st0" d="M30.1,79.7c-1,0-1.7-0.3-2.3-0.9S27,77.5,27,76.4c0-1,0.3-1.9,0.8-2.5s1.2-0.9,2.1-0.9
			c0.8,0,1.5,0.3,1.9,0.8c0.5,0.5,0.7,1.2,0.7,2.1v0.6h-4.4c0,0.7,0.2,1.3,0.6,1.7s0.8,0.6,1.5,0.6c0.3,0,0.7,0,1-0.1
			s0.7-0.2,1.1-0.4v0.9c-0.4,0.2-0.7,0.3-1,0.3S30.5,79.7,30.1,79.7z M31.6,72.3H31c-0.4-0.3-0.8-0.6-1.2-1c-0.4,0.4-0.9,0.7-1.2,1
			h-0.6v-0.1c0.2-0.2,0.4-0.5,0.6-0.7s0.4-0.5,0.6-0.8h1.1c0.3,0.4,0.7,0.9,1.3,1.5V72.3z M29.8,73.9c-0.5,0-0.9,0.2-1.2,0.5
			s-0.5,0.8-0.5,1.4h3.3c0-0.6-0.1-1.1-0.4-1.4S30.3,73.9,29.8,73.9z M32.6,70c0,0.4-0.2,0.7-0.7,0.8l0,0.5h-0.5l-0.1-0.8
			c0.2,0,0.4-0.1,0.5-0.1S32,70.2,32,70c0-0.2-0.2-0.4-0.6-0.4c-0.2,0-0.3,0-0.4,0v-0.5c0.1,0,0.3,0,0.5,0
			C32.2,69.2,32.6,69.4,32.6,70z"/>
		<path id="XMLID_85_" class="st0" d="M39.5,79.7c-0.8,0-1.5-0.3-1.9-0.9s-0.7-1.4-0.7-2.5c0-1.1,0.2-1.9,0.7-2.5s1.1-0.9,2-0.9
			c0.9,0,1.5,0.3,2,0.9h0.1c0-0.1,0-0.2,0-0.5s0-0.4,0-0.5v-2.6h1.1v9.1h-0.8l-0.2-0.9h0C41.1,79.4,40.4,79.7,39.5,79.7z M39.7,78.8
			c0.6,0,1.1-0.2,1.4-0.5s0.4-0.9,0.4-1.7v-0.2c0-0.9-0.1-1.5-0.4-1.9s-0.8-0.6-1.4-0.6c-0.5,0-1,0.2-1.3,0.6s-0.4,1-0.4,1.8
			c0,0.8,0.1,1.4,0.4,1.8S39.2,78.8,39.7,78.8z"/>
		<path id="XMLID_82_" class="st0" d="M45.6,73.2v4.1c0,0.5,0.1,0.9,0.3,1.2s0.6,0.4,1.1,0.4c0.7,0,1.1-0.2,1.4-0.6s0.5-1,0.5-1.8
			v-3.4H50v6.4h-0.9L49,78.8h-0.1c-0.2,0.3-0.5,0.5-0.8,0.7s-0.8,0.3-1.2,0.3c-0.8,0-1.4-0.2-1.7-0.6s-0.6-1-0.6-1.8v-4.2H45.6z
			 M46.6,81c0-0.2,0.1-0.4,0.2-0.5s0.3-0.2,0.4-0.2c0.2,0,0.3,0.1,0.4,0.2s0.2,0.3,0.2,0.5c0,0.2-0.1,0.4-0.2,0.5s-0.3,0.2-0.4,0.2
			c-0.2,0-0.3-0.1-0.5-0.2S46.6,81.3,46.6,81z"/>
		<path id="XMLID_80_" class="st0" d="M54.6,79.7c-0.9,0-1.6-0.3-2.2-0.9s-0.8-1.4-0.8-2.4c0-1.1,0.3-1.9,0.8-2.5s1.3-0.9,2.2-0.9
			c0.3,0,0.6,0,0.9,0.1s0.6,0.1,0.8,0.2l-0.3,0.9c-0.5-0.2-1-0.3-1.4-0.3c-0.6,0-1.1,0.2-1.4,0.6s-0.5,1-0.5,1.8
			c0,0.8,0.2,1.4,0.5,1.8s0.8,0.6,1.4,0.6c0.6,0,1.1-0.1,1.7-0.4v0.9C55.9,79.6,55.3,79.7,54.6,79.7z"/>
		<path id="XMLID_78_" class="st0" d="M59,78.2l0.1,0.1c-0.2,0.8-0.6,1.8-1,2.8h-0.8c0.3-1,0.5-2,0.6-2.9H59z"/>
		<path id="XMLID_76_" class="st0" d="M15.6,93.3c0.1,0,0.3,0,0.5,0s0.3-0.1,0.4-0.1v0.8c-0.1,0-0.2,0.1-0.5,0.1s-0.4,0.1-0.6,0.1
			c-1.3,0-1.9-0.7-1.9-2v-3.7h-0.9v-0.5l0.9-0.4l0.4-1.4h0.6v1.5h1.9v0.8h-1.9v3.7c0,0.4,0.1,0.7,0.3,0.9S15.3,93.3,15.6,93.3z"/>
		<path id="XMLID_74_" class="st0" d="M22.2,94v-4.1c0-0.5-0.1-0.9-0.3-1.2s-0.6-0.4-1.1-0.4c-0.7,0-1.1,0.2-1.4,0.5s-0.5,1-0.5,1.8
			V94h-1.1v-9.1h1.1v2.7c0,0.4,0,0.7-0.1,0.9h0.1c0.2-0.3,0.5-0.6,0.8-0.7s0.7-0.3,1.2-0.3c0.8,0,1.4,0.2,1.8,0.6s0.6,1,0.6,1.8V94
			H22.2z"/>
		<path id="XMLID_69_" class="st0" d="M28,94.1c-1,0-1.7-0.3-2.3-0.9s-0.8-1.4-0.8-2.4c0-1,0.3-1.9,0.8-2.5s1.2-0.9,2.1-0.9
			c0.8,0,1.5,0.3,1.9,0.8s0.7,1.2,0.7,2.1V91H26c0,0.7,0.2,1.3,0.6,1.7s0.8,0.6,1.5,0.6c0.3,0,0.7,0,1-0.1s0.7-0.2,1.1-0.4v0.9
			c-0.4,0.2-0.7,0.3-1,0.3S28.4,94.1,28,94.1z M29.4,86.7h-0.6c-0.4-0.3-0.8-0.6-1.2-1c-0.4,0.4-0.9,0.7-1.2,1h-0.6v-0.1
			c0.2-0.2,0.4-0.5,0.6-0.7s0.4-0.5,0.6-0.8h1.1c0.3,0.4,0.7,0.9,1.3,1.5V86.7z M27.7,88.3c-0.5,0-0.9,0.2-1.2,0.5S26,89.6,26,90.2
			h3.3c0-0.6-0.1-1.1-0.4-1.4S28.2,88.3,27.7,88.3z M30.5,84.4c0,0.4-0.2,0.7-0.7,0.8l0,0.5h-0.5l-0.1-0.8c0.2,0,0.4-0.1,0.5-0.1
			s0.2-0.2,0.2-0.3c0-0.2-0.2-0.4-0.6-0.4c-0.2,0-0.3,0-0.4,0v-0.5c0.1,0,0.3,0,0.5,0C30.1,83.6,30.5,83.8,30.5,84.4z"/>
		<path id="XMLID_67_" class="st0" d="M37.3,93.3c0.1,0,0.3,0,0.5,0s0.3-0.1,0.4-0.1v0.8c-0.1,0-0.2,0.1-0.5,0.1s-0.4,0.1-0.6,0.1
			c-1.3,0-1.9-0.7-1.9-2v-3.7h-0.9v-0.5l0.9-0.4l0.4-1.4h0.6v1.5h1.9v0.8h-1.9v3.7c0,0.4,0.1,0.7,0.3,0.9S36.9,93.3,37.3,93.3z"/>
		<path id="XMLID_65_" class="st0" d="M43.8,94v-4.1c0-0.5-0.1-0.9-0.3-1.2s-0.6-0.4-1.1-0.4c-0.7,0-1.1,0.2-1.4,0.5s-0.5,1-0.5,1.8
			V94h-1.1v-9.1h1.1v2.7c0,0.4,0,0.7-0.1,0.9h0.1c0.2-0.3,0.5-0.6,0.8-0.7s0.7-0.3,1.2-0.3c0.8,0,1.4,0.2,1.8,0.6s0.6,1,0.6,1.8V94
			H43.8z"/>
		<path id="XMLID_62_" class="st0" d="M50.8,94l-0.2-0.9h0c-0.3,0.4-0.6,0.7-1,0.8s-0.7,0.2-1.2,0.2c-0.6,0-1.1-0.2-1.5-0.5
			s-0.5-0.8-0.5-1.4c0-1.3,1-2,3.1-2.1l1.1,0v-0.4c0-0.5-0.1-0.8-0.3-1.1s-0.5-0.3-1-0.3c-0.3,0-0.7,0.1-1,0.2s-0.6,0.2-0.9,0.3
			L47.1,88c0.3-0.2,0.7-0.3,1.1-0.4s0.8-0.1,1.1-0.1c0.8,0,1.4,0.2,1.7,0.5s0.6,0.9,0.6,1.6V94H50.8z M48.7,93.3
			c0.6,0,1.1-0.2,1.4-0.5s0.5-0.8,0.5-1.4v-0.6l-0.9,0c-0.7,0-1.3,0.1-1.6,0.4s-0.5,0.5-0.5,1c0,0.3,0.1,0.6,0.3,0.8
			S48.3,93.3,48.7,93.3z"/>
		<path id="XMLID_59_" class="st0" d="M59.2,90.8c0,1.1-0.3,1.9-0.8,2.5s-1.3,0.9-2.2,0.9c-0.6,0-1.1-0.1-1.5-0.4s-0.8-0.7-1-1.2
			s-0.4-1.1-0.4-1.8c0-1,0.3-1.9,0.8-2.4s1.3-0.9,2.2-0.9c0.9,0,1.6,0.3,2.2,0.9S59.2,89.8,59.2,90.8z M54.3,90.8
			c0,0.8,0.2,1.4,0.5,1.8s0.8,0.6,1.4,0.6c0.6,0,1.1-0.2,1.4-0.6s0.5-1,0.5-1.8s-0.2-1.4-0.5-1.8s-0.8-0.6-1.4-0.6
			C54.9,88.3,54.3,89.2,54.3,90.8z"/>
	</g>
</g>
<g id="XMLID_32_">
	<g id="XMLID_51_">
		
			<ellipse id="XMLID_55_" transform="matrix(0.7071 0.7071 -0.7071 0.7071 25.1257 -23.1262)" class="st1" cx="40.5" cy="18.8" rx="17" ry="18.9"/>
		<path id="XMLID_54_" class="st1" d="M3.2,58l-2-2c-0.6-0.6-0.6-1.6,0-2.2l11.7-11.7c0.6-0.6,1.6-0.6,2.2,0l2,2
			c0.6,0.6,0.6,1.6,0,2.2L5.4,58C4.8,58.6,3.8,58.6,3.2,58z"/>
		<path id="XMLID_53_" class="st1" d="M22.5,20.7c0,0,0.1,15.9-8.4,24.4"/>
		<path id="XMLID_52_" class="st1" d="M38.5,36.8c0,0-15.9-0.1-24.4,8.4"/>
	</g>
	<path id="XMLID_50_" class="st1" d="M39.4,55.8c-1.4,1.4-3.4,2.1-5.3,1.9c-1.4-0.2-2.8-0.8-3.9-1.9c-1.1-1.1-1.7-2.5-1.9-4
		c-0.2-1.8,0.5-3.8,1.9-5.2c1.4-1.4,3.3-2,5.2-1.9c1.5,0.1,2.9,0.8,4,1.9c1.1,1.1,1.7,2.5,1.9,3.9C41.5,52.5,40.9,54.4,39.4,55.8z"
		/>
	<path id="XMLID_49_" class="st1" d="M33.5,49.9c-1.4,1.4-3.3,2-5.2,1.9c-0.2-1.8,0.5-3.8,1.9-5.2c1.4-1.4,3.3-2,5.2-1.9
		C35.6,46.6,34.9,48.5,33.5,49.9z"/>
	<path id="XMLID_48_" class="st1" d="M39.4,55.8c-1.4,1.4-3.4,2.1-5.3,1.9c-0.2-1.9,0.4-3.8,1.9-5.3s3.4-2.1,5.3-1.9
		C41.5,52.5,40.9,54.4,39.4,55.8z"/>
	<line id="XMLID_47_" class="st1" x1="8.3" y1="46.9" x2="14.7" y2="48.8"/>
	<line id="XMLID_46_" class="st1" x1="4.8" y1="50.2" x2="11.2" y2="52.1"/>
	<polyline id="XMLID_45_" class="st1" points="41.8,4.4 42.8,5.4 45.8,8.4 48.4,11 51.4,14 54.3,16.9 55,17.6 	"/>
	<polyline id="XMLID_44_" class="st1" points="37.4,5.2 40.3,8 43.2,11 45.8,13.6 48.8,16.5 51.8,19.5 54.2,21.9 	"/>
	<polyline id="XMLID_43_" class="st1" points="33.9,6.8 37.7,10.5 40.7,13.5 43.3,16.1 46.3,19.1 49.2,22.1 52.6,25.4 	"/>
	<polyline id="XMLID_42_" class="st1" points="31.1,9 35.1,13.1 38.1,16.1 40.7,18.7 43.7,21.6 46.7,24.6 50.4,28.3 	"/>
	<polyline id="XMLID_41_" class="st1" points="28.7,11.8 32.6,15.7 35.6,18.6 38.2,21.2 41.1,24.2 44.1,27.2 47.6,30.6 	"/>
	<polyline id="XMLID_40_" class="st1" points="27,15.2 30,18.2 33,21.2 35.6,23.8 38.6,26.8 41.5,29.7 44.2,32.4 	"/>
	<polyline id="XMLID_39_" class="st1" points="26.1,19.4 27.5,20.8 30.4,23.7 33.1,26.3 36,29.3 39,32.3 40,33.3 	"/>
	
		<ellipse id="XMLID_38_" transform="matrix(0.7071 0.7071 -0.7071 0.7071 25.1983 -23.1564)" class="st1" cx="40.6" cy="18.8" rx="14" ry="15.6"/>
	<polyline id="XMLID_37_" class="st1" points="29.8,29.6 33.1,26.3 35.6,23.8 38.2,21.2 40.7,18.7 43.3,16.1 45.8,13.6 48.4,11 
		51.3,8.1 	"/>
	<polyline id="XMLID_36_" class="st1" points="33.3,32.1 36,29.3 38.6,26.8 41.1,24.2 43.7,21.6 46.3,19.1 48.8,16.5 51.4,14 
		53.7,11.6 	"/>
	<polyline id="XMLID_35_" class="st1" points="38,33.3 39,32.3 41.5,29.7 44.1,27.2 46.7,24.6 49.2,22.1 51.8,19.5 54.3,16.9 
		54.9,16.3 	"/>
	<polyline id="XMLID_34_" class="st1" points="26.2,22.1 27.5,20.8 30,18.2 32.6,15.7 35.1,13.1 37.7,10.5 40.3,8 42.8,5.4 
		43.7,4.5 	"/>
	<polyline id="XMLID_33_" class="st1" points="27.6,26.6 30.4,23.7 33,21.2 35.6,18.6 38.1,16.1 40.7,13.5 43.2,11 45.8,8.4 
		48.3,5.9 	"/>
</g>
<g id="XMLID_15_">
	<path id="XMLID_30_" class="st2" d="M10.7,119.8h-3v-8.4L8,110l0.2-1.5c-0.5,0.5-0.8,0.8-1,1l-1.6,1.3l-1.4-1.6l4.6-3.5h2V119.8z"
		/>
	<path id="XMLID_28_" class="st2" d="M24.6,108.6c0,0.9-0.2,1.7-0.7,2.3c-0.5,0.6-1.2,1.1-2.2,1.3v0.1c1,0.1,1.9,0.5,2.5,1
		c0.6,0.6,0.8,1.3,0.8,2.3c0,1.4-0.5,2.4-1.5,3.2s-2.6,1.1-4.5,1.1c-1.5,0-2.3-0.3-4.3-0.8v-2.6c1,0.3,1.4,0.5,2,0.7
		s1.4,0.3,2.1,0.3c1,0,1.8-0.2,2.3-0.5c0.5-0.3,0.7-0.9,0.7-1.6c0-0.7-0.3-1-0.8-1.3s-1.4-0.3-2.6-0.3h-0.7v-3h0.7
		c1.1,0,1.9,0,2.4-0.2c0.5-0.3,0.8-0.7,0.8-1.4c0-1.1-0.7-1.6-2-1.6c-0.5,0-0.9,0.1-1.4,0.3c-0.5,0.2-1,0.4-1.6,0.8l-1.4-2.1
		c1.3-0.9,2.9-1.4,4.7-1.4c1.5,0,2.6,0.3,3.5,0.9C24.2,106.7,24.6,107.5,24.6,108.6z"/>
	<path id="XMLID_26_" class="st2" d="M27,118.3c0-0.5,0.1-1,0.4-1.2s0.7-0.4,1.3-0.4c0.5,0,1,0.1,1.3,0.4c0.3,0.3,0.4,0.7,0.4,1.2
		c0,0.5-0.1,0.9-0.4,1.2c-0.3,0.3-0.7,0.4-1.3,0.4c-0.5,0-1-0.1-1.3-0.4C27.1,119.2,27,118.8,27,118.3z"/>
	<path id="XMLID_24_" class="st2" d="M37.5,110.5c1.4,0,2.5,0.4,3.3,1.2c0.8,0.8,1.2,1.8,1.2,3.2c0,1.6-0.5,2.8-1.5,3.7
		c-1,0.9-2.3,1.3-4.1,1.3c-1.6,0-2.7-0.3-3.7-0.8v-2.6c0,0.3,1,0.5,1.7,0.7s1.3,0.3,1.9,0.3c1.8,0,2.7-0.8,2.7-2.3
		c0-1.4-1-2.2-2.9-2.2c-0.3,0-0.7,0-1.1,0.1c-0.4,0.1-0.8,0.1-1,0.2l-1.2-0.4l0.5-7.1h7.4v2H36l-0.3,2.9l0.3,0
		C36.5,110.5,36.9,110.5,37.5,110.5z"/>
	<path id="XMLID_22_" class="st2" d="M50.7,119.8h-3v-8.4L48,110l0.2-1.5c-0.5,0.5-0.8,0.8-1,1l-1.6,1.3l-1.4-1.6l4.6-3.5h2V119.8z"
		/>
	<path id="XMLID_16_" class="st2" d="M61.8,109.6c0,1.5-0.3,2.6-0.9,3.4c-0.6,0.8-1.4,1.1-2.5,1.1c-1.1,0-1.9-0.4-2.5-1.2
		s-0.9-1.9-0.9-3.3c0-3,1.1-4.5,3.4-4.5c1.1,0,1.9,0.4,2.5,1.2C61.5,107.1,61.8,108.2,61.8,109.6z M57.5,109.7
		c0,0.8,0.1,1.4,0.2,1.9s0.4,0.6,0.7,0.6c0.6,0,0.9-0.8,0.9-2.5c0-1.6-0.3-2.4-0.9-2.4c-0.3,0-0.6,0.2-0.7,0.6
		S57.5,108.8,57.5,109.7z M68.5,105.8l-7.9,14h-2.3l7.9-14H68.5z M71.8,115.3c0,1.5-0.3,2.6-0.9,3.4c-0.6,0.8-1.4,1.1-2.5,1.1
		c-1.1,0-1.9-0.4-2.5-1.2s-0.9-1.9-0.9-3.3c0-3,1.1-4.5,3.4-4.5c1.1,0,1.9,0.4,2.5,1.2C71.5,112.8,71.8,113.9,71.8,115.3z
		 M67.5,115.4c0,0.8,0.1,1.4,0.2,1.9s0.4,0.6,0.7,0.6c0.6,0,0.9-0.8,0.9-2.5c0-1.6-0.3-2.4-0.9-2.4c-0.3,0-0.6,0.2-0.7,0.6
		S67.5,114.5,67.5,115.4z"/>
</g>
</svg>