<!-- Generator: Adobe Illustrator 19.0.0, SVG Export Plug-In  -->
<svg version="1.1"
	 xmlns="http://www.w3.org/2000/svg" xmlns:xlink="http://www.w3.org/1999/xlink" xmlns:a="http://ns.adobe.com/AdobeSVGViewerExtensions/3.0/"
	 x="0px" y="0px" width="316.6px" height="260px" viewBox="0 0 316.6 260" style="enable-background:new 0 0 316.6 260;"
	 xml:space="preserve">
<style type="text/css">
	.st0{fill:none;}
	.st1{fill:#086A87;}
	.st2{fill:none;stroke:#33CCCC;stroke-miterlimit:10;}
	.st3{fill:#33CCCC;}
	.st4{fill:#086A87;stroke:#086A87;stroke-width:0.2;stroke-miterlimit:10;}
</style>
<defs>
</defs>
<path id="XMLID_551_" class="st0" d="M296,247.8"/>
<g id="XMLID_514_">
	<g id="XMLID_516_">
		<path id="XMLID_532_" class="st1" d="M4.9,7.5H0V6.8l1.9-2c0.6-0.6,1-1,1.2-1.3C3.3,3.3,3.4,3,3.5,2.8C3.6,2.6,3.7,2.3,3.7,2
			c0-0.4-0.1-0.7-0.3-0.9c-0.2-0.2-0.6-0.3-1-0.3c-0.3,0-0.6,0.1-0.9,0.2S0.9,1.2,0.6,1.5L0.1,0.9C0.8,0.3,1.5,0,2.4,0
			C3,0,3.6,0.2,4,0.5C4.4,0.9,4.6,1.4,4.6,2c0,0.3-0.1,0.6-0.2,0.9C4.3,3.2,4.1,3.5,3.9,3.8S3.3,4.6,2.7,5.1L1.2,6.6v0h3.7V7.5z"/>
		<path id="XMLID_530_" class="st1" d="M10.6,1.8c0,0.5-0.1,0.9-0.4,1.2C9.9,3.3,9.5,3.5,9,3.6v0c0.6,0.1,1,0.3,1.3,0.6
			c0.3,0.3,0.4,0.7,0.4,1.2c0,0.7-0.2,1.3-0.7,1.6C9.6,7.4,8.9,7.6,7.9,7.6c-0.4,0-0.8,0-1.1-0.1c-0.3-0.1-0.6-0.2-1-0.3V6.4
			c0.3,0.2,0.7,0.3,1,0.4c0.4,0.1,0.7,0.1,1,0.1c1.3,0,1.9-0.5,1.9-1.5c0-0.9-0.7-1.3-2.1-1.3H7V3.3h0.7c0.6,0,1-0.1,1.4-0.4
			c0.3-0.2,0.5-0.6,0.5-1c0-0.4-0.1-0.6-0.4-0.8s-0.6-0.3-1-0.3c-0.3,0-0.6,0-0.9,0.1C7.1,1,6.8,1.2,6.4,1.4L5.9,0.8
			C6.2,0.5,6.6,0.3,7,0.2C7.4,0.1,7.8,0,8.3,0C9,0,9.5,0.2,10,0.5S10.6,1.3,10.6,1.8z"/>
		<path id="XMLID_528_" class="st1" d="M12.1,7c0-0.2,0.1-0.4,0.2-0.5c0.1-0.1,0.3-0.2,0.5-0.2c0.2,0,0.4,0.1,0.5,0.2
			s0.2,0.3,0.2,0.5c0,0.2-0.1,0.4-0.2,0.5c-0.1,0.1-0.3,0.2-0.5,0.2c-0.2,0-0.4-0.1-0.5-0.2S12.1,7.2,12.1,7z"/>
		<path id="XMLID_525_" class="st1" d="M19.9,5.8h-1.1v1.7h-0.9V5.8h-3.5V5.1l3.5-5h0.9V5h1.1V5.8z M17.9,5V2.7c0-0.5,0-1,0.1-1.6h0
			c0,0.1-0.1,0.2-0.2,0.4s-0.2,0.3-0.3,0.4L15.3,5H17.9z"/>
		<path id="XMLID_523_" class="st1" d="M21.5,7.5l3-6.6h-4V0.1h5v0.7l-3,6.7H21.5z"/>
		<path id="XMLID_517_" class="st1" d="M29.6,2.3c0,0.8-0.1,1.4-0.4,1.7c-0.3,0.4-0.7,0.6-1.2,0.6c-0.5,0-0.9-0.2-1.1-0.6
			c-0.3-0.4-0.4-1-0.4-1.7c0-0.8,0.1-1.4,0.4-1.7C27.2,0.2,27.6,0,28,0c0.5,0,0.9,0.2,1.2,0.6S29.6,1.6,29.6,2.3z M27.3,2.3
			c0,0.6,0.1,1,0.2,1.3C27.6,3.9,27.8,4,28,4c0.5,0,0.8-0.6,0.8-1.7c0-1.1-0.3-1.7-0.8-1.7c-0.3,0-0.5,0.1-0.6,0.4
			C27.4,1.3,27.3,1.8,27.3,2.3z M32.8,0.1l-4.1,7.4h-0.8L32,0.1H32.8z M34.1,5.3c0,0.8-0.1,1.3-0.4,1.7c-0.3,0.4-0.7,0.6-1.2,0.6
			c-0.5,0-0.9-0.2-1.1-0.6c-0.3-0.4-0.4-1-0.4-1.7c0-0.8,0.1-1.4,0.4-1.7C31.7,3.2,32.1,3,32.6,3c0.5,0,0.9,0.2,1.2,0.6
			C34,4,34.1,4.5,34.1,5.3z M31.8,5.3c0,0.6,0.1,1,0.2,1.3C32.1,6.8,32.3,7,32.6,7c0.3,0,0.5-0.1,0.6-0.4c0.1-0.3,0.2-0.7,0.2-1.3
			c0-1.1-0.3-1.7-0.8-1.7c-0.3,0-0.5,0.1-0.6,0.4C31.9,4.3,31.8,4.7,31.8,5.3z"/>
	</g>
</g>
<g id="XMLID_479_">
	<g id="XMLID_481_">
		<path id="XMLID_495_" class="st1" d="M65.3,5.8h-1.1v1.7h-0.9V5.8h-3.5V5.1l3.5-5h0.9V5h1.1V5.8z M63.3,5V2.7c0-0.5,0-1,0.1-1.6h0
			c0,0.1-0.1,0.2-0.2,0.4S63,1.7,62.9,1.9L60.7,5H63.3z"/>
		<path id="XMLID_493_" class="st1" d="M66.9,7.5l3-6.6h-4V0.1h5v0.7l-3,6.7H66.9z"/>
		<path id="XMLID_491_" class="st1" d="M72.2,7c0-0.2,0.1-0.4,0.2-0.5c0.1-0.1,0.3-0.2,0.5-0.2c0.2,0,0.4,0.1,0.5,0.2
			c0.1,0.1,0.2,0.3,0.2,0.5c0,0.2-0.1,0.4-0.2,0.5c-0.1,0.1-0.3,0.2-0.5,0.2c-0.2,0-0.4-0.1-0.5-0.2C72.2,7.4,72.2,7.2,72.2,7z"/>
		<path id="XMLID_488_" class="st1" d="M74.8,4.3c0-2.9,1.1-4.3,3.4-4.3c0.4,0,0.7,0,0.9,0.1v0.8c-0.3-0.1-0.6-0.1-0.9-0.1
			c-0.8,0-1.4,0.2-1.8,0.7C76,2,75.7,2.7,75.7,3.8h0.1c0.4-0.6,1-0.9,1.8-0.9c0.7,0,1.2,0.2,1.6,0.6s0.6,1,0.6,1.6
			c0,0.8-0.2,1.4-0.6,1.8c-0.4,0.4-1,0.7-1.7,0.7c-0.5,0-1-0.1-1.3-0.4s-0.7-0.6-0.9-1.1C74.9,5.6,74.8,5,74.8,4.3z M77.3,6.9
			c0.5,0,0.8-0.2,1.1-0.5c0.3-0.3,0.4-0.7,0.4-1.3c0-0.5-0.1-0.9-0.4-1.1c-0.2-0.3-0.6-0.4-1.1-0.4c-0.3,0-0.6,0.1-0.8,0.2
			c-0.2,0.1-0.4,0.3-0.6,0.5S75.7,4.7,75.7,5c0,0.3,0.1,0.7,0.2,1s0.3,0.5,0.6,0.7S77,6.9,77.3,6.9z"/>
		<path id="XMLID_482_" class="st1" d="M83.7,2.3c0,0.8-0.1,1.4-0.4,1.7c-0.3,0.4-0.7,0.6-1.2,0.6c-0.5,0-0.9-0.2-1.1-0.6
			c-0.3-0.4-0.4-1-0.4-1.7c0-0.8,0.1-1.4,0.4-1.7C81.3,0.2,81.7,0,82.2,0c0.5,0,0.9,0.2,1.2,0.6C83.6,1,83.7,1.6,83.7,2.3z
			 M81.4,2.3c0,0.6,0.1,1,0.2,1.3S81.9,4,82.2,4C82.7,4,83,3.4,83,2.3c0-1.1-0.3-1.7-0.8-1.7c-0.3,0-0.5,0.1-0.6,0.4
			C81.5,1.3,81.4,1.8,81.4,2.3z M86.9,0.1l-4.1,7.4H82l4.1-7.4H86.9z M88.3,5.3c0,0.8-0.1,1.3-0.4,1.7c-0.3,0.4-0.7,0.6-1.2,0.6
			c-0.5,0-0.9-0.2-1.1-0.6c-0.3-0.4-0.4-1-0.4-1.7c0-0.8,0.1-1.4,0.4-1.7C85.8,3.2,86.2,3,86.7,3c0.5,0,0.9,0.2,1.2,0.6
			S88.3,4.5,88.3,5.3z M86,5.3c0,0.6,0.1,1,0.2,1.3C86.3,6.8,86.4,7,86.7,7c0.3,0,0.5-0.1,0.6-0.4s0.2-0.7,0.2-1.3
			c0-1.1-0.3-1.7-0.8-1.7c-0.3,0-0.5,0.1-0.6,0.4C86,4.3,86,4.7,86,5.3z"/>
	</g>
</g>
<g id="XMLID_440_">
	<g id="XMLID_442_">
		<path id="XMLID_459_" class="st1" d="M117.4,7.5h-0.9V2.3c0-0.5,0-0.9,0-1.3c-0.1,0.1-0.2,0.2-0.3,0.3c-0.3,0.3-0.7,0.6-1.1,0.9
			l-0.5-0.6l2-1.6h0.8V7.5z"/>
		<path id="XMLID_455_" class="st1" d="M122.6,0c0.7,0,1.2,0.2,1.6,0.5c0.4,0.3,0.6,0.7,0.6,1.3c0,0.4-0.1,0.7-0.3,1
			s-0.6,0.6-1.1,0.8c0.6,0.3,1,0.6,1.3,0.9c0.3,0.3,0.4,0.7,0.4,1.1c0,0.6-0.2,1.1-0.7,1.5c-0.4,0.4-1,0.5-1.8,0.5
			c-0.8,0-1.4-0.2-1.8-0.5c-0.4-0.3-0.6-0.8-0.6-1.5c0-0.8,0.5-1.5,1.5-2c-0.5-0.3-0.8-0.5-1-0.9c-0.2-0.3-0.3-0.6-0.3-1
			c0-0.5,0.2-1,0.6-1.3C121.4,0.2,121.9,0,122.6,0z M121,5.6c0,0.4,0.1,0.7,0.4,0.9c0.3,0.2,0.7,0.3,1.2,0.3c0.5,0,0.9-0.1,1.1-0.3
			c0.3-0.2,0.4-0.5,0.4-0.9c0-0.3-0.1-0.6-0.4-0.9c-0.3-0.3-0.7-0.5-1.3-0.7c-0.5,0.2-0.8,0.4-1.1,0.7S121,5.3,121,5.6z M122.6,0.7
			c-0.4,0-0.7,0.1-1,0.3c-0.2,0.2-0.4,0.5-0.4,0.8c0,0.2,0,0.4,0.1,0.6c0.1,0.2,0.2,0.3,0.4,0.4c0.2,0.1,0.4,0.3,0.8,0.4
			c0.5-0.2,0.8-0.4,1-0.6s0.3-0.5,0.3-0.8c0-0.3-0.1-0.6-0.4-0.8C123.3,0.8,123,0.7,122.6,0.7z"/>
		<path id="XMLID_453_" class="st1" d="M126.3,7c0-0.2,0.1-0.4,0.2-0.5c0.1-0.1,0.3-0.2,0.5-0.2c0.2,0,0.4,0.1,0.5,0.2
			c0.1,0.1,0.2,0.3,0.2,0.5c0,0.2-0.1,0.4-0.2,0.5s-0.3,0.2-0.5,0.2c-0.2,0-0.4-0.1-0.5-0.2S126.3,7.2,126.3,7z"/>
		<path id="XMLID_451_" class="st1" d="M132,7.5h-0.9V2.3c0-0.5,0-0.9,0-1.3c-0.1,0.1-0.2,0.2-0.3,0.3c-0.3,0.3-0.7,0.6-1.1,0.9
			l-0.5-0.6l2-1.6h0.8V7.5z"/>
		<path id="XMLID_449_" class="st1" d="M137.1,3c0.8,0,1.4,0.2,1.8,0.6s0.7,0.9,0.7,1.6c0,0.8-0.2,1.4-0.7,1.8
			c-0.5,0.4-1.2,0.7-2,0.7c-0.8,0-1.5-0.1-1.9-0.4V6.4c0.3,0.1,0.6,0.3,0.9,0.4s0.7,0.1,1,0.1c0.6,0,1-0.1,1.3-0.4
			c0.3-0.3,0.5-0.7,0.5-1.2c0-1-0.6-1.5-1.9-1.5c-0.4,0-0.8,0.1-1.3,0.2l-0.5-0.3l0.3-3.5h3.7v0.8h-2.9L136,3.1
			C136.4,3,136.8,3,137.1,3z"/>
		<path id="XMLID_443_" class="st1" d="M143.8,2.3c0,0.8-0.1,1.4-0.4,1.7c-0.3,0.4-0.7,0.6-1.2,0.6c-0.5,0-0.9-0.2-1.1-0.6
			c-0.3-0.4-0.4-1-0.4-1.7c0-0.8,0.1-1.4,0.4-1.7c0.3-0.4,0.6-0.6,1.1-0.6c0.5,0,0.9,0.2,1.2,0.6S143.8,1.6,143.8,2.3z M141.5,2.3
			c0,0.6,0.1,1,0.2,1.3c0.1,0.3,0.3,0.4,0.6,0.4c0.5,0,0.8-0.6,0.8-1.7c0-1.1-0.3-1.7-0.8-1.7c-0.3,0-0.5,0.1-0.6,0.4
			C141.5,1.3,141.5,1.8,141.5,2.3z M147,0.1l-4.1,7.4h-0.8l4.1-7.4H147z M148.3,5.3c0,0.8-0.1,1.3-0.4,1.7c-0.3,0.4-0.7,0.6-1.2,0.6
			c-0.5,0-0.9-0.2-1.1-0.6c-0.3-0.4-0.4-1-0.4-1.7c0-0.8,0.1-1.4,0.4-1.7c0.3-0.4,0.6-0.6,1.1-0.6c0.5,0,0.9,0.2,1.2,0.6
			C148.2,4,148.3,4.5,148.3,5.3z M146,5.3c0,0.6,0.1,1,0.2,1.3c0.1,0.3,0.3,0.4,0.6,0.4c0.3,0,0.5-0.1,0.6-0.4
			c0.1-0.3,0.2-0.7,0.2-1.3c0-1.1-0.3-1.7-0.8-1.7c-0.3,0-0.5,0.1-0.6,0.4C146.1,4.3,146,4.7,146,5.3z"/>
	</g>
</g>
<g id="XMLID_405_">
	<g id="XMLID_407_">
		<path id="XMLID_421_" class="st1" d="M174.3,4.3c0-2.9,1.1-4.3,3.4-4.3c0.4,0,0.7,0,0.9,0.1v0.8c-0.3-0.1-0.6-0.1-0.9-0.1
			c-0.8,0-1.4,0.2-1.8,0.7c-0.4,0.5-0.6,1.2-0.7,2.3h0.1c0.4-0.6,1-0.9,1.8-0.9c0.7,0,1.2,0.2,1.6,0.6s0.6,1,0.6,1.6
			c0,0.8-0.2,1.4-0.6,1.8s-1,0.7-1.7,0.7c-0.5,0-1-0.1-1.3-0.4s-0.7-0.6-0.9-1.1S174.3,5,174.3,4.3z M176.8,6.9
			c0.5,0,0.8-0.2,1.1-0.5c0.3-0.3,0.4-0.7,0.4-1.3c0-0.5-0.1-0.9-0.4-1.1c-0.2-0.3-0.6-0.4-1.1-0.4c-0.3,0-0.6,0.1-0.8,0.2
			c-0.2,0.1-0.4,0.3-0.6,0.5s-0.2,0.4-0.2,0.7c0,0.3,0.1,0.7,0.2,1s0.3,0.5,0.6,0.7C176.2,6.8,176.5,6.9,176.8,6.9z"/>
		<path id="XMLID_419_" class="st1" d="M180.4,7c0-0.2,0.1-0.4,0.2-0.5c0.1-0.1,0.3-0.2,0.5-0.2c0.2,0,0.4,0.1,0.5,0.2
			c0.1,0.1,0.2,0.3,0.2,0.5c0,0.2-0.1,0.4-0.2,0.5c-0.1,0.1-0.3,0.2-0.5,0.2c-0.2,0-0.4-0.1-0.5-0.2C180.5,7.4,180.4,7.2,180.4,7z"
			/>
		<path id="XMLID_416_" class="st1" d="M183,4.3c0-2.9,1.1-4.3,3.4-4.3c0.4,0,0.7,0,0.9,0.1v0.8c-0.3-0.1-0.6-0.1-0.9-0.1
			c-0.8,0-1.4,0.2-1.8,0.7c-0.4,0.5-0.6,1.2-0.7,2.3h0.1c0.4-0.6,1-0.9,1.8-0.9c0.7,0,1.2,0.2,1.6,0.6s0.6,1,0.6,1.6
			c0,0.8-0.2,1.4-0.6,1.8c-0.4,0.4-1,0.7-1.7,0.7c-0.5,0-1-0.1-1.3-0.4s-0.7-0.6-0.9-1.1C183.1,5.6,183,5,183,4.3z M185.5,6.9
			c0.5,0,0.8-0.2,1.1-0.5c0.3-0.3,0.4-0.7,0.4-1.3c0-0.5-0.1-0.9-0.4-1.1c-0.2-0.3-0.6-0.4-1.1-0.4c-0.3,0-0.6,0.1-0.8,0.2
			c-0.2,0.1-0.4,0.3-0.6,0.5S184,4.7,184,5c0,0.3,0.1,0.7,0.2,1s0.3,0.5,0.6,0.7S185.2,6.9,185.5,6.9z"/>
		<path id="XMLID_414_" class="st1" d="M193.8,7.5h-4.9V6.8l1.9-2c0.6-0.6,1-1,1.2-1.3c0.2-0.3,0.3-0.5,0.4-0.7
			c0.1-0.2,0.1-0.5,0.1-0.8c0-0.4-0.1-0.7-0.3-0.9s-0.6-0.3-1-0.3c-0.3,0-0.6,0.1-0.9,0.2c-0.3,0.1-0.6,0.3-0.9,0.6L189,0.9
			c0.7-0.6,1.4-0.9,2.3-0.9c0.7,0,1.2,0.2,1.6,0.5c0.4,0.4,0.6,0.8,0.6,1.4c0,0.3-0.1,0.6-0.2,0.9c-0.1,0.3-0.3,0.6-0.5,0.9
			c-0.2,0.3-0.6,0.7-1.2,1.3L190,6.6v0h3.7V7.5z"/>
		<path id="XMLID_408_" class="st1" d="M197.9,2.3c0,0.8-0.1,1.4-0.4,1.7c-0.3,0.4-0.7,0.6-1.2,0.6c-0.5,0-0.9-0.2-1.1-0.6
			c-0.3-0.4-0.4-1-0.4-1.7c0-0.8,0.1-1.4,0.4-1.7c0.3-0.4,0.6-0.6,1.1-0.6c0.5,0,0.9,0.2,1.2,0.6S197.9,1.6,197.9,2.3z M195.6,2.3
			c0,0.6,0.1,1,0.2,1.3c0.1,0.3,0.3,0.4,0.6,0.4c0.5,0,0.8-0.6,0.8-1.7c0-1.1-0.3-1.7-0.8-1.7c-0.3,0-0.5,0.1-0.6,0.4
			C195.7,1.3,195.6,1.8,195.6,2.3z M201.1,0.1L197,7.5h-0.8l4.1-7.4H201.1z M202.5,5.3c0,0.8-0.1,1.3-0.4,1.7
			c-0.3,0.4-0.7,0.6-1.2,0.6c-0.5,0-0.9-0.2-1.1-0.6c-0.3-0.4-0.4-1-0.4-1.7c0-0.8,0.1-1.4,0.4-1.7c0.3-0.4,0.6-0.6,1.1-0.6
			c0.5,0,0.9,0.2,1.2,0.6C202.3,4,202.5,4.5,202.5,5.3z M200.1,5.3c0,0.6,0.1,1,0.2,1.3c0.1,0.3,0.3,0.4,0.6,0.4
			c0.3,0,0.5-0.1,0.6-0.4c0.1-0.3,0.2-0.7,0.2-1.3c0-1.1-0.3-1.7-0.8-1.7c-0.3,0-0.5,0.1-0.6,0.4C200.2,4.3,200.1,4.7,200.1,5.3z"/>
	</g>
</g>
<g id="XMLID_372_">
	<g id="XMLID_374_">
		<path id="XMLID_388_" class="st1" d="M236.2,7.5h-4.9V6.8l1.9-2c0.6-0.6,1-1,1.2-1.3c0.2-0.3,0.3-0.5,0.4-0.7S235,2.3,235,2
			c0-0.4-0.1-0.7-0.3-0.9s-0.6-0.3-1-0.3c-0.3,0-0.6,0.1-0.9,0.2c-0.3,0.1-0.6,0.3-0.9,0.6l-0.5-0.6c0.7-0.6,1.4-0.9,2.3-0.9
			c0.7,0,1.2,0.2,1.6,0.5c0.4,0.4,0.6,0.8,0.6,1.4c0,0.3-0.1,0.6-0.2,0.9s-0.3,0.6-0.5,0.9c-0.2,0.3-0.6,0.7-1.2,1.3l-1.5,1.5v0h3.7
			V7.5z"/>
		<path id="XMLID_386_" class="st1" d="M237.5,7c0-0.2,0.1-0.4,0.2-0.5c0.1-0.1,0.3-0.2,0.5-0.2c0.2,0,0.4,0.1,0.5,0.2
			c0.1,0.1,0.2,0.3,0.2,0.5c0,0.2-0.1,0.4-0.2,0.5s-0.3,0.2-0.5,0.2c-0.2,0-0.4-0.1-0.5-0.2C237.6,7.4,237.5,7.2,237.5,7z"/>
		<path id="XMLID_383_" class="st1" d="M244.9,3.3c0,2.9-1.1,4.3-3.4,4.3c-0.4,0-0.7,0-0.9-0.1V6.7c0.3,0.1,0.6,0.1,0.9,0.1
			c0.6,0,1-0.1,1.4-0.3c0.4-0.2,0.6-0.5,0.8-1s0.3-1,0.3-1.7H244c-0.4,0.6-1,0.9-1.8,0.9c-0.7,0-1.2-0.2-1.6-0.6
			c-0.4-0.4-0.6-0.9-0.6-1.6c0-0.8,0.2-1.4,0.6-1.8c0.4-0.5,1-0.7,1.7-0.7c0.5,0,1,0.1,1.3,0.4c0.4,0.3,0.7,0.6,0.9,1.1
			C244.8,2,244.9,2.6,244.9,3.3z M242.4,0.8c-0.5,0-0.8,0.2-1.1,0.5c-0.3,0.3-0.4,0.7-0.4,1.3c0,0.5,0.1,0.9,0.4,1.1
			c0.2,0.3,0.6,0.4,1.1,0.4c0.3,0,0.6-0.1,0.8-0.2c0.3-0.1,0.4-0.3,0.6-0.5c0.1-0.2,0.2-0.4,0.2-0.7c0-0.3-0.1-0.7-0.2-0.9
			c-0.1-0.3-0.3-0.5-0.6-0.7C243,0.9,242.7,0.8,242.4,0.8z"/>
		<path id="XMLID_381_" class="st1" d="M250.6,1.8c0,0.5-0.1,0.9-0.4,1.2s-0.6,0.5-1.1,0.6v0c0.6,0.1,1,0.3,1.3,0.6
			c0.3,0.3,0.4,0.7,0.4,1.2c0,0.7-0.2,1.3-0.7,1.6c-0.5,0.4-1.2,0.6-2.1,0.6c-0.4,0-0.8,0-1.1-0.1c-0.3-0.1-0.6-0.2-1-0.3V6.4
			c0.3,0.2,0.7,0.3,1,0.4c0.4,0.1,0.7,0.1,1,0.1c1.3,0,1.9-0.5,1.9-1.5c0-0.9-0.7-1.3-2.1-1.3h-0.7V3.3h0.7c0.6,0,1-0.1,1.4-0.4
			s0.5-0.6,0.5-1c0-0.4-0.1-0.6-0.4-0.8c-0.2-0.2-0.6-0.3-1-0.3c-0.3,0-0.6,0-0.9,0.1s-0.6,0.3-1,0.5L246,0.8
			c0.3-0.2,0.7-0.4,1.1-0.6c0.4-0.1,0.8-0.2,1.3-0.2c0.7,0,1.3,0.2,1.7,0.5C250.4,0.8,250.6,1.3,250.6,1.8z"/>
		<path id="XMLID_375_" class="st1" d="M255,2.3c0,0.8-0.1,1.4-0.4,1.7c-0.3,0.4-0.7,0.6-1.2,0.6c-0.5,0-0.9-0.2-1.1-0.6
			c-0.3-0.4-0.4-1-0.4-1.7c0-0.8,0.1-1.4,0.4-1.7c0.3-0.4,0.6-0.6,1.1-0.6c0.5,0,0.9,0.2,1.2,0.6C254.9,1,255,1.6,255,2.3z
			 M252.7,2.3c0,0.6,0.1,1,0.2,1.3s0.3,0.4,0.6,0.4c0.5,0,0.8-0.6,0.8-1.7c0-1.1-0.3-1.7-0.8-1.7c-0.3,0-0.5,0.1-0.6,0.4
			C252.7,1.3,252.7,1.8,252.7,2.3z M258.2,0.1l-4.1,7.4h-0.8l4.1-7.4H258.2z M259.5,5.3c0,0.8-0.1,1.3-0.4,1.7
			c-0.3,0.4-0.7,0.6-1.2,0.6c-0.5,0-0.9-0.2-1.1-0.6c-0.3-0.4-0.4-1-0.4-1.7c0-0.8,0.1-1.4,0.4-1.7c0.3-0.4,0.6-0.6,1.1-0.6
			c0.5,0,0.9,0.2,1.2,0.6S259.5,4.5,259.5,5.3z M257.2,5.3c0,0.6,0.1,1,0.2,1.3c0.1,0.3,0.3,0.4,0.6,0.4c0.3,0,0.5-0.1,0.6-0.4
			s0.2-0.7,0.2-1.3c0-1.1-0.3-1.7-0.8-1.7c-0.3,0-0.5,0.1-0.6,0.4C257.3,4.3,257.2,4.7,257.2,5.3z"/>
	</g>
</g>
<g id="XMLID_341_">
	<g id="XMLID_343_">
		<path id="XMLID_356_" class="st1" d="M291.6,7.5h-0.9V2.3c0-0.5,0-0.9,0-1.3c-0.1,0.1-0.2,0.2-0.3,0.3c-0.3,0.3-0.7,0.6-1.1,0.9
			l-0.5-0.6l2-1.6h0.8V7.5z"/>
		<path id="XMLID_354_" class="st1" d="M294.6,7c0-0.2,0.1-0.4,0.2-0.5c0.1-0.1,0.3-0.2,0.5-0.2c0.2,0,0.4,0.1,0.5,0.2
			c0.1,0.1,0.2,0.3,0.2,0.5c0,0.2-0.1,0.4-0.2,0.5c-0.1,0.1-0.3,0.2-0.5,0.2c-0.2,0-0.4-0.1-0.5-0.2C294.7,7.4,294.6,7.2,294.6,7z"
			/>
		<path id="XMLID_352_" class="st1" d="M302,7.5h-4.9V6.8l1.9-2c0.6-0.6,1-1,1.2-1.3c0.2-0.3,0.3-0.5,0.4-0.7
			c0.1-0.2,0.1-0.5,0.1-0.8c0-0.4-0.1-0.7-0.3-0.9c-0.2-0.2-0.6-0.3-1-0.3c-0.3,0-0.6,0.1-0.9,0.2s-0.6,0.3-0.9,0.6l-0.5-0.6
			c0.7-0.6,1.4-0.9,2.3-0.9c0.7,0,1.2,0.2,1.6,0.5c0.4,0.4,0.6,0.8,0.6,1.4c0,0.3-0.1,0.6-0.2,0.9c-0.1,0.3-0.3,0.6-0.5,0.9
			c-0.2,0.3-0.6,0.7-1.2,1.3l-1.5,1.5v0h3.7V7.5z"/>
		<path id="XMLID_350_" class="st1" d="M307.7,1.8c0,0.5-0.1,0.9-0.4,1.2c-0.3,0.3-0.6,0.5-1.1,0.6v0c0.6,0.1,1,0.3,1.3,0.6
			c0.3,0.3,0.4,0.7,0.4,1.2c0,0.7-0.2,1.3-0.7,1.6c-0.5,0.4-1.2,0.6-2.1,0.6c-0.4,0-0.8,0-1.1-0.1c-0.3-0.1-0.6-0.2-1-0.3V6.4
			c0.3,0.2,0.7,0.3,1,0.4c0.4,0.1,0.7,0.1,1,0.1c1.3,0,1.9-0.5,1.9-1.5c0-0.9-0.7-1.3-2.1-1.3h-0.7V3.3h0.7c0.6,0,1-0.1,1.4-0.4
			c0.3-0.2,0.5-0.6,0.5-1c0-0.4-0.1-0.6-0.4-0.8c-0.2-0.2-0.6-0.3-1-0.3c-0.3,0-0.6,0-0.9,0.1c-0.3,0.1-0.6,0.3-1,0.5l-0.5-0.6
			c0.3-0.2,0.7-0.4,1.1-0.6c0.4-0.1,0.8-0.2,1.3-0.2c0.7,0,1.3,0.2,1.7,0.5C307.5,0.8,307.7,1.3,307.7,1.8z"/>
		<path id="XMLID_344_" class="st1" d="M312.1,2.3c0,0.8-0.1,1.4-0.4,1.7c-0.3,0.4-0.7,0.6-1.2,0.6c-0.5,0-0.9-0.2-1.1-0.6
			c-0.3-0.4-0.4-1-0.4-1.7c0-0.8,0.1-1.4,0.4-1.7c0.3-0.4,0.6-0.6,1.1-0.6c0.5,0,0.9,0.2,1.2,0.6S312.1,1.6,312.1,2.3z M309.8,2.3
			c0,0.6,0.1,1,0.2,1.3c0.1,0.3,0.3,0.4,0.6,0.4c0.5,0,0.8-0.6,0.8-1.7c0-1.1-0.3-1.7-0.8-1.7c-0.3,0-0.5,0.1-0.6,0.4
			C309.8,1.3,309.8,1.8,309.8,2.3z M315.3,0.1l-4.1,7.4h-0.8l4.1-7.4H315.3z M316.6,5.3c0,0.8-0.1,1.3-0.4,1.7
			c-0.3,0.4-0.7,0.6-1.2,0.6c-0.5,0-0.9-0.2-1.1-0.6c-0.3-0.4-0.4-1-0.4-1.7c0-0.8,0.1-1.4,0.4-1.7c0.3-0.4,0.6-0.6,1.1-0.6
			c0.5,0,0.9,0.2,1.2,0.6C316.5,4,316.6,4.5,316.6,5.3z M314.3,5.3c0,0.6,0.1,1,0.2,1.3c0.1,0.3,0.3,0.4,0.6,0.4
			c0.3,0,0.5-0.1,0.6-0.4c0.1-0.3,0.2-0.7,0.2-1.3c0-1.1-0.3-1.7-0.8-1.7c-0.3,0-0.5,0.1-0.6,0.4C314.4,4.3,314.3,4.7,314.3,5.3z"/>
	</g>
</g>
<g id="XMLID_312_">
	<g id="XMLID_314_">
		<path id="XMLID_326_" class="st1" d="M10.7,245.7H9.8v-5.2c0-0.5,0-0.9,0-1.3c-0.1,0.1-0.2,0.2-0.3,0.3c-0.3,0.3-0.7,0.6-1.1,0.9
			l-0.5-0.6l2-1.6h0.8V245.7z"/>
		<path id="XMLID_322_" class="st1" d="M15.9,238.2c0.7,0,1.2,0.2,1.6,0.5c0.4,0.3,0.6,0.7,0.6,1.3c0,0.4-0.1,0.7-0.3,1
			c-0.2,0.3-0.6,0.6-1.1,0.8c0.6,0.3,1,0.6,1.3,0.9c0.3,0.3,0.4,0.7,0.4,1.1c0,0.6-0.2,1.1-0.7,1.5c-0.4,0.4-1,0.5-1.8,0.5
			c-0.8,0-1.4-0.2-1.8-0.5s-0.6-0.8-0.6-1.5c0-0.8,0.5-1.5,1.5-2c-0.5-0.3-0.8-0.5-1-0.9c-0.2-0.3-0.3-0.6-0.3-1
			c0-0.5,0.2-1,0.6-1.3C14.7,238.4,15.2,238.2,15.9,238.2z M14.3,243.9c0,0.4,0.1,0.7,0.4,0.9c0.3,0.2,0.7,0.3,1.2,0.3
			c0.5,0,0.9-0.1,1.1-0.3c0.3-0.2,0.4-0.5,0.4-0.9c0-0.3-0.1-0.6-0.4-0.9c-0.3-0.3-0.7-0.5-1.3-0.7c-0.5,0.2-0.8,0.4-1.1,0.7
			C14.5,243.2,14.3,243.5,14.3,243.9z M15.9,239c-0.4,0-0.7,0.1-1,0.3c-0.2,0.2-0.4,0.5-0.4,0.8c0,0.2,0,0.4,0.1,0.6
			c0.1,0.2,0.2,0.3,0.4,0.4c0.2,0.1,0.4,0.3,0.8,0.4c0.5-0.2,0.8-0.4,1-0.6s0.3-0.5,0.3-0.8c0-0.3-0.1-0.6-0.4-0.8
			C16.6,239.1,16.3,239,15.9,239z"/>
		<path id="XMLID_320_" class="st1" d="M19.3,243.4v-0.8h2.5v0.8H19.3z"/>
		<path id="XMLID_318_" class="st1" d="M27.6,245.7h-4.9V245l1.9-2c0.6-0.6,1-1,1.2-1.3c0.2-0.3,0.3-0.5,0.4-0.7
			c0.1-0.2,0.1-0.5,0.1-0.8c0-0.4-0.1-0.7-0.3-0.9s-0.6-0.3-1-0.3c-0.3,0-0.6,0.1-0.9,0.2c-0.3,0.1-0.6,0.3-0.9,0.6l-0.5-0.6
			c0.7-0.6,1.4-0.9,2.3-0.9c0.7,0,1.2,0.2,1.6,0.5c0.4,0.4,0.6,0.8,0.6,1.4c0,0.3-0.1,0.6-0.2,0.9c-0.1,0.3-0.3,0.6-0.5,0.9
			c-0.2,0.3-0.6,0.7-1.2,1.3l-1.5,1.5v0h3.7V245.7z"/>
		<path id="XMLID_315_" class="st1" d="M33.9,244.1h-1.1v1.7h-0.9v-1.7h-3.5v-0.8l3.5-5h0.9v4.9h1.1V244.1z M31.9,243.2v-2.3
			c0-0.5,0-1,0.1-1.6h0c0,0.1-0.1,0.2-0.2,0.4c-0.1,0.2-0.2,0.3-0.3,0.4l-2.2,3.2H31.9z"/>
	</g>
</g>
<g id="XMLID_287_">
	<g id="XMLID_289_">
		<path id="XMLID_299_" class="st1" d="M69.5,245.7h-4.9V245l1.9-2c0.6-0.6,1-1,1.2-1.3c0.2-0.3,0.3-0.5,0.4-0.7
			c0.1-0.2,0.1-0.5,0.1-0.8c0-0.4-0.1-0.7-0.3-0.9s-0.6-0.3-1-0.3c-0.3,0-0.6,0.1-0.9,0.2c-0.3,0.1-0.6,0.3-0.9,0.6l-0.5-0.6
			c0.7-0.6,1.4-0.9,2.3-0.9c0.7,0,1.2,0.2,1.6,0.5c0.4,0.4,0.6,0.8,0.6,1.4c0,0.3-0.1,0.6-0.2,0.9c-0.1,0.3-0.3,0.6-0.5,0.9
			s-0.6,0.7-1.2,1.3l-1.5,1.5v0h3.7V245.7z"/>
		<path id="XMLID_297_" class="st1" d="M72.9,241.2c0.8,0,1.4,0.2,1.8,0.6s0.7,0.9,0.7,1.6c0,0.8-0.2,1.4-0.7,1.8
			c-0.5,0.4-1.2,0.7-2,0.7c-0.8,0-1.5-0.1-1.9-0.4v-0.9c0.3,0.1,0.6,0.3,0.9,0.4s0.7,0.1,1,0.1c0.6,0,1-0.1,1.3-0.4
			c0.3-0.3,0.5-0.7,0.5-1.2c0-1-0.6-1.5-1.9-1.5c-0.4,0-0.8,0.1-1.3,0.2l-0.5-0.3l0.3-3.5h3.7v0.8h-2.9l-0.2,2.1
			C72.1,241.2,72.5,241.2,72.9,241.2z"/>
		<path id="XMLID_295_" class="st1" d="M76.4,243.4v-0.8h2.5v0.8H76.4z"/>
		<path id="XMLID_293_" class="st1" d="M84.4,240.1c0,0.5-0.1,0.9-0.4,1.2s-0.6,0.5-1.1,0.6v0c0.6,0.1,1,0.3,1.3,0.6
			c0.3,0.3,0.4,0.7,0.4,1.2c0,0.7-0.2,1.3-0.7,1.6s-1.2,0.6-2.1,0.6c-0.4,0-0.8,0-1.1-0.1s-0.6-0.2-1-0.3v-0.9
			c0.3,0.2,0.7,0.3,1,0.4c0.4,0.1,0.7,0.1,1,0.1c1.3,0,1.9-0.5,1.9-1.5c0-0.9-0.7-1.3-2.1-1.3h-0.7v-0.8h0.7c0.6,0,1-0.1,1.4-0.4
			c0.3-0.2,0.5-0.6,0.5-1c0-0.4-0.1-0.6-0.4-0.8c-0.2-0.2-0.6-0.3-1-0.3c-0.3,0-0.6,0-0.9,0.1c-0.3,0.1-0.6,0.3-1,0.5l-0.5-0.6
			c0.3-0.2,0.7-0.4,1.1-0.6c0.4-0.1,0.8-0.2,1.3-0.2c0.7,0,1.3,0.2,1.7,0.5C84.2,239,84.4,239.5,84.4,240.1z"/>
		<path id="XMLID_290_" class="st1" d="M91,244.1h-1.1v1.7H89v-1.7h-3.5v-0.8l3.5-5h0.9v4.9H91V244.1z M89,243.2v-2.3
			c0-0.5,0-1,0.1-1.6h0c0,0.1-0.1,0.2-0.2,0.4s-0.2,0.3-0.3,0.4l-2.2,3.2H89z"/>
	</g>
</g>
<g id="XMLID_260_">
	<g id="XMLID_262_">
		<path id="XMLID_273_" class="st1" d="M121.9,239.4c0,0.5-0.1,0.9-0.4,1.2c-0.3,0.3-0.6,0.5-1.1,0.6v0c0.6,0.1,1,0.3,1.3,0.6
			s0.4,0.7,0.4,1.2c0,0.7-0.2,1.3-0.7,1.6c-0.5,0.4-1.2,0.6-2.1,0.6c-0.4,0-0.8,0-1.1-0.1c-0.3-0.1-0.6-0.2-1-0.3v-0.9
			c0.3,0.2,0.7,0.3,1,0.4s0.7,0.1,1,0.1c1.3,0,1.9-0.5,1.9-1.5c0-0.9-0.7-1.3-2.1-1.3h-0.7v-0.8h0.7c0.6,0,1-0.1,1.4-0.4
			c0.3-0.2,0.5-0.6,0.5-1c0-0.4-0.1-0.6-0.4-0.8c-0.2-0.2-0.6-0.3-1-0.3c-0.3,0-0.6,0-0.9,0.1c-0.3,0.1-0.6,0.3-1,0.5l-0.5-0.6
			c0.3-0.2,0.7-0.4,1.1-0.6c0.4-0.1,0.8-0.2,1.3-0.2c0.7,0,1.3,0.2,1.7,0.5C121.7,238.4,121.9,238.8,121.9,239.4z"/>
		<path id="XMLID_271_" class="st1" d="M125.6,240.5c0.8,0,1.4,0.2,1.8,0.6s0.7,0.9,0.7,1.6c0,0.8-0.2,1.4-0.7,1.8
			c-0.5,0.4-1.2,0.7-2,0.7c-0.8,0-1.5-0.1-1.9-0.4v-0.9c0.3,0.1,0.6,0.3,0.9,0.4c0.4,0.1,0.7,0.1,1,0.1c0.6,0,1-0.1,1.3-0.4
			c0.3-0.3,0.5-0.7,0.5-1.2c0-1-0.6-1.5-1.9-1.5c-0.4,0-0.8,0.1-1.3,0.2l-0.5-0.3l0.3-3.5h3.7v0.8h-2.9l-0.2,2.1
			C124.8,240.6,125.2,240.5,125.6,240.5z"/>
		<path id="XMLID_269_" class="st1" d="M129.1,242.7v-0.8h2.5v0.8H129.1z"/>
		<path id="XMLID_266_" class="st1" d="M137.7,243.4h-1.1v1.7h-0.9v-1.7h-3.5v-0.8l3.5-5h0.9v4.9h1.1V243.4z M135.8,242.6v-2.3
			c0-0.5,0-1,0.1-1.6h0c0,0.1-0.1,0.2-0.2,0.4s-0.2,0.3-0.3,0.4l-2.2,3.2H135.8z"/>
		<path id="XMLID_263_" class="st1" d="M143.7,243.4h-1.1v1.7h-0.9v-1.7h-3.5v-0.8l3.5-5h0.9v4.9h1.1V243.4z M141.7,242.6v-2.3
			c0-0.5,0-1,0.1-1.6h0c0,0.1-0.1,0.2-0.2,0.4c-0.1,0.2-0.2,0.3-0.3,0.4l-2.2,3.2H141.7z"/>
	</g>
</g>
<g id="XMLID_233_">
	<g id="XMLID_235_">
		<path id="XMLID_245_" class="st1" d="M178.4,244.1h-1.1v1.7h-0.9v-1.7h-3.5v-0.8l3.5-5h0.9v4.9h1.1V244.1z M176.4,243.2v-2.3
			c0-0.5,0-1,0.1-1.6h0c0,0.1-0.1,0.2-0.2,0.4c-0.1,0.2-0.2,0.3-0.3,0.4l-2.2,3.2H176.4z"/>
		<path id="XMLID_243_" class="st1" d="M181.4,241.2c0.8,0,1.4,0.2,1.8,0.6s0.7,0.9,0.7,1.6c0,0.8-0.2,1.4-0.7,1.8
			c-0.5,0.4-1.2,0.7-2,0.7c-0.8,0-1.5-0.1-1.9-0.4v-0.9c0.3,0.1,0.6,0.3,0.9,0.4c0.4,0.1,0.7,0.1,1,0.1c0.6,0,1-0.1,1.3-0.4
			c0.3-0.3,0.5-0.7,0.5-1.2c0-1-0.6-1.5-1.9-1.5c-0.4,0-0.8,0.1-1.3,0.2l-0.5-0.3l0.3-3.5h3.7v0.8h-2.9l-0.2,2.1
			C180.7,241.2,181.1,241.2,181.4,241.2z"/>
		<path id="XMLID_241_" class="st1" d="M184.9,243.4v-0.8h2.5v0.8H184.9z"/>
		<path id="XMLID_239_" class="st1" d="M190.7,241.2c0.8,0,1.4,0.2,1.8,0.6c0.4,0.4,0.7,0.9,0.7,1.6c0,0.8-0.2,1.4-0.7,1.8
			c-0.5,0.4-1.2,0.7-2,0.7c-0.8,0-1.5-0.1-1.9-0.4v-0.9c0.3,0.1,0.6,0.3,0.9,0.4c0.4,0.1,0.7,0.1,1,0.1c0.6,0,1-0.1,1.3-0.4
			c0.3-0.3,0.5-0.7,0.5-1.2c0-1-0.6-1.5-1.9-1.5c-0.4,0-0.8,0.1-1.3,0.2l-0.5-0.3l0.3-3.5h3.7v0.8h-2.9l-0.2,2.1
			C190,241.2,190.3,241.2,190.7,241.2z"/>
		<path id="XMLID_236_" class="st1" d="M199.5,244.1h-1.1v1.7h-0.9v-1.7H194v-0.8l3.5-5h0.9v4.9h1.1V244.1z M197.6,243.2v-2.3
			c0-0.5,0-1,0.1-1.6h0c0,0.1-0.1,0.2-0.2,0.4c-0.1,0.2-0.2,0.3-0.3,0.4l-2.2,3.2H197.6z"/>
	</g>
</g>
<g id="XMLID_206_">
	<g id="XMLID_208_">
		<path id="XMLID_219_" class="st1" d="M230.7,241.2c0.8,0,1.4,0.2,1.8,0.6c0.4,0.4,0.7,0.9,0.7,1.6c0,0.8-0.2,1.4-0.7,1.8
			c-0.5,0.4-1.2,0.7-2,0.7c-0.8,0-1.5-0.1-1.9-0.4v-0.9c0.3,0.1,0.6,0.3,0.9,0.4s0.7,0.1,1,0.1c0.6,0,1-0.1,1.3-0.4
			c0.3-0.3,0.5-0.7,0.5-1.2c0-1-0.6-1.5-1.9-1.5c-0.4,0-0.8,0.1-1.3,0.2l-0.5-0.3l0.3-3.5h3.7v0.8h-2.9l-0.2,2.1
			C230,241.2,230.4,241.2,230.7,241.2z"/>
		<path id="XMLID_217_" class="st1" d="M236.7,241.2c0.8,0,1.4,0.2,1.8,0.6s0.7,0.9,0.7,1.6c0,0.8-0.2,1.4-0.7,1.8
			c-0.5,0.4-1.2,0.7-2,0.7c-0.8,0-1.5-0.1-1.9-0.4v-0.9c0.3,0.1,0.6,0.3,0.9,0.4s0.7,0.1,1,0.1c0.6,0,1-0.1,1.3-0.4s0.5-0.7,0.5-1.2
			c0-1-0.6-1.5-1.9-1.5c-0.4,0-0.8,0.1-1.3,0.2l-0.5-0.3l0.3-3.5h3.7v0.8h-2.9l-0.2,2.1C235.9,241.2,236.3,241.2,236.7,241.2z"/>
		<path id="XMLID_215_" class="st1" d="M240.2,243.4v-0.8h2.5v0.8H240.2z"/>
		<path id="XMLID_212_" class="st1" d="M243.7,242.6c0-2.9,1.1-4.3,3.4-4.3c0.4,0,0.7,0,0.9,0.1v0.8c-0.3-0.1-0.6-0.1-0.9-0.1
			c-0.8,0-1.4,0.2-1.8,0.7c-0.4,0.5-0.6,1.2-0.7,2.3h0.1c0.4-0.6,1-0.9,1.8-0.9c0.7,0,1.2,0.2,1.6,0.6c0.4,0.4,0.6,1,0.6,1.6
			c0,0.8-0.2,1.4-0.6,1.8c-0.4,0.4-1,0.7-1.7,0.7c-0.5,0-1-0.1-1.3-0.4s-0.7-0.6-0.9-1.1C243.8,243.8,243.7,243.2,243.7,242.6z
			 M246.2,245.1c0.5,0,0.8-0.2,1.1-0.5s0.4-0.7,0.4-1.3c0-0.5-0.1-0.9-0.4-1.1c-0.2-0.3-0.6-0.4-1.1-0.4c-0.3,0-0.6,0.1-0.8,0.2
			c-0.2,0.1-0.4,0.3-0.6,0.5c-0.1,0.2-0.2,0.4-0.2,0.7c0,0.3,0.1,0.7,0.2,1c0.1,0.3,0.3,0.5,0.6,0.7
			C245.6,245,245.9,245.1,246.2,245.1z"/>
		<path id="XMLID_209_" class="st1" d="M254.7,244.1h-1.1v1.7h-0.9v-1.7h-3.5v-0.8l3.5-5h0.9v4.9h1.1V244.1z M252.8,243.2v-2.3
			c0-0.5,0-1,0.1-1.6h0c0,0.1-0.1,0.2-0.2,0.4s-0.2,0.3-0.3,0.4l-2.2,3.2H252.8z"/>
	</g>
</g>
<g id="XMLID_189_">
	<g id="XMLID_191_">
		<path id="XMLID_196_" class="st1" d="M291,242.6c0-2.9,1.1-4.3,3.4-4.3c0.4,0,0.7,0,0.9,0.1v0.8c-0.3-0.1-0.6-0.1-0.9-0.1
			c-0.8,0-1.4,0.2-1.8,0.7c-0.4,0.5-0.6,1.2-0.7,2.3h0.1c0.4-0.6,1-0.9,1.8-0.9c0.7,0,1.2,0.2,1.6,0.6c0.4,0.4,0.6,1,0.6,1.6
			c0,0.8-0.2,1.4-0.6,1.8c-0.4,0.4-1,0.7-1.7,0.7c-0.5,0-1-0.1-1.3-0.4s-0.7-0.6-0.9-1.1C291.1,243.8,291,243.2,291,242.6z
			 M293.5,245.1c0.5,0,0.8-0.2,1.1-0.5s0.4-0.7,0.4-1.3c0-0.5-0.1-0.9-0.4-1.1c-0.2-0.3-0.6-0.4-1.1-0.4c-0.3,0-0.6,0.1-0.8,0.2
			c-0.2,0.1-0.4,0.3-0.6,0.5c-0.1,0.2-0.2,0.4-0.2,0.7c0,0.3,0.1,0.7,0.2,1s0.3,0.5,0.6,0.7S293.2,245.1,293.5,245.1z"/>
		<path id="XMLID_194_" class="st1" d="M299.2,241.2c0.8,0,1.4,0.2,1.8,0.6c0.4,0.4,0.7,0.9,0.7,1.6c0,0.8-0.2,1.4-0.7,1.8
			c-0.5,0.4-1.2,0.7-2,0.7c-0.8,0-1.5-0.1-1.9-0.4v-0.9c0.3,0.1,0.6,0.3,0.9,0.4s0.7,0.1,1,0.1c0.6,0,1-0.1,1.3-0.4
			c0.3-0.3,0.5-0.7,0.5-1.2c0-1-0.6-1.5-1.9-1.5c-0.4,0-0.8,0.1-1.3,0.2l-0.5-0.3l0.3-3.5h3.7v0.8h-2.9l-0.2,2.1
			C298.5,241.2,298.8,241.2,299.2,241.2z"/>
		<path id="XMLID_192_" class="st1" d="M305.6,241.7h2.1v0.7h-2.1v2.1h-0.7v-2.1h-2.1v-0.7h2.1v-2.1h0.7V241.7z"/>
	</g>
</g>
<rect id="XMLID_188_" x="8.5" y="20.6" class="st2" width="24" height="207"/>
<rect id="XMLID_187_" x="63.5" y="20.6" class="st2" width="24" height="207"/>
<rect id="XMLID_186_" x="119.5" y="20.6" class="st2" width="23" height="207"/>
<rect id="XMLID_185_" x="174.5" y="20.6" class="st2" width="24" height="207"/>
<rect id="XMLID_184_" x="229.5" y="20.6" class="st2" width="24" height="207"/>
<rect id="XMLID_183_" x="284.5" y="20.6" class="st2" width="24" height="207"/>
<rect id="XMLID_182_" x="9" y="186.1" class="st3" width="23" height="41"/>
<rect id="XMLID_181_" x="64" y="129.1" class="st3" width="24" height="98"/>
<rect id="XMLID_180_" x="119" y="192.1" class="st3" width="24" height="35"/>
<rect id="XMLID_179_" x="174" y="212.1" class="st3" width="24" height="15"/>
<rect id="XMLID_178_" x="230" y="220.1" class="st3" width="23" height="7"/>
<rect id="XMLID_177_" x="285" y="220.1" class="st3" width="23" height="7"/>
<g id="XMLID_150_">
	<g id="XMLID_152_">
		<path id="XMLID_163_" class="st4" d="M291.6,259.8h-0.9v-6.6h-2.3v-0.8h5.6v0.8h-2.3V259.8z"/>
		<path id="XMLID_161_" class="st4" d="M295.3,254.2v3.6c0,0.5,0.1,0.8,0.3,1c0.2,0.2,0.5,0.3,0.9,0.3c0.6,0,1-0.2,1.2-0.5
			c0.3-0.3,0.4-0.8,0.4-1.5v-2.9h0.9v5.6h-0.8l-0.1-0.7h0c-0.2,0.3-0.4,0.5-0.7,0.6c-0.3,0.1-0.7,0.2-1.1,0.2
			c-0.7,0-1.2-0.2-1.5-0.5c-0.3-0.3-0.5-0.8-0.5-1.5v-3.6H295.3z"/>
		<path id="XMLID_156_" class="st4" d="M305.5,257c0,0.9-0.2,1.6-0.7,2.1c-0.5,0.5-1.1,0.8-1.9,0.8c-0.5,0-0.9-0.1-1.3-0.4
			c-0.4-0.2-0.7-0.6-0.9-1c-0.2-0.4-0.3-0.9-0.3-1.5c0-0.9,0.2-1.6,0.7-2.1c0.5-0.5,1.1-0.8,1.9-0.8c0.8,0,1.4,0.3,1.9,0.8
			C305.2,255.4,305.5,256.1,305.5,257z M301.3,257c0,0.7,0.1,1.2,0.4,1.6c0.3,0.4,0.7,0.5,1.2,0.5c0.5,0,0.9-0.2,1.2-0.5
			s0.4-0.9,0.4-1.6s-0.1-1.2-0.4-1.6c-0.3-0.4-0.7-0.5-1.2-0.5C301.8,254.9,301.3,255.6,301.3,257z M304.4,253.5h-0.5
			c-0.4-0.3-0.7-0.5-1.1-0.8c-0.4,0.3-0.7,0.6-1.1,0.8h-0.5v-0.1c0.2-0.2,0.4-0.4,0.6-0.6c0.2-0.2,0.4-0.5,0.5-0.7h1
			c0.2,0.3,0.6,0.8,1.1,1.3V253.5z M305.3,251.5c0,0.3-0.2,0.6-0.6,0.7l0,0.4h-0.4l-0.1-0.7c0.2,0,0.4-0.1,0.5-0.1
			c0.1-0.1,0.2-0.1,0.2-0.3c0-0.2-0.2-0.3-0.5-0.3c-0.2,0-0.3,0-0.4,0v-0.4c0.1,0,0.2,0,0.4,0C305,250.8,305.3,251,305.3,251.5z"/>
		<path id="XMLID_153_" class="st4" d="M306.6,252.7c0-0.2,0.1-0.4,0.2-0.4c0.1-0.1,0.2-0.1,0.4-0.1c0.1,0,0.3,0,0.4,0.1
			s0.2,0.2,0.2,0.4c0,0.2-0.1,0.3-0.2,0.4s-0.2,0.1-0.4,0.1c-0.2,0-0.3,0-0.4-0.1C306.7,253.1,306.6,252.9,306.6,252.7z
			 M307.6,259.8h-0.9v-5.6h0.9V259.8z"/>
	</g>
</g>
<g id="XMLID_123_">
	<g id="XMLID_125_">
		<path id="XMLID_136_" class="st4" d="M232.4,259.8h-0.9v-6.6h-2.3v-0.8h5.6v0.8h-2.3V259.8z"/>
		<path id="XMLID_134_" class="st4" d="M236.1,254.2v3.6c0,0.5,0.1,0.8,0.3,1c0.2,0.2,0.5,0.3,0.9,0.3c0.6,0,1-0.2,1.2-0.5
			c0.3-0.3,0.4-0.8,0.4-1.5v-2.9h0.9v5.6h-0.8l-0.1-0.7h0c-0.2,0.3-0.4,0.5-0.7,0.6c-0.3,0.1-0.7,0.2-1.1,0.2
			c-0.7,0-1.2-0.2-1.5-0.5c-0.3-0.3-0.5-0.8-0.5-1.5v-3.6H236.1z"/>
		<path id="XMLID_129_" class="st4" d="M246.3,257c0,0.9-0.2,1.6-0.7,2.1c-0.5,0.5-1.1,0.8-1.9,0.8c-0.5,0-0.9-0.1-1.3-0.4
			c-0.4-0.2-0.7-0.6-0.9-1c-0.2-0.4-0.3-0.9-0.3-1.5c0-0.9,0.2-1.6,0.7-2.1c0.5-0.5,1.1-0.8,1.9-0.8c0.8,0,1.4,0.3,1.9,0.8
			C246,255.4,246.3,256.1,246.3,257z M242.1,257c0,0.7,0.1,1.2,0.4,1.6c0.3,0.4,0.7,0.5,1.2,0.5c0.5,0,0.9-0.2,1.2-0.5
			s0.4-0.9,0.4-1.6s-0.1-1.2-0.4-1.6c-0.3-0.4-0.7-0.5-1.2-0.5C242.6,254.9,242.1,255.6,242.1,257z M245.2,253.5h-0.5
			c-0.4-0.3-0.7-0.5-1.1-0.8c-0.4,0.3-0.7,0.6-1.1,0.8h-0.5v-0.1c0.2-0.2,0.4-0.4,0.6-0.6c0.2-0.2,0.4-0.5,0.5-0.7h1
			c0.2,0.3,0.6,0.8,1.1,1.3V253.5z M246.1,251.5c0,0.3-0.2,0.6-0.6,0.7l0,0.4H245l-0.1-0.7c0.2,0,0.4-0.1,0.5-0.1
			c0.1-0.1,0.2-0.1,0.2-0.3c0-0.2-0.2-0.3-0.5-0.3c-0.2,0-0.3,0-0.4,0v-0.4c0.1,0,0.2,0,0.4,0C245.8,250.8,246.1,251,246.1,251.5z"
			/>
		<path id="XMLID_126_" class="st4" d="M247.4,252.7c0-0.2,0.1-0.4,0.2-0.4c0.1-0.1,0.2-0.1,0.4-0.1c0.1,0,0.3,0,0.4,0.1
			s0.2,0.2,0.2,0.4c0,0.2-0.1,0.3-0.2,0.4s-0.2,0.1-0.4,0.1c-0.2,0-0.3,0-0.4-0.1C247.5,253.1,247.4,252.9,247.4,252.7z
			 M248.4,259.8h-0.9v-5.6h0.9V259.8z"/>
	</g>
</g>
<g id="XMLID_96_">
	<g id="XMLID_98_">
		<path id="XMLID_109_" class="st4" d="M179.7,259.8h-0.9v-6.6h-2.3v-0.8h5.6v0.8h-2.3V259.8z"/>
		<path id="XMLID_107_" class="st4" d="M183.4,254.2v3.6c0,0.5,0.1,0.8,0.3,1c0.2,0.2,0.5,0.3,0.9,0.3c0.6,0,1-0.2,1.2-0.5
			c0.3-0.3,0.4-0.8,0.4-1.5v-2.9h0.9v5.6h-0.8l-0.1-0.7h0c-0.2,0.3-0.4,0.5-0.7,0.6c-0.3,0.1-0.7,0.2-1.1,0.2
			c-0.7,0-1.2-0.2-1.5-0.5c-0.3-0.3-0.5-0.8-0.5-1.5v-3.6H183.4z"/>
		<path id="XMLID_102_" class="st4" d="M193.6,257c0,0.9-0.2,1.6-0.7,2.1c-0.5,0.5-1.1,0.8-1.9,0.8c-0.5,0-0.9-0.1-1.3-0.4
			c-0.4-0.2-0.7-0.6-0.9-1c-0.2-0.4-0.3-0.9-0.3-1.5c0-0.9,0.2-1.6,0.7-2.1c0.5-0.5,1.1-0.8,1.9-0.8c0.8,0,1.4,0.3,1.9,0.8
			C193.4,255.4,193.6,256.1,193.6,257z M189.4,257c0,0.7,0.1,1.2,0.4,1.6c0.3,0.4,0.7,0.5,1.2,0.5c0.5,0,0.9-0.2,1.2-0.5
			s0.4-0.9,0.4-1.6s-0.1-1.2-0.4-1.6c-0.3-0.4-0.7-0.5-1.2-0.5C189.9,254.9,189.4,255.6,189.4,257z M192.6,253.5h-0.5
			c-0.4-0.3-0.7-0.5-1.1-0.8c-0.4,0.3-0.7,0.6-1.1,0.8h-0.5v-0.1c0.2-0.2,0.4-0.4,0.6-0.6c0.2-0.2,0.4-0.5,0.5-0.7h1
			c0.2,0.3,0.6,0.8,1.1,1.3V253.5z M193.5,251.5c0,0.3-0.2,0.6-0.6,0.7l0,0.4h-0.4l-0.1-0.7c0.2,0,0.4-0.1,0.5-0.1
			c0.1-0.1,0.2-0.1,0.2-0.3c0-0.2-0.2-0.3-0.5-0.3c-0.2,0-0.3,0-0.4,0v-0.4c0.1,0,0.2,0,0.4,0C193.1,250.8,193.5,251,193.5,251.5z"
			/>
		<path id="XMLID_99_" class="st4" d="M194.8,252.7c0-0.2,0.1-0.4,0.2-0.4c0.1-0.1,0.2-0.1,0.4-0.1c0.1,0,0.3,0,0.4,0.1
			s0.2,0.2,0.2,0.4c0,0.2-0.1,0.3-0.2,0.4s-0.2,0.1-0.4,0.1c-0.2,0-0.3,0-0.4-0.1C194.8,253.1,194.8,252.9,194.8,252.7z
			 M195.7,259.8h-0.9v-5.6h0.9V259.8z"/>
	</g>
</g>
<g id="XMLID_69_">
	<g id="XMLID_71_">
		<path id="XMLID_82_" class="st4" d="M125.4,259.8h-0.9v-6.6h-2.3v-0.8h5.6v0.8h-2.3V259.8z"/>
		<path id="XMLID_80_" class="st4" d="M129.1,254.2v3.6c0,0.5,0.1,0.8,0.3,1c0.2,0.2,0.5,0.3,0.9,0.3c0.6,0,1-0.2,1.2-0.5
			c0.3-0.3,0.4-0.8,0.4-1.5v-2.9h0.9v5.6h-0.8l-0.1-0.7h0c-0.2,0.3-0.4,0.5-0.7,0.6c-0.3,0.1-0.7,0.2-1.1,0.2
			c-0.7,0-1.2-0.2-1.5-0.5c-0.3-0.3-0.5-0.8-0.5-1.5v-3.6H129.1z"/>
		<path id="XMLID_75_" class="st4" d="M139.3,257c0,0.9-0.2,1.6-0.7,2.1c-0.5,0.5-1.1,0.8-1.9,0.8c-0.5,0-0.9-0.1-1.3-0.4
			c-0.4-0.2-0.7-0.6-0.9-1c-0.2-0.4-0.3-0.9-0.3-1.5c0-0.9,0.2-1.6,0.7-2.1c0.5-0.5,1.1-0.8,1.9-0.8c0.8,0,1.4,0.3,1.9,0.8
			C139.1,255.4,139.3,256.1,139.3,257z M135.1,257c0,0.7,0.1,1.2,0.4,1.6c0.3,0.4,0.7,0.5,1.2,0.5c0.5,0,0.9-0.2,1.2-0.5
			s0.4-0.9,0.4-1.6s-0.1-1.2-0.4-1.6c-0.3-0.4-0.7-0.5-1.2-0.5C135.7,254.9,135.1,255.6,135.1,257z M138.3,253.5h-0.5
			c-0.4-0.3-0.7-0.5-1.1-0.8c-0.4,0.3-0.7,0.6-1.1,0.8h-0.5v-0.1c0.2-0.2,0.4-0.4,0.6-0.6c0.2-0.2,0.4-0.5,0.5-0.7h1
			c0.2,0.3,0.6,0.8,1.1,1.3V253.5z M139.2,251.5c0,0.3-0.2,0.6-0.6,0.7l0,0.4h-0.4l-0.1-0.7c0.2,0,0.4-0.1,0.5-0.1
			c0.1-0.1,0.2-0.1,0.2-0.3c0-0.2-0.2-0.3-0.5-0.3c-0.2,0-0.3,0-0.4,0v-0.4c0.1,0,0.2,0,0.4,0C138.9,250.8,139.2,251,139.2,251.5z"
			/>
		<path id="XMLID_72_" class="st4" d="M140.5,252.7c0-0.2,0.1-0.4,0.2-0.4c0.1-0.1,0.2-0.1,0.4-0.1c0.1,0,0.3,0,0.4,0.1
			s0.2,0.2,0.2,0.4c0,0.2-0.1,0.3-0.2,0.4s-0.2,0.1-0.4,0.1c-0.2,0-0.3,0-0.4-0.1C140.5,253.1,140.5,252.9,140.5,252.7z
			 M141.5,259.8h-0.9v-5.6h0.9V259.8z"/>
	</g>
</g>
<g id="XMLID_42_">
	<g id="XMLID_44_">
		<path id="XMLID_55_" class="st4" d="M70.9,259.8h-0.9v-6.6h-2.3v-0.8h5.6v0.8h-2.3V259.8z"/>
		<path id="XMLID_53_" class="st4" d="M74.6,254.2v3.6c0,0.5,0.1,0.8,0.3,1c0.2,0.2,0.5,0.3,0.9,0.3c0.6,0,1-0.2,1.2-0.5
			c0.3-0.3,0.4-0.8,0.4-1.5v-2.9h0.9v5.6h-0.8l-0.1-0.7h0c-0.2,0.3-0.4,0.5-0.7,0.6c-0.3,0.1-0.7,0.2-1.1,0.2
			c-0.7,0-1.2-0.2-1.5-0.5c-0.3-0.3-0.5-0.8-0.5-1.5v-3.6H74.6z"/>
		<path id="XMLID_48_" class="st4" d="M84.7,257c0,0.9-0.2,1.6-0.7,2.1c-0.5,0.5-1.1,0.8-1.9,0.8c-0.5,0-0.9-0.1-1.3-0.4
			c-0.4-0.2-0.7-0.6-0.9-1c-0.2-0.4-0.3-0.9-0.3-1.5c0-0.9,0.2-1.6,0.7-2.1s1.1-0.8,1.9-0.8c0.8,0,1.4,0.3,1.9,0.8
			C84.5,255.4,84.7,256.1,84.7,257z M80.5,257c0,0.7,0.1,1.2,0.4,1.6s0.7,0.5,1.2,0.5c0.5,0,0.9-0.2,1.2-0.5
			c0.3-0.4,0.4-0.9,0.4-1.6s-0.1-1.2-0.4-1.6c-0.3-0.4-0.7-0.5-1.2-0.5C81.1,254.9,80.5,255.6,80.5,257z M83.7,253.5h-0.5
			c-0.4-0.3-0.7-0.5-1.1-0.8c-0.4,0.3-0.7,0.6-1.1,0.8h-0.5v-0.1c0.2-0.2,0.4-0.4,0.6-0.6c0.2-0.2,0.4-0.5,0.5-0.7h1
			c0.2,0.3,0.6,0.8,1.1,1.3V253.5z M84.6,251.5c0,0.3-0.2,0.6-0.6,0.7l0,0.4h-0.4l-0.1-0.7c0.2,0,0.4-0.1,0.5-0.1s0.2-0.1,0.2-0.3
			c0-0.2-0.2-0.3-0.5-0.3c-0.2,0-0.3,0-0.4,0v-0.4c0.1,0,0.2,0,0.4,0C84.3,250.8,84.6,251,84.6,251.5z"/>
		<path id="XMLID_45_" class="st4" d="M85.9,252.7c0-0.2,0.1-0.4,0.2-0.4s0.2-0.1,0.4-0.1c0.1,0,0.3,0,0.4,0.1
			c0.1,0.1,0.2,0.2,0.2,0.4c0,0.2-0.1,0.3-0.2,0.4c-0.1,0.1-0.2,0.1-0.4,0.1c-0.2,0-0.3,0-0.4-0.1S85.9,252.9,85.9,252.7z
			 M86.9,259.8H86v-5.6h0.9V259.8z"/>
	</g>
</g>
<g id="XMLID_15_">
	<g id="XMLID_17_">
		<path id="XMLID_28_" class="st4" d="M13.8,259.8h-0.9v-6.6h-2.3v-0.8h5.6v0.8h-2.3V259.8z"/>
		<path id="XMLID_26_" class="st4" d="M17.5,254.2v3.6c0,0.5,0.1,0.8,0.3,1c0.2,0.2,0.5,0.3,0.9,0.3c0.6,0,1-0.2,1.2-0.5
			c0.3-0.3,0.4-0.8,0.4-1.5v-2.9h0.9v5.6h-0.8l-0.1-0.7h0c-0.2,0.3-0.4,0.5-0.7,0.6c-0.3,0.1-0.7,0.2-1.1,0.2
			c-0.7,0-1.2-0.2-1.5-0.5c-0.3-0.3-0.5-0.8-0.5-1.5v-3.6H17.5z"/>
		<path id="XMLID_21_" class="st4" d="M27.7,257c0,0.9-0.2,1.6-0.7,2.1c-0.5,0.5-1.1,0.8-1.9,0.8c-0.5,0-0.9-0.1-1.3-0.4
			c-0.4-0.2-0.7-0.6-0.9-1c-0.2-0.4-0.3-0.9-0.3-1.5c0-0.9,0.2-1.6,0.7-2.1c0.5-0.5,1.1-0.8,1.9-0.8c0.8,0,1.4,0.3,1.9,0.8
			C27.4,255.4,27.7,256.1,27.7,257z M23.5,257c0,0.7,0.1,1.2,0.4,1.6c0.3,0.4,0.7,0.5,1.2,0.5c0.5,0,0.9-0.2,1.2-0.5
			s0.4-0.9,0.4-1.6s-0.1-1.2-0.4-1.6c-0.3-0.4-0.7-0.5-1.2-0.5C24,254.9,23.5,255.6,23.5,257z M26.6,253.5h-0.5
			c-0.4-0.3-0.7-0.5-1.1-0.8c-0.4,0.3-0.7,0.6-1.1,0.8h-0.5v-0.1c0.2-0.2,0.4-0.4,0.6-0.6c0.2-0.2,0.4-0.5,0.5-0.7h1
			c0.2,0.3,0.6,0.8,1.1,1.3V253.5z M27.5,251.5c0,0.3-0.2,0.6-0.6,0.7l0,0.4h-0.4l-0.1-0.7c0.2,0,0.4-0.1,0.5-0.1
			c0.1-0.1,0.2-0.1,0.2-0.3c0-0.2-0.2-0.3-0.5-0.3c-0.2,0-0.3,0-0.4,0v-0.4c0.1,0,0.2,0,0.4,0C27.2,250.8,27.5,251,27.5,251.5z"/>
		<path id="XMLID_18_" class="st4" d="M28.8,252.7c0-0.2,0.1-0.4,0.2-0.4c0.1-0.1,0.2-0.1,0.4-0.1c0.1,0,0.3,0,0.4,0.1
			s0.2,0.2,0.2,0.4c0,0.2-0.1,0.3-0.2,0.4s-0.2,0.1-0.4,0.1c-0.2,0-0.3,0-0.4-0.1C28.9,253.1,28.8,252.9,28.8,252.7z M29.8,259.8
			h-0.9v-5.6h0.9V259.8z"/>
	</g>
</g>
</svg>