<!-- Generator: Adobe Illustrator 19.0.0, SVG Export Plug-In  -->
<svg version="1.1"
	 xmlns="http://www.w3.org/2000/svg" xmlns:xlink="http://www.w3.org/1999/xlink" xmlns:a="http://ns.adobe.com/AdobeSVGViewerExtensions/3.0/"
	 x="0px" y="0px" width="281px" height="66px" viewBox="0 0 281 66" style="enable-background:new 0 0 281 66;"
	 xml:space="preserve">
<style type="text/css">
	.st0{fill:none;stroke:#33CCCC;stroke-width:2;stroke-linecap:round;stroke-linejoin:round;stroke-miterlimit:10;}
	.st1{fill:none;stroke:#FFFFFF;stroke-width:2;stroke-linecap:round;stroke-linejoin:round;stroke-miterlimit:10;}
	.st2{fill:none;stroke:#FF6633;stroke-width:2;stroke-miterlimit:10;}
	.st3{fill:#FF6633;}
	.st4{fill:#FFFFFF;}
</style>
<defs>
</defs>
<g id="XMLID_77_">
	<polygon id="XMLID_82_" class="st0" points="267,65 267,54 278.9,54 	"/>
	<rect id="XMLID_81_" x="231" y="7" class="st1" width="49" height="14"/>
	<path id="XMLID_80_" class="st1" d="M246,8.1c0,1.1-0.9,1.9-1.9,1.9h-0.2c-1.1,0-1.9-0.9-1.9-1.9V2.9c0-1.1,0.9-1.9,1.9-1.9h0.2
		c1.1,0,1.9,0.9,1.9,1.9V8.1z"/>
	<path id="XMLID_79_" class="st1" d="M269,8.1c0,1.1-0.9,1.9-1.9,1.9h-0.2c-1.1,0-1.9-0.9-1.9-1.9V2.9c0-1.1,0.9-1.9,1.9-1.9h0.2
		c1.1,0,1.9,0.9,1.9,1.9V8.1z"/>
	<rect id="XMLID_78_" x="231" y="21" class="st2" width="49" height="44"/>
</g>
<circle id="XMLID_76_" class="st3" cx="8.4" cy="20.8" r="8.4"/>
<g id="XMLID_73_">
	<path id="XMLID_74_" class="st4" d="M9,25H7v-4.9l0.2-0.8l0.1-0.9C7,18.7,6.9,18.9,6.8,19l-1,0.8l-0.9-1.3L7.7,16H9V25z"/>
</g>
<g id="XMLID_15_">
	<path id="XMLID_70_" class="st4" d="M28.3,20.8h1.1V16H33c1.9,0,3.3,0.5,4.3,1.5s1.5,2.4,1.5,4.1c0,1.9-0.5,3.3-1.6,4.3
		s-2.6,1.5-4.6,1.5h-3.2v-4.7h-1.1V20.8z M36.3,21.6c0-1.2-0.3-2.1-0.8-2.7C35,18.3,34.2,18,33.1,18h-1.3v2.8h1.9v2h-1.9v2.7h1
		C35.2,25.4,36.3,24.1,36.3,21.6z"/>
	<path id="XMLID_65_" class="st4" d="M42.4,16.2h-1.2c-0.9-0.6-1.4-1.2-1.8-1.6v-0.2h1.9c0.3,0.6,0.6,1.1,1.1,1.6V16.2z M46.6,27.4
		l-0.5-1.2h-0.1c-0.4,0.5-0.8,0.9-1.2,1.1s-1,0.3-1.7,0.3c-0.8,0-1.5-0.2-2-0.7c-0.5-0.5-0.7-1.2-0.7-2c0-0.9,0.3-1.6,1-2.1
		c0.6-0.4,1.6-0.7,2.9-0.7l1.5,0v-0.4c0-0.9-0.5-1.3-1.4-1.3c-0.7,0-1.5,0.2-2.5,0.6l-0.8-1.6c1-0.5,2.1-0.8,3.3-0.8
		c1.2,0,2.1,0.3,2.7,0.8c0.6,0.5,0.9,1.3,0.9,2.3v5.8H46.6z M41.7,17.5c0.6-0.7,1.1-1.4,1.7-2.2h2.5c0.3,0.4,0.5,0.8,0.9,1.2
		c0.3,0.4,0.6,0.8,0.8,1v0.2h-1.3c-0.5-0.3-1.1-0.8-1.6-1.3c-0.6,0.5-1.1,0.9-1.6,1.3h-1.3V17.5z M45.9,23.3l-0.9,0
		c-0.7,0-1.2,0.1-1.5,0.4c-0.3,0.2-0.5,0.6-0.5,1c0,0.7,0.4,1,1.2,1c0.6,0,1-0.2,1.3-0.5c0.3-0.3,0.5-0.7,0.5-1.3V23.3z"/>
	<path id="XMLID_63_" class="st4" d="M56.9,27.4l-0.3-1.1h-0.1c-0.3,0.4-0.6,0.7-1.1,0.9s-1,0.3-1.6,0.3c-1,0-1.8-0.3-2.3-0.8
		c-0.5-0.5-0.8-1.3-0.8-2.4v-5.7H53v5.1c0,0.6,0.1,1.1,0.3,1.4c0.2,0.3,0.6,0.5,1.1,0.5c0.7,0,1.1-0.2,1.4-0.7s0.4-1.2,0.4-2.2v-4.1
		h2.4v8.7H56.9z"/>
	<path id="XMLID_61_" class="st4" d="M63.5,25.7c-0.3,1.1-0.7,2.3-1.4,3.7h-1.7c0.3-1.4,0.6-2.7,0.8-3.9h2.2L63.5,25.7z"/>
	<path id="XMLID_58_" class="st4" d="M77.6,27.4c0,1.3-0.4,2.2-1.1,2.9s-1.8,1-3.3,1c-1.3,0-2.4-0.2-3.3-0.5v-1.9
		c1.1,0.4,2.2,0.7,3.4,0.7c1.2,0,1.8-0.7,1.8-2v-0.2l0.1-1.1h-0.1c-0.6,0.9-1.4,1.3-2.5,1.3c-1,0-1.9-0.4-2.4-1.2
		c-0.6-0.8-0.9-1.9-0.9-3.3c0-1.4,0.3-2.5,0.9-3.3c0.6-0.8,1.4-1.2,2.5-1.2c1.1,0,1.9,0.4,2.5,1.3h0.1l0.2-1.1h2V27.4z M73.5,25.7
		c0.6,0,1.1-0.2,1.4-0.6s0.4-1,0.4-1.8v-0.3c0-0.9-0.1-1.6-0.4-2c-0.3-0.4-0.8-0.6-1.4-0.6c-1.1,0-1.7,0.9-1.7,2.6
		c0,0.9,0.1,1.5,0.4,2C72.5,25.5,73,25.7,73.5,25.7z"/>
	<path id="XMLID_55_" class="st4" d="M79.9,16.4c0-0.8,0.4-1.2,1.3-1.2s1.3,0.4,1.3,1.2c0,0.4-0.1,0.7-0.3,0.9
		c-0.2,0.2-0.5,0.3-1,0.3C80.4,17.6,79.9,17.2,79.9,16.4z M82.4,27.4h-2.4v-8.7h2.4V27.4z"/>
	<path id="XMLID_52_" class="st4" d="M91.1,27.4l-0.3-1.1h-0.1c-0.3,0.4-0.6,0.7-1.1,0.9s-1,0.3-1.6,0.3c-1,0-1.8-0.3-2.3-0.8
		c-0.5-0.5-0.8-1.3-0.8-2.4v-5.7h2.4v5.1c0,0.6,0.1,1.1,0.3,1.4c0.2,0.3,0.6,0.5,1.1,0.5c0.7,0,1.1-0.2,1.4-0.7s0.4-1.2,0.4-2.2
		v-4.1h2.4v0.9c0.4-0.1,0.7-0.4,0.9-0.7s0.3-0.9,0.3-1.5h2.4l0.1,0.2c-0.2,0.8-0.4,1.4-0.7,1.9s-0.7,0.8-1.1,1.1s-1.1,0.5-1.8,0.6
		v6.4H91.1z M87.7,16.9c-0.2,0-0.3,0.1-0.5,0.2c-0.1,0.1-0.3,0.3-0.3,0.6h-1.2c0.1-0.8,0.3-1.3,0.6-1.8c0.4-0.4,0.9-0.6,1.5-0.6
		c0.2,0,0.4,0,0.6,0.1s0.4,0.2,0.6,0.3s0.4,0.2,0.6,0.3c0.2,0.1,0.4,0.1,0.6,0.1c0.2,0,0.3-0.1,0.5-0.2c0.1-0.1,0.3-0.3,0.3-0.6h1.2
		c-0.1,0.8-0.3,1.3-0.7,1.8c-0.4,0.4-0.9,0.6-1.5,0.6c-0.2,0-0.4,0-0.6-0.1s-0.4-0.2-0.6-0.3s-0.4-0.2-0.6-0.3S87.8,16.9,87.7,16.9z
		"/>
	<path id="XMLID_49_" class="st4" d="M102.6,27.4l-0.5-1.2h-0.1c-0.4,0.5-0.8,0.9-1.2,1.1s-1,0.3-1.7,0.3c-0.8,0-1.5-0.2-2-0.7
		c-0.5-0.5-0.7-1.2-0.7-2c0-0.9,0.3-1.6,1-2.1c0.6-0.4,1.6-0.7,2.9-0.7l1.5,0v-0.4c0-0.9-0.5-1.3-1.4-1.3c-0.7,0-1.5,0.2-2.5,0.6
		l-0.8-1.6c1-0.5,2.1-0.8,3.3-0.8c1.2,0,2.1,0.3,2.7,0.8c0.6,0.5,0.9,1.3,0.9,2.3v5.8H102.6z M101.9,23.3l-0.9,0
		c-0.7,0-1.2,0.1-1.5,0.4c-0.3,0.2-0.5,0.6-0.5,1c0,0.7,0.4,1,1.2,1c0.6,0,1-0.2,1.3-0.5c0.3-0.3,0.5-0.7,0.5-1.3V23.3z"/>
	<path id="XMLID_47_" class="st4" d="M113,27.4l-3.3-8.7h2.5l1.7,5c0.2,0.5,0.3,1.1,0.3,1.8h0.1c0-0.6,0.1-1.2,0.4-1.8l1.7-5h2.5
		l-3.3,8.7H113z"/>
	<path id="XMLID_43_" class="st4" d="M125.6,27.4l-0.5-1.2H125c-0.4,0.5-0.8,0.9-1.2,1.1s-1,0.3-1.7,0.3c-0.8,0-1.5-0.2-2-0.7
		c-0.5-0.5-0.7-1.2-0.7-2c0-0.9,0.3-1.6,1-2.1c0.6-0.4,1.6-0.7,2.9-0.7l1.5,0v-0.4c0-0.9-0.5-1.3-1.4-1.3c-0.7,0-1.5,0.2-2.5,0.6
		l-0.8-1.6c1-0.5,2.1-0.8,3.3-0.8c1.2,0,2.1,0.3,2.7,0.8c0.6,0.5,0.9,1.3,0.9,2.3v5.8H125.6z M123.6,17.7c-0.3-0.2-0.8-0.6-1.4-1.1
		c-0.6-0.5-1.1-0.9-1.5-1.3v-0.2h2.7c0.3,0.5,0.9,1.3,1.8,2.4v0.2H123.6z M124.9,23.3l-0.9,0c-0.7,0-1.2,0.1-1.5,0.4
		c-0.3,0.2-0.5,0.6-0.5,1c0,0.7,0.4,1,1.2,1c0.6,0,1-0.2,1.3-0.5c0.3-0.3,0.5-0.7,0.5-1.3V23.3z"/>
	<path id="XMLID_41_" class="st4" d="M137.4,27.5c-2.7,0-4.1-1.5-4.1-4.5c0-1.5,0.4-2.6,1.1-3.4c0.7-0.8,1.8-1.2,3.2-1.2
		c1,0,1.9,0.2,2.7,0.6l-0.7,1.8c-0.4-0.2-0.7-0.3-1-0.4c-0.3-0.1-0.6-0.1-1-0.1c-1.2,0-1.9,0.9-1.9,2.6c0,1.7,0.6,2.6,1.9,2.6
		c0.5,0,0.9-0.1,1.3-0.2c0.4-0.1,0.8-0.3,1.2-0.6v2c-0.4,0.2-0.8,0.4-1.2,0.5S138,27.5,137.4,27.5z"/>
	<path id="XMLID_39_" class="st4" d="M148.2,27.4l-0.3-1.1h-0.1c-0.3,0.4-0.6,0.7-1.1,0.9s-1,0.3-1.6,0.3c-1,0-1.8-0.3-2.3-0.8
		c-0.5-0.5-0.8-1.3-0.8-2.4v-5.7h2.4v5.1c0,0.6,0.1,1.1,0.3,1.4c0.2,0.3,0.6,0.5,1.1,0.5c0.7,0,1.1-0.2,1.4-0.7s0.4-1.2,0.4-2.2
		v-4.1h2.4v8.7H148.2z"/>
	<path id="XMLID_34_" class="st4" d="M160.5,23c0,1.4-0.4,2.5-1.1,3.3c-0.8,0.8-1.8,1.2-3.1,1.2c-0.8,0-1.6-0.2-2.2-0.6
		s-1.1-0.9-1.5-1.6S152,23.9,152,23c0-1.4,0.4-2.5,1.1-3.3c0.7-0.8,1.8-1.2,3.1-1.2c0.8,0,1.6,0.2,2.2,0.5c0.6,0.4,1.1,0.9,1.5,1.6
		C160.3,21.3,160.5,22.1,160.5,23z M159.1,17.7h-1.3c-0.6-0.4-1.1-0.8-1.6-1.3c-0.6,0.5-1.1,1-1.6,1.3h-1.3v-0.2
		c0.6-0.7,1.1-1.4,1.7-2.2h2.5c0.3,0.4,0.6,0.8,0.9,1.3s0.6,0.7,0.7,0.9V17.7z M154.5,23c0,0.9,0.1,1.5,0.4,2
		c0.3,0.4,0.7,0.7,1.4,0.7c0.6,0,1.1-0.2,1.4-0.7c0.3-0.4,0.4-1.1,0.4-2c0-0.9-0.1-1.5-0.4-1.9c-0.3-0.4-0.7-0.6-1.4-0.6
		c-0.6,0-1.1,0.2-1.4,0.6S154.5,22.1,154.5,23z M158.4,16c0.4-0.5,0.8-1,1.1-1.6h1.9v0.2c-0.3,0.5-0.9,1-1.8,1.6h-1.2V16z"/>
	<path id="XMLID_31_" class="st4" d="M162.4,16.4c0-0.8,0.4-1.2,1.3-1.2s1.3,0.4,1.3,1.2c0,0.4-0.1,0.7-0.3,0.9
		c-0.2,0.2-0.5,0.3-1,0.3C162.8,17.6,162.4,17.2,162.4,16.4z M164.9,27.4h-2.4v-8.7h2.4V27.4z"/>
	<path id="XMLID_29_" class="st4" d="M32.9,42.5c0.4,0,0.9-0.1,1.5-0.3V44c-0.6,0.3-1.3,0.4-2.2,0.4c-1,0-1.6-0.2-2.1-0.7
		c-0.4-0.5-0.7-1.2-0.7-2.2v-4.2h-1.1v-1l1.3-0.8l0.7-1.8h1.5v1.9h2.4v1.8h-2.4v4.2c0,0.3,0.1,0.6,0.3,0.8
		C32.3,42.5,32.6,42.5,32.9,42.5z"/>
	<path id="XMLID_27_" class="st4" d="M44.2,44.3h-2.4v-5.1c0-1.3-0.5-1.9-1.4-1.9c-0.7,0-1.1,0.2-1.4,0.7s-0.4,1.2-0.4,2.2v4.1h-2.4
		V32.1h2.4v2.5c0,0.2,0,0.6-0.1,1.4l-0.1,0.7h0.1c0.5-0.9,1.4-1.3,2.5-1.3c1,0,1.8,0.3,2.3,0.8c0.5,0.6,0.8,1.3,0.8,2.4V44.3z"/>
	<path id="XMLID_23_" class="st4" d="M52.2,44.3l-0.5-1.2h-0.1c-0.4,0.5-0.8,0.9-1.2,1.1s-1,0.3-1.7,0.3c-0.8,0-1.5-0.2-2-0.7
		c-0.5-0.5-0.7-1.2-0.7-2c0-0.9,0.3-1.6,1-2.1c0.6-0.4,1.6-0.7,2.9-0.7l1.5,0v-0.4c0-0.9-0.5-1.3-1.4-1.3c-0.7,0-1.5,0.2-2.5,0.6
		l-0.8-1.6c1-0.5,2.1-0.8,3.3-0.8c1.2,0,2.1,0.3,2.7,0.8c0.6,0.5,0.9,1.3,0.9,2.3v5.8H52.2z M51.5,40.2l-0.9,0
		c-0.7,0-1.2,0.1-1.5,0.4c-0.3,0.2-0.5,0.6-0.5,1c0,0.7,0.4,1,1.2,1c0.6,0,1-0.2,1.3-0.5c0.3-0.3,0.5-0.7,0.5-1.3V40.2z M48.8,34.6
		v-0.2c0.9-1,1.5-1.8,1.8-2.4h2.7v0.2c-0.3,0.3-0.7,0.7-1.4,1.2c-0.7,0.5-1.2,0.9-1.5,1.2H48.8z"/>
	<path id="XMLID_21_" class="st4" d="M64.4,44.3H62v-5.1c0-0.6-0.1-1.1-0.3-1.4c-0.2-0.3-0.6-0.5-1.1-0.5c-0.7,0-1.1,0.2-1.4,0.7
		s-0.4,1.2-0.4,2.2v4.1h-2.4v-8.7h1.8l0.3,1.1h0.1c0.3-0.4,0.6-0.7,1.1-1c0.5-0.2,1-0.3,1.6-0.3c1,0,1.8,0.3,2.3,0.8
		c0.5,0.5,0.8,1.3,0.8,2.4V44.3z"/>
	<path id="XMLID_18_" class="st4" d="M74.5,44.3c0,1.3-0.4,2.2-1.1,2.9s-1.8,1-3.3,1c-1.3,0-2.4-0.2-3.3-0.5v-1.9
		c1.1,0.4,2.2,0.7,3.4,0.7c1.2,0,1.8-0.7,1.8-2v-0.2l0.1-1.1h-0.1c-0.6,0.9-1.4,1.3-2.5,1.3c-1,0-1.9-0.4-2.4-1.2
		c-0.6-0.8-0.9-1.9-0.9-3.3c0-1.4,0.3-2.5,0.9-3.3c0.6-0.8,1.4-1.2,2.5-1.2c1.1,0,1.9,0.4,2.5,1.3h0.1l0.2-1.1h2V44.3z M70.4,42.6
		c0.6,0,1.1-0.2,1.4-0.6s0.4-1,0.4-1.8v-0.3c0-0.9-0.1-1.6-0.4-2c-0.3-0.4-0.8-0.6-1.4-0.6c-1.1,0-1.7,0.9-1.7,2.6
		c0,0.9,0.1,1.5,0.4,2C69.4,42.3,69.9,42.6,70.4,42.6z"/>
	<path id="XMLID_16_" class="st4" d="M76.6,43.2c0-0.4,0.1-0.8,0.4-1c0.2-0.2,0.6-0.3,1-0.3c0.4,0,0.8,0.1,1,0.3
		c0.2,0.2,0.4,0.6,0.4,1c0,0.4-0.1,0.7-0.4,1s-0.6,0.4-1,0.4c-0.4,0-0.8-0.1-1-0.3S76.6,43.6,76.6,43.2z"/>
</g>
</svg>