<!-- Generator: Adobe Illustrator 19.0.0, SVG Export Plug-In  -->
<svg version="1.1"
	 xmlns="http://www.w3.org/2000/svg" xmlns:xlink="http://www.w3.org/1999/xlink" xmlns:a="http://ns.adobe.com/AdobeSVGViewerExtensions/3.0/"
	 x="0px" y="0px" width="716.1px" height="274px" viewBox="0 0 716.1 274" style="enable-background:new 0 0 716.1 274;"
	 xml:space="preserve">
<style type="text/css">
	.st0{fill:#D1D1D1;}
	.st1{fill:#9EA6A8;}
	.st2{fill:#FFFFFF;}
	.st3{fill:#FF6633;}
	.st4{fill:#AAA5A3;}
	.st5{fill:none;stroke:#D1D1D1;stroke-miterlimit:10;}
	.st6{fill:#33CCCC;}
	.st7{fill:#258986;}
	.st8{fill:none;stroke:#FF6633;stroke-width:2;stroke-miterlimit:10;stroke-dasharray:3.132;}
	.st9{fill:#E3E3E3;stroke:#E3E3E3;stroke-width:1.5;stroke-miterlimit:10;}
	.st10{fill:#B6B7B7;}
	.st11{fill:#E3E3E3;stroke:#E3E3E3;stroke-width:1.5;stroke-linecap:round;stroke-linejoin:round;stroke-miterlimit:10;}
	.st12{fill:#FFFFFF;stroke:#E3E3E3;stroke-width:1.5;stroke-linecap:round;stroke-linejoin:round;stroke-miterlimit:10;}
	.st13{fill:#086A87;}
	.st14{fill:#FFFFFF;stroke:#FF6633;stroke-width:1.5;stroke-linecap:round;stroke-linejoin:round;stroke-miterlimit:10;}
</style>
<defs>
</defs>
<g>
	<path class="st0" d="M558.2,262h-388c-7.7,0-14-6.3-14-14V14c0-7.7,6.3-14,14-14h388c7.7,0,14,6.3,14,14v234
		C572.2,255.7,565.9,262,558.2,262z"/>
	<rect x="174.4" y="26" class="st1" width="377.6" height="236"/>
	<rect x="187.3" y="59" class="st2" width="352.3" height="173.3"/>
	<path class="st0" d="M126.2,246L126.2,246c0,15.4,12.6,28,28,28h420c15.4,0,28-12.6,28-28v0H126.2z"/>
	<rect x="187.3" y="31.7" class="st0" width="352.3" height="13.7"/>
	<rect x="187.3" y="45.3" class="st2" width="351.5" height="13.7"/>
	<circle class="st3" cx="198.2" cy="38.5" r="3.3"/>
	<circle class="st3" cx="208.9" cy="38.5" r="3.3"/>
	<circle class="st3" cx="219.7" cy="38.5" r="3.3"/>
</g>
<circle class="st2" cx="410.4" cy="189.6" r="2.9"/>
<path class="st4" d="M428.7,260.7H318.1c-4,0-7.4-3.3-7.4-7.4l0,0c0-4,3.3-7.4,7.4-7.4h110.6c4,0,7.4,3.3,7.4,7.4l0,0
	C436,257.4,432.7,260.7,428.7,260.7z"/>
<rect x="245.1" y="49.9" class="st5" width="176.5" height="19"/>
<rect x="421.6" y="49.9" class="st3" width="35.5" height="19"/>
<g>
	<path class="st1" d="M251,53c0-0.7,0.4-1.1,1.1-1.1c0.7,0,1.1,0.4,1.1,1.1c0,0.3-0.1,0.6-0.3,0.8c-0.2,0.2-0.5,0.3-0.8,0.3
		C251.3,54.1,251,53.7,251,53z M253.1,63.3H251v-8.2h2.1V63.3z"/>
	<path class="st1" d="M259.4,63.4c-0.9,0-1.6-0.3-2.1-1h-0.1c0.1,0.7,0.1,1.1,0.1,1.2v3.3h-2.1V55.1h1.7l0.3,1.1h0.1
		c0.5-0.8,1.2-1.2,2.1-1.2c0.9,0,1.6,0.4,2.1,1.1s0.8,1.8,0.8,3.1c0,0.9-0.1,1.6-0.4,2.3s-0.6,1.1-1,1.5
		C260.5,63.3,260,63.4,259.4,63.4z M258.8,56.7c-0.5,0-0.9,0.2-1.1,0.5s-0.4,0.9-0.4,1.7v0.2c0,0.9,0.1,1.5,0.4,1.9
		c0.2,0.4,0.6,0.6,1.1,0.6c0.9,0,1.4-0.8,1.4-2.5c0-0.8-0.1-1.4-0.3-1.8C259.6,56.9,259.3,56.7,258.8,56.7z"/>
	<path class="st1" d="M268.2,55c0.3,0,0.5,0,0.7,0.1l-0.2,2.1c-0.2,0-0.4-0.1-0.6-0.1c-0.7,0-1.2,0.2-1.5,0.5
		c-0.4,0.4-0.5,0.9-0.5,1.5v4.2H264v-8.2h1.6l0.3,1.4h0.1c0.2-0.5,0.5-0.8,0.9-1.1S267.7,55,268.2,55z"/>
	<path class="st1" d="M270.1,53c0-0.7,0.4-1.1,1.1-1.1c0.7,0,1.1,0.4,1.1,1.1c0,0.3-0.1,0.6-0.3,0.8c-0.2,0.2-0.5,0.3-0.8,0.3
		C270.5,54.1,270.1,53.7,270.1,53z M272.3,63.3h-2.1v-8.2h2.1V63.3z"/>
	<path class="st1" d="M277.5,63.4c-2.3,0-3.5-1.4-3.5-4.2c0-1.4,0.3-2.5,1-3.2c0.6-0.7,1.6-1.1,2.7-1.1c0.9,0,1.7,0.2,2.3,0.6
		l-0.6,1.7c-0.3-0.1-0.6-0.3-0.9-0.3c-0.3-0.1-0.6-0.1-0.8-0.1c-1.1,0-1.6,0.8-1.6,2.5c0,1.6,0.5,2.4,1.6,2.4c0.4,0,0.8-0.1,1.1-0.2
		c0.3-0.1,0.7-0.3,1-0.5v1.9c-0.3,0.2-0.7,0.4-1,0.5C278.4,63.4,278,63.4,277.5,63.4z"/>
	<path class="st1" d="M284.9,63.4c-1.2,0-2.2-0.4-2.8-1.1s-1-1.8-1-3.1c0-1.4,0.3-2.4,0.9-3.2s1.5-1.1,2.6-1.1c1.1,0,1.9,0.3,2.5,1
		c0.6,0.7,0.9,1.6,0.9,2.7v1.1h-4.9c0,0.6,0.2,1.1,0.5,1.5c0.3,0.4,0.8,0.5,1.4,0.5c0.5,0,0.9-0.1,1.3-0.2c0.4-0.1,0.8-0.3,1.3-0.5
		v1.7c-0.4,0.2-0.7,0.3-1.2,0.4C286,63.4,285.5,63.4,284.9,63.4z M284.6,56.5c-0.4,0-0.8,0.2-1,0.5c-0.2,0.3-0.4,0.7-0.4,1.3h2.9
		c0-0.6-0.1-1-0.4-1.3C285.4,56.7,285.1,56.5,284.6,56.5z"/>
	<path class="st1" d="M289.4,62.2c0-0.4,0.1-0.7,0.3-0.9s0.5-0.3,0.9-0.3c0.4,0,0.7,0.1,0.9,0.3c0.2,0.2,0.3,0.5,0.3,0.9
		c0,0.4-0.1,0.7-0.3,0.9c-0.2,0.2-0.5,0.3-0.9,0.3c-0.4,0-0.7-0.1-0.9-0.3C289.5,63,289.4,62.6,289.4,62.2z"/>
	<path class="st1" d="M300.3,63.3h-2.1v-4.8c0-0.6-0.1-1-0.3-1.3c-0.2-0.3-0.5-0.4-0.9-0.4c-0.5,0-0.9,0.2-1.1,0.6
		c-0.2,0.4-0.4,1.1-0.4,2.1v3.9h-2.1v-8.2h1.6l0.3,1h0.1c0.2-0.4,0.5-0.7,0.9-0.9c0.4-0.2,0.8-0.3,1.3-0.3c1.1,0,1.9,0.4,2.3,1.2
		h0.2c0.2-0.4,0.5-0.7,0.9-0.9s0.8-0.3,1.3-0.3c0.9,0,1.5,0.2,1.9,0.7c0.4,0.5,0.7,1.2,0.7,2.3v5.3H303v-4.8c0-0.6-0.1-1-0.3-1.3
		c-0.2-0.3-0.5-0.4-0.9-0.4c-0.5,0-0.9,0.2-1.1,0.6c-0.2,0.4-0.4,1-0.4,1.9V63.3z"/>
	<path class="st1" d="M306.1,55.1h2.2l1.4,4.6c0.1,0.4,0.2,0.9,0.2,1.4h0c0-0.5,0.1-1,0.3-1.4l1.4-4.6h2.2l-3.2,9.2
		c-0.3,0.9-0.7,1.5-1.2,1.9s-1.2,0.6-1.9,0.6c-0.4,0-0.7,0-1-0.1V65c0.2,0.1,0.5,0.1,0.8,0.1c0.4,0,0.7-0.1,1-0.4
		c0.3-0.2,0.5-0.6,0.6-1.1l0.1-0.4L306.1,55.1z"/>
</g>
<rect x="258" y="94.7" class="st5" width="280.8" height="137.6"/>
<rect x="187.3" y="43.1" class="st6" width="352.3" height="51.6"/>
<rect x="287.5" y="58.5" class="st2" width="134.1" height="20.7"/>
<rect x="421.6" y="58.5" class="st7" width="37" height="20.7"/>
<rect x="266.6" y="113.6" class="st6" width="50.1" height="6.9"/>
<rect x="266.6" y="124.3" class="st6" width="71.9" height="3.5"/>
<rect x="266.6" y="134" class="st6" width="71.9" height="3.5"/>
<rect x="266.6" y="140.8" class="st6" width="71.9" height="3.5"/>
<rect x="269.1" y="150.7" class="st6" width="47.6" height="58.3"/>
<rect x="322.5" y="150.7" class="st6" width="47.6" height="58.3"/>
<line class="st8" x1="206.5" y1="156.7" x2="66.8" y2="156.7"/>
<line class="st8" x1="622.1" y1="186.8" x2="228.4" y2="186.8"/>
<line class="st8" x1="206.5" y1="211.8" x2="116.2" y2="211.8"/>
<g>
	<rect x="199.6" y="117.9" class="st9" width="37.8" height="8.6"/>
	<rect x="200.8" y="162.5" class="st9" width="37.8" height="8.6"/>
	<rect x="200.8" y="155.2" class="st10" width="37.8" height="3.1"/>
	<line class="st11" x1="200.8" y1="117.7" x2="231.3" y2="117.7"/>
	<line class="st11" x1="200.8" y1="122.2" x2="231.3" y2="122.2"/>
	<line class="st11" x1="200.8" y1="131.1" x2="231.3" y2="131.1"/>
	<line class="st11" x1="200.8" y1="135.5" x2="231.3" y2="135.5"/>
	<line class="st11" x1="200.8" y1="140" x2="231.3" y2="140"/>
	<line class="st11" x1="200.8" y1="144.4" x2="231.3" y2="144.4"/>
	<line class="st11" x1="200.8" y1="175.3" x2="231.3" y2="175.3"/>
	<line class="st11" x1="200.8" y1="179.8" x2="231.3" y2="179.8"/>
	<line class="st11" x1="200.8" y1="184.2" x2="231.3" y2="184.2"/>
	<line class="st11" x1="200.8" y1="188.7" x2="231.3" y2="188.7"/>
	<line class="st11" x1="200.8" y1="193.1" x2="231.3" y2="193.1"/>
	<line class="st11" x1="200.8" y1="197.6" x2="231.3" y2="197.6"/>
	<line class="st11" x1="200.8" y1="202" x2="231.3" y2="202"/>
	<line class="st11" x1="200.8" y1="148.9" x2="231.3" y2="148.9"/>
	<path class="st12" d="M209.4,159.1H204c-0.7,0-1.3-0.6-1.3-1.3v-2.3c0-0.7,0.6-1.3,1.3-1.3h5.4c0.7,0,1.3,0.6,1.3,1.3v2.3
		C210.7,158.5,210.1,159.1,209.4,159.1z"/>
	<path class="st12" d="M235.1,159.1h-5.4c-0.7,0-1.3-0.6-1.3-1.3v-2.3c0-0.7,0.6-1.3,1.3-1.3h5.4c0.7,0,1.3,0.6,1.3,1.3v2.3
		C236.5,158.5,235.9,159.1,235.1,159.1z"/>
	<circle class="st10" cx="204.3" cy="211.8" r="3.5"/>
	<circle class="st6" cx="213.2" cy="211.8" r="3.5"/>
	<circle class="st3" cx="222" cy="211.8" r="3.5"/>
	<circle class="st13" cx="230.9" cy="211.8" r="3.5"/>
	<circle class="st9" cx="206.5" cy="106.8" r="5.7"/>
	<circle class="st9" cx="222" cy="106.8" r="5.7"/>
</g>
<rect x="0.8" y="124.5" class="st9" width="56" height="17.1"/>
<rect x="0.8" y="141.7" class="st14" width="56" height="58.7"/>
<line class="st14" x1="0.8" y1="152.6" x2="56.7" y2="152.6"/>
<line class="st14" x1="0.8" y1="164.5" x2="56.7" y2="164.5"/>
<line class="st14" x1="0.8" y1="176.4" x2="56.7" y2="176.4"/>
<line class="st14" x1="0.8" y1="188.3" x2="56.7" y2="188.3"/>
<line class="st14" x1="0.8" y1="200.2" x2="56.7" y2="200.2"/>
<polygon class="st3" points="43,128.7 52.6,128.7 47.8,136 "/>
<circle class="st10" cx="84.9" cy="210" r="6.7"/>
<circle class="st6" cx="101.9" cy="210" r="6.7"/>
<circle class="st3" cx="84.8" cy="227.4" r="6.7"/>
<circle class="st13" cx="101.8" cy="227.4" r="6.7"/>
<path class="st6" d="M713.1,189.2h-43.5c-1.7,0-3.1-1.4-3.1-3.1v0c0-1.7,1.4-3.1,3.1-3.1h43.5c1.7,0,3.1,1.4,3.1,3.1v0
	C716.1,187.8,714.7,189.2,713.1,189.2z"/>
<circle class="st14" cx="676" cy="185.7" r="5.3"/>
<g>
	<path class="st3" d="M648.3,186.5h-0.9v3.3h-1.7v-8.5h3.3c1.7,0,2.7,1.1,2.7,2.6c0,1.2-0.7,2.1-1.8,2.4l1.8,3.5H650L648.3,186.5z
		 M648.8,185c0.8,0,1.3-0.5,1.3-1.2c0-0.7-0.5-1.2-1.3-1.2h-1.3v2.4H648.8z"/>
	<path class="st3" d="M661.2,189.7v-6l-2.4,6h-1.4l-2.4-5.9v5.9h-1.6v-8.5h2.2l2.6,6.1l2.5-6.1h2.3v8.5H661.2z"/>
</g>
</svg>