<!-- Generator: Adobe Illustrator 19.0.0, SVG Export Plug-In  -->
<svg version="1.1"
	 xmlns="http://www.w3.org/2000/svg" xmlns:xlink="http://www.w3.org/1999/xlink" xmlns:a="http://ns.adobe.com/AdobeSVGViewerExtensions/3.0/"
	 x="0px" y="0px" width="550.9px" height="302.4px" viewBox="0 0 550.9 302.4" style="enable-background:new 0 0 550.9 302.4;"
	 xml:space="preserve">
<style type="text/css">
	.st0{fill:#D1D1D1;}
	.st1{fill:#9EA6A8;}
	.st2{fill:#FFFFFF;}
	.st3{fill:#FF6633;}
	.st4{fill:#AAA5A3;}
	.st5{fill:none;stroke:#D1D1D1;stroke-miterlimit:10;}
	.st6{fill:#33CCCC;}
	.st7{fill:#258986;}
	.st8{fill:none;stroke:#FF6633;stroke-width:0.5;stroke-miterlimit:10;}
	.st9{fill:#9E9E9E;stroke:#FF6633;stroke-width:0.5;stroke-miterlimit:10;}
	.st10{fill:none;stroke:#FF6633;stroke-width:2;stroke-miterlimit:10;stroke-dasharray:3.132;}
</style>
<defs>
</defs>
<g>
	<path class="st0" d="M502.8,290.4h-388c-7.7,0-14-6.3-14-14v-234c0-7.7,6.3-14,14-14h388c7.7,0,14,6.3,14,14v234
		C516.8,284.1,510.5,290.4,502.8,290.4z"/>
	<rect x="119.1" y="54.4" class="st1" width="377.6" height="236"/>
	<rect x="132" y="87.4" class="st2" width="352.3" height="173.3"/>
	<path class="st0" d="M70.9,274.4L70.9,274.4c0,15.4,12.6,28,28,28h420c15.4,0,28-12.6,28-28v0H70.9z"/>
	<rect x="132" y="60.1" class="st0" width="352.3" height="13.7"/>
	<rect x="132" y="73.8" class="st2" width="351.5" height="13.7"/>
	<circle class="st3" cx="142.8" cy="67" r="3.3"/>
	<circle class="st3" cx="153.6" cy="67" r="3.3"/>
	<circle class="st3" cx="164.4" cy="67" r="3.3"/>
</g>
<circle class="st2" cx="355.1" cy="218.1" r="2.9"/>
<path class="st4" d="M373.3,289.2H262.7c-4,0-7.4-3.3-7.4-7.4l0,0c0-4,3.3-7.4,7.4-7.4h110.6c4,0,7.4,3.3,7.4,7.4l0,0
	C380.7,285.8,377.4,289.2,373.3,289.2z"/>
<rect x="189.8" y="78.3" class="st5" width="176.5" height="19"/>
<rect x="366.3" y="78.3" class="st3" width="35.5" height="19"/>
<g>
	<path class="st1" d="M195.6,81.4c0-0.7,0.4-1.1,1.1-1.1c0.7,0,1.1,0.4,1.1,1.1c0,0.3-0.1,0.6-0.3,0.8c-0.2,0.2-0.5,0.3-0.8,0.3
		C196,82.5,195.6,82.2,195.6,81.4z M197.8,91.7h-2.1v-8.2h2.1V91.7z"/>
	<path class="st1" d="M204.1,91.9c-0.9,0-1.6-0.3-2.1-1h-0.1c0.1,0.7,0.1,1.1,0.1,1.2v3.3h-2.1V83.6h1.7l0.3,1.1h0.1
		c0.5-0.8,1.2-1.2,2.1-1.2c0.9,0,1.6,0.4,2.1,1.1s0.8,1.8,0.8,3.1c0,0.9-0.1,1.6-0.4,2.3s-0.6,1.1-1,1.5
		C205.2,91.7,204.7,91.9,204.1,91.9z M203.5,85.2c-0.5,0-0.9,0.2-1.1,0.5s-0.4,0.9-0.4,1.7v0.2c0,0.9,0.1,1.5,0.4,1.9
		c0.2,0.4,0.6,0.6,1.1,0.6c0.9,0,1.4-0.8,1.4-2.5c0-0.8-0.1-1.4-0.3-1.8C204.3,85.4,203.9,85.2,203.5,85.2z"/>
	<path class="st1" d="M212.9,83.4c0.3,0,0.5,0,0.7,0.1l-0.2,2.1c-0.2,0-0.4-0.1-0.6-0.1c-0.7,0-1.2,0.2-1.5,0.5
		c-0.4,0.4-0.5,0.9-0.5,1.5v4.2h-2.1v-8.2h1.6l0.3,1.4h0.1c0.2-0.5,0.5-0.8,0.9-1.1S212.4,83.4,212.9,83.4z"/>
	<path class="st1" d="M214.8,81.4c0-0.7,0.4-1.1,1.1-1.1c0.7,0,1.1,0.4,1.1,1.1c0,0.3-0.1,0.6-0.3,0.8c-0.2,0.2-0.5,0.3-0.8,0.3
		C215.2,82.5,214.8,82.2,214.8,81.4z M217,91.7h-2.1v-8.2h2.1V91.7z"/>
	<path class="st1" d="M222.2,91.9c-2.3,0-3.5-1.4-3.5-4.2c0-1.4,0.3-2.5,1-3.2c0.6-0.7,1.6-1.1,2.7-1.1c0.9,0,1.7,0.2,2.3,0.6
		l-0.6,1.7c-0.3-0.1-0.6-0.3-0.9-0.3c-0.3-0.1-0.6-0.1-0.8-0.1c-1.1,0-1.6,0.8-1.6,2.5c0,1.6,0.5,2.4,1.6,2.4c0.4,0,0.8-0.1,1.1-0.2
		c0.3-0.1,0.7-0.3,1-0.5v1.9c-0.3,0.2-0.7,0.4-1,0.5C223.1,91.8,222.7,91.9,222.2,91.9z"/>
	<path class="st1" d="M229.6,91.9c-1.2,0-2.2-0.4-2.8-1.1s-1-1.8-1-3.1c0-1.4,0.3-2.4,0.9-3.2s1.5-1.1,2.6-1.1c1.1,0,1.9,0.3,2.5,1
		c0.6,0.7,0.9,1.6,0.9,2.7v1.1h-4.9c0,0.6,0.2,1.1,0.5,1.5c0.3,0.4,0.8,0.5,1.4,0.5c0.5,0,0.9-0.1,1.3-0.2c0.4-0.1,0.8-0.3,1.3-0.5
		v1.7c-0.4,0.2-0.7,0.3-1.2,0.4C230.7,91.8,230.2,91.9,229.6,91.9z M229.3,85c-0.4,0-0.8,0.2-1,0.5c-0.2,0.3-0.4,0.7-0.4,1.3h2.9
		c0-0.6-0.1-1-0.4-1.3C230.1,85.1,229.8,85,229.3,85z"/>
	<path class="st1" d="M234.1,90.7c0-0.4,0.1-0.7,0.3-0.9s0.5-0.3,0.9-0.3c0.4,0,0.7,0.1,0.9,0.3c0.2,0.2,0.3,0.5,0.3,0.9
		c0,0.4-0.1,0.7-0.3,0.9c-0.2,0.2-0.5,0.3-0.9,0.3c-0.4,0-0.7-0.1-0.9-0.3C234.2,91.4,234.1,91.1,234.1,90.7z"/>
	<path class="st1" d="M245,91.7H243V87c0-0.6-0.1-1-0.3-1.3c-0.2-0.3-0.5-0.4-0.9-0.4c-0.5,0-0.9,0.2-1.1,0.6
		c-0.2,0.4-0.4,1.1-0.4,2.1v3.9h-2.1v-8.2h1.6l0.3,1h0.1c0.2-0.4,0.5-0.7,0.9-0.9c0.4-0.2,0.8-0.3,1.3-0.3c1.1,0,1.9,0.4,2.3,1.2
		h0.2c0.2-0.4,0.5-0.7,0.9-0.9s0.8-0.3,1.3-0.3c0.9,0,1.5,0.2,1.9,0.7c0.4,0.5,0.7,1.2,0.7,2.3v5.3h-2.1V87c0-0.6-0.1-1-0.3-1.3
		c-0.2-0.3-0.5-0.4-0.9-0.4c-0.5,0-0.9,0.2-1.1,0.6c-0.2,0.4-0.4,1-0.4,1.9V91.7z"/>
	<path class="st1" d="M250.7,83.6h2.2l1.4,4.6c0.1,0.4,0.2,0.9,0.2,1.4h0c0-0.5,0.1-1,0.3-1.4l1.4-4.6h2.2l-3.2,9.2
		c-0.3,0.9-0.7,1.5-1.2,1.9s-1.2,0.6-1.9,0.6c-0.4,0-0.7,0-1-0.1v-1.8c0.2,0.1,0.5,0.1,0.8,0.1c0.4,0,0.7-0.1,1-0.4
		c0.3-0.2,0.5-0.6,0.6-1.1l0.1-0.4L250.7,83.6z"/>
</g>
<rect x="202.7" y="123.1" class="st5" width="280.8" height="137.6"/>
<rect x="132" y="71.6" class="st6" width="352.3" height="51.6"/>
<rect x="211" y="87" class="st2" width="134.1" height="20.7"/>
<rect x="341.9" y="87" class="st7" width="37" height="20.7"/>
<rect x="211.3" y="135.9" class="st6" width="131.8" height="12.9"/>
<rect x="211.3" y="152.7" class="st6" width="71.9" height="3.5"/>
<rect x="211.3" y="158.3" class="st6" width="71.9" height="3.5"/>
<rect x="211" y="167.8" class="st6" width="47.6" height="58.3"/>
<rect x="262.6" y="167.8" class="st6" width="47.6" height="58.3"/>
<rect x="318.4" y="152.2" class="st6" width="71.9" height="3.5"/>
<rect x="318.4" y="157.8" class="st6" width="71.9" height="3.5"/>
<rect x="318" y="167.3" class="st6" width="47.6" height="58.3"/>
<rect x="369.6" y="167.3" class="st6" width="47.6" height="58.3"/>
<g>
	<g>
		<path class="st8" d="M188.2,169.9v-4c0-4.3-3.5-7.7-7.7-7.7c-4.3,0-7.7,3.5-7.7,7.7v4H188.2z"/>
		<path class="st8" d="M182.7,160v-2.9c0-1.3-1-2.3-2.3-2.3c-1.3,0-2.3,1-2.3,2.3v2.9"/>
		<path class="st8" d="M183.4,160v-2.8c0-1.7-1.3-3-3-3c-1.7,0-3,1.3-3,3v2.8"/>
		<rect x="182.4" y="160" class="st8" width="1.4" height="2.8"/>
		<rect x="177" y="160" class="st8" width="1.4" height="2.8"/>
		<line class="st8" x1="172.7" y1="168.7" x2="188.1" y2="168.7"/>
	</g>
	<g>
		<g>
			
				<ellipse transform="matrix(0.7071 0.7071 -0.7071 0.7071 204.2928 -67.3264)" class="st8" cx="183.4" cy="212.9" rx="4.7" ry="5.2"/>
			<path class="st8" d="M172.9,223.5L172.9,223.5c-0.3-0.3-0.3-0.8,0-1.1l2.7-2.7c0.3-0.3,0.8-0.3,1.1,0l0,0c0.3,0.3,0.3,0.8,0,1.1
				l-2.7,2.7C173.7,223.8,173.2,223.8,172.9,223.5z"/>
			<path class="st8" d="M178.5,213.5c0,0,0,4.4-2.3,6.7"/>
			<path class="st8" d="M182.9,217.9c0,0-4.4,0-6.7,2.3"/>
		</g>
		<path class="st8" d="M183.1,223.2c-0.4,0.4-0.9,0.6-1.4,0.5c-0.4,0-0.8-0.2-1.1-0.5c-0.3-0.3-0.5-0.7-0.5-1.1c0-0.5,0.1-1,0.5-1.4
			c0.4-0.4,0.9-0.6,1.4-0.5c0.4,0,0.8,0.2,1.1,0.5c0.3,0.3,0.5,0.7,0.5,1.1C183.7,222.2,183.5,222.8,183.1,223.2z"/>
		<path class="st8" d="M181.5,221.5c-0.4,0.4-0.9,0.6-1.4,0.5c0-0.5,0.1-1,0.5-1.4c0.4-0.4,0.9-0.6,1.4-0.5
			C182.1,220.6,181.9,221.1,181.5,221.5z"/>
		<path class="st8" d="M183.1,223.2c-0.4,0.4-0.9,0.6-1.4,0.5c-0.1-0.5,0.1-1.1,0.5-1.5c0.4-0.4,0.9-0.6,1.5-0.5
			C183.7,222.2,183.5,222.8,183.1,223.2z"/>
		<line class="st8" x1="174.6" y1="220.7" x2="176.3" y2="221.2"/>
		<line class="st8" x1="173.6" y1="221.6" x2="175.4" y2="222.1"/>
		<polyline class="st8" points="183.8,209 184.1,209.3 184.9,210.1 185.6,210.8 186.4,211.6 187.2,212.4 187.4,212.6 		"/>
		<polyline class="st8" points="182.6,209.2 183.4,210 184.2,210.8 184.9,211.5 185.7,212.3 186.5,213.1 187.2,213.8 		"/>
		<polyline class="st8" points="181.6,209.6 182.7,210.7 183.5,211.5 184.2,212.2 185,213 185.8,213.8 186.8,214.8 		"/>
		<polyline class="st8" points="180.8,210.3 181.9,211.4 182.8,212.2 183.5,212.9 184.3,213.7 185.1,214.6 186.1,215.6 		"/>
		<polyline class="st8" points="180.2,211 181.2,212.1 182.1,212.9 182.8,213.6 183.6,214.4 184.4,215.3 185.4,216.2 		"/>
		<polyline class="st8" points="179.7,212 180.5,212.8 181.4,213.6 182.1,214.3 182.9,215.1 183.7,216 184.4,216.7 		"/>
		<polyline class="st8" points="179.5,213.1 179.8,213.5 180.7,214.3 181.4,215 182.2,215.8 183,216.7 183.3,216.9 		"/>
		
			<ellipse transform="matrix(0.7071 0.7071 -0.7071 0.7071 204.3149 -67.3346)" class="st8" cx="183.4" cy="213" rx="3.9" ry="4.3"/>
		<polyline class="st8" points="180.5,215.9 181.4,215 182.1,214.3 182.8,213.6 183.5,212.9 184.2,212.2 184.9,211.5 185.6,210.8 
			186.4,210 		"/>
		<polyline class="st8" points="181.4,216.6 182.2,215.8 182.9,215.1 183.6,214.4 184.3,213.7 185,213 185.7,212.3 186.4,211.6 
			187.1,211 		"/>
		<polyline class="st8" points="182.7,216.9 183,216.7 183.7,216 184.4,215.3 185.1,214.6 185.8,213.8 186.5,213.1 187.2,212.4 
			187.4,212.3 		"/>
		<polyline class="st8" points="179.5,213.8 179.8,213.5 180.5,212.8 181.2,212.1 181.9,211.4 182.7,210.7 183.4,210 184.1,209.3 
			184.3,209 		"/>
		<polyline class="st8" points="179.9,215.1 180.7,214.3 181.4,213.6 182.1,212.9 182.8,212.2 183.5,211.5 184.2,210.8 184.9,210.1 
			185.6,209.4 		"/>
	</g>
	<g>
		<path class="st8" d="M161.7,165.7c0,1.7-1.3,1.5-1.3,1.5h-4.8c-1.1,0-2.1-0.4-2.9-1.2l-3.8-3.7v5.2h-1.2l-0.7-5.4
			c-0.7-4.7,2.3-5.1,2.3-5.1l6.3,7.5l0,0l1.7-0.8L161.7,165.7z"/>
		<line class="st8" x1="148.8" y1="162.3" x2="147" y2="162.3"/>
	</g>
	<g>
		<path class="st8" d="M158.4,141h-12.6c-0.5,0-1-0.8-1-1.7h13.6"/>
		<path class="st8" d="M158.4,137.9h-10.4c-0.4,0-0.8-0.3-0.8-0.8v-7.3c0-0.4,0.3-0.8,0.8-0.8h11.6c0.4,0,0.8,0.3,0.8,0.8v4"/>
		<path class="st8" d="M158.4,139.2h-11.2c-0.8,0-1.4-0.6-1.4-1.4v-8.7c0-0.8,0.6-1.4,1.4-1.4h13c0.8,0,1.4,0.6,1.4,1.4v4.7"/>
		<path class="st8" d="M163,143.2h-3.9c-0.4,0-0.7-0.3-0.7-0.7v-7.8c0-0.4,0.3-0.7,0.7-0.7h3.9c0.4,0,0.7,0.3,0.7,0.7v7.8
			C163.8,142.8,163.4,143.2,163,143.2z"/>
		<circle class="st8" cx="161.1" cy="141.9" r="0.5"/>
		<rect x="159.2" y="135" class="st8" width="3.7" height="5.4"/>
	</g>
	<g>
		<polyline class="st8" points="156.1,186.2 156.1,181.7 151.8,181.7 151.8,186 		"/>
		<polyline class="st8" points="155.7,193.1 156.1,193.1 156.1,197 151.8,197 151.8,193.1 151.9,193.1 		"/>
		<circle class="st8" cx="153.8" cy="189.5" r="4.1"/>
		<circle class="st8" cx="153.8" cy="189.5" r="3"/>
		<rect x="157.6" y="190.7" transform="matrix(0.9191 0.3939 -0.3939 0.9191 88.1058 -46.832)" class="st8" width="1" height="1"/>
		
			<rect x="157.6" y="187.4" transform="matrix(-0.9191 0.394 -0.394 -0.9191 377.3649 298.1945)" class="st8" width="1" height="1"/>
		<polyline class="st8" points="153.8,187.5 153.8,189.5 155.7,189.5 		"/>
		<circle class="st9" cx="153.8" cy="189.5" r="0.7"/>
		<line class="st8" x1="151.8" y1="184.5" x2="155.8" y2="184.5"/>
		<line class="st8" x1="151.8" y1="183.2" x2="155.8" y2="183.2"/>
		<line class="st8" x1="151.9" y1="195.8" x2="155.9" y2="195.8"/>
		<line class="st8" x1="151.9" y1="194.4" x2="155.9" y2="194.4"/>
	</g>
	<g>
		<circle class="st8" cx="179.2" cy="190.3" r="6.5"/>
		<circle class="st8" cx="179.2" cy="190.3" r="4.9"/>
		<polyline class="st8" points="183,182.3 185.8,181.8 188.1,184.2 188.1,186.5 184.9,187.1 		"/>
		<line class="st8" x1="183.2" y1="182.5" x2="188.1" y2="186.5"/>
		<polyline class="st8" points="185.8,181.8 185.6,184.5 188.1,184.2 		"/>
		<line class="st8" x1="183" y1="182.3" x2="183" y2="185"/>
		<line class="st8" x1="183.7" y1="185.6" x2="184.4" y2="183.4"/>
		<line class="st8" x1="184.1" y1="186" x2="185.6" y2="184.5"/>
		<line class="st8" x1="184.5" y1="186.5" x2="186.9" y2="185.6"/>
	</g>
	<g>
		<path class="st8" d="M147,239.1v-2.7c0-0.9,0.7-1.7,1.7-1.7h11.7c0.9,0,1.7,0.7,1.7,1.7v2.8"/>
		<rect x="148.3" y="241.3" class="st8" width="12" height="1.7"/>
		<path class="st8" d="M148.2,241.3v-0.7c0-0.7-0.5-1.4-1.2-1.5c-0.1,0-0.2,0-0.3,0c-0.8,0-1.5,0.7-1.5,1.5v2.4v3.7"/>
		<path class="st8" d="M160.2,241.3v-0.7c0-0.8,0.7-1.5,1.5-1.5c0.1,0,0.2,0,0.3,0c0.7,0.1,1.2,0.7,1.2,1.5v2.4"/>
		<circle class="st8" cx="152" cy="238" r="0.6"/>
		<circle class="st8" cx="157" cy="238" r="0.6"/>
		<path class="st8" d="M146.9,246.6l-0.6,1.6c0,0,0,0,0,0c-0.1,0.5,0.5,0.8,0.9,0.4l2.1-2H146.9z"/>
		<path class="st8" d="M161.6,246.6l0.6,1.6c0,0,0,0,0,0c0.1,0.5-0.5,0.8-0.9,0.4l-2.1-2H161.6z"/>
		<rect x="148.2" y="241.3" class="st8" width="12" height="1.7"/>
		<rect x="145.3" y="242.9" class="st8" width="18" height="3.7"/>
	</g>
	<g>
		<path class="st8" d="M177.7,250.6h-0.2c-1.2,0-2.3-1-2.3-2.3v-4.9c0-1.2,1-2.3,2.3-2.3h0.2c1.2,0,2.3,1,2.3,2.3v4.9
			C179.9,249.6,178.9,250.6,177.7,250.6z"/>
		<path class="st8" d="M184.2,250.6h-5.6c-1.1,0-2-0.9-2-2v-0.2c0-1.1,0.9-2,2-2h5.6c1.1,0,2,0.9,2,2v0.2
			C186.1,249.8,185.2,250.6,184.2,250.6z"/>
		<rect x="175.3" y="243.7" class="st8" width="4.6" height="0.9"/>
		<line class="st8" x1="178.9" y1="241" x2="178.9" y2="237.6"/>
		<line class="st8" x1="176.1" y1="241" x2="176.1" y2="235.9"/>
		
			<ellipse transform="matrix(0.7412 -0.6713 0.6713 0.7412 -112.7979 180.331)" class="st8" cx="177.5" cy="236.5" rx="0.9" ry="1.9"/>
		<ellipse class="st8" cx="178.3" cy="248.6" rx="1.1" ry="1.4"/>
	</g>
	<g>
		<g>
			<path class="st8" d="M159.4,219.4c0.5-0.7,1-1.5,1.2-2.4c0.1-0.5,0.2-1,0.2-1.5c0-0.5-0.1-1-0.2-1.5c-0.2-1-0.7-1.8-1.3-2.6
				c-0.2-0.2-0.4-0.4-0.6-0.6c-0.2-0.2-0.4-0.3-0.6-0.5c-0.4-0.3-0.8-0.5-1.3-0.7c-0.7-0.3-1.6-0.5-2.4-0.5c-0.2,0-0.5,0-0.7,0
				c-0.3,0-0.5,0.1-0.8,0.1c-0.3,0.1-0.6,0.2-0.8,0.3c-2,0.8-3.5,2.5-3.9,4.7c-0.1,0.4-0.1,0.8-0.1,1.3c0,0.5,0.1,1,0.2,1.5
				c0.7,2.8,3.2,4.8,6.2,4.8c1,0,1.9-0.2,2.7-0.6"/>
			<polygon class="st8" points="154.4,214.2 154.4,216.1 155.8,216.1 			"/>
			<circle class="st9" cx="152.5" cy="215.2" r="0.8"/>
			<circle class="st9" cx="157.1" cy="215.2" r="0.8"/>
			<path class="st8" d="M153.2,210"/>
			<path class="st8" d="M157.2,208.1c0.1,0.7-0.1,1.3-0.6,1.9c-0.8,0.9-2,1.2-3.1,0.8"/>
			<path class="st8" d="M148.3,217c-0.2,0.2-0.5,0.2-0.8,0.2c-0.9,0-1.6-0.7-1.6-1.6c0-0.9,0.7-1.6,1.6-1.6c0.3,0,0.5,0.1,0.8,0.2"
				/>
			<line class="st8" x1="146.5" y1="215.4" x2="147.4" y2="215.4"/>
			<line class="st8" x1="147" y1="215.4" x2="147" y2="216.2"/>
			<path class="st8" d="M160.6,214c0.2-0.1,0.4-0.1,0.6-0.1c0.9,0,1.6,0.7,1.6,1.6c0,0.9-0.7,1.6-1.6,1.6c-0.2,0-0.4,0-0.6-0.1"/>
			<line class="st8" x1="162.1" y1="215.2" x2="161.2" y2="215.2"/>
			<line class="st8" x1="161.6" y1="215.2" x2="161.6" y2="216"/>
		</g>
		<path class="st8" d="M161.1,223.1L161.1,223.1c-0.6,0.6-1.5,0.6-2.1,0.1l-1.7-1.7c-0.6-0.6-0.6-1.5,0-2l0.1-0.1
			c0.6-0.6,1.5-0.6,2,0l1.7,1.7C161.6,221.6,161.6,222.5,161.1,223.1z"/>
		<path class="st8" d="M157.7,218L157.7,218l-0.3-0.2c-0.2-0.2-0.5-0.2-0.7,0l-0.2,0.2l-0.4-0.4c-0.1-0.1-0.4-0.1-0.5,0
			c-0.1,0.1-0.1,0.4,0,0.5l0.4,0.4l-0.2,0.2c-0.2,0.2-0.2,0.5,0,0.7l0.2,0.2l-0.1,0.1c-0.1,0.1-0.1,0.3,0,0.5c0.1,0.1,0.3,0.1,0.5,0
			l0.4-0.4l0.9-0.9l0.4-0.4c0.1-0.1,0.1-0.3,0-0.5C158.1,217.9,157.9,217.9,157.7,218z"/>
		<line class="st8" x1="159.3" y1="219.3" x2="158.3" y2="220.3"/>
		<line class="st8" x1="159.7" y1="219.8" x2="158.7" y2="220.8"/>
		<line class="st8" x1="160.1" y1="220.3" x2="159.1" y2="221.3"/>
	</g>
	<path class="st8" d="M185.5,143.4l-2.7-9.5c0,0,1.7-1,1-3.1h-0.7l-0.5-3h-1v1.6c0,0.6-0.5,1.2-1.2,1.2c-0.6,0-1.2-0.5-1.2-1.2v-1.6
		h-1l-0.5,3h-0.6c0,0-0.2,2.6,1,3.1l-2.7,9.5H185.5z"/>
</g>
<line class="st10" x1="247.4" y1="97.3" x2="3.3" y2="97.3"/>
<circle class="st3" cx="7.7" cy="7.3" r="7.3"/>
<g>
	<polyline class="st10" points="381.3,156.2 543.5,156.2 543.5,188.5 	"/>
	<circle class="st3" cx="543.5" cy="188.5" r="7.3"/>
</g>
<line class="st10" x1="142.6" y1="191.9" x2="7.5" y2="191.9"/>
<line class="st10" x1="7.5" y1="291.9" x2="7.5" y2="192.5"/>
<line class="st10" x1="7.5" y1="97.3" x2="7.5" y2="10.4"/>
<circle class="st3" cx="7.3" cy="291.9" r="7.3"/>
</svg>