<!-- Generator: Adobe Illustrator 19.0.0, SVG Export Plug-In  -->
<svg version="1.1"
	 xmlns="http://www.w3.org/2000/svg" xmlns:xlink="http://www.w3.org/1999/xlink" xmlns:a="http://ns.adobe.com/AdobeSVGViewerExtensions/3.0/"
	 x="0px" y="0px" width="206.8px" height="218.1px" viewBox="0 0 206.8 218.1" style="enable-background:new 0 0 206.8 218.1;"
	 xml:space="preserve">
<style type="text/css">
	.st0{fill:#33CCCC;stroke:#33CCCC;stroke-width:2.9989;stroke-miterlimit:10;}
	.st1{fill:#FFFFFF;}
</style>
<defs>
</defs>
<path class="st0" d="M195.6,1.5H11.2c-5.3,0-9.7,4.4-9.7,9.8v148.4v15.4v39.8L37,184.8h158.5c5.3,0,9.7-4.4,9.7-9.8V11.3
	C205.3,5.9,200.9,1.5,195.6,1.5"/>
<g>
	<g>
		<path class="st1" d="M22.9,63.8c0.5-0.3,1-0.4,1.6-0.4c1.7,0,2.9,1.3,2.9,3c0,1.9-1.5,3.4-3.5,3.4c-2.4,0-4.1-1.6-4.1-4.6v-4.5
			c0-1.7,0-3.3-0.1-5l2.6-1.2h0.6V63.8z M22.6,66.3c0,1.4,0.6,2,1.6,2c1,0,1.6-0.9,1.6-1.9c0-1.3-0.9-1.8-1.7-1.8
			c-0.5,0-1,0.2-1.4,0.6C22.6,65.5,22.6,65.9,22.6,66.3z"/>
		<path class="st1" d="M28.6,56.6c1.8-1.6,3.5-2.3,5.8-2.3c3.2,0,6.2,1.6,6.2,5.3v6.2c0,2.5-1.6,4.1-4,4.1c-1.9,0-3.4-1.3-3.4-3.1
			c0-1.9,1.4-3.2,3.1-3.2c0.4,0,0.9,0.1,1.2,0.3v-3.8c0-2.4-1.3-4-3.5-4c-1.7,0-3.2,0.7-4.4,1.9L28.6,56.6z M36.5,64.7
			c-1,0-1.7,0.9-1.7,1.9c0,1.2,0.8,1.9,1.7,1.9c0.8,0,1.5-0.6,1.5-2.1c0-0.4-0.1-0.8-0.2-1.1C37.5,64.8,37,64.7,36.5,64.7z"/>
		<path class="st1" d="M37.1,50c0.4-1.2,1.4-1.4,1.8-1.4c1.3,0,2.1,0.9,2.1,2c0,1.2-0.9,2.1-2.1,2.1c-1.6,0-2.1-1.4-3.6-2.2v1.5
			l-0.7,0.5c-1.9-1.3-2.7-2.6-2.7-3.9c0-1.8,1-3.3,3.1-3.3c1.9,0,3.7,1.5,4.6,1.5c0.6,0,0.9-0.4,1.2-1.2l0.9,0.8
			c-0.3,1.1-1.1,1.7-2.1,1.7c-1.1,0-2.7-0.8-4.3-0.8c-1.3,0-2,0.8-2,1.8c0,0.6,0.4,1.3,1.1,1.8l0,0v-2l0.5-0.5
			C35.8,49,36.3,49.3,37.1,50z M38.9,51.7c0.6,0,1-0.5,1-1c0-0.5-0.4-1-1-1c-0.7,0-1.2,0.7-1,1.4C38.2,51.6,38.7,51.7,38.9,51.7z"/>
		<path class="st1" d="M46.9,60.7c-1.5,0-3.1-1.1-3.1-3c0-2.2,1.7-3.4,3.5-3.4c1.2,0,4,0.5,4,4.6v9H52c2.7,0,3.6-0.2,3.6-2.9v-4.6
			c0-1,0-2.2-0.1-4.6l2.8-1.2h0.4v10.6c0,3.8-1.8,4.3-5.5,4.3H46l0.3-1.7h2v-7.4C47.8,60.6,47.4,60.7,46.9,60.7z M48.8,57.3
			c0-1.1-0.6-1.8-1.5-1.8c-1,0-1.8,0.8-1.8,1.8c0,1.3,0.8,1.8,1.7,1.8c0.5,0,1-0.2,1.4-0.6C48.7,58.2,48.8,57.8,48.8,57.3z"/>
		<path class="st1" d="M68.4,63.4c1.7,0,2.9,1.3,2.9,3c0,1.9-1.4,3.4-3.4,3.4c-2.4,0-4.1-1.6-4.1-4.6V47.8c0-1.3-0.4-1.4-0.6-1.4
			c-0.4,1-0.9,2.6-2.1,5.8h-0.8c-1.2-3.4-1.7-4.9-2.1-5.5c-0.3-0.5-0.5-0.5-0.9-0.5v-2.1h0.6c1.7,0,1.7,0,3.1,4.1h0.1
			c0.9-2.4,1.2-3.3,1.5-4.1h0.1c1.8,0,4,0.6,4,3.9v15.7C67.3,63.5,67.9,63.4,68.4,63.4z M66.6,66.3c0,1.4,0.6,2,1.6,2
			c1,0,1.6-0.9,1.6-1.9c0-1.3-0.9-1.8-1.7-1.8c-0.5,0-1,0.2-1.4,0.6C66.6,65.5,66.6,65.9,66.6,66.3z"/>
		<path class="st1" d="M80.3,55.7c-0.1,0-0.4,0.4-1.5,1.6h-0.4c-1.2-1.4-1.4-1.6-1.5-1.6c-0.4,0-1.3,1.1-1.3,2.6
			c0,0.3,0,0.5,0.1,0.8c0.6-0.9,1.3-1.2,2.2-1.2c1.5,0,2.5,1.1,2.5,2.6c0,1.7-1.4,2.6-2.8,2.6c-2.4,0-3.8-2.2-3.8-4.4
			c0-2.7,2.1-4.4,3.6-4.4c0.1,0,0.4,0.4,1.4,1.4h0.1c1-1.2,1.2-1.4,1.3-1.4c1,0,4.1,0.6,4.4,3.4c2.2-0.5,2.8-2.2,3-4.1h3.1
			c-0.3,2.4-1.6,3.8-3.7,4.6v0c3.1,0.5,3.5,2.3,3.5,4V66c0,3.2-2.2,3.4-4.7,3.4h-6.3l0.2-1.5h2v-9.7C81.5,56.1,80.4,55.7,80.3,55.7z
			 M77.7,61.8c0.7,0,1.4-0.5,1.4-1.5c0-0.8-0.6-1.4-1.4-1.4c-0.8,0-1.5,0.8-1.5,1.7C76.3,61.3,76.9,61.8,77.7,61.8z M84.9,67.9
			c1.9,0,2.3-0.5,2.3-2.3V62c0-1.6-0.3-2.4-2.8-2.9v8.9H84.9z"/>
		<path class="st1" d="M97.6,69.4c-0.1-1.2-0.9-2.6-1.6-4c-0.8-1.6-1.6-3.2-1.6-5c0-3.9,3.3-5.9,5.8-5.9c0.3,0,0.4,0,2.1,1.4h0.1
			c1.5-1.2,1.7-1.4,1.9-1.4c1.1,0,5.5,0.2,5.5,5.6v9.3h-3.1v-9.6c0-3.4-1.8-3.7-1.9-3.7s-1.1,0.8-2.5,1.9h-0.1
			c-1.5-1.2-2.4-1.9-2.5-1.9c-0.3,0-2.2,1.2-2.2,4c0,1.3,0.5,2.6,0.9,3.9c0.4,1,0.8,2.1,1.1,3.1h0.1c0.4-0.9,1.1-1.8,2.1-2.9
			c-1.5-0.4-2.4-1.3-2.4-2.7c0-1.8,1.5-2.8,3.1-2.8c1.6,0,3.1,1.1,3.1,3.1c0,1.5-1.1,2.9-2.1,4.1c-0.9,1.1-2,2.3-2.6,3.7H97.6z
			 M103.8,61.2c0-0.8-0.7-1.4-1.5-1.4c-1.1,0-1.6,0.8-1.6,1.5c0,1.4,1.2,1.8,1.9,1.8C102.7,63,103.8,62.1,103.8,61.2z"/>
		<path class="st1" d="M110.5,47.9c-0.8-0.5-1.4-0.6-2-0.6c-1.5,0-2.4,1.2-2.4,2.3c0,0.8,0.4,1.7,1.5,1.9c-0.3-0.4-0.4-0.8-0.4-1.1
			c0-0.9,0.7-1.7,1.7-1.7c0.9,0,1.7,0.7,1.7,1.7c0,1.5-1.4,2.2-2.7,2.2c-2.1,0-4-1.3-4-3.3c0-2,1.8-3.1,3.7-3.1
			c0.6,0,1.3,0.1,1.9,0.4l0.6-3.9h2.9L110.5,47.9z M109.7,50.4c0-0.4-0.3-0.8-0.7-0.8c-0.4,0-0.9,0.3-0.9,0.9c0,0.4,0.1,0.7,0.5,1
			C109.4,51.4,109.7,50.9,109.7,50.4z"/>
		<path class="st1" d="M112.7,45.4c-1,0-1.9,0.5-2.3,1.5c0.4-0.1,0.7-0.2,1.1-0.2c1.4,0,2.4,0.9,2.4,2.5c0,1.5-1.2,2.6-2.7,2.6
			c-1.8,0-3-1.4-3-3.2c0-2.9,2.3-4.5,4.9-4.5c2.4,0,4.7,1.4,4.7,4.1v15.6c0.5-0.3,1-0.4,1.6-0.4c1.7,0,2.9,1.3,2.9,3
			c0,1.9-1.4,3.4-3.4,3.4c-2.4,0-4.1-1.6-4.1-4.6v-17C114.9,46.5,114.3,45.4,112.7,45.4z M110,49c0,0.9,0.4,1.6,1.4,1.6
			c0.8,0,1.3-0.6,1.3-1.4c0-0.9-0.7-1.5-1.5-1.5c-0.4,0-0.7,0.1-1.1,0.4C110,48.5,110,48.7,110,49z M117.6,66.3c0,1.4,0.6,2,1.6,2
			c1,0,1.6-0.9,1.6-1.9c0-1.3-0.9-1.8-1.7-1.8c-0.5,0-1,0.2-1.4,0.6C117.7,65.5,117.6,65.9,117.6,66.3z"/>
		<path class="st1" d="M129.2,60.3c-0.4,0.1-0.9,0.2-1.3,0.2c-1.7,0-3.1-1-3.1-3c0-1.9,1.4-3.3,3.4-3.3c2.4,0,4.1,1.5,4.1,4.8v7.8
			c1.4-1.5,3.1-2.8,4.7-3.5v-3c0-1,0-2.2-0.1-4.6l2.8-1.2h0.4v7.8c0.2,0,0.5,0,0.7,0c2.1,0,3.5,1.4,3.5,3.5c0,2.2-1.5,3.9-3.8,3.9
			c-2.2,0-3.6-1.4-3.6-4.1c0-0.1,0-0.3,0-0.6c-2.1,1.2-3.8,3.1-4.7,4.4h-3.1V60.3z M129.6,57.6c0-1.4-0.6-2-1.6-2
			c-1,0-1.6,0.9-1.6,1.9c0,1.2,0.9,1.8,1.7,1.8c0.5,0,1-0.1,1.3-0.5C129.5,58.4,129.6,58,129.6,57.6z M140,64.1
			c-0.1,0.4-0.2,1-0.2,1.6c0,1.2,0.3,2.4,1.3,2.4c1.1,0,1.4-1.2,1.4-2.1c0-1.1-0.7-2.1-1.8-2.1C140.6,64,140.3,64,140,64.1z"/>
		<path class="st1" d="M152.6,63.4c1.7,0,2.9,1.3,2.9,3c0,1.9-1.4,3.4-3.4,3.4c-2.4,0-4.1-1.6-4.1-4.6V47.8c0-1.3-0.4-1.4-0.6-1.4
			c-0.4,1-0.9,2.6-2.1,5.8h-0.8c-1.2-3.4-1.7-4.9-2.1-5.5c-0.3-0.5-0.5-0.5-0.9-0.5v-2.1h0.6c1.7,0,1.7,0,3.1,4.1h0.1
			c0.9-2.4,1.2-3.3,1.5-4.1h0.1c1.8,0,4,0.6,4,3.9v15.7C151.5,63.5,152.1,63.4,152.6,63.4z M150.7,66.3c0,1.4,0.6,2,1.6,2
			c1,0,1.6-0.9,1.6-1.9c0-1.3-0.9-1.8-1.7-1.8c-0.5,0-1,0.2-1.4,0.6C150.8,65.5,150.7,65.9,150.7,66.3z"/>
		<path class="st1" d="M162.2,60.2c-0.4,0.2-0.9,0.3-1.3,0.3c-1.7,0-3-1.2-3-3.1c0-2,1.5-3.2,3.5-3.2c1,0,3.9,0.4,3.9,4.4v2.4
			c0,0.6-0.1,2-0.1,2.6l0.1,0c1.5-3.5,2.2-5.7,2.7-6.6c0.9-1.8,1.7-2.9,3.3-2.9c1.8,0,3.1,1.5,3.1,3.8v11.4h-3.1V58.3
			c0-1.3-0.3-1.8-0.8-1.8c-0.5,0-0.8,0.4-1.5,1.8c-0.9,1.9-1.9,5-4.1,11.1h-2.7V60.2z M162.7,57.3c0-1.1-0.7-1.8-1.6-1.8
			c-1,0-1.7,0.8-1.7,1.8c0,1.2,0.8,1.8,1.7,1.8c0.5,0,1-0.2,1.5-0.6C162.6,58.2,162.7,57.8,162.7,57.3z"/>
		<path class="st1" d="M190.8,54.5v10c0,4.1-2.6,5.3-6.2,5.3c-4,0-6.1-1.5-6.1-4v-0.2c0-2,1.5-2.9,2.5-3.1v-0.1
			c-1.7-0.6-2.5-1.7-2.5-3.8v-0.3c0-1.9,1.3-4.1,4.2-4.1c1.7,0,3.1,1.3,3.1,3c0,1.9-1.3,3-2.7,3c-0.6,0-1.1-0.1-1.7-0.5
			c0,1.2,0.8,1.9,2.3,1.9h1.2v1.8h-1.5c-1.2,0-1.9,0.6-1.9,2.1v0.5c0,2,1.4,2.5,3.2,2.5c1.8,0,2.9-0.7,2.9-3v-5c0-1,0-2.2-0.1-4.6
			l2.8-1.2H190.8z M182.9,58.9c0.9,0,1.6-0.5,1.6-1.6c0-0.9-0.5-1.7-1.5-1.7c-1,0-1.4,0.8-1.4,1.8S182.2,58.9,182.9,58.9z"/>
	</g>
</g>
<g>
	<g>
		<path class="st1" d="M38,109.3c0-12.6,4.9-18.9,14.7-18.9c1.7,0,3,0.1,4,0.4v3.4c-1.1-0.4-2.4-0.5-3.9-0.5c-3.4,0-6,1-7.9,3.1
			c-1.8,2.1-2.8,5.4-3,9.9h0.3c1.6-2.5,4.2-3.8,7.6-3.8c2.9,0,5.2,0.9,6.9,2.6s2.5,4.1,2.5,7.1c0,3.3-0.9,6-2.8,7.9
			s-4.3,2.9-7.5,2.9c-2.2,0-4.1-0.6-5.8-1.7c-1.7-1.1-2.9-2.8-3.8-4.9C38.4,114.8,38,112.2,38,109.3z M48.9,120.2c2,0,3.6-0.7,4.7-2
			c1.1-1.3,1.7-3.2,1.7-5.5c0-2.1-0.5-3.8-1.6-4.9c-1.1-1.2-2.6-1.7-4.6-1.7c-1.3,0-2.5,0.3-3.5,0.8c-1.1,0.5-1.9,1.3-2.6,2.2
			s-1,1.9-1,2.9c0,1.5,0.3,2.8,0.9,4.1c0.6,1.3,1.4,2.3,2.4,3C46.4,119.8,47.6,120.2,48.9,120.2z"/>
		<path class="st1" d="M84.9,106.9c0,5.6-0.9,9.8-2.7,12.5c-1.8,2.7-4.5,4.1-8.1,4.1c-3.5,0-6.1-1.4-8-4.2s-2.7-6.9-2.7-12.4
			c0-5.6,0.9-9.8,2.6-12.5s4.4-4.1,8.1-4.1c3.5,0,6.2,1.4,8,4.2C84,97.4,84.9,101.5,84.9,106.9z M67.5,106.9c0,4.7,0.5,8,1.6,10.1
			c1.1,2.1,2.8,3.1,5.1,3.1c2.4,0,4.1-1.1,5.1-3.2c1.1-2.1,1.6-5.5,1.6-10c0-4.5-0.5-7.9-1.6-10c-1.1-2.1-2.8-3.2-5.1-3.2
			c-2.4,0-4.1,1-5.1,3.1C68,98.9,67.5,102.3,67.5,106.9z"/>
		<path class="st1" d="M102.7,100.4c0,3.4-0.6,5.9-1.7,7.6c-1.2,1.7-2.8,2.6-5.1,2.6c-2.1,0-3.7-0.9-4.9-2.6
			c-1.2-1.8-1.7-4.3-1.7-7.5c0-3.4,0.6-5.9,1.7-7.6c1.1-1.7,2.8-2.5,4.9-2.5c2.2,0,3.8,0.9,5,2.6S102.7,97.2,102.7,100.4z
			 M92.6,100.4c0,2.4,0.3,4.3,0.8,5.5s1.4,1.8,2.5,1.8c2.3,0,3.5-2.4,3.5-7.3c0-4.8-1.2-7.3-3.5-7.3c-1.1,0-2,0.6-2.5,1.8
			S92.6,98,92.6,100.4z M116.5,90.8l-17.9,32.2h-3.5l17.9-32.2H116.5z M122.4,113.4c0,3.3-0.6,5.9-1.7,7.6s-2.8,2.6-5,2.6
			c-2.1,0-3.7-0.9-4.9-2.6c-1.2-1.8-1.7-4.3-1.7-7.5c0-3.4,0.6-5.9,1.7-7.6c1.1-1.7,2.8-2.5,4.9-2.5c2.2,0,3.8,0.9,5,2.6
			C121.8,107.6,122.4,110.1,122.4,113.4z M112.4,113.4c0,2.5,0.3,4.3,0.8,5.5c0.5,1.2,1.4,1.8,2.5,1.8c1.2,0,2.1-0.6,2.6-1.8
			c0.6-1.2,0.8-3,0.8-5.5c0-4.8-1.2-7.2-3.5-7.2c-1.1,0-2,0.6-2.5,1.8C112.6,109.1,112.4,110.9,112.4,113.4z"/>
	</g>
</g>
</svg>