<!-- Generator: Adobe Illustrator 19.0.0, SVG Export Plug-In  -->
<svg version="1.1"
	 xmlns="http://www.w3.org/2000/svg" xmlns:xlink="http://www.w3.org/1999/xlink" xmlns:a="http://ns.adobe.com/AdobeSVGViewerExtensions/3.0/"
	 x="0px" y="0px" width="780.1px" height="379.3px" viewBox="0 0 780.1 379.3" style="enable-background:new 0 0 780.1 379.3;"
	 xml:space="preserve">
<style type="text/css">
	.st0{fill:#E3E3E3;stroke:#E3E3E3;stroke-width:2.0919;stroke-miterlimit:10;}
	.st1{fill:#9D9FA0;}
	.st2{fill:#ED6A4A;}
	.st3{fill:#086A87;stroke:#086A87;stroke-width:1.81;stroke-linecap:round;stroke-linejoin:round;stroke-miterlimit:10;}
	.st4{fill:#33CCCC;}
	.st5{fill:none;stroke:#ED6A4A;stroke-width:7.4568;stroke-miterlimit:10;}
	.st6{fill:#FF6633;}
	.st7{fill:#086A87;stroke:#086A87;stroke-width:2.3031;stroke-linecap:round;stroke-linejoin:round;stroke-miterlimit:10;}
	.st8{fill:#FFFFFF;stroke:#ED6A4A;stroke-width:2.3031;stroke-miterlimit:10;}
	.st9{fill:none;stroke:#ED6A4A;stroke-width:7.3184;stroke-miterlimit:10;}
	.st10{fill:#086A87;stroke:#086A87;stroke-width:2.2793;stroke-linecap:round;stroke-linejoin:round;stroke-miterlimit:10;}
	.st11{fill:#E3E3E3;stroke:#FFFFFF;stroke-width:4;stroke-miterlimit:10;}
	.st12{fill:#FFFFFF;}
</style>
<defs>
</defs>
<rect x="3.7" y="103.9" class="st0" width="277.6" height="271.2"/>
<rect x="281.3" y="304.5" class="st1" width="324.9" height="35.9"/>
<rect x="281.3" y="250.7" class="st2" width="346.6" height="35.9"/>
<rect x="281.3" y="196.9" class="st3" width="399.2" height="35.9"/>
<rect x="281.3" y="143.2" class="st4" width="361.9" height="35.9"/>
<rect x="3.7" y="113.1" class="st5" width="771.4" height="262.1"/>
<g>
	<line class="st4" x1="47.3" y1="176.4" x2="56.3" y2="185.3"/>
	<line class="st4" x1="56.3" y1="176.4" x2="47.3" y2="185.3"/>
</g>
<polygon class="st6" points="706.5,373.3 706.5,307.5 775,307.5 "/>
<circle class="st7" cx="154.8" cy="246.5" r="74.8"/>
<circle class="st8" cx="154.8" cy="246.5" r="61.1"/>
<polyline class="st8" points="154.8,206.6 154.8,246.5 183.6,246.5 "/>
<line class="st9" x1="281.3" y1="113.1" x2="281.3" y2="379.3"/>
<rect x="1.3" y="36.1" class="st10" width="777.6" height="83"/>
<path class="st11" d="M144.5,52.9h-3.1c-5.7,0-10.3-4.6-10.3-10.3V12.3c0-5.7,4.6-10.3,10.3-10.3h3.1c5.7,0,10.3,4.6,10.3,10.3v30.4
	C154.8,48.3,150.1,52.9,144.5,52.9z"/>
<path class="st11" d="M659.1,52.9H656c-5.7,0-10.3-4.6-10.3-10.3V12.3C645.7,6.6,650.3,2,656,2h3.1c5.7,0,10.3,4.6,10.3,10.3v30.4
	C669.4,48.3,664.8,52.9,659.1,52.9z"/>
<rect x="141.1" y="161.1" class="st7" width="28" height="14.4"/>
<rect x="134.1" y="145" class="st7" width="41.3" height="16.1"/>
<rect x="154.8" y="145" class="st4" width="8.7" height="16.1"/>
<rect x="162.3" y="145" class="st12" width="4.4" height="16.1"/>
<g>
	<path class="st12" d="M45.7,88.3c0-3.2-2.1-5.1-5-5.1c-3.1,0-4.9,1.9-4.9,5.4c0,1.2,0.5,2.7,0.8,3.9h0.2c0.3-2.3,0.7-3.9,1.4-5
		c0.7-1.1,1.9-1.5,2.9-1.5c1.8,0,3.2,1.3,3.2,3.1c0,2-1.4,3.4-3.3,3.4c-0.5,0-0.9-0.1-1.4-0.3c-0.7,1.9-1.1,4.3-1.1,5.9h-3.3
		c0-1.5-0.7-3-1.3-4.6c-0.7-1.7-1.4-3.4-1.4-5.2c0-4.3,3.6-6.7,8.4-6.7c5.9,0,8.2,2.8,8.2,6.6v9.9h-3.3V88.3z M39.4,89.7
		c0,0.9,0.9,1.4,1.6,1.4c0.9,0,1.9-0.5,1.9-1.9c0-0.9-0.7-1.8-1.6-1.8C40.2,87.4,39.4,88.4,39.4,89.7z"/>
	<path class="st12" d="M51.7,84.2c2-1.7,3.8-2.5,6.2-2.5c3.4,0,6.7,1.8,6.7,5.7V94c0,2.7-1.7,4.4-4.3,4.4c-2.1,0-3.7-1.4-3.7-3.4
		c0-2.1,1.5-3.5,3.4-3.5c0.5,0,0.9,0.1,1.3,0.3v-4.1c0-2.6-1.4-4.3-3.8-4.3c-1.9,0-3.4,0.8-4.8,2.1L51.7,84.2z M60.3,92.9
		c-1.1,0-1.9,0.9-1.9,2c0,1.3,0.9,2,1.9,2c0.9,0,1.7-0.7,1.7-2.3c0-0.4-0.1-0.8-0.2-1.2C61.3,93.1,60.7,92.9,60.3,92.9z"/>
	<path class="st12" d="M74.7,98.1V87.7c0-2.8-1.5-3.9-3.2-3.9c-1.2,0-2.3,0.5-3.4,1.4L67,83.7c1.5-1.3,3.2-2.1,5-2.1
		c3.1,0,5.9,2,5.9,5.7v10.8H74.7z"/>
	<path class="st12" d="M87,91.1v-3c-0.5,0.2-0.9,0.3-1.4,0.3c-1.7,0-3.4-1.1-3.4-3.2c0-2.3,1.8-3.6,3.8-3.6c1.2,0,4.3,0.5,4.3,5v5.3
		c1.8,0.8,3.5,2,5.1,3.4v-7.1c0-1.1,0-2.3-0.1-5l3-1.2h0.4v16.1h-3.4c-1.2-1.7-3.2-3.4-5-4.2c0,0.2,0,0.4,0,0.6c0,1.5-1.1,4-4.1,4
		c-2.3,0-3.9-1.6-3.9-3.8c0-2,1.6-3.6,3.7-3.6C86.5,91,86.7,91,87,91.1z M87.6,84.9c0-1.1-0.7-1.8-1.7-1.8c-1.1,0-1.9,0.9-1.9,1.9
		c0,1.3,0.9,1.9,1.9,1.9c0.5,0,1.1-0.2,1.5-0.6C87.5,85.9,87.6,85.5,87.6,84.9z M86.5,92.7c-1.1,0-2.1,0.9-2.1,2.3
		c0,1.1,0.6,1.7,1.4,1.7c1.1,0,1.6-1.2,1.6-2.3c0-0.6,0-1.1-0.3-1.6C86.8,92.7,86.7,92.7,86.5,92.7z"/>
	<path class="st12" d="M113.8,92.9V88c0-3.9-2.2-4.7-3.8-4.7c-1.6,0-2.9,0.8-3.4,2.5l3.7,0.6l-0.6,1.5c-1.9,0.3-2.5,1.2-2.5,3.1v1.2
		c0.5-0.3,1.1-0.5,1.7-0.5c1.8,0,2.9,1.4,2.9,3.3c0,2.1-1.4,3.5-3.6,3.5c-2.6,0-4.1-1.7-4.1-5.1v-2.1c0-1.9,0.6-3,2.6-3.9v-0.1
		l-3.4-0.5c0.3-2.3,2-5.3,6.9-5.3c2.5,0,6.8,0.9,6.8,6v9.6l-2.7,1.2h-0.7C113.8,95.8,113.8,94,113.8,92.9z M107,94.9
		c0,1.2,0.5,2.1,1.6,2.1c1,0,1.7-0.9,1.7-2c0-1.4-0.9-1.9-1.7-1.9c-0.6,0-1.1,0.2-1.5,0.7C107.1,94.1,107,94.5,107,94.9z"/>
	<path class="st12" d="M112.5,72.6c0.9,0,1.7,0.2,2.4,0.5v-2.9l1.9-0.9h0.3v5.5c0.7,0.9,1,2,1,3.2c0,0.8-0.2,1.6-0.5,2.4
		c-3.2-2.1-6.3-3.1-10.7-2.9C107.3,74.5,109.5,72.6,112.5,72.6z M116.8,78.6c-0.2-2-2.5-3.6-4.6-3.6c-1.4,0-2.5,0.4-3.2,1.4
		C111.8,76.6,114.3,77.1,116.8,78.6z"/>
	<path class="st12" d="M115,79.8l-1-7h3.4l-0.9,6.4L115,79.8L115,79.8z"/>
	<path class="st12" d="M120.3,72c-1.1,0-2,0.5-2.5,1.7c0.4-0.2,0.8-0.2,1.2-0.2c1.5,0,2.7,1,2.7,2.7c0,1.7-1.3,2.8-2.9,2.8
		c-2,0-3.2-1.5-3.2-3.5c0-3.1,2.5-4.9,5.3-4.9c2.7,0,5.1,1.6,5.1,4.5V92c0.5-0.3,1.1-0.4,1.7-0.4c1.9,0,3.2,1.4,3.2,3.3
		c0,2.1-1.5,3.7-3.7,3.7c-2.6,0-4.4-1.7-4.4-5V75.2C122.8,73.3,122.1,72,120.3,72z M117.4,76c0,1,0.5,1.8,1.5,1.8
		c0.9,0,1.4-0.7,1.4-1.5c0-1-0.7-1.6-1.6-1.6c-0.4,0-0.8,0.2-1.2,0.4C117.4,75.5,117.4,75.7,117.4,76z M125.7,94.7
		c0,1.5,0.6,2.2,1.8,2.2c1.1,0,1.8-1,1.8-2.1c0-1.4-0.9-2-1.9-2c-0.6,0-1.1,0.2-1.5,0.7C125.7,93.9,125.7,94.3,125.7,94.7z"/>
	<path class="st12" d="M138.2,88.2c-0.5,0.2-1,0.2-1.4,0.2c-1.8,0-3.4-1.1-3.4-3.2c0-2.1,1.5-3.6,3.7-3.6c2.6,0,4.4,1.6,4.4,5.2v8.5
		c1.5-1.7,3.3-3,5.1-3.8v-3.2c0-1.1,0-2.3-0.1-5l3-1.2h0.4v8.5c0.2,0,0.5,0,0.7,0c2.3,0,3.8,1.6,3.8,3.8c0,2.4-1.6,4.3-4.1,4.3
		c-2.3,0-3.9-1.5-3.9-4.4c0-0.2,0-0.3,0-0.7c-2.3,1.3-4.1,3.3-5.1,4.8h-3.3V88.2z M138.6,85.3c0-1.5-0.7-2.2-1.7-2.2
		c-1.1,0-1.8,1-1.8,2c0,1.3,0.9,1.9,1.9,1.9c0.5,0,1.1-0.2,1.4-0.5C138.6,86.2,138.6,85.7,138.6,85.3z M149.9,92.3
		c-0.1,0.4-0.2,1.1-0.2,1.8c0,1.3,0.3,2.7,1.4,2.7c1.2,0,1.5-1.3,1.5-2.2c0-1.2-0.8-2.3-2-2.3C150.5,92.2,150.3,92.2,149.9,92.3z"/>
	<path class="st12" d="M167.9,98.4c0.1-2.6,0.1-4.4,0.1-5.5V88c0-3.9-2.1-4.7-3.7-4.7c-1.6,0-2.8,0.9-3.3,2.5l3.6,0.7L164,88
		c-1.6,0.3-1.9,1.1-1.9,3v7.1h-3.3v-6.8c0-1.8,0.4-2.9,2.4-3.7l0-0.1l-3.5-0.6c0.3-2.4,2-5.3,6.9-5.3c2.5,0,6.8,0.9,6.8,6v9.6
		l-2.7,1.2H167.9z"/>
	<path class="st12" d="M181.7,98.1V87.7c0-2.8-1.5-3.9-3.2-3.9c-1.2,0-2.3,0.5-3.4,1.4l-1.1-1.5c1.5-1.3,3.2-2.1,5-2.1
		c3.1,0,5.9,2,5.9,5.7v10.8H181.7z"/>
	<path class="st12" d="M188.3,86.2c0-3.6,2.5-5.3,4.8-5.3c1.4,0,2.4,0.5,3.4,1c0.7,0.4,1.3,0.6,1.9,0.6c0.7,0,1.3-0.5,1.6-0.9
		l0.9,1.2c-1.1,1.4-2.1,1.9-3.3,1.9c-1.2,0-2.2-0.4-3.2-0.7c-0.9-0.3-1.7-0.6-2.5-0.6c-0.8,0-1.4,0.4-1.4,1.1c0,0.2,0,0.4,0.1,0.6
		c4.1,0.4,6.7,0.7,8,1.7c1.2,0.9,1.3,1.8,1.3,3.9V94c0,2.7-1.7,4.4-4.3,4.4c-2.1,0-3.7-1.4-3.7-3.4c0-2.1,1.5-3.5,3.4-3.5
		c0.5,0,0.9,0.1,1.3,0.3v-1.7c0-2.2-1.2-3-8.2-3.4C188.3,86.5,188.3,86.4,188.3,86.2z M195.5,92.9c-1.1,0-1.9,0.9-1.9,2
		c0,1.3,0.9,2,1.9,2c0.9,0,1.7-0.7,1.7-2.3c0-0.4-0.1-0.8-0.2-1.2C196.5,93.1,195.9,92.9,195.5,92.9z"/>
	<path class="st12" d="M207.7,96.5h2.2V86.2c0-1.9-0.6-3.1-2.3-3.1c-1.1,0-2,0.5-2.5,1.6c0.4-0.2,0.8-0.2,1.2-0.2
		c1.5,0,2.7,1.1,2.7,2.8c0,1.7-1.4,2.9-3,2.9c-2.2,0-3.3-1.7-3.3-3.7c0-3.1,2.5-4.9,5.5-4.9c2.4,0,4.6,1.3,5,3.7
		c2.4-0.5,3-2.4,3.3-4.5h3.3c-0.3,2.6-1.8,4.1-4.1,5v0c3.4,0.5,3.8,2.5,3.8,4.3v4.2c0,3.5-2.4,3.7-5.1,3.7h-6.8L207.7,96.5z
		 M204.5,87.1c0,1,0.6,1.9,1.6,1.9c0.9,0,1.4-0.8,1.4-1.6c0-1-0.7-1.6-1.6-1.6c-0.4,0-0.9,0.2-1.3,0.4
		C204.5,86.5,204.5,86.7,204.5,87.1z M213.1,96.5h0.5c2.1,0,2.5-0.5,2.5-2.5V90c0-1.8-0.3-2.7-3-3.2V96.5z"/>
	<path class="st12" d="M211.8,78.6c0.7-0.1,1.5-0.4,2-1.1c-1.3-0.1-2.3-1.1-2.3-2.3c0-1.5,1.2-2.6,2.7-2.6c1.6,0,2.5,1.2,2.5,2.5
		c0,1-0.5,2-1.4,2.9l0,0.1c2.5-0.5,3.4-2.6,3.6-5.1h3.1c-0.4,2.5-1.6,4.4-3.8,5.6c-1.5,0.8-3.4,1.1-6.4,1.3L211.8,78.6z M214.1,73.8
		c-0.7,0-1.2,0.5-1.2,1.2c0,0.8,0.7,1.4,1.5,1.4c0.7,0,1.1-0.7,1.1-1.3C215.4,74.4,214.8,73.8,214.1,73.8z"/>
	<path class="st12" d="M224,84.2c2-1.7,4.1-2.6,6.6-2.6c3.4,0,6.7,1.8,6.7,5.7v5.5c0,4.5-2.8,5.6-6.6,5.6c-3.9,0-6.2-1.6-6.2-4.8v-3
		c0-2.5,1.5-4.6,4.3-4.6c2.5,0,3.4,1.8,3.4,3.2c0,2.3-1.4,3.4-3,3.4c-0.5,0-1-0.1-1.5-0.3v1.6c0,2.2,1.1,3.1,3.1,3.1
		c2.1,0,3.1-0.9,3.1-3.1v-6.1c0-2.6-1.3-4.3-3.7-4.3c-1.8,0-3.7,0.7-5.1,2.1L224,84.2z M228.8,91.4c1.1,0,1.7-0.8,1.7-1.9
		c0-1.2-0.5-2.1-1.7-2.1c-1,0-1.4,1-1.4,2.1c0,0.5,0.1,1,0.3,1.5C228.1,91.3,228.5,91.4,228.8,91.4z"/>
	<path class="st12" d="M256.7,70.6h0.4v22.9c0,4.1-2,4.7-6,4.7h-7.7l0.3-1.8h2.2v-8c-0.5,0.2-0.9,0.3-1.4,0.3
		c-1.7,0-3.3-1.2-3.3-3.3c0-2.4,1.8-3.7,3.8-3.7c1.2,0,4.3,0.5,4.3,5v9.8h0.7c2.9,0,3.9-0.2,3.9-3.1V76.9c0-1.1,0-2.3-0.1-5
		L256.7,70.6z M246.4,85c0-1.2-0.7-1.9-1.7-1.9c-1.1,0-1.9,0.9-1.9,2c0,1.4,0.9,2,1.8,2c0.5,0,1.1-0.2,1.5-0.6
		C246.4,86,246.4,85.5,246.4,85z"/>
	<path class="st12" d="M276.6,70.6h0.4v22.9c0,4.1-2,4.7-6,4.7h-7.7l0.3-1.8h2.2v-8c-0.5,0.2-0.9,0.3-1.4,0.3
		c-1.7,0-3.3-1.2-3.3-3.3c0-2.4,1.8-3.7,3.8-3.7c1.2,0,4.3,0.5,4.3,5v9.8h0.7c2.9,0,3.9-0.2,3.9-3.1V76.9c0-1.1,0-2.3-0.1-5
		L276.6,70.6z M266.3,85c0-1.2-0.7-1.9-1.7-1.9c-1.1,0-1.9,0.9-1.9,2c0,1.4,0.9,2,1.8,2c0.5,0,1.1-0.2,1.5-0.6
		C266.2,86,266.3,85.5,266.3,85z"/>
	<path class="st12" d="M272.4,72.6c3.5,0,5.6,2.5,5.6,5.4c0,0.8-0.2,1.6-0.5,2.4c-3.2-2.1-6.3-3.1-10.7-2.9
		C267.2,74.5,269.4,72.6,272.4,72.6z M276.7,78.6c-0.2-2-2.5-3.6-4.6-3.6c-1.4,0-2.5,0.4-3.2,1.4C271.7,76.6,274.2,77.1,276.7,78.6z
		"/>
	<path class="st12" d="M269.5,78.6c0.7-0.1,1.5-0.4,2-1.1c-1.3-0.1-2.3-1.1-2.3-2.3c0-1.5,1.2-2.6,2.7-2.6c1.6,0,2.5,1.2,2.5,2.5
		c0,1-0.5,2-1.4,2.9l0,0.1c2.5-0.5,3.4-2.6,3.6-5.1h3.1c-0.4,2.5-1.6,4.4-3.8,5.6c-1.5,0.8-3.4,1.1-6.4,1.3L269.5,78.6z M271.7,73.8
		c-0.7,0-1.2,0.5-1.2,1.2c0,0.8,0.7,1.4,1.5,1.4c0.7,0,1.1-0.7,1.1-1.3C273,74.4,272.5,73.8,271.7,73.8z"/>
	<path class="st12" d="M287.8,88.4c-1.7,0-3.4-1.1-3.4-3.2c0-1.9,1.5-3.5,3.8-3.5c1.2,0,4.3,0.5,4.3,4.8v7.6c0,3-0.2,4.1-2.8,4.1
		h-2.3c-2.3-3.3-6-7.3-8.5-8.9l1.1-1.6c2.9,2,6.6,5.9,8.4,8.6c0.6,0,0.7-0.3,0.7-1.7v-6.4C288.7,88.3,288.3,88.4,287.8,88.4z
		 M289.7,85.3c0-1.1-0.5-2.1-1.7-2.1c-1.1,0-1.8,0.9-1.8,2c0,1.2,1,1.9,2,1.9c0.5,0,0.9-0.2,1.3-0.5
		C289.6,86.1,289.7,85.7,289.7,85.3z"/>
	<path class="st12" d="M297.1,84.2c2-1.7,4.1-2.6,6.6-2.6c3.4,0,6.7,1.8,6.7,5.7v5.5c0,4.5-2.8,5.6-6.6,5.6c-3.9,0-6.2-1.6-6.2-4.8
		v-3c0-2.5,1.5-4.6,4.3-4.6c2.5,0,3.4,1.8,3.4,3.2c0,2.3-1.4,3.4-3,3.4c-0.5,0-1-0.1-1.5-0.3v1.6c0,2.2,1.1,3.1,3.1,3.1
		c2.1,0,3.1-0.9,3.1-3.1v-6.1c0-2.6-1.3-4.3-3.7-4.3c-1.8,0-3.7,0.7-5.1,2.1L297.1,84.2z M301.9,91.4c1.1,0,1.7-0.8,1.7-1.9
		c0-1.2-0.5-2.1-1.7-2.1c-1,0-1.4,1-1.4,2.1c0,0.5,0.1,1,0.3,1.5C301.2,91.3,301.5,91.4,301.9,91.4z"/>
	<path class="st12" d="M315,84.2c2-1.7,4.1-2.6,6.6-2.6c3.4,0,6.7,1.8,6.7,5.7v5.5c0,4.5-2.8,5.6-6.6,5.6c-3.9,0-6.2-1.6-6.2-4.8v-3
		c0-2.5,1.5-4.6,4.3-4.6c2.5,0,3.4,1.8,3.4,3.2c0,2.3-1.4,3.4-3,3.4c-0.5,0-1-0.1-1.5-0.3v1.6c0,2.2,1.1,3.1,3.1,3.1
		c2.1,0,3.1-0.9,3.1-3.1v-6.1c0-2.6-1.3-4.3-3.7-4.3c-1.8,0-3.7,0.7-5.1,2.1L315,84.2z M319.8,91.4c1.1,0,1.7-0.8,1.7-1.9
		c0-1.2-0.5-2.1-1.7-2.1c-1,0-1.4,1-1.4,2.1c0,0.5,0.1,1,0.3,1.5C319,91.3,319.4,91.4,319.8,91.4z"/>
	<path class="st12" d="M336.9,88.2c-0.5,0.2-1,0.2-1.4,0.2c-1.8,0-3.4-1.1-3.4-3.2c0-2.1,1.5-3.6,3.7-3.6c2.6,0,4.4,1.6,4.4,5.2v8.5
		c1.5-1.7,3.3-3,5.1-3.8v-3.2c0-1.1,0-2.3-0.1-5l3-1.2h0.4v8.5c0.2,0,0.5,0,0.7,0c2.3,0,3.8,1.6,3.8,3.8c0,2.4-1.6,4.3-4.1,4.3
		c-2.3,0-3.9-1.5-3.9-4.4c0-0.2,0-0.3,0-0.7c-2.3,1.3-4.1,3.3-5.1,4.8h-3.3V88.2z M337.3,85.3c0-1.5-0.7-2.2-1.7-2.2
		c-1.1,0-1.8,1-1.8,2c0,1.3,0.9,1.9,1.9,1.9c0.5,0,1.1-0.2,1.4-0.5C337.2,86.2,337.3,85.7,337.3,85.3z M348.6,92.3
		c-0.1,0.4-0.2,1.1-0.2,1.8c0,1.3,0.3,2.7,1.4,2.7c1.2,0,1.5-1.3,1.5-2.2c0-1.2-0.8-2.3-2-2.3C349.2,92.2,348.9,92.2,348.6,92.3z"/>
	<path class="st12" d="M362.2,91.5c1.9,0,3.2,1.4,3.2,3.3c0,2.1-1.5,3.7-3.7,3.7c-2.6,0-4.4-1.7-4.4-5V74.7c0-1.4-0.4-1.5-0.6-1.5
		c-0.4,1.1-1,2.8-2.2,6.2h-0.8c-1.3-3.7-1.8-5.3-2.2-5.9c-0.3-0.5-0.5-0.5-1-0.5v-2.3h0.7c1.8,0,1.8,0,3.4,4.4h0.1
		c0.9-2.7,1.3-3.6,1.6-4.4h0.1c2,0,4.3,0.7,4.3,4.3v17C361,91.7,361.6,91.5,362.2,91.5z M360.2,94.7c0,1.5,0.6,2.2,1.8,2.2
		c1.1,0,1.8-1,1.8-2.1c0-1.4-0.9-2-1.9-2c-0.6,0-1.1,0.2-1.5,0.7C360.2,93.9,360.2,94.3,360.2,94.7z"/>
	<path class="st12" d="M379.1,98.1v-7.9c-1.1-1.2-2.6-1.8-3.9-1.8c-1.3,0-2.6,0.7-2.6,2.8c0,0.3,0,0.6,0.1,1c0.5-0.3,1-0.4,1.6-0.4
		c1.8,0,2.9,1.4,2.9,3.3c0,2.1-1.4,3.5-3.6,3.5c-2.6,0-4.2-1.7-4.2-5.1v-1.2c0-5,4.2-5.5,5.6-5.5c1.3,0,2.8,0.5,4.1,1.2v-0.3
		c0-2.6-1.4-4.3-3.8-4.3c-1.9,0-3.5,0.8-4.9,2.1l-1.1-1.4c2-1.7,3.9-2.5,6.4-2.5c3.4,0,6.7,1.8,6.7,5.7v10.8H379.1z M372.4,94.9
		c0,1.2,0.5,2.1,1.6,2.1c1,0,1.7-0.9,1.7-2c0-1.4-0.9-1.9-1.7-1.9c-0.6,0-1.1,0.2-1.5,0.7C372.4,94.1,372.4,94.5,372.4,94.9z"/>
	<path class="st12" d="M391.1,88.2c-0.5,0.2-1,0.2-1.4,0.2c-1.8,0-3.4-1.1-3.4-3.2c0-2.1,1.5-3.6,3.7-3.6c2.6,0,4.4,1.6,4.4,5.2v8.5
		c1.5-1.7,3.3-3,5.1-3.8v-3.2c0-1.1,0-2.3-0.1-5l3-1.2h0.4v8.5c0.2,0,0.5,0,0.7,0c2.3,0,3.8,1.6,3.8,3.8c0,2.4-1.6,4.3-4.1,4.3
		c-2.3,0-3.9-1.5-3.9-4.4c0-0.2,0-0.3,0-0.7c-2.3,1.3-4.1,3.3-5.1,4.8h-3.3V88.2z M391.5,85.3c0-1.5-0.7-2.2-1.7-2.2
		c-1.1,0-1.8,1-1.8,2c0,1.3,0.9,1.9,1.9,1.9c0.5,0,1.1-0.2,1.4-0.5C391.4,86.2,391.5,85.7,391.5,85.3z M402.8,92.3
		c-0.1,0.4-0.2,1.1-0.2,1.8c0,1.3,0.3,2.7,1.4,2.7c1.2,0,1.5-1.3,1.5-2.2c0-1.2-0.8-2.3-2-2.3C403.4,92.2,403.1,92.2,402.8,92.3z"/>
	<path class="st12" d="M406.7,74.8c-0.9-0.5-1.5-0.7-2.2-0.7c-1.6,0-2.6,1.2-2.6,2.5c0,0.9,0.4,1.8,1.7,2.1
		c-0.3-0.4-0.4-0.8-0.4-1.2c0-1,0.8-1.8,1.9-1.8c1,0,1.9,0.8,1.9,1.8c0,1.6-1.6,2.3-3,2.3c-2.3,0-4.3-1.4-4.3-3.6c0-2.1,2-3.4,4-3.4
		c0.7,0,1.4,0.2,2,0.5l0.7-4.3h3.1L406.7,74.8z M405.8,77.5c0-0.4-0.3-0.9-0.8-0.9c-0.5,0-0.9,0.4-0.9,0.9c0,0.4,0.2,0.7,0.5,1.1
		C405.5,78.6,405.8,78,405.8,77.5z"/>
	<path class="st12" d="M426.3,82v13.4c0,2-0.4,2.7-1.8,2.7h-1.3l-4.3-6.7l-4.3,5.8c-0.4,0.6-0.7,0.9-1.3,0.9h-2.2V86.3
		c0-2.5,1.8-4.6,4.5-4.6c2.6,0,3.6,1.8,3.6,3.2c0,2.3-1.5,3.5-3.3,3.5c-0.5,0-1-0.1-1.5-0.3v4.3c0,1-0.1,1.8-0.3,2.8l0.1,0l4.7-6.2
		h0.3l4.1,6.1l0.1,0c-0.2-1-0.3-1.9-0.3-2.8v-4c0-1.1,0-2.3-0.1-5l3-1.2H426.3z M415.7,87.1c1.1,0,1.9-0.8,1.9-1.9
		c0-1.2-0.6-2.1-1.8-2.1c-1.2,0-1.6,1-1.6,2.1c0,0.5,0.1,1,0.3,1.5C414.8,86.9,415.2,87.1,415.7,87.1z"/>
	<path class="st12" d="M424.2,79.8l-1-7h3.4l-0.9,6.4L424.2,79.8L424.2,79.8z"/>
	<path class="st12" d="M436.7,98.1V87.7c0-2.8-1.5-3.9-3.2-3.9c-1.2,0-2.3,0.5-3.4,1.4l-1.1-1.5c1.5-1.3,3.2-2.1,5-2.1
		c3.1,0,5.9,2,5.9,5.7v10.8H436.7z"/>
	<path class="st12" d="M448.7,88.2c-0.5,0.2-1,0.2-1.4,0.2c-1.8,0-3.4-1.1-3.4-3.2c0-2.1,1.5-3.6,3.7-3.6c2.6,0,4.4,1.6,4.4,5.2v8.5
		c1.5-1.7,3.3-3,5.1-3.8v-3.2c0-1.1,0-2.3-0.1-5l3-1.2h0.4v8.5c0.2,0,0.5,0,0.7,0c2.3,0,3.8,1.6,3.8,3.8c0,2.4-1.6,4.3-4.1,4.3
		c-2.3,0-3.9-1.5-3.9-4.4c0-0.2,0-0.3,0-0.7c-2.3,1.3-4.1,3.3-5.1,4.8h-3.3V88.2z M449.2,85.3c0-1.5-0.7-2.2-1.7-2.2
		c-1.1,0-1.8,1-1.8,2c0,1.3,0.9,1.9,1.9,1.9c0.5,0,1.1-0.2,1.4-0.5C449.1,86.2,449.2,85.7,449.2,85.3z M460.4,92.3
		c-0.1,0.4-0.2,1.1-0.2,1.8c0,1.3,0.3,2.7,1.4,2.7c1.2,0,1.5-1.3,1.5-2.2c0-1.2-0.8-2.3-2-2.3C461,92.2,460.8,92.2,460.4,92.3z"/>
	<path class="st12" d="M472.5,91.1v-3c-0.5,0.2-0.9,0.3-1.4,0.3c-1.7,0-3.4-1.1-3.4-3.2c0-2.3,1.8-3.6,3.8-3.6c1.2,0,4.3,0.5,4.3,5
		v5.3c1.8,0.8,3.5,2,5.1,3.4v-7.1c0-1.1,0-2.3-0.1-5l3-1.2h0.4v16.1h-3.4c-1.2-1.7-3.2-3.4-5-4.2c0,0.2,0,0.4,0,0.6
		c0,1.5-1.1,4-4.1,4c-2.3,0-3.9-1.6-3.9-3.8c0-2,1.6-3.6,3.7-3.6C471.9,91,472.2,91,472.5,91.1z M473,84.9c0-1.1-0.7-1.8-1.7-1.8
		c-1.1,0-1.9,0.9-1.9,1.9c0,1.3,0.9,1.9,1.9,1.9c0.5,0,1.1-0.2,1.5-0.6C472.9,85.9,473,85.5,473,84.9z M472,92.7
		c-1.1,0-2.1,0.9-2.1,2.3c0,1.1,0.6,1.7,1.4,1.7c1.1,0,1.6-1.2,1.6-2.3c0-0.6,0-1.1-0.3-1.6C472.3,92.7,472.1,92.7,472,92.7z"/>
	<path class="st12" d="M478.4,72.7v-2.6l1.7-0.8h0.3v3.4c0.7,0.1,1.2,0.3,1.8,0.5v-3.1l1.7-0.8h0.3v5.5c0.7,0.9,1,2,1,3.2
		c0,0.8-0.2,1.6-0.5,2.4c-3.2-2.1-6.3-3.1-10.7-2.9C474.3,74.9,476,73.2,478.4,72.7z M483.9,78.6c-0.2-2-2.5-3.6-4.6-3.6
		c-1.4,0-2.5,0.4-3.2,1.4C478.9,76.6,481.4,77.1,483.9,78.6z"/>
	<path class="st12" d="M488.9,84.2c2-1.7,4.1-2.6,6.6-2.6c3.4,0,6.7,1.8,6.7,5.7v5.5c0,4.5-2.8,5.6-6.6,5.6c-3.9,0-6.2-1.6-6.2-4.8
		v-3c0-2.5,1.5-4.6,4.3-4.6c2.5,0,3.4,1.8,3.4,3.2c0,2.3-1.4,3.4-3,3.4c-0.5,0-1-0.1-1.5-0.3v1.6c0,2.2,1.1,3.1,3.1,3.1
		c2.1,0,3.1-0.9,3.1-3.1v-6.1c0-2.6-1.3-4.3-3.7-4.3c-1.8,0-3.7,0.7-5.1,2.1L488.9,84.2z M493.7,91.4c1.1,0,1.7-0.8,1.7-1.9
		c0-1.2-0.5-2.1-1.7-2.1c-1,0-1.4,1-1.4,2.1c0,0.5,0.1,1,0.3,1.5C492.9,91.3,493.3,91.4,493.7,91.4z"/>
	<path class="st12" d="M517.1,92.9V88c0-3.9-2.2-4.7-3.8-4.7c-1.6,0-2.9,0.8-3.4,2.5l3.7,0.6l-0.6,1.5c-1.9,0.3-2.5,1.2-2.5,3.1v1.2
		c0.5-0.3,1.1-0.5,1.7-0.5c1.8,0,2.9,1.4,2.9,3.3c0,2.1-1.4,3.5-3.6,3.5c-2.6,0-4.1-1.7-4.1-5.1v-2.1c0-1.9,0.6-3,2.6-3.9v-0.1
		l-3.4-0.5c0.3-2.3,2-5.3,6.9-5.3c2.5,0,6.8,0.9,6.8,6v9.6l-2.7,1.2h-0.7C517.1,95.8,517.1,94,517.1,92.9z M510.3,94.9
		c0,1.2,0.5,2.1,1.6,2.1c1,0,1.7-0.9,1.7-2c0-1.4-0.9-1.9-1.7-1.9c-0.6,0-1.1,0.2-1.5,0.7C510.4,94.1,510.3,94.5,510.3,94.9z"/>
	<path class="st12" d="M514.7,72.7v-2.6l1.7-0.8h0.3v3.4c0.7,0.1,1.2,0.3,1.8,0.5v-3.1l1.7-0.8h0.3v5.5c0.7,0.9,1,2,1,3.2
		c0,0.8-0.2,1.6-0.5,2.4c-3.2-2.1-6.3-3.1-10.7-2.9C510.6,74.9,512.3,73.2,514.7,72.7z M520.1,78.6c-0.2-2-2.5-3.6-4.6-3.6
		c-1.4,0-2.5,0.4-3.2,1.4C515.1,76.6,517.6,77.1,520.1,78.6z"/>
	<path class="st12" d="M525.1,84.2c2-1.7,4.1-2.6,6.6-2.6c3.4,0,6.7,1.8,6.7,5.7v5.5c0,4.5-2.8,5.6-6.6,5.6c-3.9,0-6.2-1.6-6.2-4.8
		v-3c0-2.5,1.5-4.6,4.3-4.6c2.5,0,3.4,1.8,3.4,3.2c0,2.3-1.4,3.4-3,3.4c-0.5,0-1-0.1-1.5-0.3v1.6c0,2.2,1.1,3.1,3.1,3.1
		c2.1,0,3.1-0.9,3.1-3.1v-6.1c0-2.6-1.3-4.3-3.7-4.3c-1.8,0-3.7,0.7-5.1,2.1L525.1,84.2z M529.9,91.4c1.1,0,1.7-0.8,1.7-1.9
		c0-1.2-0.5-2.1-1.7-2.1c-1,0-1.4,1-1.4,2.1c0,0.5,0.1,1,0.3,1.5C529.1,91.3,529.5,91.4,529.9,91.4z"/>
	<path class="st12" d="M547,88.1c-0.4,0.2-0.9,0.2-1.3,0.2c-1.7,0-3.4-1.1-3.4-3.2c0-1.9,1.5-3.5,3.8-3.5c1.2,0,4.3,0.5,4.3,4.8V91
		c0,0.9,0,1.9-0.2,2.8l0.1,0c2-3.5,3.6-5.3,5.5-6.6c-1.1-0.5-1.6-1.6-1.6-2.6c0-1.9,1.7-3.3,3.5-3.3c1.7,0,3.3,1.3,3.3,3.1
		c0,1.1-0.5,2-1.2,2.7c0.2,0.2,0.4,0.5,0.4,1v10.1h-3.3v-9.8c-2.2,1.4-4.8,5-6.7,9.8H547V88.1z M547.5,85.3c0-1.1-0.5-2.1-1.7-2.1
		c-1.1,0-1.8,0.9-1.8,2c0,1.2,1,1.9,2,1.9c0.5,0,0.9-0.2,1.3-0.5C547.4,86.1,547.5,85.7,547.5,85.3z M559.2,84.4
		c0-0.9-0.7-1.6-1.7-1.6c-1.1,0-1.7,0.8-1.7,1.6c0,1.1,0.9,2,2,2.1C558.6,86.1,559.2,85.3,559.2,84.4z"/>
	<path class="st12" d="M563.4,86.2c0-3.6,2.5-5.3,4.8-5.3c1.4,0,2.4,0.5,3.4,1c0.7,0.4,1.3,0.6,1.9,0.6c0.7,0,1.3-0.5,1.6-0.9
		l0.9,1.2c-1.1,1.4-2.1,1.9-3.3,1.9c-1.2,0-2.2-0.4-3.2-0.7c-0.9-0.3-1.7-0.6-2.5-0.6c-0.8,0-1.4,0.4-1.4,1.1c0,0.2,0,0.4,0.1,0.6
		c4.1,0.4,6.7,0.7,8,1.7c1.2,0.9,1.3,1.8,1.3,3.9V94c0,2.7-1.7,4.4-4.3,4.4c-2.1,0-3.7-1.4-3.7-3.4c0-2.1,1.5-3.5,3.4-3.5
		c0.5,0,0.9,0.1,1.3,0.3v-1.7c0-2.2-1.2-3-8.2-3.4C563.4,86.5,563.4,86.4,563.4,86.2z M570.6,92.9c-1.1,0-1.9,0.9-1.9,2
		c0,1.3,0.9,2,1.9,2c0.9,0,1.7-0.7,1.7-2.3c0-0.4-0.1-0.8-0.2-1.2C571.6,93.1,571,92.9,570.6,92.9z"/>
	<path class="st12" d="M568.6,72.7v-2.6l1.7-0.8h0.3v3.4c0.7,0.1,1.2,0.3,1.8,0.5v-3.1l1.7-0.8h0.3v5.5c0.7,0.9,1,2,1,3.2
		c0,0.8-0.2,1.6-0.5,2.4c-3.2-2.1-6.3-3.1-10.7-2.9C564.5,74.9,566.2,73.2,568.6,72.7z M574.1,78.6c-0.2-2-2.5-3.6-4.6-3.6
		c-1.4,0-2.5,0.4-3.2,1.4C569.1,76.6,571.6,77.1,574.1,78.6z"/>
	<path class="st12" d="M579,84.2c2-1.7,4.1-2.6,6.6-2.6c3.4,0,6.7,1.8,6.7,5.7v5.5c0,4.5-2.8,5.6-6.6,5.6c-3.9,0-6.2-1.6-6.2-4.8v-3
		c0-2.5,1.5-4.6,4.3-4.6c2.5,0,3.4,1.8,3.4,3.2c0,2.3-1.4,3.4-3,3.4c-0.5,0-1-0.1-1.5-0.3v1.6c0,2.2,1.1,3.1,3.1,3.1
		c2.1,0,3.1-0.9,3.1-3.1v-6.1c0-2.6-1.3-4.3-3.7-4.3c-1.8,0-3.7,0.7-5.1,2.1L579,84.2z M583.9,91.4c1.1,0,1.7-0.8,1.7-1.9
		c0-1.2-0.5-2.1-1.7-2.1c-1,0-1.4,1-1.4,2.1c0,0.5,0.1,1,0.3,1.5C583.1,91.3,583.5,91.4,583.9,91.4z"/>
	<path class="st12" d="M611.2,79.9c-0.2,1.5-0.9,2.7-2,3.6c0.9,0.9,1.5,2.2,1.5,3.8v10.8h-3.3v-7.9c-1.1-1.2-2.6-1.8-3.9-1.8
		c-1.3,0-2.6,0.7-2.6,2.8c0,0.3,0,0.6,0.1,1c0.5-0.3,1-0.4,1.6-0.4c1.8,0,2.9,1.4,2.9,3.3c0,2.1-1.4,3.5-3.6,3.5
		c-2.6,0-4.2-1.7-4.2-5.1v-1.2c0-5,4.2-5.5,5.6-5.5c1.3,0,2.8,0.5,4.1,1.2v-0.3c0-1-0.2-1.8-0.6-2.5c-0.6,0.4-1.3,0.7-1.9,0.9
		l-1-0.5v-0.1c0.6-0.4,1.3-0.9,1.9-1.4c-0.6-0.5-1.4-0.7-2.3-0.7c-1.9,0-3.5,0.8-4.9,2.1l-1.1-1.4c2-1.7,3.9-2.5,6.4-2.5
		c1.2,0,2.3,0.2,3.4,0.7c0.4-0.7,0.7-1.5,0.7-2.4H611.2z M600.6,94.9c0,1.2,0.5,2.1,1.6,2.1c1,0,1.7-0.9,1.7-2
		c0-1.4-0.9-1.9-1.7-1.9c-0.6,0-1.1,0.2-1.5,0.7C600.6,94.1,600.6,94.5,600.6,94.9z"/>
	<path class="st12" d="M619.6,91.1v-3c-0.5,0.2-0.9,0.3-1.4,0.3c-1.7,0-3.4-1.1-3.4-3.2c0-2.3,1.8-3.6,3.8-3.6c1.2,0,4.3,0.5,4.3,5
		v5.3c1.8,0.8,3.5,2,5.1,3.4v-7.1c0-1.1,0-2.3-0.1-5l3-1.2h0.4v16.1H628c-1.2-1.7-3.2-3.4-5-4.2c0,0.2,0,0.4,0,0.6
		c0,1.5-1.1,4-4.1,4c-2.3,0-3.9-1.6-3.9-3.8c0-2,1.6-3.6,3.7-3.6C619.1,91,619.3,91,619.6,91.1z M620.2,84.9c0-1.1-0.7-1.8-1.7-1.8
		c-1.1,0-1.9,0.9-1.9,1.9c0,1.3,0.9,1.9,1.9,1.9c0.5,0,1.1-0.2,1.5-0.6C620.1,85.9,620.2,85.5,620.2,84.9z M619.1,92.7
		c-1.1,0-2.1,0.9-2.1,2.3c0,1.1,0.6,1.7,1.4,1.7c1.1,0,1.6-1.2,1.6-2.3c0-0.6,0-1.1-0.3-1.6C619.4,92.7,619.3,92.7,619.1,92.7z"/>
	<path class="st12" d="M641.7,98.1V87.7c0-2.8-1.5-3.9-3.2-3.9c-1.2,0-2.3,0.5-3.4,1.4l-1.1-1.5c1.5-1.3,3.2-2.1,5-2.1
		c3.1,0,5.9,2,5.9,5.7v10.8H641.7z"/>
	<path class="st12" d="M648.4,86.2c0-3.6,2.5-5.3,4.8-5.3c1.4,0,2.4,0.5,3.4,1c0.7,0.4,1.3,0.6,1.9,0.6c0.7,0,1.3-0.5,1.6-0.9
		l0.9,1.2c-1.1,1.4-2.1,1.9-3.3,1.9c-1.2,0-2.2-0.4-3.2-0.7c-0.9-0.3-1.7-0.6-2.5-0.6c-0.8,0-1.4,0.4-1.4,1.1c0,0.2,0,0.4,0.1,0.6
		c4.1,0.4,6.7,0.7,8,1.7c1.2,0.9,1.3,1.8,1.3,3.9V94c0,2.7-1.7,4.4-4.3,4.4c-2.1,0-3.7-1.4-3.7-3.4c0-2.1,1.5-3.5,3.4-3.5
		c0.5,0,0.9,0.1,1.3,0.3v-1.7c0-2.2-1.2-3-8.2-3.4C648.4,86.5,648.4,86.4,648.4,86.2z M655.5,92.9c-1.1,0-1.9,0.9-1.9,2
		c0,1.3,0.9,2,1.9,2c0.9,0,1.7-0.7,1.7-2.3c0-0.4-0.1-0.8-0.2-1.2C656.6,93.1,656,92.9,655.5,92.9z"/>
	<path class="st12" d="M660.2,74.8c-0.9-0.5-1.5-0.7-2.2-0.7c-1.6,0-2.6,1.2-2.6,2.5c0,0.9,0.4,1.8,1.7,2.1
		c-0.3-0.4-0.4-0.8-0.4-1.2c0-1,0.8-1.8,1.9-1.8c1,0,1.9,0.8,1.9,1.8c0,1.6-1.6,2.3-3,2.3c-2.3,0-4.3-1.4-4.3-3.6c0-2.1,2-3.4,4-3.4
		c0.7,0,1.4,0.2,2,0.5l0.7-4.3h3.1L660.2,74.8z M659.4,77.5c0-0.4-0.3-0.9-0.8-0.9c-0.5,0-0.9,0.4-0.9,0.9c0,0.4,0.2,0.7,0.5,1.1
		C659,78.6,659.4,78,659.4,77.5z"/>
	<path class="st12" d="M667.9,88.1c-0.5,0.2-0.9,0.3-1.4,0.3c-1.9,0-3.2-1.3-3.2-3.3c0-2.2,1.6-3.5,3.8-3.5c1.1,0,4.2,0.5,4.2,4.8
		V89c0,0.7-0.1,2.1-0.2,2.8l0.1,0c1.6-3.8,2.4-6.2,2.9-7.1c0.9-2,1.8-3.2,3.5-3.2c2,0,3.4,1.6,3.4,4.1v12.4h-3.3V86
		c0-1.4-0.4-2-0.8-2c-0.6,0-0.9,0.5-1.6,2c-0.9,2-2.1,5.4-4.4,12.1h-3V88.1z M668.5,85c0-1.2-0.8-2-1.7-2c-1.1,0-1.9,0.9-1.9,2
		c0,1.3,0.9,2,1.8,2c0.5,0,1.1-0.2,1.6-0.6C668.4,86,668.5,85.5,668.5,85z"/>
	<path class="st12" d="M684.8,70.6c2.3,0,4.1,1.5,5.3,1.5c0.5,0,1.1-0.2,1.7-0.9l0.8,1.2c-0.9,1.2-2.1,1.7-3.4,1.7
		c-2.1,0-3.7-1.3-5.7-1.3c-0.5,0-1.3,0.3-1.3,1.3c0,0.1,0,0.2,0,0.4c7.8,0.2,7.6,2.8,7.6,5.9V92c0.5-0.3,1.1-0.4,1.7-0.4
		c1.9,0,3.2,1.4,3.2,3.3c0,2.1-1.5,3.7-3.7,3.7c-2.6,0-4.4-1.7-4.4-5V80.3c0-3.3-0.5-4-6.4-4.2C680,73.1,681.8,70.6,684.8,70.6z
		 M689.6,94.7c0,1.5,0.6,2.2,1.8,2.2c1.1,0,1.8-1,1.8-2.1c0-1.4-0.9-2-1.9-2c-0.6,0-1.1,0.2-1.5,0.7
		C689.7,93.9,689.6,94.3,689.6,94.7z"/>
	<path class="st12" d="M715.6,98.1h-2l-3.9-11.5l-3,9.6c-0.4,1.1-0.9,2-2.1,2h-2.4v-9.8c-0.5,0.2-0.9,0.3-1.4,0.3
		c-1.7,0-3.3-1.2-3.3-3.3c0-2.4,1.8-3.7,3.8-3.7c1.2,0,4.3,0.5,4.3,5V91c0,1.7-0.2,2.9-0.3,4.1l0.1,0l4.1-12.6h0.7l4.2,12.6l0.1,0
		c-0.2-1.2-0.2-2.3-0.2-4.1V76.9c0-1.1,0-2.3-0.1-5l3-1.2h0.4v24.8C717.5,97.4,717.1,98.1,715.6,98.1z M702.7,85
		c0-1.2-0.7-1.9-1.7-1.9c-1.1,0-1.9,0.9-1.9,2c0,1.4,0.9,2,1.8,2c0.5,0,1.1-0.2,1.5-0.6C702.6,86,702.7,85.5,702.7,85z"/>
	<path class="st12" d="M726.2,88.2c-0.5,0.2-1,0.2-1.4,0.2c-1.8,0-3.4-1.1-3.4-3.2c0-2.1,1.5-3.6,3.7-3.6c2.6,0,4.4,1.6,4.4,5.2v8.5
		c1.5-1.7,3.3-3,5.1-3.8v-3.2c0-1.1,0-2.3-0.1-5l3-1.2h0.4v8.5c0.2,0,0.5,0,0.7,0c2.3,0,3.8,1.6,3.8,3.8c0,2.4-1.6,4.3-4.1,4.3
		c-2.3,0-3.9-1.5-3.9-4.4c0-0.2,0-0.3,0-0.7c-2.3,1.3-4.1,3.3-5.1,4.8h-3.3V88.2z M726.6,85.3c0-1.5-0.7-2.2-1.7-2.2
		c-1.1,0-1.8,1-1.8,2c0,1.3,0.9,1.9,1.9,1.9c0.5,0,1.1-0.2,1.4-0.5C726.5,86.2,726.6,85.7,726.6,85.3z M737.9,92.3
		c-0.1,0.4-0.2,1.1-0.2,1.8c0,1.3,0.3,2.7,1.4,2.7c1.2,0,1.5-1.3,1.5-2.2c0-1.2-0.8-2.3-2-2.3C738.5,92.2,738.2,92.2,737.9,92.3z"/>
</g>
<g>
	<path class="st12" d="M306.3,170.3v-0.7c2-0.2,2.2-0.4,2.2-2.1V161c0-1.2-0.1-1.3-1.1-1.4l-1.2-0.1v-0.6c1.6-0.3,3.1-0.7,4.9-1.2
		v9.8c0,1.6,0.2,2,2.2,2.1v0.7H306.3z"/>
	<path class="st12" d="M332.7,162.8c0-2.5-1.6-3.9-3.8-3.9c-2.4,0-3.8,1.5-3.8,4.2c0,1,0.4,2.1,0.6,3h0.1c0.2-1.8,0.5-3,1.1-3.8
		c0.6-0.8,1.4-1.2,2.2-1.2c1.4,0,2.5,1,2.5,2.4c0,1.6-1.1,2.6-2.5,2.6c-0.4,0-0.7-0.1-1.1-0.2c-0.6,1.4-0.9,3.3-0.9,4.5h-2.5
		c0-1.1-0.5-2.3-1-3.5c-0.5-1.3-1.1-2.6-1.1-4c0-3.3,2.8-5.2,6.4-5.2c4.5,0,6.3,2.2,6.3,5.1v7.6h-2.5V162.8z M327.9,163.8
		c0,0.7,0.7,1.1,1.2,1.1c0.7,0,1.4-0.4,1.4-1.4c0-0.7-0.5-1.4-1.3-1.4C328.5,162.1,327.9,162.9,327.9,163.8z"/>
	<path class="st12" d="M337.8,161.2c0-2.8,1.9-4.1,3.7-4.1c1.1,0,1.9,0.4,2.6,0.8c0.5,0.3,1,0.5,1.5,0.5c0.5,0,1-0.4,1.3-0.7l0.7,1
		c-0.8,1.1-1.6,1.4-2.5,1.4c-1,0-1.7-0.3-2.5-0.5c-0.7-0.2-1.3-0.5-2-0.5c-0.6,0-1.1,0.3-1.1,0.8c0,0.1,0,0.3,0.1,0.5
		c3.1,0.3,5.1,0.6,6.2,1.3c1,0.7,1,1.4,1,3v2.5c0,2.1-1.3,3.4-3.3,3.4c-1.6,0-2.8-1-2.8-2.6c0-1.6,1.2-2.7,2.6-2.7
		c0.4,0,0.7,0.1,1,0.2v-1.3c0-1.7-0.9-2.3-6.3-2.6C337.8,161.4,337.8,161.3,337.8,161.2z M343.3,166.3c-0.9,0-1.4,0.7-1.4,1.6
		c0,1,0.7,1.6,1.4,1.6c0.7,0,1.3-0.5,1.3-1.7c0-0.3-0.1-0.6-0.1-0.9C344.1,166.5,343.7,166.3,343.3,166.3z"/>
	<path class="st12" d="M349.8,152.1c-0.7,2.7-2.8,4.2-5.3,4.2c-1.8,0-3.6-0.8-3.6-2.6c0-1.1,0.9-2,2.1-2c1.3,0,2,1,2,1.9
		c0,0.6-0.2,1.2-0.8,1.6v0.1c1.7,0.1,2.8-0.9,3.2-3.2H349.8z M342.9,155c0.8-0.2,1-0.8,1-1.3c0-0.6-0.5-1-0.9-1c-0.7,0-1,0.4-1,1
		C342,154.2,342.2,154.8,342.9,155z"/>
	<path class="st12" d="M340.5,155.3c0.5-0.1,1.2-0.3,1.5-0.8c-1-0.1-1.8-0.8-1.8-1.8c0-1.1,0.9-2,2.1-2c1.2,0,1.9,0.9,1.9,2
		c0,0.8-0.4,1.6-1.1,2.2l0,0.1c1.9-0.4,2.6-2,2.8-4h2.4c-0.3,1.9-1.3,3.4-2.9,4.3c-1.1,0.6-2.6,0.8-4.9,1L340.5,155.3z M342.2,151.6
		c-0.6,0-1,0.4-1,0.9c0,0.6,0.5,1.1,1.1,1.1c0.6,0,0.8-0.5,0.8-1C343.2,152.1,342.8,151.6,342.2,151.6z"/>
	<path class="st12" d="M354.6,162.8c-1.3,0-2.6-0.9-2.6-2.5c0-1.4,1.1-2.7,2.9-2.7c0.9,0,3.3,0.4,3.3,3.7v5.8c0,2.3-0.2,3.1-2.1,3.1
		h-1.7c-1.7-2.5-4.6-5.6-6.5-6.9l0.8-1.2c2.3,1.6,5.1,4.5,6.5,6.6c0.5,0,0.5-0.2,0.5-1.3v-4.9C355.3,162.8,354.9,162.8,354.6,162.8z
		 M356,160.4c0-0.8-0.4-1.6-1.3-1.6c-0.8,0-1.4,0.7-1.4,1.5c0,1,0.8,1.4,1.5,1.4c0.4,0,0.7-0.1,1-0.4
		C355.9,161.1,356,160.8,356,160.4z"/>
	<path class="st12" d="M364.3,170.3c-0.1-1-0.7-2.2-1.4-3.4c-0.7-1.3-1.3-2.7-1.3-4.1c0-3.3,2.7-4.9,4.8-4.9c0.3,0,0.3,0,1.7,1.1
		h0.1c1.3-1,1.4-1.1,1.6-1.1c0.9,0,4.6,0.2,4.6,4.7v7.7h-2.6v-8c0-2.9-1.5-3.1-1.6-3.1c-0.1,0-0.9,0.7-2.1,1.6h-0.1
		c-1.3-1-2-1.6-2.1-1.6c-0.3,0-1.8,1-1.8,3.3c0,1.1,0.4,2.2,0.8,3.2c0.3,0.9,0.7,1.7,0.9,2.5h0.1c0.3-0.8,0.9-1.5,1.7-2.4
		c-1.2-0.3-2-1-2-2.3c0-1.5,1.2-2.4,2.5-2.4c1.4,0,2.6,0.9,2.6,2.6c0,1.3-0.9,2.4-1.7,3.4c-0.8,0.9-1.6,1.9-2.1,3.1H364.3z
		 M369.4,163.4c0-0.7-0.6-1.2-1.3-1.2c-0.9,0-1.4,0.7-1.4,1.3c0,1.1,1,1.5,1.6,1.5C368.5,165,369.4,164.2,369.4,163.4z"/>
	<path class="st12" d="M372.7,156.3l-0.8-5.4h2.6l-0.7,5L372.7,156.3L372.7,156.3z"/>
	<path class="st12" d="M378,159.6c1.5-1.3,3.2-2,5-2c2.6,0,5.1,1.4,5.1,4.4v4.2c0,3.4-2.1,4.3-5.1,4.3c-3,0-4.8-1.3-4.8-3.7v-2.3
		c0-1.9,1.2-3.6,3.3-3.6c1.9,0,2.6,1.4,2.6,2.4c0,1.7-1.1,2.6-2.3,2.6c-0.4,0-0.8-0.1-1.1-0.2v1.2c0,1.7,0.9,2.4,2.4,2.4
		c1.6,0,2.4-0.7,2.4-2.4v-4.7c0-2-1-3.3-2.9-3.3c-1.4,0-2.8,0.6-3.9,1.6L378,159.6z M381.7,165.1c0.8,0,1.3-0.6,1.3-1.5
		c0-0.9-0.4-1.6-1.3-1.6c-0.8,0-1.1,0.8-1.1,1.6c0,0.4,0.1,0.8,0.2,1.1C381.1,165,381.4,165.1,381.7,165.1z"/>
	<path class="st12" d="M403.1,149.1h0.3v17.6c0,3.1-1.5,3.6-4.6,3.6h-5.9l0.2-1.4h1.7v-6.2c-0.4,0.2-0.7,0.2-1.1,0.2
		c-1.3,0-2.5-0.9-2.5-2.5c0-1.8,1.4-2.8,2.9-2.8c1,0,3.3,0.4,3.3,3.8v7.5h0.5c2.2,0,3-0.1,3-2.4V154c0-0.8,0-1.8-0.1-3.9
		L403.1,149.1z M395.2,160.2c0-0.9-0.5-1.5-1.3-1.5c-0.9,0-1.5,0.7-1.5,1.5c0,1.1,0.7,1.5,1.4,1.5c0.4,0,0.8-0.2,1.1-0.5
		C395.1,161,395.2,160.6,395.2,160.2z"/>
	<path class="st12" d="M399.9,150.7c0.7,0,1.3,0.1,1.8,0.4v-2.2l1.5-0.7h0.2v4.2c0.5,0.7,0.8,1.6,0.8,2.5c0,0.6-0.1,1.2-0.4,1.8
		c-2.5-1.6-4.8-2.4-8.2-2.2C395.9,152.1,397.5,150.7,399.9,150.7z M403.2,155.3c-0.1-1.5-1.9-2.8-3.5-2.8c-1.1,0-1.9,0.3-2.5,1
		C399.3,153.7,401.3,154.2,403.2,155.3z"/>
	<path class="st12" d="M422.8,162.8c0-2.5-1.6-3.9-3.8-3.9c-2.4,0-3.8,1.5-3.8,4.2c0,1,0.4,2.1,0.6,3h0.1c0.2-1.8,0.5-3,1.1-3.8
		c0.6-0.8,1.4-1.2,2.2-1.2c1.4,0,2.5,1,2.5,2.4c0,1.6-1.1,2.6-2.5,2.6c-0.4,0-0.7-0.1-1.1-0.2c-0.6,1.4-0.9,3.3-0.9,4.5h-2.6
		c0-1.1-0.5-2.3-1-3.5c-0.5-1.3-1.1-2.6-1.1-4c0-3.3,2.8-5.2,6.4-5.2c4.5,0,6.3,2.2,6.3,5.1v7.6h-2.5V162.8z M418,163.8
		c0,0.7,0.7,1.1,1.2,1.1c0.7,0,1.4-0.4,1.4-1.4c0-0.7-0.5-1.4-1.3-1.4C418.6,162.1,418,162.9,418,163.8z"/>
	<path class="st12" d="M421.8,150.7c2.7,0,4.3,1.9,4.3,4.2c0,0.6-0.1,1.2-0.4,1.8c-2.5-1.6-4.8-2.4-8.2-2.2
		C417.8,152.1,419.4,150.7,421.8,150.7z M425.1,155.3c-0.1-1.5-1.9-2.8-3.5-2.8c-1.1,0-1.9,0.3-2.5,1
		C421.2,153.7,423.2,154.2,425.1,155.3z"/>
	<path class="st12" d="M441.8,170.3h-2.5v-7.6c0-2.5-1.6-3.9-3.9-3.9c-2.6,0-3.9,1.4-3.9,3.8c0,1,0.3,1.8,0.7,2.7
		c0.3,0.9,0.8,1.9,1.1,3h0.1c0.3-0.8,0.9-1.6,1.7-2.5c-1.2-0.3-2-1.1-2-2.3c0-1.5,1.2-2.4,2.5-2.4c1.4,0,2.6,0.9,2.6,2.6
		c0,1.3-0.9,2.4-1.7,3.4c-0.8,0.9-1.6,1.9-2.1,3.1h-2.7c-0.2-1.2-0.8-2.3-1.4-3.4c-0.7-1.2-1.3-2.4-1.3-4.1c0-3.3,2.8-5.2,6.5-5.2
		c4.6,0,6.4,2.2,6.4,5.1V170.3z M436.8,163.4c0-0.7-0.6-1.2-1.3-1.2c-0.9,0-1.4,0.7-1.4,1.3c0,1.1,1,1.5,1.6,1.5
		C435.9,165,436.8,164.2,436.8,163.4z"/>
	<path class="st12" d="M448.5,165.6c0.4-0.2,0.9-0.3,1.3-0.3c1.4,0,2.4,1,2.4,2.5c0,1.6-1.2,2.8-2.9,2.8c-2,0-3.4-1.3-3.4-3.8V163
		c0-1.4,0-2.7-0.1-4.1l2.1-1h0.5V165.6z M448.2,167.7c0,1.2,0.5,1.7,1.4,1.7c0.8,0,1.4-0.7,1.4-1.6c0-1.1-0.7-1.5-1.4-1.5
		c-0.5,0-0.9,0.2-1.1,0.5C448.2,167.1,448.2,167.4,448.2,167.7z"/>
	<path class="st12" d="M466.2,149.1h0.3v17.6c0,3.1-1.5,3.6-4.6,3.6h-5.9l0.2-1.4h1.7v-6.2c-0.4,0.2-0.7,0.2-1.1,0.2
		c-1.3,0-2.5-0.9-2.5-2.5c0-1.8,1.4-2.8,2.9-2.8c1,0,3.3,0.4,3.3,3.8v7.5h0.5c2.2,0,3-0.1,3-2.4V154c0-0.8,0-1.8-0.1-3.9
		L466.2,149.1z M458.2,160.2c0-0.9-0.5-1.5-1.3-1.5c-0.9,0-1.5,0.7-1.5,1.5c0,1.1,0.7,1.5,1.4,1.5c0.4,0,0.8-0.2,1.1-0.5
		C458.2,161,458.2,160.6,458.2,160.2z"/>
	<path class="st12" d="M463.8,154.1c0.3-1,1.1-1.1,1.5-1.1c1.1,0,1.7,0.8,1.7,1.6c0,1-0.7,1.7-1.8,1.7c-1.3,0-1.7-1.1-3-1.8v1.2
		l-0.6,0.5c-1.6-1.1-2.3-2.1-2.3-3.2c0-1.5,0.8-2.8,2.6-2.8c1.6,0,3.1,1.3,3.8,1.3c0.5,0,0.7-0.3,1-1l0.8,0.7
		c-0.2,0.9-0.9,1.4-1.7,1.4c-0.9,0-2.3-0.7-3.6-0.7c-1.1,0-1.6,0.7-1.6,1.5c0,0.5,0.3,1.1,0.9,1.5l0,0v-1.7l0.5-0.4
		C462.7,153.3,463.2,153.5,463.8,154.1z M465.3,155.5c0.5,0,0.8-0.4,0.8-0.9c0-0.4-0.3-0.8-0.8-0.8c-0.6,0-1,0.6-0.8,1.2
		C464.7,155.5,465.1,155.5,465.3,155.5z"/>
	<path class="st12" d="M473.1,162.7c-0.4,0.1-0.8,0.2-1.1,0.2c-1.4,0-2.6-0.8-2.6-2.5c0-1.6,1.2-2.8,2.8-2.8c2,0,3.4,1.2,3.4,4v6.5
		c1.2-1.3,2.5-2.3,3.9-2.9v-2.5c0-0.8,0-1.8-0.1-3.9l2.3-1h0.3v6.5c0.2,0,0.4,0,0.6,0c1.7,0,2.9,1.2,2.9,2.9c0,1.8-1.3,3.3-3.1,3.3
		c-1.8,0-3-1.2-3-3.4c0-0.1,0-0.2,0-0.5c-1.8,1-3.2,2.5-3.9,3.7h-2.5V162.7z M473.5,160.5c0-1.2-0.5-1.7-1.3-1.7
		c-0.9,0-1.3,0.7-1.3,1.6c0,1,0.7,1.5,1.4,1.5c0.4,0,0.8-0.1,1.1-0.4C473.4,161.1,473.5,160.8,473.5,160.5z M482.1,165.9
		c-0.1,0.3-0.1,0.8-0.1,1.3c0,1,0.2,2,1.1,2c0.9,0,1.1-1,1.1-1.7c0-0.9-0.6-1.7-1.5-1.7C482.6,165.8,482.4,165.8,482.1,165.9z"/>
	<path class="st12" d="M558.3,161.5l4.4-4h-7.1v-2.1h10.1v2l-4.3,3.9c2.2,0,4.6,1.5,4.6,4.5c0,2.5-1.9,4.8-5.4,4.8
		c-3.4,0-5.4-2.3-5.5-4.7l2.2-0.5c0.1,2,1.5,3.2,3.3,3.2c2,0,3.2-1.3,3.2-2.8c0-2-1.6-2.8-3-2.8c-0.5,0-0.9,0.1-1.3,0.2L558.3,161.5
		z"/>
	<path class="st12" d="M569.9,165.6c0.1,1.8,1.5,3.1,3.4,3.1c1.8,0,3.2-1.2,3.2-3c0-2-1.5-3.1-3.2-3.1c-1.1,0-2.1,0.4-2.7,1.1
		c-0.8-0.3-1.4-0.6-2.2-0.9l1.9-7.4h7.9v2.1h-6.4l-1.1,4.3c0.7-0.7,1.9-1.1,3-1.1c2.9,0,5.1,1.9,5.1,4.9c0,2.8-2.2,5.1-5.5,5.1
		c-3.2,0-5.3-2.1-5.5-4.4L569.9,165.6z"/>
	<path class="st12" d="M584.3,155.3c2,0,3.7,1.6,3.7,3.6c0,2-1.7,3.6-3.7,3.6s-3.7-1.6-3.7-3.6C580.6,156.8,582.3,155.3,584.3,155.3
		z M582.5,170.3l10.7-14.9h2.1l-10.7,14.9H582.5z M584.3,160.7c1,0,1.8-0.8,1.8-1.8c0-1-0.8-1.8-1.8-1.8c-1,0-1.8,0.8-1.8,1.8
		C582.5,159.9,583.3,160.7,584.3,160.7z M593.4,163.3c2,0,3.7,1.6,3.7,3.6c0,2-1.7,3.6-3.7,3.6s-3.7-1.6-3.7-3.6
		C589.7,164.9,591.4,163.3,593.4,163.3z M593.4,168.7c1,0,1.8-0.8,1.8-1.8c0-1-0.8-1.8-1.8-1.8c-1,0-1.8,0.8-1.8,1.8
		C591.6,167.9,592.4,168.7,593.4,168.7z"/>
</g>
<g>
	<path class="st12" d="M306.3,224.2v-0.7c2-0.2,2.2-0.4,2.2-2.1v-6.4c0-1.2-0.1-1.3-1.1-1.4l-1.2-0.1v-0.6c1.6-0.3,3.1-0.7,4.9-1.2
		v9.8c0,1.7,0.2,2,2.2,2.1v0.7H306.3z"/>
	<path class="st12" d="M332.7,216.7c0-2.5-1.6-3.9-3.8-3.9c-2.4,0-3.8,1.5-3.8,4.2c0,1,0.4,2.1,0.6,3h0.1c0.2-1.8,0.5-3,1.1-3.8
		c0.6-0.8,1.4-1.2,2.2-1.2c1.4,0,2.5,1,2.5,2.4c0,1.6-1.1,2.6-2.5,2.6c-0.4,0-0.7-0.1-1.1-0.2c-0.6,1.4-0.9,3.3-0.9,4.5h-2.5
		c0-1.1-0.5-2.3-1-3.5c-0.5-1.3-1.1-2.6-1.1-4c0-3.3,2.8-5.2,6.4-5.2c4.5,0,6.3,2.2,6.3,5.1v7.6h-2.5V216.7z M327.9,217.7
		c0,0.7,0.7,1.1,1.2,1.1c0.7,0,1.4-0.4,1.4-1.4c0-0.7-0.5-1.3-1.3-1.3C328.5,216,327.9,216.8,327.9,217.7z"/>
	<path class="st12" d="M337.8,215.1c0-2.8,1.9-4.1,3.7-4.1c1.1,0,1.9,0.4,2.6,0.8c0.5,0.3,1,0.5,1.5,0.5c0.5,0,1-0.4,1.3-0.7l0.7,1
		c-0.8,1.1-1.6,1.4-2.5,1.4c-1,0-1.7-0.3-2.5-0.5c-0.7-0.2-1.3-0.5-2-0.5c-0.6,0-1.1,0.3-1.1,0.8c0,0.1,0,0.3,0.1,0.5
		c3.1,0.3,5.1,0.6,6.2,1.3c1,0.7,1,1.4,1,3v2.5c0,2.1-1.3,3.4-3.3,3.4c-1.6,0-2.8-1-2.8-2.6c0-1.6,1.2-2.7,2.6-2.7
		c0.4,0,0.7,0.1,1,0.2v-1.3c0-1.7-0.9-2.3-6.3-2.6C337.8,215.3,337.8,215.2,337.8,215.1z M343.3,220.2c-0.9,0-1.4,0.7-1.4,1.6
		c0,1,0.7,1.6,1.4,1.6c0.7,0,1.3-0.5,1.3-1.7c0-0.3-0.1-0.6-0.1-0.9C344.1,220.4,343.7,220.2,343.3,220.2z"/>
	<path class="st12" d="M349.8,206c-0.7,2.7-2.8,4.2-5.3,4.2c-1.8,0-3.6-0.8-3.6-2.6c0-1.1,0.9-2,2.1-2c1.3,0,2,1,2,1.9
		c0,0.6-0.2,1.2-0.8,1.6v0.1c1.7,0.2,2.8-0.9,3.2-3.2H349.8z M342.9,208.9c0.8-0.2,1-0.8,1-1.3c0-0.6-0.5-1-0.9-1c-0.7,0-1,0.5-1,1
		C342,208.1,342.2,208.7,342.9,208.9z"/>
	<path class="st12" d="M340.5,209.2c0.5-0.1,1.2-0.3,1.5-0.8c-1-0.1-1.8-0.8-1.8-1.8c0-1.1,0.9-2,2.1-2c1.2,0,1.9,0.9,1.9,2
		c0,0.8-0.4,1.6-1.1,2.2l0,0.1c1.9-0.4,2.6-2,2.8-4h2.4c-0.3,1.9-1.3,3.4-2.9,4.3c-1.1,0.6-2.6,0.8-4.9,1L340.5,209.2z M342.2,205.5
		c-0.6,0-1,0.4-1,0.9c0,0.6,0.5,1.1,1.1,1.1c0.6,0,0.8-0.5,0.8-1C343.2,206,342.8,205.5,342.2,205.5z"/>
	<path class="st12" d="M354.6,216.7c-1.3,0-2.6-0.9-2.6-2.5c0-1.4,1.1-2.7,2.9-2.7c0.9,0,3.3,0.4,3.3,3.7v5.8c0,2.3-0.2,3.1-2.1,3.1
		h-1.7c-1.7-2.5-4.6-5.6-6.5-6.9l0.8-1.2c2.3,1.6,5.1,4.5,6.5,6.6c0.5,0,0.5-0.2,0.5-1.3v-4.9C355.3,216.7,354.9,216.7,354.6,216.7z
		 M356,214.3c0-0.8-0.4-1.7-1.3-1.7c-0.8,0-1.4,0.7-1.4,1.5c0,1,0.8,1.4,1.5,1.4c0.4,0,0.7-0.1,1-0.4C355.9,215,356,214.7,356,214.3
		z"/>
	<path class="st12" d="M364.3,224.2c-0.1-1-0.7-2.2-1.4-3.4c-0.7-1.3-1.3-2.7-1.3-4.1c0-3.3,2.7-4.9,4.8-4.9c0.3,0,0.3,0,1.7,1.1
		h0.1c1.3-1,1.4-1.1,1.6-1.1c0.9,0,4.6,0.2,4.6,4.7v7.7h-2.6v-8c0-2.8-1.5-3.1-1.6-3.1c-0.1,0-0.9,0.7-2.1,1.6h-0.1
		c-1.3-1-2-1.6-2.1-1.6c-0.3,0-1.8,1-1.8,3.3c0,1.1,0.4,2.2,0.8,3.2c0.3,0.9,0.7,1.7,0.9,2.5h0.1c0.3-0.8,0.9-1.5,1.7-2.4
		c-1.2-0.3-2-1-2-2.3c0-1.5,1.2-2.4,2.5-2.4c1.4,0,2.6,0.9,2.6,2.5c0,1.3-0.9,2.4-1.7,3.5c-0.8,0.9-1.6,1.9-2.1,3.1H364.3z
		 M369.4,217.3c0-0.7-0.6-1.2-1.3-1.2c-0.9,0-1.4,0.7-1.4,1.3c0,1.1,1,1.5,1.6,1.5C368.5,218.9,369.4,218.1,369.4,217.3z"/>
	<path class="st12" d="M372.7,210.2l-0.8-5.4h2.6l-0.7,5L372.7,210.2L372.7,210.2z"/>
	<path class="st12" d="M378,213.5c1.5-1.3,3.2-2,5-2c2.6,0,5.1,1.3,5.1,4.4v4.2c0,3.4-2.1,4.3-5.1,4.3c-3,0-4.8-1.3-4.8-3.7v-2.3
		c0-2,1.2-3.6,3.3-3.6c1.9,0,2.6,1.4,2.6,2.4c0,1.7-1.1,2.6-2.3,2.6c-0.4,0-0.8-0.1-1.1-0.2v1.2c0,1.7,0.9,2.4,2.4,2.4
		c1.6,0,2.4-0.7,2.4-2.4v-4.7c0-2-1-3.3-2.9-3.3c-1.4,0-2.8,0.6-3.9,1.6L378,213.5z M381.7,219c0.8,0,1.3-0.6,1.3-1.5
		c0-0.9-0.4-1.6-1.3-1.6c-0.8,0-1.1,0.8-1.1,1.6c0,0.4,0.1,0.8,0.2,1.1C381.1,218.9,381.4,219,381.7,219z"/>
	<path class="st12" d="M394.9,219.5c0.4-0.2,0.9-0.3,1.3-0.3c1.4,0,2.4,1,2.4,2.5c0,1.6-1.2,2.8-2.9,2.8c-2,0-3.4-1.3-3.4-3.8v-3.8
		c0-1.4,0-2.7-0.1-4.1l2.1-1h0.5V219.5z M394.6,221.6c0,1.2,0.5,1.7,1.4,1.7c0.8,0,1.4-0.7,1.4-1.6c0-1.1-0.7-1.5-1.4-1.5
		c-0.5,0-0.9,0.2-1.1,0.5C394.7,221,394.6,221.3,394.6,221.6z"/>
	<path class="st12" d="M414,224.2h-2.5v-7.6c0-2.5-1.6-3.9-3.9-3.9c-2.6,0-3.9,1.4-3.9,3.8c0,1,0.3,1.8,0.7,2.7
		c0.3,0.9,0.8,1.9,1.1,3h0.1c0.3-0.8,0.9-1.7,1.7-2.5c-1.2-0.3-2-1.1-2-2.3c0-1.5,1.2-2.4,2.5-2.4c1.4,0,2.6,0.9,2.6,2.5
		c0,1.3-0.9,2.4-1.7,3.5c-0.8,0.9-1.6,1.9-2.1,3.1h-2.7c-0.2-1.2-0.8-2.3-1.4-3.4c-0.7-1.2-1.3-2.4-1.3-4.1c0-3.3,2.8-5.2,6.5-5.2
		c4.6,0,6.4,2.2,6.4,5.1V224.2z M409,217.3c0-0.7-0.6-1.2-1.3-1.2c-0.9,0-1.4,0.7-1.4,1.3c0,1.1,1,1.5,1.6,1.5
		C408.1,218.9,409,218.1,409,217.3z"/>
	<path class="st12" d="M409.5,204.7v-2l1.3-0.6h0.2v2.6c0.5,0.1,1,0.2,1.4,0.4v-2.4l1.3-0.6h0.2v4.2c0.5,0.7,0.8,1.6,0.8,2.5
		c0,0.6-0.1,1.2-0.4,1.8c-2.5-1.6-4.8-2.4-8.2-2.2C406.4,206.4,407.7,205,409.5,204.7z M413.7,209.2c-0.1-1.5-1.9-2.8-3.5-2.8
		c-1.1,0-1.9,0.3-2.5,1C409.9,207.6,411.8,208.1,413.7,209.2z"/>
	<path class="st12" d="M417.5,213.5c1.5-1.3,3.2-2,5-2c2.6,0,5.1,1.3,5.1,4.4v4.2c0,3.4-2.1,4.3-5.1,4.3c-3,0-4.8-1.3-4.8-3.7v-2.3
		c0-2,1.2-3.6,3.3-3.6c1.9,0,2.6,1.4,2.6,2.4c0,1.7-1.1,2.6-2.3,2.6c-0.4,0-0.8-0.1-1.1-0.2v1.2c0,1.7,0.9,2.4,2.4,2.4
		c1.6,0,2.4-0.7,2.4-2.4v-4.7c0-2-1-3.3-2.9-3.3c-1.4,0-2.8,0.6-3.9,1.6L417.5,213.5z M421.2,219c0.8,0,1.3-0.6,1.3-1.5
		c0-0.9-0.4-1.6-1.3-1.6c-0.8,0-1.1,0.8-1.1,1.6c0,0.4,0.1,0.8,0.2,1.1C420.6,218.9,420.9,219,421.2,219z"/>
	<path class="st12" d="M434.4,216.6c-0.4,0.1-0.8,0.2-1.1,0.2c-1.4,0-2.6-0.8-2.6-2.5c0-1.6,1.2-2.8,2.8-2.8c2,0,3.4,1.2,3.4,4v6.5
		c1.2-1.3,2.5-2.3,3.9-2.9v-2.5c0-0.8,0-1.8-0.1-3.9l2.3-1h0.3v6.5c0.2,0,0.4,0,0.6,0c1.7,0,2.9,1.2,2.9,2.9c0,1.8-1.3,3.3-3.1,3.3
		c-1.8,0-3-1.2-3-3.4c0-0.1,0-0.2,0-0.5c-1.8,1-3.2,2.5-3.9,3.7h-2.5V216.6z M434.7,214.4c0-1.2-0.5-1.7-1.3-1.7
		c-0.9,0-1.4,0.8-1.4,1.6c0,1,0.7,1.5,1.4,1.5c0.4,0,0.8-0.1,1.1-0.4C434.7,215,434.7,214.7,434.7,214.4z M443.4,219.8
		c-0.1,0.3-0.1,0.8-0.1,1.3c0,1,0.2,2,1.1,2c0.9,0,1.1-1,1.1-1.7c0-0.9-0.6-1.7-1.5-1.7C443.9,219.7,443.7,219.7,443.4,219.8z"/>
	<path class="st12" d="M465.1,216.7c0-2.5-1.6-3.9-3.8-3.9c-2.4,0-3.8,1.5-3.8,4.2c0,1,0.4,2.1,0.6,3h0.1c0.2-1.8,0.5-3,1.1-3.8
		c0.6-0.8,1.4-1.2,2.2-1.2c1.4,0,2.5,1,2.5,2.4c0,1.6-1.1,2.6-2.5,2.6c-0.4,0-0.7-0.1-1.1-0.2c-0.6,1.4-0.9,3.3-0.9,4.5h-2.5
		c0-1.1-0.5-2.3-1-3.5c-0.5-1.3-1.1-2.6-1.1-4c0-3.3,2.8-5.2,6.4-5.2c4.5,0,6.3,2.2,6.3,5.1v7.6h-2.5V216.7z M460.3,217.7
		c0,0.7,0.7,1.1,1.2,1.1c0.7,0,1.4-0.4,1.4-1.4c0-0.7-0.5-1.3-1.3-1.3C460.9,216,460.3,216.8,460.3,217.7z"/>
	<path class="st12" d="M464.1,204.6c2.7,0,4.3,1.9,4.3,4.2c0,0.6-0.1,1.2-0.4,1.8c-2.5-1.6-4.8-2.4-8.2-2.2
		C460.1,206,461.7,204.6,464.1,204.6z M467.4,209.2c-0.1-1.5-1.9-2.8-3.5-2.8c-1.1,0-1.9,0.3-2.5,1
		C463.5,207.6,465.5,208.1,467.4,209.2z"/>
	<path class="st12" d="M484.1,224.2h-2.5v-7.6c0-2.5-1.6-3.9-3.9-3.9c-2.6,0-3.9,1.4-3.9,3.8c0,1,0.3,1.8,0.7,2.7
		c0.3,0.9,0.8,1.9,1.1,3h0.1c0.3-0.8,0.9-1.7,1.7-2.5c-1.2-0.3-2-1.1-2-2.3c0-1.5,1.2-2.4,2.5-2.4c1.4,0,2.6,0.9,2.6,2.5
		c0,1.3-0.9,2.4-1.7,3.5c-0.8,0.9-1.6,1.9-2.1,3.1h-2.7c-0.2-1.2-0.8-2.3-1.4-3.4c-0.7-1.2-1.3-2.4-1.3-4.1c0-3.3,2.8-5.2,6.5-5.2
		c4.6,0,6.4,2.2,6.4,5.1V224.2z M479.1,217.3c0-0.7-0.6-1.2-1.3-1.2c-0.9,0-1.4,0.7-1.4,1.3c0,1.1,1,1.5,1.6,1.5
		C478.2,218.9,479.1,218.1,479.1,217.3z"/>
	<path class="st12" d="M490.8,219.5c0.4-0.2,0.9-0.3,1.3-0.3c1.4,0,2.4,1,2.4,2.5c0,1.6-1.2,2.8-2.9,2.8c-2,0-3.4-1.3-3.4-3.8v-3.8
		c0-1.4,0-2.7-0.1-4.1l2.1-1h0.5V219.5z M490.5,221.6c0,1.2,0.5,1.7,1.4,1.7c0.8,0,1.4-0.7,1.4-1.6c0-1.1-0.7-1.5-1.4-1.5
		c-0.5,0-0.9,0.2-1.1,0.5C490.5,221,490.5,221.3,490.5,221.6z"/>
	<path class="st12" d="M508.5,203h0.3v17.6c0,3.1-1.5,3.6-4.6,3.6h-5.9l0.2-1.4h1.7v-6.2c-0.4,0.2-0.7,0.2-1.1,0.2
		c-1.3,0-2.5-0.9-2.5-2.5c0-1.8,1.4-2.8,2.9-2.8c1,0,3.3,0.4,3.3,3.8v7.5h0.5c2.2,0,3-0.2,3-2.4v-12.6c0-0.8,0-1.8-0.1-3.9
		L508.5,203z M500.5,214.1c0-0.9-0.5-1.5-1.3-1.5c-0.9,0-1.5,0.7-1.5,1.5c0,1,0.7,1.5,1.4,1.5c0.4,0,0.8-0.2,1.1-0.5
		C500.5,214.9,500.5,214.5,500.5,214.1z"/>
	<path class="st12" d="M506.1,208c0.3-1,1.1-1.1,1.5-1.1c1.1,0,1.7,0.8,1.7,1.6c0,1-0.7,1.7-1.8,1.7c-1.3,0-1.7-1.1-3-1.8v1.2
		l-0.6,0.5c-1.6-1.1-2.3-2.1-2.3-3.2c0-1.5,0.8-2.8,2.6-2.8c1.6,0,3.1,1.3,3.8,1.3c0.5,0,0.7-0.3,1-1l0.8,0.7
		c-0.2,0.9-0.9,1.4-1.7,1.4c-0.9,0-2.3-0.7-3.6-0.7c-1.1,0-1.6,0.7-1.6,1.5c0,0.5,0.3,1.1,0.9,1.5l0,0v-1.7l0.5-0.4
		C505,207.2,505.5,207.4,506.1,208z M507.6,209.4c0.5,0,0.8-0.4,0.8-0.9c0-0.4-0.3-0.8-0.8-0.8c-0.6,0-1,0.6-0.8,1.2
		C507,209.4,507.4,209.4,507.6,209.4z"/>
	<path class="st12" d="M515.4,216.6c-0.4,0.1-0.8,0.2-1.1,0.2c-1.4,0-2.6-0.8-2.6-2.5c0-1.6,1.2-2.8,2.8-2.8c2,0,3.4,1.2,3.4,4v6.5
		c1.2-1.3,2.5-2.3,3.9-2.9v-2.5c0-0.8,0-1.8-0.1-3.9l2.3-1h0.3v6.5c0.2,0,0.4,0,0.6,0c1.7,0,2.9,1.2,2.9,2.9c0,1.8-1.3,3.3-3.1,3.3
		c-1.8,0-3-1.2-3-3.4c0-0.1,0-0.2,0-0.5c-1.8,1-3.2,2.5-3.9,3.7h-2.5V216.6z M515.8,214.4c0-1.2-0.5-1.7-1.3-1.7
		c-0.9,0-1.4,0.8-1.4,1.6c0,1,0.7,1.5,1.4,1.5c0.4,0,0.8-0.1,1.1-0.4C515.7,215,515.8,214.7,515.8,214.4z M524.4,219.8
		c-0.1,0.3-0.1,0.8-0.1,1.3c0,1,0.2,2,1.1,2c0.9,0,1.1-1,1.1-1.7c0-0.9-0.6-1.7-1.5-1.7C524.9,219.7,524.7,219.7,524.4,219.8z"/>
	<path class="st12" d="M561.1,215.4l4.4-4h-7.1v-2.1h10.1v2l-4.3,3.9c2.2,0,4.6,1.5,4.6,4.5c0,2.5-1.9,4.8-5.4,4.8
		c-3.4,0-5.4-2.3-5.5-4.7l2.2-0.5c0.1,2,1.5,3.2,3.3,3.2c2,0,3.2-1.3,3.2-2.8c0-2-1.6-2.8-3-2.8c-0.5,0-0.9,0.1-1.3,0.2L561.1,215.4
		z"/>
	<path class="st12" d="M581.2,211.6c-0.6-0.3-1.5-0.6-2.7-0.6c-3.1,0-5.1,2.3-5.2,5.3c0.6-1,2-1.9,3.9-1.9c2.9,0,5.1,1.8,5.1,5.1
		c0,3.2-2.6,5.1-5.5,5.1c-2.9,0-5.8-2-5.8-6.9c0-5.5,3.3-8.7,7.7-8.7c1.4,0,2.5,0.3,3.2,0.8L581.2,211.6z M576.8,222.6
		c1.7,0,3.2-1.1,3.2-3.1c0-2-1.5-3.2-3.2-3.2s-3.2,1.2-3.2,3.2C573.6,221.4,575.2,222.6,576.8,222.6z"/>
	<path class="st12" d="M586.1,221.1c0.9,0,1.6,0.7,1.6,1.6c0,0.9-0.7,1.6-1.6,1.6s-1.6-0.7-1.6-1.6
		C584.5,221.9,585.2,221.1,586.1,221.1z"/>
	<path class="st12" d="M592.3,219.5c0.1,1.8,1.5,3.1,3.4,3.1c1.8,0,3.2-1.2,3.2-3c0-2-1.5-3.1-3.2-3.1c-1.1,0-2.1,0.4-2.7,1.1
		c-0.8-0.3-1.4-0.6-2.2-0.9l1.9-7.4h7.9v2.1h-6.4l-1.1,4.3c0.7-0.7,1.9-1.1,3-1.1c2.9,0,5.1,1.9,5.1,4.9c0,2.8-2.2,5.1-5.5,5.1
		c-3.2,0-5.3-2.1-5.5-4.4L592.3,219.5z"/>
	<path class="st12" d="M606.6,209.2c2,0,3.7,1.6,3.7,3.6c0,2-1.7,3.6-3.7,3.6s-3.7-1.6-3.7-3.6C603,210.7,604.7,209.2,606.6,209.2z
		 M604.8,224.2l10.7-14.9h2.1l-10.7,14.9H604.8z M606.6,214.6c1,0,1.8-0.8,1.8-1.8c0-1-0.8-1.8-1.8-1.8c-1,0-1.8,0.8-1.8,1.8
		C604.9,213.8,605.7,214.6,606.6,214.6z M615.7,217.2c2,0,3.7,1.6,3.7,3.6c0,2-1.7,3.6-3.7,3.6s-3.7-1.6-3.7-3.6
		C612.1,218.8,613.8,217.2,615.7,217.2z M615.7,222.6c1,0,1.8-0.8,1.8-1.8c0-1-0.8-1.8-1.8-1.8c-1,0-1.8,0.8-1.8,1.8
		C614,221.8,614.8,222.6,615.7,222.6z"/>
</g>
<g>
	<path class="st12" d="M306.3,276.1v-0.7c2-0.2,2.2-0.4,2.2-2.1v-6.4c0-1.2-0.1-1.3-1.1-1.4l-1.2-0.1v-0.6c1.6-0.3,3.1-0.7,4.9-1.2
		v9.8c0,1.6,0.2,2,2.2,2.1v0.7H306.3z"/>
	<path class="st12" d="M332.7,268.6c0-2.5-1.6-3.9-3.8-3.9c-2.4,0-3.8,1.5-3.8,4.2c0,1,0.4,2.1,0.6,3h0.1c0.2-1.8,0.5-3,1.1-3.8
		c0.6-0.8,1.4-1.2,2.2-1.2c1.4,0,2.5,1,2.5,2.4c0,1.6-1.1,2.6-2.5,2.6c-0.4,0-0.7-0.1-1.1-0.2c-0.6,1.4-0.9,3.3-0.9,4.5h-2.5
		c0-1.1-0.5-2.3-1-3.5c-0.5-1.3-1.1-2.6-1.1-4c0-3.3,2.8-5.2,6.4-5.2c4.5,0,6.3,2.2,6.3,5.1v7.6h-2.5V268.6z M327.9,269.6
		c0,0.7,0.7,1.1,1.2,1.1c0.7,0,1.4-0.4,1.4-1.4c0-0.7-0.5-1.4-1.3-1.4C328.5,267.9,327.9,268.7,327.9,269.6z"/>
	<path class="st12" d="M337.8,267c0-2.8,1.9-4.1,3.7-4.1c1.1,0,1.9,0.4,2.6,0.8c0.5,0.3,1,0.5,1.5,0.5c0.5,0,1-0.4,1.3-0.7l0.7,1
		c-0.8,1.1-1.6,1.4-2.5,1.4c-1,0-1.7-0.3-2.5-0.5c-0.7-0.2-1.3-0.5-2-0.5c-0.6,0-1.1,0.3-1.1,0.8c0,0.1,0,0.3,0.1,0.5
		c3.1,0.3,5.1,0.6,6.2,1.3c1,0.7,1,1.4,1,3v2.5c0,2.1-1.3,3.4-3.3,3.4c-1.6,0-2.8-1-2.8-2.6c0-1.6,1.2-2.7,2.6-2.7
		c0.4,0,0.7,0.1,1,0.2V270c0-1.7-0.9-2.3-6.3-2.6C337.8,267.2,337.8,267.1,337.8,267z M343.3,272.1c-0.9,0-1.4,0.7-1.4,1.6
		c0,1,0.7,1.6,1.4,1.6c0.7,0,1.3-0.5,1.3-1.7c0-0.3-0.1-0.6-0.1-0.9C344.1,272.3,343.7,272.1,343.3,272.1z"/>
	<path class="st12" d="M349.8,257.9c-0.7,2.7-2.8,4.2-5.3,4.2c-1.8,0-3.6-0.8-3.6-2.6c0-1.1,0.9-2,2.1-2c1.3,0,2,1,2,1.9
		c0,0.6-0.2,1.2-0.8,1.6v0.1c1.7,0.1,2.8-0.9,3.2-3.2H349.8z M342.9,260.8c0.8-0.2,1-0.8,1-1.3c0-0.6-0.5-1-0.9-1c-0.7,0-1,0.4-1,1
		C342,260,342.2,260.6,342.9,260.8z"/>
	<path class="st12" d="M340.5,261.1c0.5-0.1,1.2-0.3,1.5-0.8c-1-0.1-1.8-0.8-1.8-1.8c0-1.1,0.9-2,2.1-2c1.2,0,1.9,0.9,1.9,2
		c0,0.8-0.4,1.6-1.1,2.2l0,0.1c1.9-0.4,2.6-2,2.8-4h2.4c-0.3,1.9-1.3,3.4-2.9,4.3c-1.1,0.6-2.6,0.8-4.9,1L340.5,261.1z M342.2,257.4
		c-0.6,0-1,0.4-1,0.9c0,0.6,0.5,1.1,1.1,1.1c0.6,0,0.8-0.5,0.8-1C343.2,257.9,342.8,257.4,342.2,257.4z"/>
	<path class="st12" d="M354.6,268.6c-1.3,0-2.6-0.9-2.6-2.5c0-1.4,1.1-2.7,2.9-2.7c0.9,0,3.3,0.4,3.3,3.7v5.8c0,2.3-0.2,3.1-2.1,3.1
		h-1.7c-1.7-2.5-4.6-5.6-6.5-6.9l0.8-1.2c2.3,1.6,5.1,4.5,6.5,6.6c0.5,0,0.5-0.2,0.5-1.3v-4.9C355.3,268.6,354.9,268.6,354.6,268.6z
		 M356,266.2c0-0.8-0.4-1.6-1.3-1.6c-0.8,0-1.4,0.7-1.4,1.5c0,1,0.8,1.4,1.5,1.4c0.4,0,0.7-0.1,1-0.4
		C355.9,266.9,356,266.6,356,266.2z"/>
	<path class="st12" d="M364.3,276.1c-0.1-1-0.7-2.2-1.4-3.4c-0.7-1.3-1.3-2.7-1.3-4.1c0-3.3,2.7-4.9,4.8-4.9c0.3,0,0.3,0,1.7,1.1
		h0.1c1.3-1,1.4-1.1,1.6-1.1c0.9,0,4.6,0.2,4.6,4.7v7.7h-2.6v-8c0-2.9-1.5-3.1-1.6-3.1c-0.1,0-0.9,0.7-2.1,1.6h-0.1
		c-1.3-1-2-1.6-2.1-1.6c-0.3,0-1.8,1-1.8,3.3c0,1.1,0.4,2.2,0.8,3.2c0.3,0.9,0.7,1.7,0.9,2.5h0.1c0.3-0.8,0.9-1.5,1.7-2.4
		c-1.2-0.3-2-1-2-2.3c0-1.5,1.2-2.4,2.5-2.4c1.4,0,2.6,0.9,2.6,2.6c0,1.3-0.9,2.4-1.7,3.4c-0.8,0.9-1.6,1.9-2.1,3.1H364.3z
		 M369.4,269.2c0-0.7-0.6-1.2-1.3-1.2c-0.9,0-1.4,0.7-1.4,1.3c0,1.1,1,1.5,1.6,1.5C368.5,270.8,369.4,270,369.4,269.2z"/>
	<path class="st12" d="M372.7,262.1l-0.8-5.4h2.6l-0.7,5L372.7,262.1L372.7,262.1z"/>
	<path class="st12" d="M378,265.4c1.5-1.3,3.2-2,5-2c2.6,0,5.1,1.4,5.1,4.4v4.2c0,3.4-2.1,4.3-5.1,4.3c-3,0-4.8-1.3-4.8-3.7v-2.3
		c0-1.9,1.2-3.6,3.3-3.6c1.9,0,2.6,1.4,2.6,2.4c0,1.7-1.1,2.6-2.3,2.6c-0.4,0-0.8-0.1-1.1-0.2v1.2c0,1.7,0.9,2.4,2.4,2.4
		c1.6,0,2.4-0.7,2.4-2.4v-4.7c0-2-1-3.3-2.9-3.3c-1.4,0-2.8,0.6-3.9,1.6L378,265.4z M381.7,270.9c0.8,0,1.3-0.6,1.3-1.5
		c0-0.9-0.4-1.6-1.3-1.6c-0.8,0-1.1,0.8-1.1,1.6c0,0.4,0.1,0.8,0.2,1.1C381.1,270.8,381.4,270.9,381.7,270.9z"/>
	<path class="st12" d="M402.7,262.1c-0.1,1.1-0.7,2.1-1.6,2.8c0.7,0.7,1.1,1.7,1.1,2.9v8.3h-2.5V270c-0.8-0.9-2-1.4-3-1.4
		c-1,0-2,0.5-2,2.1c0,0.2,0,0.4,0.1,0.8c0.4-0.2,0.8-0.3,1.2-0.3c1.4,0,2.2,1,2.2,2.5c0,1.6-1.1,2.7-2.8,2.7c-2,0-3.2-1.3-3.2-3.9
		v-0.9c0-3.9,3.2-4.2,4.3-4.2c1,0,2.2,0.4,3.1,1v-0.2c0-0.8-0.1-1.4-0.4-2c-0.5,0.3-1,0.5-1.4,0.7l-0.8-0.4v-0.1
		c0.5-0.3,1-0.7,1.5-1.1c-0.4-0.4-1-0.5-1.7-0.5c-1.4,0-2.7,0.6-3.8,1.6l-0.8-1.1c1.5-1.3,3-1.9,4.9-1.9c0.9,0,1.8,0.1,2.6,0.5
		c0.3-0.6,0.5-1.2,0.6-1.8H402.7z M394.5,273.6c0,1,0.4,1.6,1.3,1.6c0.8,0,1.3-0.7,1.3-1.5c0-1.1-0.7-1.5-1.3-1.5
		c-0.5,0-0.9,0.2-1.1,0.5C394.6,273,394.5,273.3,394.5,273.6z"/>
	<path class="st12" d="M405.9,257.9c-0.7,2.7-2.8,4.2-5.3,4.2c-1.8,0-3.6-0.8-3.6-2.6c0-1.1,0.9-2,2.1-2c1.3,0,2,1,2,1.9
		c0,0.6-0.2,1.2-0.8,1.6v0.1c1.7,0.1,2.8-0.9,3.2-3.2H405.9z M399,260.8c0.8-0.2,1-0.8,1-1.3c0-0.6-0.5-1-0.9-1c-0.7,0-1,0.4-1,1
		C398,260,398.2,260.6,399,260.8z"/>
	<path class="st12" d="M417.3,254.9h0.3v17.6c0,3.1-1.5,3.6-4.6,3.6H407l0.2-1.4h1.7v-6.2c-0.4,0.2-0.7,0.2-1.1,0.2
		c-1.3,0-2.5-0.9-2.5-2.5c0-1.8,1.4-2.8,2.9-2.8c1,0,3.3,0.4,3.3,3.8v7.5h0.5c2.2,0,3-0.1,3-2.4v-12.6c0-0.8,0-1.8-0.1-3.9
		L417.3,254.9z M409.3,266c0-0.9-0.5-1.5-1.3-1.5c-0.9,0-1.5,0.7-1.5,1.5c0,1.1,0.7,1.5,1.4,1.5c0.4,0,0.8-0.2,1.1-0.5
		C409.3,266.8,409.3,266.4,409.3,266z"/>
	<path class="st12" d="M434,276.1h-2.5v-7.6c0-2.5-1.6-3.9-3.9-3.9c-2.6,0-3.9,1.4-3.9,3.8c0,1,0.3,1.8,0.7,2.7
		c0.3,0.9,0.8,1.9,1.1,3h0.1c0.3-0.8,0.9-1.6,1.7-2.5c-1.2-0.3-2-1.1-2-2.3c0-1.5,1.2-2.4,2.5-2.4c1.4,0,2.6,0.9,2.6,2.6
		c0,1.3-0.9,2.4-1.7,3.4c-0.8,0.9-1.6,1.9-2.1,3.1h-2.7c-0.2-1.2-0.8-2.3-1.4-3.4c-0.7-1.2-1.3-2.4-1.3-4.1c0-3.3,2.8-5.2,6.5-5.2
		c4.6,0,6.4,2.2,6.4,5.1V276.1z M429,269.2c0-0.7-0.6-1.2-1.3-1.2c-0.9,0-1.4,0.7-1.4,1.3c0,1.1,1,1.5,1.6,1.5
		C428.1,270.8,429,270,429,269.2z"/>
	<path class="st12" d="M441.9,276.1v-8c0-2.2-1.1-3-2.5-3c-0.9,0-1.7,0.4-2.6,1.1L436,265c1.1-1,2.5-1.6,3.9-1.6
		c2.4,0,4.6,1.5,4.6,4.4v8.3H441.9z"/>
	<path class="st12" d="M451.1,268.4c-0.3,0.1-0.7,0.2-1,0.2c-1.3,0-2.6-0.9-2.6-2.5c0-1.4,1.1-2.7,2.9-2.7c0.9,0,3.3,0.4,3.3,3.7
		v3.5c0,0.7,0,1.5-0.1,2.2l0.1,0c1.6-2.7,2.8-4.1,4.2-5.1c-0.8-0.4-1.2-1.2-1.2-2c0-1.4,1.3-2.5,2.7-2.5c1.3,0,2.6,1,2.6,2.4
		c0,0.8-0.4,1.6-0.9,2.1c0.1,0.1,0.3,0.4,0.3,0.8v7.7h-2.5v-7.5c-1.7,1-3.7,3.9-5.2,7.5h-2.4V268.4z M451.5,266.2
		c0-0.8-0.4-1.6-1.3-1.6c-0.8,0-1.4,0.7-1.4,1.5c0,1,0.8,1.4,1.5,1.4c0.4,0,0.7-0.1,1-0.4C451.5,266.9,451.5,266.6,451.5,266.2z
		 M460.5,265.5c0-0.7-0.5-1.2-1.3-1.2c-0.9,0-1.3,0.6-1.3,1.3c0,0.8,0.7,1.5,1.5,1.6C460.1,266.9,460.5,266.2,460.5,265.5z"/>
	<path class="st12" d="M461.9,258.2c-0.7-0.4-1.1-0.5-1.7-0.5c-1.2,0-2,1-2,1.9c0,0.7,0.3,1.4,1.3,1.6c-0.2-0.3-0.3-0.6-0.3-0.9
		c0-0.8,0.6-1.4,1.4-1.4c0.8,0,1.4,0.6,1.4,1.4c0,1.3-1.2,1.8-2.3,1.8c-1.7,0-3.3-1.1-3.3-2.8c0-1.6,1.5-2.6,3.1-2.6
		c0.5,0,1.1,0.1,1.6,0.4l0.5-3.3h2.4L461.9,258.2z M461.2,260.3c0-0.3-0.2-0.7-0.6-0.7c-0.4,0-0.7,0.3-0.7,0.7
		c0,0.3,0.1,0.6,0.4,0.8C460.9,261.1,461.2,260.7,461.2,260.3z"/>
	<path class="st12" d="M480.6,268.6c0-2.5-1.6-3.9-3.8-3.9c-2.4,0-3.8,1.5-3.8,4.2c0,1,0.4,2.1,0.6,3h0.1c0.2-1.8,0.5-3,1.1-3.8
		c0.6-0.8,1.4-1.2,2.2-1.2c1.4,0,2.5,1,2.5,2.4c0,1.6-1.1,2.6-2.5,2.6c-0.4,0-0.7-0.1-1.1-0.2c-0.6,1.4-0.9,3.3-0.9,4.5h-2.6
		c0-1.1-0.5-2.3-1-3.5c-0.5-1.3-1.1-2.6-1.1-4c0-3.3,2.8-5.2,6.4-5.2c4.5,0,6.3,2.2,6.3,5.1v7.6h-2.5V268.6z M475.8,269.6
		c0,0.7,0.7,1.1,1.2,1.1c0.7,0,1.4-0.4,1.4-1.4c0-0.7-0.5-1.4-1.3-1.4C476.4,267.9,475.8,268.7,475.8,269.6z"/>
	<path class="st12" d="M479.6,256.5c2.7,0,4.3,1.9,4.3,4.2c0,0.6-0.1,1.2-0.4,1.8c-2.5-1.6-4.8-2.4-8.2-2.2
		C475.5,257.9,477.2,256.5,479.6,256.5z M482.9,261.1c-0.1-1.5-1.9-2.8-3.5-2.8c-1.1,0-1.9,0.3-2.5,1
		C479,259.5,480.9,260,482.9,261.1z"/>
	<path class="st12" d="M499.5,276.1H497v-7.6c0-2.5-1.6-3.9-3.9-3.9c-2.6,0-3.9,1.4-3.9,3.8c0,1,0.3,1.8,0.7,2.7
		c0.3,0.9,0.8,1.9,1.1,3h0.1c0.3-0.8,0.9-1.6,1.7-2.5c-1.2-0.3-2-1.1-2-2.3c0-1.5,1.2-2.4,2.5-2.4c1.4,0,2.6,0.9,2.6,2.6
		c0,1.3-0.9,2.4-1.7,3.4c-0.8,0.9-1.6,1.9-2.1,3.1h-2.7c-0.2-1.2-0.8-2.3-1.4-3.4c-0.7-1.2-1.3-2.4-1.3-4.1c0-3.3,2.8-5.2,6.5-5.2
		c4.6,0,6.4,2.2,6.4,5.1V276.1z M494.6,269.2c0-0.7-0.6-1.2-1.3-1.2c-0.9,0-1.4,0.7-1.4,1.3c0,1.1,1,1.5,1.6,1.5
		C493.6,270.8,494.6,270,494.6,269.2z"/>
	<path class="st12" d="M506.2,271.4c0.4-0.2,0.9-0.3,1.3-0.3c1.4,0,2.4,1,2.4,2.5c0,1.6-1.2,2.8-2.9,2.8c-2,0-3.4-1.3-3.4-3.8v-3.8
		c0-1.4,0-2.7-0.1-4.1l2.1-1h0.5V271.4z M506,273.5c0,1.2,0.5,1.7,1.4,1.7c0.8,0,1.4-0.7,1.4-1.6c0-1.1-0.7-1.5-1.4-1.5
		c-0.5,0-0.9,0.2-1.1,0.5C506,272.9,506,273.2,506,273.5z"/>
	<path class="st12" d="M523.9,254.9h0.3v17.6c0,3.1-1.5,3.6-4.6,3.6h-5.9l0.2-1.4h1.7v-6.2c-0.4,0.2-0.7,0.2-1.1,0.2
		c-1.3,0-2.5-0.9-2.5-2.5c0-1.8,1.4-2.8,2.9-2.8c1,0,3.3,0.4,3.3,3.8v7.5h0.5c2.2,0,3-0.1,3-2.4v-12.6c0-0.8,0-1.8-0.1-3.9
		L523.9,254.9z M516,266c0-0.9-0.5-1.5-1.3-1.5c-0.9,0-1.5,0.7-1.5,1.5c0,1.1,0.7,1.5,1.4,1.5c0.4,0,0.8-0.2,1.1-0.5
		C516,266.8,516,266.4,516,266z"/>
	<path class="st12" d="M521.6,259.9c0.3-1,1.1-1.1,1.5-1.1c1.1,0,1.7,0.8,1.7,1.6c0,1-0.7,1.7-1.8,1.7c-1.3,0-1.7-1.1-3-1.8v1.2
		l-0.6,0.5c-1.6-1.1-2.3-2.1-2.3-3.2c0-1.5,0.8-2.8,2.6-2.8c1.6,0,3.1,1.3,3.8,1.3c0.5,0,0.7-0.3,1-1l0.8,0.7
		c-0.2,0.9-0.9,1.4-1.7,1.4c-0.9,0-2.3-0.7-3.6-0.7c-1.1,0-1.6,0.7-1.6,1.5c0,0.5,0.3,1.1,0.9,1.5l0,0V259l0.5-0.4
		C520.5,259.1,520.9,259.3,521.6,259.9z M523.1,261.3c0.5,0,0.8-0.4,0.8-0.9c0-0.4-0.3-0.8-0.8-0.8c-0.6,0-1,0.6-0.8,1.2
		C522.5,261.3,522.9,261.3,523.1,261.3z"/>
	<path class="st12" d="M530.9,268.5c-0.4,0.1-0.8,0.2-1.1,0.2c-1.4,0-2.6-0.8-2.6-2.5c0-1.6,1.2-2.8,2.8-2.8c2,0,3.4,1.2,3.4,4v6.5
		c1.2-1.3,2.5-2.3,3.9-2.9v-2.5c0-0.8,0-1.8-0.1-3.9l2.3-1h0.3v6.5c0.2,0,0.4,0,0.6,0c1.7,0,2.9,1.2,2.9,2.9c0,1.8-1.3,3.3-3.1,3.3
		c-1.8,0-3-1.2-3-3.4c0-0.1,0-0.2,0-0.5c-1.8,1-3.2,2.5-3.9,3.7h-2.5V268.5z M531.3,266.3c0-1.2-0.5-1.7-1.3-1.7
		c-0.9,0-1.4,0.7-1.4,1.6c0,1,0.7,1.5,1.4,1.5c0.4,0,0.8-0.1,1.1-0.4C531.2,266.9,531.3,266.6,531.3,266.3z M539.9,271.7
		c-0.1,0.3-0.1,0.8-0.1,1.3c0,1,0.2,2,1.1,2c0.9,0,1.1-1,1.1-1.7c0-0.9-0.6-1.7-1.5-1.7C540.4,271.6,540.2,271.6,539.9,271.7z"/>
	<path class="st12" d="M559.8,276.1v-10.5h-3.6V264c2.1,0,3.5-1.2,3.8-2.8h2v14.9H559.8z"/>
	<path class="st12" d="M567.9,276.1v-10.5h-3.6V264c2.1,0,3.5-1.2,3.8-2.8h2v14.9H567.9z"/>
	<path class="st12" d="M574.8,273c0.9,0,1.6,0.7,1.6,1.6s-0.7,1.6-1.6,1.6s-1.6-0.7-1.6-1.6S573.9,273,574.8,273z"/>
	<path class="st12" d="M581,271.4c0.1,1.8,1.5,3.1,3.4,3.1c1.8,0,3.2-1.2,3.2-3c0-2-1.5-3.1-3.2-3.1c-1.1,0-2.1,0.4-2.7,1.1
		c-0.8-0.3-1.4-0.6-2.2-0.9l1.9-7.4h7.9v2.1h-6.4l-1.1,4.3c0.7-0.7,1.9-1.1,3-1.1c2.9,0,5.1,1.9,5.1,4.9c0,2.8-2.2,5.1-5.5,5.1
		c-3.2,0-5.3-2.1-5.5-4.4L581,271.4z"/>
	<path class="st12" d="M595.4,261.1c2,0,3.7,1.6,3.7,3.6c0,2-1.7,3.6-3.7,3.6s-3.7-1.6-3.7-3.6C591.7,262.7,593.4,261.1,595.4,261.1
		z M593.5,276.1l10.7-14.9h2.1l-10.7,14.9H593.5z M595.4,266.5c1,0,1.8-0.8,1.8-1.8c0-1-0.8-1.8-1.8-1.8c-1,0-1.8,0.8-1.8,1.8
		C593.6,265.7,594.4,266.5,595.4,266.5z M604.5,269.1c2,0,3.7,1.6,3.7,3.6c0,2-1.7,3.6-3.7,3.6s-3.7-1.6-3.7-3.6
		C600.8,270.7,602.5,269.1,604.5,269.1z M604.5,274.5c1,0,1.8-0.8,1.8-1.8c0-1-0.8-1.8-1.8-1.8c-1,0-1.8,0.8-1.8,1.8
		C602.7,273.7,603.5,274.5,604.5,274.5z"/>
</g>
<g>
	<path class="st12" d="M310.6,324.5c-0.4,0.1-0.7,0.2-1.1,0.2c-1.4,0-2.5-1-2.5-2.6c0-1.7,1.2-2.7,2.9-2.7c0.9,0,3.2,0.4,3.2,3.7v2
		c0,0.5-0.1,1.6-0.1,2.2l0.1,0c1.2-2.9,1.9-4.7,2.2-5.5c0.7-1.5,1.4-2.4,2.7-2.4c1.5,0,2.6,1.3,2.6,3.2v9.5h-2.6v-9.3
		c0-1.1-0.3-1.5-0.6-1.5c-0.4,0-0.7,0.4-1.2,1.5c-0.7,1.6-1.6,4.2-3.4,9.3h-2.3V324.5z M311.1,322.1c0-0.9-0.6-1.5-1.3-1.5
		c-0.9,0-1.4,0.7-1.4,1.5c0,1,0.7,1.5,1.4,1.5c0.4,0,0.9-0.2,1.2-0.5C311,322.8,311.1,322.5,311.1,322.1z"/>
	<path class="st12" d="M318.9,339.3v-2.2c-0.2,0.1-0.4,0.1-0.7,0.1c-0.9,0-1.8-0.7-1.8-1.9c0-1,0.8-2,2.1-2c0.7,0,2,0.4,2,2.2v3.8
		H318.9z M319.3,335.4c0-0.5-0.2-1-0.9-1c-0.6,0-1,0.4-1,1c0,0.6,0.5,0.9,0.9,0.9c0.3,0,0.6-0.2,0.9-0.4
		C319.3,335.7,319.3,335.6,319.3,335.4z"/>
	<path class="st12" d="M332.2,332.4c0.1-2,0.1-3.4,0.1-4.2v-3.8c0-3-1.6-3.6-2.9-3.6s-2.2,0.7-2.5,1.9l2.8,0.5l-0.5,1.2
		c-1.2,0.2-1.5,0.9-1.5,2.3v5.5h-2.5V327c0-1.4,0.3-2.2,1.8-2.8l0-0.1l-2.7-0.4c0.2-1.8,1.5-4.1,5.3-4.1c1.9,0,5.2,0.7,5.2,4.6v7.4
		l-2,0.9H332.2z"/>
	<path class="st12" d="M336.9,321.4c1.5-1.3,2.9-1.9,4.8-1.9c2.6,0,5.2,1.4,5.2,4.4v5.1c0,2.1-1.3,3.4-3.3,3.4c-1.6,0-2.8-1-2.8-2.6
		c0-1.6,1.2-2.7,2.6-2.7c0.4,0,0.7,0.1,1,0.2v-3.1c0-2-1.1-3.3-2.9-3.3c-1.4,0-2.6,0.6-3.7,1.6L336.9,321.4z M343.5,328.2
		c-0.9,0-1.4,0.7-1.4,1.6c0,1,0.7,1.6,1.4,1.6c0.7,0,1.3-0.5,1.3-1.7c0-0.3-0.1-0.6-0.2-0.9C344.3,328.3,343.8,328.2,343.5,328.2z"
		/>
	<path class="st12" d="M350.2,314c-0.7,2.7-2.8,4.2-5.3,4.2c-1.8,0-3.6-0.8-3.6-2.6c0-1.1,0.9-2,2.1-2c1.3,0,2,1,2,1.9
		c0,0.6-0.2,1.2-0.8,1.6v0.1c1.7,0.1,2.8-0.9,3.2-3.2H350.2z M343.3,316.9c0.8-0.2,1-0.8,1-1.3c0-0.6-0.5-1-0.9-1c-0.7,0-1,0.4-1,1
		C342.3,316,342.5,316.6,343.3,316.9z"/>
	<path class="st12" d="M353.3,324.5c-0.4,0.1-0.8,0.2-1.1,0.2c-1.4,0-2.6-0.8-2.6-2.5c0-1.6,1.2-2.8,2.8-2.8c2,0,3.4,1.2,3.4,4v6.5
		c1.2-1.3,2.5-2.3,3.9-2.9v-2.5c0-0.8,0-1.8-0.1-3.9l2.3-1h0.3v6.5c0.2,0,0.4,0,0.6,0c1.7,0,2.9,1.2,2.9,2.9c0,1.8-1.3,3.3-3.1,3.3
		c-1.8,0-3-1.2-3-3.4c0-0.1,0-0.2,0-0.5c-1.8,1-3.2,2.5-3.9,3.7h-2.5V324.5z M353.6,322.3c0-1.2-0.5-1.7-1.3-1.7
		c-0.9,0-1.3,0.7-1.3,1.6c0,1,0.7,1.5,1.4,1.5c0.4,0,0.8-0.1,1.1-0.4C353.6,323,353.6,322.6,353.6,322.3z M362.3,327.7
		c-0.1,0.3-0.1,0.8-0.1,1.3c0,1,0.2,2,1.1,2c0.9,0,1.1-1,1.1-1.7c0-0.9-0.6-1.7-1.5-1.7C362.8,327.6,362.6,327.6,362.3,327.7z"/>
	<path class="st12" d="M384,324.6c0-2.5-1.6-3.9-3.8-3.9c-2.4,0-3.8,1.5-3.8,4.2c0,1,0.4,2.1,0.6,3h0.1c0.2-1.8,0.5-3,1.1-3.8
		c0.6-0.8,1.4-1.2,2.2-1.2c1.4,0,2.5,1,2.5,2.4c0,1.6-1.1,2.6-2.5,2.6c-0.4,0-0.7-0.1-1.1-0.2c-0.6,1.4-0.9,3.3-0.9,4.5H376
		c0-1.1-0.5-2.3-1-3.5c-0.5-1.3-1.1-2.6-1.1-4c0-3.3,2.8-5.2,6.4-5.2c4.5,0,6.3,2.2,6.3,5.1v7.6H384V324.6z M379.2,325.7
		c0,0.7,0.7,1.1,1.2,1.1c0.7,0,1.4-0.4,1.4-1.4c0-0.7-0.5-1.4-1.3-1.4C379.8,324,379.2,324.7,379.2,325.7z"/>
	<path class="st12" d="M383,312.6c2.7,0,4.3,1.9,4.3,4.2c0,0.6-0.1,1.2-0.4,1.8c-2.5-1.6-4.8-2.4-8.2-2.2
		C379,314,380.6,312.6,383,312.6z M386.3,317.1c-0.1-1.5-1.9-2.8-3.5-2.8c-1.1,0-1.9,0.3-2.5,1C382.4,315.6,384.4,316,386.3,317.1z"
		/>
	<path class="st12" d="M403,332.2h-2.5v-7.6c0-2.5-1.6-3.9-3.9-3.9c-2.6,0-3.9,1.4-3.9,3.8c0,1,0.3,1.8,0.7,2.7
		c0.3,0.9,0.8,1.9,1.1,3h0.1c0.3-0.8,0.9-1.6,1.7-2.5c-1.2-0.3-2-1.1-2-2.3c0-1.5,1.2-2.4,2.5-2.4c1.4,0,2.6,0.9,2.6,2.6
		c0,1.3-0.9,2.4-1.7,3.4c-0.8,0.9-1.6,1.9-2.1,3.1h-2.7c-0.2-1.2-0.8-2.3-1.4-3.4c-0.7-1.2-1.3-2.4-1.3-4.1c0-3.3,2.8-5.2,6.5-5.2
		c4.6,0,6.4,2.2,6.4,5.1V332.2z M398,325.3c0-0.7-0.6-1.2-1.3-1.2c-0.9,0-1.4,0.7-1.4,1.3c0,1.1,1,1.5,1.6,1.5
		C397.1,326.8,398,326.1,398,325.3z"/>
	<path class="st12" d="M409.7,327.4c0.4-0.2,0.9-0.3,1.3-0.3c1.4,0,2.4,1,2.4,2.5c0,1.6-1.2,2.8-2.9,2.8c-2,0-3.4-1.3-3.4-3.8v-3.8
		c0-1.4,0-2.7-0.1-4.1l2.1-1h0.5V327.4z M409.4,329.6c0,1.2,0.5,1.7,1.4,1.7c0.8,0,1.4-0.7,1.4-1.6c0-1.1-0.7-1.5-1.4-1.5
		c-0.5,0-0.9,0.2-1.1,0.5C409.4,328.9,409.4,329.2,409.4,329.6z"/>
	<path class="st12" d="M427.4,311h0.3v17.6c0,3.1-1.5,3.6-4.6,3.6h-5.9l0.2-1.4h1.7v-6.2c-0.4,0.2-0.7,0.2-1.1,0.2
		c-1.3,0-2.5-0.9-2.5-2.5c0-1.8,1.4-2.8,2.9-2.8c1,0,3.3,0.4,3.3,3.8v7.5h0.5c2.2,0,3-0.1,3-2.4v-12.6c0-0.8,0-1.8-0.1-3.9
		L427.4,311z M419.4,322.1c0-0.9-0.5-1.5-1.3-1.5c-0.9,0-1.5,0.7-1.5,1.5c0,1.1,0.7,1.5,1.4,1.5c0.4,0,0.8-0.2,1.1-0.5
		C419.4,322.8,419.4,322.5,419.4,322.1z"/>
	<path class="st12" d="M425,315.9c0.3-1,1.1-1.1,1.5-1.1c1.1,0,1.7,0.8,1.7,1.6c0,1-0.7,1.7-1.8,1.7c-1.3,0-1.7-1.1-3-1.8v1.2
		l-0.6,0.5c-1.6-1.1-2.3-2.1-2.3-3.2c0-1.5,0.8-2.8,2.6-2.8c1.6,0,3.1,1.3,3.8,1.3c0.5,0,0.7-0.3,1-1l0.8,0.7
		c-0.2,0.9-0.9,1.4-1.7,1.4c-0.9,0-2.3-0.7-3.6-0.7c-1.1,0-1.6,0.7-1.6,1.5c0,0.5,0.3,1.1,0.9,1.5l0,0V315l0.5-0.4
		C423.9,315.1,424.4,315.4,425,315.9z M426.5,317.4c0.5,0,0.8-0.4,0.8-0.9c0-0.4-0.3-0.8-0.8-0.8c-0.6,0-1,0.6-0.8,1.2
		C425.9,317.3,426.3,317.4,426.5,317.4z"/>
	<path class="st12" d="M434.3,324.5c-0.4,0.1-0.8,0.2-1.1,0.2c-1.4,0-2.6-0.8-2.6-2.5c0-1.6,1.2-2.8,2.8-2.8c2,0,3.4,1.2,3.4,4v6.5
		c1.2-1.3,2.5-2.3,3.9-2.9v-2.5c0-0.8,0-1.8-0.1-3.9l2.3-1h0.3v6.5c0.2,0,0.4,0,0.6,0c1.7,0,2.9,1.2,2.9,2.9c0,1.8-1.3,3.3-3.1,3.3
		c-1.8,0-3-1.2-3-3.4c0-0.1,0-0.2,0-0.5c-1.8,1-3.2,2.5-3.9,3.7h-2.5V324.5z M434.7,322.3c0-1.2-0.5-1.7-1.3-1.7
		c-0.9,0-1.3,0.7-1.3,1.6c0,1,0.7,1.5,1.4,1.5c0.4,0,0.8-0.1,1.1-0.4C434.6,323,434.7,322.6,434.7,322.3z M443.3,327.7
		c-0.1,0.3-0.1,0.8-0.1,1.3c0,1,0.2,2,1.1,2c0.9,0,1.1-1,1.1-1.7c0-0.9-0.6-1.7-1.5-1.7C443.8,327.6,443.6,327.6,443.3,327.7z"/>
	<path class="st12" d="M542.2,332.2v-10.5h-3.6v-1.6c2.1,0,3.5-1.2,3.8-2.8h2v14.9H542.2z"/>
	<path class="st12" d="M557.2,319.4c-1.4,1.1-5.6,4.9-6.3,12.7h-2.3c0.7-8.7,6.1-12.8,6.1-12.8h-8.4v-2.1h10.9V319.4z"/>
	<path class="st12" d="M562.3,317.1c2,0,3.7,1.6,3.7,3.6c0,2-1.7,3.6-3.7,3.6s-3.7-1.6-3.7-3.6C558.6,318.7,560.3,317.1,562.3,317.1
		z M560.5,332.2l10.7-14.9h2.1l-10.7,14.9H560.5z M562.3,322.5c1,0,1.8-0.8,1.8-1.8c0-1-0.8-1.8-1.8-1.8c-1,0-1.8,0.8-1.8,1.8
		C560.5,321.8,561.3,322.5,562.3,322.5z M571.4,325.1c2,0,3.7,1.6,3.7,3.6c0,2-1.7,3.6-3.7,3.6s-3.7-1.6-3.7-3.6
		C567.7,326.7,569.4,325.1,571.4,325.1z M571.4,330.5c1,0,1.8-0.8,1.8-1.8c0-1-0.8-1.8-1.8-1.8c-1,0-1.8,0.8-1.8,1.8
		C569.6,329.8,570.4,330.5,571.4,330.5z"/>
</g>
</svg>