<!-- Generator: Adobe Illustrator 19.0.0, SVG Export Plug-In  -->
<svg version="1.1"
	 xmlns="http://www.w3.org/2000/svg" xmlns:xlink="http://www.w3.org/1999/xlink" xmlns:a="http://ns.adobe.com/AdobeSVGViewerExtensions/3.0/"
	 x="0px" y="0px" width="203.9px" height="145.6px" viewBox="0 0 203.9 145.6" style="enable-background:new 0 0 203.9 145.6;"
	 xml:space="preserve">
<style type="text/css">
	.st0{fill:#FFFFFF;stroke:#ED6A4A;stroke-width:1.3374;stroke-miterlimit:10;}
	.st1{fill:#086A87;stroke:#086A87;stroke-width:0.6687;stroke-linecap:round;stroke-linejoin:round;stroke-miterlimit:10;}
	.st2{fill:#33CCCC;stroke:#33CCCC;stroke-width:0.6687;stroke-miterlimit:10;}
	.st3{fill:#086A87;}
</style>
<defs>
</defs>
<g>
	<path class="st0" d="M100.2,38.3L100.2,38.3c-2.4,0-4.4-2-4.4-4.4V5.1c0-2.4,2-4.4,4.4-4.4h0c2.4,0,4.4,2,4.4,4.4v28.9
		C104.6,36.3,102.6,38.3,100.2,38.3z"/>
	<path class="st0" d="M78.5,21.3h44.3v31.5c0,2.9-2.3,5.2-5.2,5.2H95.8c0,0-8.2-1.9-9.4-9.6h-7.9V21.3z"/>
	<rect x="67.2" y="19.7" class="st1" width="13.4" height="38.4"/>
	<path class="st0" d="M102.2,23.7v-1c0-1.8,1.4-3.2,3.2-3.2h17.5c1.8,0,3.2,1.4,3.2,3.2v1c0,1.8-1.4,3.2-3.2,3.2h-17.5
		C103.7,26.9,102.2,25.5,102.2,23.7z"/>
	<path class="st0" d="M102.2,31.1v-1c0-1.8,1.4-3.2,3.2-3.2h17.5c1.8,0,3.2,1.4,3.2,3.2v1c0,1.8-1.4,3.2-3.2,3.2h-17.5
		C103.7,34.3,102.2,32.9,102.2,31.1z"/>
	<path class="st0" d="M102.2,38.6v-1c0-1.8,1.4-3.2,3.2-3.2h17.5c1.8,0,3.2,1.4,3.2,3.2v1c0,1.8-1.4,3.2-3.2,3.2h-17.5
		C103.7,41.8,102.2,40.3,102.2,38.6z"/>
	<path class="st0" d="M102.2,46v-1c0-1.8,1.4-3.2,3.2-3.2h17.5c1.8,0,3.2,1.4,3.2,3.2v1c0,1.8-1.4,3.2-3.2,3.2h-17.5
		C103.7,49.2,102.2,47.8,102.2,46z"/>
	<rect x="67.2" y="49.2" class="st2" width="13.5" height="8.8"/>
</g>
<g>
	<path class="st3" d="M26.5,76.6c-0.1,0.9-0.6,1.7-1.2,2.2c0.6,0.6,0.9,1.3,0.9,2.4v6.6h-2v-4.9c-0.6-0.7-1.6-1.1-2.4-1.1
		c-0.8,0-1.6,0.4-1.6,1.7c0,0.2,0,0.4,0,0.6c0.3-0.2,0.6-0.3,1-0.3c1.1,0,1.8,0.8,1.8,2c0,1.3-0.9,2.2-2.2,2.2
		c-1.6,0-2.6-1.1-2.6-3.1v-0.7c0-3.1,2.6-3.4,3.4-3.4c0.8,0,1.8,0.3,2.5,0.8v-0.2c0-0.6-0.1-1.1-0.4-1.6c-0.4,0.2-0.8,0.4-1.2,0.6
		L22,80.1v0c0.4-0.2,0.8-0.5,1.2-0.9c-0.4-0.3-0.8-0.4-1.4-0.4c-1.2,0-2.2,0.5-3,1.3l-0.7-0.8c1.2-1.1,2.4-1.6,3.9-1.6
		c0.7,0,1.4,0.1,2.1,0.4c0.3-0.5,0.4-0.9,0.5-1.5H26.5z M20,85.8c0,0.8,0.3,1.3,1,1.3c0.6,0,1-0.6,1-1.2c0-0.9-0.6-1.2-1.1-1.2
		c-0.4,0-0.7,0.1-0.9,0.4C20,85.3,20,85.6,20,85.8z"/>
	<path class="st3" d="M23.3,72.1c2.1,0,3.4,1.5,3.4,3.3c0,0.5-0.1,1-0.3,1.5c-2-1.3-3.9-1.9-6.6-1.8C20.1,73.3,21.5,72.1,23.3,72.1z
		 M26,75.8c-0.1-1.2-1.5-2.2-2.8-2.2c-0.9,0-1.6,0.3-2,0.8C22.9,74.5,24.4,74.9,26,75.8z"/>
	<path class="st3" d="M24.8,76.5l-0.6-4.3h2.1l-0.6,4L24.8,76.5L24.8,76.5z"/>
	<path class="st3" d="M32.8,81.8c-1.1,0-2.1-0.7-2.1-2c0-1.2,0.9-2.2,2.3-2.2c0.7,0,2.6,0.3,2.6,3v4.7c0,1.9-0.1,2.5-1.7,2.5h-1.4
		c-1.4-2-3.7-4.5-5.2-5.5l0.7-1c1.8,1.2,4.1,3.6,5.2,5.3c0.4,0,0.4-0.2,0.4-1v-3.9C33.4,81.8,33.1,81.8,32.8,81.8z M34,79.9
		c0-0.7-0.3-1.3-1.1-1.3c-0.7,0-1.1,0.5-1.1,1.2c0,0.8,0.6,1.2,1.2,1.2c0.3,0,0.6-0.1,0.8-0.3C33.9,80.4,34,80.1,34,79.9z"/>
	<path class="st3" d="M40.9,81.7c-0.3,0.1-0.6,0.2-0.9,0.2c-1.2,0-2-0.8-2-2c0-1.3,1-2.2,2.4-2.2c0.7,0,2.6,0.3,2.6,3v1.6
		c0,0.4,0,1.3-0.1,1.8l0.1,0c1-2.4,1.5-3.8,1.8-4.4c0.6-1.2,1.1-1.9,2.2-1.9c1.2,0,2.1,1,2.1,2.5v7.6h-2v-7.4c0-0.9-0.2-1.2-0.5-1.2
		c-0.4,0-0.6,0.3-1,1.2c-0.6,1.2-1.3,3.3-2.7,7.4h-1.8V81.7z M41.3,79.7c0-0.7-0.5-1.2-1.1-1.2c-0.7,0-1.2,0.5-1.2,1.2
		c0,0.8,0.5,1.2,1.1,1.2c0.3,0,0.7-0.1,1-0.4C41.2,80.3,41.3,80,41.3,79.7z"/>
	<path class="st3" d="M46.2,72.1c0.6,0,1,0.1,1.5,0.3v-1.8l1.2-0.5H49v3.4c0.4,0.6,0.6,1.2,0.6,2c0,0.5-0.1,1-0.3,1.5
		c-2-1.3-3.9-1.9-6.6-1.8C43,73.3,44.3,72.1,46.2,72.1z M48.8,75.8c-0.1-1.2-1.5-2.2-2.8-2.2c-0.9,0-1.6,0.3-2,0.8
		C45.7,74.5,47.3,74.9,48.8,75.8z"/>
	<path class="st3" d="M47.7,76.5l-0.6-4.3h2.1l-0.6,4L47.7,76.5L47.7,76.5z"/>
	<path class="st3" d="M54.3,81.7c-0.3,0.1-0.6,0.2-0.9,0.2c-1.2,0-2-0.8-2-2c0-1.3,1-2.2,2.4-2.2c0.7,0,2.6,0.3,2.6,3v1.6
		c0,0.4,0,1.3-0.1,1.8l0.1,0c1-2.4,1.5-3.8,1.8-4.4c0.6-1.2,1.1-1.9,2.2-1.9c1.2,0,2.1,1,2.1,2.5v7.6h-2v-7.4c0-0.9-0.2-1.2-0.5-1.2
		c-0.4,0-0.6,0.3-1,1.2c-0.6,1.2-1.3,3.3-2.7,7.4h-1.8V81.7z M54.6,79.7c0-0.7-0.5-1.2-1.1-1.2c-0.7,0-1.2,0.5-1.2,1.2
		c0,0.8,0.5,1.2,1.1,1.2c0.3,0,0.7-0.1,1-0.4C54.6,80.3,54.6,80,54.6,79.7z"/>
	<path class="st3" d="M61.3,73c1.1,0,1.8,0.8,1.8,1.8c0,1-0.8,1.8-1.8,1.8c-1,0-1.8-0.8-1.8-1.8C59.5,73.8,60.3,73,61.3,73z
		 M61.3,75.9c0.6,0,1-0.4,1-1c0-0.6-0.4-1-1-1c-0.6,0-1,0.4-1,1C60.3,75.4,60.7,75.9,61.3,75.9z M68.7,87.8v-6.4
		c0-1.7-0.9-2.4-2-2.4c-0.7,0-1.4,0.3-2.1,0.9L64,78.9c0.9-0.8,2-1.3,3.1-1.3c1.9,0,3.6,1.2,3.6,3.5v6.6H68.7z"/>
	<path class="st3" d="M72.8,71.7c-0.6,0-1.2,0.3-1.5,1c0.2-0.1,0.5-0.1,0.7-0.1c0.9,0,1.6,0.6,1.6,1.7c0,1-0.8,1.7-1.8,1.7
		c-1.2,0-2-0.9-2-2.2c0-1.9,1.5-3,3.3-3c1.6,0,3.1,1,3.1,2.8V84c0.3-0.2,0.7-0.3,1.1-0.3c1.2,0,1.9,0.8,1.9,2c0,1.3-0.9,2.3-2.3,2.3
		c-1.6,0-2.7-1.1-2.7-3V73.7C74.3,72.5,73.8,71.7,72.8,71.7z M70.9,74.2c0,0.6,0.3,1.1,0.9,1.1c0.5,0,0.9-0.4,0.9-0.9
		c0-0.6-0.5-1-1-1c-0.3,0-0.5,0.1-0.7,0.3C70.9,73.9,70.9,74,70.9,74.2z M76.1,85.7c0,0.9,0.4,1.3,1.1,1.3c0.6,0,1.1-0.6,1.1-1.3
		c0-0.9-0.6-1.2-1.2-1.2c-0.4,0-0.7,0.1-0.9,0.4C76.1,85.2,76.1,85.5,76.1,85.7z"/>
	<path class="st3" d="M83.7,81.7c-0.2,0.1-0.5,0.1-0.8,0.1c-1.1,0-2.1-0.7-2.1-2c0-1.2,0.9-2.2,2.3-2.2c0.7,0,2.6,0.3,2.6,3v2.8
		c0,0.6,0,1.2-0.1,1.7l0,0c1.2-2.2,2.2-3.3,3.4-4.1c-0.6-0.3-1-1-1-1.6c0-1.2,1.1-2,2.2-2c1.1,0,2,0.8,2,1.9c0,0.6-0.3,1.2-0.7,1.7
		c0.1,0.1,0.2,0.3,0.2,0.6v6.2h-2v-6c-1.3,0.8-2.9,3.1-4.1,6h-1.9V81.7z M84.1,79.9c0-0.7-0.3-1.3-1.1-1.3c-0.7,0-1.1,0.5-1.1,1.2
		c0,0.8,0.6,1.2,1.2,1.2c0.3,0,0.6-0.1,0.8-0.3C84,80.4,84.1,80.1,84.1,79.9z M91.3,79.3c0-0.5-0.4-1-1-1c-0.7,0-1,0.5-1,1
		c0,0.6,0.6,1.2,1.2,1.3C90.9,80.4,91.3,79.9,91.3,79.3z"/>
	<path class="st3" d="M87.2,75.8c0.4-0.1,0.9-0.3,1.2-0.7C87.6,75,87,74.5,87,73.7c0-0.9,0.7-1.6,1.7-1.6c1,0,1.5,0.7,1.5,1.6
		c0,0.6-0.3,1.2-0.9,1.8l0,0c1.5-0.3,2.1-1.6,2.2-3.2h1.9c-0.3,1.5-1,2.7-2.4,3.4c-0.9,0.5-2.1,0.7-3.9,0.8L87.2,75.8z M88.5,72.9
		c-0.5,0-0.8,0.3-0.8,0.7c0,0.5,0.4,0.9,0.9,0.9c0.5,0,0.6-0.4,0.6-0.8C89.3,73.2,89,72.9,88.5,72.9z"/>
	<path class="st3" d="M102.8,81.8c0-2-1.3-3.1-3-3.1c-1.9,0-3,1.2-3,3.3c0,0.8,0.3,1.7,0.5,2.4h0.1c0.2-1.4,0.4-2.4,0.9-3.1
		s1.2-0.9,1.8-0.9c1.1,0,2,0.8,2,1.9c0,1.2-0.9,2.1-2,2.1c-0.3,0-0.6,0-0.9-0.2c-0.5,1.2-0.7,2.6-0.7,3.6h-2c0-0.9-0.4-1.8-0.8-2.8
		c-0.4-1-0.9-2.1-0.9-3.2c0-2.6,2.2-4.2,5.2-4.2c3.6,0,5,1.7,5,4.1v6.1h-2V81.8z M98.9,82.6c0,0.6,0.6,0.9,1,0.9
		c0.5,0,1.2-0.3,1.2-1.2c0-0.6-0.4-1.1-1-1.1C99.4,81.2,98.9,81.8,98.9,82.6z"/>
	<path class="st3" d="M103.4,93.5v-1.8c-0.2,0.1-0.3,0.1-0.5,0.1c-0.7,0-1.4-0.6-1.4-1.5c0-0.8,0.7-1.6,1.7-1.6
		c0.5,0,1.6,0.3,1.6,1.8v3H103.4z M103.7,90.4c0-0.4-0.2-0.8-0.7-0.8c-0.5,0-0.8,0.3-0.8,0.8c0,0.5,0.4,0.7,0.7,0.7
		c0.2,0,0.5-0.1,0.7-0.3C103.7,90.7,103.7,90.5,103.7,90.4z"/>
	<path class="st3" d="M114,87.8v-6.2c0-2.4-1.3-2.9-2.3-2.9c-1,0-1.8,0.5-2,1.5l2.3,0.4l-0.4,0.9c-1.2,0.2-1.5,0.7-1.5,1.9v0.7
		c0.3-0.2,0.6-0.3,1-0.3c1.1,0,1.7,0.8,1.7,2c0,1.3-0.9,2.2-2.2,2.2c-1.6,0-2.5-1.1-2.5-3.1v-1.3c0-1.2,0.4-1.8,1.6-2.4v0l-2.1-0.3
		c0.2-1.4,1.2-3.2,4.2-3.2c1.5,0,4.2,0.5,4.2,3.7v4.7c0.6-0.8,1.7-1.6,2.6-2.2v-2.1c0-0.7,0-1.4,0-3.1l1.8-0.8h0.2v5.2
		c0.1,0,0.3,0,0.5,0c1.4,0,2.4,1,2.4,2.3c0,1.5-1,2.6-2.5,2.6c-1.4,0-2.4-0.9-2.4-2.7v-0.2c-1.1,0.8-2.2,2-2.6,2.7H114z M109.9,85.8
		c0,0.8,0.3,1.3,1,1.3c0.6,0,1-0.6,1-1.2c0-0.9-0.5-1.2-1-1.2c-0.4,0-0.7,0.1-0.9,0.4C109.9,85.3,109.9,85.6,109.9,85.8z
		 M120.6,84.2c0,0.2-0.1,0.7-0.1,1.1c0,0.8,0.2,1.6,0.9,1.6c0.7,0,0.9-0.8,0.9-1.4c0-0.7-0.5-1.4-1.2-1.4
		C121,84.2,120.8,84.2,120.6,84.2z"/>
	<path class="st3" d="M127.7,86.8h1.3v-6.3c0-1.2-0.4-1.9-1.4-1.9c-0.6,0-1.2,0.3-1.5,1c0.2-0.1,0.5-0.1,0.7-0.1
		c0.9,0,1.6,0.7,1.6,1.8c0,1-0.8,1.8-1.8,1.8c-1.3,0-2-1-2-2.3c0-1.9,1.5-3,3.4-3c1.5,0,2.8,0.8,3,2.3c1.5-0.3,1.9-1.5,2-2.8h2
		c-0.2,1.6-1.1,2.5-2.5,3.1v0c2.1,0.3,2.3,1.5,2.3,2.7v2.6c0,2.1-1.5,2.3-3.1,2.3h-4.2L127.7,86.8z M125.7,81c0,0.6,0.4,1.2,1,1.2
		c0.5,0,0.9-0.5,0.9-1c0-0.6-0.5-1-1-1c-0.3,0-0.6,0.1-0.8,0.3C125.7,80.7,125.7,80.8,125.7,81z M131,86.8h0.3
		c1.3,0,1.6-0.3,1.6-1.5v-2.4c0-1.1-0.2-1.6-1.8-1.9V86.8z"/>
	<path class="st3" d="M131.3,72.2v-1.6l1-0.5h0.2v2.1c0.4,0,0.8,0.2,1.1,0.3v-1.9l1-0.5h0.2v3.4c0.4,0.6,0.6,1.2,0.6,2
		c0,0.5-0.1,1-0.3,1.5c-2-1.3-3.9-1.9-6.6-1.8C128.8,73.5,129.8,72.4,131.3,72.2z M134.7,75.8c-0.1-1.2-1.5-2.2-2.8-2.2
		c-0.9,0-1.6,0.3-2,0.8C131.6,74.5,133.1,74.9,134.7,75.8z"/>
	<path class="st3" d="M133.5,76.5l-0.6-4.3h2.1l-0.6,4L133.5,76.5L133.5,76.5z"/>
	<path class="st3" d="M140.2,81.7c-0.3,0.1-0.6,0.1-0.9,0.1c-1.1,0-2.1-0.7-2.1-2c0-1.3,0.9-2.2,2.3-2.2c1.6,0,2.7,1,2.7,3.2v5.2
		c0.9-1,2-1.8,3.1-2.4v-2c0-0.7,0-1.4,0-3.1l1.8-0.8h0.2v5.2c0.1,0,0.3,0,0.5,0c1.4,0,2.4,1,2.4,2.3c0,1.5-1,2.6-2.5,2.6
		c-1.4,0-2.4-0.9-2.4-2.7c0-0.1,0-0.2,0-0.4c-1.4,0.8-2.5,2-3.1,2.9h-2V81.7z M140.5,79.9c0-0.9-0.4-1.3-1.1-1.3
		c-0.7,0-1.1,0.6-1.1,1.2c0,0.8,0.6,1.2,1.2,1.2c0.3,0,0.6-0.1,0.9-0.3C140.4,80.5,140.5,80.2,140.5,79.9z M147.4,84.2
		c0,0.2-0.1,0.7-0.1,1.1c0,0.8,0.2,1.6,0.9,1.6c0.7,0,0.9-0.8,0.9-1.4c0-0.7-0.5-1.4-1.2-1.4C147.8,84.2,147.6,84.2,147.4,84.2z"/>
	<path class="st3" d="M154.5,86.8h1.3v-6.3c0-1.2-0.4-1.9-1.4-1.9c-0.6,0-1.2,0.3-1.5,1c0.2-0.1,0.5-0.1,0.7-0.1
		c0.9,0,1.6,0.7,1.6,1.8c0,1-0.8,1.8-1.8,1.8c-1.3,0-2-1-2-2.3c0-1.9,1.5-3,3.4-3c1.5,0,2.8,0.8,3,2.3c1.5-0.3,1.9-1.5,2-2.8h2
		c-0.2,1.6-1.1,2.5-2.5,3.1v0c2.1,0.3,2.3,1.5,2.3,2.7v2.6c0,2.1-1.5,2.3-3.1,2.3h-4.2L154.5,86.8z M152.5,81c0,0.6,0.4,1.2,1,1.2
		c0.5,0,0.9-0.5,0.9-1c0-0.6-0.5-1-1-1c-0.3,0-0.6,0.1-0.8,0.3C152.5,80.7,152.5,80.8,152.5,81z M157.8,86.8h0.3
		c1.3,0,1.6-0.3,1.6-1.5v-2.4c0-1.1-0.2-1.6-1.8-1.9V86.8z"/>
	<path class="st3" d="M164.5,79.3c1.2-1.1,2.5-1.6,4-1.6c2.1,0,4.1,1.1,4.1,3.5v3.4c0,2.8-1.7,3.5-4.1,3.5c-2.4,0-3.8-1-3.8-3v-1.8
		c0-1.6,0.9-2.9,2.6-2.9c1.5,0,2.1,1.1,2.1,1.9c0,1.4-0.9,2.1-1.8,2.1c-0.3,0-0.6,0-0.9-0.2v1c0,1.4,0.7,1.9,1.9,1.9
		c1.3,0,1.9-0.5,1.9-1.9v-3.8c0-1.6-0.8-2.6-2.3-2.6c-1.1,0-2.3,0.5-3.1,1.3L164.5,79.3z M167.5,83.7c0.6,0,1.1-0.5,1.1-1.2
		c0-0.7-0.3-1.3-1.1-1.3c-0.6,0-0.9,0.6-0.9,1.3c0,0.3,0,0.6,0.2,0.9C167,83.6,167.2,83.7,167.5,83.7z"/>
	<path class="st3" d="M177.1,81.9c-1,0-2-0.7-2-2c0-1.5,1.1-2.3,2.3-2.3c0.8,0,2.6,0.3,2.6,3v6h0.4c1.8,0,2.4-0.1,2.4-1.9v-3
		c0-0.7,0-1.4,0-3.1l1.8-0.8h0.2v7.1c0,2.5-1.2,2.9-3.7,2.9h-4.8l0.2-1.1h1.3v-4.9C177.7,81.9,177.4,81.9,177.1,81.9z M178.3,79.7
		c0-0.7-0.4-1.2-1-1.2c-0.7,0-1.2,0.6-1.2,1.2c0,0.8,0.6,1.2,1.1,1.2c0.3,0,0.7-0.1,0.9-0.4C178.2,80.3,178.3,80.1,178.3,79.7z"/>
	<path class="st3" d="M47.9,100.5c-0.6,0-1.2,0.3-1.5,1c0.2-0.1,0.5-0.1,0.7-0.1c0.9,0,1.6,0.6,1.6,1.7c0,1-0.8,1.7-1.8,1.7
		c-1.2,0-2-0.9-2-2.2c0-1.9,1.5-3,3.3-3c1.6,0,3.1,1,3.1,2.8v10.4c0.3-0.2,0.7-0.3,1.1-0.3c1.2,0,1.9,0.8,1.9,2
		c0,1.3-0.9,2.3-2.3,2.3c-1.6,0-2.7-1.1-2.7-3v-11.3C49.4,101.3,49,100.5,47.9,100.5z M46.1,103c0,0.6,0.3,1.1,0.9,1.1
		c0.5,0,0.9-0.4,0.9-0.9c0-0.6-0.5-1-1-1c-0.3,0-0.5,0.1-0.7,0.3C46.1,102.7,46.1,102.8,46.1,103z M51.2,114.5
		c0,0.9,0.4,1.3,1.1,1.3c0.6,0,1.1-0.6,1.1-1.3c0-0.9-0.6-1.2-1.2-1.2c-0.4,0-0.7,0.1-0.9,0.4C51.2,114,51.2,114.3,51.2,114.5z"/>
	<path class="st3" d="M58.9,110.5c-0.3,0.1-0.6,0.1-0.9,0.1c-1.1,0-2.1-0.7-2.1-2c0-1.3,0.9-2.2,2.3-2.2c1.6,0,2.7,1,2.7,3.2v5.2
		c0.9-1,2-1.8,3.1-2.4v-2c0-0.7,0-1.4,0-3.1l1.8-0.8h0.2v5.2c0.1,0,0.3,0,0.5,0c1.4,0,2.4,1,2.4,2.3c0,1.5-1,2.6-2.5,2.6
		c-1.4,0-2.4-0.9-2.4-2.7c0-0.1,0-0.2,0-0.4c-1.4,0.8-2.5,2-3.1,2.9h-2V110.5z M59.2,108.7c0-0.9-0.4-1.3-1.1-1.3
		c-0.7,0-1.1,0.6-1.1,1.2c0,0.8,0.6,1.2,1.2,1.2c0.3,0,0.6-0.1,0.9-0.3C59.1,109.3,59.2,109,59.2,108.7z M66.1,113
		c0,0.2-0.1,0.7-0.1,1.1c0,0.8,0.2,1.6,0.9,1.6c0.7,0,0.9-0.8,0.9-1.4c0-0.7-0.5-1.4-1.2-1.4C66.5,113,66.3,113,66.1,113z"/>
	<path class="st3" d="M77.2,116.8c0-1.6,0-2.7,0-3.4v-3c0-2.4-1.3-2.9-2.3-2.9c-1,0-1.8,0.5-2,1.5l2.2,0.4l-0.4,0.9
		c-1,0.2-1.2,0.7-1.2,1.9v4.4h-2v-4.2c0-1.1,0.3-1.8,1.5-2.3l0-0.1l-2.2-0.4c0.2-1.5,1.2-3.3,4.2-3.3c1.5,0,4.2,0.5,4.2,3.7v5.9
		l-1.6,0.7H77.2z"/>
	<path class="st3" d="M85.6,116.6v-6.4c0-1.7-0.9-2.4-2-2.4c-0.7,0-1.4,0.3-2.1,0.9l-0.6-0.9c0.9-0.8,2-1.3,3.1-1.3
		c1.9,0,3.6,1.2,3.6,3.5v6.6H85.6z"/>
	<path class="st3" d="M89.7,109.3c0-2.2,1.5-3.3,2.9-3.3c0.8,0,1.5,0.3,2.1,0.6c0.4,0.2,0.8,0.4,1.2,0.4c0.4,0,0.8-0.3,1-0.6
		l0.6,0.8c-0.6,0.9-1.3,1.2-2,1.2c-0.8,0-1.4-0.2-2-0.4c-0.5-0.2-1.1-0.4-1.6-0.4c-0.5,0-0.9,0.3-0.9,0.6c0,0.1,0,0.2,0.1,0.4
		c2.5,0.2,4.1,0.5,4.9,1.1c0.8,0.6,0.8,1.1,0.8,2.4v2c0,1.7-1.1,2.7-2.7,2.7c-1.3,0-2.3-0.8-2.3-2.1c0-1.3,0.9-2.2,2.1-2.2
		c0.3,0,0.6,0,0.8,0.2v-1.1c0-1.4-0.7-1.8-5.1-2.1C89.7,109.4,89.7,109.4,89.7,109.3z M94.1,113.4c-0.7,0-1.2,0.6-1.2,1.2
		c0,0.8,0.6,1.2,1.2,1.2c0.5,0,1-0.4,1-1.4c0-0.3,0-0.5-0.1-0.7C94.8,113.5,94.4,113.4,94.1,113.4z"/>
	<path class="st3" d="M101.7,115.6h1.3v-6.3c0-1.2-0.4-1.9-1.4-1.9c-0.6,0-1.2,0.3-1.5,1c0.2-0.1,0.5-0.1,0.7-0.1
		c0.9,0,1.6,0.7,1.6,1.8c0,1-0.8,1.8-1.8,1.8c-1.3,0-2-1-2-2.3c0-1.9,1.5-3,3.4-3c1.5,0,2.8,0.8,3,2.3c1.5-0.3,1.9-1.5,2-2.8h2
		c-0.2,1.6-1.1,2.5-2.5,3.1v0c2.1,0.3,2.3,1.5,2.3,2.7v2.6c0,2.1-1.5,2.3-3.1,2.3h-4.2L101.7,115.6z M99.7,109.8
		c0,0.6,0.4,1.2,1,1.2c0.5,0,0.9-0.5,0.9-1c0-0.6-0.5-1-1-1c-0.3,0-0.6,0.1-0.8,0.3C99.7,109.5,99.7,109.6,99.7,109.8z M105,115.6
		h0.3c1.3,0,1.6-0.3,1.6-1.5v-2.4c0-1.1-0.2-1.6-1.8-1.9V115.6z"/>
	<path class="st3" d="M104.2,104.6c0.4-0.1,0.9-0.3,1.2-0.7c-0.8-0.1-1.4-0.6-1.4-1.4c0-0.9,0.7-1.6,1.7-1.6c1,0,1.5,0.7,1.5,1.6
		c0,0.6-0.3,1.2-0.9,1.8l0,0c1.5-0.3,2.1-1.6,2.2-3.2h1.9c-0.3,1.5-1,2.7-2.4,3.4c-0.9,0.5-2.1,0.7-3.9,0.8L104.2,104.6z
		 M105.6,101.7c-0.5,0-0.8,0.3-0.8,0.7c0,0.5,0.4,0.9,0.9,0.9c0.5,0,0.6-0.4,0.6-0.8C106.4,102,106.1,101.7,105.6,101.7z"/>
	<path class="st3" d="M111.7,108.1c1.2-1.1,2.5-1.6,4-1.6c2.1,0,4.1,1.1,4.1,3.5v3.4c0,2.8-1.7,3.5-4.1,3.5c-2.4,0-3.8-1-3.8-3V112
		c0-1.6,0.9-2.9,2.6-2.9c1.5,0,2.1,1.1,2.1,1.9c0,1.4-0.9,2.1-1.8,2.1c-0.3,0-0.6,0-0.9-0.2v1c0,1.4,0.7,1.9,1.9,1.9
		c1.3,0,1.9-0.5,1.9-1.9v-3.8c0-1.6-0.8-2.6-2.3-2.6c-1.1,0-2.3,0.5-3.1,1.3L111.7,108.1z M114.7,112.5c0.6,0,1.1-0.5,1.1-1.2
		c0-0.7-0.3-1.3-1.1-1.3c-0.6,0-0.9,0.6-0.9,1.3c0,0.3,0,0.6,0.2,0.9C114.2,112.4,114.4,112.5,114.7,112.5z"/>
	<path class="st3" d="M131.8,99.7h0.2v14.1c0,2.5-1.2,2.9-3.7,2.9h-4.8l0.2-1.1h1.3v-4.9c-0.3,0.1-0.6,0.2-0.9,0.2c-1,0-2-0.7-2-2
		c0-1.5,1.1-2.3,2.3-2.3c0.8,0,2.6,0.3,2.6,3v6h0.4c1.8,0,2.4-0.1,2.4-1.9v-10.1c0-0.7,0-1.4,0-3.1L131.8,99.7z M125.5,108.5
		c0-0.7-0.4-1.2-1-1.2c-0.7,0-1.2,0.6-1.2,1.2c0,0.8,0.6,1.2,1.1,1.2c0.3,0,0.7-0.1,0.9-0.4C125.4,109.1,125.5,108.9,125.5,108.5z"
		/>
	<path class="st3" d="M144.1,99.7h0.2v14.1c0,2.5-1.2,2.9-3.7,2.9h-4.8l0.2-1.1h1.3v-4.9c-0.3,0.1-0.6,0.2-0.9,0.2c-1,0-2-0.7-2-2
		c0-1.5,1.1-2.3,2.3-2.3c0.8,0,2.6,0.3,2.6,3v6h0.4c1.8,0,2.4-0.1,2.4-1.9v-10.1c0-0.7,0-1.4,0-3.1L144.1,99.7z M137.7,108.5
		c0-0.7-0.4-1.2-1-1.2c-0.7,0-1.2,0.6-1.2,1.2c0,0.8,0.6,1.2,1.1,1.2c0.3,0,0.7-0.1,0.9-0.4C137.7,109.1,137.7,108.9,137.7,108.5z"
		/>
	<path class="st3" d="M141.5,100.9c2.1,0,3.4,1.5,3.4,3.3c0,0.5-0.1,1-0.3,1.5c-2-1.3-3.9-1.9-6.6-1.8
		C138.3,102.1,139.6,100.9,141.5,100.9z M144.1,104.6c-0.1-1.2-1.5-2.2-2.8-2.2c-0.9,0-1.6,0.3-2,0.8
		C141,103.3,142.6,103.7,144.1,104.6z"/>
	<path class="st3" d="M139.7,104.6c0.4-0.1,0.9-0.3,1.2-0.7c-0.8-0.1-1.4-0.6-1.4-1.4c0-0.9,0.7-1.6,1.7-1.6c1,0,1.5,0.7,1.5,1.6
		c0,0.6-0.3,1.2-0.9,1.8l0,0c1.5-0.3,2.1-1.6,2.2-3.2h1.9c-0.3,1.5-1,2.7-2.4,3.4c-0.9,0.5-2.1,0.7-3.9,0.8L139.7,104.6z M141,101.7
		c-0.5,0-0.8,0.3-0.8,0.7c0,0.5,0.4,0.9,0.9,0.9c0.5,0,0.6-0.4,0.6-0.8C141.8,102,141.5,101.7,141,101.7z"/>
	<path class="st3" d="M151,110.6c-1.1,0-2.1-0.7-2.1-2c0-1.2,0.9-2.2,2.3-2.2c0.7,0,2.6,0.3,2.6,3v4.7c0,1.9-0.1,2.5-1.7,2.5h-1.4
		c-1.4-2-3.7-4.5-5.2-5.5l0.7-1c1.8,1.2,4.1,3.6,5.2,5.3c0.4,0,0.4-0.2,0.4-1v-3.9C151.5,110.6,151.2,110.6,151,110.6z M152.1,108.7
		c0-0.7-0.3-1.3-1.1-1.3c-0.7,0-1.1,0.5-1.1,1.2c0,0.8,0.6,1.2,1.2,1.2c0.3,0,0.6-0.1,0.8-0.3C152,109.2,152.1,108.9,152.1,108.7z"
		/>
	<path class="st3" d="M9.4,135.5v8.3c0,1.2-0.2,1.7-1.1,1.7H7.5l-2.6-4.1l-2.6,3.6c-0.3,0.4-0.4,0.6-0.8,0.6H0v-7.3
		c0-1.6,1.1-2.9,2.8-2.9c1.6,0,2.2,1.1,2.2,2c0,1.4-0.9,2.2-2,2.2c-0.3,0-0.6,0-0.9-0.2v2.6c0,0.6-0.1,1.1-0.2,1.8l0,0l2.9-3.8H5
		l2.5,3.8l0,0c-0.1-0.6-0.2-1.2-0.2-1.8v-2.4c0-0.7,0-1.4,0-3.1l1.8-0.8H9.4z M2.8,138.6c0.6,0,1.2-0.5,1.2-1.2
		c0-0.7-0.4-1.3-1.1-1.3c-0.7,0-1,0.6-1,1.3c0,0.3,0,0.6,0.2,0.9C2.3,138.5,2.5,138.6,2.8,138.6z"/>
	<path class="st3" d="M8.1,134.1l-0.6-4.3h2.1l-0.6,4L8.1,134.1L8.1,134.1z"/>
	<path class="st3" d="M15.8,145.4V139c0-1.7-0.9-2.4-2-2.4c-0.7,0-1.4,0.3-2.1,0.9l-0.6-0.9c0.9-0.8,2-1.3,3.1-1.3
		c1.9,0,3.6,1.2,3.6,3.5v6.6H15.8z"/>
	<path class="st3" d="M23.2,139.3c-0.3,0.1-0.6,0.1-0.9,0.1c-1.1,0-2.1-0.7-2.1-2c0-1.3,0.9-2.2,2.3-2.2c1.6,0,2.7,1,2.7,3.2v5.2
		c0.9-1,2-1.8,3.1-2.4v-2c0-0.7,0-1.4,0-3.1l1.8-0.8h0.2v5.2c0.1,0,0.3,0,0.5,0c1.4,0,2.4,1,2.4,2.3c0,1.5-1,2.6-2.5,2.6
		c-1.4,0-2.4-0.9-2.4-2.7c0-0.1,0-0.2,0-0.4c-1.4,0.8-2.5,2-3.1,2.9h-2V139.3z M23.4,137.5c0-0.9-0.4-1.3-1.1-1.3
		c-0.7,0-1.1,0.6-1.1,1.2c0,0.8,0.6,1.2,1.2,1.2c0.3,0,0.6-0.1,0.9-0.3C23.4,138.1,23.4,137.8,23.4,137.5z M30.4,141.8
		c0,0.2-0.1,0.7-0.1,1.1c0,0.8,0.2,1.6,0.9,1.6c0.7,0,0.9-0.8,0.9-1.4c0-0.7-0.5-1.4-1.2-1.4C30.7,141.8,30.6,141.8,30.4,141.8z"/>
	<path class="st3" d="M37.8,141.1v-1.8c-0.3,0.1-0.6,0.2-0.9,0.2c-1,0-2.1-0.7-2.1-1.9c0-1.4,1.1-2.2,2.3-2.2c0.8,0,2.7,0.3,2.7,3
		v3.3c1.1,0.5,2.2,1.2,3.1,2.1v-4.3c0-0.7,0-1.4,0-3.1l1.8-0.8H45v9.9h-2.1c-0.7-1-1.9-2.1-3.1-2.6c0,0.1,0,0.2,0,0.4
		c0,0.9-0.7,2.4-2.5,2.4c-1.4,0-2.4-1-2.4-2.4c0-1.2,1-2.2,2.3-2.2C37.4,141,37.6,141,37.8,141.1z M38.1,137.3
		c0-0.7-0.5-1.1-1.1-1.1c-0.7,0-1.2,0.5-1.2,1.2c0,0.8,0.6,1.2,1.2,1.2c0.3,0,0.7-0.1,0.9-0.4C38.1,137.9,38.1,137.6,38.1,137.3z
		 M37.5,142.1c-0.7,0-1.3,0.5-1.3,1.4c0,0.6,0.4,1.1,0.8,1.1c0.7,0,1-0.7,1-1.4c0-0.4,0-0.7-0.2-1C37.7,142.1,37.6,142.1,37.5,142.1
		z"/>
	<path class="st3" d="M41.4,129.8v-1.6l1-0.5h0.2v2.1c0.4,0,0.8,0.2,1.1,0.3v-1.9l1-0.5H45v3.4c0.4,0.6,0.6,1.2,0.6,2
		c0,0.5-0.1,1-0.3,1.5c-2-1.3-3.9-1.9-6.6-1.8C38.9,131.1,40,130,41.4,129.8z M44.8,133.4c-0.1-1.2-1.5-2.2-2.8-2.2
		c-0.9,0-1.6,0.3-2,0.8C41.7,132.1,43.3,132.5,44.8,133.4z"/>
	<path class="st3" d="M47.9,136.9c1.2-1.1,2.5-1.6,4-1.6c2.1,0,4.1,1.1,4.1,3.5v3.4c0,2.8-1.7,3.5-4.1,3.5c-2.4,0-3.8-1-3.8-3v-1.8
		c0-1.6,0.9-2.9,2.6-2.9c1.5,0,2.1,1.1,2.1,1.9c0,1.4-0.9,2.1-1.8,2.1c-0.3,0-0.6,0-0.9-0.2v1c0,1.4,0.7,1.9,1.9,1.9
		c1.3,0,1.9-0.5,1.9-1.9V139c0-1.6-0.8-2.6-2.3-2.6c-1.1,0-2.3,0.5-3.1,1.3L47.9,136.9z M50.8,141.3c0.6,0,1.1-0.5,1.1-1.2
		c0-0.7-0.3-1.3-1.1-1.3c-0.6,0-0.9,0.6-0.9,1.3c0,0.3,0,0.6,0.2,0.9C50.4,141.2,50.6,141.3,50.8,141.3z"/>
	<path class="st3" d="M65.3,142.2v-3c0-2.4-1.3-2.9-2.3-2.9c-1,0-1.8,0.5-2.1,1.5l2.3,0.4l-0.4,0.9c-1.2,0.2-1.5,0.7-1.5,1.9v0.7
		c0.3-0.2,0.7-0.3,1-0.3c1.1,0,1.8,0.8,1.8,2c0,1.3-0.9,2.2-2.2,2.2c-1.6,0-2.5-1.1-2.5-3.1v-1.3c0-1.2,0.4-1.8,1.6-2.4v0l-2.1-0.3
		c0.2-1.4,1.2-3.2,4.3-3.2c1.5,0,4.2,0.5,4.2,3.7v5.9l-1.6,0.7h-0.5C65.3,144,65.3,142.9,65.3,142.2z M61.1,143.4
		c0,0.8,0.3,1.3,1,1.3c0.6,0,1-0.6,1-1.2c0-0.9-0.6-1.2-1.1-1.2c-0.4,0-0.7,0.1-0.9,0.4C61.1,142.9,61.1,143.2,61.1,143.4z"/>
	<path class="st3" d="M63.7,129.8v-1.6l1-0.5H65v2.1c0.4,0,0.8,0.2,1.1,0.3v-1.9l1-0.5h0.2v3.4c0.4,0.6,0.6,1.2,0.6,2
		c0,0.5-0.1,1-0.3,1.5c-2-1.3-3.9-1.9-6.6-1.8C61.2,131.1,62.3,130,63.7,129.8z M67.1,133.4c-0.1-1.2-1.5-2.2-2.8-2.2
		c-0.9,0-1.6,0.3-2,0.8C64,132.1,65.6,132.5,67.1,133.4z"/>
	<path class="st3" d="M70.2,136.9c1.2-1.1,2.5-1.6,4-1.6c2.1,0,4.1,1.1,4.1,3.5v3.4c0,2.8-1.7,3.5-4.1,3.5c-2.4,0-3.8-1-3.8-3v-1.8
		c0-1.6,0.9-2.9,2.6-2.9c1.5,0,2.1,1.1,2.1,1.9c0,1.4-0.9,2.1-1.8,2.1c-0.3,0-0.6,0-0.9-0.2v1c0,1.4,0.7,1.9,1.9,1.9
		c1.3,0,1.9-0.5,1.9-1.9V139c0-1.6-0.8-2.6-2.3-2.6c-1.1,0-2.3,0.5-3.1,1.3L70.2,136.9z M73.1,141.3c0.6,0,1.1-0.5,1.1-1.2
		c0-0.7-0.3-1.3-1.1-1.3c-0.6,0-0.9,0.6-0.9,1.3c0,0.3,0,0.6,0.2,0.9C72.6,141.2,72.9,141.3,73.1,141.3z"/>
	<path class="st3" d="M83.6,139.3c-0.2,0.1-0.5,0.1-0.8,0.1c-1.1,0-2.1-0.7-2.1-2c0-1.2,0.9-2.2,2.3-2.2c0.7,0,2.6,0.3,2.6,3v2.8
		c0,0.6,0,1.2-0.1,1.7l0,0c1.2-2.2,2.2-3.3,3.4-4.1c-0.6-0.3-1-1-1-1.6c0-1.2,1.1-2,2.2-2c1.1,0,2,0.8,2,1.9c0,0.6-0.3,1.2-0.7,1.7
		c0.1,0.1,0.2,0.3,0.2,0.6v6.2h-2v-6c-1.3,0.8-2.9,3.1-4.1,6h-1.9V139.3z M84,137.5c0-0.7-0.3-1.3-1.1-1.3c-0.7,0-1.1,0.5-1.1,1.2
		c0,0.8,0.6,1.2,1.2,1.2c0.3,0,0.6-0.1,0.8-0.3C83.9,138,84,137.7,84,137.5z M91.2,136.9c0-0.5-0.4-1-1-1c-0.7,0-1,0.5-1,1
		c0,0.6,0.6,1.2,1.2,1.3C90.8,138,91.2,137.5,91.2,136.9z"/>
	<path class="st3" d="M93.7,138.1c0-2.2,1.5-3.3,2.9-3.3c0.8,0,1.5,0.3,2.1,0.6c0.4,0.2,0.8,0.4,1.2,0.4c0.4,0,0.8-0.3,1-0.6
		l0.6,0.8c-0.6,0.9-1.3,1.2-2,1.2c-0.8,0-1.4-0.2-2-0.4c-0.5-0.2-1.1-0.4-1.6-0.4c-0.5,0-0.9,0.3-0.9,0.6c0,0.1,0,0.2,0.1,0.4
		c2.5,0.2,4.1,0.5,4.9,1.1c0.8,0.6,0.8,1.1,0.8,2.4v2c0,1.7-1.1,2.7-2.7,2.7c-1.3,0-2.3-0.8-2.3-2.1c0-1.3,0.9-2.2,2.1-2.2
		c0.3,0,0.6,0,0.8,0.2v-1.1c0-1.4-0.7-1.8-5.1-2.1C93.7,138.2,93.7,138.2,93.7,138.1z M98.1,142.2c-0.7,0-1.2,0.6-1.2,1.2
		c0,0.8,0.6,1.2,1.2,1.2c0.5,0,1-0.4,1-1.4c0-0.3,0-0.5-0.1-0.7C98.8,142.3,98.4,142.2,98.1,142.2z"/>
	<path class="st3" d="M96.9,129.8v-1.6l1-0.5h0.2v2.1c0.4,0,0.8,0.2,1.1,0.3v-1.9l1-0.5h0.2v3.4c0.4,0.6,0.6,1.2,0.6,2
		c0,0.5-0.1,1-0.3,1.5c-2-1.3-3.9-1.9-6.6-1.8C94.4,131.1,95.4,130,96.9,129.8z M100.3,133.4c-0.1-1.2-1.5-2.2-2.8-2.2
		c-0.9,0-1.6,0.3-2,0.8C97.2,132.1,98.8,132.5,100.3,133.4z"/>
	<path class="st3" d="M103.3,136.9c1.2-1.1,2.5-1.6,4-1.6c2.1,0,4.1,1.1,4.1,3.5v3.4c0,2.8-1.7,3.5-4.1,3.5c-2.4,0-3.8-1-3.8-3v-1.8
		c0-1.6,0.9-2.9,2.6-2.9c1.5,0,2.1,1.1,2.1,1.9c0,1.4-0.9,2.1-1.8,2.1c-0.3,0-0.6,0-0.9-0.2v1c0,1.4,0.7,1.9,1.9,1.9
		c1.3,0,1.9-0.5,1.9-1.9V139c0-1.6-0.8-2.6-2.3-2.6c-1.1,0-2.3,0.5-3.1,1.3L103.3,136.9z M106.3,141.3c0.6,0,1.1-0.5,1.1-1.2
		c0-0.7-0.3-1.3-1.1-1.3c-0.6,0-0.9,0.6-0.9,1.3c0,0.3,0,0.6,0.2,0.9C105.8,141.2,106.1,141.3,106.3,141.3z"/>
	<path class="st3" d="M123.1,134.2c-0.1,0.9-0.6,1.7-1.2,2.2c0.6,0.6,0.9,1.3,0.9,2.4v6.6h-2v-4.9c-0.6-0.7-1.6-1.1-2.4-1.1
		c-0.8,0-1.6,0.4-1.6,1.7c0,0.2,0,0.4,0,0.6c0.3-0.2,0.6-0.3,1-0.3c1.1,0,1.8,0.8,1.8,2c0,1.3-0.9,2.2-2.2,2.2
		c-1.6,0-2.6-1.1-2.6-3.1v-0.7c0-3.1,2.6-3.4,3.4-3.4c0.8,0,1.8,0.3,2.5,0.8V139c0-0.6-0.1-1.1-0.4-1.6c-0.4,0.2-0.8,0.4-1.2,0.6
		l-0.6-0.3v0c0.4-0.2,0.8-0.5,1.2-0.9c-0.4-0.3-0.8-0.4-1.4-0.4c-1.2,0-2.2,0.5-3,1.3l-0.7-0.8c1.2-1.1,2.4-1.6,3.9-1.6
		c0.7,0,1.4,0.1,2.1,0.4c0.3-0.5,0.4-0.9,0.5-1.5H123.1z M116.6,143.4c0,0.8,0.3,1.3,1,1.3c0.6,0,1-0.6,1-1.2c0-0.9-0.6-1.2-1.1-1.2
		c-0.4,0-0.7,0.1-0.9,0.4C116.6,142.9,116.6,143.2,116.6,143.4z"/>
	<path class="st3" d="M128.3,141.1v-1.8c-0.3,0.1-0.6,0.2-0.9,0.2c-1,0-2.1-0.7-2.1-1.9c0-1.4,1.1-2.2,2.3-2.2c0.8,0,2.7,0.3,2.7,3
		v3.3c1.1,0.5,2.2,1.2,3.1,2.1v-4.3c0-0.7,0-1.4,0-3.1l1.8-0.8h0.2v9.9h-2.1c-0.7-1-1.9-2.1-3.1-2.6c0,0.1,0,0.2,0,0.4
		c0,0.9-0.7,2.4-2.5,2.4c-1.4,0-2.4-1-2.4-2.4c0-1.2,1-2.2,2.3-2.2C128,141,128.2,141,128.3,141.1z M128.7,137.3
		c0-0.7-0.5-1.1-1.1-1.1c-0.7,0-1.2,0.5-1.2,1.2c0,0.8,0.6,1.2,1.2,1.2c0.3,0,0.7-0.1,0.9-0.4C128.6,137.9,128.7,137.6,128.7,137.3z
		 M128,142.1c-0.7,0-1.3,0.5-1.3,1.4c0,0.6,0.4,1.1,0.8,1.1c0.7,0,1-0.7,1-1.4c0-0.4,0-0.7-0.2-1C128.2,142.1,128.1,142.1,128,142.1
		z"/>
	<path class="st3" d="M141.9,145.4V139c0-1.7-0.9-2.4-2-2.4c-0.7,0-1.4,0.3-2.1,0.9l-0.6-0.9c0.9-0.8,2-1.3,3.1-1.3
		c1.9,0,3.6,1.2,3.6,3.5v6.6H141.9z"/>
	<path class="st3" d="M146,138.1c0-2.2,1.5-3.3,2.9-3.3c0.8,0,1.5,0.3,2.1,0.6c0.4,0.2,0.8,0.4,1.2,0.4c0.4,0,0.8-0.3,1-0.6l0.6,0.8
		c-0.6,0.9-1.3,1.2-2,1.2c-0.8,0-1.4-0.2-2-0.4c-0.5-0.2-1.1-0.4-1.6-0.4c-0.5,0-0.9,0.3-0.9,0.6c0,0.1,0,0.2,0.1,0.4
		c2.5,0.2,4.1,0.5,4.9,1.1c0.8,0.6,0.8,1.1,0.8,2.4v2c0,1.7-1.1,2.7-2.7,2.7c-1.3,0-2.3-0.8-2.3-2.1c0-1.3,0.9-2.2,2.1-2.2
		c0.3,0,0.6,0,0.8,0.2v-1.1c0-1.4-0.7-1.8-5.1-2.1C146,138.2,146,138.2,146,138.1z M150.4,142.2c-0.7,0-1.2,0.6-1.2,1.2
		c0,0.8,0.6,1.2,1.2,1.2c0.5,0,1-0.4,1-1.4c0-0.3,0-0.5-0.1-0.7C151.1,142.3,150.7,142.2,150.4,142.2z"/>
	<path class="st3" d="M153.3,131.1c-0.5-0.3-0.9-0.4-1.3-0.4c-1,0-1.6,0.8-1.6,1.5c0,0.5,0.3,1.1,1,1.3c-0.2-0.2-0.3-0.5-0.3-0.7
		c0-0.6,0.5-1.1,1.2-1.1c0.6,0,1.2,0.5,1.2,1.1c0,1-1,1.4-1.8,1.4c-1.4,0-2.6-0.9-2.6-2.2c0-1.3,1.2-2.1,2.5-2.1
		c0.4,0,0.9,0.1,1.2,0.3l0.4-2.6h1.9L153.3,131.1z M152.8,132.7c0-0.3-0.2-0.5-0.5-0.5s-0.6,0.2-0.6,0.6c0,0.2,0.1,0.5,0.3,0.7
		C152.6,133.4,152.8,133,152.8,132.7z"/>
	<path class="st3" d="M158.1,139.3c-0.3,0.1-0.6,0.2-0.9,0.2c-1.2,0-2-0.8-2-2c0-1.3,1-2.2,2.4-2.2c0.7,0,2.6,0.3,2.6,3v1.6
		c0,0.4,0,1.3-0.1,1.8l0.1,0c1-2.4,1.5-3.8,1.8-4.4c0.6-1.2,1.1-1.9,2.2-1.9c1.2,0,2.1,1,2.1,2.5v7.6h-2V138c0-0.9-0.2-1.2-0.5-1.2
		c-0.4,0-0.6,0.3-1,1.2c-0.6,1.2-1.3,3.3-2.7,7.4h-1.8V139.3z M158.4,137.3c0-0.7-0.5-1.2-1.1-1.2c-0.7,0-1.2,0.5-1.2,1.2
		c0,0.8,0.5,1.2,1.1,1.2c0.3,0,0.7-0.1,1-0.4C158.4,137.9,158.4,137.6,158.4,137.3z"/>
	<path class="st3" d="M168.5,128.5c1.4,0,2.5,0.9,3.2,0.9c0.3,0,0.7-0.1,1.1-0.5l0.5,0.8c-0.6,0.8-1.3,1.1-2.1,1.1
		c-1.3,0-2.3-0.8-3.5-0.8c-0.3,0-0.8,0.2-0.8,0.8c0,0.1,0,0.1,0,0.2c4.8,0.1,4.7,1.7,4.7,3.6v7.1c0.3-0.2,0.7-0.3,1.1-0.3
		c1.2,0,1.9,0.8,1.9,2c0,1.3-0.9,2.3-2.3,2.3c-1.6,0-2.7-1.1-2.7-3v-8.1c0-2-0.3-2.4-3.9-2.6C165.5,130,166.6,128.5,168.5,128.5z
		 M171.4,143.3c0,0.9,0.4,1.3,1.1,1.3c0.6,0,1.1-0.6,1.1-1.3c0-0.9-0.6-1.2-1.2-1.2c-0.4,0-0.7,0.1-0.9,0.4
		C171.4,142.8,171.4,143.1,171.4,143.3z"/>
	<path class="st3" d="M187.4,145.4h-1.2l-2.4-7.1l-1.9,5.9c-0.2,0.7-0.5,1.2-1.3,1.2h-1.5v-6c-0.3,0.1-0.6,0.2-0.9,0.2
		c-1,0-2-0.7-2-2c0-1.5,1.1-2.3,2.3-2.3c0.8,0,2.6,0.3,2.6,3v2.7c0,1.1-0.1,1.8-0.2,2.5l0.1,0l2.5-7.7h0.4l2.6,7.7l0.1,0
		c-0.1-0.7-0.1-1.4-0.1-2.5v-8.7c0-0.7,0-1.4,0-3.1l1.8-0.8h0.2v15.3C188.5,144.9,188.3,145.4,187.4,145.4z M179.4,137.3
		c0-0.7-0.4-1.2-1-1.2c-0.7,0-1.2,0.6-1.2,1.2c0,0.8,0.6,1.2,1.1,1.2c0.3,0,0.7-0.1,0.9-0.4C179.4,137.9,179.4,137.7,179.4,137.3z"
		/>
	<path class="st3" d="M193.9,139.3c-0.3,0.1-0.6,0.1-0.9,0.1c-1.1,0-2.1-0.7-2.1-2c0-1.3,0.9-2.2,2.3-2.2c1.6,0,2.7,1,2.7,3.2v5.2
		c0.9-1,2-1.8,3.1-2.4v-2c0-0.7,0-1.4,0-3.1l1.8-0.8h0.2v5.2c0.1,0,0.3,0,0.5,0c1.4,0,2.4,1,2.4,2.3c0,1.5-1,2.6-2.5,2.6
		c-1.4,0-2.4-0.9-2.4-2.7c0-0.1,0-0.2,0-0.4c-1.4,0.8-2.5,2-3.1,2.9h-2V139.3z M194.2,137.5c0-0.9-0.4-1.3-1.1-1.3
		c-0.7,0-1.1,0.6-1.1,1.2c0,0.8,0.6,1.2,1.2,1.2c0.3,0,0.6-0.1,0.9-0.3C194.1,138.1,194.2,137.8,194.2,137.5z M201.1,141.8
		c0,0.2-0.1,0.7-0.1,1.1c0,0.8,0.2,1.6,0.9,1.6c0.7,0,0.9-0.8,0.9-1.4c0-0.7-0.5-1.4-1.2-1.4C201.5,141.8,201.3,141.8,201.1,141.8z"
		/>
</g>
</svg>