<!-- Generator: Adobe Illustrator 19.0.0, SVG Export Plug-In  -->
<svg version="1.1"
	 xmlns="http://www.w3.org/2000/svg" xmlns:xlink="http://www.w3.org/1999/xlink" xmlns:a="http://ns.adobe.com/AdobeSVGViewerExtensions/3.0/"
	 x="0px" y="0px" width="345.7px" height="222.2px" viewBox="0 0 345.7 222.2" style="enable-background:new 0 0 345.7 222.2;"
	 xml:space="preserve">
<style type="text/css">
	.st0{fill:#086A87;stroke:#086A87;stroke-width:2.1193;stroke-linecap:round;stroke-linejoin:round;stroke-miterlimit:10;}
	.st1{fill:#33CCCC;stroke:#33CCCC;stroke-width:2.0842;stroke-miterlimit:10;}
	.st2{fill:#FF6633;}
	.st3{fill:#FFFFFF;}
</style>
<defs>
</defs>
<path class="st0" d="M129.2,153.5H70.1c-5.1,0-9.3-4.2-9.3-9.3V30.5c0-5.1,4.2-9.3,9.3-9.3h59.1c5.1,0,9.3,4.2,9.3,9.3v113.7
	C138.6,149.3,134.4,153.5,129.2,153.5z"/>
<circle class="st1" cx="99.3" cy="137.8" r="6.2"/>
<rect x="69.8" y="32.8" class="st1" width="58.9" height="90.7"/>
<circle class="st2" cx="234.9" cy="110.8" r="110.8"/>
<g>
	<g>
		<path class="st2" d="M15.3,193.8c4.2,0,7.6,1.2,10,3.5c2.5,2.4,3.7,5.6,3.7,9.7c0,4.9-1.5,8.6-4.5,11.2c-3,2.6-7.3,3.9-12.9,3.9
			c-4.8,0-8.8-0.8-11.7-2.4v-8c1.6,0.8,3.4,1.5,5.5,2c2.1,0.5,4.1,0.8,5.9,0.8c5.6,0,8.4-2.3,8.4-6.9c0-4.4-2.9-6.6-8.7-6.6
			c-1.1,0-2.2,0.1-3.5,0.3c-1.3,0.2-2.3,0.4-3.1,0.7l-3.7-2l1.6-22.2h23.6v7.8H10.6l-0.8,8.5l1-0.2C12,193.9,13.5,193.8,15.3,193.8z
			"/>
		<path class="st2" d="M64.8,221.6H34.3v-6.4l10.9-11c3.2-3.3,5.3-5.6,6.3-6.9c1-1.3,1.7-2.5,2.1-3.6c0.4-1.1,0.7-2.2,0.7-3.4
			c0-1.7-0.5-3-1.4-3.9c-1-0.9-2.2-1.3-3.9-1.3c-1.7,0-3.3,0.4-4.9,1.2c-1.6,0.8-3.2,1.9-5,3.3l-5-5.9c2.1-1.8,3.9-3.1,5.3-3.9
			c1.4-0.8,2.9-1.3,4.6-1.7c1.7-0.4,3.5-0.6,5.6-0.6c2.7,0,5.1,0.5,7.2,1.5c2.1,1,3.7,2.4,4.9,4.2c1.2,1.8,1.7,3.8,1.7,6.1
			c0,2-0.4,3.9-1.1,5.6c-0.7,1.8-1.8,3.6-3.3,5.4c-1.5,1.8-4.1,4.5-7.8,7.9l-5.6,5.3v0.4h19V221.6z"/>
		<path class="st2" d="M89.3,191.1c0,4.6-0.9,8-2.7,10.3c-1.8,2.3-4.4,3.4-7.8,3.4c-3.3,0-5.8-1.2-7.6-3.5
			c-1.8-2.4-2.7-5.8-2.7-10.2c0-9.1,3.4-13.6,10.3-13.6c3.4,0,5.9,1.2,7.7,3.5C88.4,183.3,89.3,186.7,89.3,191.1z M76.1,191.1
			c0,2.5,0.2,4.4,0.7,5.6c0.4,1.2,1.2,1.9,2.2,1.9c1.9,0,2.9-2.5,2.9-7.5c0-5-1-7.4-2.9-7.4c-1,0-1.7,0.6-2.2,1.8
			C76.4,186.7,76.1,188.6,76.1,191.1z M109.8,178.1l-24.1,43.5h-7.1l24.1-43.5H109.8z M119.8,208.4c0,4.5-0.9,8-2.7,10.3
			c-1.8,2.3-4.4,3.4-7.8,3.4c-3.3,0-5.8-1.2-7.6-3.5c-1.8-2.4-2.7-5.7-2.7-10.2c0-9.1,3.4-13.6,10.3-13.6c3.4,0,5.9,1.2,7.7,3.5
			C118.9,200.7,119.8,204.1,119.8,208.4z M106.6,208.5c0,2.5,0.2,4.4,0.7,5.6c0.4,1.2,1.2,1.9,2.2,1.9c1.9,0,2.9-2.5,2.9-7.5
			c0-5-1-7.4-2.9-7.4c-1,0-1.7,0.6-2.2,1.8C106.8,204.1,106.6,206,106.6,208.5z"/>
	</g>
</g>
<g>
	<path class="st3" d="M174.5,74h1.9v-8.9c0-1.6-0.5-2.7-2-2.7c-0.9,0-1.8,0.4-2.2,1.4c0.3-0.1,0.7-0.2,1-0.2c1.3,0,2.3,1,2.3,2.5
		c0,1.5-1.2,2.5-2.6,2.5c-1.9,0-2.9-1.5-2.9-3.2c0-2.7,2.2-4.3,4.8-4.3c2.1,0,4,1.1,4.3,3.2c2.1-0.4,2.7-2.1,2.9-3.9h2.9
		c-0.3,2.3-1.5,3.6-3.5,4.4v0c2.9,0.5,3.3,2.1,3.3,3.8v3.6c0,3-2.1,3.2-4.5,3.2h-5.9L174.5,74z M171.7,65.8c0,0.9,0.5,1.6,1.4,1.6
		c0.7,0,1.2-0.7,1.2-1.4c0-0.9-0.6-1.4-1.4-1.4c-0.4,0-0.8,0.1-1.1,0.4C171.7,65.3,171.7,65.5,171.7,65.8z M179.3,74h0.4
		c1.8,0,2.2-0.4,2.2-2.2v-3.4c0-1.5-0.2-2.3-2.6-2.8V74z"/>
	<path class="st3" d="M178.1,58.4c0.6-0.1,1.3-0.4,1.7-1c-1.1-0.1-2-0.9-2-2c0-1.3,1-2.2,2.3-2.2c1.4,0,2.2,1,2.2,2.2
		c0,0.8-0.4,1.8-1.3,2.5l0,0.1c2.1-0.5,3-2.3,3.1-4.5h2.7c-0.4,2.2-1.4,3.8-3.3,4.9c-1.3,0.7-3,1-5.5,1.2L178.1,58.4z M180.1,54.3
		c-0.6,0-1.1,0.4-1.1,1.1c0,0.7,0.6,1.2,1.3,1.2c0.6,0,0.9-0.6,0.9-1.2C181.2,54.8,180.8,54.3,180.1,54.3z"/>
	<path class="st3" d="M188.7,63.4c1.7-1.5,3.6-2.3,5.7-2.3c3,0,5.8,1.5,5.8,5v4.8c0,3.9-2.4,4.9-5.7,4.9c-3.4,0-5.4-1.4-5.4-4.2
		v-2.6c0-2.2,1.3-4,3.7-4c2.1,0,3,1.6,3,2.8c0,2-1.2,3-2.6,3c-0.4,0-0.9-0.1-1.3-0.2v1.4c0,1.9,1,2.7,2.7,2.7c1.8,0,2.7-0.7,2.7-2.7
		v-5.3c0-2.2-1.1-3.7-3.3-3.7c-1.6,0-3.2,0.6-4.4,1.9L188.7,63.4z M193,69.6c0.9,0,1.5-0.7,1.5-1.7c0-1-0.5-1.8-1.5-1.8
		c-0.9,0-1.3,0.8-1.3,1.8c0,0.4,0.1,0.9,0.2,1.3C192.3,69.5,192.6,69.6,193,69.6z"/>
	<path class="st3" d="M217.3,51.5h0.3v19.9c0,3.6-1.7,4.1-5.2,4.1h-6.7l0.2-1.6h1.9v-7c-0.4,0.2-0.8,0.3-1.3,0.3
		c-1.5,0-2.9-1.1-2.9-2.9c0-2.1,1.6-3.2,3.3-3.2c1.1,0,3.7,0.5,3.7,4.3v8.5h0.6c2.5,0,3.4-0.2,3.4-2.7V56.9c0-1,0-2-0.1-4.4
		L217.3,51.5z M208.3,64c0-1-0.6-1.7-1.5-1.7c-1,0-1.7,0.8-1.7,1.7c0,1.2,0.8,1.7,1.6,1.7c0.5,0,1-0.2,1.3-0.5
		C208.2,64.9,208.3,64.5,208.3,64z"/>
	<path class="st3" d="M234.6,51.5h0.3v19.9c0,3.6-1.7,4.1-5.2,4.1H223l0.2-1.6h1.9v-7c-0.4,0.2-0.8,0.3-1.3,0.3
		c-1.5,0-2.9-1.1-2.9-2.9c0-2.1,1.6-3.2,3.3-3.2c1.1,0,3.7,0.5,3.7,4.3v8.5h0.6c2.5,0,3.4-0.2,3.4-2.7V56.9c0-1,0-2-0.1-4.4
		L234.6,51.5z M225.6,64c0-1-0.6-1.7-1.5-1.7c-1,0-1.7,0.8-1.7,1.7c0,1.2,0.8,1.7,1.6,1.7c0.5,0,1-0.2,1.3-0.5
		C225.6,64.9,225.6,64.5,225.6,64z"/>
	<path class="st3" d="M230.9,53.2c3,0,4.9,2.2,4.9,4.7c0,0.7-0.2,1.4-0.4,2.1c-2.8-1.9-5.5-2.7-9.3-2.5
		C226.4,54.9,228.3,53.2,230.9,53.2z M234.7,58.4c-0.2-1.7-2.2-3.1-4-3.1c-1.2,0-2.2,0.4-2.8,1.2C230.3,56.7,232.5,57.2,234.7,58.4z
		"/>
	<path class="st3" d="M228.4,58.4c0.6-0.1,1.3-0.4,1.7-1c-1.1-0.1-2-0.9-2-2c0-1.3,1-2.2,2.3-2.2c1.4,0,2.2,1,2.2,2.2
		c0,0.8-0.4,1.8-1.3,2.5l0,0.1c2.1-0.5,3-2.3,3.1-4.5h2.7c-0.4,2.2-1.4,3.8-3.3,4.9c-1.3,0.7-3,1-5.5,1.2L228.4,58.4z M230.3,54.3
		c-0.6,0-1.1,0.4-1.1,1.1c0,0.7,0.6,1.2,1.3,1.2c0.6,0,0.9-0.6,0.9-1.2C231.5,54.8,231,54.3,230.3,54.3z"/>
	<path class="st3" d="M244.4,67c-1.5,0-3-1-3-2.8c0-1.6,1.3-3.1,3.3-3.1c1.1,0,3.7,0.4,3.7,4.2v6.6c0,2.7-0.2,3.5-2.4,3.5h-2
		c-2-2.9-5.2-6.4-7.4-7.8l1-1.4c2.5,1.8,5.7,5.1,7.3,7.5c0.5,0,0.6-0.2,0.6-1.5v-5.5C245.2,66.9,244.8,67,244.4,67z M246,64.3
		c0-1-0.5-1.9-1.5-1.9c-1,0-1.6,0.7-1.6,1.7c0,1.1,0.8,1.6,1.7,1.6c0.4,0,0.8-0.1,1.1-0.4C245.9,65,246,64.6,246,64.3z"/>
	<path class="st3" d="M266.3,61.4v11.7c0,1.7-0.3,2.4-1.6,2.4h-1.1l-3.7-5.8l-3.7,5c-0.4,0.5-0.6,0.8-1.2,0.8H253V65.1
		c0-2.2,1.5-4,3.9-4c2.3,0,3.2,1.6,3.2,2.8c0,2-1.3,3.1-2.9,3.1c-0.4,0-0.9-0.1-1.3-0.2v3.7c0,0.8-0.1,1.6-0.3,2.5l0.1,0l4.1-5.4
		h0.3l3.5,5.3l0.1,0c-0.1-0.9-0.2-1.7-0.2-2.5v-3.5c0-1,0-2-0.1-4.4l2.6-1.1H266.3z M257,65.8c0.9,0,1.6-0.7,1.6-1.7
		c0-1-0.5-1.8-1.6-1.8c-1,0-1.4,0.9-1.4,1.8c0,0.4,0.1,0.9,0.2,1.3C256.2,65.7,256.6,65.8,257,65.8z"/>
	<path class="st3" d="M264.4,59.5l-0.9-6.1h2.9l-0.8,5.6L264.4,59.5L264.4,59.5z"/>
	<path class="st3" d="M275.3,75.5v-9.1c0-2.4-1.3-3.4-2.8-3.4c-1,0-2,0.5-2.9,1.3l-0.9-1.3c1.3-1.2,2.8-1.8,4.4-1.8
		c2.7,0,5.2,1.7,5.2,5v9.4H275.3z"/>
	<path class="st3" d="M285.8,66.8c-0.4,0.1-0.9,0.2-1.3,0.2c-1.6,0-2.9-1-2.9-2.8c0-1.8,1.3-3.1,3.2-3.1c2.3,0,3.9,1.4,3.9,4.5V73
		c1.3-1.5,2.9-2.6,4.5-3.3v-2.8c0-1,0-2-0.1-4.4l2.6-1.1h0.3v7.4c0.2,0,0.4,0,0.6,0c2,0,3.3,1.4,3.3,3.3c0,2.1-1.4,3.7-3.6,3.7
		c-2,0-3.4-1.3-3.4-3.8c0-0.1,0-0.2,0-0.6c-2,1.1-3.6,2.9-4.4,4.1h-2.9V66.8z M286.2,64.3c0-1.3-0.6-1.9-1.5-1.9
		c-1,0-1.5,0.9-1.5,1.8c0,1.2,0.8,1.7,1.6,1.7c0.4,0,0.9-0.1,1.2-0.4C286.1,65.1,286.2,64.7,286.2,64.3z M296,70.4
		c-0.1,0.3-0.2,1-0.2,1.5c0,1.1,0.3,2.3,1.3,2.3c1,0,1.3-1.1,1.3-1.9c0-1-0.7-2-1.7-2C296.6,70.3,296.3,70.3,296,70.4z"/>
	<path class="st3" d="M175,110.1v-2.6c-0.4,0.2-0.8,0.3-1.3,0.3c-1.5,0-2.9-1-2.9-2.8c0-2,1.6-3.1,3.3-3.1c1.1,0,3.8,0.5,3.8,4.3
		v4.7c1.6,0.7,3.1,1.7,4.5,3v-6.2c0-1,0-2-0.1-4.4l2.6-1.1h0.3v14.1h-2.9c-1-1.5-2.8-3-4.4-3.7c0,0.2,0,0.3,0,0.5
		c0,1.3-1,3.5-3.5,3.5c-2,0-3.4-1.4-3.4-3.3c0-1.7,1.4-3.1,3.2-3.2C174.6,110.1,174.8,110.1,175,110.1z M175.5,104.7
		c0-1-0.6-1.6-1.5-1.6c-1,0-1.7,0.7-1.7,1.7c0,1.2,0.8,1.7,1.6,1.7c0.5,0,1-0.2,1.3-0.5C175.5,105.6,175.5,105.2,175.5,104.7z
		 M174.6,111.5c-1,0-1.9,0.7-1.9,2c0,0.9,0.5,1.5,1.2,1.5c1,0,1.4-1,1.4-2c0-0.5,0-1-0.3-1.4C174.9,111.5,174.7,111.5,174.6,111.5z"
		/>
	<path class="st3" d="M180.2,94.1v-2.3l1.5-0.7h0.3v2.9c0.6,0.1,1.1,0.2,1.5,0.4v-2.7l1.5-0.7h0.3v4.8c0.6,0.8,0.9,1.8,0.9,2.8
		c0,0.7-0.2,1.4-0.4,2.1c-2.8-1.9-5.5-2.7-9.3-2.5C176.7,96,178.1,94.5,180.2,94.1z M185,99.2c-0.2-1.7-2.2-3.1-4-3.1
		c-1.2,0-2.2,0.4-2.8,1.2C180.7,97.5,182.8,98,185,99.2z"/>
	<path class="st3" d="M189.3,104.2c1.7-1.5,3.6-2.3,5.7-2.3c3,0,5.8,1.5,5.8,5v4.8c0,3.9-2.4,4.9-5.7,4.9c-3.4,0-5.4-1.4-5.4-4.2
		v-2.6c0-2.2,1.3-4,3.7-4c2.1,0,3,1.6,3,2.8c0,2-1.2,3-2.6,3c-0.4,0-0.9-0.1-1.3-0.2v1.4c0,1.9,1,2.7,2.7,2.7c1.8,0,2.7-0.7,2.7-2.7
		v-5.3c0-2.2-1.1-3.7-3.3-3.7c-1.6,0-3.2,0.6-4.4,1.9L189.3,104.2z M193.5,110.4c0.9,0,1.5-0.7,1.5-1.7c0-1-0.5-1.8-1.5-1.8
		c-0.9,0-1.3,0.8-1.3,1.8c0,0.4,0.1,0.9,0.2,1.3C192.9,110.3,193.2,110.4,193.5,110.4z"/>
	<path class="st3" d="M214,111.7v-4.3c0-3.4-1.9-4.1-3.3-4.1c-1.4,0-2.5,0.7-2.9,2.2l3.2,0.5l-0.5,1.3c-1.6,0.2-2.2,1.1-2.2,2.7v1
		c0.4-0.3,1-0.4,1.5-0.4c1.6,0,2.5,1.2,2.5,2.9c0,1.8-1.3,3.1-3.1,3.1c-2.2,0-3.6-1.5-3.6-4.4v-1.8c0-1.6,0.5-2.6,2.3-3.4v-0.1
		l-3-0.4c0.2-2,1.7-4.6,6.1-4.6c2.1,0,5.9,0.7,5.9,5.2v8.4l-2.3,1h-0.6C214,114.2,214,112.7,214,111.7z M208.1,113.4
		c0,1.1,0.4,1.8,1.4,1.8c0.9,0,1.5-0.8,1.5-1.7c0-1.2-0.8-1.7-1.5-1.7c-0.5,0-1,0.2-1.3,0.6C208.1,112.8,208.1,113.1,208.1,113.4z"
		/>
	<path class="st3" d="M211.8,94.1v-2.3l1.5-0.7h0.3v2.9c0.6,0.1,1.1,0.2,1.5,0.4v-2.7l1.5-0.7h0.3v4.8c0.6,0.8,0.9,1.8,0.9,2.8
		c0,0.7-0.2,1.4-0.4,2.1c-2.8-1.9-5.5-2.7-9.3-2.5C208.3,96,209.7,94.5,211.8,94.1z M216.6,99.2c-0.2-1.7-2.2-3.1-4-3.1
		c-1.2,0-2.2,0.4-2.8,1.2C212.2,97.5,214.4,98,216.6,99.2z"/>
	<path class="st3" d="M220.9,104.2c1.7-1.5,3.6-2.3,5.7-2.3c3,0,5.8,1.5,5.8,5v4.8c0,3.9-2.4,4.9-5.7,4.9c-3.4,0-5.4-1.4-5.4-4.2
		v-2.6c0-2.2,1.3-4,3.7-4c2.1,0,3,1.6,3,2.8c0,2-1.2,3-2.6,3c-0.4,0-0.9-0.1-1.3-0.2v1.4c0,1.9,1,2.7,2.7,2.7c1.8,0,2.7-0.7,2.7-2.7
		v-5.3c0-2.2-1.1-3.7-3.3-3.7c-1.6,0-3.2,0.6-4.4,1.9L220.9,104.2z M225.1,110.4c0.9,0,1.5-0.7,1.5-1.7c0-1-0.5-1.8-1.5-1.8
		c-0.9,0-1.3,0.8-1.3,1.8c0,0.4,0.1,0.9,0.2,1.3C224.4,110.3,224.8,110.4,225.1,110.4z"/>
	<path class="st3" d="M240,107.6c-0.3,0.1-0.7,0.2-1.2,0.2c-1.5,0-3-1-3-2.8c0-1.6,1.3-3.1,3.3-3.1c1.1,0,3.7,0.4,3.7,4.2v3.9
		c0,0.8,0,1.7-0.1,2.4l0.1,0c1.8-3.1,3.1-4.6,4.8-5.8c-0.9-0.5-1.4-1.4-1.4-2.3c0-1.6,1.5-2.9,3.1-2.9c1.5,0,2.9,1.2,2.9,2.7
		c0,0.9-0.4,1.8-1.1,2.3c0.2,0.2,0.3,0.4,0.3,0.8v8.8h-2.9v-8.5c-1.9,1.2-4.1,4.4-5.8,8.5H240V107.6z M240.5,105.1
		c0-1-0.5-1.9-1.5-1.9c-1,0-1.6,0.7-1.6,1.7c0,1.1,0.8,1.6,1.7,1.6c0.4,0,0.8-0.1,1.1-0.4C240.4,105.8,240.5,105.4,240.5,105.1z
		 M250.7,104.3c0-0.7-0.6-1.4-1.5-1.4c-1,0-1.5,0.7-1.5,1.4c0,0.9,0.8,1.7,1.7,1.8C250.2,105.8,250.7,105.1,250.7,104.3z"/>
	<path class="st3" d="M254.3,105.9c0-3.2,2.2-4.6,4.1-4.6c1.2,0,2.1,0.4,2.9,0.8c0.6,0.3,1.2,0.5,1.7,0.5c0.6,0,1.1-0.4,1.4-0.8
		l0.8,1.1c-0.9,1.3-1.8,1.6-2.9,1.6c-1.1,0-1.9-0.3-2.8-0.6c-0.7-0.3-1.5-0.5-2.2-0.5c-0.7,0-1.2,0.4-1.2,0.9c0,0.1,0,0.3,0.1,0.5
		c3.6,0.3,5.8,0.6,7,1.5c1.1,0.8,1.2,1.6,1.2,3.4v2.9c0,2.3-1.5,3.9-3.8,3.9c-1.8,0-3.2-1.2-3.2-3c0-1.8,1.3-3.1,3-3.1
		c0.4,0,0.8,0.1,1.2,0.2v-1.5c0-1.9-1-2.6-7.2-3C254.3,106.1,254.3,106,254.3,105.9z M260.6,111.7c-1,0-1.6,0.8-1.6,1.8
		c0,1.2,0.8,1.8,1.6,1.8c0.7,0,1.5-0.6,1.5-2c0-0.4-0.1-0.7-0.2-1.1C261.5,111.9,261,111.7,260.6,111.7z"/>
	<path class="st3" d="M258.9,94.1v-2.3l1.5-0.7h0.3v2.9c0.6,0.1,1.1,0.2,1.5,0.4v-2.7l1.5-0.7h0.3v4.8c0.6,0.8,0.9,1.8,0.9,2.8
		c0,0.7-0.2,1.4-0.4,2.1c-2.8-1.9-5.5-2.7-9.3-2.5C255.3,96,256.7,94.5,258.9,94.1z M263.6,99.2c-0.2-1.7-2.2-3.1-4-3.1
		c-1.2,0-2.2,0.4-2.8,1.2C259.3,97.5,261.4,98,263.6,99.2z"/>
	<path class="st3" d="M267.9,104.2c1.7-1.5,3.6-2.3,5.7-2.3c3,0,5.8,1.5,5.8,5v4.8c0,3.9-2.4,4.9-5.7,4.9c-3.4,0-5.4-1.4-5.4-4.2
		v-2.6c0-2.2,1.3-4,3.7-4c2.1,0,3,1.6,3,2.8c0,2-1.2,3-2.6,3c-0.4,0-0.9-0.1-1.3-0.2v1.4c0,1.9,1,2.7,2.7,2.7c1.8,0,2.7-0.7,2.7-2.7
		v-5.3c0-2.2-1.1-3.7-3.3-3.7c-1.6,0-3.2,0.6-4.4,1.9L267.9,104.2z M272.1,110.4c0.9,0,1.5-0.7,1.5-1.7c0-1-0.5-1.8-1.5-1.8
		c-0.9,0-1.3,0.8-1.3,1.8c0,0.4,0.1,0.9,0.2,1.3C271.5,110.3,271.8,110.4,272.1,110.4z"/>
	<path class="st3" d="M183.7,141.2c-0.1,1.3-0.8,2.3-1.8,3.2c0.8,0.8,1.3,1.9,1.3,3.3v9.4h-2.9v-6.9c-0.9-1-2.3-1.6-3.4-1.6
		c-1.1,0-2.2,0.6-2.2,2.4c0,0.3,0,0.5,0.1,0.8c0.4-0.2,0.9-0.4,1.4-0.4c1.6,0,2.5,1.2,2.5,2.9c0,1.8-1.3,3.1-3.1,3.1
		c-2.2,0-3.7-1.5-3.7-4.4v-1c0-4.4,3.6-4.8,4.9-4.8c1.2,0,2.5,0.4,3.6,1.1V148c0-0.8-0.2-1.6-0.5-2.2c-0.5,0.3-1.1,0.6-1.6,0.8
		l-0.8-0.5v-0.1c0.5-0.3,1.1-0.7,1.7-1.2c-0.5-0.4-1.2-0.6-2-0.6c-1.6,0-3.1,0.7-4.3,1.8l-1-1.2c1.7-1.5,3.4-2.2,5.5-2.2
		c1,0,2,0.2,3,0.6c0.4-0.6,0.6-1.3,0.6-2.1H183.7z M174.5,154.2c0,1.1,0.4,1.8,1.4,1.8c0.9,0,1.5-0.8,1.5-1.7c0-1.2-0.8-1.7-1.5-1.7
		c-0.5,0-1,0.2-1.3,0.6C174.5,153.6,174.5,153.9,174.5,154.2z"/>
	<path class="st3" d="M191.1,150.9v-2.6c-0.4,0.2-0.8,0.3-1.3,0.3c-1.5,0-2.9-1-2.9-2.8c0-2,1.6-3.1,3.3-3.1c1.1,0,3.8,0.5,3.8,4.3
		v4.7c1.6,0.7,3.1,1.7,4.5,3v-6.2c0-1,0-2-0.1-4.4l2.6-1.1h0.3v14.1h-2.9c-1-1.5-2.8-3-4.4-3.7c0,0.2,0,0.3,0,0.5
		c0,1.3-1,3.5-3.5,3.5c-2,0-3.4-1.4-3.4-3.3c0-1.7,1.4-3.1,3.2-3.2C190.6,150.9,190.8,150.9,191.1,150.9z M191.5,145.5
		c0-1-0.6-1.6-1.5-1.6c-1,0-1.7,0.7-1.7,1.7c0,1.2,0.8,1.7,1.6,1.7c0.5,0,1-0.2,1.3-0.5C191.5,146.4,191.5,146,191.5,145.5z
		 M190.6,152.3c-1,0-1.9,0.7-1.9,2c0,0.9,0.5,1.5,1.2,1.5c1,0,1.4-1,1.4-2c0-0.5,0-1-0.3-1.4C190.9,152.3,190.8,152.3,190.6,152.3z"
		/>
	<path class="st3" d="M210.3,157.1V148c0-2.4-1.3-3.4-2.8-3.4c-1,0-2,0.5-2.9,1.3l-0.9-1.3c1.3-1.2,2.8-1.8,4.4-1.8
		c2.7,0,5.2,1.7,5.2,5v9.4H210.3z"/>
	<path class="st3" d="M216.2,146.7c0-3.2,2.2-4.6,4.1-4.6c1.2,0,2.1,0.4,2.9,0.8c0.6,0.3,1.2,0.5,1.7,0.5c0.6,0,1.1-0.4,1.4-0.8
		l0.8,1.1c-0.9,1.3-1.8,1.6-2.9,1.6c-1.1,0-1.9-0.3-2.8-0.6c-0.7-0.3-1.5-0.5-2.2-0.5c-0.7,0-1.2,0.4-1.2,0.9c0,0.1,0,0.3,0.1,0.5
		c3.6,0.3,5.8,0.6,7,1.5c1.1,0.8,1.2,1.6,1.2,3.4v2.9c0,2.3-1.5,3.9-3.8,3.9c-1.8,0-3.2-1.2-3.2-3c0-1.8,1.3-3.1,3-3.1
		c0.4,0,0.8,0.1,1.2,0.2v-1.5c0-1.9-1-2.6-7.2-3C216.2,146.9,216.2,146.8,216.2,146.7z M222.4,152.5c-1,0-1.6,0.8-1.6,1.8
		c0,1.2,0.8,1.8,1.6,1.8c0.7,0,1.5-0.6,1.5-2c0-0.4-0.1-0.7-0.2-1.1C223.3,152.7,222.8,152.5,222.4,152.5z"/>
	<path class="st3" d="M226.5,136.7c-0.7-0.5-1.3-0.6-1.9-0.6c-1.4,0-2.2,1.1-2.2,2.1c0,0.7,0.4,1.6,1.5,1.8
		c-0.3-0.3-0.4-0.7-0.4-1.1c0-0.8,0.7-1.6,1.6-1.6c0.9,0,1.6,0.7,1.6,1.6c0,1.4-1.4,2-2.6,2c-2,0-3.7-1.2-3.7-3.2c0-1.9,1.7-3,3.5-3
		c0.6,0,1.2,0.1,1.8,0.4l0.6-3.7h2.7L226.5,136.7z M225.7,139.1c0-0.4-0.3-0.7-0.7-0.7c-0.4,0-0.8,0.3-0.8,0.8c0,0.3,0.1,0.6,0.5,1
		C225.4,140,225.7,139.6,225.7,139.1z"/>
	<path class="st3" d="M233.2,148.4c-0.4,0.2-0.8,0.3-1.3,0.3c-1.6,0-2.8-1.2-2.8-2.9c0-1.9,1.4-3.1,3.3-3.1c1,0,3.6,0.4,3.6,4.2v2.3
		c0,0.6-0.1,1.9-0.1,2.5l0.1,0c1.4-3.3,2.1-5.4,2.5-6.2c0.8-1.7,1.6-2.8,3.1-2.8c1.7,0,3,1.4,3,3.6v10.8h-2.9v-10.5
		c0-1.3-0.3-1.7-0.7-1.7c-0.5,0-0.8,0.4-1.4,1.7c-0.8,1.8-1.8,4.7-3.8,10.5h-2.6V148.4z M233.7,145.6c0-1.1-0.7-1.7-1.5-1.7
		c-1,0-1.6,0.7-1.6,1.7c0,1.2,0.7,1.7,1.6,1.7c0.5,0,1-0.2,1.4-0.5C233.6,146.5,233.7,146.1,233.7,145.6z"/>
	<path class="st3" d="M247.9,133.1c2,0,3.6,1.3,4.6,1.3c0.4,0,1-0.2,1.5-0.7l0.7,1.1c-0.8,1.1-1.8,1.5-2.9,1.5c-1.8,0-3.2-1.1-5-1.1
		c-0.5,0-1.1,0.2-1.1,1.2c0,0.1,0,0.2,0,0.3c6.8,0.2,6.6,2.4,6.6,5.1v10c0.4-0.2,1-0.4,1.5-0.4c1.6,0,2.8,1.2,2.8,2.9
		c0,1.8-1.3,3.2-3.2,3.2c-2.3,0-3.9-1.5-3.9-4.3v-11.5c0-2.9-0.4-3.5-5.6-3.6C243.7,135.2,245.3,133.1,247.9,133.1z M252.1,154.1
		c0,1.3,0.5,1.9,1.5,1.9c0.9,0,1.5-0.9,1.5-1.8c0-1.2-0.8-1.7-1.6-1.7c-0.5,0-1,0.2-1.3,0.6C252.1,153.4,252.1,153.7,252.1,154.1z"
		/>
	<path class="st3" d="M274.8,157.1H273l-3.4-10l-2.7,8.3c-0.3,1-0.7,1.7-1.9,1.7H263v-8.6c-0.4,0.2-0.8,0.3-1.3,0.3
		c-1.5,0-2.9-1.1-2.9-2.9c0-2.1,1.6-3.2,3.3-3.2c1.1,0,3.7,0.5,3.7,4.3v3.9c0,1.5-0.1,2.5-0.2,3.5l0.1,0l3.6-10.9h0.6l3.7,10.9
		l0.1,0c-0.1-1-0.2-2-0.2-3.5v-12.3c0-1,0-2-0.1-4.4l2.6-1.1h0.3v21.7C276.4,156.4,276.1,157.1,274.8,157.1z M263.4,145.6
		c0-1-0.6-1.7-1.5-1.7c-1,0-1.7,0.8-1.7,1.7c0,1.2,0.8,1.7,1.6,1.7c0.5,0,1-0.2,1.3-0.5C263.4,146.5,263.4,146.1,263.4,145.6z"/>
	<path class="st3" d="M283.9,148.4c-0.4,0.1-0.8,0.2-1.3,0.2c-1.6,0-2.9-1-2.9-2.8c0-1.8,1.3-3.1,3.2-3.1c2.3,0,3.9,1.4,3.9,4.5v7.4
		c1.3-1.5,2.9-2.6,4.5-3.3v-2.8c0-1,0-2-0.1-4.4l2.6-1.1h0.3v7.4c0.2,0,0.4,0,0.6,0c2,0,3.3,1.4,3.3,3.3c0,2.1-1.4,3.7-3.6,3.7
		c-2,0-3.4-1.3-3.4-3.8c0-0.1,0-0.2,0-0.6c-2,1.1-3.6,2.9-4.4,4.1h-2.9V148.4z M284.3,145.9c0-1.3-0.6-1.9-1.5-1.9
		c-1,0-1.5,0.9-1.5,1.8c0,1.2,0.8,1.7,1.6,1.7c0.4,0,0.9-0.1,1.2-0.4C284.3,146.7,284.3,146.3,284.3,145.9z M294.1,152
		c-0.1,0.3-0.2,1-0.2,1.5c0,1.1,0.3,2.3,1.3,2.3c1,0,1.3-1.1,1.3-1.9c0-1-0.7-2-1.7-2C294.7,151.9,294.5,151.9,294.1,152z"/>
</g>
</svg>