<!-- Generator: Adobe Illustrator 19.0.0, SVG Export Plug-In  -->
<svg version="1.1"
	 xmlns="http://www.w3.org/2000/svg" xmlns:xlink="http://www.w3.org/1999/xlink" xmlns:a="http://ns.adobe.com/AdobeSVGViewerExtensions/3.0/"
	 x="0px" y="0px" width="218.1px" height="168px" viewBox="0 0 218.1 168" style="enable-background:new 0 0 218.1 168;"
	 xml:space="preserve">
<style type="text/css">
	.st0{fill:#FF6633;}
	.st1{fill:#FFFFFF;}
</style>
<defs>
</defs>
<path class="st0" d="M10.4,0h197.3c5.7,0,10.4,3.5,10.4,7.7v116.8v12.1V168l-38-23.7H10.4c-5.7,0-10.4-3.5-10.4-7.7V7.7
	C0,3.5,4.7,0,10.4,0"/>
<g>
	<path class="st1" d="M41.9,106.3v-7.4H29.3v-2.4l12.1-17.3h4V96h3.8v2.9h-3.8v7.4H41.9z M41.9,96v-9.1c0-1.4,0-2.8,0.1-4.3h-0.1
		c-0.8,1.6-1.5,2.8-2.3,4L33,95.9V96H41.9z"/>
	<path class="st1" d="M70,92.4c0,9.2-3.4,14.3-9.4,14.3c-5.3,0-8.9-5-9-14c0-9.1,3.9-14.1,9.4-14.1C66.8,78.7,70,83.8,70,92.4z
		 M55.3,92.8c0,7.1,2.2,11.1,5.5,11.1c3.8,0,5.6-4.4,5.6-11.3c0-6.7-1.7-11.1-5.5-11.1C57.6,81.5,55.3,85.4,55.3,92.8z"/>
	<path class="st1" d="M85.6,86.8c0,5.7-3,8.6-6.5,8.6c-3.4,0-6.3-2.7-6.4-8.2c0-5.4,3-8.5,6.6-8.5C83.1,78.7,85.6,81.6,85.6,86.8z
		 M75.7,87c-0.1,3.5,1.2,6.1,3.5,6.1c2.4,0,3.5-2.6,3.5-6.2c0-3.3-1-6.1-3.5-6.1C76.9,80.9,75.7,83.6,75.7,87z M78.9,106.7l16-28.1
		h2.3l-16,28.1H78.9z M103.3,98c0,5.7-3,8.6-6.5,8.6c-3.4,0-6.3-2.7-6.4-8.1c0-5.5,3-8.5,6.6-8.5C100.9,89.9,103.3,92.8,103.3,98z
		 M93.4,98.3c0,3.5,1.3,6.1,3.6,6.1c2.4,0,3.5-2.6,3.5-6.2c0-3.3-1-6.1-3.5-6.1C94.6,92.1,93.4,94.8,93.4,98.3z"/>
</g>
<g>
	<path class="st1" d="M17.3,53.1c0.4-0.2,0.8-0.3,1.2-0.3c1.3,0,2.3,1,2.3,2.4c0,1.5-1.1,2.6-2.7,2.6c-1.9,0-3.2-1.2-3.2-3.6v-3.5
		c0-1.3,0-2.5-0.1-3.9l2-0.9h0.4V53.1z M17,55c0,1.1,0.4,1.6,1.3,1.6c0.8,0,1.3-0.7,1.3-1.5c0-1-0.7-1.4-1.3-1.4
		c-0.4,0-0.8,0.2-1.1,0.5C17.1,54.4,17,54.7,17,55z"/>
	<path class="st1" d="M21.7,47.5c1.4-1.2,2.7-1.8,4.5-1.8c2.5,0,4.8,1.3,4.8,4.1v4.8c0,1.9-1.2,3.2-3.1,3.2c-1.5,0-2.7-1-2.7-2.4
		c0-1.5,1.1-2.5,2.4-2.5c0.3,0,0.7,0.1,1,0.2V50c0-1.8-1-3.1-2.7-3.1c-1.3,0-2.5,0.6-3.4,1.5L21.7,47.5z M27.9,53.8
		c-0.8,0-1.3,0.7-1.3,1.5c0,1,0.6,1.5,1.3,1.5c0.6,0,1.2-0.5,1.2-1.6c0-0.3-0.1-0.6-0.1-0.9C28.6,53.9,28.2,53.8,27.9,53.8z"/>
	<path class="st1" d="M28.3,42.3c0.3-0.9,1.1-1.1,1.4-1.1c1,0,1.6,0.7,1.6,1.5c0,0.9-0.7,1.6-1.7,1.6c-1.2,0-1.6-1.1-2.8-1.7v1.1
		l-0.6,0.4c-1.5-1-2.1-2-2.1-3c0-1.4,0.8-2.6,2.4-2.6c1.5,0,2.9,1.2,3.6,1.2c0.4,0,0.7-0.3,0.9-0.9l0.7,0.6
		c-0.2,0.8-0.8,1.3-1.6,1.3c-0.9,0-2.1-0.6-3.4-0.6c-1,0-1.5,0.6-1.5,1.4c0,0.5,0.3,1,0.8,1.4l0,0v-1.6l0.4-0.4
		C27.3,41.6,27.7,41.8,28.3,42.3z M29.7,43.7c0.4,0,0.8-0.4,0.8-0.8c0-0.4-0.3-0.8-0.8-0.8c-0.6,0-0.9,0.5-0.8,1.1
		C29.2,43.6,29.5,43.7,29.7,43.7z"/>
	<path class="st1" d="M36,50.7c-1.2,0-2.4-0.9-2.4-2.4c0-1.7,1.3-2.7,2.7-2.7c0.9,0,3.1,0.4,3.1,3.6v7h0.5c2.1,0,2.8-0.1,2.8-2.2
		v-3.6c0-0.8,0-1.7-0.1-3.6l2.2-0.9h0.3v8.2c0,2.9-1.4,3.4-4.3,3.4h-5.5l0.2-1.3H37v-5.8C36.7,50.6,36.3,50.7,36,50.7z M37.4,48
		c0-0.8-0.5-1.4-1.2-1.4c-0.8,0-1.4,0.6-1.4,1.4c0,1,0.6,1.4,1.3,1.4c0.4,0,0.8-0.2,1.1-0.4C37.3,48.8,37.4,48.4,37.4,48z"/>
	<path class="st1" d="M52.7,52.8c1.3,0,2.3,1,2.3,2.4c0,1.5-1.1,2.6-2.6,2.6c-1.9,0-3.2-1.2-3.2-3.6V40.7c0-1-0.3-1.1-0.4-1.1
		c-0.3,0.8-0.7,2-1.6,4.5h-0.6c-0.9-2.7-1.3-3.8-1.6-4.3c-0.2-0.4-0.4-0.4-0.7-0.4v-1.7h0.5c1.3,0,1.3,0,2.4,3.2h0.1
		c0.7-1.9,0.9-2.6,1.1-3.2h0.1c1.4,0,3.1,0.5,3.1,3.1v12.2C51.8,52.9,52.3,52.8,52.7,52.8z M51.2,55c0,1.1,0.4,1.6,1.3,1.6
		c0.8,0,1.3-0.7,1.3-1.5c0-1-0.7-1.4-1.3-1.4c-0.4,0-0.8,0.2-1.1,0.5C51.2,54.4,51.2,54.7,51.2,55z"/>
	<path class="st1" d="M61.9,46.8c-0.1,0-0.3,0.3-1.1,1.2h-0.3c-1-1.1-1.1-1.3-1.2-1.3c-0.3,0-1,0.8-1,2c0,0.2,0,0.4,0.1,0.6
		c0.5-0.7,1-1,1.7-1c1.2,0,2,0.9,2,2c0,1.3-1.1,2-2.2,2c-1.9,0-3-1.7-3-3.4c0-2.1,1.6-3.4,2.8-3.4c0.1,0,0.3,0.3,1.1,1.1h0.1
		c0.8-0.9,1-1.1,1-1.1c0.8,0,3.2,0.5,3.4,2.7c1.7-0.4,2.2-1.7,2.3-3.2h2.4c-0.2,1.9-1.3,3-2.9,3.6v0c2.4,0.4,2.7,1.8,2.7,3.1v3
		c0,2.5-1.7,2.7-3.7,2.7h-4.9l0.2-1.2h1.6v-7.5C62.8,47.1,62,46.8,61.9,46.8z M59.9,51.5c0.6,0,1.1-0.4,1.1-1.1
		c0-0.6-0.5-1.1-1.1-1.1c-0.6,0-1.2,0.6-1.2,1.3C58.8,51.2,59.3,51.5,59.9,51.5z M65.5,56.3c1.5,0,1.8-0.4,1.8-1.8v-2.8
		c0-1.3-0.2-1.9-2.2-2.3v6.9H65.5z"/>
	<path class="st1" d="M75.4,57.5c-0.1-1-0.7-2-1.3-3.1c-0.6-1.2-1.3-2.5-1.3-3.9c0-3.1,2.5-4.6,4.5-4.6c0.3,0,0.3,0,1.6,1.1H79
		c1.2-0.9,1.3-1.1,1.5-1.1c0.8,0,4.3,0.2,4.3,4.4v7.2h-2.4V50c0-2.7-1.4-2.9-1.5-2.9s-0.9,0.6-1.9,1.5h-0.1c-1.2-0.9-1.9-1.5-2-1.5
		c-0.3,0-1.7,1-1.7,3.1c0,1,0.4,2,0.7,3c0.3,0.8,0.6,1.6,0.8,2.4h0.1c0.3-0.7,0.8-1.4,1.6-2.3c-1.1-0.3-1.8-1-1.8-2.1
		c0-1.4,1.1-2.2,2.4-2.2c1.3,0,2.4,0.9,2.4,2.4c0,1.2-0.8,2.2-1.6,3.2c-0.7,0.9-1.5,1.8-2,2.9H75.4z M80.2,51c0-0.6-0.5-1.1-1.2-1.1
		c-0.9,0-1.3,0.6-1.3,1.2c0,1.1,0.9,1.4,1.5,1.4C79.3,52.5,80.2,51.8,80.2,51z"/>
	<path class="st1" d="M85.4,40.7c-0.6-0.4-1.1-0.5-1.6-0.5c-1.1,0-1.8,0.9-1.8,1.8c0,0.6,0.3,1.3,1.2,1.5c-0.2-0.3-0.3-0.6-0.3-0.9
		c0-0.7,0.6-1.3,1.3-1.3c0.7,0,1.3,0.6,1.3,1.3c0,1.2-1.1,1.7-2.1,1.7c-1.6,0-3.1-1-3.1-2.6c0-1.5,1.4-2.4,2.9-2.4
		c0.5,0,1,0.1,1.5,0.3l0.5-3.1h2.2L85.4,40.7z M84.8,42.7c0-0.3-0.2-0.6-0.6-0.6s-0.7,0.3-0.7,0.7c0,0.3,0.1,0.5,0.4,0.8
		C84.5,43.4,84.8,43.1,84.8,42.7z"/>
	<path class="st1" d="M90.5,57.5c-0.1-1-0.7-2-1.3-3.1c-0.6-1.2-1.3-2.5-1.3-3.9c0-3.1,2.5-4.6,4.5-4.6c0.3,0,0.3,0,1.6,1.1h0.1
		c1.2-0.9,1.3-1.1,1.5-1.1c0.8,0,4.3,0.2,4.3,4.4v7.2h-2.4V50c0-2.7-1.4-2.9-1.5-2.9s-0.9,0.6-1.9,1.5h-0.1c-1.2-0.9-1.9-1.5-2-1.5
		c-0.3,0-1.7,1-1.7,3.1c0,1,0.4,2,0.7,3c0.3,0.8,0.6,1.6,0.8,2.4H92c0.3-0.7,0.8-1.4,1.6-2.3c-1.1-0.3-1.8-1-1.8-2.1
		c0-1.4,1.1-2.2,2.4-2.2c1.3,0,2.4,0.9,2.4,2.4c0,1.2-0.8,2.2-1.6,3.2c-0.7,0.9-1.5,1.8-2,2.9H90.5z M95.3,51c0-0.6-0.5-1.1-1.2-1.1
		c-0.9,0-1.3,0.6-1.3,1.2c0,1.1,0.9,1.4,1.5,1.4C94.5,52.5,95.3,51.8,95.3,51z"/>
	<path class="st1" d="M98.4,44.4l-0.7-5h2.4L99.5,44L98.4,44.4L98.4,44.4z"/>
	<path class="st1" d="M107.4,57.5V50c0-2-1.1-2.8-2.3-2.8c-0.8,0-1.6,0.4-2.4,1l-0.8-1.1c1.1-1,2.3-1.5,3.6-1.5
		c2.2,0,4.3,1.4,4.3,4.1v7.7H107.4z"/>
	<path class="st1" d="M117.6,50.5c-1.2,0-2.5-0.8-2.5-2.3c0-1.3,1.1-2.5,2.7-2.5c0.9,0,3.1,0.3,3.1,3.5v5.5c0,2.2-0.2,2.9-2,2.9
		h-1.6c-1.6-2.4-4.3-5.2-6.1-6.4l0.8-1.1c2.1,1.5,4.7,4.2,6,6.2c0.4,0,0.5-0.2,0.5-1.2v-4.6C118.2,50.4,117.9,50.5,117.6,50.5z
		 M118.9,48.2c0-0.8-0.4-1.5-1.2-1.5c-0.8,0-1.3,0.6-1.3,1.4c0,0.9,0.7,1.3,1.4,1.3c0.3,0,0.6-0.1,0.9-0.3
		C118.8,48.9,118.9,48.6,118.9,48.2z"/>
	<path class="st1" d="M134.9,37.7h0.3v16.4c0,2.9-1.4,3.4-4.3,3.4h-5.5l0.2-1.3h1.6v-5.8c-0.3,0.2-0.7,0.2-1,0.2
		c-1.2,0-2.4-0.9-2.4-2.4c0-1.7,1.3-2.7,2.7-2.7c0.9,0,3.1,0.4,3.1,3.6v7h0.5c2.1,0,2.8-0.1,2.8-2.2V42.2c0-0.8,0-1.7-0.1-3.6
		L134.9,37.7z M127.5,48c0-0.8-0.5-1.4-1.2-1.4c-0.8,0-1.4,0.6-1.4,1.4c0,1,0.6,1.4,1.3,1.4c0.4,0,0.8-0.2,1.1-0.4
		C127.4,48.8,127.5,48.4,127.5,48z"/>
	<path class="st1" d="M137.6,48.9c0-2.6,1.8-3.8,3.4-3.8c1,0,1.7,0.4,2.4,0.7c0.5,0.3,1,0.4,1.4,0.4c0.5,0,0.9-0.3,1.2-0.7l0.6,0.9
		c-0.8,1-1.5,1.3-2.4,1.3c-0.9,0-1.6-0.3-2.3-0.5c-0.6-0.2-1.2-0.4-1.8-0.4c-0.6,0-1,0.3-1,0.8c0,0.1,0,0.3,0.1,0.4
		c2.9,0.3,4.8,0.5,5.8,1.2c0.9,0.7,1,1.3,1,2.8v2.4c0,1.9-1.2,3.2-3.1,3.2c-1.5,0-2.7-1-2.7-2.4c0-1.5,1.1-2.5,2.4-2.5
		c0.3,0,0.7,0.1,1,0.2v-1.2c0-1.6-0.8-2.1-5.9-2.4C137.6,49.1,137.6,49,137.6,48.9z M142.7,53.8c-0.8,0-1.3,0.7-1.3,1.5
		c0,1,0.6,1.5,1.3,1.5c0.6,0,1.2-0.5,1.2-1.6c0-0.3-0.1-0.6-0.1-0.9C143.5,53.9,143,53.8,142.7,53.8z"/>
	<path class="st1" d="M158.2,46.3c-0.8,3.2-2.9,4.8-5.6,4.8c-1.9,0-3.8-0.9-3.8-2.9c0-1.3,0.9-2.2,2.3-2.2c1.4,0,2.2,1,2.2,2
		c0,0.6-0.2,1.4-1,1.9v0.1c2,0.2,3.1-1,3.5-3.7H158.2z M158.2,52.9c-0.8,3.2-2.9,4.8-5.6,4.8c-1.9,0-3.8-0.9-3.8-2.9
		c0-1.3,0.9-2.2,2.3-2.2c1.4,0,2.2,1,2.2,2c0,0.6-0.2,1.4-1,1.9v0.1c2,0.2,3.1-1,3.5-3.7H158.2z M151,49.7c0.9-0.3,1.1-0.9,1.1-1.5
		c0-0.6-0.5-1.1-1-1.1c-0.7,0-1.1,0.5-1.1,1.1C149.9,48.7,150.2,49.4,151,49.7z M151,56.3c0.9-0.3,1.1-0.9,1.1-1.5
		c0-0.6-0.5-1.1-1-1.1c-0.7,0-1.1,0.5-1.1,1.1C149.9,55.3,150.2,56,151,56.3z"/>
	<path class="st1" d="M163.5,53.1c0.4-0.2,0.8-0.3,1.2-0.3c1.3,0,2.3,1,2.3,2.4c0,1.5-1.1,2.6-2.7,2.6c-1.9,0-3.2-1.2-3.2-3.6v-3.5
		c0-1.3,0-2.5-0.1-3.9l2-0.9h0.4V53.1z M163.3,55c0,1.1,0.4,1.6,1.3,1.6c0.8,0,1.3-0.7,1.3-1.5c0-1-0.7-1.4-1.3-1.4
		c-0.4,0-0.8,0.2-1.1,0.5C163.3,54.4,163.3,54.7,163.3,55z"/>
	<path class="st1" d="M172.2,50.3c-0.3,0.1-0.7,0.2-1,0.2c-1.3,0-2.3-1-2.3-2.4c0-1.6,1.1-2.5,2.7-2.5c0.8,0,3,0.3,3,3.4V51
		c0,0.5-0.1,1.5-0.1,2l0.1,0c1.1-2.7,1.7-4.4,2.1-5.1c0.7-1.4,1.3-2.3,2.5-2.3c1.4,0,2.4,1.2,2.4,3v8.9h-2.4v-8.7
		c0-1-0.3-1.4-0.6-1.4c-0.4,0-0.6,0.3-1.1,1.4c-0.7,1.5-1.5,3.9-3.2,8.7h-2.1V50.3z M172.6,48.1c0-0.9-0.6-1.4-1.2-1.4
		c-0.8,0-1.3,0.6-1.3,1.4c0,1,0.6,1.4,1.3,1.4c0.4,0,0.8-0.2,1.1-0.4C172.5,48.8,172.6,48.4,172.6,48.1z"/>
	<path class="st1" d="M194.5,50.4c0-0.9-0.2-1.7-0.6-2.2c-0.3,0.2-0.7,0.3-1,0.4l-0.7-0.4v-0.1c0.3-0.2,0.7-0.4,1-0.7
		c-0.6-0.4-1.4-0.7-2.2-0.7c-2.2,0-3.5,1.4-3.5,3.9c0,0.9,0.3,2,0.6,2.8h0.1c0.2-1.7,0.5-2.8,1-3.6s1.3-1.1,2.1-1.1
		c1.3,0,2.3,1,2.3,2.2c0,1.5-1,2.5-2.4,2.5c-0.3,0-0.7-0.1-1-0.2c-0.5,1.3-0.8,3.1-0.8,4.2h-2.4c0-1.1-0.5-2.2-1-3.3
		c-0.5-1.2-1-2.4-1-3.7c0-3.1,2.6-4.8,6-4.8c1.3,0,2.4,0.2,3.2,0.6c0.3-0.5,0.5-1.1,0.6-1.8h2.3c-0.1,1.1-0.7,2-1.5,2.7
		c0.9,0.8,1.3,2,1.3,3.3v7.1h-2.4V50.4z M189.9,51.4c0,0.6,0.6,1,1.1,1c0.6,0,1.3-0.4,1.3-1.3c0-0.7-0.5-1.3-1.2-1.3
		C190.5,49.8,189.9,50.5,189.9,51.4z"/>
</g>
</svg>