<!-- Generator: Adobe Illustrator 19.0.0, SVG Export Plug-In  -->
<svg version="1.1"
	 xmlns="http://www.w3.org/2000/svg" xmlns:xlink="http://www.w3.org/1999/xlink" xmlns:a="http://ns.adobe.com/AdobeSVGViewerExtensions/3.0/"
	 x="0px" y="0px" width="527.4px" height="324px" viewBox="0 0 527.4 324" style="enable-background:new 0 0 527.4 324;"
	 xml:space="preserve">
<style type="text/css">
	.st0{fill:#086A87;}
	.st1{fill:#086A87;stroke:#086A87;stroke-width:1.7438;stroke-linecap:round;stroke-linejoin:round;stroke-miterlimit:10;}
	.st2{fill:#33CCCC;stroke:#33CCCC;stroke-width:2.9989;stroke-miterlimit:10;}
	.st3{fill:#9D9FA0;}
	.st4{fill:#086A87;stroke:#086A87;stroke-width:0.7602;stroke-linecap:round;stroke-linejoin:round;stroke-miterlimit:10;}
	.st5{fill:#ED6A4A;}
	.st6{fill:none;stroke:#33CCCC;stroke-width:2.3652;stroke-linecap:round;stroke-linejoin:round;stroke-miterlimit:10;}
	.st7{fill:none;stroke:#33CCCC;stroke-width:2.3217;stroke-linecap:round;stroke-linejoin:round;stroke-miterlimit:10;}
</style>
<defs>
</defs>
<g>
	<g>
		<path class="st0" d="M67.2,302.8c-0.1-0.5-0.4-1.2-0.7-1.8c-0.4-0.7-0.7-1.5-0.7-2.2c0-1.8,1.5-2.7,2.6-2.7c0.1,0,0.2,0,0.9,0.6h0
			c0.7-0.5,0.8-0.6,0.9-0.6c0.5,0,2.5,0.1,2.5,2.5v4.2h-1.4v-4.3c0-1.5-0.8-1.7-0.8-1.7s-0.5,0.4-1.1,0.9h-0.1
			c-0.7-0.5-1.1-0.9-1.1-0.9c-0.1,0-1,0.5-1,1.8c0,0.6,0.2,1.2,0.4,1.7c0.2,0.5,0.4,0.9,0.5,1.4h0c0.2-0.4,0.5-0.8,0.9-1.3
			c-0.7-0.2-1.1-0.6-1.1-1.2c0-0.8,0.7-1.3,1.4-1.3c0.7,0,1.4,0.5,1.4,1.4c0,0.7-0.5,1.3-0.9,1.9c-0.4,0.5-0.9,1.1-1.1,1.7H67.2z
			 M70,299.1c0-0.4-0.3-0.6-0.7-0.6c-0.5,0-0.7,0.4-0.7,0.7c0,0.6,0.5,0.8,0.9,0.8C69.5,299.9,70,299.5,70,299.1z"/>
		<path class="st0" d="M71.8,295.2l-0.4-2.9h1.4l-0.4,2.7L71.8,295.2L71.8,295.2z"/>
		<path class="st0" d="M71.9,292.8c0.7,0,1.2,0.5,1.2,1.2c0,0.7-0.5,1.2-1.2,1.2c-0.7,0-1.2-0.5-1.2-1.2
			C70.7,293.3,71.3,292.8,71.9,292.8z M71.9,294.7c0.4,0,0.7-0.3,0.7-0.7s-0.3-0.7-0.7-0.7c-0.4,0-0.7,0.3-0.7,0.7
			S71.6,294.7,71.9,294.7z M77,302.8v-4.3c0-1.2-0.6-1.6-1.3-1.6c-0.5,0-0.9,0.2-1.4,0.6l-0.4-0.6c0.6-0.5,1.3-0.9,2.1-0.9
			c1.3,0,2.5,0.8,2.5,2.4v4.5H77z"/>
		<path class="st0" d="M84.5,302.9c0-1.1,0-1.8,0-2.3v-2c0-1.6-0.9-2-1.6-2c-0.7,0-1.2,0.4-1.4,1l1.5,0.3l-0.2,0.6
			c-0.6,0.1-0.8,0.5-0.8,1.3v3h-1.4V300c0-0.7,0.2-1.2,1-1.5l0,0l-1.5-0.2c0.1-1,0.8-2.2,2.9-2.2c1,0,2.8,0.4,2.8,2.5v4l-1.1,0.5
			H84.5z"/>
		<path class="st0" d="M87.1,297c0.8-0.7,1.6-1.1,2.6-1.1c1.4,0,2.8,0.7,2.8,2.4v2.8c0,1.1-0.7,1.8-1.8,1.8c-0.9,0-1.5-0.6-1.5-1.4
			c0-0.9,0.6-1.5,1.4-1.5c0.2,0,0.4,0,0.5,0.1v-1.7c0-1.1-0.6-1.8-1.6-1.8c-0.8,0-1.4,0.3-2,0.9L87.1,297z M90.6,300.6
			c-0.5,0-0.8,0.4-0.8,0.8c0,0.5,0.4,0.8,0.8,0.8c0.4,0,0.7-0.3,0.7-0.9c0-0.2,0-0.3-0.1-0.5C91,300.7,90.8,300.6,90.6,300.6z"/>
		<path class="st0" d="M91.4,295.2l-0.4-2.9h1.4L92,295L91.4,295.2L91.4,295.2z"/>
		<path class="st0" d="M96.6,302.8v-4.3c0-1.2-0.6-1.6-1.3-1.6c-0.5,0-0.9,0.2-1.4,0.6l-0.4-0.6c0.6-0.5,1.3-0.9,2.1-0.9
			c1.3,0,2.5,0.8,2.5,2.4v4.5H96.6z"/>
		<path class="st0" d="M69.2,324v-1.7c-2.2-0.3-3.3-1.9-3.5-3.3l2-0.5c0.1,1,0.8,2,2.3,2c1.1,0,1.7-0.5,1.7-1.2c0-0.5-0.4-1-1.2-1.1
			l-1.5-0.3c-1.7-0.4-2.8-1.5-2.8-3c0-1.7,1.3-3,3.1-3.2v-1.7h1.6v1.8c1.9,0.3,2.7,1.6,2.9,2.7l-2,0.6c-0.1-0.6-0.5-1.5-1.8-1.5
			c-1,0-1.6,0.6-1.6,1.3c0,0.5,0.4,0.9,1.1,1.1l1.5,0.3c2,0.5,3,1.7,3,3.1c0,1.5-1.1,2.9-3,3.2v1.7H69.2z"/>
		<path class="st0" d="M81.3,322.2h-2.4v-6.7l0-1.1l0-1.2c-0.4,0.4-0.7,0.7-0.8,0.8l-1.3,1.1l-1.2-1.5l3.7-3h2V322.2z"/>
		<path class="st0" d="M92.5,316.4c0,2-0.3,3.5-1,4.5c-0.7,1-1.7,1.5-3,1.5c-1.3,0-2.3-0.5-3-1.5c-0.7-1-1-2.5-1-4.4
			c0-2,0.3-3.5,1-4.5s1.7-1.4,3-1.4c1.3,0,2.3,0.5,3,1.5C92.2,313,92.5,314.4,92.5,316.4z M86.9,316.4c0,1.4,0.1,2.4,0.4,3
			c0.2,0.6,0.7,0.9,1.2,0.9c0.6,0,1-0.3,1.2-0.9c0.3-0.6,0.4-1.6,0.4-3c0-1.4-0.1-2.4-0.4-3s-0.7-0.9-1.2-0.9c-0.6,0-1,0.3-1.2,0.9
			S86.9,315,86.9,316.4z"/>
		<path class="st0" d="M101.8,316.4c0,2-0.3,3.5-1,4.5c-0.7,1-1.7,1.5-3,1.5c-1.3,0-2.3-0.5-3-1.5s-1-2.5-1-4.4c0-2,0.3-3.5,1-4.5
			c0.7-1,1.7-1.4,3-1.4c1.3,0,2.3,0.5,3,1.5C101.4,313,101.8,314.4,101.8,316.4z M96.1,316.4c0,1.4,0.1,2.4,0.4,3
			c0.2,0.6,0.7,0.9,1.2,0.9c0.6,0,1-0.3,1.2-0.9c0.3-0.6,0.4-1.6,0.4-3c0-1.4-0.1-2.4-0.4-3c-0.3-0.6-0.7-0.9-1.2-0.9
			c-0.6,0-1,0.3-1.2,0.9S96.1,315,96.1,316.4z"/>
	</g>
	<g>
		<path class="st0" d="M138.2,304.7v-1.7c-2.2-0.3-3.3-1.9-3.5-3.3l2-0.5c0.1,1,0.8,2,2.3,2c1.1,0,1.7-0.5,1.7-1.2
			c0-0.5-0.4-1-1.2-1.1l-1.5-0.3c-1.7-0.4-2.8-1.5-2.8-3c0-1.7,1.3-3,3.1-3.2v-1.7h1.6v1.8c1.9,0.3,2.7,1.6,2.9,2.7l-2,0.6
			c-0.1-0.6-0.5-1.5-1.8-1.5c-1,0-1.6,0.6-1.6,1.3c0,0.5,0.4,0.9,1.1,1.1l1.5,0.3c2,0.5,3,1.7,3,3.1c0,1.5-1.1,2.9-3,3.2v1.7H138.2z
			"/>
		<path class="st0" d="M150.3,302.8h-2.4v-6.7l0-1.1l0-1.2c-0.4,0.4-0.7,0.7-0.8,0.8l-1.3,1.1l-1.2-1.5l3.7-3h2V302.8z"/>
		<path class="st0" d="M161.6,297c0,2-0.3,3.5-1,4.5c-0.7,1-1.7,1.5-3,1.5c-1.3,0-2.3-0.5-3-1.5c-0.7-1-1-2.5-1-4.4
			c0-2,0.3-3.5,1-4.5c0.7-1,1.7-1.4,3-1.4c1.3,0,2.3,0.5,3,1.5C161.2,293.6,161.6,295.1,161.6,297z M155.9,297c0,1.4,0.1,2.4,0.4,3
			c0.2,0.6,0.7,0.9,1.2,0.9c0.6,0,1-0.3,1.2-0.9s0.4-1.6,0.4-3c0-1.4-0.1-2.4-0.4-3c-0.3-0.6-0.7-0.9-1.2-0.9c-0.6,0-1,0.3-1.2,0.9
			C156,294.6,155.9,295.6,155.9,297z"/>
		<path class="st0" d="M168.8,302.8h-2.4v-6.7l0-1.1l0-1.2c-0.4,0.4-0.7,0.7-0.8,0.8l-1.3,1.1l-1.2-1.5l3.7-3h2V302.8z"/>
		<path class="st0" d="M171.9,299.4v-2h4.2v2H171.9z"/>
		<path class="st0" d="M138.2,324v-1.7c-2.2-0.3-3.3-1.9-3.5-3.3l2-0.5c0.1,1,0.8,2,2.3,2c1.1,0,1.7-0.5,1.7-1.2
			c0-0.5-0.4-1-1.2-1.1l-1.5-0.3c-1.7-0.4-2.8-1.5-2.8-3c0-1.7,1.3-3,3.1-3.2v-1.7h1.6v1.8c1.9,0.3,2.7,1.6,2.9,2.7l-2,0.6
			c-0.1-0.6-0.5-1.5-1.8-1.5c-1,0-1.6,0.6-1.6,1.3c0,0.5,0.4,0.9,1.1,1.1l1.5,0.3c2,0.5,3,1.7,3,3.1c0,1.5-1.1,2.9-3,3.2v1.7H138.2z
			"/>
		<path class="st0" d="M152.4,322.2h-8.1v-1.7l2.9-2.9c0.9-0.9,1.4-1.5,1.7-1.8c0.3-0.3,0.5-0.7,0.6-0.9c0.1-0.3,0.2-0.6,0.2-0.9
			c0-0.5-0.1-0.8-0.4-1c-0.3-0.2-0.6-0.3-1-0.3c-0.4,0-0.9,0.1-1.3,0.3c-0.4,0.2-0.9,0.5-1.3,0.9l-1.3-1.6c0.6-0.5,1-0.8,1.4-1
			c0.4-0.2,0.8-0.4,1.2-0.5c0.4-0.1,0.9-0.2,1.5-0.2c0.7,0,1.4,0.1,1.9,0.4c0.6,0.3,1,0.6,1.3,1.1c0.3,0.5,0.5,1,0.5,1.6
			c0,0.5-0.1,1-0.3,1.5c-0.2,0.5-0.5,0.9-0.9,1.4c-0.4,0.5-1.1,1.2-2.1,2.1l-1.5,1.4v0.1h5V322.2z"/>
		<path class="st0" d="M157.7,314.8c1.1,0,2,0.3,2.7,0.9c0.7,0.6,1,1.5,1,2.6c0,1.3-0.4,2.3-1.2,3c-0.8,0.7-1.9,1-3.4,1
			c-1.3,0-2.3-0.2-3.1-0.6v-2.1c0.4,0.2,0.9,0.4,1.5,0.5c0.6,0.1,1.1,0.2,1.6,0.2c1.5,0,2.2-0.6,2.2-1.8c0-1.2-0.8-1.7-2.3-1.7
			c-0.3,0-0.6,0-0.9,0.1s-0.6,0.1-0.8,0.2l-1-0.5l0.4-5.9h6.3v2.1h-4.1l-0.2,2.3l0.3-0.1C156.9,314.8,157.3,314.8,157.7,314.8z"/>
		<path class="st0" d="M170.8,316.4c0,2-0.3,3.5-1,4.5c-0.7,1-1.7,1.5-3,1.5c-1.3,0-2.3-0.5-3-1.5s-1-2.5-1-4.4c0-2,0.3-3.5,1-4.5
			c0.7-1,1.7-1.4,3-1.4c1.3,0,2.3,0.5,3,1.5C170.4,313,170.8,314.4,170.8,316.4z M165.1,316.4c0,1.4,0.1,2.4,0.4,3
			c0.2,0.6,0.7,0.9,1.2,0.9c0.6,0,1-0.3,1.2-0.9s0.4-1.6,0.4-3c0-1.4-0.1-2.4-0.4-3c-0.3-0.6-0.7-0.9-1.2-0.9c-0.6,0-1,0.3-1.2,0.9
			C165.3,314,165.1,315,165.1,316.4z"/>
	</g>
	<g>
		<path class="st0" d="M206.2,304.7v-1.7c-2.2-0.3-3.3-1.9-3.5-3.3l2-0.5c0.1,1,0.8,2,2.3,2c1.1,0,1.7-0.5,1.7-1.2
			c0-0.5-0.4-1-1.2-1.1l-1.5-0.3c-1.7-0.4-2.8-1.5-2.8-3c0-1.7,1.3-3,3.1-3.2v-1.7h1.6v1.8c1.9,0.3,2.7,1.6,2.9,2.7l-2,0.6
			c-0.1-0.6-0.5-1.5-1.8-1.5c-1,0-1.6,0.6-1.6,1.3c0,0.5,0.4,0.9,1.1,1.1l1.5,0.3c2,0.5,3,1.7,3,3.1c0,1.5-1.1,2.9-3,3.2v1.7H206.2z
			"/>
		<path class="st0" d="M220.4,302.8h-8.1v-1.7l2.9-2.9c0.9-0.9,1.4-1.5,1.7-1.8c0.3-0.3,0.5-0.7,0.6-0.9c0.1-0.3,0.2-0.6,0.2-0.9
			c0-0.5-0.1-0.8-0.4-1c-0.3-0.2-0.6-0.3-1-0.3c-0.4,0-0.9,0.1-1.3,0.3c-0.4,0.2-0.9,0.5-1.3,0.9l-1.3-1.6c0.6-0.5,1-0.8,1.4-1
			c0.4-0.2,0.8-0.4,1.2-0.5c0.4-0.1,0.9-0.2,1.5-0.2c0.7,0,1.4,0.1,1.9,0.4c0.6,0.3,1,0.6,1.3,1.1c0.3,0.5,0.5,1,0.5,1.6
			c0,0.5-0.1,1-0.3,1.5c-0.2,0.5-0.5,0.9-0.9,1.4c-0.4,0.5-1.1,1.2-2.1,2.1l-1.5,1.4v0.1h5V302.8z"/>
		<path class="st0" d="M225.7,295.4c1.1,0,2,0.3,2.7,0.9c0.7,0.6,1,1.5,1,2.6c0,1.3-0.4,2.3-1.2,3c-0.8,0.7-1.9,1-3.4,1
			c-1.3,0-2.3-0.2-3.1-0.6v-2.1c0.4,0.2,0.9,0.4,1.5,0.5c0.6,0.1,1.1,0.2,1.6,0.2c1.5,0,2.2-0.6,2.2-1.8c0-1.2-0.8-1.7-2.3-1.7
			c-0.3,0-0.6,0-0.9,0.1s-0.6,0.1-0.8,0.2l-1-0.5l0.4-5.9h6.3v2.1h-4.1l-0.2,2.3l0.3-0.1C224.9,295.4,225.3,295.4,225.7,295.4z"/>
		<path class="st0" d="M236.8,302.8h-2.4v-6.7l0-1.1l0-1.2c-0.4,0.4-0.7,0.7-0.8,0.8l-1.3,1.1l-1.2-1.5l3.7-3h2V302.8z"/>
		<path class="st0" d="M239.8,299.4v-2h4.2v2H239.8z"/>
		<path class="st0" d="M206.2,324v-1.7c-2.2-0.3-3.3-1.9-3.5-3.3l2-0.5c0.1,1,0.8,2,2.3,2c1.1,0,1.7-0.5,1.7-1.2
			c0-0.5-0.4-1-1.2-1.1l-1.5-0.3c-1.7-0.4-2.8-1.5-2.8-3c0-1.7,1.3-3,3.1-3.2v-1.7h1.6v1.8c1.9,0.3,2.7,1.6,2.9,2.7l-2,0.6
			c-0.1-0.6-0.5-1.5-1.8-1.5c-1,0-1.6,0.6-1.6,1.3c0,0.5,0.4,0.9,1.1,1.1l1.5,0.3c2,0.5,3,1.7,3,3.1c0,1.5-1.1,2.9-3,3.2v1.7H206.2z
			"/>
		<path class="st0" d="M219.9,313.2c0,0.7-0.2,1.3-0.7,1.8s-1,0.9-1.8,1v0c0.9,0.1,1.6,0.4,2.1,0.8c0.5,0.4,0.7,1.1,0.7,1.8
			c0,1.1-0.4,2-1.2,2.6c-0.8,0.6-2,0.9-3.4,0.9c-1.3,0-2.4-0.2-3.3-0.6v-2.1c0.4,0.2,0.9,0.4,1.5,0.6c0.5,0.1,1.1,0.2,1.6,0.2
			c0.8,0,1.4-0.1,1.8-0.4s0.6-0.7,0.6-1.3c0-0.5-0.2-0.9-0.7-1.2c-0.4-0.2-1.1-0.3-2.1-0.3h-0.9v-1.9h0.9c0.9,0,1.5-0.1,2-0.4
			s0.6-0.6,0.6-1.2c0-0.9-0.5-1.3-1.6-1.3c-0.4,0-0.8,0.1-1.2,0.2c-0.4,0.1-0.8,0.3-1.3,0.7l-1.1-1.7c1.1-0.8,2.3-1.1,3.8-1.1
			c1.2,0,2.1,0.2,2.8,0.7C219.6,311.7,219.9,312.3,219.9,313.2z"/>
		<path class="st0" d="M225.7,314.8c1.1,0,2,0.3,2.7,0.9c0.7,0.6,1,1.5,1,2.6c0,1.3-0.4,2.3-1.2,3c-0.8,0.7-1.9,1-3.4,1
			c-1.3,0-2.3-0.2-3.1-0.6v-2.1c0.4,0.2,0.9,0.4,1.5,0.5c0.6,0.1,1.1,0.2,1.6,0.2c1.5,0,2.2-0.6,2.2-1.8c0-1.2-0.8-1.7-2.3-1.7
			c-0.3,0-0.6,0-0.9,0.1s-0.6,0.1-0.8,0.2l-1-0.5l0.4-5.9h6.3v2.1h-4.1l-0.2,2.3l0.3-0.1C224.9,314.8,225.3,314.8,225.7,314.8z"/>
		<path class="st0" d="M238.8,316.4c0,2-0.3,3.5-1,4.5c-0.7,1-1.7,1.5-3,1.5c-1.3,0-2.3-0.5-3-1.5s-1-2.5-1-4.4c0-2,0.3-3.5,1-4.5
			c0.7-1,1.7-1.4,3-1.4c1.3,0,2.3,0.5,3,1.5C238.4,313,238.8,314.4,238.8,316.4z M233.1,316.4c0,1.4,0.1,2.4,0.4,3
			c0.2,0.6,0.7,0.9,1.2,0.9c0.6,0,1-0.3,1.2-0.9s0.4-1.6,0.4-3c0-1.4-0.1-2.4-0.4-3c-0.3-0.6-0.7-0.9-1.2-0.9c-0.6,0-1,0.3-1.2,0.9
			C233.3,314,233.1,315,233.1,316.4z"/>
	</g>
	<g>
		<path class="st0" d="M275.2,304.7v-1.7c-2.2-0.3-3.3-1.9-3.5-3.3l2-0.5c0.1,1,0.8,2,2.3,2c1.1,0,1.7-0.5,1.7-1.2
			c0-0.5-0.4-1-1.2-1.1l-1.5-0.3c-1.7-0.4-2.8-1.5-2.8-3c0-1.7,1.3-3,3.1-3.2v-1.7h1.6v1.8c1.9,0.3,2.7,1.6,2.9,2.7l-2,0.6
			c-0.1-0.6-0.5-1.5-1.8-1.5c-1,0-1.6,0.6-1.6,1.3c0,0.5,0.4,0.9,1.1,1.1l1.5,0.3c2,0.5,3,1.7,3,3.1c0,1.5-1.1,2.9-3,3.2v1.7H275.2z
			"/>
		<path class="st0" d="M288.9,293.8c0,0.7-0.2,1.3-0.7,1.8c-0.4,0.5-1,0.9-1.8,1v0c0.9,0.1,1.6,0.4,2.1,0.8c0.5,0.4,0.7,1.1,0.7,1.8
			c0,1.1-0.4,2-1.2,2.6c-0.8,0.6-2,0.9-3.4,0.9c-1.3,0-2.4-0.2-3.3-0.6v-2.1c0.4,0.2,0.9,0.4,1.5,0.6c0.5,0.1,1.1,0.2,1.6,0.2
			c0.8,0,1.4-0.1,1.8-0.4s0.6-0.7,0.6-1.3c0-0.5-0.2-0.9-0.7-1.2s-1.1-0.3-2.1-0.3H283v-1.9h0.9c0.9,0,1.5-0.1,2-0.4
			c0.4-0.2,0.6-0.6,0.6-1.2c0-0.9-0.5-1.3-1.6-1.3c-0.4,0-0.8,0.1-1.2,0.2c-0.4,0.1-0.8,0.3-1.3,0.7l-1.1-1.7
			c1.1-0.8,2.3-1.1,3.8-1.1c1.2,0,2.1,0.2,2.8,0.7S288.9,293,288.9,293.8z"/>
		<path class="st0" d="M294.7,295.4c1.1,0,2,0.3,2.7,0.9c0.7,0.6,1,1.5,1,2.6c0,1.3-0.4,2.3-1.2,3c-0.8,0.7-1.9,1-3.4,1
			c-1.3,0-2.3-0.2-3.1-0.6v-2.1c0.4,0.2,0.9,0.4,1.5,0.5c0.6,0.1,1.1,0.2,1.6,0.2c1.5,0,2.2-0.6,2.2-1.8c0-1.2-0.8-1.7-2.3-1.7
			c-0.3,0-0.6,0-0.9,0.1c-0.3,0.1-0.6,0.1-0.8,0.2l-1-0.5l0.4-5.9h6.3v2.1h-4.1l-0.2,2.3l0.3-0.1
			C293.9,295.4,294.3,295.4,294.7,295.4z"/>
		<path class="st0" d="M305.8,302.8h-2.4v-6.7l0-1.1l0-1.2c-0.4,0.4-0.7,0.7-0.8,0.8l-1.3,1.1l-1.2-1.5l3.7-3h2V302.8z"/>
		<path class="st0" d="M308.8,299.4v-2h4.2v2H308.8z"/>
		<path class="st0" d="M275.2,324v-1.7c-2.2-0.3-3.3-1.9-3.5-3.3l2-0.5c0.1,1,0.8,2,2.3,2c1.1,0,1.7-0.5,1.7-1.2
			c0-0.5-0.4-1-1.2-1.1l-1.5-0.3c-1.7-0.4-2.8-1.5-2.8-3c0-1.7,1.3-3,3.1-3.2v-1.7h1.6v1.8c1.9,0.3,2.7,1.6,2.9,2.7l-2,0.6
			c-0.1-0.6-0.5-1.5-1.8-1.5c-1,0-1.6,0.6-1.6,1.3c0,0.5,0.4,0.9,1.1,1.1l1.5,0.3c2,0.5,3,1.7,3,3.1c0,1.5-1.1,2.9-3,3.2v1.7H275.2z
			"/>
		<path class="st0" d="M285.5,314.8c1.1,0,2,0.3,2.7,0.9c0.7,0.6,1,1.5,1,2.6c0,1.3-0.4,2.3-1.2,3c-0.8,0.7-1.9,1-3.4,1
			c-1.3,0-2.3-0.2-3.1-0.6v-2.1c0.4,0.2,0.9,0.4,1.5,0.5c0.6,0.1,1.1,0.2,1.6,0.2c1.5,0,2.2-0.6,2.2-1.8c0-1.2-0.8-1.7-2.3-1.7
			c-0.3,0-0.6,0-0.9,0.1s-0.6,0.1-0.8,0.2l-1-0.5l0.4-5.9h6.3v2.1h-4.1L284,315l0.3-0.1C284.6,314.8,285,314.8,285.5,314.8z"/>
		<path class="st0" d="M298.5,316.4c0,2-0.3,3.5-1,4.5c-0.7,1-1.7,1.5-3,1.5c-1.3,0-2.3-0.5-3-1.5s-1-2.5-1-4.4c0-2,0.3-3.5,1-4.5
			c0.7-1,1.7-1.4,3-1.4c1.3,0,2.3,0.5,3,1.5C298.2,313,298.5,314.4,298.5,316.4z M292.9,316.4c0,1.4,0.1,2.4,0.4,3
			c0.2,0.6,0.7,0.9,1.2,0.9c0.6,0,1-0.3,1.2-0.9c0.3-0.6,0.4-1.6,0.4-3c0-1.4-0.1-2.4-0.4-3c-0.3-0.6-0.7-0.9-1.2-0.9
			c-0.6,0-1,0.3-1.2,0.9C293,314,292.9,315,292.9,316.4z"/>
		<path class="st0" d="M307.8,316.4c0,2-0.3,3.5-1,4.5c-0.7,1-1.7,1.5-3,1.5c-1.3,0-2.3-0.5-3-1.5c-0.7-1-1-2.5-1-4.4
			c0-2,0.3-3.5,1-4.5c0.7-1,1.7-1.4,3-1.4c1.3,0,2.3,0.5,3,1.5C307.4,313,307.8,314.4,307.8,316.4z M302.1,316.4
			c0,1.4,0.1,2.4,0.4,3c0.2,0.6,0.7,0.9,1.2,0.9c0.6,0,1-0.3,1.2-0.9s0.4-1.6,0.4-3c0-1.4-0.1-2.4-0.4-3c-0.3-0.6-0.7-0.9-1.2-0.9
			c-0.6,0-1,0.3-1.2,0.9C302.3,314,302.1,315,302.1,316.4z"/>
	</g>
	<g>
		<path class="st0" d="M342.2,304.7v-1.7c-2.2-0.3-3.3-1.9-3.5-3.3l2-0.5c0.1,1,0.8,2,2.3,2c1.1,0,1.7-0.5,1.7-1.2
			c0-0.5-0.4-1-1.2-1.1l-1.5-0.3c-1.7-0.4-2.8-1.5-2.8-3c0-1.7,1.3-3,3.1-3.2v-1.7h1.6v1.8c1.9,0.3,2.7,1.6,2.9,2.7l-2,0.6
			c-0.1-0.6-0.5-1.5-1.8-1.5c-1,0-1.6,0.6-1.6,1.3c0,0.5,0.4,0.9,1.1,1.1l1.5,0.3c2,0.5,3,1.7,3,3.1c0,1.5-1.1,2.9-3,3.2v1.7H342.2z
			"/>
		<path class="st0" d="M352.5,295.4c1.1,0,2,0.3,2.7,0.9c0.7,0.6,1,1.5,1,2.6c0,1.3-0.4,2.3-1.2,3c-0.8,0.7-1.9,1-3.4,1
			c-1.3,0-2.3-0.2-3.1-0.6v-2.1c0.4,0.2,0.9,0.4,1.5,0.5c0.6,0.1,1.1,0.2,1.6,0.2c1.5,0,2.2-0.6,2.2-1.8c0-1.2-0.8-1.7-2.3-1.7
			c-0.3,0-0.6,0-0.9,0.1c-0.3,0.1-0.6,0.1-0.8,0.2l-1-0.5l0.4-5.9h6.3v2.1h-4.1l-0.2,2.3l0.3-0.1C351.6,295.4,352,295.4,352.5,295.4
			z"/>
		<path class="st0" d="M365.5,297c0,2-0.3,3.5-1,4.5s-1.7,1.5-3,1.5c-1.3,0-2.3-0.5-3-1.5s-1-2.5-1-4.4c0-2,0.3-3.5,1-4.5
			c0.7-1,1.7-1.4,3-1.4c1.3,0,2.3,0.5,3,1.5C365.2,293.6,365.5,295.1,365.5,297z M359.9,297c0,1.4,0.1,2.4,0.4,3
			c0.2,0.6,0.7,0.9,1.2,0.9c0.6,0,1-0.3,1.2-0.9s0.4-1.6,0.4-3c0-1.4-0.1-2.4-0.4-3c-0.3-0.6-0.7-0.9-1.2-0.9c-0.6,0-1,0.3-1.2,0.9
			C360,294.6,359.9,295.6,359.9,297z"/>
		<path class="st0" d="M372.8,302.8h-2.4v-6.7l0-1.1l0-1.2c-0.4,0.4-0.7,0.7-0.8,0.8l-1.3,1.1l-1.2-1.5l3.7-3h2V302.8z"/>
		<path class="st0" d="M375.8,299.4v-2h4.2v2H375.8z"/>
		<path class="st0" d="M342.2,324v-1.7c-2.2-0.3-3.3-1.9-3.5-3.3l2-0.5c0.1,1,0.8,2,2.3,2c1.1,0,1.7-0.5,1.7-1.2
			c0-0.5-0.4-1-1.2-1.1l-1.5-0.3c-1.7-0.4-2.8-1.5-2.8-3c0-1.7,1.3-3,3.1-3.2v-1.7h1.6v1.8c1.9,0.3,2.7,1.6,2.9,2.7l-2,0.6
			c-0.1-0.6-0.5-1.5-1.8-1.5c-1,0-1.6,0.6-1.6,1.3c0,0.5,0.4,0.9,1.1,1.1l1.5,0.3c2,0.5,3,1.7,3,3.1c0,1.5-1.1,2.9-3,3.2v1.7H342.2z
			"/>
		<path class="st0" d="M354.3,322.2h-2.4v-6.7l0-1.1l0-1.2c-0.4,0.4-0.7,0.7-0.8,0.8l-1.3,1.1l-1.2-1.5l3.7-3h2V322.2z"/>
		<path class="st0" d="M365.5,316.4c0,2-0.3,3.5-1,4.5s-1.7,1.5-3,1.5c-1.3,0-2.3-0.5-3-1.5s-1-2.5-1-4.4c0-2,0.3-3.5,1-4.5
			c0.7-1,1.7-1.4,3-1.4c1.3,0,2.3,0.5,3,1.5C365.2,313,365.5,314.4,365.5,316.4z M359.9,316.4c0,1.4,0.1,2.4,0.4,3
			c0.2,0.6,0.7,0.9,1.2,0.9c0.6,0,1-0.3,1.2-0.9s0.4-1.6,0.4-3c0-1.4-0.1-2.4-0.4-3c-0.3-0.6-0.7-0.9-1.2-0.9c-0.6,0-1,0.3-1.2,0.9
			C360,314,359.9,315,359.9,316.4z"/>
		<path class="st0" d="M374.8,316.4c0,2-0.3,3.5-1,4.5c-0.7,1-1.7,1.5-3,1.5c-1.3,0-2.3-0.5-3-1.5s-1-2.5-1-4.4c0-2,0.3-3.5,1-4.5
			c0.7-1,1.7-1.4,3-1.4c1.3,0,2.3,0.5,3,1.5C374.4,313,374.8,314.4,374.8,316.4z M369.1,316.4c0,1.4,0.1,2.4,0.4,3
			c0.2,0.6,0.7,0.9,1.2,0.9c0.6,0,1-0.3,1.2-0.9c0.3-0.6,0.4-1.6,0.4-3c0-1.4-0.1-2.4-0.4-3c-0.3-0.6-0.7-0.9-1.2-0.9
			c-0.6,0-1,0.3-1.2,0.9C369.2,314,369.1,315,369.1,316.4z"/>
		<path class="st0" d="M384,316.4c0,2-0.3,3.5-1,4.5c-0.7,1-1.7,1.5-3,1.5c-1.3,0-2.3-0.5-3-1.5c-0.7-1-1-2.5-1-4.4
			c0-2,0.3-3.5,1-4.5c0.7-1,1.7-1.4,3-1.4c1.3,0,2.3,0.5,3,1.5C383.7,313,384,314.4,384,316.4z M378.4,316.4c0,1.4,0.1,2.4,0.4,3
			c0.2,0.6,0.7,0.9,1.2,0.9c0.6,0,1-0.3,1.2-0.9s0.4-1.6,0.4-3c0-1.4-0.1-2.4-0.4-3c-0.3-0.6-0.7-0.9-1.2-0.9c-0.6,0-1,0.3-1.2,0.9
			C378.5,314,378.4,315,378.4,316.4z"/>
	</g>
	<g>
		<path class="st0" d="M407.6,299.8v-1.2c-0.2,0.1-0.4,0.1-0.6,0.1c-0.7,0-1.4-0.5-1.4-1.3c0-1,0.7-1.5,1.6-1.5
			c0.5,0,1.8,0.2,1.8,2.1v2.2c0.8,0.3,1.5,0.8,2.1,1.4v-2.9c0-0.5,0-1,0-2.1l1.2-0.5h0.2v6.7h-1.4c-0.5-0.7-1.3-1.4-2.1-1.7
			c0,0.1,0,0.2,0,0.2c0,0.6-0.5,1.6-1.7,1.6c-0.9,0-1.6-0.6-1.6-1.6c0-0.8,0.6-1.5,1.5-1.5C407.4,299.8,407.5,299.8,407.6,299.8z
			 M407.8,297.3c0-0.5-0.3-0.8-0.7-0.8c-0.5,0-0.8,0.4-0.8,0.8c0,0.5,0.4,0.8,0.8,0.8c0.2,0,0.5-0.1,0.6-0.2
			C407.8,297.7,407.8,297.5,407.8,297.3z M407.4,300.5c-0.5,0-0.9,0.4-0.9,1c0,0.4,0.3,0.7,0.6,0.7c0.5,0,0.7-0.5,0.7-1
			c0-0.2,0-0.5-0.1-0.7C407.5,300.5,407.5,300.5,407.4,300.5z"/>
		<path class="st0" d="M416.8,302.8v-4.3c0-1.2-0.6-1.6-1.3-1.6c-0.5,0-0.9,0.2-1.4,0.6l-0.4-0.6c0.6-0.5,1.3-0.9,2.1-0.9
			c1.3,0,2.5,0.8,2.5,2.4v4.5H416.8z"/>
		<path class="st0" d="M424.3,302.9c0-1.1,0-1.8,0-2.3v-2c0-1.6-0.9-2-1.6-2c-0.7,0-1.2,0.4-1.4,1l1.5,0.3l-0.2,0.6
			c-0.6,0.1-0.8,0.5-0.8,1.3v3h-1.4V300c0-0.7,0.2-1.2,1-1.5l0,0l-1.5-0.2c0.1-1,0.8-2.2,2.9-2.2c1,0,2.8,0.4,2.8,2.5v4l-1.1,0.5
			H424.3z"/>
		<path class="st0" d="M431.9,302.9c0-1.1,0-1.8,0-2.3v-2c0-1.6-0.9-2-1.6-2c-0.7,0-1.2,0.4-1.4,1l1.5,0.3l-0.2,0.6
			c-0.6,0.1-0.8,0.5-0.8,1.3v3h-1.4V300c0-0.7,0.2-1.2,1-1.5l0,0l-1.5-0.2c0.1-1,0.8-2.2,2.9-2.2c1,0,2.8,0.4,2.8,2.5v4l-1.1,0.5
			H431.9z"/>
		<path class="st0" d="M434.5,297c0.8-0.7,1.6-1.1,2.6-1.1c1.4,0,2.8,0.7,2.8,2.4v2.8c0,1.1-0.7,1.8-1.8,1.8c-0.9,0-1.5-0.6-1.5-1.4
			c0-0.9,0.6-1.5,1.4-1.5c0.2,0,0.4,0,0.5,0.1v-1.7c0-1.1-0.6-1.8-1.6-1.8c-0.8,0-1.4,0.3-2,0.9L434.5,297z M438,300.6
			c-0.5,0-0.8,0.4-0.8,0.8c0,0.5,0.4,0.8,0.8,0.8c0.4,0,0.7-0.3,0.7-0.9c0-0.2,0-0.3-0.1-0.5C438.4,300.7,438.2,300.6,438,300.6z"/>
		<path class="st0" d="M438.8,295.2l-0.4-2.9h1.4l-0.4,2.7L438.8,295.2L438.8,295.2z"/>
		<path class="st0" d="M444,302.8v-4.3c0-1.2-0.6-1.6-1.3-1.6c-0.5,0-0.9,0.2-1.4,0.6l-0.4-0.6c0.6-0.5,1.3-0.9,2.1-0.9
			c1.3,0,2.5,0.8,2.5,2.4v4.5H444z"/>
		<path class="st0" d="M409.2,324v-1.7c-2.2-0.3-3.3-1.9-3.5-3.3l2-0.5c0.1,1,0.8,2,2.3,2c1,0,1.7-0.5,1.7-1.2c0-0.5-0.4-1-1.2-1.1
			l-1.5-0.3c-1.7-0.4-2.8-1.5-2.8-3c0-1.7,1.3-3,3.1-3.2v-1.7h1.6v1.8c1.9,0.3,2.7,1.6,2.9,2.7l-2,0.6c-0.1-0.6-0.5-1.5-1.8-1.5
			c-1,0-1.6,0.6-1.6,1.3c0,0.5,0.4,0.9,1.1,1.1l1.5,0.3c2,0.5,3,1.7,3,3.1c0,1.5-1.1,2.9-3,3.2v1.7H409.2z"/>
		<path class="st0" d="M421.3,322.2h-2.4v-6.7l0-1.1l0-1.2c-0.4,0.4-0.7,0.7-0.8,0.8l-1.3,1.1l-1.2-1.5l3.7-3h2V322.2z"/>
		<path class="st0" d="M432.5,316.4c0,2-0.3,3.5-1,4.5c-0.7,1-1.7,1.5-3,1.5c-1.3,0-2.3-0.5-3-1.5c-0.7-1-1-2.5-1-4.4
			c0-2,0.3-3.5,1-4.5c0.7-1,1.7-1.4,3-1.4c1.3,0,2.3,0.5,3,1.5C432.2,313,432.5,314.4,432.5,316.4z M426.9,316.4
			c0,1.4,0.1,2.4,0.4,3c0.2,0.6,0.7,0.9,1.2,0.9c0.6,0,1-0.3,1.2-0.9s0.4-1.6,0.4-3c0-1.4-0.1-2.4-0.4-3c-0.3-0.6-0.7-0.9-1.2-0.9
			c-0.6,0-1,0.3-1.2,0.9C427,314,426.9,315,426.9,316.4z"/>
		<path class="st0" d="M441.7,316.4c0,2-0.3,3.5-1,4.5c-0.7,1-1.7,1.5-3,1.5c-1.3,0-2.3-0.5-3-1.5c-0.7-1-1-2.5-1-4.4
			c0-2,0.3-3.5,1-4.5c0.7-1,1.7-1.4,3-1.4c1.3,0,2.3,0.5,3,1.5C441.4,313,441.7,314.4,441.7,316.4z M436.1,316.4
			c0,1.4,0.1,2.4,0.4,3c0.2,0.6,0.7,0.9,1.2,0.9c0.6,0,1-0.3,1.2-0.9c0.3-0.6,0.4-1.6,0.4-3c0-1.4-0.1-2.4-0.4-3
			c-0.3-0.6-0.7-0.9-1.2-0.9c-0.6,0-1,0.3-1.2,0.9C436.2,314,436.1,315,436.1,316.4z"/>
		<path class="st0" d="M451,316.4c0,2-0.3,3.5-1,4.5s-1.7,1.5-3,1.5c-1.3,0-2.3-0.5-3-1.5s-1-2.5-1-4.4c0-2,0.3-3.5,1-4.5
			c0.7-1,1.7-1.4,3-1.4c1.3,0,2.3,0.5,3,1.5C450.6,313,451,314.4,451,316.4z M445.3,316.4c0,1.4,0.1,2.4,0.4,3
			c0.2,0.6,0.7,0.9,1.2,0.9c0.6,0,1-0.3,1.2-0.9s0.4-1.6,0.4-3c0-1.4-0.1-2.4-0.4-3c-0.3-0.6-0.7-0.9-1.2-0.9c-0.6,0-1,0.3-1.2,0.9
			C445.5,314,445.3,315,445.3,316.4z"/>
	</g>
	<rect x="64.4" y="33.8" class="st1" width="51.2" height="251"/>
	<rect x="198.4" y="217.1" class="st2" width="51.2" height="67.7"/>
	<rect x="265.5" y="217.2" class="st3" width="51.2" height="69.5"/>
	<rect x="332.5" y="237.3" class="st4" width="51.2" height="47.7"/>
	<rect x="399.5" y="261.2" class="st5" width="51.2" height="24"/>
	<rect x="131.4" y="140.3" class="st5" width="51.2" height="146.4"/>
	<line class="st6" x1="1.2" y1="286.7" x2="526.2" y2="286.7"/>
	<line class="st7" x1="30.9" y1="317.8" x2="30.9" y2="1.2"/>
</g>
</svg>