<!-- Generator: Adobe Illustrator 19.0.0, SVG Export Plug-In  -->
<svg version="1.1"
	 xmlns="http://www.w3.org/2000/svg" xmlns:xlink="http://www.w3.org/1999/xlink" xmlns:a="http://ns.adobe.com/AdobeSVGViewerExtensions/3.0/"
	 x="0px" y="0px" width="356.1px" height="219.7px" viewBox="0 0 356.1 219.7" style="enable-background:new 0 0 356.1 219.7;"
	 xml:space="preserve">
<style type="text/css">
	.st0{fill:#3A95AA;}
	.st1{fill:none;stroke:#086A87;stroke-width:2.9217;stroke-linecap:round;stroke-linejoin:round;stroke-miterlimit:10;}
	.st2{fill:#086A87;stroke:#086A87;stroke-width:2.1844;stroke-linecap:round;stroke-linejoin:round;stroke-miterlimit:10;}
	.st3{fill:#EDECEA;}
	.st4{fill:#33CCCC;stroke:#33CCCC;stroke-width:2.8315;stroke-miterlimit:10;}
	.st5{fill:#086A87;}
	.st6{fill:#FFFFFF;}
</style>
<defs>
</defs>
<path class="st0" d="M307.2,159.2H183.8c-5.3,0-9.7-7.4-9.7-16.5h133"/>
<path class="st0" d="M210,159.2h123.3c5.3,0,9.7-7.4,9.7-16.5H210"/>
<path class="st1" d="M307.2,130.3H205.3c-4.2,0-7.6-3.3-7.6-7.4V54c0-4.1,3.4-7.4,7.6-7.4h113.1c4.2,0,7.6,3.3,7.6,7.4v37.7"/>
<path class="st2" d="M307.2,142.7h-109c-7.4,0-13.5-5.9-13.5-13.1V47.3c0-7.2,6.1-13.1,13.5-13.1h127.2c7.4,0,13.5,5.9,13.5,13.1
	v44.4"/>
<path class="st1" d="M216.4,130.3h101.9c4.2,0,7.6-3.3,7.6-7.4V54c0-4.1-3.4-7.4-7.6-7.4H205.2c-4.2,0-7.6,3.3-7.6,7.4v37.7"/>
<path class="st2" d="M216.4,142.7h109c7.4,0,13.5-5.9,13.5-13.1V47.3c0-7.2-6.1-13.1-13.5-13.1H198.2c-7.4,0-13.5,5.9-13.5,13.1
	v44.4"/>
<rect x="197.6" y="46.6" class="st3" width="128.4" height="83.7"/>
<circle class="st4" cx="109.9" cy="109.9" r="108.5"/>
<g>
	<g>
		<path class="st5" d="M269,204h-5.1v8.8h-8.8V204h-18.2v-6.3l18.7-27.5h8.3V197h5.1V204z M255.1,197v-7.2c0-1.2,0-3,0.1-5.2
			c0.1-2.3,0.2-3.6,0.2-4h-0.2c-0.7,1.6-1.6,3.1-2.6,4.7l-7.8,11.8H255.1z"/>
		<path class="st5" d="M287.1,169.6c4.1,0,7.4,0.9,9.9,2.8c2.5,1.9,3.7,4.4,3.7,7.5c0,2.2-0.6,4.1-1.8,5.8c-1.2,1.7-3.1,3.2-5.8,4.6
			c3.2,1.7,5.5,3.5,6.9,5.3c1.4,1.9,2.1,3.9,2.1,6.1c0,3.5-1.4,6.3-4.1,8.4c-2.7,2.1-6.3,3.2-10.8,3.2c-4.7,0-8.3-1-11-3
			c-2.7-2-4-4.8-4-8.4c0-2.4,0.6-4.6,1.9-6.5c1.3-1.9,3.4-3.5,6.2-5c-2.4-1.5-4.2-3.2-5.2-4.9c-1.1-1.7-1.6-3.7-1.6-5.7
			c0-3.1,1.3-5.5,3.8-7.4C279.8,170.6,283,169.6,287.1,169.6z M280.5,201.4c0,1.7,0.6,3,1.7,3.9c1.2,0.9,2.8,1.4,4.8,1.4
			c2.2,0,3.9-0.5,5-1.4c1.1-1,1.7-2.2,1.7-3.8c0-1.3-0.5-2.5-1.6-3.7c-1.1-1.1-2.9-2.3-5.3-3.6C282.5,196.1,280.5,198.5,280.5,201.4
			z M287,176.2c-1.5,0-2.8,0.4-3.7,1.2c-0.9,0.8-1.4,1.8-1.4,3.2c0,1.2,0.4,2.2,1.1,3.1c0.7,0.9,2.1,1.9,4.1,2.8
			c1.9-0.9,3.2-1.8,4-2.7c0.8-0.9,1.1-2,1.1-3.2c0-1.3-0.5-2.4-1.5-3.2C289.8,176.6,288.6,176.2,287,176.2z"/>
		<path class="st5" d="M326.2,182.9c0,4.5-0.9,7.8-2.6,10.1c-1.7,2.2-4.3,3.4-7.6,3.4c-3.2,0-5.7-1.2-7.4-3.5
			c-1.7-2.3-2.6-5.6-2.6-10c0-8.9,3.4-13.3,10.1-13.3c3.3,0,5.8,1.2,7.6,3.5C325.4,175.3,326.2,178.6,326.2,182.9z M313.3,182.9
			c0,2.5,0.2,4.3,0.7,5.5c0.4,1.2,1.1,1.8,2.1,1.8c1.9,0,2.8-2.4,2.8-7.3c0-4.9-0.9-7.3-2.8-7.3c-1,0-1.7,0.6-2.1,1.8
			C313.6,178.6,313.3,180.5,313.3,182.9z M346.3,170.2l-23.6,42.6h-7l23.6-42.6H346.3z M356.1,199.9c0,4.4-0.9,7.8-2.6,10
			c-1.7,2.2-4.3,3.4-7.6,3.4c-3.2,0-5.7-1.2-7.4-3.5c-1.7-2.3-2.6-5.6-2.6-10c0-8.9,3.4-13.3,10.1-13.3c3.3,0,5.8,1.2,7.6,3.5
			C355.2,192.3,356.1,195.6,356.1,199.9z M343.2,200c0,2.5,0.2,4.3,0.7,5.5c0.4,1.2,1.1,1.8,2.1,1.8c1.9,0,2.8-2.4,2.8-7.3
			c0-4.9-0.9-7.3-2.8-7.3c-1,0-1.7,0.6-2.1,1.8C343.4,195.7,343.2,197.5,343.2,200z"/>
	</g>
</g>
<g>
	<path class="st6" d="M52.6,89h1.9V80c0-1.6-0.5-2.7-2-2.7c-0.9,0-1.8,0.4-2.2,1.4c0.3-0.1,0.7-0.2,1-0.2c1.3,0,2.3,1,2.3,2.5
		c0,1.5-1.2,2.5-2.6,2.5c-1.9,0-2.9-1.5-2.9-3.2c0-2.7,2.2-4.3,4.8-4.3c2.1,0,4,1.1,4.3,3.2c2.1-0.4,2.7-2.1,2.9-3.9H63
		c-0.3,2.3-1.5,3.6-3.5,4.4v0c2.9,0.5,3.3,2.1,3.3,3.8v3.6c0,3-2.1,3.2-4.5,3.2h-5.9L52.6,89z M49.8,80.8c0,0.9,0.5,1.6,1.4,1.6
		c0.7,0,1.2-0.7,1.2-1.4c0-0.9-0.6-1.4-1.4-1.4c-0.4,0-0.8,0.1-1.1,0.4C49.8,80.3,49.8,80.5,49.8,80.8z M57.3,89h0.4
		c1.8,0,2.2-0.4,2.2-2.2v-3.4c0-1.5-0.2-2.3-2.6-2.8V89z"/>
	<path class="st6" d="M56.2,73.4c0.6-0.1,1.3-0.4,1.7-1c-1.1-0.1-2-0.9-2-2c0-1.3,1-2.2,2.3-2.2c1.4,0,2.2,1,2.2,2.2
		c0,0.8-0.4,1.8-1.3,2.5l0,0.1c2.1-0.5,3-2.3,3.1-4.5H65c-0.4,2.2-1.4,3.8-3.3,4.9c-1.3,0.7-3,1-5.5,1.2L56.2,73.4z M58.1,69.3
		c-0.6,0-1.1,0.4-1.1,1.1c0,0.7,0.6,1.2,1.3,1.2c0.6,0,0.9-0.6,0.9-1.2C59.3,69.8,58.8,69.3,58.1,69.3z"/>
	<path class="st6" d="M66.8,78.3c1.7-1.5,3.6-2.3,5.7-2.3c3,0,5.8,1.5,5.8,5v4.8c0,3.9-2.4,4.9-5.7,4.9c-3.4,0-5.4-1.4-5.4-4.2v-2.6
		c0-2.2,1.3-4,3.7-4c2.1,0,3,1.6,3,2.8c0,2-1.2,3-2.6,3c-0.4,0-0.9-0.1-1.3-0.2v1.4c0,1.9,1,2.7,2.7,2.7c1.8,0,2.7-0.7,2.7-2.7v-5.3
		c0-2.2-1.1-3.7-3.3-3.7c-1.6,0-3.2,0.6-4.4,1.9L66.8,78.3z M71,84.6c0.9,0,1.5-0.7,1.5-1.7c0-1-0.5-1.8-1.5-1.8
		c-0.9,0-1.3,0.8-1.3,1.8c0,0.4,0.1,0.9,0.2,1.3C70.3,84.5,70.7,84.6,71,84.6z"/>
	<path class="st6" d="M95.3,66.4h0.3v19.9c0,3.6-1.7,4.1-5.2,4.1h-6.7l0.2-1.6h1.9v-7c-0.4,0.2-0.8,0.3-1.3,0.3
		c-1.5,0-2.9-1.1-2.9-2.9c0-2.1,1.6-3.2,3.3-3.2c1.1,0,3.7,0.5,3.7,4.3v8.5h0.6c2.5,0,3.4-0.2,3.4-2.7V71.9c0-1,0-2-0.1-4.4
		L95.3,66.4z M86.4,79c0-1-0.6-1.7-1.5-1.7c-1,0-1.7,0.8-1.7,1.7c0,1.2,0.8,1.7,1.6,1.7c0.5,0,1-0.2,1.3-0.5
		C86.3,79.9,86.4,79.5,86.4,79z"/>
	<path class="st6" d="M112.7,66.4h0.3v19.9c0,3.6-1.7,4.1-5.2,4.1h-6.7l0.2-1.6h1.9v-7c-0.4,0.2-0.8,0.3-1.3,0.3
		c-1.5,0-2.9-1.1-2.9-2.9c0-2.1,1.6-3.2,3.3-3.2c1.1,0,3.7,0.5,3.7,4.3v8.5h0.6c2.5,0,3.4-0.2,3.4-2.7V71.9c0-1,0-2-0.1-4.4
		L112.7,66.4z M103.7,79c0-1-0.6-1.7-1.5-1.7c-1,0-1.7,0.8-1.7,1.7c0,1.2,0.8,1.7,1.6,1.7c0.5,0,1-0.2,1.3-0.5
		C103.6,79.9,103.7,79.5,103.7,79z"/>
	<path class="st6" d="M109,68.2c3,0,4.9,2.2,4.9,4.7c0,0.7-0.2,1.4-0.4,2.1c-2.8-1.9-5.5-2.7-9.3-2.5
		C104.4,69.8,106.3,68.2,109,68.2z M112.7,73.4c-0.2-1.7-2.2-3.1-4-3.1c-1.2,0-2.2,0.4-2.8,1.2C108.4,71.6,110.6,72.2,112.7,73.4z"
		/>
	<path class="st6" d="M106.4,73.4c0.6-0.1,1.3-0.4,1.7-1c-1.1-0.1-2-0.9-2-2c0-1.3,1-2.2,2.3-2.2c1.4,0,2.2,1,2.2,2.2
		c0,0.8-0.4,1.8-1.3,2.5l0,0.1c2.1-0.5,3-2.3,3.1-4.5h2.7c-0.4,2.2-1.4,3.8-3.3,4.9c-1.3,0.7-3,1-5.5,1.2L106.4,73.4z M108.4,69.3
		c-0.6,0-1.1,0.4-1.1,1.1c0,0.7,0.6,1.2,1.3,1.2c0.6,0,0.9-0.6,0.9-1.2C109.5,69.8,109.1,69.3,108.4,69.3z"/>
	<path class="st6" d="M122.4,81.9c-1.5,0-3-1-3-2.8c0-1.6,1.3-3.1,3.3-3.1c1.1,0,3.7,0.4,3.7,4.2v6.6c0,2.7-0.2,3.5-2.4,3.5h-2
		c-2-2.9-5.2-6.4-7.4-7.8l1-1.4c2.5,1.8,5.7,5.1,7.3,7.5c0.5,0,0.6-0.2,0.6-1.5v-5.5C123.2,81.9,122.8,81.9,122.4,81.9z M124.1,79.2
		c0-1-0.5-1.9-1.5-1.9c-1,0-1.6,0.7-1.6,1.7c0,1.1,0.8,1.6,1.7,1.6c0.4,0,0.8-0.1,1.1-0.4C124,80,124.1,79.6,124.1,79.2z"/>
	<path class="st6" d="M63.1,117.2v11.7c0,1.7-0.3,2.4-1.6,2.4h-1.1l-3.7-5.8l-3.7,5c-0.4,0.5-0.6,0.8-1.2,0.8h-1.9v-10.3
		c0-2.2,1.5-4,3.9-4c2.3,0,3.2,1.6,3.2,2.8c0,2-1.3,3.1-2.9,3.1c-0.4,0-0.9-0.1-1.3-0.2v3.7c0,0.8-0.1,1.6-0.3,2.5l0.1,0l4.1-5.4
		h0.3l3.5,5.3l0.1,0c-0.1-0.9-0.2-1.7-0.2-2.5v-3.5c0-1,0-2-0.1-4.4l2.6-1.1H63.1z M53.8,121.6c0.9,0,1.6-0.7,1.6-1.7
		c0-1-0.5-1.8-1.6-1.8c-1,0-1.4,0.9-1.4,1.8c0,0.4,0.1,0.9,0.2,1.3C53,121.5,53.4,121.6,53.8,121.6z"/>
	<path class="st6" d="M61.3,115.3l-0.9-6.1h2.9l-0.8,5.6L61.3,115.3L61.3,115.3z"/>
	<path class="st6" d="M72.2,131.2v-9.1c0-2.4-1.3-3.4-2.8-3.4c-1,0-2,0.5-2.9,1.3l-0.9-1.3c1.3-1.2,2.8-1.8,4.4-1.8
		c2.7,0,5.2,1.7,5.2,5v9.4H72.2z"/>
	<path class="st6" d="M82.6,122.6c-0.4,0.1-0.8,0.2-1.3,0.2c-1.6,0-2.9-1-2.9-2.8c0-1.8,1.3-3.1,3.2-3.1c2.3,0,3.9,1.4,3.9,4.5v7.4
		c1.3-1.5,2.9-2.6,4.5-3.3v-2.8c0-1,0-2-0.1-4.4l2.6-1.1h0.3v7.4c0.2,0,0.4,0,0.6,0c2,0,3.3,1.4,3.3,3.3c0,2.1-1.4,3.7-3.6,3.7
		c-2,0-3.4-1.3-3.4-3.8c0-0.1,0-0.2,0-0.6c-2,1.1-3.6,2.9-4.4,4.1h-2.9V122.6z M83,120.1c0-1.3-0.6-1.9-1.5-1.9
		c-1,0-1.5,0.8-1.5,1.8c0,1.2,0.8,1.7,1.6,1.7c0.4,0,0.9-0.1,1.2-0.4C83,120.8,83,120.4,83,120.1z M92.8,126.2
		c-0.1,0.3-0.2,1-0.2,1.5c0,1.1,0.3,2.3,1.3,2.3c1,0,1.3-1.1,1.3-1.9c0-1-0.7-2-1.7-2C93.4,126.1,93.2,126.1,92.8,126.2z"/>
	<path class="st6" d="M103.1,125.9c0.4-0.2,1-0.4,1.5-0.4c1.6,0,2.8,1.2,2.8,2.9c0,1.8-1.4,3.2-3.3,3.2c-2.3,0-3.9-1.5-3.9-4.3V123
		c0-1.6,0-3.1-0.1-4.7l2.4-1.1h0.5V125.9z M102.9,128.3c0,1.3,0.5,1.9,1.5,1.9c0.9,0,1.5-0.8,1.5-1.8c0-1.2-0.8-1.7-1.6-1.7
		c-0.5,0-1,0.2-1.3,0.6C102.9,127.5,102.9,127.9,102.9,128.3z"/>
	<path class="st6" d="M108.6,119.1c1.7-1.5,3.3-2.2,5.4-2.2c3,0,5.9,1.5,5.9,5v5.8c0,2.3-1.5,3.9-3.8,3.9c-1.8,0-3.2-1.2-3.2-3
		c0-1.8,1.3-3.1,3-3.1c0.4,0,0.8,0.1,1.2,0.2v-3.6c0-2.2-1.2-3.8-3.3-3.8c-1.6,0-3,0.7-4.2,1.8L108.6,119.1z M116,126.7
		c-1,0-1.6,0.8-1.6,1.8c0,1.2,0.8,1.8,1.6,1.8c0.7,0,1.5-0.6,1.5-2c0-0.4-0.1-0.7-0.2-1.1C117,126.9,116.4,126.7,116,126.7z"/>
	<path class="st6" d="M116.5,112.9c0.4-1.1,1.3-1.3,1.7-1.3c1.3,0,1.9,0.9,1.9,1.9c0,1.1-0.8,1.9-2,1.9c-1.5,0-2-1.3-3.4-2v1.4
		l-0.7,0.5c-1.8-1.3-2.6-2.4-2.6-3.6c0-1.7,1-3.2,3-3.2c1.8,0,3.5,1.5,4.3,1.5c0.5,0,0.8-0.4,1.1-1.1l0.9,0.8c-0.3,1-1,1.6-1.9,1.6
		c-1.1,0-2.5-0.8-4.1-0.8c-1.2,0-1.9,0.8-1.9,1.7c0,0.6,0.4,1.2,1,1.7l0,0v-1.9l0.5-0.5C115.4,111.9,115.8,112.2,116.5,112.9z
		 M118.2,114.5c0.5,0,0.9-0.4,0.9-1c0-0.5-0.3-1-0.9-1c-0.7,0-1.1,0.6-1,1.4C117.6,114.4,118,114.5,118.2,114.5z"/>
	<path class="st6" d="M125.9,123c-1.5,0-2.9-1.1-2.9-2.9c0-2.1,1.6-3.2,3.3-3.2c1.1,0,3.7,0.5,3.7,4.3v8.5h0.6
		c2.5,0,3.4-0.2,3.4-2.7v-4.3c0-1,0-2-0.1-4.4l2.6-1.1h0.3v10c0,3.6-1.7,4.1-5.2,4.1H125l0.2-1.6h1.9v-7
		C126.7,122.9,126.3,123,125.9,123z M127.6,119.8c0-1-0.6-1.7-1.5-1.7c-1,0-1.7,0.8-1.7,1.7c0,1.2,0.8,1.7,1.6,1.7
		c0.5,0,1-0.2,1.3-0.5C127.5,120.7,127.6,120.3,127.6,119.8z"/>
	<path class="st6" d="M146.2,125.5c1.6,0,2.8,1.2,2.8,2.9c0,1.8-1.3,3.2-3.2,3.2c-2.3,0-3.9-1.5-3.9-4.3v-16.4
		c0-1.3-0.3-1.3-0.5-1.3c-0.4,0.9-0.9,2.4-1.9,5.4h-0.7c-1.1-3.2-1.6-4.6-1.9-5.2c-0.3-0.4-0.4-0.4-0.9-0.4v-2h0.6
		c1.6,0,1.6,0,3,3.8h0.1c0.8-2.3,1.1-3.1,1.4-3.8h0.1c1.7,0,3.7,0.6,3.7,3.7v14.9C145.1,125.6,145.6,125.5,146.2,125.5z
		 M144.4,128.3c0,1.3,0.5,1.9,1.5,1.9c0.9,0,1.5-0.8,1.5-1.8c0-1.2-0.8-1.7-1.6-1.7c-0.5,0-1,0.2-1.3,0.6
		C144.4,127.5,144.4,127.9,144.4,128.3z"/>
	<path class="st6" d="M157.3,118.3c-0.1,0-0.4,0.3-1.4,1.5h-0.4c-1.2-1.3-1.4-1.5-1.5-1.5c-0.3,0-1.2,1-1.2,2.4c0,0.2,0,0.5,0.1,0.7
		c0.6-0.9,1.3-1.2,2-1.2c1.4,0,2.4,1.1,2.4,2.4c0,1.6-1.3,2.5-2.7,2.5c-2.3,0-3.6-2.1-3.6-4.2c0-2.6,1.9-4.1,3.4-4.1
		c0.1,0,0.4,0.4,1.3,1.4h0.1c0.9-1.1,1.2-1.4,1.3-1.4c1,0,3.8,0.6,4.1,3.2c2-0.4,2.6-2.1,2.8-3.9h2.9c-0.3,2.3-1.5,3.6-3.5,4.4v0
		c2.9,0.5,3.3,2.1,3.3,3.8v3.6c0,3-2.1,3.2-4.5,3.2h-5.9l0.2-1.5h1.9v-9.1C158.5,118.7,157.5,118.3,157.3,118.3z M154.9,124
		c0.7,0,1.4-0.5,1.4-1.4c0-0.7-0.6-1.3-1.3-1.3c-0.8,0-1.4,0.7-1.5,1.6C153.6,123.6,154.2,124,154.9,124z M161.7,129.8
		c1.8,0,2.2-0.4,2.2-2.2v-3.4c0-1.5-0.2-2.3-2.6-2.8v8.4H161.7z"/>
	<path class="st6" d="M173.7,131.2c-0.1-1.2-0.8-2.4-1.5-3.8c-0.8-1.5-1.5-3.1-1.5-4.7c0-3.7,3.1-5.6,5.5-5.6c0.3,0,0.3,0,1.9,1.3
		h0.1c1.5-1.1,1.6-1.3,1.8-1.3c1,0,5.2,0.2,5.2,5.3v8.8h-2.9v-9.1c0-3.2-1.7-3.5-1.8-3.5s-1.1,0.7-2.3,1.8H178
		c-1.5-1.1-2.3-1.8-2.4-1.8c-0.3,0-2.1,1.2-2.1,3.8c0,1.3,0.4,2.5,0.9,3.6c0.4,1,0.8,1.9,1,2.9h0.1c0.3-0.9,1-1.7,1.9-2.8
		c-1.4-0.3-2.2-1.2-2.2-2.5c0-1.7,1.4-2.7,2.9-2.7c1.5,0,2.9,1.1,2.9,2.9c0,1.5-1,2.7-2,3.9c-0.8,1.1-1.9,2.2-2.4,3.5H173.7z
		 M179.5,123.4c0-0.7-0.6-1.4-1.4-1.4c-1.1,0-1.5,0.8-1.5,1.4c0,1.3,1.1,1.7,1.8,1.7C178.5,125.2,179.5,124.3,179.5,123.4z"/>
	<path class="st6" d="M185.9,110.9c-0.7-0.5-1.3-0.6-1.9-0.6c-1.4,0-2.2,1.1-2.2,2.1c0,0.7,0.4,1.6,1.5,1.8
		c-0.3-0.3-0.4-0.7-0.4-1.1c0-0.8,0.7-1.6,1.6-1.6c0.9,0,1.6,0.7,1.6,1.6c0,1.4-1.4,2-2.6,2c-2,0-3.7-1.2-3.7-3.2c0-1.9,1.7-3,3.5-3
		c0.6,0,1.2,0.1,1.8,0.4l0.6-3.7h2.7L185.9,110.9z M185.2,113.3c0-0.4-0.3-0.7-0.7-0.7s-0.8,0.3-0.8,0.8c0,0.3,0.1,0.6,0.5,1
		C184.8,114.2,185.2,113.7,185.2,113.3z"/>
</g>
</svg>