<!-- Generator: Adobe Illustrator 19.0.0, SVG Export Plug-In  -->
<svg version="1.1"
	 xmlns="http://www.w3.org/2000/svg" xmlns:xlink="http://www.w3.org/1999/xlink" xmlns:a="http://ns.adobe.com/AdobeSVGViewerExtensions/3.0/"
	 x="0px" y="0px" width="1020.2px" height="616.6px" viewBox="0 0 1020.2 616.6" style="enable-background:new 0 0 1020.2 616.6;"
	 xml:space="preserve">
<style type="text/css">
	.st0{fill:#086A87;stroke:#086A87;stroke-width:1.6552;stroke-linecap:round;stroke-linejoin:round;stroke-miterlimit:10;}
	.st1{fill:#33CCCC;stroke:#33CCCC;stroke-width:2.4912;stroke-miterlimit:10;}
	.st2{fill:#FFFFFF;}
	.st3{fill:none;stroke:#FF6633;stroke-width:2.4912;stroke-linecap:round;stroke-linejoin:round;stroke-miterlimit:10;}
	.st4{fill:#E3E3E3;stroke:#E3E3E3;stroke-width:2.4912;stroke-miterlimit:10;}
	.st5{fill:#086A87;stroke:#086A87;stroke-width:1.688;stroke-linecap:round;stroke-linejoin:round;stroke-miterlimit:10;}
	.st6{fill:#E3E3E3;stroke:#E3E3E3;stroke-width:2.0134;stroke-miterlimit:10;}
	.st7{fill:#33CCCC;}
	.st8{fill:#FF6633;}
	.st9{fill:#E3E3E3;stroke:#E3E3E3;stroke-width:2.0168;stroke-miterlimit:10;}
	.st10{fill:none;stroke:#33CCCC;stroke-miterlimit:10;}
	.st11{fill:#E3E3E3;stroke:#E3E3E3;stroke-width:1.7954;stroke-miterlimit:10;}
	.st12{fill:#E3E3E3;stroke:#E3E3E3;stroke-width:0.3287;stroke-miterlimit:10;}
	.st13{fill:#E3E3E3;stroke:#E3E3E3;stroke-width:0.1419;stroke-miterlimit:10;}
	.st14{fill:#E3E3E3;stroke:#E3E3E3;stroke-width:1.3743;stroke-miterlimit:10;}
	.st15{fill:#FF6633;stroke:#FF6633;stroke-width:3.2068;stroke-miterlimit:10;}
	.st16{fill:#33CCCC;stroke:#33CCCC;stroke-width:2.7946;stroke-miterlimit:10;}
	.st17{fill:#E3E3E3;stroke:#E3E3E3;stroke-width:2.7946;stroke-miterlimit:10;}
	.st18{fill:none;stroke:#E3E3E3;stroke-width:1.1825;stroke-miterlimit:10;}
	.st19{fill:#E3E3E3;stroke:#E3E3E3;stroke-width:1.1825;stroke-linecap:round;stroke-linejoin:round;stroke-miterlimit:10;}
	.st20{fill:#33CCCC;stroke:#33CCCC;stroke-width:1.1825;stroke-linecap:round;stroke-linejoin:round;stroke-miterlimit:10;}
	.st21{fill:#FF6633;stroke:#FF6633;stroke-width:1.1825;stroke-miterlimit:10;}
	.st22{fill:#086B87;}
	.st23{fill:none;stroke:#FF6633;stroke-width:1.1825;stroke-linecap:round;stroke-linejoin:round;stroke-miterlimit:10;}
	.st24{fill:none;stroke:#EC6B4A;stroke-width:2.1757;stroke-miterlimit:10;}
	.st25{fill:#CBCACC;stroke:#CBCACC;stroke-width:2.3677;stroke-miterlimit:10;}
	.st26{fill:#E3E3E3;stroke:#E3E3E3;stroke-width:2.1757;stroke-miterlimit:10;}
	.st27{fill:none;stroke:#33CCCC;stroke-width:0.9706;stroke-miterlimit:10;}
	.st28{fill:#33CCCC;stroke:#149995;stroke-width:1.1276;stroke-linecap:round;stroke-linejoin:round;stroke-miterlimit:10;}
	.st29{fill:#33CCCC;stroke:#149995;stroke-width:1.1672;stroke-linecap:round;stroke-linejoin:round;stroke-miterlimit:10;}
</style>
<defs>
</defs>
<rect x="0.8" y="0.8" class="st0" width="1018.6" height="614.9"/>
<g>
	<path class="st1" d="M800.4,555.1H670.9c-3.6,0-6.5-2.9-6.5-6.5V368.1c0-3.6,2.9-6.5,6.5-6.5h129.4c3.6,0,6.5,2.9,6.5,6.5v180.5
		C806.9,552.2,803.9,555.1,800.4,555.1z"/>
	<rect x="680.6" y="372" class="st2" width="109.6" height="158.5"/>
	<line class="st3" x1="717.3" y1="417.9" x2="768" y2="417.9"/>
	<line class="st3" x1="717.3" y1="428.4" x2="779.2" y2="428.4"/>
	<line class="st3" x1="717.3" y1="437.9" x2="768" y2="437.9"/>
	<line class="st3" x1="717.3" y1="448.4" x2="779.2" y2="448.4"/>
	<line class="st3" x1="717.3" y1="458" x2="768" y2="458"/>
	<line class="st3" x1="717.3" y1="468.5" x2="779.2" y2="468.5"/>
	<line class="st3" x1="717.3" y1="478" x2="768" y2="478"/>
	<line class="st3" x1="717.3" y1="488.5" x2="779.2" y2="488.5"/>
	<rect x="695.2" y="415.6" class="st4" width="13.9" height="12.8"/>
	<rect x="695.2" y="436.8" class="st4" width="13.9" height="12.8"/>
	<rect x="695.2" y="458" class="st4" width="13.9" height="12.8"/>
	<rect x="695.2" y="479.1" class="st4" width="13.9" height="12.8"/>
	<path class="st5" d="M763.9,361.6h-12.7v-3.8h0c-0.3-8.4-7.2-15.1-15.7-15.1c-8.5,0-15.4,6.7-15.7,15.1h0v3.8h-12.2
		c-4.8,0-8.8,3.9-8.8,8.8v5.8c0,1,0.2,2,0.5,2.9h73c0.3-0.9,0.5-1.9,0.5-2.9v-5.8C772.6,365.6,768.7,361.6,763.9,361.6z
		 M730.2,357.8c0-2.9,2.3-5.2,5.2-5.2c2.9,0,5.2,2.3,5.2,5.2v3.8h-10.4V357.8z"/>
</g>
<rect x="430.3" y="365.4" class="st6" width="16.4" height="54.4"/>
<rect x="455.5" y="353.7" class="st7" width="16.4" height="66.7"/>
<rect x="480.7" y="385.9" class="st8" width="16.4" height="34.6"/>
<rect x="505.9" y="343.3" class="st9" width="16.4" height="76.5"/>
<rect x="400.4" y="342.7" class="st7" width="16.4" height="77.2"/>
<line class="st10" x1="380.1" y1="420.5" x2="634.6" y2="420.5"/>
<path class="st8" d="M657.9,498h-94.2c-3.6,0-6.5-2.9-6.5-6.5V323.8c0-3.6,2.9-6.5,6.5-6.5h94.2c3.6,0,6.5,2.9,6.5,6.5v167.6
	C664.4,495,661.5,498,657.9,498z"/>
<path class="st11" d="M617.4,327H609c-0.9,0-1.6-0.7-1.6-1.6l0,0c0-0.9,0.7-1.6,1.6-1.6h8.4c0.9,0,1.6,0.7,1.6,1.6l0,0
	C619,326.3,618.3,327,617.4,327z"/>
<circle class="st12" cx="610.8" cy="486.6" r="6"/>
<circle class="st13" cx="599.6" cy="325.4" r="2.6"/>
<path class="st8" d="M817,161.9c0,0-1.9,9.7-11.5,11.1c9.7,1.4,11.5,11.1,11.5,11.1s1.9-9.7,11.5-11.1
	C818.8,171.7,817,161.9,817,161.9"/>
<path class="st8" d="M803,188.4c0,0-4.6,23.9-28.3,27.4c23.7,3.5,28.3,27.4,28.3,27.4s4.6-23.9,28.3-27.4
	C807.6,212.3,803,188.4,803,188.4 M803,195.8c0.8,1.9,1.9,4.1,3.3,6.3c4.1,6.4,9.7,11.1,16.3,13.8c-6.7,2.7-12.2,7.3-16.3,13.8
	c-1.4,2.2-2.5,4.3-3.3,6.3c-0.8-1.9-1.9-4.1-3.3-6.3c-4.1-6.4-9.7-11.1-16.3-13.8c6.7-2.7,12.2-7.3,16.3-13.8
	C801.1,199.8,802.2,197.7,803,195.8"/>
<path class="st14" d="M776.4,196.3c-1.1-2.3-3.1-5.2-6.6-6.8c3.5-1.6,5.5-4.6,6.6-6.8c1.1,2.3,3.1,5.2,6.6,6.8
	C779.5,191.2,777.5,194.1,776.4,196.3z"/>
<path class="st15" d="M855.6,257.7c-1.1,0-2.3,0.1-3.4,0.2V288l26.4-18.1C873.6,262.6,865.2,257.7,855.6,257.7z"/>
<path class="st16" d="M883.2,289c0.1-1.1,0.2-2.3,0.2-3.5c0-5.8-1.8-11.2-4.8-15.6L852.3,288v1H883.2z"/>
<path class="st17" d="M852.3,289V258c-13.8,1.7-24.4,13.4-24.4,27.6c0,15.4,12.5,27.8,27.8,27.8c14.2,0,25.9-10.6,27.6-24.3H852.3z"
	/>
<path class="st16" d="M854.3,356.9V329c-1.3,0-2.6,0.1-3.9,0.3c-13.5,1.9-23.9,13.5-23.9,27.5c0,15.4,12.5,27.8,27.8,27.8
	c7.1,0,13.5-2.6,18.4-7l0,0L854.3,356.9z"/>
<path class="st17" d="M882.1,356.9c0-15.4-12.5-27.8-27.8-27.8v27.8l18.4,20.8l0,0C878.5,372.6,882.1,365.1,882.1,356.9z"/>
<g>
	<path class="st18" d="M856.8,411.6c0-2.9,2.3-5.2,5.2-5.2c2.9,0,5.2,2.3,5.2,5.2c0,2.9-2.3,5.2-5.2,5.2v3.8"/>
	<polygon class="st18" points="840.4,433.7 862,420.5 883.6,433.7 	"/>
	<path class="st18" d="M875.9,411.6c0-2.9,2.3-5.2,5.2-5.2c2.9,0,5.2,2.3,5.2,5.2c0,2.9-2.3,5.2-5.2,5.2v3.8"/>
	<polygon class="st18" points="859.5,433.7 881.1,420.5 902.7,433.7 	"/>
	<path class="st18" d="M895,411.6c0-2.9,2.3-5.2,5.2-5.2c2.9,0,5.2,2.3,5.2,5.2c0,2.9-2.3,5.2-5.2,5.2v3.8"/>
	<polygon class="st18" points="878.6,433.7 900.2,420.5 921.8,433.7 	"/>
	<path class="st18" d="M822.4,532.2V421.1c0-3.8,3.1-6.9,6.9-6.9h100.8c3.8,0,6.9,3.1,6.9,6.9v111.1"/>
	<path class="st19" d="M840.1,447.4c0,0-1.2,12.7,5,15.4l-13.5,46.7h49.8l-13.1-46.7c0,0,8.3-4.8,5-15.4H840.1z"/>
	<polygon class="st19" points="843,447.4 845.7,432.8 850.5,432.8 850.5,447.4 	"/>
	<polygon class="st19" points="869.4,447.4 866.7,432.8 861.9,432.8 861.9,447.4 	"/>
	<path class="st20" d="M862.2,447.4c0,0-1.2,12.7,5,15.4l-13.5,46.7h49.8l-13.1-46.7c0,0,8.3-4.8,5-15.4H862.2z"/>
	<polygon class="st20" points="865.3,447.4 868,432.8 872.9,432.8 872.9,447.4 	"/>
	<polygon class="st20" points="891.8,447.4 889.1,432.8 884.2,432.8 884.2,447.4 	"/>
	<path class="st21" d="M883.8,447.4c0,0-1.2,12.7,5,15.4l-13.5,46.7h49.8L912,462.9c0,0,8.3-4.8,5-15.4H883.8z"/>
	<polygon class="st22" points="886.9,447.4 889.6,432.8 894.4,432.8 894.4,447.4 	"/>
	<polygon class="st21" points="886.9,447.4 889.6,432.8 894.4,432.8 894.4,447.4 	"/>
	<polygon class="st22" points="913.3,447.4 910.6,432.8 905.8,432.8 905.8,447.4 	"/>
	<polygon class="st21" points="913.3,447.4 910.6,432.8 905.8,432.8 905.8,447.4 	"/>
	<line class="st23" x1="923.9" y1="532.2" x2="950" y2="532.2"/>
	<line class="st23" x1="807.3" y1="532.2" x2="833.4" y2="532.2"/>
</g>
<path class="st24" d="M670,255.2v-33.1l0.1-10.4h0c0.6-15.3,13.6-27.4,29.5-27.4c16,0,28.9,12.1,29.5,27.4h0l-0.1,10.2v33.3"/>
<path class="st25" d="M773.6,391.8h-148V230.4h148V391.8z"/>
<rect x="625.2" y="353.3" class="st26" width="148.7" height="42"/>
<polyline class="st27" points="757.8,290.4 788.1,290.4 814,251.6 831.3,251.6 853.5,216.7 905,216.7 933.4,169.6 "/>
<polygon class="st7" points="927.4,167.6 937.5,175.2 938,164.1 "/>
<path class="st28" d="M573.6,150.3h-30.9c-16.8,0-30.6,13.8-30.6,30.6v0c0,16.8,13.8,30.6,30.6,30.6h23.8l12.7,15.1v-15.6
	c14.2-2.6,25.1-15.1,25.1-30.1v0C604.2,164.1,590.4,150.3,573.6,150.3z"/>
<path class="st29" d="M521.9,556.9h-32c-17.4,0-31.7-14.2-31.7-31.7l0,0c0-17.4,14.2-31.7,31.7-31.7h24.6l13.1-15.6v16.2
	c14.7,2.7,25.9,15.7,25.9,31.1l0,0C553.6,542.7,539.3,556.9,521.9,556.9z"/>
<g>
	<path class="st2" d="M88.8,437.9v11.4c0,1.7-0.3,2.3-1.6,2.3h-1.1l-3.6-5.6l-3.6,4.9c-0.4,0.5-0.6,0.8-1.1,0.8h-1.9v-10
		c0-2.1,1.5-3.9,3.8-3.9c2.2,0,3.1,1.5,3.1,2.7c0,1.9-1.3,3-2.8,3c-0.4,0-0.9-0.1-1.3-0.2v3.6c0,0.8-0.1,1.5-0.3,2.4l0.1,0l4-5.3
		h0.3l3.4,5.2l0.1,0c-0.1-0.9-0.2-1.6-0.2-2.4v-3.4c0-0.9,0-2-0.1-4.3l2.5-1.1H88.8z M79.8,442.2c0.9,0,1.6-0.7,1.6-1.6
		c0-1-0.5-1.7-1.6-1.7c-1,0-1.4,0.8-1.4,1.7c0,0.4,0.1,0.9,0.2,1.3C79,442.1,79.4,442.2,79.8,442.2z"/>
	<path class="st2" d="M101.6,451.5v-6.7c-0.9-1-2.2-1.6-3.3-1.6c-1.1,0-2.2,0.6-2.2,2.3c0,0.3,0,0.5,0.1,0.8
		c0.4-0.2,0.9-0.4,1.4-0.4c1.6,0,2.4,1.2,2.4,2.8c0,1.8-1.2,3-3,3c-2.2,0-3.6-1.5-3.6-4.3v-1c0-4.3,3.5-4.6,4.7-4.6
		c1.1,0,2.4,0.4,3.5,1.1v-0.2c0-2.2-1.2-3.7-3.2-3.7c-1.6,0-3,0.7-4.2,1.8l-0.9-1.2c1.7-1.5,3.3-2.1,5.4-2.1c2.9,0,5.7,1.5,5.7,4.9
		v9.1H101.6z M95.9,448.8c0,1.1,0.4,1.8,1.4,1.8c0.9,0,1.4-0.8,1.4-1.7c0-1.2-0.8-1.6-1.5-1.6c-0.5,0-1,0.2-1.3,0.6
		C95.9,448.1,95.9,448.5,95.9,448.8z"/>
	<path class="st2" d="M120.4,436.1c-0.1,1.3-0.8,2.3-1.7,3.1c0.8,0.8,1.3,1.8,1.3,3.2v9.1h-2.8v-6.7c-0.9-1-2.2-1.6-3.3-1.6
		c-1.1,0-2.2,0.6-2.2,2.3c0,0.3,0,0.5,0.1,0.8c0.4-0.2,0.9-0.4,1.4-0.4c1.6,0,2.4,1.2,2.4,2.8c0,1.8-1.2,3-3,3
		c-2.2,0-3.6-1.5-3.6-4.3v-1c0-4.3,3.5-4.6,4.7-4.6c1.1,0,2.4,0.4,3.5,1.1v-0.2c0-0.8-0.2-1.6-0.5-2.1c-0.5,0.3-1.1,0.6-1.6,0.8
		l-0.8-0.5v-0.1c0.5-0.3,1.1-0.7,1.6-1.2c-0.5-0.4-1.2-0.6-1.9-0.6c-1.6,0-3,0.7-4.2,1.8l-0.9-1.2c1.7-1.5,3.3-2.1,5.4-2.1
		c1,0,2,0.2,2.9,0.6c0.4-0.6,0.6-1.3,0.6-2H120.4z M111.4,448.8c0,1.1,0.4,1.8,1.4,1.8c0.9,0,1.4-0.8,1.4-1.7c0-1.2-0.8-1.6-1.5-1.6
		c-0.5,0-1,0.2-1.3,0.6C111.5,448.1,111.4,448.5,111.4,448.8z"/>
	<path class="st2" d="M118.4,431.2c1.5,0,2.5,1.1,2.5,2.5c0,1.4-1.1,2.5-2.5,2.5c-1.4,0-2.5-1.1-2.5-2.5
		C116,432.3,117.1,431.2,118.4,431.2z M118.4,435.1c0.9,0,1.4-0.6,1.4-1.4s-0.6-1.4-1.4-1.4c-0.8,0-1.4,0.6-1.4,1.4
		S117.7,435.1,118.4,435.1z M128.7,451.5v-8.8c0-2.4-1.3-3.3-2.7-3.3c-1,0-1.9,0.5-2.8,1.2l-0.9-1.3c1.3-1.1,2.7-1.7,4.3-1.7
		c2.6,0,5,1.7,5,4.9v9.1H128.7z"/>
	<path class="st2" d="M134.3,441.5c0-3.1,2.1-4.5,4-4.5c1.2,0,2,0.4,2.8,0.8c0.6,0.3,1.1,0.5,1.6,0.5c0.6,0,1.1-0.4,1.4-0.8l0.8,1.1
		c-0.9,1.2-1.8,1.6-2.8,1.6c-1.1,0-1.9-0.3-2.7-0.6c-0.7-0.3-1.5-0.5-2.1-0.5c-0.7,0-1.2,0.4-1.2,0.9c0,0.1,0,0.3,0.1,0.5
		c3.5,0.3,5.6,0.6,6.8,1.5c1.1,0.8,1.1,1.5,1.1,3.3v2.8c0,2.3-1.5,3.8-3.7,3.8c-1.8,0-3.1-1.2-3.1-2.9c0-1.8,1.3-3,2.9-3
		c0.4,0,0.8,0.1,1.1,0.2v-1.5c0-1.9-1-2.5-7-2.9C134.3,441.7,134.3,441.6,134.3,441.5z M140.4,447.2c-1,0-1.6,0.8-1.6,1.7
		c0,1.1,0.8,1.7,1.6,1.7c0.7,0,1.4-0.6,1.4-1.9c0-0.4-0.1-0.7-0.2-1C141.3,447.3,140.8,447.2,140.4,447.2z"/>
	<path class="st2" d="M145.9,439.7c1.7-1.5,3.2-2.1,5.3-2.1c2.9,0,5.7,1.5,5.7,4.9v5.6c0,2.3-1.5,3.8-3.7,3.8
		c-1.8,0-3.1-1.2-3.1-2.9c0-1.8,1.3-3,2.9-3c0.4,0,0.8,0.1,1.1,0.2v-3.5c0-2.2-1.2-3.7-3.2-3.7c-1.6,0-2.9,0.7-4.1,1.8L145.9,439.7z
		 M153.1,447.2c-1,0-1.6,0.8-1.6,1.7c0,1.1,0.8,1.7,1.6,1.7c0.7,0,1.4-0.6,1.4-1.9c0-0.4-0.1-0.7-0.2-1
		C154,447.3,153.5,447.2,153.1,447.2z"/>
	<path class="st2" d="M160.7,439.7c1.6-1.5,3.2-2.1,5.3-2.1c2.9,0,5.7,1.5,5.7,4.9v6.5c0,1.5-0.7,2.6-2.8,2.6h-2.6l-1.8-5.1
		c-0.5,0.4-1.2,0.7-1.9,0.7c-1.5,0-2.5-1.1-2.5-2.6c0-1.6,1.3-2.8,2.8-2.8c1.7,0,2.6,1,3.3,2.9l1.9,5.3c0.6,0,0.7-0.3,0.7-1.4v-5.8
		c0-2.2-1.2-3.7-3.2-3.7c-1.6,0-2.8,0.7-3.9,1.8L160.7,439.7z M162.6,443.1c-0.7,0-1.3,0.6-1.3,1.5c0,0.9,0.6,1.5,1.5,1.5
		c0.7,0,1.2-0.3,1.5-0.9C164.2,444.2,163.6,443.1,162.6,443.1z"/>
	<path class="st2" d="M175.7,439.7c1.7-1.5,3.2-2.1,5.3-2.1c2.9,0,5.7,1.5,5.7,4.9v6.5c0,1.5-0.7,2.6-2.8,2.6h-2.6l-1.8-5.1
		c-0.5,0.4-1.2,0.7-1.9,0.7c-1.5,0-2.5-1.1-2.5-2.6c0-1.6,1.3-2.8,2.8-2.8c1.7,0,2.6,1,3.3,2.9l1.9,5.3c0.6,0,0.7-0.3,0.7-1.4v-5.8
		c0-2.2-1.2-3.7-3.2-3.7c-1.6,0-2.8,0.7-3.9,1.8L175.7,439.7z M177.7,443.1c-0.7,0-1.3,0.6-1.3,1.5c0,0.9,0.6,1.5,1.5,1.5
		c0.7,0,1.2-0.3,1.5-0.9C179.3,444.2,178.7,443.1,177.7,443.1z"/>
	<path class="st2" d="M195.5,451.5v-8.8c0-2.4-1.3-3.3-2.7-3.3c-1,0-1.9,0.5-2.8,1.2l-0.9-1.3c1.3-1.1,2.7-1.7,4.3-1.7
		c2.6,0,5,1.7,5,4.9v9.1H195.5z"/>
	<path class="st2" d="M211,451.8c0.1-2.2,0.1-3.7,0.1-4.6V443c0-3.3-1.8-4-3.2-4c-1.4,0-2.4,0.7-2.8,2.1l3.1,0.6l-0.5,1.3
		c-1.3,0.3-1.6,1-1.6,2.6v6h-2.8v-5.7c0-1.5,0.4-2.4,2-3.1l0-0.1l-3-0.5c0.2-2,1.7-4.5,5.8-4.5c2.1,0,5.7,0.7,5.7,5v8.2l-2.2,1H211z
		"/>
	<path class="st2" d="M231.2,437.9v11.4c0,1.7-0.3,2.3-1.6,2.3h-1.1l-3.6-5.6l-3.6,4.9c-0.4,0.5-0.6,0.8-1.1,0.8h-1.9v-10
		c0-2.1,1.5-3.9,3.8-3.9c2.2,0,3.1,1.5,3.1,2.7c0,1.9-1.3,3-2.8,3c-0.4,0-0.9-0.1-1.3-0.2v3.6c0,0.8-0.1,1.5-0.3,2.4l0.1,0l4-5.3
		h0.3l3.4,5.2l0.1,0c-0.1-0.9-0.2-1.6-0.2-2.4v-3.4c0-0.9,0-2-0.1-4.3l2.5-1.1H231.2z M222.1,442.2c0.9,0,1.6-0.7,1.6-1.6
		c0-1-0.5-1.7-1.6-1.7c-1,0-1.4,0.8-1.4,1.7c0,0.4,0.1,0.9,0.2,1.3C221.4,442.1,221.8,442.2,222.1,442.2z"/>
	<path class="st2" d="M230.8,452.9h0.2v3.7c0,2.7-1.1,2.8-3.3,2.8h-3.5l0.1-1h1.2v-1.6c-0.3,0.2-0.6,0.2-0.9,0.2c-1.1,0-2-0.7-2-1.9
		c0-1.2,0.9-2.2,2.2-2.2c0.7,0,2.2,0.4,2.2,2.4v3.1h0.3c1.2,0,1.7,0,1.7-1.6v-3.2L230.8,452.9z M225.8,455c0-0.5-0.3-1.1-1-1.1
		c-0.7,0-1.1,0.4-1.1,1.1c0,0.7,0.5,1,1,1c0.4,0,0.7-0.1,1-0.4C225.7,455.4,225.8,455.2,225.8,455z"/>
	<path class="st2" d="M224.8,435c0.6-0.1,1.3-0.4,1.7-0.9c-1.1-0.1-2-0.9-2-2c0-1.3,1-2.2,2.3-2.2c1.4,0,2.1,1,2.1,2.1
		c0,0.8-0.4,1.7-1.2,2.4l0,0.1c2.1-0.5,2.9-2.2,3-4.4h2.6c-0.4,2.1-1.4,3.7-3.2,4.7c-1.3,0.7-2.9,0.9-5.4,1.1L224.8,435z M226.7,431
		c-0.6,0-1.1,0.4-1.1,1c0,0.7,0.6,1.2,1.3,1.2c0.6,0,0.9-0.6,0.9-1.1C227.8,431.5,227.3,431,226.7,431z"/>
	<path class="st2" d="M237.9,451.5c-0.1-1.1-0.8-2.4-1.5-3.7c-0.8-1.5-1.5-3-1.5-4.6c0-3.6,3-5.4,5.3-5.4c0.3,0,0.3,0,1.9,1.3h0.1
		c1.4-1.1,1.6-1.3,1.7-1.3c1,0,5.1,0.2,5.1,5.1v8.5h-2.8v-8.8c0-3.1-1.6-3.4-1.7-3.4s-1,0.7-2.3,1.7h-0.1c-1.4-1.1-2.2-1.7-2.3-1.7
		c-0.3,0-2,1.1-2,3.7c0,1.2,0.4,2.4,0.9,3.5c0.4,1,0.8,1.9,1,2.8h0.1c0.3-0.9,1-1.7,1.9-2.7c-1.4-0.3-2.2-1.2-2.2-2.5
		c0-1.7,1.4-2.6,2.8-2.6c1.5,0,2.8,1,2.8,2.8c0,1.4-1,2.6-1.9,3.8c-0.8,1-1.8,2.1-2.3,3.4H237.9z M243.6,443.9
		c0-0.7-0.6-1.3-1.4-1.3c-1,0-1.5,0.8-1.5,1.4c0,1.3,1.1,1.6,1.7,1.6C242.6,445.6,243.6,444.8,243.6,443.9z"/>
	<path class="st2" d="M253,439.8c1.7-1.5,3.5-2.2,5.5-2.2c2.9,0,5.6,1.5,5.6,4.9v4.7c0,3.8-2.3,4.8-5.6,4.8c-3.3,0-5.2-1.4-5.2-4.1
		v-2.5c0-2.1,1.3-3.9,3.6-3.9c2.1,0,2.9,1.5,2.9,2.7c0,1.9-1.2,2.9-2.5,2.9c-0.4,0-0.9-0.1-1.3-0.2v1.3c0,1.9,1,2.6,2.6,2.6
		c1.7,0,2.6-0.7,2.6-2.6v-5.2c0-2.2-1.1-3.6-3.2-3.6c-1.6,0-3.1,0.6-4.3,1.8L253,439.8z M257.1,445.8c0.9,0,1.5-0.7,1.5-1.6
		c0-1-0.5-1.7-1.5-1.7c-0.9,0-1.2,0.8-1.2,1.7c0,0.4,0.1,0.9,0.2,1.3C256.4,445.7,256.8,445.8,257.1,445.8z"/>
	<path class="st2" d="M270.3,443.5c-1.4,0-2.8-1-2.8-2.8c0-2,1.5-3.1,3.2-3.1c1.1,0,3.6,0.5,3.6,4.2v8.3h0.6c2.4,0,3.3-0.2,3.3-2.6
		v-4.2c0-0.9,0-2-0.1-4.3l2.5-1.1h0.3v9.7c0,3.5-1.6,4-5,4h-6.5l0.2-1.5h1.8v-6.8C271.1,443.4,270.7,443.5,270.3,443.5z M272,440.4
		c0-1-0.6-1.6-1.4-1.6c-1,0-1.6,0.8-1.6,1.7c0,1.2,0.8,1.7,1.6,1.7c0.5,0,0.9-0.2,1.3-0.5C271.9,441.3,272,440.9,272,440.4z"/>
	<path class="st2" d="M288.4,446.4c0.4-0.2,1-0.4,1.4-0.4c1.5,0,2.5,1.2,2.5,2.7c0,1.7-1.3,3.1-3.1,3.1c-2.1,0-3.7-1.5-3.7-4.2v-4.2
		c0-1.6,0-3-0.1-4.6l2.3-1.1h0.5V446.4z M288.2,448.7c0,1.3,0.5,1.8,1.4,1.8c0.8,0,1.4-0.8,1.4-1.7c0-1.2-0.7-1.7-1.5-1.7
		c-0.5,0-0.9,0.2-1.2,0.6C288.2,448,288.2,448.3,288.2,448.7z M296.7,446.4c0.4-0.2,1-0.4,1.4-0.4c1.5,0,2.5,1.2,2.5,2.7
		c0,1.7-1.3,3.1-3.1,3.1c-2.1,0-3.7-1.5-3.7-4.2v-4.2c0-1.6,0-3-0.1-4.6l2.3-1.1h0.5V446.4z M296.5,448.7c0,1.3,0.5,1.8,1.4,1.8
		c0.8,0,1.4-0.8,1.4-1.7c0-1.2-0.7-1.7-1.5-1.7c-0.5,0-0.9,0.2-1.2,0.6C296.5,448,296.5,448.3,296.5,448.7z"/>
	<path class="st2" d="M305.7,443.5c-1.4,0-2.8-1-2.8-2.8c0-2,1.5-3.1,3.2-3.1c1.1,0,3.6,0.5,3.6,4.2v8.3h0.6c2.4,0,3.3-0.2,3.3-2.6
		v-4.2c0-0.9,0-2-0.1-4.3l2.5-1.1h0.3v9.7c0,3.5-1.7,4-5,4h-6.5l0.2-1.5h1.8v-6.8C306.5,443.4,306.1,443.5,305.7,443.5z
		 M307.3,440.4c0-1-0.6-1.6-1.4-1.6c-1,0-1.6,0.8-1.6,1.7c0,1.2,0.8,1.7,1.6,1.7c0.5,0,0.9-0.2,1.3-0.5
		C307.3,441.3,307.3,440.9,307.3,440.4z"/>
	<path class="st2" d="M322.5,443.5c-1.4,0-2.8-1-2.8-2.8c0-2,1.5-3.1,3.2-3.1c1.1,0,3.6,0.5,3.6,4.2v8.3h0.6c2.4,0,3.3-0.2,3.3-2.6
		v-4.2c0-0.9,0-2-0.1-4.3l2.5-1.1h0.3v9.7c0,3.5-1.7,4-5,4h-6.5l0.2-1.5h1.8v-6.8C323.3,443.4,322.9,443.5,322.5,443.5z
		 M324.2,440.4c0-1-0.6-1.6-1.4-1.6c-1,0-1.6,0.8-1.6,1.7c0,1.2,0.8,1.7,1.6,1.7c0.5,0,0.9-0.2,1.3-0.5
		C324.1,441.3,324.2,440.9,324.2,440.4z"/>
	<path class="st2" d="M349.2,436.1c-0.1,1.3-0.8,2.3-1.7,3.1c0.8,0.8,1.3,1.8,1.3,3.2v9.1h-2.8v-6.7c-0.9-1-2.2-1.6-3.3-1.6
		c-1.1,0-2.2,0.6-2.2,2.3c0,0.3,0,0.5,0.1,0.8c0.4-0.2,0.9-0.4,1.4-0.4c1.6,0,2.4,1.2,2.4,2.8c0,1.8-1.2,3-3,3
		c-2.2,0-3.6-1.5-3.6-4.3v-1c0-4.3,3.5-4.6,4.7-4.6c1.1,0,2.4,0.4,3.5,1.1v-0.2c0-0.8-0.2-1.6-0.5-2.1c-0.5,0.3-1.1,0.6-1.6,0.8
		l-0.8-0.5v-0.1c0.5-0.3,1.1-0.7,1.6-1.2c-0.5-0.4-1.2-0.6-1.9-0.6c-1.6,0-3,0.7-4.2,1.8l-0.9-1.2c1.7-1.5,3.3-2.1,5.4-2.1
		c1,0,2,0.2,2.9,0.6c0.4-0.6,0.6-1.3,0.6-2H349.2z M340.3,448.8c0,1.1,0.4,1.8,1.4,1.8c0.9,0,1.4-0.8,1.4-1.7c0-1.2-0.8-1.6-1.5-1.6
		c-0.5,0-1,0.2-1.3,0.6C340.3,448.1,340.3,448.5,340.3,448.8z"/>
	<path class="st2" d="M352.7,439.8c1.7-1.5,3.5-2.2,5.5-2.2c2.9,0,5.6,1.5,5.6,4.9v4.7c0,3.8-2.3,4.8-5.6,4.8
		c-3.3,0-5.2-1.4-5.2-4.1v-2.5c0-2.1,1.3-3.9,3.6-3.9c2.1,0,2.9,1.5,2.9,2.7c0,1.9-1.2,2.9-2.5,2.9c-0.4,0-0.9-0.1-1.3-0.2v1.3
		c0,1.9,1,2.6,2.6,2.6c1.7,0,2.6-0.7,2.6-2.6v-5.2c0-2.2-1.1-3.6-3.2-3.6c-1.6,0-3.1,0.6-4.3,1.8L352.7,439.8z M356.8,445.8
		c0.9,0,1.5-0.7,1.5-1.6c0-1-0.5-1.7-1.5-1.7c-0.9,0-1.2,0.8-1.2,1.7c0,0.4,0.1,0.9,0.2,1.3C356.1,445.7,356.4,445.8,356.8,445.8z"
		/>
	<path class="st2" d="M370,443.5c-1.4,0-2.8-1-2.8-2.8c0-2,1.5-3.1,3.2-3.1c1.1,0,3.6,0.5,3.6,4.2v8.3h0.6c2.4,0,3.3-0.2,3.3-2.6
		v-4.2c0-0.9,0-2-0.1-4.3l2.5-1.1h0.3v9.7c0,3.5-1.7,4-5,4h-6.5l0.2-1.5h1.8v-6.8C370.8,443.4,370.4,443.5,370,443.5z M371.7,440.4
		c0-1-0.6-1.6-1.4-1.6c-1,0-1.6,0.8-1.6,1.7c0,1.2,0.8,1.7,1.6,1.7c0.5,0,0.9-0.2,1.3-0.5C371.6,441.3,371.7,440.9,371.7,440.4z"/>
	<path class="st2" d="M393.4,447.2V443c0-3.3-1.8-4-3.2-4c-1.4,0-2.5,0.7-2.8,2.1l3.1,0.5l-0.5,1.3c-1.6,0.2-2.1,1-2.1,2.6v1
		c0.4-0.3,0.9-0.4,1.4-0.4c1.6,0,2.4,1.2,2.4,2.8c0,1.8-1.2,3-3,3c-2.2,0-3.5-1.5-3.5-4.3v-1.7c0-1.6,0.5-2.5,2.2-3.3v-0.1l-2.9-0.4
		c0.2-2,1.6-4.5,5.9-4.5c2.1,0,5.8,0.7,5.8,5v8.2l-2.2,1h-0.6C393.4,449.6,393.4,448,393.4,447.2z M387.7,448.8
		c0,1.1,0.4,1.8,1.4,1.8c0.9,0,1.4-0.8,1.4-1.7c0-1.2-0.8-1.6-1.5-1.6c-0.5,0-1,0.2-1.3,0.6C387.7,448.1,387.7,448.5,387.7,448.8z"
		/>
	<path class="st2" d="M405,451.5v-8.8c0-2.4-1.3-3.3-2.7-3.3c-1,0-1.9,0.5-2.8,1.2l-0.9-1.3c1.3-1.1,2.7-1.7,4.3-1.7
		c2.6,0,5,1.7,5,4.9v9.1H405z"/>
	<path class="st2" d="M415.4,445.6V443c-0.4,0.2-0.8,0.3-1.2,0.3c-1.4,0-2.8-1-2.8-2.7c0-1.9,1.5-3,3.2-3c1.1,0,3.7,0.5,3.7,4.2v4.5
		c1.6,0.7,3,1.7,4.3,2.9v-6c0-0.9,0-2-0.1-4.3l2.5-1.1h0.3v13.7h-2.8c-1-1.4-2.7-2.9-4.3-3.6c0,0.2,0,0.3,0,0.5
		c0,1.3-0.9,3.4-3.4,3.4c-1.9,0-3.3-1.3-3.3-3.2c0-1.7,1.3-3,3.1-3.1C415,445.5,415.2,445.5,415.4,445.6z M415.9,440.4
		c0-1-0.6-1.6-1.5-1.6c-1,0-1.6,0.7-1.6,1.6c0,1.1,0.8,1.6,1.6,1.6c0.5,0,0.9-0.2,1.3-0.5C415.8,441.2,415.9,440.8,415.9,440.4z
		 M415,447c-0.9,0-1.8,0.7-1.8,2c0,0.9,0.5,1.5,1.2,1.5c0.9,0,1.4-1,1.4-2c0-0.5,0-0.9-0.3-1.4C415.3,447,415.1,447,415,447z"/>
	<path class="st2" d="M436.6,451.5v-0.8c2.2-0.2,2.4-0.5,2.4-2.3v-7.1c0-1.3-0.1-1.5-1.2-1.6l-1.4-0.1V439c1.7-0.3,3.4-0.8,5.4-1.4
		v10.8c0,1.8,0.2,2.2,2.4,2.3v0.8H436.6z"/>
	<path class="st2" d="M453.1,437.6c4.1,0,5.3,3.8,5.3,7.1c0,3.2-1.3,7.1-5.4,7.1c-4.1,0-5.5-3.8-5.5-7.1
		C447.6,441.5,449,437.6,453.1,437.6L453.1,437.6z M450.6,444.7c0,2.9,0.6,6.2,2.5,6.2c1.9,0,2.4-3.2,2.4-6.1c0-3-0.6-6.1-2.4-6.1
		C451.1,438.6,450.6,441.7,450.6,444.7z"/>
	<path class="st2" d="M465.8,437.6c4.1,0,5.3,3.8,5.3,7.1c0,3.2-1.3,7.1-5.4,7.1s-5.5-3.8-5.5-7.1
		C460.3,441.5,461.7,437.6,465.8,437.6L465.8,437.6z M463.3,444.7c0,2.9,0.6,6.2,2.5,6.2c1.9,0,2.4-3.2,2.4-6.1c0-3-0.6-6.1-2.4-6.1
		C463.8,438.6,463.3,441.7,463.3,444.7z"/>
	<path class="st2" d="M478.5,437.6c4.1,0,5.3,3.8,5.3,7.1c0,3.2-1.3,7.1-5.4,7.1s-5.5-3.8-5.5-7.1
		C473,441.5,474.5,437.6,478.5,437.6L478.5,437.6z M476.1,444.7c0,2.9,0.6,6.2,2.5,6.2c1.9,0,2.4-3.2,2.4-6.1c0-3-0.6-6.1-2.4-6.1
		C476.5,438.6,476.1,441.7,476.1,444.7z"/>
	<path class="st2" d="M92.8,482.8c0-2.7-1.8-4.3-4.2-4.3c-2.6,0-4.2,1.6-4.2,4.6c0,1.1,0.4,2.3,0.7,3.3h0.1c0.2-1.9,0.6-3.3,1.2-4.2
		c0.6-0.9,1.6-1.3,2.5-1.3c1.5,0,2.7,1.1,2.7,2.6c0,1.7-1.2,2.9-2.8,2.9c-0.4,0-0.8-0.1-1.2-0.2c-0.6,1.6-1,3.6-1,5h-2.8
		c0-1.3-0.6-2.5-1.1-3.9c-0.6-1.4-1.2-2.8-1.2-4.4c0-3.6,3-5.7,7.1-5.7c5,0,6.9,2.4,6.9,5.6v8.4h-2.8V482.8z M87.5,484
		c0,0.8,0.8,1.2,1.4,1.2c0.7,0,1.6-0.5,1.6-1.6c0-0.8-0.6-1.5-1.4-1.5C88.1,482.1,87.5,482.9,87.5,484z"/>
	<path class="st2" d="M102.9,482.7c-0.4,0.1-0.8,0.2-1.2,0.2c-1.5,0-2.8-0.9-2.8-2.7c0-1.7,1.3-3,3.1-3c2.2,0,3.8,1.4,3.8,4.4v7.2
		c1.3-1.4,2.8-2.5,4.3-3.2v-2.7c0-0.9,0-2-0.1-4.3l2.5-1.1h0.3v7.2c0.2,0,0.4,0,0.6,0c1.9,0,3.2,1.3,3.2,3.2c0,2-1.4,3.6-3.5,3.6
		c-2,0-3.3-1.3-3.3-3.7c0-0.1,0-0.2,0-0.6c-1.9,1.1-3.5,2.8-4.3,4h-2.8V482.7z M103.3,480.3c0-1.3-0.6-1.8-1.5-1.8
		c-1,0-1.5,0.8-1.5,1.7c0,1.1,0.8,1.6,1.6,1.6c0.4,0,0.9-0.1,1.2-0.4C103.2,481,103.3,480.6,103.3,480.3z M112.8,486.2
		c-0.1,0.3-0.2,0.9-0.2,1.5c0,1.1,0.3,2.2,1.2,2.2c1,0,1.3-1.1,1.3-1.9c0-1-0.7-1.9-1.7-1.9C113.3,486.2,113.1,486.2,112.8,486.2z"
		/>
	<path class="st2" d="M124.3,469.1c-0.9,0-1.7,0.4-2.1,1.4c0.3-0.1,0.7-0.2,1-0.2c1.3,0,2.2,0.9,2.2,2.3c0,1.4-1.1,2.4-2.5,2.4
		c-1.7,0-2.7-1.3-2.7-3c0-2.6,2.1-4.2,4.5-4.2c2.2,0,4.3,1.3,4.3,3.8v14.3c0.4-0.2,1-0.4,1.5-0.4c1.6,0,2.7,1.2,2.7,2.8
		c0,1.8-1.3,3.1-3.1,3.1c-2.2,0-3.8-1.5-3.8-4.2v-15.5C126.4,470.1,125.8,469.1,124.3,469.1z M121.8,472.4c0,0.9,0.4,1.5,1.3,1.5
		c0.7,0,1.2-0.6,1.2-1.3c0-0.9-0.6-1.4-1.4-1.4c-0.4,0-0.7,0.1-1,0.4C121.8,472,121.8,472.2,121.8,472.4z M128.8,488.3
		c0,1.3,0.5,1.8,1.5,1.8c0.9,0,1.5-0.8,1.5-1.7c0-1.2-0.8-1.7-1.6-1.7c-0.5,0-1,0.2-1.3,0.6C128.9,487.5,128.8,487.9,128.8,488.3z"
		/>
	<path class="st2" d="M139.4,482.7c-0.4,0.1-0.8,0.2-1.2,0.2c-1.5,0-2.8-0.9-2.8-2.7c0-1.7,1.3-3,3.1-3c2.2,0,3.8,1.4,3.8,4.4v7.2
		c1.3-1.4,2.8-2.5,4.3-3.2v-2.7c0-0.9,0-2-0.1-4.3l2.5-1.1h0.3v7.2c0.2,0,0.4,0,0.6,0c1.9,0,3.2,1.3,3.2,3.2c0,2-1.4,3.6-3.5,3.6
		c-2,0-3.3-1.3-3.3-3.7c0-0.1,0-0.2,0-0.6c-1.9,1.1-3.5,2.8-4.3,4h-2.8V482.7z M139.8,480.3c0-1.3-0.6-1.8-1.5-1.8
		c-1,0-1.5,0.8-1.5,1.7c0,1.1,0.8,1.6,1.6,1.6c0.4,0,0.9-0.1,1.2-0.4C139.7,481,139.8,480.6,139.8,480.3z M149.3,486.2
		c-0.1,0.3-0.2,0.9-0.2,1.5c0,1.1,0.3,2.2,1.2,2.2c1,0,1.3-1.1,1.3-1.9c0-1-0.7-1.9-1.7-1.9C149.9,486.2,149.6,486.2,149.3,486.2z"
		/>
	<path class="st2" d="M161.4,487.7c0,2.2-1.2,3.7-3.4,3.7c-1.7,0-3-1.1-3-2.9c0-1.6,1.1-2.8,2.5-2.8c0.4,0,0.7,0,1,0.2v-1
		c0-1.1,0.3-2.1,1.6-2.7v-0.1l-3-0.5c0.3-2.1,1.9-4.5,5.9-4.5c2.1,0,5.6,0.7,5.6,5v8.2l-2.2,1h-0.6c0.1-2.2,0.1-3.7,0.1-4.6v-4.2
		c0-3.3-1.6-4-3-4c-1.4,0-2.5,0.8-2.9,2.1l3.1,0.5l-0.5,1.3c-1.2,0.3-1.3,1-1.3,2.2V487.7z M157.9,486.9c-0.8,0-1.5,0.6-1.5,1.6
		c0,1.1,0.8,1.6,1.4,1.6c0.8,0,1.5-0.8,1.5-1.8c0-0.4-0.1-0.8-0.3-1.2C158.6,487,158.3,486.9,157.9,486.9z"/>
	<path class="st2" d="M168.3,492.5h0.2v3.7c0,2.7-1.1,2.8-3.3,2.8h-3.5l0.1-1h1.2v-1.6c-0.3,0.2-0.6,0.2-0.9,0.2c-1.1,0-2-0.7-2-1.9
		c0-1.2,0.9-2.2,2.2-2.2c0.7,0,2.2,0.4,2.2,2.4v3.1h0.3c1.2,0,1.7,0,1.7-1.6v-3.2L168.3,492.5z M163.3,494.6c0-0.5-0.3-1.1-1-1.1
		c-0.7,0-1.1,0.4-1.1,1.1c0,0.7,0.5,1,1,1c0.4,0,0.7-0.1,1-0.4C163.3,495,163.3,494.8,163.3,494.6z"/>
	<path class="st2" d="M176.3,485.2v-2.5c-0.4,0.2-0.8,0.3-1.2,0.3c-1.4,0-2.8-1-2.8-2.7c0-1.9,1.5-3,3.2-3c1.1,0,3.7,0.5,3.7,4.2
		v4.5c1.6,0.7,3,1.7,4.3,2.9v-6c0-0.9,0-2-0.1-4.3l2.5-1.1h0.3v13.7h-2.8c-1-1.4-2.7-2.9-4.3-3.6c0,0.2,0,0.3,0,0.5
		c0,1.3-0.9,3.4-3.4,3.4c-1.9,0-3.3-1.3-3.3-3.2c0-1.7,1.3-3,3.1-3.1C175.9,485.1,176.1,485.1,176.3,485.2z M176.8,480
		c0-1-0.6-1.6-1.5-1.6c-1,0-1.6,0.7-1.6,1.6c0,1.1,0.8,1.6,1.6,1.6c0.5,0,0.9-0.2,1.3-0.5C176.7,480.8,176.8,480.4,176.8,480z
		 M175.9,486.6c-0.9,0-1.8,0.7-1.8,2c0,0.9,0.5,1.5,1.2,1.5c0.9,0,1.4-1,1.4-2c0-0.5,0-0.9-0.3-1.4
		C176.2,486.6,176,486.6,175.9,486.6z"/>
	<path class="st2" d="M182.4,469.6c2.9,0,4.7,2.1,4.7,4.6c0,0.7-0.2,1.4-0.4,2c-2.7-1.8-5.3-2.6-9-2.5
		C177.9,471.1,179.8,469.6,182.4,469.6z M186,474.6c-0.2-1.7-2.1-3-3.9-3c-1.2,0-2.1,0.4-2.7,1.2C181.8,472.9,183.9,473.4,186,474.6
		z"/>
	<path class="st2" d="M195.8,487.7c0,2.2-1.2,3.7-3.4,3.7c-1.7,0-3-1.1-3-2.9c0-1.6,1.1-2.8,2.5-2.8c0.4,0,0.7,0,1,0.2v-1
		c0-1.1,0.3-2.1,1.6-2.7v-0.1l-3-0.5c0.3-2.1,1.9-4.5,5.9-4.5c2.1,0,5.6,0.7,5.6,5v8.2l-2.2,1h-0.6c0.1-2.2,0.1-3.7,0.1-4.6v-4.2
		c0-3.3-1.6-4-3-4c-1.4,0-2.5,0.8-2.9,2.1l3.1,0.5l-0.5,1.3c-1.2,0.3-1.3,1-1.3,2.2V487.7z M192.2,486.9c-0.8,0-1.5,0.6-1.5,1.6
		c0,1.1,0.8,1.6,1.4,1.6c0.8,0,1.5-0.8,1.5-1.8c0-0.4-0.1-0.8-0.3-1.2C193,487,192.6,486.9,192.2,486.9z"/>
	<path class="st2" d="M211.8,491.1v-8.8c0-2.4-1.3-3.3-2.7-3.3c-1,0-1.9,0.5-2.8,1.2l-0.9-1.3c1.3-1.1,2.7-1.7,4.3-1.7
		c2.6,0,5,1.7,5,4.9v9.1H211.8z"/>
	<path class="st2" d="M229.8,482.8c0-2.7-1.8-4.3-4.2-4.3c-2.6,0-4.2,1.6-4.2,4.6c0,1.1,0.4,2.3,0.7,3.3h0.1
		c0.2-1.9,0.6-3.3,1.2-4.2c0.6-0.9,1.6-1.3,2.5-1.3c1.5,0,2.7,1.1,2.7,2.6c0,1.7-1.2,2.9-2.8,2.9c-0.4,0-0.8-0.1-1.2-0.2
		c-0.6,1.6-1,3.6-1,5h-2.8c0-1.3-0.6-2.5-1.1-3.9c-0.6-1.4-1.2-2.8-1.2-4.4c0-3.6,3-5.7,7.1-5.7c5,0,6.9,2.4,6.9,5.6v8.4h-2.8V482.8
		z M224.4,484c0,0.8,0.8,1.2,1.4,1.2c0.7,0,1.6-0.5,1.6-1.6c0-0.8-0.6-1.5-1.4-1.5C225.1,482.1,224.4,482.9,224.4,484z"/>
	<path class="st2" d="M240,485.9c0.4-0.2,1-0.4,1.5-0.4c1.6,0,2.7,1.2,2.7,2.8c0,1.8-1.4,3.1-3.2,3.1c-2.2,0-3.8-1.5-3.8-4.2v-4.2
		c0-1.6,0-3-0.1-4.6l2.3-1.1h0.5V485.9z M239.7,488.3c0,1.3,0.5,1.8,1.5,1.8c0.9,0,1.5-0.8,1.5-1.7c0-1.2-0.8-1.7-1.6-1.7
		c-0.5,0-1,0.2-1.3,0.6C239.7,487.5,239.7,487.9,239.7,488.3z"/>
	<path class="st2" d="M246.9,479.4c1.7-1.5,3.5-2.2,5.5-2.2c2.9,0,5.6,1.5,5.6,4.9v4.7c0,3.8-2.3,4.8-5.6,4.8
		c-3.3,0-5.2-1.4-5.2-4.1v-2.5c0-2.1,1.3-3.9,3.6-3.9c2.1,0,2.9,1.5,2.9,2.7c0,1.9-1.2,2.9-2.5,2.9c-0.4,0-0.9-0.1-1.3-0.2v1.3
		c0,1.9,1,2.6,2.6,2.6c1.7,0,2.6-0.7,2.6-2.6v-5.2c0-2.2-1.1-3.6-3.2-3.6c-1.6,0-3.1,0.6-4.3,1.8L246.9,479.4z M250.9,485.4
		c0.9,0,1.5-0.7,1.5-1.6c0-1-0.5-1.7-1.5-1.7c-0.9,0-1.2,0.8-1.2,1.7c0,0.4,0.1,0.9,0.2,1.3C250.3,485.3,250.6,485.4,250.9,485.4z"
		/>
	<path class="st2" d="M265.5,485.9c0.4-0.2,1-0.4,1.5-0.4c1.6,0,2.7,1.2,2.7,2.8c0,1.8-1.4,3.1-3.2,3.1c-2.2,0-3.8-1.5-3.8-4.2v-4.2
		c0-1.6,0-3-0.1-4.6l2.3-1.1h0.5V485.9z M265.2,488.3c0,1.3,0.5,1.8,1.5,1.8c0.9,0,1.5-0.8,1.5-1.7c0-1.2-0.8-1.7-1.6-1.7
		c-0.5,0-1,0.2-1.3,0.6C265.2,487.5,265.2,487.9,265.2,488.3z"/>
	<path class="st2" d="M275.6,489.7h1.8V481c0-1.6-0.5-2.6-2-2.6c-0.9,0-1.7,0.4-2.1,1.4c0.3-0.1,0.7-0.2,1-0.2c1.3,0,2.2,1,2.2,2.4
		c0,1.4-1.2,2.5-2.5,2.5c-1.8,0-2.8-1.4-2.8-3.1c0-2.6,2.1-4.2,4.7-4.2c2,0,3.9,1.1,4.2,3.1c2-0.4,2.6-2,2.8-3.8h2.8
		c-0.3,2.2-1.5,3.5-3.4,4.3v0c2.8,0.5,3.2,2.1,3.2,3.7v3.5c0,2.9-2,3.1-4.3,3.1h-5.7L275.6,489.7z M272.8,481.8
		c0,0.9,0.5,1.6,1.4,1.6c0.7,0,1.2-0.7,1.2-1.4c0-0.9-0.6-1.4-1.4-1.4c-0.4,0-0.8,0.1-1.1,0.4C272.8,481.3,272.8,481.5,272.8,481.8z
		 M280.1,489.7h0.4c1.7,0,2.1-0.4,2.1-2.1v-3.3c0-1.5-0.2-2.2-2.5-2.7V489.7z"/>
	<path class="st2" d="M281.5,469.6c0.8,0,1.4,0.1,2,0.4v-2.4l1.6-0.7h0.3v4.7c0.6,0.8,0.8,1.7,0.8,2.7c0,0.7-0.2,1.4-0.4,2
		c-2.7-1.8-5.3-2.6-9-2.5C277.1,471.1,279,469.6,281.5,469.6z M285.2,474.6c-0.2-1.7-2.1-3-3.9-3c-1.2,0-2.1,0.4-2.7,1.2
		C280.9,472.9,283,473.4,285.2,474.6z"/>
	<path class="st2" d="M300.6,477.5v9.1c0,3.8-2.4,4.8-5.6,4.8c-3.6,0-5.6-1.4-5.6-3.6v-0.2c0-1.8,1.4-2.6,2.3-2.8v-0.1
		c-1.6-0.6-2.3-1.6-2.3-3.5v-0.3c0-1.7,1.2-3.7,3.9-3.7c1.6,0,2.8,1.2,2.8,2.7c0,1.7-1.2,2.7-2.5,2.7c-0.5,0-1-0.1-1.5-0.5
		c0,1.1,0.7,1.7,2.1,1.7h1.1v1.7h-1.4c-1.1,0-1.7,0.5-1.7,1.9v0.5c0,1.8,1.3,2.3,2.9,2.3c1.7,0,2.7-0.6,2.7-2.8v-4.6
		c0-0.9,0-2-0.1-4.3l2.5-1.1H300.6z M293.3,481.5c0.9,0,1.5-0.5,1.5-1.5c0-0.8-0.4-1.6-1.4-1.6c-0.9,0-1.3,0.7-1.3,1.7
		C292.1,481,292.7,481.5,293.3,481.5z"/>
	<path class="st2" d="M78.7,522.3c-0.4,0.2-0.8,0.3-1.2,0.3c-1.6,0-2.7-1.1-2.7-2.8c0-1.8,1.4-3,3.2-3c1,0,3.5,0.4,3.5,4.1v2.2
		c0,0.6-0.1,1.8-0.1,2.4l0.1,0c1.4-3.2,2-5.2,2.4-6c0.8-1.7,1.6-2.7,3-2.7c1.7,0,2.9,1.4,2.9,3.5v10.5H87v-10.2
		c0-1.2-0.3-1.7-0.7-1.7c-0.5,0-0.8,0.4-1.4,1.7c-0.8,1.7-1.8,4.6-3.7,10.2h-2.5V522.3z M79.2,519.7c0-1-0.7-1.6-1.5-1.6
		c-1,0-1.6,0.7-1.6,1.6c0,1.1,0.7,1.7,1.5,1.7c0.5,0,1-0.2,1.4-0.5C79.1,520.5,79.2,520,79.2,519.7z"/>
	<path class="st2" d="M85.9,509.2c0.8,0,1.4,0.1,2,0.4v-2.4l1.6-0.7h0.3v4.7c0.6,0.8,0.8,1.7,0.8,2.7c0,0.7-0.2,1.4-0.4,2
		c-2.7-1.8-5.3-2.6-9-2.5C81.5,510.7,83.3,509.2,85.9,509.2z M89.5,514.2c-0.2-1.7-2.1-3-3.9-3c-1.2,0-2.1,0.4-2.7,1.2
		C85.3,512.5,87.4,513,89.5,514.2z"/>
	<path class="st2" d="M88,515.3l-0.9-5.9H90l-0.8,5.4L88,515.3L88,515.3z"/>
	<path class="st2" d="M97.2,525.5c0.4-0.2,1-0.4,1.5-0.4c1.6,0,2.7,1.2,2.7,2.8c0,1.8-1.4,3.1-3.2,3.1c-2.2,0-3.8-1.5-3.8-4.2v-4.2
		c0-1.6,0-3-0.1-4.6l2.3-1.1h0.5V525.5z M97,527.9c0,1.3,0.5,1.8,1.5,1.8c0.9,0,1.5-0.8,1.5-1.7c0-1.2-0.8-1.7-1.6-1.7
		c-0.5,0-1,0.2-1.3,0.6C97,527.1,97,527.5,97,527.9z"/>
	<path class="st2" d="M115.3,522.4c0-2.7-1.8-4.3-4.2-4.3c-2.6,0-4.2,1.6-4.2,4.6c0,1.1,0.4,2.3,0.7,3.3h0.1
		c0.2-1.9,0.6-3.3,1.2-4.2c0.6-0.9,1.6-1.3,2.5-1.3c1.5,0,2.7,1.1,2.7,2.6c0,1.7-1.2,2.9-2.8,2.9c-0.4,0-0.8-0.1-1.2-0.2
		c-0.6,1.6-1,3.6-1,5h-2.8c0-1.3-0.6-2.5-1.1-3.9c-0.6-1.4-1.2-2.8-1.2-4.4c0-3.6,3-5.7,7.1-5.7c5,0,6.9,2.4,6.9,5.6v8.4h-2.8V522.4
		z M110,523.6c0,0.8,0.8,1.2,1.4,1.2c0.7,0,1.6-0.5,1.6-1.6c0-0.8-0.6-1.5-1.4-1.5C110.7,521.7,110,522.5,110,523.6z"/>
	<path class="st2" d="M133.3,517.1v9.1c0,3.8-2.4,4.8-5.6,4.8c-3.6,0-5.6-1.4-5.6-3.6v-0.2c0-1.8,1.4-2.6,2.3-2.8v-0.1
		c-1.6-0.6-2.3-1.6-2.3-3.5v-0.3c0-1.7,1.2-3.7,3.9-3.7c1.6,0,2.8,1.2,2.8,2.7c0,1.7-1.2,2.7-2.5,2.7c-0.5,0-1-0.1-1.5-0.5
		c0,1.1,0.7,1.7,2.1,1.7h1.1v1.7h-1.4c-1.1,0-1.7,0.5-1.7,1.9v0.5c0,1.8,1.3,2.3,2.9,2.3c1.7,0,2.7-0.6,2.7-2.8v-4.6
		c0-0.9,0-2-0.1-4.3l2.5-1.1H133.3z M126,521.1c0.9,0,1.5-0.5,1.5-1.5c0-0.8-0.4-1.6-1.4-1.6c-0.9,0-1.3,0.7-1.3,1.7
		C124.8,520.6,125.3,521.1,126,521.1z"/>
	<path class="st2" d="M140.4,529.3h1.8v-8.7c0-1.6-0.5-2.6-2-2.6c-0.9,0-1.7,0.4-2.1,1.4c0.3-0.1,0.7-0.2,1-0.2c1.3,0,2.2,1,2.2,2.4
		c0,1.4-1.2,2.5-2.5,2.5c-1.8,0-2.8-1.4-2.8-3.1c0-2.6,2.1-4.2,4.7-4.2c2,0,3.9,1.1,4.2,3.1c2-0.4,2.6-2,2.8-3.8h2.8
		c-0.3,2.2-1.5,3.5-3.4,4.3v0c2.8,0.5,3.2,2.1,3.2,3.7v3.5c0,2.9-2,3.1-4.3,3.1h-5.7L140.4,529.3z M137.7,521.4
		c0,0.9,0.5,1.6,1.4,1.6c0.7,0,1.2-0.7,1.2-1.4c0-0.9-0.6-1.4-1.4-1.4c-0.4,0-0.8,0.1-1.1,0.4C137.7,520.9,137.7,521.1,137.7,521.4z
		 M145,529.3h0.4c1.7,0,2.1-0.4,2.1-2.1v-3.3c0-1.5-0.2-2.2-2.5-2.7V529.3z"/>
	<path class="st2" d="M143.9,514.2c0.6-0.1,1.3-0.4,1.7-0.9c-1.1-0.1-2-0.9-2-2c0-1.3,1-2.2,2.3-2.2c1.4,0,2.1,1,2.1,2.1
		c0,0.8-0.4,1.7-1.2,2.4l0,0.1c2.1-0.5,2.9-2.2,3-4.4h2.6c-0.4,2.1-1.4,3.7-3.2,4.7c-1.3,0.7-2.9,0.9-5.4,1.1L143.9,514.2z
		 M145.8,510.2c-0.6,0-1.1,0.4-1.1,1c0,0.7,0.6,1.2,1.3,1.2c0.6,0,0.9-0.6,0.9-1.1C146.9,510.7,146.4,510.2,145.8,510.2z"/>
	<path class="st2" d="M154.2,519c1.7-1.5,3.5-2.2,5.5-2.2c2.9,0,5.6,1.5,5.6,4.9v4.7c0,3.8-2.3,4.8-5.6,4.8c-3.3,0-5.2-1.4-5.2-4.1
		v-2.5c0-2.1,1.3-3.9,3.6-3.9c2.1,0,2.9,1.5,2.9,2.7c0,1.9-1.2,2.9-2.5,2.9c-0.4,0-0.9-0.1-1.3-0.2v1.3c0,1.9,1,2.6,2.6,2.6
		c1.7,0,2.6-0.7,2.6-2.6V522c0-2.2-1.1-3.6-3.2-3.6c-1.6,0-3.1,0.6-4.3,1.8L154.2,519z M158.3,525c0.9,0,1.5-0.7,1.5-1.6
		c0-1-0.5-1.7-1.5-1.7c-0.9,0-1.2,0.8-1.2,1.7c0,0.4,0.1,0.9,0.2,1.3C157.6,524.9,158,525,158.3,525z"/>
	<path class="st2" d="M181.9,507.4h0.3v19.3c0,3.5-1.7,4-5,4h-6.5l0.2-1.5h1.8v-6.8c-0.4,0.2-0.8,0.3-1.2,0.3c-1.4,0-2.8-1-2.8-2.8
		c0-2,1.5-3.1,3.2-3.1c1.1,0,3.6,0.5,3.6,4.2v8.3h0.6c2.4,0,3.3-0.2,3.3-2.6v-13.8c0-0.9,0-2-0.1-4.3L181.9,507.4z M173.2,519.6
		c0-1-0.6-1.6-1.4-1.6c-1,0-1.6,0.8-1.6,1.7c0,1.2,0.8,1.7,1.6,1.7c0.5,0,0.9-0.2,1.3-0.5C173.1,520.5,173.2,520.1,173.2,519.6z"/>
	<path class="st2" d="M198.7,507.4h0.3v19.3c0,3.5-1.7,4-5,4h-6.5l0.2-1.5h1.8v-6.8c-0.4,0.2-0.8,0.3-1.2,0.3c-1.4,0-2.8-1-2.8-2.8
		c0-2,1.5-3.1,3.2-3.1c1.1,0,3.6,0.5,3.6,4.2v8.3h0.6c2.4,0,3.3-0.2,3.3-2.6v-13.8c0-0.9,0-2-0.1-4.3L198.7,507.4z M190,519.6
		c0-1-0.6-1.6-1.4-1.6c-1,0-1.6,0.8-1.6,1.7c0,1.2,0.8,1.7,1.6,1.7c0.5,0,0.9-0.2,1.3-0.5C189.9,520.5,190,520.1,190,519.6z"/>
	<path class="st2" d="M195.1,509.2c2.9,0,4.7,2.1,4.7,4.6c0,0.7-0.2,1.4-0.4,2c-2.7-1.8-5.3-2.6-9-2.5
		C190.7,510.7,192.6,509.2,195.1,509.2z M198.8,514.2c-0.2-1.7-2.1-3-3.9-3c-1.2,0-2.1,0.4-2.7,1.2
		C194.5,512.5,196.7,513,198.8,514.2z"/>
	<path class="st2" d="M192.7,514.2c0.6-0.1,1.3-0.4,1.7-0.9c-1.1-0.1-2-0.9-2-2c0-1.3,1-2.2,2.3-2.2c1.4,0,2.1,1,2.1,2.1
		c0,0.8-0.4,1.7-1.2,2.4l0,0.1c2.1-0.5,2.9-2.2,3-4.4h2.6c-0.4,2.1-1.4,3.7-3.2,4.7c-1.3,0.7-2.9,0.9-5.4,1.1L192.7,514.2z
		 M194.5,510.2c-0.6,0-1.1,0.4-1.1,1c0,0.7,0.6,1.2,1.3,1.2c0.6,0,0.9-0.6,0.9-1.1C195.6,510.7,195.2,510.2,194.5,510.2z"/>
	<path class="st2" d="M208.2,522.5c-1.5,0-2.9-1-2.9-2.7c0-1.6,1.3-3,3.2-3c1,0,3.6,0.4,3.6,4.1v6.4c0,2.6-0.2,3.4-2.3,3.4h-1.9
		c-1.9-2.8-5.1-6.2-7.2-7.6l0.9-1.4c2.5,1.7,5.6,5,7.1,7.3c0.5,0,0.6-0.2,0.6-1.4v-5.4C209,522.4,208.6,522.5,208.2,522.5z
		 M209.8,519.8c0-0.9-0.5-1.8-1.5-1.8c-0.9,0-1.6,0.7-1.6,1.7c0,1.1,0.8,1.6,1.7,1.6c0.4,0,0.8-0.1,1.1-0.4
		C209.7,520.6,209.8,520.2,209.8,519.8z"/>
	<path class="st2" d="M216,519c1.7-1.5,3.5-2.2,5.5-2.2c2.9,0,5.6,1.5,5.6,4.9v4.7c0,3.8-2.3,4.8-5.6,4.8c-3.3,0-5.2-1.4-5.2-4.1
		v-2.5c0-2.1,1.3-3.9,3.6-3.9c2.1,0,2.9,1.5,2.9,2.7c0,1.9-1.2,2.9-2.5,2.9c-0.4,0-0.9-0.1-1.3-0.2v1.3c0,1.9,1,2.6,2.6,2.6
		c1.7,0,2.6-0.7,2.6-2.6V522c0-2.2-1.1-3.6-3.2-3.6c-1.6,0-3.1,0.6-4.3,1.8L216,519z M220.1,525c0.9,0,1.5-0.7,1.5-1.6
		c0-1-0.5-1.7-1.5-1.7c-0.9,0-1.2,0.8-1.2,1.7c0,0.4,0.1,0.9,0.2,1.3C219.5,524.9,219.8,525,220.1,525z"/>
	<path class="st2" d="M231.1,519c1.7-1.5,3.5-2.2,5.5-2.2c2.9,0,5.6,1.5,5.6,4.9v4.7c0,3.8-2.3,4.8-5.6,4.8c-3.3,0-5.2-1.4-5.2-4.1
		v-2.5c0-2.1,1.3-3.9,3.6-3.9c2.1,0,2.9,1.5,2.9,2.7c0,1.9-1.2,2.9-2.5,2.9c-0.4,0-0.9-0.1-1.3-0.2v1.3c0,1.9,1,2.6,2.6,2.6
		c1.7,0,2.6-0.7,2.6-2.6V522c0-2.2-1.1-3.6-3.2-3.6c-1.6,0-3.1,0.6-4.3,1.8L231.1,519z M235.2,525c0.9,0,1.5-0.7,1.5-1.6
		c0-1-0.5-1.7-1.5-1.7c-0.9,0-1.2,0.8-1.2,1.7c0,0.4,0.1,0.9,0.2,1.3C234.6,524.9,234.9,525,235.2,525z"/>
	<path class="st2" d="M249.7,522.3c-0.4,0.1-0.8,0.2-1.2,0.2c-1.5,0-2.8-0.9-2.8-2.7c0-1.7,1.3-3,3.1-3c2.2,0,3.8,1.4,3.8,4.4v7.2
		c1.3-1.4,2.8-2.5,4.3-3.2v-2.7c0-0.9,0-2-0.1-4.3l2.5-1.1h0.3v7.2c0.2,0,0.4,0,0.6,0c1.9,0,3.2,1.3,3.2,3.2c0,2-1.4,3.6-3.5,3.6
		c-2,0-3.3-1.3-3.3-3.7c0-0.1,0-0.2,0-0.6c-1.9,1.1-3.5,2.8-4.3,4h-2.8V522.3z M250.1,519.9c0-1.3-0.6-1.8-1.5-1.8
		c-1,0-1.5,0.8-1.5,1.7c0,1.1,0.8,1.6,1.6,1.6c0.4,0,0.9-0.1,1.2-0.4C250,520.6,250.1,520.2,250.1,519.9z M259.6,525.8
		c-0.1,0.3-0.2,0.9-0.2,1.5c0,1.1,0.3,2.2,1.2,2.2c1,0,1.3-1.1,1.3-1.9c0-1-0.7-1.9-1.7-1.9C260.1,525.8,259.9,525.8,259.6,525.8z"
		/>
	<path class="st2" d="M271.1,525.2c1.6,0,2.7,1.2,2.7,2.8c0,1.8-1.3,3.1-3.1,3.1c-2.2,0-3.8-1.5-3.8-4.2v-15.9
		c0-1.2-0.3-1.3-0.5-1.3c-0.4,0.9-0.9,2.4-1.9,5.3h-0.7c-1.1-3.1-1.5-4.5-1.9-5c-0.3-0.4-0.4-0.4-0.9-0.4v-1.9h0.6
		c1.5,0,1.6,0,2.9,3.7h0.1c0.8-2.2,1.1-3,1.4-3.7h0.1c1.7,0,3.6,0.6,3.6,3.6v14.4C270.1,525.3,270.6,525.2,271.1,525.2z
		 M269.4,527.9c0,1.3,0.5,1.8,1.5,1.8c0.9,0,1.5-0.8,1.5-1.7c0-1.2-0.8-1.7-1.6-1.7c-0.5,0-1,0.2-1.3,0.6
		C269.5,527.1,269.4,527.5,269.4,527.9z"/>
	<path class="st2" d="M285.4,530.7V524c-0.9-1-2.2-1.6-3.3-1.6c-1.1,0-2.2,0.6-2.2,2.3c0,0.3,0,0.5,0.1,0.8c0.4-0.2,0.9-0.4,1.4-0.4
		c1.6,0,2.4,1.2,2.4,2.8c0,1.8-1.2,3-3,3c-2.2,0-3.6-1.5-3.6-4.3v-1c0-4.3,3.5-4.6,4.7-4.6c1.1,0,2.4,0.4,3.5,1.1V522
		c0-2.2-1.2-3.7-3.2-3.7c-1.6,0-3,0.7-4.2,1.8l-0.9-1.2c1.7-1.5,3.3-2.1,5.4-2.1c2.9,0,5.7,1.5,5.7,4.9v9.1H285.4z M279.7,528
		c0,1.1,0.4,1.8,1.4,1.8c0.9,0,1.4-0.8,1.4-1.7c0-1.2-0.8-1.6-1.5-1.6c-0.5,0-1,0.2-1.3,0.6C279.8,527.3,279.7,527.7,279.7,528z"/>
	<path class="st2" d="M295.6,522.3c-0.4,0.1-0.8,0.2-1.2,0.2c-1.5,0-2.8-0.9-2.8-2.7c0-1.7,1.3-3,3.1-3c2.2,0,3.8,1.4,3.8,4.4v7.2
		c1.3-1.4,2.8-2.5,4.3-3.2v-2.7c0-0.9,0-2-0.1-4.3l2.5-1.1h0.3v7.2c0.2,0,0.4,0,0.6,0c1.9,0,3.2,1.3,3.2,3.2c0,2-1.4,3.6-3.5,3.6
		c-2,0-3.3-1.3-3.3-3.7c0-0.1,0-0.2,0-0.6c-1.9,1.1-3.5,2.8-4.3,4h-2.8V522.3z M295.9,519.9c0-1.3-0.6-1.8-1.5-1.8
		c-1,0-1.5,0.8-1.5,1.7c0,1.1,0.8,1.6,1.6,1.6c0.4,0,0.9-0.1,1.2-0.4C295.9,520.6,295.9,520.2,295.9,519.9z M305.5,525.8
		c-0.1,0.3-0.2,0.9-0.2,1.5c0,1.1,0.3,2.2,1.2,2.2c1,0,1.3-1.1,1.3-1.9c0-1-0.7-1.9-1.7-1.9C306,525.8,305.8,525.8,305.5,525.8z"/>
	<path class="st2" d="M308.8,511c-0.7-0.5-1.3-0.6-1.8-0.6c-1.4,0-2.2,1.1-2.2,2.1c0,0.7,0.4,1.5,1.4,1.8c-0.3-0.3-0.4-0.7-0.4-1
		c0-0.8,0.7-1.5,1.6-1.5c0.9,0,1.6,0.7,1.6,1.6c0,1.4-1.3,2-2.5,2c-1.9,0-3.6-1.2-3.6-3.1c0-1.8,1.7-2.9,3.4-2.9
		c0.6,0,1.2,0.1,1.7,0.4l0.6-3.6h2.6L308.8,511z M308,513.3c0-0.4-0.3-0.7-0.7-0.7c-0.4,0-0.8,0.3-0.8,0.8c0,0.3,0.1,0.6,0.5,0.9
		C307.7,514.2,308,513.7,308,513.3z"/>
	<path class="st2" d="M325.4,517.1v11.4c0,1.7-0.3,2.3-1.6,2.3h-1.1l-3.6-5.6l-3.6,4.9c-0.4,0.5-0.6,0.8-1.1,0.8h-1.9v-10
		c0-2.1,1.5-3.9,3.8-3.9c2.2,0,3.1,1.5,3.1,2.7c0,1.9-1.3,3-2.8,3c-0.4,0-0.9-0.1-1.3-0.2v3.6c0,0.8-0.1,1.5-0.3,2.4l0.1,0l4-5.3
		h0.3l3.4,5.2l0.1,0c-0.1-0.9-0.2-1.6-0.2-2.4v-3.4c0-0.9,0-2-0.1-4.3l2.5-1.1H325.4z M316.3,521.4c0.9,0,1.6-0.7,1.6-1.6
		c0-1-0.5-1.7-1.6-1.7c-1,0-1.4,0.8-1.4,1.7c0,0.4,0.1,0.9,0.2,1.3C315.6,521.3,316,521.4,316.3,521.4z"/>
	<path class="st2" d="M323.6,515.3l-0.9-5.9h2.8l-0.8,5.4L323.6,515.3L323.6,515.3z"/>
	<path class="st2" d="M334.2,530.7v-8.8c0-2.4-1.3-3.3-2.7-3.3c-1,0-1.9,0.5-2.8,1.2l-0.9-1.3c1.3-1.1,2.7-1.7,4.3-1.7
		c2.6,0,5,1.7,5,4.9v9.1H334.2z"/>
	<path class="st2" d="M344.3,522.3c-0.4,0.1-0.8,0.2-1.2,0.2c-1.5,0-2.8-0.9-2.8-2.7c0-1.7,1.3-3,3.1-3c2.2,0,3.8,1.4,3.8,4.4v7.2
		c1.3-1.4,2.8-2.5,4.3-3.2v-2.7c0-0.9,0-2-0.1-4.3l2.5-1.1h0.3v7.2c0.2,0,0.4,0,0.6,0c1.9,0,3.2,1.3,3.2,3.2c0,2-1.4,3.6-3.5,3.6
		c-2,0-3.3-1.3-3.3-3.7c0-0.1,0-0.2,0-0.6c-1.9,1.1-3.5,2.8-4.3,4h-2.8V522.3z M344.7,519.9c0-1.3-0.6-1.8-1.5-1.8
		c-1,0-1.5,0.8-1.5,1.7c0,1.1,0.8,1.6,1.6,1.6c0.4,0,0.9-0.1,1.2-0.4C344.6,520.6,344.7,520.2,344.7,519.9z M354.2,525.8
		c-0.1,0.3-0.2,0.9-0.2,1.5c0,1.1,0.3,2.2,1.2,2.2c1,0,1.3-1.1,1.3-1.9c0-1-0.7-1.9-1.7-1.9C354.8,525.8,354.5,525.8,354.2,525.8z"
		/>
	<path class="st2" d="M364.4,524.8v-2.5c-0.4,0.2-0.8,0.3-1.2,0.3c-1.4,0-2.8-1-2.8-2.7c0-1.9,1.5-3,3.2-3c1.1,0,3.7,0.5,3.7,4.2
		v4.5c1.6,0.7,3,1.7,4.3,2.9v-6c0-0.9,0-2-0.1-4.3l2.5-1.1h0.3v13.7h-2.8c-1-1.4-2.7-2.9-4.3-3.6c0,0.2,0,0.3,0,0.5
		c0,1.3-0.9,3.4-3.4,3.4c-1.9,0-3.3-1.3-3.3-3.2c0-1.7,1.3-3,3.1-3.1C364,524.7,364.2,524.7,364.4,524.8z M364.9,519.6
		c0-1-0.6-1.6-1.5-1.6c-1,0-1.6,0.7-1.6,1.6c0,1.1,0.8,1.6,1.6,1.6c0.5,0,0.9-0.2,1.3-0.5C364.8,520.4,364.9,520,364.9,519.6z
		 M364,526.2c-0.9,0-1.8,0.7-1.8,2c0,0.9,0.5,1.5,1.2,1.5c0.9,0,1.4-1,1.4-2c0-0.5,0-0.9-0.3-1.4C364.3,526.2,364.1,526.2,364,526.2
		z"/>
	<path class="st2" d="M369.5,509.3V507l1.4-0.7h0.3v2.8c0.6,0.1,1.1,0.2,1.5,0.4V507l1.4-0.7h0.3v4.6c0.6,0.8,0.9,1.7,0.9,2.7
		c0,0.7-0.2,1.4-0.4,2c-2.7-1.8-5.3-2.6-9-2.5C366,511.1,367.4,509.6,369.5,509.3z M374.1,514.2c-0.2-1.7-2.1-3-3.9-3
		c-1.2,0-2.1,0.4-2.7,1.2C369.9,512.5,372,513,374.1,514.2z"/>
	<path class="st2" d="M378.3,519c1.7-1.5,3.5-2.2,5.5-2.2c2.9,0,5.6,1.5,5.6,4.9v4.7c0,3.8-2.3,4.8-5.6,4.8c-3.3,0-5.2-1.4-5.2-4.1
		v-2.5c0-2.1,1.3-3.9,3.6-3.9c2.1,0,2.9,1.5,2.9,2.7c0,1.9-1.2,2.9-2.5,2.9c-0.4,0-0.9-0.1-1.3-0.2v1.3c0,1.9,1,2.6,2.6,2.6
		c1.7,0,2.6-0.7,2.6-2.6V522c0-2.2-1.1-3.6-3.2-3.6c-1.6,0-3.1,0.6-4.3,1.8L378.3,519z M382.4,525c0.9,0,1.5-0.7,1.5-1.6
		c0-1-0.5-1.7-1.5-1.7c-0.9,0-1.2,0.8-1.2,1.7c0,0.4,0.1,0.9,0.2,1.3C381.7,524.9,382.1,525,382.4,525z"/>
	<path class="st2" d="M402.2,526.4v-4.2c0-3.3-1.8-4-3.2-4c-1.4,0-2.5,0.7-2.8,2.1l3.1,0.5l-0.5,1.3c-1.6,0.2-2.1,1-2.1,2.6v1
		c0.4-0.3,0.9-0.4,1.4-0.4c1.6,0,2.4,1.2,2.4,2.8c0,1.8-1.2,3-3,3c-2.2,0-3.5-1.5-3.5-4.3V525c0-1.6,0.5-2.5,2.2-3.3v-0.1l-2.9-0.4
		c0.2-2,1.7-4.5,5.9-4.5c2.1,0,5.8,0.7,5.8,5v8.2l-2.2,1h-0.6C402.2,528.8,402.2,527.2,402.2,526.4z M396.5,528
		c0,1.1,0.4,1.8,1.4,1.8c0.9,0,1.4-0.8,1.4-1.7c0-1.2-0.8-1.6-1.5-1.6c-0.5,0-1,0.2-1.3,0.6C396.5,527.3,396.5,527.7,396.5,528z"/>
	<path class="st2" d="M400.1,509.3V507l1.4-0.7h0.3v2.8c0.6,0.1,1.1,0.2,1.5,0.4V507l1.4-0.7h0.3v4.6c0.6,0.8,0.9,1.7,0.9,2.7
		c0,0.7-0.2,1.4-0.4,2c-2.7-1.8-5.3-2.6-9-2.5C396.7,511.1,398.1,509.6,400.1,509.3z M404.8,514.2c-0.2-1.7-2.1-3-3.9-3
		c-1.2,0-2.1,0.4-2.7,1.2C400.5,512.5,402.6,513,404.8,514.2z"/>
	<path class="st2" d="M408.9,519c1.7-1.5,3.5-2.2,5.5-2.2c2.9,0,5.6,1.5,5.6,4.9v4.7c0,3.8-2.3,4.8-5.6,4.8c-3.3,0-5.2-1.4-5.2-4.1
		v-2.5c0-2.1,1.3-3.9,3.6-3.9c2.1,0,2.9,1.5,2.9,2.7c0,1.9-1.2,2.9-2.5,2.9c-0.4,0-0.9-0.1-1.3-0.2v1.3c0,1.9,1,2.6,2.6,2.6
		c1.7,0,2.6-0.7,2.6-2.6V522c0-2.2-1.1-3.6-3.2-3.6c-1.6,0-3.1,0.6-4.3,1.8L408.9,519z M413,525c0.9,0,1.5-0.7,1.5-1.6
		c0-1-0.5-1.7-1.5-1.7c-0.9,0-1.2,0.8-1.2,1.7c0,0.4,0.1,0.9,0.2,1.3C412.4,524.9,412.7,525,413,525z"/>
</g>
<g>
	<path class="st2" d="M83.6,117.1h3.9V98.7c0-3.4-1.1-5.6-4.2-5.6c-1.9,0-3.6,0.8-4.5,2.9c0.7-0.3,1.4-0.4,2.1-0.4
		c2.7,0,4.8,2,4.8,5.1c0,3-2.5,5.3-5.3,5.3c-3.9,0-6-3-6-6.7c0-5.6,4.5-8.8,9.9-8.8c4.3,0,8.2,2.3,8.9,6.7c4.3-0.8,5.5-4.3,5.9-8.1
		h6c-0.6,4.7-3.2,7.4-7.3,9v0.1c6,1,6.8,4.4,6.8,7.8v7.5c0,6.2-4.3,6.7-9.2,6.7H83.2L83.6,117.1z M77.8,100.2c0,1.8,1.1,3.4,2.9,3.4
		c1.5,0,2.5-1.4,2.5-2.9c0-1.8-1.3-2.9-2.9-2.9c-0.8,0-1.6,0.3-2.3,0.8C77.8,99.3,77.8,99.7,77.8,100.2z M93.3,117.1h0.8
		c3.7,0,4.6-0.9,4.6-4.5v-7.1c0-3.2-0.5-4.8-5.4-5.7V117.1z"/>
	<path class="st2" d="M91,85c1.2-0.2,2.7-0.8,3.6-2c-2.3-0.2-4.2-1.9-4.2-4.2c0-2.7,2.1-4.6,4.8-4.6c2.9,0,4.5,2.1,4.5,4.6
		c0,1.8-0.8,3.6-2.6,5.2l0.1,0.1c4.4-1,6.1-4.7,6.4-9.2h5.6c-0.8,4.5-2.9,7.9-6.9,10c-2.7,1.5-6.2,2-11.4,2.4L91,85z M95,76.5
		c-1.3,0-2.2,0.8-2.2,2.2c0,1.5,1.2,2.5,2.7,2.5c1.3,0,1.9-1.2,1.9-2.4C97.3,77.6,96.4,76.5,95,76.5z"/>
	<path class="st2" d="M112.9,95.2c3.5-3.1,7.4-4.7,11.8-4.7c6.2,0,12,3.2,12,10.3v9.9c0,8.1-5,10.1-11.8,10.1
		c-7.1,0-11.1-2.9-11.1-8.7v-5.4c0-4.6,2.7-8.3,7.7-8.3c4.4,0,6.1,3.2,6.1,5.7c0,4.1-2.5,6.2-5.3,6.2c-0.8,0-1.8-0.1-2.7-0.5v2.8
		c0,4,2,5.5,5.6,5.5c3.7,0,5.6-1.5,5.6-5.5v-11c0-4.6-2.3-7.7-6.7-7.7c-3.3,0-6.6,1.3-9.1,3.9L112.9,95.2z M121.6,108
		c1.9,0,3.1-1.5,3.1-3.4c0-2.1-1-3.7-3.1-3.7c-1.8,0-2.6,1.8-2.6,3.7c0,0.9,0.1,1.8,0.5,2.7C120.2,107.8,120.9,108,121.6,108z"/>
	<path class="st2" d="M171.6,70.7h0.7v41c0,7.4-3.5,8.4-10.7,8.4h-13.9l0.5-3.2h3.9v-14.4c-0.8,0.4-1.7,0.6-2.6,0.6
		c-3,0-6-2.2-6-5.9c0-4.3,3.2-6.7,6.8-6.7c2.2,0,7.7,1,7.7,8.9v17.5h1.3c5.2,0,7-0.4,7-5.6V82c0-2,0-4.2-0.1-9L171.6,70.7z
		 M153.1,96.5c0-2.1-1.3-3.4-3-3.4c-2,0-3.4,1.6-3.4,3.6c0,2.5,1.6,3.6,3.3,3.6c1,0,2-0.4,2.7-1.1C153,98.4,153.1,97.5,153.1,96.5z"
		/>
	<path class="st2" d="M207.3,70.7h0.7v41c0,7.4-3.5,8.4-10.7,8.4h-13.9l0.5-3.2h3.9v-14.4c-0.8,0.4-1.7,0.6-2.6,0.6
		c-3,0-6-2.2-6-5.9c0-4.3,3.2-6.7,6.8-6.7c2.2,0,7.7,1,7.7,8.9v17.5h1.3c5.2,0,7-0.4,7-5.6V82c0-2,0-4.2-0.1-9L207.3,70.7z
		 M188.8,96.5c0-2.1-1.3-3.4-3-3.4c-2,0-3.4,1.6-3.4,3.6c0,2.5,1.6,3.6,3.3,3.6c1,0,2-0.4,2.7-1.1C188.7,98.4,188.8,97.5,188.8,96.5
		z"/>
	<path class="st2" d="M199.7,74.3c6.2,0,10,4.5,10,9.7c0,1.5-0.4,2.9-0.9,4.3c-5.8-3.9-11.3-5.5-19.2-5.3
		C190.4,77.7,194.3,74.3,199.7,74.3z M207.4,85c-0.4-3.6-4.5-6.4-8.3-6.4c-2.5,0-4.6,0.8-5.7,2.5C198.5,81.4,203,82.5,207.4,85z"/>
	<path class="st2" d="M194.5,85c1.2-0.2,2.7-0.8,3.6-2c-2.3-0.2-4.2-1.9-4.2-4.2c0-2.7,2.1-4.6,4.8-4.6c2.9,0,4.5,2.1,4.5,4.6
		c0,1.8-0.8,3.6-2.6,5.2l0.1,0.1c4.4-1,6.1-4.7,6.4-9.2h5.6c-0.8,4.5-2.9,7.9-6.9,10c-2.7,1.5-6.2,2-11.4,2.4L194.5,85z M198.5,76.5
		c-1.3,0-2.2,0.8-2.2,2.2c0,1.5,1.2,2.5,2.7,2.5c1.3,0,1.9-1.2,1.9-2.4C200.8,77.6,199.9,76.5,198.5,76.5z"/>
	<path class="st2" d="M227.4,102.6c-3.1,0-6.2-2-6.2-5.7c0-3.4,2.7-6.4,6.8-6.4c2.2,0,7.7,0.8,7.7,8.7v13.7c0,5.5-0.4,7.3-5,7.3
		h-4.1c-4.1-5.9-10.8-13.1-15.2-16l2-2.9c5.3,3.6,11.8,10.6,15.1,15.4c1.1-0.1,1.3-0.5,1.3-3v-11.4
		C229.1,102.5,228.2,102.6,227.4,102.6z M230.8,97c0-2-1-3.9-3.1-3.9c-2,0-3.3,1.5-3.3,3.6c0,2.2,1.8,3.4,3.6,3.4
		c0.8,0,1.6-0.3,2.3-0.8C230.5,98.6,230.8,97.8,230.8,97z"/>
	<path class="st2" d="M269.7,87.4c-0.3,2.7-1.7,4.8-3.6,6.5c1.6,1.7,2.7,3.9,2.7,6.9v19.3h-6v-14.2c-1.9-2.1-4.7-3.3-6.9-3.3
		c-2.3,0-4.6,1.3-4.6,5c0,0.6,0,1,0.1,1.8c0.8-0.5,1.8-0.8,2.9-0.8c3.3,0,5.2,2.5,5.2,5.9c0,3.8-2.6,6.3-6.4,6.3
		c-4.6,0-7.6-3.1-7.6-9.1v-2.1c0-9,7.5-9.8,10-9.8c2.4,0,5.1,0.8,7.4,2.2v-0.5c0-1.8-0.4-3.3-1-4.6c-1.1,0.6-2.3,1.2-3.4,1.7l-1.8-1
		v-0.1c1.1-0.7,2.3-1.5,3.4-2.5c-1.1-0.8-2.5-1.3-4.1-1.3c-3.4,0-6.4,1.4-8.8,3.8l-2-2.5c3.5-3.1,7.1-4.6,11.4-4.6
		c2.1,0,4.2,0.4,6.1,1.2c0.8-1.3,1.3-2.7,1.3-4.3H269.7z M250.7,114.2c0,2.2,0.9,3.8,2.9,3.8c1.8,0,3-1.6,3-3.6
		c0-2.5-1.6-3.4-3.1-3.4c-1,0-2,0.4-2.7,1.2C250.8,112.9,250.7,113.6,250.7,114.2z"/>
	<path class="st2" d="M260.4,74.3c6.2,0,10,4.5,10,9.7c0,1.5-0.4,2.9-0.9,4.3c-5.8-3.9-11.3-5.5-19.2-5.3
		C251,77.7,255,74.3,260.4,74.3z M268.1,85c-0.4-3.6-4.5-6.4-8.3-6.4c-2.5,0-4.6,0.8-5.7,2.5C259.2,81.4,263.6,82.5,268.1,85z"/>
	<path class="st2" d="M284.3,102.3c-0.8,0.3-1.8,0.4-2.6,0.4c-3.2,0-6-2-6-5.7c0-3.7,2.7-6.4,6.6-6.4c4.7,0,8,2.9,8,9.3V115
		c2.7-3,6-5.4,9.2-6.9v-5.7c0-2,0-4.2-0.1-9l5.4-2.2h0.7v15.3c0.4,0,0.9-0.1,1.3-0.1c4.1,0,6.9,2.8,6.9,6.8c0,4.3-2.9,7.6-7.4,7.6
		c-4.2,0-6.9-2.7-6.9-7.9c0-0.3,0-0.5,0.1-1.3c-4.1,2.3-7.4,6-9.1,8.5h-6V102.3z M285.1,97.1c0-2.7-1.2-3.9-3.1-3.9
		c-2,0-3.2,1.8-3.2,3.6c0,2.4,1.7,3.4,3.4,3.4c0.9,0,1.9-0.3,2.5-0.9C284.9,98.7,285.1,97.9,285.1,97.1z M305.3,109.7
		c-0.1,0.7-0.4,2-0.4,3.2c0,2.3,0.6,4.8,2.6,4.8c2.1,0,2.7-2.3,2.7-4c0-2.1-1.4-4.1-3.6-4.1C306.4,109.6,305.9,109.6,305.3,109.7z"
		/>
	<path class="st2" d="M342.9,102.5c0-5.8-3.8-9.1-8.9-9.1c-5.6,0-8.8,3.4-8.8,9.7c0,2.2,0.8,4.9,1.5,6.9h0.3c0.5-4.1,1.3-7.1,2.6-9
		s3.4-2.7,5.3-2.7c3.2,0,5.7,2.4,5.7,5.6c0,3.6-2.6,6.2-5.9,6.2c-0.8,0-1.7-0.1-2.6-0.5c-1.3,3.4-2,7.6-2,10.5h-6
		c-0.1-2.7-1.3-5.4-2.4-8.2c-1.3-3-2.5-6-2.5-9.3c0-7.7,6.4-12.1,15.1-12.1c10.6,0,14.6,5,14.6,11.9v17.7h-6V102.5z M331.5,104.9
		c0,1.6,1.6,2.5,2.9,2.5c1.5,0,3.4-1,3.4-3.4c0-1.7-1.2-3.2-2.9-3.2C332.9,100.9,331.5,102.7,331.5,104.9z"/>
	<path class="st2" d="M335.2,85c1.2-0.2,2.7-0.8,3.6-2c-2.3-0.2-4.2-1.9-4.2-4.2c0-2.7,2.1-4.6,4.8-4.6c2.9,0,4.5,2.1,4.5,4.6
		c0,1.8-0.8,3.6-2.6,5.2l0.1,0.1c4.4-1,6.1-4.7,6.4-9.2h5.6c-0.8,4.5-2.9,7.9-6.9,10c-2.7,1.5-6.2,2-11.4,2.4L335.2,85z M339.2,76.5
		c-1.3,0-2.2,0.8-2.2,2.2c0,1.5,1.2,2.5,2.7,2.5c1.3,0,1.9-1.2,1.9-2.4C341.5,77.6,340.6,76.5,339.2,76.5z"/>
	<path class="st2" d="M367.3,120.1v-18.8c0-5-2.7-7.1-5.8-7.1c-2.1,0-4.1,1-6,2.6l-1.9-2.7c2.7-2.4,5.8-3.7,9-3.7
		c5.5,0,10.6,3.5,10.6,10.3v19.3H367.3z"/>
	<path class="st2" d="M381.6,95.2c3.5-3.1,7.4-4.7,11.8-4.7c6.2,0,12,3.2,12,10.3v9.9c0,8.1-5,10.1-11.8,10.1
		c-7.1,0-11.1-2.9-11.1-8.7v-5.4c0-4.6,2.7-8.3,7.7-8.3c4.4,0,6.1,3.2,6.1,5.7c0,4.1-2.5,6.2-5.3,6.2c-0.8,0-1.8-0.1-2.7-0.5v2.8
		c0,4,2,5.5,5.6,5.5c3.7,0,5.6-1.5,5.6-5.5v-11c0-4.6-2.3-7.7-6.7-7.7c-3.3,0-6.6,1.3-9.1,3.9L381.6,95.2z M390.3,108
		c1.9,0,3.1-1.5,3.1-3.4c0-2.1-1-3.7-3.1-3.7c-1.8,0-2.6,1.8-2.6,3.7c0,0.9,0.1,1.8,0.5,2.7C388.9,107.8,389.6,108,390.3,108z"/>
	<path class="st2" d="M413.7,95.2c3.5-3.1,7.4-4.7,11.8-4.7c6.2,0,12,3.2,12,10.3v9.9c0,8.1-5,10.1-11.8,10.1
		c-7.1,0-11.1-2.9-11.1-8.7v-5.4c0-4.6,2.7-8.3,7.7-8.3c4.4,0,6.1,3.2,6.1,5.7c0,4.1-2.5,6.2-5.3,6.2c-0.8,0-1.8-0.1-2.7-0.5v2.8
		c0,4,2,5.5,5.6,5.5c3.7,0,5.6-1.5,5.6-5.5v-11c0-4.6-2.3-7.7-6.7-7.7c-3.3,0-6.6,1.3-9.1,3.9L413.7,95.2z M422.3,108
		c1.9,0,3.1-1.5,3.1-3.4c0-2.1-1-3.7-3.1-3.7c-1.8,0-2.6,1.8-2.6,3.7c0,0.9,0.1,1.8,0.5,2.7C420.9,107.8,421.6,108,422.3,108z"/>
	<path class="st2" d="M453,102.3c-0.8,0.3-1.8,0.4-2.6,0.4c-3.2,0-6-2-6-5.7c0-3.7,2.7-6.4,6.6-6.4c4.7,0,8,2.9,8,9.3V115
		c2.7-3,6-5.4,9.2-6.9v-5.7c0-2,0-4.2-0.1-9l5.4-2.2h0.7v15.3c0.4,0,0.9-0.1,1.3-0.1c4.1,0,6.9,2.8,6.9,6.8c0,4.3-2.9,7.6-7.4,7.6
		c-4.2,0-6.9-2.7-6.9-7.9c0-0.3,0-0.5,0.1-1.3c-4.1,2.3-7.4,6-9.1,8.5h-6V102.3z M453.8,97.1c0-2.7-1.2-3.9-3.1-3.9
		c-2,0-3.2,1.8-3.2,3.6c0,2.4,1.7,3.4,3.4,3.4c0.9,0,1.9-0.3,2.5-0.9C453.6,98.7,453.8,97.9,453.8,97.1z M474,109.7
		c-0.1,0.7-0.4,2-0.4,3.2c0,2.3,0.6,4.8,2.6,4.8c2.1,0,2.7-2.3,2.7-4c0-2.1-1.4-4.1-3.6-4.1C475.1,109.6,474.6,109.6,474,109.7z"/>
	<path class="st2" d="M498.5,108.3c3.4,0,5.7,2.5,5.7,5.9c0,3.8-2.7,6.6-6.6,6.6c-4.7,0-8-3.1-8-8.9V78c0-2.6-0.7-2.7-1.1-2.7
		c-0.8,1.9-1.8,5-4,11.2H483c-2.3-6.7-3.2-9.5-4-10.6c-0.6-0.9-0.9-0.9-1.8-0.9v-4.1h1.3c3.2,0,3.3,0,6.1,7.9h0.1
		c1.7-4.8,2.3-6.4,2.9-7.9h0.1c3.6,0,7.7,1.2,7.7,7.6v30.6C496.3,108.6,497.4,108.3,498.5,108.3z M494.9,114c0,2.7,1.1,3.9,3.2,3.9
		c1.9,0,3.2-1.8,3.2-3.7c0-2.5-1.7-3.6-3.4-3.6c-1.1,0-2,0.4-2.7,1.2C494.9,112.5,494.9,113.3,494.9,114z"/>
	<path class="st2" d="M528.7,120.1v-14.2c-1.9-2.1-4.7-3.3-6.9-3.3c-2.3,0-4.6,1.3-4.6,5c0,0.6,0,1,0.1,1.8c0.8-0.5,1.8-0.8,2.9-0.8
		c3.3,0,5.2,2.5,5.2,5.9c0,3.8-2.6,6.3-6.4,6.3c-4.6,0-7.6-3.1-7.6-9.1v-2.1c0-9,7.5-9.8,10-9.8c2.4,0,5.1,0.8,7.4,2.2v-0.5
		c0-4.7-2.5-7.8-6.8-7.8c-3.4,0-6.4,1.4-8.8,3.8l-2-2.5c3.5-3.1,7.1-4.6,11.4-4.6c6.2,0,12.1,3.2,12.1,10.3v19.3H528.7z
		 M516.7,114.2c0,2.2,0.9,3.8,2.9,3.8c1.8,0,3-1.6,3-3.6c0-2.5-1.6-3.4-3.1-3.4c-1,0-2,0.4-2.7,1.2
		C516.8,112.9,516.7,113.6,516.7,114.2z"/>
	<path class="st2" d="M550.3,102.3c-0.8,0.3-1.8,0.4-2.6,0.4c-3.2,0-6-2-6-5.7c0-3.7,2.7-6.4,6.6-6.4c4.7,0,8,2.9,8,9.3V115
		c2.7-3,6-5.4,9.2-6.9v-5.7c0-2,0-4.2-0.1-9l5.4-2.2h0.7v15.3c0.4,0,0.9-0.1,1.3-0.1c4.1,0,6.9,2.8,6.9,6.8c0,4.3-2.9,7.6-7.4,7.6
		c-4.2,0-6.9-2.7-6.9-7.9c0-0.3,0-0.5,0.1-1.3c-4.1,2.3-7.4,6-9.1,8.5h-6V102.3z M551.1,97.1c0-2.7-1.2-3.9-3.1-3.9
		c-2,0-3.2,1.8-3.2,3.6c0,2.4,1.7,3.4,3.4,3.4c0.9,0,1.9-0.3,2.5-0.9C550.9,98.7,551.1,97.9,551.1,97.1z M571.3,109.7
		c-0.1,0.7-0.4,2-0.4,3.2c0,2.3,0.6,4.8,2.6,4.8c2.1,0,2.7-2.3,2.7-4c0-2.1-1.4-4.1-3.6-4.1C572.4,109.6,571.9,109.6,571.3,109.7z"
		/>
	<path class="st2" d="M578.3,78.3c-1.5-1-2.7-1.3-3.9-1.3c-2.9,0-4.6,2.2-4.6,4.4c0,1.5,0.8,3.2,3,3.8c-0.6-0.7-0.8-1.5-0.8-2.2
		c0-1.8,1.4-3.2,3.4-3.2c1.8,0,3.4,1.4,3.4,3.3c0,2.9-2.8,4.2-5.3,4.2c-4.1,0-7.7-2.5-7.7-6.5c0-3.9,3.6-6.1,7.2-6.1
		c1.3,0,2.5,0.3,3.6,0.8l1.3-7.6h5.6L578.3,78.3z M576.8,83.1c0-0.8-0.6-1.5-1.4-1.5c-0.8,0-1.7,0.6-1.7,1.7c0,0.7,0.3,1.3,1,2
		C576.1,85,576.8,84.1,576.8,83.1z"/>
	<path class="st2" d="M105.3,172.1v24.1c0,3.5-0.6,4.9-3.3,4.9h-2.3l-7.7-12l-7.7,10.4c-0.8,1.1-1.2,1.6-2.4,1.6h-4v-21.3
		c0-4.6,3.2-8.3,8.1-8.3c4.7,0,6.5,3.2,6.5,5.7c0,4.1-2.7,6.3-5.9,6.3c-0.9,0-1.8-0.1-2.7-0.5v7.7c0,1.8-0.2,3.2-0.6,5.1l0.1,0.1
		l8.4-11.2h0.6l7.3,11l0.1-0.1c-0.3-1.8-0.5-3.4-0.5-5.1v-7.1c0-2,0-4.2-0.1-9l5.4-2.2H105.3z M86.1,181.2c1.9,0,3.4-1.5,3.4-3.4
		c0-2.1-1.1-3.7-3.3-3.7c-2.1,0-2.9,1.8-2.9,3.7c0,0.9,0.1,1.8,0.5,2.7C84.5,181,85.4,181.2,86.1,181.2z"/>
	<path class="st2" d="M101.5,168.3l-1.8-12.5h6l-1.6,11.6l-2.5,1H101.5z"/>
	<path class="st2" d="M123.9,201.1v-18.8c0-5-2.7-7.1-5.8-7.1c-2.1,0-4.1,1-6,2.6l-1.9-2.7c2.7-2.4,5.8-3.7,9-3.7
		c5.5,0,10.6,3.5,10.6,10.3v19.3H123.9z"/>
	<path class="st2" d="M145.5,183.3c-0.8,0.3-1.8,0.4-2.6,0.4c-3.2,0-6-2-6-5.7c0-3.7,2.7-6.4,6.6-6.4c4.7,0,8,2.9,8,9.3V196
		c2.7-3,6-5.4,9.2-6.9v-5.7c0-2,0-4.2-0.1-9l5.4-2.2h0.7v15.3c0.4,0,0.9-0.1,1.3-0.1c4.1,0,6.9,2.8,6.9,6.8c0,4.3-2.9,7.6-7.4,7.6
		c-4.2,0-6.9-2.7-6.9-7.9c0-0.3,0-0.5,0.1-1.3c-4.1,2.3-7.4,6-9.1,8.5h-6V183.3z M146.3,178.1c0-2.7-1.2-3.9-3.1-3.9
		c-2,0-3.2,1.8-3.2,3.6c0,2.4,1.7,3.4,3.4,3.4c0.9,0,1.9-0.3,2.5-0.9C146.1,179.7,146.3,178.9,146.3,178.1z M166.5,190.7
		c-0.1,0.7-0.4,2-0.4,3.2c0,2.3,0.6,4.8,2.6,4.8c2.1,0,2.7-2.3,2.7-4c0-2.1-1.4-4.1-3.6-4.1C167.6,190.6,167.1,190.6,166.5,190.7z"
		/>
	<path class="st2" d="M188.1,188.5v-5.4c-0.8,0.4-1.7,0.6-2.6,0.6c-3,0-6-2-6-5.7c0-4.1,3.2-6.4,6.8-6.4c2.2,0,7.8,1,7.8,8.9v9.6
		c3.3,1.4,6.4,3.6,9.2,6.1v-12.7c0-2,0-4.2-0.1-9l5.4-2.2h0.7v29h-6c-2.1-3-5.7-6.2-9-7.6c0.1,0.3,0.1,0.7,0.1,1
		c0,2.7-2,7.1-7.3,7.1c-4.1,0-6.9-2.8-6.9-6.9c0-3.6,2.8-6.4,6.7-6.5C187.1,188.4,187.6,188.4,188.1,188.5z M189.1,177.4
		c0-2-1.3-3.3-3.1-3.3c-2,0-3.4,1.5-3.4,3.4c0,2.4,1.7,3.4,3.4,3.4c1,0,2-0.4,2.7-1.1C189,179.1,189.1,178.4,189.1,177.4z
		 M187.2,191.4c-2,0-3.9,1.5-3.9,4.2c0,1.9,1.1,3.1,2.5,3.1c2,0,2.9-2.1,2.9-4.2c0-1-0.1-2-0.6-2.9
		C187.8,191.4,187.5,191.4,187.2,191.4z"/>
	<path class="st2" d="M198.8,155.5v-4.7l3-1.4h0.6v6c1.2,0.1,2.2,0.5,3.2,0.9v-5.5l3-1.4h0.6v9.8c1.2,1.6,1.8,3.6,1.8,5.8
		c0,1.5-0.4,2.9-0.9,4.3c-5.8-3.9-11.3-5.5-19.2-5.3C191.5,159.5,194.5,156.3,198.8,155.5z M208.6,166c-0.4-3.6-4.5-6.4-8.3-6.4
		c-2.5,0-4.6,0.8-5.7,2.5C199.7,162.4,204.1,163.5,208.6,166z"/>
	<path class="st2" d="M217.5,176.2c3.5-3.1,7.4-4.7,11.8-4.7c6.2,0,12,3.2,12,10.3v9.9c0,8.1-5,10.1-11.8,10.1
		c-7.1,0-11.1-2.9-11.1-8.7v-5.4c0-4.6,2.7-8.3,7.7-8.3c4.4,0,6.1,3.2,6.1,5.7c0,4.1-2.5,6.2-5.3,6.2c-0.8,0-1.8-0.1-2.7-0.5v2.8
		c0,4,2,5.5,5.6,5.5c3.7,0,5.6-1.5,5.6-5.5v-11c0-4.6-2.3-7.7-6.7-7.7c-3.3,0-6.6,1.3-9.1,3.9L217.5,176.2z M226.2,189
		c1.9,0,3.1-1.5,3.1-3.4c0-2.1-1-3.7-3.1-3.7c-1.8,0-2.6,1.8-2.6,3.7c0,0.9,0.1,1.8,0.5,2.7C224.8,188.8,225.5,189,226.2,189z"/>
	<path class="st2" d="M268.3,191.8V183c0-6.9-3.9-8.5-6.8-8.5c-2.9,0-5.3,1.5-6,4.5l6.7,1l-1,2.7c-3.4,0.5-4.5,2.2-4.5,5.6v2.1
		c0.9-0.6,2-0.8,3-0.8c3.3,0,5.2,2.5,5.2,5.9c0,3.8-2.6,6.3-6.4,6.3c-4.6,0-7.4-3.1-7.4-9.1v-3.7c0-3.4,1.1-5.4,4.7-6.9v-0.1
		l-6.1-0.9c0.5-4.2,3.5-9.5,12.5-9.5c4.4,0,12.3,1.5,12.3,10.7v17.3l-4.8,2.1h-1.3C268.3,196.9,268.3,193.7,268.3,191.8z
		 M256.1,195.2c0,2.2,0.9,3.8,2.9,3.8c1.8,0,3-1.6,3-3.6c0-2.5-1.6-3.4-3.1-3.4c-1,0-2,0.4-2.7,1.2
		C256.2,193.9,256.1,194.6,256.1,195.2z"/>
	<path class="st2" d="M263.9,155.5v-4.7l3-1.4h0.6v6c1.2,0.1,2.2,0.5,3.2,0.9v-5.5l3-1.4h0.6v9.8c1.2,1.6,1.8,3.6,1.8,5.8
		c0,1.5-0.3,2.9-0.9,4.3c-5.8-3.9-11.3-5.5-19.2-5.3C256.5,159.5,259.5,156.3,263.9,155.5z M273.7,166c-0.4-3.6-4.5-6.4-8.3-6.4
		c-2.5,0-4.6,0.8-5.7,2.5C264.7,162.4,269.2,163.5,273.7,166z"/>
	<path class="st2" d="M282.5,176.2c3.5-3.1,7.4-4.7,11.8-4.7c6.2,0,12,3.2,12,10.3v9.9c0,8.1-5,10.1-11.8,10.1
		c-7.1,0-11.1-2.9-11.1-8.7v-5.4c0-4.6,2.7-8.3,7.7-8.3c4.4,0,6.1,3.2,6.1,5.7c0,4.1-2.5,6.2-5.3,6.2c-0.8,0-1.8-0.1-2.7-0.5v2.8
		c0,4,2,5.5,5.6,5.5c3.7,0,5.6-1.5,5.6-5.5v-11c0-4.6-2.3-7.7-6.7-7.7c-3.3,0-6.6,1.3-9.1,3.9L282.5,176.2z M291.2,189
		c1.9,0,3.1-1.5,3.1-3.4c0-2.1-1-3.7-3.1-3.7c-1.8,0-2.6,1.8-2.6,3.7c0,0.9,0.1,1.8,0.5,2.7C289.8,188.8,290.5,189,291.2,189z"/>
</g>
<g>
	<path class="st7" d="M82.1,263.6c-1.3,0-2.5,0.6-3.1,2.1c0.5-0.2,1-0.3,1.5-0.3c1.9,0,3.3,1.3,3.3,3.4c0,2.1-1.7,3.5-3.7,3.5
		c-2.5,0-4-1.9-4-4.4c0-3.9,3.1-6.2,6.7-6.2c3.3,0,6.4,2,6.4,5.6v21.2c0.6-0.3,1.4-0.5,2.2-0.5c2.4,0,4,1.7,4,4.1
		c0,2.6-1.9,4.6-4.6,4.6c-3.3,0-5.6-2.2-5.6-6.2v-23.1C85.1,265.2,84.2,263.6,82.1,263.6z M78.4,268.6c0,1.3,0.6,2.2,1.9,2.2
		c1.1,0,1.8-0.8,1.8-1.9c0-1.3-0.9-2-2-2c-0.5,0-1,0.2-1.5,0.5C78.4,268,78.4,268.2,78.4,268.6z M88.8,292.2c0,1.9,0.8,2.7,2.2,2.7
		c1.3,0,2.2-1.2,2.2-2.6c0-1.8-1.2-2.5-2.4-2.5c-0.7,0-1.4,0.3-1.9,0.8C88.8,291.1,88.8,291.6,88.8,292.2z"/>
	<path class="st7" d="M104.5,283.9c-0.6,0.2-1.2,0.3-1.8,0.3c-2.3,0-4.2-1.4-4.2-4c0-2.6,1.9-4.5,4.6-4.5c3.3,0,5.6,2,5.6,6.5v10.6
		c1.9-2.1,4.2-3.8,6.4-4.8v-4c0-1.4,0-2.9-0.1-6.3l3.8-1.6h0.5v10.7c0.3,0,0.6,0,0.9,0c2.8,0,4.8,2,4.8,4.8c0,3-2.1,5.3-5.1,5.3
		c-2.9,0-4.9-1.9-4.9-5.5c0-0.2,0-0.3,0-0.9c-2.9,1.6-5.2,4.2-6.4,6h-4.2V283.9z M105.1,280.3c0-1.9-0.8-2.7-2.2-2.7
		c-1.4,0-2.2,1.2-2.2,2.5c0,1.7,1.2,2.4,2.4,2.4c0.6,0,1.3-0.2,1.8-0.6C105,281.4,105.1,280.8,105.1,280.3z M119.2,289.1
		c-0.1,0.5-0.2,1.4-0.2,2.2c0,1.6,0.4,3.3,1.8,3.3c1.5,0,1.9-1.6,1.9-2.8c0-1.5-1-2.8-2.5-2.8C120,289,119.7,289,119.2,289.1z"/>
	<path class="st7" d="M134.1,288.7c0.6-0.3,1.4-0.5,2.2-0.5c2.4,0,4,1.7,4,4.1c0,2.6-2,4.6-4.7,4.6c-3.3,0-5.6-2.2-5.6-6.2v-6.2
		c0-2.3,0-4.5-0.1-6.8l3.5-1.6h0.8V288.7z M133.7,292.2c0,1.9,0.8,2.7,2.2,2.7c1.3,0,2.2-1.2,2.2-2.6c0-1.8-1.2-2.5-2.4-2.5
		c-0.7,0-1.4,0.3-1.9,0.8C133.7,291.1,133.7,291.6,133.7,292.2z"/>
	<path class="st7" d="M144.3,279c2.4-2.2,5.2-3.3,8.2-3.3c4.3,0,8.4,2.2,8.4,7.2v6.9c0,5.6-3.5,7.1-8.3,7.1c-4.9,0-7.8-2.1-7.8-6.1
		V287c0-3.2,1.9-5.8,5.4-5.8c3.1,0,4.3,2.3,4.3,4c0,2.8-1.8,4.3-3.7,4.3c-0.6,0-1.3-0.1-1.9-0.3v2c0,2.8,1.4,3.9,3.9,3.9
		c2.6,0,3.9-1.1,3.9-3.9v-7.7c0-3.2-1.6-5.4-4.7-5.4c-2.3,0-4.6,0.9-6.4,2.7L144.3,279z M150.4,287.9c1.3,0,2.2-1,2.2-2.4
		c0-1.5-0.7-2.6-2.2-2.6c-1.3,0-1.8,1.2-1.8,2.6c0,0.6,0.1,1.3,0.3,1.9C149.4,287.8,149.9,287.9,150.4,287.9z"/>
	<path class="st7" d="M171.9,288.7c0.6-0.3,1.4-0.5,2.2-0.5c2.4,0,4,1.7,4,4.1c0,2.6-2,4.6-4.7,4.6c-3.3,0-5.6-2.2-5.6-6.2v-6.2
		c0-2.3,0-4.5-0.1-6.8l3.5-1.6h0.8V288.7z M171.6,292.2c0,1.9,0.8,2.7,2.2,2.7c1.3,0,2.2-1.2,2.2-2.6c0-1.8-1.2-2.5-2.4-2.5
		c-0.7,0-1.4,0.3-1.9,0.8C171.6,291.1,171.6,291.6,171.6,292.2z"/>
	<path class="st7" d="M186.9,294.3h2.7v-12.9c0-2.4-0.8-3.9-2.9-3.9c-1.3,0-2.5,0.6-3.1,2.1c0.5-0.2,1-0.3,1.5-0.3
		c1.9,0,3.3,1.4,3.3,3.6c0,2.1-1.7,3.7-3.7,3.7c-2.7,0-4.2-2.1-4.2-4.7c0-3.9,3.1-6.2,6.9-6.2c3,0,5.7,1.6,6.2,4.7
		c3-0.6,3.8-3,4.1-5.6h4.2c-0.4,3.3-2.2,5.2-5.1,6.3v0c4.2,0.7,4.8,3.1,4.8,5.4v5.2c0,4.4-3,4.7-6.4,4.7h-8.5L186.9,294.3z
		 M182.9,282.5c0,1.3,0.7,2.4,2,2.4c1.1,0,1.8-1,1.8-2c0-1.3-0.9-2-2-2c-0.5,0-1.1,0.2-1.6,0.5C182.9,281.8,182.9,282.1,182.9,282.5
		z M193.7,294.3h0.6c2.6,0,3.2-0.6,3.2-3.1v-4.9c0-2.2-0.3-3.3-3.8-4V294.3z"/>
	<path class="st7" d="M195.8,264.4c1.1,0,2.1,0.2,3,0.6v-3.6l2.4-1.1h0.4v6.9c0.8,1.1,1.2,2.5,1.2,4c0,1-0.2,2-0.6,3
		c-4.1-2.7-7.9-3.9-13.4-3.7C189.2,266.7,192,264.4,195.8,264.4z M201.2,271.9c-0.2-2.5-3.1-4.5-5.8-4.5c-1.8,0-3.2,0.5-4,1.7
		C194.9,269.3,198.1,270.1,201.2,271.9z"/>
	<path class="st7" d="M224.1,276.1v13.6c0,5.6-3.6,7.2-8.4,7.2c-5.4,0-8.3-2-8.3-5.4v-0.3c0-2.7,2-3.9,3.4-4.2v-0.1
		c-2.4-0.9-3.4-2.3-3.4-5.2v-0.4c0-2.5,1.8-5.5,5.7-5.5c2.4,0,4.2,1.8,4.2,4c0,2.6-1.8,4-3.7,4c-0.8,0-1.5-0.1-2.3-0.7
		c0,1.6,1,2.5,3.2,2.5h1.7v2.4h-2.1c-1.6,0-2.6,0.8-2.6,2.8v0.7c0,2.7,2,3.4,4.4,3.4c2.4,0,4-0.9,4-4.1V284c0-1.4,0-2.9-0.1-6.3
		l3.8-1.6H224.1z M213.3,282.1c1.3,0,2.2-0.7,2.2-2.2c0-1.2-0.6-2.3-2-2.3c-1.3,0-1.9,1.1-1.9,2.4
		C211.5,281.4,212.3,282.1,213.3,282.1z"/>
	<path class="st7" d="M234.2,296.4c-0.2-1.7-1.2-3.5-2.2-5.5c-1.1-2.2-2.2-4.4-2.2-6.8c0-5.3,4.5-8,7.9-8c0.4,0,0.5,0,2.8,1.9h0.1
		c2.1-1.6,2.4-1.9,2.6-1.9c1.5,0,7.5,0.3,7.5,7.6v12.6h-4.2v-13.1c0-4.7-2.4-5-2.5-5s-1.5,1.1-3.4,2.6h-0.2
		c-2.1-1.6-3.3-2.6-3.4-2.6c-0.4,0-3,1.7-3,5.4c0,1.8,0.6,3.6,1.3,5.2c0.5,1.4,1.1,2.8,1.5,4.2h0.1c0.5-1.3,1.5-2.5,2.8-4
		c-2-0.5-3.2-1.7-3.2-3.7c0-2.5,2-3.9,4.2-3.9c2.2,0,4.2,1.5,4.2,4.2c0,2.1-1.5,3.9-2.8,5.6c-1.2,1.5-2.7,3.2-3.5,5H234.2z
		 M242.6,285.1c0-1.1-0.9-2-2.1-2c-1.5,0-2.2,1.1-2.2,2.1c0,1.9,1.6,2.4,2.6,2.4C241.1,287.6,242.6,286.4,242.6,285.1z"/>
	<path class="st7" d="M273,276.9c-1.3,5.5-5.1,8.4-9.8,8.4c-3.3,0-6.7-1.5-6.7-5c0-2.2,1.6-3.9,4-3.9c2.4,0,3.8,1.8,3.8,3.6
		c0,1.1-0.3,2.5-1.8,3.3v0.1c3.4,0.3,5.4-1.8,6.1-6.5H273z M273,288.4c-1.3,5.5-5.1,8.4-9.8,8.4c-3.3,0-6.7-1.5-6.7-5
		c0-2.2,1.6-3.9,4-3.9c2.4,0,3.8,1.8,3.8,3.6c0,1.1-0.3,2.5-1.8,3.3v0.1c3.4,0.3,5.4-1.8,6.1-6.5H273z M260.4,282.8
		c1.6-0.4,1.9-1.6,1.9-2.6c0-1.1-0.9-1.9-1.8-1.9c-1.3,0-2,0.9-2,2C258.5,281.1,259,282.3,260.4,282.8z M260.4,294.3
		c1.6-0.4,1.9-1.6,1.9-2.6c0-1.1-0.9-1.9-1.8-1.9c-1.3,0-2,0.9-2,2C258.5,292.6,259,293.8,260.4,294.3z"/>
	<path class="st7" d="M274.7,278.9c2.4-2.2,4.8-3.2,7.8-3.2c4.3,0,8.5,2.2,8.5,7.2v8.4c0,3.4-2.2,5.6-5.4,5.6
		c-2.6,0-4.7-1.7-4.7-4.3c0-2.6,1.9-4.4,4.3-4.4c0.6,0,1.2,0.1,1.7,0.3v-5.1c0-3.2-1.7-5.4-4.8-5.4c-2.4,0-4.3,1-6,2.6L274.7,278.9z
		 M285.5,289.9c-1.4,0-2.4,1.2-2.4,2.5c0,1.7,1.1,2.5,2.4,2.5c1.1,0,2.1-0.9,2.1-2.8c0-0.5-0.1-1-0.2-1.5
		C286.8,290.1,286.1,289.9,285.5,289.9z"/>
	<path class="st7" d="M296.5,266.7c-1.1,4.5-4.5,6.9-8.7,6.9c-2.9,0-5.9-1.2-5.9-4.2c0-1.9,1.4-3.3,3.4-3.3c2.1,0,3.2,1.6,3.2,3.1
		c0,0.9-0.3,2-1.3,2.6v0.1c2.8,0.2,4.7-1.5,5.2-5.2H296.5z M285.2,271.4c1.2-0.3,1.6-1.3,1.6-2.2c0-1-0.7-1.7-1.5-1.7
		c-1.1,0-1.7,0.7-1.7,1.7C283.6,270.1,284,271,285.2,271.4z"/>
	<path class="st7" d="M301.5,283.9c-0.6,0.2-1.2,0.3-1.8,0.3c-2.3,0-4.2-1.4-4.2-4c0-2.6,1.9-4.5,4.6-4.5c3.3,0,5.6,2,5.6,6.5v10.6
		c1.9-2.1,4.2-3.8,6.4-4.8v-4c0-1.4,0-2.9-0.1-6.3l3.8-1.6h0.5v10.7c0.3,0,0.6,0,0.9,0c2.8,0,4.8,2,4.8,4.8c0,3-2.1,5.3-5.1,5.3
		c-2.9,0-4.9-1.9-4.9-5.5c0-0.2,0-0.3,0-0.9c-2.9,1.6-5.2,4.2-6.4,6h-4.2V283.9z M302,280.3c0-1.9-0.8-2.7-2.2-2.7
		c-1.4,0-2.2,1.2-2.2,2.5c0,1.7,1.2,2.4,2.4,2.4c0.6,0,1.3-0.2,1.8-0.6C301.9,281.4,302,280.8,302,280.3z M316.2,289.1
		c-0.1,0.5-0.2,1.4-0.2,2.2c0,1.6,0.4,3.3,1.8,3.3c1.5,0,1.9-1.6,1.9-2.8c0-1.5-1-2.8-2.5-2.8C317,289,316.6,289,316.2,289.1z"/>
	<path class="st7" d="M325.8,279c2.4-2.2,5.2-3.3,8.2-3.3c4.3,0,8.4,2.2,8.4,7.2v6.9c0,5.6-3.5,7.1-8.3,7.1c-4.9,0-7.8-2.1-7.8-6.1
		V287c0-3.2,1.9-5.8,5.4-5.8c3.1,0,4.3,2.3,4.3,4c0,2.8-1.8,4.3-3.7,4.3c-0.6,0-1.3-0.1-1.9-0.3v2c0,2.8,1.4,3.9,3.9,3.9
		c2.6,0,3.9-1.1,3.9-3.9v-7.7c0-3.2-1.6-5.4-4.7-5.4c-2.3,0-4.6,0.9-6.4,2.7L325.8,279z M331.9,287.9c1.3,0,2.2-1,2.2-2.4
		c0-1.5-0.7-2.6-2.2-2.6c-1.3,0-1.8,1.2-1.8,2.6c0,0.6,0.1,1.3,0.3,1.9C330.9,287.8,331.4,287.9,331.9,287.9z"/>
	<path class="st7" d="M348.3,279c2.4-2.2,5.2-3.3,8.2-3.3c4.3,0,8.4,2.2,8.4,7.2v6.9c0,5.6-3.5,7.1-8.3,7.1c-4.9,0-7.8-2.1-7.8-6.1
		V287c0-3.2,1.9-5.8,5.4-5.8c3.1,0,4.3,2.3,4.3,4c0,2.8-1.8,4.3-3.7,4.3c-0.6,0-1.3-0.1-1.9-0.3v2c0,2.8,1.4,3.9,3.9,3.9
		c2.6,0,3.9-1.1,3.9-3.9v-7.7c0-3.2-1.6-5.4-4.7-5.4c-2.3,0-4.6,0.9-6.4,2.7L348.3,279z M354.4,287.9c1.3,0,2.2-1,2.2-2.4
		c0-1.5-0.7-2.6-2.2-2.6c-1.3,0-1.8,1.2-1.8,2.6c0,0.6,0.1,1.3,0.3,1.9C353.4,287.8,353.9,287.9,354.4,287.9z"/>
	<path class="st7" d="M383.7,296.8c0.1-3.3,0.1-5.5,0.1-6.9v-6.2c0-4.9-2.7-5.9-4.7-5.9s-3.6,1.1-4.2,3.1l4.6,0.8l-0.7,1.9
		c-2,0.4-2.4,1.4-2.4,3.8v9h-4.2v-8.5c0-2.3,0.5-3.6,3-4.6l0-0.1l-4.4-0.7c0.3-3,2.5-6.7,8.7-6.7c3.1,0,8.5,1.1,8.5,7.5v12.1
		l-3.3,1.5H383.7z"/>
	<path class="st7" d="M399,288.7c0.6-0.3,1.4-0.5,2.2-0.5c2.4,0,4,1.7,4,4.1c0,2.6-2,4.6-4.7,4.6c-3.3,0-5.6-2.2-5.6-6.2v-6.2
		c0-2.3,0-4.5-0.1-6.8l3.5-1.6h0.8V288.7z M398.6,292.2c0,1.9,0.8,2.7,2.2,2.7c1.3,0,2.2-1.2,2.2-2.6c0-1.8-1.2-2.5-2.4-2.5
		c-0.7,0-1.4,0.3-1.9,0.8C398.6,291.1,398.6,291.6,398.6,292.2z"/>
	<path class="st7" d="M423.7,288.3v-4.9c0-3.8-2.1-5.4-4.9-5.4c-1.4,0-3,0.4-4.7,1.2l-0.9-1.8c1.9-1.1,4.2-1.7,6.3-1.7
		c4.4,0,8.4,2.4,8.4,7.2v3.9c0.3,0,0.5,0,0.6,0c2.8,0,5,1.8,5,4.9c0,2.7-2.1,5.2-5.1,5.2c-3.3,0-5.1-2.4-4.8-5.9
		c-1.9,1.2-3.8,3.1-5.4,5.5h-4v-7.5c-0.6,0.3-1.3,0.4-1.9,0.4c-2.1,0-4.1-1.4-4.1-4c0-3,2.3-4.7,4.7-4.7c1.6,0,5.3,0.7,5.3,6.2v5.9
		C419.7,291.1,421.7,289.4,423.7,288.3z M414.7,284.9c0-1.5-0.9-2.4-2.1-2.4c-1.4,0-2.4,1.1-2.4,2.5c0,1.7,1.1,2.5,2.3,2.5
		c0.7,0,1.3-0.3,1.8-0.8C414.6,286.1,414.7,285.5,414.7,284.9z M427.6,289.1c-0.1,0.9-0.2,1.8-0.2,2.4c0,2.2,0.8,3.1,1.9,3.1
		c1.2,0,1.9-1.5,1.9-2.7c0-1.9-1-2.8-2.5-2.8C428.3,289,428.1,289,427.6,289.1z"/>
	<path class="st7" d="M425.8,264.4c1.1,0,2.1,0.2,3,0.6v-3.6l2.4-1.1h0.4v6.9c0.8,1.1,1.2,2.5,1.2,4c0,1-0.2,2-0.6,3
		c-4.1-2.7-7.9-3.9-13.4-3.7C419.2,266.7,421.9,264.4,425.8,264.4z M431.1,271.9c-0.2-2.5-3.1-4.5-5.8-4.5c-1.8,0-3.2,0.5-4,1.7
		C424.9,269.3,428,270.1,431.1,271.9z"/>
	<path class="st7" d="M454.1,276.1v13.6c0,5.6-3.6,7.2-8.4,7.2c-5.4,0-8.3-2-8.3-5.4v-0.3c0-2.7,2-3.9,3.4-4.2v-0.1
		c-2.4-0.9-3.4-2.3-3.4-5.2v-0.4c0-2.5,1.8-5.5,5.7-5.5c2.4,0,4.2,1.8,4.2,4c0,2.6-1.8,4-3.7,4c-0.8,0-1.5-0.1-2.3-0.7
		c0,1.6,1,2.5,3.2,2.5h1.7v2.4h-2.1c-1.6,0-2.6,0.8-2.6,2.8v0.7c0,2.7,2,3.4,4.4,3.4c2.4,0,4-0.9,4-4.1V284c0-1.4,0-2.9-0.1-6.3
		l3.8-1.6H454.1z M443.3,282.1c1.3,0,2.2-0.7,2.2-2.2c0-1.2-0.6-2.3-2-2.3c-1.3,0-1.9,1.1-1.9,2.4
		C441.5,281.4,442.3,282.1,443.3,282.1z"/>
	<path class="st7" d="M467.7,284.2c-2.2,0-4.3-1.4-4.3-4c0-2.4,1.9-4.5,4.8-4.5c1.5,0,5.4,0.6,5.4,6.1v9.6c0,3.8-0.3,5.1-3.5,5.1
		h-2.8c-2.8-4.1-7.5-9.2-10.6-11.2l1.4-2c3.7,2.5,8.3,7.4,10.5,10.8c0.8,0,0.9-0.3,0.9-2.1v-8C468.8,284.1,468.2,284.2,467.7,284.2z
		 M470,280.2c0-1.4-0.7-2.7-2.2-2.7c-1.4,0-2.3,1.1-2.3,2.5c0,1.6,1.2,2.4,2.5,2.4c0.6,0,1.1-0.2,1.6-0.6
		C469.9,281.3,470,280.8,470,280.2z"/>
	<path class="st7" d="M477.6,263.6c-1.3,0-2.5,0.6-3.1,2.1c0.5-0.2,1-0.3,1.5-0.3c1.9,0,3.3,1.3,3.3,3.4c0,2.1-1.7,3.5-3.7,3.5
		c-2.5,0-4-1.9-4-4.4c0-3.9,3.1-6.2,6.7-6.2c3.3,0,6.4,2,6.4,5.6v21.2c0.6-0.3,1.4-0.5,2.2-0.5c2.4,0,4,1.7,4,4.1
		c0,2.6-1.9,4.6-4.6,4.6c-3.3,0-5.6-2.2-5.6-6.2v-23.1C480.6,265.2,479.7,263.6,477.6,263.6z M473.8,268.6c0,1.3,0.6,2.2,1.9,2.2
		c1.1,0,1.8-0.8,1.8-1.9c0-1.3-0.9-2-2-2c-0.5,0-1,0.2-1.5,0.5C473.8,268,473.8,268.2,473.8,268.6z M484.3,292.2
		c0,1.9,0.8,2.7,2.2,2.7c1.3,0,2.2-1.2,2.2-2.6c0-1.8-1.2-2.5-2.4-2.5c-0.7,0-1.4,0.3-1.9,0.8C484.3,291.1,484.3,291.6,484.3,292.2z
		"/>
	<path class="st7" d="M499.1,296.4c-0.2-1.7-1.2-3.5-2.2-5.5c-1.1-2.2-2.2-4.4-2.2-6.8c0-5.3,4.5-8,7.9-8c0.4,0,0.5,0,2.8,1.9h0.1
		c2.1-1.6,2.4-1.9,2.6-1.9c1.5,0,7.5,0.3,7.5,7.6v12.6h-4.2v-13.1c0-4.7-2.4-5-2.5-5s-1.5,1.1-3.4,2.6h-0.2
		c-2.1-1.6-3.3-2.6-3.4-2.6c-0.4,0-3,1.7-3,5.4c0,1.8,0.6,3.6,1.3,5.2c0.5,1.4,1.1,2.8,1.5,4.2h0.1c0.5-1.3,1.5-2.5,2.8-4
		c-2-0.5-3.2-1.7-3.2-3.7c0-2.5,2-3.9,4.2-3.9c2.2,0,4.2,1.5,4.2,4.2c0,2.1-1.5,3.9-2.8,5.6c-1.2,1.5-2.7,3.2-3.5,5H499.1z
		 M507.5,285.1c0-1.1-0.9-2-2.1-2c-1.5,0-2.2,1.1-2.2,2.1c0,1.9,1.6,2.4,2.6,2.4C506,287.6,507.5,286.4,507.5,285.1z"/>
	<path class="st7" d="M506.2,271.9c0.8-0.1,1.9-0.5,2.5-1.4c-1.6-0.1-2.9-1.3-2.9-2.9c0-1.9,1.5-3.2,3.4-3.2c2,0,3.1,1.5,3.1,3.2
		c0,1.2-0.6,2.5-1.8,3.6l0,0.1c3.1-0.7,4.3-3.3,4.5-6.5h3.9c-0.5,3.1-2.1,5.5-4.8,7c-1.9,1-4.3,1.4-8,1.7L506.2,271.9z M509,265.9
		c-0.9,0-1.6,0.6-1.6,1.5c0,1,0.8,1.8,1.9,1.8c0.9,0,1.3-0.8,1.3-1.7C510.6,266.6,509.9,265.9,509,265.9z"/>
	<path class="st7" d="M102.5,320.6h0.5v28.7c0,5.1-2.4,5.9-7.5,5.9h-9.7l0.3-2.3h2.7v-10.1c-0.6,0.3-1.2,0.4-1.8,0.4
		c-2.1,0-4.2-1.5-4.2-4.1c0-3,2.3-4.7,4.8-4.7c1.6,0,5.4,0.7,5.4,6.2V353h0.9c3.6,0,4.9-0.2,4.9-3.9v-20.5c0-1.4,0-2.9-0.1-6.3
		L102.5,320.6z M89.6,338.7c0-1.5-0.9-2.4-2.1-2.4c-1.4,0-2.4,1.1-2.4,2.5c0,1.7,1.1,2.5,2.3,2.5c0.7,0,1.4-0.3,1.9-0.8
		C89.5,340,89.6,339.4,89.6,338.7z"/>
	<path class="st7" d="M97.2,323.2c1.1,0,2.1,0.2,3,0.6v-3.6l2.4-1.1h0.4v6.9c0.8,1.1,1.2,2.5,1.2,4c0,1-0.2,2-0.6,3
		c-4.1-2.7-7.9-3.9-13.4-3.7C90.7,325.5,93.4,323.2,97.2,323.2z M102.6,330.7c-0.2-2.5-3.1-4.5-5.8-4.5c-1.8,0-3.2,0.5-4,1.7
		C96.3,328.1,99.5,328.9,102.6,330.7z"/>
	<path class="st7" d="M132.7,349.4c-0.5,2-1,4.2-1.5,5.8H117v-0.9c1.9-1.7,4-3.5,5.8-5.3c2.4-2.5,4.2-4.9,4.2-7.4
		c0-2.4-1.4-3.9-3.7-3.9c-2.2,0-3.7,1.8-4.8,3.5l-1-0.8l2.3-3.4c1.2-1.4,3-2.4,5.2-2.4c3.3,0,6.3,2.1,6.3,5.5c0,2.5-1.5,4.8-4.6,7.6
		l-4.4,3.9h5.5c2.2,0,2.5-0.1,3.9-2.5L132.7,349.4z"/>
	<path class="st7" d="M144.1,334.6c6,0,7.9,5.7,7.9,10.5c0,4.8-1.9,10.5-8,10.5s-8.1-5.6-8.1-10.5
		C135.9,340.4,138.1,334.6,144.1,334.6L144.1,334.6z M140.4,345.1c0,4.4,0.9,9.2,3.7,9.2c2.8,0,3.5-4.8,3.5-9.1
		c0-4.5-0.8-9.1-3.6-9.1C141.1,336,140.4,340.7,140.4,345.1z"/>
	<path class="st7" d="M157.5,355.2V354c3.2-0.2,3.6-0.7,3.6-3.5V340c0-2-0.2-2.2-1.8-2.3l-2-0.1v-1c2.5-0.5,5.1-1.1,8-2v16
		c0,2.7,0.3,3.2,3.5,3.5v1.2H157.5z"/>
	<path class="st7" d="M177.7,343.3c1.6-0.5,3.3-1.2,4.4-1.2c4.5,0,7,2.9,7,5.7c0,2-1.1,3.9-3.5,5.6c-2,1.4-4.5,2.3-6.5,2.3
		c-1.5,0-3.1-0.6-3.7-1.3c-0.6-0.5-0.8-0.9-0.8-1.4c0-0.5,0.5-1.3,1-1.7c0.4-0.3,0.7-0.2,1.1,0.1c0.8,0.7,2.5,2.2,4.5,2.2
		c2.5,0,3.6-2,3.6-4.3c0-2.8-1.8-4.8-5.1-4.8c-1.5,0-3,0.5-3.9,0.8l1.4-10.5h10.8l0.2,0.4l-1.1,3.2h-8.5L177.7,343.3z"/>
</g>
</svg>