<?xml version="1.0" encoding="utf-8"?>
<!-- Generator: Adobe Illustrator 19.0.0, SVG Export Plug-In . SVG Version: 6.00 Build 0)  -->
<svg version="1.1" id="Layer_1" xmlns="http://www.w3.org/2000/svg" xmlns:xlink="http://www.w3.org/1999/xlink" x="0px" y="0px"
	 viewBox="0 0 232.7 276.1" style="enable-background:new 0 0 232.7 276.1;" xml:space="preserve">
<style type="text/css">
	.st0{fill:#0C6B88;}
	.st1{fill:none;stroke:#49C2C6;stroke-width:4.9002;stroke-linecap:round;stroke-linejoin:round;stroke-miterlimit:10;}
	.st2{fill:#F2673A;}
</style>
<g>
	<path class="st0" d="M28.8,40.1c2.4-2.1,5.1-3.2,8.1-3.2c4.2,0,8.2,2.2,8.2,7.1v6.8c0,5.5-3.4,6.9-8.1,6.9c-4.8,0-7.6-2-7.6-6V48
		c0-3.1,1.9-5.7,5.3-5.7c3,0,4.2,2.2,4.2,3.9c0,2.8-1.7,4.2-3.6,4.2c-0.6,0-1.2-0.1-1.8-0.3V52c0,2.7,1.4,3.8,3.8,3.8
		c2.5,0,3.8-1.1,3.8-3.8v-7.5c0-3.2-1.6-5.3-4.6-5.3c-2.3,0-4.5,0.9-6.2,2.6L28.8,40.1z M34.8,48.9c1.3,0,2.1-1,2.1-2.4
		c0-1.4-0.7-2.5-2.1-2.5c-1.2,0-1.8,1.2-1.8,2.5c0,0.6,0.1,1.2,0.3,1.8C33.8,48.8,34.3,48.9,34.8,48.9z"/>
	<path class="st0" d="M50.9,28.1c-1.1,4.4-4.4,6.8-8.5,6.8c-2.8,0-5.8-1.2-5.8-4.1c0-1.8,1.4-3.3,3.4-3.3c2.1,0,3.2,1.5,3.2,3
		c0,0.9-0.3,1.9-1.2,2.6v0.1c2.8,0.2,4.6-1.4,5.1-5.1H50.9z M39.8,32.8c1.2-0.3,1.6-1.3,1.6-2.1c0-1-0.7-1.6-1.5-1.6
		c-1.1,0-1.7,0.7-1.7,1.7C38.2,31.4,38.6,32.4,39.8,32.8z"/>
	<path class="st0" d="M54.9,57.2c-0.2-1.6-1.2-3.5-2.2-5.4c-1.1-2.1-2.2-4.3-2.2-6.6c0-5.2,4.4-7.9,7.7-7.9c0.4,0,0.5,0,2.7,1.8h0.1
		c2.1-1.6,2.3-1.8,2.5-1.8c1.4,0,7.4,0.3,7.4,7.5v12.4H67V44.4c0-4.6-2.4-4.9-2.5-4.9s-1.5,1.1-3.3,2.5H61c-2.1-1.6-3.2-2.5-3.4-2.5
		c-0.4,0-2.9,1.6-2.9,5.3c0,1.8,0.6,3.5,1.2,5.1c0.5,1.4,1.1,2.7,1.4,4.1h0.1c0.5-1.2,1.4-2.4,2.7-3.9c-2-0.5-3.2-1.7-3.2-3.6
		c0-2.4,2-3.8,4.1-3.8c2.2,0,4.1,1.5,4.1,4.1c0,2.1-1.4,3.8-2.8,5.5c-1.2,1.5-2.6,3.1-3.4,4.9H54.9z M63.2,46.2c0-1.1-0.9-1.9-2-1.9
		c-1.5,0-2.2,1.1-2.2,2c0,1.8,1.6,2.4,2.5,2.4C61.7,48.6,63.2,47.4,63.2,46.2z"/>
	<path class="st0" d="M75.3,42.6c0-4.5,3.1-6.5,5.9-6.5c1.7,0,3,0.6,4.1,1.2c0.9,0.4,1.6,0.8,2.4,0.8c0.8,0,1.6-0.6,2-1.2l1.1,1.5
		c-1.3,1.8-2.6,2.3-4.1,2.3c-1.5,0-2.7-0.4-3.9-0.9c-1.1-0.4-2.1-0.7-3.1-0.7c-1,0-1.7,0.5-1.7,1.3c0,0.2,0,0.5,0.1,0.8
		c5,0.4,8.2,0.9,9.9,2.1c1.5,1.2,1.6,2.2,1.6,4.8v4.1c0,3.3-2.1,5.5-5.3,5.5c-2.6,0-4.6-1.7-4.6-4.2c0-2.6,1.9-4.3,4.2-4.3
		c0.6,0,1.2,0.1,1.6,0.3v-2.1c0-2.7-1.4-3.6-10.1-4.2C75.3,42.9,75.3,42.7,75.3,42.6z M84,50.9c-1.4,0-2.3,1.2-2.3,2.5
		c0,1.6,1.1,2.5,2.3,2.5c1.1,0,2.1-0.9,2.1-2.8c0-0.5-0.1-1-0.2-1.5C85.3,51.1,84.6,50.9,84,50.9z"/>
	<path class="st0" d="M101.5,57.2V44.4c0-3.5-1.8-4.8-4-4.8c-1.4,0-2.8,0.7-4.1,1.8l-1.3-1.8c1.8-1.6,4-2.5,6.2-2.5
		c3.8,0,7.3,2.4,7.3,7.1v13.2H101.5z"/>
	<path class="st0" d="M124,57.6c0.1-3.2,0.1-5.4,0.1-6.7v-6c0-4.8-2.6-5.8-4.6-5.8s-3.5,1.1-4.1,3l4.5,0.8l-0.7,1.9
		c-1.9,0.4-2.4,1.4-2.4,3.7v8.8h-4.1v-8.4c0-2.2,0.5-3.6,2.9-4.5l0-0.1l-4.3-0.7c0.3-2.9,2.4-6.6,8.5-6.6c3,0,8.4,1.1,8.4,7.3v11.9
		l-3.3,1.4H124z"/>
	<path class="st0" d="M140.9,57.2V44.4c0-3.5-1.8-4.8-4-4.8c-1.4,0-2.8,0.7-4.1,1.8l-1.3-1.8c1.8-1.6,4-2.5,6.2-2.5
		c3.8,0,7.3,2.4,7.3,7.1v13.2H140.9z"/>
	<path class="st0" d="M149.1,42.6c0-4.5,3.1-6.5,5.9-6.5c1.7,0,3,0.6,4.1,1.2c0.9,0.4,1.6,0.8,2.4,0.8c0.8,0,1.6-0.6,2-1.2l1.1,1.5
		c-1.3,1.8-2.6,2.3-4.1,2.3c-1.5,0-2.7-0.4-3.9-0.9c-1.1-0.4-2.1-0.7-3.1-0.7c-1,0-1.7,0.5-1.7,1.3c0,0.2,0,0.5,0.1,0.8
		c5,0.4,8.2,0.9,9.9,2.1c1.5,1.2,1.6,2.2,1.6,4.8v4.1c0,3.3-2.1,5.5-5.3,5.5c-2.6,0-4.6-1.7-4.6-4.2c0-2.6,1.9-4.3,4.2-4.3
		c0.6,0,1.2,0.1,1.6,0.3v-2.1c0-2.7-1.4-3.6-10.1-4.2C149.1,42.9,149.1,42.7,149.1,42.6z M157.9,50.9c-1.4,0-2.3,1.2-2.3,2.5
		c0,1.6,1.1,2.5,2.3,2.5c1.1,0,2.1-0.9,2.1-2.8c0-0.5-0.1-1-0.2-1.5C159.2,51.1,158.5,50.9,157.9,50.9z"/>
	<path class="st0" d="M27.1,73.8c-1.3,0-2.5,0.6-3.1,2.1c0.5-0.2,1-0.3,1.4-0.3c1.8,0,3.3,1.2,3.3,3.4c0,2.1-1.6,3.5-3.6,3.5
		c-2.4,0-3.9-1.8-3.9-4.3c0-3.8,3-6,6.6-6c3.3,0,6.3,1.9,6.3,5.5v20.8c0.6-0.3,1.4-0.5,2.1-0.5c2.3,0,3.9,1.7,3.9,4
		c0,2.6-1.9,4.5-4.5,4.5c-3.2,0-5.5-2.1-5.5-6.1V77.7C30.1,75.4,29.2,73.8,27.1,73.8z M23.5,78.7c0,1.2,0.6,2.2,1.8,2.2
		c1.1,0,1.7-0.8,1.7-1.8c0-1.2-0.9-2-2-2c-0.5,0-1,0.2-1.4,0.5C23.5,78.1,23.5,78.4,23.5,78.7z M33.7,101.8c0,1.9,0.8,2.7,2.2,2.7
		c1.3,0,2.2-1.2,2.2-2.5c0-1.7-1.2-2.4-2.3-2.4c-0.7,0-1.4,0.3-1.8,0.8C33.7,100.7,33.7,101.3,33.7,101.8z"/>
	<path class="st0" d="M48.8,103.9h2.7V91.3c0-2.3-0.8-3.8-2.9-3.8c-1.3,0-2.5,0.6-3.1,2c0.5-0.2,1-0.3,1.4-0.3
		c1.8,0,3.3,1.4,3.3,3.5c0,2.1-1.7,3.6-3.6,3.6c-2.7,0-4.1-2.1-4.1-4.6c0-3.8,3.1-6,6.8-6c2.9,0,5.6,1.6,6.1,4.6
		c2.9-0.6,3.7-3,4-5.5h4.1c-0.4,3.2-2.2,5.1-5,6.2v0c4.1,0.7,4.7,3,4.7,5.3v5.1c0,4.3-2.9,4.6-6.3,4.6h-8.4L48.8,103.9z M44.8,92.3
		c0,1.2,0.7,2.3,2,2.3c1.1,0,1.7-1,1.7-2c0-1.2-0.9-2-2-2c-0.5,0-1.1,0.2-1.6,0.5C44.8,91.7,44.8,91.9,44.8,92.3z M55.4,103.9H56
		c2.5,0,3.1-0.6,3.1-3.1V96c0-2.2-0.3-3.3-3.7-3.9V103.9z"/>
	<path class="st0" d="M53.8,81.9c0.8-0.1,1.9-0.5,2.4-1.3c-1.6-0.1-2.9-1.3-2.9-2.9c0-1.8,1.4-3.2,3.3-3.2c2,0,3.1,1.4,3.1,3.1
		c0,1.2-0.6,2.5-1.8,3.6l0,0.1c3-0.7,4.2-3.2,4.4-6.3h3.8c-0.5,3.1-2,5.4-4.7,6.9c-1.8,1-4.2,1.3-7.8,1.6L53.8,81.9z M56.6,76.1
		c-0.9,0-1.5,0.6-1.5,1.5c0,1,0.8,1.7,1.8,1.7c0.9,0,1.3-0.8,1.3-1.6C58.2,76.8,57.5,76.1,56.6,76.1z"/>
	<path class="st0" d="M69.1,88.8c2.4-2.1,4.7-3.1,7.7-3.1c4.2,0,8.3,2.2,8.3,7.1v9.4c0,2.2-1,3.8-4,3.8h-3.7l-2.6-7.4
		c-0.7,0.6-1.7,1.1-2.8,1.1c-2.1,0-3.7-1.6-3.7-3.8c0-2.3,1.9-4.1,4.1-4.1c2.4,0,3.8,1.4,4.8,4.2l2.8,7.7c0.9,0,1.1-0.4,1.1-2v-8.4
		c0-3.2-1.7-5.3-4.7-5.3c-2.3,0-4,1-5.7,2.6L69.1,88.8z M71.9,93.7c-1.1,0-1.8,0.9-1.8,2.1c0,1.3,0.9,2.2,2.1,2.2
		c1,0,1.7-0.5,2.2-1.2C74.2,95.3,73.3,93.7,71.9,93.7z"/>
	<path class="st0" d="M82.4,83.4l-1.2-8.6h4.1l-1.1,7.9L82.4,83.4L82.4,83.4z"/>
	<path class="st0" d="M97.8,106V93.1c0-3.5-1.8-4.8-4-4.8c-1.4,0-2.8,0.7-4.1,1.8l-1.3-1.8c1.8-1.6,4-2.5,6.2-2.5
		c3.8,0,7.3,2.4,7.3,7.1V106H97.8z"/>
	<path class="st0" d="M124,86.1v13.3c0,5.5-3.5,7-8.2,7c-5.3,0-8.1-2-8.1-5.3v-0.3c0-2.6,2-3.8,3.4-4.1v-0.1
		c-2.3-0.9-3.3-2.3-3.3-5.1v-0.4c0-2.5,1.8-5.4,5.6-5.4c2.3,0,4.1,1.7,4.1,3.9c0,2.5-1.8,3.9-3.6,3.9c-0.8,0-1.5-0.1-2.2-0.7
		c0,1.6,1,2.5,3.1,2.5h1.6v2.4h-2c-1.6,0-2.5,0.8-2.5,2.8v0.7c0,2.7,1.9,3.4,4.3,3.4c2.4,0,3.9-0.9,3.9-4v-6.7c0-1.3,0-2.9-0.1-6.2
		l3.7-1.5H124z M113.4,91.9c1.2,0,2.1-0.7,2.1-2.1c0-1.2-0.6-2.3-2-2.3c-1.3,0-1.9,1.1-1.9,2.4S112.4,91.9,113.4,91.9z"/>
	<path class="st0" d="M134.8,98.4c0.6-0.3,1.4-0.5,2.1-0.5c2.3,0,3.9,1.7,3.9,4c0,2.6-2,4.5-4.6,4.5c-3.2,0-5.5-2.1-5.5-6.1v-6
		c0-2.3,0-4.4-0.1-6.6l3.4-1.5h0.8V98.4z M134.4,101.8c0,1.9,0.8,2.7,2.2,2.7c1.3,0,2.2-1.2,2.2-2.5c0-1.7-1.2-2.4-2.3-2.4
		c-0.7,0-1.4,0.3-1.8,0.8C134.4,100.7,134.4,101.3,134.4,101.8z"/>
	<path class="st0" d="M159,98v-4.8c0-3.7-2-5.3-4.8-5.3c-1.4,0-3,0.4-4.6,1.2l-0.9-1.8c1.9-1.1,4.1-1.6,6.1-1.6
		c4.3,0,8.2,2.3,8.2,7.1v3.8c0.3,0,0.5,0,0.6,0c2.7,0,4.9,1.8,4.9,4.8c0,2.6-2,5.1-5,5.1c-3.3,0-5-2.4-4.7-5.8
		c-1.8,1.2-3.7,3-5.3,5.4h-3.9v-7.3c-0.6,0.3-1.2,0.4-1.8,0.4c-2.1,0-4-1.4-4-3.9c0-2.9,2.2-4.6,4.6-4.6c1.5,0,5.2,0.7,5.2,6.1v5.8
		C155.1,100.8,157.1,99.1,159,98z M150.2,94.6c0-1.4-0.9-2.4-2-2.4c-1.3,0-2.3,1.1-2.3,2.4c0,1.7,1.1,2.4,2.2,2.4
		c0.7,0,1.3-0.3,1.8-0.8C150.1,95.9,150.2,95.3,150.2,94.6z M162.9,98.8c-0.1,0.9-0.2,1.7-0.2,2.4c0,2.2,0.8,3,1.8,3
		c1.2,0,1.8-1.4,1.8-2.7c0-1.9-1-2.8-2.4-2.8C163.5,98.7,163.3,98.7,162.9,98.8z"/>
	<path class="st0" d="M185.2,106v-9.7c-1.3-1.4-3.2-2.3-4.8-2.3c-1.6,0-3.2,0.9-3.2,3.4c0,0.4,0,0.7,0.1,1.2c0.6-0.3,1.2-0.5,2-0.5
		c2.3,0,3.6,1.7,3.6,4c0,2.6-1.8,4.3-4.4,4.3c-3.2,0-5.2-2.1-5.2-6.2v-1.4c0-6.2,5.1-6.7,6.9-6.7c1.6,0,3.5,0.6,5,1.5v-0.3
		c0-3.2-1.7-5.3-4.7-5.3c-2.3,0-4.4,1-6,2.6l-1.3-1.7c2.4-2.1,4.8-3.1,7.8-3.1c4.2,0,8.3,2.2,8.3,7.1V106H185.2z M177,101.9
		c0,1.5,0.6,2.6,2,2.6c1.2,0,2.1-1.1,2.1-2.4c0-1.7-1.1-2.4-2.1-2.4c-0.7,0-1.4,0.3-1.8,0.8C177,101,177,101.5,177,101.9z"/>
	<path class="st0" d="M183.6,74.6c1.1,0,2.1,0.2,2.9,0.6v-3.6l2.4-1.1h0.4v6.8c0.8,1.1,1.2,2.5,1.2,3.9c0,1-0.2,2-0.6,2.9
		c-4-2.6-7.7-3.8-13.2-3.6C177.2,76.9,179.9,74.6,183.6,74.6z M188.9,81.9c-0.2-2.4-3.1-4.4-5.7-4.4c-1.7,0-3.1,0.5-3.9,1.7
		C182.8,79.4,185.8,80.1,188.9,81.9z"/>
	<path class="st0" d="M186.7,83.4l-1.2-8.6h4.1l-1.1,7.9L186.7,83.4L186.7,83.4z"/>
	<path class="st0" d="M211.4,86.1v13.3c0,5.5-3.5,7-8.2,7c-5.3,0-8.1-2-8.1-5.3v-0.3c0-2.6,2-3.8,3.4-4.1v-0.1
		c-2.3-0.9-3.3-2.3-3.3-5.1v-0.4c0-2.5,1.8-5.4,5.6-5.4c2.3,0,4.1,1.7,4.1,3.9c0,2.5-1.8,3.9-3.6,3.9c-0.8,0-1.5-0.1-2.2-0.7
		c0,1.6,1,2.5,3.1,2.5h1.6v2.4h-2c-1.6,0-2.5,0.8-2.5,2.8v0.7c0,2.7,1.9,3.4,4.3,3.4c2.4,0,3.9-0.9,3.9-4v-6.7c0-1.3,0-2.9-0.1-6.2
		l3.7-1.5H211.4z M200.8,91.9c1.2,0,2.1-0.7,2.1-2.1c0-1.2-0.6-2.3-2-2.3c-1.3,0-1.9,1.1-1.9,2.4S199.8,91.9,200.8,91.9z"/>
</g>
<rect x="2.4" y="2.5" class="st1" width="227.8" height="271.2"/>
<g>
	<path class="st2" d="M110.8,230.2v-10.2c-13.3-1.8-19.6-11.5-20.5-19.6l11.9-2.9c0.6,6,4.6,11.6,13.4,11.6c6.2,0,9.8-3,9.8-7.2
		c0-3.3-2.4-5.7-7.2-6.8l-8.8-1.9c-10.3-2.3-16.7-8.8-16.7-18c0-10.1,7.8-17.6,18.1-19.2v-10.2h9.8v10.5c11,2,15.8,9.7,17.1,16.1
		l-11.8,3.3c-0.6-3.3-3.1-8.9-10.9-8.9c-6.1,0-9.5,3.5-9.5,7.5c0,3,2.1,5.5,6.6,6.4l8.7,2c12,2.7,17.5,9.8,17.5,18.5
		c0,8.8-6.3,16.9-17.8,18.7v10.3H110.8z"/>
</g>
</svg>
