<!-- Generator: Adobe Illustrator 19.0.0, SVG Export Plug-In  -->
<svg version="1.1"
	 xmlns="http://www.w3.org/2000/svg" xmlns:xlink="http://www.w3.org/1999/xlink" xmlns:a="http://ns.adobe.com/AdobeSVGViewerExtensions/3.0/"
	 x="0px" y="0px" width="364.5px" height="530.8px" viewBox="0 0 364.5 530.8" style="enable-background:new 0 0 364.5 530.8;"
	 xml:space="preserve">
<style type="text/css">
	.st0{fill:none;stroke:#ED6A4A;stroke-width:8.5039;stroke-miterlimit:10;}
	.st1{fill:#FF6633;}
	.st2{fill:#9D9FA0;}
	.st3{fill:#E3E3E3;}
	.st4{fill:none;stroke:#086A87;stroke-width:2.6109;stroke-linecap:round;stroke-linejoin:round;stroke-miterlimit:10;}
	.st5{fill:#086A87;}
	.st6{fill:none;stroke:#086A87;stroke-width:1.9998;stroke-linecap:round;stroke-linejoin:round;stroke-miterlimit:10;}
	.st7{fill:#33CCCC;}
	.st8{fill:#33CCCC;stroke:#FFFFFF;stroke-width:2.1754;stroke-linecap:round;stroke-linejoin:round;stroke-miterlimit:10;}
	.st9{fill:#33CCCC;stroke:#FFFFFF;stroke-width:2.1409;stroke-linecap:round;stroke-linejoin:round;stroke-miterlimit:10;}
	.st10{fill:#FFFFFF;}
</style>
<defs>
</defs>
<path class="st0" d="M190.5,4.3c-51.2,0-92.7,41.5-92.7,92.7v132.2h185.3V96.9C283.2,45.7,241.7,4.3,190.5,4.3z"/>
<polygon class="st1" points="49.4,116.7 49.4,241.9 47.5,241.9 47.5,365.1 364.5,365.1 364.5,261.4 364.5,241.9 364.5,116.7 "/>
<rect y="364.6" class="st2" width="124.7" height="166.2"/>
<rect x="249.5" y="364.6" class="st2" width="115" height="166.2"/>
<rect x="124.7" y="364.6" class="st3" width="124.7" height="166.2"/>
<g>
	<g>
		<path class="st4" d="M289.8,447.7h31c5.1,0,9.2-4.1,9.2-9.2v-42.6c0-5.1-4.1-9.2-9.2-9.2H282c-1.8,0-3.3,1.5-3.3,3.3v54.3
			c0,1.8,1.5,3.3,3.3,3.3h0.4"/>
		<line class="st4" x1="278.6" y1="436.2" x2="330.1" y2="436.2"/>
		<polygon class="st4" points="286.1,440.4 282.4,440.4 282.4,455.1 286.1,452.1 289.8,455.1 289.8,440.4 		"/>
		<rect x="291.1" y="394.6" class="st4" width="32.7" height="12.6"/>
		<line class="st4" x1="278.6" y1="440.4" x2="320.2" y2="440.4"/>
		<line class="st4" x1="284.2" y1="386.8" x2="284.2" y2="436.2"/>
	</g>
	<g>
		<g>
			<path class="st5" d="M299.7,487.6h-10.3v-2.2l3.7-3.7c1.1-1.1,1.8-1.9,2.1-2.3c0.3-0.4,0.6-0.8,0.7-1.2s0.2-0.8,0.2-1.1
				c0-0.6-0.2-1-0.5-1.3c-0.3-0.3-0.8-0.4-1.3-0.4c-0.6,0-1.1,0.1-1.7,0.4s-1.1,0.6-1.7,1.1l-1.7-2c0.7-0.6,1.3-1.1,1.8-1.3
				c0.5-0.3,1-0.5,1.6-0.6c0.6-0.1,1.2-0.2,1.9-0.2c0.9,0,1.7,0.2,2.4,0.5s1.3,0.8,1.6,1.4c0.4,0.6,0.6,1.3,0.6,2.1
				c0,0.7-0.1,1.3-0.4,1.9c-0.2,0.6-0.6,1.2-1.1,1.8c-0.5,0.6-1.4,1.5-2.6,2.7l-1.9,1.8v0.1h6.4V487.6z"/>
			<path class="st5" d="M308,477.2c0,1.5-0.3,2.7-0.9,3.5c-0.6,0.8-1.5,1.2-2.6,1.2c-1.1,0-2-0.4-2.6-1.2c-0.6-0.8-0.9-1.9-0.9-3.4
				c0-3.1,1.2-4.6,3.5-4.6c1.1,0,2,0.4,2.6,1.2S308,475.8,308,477.2z M303.5,477.3c0,0.9,0.1,1.5,0.2,1.9c0.2,0.4,0.4,0.6,0.7,0.6
				c0.6,0,1-0.8,1-2.5c0-1.7-0.3-2.5-1-2.5c-0.3,0-0.6,0.2-0.7,0.6C303.6,475.8,303.5,476.4,303.5,477.3z M314.9,472.8l-8.2,14.7
				h-2.4l8.2-14.7H314.9z M318.3,483.1c0,1.5-0.3,2.7-0.9,3.5c-0.6,0.8-1.5,1.2-2.6,1.2c-1.1,0-2-0.4-2.6-1.2
				c-0.6-0.8-0.9-1.9-0.9-3.4c0-3.1,1.2-4.6,3.5-4.6c1.1,0,2,0.4,2.6,1.2C318,480.5,318.3,481.6,318.3,483.1z M313.8,483.1
				c0,0.9,0.1,1.5,0.2,1.9c0.2,0.4,0.4,0.6,0.7,0.6c0.6,0,1-0.8,1-2.5c0-1.7-0.3-2.5-1-2.5c-0.3,0-0.6,0.2-0.7,0.6
				C313.9,481.7,313.8,482.3,313.8,483.1z"/>
		</g>
	</g>
	<g>
		<g>
			<path class="st5" d="M277.9,503.3c-0.2,0.1-0.5,0.1-0.7,0.1c-1,0-1.9-0.6-1.9-1.8c0-1.1,0.8-2,2.1-2c0.7,0,2.4,0.3,2.4,2.7v2.5
				c0,0.5,0,1.1-0.1,1.6l0,0c1.1-2,2-3,3.1-3.7c-0.6-0.3-0.9-0.9-0.9-1.5c0-1.1,1-1.8,2-1.8c1,0,1.9,0.7,1.9,1.8
				c0,0.6-0.3,1.1-0.7,1.5c0.1,0.1,0.2,0.3,0.2,0.5v5.7h-1.9v-5.5c-1.2,0.8-2.7,2.8-3.8,5.5h-1.7V503.3z M278.2,501.7
				c0-0.6-0.3-1.2-1-1.2c-0.6,0-1,0.5-1,1.1c0,0.7,0.5,1.1,1.1,1.1c0.3,0,0.5-0.1,0.7-0.3C278.2,502.2,278.2,502,278.2,501.7z
				 M284.8,501.2c0-0.5-0.4-0.9-0.9-0.9c-0.6,0-0.9,0.4-0.9,0.9c0,0.6,0.5,1.1,1.1,1.2C284.5,502.2,284.8,501.7,284.8,501.2z"/>
			<path class="st5" d="M290.2,503.4c-0.3,0.1-0.5,0.1-0.8,0.1c-1,0-1.9-0.6-1.9-1.8c0-1.2,0.9-2,2.1-2c1.5,0,2.5,0.9,2.5,2.9v4.8
				c0.9-0.9,1.9-1.7,2.9-2.2v-1.8c0-0.6,0-1.3,0-2.8l1.7-0.7h0.2v4.8c0.1,0,0.3,0,0.4,0c1.3,0,2.2,0.9,2.2,2.1
				c0,1.3-0.9,2.4-2.3,2.4c-1.3,0-2.2-0.9-2.2-2.5c0-0.1,0-0.2,0-0.4c-1.3,0.7-2.3,1.9-2.9,2.7h-1.9V503.4z M290.5,501.7
				c0-0.9-0.4-1.2-1-1.2c-0.6,0-1,0.6-1,1.1c0,0.7,0.5,1.1,1.1,1.1c0.3,0,0.6-0.1,0.8-0.3C290.4,502.2,290.5,502,290.5,501.7z
				 M296.8,505.7c0,0.2-0.1,0.6-0.1,1c0,0.7,0.2,1.5,0.8,1.5c0.7,0,0.8-0.7,0.8-1.3c0-0.7-0.4-1.3-1.1-1.3
				C297.2,505.7,297,505.7,296.8,505.7z"/>
			<path class="st5" d="M301.2,495.6c-0.5,2-2,3.1-3.9,3.1c-1.3,0-2.6-0.5-2.6-1.9c0-0.8,0.6-1.5,1.5-1.5c0.9,0,1.5,0.7,1.5,1.4
				c0,0.4-0.1,0.9-0.6,1.2v0c1.3,0.1,2.1-0.7,2.4-2.4H301.2z M296.1,497.8c0.5-0.2,0.7-0.6,0.7-1c0-0.4-0.3-0.7-0.7-0.7
				c-0.5,0-0.8,0.3-0.8,0.8C295.4,497.1,295.6,497.6,296.1,497.8z"/>
			<path class="st5" d="M304.6,503.5c-1,0-1.9-0.6-1.9-1.8c0-1.1,0.8-2,2.1-2c0.7,0,2.4,0.3,2.4,2.7v4.3c0,1.7-0.1,2.3-1.6,2.3h-1.3
				c-1.3-1.8-3.4-4.1-4.8-5l0.6-0.9c1.6,1.1,3.7,3.3,4.7,4.8c0.4,0,0.4-0.2,0.4-0.9v-3.6C305.2,503.4,304.9,503.5,304.6,503.5z
				 M305.7,501.7c0-0.6-0.3-1.2-1-1.2c-0.6,0-1,0.5-1,1.1c0,0.7,0.6,1.1,1.1,1.1c0.3,0,0.5-0.1,0.7-0.3
				C305.6,502.2,305.7,502,305.7,501.7z"/>
			<path class="st5" d="M317.9,498.7c-0.1,0.8-0.5,1.5-1.1,2c0.5,0.5,0.8,1.2,0.8,2.2v6.1h-1.9v-4.5c-0.6-0.7-1.5-1-2.2-1
				c-0.7,0-1.5,0.4-1.5,1.6c0,0.2,0,0.3,0,0.5c0.3-0.2,0.6-0.2,0.9-0.2c1,0,1.6,0.8,1.6,1.8c0,1.2-0.8,2-2,2c-1.5,0-2.4-1-2.4-2.9
				v-0.7c0-2.8,2.4-3.1,3.1-3.1c0.7,0,1.6,0.3,2.3,0.7v-0.2c0-0.6-0.1-1-0.3-1.4c-0.4,0.2-0.7,0.4-1.1,0.5l-0.5-0.3v0
				c0.4-0.2,0.7-0.5,1.1-0.8c-0.3-0.3-0.8-0.4-1.3-0.4c-1.1,0-2,0.4-2.8,1.2l-0.6-0.8c1.1-1,2.2-1.4,3.6-1.4c0.7,0,1.3,0.1,1.9,0.4
				c0.2-0.4,0.4-0.9,0.4-1.3H317.9z M312,507.1c0,0.7,0.3,1.2,0.9,1.2c0.6,0,0.9-0.5,0.9-1.1c0-0.8-0.5-1.1-1-1.1
				c-0.3,0-0.6,0.1-0.8,0.4C312,506.7,312,506.9,312,507.1z"/>
			<path class="st5" d="M314.4,494.7v-1.5l0.9-0.4h0.2v1.9c0.4,0,0.7,0.2,1,0.3v-1.7l0.9-0.4h0.2v3.1c0.4,0.5,0.6,1.1,0.6,1.8
				c0,0.5-0.1,0.9-0.3,1.3c-1.8-1.2-3.5-1.7-6-1.7C312,495.9,313,494.9,314.4,494.7z M317.4,498c-0.1-1.1-1.4-2-2.6-2
				c-0.8,0-1.4,0.2-1.8,0.8C314.6,496.8,316,497.1,317.4,498z"/>
			<path class="st5" d="M320.2,501.1c1.1-1,2.3-1.5,3.7-1.5c1.9,0,3.8,1,3.8,3.2v3.1c0,2.5-1.6,3.2-3.7,3.2c-2.2,0-3.5-0.9-3.5-2.7
				v-1.7c0-1.4,0.9-2.6,2.4-2.6c1.4,0,1.9,1,1.9,1.8c0,1.3-0.8,1.9-1.7,1.9c-0.3,0-0.6,0-0.8-0.2v0.9c0,1.3,0.6,1.7,1.8,1.7
				c1.2,0,1.8-0.5,1.8-1.7v-3.5c0-1.5-0.7-2.4-2.1-2.4c-1,0-2.1,0.4-2.9,1.2L320.2,501.1z M323,505.2c0.6,0,1-0.5,1-1.1
				c0-0.7-0.3-1.2-1-1.2c-0.6,0-0.8,0.5-0.8,1.2c0,0.3,0,0.6,0.2,0.8C322.5,505.1,322.7,505.2,323,505.2z"/>
		</g>
	</g>
</g>
<path class="st6" d="M219.6,425.1h-65.7c-1.8,0-3.4-1.5-3.4-3.4l0,0c0-1.8,1.5-3.4,3.4-3.4h65.7c1.8,0,3.4,1.5,3.4,3.4l0,0
	C222.9,423.6,221.4,425.1,219.6,425.1z"/>
<g>
	<polygon class="st6" points="173.5,441.7 165.6,441.7 163.6,432.9 172.6,432.9 	"/>
	<polygon class="st6" points="185,441.7 176.5,441.7 175.5,432.9 185,432.9 	"/>
	<polygon class="st6" points="174.3,453.8 167.8,453.8 165.9,445 173.1,445 	"/>
	<polygon class="st6" points="185,453.6 177.3,453.6 176.4,445 185,445 	"/>
	<polygon class="st6" points="200,441.7 207.9,441.7 209.8,432.9 200.8,432.9 	"/>
	<polygon class="st6" points="188.5,441.7 197,441.7 197.9,432.9 188.5,432.9 	"/>
	<polygon class="st6" points="199.1,453.8 205.6,453.8 207.6,445 200.3,445 	"/>
	<polygon class="st6" points="188.5,453.6 196.1,453.6 197,445 188.5,445 	"/>
</g>
<path class="st6" d="M186.7,425.3H155l8.2,30.6c0,0,0.8,4.4,4.9,5.4h18.7h18.7c4.1-1.1,4.9-5.4,4.9-5.4l8.2-30.6H186.7z"/>
<path class="st6" d="M160.6,418.4l-9.5-24.7c-1.6-4,0.4-8.5,4.4-10.1l0,0c4-1.6,8.5,0.4,10.1,4.4l7.3,17.9"/>
<circle class="st6" cx="176.9" cy="411.4" r="6.8"/>
<path class="st6" d="M186.8,397.8c0,0-6.2-2.8-8.8,4.3C178.1,402,184.7,403.9,186.8,397.8z"/>
<line class="st6" x1="177.2" y1="398.6" x2="177.4" y2="407.5"/>
<path class="st6" d="M175.2,407.3c0,0,1.6,1,4.1-0.2"/>
<rect x="193.5" y="408.6" class="st6" width="12.1" height="9.8"/>
<polygon class="st6" points="204.2,404.2 200.8,404.2 198.4,404.2 194.9,404.2 193.5,408.5 198.4,408.5 200.8,408.5 205.6,408.5 "/>
<polyline class="st6" points="193.5,417.6 205.6,412.3 205.6,417 "/>
<rect x="194.8" y="401.6" class="st6" width="9.6" height="3"/>
<polyline class="st6" points="196.4,441.8 193.2,441.8 193.2,433.2 "/>
<polyline class="st6" points="201.3,441.4 205.4,441.4 205.4,433.2 "/>
<polyline class="st6" points="184.2,396.7 184.2,384.4 190.5,384.4 190.5,418.5 184.2,418.5 184.2,401.3 "/>
<line class="st6" x1="165.9" y1="432.9" x2="169.6" y2="441.6"/>
<line class="st6" x1="214.4" y1="414.3" x2="212.8" y2="418.4"/>
<path class="st6" d="M205.6,410.8c0,2.5,2,4.5,4.5,4.5c1.3,0,2.5-0.6,3.3-1.5c0.9,0.6,2,1,3.2,1c3.1,0,5.6-2.5,5.6-5.6
	c0-1.2-0.4-2.4-1.1-3.3c0.4-0.4,0.7-0.9,0.9-1.4c0.7-2.2-0.4-4.5-2.6-5.2c-0.5-0.2-1.1-0.2-1.6-0.2c0.6-2.1-0.5-4.4-2.6-5.1
	c-0.1,0-0.3-0.1-0.4-0.1c0-0.1,0-0.3,0-0.4c0-3.4-2.8-6.2-6.2-6.2c-2.7,0-5,1.7-5.8,4.2c-0.5-0.1-1.1-0.2-1.6-0.2
	c-3.5,0-6.4,2.9-6.4,6.4c0,1.3,0.4,2.6,1.1,3.6"/>
<g>
	<g>
		<path class="st5" d="M173.9,487.6h-3.1V479l0-1.4l0-1.5c-0.5,0.5-0.9,0.9-1.1,1l-1.7,1.4l-1.5-1.9l4.7-3.8h2.6V487.6z"/>
		<path class="st5" d="M188.2,480.2c0,2.6-0.4,4.5-1.3,5.7c-0.8,1.2-2.1,1.9-3.9,1.9c-1.7,0-3-0.6-3.8-1.9c-0.9-1.3-1.3-3.2-1.3-5.6
			c0-2.6,0.4-4.5,1.3-5.7c0.8-1.2,2.1-1.8,3.9-1.8c1.7,0,3,0.6,3.9,1.9C187.8,475.8,188.2,477.7,188.2,480.2z M181,480.2
			c0,1.8,0.2,3.1,0.5,3.9c0.3,0.8,0.8,1.2,1.6,1.2c0.7,0,1.2-0.4,1.6-1.2s0.5-2.1,0.5-3.9c0-1.8-0.2-3.1-0.5-3.9
			c-0.3-0.8-0.8-1.2-1.6-1.2c-0.7,0-1.3,0.4-1.6,1.2S181,478.4,181,480.2z"/>
		<path class="st5" d="M196.6,477.2c0,1.5-0.3,2.7-0.9,3.5s-1.5,1.2-2.6,1.2c-1.1,0-2-0.4-2.6-1.2c-0.6-0.8-0.9-1.9-0.9-3.4
			c0-3.1,1.2-4.6,3.5-4.6c1.1,0,2,0.4,2.6,1.2C196.3,474.6,196.6,475.8,196.6,477.2z M192.2,477.3c0,0.9,0.1,1.5,0.2,1.9
			c0.2,0.4,0.4,0.6,0.7,0.6c0.6,0,1-0.8,1-2.5c0-1.7-0.3-2.5-1-2.5c-0.3,0-0.6,0.2-0.7,0.6C192.2,475.8,192.2,476.4,192.2,477.3z
			 M203.6,472.8l-8.2,14.7H193l8.2-14.7H203.6z M206.9,483.1c0,1.5-0.3,2.7-0.9,3.5c-0.6,0.8-1.5,1.2-2.6,1.2c-1.1,0-2-0.4-2.6-1.2
			c-0.6-0.8-0.9-1.9-0.9-3.4c0-3.1,1.2-4.6,3.5-4.6c1.1,0,2,0.4,2.6,1.2C206.6,480.5,206.9,481.6,206.9,483.1z M202.5,483.1
			c0,0.9,0.1,1.5,0.2,1.9c0.2,0.4,0.4,0.6,0.7,0.6c0.6,0,1-0.8,1-2.5c0-1.7-0.3-2.5-1-2.5c-0.3,0-0.6,0.2-0.7,0.6
			C202.6,481.7,202.5,482.3,202.5,483.1z"/>
	</g>
</g>
<g>
	<g>
		<path class="st5" d="M145,500.8c0-2,1.4-3,2.7-3c0.8,0,1.4,0.3,1.9,0.5c0.4,0.2,0.7,0.4,1.1,0.4c0.4,0,0.7-0.3,0.9-0.5l0.5,0.7
			c-0.6,0.8-1.2,1.1-1.9,1.1c-0.7,0-1.3-0.2-1.8-0.4c-0.5-0.2-1-0.3-1.4-0.3c-0.4,0-0.8,0.2-0.8,0.6c0,0.1,0,0.2,0.1,0.4
			c2.3,0.2,3.8,0.4,4.5,1c0.7,0.5,0.7,1,0.7,2.2v1.9c0,1.5-1,2.5-2.4,2.5c-1.2,0-2.1-0.8-2.1-1.9c0-1.2,0.9-2,1.9-2
			c0.3,0,0.5,0,0.7,0.2v-1c0-1.3-0.7-1.7-4.6-1.9C145,500.9,145,500.9,145,500.8z M149,504.6c-0.6,0-1.1,0.5-1.1,1.1
			c0,0.7,0.5,1.1,1.1,1.1c0.5,0,0.9-0.4,0.9-1.3c0-0.2,0-0.5-0.1-0.7C149.6,504.7,149.3,504.6,149,504.6z"/>
		<path class="st5" d="M146.9,496.5c0.4-0.1,0.9-0.2,1.1-0.6c-0.7-0.1-1.3-0.6-1.3-1.3c0-0.8,0.7-1.5,1.5-1.5c0.9,0,1.4,0.7,1.4,1.4
			c0,0.5-0.3,1.1-0.8,1.6l0,0c1.4-0.3,1.9-1.5,2-2.9h1.8c-0.2,1.4-0.9,2.5-2.2,3.1c-0.8,0.5-1.9,0.6-3.6,0.7L146.9,496.5z
			 M148.2,493.8c-0.4,0-0.7,0.3-0.7,0.7c0,0.5,0.4,0.8,0.8,0.8c0.4,0,0.6-0.4,0.6-0.7C148.9,494.1,148.6,493.8,148.2,493.8z"/>
		<path class="st5" d="M157,507.5v-5.9c0-1.6-0.8-2.2-1.8-2.2c-0.7,0-1.3,0.3-1.9,0.8l-0.6-0.8c0.8-0.7,1.8-1.2,2.8-1.2
			c1.7,0,3.3,1.1,3.3,3.2v6.1H157z"/>
		<path class="st5" d="M163.8,501.9c-0.3,0.1-0.6,0.1-0.8,0.1c-1,0-1.9-0.6-1.9-1.8c0-1.2,0.9-2,2.1-2c1.5,0,2.5,0.9,2.5,2.9v4.8
			c0.9-0.9,1.9-1.7,2.9-2.2v-1.8c0-0.6,0-1.3,0-2.8l1.7-0.7h0.2v4.8c0.1,0,0.3,0,0.4,0c1.3,0,2.2,0.9,2.2,2.1c0,1.3-0.9,2.4-2.3,2.4
			c-1.3,0-2.2-0.9-2.2-2.5c0-0.1,0-0.2,0-0.4c-1.3,0.7-2.3,1.9-2.9,2.7h-1.9V501.9z M164,500.3c0-0.9-0.4-1.2-1-1.2
			c-0.6,0-1,0.6-1,1.1c0,0.7,0.5,1.1,1.1,1.1c0.3,0,0.6-0.1,0.8-0.3C164,500.8,164,500.5,164,500.3z M170.4,504.2
			c0,0.2-0.1,0.6-0.1,1c0,0.7,0.2,1.5,0.8,1.5c0.7,0,0.8-0.7,0.8-1.3c0-0.7-0.4-1.3-1.1-1.3C170.8,504.2,170.6,504.2,170.4,504.2z"
			/>
		<path class="st5" d="M183.1,498.4v6.9c0,1.5-1.1,2.4-2.6,2.4c-1.4,0-2.5-0.9-2.5-2.4v-4.5c0-1.1-0.4-1.8-1.3-1.8
			c-0.6,0-1.1,0.3-1.4,0.9c0.2-0.1,0.4-0.1,0.7-0.1c0.8,0,1.5,0.6,1.5,1.6c0,0.9-0.8,1.7-1.7,1.7c-1.2,0-1.9-0.9-1.9-2.1
			c0-1.8,1.4-2.8,3.1-2.8c1.5,0,2.8,0.9,2.8,2.5v5.1c0,0.5,0.1,1,0.7,1c0.6,0,0.7-0.5,0.7-1v-3.9c0-0.6,0-1.3,0-2.8l1.6-0.7H183.1z
			 M175,501.2c0,0.6,0.3,1.1,0.9,1.1c0.5,0,0.8-0.4,0.8-0.9c0-0.6-0.4-0.9-0.9-0.9c-0.2,0-0.5,0.1-0.7,0.2
			C175,500.9,175,501.1,175,501.2z"/>
		<path class="st5" d="M189,507.5v-5.9c0-1.6-0.8-2.2-1.8-2.2c-0.7,0-1.3,0.3-1.9,0.8l-0.6-0.8c0.8-0.7,1.8-1.2,2.8-1.2
			c1.7,0,3.3,1.1,3.3,3.2v6.1H189z"/>
		<path class="st5" d="M201,498.4v6.1c0,2.5-1.6,3.2-3.8,3.2c-2.4,0-3.7-0.9-3.7-2.4v-0.1c0-1.2,0.9-1.8,1.5-1.9v-0.1
			c-1.1-0.4-1.5-1-1.5-2.3v-0.2c0-1.1,0.8-2.5,2.6-2.5c1.1,0,1.9,0.8,1.9,1.8c0,1.2-0.8,1.8-1.7,1.8c-0.4,0-0.7-0.1-1-0.3
			c0,0.7,0.5,1.1,1.4,1.1h0.7v1.1h-0.9c-0.7,0-1.2,0.4-1.2,1.3v0.3c0,1.2,0.9,1.5,2,1.5c1.1,0,1.8-0.4,1.8-1.8v-3.1
			c0-0.6,0-1.3,0-2.8l1.7-0.7H201z M196.1,501.1c0.6,0,1-0.3,1-1c0-0.5-0.3-1-0.9-1c-0.6,0-0.9,0.5-0.9,1.1
			C195.3,500.8,195.7,501.1,196.1,501.1z"/>
		<path class="st5" d="M212,498.4v6.9c0,1.5-1.1,2.4-2.6,2.4c-1.4,0-2.5-0.9-2.5-2.4v-4.5c0-1.1-0.4-1.8-1.3-1.8
			c-0.6,0-1.1,0.3-1.4,0.9c0.2-0.1,0.4-0.1,0.7-0.1c0.8,0,1.5,0.6,1.5,1.6c0,0.9-0.8,1.7-1.7,1.7c-1.2,0-1.9-0.9-1.9-2.1
			c0-1.8,1.4-2.8,3.1-2.8c1.5,0,2.8,0.9,2.8,2.5v5.1c0,0.5,0.1,1,0.7,1c0.6,0,0.7-0.5,0.7-1v-3.9c0-0.6,0-1.3,0-2.8l1.7-0.7H212z
			 M203.9,501.2c0,0.6,0.3,1.1,0.9,1.1c0.5,0,0.8-0.4,0.8-0.9c0-0.6-0.4-0.9-0.9-0.9c-0.2,0-0.5,0.1-0.7,0.2
			C203.9,500.9,203.9,501.1,203.9,501.2z"/>
		<path class="st5" d="M214.6,499.7c1.1-1,2.3-1.5,3.7-1.5c1.9,0,3.8,1,3.8,3.2v3.1c0,2.5-1.6,3.2-3.7,3.2c-2.2,0-3.5-0.9-3.5-2.7
			v-1.7c0-1.4,0.9-2.6,2.4-2.6c1.4,0,1.9,1,1.9,1.8c0,1.3-0.8,1.9-1.7,1.9c-0.3,0-0.6,0-0.8-0.2v0.9c0,1.3,0.6,1.7,1.8,1.7
			c1.2,0,1.8-0.5,1.8-1.7v-3.5c0-1.5-0.7-2.4-2.1-2.4c-1,0-2.1,0.4-2.9,1.2L214.6,499.7z M217.4,503.7c0.6,0,1-0.5,1-1.1
			c0-0.7-0.3-1.2-1-1.2c-0.6,0-0.8,0.5-0.8,1.2c0,0.3,0,0.6,0.2,0.8C216.9,503.6,217.1,503.7,217.4,503.7z"/>
		<path class="st5" d="M228.2,502c-1,0-1.9-0.6-1.9-1.8c0-1.1,0.8-2,2.1-2c0.7,0,2.4,0.3,2.4,2.7v4.3c0,1.7-0.1,2.3-1.6,2.3H228
			c-1.3-1.8-3.4-4.1-4.8-5l0.6-0.9c1.7,1.1,3.7,3.3,4.7,4.8c0.4,0,0.4-0.2,0.4-0.9v-3.6C228.7,502,228.4,502,228.2,502z
			 M229.2,500.2c0-0.6-0.3-1.2-1-1.2c-0.6,0-1,0.5-1,1.1c0,0.7,0.5,1.1,1.1,1.1c0.3,0,0.5-0.1,0.7-0.3
			C229.2,500.7,229.2,500.5,229.2,500.2z"/>
	</g>
</g>
<rect x="33.2" y="381.6" class="st6" width="57.6" height="83"/>
<path class="st6" d="M47.2,437.2L47.2,437.2c-1.4,0-2.6-1.2-2.6-2.6l0,0c0-1.4,1.2-2.6,2.6-2.6l0,0c1.4,0,2.6,1.2,2.6,2.6l0,0
	C49.8,436.1,48.6,437.2,47.2,437.2z"/>
<path class="st6" d="M54.8,437.2L54.8,437.2c-1.4,0-2.6-1.2-2.6-2.6l0,0c0-1.4,1.2-2.6,2.6-2.6l0,0c1.4,0,2.6,1.2,2.6,2.6l0,0
	C57.4,436.1,56.2,437.2,54.8,437.2z"/>
<path class="st6" d="M62.4,437.2L62.4,437.2c-1.4,0-2.6-1.2-2.6-2.6l0,0c0-1.4,1.2-2.6,2.6-2.6l0,0c1.4,0,2.6,1.2,2.6,2.6l0,0
	C65,436.1,63.9,437.2,62.4,437.2z"/>
<path class="st6" d="M70.1,437.2L70.1,437.2c-1.4,0-2.6-1.2-2.6-2.6l0,0c0-1.4,1.2-2.6,2.6-2.6l0,0c1.4,0,2.6,1.2,2.6,2.6l0,0
	C72.7,436.1,71.5,437.2,70.1,437.2z"/>
<path class="st6" d="M77.7,437.2L77.7,437.2c-1.4,0-2.6-1.2-2.6-2.6l0,0c0-1.4,1.2-2.6,2.6-2.6l0,0c1.4,0,2.6,1.2,2.6,2.6l0,0
	C80.3,436.1,79.1,437.2,77.7,437.2z"/>
<path class="st6" d="M85.4,437.2L85.4,437.2c-1.4,0-2.6-1.2-2.6-2.6l0,0c0-1.4,1.2-2.6,2.6-2.6l0,0c1.4,0,2.6,1.2,2.6,2.6l0,0
	C87.9,436.1,86.8,437.2,85.4,437.2z"/>
<g>
	<g>
		<path class="st5" d="M51.9,491.2h-3.1v-8.5l0-1.4l0.1-1.5c-0.5,0.5-0.9,0.9-1.1,1l-1.7,1.4l-1.5-1.9l4.7-3.8h2.6V491.2z"/>
		<path class="st5" d="M61.3,481.8c1.4,0,2.6,0.4,3.4,1.2c0.8,0.8,1.3,1.9,1.3,3.3c0,1.6-0.5,2.9-1.5,3.8c-1,0.9-2.5,1.3-4.4,1.3
			c-1.6,0-3-0.3-4-0.8v-2.7c0.5,0.3,1.1,0.5,1.9,0.7c0.7,0.2,1.4,0.3,2,0.3c1.9,0,2.8-0.8,2.8-2.3c0-1.5-1-2.2-3-2.2
			c-0.4,0-0.7,0-1.2,0.1s-0.8,0.1-1,0.2l-1.2-0.7l0.6-7.5h8v2.6h-5.3l-0.3,2.9l0.4-0.1C60.2,481.9,60.7,481.8,61.3,481.8z"/>
		<path class="st5" d="M74.6,480.9c0,1.5-0.3,2.7-0.9,3.5c-0.6,0.8-1.5,1.2-2.6,1.2c-1.1,0-2-0.4-2.6-1.2c-0.6-0.8-0.9-1.9-0.9-3.4
			c0-3.1,1.2-4.6,3.5-4.6c1.1,0,2,0.4,2.6,1.2C74.3,478.3,74.6,479.4,74.6,480.9z M70.1,480.9c0,0.9,0.1,1.5,0.2,1.9
			c0.2,0.4,0.4,0.6,0.7,0.6c0.6,0,1-0.8,1-2.5c0-1.7-0.3-2.5-1-2.5c-0.3,0-0.6,0.2-0.7,0.6C70.2,479.4,70.1,480,70.1,480.9z
			 M81.5,476.5l-8.2,14.7h-2.4l8.2-14.7H81.5z M84.9,486.8c0,1.5-0.3,2.7-0.9,3.5c-0.6,0.8-1.5,1.2-2.6,1.2c-1.1,0-2-0.4-2.6-1.2
			c-0.6-0.8-0.9-1.9-0.9-3.4c0-3.1,1.2-4.6,3.5-4.6c1.1,0,2,0.4,2.6,1.2C84.6,484.1,84.9,485.3,84.9,486.8z M80.4,486.8
			c0,0.9,0.1,1.5,0.2,1.9s0.4,0.6,0.7,0.6c0.6,0,1-0.8,1-2.5c0-1.7-0.3-2.5-1-2.5c-0.3,0-0.6,0.2-0.7,0.6S80.4,485.9,80.4,486.8z"/>
	</g>
</g>
<g>
	<g>
		<path class="st5" d="M54.7,509.5c-0.1-0.7-0.5-1.6-1-2.5c-0.5-1-1-2-1-3c0-2.4,2-3.6,3.5-3.6c0.2,0,0.2,0,1.3,0.8h0
			c0.9-0.7,1.1-0.8,1.2-0.8c0.7,0,3.4,0.1,3.4,3.4v5.7h-1.9v-5.9c0-2.1-1.1-2.3-1.1-2.3s-0.7,0.5-1.5,1.2h-0.1
			c-0.9-0.7-1.5-1.2-1.5-1.2c-0.2,0-1.3,0.7-1.3,2.4c0,0.8,0.3,1.6,0.6,2.4c0.2,0.6,0.5,1.3,0.7,1.9h0c0.2-0.6,0.7-1.1,1.3-1.8
			c-0.9-0.2-1.5-0.8-1.5-1.7c0-1.1,0.9-1.7,1.9-1.7c1,0,1.9,0.7,1.9,1.9c0,0.9-0.7,1.8-1.3,2.5c-0.5,0.7-1.2,1.4-1.6,2.3H54.7z
			 M58.5,504.4c0-0.5-0.4-0.9-0.9-0.9c-0.7,0-1,0.5-1,0.9c0,0.8,0.7,1.1,1.2,1.1C57.8,505.6,58.5,505,58.5,504.4z"/>
		<path class="st5" d="M64.8,496.2c-0.5,2-2,3.1-3.9,3.1c-1.3,0-2.6-0.5-2.6-1.9c0-0.8,0.6-1.5,1.5-1.5c0.9,0,1.5,0.7,1.5,1.4
			c0,0.4-0.1,0.9-0.6,1.2v0c1.3,0.1,2.1-0.7,2.4-2.4H64.8z M59.7,498.3c0.5-0.2,0.7-0.6,0.7-1c0-0.4-0.3-0.7-0.7-0.7
			c-0.5,0-0.8,0.3-0.8,0.8C59,497.7,59.1,498.1,59.7,498.3z"/>
		<path class="st5" d="M60.9,496.8v-1.5h0.7v1.5h1.5v0.8h-1.5v1.5h-0.7v-1.5h-1.5v-0.8H60.9z"/>
		<path class="st5" d="M63.7,501.6c1.1-1,2.2-1.4,3.5-1.4c1.9,0,3.8,1,3.8,3.2v3.8c0,1.5-1,2.5-2.4,2.5c-1.2,0-2.1-0.8-2.1-1.9
			c0-1.2,0.9-2,1.9-2c0.3,0,0.5,0,0.7,0.2v-2.3c0-1.5-0.8-2.4-2.1-2.4c-1.1,0-1.9,0.4-2.7,1.2L63.7,501.6z M68.5,506.6
			c-0.6,0-1.1,0.5-1.1,1.1c0,0.7,0.5,1.1,1.1,1.1c0.5,0,0.9-0.4,0.9-1.3c0-0.2,0-0.5-0.1-0.7C69.1,506.7,68.7,506.6,68.5,506.6z"/>
	</g>
</g>
<rect x="1" y="116.7" class="st7" width="188.3" height="248.4"/>
<g>
	<path class="st8" d="M303.8,252.5h-71.9c-4.9,0-8.9-4-8.9-8.9v-55.9c0-4.9,4-8.9,8.9-8.9h83.9c4.9,0,8.9,4,8.9,8.9v30.2"/>
	<path class="st8" d="M303.8,263.7h-81.3c-3.5,0-6.4-5-6.4-11.2h87.7"/>
	<path class="st3" d="M303.8,244.1h-67.2c-2.8,0-5-2.3-5-5v-46.7c0-2.8,2.3-5,5-5h74.5c2.8,0,5,2.3,5,5v25.6"/>
	<path class="st8" d="M333.7,277.9h-24.9c-2.8,0-5-2.3-5-5v-49.9c0-2.8,2.3-5,5-5h24.9c2.8,0,5,2.3,5,5v49.9
		C338.7,275.6,336.4,277.9,333.7,277.9z"/>
	<circle class="st8" cx="321.2" cy="269.9" r="3.2"/>
	<rect x="309.3" y="225.1" class="st3" width="23.9" height="34.8"/>
</g>
<path class="st9" d="M138,284.3L115.4,204c0,0,14.3-8.3,8.6-26.5h-6.3l-4.6-25.2h-8.3v13.2c0,5.4-4.4,9.8-9.8,9.8
	c-5.4,0-9.8-4.4-9.8-9.8v-13.2H77l-4.6,25.2H67c0,0-2,21.9,8.6,26.5l-23.2,80.3H138z"/>
<g>
	<g>
		<path class="st10" d="M85.7,316.8h-11v-2.3l3.9-4c1.2-1.2,1.9-2,2.3-2.5s0.6-0.9,0.8-1.3c0.2-0.4,0.2-0.8,0.2-1.2
			c0-0.6-0.2-1.1-0.5-1.4c-0.3-0.3-0.8-0.5-1.4-0.5c-0.6,0-1.2,0.1-1.8,0.4c-0.6,0.3-1.2,0.7-1.8,1.2l-1.8-2.1
			c0.8-0.7,1.4-1.1,1.9-1.4c0.5-0.3,1.1-0.5,1.7-0.6c0.6-0.1,1.3-0.2,2-0.2c1,0,1.8,0.2,2.6,0.5c0.8,0.4,1.3,0.9,1.7,1.5
			c0.4,0.6,0.6,1.4,0.6,2.2c0,0.7-0.1,1.4-0.4,2c-0.3,0.6-0.6,1.3-1.2,1.9c-0.5,0.7-1.5,1.6-2.8,2.8l-2,1.9v0.2h6.8V316.8z"/>
		<path class="st10" d="M88.8,316.8l5.9-12.9H87v-2.8h11.2v2.1l-5.9,13.6H88.8z"/>
		<path class="st10" d="M107.1,305.8c0,1.6-0.3,2.9-1,3.7c-0.6,0.8-1.6,1.2-2.8,1.2c-1.2,0-2.1-0.4-2.7-1.3c-0.6-0.8-1-2.1-1-3.7
			c0-3.3,1.2-4.9,3.7-4.9c1.2,0,2.1,0.4,2.8,1.3S107.1,304.2,107.1,305.8z M102.3,305.8c0,0.9,0.1,1.6,0.2,2s0.4,0.7,0.8,0.7
			c0.7,0,1-0.9,1-2.7c0-1.8-0.3-2.7-1-2.7c-0.4,0-0.6,0.2-0.8,0.7S102.3,304.9,102.3,305.8z M114.5,301.1l-8.7,15.7h-2.6l8.7-15.7
			H114.5z M118.1,312.1c0,1.6-0.3,2.9-1,3.7s-1.6,1.2-2.8,1.2c-1.2,0-2.1-0.4-2.7-1.3s-1-2.1-1-3.7c0-3.3,1.2-4.9,3.7-4.9
			c1.2,0,2.1,0.4,2.8,1.3C117.7,309.3,118.1,310.5,118.1,312.1z M113.3,312.1c0,0.9,0.1,1.6,0.2,2c0.2,0.4,0.4,0.7,0.8,0.7
			c0.7,0,1-0.9,1-2.7c0-1.8-0.3-2.7-1-2.7c-0.4,0-0.6,0.2-0.8,0.7C113.4,310.5,113.3,311.2,113.3,312.1z"/>
		<path class="st10" d="M20.9,339.7c0.3-0.2,0.6-0.2,1-0.2c1.1,0,1.8,0.8,1.8,1.8c0,1.2-0.9,2.1-2.1,2.1c-1.5,0-2.5-1-2.5-2.8v-2.8
			c0-1,0-2,0-3l1.6-0.7h0.4V339.7z M20.7,341.3c0,0.9,0.4,1.2,1,1.2c0.6,0,1-0.6,1-1.2c0-0.8-0.5-1.1-1.1-1.1
			c-0.3,0-0.6,0.1-0.8,0.4C20.7,340.8,20.7,341.1,20.7,341.3z"/>
		<path class="st10" d="M33.5,332.9c-0.1,0.8-0.5,1.5-1.1,2c0.5,0.5,0.8,1.2,0.8,2.2v6.1h-1.9v-4.5c-0.6-0.7-1.5-1-2.2-1
			c-0.7,0-1.5,0.4-1.5,1.6c0,0.2,0,0.3,0,0.5c0.3-0.2,0.6-0.2,0.9-0.2c1,0,1.6,0.8,1.6,1.8c0,1.2-0.8,2-2,2c-1.5,0-2.4-1-2.4-2.9
			v-0.7c0-2.8,2.4-3.1,3.1-3.1c0.7,0,1.6,0.3,2.3,0.7v-0.2c0-0.6-0.1-1-0.3-1.4c-0.4,0.2-0.7,0.4-1.1,0.5l-0.5-0.3v0
			c0.4-0.2,0.7-0.5,1.1-0.8c-0.3-0.3-0.8-0.4-1.3-0.4c-1.1,0-2,0.4-2.8,1.2l-0.6-0.8c1.1-1,2.2-1.4,3.6-1.4c0.7,0,1.3,0.1,1.9,0.4
			c0.2-0.4,0.4-0.9,0.4-1.3H33.5z M27.5,341.4c0,0.7,0.3,1.2,0.9,1.2c0.6,0,0.9-0.5,0.9-1.1c0-0.8-0.5-1.1-1-1.1
			c-0.3,0-0.6,0.1-0.8,0.4C27.6,340.9,27.5,341.2,27.5,341.4z"/>
		<path class="st10" d="M29.9,328.9v-1.5l0.9-0.4h0.2v1.9c0.4,0,0.7,0.2,1,0.3v-1.7L33,327h0.2v3.1c0.4,0.5,0.6,1.1,0.6,1.8
			c0,0.5-0.1,0.9-0.3,1.3c-1.8-1.2-3.5-1.7-6-1.7C27.6,330.1,28.6,329.1,29.9,328.9z M33,332.2c-0.1-1.1-1.4-2-2.6-2
			c-0.8,0-1.4,0.2-1.8,0.8C30.2,331,31.6,331.4,33,332.2z"/>
		<path class="st10" d="M29,332.2c0.4-0.1,0.9-0.2,1.1-0.6c-0.7-0.1-1.3-0.6-1.3-1.3c0-0.8,0.7-1.5,1.5-1.5c0.9,0,1.4,0.7,1.4,1.4
			c0,0.5-0.3,1.1-0.8,1.6l0,0c1.4-0.3,1.9-1.5,2-2.9h1.8c-0.2,1.4-0.9,2.5-2.2,3.1c-0.8,0.5-1.9,0.6-3.6,0.7L29,332.2z M30.2,329.5
			c-0.4,0-0.7,0.3-0.7,0.7c0,0.5,0.4,0.8,0.8,0.8c0.4,0,0.6-0.4,0.6-0.7C30.9,329.8,30.6,329.5,30.2,329.5z"/>
		<path class="st10" d="M35.8,335.4c1.1-1,2.3-1.5,3.7-1.5c1.9,0,3.8,1,3.8,3.2v3.1c0,2.5-1.6,3.2-3.7,3.2c-2.2,0-3.5-0.9-3.5-2.7
			V339c0-1.4,0.9-2.6,2.4-2.6c1.4,0,1.9,1,1.9,1.8c0,1.3-0.8,1.9-1.7,1.9c-0.3,0-0.6,0-0.8-0.2v0.9c0,1.3,0.6,1.7,1.8,1.7
			c1.2,0,1.8-0.5,1.8-1.7v-3.5c0-1.5-0.7-2.4-2.1-2.4c-1,0-2.1,0.4-2.9,1.2L35.8,335.4z M38.5,339.4c0.6,0,1-0.5,1-1.1
			c0-0.7-0.3-1.2-1-1.2c-0.6,0-0.8,0.5-0.8,1.2c0,0.3,0,0.6,0.2,0.8C38.1,339.3,38.3,339.4,38.5,339.4z"/>
		<path class="st10" d="M54.8,334.1v7.6c0,1.1-0.2,1.5-1,1.5h-0.7l-2.4-3.8l-2.4,3.3c-0.2,0.3-0.4,0.5-0.7,0.5h-1.3v-6.7
			c0-1.4,1-2.6,2.5-2.6c1.5,0,2,1,2,1.8c0,1.3-0.9,2-1.8,2c-0.3,0-0.6,0-0.9-0.2v2.4c0,0.6-0.1,1-0.2,1.6l0,0l2.6-3.5h0.2l2.3,3.5
			l0,0c-0.1-0.6-0.2-1.1-0.2-1.6v-2.2c0-0.6,0-1.3,0-2.8l1.7-0.7H54.8z M48.8,337c0.6,0,1.1-0.5,1.1-1.1c0-0.7-0.4-1.2-1-1.2
			c-0.7,0-0.9,0.5-0.9,1.2c0,0.3,0,0.6,0.2,0.8C48.3,336.9,48.6,337,48.8,337z"/>
		<path class="st10" d="M50.6,332.2c0.4-0.1,0.9-0.2,1.1-0.6c-0.7-0.1-1.3-0.6-1.3-1.3c0-0.8,0.7-1.5,1.5-1.5c0.9,0,1.4,0.7,1.4,1.4
			c0,0.5-0.3,1.1-0.8,1.6l0,0c1.4-0.3,1.9-1.5,2-2.9h1.8c-0.2,1.4-0.9,2.5-2.2,3.1c-0.8,0.5-1.9,0.6-3.6,0.7L50.6,332.2z
			 M51.9,329.5c-0.4,0-0.7,0.3-0.7,0.7c0,0.5,0.4,0.8,0.8,0.8c0.4,0,0.6-0.4,0.6-0.7C52.6,329.8,52.3,329.5,51.9,329.5z"/>
		<path class="st10" d="M60.7,343.2v-5.9c0-1.6-0.8-2.2-1.8-2.2c-0.7,0-1.3,0.3-1.9,0.8l-0.6-0.8c0.8-0.7,1.8-1.2,2.8-1.2
			c1.7,0,3.3,1.1,3.3,3.2v6.1H60.7z"/>
		<path class="st10" d="M71.7,339.7c0.3-0.2,0.6-0.2,1-0.2c1.1,0,1.8,0.8,1.8,1.8c0,1.2-0.9,2.1-2.1,2.1c-1.5,0-2.5-1-2.5-2.8v-2.8
			c0-1,0-2,0-3l1.6-0.7h0.4V339.7z M71.5,341.3c0,0.9,0.4,1.2,1,1.2c0.6,0,1-0.6,1-1.2c0-0.8-0.5-1.1-1.1-1.1
			c-0.3,0-0.6,0.1-0.8,0.4C71.5,340.8,71.5,341.1,71.5,341.3z"/>
		<path class="st10" d="M83.7,337.7c0-1.8-1.2-2.9-2.8-2.9c-1.8,0-2.8,1.1-2.8,3.1c0,0.7,0.3,1.5,0.5,2.2h0.1
			c0.2-1.3,0.4-2.2,0.8-2.8c0.4-0.6,1.1-0.9,1.7-0.9c1,0,1.8,0.7,1.8,1.8c0,1.1-0.8,1.9-1.8,1.9c-0.3,0-0.5,0-0.8-0.2
			c-0.4,1.1-0.6,2.4-0.6,3.3h-1.9c0-0.8-0.4-1.7-0.7-2.6c-0.4-0.9-0.8-1.9-0.8-2.9c0-2.4,2-3.8,4.7-3.8c3.3,0,4.6,1.6,4.6,3.7v5.6
			h-1.9V337.7z M80.2,338.4c0,0.5,0.5,0.8,0.9,0.8c0.5,0,1.1-0.3,1.1-1.1c0-0.5-0.4-1-0.9-1C80.6,337.2,80.2,337.7,80.2,338.4z"/>
		<path class="st10" d="M87.4,336.5c0-2,1.4-3,2.7-3c0.8,0,1.4,0.3,1.9,0.5c0.4,0.2,0.7,0.4,1.1,0.4c0.4,0,0.7-0.3,0.9-0.5l0.5,0.7
			c-0.6,0.8-1.2,1.1-1.9,1.1c-0.7,0-1.3-0.2-1.8-0.4c-0.5-0.2-1-0.3-1.4-0.3c-0.4,0-0.8,0.2-0.8,0.6c0,0.1,0,0.2,0.1,0.4
			c2.3,0.2,3.8,0.4,4.5,1c0.7,0.5,0.7,1,0.7,2.2v1.9c0,1.5-1,2.5-2.4,2.5c-1.2,0-2.1-0.8-2.1-1.9c0-1.2,0.9-2,1.9-2
			c0.3,0,0.5,0,0.7,0.2v-1c0-1.3-0.7-1.7-4.6-1.9C87.4,336.6,87.4,336.6,87.4,336.5z M91.5,340.3c-0.6,0-1.1,0.5-1.1,1.1
			c0,0.7,0.5,1.1,1.1,1.1c0.5,0,0.9-0.4,0.9-1.3c0-0.2,0-0.5-0.1-0.7C92.1,340.4,91.7,340.3,91.5,340.3z"/>
		<path class="st10" d="M90.4,328.9v-1.5l0.9-0.4h0.2v1.9c0.4,0,0.7,0.2,1,0.3v-1.7l0.9-0.4h0.2v3.1c0.4,0.5,0.6,1.1,0.6,1.8
			c0,0.5-0.1,0.9-0.3,1.3c-1.8-1.2-3.5-1.7-6-1.7C88.1,330.1,89,329.1,90.4,328.9z M93.5,332.2c-0.1-1.1-1.4-2-2.6-2
			c-0.8,0-1.4,0.2-1.8,0.8C90.6,331,92,331.4,93.5,332.2z"/>
		<path class="st10" d="M92.4,332.9l-0.6-3.9h1.9l-0.5,3.6L92.4,332.9L92.4,332.9z"/>
		<path class="st10" d="M96.2,335.4c1.1-1,2.3-1.5,3.7-1.5c1.9,0,3.8,1,3.8,3.2v3.1c0,2.5-1.6,3.2-3.7,3.2c-2.2,0-3.5-0.9-3.5-2.7
			V339c0-1.4,0.9-2.6,2.4-2.6c1.4,0,1.9,1,1.9,1.8c0,1.3-0.8,1.9-1.7,1.9c-0.3,0-0.6,0-0.8-0.2v0.9c0,1.3,0.6,1.7,1.8,1.7
			c1.2,0,1.8-0.5,1.8-1.7v-3.5c0-1.5-0.7-2.4-2.1-2.4c-1,0-2.1,0.4-2.9,1.2L96.2,335.4z M99,339.4c0.6,0,1-0.5,1-1.1
			c0-0.7-0.3-1.2-1-1.2c-0.6,0-0.8,0.5-0.8,1.2c0,0.3,0,0.6,0.2,0.8C98.5,339.3,98.8,339.4,99,339.4z"/>
		<path class="st10" d="M109.8,337.7c-1,0-1.9-0.6-1.9-1.8c0-1.1,0.8-2,2.1-2c0.7,0,2.4,0.3,2.4,2.7v4.3c0,1.7-0.1,2.3-1.6,2.3h-1.3
			c-1.3-1.8-3.4-4.1-4.8-5l0.6-0.9c1.7,1.1,3.7,3.3,4.7,4.8c0.4,0,0.4-0.2,0.4-0.9v-3.6C110.3,337.7,110.1,337.7,109.8,337.7z
			 M110.9,336c0-0.6-0.3-1.2-1-1.2c-0.6,0-1,0.5-1,1.1c0,0.7,0.5,1.1,1.1,1.1c0.3,0,0.5-0.1,0.7-0.3
			C110.8,336.4,110.9,336.2,110.9,336z"/>
		<path class="st10" d="M117.4,339.8c0.3-0.2,0.6-0.2,0.9-0.2c1,0,1.7,0.8,1.7,1.8c0,1.2-0.9,2-2,2c-1.4,0-2.5-1-2.5-2.8v-2.8
			c0-1,0-2,0-3l1.6-0.7h0.4V339.8z M117.2,341.3c0,0.8,0.4,1.2,0.9,1.2c0.5,0,0.9-0.6,0.9-1.1c0-0.8-0.5-1.1-1-1.1
			c-0.3,0-0.6,0.1-0.8,0.4C117.2,340.9,117.2,341.1,117.2,341.3z M122.9,339.8c0.3-0.2,0.6-0.2,0.9-0.2c1,0,1.7,0.8,1.7,1.8
			c0,1.2-0.9,2-2,2c-1.4,0-2.5-1-2.5-2.8v-2.8c0-1,0-2,0-3l1.6-0.7h0.4V339.8z M122.7,341.3c0,0.8,0.4,1.2,0.9,1.2
			c0.5,0,0.9-0.6,0.9-1.1c0-0.8-0.5-1.1-1-1.1c-0.3,0-0.6,0.1-0.8,0.4C122.8,340.9,122.7,341.1,122.7,341.3z"/>
		<path class="st10" d="M129.3,343.2c-0.1-0.7-0.5-1.6-1-2.5c-0.5-1-1-2-1-3c0-2.4,2-3.6,3.5-3.6c0.2,0,0.2,0,1.3,0.8h0
			c0.9-0.7,1.1-0.8,1.2-0.8c0.7,0,3.4,0.1,3.4,3.4v5.7h-1.9v-5.9c0-2.1-1.1-2.3-1.1-2.3c-0.1,0-0.7,0.5-1.5,1.2h-0.1
			c-0.9-0.7-1.5-1.2-1.5-1.2c-0.2,0-1.3,0.7-1.3,2.4c0,0.8,0.3,1.6,0.6,2.4c0.2,0.6,0.5,1.3,0.7,1.9h0c0.2-0.6,0.7-1.1,1.3-1.8
			c-0.9-0.2-1.5-0.8-1.5-1.7c0-1.1,0.9-1.7,1.9-1.7c1,0,1.9,0.7,1.9,1.9c0,0.9-0.7,1.8-1.3,2.5c-0.5,0.7-1.2,1.4-1.6,2.3H129.3z
			 M133.1,338.2c0-0.5-0.4-0.9-0.9-0.9c-0.7,0-1,0.5-1,0.9c0,0.8,0.7,1.1,1.2,1.1C132.4,339.3,133.1,338.7,133.1,338.2z"/>
		<path class="st10" d="M135.5,332.9l-0.6-3.9h1.9l-0.5,3.6L135.5,332.9L135.5,332.9z"/>
		<path class="st10" d="M142.8,337.7c-1,0-1.9-0.6-1.9-1.8c0-1.1,0.8-2,2.1-2c0.7,0,2.4,0.3,2.4,2.7v4.3c0,1.7-0.1,2.3-1.6,2.3h-1.3
			c-1.3-1.8-3.4-4.1-4.8-5l0.6-0.9c1.7,1.1,3.7,3.3,4.7,4.8c0.4,0,0.4-0.2,0.4-0.9v-3.6C143.3,337.7,143.1,337.7,142.8,337.7z
			 M143.9,336c0-0.6-0.3-1.2-1-1.2c-0.6,0-1,0.5-1,1.1c0,0.7,0.5,1.1,1.1,1.1c0.3,0,0.5-0.1,0.7-0.3
			C143.8,336.4,143.9,336.2,143.9,336z"/>
		<path class="st10" d="M153.9,343.4c0-1.5,0-2.5,0-3.1v-2.8c0-2.2-1.2-2.7-2.1-2.7c-0.9,0-1.6,0.5-1.9,1.4l2,0.4l-0.3,0.9
			c-0.9,0.2-1.1,0.6-1.1,1.7v4h-1.9v-3.8c0-1,0.2-1.6,1.3-2.1l0-0.1l-2-0.3c0.2-1.3,1.1-3,3.9-3c1.4,0,3.8,0.5,3.8,3.4v5.4l-1.5,0.7
			H153.9z"/>
		<path class="st10" d="M161.6,343.2v-5.9c0-1.6-0.8-2.2-1.8-2.2c-0.7,0-1.3,0.3-1.9,0.8l-0.6-0.8c0.8-0.7,1.8-1.2,2.8-1.2
			c1.7,0,3.3,1.1,3.3,3.2v6.1H161.6z"/>
		<path class="st10" d="M173.6,334.1v6.1c0,2.5-1.6,3.2-3.8,3.2c-2.4,0-3.7-0.9-3.7-2.4v-0.1c0-1.2,0.9-1.8,1.5-1.9v-0.1
			c-1.1-0.4-1.5-1-1.5-2.3v-0.2c0-1.1,0.8-2.5,2.6-2.5c1.1,0,1.9,0.8,1.9,1.8c0,1.2-0.8,1.8-1.7,1.8c-0.4,0-0.7-0.1-1-0.3
			c0,0.7,0.5,1.1,1.4,1.1h0.7v1.1h-0.9c-0.7,0-1.2,0.4-1.2,1.3v0.3c0,1.2,0.9,1.5,2,1.5c1.1,0,1.8-0.4,1.8-1.8v-3.1
			c0-0.6,0-1.3,0-2.8l1.7-0.7H173.6z M168.7,336.8c0.6,0,1-0.3,1-1c0-0.5-0.3-1-0.9-1c-0.6,0-0.9,0.5-0.9,1.1
			C167.9,336.5,168.3,336.8,168.7,336.8z"/>
	</g>
</g>
<g>
	<g>
		<path class="st10" d="M267.9,316.7H257v-2.3l3.9-4c1.2-1.2,1.9-2,2.3-2.5c0.4-0.5,0.6-0.9,0.8-1.3c0.2-0.4,0.2-0.8,0.2-1.2
			c0-0.6-0.2-1.1-0.5-1.4s-0.8-0.5-1.4-0.5c-0.6,0-1.2,0.1-1.8,0.4c-0.6,0.3-1.2,0.7-1.8,1.2l-1.8-2.1c0.8-0.7,1.4-1.1,1.9-1.4
			s1.1-0.5,1.7-0.6c0.6-0.1,1.3-0.2,2-0.2c1,0,1.8,0.2,2.6,0.5c0.7,0.4,1.3,0.9,1.7,1.5c0.4,0.6,0.6,1.4,0.6,2.2
			c0,0.7-0.1,1.4-0.4,2c-0.3,0.6-0.6,1.3-1.2,1.9c-0.5,0.7-1.5,1.6-2.8,2.8l-2,1.9v0.1h6.8V316.7z"/>
		<path class="st10" d="M271.1,316.7l5.9-12.8h-7.7v-2.8h11.2v2.1l-5.9,13.5H271.1z"/>
		<path class="st10" d="M289.2,305.8c0,1.6-0.3,2.9-0.9,3.7s-1.6,1.2-2.8,1.2c-1.2,0-2.1-0.4-2.7-1.3c-0.6-0.8-1-2.1-1-3.7
			c0-3.3,1.2-4.9,3.7-4.9c1.2,0,2.1,0.4,2.8,1.3S289.2,304.2,289.2,305.8z M284.5,305.8c0,0.9,0.1,1.6,0.2,2s0.4,0.7,0.8,0.7
			c0.7,0,1-0.9,1-2.7c0-1.8-0.3-2.7-1-2.7c-0.4,0-0.6,0.2-0.8,0.7S284.5,304.9,284.5,305.8z M296.5,301.1l-8.7,15.6h-2.6l8.7-15.6
			H296.5z M300.1,312c0,1.6-0.3,2.9-0.9,3.7s-1.6,1.2-2.8,1.2c-1.2,0-2.1-0.4-2.7-1.3c-0.6-0.8-1-2.1-1-3.6c0-3.3,1.2-4.9,3.7-4.9
			c1.2,0,2.1,0.4,2.8,1.3C299.8,309.2,300.1,310.4,300.1,312z M295.4,312c0,0.9,0.1,1.6,0.2,2s0.4,0.7,0.8,0.7c0.7,0,1-0.9,1-2.7
			c0-1.8-0.3-2.7-1-2.7c-0.4,0-0.6,0.2-0.8,0.7S295.4,311.1,295.4,312z"/>
		<path class="st10" d="M236.9,335.3c1.1-1,2.3-1.5,3.7-1.5c1.9,0,3.8,1,3.8,3.2v3.1c0,2.5-1.6,3.2-3.7,3.2c-2.2,0-3.5-0.9-3.5-2.7
			v-1.7c0-1.4,0.9-2.6,2.4-2.6c1.4,0,1.9,1,1.9,1.8c0,1.3-0.8,1.9-1.7,1.9c-0.3,0-0.6,0-0.8-0.2v0.9c0,1.3,0.6,1.7,1.8,1.7
			c1.2,0,1.8-0.5,1.8-1.7v-3.5c0-1.5-0.7-2.4-2.1-2.4c-1,0-2.1,0.4-2.9,1.2L236.9,335.3z M239.7,339.3c0.6,0,1-0.5,1-1.1
			c0-0.7-0.3-1.2-1-1.2c-0.6,0-0.8,0.5-0.8,1.2c0,0.3,0,0.6,0.2,0.8C239.2,339.2,239.4,339.3,239.7,339.3z"/>
		<path class="st10" d="M243.1,348.3v-1.6c-0.2,0.1-0.3,0.1-0.5,0.1c-0.7,0-1.3-0.5-1.3-1.4c0-0.8,0.6-1.5,1.5-1.5
			c0.5,0,1.5,0.3,1.5,1.6v2.8H243.1z M243.4,345.5c0-0.4-0.2-0.7-0.6-0.7c-0.4,0-0.7,0.3-0.7,0.7c0,0.4,0.3,0.7,0.7,0.7
			c0.2,0,0.5-0.1,0.6-0.3C243.3,345.7,243.4,345.6,243.4,345.5z"/>
		<path class="st10" d="M255.4,327.6h0.2v12.9c0,2.3-1.1,2.6-3.4,2.6h-4.4l0.2-1h1.2v-4.5c-0.3,0.1-0.5,0.2-0.8,0.2
			c-0.9,0-1.9-0.7-1.9-1.8c0-1.3,1-2.1,2.1-2.1c0.7,0,2.4,0.3,2.4,2.8v5.5h0.4c1.6,0,2.2-0.1,2.2-1.8v-9.2c0-0.6,0-1.3,0-2.8
			L255.4,327.6z M249.6,335.7c0-0.7-0.4-1.1-0.9-1.1c-0.6,0-1.1,0.5-1.1,1.1c0,0.8,0.5,1.1,1,1.1c0.3,0,0.6-0.1,0.8-0.4
			C249.5,336.3,249.6,336,249.6,335.7z"/>
		<path class="st10" d="M264.1,343.3c0-1.5,0-2.5,0-3.1v-2.8c0-2.2-1.2-2.7-2.1-2.7c-0.9,0-1.6,0.5-1.9,1.4l2,0.4l-0.3,0.9
			c-0.9,0.2-1.1,0.6-1.1,1.7v4h-1.9v-3.8c0-1,0.2-1.6,1.3-2.1l0-0.1l-2-0.3c0.2-1.3,1.1-3,3.9-3c1.4,0,3.8,0.5,3.8,3.4v5.4l-1.5,0.7
			H264.1z"/>
		<path class="st10" d="M267.8,336.4c0-2,1.4-3,2.7-3c0.8,0,1.4,0.3,1.9,0.5c0.4,0.2,0.7,0.4,1.1,0.4c0.4,0,0.7-0.3,0.9-0.5l0.5,0.7
			c-0.6,0.8-1.2,1.1-1.9,1.1c-0.7,0-1.3-0.2-1.8-0.4c-0.5-0.2-1-0.3-1.4-0.3c-0.4,0-0.8,0.2-0.8,0.6c0,0.1,0,0.2,0.1,0.4
			c2.3,0.2,3.8,0.4,4.5,1c0.7,0.5,0.7,1,0.7,2.2v1.9c0,1.5-1,2.5-2.4,2.5c-1.2,0-2.1-0.8-2.1-1.9c0-1.2,0.9-2,1.9-2
			c0.3,0,0.5,0,0.7,0.2v-1c0-1.3-0.7-1.7-4.6-1.9C267.8,336.5,267.8,336.5,267.8,336.4z M271.9,340.2c-0.6,0-1.1,0.5-1.1,1.1
			c0,0.7,0.5,1.1,1.1,1.1c0.5,0,0.9-0.4,0.9-1.3c0-0.2,0-0.5-0.1-0.7C272.5,340.3,272.1,340.2,271.9,340.2z"/>
		<path class="st10" d="M282.4,343.1v-5.7c0-2.2-1.2-2.7-2.1-2.7c-0.9,0-1.6,0.5-1.8,1.4l2.1,0.3l-0.3,0.8c-1.1,0.2-1.4,0.7-1.4,1.8
			v0.7c0.3-0.2,0.6-0.3,0.9-0.3c1,0,1.6,0.8,1.6,1.8c0,1.2-0.8,2-2,2c-1.4,0-2.3-1-2.3-2.9v-1.2c0-1.1,0.3-1.7,1.5-2.2v0l-1.9-0.3
			c0.2-1.3,1.1-3,3.9-3c1.4,0,3.8,0.5,3.8,3.4v4.3c0.6-0.7,1.6-1.5,2.4-2v-1.9c0-0.6,0-1.3,0-2.8l1.7-0.7h0.2v4.8c0.1,0,0.3,0,0.4,0
			c1.3,0,2.2,0.9,2.2,2.1c0,1.3-0.9,2.4-2.3,2.4c-1.3,0-2.2-0.9-2.2-2.5v-0.2c-1,0.7-2,1.8-2.4,2.4H282.4z M278.7,341.3
			c0,0.7,0.3,1.2,0.9,1.2c0.5,0,0.9-0.5,0.9-1.1c0-0.8-0.5-1.1-0.9-1.1c-0.3,0-0.6,0.1-0.8,0.4C278.7,340.9,278.7,341.1,278.7,341.3
			z M288.5,339.8c0,0.2-0.1,0.6-0.1,1c0,0.7,0.2,1.5,0.8,1.5c0.7,0,0.8-0.7,0.8-1.3c0-0.7-0.4-1.3-1.1-1.3
			C288.9,339.8,288.7,339.8,288.5,339.8z"/>
		<path class="st10" d="M290.7,330c-0.5-0.3-0.8-0.4-1.2-0.4c-0.9,0-1.5,0.7-1.5,1.4c0,0.5,0.2,1,0.9,1.2c-0.2-0.2-0.2-0.5-0.2-0.7
			c0-0.5,0.4-1,1.1-1c0.6,0,1.1,0.4,1.1,1c0,0.9-0.9,1.3-1.7,1.3c-1.3,0-2.4-0.8-2.4-2c0-1.2,1.1-1.9,2.3-1.9c0.4,0,0.8,0.1,1.1,0.3
			l0.4-2.4h1.8L290.7,330z M290.2,331.5c0-0.2-0.2-0.5-0.4-0.5c-0.3,0-0.5,0.2-0.5,0.5c0,0.2,0.1,0.4,0.3,0.6
			C290,332.1,290.2,331.8,290.2,331.5z"/>
		<path class="st10" d="M296.2,339.4c1.1,0,1.8,0.8,1.8,1.8c0,1.2-0.9,2.1-2.1,2.1c-1.5,0-2.5-1-2.5-2.8v-10.6
			c0-0.8-0.2-0.9-0.4-0.9c-0.2,0.6-0.6,1.6-1.3,3.5h-0.5c-0.7-2.1-1-3-1.3-3.3c-0.2-0.3-0.3-0.3-0.6-0.3v-1.3h0.4c1,0,1,0,1.9,2.5h0
			c0.5-1.5,0.7-2,0.9-2.5h0c1.1,0,2.4,0.4,2.4,2.4v9.6C295.5,339.5,295.9,339.4,296.2,339.4z M295.1,341.2c0,0.9,0.4,1.2,1,1.2
			c0.6,0,1-0.6,1-1.2c0-0.8-0.5-1.1-1.1-1.1c-0.3,0-0.6,0.1-0.8,0.4C295.1,340.7,295.1,341,295.1,341.2z"/>
		<path class="st10" d="M299.9,335.3c1.1-1,2.3-1.5,3.7-1.5c1.9,0,3.8,1,3.8,3.2v3.1c0,2.5-1.6,3.2-3.7,3.2c-2.2,0-3.5-0.9-3.5-2.7
			v-1.7c0-1.4,0.9-2.6,2.4-2.6c1.4,0,1.9,1,1.9,1.8c0,1.3-0.8,1.9-1.7,1.9c-0.3,0-0.6,0-0.8-0.2v0.9c0,1.3,0.6,1.7,1.8,1.7
			c1.2,0,1.8-0.5,1.8-1.7v-3.5c0-1.5-0.7-2.4-2.1-2.4c-1,0-2.1,0.4-2.9,1.2L299.9,335.3z M302.6,339.3c0.6,0,1-0.5,1-1.1
			c0-0.7-0.3-1.2-1-1.2c-0.6,0-0.8,0.5-0.8,1.2c0,0.3,0,0.6,0.2,0.8C302.1,339.2,302.4,339.3,302.6,339.3z"/>
		<path class="st10" d="M312.2,337.5c-0.3,0.1-0.5,0.2-0.8,0.2c-1.1,0-1.8-0.7-1.8-1.9c0-1.2,0.9-2,2.2-2c0.6,0,2.4,0.3,2.4,2.7v1.5
			c0,0.4,0,1.2-0.1,1.6l0.1,0c0.9-2.2,1.4-3.5,1.6-4c0.5-1.1,1-1.8,2-1.8c1.1,0,1.9,0.9,1.9,2.3v7h-1.9v-6.8c0-0.8-0.2-1.1-0.5-1.1
			c-0.3,0-0.5,0.3-0.9,1.1c-0.5,1.1-1.2,3.1-2.5,6.8h-1.7V337.5z M312.5,335.7c0-0.7-0.4-1.1-1-1.1c-0.6,0-1.1,0.5-1.1,1.1
			c0,0.7,0.5,1.1,1,1.1c0.3,0,0.6-0.1,0.9-0.4C312.4,336.3,312.5,336,312.5,335.7z"/>
		<path class="st10" d="M316.9,328.7c0.5,0,0.9,0.1,1.3,0.3v-1.6l1.1-0.5h0.2v3.1c0.4,0.5,0.5,1.1,0.5,1.8c0,0.5-0.1,0.9-0.3,1.3
			c-1.8-1.2-3.5-1.7-6-1.7C314,329.8,315.2,328.7,316.9,328.7z M319.4,332.1c-0.1-1.1-1.4-2-2.6-2c-0.8,0-1.4,0.2-1.8,0.8
			C316.6,331,318,331.3,319.4,332.1z"/>
	</g>
</g>
</svg>