<!-- Generator: Adobe Illustrator 19.0.0, SVG Export Plug-In  -->
<svg version="1.1"
	 xmlns="http://www.w3.org/2000/svg" xmlns:xlink="http://www.w3.org/1999/xlink" xmlns:a="http://ns.adobe.com/AdobeSVGViewerExtensions/3.0/"
	 x="0px" y="0px" width="780.1px" height="540.4px" viewBox="0 0 780.1 540.4" style="enable-background:new 0 0 780.1 540.4;"
	 xml:space="preserve">
<style type="text/css">
	.st0{fill:#E3E3E3;stroke:#E3E3E3;stroke-width:2.0919;stroke-miterlimit:10;}
	.st1{fill:#9D9FA0;}
	.st2{fill:#ED6A4A;}
	.st3{fill:#086A87;stroke:#086A87;stroke-width:1.81;stroke-linecap:round;stroke-linejoin:round;stroke-miterlimit:10;}
	.st4{fill:#33CCCC;}
	.st5{fill:none;stroke:#ED6A4A;stroke-width:7.4568;stroke-miterlimit:10;}
	.st6{fill:#FF6633;}
	.st7{fill:none;stroke:#ED6A4A;stroke-width:7.3184;stroke-miterlimit:10;}
	.st8{fill:#086A87;stroke:#086A87;stroke-width:2.2793;stroke-linecap:round;stroke-linejoin:round;stroke-miterlimit:10;}
	.st9{fill:#E3E3E3;stroke:#FFFFFF;stroke-width:4;stroke-miterlimit:10;}
	.st10{fill:#086A87;stroke:#086A87;stroke-width:2.3031;stroke-linecap:round;stroke-linejoin:round;stroke-miterlimit:10;}
	.st11{fill:#FFFFFF;stroke:#ED6A4A;stroke-width:2.3031;stroke-miterlimit:10;}
	.st12{fill:#FFFFFF;}
</style>
<defs>
</defs>
<rect x="3.7" y="143.9" class="st0" width="277.6" height="392.7"/>
<rect x="281.3" y="444.1" class="st1" width="400.3" height="66.3"/>
<rect x="281.3" y="355.5" class="st2" width="379.6" height="66.3"/>
<rect x="281.3" y="268.7" class="st3" width="444.1" height="66.3"/>
<rect x="281.3" y="177.9" class="st4" width="416.4" height="66.3"/>
<rect x="3.7" y="153.1" class="st5" width="771.4" height="383.6"/>
<g>
	<line class="st4" x1="47.3" y1="216.4" x2="56.3" y2="225.3"/>
	<line class="st4" x1="56.3" y1="216.4" x2="47.3" y2="225.3"/>
</g>
<polygon class="st6" points="694.6,528.8 694.6,463 763.1,463 "/>
<line class="st7" x1="281.3" y1="153.1" x2="281.3" y2="536.7"/>
<rect x="1.3" y="29.1" class="st8" width="777.6" height="130"/>
<path class="st9" d="M144.5,52.9h-3.1c-5.7,0-10.3-4.6-10.3-10.3V12.3c0-5.7,4.6-10.3,10.3-10.3h3.1c5.7,0,10.3,4.6,10.3,10.3v30.4
	C154.8,48.3,150.1,52.9,144.5,52.9z"/>
<path class="st9" d="M659.1,52.9H656c-5.7,0-10.3-4.6-10.3-10.3V12.3C645.7,6.6,650.3,2,656,2h3.1c5.7,0,10.3,4.6,10.3,10.3v30.4
	C669.4,48.3,664.8,52.9,659.1,52.9z"/>
<g>
	<circle class="st10" cx="141.7" cy="350.5" r="112.5"/>
	<circle class="st11" cx="141.7" cy="350.5" r="91.8"/>
	<polyline class="st11" points="141.7,290.7 141.7,350.5 185.1,350.5 	"/>
	<rect x="121.3" y="222.2" class="st10" width="42.2" height="21.7"/>
	<rect x="110.7" y="198" class="st10" width="62" height="24.2"/>
	<rect x="141.7" y="198" class="st4" width="13.1" height="24.2"/>
	<rect x="153" y="198" class="st12" width="6.5" height="24.2"/>
</g>
<g>
	<path class="st12" d="M47.8,109.6c0-3.2-2.1-5.1-5-5.1c-3.1,0-4.9,1.9-4.9,5.4c0,1.2,0.5,2.7,0.8,3.9h0.2c0.3-2.3,0.7-3.9,1.4-5
		c0.7-1.1,1.9-1.5,2.9-1.5c1.8,0,3.2,1.3,3.2,3.1c0,2-1.4,3.4-3.3,3.4c-0.5,0-0.9-0.1-1.4-0.3c-0.7,1.9-1.1,4.3-1.1,5.9h-3.3
		c0-1.5-0.7-3-1.3-4.6c-0.7-1.7-1.4-3.4-1.4-5.2c0-4.3,3.6-6.7,8.4-6.7c5.9,0,8.2,2.8,8.2,6.6v9.9h-3.3V109.6z M41.5,110.9
		c0,0.9,0.9,1.4,1.6,1.4c0.9,0,1.9-0.5,1.9-1.9c0-0.9-0.7-1.8-1.6-1.8C42.3,108.7,41.5,109.7,41.5,110.9z"/>
	<path class="st12" d="M53.8,105.4c2-1.7,3.8-2.5,6.2-2.5c3.4,0,6.7,1.8,6.7,5.7v6.7c0,2.7-1.7,4.4-4.3,4.4c-2.1,0-3.7-1.4-3.7-3.4
		c0-2.1,1.5-3.5,3.4-3.5c0.5,0,0.9,0.1,1.3,0.3V109c0-2.6-1.4-4.3-3.8-4.3c-1.9,0-3.4,0.8-4.8,2.1L53.8,105.4z M62.3,114.2
		c-1.1,0-1.9,0.9-1.9,2c0,1.3,0.9,2,1.9,2c0.9,0,1.7-0.7,1.7-2.3c0-0.4-0.1-0.8-0.2-1.2C63.4,114.4,62.8,114.2,62.3,114.2z"/>
	<path class="st12" d="M76.8,119.4v-10.5c0-2.8-1.5-3.9-3.2-3.9c-1.2,0-2.3,0.5-3.4,1.4l-1.1-1.5c1.5-1.3,3.2-2.1,5-2.1
		c3.1,0,5.9,2,5.9,5.7v10.8H76.8z"/>
	<path class="st12" d="M89.1,112.3v-3c-0.5,0.2-0.9,0.3-1.4,0.3c-1.7,0-3.4-1.1-3.4-3.2c0-2.3,1.8-3.6,3.8-3.6c1.2,0,4.3,0.5,4.3,5
		v5.3c1.8,0.8,3.5,2,5.1,3.4v-7.1c0-1.1,0-2.3-0.1-5l3-1.2h0.4v16.1h-3.4c-1.2-1.7-3.2-3.4-5-4.2c0,0.2,0,0.4,0,0.6
		c0,1.5-1.1,4-4.1,4c-2.3,0-3.9-1.6-3.9-3.8c0-2,1.6-3.6,3.7-3.6C88.6,112.3,88.8,112.3,89.1,112.3z M89.6,106.2
		c0-1.1-0.7-1.8-1.7-1.8c-1.1,0-1.9,0.9-1.9,1.9c0,1.3,0.9,1.9,1.9,1.9c0.5,0,1.1-0.2,1.5-0.6C89.6,107.1,89.6,106.7,89.6,106.2z
		 M88.6,114c-1.1,0-2.1,0.9-2.1,2.3c0,1.1,0.6,1.7,1.4,1.7c1.1,0,1.6-1.2,1.6-2.3c0-0.6,0-1.1-0.3-1.6C88.9,114,88.7,114,88.6,114z"
		/>
	<path class="st12" d="M115.9,114.2v-4.9c0-3.9-2.2-4.7-3.8-4.7c-1.6,0-2.9,0.8-3.4,2.5l3.7,0.6l-0.6,1.5c-1.9,0.3-2.5,1.2-2.5,3.1
		v1.2c0.5-0.3,1.1-0.5,1.7-0.5c1.8,0,2.9,1.4,2.9,3.3c0,2.1-1.4,3.5-3.6,3.5c-2.6,0-4.1-1.7-4.1-5.1v-2.1c0-1.9,0.6-3,2.6-3.9v-0.1
		l-3.4-0.5c0.3-2.3,2-5.3,6.9-5.3c2.5,0,6.8,0.9,6.8,6v9.6l-2.7,1.2h-0.7C115.9,117,115.9,115.2,115.9,114.2z M109.1,116.1
		c0,1.2,0.5,2.1,1.6,2.1c1,0,1.7-0.9,1.7-2c0-1.4-0.9-1.9-1.7-1.9c-0.6,0-1.1,0.2-1.5,0.7C109.1,115.4,109.1,115.8,109.1,116.1z"/>
	<path class="st12" d="M114.6,93.9c0.9,0,1.7,0.2,2.4,0.5v-2.9l1.9-0.9h0.3v5.5c0.7,0.9,1,2,1,3.2c0,0.8-0.2,1.6-0.5,2.4
		c-3.2-2.1-6.3-3.1-10.7-2.9C109.4,95.7,111.6,93.9,114.6,93.9z M118.9,99.8c-0.2-2-2.5-3.6-4.6-3.6c-1.4,0-2.5,0.4-3.2,1.4
		C113.9,97.8,116.4,98.4,118.9,99.8z"/>
	<path class="st12" d="M117.1,101.1l-1-7h3.4l-0.9,6.4L117.1,101.1L117.1,101.1z"/>
	<path class="st12" d="M122.4,93.3c-1.1,0-2,0.5-2.5,1.7c0.4-0.2,0.8-0.2,1.2-0.2c1.5,0,2.7,1,2.7,2.7c0,1.7-1.3,2.8-2.9,2.8
		c-2,0-3.2-1.5-3.2-3.5c0-3.1,2.5-4.9,5.3-4.9c2.7,0,5.1,1.6,5.1,4.5v16.9c0.5-0.3,1.1-0.4,1.7-0.4c1.9,0,3.2,1.4,3.2,3.3
		c0,2.1-1.5,3.7-3.7,3.7c-2.6,0-4.4-1.7-4.4-5V96.4C124.9,94.5,124.2,93.3,122.4,93.3z M119.5,97.3c0,1,0.5,1.8,1.5,1.8
		c0.9,0,1.4-0.7,1.4-1.5c0-1-0.7-1.6-1.6-1.6c-0.4,0-0.8,0.2-1.2,0.4C119.5,96.7,119.5,97,119.5,97.3z M127.8,116
		c0,1.5,0.6,2.2,1.8,2.2c1.1,0,1.8-1,1.8-2.1c0-1.4-0.9-2-1.9-2c-0.6,0-1.1,0.2-1.5,0.7C127.8,115.1,127.8,115.6,127.8,116z"/>
	<path class="st12" d="M140.3,109.4c-0.5,0.2-1,0.2-1.4,0.2c-1.8,0-3.4-1.1-3.4-3.2c0-2.1,1.5-3.6,3.7-3.6c2.6,0,4.4,1.6,4.4,5.2
		v8.5c1.5-1.7,3.3-3,5.1-3.8v-3.2c0-1.1,0-2.3-0.1-5l3-1.2h0.4v8.5c0.2,0,0.5,0,0.7,0c2.3,0,3.8,1.6,3.8,3.8c0,2.4-1.6,4.3-4.1,4.3
		c-2.3,0-3.9-1.5-3.9-4.4c0-0.2,0-0.3,0-0.7c-2.3,1.3-4.1,3.3-5.1,4.8h-3.3V109.4z M140.7,106.5c0-1.5-0.7-2.2-1.7-2.2
		c-1.1,0-1.8,1-1.8,2c0,1.3,0.9,1.9,1.9,1.9c0.5,0,1.1-0.2,1.4-0.5C140.7,107.4,140.7,107,140.7,106.5z M152,113.6
		c-0.1,0.4-0.2,1.1-0.2,1.8c0,1.3,0.3,2.7,1.4,2.7c1.2,0,1.5-1.3,1.5-2.2c0-1.2-0.8-2.3-2-2.3C152.6,113.5,152.4,113.5,152,113.6z"
		/>
	<path class="st12" d="M170,119.7c0.1-2.6,0.1-4.4,0.1-5.5v-4.9c0-3.9-2.1-4.7-3.7-4.7c-1.6,0-2.8,0.9-3.3,2.5l3.6,0.7l-0.6,1.5
		c-1.6,0.3-1.9,1.1-1.9,3v7.1h-3.3v-6.8c0-1.8,0.4-2.9,2.4-3.7l0-0.1l-3.5-0.6c0.3-2.4,2-5.3,6.9-5.3c2.5,0,6.8,0.9,6.8,6v9.6
		l-2.7,1.2H170z"/>
	<path class="st12" d="M183.7,119.4v-10.5c0-2.8-1.5-3.9-3.2-3.9c-1.2,0-2.3,0.5-3.4,1.4l-1.1-1.5c1.5-1.3,3.2-2.1,5-2.1
		c3.1,0,5.9,2,5.9,5.7v10.8H183.7z"/>
	<path class="st12" d="M190.4,107.5c0-3.6,2.5-5.3,4.8-5.3c1.4,0,2.4,0.5,3.4,1c0.7,0.4,1.3,0.6,1.9,0.6c0.7,0,1.3-0.5,1.6-0.9
		l0.9,1.2c-1.1,1.4-2.1,1.9-3.3,1.9c-1.2,0-2.2-0.4-3.2-0.7c-0.9-0.3-1.7-0.6-2.5-0.6c-0.8,0-1.4,0.4-1.4,1.1c0,0.2,0,0.4,0.1,0.6
		c4.1,0.4,6.7,0.7,8,1.7c1.2,0.9,1.3,1.8,1.3,3.9v3.3c0,2.7-1.7,4.4-4.3,4.4c-2.1,0-3.7-1.4-3.7-3.4c0-2.1,1.5-3.5,3.4-3.5
		c0.5,0,0.9,0.1,1.3,0.3v-1.7c0-2.2-1.2-3-8.2-3.4C190.4,107.7,190.4,107.6,190.4,107.5z M197.6,114.2c-1.1,0-1.9,0.9-1.9,2
		c0,1.3,0.9,2,1.9,2c0.9,0,1.7-0.7,1.7-2.3c0-0.4-0.1-0.8-0.2-1.2C198.6,114.4,198,114.2,197.6,114.2z"/>
	<path class="st12" d="M209.8,117.7h2.2v-10.3c0-1.9-0.6-3.1-2.3-3.1c-1.1,0-2,0.5-2.5,1.6c0.4-0.2,0.8-0.2,1.2-0.2
		c1.5,0,2.7,1.1,2.7,2.8c0,1.7-1.4,2.9-3,2.9c-2.2,0-3.3-1.7-3.3-3.7c0-3.1,2.5-4.9,5.5-4.9c2.4,0,4.6,1.3,5,3.7
		c2.4-0.5,3-2.4,3.3-4.5h3.3c-0.3,2.6-1.8,4.1-4.1,5v0c3.4,0.5,3.8,2.5,3.8,4.3v4.2c0,3.5-2.4,3.7-5.1,3.7h-6.8L209.8,117.7z
		 M206.6,108.3c0,1,0.6,1.9,1.6,1.9c0.9,0,1.4-0.8,1.4-1.6c0-1-0.7-1.6-1.6-1.6c-0.4,0-0.9,0.2-1.3,0.4
		C206.6,107.8,206.6,108,206.6,108.3z M215.2,117.7h0.5c2.1,0,2.5-0.5,2.5-2.5v-3.9c0-1.8-0.3-2.7-3-3.2V117.7z"/>
	<path class="st12" d="M213.9,99.8c0.7-0.1,1.5-0.4,2-1.1c-1.3-0.1-2.3-1.1-2.3-2.3c0-1.5,1.2-2.6,2.7-2.6c1.6,0,2.5,1.2,2.5,2.5
		c0,1-0.5,2-1.4,2.9l0,0.1c2.5-0.5,3.4-2.6,3.6-5.1h3.1c-0.4,2.5-1.6,4.4-3.8,5.6c-1.5,0.8-3.4,1.1-6.4,1.3L213.9,99.8z M216.2,95.1
		c-0.7,0-1.2,0.5-1.2,1.2c0,0.8,0.7,1.4,1.5,1.4c0.7,0,1.1-0.7,1.1-1.3C217.4,95.7,216.9,95.1,216.2,95.1z"/>
	<path class="st12" d="M226.1,105.5c2-1.7,4.1-2.6,6.6-2.6c3.4,0,6.7,1.8,6.7,5.7v5.5c0,4.5-2.8,5.6-6.6,5.6c-3.9,0-6.2-1.6-6.2-4.8
		v-3c0-2.5,1.5-4.6,4.3-4.6c2.5,0,3.4,1.8,3.4,3.2c0,2.3-1.4,3.4-3,3.4c-0.5,0-1-0.1-1.5-0.3v1.6c0,2.2,1.1,3.1,3.1,3.1
		c2.1,0,3.1-0.9,3.1-3.1V109c0-2.6-1.3-4.3-3.7-4.3c-1.8,0-3.7,0.7-5.1,2.1L226.1,105.5z M230.9,112.6c1.1,0,1.7-0.8,1.7-1.9
		c0-1.2-0.5-2.1-1.7-2.1c-1,0-1.4,1-1.4,2.1c0,0.5,0.1,1,0.3,1.5C230.2,112.5,230.5,112.6,230.9,112.6z"/>
	<path class="st12" d="M258.8,91.8h0.4v22.9c0,4.1-2,4.7-6,4.7h-7.7l0.3-1.8h2.2v-8c-0.5,0.2-0.9,0.3-1.4,0.3
		c-1.7,0-3.3-1.2-3.3-3.3c0-2.4,1.8-3.7,3.8-3.7c1.2,0,4.3,0.5,4.3,5v9.8h0.7c2.9,0,3.9-0.2,3.9-3.1V98.1c0-1.1,0-2.3-0.1-5
		L258.8,91.8z M248.5,106.2c0-1.2-0.7-1.9-1.7-1.9c-1.1,0-1.9,0.9-1.9,2c0,1.4,0.9,2,1.8,2c0.5,0,1.1-0.2,1.5-0.6
		C248.4,107.2,248.5,106.8,248.5,106.2z"/>
	<path class="st12" d="M278.7,91.8h0.4v22.9c0,4.1-2,4.7-6,4.7h-7.7l0.3-1.8h2.2v-8c-0.5,0.2-0.9,0.3-1.4,0.3
		c-1.7,0-3.3-1.2-3.3-3.3c0-2.4,1.8-3.7,3.8-3.7c1.2,0,4.3,0.5,4.3,5v9.8h0.7c2.9,0,3.9-0.2,3.9-3.1V98.1c0-1.1,0-2.3-0.1-5
		L278.7,91.8z M268.4,106.2c0-1.2-0.7-1.9-1.7-1.9c-1.1,0-1.9,0.9-1.9,2c0,1.4,0.9,2,1.8,2c0.5,0,1.1-0.2,1.5-0.6
		C268.3,107.2,268.4,106.8,268.4,106.2z"/>
	<path class="st12" d="M274.5,93.9c3.5,0,5.6,2.5,5.6,5.4c0,0.8-0.2,1.6-0.5,2.4c-3.2-2.1-6.3-3.1-10.7-2.9
		C269.3,95.7,271.5,93.9,274.5,93.9z M278.8,99.8c-0.2-2-2.5-3.6-4.6-3.6c-1.4,0-2.5,0.4-3.2,1.4C273.8,97.8,276.3,98.4,278.8,99.8z
		"/>
	<path class="st12" d="M271.6,99.8c0.7-0.1,1.5-0.4,2-1.1c-1.3-0.1-2.3-1.1-2.3-2.3c0-1.5,1.2-2.6,2.7-2.6c1.6,0,2.5,1.2,2.5,2.5
		c0,1-0.5,2-1.4,2.9l0,0.1c2.5-0.5,3.4-2.6,3.6-5.1h3.1c-0.4,2.5-1.6,4.4-3.8,5.6c-1.5,0.8-3.4,1.1-6.4,1.3L271.6,99.8z M273.8,95.1
		c-0.7,0-1.2,0.5-1.2,1.2c0,0.8,0.7,1.4,1.5,1.4c0.7,0,1.1-0.7,1.1-1.3C275.1,95.7,274.6,95.1,273.8,95.1z"/>
	<path class="st12" d="M289.9,109.6c-1.7,0-3.4-1.1-3.4-3.2c0-1.9,1.5-3.5,3.8-3.5c1.2,0,4.3,0.5,4.3,4.8v7.6c0,3-0.2,4.1-2.8,4.1
		h-2.3c-2.3-3.3-6-7.3-8.5-8.9l1.1-1.6c2.9,2,6.6,5.9,8.4,8.6c0.6,0,0.7-0.3,0.7-1.7v-6.4C290.8,109.6,290.4,109.6,289.9,109.6z
		 M291.8,106.5c0-1.1-0.5-2.1-1.7-2.1c-1.1,0-1.8,0.9-1.8,2c0,1.2,1,1.9,2,1.9c0.5,0,0.9-0.2,1.3-0.5
		C291.7,107.4,291.8,106.9,291.8,106.5z"/>
	<path class="st12" d="M299.2,105.5c2-1.7,4.1-2.6,6.6-2.6c3.4,0,6.7,1.8,6.7,5.7v5.5c0,4.5-2.8,5.6-6.6,5.6c-3.9,0-6.2-1.6-6.2-4.8
		v-3c0-2.5,1.5-4.6,4.3-4.6c2.5,0,3.4,1.8,3.4,3.2c0,2.3-1.4,3.4-3,3.4c-0.5,0-1-0.1-1.5-0.3v1.6c0,2.2,1.1,3.1,3.1,3.1
		c2.1,0,3.1-0.9,3.1-3.1V109c0-2.6-1.3-4.3-3.7-4.3c-1.8,0-3.7,0.7-5.1,2.1L299.2,105.5z M304,112.6c1.1,0,1.7-0.8,1.7-1.9
		c0-1.2-0.5-2.1-1.7-2.1c-1,0-1.4,1-1.4,2.1c0,0.5,0.1,1,0.3,1.5C303.2,112.5,303.6,112.6,304,112.6z"/>
	<path class="st12" d="M317,105.5c2-1.7,4.1-2.6,6.6-2.6c3.4,0,6.7,1.8,6.7,5.7v5.5c0,4.5-2.8,5.6-6.6,5.6c-3.9,0-6.2-1.6-6.2-4.8
		v-3c0-2.5,1.5-4.6,4.3-4.6c2.5,0,3.4,1.8,3.4,3.2c0,2.3-1.4,3.4-3,3.4c-0.5,0-1-0.1-1.5-0.3v1.6c0,2.2,1.1,3.1,3.1,3.1
		c2.1,0,3.1-0.9,3.1-3.1V109c0-2.6-1.3-4.3-3.7-4.3c-1.8,0-3.7,0.7-5.1,2.1L317,105.5z M321.9,112.6c1.1,0,1.7-0.8,1.7-1.9
		c0-1.2-0.5-2.1-1.7-2.1c-1,0-1.4,1-1.4,2.1c0,0.5,0.1,1,0.3,1.5C321.1,112.5,321.5,112.6,321.9,112.6z"/>
	<path class="st12" d="M339,109.4c-0.5,0.2-1,0.2-1.4,0.2c-1.8,0-3.4-1.1-3.4-3.2c0-2.1,1.5-3.6,3.7-3.6c2.6,0,4.4,1.6,4.4,5.2v8.5
		c1.5-1.7,3.3-3,5.1-3.8v-3.2c0-1.1,0-2.3-0.1-5l3-1.2h0.4v8.5c0.2,0,0.5,0,0.7,0c2.3,0,3.8,1.6,3.8,3.8c0,2.4-1.6,4.3-4.1,4.3
		c-2.3,0-3.9-1.5-3.9-4.4c0-0.2,0-0.3,0-0.7c-2.3,1.3-4.1,3.3-5.1,4.8H339V109.4z M339.4,106.5c0-1.5-0.7-2.2-1.7-2.2
		c-1.1,0-1.8,1-1.8,2c0,1.3,0.9,1.9,1.9,1.9c0.5,0,1.1-0.2,1.4-0.5C339.3,107.4,339.4,107,339.4,106.5z M350.7,113.6
		c-0.1,0.4-0.2,1.1-0.2,1.8c0,1.3,0.3,2.7,1.4,2.7c1.2,0,1.5-1.3,1.5-2.2c0-1.2-0.8-2.3-2-2.3C351.3,113.5,351,113.5,350.7,113.6z"
		/>
	<path class="st12" d="M364.3,112.8c1.9,0,3.2,1.4,3.2,3.3c0,2.1-1.5,3.7-3.7,3.7c-2.6,0-4.4-1.7-4.4-5V95.9c0-1.4-0.4-1.5-0.6-1.5
		c-0.4,1.1-1,2.8-2.2,6.2h-0.8c-1.3-3.7-1.8-5.3-2.2-5.9c-0.3-0.5-0.5-0.5-1-0.5v-2.3h0.7c1.8,0,1.8,0,3.4,4.4h0.1
		c0.9-2.7,1.3-3.6,1.6-4.4h0.1c2,0,4.3,0.7,4.3,4.3v17C363.1,112.9,363.7,112.8,364.3,112.8z M362.3,116c0,1.5,0.6,2.2,1.8,2.2
		c1.1,0,1.8-1,1.8-2.1c0-1.4-0.9-2-1.9-2c-0.6,0-1.1,0.2-1.5,0.7C362.3,115.1,362.3,115.6,362.3,116z"/>
	<path class="st12" d="M381.2,119.4v-7.9c-1.1-1.2-2.6-1.8-3.9-1.8c-1.3,0-2.6,0.7-2.6,2.8c0,0.3,0,0.6,0.1,1c0.5-0.3,1-0.4,1.6-0.4
		c1.8,0,2.9,1.4,2.9,3.3c0,2.1-1.4,3.5-3.6,3.5c-2.6,0-4.2-1.7-4.2-5.1v-1.2c0-5,4.2-5.5,5.6-5.5c1.3,0,2.8,0.5,4.1,1.2V109
		c0-2.6-1.4-4.3-3.8-4.3c-1.9,0-3.5,0.8-4.9,2.1l-1.1-1.4c2-1.7,3.9-2.5,6.4-2.5c3.4,0,6.7,1.8,6.7,5.7v10.8H381.2z M374.5,116.1
		c0,1.2,0.5,2.1,1.6,2.1c1,0,1.7-0.9,1.7-2c0-1.4-0.9-1.9-1.7-1.9c-0.6,0-1.1,0.2-1.5,0.7C374.5,115.4,374.5,115.8,374.5,116.1z"/>
	<path class="st12" d="M393.2,109.4c-0.5,0.2-1,0.2-1.4,0.2c-1.8,0-3.4-1.1-3.4-3.2c0-2.1,1.5-3.6,3.7-3.6c2.6,0,4.4,1.6,4.4,5.2
		v8.5c1.5-1.7,3.3-3,5.1-3.8v-3.2c0-1.1,0-2.3-0.1-5l3-1.2h0.4v8.5c0.2,0,0.5,0,0.7,0c2.3,0,3.8,1.6,3.8,3.8c0,2.4-1.6,4.3-4.1,4.3
		c-2.3,0-3.9-1.5-3.9-4.4c0-0.2,0-0.3,0-0.7c-2.3,1.3-4.1,3.3-5.1,4.8h-3.3V109.4z M393.6,106.5c0-1.5-0.7-2.2-1.7-2.2
		c-1.1,0-1.8,1-1.8,2c0,1.3,0.9,1.9,1.9,1.9c0.5,0,1.1-0.2,1.4-0.5C393.5,107.4,393.6,107,393.6,106.5z M404.9,113.6
		c-0.1,0.4-0.2,1.1-0.2,1.8c0,1.3,0.3,2.7,1.4,2.7c1.2,0,1.5-1.3,1.5-2.2c0-1.2-0.8-2.3-2-2.3C405.5,113.5,405.2,113.5,404.9,113.6z
		"/>
	<path class="st12" d="M408.8,96.1c-0.9-0.5-1.5-0.7-2.2-0.7c-1.6,0-2.6,1.2-2.6,2.5c0,0.9,0.4,1.8,1.7,2.1
		c-0.3-0.4-0.4-0.8-0.4-1.2c0-1,0.8-1.8,1.9-1.8c1,0,1.9,0.8,1.9,1.8c0,1.6-1.6,2.3-3,2.3c-2.3,0-4.3-1.4-4.3-3.6c0-2.1,2-3.4,4-3.4
		c0.7,0,1.4,0.2,2,0.5l0.7-4.3h3.1L408.8,96.1z M407.9,98.7c0-0.4-0.3-0.9-0.8-0.9c-0.5,0-0.9,0.4-0.9,0.9c0,0.4,0.2,0.7,0.5,1.1
		C407.6,99.8,407.9,99.3,407.9,98.7z"/>
	<path class="st12" d="M428.4,103.2v13.4c0,2-0.4,2.7-1.8,2.7h-1.3l-4.3-6.7l-4.3,5.8c-0.4,0.6-0.7,0.9-1.3,0.9h-2.2v-11.9
		c0-2.5,1.8-4.6,4.5-4.6c2.6,0,3.6,1.8,3.6,3.2c0,2.3-1.5,3.5-3.3,3.5c-0.5,0-1-0.1-1.5-0.3v4.3c0,1-0.1,1.8-0.3,2.8l0.1,0l4.7-6.2
		h0.3l4.1,6.1l0.1,0c-0.2-1-0.3-1.9-0.3-2.8v-4c0-1.1,0-2.3-0.1-5l3-1.2H428.4z M417.7,108.3c1.1,0,1.9-0.8,1.9-1.9
		c0-1.2-0.6-2.1-1.8-2.1c-1.2,0-1.6,1-1.6,2.1c0,0.5,0.1,1,0.3,1.5C416.9,108.2,417.3,108.3,417.7,108.3z"/>
	<path class="st12" d="M426.3,101.1l-1-7h3.4l-0.9,6.4L426.3,101.1L426.3,101.1z"/>
	<path class="st12" d="M438.8,119.4v-10.5c0-2.8-1.5-3.9-3.2-3.9c-1.2,0-2.3,0.5-3.4,1.4l-1.1-1.5c1.5-1.3,3.2-2.1,5-2.1
		c3.1,0,5.9,2,5.9,5.7v10.8H438.8z"/>
	<path class="st12" d="M450.8,109.4c-0.5,0.2-1,0.2-1.4,0.2c-1.8,0-3.4-1.1-3.4-3.2c0-2.1,1.5-3.6,3.7-3.6c2.6,0,4.4,1.6,4.4,5.2
		v8.5c1.5-1.7,3.3-3,5.1-3.8v-3.2c0-1.1,0-2.3-0.1-5l3-1.2h0.4v8.5c0.2,0,0.5,0,0.7,0c2.3,0,3.8,1.6,3.8,3.8c0,2.4-1.6,4.3-4.1,4.3
		c-2.3,0-3.9-1.5-3.9-4.4c0-0.2,0-0.3,0-0.7c-2.3,1.3-4.1,3.3-5.1,4.8h-3.3V109.4z M451.2,106.5c0-1.5-0.7-2.2-1.7-2.2
		c-1.1,0-1.8,1-1.8,2c0,1.3,0.9,1.9,1.9,1.9c0.5,0,1.1-0.2,1.4-0.5C451.2,107.4,451.2,107,451.2,106.5z M462.5,113.6
		c-0.1,0.4-0.2,1.1-0.2,1.8c0,1.3,0.3,2.7,1.4,2.7c1.2,0,1.5-1.3,1.5-2.2c0-1.2-0.8-2.3-2-2.3C463.1,113.5,462.9,113.5,462.5,113.6z
		"/>
	<path class="st12" d="M474.6,112.3v-3c-0.5,0.2-0.9,0.3-1.4,0.3c-1.7,0-3.4-1.1-3.4-3.2c0-2.3,1.8-3.6,3.8-3.6c1.2,0,4.3,0.5,4.3,5
		v5.3c1.8,0.8,3.5,2,5.1,3.4v-7.1c0-1.1,0-2.3-0.1-5l3-1.2h0.4v16.1H483c-1.2-1.7-3.2-3.4-5-4.2c0,0.2,0,0.4,0,0.6
		c0,1.5-1.1,4-4.1,4c-2.3,0-3.9-1.6-3.9-3.8c0-2,1.6-3.6,3.7-3.6C474,112.3,474.3,112.3,474.6,112.3z M475.1,106.2
		c0-1.1-0.7-1.8-1.7-1.8c-1.1,0-1.9,0.9-1.9,1.9c0,1.3,0.9,1.9,1.9,1.9c0.5,0,1.1-0.2,1.5-0.6C475,107.1,475.1,106.7,475.1,106.2z
		 M474.1,114c-1.1,0-2.1,0.9-2.1,2.3c0,1.1,0.6,1.7,1.4,1.7c1.1,0,1.6-1.2,1.6-2.3c0-0.6,0-1.1-0.3-1.6
		C474.4,114,474.2,114,474.1,114z"/>
	<path class="st12" d="M480.5,94v-2.6l1.7-0.8h0.3v3.4c0.7,0.1,1.2,0.3,1.8,0.5v-3.1l1.7-0.8h0.3v5.5c0.7,0.9,1,2,1,3.2
		c0,0.8-0.2,1.6-0.5,2.4c-3.2-2.1-6.3-3.1-10.7-2.9C476.4,96.2,478.1,94.4,480.5,94z M486,99.8c-0.2-2-2.5-3.6-4.6-3.6
		c-1.4,0-2.5,0.4-3.2,1.4C481,97.8,483.5,98.4,486,99.8z"/>
	<path class="st12" d="M490.9,105.5c2-1.7,4.1-2.6,6.6-2.6c3.4,0,6.7,1.8,6.7,5.7v5.5c0,4.5-2.8,5.6-6.6,5.6c-3.9,0-6.2-1.6-6.2-4.8
		v-3c0-2.5,1.5-4.6,4.3-4.6c2.5,0,3.4,1.8,3.4,3.2c0,2.3-1.4,3.4-3,3.4c-0.5,0-1-0.1-1.5-0.3v1.6c0,2.2,1.1,3.1,3.1,3.1
		c2.1,0,3.1-0.9,3.1-3.1V109c0-2.6-1.3-4.3-3.7-4.3c-1.8,0-3.7,0.7-5.1,2.1L490.9,105.5z M495.8,112.6c1.1,0,1.7-0.8,1.7-1.9
		c0-1.2-0.5-2.1-1.7-2.1c-1,0-1.4,1-1.4,2.1c0,0.5,0.1,1,0.3,1.5C495,112.5,495.4,112.6,495.8,112.6z"/>
	<path class="st12" d="M519.2,114.2v-4.9c0-3.9-2.2-4.7-3.8-4.7c-1.6,0-2.9,0.8-3.4,2.5l3.7,0.6l-0.6,1.5c-1.9,0.3-2.5,1.2-2.5,3.1
		v1.2c0.5-0.3,1.1-0.5,1.7-0.5c1.8,0,2.9,1.4,2.9,3.3c0,2.1-1.4,3.5-3.6,3.5c-2.6,0-4.1-1.7-4.1-5.1v-2.1c0-1.9,0.6-3,2.6-3.9v-0.1
		l-3.4-0.5c0.3-2.3,2-5.3,6.9-5.3c2.5,0,6.8,0.9,6.8,6v9.6l-2.7,1.2h-0.7C519.2,117,519.2,115.2,519.2,114.2z M512.4,116.1
		c0,1.2,0.5,2.1,1.6,2.1c1,0,1.7-0.9,1.7-2c0-1.4-0.9-1.9-1.7-1.9c-0.6,0-1.1,0.2-1.5,0.7C512.5,115.4,512.4,115.8,512.4,116.1z"/>
	<path class="st12" d="M516.8,94v-2.6l1.7-0.8h0.3v3.4c0.7,0.1,1.2,0.3,1.8,0.5v-3.1l1.7-0.8h0.3v5.5c0.7,0.9,1,2,1,3.2
		c0,0.8-0.2,1.6-0.5,2.4c-3.2-2.1-6.3-3.1-10.7-2.9C512.7,96.2,514.3,94.4,516.8,94z M522.2,99.8c-0.2-2-2.5-3.6-4.6-3.6
		c-1.4,0-2.5,0.4-3.2,1.4C517.2,97.8,519.7,98.4,522.2,99.8z"/>
	<path class="st12" d="M527.2,105.5c2-1.7,4.1-2.6,6.6-2.6c3.4,0,6.7,1.8,6.7,5.7v5.5c0,4.5-2.8,5.6-6.6,5.6c-3.9,0-6.2-1.6-6.2-4.8
		v-3c0-2.5,1.5-4.6,4.3-4.6c2.5,0,3.4,1.8,3.4,3.2c0,2.3-1.4,3.4-3,3.4c-0.5,0-1-0.1-1.5-0.3v1.6c0,2.2,1.1,3.1,3.1,3.1
		c2.1,0,3.1-0.9,3.1-3.1V109c0-2.6-1.3-4.3-3.7-4.3c-1.8,0-3.7,0.7-5.1,2.1L527.2,105.5z M532,112.6c1.1,0,1.7-0.8,1.7-1.9
		c0-1.2-0.5-2.1-1.7-2.1c-1,0-1.4,1-1.4,2.1c0,0.5,0.1,1,0.3,1.5C531.2,112.5,531.6,112.6,532,112.6z"/>
	<path class="st12" d="M549.1,109.4c-0.4,0.2-0.9,0.2-1.3,0.2c-1.7,0-3.4-1.1-3.4-3.2c0-1.9,1.5-3.5,3.8-3.5c1.2,0,4.3,0.5,4.3,4.8
		v4.5c0,0.9,0,1.9-0.2,2.8l0.1,0c2-3.5,3.6-5.3,5.5-6.6c-1.1-0.5-1.6-1.6-1.6-2.6c0-1.9,1.7-3.3,3.5-3.3c1.7,0,3.3,1.3,3.3,3.1
		c0,1.1-0.5,2-1.2,2.7c0.2,0.2,0.4,0.5,0.4,1v10.1h-3.3v-9.8c-2.2,1.4-4.8,5-6.7,9.8h-3.1V109.4z M549.6,106.5
		c0-1.1-0.5-2.1-1.7-2.1c-1.1,0-1.8,0.9-1.8,2c0,1.2,1,1.9,2,1.9c0.5,0,0.9-0.2,1.3-0.5C549.5,107.4,549.6,106.9,549.6,106.5z
		 M561.3,105.6c0-0.9-0.7-1.6-1.7-1.6c-1.1,0-1.7,0.8-1.7,1.6c0,1.1,0.9,2,2,2.1C560.7,107.3,561.3,106.5,561.3,105.6z"/>
	<path class="st12" d="M565.5,107.5c0-3.6,2.5-5.3,4.8-5.3c1.4,0,2.4,0.5,3.4,1c0.7,0.4,1.3,0.6,1.9,0.6c0.7,0,1.3-0.5,1.6-0.9
		l0.9,1.2c-1.1,1.4-2.1,1.9-3.3,1.9c-1.2,0-2.2-0.4-3.2-0.7c-0.9-0.3-1.7-0.6-2.5-0.6c-0.8,0-1.4,0.4-1.4,1.1c0,0.2,0,0.4,0.1,0.6
		c4.1,0.4,6.7,0.7,8,1.7c1.2,0.9,1.3,1.8,1.3,3.9v3.3c0,2.7-1.7,4.4-4.3,4.4c-2.1,0-3.7-1.4-3.7-3.4c0-2.1,1.5-3.5,3.4-3.5
		c0.5,0,0.9,0.1,1.3,0.3v-1.7c0-2.2-1.2-3-8.2-3.4C565.5,107.7,565.5,107.6,565.5,107.5z M572.7,114.2c-1.1,0-1.9,0.9-1.9,2
		c0,1.3,0.9,2,1.9,2c0.9,0,1.7-0.7,1.7-2.3c0-0.4-0.1-0.8-0.2-1.2C573.7,114.4,573.1,114.2,572.7,114.2z"/>
	<path class="st12" d="M570.7,94v-2.6l1.7-0.8h0.3v3.4c0.7,0.1,1.2,0.3,1.8,0.5v-3.1l1.7-0.8h0.3v5.5c0.7,0.9,1,2,1,3.2
		c0,0.8-0.2,1.6-0.5,2.4c-3.2-2.1-6.3-3.1-10.7-2.9C566.6,96.2,568.3,94.4,570.7,94z M576.2,99.8c-0.2-2-2.5-3.6-4.6-3.6
		c-1.4,0-2.5,0.4-3.2,1.4C571.2,97.8,573.7,98.4,576.2,99.8z"/>
	<path class="st12" d="M581.1,105.5c2-1.7,4.1-2.6,6.6-2.6c3.4,0,6.7,1.8,6.7,5.7v5.5c0,4.5-2.8,5.6-6.6,5.6c-3.9,0-6.2-1.6-6.2-4.8
		v-3c0-2.5,1.5-4.6,4.3-4.6c2.5,0,3.4,1.8,3.4,3.2c0,2.3-1.4,3.4-3,3.4c-0.5,0-1-0.1-1.5-0.3v1.6c0,2.2,1.1,3.1,3.1,3.1
		c2.1,0,3.1-0.9,3.1-3.1V109c0-2.6-1.3-4.3-3.7-4.3c-1.8,0-3.7,0.7-5.1,2.1L581.1,105.5z M586,112.6c1.1,0,1.7-0.8,1.7-1.9
		c0-1.2-0.5-2.1-1.7-2.1c-1,0-1.4,1-1.4,2.1c0,0.5,0.1,1,0.3,1.5C585.2,112.5,585.6,112.6,586,112.6z"/>
	<path class="st12" d="M613.3,101.2c-0.2,1.5-0.9,2.7-2,3.6c0.9,0.9,1.5,2.2,1.5,3.8v10.8h-3.3v-7.9c-1.1-1.2-2.6-1.8-3.9-1.8
		c-1.3,0-2.6,0.7-2.6,2.8c0,0.3,0,0.6,0.1,1c0.5-0.3,1-0.4,1.6-0.4c1.8,0,2.9,1.4,2.9,3.3c0,2.1-1.4,3.5-3.6,3.5
		c-2.6,0-4.2-1.7-4.2-5.1v-1.2c0-5,4.2-5.5,5.6-5.5c1.3,0,2.8,0.5,4.1,1.2V109c0-1-0.2-1.8-0.6-2.5c-0.6,0.4-1.3,0.7-1.9,0.9l-1-0.5
		v-0.1c0.6-0.4,1.3-0.9,1.9-1.4c-0.6-0.5-1.4-0.7-2.3-0.7c-1.9,0-3.5,0.8-4.9,2.1l-1.1-1.4c2-1.7,3.9-2.5,6.4-2.5
		c1.2,0,2.3,0.2,3.4,0.7c0.4-0.7,0.7-1.5,0.7-2.4H613.3z M602.7,116.1c0,1.2,0.5,2.1,1.6,2.1c1,0,1.7-0.9,1.7-2
		c0-1.4-0.9-1.9-1.7-1.9c-0.6,0-1.1,0.2-1.5,0.7C602.7,115.4,602.7,115.8,602.7,116.1z"/>
	<path class="st12" d="M621.7,112.3v-3c-0.5,0.2-0.9,0.3-1.4,0.3c-1.7,0-3.4-1.1-3.4-3.2c0-2.3,1.8-3.6,3.8-3.6c1.2,0,4.3,0.5,4.3,5
		v5.3c1.8,0.8,3.5,2,5.1,3.4v-7.1c0-1.1,0-2.3-0.1-5l3-1.2h0.4v16.1h-3.4c-1.2-1.7-3.2-3.4-5-4.2c0,0.2,0,0.4,0,0.6
		c0,1.5-1.1,4-4.1,4c-2.3,0-3.9-1.6-3.9-3.8c0-2,1.6-3.6,3.7-3.6C621.2,112.3,621.4,112.3,621.7,112.3z M622.3,106.2
		c0-1.1-0.7-1.8-1.7-1.8c-1.1,0-1.9,0.9-1.9,1.9c0,1.3,0.9,1.9,1.9,1.9c0.5,0,1.1-0.2,1.5-0.6C622.2,107.1,622.3,106.7,622.3,106.2z
		 M621.2,114c-1.1,0-2.1,0.9-2.1,2.3c0,1.1,0.6,1.7,1.4,1.7c1.1,0,1.6-1.2,1.6-2.3c0-0.6,0-1.1-0.3-1.6
		C621.5,114,621.4,114,621.2,114z"/>
	<path class="st12" d="M643.8,119.4v-10.5c0-2.8-1.5-3.9-3.2-3.9c-1.2,0-2.3,0.5-3.4,1.4l-1.1-1.5c1.5-1.3,3.2-2.1,5-2.1
		c3.1,0,5.9,2,5.9,5.7v10.8H643.8z"/>
	<path class="st12" d="M650.5,107.5c0-3.6,2.5-5.3,4.8-5.3c1.4,0,2.4,0.5,3.4,1c0.7,0.4,1.3,0.6,1.9,0.6c0.7,0,1.3-0.5,1.6-0.9
		l0.9,1.2c-1.1,1.4-2.1,1.9-3.3,1.9c-1.2,0-2.2-0.4-3.2-0.7c-0.9-0.3-1.7-0.6-2.5-0.6c-0.8,0-1.4,0.4-1.4,1.1c0,0.2,0,0.4,0.1,0.6
		c4.1,0.4,6.7,0.7,8,1.7c1.2,0.9,1.3,1.8,1.3,3.9v3.3c0,2.7-1.7,4.4-4.3,4.4c-2.1,0-3.7-1.4-3.7-3.4c0-2.1,1.5-3.5,3.4-3.5
		c0.5,0,0.9,0.1,1.3,0.3v-1.7c0-2.2-1.2-3-8.2-3.4C650.5,107.7,650.5,107.6,650.5,107.5z M657.6,114.2c-1.1,0-1.9,0.9-1.9,2
		c0,1.3,0.9,2,1.9,2c0.9,0,1.7-0.7,1.7-2.3c0-0.4-0.1-0.8-0.2-1.2C658.7,114.4,658.1,114.2,657.6,114.2z"/>
	<path class="st12" d="M662.3,96.1c-0.9-0.5-1.5-0.7-2.2-0.7c-1.6,0-2.6,1.2-2.6,2.5c0,0.9,0.4,1.8,1.7,2.1
		c-0.3-0.4-0.4-0.8-0.4-1.2c0-1,0.8-1.8,1.9-1.8c1,0,1.9,0.8,1.9,1.8c0,1.6-1.6,2.3-3,2.3c-2.3,0-4.3-1.4-4.3-3.6c0-2.1,2-3.4,4-3.4
		c0.7,0,1.4,0.2,2,0.5l0.7-4.3h3.1L662.3,96.1z M661.5,98.7c0-0.4-0.3-0.9-0.8-0.9c-0.5,0-0.9,0.4-0.9,0.9c0,0.4,0.2,0.7,0.5,1.1
		C661.1,99.8,661.5,99.3,661.5,98.7z"/>
	<path class="st12" d="M670,109.4c-0.5,0.2-0.9,0.3-1.4,0.3c-1.9,0-3.2-1.3-3.2-3.3c0-2.2,1.6-3.5,3.8-3.5c1.1,0,4.2,0.5,4.2,4.8
		v2.6c0,0.7-0.1,2.1-0.2,2.8l0.1,0c1.6-3.8,2.4-6.2,2.9-7.1c0.9-2,1.8-3.2,3.5-3.2c2,0,3.4,1.6,3.4,4.1v12.4h-3.3v-12.1
		c0-1.4-0.4-2-0.8-2c-0.6,0-0.9,0.5-1.6,2c-0.9,2-2.1,5.4-4.4,12.1h-3V109.4z M670.6,106.3c0-1.2-0.8-2-1.7-2c-1.1,0-1.9,0.9-1.9,2
		c0,1.3,0.9,2,1.8,2c0.5,0,1.1-0.2,1.6-0.6C670.5,107.2,670.6,106.7,670.6,106.3z"/>
	<path class="st12" d="M686.9,91.8c2.3,0,4.1,1.5,5.3,1.5c0.5,0,1.1-0.2,1.7-0.9l0.8,1.2c-0.9,1.2-2.1,1.7-3.4,1.7
		c-2.1,0-3.7-1.3-5.7-1.3c-0.5,0-1.3,0.3-1.3,1.3c0,0.1,0,0.2,0,0.4c7.8,0.2,7.6,2.8,7.6,5.9v11.5c0.5-0.3,1.1-0.4,1.7-0.4
		c1.9,0,3.2,1.4,3.2,3.3c0,2.1-1.5,3.7-3.7,3.7c-2.6,0-4.4-1.7-4.4-5v-13.2c0-3.3-0.5-4-6.4-4.2C682.1,94.3,683.9,91.8,686.9,91.8z
		 M691.7,116c0,1.5,0.6,2.2,1.8,2.2c1.1,0,1.8-1,1.8-2.1c0-1.4-0.9-2-1.9-2c-0.6,0-1.1,0.2-1.5,0.7
		C691.8,115.1,691.7,115.6,691.7,116z"/>
	<path class="st12" d="M717.7,119.4h-2l-3.9-11.5l-3,9.6c-0.4,1.1-0.9,2-2.1,2h-2.4v-9.8c-0.5,0.2-0.9,0.3-1.4,0.3
		c-1.7,0-3.3-1.2-3.3-3.3c0-2.4,1.8-3.7,3.8-3.7c1.2,0,4.3,0.5,4.3,5v4.4c0,1.7-0.2,2.9-0.3,4.1l0.1,0l4.1-12.6h0.7l4.2,12.6l0.1,0
		c-0.2-1.2-0.2-2.3-0.2-4.1V98.1c0-1.1,0-2.3-0.1-5l3-1.2h0.4v24.8C719.6,118.6,719.2,119.4,717.7,119.4z M704.7,106.2
		c0-1.2-0.7-1.9-1.7-1.9c-1.1,0-1.9,0.9-1.9,2c0,1.4,0.9,2,1.8,2c0.5,0,1.1-0.2,1.5-0.6C704.7,107.2,704.7,106.8,704.7,106.2z"/>
	<path class="st12" d="M728.3,109.4c-0.5,0.2-1,0.2-1.4,0.2c-1.8,0-3.4-1.1-3.4-3.2c0-2.1,1.5-3.6,3.7-3.6c2.6,0,4.4,1.6,4.4,5.2
		v8.5c1.5-1.7,3.3-3,5.1-3.8v-3.2c0-1.1,0-2.3-0.1-5l3-1.2h0.4v8.5c0.2,0,0.5,0,0.7,0c2.3,0,3.8,1.6,3.8,3.8c0,2.4-1.6,4.3-4.1,4.3
		c-2.3,0-3.9-1.5-3.9-4.4c0-0.2,0-0.3,0-0.7c-2.3,1.3-4.1,3.3-5.1,4.8h-3.3V109.4z M728.7,106.5c0-1.5-0.7-2.2-1.7-2.2
		c-1.1,0-1.8,1-1.8,2c0,1.3,0.9,1.9,1.9,1.9c0.5,0,1.1-0.2,1.4-0.5C728.6,107.4,728.7,107,728.7,106.5z M740,113.6
		c-0.1,0.4-0.2,1.1-0.2,1.8c0,1.3,0.3,2.7,1.4,2.7c1.2,0,1.5-1.3,1.5-2.2c0-1.2-0.8-2.3-2-2.3C740.6,113.5,740.3,113.5,740,113.6z"
		/>
</g>
<g>
	<path class="st12" d="M319.7,222.4v-0.7c2-0.2,2.2-0.4,2.2-2.1v-6.4c0-1.2-0.1-1.3-1.1-1.4l-1.2-0.1V211c1.6-0.3,3.1-0.7,4.9-1.2
		v9.8c0,1.6,0.2,2,2.2,2.1v0.7H319.7z"/>
	<path class="st12" d="M346.1,214.8c0-2.5-1.6-3.9-3.8-3.9c-2.4,0-3.8,1.5-3.8,4.2c0,1,0.4,2.1,0.6,3h0.1c0.2-1.8,0.5-3,1.1-3.8
		c0.6-0.8,1.4-1.2,2.2-1.2c1.4,0,2.5,1,2.5,2.4c0,1.6-1.1,2.6-2.5,2.6c-0.4,0-0.7-0.1-1.1-0.2c-0.6,1.4-0.9,3.3-0.9,4.5h-2.5
		c0-1.1-0.5-2.3-1-3.5c-0.5-1.3-1.1-2.6-1.1-4c0-3.3,2.8-5.2,6.4-5.2c4.5,0,6.3,2.2,6.3,5.1v7.6h-2.5V214.8z M341.3,215.9
		c0,0.7,0.7,1.1,1.2,1.1c0.7,0,1.4-0.4,1.4-1.4c0-0.7-0.5-1.4-1.3-1.4C341.9,214.2,341.3,214.9,341.3,215.9z"/>
	<path class="st12" d="M351.2,213.3c0-2.8,1.9-4.1,3.7-4.1c1.1,0,1.9,0.4,2.6,0.8c0.5,0.3,1,0.5,1.5,0.5c0.5,0,1-0.4,1.3-0.7l0.7,1
		c-0.8,1.1-1.6,1.4-2.5,1.4c-1,0-1.7-0.3-2.5-0.5c-0.7-0.2-1.3-0.5-2-0.5c-0.6,0-1.1,0.3-1.1,0.8c0,0.1,0,0.3,0.1,0.5
		c3.1,0.3,5.1,0.6,6.2,1.3c1,0.7,1,1.4,1,3v2.5c0,2.1-1.3,3.4-3.3,3.4c-1.6,0-2.8-1-2.8-2.6c0-1.6,1.2-2.7,2.6-2.7
		c0.4,0,0.7,0.1,1,0.2v-1.3c0-1.7-0.9-2.3-6.3-2.6C351.2,213.4,351.2,213.3,351.2,213.3z M356.7,218.4c-0.9,0-1.4,0.7-1.4,1.6
		c0,1,0.7,1.6,1.4,1.6c0.7,0,1.3-0.5,1.3-1.7c0-0.3-0.1-0.6-0.1-0.9C357.5,218.6,357.1,218.4,356.7,218.4z"/>
	<path class="st12" d="M363.2,204.2c-0.7,2.7-2.8,4.2-5.3,4.2c-1.8,0-3.6-0.8-3.6-2.6c0-1.1,0.9-2,2.1-2c1.3,0,2,1,2,1.9
		c0,0.6-0.2,1.2-0.8,1.6v0.1c1.7,0.1,2.8-0.9,3.2-3.2H363.2z M356.3,207.1c0.8-0.2,1-0.8,1-1.3c0-0.6-0.5-1-0.9-1c-0.7,0-1,0.4-1,1
		C355.3,206.3,355.6,206.9,356.3,207.1z"/>
	<path class="st12" d="M353.8,207.4c0.5-0.1,1.2-0.3,1.5-0.8c-1-0.1-1.8-0.8-1.8-1.8c0-1.1,0.9-2,2.1-2c1.2,0,1.9,0.9,1.9,2
		c0,0.8-0.4,1.6-1.1,2.2l0,0.1c1.9-0.4,2.6-2,2.8-4h2.4c-0.3,1.9-1.3,3.4-2.9,4.3c-1.1,0.6-2.6,0.8-4.9,1L353.8,207.4z M355.6,203.7
		c-0.6,0-1,0.4-1,0.9c0,0.6,0.5,1.1,1.1,1.1c0.6,0,0.8-0.5,0.8-1C356.5,204.2,356.2,203.7,355.6,203.7z"/>
	<path class="st12" d="M367.9,214.9c-1.3,0-2.6-0.9-2.6-2.5c0-1.4,1.1-2.7,2.9-2.7c0.9,0,3.3,0.4,3.3,3.7v5.8c0,2.3-0.2,3.1-2.1,3.1
		h-1.7c-1.7-2.5-4.6-5.6-6.5-6.9l0.8-1.2c2.3,1.6,5.1,4.5,6.5,6.6c0.5,0,0.5-0.2,0.5-1.3v-4.9C368.7,214.8,368.3,214.9,367.9,214.9z
		 M369.4,212.5c0-0.8-0.4-1.6-1.3-1.6c-0.8,0-1.4,0.7-1.4,1.5c0,1,0.8,1.4,1.5,1.4c0.4,0,0.7-0.1,1-0.4
		C369.3,213.2,369.4,212.8,369.4,212.5z"/>
	<path class="st12" d="M377.7,222.4c-0.1-1-0.7-2.2-1.4-3.4c-0.7-1.3-1.3-2.7-1.3-4.1c0-3.3,2.7-4.9,4.8-4.9c0.3,0,0.3,0,1.7,1.1
		h0.1c1.3-1,1.4-1.1,1.6-1.1c0.9,0,4.6,0.2,4.6,4.7v7.7h-2.6v-8c0-2.9-1.5-3.1-1.6-3.1c-0.1,0-0.9,0.7-2.1,1.6h-0.1
		c-1.3-1-2-1.6-2.1-1.6c-0.3,0-1.8,1-1.8,3.3c0,1.1,0.4,2.2,0.8,3.2c0.3,0.9,0.7,1.7,0.9,2.5h0.1c0.3-0.8,0.9-1.5,1.7-2.4
		c-1.2-0.3-2-1-2-2.3c0-1.5,1.2-2.4,2.5-2.4c1.4,0,2.6,0.9,2.6,2.6c0,1.3-0.9,2.4-1.7,3.4c-0.8,0.9-1.6,1.9-2.1,3.1H377.7z
		 M382.8,215.5c0-0.7-0.6-1.2-1.3-1.2c-0.9,0-1.4,0.7-1.4,1.3c0,1.1,1,1.5,1.6,1.5C381.9,217,382.8,216.3,382.8,215.5z"/>
	<path class="st12" d="M386.1,208.3l-0.8-5.4h2.6l-0.7,5L386.1,208.3L386.1,208.3z"/>
	<path class="st12" d="M391.3,211.7c1.5-1.3,3.2-2,5-2c2.6,0,5.1,1.4,5.1,4.4v4.2c0,3.4-2.1,4.3-5.1,4.3c-3,0-4.8-1.3-4.8-3.7v-2.3
		c0-1.9,1.2-3.6,3.3-3.6c1.9,0,2.6,1.4,2.6,2.4c0,1.7-1.1,2.6-2.3,2.6c-0.4,0-0.8-0.1-1.1-0.2v1.2c0,1.7,0.9,2.4,2.4,2.4
		c1.6,0,2.4-0.7,2.4-2.4v-4.7c0-2-1-3.3-2.9-3.3c-1.4,0-2.8,0.6-3.9,1.6L391.3,211.7z M395.1,217.2c0.8,0,1.3-0.6,1.3-1.5
		c0-0.9-0.4-1.6-1.3-1.6c-0.8,0-1.1,0.8-1.1,1.6c0,0.4,0.1,0.8,0.2,1.1C394.5,217.1,394.8,217.2,395.1,217.2z"/>
	<path class="st12" d="M416.5,201.2h0.3v17.6c0,3.1-1.5,3.6-4.6,3.6h-5.9l0.2-1.4h1.7v-6.2c-0.4,0.2-0.7,0.2-1.1,0.2
		c-1.3,0-2.5-0.9-2.5-2.5c0-1.8,1.4-2.8,2.9-2.8c1,0,3.3,0.4,3.3,3.8v7.5h0.5c2.2,0,3-0.1,3-2.4v-12.6c0-0.8,0-1.8-0.1-3.9
		L416.5,201.2z M408.6,212.3c0-0.9-0.5-1.5-1.3-1.5c-0.9,0-1.5,0.7-1.5,1.5c0,1.1,0.7,1.5,1.4,1.5c0.4,0,0.8-0.2,1.1-0.5
		C408.5,213.1,408.6,212.7,408.6,212.3z"/>
	<path class="st12" d="M413.3,202.8c0.7,0,1.3,0.1,1.8,0.4v-2.2l1.5-0.7h0.2v4.2c0.5,0.7,0.8,1.6,0.8,2.5c0,0.6-0.1,1.2-0.4,1.8
		c-2.5-1.6-4.8-2.4-8.2-2.2C409.3,204.2,410.9,202.8,413.3,202.8z M416.6,207.4c-0.1-1.5-1.9-2.8-3.5-2.8c-1.1,0-1.9,0.3-2.5,1
		C412.7,205.8,414.7,206.3,416.6,207.4z"/>
	<path class="st12" d="M436.2,214.8c0-2.5-1.6-3.9-3.8-3.9c-2.4,0-3.8,1.5-3.8,4.2c0,1,0.4,2.1,0.6,3h0.1c0.2-1.8,0.5-3,1.1-3.8
		c0.6-0.8,1.4-1.2,2.2-1.2c1.4,0,2.5,1,2.5,2.4c0,1.6-1.1,2.6-2.5,2.6c-0.4,0-0.7-0.1-1.1-0.2c-0.6,1.4-0.9,3.3-0.9,4.5h-2.6
		c0-1.1-0.5-2.3-1-3.5c-0.5-1.3-1.1-2.6-1.1-4c0-3.3,2.8-5.2,6.4-5.2c4.5,0,6.3,2.2,6.3,5.1v7.6h-2.5V214.8z M431.4,215.9
		c0,0.7,0.7,1.1,1.2,1.1c0.7,0,1.4-0.4,1.4-1.4c0-0.7-0.5-1.4-1.3-1.4C432,214.2,431.4,214.9,431.4,215.9z"/>
	<path class="st12" d="M435.2,202.8c2.7,0,4.3,1.9,4.3,4.2c0,0.6-0.1,1.2-0.4,1.8c-2.5-1.6-4.8-2.4-8.2-2.2
		C431.2,204.2,432.8,202.8,435.2,202.8z M438.5,207.4c-0.1-1.5-1.9-2.8-3.5-2.8c-1.1,0-1.9,0.3-2.5,1
		C434.6,205.8,436.6,206.3,438.5,207.4z"/>
	<path class="st12" d="M455.2,222.4h-2.5v-7.6c0-2.5-1.6-3.9-3.9-3.9c-2.6,0-3.9,1.4-3.9,3.8c0,1,0.3,1.8,0.7,2.7
		c0.3,0.9,0.8,1.9,1.1,3h0.1c0.3-0.8,0.9-1.6,1.7-2.5c-1.2-0.3-2-1.1-2-2.3c0-1.5,1.2-2.4,2.5-2.4c1.4,0,2.6,0.9,2.6,2.6
		c0,1.3-0.9,2.4-1.7,3.4c-0.8,0.9-1.6,1.9-2.1,3.1H445c-0.2-1.2-0.8-2.3-1.4-3.4c-0.7-1.2-1.3-2.4-1.3-4.1c0-3.3,2.8-5.2,6.5-5.2
		c4.6,0,6.4,2.2,6.4,5.1V222.4z M450.2,215.5c0-0.7-0.6-1.2-1.3-1.2c-0.9,0-1.4,0.7-1.4,1.3c0,1.1,1,1.5,1.6,1.5
		C449.2,217.1,450.2,216.3,450.2,215.5z"/>
	<path class="st12" d="M461.8,217.7c0.4-0.2,0.9-0.3,1.3-0.3c1.4,0,2.4,1,2.4,2.5c0,1.6-1.2,2.8-2.9,2.8c-2,0-3.4-1.3-3.4-3.8v-3.8
		c0-1.4,0-2.7-0.1-4.1l2.1-1h0.5V217.7z M461.6,219.8c0,1.2,0.5,1.7,1.4,1.7c0.8,0,1.4-0.7,1.4-1.6c0-1.1-0.7-1.5-1.4-1.5
		c-0.5,0-0.9,0.2-1.1,0.5C461.6,219.1,461.6,219.5,461.6,219.8z"/>
	<path class="st12" d="M479.5,201.2h0.3v17.6c0,3.1-1.5,3.6-4.6,3.6h-5.9l0.2-1.4h1.7v-6.2c-0.4,0.2-0.7,0.2-1.1,0.2
		c-1.3,0-2.5-0.9-2.5-2.5c0-1.8,1.4-2.8,2.9-2.8c1,0,3.3,0.4,3.3,3.8v7.5h0.5c2.2,0,3-0.1,3-2.4v-12.6c0-0.8,0-1.8-0.1-3.9
		L479.5,201.2z M471.6,212.3c0-0.9-0.5-1.5-1.3-1.5c-0.9,0-1.5,0.7-1.5,1.5c0,1.1,0.7,1.5,1.4,1.5c0.4,0,0.8-0.2,1.1-0.5
		C471.6,213.1,471.6,212.7,471.6,212.3z"/>
	<path class="st12" d="M477.2,206.2c0.3-1,1.1-1.1,1.5-1.1c1.1,0,1.7,0.8,1.7,1.6c0,1-0.7,1.7-1.8,1.7c-1.3,0-1.7-1.1-3-1.8v1.2
		l-0.6,0.5c-1.6-1.1-2.3-2.1-2.3-3.2c0-1.5,0.8-2.8,2.6-2.8c1.6,0,3.1,1.3,3.8,1.3c0.5,0,0.7-0.3,1-1l0.8,0.7
		c-0.2,0.9-0.9,1.4-1.7,1.4c-0.9,0-2.3-0.7-3.6-0.7c-1.1,0-1.6,0.7-1.6,1.5c0,0.5,0.3,1.1,0.9,1.5l0,0v-1.7l0.5-0.4
		C476.1,205.3,476.5,205.6,477.2,206.2z M478.7,207.6c0.5,0,0.8-0.4,0.8-0.9c0-0.4-0.3-0.8-0.8-0.8c-0.6,0-1,0.6-0.8,1.2
		C478.1,207.6,478.5,207.6,478.7,207.6z"/>
	<path class="st12" d="M486.5,214.8c-0.4,0.1-0.8,0.2-1.1,0.2c-1.4,0-2.6-0.8-2.6-2.5c0-1.6,1.2-2.8,2.8-2.8c2,0,3.4,1.2,3.4,4v6.5
		c1.2-1.3,2.5-2.3,3.9-2.9v-2.5c0-0.8,0-1.8-0.1-3.9l2.3-1h0.3v6.5c0.2,0,0.4,0,0.6,0c1.7,0,2.9,1.2,2.9,2.9c0,1.8-1.3,3.3-3.1,3.3
		c-1.8,0-3-1.2-3-3.4c0-0.1,0-0.2,0-0.5c-1.8,1-3.2,2.5-3.9,3.7h-2.5V214.8z M486.9,212.5c0-1.2-0.5-1.7-1.3-1.7
		c-0.9,0-1.3,0.7-1.3,1.6c0,1,0.7,1.5,1.4,1.5c0.4,0,0.8-0.1,1.1-0.4C486.8,213.2,486.9,212.9,486.9,212.5z M495.5,217.9
		c-0.1,0.3-0.1,0.8-0.1,1.3c0,1,0.2,2,1.1,2c0.9,0,1.1-1,1.1-1.7c0-0.9-0.6-1.7-1.5-1.7C496,217.9,495.8,217.9,495.5,217.9z"/>
	<path class="st12" d="M594.3,213.6l4.4-4h-7.1v-2.1h10.1v2l-4.3,3.9c2.2,0,4.6,1.5,4.6,4.5c0,2.5-1.9,4.8-5.4,4.8
		c-3.4,0-5.4-2.3-5.5-4.7l2.2-0.5c0.1,2,1.5,3.2,3.3,3.2c2,0,3.2-1.3,3.2-2.8c0-2-1.6-2.8-3-2.8c-0.5,0-0.9,0.1-1.3,0.2L594.3,213.6
		z"/>
	<path class="st12" d="M605.9,217.7c0.1,1.8,1.5,3.1,3.4,3.1c1.8,0,3.2-1.2,3.2-3c0-2-1.5-3.1-3.2-3.1c-1.1,0-2.1,0.4-2.7,1.1
		c-0.8-0.3-1.4-0.6-2.2-0.9l1.9-7.4h7.9v2.1h-6.4l-1.1,4.3c0.7-0.7,1.9-1.1,3-1.1c2.9,0,5.1,1.9,5.1,4.9c0,2.8-2.2,5.1-5.5,5.1
		c-3.2,0-5.3-2.1-5.5-4.4L605.9,217.7z"/>
	<path class="st12" d="M620.2,207.3c2,0,3.7,1.6,3.7,3.6c0,2-1.7,3.6-3.7,3.6s-3.7-1.6-3.7-3.6C616.6,208.9,618.3,207.3,620.2,207.3
		z M618.4,222.4l10.7-14.9h2.1l-10.7,14.9H618.4z M620.2,212.8c1,0,1.8-0.8,1.8-1.8c0-1-0.8-1.8-1.8-1.8c-1,0-1.8,0.8-1.8,1.8
		C618.5,212,619.3,212.8,620.2,212.8z M629.4,215.3c2,0,3.7,1.6,3.7,3.6c0,2-1.7,3.6-3.7,3.6s-3.7-1.6-3.7-3.6
		C625.7,216.9,627.4,215.3,629.4,215.3z M629.4,220.8c1,0,1.8-0.8,1.8-1.8c0-1-0.8-1.8-1.8-1.8c-1,0-1.8,0.8-1.8,1.8
		C627.6,220,628.4,220.8,629.4,220.8z"/>
</g>
<g>
	<path class="st12" d="M319.7,310.3v-0.7c2-0.2,2.2-0.4,2.2-2.1V301c0-1.2-0.1-1.3-1.1-1.4l-1.2-0.1v-0.6c1.6-0.3,3.1-0.7,4.9-1.2
		v9.8c0,1.7,0.2,2,2.2,2.1v0.7H319.7z"/>
	<path class="st12" d="M346.1,302.7c0-2.5-1.6-3.9-3.8-3.9c-2.4,0-3.8,1.5-3.8,4.2c0,1,0.4,2.1,0.6,3h0.1c0.2-1.8,0.5-3,1.1-3.8
		c0.6-0.8,1.4-1.2,2.2-1.2c1.4,0,2.5,1,2.5,2.4c0,1.6-1.1,2.6-2.5,2.6c-0.4,0-0.7-0.1-1.1-0.2c-0.6,1.4-0.9,3.3-0.9,4.5h-2.5
		c0-1.1-0.5-2.3-1-3.5c-0.5-1.3-1.1-2.6-1.1-4c0-3.3,2.8-5.2,6.5-5.2c4.5,0,6.3,2.2,6.3,5.1v7.6h-2.5V302.7z M341.3,303.8
		c0,0.7,0.7,1.1,1.2,1.1c0.7,0,1.4-0.4,1.4-1.4c0-0.7-0.5-1.3-1.3-1.3C341.9,302.1,341.3,302.8,341.3,303.8z"/>
	<path class="st12" d="M351.2,301.1c0-2.8,1.9-4.1,3.7-4.1c1.1,0,1.9,0.4,2.6,0.8c0.5,0.3,1,0.5,1.5,0.5c0.5,0,1-0.4,1.3-0.7l0.7,1
		c-0.8,1.1-1.6,1.4-2.5,1.4c-1,0-1.7-0.3-2.5-0.5c-0.7-0.2-1.3-0.5-2-0.5c-0.6,0-1.1,0.3-1.1,0.8c0,0.1,0,0.3,0.1,0.5
		c3.1,0.3,5.1,0.6,6.2,1.3c1,0.7,1,1.4,1,3v2.5c0,2.1-1.3,3.4-3.3,3.4c-1.6,0-2.8-1-2.8-2.6c0-1.6,1.2-2.7,2.6-2.7
		c0.4,0,0.7,0.1,1,0.2v-1.3c0-1.7-0.9-2.3-6.3-2.6C351.2,301.3,351.2,301.2,351.2,301.1z M356.7,306.3c-0.9,0-1.4,0.7-1.4,1.6
		c0,1,0.7,1.6,1.4,1.6c0.7,0,1.3-0.5,1.3-1.7c0-0.3-0.1-0.6-0.1-0.9C357.5,306.4,357.1,306.3,356.7,306.3z"/>
	<path class="st12" d="M363.2,292.1c-0.7,2.7-2.8,4.2-5.3,4.2c-1.8,0-3.6-0.8-3.6-2.6c0-1.1,0.9-2,2.1-2c1.3,0,2,1,2,1.9
		c0,0.6-0.2,1.2-0.8,1.6v0.1c1.7,0.2,2.8-0.9,3.2-3.2H363.2z M356.3,295c0.8-0.2,1-0.8,1-1.3c0-0.6-0.5-1-0.9-1c-0.7,0-1,0.5-1,1
		C355.3,294.1,355.6,294.7,356.3,295z"/>
	<path class="st12" d="M353.8,295.3c0.5-0.1,1.2-0.3,1.5-0.8c-1-0.1-1.8-0.8-1.8-1.8c0-1.1,0.9-2,2.1-2c1.2,0,1.9,0.9,1.9,2
		c0,0.8-0.4,1.6-1.1,2.2l0,0.1c1.9-0.4,2.6-2,2.8-4h2.4c-0.3,1.9-1.3,3.4-2.9,4.3c-1.1,0.6-2.6,0.8-4.9,1L353.8,295.3z M355.6,291.6
		c-0.6,0-1,0.4-1,0.9c0,0.6,0.5,1.1,1.1,1.1c0.6,0,0.8-0.5,0.8-1C356.5,292,356.2,291.6,355.6,291.6z"/>
	<path class="st12" d="M367.9,302.8c-1.3,0-2.6-0.9-2.6-2.5c0-1.4,1.1-2.7,2.9-2.7c0.9,0,3.3,0.4,3.3,3.7v5.8c0,2.3-0.2,3.1-2.1,3.1
		h-1.7c-1.7-2.5-4.6-5.6-6.5-6.9l0.8-1.2c2.3,1.6,5.1,4.5,6.5,6.6c0.5,0,0.5-0.2,0.5-1.3v-4.9C368.7,302.7,368.3,302.8,367.9,302.8z
		 M369.4,300.4c0-0.8-0.4-1.7-1.3-1.7c-0.8,0-1.4,0.7-1.4,1.5c0,1,0.8,1.4,1.5,1.4c0.4,0,0.7-0.1,1-0.4
		C369.3,301,369.4,300.7,369.4,300.4z"/>
	<path class="st12" d="M377.7,310.3c-0.1-1-0.7-2.2-1.3-3.4c-0.7-1.3-1.3-2.7-1.3-4.1c0-3.3,2.7-4.9,4.8-4.9c0.3,0,0.3,0,1.7,1.1
		h0.1c1.3-1,1.4-1.1,1.6-1.1c0.9,0,4.6,0.2,4.6,4.7v7.7h-2.6v-8c0-2.8-1.5-3.1-1.6-3.1s-0.9,0.7-2.1,1.6h-0.1c-1.3-1-2-1.6-2.1-1.6
		c-0.3,0-1.8,1-1.8,3.3c0,1.1,0.4,2.2,0.8,3.2c0.3,0.9,0.7,1.7,0.9,2.5h0.1c0.3-0.8,0.9-1.5,1.7-2.4c-1.2-0.3-2-1-2-2.3
		c0-1.5,1.2-2.4,2.5-2.4c1.3,0,2.6,0.9,2.6,2.5c0,1.3-0.9,2.4-1.7,3.5c-0.8,0.9-1.7,1.9-2.1,3.1H377.7z M382.8,303.4
		c0-0.7-0.6-1.2-1.3-1.2c-0.9,0-1.4,0.7-1.4,1.3c0,1.1,1,1.5,1.6,1.5C381.9,304.9,382.8,304.2,382.8,303.4z"/>
	<path class="st12" d="M386.1,296.2l-0.8-5.4h2.6l-0.7,5L386.1,296.2L386.1,296.2z"/>
	<path class="st12" d="M391.3,299.6c1.5-1.3,3.2-2,5-2c2.6,0,5.1,1.3,5.1,4.4v4.2c0,3.4-2.1,4.3-5.1,4.3c-3,0-4.8-1.3-4.8-3.7v-2.3
		c0-2,1.2-3.6,3.3-3.6c1.9,0,2.6,1.4,2.6,2.4c0,1.7-1.1,2.6-2.3,2.6c-0.4,0-0.8-0.1-1.1-0.2v1.2c0,1.7,0.9,2.4,2.4,2.4
		c1.6,0,2.4-0.7,2.4-2.4v-4.7c0-2-1-3.3-2.9-3.3c-1.4,0-2.8,0.6-3.9,1.6L391.3,299.6z M395.1,305.1c0.8,0,1.3-0.6,1.3-1.5
		c0-0.9-0.4-1.6-1.3-1.6c-0.8,0-1.1,0.8-1.1,1.6c0,0.4,0.1,0.8,0.2,1.1C394.5,305,394.8,305.1,395.1,305.1z"/>
	<path class="st12" d="M408.3,305.5c0.4-0.2,0.9-0.3,1.3-0.3c1.4,0,2.4,1,2.4,2.5c0,1.6-1.2,2.8-2.9,2.8c-2,0-3.4-1.3-3.4-3.8V303
		c0-1.4,0-2.7-0.1-4.1l2.1-1h0.5V305.5z M408,307.7c0,1.2,0.5,1.7,1.4,1.7c0.8,0,1.3-0.7,1.3-1.6c0-1.1-0.7-1.5-1.4-1.5
		c-0.5,0-0.9,0.2-1.1,0.5C408.1,307,408,307.3,408,307.7z"/>
	<path class="st12" d="M427.4,310.3h-2.5v-7.6c0-2.5-1.7-3.9-3.9-3.9c-2.6,0-3.9,1.4-3.9,3.8c0,1,0.3,1.8,0.7,2.7
		c0.3,0.9,0.8,1.9,1.1,3h0.1c0.3-0.8,0.9-1.7,1.7-2.5c-1.2-0.3-2-1.1-2-2.3c0-1.5,1.2-2.4,2.5-2.4c1.4,0,2.6,0.9,2.6,2.5
		c0,1.3-0.9,2.4-1.7,3.5c-0.8,0.9-1.6,1.9-2.1,3.1h-2.7c-0.2-1.2-0.8-2.3-1.4-3.4c-0.7-1.2-1.3-2.4-1.3-4.1c0-3.3,2.8-5.2,6.5-5.2
		c4.6,0,6.4,2.2,6.4,5.1V310.3z M422.4,303.4c0-0.7-0.6-1.2-1.3-1.2c-0.9,0-1.4,0.7-1.4,1.3c0,1.1,1,1.5,1.6,1.5
		C421.5,304.9,422.4,304.2,422.4,303.4z"/>
	<path class="st12" d="M422.9,290.8v-2l1.3-0.6h0.2v2.6c0.5,0.1,1,0.2,1.3,0.4v-2.4l1.3-0.6h0.2v4.2c0.5,0.7,0.8,1.6,0.8,2.5
		c0,0.6-0.1,1.2-0.4,1.8c-2.5-1.6-4.8-2.4-8.2-2.2C419.8,292.4,421,291.1,422.9,290.8z M427.1,295.3c-0.2-1.5-1.9-2.8-3.5-2.8
		c-1.1,0-2,0.3-2.5,1C423.3,293.7,425.2,294.1,427.1,295.3z"/>
	<path class="st12" d="M430.9,299.6c1.5-1.3,3.2-2,5-2c2.6,0,5.1,1.3,5.1,4.4v4.2c0,3.4-2.1,4.3-5.1,4.3c-3,0-4.8-1.3-4.8-3.7v-2.3
		c0-2,1.2-3.6,3.3-3.6c1.9,0,2.6,1.4,2.6,2.4c0,1.7-1.1,2.6-2.3,2.6c-0.4,0-0.8-0.1-1.1-0.2v1.2c0,1.7,0.9,2.4,2.4,2.4
		c1.6,0,2.4-0.7,2.4-2.4v-4.7c0-2-1-3.3-2.9-3.3c-1.4,0-2.8,0.6-3.9,1.6L430.9,299.6z M434.6,305.1c0.8,0,1.3-0.6,1.3-1.5
		c0-0.9-0.4-1.6-1.3-1.6c-0.8,0-1.1,0.8-1.1,1.6c0,0.4,0.1,0.8,0.2,1.1C434,305,434.3,305.1,434.6,305.1z"/>
	<path class="st12" d="M447.8,302.6c-0.4,0.1-0.8,0.2-1.1,0.2c-1.4,0-2.6-0.8-2.6-2.5c0-1.6,1.2-2.8,2.8-2.8c2,0,3.4,1.2,3.4,4v6.5
		c1.2-1.3,2.5-2.3,3.9-2.9v-2.5c0-0.8,0-1.8-0.1-3.9l2.3-1h0.3v6.5c0.2,0,0.4,0,0.6,0c1.7,0,2.9,1.2,2.9,2.9c0,1.8-1.3,3.3-3.2,3.3
		c-1.8,0-3-1.2-3-3.4c0-0.1,0-0.2,0-0.5c-1.8,1-3.2,2.5-3.9,3.7h-2.5V302.6z M448.1,300.4c0-1.2-0.5-1.7-1.3-1.7
		c-0.9,0-1.4,0.8-1.4,1.6c0,1,0.7,1.5,1.4,1.5c0.4,0,0.8-0.1,1.1-0.4C448,301.1,448.1,300.7,448.1,300.4z M456.8,305.8
		c-0.1,0.3-0.2,0.8-0.2,1.3c0,1,0.2,2,1.1,2c0.9,0,1.1-1,1.1-1.7c0-0.9-0.6-1.7-1.5-1.7C457.3,305.8,457,305.8,456.8,305.8z"/>
	<path class="st12" d="M478.5,302.7c0-2.5-1.6-3.9-3.8-3.9c-2.4,0-3.8,1.5-3.8,4.2c0,1,0.4,2.1,0.6,3h0.1c0.2-1.8,0.5-3,1.1-3.8
		c0.6-0.8,1.4-1.2,2.2-1.2c1.4,0,2.5,1,2.5,2.4c0,1.6-1.1,2.6-2.5,2.6c-0.4,0-0.7-0.1-1.1-0.2c-0.6,1.4-0.9,3.3-0.9,4.5h-2.5
		c0-1.1-0.5-2.3-1-3.5c-0.5-1.3-1.1-2.6-1.1-4c0-3.3,2.8-5.2,6.5-5.2c4.5,0,6.3,2.2,6.3,5.1v7.6h-2.5V302.7z M473.7,303.8
		c0,0.7,0.7,1.1,1.2,1.1c0.7,0,1.4-0.4,1.4-1.4c0-0.7-0.5-1.3-1.3-1.3C474.3,302.1,473.7,302.8,473.7,303.8z"/>
	<path class="st12" d="M477.5,290.7c2.7,0,4.3,1.9,4.3,4.2c0,0.6-0.2,1.2-0.4,1.8c-2.5-1.6-4.8-2.4-8.2-2.2
		C473.5,292.1,475.1,290.7,477.5,290.7z M480.8,295.3c-0.1-1.5-1.9-2.8-3.5-2.8c-1.1,0-1.9,0.3-2.5,1
		C476.9,293.7,478.9,294.1,480.8,295.3z"/>
	<path class="st12" d="M497.5,310.3h-2.5v-7.6c0-2.5-1.7-3.9-3.9-3.9c-2.6,0-3.9,1.4-3.9,3.8c0,1,0.3,1.8,0.7,2.7
		c0.3,0.9,0.8,1.9,1.1,3h0.1c0.3-0.8,0.9-1.7,1.7-2.5c-1.2-0.3-2-1.1-2-2.3c0-1.5,1.2-2.4,2.5-2.4c1.4,0,2.6,0.9,2.6,2.5
		c0,1.3-0.9,2.4-1.7,3.5c-0.8,0.9-1.6,1.9-2.1,3.1h-2.7c-0.2-1.2-0.8-2.3-1.4-3.4c-0.7-1.2-1.3-2.4-1.3-4.1c0-3.3,2.8-5.2,6.5-5.2
		c4.6,0,6.4,2.2,6.4,5.1V310.3z M492.5,303.4c0-0.7-0.6-1.2-1.3-1.2c-0.9,0-1.4,0.7-1.4,1.3c0,1.1,1,1.5,1.6,1.5
		C491.5,304.9,492.5,304.2,492.5,303.4z"/>
	<path class="st12" d="M504.1,305.5c0.4-0.2,0.9-0.3,1.3-0.3c1.4,0,2.4,1,2.4,2.5c0,1.6-1.2,2.8-2.9,2.8c-2,0-3.4-1.3-3.4-3.8V303
		c0-1.4,0-2.7-0.1-4.1l2.1-1h0.5V305.5z M503.9,307.7c0,1.2,0.5,1.7,1.4,1.7c0.8,0,1.3-0.7,1.3-1.6c0-1.1-0.7-1.5-1.4-1.5
		c-0.5,0-0.9,0.2-1.1,0.5C503.9,307,503.9,307.3,503.9,307.7z"/>
	<path class="st12" d="M521.8,289.1h0.3v17.6c0,3.1-1.5,3.6-4.6,3.6h-5.9l0.2-1.4h1.7v-6.2c-0.4,0.2-0.7,0.2-1.1,0.2
		c-1.3,0-2.5-0.9-2.5-2.5c0-1.8,1.4-2.8,2.9-2.8c1,0,3.3,0.4,3.3,3.8v7.5h0.5c2.2,0,3-0.2,3-2.4v-12.6c0-0.8,0-1.8-0.1-3.9
		L521.8,289.1z M513.9,300.2c0-0.9-0.5-1.5-1.3-1.5c-0.9,0-1.5,0.7-1.5,1.5c0,1,0.7,1.5,1.4,1.5c0.4,0,0.8-0.2,1.1-0.5
		C513.9,301,513.9,300.6,513.9,300.2z"/>
	<path class="st12" d="M519.5,294.1c0.3-1,1.1-1.1,1.5-1.1c1.1,0,1.7,0.8,1.7,1.6c0,1-0.7,1.7-1.8,1.7c-1.3,0-1.7-1.1-3-1.8v1.2
		l-0.6,0.5c-1.6-1.1-2.3-2.1-2.3-3.2c0-1.5,0.8-2.8,2.6-2.8c1.6,0,3.1,1.3,3.8,1.3c0.5,0,0.7-0.3,1-1l0.8,0.7
		c-0.2,0.9-0.9,1.4-1.7,1.4c-0.9,0-2.3-0.7-3.6-0.7c-1.1,0-1.7,0.7-1.7,1.5c0,0.5,0.3,1.1,0.9,1.5l0,0v-1.7l0.5-0.4
		C518.4,293.2,518.8,293.5,519.5,294.1z M521,295.5c0.5,0,0.8-0.4,0.8-0.9c0-0.4-0.3-0.8-0.8-0.8c-0.6,0-1,0.6-0.8,1.2
		C520.4,295.4,520.8,295.5,521,295.5z"/>
	<path class="st12" d="M528.8,302.6c-0.4,0.1-0.8,0.2-1.1,0.2c-1.4,0-2.6-0.8-2.6-2.5c0-1.6,1.2-2.8,2.8-2.8c2,0,3.4,1.2,3.4,4v6.5
		c1.2-1.3,2.5-2.3,3.9-2.9v-2.5c0-0.8,0-1.8-0.1-3.9l2.3-1h0.3v6.5c0.2,0,0.4,0,0.6,0c1.7,0,2.9,1.2,2.9,2.9c0,1.8-1.3,3.3-3.2,3.3
		c-1.8,0-3-1.2-3-3.4c0-0.1,0-0.2,0-0.5c-1.8,1-3.2,2.5-3.9,3.7h-2.5V302.6z M529.2,300.4c0-1.2-0.5-1.7-1.3-1.7
		c-0.9,0-1.4,0.8-1.4,1.6c0,1,0.7,1.5,1.4,1.5c0.4,0,0.8-0.1,1.1-0.4C529.1,301.1,529.2,300.7,529.2,300.4z M537.8,305.8
		c-0.1,0.3-0.2,0.8-0.2,1.3c0,1,0.2,2,1.1,2c0.9,0,1.1-1,1.1-1.7c0-0.9-0.6-1.7-1.5-1.7C538.3,305.8,538.1,305.8,537.8,305.8z"/>
	<path class="st12" d="M597.1,301.5l4.4-4h-7.1v-2.1h10.1v2l-4.3,3.9c2.2,0,4.6,1.5,4.6,4.5c0,2.5-1.9,4.8-5.4,4.8
		c-3.4,0-5.4-2.3-5.5-4.7l2.2-0.5c0.1,2,1.5,3.2,3.3,3.2c2,0,3.2-1.3,3.2-2.8c0-2-1.6-2.8-3-2.8c-0.5,0-0.9,0.1-1.3,0.2L597.1,301.5
		z"/>
	<path class="st12" d="M617.1,297.7c-0.6-0.3-1.5-0.6-2.7-0.6c-3.1,0-5.1,2.3-5.2,5.3c0.6-1,2-1.9,3.9-1.9c2.9,0,5.1,1.8,5.1,5.1
		c0,3.2-2.6,5.1-5.5,5.1c-2.9,0-5.8-2-5.8-6.9c0-5.5,3.3-8.7,7.7-8.7c1.4,0,2.5,0.3,3.2,0.8L617.1,297.7z M612.8,308.7
		c1.7,0,3.2-1.1,3.2-3.1c0-2-1.5-3.2-3.2-3.2s-3.2,1.2-3.2,3.2C609.5,307.5,611.1,308.7,612.8,308.7z"/>
	<path class="st12" d="M622.1,307.2c0.9,0,1.6,0.7,1.6,1.6c0,0.9-0.7,1.6-1.6,1.6c-0.9,0-1.6-0.7-1.6-1.6
		C620.5,307.9,621.2,307.2,622.1,307.2z"/>
	<path class="st12" d="M628.2,305.6c0.1,1.8,1.5,3.1,3.4,3.1c1.8,0,3.2-1.2,3.2-3c0-2-1.5-3.1-3.2-3.1c-1.1,0-2.1,0.4-2.7,1.1
		c-0.8-0.3-1.4-0.6-2.2-0.9l1.9-7.4h7.9v2.1h-6.4l-1.1,4.3c0.7-0.7,1.9-1.1,3-1.1c2.9,0,5.1,1.9,5.1,4.9c0,2.8-2.2,5.1-5.5,5.1
		c-3.2,0-5.3-2.1-5.5-4.4L628.2,305.6z"/>
	<path class="st12" d="M642.6,295.2c2,0,3.7,1.6,3.7,3.6c0,2-1.7,3.6-3.7,3.6s-3.7-1.6-3.7-3.6C638.9,296.8,640.6,295.2,642.6,295.2
		z M640.8,310.3l10.7-14.9h2.1l-10.7,14.9H640.8z M642.6,300.7c1,0,1.8-0.8,1.8-1.8c0-1-0.8-1.8-1.8-1.8c-1,0-1.8,0.8-1.8,1.8
		C640.8,299.9,641.6,300.7,642.6,300.7z M651.7,303.2c2,0,3.7,1.6,3.7,3.6c0,2-1.7,3.6-3.7,3.6s-3.7-1.6-3.7-3.6
		C648,304.8,649.7,303.2,651.7,303.2z M651.7,308.7c1,0,1.8-0.8,1.8-1.8c0-1-0.8-1.8-1.8-1.8c-1,0-1.8,0.8-1.8,1.8
		C649.9,307.9,650.7,308.7,651.7,308.7z"/>
</g>
<g>
	<path class="st12" d="M319.7,398v-0.7c2-0.2,2.2-0.4,2.2-2.1v-6.4c0-1.2-0.1-1.3-1.1-1.4l-1.2-0.1v-0.6c1.6-0.3,3.1-0.7,4.9-1.2
		v9.8c0,1.6,0.2,2,2.2,2.1v0.7H319.7z"/>
	<path class="st12" d="M346.1,390.5c0-2.5-1.6-3.9-3.8-3.9c-2.4,0-3.8,1.5-3.8,4.2c0,1,0.4,2.1,0.6,3h0.1c0.2-1.8,0.5-3,1.1-3.8
		c0.6-0.8,1.4-1.2,2.2-1.2c1.4,0,2.5,1,2.5,2.4c0,1.6-1.1,2.6-2.5,2.6c-0.4,0-0.7-0.1-1.1-0.2c-0.6,1.4-0.9,3.3-0.9,4.5h-2.5
		c0-1.1-0.5-2.3-1-3.5c-0.5-1.3-1.1-2.6-1.1-4c0-3.3,2.8-5.2,6.4-5.2c4.5,0,6.3,2.2,6.3,5.1v7.6h-2.5V390.5z M341.3,391.5
		c0,0.7,0.7,1.1,1.2,1.1c0.7,0,1.4-0.4,1.4-1.4c0-0.7-0.5-1.4-1.3-1.4C341.9,389.8,341.3,390.6,341.3,391.5z"/>
	<path class="st12" d="M351.2,388.9c0-2.8,1.9-4.1,3.7-4.1c1.1,0,1.9,0.4,2.6,0.8c0.5,0.3,1,0.5,1.5,0.5c0.5,0,1-0.4,1.3-0.7l0.7,1
		c-0.8,1.1-1.6,1.4-2.5,1.4c-1,0-1.7-0.3-2.5-0.5c-0.7-0.2-1.3-0.5-2-0.5c-0.6,0-1.1,0.3-1.1,0.8c0,0.1,0,0.3,0.1,0.5
		c3.1,0.3,5.1,0.6,6.2,1.3c1,0.7,1,1.4,1,3v2.5c0,2.1-1.3,3.4-3.3,3.4c-1.6,0-2.8-1-2.8-2.6c0-1.6,1.2-2.7,2.6-2.7
		c0.4,0,0.7,0.1,1,0.2v-1.3c0-1.7-0.9-2.3-6.3-2.6C351.2,389.1,351.2,389,351.2,388.9z M356.7,394c-0.9,0-1.4,0.7-1.4,1.6
		c0,1,0.7,1.6,1.4,1.6c0.7,0,1.3-0.5,1.3-1.7c0-0.3-0.1-0.6-0.1-0.9C357.5,394.2,357.1,394,356.7,394z"/>
	<path class="st12" d="M363.2,379.8c-0.7,2.7-2.8,4.2-5.3,4.2c-1.8,0-3.6-0.8-3.6-2.6c0-1.1,0.9-2,2.1-2c1.3,0,2,1,2,1.9
		c0,0.6-0.2,1.2-0.8,1.6v0.1c1.7,0.1,2.8-0.9,3.2-3.2H363.2z M356.3,382.7c0.8-0.2,1-0.8,1-1.3c0-0.6-0.5-1-0.9-1c-0.7,0-1,0.4-1,1
		C355.3,381.9,355.6,382.5,356.3,382.7z"/>
	<path class="st12" d="M353.8,383c0.5-0.1,1.2-0.3,1.5-0.8c-1-0.1-1.8-0.8-1.8-1.8c0-1.1,0.9-2,2.1-2c1.2,0,1.9,0.9,1.9,2
		c0,0.8-0.4,1.6-1.1,2.2l0,0.1c1.9-0.4,2.6-2,2.8-4h2.4c-0.3,1.9-1.3,3.4-2.9,4.3c-1.1,0.6-2.6,0.8-4.9,1L353.8,383z M355.6,379.3
		c-0.6,0-1,0.4-1,0.9c0,0.6,0.5,1.1,1.1,1.1c0.6,0,0.8-0.5,0.8-1C356.5,379.8,356.2,379.3,355.6,379.3z"/>
	<path class="st12" d="M367.9,390.5c-1.3,0-2.6-0.9-2.6-2.5c0-1.4,1.1-2.7,2.9-2.7c0.9,0,3.3,0.4,3.3,3.7v5.8c0,2.3-0.2,3.1-2.1,3.1
		h-1.7c-1.7-2.5-4.6-5.6-6.5-6.9l0.8-1.2c2.3,1.6,5.1,4.5,6.5,6.6c0.5,0,0.5-0.2,0.5-1.3v-4.9C368.7,390.5,368.3,390.5,367.9,390.5z
		 M369.4,388.1c0-0.8-0.4-1.6-1.3-1.6c-0.8,0-1.4,0.7-1.4,1.5c0,1,0.8,1.4,1.5,1.4c0.4,0,0.7-0.1,1-0.4
		C369.3,388.8,369.4,388.5,369.4,388.1z"/>
	<path class="st12" d="M377.7,398c-0.1-1-0.7-2.2-1.4-3.4c-0.7-1.3-1.3-2.7-1.3-4.1c0-3.3,2.7-4.9,4.8-4.9c0.3,0,0.3,0,1.7,1.1h0.1
		c1.3-1,1.4-1.1,1.6-1.1c0.9,0,4.6,0.2,4.6,4.7v7.7h-2.6v-8c0-2.9-1.5-3.1-1.6-3.1c-0.1,0-0.9,0.7-2.1,1.6h-0.1
		c-1.3-1-2-1.6-2.1-1.6c-0.3,0-1.8,1-1.8,3.3c0,1.1,0.4,2.2,0.8,3.2c0.3,0.9,0.7,1.7,0.9,2.5h0.1c0.3-0.8,0.9-1.5,1.7-2.4
		c-1.2-0.3-2-1-2-2.3c0-1.5,1.2-2.4,2.5-2.4c1.4,0,2.6,0.9,2.6,2.6c0,1.3-0.9,2.4-1.7,3.4c-0.8,0.9-1.6,1.9-2.1,3.1H377.7z
		 M382.8,391.1c0-0.7-0.6-1.2-1.3-1.2c-0.9,0-1.4,0.7-1.4,1.3c0,1.1,1,1.5,1.6,1.5C381.9,392.7,382.8,391.9,382.8,391.1z"/>
	<path class="st12" d="M386.1,384l-0.8-5.4h2.6l-0.7,5L386.1,384L386.1,384z"/>
	<path class="st12" d="M391.3,387.3c1.5-1.3,3.2-2,5-2c2.6,0,5.1,1.4,5.1,4.4v4.2c0,3.4-2.1,4.3-5.1,4.3c-3,0-4.8-1.3-4.8-3.7v-2.3
		c0-1.9,1.2-3.6,3.3-3.6c1.9,0,2.6,1.4,2.6,2.4c0,1.7-1.1,2.6-2.3,2.6c-0.4,0-0.8-0.1-1.1-0.2v1.2c0,1.7,0.9,2.4,2.4,2.4
		c1.6,0,2.4-0.7,2.4-2.4V390c0-2-1-3.3-2.9-3.3c-1.4,0-2.8,0.6-3.9,1.6L391.3,387.3z M395.1,392.8c0.8,0,1.3-0.6,1.3-1.5
		c0-0.9-0.4-1.6-1.3-1.6c-0.8,0-1.1,0.8-1.1,1.6c0,0.4,0.1,0.8,0.2,1.1C394.5,392.7,394.8,392.8,395.1,392.8z"/>
	<path class="st12" d="M416.1,384c-0.1,1.1-0.7,2.1-1.6,2.8c0.7,0.7,1.1,1.7,1.1,2.9v8.3h-2.5v-6.1c-0.8-0.9-2-1.4-3-1.4
		c-1,0-2,0.5-2,2.1c0,0.2,0,0.4,0.1,0.8c0.4-0.2,0.8-0.3,1.2-0.3c1.4,0,2.2,1,2.2,2.5c0,1.6-1.1,2.7-2.8,2.7c-2,0-3.2-1.3-3.2-3.9
		v-0.9c0-3.9,3.2-4.2,4.3-4.2c1,0,2.2,0.4,3.1,1V390c0-0.8-0.1-1.4-0.4-2c-0.5,0.3-1,0.5-1.4,0.7l-0.8-0.4v-0.1
		c0.5-0.3,1-0.7,1.5-1.1c-0.4-0.4-1-0.5-1.7-0.5c-1.4,0-2.7,0.6-3.8,1.6l-0.8-1.1c1.5-1.3,3-1.9,4.9-1.9c0.9,0,1.8,0.1,2.6,0.5
		c0.3-0.6,0.5-1.2,0.6-1.8H416.1z M407.9,395.5c0,1,0.4,1.6,1.3,1.6c0.8,0,1.3-0.7,1.3-1.5c0-1.1-0.7-1.5-1.3-1.5
		c-0.5,0-0.9,0.2-1.1,0.5C408,394.9,407.9,395.2,407.9,395.5z"/>
	<path class="st12" d="M419.2,379.8c-0.7,2.7-2.8,4.2-5.3,4.2c-1.8,0-3.6-0.8-3.6-2.6c0-1.1,0.9-2,2.1-2c1.3,0,2,1,2,1.9
		c0,0.6-0.2,1.2-0.8,1.6v0.1c1.7,0.1,2.8-0.9,3.2-3.2H419.2z M412.3,382.7c0.8-0.2,1-0.8,1-1.3c0-0.6-0.5-1-0.9-1c-0.7,0-1,0.4-1,1
		C411.4,381.9,411.6,382.5,412.3,382.7z"/>
	<path class="st12" d="M430.6,376.8h0.3v17.6c0,3.1-1.5,3.6-4.6,3.6h-5.9l0.2-1.4h1.7v-6.2c-0.4,0.2-0.7,0.2-1.1,0.2
		c-1.3,0-2.5-0.9-2.5-2.5c0-1.8,1.4-2.8,2.9-2.8c1,0,3.3,0.4,3.3,3.8v7.5h0.5c2.2,0,3-0.1,3-2.4v-12.6c0-0.8,0-1.8-0.1-3.9
		L430.6,376.8z M422.7,387.9c0-0.9-0.5-1.5-1.3-1.5c-0.9,0-1.5,0.7-1.5,1.5c0,1.1,0.7,1.5,1.4,1.5c0.4,0,0.8-0.2,1.1-0.5
		C422.7,388.7,422.7,388.3,422.7,387.9z"/>
	<path class="st12" d="M447.4,398h-2.5v-7.6c0-2.5-1.6-3.9-3.9-3.9c-2.6,0-3.9,1.4-3.9,3.8c0,1,0.3,1.8,0.7,2.7
		c0.3,0.9,0.8,1.9,1.1,3h0.1c0.3-0.8,0.9-1.6,1.7-2.5c-1.2-0.3-2-1.1-2-2.3c0-1.5,1.2-2.4,2.5-2.4c1.4,0,2.6,0.9,2.6,2.6
		c0,1.3-0.9,2.4-1.7,3.4c-0.8,0.9-1.6,1.9-2.1,3.1h-2.7c-0.2-1.2-0.8-2.3-1.4-3.4c-0.7-1.2-1.3-2.4-1.3-4.1c0-3.3,2.8-5.2,6.5-5.2
		c4.6,0,6.4,2.2,6.4,5.1V398z M442.4,391.1c0-0.7-0.6-1.2-1.3-1.2c-0.9,0-1.4,0.7-1.4,1.3c0,1.1,1,1.5,1.6,1.5
		C441.5,392.7,442.4,391.9,442.4,391.1z"/>
	<path class="st12" d="M455.3,398v-8c0-2.2-1.1-3-2.5-3c-0.9,0-1.7,0.4-2.6,1.1l-0.8-1.1c1.1-1,2.5-1.6,3.9-1.6
		c2.4,0,4.6,1.5,4.6,4.4v8.3H455.3z"/>
	<path class="st12" d="M464.5,390.3c-0.3,0.1-0.7,0.2-1,0.2c-1.3,0-2.6-0.9-2.6-2.5c0-1.4,1.1-2.7,2.9-2.7c0.9,0,3.3,0.4,3.3,3.7
		v3.5c0,0.7,0,1.5-0.1,2.2l0.1,0c1.6-2.7,2.8-4.1,4.2-5.1c-0.8-0.4-1.2-1.2-1.2-2c0-1.4,1.3-2.5,2.7-2.5c1.3,0,2.6,1,2.6,2.4
		c0,0.8-0.4,1.6-0.9,2.1c0.1,0.1,0.3,0.4,0.3,0.8v7.7H472v-7.5c-1.7,1-3.7,3.9-5.2,7.5h-2.4V390.3z M464.9,388.1
		c0-0.8-0.4-1.6-1.3-1.6c-0.8,0-1.4,0.7-1.4,1.5c0,1,0.8,1.4,1.5,1.4c0.4,0,0.7-0.1,1-0.4C464.8,388.8,464.9,388.5,464.9,388.1z
		 M473.9,387.4c0-0.7-0.5-1.2-1.3-1.2c-0.9,0-1.3,0.6-1.3,1.3c0,0.8,0.7,1.5,1.5,1.6C473.5,388.8,473.9,388.1,473.9,387.4z"/>
	<path class="st12" d="M475.3,380.1c-0.7-0.4-1.1-0.5-1.7-0.5c-1.2,0-2,1-2,1.9c0,0.7,0.3,1.4,1.3,1.6c-0.2-0.3-0.3-0.6-0.3-0.9
		c0-0.8,0.6-1.4,1.4-1.4c0.8,0,1.4,0.6,1.4,1.4c0,1.3-1.2,1.8-2.3,1.8c-1.7,0-3.3-1.1-3.3-2.8c0-1.6,1.5-2.6,3.1-2.6
		c0.5,0,1.1,0.1,1.6,0.4l0.5-3.3h2.4L475.3,380.1z M474.6,382.2c0-0.3-0.2-0.7-0.6-0.7c-0.4,0-0.7,0.3-0.7,0.7
		c0,0.3,0.1,0.6,0.4,0.8C474.3,383,474.6,382.6,474.6,382.2z"/>
	<path class="st12" d="M494,390.5c0-2.5-1.6-3.9-3.8-3.9c-2.4,0-3.8,1.5-3.8,4.2c0,1,0.4,2.1,0.6,3h0.1c0.2-1.8,0.5-3,1.1-3.8
		c0.6-0.8,1.4-1.2,2.2-1.2c1.4,0,2.5,1,2.5,2.4c0,1.6-1.1,2.6-2.5,2.6c-0.4,0-0.7-0.1-1.1-0.2c-0.6,1.4-0.9,3.3-0.9,4.5h-2.6
		c0-1.1-0.5-2.3-1-3.5c-0.5-1.3-1.1-2.6-1.1-4c0-3.3,2.8-5.2,6.4-5.2c4.5,0,6.3,2.2,6.3,5.1v7.6H494V390.5z M489.1,391.5
		c0,0.7,0.7,1.1,1.2,1.1c0.7,0,1.4-0.4,1.4-1.4c0-0.7-0.5-1.4-1.3-1.4C489.7,389.8,489.1,390.6,489.1,391.5z"/>
	<path class="st12" d="M493,378.4c2.7,0,4.3,1.9,4.3,4.2c0,0.6-0.1,1.2-0.4,1.8c-2.5-1.6-4.8-2.4-8.2-2.2
		C488.9,379.8,490.6,378.4,493,378.4z M496.3,383c-0.1-1.5-1.9-2.8-3.5-2.8c-1.1,0-1.9,0.3-2.5,1C492.4,381.4,494.3,381.9,496.3,383
		z"/>
	<path class="st12" d="M512.9,398h-2.5v-7.6c0-2.5-1.6-3.9-3.9-3.9c-2.6,0-3.9,1.4-3.9,3.8c0,1,0.3,1.8,0.7,2.7
		c0.3,0.9,0.8,1.9,1.1,3h0.1c0.3-0.8,0.9-1.6,1.7-2.5c-1.2-0.3-2-1.1-2-2.3c0-1.5,1.2-2.4,2.5-2.4c1.4,0,2.6,0.9,2.6,2.6
		c0,1.3-0.9,2.4-1.7,3.4c-0.8,0.9-1.6,1.9-2.1,3.1h-2.7c-0.2-1.2-0.8-2.3-1.4-3.4c-0.7-1.2-1.3-2.4-1.3-4.1c0-3.3,2.8-5.2,6.5-5.2
		c4.6,0,6.4,2.2,6.4,5.1V398z M508,391.1c0-0.7-0.6-1.2-1.3-1.2c-0.9,0-1.4,0.7-1.4,1.3c0,1.1,1,1.5,1.6,1.5
		C507,392.7,508,391.9,508,391.1z"/>
	<path class="st12" d="M519.6,393.3c0.4-0.2,0.9-0.3,1.3-0.3c1.4,0,2.4,1,2.4,2.5c0,1.6-1.2,2.8-2.9,2.8c-2,0-3.4-1.3-3.4-3.8v-3.8
		c0-1.4,0-2.7-0.1-4.1l2.1-1h0.5V393.3z M519.4,395.4c0,1.2,0.5,1.7,1.4,1.7c0.8,0,1.4-0.7,1.4-1.6c0-1.1-0.7-1.5-1.4-1.5
		c-0.5,0-0.9,0.2-1.1,0.5C519.4,394.8,519.4,395.1,519.4,395.4z"/>
	<path class="st12" d="M537.3,376.8h0.3v17.6c0,3.1-1.5,3.6-4.6,3.6h-5.9l0.2-1.4h1.7v-6.2c-0.4,0.2-0.7,0.2-1.1,0.2
		c-1.3,0-2.5-0.9-2.5-2.5c0-1.8,1.4-2.8,2.9-2.8c1,0,3.3,0.4,3.3,3.8v7.5h0.5c2.2,0,3-0.1,3-2.4v-12.6c0-0.8,0-1.8-0.1-3.9
		L537.3,376.8z M529.4,387.9c0-0.9-0.5-1.5-1.3-1.5c-0.9,0-1.5,0.7-1.5,1.5c0,1.1,0.7,1.5,1.4,1.5c0.4,0,0.8-0.2,1.1-0.5
		C529.3,388.7,529.4,388.3,529.4,387.9z"/>
	<path class="st12" d="M535,381.8c0.3-1,1.1-1.1,1.5-1.1c1.1,0,1.7,0.8,1.7,1.6c0,1-0.7,1.7-1.8,1.7c-1.3,0-1.7-1.1-3-1.8v1.2
		l-0.6,0.5c-1.6-1.1-2.3-2.1-2.3-3.2c0-1.5,0.8-2.8,2.6-2.8c1.6,0,3.1,1.3,3.8,1.3c0.5,0,0.7-0.3,1-1l0.8,0.7
		c-0.2,0.9-0.9,1.4-1.7,1.4c-0.9,0-2.3-0.7-3.6-0.7c-1.1,0-1.6,0.7-1.6,1.5c0,0.5,0.3,1.1,0.9,1.5l0,0v-1.7l0.5-0.4
		C533.9,381,534.3,381.2,535,381.8z M536.5,383.2c0.5,0,0.8-0.4,0.8-0.9c0-0.4-0.3-0.8-0.8-0.8c-0.6,0-1,0.6-0.8,1.2
		C535.9,383.2,536.3,383.2,536.5,383.2z"/>
	<path class="st12" d="M544.3,390.4c-0.4,0.1-0.8,0.2-1.1,0.2c-1.4,0-2.6-0.8-2.6-2.5c0-1.6,1.2-2.8,2.8-2.8c2,0,3.4,1.2,3.4,4v6.5
		c1.2-1.3,2.5-2.3,3.9-2.9v-2.5c0-0.8,0-1.8-0.1-3.9l2.3-1h0.3v6.5c0.2,0,0.4,0,0.6,0c1.7,0,2.9,1.2,2.9,2.9c0,1.8-1.3,3.3-3.1,3.3
		c-1.8,0-3-1.2-3-3.4c0-0.1,0-0.2,0-0.5c-1.8,1-3.2,2.5-3.9,3.7h-2.5V390.4z M544.6,388.2c0-1.2-0.5-1.7-1.3-1.7
		c-0.9,0-1.4,0.7-1.4,1.6c0,1,0.7,1.5,1.4,1.5c0.4,0,0.8-0.1,1.1-0.4C544.6,388.8,544.6,388.5,544.6,388.2z M553.3,393.6
		c-0.1,0.3-0.1,0.8-0.1,1.3c0,1,0.2,2,1.1,2c0.9,0,1.1-1,1.1-1.7c0-0.9-0.6-1.7-1.5-1.7C553.8,393.5,553.6,393.5,553.3,393.6z"/>
	<path class="st12" d="M595.8,398v-10.5h-3.6v-1.6c2.1,0,3.5-1.2,3.8-2.8h2V398H595.8z"/>
	<path class="st12" d="M603.9,398v-10.5h-3.6v-1.6c2.1,0,3.5-1.2,3.8-2.8h2V398H603.9z"/>
	<path class="st12" d="M610.8,394.9c0.9,0,1.6,0.7,1.6,1.6s-0.7,1.6-1.6,1.6s-1.6-0.7-1.6-1.6S609.9,394.9,610.8,394.9z"/>
	<path class="st12" d="M617,393.3c0.1,1.8,1.5,3.1,3.4,3.1c1.8,0,3.2-1.2,3.2-3c0-2-1.5-3.1-3.2-3.1c-1.1,0-2.1,0.4-2.7,1.1
		c-0.8-0.3-1.4-0.6-2.2-0.9l1.9-7.4h7.9v2.1h-6.4l-1.1,4.3c0.7-0.7,1.9-1.1,3-1.1c2.9,0,5.1,1.9,5.1,4.9c0,2.8-2.2,5.1-5.5,5.1
		c-3.2,0-5.3-2.1-5.5-4.4L617,393.3z"/>
	<path class="st12" d="M631.3,383c2,0,3.7,1.6,3.7,3.6c0,2-1.7,3.6-3.7,3.6s-3.7-1.6-3.7-3.6C627.7,384.5,629.4,383,631.3,383z
		 M629.5,398l10.7-14.9h2.1L631.6,398H629.5z M631.3,388.4c1,0,1.8-0.8,1.8-1.8c0-1-0.8-1.8-1.8-1.8c-1,0-1.8,0.8-1.8,1.8
		C629.6,387.6,630.3,388.4,631.3,388.4z M640.4,391c2,0,3.7,1.6,3.7,3.6c0,2-1.7,3.6-3.7,3.6s-3.7-1.6-3.7-3.6
		C636.8,392.5,638.5,391,640.4,391z M640.4,396.4c1,0,1.8-0.8,1.8-1.8c0-1-0.8-1.8-1.8-1.8c-1,0-1.8,0.8-1.8,1.8
		C638.7,395.6,639.5,396.4,640.4,396.4z"/>
</g>
<g>
	<path class="st12" d="M321.8,478.3c-0.4,0.1-0.7,0.2-1.1,0.2c-1.4,0-2.5-1-2.5-2.6c0-1.7,1.2-2.7,2.9-2.7c0.9,0,3.2,0.4,3.2,3.7v2
		c0,0.5-0.1,1.7-0.1,2.2l0.1,0c1.2-2.9,1.9-4.7,2.2-5.5c0.7-1.5,1.4-2.4,2.7-2.4c1.5,0,2.6,1.3,2.6,3.2v9.5h-2.6v-9.3
		c0-1.1-0.3-1.5-0.6-1.5c-0.4,0-0.7,0.4-1.2,1.5c-0.7,1.6-1.6,4.2-3.4,9.3h-2.3V478.3z M322.2,475.9c0-0.9-0.6-1.5-1.3-1.5
		c-0.9,0-1.4,0.7-1.4,1.5c0,1,0.7,1.5,1.4,1.5c0.4,0,0.9-0.2,1.2-0.5C322.1,476.7,322.2,476.3,322.2,475.9z"/>
	<path class="st12" d="M330,493.1v-2.2c-0.2,0.1-0.4,0.1-0.7,0.1c-0.9,0-1.8-0.7-1.8-1.9c0-1,0.8-2,2.1-2c0.7,0,2,0.4,2,2.2v3.8H330
		z M330.4,489.2c0-0.5-0.2-1-0.9-1c-0.6,0-1,0.4-1,1c0,0.6,0.5,0.9,0.9,0.9c0.3,0,0.6-0.2,0.9-0.4
		C330.4,489.6,330.4,489.4,330.4,489.2z"/>
	<path class="st12" d="M343.4,486.2c0.1-2,0.1-3.4,0.1-4.2v-3.8c0-3-1.6-3.6-2.9-3.6s-2.2,0.7-2.5,1.9l2.8,0.5l-0.5,1.2
		c-1.2,0.2-1.5,0.9-1.5,2.3v5.5h-2.5v-5.2c0-1.4,0.3-2.2,1.8-2.8l0-0.1l-2.7-0.5c0.2-1.8,1.5-4.1,5.3-4.1c1.9,0,5.2,0.7,5.2,4.6v7.4
		l-2,0.9H343.4z"/>
	<path class="st12" d="M348,475.3c1.5-1.3,2.9-1.9,4.8-1.9c2.6,0,5.2,1.3,5.2,4.4v5.1c0,2.1-1.3,3.4-3.3,3.4c-1.6,0-2.8-1-2.8-2.6
		c0-1.6,1.2-2.7,2.6-2.7c0.4,0,0.7,0.1,1,0.2V478c0-2-1.1-3.3-2.9-3.3c-1.4,0-2.6,0.6-3.7,1.6L348,475.3z M354.6,482
		c-0.9,0-1.4,0.7-1.4,1.6c0,1,0.7,1.6,1.4,1.6c0.7,0,1.3-0.5,1.3-1.7c0-0.3-0.1-0.6-0.2-0.9C355.4,482.2,355,482,354.6,482z"/>
	<path class="st12" d="M361.3,467.8c-0.7,2.7-2.8,4.2-5.3,4.2c-1.8,0-3.6-0.8-3.6-2.6c0-1.1,0.9-2,2.1-2c1.3,0,2,1,2,1.9
		c0,0.6-0.2,1.2-0.8,1.6v0.1c1.7,0.2,2.8-0.9,3.2-3.2H361.3z M354.4,470.7c0.8-0.2,1-0.8,1-1.3c0-0.6-0.5-1-0.9-1c-0.7,0-1,0.5-1,1
		C353.4,469.9,353.7,470.5,354.4,470.7z"/>
	<path class="st12" d="M364.4,478.4c-0.4,0.1-0.8,0.2-1.1,0.2c-1.4,0-2.6-0.8-2.6-2.5c0-1.6,1.2-2.8,2.8-2.8c2,0,3.4,1.2,3.4,4v6.5
		c1.2-1.3,2.5-2.3,3.9-2.9v-2.5c0-0.8,0-1.8-0.1-3.9l2.3-1h0.3v6.5c0.2,0,0.4,0,0.6,0c1.7,0,2.9,1.2,2.9,2.9c0,1.8-1.3,3.3-3.1,3.3
		c-1.8,0-3-1.2-3-3.4c0-0.1,0-0.2,0-0.5c-1.8,1-3.2,2.5-3.9,3.7h-2.5V478.4z M364.7,476.2c0-1.2-0.5-1.7-1.3-1.7
		c-0.9,0-1.3,0.8-1.3,1.6c0,1,0.7,1.5,1.4,1.5c0.4,0,0.8-0.1,1.1-0.4C364.7,476.8,364.7,476.5,364.7,476.2z M373.4,481.6
		c-0.1,0.3-0.1,0.8-0.1,1.3c0,1,0.2,2,1.1,2c0.9,0,1.1-1,1.1-1.7c0-0.9-0.6-1.7-1.5-1.7C373.9,481.5,373.7,481.5,373.4,481.6z"/>
	<path class="st12" d="M395.2,478.5c0-2.5-1.6-3.9-3.8-3.9c-2.4,0-3.8,1.5-3.8,4.2c0,1,0.4,2.1,0.6,3h0.1c0.2-1.8,0.5-3,1.1-3.8
		c0.6-0.8,1.4-1.2,2.2-1.2c1.4,0,2.5,1,2.5,2.4c0,1.6-1.1,2.6-2.5,2.6c-0.4,0-0.7-0.1-1.1-0.2c-0.6,1.4-0.9,3.3-0.9,4.5h-2.5
		c0-1.1-0.5-2.3-1-3.5c-0.5-1.3-1.1-2.6-1.1-4c0-3.3,2.8-5.2,6.4-5.2c4.5,0,6.3,2.2,6.3,5.1v7.6h-2.5V478.5z M390.3,479.5
		c0,0.7,0.7,1.1,1.2,1.1c0.7,0,1.4-0.4,1.4-1.4c0-0.7-0.5-1.3-1.3-1.3C390.9,477.8,390.3,478.6,390.3,479.5z"/>
	<path class="st12" d="M394.1,466.4c2.7,0,4.3,1.9,4.3,4.2c0,0.6-0.1,1.2-0.4,1.8c-2.5-1.6-4.8-2.4-8.2-2.2
		C390.1,467.8,391.8,466.4,394.1,466.4z M397.4,471c-0.1-1.5-1.9-2.8-3.5-2.8c-1.1,0-1.9,0.3-2.5,1
		C393.6,469.4,395.5,469.9,397.4,471z"/>
	<path class="st12" d="M414.1,486h-2.5v-7.6c0-2.5-1.6-3.9-3.9-3.9c-2.6,0-3.9,1.4-3.9,3.8c0,1,0.3,1.8,0.7,2.7
		c0.3,0.9,0.8,1.9,1.1,3h0.1c0.3-0.8,0.9-1.7,1.7-2.5c-1.2-0.3-2-1.1-2-2.3c0-1.5,1.2-2.4,2.5-2.4c1.4,0,2.6,0.9,2.6,2.5
		c0,1.3-0.9,2.4-1.7,3.5c-0.8,0.9-1.6,1.9-2.1,3.1h-2.7c-0.2-1.2-0.8-2.3-1.4-3.4c-0.7-1.2-1.3-2.4-1.3-4.1c0-3.3,2.8-5.2,6.5-5.2
		c4.6,0,6.4,2.2,6.4,5.1V486z M409.1,479.1c0-0.7-0.6-1.2-1.3-1.2c-0.9,0-1.4,0.7-1.4,1.3c0,1.1,1,1.5,1.6,1.5
		C408.2,480.7,409.1,479.9,409.1,479.1z"/>
	<path class="st12" d="M420.8,481.3c0.4-0.2,0.9-0.3,1.3-0.3c1.4,0,2.4,1,2.4,2.5c0,1.6-1.2,2.8-2.9,2.8c-2,0-3.4-1.3-3.4-3.8v-3.8
		c0-1.4,0-2.7-0.1-4.1l2.1-1h0.5V481.3z M420.5,483.4c0,1.2,0.5,1.7,1.4,1.7c0.8,0,1.4-0.7,1.4-1.6c0-1.1-0.7-1.5-1.4-1.5
		c-0.5,0-0.9,0.2-1.1,0.5C420.6,482.8,420.5,483.1,420.5,483.4z"/>
	<path class="st12" d="M438.5,464.8h0.3v17.6c0,3.1-1.5,3.6-4.6,3.6h-5.9l0.2-1.4h1.7v-6.2c-0.4,0.2-0.7,0.2-1.1,0.2
		c-1.3,0-2.5-0.9-2.5-2.5c0-1.8,1.4-2.8,2.9-2.8c1,0,3.3,0.4,3.3,3.8v7.5h0.5c2.2,0,3-0.2,3-2.4v-12.6c0-0.8,0-1.8-0.1-3.9
		L438.5,464.8z M430.6,475.9c0-0.9-0.5-1.5-1.3-1.5c-0.9,0-1.5,0.7-1.5,1.5c0,1,0.7,1.5,1.4,1.5c0.4,0,0.8-0.2,1.1-0.5
		C430.5,476.7,430.6,476.3,430.6,475.9z"/>
	<path class="st12" d="M436.1,469.8c0.3-1,1.1-1.1,1.5-1.1c1.1,0,1.7,0.8,1.7,1.6c0,1-0.7,1.7-1.8,1.7c-1.3,0-1.7-1.1-3-1.8v1.2
		l-0.6,0.5c-1.6-1.1-2.3-2.1-2.3-3.2c0-1.5,0.8-2.8,2.6-2.8c1.6,0,3.1,1.3,3.8,1.3c0.5,0,0.7-0.3,1-1l0.8,0.7
		c-0.2,0.9-0.9,1.4-1.7,1.4c-0.9,0-2.3-0.7-3.6-0.7c-1.1,0-1.6,0.7-1.6,1.5c0,0.5,0.3,1.1,0.9,1.5l0,0v-1.7l0.5-0.4
		C435.1,469,435.5,469.2,436.1,469.8z M437.6,471.2c0.5,0,0.8-0.4,0.8-0.9c0-0.4-0.3-0.8-0.8-0.8c-0.6,0-1,0.6-0.8,1.2
		C437.1,471.2,437.4,471.2,437.6,471.2z"/>
	<path class="st12" d="M445.5,478.4c-0.4,0.1-0.8,0.2-1.1,0.2c-1.4,0-2.6-0.8-2.6-2.5c0-1.6,1.2-2.8,2.8-2.8c2,0,3.4,1.2,3.4,4v6.5
		c1.2-1.3,2.5-2.3,3.9-2.9v-2.5c0-0.8,0-1.8-0.1-3.9l2.3-1h0.3v6.5c0.2,0,0.4,0,0.6,0c1.7,0,2.9,1.2,2.9,2.9c0,1.8-1.3,3.3-3.1,3.3
		c-1.8,0-3-1.2-3-3.4c0-0.1,0-0.2,0-0.5c-1.8,1-3.2,2.5-3.9,3.7h-2.5V478.4z M445.8,476.2c0-1.2-0.5-1.7-1.3-1.7
		c-0.9,0-1.3,0.8-1.3,1.6c0,1,0.7,1.5,1.4,1.5c0.4,0,0.8-0.1,1.1-0.4C445.7,476.8,445.8,476.5,445.8,476.2z M454.5,481.6
		c-0.1,0.3-0.1,0.8-0.1,1.3c0,1,0.2,2,1.1,2c0.9,0,1.1-1,1.1-1.7c0-0.9-0.6-1.7-1.5-1.7C454.9,481.5,454.7,481.5,454.5,481.6z"/>
	<path class="st12" d="M592.8,486v-10.5h-3.6v-1.6c2.1,0,3.5-1.2,3.8-2.8h2V486H592.8z"/>
	<path class="st12" d="M607.8,473.3c-1.4,1.1-5.6,4.9-6.3,12.7h-2.3c0.7-8.7,6.1-12.8,6.1-12.8H597v-2.1h10.9V473.3z"/>
	<path class="st12" d="M612.9,471c2,0,3.7,1.6,3.7,3.6c0,2-1.7,3.6-3.7,3.6s-3.7-1.6-3.7-3.6C609.2,472.5,610.9,471,612.9,471z
		 M611.1,486l10.7-14.9h2.1L613.2,486H611.1z M612.9,476.4c1,0,1.8-0.8,1.8-1.8c0-1-0.8-1.8-1.8-1.8c-1,0-1.8,0.8-1.8,1.8
		C611.1,475.6,611.9,476.4,612.9,476.4z M622,479c2,0,3.7,1.6,3.7,3.6c0,2-1.7,3.6-3.7,3.6s-3.7-1.6-3.7-3.6
		C618.3,480.5,620,479,622,479z M622,484.4c1,0,1.8-0.8,1.8-1.8c0-1-0.8-1.8-1.8-1.8c-1,0-1.8,0.8-1.8,1.8
		C620.2,483.6,621,484.4,622,484.4z"/>
</g>
</svg>