<!-- Generator: Adobe Illustrator 19.0.0, SVG Export Plug-In  -->
<svg version="1.1"
	 xmlns="http://www.w3.org/2000/svg" xmlns:xlink="http://www.w3.org/1999/xlink" xmlns:a="http://ns.adobe.com/AdobeSVGViewerExtensions/3.0/"
	 x="0px" y="0px" width="334.7px" height="536.2px" viewBox="0 0 334.7 536.2" style="enable-background:new 0 0 334.7 536.2;"
	 xml:space="preserve">
<style type="text/css">
	.st0{fill:none;stroke:#ED6A4A;stroke-width:5.8709;stroke-miterlimit:10;}
	.st1{fill:#33CCCC;stroke:#33CCCC;stroke-width:1.994;stroke-miterlimit:10;}
	.st2{fill:#FF6633;}
	.st3{fill:#9D9FA0;}
	.st4{fill:#E3E3E3;}
	.st5{fill:#FFFFFF;}
	.st6{fill:#086A87;}
</style>
<defs>
</defs>
<path class="st0" d="M177,2.9c-35.3,0-64,28.6-64,64v91.3h128V66.9C240.9,31.6,212.3,2.9,177,2.9z"/>
<rect x="1" y="123" class="st1" width="332.7" height="144.1"/>
<rect x="0" y="267.6" class="st2" width="334.6" height="102.9"/>
<rect x="0" y="370" class="st3" width="334.6" height="75.9"/>
<rect x="0" y="445.9" class="st4" width="334.6" height="56.5"/>
<rect x="0" y="497.1" class="st3" width="334.6" height="39.1"/>
<g>
	<path class="st5" d="M54.4,202.9c0,0-0.3,0.3-1,1.1h-0.3c-0.8-0.9-1-1.1-1.1-1.1c-0.3,0-0.9,0.8-0.9,1.8c0,0.2,0,0.3,0.1,0.5
		c0.4-0.6,0.9-0.9,1.5-0.9c1,0,1.7,0.8,1.7,1.8c0,1.1-0.9,1.8-2,1.8c-1.7,0-2.6-1.5-2.6-3.1c0-1.9,1.4-3,2.5-3c0.1,0,0.3,0.3,1,1h0
		c0.7-0.8,0.8-1,0.9-1c0.7,0,2.8,0.4,3,2.4c1.5-0.3,1.9-1.5,2.1-2.9h2.1c-0.2,1.7-1.1,2.6-2.6,3.2v0c2.1,0.4,2.4,1.6,2.4,2.8v2.7
		c0,2.2-1.5,2.4-3.3,2.4h-4.3l0.1-1.1h1.4v-6.7C55.3,203.2,54.5,202.9,54.4,202.9z M52.6,207.2c0.5,0,1-0.4,1-1c0-0.5-0.4-1-1-1
		c-0.6,0-1,0.5-1.1,1.1C51.7,206.8,52.1,207.2,52.6,207.2z M57.6,211.4c1.3,0,1.6-0.3,1.6-1.6v-2.5c0-1.1-0.2-1.7-1.9-2v6.1H57.6z"
		/>
	<path class="st5" d="M57.6,196.2v-1.7l1.1-0.5h0.2v2.1c0.4,0,0.8,0.2,1.1,0.3v-2l1.1-0.5h0.2v3.5c0.4,0.6,0.6,1.3,0.6,2.1
		c0,0.5-0.1,1-0.3,1.5c-2.1-1.4-4-2-6.8-1.9C55,197.6,56.1,196.5,57.6,196.2z M61.1,199.9c-0.1-1.3-1.6-2.3-2.9-2.3
		c-0.9,0-1.6,0.3-2,0.9C57.9,198.6,59.5,199,61.1,199.9z"/>
	<path class="st5" d="M56.5,199.9c0.4-0.1,1-0.3,1.3-0.7c-0.8-0.1-1.5-0.7-1.5-1.5c0-1,0.7-1.6,1.7-1.6c1,0,1.6,0.8,1.6,1.6
		c0,0.6-0.3,1.3-0.9,1.8l0,0.1c1.6-0.4,2.2-1.7,2.3-3.3h2c-0.3,1.6-1,2.8-2.4,3.6c-0.9,0.5-2.2,0.7-4.1,0.8L56.5,199.9z M57.9,196.9
		c-0.5,0-0.8,0.3-0.8,0.8c0,0.5,0.4,0.9,0.9,0.9c0.5,0,0.7-0.4,0.7-0.9C58.8,197.3,58.4,196.9,57.9,196.9z"/>
	<path class="st5" d="M64.3,203.6c1.3-1.1,2.6-1.7,4.2-1.7c2.2,0,4.3,1.1,4.3,3.7v3.5c0,2.9-1.8,3.6-4.2,3.6c-2.5,0-4-1-4-3.1v-1.9
		c0-1.6,1-3,2.7-3c1.6,0,2.2,1.1,2.2,2c0,1.4-0.9,2.2-1.9,2.2c-0.3,0-0.6,0-0.9-0.2v1c0,1.4,0.7,2,2,2c1.3,0,2-0.5,2-2v-3.9
		c0-1.6-0.8-2.7-2.4-2.7c-1.2,0-2.3,0.5-3.2,1.4L64.3,203.6z M67.4,208.1c0.7,0,1.1-0.5,1.1-1.2c0-0.7-0.4-1.3-1.1-1.3
		c-0.7,0-0.9,0.6-0.9,1.3c0,0.3,0,0.6,0.2,1C66.9,208.1,67.2,208.1,67.4,208.1z"/>
	<path class="st5" d="M82.4,212.6c0-1.7,0-2.8,0-3.5V206c0-2.5-1.4-3-2.4-3c-1,0-1.8,0.5-2.1,1.6l2.3,0.4l-0.4,1
		c-1,0.2-1.3,0.7-1.3,1.9v4.6h-2.1v-4.3c0-1.1,0.3-1.8,1.5-2.3l0-0.1l-2.3-0.4c0.2-1.5,1.3-3.4,4.4-3.4c1.6,0,4.3,0.5,4.3,3.8v6.2
		l-1.7,0.7H82.4z"/>
	<path class="st5" d="M87.5,197.3c-0.5,2.3-2.3,3.5-4.4,3.5c-1.5,0-3-0.6-3-2.1c0-0.9,0.7-1.7,1.7-1.7c1.1,0,1.6,0.8,1.6,1.6
		c0,0.5-0.2,1-0.7,1.3v0c1.5,0.1,2.4-0.7,2.7-2.7H87.5z M81.8,199.7c0.6-0.2,0.8-0.7,0.8-1.1c0-0.5-0.4-0.8-0.8-0.8
		c-0.5,0-0.9,0.4-0.9,0.9C81,199,81.2,199.5,81.8,199.7z"/>
	<path class="st5" d="M89.2,206.4c-1.1,0-2.1-0.8-2.1-2.1c0-1.5,1.1-2.4,2.4-2.4c0.8,0,2.7,0.3,2.7,3.2v6.2h0.5c1.8,0,2.5-0.1,2.5-2
		v-3.2c0-0.7,0-1.5,0-3.2l1.9-0.8h0.3v7.3c0,2.6-1.2,3-3.8,3h-4.9l0.2-1.1h1.4v-5.1C89.8,206.3,89.5,206.4,89.2,206.4z M90.4,204
		c0-0.8-0.5-1.2-1.1-1.2c-0.7,0-1.2,0.6-1.2,1.3c0,0.9,0.6,1.3,1.2,1.3c0.4,0,0.7-0.1,1-0.4C90.4,204.7,90.4,204.4,90.4,204z"/>
	<path class="st5" d="M110.4,202.1v8.6c0,1.2-0.2,1.7-1.2,1.7h-0.8l-2.7-4.3l-2.7,3.7c-0.3,0.4-0.4,0.6-0.9,0.6h-1.4v-7.6
		c0-1.6,1.1-3,2.9-3c1.7,0,2.3,1.1,2.3,2c0,1.5-1,2.2-2.1,2.2c-0.3,0-0.6,0-1-0.2v2.7c0,0.6-0.1,1.1-0.2,1.8l0.1,0l3-4h0.2l2.6,3.9
		l0.1,0c-0.1-0.6-0.2-1.2-0.2-1.8v-2.5c0-0.7,0-1.5,0-3.2l1.9-0.8H110.4z M103.6,205.4c0.7,0,1.2-0.5,1.2-1.2c0-0.8-0.4-1.3-1.2-1.3
		c-0.8,0-1,0.6-1,1.3c0,0.3,0,0.6,0.2,0.9C103,205.3,103.3,205.4,103.6,205.4z"/>
	<path class="st5" d="M110.1,213.5h0.1v2.8c0,2-0.8,2.1-2.5,2.1h-2.6l0.1-0.8h0.9v-1.2c-0.2,0.1-0.5,0.2-0.7,0.2
		c-0.8,0-1.5-0.5-1.5-1.5c0-0.9,0.6-1.6,1.7-1.6c0.5,0,1.7,0.3,1.7,1.8v2.3h0.2c0.9,0,1.3,0,1.3-1.2V214L110.1,213.5z M106.3,215.1
		c0-0.4-0.2-0.9-0.7-0.9c-0.5,0-0.8,0.3-0.8,0.8c0,0.5,0.3,0.8,0.8,0.8c0.3,0,0.5-0.1,0.7-0.3C106.3,215.4,106.3,215.2,106.3,215.1z
		"/>
	<path class="st5" d="M105.6,199.9c0.4-0.1,1-0.3,1.3-0.7c-0.8-0.1-1.5-0.7-1.5-1.5c0-1,0.7-1.6,1.7-1.6c1,0,1.6,0.8,1.6,1.6
		c0,0.6-0.3,1.3-0.9,1.8l0,0.1c1.6-0.4,2.2-1.7,2.3-3.3h2c-0.3,1.6-1,2.8-2.4,3.6c-0.9,0.5-2.2,0.7-4.1,0.8L105.6,199.9z M107,196.9
		c-0.5,0-0.8,0.3-0.8,0.8c0,0.5,0.4,0.9,0.9,0.9c0.5,0,0.7-0.4,0.7-0.9C107.9,197.3,107.5,196.9,107,196.9z"/>
	<path class="st5" d="M123,202.1v7.8c0,1.7-1.3,2.8-2.9,2.8c-1.6,0-2.8-1-2.8-2.7v-5.1c0-1.2-0.4-2-1.5-2c-0.7,0-1.3,0.3-1.6,1
		c0.3-0.1,0.5-0.2,0.7-0.2c1,0,1.7,0.7,1.7,1.8c0,1.1-0.9,1.9-1.9,1.9c-1.4,0-2.1-1.1-2.1-2.4c0-2,1.6-3.1,3.5-3.1
		c1.7,0,3.2,1,3.2,2.9v5.8c0,0.6,0.1,1.1,0.8,1.1c0.6,0,0.8-0.6,0.8-1.2v-4.4c0-0.7,0-1.5,0-3.2l1.9-0.8H123z M113.8,205.4
		c0,0.6,0.4,1.2,1,1.2c0.5,0,0.9-0.5,0.9-1c0-0.6-0.5-1-1-1c-0.3,0-0.6,0.1-0.8,0.3C113.8,205,113.8,205.2,113.8,205.4z"/>
	<path class="st5" d="M129.6,212.5v-6.7c0-1.8-0.9-2.5-2.1-2.5c-0.8,0-1.4,0.3-2.1,0.9l-0.7-0.9c0.9-0.9,2.1-1.3,3.2-1.3
		c2,0,3.8,1.2,3.8,3.7v6.9H129.6z"/>
	<path class="st5" d="M143.2,202.1v6.9c0,2.9-1.8,3.6-4.3,3.6c-2.7,0-4.2-1-4.2-2.7v-0.1c0-1.4,1-2,1.7-2.1v-0.1
		c-1.2-0.4-1.7-1.2-1.7-2.6v-0.2c0-1.3,0.9-2.8,2.9-2.8c1.2,0,2.1,0.9,2.1,2c0,1.3-0.9,2-1.9,2c-0.4,0-0.8-0.1-1.1-0.4
		c0,0.8,0.5,1.3,1.6,1.3h0.8v1.3h-1c-0.8,0-1.3,0.4-1.3,1.4v0.3c0,1.4,1,1.7,2.2,1.7c1.3,0,2-0.5,2-2.1v-3.5c0-0.7,0-1.5,0-3.2
		l1.9-0.8H143.2z M137.7,205.1c0.6,0,1.1-0.4,1.1-1.1c0-0.6-0.3-1.2-1-1.2c-0.7,0-1,0.5-1,1.2C136.8,204.8,137.2,205.1,137.7,205.1z
		"/>
	<path class="st5" d="M145.7,194.8c1.5,0,2.6,1,3.4,1c0.3,0,0.7-0.1,1.1-0.5l0.5,0.8c-0.6,0.8-1.3,1.1-2.1,1.1
		c-1.3,0-2.4-0.8-3.6-0.8c-0.3,0-0.8,0.2-0.8,0.8c0,0.1,0,0.1,0,0.2c5,0.1,4.9,1.8,4.9,3.8v7.3c0.3-0.2,0.7-0.3,1.1-0.3
		c1.2,0,2,0.9,2,2.1c0,1.3-1,2.3-2.3,2.3c-1.7,0-2.8-1.1-2.8-3.2v-8.4c0-2.1-0.3-2.5-4.1-2.7C142.6,196.4,143.7,194.8,145.7,194.8z
		 M148.7,210.3c0,1,0.4,1.4,1.1,1.4c0.7,0,1.1-0.6,1.1-1.3c0-0.9-0.6-1.3-1.2-1.3c-0.4,0-0.7,0.1-0.9,0.4
		C148.8,209.7,148.7,210,148.7,210.3z"/>
	<path class="st5" d="M164.9,212.5h-2.1v-6.3c0-2.1-1.4-3.2-3.3-3.2c-2.2,0-3.2,1.2-3.2,3.2c0,0.9,0.3,1.5,0.5,2.3
		c0.3,0.8,0.6,1.6,0.9,2.5h0.1c0.3-0.6,0.7-1.4,1.4-2.1c-1-0.3-1.6-0.9-1.6-1.9c0-1.3,1-2,2.1-2c1.1,0,2.1,0.8,2.1,2.1
		c0,1.1-0.8,2-1.4,2.9c-0.6,0.8-1.4,1.6-1.7,2.6h-2.2c-0.2-1-0.7-1.9-1.2-2.8c-0.5-1-1.1-2-1.1-3.4c0-2.7,2.3-4.3,5.4-4.3
		c3.8,0,5.3,1.8,5.3,4.2V212.5z M160.7,206.7c0-0.5-0.5-1-1-1c-0.8,0-1.1,0.6-1.1,1.1c0,1,0.9,1.2,1.3,1.2
		C160,208,160.7,207.4,160.7,206.7z"/>
	<path class="st5" d="M176.3,202.1v6.9c0,2.9-1.8,3.6-4.3,3.6c-2.7,0-4.2-1-4.2-2.7v-0.1c0-1.4,1-2,1.7-2.1v-0.1
		c-1.2-0.4-1.7-1.2-1.7-2.6v-0.2c0-1.3,0.9-2.8,2.9-2.8c1.2,0,2.1,0.9,2.1,2c0,1.3-0.9,2-1.9,2c-0.4,0-0.8-0.1-1.1-0.4
		c0,0.8,0.5,1.3,1.6,1.3h0.9v1.3h-1c-0.8,0-1.3,0.4-1.3,1.4v0.3c0,1.4,1,1.7,2.2,1.7c1.3,0,2-0.5,2-2.1v-3.5c0-0.7,0-1.5,0-3.2
		l1.9-0.8H176.3z M170.8,205.1c0.7,0,1.1-0.4,1.1-1.1c0-0.6-0.3-1.2-1-1.2c-0.7,0-1,0.5-1,1.2C169.9,204.8,170.3,205.1,170.8,205.1z
		"/>
	<path class="st5" d="M181.5,212.5c-0.1-0.8-0.6-1.8-1.1-2.8c-0.6-1.1-1.1-2.2-1.1-3.4c0-2.7,2.3-4.1,4-4.1c0.2,0,0.3,0,1.4,1h0
		c1.1-0.8,1.2-1,1.3-1c0.7,0,3.8,0.2,3.8,3.9v6.4h-2.1v-6.7c0-2.4-1.2-2.6-1.3-2.6c-0.1,0-0.8,0.6-1.7,1.3h-0.1
		c-1.1-0.8-1.7-1.3-1.7-1.3c-0.2,0-1.5,0.9-1.5,2.8c0,0.9,0.3,1.8,0.6,2.7c0.3,0.7,0.6,1.4,0.8,2.1h0c0.3-0.6,0.8-1.3,1.4-2
		c-1-0.3-1.6-0.9-1.6-1.9c0-1.3,1-2,2.1-2c1.1,0,2.1,0.8,2.1,2.1c0,1.1-0.8,2-1.4,2.9c-0.6,0.8-1.4,1.6-1.8,2.6H181.5z M185.8,206.7
		c0-0.5-0.5-1-1-1c-0.8,0-1.1,0.6-1.1,1c0,0.9,0.8,1.2,1.3,1.2C185,208,185.8,207.4,185.8,206.7z"/>
	<path class="st5" d="M192,204.8c0-2.3,1.6-3.4,3-3.4c0.9,0,1.5,0.3,2.1,0.6c0.4,0.2,0.8,0.4,1.2,0.4c0.4,0,0.8-0.3,1-0.6l0.6,0.8
		c-0.7,0.9-1.4,1.2-2.1,1.2c-0.8,0-1.4-0.2-2-0.5c-0.5-0.2-1.1-0.4-1.6-0.4c-0.5,0-0.9,0.3-0.9,0.7c0,0.1,0,0.3,0.1,0.4
		c2.6,0.2,4.3,0.5,5.1,1.1c0.8,0.6,0.8,1.1,0.8,2.5v2.1c0,1.7-1.1,2.8-2.8,2.8c-1.3,0-2.4-0.9-2.4-2.2c0-1.3,1-2.2,2.2-2.2
		c0.3,0,0.6,0.1,0.8,0.2v-1.1c0-1.4-0.8-1.9-5.3-2.2C192,205,192,204.9,192,204.8z M196.6,209.1c-0.7,0-1.2,0.6-1.2,1.3
		c0,0.8,0.6,1.3,1.2,1.3c0.5,0,1.1-0.5,1.1-1.4c0-0.3-0.1-0.5-0.1-0.8C197.3,209.3,196.9,209.1,196.6,209.1z"/>
	<path class="st5" d="M206,206.2c-1.1,0-2.2-0.7-2.2-2c0-1.2,0.9-2.3,2.4-2.3c0.8,0,2.7,0.3,2.7,3.1v4.9c0,1.9-0.1,2.6-1.8,2.6h-1.4
		c-1.5-2.1-3.8-4.7-5.4-5.7l0.7-1c1.9,1.3,4.2,3.8,5.4,5.5c0.4,0,0.5-0.2,0.5-1.1v-4.1C206.6,206.2,206.3,206.2,206,206.2z
		 M207.2,204.2c0-0.7-0.3-1.4-1.1-1.4c-0.7,0-1.2,0.5-1.2,1.3c0,0.8,0.6,1.2,1.3,1.2c0.3,0,0.6-0.1,0.8-0.3
		C207.1,204.8,207.2,204.5,207.2,204.2z"/>
	<path class="st5" d="M227.2,199.7c0,1-0.3,1.9-0.9,2.6c-0.6,0.7-1.5,1.2-2.6,1.5v0.1c1.3,0.2,2.3,0.6,3,1.2c0.7,0.6,1,1.5,1,2.6
		c0,1.6-0.6,2.8-1.7,3.7c-1.1,0.9-2.8,1.3-4.9,1.3c-1.8,0-3.4-0.3-4.7-0.9v-3c0.6,0.3,1.3,0.6,2.1,0.8s1.5,0.3,2.3,0.3
		c1.1,0,2-0.2,2.5-0.6c0.5-0.4,0.8-1,0.8-1.9c0-0.8-0.3-1.3-0.9-1.6s-1.6-0.5-3-0.5h-1.2v-2.7h1.3c1.3,0,2.2-0.2,2.8-0.5
		c0.6-0.3,0.9-0.9,0.9-1.7c0-1.2-0.8-1.9-2.3-1.9c-0.5,0-1.1,0.1-1.6,0.3c-0.6,0.2-1.2,0.5-1.9,0.9l-1.6-2.4
		c1.5-1.1,3.3-1.6,5.4-1.6c1.7,0,3,0.3,4,1S227.2,198.5,227.2,199.7z"/>
	<path class="st5" d="M240.9,203c0,3.2-0.7,5.6-2,7.2c-1.4,1.6-3.4,2.4-6.2,2.4c-1,0-1.7-0.1-2.2-0.2v-2.8c0.6,0.2,1.3,0.2,2,0.2
		c1.2,0,2.1-0.2,2.9-0.5c0.7-0.3,1.3-0.9,1.7-1.6c0.4-0.7,0.6-1.7,0.7-3h-0.1c-0.4,0.7-0.9,1.2-1.5,1.5c-0.6,0.3-1.3,0.4-2.1,0.4
		c-1.4,0-2.6-0.5-3.4-1.4c-0.8-0.9-1.2-2.2-1.2-3.8c0-1.8,0.5-3.1,1.5-4.2c1-1,2.4-1.5,4.1-1.5c1.2,0,2.3,0.3,3.2,0.9
		s1.6,1.4,2.1,2.5C240.6,200.3,240.9,201.5,240.9,203z M235,198.6c-0.7,0-1.3,0.2-1.7,0.7s-0.6,1.2-0.6,2.1c0,0.8,0.2,1.4,0.5,1.9
		c0.4,0.5,0.9,0.7,1.7,0.7c0.7,0,1.3-0.2,1.8-0.7c0.5-0.5,0.8-1,0.8-1.6c0-0.9-0.2-1.6-0.7-2.3S235.7,198.6,235,198.6z"/>
	<path class="st5" d="M250.2,200.9c0,1.7-0.3,3-1,3.9c-0.7,0.9-1.6,1.3-2.9,1.3c-1.2,0-2.2-0.4-2.9-1.3c-0.7-0.9-1-2.2-1-3.8
		c0-3.4,1.3-5.1,3.9-5.1c1.3,0,2.2,0.4,2.9,1.3C249.9,198,250.2,199.3,250.2,200.9z M245.2,201c0,1,0.1,1.7,0.3,2.1
		c0.2,0.5,0.4,0.7,0.8,0.7c0.7,0,1.1-0.9,1.1-2.8c0-1.9-0.4-2.8-1.1-2.8c-0.4,0-0.6,0.2-0.8,0.7C245.3,199.3,245.2,200,245.2,201z
		 M258,196l-9.1,16.4h-2.7l9.1-16.4H258z M261.7,207.5c0,1.7-0.3,3-1,3.9c-0.7,0.9-1.6,1.3-2.9,1.3c-1.2,0-2.2-0.4-2.9-1.3
		c-0.7-0.9-1-2.2-1-3.8c0-3.4,1.3-5.1,3.9-5.1c1.3,0,2.2,0.4,2.9,1.3C261.4,204.6,261.7,205.8,261.7,207.5z M256.7,207.5
		c0,1,0.1,1.7,0.3,2.1c0.2,0.5,0.4,0.7,0.8,0.7c0.7,0,1.1-0.9,1.1-2.8c0-1.9-0.4-2.8-1.1-2.8c-0.4,0-0.6,0.2-0.8,0.7
		C256.8,205.9,256.7,206.6,256.7,207.5z"/>
</g>
<g>
	<path class="st6" d="M75,477c0.3-0.2,0.7-0.3,1.1-0.3c1.1,0,1.9,0.9,1.9,2.1c0,1.3-1,2.3-2.3,2.3c-1.6,0-2.8-1.1-2.8-3.2v-3.1
		c0-1.2,0-2.3-0.1-3.4l1.8-0.8H75V477z M74.8,478.7c0,1,0.4,1.4,1.1,1.4c0.6,0,1-0.6,1-1.3c0-0.9-0.5-1.3-1.1-1.3
		c-0.3,0-0.7,0.2-0.9,0.4C74.8,478.2,74.8,478.5,74.8,478.7z M81.3,477c0.3-0.2,0.7-0.3,1.1-0.3c1.1,0,1.9,0.9,1.9,2.1
		c0,1.3-1,2.3-2.3,2.3c-1.6,0-2.8-1.1-2.8-3.2v-3.1c0-1.2,0-2.3,0-3.4l1.8-0.8h0.4V477z M81.1,478.7c0,1,0.4,1.4,1.1,1.4
		c0.6,0,1-0.6,1-1.3c0-0.9-0.5-1.3-1.1-1.3c-0.4,0-0.7,0.2-0.9,0.4C81.1,478.2,81.1,478.5,81.1,478.7z"/>
	<path class="st6" d="M86.4,472c1.3-1.1,2.6-1.7,4.2-1.7c2.2,0,4.3,1.1,4.3,3.7v3.5c0,2.9-1.8,3.6-4.2,3.6c-2.5,0-4-1-4-3.1v-1.9
		c0-1.6,1-3,2.7-3c1.6,0,2.2,1.2,2.2,2c0,1.5-0.9,2.2-1.9,2.2c-0.3,0-0.6-0.1-0.9-0.2v1c0,1.4,0.7,2,2,2c1.3,0,2-0.5,2-2v-3.9
		c0-1.6-0.8-2.7-2.4-2.7c-1.2,0-2.3,0.5-3.2,1.4L86.4,472z M89.5,476.6c0.7,0,1.1-0.5,1.1-1.2c0-0.8-0.4-1.3-1.1-1.3
		c-0.7,0-0.9,0.6-0.9,1.3c0,0.3,0,0.7,0.2,1C89,476.5,89.2,476.6,89.5,476.6z"/>
	<path class="st6" d="M109.1,480.9h-1.3l-2.5-7.4l-1.9,6.1c-0.3,0.7-0.5,1.3-1.4,1.3h-1.5v-6.3c-0.3,0.2-0.6,0.2-0.9,0.2
		c-1.1,0-2.1-0.8-2.1-2.1c0-1.5,1.1-2.4,2.4-2.4c0.8,0,2.7,0.3,2.7,3.2v2.8c0,1.1-0.1,1.8-0.2,2.6l0.1,0l2.6-8h0.4l2.7,8l0.1,0
		c-0.1-0.8-0.1-1.5-0.1-2.6v-1.8c0-0.7,0-1.5-0.1-3.2l1.9-0.8h0.3v8.6C110.3,480.4,110,480.9,109.1,480.9z M100.8,472.5
		c0-0.8-0.4-1.2-1.1-1.2c-0.7,0-1.2,0.6-1.2,1.3c0,0.9,0.6,1.3,1.2,1.3c0.4,0,0.7-0.1,0.9-0.4C100.7,473.1,100.8,472.8,100.8,472.5z
		"/>
	<path class="st6" d="M124.5,480.9h-1.3l-2.5-7.4l-1.9,6.1c-0.3,0.7-0.5,1.3-1.4,1.3h-1.5v-6.3c-0.3,0.2-0.6,0.2-0.9,0.2
		c-1.1,0-2.1-0.8-2.1-2.1c0-1.5,1.1-2.4,2.4-2.4c0.8,0,2.7,0.3,2.7,3.2v2.8c0,1.1-0.1,1.8-0.2,2.6l0.1,0l2.6-8h0.5l2.7,8l0.1,0
		c-0.1-0.8-0.1-1.5-0.1-2.6v-1.8c0-0.7,0-1.5,0-3.2l1.9-0.8h0.3v8.6C125.7,480.4,125.4,480.9,124.5,480.9z M116.2,472.5
		c0-0.8-0.5-1.2-1.1-1.2c-0.7,0-1.2,0.6-1.2,1.3c0,0.9,0.6,1.3,1.2,1.3c0.4,0,0.7-0.1,1-0.4C116.1,473.1,116.2,472.8,116.2,472.5z"
		/>
	<path class="st6" d="M135.3,480.9v-5.1c-0.7-0.7-1.7-1.2-2.5-1.2c-0.8,0-1.6,0.4-1.6,1.8c0,0.2,0,0.4,0,0.6c0.3-0.2,0.6-0.3,1-0.3
		c1.2,0,1.8,0.9,1.8,2.1c0,1.3-0.9,2.2-2.3,2.2c-1.6,0-2.7-1.1-2.7-3.2v-0.8c0-3.2,2.7-3.5,3.6-3.5c0.8,0,1.8,0.3,2.6,0.8v-0.2
		c0-1.7-0.9-2.8-2.4-2.8c-1.2,0-2.3,0.5-3.1,1.3l-0.7-0.9c1.3-1.1,2.5-1.6,4.1-1.6c2.2,0,4.3,1.1,4.3,3.7v6.9H135.3z M131,478.8
		c0,0.8,0.3,1.3,1,1.3c0.7,0,1.1-0.6,1.1-1.3c0-0.9-0.6-1.2-1.1-1.2c-0.4,0-0.7,0.1-0.9,0.4C131,478.3,131,478.6,131,478.8z"/>
	<path class="st6" d="M134.5,464.5c2.2,0,3.6,1.6,3.6,3.5c0,0.5-0.1,1-0.3,1.5c-2.1-1.4-4-2-6.8-1.9
		C131.1,465.7,132.5,464.5,134.5,464.5z M137.2,468.4c-0.1-1.3-1.6-2.3-2.9-2.3c-0.9,0-1.6,0.3-2,0.9
		C134,467.1,135.6,467.4,137.2,468.4z"/>
	<path class="st6" d="M143.1,476.9c0.3-0.2,0.7-0.3,1.1-0.3c1.2,0,2,0.9,2,2.1c0,1.3-1,2.3-2.4,2.3c-1.7,0-2.8-1.1-2.8-3.2v-3.1
		c0-1.2,0-2.3,0-3.4l1.8-0.8h0.4V476.9z M142.9,478.7c0,1,0.4,1.4,1.1,1.4c0.7,0,1.1-0.6,1.1-1.3c0-0.9-0.6-1.3-1.2-1.3
		c-0.4,0-0.7,0.1-0.9,0.4C142.9,478.2,142.9,478.4,142.9,478.7z"/>
	<path class="st6" d="M156.8,474.6c0-2.1-1.3-3.2-3.2-3.2c-2,0-3.1,1.2-3.1,3.5c0,0.8,0.3,1.7,0.5,2.5h0.1c0.2-1.5,0.5-2.5,0.9-3.2
		c0.5-0.7,1.2-1,1.9-1c1.1,0,2,0.9,2,2c0,1.3-0.9,2.2-2.1,2.2c-0.3,0-0.6,0-0.9-0.2c-0.5,1.2-0.7,2.7-0.7,3.7h-2.1
		c0-1-0.5-1.9-0.8-2.9c-0.5-1.1-0.9-2.2-0.9-3.3c0-2.8,2.3-4.3,5.4-4.3c3.8,0,5.2,1.8,5.2,4.2v6.3h-2.1V474.6z M152.7,475.5
		c0,0.6,0.6,0.9,1,0.9c0.5,0,1.2-0.4,1.2-1.2c0-0.6-0.4-1.1-1-1.1C153.2,474,152.7,474.7,152.7,475.5z"/>
	<path class="st6" d="M164.3,479.8h1.4v-6.6c0-1.2-0.4-2-1.5-2c-0.7,0-1.3,0.3-1.6,1c0.3-0.1,0.5-0.2,0.8-0.2c0.9,0,1.7,0.7,1.7,1.8
		c0,1.1-0.9,1.9-1.9,1.9c-1.4,0-2.1-1.1-2.1-2.4c0-2,1.6-3.1,3.5-3.1c1.5,0,2.9,0.8,3.2,2.4c1.5-0.3,1.9-1.5,2.1-2.9h2.1
		c-0.2,1.7-1.1,2.6-2.6,3.2v0c2.1,0.3,2.4,1.6,2.4,2.8v2.7c0,2.2-1.5,2.4-3.3,2.4h-4.3L164.3,479.8z M162.2,473.8
		c0,0.7,0.4,1.2,1,1.2c0.5,0,0.9-0.5,0.9-1c0-0.7-0.5-1-1-1c-0.3,0-0.6,0.1-0.8,0.3C162.2,473.4,162.2,473.6,162.2,473.8z
		 M167.7,479.8h0.3c1.3,0,1.6-0.3,1.6-1.6v-2.5c0-1.1-0.2-1.7-1.9-2V479.8z"/>
	<path class="st6" d="M174.7,465.7c-0.6,2.3-2.3,3.5-4.4,3.5c-1.5,0-3-0.6-3-2.1c0-0.9,0.7-1.7,1.7-1.7c1.1,0,1.6,0.8,1.6,1.6
		c0,0.5-0.1,1-0.6,1.4v0c1.4,0.1,2.4-0.8,2.7-2.7H174.7z M169,468.1c0.6-0.2,0.8-0.7,0.8-1.1c0-0.5-0.4-0.8-0.8-0.8
		c-0.5,0-0.9,0.4-0.9,0.9C168.2,467.4,168.4,467.9,169,468.1z"/>
	<path class="st6" d="M170.4,469.2l-0.6-4.5h2.1l-0.6,4.1L170.4,469.2L170.4,469.2z"/>
	<path class="st6" d="M177.3,474.5c-0.3,0.1-0.6,0.1-0.9,0.1c-1.2,0-2.1-0.7-2.1-2c0-1.3,1-2.3,2.3-2.3c1.7,0,2.8,1,2.8,3.3v5.4
		c1-1.1,2.1-1.9,3.3-2.5v-2c0-0.7,0-1.5,0-3.2l1.9-0.8h0.3v5.4c0.2,0,0.3,0,0.5,0c1.4,0,2.4,1,2.4,2.4c0,1.5-1,2.7-2.6,2.7
		c-1.5,0-2.5-1-2.5-2.8c0-0.1,0-0.2,0-0.4c-1.5,0.8-2.6,2.1-3.2,3h-2.1V474.5z M177.6,472.7c0-1-0.4-1.4-1.1-1.4
		c-0.7,0-1.1,0.6-1.1,1.3c0,0.8,0.6,1.2,1.2,1.2c0.3,0,0.7-0.1,0.9-0.3C177.5,473.2,177.6,472.9,177.6,472.7z M184.8,477.2
		c-0.1,0.2-0.1,0.7-0.1,1.1c0,0.8,0.2,1.7,0.9,1.7c0.7,0,0.9-0.8,0.9-1.4c0-0.8-0.5-1.5-1.3-1.5C185.2,477.1,185,477.1,184.8,477.2z
		"/>
	<path class="st6" d="M202.7,480.9h-3.5v-9.5l0-1.6l0.1-1.7c-0.6,0.6-1,1-1.2,1.1l-1.9,1.5l-1.7-2.1l5.3-4.2h2.9V480.9z"/>
	<path class="st6" d="M213.3,470.4c1.6,0,2.9,0.4,3.8,1.3c0.9,0.9,1.4,2.1,1.4,3.7c0,1.8-0.6,3.2-1.7,4.2s-2.7,1.5-4.9,1.5
		c-1.8,0-3.3-0.3-4.4-0.9v-3c0.6,0.3,1.3,0.6,2.1,0.8s1.5,0.3,2.2,0.3c2.1,0,3.2-0.9,3.2-2.6c0-1.7-1.1-2.5-3.3-2.5
		c-0.4,0-0.8,0-1.3,0.1c-0.5,0.1-0.9,0.2-1.2,0.3l-1.4-0.7l0.6-8.4h8.9v2.9h-5.9l-0.3,3.2l0.4-0.1
		C212,470.4,212.6,470.4,213.3,470.4z"/>
	<path class="st6" d="M228,469.4c0,1.7-0.3,3-1,3.9c-0.7,0.9-1.6,1.3-2.9,1.3c-1.2,0-2.2-0.4-2.9-1.3c-0.7-0.9-1-2.2-1-3.8
		c0-3.4,1.3-5.1,3.9-5.1c1.3,0,2.2,0.4,2.9,1.3C227.7,466.4,228,467.7,228,469.4z M223.1,469.4c0,1,0.1,1.7,0.3,2.1
		c0.2,0.5,0.4,0.7,0.8,0.7c0.7,0,1.1-0.9,1.1-2.8c0-1.9-0.4-2.8-1.1-2.8c-0.4,0-0.6,0.2-0.8,0.7
		C223.1,467.7,223.1,468.4,223.1,469.4z M235.8,464.5l-9.1,16.4H224l9.1-16.4H235.8z M239.5,475.9c0,1.7-0.3,3-1,3.9
		c-0.7,0.9-1.6,1.3-2.9,1.3c-1.2,0-2.2-0.4-2.9-1.3c-0.7-0.9-1-2.2-1-3.8c0-3.4,1.3-5.1,3.9-5.1c1.3,0,2.2,0.4,2.9,1.3
		C239.2,473,239.5,474.3,239.5,475.9z M234.6,475.9c0,1,0.1,1.7,0.3,2.1c0.2,0.5,0.4,0.7,0.8,0.7c0.7,0,1.1-0.9,1.1-2.8
		c0-1.9-0.4-2.8-1.1-2.8c-0.4,0-0.6,0.2-0.8,0.7C234.6,474.3,234.6,475,234.6,475.9z"/>
</g>
<g>
	<g>
		<path class="st5" d="M104.7,412.8c0.3-0.2,0.7-0.3,1.1-0.3c1.2,0,2,0.9,2,2.1c0,1.3-1,2.3-2.4,2.3c-1.7,0-2.8-1.1-2.8-3.2v-3.1
			c0-1.2,0-2.3,0-3.4l1.8-0.8h0.4V412.8z M104.5,414.5c0,1,0.4,1.4,1.1,1.4c0.7,0,1.1-0.6,1.1-1.3c0-0.9-0.6-1.3-1.2-1.3
			c-0.4,0-0.7,0.1-0.9,0.4C104.5,414,104.5,414.3,104.5,414.5z"/>
		<path class="st5" d="M121.1,416.7h-1.3l-2.5-7.4l-1.9,6.1c-0.3,0.7-0.5,1.3-1.4,1.3h-1.5v-6.3c-0.3,0.2-0.6,0.2-0.9,0.2
			c-1.1,0-2.1-0.8-2.1-2.1c0-1.5,1.1-2.4,2.4-2.4c0.8,0,2.7,0.3,2.7,3.2v2.8c0,1.1-0.1,1.8-0.2,2.6l0.1,0l2.6-8h0.4l2.7,8l0.1,0
			c-0.1-0.8-0.1-1.5-0.1-2.6v-9.1c0-0.7,0-1.5-0.1-3.2l1.9-0.8h0.3V415C122.3,416.2,122.1,416.7,121.1,416.7z M112.8,408.3
			c0-0.8-0.4-1.2-1.1-1.2c-0.7,0-1.2,0.6-1.2,1.3c0,0.9,0.6,1.3,1.2,1.3c0.4,0,0.7-0.1,0.9-0.4C112.8,408.9,112.8,408.6,112.8,408.3
			z"/>
		<path class="st5" d="M134.4,405c-0.1,0.9-0.6,1.7-1.3,2.3c0.6,0.6,0.9,1.4,0.9,2.4v6.9H132v-5.1c-0.7-0.7-1.7-1.2-2.5-1.2
			c-0.8,0-1.6,0.4-1.6,1.8c0,0.2,0,0.4,0,0.6c0.3-0.2,0.6-0.3,1-0.3c1.2,0,1.8,0.9,1.8,2.1c0,1.3-0.9,2.2-2.3,2.2
			c-1.6,0-2.7-1.1-2.7-3.2v-0.8c0-3.2,2.7-3.5,3.6-3.5c0.9,0,1.8,0.3,2.6,0.8v-0.2c0-0.6-0.1-1.2-0.4-1.6c-0.4,0.2-0.8,0.4-1.2,0.6
			l-0.6-0.4v0c0.4-0.3,0.8-0.5,1.2-0.9c-0.4-0.3-0.9-0.5-1.5-0.5c-1.2,0-2.3,0.5-3.1,1.3l-0.7-0.9c1.2-1.1,2.5-1.6,4.1-1.6
			c0.8,0,1.5,0.1,2.2,0.4c0.3-0.5,0.5-1,0.5-1.5H134.4z M127.7,414.6c0,0.8,0.3,1.3,1,1.3c0.6,0,1.1-0.6,1.1-1.3
			c0-0.9-0.6-1.2-1.1-1.2c-0.4,0-0.7,0.1-0.9,0.4C127.7,414.1,127.7,414.4,127.7,414.6z"/>
		<path class="st5" d="M138.7,410.6c-1.1,0-2.1-0.8-2.1-2.1c0-1.5,1.1-2.4,2.4-2.4c0.8,0,2.7,0.3,2.7,3.2v6.2h0.5
			c1.8,0,2.5-0.1,2.5-2v-3.2c0-0.7,0-1.5,0-3.2l1.9-0.8h0.3v7.3c0,2.6-1.3,3-3.8,3h-4.9l0.2-1.1h1.4v-5.1
			C139.3,410.6,139,410.6,138.7,410.6z M140,408.3c0-0.8-0.4-1.2-1.1-1.2c-0.7,0-1.2,0.6-1.2,1.3c0,0.9,0.6,1.3,1.2,1.3
			c0.4,0,0.7-0.1,1-0.4C139.9,408.9,140,408.6,140,408.3z"/>
		<path class="st5" d="M145.4,422.6v-1.8c-0.2,0.1-0.3,0.1-0.5,0.1c-0.8,0-1.5-0.6-1.5-1.5c0-0.9,0.7-1.6,1.7-1.6
			c0.5,0,1.6,0.3,1.6,1.8v3.1H145.4z M145.7,419.4c0-0.4-0.2-0.9-0.7-0.9c-0.5,0-0.9,0.3-0.9,0.8c0,0.5,0.4,0.8,0.8,0.8
			c0.3,0,0.5-0.1,0.7-0.3C145.7,419.7,145.7,419.5,145.7,419.4z"/>
		<path class="st5" d="M158.3,410.4c0-2.1-1.3-3.2-3.2-3.2c-2,0-3.1,1.2-3.1,3.5c0,0.8,0.3,1.7,0.5,2.5h0.1c0.2-1.5,0.5-2.5,0.9-3.2
			c0.5-0.7,1.2-1,1.9-1c1.1,0,2,0.9,2,2c0,1.3-0.9,2.2-2.1,2.2c-0.3,0-0.6,0-0.9-0.2c-0.5,1.2-0.7,2.7-0.7,3.7h-2.1
			c0-1-0.5-1.9-0.9-2.9c-0.4-1.1-0.9-2.2-0.9-3.3c0-2.8,2.3-4.3,5.4-4.3c3.8,0,5.2,1.8,5.2,4.2v6.3h-2.1V410.4z M154.3,411.3
			c0,0.6,0.6,0.9,1,0.9c0.6,0,1.2-0.4,1.2-1.2c0-0.6-0.4-1.1-1-1.1C154.8,409.9,154.3,410.5,154.3,411.3z"/>
		<path class="st5" d="M176.4,416.7h-3.5v-9.5l0-1.6l0.1-1.7c-0.6,0.6-1,1-1.2,1.1l-1.9,1.5l-1.7-2.1l5.3-4.2h2.9V416.7z"/>
		<path class="st5" d="M182.5,416.7l6.2-13.5h-8.1v-2.9h11.8v2.2l-6.2,14.2H182.5z"/>
		<path class="st5" d="M201.7,405.2c0,1.7-0.3,3-1,3.9c-0.7,0.9-1.6,1.3-2.9,1.3c-1.2,0-2.2-0.4-2.9-1.3c-0.7-0.9-1-2.2-1-3.8
			c0-3.4,1.3-5.1,3.9-5.1c1.3,0,2.2,0.4,2.9,1.3C201.3,402.3,201.7,403.5,201.7,405.2z M196.7,405.2c0,1,0.1,1.7,0.3,2.1
			c0.2,0.5,0.4,0.7,0.8,0.7c0.7,0,1.1-0.9,1.1-2.8c0-1.9-0.4-2.8-1.1-2.8c-0.4,0-0.6,0.2-0.8,0.7
			C196.8,403.5,196.7,404.3,196.7,405.2z M209.4,400.3l-9.1,16.4h-2.7l9.1-16.4H209.4z M213.2,411.7c0,1.7-0.3,3-1,3.9
			c-0.7,0.9-1.6,1.3-2.9,1.3c-1.2,0-2.2-0.4-2.9-1.3c-0.7-0.9-1-2.2-1-3.8c0-3.4,1.3-5.1,3.9-5.1c1.3,0,2.2,0.4,2.9,1.3
			C212.8,408.8,213.2,410.1,213.2,411.7z M208.2,411.8c0,1,0.1,1.7,0.3,2.1c0.2,0.5,0.4,0.7,0.8,0.7c0.7,0,1.1-0.9,1.1-2.8
			c0-1.9-0.4-2.8-1.1-2.8c-0.4,0-0.6,0.2-0.8,0.7C208.3,410.1,208.2,410.8,208.2,411.8z"/>
	</g>
</g>
<g>
	<g>
		<path class="st5" d="M50.1,517c0-2.3,1.6-3.4,3-3.4c0.9,0,1.5,0.3,2.1,0.6c0.4,0.2,0.9,0.4,1.2,0.4c0.4,0,0.8-0.3,1-0.6l0.6,0.8
			c-0.7,0.9-1.3,1.2-2.1,1.2c-0.8,0-1.4-0.2-2-0.5c-0.5-0.2-1.1-0.4-1.6-0.4c-0.5,0-0.9,0.3-0.9,0.7c0,0.1,0,0.3,0.1,0.4
			c2.6,0.2,4.3,0.5,5.1,1.1c0.8,0.6,0.8,1.1,0.8,2.5v2.1c0,1.7-1.1,2.8-2.8,2.8c-1.3,0-2.4-0.9-2.4-2.2c0-1.3,1-2.3,2.2-2.3
			c0.3,0,0.6,0,0.8,0.2v-1.1c0-1.4-0.8-1.9-5.3-2.2C50.1,517.2,50.1,517.1,50.1,517z M54.7,521.3c-0.7,0-1.2,0.6-1.2,1.3
			c0,0.8,0.6,1.3,1.2,1.3c0.5,0,1.1-0.5,1.1-1.5c0-0.3,0-0.5-0.1-0.8C55.4,521.5,55,521.3,54.7,521.3z"/>
		<path class="st5" d="M52.3,512.1c0.4-0.1,1-0.3,1.3-0.7c-0.8-0.1-1.5-0.7-1.5-1.5c0-0.9,0.8-1.6,1.7-1.6c1,0,1.6,0.8,1.6,1.6
			c0,0.6-0.3,1.3-0.9,1.8l0,0c1.6-0.3,2.2-1.7,2.3-3.3h2c-0.3,1.6-1,2.8-2.4,3.6c-0.9,0.5-2.2,0.7-4.1,0.9L52.3,512.1z M53.8,509.1
			c-0.5,0-0.8,0.3-0.8,0.8c0,0.5,0.4,0.9,1,0.9c0.5,0,0.7-0.4,0.7-0.8C54.6,509.5,54.3,509.1,53.8,509.1z"/>
		<path class="st5" d="M63.8,524.7V518c0-1.8-1-2.5-2.1-2.5c-0.7,0-1.4,0.3-2.1,0.9l-0.7-1c0.9-0.8,2.1-1.3,3.2-1.3
			c2,0,3.8,1.3,3.8,3.7v6.9H63.8z"/>
		<path class="st5" d="M71.5,518.3c-0.3,0.1-0.6,0.1-0.9,0.1c-1.1,0-2.1-0.7-2.1-2c0-1.3,1-2.3,2.3-2.3c1.7,0,2.8,1,2.8,3.3v5.4
			c1-1.1,2.1-1.9,3.3-2.5v-2c0-0.7,0-1.5,0-3.2l1.9-0.8H79v5.4c0.1,0,0.3,0,0.5,0c1.4,0,2.4,1,2.4,2.4c0,1.5-1,2.7-2.6,2.7
			c-1.5,0-2.5-1-2.5-2.8c0-0.1,0-0.2,0-0.4c-1.5,0.8-2.6,2.1-3.2,3h-2.1V518.3z M71.8,516.4c0-1-0.4-1.4-1.1-1.4
			c-0.7,0-1.1,0.6-1.1,1.3c0,0.8,0.6,1.2,1.2,1.2c0.3,0,0.7-0.1,0.9-0.3C71.7,517,71.8,516.7,71.8,516.4z M79,520.9
			c0,0.2-0.1,0.7-0.1,1.1c0,0.8,0.2,1.7,0.9,1.7c0.8,0,0.9-0.8,0.9-1.4c0-0.8-0.5-1.5-1.3-1.5C79.4,520.9,79.2,520.9,79,520.9z"/>
		<path class="st5" d="M92.4,518.4c0-2.1-1.3-3.2-3.2-3.2c-2,0-3.1,1.2-3.1,3.5c0,0.8,0.3,1.7,0.5,2.5h0.1c0.2-1.5,0.5-2.5,0.9-3.2
			c0.5-0.7,1.2-1,1.9-1c1.1,0,2,0.9,2,2c0,1.3-0.9,2.2-2.1,2.2c-0.3,0-0.6,0-0.9-0.2c-0.5,1.2-0.7,2.7-0.7,3.7h-2.1
			c0-1-0.5-1.9-0.9-2.9c-0.4-1.1-0.9-2.2-0.9-3.3c0-2.8,2.3-4.3,5.4-4.3c3.8,0,5.2,1.8,5.2,4.2v6.3h-2.1V518.4z M88.4,519.2
			c0,0.6,0.6,0.9,1,0.9c0.6,0,1.2-0.4,1.2-1.2c0-0.6-0.4-1.1-1-1.1C88.9,517.8,88.4,518.4,88.4,519.2z"/>
		<path class="st5" d="M89.7,512.1c0.4-0.1,1-0.3,1.3-0.7c-0.8-0.1-1.5-0.7-1.5-1.5c0-0.9,0.8-1.6,1.7-1.6c1,0,1.6,0.8,1.6,1.6
			c0,0.6-0.3,1.3-0.9,1.8l0,0c1.6-0.3,2.2-1.7,2.3-3.3h2c-0.3,1.6-1,2.8-2.4,3.6c-0.9,0.5-2.2,0.7-4.1,0.9L89.7,512.1z M91.1,509.1
			c-0.5,0-0.8,0.3-0.8,0.8c0,0.5,0.4,0.9,1,0.9c0.5,0,0.7-0.4,0.7-0.8C91.9,509.5,91.6,509.1,91.1,509.1z"/>
		<path class="st5" d="M101.2,524.7V518c0-1.8-1-2.5-2.1-2.5c-0.7,0-1.4,0.3-2.1,0.9l-0.7-1c0.9-0.8,2.1-1.3,3.2-1.3
			c2,0,3.8,1.3,3.8,3.7v6.9H101.2z"/>
		<path class="st5" d="M108.4,524.7c-0.1-0.8-0.6-1.8-1.1-2.8c-0.6-1.1-1.1-2.2-1.1-3.4c0-2.7,2.3-4.1,4-4.1c0.2,0,0.3,0,1.4,1h0
			c1.1-0.8,1.2-1,1.3-1c0.7,0,3.8,0.2,3.8,3.9v6.4h-2.1V518c0-2.4-1.2-2.6-1.3-2.6s-0.8,0.5-1.7,1.3h-0.1c-1.1-0.8-1.7-1.3-1.7-1.3
			c-0.2,0-1.5,0.8-1.5,2.8c0,0.9,0.3,1.8,0.6,2.7c0.3,0.7,0.6,1.4,0.8,2.1h0c0.3-0.7,0.8-1.3,1.4-2c-1-0.3-1.6-0.9-1.6-1.9
			c0-1.3,1-2,2.1-2c1.1,0,2.1,0.8,2.1,2.1c0,1.1-0.8,2-1.4,2.9c-0.6,0.8-1.4,1.6-1.8,2.6H108.4z M112.7,518.9c0-0.5-0.5-1-1-1
			c-0.8,0-1.1,0.6-1.1,1c0,0.9,0.8,1.2,1.3,1.2C111.9,520.2,112.7,519.6,112.7,518.9z"/>
		<path class="st5" d="M123.5,524.7V518c0-1.8-0.9-2.5-2.1-2.5c-0.8,0-1.4,0.3-2.1,0.9l-0.7-1c0.9-0.8,2.1-1.3,3.2-1.3
			c2,0,3.8,1.3,3.8,3.7v6.9H123.5z"/>
		<path class="st5" d="M131.4,520.1v-1.9c-0.3,0.1-0.6,0.2-0.9,0.2c-1.1,0-2.1-0.7-2.1-2c0-1.5,1.1-2.3,2.4-2.3
			c0.8,0,2.8,0.3,2.8,3.2v3.4c1.2,0.5,2.3,1.3,3.3,2.2v-4.5c0-0.7,0-1.5,0-3.2l1.9-0.8h0.3v10.3h-2.1c-0.8-1.1-2-2.2-3.2-2.7
			c0,0.1,0,0.3,0,0.4c0,0.9-0.7,2.5-2.6,2.5c-1.4,0-2.5-1-2.5-2.4c0-1.3,1-2.3,2.4-2.3C131,520.1,131.2,520.1,131.4,520.1z
			 M131.7,516.2c0-0.7-0.5-1.2-1.1-1.2c-0.7,0-1.2,0.5-1.2,1.2c0,0.8,0.6,1.2,1.2,1.2c0.3,0,0.7-0.2,0.9-0.4
			C131.7,516.8,131.7,516.5,131.7,516.2z M131.1,521.2c-0.7,0-1.4,0.6-1.4,1.5c0,0.7,0.4,1.1,0.9,1.1c0.7,0,1-0.8,1-1.5
			c0-0.4,0-0.7-0.2-1C131.3,521.2,131.2,521.2,131.1,521.2z"/>
		<path class="st5" d="M153.3,517.5c2.2,0.3,3.8,1.2,3.8,3.2c0,1.4-0.8,2.4-1.9,3.1c-1,0.6-2.5,0.8-4.2,0.8h-4.9V524
			c1.7-0.2,1.8-0.3,1.8-2v-8c0-1.7-0.1-1.8-1.7-2v-0.6h5.7c1.5,0,2.5,0.2,3.2,0.7c0.8,0.5,1.2,1.3,1.2,2.3
			C156.4,516.3,154.7,517.1,153.3,517.5L153.3,517.5z M150.9,517.2c2.1,0,3-0.8,3-2.5c0-1.6-1-2.6-2.4-2.6c-0.5,0-0.9,0.1-1,0.3
			c-0.2,0.1-0.2,0.4-0.2,1v3.9H150.9z M150.2,522c0,1.5,0.4,1.9,1.6,1.9c1.4,0,2.7-0.8,2.7-2.9c0-2-1.3-3-3.7-3h-0.6V522z"/>
		<path class="st5" d="M158.1,524.7V524c1.2-0.1,1.4-0.2,1.4-1.6v-9.5c0-1.3-0.1-1.4-1.3-1.5v-0.5c1.1-0.1,2.5-0.5,3.5-0.7v12.3
			c0,1.4,0.1,1.5,1.4,1.6v0.6H158.1z"/>
		<path class="st5" d="M173.5,520c0,3.3-2.4,4.9-4.6,4.9c-3,0-4.7-2.3-4.7-4.5c0-3.3,2.6-5,4.7-5C171.6,515.4,173.5,517.5,173.5,520
			z M168.6,516.1c-1,0-1.9,1.2-1.9,3.5c0,2.6,1,4.5,2.4,4.5c1,0,1.9-0.7,1.9-3.6C171,517.9,170.1,516.1,168.6,516.1L168.6,516.1z"/>
		<path class="st5" d="M184.1,515.8c-0.2,0.3-0.6,0.9-0.9,1.2l-1.2-0.1c0.4,0.4,0.6,1,0.6,1.6c0,2.2-1.9,3.2-3.8,3.2
			c-0.4,0-0.7,0-1-0.1c-0.2,0.1-0.4,0.4-0.4,0.7c0,0.4,0.3,0.8,1.3,0.8c0.7,0,1.3-0.1,2-0.1c1.2,0,3,0.4,3,2.5
			c0,2.2-2.6,4.1-5.3,4.1c-2.5,0-3.7-1.3-3.7-2.5c0-0.5,0.2-0.8,0.6-1.1c0.5-0.4,1.1-0.8,1.6-1.2c-0.8-0.3-1.3-0.7-1.5-1.1
			c-0.2-0.3-0.3-0.8-0.3-1c0.9-0.4,1.6-0.9,1.9-1.3c-1.1-0.4-1.9-1.4-1.9-2.7c0-2.3,2.1-3.4,3.8-3.4h0c0.8,0,1.4,0.2,2.1,0.5
			c1,0,2.1-0.1,2.9-0.3L184.1,515.8z M179.1,525c-1,0-1.4,0.1-1.8,0.4c-0.4,0.4-0.7,0.8-0.7,1.3c0,1,1.1,2,2.6,2
			c1.8,0,2.7-0.9,2.7-2.1c0-0.7-0.4-1.2-1-1.4C180.5,525.1,179.9,525,179.1,525L179.1,525z M178.8,516.1c-0.7,0-1.4,0.8-1.4,2.3
			s0.6,2.7,1.6,2.7c0.8,0,1.4-0.8,1.4-2.4C180.5,517.3,179.9,516.1,178.8,516.1L178.8,516.1z"/>
		<path class="st5" d="M192.1,524.7c-0.1-0.8-0.6-1.8-1.1-2.8c-0.6-1.1-1.1-2.2-1.1-3.4c0-2.7,2.3-4.1,4-4.1c0.2,0,0.3,0,1.4,1h0
			c1.1-0.8,1.2-1,1.3-1c0.8,0,3.8,0.2,3.8,3.9v6.4h-2.1V518c0-2.4-1.2-2.6-1.3-2.6c-0.1,0-0.8,0.5-1.7,1.3h-0.1
			c-1.1-0.8-1.7-1.3-1.7-1.3c-0.2,0-1.5,0.8-1.5,2.8c0,0.9,0.3,1.8,0.6,2.7c0.3,0.7,0.6,1.4,0.8,2.1h0c0.3-0.7,0.8-1.3,1.4-2
			c-1-0.3-1.6-0.9-1.6-1.9c0-1.3,1-2,2.1-2c1.1,0,2.1,0.8,2.1,2.1c0,1.1-0.8,2-1.4,2.9c-0.6,0.8-1.4,1.6-1.8,2.6H192.1z
			 M196.4,518.9c0-0.5-0.5-1-1-1c-0.8,0-1.1,0.6-1.1,1c0,0.9,0.8,1.2,1.3,1.2C195.6,520.2,196.4,519.6,196.4,518.9z"/>
		<path class="st5" d="M199.2,512.9l-0.6-4.5h2.1l-0.6,4.1L199.2,512.9L199.2,512.9z"/>
		<path class="st5" d="M207.2,524.7V518c0-1.8-0.9-2.5-2.1-2.5c-0.8,0-1.4,0.3-2.1,0.9l-0.7-1c0.9-0.8,2.1-1.3,3.2-1.3
			c2,0,3.8,1.3,3.8,3.7v6.9H207.2z"/>
		<path class="st5" d="M216.2,518.4c-1.1,0-2.2-0.7-2.2-2c0-1.2,0.9-2.3,2.4-2.3c0.8,0,2.7,0.3,2.7,3.1v4.9c0,2-0.2,2.6-1.8,2.6H216
			c-1.4-2.1-3.8-4.7-5.4-5.7l0.7-1c1.9,1.3,4.2,3.8,5.4,5.5c0.4,0,0.4-0.2,0.4-1.1v-4.1C216.8,518.4,216.5,518.4,216.2,518.4z
			 M217.4,516.4c0-0.7-0.4-1.4-1.1-1.4c-0.7,0-1.2,0.5-1.2,1.3c0,0.8,0.6,1.2,1.3,1.2c0.3,0,0.6-0.1,0.8-0.3
			C217.4,517,217.4,516.7,217.4,516.4z"/>
		<path class="st5" d="M229.6,518.1c1.1,0,1.8,0.8,1.8,1.9c0,1.2-0.9,2-2.1,2c-2.1,0-3.1-2.1-3.1-3.9c0-2.5,1.7-3.8,2.7-3.8
			c0.3,0,0.4,0.1,1.5,1.2h0c0.9-0.9,1.2-1.2,1.3-1.2c0.8,0,3.2,0.8,3.2,3.6v11h-2.1v-11.2c0-1.4-0.9-2.1-1-2.1s-0.5,0.3-1.4,1.3
			h-0.1c-1-1-1.3-1.3-1.5-1.3c-0.1,0-1.2,0.8-1.2,2.5c0,0.3,0,0.8,0.2,1.2C228.2,518.5,228.9,518.1,229.6,518.1z M229.4,521
			c0.6,0,1-0.5,1-1.1c0-0.6-0.4-1-0.9-1c-0.6,0-1.1,0.6-1.1,1.2C228.3,520.7,228.9,521,229.4,521z"/>
		<path class="st5" d="M246.6,517.7c0-3.2,0.7-5.7,2.1-7.3c1.4-1.6,3.4-2.4,6.2-2.4c0.9,0,1.7,0.1,2.2,0.2v2.8
			c-0.7-0.1-1.3-0.2-2-0.2c-1.2,0-2.2,0.2-2.9,0.5c-0.8,0.4-1.3,0.9-1.7,1.6c-0.4,0.7-0.6,1.7-0.7,3h0.1c0.7-1.3,1.9-1.9,3.6-1.9
			c1.5,0,2.6,0.5,3.4,1.4c0.8,0.9,1.2,2.2,1.2,3.8c0,1.8-0.5,3.1-1.5,4.2c-1,1-2.4,1.5-4.1,1.5c-1.2,0-2.3-0.3-3.2-0.8
			c-0.9-0.6-1.6-1.4-2.1-2.5S246.6,519.2,246.6,517.7z M252.5,522.1c0.7,0,1.3-0.2,1.7-0.7c0.4-0.5,0.6-1.2,0.6-2.1
			c0-0.8-0.2-1.4-0.6-1.9c-0.4-0.5-0.9-0.7-1.7-0.7c-0.7,0-1.3,0.2-1.8,0.7s-0.7,1-0.7,1.6c0,0.9,0.2,1.6,0.7,2.3
			C251.2,521.8,251.8,522.1,252.5,522.1z"/>
		<path class="st5" d="M267.4,513.1c0,1.7-0.3,3-1,3.9c-0.7,0.9-1.6,1.3-2.9,1.3c-1.2,0-2.2-0.4-2.9-1.3c-0.7-0.9-1-2.2-1-3.8
			c0-3.4,1.3-5.1,3.9-5.1c1.3,0,2.2,0.4,2.9,1.3C267.1,510.2,267.4,511.5,267.4,513.1z M262.4,513.2c0,1,0.1,1.7,0.3,2.1
			c0.2,0.5,0.4,0.7,0.8,0.7c0.7,0,1.1-0.9,1.1-2.8c0-1.9-0.4-2.8-1.1-2.8c-0.4,0-0.6,0.2-0.8,0.7
			C262.5,511.5,262.4,512.2,262.4,513.2z M275.1,508.3l-9.1,16.4h-2.7l9.1-16.4H275.1z M278.9,519.7c0,1.7-0.3,3-1,3.9
			c-0.7,0.9-1.6,1.3-2.9,1.3c-1.2,0-2.2-0.4-2.9-1.3c-0.7-0.9-1-2.2-1-3.8c0-3.4,1.3-5.1,3.9-5.1c1.3,0,2.2,0.4,2.9,1.3
			C278.6,516.8,278.9,518.1,278.9,519.7z M273.9,519.7c0,1,0.1,1.7,0.3,2.1c0.2,0.5,0.4,0.7,0.8,0.7c0.7,0,1.1-0.9,1.1-2.8
			c0-1.9-0.4-2.8-1.1-2.8c-0.4,0-0.6,0.2-0.8,0.7C274,518.1,273.9,518.8,273.9,519.7z"/>
	</g>
</g>
<g>
	<g>
		<path class="st5" d="M18.2,313.1c0,0-0.3,0.3-1,1.1h-0.3c-0.8-0.9-1-1.1-1.1-1.1c-0.3,0-0.9,0.7-0.9,1.8c0,0.2,0,0.4,0.1,0.5
			c0.4-0.6,0.9-0.8,1.5-0.8c1,0,1.7,0.8,1.7,1.8c0,1.1-0.9,1.8-2,1.8c-1.7,0-2.6-1.5-2.6-3.1c0-1.9,1.4-3,2.5-3c0.1,0,0.3,0.3,1,1h0
			c0.7-0.8,0.8-1,0.9-1c0.7,0,2.8,0.4,3,2.4c1.5-0.3,1.9-1.5,2.1-2.9h2.1c-0.2,1.7-1.1,2.6-2.6,3.2v0c2.1,0.3,2.4,1.6,2.4,2.8v2.7
			c0,2.2-1.5,2.4-3.3,2.4h-4.3l0.1-1.1H19v-6.7C19,313.4,18.3,313.1,18.2,313.1z M16.4,317.4c0.5,0,1-0.4,1-1c0-0.5-0.4-1-1-1
			c-0.6,0-1,0.5-1.1,1.2C15.5,317,15.9,317.4,16.4,317.4z M21.4,321.6c1.3,0,1.6-0.3,1.6-1.6v-2.5c0-1.1-0.2-1.7-1.9-2v6.1H21.4z"/>
		<path class="st5" d="M21.4,306.4v-1.7l1.1-0.5h0.2v2.1c0.4,0,0.8,0.2,1.1,0.3v-2l1.1-0.5h0.2v3.5c0.4,0.6,0.6,1.3,0.6,2.1
			c0,0.5-0.1,1-0.3,1.5c-2.1-1.4-4-2-6.8-1.9C18.8,307.8,19.8,306.7,21.4,306.4z M24.9,310.1c-0.1-1.3-1.6-2.3-2.9-2.3
			c-0.9,0-1.6,0.3-2,0.9C21.7,308.8,23.3,309.2,24.9,310.1z"/>
		<path class="st5" d="M20.3,310.1c0.4-0.1,1-0.3,1.3-0.7c-0.8-0.1-1.5-0.7-1.5-1.5c0-0.9,0.7-1.6,1.7-1.6c1,0,1.6,0.8,1.6,1.6
			c0,0.6-0.3,1.3-0.9,1.8l0,0c1.6-0.3,2.2-1.7,2.3-3.3h2c-0.3,1.6-1,2.8-2.4,3.6c-0.9,0.5-2.2,0.7-4.1,0.9L20.3,310.1z M21.7,307.1
			c-0.5,0-0.8,0.3-0.8,0.8c0,0.5,0.4,0.9,0.9,0.9c0.5,0,0.7-0.4,0.7-0.8C22.5,307.5,22.2,307.1,21.7,307.1z"/>
		<path class="st5" d="M28.1,313.8c1.3-1.1,2.6-1.7,4.2-1.7c2.2,0,4.3,1.1,4.3,3.7v3.5c0,2.9-1.8,3.6-4.2,3.6c-2.5,0-4-1-4-3.1v-1.9
			c0-1.6,1-3,2.7-3c1.6,0,2.2,1.2,2.2,2c0,1.5-0.9,2.2-1.9,2.2c-0.3,0-0.6,0-0.9-0.2v1c0,1.4,0.7,2,2,2c1.3,0,2-0.5,2-2V316
			c0-1.6-0.8-2.7-2.4-2.7c-1.2,0-2.3,0.5-3.2,1.4L28.1,313.8z M31.2,318.3c0.7,0,1.1-0.5,1.1-1.2c0-0.8-0.4-1.3-1.1-1.3
			c-0.7,0-0.9,0.6-0.9,1.3c0,0.3,0,0.7,0.2,1C30.7,318.3,30.9,318.3,31.2,318.3z"/>
		<path class="st5" d="M49.7,312.3v8.6c0,1.3-0.2,1.8-1.2,1.8h-0.8l-2.7-4.3l-2.7,3.7c-0.3,0.4-0.4,0.6-0.8,0.6h-1.4v-7.6
			c0-1.6,1.1-3,2.9-3c1.7,0,2.3,1.1,2.3,2c0,1.5-1,2.2-2.1,2.2c-0.3,0-0.7,0-1-0.2v2.7c0,0.6-0.1,1.1-0.2,1.8l0,0l3-4h0.2l2.6,3.9
			l0,0c-0.1-0.7-0.2-1.2-0.2-1.8v-2.5c0-0.7,0-1.5-0.1-3.2l1.9-0.8H49.7z M42.8,315.6c0.7,0,1.2-0.5,1.2-1.2c0-0.8-0.4-1.3-1.2-1.3
			c-0.8,0-1,0.6-1,1.3c0,0.3,0.1,0.7,0.2,1C42.3,315.5,42.6,315.6,42.8,315.6z"/>
		<path class="st5" d="M48.3,310.9l-0.6-4.5h2.1l-0.6,4.1L48.3,310.9L48.3,310.9z"/>
		<path class="st5" d="M56.3,322.7V316c0-1.8-0.9-2.5-2.1-2.5c-0.8,0-1.4,0.3-2.1,0.9l-0.7-1c0.9-0.8,2.1-1.3,3.2-1.3
			c2,0,3.8,1.3,3.8,3.7v6.9H56.3z"/>
		<path class="st5" d="M64,316.3c-0.3,0.1-0.6,0.1-0.9,0.1c-1.1,0-2.1-0.7-2.1-2c0-1.3,1-2.3,2.3-2.3c1.7,0,2.8,1,2.8,3.3v5.4
			c1-1.1,2.1-1.9,3.3-2.5v-2c0-0.7,0-1.5,0-3.2l1.9-0.8h0.3v5.4c0.1,0,0.3,0,0.5,0c1.4,0,2.4,1,2.4,2.4c0,1.5-1,2.7-2.6,2.7
			c-1.5,0-2.5-1-2.5-2.8c0-0.1,0-0.2,0-0.4c-1.5,0.8-2.6,2.1-3.2,3H64V316.3z M64.3,314.4c0-1-0.4-1.4-1.1-1.4
			c-0.7,0-1.1,0.6-1.1,1.3c0,0.8,0.6,1.2,1.2,1.2c0.3,0,0.7-0.1,0.9-0.3C64.3,315,64.3,314.7,64.3,314.4z M71.5,318.9
			c0,0.2-0.1,0.7-0.1,1.1c0,0.8,0.2,1.7,0.9,1.7c0.8,0,1-0.8,1-1.4c0-0.8-0.5-1.5-1.3-1.5C71.9,318.9,71.8,318.9,71.5,318.9z"/>
		<path class="st5" d="M79,316.3c-0.3,0.1-0.5,0.2-0.8,0.2c-1.1,0-2.2-0.7-2.2-2c0-1.2,0.9-2.3,2.4-2.3c0.8,0,2.7,0.3,2.7,3.1v2.9
			c0,0.6,0,1.2-0.1,1.8l0,0c1.3-2.3,2.3-3.4,3.5-4.2c-0.7-0.3-1-1-1-1.7c0-1.2,1.1-2.1,2.2-2.1c1.1,0,2.1,0.9,2.1,2
			c0,0.7-0.3,1.3-0.8,1.7c0.1,0.1,0.3,0.3,0.3,0.6v6.4h-2.1v-6.2c-1.4,0.9-3,3.2-4.3,6.2h-2V316.3z M79.4,314.4
			c0-0.7-0.3-1.4-1.1-1.4c-0.7,0-1.2,0.5-1.2,1.3c0,0.8,0.6,1.2,1.3,1.2c0.3,0,0.6-0.1,0.8-0.3C79.3,315,79.4,314.7,79.4,314.4z
			 M86.9,313.8c0-0.5-0.4-1-1.1-1c-0.7,0-1.1,0.5-1.1,1c0,0.7,0.6,1.3,1.3,1.3C86.5,314.9,86.9,314.4,86.9,313.8z"/>
		<path class="st5" d="M82.6,310.1c0.4-0.1,1-0.3,1.3-0.7c-0.8-0.1-1.5-0.7-1.5-1.5c0-0.9,0.8-1.6,1.7-1.6c1,0,1.6,0.8,1.6,1.6
			c0,0.6-0.3,1.3-0.9,1.8l0,0c1.6-0.3,2.2-1.7,2.3-3.3h2c-0.3,1.6-1,2.8-2.4,3.6c-0.9,0.5-2.2,0.7-4.1,0.9L82.6,310.1z M84,307.1
			c-0.5,0-0.8,0.3-0.8,0.8c0,0.5,0.4,0.9,1,0.9c0.5,0,0.7-0.4,0.7-0.8C84.9,307.5,84.5,307.1,84,307.1z"/>
		<path class="st5" d="M94.1,322.7V316c0-1.8-1-2.5-2.1-2.5c-0.7,0-1.4,0.3-2.1,0.9l-0.7-1c0.9-0.8,2.1-1.3,3.2-1.3
			c2,0,3.8,1.3,3.8,3.7v6.9H94.1z"/>
		<path class="st5" d="M103.1,316.4c-1.1,0-2.2-0.7-2.2-2c0-1.2,0.9-2.3,2.4-2.3c0.8,0,2.7,0.3,2.7,3.1v4.9c0,2-0.2,2.6-1.8,2.6
			h-1.5c-1.4-2.1-3.8-4.7-5.4-5.7l0.7-1c1.9,1.3,4.2,3.8,5.4,5.5c0.4,0,0.4-0.2,0.4-1.1v-4.1C103.7,316.4,103.4,316.4,103.1,316.4z
			 M104.3,314.4c0-0.7-0.4-1.4-1.1-1.4c-0.7,0-1.2,0.5-1.2,1.3c0,0.8,0.6,1.2,1.3,1.2c0.3,0,0.6-0.1,0.8-0.3
			C104.3,315,104.3,314.7,104.3,314.4z"/>
		<path class="st5" d="M118.2,311c-0.1,0.9-0.6,1.7-1.3,2.3c0.6,0.6,1,1.4,1,2.4v6.9h-2.1v-5.1c-0.7-0.7-1.7-1.2-2.5-1.2
			c-0.8,0-1.6,0.4-1.6,1.8c0,0.2,0,0.4,0,0.6c0.3-0.2,0.6-0.3,1-0.3c1.2,0,1.8,0.9,1.8,2.1c0,1.3-0.9,2.2-2.3,2.2
			c-1.6,0-2.7-1.1-2.7-3.2v-0.8c0-3.2,2.7-3.5,3.6-3.5c0.8,0,1.8,0.3,2.6,0.8V316c0-0.6-0.1-1.2-0.4-1.6c-0.4,0.2-0.8,0.4-1.2,0.6
			l-0.6-0.4v0c0.4-0.3,0.8-0.5,1.2-0.9c-0.4-0.3-0.9-0.5-1.4-0.5c-1.2,0-2.3,0.5-3.1,1.3l-0.7-0.9c1.3-1.1,2.5-1.6,4.1-1.6
			c0.8,0,1.5,0.1,2.2,0.4c0.3-0.5,0.4-1,0.5-1.5H118.2z M111.5,320.6c0,0.8,0.3,1.3,1,1.3c0.6,0,1.1-0.6,1.1-1.3
			c0-0.9-0.6-1.2-1.1-1.2c-0.4,0-0.7,0.1-0.9,0.4C111.5,320.1,111.5,320.3,111.5,320.6z"/>
		<path class="st5" d="M120,315c0-2.3,1.6-3.4,3-3.4c0.9,0,1.5,0.3,2.1,0.6c0.5,0.2,0.8,0.4,1.2,0.4c0.4,0,0.8-0.3,1-0.6l0.6,0.8
			c-0.7,0.9-1.4,1.2-2.1,1.2c-0.8,0-1.4-0.2-2-0.5c-0.5-0.2-1.1-0.4-1.6-0.4c-0.5,0-0.9,0.3-0.9,0.7c0,0.1,0,0.3,0.1,0.4
			c2.6,0.2,4.3,0.5,5.1,1.1c0.8,0.6,0.8,1.1,0.8,2.5v2.1c0,1.7-1.1,2.8-2.8,2.8c-1.3,0-2.4-0.9-2.4-2.2c0-1.3,1-2.3,2.2-2.3
			c0.3,0,0.6,0,0.9,0.2v-1.1c0-1.4-0.8-1.9-5.3-2.2C120,315.2,120,315.1,120,315z M124.6,319.3c-0.7,0-1.2,0.6-1.2,1.3
			c0,0.8,0.6,1.3,1.2,1.3c0.5,0,1.1-0.5,1.1-1.5c0-0.3-0.1-0.5-0.1-0.8C125.3,319.5,124.9,319.3,124.6,319.3z"/>
		<path class="st5" d="M129.2,315c0-2.3,1.6-3.4,3-3.4c0.9,0,1.5,0.3,2.1,0.6c0.5,0.2,0.8,0.4,1.2,0.4c0.4,0,0.8-0.3,1-0.6l0.6,0.8
			c-0.7,0.9-1.4,1.2-2.1,1.2c-0.8,0-1.4-0.2-2-0.5c-0.5-0.2-1.1-0.4-1.6-0.4c-0.5,0-0.9,0.3-0.9,0.7c0,0.1,0,0.3,0.1,0.4
			c2.6,0.2,4.3,0.5,5.1,1.1c0.8,0.6,0.8,1.1,0.8,2.5v2.1c0,1.7-1.1,2.8-2.8,2.8c-1.3,0-2.4-0.9-2.4-2.2c0-1.3,1-2.3,2.2-2.3
			c0.3,0,0.6,0,0.9,0.2v-1.1c0-1.4-0.8-1.9-5.3-2.2C129.2,315.2,129.2,315.1,129.2,315z M133.8,319.3c-0.7,0-1.2,0.6-1.2,1.3
			c0,0.8,0.6,1.3,1.2,1.3c0.5,0,1.1-0.5,1.1-1.5c0-0.3-0.1-0.5-0.1-0.8C134.5,319.5,134.1,319.3,133.8,319.3z"/>
		<path class="st5" d="M150.5,322.7h-1.3l-2.5-7.4l-1.9,6.1c-0.3,0.7-0.5,1.3-1.4,1.3h-1.5v-6.3c-0.3,0.2-0.6,0.2-0.9,0.2
			c-1.1,0-2.1-0.8-2.1-2.1c0-1.5,1.1-2.4,2.4-2.4c0.8,0,2.7,0.3,2.7,3.2v2.8c0,1.1-0.1,1.8-0.2,2.6l0.1,0l2.6-8h0.4l2.7,8l0.1,0
			c-0.1-0.8-0.1-1.5-0.1-2.6v-1.8c0-0.7,0-1.5-0.1-3.2l1.9-0.8h0.3v8.6C151.6,322.2,151.4,322.7,150.5,322.7z M142.1,314.2
			c0-0.8-0.4-1.2-1.1-1.2c-0.7,0-1.2,0.6-1.2,1.3c0,0.9,0.6,1.3,1.2,1.3c0.3,0,0.7-0.1,0.9-0.4C142.1,314.9,142.1,314.6,142.1,314.2
			z"/>
		<path class="st5" d="M163.8,311c-0.1,0.9-0.6,1.7-1.3,2.3c0.6,0.6,0.9,1.4,0.9,2.4v6.9h-2.1v-5.1c-0.7-0.7-1.7-1.2-2.5-1.2
			c-0.8,0-1.6,0.4-1.6,1.8c0,0.2,0,0.4,0,0.6c0.3-0.2,0.7-0.3,1-0.3c1.2,0,1.8,0.9,1.8,2.1c0,1.3-0.9,2.2-2.3,2.2
			c-1.6,0-2.7-1.1-2.7-3.2v-0.8c0-3.2,2.7-3.5,3.6-3.5c0.8,0,1.8,0.3,2.6,0.8V316c0-0.6-0.1-1.2-0.4-1.6c-0.4,0.2-0.8,0.4-1.2,0.6
			l-0.6-0.4v0c0.4-0.3,0.8-0.5,1.2-0.9c-0.4-0.3-0.9-0.5-1.4-0.5c-1.2,0-2.3,0.5-3.1,1.3l-0.7-0.9c1.3-1.1,2.5-1.6,4.1-1.6
			c0.8,0,1.5,0.1,2.2,0.4c0.3-0.5,0.4-1,0.5-1.5H163.8z M157,320.6c0,0.8,0.3,1.3,1,1.3c0.6,0,1.1-0.6,1.1-1.3
			c0-0.9-0.6-1.2-1.1-1.2c-0.4,0-0.7,0.1-0.9,0.4C157,320.1,157,320.3,157,320.6z"/>
		<path class="st5" d="M160.5,306.3c2.2,0,3.6,1.6,3.6,3.5c0,0.5-0.1,1-0.3,1.5c-2.1-1.4-4-2-6.8-1.9
			C157.1,307.5,158.5,306.3,160.5,306.3z M163.2,310.1c-0.1-1.3-1.6-2.3-2.9-2.3c-0.9,0-1.6,0.3-2,0.9
			C160,308.8,161.6,309.2,163.2,310.1z"/>
		<path class="st5" d="M169,316.3c-0.3,0.1-0.6,0.1-0.9,0.1c-1.1,0-2.1-0.7-2.1-2c0-1.3,1-2.3,2.3-2.3c1.7,0,2.8,1,2.8,3.3v5.4
			c1-1.1,2.1-1.9,3.3-2.5v-2c0-0.7,0-1.5,0-3.2l1.9-0.8h0.3v5.4c0.1,0,0.3,0,0.5,0c1.4,0,2.4,1,2.4,2.4c0,1.5-1,2.7-2.6,2.7
			c-1.5,0-2.5-1-2.5-2.8c0-0.1,0-0.2,0-0.4c-1.5,0.8-2.6,2.1-3.2,3H169V316.3z M169.3,314.4c0-1-0.4-1.4-1.1-1.4
			c-0.7,0-1.1,0.6-1.1,1.3c0,0.8,0.6,1.2,1.2,1.2c0.3,0,0.7-0.1,0.9-0.3C169.2,315,169.3,314.7,169.3,314.4z M176.5,318.9
			c0,0.2-0.1,0.7-0.1,1.1c0,0.8,0.2,1.7,0.9,1.7c0.8,0,0.9-0.8,0.9-1.4c0-0.8-0.5-1.5-1.3-1.5C176.9,318.9,176.7,318.9,176.5,318.9z
			"/>
		<path class="st5" d="M189.9,316.4c0-2.1-1.3-3.2-3.2-3.2c-2,0-3.1,1.2-3.1,3.5c0,0.8,0.3,1.7,0.5,2.5h0.1c0.2-1.5,0.5-2.5,0.9-3.2
			c0.5-0.7,1.2-1,1.9-1c1.1,0,2,0.9,2,2c0,1.3-0.9,2.2-2.1,2.2c-0.3,0-0.6,0-0.9-0.2c-0.5,1.2-0.7,2.7-0.7,3.7h-2.1
			c0-1-0.5-1.9-0.9-2.9c-0.4-1.1-0.9-2.2-0.9-3.3c0-2.8,2.3-4.3,5.4-4.3c3.8,0,5.2,1.8,5.2,4.2v6.3h-2.1V316.4z M185.9,317.2
			c0,0.6,0.6,0.9,1,0.9c0.6,0,1.2-0.4,1.2-1.2c0-0.6-0.4-1.1-1-1.1C186.4,315.8,185.9,316.4,185.9,317.2z"/>
		<path class="st5" d="M187.2,310.1c0.4-0.1,1-0.3,1.3-0.7c-0.8-0.1-1.5-0.7-1.5-1.5c0-0.9,0.8-1.6,1.7-1.6c1,0,1.6,0.8,1.6,1.6
			c0,0.6-0.3,1.3-0.9,1.8l0,0c1.6-0.3,2.2-1.7,2.3-3.3h2c-0.3,1.6-1,2.8-2.4,3.6c-0.9,0.5-2.2,0.7-4.1,0.9L187.2,310.1z
			 M188.6,307.1c-0.5,0-0.8,0.3-0.8,0.8c0,0.5,0.4,0.9,1,0.9c0.5,0,0.7-0.4,0.7-0.8C189.4,307.5,189.1,307.1,188.6,307.1z"/>
		<path class="st5" d="M198.6,322.7V316c0-1.8-1-2.5-2.1-2.5c-0.7,0-1.4,0.3-2.1,0.9l-0.7-1c0.9-0.8,2.1-1.3,3.2-1.3
			c2,0,3.8,1.3,3.8,3.7v6.9H198.6z"/>
		<path class="st5" d="M203.7,313.8c1.3-1.1,2.6-1.7,4.2-1.7c2.2,0,4.3,1.1,4.3,3.7v3.5c0,2.9-1.8,3.6-4.2,3.6c-2.5,0-4-1-4-3.1
			v-1.9c0-1.6,1-3,2.7-3c1.6,0,2.2,1.2,2.2,2c0,1.5-0.9,2.2-1.9,2.2c-0.3,0-0.6,0-0.9-0.2v1c0,1.4,0.7,2,2,2c1.3,0,2-0.5,2-2V316
			c0-1.6-0.8-2.7-2.4-2.7c-1.2,0-2.3,0.5-3.2,1.4L203.7,313.8z M206.8,318.3c0.7,0,1.1-0.5,1.1-1.2c0-0.8-0.4-1.3-1.1-1.3
			c-0.7,0-0.9,0.6-0.9,1.3c0,0.3,0,0.7,0.2,1C206.3,318.3,206.6,318.3,206.8,318.3z"/>
		<path class="st5" d="M215.2,313.8c1.2-1.1,2.6-1.7,4.2-1.7c2.2,0,4.3,1.1,4.3,3.7v3.5c0,2.9-1.8,3.6-4.2,3.6c-2.5,0-4-1-4-3.1
			v-1.9c0-1.6,1-3,2.7-3c1.6,0,2.2,1.2,2.2,2c0,1.5-0.9,2.2-1.9,2.2c-0.3,0-0.6,0-0.9-0.2v1c0,1.4,0.7,2,2,2c1.3,0,2-0.5,2-2V316
			c0-1.6-0.8-2.7-2.4-2.7c-1.2,0-2.3,0.5-3.2,1.4L215.2,313.8z M218.3,318.3c0.7,0,1.1-0.5,1.1-1.2c0-0.8-0.3-1.3-1.1-1.3
			c-0.6,0-0.9,0.6-0.9,1.3c0,0.3,0.1,0.7,0.2,1C217.8,318.3,218,318.3,218.3,318.3z"/>
		<path class="st5" d="M229.2,316.3c-0.3,0.1-0.6,0.1-0.9,0.1c-1.1,0-2.1-0.7-2.1-2c0-1.3,1-2.3,2.3-2.3c1.7,0,2.8,1,2.8,3.3v5.4
			c1-1.1,2.1-1.9,3.3-2.5v-2c0-0.7,0-1.5,0-3.2l1.9-0.8h0.3v5.4c0.1,0,0.3,0,0.5,0c1.4,0,2.4,1,2.4,2.4c0,1.5-1,2.7-2.6,2.7
			c-1.5,0-2.5-1-2.5-2.8c0-0.1,0-0.2,0-0.4c-1.5,0.8-2.6,2.1-3.2,3h-2.1V316.3z M229.5,314.4c0-1-0.4-1.4-1.1-1.4
			c-0.7,0-1.1,0.6-1.1,1.3c0,0.8,0.6,1.2,1.2,1.2c0.3,0,0.7-0.1,0.9-0.3C229.5,315,229.5,314.7,229.5,314.4z M236.7,318.9
			c0,0.2-0.1,0.7-0.1,1.1c0,0.8,0.2,1.7,0.9,1.7c0.8,0,1-0.8,1-1.4c0-0.8-0.5-1.5-1.3-1.5C237.1,318.9,237,318.9,236.7,318.9z"/>
		<path class="st5" d="M245.5,318.4c1.2,0,2,0.9,2,2.1c0,1.3-1,2.3-2.3,2.3c-1.7,0-2.8-1.1-2.8-3.2v-12.1c0-0.9-0.3-1-0.4-1
			c-0.3,0.7-0.7,1.8-1.4,4H240c-0.8-2.4-1.1-3.4-1.4-3.8c-0.2-0.3-0.3-0.3-0.6-0.3v-1.5h0.5c1.1,0,1.2,0,2.2,2.8h0.1
			c0.6-1.7,0.8-2.3,1-2.8h0c1.3,0,2.7,0.4,2.7,2.7v10.9C244.7,318.5,245.1,318.4,245.5,318.4z M244.2,320.5c0,1,0.4,1.4,1.1,1.4
			c0.7,0,1.1-0.6,1.1-1.3c0-0.9-0.6-1.3-1.2-1.3c-0.4,0-0.7,0.1-1,0.4C244.2,319.9,244.2,320.2,244.2,320.5z"/>
		<path class="st5" d="M256.3,322.7v-5.1c-0.7-0.7-1.7-1.2-2.5-1.2c-0.8,0-1.6,0.4-1.6,1.8c0,0.2,0,0.4,0,0.6c0.3-0.2,0.6-0.3,1-0.3
			c1.2,0,1.8,0.9,1.8,2.1c0,1.3-0.9,2.2-2.3,2.2c-1.6,0-2.7-1.1-2.7-3.2v-0.8c0-3.2,2.7-3.5,3.6-3.5c0.9,0,1.8,0.3,2.6,0.8V316
			c0-1.7-0.9-2.8-2.4-2.8c-1.2,0-2.3,0.5-3.1,1.3l-0.7-0.9c1.2-1.1,2.5-1.6,4.1-1.6c2.2,0,4.3,1.1,4.3,3.7v6.9H256.3z M252,320.6
			c0,0.8,0.3,1.3,1,1.3c0.6,0,1.1-0.6,1.1-1.3c0-0.9-0.6-1.2-1.1-1.2c-0.4,0-0.7,0.1-0.9,0.4C252,320.1,252,320.3,252,320.6z"/>
		<path class="st5" d="M264,316.3c-0.3,0.1-0.6,0.1-0.9,0.1c-1.1,0-2.1-0.7-2.1-2c0-1.3,1-2.3,2.3-2.3c1.7,0,2.8,1,2.8,3.3v5.4
			c1-1.1,2.1-1.9,3.3-2.5v-2c0-0.7,0-1.5,0-3.2l1.9-0.8h0.2v5.4c0.2,0,0.3,0,0.5,0c1.4,0,2.4,1,2.4,2.4c0,1.5-1,2.7-2.6,2.7
			c-1.5,0-2.5-1-2.5-2.8c0-0.1,0-0.2,0-0.4c-1.5,0.8-2.6,2.1-3.2,3H264V316.3z M264.3,314.4c0-1-0.4-1.4-1.1-1.4
			c-0.7,0-1.1,0.6-1.1,1.3c0,0.8,0.6,1.2,1.2,1.2c0.3,0,0.7-0.1,0.9-0.3C264.2,315,264.3,314.7,264.3,314.4z M271.5,318.9
			c-0.1,0.2-0.1,0.7-0.1,1.1c0,0.8,0.2,1.7,0.9,1.7c0.7,0,0.9-0.8,0.9-1.4c0-0.8-0.5-1.5-1.3-1.5
			C271.9,318.9,271.7,318.9,271.5,318.9z"/>
		<path class="st5" d="M274,307.7c-0.5-0.3-1-0.5-1.4-0.5c-1,0-1.6,0.8-1.6,1.6c0,0.5,0.3,1.1,1.1,1.3c-0.2-0.3-0.3-0.5-0.3-0.8
			c0-0.6,0.5-1.1,1.2-1.1c0.6,0,1.2,0.5,1.2,1.2c0,1-1,1.5-1.9,1.5c-1.4,0-2.7-0.9-2.7-2.3c0-1.4,1.3-2.2,2.6-2.2
			c0.5,0,0.9,0.1,1.3,0.3l0.4-2.7h2L274,307.7z M273.4,309.4c0-0.3-0.2-0.5-0.5-0.5s-0.6,0.2-0.6,0.6c0,0.3,0.1,0.5,0.4,0.7
			C273.2,310.1,273.4,309.8,273.4,309.4z"/>
		<path class="st5" d="M292.3,322.7h-11.5v-2.4l4.1-4.2c1.2-1.3,2-2.1,2.4-2.6c0.4-0.5,0.6-0.9,0.8-1.3c0.2-0.4,0.2-0.8,0.2-1.3
			c0-0.7-0.2-1.1-0.5-1.5s-0.8-0.5-1.5-0.5c-0.6,0-1.3,0.1-1.9,0.4c-0.6,0.3-1.2,0.7-1.9,1.2l-1.9-2.2c0.8-0.7,1.5-1.2,2-1.5
			c0.5-0.3,1.1-0.5,1.7-0.7s1.3-0.2,2.1-0.2c1,0,1.9,0.2,2.7,0.6c0.8,0.4,1.4,0.9,1.8,1.6c0.4,0.7,0.7,1.4,0.7,2.3
			c0,0.8-0.1,1.5-0.4,2.1c-0.3,0.7-0.7,1.3-1.2,2s-1.5,1.7-2.9,3l-2.1,2v0.2h7.2V322.7z"/>
		<path class="st5" d="M304.8,309.9c0,1-0.3,1.9-0.9,2.6c-0.6,0.7-1.5,1.2-2.6,1.5v0.1c1.3,0.2,2.3,0.6,3,1.2c0.7,0.6,1,1.5,1,2.6
			c0,1.6-0.6,2.8-1.7,3.7s-2.8,1.3-4.9,1.3c-1.8,0-3.4-0.3-4.7-0.9v-3c0.6,0.3,1.3,0.6,2.1,0.8s1.5,0.3,2.3,0.3c1.1,0,2-0.2,2.5-0.6
			c0.5-0.4,0.8-1,0.8-1.9c0-0.8-0.3-1.3-0.9-1.6s-1.6-0.5-3-0.5h-1.2v-2.7h1.3c1.3,0,2.2-0.2,2.8-0.5s0.9-0.9,0.9-1.7
			c0-1.2-0.8-1.9-2.3-1.9c-0.5,0-1.1,0.1-1.6,0.3s-1.2,0.5-1.9,0.9l-1.6-2.4c1.5-1.1,3.3-1.6,5.4-1.6c1.7,0,3,0.3,4,1
			C304.3,307.7,304.8,308.7,304.8,309.9z"/>
		<path class="st5" d="M314.7,311.1c0,1.7-0.3,3-1,3.9c-0.7,0.9-1.6,1.3-2.9,1.3c-1.2,0-2.2-0.4-2.9-1.3c-0.7-0.9-1-2.2-1-3.8
			c0-3.4,1.3-5.1,3.9-5.1c1.3,0,2.2,0.4,2.9,1.3C314.4,308.2,314.7,309.5,314.7,311.1z M309.7,311.2c0,1,0.1,1.7,0.3,2.1
			s0.4,0.7,0.8,0.7c0.7,0,1.1-0.9,1.1-2.8c0-1.9-0.4-2.8-1.1-2.8c-0.4,0-0.6,0.2-0.8,0.7C309.8,309.5,309.7,310.2,309.7,311.2z
			 M322.4,306.2l-9.1,16.4h-2.7l9.1-16.4H322.4z M326.2,317.7c0,1.7-0.3,3-1,3.9c-0.7,0.9-1.6,1.3-2.9,1.3c-1.2,0-2.2-0.4-2.9-1.3
			c-0.7-0.9-1-2.2-1-3.8c0-3.4,1.3-5.1,3.9-5.1c1.3,0,2.2,0.4,2.9,1.3C325.9,314.8,326.2,316.1,326.2,317.7z M321.2,317.7
			c0,1,0.1,1.7,0.3,2.1s0.4,0.7,0.8,0.7c0.7,0,1.1-0.9,1.1-2.8c0-1.9-0.4-2.8-1.1-2.8c-0.4,0-0.6,0.2-0.8,0.7
			C321.3,316.1,321.2,316.8,321.2,317.7z"/>
	</g>
</g>
</svg>