<?xml version="1.0" encoding="utf-8"?>
<!-- Generator: Adobe Illustrator 19.0.0, SVG Export Plug-In . SVG Version: 6.00 Build 0)  -->
<svg version="1.1" id="Layer_1" xmlns="http://www.w3.org/2000/svg" xmlns:xlink="http://www.w3.org/1999/xlink" x="0px" y="0px"
	 viewBox="0 0 63.6 86" style="enable-background:new 0 0 63.6 86;" xml:space="preserve">
<style type="text/css">
	.st0{fill:#FFFFFF;}
	.st1{fill:none;stroke:#FFFFFF;stroke-width:1.1629;stroke-miterlimit:10;}
	.st2{fill:none;stroke:#FFFFFF;stroke-width:1.1629;stroke-linecap:round;stroke-linejoin:round;stroke-miterlimit:10;}
	.st3{fill:none;stroke:#FFFFFF;stroke-miterlimit:10;}
	.st4{fill:none;stroke:#FFFFFF;stroke-width:1.1581;stroke-miterlimit:10;}
</style>
<g id="XMLID_22_">
	<path id="XMLID_23_" class="st0" d="M2,52.7L0.9,49h0c0,0.8,0.1,1.3,0.1,1.5v2.2H0V48h1.4l1.1,3.6h0L3.7,48h1.4v4.7H4.1v-2.2
		c0-0.1,0-0.2,0-0.4c0-0.1,0-0.5,0-1.1h0l-1.2,3.7H2z"/>
	<path id="XMLID_25_" class="st0" d="M9.5,50.9c0,0.6-0.2,1.1-0.5,1.4c-0.3,0.3-0.7,0.5-1.3,0.5c-0.3,0-0.7-0.1-0.9-0.2
		c-0.3-0.2-0.5-0.4-0.6-0.7C6,51.6,6,51.3,6,50.9c0-0.6,0.2-1.1,0.5-1.4S7.2,49,7.7,49c0.3,0,0.7,0.1,0.9,0.2
		c0.3,0.2,0.5,0.4,0.6,0.7C9.4,50.2,9.5,50.5,9.5,50.9z M7,50.9c0,0.4,0.1,0.6,0.2,0.8C7.3,51.9,7.4,52,7.7,52
		c0.3,0,0.5-0.1,0.6-0.3c0.1-0.2,0.2-0.5,0.2-0.8c0-0.4-0.1-0.6-0.2-0.8c-0.1-0.2-0.3-0.3-0.6-0.3c-0.3,0-0.5,0.1-0.6,0.3
		C7,50.3,7,50.5,7,50.9z M7.2,48.7L7.2,48.7c0.4-0.5,0.6-0.8,0.8-1.1H9v0.1c-0.1,0.1-0.3,0.3-0.6,0.5S8,48.6,7.8,48.7H7.2z"/>
	<path id="XMLID_29_" class="st0" d="M13.6,52.7h-1v-2.1c0-0.3,0-0.5-0.1-0.6c-0.1-0.1-0.2-0.2-0.4-0.2c-0.3,0-0.5,0.1-0.6,0.3
		s-0.2,0.5-0.2,0.9v1.7h-1v-3.6H11l0.1,0.5h0.1c0.1-0.2,0.3-0.3,0.5-0.4c0.2-0.1,0.4-0.1,0.7-0.1c0.4,0,0.7,0.1,1,0.3
		c0.2,0.2,0.3,0.6,0.3,1V52.7z"/>
	<path id="XMLID_31_" class="st0" d="M17.5,52.8c-0.4,0-0.8-0.2-1-0.5c-0.2-0.3-0.4-0.8-0.4-1.4c0-0.6,0.1-1.1,0.4-1.4
		c0.2-0.3,0.6-0.5,1-0.5c0.2,0,0.4,0,0.6,0.1c0.2,0.1,0.3,0.2,0.5,0.4h0l0.1-0.5h0.8v5.2h-1v-1.5c0-0.1,0-0.3,0-0.5h0
		c-0.1,0.2-0.2,0.3-0.4,0.4S17.7,52.8,17.5,52.8z M17.9,52c0.3,0,0.4-0.1,0.6-0.2c0.1-0.1,0.2-0.4,0.2-0.8v-0.1
		c0-0.4-0.1-0.7-0.2-0.8c-0.1-0.2-0.3-0.3-0.6-0.3c-0.5,0-0.7,0.4-0.7,1.1c0,0.4,0.1,0.6,0.2,0.8C17.4,51.9,17.6,52,17.9,52z"/>
	<path id="XMLID_35_" class="st0" d="M23.1,52.7L23,52.2h-0.1c-0.1,0.2-0.3,0.3-0.5,0.4c-0.2,0.1-0.4,0.1-0.7,0.1
		c-0.4,0-0.7-0.1-1-0.3c-0.2-0.2-0.3-0.6-0.3-1v-2.4h1v2.1c0,0.3,0,0.5,0.1,0.6c0.1,0.1,0.2,0.2,0.4,0.2c0.3,0,0.5-0.1,0.6-0.3
		s0.2-0.5,0.2-0.9v-1.7h1v3.6H23.1z"/>
	<path id="XMLID_37_" class="st0" d="M27.2,52.7L27,52.2h0c-0.2,0.2-0.3,0.4-0.5,0.4s-0.4,0.1-0.7,0.1c-0.3,0-0.6-0.1-0.8-0.3
		c-0.2-0.2-0.3-0.5-0.3-0.8c0-0.4,0.1-0.7,0.4-0.9c0.3-0.2,0.7-0.3,1.2-0.3l0.6,0v-0.2c0-0.4-0.2-0.6-0.6-0.6c-0.3,0-0.6,0.1-1,0.3
		L25,49.3c0.4-0.2,0.9-0.3,1.4-0.3c0.5,0,0.9,0.1,1.1,0.3c0.3,0.2,0.4,0.5,0.4,1v2.4H27.2z M26.4,48.7c-0.1-0.1-0.3-0.2-0.6-0.5
		c-0.3-0.2-0.5-0.4-0.6-0.5v-0.1h1.1c0.1,0.2,0.4,0.5,0.8,1v0.1H26.4z M26.9,51l-0.4,0c-0.3,0-0.5,0.1-0.6,0.2
		c-0.1,0.1-0.2,0.2-0.2,0.4c0,0.3,0.2,0.4,0.5,0.4c0.2,0,0.4-0.1,0.5-0.2c0.1-0.1,0.2-0.3,0.2-0.5V51z"/>
	<path id="XMLID_41_" class="st0" d="M33.4,48h1l-1.6,4.7h-1.1L30.1,48h1l0.9,2.8c0,0.2,0.1,0.4,0.2,0.6c0.1,0.2,0.1,0.4,0.1,0.5
		c0-0.2,0.1-0.5,0.2-1L33.4,48z"/>
	<path id="XMLID_43_" class="st0" d="M34.9,48.2c0-0.3,0.2-0.5,0.5-0.5s0.5,0.2,0.5,0.5c0,0.2,0,0.3-0.1,0.4
		c-0.1,0.1-0.2,0.1-0.4,0.1C35.1,48.6,34.9,48.5,34.9,48.2z M35.9,52.7h-1v-3.6h1V52.7z"/>
	<path id="XMLID_46_" class="st0" d="M38.6,52.8c-0.6,0-1-0.2-1.4-0.5c-0.3-0.3-0.5-0.8-0.5-1.4c0-0.6,0.2-1.1,0.5-1.4
		c0.3-0.3,0.7-0.5,1.3-0.5c0.5,0,0.9,0.1,1.2,0.4c0.3,0.3,0.4,0.7,0.4,1.2v0.5h-2.3c0,0.3,0.1,0.5,0.2,0.7c0.2,0.2,0.4,0.2,0.7,0.2
		c0.2,0,0.4,0,0.6-0.1c0.2,0,0.4-0.1,0.6-0.2v0.8c-0.2,0.1-0.4,0.2-0.6,0.2C39.1,52.7,38.9,52.8,38.6,52.8z M39.2,48.7
		c-0.3-0.2-0.6-0.4-0.8-0.6c-0.2,0.2-0.4,0.4-0.7,0.6H37v-0.1c0.4-0.4,0.7-0.7,0.8-1H39c0.1,0.1,0.2,0.3,0.3,0.5
		c0.2,0.2,0.3,0.4,0.5,0.5v0.1H39.2z M38.5,49.7c-0.2,0-0.4,0.1-0.5,0.2s-0.2,0.3-0.2,0.6h1.4c0-0.2-0.1-0.4-0.2-0.6
		S38.7,49.7,38.5,49.7z M37.9,53.6c0-0.3,0.2-0.5,0.5-0.5c0.4,0,0.5,0.2,0.5,0.5c0,0.2,0,0.3-0.1,0.4c-0.1,0.1-0.2,0.1-0.4,0.1
		C38.1,54.1,37.9,53.9,37.9,53.6z"/>
	<path id="XMLID_51_" class="st0" d="M42.4,52c0.2,0,0.4,0,0.6-0.1v0.7c-0.2,0.1-0.5,0.2-0.9,0.2c-0.4,0-0.7-0.1-0.9-0.3
		C41.1,52.3,41,52,41,51.6v-1.7h-0.5v-0.4l0.5-0.3l0.3-0.8H42v0.8h1v0.7h-1v1.7c0,0.1,0,0.2,0.1,0.3C42.2,52,42.3,52,42.4,52z"/>
	<path id="XMLID_53_" class="st0" d="M47,52c0.2,0,0.4,0,0.6-0.1v0.7c-0.2,0.1-0.5,0.2-0.9,0.2c-0.4,0-0.7-0.1-0.9-0.3
		c-0.2-0.2-0.3-0.5-0.3-0.9v-1.7h-0.5v-0.4l0.5-0.3l0.3-0.8h0.6v0.8h1v0.7h-1v1.7c0,0.1,0,0.2,0.1,0.3C46.8,52,46.9,52,47,52z"/>
	<path id="XMLID_55_" class="st0" d="M50.4,49c0.1,0,0.2,0,0.3,0L50.6,50c-0.1,0-0.2,0-0.3,0c-0.3,0-0.6,0.1-0.7,0.2
		c-0.2,0.2-0.3,0.4-0.3,0.7v1.8h-1v-3.6h0.7l0.1,0.6h0c0.1-0.2,0.3-0.4,0.5-0.5C50,49.1,50.2,49,50.4,49z"/>
	<path id="XMLID_57_" class="st0" d="M54.6,50.9c0,0.6-0.2,1.1-0.5,1.4c-0.3,0.3-0.7,0.5-1.3,0.5c-0.3,0-0.7-0.1-0.9-0.2
		c-0.3-0.2-0.5-0.4-0.6-0.7c-0.1-0.3-0.2-0.6-0.2-1c0-0.6,0.2-1.1,0.5-1.4s0.7-0.5,1.3-0.5c0.3,0,0.7,0.1,0.9,0.2
		c0.3,0.2,0.5,0.4,0.6,0.7C54.5,50.2,54.6,50.5,54.6,50.9z M52.1,50.9c0,0.4,0.1,0.6,0.2,0.8c0.1,0.2,0.3,0.3,0.6,0.3
		c0.3,0,0.5-0.1,0.6-0.3c0.1-0.2,0.2-0.5,0.2-0.8c0-0.4-0.1-0.6-0.2-0.8c-0.1-0.2-0.3-0.3-0.6-0.3c-0.3,0-0.5,0.1-0.6,0.3
		C52.2,50.3,52.1,50.5,52.1,50.9z"/>
	<path id="XMLID_60_" class="st0" d="M58.8,52.7h-1v-2.1c0-0.3,0-0.5-0.1-0.6c-0.1-0.1-0.2-0.2-0.4-0.2c-0.3,0-0.5,0.1-0.6,0.3
		s-0.2,0.5-0.2,0.9v1.7h-1v-3.6h0.8l0.1,0.5h0.1c0.1-0.2,0.3-0.3,0.5-0.4c0.2-0.1,0.4-0.1,0.7-0.1c0.4,0,0.7,0.1,1,0.3
		c0.2,0.2,0.3,0.6,0.3,1V52.7z"/>
	<path id="XMLID_62_" class="st0" d="M62.9,52.7c0,0.5-0.2,0.9-0.5,1.2c-0.3,0.3-0.8,0.4-1.4,0.4c-0.5,0-1-0.1-1.4-0.2v-0.8
		c0.4,0.2,0.9,0.3,1.4,0.3c0.5,0,0.8-0.3,0.8-0.8v-0.1l0-0.4h0c-0.2,0.4-0.6,0.5-1,0.5c-0.4,0-0.8-0.2-1-0.5
		c-0.2-0.3-0.4-0.8-0.4-1.4c0-0.6,0.1-1.1,0.4-1.4c0.2-0.3,0.6-0.5,1-0.5c0.4,0,0.8,0.2,1,0.5h0l0.1-0.5h0.8V52.7z M61.3,52
		c0.3,0,0.5-0.1,0.6-0.2C62,51.6,62,51.4,62,51v-0.1c0-0.4-0.1-0.7-0.2-0.8s-0.3-0.3-0.6-0.3c-0.5,0-0.7,0.4-0.7,1.1
		c0,0.4,0.1,0.6,0.2,0.8C60.8,51.9,61,52,61.3,52z"/>
	<path id="XMLID_65_" class="st0" d="M3.3,60.7h-1v-2.1c0-0.3,0-0.5-0.1-0.6c-0.1-0.1-0.2-0.2-0.4-0.2c-0.3,0-0.4,0.1-0.6,0.3
		C1.1,58.2,1,58.5,1,59v1.7H0V57h0.8l0.1,0.5H1c0.1-0.2,0.2-0.3,0.4-0.4C1.6,57,1.8,57,2,57c0.5,0,0.9,0.2,1.1,0.5h0.1
		c0.1-0.2,0.2-0.3,0.4-0.4C3.8,57,4.1,57,4.3,57c0.4,0,0.7,0.1,0.9,0.3s0.3,0.5,0.3,1v2.4h-1v-2.1c0-0.3,0-0.5-0.1-0.6
		c-0.1-0.1-0.2-0.2-0.4-0.2c-0.2,0-0.4,0.1-0.5,0.3c-0.1,0.2-0.2,0.4-0.2,0.8V60.7z"/>
	<path id="XMLID_67_" class="st0" d="M8.8,60.7l-0.2-0.5h0c-0.2,0.2-0.3,0.4-0.5,0.4s-0.4,0.1-0.7,0.1c-0.3,0-0.6-0.1-0.8-0.3
		c-0.2-0.2-0.3-0.5-0.3-0.8c0-0.4,0.1-0.7,0.4-0.9c0.3-0.2,0.7-0.3,1.2-0.3l0.6,0v-0.2c0-0.4-0.2-0.6-0.6-0.6c-0.3,0-0.6,0.1-1,0.3
		l-0.3-0.7C7.1,57.1,7.5,57,8,57c0.5,0,0.9,0.1,1.1,0.3c0.3,0.2,0.4,0.5,0.4,1v2.4H8.8z M9.2,55.6c0,0.3-0.1,0.6-0.4,0.8
		S8.4,56.6,8,56.6c-0.4,0-0.6-0.1-0.8-0.3s-0.3-0.5-0.3-0.8h0.5c0,0.2,0.1,0.3,0.2,0.4s0.3,0.1,0.5,0.1c0.2,0,0.3-0.1,0.5-0.2
		c0.1-0.1,0.2-0.2,0.2-0.4H9.2z M8.6,59l-0.4,0c-0.3,0-0.5,0.1-0.6,0.2c-0.1,0.1-0.2,0.2-0.2,0.4c0,0.3,0.2,0.4,0.5,0.4
		c0.2,0,0.4-0.1,0.5-0.2c0.1-0.1,0.2-0.3,0.2-0.5V59z M7.7,55.7c0.2-0.2,0.3-0.4,0.4-0.7h0.7v0.1c-0.2,0.2-0.4,0.5-0.7,0.7L7.7,55.7
		L7.7,55.7z"/>
	<path id="XMLID_72_" class="st0" d="M12.1,59.9c0.2,0,0.4,0,0.6-0.1v0.7c-0.2,0.1-0.5,0.2-0.9,0.2c-0.4,0-0.7-0.1-0.9-0.3
		c-0.2-0.2-0.3-0.5-0.3-0.9v-1.7h-0.5v-0.4l0.5-0.3l0.3-0.8h0.6V57h1v0.7h-1v1.7c0,0.1,0,0.2,0.1,0.3C11.8,59.9,11.9,59.9,12.1,59.9
		z"/>
	<path id="XMLID_74_" class="st0" d="M17.2,57c0.4,0,0.8,0.2,1,0.5s0.4,0.8,0.4,1.4c0,0.6-0.1,1.1-0.4,1.4c-0.2,0.3-0.6,0.5-1,0.5
		c-0.4,0-0.8-0.2-1-0.5h-0.1l-0.2,0.4h-0.8v-5h1v1.2c0,0.1,0,0.4,0,0.7h0C16.4,57.2,16.7,57,17.2,57z M16.8,57.8
		c-0.2,0-0.4,0.1-0.5,0.2s-0.2,0.4-0.2,0.7v0.1c0,0.4,0.1,0.7,0.2,0.8c0.1,0.2,0.3,0.3,0.5,0.3c0.2,0,0.4-0.1,0.5-0.3
		c0.1-0.2,0.2-0.5,0.2-0.8s-0.1-0.6-0.2-0.8C17.2,57.9,17.1,57.8,16.8,57.8z"/>
	<path id="XMLID_77_" class="st0" d="M21.6,60.7l-0.2-0.5h0c-0.2,0.2-0.3,0.4-0.5,0.4s-0.4,0.1-0.7,0.1c-0.3,0-0.6-0.1-0.8-0.3
		c-0.2-0.2-0.3-0.5-0.3-0.8c0-0.4,0.1-0.7,0.4-0.9c0.3-0.2,0.7-0.3,1.2-0.3l0.6,0v-0.2c0-0.4-0.2-0.6-0.6-0.6c-0.3,0-0.6,0.1-1,0.3
		l-0.3-0.7c0.4-0.2,0.9-0.3,1.4-0.3c0.5,0,0.9,0.1,1.1,0.3c0.3,0.2,0.4,0.5,0.4,1v2.4H21.6z M21.4,59L21,59c-0.3,0-0.5,0.1-0.6,0.2
		c-0.1,0.1-0.2,0.2-0.2,0.4c0,0.3,0.2,0.4,0.5,0.4c0.2,0,0.4-0.1,0.5-0.2c0.1-0.1,0.2-0.3,0.2-0.5V59z M20.2,61.6
		c0-0.3,0.2-0.5,0.5-0.5c0.4,0,0.5,0.2,0.5,0.5c0,0.2,0,0.3-0.1,0.4c-0.1,0.1-0.2,0.1-0.4,0.1C20.4,62.1,20.2,61.9,20.2,61.6z"/>
	<path id="XMLID_81_" class="st0" d="M26.7,60.7h-1v-2.1c0-0.3,0-0.5-0.1-0.6c-0.1-0.1-0.2-0.2-0.4-0.2c-0.3,0-0.5,0.1-0.6,0.3
		s-0.2,0.5-0.2,0.9v1.7h-1V57h0.8l0.1,0.5h0.1c0.1-0.2,0.3-0.3,0.5-0.4c0.2-0.1,0.4-0.1,0.7-0.1c0.4,0,0.7,0.1,1,0.3
		c0.2,0.2,0.3,0.6,0.3,1V60.7z"/>
	<path id="XMLID_83_" class="st0" d="M31.4,57c0.4,0,0.8,0.2,1,0.5s0.4,0.8,0.4,1.4c0,0.6-0.1,1.1-0.4,1.4c-0.2,0.3-0.6,0.5-1,0.5
		c-0.4,0-0.8-0.2-1-0.5h-0.1l-0.2,0.4h-0.8v-5h1v1.2c0,0.1,0,0.4,0,0.7h0C30.7,57.2,31,57,31.4,57z M31.1,57.8
		c-0.2,0-0.4,0.1-0.5,0.2s-0.2,0.4-0.2,0.7v0.1c0,0.4,0.1,0.7,0.2,0.8c0.1,0.2,0.3,0.3,0.5,0.3c0.2,0,0.4-0.1,0.5-0.3
		c0.1-0.2,0.2-0.5,0.2-0.8s-0.1-0.6-0.2-0.8C31.5,57.9,31.3,57.8,31.1,57.8z"/>
	<path id="XMLID_86_" class="st0" d="M35.3,60.7c-0.6,0-1-0.2-1.4-0.5c-0.3-0.3-0.5-0.8-0.5-1.4c0-0.6,0.2-1.1,0.5-1.4
		c0.3-0.3,0.7-0.5,1.3-0.5c0.5,0,0.9,0.1,1.2,0.4c0.3,0.3,0.4,0.7,0.4,1.2v0.5h-2.3c0,0.3,0.1,0.5,0.2,0.7c0.2,0.2,0.4,0.2,0.7,0.2
		c0.2,0,0.4,0,0.6-0.1c0.2,0,0.4-0.1,0.6-0.2v0.8c-0.2,0.1-0.4,0.2-0.6,0.2C35.8,60.7,35.6,60.7,35.3,60.7z M35.1,56.6
		c-0.1-0.1-0.3-0.2-0.6-0.5c-0.3-0.2-0.5-0.4-0.6-0.5v-0.1H35c0.1,0.2,0.4,0.5,0.8,1v0.1H35.1z M35.1,57.7c-0.2,0-0.4,0.1-0.5,0.2
		s-0.2,0.3-0.2,0.6h1.4c0-0.2-0.1-0.4-0.2-0.6S35.3,57.7,35.1,57.7z"/>
	<path id="XMLID_90_" class="st0" d="M40.4,60.7c-0.4,0-0.8-0.2-1-0.5c-0.2-0.3-0.4-0.8-0.4-1.4c0-0.6,0.1-1.1,0.4-1.4
		c0.2-0.3,0.6-0.5,1-0.5c0.2,0,0.4,0,0.6,0.1c0.2,0.1,0.3,0.2,0.5,0.4h0l0.1-0.5h0.8v5.2h-1v-1.5c0-0.1,0-0.3,0-0.5h0
		c-0.1,0.2-0.2,0.3-0.4,0.4S40.6,60.7,40.4,60.7z M40.8,60c0.3,0,0.4-0.1,0.6-0.2c0.1-0.1,0.2-0.4,0.2-0.8v-0.1
		c0-0.4-0.1-0.7-0.2-0.8c-0.1-0.2-0.3-0.3-0.6-0.3c-0.5,0-0.7,0.4-0.7,1.1c0,0.4,0.1,0.6,0.2,0.8C40.3,59.9,40.5,60,40.8,60z"/>
	<path id="XMLID_93_" class="st0" d="M46,60.7l-0.1-0.5h-0.1c-0.1,0.2-0.3,0.3-0.5,0.4c-0.2,0.1-0.4,0.1-0.7,0.1
		c-0.4,0-0.7-0.1-1-0.3c-0.2-0.2-0.3-0.6-0.3-1V57h1v2.1c0,0.3,0,0.5,0.1,0.6c0.1,0.1,0.2,0.2,0.4,0.2c0.3,0,0.5-0.1,0.6-0.3
		s0.2-0.5,0.2-0.9V57h1v3.6H46z"/>
	<path id="XMLID_95_" class="st0" d="M51.1,58.8c0,0.6-0.2,1.1-0.5,1.4c-0.3,0.3-0.7,0.5-1.3,0.5c-0.3,0-0.7-0.1-0.9-0.2
		c-0.3-0.2-0.5-0.4-0.6-0.7c-0.1-0.3-0.2-0.6-0.2-1c0-0.6,0.2-1.1,0.5-1.4s0.7-0.5,1.3-0.5c0.3,0,0.7,0.1,0.9,0.2
		c0.3,0.2,0.5,0.4,0.6,0.7C51,58.1,51.1,58.5,51.1,58.8z M50.5,56.6H50c-0.2-0.2-0.5-0.3-0.7-0.5c-0.2,0.2-0.5,0.4-0.7,0.5h-0.5
		v-0.1c0.2-0.3,0.5-0.6,0.7-0.9h1c0.1,0.2,0.2,0.3,0.4,0.5C50.4,56.4,50.5,56.5,50.5,56.6L50.5,56.6z M48.6,58.8
		c0,0.4,0.1,0.6,0.2,0.8c0.1,0.2,0.3,0.3,0.6,0.3c0.3,0,0.5-0.1,0.6-0.3c0.1-0.2,0.2-0.5,0.2-0.8c0-0.4-0.1-0.6-0.2-0.8
		c-0.1-0.2-0.3-0.3-0.6-0.3c-0.3,0-0.5,0.1-0.6,0.3C48.7,58.2,48.6,58.5,48.6,58.8z M50.3,55.9c0.2-0.2,0.3-0.4,0.4-0.7h0.8v0.1
		c-0.1,0.2-0.4,0.4-0.7,0.7L50.3,55.9L50.3,55.9z"/>
	<path id="XMLID_100_" class="st0" d="M53.4,60.7c-1.1,0-1.7-0.6-1.7-1.9c0-0.6,0.2-1.1,0.5-1.4c0.3-0.3,0.7-0.5,1.3-0.5
		c0.4,0,0.8,0.1,1.1,0.2L54.3,58c-0.2-0.1-0.3-0.1-0.4-0.2s-0.3-0.1-0.4-0.1c-0.5,0-0.8,0.4-0.8,1.1c0,0.7,0.3,1.1,0.8,1.1
		c0.2,0,0.4,0,0.5-0.1c0.2-0.1,0.3-0.1,0.5-0.2v0.8c-0.2,0.1-0.3,0.2-0.5,0.2C53.9,60.7,53.6,60.7,53.4,60.7z"/>
	<path id="XMLID_102_" class="st0" d="M58.6,59.9c0.2,0,0.4,0,0.6-0.1v0.7c-0.2,0.1-0.5,0.2-0.9,0.2c-0.4,0-0.7-0.1-0.9-0.3
		c-0.2-0.2-0.3-0.5-0.3-0.9v-1.7h-0.5v-0.4l0.5-0.3l0.3-0.8h0.6V57h1v0.7h-1v1.7c0,0.1,0,0.2,0.1,0.3C58.3,59.9,58.5,59.9,58.6,59.9
		z"/>
	<path id="XMLID_104_" class="st0" d="M61.6,60.7c-0.6,0-1-0.2-1.4-0.5c-0.3-0.3-0.5-0.8-0.5-1.4c0-0.6,0.2-1.1,0.5-1.4
		c0.3-0.3,0.7-0.5,1.3-0.5c0.5,0,0.9,0.1,1.2,0.4c0.3,0.3,0.4,0.7,0.4,1.2v0.5h-2.3c0,0.3,0.1,0.5,0.2,0.7c0.2,0.2,0.4,0.2,0.7,0.2
		c0.2,0,0.4,0,0.6-0.1c0.2,0,0.4-0.1,0.6-0.2v0.8c-0.2,0.1-0.4,0.2-0.6,0.2C62.1,60.7,61.9,60.7,61.6,60.7z M62.6,56.6h-0.5
		c-0.2-0.2-0.5-0.3-0.7-0.5c-0.2,0.2-0.5,0.4-0.7,0.5h-0.5v-0.1c0.2-0.3,0.5-0.6,0.7-0.9h1c0.1,0.2,0.2,0.3,0.4,0.5
		C62.5,56.4,62.6,56.5,62.6,56.6L62.6,56.6z M61.4,57.7c-0.2,0-0.4,0.1-0.5,0.2s-0.2,0.3-0.2,0.6h1.4c0-0.2-0.1-0.4-0.2-0.6
		S61.6,57.7,61.4,57.7z M62.3,55.9c0.2-0.2,0.3-0.4,0.4-0.7h0.8v0.1c-0.1,0.2-0.4,0.4-0.7,0.7L62.3,55.9L62.3,55.9z"/>
</g>
<rect id="XMLID_361_" x="20.4" y="0.6" class="st1" width="21.5" height="11.5"/>
<polygon id="XMLID_9_" class="st2" points="31.2,2.4 32.1,5.2 34.9,5.1 32.6,6.8 33.5,9.5 31.2,7.8 28.9,9.5 29.8,6.8 27.5,5.1 
	30.4,5.2 "/>
<polyline id="XMLID_8_" class="st3" points="11.1,44 11.1,43.7 11.1,28.5 53.1,28.5 53.1,44 "/>
<polyline id="XMLID_7_" class="st3" points="53.1,67 53.1,85.5 35.9,85.5 35.7,85.5 27.7,85.5 11.1,85.5 11.1,67.1 11.1,67 "/>
<rect id="XMLID_357_" x="11.3" y="28.4" class="st4" width="42" height="8.4"/>
<polyline id="XMLID_6_" class="st3" points="28.1,44 28.1,43.7 28.1,37.5 36.1,37.5 36.1,44 "/>
<polyline id="XMLID_5_" class="st3" points="36.1,67 36.1,85.5 28.1,85.5 28.1,67.1 28.1,67 "/>
<path id="XMLID_354_" class="st1" d="M27.1,17.4c1.9,1.9,4.2,10.9,4.2,10.9s-9.1-2.4-10.9-4.2c-1.9-1.9-1.9-4.9,0-6.7
	C22.2,15.6,25.2,15.6,27.1,17.4z"/>
<path id="XMLID_353_" class="st1" d="M36.2,17.4C34.4,19.3,32,28.4,32,28.4S41.1,26,43,24.2c1.9-1.9,1.9-4.9,0-6.7
	C41.1,15.6,38.1,15.6,36.2,17.4z"/>
<path id="XMLID_4_" class="st3" d="M5.7,10.5c0,0-1.6,14.3,19.4,16.4c0,0-14-4.4-14-16.4H5.7z"/>
<path id="XMLID_3_" class="st3" d="M58,10.5c0,0,1.6,14.3-19.4,16.4c0,0,14-4.4,14-16.4H58z"/>
</svg>
