<?xml version="1.0" encoding="utf-8"?>
<!-- Generator: Adobe Illustrator 19.0.0, SVG Export Plug-In . SVG Version: 6.00 Build 0)  -->
<svg version="1.1" id="Layer_1" xmlns="http://www.w3.org/2000/svg" xmlns:xlink="http://www.w3.org/1999/xlink" x="0px" y="0px"
	 viewBox="0 0 427 294.6" style="enable-background:new 0 0 427 294.6;" xml:space="preserve">
<style type="text/css">
	.st0{fill:#3A9FA1;}
	.st1{fill:#BBA57F;}
	.st2{fill:#F2612A;}
	.st3{fill:#DF3F27;}
	.st4{fill:none;}
	.st5{fill:#12517A;}
	.st6{fill:#14385E;}
	.st7{fill:#F7FAF3;}
	.st8{fill:#C1E1E2;}
	.st9{fill:#DA4127;}
	.st10{fill:#F0A820;}
	.st11{fill:#6ABDDC;}
	.st12{fill:#B2BE4D;}
	.st13{fill:#F8AB29;}
	.st14{fill:#C0E0DB;}
	.st15{fill:#EDF2D4;}
	.st16{fill:none;stroke:#EDF2D4;stroke-width:3;stroke-miterlimit:10;}
	.st17{fill:none;stroke:#EDF2D4;stroke-width:3;stroke-miterlimit:10;stroke-dasharray:12.123,12.123;}
</style>
<g>
	<circle class="st0" cx="378.3" cy="82.5" r="41"/>
	<path id="XMLID_7_" class="st1" d="M354.2,83.6c0.5-0.9,0.4-1.3,0.4-1.3s-1.1-0.4-1.5,0c-0.4,0.4-1.4,0.9-1.4,0.9s-1.4,0.2-1.5-0.3
		c-0.1-0.6-0.6-1.9-0.3-3c0.3-1.1,1.2-1.4,1.7-1.7c0.5-0.2,1.9,0.2,1.9,0.2l0.9-0.4h1.1l1.2,2.4c0,0,0.6,0.5,0.8,0
		c0.2-0.5,0-3.5,0-3.5s1.8-1.2,2.3-1.1c0.5,0.1,0.4-0.9,0.4-0.9h0.4l0.3-2l2.2-1.7l0.1-0.9c0,0-0.1-0.6,0.6-0.5
		c0.7,0.1,0.9,0.2,1.4,0.3c0.4,0.1,1.8-0.9,1.8-0.9l-0.1-0.6c0,0,0.8,0.2,1,0.6c0.2,0.4,0-1.1,0-1.1l-0.7-0.6l-0.6,0.3l-0.7,0.2
		c0,0-0.6-0.3-0.6-0.6c0.1-0.2,0.6-0.5,0.6-0.5l-0.4-0.9h0.5l0.8,0.8l0.7-0.6c0,0,0.6-0.4,0.5,0c-0.1,0.4-0.4,1.5-0.1,1.6
		c0.3,0.1,2.1,0.6,2.1,0.6l0.2,0.3l0.8-0.6l-0.4-1c0,0-0.3-1.1-0.6-1c-0.3,0.1,0.1-0.6,0.3-0.7c0.2-0.1-0.4-0.9-0.4-0.9l-0.4-1
		l-1.2-1.1l-0.7-0.8c0,0,0.1-1.2,0.1-1.6c-0.1-0.4-0.8-0.7-0.8-0.7l-0.7,0.6l-0.9-0.1l-0.9-1.7l-1.4-0.6l-0.7-0.7l-1,1.4
		c0,0-0.6,2.2-0.2,2.7s0.1,1.1-0.4,1.4c-0.5,0.3-1.1,0.8-1,1.6c0.1,0.7-0.8,0.7-0.7-0.2c0.1-0.9-0.9-1.9-1.2-2.1
		c-0.2-0.2-1.1-0.6-1.5-0.7c-0.4-0.1-1.1-0.5-1-0.8c0.1-0.3,0.9-1.4,1.1-1.6c0.2-0.2,1.5-1.4,1.5-1.4l0.7,0.1c0,0,0.7,0.9,0.9,1
		c0.2,0.1,0.9-0.2,0.9-0.2l-0.4-0.9c0,0,0.7-0.7,0.9-0.4c0.2,0.2,0.6-0.1,0.6-0.1l-1.2-1.3c0,0,0.1-0.6,0.4-0.6s1.2-1,1.2-1
		l-0.7-0.8H360c0,0-0.2-0.1-0.3,0.5c-0.1,0.6-0.4,0.5-0.4,0.5l-0.1-1.3l-0.6,0.7l-0.9-1.4h-1c0,0-0.1,1,0.1,1.2
		c0.2,0.2-0.2,0.5-0.2,0.5l-0.4-0.9l-0.6,0.7l-0.6,0.5H354l0.9-1.2l-0.9-1.2l0.6-0.5l0.1-0.8l-0.9,0.7l-1,0.3l-1.2,0.4l-1.2,0.8
		l-0.3,0.5v0.7l-0.6,0.6l-0.9-0.2l-2.7,3.2c0,0-3.7,5.6-3.7,5.9c0,0.3-0.3,2.7-0.5,4c-0.2,1.4,0,2.6,0,2.6l-0.6,0.2v3.1l0.1,2.3
		l0.9,0.4v2.3l1.1,0.9l1,0.8l0.2,1.5l0.9-0.2c0,0,0.5-0.7,0.9-0.4c0.4,0.3-0.1,2-0.1,2l1.4,1.4l1.2,0.9c0,0,1.6,0.7,2,0.6
		c0.3-0.1,0.4,0.1,0.8,0.6l2.6-1.6C353.9,84.4,353.9,84.1,354.2,83.6z"/>
	<path class="st1" d="M378.2,96.7c0,0-1.7-2.1-5-2.6c-3.4-0.6-5-3.2-5.4-4.1c-0.4-0.9-0.7-1.3-3.4-2.1c-2.6-0.7-2.1-1.5-4.1-1.7
		s-1.5,2.1-3,2.1c-1.5,0-2.4-0.2-2.1-2.1s-1.1-1.2-1.1-1.2s-0.1-0.1-0.2-0.4l-2.6,1.6c0.1,0.2,0.3,0.5,0.6,0.9
		c0.8,1.3,1.2,2.2,1.3,2.6s1.1,2.4,1.1,2.4l1.5,0.4l1.1,1.4l-0.6,0.7l0.4,1.1c0,0-0.8,0.4-0.7,0.7c0.1,0.4,1.2,1.2,1.2,1.2l0.4,1.3
		l-0.1,0.9c0,0,1,0.2,1.4,1.4s2.1,2.2,2.3,3.4c0.2,1.2,0.2,4.4,0.2,4.4l0.1,3c0,0-0.2,0.1-0.6,0.8c-0.3,0.7,0.2,1.9,0.2,1.9
		l-0.2,1.3l0.2,1.8c0,0,0.5,1.4,0.8,1.7c0.3,0.2,0.8,0.8,0.8,0.8l3.6,1.3l-2-1.6l1.1-1.9c0,0,1.2-0.8,0-1.5c-1.2-0.7,1-2.6,1-2.6
		s2.6-0.2,3-1.5c0.4-1.3,3-4.1,3.2-5.2c0.2-1.1,2.1-0.6,2.6-1.9c0.6-1.3-1.1-3.9,0-5.8C376.4,98,378.2,96.7,378.2,96.7z"/>
	<path id="XMLID_6_" class="st1" d="M362.3,56.3c0,0,1.6-0.3,1.8,0.2c0.2,0.5,0.2,1,0.2,1l1.1,0.2c0,0,0,0.6,0.4,0.7
		c0.4,0.1,1.1,0,1.1,0v-0.5l-0.7-0.6l0.5,0.3l0.2,0v-0.7l0-1l-0.6-0.4c0,0,0.1-0.3,0.4-0.2c0.3,0.1,1.1,0.9,1.1,0.9l1.2-0.4l0.9-0.5
		v-0.6l-1.4-0.5l-1.1-0.4l-0.3-0.5c0,0,0.3,0.2,0.4,0c0.1-0.2-0.1-0.6-0.3-0.9c-0.3-0.3-1.1-1.1-1.1-1.1l-0.4,0.2l-0.7-0.6l-0.2-0.9
		h-1.6l-0.5-0.1l-0.5,0.1h-1.2c0,0-0.9,0.1-1.1,0.2c-0.2,0.2-0.7,0.6-0.7,0.9s0,0.9,0,0.9l0.4,0.5l1.5,0.1l1,0.7
		c0,0,0.5,0.9,0.3,1.3C362.3,54.9,362.3,56.3,362.3,56.3z"/>
	<path id="XMLID_5_" class="st1" d="M357.7,51.3l0.8-0.6l0.8-0.4l0.2-0.5l-0.9-0.3l-0.6-0.2V49c0,0-0.3-0.1-0.4,0s-0.4,0.2-0.2,0.5
		c0.1,0.2,0.3,0.2,0.3,0.2l-0.1,0.6l-0.5,0.5v0.4L357.7,51.3z"/>
	<path id="XMLID_4_" class="st1" d="M361.4,49h0.7l1.8,0.3v-0.7c0,0-0.2-0.3,0.2-0.3c0.4,0,0.6,0.8,0.8,0s-0.2-0.6,0.4-1.1
		c0.6-0.5,0.5-0.7,1.1-1.1c0.6-0.3,0.4-0.4,1.2-0.4c0.8,0,0.6,0.3,0.8,0c0.2-0.3,0.2-0.5,0.4-0.7c0.2-0.1,0.7,0,0.7,0
		s0.3-0.4,0.6-0.6c0.3-0.1,0.6-0.4,0.8-0.3c0.3,0.1,0.2,0.8,0.3,0.1s0.6-1,0-1.3c-0.6-0.3-2.1,0-2.1,0s-1.4,0.1-1.5,0.5
		c-0.2,0.4,0,0.7-0.5,0.4c-0.5-0.3-0.5-0.6-1-0.3c-0.5,0.3-0.6,0.7-1.4,0.7c-0.8,0.1-1-0.2-1.4,0.1c-0.5,0.3-0.4,0.3-1.1,0.4
		c-0.7,0.1-1.1,0.2-0.9,0.5c0.2,0.3-0.8,0.4-0.8,0.4l-0.8,0.5l-0.3,0.4l0.2,0.5l0.6,0l0.3,0.4l-0.3,0.2l0.4,0.5l-0.7,0l-0.9-0.1
		l0.4-0.4l-0.2-0.4l-0.2-0.5h-1.1v0.3v0.6v0.4l-0.1,0.1l1.2,0.6l0.4,0.2l1.4,0L361.4,49z"/>
	<path id="XMLID_3_" class="st1" d="M375.3,60.1l1.1-1.2L377,58h0v-1.2c0,0,0.5-0.8,1-1.1s1.2-0.4,1.5-0.4s1-0.1,1.3-0.5
		c0.2-0.3,0-0.2,0.5-0.5c0.5-0.3,1.7-0.4,1.7-0.4h1.3l0.9-1l-0.2-1h1.2c0,0,0-0.8-0.4-1.3c-0.3-0.5,0.4-1.7,0.4-1.7h0.7l0.4-0.4
		l-0.4-0.4c0,0,0.7-0.1,0.4-0.3c-0.2-0.2-0.5-0.7-0.6-0.7c-0.1-0.1-0.2-0.8-0.2-0.8l0.6-0.2l0.6-0.1h0.4v-1h0.7c0,0,0.9-0.1,0.6-0.4
		c-0.3-0.4-1.4-0.6-1.4-0.6h-1h-1.1l-0.1-0.7l-0.7-0.2l-1.3-0.1h-3.5c0,0-1.3-0.4-1.9,0c-0.6,0.4-1.2,0.3-1.6,0.3s-0.7,0.1-1.1,0.2
		c-0.3,0.1-2.1,0.1-2.2,0.1c-0.2,0-1.7,0.1-1.7,0.1l-1.1,0.9l-1.3,0.6l-1.2,1.1c0,0-1-0.1-1.2,0s-0.2,0.5,0,0.7
		c0.2,0.2,0.2,0.7,0.2,0.8c0,0.1,0.1,0.4,0.3,0.5s0.4,0.3,0.6,0.6s0,0.2,1,0c1-0.2,0.9,1,1.1,1.4c0.2,0.4,1.2,1,1.5,1.6s0.8-0.4,1,0
		c0.2,0.4-0.3,2.2-0.3,2.2s-0.1,1.4,0,1.4c0.1,0.1,0,0.7,0.8,1.5c0.8,0.8,0.2,1.1,0.5,1.7c0.3,0.7,0.1,0.8,0.9,1.1
		C375.3,60.1,375.3,60.1,375.3,60.1z"/>
	<path id="XMLID_2_" class="st1" d="M408.1,57.2c0,0,0.6-0.7-0.2-1.2c-0.8-0.5-1.5-0.8-1.6-1c0-0.1-0.6-0.7-0.6-0.7l-0.5-0.3h-0.3
		v-0.2l-0.6,0.2h-0.8h-0.4h-1.1l-0.4-0.1l-1.2-0.1l-0.8,0.4l-0.7,0.1v1l-0.5,0.5L398,57l-1.1,0.7l-0.9,1v0.7l0.3,1.2l0.3,1.2l1-0.2
		l1.1-0.3l0.1,0.9l-0.1,0.9l-0.3,0.4l-0.3-0.5l0.3-1.2l-1,0.4l-0.3,0.7v0.7l-0.7,0.7l-0.9,0.7l-1,1.3l-0.8,0.5l-0.9,0.3l-0.5,0.5
		c0,0-0.9-0.5-0.6,0c0.4,0.5,1.1,1.1,1.1,1.1l0.2,0.8c0,0,0,0.6-0.4,0.7c-0.4,0-1.8,0-1.8,0l-1.8,0.4V71v0.7l0.2,0.8l-0.1,0.9
		l0.6,0.7c0,0,0.3,0.7,1.1,0.4c0.7-0.3,2.2-0.3,2.2-0.3l1-0.8l0.1-1.3l1-0.4l0.8-0.9c0,0,1.3,0,1.6-0.1c0.3-0.1,0.6-0.2,0.6-0.2
		l0.6,1l0.6,0.8l1.4,0.7l0.9,0l0.8-0.1l0.5,0.9l0.3,0.9l0.6,0.4h0.9l0.6-2.4l0.1,0.3l-0.1,0.8l0.3,0.7l0.5,0.8L406,76h1.3h0.7
		l-0.1-0.1l-0.4,0.1h0.8l0,0.6c0,0,0.3,0.1,0,0.5c-0.3,0.5-0.8,0.9-1.2,0.8s-1.5-0.3-1.5-0.3l-1.5-0.6l-1.4-0.9h-0.4l-0.6,1.2
		l-0.5,0.2l-0.8-0.8l-1.3-0.3l-1.4-0.7v-1l-0.1-0.7l-2.3,0.2c0,0-2.7,0.5-2.9,0.7c-0.2,0.2-1.6,0.1-1.6,0.1l-1.7,0.8l-1.4,1.5v1.1
		l-0.9,0.3l-1.1,1.9v1.1c0,0-0.6,0.8-0.3,1.2c0.3,0.4,0.7,0.5,0.6,1.2c-0.1,0.7-0.5,0.5-0.5,1.5s-0.5,2.1,0.3,2.7
		c0.7,0.7,1,1.5,1.6,2c0.6,0.5,1.6,1.4,1.8,1.4c0.2,0,1.4,0,1.4,0s0.3-0.6,0.5-0.2c0.2,0.4,0.8,0.8,1.3,0.7c0.5-0.1,1.2-0.7,1.2-0.7
		s0.9-0.4,1.2-0.3c0.3,0.1,0.8,0,0.9,0.5c0.1,0.4,0.5,0.2,1.1,0.5c0.6,0.3,0.5,1.7,0.5,1.7s-0.8,0.8-0.5,0.9c0.3,0.1,0.7,1,0.9,1.2
		c0.2,0.2,1.3,2.6,1.3,2.8s-0.1,1.1,0,1.4c0,0.3-1.2,2-1.2,2.5s0.2,0.8,0.6,1.3s0.9,1.7,0.8,2.1c-0.1,0.4-0.4,1.6-0.2,2.1
		c0.2,0.5,0.7,1.7,0.7,1.7l0.2,1.7c0,0,0.3,0.5,0.8,0.5c0.5,0,1.4-0.4,1.6-0.4c0.2,0,0.5-0.4,1.7-0.5c1.2-0.1,2.5-3.3,2.5-3.3
		s0.4-1,0.6-1.3c0.2-0.3,0.7-0.8,0.7-1.4s0-1,1.3-1.7c1.3-0.7,1.5-2.4,1.5-2.4V96c0,0,2.9-2.4,3.3-3.2c0.4-0.7,1.4-3.6,1.4-3.6
		s0.1-0.8,0-1c-0.1-0.2,0-0.2-0.9,0c-1,0.2-2.2,0.6-2.2,0.6l-0.4-1.4l-1.4-1.4l-0.3-1.2l-0.9-1.4l-0.7-2.4l-0.3-0.9l-0.9-0.6
		l0.8,0.1l0.3-0.6l0.4,0.6l0.7,0.9l0.5,1.8l1.3,1.8l0.7,1.7c0,0,0.3,1.4,0.5,1.5c0.2,0.2,0.9,0.1,0.9,0.1l3.9-2.1l0.7-1.8l-0.2-1.8
		l-0.6-0.8l-1.4,0.4l-0.8-0.5l-0.8-1.4l0.4-0.9l0.7,1l0.4,0.9c0,0,0.6,0.3,0.9,0.3c0.3,0,0.9-0.1,0.9-0.1l0.5,0.7l0.9,0.2l0.2-0.3
		c0,0,0.5-11.9-8.5-24c-0.5-0.4-0.6,0.6-0.6,0.6l-1.2-0.2L408.1,57.2z"/>
	<path id="XMLID_1_" class="st1" d="M411.4,103.9l-0.5,1.4v1.1l0.7-0.2l0.8-1l0.5-2.4l0-1.1v-0.7v-1.1l-0.2,1.2c0,0,0.1,0.7-0.1,0.7
		c-0.2,0.1-0.9,0.1-0.9,0.1l-0.8,0.9v0.7L411.4,103.9z"/>
</g>
<g>
	<rect x="325.9" y="130.8" class="st2" width="17.8" height="13.7"/>
	
		<rect x="315.5" y="156" transform="matrix(-0.511 0.8596 -0.8596 -0.511 628.8837 -27.9905)" class="st2" width="13.7" height="17.8"/>
	
		<rect x="314" y="98.3" transform="matrix(-0.7868 -0.6172 0.6172 -0.7868 507.1758 389.6559)" class="st2" width="13.7" height="17.8"/>
	
		<rect x="255.5" y="100.6" transform="matrix(-0.6882 0.7255 -0.7255 -0.6882 522.3962 -5.4427)" class="st3" width="13.7" height="17.8"/>
	<rect x="242.1" y="130.8" class="st3" width="17.8" height="13.7"/>
	
		<rect x="253.2" y="157.3" transform="matrix(0.6389 0.7693 -0.7693 0.6389 221.7315 -140.0358)" class="st3" width="13.7" height="17.8"/>
	<g>
		<path class="st4" d="M269.2,136.7c0-12.6,10.1-22.8,22.6-23V113c-13.7,0.3-24.7,11.5-24.7,25.3s11,25,24.7,25.3v-4
			C279.3,159.5,269.2,149.3,269.2,136.7z"/>
		<path class="st3" d="M291.8,169.7v-6c-13.7-0.3-24.7-11.5-24.7-25.3s11-25,24.7-25.3v-6.7h-6.5v-8.5c-19.3,3.4-34,20.2-34,40.5
			c0,20.2,14.6,37,33.8,40.5v-9.1H291.8z"/>
		<path class="st3" d="M291.8,88.5h-6.5v9.3c2.1-0.4,4.3-0.6,6.5-0.6V88.5z"/>
		<path class="st3" d="M291.8,106.3v-9.2c-2.2,0-4.4,0.2-6.5,0.6v8.5H291.8z"/>
		<path class="st3" d="M285.2,178.8v8.8h6.6v-8.1C289.6,179.4,287.4,179.2,285.2,178.8z"/>
		<path class="st3" d="M291.8,169.7h-6.6v9.1c2.2,0.4,4.4,0.6,6.6,0.6V169.7z"/>
		<path class="st4" d="M278,136.7c0,7.7,6.1,14,13.8,14.2v-28.3C284.2,122.7,278,129,278,136.7z"/>
		<path class="st2" d="M269.2,136.7c0,12.6,10.1,22.8,22.6,23v-8.8c-7.7-0.2-13.8-6.5-13.8-14.2c0-7.7,6.1-14,13.8-14.2v-8.9
			C279.3,113.9,269.2,124.1,269.2,136.7z"/>
		<path class="st4" d="M317.8,138.3c0-14-11.3-25.3-25.3-25.3c-0.2,0-0.4,0-0.7,0v0.7c0.1,0,0.3,0,0.4,0c12.7,0,23,10.3,23,23
			c0,12.7-10.3,23-23,23c-0.1,0-0.3,0-0.4,0v4c0.2,0,0.4,0,0.7,0C306.5,163.7,317.8,152.3,317.8,138.3z"/>
		<path class="st2" d="M291.8,106.3v6.7c0.2,0,0.4,0,0.7,0c14,0,25.3,11.3,25.3,25.3s-11.3,25.3-25.3,25.3c-0.2,0-0.4,0-0.7,0v6h7.1
			v9.2c19.7-3.1,34.7-20.1,34.7-40.6c0-20.5-14.9-37.4-34.5-40.6v8.6H291.8z"/>
		<path class="st2" d="M292.5,97.2c2.3,0,4.5,0.2,6.6,0.5v-9.2h-7.3v8.7C292.1,97.2,292.3,97.2,292.5,97.2z"/>
		<path class="st2" d="M291.8,97.2v9.2h7.3v-8.6c-2.2-0.4-4.4-0.5-6.6-0.5C292.3,97.2,292.1,97.2,291.8,97.2z"/>
		<path class="st2" d="M298.9,178.9c-2.1,0.3-4.3,0.5-6.4,0.5c-0.2,0-0.4,0-0.7,0v8.1h7.1V178.9z"/>
		<path class="st2" d="M291.8,169.7v9.7c0.2,0,0.4,0,0.7,0c2.2,0,4.3-0.2,6.4-0.5v-9.2H291.8z"/>
		<path class="st4" d="M306.4,136.7c0-7.8-6.3-14.2-14.2-14.2c-0.1,0-0.3,0-0.4,0v28.3c0.1,0,0.3,0,0.4,0
			C300.1,150.9,306.4,144.5,306.4,136.7z"/>
		<path class="st3" d="M292.2,122.5c7.8,0,14.2,6.3,14.2,14.2c0,7.8-6.3,14.2-14.2,14.2c-0.1,0-0.3,0-0.4,0v8.8c0.1,0,0.3,0,0.4,0
			c12.7,0,23-10.3,23-23c0-12.7-10.3-23-23-23c-0.1,0-0.3,0-0.4,0v8.9C292,122.5,292.1,122.5,292.2,122.5z"/>
	</g>
	<g>
		<path class="st4" d="M312.2,138.1c0-11.2-9.1-20.4-20.4-20.4v40.7C303.1,158.4,312.2,149.3,312.2,138.1z"/>
		<path class="st2" d="M291.8,104.4v12.1c11.2,0,20.4,9.8,20.4,21c0,11.2-9.1,20.4-20.4,20.4v12.7c18.2,0,33-14.8,33-33
			C324.9,119.2,310.1,104.4,291.8,104.4z"/>
		<path class="st4" d="M271.5,138.1c0,11.2,9.1,20.4,20.4,20.4v-40.7C280.6,117.7,271.5,126.9,271.5,138.1z"/>
		<path class="st4" d="M258.8,138.1c0-18.2,14.8-33,33-33V83H233v115.7h58.9v-27.6C273.6,171.1,258.8,156.3,258.8,138.1z"/>
		<path class="st3" d="M271.5,137.5c0-11.2,9.1-21,20.4-21v-12.1c-18.2,0-33,14.8-33,33c0,18.2,14.8,33,33,33v-12.7
			C280.6,157.8,271.5,148.7,271.5,137.5z"/>
	</g>
</g>
<g>
	<g>
		<path class="st5" d="M250.9,275.8H98.3c-6.6,0-12-5.4-12-12v-89.3c0-6.6,5.4-12,12-12h152.6c6.6,0,12,5.4,12,12v89.3
			C262.9,270.4,257.5,275.8,250.9,275.8z"/>
		<rect x="97.3" y="174.7" class="st6" width="155.7" height="86.2"/>
		<path class="st7" d="M69.5,271.4v4.4c0,0,1.5,9.4,8.4,9.4c7,0,194.2,0,194.2,0s7.3-2,7.9-7.7s0-6.8,0-6.8L69.5,271.4z"/>
		<path class="st8" d="M70.7,279.7h208.8c0,0-3.9,6.1-7.2,5.8c-3.8-0.4-194.2,0-194.2,0S72.4,285.2,70.7,279.7z"/>
	</g>
	<g>
		<rect x="109.3" y="184.5" class="st9" width="32.5" height="2.4"/>
		<rect x="109.3" y="194.6" class="st10" width="48" height="2.8"/>
		<rect x="162.2" y="194.6" class="st11" width="10.8" height="2.8"/>
		<rect x="206.2" y="215.5" class="st9" width="13.6" height="2.8"/>
		<rect x="119.9" y="226" class="st10" width="15.8" height="2.8"/>
		<rect x="119.9" y="236.4" class="st10" width="15.8" height="2.8"/>
		<rect x="140.2" y="236.4" class="st12" width="44.6" height="2.8"/>
		<rect x="188.1" y="236.4" class="st11" width="44.6" height="2.8"/>
		<rect x="140.2" y="246.9" class="st11" width="57.8" height="2.8"/>
		<rect x="109.4" y="246.9" class="st10" width="26.2" height="2.8"/>
		<rect x="204" y="246.9" class="st9" width="8.4" height="2.8"/>
		<rect x="109.3" y="205.1" class="st13" width="24" height="2.9"/>
		<rect x="140.8" y="225.9" class="st12" width="84.9" height="2.9"/>
		<rect x="137.9" y="205" class="st14" width="102.1" height="2.9"/>
		<rect x="137.9" y="214.9" class="st14" width="63.9" height="2.9"/>
	</g>
</g>
<g>
	<polygon class="st15" points="80.3,195.9 119.4,206.6 89.1,232.3 89.1,218.8 75.1,220.8 73,212.6 86.9,209.3 	"/>
	<g>
		<g>
			<path class="st16" d="M66.9,216.7c0,0-2.3-0.2-5.9-1"/>
			<path class="st17" d="M49.3,212.7C22,204.1-21.9,178,34.1,104.6c26.3-36.4,32.8-47.9,32.8-47.9S87.5,25.8,78.7,16
				c-8.8-9.8-28.2-4.6-28.2-4.6s-17,5.7-7.9,20.5c9,14.8,35,27.3,35,27.3s12.9,9.6,88.1-7.9c61.7-14.4,159.4,13,192.6,23.4"/>
			<path class="st16" d="M364,76.5c3.7,1.2,5.7,1.9,5.7,1.9"/>
		</g>
	</g>
</g>
</svg>
