<svg id="Layer_1" data-name="Layer 1" xmlns="http://www.w3.org/2000/svg" viewBox="0 0 574.28 177.8"><defs><style>.cls-1{fill:#fff;}.cls-2{fill:#f2673a;}</style></defs><title>insight-logo</title><g id="_Group_" data-name="&lt;Group&gt;"><path id="_Path_" data-name="&lt;Path&gt;" class="cls-1" d="M375.6,96.1a0.35,0.35,0,0,0-.1-0.2c0,0.1.1,0.1,0.1,0.2h0Z"/><path id="_Path_2" data-name="&lt;Path&gt;" class="cls-2" d="M0,10.4A10.41,10.41,0,0,1,10.5,0,10.35,10.35,0,0,1,21,10.4,10.31,10.31,0,0,1,10.5,20.9,10.25,10.25,0,0,1,0,10.4Z"/><rect id="_Path_3" data-name="&lt;Path&gt;" class="cls-1" y="40.8" width="21.1" height="86.9"/><path id="_Compound_Path_" data-name="&lt;Compound Path&gt;" class="cls-1" d="M231.5,2.5a10.24,10.24,0,0,0-10.4,10.3,10.4,10.4,0,0,0,20.8,0A10.18,10.18,0,0,0,231.5,2.5ZM221,43v86.9h21.1V43H221Z"/><g id="_Group_2" data-name="&lt;Group&gt;"><path id="_Path_4" data-name="&lt;Path&gt;" class="cls-1" d="M92.4,163.1l-8.6-15.4h3.9l5.1,9.3a28.4,28.4,0,0,1,1.4,3.3,28.4,28.4,0,0,1,1.4-3.3l4.9-9.3h3.6l-8.2,15.2v7.3H92.4v-7.1Z"/><path id="_Compound_Path_2" data-name="&lt;Compound Path&gt;" class="cls-1" d="M102,163.2a7.5,7.5,0,1,1,7.5,7.3A7.26,7.26,0,0,1,102,163.2Zm11.6,0a3.94,3.94,0,0,0-4.1-4.3,4,4,0,0,0-4.1,4.3c0,2.6,1.6,4.4,4.1,4.4S113.6,165.8,113.6,163.2Z"/><path id="_Path_5" data-name="&lt;Path&gt;" class="cls-1" d="M120.5,164.6v-8.3h3.4v8c0,2,.9,3.2,2.9,3.2a3.36,3.36,0,0,0,3.6-3.6v-7.6h3.4v13.9h-3.4l0.1-2.6a5.11,5.11,0,0,1-4.7,2.9C122.6,170.5,120.5,168.4,120.5,164.6Z"/><path id="_Path_6" data-name="&lt;Path&gt;" class="cls-1" d="M137.9,156.3h3.4v2.6a4.2,4.2,0,0,1,4.1-2.9,3.92,3.92,0,0,1,2.3.6l-1.1,3a3.45,3.45,0,0,0-1.8-.5c-2,0-3.4,1.2-3.4,4.3v6.8H138V156.3h-0.1Z"/><path id="_Compound_Path_3" data-name="&lt;Compound Path&gt;" class="cls-1" d="M157.2,163.2a7.5,7.5,0,1,1,7.5,7.3A7.26,7.26,0,0,1,157.2,163.2Zm11.6,0a3.94,3.94,0,0,0-4.1-4.3,4,4,0,0,0-4.1,4.3c0,2.6,1.6,4.4,4.1,4.4S168.8,165.8,168.8,163.2Z"/><path id="_Path_7" data-name="&lt;Path&gt;" class="cls-1" d="M175.8,156.3h3.4l-0.1,2.6a5.11,5.11,0,0,1,4.7-2.9c3.1,0,5.2,2.2,5.2,6v8.3h-3.4v-8c0-2-.9-3.2-2.9-3.2a3.31,3.31,0,0,0-3.6,3.6v7.6h-3.3v-14Z"/><path id="_Compound_Path_4" data-name="&lt;Compound Path&gt;" class="cls-1" d="M200.2,167.7a5.67,5.67,0,0,0,4-1.5l2,2.1a7.86,7.86,0,0,1-5.9,2.3c-4.8,0-7.9-3.1-7.9-7.3a7.24,7.24,0,0,1,7.4-7.3c4.8,0,7.4,3.5,7.2,8.4H195.8C196.2,166.4,197.7,167.7,200.2,167.7Zm3.5-5.7a3.59,3.59,0,0,0-3.8-3.3,3.86,3.86,0,0,0-4.1,3.3h7.9Z"/><path id="_Path_8" data-name="&lt;Path&gt;" class="cls-1" d="M216.9,167.6l2.3-1.6a4.52,4.52,0,0,0,3.8,1.8c1.7,0,2.5-.6,2.5-1.5,0-1.1-1-1.3-3.4-2-2.1-.6-4.1-1.5-4.1-4.3s2.2-4.1,5-4.1a6,6,0,0,1,4.8,2.1l-2,1.9a3.7,3.7,0,0,0-2.9-1.4c-1.3,0-2,.5-2,1.3,0,1.1.9,1.3,3.1,1.9s4.6,1.4,4.6,4.4c0,2.4-1.5,4.4-5.4,4.4A7.32,7.32,0,0,1,216.9,167.6Z"/><path id="_Path_9" data-name="&lt;Path&gt;" class="cls-1" d="M232.5,165.5v-6.4h-2.1v-2.8h2.1V149h3.4v7.3h3.7v2.8h-3.7v6.5c0,1.6.5,2.1,1.4,2.1a2.68,2.68,0,0,0,1.7-.7l1.6,2.3a4.82,4.82,0,0,1-3.6,1.3C234.3,170.5,232.5,169.2,232.5,165.5Z"/><path id="_Compound_Path_5" data-name="&lt;Compound Path&gt;" class="cls-1" d="M242.5,163.2a7.5,7.5,0,1,1,7.5,7.3A7.26,7.26,0,0,1,242.5,163.2Zm11.6,0a3.94,3.94,0,0,0-4.1-4.3,4,4,0,0,0-4.1,4.3c0,2.6,1.6,4.4,4.1,4.4S254.1,165.8,254.1,163.2Z"/><path id="_Compound_Path_6" data-name="&lt;Compound Path&gt;" class="cls-1" d="M261.1,156.3h3.4l-0.1,2.6a5.37,5.37,0,0,1,4.9-2.9c3.6,0,6.5,3,6.5,7.2s-2.9,7.3-6.5,7.3a5.13,5.13,0,0,1-4.8-2.7v9.4h-3.4V156.3Zm11.3,6.9c0-2.5-1.5-4.3-4-4.3a3.94,3.94,0,0,0-4.1,4.3c0,2.6,1.6,4.4,4.1,4.4S272.4,165.8,272.4,163.2Z"/><path id="_Path_10" data-name="&lt;Path&gt;" class="cls-1" d="M285.7,167.6L288,166a4.52,4.52,0,0,0,3.8,1.8c1.7,0,2.5-.6,2.5-1.5,0-1.1-1-1.3-3.4-2-2.1-.6-4.1-1.5-4.1-4.3s2.2-4.1,5-4.1a6,6,0,0,1,4.8,2.1l-2,1.9a3.7,3.7,0,0,0-2.9-1.4c-1.3,0-2,.5-2,1.3,0,1.1.9,1.3,3.1,1.9s4.6,1.4,4.6,4.4c0,2.4-1.5,4.4-5.4,4.4A7.32,7.32,0,0,1,285.7,167.6Z"/><path id="_Path_11" data-name="&lt;Path&gt;" class="cls-1" d="M300.8,146.2h3.4v12.5a5.2,5.2,0,0,1,4.7-2.8c3.1,0,5.2,2.2,5.2,6v8.3h-3.4v-8c0-2-.9-3.2-2.9-3.2a3.31,3.31,0,0,0-3.6,3.6v7.6h-3.4v-24Z"/><path id="_Compound_Path_7" data-name="&lt;Compound Path&gt;" class="cls-1" d="M317.4,163.2a7.5,7.5,0,1,1,7.5,7.3A7.26,7.26,0,0,1,317.4,163.2Zm11.6,0a3.94,3.94,0,0,0-4.1-4.3,4,4,0,0,0-4.1,4.3c0,2.6,1.6,4.4,4.1,4.4S329,165.8,329,163.2Z"/><path id="_Compound_Path_8" data-name="&lt;Compound Path&gt;" class="cls-1" d="M336,156.3h3.4l-0.1,2.6a5.37,5.37,0,0,1,4.9-2.9c3.6,0,6.5,3,6.5,7.2s-2.9,7.3-6.5,7.3a5.13,5.13,0,0,1-4.8-2.7v9.4H336V156.3Zm11.3,6.9c0-2.5-1.5-4.3-4-4.3a3.94,3.94,0,0,0-4.1,4.3c0,2.6,1.6,4.4,4.1,4.4S347.3,165.8,347.3,163.2Z"/><path id="_Compound_Path_9" data-name="&lt;Compound Path&gt;" class="cls-1" d="M354.3,156.3h3.4l-0.1,2.6a5.37,5.37,0,0,1,4.9-2.9c3.6,0,6.5,3,6.5,7.2s-2.9,7.3-6.5,7.3a5.13,5.13,0,0,1-4.8-2.7v9.4h-3.4V156.3Zm11.3,6.9c0-2.5-1.5-4.3-4-4.3a3.94,3.94,0,0,0-4.1,4.3c0,2.6,1.6,4.4,4.1,4.4S365.6,165.8,365.6,163.2Z"/><path id="_Compound_Path_10" data-name="&lt;Compound Path&gt;" class="cls-1" d="M372.2,150.9a2.2,2.2,0,1,1,2.2,2.2A2.16,2.16,0,0,1,372.2,150.9Zm0.5,5.4h3.4v13.9h-3.4V156.3Z"/><path id="_Path_12" data-name="&lt;Path&gt;" class="cls-1" d="M380.4,156.3h3.4l-0.1,2.6a5.11,5.11,0,0,1,4.7-2.9c3.1,0,5.2,2.2,5.2,6v8.3h-3.4v-8c0-2-.9-3.2-2.9-3.2a3.31,3.31,0,0,0-3.6,3.6v7.6h-3.4v-14h0.1Z"/><path id="_Compound_Path_11" data-name="&lt;Compound Path&gt;" class="cls-1" d="M410.7,156.3v2.5h-2.4a3.57,3.57,0,0,1,.8,2.3c0,3-2.3,5.1-5.6,5.1a6.53,6.53,0,0,1-2.9-.6,1.31,1.31,0,0,0-.7,1.2c0,0.7.5,1.1,1.6,1.2l3.5,0.2c3.9,0.2,5.9,1.7,5.9,4.5,0,3-2.5,5.1-7.6,5.1-4.7,0-7.3-1.8-7.3-4.6,0-1.7,1.2-2.8,3-3.3a2.88,2.88,0,0,1-1.8-2.7,3,3,0,0,1,1.9-2.7,4.53,4.53,0,0,1-1.4-3.3c0-2.9,2.4-5,5.8-5a6,6,0,0,1,2,.3h5.2v-0.2Zm-11.4,16.3c0,1.5,1.2,2.4,4,2.4s4.1-.9,4.1-2.3c0-1.2-.7-1.6-3.1-1.8l-3.9-.3A2.43,2.43,0,0,0,399.3,172.6Zm6.8-11.6a2.7,2.7,0,1,0-2.7,2.6A2.49,2.49,0,0,0,406.1,161Z"/><path id="_Compound_Path_12" data-name="&lt;Compound Path&gt;" class="cls-1" d="M420.5,163.2c0-4.2,2.9-7.2,6.5-7.2a5,5,0,0,1,4.8,2.7V146.2h3.4v24h-3.4l0.1-2.5a5.29,5.29,0,0,1-4.9,2.8C423.5,170.5,420.5,167.4,420.5,163.2Zm11.5,0a4,4,0,0,0-4.1-4.3c-2.4,0-4,1.7-4,4.3s1.5,4.4,4,4.4S432,165.8,432,163.2Z"/><path id="_Compound_Path_13" data-name="&lt;Compound Path&gt;" class="cls-1" d="M446.6,167.7a5.67,5.67,0,0,0,4-1.5l2,2.1a7.86,7.86,0,0,1-5.9,2.3c-4.8,0-7.9-3.1-7.9-7.3a7.24,7.24,0,0,1,7.4-7.3c4.7,0,7.4,3.5,7.2,8.4H442.2C442.6,166.4,444.1,167.7,446.6,167.7Zm3.5-5.7a3.59,3.59,0,0,0-3.8-3.3,3.86,3.86,0,0,0-4.1,3.3h7.9Z"/><path id="_Path_13" data-name="&lt;Path&gt;" class="cls-1" d="M455.6,167.6l2.3-1.6a4.52,4.52,0,0,0,3.8,1.8c1.7,0,2.5-.6,2.5-1.5,0-1.1-1-1.3-3.4-2-2.1-.6-4.1-1.5-4.1-4.3s2.2-4.1,5-4.1a6,6,0,0,1,4.8,2.1l-2,1.9a3.7,3.7,0,0,0-2.9-1.4c-1.3,0-2,.5-2,1.3,0,1.1.9,1.3,3.1,1.9s4.6,1.4,4.6,4.4c0,2.4-1.5,4.4-5.4,4.4C458.6,170.5,456.5,169.1,455.6,167.6Z"/><path id="_Path_14" data-name="&lt;Path&gt;" class="cls-1" d="M471.2,165.5v-6.4h-2.1v-2.8h2.1V149h3.4v7.3h3.7v2.8h-3.7v6.5c0,1.6.5,2.1,1.4,2.1a2.68,2.68,0,0,0,1.7-.7l1.6,2.3a4.82,4.82,0,0,1-3.6,1.3C473,170.5,471.2,169.2,471.2,165.5Z"/><path id="_Compound_Path_14" data-name="&lt;Compound Path&gt;" class="cls-1" d="M481.4,150.9a2.2,2.2,0,1,1,2.2,2.2A2.16,2.16,0,0,1,481.4,150.9Zm0.5,5.4h3.4v13.9h-3.4V156.3Z"/><path id="_Path_15" data-name="&lt;Path&gt;" class="cls-1" d="M489.7,156.3h3.4l-0.1,2.6a5.11,5.11,0,0,1,4.7-2.9c3.1,0,5.2,2.2,5.2,6v8.3h-3.4v-8c0-2-.9-3.2-2.9-3.2a3.31,3.31,0,0,0-3.6,3.6v7.6h-3.4v-14h0.1Z"/><path id="_Compound_Path_15" data-name="&lt;Compound Path&gt;" class="cls-1" d="M512.6,158.8a4.67,4.67,0,0,0-3.7,1.7l-1.9-2a6.79,6.79,0,0,1,5.8-2.5c3.4,0,5.9,1.9,5.9,6v8.2h-3.4l0.1-2a4.81,4.81,0,0,1-4.4,2.3c-2.8,0-5-1.3-5-4.4,0-2.9,2.3-4.2,5.5-4.2h3.8C515.4,159.7,514.4,158.8,512.6,158.8Zm-0.8,5.4c-1.5,0-2.4.5-2.4,1.8s0.9,1.8,2.7,1.8c2,0,3.4-1,3.4-2.5v-1.1h-3.7Z"/><path id="_Path_16" data-name="&lt;Path&gt;" class="cls-1" d="M523.8,165.5v-6.4h-2.1v-2.8h2.1V149h3.4v7.3h3.7v2.8h-3.7v6.5c0,1.6.5,2.1,1.4,2.1a2.68,2.68,0,0,0,1.7-.7l1.6,2.3a4.82,4.82,0,0,1-3.6,1.3C525.6,170.5,523.8,169.2,523.8,165.5Z"/><path id="_Compound_Path_16" data-name="&lt;Compound Path&gt;" class="cls-1" d="M534,150.9a2.2,2.2,0,1,1,2.2,2.2A2.22,2.22,0,0,1,534,150.9Zm0.6,5.4H538v13.9h-3.4V156.3Z"/><path id="_Compound_Path_17" data-name="&lt;Compound Path&gt;" class="cls-1" d="M541.6,163.2a7.5,7.5,0,1,1,7.5,7.3A7.26,7.26,0,0,1,541.6,163.2Zm11.6,0a3.94,3.94,0,0,0-4.1-4.3,4,4,0,0,0-4.1,4.3c0,2.6,1.6,4.4,4.1,4.4S553.2,165.8,553.2,163.2Z"/><path id="_Path_17" data-name="&lt;Path&gt;" class="cls-1" d="M560.2,156.3h3.4l-0.1,2.6a5.11,5.11,0,0,1,4.7-2.9c3.1,0,5.2,2.2,5.2,6v8.3H570v-8c0-2-.9-3.2-2.9-3.2a3.31,3.31,0,0,0-3.6,3.6v7.6h-3.4v-14h0.1Z"/></g><path id="_Compound_Path_18" data-name="&lt;Compound Path&gt;" class="cls-1" d="M563.7,71.6L553.5,61.4h0L550.1,58l-3.3-3.3-3.4-3.4-9.6-9.6-0.6-.6L523.1,31,513,41.1l-43,43L459.9,94.2,470,104.3l30.5,30.5,10.1,10.1,10.1-10.1,43-43,10.1-10.1Zm-53,53.1L480.2,94.2l43-43,10,10,0.2,0.2,10.1,10.1,0.2,0.2,10,10Z"/><path id="_Path_18" data-name="&lt;Path&gt;" class="cls-1" d="M305.6,111.9a26.6,26.6,0,1,1,20.8-43.2L342.3,56a46.93,46.93,0,1,0-.7,59.2l-15.6-13A26,26,0,0,1,305.6,111.9Z"/><path id="_Compound_Path_19" data-name="&lt;Compound Path&gt;" class="cls-1" d="M89.2,40.8h-2A35.32,35.32,0,0,0,67.9,46a40.41,40.41,0,0,0-5.2,3.2V41.9h-21V169.4H62.8V124.2A45.88,45.88,0,1,0,89.2,40.8Zm0,71.9a26,26,0,1,1,26-26A25.95,25.95,0,0,1,89.2,112.7Z"/><path id="_Path_19" data-name="&lt;Path&gt;" class="cls-1" d="M199.4,43.6c-15.9-4.4-25.6,2.2-30.6,7.9V43.1H147.9V69.5h0v60.4h20.9V89.5c0-19.4,8.5-26.7,20.9-26.7a23.15,23.15,0,0,1,11.4,2.9l7-18.8A23.21,23.21,0,0,0,199.4,43.6Z"/><path id="_Compound_Path_20" data-name="&lt;Compound Path&gt;" class="cls-1" d="M445.6,95.8a45.69,45.69,0,0,0,1.2-10.5,38.14,38.14,0,0,0-.4-5.9c-0.2-1.6-.5-3.1-0.8-4.6a46.89,46.89,0,0,0-91.4,0A45.69,45.69,0,0,0,353,85.3c0,0.6.1,1.1,0.1,1.6h0c0,0.7.1,1.4,0.1,2.1a46,46,0,0,0,3.7,17.2,44.36,44.36,0,0,0,25.7,24.3,54.62,54.62,0,0,0,19,3.3,52.22,52.22,0,0,0,20.3-4.1,45,45,0,0,0,17.5-13.8l-16-12.1a38.34,38.34,0,0,1-9.9,8.6c-3.8,2.3-8.5,3.4-14,3.4a24.73,24.73,0,0,1-16.2-5.6A22.34,22.34,0,0,1,375.7,96V95.7h69.9v0.1ZM382.5,62.6c3.9-3.8,9.2-5.8,15.9-5.8q10.65,0,16.5,5.7c4,3.8,6,9,6.1,15.5H375.3C376.2,71.5,378.6,66.4,382.5,62.6Z"/><path id="_Path_20" data-name="&lt;Path&gt;" class="cls-2" d="M563.8,71.6l4.7-4.7h0A21.58,21.58,0,0,0,538,36.4h0L523.1,51.3l10.2,10.2,14.9-14.9a7.14,7.14,0,1,1,10.1,10.1l-4.8,4.8,10.3,10.1"/></g></svg>