<svg id="Layer_1" data-name="Layer 1" xmlns="http://www.w3.org/2000/svg" viewBox="0 0 596 900.23"><defs><style>.cls-1,.cls-14,.cls-15{fill:#032330;}.cls-1,.cls-10,.cls-11,.cls-12,.cls-13,.cls-14,.cls-15,.cls-16,.cls-18,.cls-19,.cls-20,.cls-21,.cls-23,.cls-24,.cls-25{stroke:#000;}.cls-1,.cls-10,.cls-11,.cls-14,.cls-15,.cls-16,.cls-18,.cls-19,.cls-21,.cls-23,.cls-24{stroke-miterlimit:10;}.cls-1{stroke-width:6.29px;}.cls-2{fill:#e55353;}.cls-3{fill:#61f0ff;}.cls-3,.cls-5,.cls-6,.cls-7{stroke:#303030;}.cls-12,.cls-13,.cls-20,.cls-25,.cls-3,.cls-4,.cls-5,.cls-6,.cls-7,.cls-8{stroke-linecap:round;stroke-linejoin:round;}.cls-3,.cls-5,.cls-6,.cls-7,.cls-8{stroke-width:2.3px;}.cls-4{fill:#303030;stroke:#fff;stroke-width:2.33px;}.cls-5,.cls-9{fill:#fff;}.cls-6{fill:#cae8ea;}.cls-23,.cls-7,.cls-8{fill:none;}.cls-8{stroke:#5e5b5b;}.cls-10{fill:#d89461;}.cls-10,.cls-11,.cls-12,.cls-15,.cls-19,.cls-23{stroke-width:5.56px;}.cls-11,.cls-24{fill:#f9b57d;}.cls-12,.cls-20{fill:#f63;}.cls-13{stroke-width:0.87px;}.cls-14,.cls-16,.cls-24{stroke-width:5.78px;}.cls-16,.cls-18{fill:#086a87;}.cls-17{fill:#073547;}.cls-18,.cls-21{stroke-width:5px;}.cls-19{fill:#666;}.cls-20{stroke-width:5.52px;}.cls-21{fill:#565859;}.cls-22{fill:#474747;}.cls-25{fill:#3cc;stroke-width:5.27px;}</style></defs><title>iphone7infographic2</title><polygon class="cls-1" points="185.44 481.27 227.92 383.32 335.48 383.67 318.8 435.98 249.4 414.98 204.99 494.97 194.52 485.4 185.44 481.27"/><rect class="cls-2" x="394.87" y="56.68" width="183.61" height="333.66"/><rect class="cls-3" x="382.09" y="2" width="210.8" height="439.72" rx="28.99" ry="28.99"/><rect class="cls-4" x="386.71" y="2" width="201.56" height="439.72" rx="28.35" ry="28.35"/><circle class="cls-3" cx="486.94" cy="415.21" r="17.15"/><circle class="cls-5" cx="486.94" cy="415.21" r="13.75"/><rect class="cls-6" x="394.87" y="56.68" width="184.59" height="333.71"/><circle class="cls-7" cx="452.93" cy="30.77" r="3.74"/><circle class="cls-8" cx="452.93" cy="30.77" r="2.44"/><rect class="cls-3" x="467.83" y="28.11" width="38.14" height="3.68" rx="1.84" ry="1.84"/><path class="cls-9" d="M579.59,56.92S561,375.19,395,390.39V57.16Z"/><polygon class="cls-10" points="330.3 326.76 308.17 400.45 359.04 396.33 362.32 348.76 330.3 326.76"/><path class="cls-11" d="M389.41,312.27l12.39,33.22-9.63.78s1.85,20.39-6.25,34.95l-47.61-21.47-3.86-47.81,17.26-17.11L396.62,285S411.7,297.8,389.41,312.27Z"/><path class="cls-12" d="M349.78,313.08l-5.52,21.11-17.42,4.9,7.61-27.15,17.26-17.11L397.95,280s5.74,2.21,3.9,9.31l8.72-3.11s0.48,7.73-2.39,8.89l10.42-1.2s-6.1,16.49-29.18,18.35Z"/><circle cx="378.38" cy="339.49" r="4.54" transform="translate(-26.12 31.58) rotate(-4.62)"/><rect x="367.89" y="326.79" width="18.18" height="4.75" rx="2.38" ry="2.38" transform="translate(110.11 -94.21) rotate(16.65)"/><circle class="cls-11" cx="336.59" cy="338.31" r="9.78" transform="translate(-26.16 28.21) rotate(-4.62)"/><polygon id="_Path_" data-name="&lt;Path&gt;" class="cls-13" points="332.83 336.44 338.13 336.49 338.08 341.79 332.83 336.44"/><rect class="cls-11" x="185.28" y="465.13" width="43.53" height="36.35" rx="16.34" ry="16.34" transform="translate(330.1 -27.88) rotate(36.73)"/><path class="cls-14" d="M350.49,381.64s30.29,10,30.29,42.81-29.3,132.43-29.3,132.43l-129.83-4.37,56.77-132.14S298.85,366.85,350.49,381.64Z"/><path class="cls-15" d="M291.25,401.39c-10.73,28.67-23.82,82.67,6.42,127.26a36.34,36.34,0,0,0,31.8,16c36-1.67,102.07-22.57,148.29-90.74l-16.59-11.18L346.53,488.64l-1.88-88.19c-1-10.12-13.93-19.23-24.19-19.23h0A31.16,31.16,0,0,0,291.25,401.39Z"/><path class="cls-16" d="M236.2,570.38S263.81,656.64,329,661c0,0-36.87,32.77,25.63,196.9l27-.83-6.25-184.95-25-114.3Z"/><path class="cls-17" d="M323.08,734.93C318.55,681.91,329,661,329,661c-36.86-1.29-59.1-36.18-59.1-36.18l54.29-31.22,30.71,78.36,13.35,184.91-10.06,1s-32.11-88-34-115.76Z"/><path class="cls-18" d="M349.89,556.83S276.7,715.05,232.32,728c0,0-155.29-51.26-165.46-157.26h41.47l104.61,85.15S209,577.36,236.2,553.1Z"/><rect class="cls-19" x="140.5" y="472.12" width="78.48" height="57.49" rx="18.93" ry="18.93" transform="translate(343.32 -5.5) rotate(37.64)"/><rect class="cls-20" x="155.84" y="482.3" width="54.53" height="28.34" rx="11.39" ry="11.39" transform="translate(341.34 -8.48) rotate(37.64)"/><path class="cls-21" d="M354.86,860l7.86,36.71h82.89S434.74,863.5,391.35,869c0,0-9.44-.17-9.73-9.05S354.86,860,354.86,860Z"/><path class="cls-21" d="M96,566.67l-7.86-36.93H5.2s10.88,33.45,54.26,27.94c0,0,9.44.17,9.73,9.05S96,566.67,96,566.67Z"/><rect class="cls-19" x="52.06" y="484.73" width="178.29" height="127.49" transform="translate(364.38 27.94) rotate(37.64)"/><path class="cls-22" d="M35.42,543.66s42.16-23.56,84.63,23S246.95,553,246.95,553l-74.49,96.42Z"/><polyline class="cls-23" points="250.72 552.45 185.44 567.73 104.94 503.44 109.55 443.56"/><rect class="cls-11" x="177.44" y="473.68" width="27.83" height="10.5" rx="5.25" ry="5.25" transform="translate(-282.6 275.58) rotate(-45)"/><rect class="cls-11" x="185.16" y="479.88" width="27.83" height="10.5" rx="5.25" ry="5.25" transform="translate(-284.73 282.86) rotate(-45)"/><rect class="cls-11" x="192.88" y="486.08" width="27.83" height="10.5" rx="5.25" ry="5.25" transform="translate(-286.85 290.13) rotate(-45)"/><rect class="cls-11" x="200.61" y="492.28" width="27.83" height="10.5" rx="5.25" ry="5.25" transform="translate(-288.97 297.41) rotate(-45)"/><rect class="cls-11" x="465.46" y="432.04" width="27.83" height="10.5" rx="5.25" ry="5.25" transform="translate(-168.81 467.05) rotate(-45)"/><path class="cls-15" d="M308.17,383.75l5.36-14.8a6.09,6.09,0,0,1,7.41-3.78l39.47,11.32,1.91,11.78Z"/><path class="cls-24" d="M462.38,443.87l12.18-6.35h29.68a2.88,2.88,0,0,1,1.84,5.09c-3.9,3.18-10.78,6.57-22.17,6.07l-6.14,5.57Z"/><rect class="cls-12" x="120.72" y="520.53" width="52.78" height="33.13" rx="6.7" ry="6.7" transform="translate(358.65 21.97) rotate(37.64)"/><rect class="cls-20" x="117.66" y="532.08" width="52.01" height="20" rx="5.7" ry="5.7" transform="translate(360.99 25.11) rotate(37.64)"/><path class="cls-25" d="M351.62,379.13l22,79.66,7-28.27s6.82-39.82-16.06-50.33Z"/><circle cx="370.97" cy="412.59" r="3.56" transform="translate(-54.72 56.73) rotate(-8.15)"/><circle cx="372.75" cy="422.63" r="3.56" transform="translate(-56.12 57.08) rotate(-8.15)"/></svg>