<?xml version="1.0" encoding="utf-8"?>
<!-- Generator: Adobe Illustrator 19.0.0, SVG Export Plug-In . SVG Version: 6.00 Build 0)  -->
<svg version="1.1" id="Layer_1" xmlns="http://www.w3.org/2000/svg" xmlns:xlink="http://www.w3.org/1999/xlink" x="0px" y="0px"
	 viewBox="0 0 623 193.9" style="enable-background:new 0 0 623 193.9;" xml:space="preserve">
<style type="text/css">
	.st0{fill:#FFFFFF;}
	.st1{fill:#F2673A;}
</style>
<g id="XMLID_65_">
	<line id="XMLID_64_" class="st0" x1="188" y1="142.5" x2="165.8" y2="142.5"/>
	<path id="XMLID_63_" class="st0" d="M75,62.4C75,62.4,75.1,62.3,75,62.4l0-12l0,0.9V62.4z"/>
	<path id="XMLID_62_" class="st0" d="M407,107.8c0-0.1-0.1-0.2-0.1-0.2C406.9,107.7,406.9,107.8,407,107.8L407,107.8z"/>
	<path id="XMLID_61_" class="st0" d="M406.8,107.5c0,0,0,0.1,0,0.1C406.9,107.6,406.9,107.5,406.8,107.5L406.8,107.5z"/>
	<path id="XMLID_60_" class="st1" d="M8.5,16.9c0-6.3,5.2-11,11.2-11c6,0,11.2,4.7,11.2,11c0,6.7-5.2,11.2-11.2,11.2
		C13.7,28.1,8.5,23.6,8.5,16.9z"/>
	<rect id="XMLID_59_" x="8.5" y="49.2" class="st0" width="22.4" height="92.1"/>
	<path class="st0" d="M254.1,8.5c-5.9,0-11.1,4.6-11.1,10.9c0,6.6,5.1,11.1,11.1,11.1c5.9,0,11.1-4.4,11.1-11.1
		C265.2,13.1,260.1,8.5,254.1,8.5z M242.9,51.5v92.2h22.4V51.5H242.9z"/>
	<g>
		<path class="st0" d="M106.5,178.9l-9.1-16.4h4.1l5.4,9.9c0.7,1.3,1.4,3.5,1.4,3.5s0.7-2.1,1.4-3.5l5.3-9.9h3.8l-8.7,16.2v7.8h-3.7
			V178.9z"/>
		<path class="st0" d="M116.7,179c0-4.4,3.5-7.7,8-7.7c4.5,0,8,3.3,8,7.7c0,4.4-3.5,7.7-8,7.7C120.2,186.8,116.7,183.4,116.7,179z
			 M129,179c0-2.7-1.7-4.6-4.3-4.6c-2.6,0-4.3,1.9-4.3,4.6c0,2.7,1.7,4.7,4.3,4.7C127.4,183.7,129,181.8,129,179z"/>
		<path class="st0" d="M136.3,180.5v-8.8h3.6v8.5c0,2.1,1,3.3,3.1,3.3c2.3,0,3.8-1.4,3.8-3.8v-8h3.6v14.8h-3.6l0.1-2.7
			c-0.9,1.9-2.7,3-5,3C138.6,186.8,136.3,184.5,136.3,180.5z"/>
		<path class="st0" d="M154.8,171.6h3.6l0,2.8c1-2.3,2.7-3.1,4.3-3.1c1.1,0,1.8,0.2,2.4,0.6l-1.2,3.2c-0.6-0.3-1.1-0.5-1.9-0.5
			c-2.1,0-3.6,1.2-3.6,4.5v7.2h-3.6V171.6z"/>
		<path class="st0" d="M175.2,179c0-4.4,3.5-7.7,8-7.7c4.5,0,8,3.3,8,7.7c0,4.4-3.5,7.7-8,7.7C178.7,186.8,175.2,183.4,175.2,179z
			 M187.5,179c0-2.7-1.7-4.6-4.3-4.6c-2.6,0-4.3,1.9-4.3,4.6c0,2.7,1.7,4.7,4.3,4.7C185.9,183.7,187.5,181.8,187.5,179z"/>
		<path class="st0" d="M194.9,171.6h3.6l-0.1,2.7c0.9-1.9,2.8-3.1,5-3.1c3.3,0,5.5,2.3,5.5,6.3v8.8h-3.6V178c0-2.1-1-3.3-3.1-3.3
			c-2.3,0-3.8,1.4-3.8,3.8v8h-3.6V171.6z"/>
		<path class="st0" d="M220.9,183.8c1.9,0,3.3-0.8,4.2-1.6l2.1,2.2c-1.4,1.4-3.3,2.4-6.2,2.4c-5.1,0-8.4-3.3-8.4-7.7
			c0-4.4,3.5-7.7,7.9-7.7c5,0,7.9,3.7,7.6,8.9h-11.9C216.6,182.4,218.2,183.8,220.9,183.8z M224.5,177.8c-0.3-2-1.5-3.5-4-3.5
			c-2.3,0-3.9,1.3-4.3,3.5H224.5z"/>
		<path class="st0" d="M238.6,183.7l2.4-1.7c0.9,1.3,2.3,1.9,4,1.9c1.8,0,2.6-0.6,2.6-1.6c0-1.2-1.1-1.4-3.6-2.1
			c-2.2-0.6-4.4-1.6-4.4-4.5c0-3,2.4-4.4,5.3-4.4c2.4,0,4,1,5.1,2.2l-2.1,2c-0.7-0.8-1.7-1.4-3.1-1.4c-1.3,0-2.1,0.5-2.1,1.4
			c0,1.1,0.9,1.4,3.2,2c2.3,0.6,4.9,1.5,4.9,4.7c0,2.5-1.6,4.6-5.7,4.6C241.9,186.8,239.6,185.3,238.6,183.7z"/>
		<path class="st0" d="M255.2,181.4v-6.8H253v-3h2.2v-7.7h3.6v7.7h3.9v3h-3.9v6.9c0,1.7,0.6,2.2,1.5,2.2c0.8,0,1.4-0.4,1.8-0.7
			l1.7,2.4c-0.7,0.7-1.9,1.4-3.8,1.4C257.1,186.8,255.2,185.4,255.2,181.4z"/>
		<path class="st0" d="M265.7,179c0-4.4,3.5-7.7,8-7.7c4.5,0,8,3.3,8,7.7c0,4.4-3.5,7.7-8,7.7C269.3,186.8,265.7,183.4,265.7,179z
			 M278,179c0-2.7-1.7-4.6-4.3-4.6c-2.6,0-4.3,1.9-4.3,4.6c0,2.7,1.7,4.7,4.3,4.7C276.4,183.7,278,181.8,278,179z"/>
		<path class="st0" d="M285.5,171.6h3.6l-0.1,2.7c0.9-1.8,2.7-3.1,5.2-3.1c3.8,0,6.9,3.2,6.9,7.7c0,4.5-3.1,7.8-6.9,7.8
			c-2.5,0-4.2-1.2-5.1-2.9v10h-3.6V171.6z M297.4,179c0-2.7-1.6-4.5-4.2-4.5c-2.6,0-4.3,1.8-4.3,4.5c0,2.8,1.7,4.6,4.3,4.6
			C295.8,183.6,297.4,181.8,297.4,179z"/>
		<path class="st0" d="M311.6,183.7l2.4-1.7c0.9,1.3,2.3,1.9,4,1.9c1.8,0,2.6-0.6,2.6-1.6c0-1.2-1.1-1.4-3.6-2.1
			c-2.2-0.6-4.4-1.6-4.4-4.5c0-3,2.4-4.4,5.3-4.4c2.4,0,4,1,5.1,2.2l-2.1,2c-0.7-0.8-1.7-1.4-3.1-1.4c-1.3,0-2.1,0.5-2.1,1.4
			c0,1.1,0.9,1.4,3.2,2c2.3,0.6,4.9,1.5,4.9,4.7c0,2.5-1.6,4.6-5.7,4.6C314.8,186.8,312.6,185.3,311.6,183.7z"/>
		<path class="st0" d="M327.6,161h3.6v13.2c1-1.8,2.7-2.9,4.9-2.9c3.3,0,5.5,2.3,5.5,6.3v8.8H338V178c0-2.1-1-3.3-3.1-3.3
			c-2.3,0-3.8,1.4-3.8,3.8v8h-3.6V161z"/>
		<path class="st0" d="M345.2,179c0-4.4,3.5-7.7,8-7.7c4.5,0,8,3.3,8,7.7c0,4.4-3.5,7.7-8,7.7C348.7,186.8,345.2,183.4,345.2,179z
			 M357.5,179c0-2.7-1.7-4.6-4.3-4.6c-2.6,0-4.3,1.9-4.3,4.6c0,2.7,1.7,4.7,4.3,4.7C355.8,183.7,357.5,181.8,357.5,179z"/>
		<path class="st0" d="M364.9,171.6h3.6l-0.1,2.7c1-1.8,2.7-3.1,5.2-3.1c3.8,0,6.9,3.2,6.9,7.7c0,4.5-3.1,7.8-6.9,7.8
			c-2.5,0-4.2-1.2-5.1-2.9v10h-3.6V171.6z M376.9,179c0-2.7-1.6-4.5-4.2-4.5c-2.6,0-4.3,1.8-4.3,4.5c0,2.8,1.7,4.6,4.3,4.6
			C375.3,183.6,376.9,181.8,376.9,179z"/>
		<path class="st0" d="M384.3,171.6h3.6l-0.1,2.7c0.9-1.8,2.7-3.1,5.3-3.1c3.8,0,6.9,3.2,6.9,7.7c0,4.5-3.1,7.8-6.9,7.8
			c-2.5,0-4.2-1.2-5.1-2.9v10h-3.6V171.6z M396.3,179c0-2.7-1.6-4.5-4.2-4.5c-2.6,0-4.3,1.8-4.3,4.5c0,2.8,1.7,4.6,4.3,4.6
			C394.7,183.6,396.3,181.8,396.3,179z"/>
		<path class="st0" d="M403.3,165.9c0-1.3,1.1-2.3,2.4-2.3c1.3,0,2.4,1,2.4,2.3c0,1.4-1.1,2.4-2.4,2.4
			C404.4,168.3,403.3,167.3,403.3,165.9z M403.9,171.6h3.6v14.8h-3.6V171.6z"/>
		<path class="st0" d="M412.1,171.6h3.6l-0.1,2.7c0.9-1.9,2.8-3.1,5-3.1c3.3,0,5.5,2.3,5.5,6.3v8.8h-3.6V178c0-2.1-1-3.3-3.1-3.3
			c-2.3,0-3.8,1.4-3.8,3.8v8h-3.6V171.6z"/>
		<path class="st0" d="M444.2,171.6v2.6h-2.5c0.6,0.7,0.8,1.5,0.8,2.4c0,3.1-2.4,5.4-6,5.4c-1.2,0-2.2-0.2-3.1-0.7
			c-0.5,0.3-0.8,0.7-0.8,1.3c0,0.8,0.6,1.2,1.7,1.3l3.7,0.2c4.1,0.2,6.3,1.8,6.3,4.8c0,3.2-2.6,5.4-8,5.4c-5,0-7.8-1.9-7.8-4.9
			c0-1.8,1.3-2.9,3.1-3.5c-1.3-0.6-1.9-1.6-1.9-2.9c0-1.3,0.7-2.3,2-2.8c-0.9-0.9-1.4-2.1-1.4-3.5c0-3.1,2.5-5.3,6.1-5.3
			c0.8,0,1.5,0.1,2.1,0.3H444.2z M432.1,189c0,1.6,1.3,2.5,4.3,2.5c3,0,4.4-1,4.4-2.4c0-1.2-0.7-1.7-3.3-1.9l-4.1-0.3
			C432.5,187.4,432.1,188.1,432.1,189z M439.3,176.7c0-1.6-1.1-2.6-2.9-2.6c-1.8,0-2.9,1.1-2.9,2.6c0,1.7,1,2.7,2.9,2.7
			C438.2,179.4,439.3,178.3,439.3,176.7z"/>
		<path class="st0" d="M454.6,179c0-4.5,3.1-7.7,6.9-7.7c2.6,0,4.2,1.2,5.1,2.9V161h3.6v25.4h-3.6l0.1-2.7c-0.9,1.8-2.7,3-5.2,3
			C457.7,186.8,454.6,183.5,454.6,179z M466.8,179c0-2.7-1.7-4.5-4.3-4.5c-2.6,0-4.2,1.8-4.2,4.5c0,2.8,1.6,4.6,4.2,4.6
			C465.1,183.6,466.8,181.8,466.8,179z"/>
		<path class="st0" d="M482.3,183.8c1.9,0,3.3-0.8,4.2-1.6l2.1,2.2c-1.4,1.4-3.3,2.4-6.2,2.4c-5.1,0-8.4-3.3-8.4-7.7
			c0-4.4,3.5-7.7,7.9-7.7c5,0,7.9,3.7,7.6,8.9h-11.9C478,182.4,479.6,183.8,482.3,183.8z M485.9,177.8c-0.3-2-1.5-3.5-4-3.5
			c-2.3,0-3.9,1.3-4.3,3.5H485.9z"/>
		<path class="st0" d="M491.8,183.7l2.4-1.7c0.9,1.3,2.3,1.9,4,1.9c1.8,0,2.6-0.6,2.6-1.6c0-1.2-1.1-1.4-3.6-2.1
			c-2.2-0.6-4.4-1.6-4.4-4.5c0-3,2.4-4.4,5.3-4.4c2.4,0,4,1,5.1,2.2l-2.1,2c-0.7-0.8-1.7-1.4-3.1-1.4c-1.3,0-2.1,0.5-2.1,1.4
			c0,1.1,0.9,1.4,3.2,2c2.3,0.6,4.9,1.5,4.9,4.7c0,2.5-1.5,4.6-5.7,4.6C495,186.8,492.8,185.3,491.8,183.7z"/>
		<path class="st0" d="M508.3,181.4v-6.8h-2.2v-3h2.2v-7.7h3.6v7.7h3.9v3h-3.9v6.9c0,1.7,0.6,2.2,1.5,2.2c0.8,0,1.4-0.4,1.8-0.7
			l1.7,2.4c-0.7,0.7-1.9,1.4-3.8,1.4C510.2,186.8,508.3,185.4,508.3,181.4z"/>
		<path class="st0" d="M519.2,165.9c0-1.3,1.1-2.3,2.4-2.3c1.3,0,2.4,1,2.4,2.3c0,1.4-1.1,2.4-2.4,2.4
			C520.3,168.3,519.2,167.3,519.2,165.9z M519.7,171.6h3.6v14.8h-3.6V171.6z"/>
		<path class="st0" d="M527.9,171.6h3.6l-0.1,2.7c0.9-1.9,2.8-3.1,5-3.1c3.3,0,5.5,2.3,5.5,6.3v8.8h-3.6V178c0-2.1-1-3.3-3.1-3.3
			c-2.3,0-3.8,1.4-3.8,3.8v8h-3.6V171.6z"/>
		<path class="st0" d="M552.3,174.3c-1.9,0-3.1,0.8-3.9,1.8l-2-2.1c1.3-1.5,3.1-2.6,6.2-2.6c3.6,0,6.2,2,6.2,6.4v8.7h-3.6l0.1-2.1
			c-1.1,1.6-2.5,2.4-4.7,2.4c-2.9,0-5.3-1.4-5.3-4.7c0-3.1,2.5-4.4,5.8-4.4h4.1C555.3,175.3,554.2,174.3,552.3,174.3z M551.5,180.1
			c-1.5,0-2.6,0.6-2.6,1.9c0,1.3,1,1.9,2.8,1.9c2.1,0,3.6-1,3.6-2.6v-1.2H551.5z"/>
		<path class="st0" d="M564.2,181.4v-6.8h-2.2v-3h2.2v-7.7h3.6v7.7h3.9v3h-3.9v6.9c0,1.7,0.6,2.2,1.5,2.2c0.8,0,1.4-0.4,1.8-0.7
			l1.7,2.4c-0.7,0.7-1.9,1.4-3.8,1.4C566.1,186.8,564.2,185.4,564.2,181.4z"/>
		<path class="st0" d="M575,165.9c0-1.3,1.1-2.3,2.4-2.3s2.4,1,2.4,2.3c0,1.4-1.1,2.4-2.4,2.4S575,167.3,575,165.9z M575.6,171.6
			h3.6v14.8h-3.6V171.6z"/>
		<path class="st0" d="M583,179c0-4.4,3.5-7.7,8-7.7c4.5,0,8,3.3,8,7.7c0,4.4-3.5,7.7-8,7.7C586.6,186.8,583,183.4,583,179z
			 M595.3,179c0-2.7-1.7-4.6-4.3-4.6c-2.6,0-4.3,1.9-4.3,4.6c0,2.7,1.7,4.7,4.3,4.7C593.7,183.7,595.3,181.8,595.3,179z"/>
		<path class="st0" d="M602.8,171.6h3.6l-0.1,2.7c0.9-1.9,2.8-3.1,5-3.1c3.3,0,5.5,2.3,5.5,6.3v8.8h-3.6V178c0-2.1-1-3.3-3.1-3.3
			c-2.3,0-3.8,1.4-3.8,3.8v8h-3.6V171.6z"/>
	</g>
	<path class="st0" d="M606.5,81.9l-10.8-10.8l0,0l-3.6-3.6l-3.5-3.5l-3.6-3.6l-10.2-10.2l-0.6-0.6l-10.7-10.7l-10.7,10.7l-45.6,45.6
		l-10.7,10.7l10.7,10.7l32.3,32.3l10.7,10.7l10.7-10.7l45.6-45.6l10.7-10.7L606.5,81.9z M550.2,138.2l-32.3-32.3l45.6-45.6
		l10.6,10.6l0.3,0.2L585,81.8l0.2,0.2l10.6,10.6L550.2,138.2z"/>
	<path class="st0" d="M332.7,124.6c-15.5,0-28.2-12.6-28.2-28.2c0-15.6,12.6-28.2,28.2-28.2c8.9,0,16.9,4.2,22,10.6l16.9-13.4
		c-9.1-11.5-23.2-18.8-38.9-18.8C305.2,46.7,283,69,283,96.4s22.3,49.8,49.7,49.8c15.4,0,29.1-7,38.2-17.9l-16.6-13.8
		C349.2,120.7,341.4,124.6,332.7,124.6z"/>
	<path class="st0" d="M103.1,49.1c-0.4,0-0.8,0-1.1,0c-0.3,0-0.6,0-1,0c-8.1,0-15,2-20.5,5.6c-1.9,1-3.8,2.1-5.5,3.4v-6.8l0-0.9
		H52.7v135.3h22.4v-11.9v-36.1c7.9,5.6,17.6,9,28.1,9c26.9,0,48.7-21.8,48.7-48.7S130,49.1,103.1,49.1z M103.1,125.5
		c-15.2,0-27.6-12.4-27.6-27.6s12.4-27.6,27.6-27.6s27.6,12.4,27.6,27.6S118.4,125.5,103.1,125.5z"/>
	<path id="XMLID_4_" class="st0" d="M220,52.1c-16.9-4.6-27.1,2.3-32.5,8.4v-8.9h-22.2v28h0v64.1h22.2v-42.9
		c0-20.6,9-28.3,22.1-28.3c5,0,8.5,1.3,12.1,3.1l7.5-20C226.6,53.9,223.6,52.8,220,52.1z"/>
	<path class="st0" d="M481.2,107.5c0.8-3.6,1.3-7.3,1.3-11.2c0-2.1-0.1-4.2-0.4-6.2c-0.2-1.7-0.5-3.3-0.9-4.9
		c-5-22.1-24.8-38.6-48.5-38.6s-43.4,16.5-48.5,38.6c-0.8,3.6-1.3,7.3-1.3,11.2c0,0.6,0.1,1.2,0.1,1.7l0,0c0,0.7,0.1,1.5,0.1,2.2
		c0.2,6.6,1.5,12.7,3.9,18.2c2.7,6.1,6.3,11.3,10.9,15.7c4.6,4.3,10.1,7.7,16.4,10.1c6.3,2.4,13,3.5,20.1,3.5
		c7.5,0,14.7-1.4,21.5-4.3c6.8-2.9,13-7.8,18.5-14.6l-17-12.8c-3,3.7-6.5,6.7-10.6,9.2c-4,2.4-9,3.6-14.9,3.6
		c-6.7,0-12.4-2-17.2-5.9c-4.4-3.7-7.1-8.7-8.1-15.1c0-0.1,0-0.2,0-0.2c0,0,0-0.1,0-0.1h0H481.2z M414.3,72.2
		c4.1-4.1,9.8-6.1,16.9-6.1c7.5,0,13.3,2,17.6,6c4.2,4,6.4,9.5,6.5,16.5h-48.5C407.6,81.8,410.1,76.3,414.3,72.2z"/>
	<path class="st1" d="M606.6,81.8l5-5l0,0c8.3-9,8.1-22.9-0.6-31.7c-8.7-8.7-22.7-8.9-31.7-0.6l0,0l-15.8,15.8l10.8,10.8l15.8-15.8
		c3-3,7.7-3,10.7,0c3,3,3,7.7,0,10.7l-5.1,5.1L606.6,81.8"/>
</g>
</svg>
