<?xml version="1.0" encoding="utf-8"?>
<!-- Generator: Adobe Illustrator 19.1.0, SVG Export Plug-In . SVG Version: 6.00 Build 0)  -->
<svg version="1.1" id="Layer_1" xmlns="http://www.w3.org/2000/svg" xmlns:xlink="http://www.w3.org/1999/xlink" x="0px" y="0px"
	 viewBox="0 0 1367.7 648.7" style="enable-background:new 0 0 1367.7 648.7;" xml:space="preserve">
<style type="text/css">
	.st0{fill:#716E7D;}
	.st1{fill:#922627;}
	.st2{fill:#C62426;}
	.st3{fill:none;stroke:#4A475A;stroke-width:3;stroke-miterlimit:10;}
	.st4{fill:#615D75;}
	.st5{fill:#817B9B;}
	.st6{opacity:0.26;fill:#E9D494;}
	.st7{fill:#C45390;stroke:#C34932;stroke-miterlimit:10;}
	.st8{fill:#C5922C;}
	.st9{fill:#C36E52;}
	.st10{fill:#B2872D;}
	.st11{fill:none;stroke:#C4922C;stroke-width:4;stroke-miterlimit:10;}
	.st12{fill:none;stroke:#C4922C;stroke-width:5;stroke-miterlimit:10;}
	.st13{opacity:0.35;fill:#C4922C;}
</style>
<g>
	<g>
		<path class="st0" d="M494.5,363.2h-12c-3,0-5.5-2.5-5.5-5.5v-23c0-3,2.5-5.5,5.5-5.5h12c3,0,5.5,2.5,5.5,5.5v23
			C500,360.7,497.5,363.2,494.5,363.2z"/>
		<polygon class="st0" points="496.9,332.8 503.1,322.4 474.8,322.4 480,332.8 		"/>
		
			<rect x="479.9" y="312.4" transform="matrix(0.8973 -0.4413 0.4413 0.8973 -95.914 245.9718)" class="st0" width="1.7" height="33.5"/>
	</g>
	<g>
		<rect x="832.1" y="162.3" class="st1" width="152.7" height="311.8"/>
		<rect x="786.9" y="419.7" class="st1" width="254.3" height="75.3"/>
		<rect x="1010" y="484.5" class="st1" width="10.5" height="112.8"/>
		<rect x="811.2" y="484.5" class="st1" width="10.5" height="112.8"/>
	</g>
	<g>
		<rect x="451.5" y="352.7" class="st2" width="883.2" height="38.6"/>
		<rect x="1212.9" y="370.4" class="st2" width="25.1" height="227"/>
		<rect x="558" y="370.4" class="st2" width="25.1" height="227"/>
	</g>
	<polyline class="st3" points="1254.4,282.6 1254.5,171.7 1245.4,171.7 1245.4,163.3 1177.4,132 	"/>
	<g>
		<rect x="1212.9" y="304.6" class="st4" width="82.8" height="48.1"/>
		<path class="st4" d="M1269.5,352.7h-30c-7.6,0-13.8-6.2-13.8-13.8V289c0-7.6,6.2-13.8,13.8-13.8h30c7.6,0,13.8,6.2,13.8,13.8V339
			C1283.2,346.5,1277.1,352.7,1269.5,352.7z"/>
	</g>
	<g>
		<path class="st5" d="M1197.3,122.1l-41.9,25.7c-3.4,2.1-7.9,1-10-2.4l-8.3-13.5c-2.1-3.4-1-7.9,2.4-10l41.9-25.7
			c3.4-2.1,7.9-1,10,2.4l8.3,13.5C1201.8,115.5,1200.7,120,1197.3,122.1z"/>
		<polygon class="st5" points="1160.7,109 1098.9,122 1160.7,174.8 1177.4,132 		"/>
	</g>
	<polygon class="st6" points="1097.9,121.8 646.9,352.5 1064.4,352.5 1159.6,174.7 	"/>
	<g>
		<rect x="528.7" y="322.4" class="st7" width="97.3" height="9.4"/>
		<rect x="528.7" y="332.8" class="st7" width="97.3" height="9.4"/>
		<rect x="528.7" y="343.3" class="st7" width="97.3" height="9.4"/>
	</g>
	<path class="st8" d="M257.4,480.2H73.2c-14.2,0-25.8-11.5-25.8-25.8v-372c0-14.2,11.5-25.8,25.8-25.8h184.2
		c14.2,0,25.8,11.5,25.8,25.8v372C283.2,468.7,271.7,480.2,257.4,480.2z"/>
	<path class="st9" d="M246.2,436H83c-12.2,0-22.1-9.9-22.1-22.1V95c0-12.2,9.9-22.1,22.1-22.1h163.3c12.2,0,22.1,9.9,22.1,22.1
		v318.9C268.3,426.1,258.4,436,246.2,436z"/>
	<path class="st10" d="M190.5,466.6h-57.4c-2.2,0-4-1.8-4-4v-8.8c0-2.2,1.8-4,4-4h57.4c2.2,0,4,1.8,4,4v8.8
		C194.5,464.8,192.7,466.6,190.5,466.6z"/>
	<g>
		<rect x="130.2" y="134.9" class="st11" width="59.5" height="49.4"/>
		<rect x="130.2" y="202.3" class="st11" width="59.5" height="49.4"/>
		<rect x="130.2" y="269.6" class="st11" width="59.5" height="49.4"/>
		<rect x="130.2" y="337" class="st11" width="59.5" height="49.4"/>
		<polyline class="st12" points="149.9,151.7 165.2,176.4 206.6,114.7 		"/>
		<polyline class="st12" points="149.9,214.6 165.2,239.3 206.6,177.6 		"/>
	</g>
	<path class="st13" d="M268,97.2L81.1,435.2c0,0-19.9-12.8-19.9-27.9c0-15,0-304.1,0-304.1S62,73.7,90.6,73.7s148.6,0,148.6,0
		S267.4,77.1,268,97.2z"/>
</g>
</svg>
