<!-- Generator: Adobe Illustrator 19.1.0, SVG Export Plug-In  -->
<svg version="1.1"
	 xmlns="http://www.w3.org/2000/svg" xmlns:xlink="http://www.w3.org/1999/xlink" xmlns:a="http://ns.adobe.com/AdobeSVGViewerExtensions/3.0/"
	 x="0px" y="0px" width="1432.1px" height="256px" viewBox="0 0 1432.1 256"
	 style="overflow:scroll;enable-background:new 0 0 1432.1 256;" xml:space="preserve">
<style type="text/css">
	.st0{fill:#4AC2C6;}
	.st1{fill:none;}
	.st2{fill:#FFFFFF;}
	.st3{fill:#F2673A;}
</style>
<defs>
</defs>
<rect x="0.6" class="st0" width="1431.5" height="256"/>
<g>
	<polygon class="st1" points="3.2,98.5 0,101.3 0,216.6 60.5,162 41.8,141.2 41.3,140.7 22.3,119.7 21.9,119.2 	"/>
	<path class="st1" d="M73.3,92.7c-5.2-5.8-14.2-6.3-20-1l-10,9l6.4,7.1l6.1,6.8l6.4,7.1l10-9C78.1,107.5,78.6,98.5,73.3,92.7z"/>
	<polygon class="st2" points="3.2,98.5 24.2,79.5 5.2,58.4 0,63.2 0,101.3 	"/>
	<polygon class="st2" points="21.9,119.2 22.3,119.7 3.2,98.5 	"/>
	<polygon class="st2" points="81.6,143 62.4,121.7 55.9,114.6 49.8,107.8 43.4,100.7 22.3,119.7 41.3,140.7 41.8,141.2 60.5,162 
		0,216.6 0,254.8 79.5,183 100.6,164 81.6,143 	"/>
	<path class="st3" d="M25.3,80.7l18.1,20l0,0l10-9c5.8-5.2,14.7-4.8,20,1c5.2,5.8,4.8,14.7-1,20l-10,9L81.5,143l0.1,0.1l0-0.1
		l9.9-8.9l0,0c16.4-16,17.4-42.1,1.9-59.3c-15.5-17.1-41.6-18.9-59.2-4.1l0,0l-10,9l0,0L25.3,80.7z"/>
	<polygon class="st3" points="62.4,121.7 81.6,143 81.6,143 81.5,143 	"/>
	<polygon class="st3" points="22.3,119.7 43.4,100.7 43.4,100.7 25.3,80.7 24.2,79.5 24.2,79.5 3.2,98.5 	"/>
</g>
</svg>