<svg id="Layer_1" data-name="Layer 1" xmlns="http://www.w3.org/2000/svg" viewBox="0 0 239.74 223.72"><defs><style>.cls-1,.cls-5,.cls-8{fill:#fff;}.cls-1,.cls-2,.cls-8{stroke:#f2673a;}.cls-1,.cls-11,.cls-2,.cls-3{stroke-miterlimit:10;}.cls-11,.cls-2{fill:none;}.cls-3{fill:#49c2c6;stroke:#49c2c6;}.cls-4{fill:#f2673a;}.cls-6,.cls-7,.cls-9{fill:#0c6b88;}.cls-7,.cls-9{stroke:#0c6b88;}.cls-7,.cls-8,.cls-9{stroke-linecap:round;stroke-linejoin:round;}.cls-11,.cls-8,.cls-9{stroke-width:1.5px;}.cls-10{fill:#cbcacc;}.cls-11{stroke:#e6e6e5;}.cls-12{fill:#e6e6e5;}</style></defs><title>user2</title><rect class="cls-1" x="29.7" y="18.13" width="75.72" height="88.79"/><path class="cls-2" d="M40.54,30.2V23.64a18.51,18.51,0,0,1,37,0V30.2"/><path class="cls-2" d="M55.38,23.64a18.51,18.51,0,0,1,37,0"/><circle class="cls-3" cx="119.5" cy="43.66" r="2.66"/><path class="cls-4" d="M136.35,0s-1.06,5.66-6.57,6.48c5.51,0.82,6.57,6.48,6.57,6.48s1.06-5.66,6.57-6.48C137.41,5.66,136.35,0,136.35,0Z"/><path class="cls-5" d="M128.39,45.38c-1.17-3.6-4.71-11.57-13.71-14,9-2.46,12.54-10.43,13.71-14,1.17,3.6,4.71,11.57,13.71,14C133.1,33.81,129.56,41.78,128.39,45.38Z"/><path class="cls-4" d="M128.39,18.8c1.47,3.79,4.88,9.94,12.06,12.55-7.18,2.61-10.59,8.75-12.06,12.55-1.47-3.79-4.88-9.94-12.06-12.55,7.18-2.61,10.59-8.75,12.06-12.55m0-3.38s-2.6,13.92-16.15,15.92c13.54,2,16.15,15.92,16.15,15.92s2.6-13.92,16.15-15.92c-13.54-2-16.15-15.92-16.15-15.92h0Z"/><path class="cls-6" d="M118.27,23.05a7.94,7.94,0,0,0-4.14-4.34,7.94,7.94,0,0,0,4.14-4.34,7.94,7.94,0,0,0,4.14,4.34A7.94,7.94,0,0,0,118.27,23.05Z"/><path class="cls-6" d="M118.27,15.54a8.49,8.49,0,0,0,3,3.16,8.49,8.49,0,0,0-3,3.16,8.49,8.49,0,0,0-3-3.16,8.49,8.49,0,0,0,3-3.16m0-2.77s-1,5.19-6,5.94c5,0.75,6,5.94,6,5.94s1-5.19,6-5.94c-5-.75-6-5.94-6-5.94h0Z"/><circle class="cls-4" cx="40.54" cy="31.35" r="2.51"/><circle class="cls-4" cx="77.56" cy="31.35" r="2.51"/><rect class="cls-7" x="87.26" y="18.13" width="18.16" height="88.79"/><path class="cls-8" d="M169.21,152.32s-1.89,5.52-9.74,5.52c0,0-14,3.7-12.61,20.84v43.9h55.87V152.32H169.21Z"/><rect class="cls-8" x="169.21" y="115.48" width="36.19" height="36.84" transform="translate(374.62 267.8) rotate(180)"/><path class="cls-8" d="M149.42,120.7s0.29,16,19.79,19c0,0,17.75-2.31,20-20.82l2.24-19.55h0c0-10.34-10-18.7-22.22-18.7S147,89,147,99.36h0l2.52,22.35"/><polygon class="cls-4" points="162.06 111.14 162.06 119.89 157.58 119.89 162.06 111.14"/><path class="cls-9" d="M182,97.94c-0.92,6.21-.58,16.76,10.95,21v18.27s0.67,13.45,9.08,15.13,9.75,12.1,9.75,21.18v49.08H239V177.87s-0.82-19.08-18.19-21.12A8.26,8.26,0,0,1,214,145.52l0.11-.26c3.3-7.75,18.68-41.21-9-50.34a13.08,13.08,0,0,1-8.55-8.79C194.84,80.3,189.3,73,172.09,73,143.51,73,147,99.36,147,99.36s10.42,20,32.7-2.53A1.34,1.34,0,0,1,182,97.94Z"/><path class="cls-4" d="M173.17,113.64a3.25,3.25,0,0,0-6.5,0h6.5Z"/><path class="cls-4" d="M157.58,113.64a3.25,3.25,0,0,0-6.5,0h6.5Z"/><path class="cls-8" d="M173.64,116.07s1.6,11.83-12.63,10.34"/><circle class="cls-8" cx="192.92" cy="110.19" r="5.09"/><line class="cls-8" x1="196.62" y1="153.32" x2="196.62" y2="211.94"/><line class="cls-8" x1="192.92" y1="153.32" x2="192.92" y2="211.94"/><line class="cls-8" x1="189.22" y1="153.32" x2="189.22" y2="211.94"/><line class="cls-8" x1="185.53" y1="153.32" x2="185.53" y2="211.94"/><line class="cls-8" x1="181.83" y1="153.32" x2="181.83" y2="211.94"/><line class="cls-8" x1="178.13" y1="153.32" x2="178.13" y2="211.94"/><line class="cls-8" x1="174.43" y1="153.32" x2="174.43" y2="211.94"/><line class="cls-8" x1="170.73" y1="153.32" x2="170.73" y2="211.94"/><line class="cls-8" x1="167.04" y1="156.11" x2="167.04" y2="211.94"/><line class="cls-8" x1="163.34" y1="157.84" x2="163.34" y2="211.94"/><line class="cls-8" x1="159.64" y1="157.84" x2="159.64" y2="211.94"/><path class="cls-8" d="M214.64,222.58v-51.1s-1.77-19.16-13.48-19.16v59.62H154s-19.53-13.84-30.17,10.65h90.85Z"/><circle class="cls-8" cx="117.55" cy="131.72" r="7.29"/><path class="cls-10" d="M6.2,213.88H159.65a5.47,5.47,0,0,1,5.47,5.47v4.37a0,0,0,0,1,0,0H0.73a0,0,0,0,1,0,0v-4.37A5.47,5.47,0,0,1,6.2,213.88Z" transform="translate(165.85 437.6) rotate(180)"/><line class="cls-11" x1="123.79" y1="213.88" x2="123.79" y2="223.72"/><rect class="cls-12" y="122.89" width="136.77" height="91.71" rx="8.73" ry="8.73" transform="translate(136.77 337.49) rotate(180)"/></svg>