<!-- Generator: Adobe Illustrator 19.1.0, SVG Export Plug-In  -->
<svg version="1.1"
	 xmlns="http://www.w3.org/2000/svg" xmlns:xlink="http://www.w3.org/1999/xlink" xmlns:a="http://ns.adobe.com/AdobeSVGViewerExtensions/3.0/"
	 x="0px" y="0px" width="241.8px" height="159.5px" viewBox="0 0 241.8 159.5"
	 style="overflow:scroll;enable-background:new 0 0 241.8 159.5;" xml:space="preserve">
<style type="text/css">
	.st0{fill:#086A87;}
	.st1{fill:#FFFFFF;stroke:#ED6A4A;stroke-width:1.3374;stroke-miterlimit:10;}
	.st2{fill:#086A87;stroke:#086A87;stroke-width:0.6687;stroke-linecap:round;stroke-linejoin:round;stroke-miterlimit:10;}
	.st3{fill:#33CCCC;stroke:#33CCCC;stroke-width:0.6687;stroke-miterlimit:10;}
</style>
<defs>
</defs>
<g>
	<g>
		<path class="st0" d="M15.1,96.1h-3.6v-7.4H4.7v7.4H1.1V79h3.6v6.7h6.8V79h3.6V96.1z"/>
		<path class="st0" d="M27.5,96.1l-0.7-1.8h-0.1c-0.6,0.8-1.2,1.3-1.9,1.6s-1.5,0.4-2.5,0.4c-1.3,0-2.2-0.4-3-1.1s-1.1-1.7-1.1-3.1
			c0-1.4,0.5-2.4,1.5-3.1s2.4-1,4.4-1.1l2.3-0.1v-0.6c0-1.3-0.7-2-2-2c-1,0-2.3,0.3-3.7,0.9l-1.2-2.4c1.5-0.8,3.2-1.2,5-1.2
			c1.8,0,3.1,0.4,4,1.1s1.4,1.9,1.4,3.5v8.7H27.5z M26.4,90.1l-1.4,0c-1,0-1.8,0.2-2.3,0.6S22,91.5,22,92.2c0,1,0.6,1.5,1.7,1.5
			c0.8,0,1.5-0.2,2-0.7s0.7-1.1,0.7-1.9V90.1z"/>
		<path class="st0" d="M37.2,96.1h-3.6V77.9h3.6V96.1z"/>
		<path class="st0" d="M54.5,85.7h-3.1v10.4h-3.6V85.7h-2V84l2-1v-1c0-1.5,0.4-2.6,1.1-3.3s1.9-1,3.5-1c1.2,0,2.3,0.2,3.3,0.6
			l-0.9,2.6c-0.7-0.2-1.4-0.3-2-0.3c-0.5,0-0.9,0.2-1.1,0.5s-0.3,0.7-0.3,1.2V83h3.1V85.7z"/>
		<path class="st0" d="M64.8,96.1l-0.7-1.8H64c-0.6,0.8-1.2,1.3-1.9,1.6s-1.5,0.4-2.5,0.4c-1.3,0-2.2-0.4-3-1.1s-1.1-1.7-1.1-3.1
			c0-1.4,0.5-2.4,1.5-3.1s2.4-1,4.4-1.1l2.3-0.1v-0.6c0-1.3-0.7-2-2-2c-1,0-2.3,0.3-3.7,0.9l-1.2-2.4c1.5-0.8,3.2-1.2,5-1.2
			c1.8,0,3.1,0.4,4,1.1s1.4,1.9,1.4,3.5v8.7H64.8z M63.8,90.1l-1.4,0c-1,0-1.8,0.2-2.3,0.6s-0.8,0.9-0.8,1.6c0,1,0.6,1.5,1.7,1.5
			c0.8,0,1.5-0.2,2-0.7s0.7-1.1,0.7-1.9V90.1z"/>
		<path class="st0" d="M74.1,96.1l-5-13.1h3.7l2.5,7.5c0.3,0.8,0.4,1.7,0.5,2.7H76c0-0.9,0.2-1.8,0.5-2.7L79,83h3.7l-5,13.1H74.1z"
			/>
		<path class="st0" d="M96.6,89.6c0,2.1-0.6,3.8-1.7,5s-2.7,1.8-4.7,1.8c-1.3,0-2.4-0.3-3.3-0.8s-1.7-1.3-2.2-2.4s-0.8-2.2-0.8-3.6
			c0-2.1,0.6-3.8,1.7-5s2.7-1.8,4.7-1.8c1.3,0,2.4,0.3,3.3,0.8s1.7,1.3,2.2,2.4S96.6,88.2,96.6,89.6z M87.5,89.6
			c0,1.3,0.2,2.3,0.6,2.9s1.1,1,2.1,1c1,0,1.6-0.3,2.1-1s0.6-1.6,0.6-2.9c0-1.3-0.2-2.3-0.6-2.9s-1.1-1-2.1-1c-1,0-1.6,0.3-2.1,1
			S87.5,88.3,87.5,89.6z"/>
		<path class="st0" d="M106.8,82.8c0.5,0,0.9,0,1.2,0.1l-0.3,3.4c-0.3-0.1-0.6-0.1-1.1-0.1c-1.1,0-2,0.3-2.7,0.9s-1,1.4-1,2.5v6.7
			h-3.6V83h2.7l0.5,2.2h0.2c0.4-0.7,1-1.3,1.6-1.8S106,82.8,106.8,82.8z"/>
		<path class="st0" d="M110.3,79.6c0-1.2,0.6-1.7,1.9-1.7s1.9,0.6,1.9,1.7c0,0.6-0.2,1-0.5,1.3s-0.8,0.5-1.5,0.5
			C110.9,81.4,110.3,80.8,110.3,79.6z M114,96.1h-3.6V83h3.6V96.1z"/>
		<path class="st0" d="M123.3,93.5c0.6,0,1.4-0.1,2.3-0.4v2.7c-0.9,0.4-2,0.6-3.3,0.6c-1.4,0-2.5-0.4-3.1-1.1s-1-1.8-1-3.3v-6.3
			h-1.7v-1.5l2-1.2l1-2.8h2.3V83h3.7v2.7h-3.7V92c0,0.5,0.1,0.9,0.4,1.1S122.8,93.5,123.3,93.5z"/>
		<path class="st0" d="M139.9,93.5c0.6,0,1.4-0.1,2.3-0.4v2.7c-0.9,0.4-2,0.6-3.3,0.6c-1.4,0-2.5-0.4-3.1-1.1s-1-1.8-1-3.3v-6.3
			h-1.7v-1.5l2-1.2l1-2.8h2.3V83h3.7v2.7h-3.7V92c0,0.5,0.1,0.9,0.4,1.1S139.4,93.5,139.9,93.5z"/>
		<path class="st0" d="M150.7,96.4c-2.1,0-3.8-0.6-4.9-1.7s-1.8-2.8-1.8-4.9c0-2.2,0.5-3.9,1.6-5.1s2.6-1.8,4.6-1.8
			c1.9,0,3.3,0.5,4.3,1.6s1.5,2.5,1.5,4.4v1.7h-8.4c0,1,0.3,1.8,0.9,2.4s1.4,0.9,2.4,0.9c0.8,0,1.5-0.1,2.2-0.2s1.4-0.4,2.2-0.8v2.8
			c-0.6,0.3-1.3,0.5-2,0.7S151.8,96.4,150.7,96.4z M150.2,85.3c-0.8,0-1.4,0.2-1.8,0.7s-0.7,1.2-0.7,2h5c0-0.9-0.2-1.6-0.7-2
			S151,85.3,150.2,85.3z"/>
		<path class="st0" d="M171.1,96.1h-3.6v-7.7c0-0.9-0.2-1.7-0.5-2.1s-0.9-0.7-1.6-0.7c-1,0-1.7,0.3-2.2,1s-0.7,1.8-0.7,3.3v6.2H159
			V83h2.7l0.5,1.7h0.2c0.4-0.6,0.9-1.1,1.6-1.4s1.5-0.5,2.4-0.5c1.5,0,2.7,0.4,3.5,1.2s1.2,2,1.2,3.6V96.1z"/>
		<path class="st0" d="M180.3,93.5c0.6,0,1.4-0.1,2.3-0.4v2.7c-0.9,0.4-2,0.6-3.3,0.6c-1.4,0-2.5-0.4-3.1-1.1s-1-1.8-1-3.3v-6.3
			h-1.7v-1.5l2-1.2l1-2.8h2.3V83h3.7v2.7h-3.7V92c0,0.5,0.1,0.9,0.4,1.1S179.8,93.5,180.3,93.5z"/>
		<path class="st0" d="M193.5,96.1l-0.7-1.8h-0.1c-0.6,0.8-1.2,1.3-1.9,1.6s-1.5,0.4-2.5,0.4c-1.3,0-2.2-0.4-3-1.1s-1.1-1.7-1.1-3.1
			c0-1.4,0.5-2.4,1.5-3.1s2.4-1,4.4-1.1l2.3-0.1v-0.6c0-1.3-0.7-2-2-2c-1,0-2.3,0.3-3.7,0.9l-1.2-2.4c1.5-0.8,3.2-1.2,5-1.2
			c1.8,0,3.1,0.4,4,1.1s1.4,1.9,1.4,3.5v8.7H193.5z M192.4,90.1l-1.4,0c-1,0-1.8,0.2-2.3,0.6s-0.8,0.9-0.8,1.6c0,1,0.6,1.5,1.7,1.5
			c0.8,0,1.5-0.2,2-0.7s0.7-1.1,0.7-1.9V90.1z"/>
		<path class="st0" d="M211.8,96.1h-3.6v-7.7c0-0.9-0.2-1.7-0.5-2.1s-0.9-0.7-1.6-0.7c-1,0-1.7,0.3-2.2,1s-0.7,1.8-0.7,3.3v6.2h-3.6
			V83h2.7l0.5,1.7h0.2c0.4-0.6,0.9-1.1,1.6-1.4s1.5-0.5,2.4-0.5c1.5,0,2.7,0.4,3.5,1.2s1.2,2,1.2,3.6V96.1z"/>
		<path class="st0" d="M226.9,96.2c0,1.9-0.5,3.3-1.6,4.3s-2.7,1.5-4.9,1.5c-1.9,0-3.5-0.3-4.9-0.8v-2.9c1.6,0.7,3.3,1,5.1,1
			c1.8,0,2.8-1,2.8-3V96l0.1-1.6h-0.1c-0.8,1.3-2.1,1.9-3.7,1.9c-1.6,0-2.8-0.6-3.7-1.8s-1.3-2.9-1.3-4.9c0-2.1,0.4-3.8,1.3-5
			s2.1-1.8,3.7-1.8c1.6,0,2.9,0.6,3.8,1.9h0.1l0.3-1.7h3V96.2z M220.9,93.6c1,0,1.6-0.3,2.1-0.8s0.6-1.4,0.6-2.7v-0.4
			c0-1.4-0.2-2.4-0.7-3s-1.1-0.9-2.1-0.9c-1.7,0-2.5,1.3-2.5,4c0,1.3,0.2,2.3,0.6,2.9S220,93.6,220.9,93.6z"/>
		<path class="st0" d="M8.1,111.6c1.5,0,2.8,0.6,3.6,1.8s1.3,2.9,1.3,5c0,2.2-0.5,3.8-1.4,5s-2.1,1.8-3.7,1.8
			c-1.5,0-2.7-0.6-3.6-1.7H4.1l-0.6,1.4H0.8v-18.2h3.6v4.2c0,0.5,0,1.4-0.1,2.6h0.1C5.2,112.2,6.4,111.6,8.1,111.6z M6.9,114.4
			c-0.9,0-1.5,0.3-1.9,0.8s-0.6,1.4-0.6,2.7v0.4c0,1.4,0.2,2.4,0.6,3s1.1,0.9,2,0.9c0.7,0,1.3-0.3,1.8-1s0.7-1.7,0.7-2.9
			s-0.2-2.3-0.7-2.9S7.7,114.4,6.9,114.4z"/>
		<path class="st0" d="M21.9,125.2c-2.1,0-3.8-0.6-4.9-1.7s-1.8-2.8-1.8-4.9c0-2.2,0.5-3.9,1.6-5.1s2.6-1.8,4.6-1.8
			c1.9,0,3.3,0.5,4.3,1.6s1.5,2.5,1.5,4.4v1.7h-8.4c0,1,0.3,1.8,0.9,2.4s1.4,0.9,2.4,0.9c0.8,0,1.5-0.1,2.2-0.2s1.4-0.4,2.2-0.8v2.8
			c-0.6,0.3-1.3,0.5-2,0.7S22.9,125.2,21.9,125.2z M21.4,114.1c-0.8,0-1.4,0.2-1.8,0.7s-0.7,1.2-0.7,2h5c0-0.9-0.2-1.6-0.7-2
			S22.2,114.1,21.4,114.1z"/>
		<path class="st0" d="M33.7,124.9h-3.6v-18.2h3.6V124.9z"/>
		<path class="st0" d="M45.8,124.9l-0.7-1.8H45c-0.6,0.8-1.2,1.3-1.9,1.6s-1.5,0.4-2.5,0.4c-1.3,0-2.2-0.4-3-1.1s-1.1-1.7-1.1-3.1
			c0-1.4,0.5-2.4,1.5-3.1s2.4-1,4.4-1.1l2.3-0.1v-0.6c0-1.3-0.7-2-2-2c-1,0-2.3,0.3-3.7,0.9l-1.2-2.4c1.5-0.8,3.2-1.2,5-1.2
			c1.8,0,3.1,0.4,4,1.1s1.4,1.9,1.4,3.5v8.7H45.8z M44.8,118.9l-1.4,0c-1,0-1.8,0.2-2.3,0.6s-0.8,0.9-0.8,1.6c0,1,0.6,1.5,1.7,1.5
			c0.8,0,1.5-0.2,2-0.7s0.7-1.1,0.7-1.9V118.9z"/>
		<path class="st0" d="M64.1,124.9h-3.6v-7.7c0-0.9-0.2-1.7-0.5-2.1s-0.9-0.7-1.6-0.7c-1,0-1.7,0.3-2.2,1s-0.7,1.8-0.7,3.3v6.2H52
			v-13.1h2.7l0.5,1.7h0.2c0.4-0.6,0.9-1.1,1.6-1.4s1.5-0.5,2.4-0.5c1.5,0,2.7,0.4,3.5,1.2s1.2,2,1.2,3.6V124.9z"/>
		<path class="st0" d="M66.7,130.7c-0.9,0-1.7-0.1-2.4-0.3v-2.8c0.5,0.1,1.1,0.2,1.7,0.2c0.6,0,1-0.2,1.3-0.5s0.4-0.8,0.4-1.5v-14
			h3.6v14.5c0,1.4-0.4,2.5-1.2,3.2S68.2,130.7,66.7,130.7z M67.6,108.4c0-1.2,0.6-1.7,1.9-1.7s1.9,0.6,1.9,1.7c0,0.6-0.2,1-0.5,1.3
			s-0.8,0.5-1.5,0.5C68.3,110.2,67.6,109.6,67.6,108.4z"/>
		<path class="st0" d="M83.4,124.9l-0.7-1.8h-0.1c-0.6,0.8-1.2,1.3-1.9,1.6s-1.5,0.4-2.5,0.4c-1.3,0-2.2-0.4-3-1.1s-1.1-1.7-1.1-3.1
			c0-1.4,0.5-2.4,1.5-3.1s2.4-1,4.4-1.1l2.3-0.1v-0.6c0-1.3-0.7-2-2-2c-1,0-2.3,0.3-3.7,0.9l-1.2-2.4c1.5-0.8,3.2-1.2,5-1.2
			c1.8,0,3.1,0.4,4,1.1s1.4,1.9,1.4,3.5v8.7H83.4z M82.3,118.9l-1.4,0c-1,0-1.8,0.2-2.3,0.6s-0.8,0.9-0.8,1.6c0,1,0.6,1.5,1.7,1.5
			c0.8,0,1.5-0.2,2-0.7s0.7-1.1,0.7-1.9V118.9z"/>
		<path class="st0" d="M107.7,118.4c0,2.1-0.6,3.8-1.7,5s-2.7,1.8-4.7,1.8c-1.3,0-2.4-0.3-3.3-0.8s-1.7-1.3-2.2-2.4
			s-0.8-2.2-0.8-3.6c0-2.1,0.6-3.8,1.7-5s2.7-1.8,4.7-1.8c1.3,0,2.4,0.3,3.3,0.8s1.7,1.3,2.2,2.4S107.7,117,107.7,118.4z
			 M98.7,118.4c0,1.3,0.2,2.3,0.6,2.9s1.1,1,2.1,1c1,0,1.6-0.3,2.1-1s0.6-1.6,0.6-2.9c0-1.3-0.2-2.3-0.6-2.9s-1.1-1-2.1-1
			c-1,0-1.6,0.3-2.1,1S98.7,117.1,98.7,118.4z"/>
		<path class="st0" d="M122.8,124.9h-3.6v-7.7c0-0.9-0.2-1.7-0.5-2.1s-0.9-0.7-1.6-0.7c-1,0-1.7,0.3-2.2,1s-0.7,1.8-0.7,3.3v6.2
			h-3.6v-13.1h2.7l0.5,1.7h0.2c0.4-0.6,0.9-1.1,1.6-1.4s1.5-0.5,2.4-0.5c1.5,0,2.7,0.4,3.5,1.2s1.2,2,1.2,3.6V124.9z"/>
		<path class="st0" d="M130,124.9h-3.6v-18.2h3.6V124.9z"/>
		<path class="st0" d="M133.6,108.4c0-1.2,0.6-1.7,1.9-1.7s1.9,0.6,1.9,1.7c0,0.6-0.2,1-0.5,1.3s-0.8,0.5-1.5,0.5
			C134.3,110.2,133.6,109.6,133.6,108.4z M137.3,124.9h-3.6v-13.1h3.6V124.9z"/>
		<path class="st0" d="M153.2,124.9h-3.6v-7.7c0-0.9-0.2-1.7-0.5-2.1s-0.9-0.7-1.6-0.7c-1,0-1.7,0.3-2.2,1s-0.7,1.8-0.7,3.3v6.2
			h-3.6v-13.1h2.7l0.5,1.7h0.2c0.4-0.6,0.9-1.1,1.6-1.4s1.5-0.5,2.4-0.5c1.5,0,2.7,0.4,3.5,1.2s1.2,2,1.2,3.6V124.9z"/>
		<path class="st0" d="M162.8,125.2c-2.1,0-3.8-0.6-4.9-1.7s-1.8-2.8-1.8-4.9c0-2.2,0.5-3.9,1.6-5.1s2.6-1.8,4.6-1.8
			c1.9,0,3.3,0.5,4.3,1.6s1.5,2.5,1.5,4.4v1.7h-8.4c0,1,0.3,1.8,0.9,2.4s1.4,0.9,2.4,0.9c0.8,0,1.5-0.1,2.2-0.2s1.4-0.4,2.2-0.8v2.8
			c-0.6,0.3-1.3,0.5-2,0.7S163.8,125.2,162.8,125.2z M162.3,114.1c-0.8,0-1.4,0.2-1.8,0.7s-0.7,1.2-0.7,2h5c0-0.9-0.2-1.6-0.7-2
			S163.1,114.1,162.3,114.1z"/>
		<path class="st0" d="M4.9,154c-1.5,0-2.7-0.6-3.6-1.8s-1.3-2.9-1.3-5c0-2.1,0.4-3.8,1.3-5s2.1-1.8,3.7-1.8c1.6,0,2.9,0.6,3.8,1.9
			h0.1c-0.2-1-0.3-1.8-0.3-2.6v-4.2h3.6v18.2H9.5L8.8,152H8.7C7.8,153.3,6.6,154,4.9,154z M6.2,151.1c0.9,0,1.6-0.3,2-0.8
			s0.7-1.4,0.7-2.7v-0.4c0-1.4-0.2-2.4-0.7-3s-1.1-0.9-2.1-0.9c-0.8,0-1.4,0.3-1.9,1s-0.7,1.7-0.7,2.9s0.2,2.3,0.7,2.9
			S5.4,151.1,6.2,151.1z"/>
		<path class="st0" d="M21.9,154c-2.1,0-3.8-0.6-4.9-1.7s-1.8-2.8-1.8-4.9c0-2.2,0.5-3.9,1.6-5.1s2.6-1.8,4.6-1.8
			c1.9,0,3.3,0.5,4.3,1.6s1.5,2.5,1.5,4.4v1.7h-8.4c0,1,0.3,1.8,0.9,2.4s1.4,0.9,2.4,0.9c0.8,0,1.5-0.1,2.2-0.2s1.4-0.4,2.2-0.8v2.8
			c-0.6,0.3-1.3,0.5-2,0.7S22.9,154,21.9,154z M21.4,142.9c-0.8,0-1.4,0.2-1.8,0.7s-0.7,1.2-0.7,2h5c0-0.9-0.2-1.6-0.7-2
			S22.2,142.9,21.4,142.9z"/>
		<path class="st0" d="M42.3,153.7h-3.6v-7.7c0-0.9-0.2-1.7-0.5-2.1s-0.9-0.7-1.6-0.7c-1,0-1.7,0.3-2.2,1s-0.7,1.8-0.7,3.3v6.2h-3.6
			v-13.1h2.7l0.5,1.7h0.2c0.4-0.6,0.9-1.1,1.6-1.4s1.5-0.5,2.4-0.5c1.5,0,2.7,0.4,3.5,1.2s1.2,2,1.2,3.6V153.7z"/>
		<path class="st0" d="M57.4,153.8c0,1.9-0.5,3.3-1.6,4.3s-2.7,1.5-4.9,1.5c-1.9,0-3.5-0.3-4.9-0.8v-2.9c1.6,0.7,3.3,1,5.1,1
			c1.8,0,2.8-1,2.8-3v-0.3l0.1-1.6h-0.1c-0.8,1.3-2.1,1.9-3.7,1.9c-1.6,0-2.8-0.6-3.7-1.8s-1.3-2.9-1.3-4.9c0-2.1,0.4-3.8,1.3-5
			s2.1-1.8,3.7-1.8c1.6,0,2.9,0.6,3.8,1.9h0.1l0.3-1.7h3V153.8z M51.4,151.2c1,0,1.6-0.3,2.1-0.8s0.6-1.4,0.6-2.7v-0.4
			c0-1.4-0.2-2.4-0.7-3s-1.1-0.9-2.1-0.9c-1.7,0-2.5,1.3-2.5,4c0,1.3,0.2,2.3,0.6,2.9S50.5,151.2,51.4,151.2z"/>
		<path class="st0" d="M69.4,153.7l-0.7-1.8h-0.1c-0.6,0.8-1.2,1.3-1.9,1.6s-1.5,0.4-2.5,0.4c-1.3,0-2.2-0.4-3-1.1s-1.1-1.7-1.1-3.1
			c0-1.4,0.5-2.4,1.5-3.1s2.4-1,4.4-1.1l2.3-0.1V145c0-1.3-0.7-2-2-2c-1,0-2.3,0.3-3.7,0.9l-1.2-2.4c1.5-0.8,3.2-1.2,5-1.2
			c1.8,0,3.1,0.4,4,1.1s1.4,1.9,1.4,3.5v8.7H69.4z M68.4,147.7l-1.4,0c-1,0-1.8,0.2-2.3,0.6s-0.8,0.9-0.8,1.6c0,1,0.6,1.5,1.7,1.5
			c0.8,0,1.5-0.2,2-0.7s0.7-1.1,0.7-1.9V147.7z"/>
		<path class="st0" d="M87.7,153.7h-3.6v-7.7c0-0.9-0.2-1.7-0.5-2.1s-0.9-0.7-1.6-0.7c-1,0-1.7,0.3-2.2,1s-0.7,1.8-0.7,3.3v6.2h-3.6
			v-13.1h2.7l0.5,1.7H79c0.4-0.6,0.9-1.1,1.6-1.4s1.5-0.5,2.4-0.5c1.5,0,2.7,0.4,3.5,1.2s1.2,2,1.2,3.6V153.7z"/>
		<path class="st0" d="M106.8,149.8c0,1.3-0.5,2.4-1.4,3.1s-2.3,1.1-4.2,1.1c-1,0-1.8-0.1-2.4-0.2s-1.3-0.3-1.9-0.6v-3
			c0.7,0.3,1.4,0.6,2.2,0.8s1.6,0.3,2.2,0.3c1.3,0,1.9-0.4,1.9-1.1c0-0.3-0.1-0.5-0.3-0.7s-0.5-0.4-0.9-0.6s-1-0.5-1.7-0.8
			c-1-0.4-1.7-0.8-2.2-1.2s-0.8-0.8-1-1.2s-0.3-1-0.3-1.7c0-1.2,0.5-2.1,1.4-2.7s2.2-1,3.8-1c1.6,0,3.1,0.3,4.6,1l-1.1,2.6
			c-0.7-0.3-1.3-0.5-1.8-0.7s-1.2-0.3-1.7-0.3c-1.1,0-1.6,0.3-1.6,0.9c0,0.3,0.2,0.6,0.5,0.8s1.1,0.6,2.2,1c1,0.4,1.8,0.8,2.3,1.2
			s0.8,0.8,1.1,1.2S106.8,149.2,106.8,149.8z"/>
		<path class="st0" d="M121.3,153.7h-3.6v-7.7c0-0.9-0.2-1.7-0.5-2.1s-0.8-0.7-1.5-0.7c-0.9,0-1.6,0.3-2,1s-0.6,1.8-0.6,3.3v6.2
			h-3.6v-13.1h2.7l0.5,1.7h0.2c0.4-0.6,0.9-1.1,1.5-1.4s1.4-0.5,2.3-0.5c2,0,3.3,0.6,4,1.9h0.3c0.4-0.6,0.9-1.1,1.6-1.4
			s1.5-0.5,2.3-0.5c1.5,0,2.6,0.4,3.4,1.1s1.1,2,1.1,3.7v8.5h-3.6v-7.7c0-0.9-0.2-1.7-0.5-2.1s-0.8-0.7-1.5-0.7
			c-0.9,0-1.5,0.3-2,0.9s-0.7,1.6-0.7,3V153.7z"/>
		<path class="st0" d="M141.4,153.7l-0.7-1.8h-0.1c-0.6,0.8-1.2,1.3-1.9,1.6s-1.5,0.4-2.5,0.4c-1.3,0-2.2-0.4-3-1.1
			s-1.1-1.7-1.1-3.1c0-1.4,0.5-2.4,1.5-3.1s2.4-1,4.4-1.1l2.3-0.1V145c0-1.3-0.7-2-2-2c-1,0-2.3,0.3-3.7,0.9l-1.2-2.4
			c1.5-0.8,3.2-1.2,5-1.2c1.8,0,3.1,0.4,4,1.1s1.4,1.9,1.4,3.5v8.7H141.4z M140.4,147.7l-1.4,0c-1,0-1.8,0.2-2.3,0.6
			s-0.8,0.9-0.8,1.6c0,1,0.6,1.5,1.7,1.5c0.8,0,1.5-0.2,2-0.7s0.7-1.1,0.7-1.9V147.7z"/>
		<path class="st0" d="M154.9,140.4c0.5,0,0.9,0,1.2,0.1l-0.3,3.4c-0.3-0.1-0.6-0.1-1.1-0.1c-1.1,0-2,0.3-2.7,0.9s-1,1.4-1,2.5v6.7
			h-3.6v-13.1h2.7l0.5,2.2h0.2c0.4-0.7,1-1.3,1.6-1.8S154.1,140.4,154.9,140.4z"/>
		<path class="st0" d="M164,151.1c0.6,0,1.4-0.1,2.3-0.4v2.7c-0.9,0.4-2,0.6-3.3,0.6c-1.4,0-2.5-0.4-3.1-1.1s-1-1.8-1-3.3v-6.3h-1.7
			v-1.5l2-1.2l1-2.8h2.3v2.8h3.7v2.7h-3.7v6.3c0,0.5,0.1,0.9,0.4,1.1S163.6,151.1,164,151.1z"/>
		<path class="st0" d="M176.1,154c-1.5,0-2.7-0.6-3.6-1.7h-0.2c0.1,1.1,0.2,1.7,0.2,1.9v5.3h-3.6v-18.9h2.9l0.5,1.7h0.2
			c0.8-1.3,2.1-1.9,3.7-1.9c1.5,0,2.8,0.6,3.6,1.8s1.3,2.9,1.3,5c0,1.4-0.2,2.6-0.6,3.6s-1,1.8-1.8,2.4S177.2,154,176.1,154z
			 M175.1,143.2c-0.9,0-1.5,0.3-1.9,0.8s-0.6,1.4-0.6,2.7v0.4c0,1.4,0.2,2.4,0.6,3s1.1,0.9,2,0.9c1.6,0,2.4-1.3,2.4-4
			c0-1.3-0.2-2.3-0.6-2.9S175.9,143.2,175.1,143.2z"/>
		<path class="st0" d="M196.2,153.7h-3.6v-7.7c0-1.9-0.7-2.8-2.1-2.8c-1,0-1.7,0.3-2.2,1s-0.7,1.8-0.7,3.3v6.2h-3.6v-18.2h3.6v3.7
			c0,0.3,0,1-0.1,2l-0.1,1.1h0.2c0.8-1.3,2.1-1.9,3.8-1.9c1.5,0,2.7,0.4,3.5,1.2s1.2,2,1.2,3.6V153.7z"/>
		<path class="st0" d="M211.8,147.2c0,2.1-0.6,3.8-1.7,5s-2.7,1.8-4.7,1.8c-1.3,0-2.4-0.3-3.3-0.8s-1.7-1.3-2.2-2.4
			s-0.8-2.2-0.8-3.6c0-2.1,0.6-3.8,1.7-5s2.7-1.8,4.7-1.8c1.3,0,2.4,0.3,3.3,0.8s1.7,1.3,2.2,2.4S211.8,145.8,211.8,147.2z
			 M202.7,147.2c0,1.3,0.2,2.3,0.6,2.9s1.1,1,2.1,1c1,0,1.6-0.3,2.1-1s0.6-1.6,0.6-2.9c0-1.3-0.2-2.3-0.6-2.9s-1.1-1-2.1-1
			c-1,0-1.6,0.3-2.1,1S202.7,145.9,202.7,147.2z"/>
		<path class="st0" d="M226.9,153.7h-3.6v-7.7c0-0.9-0.2-1.7-0.5-2.1s-0.9-0.7-1.6-0.7c-1,0-1.7,0.3-2.2,1s-0.7,1.8-0.7,3.3v6.2
			h-3.6v-13.1h2.7l0.5,1.7h0.2c0.4-0.6,0.9-1.1,1.6-1.4s1.5-0.5,2.4-0.5c1.5,0,2.7,0.4,3.5,1.2s1.2,2,1.2,3.6V153.7z"/>
		<path class="st0" d="M236.5,154c-2.1,0-3.8-0.6-4.9-1.7s-1.8-2.8-1.8-4.9c0-2.2,0.5-3.9,1.6-5.1s2.6-1.8,4.6-1.8
			c1.9,0,3.3,0.5,4.3,1.6s1.5,2.5,1.5,4.4v1.7h-8.4c0,1,0.3,1.8,0.9,2.4s1.4,0.9,2.4,0.9c0.8,0,1.5-0.1,2.2-0.2s1.4-0.4,2.2-0.8v2.8
			c-0.6,0.3-1.3,0.5-2,0.7S237.5,154,236.5,154z M236,142.9c-0.8,0-1.4,0.2-1.8,0.7s-0.7,1.2-0.7,2h5c0-0.9-0.2-1.6-0.7-2
			S236.7,142.9,236,142.9z"/>
	</g>
</g>
<g>
	<path class="st1" d="M124.7,38.3L124.7,38.3c-2.4,0-4.4-2-4.4-4.4V5.1c0-2.4,2-4.4,4.4-4.4h0c2.4,0,4.4,2,4.4,4.4v28.9
		C129.1,36.3,127.1,38.3,124.7,38.3z"/>
	<path class="st1" d="M103,21.3h44.3v31.5c0,2.9-2.3,5.2-5.2,5.2h-21.8c0,0-8.2-1.9-9.4-9.6H103V21.3z"/>
	<rect x="91.7" y="19.7" class="st2" width="13.4" height="38.4"/>
	<path class="st1" d="M126.7,23.7v-1c0-1.8,1.4-3.2,3.2-3.2h17.5c1.8,0,3.2,1.4,3.2,3.2v1c0,1.8-1.4,3.2-3.2,3.2h-17.5
		C128.2,26.9,126.7,25.5,126.7,23.7z"/>
	<path class="st1" d="M126.7,31.1v-1c0-1.8,1.4-3.2,3.2-3.2h17.5c1.8,0,3.2,1.4,3.2,3.2v1c0,1.8-1.4,3.2-3.2,3.2h-17.5
		C128.2,34.3,126.7,32.9,126.7,31.1z"/>
	<path class="st1" d="M126.7,38.6v-1c0-1.8,1.4-3.2,3.2-3.2h17.5c1.8,0,3.2,1.4,3.2,3.2v1c0,1.8-1.4,3.2-3.2,3.2h-17.5
		C128.2,41.8,126.7,40.3,126.7,38.6z"/>
	<path class="st1" d="M126.7,46v-1c0-1.8,1.4-3.2,3.2-3.2h17.5c1.8,0,3.2,1.4,3.2,3.2v1c0,1.8-1.4,3.2-3.2,3.2h-17.5
		C128.2,49.2,126.7,47.8,126.7,46z"/>
	<rect x="91.7" y="49.2" class="st3" width="13.5" height="8.8"/>
</g>
</svg>