<!-- Generator: Adobe Illustrator 19.1.0, SVG Export Plug-In  -->
<svg version="1.1"
	 xmlns="http://www.w3.org/2000/svg" xmlns:xlink="http://www.w3.org/1999/xlink" xmlns:a="http://ns.adobe.com/AdobeSVGViewerExtensions/3.0/"
	 x="0px" y="0px" width="218.1px" height="168px" viewBox="0 0 218.1 168"
	 style="overflow:scroll;enable-background:new 0 0 218.1 168;" xml:space="preserve">
<style type="text/css">
	.st0{fill:#FF6633;}
	.st1{fill:#FFFFFF;}
</style>
<defs>
</defs>
<path class="st0" d="M10.4,0h197.3c5.7,0,10.4,3.5,10.4,7.7v116.8v12.1V168l-38-23.7H10.4c-5.7,0-10.4-3.5-10.4-7.7V7.7
	C0,3.5,4.7,0,10.4,0"/>
<g>
	<path class="st1" d="M41.9,106.3v-7.4H29.3v-2.4l12.1-17.3h4V96h3.8v2.9h-3.8v7.4H41.9z M41.9,96v-9.1c0-1.4,0-2.8,0.1-4.3h-0.1
		c-0.8,1.6-1.5,2.8-2.3,4L33,95.9V96H41.9z"/>
	<path class="st1" d="M70,92.4c0,9.2-3.4,14.3-9.4,14.3c-5.3,0-8.9-5-9-14c0-9.1,3.9-14.1,9.4-14.1C66.8,78.7,70,83.8,70,92.4z
		 M55.3,92.8c0,7.1,2.2,11.1,5.5,11.1c3.8,0,5.6-4.4,5.6-11.3c0-6.7-1.7-11.1-5.5-11.1C57.6,81.5,55.3,85.4,55.3,92.8z"/>
	<path class="st1" d="M85.6,86.8c0,5.7-3,8.6-6.5,8.6c-3.4,0-6.3-2.7-6.4-8.2c0-5.4,3-8.5,6.6-8.5C83.1,78.7,85.6,81.6,85.6,86.8z
		 M75.7,87c-0.1,3.5,1.2,6.1,3.5,6.1c2.4,0,3.5-2.6,3.5-6.2c0-3.3-1-6.1-3.5-6.1C76.9,80.9,75.7,83.6,75.7,87z M78.9,106.7l16-28.1
		h2.3l-16,28.1H78.9z M103.3,98c0,5.7-3,8.6-6.5,8.6c-3.4,0-6.3-2.7-6.4-8.1c0-5.5,3-8.5,6.6-8.5C100.9,89.9,103.3,92.8,103.3,98z
		 M93.4,98.3c0,3.5,1.3,6.1,3.6,6.1c2.4,0,3.5-2.6,3.5-6.2c0-3.3-1-6.1-3.5-6.1C94.6,92.1,93.4,94.8,93.4,98.3z"/>
</g>
<g>
	<path class="st1" d="M29.6,62.5h-8.8v-2.3l2.3-1.1V46.6l-2.3-1.1v-2.3h8.8v2.3l-2.3,1.1v12.5l2.3,1.1V62.5z"/>
	<path class="st1" d="M46.1,62.5h-4v-8.6c0-1.1-0.2-1.9-0.6-2.4c-0.4-0.5-1-0.8-1.8-0.8c-1.1,0-1.9,0.4-2.4,1.1
		c-0.5,0.8-0.8,2-0.8,3.7v6.9h-4V47.7h3.1l0.5,1.9h0.2c0.4-0.7,1.1-1.3,1.9-1.6c0.8-0.4,1.7-0.5,2.7-0.5c1.7,0,3,0.5,3.9,1.4
		s1.3,2.3,1.3,4V62.5z"/>
	<path class="st1" d="M56.5,59.5c0.7,0,1.5-0.2,2.5-0.5v3c-1,0.4-2.2,0.7-3.7,0.7c-1.6,0-2.8-0.4-3.5-1.2c-0.7-0.8-1.1-2-1.1-3.7
		v-7.1h-1.9v-1.7l2.2-1.3l1.2-3.1h2.6v3.1h4.1v3h-4.1v7.1c0,0.6,0.2,1,0.5,1.3S56,59.5,56.5,59.5z"/>
	<path class="st1" d="M68.7,62.7c-2.4,0-4.2-0.7-5.6-2s-2-3.2-2-5.6c0-2.5,0.6-4.4,1.9-5.7c1.2-1.3,2.9-2,5.1-2
		c2.1,0,3.7,0.6,4.9,1.8s1.7,2.8,1.7,4.9v2h-9.5c0,1.1,0.4,2,1,2.7s1.5,1,2.7,1c0.9,0,1.7-0.1,2.5-0.3s1.6-0.5,2.5-0.9v3.1
		c-0.7,0.4-1.5,0.6-2.3,0.8C70.8,62.7,69.8,62.7,68.7,62.7z M68.1,50.3c-0.9,0-1.5,0.3-2,0.8c-0.5,0.5-0.8,1.3-0.8,2.3h5.6
		c0-1-0.3-1.8-0.8-2.3C69.6,50.6,69,50.3,68.1,50.3z"/>
	<path class="st1" d="M86.2,47.5c0.5,0,1,0,1.4,0.1l-0.3,3.8c-0.3-0.1-0.7-0.1-1.2-0.1c-1.3,0-2.3,0.3-3,1C82.3,52.9,82,53.8,82,55
		v7.5h-4V47.7h3l0.6,2.5h0.2c0.5-0.8,1.1-1.5,1.9-2S85.3,47.5,86.2,47.5z"/>
	<path class="st1" d="M103.8,62.5h-4v-8.6c0-1.1-0.2-1.9-0.6-2.4c-0.4-0.5-1-0.8-1.8-0.8c-1.1,0-1.9,0.4-2.4,1.1
		c-0.5,0.8-0.8,2-0.8,3.7v6.9h-4V47.7h3.1l0.5,1.9H94c0.4-0.7,1.1-1.3,1.9-1.6s1.7-0.5,2.7-0.5c1.7,0,3,0.5,3.9,1.4
		c0.9,0.9,1.3,2.3,1.3,4V62.5z"/>
	<path class="st1" d="M117.3,62.5l-0.8-2h-0.1c-0.7,0.9-1.4,1.4-2.1,1.8c-0.7,0.3-1.7,0.5-2.8,0.5c-1.4,0-2.5-0.4-3.3-1.2
		c-0.8-0.8-1.2-2-1.2-3.5c0-1.6,0.5-2.7,1.6-3.5c1.1-0.7,2.7-1.2,5-1.2l2.6-0.1v-0.6c0-1.5-0.8-2.2-2.3-2.2c-1.2,0-2.6,0.4-4.2,1.1
		l-1.3-2.7c1.7-0.9,3.6-1.3,5.6-1.3c2,0,3.5,0.4,4.5,1.3s1.6,2.2,1.6,3.9v9.8H117.3z M116.1,55.7l-1.6,0.1c-1.2,0-2,0.2-2.6,0.6
		s-0.9,1-0.9,1.8c0,1.1,0.7,1.7,2,1.7c0.9,0,1.7-0.3,2.2-0.8c0.6-0.5,0.8-1.2,0.8-2.1V55.7z"/>
	<path class="st1" d="M130.5,59.5c0.7,0,1.5-0.2,2.5-0.5v3c-1,0.4-2.2,0.7-3.7,0.7c-1.6,0-2.8-0.4-3.5-1.2c-0.7-0.8-1.1-2-1.1-3.7
		v-7.1h-1.9v-1.7l2.2-1.3l1.2-3.1h2.6v3.1h4.1v3h-4.1v7.1c0,0.6,0.2,1,0.5,1.3S129.9,59.5,130.5,59.5z"/>
	<path class="st1" d="M135.8,43.9c0-1.3,0.7-2,2.2-2c1.5,0,2.2,0.7,2.2,2c0,0.6-0.2,1.1-0.5,1.5c-0.4,0.3-0.9,0.5-1.6,0.5
		C136.5,45.9,135.8,45.3,135.8,43.9z M140,62.5h-4V47.7h4V62.5z"/>
	<path class="st1" d="M157.6,55.1c0,2.4-0.6,4.3-1.9,5.6s-3,2-5.3,2c-1.4,0-2.7-0.3-3.7-0.9c-1.1-0.6-1.9-1.5-2.5-2.7
		s-0.9-2.5-0.9-4.1c0-2.4,0.6-4.3,1.9-5.6s3-2,5.3-2c1.4,0,2.7,0.3,3.7,0.9s1.9,1.5,2.5,2.6S157.6,53.5,157.6,55.1z M147.4,55.1
		c0,1.5,0.2,2.6,0.7,3.3c0.5,0.7,1.3,1.1,2.3,1.1c1.1,0,1.8-0.4,2.3-1.1s0.7-1.8,0.7-3.3c0-1.5-0.2-2.6-0.7-3.3s-1.3-1.1-2.3-1.1
		c-1.1,0-1.8,0.4-2.3,1.1C147.7,52.5,147.4,53.6,147.4,55.1z"/>
	<path class="st1" d="M174.5,62.5h-4v-8.6c0-1.1-0.2-1.9-0.6-2.4c-0.4-0.5-1-0.8-1.8-0.8c-1.1,0-1.9,0.4-2.4,1.1
		c-0.5,0.8-0.8,2-0.8,3.7v6.9h-4V47.7h3.1l0.5,1.9h0.2c0.4-0.7,1.1-1.3,1.9-1.6c0.8-0.4,1.7-0.5,2.7-0.5c1.7,0,3,0.5,3.9,1.4
		s1.3,2.3,1.3,4V62.5z"/>
	<path class="st1" d="M188,62.5l-0.8-2h-0.1c-0.7,0.9-1.4,1.4-2.1,1.8c-0.7,0.3-1.6,0.5-2.8,0.5c-1.4,0-2.5-0.4-3.3-1.2
		s-1.2-2-1.2-3.5c0-1.6,0.5-2.7,1.6-3.5c1.1-0.7,2.7-1.2,5-1.2l2.6-0.1v-0.6c0-1.5-0.8-2.2-2.3-2.2c-1.2,0-2.6,0.4-4.2,1.1l-1.3-2.7
		c1.7-0.9,3.6-1.3,5.6-1.3c2,0,3.5,0.4,4.5,1.3s1.6,2.2,1.6,3.9v9.8H188z M186.9,55.7l-1.6,0.1c-1.2,0-2,0.2-2.6,0.6
		c-0.6,0.4-0.9,1-0.9,1.8c0,1.1,0.7,1.7,2,1.7c0.9,0,1.7-0.3,2.2-0.8s0.8-1.2,0.8-2.1V55.7z"/>
	<path class="st1" d="M199,62.5h-4V42h4V62.5z"/>
</g>
</svg>