<!-- Generator: Adobe Illustrator 19.1.0, SVG Export Plug-In  -->
<svg version="1.1"
	 xmlns="http://www.w3.org/2000/svg" xmlns:xlink="http://www.w3.org/1999/xlink" xmlns:a="http://ns.adobe.com/AdobeSVGViewerExtensions/3.0/"
	 x="0px" y="0px" width="780.1px" height="540.4px" viewBox="0 0 780.1 540.4"
	 style="overflow:scroll;enable-background:new 0 0 780.1 540.4;" xml:space="preserve">
<style type="text/css">
	.st0{fill:#E3E3E3;stroke:#E3E3E3;stroke-width:2.0919;stroke-miterlimit:10;}
	.st1{fill:#9D9FA0;}
	.st2{fill:#ED6A4A;}
	.st3{fill:#086A87;stroke:#086A87;stroke-width:1.81;stroke-linecap:round;stroke-linejoin:round;stroke-miterlimit:10;}
	.st4{fill:#33CCCC;}
	.st5{fill:none;stroke:#ED6A4A;stroke-width:7.4568;stroke-miterlimit:10;}
	.st6{fill:#FF6633;}
	.st7{fill:none;stroke:#ED6A4A;stroke-width:7.3184;stroke-miterlimit:10;}
	.st8{fill:#086A87;stroke:#086A87;stroke-width:2.2793;stroke-linecap:round;stroke-linejoin:round;stroke-miterlimit:10;}
	.st9{fill:#E3E3E3;stroke:#FFFFFF;stroke-width:4;stroke-miterlimit:10;}
	.st10{fill:#086A87;stroke:#086A87;stroke-width:2.3031;stroke-linecap:round;stroke-linejoin:round;stroke-miterlimit:10;}
	.st11{fill:#FFFFFF;stroke:#ED6A4A;stroke-width:2.3031;stroke-miterlimit:10;}
	.st12{fill:#FFFFFF;}
</style>
<defs>
</defs>
<rect x="3.7" y="143.9" class="st0" width="277.6" height="392.7"/>
<rect x="281.3" y="444.1" class="st1" width="388.1" height="66.3"/>
<rect x="281.3" y="355.5" class="st2" width="364.4" height="66.3"/>
<rect x="281.3" y="268.7" class="st3" width="444.1" height="66.3"/>
<rect x="281.3" y="177.9" class="st4" width="416.4" height="66.3"/>
<rect x="3.7" y="153.1" class="st5" width="771.4" height="383.6"/>
<g>
	<line class="st4" x1="47.3" y1="216.4" x2="56.3" y2="225.3"/>
	<line class="st4" x1="56.3" y1="216.4" x2="47.3" y2="225.3"/>
</g>
<polygon class="st6" points="694.6,528.8 694.6,463 763.1,463 "/>
<line class="st7" x1="281.3" y1="153.1" x2="281.3" y2="536.7"/>
<rect x="1.3" y="29.1" class="st8" width="777.6" height="130"/>
<path class="st9" d="M144.5,52.9h-3.1c-5.7,0-10.3-4.6-10.3-10.3V12.3c0-5.7,4.6-10.3,10.3-10.3h3.1c5.7,0,10.3,4.6,10.3,10.3v30.4
	C154.8,48.3,150.1,52.9,144.5,52.9z"/>
<path class="st9" d="M659.1,52.9H656c-5.7,0-10.3-4.6-10.3-10.3V12.3C645.7,6.6,650.3,2,656,2h3.1c5.7,0,10.3,4.6,10.3,10.3v30.4
	C669.4,48.3,664.8,52.9,659.1,52.9z"/>
<g>
	<circle class="st10" cx="141.7" cy="350.5" r="112.5"/>
	<circle class="st11" cx="141.7" cy="350.5" r="91.8"/>
	<polyline class="st11" points="141.7,290.7 141.7,350.5 185.1,350.5 	"/>
	<rect x="121.3" y="222.2" class="st10" width="42.2" height="21.7"/>
	<rect x="110.7" y="198" class="st10" width="62" height="24.2"/>
	<rect x="141.7" y="198" class="st4" width="13.1" height="24.2"/>
	<rect x="153" y="198" class="st12" width="6.5" height="24.2"/>
</g>
<g>
	<path class="st12" d="M46.8,110.8h-5.3l-5.8-9.3l-2,1.4v7.9H29V88.7h4.7v10.1l1.9-2.6l6-7.5h5.2L39,98.5L46.8,110.8z"/>
	<path class="st12" d="M56.9,111.1c-2.7,0-4.9-0.8-6.4-2.3c-1.5-1.5-2.3-3.6-2.3-6.4c0-2.8,0.7-5,2.1-6.6c1.4-1.6,3.4-2.3,5.9-2.3
		c2.4,0,4.3,0.7,5.6,2c1.3,1.4,2,3.3,2,5.7v2.2H52.9c0.1,1.3,0.4,2.3,1.2,3.1c0.7,0.7,1.7,1.1,3.1,1.1c1,0,2-0.1,2.9-0.3
		c0.9-0.2,1.9-0.6,2.9-1v3.6c-0.8,0.4-1.7,0.7-2.6,0.9C59.3,111,58.2,111.1,56.9,111.1z M56.2,96.8c-1,0-1.7,0.3-2.3,0.9
		c-0.6,0.6-0.9,1.5-1,2.6h6.5c0-1.1-0.3-2-0.9-2.6C58,97.2,57.2,96.8,56.2,96.8z"/>
	<path class="st12" d="M72,101.6l2-2.6l4.7-5.2H84l-6.7,7.4l7.1,9.6h-5.3l-4.9-6.9l-2,1.6v5.3h-4.6V87.2h4.6v10.5L72,101.6L72,101.6
		z"/>
	<path class="st12" d="M94.2,111.1c-2.7,0-4.9-0.8-6.4-2.3c-1.5-1.5-2.3-3.6-2.3-6.4c0-2.8,0.7-5,2.1-6.6c1.4-1.6,3.4-2.3,5.9-2.3
		c2.4,0,4.3,0.7,5.6,2c1.3,1.4,2,3.3,2,5.7v2.2H90.2c0.1,1.3,0.4,2.3,1.2,3.1c0.7,0.7,1.7,1.1,3.1,1.1c1,0,2-0.1,2.9-0.3
		c0.9-0.2,1.9-0.6,2.9-1v3.6c-0.8,0.4-1.7,0.7-2.6,0.9C96.7,111,95.5,111.1,94.2,111.1z M93.6,96.8c-1,0-1.7,0.3-2.3,0.9
		c-0.6,0.6-0.9,1.5-1,2.6h6.5c0-1.1-0.3-2-0.9-2.6C95.3,97.2,94.5,96.8,93.6,96.8z"/>
	<path class="st12" d="M114.4,93.6c0.6,0,1.1,0,1.6,0.1l-0.3,4.3c-0.4-0.1-0.8-0.2-1.4-0.2c-1.5,0-2.6,0.4-3.5,1.1
		c-0.8,0.8-1.2,1.8-1.2,3.2v8.6h-4.6v-17h3.5l0.7,2.9h0.2c0.5-1,1.2-1.7,2.1-2.3S113.3,93.6,114.4,93.6z"/>
	<path class="st12" d="M129.5,110.8l-0.9-2.3h-0.1c-0.8,1-1.6,1.7-2.4,2c-0.8,0.4-1.9,0.6-3.2,0.6c-1.6,0-2.9-0.5-3.8-1.4
		c-0.9-0.9-1.4-2.3-1.4-4c0-1.8,0.6-3.1,1.9-4s3.2-1.3,5.7-1.4l2.9-0.1v-0.7c0-1.7-0.9-2.6-2.6-2.6c-1.4,0-2.9,0.4-4.8,1.2l-1.5-3.1
		c2-1,4.1-1.5,6.5-1.5c2.3,0,4,0.5,5.2,1.5c1.2,1,1.8,2.5,1.8,4.5v11.3H129.5z M128.1,103l-1.8,0.1c-1.3,0-2.3,0.3-3,0.7
		c-0.7,0.4-1,1.1-1,2c0,1.3,0.7,2,2.2,2c1.1,0,1.9-0.3,2.6-0.9c0.6-0.6,1-1.4,1-2.5V103z"/>
	<path class="st12" d="M146.8,111.1c-2,0-3.6-0.7-4.7-2.2h-0.2c0.2,1.4,0.2,2.2,0.2,2.5v6.9h-4.6V93.9h3.8l0.7,2.2h0.2
		c1.1-1.7,2.7-2.5,4.8-2.5c2,0,3.6,0.8,4.7,2.3c1.1,1.5,1.7,3.7,1.7,6.4c0,1.8-0.3,3.4-0.8,4.7s-1.3,2.4-2.3,3
		C149.2,110.8,148.1,111.1,146.8,111.1z M145.4,97.3c-1.1,0-2,0.4-2.5,1.1c-0.5,0.7-0.8,1.9-0.8,3.5v0.5c0,1.8,0.3,3.1,0.8,3.9
		c0.5,0.8,1.4,1.2,2.6,1.2c2.1,0,3.1-1.7,3.1-5.1c0-1.7-0.3-2.9-0.8-3.8C147.3,97.7,146.5,97.3,145.4,97.3z"/>
	<path class="st12" d="M167.9,110.8l-0.9-2.3h-0.1c-0.8,1-1.6,1.7-2.4,2c-0.8,0.4-1.9,0.6-3.2,0.6c-1.6,0-2.9-0.5-3.8-1.4
		c-0.9-0.9-1.4-2.3-1.4-4c0-1.8,0.6-3.1,1.9-4s3.2-1.3,5.7-1.4l2.9-0.1v-0.7c0-1.7-0.9-2.6-2.6-2.6c-1.4,0-2.9,0.4-4.8,1.2l-1.5-3.1
		c2-1,4.1-1.5,6.5-1.5c2.3,0,4,0.5,5.2,1.5c1.2,1,1.8,2.5,1.8,4.5v11.3H167.9z M166.5,103l-1.8,0.1c-1.3,0-2.3,0.3-3,0.7
		c-0.7,0.4-1,1.1-1,2c0,1.3,0.7,2,2.2,2c1.1,0,1.9-0.3,2.6-0.9c0.6-0.6,1-1.4,1-2.5V103z"/>
	<path class="st12" d="M191.5,110.8h-4.6v-9.9c0-1.2-0.2-2.1-0.7-2.8c-0.4-0.6-1.1-0.9-2.1-0.9c-1.3,0-2.2,0.4-2.8,1.3
		c-0.6,0.9-0.9,2.3-0.9,4.3v8h-4.6v-17h3.5L180,96h0.3c0.5-0.8,1.2-1.4,2.1-1.9c0.9-0.4,1.9-0.6,3.1-0.6c2,0,3.5,0.5,4.5,1.6
		c1,1.1,1.5,2.6,1.5,4.6V110.8z"/>
	<path class="st12" d="M213.8,93.6c2,0,3.6,0.8,4.7,2.3c1.1,1.6,1.7,3.7,1.7,6.4c0,2.8-0.6,5-1.8,6.5s-2.8,2.3-4.8,2.3
		c-2,0-3.6-0.7-4.7-2.2h-0.3l-0.8,1.9h-3.5V87.2h4.6v5.5c0,0.7-0.1,1.8-0.2,3.4h0.2C210.1,94.4,211.7,93.6,213.8,93.6z M212.3,97.3
		c-1.1,0-2,0.4-2.5,1.1c-0.5,0.7-0.8,1.9-0.8,3.5v0.5c0,1.8,0.3,3.1,0.8,3.9c0.5,0.8,1.4,1.2,2.6,1.2c1,0,1.7-0.4,2.3-1.3
		c0.6-0.9,0.8-2.1,0.8-3.8s-0.3-2.9-0.8-3.8C214.1,97.7,213.3,97.3,212.3,97.3z"/>
	<path class="st12" d="M231.7,111.1c-2.7,0-4.9-0.8-6.4-2.3c-1.5-1.5-2.3-3.6-2.3-6.4c0-2.8,0.7-5,2.1-6.6c1.4-1.6,3.4-2.3,5.9-2.3
		c2.4,0,4.3,0.7,5.6,2c1.3,1.4,2,3.3,2,5.7v2.2h-10.9c0.1,1.3,0.4,2.3,1.2,3.1c0.7,0.7,1.7,1.1,3.1,1.1c1,0,2-0.1,2.9-0.3
		c0.9-0.2,1.9-0.6,2.9-1v3.6c-0.8,0.4-1.7,0.7-2.6,0.9C234.1,111,233,111.1,231.7,111.1z M231,96.8c-1,0-1.7,0.3-2.3,0.9
		c-0.6,0.6-0.9,1.5-1,2.6h6.5c0-1.1-0.3-2-0.9-2.6C232.8,97.2,232,96.8,231,96.8z"/>
	<path class="st12" d="M247,110.8h-4.6V87.2h4.6V110.8z"/>
	<path class="st12" d="M262.6,110.8l-0.9-2.3h-0.1c-0.8,1-1.6,1.7-2.4,2c-0.8,0.4-1.9,0.6-3.2,0.6c-1.6,0-2.9-0.5-3.8-1.4
		c-0.9-0.9-1.4-2.3-1.4-4c0-1.8,0.6-3.1,1.9-4s3.2-1.3,5.7-1.4l2.9-0.1v-0.7c0-1.7-0.9-2.6-2.6-2.6c-1.4,0-2.9,0.4-4.8,1.2l-1.5-3.1
		c2-1,4.1-1.5,6.5-1.5c2.3,0,4,0.5,5.2,1.5c1.2,1,1.8,2.5,1.8,4.5v11.3H262.6z M261.3,103l-1.8,0.1c-1.3,0-2.3,0.3-3,0.7
		c-0.7,0.4-1,1.1-1,2c0,1.3,0.7,2,2.2,2c1.1,0,1.9-0.3,2.6-0.9c0.6-0.6,1-1.4,1-2.5V103z"/>
	<path class="st12" d="M286.3,110.8h-4.6v-9.9c0-1.2-0.2-2.1-0.7-2.8c-0.4-0.6-1.1-0.9-2.1-0.9c-1.3,0-2.2,0.4-2.8,1.3
		c-0.6,0.9-0.9,2.3-0.9,4.3v8h-4.6v-17h3.5l0.6,2.2h0.3c0.5-0.8,1.2-1.4,2.1-1.9c0.9-0.4,1.9-0.6,3.1-0.6c2,0,3.5,0.5,4.5,1.6
		c1,1.1,1.5,2.6,1.5,4.6V110.8z"/>
	<path class="st12" d="M289.7,118.3c-1.2,0-2.2-0.1-3-0.4v-3.6c0.7,0.2,1.4,0.3,2.2,0.3c0.8,0,1.3-0.2,1.7-0.7
		c0.4-0.4,0.5-1.1,0.5-1.9V93.9h4.6v18.8c0,1.8-0.5,3.2-1.6,4.2C293.1,117.8,291.6,118.3,289.7,118.3z M290.8,89.5
		c0-1.5,0.8-2.3,2.5-2.3c1.7,0,2.5,0.8,2.5,2.3c0,0.7-0.2,1.3-0.6,1.7c-0.4,0.4-1,0.6-1.9,0.6C291.7,91.8,290.8,91,290.8,89.5z"/>
	<path class="st12" d="M311.3,110.8l-0.9-2.3h-0.1c-0.8,1-1.6,1.7-2.4,2c-0.8,0.4-1.9,0.6-3.2,0.6c-1.6,0-2.9-0.5-3.8-1.4
		c-0.9-0.9-1.4-2.3-1.4-4c0-1.8,0.6-3.1,1.9-4s3.2-1.3,5.7-1.4l2.9-0.1v-0.7c0-1.7-0.9-2.6-2.6-2.6c-1.4,0-2.9,0.4-4.8,1.2l-1.5-3.1
		c2-1,4.1-1.5,6.5-1.5c2.3,0,4,0.5,5.2,1.5c1.2,1,1.8,2.5,1.8,4.5v11.3H311.3z M309.9,103l-1.8,0.1c-1.3,0-2.3,0.3-3,0.7
		c-0.7,0.4-1,1.1-1,2c0,1.3,0.7,2,2.2,2c1.1,0,1.9-0.3,2.6-0.9c0.6-0.6,1-1.4,1-2.5V103z"/>
	<path class="st12" d="M342.8,102.3c0,2.8-0.7,4.9-2.2,6.5c-1.5,1.6-3.5,2.3-6.1,2.3c-1.6,0-3.1-0.4-4.3-1.1
		c-1.2-0.7-2.2-1.7-2.9-3.1c-0.7-1.3-1-2.9-1-4.7c0-2.8,0.7-4.9,2.2-6.5s3.5-2.3,6.1-2.3c1.6,0,3.1,0.4,4.3,1.1
		c1.2,0.7,2.2,1.7,2.9,3S342.8,100.5,342.8,102.3z M331,102.3c0,1.7,0.3,2.9,0.8,3.8c0.6,0.9,1.4,1.3,2.7,1.3c1.2,0,2.1-0.4,2.7-1.3
		s0.8-2.1,0.8-3.8c0-1.7-0.3-2.9-0.8-3.8c-0.5-0.8-1.4-1.3-2.7-1.3c-1.2,0-2.1,0.4-2.7,1.3C331.3,99.4,331,100.6,331,102.3z"/>
	<path class="st12" d="M362.2,110.8h-4.6v-9.9c0-1.2-0.2-2.1-0.7-2.8c-0.4-0.6-1.1-0.9-2.1-0.9c-1.3,0-2.2,0.4-2.8,1.3
		c-0.6,0.9-0.9,2.3-0.9,4.3v8h-4.6v-17h3.5l0.6,2.2h0.3c0.5-0.8,1.2-1.4,2.1-1.9c0.9-0.4,1.9-0.6,3.1-0.6c2,0,3.5,0.5,4.5,1.6
		c1,1.1,1.5,2.6,1.5,4.6V110.8z"/>
	<path class="st12" d="M371.6,110.8H367V87.2h4.6V110.8z"/>
	<path class="st12" d="M376.3,89.5c0-1.5,0.8-2.3,2.5-2.3c1.7,0,2.5,0.8,2.5,2.3c0,0.7-0.2,1.3-0.6,1.7c-0.4,0.4-1,0.6-1.9,0.6
		C377.1,91.8,376.3,91,376.3,89.5z M381.1,110.8h-4.6v-17h4.6V110.8z"/>
	<path class="st12" d="M401.6,110.8H397v-9.9c0-1.2-0.2-2.1-0.7-2.8s-1.1-0.9-2.1-0.9c-1.3,0-2.2,0.4-2.8,1.3
		c-0.6,0.9-0.9,2.3-0.9,4.3v8H386v-17h3.5l0.6,2.2h0.3c0.5-0.8,1.2-1.4,2.1-1.9c0.9-0.4,1.9-0.6,3.1-0.6c2,0,3.5,0.5,4.5,1.6
		c1,1.1,1.5,2.6,1.5,4.6V110.8z"/>
	<path class="st12" d="M414,111.1c-2.7,0-4.9-0.8-6.4-2.3s-2.3-3.6-2.3-6.4c0-2.8,0.7-5,2.1-6.6c1.4-1.6,3.4-2.3,5.9-2.3
		c2.4,0,4.3,0.7,5.6,2c1.3,1.4,2,3.3,2,5.7v2.2H410c0.1,1.3,0.4,2.3,1.2,3.1c0.7,0.7,1.7,1.1,3.1,1.1c1,0,2-0.1,2.9-0.3
		s1.9-0.6,2.9-1v3.6c-0.8,0.4-1.7,0.7-2.6,0.9C416.5,111,415.4,111.1,414,111.1z M413.4,96.8c-1,0-1.7,0.3-2.3,0.9
		c-0.6,0.6-0.9,1.5-1,2.6h6.5c0-1.1-0.3-2-0.9-2.6C415.2,97.2,414.4,96.8,413.4,96.8z"/>
	<path class="st12" d="M438.2,111.1c-2,0-3.6-0.8-4.7-2.3c-1.1-1.5-1.7-3.7-1.7-6.4c0-2.8,0.6-4.9,1.7-6.5c1.2-1.6,2.8-2.3,4.8-2.3
		c2.1,0,3.8,0.8,4.9,2.5h0.2c-0.2-1.3-0.3-2.4-0.3-3.4v-5.4h4.6v23.6h-3.5l-0.9-2.2H443C441.9,110.3,440.3,111.1,438.2,111.1z
		 M439.8,107.4c1.2,0,2.1-0.3,2.6-1c0.6-0.7,0.9-1.9,0.9-3.5v-0.5c0-1.8-0.3-3.1-0.8-3.9c-0.6-0.8-1.5-1.2-2.7-1.2
		c-1,0-1.8,0.4-2.4,1.3c-0.6,0.9-0.9,2.1-0.9,3.8c0,1.7,0.3,2.9,0.9,3.8C437.9,107,438.7,107.4,439.8,107.4z"/>
	<path class="st12" d="M460.1,111.1c-2.7,0-4.9-0.8-6.4-2.3s-2.3-3.6-2.3-6.4c0-2.8,0.7-5,2.1-6.6c1.4-1.6,3.4-2.3,5.9-2.3
		c2.4,0,4.3,0.7,5.6,2c1.3,1.4,2,3.3,2,5.7v2.2h-10.9c0.1,1.3,0.4,2.3,1.2,3.1c0.7,0.7,1.7,1.1,3.1,1.1c1,0,2-0.1,2.9-0.3
		s1.9-0.6,2.9-1v3.6c-0.8,0.4-1.7,0.7-2.6,0.9C462.6,111,461.5,111.1,460.1,111.1z M459.5,96.8c-1,0-1.7,0.3-2.3,0.9
		c-0.6,0.6-0.9,1.5-1,2.6h6.5c0-1.1-0.3-2-0.9-2.6C461.2,97.2,460.5,96.8,459.5,96.8z"/>
	<path class="st12" d="M486.5,110.8h-4.6v-9.9c0-1.2-0.2-2.1-0.7-2.8s-1.1-0.9-2.1-0.9c-1.3,0-2.2,0.4-2.8,1.3
		c-0.6,0.9-0.9,2.3-0.9,4.3v8h-4.6v-17h3.5L475,96h0.3c0.5-0.8,1.2-1.4,2.1-1.9c0.9-0.4,1.9-0.6,3.1-0.6c2,0,3.5,0.5,4.5,1.6
		c1,1.1,1.5,2.6,1.5,4.6V110.8z"/>
	<path class="st12" d="M506,110.9c0,2.4-0.7,4.3-2.1,5.5c-1.4,1.3-3.5,1.9-6.3,1.9c-2.5,0-4.6-0.3-6.3-1v-3.7
		c2.1,0.9,4.3,1.3,6.6,1.3c2.4,0,3.6-1.3,3.6-3.9v-0.3l0.1-2.1h-0.1c-1.1,1.7-2.7,2.5-4.8,2.5c-2,0-3.6-0.8-4.7-2.4
		c-1.1-1.6-1.7-3.7-1.7-6.4c0-2.8,0.6-4.9,1.7-6.5c1.2-1.6,2.8-2.3,4.8-2.3c2.1,0,3.7,0.8,4.9,2.5h0.1l0.4-2.2h3.9V110.9z
		 M498.2,107.5c1.2,0,2.1-0.4,2.7-1.1c0.5-0.7,0.8-1.9,0.8-3.5v-0.6c0-1.8-0.3-3.1-0.8-3.9c-0.6-0.8-1.5-1.2-2.7-1.2
		c-2.2,0-3.3,1.7-3.3,5.1c0,1.7,0.3,3,0.8,3.8C496.3,107.1,497.1,107.5,498.2,107.5z"/>
	<path class="st12" d="M521.7,110.8l-0.9-2.3h-0.1c-0.8,1-1.6,1.7-2.4,2c-0.8,0.4-1.9,0.6-3.2,0.6c-1.6,0-2.9-0.5-3.8-1.4
		c-0.9-0.9-1.4-2.3-1.4-4c0-1.8,0.6-3.1,1.9-4c1.3-0.9,3.2-1.3,5.7-1.4l2.9-0.1v-0.7c0-1.7-0.9-2.6-2.6-2.6c-1.4,0-2.9,0.4-4.8,1.2
		l-1.5-3.1c2-1,4.1-1.5,6.5-1.5c2.3,0,4,0.5,5.2,1.5c1.2,1,1.8,2.5,1.8,4.5v11.3H521.7z M520.3,103l-1.8,0.1c-1.3,0-2.3,0.3-3,0.7
		c-0.7,0.4-1,1.1-1,2c0,1.3,0.7,2,2.2,2c1.1,0,1.9-0.3,2.6-0.9c0.6-0.6,1-1.4,1-2.5V103z"/>
	<path class="st12" d="M545.3,110.8h-4.6v-9.9c0-1.2-0.2-2.1-0.7-2.8s-1.1-0.9-2.1-0.9c-1.3,0-2.2,0.4-2.8,1.3
		c-0.6,0.9-0.9,2.3-0.9,4.3v8h-4.6v-17h3.5l0.6,2.2h0.3c0.5-0.8,1.2-1.4,2.1-1.9c0.9-0.4,1.9-0.6,3.1-0.6c2,0,3.5,0.5,4.5,1.6
		c1,1.1,1.5,2.6,1.5,4.6V110.8z"/>
	<path class="st12" d="M570,105.8c0,1.7-0.6,3.1-1.8,4c-1.2,0.9-3,1.4-5.4,1.4c-1.2,0-2.3-0.1-3.2-0.3c-0.9-0.2-1.7-0.4-2.4-0.7
		v-3.8c0.9,0.4,1.8,0.7,2.9,1s2,0.4,2.8,0.4c1.7,0,2.5-0.5,2.5-1.5c0-0.4-0.1-0.7-0.3-0.9c-0.2-0.2-0.6-0.5-1.2-0.8
		c-0.5-0.3-1.3-0.6-2.2-1c-1.3-0.5-2.3-1.1-2.9-1.5c-0.6-0.5-1.1-1-1.3-1.6s-0.4-1.3-0.4-2.2c0-1.5,0.6-2.7,1.8-3.5s2.8-1.2,5-1.2
		c2,0,4,0.4,6,1.3l-1.4,3.3c-0.8-0.4-1.6-0.7-2.4-0.9c-0.7-0.2-1.5-0.3-2.3-0.3c-1.4,0-2,0.4-2,1.1c0,0.4,0.2,0.8,0.7,1.1
		c0.4,0.3,1.4,0.8,2.9,1.3c1.3,0.5,2.3,1,2.9,1.5c0.6,0.5,1.1,1,1.4,1.6C569.8,104.2,570,105,570,105.8z"/>
	<path class="st12" d="M588.8,110.8h-4.6v-9.9c0-1.2-0.2-2.1-0.6-2.8c-0.4-0.6-1.1-0.9-1.9-0.9c-1.2,0-2,0.4-2.6,1.3
		c-0.5,0.9-0.8,2.3-0.8,4.3v8h-4.6v-17h3.5l0.6,2.2h0.3c0.5-0.8,1.1-1.4,2-1.8c0.9-0.4,1.8-0.7,3-0.7c2.5,0,4.3,0.8,5.2,2.5h0.4
		c0.5-0.8,1.1-1.4,2-1.8c0.9-0.4,1.9-0.7,3-0.7c1.9,0,3.4,0.5,4.4,1.5c1,1,1.5,2.6,1.5,4.7v11.1h-4.6v-9.9c0-1.2-0.2-2.1-0.6-2.8
		c-0.4-0.6-1.1-0.9-1.9-0.9c-1.1,0-2,0.4-2.5,1.2c-0.6,0.8-0.8,2.1-0.8,3.9V110.8z"/>
	<path class="st12" d="M614.8,110.8l-0.9-2.3h-0.1c-0.8,1-1.6,1.7-2.4,2c-0.8,0.4-1.9,0.6-3.2,0.6c-1.6,0-2.9-0.5-3.8-1.4
		c-0.9-0.9-1.4-2.3-1.4-4c0-1.8,0.6-3.1,1.9-4s3.2-1.3,5.7-1.4l2.9-0.1v-0.7c0-1.7-0.9-2.6-2.6-2.6c-1.4,0-2.9,0.4-4.8,1.2l-1.5-3.1
		c2-1,4.1-1.5,6.5-1.5c2.3,0,4,0.5,5.2,1.5c1.2,1,1.8,2.5,1.8,4.5v11.3H614.8z M613.5,103l-1.8,0.1c-1.3,0-2.3,0.3-3,0.7
		c-0.7,0.4-1,1.1-1,2c0,1.3,0.7,2,2.2,2c1.1,0,1.9-0.3,2.6-0.9c0.6-0.6,1-1.4,1-2.5V103z"/>
	<path class="st12" d="M632.3,93.6c0.6,0,1.1,0,1.6,0.1l-0.3,4.3c-0.4-0.1-0.8-0.2-1.4-0.2c-1.5,0-2.6,0.4-3.5,1.1s-1.2,1.8-1.2,3.2
		v8.6h-4.6v-17h3.5l0.7,2.9h0.2c0.5-1,1.2-1.7,2.1-2.3S631.2,93.6,632.3,93.6z"/>
	<path class="st12" d="M644.1,107.4c0.8,0,1.8-0.2,2.9-0.5v3.4c-1.2,0.5-2.6,0.8-4.2,0.8c-1.9,0-3.2-0.5-4-1.4
		c-0.8-0.9-1.3-2.3-1.3-4.2v-8.2h-2.2v-2l2.5-1.5l1.3-3.6h3v3.6h4.7v3.5h-4.7v8.2c0,0.7,0.2,1.1,0.6,1.5
		C643,107.3,643.5,107.4,644.1,107.4z"/>
	<path class="st12" d="M659.7,111.1c-2,0-3.6-0.7-4.7-2.2h-0.2c0.2,1.4,0.2,2.2,0.2,2.5v6.9h-4.6V93.9h3.8l0.7,2.2h0.2
		c1.1-1.7,2.7-2.5,4.8-2.5c2,0,3.6,0.8,4.7,2.3c1.1,1.5,1.7,3.7,1.7,6.4c0,1.8-0.3,3.4-0.8,4.7c-0.5,1.3-1.3,2.4-2.3,3
		C662.2,110.8,661.1,111.1,659.7,111.1z M658.4,97.3c-1.1,0-2,0.4-2.5,1.1c-0.5,0.7-0.8,1.9-0.8,3.5v0.5c0,1.8,0.3,3.1,0.8,3.9
		c0.5,0.8,1.4,1.2,2.6,1.2c2.1,0,3.1-1.7,3.1-5.1c0-1.7-0.3-2.9-0.8-3.8C660.3,97.7,659.5,97.3,658.4,97.3z"/>
	<path class="st12" d="M685.7,110.8h-4.6v-9.9c0-2.4-0.9-3.7-2.7-3.7c-1.3,0-2.2,0.4-2.8,1.3s-0.9,2.3-0.9,4.3v8h-4.6V87.2h4.6V92
		c0,0.4,0,1.3-0.1,2.6l-0.1,1.4h0.2c1-1.7,2.7-2.5,4.9-2.5c2,0,3.5,0.5,4.5,1.6s1.5,2.6,1.5,4.6V110.8z"/>
	<path class="st12" d="M705.9,102.3c0,2.8-0.7,4.9-2.2,6.5c-1.5,1.6-3.5,2.3-6.1,2.3c-1.6,0-3.1-0.4-4.3-1.1
		c-1.2-0.7-2.2-1.7-2.9-3.1c-0.7-1.3-1-2.9-1-4.7c0-2.8,0.7-4.9,2.2-6.5s3.5-2.3,6.1-2.3c1.6,0,3.1,0.4,4.3,1.1
		c1.2,0.7,2.2,1.7,2.9,3C705.6,99,705.9,100.5,705.9,102.3z M694.2,102.3c0,1.7,0.3,2.9,0.8,3.8c0.6,0.9,1.4,1.3,2.7,1.3
		c1.2,0,2.1-0.4,2.7-1.3c0.5-0.9,0.8-2.1,0.8-3.8c0-1.7-0.3-2.9-0.8-3.8s-1.4-1.3-2.7-1.3c-1.2,0-2.1,0.4-2.7,1.3
		C694.5,99.4,694.2,100.6,694.2,102.3z"/>
	<path class="st12" d="M725.4,110.8h-4.6v-9.9c0-1.2-0.2-2.1-0.7-2.8s-1.1-0.9-2.1-0.9c-1.3,0-2.2,0.4-2.8,1.3
		c-0.6,0.9-0.9,2.3-0.9,4.3v8h-4.6v-17h3.5l0.6,2.2h0.3c0.5-0.8,1.2-1.4,2.1-1.9c0.9-0.4,1.9-0.6,3.1-0.6c2,0,3.5,0.5,4.5,1.6
		c1,1.1,1.5,2.6,1.5,4.6V110.8z"/>
	<path class="st12" d="M737.8,111.1c-2.7,0-4.9-0.8-6.4-2.3s-2.3-3.6-2.3-6.4c0-2.8,0.7-5,2.1-6.6c1.4-1.6,3.4-2.3,5.9-2.3
		c2.4,0,4.3,0.7,5.6,2c1.3,1.4,2,3.3,2,5.7v2.2h-10.9c0.1,1.3,0.4,2.3,1.2,3.1c0.7,0.7,1.7,1.1,3.1,1.1c1,0,2-0.1,2.9-0.3
		s1.9-0.6,2.9-1v3.6c-0.8,0.4-1.7,0.7-2.6,0.9C740.3,111,739.2,111.1,737.8,111.1z M737.2,96.8c-1,0-1.7,0.3-2.3,0.9
		c-0.6,0.6-0.9,1.5-1,2.6h6.5c0-1.1-0.3-2-0.9-2.6C738.9,97.2,738.2,96.8,737.2,96.8z"/>
</g>
<g>
	<g>
		<path class="st12" d="M312.7,216.2c0,1.8-0.6,3.2-1.9,4.3s-3.1,1.6-5.4,1.6c-2.1,0-4-0.4-5.7-1.2v-3.9c1.3,0.6,2.5,1,3.4,1.3
			c0.9,0.2,1.8,0.4,2.6,0.4c0.9,0,1.6-0.2,2.1-0.5c0.5-0.4,0.7-0.9,0.7-1.6c0-0.4-0.1-0.7-0.3-1c-0.2-0.3-0.5-0.6-1-0.9
			c-0.4-0.3-1.3-0.7-2.6-1.4c-1.2-0.6-2.1-1.1-2.7-1.7c-0.6-0.5-1.1-1.1-1.5-1.8c-0.4-0.7-0.5-1.5-0.5-2.5c0-1.8,0.6-3.2,1.8-4.2
			c1.2-1,2.9-1.5,5-1.5c1,0,2,0.1,3,0.4s1.9,0.6,3,1l-1.4,3.3c-1.1-0.4-1.9-0.7-2.6-0.9c-0.7-0.2-1.4-0.3-2.1-0.3
			c-0.8,0-1.4,0.2-1.8,0.6c-0.4,0.4-0.6,0.9-0.6,1.5c0,0.4,0.1,0.7,0.3,1c0.2,0.3,0.4,0.5,0.8,0.8c0.4,0.3,1.3,0.7,2.7,1.4
			c1.9,0.9,3.1,1.8,3.8,2.7C312.3,213.8,312.7,214.9,312.7,216.2z"/>
		<path class="st12" d="M322.9,222.1c-2.5,0-4.4-0.7-5.8-2c-1.4-1.4-2.1-3.3-2.1-5.8c0-2.6,0.6-4.5,1.9-5.9c1.3-1.4,3.1-2.1,5.3-2.1
			c2.2,0,3.8,0.6,5,1.8s1.8,2.9,1.8,5.1v2h-9.9c0,1.2,0.4,2.1,1.1,2.8c0.7,0.7,1.6,1,2.8,1c0.9,0,1.8-0.1,2.6-0.3s1.7-0.5,2.6-0.9
			v3.2c-0.7,0.4-1.5,0.6-2.3,0.8C325.1,222,324.1,222.1,322.9,222.1z M322.3,209.2c-0.9,0-1.6,0.3-2.1,0.8c-0.5,0.6-0.8,1.4-0.9,2.4
			h5.9c0-1-0.3-1.8-0.8-2.4S323.2,209.2,322.3,209.2z"/>
		<path class="st12" d="M339,218.7c0.7,0,1.6-0.2,2.6-0.5v3.1c-1,0.5-2.3,0.7-3.8,0.7c-1.7,0-2.9-0.4-3.6-1.3
			c-0.8-0.8-1.1-2.1-1.1-3.8v-7.4h-2v-1.8l2.3-1.4l1.2-3.2h2.7v3.3h4.3v3.1h-4.3v7.4c0,0.6,0.2,1,0.5,1.3
			C338,218.6,338.4,218.7,339,218.7z"/>
		<path class="st12" d="M354.4,221.8l-0.8-2.1h-0.1c-0.7,0.9-1.4,1.5-2.2,1.8c-0.7,0.3-1.7,0.5-2.9,0.5c-1.5,0-2.6-0.4-3.5-1.3
			c-0.8-0.8-1.3-2-1.3-3.6c0-1.6,0.6-2.8,1.7-3.6c1.1-0.8,2.8-1.2,5.1-1.3l2.7-0.1v-0.7c0-1.5-0.8-2.3-2.4-2.3
			c-1.2,0-2.7,0.4-4.3,1.1l-1.4-2.8c1.8-0.9,3.7-1.4,5.9-1.4c2.1,0,3.6,0.4,4.7,1.3c1.1,0.9,1.6,2.3,1.6,4.1v10.2H354.4z
			 M353.2,214.7l-1.6,0.1c-1.2,0-2.1,0.3-2.7,0.7c-0.6,0.4-0.9,1-0.9,1.8c0,1.2,0.7,1.8,2,1.8c1,0,1.7-0.3,2.3-0.8
			c0.6-0.6,0.9-1.3,0.9-2.2V214.7z"/>
		<path class="st12" d="M375.7,221.8h-4.2v-8.9c0-2.2-0.8-3.3-2.5-3.3c-1.2,0-2,0.4-2.5,1.2s-0.8,2.1-0.8,3.9v7.2h-4.2v-21.3h4.2
			v4.3c0,0.3,0,1.1-0.1,2.4l-0.1,1.2h0.2c0.9-1.5,2.4-2.2,4.4-2.2c1.8,0,3.2,0.5,4.1,1.4c0.9,1,1.4,2.4,1.4,4.2V221.8z"/>
		<path class="st12" d="M390.8,221.8l-0.6-2H390c-0.4,0.7-1.1,1.3-1.9,1.6s-1.8,0.6-2.8,0.6c-1.8,0-3.1-0.5-4.1-1.4
			c-0.9-1-1.4-2.3-1.4-4.1v-10h4.2v8.9c0,1.1,0.2,1.9,0.6,2.5c0.4,0.6,1,0.8,1.9,0.8c1.2,0,2-0.4,2.5-1.2s0.8-2.1,0.8-3.9v-7.2h4.2
			v15.3H390.8z"/>
		<path class="st12" d="M412.5,221.8h-4.2v-8.9c0-1.1-0.2-1.9-0.6-2.5c-0.4-0.6-1-0.8-1.9-0.8c-1.2,0-2,0.4-2.5,1.2
			s-0.8,2.1-0.8,3.9v7.2h-4.2v-15.3h3.2l0.6,2h0.2c0.5-0.7,1.1-1.3,1.9-1.7c0.8-0.4,1.7-0.6,2.8-0.6c1.8,0,3.1,0.5,4,1.4
			c0.9,1,1.4,2.3,1.4,4.2V221.8z"/>
		<path class="st12" d="M434.7,217.2c0,1.6-0.5,2.8-1.6,3.6c-1.1,0.8-2.7,1.2-4.9,1.2c-1.1,0-2.1-0.1-2.8-0.2
			c-0.8-0.2-1.5-0.4-2.2-0.7v-3.4c0.8,0.4,1.6,0.7,2.6,0.9s1.8,0.4,2.6,0.4c1.5,0,2.3-0.4,2.3-1.3c0-0.3-0.1-0.6-0.3-0.8
			c-0.2-0.2-0.5-0.4-1-0.7s-1.1-0.6-2-0.9c-1.2-0.5-2-0.9-2.6-1.4c-0.6-0.4-1-0.9-1.2-1.4c-0.3-0.5-0.4-1.2-0.4-2
			c0-1.4,0.5-2.4,1.6-3.2c1.1-0.7,2.5-1.1,4.5-1.1c1.8,0,3.6,0.4,5.4,1.2l-1.3,3c-0.8-0.3-1.5-0.6-2.1-0.8c-0.7-0.2-1.3-0.3-2-0.3
			c-1.2,0-1.8,0.3-1.8,1c0,0.4,0.2,0.7,0.6,1s1.3,0.7,2.6,1.2c1.2,0.5,2.1,0.9,2.6,1.4c0.6,0.4,1,0.9,1.2,1.4
			C434.6,215.8,434.7,216.5,434.7,217.2z"/>
		<path class="st12" d="M444.9,222.1c-2.5,0-4.4-0.7-5.8-2c-1.4-1.4-2.1-3.3-2.1-5.8c0-2.6,0.6-4.5,1.9-5.9c1.3-1.4,3.1-2.1,5.3-2.1
			c2.2,0,3.8,0.6,5,1.8s1.8,2.9,1.8,5.1v2h-9.9c0,1.2,0.4,2.1,1.1,2.8c0.7,0.7,1.6,1,2.8,1c0.9,0,1.8-0.1,2.6-0.3s1.7-0.5,2.6-0.9
			v3.2c-0.7,0.4-1.5,0.6-2.3,0.8C447.1,222,446.1,222.1,444.9,222.1z M444.3,209.2c-0.9,0-1.6,0.3-2.1,0.8c-0.5,0.6-0.8,1.4-0.9,2.4
			h5.9c0-1-0.3-1.8-0.8-2.4S445.2,209.2,444.3,209.2z"/>
		<path class="st12" d="M458.5,213.5l1.8-2.3l4.3-4.6h4.7l-6.1,6.6l6.4,8.7h-4.8l-4.4-6.2l-1.8,1.4v4.8h-4.2v-21.3h4.2v9.5
			L458.5,213.5L458.5,213.5z"/>
		<path class="st12" d="M481.6,221.8l-0.8-2.1h-0.1c-0.7,0.9-1.4,1.5-2.2,1.8c-0.7,0.3-1.7,0.5-2.9,0.5c-1.5,0-2.6-0.4-3.5-1.3
			c-0.8-0.8-1.3-2-1.3-3.6c0-1.6,0.6-2.8,1.7-3.6c1.1-0.8,2.8-1.2,5.1-1.3l2.7-0.1v-0.7c0-1.5-0.8-2.3-2.4-2.3
			c-1.2,0-2.7,0.4-4.3,1.1l-1.4-2.8c1.8-0.9,3.7-1.4,5.9-1.4c2.1,0,3.6,0.4,4.7,1.3c1.1,0.9,1.6,2.3,1.6,4.1v10.2H481.6z
			 M480.4,214.7l-1.6,0.1c-1.2,0-2.1,0.3-2.7,0.7c-0.6,0.4-0.9,1-0.9,1.8c0,1.2,0.7,1.8,2,1.8c1,0,1.7-0.3,2.3-0.8
			c0.6-0.6,0.9-1.3,0.9-2.2V214.7z"/>
		<path class="st12" d="M493,221.8h-4.2v-21.3h4.2V221.8z"/>
		<path class="st12" d="M497.2,202.5c0-1.4,0.8-2,2.3-2c1.5,0,2.3,0.7,2.3,2c0,0.6-0.2,1.2-0.6,1.5c-0.4,0.4-0.9,0.5-1.7,0.5
			C497.9,204.6,497.2,203.9,497.2,202.5z M501.5,221.8h-4.2v-15.3h4.2V221.8z"/>
		<path class="st12" d="M568.9,206.3c0,1.2-0.4,2.3-1.1,3.2c-0.8,0.9-1.8,1.5-3.2,1.8v0.1c1.6,0.2,2.8,0.7,3.7,1.5
			c0.8,0.8,1.2,1.8,1.2,3.2c0,1.9-0.7,3.4-2.1,4.5c-1.4,1.1-3.4,1.6-6,1.6c-2.2,0-4.1-0.4-5.8-1.1v-3.6c0.8,0.4,1.6,0.7,2.6,1
			s1.9,0.4,2.8,0.4c1.4,0,2.4-0.2,3.1-0.7c0.7-0.5,1-1.2,1-2.3c0-0.9-0.4-1.6-1.1-2c-0.8-0.4-2-0.6-3.7-0.6h-1.5v-3.2h1.5
			c1.5,0,2.7-0.2,3.4-0.6c0.7-0.4,1.1-1.1,1.1-2.1c0-1.5-0.9-2.3-2.8-2.3c-0.7,0-1.3,0.1-2,0.3c-0.7,0.2-1.4,0.6-2.3,1.1l-2-2.9
			c1.8-1.3,4-2,6.5-2c2.1,0,3.7,0.4,4.9,1.3C568.3,203.6,568.9,204.8,568.9,206.3z"/>
		<path class="st12" d="M579,209c1.9,0,3.5,0.5,4.6,1.6c1.1,1.1,1.7,2.6,1.7,4.5c0,2.2-0.7,4-2.1,5.2c-1.4,1.2-3.3,1.8-5.9,1.8
			c-2.2,0-4-0.4-5.4-1.1v-3.7c0.7,0.4,1.6,0.7,2.5,0.9c1,0.2,1.9,0.4,2.7,0.4c2.6,0,3.9-1.1,3.9-3.2c0-2-1.3-3-4-3
			c-0.5,0-1,0-1.6,0.1c-0.6,0.1-1.1,0.2-1.4,0.3l-1.7-0.9l0.8-10.2H584v3.6h-7.1l-0.4,3.9l0.5-0.1C577.5,209.1,578.2,209,579,209z"
			/>
		<path class="st12" d="M597,207.8c0,2.1-0.4,3.7-1.2,4.7c-0.8,1.1-2,1.6-3.6,1.6c-1.5,0-2.7-0.5-3.5-1.6s-1.2-2.6-1.2-4.7
			c0-4.2,1.6-6.2,4.7-6.2c1.5,0,2.7,0.5,3.5,1.6C596.6,204.2,597,205.8,597,207.8z M591,207.8c0,1.2,0.1,2,0.3,2.6
			c0.2,0.6,0.5,0.9,1,0.9c0.9,0,1.3-1.1,1.3-3.4c0-2.3-0.4-3.4-1.3-3.4c-0.5,0-0.8,0.3-1,0.8S591,206.6,591,207.8z M606.4,201.8
			l-11.1,20H592l11.1-20H606.4z M611,215.7c0,2.1-0.4,3.7-1.2,4.7c-0.8,1.1-2,1.6-3.6,1.6c-1.5,0-2.7-0.5-3.5-1.6s-1.2-2.6-1.2-4.7
			c0-4.2,1.6-6.2,4.7-6.2c1.5,0,2.7,0.5,3.5,1.6C610.6,212.2,611,213.7,611,215.7z M605,215.8c0,1.2,0.1,2,0.3,2.6
			c0.2,0.6,0.5,0.9,1,0.9c0.9,0,1.3-1.1,1.3-3.4c0-2.3-0.4-3.4-1.3-3.4c-0.5,0-0.8,0.3-1,0.8S605,214.6,605,215.8z"/>
	</g>
</g>
<g>
	<g>
		<path class="st12" d="M312.7,307.9c0,1.8-0.6,3.2-1.9,4.3s-3.1,1.6-5.4,1.6c-2.1,0-4-0.4-5.7-1.2v-3.9c1.3,0.6,2.5,1,3.4,1.3
			c0.9,0.2,1.8,0.4,2.6,0.4c0.9,0,1.6-0.2,2.1-0.5c0.5-0.4,0.7-0.9,0.7-1.6c0-0.4-0.1-0.7-0.3-1c-0.2-0.3-0.5-0.6-1-0.9
			c-0.4-0.3-1.3-0.7-2.6-1.4c-1.2-0.6-2.1-1.1-2.7-1.7c-0.6-0.5-1.1-1.1-1.5-1.8c-0.4-0.7-0.5-1.5-0.5-2.5c0-1.8,0.6-3.2,1.8-4.2
			c1.2-1,2.9-1.5,5-1.5c1,0,2,0.1,3,0.4s1.9,0.6,3,1l-1.4,3.3c-1.1-0.4-1.9-0.7-2.6-0.9c-0.7-0.2-1.4-0.3-2.1-0.3
			c-0.8,0-1.4,0.2-1.8,0.6c-0.4,0.4-0.6,0.9-0.6,1.5c0,0.4,0.1,0.7,0.3,1c0.2,0.3,0.4,0.5,0.8,0.8c0.4,0.3,1.3,0.7,2.7,1.4
			c1.9,0.9,3.1,1.8,3.8,2.7C312.3,305.5,312.7,306.6,312.7,307.9z"/>
		<path class="st12" d="M322.9,313.8c-2.5,0-4.4-0.7-5.8-2c-1.4-1.4-2.1-3.3-2.1-5.8c0-2.6,0.6-4.5,1.9-5.9c1.3-1.4,3.1-2.1,5.3-2.1
			c2.2,0,3.8,0.6,5,1.8s1.8,2.9,1.8,5.1v2h-9.9c0,1.2,0.4,2.1,1.1,2.8c0.7,0.7,1.6,1,2.8,1c0.9,0,1.8-0.1,2.6-0.3s1.7-0.5,2.6-0.9
			v3.2c-0.7,0.4-1.5,0.6-2.3,0.8C325.1,313.7,324.1,313.8,322.9,313.8z M322.3,300.9c-0.9,0-1.6,0.3-2.1,0.8
			c-0.5,0.6-0.8,1.4-0.9,2.4h5.9c0-1-0.3-1.8-0.8-2.4S323.2,300.9,322.3,300.9z"/>
		<path class="st12" d="M341,297.9c1.8,0,3.2,0.7,4.2,2.1c1,1.4,1.5,3.3,1.5,5.8c0,2.5-0.5,4.5-1.6,5.9c-1.1,1.4-2.5,2.1-4.3,2.1
			c-1.8,0-3.2-0.7-4.2-2h-0.3l-0.7,1.7h-3.2v-21.3h4.2v4.9c0,0.6-0.1,1.6-0.2,3h0.2C337.7,298.7,339.1,297.9,341,297.9z
			 M339.7,301.3c-1,0-1.8,0.3-2.3,1c-0.5,0.6-0.7,1.7-0.7,3.1v0.5c0,1.6,0.2,2.8,0.7,3.5c0.5,0.7,1.3,1.1,2.3,1.1
			c0.9,0,1.5-0.4,2-1.2c0.5-0.8,0.8-1.9,0.8-3.4s-0.3-2.6-0.8-3.4C341.3,301.6,340.6,301.3,339.7,301.3z"/>
		<path class="st12" d="M361.1,313.5l-0.6-2h-0.2c-0.4,0.7-1.1,1.3-1.9,1.6s-1.8,0.6-2.8,0.6c-1.8,0-3.1-0.5-4.1-1.4
			c-0.9-1-1.4-2.3-1.4-4.1v-10h4.2v8.9c0,1.1,0.2,1.9,0.6,2.5c0.4,0.6,1,0.8,1.9,0.8c1.2,0,2-0.4,2.5-1.2s0.8-2.1,0.8-3.9v-7.2h4.2
			v15.3H361.1z"/>
		<path class="st12" d="M372.8,313.5h-4.2v-21.3h4.2V313.5z"/>
		<path class="st12" d="M386.9,313.5l-0.8-2.1H386c-0.7,0.9-1.4,1.5-2.2,1.8c-0.7,0.3-1.7,0.5-2.9,0.5c-1.5,0-2.6-0.4-3.5-1.3
			c-0.8-0.8-1.3-2-1.3-3.6c0-1.6,0.6-2.8,1.7-3.6c1.1-0.8,2.8-1.2,5.1-1.3l2.7-0.1v-0.7c0-1.5-0.8-2.3-2.4-2.3
			c-1.2,0-2.7,0.4-4.3,1.1l-1.4-2.8c1.8-0.9,3.7-1.4,5.9-1.4c2.1,0,3.6,0.4,4.7,1.3c1.1,0.9,1.6,2.3,1.6,4.1v10.2H386.9z
			 M385.7,306.4l-1.6,0.1c-1.2,0-2.1,0.3-2.7,0.7c-0.6,0.4-0.9,1-0.9,1.8c0,1.2,0.7,1.8,2,1.8c1,0,1.7-0.3,2.3-0.8
			c0.6-0.6,0.9-1.3,0.9-2.2V306.4z"/>
		<path class="st12" d="M408.2,313.5H404v-8.9c0-1.1-0.2-1.9-0.6-2.5c-0.4-0.6-1-0.8-1.9-0.8c-1.2,0-2,0.4-2.5,1.2s-0.8,2.1-0.8,3.9
			v7.2h-4.2v-15.3h3.2l0.6,2h0.2c0.5-0.7,1.1-1.3,1.9-1.7c0.8-0.4,1.7-0.6,2.8-0.6c1.8,0,3.1,0.5,4,1.4c0.9,1,1.4,2.3,1.4,4.2V313.5
			z"/>
		<path class="st12" d="M430.4,309c0,1.6-0.5,2.8-1.6,3.6c-1.1,0.8-2.7,1.2-4.9,1.2c-1.1,0-2.1-0.1-2.8-0.2
			c-0.8-0.2-1.5-0.4-2.2-0.7v-3.4c0.8,0.4,1.6,0.7,2.6,0.9s1.8,0.4,2.6,0.4c1.5,0,2.3-0.4,2.3-1.3c0-0.3-0.1-0.6-0.3-0.8
			c-0.2-0.2-0.5-0.4-1-0.7s-1.1-0.6-2-0.9c-1.2-0.5-2-0.9-2.6-1.4c-0.6-0.4-1-0.9-1.2-1.4c-0.3-0.5-0.4-1.2-0.4-2
			c0-1.4,0.5-2.4,1.6-3.2c1.1-0.7,2.5-1.1,4.5-1.1c1.8,0,3.6,0.4,5.4,1.2l-1.3,3c-0.8-0.3-1.5-0.6-2.1-0.8c-0.7-0.2-1.3-0.3-2-0.3
			c-1.2,0-1.8,0.3-1.8,1c0,0.4,0.2,0.7,0.6,1s1.3,0.7,2.6,1.2c1.2,0.5,2.1,0.9,2.6,1.4c0.6,0.4,1,0.9,1.2,1.4
			C430.3,307.5,430.4,308.2,430.4,309z"/>
		<path class="st12" d="M440.6,313.8c-2.5,0-4.4-0.7-5.8-2c-1.4-1.4-2.1-3.3-2.1-5.8c0-2.6,0.6-4.5,1.9-5.9c1.3-1.4,3.1-2.1,5.3-2.1
			c2.2,0,3.8,0.6,5,1.8s1.8,2.9,1.8,5.1v2H437c0,1.2,0.4,2.1,1.1,2.8c0.7,0.7,1.6,1,2.8,1c0.9,0,1.8-0.1,2.6-0.3s1.7-0.5,2.6-0.9
			v3.2c-0.7,0.4-1.5,0.6-2.3,0.8C442.8,313.7,441.8,313.8,440.6,313.8z M440,300.9c-0.9,0-1.6,0.3-2.1,0.8c-0.5,0.6-0.8,1.4-0.9,2.4
			h5.9c0-1-0.3-1.8-0.8-2.4S440.9,300.9,440,300.9z"/>
		<path class="st12" d="M454.2,305.2l1.8-2.3l4.3-4.6h4.7l-6.1,6.6l6.4,8.7h-4.8l-4.4-6.2l-1.8,1.4v4.8h-4.2v-21.3h4.2v9.5
			L454.2,305.2L454.2,305.2z"/>
		<path class="st12" d="M477.3,313.5l-0.8-2.1h-0.1c-0.7,0.9-1.4,1.5-2.2,1.8c-0.7,0.3-1.7,0.5-2.9,0.5c-1.5,0-2.6-0.4-3.5-1.3
			c-0.8-0.8-1.3-2-1.3-3.6c0-1.6,0.6-2.8,1.7-3.6c1.1-0.8,2.8-1.2,5.1-1.3l2.7-0.1v-0.7c0-1.5-0.8-2.3-2.4-2.3
			c-1.2,0-2.7,0.4-4.3,1.1l-1.4-2.8c1.8-0.9,3.7-1.4,5.9-1.4c2.1,0,3.6,0.4,4.7,1.3c1.1,0.9,1.6,2.3,1.6,4.1v10.2H477.3z
			 M476.1,306.4l-1.6,0.1c-1.2,0-2.1,0.3-2.7,0.7c-0.6,0.4-0.9,1-0.9,1.8c0,1.2,0.7,1.8,2,1.8c1,0,1.7-0.3,2.3-0.8
			c0.6-0.6,0.9-1.3,0.9-2.2V306.4z"/>
		<path class="st12" d="M488.7,313.5h-4.2v-21.3h4.2V313.5z"/>
		<path class="st12" d="M492.9,294.3c0-1.4,0.8-2,2.3-2c1.5,0,2.3,0.7,2.3,2c0,0.6-0.2,1.2-0.6,1.5c-0.4,0.4-0.9,0.5-1.7,0.5
			C493.6,296.3,492.9,295.6,492.9,294.3z M497.2,313.5h-4.2v-15.3h4.2V313.5z"/>
		<path class="st12" d="M564.6,298c0,1.2-0.4,2.3-1.1,3.2c-0.8,0.9-1.8,1.5-3.2,1.8v0.1c1.6,0.2,2.8,0.7,3.7,1.5
			c0.8,0.8,1.2,1.8,1.2,3.2c0,1.9-0.7,3.4-2.1,4.5c-1.4,1.1-3.4,1.6-6,1.6c-2.2,0-4.1-0.4-5.8-1.1v-3.6c0.8,0.4,1.6,0.7,2.6,1
			s1.9,0.4,2.8,0.4c1.4,0,2.4-0.2,3.1-0.7c0.7-0.5,1-1.2,1-2.3c0-0.9-0.4-1.6-1.1-2c-0.8-0.4-2-0.6-3.7-0.6h-1.5v-3.2h1.5
			c1.5,0,2.7-0.2,3.4-0.6c0.7-0.4,1.1-1.1,1.1-2.1c0-1.5-0.9-2.3-2.8-2.3c-0.7,0-1.3,0.1-2,0.3c-0.7,0.2-1.4,0.6-2.3,1.1l-2-2.9
			c1.8-1.3,4-2,6.5-2c2.1,0,3.7,0.4,4.9,1.3C564,295.3,564.6,296.5,564.6,298z"/>
		<path class="st12" d="M567.3,305c0-4,0.8-6.9,2.5-8.8c1.7-1.9,4.2-2.9,7.5-2.9c1.1,0,2,0.1,2.7,0.2v3.4c-0.8-0.2-1.6-0.3-2.4-0.3
			c-1.4,0-2.6,0.2-3.5,0.7s-1.6,1.1-2.1,1.9c-0.5,0.9-0.7,2.1-0.8,3.7h0.2c0.9-1.5,2.3-2.3,4.3-2.3c1.8,0,3.2,0.6,4.2,1.7
			s1.5,2.7,1.5,4.6c0,2.1-0.6,3.8-1.8,5.1s-2.9,1.9-5,1.9c-1.5,0-2.8-0.3-3.9-1c-1.1-0.7-1.9-1.7-2.5-3
			C567.6,308.4,567.3,306.9,567.3,305z M574.5,310.4c0.9,0,1.6-0.3,2.1-0.9c0.5-0.6,0.7-1.5,0.7-2.6c0-1-0.2-1.7-0.7-2.3
			s-1.1-0.8-2-0.8c-0.9,0-1.6,0.3-2.2,0.8c-0.6,0.6-0.9,1.2-0.9,1.9c0,1.1,0.3,2,0.9,2.7C572.9,310,573.7,310.4,574.5,310.4z"/>
		<path class="st12" d="M584,311.5c0-0.8,0.2-1.3,0.6-1.7c0.4-0.4,1-0.6,1.8-0.6c0.8,0,1.3,0.2,1.8,0.6c0.4,0.4,0.6,1,0.6,1.7
			c0,0.7-0.2,1.3-0.6,1.7c-0.4,0.4-1,0.6-1.8,0.6c-0.8,0-1.4-0.2-1.8-0.6C584.2,312.8,584,312.3,584,311.5z"/>
		<path class="st12" d="M598.7,300.7c1.9,0,3.5,0.5,4.6,1.6c1.1,1.1,1.7,2.6,1.7,4.5c0,2.2-0.7,4-2.1,5.2c-1.4,1.2-3.3,1.8-5.9,1.8
			c-2.2,0-4-0.4-5.4-1.1V309c0.7,0.4,1.6,0.7,2.5,0.9c1,0.2,1.9,0.4,2.7,0.4c2.6,0,3.9-1.1,3.9-3.2c0-2-1.3-3-4-3
			c-0.5,0-1,0-1.6,0.1c-0.6,0.1-1.1,0.2-1.4,0.3l-1.7-0.9l0.8-10.2h10.8v3.6h-7.1l-0.4,3.9l0.5-0.1
			C597.2,300.8,597.9,300.7,598.7,300.7z"/>
		<path class="st12" d="M616.7,299.5c0,2.1-0.4,3.7-1.2,4.7c-0.8,1.1-2,1.6-3.6,1.6c-1.5,0-2.7-0.5-3.5-1.6s-1.2-2.6-1.2-4.7
			c0-4.2,1.6-6.2,4.7-6.2c1.5,0,2.7,0.5,3.5,1.6C616.3,295.9,616.7,297.5,616.7,299.5z M610.7,299.5c0,1.2,0.1,2,0.3,2.6
			c0.2,0.6,0.5,0.9,1,0.9c0.9,0,1.3-1.1,1.3-3.4c0-2.3-0.4-3.4-1.3-3.4c-0.5,0-0.8,0.3-1,0.8S610.7,298.3,610.7,299.5z M626.1,293.5
			l-11.1,20h-3.3l11.1-20H626.1z M630.7,307.4c0,2.1-0.4,3.7-1.2,4.7c-0.8,1.1-2,1.6-3.6,1.6c-1.5,0-2.7-0.5-3.5-1.6
			s-1.2-2.6-1.2-4.7c0-4.2,1.6-6.2,4.7-6.2c1.5,0,2.7,0.5,3.5,1.6C630.3,303.9,630.7,305.4,630.7,307.4z M624.7,307.5
			c0,1.2,0.1,2,0.3,2.6c0.2,0.6,0.5,0.9,1,0.9c0.9,0,1.3-1.1,1.3-3.4c0-2.3-0.4-3.4-1.3-3.4c-0.5,0-0.8,0.3-1,0.8
			S624.7,306.3,624.7,307.5z"/>
	</g>
</g>
<g>
	<g>
		<path class="st12" d="M312.7,396c0,1.8-0.6,3.2-1.9,4.3s-3.1,1.6-5.4,1.6c-2.1,0-4-0.4-5.7-1.2v-3.9c1.3,0.6,2.5,1,3.4,1.3
			c0.9,0.2,1.8,0.4,2.6,0.4c0.9,0,1.6-0.2,2.1-0.5c0.5-0.4,0.7-0.9,0.7-1.6c0-0.4-0.1-0.7-0.3-1c-0.2-0.3-0.5-0.6-1-0.9
			c-0.4-0.3-1.3-0.7-2.6-1.4c-1.2-0.6-2.1-1.1-2.7-1.7c-0.6-0.5-1.1-1.1-1.5-1.8c-0.4-0.7-0.5-1.5-0.5-2.5c0-1.8,0.6-3.2,1.8-4.2
			c1.2-1,2.9-1.5,5-1.5c1,0,2,0.1,3,0.4s1.9,0.6,3,1l-1.4,3.3c-1.1-0.4-1.9-0.7-2.6-0.9c-0.7-0.2-1.4-0.3-2.1-0.3
			c-0.8,0-1.4,0.2-1.8,0.6c-0.4,0.4-0.6,0.9-0.6,1.5c0,0.4,0.1,0.7,0.3,1c0.2,0.3,0.4,0.5,0.8,0.8c0.4,0.3,1.3,0.7,2.7,1.4
			c1.9,0.9,3.1,1.8,3.8,2.7C312.3,393.6,312.7,394.7,312.7,396z"/>
		<path class="st12" d="M322.9,401.8c-2.5,0-4.4-0.7-5.8-2c-1.4-1.4-2.1-3.3-2.1-5.8c0-2.6,0.6-4.5,1.9-5.9c1.3-1.4,3.1-2.1,5.3-2.1
			c2.2,0,3.8,0.6,5,1.8s1.8,2.9,1.8,5.1v2h-9.9c0,1.2,0.4,2.1,1.1,2.8c0.7,0.7,1.6,1,2.8,1c0.9,0,1.8-0.1,2.6-0.3s1.7-0.5,2.6-0.9
			v3.2c-0.7,0.4-1.5,0.6-2.3,0.8C325.1,401.7,324.1,401.8,322.9,401.8z M322.3,388.9c-0.9,0-1.6,0.3-2.1,0.8
			c-0.5,0.6-0.8,1.4-0.9,2.4h5.9c0-1-0.3-1.8-0.8-2.4S323.2,388.9,322.3,388.9z"/>
		<path class="st12" d="M346.2,401.5H342v-8.9c0-1.1-0.2-1.9-0.6-2.5c-0.4-0.6-1-0.8-1.7-0.8c-1.1,0-1.8,0.4-2.3,1.2
			c-0.5,0.8-0.7,2.1-0.7,3.9v7.2h-4.2v-15.3h3.2l0.6,2h0.2c0.4-0.7,1-1.3,1.8-1.6c0.8-0.4,1.7-0.6,2.7-0.6c2.3,0,3.8,0.7,4.6,2.2
			h0.4c0.4-0.7,1-1.3,1.8-1.7c0.8-0.4,1.7-0.6,2.7-0.6c1.7,0,3,0.4,3.9,1.3s1.3,2.3,1.3,4.3v10h-4.2v-8.9c0-1.1-0.2-1.9-0.6-2.5
			c-0.4-0.6-1-0.8-1.7-0.8c-1,0-1.8,0.4-2.3,1.1c-0.5,0.7-0.8,1.9-0.8,3.5V401.5z"/>
		<path class="st12" d="M359.8,382.3c0-1.4,0.8-2,2.3-2c1.5,0,2.3,0.7,2.3,2c0,0.6-0.2,1.2-0.6,1.5c-0.4,0.4-0.9,0.5-1.7,0.5
			C360.6,384.3,359.8,383.7,359.8,382.3z M364.2,401.5H360v-15.3h4.2V401.5z"/>
		<path class="st12" d="M382.7,401.5h-4.2v-8.9c0-1.1-0.2-1.9-0.6-2.5c-0.4-0.6-1-0.8-1.9-0.8c-1.2,0-2,0.4-2.5,1.2
			s-0.8,2.1-0.8,3.9v7.2h-4.2v-15.3h3.2l0.6,2h0.2c0.5-0.7,1.1-1.3,1.9-1.7c0.8-0.4,1.7-0.6,2.8-0.6c1.8,0,3.1,0.5,4,1.4
			c0.9,1,1.4,2.3,1.4,4.2V401.5z"/>
		<path class="st12" d="M400.3,401.6c0,2.2-0.6,3.9-1.9,5c-1.3,1.1-3.2,1.7-5.7,1.7c-2.2,0-4.1-0.3-5.7-0.9V404
			c1.9,0.8,3.8,1.2,6,1.2c2.1,0,3.2-1.2,3.2-3.5v-0.3l0.1-1.9h-0.1c-1,1.5-2.4,2.3-4.3,2.3c-1.8,0-3.3-0.7-4.3-2.1
			c-1-1.4-1.5-3.3-1.5-5.8c0-2.5,0.5-4.5,1.6-5.9c1-1.4,2.5-2.1,4.3-2.1c1.9,0,3.4,0.7,4.4,2.2h0.1l0.3-2h3.5V401.6z M393.3,398.5
			c1.1,0,1.9-0.3,2.4-1c0.5-0.6,0.7-1.7,0.7-3.1v-0.5c0-1.6-0.3-2.8-0.8-3.5c-0.5-0.7-1.3-1.1-2.4-1.1c-2,0-2.9,1.5-2.9,4.6
			c0,1.5,0.2,2.7,0.7,3.4C391.5,398.2,392.3,398.5,393.3,398.5z"/>
		<path class="st12" d="M418,401.6c0,2.2-0.6,3.9-1.9,5c-1.3,1.1-3.2,1.7-5.7,1.7c-2.2,0-4.1-0.3-5.7-0.9V404c1.9,0.8,3.8,1.2,6,1.2
			c2.1,0,3.2-1.2,3.2-3.5v-0.3l0.1-1.9h-0.1c-1,1.5-2.4,2.3-4.3,2.3c-1.8,0-3.3-0.7-4.3-2.1c-1-1.4-1.5-3.3-1.5-5.8
			c0-2.5,0.5-4.5,1.6-5.9c1-1.4,2.5-2.1,4.3-2.1c1.9,0,3.4,0.7,4.4,2.2h0.1l0.3-2h3.5V401.6z M411,398.5c1.1,0,1.9-0.3,2.4-1
			c0.5-0.6,0.7-1.7,0.7-3.1v-0.5c0-1.6-0.3-2.8-0.8-3.5c-0.5-0.7-1.3-1.1-2.4-1.1c-2,0-2.9,1.5-2.9,4.6c0,1.5,0.2,2.7,0.7,3.4
			C409.2,398.2,410,398.5,411,398.5z"/>
		<path class="st12" d="M433.2,401.5l-0.6-2h-0.2c-0.4,0.7-1.1,1.3-1.9,1.6s-1.8,0.6-2.8,0.6c-1.8,0-3.1-0.5-4.1-1.4
			c-0.9-1-1.4-2.3-1.4-4.1v-10h4.2v8.9c0,1.1,0.2,1.9,0.6,2.5c0.4,0.6,1,0.8,1.9,0.8c1.2,0,2-0.4,2.5-1.2s0.8-2.1,0.8-3.9v-7.2h4.2
			v15.3H433.2z"/>
		<path class="st12" d="M458.7,397c0,1.6-0.5,2.8-1.6,3.6c-1.1,0.8-2.7,1.2-4.9,1.2c-1.1,0-2.1-0.1-2.8-0.2
			c-0.8-0.2-1.5-0.4-2.2-0.7v-3.4c0.8,0.4,1.6,0.7,2.6,0.9s1.8,0.4,2.6,0.4c1.5,0,2.3-0.4,2.3-1.3c0-0.3-0.1-0.6-0.3-0.8
			c-0.2-0.2-0.5-0.4-1-0.7s-1.1-0.6-2-0.9c-1.2-0.5-2-0.9-2.6-1.4c-0.6-0.4-1-0.9-1.2-1.4c-0.3-0.5-0.4-1.2-0.4-2
			c0-1.4,0.5-2.4,1.6-3.2c1.1-0.7,2.5-1.1,4.5-1.1c1.8,0,3.6,0.4,5.4,1.2l-1.3,3c-0.8-0.3-1.5-0.6-2.1-0.8c-0.7-0.2-1.3-0.3-2-0.3
			c-1.2,0-1.8,0.3-1.8,1c0,0.4,0.2,0.7,0.6,1s1.3,0.7,2.6,1.2c1.2,0.5,2.1,0.9,2.6,1.4c0.6,0.4,1,0.9,1.2,1.4
			C458.6,395.6,458.7,396.2,458.7,397z"/>
		<path class="st12" d="M468.9,401.8c-2.5,0-4.4-0.7-5.8-2c-1.4-1.4-2.1-3.3-2.1-5.8c0-2.6,0.6-4.5,1.9-5.9c1.3-1.4,3.1-2.1,5.3-2.1
			c2.2,0,3.8,0.6,5,1.8s1.8,2.9,1.8,5.1v2h-9.9c0,1.2,0.4,2.1,1.1,2.8c0.7,0.7,1.6,1,2.8,1c0.9,0,1.8-0.1,2.6-0.3s1.7-0.5,2.6-0.9
			v3.2c-0.7,0.4-1.5,0.6-2.3,0.8C471.1,401.7,470.1,401.8,468.9,401.8z M468.3,388.9c-0.9,0-1.6,0.3-2.1,0.8
			c-0.5,0.6-0.8,1.4-0.9,2.4h5.9c0-1-0.3-1.8-0.8-2.4S469.2,388.9,468.3,388.9z"/>
		<path class="st12" d="M482.5,393.2l1.8-2.3l4.3-4.6h4.7l-6.1,6.6l6.4,8.7h-4.8l-4.4-6.2l-1.8,1.4v4.8h-4.2v-21.3h4.2v9.5
			L482.5,393.2L482.5,393.2z"/>
		<path class="st12" d="M505.6,401.5l-0.8-2.1h-0.1c-0.7,0.9-1.4,1.5-2.2,1.8c-0.7,0.3-1.7,0.5-2.9,0.5c-1.5,0-2.6-0.4-3.5-1.3
			c-0.8-0.8-1.3-2-1.3-3.6c0-1.6,0.6-2.8,1.7-3.6c1.1-0.8,2.8-1.2,5.1-1.3l2.7-0.1v-0.7c0-1.5-0.8-2.3-2.4-2.3
			c-1.2,0-2.7,0.4-4.3,1.1l-1.4-2.8c1.8-0.9,3.7-1.4,5.9-1.4c2.1,0,3.6,0.4,4.7,1.3c1.1,0.9,1.6,2.3,1.6,4.1v10.2H505.6z
			 M504.4,394.5l-1.6,0.1c-1.2,0-2.1,0.3-2.7,0.7c-0.6,0.4-0.9,1-0.9,1.8c0,1.2,0.7,1.8,2,1.8c1,0,1.7-0.3,2.3-0.8
			c0.6-0.6,0.9-1.3,0.9-2.2V394.5z"/>
		<path class="st12" d="M517,401.5h-4.2v-21.3h4.2V401.5z"/>
		<path class="st12" d="M521.2,382.3c0-1.4,0.8-2,2.3-2c1.5,0,2.3,0.7,2.3,2c0,0.6-0.2,1.2-0.6,1.5c-0.4,0.4-0.9,0.5-1.7,0.5
			C521.9,384.3,521.2,383.7,521.2,382.3z M525.5,401.5h-4.2v-15.3h4.2V401.5z"/>
		<path class="st12" d="M561.1,401.5h-4.2V390l0-1.9l0.1-2.1c-0.7,0.7-1.2,1.2-1.5,1.4l-2.3,1.8l-2-2.5l6.4-5.1h3.5V401.5z"/>
		<path class="st12" d="M577.1,401.5h-4.2V390l0-1.9l0.1-2.1c-0.7,0.7-1.2,1.2-1.5,1.4l-2.3,1.8l-2-2.5l6.4-5.1h3.5V401.5z"/>
		<path class="st12" d="M583.2,399.6c0-0.8,0.2-1.3,0.6-1.7c0.4-0.4,1-0.6,1.8-0.6c0.8,0,1.3,0.2,1.8,0.6c0.4,0.4,0.6,1,0.6,1.7
			c0,0.7-0.2,1.3-0.6,1.7c-0.4,0.4-1,0.6-1.8,0.6c-0.8,0-1.4-0.2-1.8-0.6C583.4,400.9,583.2,400.3,583.2,399.6z"/>
		<path class="st12" d="M597.9,388.8c1.9,0,3.5,0.5,4.6,1.6c1.1,1.1,1.7,2.6,1.7,4.5c0,2.2-0.7,4-2.1,5.2c-1.4,1.2-3.3,1.8-5.9,1.8
			c-2.2,0-4-0.4-5.4-1.1v-3.7c0.7,0.4,1.6,0.7,2.5,0.9c1,0.2,1.9,0.4,2.7,0.4c2.6,0,3.9-1.1,3.9-3.2c0-2-1.3-3-4-3
			c-0.5,0-1,0-1.6,0.1c-0.6,0.1-1.1,0.2-1.4,0.3l-1.7-0.9l0.8-10.2h10.8v3.6h-7.1l-0.4,3.9l0.5-0.1
			C596.4,388.8,597.1,388.8,597.9,388.8z"/>
		<path class="st12" d="M615.9,387.5c0,2.1-0.4,3.7-1.2,4.7c-0.8,1.1-2,1.6-3.6,1.6c-1.5,0-2.7-0.5-3.5-1.6s-1.2-2.6-1.2-4.7
			c0-4.2,1.6-6.2,4.7-6.2c1.5,0,2.7,0.5,3.5,1.6C615.5,384,615.9,385.5,615.9,387.5z M609.9,387.5c0,1.2,0.1,2,0.3,2.6
			c0.2,0.6,0.5,0.9,1,0.9c0.9,0,1.3-1.1,1.3-3.4c0-2.3-0.4-3.4-1.3-3.4c-0.5,0-0.8,0.3-1,0.8S609.9,386.4,609.9,387.5z M625.3,381.5
			l-11.1,20H611l11.1-20H625.3z M629.9,395.5c0,2.1-0.4,3.7-1.2,4.7c-0.8,1.1-2,1.6-3.6,1.6c-1.5,0-2.7-0.5-3.5-1.6
			s-1.2-2.6-1.2-4.7c0-4.2,1.6-6.2,4.7-6.2c1.5,0,2.7,0.5,3.5,1.6C629.5,391.9,629.9,393.5,629.9,395.5z M623.9,395.5
			c0,1.2,0.1,2,0.3,2.6c0.2,0.6,0.5,0.9,1,0.9c0.9,0,1.3-1.1,1.3-3.4c0-2.3-0.4-3.4-1.3-3.4c-0.5,0-0.8,0.3-1,0.8
			S623.9,394.4,623.9,395.5z"/>
	</g>
</g>
<g>
	<g>
		<path class="st12" d="M312.7,484.4c0,1.8-0.6,3.2-1.9,4.3s-3.1,1.6-5.4,1.6c-2.1,0-4-0.4-5.7-1.2v-3.9c1.3,0.6,2.5,1,3.4,1.3
			c0.9,0.2,1.8,0.4,2.6,0.4c0.9,0,1.6-0.2,2.1-0.5c0.5-0.4,0.7-0.9,0.7-1.6c0-0.4-0.1-0.7-0.3-1c-0.2-0.3-0.5-0.6-1-0.9
			c-0.4-0.3-1.3-0.7-2.6-1.4c-1.2-0.6-2.1-1.1-2.7-1.7c-0.6-0.5-1.1-1.1-1.5-1.8c-0.4-0.7-0.5-1.5-0.5-2.5c0-1.8,0.6-3.2,1.8-4.2
			c1.2-1,2.9-1.5,5-1.5c1,0,2,0.1,3,0.4s1.9,0.6,3,1l-1.4,3.3c-1.1-0.4-1.9-0.7-2.6-0.9c-0.7-0.2-1.4-0.3-2.1-0.3
			c-0.8,0-1.4,0.2-1.8,0.6c-0.4,0.4-0.6,0.9-0.6,1.5c0,0.4,0.1,0.7,0.3,1c0.2,0.3,0.4,0.5,0.8,0.8c0.4,0.3,1.3,0.7,2.7,1.4
			c1.9,0.9,3.1,1.8,3.8,2.7C312.3,482,312.7,483.1,312.7,484.4z"/>
		<path class="st12" d="M322.9,490.3c-2.5,0-4.4-0.7-5.8-2c-1.4-1.4-2.1-3.3-2.1-5.8c0-2.6,0.6-4.5,1.9-5.9c1.3-1.4,3.1-2.1,5.3-2.1
			c2.2,0,3.8,0.6,5,1.8s1.8,2.9,1.8,5.1v2h-9.9c0,1.2,0.4,2.1,1.1,2.8c0.7,0.7,1.6,1,2.8,1c0.9,0,1.8-0.1,2.6-0.3s1.7-0.5,2.6-0.9
			v3.2c-0.7,0.4-1.5,0.6-2.3,0.8C325.1,490.2,324.1,490.3,322.9,490.3z M322.3,477.4c-0.9,0-1.6,0.3-2.1,0.8
			c-0.5,0.6-0.8,1.4-0.9,2.4h5.9c0-1-0.3-1.8-0.8-2.4S323.2,477.4,322.3,477.4z"/>
		<path class="st12" d="M339,486.9c0.7,0,1.6-0.2,2.6-0.5v3.1c-1,0.5-2.3,0.7-3.8,0.7c-1.7,0-2.9-0.4-3.6-1.3
			c-0.8-0.8-1.1-2.1-1.1-3.8v-7.4h-2v-1.8l2.3-1.4l1.2-3.2h2.7v3.3h4.3v3.1h-4.3v7.4c0,0.6,0.2,1,0.5,1.3
			C338,486.8,338.4,486.9,339,486.9z"/>
		<path class="st12" d="M344.5,470.8c0-1.4,0.8-2,2.3-2c1.5,0,2.3,0.7,2.3,2c0,0.6-0.2,1.2-0.6,1.5c-0.4,0.4-0.9,0.5-1.7,0.5
			C345.3,472.8,344.5,472.1,344.5,470.8z M348.9,490h-4.2v-15.3h4.2V490z"/>
		<path class="st12" d="M362.9,490l-0.8-2.1H362c-0.7,0.9-1.4,1.5-2.2,1.8c-0.7,0.3-1.7,0.5-2.9,0.5c-1.5,0-2.6-0.4-3.5-1.3
			c-0.8-0.8-1.3-2-1.3-3.6c0-1.6,0.6-2.8,1.7-3.6c1.1-0.8,2.8-1.2,5.1-1.3l2.7-0.1v-0.7c0-1.5-0.8-2.3-2.4-2.3
			c-1.2,0-2.7,0.4-4.3,1.1l-1.4-2.8c1.8-0.9,3.7-1.4,5.9-1.4c2.1,0,3.6,0.4,4.7,1.3c1.1,0.9,1.6,2.3,1.6,4.1V490H362.9z
			 M361.7,482.9l-1.6,0.1c-1.2,0-2.1,0.3-2.7,0.7c-0.6,0.4-0.9,1-0.9,1.8c0,1.2,0.7,1.8,2,1.8c1,0,1.7-0.3,2.3-0.8
			c0.6-0.6,0.9-1.3,0.9-2.2V482.9z"/>
		<path class="st12" d="M378.5,490.3c-1.8,0-3.2-0.7-4.2-2h-0.2c0.1,1.3,0.2,2,0.2,2.2v6.2h-4.2v-22h3.4l0.6,2h0.2
			c1-1.5,2.4-2.3,4.3-2.3c1.8,0,3.2,0.7,4.2,2.1c1,1.4,1.5,3.3,1.5,5.8c0,1.6-0.2,3-0.7,4.3s-1.2,2.1-2,2.7
			C380.8,490,379.7,490.3,378.5,490.3z M377.3,477.8c-1,0-1.8,0.3-2.3,1c-0.5,0.6-0.7,1.7-0.7,3.1v0.5c0,1.6,0.2,2.8,0.7,3.5
			c0.5,0.7,1.3,1.1,2.3,1.1c1.9,0,2.8-1.5,2.8-4.6c0-1.5-0.2-2.6-0.7-3.4C379,478.1,378.3,477.8,377.3,477.8z"/>
		<path class="st12" d="M409.2,490h-4.2v-8.9c0-2.2-0.8-3.3-2.5-3.3c-1.2,0-2,0.4-2.5,1.2s-0.8,2.1-0.8,3.9v7.2h-4.2v-21.3h4.2v4.3
			c0,0.3,0,1.1-0.1,2.4l-0.1,1.2h0.2c0.9-1.5,2.4-2.2,4.4-2.2c1.8,0,3.2,0.5,4.1,1.4c0.9,1,1.4,2.4,1.4,4.2V490z"/>
		<path class="st12" d="M423.2,490l-0.8-2.1h-0.1c-0.7,0.9-1.4,1.5-2.2,1.8c-0.7,0.3-1.7,0.5-2.9,0.5c-1.5,0-2.6-0.4-3.5-1.3
			c-0.8-0.8-1.3-2-1.3-3.6c0-1.6,0.6-2.8,1.7-3.6c1.1-0.8,2.8-1.2,5.1-1.3l2.7-0.1v-0.7c0-1.5-0.8-2.3-2.4-2.3
			c-1.2,0-2.7,0.4-4.3,1.1l-1.4-2.8c1.8-0.9,3.7-1.4,5.9-1.4c2.1,0,3.6,0.4,4.7,1.3c1.1,0.9,1.6,2.3,1.6,4.1V490H423.2z M422,482.9
			l-1.6,0.1c-1.2,0-2.1,0.3-2.7,0.7c-0.6,0.4-0.9,1-0.9,1.8c0,1.2,0.7,1.8,2,1.8c1,0,1.7-0.3,2.3-0.8c0.6-0.6,0.9-1.3,0.9-2.2V482.9
			z"/>
		<path class="st12" d="M439,474.4c0.6,0,1,0,1.4,0.1l-0.3,3.9c-0.3-0.1-0.7-0.1-1.2-0.1c-1.3,0-2.4,0.3-3.1,1
			c-0.7,0.7-1.1,1.6-1.1,2.9v7.8h-4.2v-15.3h3.2l0.6,2.6h0.2c0.5-0.9,1.1-1.5,1.9-2.1C437.2,474.7,438,474.4,439,474.4z"/>
		<path class="st12" d="M443,470.8c0-1.4,0.8-2,2.3-2c1.5,0,2.3,0.7,2.3,2c0,0.6-0.2,1.2-0.6,1.5c-0.4,0.4-0.9,0.5-1.7,0.5
			C443.7,472.8,443,472.1,443,470.8z M447.3,490h-4.2v-15.3h4.2V490z"/>
		<path class="st12" d="M570.2,490H566v-11.6l0-1.9l0.1-2.1c-0.7,0.7-1.2,1.2-1.5,1.4l-2.3,1.8l-2-2.5l6.4-5.1h3.5V490z"/>
		<path class="st12" d="M577.7,490l7.5-16.4h-9.9V470h14.3v2.7l-7.6,17.3H577.7z"/>
		<path class="st12" d="M601,476c0,2.1-0.4,3.7-1.2,4.7c-0.8,1.1-2,1.6-3.6,1.6c-1.5,0-2.7-0.5-3.5-1.6s-1.2-2.6-1.2-4.7
			c0-4.2,1.6-6.2,4.7-6.2c1.5,0,2.7,0.5,3.5,1.6C600.6,472.4,601,474,601,476z M594.9,476c0,1.2,0.1,2,0.3,2.6
			c0.2,0.6,0.5,0.9,1,0.9c0.9,0,1.3-1.1,1.3-3.4c0-2.3-0.4-3.4-1.3-3.4c-0.5,0-0.8,0.3-1,0.8S594.9,474.8,594.9,476z M610.4,470
			l-11.1,20H596l11.1-20H610.4z M615,484c0,2.1-0.4,3.7-1.2,4.7c-0.8,1.1-2,1.6-3.6,1.6c-1.5,0-2.7-0.5-3.5-1.6s-1.2-2.6-1.2-4.7
			c0-4.2,1.6-6.2,4.7-6.2c1.5,0,2.7,0.5,3.5,1.6C614.6,480.4,615,482,615,484z M608.9,484c0,1.2,0.1,2,0.3,2.6
			c0.2,0.6,0.5,0.9,1,0.9c0.9,0,1.3-1.1,1.3-3.4c0-2.3-0.4-3.4-1.3-3.4c-0.5,0-0.8,0.3-1,0.8S608.9,482.8,608.9,484z"/>
	</g>
</g>
</svg>