<!-- Generator: Adobe Illustrator 19.1.0, SVG Export Plug-In  -->
<svg version="1.1"
	 xmlns="http://www.w3.org/2000/svg" xmlns:xlink="http://www.w3.org/1999/xlink" xmlns:a="http://ns.adobe.com/AdobeSVGViewerExtensions/3.0/"
	 x="0px" y="0px" width="261.3px" height="155.9px" viewBox="0 0 261.3 155.9"
	 style="overflow:scroll;enable-background:new 0 0 261.3 155.9;" xml:space="preserve">
<style type="text/css">
	.st0{fill:#FF6633;}
	.st1{fill:#086A87;}
</style>
<defs>
</defs>
<g>
	<path class="st0" d="M81.4,36.9h-7.7V15.9l0.1-3.5l0.1-3.8c-1.3,1.3-2.2,2.1-2.7,2.5L67,14.5l-3.7-4.6L75,0.5h6.3V36.9z"/>
	<path class="st0" d="M110.5,36.9h-7.7V15.9l0.1-3.5l0.1-3.8c-1.3,1.3-2.2,2.1-2.7,2.5l-4.2,3.4l-3.7-4.6l11.7-9.3h6.3V36.9z"/>
	<path class="st0" d="M121.5,33.4c0-1.4,0.4-2.4,1.1-3.2s1.8-1.1,3.3-1.1c1.4,0,2.4,0.4,3.2,1.1c0.8,0.7,1.1,1.8,1.1,3.1
		c0,1.3-0.4,2.3-1.1,3.1c-0.8,0.8-1.8,1.1-3.2,1.1c-1.4,0-2.5-0.4-3.2-1.1S121.5,34.7,121.5,33.4z"/>
	<path class="st0" d="M148.4,13.7c3.5,0,6.3,1,8.4,3c2.1,2,3.1,4.7,3.1,8.1c0,4.1-1.3,7.2-3.8,9.4s-6.1,3.3-10.8,3.3
		c-4.1,0-7.3-0.7-9.8-2v-6.6c1.3,0.7,2.8,1.3,4.6,1.7s3.4,0.7,5,0.7c4.7,0,7-1.9,7-5.8c0-3.7-2.4-5.5-7.3-5.5
		c-0.9,0-1.9,0.1-2.9,0.3c-1.1,0.2-1.9,0.4-2.6,0.6l-3.1-1.6l1.4-18.6h19.7V7h-13l-0.7,7.1l0.9-0.2
		C145.7,13.8,146.9,13.7,148.4,13.7z"/>
	<path class="st0" d="M181.2,11.4c0,3.8-0.7,6.7-2.2,8.6c-1.5,1.9-3.6,2.9-6.5,2.9c-2.7,0-4.9-1-6.4-3c-1.5-2-2.2-4.8-2.2-8.5
		c0-7.6,2.9-11.4,8.6-11.4c2.8,0,5,1,6.5,3C180.4,4.9,181.2,7.7,181.2,11.4z M170.2,11.4c0,2.1,0.2,3.7,0.6,4.7c0.4,1,1,1.6,1.8,1.6
		c1.6,0,2.4-2.1,2.4-6.3c0-4.2-0.8-6.2-2.4-6.2c-0.8,0-1.4,0.5-1.8,1.5C170.3,7.8,170.2,9.3,170.2,11.4z M198.3,0.5l-20.2,36.4h-6
		l20.2-36.4H198.3z M206.7,25.9c0,3.8-0.7,6.7-2.2,8.6c-1.5,1.9-3.6,2.9-6.5,2.9c-2.7,0-4.9-1-6.4-3c-1.5-2-2.2-4.8-2.2-8.5
		c0-7.6,2.9-11.4,8.6-11.4c2.8,0,5,1,6.5,3C205.9,19.5,206.7,22.3,206.7,25.9z M195.7,26c0,2.1,0.2,3.7,0.6,4.7c0.4,1,1,1.6,1.8,1.6
		c1.6,0,2.4-2.1,2.4-6.3c0-4.2-0.8-6.2-2.4-6.2c-0.8,0-1.4,0.5-1.8,1.5C195.8,22.3,195.7,23.9,195.7,26z"/>
	<path class="st1" d="M102.4,65.7h-3.6v-7.7c0-0.9-0.2-1.7-0.5-2.1s-0.8-0.7-1.5-0.7c-0.9,0-1.6,0.3-2,1s-0.6,1.8-0.6,3.3v6.2h-3.6
		V52.6h2.7l0.5,1.7H94c0.4-0.6,0.9-1.1,1.5-1.4s1.4-0.5,2.3-0.5c2,0,3.3,0.6,4,1.9h0.3c0.4-0.6,0.9-1.1,1.6-1.4s1.5-0.5,2.3-0.5
		c1.5,0,2.6,0.4,3.4,1.1s1.1,2,1.1,3.7v8.5h-3.6v-7.7c0-0.9-0.2-1.7-0.5-2.1s-0.8-0.7-1.5-0.7c-0.9,0-1.5,0.3-2,0.9s-0.7,1.6-0.7,3
		V65.7z"/>
	<path class="st1" d="M123.5,65.7l-0.5-1.7h-0.2c-0.4,0.6-0.9,1.1-1.6,1.4s-1.5,0.5-2.4,0.5c-1.5,0-2.7-0.4-3.5-1.2s-1.2-2-1.2-3.6
		v-8.5h3.6v7.7c0,0.9,0.2,1.7,0.5,2.1s0.9,0.7,1.6,0.7c1,0,1.7-0.3,2.2-1s0.7-1.8,0.7-3.3v-6.2h3.6v13.1H123.5z"/>
	<path class="st1" d="M134.1,66c-1.5,0-2.7-0.6-3.6-1.8s-1.3-2.9-1.3-5c0-2.1,0.4-3.8,1.3-5s2.1-1.8,3.7-1.8c1.6,0,2.9,0.6,3.8,1.9
		h0.1c-0.2-1-0.3-1.8-0.3-2.6v-4.2h3.6v18.2h-2.7L138,64h-0.2C137,65.3,135.8,66,134.1,66z M135.4,63.1c0.9,0,1.6-0.3,2-0.8
		s0.7-1.4,0.7-2.7v-0.4c0-1.4-0.2-2.4-0.7-3s-1.1-0.9-2.1-0.9c-0.8,0-1.4,0.3-1.9,1s-0.7,1.7-0.7,2.9s0.2,2.3,0.7,2.9
		S134.5,63.1,135.4,63.1z"/>
	<path class="st1" d="M153.5,65.7l-0.7-1.8h-0.1c-0.6,0.8-1.2,1.3-1.9,1.6s-1.5,0.4-2.5,0.4c-1.3,0-2.2-0.4-3-1.1s-1.1-1.7-1.1-3.1
		c0-1.4,0.5-2.4,1.5-3.1s2.4-1,4.4-1.1l2.3-0.1V57c0-1.3-0.7-2-2-2c-1,0-2.3,0.3-3.7,0.9l-1.2-2.4c1.5-0.8,3.2-1.2,5-1.2
		c1.8,0,3.1,0.4,4,1.1s1.4,1.9,1.4,3.5v8.7H153.5z M152.4,59.7l-1.4,0c-1,0-1.8,0.2-2.3,0.6s-0.8,0.9-0.8,1.6c0,1,0.6,1.5,1.7,1.5
		c0.8,0,1.5-0.2,2-0.7s0.7-1.1,0.7-1.9V59.7z"/>
	<path class="st1" d="M171.8,65.7h-3.6v-7.7c0-1.9-0.7-2.8-2.1-2.8c-1,0-1.7,0.3-2.2,1s-0.7,1.8-0.7,3.3v6.2h-3.6V47.5h3.6v3.7
		c0,0.3,0,1-0.1,2l-0.1,1.1h0.2c0.8-1.3,2.1-1.9,3.8-1.9c1.5,0,2.7,0.4,3.5,1.2s1.2,2,1.2,3.6V65.7z"/>
	<path class="st1" d="M0,88c0-2.1,0.3-4,0.9-5.8s1.5-3.4,2.6-4.7h2c-1.1,1.5-2,3.2-2.5,5S2.1,86,2.1,87.9c0,1.9,0.3,3.7,0.9,5.5
		s1.4,3.4,2.5,4.9h-2c-1.1-1.3-2-2.9-2.6-4.7S0,90,0,88z"/>
	<path class="st1" d="M12.8,94.8c-1.7,0-3-0.6-3.9-1.7s-1.4-2.8-1.4-4.9c0-2.1,0.5-3.7,1.4-4.9s2.2-1.8,3.9-1.8c1.7,0,3.1,0.6,4,1.9
		H17c0-0.2-0.1-0.5-0.1-0.9s-0.1-0.8-0.1-1v-5.1h2.1v18.2h-1.7l-0.3-1.7h-0.1C15.9,94.1,14.6,94.8,12.8,94.8z M13.2,93
		c1.3,0,2.2-0.3,2.8-1s0.9-1.8,0.9-3.4v-0.4c0-1.8-0.3-3.1-0.9-3.8s-1.5-1.1-2.8-1.1c-1.1,0-1.9,0.4-2.5,1.3s-0.9,2.1-0.9,3.7
		c0,1.6,0.3,2.8,0.9,3.6S12.1,93,13.2,93z"/>
	<path class="st1" d="M28.5,94.8c-1.9,0-3.4-0.6-4.5-1.8s-1.6-2.8-1.6-4.8c0-2.1,0.5-3.7,1.5-4.9s2.4-1.8,4.1-1.8
		c1.6,0,2.9,0.5,3.9,1.6s1.4,2.5,1.4,4.2v1.3h-8.8c0,1.5,0.4,2.6,1.1,3.3s1.7,1.1,3,1.1c0.7,0,1.3-0.1,2-0.2s1.3-0.4,2.2-0.7v1.9
		c-0.7,0.3-1.4,0.5-2,0.6S29.4,94.8,28.5,94.8z M28,83.2c-1,0-1.8,0.3-2.4,1s-0.9,1.6-1,2.7h6.6c0-1.2-0.3-2.1-0.8-2.7
		S29,83.2,28,83.2z"/>
	<path class="st1" d="M45.3,94.5v-8.2c0-1-0.2-1.8-0.7-2.3s-1.2-0.8-2.2-0.8c-1.3,0-2.3,0.4-2.9,1.1s-0.9,1.9-0.9,3.6v6.7h-2.1V81.7
		h1.7l0.3,1.8h0.1c0.4-0.6,1-1.1,1.7-1.5s1.5-0.5,2.4-0.5c1.6,0,2.8,0.4,3.5,1.1s1.1,2,1.1,3.6v8.4H45.3z"/>
	<path class="st1" d="M60,94.4l0.1-1.6H60c-0.9,1.3-2.2,1.9-4,1.9c-1.7,0-3-0.6-3.9-1.7s-1.4-2.8-1.4-4.9c0-2.1,0.5-3.7,1.4-4.9
		s2.2-1.8,3.9-1.8c1.7,0,3.1,0.6,4,1.9h0.1l0.3-1.7h1.7v13.1c0,1.8-0.5,3.2-1.4,4.2s-2.4,1.4-4.4,1.4c-1.9,0-3.4-0.3-4.6-0.8v-1.9
		c1.3,0.7,2.8,1,4.7,1c1.1,0,2-0.3,2.6-1s1-1.5,1-2.7V94.4z M56.3,93c1.3,0,2.2-0.3,2.8-1s0.9-1.8,0.9-3.4v-0.5c0-1.7-0.3-3-0.9-3.8
		s-1.6-1.2-2.9-1.2c-1.1,0-1.9,0.4-2.5,1.3s-0.9,2.1-0.9,3.7c0,1.6,0.3,2.8,0.9,3.6S55.2,93,56.3,93z"/>
	<path class="st1" d="M74.1,94.5l-0.4-1.8h-0.1c-0.6,0.8-1.3,1.3-1.9,1.6s-1.4,0.4-2.4,0.4c-1.3,0-2.3-0.3-3-1s-1.1-1.6-1.1-2.8
		c0-2.6,2.1-4,6.2-4.1l2.2-0.1V86c0-1-0.2-1.7-0.6-2.2s-1.1-0.7-2-0.7c-0.7,0-1.3,0.1-1.9,0.3s-1.2,0.4-1.7,0.7l-0.6-1.6
		c0.6-0.3,1.4-0.6,2.1-0.8s1.5-0.3,2.3-0.3c1.6,0,2.7,0.3,3.5,1s1.1,1.8,1.1,3.3v8.8H74.1z M69.8,93.1c1.2,0,2.1-0.3,2.8-1
		s1-1.5,1-2.7v-1.2l-1.9,0.1c-1.5,0.1-2.6,0.3-3.2,0.7s-1,1.1-1,2c0,0.7,0.2,1.2,0.6,1.5S69,93.1,69.8,93.1z"/>
	<path class="st1" d="M88.4,94.5v-8.2c0-1-0.2-1.8-0.7-2.3s-1.2-0.8-2.2-0.8c-1.3,0-2.3,0.4-2.9,1.1s-0.9,1.9-0.9,3.6v6.7h-2.1V81.7
		h1.7l0.3,1.8h0.1c0.4-0.6,1-1.1,1.7-1.5s1.5-0.5,2.4-0.5c1.6,0,2.8,0.4,3.5,1.1s1.1,2,1.1,3.6v8.4H88.4z"/>
	<path class="st1" d="M117.1,94.5v-8.3c0-2-0.9-3-2.6-3c-1.2,0-2.1,0.3-2.6,1S111,86,111,87.4v7.1h-2.1v-8.3c0-1-0.2-1.8-0.6-2.3
		s-1.1-0.8-2-0.8c-1.2,0-2.1,0.4-2.6,1.1s-0.8,1.9-0.8,3.6v6.7h-2.1V81.7h1.7l0.3,1.8h0.1c0.4-0.6,0.9-1.1,1.6-1.5s1.4-0.5,2.2-0.5
		c2,0,3.3,0.7,3.9,2.2h0.1c0.4-0.7,1-1.2,1.7-1.6s1.5-0.6,2.4-0.6c1.5,0,2.5,0.4,3.3,1.1s1.1,1.9,1.1,3.6v8.4H117.1z"/>
	<path class="st1" d="M128.6,94.8c-1.9,0-3.4-0.6-4.5-1.8s-1.6-2.8-1.6-4.8c0-2.1,0.5-3.7,1.5-4.9s2.4-1.8,4.1-1.8
		c1.6,0,2.9,0.5,3.9,1.6s1.4,2.5,1.4,4.2v1.3h-8.8c0,1.5,0.4,2.6,1.1,3.3s1.7,1.1,3,1.1c0.7,0,1.3-0.1,2-0.2s1.3-0.4,2.2-0.7v1.9
		c-0.7,0.3-1.4,0.5-2,0.6S129.5,94.8,128.6,94.8z M128.1,83.2c-1,0-1.8,0.3-2.4,1s-0.9,1.6-1,2.7h6.6c0-1.2-0.3-2.1-0.8-2.7
		S129.1,83.2,128.1,83.2z"/>
	<path class="st1" d="M145.5,94.5v-8.2c0-1-0.2-1.8-0.7-2.3s-1.2-0.8-2.2-0.8c-1.3,0-2.3,0.4-2.9,1.1s-0.9,1.9-0.9,3.6v6.7h-2.1
		V81.7h1.7l0.3,1.8h0.1c0.4-0.6,1-1.1,1.7-1.5s1.5-0.5,2.4-0.5c1.6,0,2.8,0.4,3.5,1.1s1.1,2,1.1,3.6v8.4H145.5z"/>
	<path class="st1" d="M160.1,94.4l0.1-1.6h-0.1c-0.9,1.3-2.2,1.9-4,1.9c-1.7,0-3-0.6-3.9-1.7s-1.4-2.8-1.4-4.9
		c0-2.1,0.5-3.7,1.4-4.9s2.2-1.8,3.9-1.8c1.7,0,3.1,0.6,4,1.9h0.1l0.3-1.7h1.7v13.1c0,1.8-0.5,3.2-1.4,4.2s-2.4,1.4-4.4,1.4
		c-1.9,0-3.4-0.3-4.6-0.8v-1.9c1.3,0.7,2.8,1,4.7,1c1.1,0,2-0.3,2.6-1s1-1.5,1-2.7V94.4z M156.4,93c1.3,0,2.2-0.3,2.8-1
		s0.9-1.8,0.9-3.4v-0.5c0-1.7-0.3-3-0.9-3.8s-1.6-1.2-2.9-1.2c-1.1,0-1.9,0.4-2.5,1.3s-0.9,2.1-0.9,3.7c0,1.6,0.3,2.8,0.9,3.6
		S155.3,93,156.4,93z"/>
	<path class="st1" d="M174.9,94.4l0.1-1.6h-0.1c-0.9,1.3-2.2,1.9-4,1.9c-1.7,0-3-0.6-3.9-1.7s-1.4-2.8-1.4-4.9
		c0-2.1,0.5-3.7,1.4-4.9s2.2-1.8,3.9-1.8c1.7,0,3.1,0.6,4,1.9h0.1l0.3-1.7h1.7v13.1c0,1.8-0.5,3.2-1.4,4.2s-2.4,1.4-4.4,1.4
		c-1.9,0-3.4-0.3-4.6-0.8v-1.9c1.3,0.7,2.8,1,4.7,1c1.1,0,2-0.3,2.6-1s1-1.5,1-2.7V94.4z M171.2,93c1.3,0,2.2-0.3,2.8-1
		s0.9-1.8,0.9-3.4v-0.5c0-1.7-0.3-3-0.9-3.8s-1.6-1.2-2.9-1.2c-1.1,0-1.9,0.4-2.5,1.3s-0.9,2.1-0.9,3.7c0,1.6,0.3,2.8,0.9,3.6
		S170,93,171.2,93z"/>
	<path class="st1" d="M183,81.7v8.3c0,1,0.2,1.8,0.7,2.3s1.2,0.8,2.2,0.8c1.3,0,2.3-0.4,2.9-1.1s0.9-1.9,0.9-3.6v-6.7h2.1v12.9h-1.7
		l-0.3-1.7h-0.1c-0.4,0.6-0.9,1.1-1.6,1.4s-1.5,0.5-2.4,0.5c-1.5,0-2.7-0.4-3.5-1.1s-1.2-1.9-1.2-3.6v-8.4H183z"/>
	<path class="st1" d="M204.7,94.5v-8.2c0-1-0.2-1.8-0.7-2.3s-1.2-0.8-2.2-0.8c-1.3,0-2.3,0.4-2.9,1.1s-0.9,1.9-0.9,3.6v6.7h-2.1
		V81.7h1.7l0.3,1.8h0.1c0.4-0.6,1-1.1,1.7-1.5s1.5-0.5,2.4-0.5c1.6,0,2.8,0.4,3.5,1.1s1.1,2,1.1,3.6v8.4H204.7z"/>
	<path class="st1" d="M218.7,94.5l-0.4-1.8h-0.1c-0.6,0.8-1.3,1.3-1.9,1.6s-1.4,0.4-2.4,0.4c-1.3,0-2.3-0.3-3-1s-1.1-1.6-1.1-2.8
		c0-2.6,2.1-4,6.2-4.1l2.2-0.1V86c0-1-0.2-1.7-0.6-2.2s-1.1-0.7-2-0.7c-0.7,0-1.3,0.1-1.9,0.3s-1.2,0.4-1.7,0.7l-0.6-1.6
		c0.6-0.3,1.4-0.6,2.1-0.8s1.5-0.3,2.3-0.3c1.6,0,2.7,0.3,3.5,1s1.1,1.8,1.1,3.3v8.8H218.7z M214.3,93.1c1.2,0,2.1-0.3,2.8-1
		s1-1.5,1-2.7v-1.2l-1.9,0.1c-1.5,0.1-2.6,0.3-3.2,0.7s-1,1.1-1,2c0,0.7,0.2,1.2,0.6,1.5S213.6,93.1,214.3,93.1z"/>
	<path class="st1" d="M226.3,87.9L227,87l0.8-1l4.1-4.3h2.5l-5.2,5.5l5.6,7.4h-2.5l-4.5-6l-1.5,1.3v4.7h-2.1V76.3h2.1v9.5V87.9
		L226.3,87.9z"/>
	<path class="st1" d="M245,94.5l-0.4-1.8h-0.1c-0.6,0.8-1.3,1.3-1.9,1.6s-1.4,0.4-2.4,0.4c-1.3,0-2.3-0.3-3-1s-1.1-1.6-1.1-2.8
		c0-2.6,2.1-4,6.2-4.1l2.2-0.1V86c0-1-0.2-1.7-0.6-2.2s-1.1-0.7-2-0.7c-0.7,0-1.3,0.1-1.9,0.3s-1.2,0.4-1.7,0.7l-0.6-1.6
		c0.6-0.3,1.4-0.6,2.1-0.8s1.5-0.3,2.3-0.3c1.6,0,2.7,0.3,3.5,1s1.1,1.8,1.1,3.3v8.8H245z M240.6,93.1c1.2,0,2.1-0.3,2.8-1
		s1-1.5,1-2.7v-1.2l-1.9,0.1c-1.5,0.1-2.6,0.3-3.2,0.7s-1,1.1-1,2c0,0.7,0.2,1.2,0.6,1.5S239.9,93.1,240.6,93.1z"/>
	<path class="st1" d="M259.2,94.5v-8.2c0-1-0.2-1.8-0.7-2.3s-1.2-0.8-2.2-0.8c-1.3,0-2.3,0.4-2.9,1.1s-0.9,1.9-0.9,3.6v6.7h-2.1
		V81.7h1.7l0.3,1.8h0.1c0.4-0.6,1-1.1,1.7-1.5s1.5-0.5,2.4-0.5c1.6,0,2.8,0.4,3.5,1.1s1.1,2,1.1,3.6v8.4H259.2z"/>
	<path class="st1" d="M54.5,123.3l-0.4-1.8H54c-0.6,0.8-1.3,1.3-1.9,1.6s-1.4,0.4-2.4,0.4c-1.3,0-2.3-0.3-3-1s-1.1-1.6-1.1-2.8
		c0-2.6,2.1-4,6.2-4.1l2.2-0.1v-0.8c0-1-0.2-1.7-0.6-2.2s-1.1-0.7-2-0.7c-0.7,0-1.3,0.1-1.9,0.3s-1.2,0.4-1.7,0.7l-0.6-1.6
		c0.6-0.3,1.4-0.6,2.1-0.8s1.5-0.3,2.3-0.3c1.6,0,2.7,0.3,3.5,1s1.1,1.8,1.1,3.3v8.8H54.5z M50.2,121.9c1.2,0,2.1-0.3,2.8-1
		s1-1.5,1-2.7V117l-1.9,0.1c-1.5,0.1-2.6,0.3-3.2,0.7s-1,1.1-1,2c0,0.7,0.2,1.2,0.6,1.5S49.4,121.9,50.2,121.9z"/>
	<path class="st1" d="M66.1,123.6c-1.7,0-3.1-0.6-4-1.9H62l0,0.5c0.1,0.6,0.1,1.2,0.1,1.6v5.3H60v-18.6h1.7l0.3,1.8h0.1
		c0.5-0.7,1.1-1.2,1.7-1.5s1.4-0.5,2.3-0.5c1.7,0,3,0.6,3.9,1.7s1.4,2.8,1.4,4.9c0,2.1-0.5,3.7-1.4,4.9S67.8,123.6,66.1,123.6z
		 M65.8,112c-1.3,0-2.2,0.4-2.8,1.1s-0.9,1.8-0.9,3.4v0.4c0,1.7,0.3,3,0.9,3.8s1.5,1.2,2.8,1.2c1.1,0,1.9-0.4,2.5-1.3
		s0.9-2.1,0.9-3.7c0-1.6-0.3-2.8-0.9-3.6S66.9,112,65.8,112z"/>
	<path class="st1" d="M76.9,123.3h-2.1v-18.2h2.1V123.3z"/>
	<path class="st1" d="M80.8,107c0-0.5,0.1-0.8,0.4-1s0.5-0.3,0.9-0.3c0.3,0,0.6,0.1,0.9,0.3s0.4,0.6,0.4,1c0,0.5-0.1,0.8-0.4,1
		s-0.5,0.3-0.9,0.3c-0.4,0-0.6-0.1-0.9-0.3S80.8,107.4,80.8,107z M83.1,123.3H81v-12.9h2.1V123.3z"/>
	<path class="st1" d="M89.3,116.7l0.7-0.9l0.8-1l4.1-4.3h2.5l-5.2,5.5l5.6,7.4h-2.5l-4.5-6l-1.5,1.3v4.7h-2.1v-18.2h2.1v9.5V116.7
		L89.3,116.7z"/>
	<path class="st1" d="M107.9,123.3l-0.4-1.8h-0.1c-0.6,0.8-1.3,1.3-1.9,1.6s-1.4,0.4-2.4,0.4c-1.3,0-2.3-0.3-3-1s-1.1-1.6-1.1-2.8
		c0-2.6,2.1-4,6.2-4.1l2.2-0.1v-0.8c0-1-0.2-1.7-0.6-2.2s-1.1-0.7-2-0.7c-0.7,0-1.3,0.1-1.9,0.3s-1.2,0.4-1.7,0.7l-0.6-1.6
		c0.6-0.3,1.4-0.6,2.1-0.8s1.5-0.3,2.3-0.3c1.6,0,2.7,0.3,3.5,1s1.1,1.8,1.1,3.3v8.8H107.9z M103.6,121.9c1.2,0,2.1-0.3,2.8-1
		s1-1.5,1-2.7V117l-1.9,0.1c-1.5,0.1-2.6,0.3-3.2,0.7s-1,1.1-1,2c0,0.7,0.2,1.2,0.6,1.5S102.9,121.9,103.6,121.9z"/>
	<path class="st1" d="M121.8,119.8c0,1.2-0.4,2.1-1.3,2.8s-2.2,1-3.8,1c-1.7,0-3-0.3-4-0.8v-1.9c1.4,0.7,2.8,1,4.1,1
		c1.1,0,1.8-0.2,2.3-0.5s0.7-0.8,0.7-1.4c0-0.5-0.2-0.9-0.7-1.3s-1.3-0.8-2.5-1.2c-1.2-0.5-2.1-0.9-2.6-1.2s-0.9-0.7-1.1-1.1
		s-0.3-0.9-0.3-1.5c0-1.1,0.4-1.9,1.3-2.5s2-0.9,3.5-0.9c1.5,0,2.8,0.3,4.1,0.9l-0.7,1.7c-1.3-0.5-2.5-0.8-3.5-0.8
		c-0.9,0-1.5,0.1-2,0.4s-0.7,0.7-0.7,1.1c0,0.5,0.2,0.9,0.6,1.2s1.3,0.7,2.7,1.3c1.1,0.4,1.9,0.8,2.4,1.1s0.9,0.7,1.1,1.2
		S121.8,119.2,121.8,119.8z"/>
	<path class="st1" d="M124.8,107c0-0.5,0.1-0.8,0.4-1s0.5-0.3,0.9-0.3c0.3,0,0.6,0.1,0.9,0.3s0.4,0.6,0.4,1c0,0.5-0.1,0.8-0.4,1
		s-0.5,0.3-0.9,0.3c-0.4,0-0.6-0.1-0.9-0.3S124.8,107.4,124.8,107z M127.1,123.3H125v-12.9h2.1V123.3z"/>
	<path class="st1" d="M143.5,110.3c1.7,0,3,0.6,3.9,1.8s1.4,2.8,1.4,4.9c0,2.1-0.5,3.8-1.4,4.9s-2.2,1.7-3.9,1.7
		c-0.9,0-1.6-0.2-2.3-0.5s-1.2-0.8-1.7-1.4h-0.2c-0.2,0.9-0.4,1.5-0.4,1.6h-1.5v-18.2h2.1v4.4c0,0.9,0,1.8-0.1,2.6h0.1
		C140.4,110.9,141.7,110.3,143.5,110.3z M143.1,112c-1.3,0-2.2,0.4-2.8,1.1s-0.8,2-0.8,3.7v0.1c0,1.8,0.3,3,0.9,3.8s1.5,1.1,2.8,1.1
		c1.2,0,2-0.4,2.6-1.3s0.8-2.1,0.8-3.7c0-1.6-0.3-2.8-0.9-3.7S144.3,112,143.1,112z"/>
	<path class="st1" d="M157.6,123.6c-1.9,0-3.4-0.6-4.5-1.8s-1.6-2.8-1.6-4.8c0-2.1,0.5-3.7,1.5-4.9s2.4-1.8,4.1-1.8
		c1.6,0,2.9,0.5,3.9,1.6s1.4,2.5,1.4,4.2v1.3h-8.8c0,1.5,0.4,2.6,1.1,3.3s1.7,1.1,3,1.1c0.7,0,1.3-0.1,2-0.2s1.3-0.4,2.2-0.7v1.9
		c-0.7,0.3-1.4,0.5-2,0.6S158.5,123.6,157.6,123.6z M157.1,112c-1,0-1.8,0.3-2.4,1s-0.9,1.6-1,2.7h6.6c0-1.2-0.3-2.1-0.8-2.7
		S158.1,112,157.1,112z"/>
	<path class="st1" d="M167.8,123.3h-2.1v-18.2h2.1V123.3z"/>
	<path class="st1" d="M179.8,123.3l-0.4-1.8h-0.1c-0.6,0.8-1.3,1.3-1.9,1.6s-1.4,0.4-2.4,0.4c-1.3,0-2.3-0.3-3-1s-1.1-1.6-1.1-2.8
		c0-2.6,2.1-4,6.2-4.1l2.2-0.1v-0.8c0-1-0.2-1.7-0.6-2.2s-1.1-0.7-2-0.7c-0.7,0-1.3,0.1-1.9,0.3s-1.2,0.4-1.7,0.7l-0.6-1.6
		c0.6-0.3,1.4-0.6,2.1-0.8s1.5-0.3,2.3-0.3c1.6,0,2.7,0.3,3.5,1s1.1,1.8,1.1,3.3v8.8H179.8z M175.5,121.9c1.2,0,2.1-0.3,2.8-1
		s1-1.5,1-2.7V117l-1.9,0.1c-1.5,0.1-2.6,0.3-3.2,0.7s-1,1.1-1,2c0,0.7,0.2,1.2,0.6,1.5S174.7,121.9,175.5,121.9z"/>
	<path class="st1" d="M194.1,123.3v-8.2c0-1-0.2-1.8-0.7-2.3s-1.2-0.8-2.2-0.8c-1.3,0-2.3,0.4-2.9,1.1s-0.9,1.9-0.9,3.6v6.7h-2.1
		v-12.9h1.7l0.3,1.8h0.1c0.4-0.6,1-1.1,1.7-1.5s1.5-0.5,2.4-0.5c1.6,0,2.8,0.4,3.5,1.1s1.1,2,1.1,3.6v8.4H194.1z"/>
	<path class="st1" d="M198.7,129.1c-0.7,0-1.4-0.1-1.9-0.3v-1.7c0.5,0.2,1.1,0.2,1.6,0.2c0.6,0,1.1-0.2,1.3-0.5s0.4-0.8,0.4-1.5
		v-14.9h2.1v14.8c0,1.3-0.3,2.2-0.9,2.9S199.8,129.1,198.7,129.1z M200,107c0-0.5,0.1-0.8,0.4-1s0.5-0.3,0.9-0.3
		c0.3,0,0.6,0.1,0.9,0.3s0.4,0.6,0.4,1c0,0.5-0.1,0.8-0.4,1s-0.5,0.3-0.9,0.3c-0.4,0-0.6-0.1-0.9-0.3S200,107.4,200,107z"/>
	<path class="st1" d="M214.3,123.3l-0.4-1.8h-0.1c-0.6,0.8-1.3,1.3-1.9,1.6s-1.4,0.4-2.4,0.4c-1.3,0-2.3-0.3-3-1s-1.1-1.6-1.1-2.8
		c0-2.6,2.1-4,6.2-4.1l2.2-0.1v-0.8c0-1-0.2-1.7-0.6-2.2s-1.1-0.7-2-0.7c-0.7,0-1.3,0.1-1.9,0.3s-1.2,0.4-1.7,0.7l-0.6-1.6
		c0.6-0.3,1.4-0.6,2.1-0.8s1.5-0.3,2.3-0.3c1.6,0,2.7,0.3,3.5,1s1.1,1.8,1.1,3.3v8.8H214.3z M210,121.9c1.2,0,2.1-0.3,2.8-1
		s1-1.5,1-2.7V117l-1.9,0.1c-1.5,0.1-2.6,0.3-3.2,0.7s-1,1.1-1,2c0,0.7,0.2,1.2,0.6,1.5S209.2,121.9,210,121.9z"/>
	<path class="st1" d="M108.8,145.7c0,2.1-0.5,3.7-1.6,4.9s-2.5,1.8-4.4,1.8c-1.2,0-2.2-0.3-3.1-0.8s-1.6-1.3-2.1-2.3
		s-0.7-2.2-0.7-3.5c0-2.1,0.5-3.7,1.6-4.9s2.5-1.8,4.4-1.8c1.8,0,3.3,0.6,4.3,1.8S108.8,143.6,108.8,145.7z M99.1,145.7
		c0,1.6,0.3,2.8,1,3.7s1.6,1.3,2.8,1.3c1.2,0,2.2-0.4,2.8-1.3s1-2.1,1-3.7s-0.3-2.8-1-3.7s-1.6-1.2-2.8-1.2
		C100.4,140.8,99.1,142.4,99.1,145.7z"/>
	<path class="st1" d="M120.9,152.1v-8.2c0-1-0.2-1.8-0.7-2.3s-1.2-0.8-2.2-0.8c-1.3,0-2.3,0.4-2.9,1.1s-0.9,1.9-0.9,3.6v6.7h-2.1
		v-12.9h1.7l0.3,1.8h0.1c0.4-0.6,1-1.1,1.7-1.5s1.5-0.5,2.4-0.5c1.6,0,2.8,0.4,3.5,1.1s1.1,2,1.1,3.6v8.4H120.9z"/>
	<path class="st1" d="M129.1,152.1H127v-18.2h2.1V152.1z"/>
	<path class="st1" d="M133,135.8c0-0.5,0.1-0.8,0.4-1s0.5-0.3,0.9-0.3c0.3,0,0.6,0.1,0.9,0.3s0.4,0.6,0.4,1c0,0.5-0.1,0.8-0.4,1
		s-0.5,0.3-0.9,0.3c-0.4,0-0.6-0.1-0.9-0.3S133,136.2,133,135.8z M135.3,152.1h-2.1v-12.9h2.1V152.1z"/>
	<path class="st1" d="M148.2,152.1v-8.2c0-1-0.2-1.8-0.7-2.3s-1.2-0.8-2.2-0.8c-1.3,0-2.3,0.4-2.9,1.1s-0.9,1.9-0.9,3.6v6.7h-2.1
		v-12.9h1.7l0.3,1.8h0.1c0.4-0.6,1-1.1,1.7-1.5s1.5-0.5,2.4-0.5c1.6,0,2.8,0.4,3.5,1.1s1.1,2,1.1,3.6v8.4H148.2z"/>
	<path class="st1" d="M159.7,152.4c-1.9,0-3.4-0.6-4.5-1.8s-1.6-2.8-1.6-4.8c0-2.1,0.5-3.7,1.5-4.9s2.4-1.8,4.1-1.8
		c1.6,0,2.9,0.5,3.9,1.6s1.4,2.5,1.4,4.2v1.3h-8.8c0,1.5,0.4,2.6,1.1,3.3s1.7,1.1,3,1.1c0.7,0,1.3-0.1,2-0.2s1.3-0.4,2.2-0.7v1.9
		c-0.7,0.3-1.4,0.5-2,0.6S160.6,152.4,159.7,152.4z M159.2,140.8c-1,0-1.8,0.3-2.4,1s-0.9,1.6-1,2.7h6.6c0-1.2-0.3-2.1-0.8-2.7
		S160.2,140.8,159.2,140.8z"/>
	<path class="st1" d="M172,145.6c0,2.1-0.3,4-0.9,5.7s-1.5,3.3-2.6,4.6h-2c1.1-1.5,1.9-3.1,2.5-4.9s0.9-3.6,0.9-5.5
		c0-1.9-0.3-3.8-0.8-5.6s-1.4-3.5-2.5-5h2c1.1,1.4,2,3,2.6,4.8S172,143.5,172,145.6z"/>
</g>
</svg>