<!-- Generator: Adobe Illustrator 19.1.0, SVG Export Plug-In  -->
<svg version="1.1"
	 xmlns="http://www.w3.org/2000/svg" xmlns:xlink="http://www.w3.org/1999/xlink" xmlns:a="http://ns.adobe.com/AdobeSVGViewerExtensions/3.0/"
	 x="0px" y="0px" width="232.7px" height="276.1px" viewBox="0 0 232.7 276.1"
	 style="overflow:scroll;enable-background:new 0 0 232.7 276.1;" xml:space="preserve">
<style type="text/css">
	.st0{fill:none;stroke:#33CCCC;stroke-width:4.9002;stroke-linecap:round;stroke-linejoin:round;stroke-miterlimit:10;}
	.st1{fill:#FF6633;}
	.st2{fill:#086A87;}
</style>
<defs>
</defs>
<rect x="2.5" y="2.5" class="st0" width="227.8" height="271.2"/>
<g>
	<path class="st1" d="M110.8,222.2v-10.2c-13.3-1.8-19.6-11.5-20.5-19.6l11.9-2.9c0.6,6,4.6,11.6,13.4,11.6c6.2,0,9.8-3,9.8-7.2
		c0-3.3-2.4-5.7-7.2-6.8l-8.8-1.9c-10.3-2.3-16.7-8.8-16.7-18c0-10.1,7.8-17.6,18.1-19.2v-10.2h9.8v10.5c11,2,15.8,9.7,17.1,16.1
		l-11.8,3.3c-0.6-3.3-3.1-8.9-10.9-8.9c-6.1,0-9.5,3.5-9.5,7.5c0,3,2.1,5.5,6.6,6.4l8.7,2c12,2.7,17.5,9.8,17.5,18.5
		c0,8.8-6.3,16.9-17.8,18.7v10.3H110.8z"/>
</g>
<g>
	<path class="st2" d="M23.1,48.8v8H19V35.5h7.9c4.2,0,7,2.8,7,6.6c0,3.9-2.8,6.6-7,6.6H23.1z M26.4,45.2c2.1,0,3.3-1.2,3.3-3
		c0-1.9-1.3-3.1-3.3-3.1h-3.3v6.1H26.4z"/>
	<path class="st2" d="M49.1,52.6c-0.8,2.6-3.1,4.7-6.7,4.7c-4,0-7.6-2.9-7.6-7.9c0-4.7,3.5-7.8,7.3-7.8c4.6,0,7.3,2.9,7.3,7.6
		c0,0.6-0.1,1.2-0.1,1.2H38.7c0.1,1.9,1.7,3.4,3.7,3.4c1.9,0,2.9-0.9,3.4-2.3L49.1,52.6z M45.4,47.8c-0.1-1.5-1-2.9-3.3-2.9
		c-2.1,0-3.2,1.6-3.3,2.9H45.4z"/>
	<path class="st2" d="M52.5,56.8V42.1h3.8v1.8c0.8-1.4,2.7-2.2,4.3-2.2c2,0,3.6,0.9,4.4,2.5c1.2-1.8,2.7-2.5,4.7-2.5
		c2.7,0,5.3,1.6,5.3,5.6v9.6h-3.9v-8.8c0-1.6-0.8-2.8-2.6-2.8c-1.7,0-2.7,1.3-2.7,2.9v8.6h-4v-8.8c0-1.6-0.8-2.8-2.6-2.8
		c-1.7,0-2.8,1.3-2.8,2.9v8.6H52.5z"/>
	<path class="st2" d="M79.1,56.8V35.1H83v8.6c0.7-1,2.3-2,4.5-2c4.3,0,6.8,3.3,6.8,7.7c0,4.5-2.8,7.8-7,7.8c-2,0-3.6-0.9-4.4-2.2
		v1.8H79.1z M86.6,45.2c-2,0-3.7,1.5-3.7,4.2c0,2.7,1.7,4.2,3.7,4.2c2,0,3.7-1.5,3.7-4.2S88.7,45.2,86.6,45.2z"/>
	<path class="st2" d="M110.7,52.6c-0.8,2.6-3.1,4.7-6.7,4.7c-4,0-7.6-2.9-7.6-7.9c0-4.7,3.5-7.8,7.3-7.8c4.6,0,7.3,2.9,7.3,7.6
		c0,0.6-0.1,1.2-0.1,1.2h-10.6c0.1,1.9,1.7,3.4,3.7,3.4c1.9,0,2.9-0.9,3.4-2.3L110.7,52.6z M107,47.8c-0.1-1.5-1-2.9-3.3-2.9
		c-2.1,0-3.2,1.6-3.3,2.9H107z"/>
	<path class="st2" d="M114,56.8V35.1h4v21.7H114z"/>
	<path class="st2" d="M125.7,48.3l3.6-0.5c0.8-0.1,1.1-0.5,1.1-1c0-1-0.8-1.9-2.5-1.9c-1.7,0-2.7,1.1-2.8,2.4l-3.5-0.8
		c0.2-2.3,2.4-4.9,6.3-4.9c4.7,0,6.4,2.6,6.4,5.6v7.3c0,0.8,0.1,1.8,0.2,2.3h-3.7c-0.1-0.4-0.1-1.2-0.1-1.8
		c-0.8,1.2-2.2,2.2-4.3,2.2c-3.1,0-5.1-2.1-5.1-4.4C121.3,50.2,123.2,48.7,125.7,48.3z M130.4,50.8v-0.7l-3.3,0.5
		c-1,0.1-1.8,0.7-1.8,1.9c0,0.9,0.6,1.7,1.9,1.7C128.9,54.3,130.4,53.5,130.4,50.8z"/>
	<path class="st2" d="M142.4,56.8h-4V42.1h3.9v1.8c0.9-1.5,2.7-2.2,4.3-2.2c3.7,0,5.3,2.6,5.3,5.8v9.3h-4v-8.6
		c0-1.6-0.8-2.9-2.7-2.9c-1.7,0-2.8,1.3-2.8,3.1V56.8z"/>
	<path class="st2" d="M155.9,42.1h4v16c0,2.8-1.8,4.9-4.6,4.9c-1.2,0-2-0.2-2.3-0.3v-3.3c0.3,0.1,0.7,0.1,1.2,0.1
		c1.2,0,1.6-0.7,1.6-1.7V42.1z M157.9,34.7c1.4,0,2.5,1.1,2.5,2.5c0,1.4-1.1,2.4-2.5,2.4c-1.4,0-2.5-1.1-2.5-2.4
		C155.4,35.8,156.5,34.7,157.9,34.7z"/>
	<path class="st2" d="M167.6,48.3l3.6-0.5c0.8-0.1,1.1-0.5,1.1-1c0-1-0.8-1.9-2.5-1.9c-1.7,0-2.7,1.1-2.8,2.4l-3.5-0.8
		c0.2-2.3,2.4-4.9,6.3-4.9c4.7,0,6.4,2.6,6.4,5.6v7.3c0,0.8,0.1,1.8,0.2,2.3h-3.7c-0.1-0.4-0.1-1.2-0.1-1.8
		c-0.8,1.2-2.2,2.2-4.4,2.2c-3.1,0-5.1-2.1-5.1-4.4C163.2,50.2,165.2,48.7,167.6,48.3z M172.4,50.8v-0.7l-3.3,0.5
		c-1,0.1-1.8,0.7-1.8,1.9c0,0.9,0.6,1.7,1.9,1.7C170.8,54.3,172.4,53.5,172.4,50.8z"/>
	<path class="st2" d="M183.7,48.3l3.6-0.5c0.8-0.1,1.1-0.5,1.1-1c0-1-0.8-1.9-2.5-1.9c-1.7,0-2.7,1.1-2.8,2.4l-3.5-0.8
		c0.2-2.3,2.4-4.9,6.3-4.9c4.7,0,6.4,2.6,6.4,5.6v7.3c0,0.8,0.1,1.8,0.2,2.3h-3.7c-0.1-0.4-0.1-1.2-0.1-1.8
		c-0.8,1.2-2.2,2.2-4.3,2.2c-3.1,0-5.1-2.1-5.1-4.4C179.3,50.2,181.3,48.7,183.7,48.3z M188.5,50.8v-0.7l-3.3,0.5
		c-1,0.1-1.8,0.7-1.8,1.9c0,0.9,0.6,1.7,1.9,1.7C186.9,54.3,188.5,53.5,188.5,50.8z"/>
	<path class="st2" d="M200.4,56.8h-4V42.1h3.9v1.8c0.9-1.5,2.7-2.2,4.3-2.2c3.7,0,5.3,2.6,5.3,5.8v9.3h-4v-8.6
		c0-1.6-0.8-2.9-2.7-2.9c-1.7,0-2.8,1.3-2.8,3.1V56.8z"/>
	<path class="st2" d="M27.7,80c-0.4-0.1-0.8-0.1-1.2-0.1c-2,0-3.8,1-3.8,4.2v6.8h-4V76.1h3.9v2.2c0.9-2,2.9-2.3,4.2-2.3
		c0.3,0,0.6,0,0.9,0.1V80z"/>
	<path class="st2" d="M34.1,82.3l3.6-0.5c0.8-0.1,1.1-0.5,1.1-1c0-1-0.8-1.9-2.5-1.9c-1.7,0-2.7,1.1-2.8,2.4L30,80.5
		c0.2-2.3,2.4-4.9,6.3-4.9c4.7,0,6.4,2.6,6.4,5.6v7.3c0,0.8,0.1,1.8,0.2,2.3h-3.7c-0.1-0.4-0.1-1.2-0.1-1.8
		c-0.8,1.2-2.2,2.2-4.3,2.2c-3.1,0-5.1-2.1-5.1-4.4C29.7,84.2,31.6,82.7,34.1,82.3z M38.8,84.8v-0.7l-3.3,0.5
		c-1,0.2-1.8,0.7-1.8,1.9c0,0.9,0.6,1.7,1.9,1.7C37.3,88.3,38.8,87.5,38.8,84.8z"/>
	<path class="st2" d="M51.6,76.1h3v3.5h-3v6.2c0,1.3,0.6,1.7,1.7,1.7c0.5,0,1-0.1,1.2-0.1v3.3c-0.4,0.2-1.1,0.4-2.2,0.4
		c-2.9,0-4.7-1.7-4.7-4.6v-6.9h-2.7v-3.5h0.8c1.6,0,2.3-1,2.3-2.3v-2.1h3.6V76.1z"/>
	<path class="st2" d="M61.5,82.3l3.6-0.5c0.8-0.1,1.1-0.5,1.1-1c0-1-0.8-1.9-2.5-1.9c-1.7,0-2.7,1.1-2.8,2.4l-3.5-0.8
		c0.2-2.3,2.4-4.9,6.3-4.9c4.7,0,6.4,2.6,6.4,5.6v7.3c0,0.8,0.1,1.8,0.2,2.3h-3.7c-0.1-0.4-0.1-1.2-0.1-1.8
		c-0.8,1.2-2.2,2.2-4.3,2.2c-3.1,0-5.1-2.1-5.1-4.4C57.1,84.2,59.1,82.7,61.5,82.3z M66.3,84.8v-0.7l-3.3,0.5
		c-1,0.2-1.8,0.7-1.8,1.9c0,0.9,0.6,1.7,1.9,1.7C64.7,88.3,66.3,87.5,66.3,84.8z"/>
	<path class="st2" d="M73.4,83.7v-3.5h8.7v3.5H73.4z"/>
	<path class="st2" d="M94.6,80c-0.4-0.1-0.8-0.1-1.2-0.1c-2,0-3.8,1-3.8,4.2v6.8h-4V76.1h3.9v2.2c0.9-2,2.9-2.3,4.2-2.3
		c0.3,0,0.6,0,0.9,0.1V80z"/>
	<path class="st2" d="M101,82.3l3.6-0.5c0.8-0.1,1.1-0.5,1.1-1c0-1-0.8-1.9-2.5-1.9c-1.7,0-2.7,1.1-2.8,2.4l-3.5-0.8
		c0.2-2.3,2.4-4.9,6.3-4.9c4.7,0,6.4,2.6,6.4,5.6v7.3c0,0.8,0.1,1.8,0.2,2.3h-3.7c-0.1-0.4-0.1-1.2-0.1-1.8
		c-0.8,1.2-2.2,2.2-4.3,2.2c-3.1,0-5.1-2.1-5.1-4.4C96.6,84.2,98.6,82.7,101,82.3z M105.8,84.8v-0.7l-3.3,0.5
		c-1,0.2-1.8,0.7-1.8,1.9c0,0.9,0.6,1.7,1.9,1.7C104.2,88.3,105.8,87.5,105.8,84.8z"/>
	<path class="st2" d="M118.5,76.1h3v3.5h-3v6.2c0,1.3,0.6,1.7,1.7,1.7c0.5,0,1-0.1,1.2-0.1v3.3c-0.4,0.2-1.1,0.4-2.2,0.4
		c-2.9,0-4.7-1.7-4.7-4.6v-6.9h-2.7v-3.5h0.8c1.6,0,2.3-1,2.3-2.3v-2.1h3.6V76.1z"/>
	<path class="st2" d="M128.5,82.3l3.6-0.5c0.8-0.1,1.1-0.5,1.1-1c0-1-0.8-1.9-2.5-1.9c-1.7,0-2.7,1.1-2.8,2.4l-3.5-0.8
		c0.2-2.3,2.4-4.9,6.3-4.9c4.7,0,6.4,2.6,6.4,5.6v7.3c0,0.8,0.1,1.8,0.2,2.3h-3.7c-0.1-0.4-0.1-1.2-0.1-1.8
		c-0.8,1.2-2.2,2.2-4.3,2.2c-3.1,0-5.1-2.1-5.1-4.4C124.1,84.2,126,82.7,128.5,82.3z M133.2,84.8v-0.7l-3.3,0.5
		c-1,0.2-1.8,0.7-1.8,1.9c0,0.9,0.6,1.7,1.9,1.7C131.6,88.3,133.2,87.5,133.2,84.8z"/>
</g>
</svg>