<!-- Generator: Adobe Illustrator 19.1.0, SVG Export Plug-In  -->
<svg version="1.1"
	 xmlns="http://www.w3.org/2000/svg" xmlns:xlink="http://www.w3.org/1999/xlink" xmlns:a="http://ns.adobe.com/AdobeSVGViewerExtensions/3.0/"
	 x="0px" y="0px" width="249.4px" height="220.3px" viewBox="0 0 249.4 220.3"
	 style="overflow:scroll;enable-background:new 0 0 249.4 220.3;" xml:space="preserve">
<style type="text/css">
	.st0{fill:#FFFFFF;stroke:#FF6633;stroke-width:1.9787;stroke-linecap:round;stroke-linejoin:round;stroke-miterlimit:10;}
	.st1{fill:#FF6633;}
	.st2{fill:none;stroke:#FF6633;stroke-width:1.9787;stroke-linecap:round;stroke-linejoin:round;stroke-miterlimit:10;}
	.st3{fill:#CBCACC;stroke:#CBCACC;stroke-width:2.9673;stroke-miterlimit:10;}
	.st4{fill:#CBCACC;stroke:#CBCACC;stroke-width:1.9787;stroke-miterlimit:10;}
	.st5{fill:#33CCCC;stroke:#33CCCC;stroke-width:1.9787;stroke-linecap:round;stroke-linejoin:round;stroke-miterlimit:10;}
	.st6{fill:#E6E6E6;stroke:#FF6633;stroke-width:1.9787;stroke-linecap:round;stroke-linejoin:round;stroke-miterlimit:10;}
	.st7{fill:#086A87;stroke:#086A87;stroke-width:1.9787;stroke-linecap:round;stroke-linejoin:round;stroke-miterlimit:10;}
	.st8{fill:#28AFAC;stroke:#28AFAC;stroke-width:1.8934;stroke-linecap:round;stroke-linejoin:round;stroke-miterlimit:10;}
	.st9{fill:#CBCACC;}
	.st10{fill:#E3E3E3;stroke:#E3E3E3;stroke-width:1.9787;stroke-linecap:round;stroke-linejoin:round;stroke-miterlimit:10;}
	.st11{fill:#E3E3E3;stroke:#FF6633;stroke-width:2;stroke-miterlimit:10;}
	.st12{fill:#33CCCC;stroke:#33CCCC;stroke-width:4.5051;stroke-linecap:round;stroke-linejoin:round;stroke-miterlimit:10;}
</style>
<defs>
</defs>
<g>
	<rect x="113.4" y="50.9" class="st0" width="25.4" height="23.7"/>
	<path class="st0" d="M154.4,20.5l-1.1,9.8l-0.5,15.3l0,0.1c0,0.2,0,0.4-0.1,0.6c-0.3,2.6-1.8,9.4-8.1,14.4
		c-7.7,6.1-18.9,5.9-26.5-0.3c-4.2-3.4-8.1-8.8-9.2-17.2l-1.3-11.8l-1.1-9.8h0c0-11.4,11-20.7,24.5-20.7c13.5,0,24.5,9.2,24.5,20.7
		L154.4,20.5z"/>
	<polygon class="st1" points="136.2,37.2 136.2,46.8 141.5,46.8 	"/>
	<path class="st2" d="M145.6,44.9c0,4-3.3,7.3-7.3,7.3c-4,0-7.3-3.3-7.3-7.3"/>
	<path class="st1" d="M155.4,21.6v-1.4l-0.2,0.1C153.9,9.5,143.6,1,131,1c-1.3,0-2.5,0.1-3.8,0.3L127.1,1
		C102,3.9,99.6,27.3,99.6,27.3v56.8h13.9v-51h12.7h28.3h1h1.4V21.6H155.4z"/>
	<rect x="93.9" y="73.4" class="st3" width="55.2" height="69.6"/>
	<rect x="100.6" y="114.8" class="st4" width="55.2" height="31"/>
	<path class="st0" d="M164.9,131.6l-13.5-13.5V80h-19.5v17.6c0,12.2-5.6,23.7-15.2,31.3"/>
	<path class="st5" d="M155.4,198.3h-53.3V140c0,0,17.7-11.9,25.1-23.7c0,0-0.2,20.1,28.2,20.1V198.3"/>
	<path class="st6" d="M77.6,121.2c0,0,2.1,6.1,10.7,6.1c0,0,15.4,4.1,13.8,22.9v48.2H40.8v-77.1H77.6z"/>
	<rect x="37.9" y="80.7" class="st0" width="39.7" height="40.4"/>
	<path class="st0" d="M99.3,86.5c0,0-0.3,17.6-21.7,20.9c0,0-19.5-2.5-21.9-22.9l-2.5-21.5h0c0.1-11.3,11-20.5,24.4-20.5
		c13.4,0,24.3,9.2,24.4,20.5h0l-2.8,24.5"/>
	<polygon class="st1" points="85.4,76 85.4,85.6 90.4,85.6 	"/>
	<path class="st7" d="M63.6,61.5c1,6.8,0.6,18.4-12,23v20.1c0,0-0.7,14.8-10,16.6c-9.2,1.8-10.7,13.3-10.7,23.3s0,53.9,0,53.9H1
		v-49.1c0,0,0.9-20.9,20-23.2c5.9-0.7,9.7-6.8,7.5-12.3c0-0.1-0.1-0.2-0.1-0.3c-3.6-8.5-20.5-45.2,9.9-55.3c4.5-1.5,8.1-5.1,9.4-9.7
		c1.8-6.4,7.9-14.4,26.8-14.4c31.4,0,27.6,29,27.6,29s-11.4,22-35.9-2.8C65.1,59.3,63.4,60.1,63.6,61.5z"/>
	<path class="st1" d="M73.2,78.7c0-2,1.6-3.6,3.6-3.6c2,0,3.6,1.6,3.6,3.6H73.2z"/>
	<path class="st1" d="M90.4,78.7c0-2,1.6-3.6,3.6-3.6c2,0,3.6,1.6,3.6,3.6H90.4z"/>
	<path class="st0" d="M178,98.1V71.4h-45.1v25.3c2.3,19.7,16.2,25.3,25.1,26.8c5.8,1,11.9-0.9,15.8-5.4c2.4-2.7,4.3-6.7,4.3-12.3
		V98.1z"/>
	<polygon class="st1" points="162.3,88.4 162.3,102.6 170.1,102.6 	"/>
	<circle class="st1" cx="155.7" cy="92.4" r="2.3"/>
	<circle class="st1" cx="172.6" cy="92.4" r="2.3"/>
	<circle class="st1" cx="128.7" cy="39.5" r="2.3"/>
	<circle class="st1" cx="145.6" cy="39.5" r="2.3"/>
	<path class="st0" d="M149.2,95.5c0,0-2,14.6,15.6,12.7"/>
	<path class="st0" d="M72.7,81.4c0,0-1.8,13,13.9,11.3"/>
	<path class="st1" d="M164.2,114.4c0,1.1-0.9,1.9-1.9,1.9s-1.9-0.9-1.9-1.9H164.2z"/>
	<path class="st0" d="M128.8,80c-2.3,0-4.1,1.8-4.1,4.1c0,6.2,8.2,10.7,8.2,10.7V84.1C132.9,81.8,131,80,128.8,80z"/>
	<path class="st5" d="M174.9,198.3v-58.1l-10-8.6c1.2,3.4-9.5,4.8-9.5,4.8v61.9H174.9"/>
	<path class="st8" d="M114.5,126.9v52.6H174v18.8H95.4v-48.8C95.4,149.5,95.9,126.9,114.5,126.9z"/>
	<circle class="st0" cx="51.6" cy="74.9" r="5.6"/>
	<line class="st0" x1="47.5" y1="122.3" x2="47.5" y2="186.6"/>
	<line class="st0" x1="51.6" y1="122.3" x2="51.6" y2="186.6"/>
	<line class="st0" x1="55.6" y1="122.3" x2="55.6" y2="186.6"/>
	<line class="st0" x1="59.7" y1="122.3" x2="59.7" y2="186.6"/>
	<line class="st0" x1="63.7" y1="122.3" x2="63.7" y2="186.6"/>
	<line class="st0" x1="67.8" y1="122.3" x2="67.8" y2="186.6"/>
	<line class="st0" x1="71.9" y1="122.3" x2="71.9" y2="186.6"/>
	<line class="st0" x1="75.9" y1="122.3" x2="75.9" y2="186.6"/>
	<line class="st0" x1="80" y1="125.3" x2="80" y2="186.6"/>
	<line class="st0" x1="84" y1="127.2" x2="84" y2="186.6"/>
	<line class="st0" x1="88.1" y1="127.2" x2="88.1" y2="186.6"/>
	<path class="st0" d="M27.7,198.3v-56.1c0,0,1.9-21,14.8-21v65.4h51.8c0,0,21.4-15.2,33.1,11.7H27.7z"/>
	<polygon class="st7" points="132.9,82.6 132.9,94 138.9,100 138.9,82.6 	"/>
	<path class="st7" d="M129.5,82.6h47.3c5,0,9.9-1.9,13.4-5.5c4-4.3,7.2-11.5,3.5-23.4c0,0,1.4,13.7-7.9,13.7
		c-9.4,0-22.1-20.8-42.6-13.7C143.2,53.7,123.6,60.8,129.5,82.6z"/>
	<path class="st0" d="M164.9,131.6c0,0-26.7,14.1-37.7-15.3"/>
	<rect x="209.4" y="120.7" class="st0" width="23.1" height="26.7"/>
	<polygon class="st9" points="236.9,136.6 249.4,150.5 249.4,197.3 208.1,197.3 208.1,149 218,136.6 	"/>
	<path class="st4" d="M231.6,89.4h-42.2v-4h0c0.1-12.7,10.9-23,24.2-23c13.3,0,24.2,10.3,24.2,23h0v12.1h-6.2V89.4z"/>
	<path class="st0" d="M189.3,89.4h42.2v8.1h6.2V112h0c0,0,0,0.1,0,0.1c0,12.8-10.8,23.1-24.2,23.1c-13.4,0-24.2-10.3-24.2-23.1
		c0,0,0-0.1,0-0.1h0V89.4z"/>
	<path class="st5" d="M225.1,198.1h-51.6c0.3-20.9,11.3-30,25.4-30C212.9,168.1,224.8,177.2,225.1,198.1z"/>
	<circle class="st0" cx="196.1" cy="165.1" r="26.8"/>
	<circle class="st0" cx="221.6" cy="161.6" r="5.6"/>
	<circle class="st0" cx="235.2" cy="101.7" r="5.6"/>
	<polygon class="st1" points="188,158.9 188,168.6 178.4,168.6 	"/>
	<circle class="st1" cx="197.6" cy="160.9" r="2.8"/>
	<circle class="st1" cx="178.1" cy="161.6" r="2.8"/>
	<path class="st7" d="M208.1,141.1c0,0-6.5-1.9-8.5,5.5c-1.9,7.4-18.1,13.2-22.8,0C176.8,146.6,188,133.4,208.1,141.1z"/>
	<polygon class="st1" points="207.1,101.6 207.1,115.8 199.3,115.8 	"/>
	<circle class="st1" cx="213.6" cy="105.6" r="2.3"/>
	<circle class="st1" cx="196.7" cy="105.6" r="2.3"/>
	<path class="st0" d="M221.3,107.8c0,0,2,14.6-15.6,12.7"/>
	<path class="st0" d="M206.8,160.7c0,0,2,14.6-15.6,12.7"/>
	<circle class="st1" cx="195.8" cy="81.6" r="1.4"/>
	<circle class="st1" cx="201.3" cy="81.6" r="1.4"/>
	<circle class="st1" cx="198.6" cy="78.5" r="1.4"/>
	<polygon class="st10" points="236.9,138.3 218,138.3 218,143 241.2,143 	"/>
	<g>
		<path class="st11" d="M161.4,219.3H113c-0.7,0-1.2-0.6-1.2-1.2v-95c0-0.7,0.6-1.2,1.2-1.2h48.4c0.7,0,1.2,0.6,1.2,1.2v95
			C162.6,218.7,162.1,219.3,161.4,219.3z"/>
		<rect x="119.9" y="136.3" class="st12" width="34.5" height="60.2"/>
		<path class="st1" d="M143.2,128.5h-12.1c-0.5,0-1-0.4-1-1l0,0c0-0.5,0.4-1,1-1h12.1c0.5,0,1,0.4,1,1l0,0
			C144.2,128,143.8,128.5,143.2,128.5z"/>
		<circle class="st1" cx="137.2" cy="207.4" r="3.8"/>
	</g>
	<circle class="st0" cx="107.8" cy="42" r="5.6"/>
</g>
</svg>