<!-- Generator: Adobe Illustrator 19.1.0, SVG Export Plug-In  -->
<svg version="1.1"
	 xmlns="http://www.w3.org/2000/svg" xmlns:xlink="http://www.w3.org/1999/xlink" xmlns:a="http://ns.adobe.com/AdobeSVGViewerExtensions/3.0/"
	 x="0px" y="0px" width="159.8px" height="51.9px" viewBox="0 0 159.8 51.9"
	 style="overflow:scroll;enable-background:new 0 0 159.8 51.9;" xml:space="preserve">
<style type="text/css">
	.st0{fill:#086A87;}
</style>
<defs>
</defs>
<g>
	<path class="st0" d="M6.9,13.8l-0.5-1.3H6.3c-0.5,0.6-0.9,1-1.4,1.2S3.8,13.9,3,13.9c-0.9,0-1.7-0.3-2.2-0.8S0,11.8,0,10.8
		c0-1,0.4-1.8,1.1-2.3s1.8-0.8,3.3-0.8l1.7-0.1V7.2c0-1-0.5-1.5-1.5-1.5C3.8,5.7,2.9,6,1.8,6.4L0.9,4.6C2,4,3.3,3.7,4.7,3.7
		C6,3.7,7,4,7.7,4.6s1.1,1.4,1.1,2.6v6.5H6.9z M6.1,9.2l-1,0c-0.8,0-1.4,0.2-1.7,0.4s-0.6,0.7-0.6,1.2c0,0.8,0.4,1.1,1.3,1.1
		c0.6,0,1.1-0.2,1.5-0.5s0.6-0.8,0.6-1.4V9.2z"/>
	<path class="st0" d="M17,3.8c0.4,0,0.7,0,0.9,0.1l-0.2,2.5c-0.2-0.1-0.5-0.1-0.8-0.1c-0.9,0-1.5,0.2-2,0.7S14.2,8,14.2,8.8v5h-2.7
		V3.9h2l0.4,1.7h0.1c0.3-0.6,0.7-1,1.2-1.3S16.4,3.8,17,3.8z"/>
	<path class="st0" d="M24,13.9c-1.6,0-2.8-0.4-3.7-1.3s-1.3-2.1-1.3-3.7c0-1.6,0.4-2.9,1.2-3.8s2-1.3,3.4-1.3c1.4,0,2.5,0.4,3.2,1.2
		S28,6.8,28,8.2v1.3h-6.3c0,0.8,0.3,1.4,0.7,1.8s1,0.6,1.8,0.6c0.6,0,1.2-0.1,1.7-0.2s1.1-0.3,1.7-0.6v2.1c-0.5,0.2-1,0.4-1.5,0.5
		S24.7,13.9,24,13.9z M23.6,5.7c-0.6,0-1,0.2-1.3,0.5s-0.5,0.9-0.6,1.5h3.8c0-0.7-0.2-1.2-0.5-1.5S24.2,5.7,23.6,5.7z"/>
	<path class="st0" d="M38.8,13.9c-3.1,0-4.6-1.7-4.6-5c0-1.7,0.4-2.9,1.2-3.8s2-1.3,3.6-1.3c1.1,0,2.2,0.2,3.1,0.7l-0.8,2.1
		c-0.4-0.2-0.8-0.3-1.2-0.4s-0.7-0.2-1.1-0.2c-1.4,0-2.1,1-2.1,3c0,1.9,0.7,2.9,2.1,2.9c0.5,0,1-0.1,1.4-0.2s0.9-0.4,1.3-0.6v2.3
		c-0.4,0.3-0.9,0.5-1.3,0.6S39.5,13.9,38.8,13.9z"/>
	<path class="st0" d="M53,8.8c0,1.6-0.4,2.9-1.3,3.8s-2,1.4-3.5,1.4c-0.9,0-1.8-0.2-2.5-0.6s-1.3-1-1.7-1.8s-0.6-1.7-0.6-2.7
		c0-1.6,0.4-2.9,1.3-3.7s2-1.3,3.5-1.3c0.9,0,1.8,0.2,2.5,0.6s1.3,1,1.7,1.8S53,7.8,53,8.8z M46.2,8.8c0,1,0.2,1.7,0.5,2.2
		s0.8,0.7,1.6,0.7c0.7,0,1.2-0.2,1.5-0.7s0.5-1.2,0.5-2.2c0-1-0.2-1.7-0.5-2.2S49,5.9,48.2,5.9c-0.7,0-1.2,0.2-1.5,0.7
		S46.2,7.9,46.2,8.8z"/>
	<path class="st0" d="M64,13.8h-2.7V8c0-0.7-0.1-1.2-0.4-1.6s-0.6-0.5-1.1-0.5c-0.7,0-1.2,0.3-1.5,0.8S57.9,8,57.9,9.1v4.6h-2.7V3.9
		h2l0.4,1.3h0.1c0.3-0.5,0.6-0.8,1.1-1.1s1.1-0.4,1.7-0.4c1.5,0,2.5,0.5,3,1.4h0.2c0.3-0.5,0.7-0.8,1.2-1.1s1.1-0.4,1.7-0.4
		c1.1,0,2,0.3,2.5,0.9s0.9,1.5,0.9,2.7v6.4h-2.7V8c0-0.7-0.1-1.2-0.4-1.6S66.5,5.9,66,5.9c-0.7,0-1.1,0.2-1.5,0.7S64,7.8,64,8.8
		V13.8z"/>
	<path class="st0" d="M78.3,6H76v7.8h-2.7V6h-1.5V4.7l1.5-0.7V3.2c0-1.1,0.3-1.9,0.8-2.5S75.6,0,76.8,0c0.9,0,1.7,0.1,2.5,0.4
		l-0.7,2c-0.5-0.2-1-0.3-1.5-0.3c-0.4,0-0.7,0.1-0.8,0.3S76,3,76,3.3v0.6h2.3V6z"/>
	<path class="st0" d="M88.8,8.8c0,1.6-0.4,2.9-1.3,3.8s-2,1.4-3.5,1.4c-0.9,0-1.8-0.2-2.5-0.6s-1.3-1-1.7-1.8s-0.6-1.7-0.6-2.7
		c0-1.6,0.4-2.9,1.3-3.7s2-1.3,3.5-1.3c0.9,0,1.8,0.2,2.5,0.6s1.3,1,1.7,1.8S88.8,7.8,88.8,8.8z M82,8.8c0,1,0.2,1.7,0.5,2.2
		s0.8,0.7,1.6,0.7c0.7,0,1.2-0.2,1.5-0.7s0.5-1.2,0.5-2.2c0-1-0.2-1.7-0.5-2.2S84.8,5.9,84,5.9c-0.7,0-1.2,0.2-1.5,0.7
		S82,7.9,82,8.8z"/>
	<path class="st0" d="M96.5,3.8c0.4,0,0.7,0,0.9,0.1l-0.2,2.5c-0.2-0.1-0.5-0.1-0.8-0.1c-0.9,0-1.5,0.2-2,0.7S93.7,8,93.7,8.8v5H91
		V3.9h2l0.4,1.7h0.1c0.3-0.6,0.7-1,1.2-1.3S95.9,3.8,96.5,3.8z"/>
	<path class="st0" d="M103.3,11.8c0.5,0,1-0.1,1.7-0.3v2c-0.7,0.3-1.5,0.4-2.5,0.4c-1.1,0-1.9-0.3-2.3-0.8s-0.7-1.4-0.7-2.4V6h-1.3
		V4.8l1.5-0.9l0.8-2.1h1.7v2.1h2.8v2h-2.8v4.7c0,0.4,0.1,0.7,0.3,0.8S103,11.8,103.3,11.8z"/>
	<path class="st0" d="M113.2,13.8l-0.5-1.3h-0.1c-0.5,0.6-0.9,1-1.4,1.2s-1.1,0.3-1.9,0.3c-0.9,0-1.7-0.3-2.2-0.8s-0.8-1.3-0.8-2.3
		c0-1,0.4-1.8,1.1-2.3s1.8-0.8,3.3-0.8l1.7-0.1V7.2c0-1-0.5-1.5-1.5-1.5c-0.8,0-1.7,0.2-2.8,0.7l-0.9-1.8c1.1-0.6,2.4-0.9,3.8-0.9
		c1.3,0,2.3,0.3,3,0.9s1.1,1.4,1.1,2.6v6.5H113.2z M112.5,9.2l-1,0c-0.8,0-1.4,0.2-1.7,0.4s-0.6,0.7-0.6,1.2c0,0.8,0.4,1.1,1.3,1.1
		c0.6,0,1.1-0.2,1.5-0.5s0.6-0.8,0.6-1.4V9.2z"/>
	<path class="st0" d="M123.3,3.8c1.2,0,2.1,0.5,2.7,1.4s1,2.1,1,3.7c0,1.6-0.3,2.9-1,3.8s-1.6,1.3-2.8,1.3c-1.2,0-2.1-0.4-2.7-1.3
		h-0.2l-0.4,1.1h-2V0.1h2.7v3.2c0,0.4,0,1.1-0.1,1.9h0.1C121.2,4.2,122.1,3.8,123.3,3.8z M122.5,5.9c-0.7,0-1.1,0.2-1.5,0.6
		s-0.5,1.1-0.5,2v0.3c0,1.1,0.2,1.8,0.5,2.3s0.8,0.7,1.5,0.7c0.6,0,1-0.3,1.3-0.8s0.5-1.2,0.5-2.2s-0.2-1.7-0.5-2.2
		S123.1,5.9,122.5,5.9z"/>
	<path class="st0" d="M132,13.8h-2.7V0.1h2.7V13.8z"/>
	<path class="st0" d="M139.2,13.9c-1.6,0-2.8-0.4-3.7-1.3s-1.3-2.1-1.3-3.7c0-1.6,0.4-2.9,1.2-3.8s2-1.3,3.4-1.3
		c1.4,0,2.5,0.4,3.2,1.2s1.2,1.9,1.2,3.3v1.3h-6.3c0,0.8,0.3,1.4,0.7,1.8s1,0.6,1.8,0.6c0.6,0,1.2-0.1,1.7-0.2s1.1-0.3,1.7-0.6v2.1
		c-0.5,0.2-1,0.4-1.5,0.5S140,13.9,139.2,13.9z M138.8,5.7c-0.6,0-1,0.2-1.3,0.5s-0.5,0.9-0.6,1.5h3.8c0-0.7-0.2-1.2-0.5-1.5
		S139.4,5.7,138.8,5.7z"/>
	<path class="st0" d="M7.5,29.8c0,1-0.4,1.8-1.1,2.3s-1.7,0.8-3.1,0.8c-0.7,0-1.3,0-1.8-0.1s-1-0.2-1.4-0.4v-2.2
		c0.5,0.2,1.1,0.4,1.7,0.6s1.2,0.2,1.6,0.2c1,0,1.5-0.3,1.5-0.8c0-0.2-0.1-0.4-0.2-0.5S4.3,29.3,4,29.1s-0.7-0.4-1.3-0.6
		c-0.8-0.3-1.3-0.6-1.7-0.9s-0.6-0.6-0.8-0.9S0.1,26,0.1,25.5c0-0.9,0.3-1.5,1-2s1.6-0.7,2.9-0.7c1.2,0,2.3,0.3,3.5,0.8l-0.8,1.9
		c-0.5-0.2-1-0.4-1.4-0.5s-0.9-0.2-1.3-0.2c-0.8,0-1.2,0.2-1.2,0.6c0,0.2,0.1,0.4,0.4,0.6s0.8,0.4,1.7,0.8c0.8,0.3,1.3,0.6,1.7,0.9
		s0.6,0.6,0.8,0.9S7.5,29.3,7.5,29.8z"/>
	<path class="st0" d="M18.7,32.7H16V27c0-1.4-0.5-2.1-1.6-2.1c-0.8,0-1.3,0.3-1.6,0.8s-0.5,1.3-0.5,2.5v4.6H9.6V19.1h2.7v2.8
		c0,0.2,0,0.7-0.1,1.5l-0.1,0.8h0.1c0.6-1,1.5-1.4,2.8-1.4c1.2,0,2,0.3,2.6,0.9s0.9,1.5,0.9,2.7V32.7z"/>
	<path class="st0" d="M30.4,27.8c0,1.6-0.4,2.9-1.3,3.8s-2,1.4-3.5,1.4c-0.9,0-1.8-0.2-2.5-0.6s-1.3-1-1.7-1.8s-0.6-1.7-0.6-2.7
		c0-1.6,0.4-2.9,1.3-3.7s2-1.3,3.5-1.3c0.9,0,1.8,0.2,2.5,0.6s1.3,1,1.7,1.8S30.4,26.8,30.4,27.8z M23.6,27.8c0,1,0.2,1.7,0.5,2.2
		s0.8,0.7,1.6,0.7c0.7,0,1.2-0.2,1.5-0.7s0.5-1.2,0.5-2.2c0-1-0.2-1.7-0.5-2.2s-0.8-0.7-1.6-0.7c-0.7,0-1.2,0.2-1.5,0.7
		S23.6,26.8,23.6,27.8z"/>
	<path class="st0" d="M38,32.9c-1.2,0-2.1-0.4-2.7-1.3h-0.1c0.1,0.8,0.1,1.3,0.1,1.4v4h-2.7V22.9h2.2l0.4,1.3h0.1
		c0.6-1,1.6-1.5,2.8-1.5c1.2,0,2.1,0.4,2.7,1.3s1,2.1,1,3.7c0,1-0.2,2-0.5,2.7s-0.7,1.4-1.3,1.8S38.7,32.9,38,32.9z M37.2,24.9
		c-0.7,0-1.1,0.2-1.5,0.6s-0.5,1.1-0.5,2v0.3c0,1.1,0.2,1.8,0.5,2.3s0.8,0.7,1.5,0.7c1.2,0,1.8-1,1.8-3c0-1-0.1-1.7-0.4-2.2
		S37.8,24.9,37.2,24.9z"/>
	<path class="st0" d="M49.4,32.9c-1.2,0-2.1-0.4-2.7-1.3h-0.1c0.1,0.8,0.1,1.3,0.1,1.4v4H44V22.9h2.2l0.4,1.3h0.1
		c0.6-1,1.6-1.5,2.8-1.5c1.2,0,2.1,0.4,2.7,1.3s1,2.1,1,3.7c0,1-0.2,2-0.5,2.7s-0.7,1.4-1.3,1.8S50.1,32.9,49.4,32.9z M48.6,24.9
		c-0.7,0-1.1,0.2-1.5,0.6s-0.5,1.1-0.5,2v0.3c0,1.1,0.2,1.8,0.5,2.3s0.8,0.7,1.5,0.7c1.2,0,1.8-1,1.8-3c0-1-0.1-1.7-0.4-2.2
		S49.2,24.9,48.6,24.9z"/>
	<path class="st0" d="M55.2,20.4c0-0.9,0.5-1.3,1.5-1.3s1.5,0.4,1.5,1.3c0,0.4-0.1,0.7-0.4,1s-0.6,0.3-1.1,0.3
		C55.7,21.7,55.2,21.2,55.2,20.4z M58,32.7h-2.7v-9.8H58V32.7z"/>
	<path class="st0" d="M69.9,32.7h-2.7V27c0-0.7-0.1-1.2-0.4-1.6s-0.7-0.5-1.2-0.5c-0.8,0-1.3,0.3-1.6,0.8s-0.5,1.3-0.5,2.5v4.6h-2.7
		v-9.8h2l0.4,1.3h0.1c0.3-0.5,0.7-0.8,1.2-1.1s1.1-0.4,1.8-0.4c1.1,0,2,0.3,2.6,0.9s0.9,1.5,0.9,2.7V32.7z"/>
	<path class="st0" d="M81.3,32.7c0,1.4-0.4,2.5-1.2,3.2s-2,1.1-3.7,1.1c-1.4,0-2.7-0.2-3.7-0.6v-2.1c1.2,0.5,2.5,0.8,3.8,0.8
		c1.4,0,2.1-0.7,2.1-2.2v-0.2l0.1-1.2h-0.1c-0.6,1-1.6,1.5-2.8,1.5c-1.2,0-2.1-0.5-2.7-1.4s-1-2.1-1-3.7c0-1.6,0.3-2.9,1-3.8
		s1.6-1.3,2.8-1.3c1.2,0,2.2,0.5,2.8,1.4h0.1l0.2-1.3h2.3V32.7z M76.7,30.8c0.7,0,1.2-0.2,1.5-0.6s0.5-1.1,0.5-2v-0.3
		c0-1-0.2-1.8-0.5-2.3s-0.8-0.7-1.6-0.7c-1.3,0-1.9,1-1.9,3c0,1,0.2,1.7,0.5,2.2S76.1,30.8,76.7,30.8z"/>
	<path class="st0" d="M92.9,30.8c0.5,0,1-0.1,1.7-0.3v2c-0.7,0.3-1.5,0.4-2.5,0.4c-1.1,0-1.9-0.3-2.3-0.8S89,30.7,89,29.7v-4.7h-1.3
		v-1.1l1.5-0.9l0.8-2.1h1.7v2.1h2.8v2h-2.8v4.7c0,0.4,0.1,0.7,0.3,0.8S92.5,30.8,92.9,30.8z"/>
	<path class="st0" d="M105.6,32.7h-2.7V27c0-1.4-0.5-2.1-1.6-2.1c-0.8,0-1.3,0.3-1.6,0.8s-0.5,1.3-0.5,2.5v4.6h-2.7V19.1h2.7v2.8
		c0,0.2,0,0.7-0.1,1.5l-0.1,0.8h0.1c0.6-1,1.5-1.4,2.8-1.4c1.2,0,2,0.3,2.6,0.9s0.9,1.5,0.9,2.7V32.7z"/>
	<path class="st0" d="M113.9,22.7c0.4,0,0.7,0,0.9,0.1l-0.2,2.5c-0.2-0.1-0.5-0.1-0.8-0.1c-0.9,0-1.5,0.2-2,0.7s-0.7,1.1-0.7,1.8v5
		h-2.7v-9.8h2l0.4,1.7h0.1c0.3-0.6,0.7-1,1.2-1.3S113.3,22.7,113.9,22.7z"/>
	<path class="st0" d="M125.3,27.8c0,1.6-0.4,2.9-1.3,3.8s-2,1.4-3.5,1.4c-0.9,0-1.8-0.2-2.5-0.6s-1.3-1-1.7-1.8s-0.6-1.7-0.6-2.7
		c0-1.6,0.4-2.9,1.3-3.7s2-1.3,3.5-1.3c0.9,0,1.8,0.2,2.5,0.6s1.3,1,1.7,1.8S125.3,26.8,125.3,27.8z M118.5,27.8
		c0,1,0.2,1.7,0.5,2.2s0.8,0.7,1.6,0.7c0.7,0,1.2-0.2,1.5-0.7s0.5-1.2,0.5-2.2c0-1-0.2-1.7-0.5-2.2s-0.8-0.7-1.6-0.7
		c-0.7,0-1.2,0.2-1.5,0.7S118.5,26.8,118.5,27.8z"/>
	<path class="st0" d="M134.5,32.7l-0.4-1.3H134c-0.3,0.5-0.7,0.8-1.2,1.1s-1.1,0.4-1.8,0.4c-1.2,0-2-0.3-2.6-0.9s-0.9-1.5-0.9-2.7
		v-6.4h2.7v5.7c0,0.7,0.1,1.2,0.4,1.6s0.7,0.5,1.2,0.5c0.8,0,1.3-0.3,1.6-0.8s0.5-1.3,0.5-2.5v-4.6h2.7v9.8H134.5z"/>
	<path class="st0" d="M147.9,32.7c0,1.4-0.4,2.5-1.2,3.2s-2,1.1-3.7,1.1c-1.4,0-2.7-0.2-3.7-0.6v-2.1c1.2,0.5,2.5,0.8,3.8,0.8
		c1.4,0,2.1-0.7,2.1-2.2v-0.2l0.1-1.2h-0.1c-0.6,1-1.6,1.5-2.8,1.5c-1.2,0-2.1-0.5-2.7-1.4s-1-2.1-1-3.7c0-1.6,0.3-2.9,1-3.8
		s1.6-1.3,2.8-1.3c1.2,0,2.2,0.5,2.8,1.4h0.1l0.2-1.3h2.3V32.7z M143.4,30.8c0.7,0,1.2-0.2,1.5-0.6s0.5-1.1,0.5-2v-0.3
		c0-1-0.2-1.8-0.5-2.3s-0.8-0.7-1.6-0.7c-1.3,0-1.9,1-1.9,3c0,1,0.2,1.7,0.5,2.2S142.8,30.8,143.4,30.8z"/>
	<path class="st0" d="M159.8,32.7h-2.7V27c0-1.4-0.5-2.1-1.6-2.1c-0.8,0-1.3,0.3-1.6,0.8s-0.5,1.3-0.5,2.5v4.6h-2.7V19.1h2.7v2.8
		c0,0.2,0,0.7-0.1,1.5l-0.1,0.8h0.1c0.6-1,1.5-1.4,2.8-1.4c1.2,0,2,0.3,2.6,0.9s0.9,1.5,0.9,2.7V32.7z"/>
	<path class="st0" d="M9.4,51.7H6.8v-5.7c0-0.7-0.1-1.2-0.4-1.6s-0.6-0.5-1.1-0.5c-0.7,0-1.2,0.3-1.5,0.8s-0.5,1.3-0.5,2.5v4.6H0.7
		v-9.8h2l0.4,1.3h0.1c0.3-0.5,0.6-0.8,1.1-1.1s1.1-0.4,1.7-0.4c1.5,0,2.5,0.5,3,1.4h0.2c0.3-0.5,0.7-0.8,1.2-1.1s1.1-0.4,1.7-0.4
		c1.1,0,2,0.3,2.5,0.9s0.9,1.5,0.9,2.7v6.4h-2.7v-5.7c0-0.7-0.1-1.2-0.4-1.6s-0.6-0.5-1.1-0.5c-0.7,0-1.1,0.2-1.5,0.7
		s-0.5,1.2-0.5,2.2V51.7z"/>
	<path class="st0" d="M27.3,46.8c0,1.6-0.4,2.9-1.3,3.8s-2,1.4-3.5,1.4c-0.9,0-1.8-0.2-2.5-0.6s-1.3-1-1.7-1.8s-0.6-1.7-0.6-2.7
		c0-1.6,0.4-2.9,1.3-3.7s2-1.3,3.5-1.3c0.9,0,1.8,0.2,2.5,0.6s1.3,1,1.7,1.8S27.3,45.7,27.3,46.8z M20.5,46.8c0,1,0.2,1.7,0.5,2.2
		s0.8,0.7,1.6,0.7c0.7,0,1.2-0.2,1.5-0.7s0.5-1.2,0.5-2.2c0-1-0.2-1.7-0.5-2.2s-0.8-0.7-1.6-0.7c-0.7,0-1.2,0.2-1.5,0.7
		S20.5,45.8,20.5,46.8z"/>
	<path class="st0" d="M34.9,41.7c1.2,0,2.1,0.5,2.7,1.4s1,2.1,1,3.7c0,1.6-0.3,2.9-1,3.8s-1.6,1.3-2.8,1.3c-1.2,0-2.1-0.4-2.7-1.3
		H32l-0.4,1.1h-2V38h2.7v3.2c0,0.4,0,1.1-0.1,1.9h0.1C32.8,42.2,33.7,41.7,34.9,41.7z M34.1,43.8c-0.7,0-1.1,0.2-1.5,0.6
		s-0.5,1.1-0.5,2v0.3c0,1.1,0.2,1.8,0.5,2.3s0.8,0.7,1.5,0.7c0.6,0,1-0.3,1.3-0.8s0.5-1.2,0.5-2.2s-0.2-1.7-0.5-2.2
		S34.6,43.8,34.1,43.8z"/>
	<path class="st0" d="M40.7,39.3c0-0.9,0.5-1.3,1.5-1.3s1.5,0.4,1.5,1.3c0,0.4-0.1,0.7-0.4,1s-0.6,0.3-1.1,0.3
		C41.2,40.6,40.7,40.2,40.7,39.3z M43.5,51.7h-2.7v-9.8h2.7V51.7z"/>
	<path class="st0" d="M49,51.7h-2.7V38H49V51.7z"/>
	<path class="st0" d="M56.3,51.9c-1.6,0-2.8-0.4-3.7-1.3s-1.3-2.1-1.3-3.7c0-1.6,0.4-2.9,1.2-3.8s2-1.3,3.4-1.3
		c1.4,0,2.5,0.4,3.2,1.2s1.2,1.9,1.2,3.3v1.3H54c0,0.8,0.3,1.4,0.7,1.8s1,0.6,1.8,0.6c0.6,0,1.2-0.1,1.7-0.2s1.1-0.3,1.7-0.6v2.1
		c-0.5,0.2-1,0.4-1.5,0.5S57.1,51.9,56.3,51.9z M55.9,43.6c-0.6,0-1,0.2-1.3,0.5S54.1,45,54,45.7h3.8c0-0.7-0.2-1.2-0.5-1.5
		S56.5,43.6,55.9,43.6z"/>
	<path class="st0" d="M70.3,51.9c-1.2,0-2.1-0.4-2.7-1.3s-1-2.1-1-3.7c0-1.6,0.3-2.9,1-3.8s1.6-1.3,2.8-1.3c1.2,0,2.2,0.5,2.8,1.4
		h0.1c-0.1-0.7-0.2-1.4-0.2-2V38h2.7v13.7h-2.1l-0.5-1.3h-0.1C72.4,51.4,71.5,51.9,70.3,51.9z M71.2,49.7c0.7,0,1.2-0.2,1.5-0.6
		s0.5-1.1,0.5-2v-0.3c0-1.1-0.2-1.8-0.5-2.3s-0.9-0.7-1.6-0.7c-0.6,0-1.1,0.3-1.4,0.8s-0.5,1.2-0.5,2.2s0.2,1.7,0.5,2.2
		S70.6,49.7,71.2,49.7z"/>
	<path class="st0" d="M83,51.9c-1.6,0-2.8-0.4-3.7-1.3S78,48.4,78,46.8c0-1.6,0.4-2.9,1.2-3.8s2-1.3,3.4-1.3c1.4,0,2.5,0.4,3.2,1.2
		s1.2,1.9,1.2,3.3v1.3h-6.3c0,0.8,0.3,1.4,0.7,1.8s1,0.6,1.8,0.6c0.6,0,1.2-0.1,1.7-0.2s1.1-0.3,1.7-0.6v2.1c-0.5,0.2-1,0.4-1.5,0.5
		S83.8,51.9,83,51.9z M82.6,43.6c-0.6,0-1,0.2-1.3,0.5s-0.5,0.9-0.6,1.5h3.8c0-0.7-0.2-1.2-0.5-1.5S83.2,43.6,82.6,43.6z"/>
	<path class="st0" d="M91.3,51.7l-3.7-9.8h2.8l1.9,5.6c0.2,0.6,0.3,1.3,0.4,2h0.1c0-0.7,0.2-1.3,0.4-2l1.9-5.6h2.8l-3.7,9.8H91.3z"
		/>
	<path class="st0" d="M99.1,39.3c0-0.9,0.5-1.3,1.5-1.3s1.5,0.4,1.5,1.3c0,0.4-0.1,0.7-0.4,1s-0.6,0.3-1.1,0.3
		C99.6,40.6,99.1,40.2,99.1,39.3z M101.9,51.7h-2.7v-9.8h2.7V51.7z"/>
	<path class="st0" d="M108.7,51.9c-3.1,0-4.6-1.7-4.6-5c0-1.7,0.4-2.9,1.2-3.8s2-1.3,3.6-1.3c1.1,0,2.2,0.2,3.1,0.7l-0.8,2.1
		c-0.4-0.2-0.8-0.3-1.2-0.4s-0.7-0.2-1.1-0.2c-1.4,0-2.1,1-2.1,3c0,1.9,0.7,2.9,2.1,2.9c0.5,0,1-0.1,1.4-0.2s0.9-0.4,1.3-0.6v2.3
		c-0.4,0.3-0.9,0.5-1.3,0.6S109.4,51.9,108.7,51.9z"/>
	<path class="st0" d="M118.4,51.9c-1.6,0-2.8-0.4-3.7-1.3s-1.3-2.1-1.3-3.7c0-1.6,0.4-2.9,1.2-3.8s2-1.3,3.4-1.3
		c1.4,0,2.5,0.4,3.2,1.2s1.2,1.9,1.2,3.3v1.3h-6.3c0,0.8,0.3,1.4,0.7,1.8s1,0.6,1.8,0.6c0.6,0,1.2-0.1,1.7-0.2s1.1-0.3,1.7-0.6v2.1
		c-0.5,0.2-1,0.4-1.5,0.5S119.2,51.9,118.4,51.9z M118.1,43.6c-0.6,0-1,0.2-1.3,0.5s-0.5,0.9-0.6,1.5h3.8c0-0.7-0.2-1.2-0.5-1.5
		S118.6,43.6,118.1,43.6z"/>
</g>
</svg>