<!-- Generator: Adobe Illustrator 19.1.0, SVG Export Plug-In  -->
<svg version="1.1"
	 xmlns="http://www.w3.org/2000/svg" xmlns:xlink="http://www.w3.org/1999/xlink" xmlns:a="http://ns.adobe.com/AdobeSVGViewerExtensions/3.0/"
	 x="0px" y="0px" width="174.1px" height="105.3px" viewBox="0 0 174.1 105.3"
	 style="overflow:scroll;enable-background:new 0 0 174.1 105.3;" xml:space="preserve">
<style type="text/css">
	.st0{fill:#FF6633;}
	.st1{fill:#086A87;}
</style>
<defs>
</defs>
<g>
	<g>
		<path class="st0" d="M28,0c3.5,0,6.3,0.8,8.4,2.4c2.1,1.6,3.2,3.7,3.2,6.4c0,1.9-0.5,3.5-1.5,5c-1,1.5-2.7,2.8-5,3.9
			c2.7,1.5,4.7,3,5.9,4.6c1.2,1.6,1.8,3.3,1.8,5.2c0,3-1.2,5.4-3.5,7.2c-2.3,1.8-5.4,2.7-9.2,2.7c-4,0-7.1-0.8-9.4-2.5
			c-2.3-1.7-3.4-4.1-3.4-7.2c0-2.1,0.6-3.9,1.7-5.5c1.1-1.6,2.9-3,5.3-4.3c-2.1-1.3-3.6-2.7-4.5-4.2c-0.9-1.5-1.4-3.1-1.4-4.9
			c0-2.6,1.1-4.7,3.2-6.3C21.7,0.9,24.5,0,28,0z M22.3,27.2c0,1.4,0.5,2.5,1.5,3.3s2.4,1.2,4.1,1.2c1.9,0,3.3-0.4,4.3-1.2
			c0.9-0.8,1.4-1.9,1.4-3.2c0-1.1-0.5-2.2-1.4-3.1c-0.9-1-2.5-2-4.6-3.1C24.1,22.7,22.3,24.8,22.3,27.2z M28,5.7
			c-1.3,0-2.4,0.3-3.2,1c-0.8,0.7-1.2,1.6-1.2,2.7c0,1,0.3,1.9,1,2.7c0.6,0.8,1.8,1.6,3.5,2.4c1.6-0.8,2.8-1.5,3.4-2.3s1-1.7,1-2.8
			c0-1.1-0.4-2-1.2-2.7C30.3,6,29.3,5.7,28,5.7z"/>
		<path class="st0" d="M57.2,0c3.5,0,6.3,0.8,8.4,2.4c2.1,1.6,3.2,3.7,3.2,6.4c0,1.9-0.5,3.5-1.5,5c-1,1.5-2.7,2.8-5,3.9
			c2.7,1.5,4.7,3,5.9,4.6c1.2,1.6,1.8,3.3,1.8,5.2c0,3-1.2,5.4-3.5,7.2c-2.3,1.8-5.4,2.7-9.2,2.7c-4,0-7.1-0.8-9.4-2.5
			c-2.3-1.7-3.4-4.1-3.4-7.2c0-2.1,0.6-3.9,1.7-5.5c1.1-1.6,2.9-3,5.3-4.3c-2.1-1.3-3.6-2.7-4.5-4.2c-0.9-1.5-1.4-3.1-1.4-4.9
			c0-2.6,1.1-4.7,3.2-6.3C50.9,0.9,53.7,0,57.2,0z M51.5,27.2c0,1.4,0.5,2.5,1.5,3.3s2.4,1.2,4.1,1.2c1.9,0,3.3-0.4,4.3-1.2
			c0.9-0.8,1.4-1.9,1.4-3.2c0-1.1-0.5-2.2-1.4-3.1c-0.9-1-2.5-2-4.6-3.1C53.3,22.7,51.5,24.8,51.5,27.2z M57.1,5.7
			c-1.3,0-2.4,0.3-3.2,1c-0.8,0.7-1.2,1.6-1.2,2.7c0,1,0.3,1.9,1,2.7c0.6,0.8,1.8,1.6,3.5,2.4c1.6-0.8,2.8-1.5,3.4-2.3s1-1.7,1-2.8
			c0-1.1-0.4-2-1.2-2.7C59.5,6,58.4,5.7,57.1,5.7z"/>
		<path class="st0" d="M74.6,33.4c0-1.4,0.4-2.4,1.1-3.2s1.8-1.1,3.3-1.1c1.4,0,2.4,0.4,3.2,1.1c0.8,0.7,1.1,1.8,1.1,3.1
			c0,1.3-0.4,2.3-1.1,3.1c-0.8,0.8-1.8,1.1-3.2,1.1c-1.4,0-2.5-0.4-3.2-1.1C75,35.8,74.6,34.7,74.6,33.4z"/>
		<path class="st0" d="M101.6,13.7c3.5,0,6.3,1,8.4,3c2.1,2,3.1,4.7,3.1,8.1c0,4.1-1.3,7.2-3.8,9.4c-2.5,2.2-6.1,3.3-10.8,3.3
			c-4.1,0-7.3-0.7-9.8-2v-6.6c1.3,0.7,2.8,1.3,4.6,1.7s3.4,0.7,5,0.7c4.7,0,7-1.9,7-5.8c0-3.7-2.4-5.5-7.3-5.5
			c-0.9,0-1.9,0.1-2.9,0.3c-1.1,0.2-1.9,0.4-2.6,0.6l-3.1-1.6l1.4-18.6h19.7V7h-13l-0.7,7.1l0.9-0.2
			C98.8,13.8,100.1,13.7,101.6,13.7z"/>
		<path class="st0" d="M134.3,11.4c0,3.8-0.7,6.7-2.2,8.6c-1.5,1.9-3.6,2.9-6.5,2.9c-2.7,0-4.9-1-6.4-3c-1.5-2-2.2-4.8-2.2-8.5
			c0-7.6,2.9-11.4,8.6-11.4c2.8,0,5,1,6.5,3C133.6,4.9,134.3,7.7,134.3,11.4z M123.3,11.4c0,2.1,0.2,3.7,0.6,4.7
			c0.4,1,1,1.6,1.8,1.6c1.6,0,2.4-2.1,2.4-6.3c0-4.2-0.8-6.2-2.4-6.2c-0.8,0-1.4,0.5-1.8,1.5C123.5,7.8,123.3,9.3,123.3,11.4z
			 M151.4,0.5l-20.2,36.4h-6l20.2-36.4H151.4z M159.8,25.9c0,3.8-0.7,6.7-2.2,8.6c-1.5,1.9-3.6,2.9-6.5,2.9c-2.7,0-4.9-1-6.4-3
			c-1.5-2-2.2-4.8-2.2-8.5c0-7.6,2.9-11.4,8.6-11.4c2.8,0,5,1,6.5,3C159.1,19.5,159.8,22.3,159.8,25.9z M148.8,26
			c0,2.1,0.2,3.7,0.6,4.7c0.4,1,1,1.6,1.8,1.6c1.6,0,2.4-2.1,2.4-6.3c0-4.2-0.8-6.2-2.4-6.2c-0.8,0-1.4,0.5-1.8,1.5
			C149,22.3,148.8,23.9,148.8,26z"/>
	</g>
	<g>
		<path class="st1" d="M21.5,57.4c1.5,0,2.8,0.6,3.6,1.8s1.3,2.9,1.3,5c0,2.2-0.5,3.8-1.4,5S22.9,71,21.4,71c-1.5,0-2.7-0.6-3.6-1.7
			h-0.2l-0.6,1.4h-2.7V52.5h3.6v4.2c0,0.5,0,1.4-0.1,2.6h0.1C18.6,58,19.8,57.4,21.5,57.4z M20.3,60.2c-0.9,0-1.5,0.3-1.9,0.8
			s-0.6,1.4-0.6,2.7v0.4c0,1.4,0.2,2.4,0.6,3s1.1,0.9,2,0.9c0.7,0,1.3-0.3,1.8-1s0.7-1.7,0.7-2.9s-0.2-2.3-0.7-2.9
			S21.1,60.2,20.3,60.2z"/>
		<path class="st1" d="M29.2,54.2c0-1.2,0.6-1.7,1.9-1.7s1.9,0.6,1.9,1.7c0,0.6-0.2,1-0.5,1.3S31.8,56,31.2,56
			C29.9,56,29.2,55.4,29.2,54.2z M32.9,70.7h-3.6V57.6h3.6V70.7z"/>
		<path class="st1" d="M45.8,66.8c0,1.3-0.5,2.4-1.4,3.1S42.1,71,40.2,71c-1,0-1.8-0.1-2.4-0.2s-1.3-0.3-1.9-0.6v-3
			c0.7,0.3,1.4,0.6,2.2,0.8s1.6,0.3,2.2,0.3c1.3,0,1.9-0.4,1.9-1.1c0-0.3-0.1-0.5-0.3-0.7s-0.5-0.4-0.9-0.6s-1-0.5-1.7-0.8
			c-1-0.4-1.7-0.8-2.2-1.2s-0.8-0.8-1-1.2s-0.3-1-0.3-1.7c0-1.2,0.5-2.1,1.4-2.7s2.2-1,3.8-1c1.6,0,3.1,0.3,4.6,1L44.6,61
			c-0.7-0.3-1.3-0.5-1.8-0.7S41.6,60,41,60c-1.1,0-1.6,0.3-1.6,0.9c0,0.3,0.2,0.6,0.5,0.8s1.1,0.6,2.2,1c1,0.4,1.8,0.8,2.3,1.2
			s0.8,0.8,1.1,1.2S45.8,66.2,45.8,66.8z"/>
		<path class="st1" d="M56.9,70.7l-0.7-1.8h-0.1c-0.6,0.8-1.2,1.3-1.9,1.6S52.8,71,51.8,71c-1.3,0-2.2-0.4-3-1.1s-1.1-1.7-1.1-3.1
			c0-1.4,0.5-2.4,1.5-3.1s2.4-1,4.4-1.1l2.3-0.1V62c0-1.3-0.7-2-2-2c-1,0-2.3,0.3-3.7,0.9L49,58.5c1.5-0.8,3.2-1.2,5-1.2
			c1.8,0,3.1,0.4,4,1.1s1.4,1.9,1.4,3.5v8.7H56.9z M55.9,64.7l-1.4,0c-1,0-1.8,0.2-2.3,0.6s-0.8,0.9-0.8,1.6c0,1,0.6,1.5,1.7,1.5
			c0.8,0,1.5-0.2,2-0.7s0.7-1.1,0.7-1.9V64.7z"/>
		<path class="st1" d="M76.6,57.4c1.5,0,2.8,0.6,3.6,1.8s1.3,2.9,1.3,5c0,2.2-0.5,3.8-1.4,5S78.1,71,76.5,71c-1.5,0-2.7-0.6-3.6-1.7
			h-0.2l-0.6,1.4h-2.7V52.5h3.6v4.2c0,0.5,0,1.4-0.1,2.6h0.1C73.8,58,75,57.4,76.6,57.4z M75.5,60.2c-0.9,0-1.5,0.3-1.9,0.8
			s-0.6,1.4-0.6,2.7v0.4c0,1.4,0.2,2.4,0.6,3s1.1,0.9,2,0.9c0.7,0,1.3-0.3,1.8-1s0.7-1.7,0.7-2.9s-0.2-2.3-0.7-2.9
			S76.3,60.2,75.5,60.2z"/>
		<path class="st1" d="M90.5,71c-2.1,0-3.8-0.6-4.9-1.7s-1.8-2.8-1.8-4.9c0-2.2,0.5-3.9,1.6-5.1s2.6-1.8,4.6-1.8
			c1.9,0,3.3,0.5,4.3,1.6s1.5,2.5,1.5,4.4v1.7h-8.4c0,1,0.3,1.8,0.9,2.4s1.4,0.9,2.4,0.9c0.8,0,1.5-0.1,2.2-0.2s1.4-0.4,2.2-0.8V70
			c-0.6,0.3-1.3,0.5-2,0.7S91.5,71,90.5,71z M90,59.9c-0.8,0-1.4,0.2-1.8,0.7s-0.7,1.2-0.7,2h5c0-0.9-0.2-1.6-0.7-2
			S90.7,59.9,90,59.9z"/>
		<path class="st1" d="M102.3,70.7h-3.6V52.5h3.6V70.7z"/>
		<path class="st1" d="M114.4,70.7l-0.7-1.8h-0.1c-0.6,0.8-1.2,1.3-1.9,1.6s-1.5,0.4-2.5,0.4c-1.3,0-2.2-0.4-3-1.1s-1.1-1.7-1.1-3.1
			c0-1.4,0.5-2.4,1.5-3.1s2.4-1,4.4-1.1l2.3-0.1V62c0-1.3-0.7-2-2-2c-1,0-2.3,0.3-3.7,0.9l-1.2-2.4c1.5-0.8,3.2-1.2,5-1.2
			c1.8,0,3.1,0.4,4,1.1s1.4,1.9,1.4,3.5v8.7H114.4z M113.3,64.7l-1.4,0c-1,0-1.8,0.2-2.3,0.6s-0.8,0.9-0.8,1.6c0,1,0.6,1.5,1.7,1.5
			c0.8,0,1.5-0.2,2-0.7s0.7-1.1,0.7-1.9V64.7z"/>
		<path class="st1" d="M132.6,70.7h-3.6v-7.7c0-0.9-0.2-1.7-0.5-2.1s-0.9-0.7-1.6-0.7c-1,0-1.7,0.3-2.2,1s-0.7,1.8-0.7,3.3v6.2h-3.6
			V57.6h2.7l0.5,1.7h0.2c0.4-0.6,0.9-1.1,1.6-1.4s1.5-0.5,2.4-0.5c1.5,0,2.7,0.4,3.5,1.2s1.2,2,1.2,3.6V70.7z"/>
		<path class="st1" d="M135.3,76.5c-0.9,0-1.7-0.1-2.4-0.3v-2.8c0.5,0.1,1.1,0.2,1.7,0.2c0.6,0,1-0.2,1.3-0.5s0.4-0.8,0.4-1.5v-14
			h3.6v14.5c0,1.4-0.4,2.5-1.2,3.2S136.7,76.5,135.3,76.5z M136.2,54.2c0-1.2,0.6-1.7,1.9-1.7s1.9,0.6,1.9,1.7c0,0.6-0.2,1-0.5,1.3
			s-0.8,0.5-1.5,0.5C136.8,56,136.2,55.4,136.2,54.2z"/>
		<path class="st1" d="M152,70.7l-0.7-1.8h-0.1c-0.6,0.8-1.2,1.3-1.9,1.6s-1.5,0.4-2.5,0.4c-1.3,0-2.2-0.4-3-1.1s-1.1-1.7-1.1-3.1
			c0-1.4,0.5-2.4,1.5-3.1s2.4-1,4.4-1.1l2.3-0.1V62c0-1.3-0.7-2-2-2c-1,0-2.3,0.3-3.7,0.9l-1.2-2.4c1.5-0.8,3.2-1.2,5-1.2
			c1.8,0,3.1,0.4,4,1.1s1.4,1.9,1.4,3.5v8.7H152z M150.9,64.7l-1.4,0c-1,0-1.8,0.2-2.3,0.6s-0.8,0.9-0.8,1.6c0,1,0.6,1.5,1.7,1.5
			c0.8,0,1.5-0.2,2-0.7s0.7-1.1,0.7-1.9V64.7z"/>
		<path class="st1" d="M4.9,99.8c-1.5,0-2.7-0.6-3.6-1.8S0,95.1,0,93c0-2.1,0.4-3.8,1.3-5s2.1-1.8,3.7-1.8c1.6,0,2.9,0.6,3.8,1.9
			h0.1c-0.2-1-0.3-1.8-0.3-2.6v-4.2h3.6v18.2H9.5l-0.7-1.7H8.7C7.8,99.1,6.6,99.8,4.9,99.8z M6.2,96.9c0.9,0,1.6-0.3,2-0.8
			s0.7-1.4,0.7-2.7V93c0-1.4-0.2-2.4-0.7-3s-1.1-0.9-2.1-0.9c-0.8,0-1.4,0.3-1.9,1S3.6,91.8,3.6,93s0.2,2.3,0.7,2.9
			S5.4,96.9,6.2,96.9z"/>
		<path class="st1" d="M24.3,99.5l-0.7-1.8h-0.1c-0.6,0.8-1.2,1.3-1.9,1.6s-1.5,0.4-2.5,0.4c-1.3,0-2.2-0.4-3-1.1s-1.1-1.7-1.1-3.1
			c0-1.4,0.5-2.4,1.5-3.1s2.4-1,4.4-1.1l2.3-0.1v-0.6c0-1.3-0.7-2-2-2c-1,0-2.3,0.3-3.7,0.9l-1.2-2.4c1.5-0.8,3.2-1.2,5-1.2
			c1.8,0,3.1,0.4,4,1.1s1.4,1.9,1.4,3.5v8.7H24.3z M23.3,93.5l-1.4,0c-1,0-1.8,0.2-2.3,0.6s-0.8,0.9-0.8,1.6c0,1,0.6,1.5,1.7,1.5
			c0.8,0,1.5-0.2,2-0.7s0.7-1.1,0.7-1.9V93.5z"/>
		<path class="st1" d="M37.8,86.2c0.5,0,0.9,0,1.2,0.1l-0.3,3.4c-0.3-0.1-0.6-0.1-1.1-0.1c-1.1,0-2,0.3-2.7,0.9s-1,1.4-1,2.5v6.7
			h-3.6V86.4h2.7l0.5,2.2h0.2c0.4-0.7,1-1.3,1.6-1.8S37,86.2,37.8,86.2z"/>
		<path class="st1" d="M41.2,83c0-1.2,0.6-1.7,1.9-1.7s1.9,0.6,1.9,1.7c0,0.6-0.2,1-0.5,1.3s-0.8,0.5-1.5,0.5
			C41.9,84.8,41.2,84.2,41.2,83z M45,99.5h-3.6V86.4H45V99.5z"/>
		<path class="st1" d="M66.7,99.5h-3.6v-7.7c0-0.9-0.2-1.7-0.5-2.1S61.8,89,61.1,89c-0.9,0-1.6,0.3-2,1s-0.6,1.8-0.6,3.3v6.2h-3.6
			V86.4h2.7l0.5,1.7h0.2c0.4-0.6,0.9-1.1,1.5-1.4s1.4-0.5,2.3-0.5c2,0,3.3,0.6,4,1.9h0.3c0.4-0.6,0.9-1.1,1.6-1.4s1.5-0.5,2.3-0.5
			c1.5,0,2.6,0.4,3.4,1.1s1.1,2,1.1,3.7v8.5h-3.6v-7.7c0-0.9-0.2-1.7-0.5-2.1S70,89,69.3,89c-0.9,0-1.5,0.3-2,0.9s-0.7,1.6-0.7,3
			V99.5z"/>
		<path class="st1" d="M86.8,99.5l-0.7-1.8H86c-0.6,0.8-1.2,1.3-1.9,1.6s-1.5,0.4-2.5,0.4c-1.3,0-2.2-0.4-3-1.1s-1.1-1.7-1.1-3.1
			c0-1.4,0.5-2.4,1.5-3.1s2.4-1,4.4-1.1l2.3-0.1v-0.6c0-1.3-0.7-2-2-2c-1,0-2.3,0.3-3.7,0.9l-1.2-2.4c1.5-0.8,3.2-1.2,5-1.2
			c1.8,0,3.1,0.4,4,1.1s1.4,1.9,1.4,3.5v8.7H86.8z M85.8,93.5l-1.4,0c-1,0-1.8,0.2-2.3,0.6s-0.8,0.9-0.8,1.6c0,1,0.6,1.5,1.7,1.5
			c0.8,0,1.5-0.2,2-0.7s0.7-1.1,0.7-1.9V93.5z"/>
		<path class="st1" d="M105.1,99.5h-3.6v-7.7c0-0.9-0.2-1.7-0.5-2.1s-0.9-0.7-1.6-0.7c-1,0-1.7,0.3-2.2,1s-0.7,1.8-0.7,3.3v6.2H93
			V86.4h2.7l0.5,1.7h0.2c0.4-0.6,0.9-1.1,1.6-1.4s1.5-0.5,2.4-0.5c1.5,0,2.7,0.4,3.5,1.2s1.2,2,1.2,3.6V99.5z"/>
		<path class="st1" d="M117.1,99.5l-0.7-1.8h-0.1c-0.6,0.8-1.2,1.3-1.9,1.6s-1.5,0.4-2.5,0.4c-1.3,0-2.2-0.4-3-1.1s-1.1-1.7-1.1-3.1
			c0-1.4,0.5-2.4,1.5-3.1s2.4-1,4.4-1.1l2.3-0.1v-0.6c0-1.3-0.7-2-2-2c-1,0-2.3,0.3-3.7,0.9l-1.2-2.4c1.5-0.8,3.2-1.2,5-1.2
			c1.8,0,3.1,0.4,4,1.1s1.4,1.9,1.4,3.5v8.7H117.1z M116,93.5l-1.4,0c-1,0-1.8,0.2-2.3,0.6s-0.8,0.9-0.8,1.6c0,1,0.6,1.5,1.7,1.5
			c0.8,0,1.5-0.2,2-0.7s0.7-1.1,0.7-1.9V93.5z"/>
		<path class="st1" d="M138.6,95.6c0,1.3-0.5,2.4-1.4,3.1s-2.3,1.1-4.2,1.1c-1,0-1.8-0.1-2.4-0.2s-1.3-0.3-1.9-0.6v-3
			c0.7,0.3,1.4,0.6,2.2,0.8s1.6,0.3,2.2,0.3c1.3,0,1.9-0.4,1.9-1.1c0-0.3-0.1-0.5-0.3-0.7s-0.5-0.4-0.9-0.6s-1-0.5-1.7-0.8
			c-1-0.4-1.7-0.8-2.2-1.2s-0.8-0.8-1-1.2s-0.3-1-0.3-1.7c0-1.2,0.5-2.1,1.4-2.7s2.2-1,3.8-1c1.6,0,3.1,0.3,4.6,1l-1.1,2.6
			c-0.7-0.3-1.3-0.5-1.8-0.7s-1.2-0.3-1.7-0.3c-1.1,0-1.6,0.3-1.6,0.9c0,0.3,0.2,0.6,0.5,0.8s1.1,0.6,2.2,1c1,0.4,1.8,0.8,2.3,1.2
			s0.8,0.8,1.1,1.2S138.6,95,138.6,95.6z"/>
		<path class="st1" d="M149.8,99.5l-0.7-1.8H149c-0.6,0.8-1.2,1.3-1.9,1.6s-1.5,0.4-2.5,0.4c-1.3,0-2.2-0.4-3-1.1s-1.1-1.7-1.1-3.1
			c0-1.4,0.5-2.4,1.5-3.1s2.4-1,4.4-1.1l2.3-0.1v-0.6c0-1.3-0.7-2-2-2c-1,0-2.3,0.3-3.7,0.9l-1.2-2.4c1.5-0.8,3.2-1.2,5-1.2
			c1.8,0,3.1,0.4,4,1.1s1.4,1.9,1.4,3.5v8.7H149.8z M148.7,93.5l-1.4,0c-1,0-1.8,0.2-2.3,0.6s-0.8,0.9-0.8,1.6c0,1,0.6,1.5,1.7,1.5
			c0.8,0,1.5-0.2,2-0.7s0.7-1.1,0.7-1.9V93.5z"/>
		<path class="st1" d="M154.9,105.3c-0.9,0-1.7-0.1-2.4-0.3v-2.8c0.5,0.1,1.1,0.2,1.7,0.2c0.6,0,1-0.2,1.3-0.5s0.4-0.8,0.4-1.5v-14
			h3.6v14.5c0,1.4-0.4,2.5-1.2,3.2S156.4,105.3,154.9,105.3z M155.8,83c0-1.2,0.6-1.7,1.9-1.7s1.9,0.6,1.9,1.7c0,0.6-0.2,1-0.5,1.3
			s-0.8,0.5-1.5,0.5C156.4,84.8,155.8,84.2,155.8,83z"/>
		<path class="st1" d="M171.6,99.5l-0.7-1.8h-0.1c-0.6,0.8-1.2,1.3-1.9,1.6s-1.5,0.4-2.5,0.4c-1.3,0-2.2-0.4-3-1.1s-1.1-1.7-1.1-3.1
			c0-1.4,0.5-2.4,1.5-3.1s2.4-1,4.4-1.1l2.3-0.1v-0.6c0-1.3-0.7-2-2-2c-1,0-2.3,0.3-3.7,0.9l-1.2-2.4c1.5-0.8,3.2-1.2,5-1.2
			c1.8,0,3.1,0.4,4,1.1s1.4,1.9,1.4,3.5v8.7H171.6z M170.5,93.5l-1.4,0c-1,0-1.8,0.2-2.3,0.6s-0.8,0.9-0.8,1.6c0,1,0.6,1.5,1.7,1.5
			c0.8,0,1.5-0.2,2-0.7s0.7-1.1,0.7-1.9V93.5z"/>
	</g>
</g>
</svg>