<!-- Generator: Adobe Illustrator 19.1.0, SVG Export Plug-In  -->
<svg version="1.1"
	 xmlns="http://www.w3.org/2000/svg" xmlns:xlink="http://www.w3.org/1999/xlink" xmlns:a="http://ns.adobe.com/AdobeSVGViewerExtensions/3.0/"
	 x="0px" y="0px" width="148.2px" height="107.7px" viewBox="0 0 148.2 107.7"
	 style="overflow:scroll;enable-background:new 0 0 148.2 107.7;" xml:space="preserve">
<style type="text/css">
	.st0{fill:#E3E3E3;stroke:#E3E3E3;stroke-width:0.8181;stroke-miterlimit:10;}
	.st1{fill:#33CCCC;}
	.st2{fill:#EDECEA;}
	.st3{fill:#086A87;}
</style>
<defs>
</defs>
<path class="st0" d="M59.6,107.3H7.4c-3.8,0-7-3.1-7-7v-93c0-3.8,3.1-7,7-7h52.2c3.8,0,7,3.1,7,7v93
	C66.5,104.2,63.4,107.3,59.6,107.3z"/>
<rect x="7.6" y="12.8" class="st1" width="50.7" height="76.4"/>
<path class="st0" d="M140.8,107.3H88.6c-3.8,0-7-3.1-7-7v-93c0-3.8,3.1-7,7-7h52.2c3.8,0,7,3.1,7,7v93
	C147.8,104.2,144.7,107.3,140.8,107.3z"/>
<rect x="88.8" y="12.8" class="st1" width="50.7" height="76.4"/>
<path class="st2" d="M76.8,73.1"/>
<circle class="st1" cx="32.9" cy="97.3" r="4.2"/>
<circle class="st1" cx="114.7" cy="97.3" r="4.2"/>
<g>
	<path class="st3" d="M68,37.6h5.3l-8.5,25h-5.8l-8.5-25H56l4.7,14.9c0.3,0.9,0.5,1.9,0.8,3.1c0.3,1.2,0.5,2,0.5,2.4
		c0.1-1,0.6-2.9,1.3-5.5L68,37.6z"/>
	<path class="st3" d="M91.3,55.6c0,2.3-0.8,4-2.4,5.3s-3.9,1.9-6.8,1.9c-2.7,0-5-0.5-7.1-1.5v-4.9c1.7,0.8,3.1,1.3,4.3,1.6
		c1.2,0.3,2.2,0.5,3.2,0.5c1.2,0,2.1-0.2,2.7-0.7c0.6-0.4,0.9-1.1,0.9-2c0-0.5-0.1-0.9-0.4-1.3s-0.7-0.7-1.2-1.1
		c-0.5-0.4-1.6-0.9-3.2-1.7c-1.5-0.7-2.7-1.4-3.4-2.1C77,49,76.4,48.3,76,47.4c-0.5-0.9-0.7-1.9-0.7-3.1c0-2.2,0.7-3.9,2.2-5.2
		c1.5-1.3,3.6-1.9,6.2-1.9c1.3,0,2.5,0.2,3.7,0.5s2.4,0.7,3.7,1.3l-1.7,4.1c-1.3-0.5-2.4-0.9-3.3-1.1c-0.9-0.2-1.7-0.3-2.6-0.3
		c-1,0-1.8,0.2-2.3,0.7c-0.5,0.5-0.8,1.1-0.8,1.8c0,0.5,0.1,0.9,0.3,1.2c0.2,0.3,0.6,0.7,1,1c0.5,0.3,1.6,0.9,3.4,1.8
		c2.3,1.1,3.9,2.2,4.8,3.4C90.8,52.6,91.3,54,91.3,55.6z"/>
</g>
<g>
	<path class="st2" d="M31.6,69.5v-5.4c-7-1-10.3-6-10.7-10.3l6.2-1.5c0.3,3.2,2.4,6.1,7,6.1c3.3,0,5.2-1.6,5.2-3.8
		c0-1.7-1.3-3-3.8-3.6l-4.6-1c-5.4-1.2-8.8-4.6-8.8-9.4c0-5.3,4.1-9.2,9.5-10.1v-5.4h5.1v5.5c5.8,1.1,8.3,5.1,9,8.4l-6.2,1.8
		c-0.3-1.8-1.6-4.7-5.7-4.7c-3.2,0-5,1.9-5,3.9c0,1.6,1.1,2.9,3.5,3.4l4.6,1.1c6.3,1.4,9.2,5.2,9.2,9.7c0,4.6-3.3,8.9-9.3,9.8v5.4
		H31.6z"/>
</g>
<g>
	<path class="st2" d="M112.3,69.5v-5.4c-7-1-10.3-6-10.7-10.3l6.2-1.5c0.3,3.2,2.4,6.1,7,6.1c3.3,0,5.2-1.6,5.2-3.8
		c0-1.7-1.3-3-3.8-3.6l-4.6-1c-5.4-1.2-8.8-4.6-8.8-9.4c0-5.3,4.1-9.2,9.5-10.1v-5.4h5.1v5.5c5.8,1.1,8.3,5.1,9,8.4l-6.2,1.8
		c-0.3-1.8-1.6-4.7-5.7-4.7c-3.2,0-5,1.9-5,3.9c0,1.6,1.1,2.9,3.5,3.4l4.6,1.1c6.3,1.4,9.2,5.2,9.2,9.7c0,4.6-3.3,8.9-9.3,9.8v5.4
		H112.3z"/>
</g>
</svg>