<?xml version="1.0" encoding="utf-8"?>
<!-- Generator: Adobe Illustrator 19.0.0, SVG Export Plug-In . SVG Version: 6.00 Build 0)  -->
<svg version="1.1" id="Layer_1" xmlns="http://www.w3.org/2000/svg" xmlns:xlink="http://www.w3.org/1999/xlink" x="0px" y="0px"
	 viewBox="0 0 575 261.4" style="enable-background:new 0 0 575 261.4;" xml:space="preserve">
<style type="text/css">
	.st0{fill:#FFFFFF;stroke:#F2673A;stroke-width:3;stroke-miterlimit:10;}
	.st1{fill:#FFFFFF;stroke:#F2673A;stroke-width:2;stroke-miterlimit:10;}
	.st2{fill:#FFFFFF;stroke:#F2673A;stroke-miterlimit:10;}
	.st3{fill:none;stroke:#F2673A;stroke-width:2;stroke-linecap:round;stroke-linejoin:round;stroke-miterlimit:10;}
	.st4{fill:#FFFFFF;stroke:#F2673A;stroke-width:1.8254;stroke-linecap:round;stroke-linejoin:round;stroke-miterlimit:10;}
	.st5{fill:#F2673A;}
	.st6{fill:none;stroke:#F2673A;stroke-width:1.9267;stroke-miterlimit:10;}
	.st7{fill:none;stroke:#F2673A;stroke-width:1.0536;stroke-miterlimit:10;}
	.st8{fill:#49C2C6;}
	.st9{fill:#FFFFFF;}
	.st10{fill:#EDEDED;}
	.st11{fill:#C9C7C8;}
</style>
<g id="XMLID_46_">
	<g id="XMLID_52_">
		<path id="XMLID_42_" class="st0" d="M28.5,43.3l0.2,3v117.8l100-1.9v-115v0.2l-0.1-3.6c0-23.4-22.3-42.3-50-42.3
			C50.9,1.5,28.5,20,28.5,43.3"/>
		<path id="XMLID_41_" class="st1" d="M40.2,94.9h0.2c-7.3,0-13.2-5.4-13.2-12.8v-1.1c0-7.4,5.8-14.1,13.2-14.1h-0.2"/>
		<path id="XMLID_39_" class="st1" d="M131.2,76.9c0-5-4-9-9-9h-9.1c-5,0-9,4-9,9V87c0,5,4,9,9,9h9.1c5,0,9-4,9-9V76.9z"/>
		<polyline id="XMLID_38_" class="st2" points="62.7,113.9 62.7,145.4 93.7,145.4 93.7,113.9 		"/>
		<path id="XMLID_37_" class="st3" d="M77.8,124.1c-4.8-0.5-33.6-3.8-35.6-30.3V66.6v-0.7h14V40.7l10.3,25.2h61.7"/>
		<path id="XMLID_63_" class="st4" d="M114.3,65.2l0.8,28.6c-3.2,26.6-32.6,29.5-37.4,29.9c0,0-18.6-0.4-29.1-13.4"/>
		<path id="XMLID_36_" class="st5" d="M64.2,81.5c0,1.9-1.6,3.5-3.5,3.5l0,0c-1.9,0-3.5-1.6-3.5-3.5v-5c0-1.9,1.6-3.5,3.5-3.5l0,0
			c1.9,0,3.5,1.6,3.5,3.5V81.5z"/>
		<path id="XMLID_24_" class="st5" d="M101.2,81.5c0,1.9-1.6,3.5-3.5,3.5l0,0c-1.9,0-3.5-1.6-3.5-3.5v-5c0-1.9,1.6-3.5,3.5-3.5l0,0
			c1.9,0,3.5,1.6,3.5,3.5V81.5z"/>
		<path id="XMLID_23_" class="st1" d="M63.8,59.9h-7.1c-0.4,0-0.8-0.3-0.8-0.5l0,0c0-0.2,0.3-0.5,0.8-0.5h7.1c0.4,0,0.8,0.3,0.8,0.5
			l0,0C64.6,59.7,64.3,59.9,63.8,59.9z"/>
		<path id="XMLID_22_" class="st5" d="M98.4,131.9H80.6h-5.2H58.2c-32.9,8-36.4,38-36.4,38h53.6h5.2h54.1
			C134.8,169.9,131.3,139.9,98.4,131.9z"/>
		<path id="XMLID_21_" class="st1" d="M100.9,59.9h-7.1c-0.4,0-0.8,0-0.8,0l0,0c0,0,0.3,0,0.8,0H100.9c0.4,0,0.8,0,0.8,0l0,0
			C101.7,59.9,101.3,59.9,100.9,59.9z"/>
		<polygon id="XMLID_20_" class="st1" points="80.1,73.3 73.1,93.9 87.4,93.9 		"/>
		<path id="XMLID_56_" class="st6" d="M94,89.4c0,7.7-6.2,13.9-13.7,13.9c-7.6,0-13.7-6.2-13.7-13.9"/>
		<path id="XMLID_55_" class="st7" d="M100,75.3c0,0,1.5,3.2,4.6,0"/>
		<path id="XMLID_54_" class="st7" d="M54.4,75.3c0,0,1.5,3.2,4.6,0"/>
		<rect id="XMLID_19_" x="22.2" y="169.9" class="st5" width="113" height="91"/>
	</g>
	<path id="XMLID_51_" class="st8" d="M550,48H208.3c-13.8,0-25,11.2-25,25v102.6l-36.8,51.6h61.7H228h322c13.8,0,25-11.2,25-25V72.9
		C575,59.1,563.8,48,550,48z"/>
	<g id="XMLID_68_">
		<path id="XMLID_69_" class="st9" d="M265.5,73.1c6.8,0,12.8,4.9,12.8,13c0,8-6,12.9-12.8,12.9c-6.7,0-12.7-4.9-12.7-12.9
			C252.8,78,258.8,73.1,265.5,73.1z M265.5,94.3c3.9,0,7.8-2.7,7.8-8.3s-3.9-8.3-7.8-8.3c-3.8,0-7.7,2.7-7.7,8.3
			S261.7,94.3,265.5,94.3z"/>
		<path id="XMLID_72_" class="st9" d="M286.8,98.4h-4.7V81.2h4.5v2.1c1-1.8,3.1-2.6,5-2.6c4.3,0,6.2,3,6.2,6.8v10.9h-4.7v-10
			c0-1.9-0.9-3.4-3.2-3.4c-2,0-3.2,1.6-3.2,3.6V98.4z"/>
		<path id="XMLID_74_" class="st9" d="M302.6,98.4V73.1h4.7v25.3H302.6z"/>
		<path id="XMLID_76_" class="st9" d="M314.5,72.7c1.6,0,2.9,1.3,2.9,2.9c0,1.5-1.3,2.8-2.9,2.8c-1.6,0-2.9-1.3-2.9-2.8
			C311.7,73.9,313,72.7,314.5,72.7z M312.2,98.4V81.2h4.7v17.2H312.2z"/>
		<path id="XMLID_79_" class="st9" d="M326.5,98.4h-4.7V81.2h4.5v2.1c1.1-1.8,3.1-2.6,5-2.6c4.3,0,6.2,3,6.2,6.8v10.9h-4.7v-10
			c0-1.9-0.9-3.4-3.2-3.4c-2,0-3.2,1.6-3.2,3.6V98.4z"/>
		<path id="XMLID_81_" class="st9" d="M357.7,93.5c-0.9,3-3.6,5.5-7.8,5.5c-4.7,0-8.9-3.4-8.9-9.2c0-5.5,4.1-9.1,8.5-9.1
			c5.3,0,8.5,3.4,8.5,8.9c0,0.7-0.1,1.4-0.1,1.4h-12.3c0.1,2.3,2,3.9,4.3,3.9c2.2,0,3.4-1.1,3.9-2.6L357.7,93.5z M353.4,87.8
			c-0.1-1.7-1.2-3.4-3.9-3.4c-2.4,0-3.7,1.8-3.9,3.4H353.4z"/>
		<path id="XMLID_84_" class="st9" d="M375.5,89.1v9.3h-4.8V73.6h9.3c4.9,0,8.2,3.3,8.2,7.7c0,4.5-3.3,7.7-8.2,7.7H375.5z
			 M379.3,84.9c2.4,0,3.9-1.4,3.9-3.5c0-2.2-1.5-3.6-3.9-3.6h-3.8v7.1H379.3z"/>
		<path id="XMLID_87_" class="st9" d="M395,88.5l4.2-0.6c1-0.1,1.3-0.6,1.3-1.2c0-1.2-0.9-2.2-2.9-2.2c-2,0-3.2,1.3-3.3,2.8
			l-4.1-0.9c0.3-2.7,2.8-5.7,7.4-5.7c5.5,0,7.5,3.1,7.5,6.5v8.5c0,0.9,0.1,2.1,0.2,2.7H401c-0.1-0.5-0.2-1.4-0.2-2.1
			c-0.9,1.4-2.5,2.6-5.1,2.6c-3.7,0-5.9-2.5-5.9-5.2C389.8,90.6,392.1,88.9,395,88.5z M400.5,91.5v-0.8l-3.9,0.6
			c-1.2,0.2-2.1,0.8-2.1,2.2c0,1,0.7,2,2.2,2C398.7,95.4,400.5,94.5,400.5,91.5z"/>
		<path id="XMLID_90_" class="st9" d="M410.3,105.2l4.1-9L407,81.2h5.2l4.6,10.1l4.2-10.1h5l-10.8,24H410.3z"/>
		<path id="XMLID_92_" class="st9" d="M428.9,98.4V81.2h4.4v2.1c0.9-1.7,3.2-2.6,5-2.6c2.3,0,4.2,1,5.1,2.9c1.4-2.1,3.2-2.9,5.5-2.9
			c3.2,0,6.2,1.9,6.2,6.5v11.2h-4.5V88.2c0-1.9-0.9-3.3-3-3.3c-2,0-3.2,1.5-3.2,3.4v10.1h-4.6V88.2c0-1.9-0.9-3.3-3-3.3
			c-2,0-3.2,1.5-3.2,3.4v10.1H428.9z"/>
		<path id="XMLID_94_" class="st9" d="M475.3,93.5c-0.9,3-3.6,5.5-7.8,5.5c-4.7,0-8.9-3.4-8.9-9.2c0-5.5,4.1-9.1,8.5-9.1
			c5.3,0,8.5,3.4,8.5,8.9c0,0.7-0.1,1.4-0.1,1.4h-12.3c0.1,2.3,2,3.9,4.3,3.9c2.2,0,3.4-1.1,3.9-2.6L475.3,93.5z M471,87.8
			c-0.1-1.7-1.2-3.4-3.9-3.4c-2.4,0-3.7,1.8-3.9,3.4H471z"/>
		<path id="XMLID_97_" class="st9" d="M483.9,98.4h-4.7V81.2h4.5v2.1c1.1-1.8,3.1-2.6,5-2.6c4.3,0,6.2,3,6.2,6.8v10.9h-4.7v-10
			c0-1.9-0.9-3.4-3.2-3.4c-2,0-3.2,1.6-3.2,3.6V98.4z"/>
		<path id="XMLID_99_" class="st9" d="M505.4,81.2h3.5v4.1h-3.5v7.2c0,1.5,0.7,2,2,2c0.6,0,1.2-0.1,1.4-0.1v3.9
			c-0.4,0.2-1.3,0.4-2.6,0.4c-3.4,0-5.5-2-5.5-5.3v-8h-3.1v-4.1h0.9c1.8,0,2.7-1.2,2.7-2.7v-2.4h4.2V81.2z"/>
		<path id="XMLID_101_" class="st9" d="M252.2,128.5l4.2-0.6c1-0.1,1.3-0.6,1.3-1.2c0-1.2-0.9-2.2-2.9-2.2c-2,0-3.2,1.3-3.3,2.8
			l-4.1-0.9c0.3-2.7,2.8-5.7,7.4-5.7c5.5,0,7.5,3.1,7.5,6.5v8.5c0,0.9,0.1,2.1,0.2,2.7h-4.3c-0.1-0.5-0.2-1.4-0.2-2.1
			c-0.9,1.4-2.5,2.6-5.1,2.6c-3.7,0-5.9-2.5-5.9-5.2C247,130.6,249.3,128.9,252.2,128.5z M257.7,131.5v-0.8l-3.9,0.6
			c-1.2,0.2-2.1,0.8-2.1,2.2c0,1,0.7,2,2.2,2C255.9,135.4,257.7,134.5,257.7,131.5z"/>
		<path id="XMLID_104_" class="st9" d="M271.6,138.4h-4.7v-17.2h4.5v2.1c1-1.8,3.1-2.6,5-2.6c4.3,0,6.2,3,6.2,6.8v10.9H278v-10
			c0-1.9-0.9-3.4-3.2-3.4c-2,0-3.2,1.6-3.2,3.6V138.4z"/>
		<path id="XMLID_106_" class="st9" d="M303.8,135.3c0,1.2,0.1,2.4,0.1,3.1h-4.4c-0.1-0.3-0.2-1.2-0.2-2c-0.8,1.4-2.5,2.4-4.8,2.4
			c-4.9,0-8.4-3.9-8.4-9.1c0-5,3.4-9,8.3-9c3,0,4.4,1.2,4.9,2.1v-9.8h4.6V135.3z M295.1,134.7c2.4,0,4.2-1.8,4.2-4.9
			c0-3.1-1.9-4.8-4.2-4.8c-2.4,0-4.3,1.8-4.3,4.8C290.8,132.9,292.6,134.7,295.1,134.7z"/>
		<path id="XMLID_109_" class="st9" d="M323.2,121.2h3.5v4.1h-3.5v7.2c0,1.5,0.7,2,2,2c0.6,0,1.2-0.1,1.4-0.1v3.9
			c-0.4,0.2-1.3,0.4-2.6,0.4c-3.4,0-5.5-2-5.5-5.3v-8h-3.1v-4.1h0.9c1.8,0,2.7-1.2,2.7-2.7v-2.4h4.2V121.2z"/>
		<path id="XMLID_111_" class="st9" d="M334.5,138.4h-4.7v-25.3h4.7v9.6c1.1-1.3,3-1.9,4.7-1.9c4.4,0,6.4,3,6.4,6.8v10.9h-4.7v-10
			c0-1.9-0.9-3.4-3.2-3.4c-2,0-3.1,1.5-3.2,3.4V138.4z"/>
		<path id="XMLID_113_" class="st9" d="M365.7,133.5c-0.9,3-3.6,5.5-7.8,5.5c-4.7,0-8.9-3.4-8.9-9.2c0-5.5,4.1-9.1,8.5-9.1
			c5.3,0,8.5,3.4,8.5,8.9c0,0.7-0.1,1.4-0.1,1.4h-12.3c0.1,2.3,2,3.9,4.3,3.9c2.2,0,3.4-1.1,3.9-2.6L365.7,133.5z M361.3,127.8
			c-0.1-1.7-1.2-3.4-3.9-3.4c-2.4,0-3.7,1.8-3.9,3.4H361.3z"/>
		<path id="XMLID_116_" class="st9" d="M378.6,138.4v-24.8h8.9c7.1,0,12.3,4.6,12.3,12.4s-5.2,12.4-12.3,12.4H378.6z M387.3,133.9
			c4.1,0,7.5-2.5,7.5-7.9s-3.4-7.9-7.4-7.9h-3.9v15.9H387.3z"/>
		<path id="XMLID_119_" class="st9" d="M419.1,133.5c-0.9,3-3.6,5.5-7.8,5.5c-4.7,0-8.9-3.4-8.9-9.2c0-5.5,4.1-9.1,8.5-9.1
			c5.3,0,8.5,3.4,8.5,8.9c0,0.7-0.1,1.4-0.1,1.4H407c0.1,2.3,2,3.9,4.3,3.9c2.2,0,3.4-1.1,3.9-2.6L419.1,133.5z M414.8,127.8
			c-0.1-1.7-1.2-3.4-3.9-3.4c-2.4,0-3.7,1.8-3.9,3.4H414.8z"/>
		<path id="XMLID_122_" class="st9" d="M426.4,129.8c0,3.1,2,4.9,4.4,4.9c2.4,0,3.6-1.6,4-2.9l4.1,1.4c-0.8,2.9-3.5,5.8-8.1,5.8
			c-5.1,0-9.1-3.9-9.1-9.1c0-5.3,3.9-9.1,8.9-9.1c4.7,0,7.4,2.9,8.1,5.8l-4.2,1.4c-0.4-1.4-1.5-2.9-3.8-2.9
			C428.4,125,426.4,126.7,426.4,129.8z"/>
		<path id="XMLID_124_" class="st9" d="M444.6,112.7c1.6,0,2.9,1.3,2.9,2.9c0,1.5-1.3,2.8-2.9,2.8c-1.6,0-2.9-1.3-2.9-2.8
			C441.7,113.9,443,112.7,444.6,112.7z M442.3,138.4v-17.2h4.7v17.2H442.3z"/>
		<path id="XMLID_127_" class="st9" d="M454.4,132.7c0.1,1.4,1.1,2.6,3.2,2.6c1.5,0,2.3-0.8,2.3-1.7c0-0.8-0.5-1.4-1.9-1.7l-2.3-0.5
			c-3.3-0.7-4.8-2.7-4.8-5.1c0-3.1,2.7-5.6,6.4-5.6c4.9,0,6.5,3.1,6.8,5l-3.9,0.9c-0.1-1-0.9-2.3-2.8-2.3c-1.2,0-2.2,0.7-2.2,1.7
			c0,0.8,0.6,1.4,1.6,1.5l2.5,0.5c3.4,0.7,5.1,2.8,5.1,5.3c0,2.8-2.2,5.7-6.7,5.7c-5.2,0-7-3.4-7.2-5.3L454.4,132.7z"/>
		<path id="XMLID_129_" class="st9" d="M470.4,112.7c1.6,0,2.9,1.3,2.9,2.9c0,1.5-1.3,2.8-2.9,2.8c-1.6,0-2.9-1.3-2.9-2.8
			C467.5,113.9,468.8,112.7,470.4,112.7z M468.1,138.4v-17.2h4.7v17.2H468.1z"/>
		<path id="XMLID_132_" class="st9" d="M494.4,129.8c0,5.3-3.9,9.1-9,9.1s-9-3.9-9-9.1c0-5.3,3.9-9.1,9-9.1S494.4,124.5,494.4,129.8
			z M489.8,129.8c0-3.3-2.1-4.9-4.4-4.9c-2.3,0-4.4,1.6-4.4,4.9c0,3.2,2.1,4.9,4.4,4.9C487.7,134.7,489.8,133.1,489.8,129.8z"/>
		<path id="XMLID_135_" class="st9" d="M502.8,138.4h-4.7v-17.2h4.5v2.1c1-1.8,3.1-2.6,5-2.6c4.3,0,6.2,3,6.2,6.8v10.9h-4.7v-10
			c0-1.9-0.9-3.4-3.2-3.4c-2,0-3.2,1.6-3.2,3.6V138.4z"/>
		<path id="XMLID_137_" class="st9" d="M288.9,178.4V161l-7.1,17.4h-4l-7.1-17.3v17.3H266v-24.8h6.4l7.5,17.9l7.3-17.9h6.6v24.8
			H288.9z"/>
		<path id="XMLID_139_" class="st9" d="M303,168.5l4.2-0.6c1-0.1,1.3-0.6,1.3-1.2c0-1.2-0.9-2.2-2.9-2.2c-2,0-3.2,1.3-3.3,2.8
			l-4.1-0.9c0.3-2.7,2.8-5.7,7.4-5.7c5.5,0,7.5,3.1,7.5,6.5v8.5c0,0.9,0.1,2.1,0.2,2.7H309c-0.1-0.5-0.2-1.4-0.2-2.1
			c-0.9,1.4-2.5,2.6-5.1,2.6c-3.7,0-5.9-2.5-5.9-5.2C297.8,170.6,300.1,168.9,303,168.5z M308.5,171.5v-0.8l-3.9,0.6
			c-1.2,0.2-2.1,0.8-2.1,2.2c0,1,0.7,2,2.2,2C306.7,175.4,308.5,174.5,308.5,171.5z"/>
		<path id="XMLID_142_" class="st9" d="M327.6,168.4l7,10h-5.7l-4.6-6.6l-1.9,2v4.6h-4.7v-25.3h4.7v14.5l6-6.4h6.1L327.6,168.4z"/>
		<path id="XMLID_144_" class="st9" d="M339.6,152.7c1.6,0,2.9,1.3,2.9,2.9c0,1.5-1.3,2.8-2.9,2.8c-1.6,0-2.9-1.3-2.9-2.8
			C336.8,153.9,338.1,152.7,339.6,152.7z M337.3,178.4v-17.2h4.7v17.2H337.3z"/>
		<path id="XMLID_147_" class="st9" d="M351.6,178.4h-4.7v-17.2h4.5v2.1c1-1.8,3.1-2.6,5-2.6c4.3,0,6.2,3,6.2,6.8v10.9H358v-10
			c0-1.9-0.9-3.4-3.2-3.4c-2,0-3.2,1.6-3.2,3.6V178.4z"/>
		<path id="XMLID_149_" class="st9" d="M370.4,178.2c0.3,1.9,1.8,3.3,4,3.3c2.9,0,4.6-1.5,4.6-4.8v-1.3c-0.7,1.1-2.3,2.2-4.8,2.2
			c-4.6,0-8-3.5-8-8.4c0-4.6,3.3-8.4,8-8.4c2.7,0,4.3,1.2,4.9,2.3v-2h4.5v15.4c0,4.7-2.6,9-9,9c-4.7,0-7.9-2.9-8.4-6.2L370.4,178.2z
			 M379,169.3c0-2.7-1.8-4.3-4.1-4.3c-2.3,0-4.1,1.7-4.1,4.3c0,2.7,1.7,4.4,4.1,4.4C377.4,173.7,379,171.9,379,169.3z"/>
		<path id="XMLID_152_" class="st9" d="M420.2,178.4V161l-7.1,17.4h-4l-7.1-17.3v17.3h-4.6v-24.8h6.4l7.5,17.9l7.3-17.9h6.6v24.8
			H420.2z"/>
		<path id="XMLID_154_" class="st9" d="M446.9,169.8c0,5.3-3.9,9.1-9,9.1s-9-3.9-9-9.1c0-5.3,3.9-9.1,9-9.1S446.9,164.5,446.9,169.8
			z M442.3,169.8c0-3.3-2.1-4.9-4.4-4.9c-2.3,0-4.4,1.6-4.4,4.9c0,3.2,2.1,4.9,4.4,4.9C440.2,174.7,442.3,173.1,442.3,169.8z"/>
		<path id="XMLID_157_" class="st9" d="M467,175.3c0,1.2,0.1,2.4,0.1,3.1h-4.4c-0.1-0.3-0.2-1.2-0.2-2c-0.8,1.4-2.5,2.4-4.8,2.4
			c-4.9,0-8.4-3.9-8.4-9.1c0-5,3.4-9,8.3-9c3,0,4.4,1.2,4.9,2.1v-9.8h4.6V175.3z M458.3,174.7c2.4,0,4.2-1.8,4.2-4.9
			c0-3.1-1.9-4.8-4.2-4.8c-2.4,0-4.3,1.8-4.3,4.8C454,172.9,455.8,174.7,458.3,174.7z"/>
		<path id="XMLID_160_" class="st9" d="M487.5,173.5c-0.9,3-3.6,5.5-7.8,5.5c-4.7,0-8.9-3.4-8.9-9.2c0-5.5,4.1-9.1,8.5-9.1
			c5.3,0,8.5,3.4,8.5,8.9c0,0.7-0.1,1.4-0.1,1.4h-12.3c0.1,2.3,2,3.9,4.3,3.9c2.2,0,3.4-1.1,3.9-2.6L487.5,173.5z M483.2,167.8
			c-0.1-1.7-1.2-3.4-3.9-3.4c-2.4,0-3.7,1.8-3.9,3.4H483.2z"/>
		<path id="XMLID_163_" class="st9" d="M491.4,178.4v-25.3h4.7v25.3H491.4z"/>
	</g>
	<path id="XMLID_48_" class="st10" d="M159.1,247.2H0V161c0-2.8,2.2-5,5-5h149.1c2.8,0,5,2.2,5,5V247.2z"/>
	<path id="XMLID_47_" class="st11" d="M152.1,261.4H7c-3.9,0-7-3.1-7-7v-7.2h159.1v7.2C159.1,258.3,155.9,261.4,152.1,261.4z"/>
</g>
</svg>
