<!-- Generator: Adobe Illustrator 19.0.0, SVG Export Plug-In  -->
<svg version="1.1"
	 xmlns="http://www.w3.org/2000/svg" xmlns:xlink="http://www.w3.org/1999/xlink" xmlns:a="http://ns.adobe.com/AdobeSVGViewerExtensions/3.0/"
	 x="0px" y="0px" width="120.8px" height="120.8px" viewBox="0 0 120.8 120.8" style="enable-background:new 0 0 120.8 120.8;"
	 xml:space="preserve">
<style type="text/css">
	.st0{fill:#F9CF00;}
	.st1{fill:#FFFFFF;}
	.st2{fill:#086A87;}
	.st3{fill:#59B9C9;}
</style>
<defs>
</defs>
<g>
	<circle class="st0" cx="60.4" cy="60.4" r="60.4"/>
	
		<rect x="49.5" y="36.8" transform="matrix(0.7071 0.7071 -0.7071 0.7071 63.3551 -19.4247)" class="st1" width="11.2" height="60"/>
	<path class="st2" d="M26.1,94.9L26.1,94.9c-1.9-1.9-1.9-5.1,0-7l23.1-23.1l7.9,7.9L34.9,94.9C32.5,97.3,28.5,97.3,26.1,94.9z"/>
	<circle class="st3" cx="76.7" cy="45.9" r="26.8"/>
	<circle class="st1" cx="76.5" cy="45.7" r="19"/>
	<path class="st2" d="M68.8,47L68.8,47c-0.9-0.9-0.8-2.4,0.1-3.3L81,32.1c0.9-0.9,2.4-0.8,3.3,0.1v0c0.9,0.9,0.8,2.4-0.1,3.3
		L72,47.1C71.1,47.9,69.6,47.9,68.8,47z"/>
	<path class="st2" d="M72.5,55.1L72.5,55.1c-0.9-0.9-0.8-2.4,0.1-3.3l12.2-11.6c0.9-0.9,2.4-0.8,3.3,0.1v0c0.9,0.9,0.8,2.4-0.1,3.3
		L75.8,55.2C74.9,56.1,73.4,56,72.5,55.1z"/>
</g>
</svg>