<!-- Generator: Adobe Illustrator 19.0.0, SVG Export Plug-In  -->
<svg version="1.1"
	 xmlns="http://www.w3.org/2000/svg" xmlns:xlink="http://www.w3.org/1999/xlink" xmlns:a="http://ns.adobe.com/AdobeSVGViewerExtensions/3.0/"
	 x="0px" y="0px" width="402.1px" height="477.7px" viewBox="0 0 402.1 477.7" style="enable-background:new 0 0 402.1 477.7;"
	 xml:space="preserve">
<style type="text/css">
	.st0{fill:none;stroke:#086A87;stroke-width:2;stroke-miterlimit:10;}
	.st1{fill:#33CCCC;}
	.st2{fill:#086A87;}
	.st3{fill:#FF6633;}
	.st4{fill:#F99700;}
	.st5{fill:#D1D9DB;}
	.st6{fill:#FFFFFF;}
</style>
<defs>
</defs>
<g>
	<path class="st0" d="M166.2,1c-37.2,0-67.4,30.2-67.4,67.4v99.2h134.8V68.4C233.6,31.2,203.4,1,166.2,1z"/>
	<path class="st0" d="M272,1c-37.2,0-67.4,30.2-67.4,67.4v99.2h134.8V68.4C339.4,31.2,309.3,1,272,1z"/>
	<rect y="107.7" class="st1" width="333.4" height="369.9"/>
	<rect y="322" class="st2" width="107.3" height="155.7"/>
	<rect x="224.2" y="322" class="st2" width="113" height="155.7"/>
	<rect y="107.7" class="st3" width="336.7" height="107.1"/>
	<rect x="12.6" y="214.9" class="st4" width="324.6" height="107.1"/>
	<rect y="214.9" class="st5" width="155.9" height="107.1"/>
	<g>
		<path class="st2" d="M45.9,262.1h-4.5v-1.2l1.2-0.6v-6.5l-1.2-0.6v-1.2h4.5v1.2l-1.2,0.6v6.5l1.2,0.6V262.1z"/>
		<path class="st2" d="M52.7,259.9c0,0.8-0.3,1.4-0.8,1.8c-0.5,0.4-1.4,0.6-2.4,0.6c-0.6,0-1,0-1.4-0.1c-0.4-0.1-0.8-0.2-1.1-0.3
			v-1.7c0.4,0.2,0.8,0.3,1.3,0.5s0.9,0.2,1.3,0.2c0.8,0,1.1-0.2,1.1-0.7c0-0.2-0.1-0.3-0.2-0.4c-0.1-0.1-0.3-0.2-0.5-0.3
			c-0.2-0.1-0.6-0.3-1-0.5c-0.6-0.2-1-0.5-1.3-0.7c-0.3-0.2-0.5-0.5-0.6-0.7c-0.1-0.3-0.2-0.6-0.2-1c0-0.7,0.3-1.2,0.8-1.6
			c0.5-0.4,1.3-0.6,2.2-0.6c0.9,0,1.8,0.2,2.7,0.6l-0.6,1.5c-0.4-0.2-0.7-0.3-1.1-0.4c-0.3-0.1-0.7-0.2-1-0.2
			c-0.6,0-0.9,0.2-0.9,0.5c0,0.2,0.1,0.3,0.3,0.5s0.6,0.3,1.3,0.6c0.6,0.2,1,0.5,1.3,0.7c0.3,0.2,0.5,0.5,0.6,0.7
			C52.7,259.2,52.7,259.5,52.7,259.9z"/>
		<path class="st2" d="M61.2,260.6c0.4,0,0.8-0.1,1.3-0.2v1.6c-0.5,0.2-1.2,0.3-1.9,0.3c-0.8,0-1.4-0.2-1.8-0.6
			c-0.4-0.4-0.6-1.1-0.6-1.9v-3.7h-1v-0.9l1.1-0.7l0.6-1.6h1.3v1.6h2.1v1.6h-2.1v3.7c0,0.3,0.1,0.5,0.2,0.7
			C60.7,260.5,61,260.6,61.2,260.6z"/>
		<path class="st2" d="M71.1,262.1h-2.1v-4.5c0-1.1-0.4-1.7-1.2-1.7c-0.6,0-1,0.2-1.3,0.6s-0.4,1-0.4,1.9v3.6h-2.1v-10.6h2.1v2.2
			c0,0.2,0,0.6,0,1.2l0,0.6h0.1c0.5-0.7,1.2-1.1,2.2-1.1c0.9,0,1.6,0.2,2,0.7s0.7,1.2,0.7,2.1V262.1z"/>
		<path class="st2" d="M76.7,262.3c-1.2,0-2.2-0.3-2.9-1c-0.7-0.7-1-1.6-1-2.9c0-1.3,0.3-2.3,1-3c0.6-0.7,1.5-1,2.7-1
			c1.1,0,1.9,0.3,2.5,0.9s0.9,1.5,0.9,2.5v1h-4.9c0,0.6,0.2,1.1,0.5,1.4s0.8,0.5,1.4,0.5c0.5,0,0.9,0,1.3-0.1s0.8-0.2,1.3-0.5v1.6
			c-0.4,0.2-0.8,0.3-1.2,0.4C77.8,262.2,77.3,262.3,76.7,262.3z M76.5,255.8c-0.4,0-0.8,0.1-1,0.4c-0.3,0.3-0.4,0.7-0.4,1.2h2.9
			c0-0.5-0.1-0.9-0.4-1.2C77.2,256,76.9,255.8,76.5,255.8z"/>
		<path class="st2" d="M90.5,259.9c0,0.8-0.3,1.4-0.8,1.8c-0.5,0.4-1.4,0.6-2.4,0.6c-0.6,0-1,0-1.4-0.1c-0.4-0.1-0.8-0.2-1.1-0.3
			v-1.7c0.4,0.2,0.8,0.3,1.3,0.5s0.9,0.2,1.3,0.2c0.8,0,1.1-0.2,1.1-0.7c0-0.2-0.1-0.3-0.2-0.4c-0.1-0.1-0.3-0.2-0.5-0.3
			c-0.2-0.1-0.6-0.3-1-0.5c-0.6-0.2-1-0.5-1.3-0.7c-0.3-0.2-0.5-0.5-0.6-0.7c-0.1-0.3-0.2-0.6-0.2-1c0-0.7,0.3-1.2,0.8-1.6
			c0.5-0.4,1.3-0.6,2.2-0.6c0.9,0,1.8,0.2,2.7,0.6l-0.6,1.5c-0.4-0.2-0.7-0.3-1.1-0.4c-0.3-0.1-0.7-0.2-1-0.2
			c-0.6,0-0.9,0.2-0.9,0.5c0,0.2,0.1,0.3,0.3,0.5s0.6,0.3,1.3,0.6c0.6,0.2,1,0.5,1.3,0.7c0.3,0.2,0.5,0.5,0.6,0.7
			C90.5,259.2,90.5,259.5,90.5,259.9z"/>
		<path class="st2" d="M95.4,260.6c0.4,0,0.8-0.1,1.3-0.2v1.6c-0.5,0.2-1.2,0.3-1.9,0.3c-0.8,0-1.4-0.2-1.8-0.6
			c-0.4-0.4-0.6-1.1-0.6-1.9v-3.7h-1v-0.9l1.1-0.7l0.6-1.6h1.3v1.6h2.1v1.6h-2.1v3.7c0,0.3,0.1,0.5,0.2,0.7
			C94.9,260.5,95.1,260.6,95.4,260.6z"/>
		<path class="st2" d="M105.2,258.3c0,1.2-0.3,2.2-1,2.9s-1.6,1.1-2.7,1.1c-0.7,0-1.4-0.2-1.9-0.5c-0.6-0.3-1-0.8-1.3-1.4
			s-0.5-1.3-0.5-2.1c0-1.2,0.3-2.2,1-2.9c0.7-0.7,1.6-1,2.7-1c0.7,0,1.4,0.2,1.9,0.5s1,0.8,1.3,1.4
			C105,256.8,105.2,257.5,105.2,258.3z M99.9,258.3c0,0.8,0.1,1.3,0.4,1.7c0.2,0.4,0.7,0.6,1.2,0.6c0.6,0,1-0.2,1.2-0.6
			c0.2-0.4,0.4-1,0.4-1.7c0-0.8-0.1-1.3-0.4-1.7s-0.6-0.6-1.2-0.6c-0.6,0-1,0.2-1.2,0.6C100,257,99.9,257.5,99.9,258.3z"/>
		<path class="st2" d="M111.2,254.3c0.3,0,0.5,0,0.7,0.1l-0.2,2c-0.2,0-0.4-0.1-0.6-0.1c-0.7,0-1.2,0.2-1.6,0.5
			c-0.4,0.3-0.6,0.8-0.6,1.4v3.9h-2.1v-7.6h1.6l0.3,1.3h0.1c0.2-0.4,0.6-0.8,1-1C110.3,254.5,110.7,254.3,111.2,254.3z"/>
		<path class="st2" d="M116.6,262.3c-1.2,0-2.2-0.3-2.9-1c-0.7-0.7-1-1.6-1-2.9c0-1.3,0.3-2.3,1-3c0.6-0.7,1.5-1,2.7-1
			c1.1,0,1.9,0.3,2.5,0.9s0.9,1.5,0.9,2.5v1h-4.9c0,0.6,0.2,1.1,0.5,1.4s0.8,0.5,1.4,0.5c0.5,0,0.9,0,1.3-0.1s0.8-0.2,1.3-0.5v1.6
			c-0.4,0.2-0.8,0.3-1.2,0.4C117.7,262.2,117.2,262.3,116.6,262.3z M116.3,255.8c-0.4,0-0.8,0.1-1,0.4c-0.3,0.3-0.4,0.7-0.4,1.2h2.9
			c0-0.5-0.1-0.9-0.4-1.2C117.1,256,116.7,255.8,116.3,255.8z"/>
		<path class="st2" d="M47.7,278.9h-2.1v-10.6h2.1V278.9z"/>
		<path class="st2" d="M53.3,279.1c-1.2,0-2.2-0.3-2.9-1c-0.7-0.7-1-1.6-1-2.9c0-1.3,0.3-2.3,1-3c0.6-0.7,1.5-1,2.7-1
			c1.1,0,1.9,0.3,2.5,0.9s0.9,1.5,0.9,2.5v1h-4.9c0,0.6,0.2,1.1,0.5,1.4s0.8,0.5,1.4,0.5c0.5,0,0.9,0,1.3-0.1s0.8-0.2,1.3-0.5v1.6
			c-0.4,0.2-0.8,0.3-1.2,0.4C54.4,279,53.9,279.1,53.3,279.1z M53,272.6c-0.4,0-0.8,0.1-1,0.4c-0.3,0.3-0.4,0.7-0.4,1.2h2.9
			c0-0.5-0.1-0.9-0.4-1.2C53.8,272.8,53.5,272.6,53,272.6z"/>
		<path class="st2" d="M64.8,278.9c0,1.1-0.3,1.9-1,2.5c-0.6,0.6-1.6,0.9-2.9,0.9c-1.1,0-2.1-0.2-2.9-0.5v-1.7
			c0.9,0.4,1.9,0.6,3,0.6c1.1,0,1.6-0.6,1.6-1.7v-0.2l0.1-0.9h-0.1c-0.5,0.8-1.2,1.1-2.2,1.1c-0.9,0-1.6-0.4-2.1-1.1
			c-0.5-0.7-0.8-1.7-0.8-2.9c0-1.3,0.3-2.2,0.8-2.9c0.5-0.7,1.2-1,2.2-1c0.9,0,1.7,0.4,2.2,1.1h0.1l0.2-1h1.8V278.9z M61.3,277.4
			c0.6,0,1-0.2,1.2-0.5c0.2-0.3,0.4-0.8,0.4-1.6v-0.3c0-0.8-0.1-1.4-0.4-1.8c-0.3-0.4-0.7-0.5-1.2-0.5c-1,0-1.5,0.8-1.5,2.3
			c0,0.8,0.1,1.3,0.4,1.7C60.4,277.2,60.8,277.4,61.3,277.4z"/>
		<path class="st2" d="M66.9,269.3c0-0.7,0.4-1,1.1-1c0.8,0,1.1,0.3,1.1,1c0,0.3-0.1,0.6-0.3,0.8c-0.2,0.2-0.5,0.3-0.9,0.3
			C67.3,270.3,66.9,270,66.9,269.3z M69.1,278.9H67v-7.6h2.1V278.9z"/>
		<path class="st2" d="M74.5,277.4c0.4,0,0.8-0.1,1.3-0.2v1.6c-0.5,0.2-1.2,0.3-1.9,0.3c-0.8,0-1.4-0.2-1.8-0.6
			c-0.4-0.4-0.6-1.1-0.6-1.9v-3.7h-1V272l1.1-0.7l0.6-1.6h1.3v1.6h2.1v1.6h-2.1v3.7c0,0.3,0.1,0.5,0.2,0.7
			C74,277.3,74.2,277.4,74.5,277.4z"/>
		<path class="st2" d="M78.1,275.6v-0.5c0-0.4,0.1-0.8,0.3-1.1c0.2-0.3,0.5-0.7,1-1c0.5-0.3,0.8-0.6,0.9-0.8
			c0.2-0.2,0.2-0.5,0.2-0.7c0-0.3-0.1-0.5-0.3-0.7s-0.5-0.2-0.9-0.2c-0.7,0-1.5,0.2-2.3,0.7l-0.7-1.5c1-0.6,2.1-0.9,3.2-0.9
			c0.9,0,1.7,0.2,2.2,0.7s0.8,1.1,0.8,1.8c0,0.5-0.1,0.9-0.3,1.3c-0.2,0.4-0.7,0.8-1.3,1.2c-0.4,0.3-0.7,0.6-0.8,0.7
			s-0.2,0.4-0.2,0.7v0.4H78.1z M77.9,278c0-0.4,0.1-0.7,0.3-0.9s0.5-0.3,0.9-0.3c0.4,0,0.7,0.1,0.9,0.3c0.2,0.2,0.3,0.5,0.3,0.9
			c0,0.4-0.1,0.6-0.3,0.9c-0.2,0.2-0.5,0.3-0.9,0.3c-0.4,0-0.7-0.1-0.9-0.3C78,278.6,77.9,278.3,77.9,278z"/>
	</g>
	<g>
		<path class="st6" d="M194.8,268.4h-2.4l-1.4-5.3c0-0.2-0.1-0.6-0.3-1.2c-0.1-0.6-0.2-1-0.2-1.2c0,0.2-0.1,0.6-0.2,1.2
			c-0.1,0.5-0.2,0.9-0.3,1.2l-1.3,5.2h-2.4l-2.5-10h2.1l1.3,5.5c0.2,1,0.4,1.9,0.5,2.6c0-0.3,0.1-0.7,0.2-1.2c0.1-0.5,0.2-1,0.3-1.3
			l1.5-5.6h2l1.5,5.6c0.1,0.3,0.1,0.6,0.2,1.1s0.2,1,0.2,1.3c0-0.4,0.1-0.8,0.2-1.3c0.1-0.5,0.2-1,0.3-1.3l1.3-5.5h2.1L194.8,268.4z
			"/>
		<path class="st6" d="M205.5,268.4h-2.1V264c0-1.1-0.4-1.7-1.2-1.7c-0.6,0-1,0.2-1.3,0.6s-0.4,1-0.4,1.9v3.6h-2.1v-10.6h2.1v2.2
			c0,0.2,0,0.6,0,1.2l0,0.6h0.1c0.5-0.7,1.2-1.1,2.2-1.1c0.9,0,1.6,0.2,2,0.7s0.7,1.2,0.7,2.1V268.4z"/>
		<path class="st6" d="M212.5,268.4l-0.4-1H212c-0.4,0.4-0.7,0.7-1.1,0.9c-0.4,0.2-0.9,0.3-1.5,0.3c-0.7,0-1.3-0.2-1.7-0.6
			c-0.4-0.4-0.6-1-0.6-1.8c0-0.8,0.3-1.4,0.9-1.8c0.6-0.4,1.4-0.6,2.6-0.6l1.3,0v-0.3c0-0.8-0.4-1.2-1.2-1.2c-0.6,0-1.3,0.2-2.2,0.6
			l-0.7-1.4c0.9-0.5,1.9-0.7,2.9-0.7c1,0,1.8,0.2,2.4,0.7s0.8,1.1,0.8,2v5.1H212.5z M211.9,264.9l-0.8,0c-0.6,0-1.1,0.1-1.4,0.3
			c-0.3,0.2-0.4,0.5-0.4,0.9c0,0.6,0.3,0.9,1,0.9c0.5,0,0.9-0.1,1.2-0.4c0.3-0.3,0.4-0.6,0.4-1.1V264.9z"/>
		<path class="st6" d="M219.3,266.9c0.4,0,0.8-0.1,1.3-0.2v1.6c-0.5,0.2-1.2,0.3-1.9,0.3c-0.8,0-1.4-0.2-1.8-0.6
			c-0.4-0.4-0.6-1.1-0.6-1.9v-3.7h-1v-0.9l1.1-0.7l0.6-1.6h1.3v1.6h2.1v1.6h-2.1v3.7c0,0.3,0.1,0.5,0.3,0.7
			C218.8,266.8,219.1,266.9,219.3,266.9z"/>
		<path class="st6" d="M232.9,268.4h-2.1V264c0-1.1-0.4-1.7-1.2-1.7c-0.6,0-1,0.2-1.3,0.6s-0.4,1-0.4,1.9v3.6h-2.1v-10.6h2.1v2.2
			c0,0.2,0,0.6,0,1.2l0,0.6h0.1c0.5-0.7,1.2-1.1,2.2-1.1c0.9,0,1.6,0.2,2,0.7s0.7,1.2,0.7,2.1V268.4z"/>
		<path class="st6" d="M239.9,268.4l-0.4-1h-0.1c-0.4,0.4-0.7,0.7-1.1,0.9c-0.4,0.2-0.9,0.3-1.5,0.3c-0.7,0-1.3-0.2-1.7-0.6
			c-0.4-0.4-0.6-1-0.6-1.8c0-0.8,0.3-1.4,0.9-1.8c0.6-0.4,1.4-0.6,2.6-0.6l1.3,0v-0.3c0-0.8-0.4-1.2-1.2-1.2c-0.6,0-1.3,0.2-2.2,0.6
			l-0.7-1.4c0.9-0.5,1.9-0.7,2.9-0.7c1,0,1.8,0.2,2.4,0.7s0.8,1.1,0.8,2v5.1H239.9z M239.3,264.9l-0.8,0c-0.6,0-1.1,0.1-1.4,0.3
			c-0.3,0.2-0.4,0.5-0.4,0.9c0,0.6,0.3,0.9,1,0.9c0.5,0,0.9-0.1,1.2-0.4c0.3-0.3,0.4-0.6,0.4-1.1V264.9z"/>
		<path class="st6" d="M247.7,268.6c-0.9,0-1.6-0.3-2.1-1h-0.1c0.1,0.6,0.1,1,0.1,1.1v3.1h-2.1v-11h1.7l0.3,1h0.1
			c0.5-0.8,1.2-1.1,2.2-1.1c0.9,0,1.6,0.3,2.1,1c0.5,0.7,0.8,1.7,0.8,2.9c0,0.8-0.1,1.5-0.4,2.1s-0.6,1.1-1,1.4
			C248.8,268.4,248.3,268.6,247.7,268.6z M247.1,262.3c-0.5,0-0.9,0.2-1.1,0.5c-0.2,0.3-0.4,0.8-0.4,1.6v0.2c0,0.8,0.1,1.4,0.4,1.8
			c0.2,0.4,0.6,0.5,1.2,0.5c0.9,0,1.4-0.8,1.4-2.3c0-0.8-0.1-1.3-0.3-1.7C247.9,262.5,247.6,262.3,247.1,262.3z"/>
		<path class="st6" d="M256.5,268.6c-0.9,0-1.6-0.3-2.1-1h-0.1c0.1,0.6,0.1,1,0.1,1.1v3.1h-2.1v-11h1.7l0.3,1h0.1
			c0.5-0.8,1.2-1.1,2.2-1.1c0.9,0,1.6,0.3,2.1,1c0.5,0.7,0.8,1.7,0.8,2.9c0,0.8-0.1,1.5-0.4,2.1s-0.6,1.1-1,1.4
			C257.7,268.4,257.1,268.6,256.5,268.6z M255.9,262.3c-0.5,0-0.9,0.2-1.1,0.5c-0.2,0.3-0.4,0.8-0.4,1.6v0.2c0,0.8,0.1,1.4,0.4,1.8
			c0.2,0.4,0.6,0.5,1.2,0.5c0.9,0,1.4-0.8,1.4-2.3c0-0.8-0.1-1.3-0.3-1.7C256.8,262.5,256.4,262.3,255.9,262.3z"/>
		<path class="st6" d="M264.7,268.6c-1.2,0-2.2-0.3-2.9-1c-0.7-0.7-1-1.6-1-2.9c0-1.3,0.3-2.3,1-3c0.6-0.7,1.5-1,2.7-1
			c1.1,0,1.9,0.3,2.5,0.9s0.9,1.5,0.9,2.5v1h-4.9c0,0.6,0.2,1.1,0.5,1.4s0.8,0.5,1.4,0.5c0.5,0,0.9,0,1.3-0.1s0.8-0.2,1.3-0.5v1.6
			c-0.4,0.2-0.8,0.3-1.2,0.4C265.8,268.5,265.3,268.6,264.7,268.6z M264.4,262.1c-0.4,0-0.8,0.1-1,0.4c-0.3,0.3-0.4,0.7-0.4,1.2h2.9
			c0-0.5-0.1-0.9-0.4-1.2C265.2,262.3,264.8,262.1,264.4,262.1z"/>
		<path class="st6" d="M276.5,268.4h-2.1V264c0-0.6-0.1-1-0.3-1.2c-0.2-0.3-0.5-0.4-0.9-0.4c-0.6,0-1,0.2-1.3,0.6
			c-0.3,0.4-0.4,1-0.4,1.9v3.6h-2.1v-7.6h1.6l0.3,1h0.1c0.2-0.4,0.6-0.6,1-0.8c0.4-0.2,0.9-0.3,1.4-0.3c0.9,0,1.6,0.2,2,0.7
			c0.5,0.5,0.7,1.2,0.7,2.1V268.4z"/>
		<path class="st6" d="M284,266.2c0,0.8-0.3,1.4-0.8,1.8c-0.5,0.4-1.4,0.6-2.4,0.6c-0.6,0-1,0-1.4-0.1c-0.4-0.1-0.8-0.2-1.1-0.3
			v-1.7c0.4,0.2,0.8,0.3,1.3,0.5s0.9,0.2,1.3,0.2c0.8,0,1.1-0.2,1.1-0.7c0-0.2,0-0.3-0.2-0.4c-0.1-0.1-0.3-0.2-0.5-0.3
			c-0.2-0.1-0.6-0.3-1-0.5c-0.6-0.2-1-0.5-1.3-0.7c-0.3-0.2-0.5-0.5-0.6-0.7c-0.1-0.3-0.2-0.6-0.2-1c0-0.7,0.3-1.2,0.8-1.6
			c0.5-0.4,1.3-0.6,2.2-0.6c0.9,0,1.8,0.2,2.7,0.6l-0.6,1.5c-0.4-0.2-0.7-0.3-1.1-0.4c-0.3-0.1-0.7-0.2-1-0.2
			c-0.6,0-0.9,0.2-0.9,0.5c0,0.2,0.1,0.3,0.3,0.5s0.6,0.3,1.3,0.6c0.6,0.2,1,0.5,1.3,0.7c0.3,0.2,0.5,0.5,0.6,0.7
			C283.9,265.5,284,265.8,284,266.2z"/>
		<path class="st6" d="M172.9,283.7c0.4,0,0.8-0.1,1.3-0.2v1.6c-0.5,0.2-1.2,0.3-1.9,0.3c-0.8,0-1.4-0.2-1.8-0.6
			c-0.4-0.4-0.6-1.1-0.6-1.9v-3.7h-1v-0.9l1.1-0.7l0.6-1.6h1.3v1.6h2.1v1.6H172v3.7c0,0.3,0.1,0.5,0.2,0.7
			C172.4,283.6,172.7,283.7,172.9,283.7z"/>
		<path class="st6" d="M182.7,281.4c0,1.2-0.3,2.2-1,2.9s-1.6,1.1-2.7,1.1c-0.7,0-1.4-0.2-1.9-0.5c-0.6-0.3-1-0.8-1.3-1.4
			s-0.5-1.3-0.5-2.1c0-1.2,0.3-2.2,1-2.9c0.7-0.7,1.6-1,2.7-1c0.7,0,1.4,0.2,1.9,0.5s1,0.8,1.3,1.4S182.7,280.6,182.7,281.4z
			 M177.5,281.4c0,0.8,0.1,1.3,0.4,1.7c0.2,0.4,0.7,0.6,1.2,0.6c0.6,0,1-0.2,1.2-0.6c0.2-0.4,0.4-1,0.4-1.7c0-0.8-0.1-1.3-0.4-1.7
			s-0.6-0.6-1.2-0.6c-0.6,0-1,0.2-1.2,0.6C177.6,280.1,177.5,280.6,177.5,281.4z"/>
		<path class="st6" d="M194.9,285.2h-2.1v-4.5c0-0.6-0.1-1-0.3-1.2c-0.2-0.3-0.5-0.4-0.9-0.4c-0.5,0-0.9,0.2-1.2,0.6
			c-0.2,0.4-0.4,1-0.4,1.9v3.6h-2.1v-7.6h1.6l0.3,1h0.1c0.2-0.4,0.5-0.6,0.9-0.8c0.4-0.2,0.8-0.3,1.3-0.3c1.1,0,1.9,0.4,2.3,1.1h0.2
			c0.2-0.4,0.5-0.6,0.9-0.8c0.4-0.2,0.8-0.3,1.4-0.3c0.9,0,1.5,0.2,2,0.7c0.4,0.4,0.7,1.2,0.7,2.1v5h-2.1v-4.5c0-0.6-0.1-1-0.3-1.2
			c-0.2-0.3-0.5-0.4-0.9-0.4c-0.5,0-0.9,0.2-1.1,0.5s-0.4,0.9-0.4,1.7V285.2z"/>
		<path class="st6" d="M200.7,277.6h2.3l1.4,4.3c0.1,0.4,0.2,0.8,0.3,1.3h0c0-0.5,0.1-0.9,0.3-1.3l1.4-4.3h2.2l-3.2,8.6
			c-0.3,0.8-0.7,1.4-1.3,1.8c-0.5,0.4-1.2,0.6-1.9,0.6c-0.4,0-0.7,0-1.1-0.1v-1.7c0.3,0.1,0.5,0.1,0.8,0.1c0.4,0,0.7-0.1,1-0.3
			c0.3-0.2,0.5-0.6,0.6-1l0.1-0.4L200.7,277.6z"/>
		<path class="st6" d="M213.4,275.6c0-0.7,0.4-1,1.1-1c0.8,0,1.1,0.3,1.1,1c0,0.3-0.1,0.6-0.3,0.8c-0.2,0.2-0.5,0.3-0.9,0.3
			C213.7,276.6,213.4,276.3,213.4,275.6z M215.5,285.2h-2.1v-7.6h2.1V285.2z"/>
		<path class="st6" d="M224.8,285.2h-2.1v-4.5c0-0.6-0.1-1-0.3-1.2c-0.2-0.3-0.5-0.4-0.9-0.4c-0.6,0-1,0.2-1.3,0.6
			c-0.3,0.4-0.4,1-0.4,1.9v3.6h-2.1v-7.6h1.6l0.3,1h0.1c0.2-0.4,0.6-0.6,1-0.8c0.4-0.2,0.9-0.3,1.4-0.3c0.9,0,1.6,0.2,2,0.7
			c0.5,0.5,0.7,1.2,0.7,2.1V285.2z"/>
		<path class="st6" d="M231.1,279.2h-1.8v6.1h-2.1v-6.1h-1.1v-1l1.1-0.6V277c0-0.9,0.2-1.5,0.6-1.9c0.4-0.4,1.1-0.6,2.1-0.6
			c0.7,0,1.4,0.1,1.9,0.3l-0.5,1.5c-0.4-0.1-0.8-0.2-1.2-0.2c-0.3,0-0.5,0.1-0.6,0.3c-0.1,0.2-0.2,0.4-0.2,0.7v0.5h1.8V279.2z"/>
		<path class="st6" d="M239.3,281.4c0,1.2-0.3,2.2-1,2.9s-1.6,1.1-2.7,1.1c-0.7,0-1.4-0.2-1.9-0.5c-0.6-0.3-1-0.8-1.3-1.4
			s-0.5-1.3-0.5-2.1c0-1.2,0.3-2.2,1-2.9c0.7-0.7,1.6-1,2.7-1c0.7,0,1.4,0.2,1.9,0.5s1,0.8,1.3,1.4S239.3,280.6,239.3,281.4z
			 M234,281.4c0,0.8,0.1,1.3,0.4,1.7c0.2,0.4,0.7,0.6,1.2,0.6c0.6,0,1-0.2,1.2-0.6c0.2-0.4,0.4-1,0.4-1.7c0-0.8-0.1-1.3-0.4-1.7
			s-0.6-0.6-1.2-0.6c-0.6,0-1,0.2-1.2,0.6C234.1,280.1,234,280.6,234,281.4z"/>
		<path class="st6" d="M245.3,277.5c0.3,0,0.5,0,0.7,0.1l-0.2,2c-0.2,0-0.4-0.1-0.6-0.1c-0.7,0-1.2,0.2-1.6,0.5
			c-0.4,0.3-0.6,0.8-0.6,1.4v3.9H241v-7.6h1.6l0.3,1.3h0.1c0.2-0.4,0.6-0.8,1-1C244.4,277.6,244.8,277.5,245.3,277.5z"/>
		<path class="st6" d="M254.2,285.2h-2.1v-4.5c0-0.6-0.1-1-0.3-1.2c-0.2-0.3-0.5-0.4-0.9-0.4c-0.5,0-0.9,0.2-1.2,0.6
			c-0.2,0.4-0.4,1-0.4,1.9v3.6h-2.1v-7.6h1.6l0.3,1h0.1c0.2-0.4,0.5-0.6,0.9-0.8c0.4-0.2,0.8-0.3,1.3-0.3c1.1,0,1.9,0.4,2.3,1.1h0.2
			c0.2-0.4,0.5-0.6,0.9-0.8c0.4-0.2,0.8-0.3,1.4-0.3c0.9,0,1.5,0.2,2,0.7c0.4,0.4,0.7,1.2,0.7,2.1v5h-2.1v-4.5c0-0.6-0.1-1-0.3-1.2
			c-0.2-0.3-0.5-0.4-0.9-0.4c-0.5,0-0.9,0.2-1.1,0.5s-0.4,0.9-0.4,1.7V285.2z"/>
		<path class="st6" d="M266,285.2l-0.4-1h-0.1c-0.4,0.4-0.7,0.7-1.1,0.9c-0.4,0.2-0.9,0.3-1.5,0.3c-0.7,0-1.3-0.2-1.7-0.6
			c-0.4-0.4-0.6-1-0.6-1.8c0-0.8,0.3-1.4,0.9-1.8c0.6-0.4,1.4-0.6,2.6-0.6l1.3,0v-0.3c0-0.8-0.4-1.2-1.2-1.2c-0.6,0-1.3,0.2-2.2,0.6
			l-0.7-1.4c0.9-0.5,1.9-0.7,2.9-0.7c1,0,1.8,0.2,2.4,0.7s0.8,1.1,0.8,2v5.1H266z M265.3,281.7l-0.8,0c-0.6,0-1.1,0.1-1.4,0.3
			c-0.3,0.2-0.4,0.5-0.4,0.9c0,0.6,0.3,0.9,1,0.9c0.5,0,0.9-0.1,1.2-0.4c0.3-0.3,0.4-0.6,0.4-1.1V281.7z"/>
		<path class="st6" d="M272.8,283.7c0.4,0,0.8-0.1,1.3-0.2v1.6c-0.5,0.2-1.2,0.3-1.9,0.3c-0.8,0-1.4-0.2-1.8-0.6
			c-0.4-0.4-0.6-1.1-0.6-1.9v-3.7h-1v-0.9l1.1-0.7l0.6-1.6h1.3v1.6h2.1v1.6h-2.1v3.7c0,0.3,0.1,0.5,0.2,0.7
			C272.3,283.6,272.5,283.7,272.8,283.7z"/>
		<path class="st6" d="M275.6,275.6c0-0.7,0.4-1,1.1-1c0.8,0,1.1,0.3,1.1,1c0,0.3-0.1,0.6-0.3,0.8c-0.2,0.2-0.5,0.3-0.9,0.3
			C275.9,276.6,275.6,276.3,275.6,275.6z M277.7,285.2h-2.1v-7.6h2.1V285.2z"/>
		<path class="st6" d="M286.9,281.4c0,1.2-0.3,2.2-1,2.9s-1.6,1.1-2.7,1.1c-0.7,0-1.4-0.2-1.9-0.5c-0.6-0.3-1-0.8-1.3-1.4
			s-0.5-1.3-0.5-2.1c0-1.2,0.3-2.2,1-2.9c0.7-0.7,1.6-1,2.7-1c0.7,0,1.4,0.2,1.9,0.5s1,0.8,1.3,1.4S286.9,280.6,286.9,281.4z
			 M281.6,281.4c0,0.8,0.1,1.3,0.4,1.7c0.2,0.4,0.7,0.6,1.2,0.6c0.6,0,1-0.2,1.2-0.6c0.2-0.4,0.4-1,0.4-1.7c0-0.8-0.1-1.3-0.4-1.7
			s-0.6-0.6-1.2-0.6c-0.6,0-1,0.2-1.2,0.6C281.7,280.1,281.6,280.6,281.6,281.4z"/>
		<path class="st6" d="M295.6,285.2h-2.1v-4.5c0-0.6-0.1-1-0.3-1.2c-0.2-0.3-0.5-0.4-0.9-0.4c-0.6,0-1,0.2-1.3,0.6
			c-0.3,0.4-0.4,1-0.4,1.9v3.6h-2.1v-7.6h1.6l0.3,1h0.1c0.2-0.4,0.6-0.6,1-0.8c0.4-0.2,0.9-0.3,1.4-0.3c0.9,0,1.6,0.2,2,0.7
			c0.5,0.5,0.7,1.2,0.7,2.1V285.2z"/>
		<path class="st6" d="M298.6,281.9v-0.5c0-0.4,0.1-0.8,0.3-1.1c0.2-0.3,0.5-0.7,1-1c0.5-0.3,0.8-0.6,0.9-0.8
			c0.2-0.2,0.2-0.5,0.2-0.7c0-0.3-0.1-0.5-0.3-0.7s-0.5-0.2-0.9-0.2c-0.7,0-1.5,0.2-2.3,0.7l-0.7-1.5c1-0.6,2.1-0.9,3.2-0.9
			c0.9,0,1.7,0.2,2.2,0.7s0.8,1.1,0.8,1.8c0,0.5-0.1,0.9-0.3,1.3c-0.2,0.4-0.7,0.8-1.3,1.2c-0.4,0.3-0.7,0.6-0.8,0.7
			s-0.2,0.4-0.2,0.7v0.4H298.6z M298.4,284.3c0-0.4,0.1-0.7,0.3-0.9s0.5-0.3,0.9-0.3c0.4,0,0.7,0.1,0.9,0.3c0.2,0.2,0.3,0.5,0.3,0.9
			c0,0.4-0.1,0.6-0.3,0.9c-0.2,0.2-0.5,0.3-0.9,0.3c-0.4,0-0.7-0.1-0.9-0.3C298.5,284.9,298.4,284.6,298.4,284.3z"/>
	</g>
	<g>
		<path class="st6" d="M28.8,370.4h-2.4l-1.4-5.3c0-0.2-0.1-0.6-0.3-1.2c-0.1-0.6-0.2-1-0.2-1.2c0,0.2-0.1,0.6-0.2,1.2
			c-0.1,0.5-0.2,0.9-0.3,1.2l-1.3,5.2h-2.4l-2.5-10h2.1l1.3,5.5c0.2,1,0.4,1.9,0.5,2.6c0-0.3,0.1-0.7,0.2-1.2c0.1-0.5,0.2-1,0.3-1.3
			l1.5-5.6h2L27,366c0.1,0.3,0.1,0.6,0.2,1.1s0.2,1,0.2,1.3c0-0.4,0.1-0.8,0.2-1.3c0.1-0.5,0.2-1,0.3-1.3l1.3-5.5h2.1L28.8,370.4z"
			/>
		<path class="st6" d="M39.5,370.4h-2.1V366c0-1.1-0.4-1.7-1.2-1.7c-0.6,0-1,0.2-1.3,0.6s-0.4,1-0.4,1.9v3.6h-2.1v-10.6h2.1v2.2
			c0,0.2,0,0.6,0,1.2l0,0.6h0.1c0.5-0.7,1.2-1.1,2.2-1.1c0.9,0,1.6,0.2,2,0.7s0.7,1.2,0.7,2.1V370.4z"/>
		<path class="st6" d="M46.5,370.4l-0.4-1H46c-0.4,0.4-0.7,0.7-1.1,0.9c-0.4,0.2-0.9,0.3-1.5,0.3c-0.7,0-1.3-0.2-1.7-0.6
			c-0.4-0.4-0.6-1-0.6-1.8c0-0.8,0.3-1.4,0.9-1.8c0.6-0.4,1.4-0.6,2.6-0.6l1.3,0v-0.3c0-0.8-0.4-1.2-1.2-1.2c-0.6,0-1.3,0.2-2.2,0.6
			l-0.7-1.4c0.9-0.5,1.9-0.7,2.9-0.7c1,0,1.8,0.2,2.4,0.7s0.8,1.1,0.8,2v5.1H46.5z M45.9,366.9l-0.8,0c-0.6,0-1.1,0.1-1.4,0.3
			c-0.3,0.2-0.4,0.5-0.4,0.9c0,0.6,0.3,0.9,1,0.9c0.5,0,0.9-0.1,1.2-0.4c0.3-0.3,0.4-0.6,0.4-1.1V366.9z"/>
		<path class="st6" d="M53.3,368.9c0.4,0,0.8-0.1,1.3-0.2v1.6c-0.5,0.2-1.2,0.3-1.9,0.3c-0.8,0-1.4-0.2-1.8-0.6
			c-0.4-0.4-0.6-1.1-0.6-1.9v-3.7h-1v-0.9l1.1-0.7l0.6-1.6h1.3v1.6h2.1v1.6h-2.1v3.7c0,0.3,0.1,0.5,0.3,0.7
			C52.8,368.8,53,368.9,53.3,368.9z"/>
		<path class="st6" d="M59.7,360.8c0-0.7,0.4-1,1.1-1c0.8,0,1.1,0.3,1.1,1c0,0.3-0.1,0.6-0.3,0.8c-0.2,0.2-0.5,0.3-0.9,0.3
			C60.1,361.8,59.7,361.5,59.7,360.8z M61.9,370.4h-2.1v-7.6h2.1V370.4z"/>
		<path class="st6" d="M68.3,364.3h-1.8v6.1h-2.1v-6.1h-1.1v-1l1.1-0.6v-0.6c0-0.9,0.2-1.5,0.6-1.9c0.4-0.4,1.1-0.6,2.1-0.6
			c0.7,0,1.4,0.1,1.9,0.3l-0.5,1.5c-0.4-0.1-0.8-0.2-1.2-0.2c-0.3,0-0.5,0.1-0.6,0.3c-0.1,0.2-0.2,0.4-0.2,0.7v0.5h1.8V364.3z"/>
		<path class="st6" d="M25.2,387.2l-0.6-2.7l-0.8-3.4h-0.1l-1.4,6h-2.2l-2.2-7.6H20l0.9,3.4c0.1,0.4,0.2,1.2,0.4,2.5h0.1
			c0-0.3,0.1-0.9,0.2-1.6l0.1-0.6l0.9-3.7H25l0.9,3.7c0.1,0.3,0.1,0.6,0.2,1.1c0.1,0.5,0.1,0.9,0.1,1.1h0.1c0.1-0.4,0.1-0.9,0.2-1.4
			c0.1-0.5,0.2-0.9,0.2-1.1l0.9-3.4h2l-2.2,7.6H25.2z"/>
		<path class="st6" d="M37.9,387.2h-2.1v-4.5c0-1.1-0.4-1.7-1.2-1.7c-0.6,0-1,0.2-1.3,0.6s-0.4,1-0.4,1.9v3.6h-2.1v-10.6H33v2.2
			c0,0.2,0,0.6,0,1.2l0,0.6H33c0.5-0.7,1.2-1.1,2.2-1.1c0.9,0,1.6,0.2,2,0.7s0.7,1.2,0.7,2.1V387.2z"/>
		<path class="st6" d="M44.9,387.2l-0.4-1h-0.1c-0.4,0.4-0.7,0.7-1.1,0.9c-0.4,0.2-0.9,0.3-1.5,0.3c-0.7,0-1.3-0.2-1.7-0.6
			c-0.4-0.4-0.6-1-0.6-1.8c0-0.8,0.3-1.4,0.9-1.8c0.6-0.4,1.4-0.6,2.6-0.6l1.3,0v-0.3c0-0.8-0.4-1.2-1.2-1.2c-0.6,0-1.3,0.2-2.2,0.6
			l-0.7-1.4c0.9-0.5,1.9-0.7,2.9-0.7c1,0,1.8,0.2,2.4,0.7s0.8,1.1,0.8,2v5.1H44.9z M44.3,383.7l-0.8,0c-0.6,0-1.1,0.1-1.4,0.3
			c-0.3,0.2-0.4,0.5-0.4,0.9c0,0.6,0.3,0.9,1,0.9c0.5,0,0.9-0.1,1.2-0.4c0.3-0.3,0.4-0.6,0.4-1.1V383.7z"/>
		<path class="st6" d="M51.8,385.7c0.4,0,0.8-0.1,1.3-0.2v1.6c-0.5,0.2-1.2,0.3-1.9,0.3c-0.8,0-1.4-0.2-1.8-0.6
			c-0.4-0.4-0.6-1.1-0.6-1.9v-3.7h-1v-0.9l1.1-0.7l0.6-1.6h1.3v1.6H53v1.6h-2.1v3.7c0,0.3,0.1,0.5,0.3,0.7
			C51.3,385.6,51.5,385.7,51.8,385.7z"/>
		<path class="st6" d="M22.8,404h-4.5v-1.2l1.2-0.6v-6.5l-1.2-0.6V394h4.5v1.2l-1.2,0.6v6.5l1.2,0.6V404z"/>
		<path class="st6" d="M33.3,401.8c0,0.8-0.3,1.4-0.8,1.8c-0.5,0.4-1.4,0.6-2.4,0.6c-0.6,0-1,0-1.4-0.1c-0.4-0.1-0.8-0.2-1.1-0.3
			V402c0.4,0.2,0.8,0.3,1.3,0.5s0.9,0.2,1.3,0.2c0.8,0,1.1-0.2,1.1-0.7c0-0.2,0-0.3-0.2-0.4c-0.1-0.1-0.3-0.2-0.5-0.3
			c-0.2-0.1-0.6-0.3-1-0.5c-0.6-0.2-1-0.5-1.3-0.7c-0.3-0.2-0.5-0.5-0.6-0.7c-0.1-0.3-0.2-0.6-0.2-1c0-0.7,0.3-1.2,0.8-1.6
			c0.5-0.4,1.3-0.6,2.2-0.6c0.9,0,1.8,0.2,2.7,0.6l-0.6,1.5c-0.4-0.2-0.7-0.3-1.1-0.4c-0.3-0.1-0.7-0.2-1-0.2
			c-0.6,0-0.9,0.2-0.9,0.5c0,0.2,0.1,0.3,0.3,0.5s0.6,0.3,1.3,0.6c0.6,0.2,1,0.5,1.3,0.7c0.3,0.2,0.5,0.5,0.6,0.7
			C33.3,401,33.3,401.4,33.3,401.8z"/>
		<path class="st6" d="M38.4,404.2c-1.2,0-2.2-0.3-2.9-1c-0.7-0.7-1-1.6-1-2.9c0-1.3,0.3-2.3,1-3c0.6-0.7,1.5-1,2.7-1
			c1.1,0,1.9,0.3,2.5,0.9s0.9,1.5,0.9,2.5v1h-4.9c0,0.6,0.2,1.1,0.5,1.4s0.8,0.5,1.4,0.5c0.5,0,0.9,0,1.3-0.1s0.8-0.2,1.3-0.5v1.6
			c-0.4,0.2-0.8,0.3-1.2,0.4C39.5,404.1,39,404.2,38.4,404.2z M38.1,397.7c-0.4,0-0.8,0.1-1,0.4c-0.3,0.3-0.4,0.7-0.4,1.2h2.9
			c0-0.5-0.1-0.9-0.4-1.2C38.9,397.9,38.6,397.7,38.1,397.7z"/>
		<path class="st6" d="M46.7,404.2c-1.2,0-2.2-0.3-2.9-1c-0.7-0.7-1-1.6-1-2.9c0-1.3,0.3-2.3,1-3c0.6-0.7,1.5-1,2.7-1
			c1.1,0,1.9,0.3,2.5,0.9s0.9,1.5,0.9,2.5v1h-4.9c0,0.6,0.2,1.1,0.5,1.4s0.8,0.5,1.4,0.5c0.5,0,0.9,0,1.3-0.1s0.8-0.2,1.3-0.5v1.6
			c-0.4,0.2-0.8,0.3-1.2,0.4C47.8,404.1,47.3,404.2,46.7,404.2z M46.4,397.7c-0.4,0-0.8,0.1-1,0.4c-0.3,0.3-0.4,0.7-0.4,1.2h2.9
			c0-0.5-0.1-0.9-0.4-1.2C47.2,397.9,46.8,397.7,46.4,397.7z"/>
		<path class="st6" d="M55,394.4c0-0.7,0.4-1,1.1-1c0.8,0,1.1,0.3,1.1,1c0,0.3-0.1,0.6-0.3,0.8c-0.2,0.2-0.5,0.3-0.9,0.3
			C55.4,395.4,55,395.1,55,394.4z M57.2,404h-2.1v-7.6h2.1V404z"/>
		<path class="st6" d="M64.7,401.8c0,0.8-0.3,1.4-0.8,1.8c-0.5,0.4-1.4,0.6-2.4,0.6c-0.6,0-1,0-1.4-0.1c-0.4-0.1-0.8-0.2-1.1-0.3
			V402c0.4,0.2,0.8,0.3,1.3,0.5s0.9,0.2,1.3,0.2c0.8,0,1.1-0.2,1.1-0.7c0-0.2,0-0.3-0.2-0.4c-0.1-0.1-0.3-0.2-0.5-0.3
			c-0.2-0.1-0.6-0.3-1-0.5c-0.6-0.2-1-0.5-1.3-0.7c-0.3-0.2-0.5-0.5-0.6-0.7c-0.1-0.3-0.2-0.6-0.2-1c0-0.7,0.3-1.2,0.8-1.6
			c0.5-0.4,1.3-0.6,2.2-0.6c0.9,0,1.8,0.2,2.7,0.6l-0.6,1.5c-0.4-0.2-0.7-0.3-1.1-0.4c-0.3-0.1-0.7-0.2-1-0.2
			c-0.6,0-0.9,0.2-0.9,0.5c0,0.2,0.1,0.3,0.3,0.5s0.6,0.3,1.3,0.6c0.6,0.2,1,0.5,1.3,0.7c0.3,0.2,0.5,0.5,0.6,0.7
			C64.7,401,64.7,401.4,64.7,401.8z"/>
		<path class="st6" d="M73.4,404h-2.1v-4.5c0-0.6-0.1-1-0.3-1.2c-0.2-0.3-0.5-0.4-0.9-0.4c-0.6,0-1,0.2-1.3,0.6
			c-0.3,0.4-0.4,1-0.4,1.9v3.6h-2.1v-7.6H68l0.3,1h0.1c0.2-0.4,0.6-0.6,1-0.8c0.4-0.2,0.9-0.3,1.4-0.3c0.9,0,1.6,0.2,2,0.7
			c0.5,0.5,0.7,1.2,0.7,2.1V404z"/>
		<path class="st6" d="M77.2,394l0.1,0.2c-0.2,0.9-0.6,2-1.2,3.3h-1.5c0.3-1.3,0.5-2.5,0.7-3.4H77.2z"/>
		<path class="st6" d="M81.7,402.5c0.4,0,0.8-0.1,1.3-0.2v1.6c-0.5,0.2-1.2,0.3-1.9,0.3c-0.8,0-1.4-0.2-1.8-0.6
			c-0.4-0.4-0.6-1.1-0.6-1.9v-3.7h-1v-0.9l1.1-0.7l0.6-1.6h1.3v1.6H83v1.6h-2.1v3.7c0,0.3,0.1,0.5,0.3,0.7
			C81.3,402.4,81.5,402.5,81.7,402.5z"/>
		<path class="st6" d="M23.2,413c0.3,0,0.5,0,0.7,0.1l-0.2,2c-0.2,0-0.4-0.1-0.6-0.1c-0.7,0-1.2,0.2-1.6,0.5
			c-0.4,0.3-0.6,0.8-0.6,1.4v3.9h-2.1v-7.6h1.6l0.3,1.3h0.1c0.2-0.4,0.6-0.8,1-1C22.3,413.2,22.7,413,23.2,413z"/>
		<path class="st6" d="M28.6,421c-1.2,0-2.2-0.3-2.9-1c-0.7-0.7-1-1.6-1-2.9c0-1.3,0.3-2.3,1-3c0.6-0.7,1.5-1,2.7-1
			c1.1,0,1.9,0.3,2.5,0.9s0.9,1.5,0.9,2.5v1h-4.9c0,0.6,0.2,1.1,0.5,1.4s0.8,0.5,1.4,0.5c0.5,0,0.9,0,1.3-0.1s0.8-0.2,1.3-0.5v1.6
			c-0.4,0.2-0.8,0.3-1.2,0.4C29.7,420.9,29.2,421,28.6,421z M28.3,414.5c-0.4,0-0.8,0.1-1,0.4c-0.3,0.3-0.4,0.7-0.4,1.2h2.9
			c0-0.5-0.1-0.9-0.4-1.2C29.1,414.7,28.7,414.5,28.3,414.5z"/>
		<path class="st6" d="M38.3,420.8l-0.4-1h-0.1c-0.4,0.4-0.7,0.7-1.1,0.9c-0.4,0.2-0.9,0.3-1.5,0.3c-0.7,0-1.3-0.2-1.7-0.6
			c-0.4-0.4-0.6-1-0.6-1.8c0-0.8,0.3-1.4,0.9-1.8c0.6-0.4,1.4-0.6,2.6-0.6l1.3,0v-0.3c0-0.8-0.4-1.2-1.2-1.2c-0.6,0-1.3,0.2-2.2,0.6
			l-0.7-1.4c0.9-0.5,1.9-0.7,2.9-0.7c1,0,1.8,0.2,2.4,0.7s0.8,1.1,0.8,2v5.1H38.3z M37.6,417.3l-0.8,0c-0.6,0-1.1,0.1-1.4,0.3
			c-0.3,0.2-0.4,0.5-0.4,0.9c0,0.6,0.3,0.9,1,0.9c0.5,0,0.9-0.1,1.2-0.4c0.3-0.3,0.4-0.6,0.4-1.1V417.3z"/>
		<path class="st6" d="M43.9,420.8h-2.1v-10.6h2.1V420.8z"/>
		<path class="st6" d="M48.2,420.8h-2.1v-10.6h2.1V420.8z"/>
		<path class="st6" d="M49.3,413.2h2.3l1.4,4.3c0.1,0.4,0.2,0.8,0.3,1.3h0c0.1-0.5,0.1-0.9,0.3-1.3l1.4-4.3h2.2l-3.2,8.6
			c-0.3,0.8-0.7,1.4-1.3,1.8c-0.5,0.4-1.2,0.6-1.9,0.6c-0.4,0-0.7,0-1.1-0.1v-1.7c0.3,0.1,0.5,0.1,0.8,0.1c0.4,0,0.7-0.1,1-0.3
			c0.3-0.2,0.5-0.6,0.6-1l0.1-0.4L49.3,413.2z"/>
		<path class="st6" d="M25.2,437.6l-0.6-2.7l-0.8-3.4h-0.1l-1.4,6h-2.2l-2.2-7.6H20l0.9,3.4c0.1,0.4,0.2,1.2,0.4,2.5h0.1
			c0-0.3,0.1-0.9,0.2-1.6l0.1-0.6l0.9-3.7H25l0.9,3.7c0.1,0.3,0.1,0.6,0.2,1.1c0.1,0.5,0.1,0.9,0.1,1.1h0.1c0.1-0.4,0.1-0.9,0.2-1.4
			c0.1-0.5,0.2-0.9,0.2-1.1l0.9-3.4h2l-2.2,7.6H25.2z"/>
		<path class="st6" d="M37.9,437.6h-2.1v-4.5c0-1.1-0.4-1.7-1.2-1.7c-0.6,0-1,0.2-1.3,0.6s-0.4,1-0.4,1.9v3.6h-2.1V427H33v2.2
			c0,0.2,0,0.6,0,1.2l0,0.6H33c0.5-0.7,1.2-1.1,2.2-1.1c0.9,0,1.6,0.2,2,0.7s0.7,1.2,0.7,2.1V437.6z"/>
		<path class="st6" d="M44.9,437.6l-0.4-1h-0.1c-0.4,0.4-0.7,0.7-1.1,0.9c-0.4,0.2-0.9,0.3-1.5,0.3c-0.7,0-1.3-0.2-1.7-0.6
			c-0.4-0.4-0.6-1-0.6-1.8c0-0.8,0.3-1.4,0.9-1.8c0.6-0.4,1.4-0.6,2.6-0.6l1.3,0v-0.3c0-0.8-0.4-1.2-1.2-1.2c-0.6,0-1.3,0.2-2.2,0.6
			l-0.7-1.4c0.9-0.5,1.9-0.7,2.9-0.7c1,0,1.8,0.2,2.4,0.7s0.8,1.1,0.8,2v5.1H44.9z M44.3,434.1l-0.8,0c-0.6,0-1.1,0.1-1.4,0.3
			c-0.3,0.2-0.4,0.5-0.4,0.9c0,0.6,0.3,0.9,1,0.9c0.5,0,0.9-0.1,1.2-0.4c0.3-0.3,0.4-0.6,0.4-1.1V434.1z"/>
		<path class="st6" d="M51.8,436.1c0.4,0,0.8-0.1,1.3-0.2v1.6c-0.5,0.2-1.2,0.3-1.9,0.3c-0.8,0-1.4-0.2-1.8-0.6
			c-0.4-0.4-0.6-1.1-0.6-1.9v-3.7h-1v-0.9l1.1-0.7l0.6-1.6h1.3v1.6H53v1.6h-2.1v3.7c0,0.3,0.1,0.5,0.3,0.7
			C51.3,436,51.5,436.1,51.8,436.1z"/>
		<path class="st6" d="M62.2,437.6h-4.5v-1.2l1.2-0.6v-6.5l-1.2-0.6v-1.2h4.5v1.2l-1.2,0.6v6.5l1.2,0.6V437.6z"/>
		<path class="st6" d="M74,437.6c0,1.1-0.3,1.9-1,2.5c-0.6,0.6-1.6,0.9-2.9,0.9c-1.1,0-2.1-0.2-2.9-0.5v-1.7c0.9,0.4,1.9,0.6,3,0.6
			c1.1,0,1.6-0.6,1.6-1.7v-0.2l0.1-0.9h-0.1c-0.5,0.8-1.2,1.1-2.2,1.1c-0.9,0-1.6-0.4-2.1-1.1c-0.5-0.7-0.8-1.7-0.8-2.9
			c0-1.3,0.3-2.2,0.8-2.9c0.5-0.7,1.2-1,2.2-1c0.9,0,1.7,0.4,2.2,1.1h0.1l0.2-1H74V437.6z M70.5,436.1c0.6,0,1-0.2,1.2-0.5
			c0.2-0.3,0.4-0.8,0.4-1.6v-0.3c0-0.8-0.1-1.4-0.4-1.8c-0.3-0.4-0.7-0.5-1.2-0.5c-1,0-1.5,0.8-1.5,2.3c0,0.8,0.1,1.3,0.4,1.7
			C69.6,435.9,70,436.1,70.5,436.1z"/>
		<path class="st6" d="M79.7,437.8c-1.2,0-2.2-0.3-2.9-1c-0.7-0.7-1-1.6-1-2.9c0-1.3,0.3-2.3,1-3c0.6-0.7,1.5-1,2.7-1
			c1.1,0,1.9,0.3,2.5,0.9s0.9,1.5,0.9,2.5v1h-4.9c0,0.6,0.2,1.1,0.5,1.4s0.8,0.5,1.4,0.5c0.5,0,0.9,0,1.3-0.1s0.8-0.2,1.3-0.5v1.6
			c-0.4,0.2-0.8,0.3-1.2,0.4C80.8,437.7,80.3,437.8,79.7,437.8z M79.4,431.3c-0.4,0-0.8,0.1-1,0.4c-0.3,0.3-0.4,0.7-0.4,1.2h2.9
			c0-0.5-0.1-0.9-0.4-1.2C80.2,431.5,79.8,431.3,79.4,431.3z"/>
		<path class="st6" d="M87.7,436.1c0.4,0,0.8-0.1,1.3-0.2v1.6c-0.5,0.2-1.2,0.3-1.9,0.3c-0.8,0-1.4-0.2-1.8-0.6
			c-0.4-0.4-0.6-1.1-0.6-1.9v-3.7h-1v-0.9l1.1-0.7l0.6-1.6h1.3v1.6h2.1v1.6h-2.1v3.7c0,0.3,0.1,0.5,0.3,0.7
			C87.2,436,87.4,436.1,87.7,436.1z"/>
		<path class="st6" d="M91.3,434.3v-0.5c0-0.4,0.1-0.8,0.3-1.1c0.2-0.3,0.5-0.7,1-1c0.5-0.3,0.8-0.6,0.9-0.8
			c0.2-0.2,0.2-0.5,0.2-0.7c0-0.3-0.1-0.5-0.3-0.7s-0.5-0.2-0.9-0.2c-0.7,0-1.5,0.2-2.3,0.7l-0.7-1.5c1-0.6,2.1-0.9,3.2-0.9
			c0.9,0,1.7,0.2,2.2,0.7s0.8,1.1,0.8,1.8c0,0.5-0.1,0.9-0.3,1.3c-0.2,0.4-0.7,0.8-1.3,1.2c-0.4,0.3-0.7,0.6-0.8,0.7
			s-0.2,0.4-0.2,0.7v0.4H91.3z M91.1,436.6c0-0.4,0.1-0.7,0.3-0.9s0.5-0.3,0.9-0.3c0.4,0,0.7,0.1,0.9,0.3c0.2,0.2,0.3,0.5,0.3,0.9
			c0,0.4-0.1,0.6-0.3,0.9c-0.2,0.2-0.5,0.3-0.9,0.3c-0.4,0-0.7-0.1-0.9-0.3C91.2,437.3,91.1,437,91.1,436.6z"/>
	</g>
	<g>
		<g>
			<path class="st6" d="M152.3,371.7h-2.4l-1.4-5.3c-0.1-0.2-0.1-0.6-0.3-1.2c-0.1-0.6-0.2-1-0.2-1.2c0,0.2-0.1,0.6-0.2,1.2
				c-0.1,0.5-0.2,0.9-0.3,1.2l-1.3,5.2h-2.4l-2.5-10h2.1l1.3,5.5c0.2,1,0.4,1.9,0.5,2.6c0-0.3,0.1-0.7,0.2-1.2
				c0.1-0.5,0.2-1,0.3-1.3l1.5-5.6h2l1.5,5.6c0.1,0.3,0.1,0.6,0.2,1.1s0.2,1,0.2,1.3c0-0.4,0.1-0.8,0.2-1.3c0.1-0.5,0.2-1,0.3-1.3
				l1.3-5.5h2.1L152.3,371.7z"/>
			<path class="st6" d="M162.9,371.7h-2.1v-4.5c0-1.1-0.4-1.7-1.2-1.7c-0.6,0-1,0.2-1.3,0.6s-0.4,1-0.4,1.9v3.6h-2.1v-10.6h2.1v2.2
				c0,0.2,0,0.6,0,1.2l0,0.6h0.1c0.5-0.7,1.2-1.1,2.2-1.1c0.9,0,1.6,0.2,2,0.7s0.7,1.2,0.7,2.1V371.7z"/>
			<path class="st6" d="M169.9,371.7l-0.4-1h-0.1c-0.4,0.4-0.7,0.7-1.1,0.9c-0.4,0.2-0.9,0.3-1.5,0.3c-0.7,0-1.3-0.2-1.7-0.6
				c-0.4-0.4-0.6-1-0.6-1.8c0-0.8,0.3-1.4,0.9-1.8c0.6-0.4,1.4-0.6,2.6-0.6l1.3,0v-0.3c0-0.8-0.4-1.2-1.2-1.2
				c-0.6,0-1.3,0.2-2.2,0.6l-0.7-1.4c0.9-0.5,1.9-0.7,2.9-0.7c1,0,1.8,0.2,2.4,0.7s0.8,1.1,0.8,2v5.1H169.9z M169.3,368.1l-0.8,0
				c-0.6,0-1.1,0.1-1.4,0.3c-0.3,0.2-0.4,0.5-0.4,0.9c0,0.6,0.3,0.9,1,0.9c0.5,0,0.9-0.1,1.2-0.4c0.3-0.3,0.4-0.6,0.4-1.1V368.1z"/>
			<path class="st6" d="M176.8,370.2c0.4,0,0.8-0.1,1.3-0.2v1.6c-0.5,0.2-1.2,0.3-1.9,0.3c-0.8,0-1.4-0.2-1.8-0.6
				c-0.4-0.4-0.6-1.1-0.6-1.9v-3.7h-1v-0.9l1.1-0.7l0.6-1.6h1.3v1.6h2.1v1.6h-2.1v3.7c0,0.3,0.1,0.5,0.2,0.7
				C176.3,370.1,176.5,370.2,176.8,370.2z"/>
			<path class="st6" d="M183.2,362.1c0-0.7,0.4-1,1.1-1c0.8,0,1.1,0.3,1.1,1c0,0.3-0.1,0.6-0.3,0.8c-0.2,0.2-0.5,0.3-0.9,0.3
				C183.6,363.1,183.2,362.8,183.2,362.1z M185.3,371.7h-2.1V364h2.1V371.7z"/>
			<path class="st6" d="M191.8,365.6H190v6.1h-2.1v-6.1h-1.1v-1l1.1-0.6v-0.6c0-0.9,0.2-1.5,0.6-1.9c0.4-0.4,1.1-0.6,2.1-0.6
				c0.7,0,1.4,0.1,1.9,0.3l-0.5,1.5c-0.4-0.1-0.8-0.2-1.2-0.2c-0.3,0-0.5,0.1-0.6,0.3c-0.1,0.2-0.2,0.4-0.2,0.7v0.5h1.8V365.6z"/>
			<path class="st6" d="M146.3,388.5h-4.5v-1.2l1.2-0.6v-6.5l-1.2-0.6v-1.2h4.5v1.2l-1.2,0.6v6.5l1.2,0.6V388.5z"/>
			<path class="st6" d="M154.5,388.6c-2.4,0-3.6-1.3-3.6-3.9c0-1.3,0.3-2.3,1-3c0.6-0.7,1.6-1,2.8-1c0.9,0,1.7,0.2,2.4,0.5l-0.6,1.6
				c-0.3-0.1-0.6-0.2-0.9-0.3c-0.3-0.1-0.6-0.1-0.8-0.1c-1.1,0-1.6,0.8-1.6,2.3c0,1.5,0.5,2.2,1.6,2.2c0.4,0,0.8-0.1,1.1-0.2
				c0.3-0.1,0.7-0.3,1-0.5v1.8c-0.3,0.2-0.7,0.4-1,0.4C155.5,388.6,155.1,388.6,154.5,388.6z"/>
			<path class="st6" d="M163.5,388.5l-0.4-1H163c-0.4,0.4-0.7,0.7-1.1,0.9c-0.4,0.2-0.9,0.3-1.5,0.3c-0.7,0-1.3-0.2-1.7-0.6
				c-0.4-0.4-0.6-1-0.6-1.8c0-0.8,0.3-1.4,0.9-1.8c0.6-0.4,1.4-0.6,2.6-0.6l1.3,0v-0.3c0-0.8-0.4-1.2-1.2-1.2
				c-0.6,0-1.3,0.2-2.2,0.6l-0.7-1.4c0.9-0.5,1.9-0.7,2.9-0.7c1,0,1.8,0.2,2.4,0.7s0.8,1.1,0.8,2v5.1H163.5z M162.9,384.9l-0.8,0
				c-0.6,0-1.1,0.1-1.4,0.3c-0.3,0.2-0.4,0.5-0.4,0.9c0,0.6,0.3,0.9,1,0.9c0.5,0,0.9-0.1,1.2-0.4c0.3-0.3,0.4-0.6,0.4-1.1V384.9z"/>
			<path class="st6" d="M174.1,388.5h-2.1V384c0-0.6-0.1-1-0.3-1.2c-0.2-0.3-0.5-0.4-0.9-0.4c-0.6,0-1,0.2-1.3,0.6
				c-0.3,0.4-0.4,1-0.4,1.9v3.6h-2.1v-7.6h1.6l0.3,1h0.1c0.2-0.4,0.6-0.6,1-0.8c0.4-0.2,0.9-0.3,1.4-0.3c0.9,0,1.6,0.2,2,0.7
				c0.5,0.5,0.7,1.2,0.7,2.1V388.5z"/>
			<path class="st6" d="M177.9,378.5l0.1,0.2c-0.2,0.9-0.6,2-1.2,3.3h-1.5c0.3-1.3,0.5-2.5,0.7-3.4H177.9z"/>
			<path class="st6" d="M182.5,387c0.4,0,0.8-0.1,1.3-0.2v1.6c-0.5,0.2-1.2,0.3-1.9,0.3c-0.8,0-1.4-0.2-1.8-0.6
				c-0.4-0.4-0.6-1.1-0.6-1.9v-3.7h-1v-0.9l1.1-0.7l0.6-1.6h1.3v1.6h2.1v1.6h-2.1v3.7c0,0.3,0.1,0.5,0.2,0.7
				C182,386.9,182.2,387,182.5,387z"/>
			<path class="st6" d="M145.6,403.8c0.4,0,0.8-0.1,1.3-0.2v1.6c-0.5,0.2-1.2,0.3-1.9,0.3c-0.8,0-1.4-0.2-1.8-0.6
				c-0.4-0.4-0.6-1.1-0.6-1.9v-3.7h-1v-0.9l1.1-0.7l0.6-1.6h1.3v1.6h2.1v1.6h-2.1v3.7c0,0.3,0.1,0.5,0.2,0.7
				C145.1,403.7,145.3,403.8,145.6,403.8z"/>
			<path class="st6" d="M152.7,397.5c0.3,0,0.5,0,0.7,0.1l-0.2,2c-0.2,0-0.4-0.1-0.6-0.1c-0.7,0-1.2,0.2-1.6,0.5
				c-0.4,0.3-0.6,0.8-0.6,1.4v3.9h-2.1v-7.6h1.6l0.3,1.3h0.1c0.2-0.4,0.6-0.8,1-1C151.8,397.6,152.2,397.5,152.7,397.5z"/>
			<path class="st6" d="M159.5,405.3l-0.4-1H159c-0.4,0.4-0.7,0.7-1.1,0.9c-0.4,0.2-0.9,0.3-1.5,0.3c-0.7,0-1.3-0.2-1.7-0.6
				c-0.4-0.4-0.6-1-0.6-1.8c0-0.8,0.3-1.4,0.9-1.8c0.6-0.4,1.4-0.6,2.6-0.6l1.3,0v-0.3c0-0.8-0.4-1.2-1.2-1.2
				c-0.6,0-1.3,0.2-2.2,0.6l-0.7-1.4c0.9-0.5,1.9-0.7,2.9-0.7c1,0,1.8,0.2,2.4,0.7s0.8,1.1,0.8,2v5.1H159.5z M158.9,401.7l-0.8,0
				c-0.6,0-1.1,0.1-1.4,0.3c-0.3,0.2-0.4,0.5-0.4,0.9c0,0.6,0.3,0.9,1,0.9c0.5,0,0.9-0.1,1.2-0.4c0.3-0.3,0.4-0.6,0.4-1.1V401.7z"/>
			<path class="st6" d="M166.2,405.4c-2.4,0-3.6-1.3-3.6-3.9c0-1.3,0.3-2.3,1-3c0.6-0.7,1.6-1,2.8-1c0.9,0,1.7,0.2,2.4,0.5l-0.6,1.6
				c-0.3-0.1-0.6-0.2-0.9-0.3c-0.3-0.1-0.6-0.1-0.8-0.1c-1.1,0-1.6,0.8-1.6,2.3c0,1.5,0.5,2.2,1.6,2.2c0.4,0,0.8-0.1,1.1-0.2
				c0.3-0.1,0.7-0.3,1-0.5v1.8c-0.3,0.2-0.7,0.4-1,0.4C167.2,405.4,166.7,405.4,166.2,405.4z"/>
			<path class="st6" d="M172.3,401.1l0.9-1.2l2.1-2.3h2.4l-3,3.3l3.2,4.3h-2.4l-2.2-3.1l-0.9,0.7v2.4h-2.1v-10.6h2.1v4.7
				L172.3,401.1L172.3,401.1z"/>
			<path class="st6" d="M149.2,422.1h-2.1v-4.5c0-0.6-0.1-1-0.3-1.2c-0.2-0.3-0.5-0.4-0.9-0.4c-0.5,0-0.9,0.2-1.2,0.6
				c-0.2,0.4-0.4,1-0.4,1.9v3.6h-2.1v-7.6h1.6l0.3,1h0.1c0.2-0.4,0.5-0.6,0.9-0.8c0.4-0.2,0.8-0.3,1.3-0.3c1.1,0,1.9,0.4,2.3,1.1
				h0.2c0.2-0.4,0.5-0.6,0.9-0.8c0.4-0.2,0.8-0.3,1.4-0.3c0.9,0,1.5,0.2,2,0.7c0.4,0.4,0.7,1.2,0.7,2.1v5h-2.1v-4.5
				c0-0.6-0.1-1-0.3-1.2c-0.2-0.3-0.5-0.4-0.9-0.4c-0.5,0-0.9,0.2-1.1,0.5s-0.4,0.9-0.4,1.7V422.1z"/>
			<path class="st6" d="M155,414.4h2.3l1.4,4.3c0.1,0.4,0.2,0.8,0.3,1.3h0c0-0.5,0.1-0.9,0.3-1.3l1.4-4.3h2.2l-3.2,8.6
				c-0.3,0.8-0.7,1.4-1.3,1.8c-0.5,0.4-1.2,0.6-1.9,0.6c-0.4,0-0.7,0-1.1-0.1v-1.7c0.3,0.1,0.5,0.1,0.8,0.1c0.4,0,0.7-0.1,1-0.3
				c0.3-0.2,0.5-0.6,0.6-1l0.1-0.4L155,414.4z"/>
			<path class="st6" d="M174.6,418.3c0,1.2-0.3,2.2-1,2.9s-1.6,1.1-2.7,1.1c-0.7,0-1.4-0.2-1.9-0.5c-0.6-0.3-1-0.8-1.3-1.4
				s-0.5-1.3-0.5-2.1c0-1.2,0.3-2.2,1-2.9c0.7-0.7,1.6-1,2.7-1c0.7,0,1.4,0.2,1.9,0.5s1,0.8,1.3,1.4S174.6,417.5,174.6,418.3z
				 M169.4,418.3c0,0.8,0.1,1.3,0.4,1.7c0.2,0.4,0.7,0.6,1.2,0.6c0.6,0,1-0.2,1.2-0.6c0.2-0.4,0.4-1,0.4-1.7c0-0.8-0.1-1.3-0.4-1.7
				s-0.6-0.6-1.2-0.6c-0.6,0-1,0.2-1.2,0.6C169.5,416.9,169.4,417.5,169.4,418.3z"/>
			<path class="st6" d="M180.6,414.3c0.3,0,0.5,0,0.7,0.1l-0.2,2c-0.2,0-0.4-0.1-0.6-0.1c-0.7,0-1.2,0.2-1.6,0.5
				c-0.4,0.3-0.6,0.8-0.6,1.4v3.9h-2.1v-7.6h1.6l0.3,1.3h0.1c0.2-0.4,0.6-0.8,1-1C179.7,414.4,180.2,414.3,180.6,414.3z"/>
			<path class="st6" d="M185,422.2c-0.9,0-1.6-0.3-2.1-1s-0.8-1.7-0.8-2.9c0-1.3,0.3-2.2,0.8-2.9c0.5-0.7,1.2-1,2.2-1
				c1,0,1.7,0.4,2.2,1.1h0.1c-0.1-0.6-0.2-1.1-0.2-1.5v-2.4h2.1v10.6h-1.6l-0.4-1h-0.1C186.7,421.8,186,422.2,185,422.2z
				 M185.7,420.6c0.5,0,0.9-0.2,1.2-0.5c0.2-0.3,0.4-0.8,0.4-1.6v-0.2c0-0.8-0.1-1.4-0.4-1.8s-0.7-0.5-1.2-0.5
				c-0.5,0-0.8,0.2-1.1,0.6c-0.3,0.4-0.4,1-0.4,1.7s0.1,1.3,0.4,1.7C184.9,420.4,185.3,420.6,185.7,420.6z"/>
			<path class="st6" d="M194.9,422.2c-1.2,0-2.2-0.3-2.9-1c-0.7-0.7-1-1.6-1-2.9c0-1.3,0.3-2.3,1-3c0.6-0.7,1.5-1,2.7-1
				c1.1,0,1.9,0.3,2.5,0.9s0.9,1.5,0.9,2.5v1h-4.9c0,0.6,0.2,1.1,0.5,1.4s0.8,0.5,1.4,0.5c0.5,0,0.9,0,1.3-0.1s0.8-0.2,1.3-0.5v1.6
				c-0.4,0.2-0.8,0.3-1.2,0.4C196,422.2,195.5,422.2,194.9,422.2z M194.6,415.8c-0.4,0-0.8,0.1-1,0.4c-0.3,0.3-0.4,0.7-0.4,1.2h2.9
				c0-0.5-0.1-0.9-0.4-1.2C195.4,415.9,195.1,415.8,194.6,415.8z"/>
			<path class="st6" d="M204,414.3c0.3,0,0.5,0,0.7,0.1l-0.2,2c-0.2,0-0.4-0.1-0.6-0.1c-0.7,0-1.2,0.2-1.6,0.5
				c-0.4,0.3-0.6,0.8-0.6,1.4v3.9h-2.1v-7.6h1.6l0.3,1.3h0.1c0.2-0.4,0.6-0.8,1-1C203.1,414.4,203.5,414.3,204,414.3z"/>
			<path class="st6" d="M206.9,418.8v-0.5c0-0.4,0.1-0.8,0.3-1.1c0.2-0.3,0.5-0.7,1-1c0.5-0.3,0.8-0.6,0.9-0.8
				c0.2-0.2,0.2-0.5,0.2-0.7c0-0.3-0.1-0.5-0.3-0.7s-0.5-0.2-0.9-0.2c-0.7,0-1.5,0.2-2.3,0.7l-0.7-1.5c1-0.6,2.1-0.9,3.2-0.9
				c0.9,0,1.7,0.2,2.2,0.7s0.8,1.1,0.8,1.8c0,0.5-0.1,0.9-0.3,1.3c-0.2,0.4-0.7,0.8-1.3,1.2c-0.4,0.3-0.7,0.6-0.8,0.7
				s-0.2,0.4-0.2,0.7v0.4H206.9z M206.7,421.1c0-0.4,0.1-0.7,0.3-0.9s0.5-0.3,0.9-0.3c0.4,0,0.7,0.1,0.9,0.3
				c0.2,0.2,0.3,0.5,0.3,0.9c0,0.4-0.1,0.6-0.3,0.9c-0.2,0.2-0.5,0.3-0.9,0.3c-0.4,0-0.7-0.1-0.9-0.3
				C206.8,421.8,206.7,421.5,206.7,421.1z"/>
		</g>
	</g>
	<g>
		<g>
			<path class="st6" d="M259.5,371.7h-2.4l-1.4-5.3c-0.1-0.2-0.1-0.6-0.3-1.2c-0.1-0.6-0.2-1-0.2-1.2c0,0.2-0.1,0.6-0.2,1.2
				c-0.1,0.5-0.2,0.9-0.3,1.2l-1.3,5.2H251l-2.5-10h2.1l1.3,5.5c0.2,1,0.4,1.9,0.5,2.6c0-0.3,0.1-0.7,0.2-1.2c0.1-0.5,0.2-1,0.3-1.3
				l1.5-5.6h2l1.5,5.6c0.1,0.3,0.1,0.6,0.2,1.1s0.2,1,0.2,1.3c0-0.4,0.1-0.8,0.2-1.3c0.1-0.5,0.2-1,0.3-1.3l1.3-5.5h2.1L259.5,371.7
				z"/>
			<path class="st6" d="M263,362.1c0-0.7,0.4-1,1.1-1c0.8,0,1.1,0.3,1.1,1c0,0.3-0.1,0.6-0.3,0.8c-0.2,0.2-0.5,0.3-0.9,0.3
				C263.4,363.1,263,362.8,263,362.1z M265.2,371.7h-2.1V364h2.1V371.7z"/>
			<path class="st6" d="M269.5,371.7h-2.1v-10.6h2.1V371.7z"/>
			<path class="st6" d="M273.7,371.7h-2.1v-10.6h2.1V371.7z"/>
			<path class="st6" d="M283.5,371.7h-4.5v-1.2l1.2-0.6v-6.5l-1.2-0.6v-1.2h4.5v1.2l-1.2,0.6v6.5l1.2,0.6V371.7z"/>
			<path class="st6" d="M292.9,363.9c0.9,0,1.6,0.4,2.1,1.1c0.5,0.7,0.8,1.7,0.8,2.9c0,1.3-0.3,2.2-0.8,2.9s-1.2,1-2.1,1
				c-0.9,0-1.6-0.3-2.1-1h-0.1l-0.3,0.8h-1.6v-10.6h2.1v2.5c0,0.3,0,0.8-0.1,1.5h0.1C291.2,364.3,291.9,363.9,292.9,363.9z
				 M292.2,365.6c-0.5,0-0.9,0.2-1.1,0.5c-0.2,0.3-0.4,0.8-0.4,1.6v0.2c0,0.8,0.1,1.4,0.4,1.8c0.2,0.4,0.6,0.5,1.2,0.5
				c0.4,0,0.8-0.2,1-0.6c0.3-0.4,0.4-1,0.4-1.7s-0.1-1.3-0.4-1.7C293,365.8,292.7,365.6,292.2,365.6z"/>
			<path class="st6" d="M301,371.8c-1.2,0-2.2-0.3-2.9-1c-0.7-0.7-1-1.6-1-2.9c0-1.3,0.3-2.3,1-3c0.6-0.7,1.5-1,2.7-1
				c1.1,0,1.9,0.3,2.5,0.9s0.9,1.5,0.9,2.5v1h-4.9c0,0.6,0.2,1.1,0.5,1.4s0.8,0.5,1.4,0.5c0.5,0,0.9,0,1.3-0.1s0.8-0.2,1.3-0.5v1.6
				c-0.4,0.2-0.8,0.3-1.2,0.4C302.1,371.8,301.6,371.8,301,371.8z M300.7,365.4c-0.4,0-0.8,0.1-1,0.4c-0.3,0.3-0.4,0.7-0.4,1.2h2.9
				c0-0.5-0.1-0.9-0.4-1.2C301.5,365.5,301.1,365.4,300.7,365.4z"/>
			<path class="st6" d="M254.9,386.2c0,0.8-0.3,1.4-0.8,1.8c-0.5,0.4-1.4,0.6-2.4,0.6c-0.6,0-1,0-1.4-0.1c-0.4-0.1-0.8-0.2-1.1-0.3
				v-1.7c0.4,0.2,0.8,0.3,1.3,0.5s0.9,0.2,1.3,0.2c0.8,0,1.1-0.2,1.1-0.7c0-0.2-0.1-0.3-0.2-0.4c-0.1-0.1-0.3-0.2-0.5-0.3
				c-0.2-0.1-0.6-0.3-1-0.5c-0.6-0.2-1-0.5-1.3-0.7c-0.3-0.2-0.5-0.5-0.6-0.7c-0.1-0.3-0.2-0.6-0.2-1c0-0.7,0.3-1.2,0.8-1.6
				c0.5-0.4,1.3-0.6,2.2-0.6c0.9,0,1.8,0.2,2.7,0.6l-0.6,1.5c-0.4-0.2-0.7-0.3-1.1-0.4c-0.3-0.1-0.7-0.2-1-0.2
				c-0.6,0-0.9,0.2-0.9,0.5c0,0.2,0.1,0.3,0.3,0.5s0.6,0.3,1.3,0.6c0.6,0.2,1,0.5,1.3,0.7c0.3,0.2,0.5,0.5,0.6,0.7
				C254.8,385.5,254.9,385.8,254.9,386.2z"/>
			<path class="st6" d="M259.8,387c0.4,0,0.8-0.1,1.3-0.2v1.6c-0.5,0.2-1.2,0.3-1.9,0.3c-0.8,0-1.4-0.2-1.8-0.6
				c-0.4-0.4-0.6-1.1-0.6-1.9v-3.7h-1v-0.9l1.1-0.7l0.6-1.6h1.3v1.6h2.1v1.6h-2.1v3.7c0,0.3,0.1,0.5,0.2,0.7
				C259.3,386.9,259.5,387,259.8,387z"/>
			<path class="st6" d="M268,388.5l-0.3-1h-0.1c-0.2,0.4-0.5,0.6-1,0.8c-0.4,0.2-0.9,0.3-1.4,0.3c-0.9,0-1.6-0.2-2-0.7
				c-0.5-0.5-0.7-1.2-0.7-2.1v-5h2.1v4.5c0,0.6,0.1,1,0.3,1.2c0.2,0.3,0.5,0.4,0.9,0.4c0.6,0,1-0.2,1.3-0.6c0.3-0.4,0.4-1,0.4-1.9
				v-3.6h2.1v7.6H268z"/>
			<path class="st6" d="M274.9,388.6c-2.4,0-3.6-1.3-3.6-3.9c0-1.3,0.3-2.3,1-3c0.6-0.7,1.6-1,2.8-1c0.9,0,1.7,0.2,2.4,0.5l-0.6,1.6
				c-0.3-0.1-0.6-0.2-0.9-0.3c-0.3-0.1-0.6-0.1-0.8-0.1c-1.1,0-1.6,0.8-1.6,2.3c0,1.5,0.5,2.2,1.6,2.2c0.4,0,0.8-0.1,1.1-0.2
				c0.3-0.1,0.7-0.3,1-0.5v1.8c-0.3,0.2-0.7,0.4-1,0.4C275.9,388.6,275.4,388.6,274.9,388.6z"/>
			<path class="st6" d="M281,384.3l0.9-1.2l2.1-2.3h2.4l-3,3.3l3.2,4.3h-2.4l-2.2-3.1l-0.9,0.7v2.4H279v-10.6h2.1v4.7L281,384.3
				L281,384.3z"/>
			<path class="st6" d="M255.9,405.3l-0.6-2.7l-0.8-3.4h-0.1l-1.4,6h-2.2l-2.2-7.6h2.1l0.9,3.4c0.1,0.4,0.2,1.2,0.4,2.5h0.1
				c0-0.3,0.1-0.9,0.2-1.6l0.1-0.6l0.9-3.7h2.3l0.9,3.7c0.1,0.3,0.1,0.6,0.2,1.1c0.1,0.5,0.1,0.9,0.1,1.1h0.1c0-0.4,0.1-0.9,0.2-1.4
				c0.1-0.5,0.2-0.9,0.2-1.1l0.9-3.4h2l-2.2,7.6H255.9z"/>
			<path class="st6" d="M261.5,395.7c0-0.7,0.4-1,1.1-1c0.8,0,1.1,0.3,1.1,1c0,0.3-0.1,0.6-0.3,0.8c-0.2,0.2-0.5,0.3-0.9,0.3
				C261.9,396.7,261.5,396.4,261.5,395.7z M263.6,405.3h-2.1v-7.6h2.1V405.3z"/>
			<path class="st6" d="M269.1,403.8c0.4,0,0.8-0.1,1.3-0.2v1.6c-0.5,0.2-1.2,0.3-1.9,0.3c-0.8,0-1.4-0.2-1.8-0.6
				c-0.4-0.4-0.6-1.1-0.6-1.9v-3.7h-1v-0.9l1.1-0.7l0.6-1.6h1.3v1.6h2.1v1.6h-2.1v3.7c0,0.3,0.1,0.5,0.2,0.7
				C268.6,403.7,268.8,403.8,269.1,403.8z"/>
			<path class="st6" d="M279,405.3h-2.1v-4.5c0-1.1-0.4-1.7-1.2-1.7c-0.6,0-1,0.2-1.3,0.6s-0.4,1-0.4,1.9v3.6h-2.1v-10.6h2.1v2.2
				c0,0.2,0,0.6,0,1.2l0,0.6h0.1c0.5-0.7,1.2-1.1,2.2-1.1c0.9,0,1.6,0.2,2,0.7s0.7,1.2,0.7,2.1V405.3z"/>
			<path class="st6" d="M288,403.8c0.4,0,0.8-0.1,1.3-0.2v1.6c-0.5,0.2-1.2,0.3-1.9,0.3c-0.8,0-1.4-0.2-1.8-0.6
				c-0.4-0.4-0.6-1.1-0.6-1.9v-3.7h-1v-0.9l1.1-0.7l0.6-1.6h1.3v1.6h2.1v1.6h-2.1v3.7c0,0.3,0.1,0.5,0.2,0.7
				C287.5,403.7,287.7,403.8,288,403.8z"/>
			<path class="st6" d="M297.9,405.3h-2.1v-4.5c0-1.1-0.4-1.7-1.2-1.7c-0.6,0-1,0.2-1.3,0.6s-0.4,1-0.4,1.9v3.6h-2.1v-10.6h2.1v2.2
				c0,0.2,0,0.6,0,1.2l0,0.6h0.1c0.5-0.7,1.2-1.1,2.2-1.1c0.9,0,1.6,0.2,2,0.7s0.7,1.2,0.7,2.1V405.3z"/>
			<path class="st6" d="M299.9,395.7c0-0.7,0.4-1,1.1-1c0.8,0,1.1,0.3,1.1,1c0,0.3-0.1,0.6-0.3,0.8c-0.2,0.2-0.5,0.3-0.9,0.3
				C300.3,396.7,299.9,396.4,299.9,395.7z M302.1,405.3H300v-7.6h2.1V405.3z"/>
			<path class="st6" d="M309.6,403c0,0.8-0.3,1.4-0.8,1.8c-0.5,0.4-1.4,0.6-2.4,0.6c-0.6,0-1,0-1.4-0.1c-0.4-0.1-0.8-0.2-1.1-0.3
				v-1.7c0.4,0.2,0.8,0.3,1.3,0.5s0.9,0.2,1.3,0.2c0.8,0,1.1-0.2,1.1-0.7c0-0.2-0.1-0.3-0.2-0.4c-0.1-0.1-0.3-0.2-0.5-0.3
				c-0.2-0.1-0.6-0.3-1-0.5c-0.6-0.2-1-0.5-1.3-0.7c-0.3-0.2-0.5-0.5-0.6-0.7c-0.1-0.3-0.2-0.6-0.2-1c0-0.7,0.3-1.2,0.8-1.6
				c0.5-0.4,1.3-0.6,2.2-0.6c0.9,0,1.8,0.2,2.7,0.6l-0.6,1.5c-0.4-0.2-0.7-0.3-1.1-0.4c-0.3-0.1-0.7-0.2-1-0.2
				c-0.6,0-0.9,0.2-0.9,0.5c0,0.2,0.1,0.3,0.3,0.5s0.6,0.3,1.3,0.6c0.6,0.2,1,0.5,1.3,0.7c0.3,0.2,0.5,0.5,0.6,0.7
				C309.6,402.3,309.6,402.6,309.6,403z"/>
			<path class="st6" d="M249.5,412.5c0-0.7,0.4-1,1.1-1c0.8,0,1.1,0.3,1.1,1c0,0.3-0.1,0.6-0.3,0.8c-0.2,0.2-0.5,0.3-0.9,0.3
				C249.9,413.5,249.5,413.2,249.5,412.5z M251.7,422.1h-2.1v-7.6h2.1V422.1z"/>
			<path class="st6" d="M258.1,416h-1.8v6.1h-2.1V416H253v-1l1.1-0.6v-0.6c0-0.9,0.2-1.5,0.6-1.9c0.4-0.4,1.1-0.6,2.1-0.6
				c0.7,0,1.4,0.1,1.9,0.3l-0.5,1.5c-0.4-0.1-0.8-0.2-1.2-0.2c-0.3,0-0.5,0.1-0.6,0.3c-0.1,0.2-0.2,0.4-0.2,0.7v0.5h1.8V416z"/>
			<path class="st6" d="M266.8,422.1h-4.5v-1.2l1.2-0.6v-6.5l-1.2-0.6v-1.2h4.5v1.2l-1.2,0.6v6.5l1.2,0.6V422.1z"/>
			<path class="st6" d="M274.4,422.2c-0.9,0-1.6-0.3-2.1-1s-0.8-1.7-0.8-2.9c0-1.3,0.3-2.2,0.8-2.9c0.5-0.7,1.2-1,2.2-1
				c1,0,1.7,0.4,2.2,1.1h0.1c-0.1-0.6-0.2-1.1-0.2-1.5v-2.4h2.1v10.6h-1.6l-0.4-1h-0.1C276.1,421.8,275.4,422.2,274.4,422.2z
				 M275.1,420.6c0.5,0,0.9-0.2,1.2-0.5c0.2-0.3,0.4-0.8,0.4-1.6v-0.2c0-0.8-0.1-1.4-0.4-1.8s-0.7-0.5-1.2-0.5
				c-0.5,0-0.8,0.2-1.1,0.6c-0.3,0.4-0.4,1-0.4,1.7s0.1,1.3,0.4,1.7C274.3,420.4,274.7,420.6,275.1,420.6z"/>
			<path class="st6" d="M287.8,418.3c0,1.2-0.3,2.2-1,2.9s-1.6,1.1-2.7,1.1c-0.7,0-1.4-0.2-1.9-0.5c-0.6-0.3-1-0.8-1.3-1.4
				s-0.5-1.3-0.5-2.1c0-1.2,0.3-2.2,1-2.9c0.7-0.7,1.6-1,2.7-1c0.7,0,1.4,0.2,1.9,0.5s1,0.8,1.3,1.4S287.8,417.5,287.8,418.3z
				 M282.5,418.3c0,0.8,0.1,1.3,0.4,1.7c0.2,0.4,0.7,0.6,1.2,0.6c0.6,0,1-0.2,1.2-0.6c0.2-0.4,0.4-1,0.4-1.7c0-0.8-0.1-1.3-0.4-1.7
				s-0.6-0.6-1.2-0.6c-0.6,0-1,0.2-1.2,0.6C282.6,416.9,282.5,417.5,282.5,418.3z"/>
			<path class="st6" d="M296.6,422.1h-2.1v-4.5c0-0.6-0.1-1-0.3-1.2c-0.2-0.3-0.5-0.4-0.9-0.4c-0.6,0-1,0.2-1.3,0.6
				c-0.3,0.4-0.4,1-0.4,1.9v3.6h-2.1v-7.6h1.6l0.3,1h0.1c0.2-0.4,0.6-0.6,1-0.8c0.4-0.2,0.9-0.3,1.4-0.3c0.9,0,1.6,0.2,2,0.7
				c0.5,0.5,0.7,1.2,0.7,2.1V422.1z"/>
			<path class="st6" d="M300.3,412.1l0.1,0.2c-0.2,0.9-0.6,2-1.2,3.3h-1.5c0.3-1.3,0.5-2.5,0.7-3.4H300.3z"/>
			<path class="st6" d="M304.9,420.6c0.4,0,0.8-0.1,1.3-0.2v1.6c-0.5,0.2-1.2,0.3-1.9,0.3c-0.8,0-1.4-0.2-1.8-0.6
				c-0.4-0.4-0.6-1.1-0.6-1.9V416h-1v-0.9l1.1-0.7l0.6-1.6h1.3v1.6h2.1v1.6H304v3.7c0,0.3,0.1,0.5,0.2,0.7
				C304.4,420.5,304.6,420.6,304.9,420.6z"/>
			<path class="st6" d="M251.7,438.9h-2.1v-10.6h2.1V438.9z"/>
			<path class="st6" d="M253.8,429.3c0-0.7,0.4-1,1.1-1c0.8,0,1.1,0.3,1.1,1c0,0.3-0.1,0.6-0.3,0.8c-0.2,0.2-0.5,0.3-0.9,0.3
				C254.1,430.3,253.8,430,253.8,429.3z M255.9,438.9h-2.1v-7.6h2.1V438.9z"/>
			<path class="st6" d="M260.1,434.7l0.9-1.2l2.1-2.3h2.4l-3,3.3l3.2,4.3h-2.4l-2.2-3.1l-0.9,0.7v2.4h-2.1v-10.6h2.1v4.7
				L260.1,434.7L260.1,434.7z"/>
			<path class="st6" d="M270.1,439c-1.2,0-2.2-0.3-2.9-1c-0.7-0.7-1-1.6-1-2.9c0-1.3,0.3-2.3,1-3c0.6-0.7,1.5-1,2.7-1
				c1.1,0,1.9,0.3,2.5,0.9s0.9,1.5,0.9,2.5v1h-4.9c0,0.6,0.2,1.1,0.5,1.4s0.8,0.5,1.4,0.5c0.5,0,0.9,0,1.3-0.1s0.8-0.2,1.3-0.5v1.6
				c-0.4,0.2-0.8,0.3-1.2,0.4C271.2,439,270.7,439,270.1,439z M269.8,432.6c-0.4,0-0.8,0.1-1,0.4c-0.3,0.3-0.4,0.7-0.4,1.2h2.9
				c0-0.5-0.1-0.9-0.4-1.2C270.6,432.7,270.3,432.6,269.8,432.6z"/>
			<path class="st6" d="M278.5,429.3c0-0.7,0.4-1,1.1-1c0.8,0,1.1,0.3,1.1,1c0,0.3-0.1,0.6-0.3,0.8c-0.2,0.2-0.5,0.3-0.9,0.3
				C278.9,430.3,278.5,430,278.5,429.3z M280.7,438.9h-2.1v-7.6h2.1V438.9z"/>
			<path class="st6" d="M286.1,437.4c0.4,0,0.8-0.1,1.3-0.2v1.6c-0.5,0.2-1.2,0.3-1.9,0.3c-0.8,0-1.4-0.2-1.8-0.6
				c-0.4-0.4-0.6-1.1-0.6-1.9v-3.7h-1v-0.9l1.1-0.7l0.6-1.6h1.3v1.6h2.1v1.6h-2.1v3.7c0,0.3,0.1,0.5,0.2,0.7
				C285.6,437.3,285.8,437.4,286.1,437.4z"/>
			<path class="st6" d="M289.7,435.6v-0.5c0-0.4,0.1-0.8,0.3-1.1c0.2-0.3,0.5-0.7,1-1c0.5-0.3,0.8-0.6,0.9-0.8
				c0.2-0.2,0.2-0.5,0.2-0.7c0-0.3-0.1-0.5-0.3-0.7s-0.5-0.2-0.9-0.2c-0.7,0-1.5,0.2-2.3,0.7l-0.7-1.5c1-0.6,2.1-0.9,3.2-0.9
				c0.9,0,1.7,0.2,2.2,0.7s0.8,1.1,0.8,1.8c0,0.5-0.1,0.9-0.3,1.3c-0.2,0.4-0.7,0.8-1.3,1.2c-0.4,0.3-0.7,0.6-0.8,0.7
				s-0.2,0.4-0.2,0.7v0.4H289.7z M289.5,437.9c0-0.4,0.1-0.7,0.3-0.9s0.5-0.3,0.9-0.3c0.4,0,0.7,0.1,0.9,0.3
				c0.2,0.2,0.3,0.5,0.3,0.9c0,0.4-0.1,0.6-0.3,0.9c-0.2,0.2-0.5,0.3-0.9,0.3c-0.4,0-0.7-0.1-0.9-0.3
				C289.6,438.6,289.5,438.3,289.5,437.9z"/>
		</g>
	</g>
	<rect x="337.6" y="107.7" class="st1" width="64.5" height="369.9"/>
	<g>
		<path class="st6" d="M96.4,162.5H94l-1.4-5.3c0-0.2-0.1-0.6-0.3-1.2c-0.1-0.6-0.2-1-0.2-1.2c0,0.2-0.1,0.6-0.2,1.2
			c-0.1,0.5-0.2,0.9-0.3,1.2l-1.3,5.2h-2.4l-2.5-10h2.1l1.3,5.5c0.2,1,0.4,1.9,0.5,2.6c0-0.3,0.1-0.7,0.2-1.2c0.1-0.5,0.2-1,0.3-1.3
			l1.5-5.6h2l1.5,5.6c0.1,0.3,0.1,0.6,0.2,1.1s0.2,1,0.2,1.3c0-0.4,0.1-0.8,0.2-1.3c0.1-0.5,0.2-1,0.3-1.3l1.3-5.5h2.1L96.4,162.5z"
			/>
		<path class="st6" d="M107.1,162.5H105V158c0-1.1-0.4-1.7-1.2-1.7c-0.6,0-1,0.2-1.3,0.6s-0.4,1-0.4,1.9v3.6H100v-10.6h2.1v2.2
			c0,0.2,0,0.6,0,1.2l0,0.6h0.1c0.5-0.7,1.2-1.1,2.2-1.1c0.9,0,1.6,0.2,2,0.7s0.7,1.2,0.7,2.1V162.5z"/>
		<path class="st6" d="M114.1,162.5l-0.4-1h-0.1c-0.4,0.4-0.7,0.7-1.1,0.9c-0.4,0.2-0.9,0.3-1.5,0.3c-0.7,0-1.3-0.2-1.7-0.6
			c-0.4-0.4-0.6-1-0.6-1.8c0-0.8,0.3-1.4,0.9-1.8c0.6-0.4,1.4-0.6,2.6-0.6l1.3,0v-0.3c0-0.8-0.4-1.2-1.2-1.2c-0.6,0-1.3,0.2-2.2,0.6
			l-0.7-1.4c0.9-0.5,1.9-0.7,2.9-0.7c1,0,1.8,0.2,2.4,0.7s0.8,1.1,0.8,2v5.1H114.1z M113.5,158.9l-0.8,0c-0.6,0-1.1,0.1-1.4,0.3
			c-0.3,0.2-0.4,0.5-0.4,0.9c0,0.6,0.3,0.9,1,0.9c0.5,0,0.9-0.1,1.2-0.4c0.3-0.3,0.4-0.6,0.4-1.1V158.9z"/>
		<path class="st6" d="M120.9,160.9c0.4,0,0.8-0.1,1.3-0.2v1.6c-0.5,0.2-1.2,0.3-1.9,0.3c-0.8,0-1.4-0.2-1.8-0.6
			c-0.4-0.4-0.6-1.1-0.6-1.9v-3.7h-1v-0.9l1.1-0.7l0.6-1.6h1.3v1.6h2.1v1.6H120v3.7c0,0.3,0.1,0.5,0.3,0.7
			C120.4,160.9,120.6,160.9,120.9,160.9z"/>
		<path class="st6" d="M127.3,152.8c0-0.7,0.4-1,1.1-1c0.8,0,1.1,0.3,1.1,1c0,0.3-0.1,0.6-0.3,0.8c-0.2,0.2-0.5,0.3-0.9,0.3
			C127.7,153.9,127.3,153.5,127.3,152.8z M129.5,162.5h-2.1v-7.6h2.1V162.5z"/>
		<path class="st6" d="M135.9,156.4h-1.8v6.1H132v-6.1h-1.1v-1l1.1-0.6v-0.6c0-0.9,0.2-1.5,0.6-1.9c0.4-0.4,1.1-0.6,2.1-0.6
			c0.7,0,1.4,0.1,1.9,0.3l-0.5,1.5c-0.4-0.1-0.8-0.2-1.2-0.2c-0.3,0-0.5,0.1-0.6,0.3c-0.1,0.2-0.2,0.4-0.2,0.7v0.5h1.8V156.4z"/>
		<path class="st6" d="M147.6,162.5h-2.1V158c0-0.6-0.1-1-0.3-1.2c-0.2-0.3-0.5-0.4-0.9-0.4c-0.5,0-0.9,0.2-1.2,0.6
			c-0.2,0.4-0.4,1-0.4,1.9v3.6h-2.1v-7.6h1.6l0.3,1h0.1c0.2-0.4,0.5-0.6,0.9-0.8c0.4-0.2,0.8-0.3,1.3-0.3c1.1,0,1.9,0.4,2.3,1.1h0.2
			c0.2-0.4,0.5-0.6,0.9-0.8c0.4-0.2,0.8-0.3,1.3-0.3c0.9,0,1.5,0.2,2,0.7c0.4,0.4,0.7,1.2,0.7,2.1v5h-2.1V158c0-0.6-0.1-1-0.3-1.2
			c-0.2-0.3-0.5-0.4-0.9-0.4c-0.5,0-0.9,0.2-1.1,0.5s-0.4,0.9-0.4,1.7V162.5z"/>
		<path class="st6" d="M153.4,154.8h2.3l1.4,4.3c0.1,0.4,0.2,0.8,0.3,1.3h0c0.1-0.5,0.1-0.9,0.3-1.3l1.4-4.3h2.2l-3.2,8.6
			c-0.3,0.8-0.7,1.4-1.3,1.8c-0.5,0.4-1.2,0.6-1.9,0.6c-0.4,0-0.7,0-1.1-0.1v-1.7c0.3,0.1,0.5,0.1,0.8,0.1c0.4,0,0.7-0.1,1-0.3
			c0.3-0.2,0.5-0.6,0.6-1l0.1-0.4L153.4,154.8z"/>
		<path class="st6" d="M169.2,162.6c-2.4,0-3.6-1.3-3.6-3.9c0-1.3,0.3-2.3,1-3c0.6-0.7,1.6-1,2.8-1c0.9,0,1.7,0.2,2.4,0.5l-0.6,1.6
			c-0.3-0.1-0.6-0.2-0.9-0.3c-0.3-0.1-0.6-0.1-0.8-0.1c-1.1,0-1.6,0.8-1.6,2.3c0,1.5,0.5,2.2,1.6,2.2c0.4,0,0.8-0.1,1.1-0.2
			c0.3-0.1,0.7-0.3,1-0.5v1.8c-0.3,0.2-0.7,0.4-1,0.4C170.1,162.6,169.7,162.6,169.2,162.6z"/>
		<path class="st6" d="M177.5,154.7c0.3,0,0.5,0,0.7,0.1l-0.2,2c-0.2,0-0.4-0.1-0.6-0.1c-0.7,0-1.2,0.2-1.6,0.5
			c-0.4,0.3-0.6,0.8-0.6,1.4v3.9h-2.1v-7.6h1.6l0.3,1.3h0.1c0.2-0.4,0.6-0.8,1-1C176.6,154.8,177.1,154.7,177.5,154.7z"/>
		<path class="st6" d="M182.9,162.6c-1.2,0-2.2-0.3-2.9-1c-0.7-0.7-1-1.6-1-2.9c0-1.3,0.3-2.3,1-3c0.6-0.7,1.5-1,2.7-1
			c1.1,0,1.9,0.3,2.5,0.9s0.9,1.5,0.9,2.5v1h-4.9c0,0.6,0.2,1.1,0.5,1.4s0.8,0.5,1.4,0.5c0.5,0,0.9,0,1.3-0.1s0.8-0.2,1.3-0.5v1.6
			c-0.4,0.2-0.8,0.3-1.2,0.4C184.1,162.6,183.5,162.6,182.9,162.6z M182.7,156.2c-0.4,0-0.8,0.1-1,0.4c-0.3,0.3-0.4,0.7-0.4,1.2h2.9
			c0-0.5-0.1-0.9-0.4-1.2C183.4,156.3,183.1,156.2,182.7,156.2z"/>
		<path class="st6" d="M190.2,162.6c-0.9,0-1.6-0.3-2.1-1s-0.8-1.7-0.8-2.9c0-1.3,0.3-2.2,0.8-2.9c0.5-0.7,1.2-1,2.2-1
			c1,0,1.7,0.4,2.2,1.1h0.1c-0.1-0.6-0.2-1.1-0.2-1.5v-2.4h2.1v10.6h-1.6l-0.4-1h-0.1C191.9,162.2,191.1,162.6,190.2,162.6z
			 M190.9,160.9c0.5,0,0.9-0.2,1.2-0.5c0.2-0.3,0.4-0.8,0.4-1.6v-0.2c0-0.8-0.1-1.4-0.4-1.8s-0.7-0.5-1.2-0.5
			c-0.5,0-0.8,0.2-1.1,0.6c-0.3,0.4-0.4,1-0.4,1.7s0.1,1.3,0.4,1.7C190.1,160.8,190.4,160.9,190.9,160.9z"/>
		<path class="st6" d="M196.5,152.8c0-0.7,0.4-1,1.1-1c0.8,0,1.1,0.3,1.1,1c0,0.3-0.1,0.6-0.3,0.8c-0.2,0.2-0.5,0.3-0.9,0.3
			C196.9,153.9,196.5,153.5,196.5,152.8z M198.7,162.5h-2.1v-7.6h2.1V162.5z"/>
		<path class="st6" d="M204.1,160.9c0.4,0,0.8-0.1,1.3-0.2v1.6c-0.5,0.2-1.2,0.3-1.9,0.3c-0.8,0-1.4-0.2-1.8-0.6
			c-0.4-0.4-0.6-1.1-0.6-1.9v-3.7h-1v-0.9l1.1-0.7l0.6-1.6h1.3v1.6h2.1v1.6h-2.1v3.7c0,0.3,0.1,0.5,0.3,0.7
			C203.6,160.9,203.8,160.9,204.1,160.9z"/>
		<path class="st6" d="M213.7,162.6c-2.4,0-3.6-1.3-3.6-3.9c0-1.3,0.3-2.3,1-3c0.6-0.7,1.6-1,2.8-1c0.9,0,1.7,0.2,2.4,0.5l-0.6,1.6
			c-0.3-0.1-0.6-0.2-0.9-0.3c-0.3-0.1-0.6-0.1-0.8-0.1c-1.1,0-1.6,0.8-1.6,2.3c0,1.5,0.5,2.2,1.6,2.2c0.4,0,0.8-0.1,1.1-0.2
			c0.3-0.1,0.7-0.3,1-0.5v1.8c-0.3,0.2-0.7,0.4-1,0.4C214.7,162.6,214.2,162.6,213.7,162.6z"/>
		<path class="st6" d="M222.7,162.5l-0.4-1h-0.1c-0.4,0.4-0.7,0.7-1.1,0.9c-0.4,0.2-0.9,0.3-1.5,0.3c-0.7,0-1.3-0.2-1.7-0.6
			c-0.4-0.4-0.6-1-0.6-1.8c0-0.8,0.3-1.4,0.9-1.8c0.6-0.4,1.4-0.6,2.6-0.6l1.3,0v-0.3c0-0.8-0.4-1.2-1.2-1.2c-0.6,0-1.3,0.2-2.2,0.6
			l-0.7-1.4c0.9-0.5,1.9-0.7,2.9-0.7c1,0,1.8,0.2,2.4,0.7s0.8,1.1,0.8,2v5.1H222.7z M222,158.9l-0.8,0c-0.6,0-1.1,0.1-1.4,0.3
			c-0.3,0.2-0.4,0.5-0.4,0.9c0,0.6,0.3,0.9,1,0.9c0.5,0,0.9-0.1,1.2-0.4c0.3-0.3,0.4-0.6,0.4-1.1V158.9z"/>
		<path class="st6" d="M230.5,154.7c0.3,0,0.5,0,0.7,0.1l-0.2,2c-0.2,0-0.4-0.1-0.6-0.1c-0.7,0-1.2,0.2-1.6,0.5
			c-0.4,0.3-0.6,0.8-0.6,1.4v3.9h-2.1v-7.6h1.6l0.3,1.3h0.1c0.2-0.4,0.6-0.8,1-1C229.6,154.8,230.1,154.7,230.5,154.7z"/>
		<path class="st6" d="M234.9,162.6c-0.9,0-1.6-0.3-2.1-1s-0.8-1.7-0.8-2.9c0-1.3,0.3-2.2,0.8-2.9c0.5-0.7,1.2-1,2.2-1
			c1,0,1.7,0.4,2.2,1.1h0.1c-0.1-0.6-0.2-1.1-0.2-1.5v-2.4h2.1v10.6h-1.6l-0.4-1h-0.1C236.6,162.2,235.9,162.6,234.9,162.6z
			 M235.6,160.9c0.5,0,0.9-0.2,1.2-0.5c0.2-0.3,0.4-0.8,0.4-1.6v-0.2c0-0.8-0.1-1.4-0.4-1.8s-0.7-0.5-1.2-0.5
			c-0.5,0-0.8,0.2-1.1,0.6c-0.3,0.4-0.4,1-0.4,1.7s0.1,1.3,0.4,1.7C234.8,160.8,235.1,160.9,235.6,160.9z"/>
		<path class="st6" d="M86.4,169.6c0-0.7,0.4-1,1.1-1c0.8,0,1.1,0.3,1.1,1c0,0.3-0.1,0.6-0.3,0.8c-0.2,0.2-0.5,0.3-0.9,0.3
			C86.8,170.7,86.4,170.3,86.4,169.6z M88.6,179.3h-2.1v-7.6h2.1V179.3z"/>
		<path class="st6" d="M97.8,179.3h-2.1v-4.5c0-0.6-0.1-1-0.3-1.2c-0.2-0.3-0.5-0.4-0.9-0.4c-0.6,0-1,0.2-1.3,0.6
			c-0.3,0.4-0.4,1-0.4,1.9v3.6h-2.1v-7.6h1.6l0.3,1h0.1c0.2-0.4,0.6-0.6,1-0.8c0.4-0.2,0.9-0.3,1.4-0.3c0.9,0,1.6,0.2,2,0.7
			c0.5,0.5,0.7,1.2,0.7,2.1V179.3z"/>
		<path class="st6" d="M104.2,173.2h-1.8v6.1h-2.1v-6.1h-1.1v-1l1.1-0.6v-0.6c0-0.9,0.2-1.5,0.6-1.9c0.4-0.4,1.1-0.6,2.1-0.6
			c0.7,0,1.4,0.1,1.9,0.3l-0.5,1.5c-0.4-0.1-0.8-0.2-1.2-0.2c-0.3,0-0.5,0.1-0.6,0.3c-0.1,0.2-0.2,0.4-0.2,0.7v0.5h1.8V173.2z"/>
		<path class="st6" d="M112.3,175.4c0,1.2-0.3,2.2-1,2.9s-1.6,1.1-2.7,1.1c-0.7,0-1.4-0.2-1.9-0.5c-0.6-0.3-1-0.8-1.3-1.4
			s-0.5-1.3-0.5-2.1c0-1.2,0.3-2.2,1-2.9c0.7-0.7,1.6-1,2.7-1c0.7,0,1.4,0.2,1.9,0.5s1,0.8,1.3,1.4S112.3,174.6,112.3,175.4z
			 M107,175.4c0,0.8,0.1,1.3,0.4,1.7c0.2,0.4,0.7,0.6,1.2,0.6c0.6,0,1-0.2,1.2-0.6c0.2-0.4,0.4-1,0.4-1.7c0-0.8-0.1-1.3-0.4-1.7
			s-0.6-0.6-1.2-0.6c-0.6,0-1,0.2-1.2,0.6C107.2,174.1,107,174.7,107,175.4z"/>
		<path class="st6" d="M118.3,171.5c0.3,0,0.5,0,0.7,0.1l-0.2,2c-0.2,0-0.4-0.1-0.6-0.1c-0.7,0-1.2,0.2-1.6,0.5
			c-0.4,0.3-0.6,0.8-0.6,1.4v3.9H114v-7.6h1.6l0.3,1.3h0.1c0.2-0.4,0.6-0.8,1-1C117.4,171.6,117.8,171.5,118.3,171.5z"/>
		<path class="st6" d="M127.2,179.3h-2.1v-4.5c0-0.6-0.1-1-0.3-1.2c-0.2-0.3-0.5-0.4-0.9-0.4c-0.5,0-0.9,0.2-1.2,0.6
			c-0.2,0.4-0.4,1-0.4,1.9v3.6h-2.1v-7.6h1.6l0.3,1h0.1c0.2-0.4,0.5-0.6,0.9-0.8c0.4-0.2,0.8-0.3,1.3-0.3c1.1,0,1.9,0.4,2.3,1.1h0.2
			c0.2-0.4,0.5-0.6,0.9-0.8c0.4-0.2,0.8-0.3,1.3-0.3c0.9,0,1.5,0.2,2,0.7c0.4,0.4,0.7,1.2,0.7,2.1v5h-2.1v-4.5c0-0.6-0.1-1-0.3-1.2
			c-0.2-0.3-0.5-0.4-0.9-0.4c-0.5,0-0.9,0.2-1.1,0.5s-0.4,0.9-0.4,1.7V179.3z"/>
		<path class="st6" d="M139,179.3l-0.4-1h-0.1c-0.4,0.4-0.7,0.7-1.1,0.9c-0.4,0.2-0.9,0.3-1.5,0.3c-0.7,0-1.3-0.2-1.7-0.6
			c-0.4-0.4-0.6-1-0.6-1.8c0-0.8,0.3-1.4,0.9-1.8c0.6-0.4,1.4-0.6,2.6-0.6l1.3,0v-0.3c0-0.8-0.4-1.2-1.2-1.2c-0.6,0-1.3,0.2-2.2,0.6
			l-0.7-1.4c0.9-0.5,1.9-0.7,2.9-0.7c1,0,1.8,0.2,2.4,0.7s0.8,1.1,0.8,2v5.1H139z M138.4,175.7l-0.8,0c-0.6,0-1.1,0.1-1.4,0.3
			c-0.3,0.2-0.4,0.5-0.4,0.9c0,0.6,0.3,0.9,1,0.9c0.5,0,0.9-0.1,1.2-0.4c0.3-0.3,0.4-0.6,0.4-1.1V175.7z"/>
		<path class="st6" d="M145.8,177.7c0.4,0,0.8-0.1,1.3-0.2v1.6c-0.5,0.2-1.2,0.3-1.9,0.3c-0.8,0-1.4-0.2-1.8-0.6
			c-0.4-0.4-0.6-1.1-0.6-1.9v-3.7h-1v-0.9l1.1-0.7l0.6-1.6h1.3v1.6h2.1v1.6h-2.1v3.7c0,0.3,0.1,0.5,0.3,0.7
			C145.3,177.7,145.6,177.7,145.8,177.7z"/>
		<path class="st6" d="M148.6,169.6c0-0.7,0.4-1,1.1-1c0.8,0,1.1,0.3,1.1,1c0,0.3-0.1,0.6-0.3,0.8c-0.2,0.2-0.5,0.3-0.9,0.3
			C149,170.7,148.6,170.3,148.6,169.6z M150.8,179.3h-2.1v-7.6h2.1V179.3z"/>
		<path class="st6" d="M159.9,175.4c0,1.2-0.3,2.2-1,2.9s-1.6,1.1-2.7,1.1c-0.7,0-1.4-0.2-1.9-0.5c-0.6-0.3-1-0.8-1.3-1.4
			s-0.5-1.3-0.5-2.1c0-1.2,0.3-2.2,1-2.9c0.7-0.7,1.6-1,2.7-1c0.7,0,1.4,0.2,1.9,0.5s1,0.8,1.3,1.4S159.9,174.6,159.9,175.4z
			 M154.6,175.4c0,0.8,0.1,1.3,0.4,1.7c0.2,0.4,0.7,0.6,1.2,0.6c0.6,0,1-0.2,1.2-0.6c0.2-0.4,0.4-1,0.4-1.7c0-0.8-0.1-1.3-0.4-1.7
			s-0.6-0.6-1.2-0.6c-0.6,0-1,0.2-1.2,0.6C154.7,174.1,154.6,174.7,154.6,175.4z"/>
		<path class="st6" d="M168.7,179.3h-2.1v-4.5c0-0.6-0.1-1-0.3-1.2c-0.2-0.3-0.5-0.4-0.9-0.4c-0.6,0-1,0.2-1.3,0.6
			c-0.3,0.4-0.4,1-0.4,1.9v3.6h-2.1v-7.6h1.6l0.3,1h0.1c0.2-0.4,0.6-0.6,1-0.8c0.4-0.2,0.9-0.3,1.4-0.3c0.9,0,1.6,0.2,2,0.7
			c0.5,0.5,0.7,1.2,0.7,2.1V179.3z"/>
		<path class="st6" d="M174.4,169.6c0-0.7,0.4-1,1.1-1c0.8,0,1.1,0.3,1.1,1c0,0.3-0.1,0.6-0.3,0.8c-0.2,0.2-0.5,0.3-0.9,0.3
			C174.8,170.7,174.4,170.3,174.4,169.6z M176.5,179.3h-2.1v-7.6h2.1V179.3z"/>
		<path class="st6" d="M184.1,177c0,0.8-0.3,1.4-0.8,1.8c-0.5,0.4-1.4,0.6-2.4,0.6c-0.6,0-1,0-1.4-0.1c-0.4-0.1-0.8-0.2-1.1-0.3
			v-1.7c0.4,0.2,0.8,0.3,1.3,0.5s0.9,0.2,1.3,0.2c0.8,0,1.1-0.2,1.1-0.7c0-0.2,0-0.3-0.2-0.4c-0.1-0.1-0.3-0.2-0.5-0.3
			c-0.2-0.1-0.6-0.3-1-0.5c-0.6-0.2-1-0.5-1.3-0.7c-0.3-0.2-0.5-0.5-0.6-0.7c-0.1-0.3-0.2-0.6-0.2-1c0-0.7,0.3-1.2,0.8-1.6
			c0.5-0.4,1.3-0.6,2.2-0.6c0.9,0,1.8,0.2,2.7,0.6l-0.6,1.5c-0.4-0.2-0.7-0.3-1.1-0.4c-0.3-0.1-0.7-0.2-1-0.2
			c-0.6,0-0.9,0.2-0.9,0.5c0,0.2,0.1,0.3,0.3,0.5s0.6,0.3,1.3,0.6c0.6,0.2,1,0.5,1.3,0.7c0.3,0.2,0.5,0.5,0.6,0.7
			C184,176.3,184.1,176.6,184.1,177z"/>
		<path class="st6" d="M194.7,177c0,0.8-0.3,1.4-0.8,1.8c-0.5,0.4-1.4,0.6-2.4,0.6c-0.6,0-1,0-1.4-0.1c-0.4-0.1-0.8-0.2-1.1-0.3
			v-1.7c0.4,0.2,0.8,0.3,1.3,0.5s0.9,0.2,1.3,0.2c0.8,0,1.1-0.2,1.1-0.7c0-0.2,0-0.3-0.2-0.4c-0.1-0.1-0.3-0.2-0.5-0.3
			c-0.2-0.1-0.6-0.3-1-0.5c-0.6-0.2-1-0.5-1.3-0.7c-0.3-0.2-0.5-0.5-0.6-0.7c-0.1-0.3-0.2-0.6-0.2-1c0-0.7,0.3-1.2,0.8-1.6
			c0.5-0.4,1.3-0.6,2.2-0.6c0.9,0,1.8,0.2,2.7,0.6l-0.6,1.5c-0.4-0.2-0.7-0.3-1.1-0.4c-0.3-0.1-0.7-0.2-1-0.2
			c-0.6,0-0.9,0.2-0.9,0.5c0,0.2,0.1,0.3,0.3,0.5s0.6,0.3,1.3,0.6c0.6,0.2,1,0.5,1.3,0.7c0.3,0.2,0.5,0.5,0.6,0.7
			C194.6,176.3,194.7,176.6,194.7,177z"/>
		<path class="st6" d="M199.5,177.7c0.4,0,0.8-0.1,1.3-0.2v1.6c-0.5,0.2-1.2,0.3-1.9,0.3c-0.8,0-1.4-0.2-1.8-0.6
			c-0.4-0.4-0.6-1.1-0.6-1.9v-3.7h-1v-0.9l1.1-0.7l0.6-1.6h1.3v1.6h2.1v1.6h-2.1v3.7c0,0.3,0.1,0.5,0.3,0.7
			C199,177.7,199.2,177.7,199.5,177.7z"/>
		<path class="st6" d="M209.3,175.4c0,1.2-0.3,2.2-1,2.9s-1.6,1.1-2.7,1.1c-0.7,0-1.4-0.2-1.9-0.5c-0.6-0.3-1-0.8-1.3-1.4
			s-0.5-1.3-0.5-2.1c0-1.2,0.3-2.2,1-2.9c0.7-0.7,1.6-1,2.7-1c0.7,0,1.4,0.2,1.9,0.5s1,0.8,1.3,1.4S209.3,174.6,209.3,175.4z
			 M204,175.4c0,0.8,0.1,1.3,0.4,1.7c0.2,0.4,0.7,0.6,1.2,0.6c0.6,0,1-0.2,1.2-0.6c0.2-0.4,0.4-1,0.4-1.7c0-0.8-0.1-1.3-0.4-1.7
			s-0.6-0.6-1.2-0.6c-0.6,0-1,0.2-1.2,0.6C204.2,174.1,204,174.7,204,175.4z"/>
		<path class="st6" d="M213.1,179.3H211v-10.6h2.1V179.3z"/>
		<path class="st6" d="M218.8,179.4c-1.2,0-2.2-0.3-2.9-1c-0.7-0.7-1-1.6-1-2.9c0-1.3,0.3-2.3,1-3c0.6-0.7,1.5-1,2.7-1
			c1.1,0,1.9,0.3,2.5,0.9s0.9,1.5,0.9,2.5v1H217c0,0.6,0.2,1.1,0.5,1.4s0.8,0.5,1.4,0.5c0.5,0,0.9,0,1.3-0.1s0.8-0.2,1.3-0.5v1.6
			c-0.4,0.2-0.8,0.3-1.2,0.4C219.9,179.4,219.4,179.4,218.8,179.4z M218.5,173c-0.4,0-0.8,0.1-1,0.4c-0.3,0.3-0.4,0.7-0.4,1.2h2.9
			c0-0.5-0.1-0.9-0.4-1.2C219.3,173.1,218.9,173,218.5,173z"/>
		<path class="st6" d="M230.6,179.3h-2.1v-4.5c0-0.6-0.1-1-0.3-1.2c-0.2-0.3-0.5-0.4-0.9-0.4c-0.6,0-1,0.2-1.3,0.6
			c-0.3,0.4-0.4,1-0.4,1.9v3.6h-2.1v-7.6h1.6l0.3,1h0.1c0.2-0.4,0.6-0.6,1-0.8c0.4-0.2,0.9-0.3,1.4-0.3c0.9,0,1.6,0.2,2,0.7
			c0.5,0.5,0.7,1.2,0.7,2.1V179.3z"/>
		<path class="st6" d="M233.6,175.9v-0.5c0-0.4,0.1-0.8,0.3-1.1c0.2-0.3,0.5-0.7,1-1c0.5-0.3,0.8-0.6,0.9-0.8
			c0.2-0.2,0.2-0.5,0.2-0.7c0-0.3-0.1-0.5-0.3-0.7s-0.5-0.2-0.9-0.2c-0.7,0-1.5,0.2-2.3,0.7l-0.7-1.5c1-0.6,2.1-0.9,3.2-0.9
			c0.9,0,1.7,0.2,2.2,0.7s0.8,1.1,0.8,1.8c0,0.5-0.1,0.9-0.3,1.3c-0.2,0.4-0.7,0.8-1.3,1.2c-0.4,0.3-0.7,0.6-0.8,0.7
			s-0.2,0.4-0.2,0.7v0.4H233.6z M233.4,178.3c0-0.4,0.1-0.7,0.3-0.9s0.5-0.3,0.9-0.3c0.4,0,0.7,0.1,0.9,0.3c0.2,0.2,0.3,0.5,0.3,0.9
			c0,0.4-0.1,0.6-0.3,0.9c-0.2,0.2-0.5,0.3-0.9,0.3c-0.4,0-0.7-0.1-0.9-0.3C233.5,178.9,233.4,178.7,233.4,178.3z"/>
	</g>
</g>
</svg>