<!-- Generator: Adobe Illustrator 19.0.0, SVG Export Plug-In  -->
<svg version="1.1"
	 xmlns="http://www.w3.org/2000/svg" xmlns:xlink="http://www.w3.org/1999/xlink" xmlns:a="http://ns.adobe.com/AdobeSVGViewerExtensions/3.0/"
	 x="0px" y="0px" width="326.7px" height="212.7px" viewBox="0 0 326.7 212.7" style="enable-background:new 0 0 326.7 212.7;"
	 xml:space="preserve">
<style type="text/css">
	.st0{fill:#F99700;}
	.st1{fill:#FFFFFF;}
</style>
<defs>
</defs>
<g>
	<circle class="st0" cx="57" cy="123.9" r="57"/>
	<circle class="st0" cx="146.6" cy="90.7" r="90.7"/>
	<circle class="st0" cx="237.3" cy="90.7" r="79.5"/>
	<circle class="st0" cx="287.4" cy="142.2" r="39.3"/>
	<g>
		<path class="st1" d="M75.8,47.5l0-0.2c0.4-0.9,1-2,1.8-3.3h0.9c-0.6,1.5-1.1,2.7-1.4,3.4H75.8z M78.4,47.5l-0.1-0.2
			c0.4-0.8,1-1.9,1.9-3.3h0.9c-0.7,1.6-1.1,2.7-1.4,3.4H78.4z"/>
		<path class="st1" d="M83.1,54h-3.5l0.1-0.7l1.2-0.3l1.7-8.1l-1.1-0.3l0.1-0.7h3.5l-0.1,0.7L83.9,45l-1.7,8.1l1.1,0.3L83.1,54z"/>
		<path class="st1" d="M91.6,54.2c-0.9,0-1.6-0.2-2.1-0.7c-0.5-0.5-0.7-1.2-0.7-2.1c0-0.9,0.2-1.8,0.5-2.5c0.3-0.8,0.8-1.4,1.4-1.8
			c0.6-0.4,1.3-0.6,2-0.6c0.7,0,1.3,0.1,1.9,0.4l-0.3,1c-0.5-0.2-1-0.4-1.5-0.4c-0.5,0-1,0.2-1.4,0.5c-0.4,0.3-0.7,0.8-1,1.4
			c-0.2,0.6-0.3,1.3-0.3,2c0,0.6,0.1,1,0.4,1.3c0.3,0.3,0.7,0.5,1.2,0.5c0.3,0,0.6,0,0.9-0.1c0.3-0.1,0.6-0.2,0.9-0.3v1
			C92.9,54,92.3,54.2,91.6,54.2z"/>
		<path class="st1" d="M97.1,54.2c-0.6,0-1.1-0.2-1.5-0.7c-0.4-0.4-0.5-1.1-0.5-1.9c0-0.9,0.2-1.8,0.5-2.6c0.3-0.8,0.8-1.4,1.3-1.9
			c0.6-0.5,1.2-0.7,1.9-0.7c0.4,0,0.8,0.1,1.1,0.3c0.3,0.2,0.6,0.5,0.8,1h0.1l0.4-1.2h0.9l-1.6,7.5h-1l0.2-1.4h-0.1
			C98.9,53.7,98.1,54.2,97.1,54.2z M97.6,53.1c0.4,0,0.9-0.2,1.3-0.6c0.4-0.4,0.8-0.9,1-1.6c0.3-0.7,0.4-1.3,0.4-2
			c0-0.4-0.1-0.8-0.4-1.1c-0.2-0.3-0.6-0.4-1-0.4c-0.5,0-0.9,0.2-1.3,0.6c-0.4,0.4-0.7,0.9-0.9,1.6c-0.2,0.7-0.3,1.3-0.3,2.1
			c0,0.5,0.1,0.9,0.3,1.1S97.2,53.1,97.6,53.1z"/>
		<path class="st1" d="M108.6,54h-1.2l1-4.7c0.1-0.5,0.1-0.8,0.1-1c0-0.3-0.1-0.5-0.2-0.7c-0.2-0.2-0.4-0.3-0.8-0.3
			c-0.4,0-0.8,0.1-1.1,0.4c-0.4,0.3-0.7,0.7-1,1.2c-0.3,0.5-0.5,1.1-0.7,1.8L104,54h-1.2l1.6-7.5h1l-0.2,1.4h0.1
			c0.3-0.4,0.6-0.7,0.8-0.9s0.5-0.4,0.8-0.5c0.3-0.1,0.6-0.2,0.9-0.2c0.6,0,1,0.2,1.4,0.5c0.3,0.3,0.5,0.8,0.5,1.4
			c0,0.4-0.1,0.8-0.2,1.2L108.6,54z"/>
		<path class="st1" d="M119.2,51.9c0,0.7-0.3,1.3-0.8,1.7c-0.5,0.4-1.2,0.6-2.1,0.6c-0.8,0-1.5-0.2-2.1-0.5v-1.1
			c0.3,0.2,0.6,0.3,1,0.4c0.4,0.1,0.7,0.2,1.1,0.2c0.6,0,1-0.1,1.3-0.3c0.3-0.2,0.4-0.5,0.4-0.9c0-0.3-0.1-0.5-0.2-0.6
			c-0.2-0.2-0.5-0.4-1-0.7c-0.6-0.3-1-0.7-1.2-1c-0.2-0.3-0.4-0.7-0.4-1.1c0-0.6,0.2-1.2,0.7-1.5c0.5-0.4,1.1-0.6,1.9-0.6
			c0.8,0,1.5,0.2,2.3,0.5l-0.4,1c-0.2-0.1-0.5-0.2-0.8-0.3c-0.3-0.1-0.7-0.1-1.1-0.1c-0.4,0-0.7,0.1-1,0.3c-0.2,0.2-0.4,0.4-0.4,0.7
			c0,0.3,0.1,0.5,0.2,0.6c0.2,0.2,0.5,0.4,1,0.7c0.5,0.3,0.9,0.6,1.1,0.7c0.2,0.2,0.3,0.4,0.4,0.6C119.2,51.3,119.2,51.6,119.2,51.9
			z"/>
		<path class="st1" d="M126.4,54h-1.2l1-4.7c0.1-0.4,0.1-0.7,0.1-0.9c0-0.7-0.3-1-1-1c-0.4,0-0.8,0.1-1.2,0.4
			c-0.4,0.3-0.7,0.7-1,1.2c-0.3,0.5-0.5,1.1-0.6,1.8l-0.7,3.2h-1.2l2.3-10.6h1.2l-0.6,2.8c-0.1,0.3-0.1,0.6-0.2,0.9
			c-0.1,0.3-0.2,0.6-0.2,0.9h0.1c0.4-0.5,0.8-0.9,1.2-1.2s0.8-0.4,1.3-0.4c0.6,0,1.1,0.2,1.4,0.5c0.3,0.3,0.5,0.8,0.5,1.4
			c0,0.3,0,0.6-0.2,1.1L126.4,54z"/>
		<path class="st1" d="M135.5,49.3c0,0.9-0.2,1.7-0.5,2.4c-0.3,0.8-0.8,1.3-1.3,1.8c-0.6,0.4-1.2,0.6-1.9,0.6
			c-0.9,0-1.6-0.3-2.1-0.8c-0.5-0.5-0.7-1.2-0.7-2.1c0-0.9,0.2-1.7,0.5-2.5c0.3-0.8,0.8-1.4,1.3-1.8s1.2-0.6,1.9-0.6
			c0.9,0,1.6,0.3,2.1,0.8C135.3,47.7,135.5,48.4,135.5,49.3z M134.3,49.2c0-0.5-0.1-0.9-0.4-1.3c-0.3-0.3-0.6-0.5-1.1-0.5
			c-0.5,0-0.9,0.2-1.3,0.5c-0.4,0.3-0.7,0.8-0.9,1.4c-0.2,0.6-0.3,1.2-0.3,2c0,0.6,0.1,1,0.4,1.3c0.3,0.3,0.7,0.5,1.2,0.5
			c0.5,0,0.9-0.2,1.2-0.5c0.4-0.3,0.7-0.8,0.9-1.4C134.2,50.7,134.3,50,134.3,49.2z"/>
		<path class="st1" d="M141.6,46.4c0.6,0,1.1,0.2,1.5,0.7c0.4,0.5,0.5,1.1,0.5,1.9c0,1-0.2,1.9-0.5,2.7c-0.3,0.8-0.8,1.4-1.3,1.9
			c-0.5,0.4-1.2,0.7-1.9,0.7c-0.9,0-1.5-0.4-1.9-1.3H138c-0.1,0.6-0.1,1-0.2,1.3l-0.7,3.2h-1.2l2.3-10.9h1l-0.2,1.4h0.1
			c0.4-0.5,0.9-0.9,1.3-1.2C140.7,46.5,141.1,46.4,141.6,46.4z M141.1,47.4c-0.4,0-0.9,0.2-1.3,0.6s-0.8,1-1,1.6
			c-0.3,0.7-0.4,1.3-0.4,2c0,0.5,0.1,0.8,0.4,1.1c0.2,0.3,0.6,0.4,1.1,0.4c0.4,0,0.9-0.2,1.2-0.6s0.7-0.9,0.9-1.6
			c0.2-0.7,0.3-1.4,0.3-2.1C142.3,47.9,141.9,47.4,141.1,47.4z"/>
		<path class="st1" d="M150.6,54.2c-0.6,0-1.1-0.2-1.5-0.7c-0.4-0.4-0.5-1.1-0.5-1.9c0-0.9,0.2-1.8,0.5-2.6c0.3-0.8,0.8-1.4,1.3-1.9
			c0.6-0.5,1.2-0.7,1.9-0.7c0.4,0,0.8,0.1,1.1,0.3c0.3,0.2,0.6,0.5,0.8,1h0.1l0.4-1.2h0.9L154,54h-1l0.2-1.4h-0.1
			C152.4,53.7,151.5,54.2,150.6,54.2z M151,53.1c0.4,0,0.9-0.2,1.3-0.6c0.4-0.4,0.8-0.9,1-1.6c0.3-0.7,0.4-1.3,0.4-2
			c0-0.4-0.1-0.8-0.4-1.1c-0.2-0.3-0.6-0.4-1-0.4c-0.5,0-0.9,0.2-1.3,0.6c-0.4,0.4-0.7,0.9-0.9,1.6c-0.2,0.7-0.3,1.3-0.3,2.1
			c0,0.5,0.1,0.9,0.3,1.1S150.7,53.1,151,53.1z"/>
		<path class="st1" d="M161.1,46.4c0.3,0,0.6,0,0.8,0.1l-0.3,1.1c-0.3-0.1-0.5-0.1-0.7-0.1c-0.4,0-0.8,0.1-1.2,0.4
			c-0.4,0.3-0.7,0.6-0.9,1.1c-0.3,0.5-0.5,1-0.6,1.6l-0.7,3.4h-1.2l1.6-7.5h1l-0.2,1.4h0.1c0.3-0.4,0.6-0.8,0.8-0.9
			c0.2-0.2,0.4-0.3,0.7-0.4C160.5,46.4,160.8,46.4,161.1,46.4z"/>
		<path class="st1" d="M169,49.3c0,0.9-0.2,1.7-0.5,2.4c-0.3,0.8-0.8,1.3-1.3,1.8c-0.6,0.4-1.2,0.6-1.9,0.6c-0.9,0-1.6-0.3-2.1-0.8
			c-0.5-0.5-0.7-1.2-0.7-2.1c0-0.9,0.2-1.7,0.5-2.5c0.3-0.8,0.8-1.4,1.3-1.8c0.6-0.4,1.2-0.6,1.9-0.6c0.9,0,1.6,0.3,2.1,0.8
			C168.8,47.7,169,48.4,169,49.3z M167.7,49.2c0-0.5-0.1-0.9-0.4-1.3c-0.3-0.3-0.6-0.5-1.1-0.5c-0.5,0-0.9,0.2-1.3,0.5
			c-0.4,0.3-0.7,0.8-0.9,1.4c-0.2,0.6-0.3,1.2-0.3,2c0,0.6,0.1,1,0.4,1.3c0.3,0.3,0.7,0.5,1.2,0.5c0.5,0,0.9-0.2,1.2-0.5
			c0.4-0.3,0.7-0.8,0.9-1.4S167.7,50,167.7,49.2z"/>
		<path class="st1" d="M171.6,46.5h1.2l-1,4.7c-0.1,0.4-0.1,0.7-0.1,0.9c0,0.6,0.3,1,1,1c0.4,0,0.8-0.1,1.2-0.4
			c0.4-0.3,0.7-0.7,1-1.2c0.3-0.5,0.5-1.1,0.7-1.8l0.7-3.2h1.2l-1.6,7.5h-1l0.2-1.4h-0.1c-0.4,0.5-0.8,0.9-1.2,1.2
			c-0.4,0.2-0.8,0.4-1.3,0.4c-0.6,0-1-0.2-1.4-0.5c-0.3-0.3-0.5-0.8-0.5-1.4c0-0.3,0.1-0.7,0.2-1.2L171.6,46.5z"/>
		<path class="st1" d="M184,54h-1.2l1-4.7c0.1-0.5,0.1-0.8,0.1-1c0-0.3-0.1-0.5-0.2-0.7c-0.2-0.2-0.4-0.3-0.8-0.3
			c-0.4,0-0.8,0.1-1.1,0.4s-0.7,0.7-1,1.2c-0.3,0.5-0.5,1.1-0.6,1.8l-0.7,3.2h-1.2l1.6-7.5h1l-0.2,1.4h0.1c0.3-0.4,0.6-0.7,0.8-0.9
			c0.2-0.2,0.5-0.4,0.8-0.5c0.3-0.1,0.6-0.2,0.9-0.2c0.6,0,1.1,0.2,1.4,0.5c0.3,0.3,0.5,0.8,0.5,1.4c0,0.4,0,0.8-0.2,1.2L184,54z"/>
		<path class="st1" d="M188.6,54.2c-0.6,0-1.1-0.2-1.5-0.7c-0.4-0.4-0.5-1.1-0.5-1.9c0-1,0.2-1.8,0.5-2.6c0.3-0.8,0.8-1.4,1.3-1.9
			c0.6-0.4,1.2-0.7,1.9-0.7c0.9,0,1.5,0.4,1.9,1.3h0.1c0.1-0.8,0.2-1.4,0.3-1.8l0.5-2.4h1.2L192,54h-1l0.2-1.4h-0.1
			c-0.4,0.5-0.9,0.9-1.3,1.2S189,54.2,188.6,54.2z M189,53.1c0.4,0,0.9-0.2,1.3-0.6c0.4-0.4,0.8-1,1-1.6c0.3-0.6,0.4-1.3,0.4-2
			c0-0.5-0.1-0.9-0.4-1.1c-0.2-0.3-0.6-0.4-1-0.4c-0.5,0-0.9,0.2-1.3,0.6c-0.4,0.4-0.7,0.9-0.9,1.6c-0.2,0.7-0.3,1.4-0.3,2.1
			C187.8,52.6,188.2,53.1,189,53.1z"/>
		<path class="st1" d="M197,57.4c-0.3,0-0.6,0-0.9-0.1v-1c0.3,0.1,0.5,0.2,0.8,0.2c0.3,0,0.6-0.1,0.8-0.4c0.2-0.3,0.3-0.7,0.5-1.2
			l1.5-7.3h-1.3l0.1-0.5l1.4-0.5l0.2-0.7c0.2-0.9,0.5-1.6,0.9-1.9c0.4-0.4,0.9-0.6,1.7-0.6c0.4,0,0.9,0.1,1.3,0.3l-0.3,0.9
			c-0.3-0.1-0.7-0.2-0.9-0.2c-0.4,0-0.7,0.1-0.9,0.3c-0.2,0.2-0.4,0.6-0.5,1.1l-0.2,0.7h1.6l-0.2,0.9h-1.6l-1.6,7.5
			c-0.2,0.9-0.5,1.5-0.8,1.9C198.1,57.2,197.6,57.4,197,57.4z"/>
		<path class="st1" d="M209.3,49.3c0,0.9-0.2,1.7-0.5,2.4c-0.3,0.8-0.8,1.3-1.3,1.8c-0.6,0.4-1.2,0.6-1.9,0.6
			c-0.9,0-1.6-0.3-2.1-0.8c-0.5-0.5-0.7-1.2-0.7-2.1c0-0.9,0.2-1.7,0.5-2.5c0.3-0.8,0.8-1.4,1.3-1.8c0.6-0.4,1.2-0.6,1.9-0.6
			c0.9,0,1.6,0.3,2.1,0.8C209,47.7,209.3,48.4,209.3,49.3z M208,49.2c0-0.5-0.1-0.9-0.4-1.3c-0.3-0.3-0.6-0.5-1.1-0.5
			c-0.5,0-0.9,0.2-1.3,0.5c-0.4,0.3-0.7,0.8-0.9,1.4c-0.2,0.6-0.3,1.2-0.3,2c0,0.6,0.1,1,0.4,1.3c0.3,0.3,0.7,0.5,1.2,0.5
			c0.5,0,0.9-0.2,1.2-0.5c0.4-0.3,0.7-0.8,0.9-1.4S208,50,208,49.2z"/>
		<path class="st1" d="M215.2,46.4c0.3,0,0.6,0,0.8,0.1l-0.3,1.1c-0.3-0.1-0.5-0.1-0.7-0.1c-0.4,0-0.8,0.1-1.2,0.4
			c-0.4,0.3-0.7,0.6-0.9,1.1c-0.3,0.5-0.5,1-0.6,1.6l-0.7,3.4h-1.2l1.6-7.5h1l-0.2,1.4h0.1c0.3-0.4,0.6-0.8,0.8-0.9
			c0.2-0.2,0.4-0.3,0.7-0.4C214.6,46.4,214.9,46.4,215.2,46.4z"/>
		<path class="st1" d="M222.9,54.2c-0.4,0-0.8-0.1-1.2-0.3c-0.3-0.2-0.6-0.5-0.8-1h-0.1l-0.5,1.1h-0.9l2.3-10.6h1.2l-0.5,2.5
			c-0.1,0.4-0.2,0.8-0.3,1.3c-0.1,0.4-0.2,0.7-0.2,0.8h0.1c0.5-0.6,0.9-1,1.3-1.2c0.4-0.2,0.8-0.3,1.2-0.3c0.6,0,1.2,0.2,1.5,0.7
			c0.4,0.4,0.5,1.1,0.5,1.9c0,0.9-0.2,1.8-0.5,2.6c-0.3,0.8-0.7,1.4-1.3,1.9C224.3,53.9,223.6,54.2,222.9,54.2z M224.1,47.4
			c-0.4,0-0.9,0.2-1.3,0.6c-0.4,0.4-0.8,1-1,1.6c-0.3,0.6-0.4,1.3-0.4,2c0,0.5,0.1,0.8,0.4,1.1c0.2,0.3,0.6,0.4,1.1,0.4
			c0.4,0,0.9-0.2,1.2-0.6s0.7-0.9,0.9-1.6c0.2-0.7,0.3-1.4,0.3-2.1C225.3,47.9,224.9,47.4,224.1,47.4z"/>
		<path class="st1" d="M230.7,54.2c-0.8,0-1.5-0.3-2-0.7c-0.5-0.5-0.7-1.2-0.7-2.1c0-0.9,0.2-1.7,0.5-2.5c0.3-0.8,0.8-1.4,1.4-1.8
			c0.6-0.4,1.2-0.7,1.9-0.7c0.7,0,1.2,0.2,1.6,0.5c0.4,0.3,0.5,0.7,0.5,1.3c0,0.8-0.4,1.5-1.1,1.9c-0.8,0.5-1.8,0.7-3.2,0.7h-0.2
			l0,0.5c0,0.6,0.1,1,0.4,1.4c0.3,0.3,0.7,0.5,1.3,0.5c0.4,0,0.7,0,1-0.2c0.3-0.1,0.7-0.2,1-0.4v1.1c-0.5,0.2-0.8,0.4-1.2,0.4
			C231.4,54.1,231,54.2,230.7,54.2z M231.6,47.4c-0.5,0-0.9,0.2-1.3,0.7c-0.4,0.4-0.7,1-0.9,1.7h0.1c1,0,1.8-0.1,2.3-0.4
			s0.8-0.6,0.8-1.2c0-0.2-0.1-0.4-0.2-0.6S232,47.4,231.6,47.4z"/>
		<path class="st1" d="M237,53.2c0.3,0,0.6-0.1,1-0.2v0.9c-0.1,0.1-0.3,0.1-0.6,0.2c-0.2,0-0.4,0.1-0.6,0.1c-0.6,0-1-0.1-1.3-0.4
			c-0.3-0.3-0.5-0.7-0.5-1.2c0-0.3,0-0.6,0.1-1l0.9-4.1h-1.2l0.1-0.6l1.3-0.5l0.9-1.6h0.7l-0.4,1.7h1.9l-0.2,0.9h-1.9l-0.9,4.1
			c-0.1,0.4-0.1,0.6-0.1,0.8c0,0.2,0.1,0.4,0.2,0.6C236.6,53.1,236.8,53.2,237,53.2z"/>
		<path class="st1" d="M241.7,53.2c0.3,0,0.6-0.1,1-0.2v0.9c-0.1,0.1-0.3,0.1-0.6,0.2c-0.2,0-0.4,0.1-0.6,0.1c-0.6,0-1-0.1-1.3-0.4
			c-0.3-0.3-0.5-0.7-0.5-1.2c0-0.3,0-0.6,0.1-1l0.9-4.1h-1.2l0.1-0.6l1.3-0.5l0.9-1.6h0.7l-0.4,1.7h1.9l-0.2,0.9h-1.9l-0.9,4.1
			c-0.1,0.4-0.1,0.6-0.1,0.8c0,0.2,0.1,0.4,0.2,0.6C241.2,53.1,241.4,53.2,241.7,53.2z"/>
		<path class="st1" d="M246.9,54.2c-0.8,0-1.5-0.3-2-0.7c-0.5-0.5-0.7-1.2-0.7-2.1c0-0.9,0.2-1.7,0.5-2.5c0.3-0.8,0.8-1.4,1.4-1.8
			c0.6-0.4,1.2-0.7,1.9-0.7c0.7,0,1.2,0.2,1.6,0.5c0.4,0.3,0.5,0.7,0.5,1.3c0,0.8-0.4,1.5-1.1,1.9c-0.8,0.5-1.8,0.7-3.2,0.7h-0.2
			l0,0.5c0,0.6,0.1,1,0.4,1.4c0.3,0.3,0.7,0.5,1.3,0.5c0.4,0,0.7,0,1-0.2c0.3-0.1,0.7-0.2,1-0.4v1.1c-0.5,0.2-0.8,0.4-1.2,0.4
			C247.7,54.1,247.3,54.2,246.9,54.2z M247.9,47.4c-0.5,0-0.9,0.2-1.3,0.7c-0.4,0.4-0.7,1-0.9,1.7h0.1c1,0,1.8-0.1,2.3-0.4
			s0.8-0.6,0.8-1.2c0-0.2-0.1-0.4-0.2-0.6S248.3,47.4,247.9,47.4z"/>
		<path class="st1" d="M255.7,46.4c0.3,0,0.6,0,0.8,0.1l-0.3,1.1c-0.3-0.1-0.5-0.1-0.7-0.1c-0.4,0-0.8,0.1-1.2,0.4
			c-0.4,0.3-0.7,0.6-0.9,1.1c-0.3,0.5-0.5,1-0.6,1.6l-0.7,3.4h-1.2l1.6-7.5h1l-0.2,1.4h0.1c0.3-0.4,0.6-0.8,0.8-0.9
			c0.2-0.2,0.4-0.3,0.7-0.4C255.2,46.4,255.4,46.4,255.7,46.4z"/>
		<path class="st1" d="M80.3,63.2c0.6,0,1.1,0.2,1.5,0.7c0.4,0.5,0.5,1.1,0.5,1.9c0,1-0.2,1.9-0.5,2.7c-0.3,0.8-0.8,1.4-1.3,1.9
			C80,70.7,79.4,71,78.7,71c-0.9,0-1.5-0.4-1.9-1.3h-0.1c-0.1,0.6-0.1,1-0.2,1.3l-0.7,3.2h-1.2l2.3-10.9h1l-0.2,1.4h0.1
			c0.4-0.5,0.9-0.9,1.3-1.2C79.5,63.3,79.9,63.2,80.3,63.2z M79.9,64.2c-0.4,0-0.9,0.2-1.3,0.6s-0.8,1-1,1.6c-0.3,0.7-0.4,1.3-0.4,2
			c0,0.5,0.1,0.8,0.4,1.1c0.2,0.3,0.6,0.4,1.1,0.4c0.4,0,0.9-0.2,1.2-0.6s0.7-0.9,0.9-1.6c0.2-0.7,0.3-1.4,0.3-2.1
			C81.1,64.7,80.7,64.2,79.9,64.2z"/>
		<path class="st1" d="M88.2,63.2c0.3,0,0.6,0,0.8,0.1l-0.3,1.1c-0.3-0.1-0.5-0.1-0.7-0.1c-0.4,0-0.8,0.1-1.2,0.4
			c-0.4,0.3-0.7,0.6-0.9,1.1c-0.3,0.5-0.5,1-0.6,1.6l-0.7,3.4h-1.2l1.6-7.5h1l-0.2,1.4h0.1c0.3-0.4,0.6-0.8,0.8-0.9
			c0.2-0.2,0.4-0.3,0.7-0.4C87.7,63.2,87.9,63.2,88.2,63.2z"/>
		<path class="st1" d="M90.2,70.8H89l1.6-7.5h1.2L90.2,70.8z M90.9,61.4c0-0.3,0.1-0.5,0.2-0.6s0.4-0.3,0.6-0.3
			c0.4,0,0.6,0.2,0.6,0.6c0,0.3-0.1,0.5-0.2,0.7c-0.2,0.2-0.3,0.3-0.6,0.3c-0.2,0-0.4-0.1-0.5-0.2S90.9,61.6,90.9,61.4z"/>
		<path class="st1" d="M95.7,71c-0.9,0-1.6-0.2-2.1-0.7c-0.5-0.5-0.7-1.2-0.7-2.1c0-0.9,0.2-1.8,0.5-2.5c0.3-0.8,0.8-1.4,1.4-1.8
			c0.6-0.4,1.3-0.6,2-0.6c0.7,0,1.3,0.1,1.9,0.4l-0.3,1c-0.5-0.2-1-0.4-1.5-0.4c-0.5,0-1,0.2-1.4,0.5c-0.4,0.3-0.7,0.8-1,1.4
			c-0.2,0.6-0.3,1.3-0.3,2c0,0.6,0.1,1,0.4,1.3c0.3,0.3,0.7,0.5,1.2,0.5c0.3,0,0.6,0,0.9-0.1c0.3-0.1,0.6-0.2,0.9-0.3v1
			C97,70.8,96.4,71,95.7,71z"/>
		<path class="st1" d="M101.9,71c-0.8,0-1.5-0.3-2-0.7c-0.5-0.5-0.7-1.2-0.7-2.1c0-0.9,0.2-1.7,0.5-2.5c0.3-0.8,0.8-1.4,1.4-1.8
			c0.6-0.4,1.2-0.7,1.9-0.7c0.7,0,1.2,0.2,1.6,0.5c0.4,0.3,0.5,0.7,0.5,1.3c0,0.8-0.4,1.5-1.1,1.9c-0.8,0.5-1.8,0.7-3.2,0.7h-0.2
			l0,0.5c0,0.6,0.1,1,0.4,1.4s0.7,0.5,1.3,0.5c0.3,0,0.7,0,1-0.2c0.3-0.1,0.7-0.2,1-0.4v1.1c-0.5,0.2-0.8,0.4-1.2,0.4
			C102.7,70.9,102.3,71,101.9,71z M102.9,64.2c-0.5,0-0.9,0.2-1.3,0.7c-0.4,0.4-0.7,1-0.9,1.7h0.1c1,0,1.8-0.1,2.3-0.4
			s0.8-0.6,0.8-1.2c0-0.2-0.1-0.4-0.2-0.6S103.2,64.2,102.9,64.2z"/>
		<path class="st1" d="M110.6,68.7c0,0.7-0.3,1.3-0.8,1.7s-1.2,0.6-2.2,0.6c-0.8,0-1.5-0.2-2.1-0.5v-1.1c0.3,0.2,0.6,0.3,1,0.4
			c0.4,0.1,0.7,0.2,1.1,0.2c0.6,0,1-0.1,1.3-0.3c0.3-0.2,0.4-0.5,0.4-0.9c0-0.3-0.1-0.5-0.2-0.6c-0.2-0.2-0.5-0.4-1-0.7
			c-0.6-0.3-1-0.7-1.2-1c-0.2-0.3-0.4-0.7-0.4-1.1c0-0.6,0.2-1.2,0.7-1.5c0.5-0.4,1.1-0.6,1.9-0.6c0.8,0,1.5,0.2,2.3,0.5l-0.4,1
			c-0.2-0.1-0.5-0.2-0.8-0.3c-0.3-0.1-0.7-0.1-1.1-0.1c-0.4,0-0.7,0.1-1,0.3c-0.2,0.2-0.4,0.4-0.4,0.7c0,0.3,0.1,0.5,0.3,0.6
			c0.2,0.2,0.5,0.4,1,0.7c0.5,0.3,0.9,0.6,1.1,0.7c0.2,0.2,0.3,0.4,0.4,0.6C110.6,68.1,110.6,68.4,110.6,68.7z"/>
		<path class="st1" d="M119,71c-0.4,0-0.8-0.1-1.2-0.3c-0.3-0.2-0.6-0.5-0.8-1H117l-0.5,1.1h-0.9l2.3-10.6h1.2l-0.5,2.5
			c-0.1,0.4-0.2,0.8-0.3,1.3c-0.1,0.4-0.2,0.7-0.2,0.8h0.1c0.5-0.6,0.9-1,1.3-1.2c0.4-0.2,0.8-0.3,1.2-0.3c0.6,0,1.2,0.2,1.5,0.7
			c0.4,0.4,0.5,1.1,0.5,1.9c0,0.9-0.2,1.8-0.5,2.6c-0.3,0.8-0.7,1.4-1.3,1.9C120.3,70.7,119.7,71,119,71z M120.2,64.2
			c-0.4,0-0.9,0.2-1.3,0.6c-0.4,0.4-0.8,1-1,1.6c-0.3,0.6-0.4,1.3-0.4,2c0,0.5,0.1,0.8,0.4,1.1c0.2,0.3,0.6,0.4,1.1,0.4
			c0.4,0,0.9-0.2,1.2-0.6s0.7-0.9,0.9-1.6c0.2-0.7,0.3-1.4,0.3-2.1C121.4,64.7,121,64.2,120.2,64.2z"/>
		<path class="st1" d="M126.7,71c-0.8,0-1.5-0.3-2-0.7c-0.5-0.5-0.7-1.2-0.7-2.1c0-0.9,0.2-1.7,0.5-2.5c0.3-0.8,0.8-1.4,1.4-1.8
			c0.6-0.4,1.2-0.7,1.9-0.7c0.7,0,1.2,0.2,1.6,0.5c0.4,0.3,0.5,0.7,0.5,1.3c0,0.8-0.4,1.5-1.1,1.9c-0.8,0.5-1.8,0.7-3.2,0.7h-0.2
			l0,0.5c0,0.6,0.1,1,0.4,1.4c0.3,0.3,0.7,0.5,1.3,0.5c0.4,0,0.7,0,1-0.2c0.3-0.1,0.7-0.2,1-0.4v1.1c-0.5,0.2-0.8,0.4-1.2,0.4
			C127.5,70.9,127.1,71,126.7,71z M127.7,64.2c-0.5,0-0.9,0.2-1.3,0.7c-0.4,0.4-0.7,1-0.9,1.7h0.1c1,0,1.8-0.1,2.3-0.4
			c0.5-0.3,0.8-0.6,0.8-1.2c0-0.2-0.1-0.4-0.2-0.6S128,64.2,127.7,64.2z"/>
		<path class="st1" d="M129.6,74.2c-0.3,0-0.6,0-0.9-0.1v-1c0.3,0.1,0.5,0.2,0.8,0.2c0.3,0,0.6-0.1,0.8-0.4c0.2-0.3,0.4-0.7,0.5-1.2
			l1.5-7.3H131l0.1-0.5l1.4-0.5l0.2-0.7c0.2-0.9,0.5-1.6,0.9-1.9c0.4-0.4,0.9-0.6,1.7-0.6c0.4,0,0.9,0.1,1.3,0.3l-0.3,0.9
			c-0.3-0.1-0.6-0.2-0.9-0.2c-0.4,0-0.7,0.1-0.9,0.3c-0.2,0.2-0.4,0.6-0.5,1.1l-0.2,0.7h1.6l-0.2,0.9h-1.6l-1.6,7.5
			c-0.2,0.9-0.5,1.5-0.8,1.9S130.2,74.2,129.6,74.2z"/>
		<path class="st1" d="M142,66.1c0,0.9-0.2,1.7-0.5,2.4c-0.3,0.8-0.8,1.3-1.3,1.8c-0.6,0.4-1.2,0.6-1.9,0.6c-0.9,0-1.6-0.3-2.1-0.8
			c-0.5-0.5-0.7-1.2-0.7-2.1c0-0.9,0.2-1.7,0.5-2.5c0.3-0.8,0.8-1.4,1.3-1.8s1.2-0.6,1.9-0.6c0.9,0,1.6,0.3,2.1,0.8
			C141.7,64.5,142,65.2,142,66.1z M140.7,66c0-0.5-0.1-0.9-0.4-1.3c-0.3-0.3-0.6-0.5-1.1-0.5c-0.5,0-0.9,0.2-1.3,0.5
			c-0.4,0.3-0.7,0.8-0.9,1.4c-0.2,0.6-0.3,1.2-0.3,2c0,0.6,0.1,1,0.4,1.3c0.3,0.3,0.7,0.5,1.2,0.5c0.5,0,0.9-0.2,1.2-0.5
			c0.4-0.3,0.7-0.8,0.9-1.4C140.6,67.5,140.7,66.8,140.7,66z"/>
		<path class="st1" d="M147.8,63.2c0.3,0,0.6,0,0.8,0.1l-0.3,1.1c-0.3-0.1-0.5-0.1-0.7-0.1c-0.4,0-0.8,0.1-1.2,0.4
			c-0.4,0.3-0.7,0.6-0.9,1.1c-0.3,0.5-0.5,1-0.6,1.6l-0.7,3.4H143l1.6-7.5h1l-0.2,1.4h0.1c0.3-0.4,0.6-0.8,0.8-0.9
			c0.2-0.2,0.4-0.3,0.7-0.4C147.3,63.2,147.5,63.2,147.8,63.2z"/>
		<path class="st1" d="M151.9,71c-0.8,0-1.5-0.3-2-0.7c-0.5-0.5-0.7-1.2-0.7-2.1c0-0.9,0.2-1.7,0.5-2.5c0.3-0.8,0.8-1.4,1.4-1.8
			c0.6-0.4,1.2-0.7,1.9-0.7c0.7,0,1.2,0.2,1.6,0.5c0.4,0.3,0.5,0.7,0.5,1.3c0,0.8-0.4,1.5-1.1,1.9c-0.8,0.5-1.8,0.7-3.2,0.7h-0.2
			l0,0.5c0,0.6,0.1,1,0.4,1.4s0.7,0.5,1.3,0.5c0.3,0,0.7,0,1-0.2c0.3-0.1,0.7-0.2,1-0.4v1.1c-0.5,0.2-0.8,0.4-1.2,0.4
			C152.7,70.9,152.3,71,151.9,71z M152.9,64.2c-0.5,0-0.9,0.2-1.3,0.7c-0.4,0.4-0.7,1-0.9,1.7h0.1c1,0,1.8-0.1,2.3-0.4
			s0.8-0.6,0.8-1.2c0-0.2-0.1-0.4-0.2-0.6S153.3,64.2,152.9,64.2z"/>
		<path class="st1" d="M162.4,70.8h-3.5l0.1-0.7l1.2-0.3l1.7-8.1l-1.1-0.3l0.1-0.7h3.5l-0.1,0.7l-1.2,0.3l-1.7,8.1l1.1,0.3
			L162.4,70.8z"/>
		<path class="st1" d="M170.8,71c-0.9,0-1.6-0.2-2.1-0.7c-0.5-0.5-0.7-1.2-0.7-2.1c0-0.9,0.2-1.8,0.5-2.5c0.3-0.8,0.8-1.4,1.4-1.8
			c0.6-0.4,1.3-0.6,2-0.6c0.7,0,1.3,0.1,1.9,0.4l-0.3,1c-0.5-0.2-1-0.4-1.5-0.4c-0.5,0-1,0.2-1.4,0.5c-0.4,0.3-0.7,0.8-1,1.4
			c-0.2,0.6-0.3,1.3-0.3,2c0,0.6,0.1,1,0.4,1.3c0.3,0.3,0.7,0.5,1.2,0.5c0.3,0,0.6,0,0.9-0.1c0.3-0.1,0.6-0.2,0.9-0.3v1
			C172.2,70.8,171.5,71,170.8,71z"/>
		<path class="st1" d="M180.9,66.1c0,0.9-0.2,1.7-0.5,2.4c-0.3,0.8-0.8,1.3-1.3,1.8c-0.6,0.4-1.2,0.6-1.9,0.6
			c-0.9,0-1.6-0.3-2.1-0.8c-0.5-0.5-0.7-1.2-0.7-2.1c0-0.9,0.2-1.7,0.5-2.5c0.3-0.8,0.8-1.4,1.3-1.8s1.2-0.6,1.9-0.6
			c0.9,0,1.6,0.3,2.1,0.8C180.7,64.5,180.9,65.2,180.9,66.1z M179.7,66c0-0.5-0.1-0.9-0.4-1.3c-0.3-0.3-0.6-0.5-1.1-0.5
			c-0.5,0-0.9,0.2-1.3,0.5c-0.4,0.3-0.7,0.8-0.9,1.4c-0.2,0.6-0.3,1.2-0.3,2c0,0.6,0.1,1,0.4,1.3c0.3,0.3,0.7,0.5,1.2,0.5
			c0.5,0,0.9-0.2,1.2-0.5c0.4-0.3,0.7-0.8,0.9-1.4C179.6,67.5,179.7,66.8,179.7,66z"/>
		<path class="st1" d="M186.9,63.2c0.5,0,0.9,0.1,1.2,0.4c0.3,0.3,0.4,0.7,0.5,1.2h0.1c0.8-1.1,1.6-1.7,2.6-1.7c0.6,0,1,0.2,1.3,0.5
			c0.3,0.3,0.5,0.8,0.5,1.4c0,0.4-0.1,0.8-0.2,1.2l-1,4.6h-1.2l1-4.7c0.1-0.4,0.1-0.8,0.1-1c0-0.3-0.1-0.5-0.2-0.7
			c-0.2-0.2-0.4-0.3-0.7-0.3c-0.4,0-0.7,0.1-1.1,0.4c-0.3,0.3-0.7,0.6-0.9,1.1c-0.3,0.5-0.5,1.1-0.6,1.7l-0.7,3.4h-1.2l1-4.7
			c0.1-0.4,0.1-0.7,0.1-0.9c0-0.7-0.3-1-0.9-1c-0.4,0-0.7,0.1-1.1,0.4c-0.3,0.3-0.7,0.7-0.9,1.2c-0.3,0.5-0.5,1.1-0.6,1.8l-0.7,3.2
			H182l1.6-7.5h1l-0.2,1.4h0.1c0.3-0.4,0.6-0.7,0.8-0.9c0.2-0.2,0.5-0.3,0.7-0.5C186.3,63.2,186.6,63.2,186.9,63.2z"/>
		<path class="st1" d="M199.1,63.2c0.5,0,0.9,0.1,1.2,0.4c0.3,0.3,0.4,0.7,0.5,1.2h0.1c0.8-1.1,1.6-1.7,2.6-1.7c0.6,0,1,0.2,1.3,0.5
			c0.3,0.3,0.5,0.8,0.5,1.4c0,0.4-0.1,0.8-0.2,1.2l-1,4.6h-1.2l1-4.7c0.1-0.4,0.1-0.8,0.1-1c0-0.3-0.1-0.5-0.2-0.7
			c-0.2-0.2-0.4-0.3-0.7-0.3c-0.4,0-0.7,0.1-1.1,0.4c-0.3,0.3-0.7,0.6-0.9,1.1c-0.3,0.5-0.5,1.1-0.6,1.7l-0.7,3.4h-1.2l1-4.7
			c0.1-0.4,0.1-0.7,0.1-0.9c0-0.7-0.3-1-0.9-1c-0.4,0-0.7,0.1-1.1,0.4c-0.3,0.3-0.7,0.7-0.9,1.2c-0.3,0.5-0.5,1.1-0.6,1.8l-0.7,3.2
			h-1.2l1.6-7.5h1l-0.2,1.4h0.1c0.3-0.4,0.6-0.7,0.8-0.9c0.2-0.2,0.5-0.3,0.7-0.5C198.5,63.2,198.8,63.2,199.1,63.2z"/>
		<path class="st1" d="M207.7,70.8h-1.2l1.6-7.5h1.2L207.7,70.8z M208.4,61.4c0-0.3,0.1-0.5,0.2-0.6c0.2-0.2,0.4-0.3,0.6-0.3
			c0.4,0,0.6,0.2,0.6,0.6c0,0.3-0.1,0.5-0.2,0.7c-0.2,0.2-0.3,0.3-0.6,0.3c-0.2,0-0.4-0.1-0.5-0.2C208.5,61.8,208.4,61.6,208.4,61.4
			z"/>
		<path class="st1" d="M212.5,70c0.3,0,0.6-0.1,1-0.2v0.9c-0.1,0.1-0.3,0.1-0.6,0.2c-0.2,0-0.4,0.1-0.6,0.1c-0.6,0-1-0.1-1.3-0.4
			c-0.3-0.3-0.5-0.7-0.5-1.2c0-0.3,0-0.6,0.1-1l0.9-4.1h-1.2l0.1-0.6l1.3-0.5l0.9-1.6h0.7l-0.4,1.7h1.9l-0.2,0.9h-1.9l-0.9,4.1
			c-0.1,0.4-0.1,0.6-0.1,0.8c0,0.2,0.1,0.4,0.2,0.6C212,69.9,212.2,70,212.5,70z"/>
		<path class="st1" d="M216.5,69.2l0.1,0.2c-0.4,1-1.1,2.1-1.8,3.3h-0.9c0.4-0.9,0.9-2.1,1.4-3.4H216.5z"/>
		<path class="st1" d="M226.9,63.2c0.5,0,0.9,0.1,1.2,0.4c0.3,0.3,0.4,0.7,0.5,1.2h0.1c0.8-1.1,1.6-1.7,2.6-1.7c0.6,0,1,0.2,1.3,0.5
			c0.3,0.3,0.5,0.8,0.5,1.4c0,0.4-0.1,0.8-0.2,1.2l-1,4.6h-1.2l1-4.7c0.1-0.4,0.1-0.8,0.1-1c0-0.3-0.1-0.5-0.2-0.7
			c-0.2-0.2-0.4-0.3-0.7-0.3c-0.4,0-0.7,0.1-1.1,0.4c-0.3,0.3-0.7,0.6-0.9,1.1c-0.3,0.5-0.5,1.1-0.6,1.7l-0.7,3.4h-1.2l1-4.7
			c0.1-0.4,0.1-0.7,0.1-0.9c0-0.7-0.3-1-0.9-1c-0.4,0-0.7,0.1-1.1,0.4c-0.3,0.3-0.7,0.7-0.9,1.2c-0.3,0.5-0.5,1.1-0.6,1.8l-0.7,3.2
			h-1.2l1.6-7.5h1l-0.2,1.4h0.1c0.3-0.4,0.6-0.7,0.8-0.9c0.2-0.2,0.5-0.3,0.7-0.5C226.3,63.2,226.6,63.2,226.9,63.2z"/>
		<path class="st1" d="M236.5,71c-0.6,0-1.1-0.2-1.5-0.7c-0.4-0.4-0.5-1.1-0.5-1.9c0-0.9,0.2-1.8,0.5-2.6c0.3-0.8,0.8-1.4,1.3-1.9
			c0.6-0.5,1.2-0.7,1.9-0.7c0.4,0,0.8,0.1,1.1,0.3c0.3,0.2,0.6,0.5,0.8,1h0.1l0.4-1.2h0.9l-1.6,7.5h-1l0.2-1.4h-0.1
			C238.3,70.5,237.4,71,236.5,71z M236.9,69.9c0.4,0,0.9-0.2,1.3-0.6c0.4-0.4,0.8-0.9,1-1.6c0.3-0.7,0.4-1.3,0.4-2
			c0-0.4-0.1-0.8-0.4-1.1c-0.2-0.3-0.6-0.4-1-0.4c-0.5,0-0.9,0.2-1.3,0.6c-0.4,0.4-0.7,0.9-0.9,1.6c-0.2,0.7-0.3,1.3-0.3,2.1
			c0,0.5,0.1,0.9,0.3,1.1S236.5,69.9,236.9,69.9z"/>
		<path class="st1" d="M242.4,63.3h1.2l0.5,3.7c0,0.3,0.1,0.8,0.1,1.3c0,0.5,0.1,1,0.1,1.5h0c0.1-0.3,0.3-0.7,0.5-1.2
			c0.2-0.5,0.4-0.9,0.6-1.2l2.2-4.1h1.3l-4.8,8.8c-0.4,0.8-0.8,1.3-1.3,1.6c-0.4,0.3-0.9,0.5-1.5,0.5c-0.4,0-0.7,0-1-0.1v-1
			c0.3,0.1,0.6,0.1,0.9,0.1c0.4,0,0.7-0.1,1-0.4c0.3-0.2,0.5-0.6,0.8-1l0.5-0.9L242.4,63.3z"/>
		<path class="st1" d="M252.1,71c-0.4,0-0.8-0.1-1.2-0.3c-0.3-0.2-0.6-0.5-0.8-1h-0.1l-0.5,1.1h-0.9l2.3-10.6h1.2l-0.5,2.5
			c-0.1,0.4-0.2,0.8-0.3,1.3c-0.1,0.4-0.2,0.7-0.2,0.8h0.1c0.5-0.6,0.9-1,1.3-1.2c0.4-0.2,0.8-0.3,1.2-0.3c0.6,0,1.2,0.2,1.5,0.7
			c0.4,0.4,0.5,1.1,0.5,1.9c0,0.9-0.2,1.8-0.5,2.6c-0.3,0.8-0.7,1.4-1.3,1.9C253.4,70.7,252.8,71,252.1,71z M253.3,64.2
			c-0.4,0-0.9,0.2-1.3,0.6c-0.4,0.4-0.8,1-1,1.6c-0.3,0.6-0.4,1.3-0.4,2c0,0.5,0.1,0.8,0.4,1.1c0.2,0.3,0.6,0.4,1.1,0.4
			c0.4,0,0.9-0.2,1.2-0.6s0.7-0.9,0.9-1.6c0.2-0.7,0.3-1.4,0.3-2.1C254.4,64.7,254.1,64.2,253.3,64.2z"/>
		<path class="st1" d="M259.8,71c-0.8,0-1.5-0.3-2-0.7c-0.5-0.5-0.7-1.2-0.7-2.1c0-0.9,0.2-1.7,0.5-2.5c0.3-0.8,0.8-1.4,1.4-1.8
			c0.6-0.4,1.2-0.7,1.9-0.7c0.7,0,1.2,0.2,1.6,0.5c0.4,0.3,0.5,0.7,0.5,1.3c0,0.8-0.4,1.5-1.1,1.9c-0.8,0.5-1.8,0.7-3.2,0.7h-0.2
			l0,0.5c0,0.6,0.1,1,0.4,1.4s0.7,0.5,1.3,0.5c0.3,0,0.7,0,1-0.2c0.3-0.1,0.7-0.2,1-0.4v1.1c-0.5,0.2-0.8,0.4-1.2,0.4
			C260.5,70.9,260.2,71,259.8,71z M260.8,64.2c-0.5,0-0.9,0.2-1.3,0.7c-0.4,0.4-0.7,1-0.9,1.7h0.1c1,0,1.8-0.1,2.3-0.4
			s0.8-0.6,0.8-1.2c0-0.2-0.1-0.4-0.2-0.6S261.1,64.2,260.8,64.2z"/>
		<path class="st1" d="M78.1,87.6h-3.5l0.1-0.7l1.2-0.3l1.7-8.1l-1.1-0.3l0.1-0.7h3.5l-0.1,0.7l-1.2,0.3l-1.7,8.1l1.1,0.3L78.1,87.6
			z"/>
		<path class="st1" d="M86.5,87.8c-0.9,0-1.6-0.2-2.1-0.7c-0.5-0.5-0.7-1.2-0.7-2.1c0-0.9,0.2-1.8,0.5-2.5c0.3-0.8,0.8-1.4,1.4-1.8
			c0.6-0.4,1.3-0.6,2-0.6c0.7,0,1.3,0.1,1.9,0.4l-0.3,1c-0.5-0.2-1-0.4-1.5-0.4c-0.5,0-1,0.2-1.4,0.5c-0.4,0.3-0.7,0.8-1,1.4
			c-0.2,0.6-0.3,1.3-0.3,2c0,0.6,0.1,1,0.4,1.3c0.3,0.3,0.7,0.5,1.2,0.5c0.3,0,0.6,0,0.9-0.1c0.3-0.1,0.6-0.2,0.9-0.3v1
			C87.9,87.6,87.2,87.8,86.5,87.8z"/>
		<path class="st1" d="M92.1,87.8c-0.6,0-1.1-0.2-1.5-0.7c-0.4-0.4-0.5-1.1-0.5-1.9c0-0.9,0.2-1.8,0.5-2.6c0.3-0.8,0.8-1.4,1.3-1.9
			c0.6-0.5,1.2-0.7,1.9-0.7c0.4,0,0.8,0.1,1.1,0.3c0.3,0.2,0.6,0.5,0.8,1h0.1l0.4-1.2h0.9l-1.6,7.5h-1l0.2-1.4h-0.1
			C93.9,87.3,93,87.8,92.1,87.8z M92.5,86.8c0.4,0,0.9-0.2,1.3-0.6c0.4-0.4,0.8-0.9,1-1.6c0.3-0.7,0.4-1.3,0.4-2
			c0-0.4-0.1-0.8-0.4-1.1c-0.2-0.3-0.6-0.4-1-0.4c-0.5,0-0.9,0.2-1.3,0.6c-0.4,0.4-0.7,0.9-0.9,1.6c-0.2,0.7-0.3,1.3-0.3,2.1
			c0,0.5,0.1,0.9,0.3,1.1S92.2,86.8,92.5,86.8z"/>
		<path class="st1" d="M103.6,87.6h-1.2l1-4.7c0.1-0.5,0.1-0.8,0.1-1c0-0.3-0.1-0.5-0.2-0.7c-0.2-0.2-0.4-0.3-0.8-0.3
			c-0.4,0-0.8,0.1-1.1,0.4s-0.7,0.7-1,1.2c-0.3,0.5-0.5,1.1-0.6,1.8L99,87.6h-1.2l1.6-7.5h1l-0.2,1.4h0.1c0.3-0.4,0.6-0.7,0.8-0.9
			c0.2-0.2,0.5-0.4,0.8-0.5c0.3-0.1,0.6-0.2,0.9-0.2c0.6,0,1.1,0.2,1.4,0.5c0.3,0.3,0.5,0.8,0.5,1.4c0,0.4,0,0.8-0.2,1.2L103.6,87.6
			z"/>
		<path class="st1" d="M114.2,85.5c0,0.7-0.3,1.3-0.8,1.7s-1.2,0.6-2.2,0.6c-0.8,0-1.5-0.2-2.1-0.5v-1.1c0.3,0.2,0.6,0.3,1,0.4
			c0.4,0.1,0.7,0.2,1.1,0.2c0.6,0,1-0.1,1.3-0.3c0.3-0.2,0.4-0.5,0.4-0.9c0-0.3-0.1-0.5-0.2-0.6c-0.2-0.2-0.5-0.4-1-0.7
			c-0.6-0.3-1-0.7-1.2-1c-0.2-0.3-0.4-0.7-0.4-1.1c0-0.6,0.2-1.2,0.7-1.5c0.5-0.4,1.1-0.6,1.9-0.6c0.8,0,1.5,0.2,2.3,0.5l-0.4,1
			c-0.2-0.1-0.5-0.2-0.8-0.3c-0.3-0.1-0.7-0.1-1.1-0.1c-0.4,0-0.7,0.1-1,0.3c-0.2,0.2-0.4,0.4-0.4,0.7c0,0.3,0.1,0.5,0.3,0.6
			c0.2,0.2,0.5,0.4,1,0.7c0.5,0.3,0.9,0.6,1.1,0.7c0.2,0.2,0.3,0.4,0.4,0.6C114.2,84.9,114.2,85.2,114.2,85.5z"/>
		<path class="st1" d="M120.6,80c0.6,0,1.1,0.2,1.5,0.7c0.4,0.5,0.5,1.1,0.5,1.9c0,1-0.2,1.9-0.5,2.7c-0.3,0.8-0.8,1.4-1.3,1.9
			c-0.5,0.4-1.2,0.7-1.9,0.7c-0.9,0-1.5-0.4-1.9-1.3H117c-0.1,0.6-0.1,1-0.2,1.3l-0.7,3.2h-1.2l2.3-10.9h1l-0.2,1.4h0.1
			c0.4-0.5,0.9-0.9,1.3-1.2C119.7,80.1,120.1,80,120.6,80z M120.1,81c-0.4,0-0.9,0.2-1.3,0.6s-0.8,1-1,1.6c-0.3,0.7-0.4,1.3-0.4,2
			c0,0.5,0.1,0.8,0.4,1.1c0.2,0.3,0.6,0.4,1.1,0.4c0.4,0,0.9-0.2,1.2-0.6s0.7-0.9,0.9-1.6c0.2-0.7,0.3-1.4,0.3-2.1
			C121.3,81.5,120.9,81,120.1,81z"/>
		<path class="st1" d="M126.7,87.8c-0.8,0-1.5-0.3-2-0.7c-0.5-0.5-0.7-1.2-0.7-2.1c0-0.9,0.2-1.7,0.5-2.5c0.3-0.8,0.8-1.4,1.4-1.8
			c0.6-0.4,1.2-0.7,1.9-0.7c0.7,0,1.2,0.2,1.6,0.5c0.4,0.3,0.5,0.7,0.5,1.3c0,0.8-0.4,1.5-1.1,1.9c-0.8,0.5-1.8,0.7-3.2,0.7h-0.2
			l0,0.5c0,0.6,0.1,1,0.4,1.4c0.3,0.3,0.7,0.5,1.3,0.5c0.4,0,0.7,0,1-0.2c0.3-0.1,0.7-0.2,1-0.4v1.1c-0.5,0.2-0.8,0.4-1.2,0.4
			C127.4,87.7,127.1,87.8,126.7,87.8z M127.6,81c-0.5,0-0.9,0.2-1.3,0.7c-0.4,0.4-0.7,1-0.9,1.7h0.1c1,0,1.8-0.1,2.3-0.4
			c0.5-0.3,0.8-0.6,0.8-1.2c0-0.2-0.1-0.4-0.2-0.6S128,81,127.6,81z"/>
		<path class="st1" d="M133,87.8c-0.6,0-1.1-0.2-1.5-0.7c-0.4-0.4-0.5-1.1-0.5-1.9c0-0.9,0.2-1.8,0.5-2.6c0.3-0.8,0.8-1.4,1.3-1.9
			c0.6-0.5,1.2-0.7,1.9-0.7c0.4,0,0.8,0.1,1.1,0.3c0.3,0.2,0.6,0.5,0.8,1h0.1l0.4-1.2h0.9l-1.6,7.5h-1l0.2-1.4h-0.1
			C134.7,87.3,133.9,87.8,133,87.8z M133.4,86.8c0.4,0,0.9-0.2,1.3-0.6c0.4-0.4,0.8-0.9,1-1.6c0.3-0.7,0.4-1.3,0.4-2
			c0-0.4-0.1-0.8-0.4-1.1c-0.2-0.3-0.6-0.4-1-0.4c-0.5,0-0.9,0.2-1.3,0.6c-0.4,0.4-0.7,0.9-0.9,1.6c-0.2,0.7-0.3,1.3-0.3,2.1
			c0,0.5,0.1,0.9,0.3,1.1S133,86.8,133.4,86.8z"/>
		<path class="st1" d="M144.1,80.1h1.5l-3.2,3.2l2,4.3H143l-1.6-3.5l-1,0.8l-0.6,2.7h-1.3l2.3-10.6h1.2c-0.4,1.9-0.7,3.3-0.9,4.3
			s-0.4,1.8-0.6,2.4h0L144.1,80.1z"/>
		<path class="st1" d="M151.6,86.8c0.3,0,0.6-0.1,1-0.2v0.9c-0.1,0.1-0.3,0.1-0.5,0.2c-0.2,0-0.4,0.1-0.6,0.1c-0.6,0-1-0.1-1.3-0.4
			c-0.3-0.3-0.5-0.7-0.5-1.2c0-0.3,0-0.6,0.1-1l0.9-4.1h-1.2l0.1-0.6l1.3-0.5l0.9-1.6h0.7l-0.4,1.7h1.9l-0.2,0.9h-1.9l-0.9,4.1
			c-0.1,0.4-0.1,0.6-0.1,0.8c0,0.2,0.1,0.4,0.2,0.6C151.1,86.7,151.3,86.8,151.6,86.8z"/>
		<path class="st1" d="M160.7,82.9c0,0.9-0.2,1.7-0.5,2.4c-0.3,0.8-0.8,1.3-1.3,1.8c-0.6,0.4-1.2,0.6-1.9,0.6
			c-0.9,0-1.6-0.3-2.1-0.8c-0.5-0.5-0.7-1.2-0.7-2.1c0-0.9,0.2-1.7,0.5-2.5c0.3-0.8,0.8-1.4,1.3-1.8s1.2-0.6,1.9-0.6
			c0.9,0,1.6,0.3,2.1,0.8C160.4,81.3,160.7,82,160.7,82.9z M159.4,82.8c0-0.5-0.1-0.9-0.4-1.3c-0.3-0.3-0.6-0.5-1.1-0.5
			c-0.5,0-0.9,0.2-1.3,0.5c-0.4,0.3-0.7,0.8-0.9,1.4c-0.2,0.6-0.3,1.2-0.3,2c0,0.6,0.1,1,0.4,1.3c0.3,0.3,0.7,0.5,1.2,0.5
			c0.5,0,0.9-0.2,1.2-0.5c0.4-0.3,0.7-0.8,0.9-1.4C159.3,84.3,159.4,83.6,159.4,82.8z"/>
		<path class="st1" d="M170,85.5c0,0.7-0.3,1.3-0.8,1.7c-0.5,0.4-1.2,0.6-2.1,0.6c-0.8,0-1.5-0.2-2.1-0.5v-1.1
			c0.3,0.2,0.6,0.3,1,0.4c0.4,0.1,0.7,0.2,1.1,0.2c0.6,0,1-0.1,1.3-0.3c0.3-0.2,0.4-0.5,0.4-0.9c0-0.3-0.1-0.5-0.2-0.6
			c-0.2-0.2-0.5-0.4-1-0.7c-0.6-0.3-1-0.7-1.2-1c-0.2-0.3-0.4-0.7-0.4-1.1c0-0.6,0.2-1.2,0.7-1.5c0.5-0.4,1.1-0.6,1.9-0.6
			c0.8,0,1.5,0.2,2.3,0.5l-0.4,1c-0.2-0.1-0.5-0.2-0.8-0.3c-0.3-0.1-0.7-0.1-1.1-0.1c-0.4,0-0.7,0.1-1,0.3c-0.2,0.2-0.4,0.4-0.4,0.7
			c0,0.3,0.1,0.5,0.2,0.6c0.2,0.2,0.5,0.4,1,0.7c0.5,0.3,0.9,0.6,1.1,0.7c0.2,0.2,0.3,0.4,0.4,0.6C170,84.9,170,85.2,170,85.5z"/>
		<path class="st1" d="M178.2,82.9c0,0.9-0.2,1.7-0.5,2.4c-0.3,0.8-0.8,1.3-1.3,1.8c-0.6,0.4-1.2,0.6-1.9,0.6
			c-0.9,0-1.6-0.3-2.1-0.8c-0.5-0.5-0.7-1.2-0.7-2.1c0-0.9,0.2-1.7,0.5-2.5c0.3-0.8,0.8-1.4,1.3-1.8s1.2-0.6,1.9-0.6
			c0.9,0,1.6,0.3,2.1,0.8C178,81.3,178.2,82,178.2,82.9z M177,82.8c0-0.5-0.1-0.9-0.4-1.3c-0.3-0.3-0.6-0.5-1.1-0.5
			c-0.5,0-0.9,0.2-1.3,0.5c-0.4,0.3-0.7,0.8-0.9,1.4c-0.2,0.6-0.3,1.2-0.3,2c0,0.6,0.1,1,0.4,1.3c0.3,0.3,0.7,0.5,1.2,0.5
			c0.5,0,0.9-0.2,1.2-0.5c0.4-0.3,0.7-0.8,0.9-1.4C176.9,84.3,177,83.6,177,82.8z"/>
		<path class="st1" d="M184.2,80c0.5,0,0.9,0.1,1.2,0.4c0.3,0.3,0.4,0.7,0.5,1.2h0.1c0.8-1.1,1.6-1.7,2.6-1.7c0.6,0,1,0.2,1.3,0.5
			c0.3,0.3,0.5,0.8,0.5,1.4c0,0.4-0.1,0.8-0.2,1.2l-1,4.6H188l1-4.7c0.1-0.4,0.1-0.8,0.1-1c0-0.3-0.1-0.5-0.2-0.7
			c-0.2-0.2-0.4-0.3-0.7-0.3c-0.4,0-0.7,0.1-1.1,0.4c-0.3,0.3-0.7,0.6-0.9,1.1c-0.3,0.5-0.5,1.1-0.6,1.7l-0.7,3.4h-1.2l1-4.7
			c0.1-0.4,0.1-0.7,0.1-0.9c0-0.7-0.3-1-0.9-1c-0.4,0-0.7,0.1-1.1,0.4c-0.3,0.3-0.7,0.7-0.9,1.2c-0.3,0.5-0.5,1.1-0.6,1.8l-0.7,3.2
			h-1.2l1.6-7.5h1l-0.2,1.4h0.1c0.3-0.4,0.6-0.7,0.8-0.9c0.2-0.2,0.5-0.3,0.7-0.5C183.6,80,183.9,80,184.2,80z"/>
		<path class="st1" d="M194.5,87.8c-0.8,0-1.5-0.3-2-0.7c-0.5-0.5-0.7-1.2-0.7-2.1c0-0.9,0.2-1.7,0.5-2.5c0.3-0.8,0.8-1.4,1.4-1.8
			c0.6-0.4,1.2-0.7,1.9-0.7c0.7,0,1.2,0.2,1.6,0.5c0.4,0.3,0.5,0.7,0.5,1.3c0,0.8-0.4,1.5-1.1,1.9c-0.8,0.5-1.8,0.7-3.2,0.7h-0.2
			l0,0.5c0,0.6,0.1,1,0.4,1.4c0.3,0.3,0.7,0.5,1.3,0.5c0.4,0,0.7,0,1-0.2c0.3-0.1,0.7-0.2,1-0.4v1.1c-0.5,0.2-0.8,0.4-1.2,0.4
			C195.3,87.7,194.9,87.8,194.5,87.8z M195.5,81c-0.5,0-0.9,0.2-1.3,0.7c-0.4,0.4-0.7,1-0.9,1.7h0.1c1,0,1.8-0.1,2.3-0.4
			s0.8-0.6,0.8-1.2c0-0.2-0.1-0.4-0.2-0.6S195.8,81,195.5,81z"/>
		<path class="st1" d="M205.3,82.9c0,0.9-0.2,1.7-0.5,2.4c-0.3,0.8-0.8,1.3-1.3,1.8c-0.6,0.4-1.2,0.6-1.9,0.6
			c-0.9,0-1.6-0.3-2.1-0.8c-0.5-0.5-0.7-1.2-0.7-2.1c0-0.9,0.2-1.7,0.5-2.5c0.3-0.8,0.8-1.4,1.3-1.8c0.6-0.4,1.2-0.6,1.9-0.6
			c0.9,0,1.6,0.3,2.1,0.8C205.1,81.3,205.3,82,205.3,82.9z M204.1,82.8c0-0.5-0.1-0.9-0.4-1.3c-0.3-0.3-0.6-0.5-1.1-0.5
			c-0.5,0-0.9,0.2-1.3,0.5c-0.4,0.3-0.7,0.8-0.9,1.4c-0.2,0.6-0.3,1.2-0.3,2c0,0.6,0.1,1,0.4,1.3c0.3,0.3,0.7,0.5,1.2,0.5
			c0.5,0,0.9-0.2,1.2-0.5c0.4-0.3,0.7-0.8,0.9-1.4S204.1,83.6,204.1,82.8z"/>
		<path class="st1" d="M212.2,87.6H211l1-4.7c0.1-0.5,0.1-0.8,0.1-1c0-0.3-0.1-0.5-0.2-0.7c-0.2-0.2-0.4-0.3-0.8-0.3
			c-0.4,0-0.8,0.1-1.1,0.4s-0.7,0.7-1,1.2c-0.3,0.5-0.5,1.1-0.6,1.8l-0.7,3.2h-1.2l1.6-7.5h1l-0.2,1.4h0.1c0.3-0.4,0.6-0.7,0.8-0.9
			c0.2-0.2,0.5-0.4,0.8-0.5c0.3-0.1,0.6-0.2,0.9-0.2c0.6,0,1.1,0.2,1.4,0.5c0.3,0.3,0.5,0.8,0.5,1.4c0,0.4,0,0.8-0.2,1.2L212.2,87.6
			z"/>
		<path class="st1" d="M217.5,87.8c-0.8,0-1.5-0.3-2-0.7c-0.5-0.5-0.7-1.2-0.7-2.1c0-0.9,0.2-1.7,0.5-2.5c0.3-0.8,0.8-1.4,1.4-1.8
			c0.6-0.4,1.2-0.7,1.9-0.7c0.7,0,1.2,0.2,1.6,0.5c0.4,0.3,0.5,0.7,0.5,1.3c0,0.8-0.4,1.5-1.1,1.9c-0.8,0.5-1.8,0.7-3.2,0.7h-0.2
			l0,0.5c0,0.6,0.1,1,0.4,1.4s0.7,0.5,1.3,0.5c0.3,0,0.7,0,1-0.2c0.3-0.1,0.7-0.2,1-0.4v1.1c-0.5,0.2-0.8,0.4-1.2,0.4
			C218.2,87.7,217.9,87.8,217.5,87.8z M218.5,81c-0.5,0-0.9,0.2-1.3,0.7c-0.4,0.4-0.7,1-0.9,1.7h0.1c1,0,1.8-0.1,2.3-0.4
			s0.8-0.6,0.8-1.2c0-0.2-0.1-0.4-0.2-0.6S218.8,81,218.5,81z"/>
		<path class="st1" d="M230.2,81.3l-0.3,0.8l-0.5,1.3l-2,4.2h-1.5l-0.3-7.5h1.2l0.1,4.7c0,0.3,0,0.9-0.1,1.7h0.1
			c0.1-0.1,0.2-0.4,0.3-0.9c0.2-0.4,0.3-0.8,0.5-1.2c0.2-0.3,0.8-1.8,2-4.4h1.3l0.2,4l0,1.7v0.4l0,0.3h0.1c0.2-0.7,0.6-1.6,1.1-2.7
			l1.6-3.7h1.3l-3.5,7.5h-1.5l-0.2-4.1l0-1L230.2,81.3L230.2,81.3z"/>
		<path class="st1" d="M241,87.6h-1.2l1-4.7c0.1-0.4,0.1-0.7,0.1-0.9c0-0.7-0.3-1-1-1c-0.4,0-0.8,0.1-1.2,0.4
			c-0.4,0.3-0.7,0.7-1,1.2c-0.3,0.5-0.5,1.1-0.6,1.8l-0.7,3.2h-1.2l2.3-10.6h1.2l-0.6,2.8c-0.1,0.3-0.1,0.6-0.2,0.9
			c-0.1,0.3-0.2,0.6-0.2,0.9h0.1c0.4-0.5,0.8-0.9,1.2-1.2c0.4-0.2,0.8-0.4,1.3-0.4c0.6,0,1.1,0.2,1.4,0.5c0.3,0.3,0.5,0.8,0.5,1.4
			c0,0.3-0.1,0.6-0.2,1.1L241,87.6z"/>
		<path class="st1" d="M250.2,82.9c0,0.9-0.2,1.7-0.5,2.4c-0.3,0.8-0.8,1.3-1.3,1.8c-0.6,0.4-1.2,0.6-1.9,0.6
			c-0.9,0-1.6-0.3-2.1-0.8c-0.5-0.5-0.7-1.2-0.7-2.1c0-0.9,0.2-1.7,0.5-2.5c0.3-0.8,0.8-1.4,1.3-1.8c0.6-0.4,1.2-0.6,1.9-0.6
			c0.9,0,1.6,0.3,2.1,0.8C249.9,81.3,250.2,82,250.2,82.9z M248.9,82.8c0-0.5-0.1-0.9-0.4-1.3c-0.3-0.3-0.6-0.5-1.1-0.5
			c-0.5,0-0.9,0.2-1.3,0.5c-0.4,0.3-0.7,0.8-0.9,1.4c-0.2,0.6-0.3,1.2-0.3,2c0,0.6,0.1,1,0.4,1.3c0.3,0.3,0.7,0.5,1.2,0.5
			c0.5,0,0.9-0.2,1.2-0.5c0.4-0.3,0.7-0.8,0.9-1.4S248.9,83.6,248.9,82.8z"/>
		<path class="st1" d="M254.4,77.6l0.1,0.2c-0.2,0.4-0.4,0.9-0.8,1.5c-0.3,0.6-0.7,1.2-1.1,1.8h-0.9c0.6-1.4,1.1-2.5,1.4-3.4H254.4z
			"/>
		<path class="st1" d="M258.4,85.5c0,0.7-0.3,1.3-0.8,1.7s-1.2,0.6-2.2,0.6c-0.8,0-1.5-0.2-2.1-0.5v-1.1c0.3,0.2,0.6,0.3,1,0.4
			c0.4,0.1,0.7,0.2,1.1,0.2c0.6,0,1-0.1,1.3-0.3c0.3-0.2,0.4-0.5,0.4-0.9c0-0.3-0.1-0.5-0.2-0.6c-0.2-0.2-0.5-0.4-1-0.7
			c-0.6-0.3-1-0.7-1.2-1c-0.2-0.3-0.4-0.7-0.4-1.1c0-0.6,0.2-1.2,0.7-1.5c0.5-0.4,1.1-0.6,1.9-0.6c0.8,0,1.5,0.2,2.3,0.5l-0.4,1
			c-0.2-0.1-0.5-0.2-0.8-0.3c-0.3-0.1-0.7-0.1-1.1-0.1c-0.4,0-0.7,0.1-1,0.3c-0.2,0.2-0.4,0.4-0.4,0.7c0,0.3,0.1,0.5,0.3,0.6
			c0.2,0.2,0.5,0.4,1,0.7c0.5,0.3,0.9,0.6,1.1,0.7c0.2,0.2,0.3,0.4,0.4,0.6C258.3,84.9,258.4,85.2,258.4,85.5z"/>
		<path class="st1" d="M81.1,104.4h-1.2l1-4.7c0.1-0.4,0.1-0.7,0.1-0.9c0-0.7-0.3-1-1-1c-0.4,0-0.8,0.1-1.2,0.4
			c-0.4,0.3-0.7,0.7-1,1.2c-0.3,0.5-0.5,1.1-0.6,1.8l-0.7,3.2h-1.2l2.3-10.6h1.2l-0.6,2.8c-0.1,0.3-0.1,0.6-0.2,0.9
			c-0.1,0.3-0.2,0.6-0.2,0.9h0.1c0.4-0.5,0.8-0.9,1.2-1.2c0.4-0.2,0.8-0.4,1.3-0.4c0.6,0,1.1,0.2,1.4,0.5c0.3,0.3,0.5,0.8,0.5,1.4
			c0,0.3-0.1,0.6-0.2,1.1L81.1,104.4z"/>
		<path class="st1" d="M85.7,104.6c-0.6,0-1.1-0.2-1.5-0.7c-0.4-0.4-0.5-1.1-0.5-1.9c0-0.9,0.2-1.8,0.5-2.6c0.3-0.8,0.8-1.4,1.3-1.9
			c0.6-0.5,1.2-0.7,1.9-0.7c0.4,0,0.8,0.1,1.1,0.3c0.3,0.2,0.6,0.5,0.8,1h0.1l0.4-1.2h0.9l-1.6,7.5h-1l0.2-1.4h-0.1
			C87.5,104.1,86.6,104.6,85.7,104.6z M86.1,103.6c0.4,0,0.9-0.2,1.3-0.6c0.4-0.4,0.8-0.9,1-1.6c0.3-0.7,0.4-1.3,0.4-2
			c0-0.4-0.1-0.8-0.4-1.1c-0.2-0.3-0.6-0.4-1-0.4c-0.5,0-0.9,0.2-1.3,0.6c-0.4,0.4-0.7,0.9-0.9,1.6c-0.2,0.7-0.3,1.3-0.3,2.1
			c0,0.5,0.1,0.9,0.3,1.1S85.8,103.6,86.1,103.6z"/>
		<path class="st1" d="M93.7,104.6c-0.6,0-1.1-0.2-1.5-0.7c-0.4-0.4-0.5-1.1-0.5-1.9c0-1,0.2-1.8,0.5-2.6c0.3-0.8,0.8-1.4,1.3-1.9
			c0.6-0.4,1.2-0.7,1.9-0.7c0.9,0,1.5,0.4,1.9,1.3h0.1c0.1-0.8,0.2-1.4,0.3-1.8l0.5-2.4h1.2l-2.3,10.6h-1l0.2-1.4h-0.1
			c-0.4,0.5-0.9,0.9-1.3,1.2S94.1,104.6,93.7,104.6z M94.1,103.6c0.4,0,0.9-0.2,1.3-0.6c0.4-0.4,0.8-1,1-1.6c0.3-0.6,0.4-1.3,0.4-2
			c0-0.5-0.1-0.9-0.4-1.1c-0.2-0.3-0.6-0.4-1-0.4c-0.5,0-0.9,0.2-1.3,0.6c-0.4,0.4-0.7,0.9-0.9,1.6c-0.2,0.7-0.3,1.4-0.3,2.1
			C92.9,103,93.3,103.6,94.1,103.6z"/>
		<path class="st1" d="M106.1,104.6c-0.8,0-1.5-0.3-2-0.7c-0.5-0.5-0.7-1.2-0.7-2.1c0-0.9,0.2-1.7,0.5-2.5c0.3-0.8,0.8-1.4,1.4-1.8
			c0.6-0.4,1.2-0.7,1.9-0.7c0.7,0,1.2,0.2,1.6,0.5c0.4,0.3,0.5,0.7,0.5,1.3c0,0.8-0.4,1.5-1.1,1.9c-0.8,0.5-1.8,0.7-3.2,0.7h-0.2
			l0,0.5c0,0.6,0.1,1,0.4,1.4s0.7,0.5,1.3,0.5c0.3,0,0.7,0,1-0.2c0.3-0.1,0.7-0.2,1-0.4v1.1c-0.5,0.2-0.8,0.4-1.2,0.4
			C106.8,104.5,106.5,104.6,106.1,104.6z M107.1,97.8c-0.5,0-0.9,0.2-1.3,0.7c-0.4,0.4-0.7,1-0.9,1.7h0.1c1,0,1.8-0.1,2.3-0.4
			s0.8-0.6,0.8-1.2c0-0.2-0.1-0.4-0.2-0.6S107.4,97.8,107.1,97.8z"/>
		<path class="st1" d="M112.4,100.6l-1.6-3.6h1.2l1.2,2.8l2.2-2.8h1.4l-3.1,3.7l1.7,3.8h-1.3l-1.3-2.9l-2.3,2.9h-1.4L112.4,100.6z"
			/>
		<path class="st1" d="M121.8,96.8c0.6,0,1.1,0.2,1.5,0.7c0.4,0.5,0.5,1.1,0.5,1.9c0,1-0.2,1.9-0.5,2.7c-0.3,0.8-0.8,1.4-1.3,1.9
			c-0.5,0.4-1.2,0.7-1.9,0.7c-0.9,0-1.5-0.4-1.9-1.3h-0.1c-0.1,0.6-0.1,1-0.2,1.3l-0.7,3.2h-1.2l2.3-10.9h1l-0.2,1.4h0.1
			c0.4-0.5,0.9-0.9,1.3-1.2C121,96.9,121.4,96.8,121.8,96.8z M121.4,97.8c-0.4,0-0.9,0.2-1.3,0.6s-0.8,1-1,1.6
			c-0.3,0.7-0.4,1.3-0.4,2c0,0.5,0.1,0.8,0.4,1.1c0.2,0.3,0.6,0.4,1.1,0.4c0.4,0,0.9-0.2,1.2-0.6s0.7-0.9,0.9-1.6
			c0.2-0.7,0.3-1.4,0.3-2.1C122.6,98.3,122.2,97.8,121.4,97.8z"/>
		<path class="st1" d="M128,104.6c-0.8,0-1.5-0.3-2-0.7c-0.5-0.5-0.7-1.2-0.7-2.1c0-0.9,0.2-1.7,0.5-2.5c0.3-0.8,0.8-1.4,1.4-1.8
			c0.6-0.4,1.2-0.7,1.9-0.7c0.7,0,1.2,0.2,1.6,0.5c0.4,0.3,0.5,0.7,0.5,1.3c0,0.8-0.4,1.5-1.1,1.9c-0.8,0.5-1.8,0.7-3.2,0.7h-0.2
			l0,0.5c0,0.6,0.1,1,0.4,1.4c0.3,0.3,0.7,0.5,1.3,0.5c0.4,0,0.7,0,1-0.2c0.3-0.1,0.7-0.2,1-0.4v1.1c-0.5,0.2-0.8,0.4-1.2,0.4
			C128.7,104.5,128.3,104.6,128,104.6z M128.9,97.8c-0.5,0-0.9,0.2-1.3,0.7c-0.4,0.4-0.7,1-0.9,1.7h0.1c1,0,1.8-0.1,2.3-0.4
			s0.8-0.6,0.8-1.2c0-0.2-0.1-0.4-0.2-0.6S129.3,97.8,128.9,97.8z"/>
		<path class="st1" d="M136.7,96.8c0.3,0,0.6,0,0.8,0.1l-0.3,1.1c-0.3-0.1-0.5-0.1-0.7-0.1c-0.4,0-0.8,0.1-1.2,0.4
			c-0.4,0.3-0.7,0.6-0.9,1.1c-0.3,0.5-0.5,1-0.6,1.6l-0.7,3.4h-1.2l1.6-7.5h1l-0.2,1.4h0.1c0.3-0.4,0.6-0.8,0.8-0.9
			c0.2-0.2,0.4-0.3,0.7-0.4C136.2,96.8,136.5,96.8,136.7,96.8z"/>
		<path class="st1" d="M138.8,104.4h-1.2l1.6-7.5h1.2L138.8,104.4z M139.4,95c0-0.3,0.1-0.5,0.2-0.6s0.4-0.3,0.6-0.3
			c0.4,0,0.6,0.2,0.6,0.6c0,0.3-0.1,0.5-0.2,0.7c-0.2,0.2-0.3,0.3-0.6,0.3c-0.2,0-0.4-0.1-0.5-0.2S139.4,95.2,139.4,95z"/>
		<path class="st1" d="M144.1,104.6c-0.8,0-1.5-0.3-2-0.7c-0.5-0.5-0.7-1.2-0.7-2.1c0-0.9,0.2-1.7,0.5-2.5c0.3-0.8,0.8-1.4,1.4-1.8
			c0.6-0.4,1.2-0.7,1.9-0.7c0.7,0,1.2,0.2,1.6,0.5c0.4,0.3,0.5,0.7,0.5,1.3c0,0.8-0.4,1.5-1.1,1.9c-0.8,0.5-1.8,0.7-3.2,0.7h-0.2
			l0,0.5c0,0.6,0.1,1,0.4,1.4s0.7,0.5,1.3,0.5c0.3,0,0.7,0,1-0.2c0.3-0.1,0.7-0.2,1-0.4v1.1c-0.5,0.2-0.8,0.4-1.2,0.4
			C144.9,104.5,144.5,104.6,144.1,104.6z M145.1,97.8c-0.5,0-0.9,0.2-1.3,0.7c-0.4,0.4-0.7,1-0.9,1.7h0.1c1,0,1.8-0.1,2.3-0.4
			s0.8-0.6,0.8-1.2c0-0.2-0.1-0.4-0.2-0.6S145.4,97.8,145.1,97.8z"/>
		<path class="st1" d="M153.9,104.4h-1.2l1-4.7c0.1-0.5,0.1-0.8,0.1-1c0-0.3-0.1-0.5-0.2-0.7c-0.2-0.2-0.4-0.3-0.8-0.3
			c-0.4,0-0.8,0.1-1.1,0.4s-0.7,0.7-1,1.2c-0.3,0.5-0.5,1.1-0.6,1.8l-0.7,3.2h-1.2l1.6-7.5h1l-0.2,1.4h0.1c0.3-0.4,0.6-0.7,0.8-0.9
			c0.2-0.2,0.5-0.4,0.8-0.5c0.3-0.1,0.6-0.2,0.9-0.2c0.6,0,1.1,0.2,1.4,0.5c0.3,0.3,0.5,0.8,0.5,1.4c0,0.4,0,0.8-0.2,1.2
			L153.9,104.4z"/>
		<path class="st1" d="M159.3,104.6c-0.9,0-1.6-0.2-2.1-0.7c-0.5-0.5-0.7-1.2-0.7-2.1c0-0.9,0.2-1.8,0.5-2.5
			c0.3-0.8,0.8-1.4,1.4-1.8c0.6-0.4,1.3-0.6,2-0.6c0.7,0,1.3,0.1,1.9,0.4l-0.3,1c-0.5-0.2-1-0.4-1.5-0.4c-0.5,0-1,0.2-1.4,0.5
			c-0.4,0.3-0.7,0.8-1,1.4c-0.2,0.6-0.3,1.3-0.3,2c0,0.6,0.1,1,0.4,1.3c0.3,0.3,0.7,0.5,1.2,0.5c0.3,0,0.6,0,0.9-0.1
			c0.3-0.1,0.6-0.2,0.9-0.3v1C160.6,104.4,160,104.6,159.3,104.6z"/>
		<path class="st1" d="M165.6,104.6c-0.8,0-1.5-0.3-2-0.7c-0.5-0.5-0.7-1.2-0.7-2.1c0-0.9,0.2-1.7,0.5-2.5c0.3-0.8,0.8-1.4,1.4-1.8
			c0.6-0.4,1.2-0.7,1.9-0.7c0.7,0,1.2,0.2,1.6,0.5c0.4,0.3,0.5,0.7,0.5,1.3c0,0.8-0.4,1.5-1.1,1.9c-0.8,0.5-1.8,0.7-3.2,0.7h-0.2
			l0,0.5c0,0.6,0.1,1,0.4,1.4s0.7,0.5,1.3,0.5c0.3,0,0.7,0,1-0.2c0.3-0.1,0.7-0.2,1-0.4v1.1c-0.5,0.2-0.8,0.4-1.2,0.4
			C166.3,104.5,165.9,104.6,165.6,104.6z M166.5,97.8c-0.5,0-0.9,0.2-1.3,0.7c-0.4,0.4-0.7,1-0.9,1.7h0.1c1,0,1.8-0.1,2.3-0.4
			s0.8-0.6,0.8-1.2c0-0.2-0.1-0.4-0.2-0.6S166.9,97.8,166.5,97.8z"/>
		<path class="st1" d="M177.9,102.3c0,0.7-0.3,1.3-0.8,1.7s-1.2,0.6-2.2,0.6c-0.8,0-1.5-0.2-2.1-0.5V103c0.3,0.2,0.6,0.3,1,0.4
			c0.4,0.1,0.7,0.2,1.1,0.2c0.6,0,1-0.1,1.3-0.3c0.3-0.2,0.4-0.5,0.4-0.9c0-0.3-0.1-0.5-0.2-0.6c-0.2-0.2-0.5-0.4-1-0.7
			c-0.6-0.3-1-0.7-1.2-1c-0.2-0.3-0.4-0.7-0.4-1.1c0-0.6,0.2-1.2,0.7-1.5c0.5-0.4,1.1-0.6,1.9-0.6c0.8,0,1.5,0.2,2.3,0.5l-0.4,1
			c-0.2-0.1-0.5-0.2-0.8-0.3c-0.3-0.1-0.7-0.1-1.1-0.1c-0.4,0-0.7,0.1-1,0.3c-0.2,0.2-0.4,0.4-0.4,0.7c0,0.3,0.1,0.5,0.3,0.6
			c0.2,0.2,0.5,0.4,1,0.7c0.5,0.3,0.9,0.6,1.1,0.7c0.2,0.2,0.3,0.4,0.4,0.6C177.8,101.7,177.9,102,177.9,102.3z"/>
		<path class="st1" d="M185,104.4h-1.2l1-4.7c0.1-0.4,0.1-0.7,0.1-0.9c0-0.7-0.3-1-1-1c-0.4,0-0.8,0.1-1.2,0.4
			c-0.4,0.3-0.7,0.7-1,1.2c-0.3,0.5-0.5,1.1-0.6,1.8l-0.7,3.2h-1.2l2.3-10.6h1.2l-0.6,2.8c-0.1,0.3-0.1,0.6-0.2,0.9
			c-0.1,0.3-0.2,0.6-0.2,0.9h0.1c0.4-0.5,0.8-0.9,1.2-1.2c0.4-0.2,0.8-0.4,1.3-0.4c0.6,0,1.1,0.2,1.4,0.5c0.3,0.3,0.5,0.8,0.5,1.4
			c0,0.3-0.1,0.6-0.2,1.1L185,104.4z"/>
		<path class="st1" d="M194.2,99.7c0,0.9-0.2,1.7-0.5,2.4c-0.3,0.8-0.8,1.3-1.3,1.8c-0.6,0.4-1.2,0.6-1.9,0.6
			c-0.9,0-1.6-0.3-2.1-0.8c-0.5-0.5-0.7-1.2-0.7-2.1c0-0.9,0.2-1.7,0.5-2.5c0.3-0.8,0.8-1.4,1.3-1.8c0.6-0.4,1.2-0.6,1.9-0.6
			c0.9,0,1.6,0.3,2.1,0.8C193.9,98.1,194.2,98.8,194.2,99.7z M192.9,99.6c0-0.5-0.1-0.9-0.4-1.3c-0.3-0.3-0.6-0.5-1.1-0.5
			c-0.5,0-0.9,0.2-1.3,0.5c-0.4,0.3-0.7,0.8-0.9,1.4c-0.2,0.6-0.3,1.2-0.3,2c0,0.6,0.1,1,0.4,1.3c0.3,0.3,0.7,0.5,1.2,0.5
			c0.5,0,0.9-0.2,1.2-0.5c0.4-0.3,0.7-0.8,0.9-1.4S192.9,100.4,192.9,99.6z"/>
		<path class="st1" d="M200.2,96.8c0.6,0,1.1,0.2,1.5,0.7s0.5,1.1,0.5,1.9c0,1-0.2,1.9-0.5,2.7c-0.3,0.8-0.8,1.4-1.3,1.9
			c-0.5,0.4-1.2,0.7-1.9,0.7c-0.9,0-1.5-0.4-1.9-1.3h-0.1c-0.1,0.6-0.1,1-0.2,1.3l-0.7,3.2h-1.2l2.3-10.9h1l-0.2,1.4h0.1
			c0.4-0.5,0.9-0.9,1.3-1.2C199.4,96.9,199.8,96.8,200.2,96.8z M199.8,97.8c-0.4,0-0.9,0.2-1.3,0.6c-0.4,0.4-0.8,1-1,1.6
			s-0.4,1.3-0.4,2c0,0.5,0.1,0.8,0.4,1.1c0.2,0.3,0.6,0.4,1.1,0.4c0.4,0,0.9-0.2,1.2-0.6s0.7-0.9,0.9-1.6c0.2-0.7,0.3-1.4,0.3-2.1
			C201,98.3,200.6,97.8,199.8,97.8z"/>
		<path class="st1" d="M208.3,96.8c0.6,0,1.1,0.2,1.5,0.7s0.5,1.1,0.5,1.9c0,1-0.2,1.9-0.5,2.7c-0.3,0.8-0.8,1.4-1.3,1.9
			c-0.5,0.4-1.2,0.7-1.9,0.7c-0.9,0-1.5-0.4-1.9-1.3h-0.1c-0.1,0.6-0.1,1-0.2,1.3l-0.7,3.2h-1.2l2.3-10.9h1l-0.2,1.4h0.1
			c0.4-0.5,0.9-0.9,1.3-1.2C207.5,96.9,207.9,96.8,208.3,96.8z M207.9,97.8c-0.4,0-0.9,0.2-1.3,0.6c-0.4,0.4-0.8,1-1,1.6
			s-0.4,1.3-0.4,2c0,0.5,0.1,0.8,0.4,1.1c0.2,0.3,0.6,0.4,1.1,0.4c0.4,0,0.9-0.2,1.2-0.6s0.7-0.9,0.9-1.6c0.2-0.7,0.3-1.4,0.3-2.1
			C209.1,98.3,208.7,97.8,207.9,97.8z"/>
		<path class="st1" d="M212.7,104.4h-1.2l1.6-7.5h1.2L212.7,104.4z M213.4,95c0-0.3,0.1-0.5,0.2-0.6s0.4-0.3,0.6-0.3
			c0.4,0,0.6,0.2,0.6,0.6c0,0.3-0.1,0.5-0.2,0.7c-0.2,0.2-0.3,0.3-0.6,0.3c-0.2,0-0.4-0.1-0.5-0.2S213.4,95.2,213.4,95z"/>
		<path class="st1" d="M220.8,104.4h-1.2l1-4.7c0.1-0.5,0.1-0.8,0.1-1c0-0.3-0.1-0.5-0.2-0.7c-0.2-0.2-0.4-0.3-0.8-0.3
			c-0.4,0-0.8,0.1-1.1,0.4s-0.7,0.7-1,1.2c-0.3,0.5-0.5,1.1-0.6,1.8l-0.7,3.2H215l1.6-7.5h1l-0.2,1.4h0.1c0.3-0.4,0.6-0.7,0.8-0.9
			c0.2-0.2,0.5-0.4,0.8-0.5c0.3-0.1,0.6-0.2,0.9-0.2c0.6,0,1.1,0.2,1.4,0.5c0.3,0.3,0.5,0.8,0.5,1.4c0,0.4,0,0.8-0.2,1.2
			L220.8,104.4z"/>
		<path class="st1" d="M225.4,107.8c-0.9,0-1.6-0.2-2.3-0.5v-1.1c0.3,0.2,0.6,0.3,1.1,0.4s0.8,0.2,1.1,0.2c0.6,0,1.1-0.1,1.4-0.4
			c0.4-0.3,0.6-0.8,0.8-1.4l0.3-1.4l0.1-0.5H228c-0.4,0.5-0.8,0.9-1.2,1.2s-0.8,0.4-1.2,0.4c-0.6,0-1.1-0.2-1.5-0.7
			c-0.4-0.4-0.5-1.1-0.5-1.9c0-1,0.2-1.9,0.5-2.7c0.3-0.8,0.8-1.4,1.3-1.9c0.6-0.4,1.2-0.7,1.9-0.7c0.9,0,1.5,0.4,1.9,1.3h0.1
			l0.5-1.2h0.9l-1.7,7.9c-0.2,1-0.6,1.7-1.1,2.2C227.1,107.6,226.3,107.8,225.4,107.8z M225.9,103.6c0.4,0,0.8-0.2,1.3-0.6
			c0.4-0.4,0.8-1,1-1.6c0.3-0.7,0.4-1.3,0.4-2c0-1-0.5-1.5-1.4-1.5c-0.5,0-0.9,0.2-1.3,0.6c-0.4,0.4-0.7,0.9-0.9,1.6
			s-0.3,1.4-0.3,2.1C224.7,103,225.1,103.6,225.9,103.6z"/>
		<path class="st1" d="M233.8,107.8c-0.3,0-0.6,0-0.9-0.1v-1c0.3,0.1,0.5,0.2,0.8,0.2c0.3,0,0.6-0.1,0.8-0.4
			c0.2-0.3,0.3-0.7,0.5-1.2l1.5-7.3h-1.3l0.1-0.5l1.4-0.5l0.2-0.7c0.2-0.9,0.5-1.6,0.9-1.9c0.4-0.4,0.9-0.6,1.7-0.6
			c0.4,0,0.9,0.1,1.3,0.3l-0.3,0.9c-0.3-0.1-0.7-0.2-0.9-0.2c-0.4,0-0.7,0.1-0.9,0.3c-0.2,0.2-0.4,0.6-0.5,1.1l-0.2,0.7h1.6
			l-0.2,0.9h-1.6l-1.6,7.5c-0.2,0.9-0.5,1.5-0.8,1.9C234.9,107.6,234.4,107.8,233.8,107.8z"/>
		<path class="st1" d="M244.2,96.8c0.3,0,0.6,0,0.8,0.1l-0.3,1.1c-0.3-0.1-0.5-0.1-0.7-0.1c-0.4,0-0.8,0.1-1.2,0.4
			c-0.4,0.3-0.7,0.6-0.9,1.1c-0.3,0.5-0.5,1-0.6,1.6l-0.7,3.4h-1.2l1.6-7.5h1l-0.2,1.4h0.1c0.3-0.4,0.6-0.8,0.8-0.9
			c0.2-0.2,0.4-0.3,0.7-0.4C243.6,96.8,243.9,96.8,244.2,96.8z"/>
		<path class="st1" d="M252.1,99.7c0,0.9-0.2,1.7-0.5,2.4c-0.3,0.8-0.8,1.3-1.3,1.8c-0.6,0.4-1.2,0.6-1.9,0.6
			c-0.9,0-1.6-0.3-2.1-0.8c-0.5-0.5-0.7-1.2-0.7-2.1c0-0.9,0.2-1.7,0.5-2.5c0.3-0.8,0.8-1.4,1.3-1.8s1.2-0.6,1.9-0.6
			c0.9,0,1.6,0.3,2.1,0.8C251.8,98.1,252.1,98.8,252.1,99.7z M250.8,99.6c0-0.5-0.1-0.9-0.4-1.3c-0.3-0.3-0.6-0.5-1.1-0.5
			c-0.5,0-0.9,0.2-1.3,0.5c-0.4,0.3-0.7,0.8-0.9,1.4c-0.2,0.6-0.3,1.2-0.3,2c0,0.6,0.1,1,0.4,1.3c0.3,0.3,0.7,0.5,1.2,0.5
			c0.5,0,0.9-0.2,1.2-0.5c0.4-0.3,0.7-0.8,0.9-1.4C250.7,101.1,250.8,100.4,250.8,99.6z"/>
		<path class="st1" d="M258.1,96.8c0.5,0,0.9,0.1,1.2,0.4c0.3,0.3,0.4,0.7,0.5,1.2h0.1c0.8-1.1,1.6-1.7,2.6-1.7c0.6,0,1,0.2,1.3,0.5
			c0.3,0.3,0.5,0.8,0.5,1.4c0,0.4-0.1,0.8-0.2,1.2l-1,4.6h-1.2l1-4.7c0.1-0.4,0.1-0.8,0.1-1c0-0.3-0.1-0.5-0.2-0.7
			c-0.2-0.2-0.4-0.3-0.7-0.3c-0.4,0-0.7,0.1-1.1,0.4c-0.3,0.3-0.7,0.6-0.9,1.1c-0.3,0.5-0.5,1.1-0.6,1.7l-0.7,3.4h-1.2l1-4.7
			c0.1-0.4,0.1-0.7,0.1-0.9c0-0.7-0.3-1-0.9-1c-0.4,0-0.7,0.1-1.1,0.4c-0.3,0.3-0.7,0.7-0.9,1.2c-0.3,0.5-0.5,1.1-0.6,1.8l-0.7,3.2
			h-1.2l1.6-7.5h1l-0.2,1.4h0.1c0.3-0.4,0.6-0.7,0.8-0.9c0.2-0.2,0.5-0.3,0.7-0.5C257.5,96.8,257.8,96.8,258.1,96.8z"/>
		<path class="st1" d="M77.7,120.4c0.3,0,0.6-0.1,1-0.2v0.9c-0.1,0.1-0.3,0.1-0.6,0.2c-0.2,0-0.4,0.1-0.6,0.1c-0.6,0-1-0.1-1.3-0.4
			c-0.3-0.3-0.5-0.7-0.5-1.2c0-0.3,0-0.6,0.1-1l0.9-4.1h-1.2l0.1-0.6l1.3-0.5l0.9-1.6h0.7l-0.4,1.7H80l-0.2,0.9h-1.9l-0.9,4.1
			c-0.1,0.4-0.1,0.6-0.1,0.8c0,0.2,0.1,0.4,0.2,0.6C77.2,120.3,77.4,120.4,77.7,120.4z"/>
		<path class="st1" d="M85.7,121.2h-1.2l1-4.7c0.1-0.4,0.1-0.7,0.1-0.9c0-0.7-0.3-1-1-1c-0.4,0-0.8,0.1-1.2,0.4
			c-0.4,0.3-0.7,0.7-1,1.2c-0.3,0.5-0.5,1.1-0.6,1.8l-0.7,3.2h-1.2l2.3-10.6h1.2l-0.6,2.8c-0.1,0.3-0.1,0.6-0.2,0.9
			c-0.1,0.3-0.2,0.6-0.2,0.9h0.1c0.4-0.5,0.8-0.9,1.2-1.2c0.4-0.2,0.8-0.4,1.3-0.4c0.6,0,1.1,0.2,1.4,0.5c0.3,0.3,0.5,0.8,0.5,1.4
			c0,0.3-0.1,0.6-0.2,1.1L85.7,121.2z"/>
		<path class="st1" d="M89.3,121.2h-1.2l1.6-7.5h1.2L89.3,121.2z M90,111.8c0-0.3,0.1-0.5,0.2-0.6c0.2-0.2,0.4-0.3,0.6-0.3
			c0.4,0,0.6,0.2,0.6,0.6c0,0.3-0.1,0.5-0.2,0.7c-0.2,0.2-0.3,0.3-0.6,0.3c-0.2,0-0.4-0.1-0.5-0.2C90,112.2,90,112,90,111.8z"/>
		<path class="st1" d="M96.4,119.1c0,0.7-0.3,1.3-0.8,1.7c-0.5,0.4-1.2,0.6-2.1,0.6c-0.8,0-1.5-0.2-2.1-0.5v-1.1
			c0.3,0.2,0.6,0.3,1,0.4c0.4,0.1,0.7,0.2,1.1,0.2c0.6,0,1-0.1,1.3-0.3c0.3-0.2,0.4-0.5,0.4-0.9c0-0.3-0.1-0.5-0.2-0.6
			c-0.2-0.2-0.5-0.4-1-0.7c-0.6-0.3-1-0.7-1.2-1c-0.2-0.3-0.4-0.7-0.4-1.1c0-0.6,0.2-1.2,0.7-1.5c0.5-0.4,1.1-0.6,1.9-0.6
			c0.8,0,1.5,0.2,2.3,0.5l-0.4,1c-0.2-0.1-0.5-0.2-0.8-0.3c-0.3-0.1-0.7-0.1-1.1-0.1c-0.4,0-0.7,0.1-1,0.3c-0.2,0.2-0.4,0.4-0.4,0.7
			c0,0.3,0.1,0.5,0.2,0.6c0.2,0.2,0.5,0.4,1,0.7c0.5,0.3,0.9,0.6,1.1,0.7c0.2,0.2,0.3,0.4,0.4,0.6C96.3,118.5,96.4,118.8,96.4,119.1
			z"/>
		<path class="st1" d="M106.4,114.9l-0.3,0.8l-0.5,1.3l-2,4.2h-1.5l-0.3-7.5h1.2l0.1,4.7c0,0.3,0,0.9-0.1,1.7h0.1
			c0.1-0.1,0.2-0.4,0.3-0.9c0.2-0.4,0.3-0.8,0.5-1.2c0.2-0.3,0.8-1.8,2-4.4h1.3l0.2,4l0,1.7v0.4l0,0.3h0.1c0.2-0.7,0.6-1.6,1.1-2.7
			l1.6-3.7h1.3l-3.5,7.5h-1.5l-0.2-4.1l0-1L106.4,114.9L106.4,114.9z"/>
		<path class="st1" d="M114.5,121.4c-0.8,0-1.5-0.3-2-0.7c-0.5-0.5-0.7-1.2-0.7-2.1c0-0.9,0.2-1.7,0.5-2.5c0.3-0.8,0.8-1.4,1.4-1.8
			c0.6-0.4,1.2-0.7,1.9-0.7c0.7,0,1.2,0.2,1.6,0.5c0.4,0.3,0.5,0.7,0.5,1.3c0,0.8-0.4,1.5-1.1,1.9c-0.8,0.5-1.8,0.7-3.2,0.7H113
			l0,0.5c0,0.6,0.1,1,0.4,1.4c0.3,0.3,0.7,0.5,1.3,0.5c0.4,0,0.7,0,1-0.2c0.3-0.1,0.7-0.2,1-0.4v1.1c-0.5,0.2-0.8,0.4-1.2,0.4
			C115.2,121.3,114.9,121.4,114.5,121.4z M115.4,114.6c-0.5,0-0.9,0.2-1.3,0.7c-0.4,0.4-0.7,1-0.9,1.7h0.1c1,0,1.8-0.1,2.3-0.4
			s0.8-0.6,0.8-1.2c0-0.2-0.1-0.4-0.2-0.6S115.8,114.6,115.4,114.6z"/>
		<path class="st1" d="M121.8,121.4c-0.4,0-0.8-0.1-1.2-0.3c-0.3-0.2-0.6-0.5-0.8-1h-0.1l-0.5,1.1h-0.9l2.3-10.6h1.2l-0.5,2.5
			c-0.1,0.4-0.2,0.8-0.3,1.3c-0.1,0.4-0.2,0.7-0.2,0.8h0.1c0.5-0.6,0.9-1,1.3-1.2c0.4-0.2,0.8-0.3,1.2-0.3c0.6,0,1.2,0.2,1.5,0.7
			c0.4,0.4,0.5,1.1,0.5,1.9c0,0.9-0.2,1.8-0.5,2.6c-0.3,0.8-0.7,1.4-1.3,1.9C123.2,121.1,122.5,121.4,121.8,121.4z M123,114.6
			c-0.4,0-0.9,0.2-1.3,0.6c-0.4,0.4-0.8,1-1,1.6c-0.3,0.6-0.4,1.3-0.4,2c0,0.5,0.1,0.8,0.4,1.1c0.2,0.3,0.6,0.4,1.1,0.4
			c0.4,0,0.9-0.2,1.2-0.6s0.7-0.9,0.9-1.6c0.2-0.7,0.3-1.4,0.3-2.1C124.2,115.1,123.8,114.6,123,114.6z"/>
		<path class="st1" d="M131.3,119.1c0,0.7-0.3,1.3-0.8,1.7c-0.5,0.4-1.2,0.6-2.1,0.6c-0.8,0-1.5-0.2-2.1-0.5v-1.1
			c0.3,0.2,0.6,0.3,1,0.4c0.4,0.1,0.7,0.2,1.1,0.2c0.6,0,1-0.1,1.3-0.3c0.3-0.2,0.4-0.5,0.4-0.9c0-0.3-0.1-0.5-0.2-0.6
			c-0.2-0.2-0.5-0.4-1-0.7c-0.6-0.3-1-0.7-1.2-1c-0.2-0.3-0.4-0.7-0.4-1.1c0-0.6,0.2-1.2,0.7-1.5c0.5-0.4,1.1-0.6,1.9-0.6
			c0.8,0,1.5,0.2,2.3,0.5l-0.4,1c-0.2-0.1-0.5-0.2-0.8-0.3c-0.3-0.1-0.7-0.1-1.1-0.1c-0.4,0-0.7,0.1-1,0.3c-0.2,0.2-0.4,0.4-0.4,0.7
			c0,0.3,0.1,0.5,0.2,0.6c0.2,0.2,0.5,0.4,1,0.7c0.5,0.3,0.9,0.6,1.1,0.7c0.2,0.2,0.3,0.4,0.4,0.6
			C131.2,118.5,131.3,118.8,131.3,119.1z"/>
		<path class="st1" d="M133.9,121.2h-1.2l1.6-7.5h1.2L133.9,121.2z M134.5,111.8c0-0.3,0.1-0.5,0.2-0.6s0.4-0.3,0.6-0.3
			c0.4,0,0.6,0.2,0.6,0.6c0,0.3-0.1,0.5-0.2,0.7c-0.2,0.2-0.3,0.3-0.6,0.3c-0.2,0-0.4-0.1-0.5-0.2S134.5,112,134.5,111.8z"/>
		<path class="st1" d="M138.6,120.4c0.3,0,0.6-0.1,1-0.2v0.9c-0.1,0.1-0.3,0.1-0.5,0.2c-0.2,0-0.4,0.1-0.6,0.1c-0.6,0-1-0.1-1.3-0.4
			c-0.3-0.3-0.5-0.7-0.5-1.2c0-0.3,0-0.6,0.1-1l0.9-4.1h-1.2l0.1-0.6l1.3-0.5l0.9-1.6h0.7l-0.4,1.7h1.9l-0.2,0.9h-1.9l-0.9,4.1
			c-0.1,0.4-0.1,0.6-0.1,0.8c0,0.2,0.1,0.4,0.2,0.6C138.2,120.3,138.3,120.4,138.6,120.4z"/>
		<path class="st1" d="M143.9,121.4c-0.8,0-1.5-0.3-2-0.7c-0.5-0.5-0.7-1.2-0.7-2.1c0-0.9,0.2-1.7,0.5-2.5c0.3-0.8,0.8-1.4,1.4-1.8
			c0.6-0.4,1.2-0.7,1.9-0.7c0.7,0,1.2,0.2,1.6,0.5c0.4,0.3,0.5,0.7,0.5,1.3c0,0.8-0.4,1.5-1.1,1.9c-0.8,0.5-1.8,0.7-3.2,0.7h-0.2
			l0,0.5c0,0.6,0.1,1,0.4,1.4s0.7,0.5,1.3,0.5c0.3,0,0.7,0,1-0.2c0.3-0.1,0.7-0.2,1-0.4v1.1c-0.5,0.2-0.8,0.4-1.2,0.4
			C144.6,121.3,144.3,121.4,143.9,121.4z M144.8,114.6c-0.5,0-0.9,0.2-1.3,0.7c-0.4,0.4-0.7,1-0.9,1.7h0.1c1,0,1.8-0.1,2.3-0.4
			s0.8-0.6,0.8-1.2c0-0.2-0.1-0.4-0.2-0.6S145.2,114.6,144.8,114.6z"/>
		<path class="st1" d="M149.5,119.6l0.1,0.2c-0.4,1-1.1,2.1-1.8,3.3h-0.9c0.4-0.9,0.9-2.1,1.4-3.4H149.5z"/>
		<path class="st1" d="M157.3,121.4c-0.6,0-1.1-0.2-1.5-0.7c-0.4-0.4-0.5-1.1-0.5-1.9c0-0.9,0.2-1.8,0.5-2.6
			c0.3-0.8,0.8-1.4,1.3-1.9c0.6-0.5,1.2-0.7,1.9-0.7c0.4,0,0.8,0.1,1.1,0.3c0.3,0.2,0.6,0.5,0.8,1h0.1l0.4-1.2h0.9l-1.6,7.5h-1
			l0.2-1.4h-0.1C159.1,120.9,158.2,121.4,157.3,121.4z M157.7,120.3c0.4,0,0.9-0.2,1.3-0.6c0.4-0.4,0.8-0.9,1-1.6
			c0.3-0.7,0.4-1.3,0.4-2c0-0.4-0.1-0.8-0.4-1.1c-0.2-0.3-0.6-0.4-1-0.4c-0.5,0-0.9,0.2-1.3,0.6c-0.4,0.4-0.7,0.9-0.9,1.6
			c-0.2,0.7-0.3,1.3-0.3,2.1c0,0.5,0.1,0.9,0.3,1.1S157.4,120.3,157.7,120.3z"/>
		<path class="st1" d="M167.8,113.6c0.3,0,0.6,0,0.8,0.1l-0.3,1.1c-0.3-0.1-0.5-0.1-0.7-0.1c-0.4,0-0.8,0.1-1.2,0.4
			c-0.4,0.3-0.7,0.6-0.9,1.1c-0.3,0.5-0.5,1-0.6,1.6l-0.7,3.4H163l1.6-7.5h1l-0.2,1.4h0.1c0.3-0.4,0.6-0.8,0.8-0.9
			c0.2-0.2,0.4-0.3,0.7-0.4C167.2,113.6,167.5,113.6,167.8,113.6z"/>
		<path class="st1" d="M171.9,121.4c-0.8,0-1.5-0.3-2-0.7c-0.5-0.5-0.7-1.2-0.7-2.1c0-0.9,0.2-1.7,0.5-2.5c0.3-0.8,0.8-1.4,1.4-1.8
			c0.6-0.4,1.2-0.7,1.9-0.7c0.7,0,1.2,0.2,1.6,0.5c0.4,0.3,0.5,0.7,0.5,1.3c0,0.8-0.4,1.5-1.1,1.9c-0.8,0.5-1.8,0.7-3.2,0.7h-0.2
			l0,0.5c0,0.6,0.1,1,0.4,1.4s0.7,0.5,1.3,0.5c0.3,0,0.7,0,1-0.2c0.3-0.1,0.7-0.2,1-0.4v1.1c-0.5,0.2-0.8,0.4-1.2,0.4
			C172.6,121.3,172.3,121.4,171.9,121.4z M172.8,114.6c-0.5,0-0.9,0.2-1.3,0.7c-0.4,0.4-0.7,1-0.9,1.7h0.1c1,0,1.8-0.1,2.3-0.4
			s0.8-0.6,0.8-1.2c0-0.2-0.1-0.4-0.2-0.6S173.2,114.6,172.8,114.6z"/>
		<path class="st1" d="M181.9,120.4c0.3,0,0.6-0.1,1-0.2v0.9c-0.1,0.1-0.3,0.1-0.5,0.2c-0.2,0-0.4,0.1-0.6,0.1c-0.6,0-1-0.1-1.3-0.4
			c-0.3-0.3-0.5-0.7-0.5-1.2c0-0.3,0-0.6,0.1-1l0.9-4.1h-1.2l0.1-0.6l1.3-0.5l0.9-1.6h0.7l-0.4,1.7h1.9l-0.2,0.9h-1.9l-0.9,4.1
			c-0.1,0.4-0.1,0.6-0.1,0.8c0,0.2,0.1,0.4,0.2,0.6C181.4,120.3,181.6,120.4,181.9,120.4z"/>
		<path class="st1" d="M189.9,121.2h-1.2l1-4.7c0.1-0.4,0.1-0.7,0.1-0.9c0-0.7-0.3-1-1-1c-0.4,0-0.8,0.1-1.2,0.4
			c-0.4,0.3-0.7,0.7-1,1.2c-0.3,0.5-0.5,1.1-0.6,1.8l-0.7,3.2h-1.2l2.3-10.6h1.2l-0.6,2.8c-0.1,0.3-0.1,0.6-0.2,0.9
			c-0.1,0.3-0.2,0.6-0.2,0.9h0.1c0.4-0.5,0.8-0.9,1.2-1.2s0.8-0.4,1.3-0.4c0.6,0,1.1,0.2,1.4,0.5c0.3,0.3,0.5,0.8,0.5,1.4
			c0,0.3,0,0.6-0.2,1.1L189.9,121.2z"/>
		<path class="st1" d="M195.3,121.4c-0.8,0-1.5-0.3-2-0.7c-0.5-0.5-0.7-1.2-0.7-2.1c0-0.9,0.2-1.7,0.5-2.5c0.3-0.8,0.8-1.4,1.4-1.8
			c0.6-0.4,1.2-0.7,1.9-0.7c0.7,0,1.2,0.2,1.6,0.5c0.4,0.3,0.5,0.7,0.5,1.3c0,0.8-0.4,1.5-1.1,1.9c-0.8,0.5-1.8,0.7-3.2,0.7h-0.2
			l0,0.5c0,0.6,0.1,1,0.4,1.4s0.7,0.5,1.3,0.5c0.3,0,0.7,0,1-0.2c0.3-0.1,0.7-0.2,1-0.4v1.1c-0.5,0.2-0.8,0.4-1.2,0.4
			C196,121.3,195.6,121.4,195.3,121.4z M196.2,114.6c-0.5,0-0.9,0.2-1.3,0.7c-0.4,0.4-0.7,1-0.9,1.7h0.1c1,0,1.8-0.1,2.3-0.4
			s0.8-0.6,0.8-1.2c0-0.2-0.1-0.4-0.2-0.6S196.6,114.6,196.2,114.6z"/>
		<path class="st1" d="M204,113.6c0.3,0,0.6,0,0.8,0.1l-0.3,1.1c-0.3-0.1-0.5-0.1-0.7-0.1c-0.4,0-0.8,0.1-1.2,0.4
			c-0.4,0.3-0.7,0.6-0.9,1.1c-0.3,0.5-0.5,1-0.6,1.6l-0.7,3.4h-1.2l1.6-7.5h1l-0.2,1.4h0.1c0.3-0.4,0.6-0.8,0.8-0.9
			c0.2-0.2,0.4-0.3,0.7-0.4C203.5,113.6,203.8,113.6,204,113.6z"/>
		<path class="st1" d="M208.2,121.4c-0.8,0-1.5-0.3-2-0.7c-0.5-0.5-0.7-1.2-0.7-2.1c0-0.9,0.2-1.7,0.5-2.5c0.3-0.8,0.8-1.4,1.4-1.8
			c0.6-0.4,1.2-0.7,1.9-0.7c0.7,0,1.2,0.2,1.6,0.5c0.4,0.3,0.5,0.7,0.5,1.3c0,0.8-0.4,1.5-1.1,1.9c-0.8,0.5-1.8,0.7-3.2,0.7h-0.2
			l0,0.5c0,0.6,0.1,1,0.4,1.4c0.3,0.3,0.7,0.5,1.3,0.5c0.4,0,0.7,0,1-0.2c0.3-0.1,0.7-0.2,1-0.4v1.1c-0.5,0.2-0.8,0.4-1.2,0.4
			C208.9,121.3,208.5,121.4,208.2,121.4z M209.1,114.6c-0.5,0-0.9,0.2-1.3,0.7c-0.4,0.4-0.7,1-0.9,1.7h0.1c1,0,1.8-0.1,2.3-0.4
			s0.8-0.6,0.8-1.2c0-0.2-0.1-0.4-0.2-0.6S209.5,114.6,209.1,114.6z"/>
		<path class="st1" d="M218.2,120.4c0.3,0,0.6-0.1,1-0.2v0.9c-0.1,0.1-0.3,0.1-0.6,0.2c-0.2,0-0.4,0.1-0.6,0.1c-0.6,0-1-0.1-1.3-0.4
			c-0.3-0.3-0.5-0.7-0.5-1.2c0-0.3,0-0.6,0.1-1l0.9-4.1H216l0.1-0.6l1.3-0.5l0.9-1.6h0.7l-0.4,1.7h1.9l-0.2,0.9h-1.9l-0.9,4.1
			c-0.1,0.4-0.1,0.6-0.1,0.8c0,0.2,0.1,0.4,0.2,0.6C217.7,120.3,217.9,120.4,218.2,120.4z"/>
		<path class="st1" d="M225.2,113.6c0.3,0,0.6,0,0.8,0.1l-0.3,1.1c-0.3-0.1-0.5-0.1-0.7-0.1c-0.4,0-0.8,0.1-1.2,0.4
			c-0.4,0.3-0.7,0.6-0.9,1.1c-0.3,0.5-0.5,1-0.6,1.6l-0.7,3.4h-1.2l1.6-7.5h1l-0.2,1.4h0.1c0.3-0.4,0.6-0.8,0.8-0.9
			c0.2-0.2,0.4-0.3,0.7-0.4C224.7,113.6,224.9,113.6,225.2,113.6z"/>
		<path class="st1" d="M227.5,113.7h1.2l-1,4.7c-0.1,0.4-0.1,0.7-0.1,0.9c0,0.6,0.3,1,1,1c0.4,0,0.8-0.1,1.2-0.4
			c0.4-0.3,0.7-0.7,1-1.2c0.3-0.5,0.5-1.1,0.7-1.8l0.7-3.2h1.2l-1.6,7.5h-1l0.2-1.4h-0.1c-0.4,0.5-0.8,0.9-1.2,1.2
			c-0.4,0.2-0.8,0.4-1.3,0.4c-0.6,0-1-0.2-1.4-0.5c-0.3-0.3-0.5-0.8-0.5-1.4c0-0.3,0.1-0.7,0.2-1.2L227.5,113.7z"/>
		<path class="st1" d="M238.8,119.1c0,0.7-0.3,1.3-0.8,1.7s-1.2,0.6-2.2,0.6c-0.8,0-1.5-0.2-2.1-0.5v-1.1c0.3,0.2,0.6,0.3,1,0.4
			c0.4,0.1,0.7,0.2,1.1,0.2c0.6,0,1-0.1,1.3-0.3c0.3-0.2,0.4-0.5,0.4-0.9c0-0.3-0.1-0.5-0.2-0.6c-0.2-0.2-0.5-0.4-1-0.7
			c-0.6-0.3-1-0.7-1.2-1c-0.2-0.3-0.4-0.7-0.4-1.1c0-0.6,0.2-1.2,0.7-1.5c0.5-0.4,1.1-0.6,1.9-0.6c0.8,0,1.5,0.2,2.3,0.5l-0.4,1
			c-0.2-0.1-0.5-0.2-0.8-0.3c-0.3-0.1-0.7-0.1-1.1-0.1c-0.4,0-0.7,0.1-1,0.3c-0.2,0.2-0.4,0.4-0.4,0.7c0,0.3,0.1,0.5,0.3,0.6
			c0.2,0.2,0.5,0.4,1,0.7c0.5,0.3,0.9,0.6,1.1,0.7c0.2,0.2,0.3,0.4,0.4,0.6C238.7,118.5,238.8,118.8,238.8,119.1z"/>
		<path class="st1" d="M242.5,120.4c0.3,0,0.6-0.1,1-0.2v0.9c-0.1,0.1-0.3,0.1-0.6,0.2c-0.2,0-0.4,0.1-0.6,0.1c-0.6,0-1-0.1-1.3-0.4
			c-0.3-0.3-0.5-0.7-0.5-1.2c0-0.3,0-0.6,0.1-1l0.9-4.1h-1.2l0.1-0.6l1.3-0.5l0.9-1.6h0.7l-0.4,1.7h1.9l-0.2,0.9h-1.9l-0.9,4.1
			c-0.1,0.4-0.1,0.6-0.1,0.8c0,0.2,0.1,0.4,0.2,0.6C242.1,120.3,242.3,120.4,242.5,120.4z"/>
		<path class="st1" d="M249.7,113.6c0.5,0,0.9,0.1,1.2,0.4c0.3,0.3,0.4,0.7,0.5,1.2h0.1c0.8-1.1,1.6-1.7,2.6-1.7
			c0.6,0,1,0.2,1.3,0.5c0.3,0.3,0.5,0.8,0.5,1.4c0,0.4-0.1,0.8-0.2,1.2l-1,4.6h-1.2l1-4.7c0.1-0.4,0.1-0.8,0.1-1
			c0-0.3-0.1-0.5-0.2-0.7c-0.2-0.2-0.4-0.3-0.7-0.3c-0.4,0-0.7,0.1-1.1,0.4c-0.3,0.3-0.7,0.6-0.9,1.1c-0.3,0.5-0.5,1.1-0.6,1.7
			l-0.7,3.4h-1.2l1-4.7c0.1-0.4,0.1-0.7,0.1-0.9c0-0.7-0.3-1-0.9-1c-0.4,0-0.7,0.1-1.1,0.4c-0.3,0.3-0.7,0.7-0.9,1.2
			c-0.3,0.5-0.5,1.1-0.6,1.8l-0.7,3.2h-1.2l1.6-7.5h1l-0.2,1.4h0.1c0.3-0.4,0.6-0.7,0.8-0.9c0.2-0.2,0.5-0.3,0.7-0.5
			C249.1,113.6,249.4,113.6,249.7,113.6z"/>
		<path class="st1" d="M259.4,121.4c-0.6,0-1.1-0.2-1.5-0.7c-0.4-0.4-0.5-1.1-0.5-1.9c0-0.9,0.2-1.8,0.5-2.6
			c0.3-0.8,0.8-1.4,1.3-1.9c0.6-0.5,1.2-0.7,1.9-0.7c0.4,0,0.8,0.1,1.1,0.3c0.3,0.2,0.6,0.5,0.8,1h0.1l0.4-1.2h0.9l-1.6,7.5h-1
			l0.2-1.4h-0.1C261.1,120.9,260.3,121.4,259.4,121.4z M259.8,120.3c0.4,0,0.9-0.2,1.3-0.6c0.4-0.4,0.8-0.9,1-1.6
			c0.3-0.7,0.4-1.3,0.4-2c0-0.4-0.1-0.8-0.4-1.1c-0.2-0.3-0.6-0.4-1-0.4c-0.5,0-0.9,0.2-1.3,0.6c-0.4,0.4-0.7,0.9-0.9,1.6
			c-0.2,0.7-0.3,1.3-0.3,2.1c0,0.5,0.1,0.9,0.3,1.1S259.4,120.3,259.8,120.3z"/>
		<path class="st1" d="M269.8,113.6c0.3,0,0.6,0,0.8,0.1l-0.3,1.1c-0.3-0.1-0.5-0.1-0.7-0.1c-0.4,0-0.8,0.1-1.2,0.4
			c-0.4,0.3-0.7,0.6-0.9,1.1c-0.3,0.5-0.5,1-0.6,1.6l-0.7,3.4H265l1.6-7.5h1l-0.2,1.4h0.1c0.3-0.4,0.6-0.8,0.8-0.9
			c0.2-0.2,0.4-0.3,0.7-0.4C269.3,113.6,269.5,113.6,269.8,113.6z"/>
		<path class="st1" d="M276.1,113.7h1.5l-3.2,3.2l2,4.3H275l-1.6-3.5l-1,0.8l-0.6,2.7h-1.3l2.3-10.6h1.2c-0.4,1.9-0.7,3.3-0.9,4.3
			c-0.2,1-0.4,1.8-0.6,2.4h0L276.1,113.7z"/>
		<path class="st1" d="M282.1,119.1c0,0.7-0.3,1.3-0.8,1.7c-0.5,0.4-1.2,0.6-2.1,0.6c-0.8,0-1.5-0.2-2.1-0.5v-1.1
			c0.3,0.2,0.6,0.3,1,0.4c0.4,0.1,0.7,0.2,1.1,0.2c0.6,0,1-0.1,1.3-0.3c0.3-0.2,0.4-0.5,0.4-0.9c0-0.3-0.1-0.5-0.2-0.6
			c-0.2-0.2-0.5-0.4-1-0.7c-0.6-0.3-1-0.7-1.2-1c-0.2-0.3-0.4-0.7-0.4-1.1c0-0.6,0.2-1.2,0.7-1.5c0.5-0.4,1.1-0.6,1.9-0.6
			c0.8,0,1.5,0.2,2.3,0.5l-0.4,1c-0.2-0.1-0.5-0.2-0.8-0.3c-0.3-0.1-0.7-0.1-1.1-0.1c-0.4,0-0.7,0.1-1,0.3c-0.2,0.2-0.4,0.4-0.4,0.7
			c0,0.3,0.1,0.5,0.2,0.6c0.2,0.2,0.5,0.4,1,0.7c0.5,0.3,0.9,0.6,1.1,0.7c0.2,0.2,0.3,0.4,0.4,0.6
			C282.1,118.5,282.1,118.8,282.1,119.1z"/>
		<path class="st1" d="M78.1,138h-3.5l0.1-0.7l1.2-0.3l1.7-8.1l-1.1-0.3l0.1-0.7h3.5l-0.1,0.7l-1.2,0.3l-1.7,8.1l1.1,0.3L78.1,138z"
			/>
		<path class="st1" d="M86.5,138.2c-0.9,0-1.6-0.2-2.1-0.7c-0.5-0.5-0.7-1.2-0.7-2.1c0-0.9,0.2-1.8,0.5-2.5c0.3-0.8,0.8-1.4,1.4-1.8
			c0.6-0.4,1.3-0.6,2-0.6c0.7,0,1.3,0.1,1.9,0.4l-0.3,1c-0.5-0.2-1-0.4-1.5-0.4c-0.5,0-1,0.2-1.4,0.5c-0.4,0.3-0.7,0.8-1,1.4
			c-0.2,0.6-0.3,1.3-0.3,2c0,0.6,0.1,1,0.4,1.3c0.3,0.3,0.7,0.5,1.2,0.5c0.3,0,0.6,0,0.9-0.1c0.3-0.1,0.6-0.2,0.9-0.3v1
			C87.9,138,87.2,138.2,86.5,138.2z"/>
		<path class="st1" d="M92.1,138.2c-0.6,0-1.1-0.2-1.5-0.7c-0.4-0.4-0.5-1.1-0.5-1.9c0-0.9,0.2-1.8,0.5-2.6c0.3-0.8,0.8-1.4,1.3-1.9
			c0.6-0.5,1.2-0.7,1.9-0.7c0.4,0,0.8,0.1,1.1,0.3c0.3,0.2,0.6,0.5,0.8,1h0.1l0.4-1.2h0.9l-1.6,7.5h-1l0.2-1.4h-0.1
			C93.9,137.7,93,138.2,92.1,138.2z M92.5,137.1c0.4,0,0.9-0.2,1.3-0.6c0.4-0.4,0.8-0.9,1-1.6c0.3-0.7,0.4-1.3,0.4-2
			c0-0.4-0.1-0.8-0.4-1.1c-0.2-0.3-0.6-0.4-1-0.4c-0.5,0-0.9,0.2-1.3,0.6c-0.4,0.4-0.7,0.9-0.9,1.6c-0.2,0.7-0.3,1.3-0.3,2.1
			c0,0.5,0.1,0.9,0.3,1.1S92.2,137.1,92.5,137.1z"/>
		<path class="st1" d="M103.6,138h-1.2l1-4.7c0.1-0.5,0.1-0.8,0.1-1c0-0.3-0.1-0.5-0.2-0.7c-0.2-0.2-0.4-0.3-0.8-0.3
			c-0.4,0-0.8,0.1-1.1,0.4s-0.7,0.7-1,1.2c-0.3,0.5-0.5,1.1-0.6,1.8L99,138h-1.2l1.6-7.5h1l-0.2,1.4h0.1c0.3-0.4,0.6-0.7,0.8-0.9
			c0.2-0.2,0.5-0.4,0.8-0.5c0.3-0.1,0.6-0.2,0.9-0.2c0.6,0,1.1,0.2,1.4,0.5c0.3,0.3,0.5,0.8,0.5,1.4c0,0.4,0,0.8-0.2,1.2L103.6,138z
			"/>
		<path class="st1" d="M110.7,138h-1.2l2.3-10.6h1.2L110.7,138z"/>
		<path class="st1" d="M120,133.3c0,0.9-0.2,1.7-0.5,2.4c-0.3,0.8-0.8,1.3-1.3,1.8c-0.6,0.4-1.2,0.6-1.9,0.6c-0.9,0-1.6-0.3-2.1-0.8
			c-0.5-0.5-0.7-1.2-0.7-2.1c0-0.9,0.2-1.7,0.5-2.5c0.3-0.8,0.8-1.4,1.3-1.8s1.2-0.6,1.9-0.6c0.9,0,1.6,0.3,2.1,0.8
			C119.7,131.7,120,132.4,120,133.3z M118.7,133.2c0-0.5-0.1-0.9-0.4-1.3c-0.3-0.3-0.6-0.5-1.1-0.5c-0.5,0-0.9,0.2-1.3,0.5
			c-0.4,0.3-0.7,0.8-0.9,1.4c-0.2,0.6-0.3,1.2-0.3,2c0,0.6,0.1,1,0.4,1.3c0.3,0.3,0.7,0.5,1.2,0.5c0.5,0,0.9-0.2,1.2-0.5
			c0.4-0.3,0.7-0.8,0.9-1.4C118.6,134.7,118.7,134,118.7,133.2z"/>
		<path class="st1" d="M127.8,133.3c0,0.9-0.2,1.7-0.5,2.4c-0.3,0.8-0.8,1.3-1.3,1.8c-0.6,0.4-1.2,0.6-1.9,0.6
			c-0.9,0-1.6-0.3-2.1-0.8c-0.5-0.5-0.7-1.2-0.7-2.1c0-0.9,0.2-1.7,0.5-2.5c0.3-0.8,0.8-1.4,1.3-1.8c0.6-0.4,1.2-0.6,1.9-0.6
			c0.9,0,1.6,0.3,2.1,0.8C127.6,131.7,127.8,132.4,127.8,133.3z M126.6,133.2c0-0.5-0.1-0.9-0.4-1.3c-0.3-0.3-0.6-0.5-1.1-0.5
			c-0.5,0-0.9,0.2-1.3,0.5c-0.4,0.3-0.7,0.8-0.9,1.4c-0.2,0.6-0.3,1.2-0.3,2c0,0.6,0.1,1,0.4,1.3c0.3,0.3,0.7,0.5,1.2,0.5
			c0.5,0,0.9-0.2,1.2-0.5c0.4-0.3,0.7-0.8,0.9-1.4S126.6,134,126.6,133.2z"/>
		<path class="st1" d="M134.4,130.5h1.5l-3.2,3.2l2,4.3h-1.4l-1.6-3.5l-1,0.8l-0.6,2.7h-1.3l2.3-10.6h1.2c-0.4,1.9-0.7,3.3-0.9,4.3
			s-0.4,1.8-0.6,2.4h0L134.4,130.5z"/>
		<path class="st1" d="M146.3,133.3c0,0.9-0.2,1.7-0.5,2.4c-0.3,0.8-0.8,1.3-1.3,1.8c-0.6,0.4-1.2,0.6-1.9,0.6
			c-0.9,0-1.6-0.3-2.1-0.8c-0.5-0.5-0.7-1.2-0.7-2.1c0-0.9,0.2-1.7,0.5-2.5c0.3-0.8,0.8-1.4,1.3-1.8s1.2-0.6,1.9-0.6
			c0.9,0,1.6,0.3,2.1,0.8C146,131.7,146.3,132.4,146.3,133.3z M145,133.2c0-0.5-0.1-0.9-0.4-1.3c-0.3-0.3-0.6-0.5-1.1-0.5
			c-0.5,0-0.9,0.2-1.3,0.5c-0.4,0.3-0.7,0.8-0.9,1.4c-0.2,0.6-0.3,1.2-0.3,2c0,0.6,0.1,1,0.4,1.3c0.3,0.3,0.7,0.5,1.2,0.5
			c0.5,0,0.9-0.2,1.2-0.5c0.4-0.3,0.7-0.8,0.9-1.4C144.9,134.7,145,134,145,133.2z"/>
		<path class="st1" d="M148.9,130.5h1.2l-1,4.7c-0.1,0.4-0.1,0.7-0.1,0.9c0,0.6,0.3,1,1,1c0.4,0,0.8-0.1,1.2-0.4s0.7-0.7,1-1.2
			c0.3-0.5,0.5-1.1,0.7-1.8l0.7-3.2h1.2l-1.6,7.5h-1l0.2-1.4h-0.1c-0.4,0.5-0.8,0.9-1.2,1.2c-0.4,0.2-0.8,0.4-1.3,0.4
			c-0.6,0-1-0.2-1.4-0.5c-0.3-0.3-0.5-0.8-0.5-1.4c0-0.3,0-0.7,0.2-1.2L148.9,130.5z"/>
		<path class="st1" d="M157.8,137.2c0.3,0,0.6-0.1,1-0.2v0.9c-0.1,0.1-0.3,0.1-0.6,0.2c-0.2,0-0.4,0.1-0.6,0.1c-0.6,0-1-0.1-1.3-0.4
			c-0.3-0.3-0.5-0.7-0.5-1.2c0-0.3,0-0.6,0.1-1l0.9-4.1h-1.2l0.1-0.6l1.3-0.5l0.9-1.6h0.7l-0.4,1.7h1.9l-0.2,0.9h-1.9l-0.9,4.1
			c-0.1,0.4-0.1,0.6-0.1,0.8c0,0.2,0.1,0.4,0.2,0.6C157.4,137.1,157.6,137.2,157.8,137.2z"/>
		<path class="st1" d="M162.7,141.4c-0.3,0-0.6,0-0.9-0.1v-1c0.3,0.1,0.5,0.2,0.8,0.2c0.3,0,0.6-0.1,0.8-0.4
			c0.2-0.3,0.4-0.7,0.5-1.2l1.5-7.3H164l0.1-0.5l1.4-0.5l0.2-0.7c0.2-0.9,0.5-1.6,0.9-1.9c0.4-0.4,0.9-0.6,1.7-0.6
			c0.4,0,0.9,0.1,1.3,0.3l-0.3,0.9c-0.3-0.1-0.6-0.2-0.9-0.2c-0.4,0-0.7,0.1-0.9,0.3c-0.2,0.2-0.4,0.6-0.5,1.1l-0.2,0.7h1.6
			l-0.2,0.9h-1.6l-1.6,7.5c-0.2,0.9-0.5,1.5-0.8,1.9S163.3,141.4,162.7,141.4z"/>
		<path class="st1" d="M175,133.3c0,0.9-0.2,1.7-0.5,2.4c-0.3,0.8-0.8,1.3-1.3,1.8c-0.6,0.4-1.2,0.6-1.9,0.6c-0.9,0-1.6-0.3-2.1-0.8
			c-0.5-0.5-0.7-1.2-0.7-2.1c0-0.9,0.2-1.7,0.5-2.5c0.3-0.8,0.8-1.4,1.3-1.8s1.2-0.6,1.9-0.6c0.9,0,1.6,0.3,2.1,0.8
			C174.8,131.7,175,132.4,175,133.3z M173.8,133.2c0-0.5-0.1-0.9-0.4-1.3c-0.3-0.3-0.6-0.5-1.1-0.5c-0.5,0-0.9,0.2-1.3,0.5
			c-0.4,0.3-0.7,0.8-0.9,1.4c-0.2,0.6-0.3,1.2-0.3,2c0,0.6,0.1,1,0.4,1.3c0.3,0.3,0.7,0.5,1.2,0.5c0.5,0,0.9-0.2,1.2-0.5
			c0.4-0.3,0.7-0.8,0.9-1.4C173.6,134.7,173.8,134,173.8,133.2z"/>
		<path class="st1" d="M180.9,130.4c0.3,0,0.6,0,0.8,0.1l-0.3,1.1c-0.3-0.1-0.5-0.1-0.7-0.1c-0.4,0-0.8,0.1-1.2,0.4
			c-0.4,0.3-0.7,0.6-0.9,1.1c-0.3,0.5-0.5,1-0.6,1.6l-0.7,3.4h-1.2l1.6-7.5h1l-0.2,1.4h0.1c0.3-0.4,0.6-0.8,0.8-0.9
			c0.2-0.2,0.4-0.3,0.7-0.4C180.3,130.4,180.6,130.4,180.9,130.4z"/>
		<path class="st1" d="M187.7,137.2c0.3,0,0.6-0.1,1-0.2v0.9c-0.1,0.1-0.3,0.1-0.5,0.2c-0.2,0-0.4,0.1-0.6,0.1c-0.6,0-1-0.1-1.3-0.4
			c-0.3-0.3-0.5-0.7-0.5-1.2c0-0.3,0-0.6,0.1-1l0.9-4.1h-1.2l0.1-0.6l1.3-0.5l0.9-1.6h0.7l-0.4,1.7h1.9l-0.2,0.9h-1.9l-0.9,4.1
			c-0.1,0.4-0.1,0.6-0.1,0.8c0,0.2,0.1,0.4,0.2,0.6C187.2,137.1,187.4,137.2,187.7,137.2z"/>
		<path class="st1" d="M196.8,133.3c0,0.9-0.2,1.7-0.5,2.4c-0.3,0.8-0.8,1.3-1.3,1.8c-0.6,0.4-1.2,0.6-1.9,0.6
			c-0.9,0-1.6-0.3-2.1-0.8c-0.5-0.5-0.7-1.2-0.7-2.1c0-0.9,0.2-1.7,0.5-2.5c0.3-0.8,0.8-1.4,1.3-1.8s1.2-0.6,1.9-0.6
			c0.9,0,1.6,0.3,2.1,0.8C196.5,131.7,196.8,132.4,196.8,133.3z M195.5,133.2c0-0.5-0.1-0.9-0.4-1.3c-0.3-0.3-0.6-0.5-1.1-0.5
			c-0.5,0-0.9,0.2-1.3,0.5c-0.4,0.3-0.7,0.8-0.9,1.4c-0.2,0.6-0.3,1.2-0.3,2c0,0.6,0.1,1,0.4,1.3c0.3,0.3,0.7,0.5,1.2,0.5
			c0.5,0,0.9-0.2,1.2-0.5c0.4-0.3,0.7-0.8,0.9-1.4C195.4,134.7,195.5,134,195.5,133.2z"/>
		<path class="st1" d="M203.6,137.1c0.5-1.1,0.9-2,1.2-2.4l2.2-4.1h1.3l-4.1,7.5h-1.6l-0.9-7.5h1.2l0.4,4.2c0,0.4,0.1,0.9,0.1,1.4
			C203.5,136.6,203.5,136.9,203.6,137.1L203.6,137.1z"/>
		<path class="st1" d="M211,138.2c-0.8,0-1.5-0.3-2-0.7c-0.5-0.5-0.7-1.2-0.7-2.1c0-0.9,0.2-1.7,0.5-2.5c0.3-0.8,0.8-1.4,1.4-1.8
			c0.6-0.4,1.2-0.7,1.9-0.7c0.7,0,1.2,0.2,1.6,0.5c0.4,0.3,0.5,0.7,0.5,1.3c0,0.8-0.4,1.5-1.1,1.9c-0.8,0.5-1.8,0.7-3.2,0.7h-0.2
			l0,0.5c0,0.6,0.1,1,0.4,1.4c0.3,0.3,0.7,0.5,1.3,0.5c0.4,0,0.7,0,1-0.2c0.3-0.1,0.7-0.2,1-0.4v1.1c-0.5,0.2-0.8,0.4-1.2,0.4
			C211.7,138.1,211.4,138.2,211,138.2z M211.9,131.4c-0.5,0-0.9,0.2-1.3,0.7c-0.4,0.4-0.7,1-0.9,1.7h0.1c1,0,1.8-0.1,2.3-0.4
			s0.8-0.6,0.8-1.2c0-0.2-0.1-0.4-0.2-0.6S212.3,131.4,211.9,131.4z"/>
		<path class="st1" d="M219.8,130.4c0.3,0,0.6,0,0.8,0.1l-0.3,1.1c-0.3-0.1-0.5-0.1-0.7-0.1c-0.4,0-0.8,0.1-1.2,0.4
			c-0.4,0.3-0.7,0.6-0.9,1.1c-0.3,0.5-0.5,1-0.6,1.6l-0.7,3.4H215l1.6-7.5h1l-0.2,1.4h0.1c0.3-0.4,0.6-0.8,0.8-0.9
			c0.2-0.2,0.4-0.3,0.7-0.4C219.2,130.4,219.5,130.4,219.8,130.4z"/>
		<path class="st1" d="M221.8,138h-1.2l1.6-7.5h1.2L221.8,138z M222.5,128.6c0-0.3,0.1-0.5,0.2-0.6s0.4-0.3,0.6-0.3
			c0.4,0,0.6,0.2,0.6,0.6c0,0.3-0.1,0.5-0.2,0.7c-0.2,0.2-0.3,0.3-0.6,0.3c-0.2,0-0.4-0.1-0.5-0.2S222.5,128.8,222.5,128.6z"/>
		<path class="st1" d="M223.1,141.4c-0.3,0-0.6,0-0.9-0.1v-1c0.3,0.1,0.5,0.2,0.8,0.2c0.3,0,0.6-0.1,0.8-0.4
			c0.2-0.3,0.3-0.7,0.5-1.2l1.5-7.3h-1.3l0.1-0.5l1.4-0.5l0.2-0.7c0.2-0.9,0.5-1.6,0.9-1.9c0.4-0.4,0.9-0.6,1.7-0.6
			c0.4,0,0.9,0.1,1.3,0.3l-0.3,0.9c-0.3-0.1-0.7-0.2-0.9-0.2c-0.4,0-0.7,0.1-0.9,0.3c-0.2,0.2-0.4,0.6-0.5,1.1l-0.2,0.7h1.6
			l-0.2,0.9H227l-1.6,7.5c-0.2,0.9-0.5,1.5-0.8,1.9C224.2,141.2,223.7,141.4,223.1,141.4z"/>
		<path class="st1" d="M228.9,130.5h1.2l0.5,3.7c0.1,0.3,0.1,0.8,0.1,1.3c0,0.5,0.1,1,0.1,1.5h0c0.1-0.3,0.3-0.7,0.5-1.2
			c0.2-0.5,0.4-0.9,0.6-1.2l2.2-4.1h1.3l-4.8,8.8c-0.4,0.8-0.8,1.3-1.3,1.6c-0.4,0.3-0.9,0.5-1.5,0.5c-0.4,0-0.7,0-1-0.1v-1
			c0.3,0.1,0.6,0.1,0.9,0.1c0.4,0,0.7-0.1,1-0.4c0.3-0.2,0.5-0.6,0.8-1l0.5-0.9L228.9,130.5z"/>
		<path class="st1" d="M243.7,130.4c0.5,0,0.9,0.1,1.2,0.4c0.3,0.3,0.4,0.7,0.5,1.2h0.1c0.8-1.1,1.6-1.7,2.6-1.7
			c0.6,0,1,0.2,1.3,0.5c0.3,0.3,0.5,0.8,0.5,1.4c0,0.4-0.1,0.8-0.2,1.2l-1,4.6h-1.2l1-4.7c0.1-0.4,0.1-0.8,0.1-1
			c0-0.3-0.1-0.5-0.2-0.7c-0.2-0.2-0.4-0.3-0.7-0.3c-0.4,0-0.7,0.1-1.1,0.4c-0.3,0.3-0.7,0.6-0.9,1.1c-0.3,0.5-0.5,1.1-0.6,1.7
			l-0.7,3.4h-1.2l1-4.7c0.1-0.4,0.1-0.7,0.1-0.9c0-0.7-0.3-1-0.9-1c-0.4,0-0.7,0.1-1.1,0.4c-0.3,0.3-0.7,0.7-0.9,1.2
			c-0.3,0.5-0.5,1.1-0.6,1.8L240,138h-1.2l1.6-7.5h1l-0.2,1.4h0.1c0.3-0.4,0.6-0.7,0.8-0.9c0.2-0.2,0.5-0.3,0.7-0.5
			C243.1,130.4,243.4,130.4,243.7,130.4z"/>
		<path class="st1" d="M251.3,130.5h1.2l0.5,3.7c0.1,0.3,0.1,0.8,0.1,1.3c0,0.5,0.1,1,0.1,1.5h0c0.1-0.3,0.3-0.7,0.5-1.2
			c0.2-0.5,0.4-0.9,0.6-1.2l2.2-4.1h1.3l-4.8,8.8c-0.4,0.8-0.8,1.3-1.3,1.6c-0.4,0.3-0.9,0.5-1.5,0.5c-0.4,0-0.7,0-1-0.1v-1
			c0.3,0.1,0.6,0.1,0.9,0.1c0.4,0,0.7-0.1,1-0.4c0.3-0.2,0.5-0.6,0.8-1l0.5-0.9L251.3,130.5z"/>
		<path class="st1" d="M80,152.7c0,0.7-0.3,1.3-0.8,1.7c-0.5,0.4-1.2,0.6-2.1,0.6c-0.8,0-1.5-0.2-2.1-0.5v-1.1
			c0.3,0.2,0.6,0.3,1,0.4c0.4,0.1,0.7,0.2,1.1,0.2c0.6,0,1-0.1,1.3-0.3c0.3-0.2,0.4-0.5,0.4-0.9c0-0.3-0.1-0.5-0.2-0.6
			c-0.2-0.2-0.5-0.4-1-0.7c-0.6-0.3-1-0.7-1.2-1c-0.2-0.3-0.4-0.7-0.4-1.1c0-0.6,0.2-1.2,0.7-1.5c0.5-0.4,1.1-0.6,1.9-0.6
			c0.8,0,1.5,0.2,2.3,0.5l-0.4,1c-0.2-0.1-0.5-0.2-0.8-0.3c-0.3-0.1-0.7-0.1-1.1-0.1c-0.4,0-0.7,0.1-1,0.3c-0.2,0.2-0.4,0.4-0.4,0.7
			c0,0.3,0.1,0.5,0.2,0.6c0.2,0.2,0.5,0.4,1,0.7c0.5,0.3,0.9,0.6,1.1,0.7c0.2,0.2,0.3,0.4,0.4,0.6C79.9,152.1,80,152.4,80,152.7z"/>
		<path class="st1" d="M87.1,154.8h-1.2l1-4.7c0.1-0.4,0.1-0.7,0.1-0.9c0-0.7-0.3-1-1-1c-0.4,0-0.8,0.1-1.2,0.4
			c-0.4,0.3-0.7,0.7-1,1.2c-0.3,0.5-0.5,1.1-0.6,1.8l-0.7,3.2h-1.2l2.3-10.6h1.2l-0.6,2.8c-0.1,0.3-0.1,0.6-0.2,0.9
			c-0.1,0.3-0.2,0.6-0.2,0.9h0.1c0.4-0.5,0.8-0.9,1.2-1.2s0.8-0.4,1.3-0.4c0.6,0,1.1,0.2,1.4,0.5c0.3,0.3,0.5,0.8,0.5,1.4
			c0,0.3,0,0.6-0.2,1.1L87.1,154.8z"/>
		<path class="st1" d="M96.3,150.1c0,0.9-0.2,1.7-0.5,2.4c-0.3,0.8-0.8,1.3-1.3,1.8c-0.6,0.4-1.2,0.6-1.9,0.6
			c-0.9,0-1.6-0.3-2.1-0.8c-0.5-0.5-0.7-1.2-0.7-2.1c0-0.9,0.2-1.7,0.5-2.5c0.3-0.8,0.8-1.4,1.3-1.8s1.2-0.6,1.9-0.6
			c0.9,0,1.6,0.3,2.1,0.8C96,148.5,96.3,149.2,96.3,150.1z M95,150c0-0.5-0.1-0.9-0.4-1.3c-0.3-0.3-0.6-0.5-1.1-0.5
			c-0.5,0-0.9,0.2-1.3,0.5c-0.4,0.3-0.7,0.8-0.9,1.4c-0.2,0.6-0.3,1.2-0.3,2c0,0.6,0.1,1,0.4,1.3c0.3,0.3,0.7,0.5,1.2,0.5
			c0.5,0,0.9-0.2,1.2-0.5c0.4-0.3,0.7-0.8,0.9-1.4C94.9,151.5,95,150.8,95,150z"/>
		<path class="st1" d="M102.3,147.2c0.6,0,1.1,0.2,1.5,0.7c0.4,0.5,0.5,1.1,0.5,1.9c0,1-0.2,1.9-0.5,2.7c-0.3,0.8-0.8,1.4-1.3,1.9
			c-0.5,0.4-1.2,0.7-1.9,0.7c-0.9,0-1.5-0.4-1.9-1.3h-0.1c-0.1,0.6-0.1,1-0.2,1.3l-0.7,3.2h-1.2l2.3-10.9h1l-0.2,1.4h0.1
			c0.4-0.5,0.9-0.9,1.3-1.2C101.5,147.3,101.9,147.2,102.3,147.2z M101.9,148.2c-0.4,0-0.9,0.2-1.3,0.6s-0.8,1-1,1.6
			c-0.3,0.7-0.4,1.3-0.4,2c0,0.5,0.1,0.8,0.4,1.1c0.2,0.3,0.6,0.4,1.1,0.4c0.4,0,0.9-0.2,1.2-0.6s0.7-0.9,0.9-1.6
			c0.2-0.7,0.3-1.4,0.3-2.1C103.1,148.7,102.7,148.2,101.9,148.2z"/>
		<path class="st1" d="M110.4,147.2c0.6,0,1.1,0.2,1.5,0.7c0.4,0.5,0.5,1.1,0.5,1.9c0,1-0.2,1.9-0.5,2.7c-0.3,0.8-0.8,1.4-1.3,1.9
			c-0.5,0.4-1.2,0.7-1.9,0.7c-0.9,0-1.5-0.4-1.9-1.3h-0.1c-0.1,0.6-0.1,1-0.2,1.3l-0.7,3.2h-1.2l2.3-10.9h1l-0.2,1.4h0.1
			c0.4-0.5,0.9-0.9,1.3-1.2C109.6,147.3,110,147.2,110.4,147.2z M110,148.2c-0.4,0-0.9,0.2-1.3,0.6s-0.8,1-1,1.6
			c-0.3,0.7-0.4,1.3-0.4,2c0,0.5,0.1,0.8,0.4,1.1c0.2,0.3,0.6,0.4,1.1,0.4c0.4,0,0.9-0.2,1.2-0.6s0.7-0.9,0.9-1.6
			c0.2-0.7,0.3-1.4,0.3-2.1C111.2,148.7,110.8,148.2,110,148.2z"/>
		<path class="st1" d="M114.8,154.8h-1.2l1.6-7.5h1.2L114.8,154.8z M115.5,145.4c0-0.3,0.1-0.5,0.2-0.6c0.2-0.2,0.4-0.3,0.6-0.3
			c0.4,0,0.6,0.2,0.6,0.6c0,0.3-0.1,0.5-0.2,0.7c-0.2,0.2-0.3,0.3-0.6,0.3c-0.2,0-0.4-0.1-0.5-0.2
			C115.5,145.8,115.5,145.6,115.5,145.4z"/>
		<path class="st1" d="M123,154.8h-1.2l1-4.7c0.1-0.5,0.1-0.8,0.1-1c0-0.3-0.1-0.5-0.2-0.7c-0.2-0.2-0.4-0.3-0.8-0.3
			c-0.4,0-0.8,0.1-1.1,0.4c-0.4,0.3-0.7,0.7-1,1.2c-0.3,0.5-0.5,1.1-0.7,1.8l-0.7,3.2h-1.2l1.6-7.5h1l-0.2,1.4h0.1
			c0.3-0.4,0.6-0.7,0.8-0.9s0.5-0.4,0.8-0.5c0.3-0.1,0.6-0.2,0.9-0.2c0.6,0,1,0.2,1.4,0.5c0.3,0.3,0.5,0.8,0.5,1.4
			c0,0.4-0.1,0.8-0.2,1.2L123,154.8z"/>
		<path class="st1" d="M127.5,158.2c-0.9,0-1.7-0.2-2.3-0.5v-1.1c0.3,0.2,0.6,0.3,1.1,0.4s0.8,0.2,1.1,0.2c0.6,0,1.1-0.1,1.4-0.4
			c0.4-0.3,0.6-0.8,0.8-1.4l0.3-1.4l0.1-0.5h-0.1c-0.4,0.5-0.8,0.9-1.2,1.2c-0.4,0.2-0.8,0.4-1.2,0.4c-0.6,0-1.1-0.2-1.5-0.7
			c-0.4-0.4-0.5-1.1-0.5-1.9c0-1,0.2-1.9,0.5-2.7c0.3-0.8,0.8-1.4,1.3-1.9c0.6-0.4,1.2-0.7,1.9-0.7c0.9,0,1.5,0.4,1.9,1.3h0.1
			l0.5-1.2h0.9l-1.7,7.9c-0.2,1-0.6,1.7-1.1,2.2C129.2,158,128.4,158.2,127.5,158.2z M128,153.9c0.4,0,0.8-0.2,1.3-0.6
			c0.4-0.4,0.8-1,1-1.6c0.3-0.7,0.4-1.3,0.4-2c0-1-0.5-1.5-1.4-1.5c-0.5,0-0.9,0.2-1.3,0.6c-0.4,0.4-0.7,0.9-0.9,1.6
			c-0.2,0.7-0.3,1.4-0.3,2.1C126.8,153.4,127.2,153.9,128,153.9z"/>
		<path class="st1" d="M141.7,152.7c0,0.7-0.3,1.3-0.8,1.7c-0.5,0.4-1.2,0.6-2.1,0.6c-0.8,0-1.5-0.2-2.1-0.5v-1.1
			c0.3,0.2,0.6,0.3,1,0.4c0.4,0.1,0.7,0.2,1.1,0.2c0.6,0,1-0.1,1.3-0.3c0.3-0.2,0.4-0.5,0.4-0.9c0-0.3-0.1-0.5-0.2-0.6
			c-0.2-0.2-0.5-0.4-1-0.7c-0.6-0.3-1-0.7-1.2-1c-0.2-0.3-0.4-0.7-0.4-1.1c0-0.6,0.2-1.2,0.7-1.5c0.5-0.4,1.1-0.6,1.9-0.6
			c0.8,0,1.5,0.2,2.3,0.5l-0.4,1c-0.2-0.1-0.5-0.2-0.8-0.3c-0.3-0.1-0.7-0.1-1.1-0.1c-0.4,0-0.7,0.1-1,0.3c-0.2,0.2-0.4,0.4-0.4,0.7
			c0,0.3,0.1,0.5,0.2,0.6c0.2,0.2,0.5,0.4,1,0.7c0.5,0.3,0.9,0.6,1.1,0.7c0.2,0.2,0.3,0.4,0.4,0.6
			C141.7,152.1,141.7,152.4,141.7,152.7z"/>
		<path class="st1" d="M146.1,155c-0.8,0-1.5-0.3-2-0.7c-0.5-0.5-0.7-1.2-0.7-2.1c0-0.9,0.2-1.7,0.5-2.5c0.3-0.8,0.8-1.4,1.4-1.8
			c0.6-0.4,1.2-0.7,1.9-0.7c0.7,0,1.2,0.2,1.6,0.5c0.4,0.3,0.5,0.7,0.5,1.3c0,0.8-0.4,1.5-1.1,1.9c-0.8,0.5-1.8,0.7-3.2,0.7h-0.2
			l0,0.5c0,0.6,0.1,1,0.4,1.4s0.7,0.5,1.3,0.5c0.3,0,0.7,0,1-0.2c0.3-0.1,0.7-0.2,1-0.4v1.1c-0.5,0.2-0.8,0.4-1.2,0.4
			C146.8,154.9,146.4,155,146.1,155z M147,148.2c-0.5,0-0.9,0.2-1.3,0.7c-0.4,0.4-0.7,1-0.9,1.7h0.1c1,0,1.8-0.1,2.3-0.4
			s0.8-0.6,0.8-1.2c0-0.2-0.1-0.4-0.2-0.6S147.4,148.2,147,148.2z"/>
		<path class="st1" d="M153.1,155c-0.9,0-1.6-0.2-2.1-0.7c-0.5-0.5-0.7-1.2-0.7-2.1c0-0.9,0.2-1.8,0.5-2.5c0.3-0.8,0.8-1.4,1.4-1.8
			c0.6-0.4,1.3-0.6,2-0.6c0.7,0,1.3,0.1,1.9,0.4l-0.3,1c-0.5-0.2-1-0.4-1.5-0.4c-0.5,0-1,0.2-1.4,0.5c-0.4,0.3-0.7,0.8-1,1.4
			c-0.2,0.6-0.3,1.3-0.3,2c0,0.6,0.1,1,0.4,1.3c0.3,0.3,0.7,0.5,1.2,0.5c0.3,0,0.6,0,0.9-0.1c0.3-0.1,0.6-0.2,0.9-0.3v1
			C154.5,154.8,153.8,155,153.1,155z"/>
		<path class="st1" d="M157.9,147.3h1.2l-1,4.7c-0.1,0.4-0.1,0.7-0.1,0.9c0,0.6,0.3,1,1,1c0.4,0,0.8-0.1,1.2-0.4
			c0.4-0.3,0.7-0.7,1-1.2c0.3-0.5,0.5-1.1,0.7-1.8l0.7-3.2h1.2l-1.6,7.5h-1l0.2-1.4h-0.1c-0.4,0.5-0.8,0.9-1.2,1.2
			c-0.4,0.2-0.8,0.4-1.3,0.4c-0.6,0-1-0.2-1.4-0.5c-0.3-0.3-0.5-0.8-0.5-1.4c0-0.3,0.1-0.7,0.2-1.2L157.9,147.3z"/>
		<path class="st1" d="M169.3,147.2c0.3,0,0.6,0,0.8,0.1l-0.3,1.1c-0.3-0.1-0.5-0.1-0.7-0.1c-0.4,0-0.8,0.1-1.2,0.4
			c-0.4,0.3-0.7,0.6-0.9,1.1c-0.3,0.5-0.5,1-0.6,1.6l-0.7,3.4h-1.2l1.6-7.5h1l-0.2,1.4h0.1c0.3-0.4,0.6-0.8,0.8-0.9
			c0.2-0.2,0.4-0.3,0.7-0.4C168.8,147.2,169,147.2,169.3,147.2z"/>
		<path class="st1" d="M171.3,154.8h-1.2l1.6-7.5h1.2L171.3,154.8z M172,145.4c0-0.3,0.1-0.5,0.2-0.6c0.2-0.2,0.4-0.3,0.6-0.3
			c0.4,0,0.6,0.2,0.6,0.6c0,0.3-0.1,0.5-0.2,0.7c-0.2,0.2-0.3,0.3-0.6,0.3c-0.2,0-0.4-0.1-0.5-0.2C172.1,145.8,172,145.6,172,145.4z
			"/>
		<path class="st1" d="M176.1,154c0.3,0,0.6-0.1,1-0.2v0.9c-0.1,0.1-0.3,0.1-0.6,0.2c-0.2,0-0.4,0.1-0.6,0.1c-0.6,0-1-0.1-1.3-0.4
			c-0.3-0.3-0.5-0.7-0.5-1.2c0-0.3,0-0.6,0.1-1l0.9-4.1h-1.2l0.1-0.6l1.3-0.5l0.9-1.6h0.7l-0.4,1.7h1.9l-0.2,0.9h-1.9l-0.9,4.1
			c-0.1,0.4-0.1,0.6-0.1,0.8c0,0.2,0.1,0.4,0.2,0.6C175.6,153.9,175.8,154,176.1,154z"/>
		<path class="st1" d="M178.6,147.3h1.2l0.5,3.7c0.1,0.3,0.1,0.8,0.1,1.3c0,0.5,0.1,1,0.1,1.5h0c0.1-0.3,0.3-0.7,0.5-1.2
			c0.2-0.5,0.4-0.9,0.6-1.2l2.2-4.1h1.3l-4.8,8.8c-0.4,0.8-0.8,1.3-1.3,1.6c-0.4,0.3-0.9,0.5-1.5,0.5c-0.4,0-0.7,0-1-0.1v-1
			c0.3,0.1,0.6,0.1,0.9,0.1c0.4,0,0.7-0.1,1-0.4c0.3-0.2,0.5-0.6,0.8-1l0.5-0.9L178.6,147.3z"/>
		<path class="st1" d="M185.6,154.3c0-0.3,0.1-0.6,0.3-0.8c0.2-0.2,0.5-0.3,0.8-0.3c0.2,0,0.4,0.1,0.5,0.2c0.1,0.1,0.2,0.3,0.2,0.6
			c0,0.3-0.1,0.6-0.3,0.8c-0.2,0.2-0.4,0.3-0.8,0.3c-0.2,0-0.4-0.1-0.5-0.2C185.6,154.7,185.6,154.5,185.6,154.3z M186.3,152
			c0.1-0.6,0.3-1.1,0.5-1.5c0.2-0.4,0.6-0.8,1.1-1.2c0.5-0.4,0.9-0.7,1.1-0.9c0.2-0.2,0.3-0.4,0.4-0.6c0.1-0.2,0.2-0.5,0.2-0.8
			c0-0.4-0.1-0.7-0.3-0.9c-0.2-0.2-0.6-0.3-1-0.3c-0.4,0-0.7,0.1-1,0.2s-0.7,0.3-1,0.4l-0.4-0.9c0.4-0.2,0.8-0.4,1.3-0.5
			c0.5-0.1,0.9-0.2,1.3-0.2c0.8,0,1.4,0.2,1.8,0.6c0.4,0.4,0.6,0.9,0.6,1.6c0,0.6-0.1,1.1-0.4,1.5c-0.3,0.5-0.8,1-1.6,1.5
			c-0.6,0.4-1,0.8-1.1,1c-0.2,0.2-0.3,0.6-0.4,1H186.3z"/>
		<path class="st1" d="M194.1,144.8l0.1,0.2c-0.2,0.4-0.4,0.9-0.8,1.5c-0.3,0.6-0.7,1.2-1.1,1.8h-0.9c0.6-1.4,1.1-2.5,1.4-3.4H194.1
			z M196.6,144.8l0.1,0.2c-0.4,0.9-1,2-1.9,3.3h-0.9c0.2-0.5,0.5-1.2,0.8-1.9c0.3-0.7,0.5-1.2,0.6-1.5H196.6z"/>
	</g>
	<rect x="49.9" y="164.2" class="st0" width="237.5" height="17.3"/>
	<circle class="st0" cx="301.5" cy="203.4" r="9.3"/>
	<circle class="st0" cx="268.6" cy="173.6" r="20.4"/>
</g>
</svg>