<!-- Generator: Adobe Illustrator 19.0.0, SVG Export Plug-In  -->
<svg version="1.1"
	 xmlns="http://www.w3.org/2000/svg" xmlns:xlink="http://www.w3.org/1999/xlink" xmlns:a="http://ns.adobe.com/AdobeSVGViewerExtensions/3.0/"
	 x="0px" y="0px" width="266.5px" height="194.4px" viewBox="0 0 266.5 194.4" style="enable-background:new 0 0 266.5 194.4;"
	 xml:space="preserve">
<style type="text/css">
	.st0{fill:#F99700;}
	.st1{fill:#FFFFFF;}
	.st2{fill:#F9CF00;}
	.st3{fill:#59B9C9;}
</style>
<defs>
</defs>
<circle class="st0" cx="18.5" cy="170.3" r="9.3"/>
<g>
	<circle class="st0" cx="46.5" cy="114.8" r="46.5"/>
	<circle class="st0" cx="119.6" cy="80.9" r="80.9"/>
	<circle class="st0" cx="175.9" cy="94.7" r="64.9"/>
	<circle class="st0" cx="234.5" cy="129.8" r="32"/>
	<g>
		<path class="st1" d="M50.1,64l0-0.1c0.4-0.8,0.9-1.9,1.7-3h0.9c-0.6,1.4-1,2.5-1.3,3.2H50.1z M52.5,64l-0.1-0.1
			c0.3-0.8,0.9-1.8,1.7-3H55c-0.6,1.5-1.1,2.5-1.3,3.2H52.5z"/>
		<path class="st1" d="M59.1,67.2H56l-1.5,2.9h-1.3l5-9.3h1.2l1.2,9.3h-1.2L59.1,67.2z M59,66.2l-0.2-1.9c-0.1-1-0.2-1.7-0.2-2.2
			c-0.1,0.3-0.3,0.7-0.4,1c-0.2,0.3-0.7,1.4-1.6,3.1H59z"/>
		<path class="st1" d="M66.2,63c0.5,0,0.8,0.1,1.1,0.4c0.3,0.3,0.4,0.7,0.5,1.1h0.1c0.7-1,1.5-1.5,2.4-1.5c0.5,0,1,0.1,1.3,0.4
			c0.3,0.3,0.4,0.7,0.4,1.3c0,0.4,0,0.8-0.1,1.1l-0.9,4.2h-1.2l0.9-4.4c0.1-0.4,0.1-0.7,0.1-0.9c0-0.3-0.1-0.5-0.2-0.6
			c-0.1-0.2-0.4-0.2-0.7-0.2c-0.3,0-0.7,0.1-1,0.4c-0.3,0.2-0.6,0.6-0.9,1c-0.3,0.5-0.4,1-0.6,1.6l-0.7,3.1h-1.1l0.9-4.4
			c0.1-0.4,0.1-0.7,0.1-0.9c0-0.6-0.3-0.9-0.8-0.9c-0.3,0-0.7,0.1-1,0.4s-0.6,0.6-0.9,1.1c-0.3,0.5-0.4,1-0.6,1.7l-0.6,3h-1.1l1.5-7
			H64l-0.1,1.3h0.1c0.3-0.4,0.5-0.7,0.7-0.8s0.4-0.3,0.7-0.4C65.6,63,65.9,63,66.2,63z"/>
		<path class="st1" d="M79,70.1h-3.3l0.1-0.6l1.1-0.3l1.6-7.5l-1-0.2l0.1-0.6h3.3l-0.1,0.6l-1.1,0.2l-1.6,7.5l1,0.3L79,70.1z"/>
		<path class="st1" d="M88.6,63c0.6,0,1.1,0.2,1.4,0.6c0.3,0.4,0.5,1,0.5,1.7c0,0.9-0.1,1.7-0.4,2.5s-0.7,1.3-1.2,1.7
			c-0.5,0.4-1.1,0.6-1.7,0.6c-0.8,0-1.4-0.4-1.8-1.2h-0.1c-0.1,0.6-0.1,1-0.2,1.2l-0.6,3h-1.1l2.1-10.1h0.9l-0.2,1.3h0.1
			c0.4-0.5,0.8-0.9,1.2-1.1C87.8,63.1,88.2,63,88.6,63z M88.2,63.9c-0.4,0-0.8,0.2-1.2,0.6s-0.7,0.9-1,1.5c-0.2,0.6-0.4,1.2-0.4,1.8
			c0,0.4,0.1,0.8,0.3,1c0.2,0.2,0.6,0.4,1,0.4c0.4,0,0.8-0.2,1.2-0.5c0.4-0.3,0.6-0.8,0.8-1.4c0.2-0.6,0.3-1.3,0.3-1.9
			C89.3,64.4,88.9,63.9,88.2,63.9z"/>
		<path class="st1" d="M93.6,70.2c-0.6,0-1-0.2-1.4-0.6c-0.3-0.4-0.5-1-0.5-1.8c0-0.9,0.1-1.7,0.4-2.4s0.7-1.3,1.2-1.8
			c0.5-0.4,1.1-0.6,1.7-0.6c0.4,0,0.7,0.1,1,0.3c0.3,0.2,0.5,0.5,0.7,0.9H97l0.4-1.1h0.9l-1.5,7h-0.9l0.2-1.3H96
			C95.3,69.7,94.5,70.2,93.6,70.2z M94,69.3c0.4,0,0.8-0.2,1.2-0.6c0.4-0.4,0.7-0.9,1-1.5c0.2-0.6,0.4-1.2,0.4-1.9
			c0-0.4-0.1-0.8-0.3-1s-0.5-0.4-0.9-0.4c-0.4,0-0.8,0.2-1.2,0.5c-0.4,0.4-0.7,0.8-0.9,1.4c-0.2,0.6-0.3,1.3-0.3,1.9
			c0,0.5,0.1,0.8,0.3,1.1C93.4,69.2,93.7,69.3,94,69.3z"/>
		<path class="st1" d="M99.1,63.1h1.2l0.4,3.4c0,0.3,0.1,0.7,0.1,1.2s0.1,1,0.1,1.4h0c0.1-0.3,0.3-0.7,0.5-1.1s0.4-0.8,0.5-1.1
			l2-3.8h1.2l-4.4,8.1c-0.4,0.7-0.8,1.2-1.2,1.5c-0.4,0.3-0.9,0.4-1.4,0.4c-0.3,0-0.6,0-0.9-0.1v-0.9c0.3,0.1,0.5,0.1,0.8,0.1
			c0.3,0,0.6-0.1,0.9-0.3s0.5-0.5,0.7-0.9l0.5-0.8L99.1,63.1z"/>
		<path class="st1" d="M106.1,70.1h-1.1l1.5-7h1.1L106.1,70.1z M106.7,61.4c0-0.2,0.1-0.4,0.2-0.6c0.1-0.2,0.3-0.2,0.6-0.2
			c0.4,0,0.6,0.2,0.6,0.6c0,0.3-0.1,0.5-0.2,0.6c-0.1,0.2-0.3,0.2-0.5,0.2c-0.2,0-0.3-0.1-0.4-0.2C106.8,61.7,106.7,61.5,106.7,61.4
			z"/>
		<path class="st1" d="M113.7,70.1h-1.1l0.9-4.4c0.1-0.4,0.1-0.7,0.1-0.9c0-0.3-0.1-0.5-0.2-0.6c-0.1-0.2-0.4-0.2-0.7-0.2
			c-0.4,0-0.7,0.1-1.1,0.4c-0.3,0.3-0.7,0.6-0.9,1.1c-0.3,0.5-0.5,1-0.6,1.7l-0.6,3h-1.1l1.5-7h0.9l-0.1,1.3h0.1
			c0.3-0.4,0.5-0.6,0.8-0.8s0.5-0.3,0.7-0.4c0.3-0.1,0.5-0.2,0.8-0.2c0.5,0,1,0.1,1.3,0.4c0.3,0.3,0.5,0.7,0.5,1.3
			c0,0.3,0,0.7-0.1,1.1L113.7,70.1z"/>
		<path class="st1" d="M117.9,73.2c-0.8,0-1.5-0.1-2.1-0.4v-1.1c0.3,0.2,0.6,0.3,1,0.4c0.4,0.1,0.7,0.2,1.1,0.2c0.6,0,1-0.1,1.3-0.4
			c0.3-0.3,0.6-0.7,0.7-1.3l0.3-1.3l0.1-0.4h-0.1c-0.4,0.5-0.8,0.9-1.1,1.1c-0.4,0.2-0.8,0.3-1.2,0.3c-0.6,0-1.1-0.2-1.4-0.6
			c-0.3-0.4-0.5-1-0.5-1.8c0-0.9,0.2-1.7,0.5-2.5c0.3-0.8,0.7-1.3,1.2-1.7c0.5-0.4,1.1-0.6,1.7-0.6c0.8,0,1.4,0.4,1.8,1.2h0.1
			l0.4-1.1h0.9l-1.6,7.4c-0.2,0.9-0.6,1.6-1.1,2.1S118.7,73.2,117.9,73.2z M118.3,69.3c0.4,0,0.8-0.2,1.2-0.6s0.7-0.9,1-1.5
			c0.2-0.6,0.4-1.2,0.4-1.8c0-0.9-0.4-1.4-1.3-1.4c-0.4,0-0.8,0.2-1.2,0.5c-0.4,0.4-0.6,0.8-0.8,1.5c-0.2,0.6-0.3,1.3-0.3,1.9
			C117.2,68.8,117.6,69.3,118.3,69.3z"/>
		<path class="st1" d="M128.9,69.3c0.3,0,0.6-0.1,0.9-0.2V70c-0.1,0.1-0.3,0.1-0.5,0.2c-0.2,0-0.4,0.1-0.6,0.1c-0.5,0-1-0.1-1.2-0.4
			s-0.4-0.6-0.4-1.1c0-0.3,0-0.6,0.1-0.9L128,64h-1.1l0.1-0.5l1.2-0.5l0.8-1.4h0.7l-0.3,1.6h1.8l-0.2,0.9h-1.7l-0.8,3.8
			c-0.1,0.3-0.1,0.6-0.1,0.8c0,0.2,0.1,0.4,0.2,0.5S128.7,69.3,128.9,69.3z"/>
		<path class="st1" d="M136.4,70.1h-1.1l0.9-4.4c0.1-0.4,0.1-0.7,0.1-0.9c0-0.6-0.3-0.9-0.9-0.9c-0.4,0-0.7,0.1-1.1,0.4
			c-0.3,0.3-0.7,0.6-0.9,1.1c-0.3,0.5-0.5,1-0.6,1.7l-0.6,3H131l2.1-9.9h1.1l-0.6,2.6c-0.1,0.3-0.1,0.5-0.2,0.8s-0.2,0.6-0.2,0.8
			h0.1c0.4-0.5,0.8-0.9,1.1-1.1c0.4-0.2,0.8-0.3,1.2-0.3c0.6,0,1,0.2,1.3,0.5s0.5,0.7,0.5,1.3c0,0.2,0,0.6-0.1,1.1L136.4,70.1z"/>
		<path class="st1" d="M141.3,70.2c-0.8,0-1.4-0.2-1.9-0.7c-0.4-0.5-0.7-1.1-0.7-1.9c0-0.8,0.2-1.6,0.5-2.3c0.3-0.7,0.7-1.3,1.3-1.7
			c0.5-0.4,1.1-0.6,1.8-0.6c0.7,0,1.2,0.1,1.5,0.4c0.3,0.3,0.5,0.7,0.5,1.2c0,0.8-0.4,1.4-1.1,1.8s-1.7,0.7-3,0.7H140l0,0.5
			c0,0.5,0.1,1,0.4,1.3s0.7,0.5,1.2,0.5c0.3,0,0.6,0,0.9-0.1c0.3-0.1,0.6-0.2,1-0.4v1c-0.4,0.2-0.8,0.3-1.1,0.4
			C142,70.2,141.7,70.2,141.3,70.2z M142.2,63.9c-0.4,0-0.8,0.2-1.2,0.6s-0.7,0.9-0.8,1.6h0.1c0.9,0,1.6-0.1,2.1-0.4
			c0.5-0.2,0.8-0.6,0.8-1.1c0-0.2-0.1-0.4-0.2-0.6C142.8,64,142.6,63.9,142.2,63.9z"/>
		<path class="st1" d="M151.6,70.2c-0.4,0-0.8-0.1-1.1-0.3c-0.3-0.2-0.5-0.5-0.7-0.9h-0.1l-0.4,1.1h-0.9l2.1-9.9h1.1l-0.5,2.3
			c-0.1,0.4-0.2,0.8-0.3,1.2c-0.1,0.4-0.2,0.6-0.2,0.7h0.1c0.4-0.5,0.8-0.9,1.2-1.1c0.4-0.2,0.7-0.3,1.1-0.3c0.6,0,1.1,0.2,1.4,0.6
			c0.3,0.4,0.5,1,0.5,1.7c0,0.9-0.1,1.7-0.4,2.4s-0.7,1.3-1.2,1.8C152.8,70,152.2,70.2,151.6,70.2z M152.7,63.9
			c-0.4,0-0.8,0.2-1.2,0.6c-0.4,0.4-0.7,0.9-1,1.5c-0.2,0.6-0.4,1.2-0.4,1.8c0,0.4,0.1,0.8,0.3,1c0.2,0.2,0.6,0.4,1,0.4
			c0.4,0,0.8-0.2,1.2-0.5c0.4-0.3,0.6-0.8,0.8-1.4c0.2-0.6,0.3-1.3,0.3-1.9C153.8,64.4,153.4,63.9,152.7,63.9z"/>
		<path class="st1" d="M158.7,70.2c-0.8,0-1.4-0.2-1.9-0.7c-0.4-0.5-0.7-1.1-0.7-1.9c0-0.8,0.2-1.6,0.5-2.3c0.3-0.7,0.7-1.3,1.3-1.7
			c0.5-0.4,1.1-0.6,1.8-0.6c0.7,0,1.2,0.1,1.5,0.4c0.3,0.3,0.5,0.7,0.5,1.2c0,0.8-0.4,1.4-1.1,1.8s-1.7,0.7-3,0.7h-0.2l0,0.5
			c0,0.5,0.1,1,0.4,1.3s0.7,0.5,1.2,0.5c0.3,0,0.6,0,0.9-0.1c0.3-0.1,0.6-0.2,1-0.4v1c-0.4,0.2-0.8,0.3-1.1,0.4
			C159.4,70.2,159.1,70.2,158.7,70.2z M159.6,63.9c-0.4,0-0.8,0.2-1.2,0.6s-0.7,0.9-0.8,1.6h0.1c0.9,0,1.6-0.1,2.1-0.4
			c0.5-0.2,0.8-0.6,0.8-1.1c0-0.2-0.1-0.4-0.2-0.6C160.2,64,159.9,63.9,159.6,63.9z"/>
		<path class="st1" d="M166.8,68.1c0,0.7-0.2,1.2-0.7,1.6c-0.5,0.4-1.1,0.6-2,0.6c-0.8,0-1.4-0.1-1.9-0.4v-1.1
			c0.3,0.2,0.6,0.3,0.9,0.4s0.7,0.2,1,0.2c0.5,0,0.9-0.1,1.2-0.3c0.3-0.2,0.4-0.5,0.4-0.8c0-0.2-0.1-0.4-0.2-0.6
			c-0.1-0.2-0.5-0.4-0.9-0.7c-0.5-0.3-0.9-0.6-1.2-0.9S163,65.4,163,65c0-0.6,0.2-1.1,0.6-1.4c0.4-0.4,1-0.5,1.7-0.5
			c0.7,0,1.4,0.2,2.1,0.5l-0.4,0.9c-0.2-0.1-0.5-0.2-0.8-0.3c-0.3-0.1-0.6-0.1-1-0.1c-0.4,0-0.7,0.1-0.9,0.3s-0.3,0.4-0.3,0.7
			c0,0.2,0.1,0.4,0.2,0.6s0.5,0.4,0.9,0.6c0.5,0.3,0.8,0.5,1,0.7s0.3,0.4,0.4,0.6C166.7,67.6,166.8,67.8,166.8,68.1z"/>
		<path class="st1" d="M170.3,69.3c0.3,0,0.6-0.1,0.9-0.2V70c-0.1,0.1-0.3,0.1-0.5,0.2c-0.2,0-0.4,0.1-0.6,0.1c-0.5,0-1-0.1-1.2-0.4
			s-0.4-0.6-0.4-1.1c0-0.3,0-0.6,0.1-0.9l0.8-3.8h-1.1l0.1-0.5l1.2-0.5l0.8-1.4h0.7l-0.3,1.6h1.8l-0.2,0.9h-1.7l-0.8,3.8
			c-0.1,0.3-0.1,0.6-0.1,0.8c0,0.2,0.1,0.4,0.2,0.5S170,69.3,170.3,69.3z"/>
		<path class="st1" d="M180.4,63c0.6,0,1.1,0.2,1.4,0.6c0.3,0.4,0.5,1,0.5,1.7c0,0.9-0.1,1.7-0.4,2.5s-0.7,1.3-1.2,1.7
			c-0.5,0.4-1.1,0.6-1.7,0.6c-0.8,0-1.4-0.4-1.8-1.2H177c-0.1,0.6-0.1,1-0.2,1.2l-0.6,3h-1.1l2.1-10.1h0.9l-0.2,1.3h0.1
			c0.4-0.5,0.8-0.9,1.2-1.1C179.6,63.1,180,63,180.4,63z M180,63.9c-0.4,0-0.8,0.2-1.2,0.6s-0.7,0.9-1,1.5c-0.2,0.6-0.4,1.2-0.4,1.8
			c0,0.4,0.1,0.8,0.3,1c0.2,0.2,0.6,0.4,1,0.4c0.4,0,0.8-0.2,1.2-0.5c0.4-0.3,0.6-0.8,0.8-1.4c0.2-0.6,0.3-1.3,0.3-1.9
			C181.1,64.4,180.7,63.9,180,63.9z"/>
		<path class="st1" d="M187.7,63c0.3,0,0.5,0,0.8,0.1l-0.2,1c-0.2-0.1-0.5-0.1-0.7-0.1c-0.4,0-0.7,0.1-1.1,0.4
			c-0.3,0.2-0.6,0.6-0.9,1s-0.4,0.9-0.5,1.5l-0.7,3.2h-1.2l1.5-7h0.9l-0.1,1.3h0.1c0.3-0.4,0.6-0.7,0.8-0.9s0.4-0.3,0.6-0.4
			C187.2,63,187.5,63,187.7,63z"/>
		<path class="st1" d="M189.6,70.1h-1.1l1.5-7h1.1L189.6,70.1z M190.2,61.4c0-0.2,0.1-0.4,0.2-0.6c0.1-0.2,0.3-0.2,0.6-0.2
			c0.4,0,0.6,0.2,0.6,0.6c0,0.3-0.1,0.5-0.2,0.6c-0.1,0.2-0.3,0.2-0.5,0.2c-0.2,0-0.3-0.1-0.4-0.2C190.3,61.7,190.2,61.5,190.2,61.4
			z"/>
		<path class="st1" d="M194.6,70.2c-0.8,0-1.5-0.2-1.9-0.7c-0.5-0.5-0.7-1.1-0.7-1.9c0-0.9,0.2-1.6,0.5-2.4s0.7-1.3,1.3-1.7
			c0.5-0.4,1.2-0.6,1.9-0.6c0.6,0,1.2,0.1,1.7,0.3l-0.3,1c-0.5-0.2-0.9-0.3-1.4-0.3c-0.5,0-0.9,0.2-1.3,0.5
			c-0.4,0.3-0.7,0.8-0.9,1.3s-0.3,1.2-0.3,1.8c0,0.5,0.1,0.9,0.4,1.2c0.3,0.3,0.6,0.4,1.1,0.4c0.3,0,0.6,0,0.9-0.1
			c0.3-0.1,0.5-0.2,0.8-0.3v1C195.9,70.1,195.3,70.2,194.6,70.2z"/>
		<path class="st1" d="M200.5,70.2c-0.8,0-1.4-0.2-1.9-0.7c-0.4-0.5-0.7-1.1-0.7-1.9c0-0.8,0.2-1.6,0.5-2.3s0.7-1.3,1.3-1.7
			c0.5-0.4,1.1-0.6,1.8-0.6c0.7,0,1.2,0.1,1.5,0.4c0.3,0.3,0.5,0.7,0.5,1.2c0,0.8-0.4,1.4-1.1,1.8s-1.7,0.7-3,0.7h-0.2l0,0.5
			c0,0.5,0.1,1,0.4,1.3s0.7,0.5,1.2,0.5c0.3,0,0.6,0,0.9-0.1c0.3-0.1,0.6-0.2,1-0.4v1c-0.4,0.2-0.8,0.3-1.1,0.4
			C201.2,70.2,200.8,70.2,200.5,70.2z M201.4,63.9c-0.4,0-0.8,0.2-1.2,0.6c-0.4,0.4-0.7,0.9-0.8,1.6h0.1c0.9,0,1.6-0.1,2.1-0.4
			c0.5-0.2,0.8-0.6,0.8-1.1c0-0.2-0.1-0.4-0.2-0.6C201.9,64,201.7,63.9,201.4,63.9z"/>
		<path class="st1" d="M204.8,69.6c0-0.3,0.1-0.6,0.3-0.8c0.2-0.2,0.4-0.3,0.7-0.3c0.2,0,0.3,0.1,0.5,0.2c0.1,0.1,0.2,0.3,0.2,0.5
			c0,0.3-0.1,0.6-0.3,0.8s-0.4,0.3-0.7,0.3c-0.2,0-0.4-0.1-0.5-0.2C204.9,70,204.8,69.8,204.8,69.6z M205.5,67.5
			c0.1-0.6,0.3-1,0.5-1.4s0.6-0.7,1-1.1c0.5-0.4,0.8-0.7,1-0.9c0.2-0.2,0.3-0.4,0.4-0.6c0.1-0.2,0.1-0.4,0.1-0.7
			c0-0.4-0.1-0.7-0.3-0.9c-0.2-0.2-0.5-0.3-0.9-0.3c-0.3,0-0.7,0.1-1,0.2c-0.3,0.1-0.6,0.2-0.9,0.4l-0.4-0.9
			c0.4-0.2,0.8-0.4,1.2-0.5c0.4-0.1,0.8-0.2,1.2-0.2c0.7,0,1.3,0.2,1.7,0.5c0.4,0.4,0.6,0.9,0.6,1.5c0,0.5-0.1,1-0.4,1.4
			c-0.3,0.4-0.8,0.9-1.5,1.4c-0.5,0.4-0.9,0.7-1.1,0.9c-0.2,0.2-0.3,0.6-0.4,1H205.5z"/>
		<path class="st1" d="M56.2,85.7h-1.1l0.9-4.3h-4.1L51,85.7h-1.2l2-9.3H53l-0.8,3.9h4.1l0.8-3.9h1.1L56.2,85.7z"/>
		<path class="st1" d="M64.8,81.3c0,0.8-0.2,1.6-0.5,2.3c-0.3,0.7-0.7,1.2-1.2,1.6s-1.1,0.6-1.8,0.6c-0.8,0-1.4-0.2-1.9-0.7
			c-0.5-0.5-0.7-1.1-0.7-2c0-0.8,0.2-1.6,0.5-2.3c0.3-0.7,0.7-1.3,1.3-1.6c0.5-0.4,1.1-0.6,1.8-0.6c0.8,0,1.4,0.2,1.9,0.7
			C64.6,79.8,64.8,80.5,64.8,81.3z M63.7,81.2c0-0.5-0.1-0.9-0.4-1.2s-0.6-0.4-1-0.4c-0.4,0-0.9,0.2-1.2,0.5
			c-0.4,0.3-0.6,0.7-0.8,1.3c-0.2,0.6-0.3,1.2-0.3,1.8c0,0.5,0.1,1,0.4,1.3s0.6,0.4,1.1,0.4c0.4,0,0.8-0.2,1.2-0.5
			c0.3-0.3,0.6-0.7,0.8-1.3C63.6,82.5,63.7,81.9,63.7,81.2z"/>
		<path class="st1" d="M70.5,79.8l-0.3,0.8l-0.5,1.2l-1.8,3.9h-1.4l-0.3-7h1.1l0.1,4.4c0,0.3,0,0.8-0.1,1.6h0.1
			c0-0.1,0.2-0.4,0.3-0.8c0.2-0.4,0.3-0.8,0.5-1.1s0.8-1.7,1.9-4.1h1.2l0.2,3.7l0,1.6v0.4l0,0.3h0.1c0.2-0.7,0.6-1.5,1-2.5l1.5-3.4
			h1.2l-3.2,7h-1.4l-0.2-3.8l0-0.9L70.5,79.8L70.5,79.8z"/>
		<path class="st1" d="M82.9,83.7c0,0.7-0.2,1.2-0.7,1.6c-0.5,0.4-1.1,0.6-2,0.6c-0.8,0-1.4-0.1-1.9-0.4v-1.1
			c0.3,0.2,0.6,0.3,0.9,0.4s0.7,0.2,1,0.2c0.5,0,0.9-0.1,1.2-0.3c0.3-0.2,0.4-0.5,0.4-0.8c0-0.2-0.1-0.4-0.2-0.6
			c-0.1-0.2-0.5-0.4-0.9-0.7c-0.5-0.3-0.9-0.6-1.2-0.9s-0.3-0.7-0.3-1.1c0-0.6,0.2-1.1,0.6-1.4c0.4-0.4,1-0.5,1.7-0.5
			c0.7,0,1.4,0.2,2.1,0.5L83.2,80c-0.2-0.1-0.5-0.2-0.8-0.3s-0.6-0.1-1-0.1c-0.4,0-0.7,0.1-0.9,0.3s-0.3,0.4-0.3,0.7
			c0,0.2,0.1,0.4,0.2,0.6s0.5,0.4,0.9,0.6c0.5,0.3,0.8,0.5,1,0.7s0.3,0.4,0.4,0.6C82.9,83.2,82.9,83.4,82.9,83.7z"/>
		<path class="st1" d="M85.6,78.7h1.2l-0.9,4.4c-0.1,0.4-0.1,0.7-0.1,0.9c0,0.6,0.3,0.9,0.9,0.9c0.4,0,0.7-0.1,1.1-0.4
			c0.3-0.3,0.7-0.6,0.9-1.1c0.3-0.5,0.5-1,0.6-1.7l0.6-3H91l-1.5,7h-0.9l0.1-1.3h-0.1c-0.4,0.5-0.8,0.9-1.1,1.1
			c-0.4,0.2-0.8,0.3-1.2,0.3c-0.5,0-1-0.2-1.3-0.5s-0.5-0.7-0.5-1.3c0-0.3,0-0.6,0.1-1.1L85.6,78.7z"/>
		<path class="st1" d="M96.2,78.6c0.3,0,0.5,0,0.8,0.1l-0.2,1c-0.2-0.1-0.5-0.1-0.7-0.1c-0.4,0-0.7,0.1-1.1,0.4
			c-0.3,0.2-0.6,0.6-0.9,1s-0.4,0.9-0.5,1.5l-0.7,3.2h-1.2l1.5-7h0.9L94,80h0.1c0.3-0.4,0.6-0.7,0.8-0.9s0.4-0.3,0.6-0.4
			C95.7,78.6,95.9,78.6,96.2,78.6z"/>
		<path class="st1" d="M100,85.8c-0.8,0-1.4-0.2-1.9-0.7c-0.4-0.5-0.7-1.1-0.7-1.9c0-0.8,0.2-1.6,0.5-2.3c0.3-0.7,0.7-1.3,1.3-1.7
			c0.5-0.4,1.1-0.6,1.8-0.6c0.7,0,1.2,0.1,1.5,0.4c0.3,0.3,0.5,0.7,0.5,1.2c0,0.8-0.4,1.4-1.1,1.8s-1.7,0.7-3,0.7h-0.2l0,0.5
			c0,0.5,0.1,1,0.4,1.3s0.7,0.5,1.2,0.5c0.3,0,0.6,0,0.9-0.1c0.3-0.1,0.6-0.2,1-0.4v1c-0.4,0.2-0.8,0.3-1.1,0.4
			C100.7,85.8,100.4,85.8,100,85.8z M100.9,79.5c-0.4,0-0.8,0.2-1.2,0.6s-0.7,0.9-0.8,1.6h0.1c0.9,0,1.6-0.1,2.1-0.4
			c0.5-0.2,0.8-0.6,0.8-1.1c0-0.2-0.1-0.4-0.2-0.6C101.5,79.6,101.2,79.5,100.9,79.5z"/>
		<path class="st1" d="M109.2,85.8c-0.6,0-1-0.2-1.4-0.6c-0.3-0.4-0.5-1-0.5-1.8c0-0.9,0.2-1.7,0.4-2.4c0.3-0.8,0.7-1.3,1.2-1.8
			c0.5-0.4,1.1-0.6,1.7-0.6c0.4,0,0.7,0.1,1,0.3c0.3,0.2,0.5,0.5,0.7,0.9h0.1l0.4-1.1h0.9l-1.5,7h-0.9l0.2-1.3h-0.1
			C110.9,85.3,110.1,85.8,109.2,85.8z M109.6,84.9c0.4,0,0.8-0.2,1.2-0.6s0.7-0.9,1-1.5c0.2-0.6,0.4-1.2,0.4-1.9
			c0-0.4-0.1-0.8-0.3-1s-0.5-0.4-0.9-0.4c-0.4,0-0.8,0.2-1.2,0.5c-0.4,0.4-0.7,0.8-0.9,1.4c-0.2,0.6-0.3,1.3-0.3,1.9
			c0,0.5,0.1,0.8,0.3,1.1C109,84.8,109.3,84.9,109.6,84.9z"/>
		<path class="st1" d="M119,78.6c0.5,0,0.8,0.1,1.1,0.4c0.3,0.3,0.4,0.7,0.5,1.1h0.1c0.7-1,1.5-1.5,2.4-1.5c0.5,0,1,0.1,1.3,0.4
			c0.3,0.3,0.4,0.7,0.4,1.3c0,0.4,0,0.8-0.1,1.1l-0.9,4.2h-1.2l0.9-4.4c0.1-0.4,0.1-0.7,0.1-0.9c0-0.3-0.1-0.5-0.2-0.6
			c-0.1-0.2-0.4-0.2-0.7-0.2c-0.3,0-0.7,0.1-1,0.4c-0.3,0.2-0.6,0.6-0.9,1c-0.3,0.5-0.4,1-0.6,1.6l-0.7,3.1h-1.1l0.9-4.4
			c0.1-0.4,0.1-0.7,0.1-0.9c0-0.6-0.3-0.9-0.8-0.9c-0.3,0-0.7,0.1-1,0.4s-0.6,0.6-0.9,1.1s-0.4,1-0.6,1.7l-0.6,3h-1.2l1.5-7h0.9
			l-0.1,1.3h0.1c0.3-0.4,0.5-0.7,0.7-0.8c0.2-0.2,0.4-0.3,0.7-0.4C118.5,78.6,118.8,78.6,119,78.6z"/>
		<path class="st1" d="M131.8,85.7h-3.3l0.1-0.6l1.1-0.3l1.6-7.5l-1-0.2l0.1-0.6h3.3l-0.1,0.6l-1.1,0.2l-1.6,7.5l1,0.3L131.8,85.7z"
			/>
		<path class="st1" d="M139,84.9c0.3,0,0.6-0.1,0.9-0.2v0.9c-0.1,0.1-0.3,0.1-0.5,0.2c-0.2,0-0.4,0.1-0.6,0.1c-0.5,0-1-0.1-1.2-0.4
			s-0.4-0.6-0.4-1.1c0-0.3,0-0.6,0.1-0.9l0.8-3.8H137l0.1-0.5l1.2-0.5l0.8-1.4h0.7l-0.3,1.6h1.8l-0.2,0.9h-1.7l-0.8,3.8
			c-0.1,0.3-0.1,0.6-0.1,0.8c0,0.2,0.1,0.4,0.2,0.5S138.8,84.9,139,84.9z"/>
		<path class="st1" d="M146.5,85.7h-1.1l0.9-4.4c0.1-0.4,0.1-0.7,0.1-0.9c0-0.6-0.3-0.9-0.9-0.9c-0.4,0-0.7,0.1-1.1,0.4
			c-0.3,0.3-0.7,0.6-0.9,1.1c-0.3,0.5-0.5,1-0.6,1.7l-0.6,3h-1.2l2.1-9.9h1.1l-0.6,2.6c-0.1,0.3-0.1,0.5-0.2,0.8s-0.1,0.6-0.2,0.8
			h0.1c0.4-0.5,0.8-0.9,1.1-1.1c0.4-0.2,0.8-0.3,1.2-0.3c0.6,0,1,0.2,1.3,0.5s0.5,0.7,0.5,1.3c0,0.2,0,0.6-0.1,1.1L146.5,85.7z"/>
		<path class="st1" d="M150.8,85.8c-0.6,0-1-0.2-1.4-0.6c-0.3-0.4-0.5-1-0.5-1.8c0-0.9,0.2-1.7,0.4-2.4c0.3-0.8,0.7-1.3,1.2-1.8
			c0.5-0.4,1.1-0.6,1.7-0.6c0.4,0,0.7,0.1,1,0.3c0.3,0.2,0.5,0.5,0.7,0.9h0.1l0.4-1.1h0.9l-1.5,7h-0.9l0.2-1.3h-0.1
			C152.4,85.3,151.6,85.8,150.8,85.8z M151.2,84.9c0.4,0,0.8-0.2,1.2-0.6s0.7-0.9,1-1.5c0.2-0.6,0.4-1.2,0.4-1.9
			c0-0.4-0.1-0.8-0.3-1s-0.5-0.4-0.9-0.4c-0.4,0-0.8,0.2-1.2,0.5c-0.4,0.4-0.7,0.8-0.9,1.4c-0.2,0.6-0.3,1.3-0.3,1.9
			c0,0.5,0.1,0.8,0.3,1.1C150.6,84.8,150.8,84.9,151.2,84.9z"/>
		<path class="st1" d="M158.3,84.9c0.3,0,0.6-0.1,0.9-0.2v0.9c-0.1,0.1-0.3,0.1-0.5,0.2c-0.2,0-0.4,0.1-0.6,0.1
			c-0.5,0-1-0.1-1.2-0.4s-0.4-0.6-0.4-1.1c0-0.3,0-0.6,0.1-0.9l0.8-3.8h-1.1l0.1-0.5l1.2-0.5l0.8-1.4h0.7l-0.3,1.6h1.8l-0.2,0.9
			h-1.7l-0.8,3.8c-0.1,0.3-0.1,0.6-0.1,0.8c0,0.2,0.1,0.4,0.2,0.5S158,84.9,158.3,84.9z"/>
		<path class="st1" d="M165.9,84.9c0.3,0,0.6-0.1,0.9-0.2v0.9c-0.1,0.1-0.3,0.1-0.5,0.2c-0.2,0-0.4,0.1-0.6,0.1
			c-0.5,0-1-0.1-1.2-0.4s-0.4-0.6-0.4-1.1c0-0.3,0-0.6,0.1-0.9l0.8-3.8h-1.1l0.1-0.5l1.2-0.5l0.8-1.4h0.7l-0.3,1.6h1.8l-0.2,0.9
			h-1.7l-0.8,3.8c-0.1,0.3-0.1,0.6-0.1,0.8c0,0.2,0.1,0.4,0.2,0.5S165.7,84.9,165.9,84.9z"/>
		<path class="st1" d="M173.4,85.7h-1.1l0.9-4.4c0.1-0.4,0.1-0.7,0.1-0.9c0-0.6-0.3-0.9-0.9-0.9c-0.4,0-0.7,0.1-1.1,0.4
			c-0.3,0.3-0.7,0.6-0.9,1.1c-0.3,0.5-0.5,1-0.6,1.7l-0.6,3H168l2.1-9.9h1.1l-0.6,2.6c-0.1,0.3-0.1,0.5-0.2,0.8s-0.1,0.6-0.2,0.8
			h0.1c0.4-0.5,0.8-0.9,1.1-1.1c0.4-0.2,0.8-0.3,1.2-0.3c0.6,0,1,0.2,1.3,0.5s0.5,0.7,0.5,1.3c0,0.2,0,0.6-0.1,1.1L173.4,85.7z"/>
		<path class="st1" d="M176.7,85.7h-1.1l1.5-7h1.1L176.7,85.7z M177.4,77c0-0.2,0.1-0.4,0.2-0.6c0.1-0.2,0.3-0.2,0.6-0.2
			c0.4,0,0.6,0.2,0.6,0.6c0,0.3-0.1,0.5-0.2,0.6c-0.1,0.2-0.3,0.2-0.5,0.2c-0.2,0-0.3-0.1-0.4-0.2C177.4,77.3,177.4,77.1,177.4,77z"
			/>
		<path class="st1" d="M183.3,83.7c0,0.7-0.2,1.2-0.7,1.6c-0.5,0.4-1.1,0.6-2,0.6c-0.8,0-1.4-0.1-1.9-0.4v-1.1
			c0.3,0.2,0.6,0.3,0.9,0.4s0.7,0.2,1,0.2c0.5,0,0.9-0.1,1.2-0.3c0.3-0.2,0.4-0.5,0.4-0.8c0-0.2-0.1-0.4-0.2-0.6
			c-0.1-0.2-0.5-0.4-0.9-0.7c-0.5-0.3-0.9-0.6-1.2-0.9s-0.3-0.7-0.3-1.1c0-0.6,0.2-1.1,0.6-1.4c0.4-0.4,1-0.5,1.7-0.5
			c0.7,0,1.4,0.2,2.1,0.5l-0.4,0.9c-0.2-0.1-0.5-0.2-0.8-0.3s-0.6-0.1-1-0.1c-0.4,0-0.7,0.1-0.9,0.3s-0.3,0.4-0.3,0.7
			c0,0.2,0.1,0.4,0.2,0.6s0.5,0.4,0.9,0.6c0.5,0.3,0.8,0.5,1,0.7s0.3,0.4,0.4,0.6C183.2,83.2,183.3,83.4,183.3,83.7z"/>
		<path class="st1" d="M189.1,85.7h-1.2l1.5-7h1.1L189.1,85.7z M189.7,77c0-0.2,0.1-0.4,0.2-0.6c0.1-0.2,0.3-0.2,0.6-0.2
			c0.4,0,0.6,0.2,0.6,0.6c0,0.3-0.1,0.5-0.2,0.6c-0.1,0.2-0.3,0.2-0.5,0.2c-0.2,0-0.3-0.1-0.4-0.2C189.8,77.3,189.7,77.1,189.7,77z"
			/>
		<path class="st1" d="M195.6,83.7c0,0.7-0.2,1.2-0.7,1.6c-0.5,0.4-1.1,0.6-2,0.6c-0.8,0-1.4-0.1-1.9-0.4v-1.1
			c0.3,0.2,0.6,0.3,0.9,0.4c0.3,0.1,0.7,0.2,1,0.2c0.5,0,0.9-0.1,1.2-0.3c0.3-0.2,0.4-0.5,0.4-0.8c0-0.2-0.1-0.4-0.2-0.6
			s-0.5-0.4-0.9-0.7c-0.5-0.3-0.9-0.6-1.2-0.9s-0.3-0.7-0.3-1.1c0-0.6,0.2-1.1,0.6-1.4c0.4-0.4,1-0.5,1.7-0.5c0.7,0,1.4,0.2,2.1,0.5
			l-0.4,0.9c-0.2-0.1-0.5-0.2-0.8-0.3s-0.6-0.1-1-0.1c-0.4,0-0.7,0.1-0.9,0.3c-0.2,0.2-0.3,0.4-0.3,0.7c0,0.2,0.1,0.4,0.2,0.6
			s0.5,0.4,0.9,0.6c0.5,0.3,0.8,0.5,1,0.7s0.3,0.4,0.4,0.6S195.6,83.4,195.6,83.7z"/>
		<path class="st1" d="M202.3,85.7h-1.1l0.9-4.4c0.1-0.4,0.1-0.7,0.1-0.9c0-0.3-0.1-0.5-0.2-0.6c-0.1-0.2-0.4-0.2-0.7-0.2
			c-0.4,0-0.7,0.1-1.1,0.4c-0.3,0.3-0.7,0.6-0.9,1.1c-0.3,0.5-0.5,1-0.6,1.7l-0.6,3h-1.2l1.5-7h0.9l-0.1,1.3h0.1
			c0.3-0.4,0.5-0.6,0.8-0.8s0.5-0.3,0.7-0.4c0.3-0.1,0.5-0.2,0.8-0.2c0.5,0,1,0.1,1.3,0.4c0.3,0.3,0.5,0.7,0.5,1.3
			c0,0.3,0,0.7-0.1,1.1L202.3,85.7z"/>
		<path class="st1" d="M207.3,76.4l0.1,0.1c-0.2,0.4-0.4,0.8-0.7,1.4c-0.3,0.5-0.6,1.1-1,1.7h-0.9c0.6-1.3,1-2.3,1.3-3.2H207.3z"/>
		<path class="st1" d="M208.8,84.9c0.3,0,0.6-0.1,0.9-0.2v0.9c-0.1,0.1-0.3,0.1-0.5,0.2c-0.2,0-0.4,0.1-0.6,0.1
			c-0.5,0-1-0.1-1.2-0.4s-0.4-0.6-0.4-1.1c0-0.3,0-0.6,0.1-0.9l0.8-3.8h-1.1l0.1-0.5l1.2-0.5l0.8-1.4h0.7l-0.3,1.6h1.8l-0.2,0.9
			h-1.7l-0.8,3.8c-0.1,0.3-0.1,0.6-0.1,0.8c0,0.2,0.1,0.4,0.2,0.5S208.6,84.9,208.8,84.9z"/>
		<path class="st1" d="M216.5,85.8c-0.6,0-1-0.2-1.4-0.6c-0.3-0.4-0.5-1-0.5-1.8c0-0.9,0.1-1.7,0.4-2.4s0.7-1.3,1.2-1.8
			s1.1-0.6,1.7-0.6c0.4,0,0.7,0.1,1,0.3c0.3,0.2,0.5,0.5,0.7,0.9h0.1l0.4-1.1h0.9l-1.5,7h-0.9l0.2-1.3h-0.1
			C218.1,85.3,217.3,85.8,216.5,85.8z M216.8,84.9c0.4,0,0.8-0.2,1.2-0.6c0.4-0.4,0.7-0.9,1-1.5c0.2-0.6,0.4-1.2,0.4-1.9
			c0-0.4-0.1-0.8-0.3-1s-0.5-0.4-0.9-0.4c-0.4,0-0.8,0.2-1.2,0.5c-0.4,0.4-0.7,0.8-0.9,1.4c-0.2,0.6-0.3,1.3-0.3,1.9
			c0,0.5,0.1,0.8,0.3,1.1C216.2,84.8,216.5,84.9,216.8,84.9z"/>
		<path class="st1" d="M54,99.3c0,0.7-0.2,1.2-0.7,1.6c-0.5,0.4-1.1,0.6-2,0.6c-0.8,0-1.4-0.1-1.9-0.4v-1.1c0.3,0.2,0.6,0.3,0.9,0.4
			c0.3,0.1,0.7,0.2,1,0.2c0.5,0,0.9-0.1,1.2-0.3c0.3-0.2,0.4-0.5,0.4-0.8c0-0.2-0.1-0.4-0.2-0.6s-0.5-0.4-0.9-0.7
			c-0.5-0.3-0.9-0.6-1.2-0.9s-0.3-0.7-0.3-1.1c0-0.6,0.2-1.1,0.6-1.4c0.4-0.4,1-0.5,1.7-0.5c0.7,0,1.4,0.2,2.1,0.5l-0.4,0.9
			c-0.2-0.1-0.5-0.2-0.8-0.3s-0.6-0.1-1-0.1c-0.4,0-0.7,0.1-0.9,0.3c-0.2,0.2-0.3,0.4-0.3,0.7c0,0.2,0.1,0.4,0.2,0.6
			s0.5,0.4,0.9,0.6c0.5,0.3,0.8,0.5,1,0.7s0.3,0.4,0.4,0.6S54,99,54,99.3z"/>
		<path class="st1" d="M58.1,101.4c-0.8,0-1.5-0.2-1.9-0.7c-0.5-0.5-0.7-1.1-0.7-1.9c0-0.9,0.2-1.6,0.5-2.4s0.7-1.3,1.3-1.7
			c0.5-0.4,1.2-0.6,1.9-0.6c0.6,0,1.2,0.1,1.7,0.3l-0.3,1c-0.5-0.2-0.9-0.3-1.4-0.3c-0.5,0-0.9,0.2-1.3,0.5C57.5,96,57.2,96.4,57,97
			s-0.3,1.2-0.3,1.8c0,0.5,0.1,0.9,0.4,1.2c0.3,0.3,0.6,0.4,1.1,0.4c0.3,0,0.6,0,0.9-0.1c0.3-0.1,0.5-0.2,0.8-0.3v1
			C59.4,101.3,58.8,101.4,58.1,101.4z"/>
		<path class="st1" d="M63.3,101.4c-0.6,0-1-0.2-1.4-0.6c-0.3-0.4-0.5-1-0.5-1.8c0-0.9,0.2-1.7,0.4-2.4c0.3-0.8,0.7-1.3,1.2-1.8
			c0.5-0.4,1.1-0.6,1.7-0.6c0.4,0,0.7,0.1,1,0.3c0.3,0.2,0.5,0.5,0.7,0.9h0.1l0.4-1.1h0.9l-1.5,7h-0.9l0.2-1.3h-0.1
			C64.9,100.9,64.1,101.4,63.3,101.4z M63.7,100.5c0.4,0,0.8-0.2,1.2-0.6s0.7-0.9,1-1.5c0.2-0.6,0.4-1.2,0.4-1.9
			c0-0.4-0.1-0.8-0.3-1s-0.5-0.4-0.9-0.4c-0.4,0-0.8,0.2-1.2,0.5c-0.4,0.4-0.7,0.8-0.9,1.4c-0.2,0.6-0.3,1.3-0.3,1.9
			c0,0.5,0.1,0.8,0.3,1.1C63.1,100.4,63.3,100.5,63.7,100.5z"/>
		<path class="st1" d="M73.1,94.2c0.5,0,0.8,0.1,1.1,0.4c0.3,0.3,0.4,0.7,0.5,1.1h0.1c0.7-1,1.5-1.5,2.4-1.5c0.5,0,1,0.1,1.3,0.4
			c0.3,0.3,0.4,0.7,0.4,1.3c0,0.4,0,0.8-0.1,1.1l-0.9,4.2h-1.2l0.9-4.4c0.1-0.4,0.1-0.7,0.1-0.9c0-0.3-0.1-0.5-0.2-0.6
			c-0.1-0.2-0.4-0.2-0.7-0.2c-0.3,0-0.7,0.1-1,0.4c-0.3,0.2-0.6,0.6-0.9,1c-0.3,0.5-0.4,1-0.6,1.6l-0.7,3.1h-1.1l0.9-4.4
			c0.1-0.4,0.1-0.7,0.1-0.9c0-0.6-0.3-0.9-0.8-0.9c-0.3,0-0.7,0.1-1,0.4s-0.6,0.6-0.9,1.1s-0.4,1-0.6,1.7l-0.6,3h-1.1l1.5-7H71
			l-0.1,1.3h0.1c0.3-0.4,0.5-0.7,0.7-0.8s0.4-0.3,0.7-0.4C72.6,94.2,72.8,94.2,73.1,94.2z"/>
		<path class="st1" d="M80.6,100.8c0-0.3,0.1-0.6,0.3-0.8c0.2-0.2,0.4-0.3,0.7-0.3c0.2,0,0.3,0.1,0.5,0.2c0.1,0.1,0.2,0.3,0.2,0.5
			c0,0.3-0.1,0.6-0.3,0.8c-0.2,0.2-0.4,0.3-0.7,0.3c-0.2,0-0.4-0.1-0.5-0.2C80.6,101.2,80.6,101,80.6,100.8z M81.2,98.7
			c0.1-0.6,0.3-1,0.5-1.4c0.2-0.4,0.6-0.7,1-1.1c0.5-0.4,0.8-0.7,1-0.9s0.3-0.4,0.4-0.6s0.1-0.4,0.1-0.7c0-0.4-0.1-0.7-0.3-0.9
			c-0.2-0.2-0.5-0.3-0.9-0.3c-0.3,0-0.7,0.1-1,0.2c-0.3,0.1-0.6,0.2-0.9,0.4l-0.4-0.9c0.4-0.2,0.8-0.4,1.2-0.5
			c0.4-0.1,0.8-0.2,1.2-0.2c0.7,0,1.3,0.2,1.7,0.5c0.4,0.4,0.6,0.9,0.6,1.5c0,0.5-0.1,1-0.4,1.4c-0.3,0.4-0.8,0.9-1.5,1.4
			c-0.5,0.4-0.9,0.7-1.1,0.9s-0.3,0.6-0.4,1H81.2z"/>
		<path class="st1" d="M91.5,101.3h-3.3l0.1-0.6l1.1-0.3l1.6-7.5l-1-0.2l0.1-0.6h3.3l-0.1,0.6l-1.1,0.2l-1.6,7.5l1,0.3L91.5,101.3z"
			/>
		<path class="st1" d="M97.5,99.3c0,0.7-0.2,1.2-0.7,1.6c-0.5,0.4-1.1,0.6-2,0.6c-0.8,0-1.4-0.1-1.9-0.4v-1.1
			c0.3,0.2,0.6,0.3,0.9,0.4s0.7,0.2,1,0.2c0.5,0,0.9-0.1,1.2-0.3c0.3-0.2,0.4-0.5,0.4-0.8c0-0.2-0.1-0.4-0.2-0.6
			c-0.1-0.2-0.5-0.4-0.9-0.7c-0.5-0.3-0.9-0.6-1.2-0.9s-0.3-0.7-0.3-1.1c0-0.6,0.2-1.1,0.6-1.4c0.4-0.4,1-0.5,1.7-0.5
			c0.7,0,1.4,0.2,2.1,0.5l-0.4,0.9c-0.2-0.1-0.5-0.2-0.8-0.3s-0.6-0.1-1-0.1c-0.4,0-0.7,0.1-0.9,0.3s-0.3,0.4-0.3,0.7
			c0,0.2,0.1,0.4,0.2,0.6s0.5,0.4,0.9,0.6c0.5,0.3,0.8,0.5,1,0.7s0.3,0.4,0.4,0.6C97.4,98.8,97.5,99,97.5,99.3z"/>
		<path class="st1" d="M104.3,100.5c0.3,0,0.6-0.1,0.9-0.2v0.9c-0.1,0.1-0.3,0.1-0.5,0.2c-0.2,0-0.4,0.1-0.6,0.1
			c-0.5,0-1-0.1-1.2-0.4s-0.4-0.6-0.4-1.1c0-0.3,0-0.6,0.1-0.9l0.8-3.8h-1.1l0.1-0.5l1.2-0.5l0.8-1.4h0.7l-0.3,1.6h1.8l-0.2,0.9
			h-1.7l-0.8,3.8c-0.1,0.3-0.1,0.6-0.1,0.8c0,0.2,0.1,0.4,0.2,0.5S104.1,100.5,104.3,100.5z"/>
		<path class="st1" d="M111.8,101.3h-1.1l0.9-4.4c0.1-0.4,0.1-0.7,0.1-0.9c0-0.6-0.3-0.9-0.9-0.9c-0.4,0-0.7,0.1-1.1,0.4
			c-0.3,0.3-0.7,0.6-0.9,1.1c-0.3,0.5-0.5,1-0.6,1.7l-0.6,3h-1.1l2.1-9.9h1.1l-0.6,2.6c-0.1,0.3-0.1,0.5-0.2,0.8s-0.2,0.6-0.2,0.8
			h0.1c0.4-0.5,0.8-0.9,1.1-1.1c0.4-0.2,0.8-0.3,1.2-0.3c0.6,0,1,0.2,1.3,0.5s0.5,0.7,0.5,1.3c0,0.2,0,0.6-0.1,1.1L111.8,101.3z"/>
		<path class="st1" d="M115.1,101.3h-1.2l1.5-7h1.1L115.1,101.3z M115.7,92.6c0-0.2,0.1-0.4,0.2-0.6c0.1-0.2,0.3-0.2,0.6-0.2
			c0.4,0,0.6,0.2,0.6,0.6c0,0.3-0.1,0.5-0.2,0.6c-0.1,0.2-0.3,0.2-0.5,0.2c-0.2,0-0.3-0.1-0.4-0.2C115.8,92.9,115.7,92.7,115.7,92.6
			z"/>
		<path class="st1" d="M121.6,99.3c0,0.7-0.2,1.2-0.7,1.6c-0.5,0.4-1.1,0.6-2,0.6c-0.8,0-1.4-0.1-1.9-0.4v-1.1
			c0.3,0.2,0.6,0.3,0.9,0.4c0.3,0.1,0.7,0.2,1,0.2c0.5,0,0.9-0.1,1.2-0.3c0.3-0.2,0.4-0.5,0.4-0.8c0-0.2-0.1-0.4-0.2-0.6
			s-0.5-0.4-0.9-0.7c-0.5-0.3-0.9-0.6-1.2-0.9s-0.3-0.7-0.3-1.1c0-0.6,0.2-1.1,0.6-1.4c0.4-0.4,1-0.5,1.7-0.5c0.7,0,1.4,0.2,2.1,0.5
			l-0.4,0.9c-0.2-0.1-0.5-0.2-0.8-0.3s-0.6-0.1-1-0.1c-0.4,0-0.7,0.1-0.9,0.3c-0.2,0.2-0.3,0.4-0.3,0.7c0,0.2,0.1,0.4,0.2,0.6
			s0.5,0.4,0.9,0.6c0.5,0.3,0.8,0.5,1,0.7s0.3,0.4,0.4,0.6S121.6,99,121.6,99.3z"/>
		<path class="st1" d="M130.6,99.3c0,0.7-0.2,1.2-0.7,1.6c-0.5,0.4-1.1,0.6-2,0.6c-0.8,0-1.4-0.1-1.9-0.4v-1.1
			c0.3,0.2,0.6,0.3,0.9,0.4s0.7,0.2,1,0.2c0.5,0,0.9-0.1,1.2-0.3c0.3-0.2,0.4-0.5,0.4-0.8c0-0.2-0.1-0.4-0.2-0.6
			c-0.1-0.2-0.5-0.4-0.9-0.7c-0.5-0.3-0.9-0.6-1.2-0.9s-0.3-0.7-0.3-1.1c0-0.6,0.2-1.1,0.6-1.4c0.4-0.4,1-0.5,1.7-0.5
			c0.7,0,1.4,0.2,2.1,0.5l-0.4,0.9c-0.2-0.1-0.5-0.2-0.8-0.3s-0.6-0.1-1-0.1c-0.4,0-0.7,0.1-0.9,0.3s-0.3,0.4-0.3,0.7
			c0,0.2,0.1,0.4,0.2,0.6s0.5,0.4,0.9,0.6c0.5,0.3,0.8,0.5,1,0.7s0.3,0.4,0.4,0.6C130.6,98.8,130.6,99,130.6,99.3z"/>
		<path class="st1" d="M133,101.3h-1.1l1.5-7h1.1L133,101.3z M133.7,92.6c0-0.2,0.1-0.4,0.2-0.6c0.1-0.2,0.3-0.2,0.6-0.2
			c0.4,0,0.6,0.2,0.6,0.6c0,0.3-0.1,0.5-0.2,0.6c-0.1,0.2-0.3,0.2-0.5,0.2c-0.2,0-0.3-0.1-0.4-0.2C133.7,92.9,133.7,92.7,133.7,92.6
			z"/>
		<path class="st1" d="M137.5,100.5c0.3,0,0.6-0.1,0.9-0.2v0.9c-0.1,0.1-0.3,0.1-0.5,0.2c-0.2,0-0.4,0.1-0.6,0.1
			c-0.5,0-1-0.1-1.2-0.4s-0.4-0.6-0.4-1.1c0-0.3,0-0.6,0.1-0.9l0.8-3.8h-1.1l0.1-0.5l1.2-0.5l0.8-1.4h0.7l-0.3,1.6h1.8l-0.2,0.9
			h-1.7l-0.8,3.8c-0.1,0.3-0.1,0.6-0.1,0.8c0,0.2,0.1,0.4,0.2,0.5S137.2,100.5,137.5,100.5z"/>
		<path class="st1" d="M142.4,101.4c-0.8,0-1.4-0.2-1.9-0.7c-0.4-0.5-0.7-1.1-0.7-1.9c0-0.8,0.2-1.6,0.5-2.3s0.7-1.3,1.3-1.7
			c0.5-0.4,1.1-0.6,1.8-0.6c0.7,0,1.2,0.1,1.5,0.4c0.3,0.3,0.5,0.7,0.5,1.2c0,0.8-0.4,1.4-1.1,1.8s-1.7,0.7-3,0.7H141l0,0.5
			c0,0.5,0.1,1,0.4,1.3s0.7,0.5,1.2,0.5c0.3,0,0.6,0,0.9-0.1c0.3-0.1,0.6-0.2,1-0.4v1c-0.4,0.2-0.8,0.3-1.1,0.4
			C143,101.4,142.7,101.4,142.4,101.4z M143.2,95.1c-0.4,0-0.8,0.2-1.2,0.6c-0.4,0.4-0.7,0.9-0.8,1.6h0.1c0.9,0,1.6-0.1,2.1-0.4
			c0.5-0.2,0.8-0.6,0.8-1.1c0-0.2-0.1-0.4-0.2-0.6C143.8,95.2,143.6,95.1,143.2,95.1z"/>
		<path class="st1" d="M151.6,100.5c0.3,0,0.6-0.1,0.9-0.2v0.9c-0.1,0.1-0.3,0.1-0.5,0.2c-0.2,0-0.4,0.1-0.6,0.1
			c-0.5,0-1-0.1-1.2-0.4s-0.4-0.6-0.4-1.1c0-0.3,0-0.6,0.1-0.9l0.8-3.8h-1.1l0.1-0.5l1.2-0.5l0.8-1.4h0.7l-0.3,1.6h1.8l-0.2,0.9
			h-1.7l-0.8,3.8c-0.1,0.3-0.1,0.6-0.1,0.8c0,0.2,0.1,0.4,0.2,0.5S151.4,100.5,151.6,100.5z"/>
		<path class="st1" d="M158.2,94.2c0.3,0,0.5,0,0.8,0.1l-0.2,1c-0.2-0.1-0.5-0.1-0.7-0.1c-0.4,0-0.7,0.1-1.1,0.4
			c-0.3,0.2-0.6,0.6-0.9,1s-0.4,0.9-0.5,1.5l-0.7,3.2h-1.2l1.5-7h0.9l-0.1,1.3h0.1c0.3-0.4,0.6-0.7,0.8-0.9s0.4-0.3,0.6-0.4
			C157.7,94.2,157.9,94.2,158.2,94.2z"/>
		<path class="st1" d="M160.3,94.3h1.2l-0.9,4.4c-0.1,0.4-0.1,0.7-0.1,0.9c0,0.6,0.3,0.9,0.9,0.9c0.4,0,0.7-0.1,1.1-0.4
			c0.3-0.3,0.7-0.6,0.9-1.1c0.3-0.5,0.5-1,0.6-1.7l0.6-3h1.1l-1.5,7h-0.9l0.1-1.3h-0.1c-0.4,0.5-0.8,0.9-1.1,1.1
			c-0.4,0.2-0.8,0.3-1.2,0.3c-0.5,0-1-0.2-1.3-0.5s-0.5-0.7-0.5-1.3c0-0.3,0-0.6,0.1-1.1L160.3,94.3z"/>
		<path class="st1" d="M170.8,99.3c0,0.7-0.2,1.2-0.7,1.6c-0.5,0.4-1.1,0.6-2,0.6c-0.8,0-1.4-0.1-1.9-0.4v-1.1
			c0.3,0.2,0.6,0.3,0.9,0.4c0.3,0.1,0.7,0.2,1,0.2c0.5,0,0.9-0.1,1.2-0.3c0.3-0.2,0.4-0.5,0.4-0.8c0-0.2-0.1-0.4-0.2-0.6
			s-0.5-0.4-0.9-0.7c-0.5-0.3-0.9-0.6-1.2-0.9s-0.3-0.7-0.3-1.1c0-0.6,0.2-1.1,0.6-1.4c0.4-0.4,1-0.5,1.7-0.5c0.7,0,1.4,0.2,2.1,0.5
			l-0.4,0.9c-0.2-0.1-0.5-0.2-0.8-0.3s-0.6-0.1-1-0.1c-0.4,0-0.7,0.1-0.9,0.3c-0.2,0.2-0.3,0.4-0.3,0.7c0,0.2,0.1,0.4,0.2,0.6
			s0.5,0.4,0.9,0.6c0.5,0.3,0.8,0.5,1,0.7s0.3,0.4,0.4,0.6S170.8,99,170.8,99.3z"/>
		<path class="st1" d="M174.3,100.5c0.3,0,0.6-0.1,0.9-0.2v0.9c-0.1,0.1-0.3,0.1-0.5,0.2c-0.2,0-0.4,0.1-0.6,0.1
			c-0.5,0-1-0.1-1.2-0.4s-0.4-0.6-0.4-1.1c0-0.3,0-0.6,0.1-0.9l0.8-3.8h-1.1l0.1-0.5l1.2-0.5l0.8-1.4h0.7l-0.3,1.6h1.8l-0.2,0.9
			h-1.7l-0.8,3.8c-0.1,0.3-0.1,0.6-0.1,0.8c0,0.2,0.1,0.4,0.2,0.5S174,100.5,174.3,100.5z"/>
		<path class="st1" d="M181.1,95.4l-0.3,0.8l-0.5,1.2l-1.8,3.9H177l-0.3-7h1.1l0.1,4.4c0,0.3,0,0.8-0.1,1.6h0.1
			c0-0.1,0.2-0.4,0.3-0.8c0.2-0.4,0.3-0.8,0.5-1.1s0.8-1.7,1.9-4.1h1.2l0.2,3.7l0,1.6v0.4l0,0.3h0.1c0.2-0.7,0.6-1.5,1-2.5l1.5-3.4
			h1.2l-3.2,7h-1.4l-0.2-3.8l0-0.9L181.1,95.4L181.1,95.4z"/>
		<path class="st1" d="M192.1,96.9c0,0.8-0.2,1.6-0.5,2.3c-0.3,0.7-0.7,1.2-1.2,1.6s-1.1,0.6-1.8,0.6c-0.8,0-1.4-0.2-1.9-0.7
			c-0.5-0.5-0.7-1.1-0.7-2c0-0.8,0.2-1.6,0.5-2.3c0.3-0.7,0.7-1.3,1.3-1.6c0.5-0.4,1.1-0.6,1.8-0.6c0.8,0,1.4,0.2,1.9,0.7
			S192.1,96.1,192.1,96.9z M191,96.8c0-0.5-0.1-0.9-0.4-1.2s-0.6-0.4-1-0.4c-0.4,0-0.9,0.2-1.2,0.5c-0.4,0.3-0.6,0.7-0.8,1.3
			c-0.2,0.6-0.3,1.2-0.3,1.8c0,0.5,0.1,1,0.4,1.3s0.6,0.4,1.1,0.4c0.4,0,0.8-0.2,1.2-0.5c0.3-0.3,0.6-0.7,0.8-1.3
			C190.9,98.2,191,97.5,191,96.8z"/>
		<path class="st1" d="M197.6,94.2c0.3,0,0.5,0,0.8,0.1l-0.2,1c-0.2-0.1-0.5-0.1-0.7-0.1c-0.4,0-0.7,0.1-1.1,0.4
			c-0.3,0.2-0.6,0.6-0.9,1c-0.2,0.4-0.4,0.9-0.5,1.5l-0.7,3.2h-1.1l1.5-7h0.9l-0.1,1.3h0.1c0.3-0.4,0.6-0.7,0.8-0.9s0.4-0.3,0.6-0.4
			C197.1,94.2,197.3,94.2,197.6,94.2z"/>
		<path class="st1" d="M200.5,100.5c0.3,0,0.6-0.1,0.9-0.2v0.9c-0.1,0.1-0.3,0.1-0.5,0.2c-0.2,0-0.4,0.1-0.6,0.1
			c-0.5,0-1-0.1-1.2-0.4s-0.4-0.6-0.4-1.1c0-0.3,0-0.6,0.1-0.9l0.8-3.8h-1.1l0.1-0.5l1.2-0.5l0.8-1.4h0.7l-0.3,1.6h1.8l-0.2,0.9
			h-1.7l-0.8,3.8c-0.1,0.3-0.1,0.6-0.1,0.8c0,0.2,0.1,0.4,0.2,0.5S200.2,100.5,200.5,100.5z"/>
		<path class="st1" d="M208,101.3h-1.1l0.9-4.4c0.1-0.4,0.1-0.7,0.1-0.9c0-0.6-0.3-0.9-0.9-0.9c-0.4,0-0.7,0.1-1.1,0.4
			c-0.3,0.3-0.7,0.6-0.9,1.1c-0.3,0.5-0.5,1-0.6,1.7l-0.6,3h-1.1l2.1-9.9h1.1l-0.6,2.6c-0.1,0.3-0.1,0.5-0.2,0.8s-0.2,0.6-0.2,0.8
			h0.1c0.4-0.5,0.8-0.9,1.1-1.1c0.4-0.2,0.8-0.3,1.2-0.3c0.6,0,1,0.2,1.3,0.5s0.5,0.7,0.5,1.3c0,0.2,0,0.6-0.1,1.1L208,101.3z"/>
		<path class="st1" d="M210.4,94.3h1.1l0.5,3.4c0,0.3,0.1,0.7,0.1,1.2c0,0.5,0.1,1,0.1,1.4h0c0.1-0.3,0.3-0.7,0.5-1.1
			c0.2-0.5,0.4-0.8,0.5-1.1l2-3.8h1.2l-4.4,8.1c-0.4,0.7-0.8,1.2-1.2,1.5c-0.4,0.3-0.9,0.4-1.4,0.4c-0.3,0-0.6,0-0.9-0.1v-0.9
			c0.3,0.1,0.5,0.1,0.8,0.1c0.3,0,0.6-0.1,0.9-0.3s0.5-0.5,0.7-0.9l0.5-0.8L210.4,94.3z"/>
		<path class="st1" d="M216.8,100.8c0-0.3,0.1-0.6,0.3-0.8c0.2-0.2,0.4-0.3,0.7-0.3c0.2,0,0.3,0.1,0.5,0.2c0.1,0.1,0.2,0.3,0.2,0.5
			c0,0.3-0.1,0.6-0.3,0.8s-0.4,0.3-0.7,0.3c-0.2,0-0.4-0.1-0.5-0.2C216.9,101.2,216.8,101,216.8,100.8z M217.5,98.7
			c0.1-0.6,0.3-1,0.5-1.4s0.6-0.7,1-1.1c0.5-0.4,0.8-0.7,1-0.9c0.2-0.2,0.3-0.4,0.4-0.6c0.1-0.2,0.1-0.4,0.1-0.7
			c0-0.4-0.1-0.7-0.3-0.9c-0.2-0.2-0.5-0.3-0.9-0.3c-0.3,0-0.7,0.1-1,0.2c-0.3,0.1-0.6,0.2-0.9,0.4l-0.4-0.9
			c0.4-0.2,0.8-0.4,1.2-0.5c0.4-0.1,0.8-0.2,1.2-0.2c0.7,0,1.3,0.2,1.7,0.5c0.4,0.4,0.6,0.9,0.6,1.5c0,0.5-0.1,1-0.4,1.4
			c-0.3,0.4-0.8,0.9-1.5,1.4c-0.5,0.4-0.9,0.7-1.1,0.9c-0.2,0.2-0.3,0.6-0.4,1H217.5z"/>
		<path class="st1" d="M52.3,116.9H49l0.1-0.6l1.1-0.3l1.6-7.5l-1-0.2l0.1-0.6h3.3l-0.1,0.6l-1.1,0.2l-1.6,7.5l1,0.3L52.3,116.9z"/>
		<path class="st1" d="M58.2,114.9c0,0.7-0.2,1.2-0.7,1.6c-0.5,0.4-1.1,0.6-2,0.6c-0.8,0-1.4-0.1-1.9-0.4v-1.1
			c0.3,0.2,0.6,0.3,0.9,0.4c0.3,0.1,0.7,0.2,1,0.2c0.5,0,0.9-0.1,1.2-0.3c0.3-0.2,0.4-0.5,0.4-0.8c0-0.2-0.1-0.4-0.2-0.6
			s-0.5-0.4-0.9-0.7c-0.5-0.3-0.9-0.6-1.2-0.9s-0.3-0.7-0.3-1.1c0-0.6,0.2-1.1,0.6-1.4c0.4-0.4,1-0.5,1.7-0.5c0.7,0,1.4,0.2,2.1,0.5
			l-0.4,0.9c-0.2-0.1-0.5-0.2-0.8-0.3s-0.6-0.1-1-0.1c-0.4,0-0.7,0.1-0.9,0.3c-0.2,0.2-0.3,0.4-0.3,0.7c0,0.2,0.1,0.4,0.2,0.6
			s0.5,0.4,0.9,0.6c0.5,0.3,0.8,0.5,1,0.7s0.3,0.4,0.4,0.6S58.2,114.6,58.2,114.9z"/>
		<path class="st1" d="M67.4,109.8c0.5,0,0.8,0.1,1.1,0.4c0.3,0.3,0.4,0.7,0.5,1.1h0.1c0.7-1,1.5-1.5,2.4-1.5c0.5,0,1,0.1,1.3,0.4
			c0.3,0.3,0.4,0.7,0.4,1.3c0,0.4,0,0.8-0.1,1.1l-0.9,4.2h-1.2l0.9-4.4c0.1-0.4,0.1-0.7,0.1-0.9c0-0.3-0.1-0.5-0.2-0.6
			c-0.1-0.2-0.4-0.2-0.7-0.2c-0.3,0-0.7,0.1-1,0.4c-0.3,0.2-0.6,0.6-0.9,1c-0.3,0.5-0.4,1-0.6,1.6l-0.7,3.1h-1.1l0.9-4.4
			c0.1-0.4,0.1-0.7,0.1-0.9c0-0.6-0.3-0.9-0.8-0.9c-0.3,0-0.7,0.1-1,0.4s-0.6,0.6-0.9,1.1s-0.4,1-0.6,1.7l-0.6,3h-1.1l1.5-7h0.9
			l-0.1,1.3h0.1c0.3-0.4,0.5-0.7,0.7-0.8s0.4-0.3,0.7-0.4C66.9,109.8,67.1,109.8,67.4,109.8z"/>
		<path class="st1" d="M74.5,109.9h1.2l0.4,3.4c0,0.3,0.1,0.7,0.1,1.2s0.1,1,0.1,1.4h0c0.1-0.3,0.3-0.7,0.5-1.1s0.4-0.8,0.5-1.1
			l2-3.8h1.2l-4.4,8.1c-0.4,0.7-0.8,1.2-1.2,1.5c-0.4,0.3-0.9,0.4-1.4,0.4c-0.3,0-0.6,0-0.9-0.1V119c0.3,0.1,0.5,0.1,0.8,0.1
			c0.3,0,0.6-0.1,0.9-0.3s0.5-0.5,0.7-0.9l0.5-0.8L74.5,109.9z"/>
		<path class="st1" d="M88,114.9c0,0.7-0.2,1.2-0.7,1.6c-0.5,0.4-1.1,0.6-2,0.6c-0.8,0-1.4-0.1-1.9-0.4v-1.1
			c0.3,0.2,0.6,0.3,0.9,0.4s0.7,0.2,1,0.2c0.5,0,0.9-0.1,1.2-0.3c0.3-0.2,0.4-0.5,0.4-0.8c0-0.2-0.1-0.4-0.2-0.6
			c-0.1-0.2-0.5-0.4-0.9-0.7c-0.5-0.3-0.9-0.6-1.2-0.9s-0.3-0.7-0.3-1.1c0-0.6,0.2-1.1,0.6-1.4c0.4-0.4,1-0.5,1.7-0.5
			c0.7,0,1.4,0.2,2.1,0.5l-0.4,0.9c-0.2-0.1-0.5-0.2-0.8-0.3s-0.6-0.1-1-0.1c-0.4,0-0.7,0.1-0.9,0.3s-0.3,0.4-0.3,0.7
			c0,0.2,0.1,0.4,0.2,0.6s0.5,0.4,0.9,0.6c0.5,0.3,0.8,0.5,1,0.7s0.3,0.4,0.4,0.6C88,114.4,88,114.6,88,114.9z"/>
		<path class="st1" d="M92.1,117c-0.8,0-1.4-0.2-1.9-0.7c-0.4-0.5-0.7-1.1-0.7-1.9c0-0.8,0.2-1.6,0.5-2.3s0.7-1.3,1.3-1.7
			c0.5-0.4,1.1-0.6,1.8-0.6c0.7,0,1.2,0.1,1.5,0.4c0.3,0.3,0.5,0.7,0.5,1.2c0,0.8-0.4,1.4-1.1,1.8s-1.7,0.7-3,0.7h-0.2l0,0.5
			c0,0.5,0.1,1,0.4,1.3s0.7,0.5,1.2,0.5c0.3,0,0.6,0,0.9-0.1c0.3-0.1,0.6-0.2,1-0.4v1c-0.4,0.2-0.8,0.3-1.1,0.4
			C92.8,117,92.4,117,92.1,117z M93,110.7c-0.4,0-0.8,0.2-1.2,0.6c-0.4,0.4-0.7,0.9-0.8,1.6H91c0.9,0,1.6-0.1,2.1-0.4
			c0.5-0.2,0.8-0.6,0.8-1.1c0-0.2-0.1-0.4-0.2-0.6C93.5,110.8,93.3,110.7,93,110.7z"/>
		<path class="st1" d="M98.6,117c-0.8,0-1.5-0.2-1.9-0.7c-0.5-0.5-0.7-1.1-0.7-1.9c0-0.9,0.2-1.6,0.5-2.4c0.3-0.7,0.7-1.3,1.3-1.7
			c0.6-0.4,1.2-0.6,1.9-0.6c0.6,0,1.2,0.1,1.7,0.3l-0.3,1c-0.5-0.2-0.9-0.3-1.4-0.3c-0.5,0-0.9,0.2-1.3,0.5
			c-0.4,0.3-0.7,0.8-0.9,1.3c-0.2,0.6-0.3,1.2-0.3,1.8c0,0.5,0.1,0.9,0.4,1.2c0.3,0.3,0.6,0.4,1.1,0.4c0.3,0,0.6,0,0.9-0.1
			c0.3-0.1,0.5-0.2,0.8-0.3v1C99.9,116.9,99.3,117,98.6,117z"/>
		<path class="st1" d="M103.1,109.9h1.2l-0.9,4.4c-0.1,0.4-0.1,0.7-0.1,0.9c0,0.6,0.3,0.9,0.9,0.9c0.4,0,0.7-0.1,1.1-0.4
			c0.3-0.3,0.7-0.6,0.9-1.1c0.3-0.5,0.5-1,0.6-1.7l0.6-3h1.1l-1.5,7H106l0.1-1.3h-0.1c-0.4,0.5-0.8,0.9-1.2,1.1
			c-0.4,0.2-0.8,0.3-1.2,0.3c-0.5,0-1-0.2-1.3-0.5s-0.5-0.7-0.5-1.3c0-0.3,0-0.6,0.1-1.1L103.1,109.9z"/>
		<path class="st1" d="M113.7,109.8c0.3,0,0.5,0,0.8,0.1l-0.2,1c-0.2-0.1-0.5-0.1-0.7-0.1c-0.4,0-0.7,0.1-1.1,0.4
			c-0.3,0.2-0.6,0.6-0.9,1c-0.2,0.4-0.4,0.9-0.5,1.5l-0.7,3.2h-1.1l1.5-7h0.9l-0.1,1.3h0.1c0.3-0.4,0.6-0.7,0.8-0.9s0.4-0.3,0.6-0.4
			C113.2,109.8,113.4,109.8,113.7,109.8z"/>
		<path class="st1" d="M115.5,116.9h-1.1l1.5-7h1.1L115.5,116.9z M116.2,108.2c0-0.2,0.1-0.4,0.2-0.6c0.1-0.2,0.3-0.2,0.6-0.2
			c0.4,0,0.6,0.2,0.6,0.6c0,0.3-0.1,0.5-0.2,0.6c-0.1,0.2-0.3,0.2-0.5,0.2c-0.2,0-0.3-0.1-0.4-0.2
			C116.2,108.5,116.2,108.3,116.2,108.2z"/>
		<path class="st1" d="M119.9,116.1c0.3,0,0.6-0.1,0.9-0.2v0.9c-0.1,0.1-0.3,0.1-0.5,0.2c-0.2,0-0.4,0.1-0.6,0.1
			c-0.5,0-1-0.1-1.2-0.4s-0.4-0.6-0.4-1.1c0-0.3,0-0.6,0.1-0.9l0.8-3.8h-1.1l0.1-0.5l1.2-0.5l0.8-1.4h0.7l-0.3,1.6h1.8l-0.2,0.9
			h-1.7l-0.8,3.8c-0.1,0.3-0.1,0.6-0.1,0.8c0,0.2,0.1,0.4,0.2,0.5S119.7,116.1,119.9,116.1z"/>
		<path class="st1" d="M122.3,109.9h1.2l0.4,3.4c0,0.3,0.1,0.7,0.1,1.2s0.1,1,0.1,1.4h0c0.1-0.3,0.3-0.7,0.5-1.1s0.4-0.8,0.5-1.1
			l2-3.8h1.2l-4.4,8.1c-0.4,0.7-0.8,1.2-1.2,1.5c-0.4,0.3-0.9,0.4-1.4,0.4c-0.3,0-0.6,0-0.9-0.1V119c0.3,0.1,0.5,0.1,0.8,0.1
			c0.3,0,0.6-0.1,0.9-0.3s0.5-0.5,0.7-0.9l0.5-0.8L122.3,109.9z"/>
		<path class="st1" d="M133.6,117c-0.6,0-1-0.2-1.4-0.6c-0.3-0.4-0.5-1-0.5-1.8c0-0.9,0.2-1.7,0.4-2.4c0.3-0.8,0.7-1.3,1.2-1.8
			c0.5-0.4,1.1-0.6,1.7-0.6c0.4,0,0.7,0.1,1,0.3c0.3,0.2,0.5,0.5,0.7,0.9h0.1l0.4-1.1h0.9l-1.5,7h-0.9l0.2-1.3H136
			C135.3,116.5,134.5,117,133.6,117z M134,116.1c0.4,0,0.8-0.2,1.2-0.6s0.7-0.9,1-1.5c0.2-0.6,0.4-1.2,0.4-1.9c0-0.4-0.1-0.8-0.3-1
			s-0.5-0.4-0.9-0.4c-0.4,0-0.8,0.2-1.2,0.5c-0.4,0.4-0.7,0.8-0.9,1.4c-0.2,0.6-0.3,1.3-0.3,1.9c0,0.5,0.1,0.8,0.3,1.1
			C133.4,116,133.7,116.1,134,116.1z"/>
		<path class="st1" d="M141.1,116.1c0.3,0,0.6-0.1,0.9-0.2v0.9c-0.1,0.1-0.3,0.1-0.5,0.2c-0.2,0-0.4,0.1-0.6,0.1
			c-0.5,0-1-0.1-1.2-0.4s-0.4-0.6-0.4-1.1c0-0.3,0-0.6,0.1-0.9l0.8-3.8h-1.1l0.1-0.5l1.2-0.5l0.8-1.4h0.7l-0.3,1.6h1.8l-0.2,0.9
			h-1.7l-0.8,3.8c-0.1,0.3-0.1,0.6-0.1,0.8c0,0.2,0.1,0.4,0.2,0.5S140.8,116.1,141.1,116.1z"/>
		<path class="st1" d="M151,109.8c0.3,0,0.5,0,0.8,0.1l-0.2,1c-0.2-0.1-0.5-0.1-0.7-0.1c-0.4,0-0.7,0.1-1.1,0.4
			c-0.3,0.2-0.6,0.6-0.9,1c-0.2,0.4-0.4,0.9-0.5,1.5l-0.7,3.2h-1.1l1.5-7h0.9l-0.1,1.3h0.1c0.3-0.4,0.6-0.7,0.8-0.9s0.4-0.3,0.6-0.4
			C150.5,109.8,150.8,109.8,151,109.8z"/>
		<path class="st1" d="M152.9,116.9h-1.1l1.5-7h1.1L152.9,116.9z M153.5,108.2c0-0.2,0.1-0.4,0.2-0.6c0.1-0.2,0.3-0.2,0.6-0.2
			c0.4,0,0.6,0.2,0.6,0.6c0,0.3-0.1,0.5-0.2,0.6c-0.1,0.2-0.3,0.2-0.5,0.2c-0.2,0-0.3-0.1-0.4-0.2
			C153.6,108.5,153.5,108.3,153.5,108.2z"/>
		<path class="st1" d="M159.4,114.9c0,0.7-0.2,1.2-0.7,1.6c-0.5,0.4-1.1,0.6-2,0.6c-0.8,0-1.4-0.1-1.9-0.4v-1.1
			c0.3,0.2,0.6,0.3,0.9,0.4s0.7,0.2,1,0.2c0.5,0,0.9-0.1,1.2-0.3c0.3-0.2,0.4-0.5,0.4-0.8c0-0.2-0.1-0.4-0.2-0.6
			c-0.1-0.2-0.5-0.4-0.9-0.7c-0.5-0.3-0.9-0.6-1.2-0.9s-0.3-0.7-0.3-1.1c0-0.6,0.2-1.1,0.6-1.4c0.4-0.4,1-0.5,1.7-0.5
			c0.7,0,1.4,0.2,2.1,0.5l-0.4,0.9c-0.2-0.1-0.5-0.2-0.8-0.3s-0.6-0.1-1-0.1c-0.4,0-0.7,0.1-0.9,0.3s-0.3,0.4-0.3,0.7
			c0,0.2,0.1,0.4,0.2,0.6s0.5,0.4,0.9,0.6c0.5,0.3,0.8,0.5,1,0.7s0.3,0.4,0.4,0.6C159.4,114.4,159.4,114.6,159.4,114.9z"/>
		<path class="st1" d="M165.8,109.9h1.4l-3,3l1.9,4h-1.3l-1.5-3.3l-0.9,0.7l-0.5,2.5h-1.2l2.1-9.9h1.2c-0.4,1.7-0.7,3.1-0.9,4
			c-0.2,0.9-0.4,1.7-0.6,2.3h0L165.8,109.9z"/>
		<path class="st1" d="M167.8,116.4c0-0.3,0.1-0.6,0.3-0.8c0.2-0.2,0.4-0.3,0.7-0.3c0.2,0,0.3,0.1,0.5,0.2c0.1,0.1,0.2,0.3,0.2,0.5
			c0,0.3-0.1,0.6-0.3,0.8s-0.4,0.3-0.7,0.3c-0.2,0-0.4-0.1-0.5-0.2C167.8,116.8,167.8,116.6,167.8,116.4z M168.4,114.3
			c0.1-0.6,0.3-1,0.5-1.4s0.6-0.7,1-1.1c0.5-0.4,0.8-0.7,1-0.9c0.2-0.2,0.3-0.4,0.4-0.6c0.1-0.2,0.1-0.4,0.1-0.7
			c0-0.4-0.1-0.7-0.3-0.9c-0.2-0.2-0.5-0.3-0.9-0.3c-0.3,0-0.7,0.1-1,0.2c-0.3,0.1-0.6,0.2-0.9,0.4l-0.4-0.9
			c0.4-0.2,0.8-0.4,1.2-0.5c0.4-0.1,0.8-0.2,1.2-0.2c0.7,0,1.3,0.2,1.7,0.5c0.4,0.4,0.6,0.9,0.6,1.5c0,0.5-0.1,1-0.4,1.4
			c-0.3,0.4-0.8,0.9-1.5,1.4c-0.5,0.4-0.9,0.7-1.1,0.9c-0.2,0.2-0.3,0.6-0.4,1H168.4z"/>
		<path class="st1" d="M175.7,107.6l0.1,0.1c-0.2,0.4-0.4,0.8-0.7,1.4c-0.3,0.5-0.6,1.1-1,1.7h-0.9c0.6-1.3,1-2.3,1.3-3.2H175.7z
			 M178.1,107.6l0.1,0.1c-0.4,0.8-0.9,1.9-1.7,3h-0.9c0.2-0.5,0.5-1.1,0.7-1.8c0.3-0.7,0.4-1.2,0.5-1.4H178.1z"/>
	</g>
	<rect x="40.7" y="140.9" class="st0" width="193.8" height="20.9"/>
</g>
<circle class="st2" cx="69.9" cy="162.1" r="32.3"/>
<g>
	<path class="st3" d="M64.5,170.3v-1.4c0-2.1,0.3-3.8,1-5.1c0.7-1.3,1.8-2.6,3.5-4c1.9-1.6,3.1-2.7,3.7-3.4c0.6-0.7,1-1.4,1.3-2.1
		c0.2-0.7,0.4-1.5,0.4-2.4c0-1.7-0.6-3-1.7-4c-1.1-0.9-2.7-1.4-4.8-1.4c-1.4,0-2.8,0.2-4.1,0.5c-1.3,0.3-2.8,0.9-4.5,1.7l-1.6-3.7
		c3.3-1.8,6.8-2.6,10.5-2.6c3.3,0,5.9,0.8,7.8,2.5c1.9,1.6,2.8,3.9,2.8,6.9c0,1.3-0.2,2.4-0.5,3.4c-0.3,1-0.9,1.9-1.6,2.8
		c-0.7,0.9-2.1,2.2-4.2,4c-1.7,1.5-2.9,2.7-3.4,3.7c-0.6,1-0.8,2.2-0.8,3.8v0.9H64.5z M63.3,178.1c0-2.4,1.1-3.6,3.3-3.6
		c1,0,1.8,0.3,2.4,0.9c0.6,0.6,0.9,1.5,0.9,2.7c0,1.2-0.3,2.1-0.9,2.7c-0.6,0.6-1.4,1-2.4,1c-1,0-1.8-0.3-2.4-0.9
		C63.6,180.4,63.3,179.4,63.3,178.1z"/>
</g>
</svg>