<!-- Generator: Adobe Illustrator 19.0.0, SVG Export Plug-In  -->
<svg version="1.1"
	 xmlns="http://www.w3.org/2000/svg" xmlns:xlink="http://www.w3.org/1999/xlink" xmlns:a="http://ns.adobe.com/AdobeSVGViewerExtensions/3.0/"
	 x="0px" y="0px" width="575px" height="261.4px" viewBox="0 0 575 261.4" style="enable-background:new 0 0 575 261.4;"
	 xml:space="preserve">
<style type="text/css">
	.st0{fill:#FFFFFF;stroke:#FF6633;stroke-width:3;stroke-miterlimit:10;}
	.st1{fill:#FFFFFF;stroke:#FF6633;stroke-width:2;stroke-miterlimit:10;}
	.st2{fill:#FFFFFF;stroke:#FF6633;stroke-miterlimit:10;}
	.st3{fill:none;stroke:#FF6633;stroke-width:2;stroke-linecap:round;stroke-linejoin:round;stroke-miterlimit:10;}
	.st4{fill:#FFFFFF;stroke:#FF6633;stroke-width:1.8254;stroke-linecap:round;stroke-linejoin:round;stroke-miterlimit:10;}
	.st5{fill:#FF6633;}
	.st6{fill:none;stroke:#FF6633;stroke-width:1.9267;stroke-miterlimit:10;}
	.st7{fill:none;stroke:#FF6633;stroke-width:1.0536;stroke-miterlimit:10;}
	.st8{fill:#33CCCC;}
	.st9{fill:#FFFFFF;}
	.st10{fill:#EDEDED;}
	.st11{fill:#C9C7C8;}
</style>
<defs>
</defs>
<g>
	<g>
		<path class="st0" d="M28.6,43.3l0.4,3v117.8l100-1.9v-115v0.2l-0.2-3.6c0-23.4-22.3-42.3-50-42.3C51,1.5,28.6,20,28.6,43.3"/>
		<path class="st1" d="M40.5,94.7h-0.1c-7.3,0-12.9-5.1-12.9-12.5v-1.1c0-7.4,5.5-14.3,12.9-14.3h0.1"/>
		<path class="st1" d="M131.5,76.7c0-5-4-9-9-9h-9.1c-5,0-9,4-9,9v10.1c0,5,4,9,9,9h9.1c5,0,9-4,9-9V76.7z"/>
		<polyline class="st2" points="63,113.7 63,145.2 94,145.2 94,113.7 		"/>
		<path class="st3" d="M78.1,124c-4.8-0.5-33.6-3.7-35.6-30.2V66.6v-0.9h14v-25l10,25h62"/>
		<path class="st4" d="M114.3,65.2l0.8,28.6c-3.2,26.6-32.6,29.5-37.4,29.9c0,0-18.6-0.4-29.1-13.4"/>
		<path class="st5" d="M64.5,81.5c0,1.9-1.6,3.5-3.5,3.5l0,0c-1.9,0-3.5-1.6-3.5-3.5v-5c0-1.9,1.6-3.5,3.5-3.5l0,0
			c1.9,0,3.5,1.6,3.5,3.5V81.5z"/>
		<path class="st5" d="M101.5,81.5c0,1.9-1.6,3.5-3.5,3.5l0,0c-1.9,0-3.5-1.6-3.5-3.5v-5c0-1.9,1.6-3.5,3.5-3.5l0,0
			c1.9,0,3.5,1.6,3.5,3.5V81.5z"/>
		<path class="st1" d="M63.8,59.7h-7.1c-0.4,0-0.8-0.3-0.8-0.5l0,0c0-0.2,0.3-0.5,0.8-0.5h7.1c0.4,0,0.8,0.3,0.8,0.5l0,0
			C64.6,59.5,64.3,59.7,63.8,59.7z"/>
		<path class="st5" d="M98.4,131.7H80.6h-5.2H58.2c-32.9,8-36.4,38-36.4,38h53.6h5.2h54.1C134.8,169.7,131.3,139.7,98.4,131.7z"/>
		<path class="st1" d="M100.9,59.7h-7.1c-0.4,0-0.8,0-0.8,0l0,0c0,0,0.3,0,0.8,0H100.9c0.4,0,0.8,0,0.8,0l0,0
			C101.7,59.7,101.3,59.7,100.9,59.7z"/>
		<polygon class="st1" points="80.1,73 73.1,93.7 87.4,93.7 		"/>
		<path class="st6" d="M94,89.4c0,7.7-6.2,13.9-13.7,13.9c-7.6,0-13.7-6.2-13.7-13.9"/>
		<path class="st7" d="M100,75.3c0,0,1.5,3.2,4.6,0"/>
		<path class="st7" d="M54.4,75.3c0,0,1.5,3.2,4.6,0"/>
		<rect x="22.5" y="169.7" class="st5" width="113" height="91"/>
	</g>
	<path class="st8" d="M550,48H208.3c-13.8,0-25,11.2-25,25v102.6l-36.8,51.6h61.7H228h322c13.8,0,25-11.2,25-25V72.9
		C575,59.1,563.8,48,550,48z"/>
	<g>
		<path class="st9" d="M237.2,81.2c0,5.1-1.3,9.2-3.9,12.1c-2.6,2.9-6.2,4.4-10.9,4.4c-4.7,0-8.4-1.4-11-4.3
			c-2.6-2.9-3.9-7-3.9-12.3c0-5.2,1.3-9.3,3.9-12.2c2.6-2.9,6.3-4.3,11-4.3c4.7,0,8.3,1.5,10.9,4.4C235.9,72,237.2,76,237.2,81.2z
			 M211.8,81.2c0,4.2,0.9,7.5,2.7,9.7c1.8,2.2,4.4,3.3,7.9,3.3c3.4,0,6.1-1.1,7.8-3.3s2.7-5.4,2.7-9.8c0-4.3-0.9-7.5-2.7-9.7
			c-1.8-2.2-4.4-3.3-7.8-3.3c-3.5,0-6.1,1.1-7.9,3.3C212.7,73.7,211.8,76.9,211.8,81.2z"/>
		<path class="st9" d="M260.2,97.3V81.9c0-2-0.4-3.4-1.3-4.4c-0.9-1-2.2-1.4-4.1-1.4c-2.5,0-4.3,0.7-5.4,2.1
			c-1.1,1.4-1.7,3.6-1.7,6.7v12.5h-4V73.2h3.2l0.6,3.3h0.2c0.7-1.2,1.8-2.1,3.1-2.8c1.3-0.7,2.8-1,4.5-1c3,0,5.2,0.7,6.6,2.2
			s2.2,3.7,2.2,6.7v15.7H260.2z"/>
		<path class="st9" d="M275.6,97.3h-4V63.1h4V97.3z"/>
		<path class="st9" d="M282.9,66.6c0-0.9,0.2-1.5,0.7-1.9c0.4-0.4,1-0.6,1.7-0.6c0.6,0,1.2,0.2,1.6,0.6c0.5,0.4,0.7,1,0.7,1.9
			c0,0.9-0.2,1.5-0.7,1.9c-0.5,0.4-1,0.6-1.6,0.6c-0.7,0-1.2-0.2-1.7-0.6C283.1,68.1,282.9,67.5,282.9,66.6z M287.2,97.3h-4V73.2h4
			V97.3z"/>
		<path class="st9" d="M311.2,97.3V81.9c0-2-0.4-3.4-1.3-4.4c-0.9-1-2.2-1.4-4.1-1.4c-2.5,0-4.3,0.7-5.4,2.1
			c-1.1,1.4-1.7,3.6-1.7,6.7v12.5h-4V73.2h3.2l0.6,3.3h0.2c0.7-1.2,1.8-2.1,3.1-2.8c1.3-0.7,2.8-1,4.5-1c3,0,5.2,0.7,6.6,2.2
			s2.2,3.7,2.2,6.7v15.7H311.2z"/>
		<path class="st9" d="M332.9,97.7c-3.6,0-6.5-1.1-8.5-3.3c-2.1-2.2-3.1-5.2-3.1-9c0-3.9,1-6.9,2.9-9.2c1.9-2.3,4.5-3.4,7.8-3.4
			c3,0,5.4,1,7.3,2.9c1.8,2,2.7,4.6,2.7,7.9V86h-16.5c0.1,2.7,0.8,4.8,2.1,6.2s3.2,2.1,5.6,2.1c1.3,0,2.5-0.1,3.7-0.3
			c1.2-0.2,2.5-0.7,4.1-1.3v3.5c-1.3,0.6-2.6,1-3.8,1.2S334.5,97.7,332.9,97.7z M331.9,75.9c-1.9,0-3.4,0.6-4.5,1.8s-1.8,2.9-2,5.1
			h12.3c0-2.3-0.5-4-1.6-5.1C335.2,76.5,333.7,75.9,331.9,75.9z"/>
		<path class="st9" d="M380.8,74.6c0,3.3-1.1,5.8-3.4,7.5c-2.2,1.8-5.4,2.6-9.5,2.6h-3.7v12.5h-4V65.2h8.5
			C376.8,65.2,380.8,68.3,380.8,74.6z M364.3,81.3h3.2c3.2,0,5.5-0.5,6.9-1.5c1.4-1,2.2-2.7,2.2-5c0-2.1-0.7-3.6-2-4.6
			c-1.3-1-3.4-1.5-6.2-1.5h-4.1V81.3z"/>
		<path class="st9" d="M401.8,97.3l-0.8-3.4h-0.2c-1.2,1.5-2.4,2.5-3.6,3.1c-1.2,0.5-2.7,0.8-4.5,0.8c-2.4,0-4.2-0.6-5.6-1.9
			s-2-3-2-5.3c0-4.9,3.9-7.5,11.6-7.7l4.1-0.2v-1.4c0-1.8-0.4-3.2-1.2-4.1c-0.8-0.9-2.1-1.3-3.8-1.3c-1.3,0-2.5,0.2-3.6,0.6
			c-1.1,0.4-2.2,0.8-3.2,1.3l-1.2-3c1.2-0.6,2.5-1.1,4-1.5c1.4-0.4,2.9-0.5,4.3-0.5c2.9,0,5.1,0.6,6.5,1.9s2.1,3.3,2.1,6.2v16.4
			H401.8z M393.7,94.5c2.2,0,4-0.6,5.2-1.8c1.3-1.2,1.9-2.9,1.9-5.1v-2.2l-3.6,0.2c-2.8,0.1-4.8,0.5-6.1,1.3c-1.3,0.8-1.9,2-1.9,3.7
			c0,1.3,0.4,2.2,1.2,2.9C391.2,94.2,392.3,94.5,393.7,94.5z"/>
		<path class="st9" d="M408.4,73.2h4.2l5.2,13.7c1.1,3,1.8,5.2,2,6.6h0.2c0.1-0.5,0.4-1.6,0.9-3c0.5-1.5,0.9-2.7,1.2-3.6l4.9-13.7
			h4.3l-10.4,27.5c-1,2.7-2.2,4.6-3.6,5.7s-3.1,1.7-5.2,1.7c-1.1,0-2.2-0.1-3.3-0.4v-3.1c0.7,0.2,1.6,0.3,2.6,0.3
			c1.3,0,2.3-0.3,3.2-1c0.9-0.7,1.6-1.8,2.2-3.2l1.3-3.2L408.4,73.2z"/>
		<path class="st9" d="M465.8,97.3V81.7c0-3.8-1.6-5.7-4.9-5.7c-2.2,0-3.9,0.7-4.9,2s-1.6,3.3-1.6,6v13.3h-3.9V81.7
			c0-1.9-0.4-3.3-1.2-4.3c-0.8-1-2-1.4-3.7-1.4c-2.2,0-3.9,0.7-4.9,2c-1,1.4-1.5,3.6-1.5,6.7v12.5h-4V73.2h3.2l0.6,3.3h0.2
			c0.7-1.2,1.7-2.1,2.9-2.7c1.3-0.7,2.7-1,4.2-1c3.8,0,6.2,1.3,7.4,4h0.2c0.8-1.3,1.8-2.3,3.2-3c1.3-0.7,2.9-1.1,4.6-1.1
			c2.7,0,4.8,0.7,6.1,2.1c1.4,1.4,2,3.7,2,6.7v15.7H465.8z"/>
		<path class="st9" d="M487.4,97.7c-3.6,0-6.5-1.1-8.5-3.3c-2.1-2.2-3.1-5.2-3.1-9c0-3.9,1-6.9,2.9-9.2c1.9-2.3,4.5-3.4,7.8-3.4
			c3,0,5.4,1,7.3,2.9c1.8,2,2.7,4.6,2.7,7.9V86h-16.5c0.1,2.7,0.8,4.8,2.1,6.2s3.2,2.1,5.6,2.1c1.3,0,2.5-0.1,3.7-0.3
			c1.2-0.2,2.5-0.7,4.1-1.3v3.5c-1.3,0.6-2.6,1-3.8,1.2S489,97.7,487.4,97.7z M486.5,75.9c-1.9,0-3.4,0.6-4.5,1.8s-1.8,2.9-2,5.1
			h12.3c0-2.3-0.5-4-1.6-5.1C489.7,76.5,488.3,75.9,486.5,75.9z"/>
		<path class="st9" d="M519,97.3V81.9c0-2-0.4-3.4-1.3-4.4c-0.9-1-2.2-1.4-4.1-1.4c-2.5,0-4.3,0.7-5.4,2.1c-1.1,1.4-1.7,3.6-1.7,6.7
			v12.5h-4V73.2h3.2l0.6,3.3h0.2c0.7-1.2,1.8-2.1,3.1-2.8c1.3-0.7,2.8-1,4.5-1c3,0,5.2,0.7,6.6,2.2s2.2,3.7,2.2,6.7v15.7H519z"/>
		<path class="st9" d="M538.4,94.5c0.5,0,1.1-0.1,1.8-0.2c0.7-0.1,1.2-0.2,1.6-0.4v3c-0.4,0.2-0.9,0.3-1.7,0.5
			c-0.8,0.2-1.5,0.2-2.3,0.2c-4.7,0-7.1-2.5-7.1-7.4v-14h-3.4v-1.9l3.5-1.6l1.6-5.1h2.4v5.5h7v3.1h-7v13.9c0,1.4,0.3,2.5,1,3.2
			C536.3,94.1,537.3,94.5,538.4,94.5z"/>
		<path class="st9" d="M223.5,143.3l-0.8-3.4h-0.2c-1.2,1.5-2.4,2.5-3.6,3.1c-1.2,0.5-2.7,0.8-4.5,0.8c-2.4,0-4.2-0.6-5.6-1.9
			s-2-3-2-5.3c0-4.9,3.9-7.5,11.6-7.7l4.1-0.2v-1.4c0-1.8-0.4-3.2-1.2-4.1c-0.8-0.9-2.1-1.3-3.8-1.3c-1.3,0-2.5,0.2-3.6,0.6
			c-1.1,0.4-2.2,0.8-3.2,1.3l-1.2-3c1.2-0.6,2.5-1.1,4-1.5c1.4-0.4,2.9-0.5,4.3-0.5c2.9,0,5.1,0.6,6.5,1.9s2.1,3.3,2.1,6.2v16.4
			H223.5z M215.4,140.5c2.2,0,4-0.6,5.2-1.8c1.3-1.2,1.9-2.9,1.9-5.1v-2.2l-3.6,0.2c-2.8,0.1-4.8,0.5-6.1,1.3
			c-1.3,0.8-1.9,2-1.9,3.7c0,1.3,0.4,2.2,1.2,2.9C212.9,140.2,214,140.5,215.4,140.5z"/>
		<path class="st9" d="M250.3,143.3v-15.4c0-2-0.4-3.4-1.3-4.4c-0.9-1-2.2-1.4-4.1-1.4c-2.5,0-4.3,0.7-5.4,2.1
			c-1.1,1.4-1.7,3.6-1.7,6.7v12.5h-4v-24.1h3.2l0.6,3.3h0.2c0.7-1.2,1.8-2.1,3.1-2.8c1.3-0.7,2.8-1,4.5-1c3,0,5.2,0.7,6.6,2.2
			s2.2,3.7,2.2,6.7v15.7H250.3z"/>
		<path class="st9" d="M270.3,143.7c-3.1,0-5.6-1.1-7.3-3.3s-2.6-5.2-2.6-9.2c0-3.9,0.9-7,2.6-9.2c1.7-2.2,4.2-3.3,7.3-3.3
			c3.2,0,5.7,1.2,7.5,3.6h0.3c0-0.3-0.1-0.9-0.2-1.8c-0.1-0.9-0.1-1.5-0.1-1.8v-9.6h4v34.2h-3.2L278,140h-0.2
			C276.1,142.5,273.6,143.7,270.3,143.7z M270.9,140.4c2.4,0,4.2-0.7,5.3-2c1.1-1.3,1.7-3.5,1.7-6.4v-0.7c0-3.4-0.6-5.7-1.7-7.2
			c-1.1-1.4-2.9-2.1-5.3-2.1c-2,0-3.6,0.8-4.7,2.4c-1.1,1.6-1.7,3.9-1.7,6.9c0,3,0.6,5.3,1.7,6.8
			C267.2,139.7,268.8,140.4,270.9,140.4z"/>
		<path class="st9" d="M309.2,140.5c0.5,0,1.1-0.1,1.8-0.2s1.2-0.2,1.6-0.4v3c-0.4,0.2-0.9,0.3-1.7,0.5c-0.8,0.2-1.5,0.2-2.3,0.2
			c-4.7,0-7.1-2.5-7.1-7.4v-14H298v-1.9l3.5-1.6l1.6-5.1h2.4v5.5h7v3.1h-7v13.9c0,1.4,0.3,2.5,1,3.2
			C307,140.1,308,140.5,309.2,140.5z"/>
		<path class="st9" d="M333.8,143.3v-15.4c0-2-0.4-3.4-1.3-4.4c-0.9-1-2.2-1.4-4.1-1.4c-2.4,0-4.2,0.7-5.4,2
			c-1.1,1.4-1.7,3.6-1.7,6.7v12.5h-4v-34.2h4v10c0,1.3-0.1,2.4-0.2,3.4h0.3c0.7-1.2,1.7-2.1,3.1-2.7c1.3-0.7,2.8-1,4.5-1
			c2.9,0,5.1,0.7,6.6,2.1c1.5,1.4,2.2,3.6,2.2,6.7v15.7H333.8z"/>
		<path class="st9" d="M355.4,143.7c-3.6,0-6.5-1.1-8.5-3.3c-2.1-2.2-3.1-5.2-3.1-9c0-3.9,1-6.9,2.9-9.2c1.9-2.3,4.5-3.4,7.8-3.4
			c3,0,5.4,1,7.3,2.9c1.8,2,2.7,4.6,2.7,7.9v2.4h-16.5c0.1,2.7,0.8,4.8,2.1,6.2s3.2,2.1,5.6,2.1c1.3,0,2.5-0.1,3.7-0.3
			c1.2-0.2,2.5-0.7,4.1-1.3v3.5c-1.3,0.6-2.6,1-3.8,1.2S357,143.7,355.4,143.7z M354.4,121.9c-1.9,0-3.4,0.6-4.5,1.8s-1.8,2.9-2,5.1
			h12.3c0-2.3-0.5-4-1.6-5.1C357.7,122.5,356.3,121.9,354.4,121.9z"/>
		<path class="st9" d="M408.5,126.9c0,5.3-1.4,9.4-4.3,12.2c-2.9,2.8-7,4.2-12.4,4.2h-8.9v-32.1h9.9c5,0,8.9,1.4,11.7,4.1
			C407.1,118,408.5,121.9,408.5,126.9z M404.2,127c0-4.1-1-7.2-3-9.3c-2-2.1-5.1-3.2-9.1-3.2h-5.3v25.2h4.4
			C399.9,139.8,404.2,135.6,404.2,127z"/>
		<path class="st9" d="M425.3,143.7c-3.6,0-6.5-1.1-8.5-3.3c-2.1-2.2-3.1-5.2-3.1-9c0-3.9,1-6.9,2.9-9.2c1.9-2.3,4.5-3.4,7.8-3.4
			c3,0,5.4,1,7.3,2.9c1.8,2,2.7,4.6,2.7,7.9v2.4h-16.5c0.1,2.7,0.8,4.8,2.1,6.2s3.2,2.1,5.6,2.1c1.3,0,2.5-0.1,3.7-0.3
			c1.2-0.2,2.5-0.7,4.1-1.3v3.5c-1.3,0.6-2.6,1-3.8,1.2S426.9,143.7,425.3,143.7z M424.3,121.9c-1.9,0-3.4,0.6-4.5,1.8
			s-1.8,2.9-2,5.1h12.3c0-2.3-0.5-4-1.6-5.1C427.6,122.5,426.2,121.9,424.3,121.9z"/>
		<path class="st9" d="M450.1,143.7c-3.5,0-6.2-1.1-8.1-3.2c-1.9-2.1-2.9-5.2-2.9-9.2c0-4,1-7.2,2.9-9.3c2-2.2,4.7-3.3,8.4-3.3
			c1.2,0,2.3,0.1,3.5,0.4c1.1,0.2,2.1,0.6,2.8,0.9l-1.2,3.3c-2-0.8-3.8-1.1-5.2-1.1c-2.4,0-4.2,0.8-5.4,2.3
			c-1.2,1.5-1.7,3.8-1.7,6.8c0,2.9,0.6,5.1,1.7,6.7c1.2,1.5,2.9,2.3,5.1,2.3c2.1,0,4.2-0.5,6.3-1.4v3.5
			C454.7,143.3,452.6,143.7,450.1,143.7z"/>
		<path class="st9" d="M461.7,112.6c0-0.9,0.2-1.5,0.7-1.9c0.4-0.4,1-0.6,1.7-0.6c0.6,0,1.2,0.2,1.6,0.6c0.5,0.4,0.7,1,0.7,1.9
			c0,0.9-0.2,1.5-0.7,1.9c-0.5,0.4-1,0.6-1.6,0.6c-0.7,0-1.2-0.2-1.7-0.6C462,114.1,461.7,113.5,461.7,112.6z M466,143.3h-4v-24.1h4
			V143.3z"/>
		<path class="st9" d="M489.4,136.6c0,2.3-0.8,4-2.5,5.2c-1.7,1.2-4,1.9-7.1,1.9c-3.2,0-5.7-0.5-7.6-1.5v-3.6
			c2.7,1.3,5.2,1.9,7.7,1.9c2,0,3.4-0.3,4.4-1s1.4-1.5,1.4-2.6c0-1-0.4-1.8-1.3-2.4c-0.9-0.7-2.4-1.4-4.6-2.3
			c-2.3-0.9-3.9-1.6-4.8-2.3c-0.9-0.6-1.6-1.3-2-2.1c-0.4-0.8-0.6-1.7-0.6-2.8c0-2,0.8-3.5,2.4-4.7s3.8-1.7,6.6-1.7
			c2.7,0,5.3,0.5,7.7,1.6l-1.3,3.1c-2.4-1-4.7-1.5-6.6-1.5c-1.6,0-2.9,0.3-3.7,0.8c-0.8,0.5-1.3,1.2-1.3,2.1c0,0.9,0.4,1.6,1.1,2.2
			c0.7,0.6,2.4,1.4,5.1,2.4c2,0.7,3.5,1.4,4.5,2.1c1,0.6,1.7,1.4,2.1,2.2C489.1,134.5,489.4,135.5,489.4,136.6z"/>
		<path class="st9" d="M494.9,112.6c0-0.9,0.2-1.5,0.7-1.9c0.4-0.4,1-0.6,1.7-0.6c0.6,0,1.2,0.2,1.6,0.6c0.5,0.4,0.7,1,0.7,1.9
			c0,0.9-0.2,1.5-0.7,1.9c-0.5,0.4-1,0.6-1.6,0.6c-0.7,0-1.2-0.2-1.7-0.6C495.1,114.1,494.9,113.5,494.9,112.6z M499.2,143.3h-4
			v-24.1h4V143.3z"/>
		<path class="st9" d="M527.8,131.2c0,3.9-1,7-3,9.2c-2,2.2-4.7,3.3-8.3,3.3c-2.2,0-4.1-0.5-5.8-1.5c-1.7-1-3-2.5-3.9-4.4
			c-0.9-1.9-1.4-4.1-1.4-6.6c0-3.9,1-7,2.9-9.2c2-2.2,4.7-3.3,8.3-3.3c3.4,0,6.1,1.1,8.1,3.4C526.8,124.3,527.8,127.3,527.8,131.2z
			 M509.5,131.2c0,3,0.6,5.3,1.8,6.9c1.2,1.6,3,2.4,5.3,2.4c2.3,0,4.1-0.8,5.3-2.4c1.2-1.6,1.8-3.9,1.8-6.9c0-3-0.6-5.3-1.8-6.8
			c-1.2-1.5-3-2.3-5.3-2.3C511.9,122,509.5,125.1,509.5,131.2z"/>
		<path class="st9" d="M550.5,143.3v-15.4c0-2-0.4-3.4-1.3-4.4c-0.9-1-2.2-1.4-4.1-1.4c-2.5,0-4.3,0.7-5.4,2.1
			c-1.1,1.4-1.7,3.6-1.7,6.7v12.5h-4v-24.1h3.2l0.6,3.3h0.2c0.7-1.2,1.8-2.1,3.1-2.8c1.3-0.7,2.8-1,4.5-1c3,0,5.2,0.7,6.6,2.2
			s2.2,3.7,2.2,6.7v15.7H550.5z"/>
		<path class="st9" d="M223.4,189.3l-10.6-28.2h-0.2c0.2,2.3,0.3,5.2,0.3,8.7v19.5h-3.7v-32.1h6l9.9,26.3h0.2l10.1-26.3h5.9v32.1h-4
			v-19.8c0-2.2,0.1-5,0.3-8.4h-0.2l-10.7,28.1H223.4z"/>
		<path class="st9" d="M264.4,189.3l-0.8-3.4h-0.2c-1.2,1.5-2.4,2.5-3.6,3.1c-1.2,0.5-2.7,0.8-4.5,0.8c-2.4,0-4.2-0.6-5.6-1.9
			s-2-3-2-5.3c0-4.9,3.9-7.5,11.6-7.7l4.1-0.2v-1.4c0-1.8-0.4-3.2-1.2-4.1c-0.8-0.9-2.1-1.3-3.8-1.3c-1.3,0-2.5,0.2-3.6,0.6
			c-1.1,0.4-2.2,0.8-3.2,1.3l-1.2-3c1.2-0.6,2.5-1.1,4-1.5c1.4-0.4,2.9-0.5,4.3-0.5c2.9,0,5.1,0.6,6.5,1.9s2.1,3.3,2.1,6.2v16.4
			H264.4z M256.2,186.5c2.2,0,4-0.6,5.2-1.8c1.3-1.2,1.9-2.9,1.9-5.1v-2.2l-3.6,0.2c-2.8,0.1-4.8,0.5-6.1,1.3
			c-1.3,0.8-1.9,2-1.9,3.7c0,1.3,0.4,2.2,1.2,2.9C253.8,186.2,254.8,186.5,256.2,186.5z"/>
		<path class="st9" d="M278.6,176.9l1.3-1.7l1.5-1.8l7.7-8.2h4.6l-9.8,10.3l10.4,13.8h-4.8l-8.4-11.3l-2.7,2.4v8.9h-3.9v-34.2h3.9
			V173l-0.2,3.9H278.6z"/>
		<path class="st9" d="M298.5,158.6c0-0.9,0.2-1.5,0.7-1.9c0.4-0.4,1-0.6,1.7-0.6c0.6,0,1.2,0.2,1.6,0.6c0.5,0.4,0.7,1,0.7,1.9
			c0,0.9-0.2,1.5-0.7,1.9c-0.5,0.4-1,0.6-1.6,0.6c-0.7,0-1.2-0.2-1.7-0.6C298.7,160.1,298.5,159.5,298.5,158.6z M302.7,189.3h-4
			v-24.1h4V189.3z"/>
		<path class="st9" d="M326.8,189.3v-15.4c0-2-0.4-3.4-1.3-4.4c-0.9-1-2.2-1.4-4.1-1.4c-2.5,0-4.3,0.7-5.4,2.1
			c-1.1,1.4-1.7,3.6-1.7,6.7v12.5h-4v-24.1h3.2l0.6,3.3h0.2c0.7-1.2,1.8-2.1,3.1-2.8c1.3-0.7,2.8-1,4.5-1c3,0,5.2,0.7,6.6,2.2
			s2.2,3.7,2.2,6.7v15.7H326.8z"/>
		<path class="st9" d="M354.3,189.1l0.1-3h-0.2c-1.6,2.4-4.1,3.6-7.5,3.6c-3.1,0-5.6-1.1-7.3-3.3c-1.8-2.2-2.6-5.2-2.6-9.2
			c0-3.9,0.9-6.9,2.6-9.2c1.8-2.2,4.2-3.4,7.2-3.4c3.3,0,5.8,1.2,7.6,3.6h0.2l0.5-3.2h3.1v24.5c0,3.5-0.9,6.1-2.6,7.8
			c-1.8,1.7-4.5,2.6-8.2,2.6c-3.5,0-6.4-0.5-8.7-1.5v-3.6c2.3,1.3,5.3,1.9,8.9,1.9c2.1,0,3.7-0.6,4.9-1.8c1.2-1.2,1.8-2.9,1.8-5
			V189.1z M347.4,186.5c2.4,0,4.2-0.7,5.3-2c1.1-1.3,1.7-3.4,1.7-6.3v-0.9c0-3.2-0.6-5.6-1.7-7c-1.1-1.5-2.9-2.2-5.4-2.2
			c-2,0-3.6,0.8-4.7,2.4c-1.1,1.6-1.7,3.9-1.7,6.9c0,3,0.5,5.3,1.6,6.8C343.6,185.7,345.2,186.5,347.4,186.5z"/>
		<path class="st9" d="M392.3,189.3l-10.6-28.2h-0.2c0.2,2.3,0.3,5.2,0.3,8.7v19.5h-3.7v-32.1h6l9.9,26.3h0.2l10.1-26.3h5.9v32.1h-4
			v-19.8c0-2.2,0.1-5,0.3-8.4h-0.2l-10.7,28.1H392.3z"/>
		<path class="st9" d="M439.3,177.2c0,3.9-1,7-3,9.2c-2,2.2-4.7,3.3-8.3,3.3c-2.2,0-4.1-0.5-5.8-1.5c-1.7-1-3-2.5-3.9-4.4
			s-1.4-4.1-1.4-6.6c0-3.9,1-7,2.9-9.2c2-2.2,4.7-3.3,8.3-3.3c3.4,0,6.1,1.1,8.1,3.4C438.3,170.3,439.3,173.3,439.3,177.2z
			 M421.1,177.2c0,3,0.6,5.3,1.8,6.9c1.2,1.6,3,2.4,5.3,2.4c2.3,0,4.1-0.8,5.3-2.4c1.2-1.6,1.8-3.9,1.8-6.9c0-3-0.6-5.3-1.8-6.8
			c-1.2-1.5-3-2.3-5.3-2.3C423.5,168,421.1,171.1,421.1,177.2z"/>
		<path class="st9" d="M454.2,189.7c-3.1,0-5.6-1.1-7.3-3.3s-2.6-5.2-2.6-9.2c0-3.9,0.9-7,2.6-9.2c1.7-2.2,4.2-3.3,7.3-3.3
			c3.2,0,5.7,1.2,7.5,3.6h0.3c0-0.3-0.1-0.9-0.2-1.8c-0.1-0.9-0.1-1.5-0.1-1.8v-9.6h4v34.2h-3.2l-0.6-3.2h-0.2
			C460,188.5,457.5,189.7,454.2,189.7z M454.8,186.4c2.4,0,4.2-0.7,5.3-2c1.1-1.3,1.7-3.5,1.7-6.4v-0.7c0-3.4-0.6-5.7-1.7-7.2
			c-1.1-1.4-2.9-2.1-5.3-2.1c-2,0-3.6,0.8-4.7,2.4c-1.1,1.6-1.7,3.9-1.7,6.9c0,3,0.6,5.3,1.7,6.8
			C451.1,185.7,452.7,186.4,454.8,186.4z"/>
		<path class="st9" d="M483.6,189.7c-3.6,0-6.5-1.1-8.5-3.3c-2.1-2.2-3.1-5.2-3.1-9c0-3.9,1-6.9,2.9-9.2c1.9-2.3,4.5-3.4,7.8-3.4
			c3,0,5.4,1,7.3,2.9c1.8,2,2.7,4.6,2.7,7.9v2.4H476c0.1,2.7,0.8,4.8,2.1,6.2s3.2,2.1,5.6,2.1c1.3,0,2.5-0.1,3.7-0.3
			c1.2-0.2,2.5-0.7,4.1-1.3v3.5c-1.3,0.6-2.6,1-3.8,1.2S485.1,189.7,483.6,189.7z M482.6,167.9c-1.9,0-3.4,0.6-4.5,1.8
			s-1.8,2.9-2,5.1h12.3c0-2.3-0.5-4-1.6-5.1C485.8,168.5,484.4,167.9,482.6,167.9z"/>
		<path class="st9" d="M502.6,189.3h-4v-34.2h4V189.3z"/>
	</g>
	<path class="st10" d="M159.1,247.2H0V161c0-2.8,2.2-5,5-5h149.1c2.8,0,5,2.2,5,5V247.2z"/>
	<path class="st11" d="M152.1,261.4H7c-3.9,0-7-3.1-7-7v-7.2h159.1v7.2C159.1,258.3,155.9,261.4,152.1,261.4z"/>
</g>
</svg>