<?xml version="1.0" encoding="utf-8"?>
<!-- Generator: Adobe Illustrator 19.1.0, SVG Export Plug-In . SVG Version: 6.00 Build 0)  -->
<svg version="1.1" id="Layer_1" xmlns="http://www.w3.org/2000/svg" xmlns:xlink="http://www.w3.org/1999/xlink" x="0px" y="0px"
	 viewBox="0 0 527.4 331.8" style="enable-background:new 0 0 527.4 331.8;" xml:space="preserve">
<style type="text/css">
	.st0{fill:#0C6B88;stroke:#0C6B88;stroke-width:1.6552;stroke-linecap:round;stroke-linejoin:round;stroke-miterlimit:10;}
	.st1{fill:#49C2C6;stroke:#49C2C6;stroke-width:2.4912;stroke-miterlimit:10;}
	.st2{fill:#FFFFFF;}
	.st3{fill:none;stroke:#F2673A;stroke-width:2.4912;stroke-linecap:round;stroke-linejoin:round;stroke-miterlimit:10;}
	.st4{fill:#E3E3E3;stroke:#E3E3E3;stroke-width:2.4912;stroke-miterlimit:10;}
	.st5{fill:#0C6B88;stroke:#0C6B88;stroke-width:1.688;stroke-linecap:round;stroke-linejoin:round;stroke-miterlimit:10;}
	.st6{fill:#E3E3E3;stroke:#E3E3E3;stroke-width:2.0134;stroke-miterlimit:10;}
	.st7{fill:#49C2C6;}
	.st8{fill:#F2673A;}
	.st9{fill:#E3E3E3;stroke:#E3E3E3;stroke-width:2.0168;stroke-miterlimit:10;}
	.st10{fill:none;stroke:#49C2C6;stroke-miterlimit:10;}
	.st11{fill:#E3E3E3;stroke:#E3E3E3;stroke-width:1.7954;stroke-miterlimit:10;}
	.st12{fill:#E3E3E3;stroke:#E3E3E3;stroke-width:0.3287;stroke-miterlimit:10;}
	.st13{fill:#E3E3E3;stroke:#E3E3E3;stroke-width:0.1419;stroke-miterlimit:10;}
	.st14{fill:#E3E3E3;stroke:#E3E3E3;stroke-width:1.3743;stroke-miterlimit:10;}
	.st15{fill:#F2673A;stroke:#F2673A;stroke-width:3.2068;stroke-miterlimit:10;}
	.st16{fill:#49C2C6;stroke:#49C2C6;stroke-width:2.7946;stroke-miterlimit:10;}
	.st17{fill:#E3E3E3;stroke:#E3E3E3;stroke-width:2.7946;stroke-miterlimit:10;}
	.st18{fill:none;stroke:#E3E3E3;stroke-width:1.1825;stroke-miterlimit:10;}
	.st19{fill:#E3E3E3;stroke:#E3E3E3;stroke-width:1.1825;stroke-linecap:round;stroke-linejoin:round;stroke-miterlimit:10;}
	.st20{fill:#49C2C6;stroke:#49C2C6;stroke-width:1.1825;stroke-linecap:round;stroke-linejoin:round;stroke-miterlimit:10;}
	.st21{fill:#F2673A;stroke:#F2673A;stroke-width:1.1825;stroke-miterlimit:10;}
	.st22{fill:#0D6C88;}
	.st23{fill:none;stroke:#F2673A;stroke-width:1.1825;stroke-linecap:round;stroke-linejoin:round;stroke-miterlimit:10;}
	.st24{fill:none;stroke:#EB6B4B;stroke-width:2.1757;stroke-miterlimit:10;}
	.st25{fill:#CBCACC;stroke:#CBCACC;stroke-width:2.3677;stroke-miterlimit:10;}
	.st26{fill:#E3E3E3;stroke:#E3E3E3;stroke-width:2.1757;stroke-miterlimit:10;}
	.st27{fill:none;stroke:#49C2C6;stroke-width:0.9706;stroke-miterlimit:10;}
	.st28{fill:#49C2C6;stroke:#189995;stroke-width:1.1276;stroke-linecap:round;stroke-linejoin:round;stroke-miterlimit:10;}
	.st29{fill:#49C2C6;stroke:#189995;stroke-width:1.1672;stroke-linecap:round;stroke-linejoin:round;stroke-miterlimit:10;}
	.st30{fill:#0C6B88;stroke:#0C6B88;stroke-width:1.7438;stroke-linecap:round;stroke-linejoin:round;stroke-miterlimit:10;}
	.st31{fill:#49C2C6;stroke:#49C2C6;stroke-width:2.9989;stroke-miterlimit:10;}
	.st32{fill:#9D9EA0;}
	.st33{fill:#0C6B88;stroke:#0C6B88;stroke-width:0.7602;stroke-linecap:round;stroke-linejoin:round;stroke-miterlimit:10;}
	.st34{fill:#ED6A4A;}
	.st35{fill:none;stroke:#49C2C6;stroke-width:2.3652;stroke-linecap:round;stroke-linejoin:round;stroke-miterlimit:10;}
	.st36{fill:none;stroke:#49C2C6;stroke-width:2.3217;stroke-linecap:round;stroke-linejoin:round;stroke-miterlimit:10;}
	.st37{fill:#0C6B88;}
</style>
<rect x="875.9" y="304.6" class="st0" width="1018.6" height="614.9"/>
<g>
	<path class="st1" d="M1675.5,858.9h-129.4c-3.6,0-6.5-2.9-6.5-6.5V671.9c0-3.6,2.9-6.5,6.5-6.5h129.4c3.6,0,6.5,2.9,6.5,6.5v180.5
		C1682,856,1679.1,858.9,1675.5,858.9z"/>
	<rect x="1555.8" y="675.8" class="st2" width="109.6" height="158.5"/>
	<line class="st3" x1="1592.4" y1="721.6" x2="1643.2" y2="721.6"/>
	<line class="st3" x1="1592.4" y1="732.1" x2="1654.3" y2="732.1"/>
	<line class="st3" x1="1592.4" y1="741.7" x2="1643.2" y2="741.7"/>
	<line class="st3" x1="1592.4" y1="752.2" x2="1654.3" y2="752.2"/>
	<line class="st3" x1="1592.4" y1="761.7" x2="1643.2" y2="761.7"/>
	<line class="st3" x1="1592.4" y1="772.2" x2="1654.3" y2="772.2"/>
	<line class="st3" x1="1592.4" y1="781.8" x2="1643.2" y2="781.8"/>
	<line class="st3" x1="1592.4" y1="792.3" x2="1654.3" y2="792.3"/>
	<rect x="1570.3" y="719.3" class="st4" width="13.9" height="12.8"/>
	<rect x="1570.3" y="740.5" class="st4" width="13.9" height="12.8"/>
	<rect x="1570.3" y="761.7" class="st4" width="13.9" height="12.8"/>
	<rect x="1570.3" y="782.9" class="st4" width="13.9" height="12.8"/>
	<path class="st5" d="M1639,665.4h-12.7v-3.8h0c-0.3-8.4-7.2-15.1-15.7-15.1c-8.5,0-15.4,6.7-15.7,15.1h0v3.8h-12.2
		c-4.8,0-8.8,3.9-8.8,8.8v5.8c0,1,0.2,2,0.5,2.9h73c0.3-0.9,0.5-1.9,0.5-2.9v-5.8C1647.8,669.3,1643.8,665.4,1639,665.4z
		 M1605.3,661.6c0-2.9,2.3-5.2,5.2-5.2c2.9,0,5.2,2.3,5.2,5.2v3.8h-10.4V661.6z"/>
</g>
<rect x="1305.4" y="669.2" class="st6" width="16.4" height="54.4"/>
<rect x="1330.6" y="657.5" class="st7" width="16.4" height="66.7"/>
<rect x="1355.8" y="689.6" class="st8" width="16.4" height="34.6"/>
<rect x="1381" y="647.1" class="st9" width="16.4" height="76.5"/>
<rect x="1275.5" y="646.4" class="st7" width="16.4" height="77.2"/>
<line class="st10" x1="1255.2" y1="724.2" x2="1509.8" y2="724.2"/>
<path class="st2" d="M989.9,456.4l-12.7-45h-0.3c0.5,9.2,0.7,15.3,0.7,18.3v26.7h-10V399h15.2l12.5,43.9h0.2l13.2-43.9h15.2v57.4
	h-10.4v-27.2c0-1.3,0-2.8,0.1-4.4c0-1.7,0.2-6.1,0.5-13.3h-0.3l-13.6,45H989.9z"/>
<path class="st2" d="M1073,434.4c0,7.1-1.7,12.7-5.2,16.8c-3.5,4-8.3,6-14.5,6c-3.9,0-7.3-0.9-10.2-2.8c-3-1.8-5.2-4.5-6.8-8
	c-1.6-3.5-2.4-7.5-2.4-12.1c0-7.2,1.7-12.7,5.2-16.7c3.4-4,8.3-6,14.5-6c3.9,0,7.3,0.9,10.2,2.7c3,1.8,5.2,4.5,6.8,7.9
	C1072.2,425.8,1073,429.8,1073,434.4z M1045.1,434.4c0,4.3,0.7,7.6,2,9.9c1.3,2.2,3.4,3.3,6.4,3.3c2.9,0,5-1.1,6.3-3.3
	c1.3-2.2,1.9-5.5,1.9-9.9c0-4.3-0.6-7.6-1.9-9.8c-1.3-2.2-3.4-3.3-6.4-3.3c-2.9,0-5.1,1.1-6.4,3.2
	C1045.8,426.8,1045.1,430,1045.1,434.4z"/>
<path class="st2" d="M1104.6,411.7c4.8,0,8.5,2,11.2,6.1c2.7,4,4,9.6,4,16.6c0,7.3-1.4,12.9-4.2,16.8c-2.8,4-6.6,6-11.3,6
	c-4.7,0-8.5-1.9-11.2-5.6h-0.8l-1.8,4.8h-8.4v-61.1h11v14.2c0,1.8-0.1,4.7-0.4,8.7h0.4C1095.7,413.9,1099.5,411.7,1104.6,411.7z
	 M1101,421.3c-2.7,0-4.7,0.9-6,2.7c-1.3,1.8-1.9,4.8-1.9,9v1.3c0,4.7,0.6,8.1,1.9,10.1c1.3,2,3.3,3.1,6.1,3.1c2.3,0,4.1-1.1,5.4-3.4
	c1.3-2.3,2-5.6,2-9.9c0-4.3-0.7-7.6-2-9.7C1105.2,422.4,1103.4,421.3,1101,421.3z"/>
<path class="st2" d="M1128.4,401.2c0-3.9,2-5.9,6-5.9c4,0,6,2,6,5.9c0,1.9-0.5,3.3-1.5,4.3c-1,1-2.5,1.6-4.5,1.6
	C1130.4,407.1,1128.4,405.1,1128.4,401.2z M1139.9,456.4h-11v-43.9h11V456.4z"/>
<path class="st2" d="M1162.5,456.4h-11v-61.1h11V456.4z"/>
<path class="st2" d="M1192.3,457.2c-6.5,0-11.6-1.9-15.2-5.9c-3.7-3.9-5.5-9.4-5.5-16.6c0-7.4,1.7-13,5.1-17.1c3.4-4,8.1-6,14-6
	c5.7,0,10.1,1.8,13.3,5.3c3.2,3.5,4.8,8.4,4.8,14.6v5.8h-26c0.1,3.4,1,6.1,2.8,8c1.7,1.9,4.2,2.9,7.3,2.9c2.4,0,4.7-0.3,6.9-0.8
	c2.2-0.5,4.4-1.4,6.8-2.6v9.3c-1.9,1-4,1.8-6.2,2.3C1198.1,457,1195.4,457.2,1192.3,457.2z M1190.7,420.2c-2.3,0-4.2,0.8-5.5,2.4
	c-1.3,1.6-2.1,3.9-2.3,6.9h15.4c0-3-0.8-5.2-2.1-6.9C1194.9,421,1193,420.2,1190.7,420.2z"/>
<path class="st2" d="M998.7,524.5c0,5.2-1.7,9.3-5.1,12.3c-3.4,3-8.2,4.5-14.3,4.5c-5.6,0-10.6-1.2-14.9-3.5v-11.3
	c3.6,1.7,6.6,2.9,9,3.7c2.5,0.7,4.7,1.1,6.8,1.1c2.5,0,4.3-0.5,5.6-1.5c1.3-1,2-2.5,2-4.6c0-1.1-0.3-2.1-0.9-3
	c-0.6-0.9-1.4-1.7-2.5-2.5c-1.1-0.8-3.4-2.1-6.8-3.9c-3.2-1.6-5.6-3.2-7.3-4.8c-1.6-1.5-2.9-3.3-3.9-5.3c-1-2-1.4-4.4-1.4-7.1
	c0-5.1,1.6-9.1,4.7-12c3.2-2.9,7.5-4.4,13.1-4.4c2.7,0,5.4,0.4,7.8,1.1c2.5,0.7,5.1,1.7,7.8,3l-3.6,9.5c-2.8-1.3-5.1-2.1-7-2.6
	c-1.8-0.5-3.7-0.7-5.4-0.7c-2.1,0-3.7,0.5-4.9,1.6c-1.1,1.1-1.7,2.5-1.7,4.2c0,1.1,0.2,2,0.7,2.8c0.5,0.8,1.2,1.6,2.2,2.3
	c1,0.7,3.4,2.1,7.1,4c4.9,2.6,8.3,5.1,10.1,7.7C997.8,517.6,998.7,520.8,998.7,524.5z"/>
<path class="st2" d="M1044.6,540.4h-11v-25.6c0-6.3-2.2-9.5-6.5-9.5c-3.1,0-5.3,1.1-6.7,3.4c-1.4,2.3-2.1,6-2.1,11.1v20.7h-11v-61.1
	h11v12.4c0,1-0.1,3.2-0.3,6.8l-0.3,3.5h0.6c2.5-4.3,6.4-6.4,11.7-6.4c4.7,0,8.3,1.4,10.8,4.2c2.5,2.8,3.7,6.8,3.7,11.9V540.4z"/>
<path class="st2" d="M1092.6,518.4c0,7.1-1.7,12.7-5.2,16.8c-3.5,4-8.3,6-14.5,6c-3.9,0-7.3-0.9-10.2-2.8c-3-1.8-5.2-4.5-6.8-8
	c-1.6-3.5-2.4-7.5-2.4-12.1c0-7.2,1.7-12.7,5.2-16.7c3.4-4,8.3-6,14.5-6c3.9,0,7.3,0.9,10.2,2.7c3,1.8,5.2,4.5,6.8,7.9
	C1091.8,509.8,1092.6,513.8,1092.6,518.4z M1064.7,518.4c0,4.3,0.7,7.6,2,9.9c1.3,2.2,3.4,3.3,6.4,3.3c2.9,0,5-1.1,6.3-3.3
	c1.3-2.2,1.9-5.5,1.9-9.9c0-4.3-0.6-7.6-1.9-9.8c-1.3-2.2-3.4-3.3-6.4-3.3c-2.9,0-5.1,1.1-6.4,3.2
	C1065.4,510.8,1064.7,514,1064.7,518.4z"/>
<path class="st2" d="M1123.9,541.2c-4.7,0-8.5-1.9-11.2-5.6h-0.6c0.4,3.7,0.6,5.8,0.6,6.4v17.8h-11v-63.2h8.9l1.6,5.7h0.5
	c2.6-4.3,6.4-6.5,11.4-6.5c4.8,0,8.5,2,11.2,6c2.7,4,4,9.6,4,16.7c0,4.7-0.6,8.8-1.9,12.2c-1.3,3.5-3.1,6.1-5.4,7.9
	C1129.8,540.3,1127,541.2,1123.9,541.2z M1120.6,505.3c-2.7,0-4.7,0.9-6,2.7c-1.3,1.8-1.9,4.8-1.9,9v1.3c0,4.7,0.6,8.1,1.9,10.1
	c1.3,2,3.3,3.1,6.1,3.1c4.9,0,7.4-4.4,7.4-13.3c0-4.3-0.6-7.6-1.8-9.7C1125.1,506.4,1123.2,505.3,1120.6,505.3z"/>
<path class="st2" d="M1170.6,541.2c-4.7,0-8.5-1.9-11.2-5.6h-0.6c0.4,3.7,0.6,5.8,0.6,6.4v17.8h-11v-63.2h8.9l1.6,5.7h0.5
	c2.6-4.3,6.4-6.5,11.4-6.5c4.8,0,8.5,2,11.2,6c2.7,4,4,9.6,4,16.7c0,4.7-0.6,8.8-1.9,12.2c-1.3,3.5-3.1,6.1-5.4,7.9
	C1176.5,540.3,1173.8,541.2,1170.6,541.2z M1167.4,505.3c-2.7,0-4.7,0.9-6,2.7c-1.3,1.8-1.9,4.8-1.9,9v1.3c0,4.7,0.6,8.1,1.9,10.1
	c1.3,2,3.3,3.1,6.1,3.1c4.9,0,7.4-4.4,7.4-13.3c0-4.3-0.6-7.6-1.8-9.7C1171.9,506.4,1170,505.3,1167.4,505.3z"/>
<path class="st2" d="M1194.8,485.2c0-3.9,2-5.9,6-5.9c4,0,6,2,6,5.9c0,1.9-0.5,3.3-1.5,4.3c-1,1-2.5,1.6-4.5,1.6
	C1196.8,491.1,1194.8,489.1,1194.8,485.2z M1206.3,540.4h-11v-43.9h11V540.4z"/>
<path class="st2" d="M1255.1,540.4h-11v-25.6c0-3.2-0.5-5.5-1.6-7.1c-1-1.6-2.7-2.4-4.9-2.4c-3.1,0-5.3,1.1-6.7,3.4
	c-1.4,2.2-2.1,5.9-2.1,11.1v20.7h-11v-43.9h8.4l1.5,5.6h0.6c1.2-2.1,2.9-3.7,5.1-4.8c2.2-1.1,4.6-1.6,7.3-1.6
	c4.7,0,8.3,1.4,10.7,4.1c2.4,2.8,3.6,6.7,3.6,12V540.4z"/>
<path class="st2" d="M1301.6,540.5c0,6.3-1.7,11.1-5.1,14.4c-3.4,3.3-8.4,4.9-15.1,4.9c-5.9,0-10.9-0.9-15.1-2.6v-9.6
	c4.9,2.3,10.1,3.4,15.7,3.4c5.7,0,8.5-3.3,8.5-10v-0.9l0.3-5.4h-0.3c-2.6,4.3-6.4,6.5-11.4,6.5c-4.8,0-8.6-2-11.2-6.1
	c-2.7-4.1-4-9.6-4-16.6c0-7.2,1.4-12.8,4.1-16.8c2.8-4,6.6-6,11.4-6c5,0,8.9,2.1,11.7,6.4h0.3l0.9-5.6h9.3V540.5z M1283.1,531.8
	c3,0,5.1-0.9,6.4-2.8c1.3-1.8,1.9-4.8,1.9-9v-1.5c0-4.7-0.7-8.1-2-10.1c-1.3-2.1-3.5-3.1-6.4-3.1c-5.2,0-7.8,4.4-7.8,13.3
	c0,4.4,0.6,7.7,1.9,9.9C1278.4,530.8,1280.4,531.8,1283.1,531.8z"/>
<path class="st7" d="M963.8,570.5c0-2.1,1.1-3.2,3.3-3.2c2.2,0,3.3,1.1,3.3,3.2c0,1-0.3,1.8-0.8,2.4c-0.5,0.6-1.4,0.8-2.5,0.8
	C964.9,573.7,963.8,572.7,963.8,570.5z M970.1,600.7h-6v-24h6V600.7z"/>
<path class="st7" d="M996.8,600.7h-6v-14c0-1.7-0.3-3-0.8-3.9c-0.6-0.9-1.5-1.3-2.7-1.3c-1.7,0-2.9,0.6-3.7,1.8
	c-0.8,1.2-1.1,3.3-1.1,6.1v11.3h-6v-24h4.6l0.8,3.1h0.3c0.7-1.2,1.6-2,2.8-2.6c1.2-0.6,2.5-0.9,4-0.9c2.6,0,4.5,0.8,5.8,2.3
	c1.3,1.5,2,3.7,2,6.5V600.7z"/>
<path class="st7" d="M1031,592c0,2.8-0.9,5.1-2.8,6.7c-1.9,1.6-4.5,2.5-7.8,2.5c-3.1,0-5.8-0.6-8.2-1.9v-6.2c1.9,0.9,3.6,1.6,4.9,2
	c1.3,0.4,2.6,0.6,3.7,0.6c1.3,0,2.4-0.3,3.1-0.8c0.7-0.6,1.1-1.4,1.1-2.5c0-0.6-0.2-1.2-0.5-1.6c-0.3-0.5-0.8-0.9-1.4-1.4
	c-0.6-0.4-1.9-1.2-3.7-2.1c-1.8-0.9-3.1-1.8-4-2.6c-0.9-0.8-1.6-1.8-2.1-2.9c-0.5-1.1-0.8-2.4-0.8-3.9c0-2.8,0.9-5,2.6-6.6
	c1.7-1.6,4.1-2.4,7.2-2.4c1.5,0,2.9,0.2,4.3,0.6c1.4,0.4,2.8,0.9,4.3,1.6l-2,5.2c-1.5-0.7-2.8-1.2-3.8-1.4c-1-0.3-2-0.4-3-0.4
	c-1.2,0-2,0.3-2.7,0.9c-0.6,0.6-0.9,1.4-0.9,2.3c0,0.6,0.1,1.1,0.4,1.5c0.3,0.4,0.6,0.9,1.2,1.3c0.5,0.4,1.8,1.1,3.9,2.2
	c2.7,1.4,4.6,2.8,5.6,4.2C1030.5,588.2,1031,590,1031,592z"/>
<path class="st7" d="M1055.9,588.7c0,3.9-0.9,7-2.8,9.2c-1.9,2.2-4.5,3.3-7.9,3.3c-2.1,0-4-0.5-5.6-1.5c-1.6-1-2.9-2.5-3.7-4.4
	c-0.9-1.9-1.3-4.1-1.3-6.6c0-3.9,0.9-7,2.8-9.2c1.9-2.2,4.5-3.3,7.9-3.3c2.1,0,4,0.5,5.6,1.5c1.6,1,2.9,2.4,3.7,4.3
	C1055.4,584,1055.9,586.2,1055.9,588.7z M1040.6,588.7c0,2.4,0.4,4.2,1.1,5.4c0.7,1.2,1.9,1.8,3.5,1.8c1.6,0,2.8-0.6,3.5-1.8
	c0.7-1.2,1.1-3,1.1-5.4c0-2.4-0.4-4.2-1.1-5.4c-0.7-1.2-1.9-1.8-3.5-1.8c-1.6,0-2.8,0.6-3.5,1.8
	C1041,584.5,1040.6,586.3,1040.6,588.7z"/>
<path class="st7" d="M1076.5,600.7l-0.8-3.1h-0.3c-0.6,1.1-1.6,2-2.7,2.6c-1.2,0.6-2.5,0.9-4.1,0.9c-2.6,0-4.6-0.8-5.9-2.3
	c-1.3-1.5-2-3.7-2-6.5v-15.7h6v14c0,1.7,0.3,3,0.8,3.9c0.6,0.9,1.5,1.3,2.7,1.3c1.7,0,2.9-0.6,3.7-1.8s1.1-3.3,1.1-6.1v-11.3h6v24
	H1076.5z"/>
<path class="st7" d="M1096.7,596c1.1,0,2.3-0.3,3.8-0.8v4.9c-1.5,0.7-3.3,1.1-5.5,1.1c-2.4,0-4.2-0.7-5.3-2c-1.1-1.3-1.6-3.3-1.6-6
	v-11.6h-2.9v-2.8l3.3-2.2l1.7-5.1h3.9v5.1h6.2v4.9h-6.2v11.6c0,0.9,0.2,1.6,0.7,2.1C1095.3,595.7,1096,596,1096.7,596z"/>
<path class="st7" d="M1125.4,600.7h-6v-14c0-3.5-1.2-5.2-3.6-5.2c-1.7,0-2.9,0.6-3.7,1.9c-0.8,1.2-1.1,3.3-1.1,6.1v11.3h-6v-33.4h6
	v6.8c0,0.5,0,1.8-0.1,3.7l-0.1,1.9h0.3c1.3-2.4,3.5-3.5,6.4-3.5c2.6,0,4.6,0.8,5.9,2.3c1.3,1.5,2,3.7,2,6.5V600.7z"/>
<path class="st7" d="M1148.2,600.7h-16.6v-31.4h16.6v5.5h-10.5v6.9h9.8v5.5h-9.8v8.1h10.5V600.7z"/>
<path class="st7" d="M1167.8,600.7l-1.2-3.3h-0.2c-1,1.4-2.1,2.4-3.1,2.9c-1.1,0.5-2.5,0.8-4.2,0.8c-2.1,0-3.8-0.7-5-2
	c-1.2-1.3-1.8-3.2-1.8-5.6c0-2.6,0.8-4.4,2.5-5.6c1.6-1.2,4.1-1.9,7.4-2l3.8-0.1v-1.1c0-2.4-1.1-3.7-3.4-3.7c-1.8,0-3.8,0.6-6.2,1.7
	l-2-4.4c2.5-1.4,5.4-2.2,8.5-2.2c3,0,5.2,0.7,6.8,2.1c1.6,1.4,2.4,3.5,2.4,6.4v16H1167.8z M1166,589.6l-2.3,0.1
	c-1.8,0.1-3.1,0.4-3.9,1c-0.9,0.6-1.3,1.6-1.3,2.9c0,1.8,1,2.8,2.9,2.8c1.4,0,2.5-0.4,3.3-1.3c0.8-0.9,1.3-2,1.3-3.5V589.6z"/>
<path class="st7" d="M1193.6,593.6c0,2.5-0.8,4.3-2.4,5.6c-1.6,1.3-3.9,1.9-7.1,1.9c-1.6,0-3-0.1-4.1-0.4c-1.1-0.2-2.2-0.6-3.2-1
	v-5.4c1.1,0.6,2.4,1.1,3.8,1.4c1.4,0.4,2.6,0.6,3.7,0.6c2.2,0,3.3-0.7,3.3-2.1c0-0.5-0.1-0.9-0.4-1.3c-0.3-0.3-0.8-0.7-1.5-1.1
	c-0.7-0.4-1.7-0.9-2.8-1.4c-1.7-0.8-2.9-1.5-3.7-2.1c-0.8-0.7-1.4-1.4-1.7-2.3c-0.4-0.9-0.5-1.9-0.5-3.1c0-2.1,0.8-3.8,2.3-5
	c1.5-1.2,3.7-1.8,6.5-1.8c2.7,0,5.2,0.6,7.8,1.9l-1.8,4.7c-1.1-0.5-2.1-0.9-3.1-1.3c-1-0.3-1.9-0.5-2.9-0.5c-1.8,0-2.7,0.5-2.7,1.6
	c0,0.6,0.3,1.1,0.9,1.5c0.6,0.4,1.8,1.1,3.8,1.9c1.7,0.8,3,1.5,3.8,2.1c0.8,0.7,1.4,1.4,1.8,2.3
	C1193.4,591.4,1193.6,592.4,1193.6,593.6z"/>
<path class="st7" d="M1207.6,596c1.1,0,2.3-0.3,3.8-0.8v4.9c-1.5,0.7-3.3,1.1-5.5,1.1c-2.4,0-4.2-0.7-5.3-2c-1.1-1.3-1.6-3.3-1.6-6
	v-11.6h-2.9v-2.8l3.3-2.2l1.7-5.1h3.9v5.1h6.2v4.9h-6.2v11.6c0,0.9,0.2,1.6,0.7,2.1C1206.2,595.7,1206.8,596,1207.6,596z"/>
<path class="st7" d="M1244.5,600.7l-2.1-7.5h-10.5l-2.1,7.5h-6.6l10.2-31.6h7.5l10.2,31.6H1244.5z M1241,587.7
	c-1.9-6.8-3-10.6-3.3-11.5c-0.2-0.9-0.4-1.6-0.5-2.1c-0.4,1.8-1.7,6.4-3.7,13.6H1241z"/>
<path class="st7" d="M1269.7,593.6c0,2.5-0.8,4.3-2.4,5.6c-1.6,1.3-3.9,1.9-7.1,1.9c-1.6,0-3-0.1-4.1-0.4c-1.1-0.2-2.2-0.6-3.2-1
	v-5.4c1.1,0.6,2.4,1.1,3.8,1.4c1.4,0.4,2.6,0.6,3.7,0.6c2.2,0,3.3-0.7,3.3-2.1c0-0.5-0.1-0.9-0.4-1.3c-0.3-0.3-0.8-0.7-1.5-1.1
	c-0.7-0.4-1.7-0.9-2.8-1.4c-1.7-0.8-2.9-1.5-3.7-2.1c-0.8-0.7-1.4-1.4-1.7-2.3c-0.4-0.9-0.5-1.9-0.5-3.1c0-2.1,0.8-3.8,2.3-5
	c1.5-1.2,3.7-1.8,6.5-1.8c2.7,0,5.2,0.6,7.8,1.9l-1.8,4.7c-1.1-0.5-2.1-0.9-3.1-1.3c-1-0.3-1.9-0.5-2.9-0.5c-1.8,0-2.7,0.5-2.7,1.6
	c0,0.6,0.3,1.1,0.9,1.5c0.6,0.4,1.8,1.1,3.8,1.9c1.7,0.8,3,1.5,3.8,2.1c0.8,0.7,1.4,1.4,1.8,2.3
	C1269.5,591.4,1269.7,592.4,1269.7,593.6z"/>
<path class="st7" d="M1274.2,570.5c0-2.1,1.1-3.2,3.3-3.2c2.2,0,3.3,1.1,3.3,3.2c0,1-0.3,1.8-0.8,2.4c-0.5,0.6-1.4,0.8-2.5,0.8
	C1275.3,573.7,1274.2,572.7,1274.2,570.5z M1280.4,600.7h-6v-24h6V600.7z"/>
<path class="st7" d="M1300.8,600.7l-1.2-3.3h-0.2c-1,1.4-2.1,2.4-3.1,2.9c-1.1,0.5-2.5,0.8-4.2,0.8c-2.1,0-3.8-0.7-5-2
	c-1.2-1.3-1.8-3.2-1.8-5.6c0-2.6,0.8-4.4,2.5-5.6c1.6-1.2,4.1-1.9,7.4-2l3.8-0.1v-1.1c0-2.4-1.1-3.7-3.4-3.7c-1.8,0-3.8,0.6-6.2,1.7
	l-2-4.4c2.5-1.4,5.4-2.2,8.5-2.2c3,0,5.2,0.7,6.8,2.1c1.6,1.4,2.4,3.5,2.4,6.4v16H1300.8z M1299,589.6l-2.3,0.1
	c-1.8,0.1-3.1,0.4-3.9,1c-0.9,0.6-1.3,1.6-1.3,2.9c0,1.8,1,2.8,2.9,2.8c1.4,0,2.5-0.4,3.3-1.3c0.8-0.9,1.3-2,1.3-3.5V589.6z"/>
<path class="st7" d="M963.8,625.2c0-2.1,1.1-3.2,3.3-3.2c2.2,0,3.3,1.1,3.3,3.2c0,1-0.3,1.8-0.8,2.4c-0.5,0.6-1.4,0.8-2.5,0.8
	C964.9,628.4,963.8,627.4,963.8,625.2z M970.1,655.5h-6v-24h6V655.5z"/>
<path class="st7" d="M996.8,655.5h-6v-14c0-1.7-0.3-3-0.8-3.9c-0.6-0.9-1.5-1.3-2.7-1.3c-1.7,0-2.9,0.6-3.7,1.8
	c-0.8,1.2-1.1,3.3-1.1,6.1v11.3h-6v-24h4.6l0.8,3.1h0.3c0.7-1.2,1.6-2,2.8-2.6c1.2-0.6,2.5-0.9,4-0.9c2.6,0,4.5,0.8,5.8,2.3
	c1.3,1.5,2,3.7,2,6.5V655.5z"/>
<path class="st7" d="M1032.2,655.5H1012v-4.6l7.3-8c2.1-2.4,3.5-4.1,4.2-5c0.7-0.9,1.1-1.8,1.4-2.6c0.3-0.8,0.4-1.6,0.4-2.5
	c0-1.3-0.3-2.2-1-2.8c-0.6-0.6-1.5-0.9-2.6-0.9c-1.1,0-2.2,0.3-3.3,0.8c-1.1,0.6-2.2,1.4-3.3,2.4l-3.3-4.3c1.4-1.3,2.6-2.2,3.5-2.8
	c0.9-0.5,2-1,3.1-1.3c1.1-0.3,2.3-0.4,3.7-0.4c1.8,0,3.4,0.4,4.8,1.1c1.4,0.7,2.5,1.7,3.2,3c0.8,1.3,1.1,2.8,1.1,4.4
	c0,1.4-0.2,2.8-0.7,4.1c-0.5,1.3-1.2,2.6-2.2,3.9c-1,1.3-2.7,3.2-5.2,5.7l-3.7,3.8v0.3h12.6V655.5z"/>
<path class="st7" d="M1055.1,639.8c0,5.5-0.8,9.6-2.5,12.2c-1.7,2.6-4.2,4-7.6,4c-3.3,0-5.8-1.4-7.5-4.1c-1.7-2.7-2.5-6.7-2.5-12.1
	c0-5.5,0.8-9.6,2.5-12.3c1.6-2.6,4.2-3.9,7.6-3.9c3.3,0,5.9,1.4,7.6,4.1C1054.3,630.4,1055.1,634.5,1055.1,639.8z M1041,639.8
	c0,3.9,0.3,6.6,0.9,8.3c0.6,1.7,1.6,2.5,3.1,2.5c1.4,0,2.4-0.8,3.1-2.5c0.6-1.7,0.9-4.4,0.9-8.3c0-3.9-0.3-6.6-1-8.3
	c-0.6-1.7-1.7-2.5-3.1-2.5c-1.4,0-2.5,0.8-3.1,2.5C1041.3,633.1,1041,635.9,1041,639.8z"/>
<path class="st7" d="M1073.3,655.5h-6.1v-18.2l0.1-3l0.1-3.3c-1,1.1-1.7,1.8-2.1,2.2l-3.3,2.9l-2.9-4l9.3-8.1h5V655.5z"/>
<path class="st7" d="M1091.9,635.4c2.8,0,5,0.9,6.7,2.6c1.7,1.7,2.5,4,2.5,7c0,3.5-1,6.2-3,8.1c-2,1.9-4.8,2.8-8.5,2.8
	c-3.2,0-5.8-0.6-7.8-1.7v-5.7c1,0.6,2.3,1.1,3.6,1.5c1.4,0.4,2.7,0.6,3.9,0.6c3.7,0,5.6-1.7,5.6-5c0-3.2-1.9-4.8-5.8-4.8
	c-0.7,0-1.5,0.1-2.3,0.2c-0.8,0.2-1.5,0.3-2.1,0.5l-2.4-1.4l1.1-16h15.7v5.6h-10.3l-0.5,6.2l0.7-0.2
	C1089.7,635.5,1090.7,635.4,1091.9,635.4z"/>
<path class="st8" d="M1533,801.7h-94.2c-3.6,0-6.5-2.9-6.5-6.5V627.6c0-3.6,2.9-6.5,6.5-6.5h94.2c3.6,0,6.5,2.9,6.5,6.5v167.6
	C1539.5,798.8,1536.6,801.7,1533,801.7z"/>
<path class="st11" d="M1492.5,630.7h-8.4c-0.9,0-1.6-0.7-1.6-1.6l0,0c0-0.9,0.7-1.6,1.6-1.6h8.4c0.9,0,1.6,0.7,1.6,1.6l0,0
	C1494.1,630,1493.4,630.7,1492.5,630.7z"/>
<circle class="st12" cx="1485.9" cy="790.4" r="6"/>
<circle class="st13" cx="1474.8" cy="629.2" r="2.6"/>
<path class="st8" d="M1692.1,465.7c0,0-1.9,9.7-11.5,11.1c9.7,1.4,11.5,11.1,11.5,11.1s1.9-9.7,11.5-11.1
	C1694,475.4,1692.1,465.7,1692.1,465.7"/>
<path class="st8" d="M1678.1,492.2c0,0-4.6,23.9-28.3,27.4c23.7,3.5,28.3,27.4,28.3,27.4s4.6-23.9,28.3-27.4
	C1682.7,516.1,1678.1,492.2,1678.1,492.2 M1678.1,499.5c0.8,1.9,1.9,4.1,3.3,6.3c4.1,6.4,9.7,11.1,16.3,13.8
	c-6.7,2.7-12.2,7.3-16.3,13.8c-1.4,2.2-2.5,4.3-3.3,6.3c-0.8-1.9-1.9-4.1-3.3-6.3c-4.1-6.4-9.7-11.1-16.3-13.8
	c6.7-2.7,12.2-7.3,16.3-13.8C1676.3,503.6,1677.3,501.4,1678.1,499.5"/>
<path class="st14" d="M1651.5,500.1c-1.1-2.3-3.1-5.2-6.6-6.8c3.5-1.6,5.5-4.6,6.6-6.8c1.1,2.3,3.1,5.2,6.6,6.8
	C1654.6,494.9,1652.6,497.8,1651.5,500.1z"/>
<path class="st15" d="M1730.8,561.5c-1.1,0-2.3,0.1-3.4,0.2v30.1l26.4-18.1C1748.8,566.3,1740.3,561.5,1730.8,561.5z"/>
<path class="st16" d="M1758.4,592.8c0.1-1.1,0.2-2.3,0.2-3.5c0-5.8-1.8-11.2-4.8-15.6l-26.4,18.1v1H1758.4z"/>
<path class="st17" d="M1727.4,592.8v-31.1c-13.8,1.7-24.4,13.4-24.4,27.6c0,15.4,12.5,27.8,27.8,27.8c14.2,0,25.9-10.6,27.6-24.3
	H1727.4z"/>
<path class="st16" d="M1729.4,660.6v-27.8c-1.3,0-2.6,0.1-3.9,0.3c-13.5,1.9-23.9,13.5-23.9,27.5c0,15.4,12.5,27.8,27.8,27.8
	c7.1,0,13.5-2.6,18.4-7l0,0L1729.4,660.6z"/>
<path class="st17" d="M1757.2,660.6c0-15.4-12.5-27.8-27.8-27.8v27.8l18.4,20.8l0,0C1753.6,676.3,1757.2,668.9,1757.2,660.6z"/>
<g>
	<path class="st18" d="M1731.9,715.4c0-2.9,2.3-5.2,5.2-5.2s5.2,2.3,5.2,5.2c0,2.9-2.3,5.2-5.2,5.2v3.8"/>
	<polygon class="st18" points="1715.6,737.5 1737.1,724.2 1758.7,737.5 	"/>
	<path class="st18" d="M1751,715.4c0-2.9,2.3-5.2,5.2-5.2s5.2,2.3,5.2,5.2c0,2.9-2.3,5.2-5.2,5.2v3.8"/>
	<polygon class="st18" points="1734.7,737.5 1756.2,724.2 1777.8,737.5 	"/>
	<path class="st18" d="M1770.1,715.4c0-2.9,2.3-5.2,5.2-5.2c2.9,0,5.2,2.3,5.2,5.2c0,2.9-2.3,5.2-5.2,5.2v3.8"/>
	<polygon class="st18" points="1753.8,737.5 1775.3,724.2 1796.9,737.5 	"/>
	<path class="st18" d="M1697.5,835.9V724.9c0-3.8,3.1-6.9,6.9-6.9h100.8c3.8,0,6.9,3.1,6.9,6.9v111.1"/>
	<path class="st19" d="M1715.2,751.2c0,0-1.2,12.7,5,15.4l-13.5,46.7h49.8l-13.1-46.7c0,0,8.3-4.8,5-15.4H1715.2z"/>
	<polygon class="st19" points="1718.1,751.2 1720.8,736.5 1725.6,736.5 1725.6,751.2 	"/>
	<polygon class="st19" points="1744.6,751.2 1741.9,736.5 1737,736.5 1737,751.2 	"/>
	<path class="st20" d="M1737.4,751.2c0,0-1.2,12.7,5,15.4l-13.5,46.7h49.8l-13.1-46.7c0,0,8.3-4.8,5-15.4H1737.4z"/>
	<polygon class="st20" points="1740.5,751.2 1743.2,736.5 1748,736.5 1748,751.2 	"/>
	<polygon class="st20" points="1766.9,751.2 1764.2,736.5 1759.4,736.5 1759.4,751.2 	"/>
	<path class="st21" d="M1758.9,751.2c0,0-1.2,12.7,5,15.4l-13.5,46.7h49.8l-13.1-46.7c0,0,8.3-4.8,5-15.4H1758.9z"/>
	<polygon class="st22" points="1762,751.2 1764.7,736.5 1769.5,736.5 1769.5,751.2 	"/>
	<polygon class="st21" points="1762,751.2 1764.7,736.5 1769.5,736.5 1769.5,751.2 	"/>
	<polygon class="st22" points="1788.4,751.2 1785.7,736.5 1780.9,736.5 1780.9,751.2 	"/>
	<polygon class="st21" points="1788.4,751.2 1785.7,736.5 1780.9,736.5 1780.9,751.2 	"/>
	<line class="st23" x1="1799" y1="835.9" x2="1825.1" y2="835.9"/>
	<line class="st23" x1="1682.5" y1="835.9" x2="1708.5" y2="835.9"/>
</g>
<path class="st24" d="M1545.1,558.9v-33.1l0.1-10.4h0c0.6-15.3,13.6-27.4,29.5-27.4c16,0,28.9,12.1,29.5,27.4h0l-0.1,10.2v33.3"/>
<path class="st25" d="M1648.7,695.5h-148V534.1h148V695.5z"/>
<rect x="1500.4" y="657.1" class="st26" width="148.7" height="42"/>
<polyline class="st27" points="1632.9,594.2 1663.3,594.2 1689.1,555.3 1706.4,555.3 1728.6,520.4 1780.1,520.4 1808.5,473.4 "/>
<polygon class="st7" points="1802.6,471.4 1812.6,479 1813.1,467.8 "/>
<path class="st28" d="M1448.7,454h-30.9c-16.8,0-30.6,13.8-30.6,30.6v0c0,16.8,13.8,30.6,30.6,30.6h23.8l12.7,15.1v-15.6
	c14.2-2.6,25.1-15.1,25.1-30.1v0C1479.3,467.8,1465.5,454,1448.7,454z"/>
<path class="st29" d="M1397,860.7h-32c-17.4,0-31.7-14.2-31.7-31.7l0,0c0-17.4,14.2-31.7,31.7-31.7h24.6l13.1-15.6v16.2
	c14.7,2.7,25.9,15.7,25.9,31.1l0,0C1428.7,846.4,1414.4,860.7,1397,860.7z"/>
<g>
	<path class="st2" d="M977.6,712.5h-2.1l-3.2-10.8c-0.5-1.6-0.7-2.7-0.8-3.2c-0.1,0.9-0.4,2-0.8,3.3l-3.1,10.7h-2.1l-4.3-16.4h2.2
		l2.5,10c0.3,1.3,0.6,2.6,0.8,3.9c0.2-1.2,0.5-2.6,0.9-4l2.9-9.9h2.1l3,10c0.4,1.3,0.7,2.6,0.9,4c0.1-1,0.4-2.3,0.8-3.9l2.5-10h2.2
		L977.6,712.5z"/>
	<path class="st2" d="M989.3,712.8c-1.8,0-3.3-0.6-4.4-1.7c-1.1-1.1-1.6-2.7-1.6-4.6c0-2,0.5-3.6,1.5-4.7c1-1.2,2.3-1.8,4-1.8
		c1.5,0,2.8,0.5,3.7,1.5c0.9,1,1.4,2.4,1.4,4.1v1.2h-8.4c0,1.4,0.4,2.5,1.1,3.2c0.7,0.7,1.6,1.1,2.9,1.1c0.7,0,1.3-0.1,1.9-0.2
		c0.6-0.1,1.3-0.3,2.1-0.7v1.8c-0.7,0.3-1.3,0.5-1.9,0.6C990.8,712.7,990.1,712.8,989.3,712.8z M988.8,701.6c-1,0-1.7,0.3-2.3,0.9
		c-0.6,0.6-0.9,1.5-1,2.6h6.3c0-1.2-0.3-2-0.8-2.6C990.4,701.9,989.7,701.6,988.8,701.6z"/>
	<path class="st2" d="M1010.6,712.5l-0.4-1.8h-0.1c-0.6,0.8-1.2,1.3-1.8,1.6c-0.6,0.3-1.4,0.4-2.3,0.4c-1.2,0-2.2-0.3-2.9-1
		c-0.7-0.6-1-1.5-1-2.7c0-2.5,2-3.8,5.9-3.9l2.1-0.1v-0.7c0-0.9-0.2-1.6-0.6-2.1c-0.4-0.4-1.1-0.7-1.9-0.7c-0.7,0-1.3,0.1-1.8,0.3
		c-0.6,0.2-1.1,0.4-1.6,0.7l-0.6-1.5c0.6-0.3,1.3-0.6,2-0.8c0.7-0.2,1.5-0.3,2.2-0.3c1.5,0,2.6,0.3,3.3,1c0.7,0.7,1.1,1.7,1.1,3.1
		v8.4H1010.6z M1006.4,711.1c1.1,0,2-0.3,2.7-0.9c0.6-0.6,1-1.5,1-2.6v-1.1l-1.8,0.1c-1.4,0.1-2.4,0.3-3.1,0.7c-0.6,0.4-1,1-1,1.9
		c0,0.6,0.2,1.1,0.6,1.5C1005.2,711,1005.7,711.1,1006.4,711.1z"/>
	<path class="st2" d="M1023.9,709.1c0,1.2-0.4,2-1.3,2.7c-0.9,0.6-2.1,0.9-3.6,0.9c-1.6,0-2.9-0.3-3.9-0.8v-1.8c1.4,0.7,2.7,1,3.9,1
		c1,0,1.8-0.2,2.2-0.5c0.5-0.3,0.7-0.8,0.7-1.3c0-0.5-0.2-0.9-0.7-1.2c-0.4-0.3-1.2-0.7-2.4-1.2c-1.2-0.4-2-0.8-2.4-1.2
		c-0.5-0.3-0.8-0.7-1-1.1c-0.2-0.4-0.3-0.9-0.3-1.4c0-1,0.4-1.8,1.2-2.4c0.8-0.6,2-0.9,3.4-0.9c1.4,0,2.7,0.3,3.9,0.8l-0.7,1.6
		c-1.3-0.5-2.4-0.8-3.4-0.8c-0.8,0-1.5,0.1-1.9,0.4c-0.4,0.3-0.7,0.6-0.7,1.1c0,0.4,0.2,0.8,0.6,1.1c0.4,0.3,1.2,0.7,2.6,1.2
		c1,0.4,1.8,0.7,2.3,1.1c0.5,0.3,0.9,0.7,1.1,1.1C1023.8,708.1,1023.9,708.6,1023.9,709.1z"/>
	<path class="st2" d="M1028.9,706.2l0.7-0.9l0.8-0.9l3.9-4.2h2.4l-5,5.3l5.3,7.1h-2.4l-4.3-5.8l-1.4,1.2v4.5h-2v-17.5h2v9.1V706.2
		L1028.9,706.2z"/>
	<path class="st2" d="M1044.2,712.8c-1.8,0-3.3-0.6-4.4-1.7c-1.1-1.1-1.6-2.7-1.6-4.6c0-2,0.5-3.6,1.5-4.7c1-1.2,2.3-1.8,4-1.8
		c1.5,0,2.8,0.5,3.7,1.5c0.9,1,1.4,2.4,1.4,4.1v1.2h-8.4c0,1.4,0.4,2.5,1.1,3.2c0.7,0.7,1.6,1.1,2.9,1.1c0.7,0,1.3-0.1,1.9-0.2
		c0.6-0.1,1.3-0.3,2.1-0.7v1.8c-0.7,0.3-1.3,0.5-1.9,0.6C1045.7,712.7,1045,712.8,1044.2,712.8z M1043.7,701.6c-1,0-1.7,0.3-2.3,0.9
		c-0.6,0.6-0.9,1.5-1,2.6h6.3c0-1.2-0.3-2-0.8-2.6C1045.4,701.9,1044.6,701.6,1043.7,701.6z"/>
	<path class="st2" d="M1056.3,712.8c-1.6,0-2.8-0.6-3.7-1.7c-0.9-1.1-1.3-2.7-1.3-4.7c0-2,0.4-3.6,1.3-4.7c0.9-1.1,2.1-1.7,3.7-1.7
		c1.7,0,2.9,0.6,3.8,1.8h0.1c0-0.1-0.1-0.5-0.1-0.9c0-0.5-0.1-0.8-0.1-0.9v-4.9h2v17.5h-1.6l-0.3-1.7h-0.1
		C1059.3,712.1,1058,712.8,1056.3,712.8z M1056.6,711.1c1.2,0,2.1-0.3,2.7-1c0.6-0.7,0.8-1.8,0.8-3.3v-0.4c0-1.7-0.3-2.9-0.9-3.7
		c-0.6-0.7-1.5-1.1-2.7-1.1c-1,0-1.8,0.4-2.4,1.2c-0.6,0.8-0.9,2-0.9,3.5c0,1.5,0.3,2.7,0.8,3.5
		C1054.7,710.7,1055.6,711.1,1056.6,711.1z"/>
	<path class="st2" d="M1078.3,712.5h-2v-11.5c0-1,0-2,0.1-2.8c-0.2,0.2-0.4,0.4-0.7,0.6c-0.8,0.6-1.6,1.3-2.5,2.1l-1.1-1.4l4.4-3.4
		h1.7V712.5z"/>
	<path class="st2" d="M1095.3,704.3c0,2.9-0.5,5-1.4,6.4c-0.9,1.4-2.3,2.1-4.1,2.1c-1.8,0-3.1-0.7-4.1-2.2c-0.9-1.4-1.4-3.5-1.4-6.3
		c0-2.9,0.4-5,1.3-6.4c0.9-1.4,2.3-2.1,4.1-2.1c1.8,0,3.1,0.7,4.1,2.2S1095.3,701.6,1095.3,704.3z M1086.4,704.3
		c0,2.4,0.3,4.1,0.8,5.2c0.5,1.1,1.4,1.6,2.6,1.6c1.2,0,2.1-0.5,2.6-1.6c0.5-1.1,0.8-2.8,0.8-5.1c0-2.3-0.3-4-0.8-5.1
		c-0.5-1.1-1.4-1.6-2.6-1.6c-1.2,0-2.1,0.5-2.6,1.6C1086.7,700.3,1086.4,702,1086.4,704.3z"/>
	<path class="st2" d="M1108.4,704.3c0,2.9-0.5,5-1.4,6.4c-0.9,1.4-2.3,2.1-4.1,2.1c-1.8,0-3.1-0.7-4.1-2.2c-0.9-1.4-1.4-3.5-1.4-6.3
		c0-2.9,0.4-5,1.3-6.4c0.9-1.4,2.3-2.1,4.1-2.1c1.8,0,3.1,0.7,4.1,2.2S1108.4,701.6,1108.4,704.3z M1099.5,704.3
		c0,2.4,0.3,4.1,0.8,5.2c0.5,1.1,1.4,1.6,2.6,1.6c1.2,0,2.1-0.5,2.6-1.6c0.5-1.1,0.8-2.8,0.8-5.1c0-2.3-0.3-4-0.8-5.1
		c-0.5-1.1-1.4-1.6-2.6-1.6c-1.2,0-2.1,0.5-2.6,1.6C1099.8,700.3,1099.5,702,1099.5,704.3z"/>
	<path class="st2" d="M1121.6,704.3c0,2.9-0.5,5-1.4,6.4c-0.9,1.4-2.3,2.1-4.1,2.1c-1.8,0-3.1-0.7-4.1-2.2c-0.9-1.4-1.4-3.5-1.4-6.3
		c0-2.9,0.4-5,1.3-6.4c0.9-1.4,2.3-2.1,4.1-2.1c1.8,0,3.1,0.7,4.1,2.2S1121.6,701.6,1121.6,704.3z M1112.7,704.3
		c0,2.4,0.3,4.1,0.8,5.2c0.5,1.1,1.4,1.6,2.6,1.6c1.2,0,2.1-0.5,2.6-1.6c0.5-1.1,0.8-2.8,0.8-5.1c0-2.3-0.3-4-0.8-5.1
		c-0.5-1.1-1.4-1.6-2.6-1.6c-1.2,0-2.1,0.5-2.6,1.6C1113,700.3,1112.7,702,1112.7,704.3z"/>
	<path class="st2" d="M1136.5,712.8c-1.7,0-2.9-0.6-3.8-1.8h-0.1l0,0.5c0.1,0.6,0.1,1.1,0.1,1.6v5.1h-2v-17.9h1.7l0.3,1.7h0.1
		c0.5-0.7,1-1.2,1.7-1.5c0.6-0.3,1.4-0.4,2.2-0.4c1.6,0,2.8,0.6,3.7,1.7c0.9,1.1,1.3,2.7,1.3,4.7c0,2-0.4,3.6-1.3,4.7
		C1139.3,712.2,1138.1,712.8,1136.5,712.8z M1136.1,701.7c-1.2,0-2.1,0.3-2.6,1c-0.5,0.7-0.8,1.8-0.8,3.2v0.4c0,1.7,0.3,2.9,0.8,3.6
		c0.6,0.7,1.5,1.1,2.7,1.1c1,0,1.8-0.4,2.4-1.3c0.6-0.8,0.9-2,0.9-3.5c0-1.5-0.3-2.7-0.9-3.5C1138,702.1,1137.2,701.7,1136.1,701.7z
		"/>
	<path class="st2" d="M1150,712.8c-1.8,0-3.3-0.6-4.4-1.7c-1.1-1.1-1.6-2.7-1.6-4.6c0-2,0.5-3.6,1.5-4.7c1-1.2,2.3-1.8,4-1.8
		c1.5,0,2.8,0.5,3.7,1.5c0.9,1,1.4,2.4,1.4,4.1v1.2h-8.4c0,1.4,0.4,2.5,1.1,3.2c0.7,0.7,1.6,1.1,2.9,1.1c0.7,0,1.3-0.1,1.9-0.2
		c0.6-0.1,1.3-0.3,2.1-0.7v1.8c-0.7,0.3-1.3,0.5-1.9,0.6C1151.5,712.7,1150.8,712.8,1150,712.8z M1149.5,701.6c-1,0-1.7,0.3-2.3,0.9
		c-0.6,0.6-0.9,1.5-1,2.6h6.3c0-1.2-0.3-2-0.8-2.6C1151.2,701.9,1150.5,701.6,1149.5,701.6z"/>
	<path class="st2" d="M1168.5,706.4c0,2-0.5,3.6-1.5,4.7c-1,1.1-2.4,1.7-4.2,1.7c-1.1,0-2.1-0.3-3-0.8c-0.9-0.5-1.5-1.3-2-2.2
		c-0.5-1-0.7-2.1-0.7-3.4c0-2,0.5-3.6,1.5-4.7c1-1.1,2.4-1.7,4.2-1.7c1.7,0,3.1,0.6,4.1,1.7C1167.9,702.8,1168.5,704.4,1168.5,706.4
		z M1159.1,706.4c0,1.5,0.3,2.7,0.9,3.5c0.6,0.8,1.5,1.2,2.7,1.2c1.2,0,2.1-0.4,2.7-1.2c0.6-0.8,0.9-2,0.9-3.5s-0.3-2.7-0.9-3.5
		c-0.6-0.8-1.5-1.2-2.7-1.2C1160.3,701.7,1159.1,703.2,1159.1,706.4z"/>
	<path class="st2" d="M1177.5,712.8c-1.7,0-2.9-0.6-3.8-1.8h-0.1l0,0.5c0.1,0.6,0.1,1.1,0.1,1.6v5.1h-2v-17.9h1.7l0.3,1.7h0.1
		c0.5-0.7,1-1.2,1.7-1.5c0.6-0.3,1.4-0.4,2.2-0.4c1.6,0,2.8,0.6,3.7,1.7c0.9,1.1,1.3,2.7,1.3,4.7c0,2-0.4,3.6-1.3,4.7
		C1180.4,712.2,1179.1,712.8,1177.5,712.8z M1177.2,701.7c-1.2,0-2.1,0.3-2.6,1c-0.5,0.7-0.8,1.8-0.8,3.2v0.4c0,1.7,0.3,2.9,0.8,3.6
		c0.6,0.7,1.5,1.1,2.7,1.1c1,0,1.8-0.4,2.4-1.3c0.6-0.8,0.9-2,0.9-3.5c0-1.5-0.3-2.7-0.9-3.5C1179,702.1,1178.2,701.7,1177.2,701.7z
		"/>
	<path class="st2" d="M1187.8,712.5h-2v-17.5h2V712.5z"/>
	<path class="st2" d="M1197,712.8c-1.8,0-3.3-0.6-4.4-1.7c-1.1-1.1-1.6-2.7-1.6-4.6c0-2,0.5-3.6,1.5-4.7c1-1.2,2.3-1.8,4-1.8
		c1.5,0,2.8,0.5,3.7,1.5c0.9,1,1.4,2.4,1.4,4.1v1.2h-8.4c0,1.4,0.4,2.5,1.1,3.2c0.7,0.7,1.6,1.1,2.9,1.1c0.7,0,1.3-0.1,1.9-0.2
		c0.6-0.1,1.3-0.3,2.1-0.7v1.8c-0.7,0.3-1.3,0.5-1.9,0.6C1198.5,712.7,1197.8,712.8,1197,712.8z M1196.5,701.6c-1,0-1.7,0.3-2.3,0.9
		c-0.6,0.6-0.9,1.5-1,2.6h6.3c0-1.2-0.3-2-0.8-2.6C1198.2,701.9,1197.4,701.6,1196.5,701.6z"/>
	<path class="st2" d="M968.5,729.4h-3.1v10.8h-2v-10.8h-2.2v-0.9l2.2-0.7V727c0-1.5,0.3-2.6,1-3.4c0.7-0.7,1.7-1.1,3-1.1
		c0.8,0,1.6,0.1,2.4,0.4l-0.5,1.6c-0.7-0.2-1.3-0.3-1.8-0.3c-0.7,0-1.2,0.2-1.5,0.7c-0.3,0.4-0.5,1.2-0.5,2.1v0.8h3.1V729.4z"/>
	<path class="st2" d="M976.5,727.6c0.5,0,1,0,1.4,0.1l-0.2,1.9c-0.5-0.1-0.9-0.2-1.3-0.2c-0.7,0-1.3,0.2-1.8,0.5
		c-0.6,0.4-1,0.9-1.3,1.5c-0.3,0.6-0.5,1.3-0.5,2.1v6.6h-2v-12.3h1.7l0.2,2.3h0.1c0.5-0.8,1-1.4,1.7-1.9
		C975.1,727.8,975.8,727.6,976.5,727.6z"/>
	<path class="st2" d="M990.8,734c0,2-0.5,3.6-1.5,4.7c-1,1.1-2.4,1.7-4.2,1.7c-1.1,0-2.1-0.3-3-0.8c-0.9-0.5-1.5-1.3-2-2.2
		c-0.5-1-0.7-2.1-0.7-3.4c0-2,0.5-3.6,1.5-4.7c1-1.1,2.4-1.7,4.2-1.7c1.7,0,3.1,0.6,4.1,1.7C990.2,730.4,990.8,732,990.8,734z
		 M981.4,734c0,1.5,0.3,2.7,0.9,3.5c0.6,0.8,1.5,1.2,2.7,1.2c1.2,0,2.1-0.4,2.7-1.2c0.6-0.8,0.9-2,0.9-3.5c0-1.5-0.3-2.7-0.9-3.5
		c-0.6-0.8-1.5-1.2-2.7-1.2C982.6,729.3,981.4,730.8,981.4,734z"/>
	<path class="st2" d="M1009.6,740.1v-7.9c0-1.9-0.8-2.9-2.5-2.9c-1.1,0-2,0.3-2.5,1c-0.5,0.7-0.8,1.7-0.8,3.1v6.8h-2v-7.9
		c0-1-0.2-1.7-0.6-2.2c-0.4-0.5-1-0.7-1.9-0.7c-1.1,0-2,0.3-2.5,1c-0.5,0.7-0.8,1.8-0.8,3.4v6.4h-2v-12.3h1.6l0.3,1.7h0.1
		c0.4-0.6,0.8-1.1,1.5-1.4c0.6-0.3,1.4-0.5,2.2-0.5c1.9,0,3.2,0.7,3.8,2.1h0.1c0.4-0.7,0.9-1.2,1.6-1.5c0.7-0.4,1.5-0.5,2.3-0.5
		c1.4,0,2.4,0.4,3.1,1.1c0.7,0.7,1,1.9,1,3.4v8H1009.6z"/>
	<path class="st2" d="M1025.6,738.7c0.3,0,0.6,0,0.9-0.1c0.4-0.1,0.6-0.1,0.8-0.2v1.5c-0.2,0.1-0.5,0.2-0.9,0.2
		c-0.4,0.1-0.8,0.1-1.2,0.1c-2.4,0-3.6-1.3-3.6-3.8v-7.2h-1.7v-1l1.8-0.8l0.8-2.6h1.2v2.8h3.6v1.6h-3.6v7.1c0,0.7,0.2,1.3,0.5,1.6
		C1024.5,738.5,1025,738.7,1025.6,738.7z"/>
	<path class="st2" d="M1038.1,740.1v-7.9c0-1-0.2-1.8-0.7-2.2c-0.4-0.5-1.1-0.7-2.1-0.7c-1.3,0-2.2,0.3-2.7,1
		c-0.6,0.7-0.9,1.8-0.9,3.4v6.4h-2v-17.5h2v5.1c0,0.7,0,1.3-0.1,1.7h0.1c0.4-0.6,0.9-1.1,1.6-1.4s1.4-0.5,2.3-0.5
		c1.5,0,2.6,0.4,3.4,1.1c0.8,0.7,1.1,1.9,1.1,3.4v8H1038.1z"/>
	<path class="st2" d="M1049.2,740.4c-1.8,0-3.3-0.6-4.4-1.7c-1.1-1.1-1.6-2.7-1.6-4.6c0-2,0.5-3.6,1.5-4.7c1-1.2,2.3-1.8,4-1.8
		c1.5,0,2.8,0.5,3.7,1.5c0.9,1,1.4,2.4,1.4,4.1v1.2h-8.4c0,1.4,0.4,2.5,1.1,3.2c0.7,0.7,1.6,1.1,2.9,1.1c0.7,0,1.3-0.1,1.9-0.2
		c0.6-0.1,1.3-0.3,2.1-0.7v1.8c-0.7,0.3-1.3,0.5-1.9,0.6C1050.7,740.3,1050,740.4,1049.2,740.4z M1048.7,729.2c-1,0-1.7,0.3-2.3,0.9
		c-0.6,0.6-0.9,1.5-1,2.6h6.3c0-1.2-0.3-2-0.8-2.6C1050.4,729.5,1049.6,729.2,1048.7,729.2z"/>
	<path class="st2" d="M1073.5,740.1l-2-5.1h-6.5l-2,5.1h-2.1l6.4-16.5h1.9l6.4,16.5H1073.5z M1070.9,733.2l-1.8-5l-0.8-2.5
		c-0.2,0.9-0.5,1.7-0.7,2.5l-1.9,5H1070.9z"/>
	<path class="st2" d="M1085.6,736.7c0,1.2-0.4,2-1.3,2.7c-0.9,0.6-2.1,0.9-3.6,0.9c-1.6,0-2.9-0.3-3.9-0.8v-1.8c1.4,0.7,2.7,1,3.9,1
		c1,0,1.8-0.2,2.2-0.5c0.5-0.3,0.7-0.8,0.7-1.3c0-0.5-0.2-0.9-0.7-1.2c-0.4-0.3-1.2-0.7-2.4-1.2c-1.2-0.4-2-0.8-2.4-1.2
		c-0.5-0.3-0.8-0.7-1-1.1c-0.2-0.4-0.3-0.9-0.3-1.4c0-1,0.4-1.8,1.2-2.4c0.8-0.6,2-0.9,3.4-0.9c1.4,0,2.7,0.3,3.9,0.8l-0.7,1.6
		c-1.3-0.5-2.4-0.8-3.4-0.8c-0.8,0-1.5,0.1-1.9,0.4c-0.4,0.3-0.7,0.6-0.7,1.1c0,0.4,0.2,0.8,0.6,1.1c0.4,0.3,1.2,0.7,2.6,1.2
		c1,0.4,1.8,0.7,2.3,1.1c0.5,0.3,0.9,0.7,1.1,1.1C1085.5,735.7,1085.6,736.2,1085.6,736.7z"/>
	<path class="st2" d="M1088.5,724.5c0-0.4,0.1-0.8,0.3-1c0.2-0.2,0.5-0.3,0.8-0.3c0.3,0,0.6,0.1,0.8,0.3c0.2,0.2,0.4,0.5,0.4,1
		c0,0.4-0.1,0.8-0.4,1c-0.2,0.2-0.5,0.3-0.8,0.3c-0.3,0-0.6-0.1-0.8-0.3C1088.6,725.2,1088.5,724.9,1088.5,724.5z M1090.6,740.1h-2
		v-12.3h2V740.1z"/>
	<path class="st2" d="M1102.2,740.1l-0.4-1.8h-0.1c-0.6,0.8-1.2,1.3-1.8,1.6c-0.6,0.3-1.4,0.4-2.3,0.4c-1.2,0-2.2-0.3-2.9-1
		c-0.7-0.6-1-1.5-1-2.7c0-2.5,2-3.8,5.9-3.9l2.1-0.1V732c0-0.9-0.2-1.6-0.6-2.1c-0.4-0.4-1.1-0.7-1.9-0.7c-0.7,0-1.3,0.1-1.8,0.3
		c-0.6,0.2-1.1,0.4-1.6,0.7l-0.6-1.5c0.6-0.3,1.3-0.6,2-0.8c0.7-0.2,1.5-0.3,2.2-0.3c1.5,0,2.6,0.3,3.3,1c0.7,0.7,1.1,1.7,1.1,3.1
		v8.4H1102.2z M1098,738.7c1.1,0,2-0.3,2.7-0.9c0.6-0.6,1-1.5,1-2.6v-1.1l-1.8,0.1c-1.4,0.1-2.4,0.3-3.1,0.7c-0.6,0.4-1,1-1,1.9
		c0,0.6,0.2,1.1,0.6,1.5C1096.7,738.6,1097.3,738.7,1098,738.7z"/>
	<path class="st2" d="M1119.2,727.6c0.5,0,1,0,1.4,0.1l-0.2,1.9c-0.5-0.1-0.9-0.2-1.3-0.2c-0.7,0-1.3,0.2-1.8,0.5
		c-0.6,0.4-1,0.9-1.3,1.5c-0.3,0.6-0.5,1.3-0.5,2.1v6.6h-2v-12.3h1.7l0.2,2.3h0.1c0.5-0.8,1-1.4,1.7-1.9
		C1117.7,727.8,1118.4,727.6,1119.2,727.6z"/>
	<path class="st2" d="M1128,740.4c-1.8,0-3.3-0.6-4.4-1.7c-1.1-1.1-1.6-2.7-1.6-4.6c0-2,0.5-3.6,1.5-4.7c1-1.2,2.3-1.8,4-1.8
		c1.5,0,2.8,0.5,3.7,1.5c0.9,1,1.4,2.4,1.4,4.1v1.2h-8.4c0,1.4,0.4,2.5,1.1,3.2c0.7,0.7,1.6,1.1,2.9,1.1c0.7,0,1.3-0.1,1.9-0.2
		c0.6-0.1,1.3-0.3,2.1-0.7v1.8c-0.7,0.3-1.3,0.5-1.9,0.6C1129.5,740.3,1128.8,740.4,1128,740.4z M1127.4,729.2c-1,0-1.7,0.3-2.3,0.9
		c-0.6,0.6-0.9,1.5-1,2.6h6.3c0-1.2-0.3-2-0.8-2.6C1129.1,729.5,1128.4,729.2,1127.4,729.2z"/>
	<path class="st2" d="M1143.9,740l0.1-1.5h-0.1c-0.8,1.2-2.1,1.9-3.8,1.9c-1.6,0-2.8-0.6-3.7-1.7c-0.9-1.1-1.3-2.7-1.3-4.7
		c0-2,0.5-3.5,1.4-4.7c0.9-1.1,2.1-1.7,3.7-1.7c1.7,0,3,0.6,3.9,1.9h0.1l0.3-1.6h1.6v12.5c0,1.8-0.4,3.1-1.3,4
		c-0.9,0.9-2.3,1.3-4.2,1.3c-1.8,0-3.3-0.3-4.4-0.8V743c1.2,0.6,2.7,1,4.5,1c1,0,1.9-0.3,2.5-0.9c0.6-0.6,0.9-1.5,0.9-2.5V740z
		 M1140.4,738.7c1.2,0,2.1-0.3,2.7-1c0.6-0.7,0.8-1.7,0.8-3.2V734c0-1.6-0.3-2.8-0.9-3.6c-0.6-0.7-1.5-1.1-2.8-1.1
		c-1,0-1.8,0.4-2.4,1.2c-0.6,0.8-0.8,2-0.8,3.5c0,1.5,0.3,2.7,0.8,3.5C1138.5,738.3,1139.3,738.7,1140.4,738.7z"/>
	<path class="st2" d="M1149.7,724.5c0-0.4,0.1-0.8,0.3-1c0.2-0.2,0.5-0.3,0.8-0.3c0.3,0,0.6,0.1,0.8,0.3c0.2,0.2,0.4,0.5,0.4,1
		c0,0.4-0.1,0.8-0.4,1c-0.2,0.2-0.5,0.3-0.8,0.3c-0.3,0-0.6-0.1-0.8-0.3C1149.8,725.2,1149.7,724.9,1149.7,724.5z M1151.8,740.1h-2
		v-12.3h2V740.1z"/>
	<path class="st2" d="M1166.5,734c0,2-0.5,3.6-1.5,4.7c-1,1.1-2.4,1.7-4.2,1.7c-1.1,0-2.1-0.3-3-0.8c-0.9-0.5-1.5-1.3-2-2.2
		c-0.5-1-0.7-2.1-0.7-3.4c0-2,0.5-3.6,1.5-4.7c1-1.1,2.4-1.7,4.2-1.7c1.7,0,3.1,0.6,4.1,1.7C1166,730.4,1166.5,732,1166.5,734z
		 M1157.2,734c0,1.5,0.3,2.7,0.9,3.5c0.6,0.8,1.5,1.2,2.7,1.2c1.2,0,2.1-0.4,2.7-1.2c0.6-0.8,0.9-2,0.9-3.5c0-1.5-0.3-2.7-0.9-3.5
		c-0.6-0.8-1.5-1.2-2.7-1.2C1158.4,729.3,1157.2,730.8,1157.2,734z"/>
	<path class="st2" d="M1178.1,740.1v-7.9c0-1-0.2-1.8-0.7-2.2c-0.4-0.5-1.1-0.7-2.1-0.7c-1.3,0-2.2,0.4-2.8,1.1
		c-0.6,0.7-0.9,1.8-0.9,3.4v6.4h-2v-12.3h1.6l0.3,1.7h0.1c0.4-0.6,0.9-1.1,1.6-1.4c0.7-0.3,1.4-0.5,2.3-0.5c1.5,0,2.6,0.4,3.4,1.1
		c0.7,0.7,1.1,1.9,1.1,3.4v8H1178.1z"/>
	<path class="st2" d="M968.5,757h-3.1v10.8h-2V757h-2.2V756l2.2-0.7v-0.7c0-1.5,0.3-2.6,1-3.4c0.7-0.7,1.7-1.1,3-1.1
		c0.8,0,1.6,0.1,2.4,0.4l-0.5,1.6c-0.7-0.2-1.3-0.3-1.8-0.3c-0.7,0-1.2,0.2-1.5,0.7c-0.3,0.4-0.5,1.2-0.5,2.1v0.8h3.1V757z"/>
	<path class="st2" d="M981.5,761.6c0,2-0.5,3.6-1.5,4.7c-1,1.1-2.4,1.7-4.2,1.7c-1.1,0-2.1-0.3-3-0.8c-0.9-0.5-1.5-1.3-2-2.2
		c-0.5-1-0.7-2.1-0.7-3.4c0-2,0.5-3.6,1.5-4.7c1-1.1,2.4-1.7,4.2-1.7c1.7,0,3.1,0.6,4.1,1.7C981,758,981.5,759.6,981.5,761.6z
		 M972.2,761.6c0,1.5,0.3,2.7,0.9,3.5c0.6,0.8,1.5,1.2,2.7,1.2c1.2,0,2.1-0.4,2.7-1.2c0.6-0.8,0.9-2,0.9-3.5c0-1.5-0.3-2.7-0.9-3.5
		c-0.6-0.8-1.5-1.2-2.7-1.2C973.4,756.9,972.2,758.4,972.2,761.6z"/>
	<path class="st2" d="M990.4,755.2c0.5,0,1,0,1.4,0.1l-0.2,1.9c-0.5-0.1-0.9-0.2-1.3-0.2c-0.7,0-1.3,0.2-1.8,0.5
		c-0.6,0.4-1,0.9-1.3,1.5c-0.3,0.6-0.5,1.3-0.5,2.1v6.6h-2v-12.3h1.7l0.2,2.3h0.1c0.5-0.8,1-1.4,1.7-1.9
		C989,755.4,989.7,755.2,990.4,755.2z"/>
	<path class="st2" d="M1004.3,766.3c0.3,0,0.6,0,0.9-0.1c0.4-0.1,0.6-0.1,0.8-0.2v1.5c-0.2,0.1-0.5,0.2-0.9,0.2
		c-0.4,0.1-0.8,0.1-1.2,0.1c-2.4,0-3.6-1.3-3.6-3.8V757h-1.7v-1l1.8-0.8l0.8-2.6h1.2v2.8h3.6v1.6h-3.6v7.1c0,0.7,0.2,1.3,0.5,1.6
		C1003.2,766.1,1003.7,766.3,1004.3,766.3z"/>
	<path class="st2" d="M1016.9,767.7v-7.9c0-1-0.2-1.8-0.7-2.2c-0.4-0.5-1.1-0.7-2.1-0.7c-1.3,0-2.2,0.3-2.7,1
		c-0.6,0.7-0.9,1.8-0.9,3.4v6.4h-2v-17.5h2v5.1c0,0.7,0,1.3-0.1,1.7h0.1c0.4-0.6,0.9-1.1,1.6-1.4c0.7-0.3,1.4-0.5,2.3-0.5
		c1.5,0,2.6,0.4,3.4,1.1c0.8,0.7,1.1,1.9,1.1,3.4v8H1016.9z"/>
	<path class="st2" d="M1027.9,768c-1.8,0-3.3-0.6-4.4-1.7c-1.1-1.1-1.6-2.7-1.6-4.6c0-2,0.5-3.6,1.5-4.7c1-1.2,2.3-1.8,4-1.8
		c1.5,0,2.8,0.5,3.7,1.5c0.9,1,1.4,2.4,1.4,4.1v1.2h-8.4c0,1.4,0.4,2.5,1.1,3.2c0.7,0.7,1.6,1.1,2.9,1.1c0.7,0,1.3-0.1,1.9-0.2
		c0.6-0.1,1.3-0.3,2.1-0.7v1.8c-0.7,0.3-1.3,0.5-1.9,0.6C1029.4,767.9,1028.7,768,1027.9,768z M1027.4,756.8c-1,0-1.7,0.3-2.3,0.9
		c-0.6,0.6-0.9,1.5-1,2.6h6.3c0-1.2-0.3-2-0.8-2.6C1029.1,757.1,1028.4,756.8,1027.4,756.8z"/>
	<path class="st2" d="M1035.5,752.1c0-0.4,0.1-0.8,0.3-1c0.2-0.2,0.5-0.3,0.8-0.3c0.3,0,0.6,0.1,0.8,0.3c0.2,0.2,0.4,0.5,0.4,1
		c0,0.4-0.1,0.8-0.4,1c-0.2,0.2-0.5,0.3-0.8,0.3c-0.3,0-0.6-0.1-0.8-0.3C1035.6,752.8,1035.5,752.5,1035.5,752.1z M1037.7,767.7h-2
		v-12.3h2V767.7z"/>
	<path class="st2" d="M1047.3,755.2c0.5,0,1,0,1.4,0.1l-0.2,1.9c-0.5-0.1-0.9-0.2-1.3-0.2c-0.7,0-1.3,0.2-1.8,0.5
		c-0.6,0.4-1,0.9-1.3,1.5c-0.3,0.6-0.5,1.3-0.5,2.1v6.6h-2v-12.3h1.7l0.2,2.3h0.1c0.5-0.8,1-1.4,1.7-1.9
		C1045.9,755.4,1046.6,755.2,1047.3,755.2z"/>
	<path class="st2" d="M1059.8,767.7l-4.7-12.3h2.2l2.6,7.3c0.5,1.5,0.8,2.5,1,3.3h0.1c0-0.1,0.1-0.2,0.1-0.3c0-0.1,0.1-0.3,0.1-0.4
		c0-0.1,0.3-1,0.8-2.5l2.6-7.3h2.2l-4.7,12.3H1059.8z"/>
	<path class="st2" d="M1068.6,752.1c0-0.4,0.1-0.8,0.3-1c0.2-0.2,0.5-0.3,0.8-0.3c0.3,0,0.6,0.1,0.8,0.3c0.2,0.2,0.4,0.5,0.4,1
		c0,0.4-0.1,0.8-0.4,1c-0.2,0.2-0.5,0.3-0.8,0.3c-0.3,0-0.6-0.1-0.8-0.3C1068.7,752.8,1068.6,752.5,1068.6,752.1z M1070.8,767.7h-2
		v-12.3h2V767.7z"/>
	<path class="st2" d="M1079.9,768c-1.8,0-3.3-0.6-4.4-1.7c-1.1-1.1-1.6-2.7-1.6-4.6c0-2,0.5-3.6,1.5-4.7c1-1.2,2.3-1.8,4-1.8
		c1.5,0,2.8,0.5,3.7,1.5c0.9,1,1.4,2.4,1.4,4.1v1.2h-8.4c0,1.4,0.4,2.5,1.1,3.2c0.7,0.7,1.6,1.1,2.9,1.1c0.7,0,1.3-0.1,1.9-0.2
		c0.6-0.1,1.3-0.3,2.1-0.7v1.8c-0.7,0.3-1.3,0.5-1.9,0.6C1081.4,767.9,1080.7,768,1079.9,768z M1079.4,756.8c-1,0-1.7,0.3-2.3,0.9
		c-0.6,0.6-0.9,1.5-1,2.6h6.3c0-1.2-0.3-2-0.8-2.6C1081.1,757.1,1080.3,756.8,1079.4,756.8z"/>
	<path class="st2" d="M1097.5,767.7l-2.1-6.9c-0.2-0.6-0.5-1.7-0.9-3.3h-0.1c-0.3,1.5-0.6,2.6-0.8,3.3l-2.2,6.9h-2.3l-3.4-12.3h2.1
		c0.8,3,1.4,5.3,1.8,6.9c0.4,1.6,0.6,2.7,0.7,3.3h0.1l0.2-0.7c0.2-1.1,0.5-1.9,0.7-2.6l2.2-7h2.2l2.1,7c0.1,0.3,0.2,0.5,0.2,0.8
		c0.1,0.3,0.2,0.6,0.2,0.9c0.1,0.3,0.1,0.6,0.2,0.8c0.1,0.3,0.1,0.5,0.1,0.7h0.1c0.1-0.6,0.3-1.8,0.8-3.7l1.7-6.6h2.1l-3.4,12.3
		H1097.5z"/>
	<path class="st2" d="M1113.5,764.3c0,1.2-0.4,2-1.3,2.7c-0.9,0.6-2.1,0.9-3.6,0.9c-1.6,0-2.9-0.3-3.9-0.8v-1.8c1.4,0.7,2.7,1,3.9,1
		c1,0,1.8-0.2,2.2-0.5c0.5-0.3,0.7-0.8,0.7-1.3c0-0.5-0.2-0.9-0.7-1.2c-0.4-0.3-1.2-0.7-2.4-1.2c-1.2-0.4-2-0.8-2.4-1.2
		c-0.5-0.3-0.8-0.7-1-1.1c-0.2-0.4-0.3-0.9-0.3-1.4c0-1,0.4-1.8,1.2-2.4c0.8-0.6,2-0.9,3.4-0.9c1.4,0,2.7,0.3,3.9,0.8l-0.7,1.6
		c-1.3-0.5-2.4-0.8-3.4-0.8c-0.8,0-1.5,0.1-1.9,0.4c-0.4,0.3-0.7,0.6-0.7,1.1c0,0.4,0.2,0.8,0.6,1.1c0.4,0.3,1.2,0.7,2.6,1.2
		c1,0.4,1.8,0.7,2.3,1.1c0.5,0.3,0.9,0.7,1.1,1.1C1113.4,763.3,1113.5,763.8,1113.5,764.3z"/>
	<path class="st2" d="M1133.2,761.6c0,2-0.5,3.6-1.5,4.7c-1,1.1-2.4,1.7-4.2,1.7c-1.1,0-2.1-0.3-3-0.8c-0.9-0.5-1.5-1.3-2-2.2
		c-0.5-1-0.7-2.1-0.7-3.4c0-2,0.5-3.6,1.5-4.7c1-1.1,2.4-1.7,4.2-1.7c1.7,0,3.1,0.6,4.1,1.7C1132.7,758,1133.2,759.6,1133.2,761.6z
		 M1123.9,761.6c0,1.5,0.3,2.7,0.9,3.5c0.6,0.8,1.5,1.2,2.7,1.2c1.2,0,2.1-0.4,2.7-1.2c0.6-0.8,0.9-2,0.9-3.5c0-1.5-0.3-2.7-0.9-3.5
		c-0.6-0.8-1.5-1.2-2.7-1.2C1125.1,756.9,1123.9,758.4,1123.9,761.6z"/>
	<path class="st2" d="M1144.8,767.7v-7.9c0-1-0.2-1.8-0.7-2.2c-0.4-0.5-1.1-0.7-2.1-0.7c-1.3,0-2.2,0.4-2.8,1.1
		c-0.6,0.7-0.9,1.8-0.9,3.4v6.4h-2v-12.3h1.6l0.3,1.7h0.1c0.4-0.6,0.9-1.1,1.6-1.4c0.7-0.3,1.4-0.5,2.3-0.5c1.5,0,2.6,0.4,3.4,1.1
		c0.7,0.7,1.1,1.9,1.1,3.4v8H1144.8z"/>
	<path class="st2" d="M1172.3,767.7v-7.9c0-1.9-0.8-2.9-2.5-2.9c-1.1,0-2,0.3-2.5,1c-0.5,0.7-0.8,1.7-0.8,3.1v6.8h-2v-7.9
		c0-1-0.2-1.7-0.6-2.2c-0.4-0.5-1-0.7-1.9-0.7c-1.1,0-2,0.3-2.5,1s-0.8,1.8-0.8,3.4v6.4h-2v-12.3h1.6l0.3,1.7h0.1
		c0.4-0.6,0.8-1.1,1.5-1.4c0.6-0.3,1.4-0.5,2.2-0.5c1.9,0,3.2,0.7,3.8,2.1h0.1c0.4-0.7,0.9-1.2,1.6-1.5c0.7-0.4,1.5-0.5,2.3-0.5
		c1.4,0,2.4,0.4,3.1,1.1c0.7,0.7,1,1.9,1,3.4v8H1172.3z"/>
	<path class="st2" d="M1188.8,761.6c0,2-0.5,3.6-1.5,4.7c-1,1.1-2.4,1.7-4.2,1.7c-1.1,0-2.1-0.3-3-0.8c-0.9-0.5-1.5-1.3-2-2.2
		c-0.5-1-0.7-2.1-0.7-3.4c0-2,0.5-3.6,1.5-4.7c1-1.1,2.4-1.7,4.2-1.7c1.7,0,3.1,0.6,4.1,1.7C1188.3,758,1188.8,759.6,1188.8,761.6z
		 M1179.5,761.6c0,1.5,0.3,2.7,0.9,3.5c0.6,0.8,1.5,1.2,2.7,1.2c1.2,0,2.1-0.4,2.7-1.2c0.6-0.8,0.9-2,0.9-3.5c0-1.5-0.3-2.7-0.9-3.5
		c-0.6-0.8-1.5-1.2-2.7-1.2C1180.7,756.9,1179.5,758.4,1179.5,761.6z"/>
	<path class="st2" d="M1197.8,755.2c1.6,0,2.9,0.6,3.8,1.7c0.9,1.1,1.3,2.7,1.3,4.7c0,2-0.4,3.6-1.3,4.7c-0.9,1.1-2.1,1.7-3.7,1.7
		c-0.8,0-1.6-0.1-2.2-0.4s-1.2-0.7-1.6-1.3h-0.2c-0.2,0.9-0.4,1.4-0.4,1.6h-1.4v-17.5h2v4.2c0,0.8,0,1.7-0.1,2.5h0.1
		C1194.9,755.8,1196.1,755.2,1197.8,755.2z M1197.5,756.9c-1.2,0-2.1,0.4-2.7,1.1c-0.5,0.7-0.8,1.9-0.8,3.6v0.1
		c0,1.7,0.3,2.9,0.8,3.6c0.6,0.7,1.5,1.1,2.7,1.1c1.1,0,1.9-0.4,2.5-1.2c0.5-0.8,0.8-2,0.8-3.5c0-1.6-0.3-2.7-0.8-3.5
		C1199.5,757.3,1198.6,756.9,1197.5,756.9z"/>
	<path class="st2" d="M1206,752.1c0-0.4,0.1-0.8,0.3-1c0.2-0.2,0.5-0.3,0.8-0.3c0.3,0,0.6,0.1,0.8,0.3c0.2,0.2,0.4,0.5,0.4,1
		c0,0.4-0.1,0.8-0.4,1c-0.2,0.2-0.5,0.3-0.8,0.3c-0.3,0-0.6-0.1-0.8-0.3C1206.1,752.8,1206,752.5,1206,752.1z M1208.2,767.7h-2
		v-12.3h2V767.7z"/>
	<path class="st2" d="M1214.1,767.7h-2v-17.5h2V767.7z"/>
	<path class="st2" d="M1223.3,768c-1.8,0-3.3-0.6-4.4-1.7c-1.1-1.1-1.6-2.7-1.6-4.6c0-2,0.5-3.6,1.5-4.7c1-1.2,2.3-1.8,4-1.8
		c1.5,0,2.8,0.5,3.7,1.5c0.9,1,1.4,2.4,1.4,4.1v1.2h-8.4c0,1.4,0.4,2.5,1.1,3.2c0.7,0.7,1.6,1.1,2.9,1.1c0.7,0,1.3-0.1,1.9-0.2
		c0.6-0.1,1.3-0.3,2.1-0.7v1.8c-0.7,0.3-1.3,0.5-1.9,0.6C1224.8,767.9,1224.1,768,1223.3,768z M1222.8,756.8c-1,0-1.7,0.3-2.3,0.9
		c-0.6,0.6-0.9,1.5-1,2.6h6.3c0-1.2-0.3-2-0.8-2.6C1224.4,757.1,1223.7,756.8,1222.8,756.8z"/>
	<path class="st2" d="M1245,764.3c0,1.2-0.4,2-1.3,2.7c-0.9,0.6-2.1,0.9-3.6,0.9c-1.6,0-2.9-0.3-3.9-0.8v-1.8c1.4,0.7,2.7,1,3.9,1
		c1,0,1.8-0.2,2.2-0.5c0.5-0.3,0.7-0.8,0.7-1.3c0-0.5-0.2-0.9-0.7-1.2c-0.4-0.3-1.2-0.7-2.4-1.2c-1.2-0.4-2-0.8-2.4-1.2
		c-0.5-0.3-0.8-0.7-1-1.1c-0.2-0.4-0.3-0.9-0.3-1.4c0-1,0.4-1.8,1.2-2.4c0.8-0.6,2-0.9,3.4-0.9c1.4,0,2.7,0.3,3.9,0.8l-0.7,1.6
		c-1.3-0.5-2.4-0.8-3.4-0.8c-0.8,0-1.5,0.1-1.9,0.4c-0.4,0.3-0.7,0.6-0.7,1.1c0,0.4,0.2,0.8,0.6,1.1c0.4,0.3,1.2,0.7,2.6,1.2
		c1,0.4,1.8,0.7,2.3,1.1c0.5,0.3,0.9,0.7,1.1,1.1C1244.9,763.3,1245,763.8,1245,764.3z"/>
	<path class="st2" d="M1256.4,767.7v-7.9c0-1-0.2-1.8-0.7-2.2c-0.4-0.5-1.1-0.7-2.1-0.7c-1.3,0-2.2,0.3-2.7,1
		c-0.6,0.7-0.9,1.8-0.9,3.4v6.4h-2v-17.5h2v5.1c0,0.7,0,1.3-0.1,1.7h0.1c0.4-0.6,0.9-1.1,1.6-1.4s1.4-0.5,2.3-0.5
		c1.5,0,2.6,0.4,3.4,1.1c0.8,0.7,1.1,1.9,1.1,3.4v8H1256.4z"/>
	<path class="st2" d="M1272.9,761.6c0,2-0.5,3.6-1.5,4.7c-1,1.1-2.4,1.7-4.2,1.7c-1.1,0-2.1-0.3-3-0.8c-0.9-0.5-1.5-1.3-2-2.2
		c-0.5-1-0.7-2.1-0.7-3.4c0-2,0.5-3.6,1.5-4.7c1-1.1,2.4-1.7,4.2-1.7c1.7,0,3.1,0.6,4.1,1.7C1272.4,758,1272.9,759.6,1272.9,761.6z
		 M1263.6,761.6c0,1.5,0.3,2.7,0.9,3.5c0.6,0.8,1.5,1.2,2.7,1.2c1.2,0,2.1-0.4,2.7-1.2c0.6-0.8,0.9-2,0.9-3.5c0-1.5-0.3-2.7-0.9-3.5
		c-0.6-0.8-1.5-1.2-2.7-1.2C1264.8,756.9,1263.6,758.4,1263.6,761.6z"/>
	<path class="st2" d="M1282,768c-1.7,0-2.9-0.6-3.8-1.8h-0.1l0,0.5c0.1,0.6,0.1,1.1,0.1,1.6v5.1h-2v-17.9h1.7l0.3,1.7h0.1
		c0.5-0.7,1-1.2,1.7-1.5c0.6-0.3,1.4-0.4,2.2-0.4c1.6,0,2.8,0.6,3.7,1.7c0.9,1.1,1.3,2.7,1.3,4.7c0,2-0.4,3.6-1.3,4.7
		C1284.8,767.4,1283.6,768,1282,768z M1281.6,756.9c-1.2,0-2.1,0.3-2.6,1c-0.5,0.7-0.8,1.8-0.8,3.2v0.4c0,1.7,0.3,2.9,0.8,3.6
		c0.6,0.7,1.5,1.1,2.7,1.1c1,0,1.8-0.4,2.4-1.3c0.6-0.8,0.9-2,0.9-3.5c0-1.5-0.3-2.7-0.9-3.5
		C1283.5,757.3,1282.7,756.9,1281.6,756.9z"/>
	<path class="st2" d="M1296.1,768c-1.7,0-2.9-0.6-3.8-1.8h-0.1l0,0.5c0.1,0.6,0.1,1.1,0.1,1.6v5.1h-2v-17.9h1.7l0.3,1.7h0.1
		c0.5-0.7,1-1.2,1.7-1.5c0.6-0.3,1.4-0.4,2.2-0.4c1.6,0,2.8,0.6,3.7,1.7c0.9,1.1,1.3,2.7,1.3,4.7c0,2-0.4,3.6-1.3,4.7
		C1299,767.4,1297.7,768,1296.1,768z M1295.8,756.9c-1.2,0-2.1,0.3-2.6,1c-0.5,0.7-0.8,1.8-0.8,3.2v0.4c0,1.7,0.3,2.9,0.8,3.6
		c0.6,0.7,1.5,1.1,2.7,1.1c1,0,1.8-0.4,2.4-1.3c0.6-0.8,0.9-2,0.9-3.5c0-1.5-0.3-2.7-0.9-3.5
		C1297.7,757.3,1296.8,756.9,1295.8,756.9z"/>
	<path class="st2" d="M1304.3,752.1c0-0.4,0.1-0.8,0.3-1c0.2-0.2,0.5-0.3,0.8-0.3c0.3,0,0.6,0.1,0.8,0.3c0.2,0.2,0.4,0.5,0.4,1
		c0,0.4-0.1,0.8-0.4,1c-0.2,0.2-0.5,0.3-0.8,0.3c-0.3,0-0.6-0.1-0.8-0.3C1304.4,752.8,1304.3,752.5,1304.3,752.1z M1306.4,767.7h-2
		v-12.3h2V767.7z"/>
	<path class="st2" d="M1318.7,767.7v-7.9c0-1-0.2-1.8-0.7-2.2c-0.4-0.5-1.1-0.7-2.1-0.7c-1.3,0-2.2,0.4-2.8,1.1
		c-0.6,0.7-0.9,1.8-0.9,3.4v6.4h-2v-12.3h1.6l0.3,1.7h0.1c0.4-0.6,0.9-1.1,1.6-1.4c0.7-0.3,1.4-0.5,2.3-0.5c1.5,0,2.6,0.4,3.4,1.1
		c0.7,0.7,1.1,1.9,1.1,3.4v8H1318.7z"/>
	<path class="st2" d="M1332.8,767.6l0.1-1.5h-0.1c-0.8,1.2-2.1,1.9-3.8,1.9c-1.6,0-2.8-0.6-3.7-1.7c-0.9-1.1-1.3-2.7-1.3-4.7
		c0-2,0.5-3.5,1.4-4.7c0.9-1.1,2.1-1.7,3.7-1.7c1.7,0,3,0.6,3.9,1.9h0.1l0.3-1.6h1.6v12.5c0,1.8-0.4,3.1-1.3,4
		c-0.9,0.9-2.3,1.3-4.2,1.3c-1.8,0-3.3-0.3-4.4-0.8v-1.9c1.2,0.6,2.7,1,4.5,1c1,0,1.9-0.3,2.5-0.9c0.6-0.6,0.9-1.5,0.9-2.5V767.6z
		 M1329.3,766.3c1.2,0,2.1-0.3,2.7-1c0.6-0.7,0.8-1.7,0.8-3.2v-0.5c0-1.6-0.3-2.8-0.9-3.6c-0.6-0.7-1.5-1.1-2.8-1.1
		c-1,0-1.8,0.4-2.4,1.2c-0.6,0.8-0.8,2-0.8,3.5c0,1.5,0.3,2.7,0.8,3.5C1327.3,765.9,1328.2,766.3,1329.3,766.3z"/>
	<path class="st2" d="M1338.4,766.5c0-0.5,0.1-0.9,0.4-1.1c0.2-0.3,0.6-0.4,1-0.4c0.5,0,0.8,0.1,1.1,0.4c0.3,0.3,0.4,0.6,0.4,1.1
		c0,0.5-0.1,0.9-0.4,1.2c-0.3,0.3-0.6,0.4-1.1,0.4c-0.4,0-0.8-0.1-1-0.4C1338.5,767.4,1338.4,767,1338.4,766.5z"/>
</g>
<g>
	<rect x="64.4" y="33.8" class="st30" width="51.2" height="251"/>
	<rect x="198.4" y="217.1" class="st31" width="51.2" height="67.7"/>
	<rect x="265.5" y="217.2" class="st32" width="51.2" height="69.5"/>
	<rect x="332.5" y="237.3" class="st33" width="51.2" height="47.7"/>
	<rect x="399.5" y="261.2" class="st34" width="51.2" height="24"/>
	<rect x="131.4" y="140.3" class="st34" width="51.2" height="146.4"/>
	<line class="st35" x1="1.2" y1="286.7" x2="526.2" y2="286.7"/>
	<line class="st36" x1="30.9" y1="317.8" x2="30.9" y2="1.2"/>
	<g>
		<path class="st37" d="M64.2,299h3.6c1.6,0,2.8,0.2,3.6,0.7s1.1,1.2,1.1,2.2c0,0.7-0.2,1.3-0.5,1.7c-0.3,0.4-0.8,0.7-1.3,0.8v0.1
			c0.7,0.2,1.3,0.5,1.6,0.9c0.3,0.4,0.5,1,0.5,1.8c0,1.1-0.4,1.9-1.1,2.5s-1.8,0.9-3.1,0.9h-4.3V299z M66.7,303.6h1.4
			c0.7,0,1.1-0.1,1.4-0.3s0.4-0.5,0.4-1c0-0.4-0.2-0.8-0.5-1c-0.3-0.2-0.8-0.3-1.5-0.3h-1.3V303.6z M66.7,305.5v3h1.6
			c0.7,0,1.2-0.1,1.5-0.4c0.3-0.3,0.5-0.7,0.5-1.2c0-1-0.7-1.4-2.1-1.4H66.7z"/>
		<path class="st37" d="M78.9,310.7c-1.4,0-2.5-0.4-3.3-1.2c-0.8-0.8-1.2-1.9-1.2-3.3c0-1.5,0.4-2.6,1.1-3.4s1.8-1.2,3.1-1.2
			c1.2,0,2.2,0.4,2.9,1.1c0.7,0.7,1,1.7,1,2.9v1.2h-5.7c0,0.7,0.2,1.2,0.6,1.6s0.9,0.6,1.6,0.6c0.5,0,1-0.1,1.5-0.2s1-0.3,1.5-0.5
			v1.9c-0.4,0.2-0.9,0.4-1.3,0.5S79.6,310.7,78.9,310.7z M78.5,303.3c-0.5,0-0.9,0.2-1.2,0.5s-0.5,0.8-0.5,1.4h3.4
			c0-0.6-0.2-1.1-0.5-1.4S79,303.3,78.5,303.3z"/>
		<path class="st37" d="M86.8,310.5h-2.4v-12.3h2.4V310.5z"/>
		<path class="st37" d="M97.4,306.1c0,1.4-0.4,2.6-1.1,3.4c-0.8,0.8-1.8,1.2-3.2,1.2c-0.8,0-1.6-0.2-2.2-0.6s-1.1-0.9-1.5-1.6
			c-0.3-0.7-0.5-1.5-0.5-2.4c0-1.4,0.4-2.6,1.1-3.4s1.8-1.2,3.2-1.2c0.8,0,1.6,0.2,2.2,0.6s1.1,0.9,1.5,1.6S97.4,305.2,97.4,306.1z
			 M91.3,306.1c0,0.9,0.1,1.5,0.4,2c0.3,0.4,0.8,0.7,1.4,0.7c0.6,0,1.1-0.2,1.4-0.7s0.4-1.1,0.4-2c0-0.9-0.1-1.5-0.4-2
			c-0.3-0.4-0.7-0.7-1.4-0.7c-0.6,0-1.1,0.2-1.4,0.7C91.4,304.6,91.3,305.2,91.3,306.1z"/>
		<path class="st37" d="M106.5,310.5l-0.7-3.1l-0.9-3.9h-0.1l-1.6,7h-2.6l-2.5-8.8h2.4l1,3.9c0.1,0.5,0.3,1.4,0.5,2.9h0.1
			c0-0.4,0.1-1,0.3-1.9l0.1-0.7l1.1-4.2h2.7l1,4.2c0.1,0.3,0.1,0.7,0.2,1.3c0.1,0.6,0.1,1,0.2,1.3h0.1c0.1-0.5,0.1-1,0.2-1.6
			c0.1-0.6,0.2-1,0.3-1.3l1.1-3.9h2.4l-2.5,8.8H106.5z"/>
		<path class="st37" d="M66.9,331.8v-1.7c-2.2-0.3-3.3-1.9-3.5-3.3l2-0.5c0.1,1,0.8,2,2.3,2c1.1,0,1.7-0.5,1.7-1.2
			c0-0.5-0.4-1-1.2-1.1l-1.5-0.3c-1.7-0.4-2.8-1.5-2.8-3c0-1.7,1.3-3,3.1-3.2v-1.7h1.6v1.8c1.9,0.3,2.7,1.6,2.9,2.7l-2,0.6
			c-0.1-0.6-0.5-1.5-1.8-1.5c-1,0-1.6,0.6-1.6,1.3c0,0.5,0.4,0.9,1.1,1.1l1.5,0.3c2,0.5,3,1.7,3,3.1c0,1.5-1.1,2.9-3,3.2v1.7H66.9z"
			/>
		<path class="st37" d="M79.1,329.9h-2.4v-6.7l0-1.1l0-1.2c-0.4,0.4-0.7,0.7-0.8,0.8l-1.3,1.1l-1.2-1.5l3.7-3h2V329.9z"/>
		<path class="st37" d="M90.3,324.2c0,2-0.3,3.5-1,4.5c-0.7,1-1.7,1.5-3,1.5c-1.3,0-2.3-0.5-3-1.5c-0.7-1-1-2.5-1-4.4
			c0-2,0.3-3.5,1-4.5c0.7-1,1.7-1.4,3-1.4c1.3,0,2.3,0.5,3,1.5C89.9,320.7,90.3,322.2,90.3,324.2z M84.6,324.2c0,1.4,0.1,2.4,0.4,3
			c0.2,0.6,0.7,0.9,1.2,0.9c0.6,0,1-0.3,1.2-0.9s0.4-1.6,0.4-3c0-1.4-0.1-2.4-0.4-3c-0.3-0.6-0.7-0.9-1.2-0.9c-0.6,0-1,0.3-1.2,0.9
			C84.8,321.7,84.6,322.7,84.6,324.2z"/>
		<path class="st37" d="M99.5,324.2c0,2-0.3,3.5-1,4.5c-0.7,1-1.7,1.5-3,1.5c-1.3,0-2.3-0.5-3-1.5s-1-2.5-1-4.4c0-2,0.3-3.5,1-4.5
			c0.7-1,1.7-1.4,3-1.4c1.3,0,2.3,0.5,3,1.5C99.2,320.7,99.5,322.2,99.5,324.2z M93.9,324.2c0,1.4,0.1,2.4,0.4,3
			c0.2,0.6,0.7,0.9,1.2,0.9c0.6,0,1-0.3,1.2-0.9s0.4-1.6,0.4-3c0-1.4-0.1-2.4-0.4-3c-0.3-0.6-0.7-0.9-1.2-0.9c-0.6,0-1,0.3-1.2,0.9
			C94,321.7,93.9,322.7,93.9,324.2z"/>
	</g>
	<g>
		<path class="st37" d="M135.9,312.4v-1.7c-2.2-0.3-3.3-1.9-3.5-3.3l2-0.5c0.1,1,0.8,2,2.3,2c1.1,0,1.7-0.5,1.7-1.2
			c0-0.5-0.4-1-1.2-1.1l-1.5-0.3c-1.7-0.4-2.8-1.5-2.8-3c0-1.7,1.3-3,3.1-3.2v-1.7h1.6v1.8c1.9,0.3,2.7,1.6,2.9,2.7l-2,0.6
			c-0.1-0.6-0.5-1.5-1.8-1.5c-1,0-1.6,0.6-1.6,1.3c0,0.5,0.4,0.9,1.1,1.1l1.5,0.3c2,0.5,3,1.7,3,3.1c0,1.5-1.1,2.9-3,3.2v1.7H135.9z
			"/>
		<path class="st37" d="M148.1,310.5h-2.4v-6.7l0-1.1l0-1.2c-0.4,0.4-0.7,0.7-0.8,0.8l-1.3,1.1l-1.2-1.5l3.7-3h2V310.5z"/>
		<path class="st37" d="M159.3,304.8c0,2-0.3,3.5-1,4.5c-0.7,1-1.7,1.5-3,1.5c-1.3,0-2.3-0.5-3-1.5s-1-2.5-1-4.4c0-2,0.3-3.5,1-4.5
			c0.7-1,1.7-1.4,3-1.4c1.3,0,2.3,0.5,3,1.5C158.9,301.3,159.3,302.8,159.3,304.8z M153.6,304.8c0,1.4,0.1,2.4,0.4,3
			c0.2,0.6,0.7,0.9,1.2,0.9c0.6,0,1-0.3,1.2-0.9s0.4-1.6,0.4-3c0-1.4-0.1-2.4-0.4-3c-0.3-0.6-0.7-0.9-1.2-0.9c-0.6,0-1,0.3-1.2,0.9
			C153.8,302.3,153.6,303.4,153.6,304.8z"/>
		<path class="st37" d="M166.6,310.5h-2.4v-6.7l0-1.1l0-1.2c-0.4,0.4-0.7,0.7-0.8,0.8l-1.3,1.1l-1.2-1.5l3.7-3h2V310.5z"/>
		<path class="st37" d="M169.6,307.2v-2h4.2v2H169.6z"/>
		<path class="st37" d="M135.9,331.8v-1.7c-2.2-0.3-3.3-1.9-3.5-3.3l2-0.5c0.1,1,0.8,2,2.3,2c1.1,0,1.7-0.5,1.7-1.2
			c0-0.5-0.4-1-1.2-1.1l-1.5-0.3c-1.7-0.4-2.8-1.5-2.8-3c0-1.7,1.3-3,3.1-3.2v-1.7h1.6v1.8c1.9,0.3,2.7,1.6,2.9,2.7l-2,0.6
			c-0.1-0.6-0.5-1.5-1.8-1.5c-1,0-1.6,0.6-1.6,1.3c0,0.5,0.4,0.9,1.1,1.1l1.5,0.3c2,0.5,3,1.7,3,3.1c0,1.5-1.1,2.9-3,3.2v1.7H135.9z
			"/>
		<path class="st37" d="M150.1,329.9h-8.1v-1.7l2.9-2.9c0.9-0.9,1.4-1.5,1.7-1.8c0.3-0.3,0.5-0.7,0.6-0.9c0.1-0.3,0.2-0.6,0.2-0.9
			c0-0.5-0.1-0.8-0.4-1s-0.6-0.3-1-0.3c-0.4,0-0.9,0.1-1.3,0.3c-0.4,0.2-0.9,0.5-1.3,0.9l-1.3-1.6c0.6-0.5,1-0.8,1.4-1
			s0.8-0.4,1.2-0.5c0.4-0.1,0.9-0.2,1.5-0.2c0.7,0,1.4,0.1,1.9,0.4c0.6,0.3,1,0.6,1.3,1.1c0.3,0.5,0.5,1,0.5,1.6
			c0,0.5-0.1,1-0.3,1.5s-0.5,0.9-0.9,1.4c-0.4,0.5-1.1,1.2-2.1,2.1l-1.5,1.4v0.1h5V329.9z"/>
		<path class="st37" d="M155.5,322.5c1.1,0,2,0.3,2.7,0.9c0.7,0.6,1,1.5,1,2.6c0,1.3-0.4,2.3-1.2,3c-0.8,0.7-1.9,1-3.4,1
			c-1.3,0-2.3-0.2-3.1-0.6v-2.1c0.4,0.2,0.9,0.4,1.5,0.5c0.6,0.1,1.1,0.2,1.6,0.2c1.5,0,2.2-0.6,2.2-1.8c0-1.2-0.8-1.7-2.3-1.7
			c-0.3,0-0.6,0-0.9,0.1s-0.6,0.1-0.8,0.2l-1-0.5l0.4-5.9h6.3v2.1h-4.1l-0.2,2.3l0.3-0.1C154.6,322.6,155,322.5,155.5,322.5z"/>
		<path class="st37" d="M168.5,324.2c0,2-0.3,3.5-1,4.5c-0.7,1-1.7,1.5-3,1.5c-1.3,0-2.3-0.5-3-1.5c-0.7-1-1-2.5-1-4.4
			c0-2,0.3-3.5,1-4.5c0.7-1,1.7-1.4,3-1.4c1.3,0,2.3,0.5,3,1.5C168.2,320.7,168.5,322.2,168.5,324.2z M162.9,324.2
			c0,1.4,0.1,2.4,0.4,3c0.2,0.6,0.7,0.9,1.2,0.9c0.6,0,1-0.3,1.2-0.9s0.4-1.6,0.4-3c0-1.4-0.1-2.4-0.4-3c-0.3-0.6-0.7-0.9-1.2-0.9
			c-0.6,0-1,0.3-1.2,0.9C163,321.7,162.9,322.7,162.9,324.2z"/>
	</g>
	<g>
		<path class="st37" d="M203.9,312.4v-1.7c-2.2-0.3-3.3-1.9-3.5-3.3l2-0.5c0.1,1,0.8,2,2.3,2c1.1,0,1.7-0.5,1.7-1.2
			c0-0.5-0.4-1-1.2-1.1l-1.5-0.3c-1.7-0.4-2.8-1.5-2.8-3c0-1.7,1.3-3,3.1-3.2v-1.7h1.6v1.8c1.9,0.3,2.7,1.6,2.9,2.7l-2,0.6
			c-0.1-0.6-0.5-1.5-1.8-1.5c-1,0-1.6,0.6-1.6,1.3c0,0.5,0.4,0.9,1.1,1.1l1.5,0.3c2,0.5,3,1.7,3,3.1c0,1.5-1.1,2.9-3,3.2v1.7H203.9z
			"/>
		<path class="st37" d="M218.1,310.5H210v-1.7l2.9-2.9c0.9-0.9,1.4-1.5,1.7-1.8c0.3-0.3,0.5-0.7,0.6-0.9c0.1-0.3,0.2-0.6,0.2-0.9
			c0-0.5-0.1-0.8-0.4-1c-0.3-0.2-0.6-0.3-1-0.3c-0.4,0-0.9,0.1-1.3,0.3c-0.4,0.2-0.9,0.5-1.3,0.9l-1.3-1.6c0.6-0.5,1-0.8,1.4-1
			c0.4-0.2,0.8-0.4,1.2-0.5c0.4-0.1,0.9-0.2,1.5-0.2c0.7,0,1.4,0.1,1.9,0.4c0.6,0.3,1,0.6,1.3,1.1c0.3,0.5,0.5,1,0.5,1.6
			c0,0.5-0.1,1-0.3,1.5s-0.5,0.9-0.9,1.4c-0.4,0.5-1.1,1.2-2.1,2.1l-1.5,1.4v0.1h5V310.5z"/>
		<path class="st37" d="M223.5,303.2c1.1,0,2,0.3,2.7,0.9c0.7,0.6,1,1.5,1,2.6c0,1.3-0.4,2.3-1.2,3c-0.8,0.7-1.9,1-3.4,1
			c-1.3,0-2.3-0.2-3.1-0.6V308c0.4,0.2,0.9,0.4,1.5,0.5c0.6,0.1,1.1,0.2,1.6,0.2c1.5,0,2.2-0.6,2.2-1.8c0-1.2-0.8-1.7-2.3-1.7
			c-0.3,0-0.6,0-0.9,0.1c-0.3,0.1-0.6,0.1-0.8,0.2l-1-0.5l0.4-5.9h6.3v2.1h-4.1l-0.2,2.3l0.3-0.1C222.6,303.2,223,303.2,223.5,303.2
			z"/>
		<path class="st37" d="M234.5,310.5h-2.4v-6.7l0-1.1l0-1.2c-0.4,0.4-0.7,0.7-0.8,0.8l-1.3,1.1l-1.2-1.5l3.7-3h2V310.5z"/>
		<path class="st37" d="M237.6,307.2v-2h4.2v2H237.6z"/>
		<path class="st37" d="M203.9,331.8v-1.7c-2.2-0.3-3.3-1.9-3.5-3.3l2-0.5c0.1,1,0.8,2,2.3,2c1.1,0,1.7-0.5,1.7-1.2
			c0-0.5-0.4-1-1.2-1.1l-1.5-0.3c-1.7-0.4-2.8-1.5-2.8-3c0-1.7,1.3-3,3.1-3.2v-1.7h1.6v1.8c1.9,0.3,2.7,1.6,2.9,2.7l-2,0.6
			c-0.1-0.6-0.5-1.5-1.8-1.5c-1,0-1.6,0.6-1.6,1.3c0,0.5,0.4,0.9,1.1,1.1l1.5,0.3c2,0.5,3,1.7,3,3.1c0,1.5-1.1,2.9-3,3.2v1.7H203.9z
			"/>
		<path class="st37" d="M217.7,321c0,0.7-0.2,1.3-0.7,1.8s-1,0.9-1.8,1v0c0.9,0.1,1.6,0.4,2.1,0.8c0.5,0.4,0.7,1.1,0.7,1.8
			c0,1.1-0.4,2-1.2,2.6c-0.8,0.6-2,0.9-3.4,0.9c-1.3,0-2.4-0.2-3.3-0.6v-2.1c0.4,0.2,0.9,0.4,1.5,0.6c0.5,0.1,1.1,0.2,1.6,0.2
			c0.8,0,1.4-0.1,1.8-0.4s0.6-0.7,0.6-1.3c0-0.5-0.2-0.9-0.7-1.2s-1.1-0.3-2.1-0.3h-0.9v-1.9h0.9c0.9,0,1.5-0.1,2-0.4
			c0.4-0.2,0.6-0.6,0.6-1.2c0-0.9-0.5-1.3-1.6-1.3c-0.4,0-0.8,0.1-1.2,0.2c-0.4,0.1-0.8,0.3-1.3,0.7l-1.1-1.7
			c1.1-0.8,2.3-1.1,3.8-1.1c1.2,0,2.1,0.2,2.8,0.7C217.3,319.4,217.7,320.1,217.7,321z"/>
		<path class="st37" d="M223.5,322.5c1.1,0,2,0.3,2.7,0.9c0.7,0.6,1,1.5,1,2.6c0,1.3-0.4,2.3-1.2,3c-0.8,0.7-1.9,1-3.4,1
			c-1.3,0-2.3-0.2-3.1-0.6v-2.1c0.4,0.2,0.9,0.4,1.5,0.5c0.6,0.1,1.1,0.2,1.6,0.2c1.5,0,2.2-0.6,2.2-1.8c0-1.2-0.8-1.7-2.3-1.7
			c-0.3,0-0.6,0-0.9,0.1c-0.3,0.1-0.6,0.1-0.8,0.2l-1-0.5l0.4-5.9h6.3v2.1h-4.1l-0.2,2.3l0.3-0.1C222.6,322.6,223,322.5,223.5,322.5
			z"/>
		<path class="st37" d="M236.5,324.2c0,2-0.3,3.5-1,4.5s-1.7,1.5-3,1.5c-1.3,0-2.3-0.5-3-1.5s-1-2.5-1-4.4c0-2,0.3-3.5,1-4.5
			c0.7-1,1.7-1.4,3-1.4c1.3,0,2.3,0.5,3,1.5C236.2,320.7,236.5,322.2,236.5,324.2z M230.9,324.2c0,1.4,0.1,2.4,0.4,3
			c0.2,0.6,0.7,0.9,1.2,0.9c0.6,0,1-0.3,1.2-0.9s0.4-1.6,0.4-3c0-1.4-0.1-2.4-0.4-3c-0.3-0.6-0.7-0.9-1.2-0.9c-0.6,0-1,0.3-1.2,0.9
			C231,321.7,230.9,322.7,230.9,324.2z"/>
	</g>
	<g>
		<path class="st37" d="M272.9,312.4v-1.7c-2.2-0.3-3.3-1.9-3.5-3.3l2-0.5c0.1,1,0.8,2,2.3,2c1.1,0,1.7-0.5,1.7-1.2
			c0-0.5-0.4-1-1.2-1.1l-1.5-0.3c-1.7-0.4-2.8-1.5-2.8-3c0-1.7,1.3-3,3.1-3.2v-1.7h1.6v1.8c1.9,0.3,2.7,1.6,2.9,2.7l-2,0.6
			c-0.1-0.6-0.5-1.5-1.8-1.5c-1,0-1.6,0.6-1.6,1.3c0,0.5,0.4,0.9,1.1,1.1l1.5,0.3c2,0.5,3,1.7,3,3.1c0,1.5-1.1,2.9-3,3.2v1.7H272.9z
			"/>
		<path class="st37" d="M286.6,301.6c0,0.7-0.2,1.3-0.7,1.8s-1,0.9-1.8,1v0c0.9,0.1,1.6,0.4,2.1,0.8c0.5,0.4,0.7,1.1,0.7,1.8
			c0,1.1-0.4,2-1.2,2.6c-0.8,0.6-2,0.9-3.4,0.9c-1.3,0-2.4-0.2-3.3-0.6V308c0.4,0.2,0.9,0.4,1.5,0.6c0.5,0.1,1.1,0.2,1.6,0.2
			c0.8,0,1.4-0.1,1.8-0.4s0.6-0.7,0.6-1.3c0-0.5-0.2-0.9-0.7-1.2c-0.4-0.2-1.1-0.3-2.1-0.3h-0.9v-1.9h0.9c0.9,0,1.5-0.1,2-0.4
			s0.6-0.6,0.6-1.2c0-0.9-0.5-1.3-1.6-1.3c-0.4,0-0.8,0.1-1.2,0.2c-0.4,0.1-0.8,0.3-1.3,0.7L279,300c1.1-0.8,2.3-1.1,3.8-1.1
			c1.2,0,2.1,0.2,2.8,0.7C286.3,300,286.6,300.7,286.6,301.6z"/>
		<path class="st37" d="M292.5,303.2c1.1,0,2,0.3,2.7,0.9c0.7,0.6,1,1.5,1,2.6c0,1.3-0.4,2.3-1.2,3c-0.8,0.7-1.9,1-3.4,1
			c-1.3,0-2.3-0.2-3.1-0.6V308c0.4,0.2,0.9,0.4,1.5,0.5c0.6,0.1,1.1,0.2,1.6,0.2c1.5,0,2.2-0.6,2.2-1.8c0-1.2-0.8-1.7-2.3-1.7
			c-0.3,0-0.6,0-0.9,0.1s-0.6,0.1-0.8,0.2l-1-0.5l0.4-5.9h6.3v2.1h-4.1l-0.2,2.3l0.3-0.1C291.6,303.2,292,303.2,292.5,303.2z"/>
		<path class="st37" d="M303.5,310.5h-2.4v-6.7l0-1.1l0-1.2c-0.4,0.4-0.7,0.7-0.8,0.8l-1.3,1.1l-1.2-1.5l3.7-3h2V310.5z"/>
		<path class="st37" d="M306.6,307.2v-2h4.2v2H306.6z"/>
		<path class="st37" d="M272.9,331.8v-1.7c-2.2-0.3-3.3-1.9-3.5-3.3l2-0.5c0.1,1,0.8,2,2.3,2c1.1,0,1.7-0.5,1.7-1.2
			c0-0.5-0.4-1-1.2-1.1l-1.5-0.3c-1.7-0.4-2.8-1.5-2.8-3c0-1.7,1.3-3,3.1-3.2v-1.7h1.6v1.8c1.9,0.3,2.7,1.6,2.9,2.7l-2,0.6
			c-0.1-0.6-0.5-1.5-1.8-1.5c-1,0-1.6,0.6-1.6,1.3c0,0.5,0.4,0.9,1.1,1.1l1.5,0.3c2,0.5,3,1.7,3,3.1c0,1.5-1.1,2.9-3,3.2v1.7H272.9z
			"/>
		<path class="st37" d="M283.2,322.5c1.1,0,2,0.3,2.7,0.9c0.7,0.6,1,1.5,1,2.6c0,1.3-0.4,2.3-1.2,3c-0.8,0.7-1.9,1-3.4,1
			c-1.3,0-2.3-0.2-3.1-0.6v-2.1c0.4,0.2,0.9,0.4,1.5,0.5c0.6,0.1,1.1,0.2,1.6,0.2c1.5,0,2.2-0.6,2.2-1.8c0-1.2-0.8-1.7-2.3-1.7
			c-0.3,0-0.6,0-0.9,0.1s-0.6,0.1-0.8,0.2l-1-0.5l0.4-5.9h6.3v2.1H282l-0.2,2.3l0.3-0.1C282.4,322.6,282.8,322.5,283.2,322.5z"/>
		<path class="st37" d="M296.3,324.2c0,2-0.3,3.5-1,4.5c-0.7,1-1.7,1.5-3,1.5c-1.3,0-2.3-0.5-3-1.5c-0.7-1-1-2.5-1-4.4
			c0-2,0.3-3.5,1-4.5c0.7-1,1.7-1.4,3-1.4c1.3,0,2.3,0.5,3,1.5C295.9,320.7,296.3,322.2,296.3,324.2z M290.6,324.2
			c0,1.4,0.1,2.4,0.4,3c0.2,0.6,0.7,0.9,1.2,0.9c0.6,0,1-0.3,1.2-0.9s0.4-1.6,0.4-3c0-1.4-0.1-2.4-0.4-3c-0.3-0.6-0.7-0.9-1.2-0.9
			c-0.6,0-1,0.3-1.2,0.9C290.8,321.7,290.6,322.7,290.6,324.2z"/>
		<path class="st37" d="M305.5,324.2c0,2-0.3,3.5-1,4.5c-0.7,1-1.7,1.5-3,1.5c-1.3,0-2.3-0.5-3-1.5s-1-2.5-1-4.4c0-2,0.3-3.5,1-4.5
			c0.7-1,1.7-1.4,3-1.4c1.3,0,2.3,0.5,3,1.5C305.2,320.7,305.5,322.2,305.5,324.2z M299.9,324.2c0,1.4,0.1,2.4,0.4,3
			c0.2,0.6,0.7,0.9,1.2,0.9c0.6,0,1-0.3,1.2-0.9s0.4-1.6,0.4-3c0-1.4-0.1-2.4-0.4-3c-0.3-0.6-0.7-0.9-1.2-0.9c-0.6,0-1,0.3-1.2,0.9
			C300,321.7,299.9,322.7,299.9,324.2z"/>
	</g>
	<g>
		<path class="st37" d="M339.9,312.4v-1.7c-2.2-0.3-3.3-1.9-3.5-3.3l2-0.5c0.1,1,0.8,2,2.3,2c1.1,0,1.7-0.5,1.7-1.2
			c0-0.5-0.4-1-1.2-1.1l-1.5-0.3c-1.7-0.4-2.8-1.5-2.8-3c0-1.7,1.3-3,3.1-3.2v-1.7h1.6v1.8c1.9,0.3,2.7,1.6,2.9,2.7l-2,0.6
			c-0.1-0.6-0.5-1.5-1.8-1.5c-1,0-1.6,0.6-1.6,1.3c0,0.5,0.4,0.9,1.1,1.1l1.5,0.3c2,0.5,3,1.7,3,3.1c0,1.5-1.1,2.9-3,3.2v1.7H339.9z
			"/>
		<path class="st37" d="M350.2,303.2c1.1,0,2,0.3,2.7,0.9c0.7,0.6,1,1.5,1,2.6c0,1.3-0.4,2.3-1.2,3c-0.8,0.7-1.9,1-3.4,1
			c-1.3,0-2.3-0.2-3.1-0.6V308c0.4,0.2,0.9,0.4,1.5,0.5c0.6,0.1,1.1,0.2,1.6,0.2c1.5,0,2.2-0.6,2.2-1.8c0-1.2-0.8-1.7-2.3-1.7
			c-0.3,0-0.6,0-0.9,0.1c-0.3,0.1-0.6,0.1-0.8,0.2l-1-0.5l0.4-5.9h6.3v2.1H349l-0.2,2.3l0.3-0.1
			C349.4,303.2,349.7,303.2,350.2,303.2z"/>
		<path class="st37" d="M363.3,304.8c0,2-0.3,3.5-1,4.5c-0.7,1-1.7,1.5-3,1.5c-1.3,0-2.3-0.5-3-1.5s-1-2.5-1-4.4c0-2,0.3-3.5,1-4.5
			c0.7-1,1.7-1.4,3-1.4c1.3,0,2.3,0.5,3,1.5C362.9,301.3,363.3,302.8,363.3,304.8z M357.6,304.8c0,1.4,0.1,2.4,0.4,3
			s0.7,0.9,1.2,0.9c0.6,0,1-0.3,1.2-0.9c0.3-0.6,0.4-1.6,0.4-3c0-1.4-0.1-2.4-0.4-3c-0.3-0.6-0.7-0.9-1.2-0.9c-0.6,0-1,0.3-1.2,0.9
			C357.7,302.3,357.6,303.4,357.6,304.8z"/>
		<path class="st37" d="M370.5,310.5h-2.4v-6.7l0-1.1l0-1.2c-0.4,0.4-0.7,0.7-0.8,0.8l-1.3,1.1l-1.2-1.5l3.7-3h2V310.5z"/>
		<path class="st37" d="M373.6,307.2v-2h4.2v2H373.6z"/>
		<path class="st37" d="M339.9,331.8v-1.7c-2.2-0.3-3.3-1.9-3.5-3.3l2-0.5c0.1,1,0.8,2,2.3,2c1.1,0,1.7-0.5,1.7-1.2
			c0-0.5-0.4-1-1.2-1.1l-1.5-0.3c-1.7-0.4-2.8-1.5-2.8-3c0-1.7,1.3-3,3.1-3.2v-1.7h1.6v1.8c1.9,0.3,2.7,1.6,2.9,2.7l-2,0.6
			c-0.1-0.6-0.5-1.5-1.8-1.5c-1,0-1.6,0.6-1.6,1.3c0,0.5,0.4,0.9,1.1,1.1l1.5,0.3c2,0.5,3,1.7,3,3.1c0,1.5-1.1,2.9-3,3.2v1.7H339.9z
			"/>
		<path class="st37" d="M352.1,329.9h-2.4v-6.7l0-1.1l0-1.2c-0.4,0.4-0.7,0.7-0.8,0.8l-1.3,1.1l-1.2-1.5l3.7-3h2V329.9z"/>
		<path class="st37" d="M363.3,324.2c0,2-0.3,3.5-1,4.5c-0.7,1-1.7,1.5-3,1.5c-1.3,0-2.3-0.5-3-1.5s-1-2.5-1-4.4c0-2,0.3-3.5,1-4.5
			c0.7-1,1.7-1.4,3-1.4c1.3,0,2.3,0.5,3,1.5C362.9,320.7,363.3,322.2,363.3,324.2z M357.6,324.2c0,1.4,0.1,2.4,0.4,3
			s0.7,0.9,1.2,0.9c0.6,0,1-0.3,1.2-0.9c0.3-0.6,0.4-1.6,0.4-3c0-1.4-0.1-2.4-0.4-3c-0.3-0.6-0.7-0.9-1.2-0.9c-0.6,0-1,0.3-1.2,0.9
			C357.7,321.7,357.6,322.7,357.6,324.2z"/>
		<path class="st37" d="M372.5,324.2c0,2-0.3,3.5-1,4.5c-0.7,1-1.7,1.5-3,1.5c-1.3,0-2.3-0.5-3-1.5s-1-2.5-1-4.4c0-2,0.3-3.5,1-4.5
			c0.7-1,1.7-1.4,3-1.4c1.3,0,2.3,0.5,3,1.5S372.5,322.2,372.5,324.2z M366.9,324.2c0,1.4,0.1,2.4,0.4,3c0.2,0.6,0.7,0.9,1.2,0.9
			c0.6,0,1-0.3,1.2-0.9c0.3-0.6,0.4-1.6,0.4-3c0-1.4-0.1-2.4-0.4-3c-0.3-0.6-0.7-0.9-1.2-0.9c-0.6,0-1,0.3-1.2,0.9
			C367,321.7,366.9,322.7,366.9,324.2z"/>
		<path class="st37" d="M381.7,324.2c0,2-0.3,3.5-1,4.5c-0.7,1-1.7,1.5-3,1.5c-1.3,0-2.3-0.5-3-1.5c-0.7-1-1-2.5-1-4.4
			c0-2,0.3-3.5,1-4.5c0.7-1,1.7-1.4,3-1.4c1.3,0,2.3,0.5,3,1.5C381.4,320.7,381.7,322.2,381.7,324.2z M376.1,324.2
			c0,1.4,0.1,2.4,0.4,3c0.2,0.6,0.7,0.9,1.2,0.9c0.6,0,1-0.3,1.2-0.9c0.3-0.6,0.4-1.6,0.4-3c0-1.4-0.1-2.4-0.4-3
			c-0.3-0.6-0.7-0.9-1.2-0.9c-0.6,0-1,0.3-1.2,0.9C376.2,321.7,376.1,322.7,376.1,324.2z"/>
	</g>
	<g>
		<path class="st37" d="M411.3,310.5l-0.8-2.7h-4.2l-0.8,2.7h-2.6l4.1-11.6h3l4.1,11.6H411.3z M409.8,305.7
			c-0.8-2.5-1.2-3.9-1.3-4.2s-0.2-0.6-0.2-0.8c-0.2,0.7-0.7,2.3-1.5,5H409.8z"/>
		<path class="st37" d="M420.1,301.5c1,0,1.9,0.4,2.4,1.2s0.9,1.9,0.9,3.3c0,1.5-0.3,2.6-0.9,3.4s-1.4,1.2-2.5,1.2
			c-1,0-1.8-0.4-2.4-1.1h-0.2l-0.4,1h-1.8v-12.3h2.4v2.9c0,0.4,0,0.9-0.1,1.7h0.1C418.1,302,418.9,301.5,420.1,301.5z M419.3,303.5
			c-0.6,0-1,0.2-1.3,0.5c-0.3,0.4-0.4,1-0.4,1.8v0.3c0,0.9,0.1,1.6,0.4,2s0.7,0.6,1.3,0.6c0.5,0,0.9-0.2,1.2-0.7
			c0.3-0.5,0.4-1.1,0.4-2c0-0.9-0.1-1.5-0.4-2C420.2,303.7,419.8,303.5,419.3,303.5z"/>
		<path class="st37" d="M433.4,306.1c0,1.4-0.4,2.6-1.1,3.4c-0.8,0.8-1.8,1.2-3.2,1.2c-0.8,0-1.6-0.2-2.2-0.6
			c-0.6-0.4-1.1-0.9-1.5-1.6c-0.3-0.7-0.5-1.5-0.5-2.4c0-1.4,0.4-2.6,1.1-3.4s1.8-1.2,3.2-1.2c0.8,0,1.6,0.2,2.2,0.6
			c0.6,0.4,1.1,0.9,1.5,1.6C433.2,304.4,433.4,305.2,433.4,306.1z M427.3,306.1c0,0.9,0.1,1.5,0.4,2c0.3,0.4,0.8,0.7,1.4,0.7
			c0.6,0,1.1-0.2,1.4-0.7s0.4-1.1,0.4-2c0-0.9-0.1-1.5-0.4-2c-0.3-0.4-0.7-0.7-1.4-0.7c-0.6,0-1.1,0.2-1.4,0.7
			C427.4,304.6,427.3,305.2,427.3,306.1z"/>
		<path class="st37" d="M437.3,310.5l-3.4-8.8h2.5l1.7,5c0.2,0.5,0.3,1.1,0.3,1.8h0.1c0-0.6,0.1-1.2,0.4-1.8l1.7-5h2.5l-3.4,8.8
			H437.3z"/>
		<path class="st37" d="M448.4,310.7c-1.4,0-2.5-0.4-3.3-1.2c-0.8-0.8-1.2-1.9-1.2-3.3c0-1.5,0.4-2.6,1.1-3.4s1.8-1.2,3.1-1.2
			c1.2,0,2.2,0.4,2.9,1.1c0.7,0.7,1,1.7,1,2.9v1.2h-5.7c0,0.7,0.2,1.2,0.6,1.6s0.9,0.6,1.6,0.6c0.5,0,1-0.1,1.5-0.2s1-0.3,1.5-0.5
			v1.9c-0.4,0.2-0.9,0.4-1.3,0.5S449.1,310.7,448.4,310.7z M448.1,303.3c-0.5,0-0.9,0.2-1.2,0.5s-0.5,0.8-0.5,1.4h3.4
			c0-0.6-0.2-1.1-0.5-1.4C449,303.4,448.6,303.3,448.1,303.3z"/>
		<path class="st37" d="M406.9,331.8v-1.7c-2.2-0.3-3.3-1.9-3.5-3.3l2-0.5c0.1,1,0.8,2,2.3,2c1,0,1.7-0.5,1.7-1.2
			c0-0.5-0.4-1-1.2-1.1l-1.5-0.3c-1.7-0.4-2.8-1.5-2.8-3c0-1.7,1.3-3,3.1-3.2v-1.7h1.6v1.8c1.9,0.3,2.7,1.6,2.9,2.7l-2,0.6
			c-0.1-0.6-0.5-1.5-1.8-1.5c-1,0-1.6,0.6-1.6,1.3c0,0.5,0.4,0.9,1.1,1.1l1.5,0.3c2,0.5,3,1.7,3,3.1c0,1.5-1.1,2.9-3,3.2v1.7H406.9z
			"/>
		<path class="st37" d="M419,329.9h-2.4v-6.7l0-1.1l0-1.2c-0.4,0.4-0.7,0.7-0.8,0.8l-1.3,1.1l-1.2-1.5l3.7-3h2V329.9z"/>
		<path class="st37" d="M430.2,324.2c0,2-0.3,3.5-1,4.5c-0.7,1-1.7,1.5-3,1.5c-1.3,0-2.3-0.5-3-1.5c-0.7-1-1-2.5-1-4.4
			c0-2,0.3-3.5,1-4.5c0.7-1,1.7-1.4,3-1.4c1.3,0,2.3,0.5,3,1.5C429.9,320.7,430.2,322.2,430.2,324.2z M424.6,324.2
			c0,1.4,0.1,2.4,0.4,3c0.2,0.6,0.7,0.9,1.2,0.9c0.6,0,1-0.3,1.2-0.9s0.4-1.6,0.4-3c0-1.4-0.1-2.4-0.4-3c-0.3-0.6-0.7-0.9-1.2-0.9
			c-0.6,0-1,0.3-1.2,0.9C424.7,321.7,424.6,322.7,424.6,324.2z"/>
		<path class="st37" d="M439.5,324.2c0,2-0.3,3.5-1,4.5c-0.7,1-1.7,1.5-3,1.5c-1.3,0-2.3-0.5-3-1.5c-0.7-1-1-2.5-1-4.4
			c0-2,0.3-3.5,1-4.5c0.7-1,1.7-1.4,3-1.4c1.3,0,2.3,0.5,3,1.5C439.1,320.7,439.5,322.2,439.5,324.2z M433.8,324.2
			c0,1.4,0.1,2.4,0.4,3c0.2,0.6,0.7,0.9,1.2,0.9c0.6,0,1-0.3,1.2-0.9c0.3-0.6,0.4-1.6,0.4-3c0-1.4-0.1-2.4-0.4-3
			c-0.3-0.6-0.7-0.9-1.2-0.9c-0.6,0-1,0.3-1.2,0.9C434,321.7,433.8,322.7,433.8,324.2z"/>
		<path class="st37" d="M448.7,324.2c0,2-0.3,3.5-1,4.5s-1.7,1.5-3,1.5c-1.3,0-2.3-0.5-3-1.5s-1-2.5-1-4.4c0-2,0.3-3.5,1-4.5
			c0.7-1,1.7-1.4,3-1.4c1.3,0,2.3,0.5,3,1.5C448.4,320.7,448.7,322.2,448.7,324.2z M443.1,324.2c0,1.4,0.1,2.4,0.4,3
			c0.2,0.6,0.7,0.9,1.2,0.9c0.6,0,1-0.3,1.2-0.9s0.4-1.6,0.4-3c0-1.4-0.1-2.4-0.4-3c-0.3-0.6-0.7-0.9-1.2-0.9c-0.6,0-1,0.3-1.2,0.9
			C443.2,321.7,443.1,322.7,443.1,324.2z"/>
	</g>
</g>
</svg>
