<!-- Generator: Adobe Illustrator 19.1.0, SVG Export Plug-In  -->
<svg version="1.1"
	 xmlns="http://www.w3.org/2000/svg" xmlns:xlink="http://www.w3.org/1999/xlink" xmlns:a="http://ns.adobe.com/AdobeSVGViewerExtensions/3.0/"
	 x="0px" y="0px" width="334.7px" height="536.2px" viewBox="0 0 334.7 536.2"
	 style="overflow:scroll;enable-background:new 0 0 334.7 536.2;" xml:space="preserve">
<style type="text/css">
	.st0{fill:none;stroke:#ED6A4A;stroke-width:5.8709;stroke-miterlimit:10;}
	.st1{fill:#33CCCC;stroke:#33CCCC;stroke-width:1.994;stroke-miterlimit:10;}
	.st2{fill:#FF6633;}
	.st3{fill:#9D9FA0;}
	.st4{fill:#E3E3E3;}
	.st5{fill:#FFFFFF;}
	.st6{fill:#086A87;}
</style>
<defs>
</defs>
<g>
	<path class="st0" d="M177,2.9c-35.3,0-64,28.6-64,64v91.3h128V66.9C240.9,31.6,212.3,2.9,177,2.9z"/>
	<rect x="1" y="123" class="st1" width="332.7" height="144.1"/>
	<rect x="0" y="267.6" class="st2" width="334.6" height="102.9"/>
	<rect x="0" y="370" class="st3" width="334.6" height="75.9"/>
	<rect x="0" y="445.9" class="st4" width="334.6" height="56.5"/>
	<rect x="0" y="497.1" class="st3" width="334.6" height="39.1"/>
	<g>
		<path class="st5" d="M51,204.1c0,2.7-0.8,4.8-2.3,6.2s-3.8,2.2-6.7,2.2h-4.6V196h5.2c2.7,0,4.8,0.7,6.2,2.1S51,201.5,51,204.1z
			 M47.4,204.2c0-3.5-1.6-5.3-4.7-5.3h-1.9v10.7h1.5C45.7,209.6,47.4,207.8,47.4,204.2z"/>
		<path class="st5" d="M54,196.7c0-1.1,0.6-1.7,1.9-1.7c1.2,0,1.9,0.6,1.9,1.7c0,0.5-0.2,0.9-0.5,1.2c-0.3,0.3-0.8,0.4-1.4,0.4
			C54.6,198.3,54,197.8,54,196.7z M57.5,212.5h-3.4v-12.6h3.4V212.5z"/>
		<path class="st5" d="M68.1,199.7c0.5,0,0.8,0,1.2,0.1L69,203c-0.3-0.1-0.6-0.1-1-0.1c-1.1,0-1.9,0.3-2.6,0.8
			c-0.6,0.6-0.9,1.3-0.9,2.4v6.4h-3.4v-12.6h2.6l0.5,2.1h0.2c0.4-0.7,0.9-1.3,1.6-1.7C66.6,199.9,67.4,199.7,68.1,199.7z"/>
		<path class="st5" d="M77,212.7c-2,0-3.6-0.6-4.7-1.7c-1.1-1.1-1.7-2.7-1.7-4.7c0-2.1,0.5-3.7,1.6-4.9c1.1-1.1,2.5-1.7,4.4-1.7
			c1.8,0,3.2,0.5,4.1,1.5s1.5,2.4,1.5,4.2v1.7h-8.1c0,1,0.3,1.7,0.9,2.3c0.5,0.5,1.3,0.8,2.3,0.8c0.8,0,1.5-0.1,2.1-0.2
			s1.4-0.4,2.1-0.8v2.7c-0.6,0.3-1.2,0.5-1.9,0.7C78.8,212.6,78,212.7,77,212.7z M76.6,202.1c-0.7,0-1.3,0.2-1.7,0.7
			c-0.4,0.5-0.6,1.1-0.7,2h4.8c0-0.8-0.2-1.5-0.7-2C77.9,202.3,77.3,202.1,76.6,202.1z"/>
		<path class="st5" d="M90,212.7c-3.9,0-5.9-2.1-5.9-6.4c0-2.1,0.5-3.8,1.6-4.9c1.1-1.1,2.6-1.7,4.6-1.7c1.5,0,2.8,0.3,3.9,0.9
			l-1,2.7c-0.5-0.2-1-0.4-1.5-0.5c-0.5-0.1-0.9-0.2-1.4-0.2c-1.8,0-2.7,1.3-2.7,3.8c0,2.5,0.9,3.7,2.7,3.7c0.7,0,1.3-0.1,1.8-0.3
			s1.1-0.5,1.7-0.8v2.9c-0.6,0.4-1.1,0.6-1.7,0.7C91.6,212.6,90.9,212.7,90,212.7z"/>
		<path class="st5" d="M102.1,209.9c0.6,0,1.3-0.1,2.2-0.4v2.5c-0.9,0.4-1.9,0.6-3.1,0.6c-1.4,0-2.4-0.3-3-1
			c-0.6-0.7-0.9-1.7-0.9-3.1v-6.1h-1.6V201l1.9-1.1l1-2.7h2.2v2.7h3.5v2.6h-3.5v6.1c0,0.5,0.1,0.8,0.4,1.1
			C101.2,209.8,101.6,209.9,102.1,209.9z"/>
		<path class="st5" d="M124,212.5h-3.4v-7.3c0-0.9-0.2-1.6-0.5-2s-0.8-0.7-1.4-0.7c-0.9,0-1.5,0.3-1.9,1c-0.4,0.6-0.6,1.7-0.6,3.2
			v5.9h-3.4v-12.6h2.6l0.5,1.6h0.2c0.3-0.6,0.8-1,1.5-1.4c0.6-0.3,1.4-0.5,2.2-0.5c1.9,0,3.2,0.6,3.8,1.8h0.3c0.3-0.6,0.8-1,1.5-1.4
			c0.7-0.3,1.4-0.5,2.2-0.5c1.4,0,2.5,0.4,3.2,1.1c0.7,0.7,1.1,1.9,1.1,3.5v8.2h-3.4v-7.3c0-0.9-0.2-1.6-0.5-2s-0.8-0.7-1.4-0.7
			c-0.8,0-1.5,0.3-1.9,0.9c-0.4,0.6-0.6,1.5-0.6,2.9V212.5z"/>
		<path class="st5" d="M141,212.7c-2,0-3.6-0.6-4.7-1.7c-1.1-1.1-1.7-2.7-1.7-4.7c0-2.1,0.5-3.7,1.6-4.9c1.1-1.1,2.5-1.7,4.4-1.7
			c1.8,0,3.2,0.5,4.1,1.5s1.5,2.4,1.5,4.2v1.7H138c0,1,0.3,1.7,0.9,2.3c0.5,0.5,1.3,0.8,2.3,0.8c0.8,0,1.5-0.1,2.1-0.2
			s1.4-0.4,2.1-0.8v2.7c-0.6,0.3-1.2,0.5-1.9,0.7C142.8,212.6,142,212.7,141,212.7z M140.5,202.1c-0.7,0-1.3,0.2-1.7,0.7
			c-0.4,0.5-0.6,1.1-0.7,2h4.8c0-0.8-0.2-1.5-0.7-2C141.8,202.3,141.2,202.1,140.5,202.1z"/>
		<path class="st5" d="M155.9,199.7c0.5,0,0.8,0,1.2,0.1l-0.3,3.2c-0.3-0.1-0.6-0.1-1-0.1c-1.1,0-1.9,0.3-2.6,0.8
			c-0.6,0.6-0.9,1.3-0.9,2.4v6.4h-3.4v-12.6h2.6l0.5,2.1h0.2c0.4-0.7,0.9-1.3,1.6-1.7C154.4,199.9,155.1,199.7,155.9,199.7z"/>
		<path class="st5" d="M164.2,212.7c-3.9,0-5.9-2.1-5.9-6.4c0-2.1,0.5-3.8,1.6-4.9c1.1-1.1,2.6-1.7,4.6-1.7c1.5,0,2.8,0.3,3.9,0.9
			l-1,2.7c-0.5-0.2-1-0.4-1.5-0.5c-0.5-0.1-0.9-0.2-1.4-0.2c-1.8,0-2.7,1.3-2.7,3.8c0,2.5,0.9,3.7,2.7,3.7c0.7,0,1.3-0.1,1.8-0.3
			s1.1-0.5,1.7-0.8v2.9c-0.6,0.4-1.1,0.6-1.7,0.7C165.8,212.6,165.1,212.7,164.2,212.7z"/>
		<path class="st5" d="M182.5,212.5h-3.4v-7.3c0-1.8-0.7-2.7-2-2.7c-1,0-1.7,0.3-2.1,1s-0.6,1.7-0.6,3.2v5.9h-3.4V195h3.4v3.6
			c0,0.3,0,0.9-0.1,2l-0.1,1h0.2c0.8-1.2,2-1.8,3.6-1.8c1.5,0,2.6,0.4,3.4,1.2c0.8,0.8,1.1,1.9,1.1,3.4V212.5z"/>
		<path class="st5" d="M194,212.5l-0.7-1.7h-0.1c-0.6,0.7-1.2,1.2-1.8,1.5c-0.6,0.3-1.4,0.4-2.4,0.4c-1.2,0-2.2-0.3-2.8-1
			c-0.7-0.7-1-1.7-1-2.9c0-1.3,0.5-2.3,1.4-2.9s2.3-1,4.2-1l2.2-0.1v-0.6c0-1.3-0.7-1.9-2-1.9c-1,0-2.2,0.3-3.5,0.9l-1.1-2.3
			c1.4-0.8,3-1.1,4.8-1.1c1.7,0,3,0.4,3.9,1.1c0.9,0.7,1.3,1.8,1.3,3.3v8.4H194z M193,206.6l-1.3,0c-1,0-1.7,0.2-2.2,0.5
			c-0.5,0.3-0.7,0.8-0.7,1.5c0,1,0.6,1.4,1.7,1.4c0.8,0,1.4-0.2,1.9-0.7c0.5-0.5,0.7-1.1,0.7-1.8V206.6z"/>
		<path class="st5" d="M211.5,212.5h-3.4v-7.3c0-0.9-0.2-1.6-0.5-2c-0.3-0.5-0.8-0.7-1.5-0.7c-1,0-1.7,0.3-2.1,1
			c-0.4,0.6-0.6,1.7-0.6,3.2v5.9H200v-12.6h2.6l0.5,1.6h0.2c0.4-0.6,0.9-1.1,1.6-1.4c0.7-0.3,1.4-0.5,2.3-0.5c1.5,0,2.6,0.4,3.3,1.2
			c0.8,0.8,1.1,1.9,1.1,3.4V212.5z"/>
		<path class="st5" d="M220.4,209.9c0.6,0,1.3-0.1,2.2-0.4v2.5c-0.9,0.4-1.9,0.6-3.1,0.6c-1.4,0-2.4-0.3-3-1
			c-0.6-0.7-0.9-1.7-0.9-3.1v-6.1h-1.6V201l1.9-1.1l1-2.7h2.2v2.7h3.5v2.6h-3.5v6.1c0,0.5,0.1,0.8,0.4,1.1
			C219.5,209.8,219.9,209.9,220.4,209.9z"/>
		<path class="st5" d="M241,199.7c0,1-0.3,1.9-0.9,2.6c-0.6,0.7-1.5,1.2-2.6,1.5v0.1c1.3,0.2,2.3,0.6,3,1.2c0.7,0.6,1,1.5,1,2.6
			c0,1.6-0.6,2.8-1.7,3.7c-1.1,0.9-2.8,1.3-4.9,1.3c-1.8,0-3.4-0.3-4.7-0.9v-3c0.6,0.3,1.3,0.6,2.1,0.8s1.5,0.3,2.3,0.3
			c1.1,0,2-0.2,2.5-0.6c0.5-0.4,0.8-1,0.8-1.9c0-0.8-0.3-1.3-0.9-1.6c-0.6-0.3-1.6-0.5-3-0.5h-1.2v-2.7h1.3c1.3,0,2.2-0.2,2.8-0.5
			c0.6-0.3,0.9-0.9,0.9-1.7c0-1.2-0.8-1.9-2.3-1.9c-0.5,0-1.1,0.1-1.6,0.3c-0.6,0.2-1.2,0.5-1.9,0.9l-1.6-2.4
			c1.5-1.1,3.3-1.6,5.4-1.6c1.7,0,3,0.3,4,1C240.5,197.5,241,198.5,241,199.7z"/>
		<path class="st5" d="M254.7,203c0,3.2-0.7,5.6-2,7.2c-1.4,1.6-3.4,2.4-6.2,2.4c-1,0-1.7-0.1-2.2-0.2v-2.8c0.6,0.2,1.3,0.2,2,0.2
			c1.2,0,2.1-0.2,2.9-0.5c0.7-0.3,1.3-0.9,1.7-1.6c0.4-0.7,0.6-1.7,0.7-3h-0.1c-0.4,0.7-0.9,1.2-1.5,1.5c-0.6,0.3-1.3,0.4-2.1,0.4
			c-1.4,0-2.6-0.5-3.4-1.4c-0.8-0.9-1.2-2.2-1.2-3.8c0-1.8,0.5-3.1,1.5-4.2c1-1,2.4-1.5,4.1-1.5c1.2,0,2.3,0.3,3.2,0.9
			c0.9,0.6,1.6,1.4,2.1,2.5C254.5,200.3,254.7,201.5,254.7,203z M248.8,198.6c-0.7,0-1.3,0.2-1.7,0.7s-0.6,1.2-0.6,2.1
			c0,0.8,0.2,1.4,0.6,1.9c0.4,0.5,0.9,0.7,1.7,0.7c0.7,0,1.3-0.2,1.8-0.7c0.5-0.5,0.8-1,0.8-1.6c0-0.9-0.2-1.6-0.7-2.3
			C250.1,198.9,249.5,198.6,248.8,198.6z"/>
		<path class="st5" d="M264,200.9c0,1.7-0.3,3-1,3.9c-0.7,0.9-1.6,1.3-2.9,1.3c-1.2,0-2.2-0.4-2.9-1.3c-0.7-0.9-1-2.2-1-3.8
			c0-3.4,1.3-5.1,3.9-5.1c1.3,0,2.2,0.4,2.9,1.3C263.7,198,264,199.3,264,200.9z M259.1,201c0,1,0.1,1.7,0.3,2.1s0.4,0.7,0.8,0.7
			c0.7,0,1.1-0.9,1.1-2.8c0-1.9-0.4-2.8-1.1-2.8c-0.4,0-0.6,0.2-0.8,0.7C259.2,199.3,259.1,200,259.1,201z M271.8,196l-9.1,16.4H260
			l9.1-16.4H271.8z M275.5,207.5c0,1.7-0.3,3-1,3.9c-0.7,0.9-1.6,1.3-2.9,1.3c-1.2,0-2.2-0.4-2.9-1.3c-0.7-0.9-1-2.2-1-3.8
			c0-3.4,1.3-5.1,3.9-5.1c1.3,0,2.2,0.4,2.9,1.3C275.2,204.6,275.5,205.8,275.5,207.5z M270.6,207.5c0,1,0.1,1.7,0.3,2.1
			s0.4,0.7,0.8,0.7c0.7,0,1.1-0.9,1.1-2.8c0-1.9-0.4-2.8-1.1-2.8c-0.4,0-0.6,0.2-0.8,0.7C270.7,205.9,270.6,206.6,270.6,207.5z"/>
	</g>
	<g>
		<path class="st6" d="M118.8,481.9l-1.2-3.9h-6l-1.2,3.9h-3.8l5.8-16.5h4.3l5.8,16.5H118.8z M116.8,475.1c-1.1-3.5-1.7-5.5-1.9-6
			c-0.1-0.5-0.2-0.8-0.3-1.1c-0.2,1-1,3.3-2.1,7.1H116.8z"/>
		<path class="st6" d="M131.3,482.1c-1.5,0-2.6-0.5-3.5-1.6h-0.2c0.1,1,0.2,1.7,0.2,1.8v5.1h-3.4v-18.1h2.8l0.5,1.6h0.2
			c0.8-1.2,2-1.9,3.6-1.9c1.5,0,2.6,0.6,3.5,1.7c0.8,1.1,1.3,2.7,1.3,4.8c0,1.3-0.2,2.5-0.6,3.5s-1,1.7-1.7,2.3
			C133.1,481.9,132.2,482.1,131.3,482.1z M130.2,471.8c-0.8,0-1.5,0.3-1.9,0.8c-0.4,0.5-0.6,1.4-0.6,2.6v0.4c0,1.3,0.2,2.3,0.6,2.9
			c0.4,0.6,1,0.9,1.9,0.9c1.5,0,2.3-1.3,2.3-3.8c0-1.2-0.2-2.2-0.6-2.8C131.6,472.1,131.1,471.8,130.2,471.8z"/>
		<path class="st6" d="M145.8,482.1c-1.5,0-2.6-0.5-3.5-1.6h-0.2c0.1,1,0.2,1.7,0.2,1.8v5.1h-3.4v-18.1h2.8l0.5,1.6h0.2
			c0.8-1.2,2-1.9,3.6-1.9c1.5,0,2.6,0.6,3.5,1.7c0.8,1.1,1.3,2.7,1.3,4.8c0,1.3-0.2,2.5-0.6,3.5s-1,1.7-1.7,2.3
			C147.6,481.9,146.8,482.1,145.8,482.1z M144.8,471.8c-0.8,0-1.5,0.3-1.9,0.8c-0.4,0.5-0.6,1.4-0.6,2.6v0.4c0,1.3,0.2,2.3,0.6,2.9
			c0.4,0.6,1,0.9,1.9,0.9c1.5,0,2.3-1.3,2.3-3.8c0-1.2-0.2-2.2-0.6-2.8C146.2,472.1,145.6,471.8,144.8,471.8z"/>
		<path class="st6" d="M167.1,481.9h-3.5v-9.5l0-1.6l0.1-1.7c-0.6,0.6-1,1-1.2,1.1l-1.9,1.5l-1.7-2.1l5.3-4.2h2.9V481.9z"/>
		<path class="st6" d="M177.7,471.4c1.6,0,2.9,0.4,3.8,1.3c0.9,0.9,1.4,2.1,1.4,3.7c0,1.8-0.6,3.2-1.7,4.2c-1.1,1-2.7,1.5-4.9,1.5
			c-1.8,0-3.3-0.3-4.4-0.9v-3c0.6,0.3,1.3,0.6,2.1,0.8s1.5,0.3,2.2,0.3c2.1,0,3.2-0.9,3.2-2.6c0-1.7-1.1-2.5-3.3-2.5
			c-0.4,0-0.8,0-1.3,0.1c-0.5,0.1-0.9,0.2-1.2,0.3l-1.4-0.7l0.6-8.4h8.9v2.9h-5.9l-0.3,3.2l0.4-0.1
			C176.5,471.4,177,471.4,177.7,471.4z"/>
		<path class="st6" d="M192.5,470.4c0,1.7-0.3,3-1,3.9c-0.7,0.9-1.6,1.3-2.9,1.3c-1.2,0-2.2-0.4-2.9-1.3c-0.7-0.9-1-2.2-1-3.8
			c0-3.4,1.3-5.1,3.9-5.1c1.3,0,2.2,0.4,2.9,1.3C192.1,467.4,192.5,468.7,192.5,470.4z M187.5,470.4c0,1,0.1,1.7,0.3,2.1
			s0.4,0.7,0.8,0.7c0.7,0,1.1-0.9,1.1-2.8c0-1.9-0.4-2.8-1.1-2.8c-0.4,0-0.6,0.2-0.8,0.7C187.6,468.7,187.5,469.4,187.5,470.4z
			 M200.2,465.5l-9.1,16.4h-2.7l9.1-16.4H200.2z M204,476.9c0,1.7-0.3,3-1,3.9c-0.7,0.9-1.6,1.3-2.9,1.3c-1.2,0-2.2-0.4-2.9-1.3
			c-0.7-0.9-1-2.2-1-3.8c0-3.4,1.3-5.1,3.9-5.1c1.3,0,2.2,0.4,2.9,1.3C203.6,474,204,475.3,204,476.9z M199,476.9
			c0,1,0.1,1.7,0.3,2.1s0.4,0.7,0.8,0.7c0.7,0,1.1-0.9,1.1-2.8c0-1.9-0.4-2.8-1.1-2.8c-0.4,0-0.6,0.2-0.8,0.7
			C199.1,475.3,199,476,199,476.9z"/>
	</g>
	<g>
		<g>
			<path class="st5" d="M69.7,423.7h-3.4v-16.4h9.4v2.9h-6v4.2h5.6v2.8h-5.6V423.7z"/>
			<path class="st5" d="M86.6,423.7L86,422h-0.1c-0.6,0.7-1.2,1.2-1.8,1.5c-0.6,0.3-1.4,0.4-2.4,0.4c-1.2,0-2.2-0.3-2.8-1
				s-1-1.7-1-2.9c0-1.3,0.5-2.3,1.4-2.9s2.3-1,4.2-1l2.2-0.1v-0.6c0-1.3-0.7-1.9-2-1.9c-1,0-2.2,0.3-3.5,0.9L79,412
				c1.4-0.8,3-1.1,4.8-1.1c1.7,0,3,0.4,3.9,1.1c0.9,0.7,1.3,1.8,1.3,3.3v8.4H86.6z M85.6,417.9l-1.3,0c-1,0-1.7,0.2-2.2,0.5
				c-0.5,0.3-0.7,0.8-0.7,1.5c0,1,0.6,1.4,1.7,1.4c0.8,0,1.4-0.2,1.9-0.7s0.7-1.1,0.7-1.8V417.9z"/>
			<path class="st5" d="M97.6,423.9c-3.9,0-5.9-2.1-5.9-6.4c0-2.1,0.5-3.8,1.6-4.9c1.1-1.1,2.6-1.7,4.6-1.7c1.5,0,2.8,0.3,3.9,0.9
				l-1,2.7c-0.5-0.2-1-0.4-1.5-0.5c-0.5-0.1-0.9-0.2-1.4-0.2c-1.8,0-2.7,1.3-2.7,3.8c0,2.5,0.9,3.7,2.7,3.7c0.7,0,1.3-0.1,1.8-0.3
				s1.1-0.5,1.7-0.8v2.9c-0.6,0.4-1.1,0.6-1.7,0.7S98.5,423.9,97.6,423.9z"/>
			<path class="st5" d="M110,423.9c-2,0-3.6-0.6-4.7-1.7c-1.1-1.1-1.7-2.7-1.7-4.7c0-2.1,0.5-3.7,1.6-4.9s2.5-1.7,4.4-1.7
				c1.8,0,3.2,0.5,4.1,1.5s1.5,2.4,1.5,4.2v1.7h-8.1c0,1,0.3,1.7,0.9,2.3s1.3,0.8,2.3,0.8c0.8,0,1.5-0.1,2.1-0.2s1.4-0.4,2.1-0.8
				v2.7c-0.6,0.3-1.2,0.5-1.9,0.7C111.9,423.9,111,423.9,110,423.9z M109.6,413.4c-0.7,0-1.3,0.2-1.7,0.7c-0.4,0.5-0.6,1.1-0.7,2
				h4.8c0-0.8-0.2-1.5-0.7-2C110.9,413.6,110.3,413.4,109.6,413.4z"/>
			<path class="st5" d="M124.9,410.9c1.5,0,2.6,0.6,3.5,1.7c0.8,1.2,1.3,2.7,1.3,4.8c0,2.1-0.4,3.7-1.3,4.8s-2,1.7-3.5,1.7
				c-1.5,0-2.6-0.5-3.5-1.6h-0.2l-0.6,1.4H118v-17.5h3.4v4.1c0,0.5,0,1.3-0.1,2.5h0.1C122.2,411.5,123.4,410.9,124.9,410.9z
				 M123.8,413.7c-0.8,0-1.5,0.3-1.9,0.8c-0.4,0.5-0.6,1.4-0.6,2.6v0.4c0,1.3,0.2,2.3,0.6,2.9s1,0.9,1.9,0.9c0.7,0,1.3-0.3,1.7-1
				s0.6-1.6,0.6-2.8c0-1.2-0.2-2.2-0.6-2.8C125.1,414,124.6,413.7,123.8,413.7z"/>
			<path class="st5" d="M143.9,417.4c0,2-0.5,3.6-1.6,4.8s-2.6,1.7-4.5,1.7c-1.2,0-2.3-0.3-3.2-0.8c-0.9-0.5-1.6-1.3-2.1-2.3
				s-0.7-2.1-0.7-3.5c0-2.1,0.5-3.6,1.6-4.8c1.1-1.1,2.6-1.7,4.5-1.7c1.2,0,2.3,0.3,3.2,0.8c0.9,0.5,1.6,1.3,2.1,2.3
				S143.9,416.1,143.9,417.4z M135.2,417.4c0,1.2,0.2,2.2,0.6,2.8s1.1,1,2,1c0.9,0,1.6-0.3,2-0.9s0.6-1.6,0.6-2.8
				c0-1.2-0.2-2.2-0.6-2.8s-1.1-0.9-2-0.9c-0.9,0-1.6,0.3-2,0.9C135.4,415.2,135.2,416.2,135.2,417.4z"/>
			<path class="st5" d="M158.2,417.4c0,2-0.5,3.6-1.6,4.8s-2.6,1.7-4.5,1.7c-1.2,0-2.3-0.3-3.2-0.8c-0.9-0.5-1.6-1.3-2.1-2.3
				s-0.7-2.1-0.7-3.5c0-2.1,0.5-3.6,1.6-4.8c1.1-1.1,2.6-1.7,4.5-1.7c1.2,0,2.3,0.3,3.2,0.8c0.9,0.5,1.6,1.3,2.1,2.3
				S158.2,416.1,158.2,417.4z M149.5,417.4c0,1.2,0.2,2.2,0.6,2.8s1.1,1,2,1c0.9,0,1.6-0.3,2-0.9s0.6-1.6,0.6-2.8
				c0-1.2-0.2-2.2-0.6-2.8s-1.1-0.9-2-0.9c-0.9,0-1.6,0.3-2,0.9C149.7,415.2,149.5,416.2,149.5,417.4z"/>
			<path class="st5" d="M164.3,416.9l1.5-1.9l3.5-3.8h3.9l-5,5.4l5.3,7.1h-4l-3.6-5.1l-1.5,1.2v3.9H161v-17.5h3.4v7.8L164.3,416.9
				L164.3,416.9z"/>
			<path class="st5" d="M188.9,423.7h-3.5v-9.5l0-1.6l0.1-1.7c-0.6,0.6-1,1-1.2,1.1l-1.9,1.5l-1.7-2.1l5.3-4.2h2.9V423.7z"/>
			<path class="st5" d="M195.1,423.7l6.2-13.5h-8.1v-2.9H205v2.2l-6.2,14.2H195.1z"/>
			<path class="st5" d="M214.2,412.2c0,1.7-0.3,3-1,3.9c-0.7,0.9-1.6,1.3-2.9,1.3c-1.2,0-2.2-0.4-2.9-1.3c-0.7-0.9-1-2.2-1-3.8
				c0-3.4,1.3-5.1,3.9-5.1c1.3,0,2.2,0.4,2.9,1.3C213.9,409.3,214.2,410.5,214.2,412.2z M209.3,412.2c0,1,0.1,1.7,0.3,2.1
				s0.4,0.7,0.8,0.7c0.7,0,1.1-0.9,1.1-2.8c0-1.9-0.4-2.8-1.1-2.8c-0.4,0-0.6,0.2-0.8,0.7C209.3,410.5,209.3,411.3,209.3,412.2z
				 M222,407.3l-9.1,16.4h-2.7l9.1-16.4H222z M225.7,418.7c0,1.7-0.3,3-1,3.9c-0.7,0.9-1.6,1.3-2.9,1.3c-1.2,0-2.2-0.4-2.9-1.3
				c-0.7-0.9-1-2.2-1-3.8c0-3.4,1.3-5.1,3.9-5.1c1.3,0,2.2,0.4,2.9,1.3C225.4,415.8,225.7,417.1,225.7,418.7z M220.8,418.8
				c0,1,0.1,1.7,0.3,2.1s0.4,0.7,0.8,0.7c0.7,0,1.1-0.9,1.1-2.8c0-1.9-0.4-2.8-1.1-2.8c-0.4,0-0.6,0.2-0.8,0.7
				C220.8,417.1,220.8,417.8,220.8,418.8z"/>
		</g>
	</g>
	<g>
		<g>
			<path class="st5" d="M81.5,508.3h5.1c2.3,0,4,0.3,5.1,1c1.1,0.7,1.6,1.7,1.6,3.2c0,1-0.2,1.8-0.7,2.4s-1.1,1-1.8,1.1v0.1
				c1,0.2,1.8,0.7,2.3,1.3s0.7,1.5,0.7,2.5c0,1.5-0.5,2.7-1.6,3.5c-1.1,0.8-2.6,1.3-4.4,1.3h-6.1V508.3z M85,514.8h2
				c0.9,0,1.6-0.1,2-0.4c0.4-0.3,0.6-0.8,0.6-1.4c0-0.6-0.2-1.1-0.7-1.4s-1.2-0.4-2.2-0.4H85V514.8z M85,517.5v4.3h2.3
				c1,0,1.7-0.2,2.1-0.6c0.5-0.4,0.7-0.9,0.7-1.7c0-1.4-1-2-2.9-2H85z"/>
			<path class="st5" d="M100.1,524.7h-3.4v-17.5h3.4V524.7z"/>
			<path class="st5" d="M115.1,518.4c0,2-0.5,3.6-1.6,4.8c-1.1,1.2-2.6,1.7-4.5,1.7c-1.2,0-2.3-0.3-3.2-0.8s-1.6-1.3-2.1-2.3
				s-0.7-2.1-0.7-3.5c0-2.1,0.5-3.6,1.6-4.8c1.1-1.1,2.6-1.7,4.5-1.7c1.2,0,2.3,0.3,3.2,0.8c0.9,0.5,1.6,1.3,2.1,2.3
				S115.1,517.1,115.1,518.4z M106.5,518.4c0,1.2,0.2,2.2,0.6,2.8c0.4,0.6,1.1,1,2,1c0.9,0,1.6-0.3,2-0.9c0.4-0.6,0.6-1.6,0.6-2.8
				c0-1.2-0.2-2.2-0.6-2.8s-1.1-0.9-2-0.9c-0.9,0-1.6,0.3-2,0.9S106.5,517.1,106.5,518.4z"/>
			<path class="st5" d="M128.9,524.7c0,1.8-0.5,3.2-1.6,4.1c-1.1,0.9-2.6,1.4-4.7,1.4c-1.8,0-3.4-0.2-4.7-0.7v-2.7
				c1.5,0.6,3.2,1,4.9,1c1.8,0,2.6-1,2.6-2.9v-0.2l0.1-1.5h-0.1c-0.8,1.2-2,1.9-3.6,1.9c-1.5,0-2.7-0.6-3.5-1.7
				c-0.8-1.2-1.2-2.7-1.2-4.7c0-2.1,0.4-3.7,1.3-4.8c0.9-1.2,2-1.7,3.5-1.7c1.5,0,2.8,0.6,3.6,1.8h0.1l0.3-1.6h2.9V524.7z
				 M123.2,522.2c0.9,0,1.6-0.3,2-0.8c0.4-0.5,0.6-1.4,0.6-2.6v-0.4c0-1.3-0.2-2.3-0.6-2.9s-1.1-0.9-2-0.9c-1.6,0-2.4,1.3-2.4,3.8
				c0,1.3,0.2,2.2,0.6,2.8C121.7,521.9,122.3,522.2,123.2,522.2z"/>
			<path class="st5" d="M147.3,520.9c0,1.3-0.4,2.3-1.3,2.9c-0.9,0.7-2.2,1-4,1c-0.9,0-1.7-0.1-2.3-0.2c-0.6-0.1-1.2-0.3-1.8-0.5
				v-2.8c0.6,0.3,1.4,0.6,2.2,0.8c0.8,0.2,1.5,0.3,2.1,0.3c1.2,0,1.9-0.4,1.9-1.1c0-0.3-0.1-0.5-0.2-0.7c-0.2-0.2-0.4-0.4-0.9-0.6
				c-0.4-0.2-0.9-0.5-1.6-0.7c-1-0.4-1.7-0.8-2.1-1.1c-0.5-0.3-0.8-0.7-1-1.2c-0.2-0.4-0.3-1-0.3-1.6c0-1.1,0.4-2,1.3-2.6
				c0.9-0.6,2.1-0.9,3.7-0.9c1.5,0,3,0.3,4.4,1l-1,2.5c-0.6-0.3-1.2-0.5-1.8-0.7c-0.5-0.2-1.1-0.3-1.7-0.3c-1,0-1.5,0.3-1.5,0.8
				c0,0.3,0.2,0.6,0.5,0.8s1,0.6,2.1,1c1,0.4,1.7,0.8,2.2,1.1c0.5,0.3,0.8,0.7,1,1.2C147.2,519.8,147.3,520.3,147.3,520.9z"/>
			<path class="st5" d="M161.5,524.7h-3.4v-7.3c0-1.8-0.7-2.7-2-2.7c-1,0-1.7,0.3-2.1,1c-0.4,0.7-0.6,1.7-0.6,3.2v5.9h-3.4v-17.5
				h3.4v3.6c0,0.3,0,0.9-0.1,2l-0.1,1h0.2c0.8-1.2,2-1.8,3.6-1.8c1.5,0,2.6,0.4,3.4,1.2c0.8,0.8,1.1,1.9,1.1,3.4V524.7z"/>
			<path class="st5" d="M176.5,518.4c0,2-0.5,3.6-1.6,4.8c-1.1,1.2-2.6,1.7-4.5,1.7c-1.2,0-2.3-0.3-3.2-0.8s-1.6-1.3-2.1-2.3
				s-0.7-2.1-0.7-3.5c0-2.1,0.5-3.6,1.6-4.8c1.1-1.1,2.6-1.7,4.5-1.7c1.2,0,2.3,0.3,3.2,0.8c0.9,0.5,1.6,1.3,2.1,2.3
				S176.5,517.1,176.5,518.4z M167.8,518.4c0,1.2,0.2,2.2,0.6,2.8c0.4,0.6,1.1,1,2,1c0.9,0,1.6-0.3,2-0.9c0.4-0.6,0.6-1.6,0.6-2.8
				c0-1.2-0.2-2.2-0.6-2.8s-1.1-0.9-2-0.9c-0.9,0-1.6,0.3-2,0.9S167.8,517.1,167.8,518.4z"/>
			<path class="st5" d="M186.2,524.9c-1.5,0-2.6-0.5-3.5-1.6h-0.2c0.1,1,0.2,1.7,0.2,1.8v5.1h-3.4v-18.1h2.8l0.5,1.6h0.2
				c0.8-1.2,2-1.9,3.6-1.9c1.5,0,2.6,0.6,3.5,1.7c0.8,1.1,1.3,2.7,1.3,4.8c0,1.3-0.2,2.5-0.6,3.5s-1,1.7-1.7,2.3
				C188,524.6,187.2,524.9,186.2,524.9z M185.2,514.6c-0.8,0-1.5,0.3-1.9,0.8c-0.4,0.5-0.6,1.4-0.6,2.6v0.4c0,1.3,0.2,2.3,0.6,2.9
				c0.4,0.6,1,0.9,1.9,0.9c1.5,0,2.3-1.3,2.3-3.8c0-1.2-0.2-2.2-0.6-2.8C186.6,514.9,186,514.6,185.2,514.6z"/>
			<path class="st5" d="M198.8,517.7c0-3.2,0.7-5.7,2.1-7.3c1.4-1.6,3.4-2.4,6.2-2.4c0.9,0,1.7,0.1,2.2,0.2v2.8
				c-0.7-0.1-1.3-0.2-2-0.2c-1.2,0-2.2,0.2-2.9,0.5s-1.3,0.9-1.7,1.6c-0.4,0.7-0.6,1.7-0.7,3h0.1c0.7-1.3,1.9-1.9,3.6-1.9
				c1.5,0,2.6,0.5,3.4,1.4c0.8,0.9,1.2,2.2,1.2,3.8c0,1.8-0.5,3.1-1.5,4.2c-1,1-2.4,1.5-4.1,1.5c-1.2,0-2.3-0.3-3.2-0.8
				c-0.9-0.6-1.6-1.4-2.1-2.5C199.1,520.5,198.8,519.2,198.8,517.7z M204.8,522.1c0.7,0,1.3-0.2,1.7-0.7c0.4-0.5,0.6-1.2,0.6-2.1
				c0-0.8-0.2-1.4-0.6-1.9s-0.9-0.7-1.7-0.7c-0.7,0-1.3,0.2-1.8,0.7c-0.5,0.5-0.7,1-0.7,1.6c0,0.9,0.2,1.6,0.7,2.3
				C203.5,521.8,204,522.1,204.8,522.1z"/>
			<path class="st5" d="M219.7,513.1c0,1.7-0.3,3-1,3.9c-0.7,0.9-1.6,1.3-2.9,1.3c-1.2,0-2.2-0.4-2.9-1.3s-1-2.2-1-3.8
				c0-3.4,1.3-5.1,3.9-5.1c1.3,0,2.2,0.4,2.9,1.3C219.3,510.2,219.7,511.5,219.7,513.1z M214.7,513.2c0,1,0.1,1.7,0.3,2.1
				c0.2,0.5,0.4,0.7,0.8,0.7c0.7,0,1.1-0.9,1.1-2.8c0-1.9-0.4-2.8-1.1-2.8c-0.4,0-0.6,0.2-0.8,0.7
				C214.8,511.5,214.7,512.2,214.7,513.2z M227.4,508.3l-9.1,16.4h-2.7l9.1-16.4H227.4z M231.2,519.7c0,1.7-0.3,3-1,3.9
				c-0.7,0.9-1.6,1.3-2.9,1.3c-1.2,0-2.2-0.4-2.9-1.3c-0.7-0.9-1-2.2-1-3.8c0-3.4,1.3-5.1,3.9-5.1c1.3,0,2.2,0.4,2.9,1.3
				C230.8,516.8,231.2,518.1,231.2,519.7z M226.2,519.7c0,1,0.1,1.7,0.3,2.1c0.2,0.5,0.4,0.7,0.8,0.7c0.7,0,1.1-0.9,1.1-2.8
				c0-1.9-0.4-2.8-1.1-2.8c-0.4,0-0.6,0.2-0.8,0.7C226.3,518.1,226.2,518.8,226.2,519.7z"/>
		</g>
	</g>
	<g>
		<g>
			<path class="st5" d="M72,314.4c0,2.7-0.7,4.8-2,6.3c-1.3,1.5-3.3,2.2-5.8,2.2s-4.4-0.7-5.8-2.2c-1.3-1.5-2-3.6-2-6.3
				c0-2.7,0.7-4.8,2-6.3c1.4-1.4,3.3-2.2,5.8-2.2c2.5,0,4.5,0.7,5.8,2.2C71.4,309.6,72,311.7,72,314.4z M60.1,314.4
				c0,1.8,0.3,3.2,1,4.1s1.7,1.4,3.1,1.4c2.8,0,4.2-1.8,4.2-5.5c0-3.7-1.4-5.5-4.1-5.5c-1.4,0-2.4,0.5-3.1,1.4
				C60.4,311.2,60.1,312.6,60.1,314.4z"/>
			<path class="st5" d="M86.8,322.7h-3.4v-7.3c0-0.9-0.2-1.6-0.5-2c-0.3-0.5-0.8-0.7-1.5-0.7c-1,0-1.7,0.3-2.1,1
				c-0.4,0.6-0.6,1.7-0.6,3.2v5.9h-3.4v-12.6h2.6l0.5,1.6h0.2c0.4-0.6,0.9-1.1,1.6-1.4c0.7-0.3,1.4-0.5,2.3-0.5
				c1.5,0,2.6,0.4,3.3,1.2c0.8,0.8,1.1,1.9,1.1,3.4V322.7z"/>
			<path class="st5" d="M93.7,322.7h-3.4v-17.5h3.4V322.7z"/>
			<path class="st5" d="M97.2,306.9c0-1.1,0.6-1.7,1.9-1.7c1.2,0,1.9,0.6,1.9,1.7c0,0.5-0.2,0.9-0.5,1.2c-0.3,0.3-0.8,0.4-1.4,0.4
				C97.8,308.5,97.2,308,97.2,306.9z M100.7,322.7h-3.4v-12.6h3.4V322.7z"/>
			<path class="st5" d="M115.9,322.7h-3.4v-7.3c0-0.9-0.2-1.6-0.5-2c-0.3-0.5-0.8-0.7-1.5-0.7c-1,0-1.7,0.3-2.1,1
				c-0.4,0.6-0.6,1.7-0.6,3.2v5.9h-3.4v-12.6h2.6l0.5,1.6h0.2c0.4-0.6,0.9-1.1,1.6-1.4c0.7-0.3,1.4-0.5,2.3-0.5
				c1.5,0,2.6,0.4,3.3,1.2c0.8,0.8,1.1,1.9,1.1,3.4V322.7z"/>
			<path class="st5" d="M125.1,322.9c-2,0-3.6-0.6-4.7-1.7c-1.1-1.1-1.7-2.7-1.7-4.7c0-2.1,0.5-3.7,1.6-4.9c1.1-1.1,2.5-1.7,4.4-1.7
				c1.8,0,3.2,0.5,4.1,1.5s1.5,2.4,1.5,4.2v1.7h-8.1c0,1,0.3,1.7,0.9,2.3s1.3,0.8,2.3,0.8c0.8,0,1.5-0.1,2.1-0.2s1.4-0.4,2.1-0.8
				v2.7c-0.6,0.3-1.2,0.5-1.9,0.7C126.9,322.8,126.1,322.9,125.1,322.9z M124.6,312.3c-0.7,0-1.3,0.2-1.7,0.7
				c-0.4,0.5-0.6,1.1-0.7,2h4.8c0-0.8-0.2-1.5-0.7-2C125.9,312.5,125.4,312.3,124.6,312.3z"/>
			<path class="st5" d="M150.2,322.7h-3.4v-7.3c0-0.9-0.2-1.6-0.5-2s-0.8-0.7-1.4-0.7c-0.9,0-1.5,0.3-1.9,1
				c-0.4,0.6-0.6,1.7-0.6,3.2v5.9H139v-12.6h2.6l0.5,1.6h0.2c0.3-0.6,0.8-1,1.5-1.4c0.6-0.3,1.4-0.5,2.2-0.5c1.9,0,3.2,0.6,3.8,1.8
				h0.3c0.3-0.6,0.8-1,1.5-1.4c0.7-0.3,1.4-0.5,2.2-0.5c1.4,0,2.5,0.4,3.2,1.1c0.7,0.7,1.1,1.9,1.1,3.5v8.2h-3.4v-7.3
				c0-0.9-0.2-1.6-0.5-2s-0.8-0.7-1.4-0.7c-0.8,0-1.5,0.3-1.9,0.9c-0.4,0.6-0.6,1.5-0.6,2.9V322.7z"/>
			<path class="st5" d="M169.6,322.7l-0.7-1.7h-0.1c-0.6,0.7-1.2,1.2-1.8,1.5c-0.6,0.3-1.4,0.4-2.4,0.4c-1.2,0-2.2-0.3-2.8-1
				c-0.7-0.7-1-1.7-1-2.9c0-1.3,0.5-2.3,1.4-2.9s2.3-1,4.2-1l2.2-0.1v-0.6c0-1.3-0.7-1.9-2-1.9c-1,0-2.2,0.3-3.5,0.9l-1.1-2.3
				c1.4-0.8,3-1.1,4.8-1.1c1.7,0,3,0.4,3.9,1.1c0.9,0.7,1.3,1.8,1.3,3.3v8.4H169.6z M168.6,316.8l-1.3,0c-1,0-1.7,0.2-2.2,0.5
				c-0.5,0.3-0.7,0.8-0.7,1.5c0,1,0.6,1.4,1.7,1.4c0.8,0,1.4-0.2,1.9-0.7c0.5-0.5,0.7-1.1,0.7-1.8V316.8z"/>
			<path class="st5" d="M178.9,322.7h-3.4v-17.5h3.4V322.7z"/>
			<path class="st5" d="M185.9,322.7h-3.4v-17.5h3.4V322.7z"/>
			<path class="st5" d="M206.1,322.7h-11.5v-2.4l4.1-4.2c1.2-1.3,2-2.1,2.4-2.6c0.4-0.5,0.6-0.9,0.8-1.3c0.2-0.4,0.2-0.8,0.2-1.3
				c0-0.7-0.2-1.1-0.5-1.5c-0.4-0.3-0.8-0.5-1.5-0.5c-0.6,0-1.3,0.1-1.9,0.4c-0.6,0.3-1.2,0.7-1.9,1.2l-1.9-2.2
				c0.8-0.7,1.5-1.2,2-1.5c0.5-0.3,1.1-0.5,1.7-0.7s1.3-0.2,2.1-0.2c1,0,1.9,0.2,2.7,0.6c0.8,0.4,1.4,0.9,1.8,1.6
				c0.4,0.7,0.7,1.4,0.7,2.3c0,0.8-0.1,1.5-0.4,2.1c-0.3,0.7-0.7,1.3-1.2,2c-0.6,0.7-1.5,1.7-2.9,3l-2.1,2v0.2h7.2V322.7z"/>
			<path class="st5" d="M218.6,309.9c0,1-0.3,1.9-0.9,2.6c-0.6,0.7-1.5,1.2-2.6,1.5v0.1c1.3,0.2,2.3,0.6,3,1.2c0.7,0.6,1,1.5,1,2.6
				c0,1.6-0.6,2.8-1.7,3.7s-2.8,1.3-4.9,1.3c-1.8,0-3.4-0.3-4.7-0.9v-3c0.6,0.3,1.3,0.6,2.1,0.8s1.5,0.3,2.3,0.3
				c1.1,0,2-0.2,2.5-0.6c0.5-0.4,0.8-1,0.8-1.9c0-0.8-0.3-1.3-0.9-1.6s-1.6-0.5-3-0.5h-1.2v-2.7h1.3c1.3,0,2.2-0.2,2.8-0.5
				c0.6-0.3,0.9-0.9,0.9-1.7c0-1.2-0.8-1.9-2.3-1.9c-0.5,0-1.1,0.1-1.6,0.3c-0.6,0.2-1.2,0.5-1.9,0.9l-1.6-2.4
				c1.5-1.1,3.3-1.6,5.4-1.6c1.7,0,3,0.3,4,1C218.1,307.7,218.6,308.7,218.6,309.9z"/>
			<path class="st5" d="M228.5,311.1c0,1.7-0.3,3-1,3.9c-0.7,0.9-1.6,1.3-2.9,1.3c-1.2,0-2.2-0.4-2.9-1.3c-0.7-0.9-1-2.2-1-3.8
				c0-3.4,1.3-5.1,3.9-5.1c1.3,0,2.2,0.4,2.9,1.3C228.2,308.2,228.5,309.5,228.5,311.1z M223.5,311.2c0,1,0.1,1.7,0.3,2.1
				s0.4,0.7,0.8,0.7c0.7,0,1.1-0.9,1.1-2.8c0-1.9-0.4-2.8-1.1-2.8c-0.4,0-0.6,0.2-0.8,0.7C223.6,309.5,223.5,310.2,223.5,311.2z
				 M236.2,306.2l-9.1,16.4h-2.7l9.1-16.4H236.2z M240,317.7c0,1.7-0.3,3-1,3.9c-0.7,0.9-1.6,1.3-2.9,1.3c-1.2,0-2.2-0.4-2.9-1.3
				c-0.7-0.9-1-2.2-1-3.8c0-3.4,1.3-5.1,3.9-5.1c1.3,0,2.2,0.4,2.9,1.3C239.7,314.8,240,316.1,240,317.7z M235,317.7
				c0,1,0.1,1.7,0.3,2.1s0.4,0.7,0.8,0.7c0.7,0,1.1-0.9,1.1-2.8c0-1.9-0.4-2.8-1.1-2.8c-0.4,0-0.6,0.2-0.8,0.7
				C235.1,316.1,235,316.8,235,317.7z"/>
		</g>
	</g>
</g>
</svg>