<!-- Generator: Adobe Illustrator 19.1.0, SVG Export Plug-In  -->
<svg version="1.1"
	 xmlns="http://www.w3.org/2000/svg" xmlns:xlink="http://www.w3.org/1999/xlink" xmlns:a="http://ns.adobe.com/AdobeSVGViewerExtensions/3.0/"
	 x="0px" y="0px" width="106.9px" height="66.2px" viewBox="0 0 106.9 66.2"
	 style="overflow:scroll;enable-background:new 0 0 106.9 66.2;" xml:space="preserve">
<style type="text/css">
	.st0{fill:#E3E3E3;stroke:#E3E3E3;stroke-width:0.6645;stroke-miterlimit:10;}
	.st1{fill:#FF6633;}
	.st2{fill:#FFFFFF;}
	.st3{fill:#086A87;}
</style>
<defs>
</defs>
<g>
	<path class="st0" d="M73.7,50.2H6.2c-3.3,0-5.9-2.6-5.9-5.9V12.2c0-3.3,2.6-5.9,5.9-5.9h67.4c3.3,0,5.9,2.6,5.9,5.9v32.1
		C79.5,47.6,76.9,50.2,73.7,50.2z"/>
	<rect x="0.3" y="13.4" class="st1" width="79.2" height="10.7"/>
	<rect x="0.3" y="22.9" class="st2" width="79.2" height="5.3"/>
	<g>
		<g>
			<path class="st3" d="M85.3,66.2v-8c-10.4-1.4-15.4-9-16-15.4l9.3-2.2c0.4,4.7,3.6,9.1,10.5,9.1c4.9,0,7.7-2.3,7.7-5.6
				c0-2.5-1.9-4.5-5.6-5.3l-6.9-1.5c-8.1-1.8-13.1-6.9-13.1-14.1c0-7.9,6.1-13.8,14.2-15.1V0h7.6v8.2c8.6,1.6,12.4,7.6,13.4,12.6
				l-9.2,2.6c-0.4-2.6-2.4-7-8.5-7c-4.8,0-7.4,2.8-7.4,5.8c0,2.3,1.6,4.3,5.2,5l6.8,1.6c9.4,2.1,13.7,7.7,13.7,14.5
				c0,6.9-4.9,13.3-13.9,14.7v8.1H85.3z"/>
		</g>
	</g>
</g>
</svg>