<!-- Generator: Adobe Illustrator 19.1.0, SVG Export Plug-In  -->
<svg version="1.1"
	 xmlns="http://www.w3.org/2000/svg" xmlns:xlink="http://www.w3.org/1999/xlink" xmlns:a="http://ns.adobe.com/AdobeSVGViewerExtensions/3.0/"
	 x="0px" y="0px" width="304.5px" height="188.2px" viewBox="0 0 304.5 188.2"
	 style="overflow:scroll;enable-background:new 0 0 304.5 188.2;" xml:space="preserve">
<style type="text/css">
	.st0{fill:#3A95AA;}
	.st1{fill:none;stroke:#086A87;stroke-width:2.9217;stroke-linecap:round;stroke-linejoin:round;stroke-miterlimit:10;}
	.st2{fill:#086A87;stroke:#086A87;stroke-width:2.1844;stroke-linecap:round;stroke-linejoin:round;stroke-miterlimit:10;}
	.st3{fill:#EDECEA;}
	.st4{fill:#33CCCC;stroke:#33CCCC;stroke-width:2.8315;stroke-miterlimit:10;}
	.st5{fill:#FFFFFF;}
	.st6{fill:#086A87;}
</style>
<defs>
</defs>
<path class="st0" d="M262.7,136.2H157.3c-4.6,0-8.3-6.3-8.3-14.1h113.7"/>
<path class="st0" d="M179.6,136.2H285c4.6,0,8.3-6.3,8.3-14.1H179.6"/>
<path class="st1" d="M262.7,111.5h-87.1c-3.6,0-6.5-2.8-6.5-6.3V46.4c0-3.5,2.9-6.3,6.5-6.3h96.6c3.6,0,6.5,2.8,6.5,6.3v32.2"/>
<path class="st2" d="M262.7,122.1h-93.1c-6.3,0-11.5-5-11.5-11.2V40.6c0-6.1,5.2-11.2,11.5-11.2h108.7c6.3,0,11.5,5,11.5,11.2v38"/>
<path class="st1" d="M185.1,111.5h87.1c3.6,0,6.5-2.8,6.5-6.3V46.4c0-3.5-2.9-6.3-6.5-6.3h-96.6c-3.6,0-6.5,2.8-6.5,6.3v32.2"/>
<path class="st2" d="M185.1,122.1h93.1c6.3,0,11.5-5,11.5-11.2V40.6c0-6.1-5.2-11.2-11.5-11.2H169.5c-6.3,0-11.5,5-11.5,11.2v38"/>
<rect x="169.1" y="40" class="st3" width="109.7" height="71.5"/>
<circle class="st4" cx="94.1" cy="94.1" r="92.7"/>
<g>
	<path class="st5" d="M36.6,77.1c-2.1,0-3.7-0.8-4.8-2.4S30,70.9,30,68.1c0-2.9,0.6-5.1,1.8-6.7c1.2-1.6,2.8-2.4,4.9-2.4
		c2.2,0,3.9,0.9,5,2.6h0.2c-0.2-1.3-0.4-2.5-0.4-3.5v-5.6h4.8v24.3h-3.7l-0.9-2.3h-0.2C40.5,76.2,38.8,77.1,36.6,77.1z M38.3,73.3
		c1.2,0,2.1-0.4,2.7-1.1c0.6-0.7,0.9-1.9,0.9-3.6v-0.5c0-1.9-0.3-3.2-0.9-4s-1.5-1.2-2.8-1.2c-1.1,0-1.9,0.5-2.5,1.4
		c-0.6,0.9-0.9,2.2-0.9,3.9s0.3,3,0.9,3.9S37.2,73.3,38.3,73.3z"/>
	<path class="st5" d="M59.2,77.1c-2.8,0-5-0.8-6.6-2.3c-1.6-1.6-2.4-3.8-2.4-6.6c0-2.9,0.7-5.2,2.2-6.8c1.5-1.6,3.5-2.4,6.1-2.4
		c2.5,0,4.4,0.7,5.8,2.1s2.1,3.3,2.1,5.8v2.3H55.1c0.1,1.4,0.5,2.4,1.2,3.2c0.8,0.8,1.8,1.1,3.2,1.1c1.1,0,2-0.1,3-0.3
		s1.9-0.6,2.9-1v3.7c-0.8,0.4-1.7,0.7-2.7,0.9C61.8,77,60.6,77.1,59.2,77.1z M58.6,62.4c-1,0-1.8,0.3-2.4,1c-0.6,0.6-0.9,1.5-1,2.7
		h6.7c0-1.2-0.3-2.1-0.9-2.7S59.6,62.4,58.6,62.4z"/>
	<path class="st5" d="M82.4,71.6c0,1.8-0.6,3.2-1.9,4.1c-1.2,0.9-3.1,1.4-5.6,1.4c-1.3,0-2.4-0.1-3.3-0.3c-0.9-0.2-1.7-0.4-2.5-0.8
		v-3.9c0.9,0.4,1.9,0.8,3,1s2.1,0.4,2.9,0.4c1.7,0,2.6-0.5,2.6-1.5c0-0.4-0.1-0.7-0.3-0.9c-0.2-0.2-0.6-0.5-1.2-0.8s-1.3-0.6-2.3-1
		c-1.3-0.6-2.3-1.1-3-1.6c-0.6-0.5-1.1-1-1.4-1.6c-0.3-0.6-0.4-1.4-0.4-2.3c0-1.6,0.6-2.8,1.8-3.6c1.2-0.8,2.9-1.3,5.1-1.3
		c2.1,0,4.2,0.5,6.1,1.4l-1.4,3.4c-0.9-0.4-1.7-0.7-2.5-0.9c-0.8-0.2-1.5-0.4-2.3-0.4c-1.4,0-2.1,0.4-2.1,1.1c0,0.4,0.2,0.8,0.7,1.1
		s1.4,0.8,3,1.4c1.4,0.6,2.4,1.1,3,1.5c0.6,0.5,1.1,1,1.4,1.7C82.3,70,82.4,70.7,82.4,71.6z"/>
	<path class="st5" d="M90.7,67.3l2.1-2.7l4.9-5.3h5.4l-6.9,7.6l7.4,9.9H98l-5-7.1l-2,1.6v5.4h-4.8V52.5h4.8v10.8L90.7,67.3
		L90.7,67.3z"/>
	<path class="st5" d="M113.4,73.3c0.8,0,1.8-0.2,3-0.5v3.5c-1.2,0.5-2.6,0.8-4.4,0.8c-1.9,0-3.3-0.5-4.2-1.4c-0.9-1-1.3-2.4-1.3-4.3
		v-8.4h-2.3v-2l2.6-1.6l1.4-3.7h3v3.7h4.9v3.6h-4.9v8.4c0,0.7,0.2,1.2,0.6,1.5C112.2,73.1,112.7,73.3,113.4,73.3z"/>
	<path class="st5" d="M135.8,68c0,2.8-0.8,5.1-2.3,6.7c-1.5,1.6-3.6,2.4-6.3,2.4c-1.7,0-3.2-0.4-4.4-1.1s-2.3-1.8-3-3.2s-1-3-1-4.8
		c0-2.9,0.7-5.1,2.2-6.7c1.5-1.6,3.6-2.4,6.3-2.4c1.7,0,3.2,0.4,4.4,1.1c1.3,0.7,2.3,1.8,3,3.1C135.4,64.6,135.8,66.2,135.8,68z
		 M123.7,68c0,1.7,0.3,3,0.9,3.9c0.6,0.9,1.5,1.3,2.8,1.3c1.3,0,2.2-0.4,2.7-1.3c0.6-0.9,0.8-2.2,0.8-3.9c0-1.7-0.3-3-0.8-3.9
		c-0.6-0.9-1.5-1.3-2.8-1.3c-1.3,0-2.2,0.4-2.8,1.3S123.7,66.3,123.7,68z"/>
	<path class="st5" d="M149.3,77.1c-2.1,0-3.7-0.7-4.8-2.2h-0.3c0.2,1.5,0.3,2.3,0.3,2.5v7.1h-4.8V59.3h3.9l0.7,2.3h0.2
		c1.1-1.7,2.8-2.6,5-2.6c2.1,0,3.7,0.8,4.8,2.4c1.2,1.6,1.8,3.8,1.8,6.6c0,1.9-0.3,3.5-0.8,4.9s-1.3,2.4-2.3,3.1
		C151.8,76.7,150.7,77.1,149.3,77.1z M147.9,62.8c-1.2,0-2,0.4-2.6,1.1c-0.5,0.7-0.8,1.9-0.8,3.6V68c0,1.9,0.3,3.2,0.8,4
		c0.6,0.8,1.4,1.2,2.6,1.2c2.1,0,3.2-1.8,3.2-5.3c0-1.7-0.3-3-0.8-3.9C149.8,63.2,149,62.8,147.9,62.8z"/>
	<path class="st5" d="M25.9,110c0,1.8-0.6,3.2-1.9,4.1c-1.2,0.9-3.1,1.4-5.6,1.4c-1.3,0-2.4-0.1-3.3-0.3c-0.9-0.2-1.7-0.4-2.5-0.8
		v-3.9c0.9,0.4,1.9,0.8,3,1s2.1,0.4,2.9,0.4c1.7,0,2.6-0.5,2.6-1.5c0-0.4-0.1-0.7-0.3-0.9c-0.2-0.2-0.6-0.5-1.2-0.8s-1.3-0.6-2.3-1
		c-1.3-0.6-2.3-1.1-3-1.6c-0.6-0.5-1.1-1-1.4-1.6c-0.3-0.6-0.4-1.4-0.4-2.3c0-1.6,0.6-2.8,1.8-3.6c1.2-0.8,2.9-1.3,5.1-1.3
		c2.1,0,4.2,0.5,6.1,1.4l-1.4,3.4c-0.9-0.4-1.7-0.7-2.5-0.9c-0.8-0.2-1.5-0.4-2.3-0.4c-1.4,0-2.1,0.4-2.1,1.1c0,0.4,0.2,0.8,0.7,1.1
		s1.4,0.8,3,1.4c1.4,0.6,2.4,1.1,3,1.5c0.6,0.5,1.1,1,1.4,1.7C25.8,108.4,25.9,109.1,25.9,110z"/>
	<path class="st5" d="M45.8,115.2H41V105c0-2.5-0.9-3.8-2.8-3.8c-1.3,0-2.3,0.5-2.9,1.4s-0.9,2.4-0.9,4.4v8.2h-4.8V90.9h4.8v5
		c0,0.4,0,1.3-0.1,2.7l-0.1,1.4h0.3c1.1-1.7,2.8-2.6,5.1-2.6c2.1,0,3.6,0.6,4.7,1.7c1.1,1.1,1.6,2.7,1.6,4.8V115.2z"/>
	<path class="st5" d="M66.6,106.4c0,2.8-0.8,5.1-2.3,6.7c-1.5,1.6-3.6,2.4-6.3,2.4c-1.7,0-3.2-0.4-4.4-1.1s-2.3-1.8-3-3.2
		s-1-3-1-4.8c0-2.9,0.7-5.1,2.2-6.7c1.5-1.6,3.6-2.4,6.3-2.4c1.7,0,3.2,0.4,4.4,1.1c1.3,0.7,2.3,1.8,3,3.1
		C66.2,103,66.6,104.6,66.6,106.4z M54.5,106.4c0,1.7,0.3,3,0.9,3.9c0.6,0.9,1.5,1.3,2.8,1.3c1.3,0,2.2-0.4,2.7-1.3
		c0.6-0.9,0.8-2.2,0.8-3.9c0-1.7-0.3-3-0.8-3.9c-0.6-0.9-1.5-1.3-2.8-1.3c-1.3,0-2.2,0.4-2.8,1.3S54.5,104.7,54.5,106.4z"/>
	<path class="st5" d="M80.1,115.5c-2.1,0-3.7-0.7-4.8-2.2H75c0.2,1.5,0.3,2.3,0.3,2.5v7.1h-4.8V97.7h3.9L75,100h0.2
		c1.1-1.7,2.8-2.6,5-2.6c2.1,0,3.7,0.8,4.8,2.4c1.2,1.6,1.8,3.8,1.8,6.6c0,1.9-0.3,3.5-0.8,4.9s-1.3,2.4-2.3,3.1
		C82.6,115.1,81.4,115.5,80.1,115.5z M78.7,101.2c-1.2,0-2,0.4-2.6,1.1c-0.5,0.7-0.8,1.9-0.8,3.6v0.5c0,1.9,0.3,3.2,0.8,4
		c0.6,0.8,1.4,1.2,2.6,1.2c2.1,0,3.2-1.8,3.2-5.3c0-1.7-0.3-3-0.8-3.9C80.6,101.6,79.8,101.2,78.7,101.2z"/>
	<path class="st5" d="M100.3,115.5c-2.1,0-3.7-0.7-4.8-2.2h-0.3c0.2,1.5,0.3,2.3,0.3,2.5v7.1h-4.8V97.7h3.9l0.7,2.3h0.2
		c1.1-1.7,2.8-2.6,5-2.6c2.1,0,3.7,0.8,4.8,2.4c1.2,1.6,1.8,3.8,1.8,6.6c0,1.9-0.3,3.5-0.8,4.9s-1.3,2.4-2.3,3.1
		C102.9,115.1,101.7,115.5,100.3,115.5z M98.9,101.2c-1.2,0-2,0.4-2.6,1.1c-0.5,0.7-0.8,1.9-0.8,3.6v0.5c0,1.9,0.3,3.2,0.8,4
		c0.6,0.8,1.4,1.2,2.6,1.2c2.1,0,3.2-1.8,3.2-5.3c0-1.7-0.3-3-0.8-3.9C100.9,101.6,100.1,101.2,98.9,101.2z"/>
	<path class="st5" d="M110.8,93.2c0-1.6,0.9-2.3,2.6-2.3c1.7,0,2.6,0.8,2.6,2.3c0,0.7-0.2,1.3-0.6,1.7c-0.4,0.4-1.1,0.6-1.9,0.6
		C111.6,95.5,110.8,94.8,110.8,93.2z M115.8,115.2H111V97.7h4.8V115.2z"/>
	<path class="st5" d="M136.9,115.2h-4.8V105c0-1.3-0.2-2.2-0.7-2.8c-0.4-0.6-1.2-0.9-2.1-0.9c-1.3,0-2.3,0.4-2.9,1.3
		s-0.9,2.4-0.9,4.4v8.2h-4.8V97.7h3.6l0.6,2.2h0.3c0.5-0.8,1.3-1.5,2.2-1.9c0.9-0.4,2-0.6,3.2-0.6c2,0,3.6,0.5,4.6,1.6
		c1.1,1.1,1.6,2.7,1.6,4.8V115.2z"/>
	<path class="st5" d="M157.1,115.2c0,2.5-0.7,4.4-2.2,5.7c-1.5,1.3-3.6,1.9-6.5,1.9c-2.6,0-4.7-0.3-6.5-1V118
		c2.1,0.9,4.4,1.3,6.8,1.3c2.4,0,3.7-1.3,3.7-4v-0.3l0.1-2.1h-0.1c-1.1,1.7-2.8,2.6-5,2.6c-2.1,0-3.7-0.8-4.9-2.4
		c-1.2-1.6-1.7-3.8-1.7-6.6c0-2.9,0.6-5.1,1.8-6.7c1.2-1.6,2.8-2.4,4.9-2.4c2.1,0,3.8,0.9,5.1,2.6h0.1l0.4-2.2h4V115.2z M149,111.8
		c1.3,0,2.2-0.4,2.8-1.1c0.6-0.7,0.8-1.9,0.8-3.6v-0.6c0-1.9-0.3-3.2-0.9-4c-0.6-0.8-1.5-1.2-2.8-1.2c-2.2,0-3.4,1.8-3.4,5.3
		c0,1.8,0.3,3.1,0.8,3.9C147,111.3,147.8,111.8,149,111.8z"/>
	<path class="st5" d="M163.8,107.6v-1.2c0-1,0.2-1.9,0.6-2.6c0.4-0.7,1.2-1.5,2.3-2.4c1.1-0.8,1.8-1.4,2.2-1.9
		c0.3-0.5,0.5-1,0.5-1.6c0-0.7-0.3-1.2-0.8-1.5c-0.5-0.4-1.2-0.5-2.1-0.5c-1.6,0-3.3,0.5-5.3,1.5l-1.7-3.4c2.3-1.3,4.8-2,7.4-2
		c2.1,0,3.9,0.5,5.1,1.5s1.9,2.4,1.9,4.1c0,1.1-0.3,2.1-0.8,3c-0.5,0.8-1.5,1.8-3,2.8c-1,0.7-1.6,1.3-1.9,1.7
		c-0.3,0.4-0.4,0.9-0.4,1.5v0.9H163.8z M163.3,112.9c0-0.9,0.2-1.5,0.7-2c0.5-0.4,1.2-0.7,2-0.7c0.9,0,1.5,0.2,2,0.7
		c0.5,0.5,0.7,1.1,0.7,2c0,0.8-0.2,1.5-0.7,1.9c-0.5,0.5-1.1,0.7-2,0.7c-0.9,0-1.6-0.2-2-0.7C163.6,114.4,163.3,113.8,163.3,112.9z"
		/>
</g>
<g>
	<g>
		<path class="st6" d="M230.1,174.5h-4.4v7.5h-7.5v-7.5h-15.5v-5.4l16-23.5h7.1v22.9h4.4V174.5z M218.2,168.5v-6.2
			c0-1,0-2.5,0.1-4.5s0.1-3.1,0.2-3.4h-0.2c-0.6,1.4-1.4,2.7-2.2,4l-6.7,10.1H218.2z"/>
		<path class="st6" d="M245.5,145.1c3.5,0,6.3,0.8,8.4,2.4c2.1,1.6,3.2,3.7,3.2,6.4c0,1.9-0.5,3.5-1.5,5c-1,1.5-2.7,2.8-5,3.9
			c2.7,1.5,4.7,3,5.9,4.6c1.2,1.6,1.8,3.3,1.8,5.2c0,3-1.2,5.4-3.5,7.2c-2.3,1.8-5.4,2.7-9.2,2.7c-4,0-7.1-0.8-9.4-2.5
			s-3.4-4.1-3.4-7.2c0-2.1,0.6-3.9,1.7-5.5c1.1-1.6,2.9-3,5.3-4.3c-2.1-1.3-3.6-2.7-4.5-4.2s-1.4-3.1-1.4-4.9c0-2.6,1.1-4.7,3.2-6.3
			S242.1,145.1,245.5,145.1z M239.8,172.3c0,1.4,0.5,2.5,1.5,3.3s2.4,1.2,4.1,1.2c1.9,0,3.3-0.4,4.3-1.2c0.9-0.8,1.4-1.9,1.4-3.2
			c0-1.1-0.5-2.2-1.4-3.1c-0.9-1-2.5-2-4.6-3.1C241.6,167.8,239.8,169.8,239.8,172.3z M245.5,150.8c-1.3,0-2.4,0.3-3.2,1
			c-0.8,0.7-1.2,1.6-1.2,2.7c0,1,0.3,1.9,1,2.7c0.6,0.8,1.8,1.6,3.5,2.4c1.6-0.8,2.8-1.5,3.4-2.3s1-1.7,1-2.8c0-1.1-0.4-2-1.2-2.7
			S246.8,150.8,245.5,150.8z"/>
		<path class="st6" d="M279,156.5c0,3.8-0.7,6.7-2.2,8.6c-1.5,1.9-3.6,2.9-6.5,2.9c-2.7,0-4.9-1-6.4-3c-1.5-2-2.2-4.8-2.2-8.5
			c0-7.6,2.9-11.4,8.6-11.4c2.8,0,5,1,6.5,3C278.2,150,279,152.8,279,156.5z M267.9,156.5c0,2.1,0.2,3.7,0.6,4.7
			c0.4,1,1,1.6,1.8,1.6c1.6,0,2.4-2.1,2.4-6.3c0-4.2-0.8-6.2-2.4-6.2c-0.8,0-1.4,0.5-1.8,1.5C268.1,152.8,267.9,154.4,267.9,156.5z
			 M296.1,145.6L275.9,182h-6l20.2-36.4H296.1z M304.5,171c0,3.8-0.7,6.7-2.2,8.6c-1.5,1.9-3.6,2.9-6.5,2.9c-2.7,0-4.9-1-6.4-3
			c-1.5-2-2.2-4.8-2.2-8.5c0-7.6,2.9-11.4,8.6-11.4c2.8,0,5,1,6.5,3C303.7,164.5,304.5,167.4,304.5,171z M293.4,171.1
			c0,2.1,0.2,3.7,0.6,4.7c0.4,1,1,1.6,1.8,1.6c1.6,0,2.4-2.1,2.4-6.3c0-4.2-0.8-6.2-2.4-6.2c-0.8,0-1.4,0.5-1.8,1.5
			C293.6,167.4,293.4,169,293.4,171.1z"/>
	</g>
</g>
</svg>