<!-- Generator: Adobe Illustrator 19.0.0, SVG Export Plug-In  -->
<svg version="1.1"
	 xmlns="http://www.w3.org/2000/svg" xmlns:xlink="http://www.w3.org/1999/xlink" xmlns:a="http://ns.adobe.com/AdobeSVGViewerExtensions/3.0/"
	 x="0px" y="0px" width="476px" height="311.4px" viewBox="0 0 476 311.4" style="enable-background:new 0 0 476 311.4;"
	 xml:space="preserve">
<style type="text/css">
	.st0{fill:#D1D1D1;}
	.st1{fill:#9EA6A8;}
	.st2{fill:#FFFFFF;}
	.st3{fill:#FF6633;}
	.st4{fill:#AAA5A3;}
	.st5{fill:none;stroke:#D1D1D1;stroke-miterlimit:10;}
	.st6{fill:#33CCCC;}
	.st7{fill:#258986;}
	.st8{fill:#E3E3E3;stroke:#E3E3E3;stroke-width:1.5;stroke-miterlimit:10;}
	.st9{fill:#B6B7B7;}
	.st10{fill:#E3E3E3;stroke:#E3E3E3;stroke-width:1.5;stroke-linecap:round;stroke-linejoin:round;stroke-miterlimit:10;}
	.st11{fill:#FFFFFF;stroke:#E3E3E3;stroke-width:1.5;stroke-linecap:round;stroke-linejoin:round;stroke-miterlimit:10;}
	.st12{fill:#086A87;}
	.st13{fill:#E3E3E3;}
	.st14{fill:#F8F7F9;stroke:#E3E3E3;stroke-width:1.5;stroke-miterlimit:10;}
	.st15{fill:#086A87;stroke:#086A87;stroke-width:1.5;stroke-linecap:round;stroke-linejoin:round;stroke-miterlimit:10;}
	.st16{fill:none;stroke:#FF6633;stroke-width:1.5;stroke-linecap:round;stroke-linejoin:round;stroke-miterlimit:10;}
	.st17{fill:none;stroke:#FFFFFF;stroke-width:1.5;stroke-miterlimit:10;}
	.st18{fill:#FFFFFF;stroke:#FF6633;stroke-width:1.5;stroke-linecap:round;stroke-linejoin:round;stroke-miterlimit:10;}
	.st19{fill:#33CCCC;stroke:#33CCCC;stroke-width:1.5;stroke-miterlimit:10;}
</style>
<defs>
</defs>
<g>
	<path class="st0" d="M432,262H44c-7.7,0-14-6.3-14-14V14c0-7.7,6.3-14,14-14h388c7.7,0,14,6.3,14,14v234
		C446,255.7,439.7,262,432,262z"/>
	<rect x="48.2" y="26" class="st1" width="377.6" height="236"/>
	<rect x="61.2" y="59" class="st2" width="352.3" height="173.3"/>
	<path class="st0" d="M0,246L0,246c0,15.4,12.6,28,28,28h420c15.4,0,28-12.6,28-28l0,0H0z"/>
	<rect x="61.2" y="31.7" class="st0" width="352.3" height="13.7"/>
	<rect x="61.2" y="45.3" class="st2" width="351.5" height="13.7"/>
	<circle class="st3" cx="72" cy="38.5" r="3.3"/>
	<circle class="st3" cx="82.7" cy="38.5" r="3.3"/>
	<circle class="st3" cx="93.5" cy="38.5" r="3.3"/>
</g>
<circle class="st2" cx="288.4" cy="144.4" r="2.9"/>
<path class="st4" d="M302.5,260.7H191.9c-4,0-7.4-3.3-7.4-7.4l0,0c0-4,3.3-7.4,7.4-7.4h110.6c4,0,7.4,3.3,7.4,7.4l0,0
	C309.8,257.4,306.5,260.7,302.5,260.7z"/>
<rect x="118.9" y="49.9" class="st5" width="176.5" height="19"/>
<rect x="295.4" y="49.9" class="st3" width="35.5" height="19"/>
<g>
	<path class="st1" d="M124.8,53c0-0.7,0.4-1.1,1.1-1.1c0.7,0,1.1,0.4,1.1,1.1c0,0.3-0.1,0.6-0.3,0.8c-0.2,0.2-0.5,0.3-0.8,0.3
		C125.1,54.1,124.8,53.7,124.8,53z M126.9,63.3h-2.1v-8.2h2.1V63.3z"/>
	<path class="st1" d="M133.2,63.4c-0.9,0-1.6-0.3-2.1-1H131c0.1,0.7,0.1,1.1,0.1,1.2v3.3h-2.1V55.1h1.7l0.3,1.1h0.1
		c0.5-0.8,1.2-1.2,2.1-1.2c0.9,0,1.6,0.4,2.1,1.1s0.8,1.8,0.8,3.1c0,0.9-0.1,1.6-0.4,2.3s-0.6,1.1-1,1.5
		C134.3,63.3,133.8,63.4,133.2,63.4z M132.6,56.7c-0.5,0-0.9,0.2-1.1,0.5c-0.2,0.3-0.4,0.9-0.4,1.7v0.2c0,0.9,0.1,1.5,0.4,1.9
		c0.2,0.4,0.6,0.6,1.1,0.6c0.9,0,1.4-0.8,1.4-2.5c0-0.8-0.1-1.4-0.3-1.8C133.4,56.9,133.1,56.7,132.6,56.7z"/>
	<path class="st1" d="M142,55c0.3,0,0.5,0,0.7,0.1l-0.2,2.1c-0.2,0-0.4-0.1-0.6-0.1c-0.7,0-1.2,0.2-1.5,0.5
		c-0.4,0.4-0.5,0.9-0.5,1.5v4.2h-2.1v-8.2h1.6l0.3,1.4h0.1c0.2-0.5,0.5-0.8,0.9-1.1C141.1,55.1,141.5,55,142,55z"/>
	<path class="st1" d="M144,53c0-0.7,0.4-1.1,1.1-1.1c0.7,0,1.1,0.4,1.1,1.1c0,0.3-0.1,0.6-0.3,0.8c-0.2,0.2-0.5,0.3-0.8,0.3
		C144.3,54.1,144,53.7,144,53z M146.1,63.3H144v-8.2h2.1V63.3z"/>
	<path class="st1" d="M151.3,63.4c-2.3,0-3.5-1.4-3.5-4.2c0-1.4,0.3-2.5,1-3.2c0.6-0.7,1.6-1.1,2.7-1.1c0.9,0,1.7,0.2,2.3,0.6
		l-0.6,1.7c-0.3-0.1-0.6-0.3-0.9-0.3c-0.3-0.1-0.6-0.1-0.8-0.1c-1.1,0-1.6,0.8-1.6,2.5c0,1.6,0.5,2.4,1.6,2.4c0.4,0,0.8-0.1,1.1-0.2
		c0.3-0.1,0.7-0.3,1-0.5v1.9c-0.3,0.2-0.7,0.4-1,0.5C152.3,63.4,151.8,63.4,151.3,63.4z"/>
	<path class="st1" d="M158.7,63.4c-1.2,0-2.2-0.4-2.8-1.1s-1-1.8-1-3.1c0-1.4,0.3-2.4,0.9-3.2c0.6-0.8,1.5-1.1,2.6-1.1
		c1.1,0,1.9,0.3,2.5,1c0.6,0.7,0.9,1.6,0.9,2.7v1.1H157c0,0.6,0.2,1.1,0.5,1.5c0.3,0.4,0.8,0.5,1.4,0.5c0.5,0,0.9-0.1,1.3-0.2
		c0.4-0.1,0.8-0.3,1.3-0.5v1.7c-0.4,0.2-0.7,0.3-1.2,0.4C159.8,63.4,159.3,63.4,158.7,63.4z M158.5,56.5c-0.4,0-0.8,0.2-1,0.5
		c-0.2,0.3-0.4,0.7-0.4,1.3h2.9c0-0.6-0.1-1-0.4-1.3C159.2,56.7,158.9,56.5,158.5,56.5z"/>
	<path class="st1" d="M163.2,62.2c0-0.4,0.1-0.7,0.3-0.9s0.5-0.3,0.9-0.3c0.4,0,0.7,0.1,0.9,0.3c0.2,0.2,0.3,0.5,0.3,0.9
		c0,0.4-0.1,0.7-0.3,0.9c-0.2,0.2-0.5,0.3-0.9,0.3c-0.4,0-0.7-0.1-0.9-0.3C163.3,63,163.2,62.6,163.2,62.2z"/>
	<path class="st1" d="M174.2,63.3h-2.1v-4.8c0-0.6-0.1-1-0.3-1.3c-0.2-0.3-0.5-0.4-0.9-0.4c-0.5,0-0.9,0.2-1.1,0.6
		c-0.2,0.4-0.4,1.1-0.4,2.1v3.9h-2.1v-8.2h1.6l0.3,1h0.1c0.2-0.4,0.5-0.7,0.9-0.9c0.4-0.2,0.8-0.3,1.3-0.3c1.1,0,1.9,0.4,2.3,1.2
		h0.2c0.2-0.4,0.5-0.7,0.9-0.9s0.8-0.3,1.3-0.3c0.9,0,1.5,0.2,1.9,0.7c0.4,0.5,0.7,1.2,0.7,2.3v5.3h-2.1v-4.8c0-0.6-0.1-1-0.3-1.3
		c-0.2-0.3-0.5-0.4-0.9-0.4c-0.5,0-0.9,0.2-1.1,0.6c-0.2,0.4-0.4,1-0.4,1.9V63.3z"/>
	<path class="st1" d="M179.9,55.1h2.2l1.4,4.6c0.1,0.4,0.2,0.9,0.2,1.4h0c0-0.5,0.1-1,0.3-1.4l1.4-4.6h2.2l-3.2,9.2
		c-0.3,0.9-0.7,1.5-1.2,1.9s-1.2,0.6-1.9,0.6c-0.4,0-0.7,0-1-0.1V65c0.2,0.1,0.5,0.1,0.8,0.1c0.4,0,0.7-0.1,1-0.4
		c0.3-0.2,0.5-0.6,0.6-1.1l0.1-0.4L179.9,55.1z"/>
</g>
<rect x="131.8" y="94.7" class="st5" width="280.8" height="137.6"/>
<rect x="61.2" y="43.1" class="st6" width="352.3" height="51.6"/>
<rect x="140.4" y="58.5" class="st2" width="134.1" height="20.7"/>
<rect x="274.5" y="58.5" class="st7" width="37" height="20.7"/>
<rect x="140.4" y="113.6" class="st6" width="50.1" height="6.9"/>
<rect x="140.4" y="124.3" class="st6" width="71.9" height="3.5"/>
<rect x="140.4" y="129.3" class="st6" width="71.9" height="3.5"/>
<g>
	<rect x="74.6" y="104.5" class="st8" width="37.8" height="8.6"/>
	<rect x="74.6" y="162.5" class="st8" width="37.8" height="8.6"/>
	<rect x="74.6" y="155.2" class="st9" width="37.8" height="3.1"/>
	<line class="st10" x1="74.6" y1="117.7" x2="105.2" y2="117.7"/>
	<line class="st10" x1="74.6" y1="122.2" x2="105.2" y2="122.2"/>
	<line class="st10" x1="74.6" y1="126.6" x2="105.2" y2="126.6"/>
	<line class="st10" x1="74.6" y1="131.1" x2="105.2" y2="131.1"/>
	<line class="st10" x1="74.6" y1="135.5" x2="105.2" y2="135.5"/>
	<line class="st10" x1="74.6" y1="140" x2="105.2" y2="140"/>
	<line class="st10" x1="74.6" y1="144.4" x2="105.2" y2="144.4"/>
	<line class="st10" x1="74.6" y1="175.3" x2="105.2" y2="175.3"/>
	<line class="st10" x1="74.6" y1="179.8" x2="105.2" y2="179.8"/>
	<line class="st10" x1="74.6" y1="184.2" x2="105.2" y2="184.2"/>
	<line class="st10" x1="74.6" y1="188.7" x2="105.2" y2="188.7"/>
	<line class="st10" x1="74.6" y1="193.1" x2="105.2" y2="193.1"/>
	<line class="st10" x1="74.6" y1="197.6" x2="105.2" y2="197.6"/>
	<line class="st10" x1="74.6" y1="202" x2="105.2" y2="202"/>
	<line class="st10" x1="74.6" y1="148.9" x2="105.2" y2="148.9"/>
	<path class="st11" d="M83.2,159.1h-5.4c-0.7,0-1.3-0.6-1.3-1.3v-2.3c0-0.7,0.6-1.3,1.3-1.3h5.4c0.7,0,1.3,0.6,1.3,1.3v2.3
		C84.5,158.5,83.9,159.1,83.2,159.1z"/>
	<path class="st11" d="M108.9,159.1h-5.4c-0.7,0-1.3-0.6-1.3-1.3v-2.3c0-0.7,0.6-1.3,1.3-1.3h5.4c0.7,0,1.3,0.6,1.3,1.3v2.3
		C110.3,158.5,109.7,159.1,108.9,159.1z"/>
	<circle class="st9" cx="78.1" cy="211.8" r="3.5"/>
	<circle class="st6" cx="87" cy="211.8" r="3.5"/>
	<circle class="st3" cx="95.8" cy="211.8" r="3.5"/>
	<circle class="st12" cx="104.7" cy="211.8" r="3.5"/>
</g>
<rect x="139.4" y="141.4" class="st13" width="25.6" height="36.3"/>
<rect x="170.5" y="141.4" class="st13" width="25.6" height="36.3"/>
<rect x="201.5" y="141.4" class="st13" width="25.6" height="36.3"/>
<rect x="139" y="184" class="st13" width="25.6" height="36.3"/>
<rect x="170" y="184" class="st13" width="25.6" height="36.3"/>
<path class="st12" d="M144.1,157.6c0,0-0.2-3.2,2.5-3.8l6.4,8.3c0,0,1.6,1.4,2.4-0.9c0-0.1,4.9,2.1,4.9,2.1s0.8,2.1-1.4,2h-6.6
	c0,0-0.8-0.3-3.3-3l-2.7-2.8v5.7h-2.1L144.1,157.6z"/>
<path class="st9" d="M175.1,157.6c0,0-0.2-3.2,2.5-3.8l6.4,8.3c0,0,1.6,1.4,2.4-0.9c0-0.1,4.9,2.1,4.9,2.1s0.8,2.1-1.4,2h-6.6
	c0,0-0.8-0.3-3.3-3l-2.7-2.8v5.7h-2.1L175.1,157.6z"/>
<path class="st6" d="M206.1,157.9c0,0-0.2-3.2,2.5-3.8l6.4,8.3c0,0,1.6,1.4,2.4-0.9c0-0.1,4.9,2.1,4.9,2.1s0.8,2.1-1.4,2h-6.6
	c0,0-0.8-0.3-3.3-3l-2.7-2.8v5.7h-2.1L206.1,157.9z"/>
<rect x="201.9" y="183.7" class="st13" width="25.6" height="36.3"/>
<path class="st9" d="M206.5,200.2c0,0-0.2-3.2,2.5-3.8l6.4,8.3c0,0,1.6,1.4,2.4-0.9c0-0.1,4.9,2.1,4.9,2.1s0.8,2.1-1.4,2h-6.6
	c0,0-0.8-0.3-3.3-3l-2.7-2.8v5.7h-2.1L206.5,200.2z"/>
<rect x="231.9" y="141.4" class="st13" width="25.6" height="36.3"/>
<path class="st6" d="M236.5,157.9c0,0-0.2-3.2,2.5-3.8l6.4,8.3c0,0,1.6,1.4,2.4-0.9c0-0.1,4.9,2.1,4.9,2.1s0.8,2.1-1.4,2h-6.6
	c0,0-0.8-0.3-3.3-3l-2.7-2.8v5.7h-2.1L236.5,157.9z"/>
<rect x="232.3" y="183.7" class="st13" width="25.6" height="36.3"/>
<path class="st3" d="M236.9,200.2c0,0-0.2-3.2,2.5-3.8l6.4,8.3c0,0,1.6,1.4,2.4-0.9c0-0.1,4.9,2.1,4.9,2.1s0.8,2.1-1.4,2h-6.6
	c0,0-0.8-0.3-3.3-3l-2.7-2.8v5.7h-2.1L236.9,200.2z"/>
<path class="st12" d="M174.7,200.2c0,0-0.2-3.2,2.5-3.8l6.4,8.3c0,0,1.6,1.4,2.4-0.9c0-0.1,4.9,2.1,4.9,2.1s0.8,2.1-1.4,2h-6.6
	c0,0-0.8-0.3-3.3-3l-2.7-2.8v5.7h-2.1L174.7,200.2z"/>
<path class="st6" d="M143.6,200.2c0,0-0.2-3.2,2.5-3.8l6.4,8.3c0,0,1.6,1.4,2.4-0.9c0-0.1,4.9,2.1,4.9,2.1s0.8,2.1-1.4,2h-6.6
	c0,0-0.8-0.3-3.3-3l-2.7-2.8v5.7h-2.1L143.6,200.2z"/>
<polygon class="st12" points="418.2,260.6 418.2,299.8 448.7,280.2 "/>
<rect x="432.8" y="275.3" transform="matrix(0.7839 -0.6209 0.6209 0.7839 -87.1569 336.1067)" class="st12" width="13.1" height="36"/>
<g>
	<rect x="268.7" y="114.3" class="st14" width="120.7" height="167.5"/>
	<rect x="281.5" y="134.3" class="st8" width="95.7" height="100.8"/>
	<rect x="281.5" y="207.2" class="st15" width="95.7" height="35"/>
	<line class="st10" x1="281.5" y1="254" x2="357.8" y2="254"/>
	<line class="st10" x1="281.5" y1="262.3" x2="357.8" y2="262.3"/>
	<line class="st10" x1="281.5" y1="270.6" x2="357.8" y2="270.6"/>
	<g>
		<g>
			<rect x="356" y="124.6" class="st2" width="45.2" height="30.5"/>
			<g>
				<path class="st3" d="M400.4,125.3v29h-43.7v-29H400.4 M401.9,123.8h-46.7v32h46.7V123.8L401.9,123.8z"/>
			</g>
		</g>
		<g>
			<path class="st3" d="M361.9,144.9V144l1.2-1.2c2.9-2.7,4.2-4.2,4.2-5.9c0-1.1-0.6-2.2-2.2-2.2c-1,0-1.9,0.5-2.4,1l-0.5-1.1
				c0.8-0.7,1.9-1.1,3.2-1.1c2.4,0,3.5,1.7,3.5,3.3c0,2.1-1.5,3.8-3.9,6.1l-0.9,0.8v0h5.1v1.3H361.9z"/>
			<path class="st3" d="M378.6,139.2c0,3.8-1.4,6-3.9,6c-2.2,0-3.7-2.1-3.7-5.8c0-3.8,1.6-5.9,3.9-5.9
				C377.3,133.4,378.6,135.6,378.6,139.2z M372.5,139.3c0,2.9,0.9,4.6,2.3,4.6c1.6,0,2.3-1.8,2.3-4.7c0-2.8-0.7-4.6-2.3-4.6
				C373.5,134.6,372.5,136.3,372.5,139.3z"/>
			<path class="st3" d="M385.5,136.8c0,2.4-1.3,3.6-2.7,3.6c-1.4,0-2.6-1.1-2.6-3.4c0-2.3,1.2-3.5,2.7-3.5
				C384.5,133.4,385.5,134.7,385.5,136.8z M381.4,136.9c0,1.4,0.5,2.5,1.5,2.5c1,0,1.5-1.1,1.5-2.6c0-1.4-0.4-2.5-1.5-2.5
				C381.9,134.4,381.4,135.5,381.4,136.9z M382.7,145.1l6.6-11.7h1l-6.6,11.7H382.7z M392.9,141.5c0,2.4-1.3,3.6-2.7,3.6
				c-1.4,0-2.6-1.1-2.6-3.4c0-2.3,1.2-3.5,2.7-3.5C391.8,138.1,392.9,139.3,392.9,141.5z M388.7,141.6c0,1.4,0.5,2.5,1.5,2.5
				c1,0,1.5-1.1,1.5-2.6c0-1.4-0.4-2.5-1.5-2.5C389.2,139,388.7,140.2,388.7,141.6z"/>
		</g>
		<path class="st16" d="M400.9,147.1l3,0v0c4.4-0.2,7.9-3.8,7.9-8.2c0-4.4-3.5-8.1-7.9-8.2v0l-3,0"/>
	</g>
	<rect x="287.2" y="215" class="st17" width="26.7" height="0"/>
	<rect x="287.2" y="220.7" class="st17" width="26.7" height="0"/>
	<rect x="287.2" y="226.5" class="st17" width="26.7" height="0"/>
	<rect x="287.2" y="232.3" class="st17" width="26.7" height="0"/>
	<rect x="339.5" y="215" class="st18" width="21.6" height="17.4"/>
	<line class="st18" x1="339.5" y1="220.2" x2="361" y2="220.2"/>
	<path class="st18" d="M345.1,217.5L345.1,217.5c-0.6,0-1.2-0.5-1.2-1.2v-3.9c0-0.6,0.5-1.2,1.2-1.2l0,0c0.6,0,1.2,0.5,1.2,1.2v3.9
		C346.3,217,345.7,217.5,345.1,217.5z"/>
	<path class="st18" d="M355.5,217.5L355.5,217.5c-0.6,0-1.2-0.5-1.2-1.2v-3.9c0-0.6,0.5-1.2,1.2-1.2l0,0c0.6,0,1.2,0.5,1.2,1.2v3.9
		C356.7,217,356.2,217.5,355.5,217.5z"/>
	<path class="st3" d="M309,171.1c0,0-0.5-9.2,7.4-11.1l18.6,24.2c0,0,4.6,4.1,7-2.5c0-0.3,14.3,6.1,14.3,6.1s2.4,6.1-4.2,5.8h-19.2
		c0,0-2.4-0.8-9.8-8.7l-8-8.1v16.8H309L309,171.1z"/>
	<circle class="st19" cx="377.2" cy="292" r="3.6"/>
	<path class="st3" d="M400.3,232.2c0,0-1.5,7.8-9,8.9c7.5,1.1,9,8.9,9,8.9s1.5-7.8,9-8.9C401.7,239.9,400.3,232.2,400.3,232.2z"/>
	<g>
		<path class="st2" d="M389.4,294.1c-1.7-5-6.5-15.6-18.5-19c12-3.4,16.9-14,18.5-19c1.7,5,6.5,15.6,18.5,19
			C395.9,278.5,391,289.1,389.4,294.1z"/>
		<g>
			<path class="st3" d="M389.4,258.3c2.1,5.2,6.7,13.2,16.1,16.8c-9.5,3.6-14.1,11.7-16.1,16.8c-2.1-5.2-6.7-13.2-16.1-16.8
				C382.7,271.5,387.3,263.5,389.4,258.3 M389.4,253.3c0,0-3.6,19.1-22.1,21.8c18.5,2.8,22.1,21.8,22.1,21.8s3.6-19.1,22.1-21.8
				C392.9,272.4,389.4,253.3,389.4,253.3L389.4,253.3z"/>
		</g>
	</g>
	<g>
		<path class="st12" d="M375.5,263.6c-0.8-1.9-2.5-4.5-5.5-5.8c3.1-1.3,4.7-3.9,5.5-5.8c0.8,1.9,2.5,4.5,5.5,5.8
			C377.9,259.1,376.3,261.7,375.5,263.6z"/>
		<g>
			<path class="st12" d="M375.5,253.7c0.8,1.4,2,2.9,3.9,4.1c-1.8,1.1-3,2.6-3.9,4.1c-0.8-1.4-2-2.9-3.9-4.1
				C373.5,256.7,374.7,255.2,375.5,253.7 M375.5,249.7c0,0-1.3,7.1-8.2,8.1c6.9,1,8.2,8.1,8.2,8.1s1.3-7.1,8.2-8.1
				C376.8,256.8,375.5,249.7,375.5,249.7L375.5,249.7z"/>
		</g>
	</g>
</g>
</svg>