<!-- Generator: Adobe Illustrator 19.0.0, SVG Export Plug-In  -->
<svg version="1.1"
	 xmlns="http://www.w3.org/2000/svg" xmlns:xlink="http://www.w3.org/1999/xlink" xmlns:a="http://ns.adobe.com/AdobeSVGViewerExtensions/3.0/"
	 x="0px" y="0px" width="235.4px" height="229.5px" viewBox="0 0 235.4 229.5" style="enable-background:new 0 0 235.4 229.5;"
	 xml:space="preserve">
<style type="text/css">
	.st0{fill:#33CCCC;}
	.st1{fill:#3F3F3F;}
	.st2{fill:none;stroke:#FFFFFF;stroke-width:1.4;stroke-miterlimit:10;}
	.st3{fill:none;stroke:#FFFFFF;stroke-width:1.7;stroke-miterlimit:10;}
</style>
<defs>
</defs>
<rect x="0" class="st0" width="235.4" height="229.5"/>
<g>
	<g>
		<path class="st1" d="M45.4,132.4c0,1.5-0.5,2.6-1.4,3.4s-2.2,1.2-3.9,1.2h-1.5v5.6H37v-14.3h3.5C43.8,128.2,45.4,129.6,45.4,132.4
			z M38.7,135.4H40c1.3,0,2.2-0.2,2.8-0.7c0.6-0.5,0.9-1.2,0.9-2.2c0-0.9-0.3-1.6-0.8-2.1c-0.5-0.5-1.4-0.7-2.5-0.7h-1.7V135.4z"/>
		<path class="st1" d="M49.5,142.5h-1.6v-15.2h1.6V142.5z"/>
		<path class="st1" d="M54.2,131.8v6.9c0,0.9,0.2,1.5,0.5,1.9s0.9,0.6,1.7,0.6c1,0,1.7-0.3,2.2-0.9c0.5-0.6,0.7-1.6,0.7-3v-5.6h1.6
			v10.7h-1.3l-0.2-1.4h-0.1c-0.3,0.5-0.7,0.9-1.2,1.2s-1.2,0.4-1.9,0.4c-1.2,0-2.1-0.3-2.7-0.9c-0.6-0.6-0.9-1.6-0.9-3v-7H54.2z"/>
		<path class="st1" d="M70.4,139.6c0,1-0.3,1.8-1,2.3c-0.7,0.6-1.7,0.8-2.9,0.8c-1.3,0-2.3-0.2-3.1-0.7v-1.6
			c1.1,0.6,2.1,0.9,3.1,0.9c0.8,0,1.4-0.1,1.8-0.4c0.4-0.3,0.6-0.7,0.6-1.2c0-0.4-0.2-0.8-0.5-1.1c-0.4-0.3-1-0.6-1.9-1
			c-0.9-0.4-1.6-0.7-2-1s-0.7-0.6-0.8-0.9s-0.3-0.8-0.3-1.3c0-0.9,0.3-1.6,1-2.1c0.7-0.5,1.6-0.8,2.7-0.8c1.1,0,2.2,0.2,3.1,0.7
			l-0.5,1.4c-1-0.5-1.9-0.7-2.7-0.7c-0.7,0-1.2,0.1-1.5,0.3c-0.3,0.2-0.5,0.5-0.5,1c0,0.4,0.1,0.7,0.4,1c0.3,0.3,1,0.6,2.1,1.1
			c0.8,0.3,1.4,0.6,1.8,0.9c0.4,0.3,0.7,0.6,0.9,1C70.3,138.6,70.4,139.1,70.4,139.6z"/>
		<path class="st1" d="M81.1,142.7c-1.3,0-2.3-0.5-3-1.4c-0.7-1-1.1-2.3-1.1-4.1c0-1.8,0.4-3.1,1.1-4.1c0.7-1,1.7-1.5,3-1.5
			c1.3,0,2.3,0.5,3.1,1.6h0.1c0-0.1,0-0.4-0.1-0.8c0-0.4,0-0.7,0-0.8v-4.3h1.6v15.2h-1.3l-0.2-1.4h-0.1
			C83.5,142.2,82.5,142.7,81.1,142.7z M81.4,141.3c1,0,1.7-0.3,2.1-0.9c0.5-0.6,0.7-1.5,0.7-2.9v-0.3c0-1.5-0.2-2.6-0.7-3.2
			s-1.2-1-2.2-1c-0.8,0-1.5,0.4-1.9,1.1c-0.5,0.7-0.7,1.7-0.7,3.1c0,1.3,0.2,2.3,0.7,3C79.9,140.9,80.5,141.3,81.4,141.3z"/>
		<path class="st1" d="M95,142.5l-0.3-1.5h-0.1c-0.5,0.7-1,1.1-1.5,1.4s-1.1,0.4-1.8,0.4c-1,0-1.7-0.3-2.3-0.8s-0.8-1.3-0.8-2.3
			c0-2.2,1.6-3.3,4.7-3.4l1.7-0.1v-0.6c0-0.8-0.2-1.4-0.5-1.8c-0.3-0.4-0.8-0.6-1.6-0.6c-0.5,0-1,0.1-1.5,0.3
			c-0.5,0.2-0.9,0.4-1.3,0.6l-0.5-1.3c0.5-0.3,1-0.5,1.6-0.7s1.2-0.2,1.7-0.2c1.2,0,2.1,0.3,2.7,0.9c0.6,0.6,0.9,1.5,0.9,2.7v7.3H95
			z M91.7,141.3c0.9,0,1.6-0.3,2.1-0.8s0.8-1.3,0.8-2.3v-1l-1.5,0.1c-1.1,0-2,0.2-2.5,0.6s-0.8,0.9-0.8,1.6c0,0.6,0.2,1,0.5,1.3
			S91.1,141.3,91.7,141.3z"/>
		<path class="st1" d="M99.1,128.9c0-0.4,0.1-0.7,0.3-0.8c0.2-0.2,0.4-0.3,0.7-0.3c0.3,0,0.5,0.1,0.7,0.3c0.2,0.2,0.3,0.5,0.3,0.8
			c0,0.4-0.1,0.7-0.3,0.8s-0.4,0.3-0.7,0.3c-0.3,0-0.5-0.1-0.7-0.3C99.2,129.6,99.1,129.3,99.1,128.9z M100.8,142.5h-1.6v-10.7h1.6
			V142.5z"/>
		<path class="st1" d="M105.6,142.5H104v-15.2h1.6V142.5z"/>
		<path class="st1" d="M107.2,131.8h1.7l2.1,6.1c0.4,1.3,0.7,2.3,0.8,2.9h0.1c0.1-0.2,0.2-0.7,0.4-1.4c0.2-0.7,0.4-1.2,0.5-1.6
			l2-6.1h1.7l-4.2,12.2c-0.4,1.2-0.9,2-1.5,2.5c-0.6,0.5-1.3,0.8-2.1,0.8c-0.4,0-0.9-0.1-1.3-0.2v-1.4c0.3,0.1,0.7,0.1,1.1,0.1
			c0.5,0,1-0.2,1.3-0.5s0.7-0.8,0.9-1.4l0.5-1.4L107.2,131.8z"/>
		<path class="st1" d="M126.3,142.7c-1.3,0-2.3-0.5-3-1.4c-0.7-1-1.1-2.3-1.1-4.1c0-1.8,0.4-3.1,1.1-4.1c0.7-1,1.7-1.5,3-1.5
			c1.3,0,2.3,0.5,3.1,1.6h0.1c0-0.1,0-0.4-0.1-0.8c0-0.4,0-0.7,0-0.8v-4.3h1.6v15.2h-1.3l-0.2-1.4h-0.1
			C128.7,142.2,127.7,142.7,126.3,142.7z M126.6,141.3c1,0,1.7-0.3,2.1-0.9c0.5-0.6,0.7-1.5,0.7-2.9v-0.3c0-1.5-0.2-2.6-0.7-3.2
			s-1.2-1-2.2-1c-0.8,0-1.5,0.4-1.9,1.1c-0.5,0.7-0.7,1.7-0.7,3.1c0,1.3,0.2,2.3,0.7,3C125.1,140.9,125.8,141.3,126.6,141.3z"/>
		<path class="st1" d="M138.4,142.7c-1.5,0-2.6-0.5-3.5-1.5c-0.8-1-1.3-2.3-1.3-4c0-1.7,0.4-3.1,1.2-4.1c0.8-1,1.8-1.5,3.2-1.5
			c1.2,0,2.2,0.4,3,1.3c0.7,0.9,1.1,2,1.1,3.5v1.1h-6.8c0,1.2,0.3,2.1,0.9,2.8s1.3,0.9,2.3,0.9c0.5,0,1-0.1,1.5-0.2
			c0.5-0.1,1-0.3,1.7-0.6v1.5c-0.5,0.3-1.1,0.4-1.5,0.5C139.6,142.7,139,142.7,138.4,142.7z M137.9,133c-0.8,0-1.4,0.3-1.8,0.8
			s-0.7,1.3-0.8,2.3h5c0-1-0.2-1.8-0.6-2.3C139.3,133.3,138.7,133,137.9,133z"/>
		<path class="st1" d="M150.6,142.5l-0.3-1.5h-0.1c-0.5,0.7-1,1.1-1.5,1.4c-0.5,0.2-1.1,0.4-1.8,0.4c-1,0-1.7-0.3-2.3-0.8
			c-0.6-0.6-0.8-1.3-0.8-2.3c0-2.2,1.6-3.3,4.7-3.4l1.7-0.1v-0.6c0-0.8-0.2-1.4-0.5-1.8s-0.8-0.6-1.6-0.6c-0.5,0-1,0.1-1.5,0.3
			c-0.5,0.2-0.9,0.4-1.3,0.6l-0.5-1.3c0.5-0.3,1-0.5,1.6-0.7c0.6-0.2,1.2-0.2,1.7-0.2c1.2,0,2.1,0.3,2.7,0.9
			c0.6,0.6,0.9,1.5,0.9,2.7v7.3H150.6z M147.3,141.3c0.9,0,1.6-0.3,2.1-0.8c0.5-0.5,0.8-1.3,0.8-2.3v-1l-1.5,0.1
			c-1.1,0-2,0.2-2.5,0.6c-0.5,0.3-0.8,0.9-0.8,1.6c0,0.6,0.2,1,0.5,1.3S146.7,141.3,147.3,141.3z"/>
		<path class="st1" d="M156.5,142.5h-1.6v-15.2h1.6V142.5z"/>
		<path class="st1" d="M166,139.6c0,1-0.3,1.8-1,2.3c-0.7,0.6-1.7,0.8-2.9,0.8c-1.3,0-2.3-0.2-3.1-0.7v-1.6c1.1,0.6,2.1,0.9,3.1,0.9
			c0.8,0,1.4-0.1,1.8-0.4c0.4-0.3,0.6-0.7,0.6-1.2c0-0.4-0.2-0.8-0.5-1.1c-0.4-0.3-1-0.6-1.9-1c-0.9-0.4-1.6-0.7-2-1
			s-0.7-0.6-0.8-0.9s-0.3-0.8-0.3-1.3c0-0.9,0.3-1.6,1-2.1c0.7-0.5,1.6-0.8,2.7-0.8c1.1,0,2.2,0.2,3.1,0.7l-0.5,1.4
			c-1-0.5-1.9-0.7-2.7-0.7c-0.7,0-1.2,0.1-1.5,0.3c-0.3,0.2-0.5,0.5-0.5,1c0,0.4,0.1,0.7,0.4,1c0.3,0.3,1,0.6,2.1,1.1
			c0.8,0.3,1.4,0.6,1.8,0.9c0.4,0.3,0.7,0.6,0.9,1C165.9,138.6,166,139.1,166,139.6z"/>
		<path class="st1" d="M179.2,142.5l-0.3-1.5h-0.1c-0.5,0.7-1,1.1-1.5,1.4s-1.1,0.4-1.8,0.4c-1,0-1.7-0.3-2.3-0.8s-0.8-1.3-0.8-2.3
			c0-2.2,1.6-3.3,4.7-3.4l1.7-0.1v-0.6c0-0.8-0.2-1.4-0.5-1.8c-0.3-0.4-0.8-0.6-1.6-0.6c-0.5,0-1,0.1-1.5,0.3
			c-0.5,0.2-0.9,0.4-1.3,0.6l-0.5-1.3c0.5-0.3,1-0.5,1.6-0.7s1.2-0.2,1.7-0.2c1.2,0,2.1,0.3,2.7,0.9c0.6,0.6,0.9,1.5,0.9,2.7v7.3
			H179.2z M175.9,141.3c0.9,0,1.6-0.3,2.1-0.8s0.8-1.3,0.8-2.3v-1l-1.5,0.1c-1.1,0-2,0.2-2.5,0.6s-0.8,0.9-0.8,1.6
			c0,0.6,0.2,1,0.5,1.3S175.3,141.3,175.9,141.3z"/>
		<path class="st1" d="M190.2,142.5v-6.9c0-0.9-0.2-1.5-0.5-1.9s-0.9-0.6-1.7-0.6c-1,0-1.7,0.3-2.2,0.9c-0.5,0.6-0.7,1.6-0.7,3v5.6
			h-1.6v-10.7h1.3l0.2,1.5h0.1c0.3-0.5,0.7-0.9,1.3-1.2s1.2-0.4,1.8-0.4c1.2,0,2.1,0.3,2.7,1s0.9,1.6,0.9,3v7H190.2z"/>
		<path class="st1" d="M198.3,142.7c-1.3,0-2.3-0.5-3-1.4s-1.1-2.3-1.1-4.1c0-1.8,0.4-3.1,1.1-4.1c0.7-1,1.7-1.5,3-1.5
			c1.3,0,2.3,0.5,3.1,1.6h0.1c0-0.1,0-0.4-0.1-0.8s0-0.7,0-0.8v-4.3h1.6v15.2h-1.3l-0.2-1.4h-0.1
			C200.7,142.2,199.7,142.7,198.3,142.7z M198.6,141.3c1,0,1.7-0.3,2.1-0.9s0.7-1.5,0.7-2.9v-0.3c0-1.5-0.2-2.6-0.7-3.2
			s-1.2-1-2.2-1c-0.8,0-1.5,0.4-1.9,1.1s-0.7,1.7-0.7,3.1c0,1.3,0.2,2.3,0.7,3C197.1,140.9,197.7,141.3,198.6,141.3z"/>
		<path class="st1" d="M35.8,165.1c-1.5,0-2.6-0.5-3.5-1.5s-1.3-2.3-1.3-4c0-1.7,0.4-3.1,1.2-4.1s1.8-1.5,3.2-1.5
			c1.2,0,2.2,0.4,3,1.3s1.1,2,1.1,3.5v1.1h-6.8c0,1.2,0.3,2.1,0.9,2.8s1.3,0.9,2.3,0.9c0.5,0,1-0.1,1.5-0.2s1-0.3,1.7-0.6v1.5
			c-0.5,0.3-1.1,0.4-1.5,0.5S36.5,165.1,35.8,165.1z M35.4,155.4c-0.8,0-1.4,0.3-1.8,0.8c-0.4,0.5-0.7,1.3-0.8,2.3h5
			c0-1-0.2-1.8-0.6-2.3S36.2,155.4,35.4,155.4z"/>
		<path class="st1" d="M44.2,159.4l-3.4-5.2h1.8l2.5,4l2.5-4h1.8l-3.4,5.2l3.6,5.5h-1.8l-2.7-4.3l-2.7,4.3h-1.8L44.2,159.4z"/>
		<path class="st1" d="M55.3,165.1c-1.4,0-2.5-0.5-3.3-1.4c-0.8-0.9-1.2-2.3-1.2-4.1c0-1.8,0.4-3.2,1.2-4.2c0.8-1,1.9-1.5,3.4-1.5
			c0.5,0,1,0.1,1.4,0.2s0.9,0.2,1.2,0.4l-0.5,1.5c-0.8-0.3-1.5-0.5-2.1-0.5c-1,0-1.7,0.3-2.2,1s-0.7,1.7-0.7,3c0,1.3,0.2,2.3,0.7,3
			s1.2,1,2.1,1c0.9,0,1.7-0.2,2.6-0.6v1.6C57.2,164.9,56.3,165.1,55.3,165.1z"/>
		<path class="st1" d="M61.8,164.9h-1.6v-15.2h1.6V164.9z"/>
		<path class="st1" d="M66.5,154.2v6.9c0,0.9,0.2,1.5,0.5,1.9s0.9,0.6,1.7,0.6c1,0,1.7-0.3,2.2-0.9c0.5-0.6,0.7-1.6,0.7-3v-5.6h1.6
			v10.7h-1.3l-0.2-1.4h-0.1c-0.3,0.5-0.7,0.9-1.2,1.2s-1.2,0.4-1.9,0.4c-1.2,0-2.1-0.3-2.7-0.9c-0.6-0.6-0.9-1.6-0.9-3v-7H66.5z"/>
		<path class="st1" d="M82.7,162c0,1-0.3,1.8-1,2.3c-0.7,0.6-1.7,0.8-2.9,0.8c-1.3,0-2.3-0.2-3.1-0.7v-1.6c1.1,0.6,2.1,0.9,3.1,0.9
			c0.8,0,1.4-0.1,1.8-0.4c0.4-0.3,0.6-0.7,0.6-1.2c0-0.4-0.2-0.8-0.5-1.1c-0.4-0.3-1-0.6-1.9-1c-0.9-0.4-1.6-0.7-2-1
			s-0.7-0.6-0.8-0.9s-0.3-0.8-0.3-1.3c0-0.9,0.3-1.6,1-2.1c0.7-0.5,1.6-0.8,2.7-0.8c1.1,0,2.2,0.2,3.1,0.7l-0.5,1.4
			c-1-0.5-1.9-0.7-2.7-0.7c-0.7,0-1.2,0.1-1.5,0.3c-0.3,0.2-0.5,0.5-0.5,1c0,0.4,0.1,0.7,0.4,1c0.3,0.3,1,0.6,2.1,1.1
			c0.8,0.3,1.4,0.6,1.8,0.9c0.4,0.3,0.7,0.6,0.9,1C82.6,161,82.7,161.5,82.7,162z"/>
		<path class="st1" d="M85,151.3c0-0.4,0.1-0.7,0.3-0.8s0.4-0.3,0.7-0.3c0.3,0,0.5,0.1,0.7,0.3s0.3,0.5,0.3,0.8
			c0,0.4-0.1,0.7-0.3,0.8s-0.4,0.3-0.7,0.3c-0.3,0-0.5-0.1-0.7-0.3S85,151.7,85,151.3z M86.7,164.9h-1.6v-10.7h1.6V164.9z"/>
		<path class="st1" d="M92,164.9l-3.7-10.7H90l2.1,6.3c0.4,1.3,0.7,2.2,0.8,2.8H93c0-0.1,0-0.2,0.1-0.3c0-0.1,0.1-0.2,0.1-0.4
			s0.3-0.9,0.7-2.2l2.1-6.3h1.7l-3.7,10.7H92z"/>
		<path class="st1" d="M103.4,165.1c-1.5,0-2.6-0.5-3.5-1.5s-1.3-2.3-1.3-4c0-1.7,0.4-3.1,1.2-4.1s1.8-1.5,3.2-1.5
			c1.2,0,2.2,0.4,3,1.3s1.1,2,1.1,3.5v1.1h-6.8c0,1.2,0.3,2.1,0.9,2.8s1.3,0.9,2.3,0.9c0.5,0,1-0.1,1.5-0.2s1-0.3,1.7-0.6v1.5
			c-0.5,0.3-1.1,0.4-1.5,0.5S104,165.1,103.4,165.1z M103,155.4c-0.8,0-1.4,0.3-1.8,0.8c-0.4,0.5-0.7,1.3-0.8,2.3h5
			c0-1-0.2-1.8-0.6-2.3S103.7,155.4,103,155.4z"/>
		<path class="st1" d="M122.9,159.5c0,1.8-0.4,3.1-1.2,4.1c-0.8,1-1.9,1.5-3.4,1.5c-0.9,0-1.7-0.2-2.4-0.7c-0.7-0.5-1.2-1.1-1.6-1.9
			s-0.6-1.8-0.6-2.9c0-1.7,0.4-3.1,1.2-4.1c0.8-1,1.9-1.5,3.4-1.5c1.4,0,2.5,0.5,3.3,1.5C122.5,156.5,122.9,157.8,122.9,159.5z
			 M115.5,159.5c0,1.3,0.2,2.4,0.7,3.1c0.5,0.7,1.2,1,2.2,1c0.9,0,1.7-0.4,2.1-1c0.5-0.7,0.7-1.7,0.7-3.1s-0.2-2.4-0.7-3
			c-0.5-0.7-1.2-1-2.2-1C116.4,155.5,115.5,156.8,115.5,159.5z"/>
		<path class="st1" d="M130,155.6h-2.5v9.4h-1.6v-9.4h-1.7v-0.8l1.7-0.6v-0.6c0-1.3,0.3-2.3,0.8-2.9s1.3-1,2.4-1
			c0.6,0,1.3,0.1,1.9,0.4l-0.4,1.4c-0.6-0.2-1-0.3-1.5-0.3c-0.5,0-0.9,0.2-1.2,0.6c-0.3,0.4-0.4,1-0.4,1.9v0.7h2.5V155.6z"/>
		<path class="st1" d="M136.3,155.6h-2.5v9.4h-1.6v-9.4h-1.7v-0.8l1.7-0.6v-0.6c0-1.3,0.3-2.3,0.8-2.9s1.3-1,2.4-1
			c0.6,0,1.3,0.1,1.9,0.4l-0.4,1.4c-0.6-0.2-1-0.3-1.5-0.3c-0.5,0-0.9,0.2-1.2,0.6c-0.3,0.4-0.4,1-0.4,1.9v0.7h2.5V155.6z"/>
		<path class="st1" d="M142.3,165.1c-1.5,0-2.6-0.5-3.5-1.5s-1.3-2.3-1.3-4c0-1.7,0.4-3.1,1.2-4.1s1.8-1.5,3.2-1.5
			c1.2,0,2.2,0.4,3,1.3s1.1,2,1.1,3.5v1.1h-6.8c0,1.2,0.3,2.1,0.9,2.8s1.3,0.9,2.3,0.9c0.5,0,1-0.1,1.5-0.2s1-0.3,1.7-0.6v1.5
			c-0.5,0.3-1.1,0.4-1.5,0.5S143,165.1,142.3,165.1z M141.9,155.4c-0.8,0-1.4,0.3-1.8,0.8c-0.4,0.5-0.7,1.3-0.8,2.3h5
			c0-1-0.2-1.8-0.6-2.3S142.7,155.4,141.9,155.4z"/>
		<path class="st1" d="M153.1,154c0.4,0,0.8,0,1.2,0.1l-0.2,1.6c-0.4-0.1-0.7-0.1-1.1-0.1c-0.5,0-1,0.2-1.4,0.5s-0.8,0.7-1,1.3
			c-0.3,0.6-0.4,1.2-0.4,1.8v5.7h-1.6v-10.7h1.3l0.2,2h0.1c0.4-0.7,0.8-1.2,1.3-1.6S152.5,154,153.1,154z"/>
		<path class="st1" d="M162.5,162c0,1-0.3,1.8-1,2.3c-0.7,0.6-1.7,0.8-2.9,0.8c-1.3,0-2.3-0.2-3.1-0.7v-1.6c1.1,0.6,2.1,0.9,3.1,0.9
			c0.8,0,1.4-0.1,1.8-0.4c0.4-0.3,0.6-0.7,0.6-1.2c0-0.4-0.2-0.8-0.5-1.1c-0.4-0.3-1-0.6-1.9-1c-0.9-0.4-1.6-0.7-2-1
			s-0.7-0.6-0.8-0.9s-0.3-0.8-0.3-1.3c0-0.9,0.3-1.6,1-2.1c0.7-0.5,1.6-0.8,2.7-0.8c1.1,0,2.2,0.2,3.1,0.7l-0.5,1.4
			c-1-0.5-1.9-0.7-2.7-0.7c-0.7,0-1.2,0.1-1.5,0.3c-0.3,0.2-0.5,0.5-0.5,1c0,0.4,0.1,0.7,0.4,1c0.3,0.3,1,0.6,2.1,1.1
			c0.8,0.3,1.4,0.6,1.8,0.9c0.4,0.3,0.7,0.6,0.9,1C162.4,161,162.5,161.5,162.5,162z"/>
		<path class="st1" d="M174.2,154c0.4,0,0.8,0,1.2,0.1l-0.2,1.6c-0.4-0.1-0.7-0.1-1.1-0.1c-0.5,0-1,0.2-1.4,0.5s-0.8,0.7-1,1.3
			c-0.3,0.6-0.4,1.2-0.4,1.8v5.7h-1.6v-10.7h1.3l0.2,2h0.1c0.4-0.7,0.8-1.2,1.3-1.6S173.6,154,174.2,154z"/>
		<path class="st1" d="M177.1,151.3c0-0.4,0.1-0.7,0.3-0.8c0.2-0.2,0.4-0.3,0.7-0.3c0.3,0,0.5,0.1,0.7,0.3s0.3,0.5,0.3,0.8
			c0,0.4-0.1,0.7-0.3,0.8s-0.4,0.3-0.7,0.3c-0.3,0-0.5-0.1-0.7-0.3C177.2,152,177.1,151.7,177.1,151.3z M178.9,164.9h-1.6v-10.7h1.6
			V164.9z"/>
		<path class="st1" d="M188.6,164.8l0.1-1.3h-0.1c-0.7,1.1-1.7,1.6-3.1,1.6c-1.3,0-2.3-0.5-3-1.5s-1.1-2.3-1.1-4.1
			c0-1.7,0.4-3.1,1.1-4.1c0.7-1,1.7-1.5,3-1.5c1.3,0,2.4,0.5,3.1,1.6h0.1l0.2-1.4h1.3v10.9c0,1.5-0.4,2.7-1.1,3.5
			c-0.7,0.8-1.8,1.2-3.3,1.2c-1.4,0-2.6-0.2-3.5-0.7v-1.6c1,0.6,2.2,0.8,3.6,0.8c0.8,0,1.5-0.3,2-0.8c0.5-0.5,0.7-1.3,0.7-2.2V164.8
			z M185.7,163.7c1,0,1.7-0.3,2.2-0.9c0.5-0.6,0.7-1.5,0.7-2.8v-0.4c0-1.4-0.2-2.5-0.7-3.1s-1.2-1-2.2-1c-0.8,0-1.5,0.4-1.9,1.1
			c-0.5,0.7-0.7,1.7-0.7,3.1c0,1.3,0.2,2.3,0.7,3C184.2,163.3,184.9,163.7,185.7,163.7z"/>
		<path class="st1" d="M200,164.9v-6.9c0-0.9-0.2-1.5-0.5-1.9c-0.4-0.4-0.9-0.6-1.7-0.6c-1,0-1.7,0.3-2.2,0.9
			c-0.5,0.6-0.7,1.6-0.7,3v5.5h-1.6v-15.2h1.6v4.5c0,0.6,0,1.1-0.1,1.5h0.1c0.3-0.5,0.7-0.9,1.2-1.2s1.1-0.4,1.8-0.4
			c1.2,0,2.1,0.3,2.7,0.9c0.6,0.6,0.9,1.6,0.9,3v7H200z"/>
		<path class="st1" d="M208,163.7c0.2,0,0.5,0,0.7-0.1s0.5-0.1,0.6-0.2v1.3c-0.1,0.1-0.4,0.1-0.7,0.2s-0.6,0.1-1,0.1
			c-1.9,0-2.9-1.1-2.9-3.3v-6.2h-1.4v-0.8l1.4-0.7l0.6-2.3h1v2.5h2.8v1.4h-2.8v6.2c0,0.6,0.1,1.1,0.4,1.4S207.5,163.7,208,163.7z"/>
		<path class="st1" d="M106.5,187.3h-1.7v-6.7h-6.7v6.7h-1.7V173h1.7v6h6.7v-6h1.7V187.3z"/>
		<path class="st1" d="M117.4,187.3h-7.3V173h7.3v1.6h-5.7v4.5h5.3v1.6h-5.3v5.1h5.7V187.3z"/>
		<path class="st1" d="M122,181.4v5.9h-1.7V173h3.6c1.6,0,2.8,0.3,3.6,1c0.8,0.7,1.2,1.7,1.2,3c0,1.9-0.9,3.2-2.6,3.8l3.6,6.4h-1.9
			l-3.2-5.9H122z M122,179.9h2c1.1,0,1.8-0.2,2.3-0.7c0.5-0.5,0.7-1.1,0.7-2s-0.2-1.6-0.7-2c-0.5-0.4-1.3-0.6-2.4-0.6H122V179.9z"/>
		<path class="st1" d="M139.1,187.3h-7.3V173h7.3v1.6h-5.7v4.5h5.3v1.6h-5.3v5.1h5.7V187.3z"/>
		<path class="st1" d="M141.5,186.2c0-0.4,0.1-0.8,0.3-1c0.2-0.2,0.5-0.3,0.8-0.3c0.4,0,0.7,0.1,0.8,0.4c0.2,0.2,0.3,0.6,0.3,1
			s-0.1,0.7-0.3,1s-0.5,0.4-0.8,0.4c-0.4,0-0.6-0.1-0.8-0.4C141.6,187,141.5,186.7,141.5,186.2z M143.2,183.3h-1.1l-0.5-10.3h2
			L143.2,183.3z"/>
	</g>
</g>
<path class="st2" d="M103.3,97.5l-21-21l36.3-36.3l14.4,1.3c2.8,0.3,5,2.5,5.2,5.2l1.3,14.4L103.3,97.5z"/>
<circle class="st3" cx="125.3" cy="54.6" r="5.4"/>
</svg>