<?xml version="1.0" encoding="utf-8"?>
<!-- Generator: Adobe Illustrator 19.0.0, SVG Export Plug-In . SVG Version: 6.00 Build 0)  -->
<svg version="1.1" id="Layer_1" xmlns="http://www.w3.org/2000/svg" xmlns:xlink="http://www.w3.org/1999/xlink" x="0px" y="0px"
	 viewBox="-5 176.5 600 441.5" style="enable-background:new -5 176.5 600 441.5;" xml:space="preserve">
<style type="text/css">
	.st0{fill:#49C2C6;}
	.st1{fill:#FFFFFF;}
	.st2{fill:none;stroke:#49C2C6;stroke-width:2;stroke-miterlimit:10;}
	.st3{fill:#FFFFFF;stroke:#FFFFFF;stroke-width:0.5;stroke-miterlimit:10;}
	.st4{fill:none;stroke:#FFFFFF;stroke-width:0.75;stroke-linecap:round;stroke-linejoin:round;stroke-miterlimit:10;}
	.st5{fill:#F2673A;}
	.st6{fill:#49C2C6;stroke:#FFFFFF;stroke-width:0.75;stroke-miterlimit:10;}
	.st7{fill:none;stroke:#FFFFFF;stroke-linecap:round;stroke-linejoin:round;stroke-miterlimit:10;}
	.st8{fill:none;stroke:#FFFFFF;stroke-width:0.75;stroke-miterlimit:10;}
	.st9{fill:#E3E3E3;stroke:#E3E3E3;stroke-width:0.75;stroke-miterlimit:10;}
</style>
<g id="XMLID_193_">
	<path id="XMLID_198_" class="st0" d="M249,406.4h-2.6l-1.5-6.2c-0.1-0.2-0.1-0.7-0.3-1.4c-0.2-0.7-0.2-1.1-0.2-1.4
		c0,0.3-0.1,0.8-0.2,1.4c-0.1,0.6-0.2,1.1-0.3,1.4l-1.5,6.1h-2.6l-2.7-11.7h2.2l1.4,6.4c0.2,1.2,0.4,2.2,0.5,3.1
		c0-0.3,0.1-0.8,0.2-1.4c0.1-0.6,0.2-1.1,0.3-1.5l1.6-6.6h2.2l1.6,6.6c0.1,0.3,0.2,0.7,0.3,1.3c0.1,0.6,0.2,1.1,0.2,1.6
		c0-0.4,0.1-0.9,0.2-1.6c0.1-0.6,0.2-1.1,0.3-1.5l1.4-6.4h2.2L249,406.4z"/>
	<path id="XMLID_199_" class="st0" d="M260.5,406.4h-2.2v-5.2c0-1.3-0.4-1.9-1.3-1.9c-0.6,0-1.1,0.2-1.4,0.7s-0.4,1.2-0.4,2.3v4.2
		H253V394h2.2v2.5c0,0.2,0,0.7-0.1,1.4l-0.1,0.7h0.1c0.5-0.9,1.3-1.3,2.4-1.3c1,0,1.7,0.3,2.2,0.8c0.5,0.6,0.8,1.4,0.8,2.4V406.4z"
		/>
	<path id="XMLID_201_" class="st0" d="M268,406.4l-0.4-1.2h-0.1c-0.4,0.5-0.8,0.9-1.2,1.1s-0.9,0.3-1.6,0.3c-0.8,0-1.4-0.2-1.9-0.7
		s-0.7-1.2-0.7-2.1c0-1,0.3-1.7,0.9-2.1c0.6-0.5,1.5-0.7,2.8-0.7h1.4v-0.4c0-0.9-0.4-1.4-1.3-1.4c-0.7,0-1.4,0.2-2.3,0.6l-0.7-1.7
		c0.9-0.5,2-0.8,3.2-0.8c1.1,0,2,0.3,2.5,0.8c0.6,0.5,0.9,1.3,0.9,2.4v6H268V406.4z M267.4,402.2h-0.9c-0.7,0-1.1,0.1-1.5,0.4
		c-0.3,0.2-0.5,0.6-0.5,1.1c0,0.7,0.4,1,1.1,1c0.5,0,0.9-0.2,1.2-0.5c0.3-0.3,0.5-0.8,0.5-1.3L267.4,402.2L267.4,402.2z"/>
	<path id="XMLID_205_" class="st0" d="M275.4,404.6c0.4,0,0.9-0.1,1.4-0.3v1.8c-0.6,0.3-1.2,0.4-2.1,0.4s-1.6-0.2-2-0.7
		s-0.6-1.2-0.6-2.2v-4.3H271v-1l1.2-0.8l0.6-1.9h1.4v1.9h2.3v1.8h-2.3v4.3c0,0.3,0.1,0.6,0.3,0.8
		C274.9,404.5,275.1,404.6,275.4,404.6z"/>
	<path id="XMLID_208_" class="st0" d="M282.3,395.1c0-0.8,0.4-1.2,1.2-1.2c0.8,0,1.2,0.4,1.2,1.2c0,0.4-0.1,0.7-0.3,0.9
		c-0.2,0.2-0.5,0.3-0.9,0.3C282.7,396.3,282.3,395.9,282.3,395.1z M284.6,406.4h-2.2v-9h2.2V406.4z"/>
	<path id="XMLID_211_" class="st0" d="M292.7,403.7c0,0.9-0.3,1.6-0.9,2.1s-1.5,0.7-2.6,0.7c-0.6,0-1.1,0-1.5-0.1s-0.8-0.2-1.2-0.4
		v-2c0.4,0.2,0.9,0.4,1.4,0.5s1,0.2,1.4,0.2c0.8,0,1.2-0.3,1.2-0.8c0-0.2-0.1-0.3-0.2-0.5c-0.1-0.1-0.3-0.3-0.6-0.4
		c-0.3-0.2-0.6-0.3-1.1-0.5c-0.6-0.3-1.1-0.6-1.4-0.8c-0.3-0.2-0.5-0.5-0.6-0.8s-0.2-0.7-0.2-1.2c0-0.8,0.3-1.4,0.9-1.8
		s1.4-0.7,2.4-0.7s2,0.2,2.9,0.7l-0.7,1.8c-0.4-0.2-0.8-0.3-1.2-0.5c-0.4-0.1-0.7-0.2-1.1-0.2c-0.7,0-1,0.2-1,0.6
		c0,0.2,0.1,0.4,0.3,0.6c0.2,0.2,0.7,0.4,1.4,0.7c0.6,0.3,1.1,0.5,1.4,0.8c0.3,0.2,0.5,0.5,0.7,0.8
		C292.7,402.9,292.7,403.3,292.7,403.7z"/>
	<path id="XMLID_213_" class="st0" d="M298.3,395.1c0-0.8,0.4-1.2,1.2-1.2c0.8,0,1.2,0.4,1.2,1.2c0,0.4-0.1,0.7-0.3,0.9
		c-0.2,0.2-0.5,0.3-0.9,0.3C298.7,396.3,298.3,395.9,298.3,395.1z M300.6,406.4h-2.2v-9h2.2V406.4z"/>
	<path id="XMLID_216_" class="st0" d="M307.5,406.5c-1,0-1.7-0.4-2.3-1.1h-0.1c0.1,0.7,0.1,1.2,0.1,1.3v3.6H303v-12.9h1.8l0.3,1.2
		h0.1c0.5-0.9,1.3-1.3,2.3-1.3s1.7,0.4,2.3,1.2c0.5,0.8,0.8,2,0.8,3.4c0,1-0.1,1.8-0.4,2.5s-0.6,1.2-1.1,1.6
		C308.7,406.4,308.2,406.5,307.5,406.5z M306.9,399.2c-0.6,0-1,0.2-1.2,0.6c-0.3,0.4-0.4,1-0.4,1.8v0.3c0,1,0.1,1.7,0.4,2.1
		c0.3,0.4,0.7,0.6,1.2,0.6c1,0,1.5-0.9,1.5-2.7c0-0.9-0.1-1.5-0.4-2C307.8,399.4,307.4,399.2,306.9,399.2z"/>
	<path id="XMLID_219_" class="st0" d="M317.1,397.3c0.3,0,0.6,0,0.8,0.1l-0.2,2.3c-0.2-0.1-0.4-0.1-0.7-0.1c-0.7,0-1.3,0.2-1.7,0.6
		c-0.4,0.4-0.6,1-0.6,1.7v4.6h-2.2v-9h1.7l0.3,1.5h0.1c0.3-0.5,0.6-0.9,1-1.2C316.2,397.4,316.6,397.3,317.1,397.3z"/>
	<path id="XMLID_221_" class="st0" d="M319.3,395.1c0-0.8,0.4-1.2,1.2-1.2c0.8,0,1.2,0.4,1.2,1.2c0,0.4-0.1,0.7-0.3,0.9
		c-0.2,0.2-0.5,0.3-0.9,0.3C319.7,396.3,319.3,395.9,319.3,395.1z M321.6,406.4h-2.2v-9h2.2V406.4z"/>
	<path id="XMLID_224_" class="st0" d="M327.3,406.5c-2.6,0-3.8-1.5-3.8-4.6c0-1.5,0.3-2.7,1-3.5s1.7-1.2,3-1.2c1,0,1.8,0.2,2.6,0.6
		l-0.7,1.9c-0.4-0.2-0.7-0.3-1-0.4c-0.3-0.1-0.6-0.1-0.9-0.1c-1.2,0-1.8,0.9-1.8,2.7s0.6,2.6,1.8,2.6c0.4,0,0.8-0.1,1.2-0.2
		c0.4-0.1,0.7-0.3,1.1-0.6v2.1c-0.4,0.3-0.7,0.4-1.1,0.5C328.4,406.5,327.9,406.5,327.3,406.5z"/>
	<path id="XMLID_226_" class="st0" d="M335.5,406.5c-1.3,0-2.4-0.4-3.1-1.2c-0.7-0.8-1.1-1.9-1.1-3.4s0.3-2.7,1-3.5
		c0.7-0.8,1.6-1.2,2.9-1.2c1.2,0,2.1,0.4,2.7,1.1c0.6,0.7,1,1.7,1,3v1.2h-5.3c0,0.7,0.2,1.2,0.6,1.6c0.4,0.4,0.8,0.6,1.5,0.6
		c0.5,0,1-0.1,1.4-0.2s0.9-0.3,1.4-0.5v1.9c-0.4,0.2-0.8,0.4-1.3,0.5C336.7,406.5,336.1,406.5,335.5,406.5z M335.2,399
		c-0.5,0-0.8,0.2-1.1,0.5c-0.3,0.3-0.4,0.8-0.5,1.4h3.2c0-0.6-0.2-1.1-0.4-1.4S335.6,399,335.2,399z"/>
	<path id="XMLID_229_" class="st0" d="M341.5,402.5v-0.6c0-0.5,0.1-1,0.3-1.3c0.2-0.4,0.6-0.8,1.1-1.2s0.9-0.7,1-1
		c0.2-0.3,0.2-0.5,0.2-0.8c0-0.3-0.1-0.6-0.4-0.8c-0.2-0.2-0.6-0.3-1-0.3c-0.7,0-1.6,0.3-2.5,0.8l-0.8-1.8c1.1-0.7,2.3-1,3.5-1
		c1,0,1.8,0.3,2.4,0.8s0.9,1.2,0.9,2.1c0,0.6-0.1,1.1-0.4,1.5c-0.2,0.4-0.7,0.9-1.4,1.4c-0.5,0.4-0.8,0.7-0.9,0.9s-0.2,0.5-0.2,0.8
		v0.5H341.5L341.5,402.5z M341.3,405.2c0-0.4,0.1-0.8,0.3-1c0.2-0.2,0.5-0.3,1-0.3c0.4,0,0.7,0.1,0.9,0.4c0.2,0.2,0.3,0.6,0.3,1
		s-0.1,0.8-0.3,1c-0.2,0.2-0.5,0.4-0.9,0.4s-0.7-0.1-1-0.4C341.4,406,341.3,405.7,341.3,405.2z"/>
	<path id="XMLID_232_" class="st1" d="M245.1,428l-0.8-2.8h-3.9l-0.8,2.8h-2.5l3.8-11.8h2.8l3.8,11.8H245.1z M243.8,423.2
		c-0.7-2.5-1.1-4-1.2-4.3c-0.1-0.3-0.2-0.6-0.2-0.8c-0.2,0.7-0.6,2.4-1.4,5.1H243.8z"/>
	<path id="XMLID_235_" class="st1" d="M256.3,428h-2.2v-5.2c0-0.6-0.1-1.1-0.3-1.5c-0.2-0.3-0.5-0.5-1-0.5c-0.6,0-1.1,0.2-1.4,0.7
		s-0.4,1.2-0.4,2.3v4.2h-2.2v-9h1.7l0.3,1.1h0.1c0.3-0.4,0.6-0.8,1-1c0.4-0.2,0.9-0.3,1.5-0.3c1,0,1.7,0.3,2.2,0.8
		c0.5,0.6,0.7,1.4,0.7,2.4L256.3,428L256.3,428z"/>
	<path id="XMLID_237_" class="st1" d="M266.3,428.2c-1.3,0-2.4-0.4-3.1-1.2s-1.1-1.9-1.1-3.4s0.3-2.7,1-3.5s1.6-1.2,2.9-1.2
		c1.2,0,2.1,0.4,2.7,1.1s1,1.7,1,3v1.2h-5.3c0,0.7,0.2,1.2,0.6,1.6s0.8,0.6,1.5,0.6c0.5,0,1-0.1,1.4-0.2c0.4-0.1,0.9-0.3,1.4-0.5
		v1.9c-0.4,0.2-0.8,0.4-1.3,0.5C267.5,428.2,266.9,428.2,266.3,428.2z M266,420.7c-0.5,0-0.8,0.2-1.1,0.5c-0.3,0.3-0.4,0.8-0.5,1.4
		h3.2c0-0.6-0.2-1.1-0.4-1.4C266.8,420.8,266.4,420.7,266,420.7z"/>
	<path id="XMLID_240_" class="st1" d="M270.7,424.7v-2h4v2H270.7z"/>
	<path id="XMLID_242_" class="st1" d="M279.7,428.2c-2.6,0-3.8-1.5-3.8-4.6c0-1.5,0.3-2.7,1-3.5c0.7-0.8,1.7-1.2,3-1.2
		c1,0,1.8,0.2,2.6,0.6l-0.7,1.9c-0.4-0.2-0.7-0.3-1-0.4c-0.3-0.1-0.6-0.1-0.9-0.1c-1.2,0-1.8,0.9-1.8,2.7c0,1.8,0.6,2.6,1.8,2.6
		c0.4,0,0.8-0.1,1.2-0.2c0.4-0.1,0.7-0.3,1.1-0.6v2.1c-0.4,0.3-0.7,0.4-1.1,0.5C280.7,428.2,280.2,428.2,279.7,428.2z"/>
	<path id="XMLID_244_" class="st1" d="M291.5,423.6c0,1.5-0.4,2.6-1.1,3.4s-1.7,1.2-3,1.2c-0.8,0-1.5-0.2-2.1-0.6
		c-0.6-0.4-1.1-0.9-1.4-1.6s-0.5-1.5-0.5-2.5c0-1.5,0.4-2.6,1.1-3.4s1.7-1.2,3-1.2c0.8,0,1.5,0.2,2.1,0.6c0.6,0.4,1.1,0.9,1.4,1.6
		C291.4,421.8,291.5,422.6,291.5,423.6z M285.9,423.6c0,0.9,0.1,1.6,0.4,2c0.3,0.5,0.7,0.7,1.3,0.7c0.6,0,1-0.2,1.3-0.7
		s0.4-1.1,0.4-2s-0.1-1.6-0.4-2s-0.7-0.7-1.3-0.7c-0.6,0-1,0.2-1.3,0.7C286,422,285.9,422.7,285.9,423.6z"/>
	<path id="XMLID_247_" class="st1" d="M300.8,428h-2.2v-5.2c0-0.6-0.1-1.1-0.3-1.5c-0.2-0.3-0.5-0.5-0.9-0.5c-0.6,0-1,0.2-1.3,0.7
		s-0.4,1.2-0.4,2.3v4.2h-2.2v-9h1.7l0.3,1.1h0.1c0.2-0.4,0.5-0.7,1-1c0.4-0.2,0.9-0.3,1.4-0.3c1.2,0,2.1,0.4,2.5,1.3h0.2
		c0.2-0.4,0.5-0.7,1-1c0.4-0.2,0.9-0.3,1.5-0.3c0.9,0,1.6,0.3,2.1,0.8s0.7,1.4,0.7,2.5v5.8h-2.3v-5.2c0-0.6-0.1-1.1-0.3-1.5
		c-0.2-0.3-0.5-0.5-0.9-0.5c-0.5,0-1,0.2-1.2,0.6c-0.3,0.4-0.4,1.1-0.4,2v4.7H300.8z"/>
	<path id="XMLID_249_" class="st1" d="M315.6,428h-2.2v-5.2c0-0.6-0.1-1.1-0.3-1.5c-0.2-0.3-0.5-0.5-0.9-0.5c-0.6,0-1,0.2-1.3,0.7
		s-0.4,1.2-0.4,2.3v4.2h-2.2v-9h1.7l0.3,1.1h0.1c0.2-0.4,0.5-0.7,1-1s0.9-0.3,1.4-0.3c1.2,0,2.1,0.4,2.5,1.3h0.2
		c0.2-0.4,0.5-0.7,1-1c0.4-0.2,0.9-0.3,1.5-0.3c0.9,0,1.6,0.3,2.1,0.8s0.7,1.4,0.7,2.5v5.8h-2.3v-5.2c0-0.6-0.1-1.1-0.3-1.5
		c-0.2-0.3-0.5-0.5-0.9-0.5c-0.5,0-1,0.2-1.2,0.6c-0.3,0.4-0.4,1.1-0.4,2v4.7H315.6z"/>
	<path id="XMLID_251_" class="st1" d="M326.8,428.2c-1.3,0-2.4-0.4-3.1-1.2s-1.1-1.9-1.1-3.4s0.3-2.7,1-3.5s1.6-1.2,2.9-1.2
		c1.2,0,2.1,0.4,2.7,1.1s1,1.7,1,3v1.2h-5.3c0,0.7,0.2,1.2,0.6,1.6s0.8,0.6,1.5,0.6c0.5,0,1-0.1,1.4-0.2c0.4-0.1,0.9-0.3,1.4-0.5
		v1.9c-0.4,0.2-0.8,0.4-1.3,0.5C327.9,428.2,327.4,428.2,326.8,428.2z M326.4,420.7c-0.5,0-0.8,0.2-1.1,0.5
		c-0.3,0.3-0.4,0.8-0.5,1.4h3.2c0-0.6-0.2-1.1-0.4-1.4C327.3,420.8,326.9,420.7,326.4,420.7z"/>
	<path id="XMLID_254_" class="st1" d="M336.5,418.9c0.3,0,0.6,0,0.8,0.1l-0.2,2.3c-0.2-0.1-0.4-0.1-0.7-0.1c-0.7,0-1.3,0.2-1.7,0.6
		c-0.4,0.4-0.6,1-0.6,1.7v4.6h-2.2v-9h1.7l0.3,1.5h0.1c0.3-0.5,0.6-0.9,1-1.2C335.5,419.1,336,418.9,336.5,418.9z"/>
	<path id="XMLID_256_" class="st1" d="M342,428.2c-2.6,0-3.8-1.5-3.8-4.6c0-1.5,0.3-2.7,1-3.5c0.7-0.8,1.7-1.2,3-1.2
		c1,0,1.8,0.2,2.6,0.6l-0.7,1.9c-0.4-0.2-0.7-0.3-1-0.4s-0.6-0.1-0.9-0.1c-1.2,0-1.8,0.9-1.8,2.7c0,1.8,0.6,2.6,1.8,2.6
		c0.4,0,0.8-0.1,1.2-0.2c0.4-0.1,0.7-0.3,1.1-0.6v2.1c-0.4,0.3-0.7,0.4-1.1,0.5C343,428.2,342.5,428.2,342,428.2z"/>
	<path id="XMLID_258_" class="st1" d="M350.1,428.2c-1.3,0-2.4-0.4-3.1-1.2s-1.1-1.9-1.1-3.4s0.3-2.7,1-3.5s1.6-1.2,2.9-1.2
		c1.2,0,2.1,0.4,2.7,1.1s1,1.7,1,3v1.2h-5.3c0,0.7,0.2,1.2,0.6,1.6s0.8,0.6,1.5,0.6c0.5,0,1-0.1,1.4-0.2c0.4-0.1,0.9-0.3,1.4-0.5
		v1.9c-0.4,0.2-0.8,0.4-1.3,0.5C351.3,428.2,350.8,428.2,350.1,428.2z M349.8,420.7c-0.5,0-0.8,0.2-1.1,0.5
		c-0.3,0.3-0.4,0.8-0.5,1.4h3.2c0-0.6-0.2-1.1-0.4-1.4C350.7,420.8,350.3,420.7,349.8,420.7z"/>
	<path id="XMLID_261_" class="st1" d="M361.8,428.2c-1,0-1.7-0.4-2.3-1.2c-0.6-0.8-0.8-1.9-0.8-3.4s0.3-2.6,0.8-3.4
		c0.6-0.8,1.3-1.2,2.3-1.2s1.8,0.4,2.4,1.3h0.1c-0.1-0.7-0.2-1.3-0.2-1.8v-2.9h2.3v12.5h-1.7l-0.4-1.2h-0.1
		C363.7,427.8,362.9,428.2,361.8,428.2z M362.6,426.3c0.6,0,1-0.2,1.3-0.5c0.3-0.3,0.4-1,0.4-1.9v-0.3c0-1-0.1-1.7-0.4-2.1
		c-0.3-0.4-0.7-0.6-1.3-0.6c-0.5,0-0.9,0.2-1.2,0.7c-0.3,0.5-0.4,1.1-0.4,2c0,0.9,0.1,1.5,0.4,2C361.7,426,362.1,426.3,362.6,426.3z
		"/>
	<path id="XMLID_264_" class="st1" d="M368.7,416.8c0-0.8,0.4-1.2,1.2-1.2c0.8,0,1.2,0.4,1.2,1.2c0,0.4-0.1,0.7-0.3,0.9
		c-0.2,0.2-0.5,0.3-0.9,0.3C369.1,418,368.7,417.6,368.7,416.8z M371,428h-2.2v-9h2.2V428z"/>
	<path id="XMLID_267_" class="st1" d="M379.1,425.4c0,0.9-0.3,1.6-0.9,2.1s-1.5,0.7-2.6,0.7c-0.6,0-1.1,0-1.5-0.1
		c-0.4-0.1-0.8-0.2-1.2-0.4v-2c0.4,0.2,0.9,0.4,1.4,0.5c0.5,0.1,1,0.2,1.4,0.2c0.8,0,1.2-0.3,1.2-0.8c0-0.2-0.1-0.3-0.2-0.5
		c-0.1-0.2-0.3-0.3-0.6-0.4c-0.3-0.2-0.6-0.3-1.1-0.5c-0.6-0.3-1.1-0.6-1.4-0.8s-0.5-0.5-0.6-0.8c-0.1-0.3-0.2-0.7-0.2-1.2
		c0-0.8,0.3-1.4,0.9-1.8c0.6-0.4,1.4-0.7,2.4-0.7s2,0.2,2.9,0.7l-0.7,1.8c-0.4-0.2-0.8-0.3-1.2-0.5c-0.4-0.1-0.7-0.2-1.1-0.2
		c-0.7,0-1,0.2-1,0.6c0,0.2,0.1,0.4,0.3,0.6c0.2,0.2,0.7,0.4,1.4,0.7c0.6,0.3,1.1,0.5,1.4,0.8c0.3,0.2,0.5,0.5,0.7,0.8
		C379,424.6,379.1,424.9,379.1,425.4z"/>
	<path id="XMLID_269_" class="st1" d="M384.2,428.2c-2.6,0-3.8-1.5-3.8-4.6c0-1.5,0.3-2.7,1-3.5c0.7-0.8,1.7-1.2,3-1.2
		c1,0,1.8,0.2,2.6,0.6l-0.7,1.9c-0.4-0.2-0.7-0.3-1-0.4c-0.3-0.1-0.6-0.1-0.9-0.1c-1.2,0-1.8,0.9-1.8,2.7c0,1.8,0.6,2.6,1.8,2.6
		c0.4,0,0.8-0.1,1.2-0.2c0.4-0.1,0.7-0.3,1.1-0.6v2.1c-0.4,0.3-0.7,0.4-1.1,0.5C385.2,428.2,384.8,428.2,384.2,428.2z"/>
	<path id="XMLID_271_" class="st1" d="M396.1,423.6c0,1.5-0.4,2.6-1.1,3.4s-1.7,1.2-3,1.2c-0.8,0-1.5-0.2-2.1-0.6
		c-0.6-0.4-1.1-0.9-1.4-1.6s-0.5-1.5-0.5-2.5c0-1.5,0.4-2.6,1.1-3.4s1.7-1.2,3-1.2c0.8,0,1.5,0.2,2.1,0.6c0.6,0.4,1.1,0.9,1.4,1.6
		C395.9,421.8,396.1,422.6,396.1,423.6z M390.4,423.6c0,0.9,0.1,1.6,0.4,2c0.3,0.5,0.7,0.7,1.3,0.7c0.6,0,1-0.2,1.3-0.7
		s0.4-1.1,0.4-2s-0.1-1.6-0.4-2s-0.7-0.7-1.3-0.7c-0.6,0-1,0.2-1.3,0.7C390.5,422,390.4,422.7,390.4,423.6z"/>
	<path id="XMLID_274_" class="st1" d="M399.8,428l-3.1-9h2.3l1.6,5.1c0.2,0.6,0.3,1.2,0.3,1.8h0.1c0-0.6,0.1-1.2,0.3-1.8l1.6-5.1
		h2.3l-3.1,9H399.8z"/>
	<path id="XMLID_276_" class="st1" d="M410.1,428.2c-1.3,0-2.4-0.4-3.1-1.2s-1.1-1.9-1.1-3.4s0.3-2.7,1-3.5s1.6-1.2,2.9-1.2
		c1.2,0,2.1,0.4,2.7,1.1s1,1.7,1,3v1.2h-5.3c0,0.7,0.2,1.2,0.6,1.6s0.8,0.6,1.5,0.6c0.5,0,1-0.1,1.4-0.2c0.4-0.1,0.9-0.3,1.4-0.5
		v1.9c-0.4,0.2-0.8,0.4-1.3,0.5C411.3,428.2,410.8,428.2,410.1,428.2z M409.8,420.7c-0.5,0-0.8,0.2-1.1,0.5
		c-0.3,0.3-0.4,0.8-0.5,1.4h3.2c0-0.6-0.2-1.1-0.4-1.4C410.7,420.8,410.3,420.7,409.8,420.7z"/>
	<path id="XMLID_279_" class="st1" d="M419.9,418.9c0.3,0,0.6,0,0.8,0.1l-0.2,2.3c-0.2-0.1-0.4-0.1-0.7-0.1c-0.7,0-1.3,0.2-1.7,0.6
		c-0.4,0.4-0.6,1-0.6,1.7v4.6h-2.2v-9h1.7l0.3,1.5h0.1c0.3-0.5,0.6-0.9,1-1.2C418.9,419.1,419.4,418.9,419.9,418.9z"/>
	<path id="XMLID_281_" class="st1" d="M421,419.1h2.5l1.6,5c0.1,0.4,0.2,1,0.3,1.6l0,0c0.1-0.5,0.2-1.1,0.3-1.6l1.5-5h2.4l-3.5,10.1
		c-0.3,0.9-0.8,1.6-1.4,2.1s-1.3,0.7-2.1,0.7c-0.4,0-0.8,0-1.1-0.1V430c0.3,0.1,0.6,0.1,0.9,0.1c0.4,0,0.7-0.1,1-0.4
		s0.5-0.7,0.7-1.2l0.1-0.4L421,419.1z"/>
	<path id="XMLID_283_" class="st1" d="M439.2,428.2c-1,0-1.7-0.4-2.3-1.1h-0.1c0.1,0.7,0.1,1.2,0.1,1.3v3.6h-2.2v-12.9h1.8l0.3,1.2
		h0.1c0.5-0.9,1.3-1.3,2.3-1.3s1.7,0.4,2.3,1.2c0.5,0.8,0.8,2,0.8,3.4c0,1-0.1,1.8-0.4,2.5c-0.3,0.7-0.6,1.2-1.1,1.6
		C440.4,428,439.8,428.2,439.2,428.2z M438.5,420.9c-0.6,0-1,0.2-1.2,0.6c-0.3,0.4-0.4,1-0.4,1.8v0.3c0,1,0.1,1.7,0.4,2.1
		c0.3,0.4,0.7,0.6,1.2,0.6c1,0,1.5-0.9,1.5-2.7c0-0.9-0.1-1.5-0.4-2C439.4,421.1,439,420.9,438.5,420.9z"/>
	<path id="XMLID_286_" class="st1" d="M451.7,423.6c0,1.5-0.4,2.6-1.1,3.4s-1.7,1.2-3,1.2c-0.8,0-1.5-0.2-2.1-0.6
		c-0.6-0.4-1.1-0.9-1.4-1.6s-0.5-1.5-0.5-2.5c0-1.5,0.4-2.6,1.1-3.4s1.7-1.2,3-1.2c0.8,0,1.5,0.2,2.1,0.6c0.6,0.4,1.1,0.9,1.4,1.6
		C451.5,421.8,451.7,422.6,451.7,423.6z M446,423.6c0,0.9,0.1,1.6,0.4,2c0.3,0.5,0.7,0.7,1.3,0.7c0.6,0,1-0.2,1.3-0.7s0.4-1.1,0.4-2
		s-0.1-1.6-0.4-2s-0.7-0.7-1.3-0.7c-0.6,0-1,0.2-1.3,0.7S446,422.7,446,423.6z"/>
	<path id="XMLID_289_" class="st1" d="M458.1,418.9c0.3,0,0.6,0,0.8,0.1l-0.2,2.3c-0.2-0.1-0.4-0.1-0.7-0.1c-0.7,0-1.3,0.2-1.7,0.6
		c-0.4,0.4-0.6,1-0.6,1.7v4.6h-2.2v-9h1.7l0.3,1.5h0.1c0.3-0.5,0.6-0.9,1-1.2C457.1,419.1,457.6,418.9,458.1,418.9z"/>
	<path id="XMLID_291_" class="st1" d="M463.8,426.3c0.4,0,0.9-0.1,1.4-0.3v1.8c-0.6,0.3-1.2,0.4-2.1,0.4s-1.6-0.2-2-0.7
		s-0.6-1.2-0.6-2.2V421h-1.1v-1l1.2-0.8l0.6-1.9h1.4v1.9h2.3v1.8h-2.3v4.3c0,0.3,0.1,0.6,0.3,0.8
		C463.3,426.2,463.6,426.3,463.8,426.3z"/>
	<path id="XMLID_293_" class="st1" d="M472.2,428l-0.4-1.2h-0.1c-0.4,0.5-0.8,0.9-1.2,1.1c-0.4,0.2-0.9,0.3-1.6,0.3
		c-0.8,0-1.4-0.2-1.9-0.7s-0.7-1.2-0.7-2.1c0-1,0.3-1.7,0.9-2.1c0.6-0.5,1.5-0.7,2.8-0.7h1.4v-0.4c0-0.9-0.4-1.4-1.3-1.4
		c-0.7,0-1.4,0.2-2.3,0.6l-0.7-1.7c0.9-0.5,2-0.8,3.2-0.8c1.1,0,2,0.3,2.5,0.8c0.6,0.5,0.9,1.3,0.9,2.4v6h-1.5V428z M471.5,423.9
		h-0.9c-0.7,0-1.1,0.1-1.5,0.4c-0.3,0.2-0.5,0.6-0.5,1.1c0,0.7,0.4,1,1.1,1c0.5,0,0.9-0.2,1.2-0.5c0.3-0.3,0.5-0.8,0.5-1.3
		L471.5,423.9L471.5,423.9z"/>
	<path id="XMLID_296_" class="st1" d="M478.3,428H476v-12.5h2.2L478.3,428L478.3,428z"/>
	<path id="XMLID_298_" class="st1" d="M488,426.3c0.4,0,0.9-0.1,1.4-0.3v1.8c-0.6,0.3-1.2,0.4-2.1,0.4s-1.6-0.2-2-0.7
		s-0.6-1.2-0.6-2.2V421h-1.1v-1l1.2-0.8l0.6-1.9h1.4v1.9h2.3v1.8H487v4.3c0,0.3,0.1,0.6,0.3,0.8C487.5,426.2,487.7,426.3,488,426.3z
		"/>
	<path id="XMLID_300_" class="st1" d="M498.7,428h-2.2v-5.2c0-1.3-0.4-1.9-1.3-1.9c-0.6,0-1.1,0.2-1.4,0.7s-0.4,1.2-0.4,2.3v4.2
		h-2.2v-12.5h2.2v2.5c0,0.2,0,0.7-0.1,1.4l-0.1,0.7h0.1c0.5-0.9,1.3-1.3,2.4-1.3c1,0,1.7,0.3,2.2,0.8c0.5,0.6,0.8,1.4,0.8,2.4V428z"
		/>
	<path id="XMLID_302_" class="st1" d="M506.2,428l-0.4-1.2h-0.1c-0.4,0.5-0.8,0.9-1.2,1.1c-0.4,0.2-0.9,0.3-1.6,0.3
		c-0.8,0-1.4-0.2-1.9-0.7s-0.7-1.2-0.7-2.1c0-1,0.3-1.7,0.9-2.1c0.6-0.5,1.5-0.7,2.8-0.7h1.4v-0.4c0-0.9-0.4-1.4-1.3-1.4
		c-0.7,0-1.4,0.2-2.3,0.6l-0.7-1.7c0.9-0.5,2-0.8,3.2-0.8c1.1,0,2,0.3,2.5,0.8c0.6,0.5,0.9,1.3,0.9,2.4v6h-1.5V428z M505.6,423.9
		h-0.9c-0.7,0-1.1,0.1-1.5,0.4c-0.3,0.2-0.5,0.6-0.5,1.1c0,0.7,0.4,1,1.1,1c0.5,0,0.9-0.2,1.2-0.5c0.3-0.3,0.5-0.8,0.5-1.3
		L505.6,423.9L505.6,423.9z"/>
	<path id="XMLID_305_" class="st1" d="M513.6,426.3c0.4,0,0.9-0.1,1.4-0.3v1.8c-0.6,0.3-1.2,0.4-2.1,0.4c-0.9,0-1.6-0.2-2-0.7
		s-0.6-1.2-0.6-2.2V421h-1.1v-1l1.2-0.8l0.6-1.9h1.4v1.9h2.3v1.8h-2.3v4.3c0,0.3,0.1,0.6,0.3,0.8
		C513.1,426.2,513.3,426.3,513.6,426.3z"/>
	<path id="XMLID_307_" class="st1" d="M525.8,428l-0.4-1.2h-0.1c-0.4,0.5-0.8,0.9-1.2,1.1c-0.4,0.2-0.9,0.3-1.6,0.3
		c-0.8,0-1.4-0.2-1.9-0.7s-0.7-1.2-0.7-2.1c0-1,0.3-1.7,0.9-2.1c0.6-0.5,1.5-0.7,2.8-0.7h1.4v-0.4c0-0.9-0.4-1.4-1.3-1.4
		c-0.7,0-1.4,0.2-2.3,0.6l-0.7-1.7c0.9-0.5,2-0.8,3.2-0.8c1.1,0,2,0.3,2.5,0.8c0.6,0.5,0.9,1.3,0.9,2.4v6h-1.5V428z M525.2,423.9
		h-0.9c-0.7,0-1.1,0.1-1.5,0.4c-0.3,0.2-0.5,0.6-0.5,1.1c0,0.7,0.4,1,1.1,1c0.5,0,0.9-0.2,1.2-0.5s0.5-0.8,0.5-1.3v-0.7H525.2z"/>
	<path id="XMLID_310_" class="st1" d="M531.9,428h-2.2v-12.5h2.2V428z"/>
	<path id="XMLID_312_" class="st1" d="M536.6,428h-2.2v-12.5h2.2V428z"/>
	<path id="XMLID_314_" class="st1" d="M546.4,423.6c0,1.5-0.4,2.6-1.1,3.4s-1.7,1.2-3,1.2c-0.8,0-1.5-0.2-2.1-0.6
		c-0.6-0.4-1.1-0.9-1.4-1.6c-0.3-0.7-0.5-1.5-0.5-2.5c0-1.5,0.4-2.6,1.1-3.4s1.7-1.2,3-1.2c0.8,0,1.5,0.2,2.1,0.6
		c0.6,0.4,1.1,0.9,1.4,1.6C546.2,421.8,546.4,422.6,546.4,423.6z M540.7,423.6c0,0.9,0.1,1.6,0.4,2c0.3,0.5,0.7,0.7,1.3,0.7
		s1-0.2,1.3-0.7s0.4-1.1,0.4-2s-0.1-1.6-0.4-2c-0.3-0.4-0.7-0.7-1.3-0.7s-1,0.2-1.3,0.7C540.8,422,540.7,422.7,540.7,423.6z"/>
	<path id="XMLID_317_" class="st1" d="M554.9,428l-0.6-3.1l-0.8-4h-0.1l-1.5,7.1h-2.4l-2.3-9h2.2l0.9,4c0.1,0.5,0.3,1.5,0.4,2.9h0.1
		c0-0.4,0.1-1,0.3-1.9l0.1-0.7l1-4.3h2.5l1,4.3c0.1,0.3,0.1,0.7,0.2,1.3s0.1,1,0.1,1.3h0.1c0.1-0.5,0.1-1,0.2-1.6
		c0.1-0.6,0.2-1,0.3-1.3l1-4h2.2l-2.4,9H554.9z"/>
	<path id="XMLID_319_" class="st1" d="M566.8,425.4c0,0.9-0.3,1.6-0.9,2.1s-1.5,0.7-2.6,0.7c-0.6,0-1.1,0-1.5-0.1
		c-0.4-0.1-0.8-0.2-1.2-0.4v-2c0.4,0.2,0.9,0.4,1.4,0.5c0.5,0.1,1,0.2,1.4,0.2c0.8,0,1.2-0.3,1.2-0.8c0-0.2-0.1-0.3-0.2-0.5
		c-0.1-0.1-0.3-0.3-0.6-0.4c-0.3-0.2-0.6-0.3-1.1-0.5c-0.6-0.3-1.1-0.6-1.4-0.8c-0.3-0.2-0.5-0.5-0.6-0.8c-0.1-0.3-0.2-0.7-0.2-1.2
		c0-0.8,0.3-1.4,0.9-1.8c0.6-0.4,1.4-0.7,2.4-0.7s2,0.2,2.9,0.7l-0.7,1.8c-0.4-0.2-0.8-0.3-1.2-0.5c-0.4-0.1-0.7-0.2-1.1-0.2
		c-0.7,0-1,0.2-1,0.6c0,0.2,0.1,0.4,0.3,0.6c0.2,0.2,0.7,0.4,1.4,0.7c0.6,0.3,1.1,0.5,1.4,0.8c0.3,0.2,0.5,0.5,0.7,0.8
		C566.7,424.6,566.8,424.9,566.8,425.4z"/>
	<path id="XMLID_321_" class="st1" d="M237.1,440.8h2.5l1.6,5c0.1,0.4,0.2,1,0.3,1.6l0,0c0.1-0.5,0.2-1.1,0.3-1.6l1.5-5h2.4
		l-3.5,10.1c-0.3,0.9-0.8,1.6-1.4,2.1c-0.6,0.5-1.3,0.7-2.1,0.7c-0.4,0-0.8,0-1.1-0.1v-1.9c0.3,0.1,0.6,0.1,0.9,0.1
		c0.4,0,0.7-0.1,1-0.4s0.5-0.7,0.7-1.2l0.1-0.4L237.1,440.8z"/>
	<path id="XMLID_323_" class="st1" d="M254.4,445.2c0,1.5-0.4,2.6-1.1,3.4s-1.7,1.2-3,1.2c-0.8,0-1.5-0.2-2.1-0.6s-1.1-0.9-1.4-1.6
		c-0.3-0.7-0.5-1.5-0.5-2.5c0-1.5,0.4-2.6,1.1-3.4c0.7-0.8,1.7-1.2,3-1.2c0.8,0,1.5,0.2,2.1,0.6s1.1,0.9,1.4,1.6
		C254.2,443.5,254.4,444.3,254.4,445.2z M248.7,445.2c0,0.9,0.1,1.6,0.4,2c0.3,0.5,0.7,0.7,1.3,0.7s1-0.2,1.3-0.7s0.4-1.1,0.4-2
		s-0.1-1.6-0.4-2s-0.7-0.7-1.3-0.7s-1,0.2-1.3,0.7C248.8,443.7,248.7,444.3,248.7,445.2z"/>
	<path id="XMLID_326_" class="st1" d="M262.1,449.7l-0.3-1.1h-0.1c-0.2,0.4-0.6,0.7-1,1c-0.4,0.2-0.9,0.3-1.5,0.3
		c-1,0-1.7-0.3-2.2-0.8c-0.5-0.6-0.7-1.4-0.7-2.4v-5.8h2.2v5.2c0,0.6,0.1,1.1,0.3,1.5c0.2,0.3,0.5,0.5,1,0.5c0.6,0,1.1-0.2,1.4-0.7
		s0.4-1.2,0.4-2.3v-4.2h2.2v9h-1.7V449.7z"/>
	<path id="XMLID_328_" class="st1" d="M273.5,447.9c0.4,0,0.9-0.1,1.4-0.3v1.8c-0.6,0.3-1.2,0.4-2.1,0.4s-1.6-0.2-2-0.7
		s-0.6-1.2-0.6-2.2v-4.3h-1.1v-1l1.2-0.8l0.6-1.9h1.4v1.9h2.3v1.8h-2.3v4.3c0,0.3,0.1,0.6,0.3,0.8
		C273,447.8,273.2,447.9,273.5,447.9z"/>
	<path id="XMLID_330_" class="st1" d="M284.1,445.2c0,1.5-0.4,2.6-1.1,3.4s-1.7,1.2-3,1.2c-0.8,0-1.5-0.2-2.1-0.6s-1.1-0.9-1.4-1.6
		s-0.5-1.5-0.5-2.5c0-1.5,0.4-2.6,1.1-3.4s1.7-1.2,3-1.2c0.8,0,1.5,0.2,2.1,0.6s1.1,0.9,1.4,1.6
		C283.9,443.5,284.1,444.3,284.1,445.2z M278.4,445.2c0,0.9,0.1,1.6,0.4,2c0.3,0.5,0.7,0.7,1.3,0.7c0.6,0,1-0.2,1.3-0.7
		s0.4-1.1,0.4-2s-0.1-1.6-0.4-2s-0.7-0.7-1.3-0.7c-0.6,0-1,0.2-1.3,0.7S278.4,444.3,278.4,445.2z"/>
	<path id="XMLID_333_" class="st1" d="M294.4,442.6h-1.9v7.1h-2.2v-7.1H289v-1.2l1.2-0.7V440c0-1,0.2-1.8,0.7-2.2
		c0.5-0.5,1.2-0.7,2.2-0.7c0.8,0,1.5,0.1,2.1,0.4l-0.6,1.8c-0.5-0.2-0.9-0.2-1.3-0.2c-0.3,0-0.5,0.1-0.7,0.3
		c-0.1,0.2-0.2,0.5-0.2,0.8v0.6h1.9L294.4,442.6L294.4,442.6z"/>
	<path id="XMLID_335_" class="st1" d="M295.6,438.4c0-0.8,0.4-1.2,1.2-1.2c0.8,0,1.2,0.4,1.2,1.2c0,0.4-0.1,0.7-0.3,0.9
		s-0.5,0.3-0.9,0.3C296,439.6,295.6,439.2,295.6,438.4z M297.9,449.7h-2.2v-9h2.2V449.7z"/>
	<path id="XMLID_338_" class="st1" d="M307.9,449.7h-2.2v-5.2c0-0.6-0.1-1.1-0.3-1.5c-0.2-0.3-0.5-0.5-1-0.5c-0.6,0-1.1,0.2-1.4,0.7
		s-0.4,1.2-0.4,2.3v4.2h-2.2v-9h1.7l0.3,1.1h0.1c0.3-0.4,0.6-0.8,1-1s0.9-0.3,1.5-0.3c1,0,1.7,0.3,2.2,0.8c0.5,0.6,0.7,1.4,0.7,2.4
		L307.9,449.7L307.9,449.7z"/>
	<path id="XMLID_340_" class="st1" d="M312.8,449.9c-1,0-1.7-0.4-2.3-1.2c-0.6-0.8-0.8-2-0.8-3.4c0-1.5,0.3-2.6,0.8-3.4
		c0.6-0.8,1.3-1.2,2.3-1.2s1.8,0.4,2.4,1.3h0.1c-0.1-0.7-0.2-1.3-0.2-1.8v-2.9h2.3v12.5h-1.7l-0.4-1.2h-0.1
		C314.6,449.4,313.9,449.9,312.8,449.9z M313.6,447.9c0.6,0,1-0.2,1.3-0.5c0.3-0.4,0.4-1,0.4-1.9v-0.3c0-1-0.1-1.7-0.4-2.1
		s-0.7-0.6-1.3-0.6c-0.5,0-0.9,0.2-1.2,0.7c-0.3,0.5-0.4,1.1-0.4,2s0.1,1.5,0.4,2C312.7,447.7,313.1,447.9,313.6,447.9z"/>
	<path id="XMLID_343_" class="st1" d="M328.9,449.7l-0.4-1.2h-0.1c-0.4,0.5-0.8,0.9-1.2,1.1c-0.4,0.2-0.9,0.3-1.6,0.3
		c-0.8,0-1.4-0.2-1.9-0.7s-0.7-1.2-0.7-2.1c0-1,0.3-1.7,0.9-2.1c0.6-0.5,1.5-0.7,2.8-0.7h1.4v-0.4c0-0.9-0.4-1.4-1.3-1.4
		c-0.7,0-1.4,0.2-2.3,0.6l-0.7-1.7c0.9-0.5,2-0.8,3.2-0.8c1.1,0,2,0.3,2.5,0.8c0.6,0.5,0.9,1.3,0.9,2.4v6L328.9,449.7L328.9,449.7z
		 M328.2,445.6h-0.9c-0.7,0-1.1,0.2-1.5,0.4c-0.3,0.2-0.5,0.6-0.5,1.1c0,0.7,0.4,1,1.1,1c0.5,0,0.9-0.2,1.2-0.5
		c0.3-0.3,0.5-0.8,0.5-1.3L328.2,445.6L328.2,445.6z"/>
	<path id="XMLID_346_" class="st1" d="M335,449.7h-2.2v-12.5h2.2V449.7z"/>
	<path id="XMLID_348_" class="st1" d="M339.6,449.7h-2.2v-12.5h2.2V449.7z"/>
	<path id="XMLID_350_" class="st1" d="M349.4,447.9c0.4,0,0.9-0.1,1.4-0.3v1.8c-0.6,0.3-1.2,0.4-2.1,0.4s-1.6-0.2-2-0.7
		s-0.6-1.2-0.6-2.2v-4.3H345v-1l1.2-0.8l0.6-1.9h1.4v1.9h2.3v1.8h-2.3v4.3c0,0.3,0.1,0.6,0.3,0.8
		C348.9,447.8,349.1,447.9,349.4,447.9z"/>
	<path id="XMLID_352_" class="st1" d="M360.1,449.7h-2.2v-5.2c0-1.3-0.4-1.9-1.3-1.9c-0.6,0-1.1,0.2-1.4,0.7s-0.4,1.2-0.4,2.3v4.2
		h-2.2v-12.5h2.2v2.5c0,0.2,0,0.7-0.1,1.4l-0.1,0.7h0.1c0.5-0.9,1.3-1.3,2.4-1.3c1,0,1.7,0.3,2.2,0.8c0.5,0.6,0.8,1.4,0.8,2.4V449.7
		z"/>
	<path id="XMLID_354_" class="st1" d="M366.1,449.9c-1.3,0-2.4-0.4-3.1-1.2c-0.7-0.8-1.1-1.9-1.1-3.4s0.3-2.7,1-3.5s1.6-1.2,2.9-1.2
		c1.2,0,2.1,0.4,2.7,1.1s1,1.7,1,3v1.2h-5.3c0,0.7,0.2,1.2,0.6,1.6s0.8,0.6,1.5,0.6c0.5,0,1-0.1,1.4-0.2s0.9-0.3,1.4-0.5v1.9
		c-0.4,0.2-0.8,0.4-1.3,0.5C367.3,449.8,366.7,449.9,366.1,449.9z M365.8,442.3c-0.5,0-0.8,0.2-1.1,0.5c-0.3,0.3-0.4,0.8-0.5,1.4
		h3.2c0-0.6-0.2-1.1-0.4-1.4C366.6,442.5,366.3,442.3,365.8,442.3z"/>
	<path id="XMLID_357_" class="st1" d="M378.7,447.9c0.4,0,0.9-0.1,1.4-0.3v1.8c-0.6,0.3-1.2,0.4-2.1,0.4s-1.6-0.2-2-0.7
		s-0.6-1.2-0.6-2.2v-4.3h-1.1v-1l1.2-0.8l0.6-1.9h1.4v1.9h2.3v1.8h-2.3v4.3c0,0.3,0.1,0.6,0.3,0.8
		C378.1,447.8,378.4,447.9,378.7,447.9z"/>
	<path id="XMLID_359_" class="st1" d="M389.4,449.7h-2.2v-5.2c0-1.3-0.4-1.9-1.3-1.9c-0.6,0-1.1,0.2-1.4,0.7s-0.4,1.2-0.4,2.3v4.2
		h-2.2v-12.5h2.2v2.5c0,0.2,0,0.7-0.1,1.4l-0.1,0.7h0.1c0.5-0.9,1.3-1.3,2.4-1.3c1,0,1.7,0.3,2.2,0.8c0.5,0.6,0.8,1.4,0.8,2.4V449.7
		z"/>
	<path id="XMLID_361_" class="st1" d="M391.6,438.4c0-0.8,0.4-1.2,1.2-1.2c0.8,0,1.2,0.4,1.2,1.2c0,0.4-0.1,0.7-0.3,0.9
		c-0.2,0.2-0.5,0.3-0.9,0.3C392,439.6,391.6,439.2,391.6,438.4z M393.9,449.7h-2.2v-9h2.2V449.7z"/>
	<path id="XMLID_364_" class="st1" d="M403.9,449.7h-2.2v-5.2c0-0.6-0.1-1.1-0.3-1.5c-0.2-0.3-0.5-0.5-1-0.5c-0.6,0-1.1,0.2-1.4,0.7
		s-0.4,1.2-0.4,2.3v4.2h-2.2v-9h1.7l0.3,1.1h0.1c0.3-0.4,0.6-0.8,1-1s0.9-0.3,1.5-0.3c1,0,1.7,0.3,2.2,0.8c0.5,0.6,0.7,1.4,0.7,2.4
		L403.9,449.7L403.9,449.7z"/>
	<path id="XMLID_366_" class="st1" d="M413.4,449.7c0,1.3-0.3,2.3-1,2.9c-0.7,0.7-1.7,1-3.1,1c-1.2,0-2.2-0.2-3.1-0.5v-2
		c1,0.5,2.1,0.7,3.2,0.7c1.2,0,1.7-0.7,1.7-2v-0.2l0.1-1.1h-0.1c-0.5,0.9-1.3,1.3-2.3,1.3s-1.8-0.4-2.3-1.2c-0.5-0.8-0.8-2-0.8-3.4
		c0-1.5,0.3-2.6,0.8-3.4c0.6-0.8,1.3-1.2,2.3-1.2s1.8,0.4,2.4,1.3h0.1l0.2-1.1h1.9L413.4,449.7L413.4,449.7z M409.6,448
		c0.6,0,1-0.2,1.3-0.6s0.4-1,0.4-1.8v-0.3c0-1-0.1-1.6-0.4-2.1c-0.3-0.4-0.7-0.6-1.3-0.6c-1.1,0-1.6,0.9-1.6,2.7
		c0,0.9,0.1,1.6,0.4,2C408.6,447.7,409,448,409.6,448z"/>
	<path id="XMLID_369_" class="st1" d="M421.5,447.1c0,0.9-0.3,1.6-0.9,2.1s-1.5,0.7-2.6,0.7c-0.6,0-1.1,0-1.5-0.1s-0.8-0.2-1.2-0.4
		v-2c0.4,0.2,0.9,0.4,1.4,0.5s1,0.2,1.4,0.2c0.8,0,1.2-0.3,1.2-0.8c0-0.2-0.1-0.3-0.2-0.5c-0.1-0.1-0.3-0.3-0.6-0.4
		s-0.6-0.3-1.1-0.5c-0.6-0.3-1.1-0.6-1.4-0.8c-0.3-0.2-0.5-0.5-0.6-0.8s-0.2-0.7-0.2-1.2c0-0.8,0.3-1.4,0.9-1.8s1.4-0.7,2.4-0.7
		s2,0.2,2.9,0.7l-0.7,1.8c-0.4-0.2-0.8-0.3-1.2-0.5c-0.4-0.1-0.7-0.2-1.1-0.2c-0.7,0-1,0.2-1,0.6c0,0.2,0.1,0.4,0.3,0.6
		c0.2,0.2,0.7,0.4,1.4,0.7c0.6,0.3,1.1,0.5,1.4,0.8c0.3,0.2,0.5,0.5,0.7,0.8C421.4,446.2,421.5,446.6,421.5,447.1z"/>
	<path id="XMLID_371_" class="st1" d="M426,440.8h2.5l1.6,5c0.1,0.4,0.2,1,0.3,1.6l0,0c0.1-0.5,0.2-1.1,0.3-1.6l1.5-5h2.4l-3.5,10.1
		c-0.3,0.9-0.8,1.6-1.4,2.1s-1.3,0.7-2.1,0.7c-0.4,0-0.8,0-1.1-0.1v-1.9c0.3,0.1,0.6,0.1,0.9,0.1c0.4,0,0.7-0.1,1-0.4
		s0.5-0.7,0.7-1.2l0.1-0.4L426,440.8z"/>
	<path id="XMLID_373_" class="st1" d="M443.2,445.2c0,1.5-0.4,2.6-1.1,3.4s-1.7,1.2-3,1.2c-0.8,0-1.5-0.2-2.1-0.6s-1.1-0.9-1.4-1.6
		s-0.5-1.5-0.5-2.5c0-1.5,0.4-2.6,1.1-3.4s1.7-1.2,3-1.2c0.8,0,1.5,0.2,2.1,0.6s1.1,0.9,1.4,1.6C443,443.5,443.2,444.3,443.2,445.2z
		 M437.5,445.2c0,0.9,0.1,1.6,0.4,2c0.3,0.5,0.7,0.7,1.3,0.7c0.6,0,1-0.2,1.3-0.7s0.4-1.1,0.4-2s-0.1-1.6-0.4-2s-0.7-0.7-1.3-0.7
		c-0.6,0-1,0.2-1.3,0.7S437.5,444.3,437.5,445.2z"/>
	<path id="XMLID_376_" class="st1" d="M450.9,449.7l-0.3-1.1h-0.1c-0.2,0.4-0.6,0.7-1,1c-0.4,0.2-0.9,0.3-1.5,0.3
		c-1,0-1.7-0.3-2.2-0.8c-0.5-0.6-0.7-1.4-0.7-2.4v-5.8h2.2v5.2c0,0.6,0.1,1.1,0.3,1.5c0.2,0.3,0.5,0.5,1,0.5c0.6,0,1.1-0.2,1.4-0.7
		s0.4-1.2,0.4-2.3v-4.2h2.2v9h-1.7V449.7z"/>
	<path id="XMLID_378_" class="st1" d="M466.5,449.7h-2.2v-5.2c0-0.6-0.1-1.1-0.3-1.5c-0.2-0.3-0.5-0.5-1-0.5c-0.6,0-1.1,0.2-1.4,0.7
		s-0.4,1.2-0.4,2.3v4.2H459v-9h1.7l0.3,1.1h0.1c0.3-0.4,0.6-0.8,1-1s0.9-0.3,1.5-0.3c1,0,1.7,0.3,2.2,0.8c0.5,0.6,0.7,1.4,0.7,2.4
		L466.5,449.7L466.5,449.7z"/>
	<path id="XMLID_380_" class="st1" d="M472.5,449.9c-1.3,0-2.4-0.4-3.1-1.2c-0.7-0.8-1.1-1.9-1.1-3.4s0.3-2.7,1-3.5s1.6-1.2,2.9-1.2
		c1.2,0,2.1,0.4,2.7,1.1s1,1.7,1,3v1.2h-5.3c0,0.7,0.2,1.2,0.6,1.6s0.8,0.6,1.5,0.6c0.5,0,1-0.1,1.4-0.2s0.9-0.3,1.4-0.5v1.9
		c-0.4,0.2-0.8,0.4-1.3,0.5C473.7,449.8,473.2,449.9,472.5,449.9z M472.2,442.3c-0.5,0-0.8,0.2-1.1,0.5c-0.3,0.3-0.4,0.8-0.5,1.4
		h3.2c0-0.6-0.2-1.1-0.4-1.4C473.1,442.5,472.7,442.3,472.2,442.3z"/>
	<path id="XMLID_383_" class="st1" d="M481.4,449.9c-1.3,0-2.4-0.4-3.1-1.2c-0.7-0.8-1.1-1.9-1.1-3.4s0.3-2.7,1-3.5s1.6-1.2,2.9-1.2
		c1.2,0,2.1,0.4,2.7,1.1s1,1.7,1,3v1.2h-5.3c0,0.7,0.2,1.2,0.6,1.6s0.8,0.6,1.5,0.6c0.5,0,1-0.1,1.4-0.2s0.9-0.3,1.4-0.5v1.9
		c-0.4,0.2-0.8,0.4-1.3,0.5C482.6,449.8,482.1,449.9,481.4,449.9z M481.1,442.3c-0.5,0-0.8,0.2-1.1,0.5c-0.3,0.3-0.4,0.8-0.5,1.4
		h3.2c0-0.6-0.2-1.1-0.4-1.4C482,442.5,481.6,442.3,481.1,442.3z"/>
	<path id="XMLID_386_" class="st1" d="M489.2,449.9c-1,0-1.7-0.4-2.3-1.2c-0.6-0.8-0.8-2-0.8-3.4c0-1.5,0.3-2.6,0.8-3.4
		c0.6-0.8,1.3-1.2,2.3-1.2s1.8,0.4,2.4,1.3h0.1c-0.1-0.7-0.2-1.3-0.2-1.8v-2.9h2.3v12.5h-1.7l-0.4-1.2h-0.1
		C491.1,449.4,490.3,449.9,489.2,449.9z M490,447.9c0.6,0,1-0.2,1.3-0.5c0.3-0.4,0.4-1,0.4-1.9v-0.3c0-1-0.1-1.7-0.4-2.1
		s-0.7-0.6-1.3-0.6c-0.5,0-0.9,0.2-1.2,0.7c-0.3,0.5-0.4,1.1-0.4,2s0.1,1.5,0.4,2C489.1,447.7,489.5,447.9,490,447.9z"/>
	<path id="XMLID_389_" class="st1" d="M505.3,449.7l-0.4-1.2h-0.1c-0.4,0.5-0.8,0.9-1.2,1.1c-0.4,0.2-0.9,0.3-1.6,0.3
		c-0.8,0-1.4-0.2-1.9-0.7s-0.7-1.2-0.7-2.1c0-1,0.3-1.7,0.9-2.1c0.6-0.5,1.5-0.7,2.8-0.7h1.4v-0.4c0-0.9-0.4-1.4-1.3-1.4
		c-0.7,0-1.4,0.2-2.3,0.6l-0.7-1.7c0.9-0.5,2-0.8,3.2-0.8c1.1,0,2,0.3,2.5,0.8c0.6,0.5,0.9,1.3,0.9,2.4v6L505.3,449.7L505.3,449.7z
		 M504.7,445.6h-0.9c-0.7,0-1.1,0.2-1.5,0.4c-0.3,0.2-0.5,0.6-0.5,1.1c0,0.7,0.4,1,1.1,1c0.5,0,0.9-0.2,1.2-0.5
		c0.3-0.3,0.5-0.8,0.5-1.3L504.7,445.6L504.7,445.6z"/>
	<path id="XMLID_392_" class="st1" d="M512.5,449.9c-2.6,0-3.8-1.5-3.8-4.6c0-1.5,0.3-2.7,1-3.5s1.7-1.2,3-1.2c1,0,1.8,0.2,2.6,0.6
		l-0.7,1.9c-0.4-0.2-0.7-0.3-1-0.4s-0.6-0.1-0.9-0.1c-1.2,0-1.8,0.9-1.8,2.7c0,1.8,0.6,2.6,1.8,2.6c0.4,0,0.8-0.1,1.2-0.2
		s0.7-0.3,1.1-0.6v2.1c-0.4,0.3-0.7,0.4-1.1,0.5C513.6,449.8,513.1,449.9,512.5,449.9z"/>
	<path id="XMLID_394_" class="st1" d="M521.5,440.6c0.3,0,0.6,0,0.8,0.1l-0.2,2.3c-0.2-0.1-0.4-0.1-0.7-0.1c-0.7,0-1.3,0.2-1.7,0.6
		s-0.6,1-0.6,1.7v4.6h-2.2v-9h1.7l0.3,1.5h0.1c0.3-0.5,0.6-0.9,1-1.2C520.6,440.7,521,440.6,521.5,440.6z"/>
	<path id="XMLID_396_" class="st1" d="M531.1,445.2c0,1.5-0.4,2.6-1.1,3.4c-0.7,0.8-1.7,1.2-3,1.2c-0.8,0-1.5-0.2-2.1-0.6
		s-1.1-0.9-1.4-1.6c-0.3-0.7-0.5-1.5-0.5-2.5c0-1.5,0.4-2.6,1.1-3.4c0.7-0.8,1.7-1.2,3-1.2c0.8,0,1.5,0.2,2.1,0.6s1.1,0.9,1.4,1.6
		C531,443.5,531.1,444.3,531.1,445.2z M525.4,445.2c0,0.9,0.1,1.6,0.4,2c0.3,0.5,0.7,0.7,1.3,0.7s1-0.2,1.3-0.7s0.4-1.1,0.4-2
		s-0.1-1.6-0.4-2c-0.3-0.4-0.7-0.7-1.3-0.7s-1,0.2-1.3,0.7C525.6,443.7,525.4,444.3,525.4,445.2z"/>
	<path id="XMLID_399_" class="st1" d="M538.7,447.1c0,0.9-0.3,1.6-0.9,2.1c-0.6,0.5-1.5,0.7-2.6,0.7c-0.6,0-1.1,0-1.5-0.1
		s-0.8-0.2-1.2-0.4v-2c0.4,0.2,0.9,0.4,1.4,0.5s1,0.2,1.4,0.2c0.8,0,1.2-0.3,1.2-0.8c0-0.2-0.1-0.3-0.2-0.5
		c-0.1-0.1-0.3-0.3-0.6-0.4c-0.3-0.2-0.6-0.3-1.1-0.5c-0.6-0.3-1.1-0.6-1.4-0.8c-0.3-0.2-0.5-0.5-0.6-0.8s-0.2-0.7-0.2-1.2
		c0-0.8,0.3-1.4,0.9-1.8c0.6-0.4,1.4-0.7,2.4-0.7s2,0.2,2.9,0.7l-0.7,1.8c-0.4-0.2-0.8-0.3-1.2-0.5c-0.4-0.1-0.7-0.2-1.1-0.2
		c-0.7,0-1,0.2-1,0.6c0,0.2,0.1,0.4,0.3,0.6s0.7,0.4,1.4,0.7c0.6,0.3,1.1,0.5,1.4,0.8c0.3,0.2,0.5,0.5,0.7,0.8
		C538.7,446.2,538.7,446.6,538.7,447.1z"/>
	<path id="XMLID_401_" class="st1" d="M546.2,447.1c0,0.9-0.3,1.6-0.9,2.1c-0.6,0.5-1.5,0.7-2.6,0.7c-0.6,0-1.1,0-1.5-0.1
		s-0.8-0.2-1.2-0.4v-2c0.4,0.2,0.9,0.4,1.4,0.5s1,0.2,1.4,0.2c0.8,0,1.2-0.3,1.2-0.8c0-0.2-0.1-0.3-0.2-0.5
		c-0.1-0.1-0.3-0.3-0.6-0.4c-0.3-0.2-0.6-0.3-1.1-0.5c-0.6-0.3-1.1-0.6-1.4-0.8c-0.3-0.2-0.5-0.5-0.6-0.8s-0.2-0.7-0.2-1.2
		c0-0.8,0.3-1.4,0.9-1.8c0.6-0.4,1.4-0.7,2.4-0.7s2,0.2,2.9,0.7l-0.7,1.8c-0.4-0.2-0.8-0.3-1.2-0.5c-0.4-0.1-0.7-0.2-1.1-0.2
		c-0.7,0-1,0.2-1,0.6c0,0.2,0.1,0.4,0.3,0.6s0.7,0.4,1.4,0.7c0.6,0.3,1.1,0.5,1.4,0.8c0.3,0.2,0.5,0.5,0.7,0.8
		C546.2,446.2,546.2,446.6,546.2,447.1z"/>
	<path id="XMLID_403_" class="st1" d="M243.5,471.4l-0.4-1.2H243c-0.4,0.5-0.8,0.9-1.2,1.1s-0.9,0.3-1.6,0.3c-0.8,0-1.4-0.2-1.9-0.7
		s-0.7-1.2-0.7-2.1c0-1,0.3-1.7,0.9-2.1c0.6-0.5,1.5-0.7,2.8-0.7h1.4v-0.4c0-0.9-0.4-1.4-1.3-1.4c-0.7,0-1.4,0.2-2.3,0.6l-0.7-1.7
		c0.9-0.5,2-0.8,3.2-0.8c1.1,0,2,0.3,2.5,0.8c0.6,0.5,0.9,1.3,0.9,2.4v6L243.5,471.4L243.5,471.4z M242.9,467.2H242
		c-0.7,0-1.1,0.1-1.5,0.4c-0.3,0.2-0.5,0.6-0.5,1.1c0,0.7,0.4,1,1.1,1c0.5,0,0.9-0.2,1.2-0.5s0.5-0.8,0.5-1.3L242.9,467.2
		L242.9,467.2z"/>
	<path id="XMLID_406_" class="st1" d="M258.9,471.4h-2.2v-5.2c0-1.3-0.4-1.9-1.3-1.9c-0.6,0-1.1,0.2-1.4,0.7s-0.4,1.2-0.4,2.3v4.2
		h-2.2V459h2.2v2.5c0,0.2,0,0.7-0.1,1.4l-0.1,0.7h0.1c0.5-0.9,1.3-1.3,2.4-1.3c1,0,1.7,0.3,2.2,0.8c0.5,0.6,0.8,1.4,0.8,2.4V471.4z"
		/>
	<path id="XMLID_408_" class="st1" d="M268.7,466.9c0,1.5-0.4,2.6-1.1,3.4s-1.7,1.2-3,1.2c-0.8,0-1.5-0.2-2.1-0.6s-1.1-0.9-1.4-1.6
		s-0.5-1.5-0.5-2.5c0-1.5,0.4-2.6,1.1-3.4s1.7-1.2,3-1.2c0.8,0,1.5,0.2,2.1,0.6s1.1,0.9,1.4,1.6
		C268.6,465.1,268.7,465.9,268.7,466.9z M263,466.9c0,0.9,0.1,1.6,0.4,2c0.3,0.5,0.7,0.7,1.3,0.7c0.6,0,1-0.2,1.3-0.7s0.4-1.1,0.4-2
		s-0.1-1.6-0.4-2s-0.7-0.7-1.3-0.7c-0.6,0-1,0.2-1.3,0.7C263.2,465.3,263,466,263,466.9z"/>
	<path id="XMLID_411_" class="st1" d="M276.3,468.7c0,0.9-0.3,1.6-0.9,2.1s-1.5,0.7-2.6,0.7c-0.6,0-1.1,0-1.5-0.1s-0.8-0.2-1.2-0.4
		v-2c0.4,0.2,0.9,0.4,1.4,0.5s1,0.2,1.4,0.2c0.8,0,1.2-0.3,1.2-0.8c0-0.2-0.1-0.3-0.2-0.5c-0.1-0.1-0.3-0.3-0.6-0.4
		c-0.3-0.2-0.6-0.3-1.1-0.5c-0.6-0.3-1.1-0.6-1.4-0.8c-0.3-0.2-0.5-0.5-0.6-0.8s-0.2-0.7-0.2-1.2c0-0.8,0.3-1.4,0.9-1.8
		s1.4-0.7,2.4-0.7s2,0.2,2.9,0.7l-0.7,1.8c-0.4-0.2-0.8-0.4-1.2-0.5c-0.4-0.1-0.7-0.2-1.1-0.2c-0.7,0-1,0.2-1,0.6
		c0,0.2,0.1,0.4,0.3,0.6c0.2,0.2,0.7,0.4,1.4,0.7c0.6,0.3,1.1,0.5,1.4,0.8c0.3,0.2,0.5,0.5,0.7,0.8
		C276.3,467.9,276.3,468.3,276.3,468.7z"/>
	<path id="XMLID_413_" class="st1" d="M281.6,469.6c0.4,0,0.9-0.1,1.4-0.3v1.8c-0.6,0.3-1.2,0.4-2.1,0.4s-1.6-0.2-2-0.7
		s-0.6-1.2-0.6-2.2v-4.3h-1.1v-1l1.2-0.8l0.6-1.9h1.4v1.9h2.3v1.8h-2.3v4.3c0,0.3,0.1,0.6,0.3,0.8
		C281,469.5,281.3,469.6,281.6,469.6z"/>
	<path id="XMLID_415_" class="st1" d="M296,466.9c0,1.5-0.4,2.6-1.1,3.4s-1.7,1.2-3,1.2c-0.8,0-1.5-0.2-2.1-0.6s-1.1-0.9-1.4-1.6
		s-0.5-1.5-0.5-2.5c0-1.5,0.4-2.6,1.1-3.4s1.7-1.2,3-1.2c0.8,0,1.5,0.2,2.1,0.6s1.1,0.9,1.4,1.6C295.9,465.1,296,465.9,296,466.9z
		 M290.3,466.9c0,0.9,0.1,1.6,0.4,2c0.3,0.5,0.7,0.7,1.3,0.7c0.6,0,1-0.2,1.3-0.7s0.4-1.1,0.4-2s-0.1-1.6-0.4-2s-0.7-0.7-1.3-0.7
		c-0.6,0-1,0.2-1.3,0.7C290.5,465.3,290.3,466,290.3,466.9z"/>
	<path id="XMLID_418_" class="st1" d="M302.4,464.2h-1.9v7.1h-2.2v-7.1H297V463l1.2-0.7v-0.7c0-1,0.2-1.8,0.7-2.2
		c0.5-0.5,1.2-0.7,2.2-0.7c0.8,0,1.5,0.1,2.1,0.4l-0.6,1.8c-0.5-0.2-0.9-0.2-1.3-0.2c-0.3,0-0.5,0.1-0.7,0.3
		c-0.1,0.2-0.2,0.5-0.2,0.8v0.6h1.9L302.4,464.2L302.4,464.2z"/>
	<path id="XMLID_420_" class="st1" d="M309.6,471.4l-3.1-9h2.3l1.6,5.1c0.2,0.6,0.3,1.2,0.3,1.8h0.1c0-0.6,0.1-1.2,0.3-1.8l1.6-5.1
		h2.3l-3.1,9H309.6z"/>
	<path id="XMLID_422_" class="st1" d="M320,471.5c-1.3,0-2.4-0.4-3.1-1.2c-0.7-0.8-1.1-1.9-1.1-3.4s0.3-2.7,1-3.5s1.6-1.2,2.9-1.2
		c1.2,0,2.1,0.4,2.7,1.1s1,1.7,1,3v1.2H318c0,0.7,0.2,1.2,0.6,1.6s0.8,0.6,1.5,0.6c0.5,0,1-0.1,1.4-0.2s0.9-0.3,1.4-0.5v1.9
		c-0.4,0.2-0.8,0.4-1.3,0.5S320.6,471.5,320,471.5z M319.6,464c-0.5,0-0.8,0.2-1.1,0.5c-0.3,0.3-0.4,0.8-0.5,1.4h3.2
		c0-0.6-0.2-1.1-0.4-1.4C320.5,464.1,320.1,464,319.6,464z"/>
	<path id="XMLID_425_" class="st1" d="M332.7,471.4h-2.2v-5.2c0-0.6-0.1-1.1-0.3-1.5c-0.2-0.3-0.5-0.5-1-0.5c-0.6,0-1.1,0.2-1.4,0.7
		s-0.4,1.2-0.4,2.3v4.2h-2.2v-9h1.7l0.3,1.1h0.1c0.3-0.4,0.6-0.8,1-1s0.9-0.3,1.5-0.3c1,0,1.7,0.3,2.2,0.8c0.5,0.6,0.7,1.4,0.7,2.4
		L332.7,471.4L332.7,471.4z"/>
	<path id="XMLID_427_" class="st1" d="M337.7,471.5c-1,0-1.7-0.4-2.3-1.2c-0.6-0.8-0.8-1.9-0.8-3.4s0.3-2.6,0.8-3.4
		c0.6-0.8,1.3-1.2,2.3-1.2s1.8,0.4,2.4,1.3h0.1c-0.1-0.7-0.2-1.3-0.2-1.8v-2.9h2.3v12.5h-1.7l-0.4-1.2H340
		C339.5,471.1,338.7,471.5,337.7,471.5z M338.4,469.6c0.6,0,1-0.2,1.3-0.5c0.3-0.4,0.4-1,0.4-1.9v-0.3c0-1-0.1-1.7-0.4-2.1
		s-0.7-0.6-1.3-0.6c-0.5,0-0.9,0.2-1.2,0.7c-0.3,0.5-0.4,1.1-0.4,2s0.1,1.5,0.4,2C337.5,469.4,337.9,469.6,338.4,469.6z"/>
	<path id="XMLID_430_" class="st1" d="M352.1,466.9c0,1.5-0.4,2.6-1.1,3.4s-1.7,1.2-3,1.2c-0.8,0-1.5-0.2-2.1-0.6s-1.1-0.9-1.4-1.6
		s-0.5-1.5-0.5-2.5c0-1.5,0.4-2.6,1.1-3.4s1.7-1.2,3-1.2c0.8,0,1.5,0.2,2.1,0.6s1.1,0.9,1.4,1.6S352.1,465.9,352.1,466.9z
		 M346.4,466.9c0,0.9,0.1,1.6,0.4,2c0.3,0.5,0.7,0.7,1.3,0.7c0.6,0,1-0.2,1.3-0.7s0.4-1.1,0.4-2s-0.1-1.6-0.4-2s-0.7-0.7-1.3-0.7
		c-0.6,0-1,0.2-1.3,0.7C346.5,465.3,346.4,466,346.4,466.9z"/>
	<path id="XMLID_433_" class="st1" d="M358.5,462.2c0.3,0,0.6,0,0.8,0.1l-0.2,2.3c-0.2-0.1-0.4-0.1-0.7-0.1c-0.7,0-1.3,0.2-1.7,0.6
		c-0.4,0.4-0.6,1-0.6,1.7v4.6h-2.2v-9h1.7l0.3,1.5h0.1c0.3-0.5,0.6-0.9,1-1.2C357.5,462.4,358,462.2,358.5,462.2z"/>
	<path id="XMLID_435_" class="st1" d="M366.5,468.7c0,0.9-0.3,1.6-0.9,2.1s-1.5,0.7-2.6,0.7c-0.6,0-1.1,0-1.5-0.1s-0.8-0.2-1.2-0.4
		v-2c0.4,0.2,0.9,0.4,1.4,0.5s1,0.2,1.4,0.2c0.8,0,1.2-0.3,1.2-0.8c0-0.2-0.1-0.3-0.2-0.5c-0.1-0.1-0.3-0.3-0.6-0.4
		c-0.3-0.2-0.6-0.3-1.1-0.5c-0.6-0.3-1.1-0.6-1.4-0.8c-0.3-0.2-0.5-0.5-0.6-0.8s-0.2-0.7-0.2-1.2c0-0.8,0.3-1.4,0.9-1.8
		s1.4-0.7,2.4-0.7s2,0.2,2.9,0.7l-0.7,1.8c-0.4-0.2-0.8-0.4-1.2-0.5c-0.4-0.1-0.7-0.2-1.1-0.2c-0.7,0-1,0.2-1,0.6
		c0,0.2,0.1,0.4,0.3,0.6c0.2,0.2,0.7,0.4,1.4,0.7c0.6,0.3,1.1,0.5,1.4,0.8c0.3,0.2,0.5,0.5,0.7,0.8
		C366.5,467.9,366.5,468.3,366.5,468.7z"/>
	<path id="XMLID_437_" class="st1" d="M377.4,471.4l-0.4-1.2h-0.1c-0.4,0.5-0.8,0.9-1.2,1.1c-0.4,0.2-0.9,0.3-1.6,0.3
		c-0.8,0-1.4-0.2-1.9-0.7s-0.7-1.2-0.7-2.1c0-1,0.3-1.7,0.9-2.1c0.6-0.5,1.5-0.7,2.8-0.7h1.4v-0.4c0-0.9-0.4-1.4-1.3-1.4
		c-0.7,0-1.4,0.2-2.3,0.6l-0.7-1.7c0.9-0.5,2-0.8,3.2-0.8c1.1,0,2,0.3,2.5,0.8c0.6,0.5,0.9,1.3,0.9,2.4v6L377.4,471.4L377.4,471.4z
		 M376.8,467.2h-0.9c-0.7,0-1.1,0.1-1.5,0.4c-0.3,0.2-0.5,0.6-0.5,1.1c0,0.7,0.4,1,1.1,1c0.5,0,0.9-0.2,1.2-0.5
		c0.3-0.3,0.5-0.8,0.5-1.3L376.8,467.2L376.8,467.2z"/>
	<path id="XMLID_440_" class="st1" d="M388.9,471.4h-2.2v-5.2c0-0.6-0.1-1.1-0.3-1.5c-0.2-0.3-0.5-0.5-1-0.5c-0.6,0-1.1,0.2-1.4,0.7
		s-0.4,1.2-0.4,2.3v4.2h-2.2v-9h1.7l0.3,1.1h0.1c0.3-0.4,0.6-0.8,1-1s0.9-0.3,1.5-0.3c1,0,1.7,0.3,2.2,0.8c0.5,0.6,0.7,1.4,0.7,2.4
		L388.9,471.4L388.9,471.4z"/>
	<path id="XMLID_442_" class="st1" d="M393.8,471.5c-1,0-1.7-0.4-2.3-1.2c-0.6-0.8-0.8-1.9-0.8-3.4s0.3-2.6,0.8-3.4
		c0.6-0.8,1.3-1.2,2.3-1.2s1.8,0.4,2.4,1.3h0.1c-0.1-0.7-0.2-1.3-0.2-1.8v-2.9h2.3v12.5h-1.7l-0.4-1.2h-0.1
		C395.7,471.1,394.9,471.5,393.8,471.5z M394.6,469.6c0.6,0,1-0.2,1.3-0.5c0.3-0.4,0.4-1,0.4-1.9v-0.3c0-1-0.1-1.7-0.4-2.1
		s-0.7-0.6-1.3-0.6c-0.5,0-0.9,0.2-1.2,0.7c-0.3,0.5-0.4,1.1-0.4,2s0.1,1.5,0.4,2C393.7,469.4,394.1,469.6,394.6,469.6z"/>
	<path id="XMLID_445_" class="st1" d="M412.1,471.4h-2.2v-5.2c0-0.6-0.1-1.1-0.3-1.5c-0.2-0.3-0.5-0.5-0.9-0.5c-0.6,0-1,0.2-1.3,0.7
		s-0.4,1.2-0.4,2.3v4.2h-2.2v-9h1.7l0.3,1.1h0.1c0.2-0.4,0.5-0.7,1-1c0.4-0.2,0.9-0.3,1.4-0.3c1.2,0,2.1,0.4,2.5,1.3h0.2
		c0.2-0.4,0.5-0.7,1-1s0.9-0.3,1.5-0.3c0.9,0,1.6,0.3,2.1,0.8s0.7,1.4,0.7,2.5v5.8H415v-5.2c0-0.6-0.1-1.1-0.3-1.5
		c-0.2-0.3-0.5-0.5-0.9-0.5c-0.6,0-1,0.2-1.2,0.6c-0.3,0.4-0.4,1.1-0.4,2v4.7H412.1z"/>
	<path id="XMLID_447_" class="st1" d="M423.2,471.5c-1.3,0-2.4-0.4-3.1-1.2c-0.7-0.8-1.1-1.9-1.1-3.4s0.3-2.7,1-3.5s1.6-1.2,2.9-1.2
		c1.2,0,2.1,0.4,2.7,1.1s1,1.7,1,3v1.2h-5.3c0,0.7,0.2,1.2,0.6,1.6s0.8,0.6,1.5,0.6c0.5,0,1-0.1,1.4-0.2s0.9-0.3,1.4-0.5v1.9
		c-0.4,0.2-0.8,0.4-1.3,0.5C424.4,471.5,423.9,471.5,423.2,471.5z M422.9,464c-0.5,0-0.8,0.2-1.1,0.5c-0.3,0.3-0.4,0.8-0.5,1.4h3.2
		c0-0.6-0.2-1.1-0.4-1.4C423.8,464.1,423.4,464,422.9,464z"/>
	<path id="XMLID_450_" class="st1" d="M433,462.2c0.3,0,0.6,0,0.8,0.1l-0.2,2.3c-0.2-0.1-0.4-0.1-0.7-0.1c-0.7,0-1.3,0.2-1.7,0.6
		c-0.4,0.4-0.6,1-0.6,1.7v4.6h-2.2v-9h1.7l0.3,1.5h0.1c0.3-0.5,0.6-0.9,1-1.2C432,462.4,432.5,462.2,433,462.2z"/>
	<path id="XMLID_452_" class="st1" d="M438.5,471.5c-2.6,0-3.8-1.5-3.8-4.6c0-1.5,0.3-2.7,1-3.5s1.7-1.2,3-1.2c1,0,1.8,0.2,2.6,0.6
		l-0.7,1.9c-0.4-0.2-0.7-0.3-1-0.4s-0.6-0.1-0.9-0.1c-1.2,0-1.8,0.9-1.8,2.7c0,1.8,0.6,2.6,1.8,2.6c0.4,0,0.8-0.1,1.2-0.2
		c0.4-0.1,0.7-0.3,1.1-0.6v2.1c-0.4,0.3-0.7,0.4-1.1,0.5C439.5,471.5,439,471.5,438.5,471.5z"/>
	<path id="XMLID_454_" class="st1" d="M450.5,471.4h-2.2v-5.2c0-1.3-0.4-1.9-1.3-1.9c-0.6,0-1.1,0.2-1.4,0.7s-0.4,1.2-0.4,2.3v4.2
		H443V459h2.2v2.5c0,0.2,0,0.7-0.1,1.4l-0.1,0.7h0.1c0.5-0.9,1.3-1.3,2.4-1.3c1,0,1.7,0.3,2.2,0.8c0.5,0.6,0.8,1.4,0.8,2.4V471.4z"
		/>
	<path id="XMLID_456_" class="st1" d="M458,471.4l-0.4-1.2h-0.1c-0.4,0.5-0.8,0.9-1.2,1.1c-0.4,0.2-0.9,0.3-1.6,0.3
		c-0.8,0-1.4-0.2-1.9-0.7s-0.7-1.2-0.7-2.1c0-1,0.3-1.7,0.9-2.1c0.6-0.5,1.5-0.7,2.8-0.7h1.4v-0.4c0-0.9-0.4-1.4-1.3-1.4
		c-0.7,0-1.4,0.2-2.3,0.6l-0.7-1.7c0.9-0.5,2-0.8,3.2-0.8c1.1,0,2,0.3,2.5,0.8c0.6,0.5,0.9,1.3,0.9,2.4v6L458,471.4L458,471.4z
		 M457.3,467.2h-0.9c-0.7,0-1.1,0.1-1.5,0.4c-0.3,0.2-0.5,0.6-0.5,1.1c0,0.7,0.4,1,1.1,1c0.5,0,0.9-0.2,1.2-0.5
		c0.3-0.3,0.5-0.8,0.5-1.3L457.3,467.2L457.3,467.2z"/>
	<path id="XMLID_459_" class="st1" d="M469.5,471.4h-2.2v-5.2c0-0.6-0.1-1.1-0.3-1.5c-0.2-0.3-0.5-0.5-1-0.5c-0.6,0-1.1,0.2-1.4,0.7
		s-0.4,1.2-0.4,2.3v4.2H462v-9h1.7l0.3,1.1h0.1c0.3-0.4,0.6-0.8,1-1s0.9-0.3,1.5-0.3c1,0,1.7,0.3,2.2,0.8c0.5,0.6,0.7,1.4,0.7,2.4
		L469.5,471.4L469.5,471.4z"/>
	<path id="XMLID_461_" class="st1" d="M475.3,469.6c0.4,0,0.9-0.1,1.4-0.3v1.8c-0.6,0.3-1.2,0.4-2.1,0.4s-1.6-0.2-2-0.7
		s-0.6-1.2-0.6-2.2v-4.3h-1v-1l1.2-0.8l0.6-1.9h1.4v1.9h2.3v1.8h-2.3v4.3c0,0.3,0.1,0.6,0.3,0.8C474.7,469.5,475,469.6,475.3,469.6z
		"/>
	<path id="XMLID_463_" class="st1" d="M484.1,468.7c0,0.9-0.3,1.6-0.9,2.1s-1.5,0.7-2.6,0.7c-0.6,0-1.1,0-1.5-0.1s-0.8-0.2-1.2-0.4
		v-2c0.4,0.2,0.9,0.4,1.4,0.5s1,0.2,1.4,0.2c0.8,0,1.2-0.3,1.2-0.8c0-0.2-0.1-0.3-0.2-0.5c-0.1-0.1-0.3-0.3-0.6-0.4
		s-0.6-0.3-1.1-0.5c-0.6-0.3-1.1-0.6-1.4-0.8c-0.3-0.2-0.5-0.5-0.6-0.8s-0.2-0.7-0.2-1.2c0-0.8,0.3-1.4,0.9-1.8s1.4-0.7,2.4-0.7
		s2,0.2,2.9,0.7l-0.7,1.8c-0.4-0.2-0.8-0.4-1.2-0.5c-0.4-0.1-0.7-0.2-1.1-0.2c-0.7,0-1,0.2-1,0.6c0,0.2,0.1,0.4,0.3,0.6
		c0.2,0.2,0.7,0.4,1.4,0.7c0.6,0.3,1.1,0.5,1.4,0.8c0.3,0.2,0.5,0.5,0.7,0.8C484,467.9,484.1,468.3,484.1,468.7z"/>
	<path id="XMLID_465_" class="st1" d="M489.7,460.1c0-0.8,0.4-1.2,1.2-1.2s1.2,0.4,1.2,1.2c0,0.4-0.1,0.7-0.3,0.9
		c-0.2,0.2-0.5,0.3-0.9,0.3C490.1,461.3,489.7,460.9,489.7,460.1z M492,471.4h-2.2v-9h2.2V471.4z"/>
	<path id="XMLID_468_" class="st1" d="M502,471.4h-2.2v-5.2c0-0.6-0.1-1.1-0.3-1.5c-0.2-0.3-0.5-0.5-1-0.5c-0.6,0-1.1,0.2-1.4,0.7
		s-0.4,1.2-0.4,2.3v4.2h-2.2v-9h1.7l0.3,1.1h0.1c0.3-0.4,0.6-0.8,1-1s0.9-0.3,1.5-0.3c1,0,1.7,0.3,2.2,0.8c0.5,0.6,0.7,1.4,0.7,2.4
		L502,471.4L502,471.4z"/>
	<path id="XMLID_470_" class="st1" d="M515.7,466.9c0,1.5-0.4,2.6-1.1,3.4c-0.7,0.8-1.7,1.2-3,1.2c-0.8,0-1.5-0.2-2.1-0.6
		s-1.1-0.9-1.4-1.6c-0.3-0.7-0.5-1.5-0.5-2.5c0-1.5,0.4-2.6,1.1-3.4c0.7-0.8,1.7-1.2,3-1.2c0.8,0,1.5,0.2,2.1,0.6s1.1,0.9,1.4,1.6
		C515.5,465.1,515.7,465.9,515.7,466.9z M510,466.9c0,0.9,0.1,1.6,0.4,2c0.3,0.5,0.7,0.7,1.3,0.7s1-0.2,1.3-0.7s0.4-1.1,0.4-2
		s-0.1-1.6-0.4-2c-0.3-0.4-0.7-0.7-1.3-0.7s-1,0.2-1.3,0.7C510.1,465.3,510,466,510,466.9z"/>
	<path id="XMLID_473_" class="st1" d="M525.1,471.4h-2.2v-5.2c0-0.6-0.1-1.1-0.3-1.5c-0.2-0.3-0.5-0.5-1-0.5c-0.6,0-1.1,0.2-1.4,0.7
		s-0.4,1.2-0.4,2.3v4.2h-2.2v-9h1.7l0.3,1.1h0.1c0.3-0.4,0.6-0.8,1-1s0.9-0.3,1.5-0.3c1,0,1.7,0.3,2.2,0.8c0.5,0.6,0.7,1.4,0.7,2.4
		L525.1,471.4L525.1,471.4z"/>
	<path id="XMLID_475_" class="st1" d="M531.2,471.5c-1.3,0-2.4-0.4-3.1-1.2c-0.7-0.8-1.1-1.9-1.1-3.4s0.3-2.7,1-3.5s1.6-1.2,2.9-1.2
		c1.2,0,2.1,0.4,2.7,1.1c0.6,0.7,1,1.7,1,3v1.2h-5.3c0,0.7,0.2,1.2,0.6,1.6c0.4,0.4,0.8,0.6,1.5,0.6c0.5,0,1-0.1,1.4-0.2
		s0.9-0.3,1.4-0.5v1.9c-0.4,0.2-0.8,0.4-1.3,0.5C532.4,471.5,531.8,471.5,531.2,471.5z M530.9,464c-0.5,0-0.8,0.2-1.1,0.5
		s-0.4,0.8-0.5,1.4h3.2c0-0.6-0.2-1.1-0.4-1.4C531.7,464.1,531.3,464,530.9,464z"/>
	<path id="XMLID_478_" class="st1" d="M544.8,471.5c-1,0-1.7-0.4-2.3-1.1h-0.1c0.1,0.7,0.1,1.2,0.1,1.3v3.6h-2.2v-12.9h1.8l0.3,1.2
		h0.1c0.5-0.9,1.3-1.3,2.3-1.3s1.7,0.4,2.3,1.2c0.6,0.8,0.8,2,0.8,3.4c0,1-0.1,1.8-0.4,2.5s-0.6,1.2-1.1,1.6
		S545.4,471.5,544.8,471.5z M544.1,464.2c-0.6,0-1,0.2-1.2,0.6c-0.3,0.4-0.4,1-0.4,1.8v0.3c0,1,0.1,1.7,0.4,2.1
		c0.3,0.4,0.7,0.6,1.2,0.6c1,0,1.5-0.9,1.5-2.7c0-0.9-0.1-1.5-0.4-2C545.1,464.4,544.7,464.2,544.1,464.2z"/>
	<path id="XMLID_481_" class="st1" d="M552.1,471.4h-2.2v-12.5h2.2V471.4z"/>
	<path id="XMLID_483_" class="st1" d="M559.7,471.4l-0.4-1.2h-0.1c-0.4,0.5-0.8,0.9-1.2,1.1s-0.9,0.3-1.6,0.3
		c-0.8,0-1.4-0.2-1.9-0.7s-0.7-1.2-0.7-2.1c0-1,0.3-1.7,0.9-2.1c0.6-0.5,1.5-0.7,2.8-0.7h1.4v-0.4c0-0.9-0.4-1.4-1.3-1.4
		c-0.7,0-1.4,0.2-2.3,0.6l-0.7-1.7c0.9-0.5,2-0.8,3.2-0.8c1.1,0,2,0.3,2.5,0.8c0.6,0.5,0.9,1.3,0.9,2.4v6L559.7,471.4L559.7,471.4z
		 M559,467.2h-0.9c-0.7,0-1.1,0.1-1.5,0.4c-0.3,0.2-0.5,0.6-0.5,1.1c0,0.7,0.4,1,1.1,1c0.5,0,0.9-0.2,1.2-0.5s0.5-0.8,0.5-1.3v-0.7
		H559z"/>
	<path id="XMLID_486_" class="st1" d="M566.9,471.5c-2.6,0-3.8-1.5-3.8-4.6c0-1.5,0.3-2.7,1-3.5s1.7-1.2,3-1.2c1,0,1.8,0.2,2.6,0.6
		l-0.7,1.9c-0.4-0.2-0.7-0.3-1-0.4s-0.6-0.1-0.9-0.1c-1.2,0-1.8,0.9-1.8,2.7c0,1.8,0.6,2.6,1.8,2.6c0.4,0,0.8-0.1,1.2-0.2
		s0.7-0.3,1.1-0.6v2.1c-0.4,0.3-0.7,0.4-1.1,0.5C567.9,471.5,567.4,471.5,566.9,471.5z"/>
	<path id="XMLID_488_" class="st1" d="M575,471.5c-1.3,0-2.4-0.4-3.1-1.2c-0.7-0.8-1.1-1.9-1.1-3.4s0.3-2.7,1-3.5s1.6-1.2,2.9-1.2
		c1.2,0,2.1,0.4,2.7,1.1c0.6,0.7,1,1.7,1,3v1.2h-5.3c0,0.7,0.2,1.2,0.6,1.6c0.4,0.4,0.8,0.6,1.5,0.6c0.5,0,1-0.1,1.4-0.2
		s0.9-0.3,1.4-0.5v1.9c-0.4,0.2-0.8,0.4-1.3,0.5C576.2,471.5,575.7,471.5,575,471.5z M574.7,464c-0.5,0-0.8,0.2-1.1,0.5
		s-0.4,0.8-0.5,1.4h3.2c0-0.6-0.2-1.1-0.4-1.4C575.6,464.1,575.2,464,574.7,464z"/>
	<path id="XMLID_491_" class="st1" d="M579.9,470.2c0-0.4,0.1-0.8,0.3-1s0.5-0.3,1-0.3c0.4,0,0.7,0.1,0.9,0.4c0.2,0.2,0.3,0.6,0.3,1
		s-0.1,0.8-0.3,1s-0.5,0.4-0.9,0.4s-0.7-0.1-1-0.4C580,471,579.9,470.7,579.9,470.2z M582.1,467.5h-1.8l-0.4-7.8h2.5L582.1,467.5z"
		/>
</g>
<g id="XMLID_6_">
	<g id="XMLID_177_">
		<path id="XMLID_182_" class="st2" d="M184.8,443.3l-14.6,14.6l-7.7-7.7l14.5-14.5c0.9,1.4,2,2.8,3.2,4
			C181.7,441.1,183.2,442.3,184.8,443.3z"/>
		<g id="XMLID_178_">
			<path id="XMLID_181_" class="st2" d="M141.6,471.1c-2.1,2.1-2.1,5.6,0,7.7s5.6,2.1,7.7,0l20.9-20.9l-7.7-7.7L141.6,471.1z"/>
			<circle id="XMLID_180_" class="st2" cx="197.1" cy="422.9" r="30.5"/>
			<path id="XMLID_179_" class="st2" d="M177,435.7c-5.9-9.2-4.8-21.5,3.2-29.6c9.3-9.3,24.3-9.3,33.6,0c9.3,9.3,9.3,24.3,0,33.6
				c-7.9,7.9-19.9,9.1-29.1,3.6c-1.6-1-3.1-2.2-4.5-3.6C179,438.5,177.9,437.1,177,435.7"/>
		</g>
	</g>
	<g id="XMLID_7_">
		<g id="XMLID_162_">
			<g id="XMLID_175_">
				<path id="XMLID_176_" class="st3" d="M175.1,377c0.4,0.4,0.9,0.6,1.4,0.6l44.5,0.1c0.5,0,1-0.2,1.4-0.6s0.6-0.9,0.6-1.4
					l0.1-60.1c0-1.1-0.9-2-2-2h-2c-0.3,0-0.5,0.2-0.5,0.5s0.2,0.5,0.5,0.5h2c0.6,0,1,0.5,1,1l-0.1,60.1c0,0.3-0.1,0.5-0.3,0.7
					c-0.2,0.2-0.4,0.3-0.7,0.3l-44.5-0.1c-0.3,0-0.5-0.1-0.7-0.3c-0.2-0.2-0.3-0.4-0.3-0.7l0.1-60.1c0-0.3,0.1-0.5,0.3-0.7
					c0.2-0.2,0.4-0.3,0.7-0.3h4.1c0.3,0,0.5-0.2,0.5-0.5s-0.2-0.5-0.5-0.5h-4.1c-0.5,0-1,0.2-1.4,0.6s-0.6,0.9-0.6,1.4l-0.1,60.1
					C174.5,376.1,174.7,376.6,175.1,377z"/>
			</g>
			<g id="XMLID_173_">
				<path id="XMLID_174_" class="st3" d="M198.2,314.4c0.1,0.1,0.2,0.1,0.3,0.1h2.8c0.3,0,0.5-0.2,0.5-0.5s-0.2-0.5-0.5-0.5h-2.8
					c-0.3,0-0.5,0.2-0.5,0.5C198,314.2,198.1,314.3,198.2,314.4z"/>
			</g>
			<g id="XMLID_171_">
				<path id="XMLID_172_" class="st3" d="M174.7,331c0.1,0.1,0.2,0.1,0.3,0.1l47.4,0.1c0.3,0,0.5-0.2,0.5-0.5s-0.2-0.5-0.5-0.5
					l-47.4-0.1c-0.3,0-0.5,0.2-0.5,0.5C174.6,330.7,174.6,330.9,174.7,331z"/>
			</g>
			<g id="XMLID_167_">
				<path id="XMLID_168_" class="st3" d="M200.8,319.6v-7.5c0-0.5,0.2-1,0.6-1.4c0.4-0.4,0.9-0.6,1.4-0.6h14.9c0.5,0,1,0.2,1.4,0.6
					c0.4,0.4,0.6,0.9,0.6,1.4v7.5c0,0.5-0.2,1-0.6,1.4c-0.4,0.4-0.9,0.6-1.4,0.6h-14.9c-0.5,0-1-0.2-1.4-0.6
					C201,320.6,200.8,320.1,200.8,319.6z M217.6,311.1h-14.9c-0.3,0-0.5,0.1-0.7,0.3c-0.2,0.2-0.3,0.4-0.3,0.7v7.5
					c0,0.3,0.1,0.5,0.3,0.7c0.2,0.2,0.4,0.3,0.7,0.3h14.9c0.3,0,0.5-0.1,0.7-0.3c0.2-0.2,0.3-0.4,0.3-0.7v-7.5
					c0-0.3-0.1-0.5-0.3-0.7C218.2,311.2,217.9,311.1,217.6,311.1z"/>
			</g>
			<g id="XMLID_163_">
				<path id="XMLID_165_" class="st3" d="M180.2,319.6v-7.5c0-0.5,0.2-1,0.6-1.4c0.4-0.4,0.9-0.6,1.4-0.6h14.9c0.5,0,1,0.2,1.4,0.6
					c0.4,0.4,0.6,0.9,0.6,1.4v7.5c0,1.1-0.9,2-2,2h-14.9c-0.5,0-1-0.2-1.4-0.6C180.4,320.6,180.2,320.1,180.2,319.6z M197,311h-14.9
					c-0.3,0-0.5,0.1-0.7,0.3c-0.2,0.2-0.3,0.4-0.3,0.7v7.5c0,0.3,0.1,0.5,0.3,0.7c0.2,0.2,0.4,0.3,0.7,0.3H197c0.6,0,1-0.5,1-1V312
					c0-0.3-0.1-0.5-0.3-0.7C197.5,311.2,197.3,311,197,311z"/>
			</g>
		</g>
		<g id="XMLID_138_">
			<g id="XMLID_157_">
				
					<ellipse id="XMLID_164_" transform="matrix(0.7071 -0.7071 0.7071 0.7071 -345.4158 282.3403)" class="st4" cx="168.1" cy="558.1" rx="21.7" ry="19.5"/>
				<path id="XMLID_161_" class="st4" d="M126.1,603.9l-3.8-3.8c-0.3-0.3-0.3-0.7,0-0.9l14.9-14.9c0.3-0.3,0.7-0.3,0.9,0l3.8,3.8
					c0.3,0.3,0.3,0.7,0,0.9L127,603.9C126.8,604.1,126.4,604.1,126.1,603.9z"/>
				<path id="XMLID_160_" class="st4" d="M147.5,560.4c0,0,0.1,18.2-9.6,28"/>
				<path id="XMLID_159_" class="st4" d="M165.8,578.7c0,0-18.2-0.1-28,9.6"/>
			</g>
			<path id="XMLID_156_" class="st4" d="M166.9,600.6c-1.6,1.6-3.9,2.4-6,2.1c-1.6-0.2-3.2-0.9-4.5-2.1c-1.3-1.3-2-2.9-2.1-4.6
				c-0.2-2.1,0.5-4.3,2.1-5.9c1.6-1.6,3.8-2.3,5.9-2.1c1.7,0.1,3.3,0.9,4.6,2.1c1.3,1.3,2,2.9,2.1,4.5
				C169.2,596.7,168.5,598.9,166.9,600.6z"/>
			<path id="XMLID_155_" class="st4" d="M160.1,593.8c-1.6,1.6-3.8,2.3-5.9,2.2c-0.2-2.1,0.5-4.3,2.1-5.9c1.6-1.6,3.8-2.3,5.9-2.1
				C162.4,590,161.7,592.2,160.1,593.8z"/>
			<path id="XMLID_154_" class="st4" d="M166.9,600.6c-1.6,1.6-3.9,2.4-6,2.1c-0.2-2.1,0.5-4.4,2.1-6c1.7-1.7,3.9-2.4,6-2.1
				C169.2,596.7,168.5,598.9,166.9,600.6z"/>
			<line id="XMLID_153_" class="st4" x1="131.2" y1="590.4" x2="138.6" y2="592.5"/>
			<line id="XMLID_152_" class="st4" x1="127.1" y1="594.1" x2="134.5" y2="596.2"/>
			<polyline id="XMLID_151_" class="st4" points="169.6,541.7 170.8,542.8 174.2,546.3 177.1,549.2 180.5,552.6 183.9,556 
				184.7,556.8 			"/>
			<polyline id="XMLID_150_" class="st4" points="164.6,542.5 167.8,545.8 171.2,549.2 174.2,552.2 177.6,555.6 181,559 
				183.8,561.8 			"/>
			<polyline id="XMLID_149_" class="st4" points="160.6,544.4 164.9,548.7 168.3,552.1 171.3,555.1 174.7,558.5 178.1,561.9 
				182,565.8 			"/>
			<polyline id="XMLID_148_" class="st4" points="157.3,547 162,551.6 165.4,555 168.3,558 171.7,561.4 175.1,564.8 179.4,569.1 			
				"/>
			<polyline id="XMLID_147_" class="st4" points="154.6,550.2 159,554.6 162.4,558 165.4,560.9 168.8,564.3 172.2,567.7 
				176.2,571.7 			"/>
			<polyline id="XMLID_146_" class="st4" points="152.7,554 156.1,557.5 159.5,560.9 162.5,563.9 165.9,567.3 169.3,570.7 
				172.3,573.7 			"/>
			<polyline id="XMLID_145_" class="st4" points="151.6,558.9 153.2,560.4 156.6,563.8 159.6,566.8 163,570.2 166.4,573.6 
				167.5,574.7 			"/>
			
				<ellipse id="XMLID_144_" transform="matrix(0.7071 -0.7071 0.7071 0.7071 -345.467 282.4298)" class="st4" cx="168.2" cy="558.2" rx="17.9" ry="16.1"/>
			<polyline id="XMLID_143_" class="st4" points="155.8,570.5 159.6,566.8 162.5,563.9 165.4,560.9 168.3,558 171.3,555.1 
				174.2,552.2 177.1,549.2 180.4,545.9 			"/>
			<polyline id="XMLID_142_" class="st4" points="159.8,573.3 163,570.2 165.9,567.3 168.8,564.3 171.7,561.4 174.7,558.5 
				177.6,555.6 180.5,552.6 183.2,549.9 			"/>
			<polyline id="XMLID_141_" class="st4" points="165.2,574.7 166.4,573.6 169.3,570.7 172.2,567.7 175.1,564.8 178.1,561.9 
				181,559 183.9,556 184.6,555.3 			"/>
			<polyline id="XMLID_140_" class="st4" points="151.7,561.9 153.2,560.4 156.1,557.5 159,554.6 162,551.6 164.9,548.7 
				167.8,545.8 170.8,542.8 171.8,541.8 			"/>
			<polyline id="XMLID_139_" class="st4" points="153.3,567.1 156.6,563.8 159.5,560.9 162.4,558 165.4,555 168.3,552.1 
				171.2,549.2 174.2,546.3 177,543.4 			"/>
		</g>
		<g id="XMLID_130_">
			<path id="XMLID_137_" class="st4" d="M104.2,520.1h-8.7c-1.2,0-2.2-1-2.2-2.2v-21.8c0-1.2,1-2.2,2.2-2.2h8.7c1.2,0,2.2,1,2.2,2.2
				v21.8C106.4,519.1,105.4,520.1,104.2,520.1z"/>
			<path id="XMLID_49_" class="st4" d="M121.7,520.1H99c-1.1,0-1.9-0.9-1.9-1.9v-7.5c0-1.1,0.9-1.9,1.9-1.9h22.7
				c1.1,0,1.9,0.9,1.9,1.9v7.5C123.7,519.3,122.8,520.1,121.7,520.1z"/>
			<rect id="XMLID_135_" x="93.4" y="500.8" class="st4" width="12.9" height="2.6"/>
			<line id="XMLID_134_" class="st4" x1="103.4" y1="493.3" x2="103.4" y2="483.9"/>
			<line id="XMLID_133_" class="st4" x1="95.7" y1="493.3" x2="95.7" y2="479"/>
			
				<ellipse id="XMLID_132_" transform="matrix(-0.6713 -0.7412 0.7412 -0.6713 -189.6967 876.9839)" class="st4" cx="99.6" cy="480.6" rx="5.2" ry="2.6"/>
			<ellipse id="XMLID_131_" class="st4" cx="101.7" cy="514.4" rx="3.2" ry="4"/>
		</g>
		<g id="XMLID_112_">
			<path id="XMLID_129_" class="st4" d="M113.7,567.7c-1.9,1.1-4.2,1.7-6.6,1.7c-2,0-3.8-0.4-5.5-1.2"/>
			<path id="XMLID_128_" class="st4" d="M96.4,570.4c3,2.2,6.7,3.6,10.8,3.6c4.1,0,7.9-1.4,10.9-3.6"/>
			<path id="XMLID_127_" class="st4" d="M93.7,557.4c-0.1-0.5-0.1-1-0.1-1.5c0-1.3,0.2-2.5,0.5-3.7"/>
			<path id="XMLID_126_" class="st4" d="M124.8,559.7c0.3-1.2,0.4-2.5,0.4-3.9c0-10-8.1-18.1-18.1-18.1S89,545.8,89,555.8
				c0,2.1,0.3,4,1,5.9"/>
			<path id="XMLID_125_" class="st4" d="M120.1,552.2c0.3,1.2,0.5,2.4,0.5,3.7c0,0.3,0,0.7,0,1"/>
			<path id="XMLID_124_" class="st4" d="M94.2,552.2c1.6-5.7,6.8-9.8,13-9.8s11.4,4.1,13,9.8"/>
			<path id="XMLID_123_" class="st4" d="M107.1,542.4c-6.2,0-11.4,4.1-13,9.8h26C118.5,546.5,113.3,542.4,107.1,542.4z"/>
			<path id="XMLID_120_" class="st4" d="M120.1,552.2h-26c-0.3,1.2-0.5,2.4-0.5,3.7c0,0.5,0,1,0.1,1.5c0.9-0.4,1.9-0.6,2.9-0.6
				c3.8,0,6.8,3.1,6.8,6.8c0,1.8-0.7,3.4-1.8,4.6c1.7,0.8,3.5,1.2,5.5,1.2c2.4,0,4.6-0.6,6.6-1.7c-0.9-1.1-1.4-2.6-1.4-4.1
				c0-3.8,3.1-6.8,6.8-6.8c0.5,0,1,0.1,1.4,0.2c0-0.3,0-0.7,0-1C120.6,554.6,120.4,553.3,120.1,552.2z M107.1,557.5
				c-0.9,0-1.7-0.7-1.7-1.7c0-0.9,0.7-1.7,1.7-1.7c0.9,0,1.7,0.7,1.7,1.7C108.8,556.8,108.1,557.5,107.1,557.5z"/>
			<circle id="XMLID_119_" class="st4" cx="107.1" cy="555.9" r="1.7"/>
			<path id="XMLID_118_" class="st4" d="M101.6,568.2c-4.3-1.9-7.4-6-7.9-10.8"/>
			<path id="XMLID_117_" class="st4" d="M90,561.7c1.2,3.5,3.4,6.5,6.3,8.6"/>
			<path id="XMLID_116_" class="st4" d="M96.6,556.7c-1,0-2,0.2-2.9,0.6c0.5,4.8,3.6,8.9,7.9,10.8c1.1-1.2,1.8-2.8,1.8-4.6
				C103.4,559.8,100.4,556.7,96.6,556.7z"/>
			<path id="XMLID_115_" class="st4" d="M118,570.3c3.4-2.6,5.8-6.3,6.8-10.6"/>
			<path id="XMLID_114_" class="st4" d="M120.6,556.9c-0.3,4.6-3,8.6-6.9,10.8"/>
			<path id="XMLID_113_" class="st4" d="M112.3,563.6c0,1.5,0.5,3,1.4,4.1c3.9-2.1,6.5-6.1,6.9-10.8c-0.5-0.1-1-0.2-1.4-0.2
				C115.4,556.7,112.3,559.8,112.3,563.6z"/>
		</g>
		<path id="XMLID_111_" class="st5" d="M111,376.9c0,0-0.8,4.3-5.1,4.9c4.3,0.6,5.1,4.9,5.1,4.9s0.8-4.3,5.1-4.9
			C111.8,381.2,111,376.9,111,376.9"/>
		<path id="XMLID_110_" class="st5" d="M126.8,476.5c0,0-2,10.5-12.5,12.1c10.5,1.5,12.5,12.1,12.5,12.1s2-10.5,12.5-12.1
			C128.8,487,126.8,476.5,126.8,476.5"/>
		<g id="XMLID_107_">
			<path id="XMLID_109_" class="st4" d="M93.9,379.5c0,5.6-4.4,4.9-4.4,4.9H73.3c-3.6,0-7-1.4-9.6-3.9L51,368.1v17.4h-4.1l-2.2-17.9
				c-2.4-15.7,7.7-17,7.7-17l21,25.3l0,0l5.7-2.7L93.9,379.5z"/>
			<line id="XMLID_108_" class="st4" x1="51" y1="368.1" x2="44.9" y2="368.1"/>
		</g>
		<g id="XMLID_94_">
			<polyline id="XMLID_106_" class="st4" points="89,415.1 89,398.4 73,398.4 73,414.4 			"/>
			<polyline id="XMLID_105_" class="st4" points="87.6,441.1 89,441.1 89,455.7 73,455.7 73,441.1 73.2,441.1 			"/>
			<circle id="XMLID_104_" class="st4" cx="80.4" cy="427.7" r="15.2"/>
			<circle id="XMLID_103_" class="st4" cx="80.4" cy="427.7" r="11.3"/>
			
				<rect id="XMLID_102_" x="94.8" y="432.1" transform="matrix(-0.9191 -0.394 0.394 -0.9191 14.583 870.9082)" class="st4" width="3.8" height="3.7"/>
			
				<rect id="XMLID_101_" x="94.5" y="419.5" transform="matrix(0.9191 -0.394 0.394 0.9191 -158.2203 72.0684)" class="st4" width="3.8" height="3.7"/>
			<polyline id="XMLID_100_" class="st4" points="80.4,420.1 80.4,427.7 87.4,427.7 			"/>
			<circle id="XMLID_99_" class="st6" cx="80.3" cy="427.8" r="2.5"/>
			<line id="XMLID_98_" class="st4" x1="73" y1="408.8" x2="88" y2="408.8"/>
			<line id="XMLID_97_" class="st4" x1="73" y1="403.8" x2="88" y2="403.8"/>
			<line id="XMLID_96_" class="st4" x1="73.5" y1="451.1" x2="88.5" y2="451.1"/>
			<line id="XMLID_95_" class="st4" x1="73.5" y1="446.2" x2="88.5" y2="446.2"/>
		</g>
		<path id="XMLID_93_" class="st4" d="M62.5,486.3l-14.8-52.8c0,0,9.4-5.5,5.7-17.5h-4.1l-3.2-16.5h-5.5v8.7c0,3.6-2.9,6.4-6.4,6.4
			c-3.6,0-6.4-2.9-6.4-6.4v-8.7h-5.5l-3.1,16.6h-3.5c0,0-1.3,14.4,5.7,17.5L6.1,486.4h56.4V486.3z"/>
		<g id="XMLID_86_">
			<path id="XMLID_92_" class="st4" d="M123.6,445.5H147c3.8,0,6.9-3.1,6.9-6.9v-32.1c0-3.8-3.1-6.9-6.9-6.9h-29.3
				c-1.4,0-2.5,1.1-2.5,2.5V443c0,1.4,1.1,2.5,2.5,2.5h0.3"/>
			<line id="XMLID_91_" class="st4" x1="115.1" y1="436.8" x2="153.9" y2="436.8"/>
			<polygon id="XMLID_90_" class="st4" points="120.8,440 118,440 118,451 120.8,448.8 123.6,451 123.6,440 			"/>
			<rect id="XMLID_89_" x="124.5" y="405.5" class="st4" width="24.7" height="9.5"/>
			<line id="XMLID_88_" class="st4" x1="115.1" y1="439.9" x2="146.4" y2="439.9"/>
			<line id="XMLID_87_" class="st4" x1="119.4" y1="399.5" x2="119.4" y2="436.8"/>
		</g>
		<g id="XMLID_71_">
			<g id="XMLID_72_">
				<path id="XMLID_121_" class="st4" d="M62.3,509.4l11.3,1.4c1.7,0,3.1,1.1,3.1,2.5V563c0,1.4-1.4,2.5-3.1,2.5H26.3
					c-1.7,0-3.1-1.1-3.1-2.5v-49.7c0-1.4,1.4-2.5,3.1-2.5l7.9-1.4"/>
				<line id="XMLID_85_" class="st4" x1="48.4" y1="515.6" x2="48.4" y2="565.6"/>
				<polygon id="XMLID_84_" class="st4" points="71,540.4 64.4,542.7 57.8,540.4 57.8,527.8 71,527.8 				"/>
				<line id="XMLID_83_" class="st4" x1="38.8" y1="505" x2="57.8" y2="505"/>
				
					<rect id="XMLID_82_" x="38.3" y="505.2" transform="matrix(-0.7071 0.7071 -0.7071 -0.7071 432.716 845.3216)" class="st4" width="6" height="14.1"/>
				
					<rect id="XMLID_81_" x="52.2" y="505.4" transform="matrix(0.7071 0.7071 -0.7071 0.7071 378.3769 110.9717)" class="st4" width="6" height="13.6"/>
				<circle id="XMLID_80_" class="st4" cx="52.9" cy="525.2" r="1"/>
				<circle id="XMLID_79_" class="st4" cx="52.9" cy="531.1" r="1"/>
				<circle id="XMLID_78_" class="st4" cx="52.9" cy="536.9" r="1"/>
				<circle id="XMLID_77_" class="st4" cx="52.9" cy="542.8" r="1"/>
				<circle id="XMLID_76_" class="st4" cx="52.9" cy="548.7" r="1"/>
				<circle id="XMLID_75_" class="st4" cx="52.9" cy="554.6" r="1"/>
				<circle id="XMLID_74_" class="st4" cx="52.9" cy="560.5" r="1"/>
			</g>
		</g>
		<g id="XMLID_63_">
			<path id="XMLID_70_" class="st4" d="M153.6,328.4V382H141c-5,0.4-5.6-2.9-5.6-2.9v-2.9c2.5-1,4.3-3.3,4.3-5.9s-1.7-4.8-4.1-5.8
				l11.8-22.8C143.3,328,153.6,328.4,153.6,328.4z"/>
			<rect id="XMLID_4_" x="153.4" y="329" class="st7" width="6" height="53"/>
			<line id="XMLID_68_" class="st4" x1="139.9" y1="356.4" x2="144.5" y2="359.8"/>
			<line id="XMLID_67_" class="st4" x1="142" y1="351.8" x2="146.7" y2="355.3"/>
			<line id="XMLID_66_" class="st4" x1="144" y1="347.7" x2="148.6" y2="351.2"/>
			<path id="XMLID_65_" class="st4" d="M143.4,382c0,0-1.4-11.2,10.2-11.7"/>
			<line id="XMLID_64_" class="st4" x1="147.4" y1="341.8" x2="153.6" y2="341.8"/>
		</g>
		<g id="XMLID_56_">
			<path id="XMLID_62_" class="st8" d="M128.2,355.9H79.8c-1.1,0-2.1-1-2.1-2.2v-26.2c0-1.2,0.9-2.2,2.1-2.2h48.4
				c1.1,0,2.1,1,2.1,2.2v26.2C130.2,354.9,129.3,355.9,128.2,355.9z"/>
			<line id="XMLID_61_" class="st8" x1="77.7" y1="331.8" x2="130.2" y2="331.8"/>
			<circle id="XMLID_60_" class="st8" cx="104.3" cy="343.7" r="6.2"/>
			<line id="XMLID_59_" class="st8" x1="89.1" y1="331.8" x2="89.1" y2="355.9"/>
			<line id="XMLID_58_" class="st8" x1="119.4" y1="331.8" x2="119.4" y2="355.9"/>
			<rect id="XMLID_57_" x="79.8" y="321.5" class="st8" width="10.4" height="3.8"/>
		</g>
		<g id="XMLID_37_">
			<rect id="XMLID_55_" x="233" y="491.6" class="st4" width="2.5" height="30.8"/>
			<g id="XMLID_48_">
				<circle id="XMLID_73_" class="st4" cx="211.9" cy="579.6" r="4.5"/>
				<circle id="XMLID_54_" class="st4" cx="231.6" cy="579.6" r="4.5"/>
				
					<rect id="XMLID_53_" x="197.4" y="505.8" transform="matrix(4.746002e-003 -1 1 4.746002e-003 -295.359 717.2592)" class="st4" width="30.5" height="2.5"/>
				<path id="XMLID_52_" class="st4" d="M202.9,572.5v-48.7c0-0.9,0.7-1.6,1.6-1.6h35.7c0.9,0,1.6,0.7,1.6,1.6v48.7
					c0,0.9-0.7,1.6-1.6,1.6h-35.7C203.6,574.1,202.9,573.4,202.9,572.5z"/>
				<path id="XMLID_51_" class="st4" d="M209.9,489.8v-1.6c0-1,0.8-1.8,1.8-1.8h24.7c1,0,1.8,0.8,1.8,1.8v1.6c0,1-0.8,1.8-1.8,1.8
					h-24.7C210.7,491.6,209.9,490.8,209.9,489.8z"/>
				<polyline id="XMLID_50_" class="st4" points="202.9,527 239,527 241.8,527 				"/>
			</g>
			<line id="XMLID_47_" class="st4" x1="236.8" y1="573.4" x2="236.8" y2="527"/>
			<line id="XMLID_46_" class="st4" x1="203.4" y1="532.2" x2="231" y2="532.2"/>
			<line id="XMLID_45_" class="st4" x1="203.4" y1="536.7" x2="231" y2="536.7"/>
			<line id="XMLID_44_" class="st4" x1="203.4" y1="541.1" x2="231" y2="541.1"/>
			<line id="XMLID_43_" class="st4" x1="203.4" y1="545.6" x2="231" y2="545.6"/>
			<line id="XMLID_42_" class="st4" x1="203.4" y1="550" x2="231" y2="550"/>
			<line id="XMLID_41_" class="st4" x1="203.4" y1="554.5" x2="231" y2="554.5"/>
			<line id="XMLID_40_" class="st4" x1="203.4" y1="558.9" x2="231" y2="558.9"/>
			<line id="XMLID_39_" class="st4" x1="203.4" y1="563.4" x2="231" y2="563.4"/>
			<line id="XMLID_38_" class="st4" x1="203.4" y1="567.8" x2="231" y2="567.8"/>
		</g>
		<g id="XMLID_26_">
			<polygon id="XMLID_36_" class="st4" points="187.7,520.9 158.2,520.9 158.2,493.8 161.8,491 161.8,491 184,491 187.7,493.5 
				187.7,493.5 			"/>
			<rect id="XMLID_35_" x="166.1" y="496.6" class="st4" width="14.4" height="8.3"/>
			<rect id="XMLID_34_" x="165.8" y="487.9" class="st4" width="14.3" height="3"/>
			<line id="XMLID_33_" class="st4" x1="167.8" y1="501.8" x2="178.3" y2="501.8"/>
			<line id="XMLID_32_" class="st4" x1="161.8" y1="491" x2="161.8" y2="520.9"/>
			<line id="XMLID_31_" class="st4" x1="184" y1="491" x2="184" y2="520.9"/>
			<rect id="XMLID_30_" x="167.8" y="485.1" class="st4" width="10.5" height="2.8"/>
			<rect id="XMLID_29_" x="167.8" y="482.2" class="st4" width="10.6" height="2.8"/>
			<line id="XMLID_28_" class="st4" x1="173.3" y1="485.1" x2="182" y2="485.1"/>
			<circle id="XMLID_27_" class="st4" cx="184.1" cy="485.1" r="2.1"/>
		</g>
		<g id="XMLID_19_">
			<path id="XMLID_25_" class="st4" d="M293.1,534.6h-40.8c-1.8,0-3.2-2.5-3.2-5.6h44"/>
			<path id="XMLID_24_" class="st4" d="M293.1,524.8h-33.7c-1.4,0-2.5-1.1-2.5-2.5v-23.4c0-1.4,1.1-2.5,2.5-2.5h37.4
				c1.4,0,2.5,1.1,2.5,2.5v12.8"/>
			<path id="XMLID_3_" class="st4" d="M293.1,529h-36c-2.4,0-4.5-2-4.5-4.5v-28c0-2.4,2-4.5,4.5-4.5h42.1c2.4,0,4.5,2,4.5,4.5v15.1"
				/>
			<path id="XMLID_1_" class="st4" d="M307.7,541.7h-11.8c-1.6,0-2.8-1.3-2.8-2.8v-24.4c0-1.6,1.3-2.8,2.8-2.8h11.8
				c1.6,0,2.8,1.3,2.8,2.8v24.4C310.6,540.4,309.3,541.7,307.7,541.7z"/>
			<circle id="XMLID_21_" class="st4" cx="301.8" cy="537.7" r="1.6"/>
			<rect id="XMLID_20_" x="295.8" y="515.2" class="st4" width="12" height="17.4"/>
		</g>
		<g id="XMLID_9_">
			<circle id="XMLID_18_" class="st4" cx="253.7" cy="368" r="16.2"/>
			<circle id="XMLID_17_" class="st4" cx="253.7" cy="368" r="12.2"/>
			<polyline id="XMLID_16_" class="st4" points="263,348.1 269.9,346.9 275.8,352.9 275.8,358.6 267.9,360.1 			"/>
			<line id="XMLID_15_" class="st4" x1="263.5" y1="348.5" x2="275.8" y2="358.6"/>
			<polyline id="XMLID_14_" class="st4" points="269.9,346.9 269.6,353.5 275.8,352.9 			"/>
			<line id="XMLID_13_" class="st4" x1="263" y1="348.1" x2="263" y2="354.7"/>
			<line id="XMLID_12_" class="st4" x1="264.9" y1="356.2" x2="266.5" y2="351"/>
			<line id="XMLID_11_" class="st4" x1="265.8" y1="357.3" x2="269.6" y2="353.5"/>
			<line id="XMLID_10_" class="st4" x1="266.9" y1="358.6" x2="272.7" y2="356.2"/>
		</g>
		<path id="XMLID_8_" class="st9" d="M254,338.2c-0.9-1.9-2.6-4.4-5.7-5.9c3-1.4,4.7-3.9,5.7-5.9c0.9,1.9,2.6,4.4,5.7,5.9
			C256.6,333.8,254.9,336.3,254,338.2z"/>
	</g>
</g>
<g id="XMLID_22_">
	<path id="XMLID_23_" class="st1" d="M71,239.7h-5.7v-24.1H58v-5.1h20.3v5.2H71V239.7z"/>
	<path id="XMLID_185_" class="st1" d="M100.9,239.7h-5.6v-13c0-3.2-1.1-4.8-3.3-4.8c-1.6,0-2.7,0.6-3.4,1.7s-1,3-1,5.6v10.5H82
		v-31.1h5.6v6.3c0,0.5,0,1.7-0.1,3.5l-0.1,1.8h0.3c1.3-2.2,3.2-3.3,6-3.3c2.4,0,4.3,0.7,5.5,2.1c1.3,1.4,1.9,3.4,1.9,6.1v14.6H100.9
		z"/>
	<path id="XMLID_206_" class="st1" d="M116,240.1c-3.3,0-5.9-1-7.8-3s-2.8-4.8-2.8-8.4c0-3.8,0.9-6.6,2.6-8.7c1.7-2,4.1-3.1,7.1-3.1
		c2.9,0,5.2,0.9,6.8,2.7c1.6,1.8,2.4,4.3,2.4,7.5v3H111c0.1,1.7,0.5,3.1,1.4,4.1s2.1,1.5,3.7,1.5c1.2,0,2.4-0.1,3.5-0.4
		c1.1-0.3,2.3-0.7,3.5-1.3v4.7c-1,0.5-2,0.9-3.1,1.2C119,240,117.6,240.1,116,240.1z M115.2,221.3c-1.2,0-2.1,0.4-2.8,1.2
		c-0.7,0.8-1.1,2-1.2,3.5h7.9c0-1.5-0.4-2.7-1.1-3.5C117.4,221.7,116.4,221.3,115.2,221.3z"/>
	<path id="XMLID_496_" class="st1" d="M161.1,210.5v18.9c0,2.2-0.4,4.1-1.3,5.7c-0.9,1.6-2.2,2.9-3.9,3.7c-1.7,0.9-3.7,1.3-6,1.3
		c-3.5,0-6.1-1-8.1-2.9c-1.9-1.9-2.9-4.6-2.9-7.9v-18.8h5.7v17.9c0,2.3,0.4,3.9,1.3,5c0.8,1.1,2.2,1.6,4.1,1.6
		c1.9,0,3.2-0.5,4.1-1.6c0.8-1.1,1.3-2.7,1.3-5v-17.9H161.1z"/>
	<path id="XMLID_498_" class="st1" d="M181.6,233.1c0,2.3-0.7,4-2.2,5.2s-3.7,1.8-6.6,1.8c-1.5,0-2.8-0.1-3.8-0.3
		c-1.1-0.2-2-0.5-3-1v-5c1,0.5,2.2,1,3.5,1.3c1.3,0.3,2.5,0.5,3.5,0.5c2,0,3.1-0.6,3.1-1.9c0-0.5-0.1-0.9-0.4-1.2
		c-0.3-0.3-0.7-0.6-1.4-1c-0.7-0.4-1.5-0.8-2.6-1.3c-1.6-0.7-2.7-1.4-3.5-2c-0.7-0.6-1.3-1.3-1.6-2.1c-0.3-0.8-0.5-1.8-0.5-2.9
		c0-2,0.7-3.5,2.1-4.6c1.4-1.1,3.4-1.6,6-1.6c2.5,0,4.9,0.6,7.2,1.8l-1.7,4.4c-1-0.5-2-0.9-2.9-1.2s-1.8-0.5-2.7-0.5
		c-1.7,0-2.5,0.5-2.5,1.5c0,0.5,0.3,1,0.8,1.4c0.5,0.4,1.7,1,3.5,1.8c1.6,0.7,2.8,1.4,3.5,2c0.7,0.6,1.3,1.3,1.7,2.1
		C181.4,231,181.6,232,181.6,233.1z"/>
	<path id="XMLID_500_" class="st1" d="M195.3,240.1c-3.3,0-5.9-1-7.8-3c-1.9-2-2.8-4.8-2.8-8.4c0-3.8,0.9-6.6,2.6-8.7
		c1.7-2,4.1-3.1,7.1-3.1c2.9,0,5.2,0.9,6.8,2.7c1.6,1.8,2.4,4.3,2.4,7.5v3h-13.3c0.1,1.7,0.5,3.1,1.4,4.1s2.1,1.5,3.7,1.5
		c1.2,0,2.4-0.1,3.5-0.4c1.1-0.3,2.3-0.7,3.5-1.3v4.7c-1,0.5-2,0.9-3.1,1.2C198.3,240,196.9,240.1,195.3,240.1z M194.5,221.3
		c-1.2,0-2.1,0.4-2.8,1.2s-1.1,2-1.2,3.5h7.9c0-1.5-0.4-2.7-1.1-3.5C196.6,221.7,195.7,221.3,194.5,221.3z"/>
	<path id="XMLID_503_" class="st1" d="M219.7,216.9c0.8,0,1.4,0.1,1.9,0.2l-0.4,5.7c-0.5-0.1-1-0.2-1.7-0.2c-1.8,0-3.2,0.5-4.2,1.5
		s-1.5,2.4-1.5,4.2v11.4h-5.6v-22.3h4.3l0.8,3.8h0.3c0.6-1.3,1.5-2.3,2.6-3C217.3,217.3,218.5,216.9,219.7,216.9z"/>
	<path id="XMLID_505_" class="st1" d="M230.6,210.5l0.3,0.4c-0.6,2.6-1.7,5.8-3.2,9.6h-4c0.8-4,1.5-7.3,1.8-10H230.6z"/>
	<path id="XMLID_507_" class="st1" d="M248.1,233.1c0,2.3-0.7,4-2.2,5.2s-3.7,1.8-6.6,1.8c-1.5,0-2.8-0.1-3.8-0.3
		c-1.1-0.2-2-0.5-3-1v-5c1,0.5,2.2,1,3.5,1.3c1.3,0.4,2.5,0.5,3.5,0.5c2,0,3.1-0.6,3.1-1.9c0-0.5-0.1-0.9-0.4-1.2
		c-0.3-0.3-0.7-0.6-1.4-1c-0.7-0.4-1.5-0.8-2.6-1.3c-1.6-0.7-2.7-1.4-3.5-2c-0.7-0.6-1.3-1.3-1.6-2.1c-0.3-0.8-0.5-1.8-0.5-2.9
		c0-2,0.7-3.5,2.1-4.6c1.4-1.1,3.4-1.6,6-1.6c2.5,0,4.9,0.6,7.2,1.8l-1.7,4.4c-1-0.5-2-0.9-2.9-1.2s-1.8-0.5-2.7-0.5
		c-1.7,0-2.5,0.5-2.5,1.5c0,0.5,0.3,1,0.8,1.4c0.5,0.4,1.7,1,3.5,1.8c1.6,0.7,2.8,1.4,3.5,2c0.7,0.6,1.3,1.3,1.7,2.1
		C247.9,231,248.1,232,248.1,233.1z"/>
	<path id="XMLID_509_" class="st1" d="M272.9,223.3h10.7v15.2c-1.7,0.6-3.4,1-4.9,1.3c-1.5,0.2-3.1,0.4-4.7,0.4
		c-4.1,0-7.2-1.3-9.3-3.9c-2.1-2.6-3.2-6.3-3.2-11.2c0-4.7,1.2-8.4,3.7-11.1c2.5-2.6,5.9-4,10.3-4c2.8,0,5.4,0.6,8,1.8l-1.9,5
		c-2-1.1-4-1.6-6.1-1.6c-2.5,0-4.4,0.9-5.9,2.7c-1.5,1.8-2.2,4.2-2.2,7.3c0,3.2,0.6,5.6,1.8,7.3c1.2,1.7,2.9,2.5,5.2,2.5
		c1.2,0,2.4-0.1,3.6-0.4v-6.1h-5.1V223.3z"/>
	<path id="XMLID_511_" class="st1" d="M304.1,239.7l-0.8-2.9H303c-0.6,1-1.5,1.8-2.6,2.4c-1.1,0.6-2.4,0.9-3.8,0.9
		c-2.4,0-4.2-0.7-5.5-2.1c-1.2-1.4-1.8-3.4-1.8-6.1v-14.5h5.6v13.1c0,1.6,0.3,2.8,0.8,3.6c0.5,0.8,1.4,1.2,2.5,1.2
		c1.6,0,2.7-0.6,3.4-1.7c0.7-1.1,1-3,1-5.7v-10.5h5.6v22.4h-4.1V239.7z"/>
	<path id="XMLID_513_" class="st1" d="M314.1,211.6c0-2,1-3,3.1-3s3.1,1,3.1,3c0,0.9-0.3,1.7-0.8,2.2s-1.3,0.8-2.3,0.8
		C315.1,214.6,314.1,213.6,314.1,211.6z M319.9,239.7h-5.6v-22.3h5.6V239.7z"/>
	<path id="XMLID_516_" class="st1" d="M332.3,240.1c-2.4,0-4.3-1-5.7-3.1s-2.1-4.9-2.1-8.5c0-3.7,0.7-6.5,2.1-8.6
		c1.4-2,3.3-3.1,5.8-3.1c2.6,0,4.6,1.1,5.9,3.3h0.2c-0.3-1.7-0.4-3.2-0.4-4.5v-7.2h5.6v31.2h-4.3l-1.1-2.9h-0.2
		C336.9,239,334.9,240.1,332.3,240.1z M334.3,235.3c1.4,0,2.5-0.5,3.2-1.4c0.7-0.9,1-2.4,1.1-4.6v-0.7c0-2.4-0.3-4.1-1-5.2
		s-1.8-1.6-3.3-1.6c-1.3,0-2.2,0.6-2.9,1.7c-0.7,1.2-1,2.8-1,5s0.4,3.9,1,5C332,234.7,333,235.3,334.3,235.3z"/>
	<path id="XMLID_519_" class="st1" d="M359,240.1c-3.3,0-5.9-1-7.8-3s-2.8-4.8-2.8-8.4c0-3.8,0.9-6.6,2.6-8.7c1.7-2,4.1-3.1,7.1-3.1
		c2.9,0,5.2,0.9,6.8,2.7c1.6,1.8,2.4,4.3,2.4,7.5v3H354c0.1,1.7,0.5,3.1,1.4,4.1s2.1,1.5,3.7,1.5c1.2,0,2.4-0.1,3.5-0.4
		c1.1-0.3,2.3-0.7,3.5-1.3v4.7c-1,0.5-2,0.9-3.1,1.2C361.9,240,360.6,240.1,359,240.1z M358.2,221.3c-1.2,0-2.1,0.4-2.8,1.2
		c-0.7,0.8-1.1,2-1.2,3.5h7.9c0-1.5-0.4-2.7-1.1-3.5S359.4,221.3,358.2,221.3z"/>
	<path id="XMLID_522_" class="st1" d="M390.4,235.3c1,0,2.2-0.2,3.5-0.7v4.5c-1.4,0.7-3.1,1-5.2,1c-2.2,0-3.9-0.6-4.9-1.9
		c-1-1.2-1.5-3.1-1.5-5.6v-10.7h-2.7v-2.6l3.1-2l1.6-4.7h3.6v4.8h5.8v4.6h-5.8v10.8c0,0.9,0.2,1.5,0.7,1.9
		C389,235.1,389.6,235.3,390.4,235.3z"/>
	<path id="XMLID_524_" class="st1" d="M416.8,228.5c0,3.6-0.9,6.5-2.6,8.5c-1.8,2.1-4.2,3.1-7.4,3.1c-2,0-3.7-0.5-5.2-1.4
		s-2.7-2.3-3.5-4.1c-0.8-1.8-1.2-3.8-1.2-6.2c0-3.7,0.9-6.5,2.6-8.5c1.8-2,4.2-3,7.4-3c2,0,3.7,0.5,5.2,1.4c1.5,0.9,2.7,2.3,3.5,4
		C416.4,224.1,416.8,226.2,416.8,228.5z M402.5,228.5c0,2.2,0.3,3.9,1,5s1.8,1.7,3.3,1.7s2.6-0.6,3.2-1.7c0.7-1.1,1-2.8,1-5
		s-0.3-3.9-1-5s-1.7-1.7-3.3-1.7c-1.5,0-2.6,0.6-3.2,1.7S402.5,226.3,402.5,228.5z"/>
	<path id="XMLID_527_" class="st1" d="M430.9,211.6c0-2,1-3,3.1-3s3.1,1,3.1,3c0,0.9-0.3,1.7-0.8,2.2s-1.3,0.8-2.3,0.8
		C432,214.6,430.9,213.6,430.9,211.6z M436.8,239.7h-5.6v-22.3h5.6V239.7z"/>
	<path id="XMLID_530_" class="st1" d="M454,240.1c-2.4,0-4.3-1-5.7-2.9H448c0.2,1.9,0.3,2.9,0.3,3.2v9.1h-5.6v-32.1h4.6l0.8,2.9h0.3
		c1.3-2.2,3.3-3.3,5.8-3.3c2.4,0,4.3,1,5.7,3.1c1.4,2.1,2.1,4.9,2.1,8.5c0,2.4-0.3,4.5-1,6.2s-1.6,3.1-2.8,4
		C457,239.7,455.6,240.1,454,240.1z M452.3,221.8c-1.4,0-2.4,0.5-3,1.4c-0.6,0.9-1,2.5-1,4.6v0.7c0,2.4,0.3,4.1,1,5.2
		c0.7,1,1.7,1.6,3.1,1.6c2.5,0,3.8-2.3,3.8-6.8c0-2.2-0.3-3.9-0.9-5C454.6,222.4,453.7,221.8,452.3,221.8z"/>
	<path id="XMLID_533_" class="st1" d="M478,216.9c0.8,0,1.4,0.1,1.9,0.2l-0.4,5.7c-0.5-0.1-1-0.2-1.7-0.2c-1.8,0-3.2,0.5-4.2,1.5
		s-1.5,2.4-1.5,4.2v11.4h-5.6v-22.3h4.3l0.8,3.8h0.3c0.6-1.3,1.5-2.3,2.6-3C475.6,217.3,476.7,216.9,478,216.9z"/>
	<path id="XMLID_535_" class="st1" d="M483.4,211.6c0-2,1-3,3.1-3s3.1,1,3.1,3c0,0.9-0.3,1.7-0.8,2.2s-1.3,0.8-2.3,0.8
		C484.4,214.6,483.4,213.6,483.4,211.6z M489.3,239.7h-5.6v-22.3h5.6V239.7z"/>
	<path id="XMLID_538_" class="st1" d="M503.5,240.1c-6.4,0-9.6-3.8-9.6-11.5c0-3.8,0.9-6.7,2.6-8.7s4.2-3,7.5-3
		c2.4,0,4.5,0.5,6.4,1.5l-1.7,4.7c-0.9-0.4-1.7-0.7-2.5-1c-0.8-0.3-1.5-0.4-2.3-0.4c-2.9,0-4.4,2.3-4.4,6.8c0,4.4,1.5,6.6,4.4,6.6
		c1.1,0,2.1-0.2,3-0.5c0.9-0.3,1.8-0.8,2.8-1.5v5.4c-0.9,0.6-1.8,1.1-2.8,1.3C506.1,240,504.9,240.1,503.5,240.1z"/>
	<path id="XMLID_540_" class="st1" d="M523.8,240.1c-3.3,0-5.9-1-7.8-3c-1.9-2-2.8-4.8-2.8-8.4c0-3.8,0.9-6.6,2.6-8.7
		c1.7-2,4.1-3.1,7.1-3.1c2.9,0,5.2,0.9,6.8,2.7c1.6,1.8,2.4,4.3,2.4,7.5v3H519c0.1,1.7,0.5,3.1,1.4,4.1s2.1,1.5,3.7,1.5
		c1.2,0,2.4-0.1,3.5-0.4c1.1-0.3,2.3-0.7,3.5-1.3v4.7c-1,0.5-2,0.9-3.1,1.2C526.8,240,525.4,240.1,523.8,240.1z M523,221.3
		c-1.2,0-2.1,0.4-2.8,1.2s-1.1,2-1.2,3.5h7.9c0-1.5-0.4-2.7-1.1-3.5C525.2,221.7,524.2,221.3,523,221.3z"/>
	<path id="XMLID_543_" class="st1" d="M147.2,261.6c0,3.1-0.9,5.6-2.7,7.2c-1.8,1.7-4.4,2.5-7.7,2.5h-2.4v10.4h-5.7v-29.2h8.6
		c3.3,0,5.7,0.8,7.4,2.3C146.3,256.3,147.2,258.6,147.2,261.6z M134.3,266.2h1.9c1.8,0,3.1-0.4,3.9-1.1c0.9-0.8,1.3-1.9,1.3-3.3
		c0-1.5-0.4-2.5-1.1-3.2c-0.7-0.7-1.9-1-3.4-1h-2.6L134.3,266.2L134.3,266.2z"/>
	<path id="XMLID_546_" class="st1" d="M163.3,258.9c0.8,0,1.4,0.1,1.9,0.2l-0.4,5.7c-0.5-0.1-1-0.2-1.7-0.2c-1.8,0-3.2,0.5-4.2,1.5
		s-1.5,2.4-1.5,4.2v11.4h-5.6v-22.3h4.3l0.8,3.8h0.3c0.6-1.3,1.5-2.3,2.6-3C160.9,259.3,162,258.9,163.3,258.9z"/>
	<path id="XMLID_548_" class="st1" d="M187.3,270.5c0,3.6-0.9,6.5-2.6,8.5c-1.8,2.1-4.2,3.1-7.4,3.1c-2,0-3.7-0.5-5.2-1.4
		c-1.5-0.9-2.7-2.3-3.5-4.1c-0.8-1.8-1.2-3.8-1.2-6.2c0-3.7,0.9-6.5,2.6-8.5c1.8-2,4.2-3,7.4-3c2,0,3.7,0.5,5.2,1.4
		c1.5,0.9,2.7,2.3,3.5,4C186.9,266.1,187.3,268.2,187.3,270.5z M173,270.5c0,2.2,0.3,3.9,1,5s1.8,1.7,3.3,1.7s2.6-0.6,3.2-1.7
		c0.7-1.1,1-2.8,1-5s-0.3-3.9-1-5s-1.7-1.7-3.3-1.7c-1.5,0-2.6,0.6-3.2,1.7C173.4,266.6,173,268.3,173,270.5z"/>
	<path id="XMLID_551_" class="st1" d="M198.4,282.1c-2.4,0-4.3-1-5.7-3.1s-2.1-4.9-2.1-8.5c0-3.7,0.7-6.5,2.1-8.6
		c1.4-2,3.3-3.1,5.8-3.1c2.6,0,4.6,1.1,5.9,3.3h0.2c-0.3-1.7-0.4-3.2-0.4-4.5v-7.2h5.6v31.2h-4.3l-1.1-2.9h-0.2
		C203,281,201,282.1,198.4,282.1z M200.4,277.3c1.4,0,2.5-0.5,3.2-1.4s1-2.4,1.1-4.6v-0.7c0-2.4-0.3-4.1-1-5.2
		c-0.7-1-1.8-1.6-3.3-1.6c-1.3,0-2.2,0.6-2.9,1.7c-0.7,1.2-1,2.8-1,5c0,2.2,0.3,3.9,1,5C198.1,276.7,199.1,277.3,200.4,277.3z"/>
	<path id="XMLID_554_" class="st1" d="M230.3,281.7l-0.8-2.9h-0.3c-0.6,1-1.5,1.8-2.6,2.4c-1.1,0.6-2.4,0.9-3.8,0.9
		c-2.4,0-4.2-0.7-5.5-2.1c-1.2-1.4-1.8-3.4-1.8-6.1v-14.5h5.6v13.1c0,1.6,0.3,2.8,0.8,3.6c0.5,0.8,1.4,1.2,2.5,1.2
		c1.6,0,2.7-0.6,3.4-1.7s1-3,1-5.7v-10.5h5.6v22.4L230.3,281.7L230.3,281.7z"/>
	<path id="XMLID_556_" class="st1" d="M248.9,282.1c-6.4,0-9.6-3.8-9.6-11.5c0-3.8,0.9-6.7,2.6-8.7c1.7-2,4.2-3,7.5-3
		c2.4,0,4.5,0.5,6.4,1.5l-1.7,4.7c-0.9-0.4-1.7-0.7-2.5-1c-0.8-0.2-1.5-0.4-2.3-0.4c-2.9,0-4.4,2.3-4.4,6.8c0,4.4,1.5,6.6,4.4,6.6
		c1.1,0,2.1-0.2,3-0.5c0.9-0.3,1.8-0.8,2.8-1.5v5.2c-0.9,0.6-1.8,1.1-2.8,1.3C251.3,281.8,250.3,282.1,248.9,282.1z"/>
	<path id="XMLID_558_" class="st1" d="M268.6,277.3c1,0,2.2-0.2,3.5-0.7v4.5c-1.4,0.7-3.1,1-5.2,1c-2.2,0-3.9-0.6-4.9-1.9
		c-1-1.3-1.5-3.1-1.5-5.6v-10.7h-2.7v-2.6l3.1-2l1.6-4.7h3.6v4.8h5.8v4.6h-5.8v10.8c0,0.9,0.2,1.5,0.7,1.9
		C267.2,277.1,267.8,277.3,268.6,277.3z"/>
	<path id="XMLID_560_" class="st1" d="M308.8,266.8c0,4.8-1.3,8.5-3.8,11.1s-6.2,3.8-10.9,3.8h-7.6v-29.2h8.4
		c4.4,0,7.8,1.3,10.2,3.8C307.5,258.8,308.8,262.3,308.8,266.8z M302.9,267c0-6.3-2.6-9.4-7.7-9.4h-3v19.1h2.4
		C300.1,276.6,302.9,273.4,302.9,267z"/>
	<path id="XMLID_563_" class="st1" d="M313.7,253.6c0-2,1-3,3.1-3s3.1,1,3.1,3c0,0.9-0.3,1.7-0.8,2.2s-1.3,0.8-2.3,0.8
		C314.7,256.6,313.7,255.6,313.7,253.6z M319.5,281.7h-5.6v-22.3h5.6V281.7z"/>
	<path id="XMLID_566_" class="st1" d="M339.8,275.1c0,2.3-0.7,4-2.2,5.2c-1.5,1.2-3.7,1.8-6.6,1.8c-1.5,0-2.8-0.1-3.8-0.3
		c-1.1-0.2-2-0.5-3-1v-5c1,0.5,2.2,1,3.5,1.3c1.3,0.3,2.5,0.5,3.4,0.5c2,0,3.1-0.6,3.1-1.9c0-0.5-0.1-0.9-0.4-1.2s-0.7-0.6-1.4-1
		c-0.7-0.4-1.5-0.8-2.7-1.3c-1.6-0.7-2.7-1.4-3.5-2c-0.7-0.6-1.3-1.3-1.6-2.1c-0.3-0.8-0.5-1.8-0.5-2.9c0-2,0.7-3.5,2.1-4.6
		s3.4-1.6,6-1.6c2.5,0,4.9,0.6,7.2,1.8l-1.7,4.4c-1-0.5-2-0.9-2.9-1.2s-1.8-0.5-2.7-0.5c-1.7,0-2.5,0.5-2.5,1.5c0,0.5,0.3,1,0.8,1.4
		c0.5,0.4,1.7,1,3.5,1.8c1.6,0.7,2.8,1.4,3.5,2s1.3,1.3,1.7,2.1C339.6,273,339.8,274,339.8,275.1z"/>
	<path id="XMLID_568_" class="st1" d="M352.5,282.1c-6.4,0-9.6-3.8-9.6-11.5c0-3.8,0.9-6.7,2.6-8.7s4.2-3,7.5-3
		c2.4,0,4.5,0.5,6.4,1.5l-1.7,4.7c-0.9-0.4-1.7-0.7-2.5-1c-0.8-0.3-1.5-0.4-2.3-0.4c-2.9,0-4.4,2.3-4.4,6.8c0,4.4,1.5,6.6,4.4,6.6
		c1.1,0,2.1-0.2,3-0.5c0.9-0.3,1.8-0.8,2.8-1.5v5.2c-0.9,0.6-1.8,1.1-2.8,1.3C355.1,282,353.9,282.1,352.5,282.1z"/>
	<path id="XMLID_570_" class="st1" d="M382.2,270.5c0,3.6-0.9,6.5-2.7,8.5c-1.8,2.1-4.2,3.1-7.4,3.1c-2,0-3.7-0.5-5.2-1.4
		c-1.5-0.9-2.7-2.3-3.5-4.1c-0.8-1.8-1.2-3.8-1.2-6.2c0-3.7,0.9-6.5,2.6-8.5c1.8-2,4.2-3,7.4-3c2,0,3.7,0.5,5.2,1.4
		c1.5,0.9,2.7,2.3,3.5,4C381.8,266.1,382.2,268.2,382.2,270.5z M368,270.5c0,2.2,0.3,3.9,1,5s1.8,1.7,3.3,1.7s2.6-0.6,3.2-1.7
		c0.7-1.1,1-2.8,1-5s-0.3-3.9-1-5s-1.7-1.7-3.3-1.7c-1.5,0-2.6,0.6-3.2,1.7C368.3,266.6,368,268.3,368,270.5z"/>
	<path id="XMLID_573_" class="st1" d="M391.4,281.7l-7.8-22.4h5.9l4,12.8c0.4,1.4,0.7,2.9,0.8,4.6h0.1c0.1-1.5,0.3-3,0.8-4.6l4-12.8
		h5.9l-7.8,22.4H391.4z"/>
	<path id="XMLID_575_" class="st1" d="M417.3,282.1c-3.3,0-5.9-1-7.8-3s-2.8-4.8-2.8-8.4c0-3.8,0.9-6.6,2.6-8.7
		c1.7-2,4.1-3.1,7.1-3.1c2.9,0,5.2,0.9,6.8,2.7c1.6,1.8,2.4,4.3,2.4,7.5v3h-13.3c0.1,1.7,0.5,3.1,1.4,4.1s2.1,1.5,3.7,1.5
		c1.2,0,2.4-0.1,3.5-0.4c1.1-0.3,2.3-0.7,3.5-1.3v4.7c-1,0.5-2,0.9-3.1,1.2C420.2,282,418.9,282.1,417.3,282.1z M416.5,263.3
		c-1.2,0-2.1,0.4-2.8,1.2c-0.7,0.8-1.1,2-1.2,3.5h7.9c0-1.5-0.4-2.7-1.1-3.5C418.6,263.7,417.7,263.3,416.5,263.3z"/>
	<path id="XMLID_578_" class="st1" d="M441.7,258.9c0.8,0,1.4,0.1,1.9,0.2l-0.4,5.7c-0.5-0.1-1-0.2-1.7-0.2c-1.8,0-3.2,0.5-4.2,1.5
		s-1.5,2.4-1.5,4.2v11.4h-5.6v-22.3h4.3l0.8,3.8h0.3c0.6-1.3,1.5-2.3,2.6-3C439.2,259.3,440.4,258.9,441.7,258.9z"/>
	<path id="XMLID_580_" class="st1" d="M444.4,259.4h6.1l3.9,12.6c0.3,1.1,0.6,2.4,0.7,3.9h0.1c0.1-1.4,0.4-2.7,0.8-3.9l3.8-12.6h6
		l-8.7,25.2c-0.8,2.3-1.9,4.1-3.4,5.2c-1.5,1.2-3.2,1.7-5.2,1.7c-1,0-1.9-0.1-2.9-0.3v-4.8c0.7,0.2,1.4,0.3,2.2,0.3
		c1,0,1.9-0.3,2.6-1c0.7-0.7,1.3-1.7,1.7-3l0.3-1.1L444.4,259.4z"/>
</g>
</svg>
