<!-- Generator: Adobe Illustrator 19.0.0, SVG Export Plug-In  -->
<svg version="1.1"
	 xmlns="http://www.w3.org/2000/svg" xmlns:xlink="http://www.w3.org/1999/xlink" xmlns:a="http://ns.adobe.com/AdobeSVGViewerExtensions/3.0/"
	 x="0px" y="0px" width="144.5px" height="109px" viewBox="0 0 144.5 109" style="enable-background:new 0 0 144.5 109;"
	 xml:space="preserve">
<style type="text/css">
	.st0{fill:#FFFFFF;stroke:#FF6633;stroke-width:2;stroke-miterlimit:10;}
	.st1{fill:#086A87;}
	.st2{fill:#FFFFFF;}
	.st3{fill:#FF6633;}
	.st4{fill:#33CCCC;}
	.st5{fill:none;stroke:#086A87;stroke-width:2;stroke-linecap:round;stroke-linejoin:round;stroke-miterlimit:10;}
	.st6{fill:#FFFFFF;stroke:#086A87;stroke-width:2;stroke-linecap:round;stroke-linejoin:round;stroke-miterlimit:10;}
	.st7{fill:#FFFFFF;stroke:#086A87;stroke-width:2;stroke-miterlimit:10;}
</style>
<defs>
</defs>
<g>
	<circle class="st0" cx="122.4" cy="31.7" r="21.2"/>
	<rect x="11.3" y="16" class="st1" width="64" height="91"/>
	<g>
		<polygon class="st2" points="11.7,44.4 74.3,30 74.3,49.9 11.5,64.8 		"/>
		<path class="st3" d="M73.3,31v18.1L12.6,63.6l0-18.3l60.6-14 M75.3,28.7L10.7,43.7l-0.2,22.5l64.8-15.5V28.7L75.3,28.7z"/>
	</g>
	<circle class="st4" cx="41.6" cy="72" r="4.4"/>
	<circle class="st4" cx="53.4" cy="72" r="4.4"/>
	<circle class="st4" cx="65.1" cy="72" r="4.4"/>
	<circle class="st4" cx="47.1" cy="81.7" r="4.4"/>
	<circle class="st4" cx="58.9" cy="81.7" r="4.4"/>
	<circle class="st4" cx="53.4" cy="92.1" r="4.4"/>
	<rect x="75.3" y="16" class="st4" width="13" height="91"/>
	<g>
		<rect x="76.3" y="30" class="st3" width="11" height="20"/>
		<path class="st3" d="M86.3,31v18h-9V31H86.3 M88.3,29h-13v22h13V29L88.3,29z"/>
	</g>
	<polygon class="st5" points="10.9,16 1,1 67.4,1 75.6,16 	"/>
	<polyline class="st5" points="67.3,2 100.4,2 88.6,16 75.3,16 	"/>
	<path class="st6" d="M122.4,83l-9.2-10.9l-0.1,0c-1.5-1.4-3.6-2.3-5.8-2.3c-0.1,0-0.3,0-0.4,0c-2.2-2.5-5.5-4.1-9.1-4.1
		c-4.4,0-8.3,2.4-10.4,5.9c-2.3,0.4-4.2,1.8-5.5,3.7L76.3,83h4.5c1.2,3,4.3,5.7,8.1,5.7c0.9,0,1.7-0.2,2.5-0.4
		c1.9,1.1,4,1.8,6.4,1.8c0.6,0,1.1-0.1,1.7-0.1c1.5,3.4,4.9,5.7,8.8,5.7c5.3,0,9.7-4.2,9.7-9.6c0-1.1-0.2-2.1-0.5-3.1H122.4z"/>
	<path class="st7" d="M76,83c0,12,10.4,20.9,23.2,20.9S122.4,95,122.4,83H76z"/>
	<rect x="87.3" y="101" class="st7" width="24" height="7"/>
	<rect x="87.3" y="104" class="st7" width="24" height="3"/>
	<circle class="st0" cx="117.4" cy="33.7" r="21.2"/>
	<g>
		<path class="st3" d="M112.3,41h-4V30.1l-0.1-1.8l0-2c-0.7,0.7-1.1,1.1-1.4,1.3l-2.2,1.7l-1.9-2.5l6-4.9h3.5V41z"/>
		<path class="st3" d="M123.3,38.7c-3-0.5-5.3-2.9-5.3-7.3c0-2.2,0.4-4,1.3-5.2c0.9-1.2,2-2,4-2.2v-2h2v1.9c2,0.1,2.9,0.4,4.1,1
			l-1,3c-0.6-0.2-1.1-0.4-1.7-0.6c-0.5-0.2-1-0.2-1.6-0.2c-1,0-1.8,0.4-2.3,1.1c-0.5,0.7-0.7,1.8-0.7,3.3c0,2.8,1,4.2,3.1,4.2
			c0.7,0,1.4-0.1,2-0.2c0.6-0.1,1.2-0.4,2.2-0.8v3.3c-1,0.5-2,0.8-4,0.9V41h-2V38.7z"/>
	</g>
</g>
</svg>