<!-- Generator: Adobe Illustrator 19.0.0, SVG Export Plug-In  -->
<svg version="1.1"
	 xmlns="http://www.w3.org/2000/svg" xmlns:xlink="http://www.w3.org/1999/xlink" xmlns:a="http://ns.adobe.com/AdobeSVGViewerExtensions/3.0/"
	 x="0px" y="0px" width="69px" height="30px" viewBox="0 0 69 30" style="enable-background:new 0 0 69 30;" xml:space="preserve">
<style type="text/css">
	.st0{fill:#FFFFFF;stroke:#086A87;stroke-width:2;stroke-miterlimit:10;}
	.st1{fill:#086A87;}
</style>
<defs>
</defs>
<g>
	<rect x="1" y="1" class="st0" width="67" height="28"/>
	<g>
		<g>
			<path class="st1" d="M22.6,18.9h-2v-5.4l0-0.9l0-1c-0.3,0.3-0.6,0.5-0.7,0.6l-1.1,0.9L18,12l3-2.4h1.6V18.9z"/>
			<path class="st1" d="M31.6,13.6c0,1.8-0.4,3.2-1.2,4.1c-0.8,0.9-1.9,1.4-3.5,1.4c-0.6,0-1,0-1.3-0.1v-1.6
				c0.4,0.1,0.7,0.1,1.1,0.1c0.7,0,1.2-0.1,1.6-0.3c0.4-0.2,0.7-0.5,1-0.9c0.2-0.4,0.4-1,0.4-1.7h-0.1c-0.2,0.4-0.5,0.7-0.9,0.8
				c-0.3,0.2-0.7,0.2-1.2,0.2c-0.8,0-1.4-0.3-1.9-0.8c-0.5-0.5-0.7-1.2-0.7-2.2c0-1,0.3-1.8,0.8-2.4c0.6-0.6,1.3-0.9,2.3-0.9
				c0.7,0,1.3,0.2,1.8,0.5c0.5,0.3,0.9,0.8,1.2,1.4C31.5,12,31.6,12.8,31.6,13.6z M28.2,11.1c-0.4,0-0.7,0.1-1,0.4s-0.3,0.7-0.3,1.2
				c0,0.4,0.1,0.8,0.3,1.1c0.2,0.3,0.5,0.4,0.9,0.4c0.4,0,0.7-0.1,1-0.4c0.3-0.3,0.4-0.6,0.4-0.9c0-0.5-0.1-0.9-0.4-1.3
				C29,11.3,28.7,11.1,28.2,11.1z"/>
			<path class="st1" d="M32.5,15c0-1.8,0.4-3.2,1.2-4.1c0.8-0.9,1.9-1.3,3.5-1.3c0.5,0,0.9,0,1.2,0.1v1.6c-0.4-0.1-0.7-0.1-1.1-0.1
				c-0.7,0-1.2,0.1-1.6,0.3c-0.4,0.2-0.7,0.5-1,0.9c-0.2,0.4-0.3,1-0.4,1.7h0.1c0.4-0.7,1.1-1.1,2-1.1c0.8,0,1.5,0.3,1.9,0.8
				s0.7,1.2,0.7,2.2c0,1-0.3,1.8-0.8,2.4c-0.6,0.6-1.3,0.9-2.3,0.9c-0.7,0-1.3-0.2-1.8-0.5c-0.5-0.3-0.9-0.8-1.2-1.4
				C32.7,16.6,32.5,15.9,32.5,15z M35.9,17.5c0.4,0,0.7-0.1,1-0.4s0.3-0.7,0.3-1.2c0-0.5-0.1-0.8-0.3-1.1c-0.2-0.3-0.5-0.4-0.9-0.4
				c-0.4,0-0.7,0.1-1,0.4c-0.3,0.3-0.4,0.6-0.4,0.9c0,0.5,0.1,0.9,0.4,1.3C35.1,17.3,35.5,17.5,35.9,17.5z"/>
			<path class="st1" d="M46.5,14.3c0,1.6-0.3,2.8-0.8,3.6c-0.5,0.8-1.3,1.2-2.5,1.2c-1.1,0-1.9-0.4-2.4-1.2c-0.5-0.8-0.8-2-0.8-3.6
				c0-1.6,0.3-2.8,0.8-3.6s1.3-1.2,2.4-1.2c1.1,0,1.9,0.4,2.4,1.2C46.2,11.5,46.5,12.7,46.5,14.3z M41.9,14.3c0,1.1,0.1,2,0.3,2.4
				c0.2,0.5,0.5,0.7,1,0.7c0.5,0,0.8-0.2,1-0.7c0.2-0.5,0.3-1.3,0.3-2.4c0-1.1-0.1-2-0.3-2.5c-0.2-0.5-0.5-0.7-1-0.7
				c-0.5,0-0.8,0.2-1,0.7C42,12.3,41.9,13.2,41.9,14.3z"/>
			<path class="st1" d="M52.9,16.8c0,0.7-0.3,1.3-0.8,1.7c-0.5,0.4-1.3,0.6-2.3,0.6c-0.5,0-1,0-1.3-0.1c-0.4-0.1-0.7-0.2-1-0.3v-1.6
				c0.4,0.2,0.8,0.3,1.2,0.4c0.5,0.1,0.8,0.2,1.2,0.2c0.7,0,1.1-0.2,1.1-0.6c0-0.2,0-0.3-0.1-0.4c-0.1-0.1-0.3-0.2-0.5-0.3
				c-0.2-0.1-0.5-0.3-0.9-0.4c-0.5-0.2-0.9-0.4-1.2-0.6c-0.3-0.2-0.4-0.4-0.6-0.7c-0.1-0.3-0.2-0.6-0.2-0.9c0-0.6,0.2-1.1,0.7-1.5
				c0.5-0.3,1.2-0.5,2.1-0.5c0.9,0,1.7,0.2,2.5,0.6l-0.6,1.4c-0.4-0.2-0.7-0.3-1-0.4c-0.3-0.1-0.6-0.1-0.9-0.1
				c-0.6,0-0.9,0.2-0.9,0.5c0,0.2,0.1,0.3,0.3,0.5c0.2,0.1,0.6,0.3,1.2,0.6c0.6,0.2,1,0.4,1.2,0.6c0.3,0.2,0.4,0.4,0.6,0.7
				C52.8,16.2,52.9,16.5,52.9,16.8z"/>
		</g>
	</g>
</g>
</svg>