<!-- Generator: Adobe Illustrator 19.0.0, SVG Export Plug-In  -->
<svg version="1.1"
	 xmlns="http://www.w3.org/2000/svg" xmlns:xlink="http://www.w3.org/1999/xlink" xmlns:a="http://ns.adobe.com/AdobeSVGViewerExtensions/3.0/"
	 x="0px" y="0px" width="69px" height="30px" viewBox="0 0 69 30" style="enable-background:new 0 0 69 30;" xml:space="preserve">
<style type="text/css">
	.st0{fill:#FFFFFF;stroke:#086A87;stroke-width:2;stroke-miterlimit:10;}
	.st1{fill:#086A87;}
</style>
<defs>
</defs>
<rect x="1" y="1" class="st0" width="67" height="28"/>
<g>
	<g>
		<path class="st1" d="M22.6,19.6h-2v-5.4l0-0.9l0-1c-0.3,0.3-0.6,0.5-0.7,0.6l-1.1,0.9L18,12.7l3-2.4h1.6V19.6z"/>
		<path class="st1" d="M31.6,14.3c0,1.8-0.4,3.2-1.2,4.1c-0.8,0.9-1.9,1.4-3.5,1.4c-0.6,0-1,0-1.3-0.1v-1.6c0.4,0.1,0.7,0.1,1.1,0.1
			c0.7,0,1.2-0.1,1.6-0.3c0.4-0.2,0.7-0.5,1-0.9c0.2-0.4,0.4-1,0.4-1.7h-0.1c-0.2,0.4-0.5,0.7-0.9,0.8s-0.7,0.2-1.2,0.2
			c-0.8,0-1.4-0.3-1.9-0.8c-0.5-0.5-0.7-1.2-0.7-2.2c0-1,0.3-1.8,0.8-2.4c0.6-0.6,1.3-0.9,2.3-0.9c0.7,0,1.3,0.2,1.8,0.5
			c0.5,0.3,0.9,0.8,1.2,1.4C31.5,12.7,31.6,13.4,31.6,14.3z M28.2,11.8c-0.4,0-0.7,0.1-1,0.4s-0.3,0.7-0.3,1.2
			c0,0.4,0.1,0.8,0.3,1.1c0.2,0.3,0.5,0.4,0.9,0.4c0.4,0,0.7-0.1,1-0.4c0.3-0.3,0.4-0.6,0.4-0.9c0-0.5-0.1-0.9-0.4-1.3
			C29,12,28.7,11.8,28.2,11.8z"/>
		<path class="st1" d="M39.3,17.7h-1.1v1.9h-1.9v-1.9h-4v-1.4l4.1-6h1.8v5.8h1.1V17.7z M36.2,16.2v-1.6c0-0.3,0-0.6,0-1.1
			s0-0.8,0.1-0.9h-0.1c-0.2,0.3-0.3,0.7-0.6,1L34,16.2H36.2z"/>
		<path class="st1" d="M46.5,15c0,1.6-0.3,2.8-0.8,3.6c-0.5,0.8-1.3,1.2-2.5,1.2c-1.1,0-1.9-0.4-2.4-1.2c-0.5-0.8-0.8-2-0.8-3.6
			c0-1.6,0.3-2.8,0.8-3.6c0.5-0.8,1.3-1.2,2.4-1.2c1.1,0,1.9,0.4,2.4,1.2C46.2,12.2,46.5,13.4,46.5,15z M41.9,15
			c0,1.1,0.1,2,0.3,2.4c0.2,0.5,0.5,0.7,1,0.7c0.5,0,0.8-0.2,1-0.7s0.3-1.3,0.3-2.4c0-1.1-0.1-2-0.3-2.5c-0.2-0.5-0.5-0.7-1-0.7
			c-0.5,0-0.8,0.2-1,0.7C42,13,41.9,13.8,41.9,15z"/>
		<path class="st1" d="M52.9,17.5c0,0.7-0.3,1.3-0.8,1.7c-0.5,0.4-1.3,0.6-2.3,0.6c-0.5,0-1,0-1.3-0.1c-0.4-0.1-0.7-0.2-1-0.3v-1.6
			c0.4,0.2,0.8,0.3,1.2,0.4c0.5,0.1,0.8,0.2,1.2,0.2c0.7,0,1.1-0.2,1.1-0.6c0-0.2,0-0.3-0.1-0.4c-0.1-0.1-0.3-0.2-0.5-0.3
			c-0.2-0.1-0.5-0.3-0.9-0.4c-0.5-0.2-0.9-0.4-1.2-0.6c-0.3-0.2-0.4-0.4-0.6-0.7c-0.1-0.3-0.2-0.6-0.2-0.9c0-0.6,0.2-1.1,0.7-1.5
			c0.5-0.3,1.2-0.5,2.1-0.5c0.9,0,1.7,0.2,2.5,0.6l-0.6,1.4c-0.4-0.2-0.7-0.3-1-0.4c-0.3-0.1-0.6-0.1-0.9-0.1
			c-0.6,0-0.9,0.2-0.9,0.5c0,0.2,0.1,0.3,0.3,0.5c0.2,0.1,0.6,0.3,1.2,0.6c0.6,0.2,1,0.4,1.2,0.6c0.3,0.2,0.4,0.4,0.6,0.7
			C52.8,16.8,52.9,17.1,52.9,17.5z"/>
	</g>
</g>
</svg>