<!-- Generator: Adobe Illustrator 19.0.0, SVG Export Plug-In  -->
<svg version="1.1"
	 xmlns="http://www.w3.org/2000/svg" xmlns:xlink="http://www.w3.org/1999/xlink" xmlns:a="http://ns.adobe.com/AdobeSVGViewerExtensions/3.0/"
	 x="0px" y="0px" width="106px" height="145px" viewBox="0 0 106 145" style="enable-background:new 0 0 106 145;"
	 xml:space="preserve">
<style type="text/css">
	.st0{fill:#FF6633;stroke:#FFFFFF;stroke-width:2;stroke-miterlimit:10;}
	.st1{fill:#E0E0E0;}
	.st2{fill:none;stroke:#FFFFFF;stroke-width:2;stroke-miterlimit:10;}
	.st3{fill:none;stroke:#FFFFFF;stroke-width:2;stroke-miterlimit:10;stroke-dasharray:4,4;}
	.st4{fill:#33CCCC;}
</style>
<defs>
</defs>
<g>
	<path class="st0" d="M54,118c0,2.7-2.2,5-5,5H47c-2.7,0-5-2.2-5-5V96c0-2.7,2.2-5,5-5H49c2.7,0,5,2.2,5,5V118z"/>
	<path class="st0" d="M57,131.5c0,6.4-5.1,11.5-11.5,11.5h-11c-6.4,0-11.5-5.1-11.5-11.5v-13c0-6.4,5.1-11.5,11.5-11.5h11
		c6.4,0,11.5,5.1,11.5,11.5V131.5z"/>
	<rect class="st1" width="75" height="85"/>
	<rect x="28" y="85" class="st0" width="17" height="57"/>
	<path class="st0" d="M40,112.4c0,2-1.6,3.6-3.6,3.6H15.6c-2,0-3.6-1.6-3.6-3.6v-1.7c0-2,1.6-3.6,3.6-3.6h20.7c2,0,3.6,1.6,3.6,3.6
		V112.4z"/>
	<path class="st0" d="M40,121.4c0,2-1.6,3.6-3.6,3.6H15.6c-2,0-3.6-1.6-3.6-3.6v-1.7c0-2,1.6-3.6,3.6-3.6h20.7c2,0,3.6,1.6,3.6,3.6
		V121.4z"/>
	<path class="st0" d="M40,131.4c0,2-1.6,3.6-3.6,3.6H15.6c-2,0-3.6-1.6-3.6-3.6v-1.7c0-2,1.6-3.6,3.6-3.6h20.7c2,0,3.6,1.6,3.6,3.6
		V131.4z"/>
	<path class="st0" d="M40,140.4c0,2-1.6,3.6-3.6,3.6H15.6c-2,0-3.6-1.6-3.6-3.6v-1.7c0-2,1.6-3.6,3.6-3.6h20.7c2,0,3.6,1.6,3.6,3.6
		V140.4z"/>
	<g>
		<rect x="7" y="8" class="st1" width="63" height="69"/>
		<g>
			<polyline class="st2" points="69.8,74.7 69.8,76.7 67.8,76.7 			"/>
			<line class="st3" x1="64" y1="77" x2="11" y2="77"/>
			<polyline class="st2" points="8.6,76.7 6.6,76.7 6.6,74.7 			"/>
			<line class="st3" x1="7" y1="71" x2="7" y2="12"/>
			<polyline class="st2" points="6.6,10.2 6.6,8.2 8.6,8.2 			"/>
			<line class="st3" x1="13" y1="8" x2="66" y2="8"/>
			<polyline class="st2" points="67.8,8.2 69.8,8.2 69.8,10.2 			"/>
			<line class="st3" x1="70" y1="14" x2="70" y2="73"/>
		</g>
	</g>
	<path class="st0" d="M97,125.9c0,1.7-1.4,3.1-3.1,3.1h-2.9c-1.7,0-3.1-1.4-3.1-3.1v-16.9c0-1.7,1.4-3.1,3.1-3.1h2.9
		c1.7,0,3.1,1.4,3.1,3.1V125.9z"/>
	<path class="st0" d="M98,134.6c0,4.6-3.7,8.4-8.4,8.4h-7.3c-4.6,0-8.4-3.7-8.4-8.4v-9.3c0-4.6,3.7-8.4,8.4-8.4h7.3
		c4.6,0,8.4,3.7,8.4,8.4V134.6z"/>
	<rect x="53" y="41" class="st4" width="53" height="60"/>
	<rect x="77" y="101" class="st0" width="13" height="41"/>
	<path class="st0" d="M86,120.7c0,1.2-1,2.3-2.3,2.3H68.3c-1.2,0-2.3-1-2.3-2.3v-1.5c0-1.2,1-2.3,2.3-2.3h15.5c1.2,0,2.3,1,2.3,2.3
		V120.7z"/>
	<path class="st0" d="M86,127.7c0,1.2-1,2.3-2.3,2.3H68.3c-1.2,0-2.3-1-2.3-2.3v-1.5c0-1.2,1-2.3,2.3-2.3h15.5c1.2,0,2.3,1,2.3,2.3
		V127.7z"/>
	<path class="st0" d="M86,133.7c0,1.2-1,2.3-2.3,2.3H68.3c-1.2,0-2.3-1-2.3-2.3v-1.5c0-1.2,1-2.3,2.3-2.3h15.5c1.2,0,2.3,1,2.3,2.3
		V133.7z"/>
	<path class="st0" d="M86,139.7c0,1.2-1,2.3-2.3,2.3H68.3c-1.2,0-2.3-1-2.3-2.3v-1.5c0-1.2,1-2.3,2.3-2.3h15.5c1.2,0,2.3,1,2.3,2.3
		V139.7z"/>
	<g>
		<rect x="56" y="46" class="st4" width="45" height="49"/>
		<g>
			<polyline class="st2" points="56.4,93.2 56.4,95.2 58.4,95.2 			"/>
			<line class="st3" x1="62" y1="95" x2="97" y2="95"/>
			<polyline class="st2" points="99.3,95.2 101.3,95.2 101.3,93.2 			"/>
			<line class="st3" x1="101" y1="89" x2="101" y2="51"/>
			<polyline class="st2" points="101.3,48.5 101.3,46.5 99.3,46.5 			"/>
			<line class="st3" x1="96" y1="46" x2="60" y2="46"/>
			<polyline class="st2" points="58.4,46.5 56.4,46.5 56.4,48.5 			"/>
			<line class="st3" x1="56" y1="53" x2="56" y2="91"/>
		</g>
	</g>
</g>
</svg>