<svg id="Layer_1" data-name="Layer 1" xmlns="http://www.w3.org/2000/svg" viewBox="0 0 1031.1 189.2">
    <defs>
        <style>.cls-1{fill:#fff;}.cls-2{fill:#f2673a;}</style>
    </defs>
    <title>insight-logo</title>
    <g id="_Group_2" data-name=" Group 2">
        <path id="_Path_7" data-name=" Path 7" class="cls-1"
              d="M320.88,120.15a.29.29,0,0,0-.08-.16c0,.08.08.08.08.16Z"/>
        <path id="_Path_8" data-name=" Path 8" class="cls-2"
              d="M14.2,50.17a8.57,8.57,0,0,1,17.15,0,8.42,8.42,0,0,1-8.26,8.57h-.31a8.37,8.37,0,0,1-8.57-8.16Q14.19,50.38,14.2,50.17Z"/>
        <rect id="_Path_9" data-name=" Path 9" class="cls-1" x="14.2" y="75" width="17.23" height="72.75"/>
        <path id="_Compound_Path_3" data-name=" Compound Path 3" class="cls-1"
              d="M203.22,43.72A8.36,8.36,0,0,0,194.73,52q0,.09,0,.18a8.49,8.49,0,1,0,17,0,8.31,8.31,0,0,0-8.21-8.41ZM194.65,75v72.75h17.23V75Z"/>
        <path id="_Compound_Path_20" data-name=" Compound Path 20" class="cls-1"
              d="M477.11,101.12l-8.33-8.33h0L466,90l-2.69-2.69-2.78-2.78L452.7,76.7l-.49-.49L444,68l-8.25,8.25-35.11,35.11-8.25,8.25,8.25,8.25,24.9,24.9,8.25,8.25,8.25-8.25,35.11-35.11,8.25-8.25Zm-43.28,43.36-24.9-24.9L444,84.46l8.17,8.17.16.16,8.25,8.25.16.16,8.17,8.17Z"/>
        <path id="_Path_24" data-name=" Path 24" class="cls-1"
              d="M263.73,133.05a21.72,21.72,0,1,1,17-35.27l13-10.37a38.32,38.32,0,1,0-.57,48.34l-12.74-10.61A21.23,21.23,0,0,1,263.73,133.05Z"/>
        <path id="_Compound_Path_21" data-name=" Compound Path 21" class="cls-1"
              d="M87,75H85.4a28.84,28.84,0,0,0-15.76,4.25,33,33,0,0,0-4.25,2.61v-6H48.25V180H65.48V143.09A37.46,37.46,0,1,0,87,75Zm0,58.71a21.23,21.23,0,1,1,21.23-21.23h0A21.19,21.19,0,0,1,87.11,133.7Z"/>
        <path id="_Path_25" data-name=" Path 25" class="cls-1"
              d="M177,77.28c-13-3.59-20.9,1.8-25,6.45V76.87H135V98.43h0v49.32H152v-33C152,98.92,159,93,169.09,93a18.9,18.9,0,0,1,9.31,2.37L184.12,80A19,19,0,0,0,177,77.28Z"/>
        <path id="_Compound_Path_22" data-name=" Compound Path 22" class="cls-1"
              d="M378,119.9a37.31,37.31,0,0,0,1-8.57,31.14,31.14,0,0,0-.33-4.82c-.16-1.31-.41-2.53-.65-3.76a38.29,38.29,0,0,0-74.63,0,37.31,37.31,0,0,0-1,8.57c0,.49.08.9.08,1.31h0c0,.57.08,1.14.08,1.71a37.56,37.56,0,0,0,3,14,36.22,36.22,0,0,0,21,19.84,44.6,44.6,0,0,0,15.51,2.69,42.64,42.64,0,0,0,16.58-3.35A36.74,36.74,0,0,0,373,136.32l-13.06-9.88a31.31,31.31,0,0,1-8.08,7,21.76,21.76,0,0,1-11.43,2.78,20.19,20.19,0,0,1-13.23-4.57A18.24,18.24,0,0,1,321,120.07v-.24H378v.08ZM326.52,92.8c3.18-3.1,7.51-4.74,13-4.74q8.7,0,13.47,4.65c3.27,3.1,4.9,7.35,5,12.66H320.64C321.37,100.06,323.33,95.9,326.52,92.8Z"/>
        <path id="_Path_26" data-name=" Path 26" class="cls-2"
              d="M477.2,101.12,481,97.28h0a17.62,17.62,0,0,0-24.9-24.9h0L444,84.54l8.33,8.33L464.46,80.7A5.83,5.83,0,0,1,472.7,89h0l-3.92,3.92,8.41,8.25"/>
    </g>
    <path class="cls-1"
          d="M551.79,147.78H535.24V78.28h16.13v9.28c4.57-8,12.84-11.28,20.55-11.28,17,0,25.12,12.28,25.12,27.55v44H580.47v-41.1c0-8.56-3.85-15.41-14.27-15.41-9.42,0-14.42,7.28-14.42,16.41Z"/>
    <path class="cls-1"
          d="M623.29,125c.57,6.28,5.28,11.85,14.12,11.85,6.86,0,10.42-3.71,10.42-8,0-3.71-2.57-6.57-8.13-7.7l-10.28-2.28c-12.27-2.71-18.7-10.7-18.7-20.27,0-12.13,11.13-22.4,25.55-22.4,19.41,0,25.69,12.56,26.83,19.41l-14,4c-.58-4-3.57-10.42-12.85-10.42-5.85,0-10,3.71-10,8,0,3.71,2.71,6.43,7,7.28l10.56,2.14c13.13,2.86,20,10.85,20,21.13,0,10.56-8.56,22.26-26.26,22.26-20.12,0-27.83-13.13-28.69-21Z"/>
    <path class="cls-1"
          d="M723.2,147.64c1.14,8.56,7.85,15,17.41,15,13.13,0,19.7-6.71,19.7-20.84v-7.27c-3,5.42-10,10.13-20.12,10.13-18.56,0-32.11-14.28-32.11-33.83,0-18.55,13-33.82,32.11-33.82,10.84,0,17.55,4.42,20.55,10.13V78.28h16v62.94c0,18.55-9.56,35.82-35.68,35.82-18.41,0-31.25-11.42-33.11-25.4Zm37.53-36.82c0-11.84-7.56-19.55-17.84-19.55-10.56,0-18.12,7.71-18.12,19.55,0,12.13,7.28,19.7,18.12,19.7C753.45,130.52,760.74,122.81,760.74,110.82Z"/>
    <path class="cls-1"
          d="M806.75,147.78H790.2V44.46h16.55V85c4.71-6.14,12.56-8.7,19.84-8.7,17.12,0,25.4,12.28,25.4,27.55v44H835.44v-41.1c0-8.56-3.86-15.41-14.28-15.41-9.13,0-14.12,6.85-14.42,15.7Z"/>
    <path class="cls-1"
          d="M890.31,77.64h14.42v14.7H890.31v32.25c0,6.14,2.71,8.7,8.85,8.7a35.06,35.06,0,0,0,5.71-.57v13.7c-1,.43-4.14,1.57-10.13,1.57-12.84,0-20.84-7.7-20.84-20.69v-35H861.06V77.64h3.57c7.42,0,10.7-4.71,10.7-10.85V56.38h15Z"/>
    <path class="cls-1"
          d="M931,124.31c.57,6.28,5.28,11.85,14.13,11.85,6.84,0,10.42-3.71,10.42-8,0-3.71-2.57-6.57-8.14-7.7l-10.27-2.28c-12.27-2.71-18.7-10.7-18.7-20.27,0-12.13,11.13-22.4,25.55-22.4,19.41,0,25.69,12.56,26.83,19.41l-14,4c-.58-4-3.57-10.42-12.85-10.42-5.85,0-10,3.71-10,8,0,3.71,2.71,6.43,7,7.28l10.56,2.14c13.13,2.86,20,10.85,20,21.13,0,10.56-8.56,22.26-26.26,22.26-20.12,0-27.83-13.13-28.69-21Z"/>
    <path id="_Path_8-2" data-name=" Path 8" class="cls-1"
          d="M503.09,50.1a8.57,8.57,0,0,1,17.15,0A8.42,8.42,0,0,1,512,58.67h-.31a8.37,8.37,0,0,1-8.57-8.16Q503.08,50.31,503.09,50.1Z"/>
    <rect id="_Path_9-2" data-name=" Path 9" class="cls-1" x="503.09" y="74.92" width="17.23" height="72.75"/>
    <path id="_Path_8-3" data-name=" Path 8" class="cls-1"
          d="M677.3,50.1a8.57,8.57,0,0,1,17.15,0,8.42,8.42,0,0,1-8.26,8.57h-.31a8.37,8.37,0,0,1-8.57-8.16Q677.3,50.31,677.3,50.1Z"/>
    <rect id="_Path_9-3" data-name=" Path 9" class="cls-1" x="677.3" y="74.92" width="17.23" height="72.75"/>
</svg>
