<!-- Generator: Adobe Illustrator 19.1.0, SVG Export Plug-In  -->
<svg version="1.1"
	 xmlns="http://www.w3.org/2000/svg" xmlns:xlink="http://www.w3.org/1999/xlink" xmlns:a="http://ns.adobe.com/AdobeSVGViewerExtensions/3.0/"
	 x="0px" y="0px" width="527.4px" height="330.1px" viewBox="0 0 527.4 330.1"
	 style="overflow:scroll;enable-background:new 0 0 527.4 330.1;" xml:space="preserve">
<style type="text/css">
	.st0{fill:#086A87;stroke:#086A87;stroke-width:1.7438;stroke-linecap:round;stroke-linejoin:round;stroke-miterlimit:10;}
	.st1{fill:#33CCCC;stroke:#33CCCC;stroke-width:2.9989;stroke-miterlimit:10;}
	.st2{fill:#9D9FA0;}
	.st3{fill:#086A87;stroke:#086A87;stroke-width:0.7602;stroke-linecap:round;stroke-linejoin:round;stroke-miterlimit:10;}
	.st4{fill:#ED6A4A;}
	.st5{fill:none;stroke:#33CCCC;stroke-width:2.3652;stroke-linecap:round;stroke-linejoin:round;stroke-miterlimit:10;}
	.st6{fill:none;stroke:#33CCCC;stroke-width:2.3217;stroke-linecap:round;stroke-linejoin:round;stroke-miterlimit:10;}
	.st7{fill:#086A87;}
</style>
<defs>
</defs>
<rect x="64.4" y="33.8" class="st0" width="51.2" height="251"/>
<rect x="198.4" y="217.1" class="st1" width="51.2" height="67.7"/>
<rect x="265.5" y="217.2" class="st2" width="51.2" height="69.5"/>
<rect x="332.5" y="237.3" class="st3" width="51.2" height="47.7"/>
<rect x="399.5" y="261.2" class="st4" width="51.2" height="24"/>
<rect x="131.4" y="140.3" class="st4" width="51.2" height="146.4"/>
<line class="st5" x1="1.2" y1="286.7" x2="526.2" y2="286.7"/>
<line class="st6" x1="30.9" y1="317.8" x2="30.9" y2="1.2"/>
<g>
	<path class="st7" d="M60.2,299h3.6c1.6,0,2.8,0.2,3.6,0.7s1.1,1.2,1.1,2.2c0,0.7-0.2,1.3-0.5,1.7c-0.3,0.4-0.8,0.7-1.3,0.8v0.1
		c0.7,0.2,1.3,0.5,1.6,0.9c0.3,0.4,0.5,1,0.5,1.8c0,1.1-0.4,1.9-1.1,2.5s-1.8,0.9-3.1,0.9h-4.3V299z M62.7,303.6h1.4
		c0.7,0,1.1-0.1,1.4-0.3s0.4-0.5,0.4-1c0-0.4-0.2-0.8-0.5-1c-0.3-0.2-0.8-0.3-1.5-0.3h-1.3V303.6z M62.7,305.5v3h1.6
		c0.7,0,1.2-0.1,1.5-0.4c0.3-0.3,0.5-0.7,0.5-1.2c0-1-0.7-1.4-2.1-1.4H62.7z"/>
	<path class="st7" d="M74.9,310.7c-1.4,0-2.5-0.4-3.3-1.2c-0.8-0.8-1.2-1.9-1.2-3.3c0-1.5,0.4-2.6,1.1-3.4s1.8-1.2,3.1-1.2
		c1.2,0,2.2,0.4,2.9,1.1c0.7,0.7,1,1.7,1,2.9v1.2h-5.7c0,0.7,0.2,1.2,0.6,1.6s0.9,0.6,1.6,0.6c0.5,0,1-0.1,1.5-0.2s1-0.3,1.5-0.5
		v1.9c-0.4,0.2-0.9,0.4-1.3,0.5S75.6,310.7,74.9,310.7z M74.5,303.3c-0.5,0-0.9,0.2-1.2,0.5s-0.5,0.8-0.5,1.4h3.4
		c0-0.6-0.2-1.1-0.5-1.4S75,303.3,74.5,303.3z"/>
	<path class="st7" d="M82.8,310.5h-2.4v-12.3h2.4V310.5z"/>
	<path class="st7" d="M93.4,306.1c0,1.4-0.4,2.6-1.1,3.4c-0.8,0.8-1.8,1.2-3.2,1.2c-0.8,0-1.6-0.2-2.2-0.6s-1.1-0.9-1.5-1.6
		c-0.3-0.7-0.5-1.5-0.5-2.4c0-1.4,0.4-2.6,1.1-3.4s1.8-1.2,3.2-1.2c0.8,0,1.6,0.2,2.2,0.6s1.1,0.9,1.5,1.6S93.4,305.2,93.4,306.1z
		 M87.3,306.1c0,0.9,0.1,1.5,0.4,2c0.3,0.4,0.8,0.7,1.4,0.7c0.6,0,1.1-0.2,1.4-0.7s0.4-1.1,0.4-2c0-0.9-0.1-1.5-0.4-2
		c-0.3-0.4-0.7-0.7-1.4-0.7c-0.6,0-1.1,0.2-1.4,0.7C87.4,304.6,87.3,305.2,87.3,306.1z"/>
	<path class="st7" d="M102.5,310.5l-0.7-3.1l-0.9-3.9h-0.1l-1.6,7h-2.6l-2.5-8.8h2.4l1,3.9c0.1,0.5,0.3,1.4,0.5,2.9h0.1
		c0-0.4,0.1-1,0.3-1.9l0.1-0.7l1.1-4.2h2.7l1,4.2c0.1,0.3,0.1,0.7,0.2,1.3c0.1,0.6,0.1,1,0.2,1.3h0.1c0.1-0.5,0.1-1,0.2-1.6
		c0.1-0.6,0.2-1,0.3-1.3l1.1-3.9h2.4l-2.5,8.8H102.5z"/>
	<path class="st7" d="M62.7,325.5v4.4h-2.4v-11.5h3.4c1.6,0,2.7,0.3,3.5,0.9c0.8,0.6,1.1,1.4,1.1,2.6c0,0.7-0.2,1.3-0.6,1.8
		c-0.4,0.5-0.9,0.9-1.6,1.2l3.4,5h-2.7l-2.8-4.4H62.7z M62.7,323.5h0.8c0.8,0,1.3-0.1,1.7-0.4s0.6-0.7,0.6-1.2
		c0-0.5-0.2-0.9-0.6-1.2s-1-0.3-1.7-0.3h-0.7V323.5z"/>
	<path class="st7" d="M75.8,329.9l-2.8-9h-0.1c0.1,1.8,0.1,3.1,0.1,3.7v5.4h-2.2v-11.5h3.3l2.7,8.8h0l2.9-8.8h3.3v11.5h-2.3v-5.5
		c0-0.3,0-0.6,0-0.9c0-0.3,0-1.2,0.1-2.7H81l-3,9H75.8z"/>
	<path class="st7" d="M95.5,329.9h-2.4v-6.7l0-1.1l0-1.2c-0.4,0.4-0.7,0.7-0.8,0.8l-1.3,1.1l-1.2-1.5l3.7-3h2V329.9z"/>
	<path class="st7" d="M106.7,324.2c0,2-0.3,3.5-1,4.5c-0.7,1-1.7,1.5-3,1.5c-1.3,0-2.3-0.5-3-1.5s-1-2.5-1-4.4c0-2,0.3-3.5,1-4.5
		c0.7-1,1.7-1.4,3-1.4c1.3,0,2.3,0.5,3,1.5C106.4,320.7,106.7,322.2,106.7,324.2z M101.1,324.2c0,1.4,0.1,2.4,0.4,3
		c0.2,0.6,0.7,0.9,1.2,0.9c0.6,0,1-0.3,1.2-0.9s0.4-1.6,0.4-3c0-1.4-0.1-2.4-0.4-3c-0.3-0.6-0.7-0.9-1.2-0.9c-0.6,0-1,0.3-1.2,0.9
		C101.2,321.7,101.1,322.7,101.1,324.2z"/>
	<path class="st7" d="M116,324.2c0,2-0.3,3.5-1,4.5c-0.7,1-1.7,1.5-3,1.5c-1.3,0-2.3-0.5-3-1.5c-0.7-1-1-2.5-1-4.4
		c0-2,0.3-3.5,1-4.5c0.7-1,1.7-1.4,3-1.4c1.3,0,2.3,0.5,3,1.5C115.6,320.7,116,322.2,116,324.2z M110.3,324.2c0,1.4,0.1,2.4,0.4,3
		c0.2,0.6,0.7,0.9,1.2,0.9c0.6,0,1-0.3,1.2-0.9s0.4-1.6,0.4-3c0-1.4-0.1-2.4-0.4-3c-0.3-0.6-0.7-0.9-1.2-0.9c-0.6,0-1,0.3-1.2,0.9
		C110.5,321.7,110.3,322.7,110.3,324.2z"/>
</g>
<g>
	<path class="st7" d="M129.7,306.1v4.4h-2.4V299h3.4c1.6,0,2.7,0.3,3.5,0.9c0.8,0.6,1.1,1.4,1.1,2.6c0,0.7-0.2,1.3-0.6,1.8
		c-0.4,0.5-0.9,0.9-1.6,1.2l3.4,5h-2.7l-2.8-4.4H129.7z M129.7,304.1h0.8c0.8,0,1.3-0.1,1.7-0.4c0.4-0.3,0.6-0.7,0.6-1.2
		c0-0.5-0.2-0.9-0.6-1.2s-1-0.3-1.7-0.3h-0.7V304.1z"/>
	<path class="st7" d="M142.8,310.5l-2.8-9h-0.1c0.1,1.8,0.1,3.1,0.1,3.7v5.4h-2.2V299h3.3l2.7,8.8h0l2.9-8.8h3.3v11.5h-2.3v-5.5
		c0-0.3,0-0.6,0-0.9s0-1.2,0.1-2.7H148l-3,9H142.8z"/>
	<path class="st7" d="M158.3,310.5h-2.4v-6.7l0-1.1l0-1.2c-0.4,0.4-0.7,0.7-0.8,0.8l-1.3,1.1l-1.2-1.5l3.7-3h2V310.5z"/>
	<path class="st7" d="M169.6,304.8c0,2-0.3,3.5-1,4.5c-0.7,1-1.7,1.5-3,1.5c-1.3,0-2.3-0.5-3-1.5s-1-2.5-1-4.4c0-2,0.3-3.5,1-4.5
		c0.7-1,1.7-1.4,3-1.4c1.3,0,2.3,0.5,3,1.5C169.2,301.3,169.6,302.8,169.6,304.8z M163.9,304.8c0,1.4,0.1,2.4,0.4,3
		c0.2,0.6,0.7,0.9,1.2,0.9c0.6,0,1-0.3,1.2-0.9s0.4-1.6,0.4-3c0-1.4-0.1-2.4-0.4-3c-0.3-0.6-0.7-0.9-1.2-0.9c-0.6,0-1,0.3-1.2,0.9
		C164,302.3,163.9,303.4,163.9,304.8z"/>
	<path class="st7" d="M176.8,310.5h-2.4v-6.7l0-1.1l0-1.2c-0.4,0.4-0.7,0.7-0.8,0.8l-1.3,1.1l-1.2-1.5l3.7-3h2V310.5z"/>
	<path class="st7" d="M179.9,307.2v-2h4.2v2H179.9z"/>
	<path class="st7" d="M129.7,325.5v4.4h-2.4v-11.5h3.4c1.6,0,2.7,0.3,3.5,0.9c0.8,0.6,1.1,1.4,1.1,2.6c0,0.7-0.2,1.3-0.6,1.8
		c-0.4,0.5-0.9,0.9-1.6,1.2l3.4,5h-2.7l-2.8-4.4H129.7z M129.7,323.5h0.8c0.8,0,1.3-0.1,1.7-0.4c0.4-0.3,0.6-0.7,0.6-1.2
		c0-0.5-0.2-0.9-0.6-1.2s-1-0.3-1.7-0.3h-0.7V323.5z"/>
	<path class="st7" d="M142.8,329.9l-2.8-9h-0.1c0.1,1.8,0.1,3.1,0.1,3.7v5.4h-2.2v-11.5h3.3l2.7,8.8h0l2.9-8.8h3.3v11.5h-2.3v-5.5
		c0-0.3,0-0.6,0-0.9s0-1.2,0.1-2.7H148l-3,9H142.8z"/>
	<path class="st7" d="M160.4,329.9h-8.1v-1.7l2.9-2.9c0.9-0.9,1.4-1.5,1.7-1.8c0.3-0.3,0.5-0.7,0.6-0.9c0.1-0.3,0.2-0.6,0.2-0.9
		c0-0.5-0.1-0.8-0.4-1s-0.6-0.3-1-0.3c-0.4,0-0.9,0.1-1.3,0.3c-0.4,0.2-0.9,0.5-1.3,0.9l-1.3-1.6c0.6-0.5,1-0.8,1.4-1
		s0.8-0.4,1.2-0.5c0.4-0.1,0.9-0.2,1.5-0.2c0.7,0,1.4,0.1,1.9,0.4c0.6,0.3,1,0.6,1.3,1.1c0.3,0.5,0.5,1,0.5,1.6c0,0.5-0.1,1-0.3,1.5
		s-0.5,0.9-0.9,1.4c-0.4,0.5-1.1,1.2-2.1,2.1l-1.5,1.4v0.1h5V329.9z"/>
	<path class="st7" d="M165.8,322.5c1.1,0,2,0.3,2.7,0.9c0.7,0.6,1,1.5,1,2.6c0,1.3-0.4,2.3-1.2,3c-0.8,0.7-1.9,1-3.4,1
		c-1.3,0-2.3-0.2-3.1-0.6v-2.1c0.4,0.2,0.9,0.4,1.5,0.5c0.6,0.1,1.1,0.2,1.6,0.2c1.5,0,2.2-0.6,2.2-1.8c0-1.2-0.8-1.7-2.3-1.7
		c-0.3,0-0.6,0-0.9,0.1s-0.6,0.1-0.8,0.2l-1-0.5l0.4-5.9h6.3v2.1h-4.1l-0.2,2.3l0.3-0.1C164.9,322.6,165.3,322.5,165.8,322.5z"/>
	<path class="st7" d="M178.8,324.2c0,2-0.3,3.5-1,4.5c-0.7,1-1.7,1.5-3,1.5c-1.3,0-2.3-0.5-3-1.5c-0.7-1-1-2.5-1-4.4
		c0-2,0.3-3.5,1-4.5c0.7-1,1.7-1.4,3-1.4c1.3,0,2.3,0.5,3,1.5C178.4,320.7,178.8,322.2,178.8,324.2z M173.2,324.2
		c0,1.4,0.1,2.4,0.4,3c0.2,0.6,0.7,0.9,1.2,0.9c0.6,0,1-0.3,1.2-0.9s0.4-1.6,0.4-3c0-1.4-0.1-2.4-0.4-3c-0.3-0.6-0.7-0.9-1.2-0.9
		c-0.6,0-1,0.3-1.2,0.9C173.3,321.7,173.2,322.7,173.2,324.2z"/>
</g>
<g>
	<path class="st7" d="M199.7,306.1v4.4h-2.4V299h3.4c1.6,0,2.7,0.3,3.5,0.9c0.8,0.6,1.1,1.4,1.1,2.6c0,0.7-0.2,1.3-0.6,1.8
		s-0.9,0.9-1.6,1.2l3.4,5h-2.7l-2.8-4.4H199.7z M199.7,304.1h0.8c0.8,0,1.3-0.1,1.7-0.4s0.6-0.7,0.6-1.2c0-0.5-0.2-0.9-0.6-1.2
		s-1-0.3-1.7-0.3h-0.7V304.1z"/>
	<path class="st7" d="M212.8,310.5l-2.8-9h-0.1c0.1,1.8,0.1,3.1,0.1,3.7v5.4h-2.2V299h3.3l2.7,8.8h0l2.9-8.8h3.3v11.5h-2.3v-5.5
		c0-0.3,0-0.6,0-0.9c0-0.3,0-1.2,0.1-2.7H218l-3,9H212.8z"/>
	<path class="st7" d="M230.4,310.5h-8.1v-1.7l2.9-2.9c0.9-0.9,1.4-1.5,1.7-1.8c0.3-0.3,0.5-0.7,0.6-0.9c0.1-0.3,0.2-0.6,0.2-0.9
		c0-0.5-0.1-0.8-0.4-1s-0.6-0.3-1-0.3c-0.4,0-0.9,0.1-1.3,0.3c-0.4,0.2-0.9,0.5-1.3,0.9l-1.3-1.6c0.6-0.5,1-0.8,1.4-1
		s0.8-0.4,1.2-0.5c0.4-0.1,0.9-0.2,1.5-0.2c0.7,0,1.4,0.1,1.9,0.4c0.6,0.3,1,0.6,1.3,1.1c0.3,0.5,0.5,1,0.5,1.6c0,0.5-0.1,1-0.3,1.5
		c-0.2,0.5-0.5,0.9-0.9,1.4c-0.4,0.5-1.1,1.2-2.1,2.1l-1.5,1.4v0.1h5V310.5z"/>
	<path class="st7" d="M235.7,303.2c1.1,0,2,0.3,2.7,0.9c0.7,0.6,1,1.5,1,2.6c0,1.3-0.4,2.3-1.2,3c-0.8,0.7-1.9,1-3.4,1
		c-1.3,0-2.3-0.2-3.1-0.6V308c0.4,0.2,0.9,0.4,1.5,0.5c0.6,0.1,1.1,0.2,1.6,0.2c1.5,0,2.2-0.6,2.2-1.8c0-1.2-0.8-1.7-2.3-1.7
		c-0.3,0-0.6,0-0.9,0.1c-0.3,0.1-0.6,0.1-0.8,0.2l-1-0.5l0.4-5.9h6.3v2.1h-4.1l-0.2,2.3l0.3-0.1
		C234.9,303.2,235.3,303.2,235.7,303.2z"/>
	<path class="st7" d="M246.8,310.5h-2.4v-6.7l0-1.1l0-1.2c-0.4,0.4-0.7,0.7-0.8,0.8l-1.3,1.1l-1.2-1.5l3.7-3h2V310.5z"/>
	<path class="st7" d="M249.9,307.2v-2h4.2v2H249.9z"/>
	<path class="st7" d="M199.7,325.5v4.4h-2.4v-11.5h3.4c1.6,0,2.7,0.3,3.5,0.9c0.8,0.6,1.1,1.4,1.1,2.6c0,0.7-0.2,1.3-0.6,1.8
		s-0.9,0.9-1.6,1.2l3.4,5h-2.7l-2.8-4.4H199.7z M199.7,323.5h0.8c0.8,0,1.3-0.1,1.7-0.4s0.6-0.7,0.6-1.2c0-0.5-0.2-0.9-0.6-1.2
		s-1-0.3-1.7-0.3h-0.7V323.5z"/>
	<path class="st7" d="M212.8,329.9l-2.8-9h-0.1c0.1,1.8,0.1,3.1,0.1,3.7v5.4h-2.2v-11.5h3.3l2.7,8.8h0l2.9-8.8h3.3v11.5h-2.3v-5.5
		c0-0.3,0-0.6,0-0.9c0-0.3,0-1.2,0.1-2.7H218l-3,9H212.8z"/>
	<path class="st7" d="M229.9,321c0,0.7-0.2,1.3-0.7,1.8c-0.4,0.5-1,0.9-1.8,1v0c0.9,0.1,1.6,0.4,2.1,0.8c0.5,0.4,0.7,1.1,0.7,1.8
		c0,1.1-0.4,2-1.2,2.6c-0.8,0.6-2,0.9-3.4,0.9c-1.3,0-2.4-0.2-3.3-0.6v-2.1c0.4,0.2,0.9,0.4,1.5,0.6c0.5,0.1,1.1,0.2,1.6,0.2
		c0.8,0,1.4-0.1,1.8-0.4s0.6-0.7,0.6-1.3c0-0.5-0.2-0.9-0.7-1.2s-1.1-0.3-2.1-0.3h-0.9v-1.9h0.9c0.9,0,1.5-0.1,2-0.4
		c0.4-0.2,0.6-0.6,0.6-1.2c0-0.9-0.5-1.3-1.6-1.3c-0.4,0-0.8,0.1-1.2,0.2c-0.4,0.1-0.8,0.3-1.3,0.7l-1.1-1.7
		c1.1-0.8,2.3-1.1,3.8-1.1c1.2,0,2.1,0.2,2.8,0.7S229.9,320.1,229.9,321z"/>
	<path class="st7" d="M235.7,322.5c1.1,0,2,0.3,2.7,0.9c0.7,0.6,1,1.5,1,2.6c0,1.3-0.4,2.3-1.2,3c-0.8,0.7-1.9,1-3.4,1
		c-1.3,0-2.3-0.2-3.1-0.6v-2.1c0.4,0.2,0.9,0.4,1.5,0.5c0.6,0.1,1.1,0.2,1.6,0.2c1.5,0,2.2-0.6,2.2-1.8c0-1.2-0.8-1.7-2.3-1.7
		c-0.3,0-0.6,0-0.9,0.1c-0.3,0.1-0.6,0.1-0.8,0.2l-1-0.5l0.4-5.9h6.3v2.1h-4.1l-0.2,2.3l0.3-0.1
		C234.9,322.6,235.3,322.5,235.7,322.5z"/>
	<path class="st7" d="M248.8,324.2c0,2-0.3,3.5-1,4.5c-0.7,1-1.7,1.5-3,1.5c-1.3,0-2.3-0.5-3-1.5c-0.7-1-1-2.5-1-4.4
		c0-2,0.3-3.5,1-4.5c0.7-1,1.7-1.4,3-1.4c1.3,0,2.3,0.5,3,1.5C248.4,320.7,248.8,322.2,248.8,324.2z M243.1,324.2
		c0,1.4,0.1,2.4,0.4,3c0.2,0.6,0.7,0.9,1.2,0.9c0.6,0,1-0.3,1.2-0.9s0.4-1.6,0.4-3c0-1.4-0.1-2.4-0.4-3c-0.3-0.6-0.7-0.9-1.2-0.9
		c-0.6,0-1,0.3-1.2,0.9C243.3,321.7,243.1,322.7,243.1,324.2z"/>
</g>
<g>
	<path class="st7" d="M269.7,306.1v4.4h-2.4V299h3.4c1.6,0,2.7,0.3,3.5,0.9c0.8,0.6,1.1,1.4,1.1,2.6c0,0.7-0.2,1.3-0.6,1.8
		c-0.4,0.5-0.9,0.9-1.6,1.2l3.4,5h-2.7l-2.8-4.4H269.7z M269.7,304.1h0.8c0.8,0,1.3-0.1,1.7-0.4s0.6-0.7,0.6-1.2
		c0-0.5-0.2-0.9-0.6-1.2s-1-0.3-1.7-0.3h-0.7V304.1z"/>
	<path class="st7" d="M282.8,310.5l-2.8-9h-0.1c0.1,1.8,0.1,3.1,0.1,3.7v5.4h-2.2V299h3.3l2.7,8.8h0l2.9-8.8h3.3v11.5h-2.3v-5.5
		c0-0.3,0-0.6,0-0.9c0-0.3,0-1.2,0.1-2.7H288l-3,9H282.8z"/>
	<path class="st7" d="M299.9,301.6c0,0.7-0.2,1.3-0.7,1.8s-1,0.9-1.8,1v0c0.9,0.1,1.6,0.4,2.1,0.8c0.5,0.4,0.7,1.1,0.7,1.8
		c0,1.1-0.4,2-1.2,2.6c-0.8,0.6-2,0.9-3.4,0.9c-1.3,0-2.4-0.2-3.3-0.6V308c0.4,0.2,0.9,0.4,1.5,0.6c0.5,0.1,1.1,0.2,1.6,0.2
		c0.8,0,1.4-0.1,1.8-0.4s0.6-0.7,0.6-1.3c0-0.5-0.2-0.9-0.7-1.2c-0.4-0.2-1.1-0.3-2.1-0.3H294v-1.9h0.9c0.9,0,1.5-0.1,2-0.4
		s0.6-0.6,0.6-1.2c0-0.9-0.5-1.3-1.6-1.3c-0.4,0-0.8,0.1-1.2,0.2c-0.4,0.1-0.8,0.3-1.3,0.7l-1.1-1.7c1.1-0.8,2.3-1.1,3.8-1.1
		c1.2,0,2.1,0.2,2.8,0.7C299.6,300,299.9,300.7,299.9,301.6z"/>
	<path class="st7" d="M305.7,303.2c1.1,0,2,0.3,2.7,0.9c0.7,0.6,1,1.5,1,2.6c0,1.3-0.4,2.3-1.2,3c-0.8,0.7-1.9,1-3.4,1
		c-1.3,0-2.3-0.2-3.1-0.6V308c0.4,0.2,0.9,0.4,1.5,0.5c0.6,0.1,1.1,0.2,1.6,0.2c1.5,0,2.2-0.6,2.2-1.8c0-1.2-0.8-1.7-2.3-1.7
		c-0.3,0-0.6,0-0.9,0.1s-0.6,0.1-0.8,0.2l-1-0.5l0.4-5.9h6.3v2.1h-4.1l-0.2,2.3l0.3-0.1C304.9,303.2,305.3,303.2,305.7,303.2z"/>
	<path class="st7" d="M316.8,310.5h-2.4v-6.7l0-1.1l0-1.2c-0.4,0.4-0.7,0.7-0.8,0.8l-1.3,1.1l-1.2-1.5l3.7-3h2V310.5z"/>
	<path class="st7" d="M319.8,307.2v-2h4.2v2H319.8z"/>
	<path class="st7" d="M269.7,325.5v4.4h-2.4v-11.5h3.4c1.6,0,2.7,0.3,3.5,0.9c0.8,0.6,1.1,1.4,1.1,2.6c0,0.7-0.2,1.3-0.6,1.8
		c-0.4,0.5-0.9,0.9-1.6,1.2l3.4,5h-2.7l-2.8-4.4H269.7z M269.7,323.5h0.8c0.8,0,1.3-0.1,1.7-0.4s0.6-0.7,0.6-1.2
		c0-0.5-0.2-0.9-0.6-1.2s-1-0.3-1.7-0.3h-0.7V323.5z"/>
	<path class="st7" d="M282.8,329.9l-2.8-9h-0.1c0.1,1.8,0.1,3.1,0.1,3.7v5.4h-2.2v-11.5h3.3l2.7,8.8h0l2.9-8.8h3.3v11.5h-2.3v-5.5
		c0-0.3,0-0.6,0-0.9c0-0.3,0-1.2,0.1-2.7H288l-3,9H282.8z"/>
	<path class="st7" d="M296.5,322.5c1.1,0,2,0.3,2.7,0.9c0.7,0.6,1,1.5,1,2.6c0,1.3-0.4,2.3-1.2,3c-0.8,0.7-1.9,1-3.4,1
		c-1.3,0-2.3-0.2-3.1-0.6v-2.1c0.4,0.2,0.9,0.4,1.5,0.5c0.6,0.1,1.1,0.2,1.6,0.2c1.5,0,2.2-0.6,2.2-1.8c0-1.2-0.8-1.7-2.3-1.7
		c-0.3,0-0.6,0-0.9,0.1s-0.6,0.1-0.8,0.2l-1-0.5l0.4-5.9h6.3v2.1h-4.1l-0.2,2.3l0.3-0.1C295.6,322.6,296,322.5,296.5,322.5z"/>
	<path class="st7" d="M309.5,324.2c0,2-0.3,3.5-1,4.5c-0.7,1-1.7,1.5-3,1.5c-1.3,0-2.3-0.5-3-1.5c-0.7-1-1-2.5-1-4.4
		c0-2,0.3-3.5,1-4.5c0.7-1,1.7-1.4,3-1.4c1.3,0,2.3,0.5,3,1.5C309.2,320.7,309.5,322.2,309.5,324.2z M303.9,324.2
		c0,1.4,0.1,2.4,0.4,3c0.2,0.6,0.7,0.9,1.2,0.9c0.6,0,1-0.3,1.2-0.9s0.4-1.6,0.4-3c0-1.4-0.1-2.4-0.4-3c-0.3-0.6-0.7-0.9-1.2-0.9
		c-0.6,0-1,0.3-1.2,0.9C304,321.7,303.9,322.7,303.9,324.2z"/>
	<path class="st7" d="M318.8,324.2c0,2-0.3,3.5-1,4.5c-0.7,1-1.7,1.5-3,1.5c-1.3,0-2.3-0.5-3-1.5s-1-2.5-1-4.4c0-2,0.3-3.5,1-4.5
		c0.7-1,1.7-1.4,3-1.4c1.3,0,2.3,0.5,3,1.5C318.4,320.7,318.8,322.2,318.8,324.2z M313.1,324.2c0,1.4,0.1,2.4,0.4,3
		c0.2,0.6,0.7,0.9,1.2,0.9c0.6,0,1-0.3,1.2-0.9s0.4-1.6,0.4-3c0-1.4-0.1-2.4-0.4-3c-0.3-0.6-0.7-0.9-1.2-0.9c-0.6,0-1,0.3-1.2,0.9
		C313.3,321.7,313.1,322.7,313.1,324.2z"/>
</g>
<g>
	<path class="st7" d="M339.6,306.1v4.4h-2.4V299h3.4c1.6,0,2.7,0.3,3.5,0.9c0.8,0.6,1.1,1.4,1.1,2.6c0,0.7-0.2,1.3-0.6,1.8
		c-0.4,0.5-0.9,0.9-1.6,1.2l3.4,5h-2.7l-2.8-4.4H339.6z M339.6,304.1h0.8c0.8,0,1.3-0.1,1.7-0.4s0.6-0.7,0.6-1.2
		c0-0.5-0.2-0.9-0.6-1.2s-1-0.3-1.7-0.3h-0.7V304.1z"/>
	<path class="st7" d="M352.7,310.5l-2.8-9h-0.1c0.1,1.8,0.1,3.1,0.1,3.7v5.4h-2.2V299h3.3l2.7,8.8h0l2.9-8.8h3.3v11.5h-2.3v-5.5
		c0-0.3,0-0.6,0-0.9s0-1.2,0.1-2.7H358l-3,9H352.7z"/>
	<path class="st7" d="M366.5,303.2c1.1,0,2,0.3,2.7,0.9c0.7,0.6,1,1.5,1,2.6c0,1.3-0.4,2.3-1.2,3c-0.8,0.7-1.9,1-3.4,1
		c-1.3,0-2.3-0.2-3.1-0.6V308c0.4,0.2,0.9,0.4,1.5,0.5c0.6,0.1,1.1,0.2,1.6,0.2c1.5,0,2.2-0.6,2.2-1.8c0-1.2-0.8-1.7-2.3-1.7
		c-0.3,0-0.6,0-0.9,0.1c-0.3,0.1-0.6,0.1-0.8,0.2l-1-0.5l0.4-5.9h6.3v2.1h-4.1l-0.2,2.3l0.3-0.1C365.6,303.2,366,303.2,366.5,303.2z
		"/>
	<path class="st7" d="M379.5,304.8c0,2-0.3,3.5-1,4.5c-0.7,1-1.7,1.5-3,1.5c-1.3,0-2.3-0.5-3-1.5c-0.7-1-1-2.5-1-4.4
		c0-2,0.3-3.5,1-4.5c0.7-1,1.7-1.4,3-1.4c1.3,0,2.3,0.5,3,1.5C379.2,301.3,379.5,302.8,379.5,304.8z M373.9,304.8
		c0,1.4,0.1,2.4,0.4,3c0.2,0.6,0.7,0.9,1.2,0.9c0.6,0,1-0.3,1.2-0.9s0.4-1.6,0.4-3c0-1.4-0.1-2.4-0.4-3c-0.3-0.6-0.7-0.9-1.2-0.9
		c-0.6,0-1,0.3-1.2,0.9C374,302.3,373.9,303.4,373.9,304.8z"/>
	<path class="st7" d="M386.8,310.5h-2.4v-6.7l0-1.1l0-1.2c-0.4,0.4-0.7,0.7-0.8,0.8l-1.3,1.1l-1.2-1.5l3.7-3h2V310.5z"/>
	<path class="st7" d="M389.8,307.2v-2h4.2v2H389.8z"/>
	<path class="st7" d="M339.6,325.5v4.4h-2.4v-11.5h3.4c1.6,0,2.7,0.3,3.5,0.9c0.8,0.6,1.1,1.4,1.1,2.6c0,0.7-0.2,1.3-0.6,1.8
		c-0.4,0.5-0.9,0.9-1.6,1.2l3.4,5h-2.7l-2.8-4.4H339.6z M339.6,323.5h0.8c0.8,0,1.3-0.1,1.7-0.4s0.6-0.7,0.6-1.2
		c0-0.5-0.2-0.9-0.6-1.2s-1-0.3-1.7-0.3h-0.7V323.5z"/>
	<path class="st7" d="M352.7,329.9l-2.8-9h-0.1c0.1,1.8,0.1,3.1,0.1,3.7v5.4h-2.2v-11.5h3.3l2.7,8.8h0l2.9-8.8h3.3v11.5h-2.3v-5.5
		c0-0.3,0-0.6,0-0.9s0-1.2,0.1-2.7H358l-3,9H352.7z"/>
	<path class="st7" d="M368.3,329.9h-2.4v-6.7l0-1.1l0-1.2c-0.4,0.4-0.7,0.7-0.8,0.8l-1.3,1.1l-1.2-1.5l3.7-3h2V329.9z"/>
	<path class="st7" d="M379.5,324.2c0,2-0.3,3.5-1,4.5c-0.7,1-1.7,1.5-3,1.5c-1.3,0-2.3-0.5-3-1.5c-0.7-1-1-2.5-1-4.4
		c0-2,0.3-3.5,1-4.5c0.7-1,1.7-1.4,3-1.4c1.3,0,2.3,0.5,3,1.5C379.2,320.7,379.5,322.2,379.5,324.2z M373.9,324.2
		c0,1.4,0.1,2.4,0.4,3c0.2,0.6,0.7,0.9,1.2,0.9c0.6,0,1-0.3,1.2-0.9s0.4-1.6,0.4-3c0-1.4-0.1-2.4-0.4-3c-0.3-0.6-0.7-0.9-1.2-0.9
		c-0.6,0-1,0.3-1.2,0.9C374,321.7,373.9,322.7,373.9,324.2z"/>
	<path class="st7" d="M388.8,324.2c0,2-0.3,3.5-1,4.5c-0.7,1-1.7,1.5-3,1.5c-1.3,0-2.3-0.5-3-1.5c-0.7-1-1-2.5-1-4.4
		c0-2,0.3-3.5,1-4.5c0.7-1,1.7-1.4,3-1.4c1.3,0,2.3,0.5,3,1.5C388.4,320.7,388.8,322.2,388.8,324.2z M383.1,324.2
		c0,1.4,0.1,2.4,0.4,3c0.2,0.6,0.7,0.9,1.2,0.9c0.6,0,1-0.3,1.2-0.9c0.3-0.6,0.4-1.6,0.4-3c0-1.4-0.1-2.4-0.4-3
		c-0.3-0.6-0.7-0.9-1.2-0.9c-0.6,0-1,0.3-1.2,0.9C383.2,321.7,383.1,322.7,383.1,324.2z"/>
	<path class="st7" d="M398,324.2c0,2-0.3,3.5-1,4.5s-1.7,1.5-3,1.5c-1.3,0-2.3-0.5-3-1.5s-1-2.5-1-4.4c0-2,0.3-3.5,1-4.5
		c0.7-1,1.7-1.4,3-1.4c1.3,0,2.3,0.5,3,1.5C397.7,320.7,398,322.2,398,324.2z M392.4,324.2c0,1.4,0.1,2.4,0.4,3
		c0.2,0.6,0.7,0.9,1.2,0.9c0.6,0,1-0.3,1.2-0.9s0.4-1.6,0.4-3c0-1.4-0.1-2.4-0.4-3c-0.3-0.6-0.7-0.9-1.2-0.9c-0.6,0-1,0.3-1.2,0.9
		C392.5,321.7,392.4,322.7,392.4,324.2z"/>
</g>
<g>
	<path class="st7" d="M414.3,310.5l-0.8-2.7h-4.2l-0.8,2.7h-2.6l4.1-11.6h3l4.1,11.6H414.3z M412.8,305.7c-0.8-2.5-1.2-3.9-1.3-4.2
		s-0.2-0.6-0.2-0.8c-0.2,0.7-0.7,2.3-1.5,5H412.8z"/>
	<path class="st7" d="M423.1,301.5c1,0,1.9,0.4,2.4,1.2s0.9,1.9,0.9,3.3c0,1.5-0.3,2.6-0.9,3.4s-1.4,1.2-2.5,1.2
		c-1,0-1.8-0.4-2.4-1.1h-0.2l-0.4,1h-1.8v-12.3h2.4v2.9c0,0.4,0,0.9-0.1,1.7h0.1C421.1,302,421.9,301.5,423.1,301.5z M422.3,303.5
		c-0.6,0-1,0.2-1.3,0.5c-0.3,0.4-0.4,1-0.4,1.8v0.3c0,0.9,0.1,1.6,0.4,2s0.7,0.6,1.3,0.6c0.5,0,0.9-0.2,1.2-0.7
		c0.3-0.5,0.4-1.1,0.4-2c0-0.9-0.1-1.5-0.4-2C423.2,303.7,422.8,303.5,422.3,303.5z"/>
	<path class="st7" d="M436.4,306.1c0,1.4-0.4,2.6-1.1,3.4c-0.8,0.8-1.8,1.2-3.2,1.2c-0.8,0-1.6-0.2-2.2-0.6
		c-0.6-0.4-1.1-0.9-1.5-1.6c-0.3-0.7-0.5-1.5-0.5-2.4c0-1.4,0.4-2.6,1.1-3.4s1.8-1.2,3.2-1.2c0.8,0,1.6,0.2,2.2,0.6
		c0.6,0.4,1.1,0.9,1.5,1.6C436.2,304.4,436.4,305.2,436.4,306.1z M430.3,306.1c0,0.9,0.1,1.5,0.4,2c0.3,0.4,0.8,0.7,1.4,0.7
		c0.6,0,1.1-0.2,1.4-0.7s0.4-1.1,0.4-2c0-0.9-0.1-1.5-0.4-2c-0.3-0.4-0.7-0.7-1.4-0.7c-0.6,0-1.1,0.2-1.4,0.7
		C430.4,304.6,430.3,305.2,430.3,306.1z"/>
	<path class="st7" d="M440.3,310.5l-3.4-8.8h2.5l1.7,5c0.2,0.5,0.3,1.1,0.3,1.8h0.1c0-0.6,0.1-1.2,0.4-1.8l1.7-5h2.5l-3.4,8.8H440.3
		z"/>
	<path class="st7" d="M451.4,310.7c-1.4,0-2.5-0.4-3.3-1.2c-0.8-0.8-1.2-1.9-1.2-3.3c0-1.5,0.4-2.6,1.1-3.4s1.8-1.2,3.1-1.2
		c1.2,0,2.2,0.4,2.9,1.1c0.7,0.7,1,1.7,1,2.9v1.2h-5.7c0,0.7,0.2,1.2,0.6,1.6s0.9,0.6,1.6,0.6c0.5,0,1-0.1,1.5-0.2s1-0.3,1.5-0.5
		v1.9c-0.4,0.2-0.9,0.4-1.3,0.5S452.1,310.7,451.4,310.7z M451.1,303.3c-0.5,0-0.9,0.2-1.2,0.5s-0.5,0.8-0.5,1.4h3.4
		c0-0.6-0.2-1.1-0.5-1.4C452,303.4,451.6,303.3,451.1,303.3z"/>
	<path class="st7" d="M409.6,325.5v4.4h-2.4v-11.5h3.4c1.6,0,2.7,0.3,3.5,0.9c0.8,0.6,1.1,1.4,1.1,2.6c0,0.7-0.2,1.3-0.6,1.8
		c-0.4,0.5-0.9,0.9-1.6,1.2l3.4,5h-2.7l-2.8-4.4H409.6z M409.6,323.5h0.8c0.8,0,1.3-0.1,1.7-0.4c0.4-0.3,0.6-0.7,0.6-1.2
		c0-0.5-0.2-0.9-0.6-1.2s-1-0.3-1.7-0.3h-0.7V323.5z"/>
	<path class="st7" d="M422.7,329.9l-2.8-9h-0.1c0.1,1.8,0.1,3.1,0.1,3.7v5.4h-2.2v-11.5h3.3l2.7,8.8h0l2.9-8.8h3.3v11.5h-2.3v-5.5
		c0-0.3,0-0.6,0-0.9c0-0.3,0-1.2,0.1-2.7H428l-3,9H422.7z"/>
	<path class="st7" d="M438.3,329.9h-2.4v-6.7l0-1.1l0-1.2c-0.4,0.4-0.7,0.7-0.8,0.8l-1.3,1.1l-1.2-1.5l3.7-3h2V329.9z"/>
	<path class="st7" d="M449.5,324.2c0,2-0.3,3.5-1,4.5s-1.7,1.5-3,1.5c-1.3,0-2.3-0.5-3-1.5s-1-2.5-1-4.4c0-2,0.3-3.5,1-4.5
		c0.7-1,1.7-1.4,3-1.4c1.3,0,2.3,0.5,3,1.5C449.2,320.7,449.5,322.2,449.5,324.2z M443.9,324.2c0,1.4,0.1,2.4,0.4,3
		c0.2,0.6,0.7,0.9,1.2,0.9c0.6,0,1-0.3,1.2-0.9s0.4-1.6,0.4-3c0-1.4-0.1-2.4-0.4-3c-0.3-0.6-0.7-0.9-1.2-0.9c-0.6,0-1,0.3-1.2,0.9
		C444,321.7,443.9,322.7,443.9,324.2z"/>
	<path class="st7" d="M458.8,324.2c0,2-0.3,3.5-1,4.5c-0.7,1-1.7,1.5-3,1.5c-1.3,0-2.3-0.5-3-1.5s-1-2.5-1-4.4c0-2,0.3-3.5,1-4.5
		c0.7-1,1.7-1.4,3-1.4c1.3,0,2.3,0.5,3,1.5C458.4,320.7,458.8,322.2,458.8,324.2z M453.1,324.2c0,1.4,0.1,2.4,0.4,3
		c0.2,0.6,0.7,0.9,1.2,0.9c0.6,0,1-0.3,1.2-0.9c0.3-0.6,0.4-1.6,0.4-3c0-1.4-0.1-2.4-0.4-3c-0.3-0.6-0.7-0.9-1.2-0.9
		c-0.6,0-1,0.3-1.2,0.9C453.2,321.7,453.1,322.7,453.1,324.2z"/>
	<path class="st7" d="M468,324.2c0,2-0.3,3.5-1,4.5c-0.7,1-1.7,1.5-3,1.5c-1.3,0-2.3-0.5-3-1.5c-0.7-1-1-2.5-1-4.4
		c0-2,0.3-3.5,1-4.5c0.7-1,1.7-1.4,3-1.4c1.3,0,2.3,0.5,3,1.5C467.6,320.7,468,322.2,468,324.2z M462.3,324.2c0,1.4,0.1,2.4,0.4,3
		c0.2,0.6,0.7,0.9,1.2,0.9c0.6,0,1-0.3,1.2-0.9s0.4-1.6,0.4-3c0-1.4-0.1-2.4-0.4-3c-0.3-0.6-0.7-0.9-1.2-0.9c-0.6,0-1,0.3-1.2,0.9
		C462.5,321.7,462.3,322.7,462.3,324.2z"/>
</g>
</svg>