<!-- Generator: Adobe Illustrator 19.1.0, SVG Export Plug-In  -->
<svg version="1.1"
	 xmlns="http://www.w3.org/2000/svg" xmlns:xlink="http://www.w3.org/1999/xlink" xmlns:a="http://ns.adobe.com/AdobeSVGViewerExtensions/3.0/"
	 x="0px" y="0px" width="78.8px" height="111.7px" viewBox="0 0 78.8 111.7"
	 style="overflow:scroll;enable-background:new 0 0 78.8 111.7;" xml:space="preserve">
<style type="text/css">
	.st0{fill:#FF6633;}
	.st1{fill:#E3E3E3;stroke:#E3E3E3;stroke-width:0.6645;stroke-miterlimit:10;}
</style>
<defs>
</defs>
<rect y="48.6" class="st0" width="26" height="63.2"/>
<path class="st1" d="M64.5,87.2H22.1c-3.1,0-5.6-2.5-5.6-5.6V6c0-3.1,2.5-5.6,5.6-5.6h42.4c3.1,0,5.6,2.5,5.6,5.6v75.5
	C70.1,84.6,67.6,87.2,64.5,87.2z"/>
<path class="st0" d="M70.3,72.5H40.6c-4.7,0-8.6-3.9-8.6-8.6l0,0c0-4.7,3.9-8.6,8.6-8.6h29.7c4.7,0,8.6,3.9,8.6,8.6l0,0
	C78.8,68.6,75,72.5,70.3,72.5z"/>
<path class="st0" d="M70.3,57.1H40.6c-4.7,0-8.6-3.9-8.6-8.6l0,0c0-4.7,3.9-8.6,8.6-8.6h29.7c4.7,0,8.6,3.9,8.6,8.6l0,0
	C78.8,53.3,75,57.1,70.3,57.1z"/>
<path class="st0" d="M70.3,41.8H40.6c-4.7,0-8.6-3.9-8.6-8.6v0c0-4.7,3.9-8.6,8.6-8.6h29.7c4.7,0,8.6,3.9,8.6,8.6v0
	C78.8,37.9,75,41.8,70.3,41.8z"/>
<path class="st0" d="M8.2,52.2L8.2,52.2C3.7,52.2,0,48.5,0,44V26.6c0-4.5,3.7-8.2,8.2-8.2l0,0c4.5,0,8.2,3.7,8.2,8.2V44
	C16.4,48.5,12.7,52.2,8.2,52.2z"/>
</svg>