<!-- Generator: Adobe Illustrator 19.1.0, SVG Export Plug-In  -->
<svg version="1.1"
	 xmlns="http://www.w3.org/2000/svg" xmlns:xlink="http://www.w3.org/1999/xlink" xmlns:a="http://ns.adobe.com/AdobeSVGViewerExtensions/3.0/"
	 x="0px" y="0px" width="125.7px" height="124.8px" viewBox="0 0 125.7 124.8"
	 style="overflow:scroll;enable-background:new 0 0 125.7 124.8;" xml:space="preserve">
<style type="text/css">
	.st0{fill:#086A87;}
	.st1{fill:#E3E3E3;stroke:#E3E3E3;stroke-width:0.7295;stroke-miterlimit:10;}
	.st2{fill:#33CBCB;}
	.st3{fill:#FF6633;}
	.st4{fill:#33CCCC;stroke:#33CCCC;stroke-width:0.7295;stroke-miterlimit:10;}
	.st5{fill:none;stroke:#EC6B4A;stroke-width:0.7295;stroke-miterlimit:10;}
	.st6{fill:none;}
	.st7{fill:#CBCACC;stroke:#CBCACC;stroke-width:0.7295;stroke-miterlimit:10;}
</style>
<defs>
</defs>
<g>
	<circle class="st0" cx="62.4" cy="62.4" r="62.4"/>
	<g>
		<path class="st1" d="M42.8,84H14.6c-1.2,0-2.1-0.9-2.1-2.1V36.3c0-1.1,1-2.1,2.1-2.1h28.2c1.2,0,2.1,0.9,2.1,2.1v45.6
			C44.9,83.1,43.9,84,42.8,84"/>
		<path class="st2" d="M105.7,66.5c0,1.4-1.2,2.6-2.6,2.6c-1.5,0-2.6-1.2-2.6-2.6c0-1.4,1.2-2.6,2.6-2.6
			C104.5,63.9,105.7,65.1,105.7,66.5"/>
		<path class="st3" d="M100.1,24.7c0,0-1,5.2-6.1,5.9c5.1,0.7,6.1,5.9,6.1,5.9s1-5.2,6.1-5.9C101,29.9,100.1,24.7,100.1,24.7"/>
		<path class="st3" d="M92.6,38.8c0,0-2.4,12.7-15,14.5c12.6,1.8,15,14.5,15,14.5s2.4-12.7,15-14.5C95.1,51.5,92.6,38.8,92.6,38.8
			 M92.6,42.7c0.4,1,1,2.1,1.8,3.3c2.2,3.4,5.1,5.9,8.7,7.3c-3.5,1.4-6.5,3.9-8.7,7.3c-0.7,1.2-1.3,2.3-1.8,3.3
			c-0.4-1-1-2.1-1.8-3.3c-2.2-3.4-5.1-5.9-8.7-7.3c3.5-1.4,6.5-3.9,8.7-7.3C91.6,44.8,92.2,43.7,92.6,42.7"/>
		<path class="st1" d="M83.2,45.4c-0.6-1.2-1.6-2.7-3.5-3.6c1.9-0.9,2.9-2.4,3.5-3.6c0.6,1.2,1.6,2.7,3.5,3.6
			C84.9,42.6,83.8,44.2,83.2,45.4z"/>
		<path class="st3" d="M30.4,80.8c0,1-0.8,1.8-1.8,1.8c-1,0-1.8-0.8-1.8-1.8c0-1,0.8-1.8,1.8-1.8C29.6,79,30.4,79.8,30.4,80.8"/>
		<rect x="16.3" y="41.9" class="st4" width="24.8" height="34.4"/>
		<rect x="22.9" y="38" class="st3" width="11.5" height="1.7"/>
		<path class="st5" d="M51.2,67.3V56.2l0-3.5h0c0.2-5.1,4.6-9.2,9.9-9.2c5.4,0,9.7,4.1,9.9,9.2h0l0,3.4v11.2"/>
		<rect x="11.3" y="30.8" class="st6" width="114.3" height="75.7"/>
		<path class="st7" d="M85.6,105.9H36V60.2h49.6V105.9z"/>
		<g>
			<defs>
				<rect id="SVGID_1_" x="11.3" y="30.8" width="114.3" height="75.7"/>
			</defs>
			<clipPath id="SVGID_2_">
				<use xlink:href="#SVGID_1_"  style="overflow:visible;"/>
			</clipPath>
		</g>
		<rect x="35.9" y="92.9" class="st1" width="49.8" height="14.1"/>
	</g>
</g>
</svg>