<!-- Generator: Adobe Illustrator 19.1.0, SVG Export Plug-In  -->
<svg version="1.1"
	 xmlns="http://www.w3.org/2000/svg" xmlns:xlink="http://www.w3.org/1999/xlink" xmlns:a="http://ns.adobe.com/AdobeSVGViewerExtensions/3.0/"
	 x="0px" y="0px" width="780.1px" height="379.3px" viewBox="0 0 780.1 379.3"
	 style="overflow:scroll;enable-background:new 0 0 780.1 379.3;" xml:space="preserve">
<style type="text/css">
	.st0{fill:#E3E3E3;stroke:#E3E3E3;stroke-width:2.0919;stroke-miterlimit:10;}
	.st1{fill:#9D9FA0;stroke:#E3E3E3;stroke-width:1.3336;stroke-miterlimit:10;}
	.st2{fill:#ED6A4A;}
	.st3{fill:#086A87;stroke:#086A87;stroke-width:1.81;stroke-linecap:round;stroke-linejoin:round;stroke-miterlimit:10;}
	.st4{fill:#33CCCC;}
	.st5{fill:none;stroke:#ED6A4A;stroke-width:7.4568;stroke-miterlimit:10;}
	.st6{fill:#FF6633;}
	.st7{fill:#086A87;stroke:#086A87;stroke-width:2.3031;stroke-linecap:round;stroke-linejoin:round;stroke-miterlimit:10;}
	.st8{fill:#FFFFFF;stroke:#ED6A4A;stroke-width:2.3031;stroke-miterlimit:10;}
	.st9{fill:none;stroke:#ED6A4A;stroke-width:7.3184;stroke-miterlimit:10;}
	.st10{fill:#086A87;stroke:#086A87;stroke-width:2.2793;stroke-linecap:round;stroke-linejoin:round;stroke-miterlimit:10;}
	.st11{fill:#E3E3E3;stroke:#FFFFFF;stroke-width:4;stroke-miterlimit:10;}
	.st12{fill:#FFFFFF;}
</style>
<defs>
</defs>
<rect x="54.1" y="103.9" class="st0" width="227.2" height="271.2"/>
<rect x="281.3" y="304.5" class="st1" width="346.6" height="35.9"/>
<rect x="281.3" y="250.7" class="st2" width="346.6" height="35.9"/>
<rect x="281.3" y="196.9" class="st3" width="382.4" height="35.9"/>
<rect x="281.3" y="143.2" class="st4" width="346.6" height="35.9"/>
<rect x="3.7" y="113.1" class="st5" width="771.4" height="262.1"/>
<g>
	<line class="st4" x1="47.3" y1="176.4" x2="56.3" y2="185.3"/>
	<line class="st4" x1="56.3" y1="176.4" x2="47.3" y2="185.3"/>
</g>
<polygon class="st6" points="706.5,373.3 706.5,307.5 775,307.5 "/>
<circle class="st7" cx="154.8" cy="246.5" r="74.8"/>
<circle class="st8" cx="154.8" cy="246.5" r="61.1"/>
<polyline class="st8" points="154.8,206.6 154.8,246.5 183.6,246.5 "/>
<line class="st9" x1="281.3" y1="113.1" x2="281.3" y2="379.3"/>
<rect x="1.3" y="36.1" class="st10" width="777.6" height="83"/>
<path class="st11" d="M144.5,52.9h-3.1c-5.7,0-10.3-4.6-10.3-10.3V12.3c0-5.7,4.6-10.3,10.3-10.3h3.1c5.7,0,10.3,4.6,10.3,10.3v30.4
	C154.8,48.3,150.1,52.9,144.5,52.9z"/>
<path class="st11" d="M659.1,52.9H656c-5.7,0-10.3-4.6-10.3-10.3V12.3C645.7,6.6,650.3,2,656,2h3.1c5.7,0,10.3,4.6,10.3,10.3v30.4
	C669.4,48.3,664.8,52.9,659.1,52.9z"/>
<rect x="141.1" y="161.1" class="st7" width="28" height="14.4"/>
<rect x="134.1" y="145" class="st7" width="41.3" height="16.1"/>
<rect x="154.8" y="145" class="st4" width="8.7" height="16.1"/>
<rect x="162.3" y="145" class="st12" width="4.4" height="16.1"/>
</svg>