<!-- Generator: Adobe Illustrator 19.1.0, SVG Export Plug-In  -->
<svg version="1.1"
	 xmlns="http://www.w3.org/2000/svg" xmlns:xlink="http://www.w3.org/1999/xlink" xmlns:a="http://ns.adobe.com/AdobeSVGViewerExtensions/3.0/"
	 x="0px" y="0px" width="144.6px" height="100.3px" viewBox="0 0 144.6 100.3"
	 style="overflow:scroll;enable-background:new 0 0 144.6 100.3;" xml:space="preserve">
<style type="text/css">
	.st0{fill:#FF6633;}
	.st1{fill:#086A87;}
</style>
<defs>
</defs>
<g>
	<path class="st0" d="M12.8,0c3.5,0,6.3,0.8,8.4,2.4s3.2,3.7,3.2,6.4c0,1.9-0.5,3.5-1.5,5c-1,1.5-2.7,2.8-5,3.9
		c2.7,1.5,4.7,3,5.9,4.6c1.2,1.6,1.8,3.3,1.8,5.2c0,3-1.2,5.4-3.5,7.2c-2.3,1.8-5.4,2.7-9.2,2.7c-4,0-7.1-0.8-9.4-2.5S0,30.8,0,27.7
		c0-2.1,0.6-3.9,1.7-5.5c1.1-1.6,2.9-3,5.3-4.3c-2.1-1.3-3.6-2.7-4.5-4.2c-0.9-1.5-1.4-3.1-1.4-4.9c0-2.6,1.1-4.7,3.2-6.3
		S9.3,0,12.8,0z M7.1,27.2c0,1.4,0.5,2.5,1.5,3.3s2.4,1.2,4.1,1.2c1.9,0,3.3-0.4,4.3-1.2c0.9-0.8,1.4-1.9,1.4-3.2
		c0-1.1-0.5-2.2-1.4-3.1c-0.9-1-2.5-2-4.6-3.1C8.9,22.7,7.1,24.8,7.1,27.2z M12.8,5.7c-1.3,0-2.4,0.3-3.2,1C8.8,7.4,8.4,8.3,8.4,9.4
		c0,1,0.3,1.9,1,2.7c0.6,0.8,1.8,1.6,3.5,2.4c1.6-0.8,2.8-1.5,3.4-2.3s1-1.7,1-2.8c0-1.1-0.4-2-1.2-2.7C15.1,6,14,5.7,12.8,5.7z"/>
	<path class="st0" d="M42,0c3.5,0,6.3,0.8,8.4,2.4c2.1,1.6,3.2,3.7,3.2,6.4c0,1.9-0.5,3.5-1.5,5c-1,1.5-2.7,2.8-5,3.9
		c2.7,1.5,4.7,3,5.9,4.6c1.2,1.6,1.8,3.3,1.8,5.2c0,3-1.2,5.4-3.5,7.2c-2.3,1.8-5.4,2.7-9.2,2.7c-4,0-7.1-0.8-9.4-2.5
		c-2.3-1.7-3.4-4.1-3.4-7.2c0-2.1,0.6-3.9,1.7-5.5c1.1-1.6,2.9-3,5.3-4.3c-2.1-1.3-3.6-2.7-4.5-4.2s-1.4-3.1-1.4-4.9
		c0-2.6,1.1-4.7,3.2-6.3C35.7,0.9,38.5,0,42,0z M36.3,27.2c0,1.4,0.5,2.5,1.5,3.3s2.4,1.2,4.1,1.2c1.9,0,3.3-0.4,4.3-1.2
		c0.9-0.8,1.4-1.9,1.4-3.2c0-1.1-0.5-2.2-1.4-3.1c-0.9-1-2.5-2-4.6-3.1C38.1,22.7,36.3,24.8,36.3,27.2z M41.9,5.7
		c-1.3,0-2.4,0.3-3.2,1c-0.8,0.7-1.2,1.6-1.2,2.7c0,1,0.3,1.9,1,2.7c0.6,0.8,1.8,1.6,3.5,2.4c1.6-0.8,2.8-1.5,3.4-2.3s1-1.7,1-2.8
		c0-1.1-0.4-2-1.2-2.7S43.2,5.7,41.9,5.7z"/>
	<path class="st0" d="M59.4,33.4c0-1.4,0.4-2.4,1.1-3.2s1.8-1.1,3.3-1.1c1.4,0,2.4,0.4,3.2,1.1c0.8,0.7,1.1,1.8,1.1,3.1
		c0,1.3-0.4,2.3-1.1,3.1c-0.8,0.8-1.8,1.1-3.2,1.1c-1.4,0-2.5-0.4-3.2-1.1S59.4,34.7,59.4,33.4z"/>
	<path class="st0" d="M86.4,13.7c3.5,0,6.3,1,8.4,3c2.1,2,3.1,4.7,3.1,8.1c0,4.1-1.3,7.2-3.8,9.4c-2.5,2.2-6.1,3.3-10.8,3.3
		c-4.1,0-7.3-0.7-9.8-2v-6.6c1.3,0.7,2.8,1.3,4.6,1.7s3.4,0.7,5,0.7c4.7,0,7-1.9,7-5.8c0-3.7-2.4-5.5-7.3-5.5
		c-0.9,0-1.9,0.1-2.9,0.3c-1.1,0.2-1.9,0.4-2.6,0.6l-3.1-1.6l1.4-18.6h19.7V7h-13l-0.7,7.1l0.9-0.2C83.6,13.8,84.9,13.7,86.4,13.7z"
		/>
	<path class="st0" d="M119.1,11.4c0,3.8-0.7,6.7-2.2,8.6c-1.5,1.9-3.6,2.9-6.5,2.9c-2.7,0-4.9-1-6.3-3c-1.5-2-2.2-4.8-2.2-8.5
		c0-7.6,2.9-11.4,8.6-11.4c2.8,0,5,1,6.5,3C118.4,4.9,119.1,7.7,119.1,11.4z M108.1,11.4c0,2.1,0.2,3.7,0.6,4.7c0.4,1,1,1.6,1.8,1.6
		c1.6,0,2.4-2.1,2.4-6.3c0-4.2-0.8-6.2-2.4-6.2c-0.8,0-1.4,0.5-1.8,1.5C108.3,7.8,108.1,9.3,108.1,11.4z M136.2,0.5L116,36.9h-6
		l20.2-36.4H136.2z M144.6,25.9c0,3.8-0.7,6.7-2.2,8.6c-1.5,1.9-3.6,2.9-6.5,2.9c-2.7,0-4.9-1-6.3-3c-1.5-2-2.2-4.8-2.2-8.5
		c0-7.6,2.9-11.4,8.6-11.4c2.8,0,5,1,6.5,3C143.9,19.5,144.6,22.3,144.6,25.9z M133.6,26c0,2.1,0.2,3.7,0.6,4.7c0.4,1,1,1.6,1.8,1.6
		c1.6,0,2.4-2.1,2.4-6.3c0-4.2-0.8-6.2-2.4-6.2c-0.8,0-1.4,0.5-1.8,1.5C133.8,22.3,133.6,23.9,133.6,26z"/>
	<path class="st1" d="M23.7,51.4c-1.4,0-2.4,0.5-3.2,1.5s-1.1,2.5-1.1,4.3c0,3.8,1.4,5.7,4.3,5.7c1.2,0,2.7-0.3,4.4-0.9v3
		c-1.4,0.6-3,0.9-4.7,0.9c-2.5,0-4.4-0.8-5.7-2.3s-2-3.7-2-6.5c0-1.8,0.3-3.3,1-4.7s1.6-2.4,2.8-3.1s2.6-1.1,4.3-1.1
		c1.7,0,3.3,0.4,5,1.2l-1.2,3c-0.6-0.3-1.3-0.6-1.9-0.8S24.4,51.4,23.7,51.4z"/>
	<path class="st1" d="M39.8,65.7l-0.7-1.8H39c-0.6,0.8-1.2,1.3-1.9,1.6S35.7,66,34.7,66c-1.3,0-2.2-0.4-3-1.1s-1.1-1.7-1.1-3.1
		c0-1.4,0.5-2.4,1.5-3.1s2.4-1,4.4-1.1l2.3-0.1V57c0-1.3-0.7-2-2-2c-1,0-2.3,0.3-3.7,0.9l-1.2-2.4c1.5-0.8,3.2-1.2,5-1.2
		c1.8,0,3.1,0.4,4,1.1s1.4,1.9,1.4,3.5v8.7H39.8z M38.7,59.7l-1.4,0c-1,0-1.8,0.2-2.3,0.6s-0.8,0.9-0.8,1.6c0,1,0.6,1.5,1.7,1.5
		c0.8,0,1.5-0.2,2-0.7s0.7-1.1,0.7-1.9V59.7z"/>
	<path class="st1" d="M58.1,65.7h-3.6v-7.7c0-0.9-0.2-1.7-0.5-2.1s-0.9-0.7-1.6-0.7c-1,0-1.7,0.3-2.2,1s-0.7,1.8-0.7,3.3v6.2H46
		V52.6h2.7l0.5,1.7h0.2c0.4-0.6,0.9-1.1,1.6-1.4s1.5-0.5,2.4-0.5c1.5,0,2.7,0.4,3.5,1.2s1.2,2,1.2,3.6V65.7z"/>
	<path class="st1" d="M77.1,61.8c0,1.3-0.5,2.4-1.4,3.1S73.4,66,71.5,66c-1,0-1.8-0.1-2.4-0.2s-1.3-0.3-1.9-0.6v-3
		c0.7,0.3,1.4,0.6,2.2,0.8s1.6,0.3,2.2,0.3c1.3,0,1.9-0.4,1.9-1.1c0-0.3-0.1-0.5-0.3-0.7s-0.5-0.4-0.9-0.6s-1-0.5-1.7-0.8
		c-1-0.4-1.7-0.8-2.2-1.2s-0.8-0.8-1-1.2s-0.3-1-0.3-1.7c0-1.2,0.5-2.1,1.4-2.7s2.2-1,3.8-1c1.6,0,3.1,0.3,4.6,1L75.9,56
		c-0.7-0.3-1.3-0.5-1.8-0.7S72.9,55,72.3,55c-1.1,0-1.6,0.3-1.6,0.9c0,0.3,0.2,0.6,0.5,0.8s1.1,0.6,2.2,1c1,0.4,1.8,0.8,2.3,1.2
		s0.8,0.8,1.1,1.2S77.1,61.2,77.1,61.8z"/>
	<path class="st1" d="M92,65.7h-3.6v-7.7c0-1.9-0.7-2.8-2.1-2.8c-1,0-1.7,0.3-2.2,1s-0.7,1.8-0.7,3.3v6.2h-3.6V47.5h3.6v3.7
		c0,0.3,0,1-0.1,2l-0.1,1.1h0.2c0.8-1.3,2.1-1.9,3.8-1.9c1.5,0,2.7,0.4,3.5,1.2s1.2,2,1.2,3.6V65.7z"/>
	<path class="st1" d="M107.6,59.2c0,2.1-0.6,3.8-1.7,5s-2.7,1.8-4.7,1.8c-1.3,0-2.4-0.3-3.3-0.8s-1.7-1.3-2.2-2.4s-0.8-2.2-0.8-3.6
		c0-2.1,0.6-3.8,1.7-5s2.7-1.8,4.7-1.8c1.3,0,2.4,0.3,3.3,0.8s1.7,1.3,2.2,2.4S107.6,57.8,107.6,59.2z M98.5,59.2
		c0,1.3,0.2,2.3,0.6,2.9s1.1,1,2.1,1c1,0,1.6-0.3,2.1-1s0.6-1.6,0.6-2.9c0-1.3-0.2-2.3-0.6-2.9s-1.1-1-2.1-1c-1,0-1.6,0.3-2.1,1
		S98.5,57.9,98.5,59.2z"/>
	<path class="st1" d="M117.7,66c-1.5,0-2.7-0.6-3.6-1.7h-0.2c0.1,1.1,0.2,1.7,0.2,1.9v5.3h-3.6V52.6h2.9l0.5,1.7h0.2
		c0.8-1.3,2.1-1.9,3.7-1.9c1.5,0,2.8,0.6,3.6,1.8s1.3,2.9,1.3,5c0,1.4-0.2,2.6-0.6,3.6s-1,1.8-1.8,2.4S118.8,66,117.7,66z
		 M116.7,55.2c-0.9,0-1.5,0.3-1.9,0.8s-0.6,1.4-0.6,2.7v0.4c0,1.4,0.2,2.4,0.6,3s1.1,0.9,2,0.9c1.6,0,2.4-1.3,2.4-4
		c0-1.3-0.2-2.3-0.6-2.9S117.5,55.2,116.7,55.2z"/>
	<path class="st1" d="M19.6,94.5l-0.7-1.8h-0.1c-0.6,0.8-1.2,1.3-1.9,1.6s-1.5,0.4-2.5,0.4c-1.3,0-2.2-0.4-3-1.1s-1.1-1.7-1.1-3.1
		c0-1.4,0.5-2.4,1.5-3.1s2.4-1,4.4-1.1l2.3-0.1v-0.6c0-1.3-0.7-2-2-2c-1,0-2.3,0.3-3.7,0.9l-1.2-2.4c1.5-0.8,3.2-1.2,5-1.2
		c1.8,0,3.1,0.4,4,1.1s1.4,1.9,1.4,3.5v8.7H19.6z M18.6,88.5l-1.4,0c-1,0-1.8,0.2-2.3,0.6s-0.8,0.9-0.8,1.6c0,1,0.6,1.5,1.7,1.5
		c0.8,0,1.5-0.2,2-0.7s0.7-1.1,0.7-1.9V88.5z"/>
	<path class="st1" d="M37.9,94.5h-3.6v-7.7c0-0.9-0.2-1.7-0.5-2.1S33,84,32.2,84c-1,0-1.7,0.3-2.2,1s-0.7,1.8-0.7,3.3v6.2h-3.6V81.4
		h2.7l0.5,1.7h0.2c0.4-0.6,0.9-1.1,1.6-1.4s1.5-0.5,2.4-0.5c1.5,0,2.7,0.4,3.5,1.2s1.2,2,1.2,3.6V94.5z"/>
	<path class="st1" d="M39.7,81.4h3.9l2.5,7.4c0.2,0.6,0.4,1.4,0.4,2.3h0.1c0.1-0.8,0.3-1.6,0.5-2.3l2.4-7.4h3.8l-5.5,14.8
		c-0.5,1.4-1.2,2.4-2.2,3.1s-2,1-3.3,1c-0.6,0-1.2-0.1-1.8-0.2v-2.8c0.4,0.1,0.9,0.2,1.4,0.2c0.6,0,1.2-0.2,1.7-0.6s0.8-1,1.1-1.8
		l0.2-0.6L39.7,81.4z"/>
	<path class="st1" d="M66,94.5l-1-4.6l-1.3-5.8h-0.1l-2.4,10.4h-3.8l-3.7-13.1h3.6l1.5,5.8c0.2,0.7,0.4,2.1,0.7,4.3h0.1
		c0-0.6,0.2-1.5,0.4-2.8l0.2-1l1.6-6.3h3.9l1.5,6.3c0.1,0.4,0.2,1.1,0.3,1.9s0.2,1.5,0.2,1.9h0.1c0.1-0.7,0.2-1.5,0.4-2.4
		s0.3-1.5,0.4-1.9l1.6-5.8h3.5l-3.8,13.1H66z"/>
	<path class="st1" d="M87.9,94.5h-3.6v-7.7c0-1.9-0.7-2.8-2.1-2.8c-1,0-1.7,0.3-2.2,1s-0.7,1.8-0.7,3.3v6.2h-3.6V76.3h3.6V80
		c0,0.3,0,1-0.1,2l-0.1,1.1h0.2c0.8-1.3,2.1-1.9,3.8-1.9c1.5,0,2.7,0.4,3.5,1.2s1.2,2,1.2,3.6V94.5z"/>
	<path class="st1" d="M97.5,94.8c-2.1,0-3.8-0.6-4.9-1.7s-1.8-2.8-1.8-4.9c0-2.2,0.5-3.9,1.6-5.1s2.6-1.8,4.6-1.8
		c1.9,0,3.3,0.5,4.3,1.6s1.5,2.5,1.5,4.4v1.7h-8.4c0,1,0.3,1.8,0.9,2.4s1.4,0.9,2.4,0.9c0.8,0,1.5-0.1,2.2-0.2s1.4-0.4,2.2-0.8v2.8
		c-0.6,0.3-1.3,0.5-2,0.7S98.5,94.8,97.5,94.8z M97,83.7c-0.8,0-1.4,0.2-1.8,0.7s-0.7,1.2-0.7,2h5c0-0.9-0.2-1.6-0.7-2
		S97.7,83.7,97,83.7z"/>
	<path class="st1" d="M113,81.2c0.5,0,0.9,0,1.2,0.1l-0.3,3.4c-0.3-0.1-0.6-0.1-1.1-0.1c-1.1,0-2,0.3-2.7,0.9s-1,1.4-1,2.5v6.7h-3.6
		V81.4h2.7l0.5,2.2h0.2c0.4-0.7,1-1.3,1.6-1.8S112.2,81.2,113,81.2z"/>
	<path class="st1" d="M122.3,94.8c-2.1,0-3.8-0.6-4.9-1.7s-1.8-2.8-1.8-4.9c0-2.2,0.5-3.9,1.6-5.1s2.6-1.8,4.6-1.8
		c1.9,0,3.3,0.5,4.3,1.6s1.5,2.5,1.5,4.4v1.7h-8.4c0,1,0.3,1.8,0.9,2.4s1.4,0.9,2.4,0.9c0.8,0,1.5-0.1,2.2-0.2s1.4-0.4,2.2-0.8v2.8
		c-0.6,0.3-1.3,0.5-2,0.7S123.4,94.8,122.3,94.8z M121.8,83.7c-0.8,0-1.4,0.2-1.8,0.7s-0.7,1.2-0.7,2h5c0-0.9-0.2-1.6-0.7-2
		S122.6,83.7,121.8,83.7z"/>
</g>
</svg>