<?xml version="1.0" encoding="utf-8"?>
<!-- Generator: Adobe Illustrator 19.0.0, SVG Export Plug-In . SVG Version: 6.00 Build 0)  -->
<svg version="1.1" id="Layer_1" xmlns="http://www.w3.org/2000/svg" xmlns:xlink="http://www.w3.org/1999/xlink" x="0px" y="0px"
	 viewBox="0 0 848.8 498" style="enable-background:new 0 0 848.8 498;" xml:space="preserve">
<style type="text/css">
	.st0{fill:#3B9FA1;}
	.st1{fill:#BBA680;}
	.st2{fill:#12517B;}
	.st3{fill:#14395F;}
	.st4{fill:#F8FBF4;}
	.st5{fill:#C2E1E2;}
	.st6{fill:#DA4328;}
	.st7{fill:#EFA921;}
	.st8{fill:#6BBEDC;}
	.st9{fill:#B3BF4E;}
	.st10{fill:#F7AB28;}
	.st11{fill:#C1E0DB;}
	.st12{fill:#EDF2D5;}
	.st13{fill:none;stroke:#EDF2D5;stroke-width:3;stroke-miterlimit:10;stroke-dasharray:12.123,12.123;}
	.st14{fill:#F2622C;}
	.st15{fill:#DF4128;}
	.st16{fill:none;}
</style>
<g id="XMLID_221_">
	<circle id="XMLID_230_" class="st0" cx="295.2" cy="103.4" r="58.4"/>
	<path id="XMLID_229_" class="st1" d="M260.8,105c0.7-1.3,0.6-1.9,0.6-1.9s-1.6-0.6-2.1,0c-0.6,0.6-2,1.3-2,1.3s-2,0.3-2.1-0.4
		c-0.1-0.9-0.9-2.7-0.4-4.3c0.4-1.6,1.7-2,2.4-2.4c0.7-0.3,2.7,0.3,2.7,0.3l1.3-0.6h1.6l1.7,3.4c0,0,0.9,0.7,1.1,0c0.3-0.7,0-5,0-5
		s2.6-1.7,3.3-1.6c0.7,0.1,0.6-1.3,0.6-1.3h0.6l0.4-2.8l3.1-2.4l0.1-1.3c0,0-0.1-0.9,0.9-0.7c1,0.1,1.3,0.3,2,0.4
		c0.6,0.1,2.6-1.3,2.6-1.3l-0.1-0.9c0,0,1.1,0.3,1.4,0.9c0.3,0.6,0-1.6,0-1.6l-1-0.9l-0.9,0.4l-1,0.3c0,0-0.9-0.4-0.9-0.9
		c0-0.4,0.9-0.7,0.9-0.7l-0.6-1.3h0.7l1.1,1.1l1-0.9c0,0,0.9-0.6,0.7,0c-0.1,0.6-0.6,2.1-0.1,2.3c0.4,0.1,3,0.9,3,0.9l0.3,0.4
		l1.1-0.9l-0.6-1.4c0,0-0.4-1.6-0.9-1.4c-0.4,0.1,0.1-0.9,0.4-1c0.3-0.1-0.6-1.3-0.6-1.3l-0.6-1.4l-1.7-1.6l-1-1.1
		c0,0,0.1-1.7,0.1-2.3c-0.1-0.6-1.1-1-1.1-1l-1,0.9l-1.3-0.1l-1.3-2.4l-2-0.9l-1-1l-1.4,2c0,0-0.9,3.1-0.3,3.8
		c0.6,0.7,0.1,1.6-0.6,2c-0.7,0.4-1.6,1.1-1.4,2.3c0.1,1-1.1,1-1-0.3c0.1-1.3-1.3-2.7-1.7-3c-0.3-0.3-1.6-0.9-2.1-1
		c-0.6-0.1-1.6-0.7-1.4-1.1c0.1-0.4,1.3-2,1.6-2.3c0.3-0.3,2.1-2,2.1-2l1,0.1c0,0,1,1.3,1.3,1.4c0.3,0.1,1.3-0.3,1.3-0.3l-0.6-1.3
		c0,0,1-1,1.3-0.6c0.3,0.3,0.9-0.1,0.9-0.1l-1.7-1.9c0,0,0.1-0.9,0.6-0.9s1.7-1.4,1.7-1.4l-1-1.1h-1.7c0,0-0.3-0.1-0.4,0.7
		c-0.1,0.9-0.6,0.7-0.6,0.7l-0.1-1.9l-0.9,1l-1.3-2h-1.4c0,0-0.1,1.4,0.1,1.7s-0.3,0.7-0.3,0.7l-0.6-1.3l-0.9,1l-0.9,0.7h-1.4
		l1.3-1.7l-1.3-1.7l0.9-0.7l0.1-1.1l-1.3,1l-1.4,0.4l-1.7,0.6l-1.3,1.1l-0.1,0.7v1l-1.1,0.9l-1.4-0.3l-4,4.6c0,0-5.3,8-5.3,8.4
		c0,0.4-0.4,3.8-0.7,5.7c-0.3,2,0.3,3.7,0.3,3.7l-0.4,0.3v4.4l0.1,3.3l1.3,0.6V97l1.3,1.3l1.3,1.1l0.1,2.1l1.3-0.3
		c0,0,0.6-1,1.3-0.6c0.6,0.4-0.1,2.8-0.1,2.8l2,2l1.7,1.3c0,0,2.3,1,2.8,0.9c0.4-0.1,0.6,0.1,1.1,0.9l3.7-2.3
		C260.6,106.1,260.6,105.7,260.8,105z"/>
	<path id="XMLID_228_" class="st1" d="M295.2,123.6c0,0-2.4-3-7.1-3.7c-4.8-0.9-7.1-4.6-7.7-5.8s-1-1.9-4.8-3c-3.7-1-3-2.1-5.8-2.4
		s-2.1,3-4.3,3c-2.1,0-3.4-0.3-3-3c0.4-2.7-1.6-1.7-1.6-1.7s-0.1-0.1-0.3-0.6l-3.7,2.3c0.1,0.3,0.4,0.7,0.9,1.3
		c1.1,1.9,1.7,3.1,1.9,3.7c0.1,0.6,1.6,3.4,1.6,3.4l2.1,0.6l1.6,2l-0.9,1l0.6,1.6c0,0-1.1,0.6-1,1c0.1,0.6,1.7,1.7,1.7,1.7l0.6,1.9
		l-0.1,1.3c0,0,1.4,0.3,2,2c0.6,1.7,3,3.1,3.3,4.8c0.3,1.7,0.3,6.3,0.3,6.3l0.1,4.3c0,0-0.3,0.1-0.9,1.1c-0.4,1,0.3,2.7,0.3,2.7
		l-0.3,1.9l0.3,2.6c0,0,0.7,2,1.1,2.4c0.4,0.3,1.1,1.1,1.1,1.1l5.1,1.9l-2.8-2.3l1.6-2.7c0,0,1.7-1.1,0-2.1c-1.7-1,1.4-3.7,1.4-3.7
		s3.7-0.3,4.3-2.1c0.6-1.9,4.3-5.8,4.6-7.4c0.3-1.6,3-0.9,3.7-2.7c0.9-1.9-1.6-5.6,0-8.3C292.5,125.5,295.2,123.6,295.2,123.6z"/>
	<path id="XMLID_227_" class="st1" d="M272.5,66.1c0,0,2.3-0.4,2.6,0.3c0.3,0.7,0.3,1.4,0.3,1.4l1.6,0.3c0,0,0.3,0.9,0.9,1
		c0.6,0.1,2,0,2,0v-0.7l-1.3-0.9l0.9,0.4h0.4v-1l-0.4-1.4l-1-0.6c0,0,0-0.4,0.6-0.3c0.4,0.1,1.4,1.3,1.4,1.3l2.1-0.6l1.6-0.7v-0.9
		l-2.3-0.7l-1.9-0.6l-0.4-0.7c0,0,0.4,0.3,0.6,0c0.1-0.3-0.1-0.9-0.6-1.3c-0.4-0.4-1.6-1.6-1.6-1.6l-0.6,0.3l-1-0.9l-0.3-1.3h-2.3
		l-0.7-0.1l-0.7,0.1h-1.7c0,0-1.3,0.1-1.6,0.3c-0.3,0.3-1,0.9-1,1.3c0,0.4,0,1.3,0,1.3l0.6,0.7l2.1,0.1l1.4,1c0,0,0.7,1.3,0.4,1.9
		C272.4,64.2,272.5,66.1,272.5,66.1z"/>
	<path id="XMLID_226_" class="st1" d="M266.3,58.9l0.9-0.9l1-0.6l0.3-0.7l-0.9-0.4l-0.6-0.3v-0.4c0,0-0.9-0.1-1,0
		c-0.1,0.1-0.7,0.3-0.4,0.7s0.3,0.3,0.3,0.3l0.1,0.9l-0.4,0.7v0.6L266.3,58.9z"/>
	<path id="XMLID_225_" class="st1" d="M271.2,55.7h1l3.1,0.4v-1c0,0-0.6-0.4,0-0.4s0.7,1.1,1,0c0.1-1.1-0.3-0.9,0.6-1.6
		c0.9-0.7,0.7-1,1.6-1.6c0.9-0.4,0.4-0.6,1.7-0.6c1.1,0,0.9,0.4,1.1,0c0.3-0.4,0.3-0.7,0.6-1c0.3-0.1,1,0,1,0s0.4-0.6,0.9-0.9
		c0.4-0.3,0.9-0.6,1.1-0.4c0.4,0.1,0.3,1.1,0.4,0.1c0.1-1,0.9-1.4,0-1.9c-0.9-0.4-3,0-3,0s-2,0.1-2.1,0.7c-0.3,0.6,0,1-0.7,0.6
		c-0.7-0.4-0.7-0.9-1.4-0.4c-0.7,0.4-0.9,1-2,1c-1.1,0.1-1.4-0.3-2,0.1s-0.6,0.4-1.6,0.6c-1,0.1-1.6,0.3-1.3,0.7s-1.1,0.6-1.1,0.6
		l-1.1,0.7l-0.4,0.6l0.3,0.7h0.9l0.4,0.6l-0.4,0.3l0.6,0.7h-1l-1.3-0.1l0.6-0.6l-0.3-0.6l-0.3-0.7h-0.9v0.4v0.9v0.6l-0.6,0.1
		l1.6,0.9l0.6,0.3h2L271.2,55.7z"/>
	<path id="XMLID_224_" class="st1" d="M291,71.5l1.6-1.7l0.9-1.3h0.7v-1.7c0,0,0.4-1.1,1.1-1.6c0.7-0.4,1.4-0.6,2-0.6
		s1.4-0.1,1.7-0.7c0.3-0.6,0-0.3,0.6-0.7s2.3-0.6,2.3-0.6h1.9l1.3-1.4l-0.3-1.4h1.7c0,0,0-1.1-0.6-1.9c-0.4-0.7,0.6-2.4,0.6-2.4h1
		l0.6-0.6l-0.6-0.6c0,0,1-0.1,0.6-0.4c-0.3-0.3-0.7-1-0.9-1c-0.1-0.1-0.3-1.1-0.3-1.1l0.9-0.3l0.9-0.1h1.3V50h0.3
		c0,0,1.3-0.1,0.9-0.6s-2-0.9-2-0.9h-1.4H306l-0.1-1l-1-0.3l-1.9-0.1h-5c0,0-1.9-0.6-2.7,0s-1.7,0.4-2.3,0.4s-1,0.1-1.6,0.3
		c-0.4,0.1-3,0.1-3.1,0.1c-0.3,0-2.4,0.1-2.4,0.1l-1.6,1.3l-1.9,0.9l-1.7,1.6c0,0-1.4-0.1-1.7,0s-0.3,0.7,0,1s0.3,1,0.3,1.1
		c0,0.1,0.1,0.6,0.4,0.7c0.3,0.1,0.6,0.4,0.9,0.9c0.3,0.3,0,0.3,1.4,0c1.4-0.3,1.3,1.4,1.6,2c0.3,0.6,1.7,1.4,2.1,2.3s1.1-0.6,1.4,0
		s-0.4,3.1-0.4,3.1s-0.1,2,0,2c0.1,0.1,0,1,1.1,2.1c1.1,1.1,0.3,1.6,0.7,2.4c0.4,1,0.1,1.1,1.3,1.6C291,71.5,291,71.5,291,71.5z"/>
	<path id="XMLID_223_" class="st1" d="M337.6,67.3c0,0,0.9-1-0.3-1.7c-1.1-0.7-2.1-1.1-2.3-1.4c0-0.1-0.9-1-0.9-1l-0.7-0.4h0.3v-0.3
		l-1.6,0.3h-1.1h-0.6h-1.6l-0.6-0.1l-1.7-0.1l-0.9,0.6l-0.7,0.1v1.4l-1.1,0.7l-0.7,1.7l-1.3,1l-1,1.4v1v1.7l0.3,1.7l1.3-0.3l1.4-0.4
		l0.1,1.3l-0.1,1.3l-0.4,0.6l-0.3-0.7l0.4-1.7l-1.1,0.6v1v1l-1.3,1l-1.4,1l-1.4,1.9l-1.3,0.7l-1.3,0.4l-0.7,0.7c0,0-1.3-0.7-0.9,0
		c0.4,0.7,1.6,1.6,1.6,1.6l0.3,1.1c0,0,0,0.9-0.6,1c-0.6,0-2.3,0-2.3,0l-2.3,0.6v0.9v1l-0.1,1.1l-0.3,1.3l0.9,1c0,0,0.4,1,1.4,0.6
		c1-0.4,3-0.4,3-0.4l1.4-1.1l0.1-1.9l1.4-0.6L320,87c0,0,1.9,0,2.3-0.1c0.4-0.1,0.9-0.3,0.9-0.3L324,88l0.9,1.1l2,1h1.3l1.1-0.1
		l0.7,1.3l0.4,1.3l0.9,0.6h1.3l0.9-3.4l0.1,0.4l-0.1,1.1l0.4,1l0.7,1.1l0.3,1.1h1.9h1l-0.1-0.1l-0.6,0.1h1.1v0.9c0,0,0.4,0.1,0,0.7
		c-0.4,0.7-1.1,1.3-1.7,1.1c-0.6-0.1-2.1-0.4-2.1-0.4l-2.1-0.9l-2-1.3h-0.6l-0.9,1.7l-0.7,0.3l-1.1-1.1l-1.4-0.4l-1.6-1v-1.4l-0.6-1
		l-3.4,0.3c0,0-4,0.7-4.1,1c-0.3,0.3-2.3,0.1-2.3,0.1l-2.1,1.1l-1.6,2.1V98l-1.3,0.4l-1.6,2.7v1.6c0,0-1.3,1.1-0.9,1.7
		c0.4,0.6,0.9,0.7,0.7,1.7c-0.1,1-0.7,0.7-0.9,2.1c-0.1,1.4-0.7,3,0.4,3.8c1.1,0.9,1.4,2.1,2.3,2.8c0.9,0.7,2.3,2,2.6,2
		c0.3,0,2,0,2,0s0.4-0.9,0.7-0.3c0.3,0.6,1.1,1.1,1.9,1s1.7-1,1.7-1s1.3-0.6,1.7-0.4c0.4,0.1,1.1,0,1.3,0.7c0.1,0.7,0.7,0.3,1.6,0.7
		s0.7,2.4,0.7,2.4s-1.1,1.1-0.7,1.3c0.4,0.1,1,1.4,1.3,1.7c0.3,0.3,1.9,3.7,1.9,4c0,0.3-0.1,1.6,0,2c0,0.4-1.7,2.8-1.7,3.6
		c0,0.7,0.3,1.1,0.9,1.9c0.6,0.7,1.3,2.4,1.1,3c-0.1,0.6-0.6,2.3-0.3,3c0.3,0.7,1,2.4,1,2.4l0.3,2.4c0,0,0.4,0.7,1.1,0.7
		c0.7,0,2-0.6,2.3-0.6c0.3,0,0.7-0.6,2.4-0.7c1.7-0.1,3.6-4.7,3.6-4.7s0.6-1.4,0.9-1.9c0.3-0.4,1-1.1,1-2c0-0.9,0.4-1.4,2.3-2.4
		c1.9-1,2.4-3.4,2.4-3.4v-7.7c0,0,3.7-3.4,4.3-4.6s1.9-5.1,1.9-5.1s0-1.1-0.1-1.4s0-0.3-1.4,0c-1.4,0.3-3.1,0.9-3.1,0.9l-0.6-2l-2-2
		l-0.4-1.7l-1.3-2l-1-3.4l-0.4-1.3l-1.3-0.9l1.1,0.1l0.4-0.9l0.6,0.9l1,1.3l0.7,2.6l1.9,2.6l1,2.4c0,0,0.4,2,0.7,2.1
		c0.3,0.3,1.3,0.1,1.3,0.1l5.6-3l1-2.6l-0.3-2.6l-0.9-1.1l-2,0.6l-1.1-0.7l-1.1-2l0.6-1.3l1,1.4l0.6,1.3c0,0,0.9,0.4,1.3,0.4
		c0.4,0,1.3-0.1,1.3-0.1l0.7,1l1.3,0.3l0.3-0.4c0,0,0.7-17-12.1-34.2c-0.7-0.6-0.9,0.9-0.9,0.9l-1.7-0.3L337.6,67.3z"/>
	<path id="XMLID_222_" class="st1" d="M343.2,133.9l-0.7,2v1.6l0.6-0.3l1-1.4l1-3.4l0.3-1.6v-1v-1.6l-0.6,1.7c0,0,0,1-0.3,1
		c-0.3,0.1-1,0.1-1,0.1l-0.9,1.3v1L343.2,133.9z"/>
</g>
<g id="XMLID_199_">
	<g id="XMLID_216_">
		<path id="XMLID_220_" class="st2" d="M283.6,382.7H131.1c-6.6,0-12-5.4-12-12v-89.3c0-6.6,5.4-12,12-12h152.6c6.6,0,12,5.4,12,12
			v89.3C295.6,377.3,290.2,382.7,283.6,382.7z"/>
		<rect id="XMLID_219_" x="130.1" y="281.6" class="st3" width="155.7" height="86.2"/>
		<path id="XMLID_218_" class="st4" d="M102.2,378.3v4.4c0,0,1.5,9.4,8.4,9.4s194.2,0,194.2,0s7.3-2,7.9-7.7s0-6.8,0-6.8
			L102.2,378.3z"/>
		<path id="XMLID_217_" class="st5" d="M103.4,386.6h208.8c0,0-3.9,6.1-7.2,5.8c-3.8-0.4-194.2,0-194.2,0S105.1,392.1,103.4,386.6z"
			/>
	</g>
	<g id="XMLID_200_">
		<rect id="XMLID_215_" x="142" y="291.4" class="st6" width="32.5" height="2.4"/>
		<rect id="XMLID_214_" x="142" y="301.5" class="st7" width="48" height="2.8"/>
		<rect id="XMLID_213_" x="195" y="301.5" class="st8" width="10.8" height="2.8"/>
		<rect id="XMLID_212_" x="239" y="322.4" class="st6" width="13.6" height="2.8"/>
		<rect id="XMLID_211_" x="152.6" y="332.9" class="st7" width="15.8" height="2.8"/>
		<rect id="XMLID_210_" x="152.6" y="343.3" class="st7" width="15.8" height="2.8"/>
		<rect id="XMLID_209_" x="173" y="343.3" class="st9" width="44.6" height="2.8"/>
		<rect id="XMLID_208_" x="220.8" y="343.3" class="st8" width="44.6" height="2.8"/>
		<rect id="XMLID_207_" x="173" y="353.8" class="st8" width="57.8" height="2.8"/>
		<rect id="XMLID_206_" x="142.2" y="353.8" class="st7" width="26.2" height="2.8"/>
		<rect id="XMLID_205_" x="236.8" y="353.8" class="st6" width="8.4" height="2.8"/>
		<rect id="XMLID_204_" x="142" y="312" class="st10" width="24" height="2.9"/>
		<rect id="XMLID_203_" x="173.5" y="332.8" class="st9" width="84.9" height="2.9"/>
		<rect id="XMLID_202_" x="170.6" y="311.9" class="st11" width="102.1" height="2.9"/>
		<rect id="XMLID_201_" x="170.6" y="321.8" class="st11" width="63.9" height="2.9"/>
	</g>
</g>
<polygon id="XMLID_198_" class="st12" points="103.2,314.7 142.3,325.4 111.9,351.1 111.9,337.6 98,339.6 95.8,331.4 109.8,328.1 
	"/>
<path id="XMLID_197_" class="st13" d="M266.5,83.1c0,0-78-16.2-96,14.4s35.8,77.5,48.9,101.1"/>
<g id="XMLID_165_">
	<rect id="XMLID_196_" x="253.5" y="192.8" class="st14" width="17.8" height="13.7"/>
	
		<rect id="XMLID_195_" x="243.2" y="218" transform="matrix(0.511 -0.8596 0.8596 0.511 -72.7548 325.8346)" class="st14" width="13.7" height="17.8"/>
	
		<rect id="XMLID_194_" x="241.6" y="160.3" transform="matrix(0.7868 0.6172 -0.6172 0.7868 157.4288 -117.2714)" class="st14" width="13.7" height="17.8"/>
	
		<rect id="XMLID_193_" x="183.2" y="162.6" transform="matrix(0.6882 -0.7255 0.7255 0.6882 -65.1557 191.3536)" class="st15" width="13.7" height="17.8"/>
	<rect id="XMLID_192_" x="169.7" y="192.8" class="st15" width="17.8" height="13.7"/>
	
		<rect id="XMLID_191_" x="180.7" y="219.3" transform="matrix(-0.6389 -0.7693 0.7693 -0.6389 131.9272 518.2334)" class="st15" width="13.7" height="17.8"/>
	<g id="XMLID_174_">
		<path id="XMLID_190_" class="st16" d="M196.9,198.7c0-12.6,10.1-22.8,22.6-23V175c-13.7,0.3-24.7,11.5-24.7,25.3s11,25,24.7,25.3
			v-4C207,221.5,196.9,211.3,196.9,198.7z"/>
		<path id="XMLID_189_" class="st15" d="M219.5,231.7v-6c-13.7-0.3-24.7-11.5-24.7-25.3s11-25,24.7-25.3v-6.7H213v-8.5
			c-19.3,3.4-34,20.2-34,40.5c0,20.2,14.6,37,33.8,40.5v-9.1h6.7V231.7z"/>
		<path id="XMLID_188_" class="st15" d="M219.5,150.5H213v9.3c2.1-0.4,4.3-0.6,6.5-0.6V150.5z"/>
		<path id="XMLID_187_" class="st15" d="M219.5,168.3v-9.2c-2.2,0-4.4,0.2-6.5,0.6v8.5L219.5,168.3L219.5,168.3z"/>
		<path id="XMLID_186_" class="st15" d="M212.9,240.8v8.8h6.6v-8.1C217.2,241.4,215,241.2,212.9,240.8z"/>
		<path id="XMLID_185_" class="st15" d="M219.5,231.7h-6.6v9.1c2.2,0.4,4.4,0.6,6.6,0.6V231.7z"/>
		<path id="XMLID_184_" class="st16" d="M205.7,198.7c0,7.7,6.1,14,13.8,14.2v-28.3C211.8,184.7,205.7,191,205.7,198.7z"/>
		<path id="XMLID_183_" class="st14" d="M196.9,198.7c0,12.6,10.1,22.8,22.6,23v-8.8c-7.7-0.2-13.8-6.5-13.8-14.2s6.1-14,13.8-14.2
			v-8.9C207,175.9,196.9,186.1,196.9,198.7z"/>
		<path id="XMLID_182_" class="st16" d="M245.5,200.3c0-14-11.3-25.3-25.3-25.3c-0.2,0-0.4,0-0.7,0v0.7c0.1,0,0.3,0,0.4,0
			c12.7,0,23,10.3,23,23s-10.3,23-23,23c-0.1,0-0.3,0-0.4,0v4c0.2,0,0.4,0,0.7,0C234.1,225.7,245.5,214.3,245.5,200.3z"/>
		<path id="XMLID_181_" class="st14" d="M219.5,168.3v6.7c0.2,0,0.4,0,0.7,0c14,0,25.3,11.3,25.3,25.3c0,14-11.3,25.3-25.3,25.3
			c-0.2,0-0.4,0-0.7,0v6h7.1v9.2c19.7-3.1,34.7-20.1,34.7-40.6s-14.9-37.4-34.5-40.6v8.6L219.5,168.3L219.5,168.3z"/>
		<path id="XMLID_180_" class="st14" d="M220.2,159.2c2.3,0,4.5,0.2,6.6,0.5v-9.2h-7.3v8.7C219.7,159.2,219.9,159.2,220.2,159.2z"/>
		<path id="XMLID_179_" class="st14" d="M219.5,159.2v9.2h7.3v-8.6c-2.2-0.4-4.4-0.5-6.6-0.5C219.9,159.2,219.7,159.2,219.5,159.2z"
			/>
		<path id="XMLID_178_" class="st14" d="M226.6,240.9c-2.1,0.3-4.3,0.5-6.4,0.5c-0.2,0-0.4,0-0.7,0v8.1h7.1V240.9z"/>
		<path id="XMLID_177_" class="st14" d="M219.5,231.7v9.7c0.2,0,0.4,0,0.7,0c2.2,0,4.3-0.2,6.4-0.5v-9.2H219.5z"/>
		<path id="XMLID_176_" class="st16" d="M234.1,198.7c0-7.8-6.3-14.2-14.2-14.2c-0.1,0-0.3,0-0.4,0v28.3c0.1,0,0.3,0,0.4,0
			C227.7,212.9,234.1,206.5,234.1,198.7z"/>
		<path id="XMLID_175_" class="st15" d="M219.9,184.5c7.8,0,14.2,6.3,14.2,14.2c0,7.8-6.3,14.2-14.2,14.2c-0.1,0-0.3,0-0.4,0v8.8
			c0.1,0,0.3,0,0.4,0c12.7,0,23-10.3,23-23c0-12.7-10.3-23-23-23c-0.1,0-0.3,0-0.4,0v8.9C219.6,184.5,219.8,184.5,219.9,184.5z"/>
	</g>
	<g id="XMLID_166_">
		<path id="XMLID_173_" class="st16" d="M239.9,200.1c0-11.2-9.1-20.4-20.4-20.4v40.7C230.7,220.4,239.9,211.3,239.9,200.1z"/>
		<path id="XMLID_172_" class="st14" d="M219.5,166.4v12.1c11.2,0,20.4,9.8,20.4,21c0,11.2-9.1,20.4-20.4,20.4v12.7
			c18.2,0,33-14.8,33-33C252.5,181.2,237.7,166.4,219.5,166.4z"/>
		<path id="XMLID_169_" class="st16" d="M199.1,200.1c0,11.2,9.1,20.4,20.4,20.4v-40.7C208.3,179.7,199.1,188.9,199.1,200.1z"/>
		<path id="XMLID_168_" class="st16" d="M186.5,200.1c0-18.2,14.8-33,33-33v-22h-58.9v115.7h58.9v-27.6
			C201.3,233.1,186.5,218.3,186.5,200.1z"/>
		<path id="XMLID_167_" class="st15" d="M199.1,199.5c0-11.2,9.1-21,20.4-21v-12.1c-18.2,0-33,14.8-33,33s14.8,33,33,33v-12.7
			C208.3,219.8,199.1,210.7,199.1,199.5z"/>
	</g>
</g>
<path id="XMLID_164_" class="st13" d="M219.5,198.6c0,0,16.6,24.7-73.9,33c-90.5,8.3-94,21.8-94,64.3c0,36.8,45.4,39.7,45.4,39.7"/>
</svg>
