<?xml version="1.0" encoding="utf-8"?>
<!-- Generator: Adobe Illustrator 19.0.0, SVG Export Plug-In . SVG Version: 6.00 Build 0)  -->
<svg version="1.1" id="Layer_1" xmlns="http://www.w3.org/2000/svg" xmlns:xlink="http://www.w3.org/1999/xlink" x="0px" y="0px"
	 viewBox="0 0 459.5 377" style="enable-background:new 0 0 459.5 377;" xml:space="preserve">
<style type="text/css">
	.st0{fill:none;stroke:#E84D7B;stroke-width:2;stroke-miterlimit:10;}
	.st1{fill:#E86281;}
	.st2{fill:none;stroke:#E84D7B;stroke-width:2;stroke-miterlimit:10;stroke-dasharray:2;}
	.st3{fill:#E84D7B;}
	.st4{fill:none;stroke:#E84D7B;stroke-miterlimit:10;}
	.st5{fill:#E86281;stroke:#E84D7B;stroke-width:2;stroke-miterlimit:10;}
	.st6{fill:#E86281;stroke:#E84D7B;stroke-width:21;stroke-miterlimit:10;}
	.st7{fill:none;stroke:#E84D7B;stroke-width:5;stroke-miterlimit:10;stroke-dasharray:11.9147,11.9147;}
	.st8{fill:#F2778A;}
	.st9{fill:#E9507F;}
	.st10{fill:none;stroke:#E75D8D;stroke-width:21;stroke-miterlimit:10;}
</style>
<circle id="XMLID_204_" class="st0" cx="402.3" cy="169" r="4.6"/>
<g id="XMLID_200_">
	<path id="XMLID_201_" class="st1" d="M398.5,151.1c-0.2-0.2-0.5-0.3-0.9-0.2c-0.5,0.1-0.9,0.4-1.1,0.8
		c-7.9,15.7-14.6,20.2-12.8,27.6l16.1,67.7c1.8,7.5,11.9,11.4,22.6,8.9l0,0c10.7-2.5,18-10.7,16.2-18.1l-16.1-67.7
		C420.8,162.8,408.4,158.6,398.5,151.1z M406,167.9c0.6,2.3-0.9,4.7-3.2,5.2c-2.3,0.6-4.7-0.9-5.2-3.2c-0.6-2.3,0.9-4.7,3.2-5.2
		C403.1,164.2,405.4,165.6,406,167.9z"/>
</g>
<path id="XMLID_199_" class="st1" d="M445,264.5l-3.4-14.2c-0.8-3.4-4.2-5.4-7.5-4.6l-26.6,6.3c-3.4,0.8-5.4,4.2-4.6,7.5l3.4,14.2
	c0.8,3.4,4.2,5.4,7.5,4.6l26.6-6.3C443.7,271.3,445.8,267.9,445,264.5z"/>
<line id="XMLID_198_" class="st2" x1="387.5" y1="182.9" x2="419.6" y2="173.4"/>
<g id="XMLID_182_">
	<path id="XMLID_196_" class="st3" d="M417,241.7c-2.9,0.7-5.2-1.1-5.8-3.5c-0.6-2.5,0.6-4.1,2-4.8l0.9,1.5
		c-0.8,0.4-1.6,1.3-1.2,2.9c0.3,1.3,1.6,2.5,3.7,2.1c1.9-0.5,2.7-2,2.3-3.5c-0.4-1.5-1.5-2-2.4-2.1l0.1-1.8c1.5,0,3.4,0.9,4,3.4
		C421.2,238.5,419.9,241,417,241.7z"/>
	<path id="XMLID_193_" class="st3" d="M409,228.6c-0.6-2.4,0.7-5,3.6-5.7c2.9-0.7,5.2,1.1,5.8,3.5c0.6,2.4-0.7,5-3.6,5.7
		C411.9,232.8,409.6,231,409,228.6z M416.7,226.8c-0.3-1.4-1.6-2.6-3.7-2.1c-2,0.5-2.7,2.1-2.3,3.5c0.3,1.4,1.6,2.6,3.6,2.1
		C416.4,229.8,417,228.1,416.7,226.8z"/>
	<path id="XMLID_191_" class="st3" d="M413.6,221.1l-5.8,1.4l-0.4-1.7l5.7-1.3c1.2-0.3,1.6-1.1,1.4-2.1c-0.3-1.1-1-1.6-2.2-1.3
		l-5.7,1.3l-0.4-1.7l5.8-1.4c2.2-0.5,3.7,0.7,4.2,2.7C416.6,218.8,415.8,220.6,413.6,221.1z"/>
	<path id="XMLID_188_" class="st3" d="M410.9,210.5l3.4-0.8l0.4,1.7l-9,2.1l-0.8-3.4c-0.4-1.8,0.5-3.2,2.1-3.6
		c1.6-0.4,3.1,0.5,3.5,2.3L410.9,210.5z M409,209.5c-0.2-0.9-0.8-1.3-1.6-1.1c-0.8,0.2-1.2,0.8-1,1.7l0.3,1.4l2.6-0.6L409,209.5z"/>
	<path id="XMLID_185_" class="st3" d="M402.7,201.9c-0.6-2.4,0.7-5,3.6-5.7c2.9-0.7,5.2,1.1,5.8,3.5c0.6,2.4-0.7,5-3.6,5.7
		C405.6,206,403.3,204.3,402.7,201.9z M410.4,200.1c-0.3-1.4-1.6-2.6-3.7-2.1c-2,0.5-2.7,2.1-2.3,3.5c0.3,1.4,1.6,2.6,3.6,2.1
		C410.1,203.1,410.7,201.4,410.4,200.1z"/>
	<path id="XMLID_183_" class="st3" d="M409.1,187.7l-5.4,5.6l6.4-1.5l0.4,1.7l-9,2.1l-0.5-2.2l5.1-5.1l-5.9,1.4l-0.4-1.7l9-2.1
		L409.1,187.7z"/>
</g>
<g id="XMLID_170_">
	<path id="XMLID_180_" class="st3" d="M417.1,260.4c-0.5,0.7-2.2,3.4-1.5,7.6l-1.8,0.5c-0.8-4.5,1.4-7.5,1.4-7.5l-4.2,1.1l-0.4-1.5
		l6.2-1.6L417.1,260.4z"/>
	<path id="XMLID_177_" class="st3" d="M418.1,259.8c0.3-0.9,1.1-1.7,2.3-2.1c1.3-0.3,2.3,0,3,0.7c0.8,0.7,1.2,1.7,1.5,2.7
		c0.3,1,0.4,2.1,0,3.1c-0.3,0.9-1.1,1.7-2.3,2.1s-2.3,0-3.1-0.7c-0.8-0.7-1.2-1.7-1.5-2.7C417.9,261.9,417.8,260.8,418.1,259.8z
		 M420.8,264.4c0.4,0.3,0.8,0.5,1.4,0.4c0.6-0.2,0.9-0.5,1.1-1c0.2-0.6,0.1-1.3-0.1-2.2c-0.2-0.9-0.5-1.6-1-2
		c-0.4-0.3-0.8-0.5-1.4-0.4c-0.6,0.2-0.9,0.5-1.1,1c-0.2,0.6-0.1,1.3,0.1,2.2C420.1,263.3,420.4,264,420.8,264.4z"/>
	<path id="XMLID_171_" class="st3" d="M428.1,264.7l3.7-9.7l1.5-0.4l-3.7,9.7L428.1,264.7z M426.8,256.2c1.1-0.3,2.3,0.4,2.6,1.5
		c0.3,1.2-0.4,2.3-1.6,2.6c-1.1,0.3-2.3-0.4-2.6-1.5C424.9,257.6,425.6,256.4,426.8,256.2z M433.4,259.1c1.1-0.3,2.3,0.4,2.6,1.5
		c0.3,1.2-0.4,2.3-1.6,2.6c-1.1,0.3-2.3-0.4-2.6-1.5C431.5,260.5,432.3,259.4,433.4,259.1z M427.5,259.1c0.5-0.1,0.7-0.6,0.6-1.1
		c-0.1-0.5-0.6-0.8-1.1-0.7c-0.5,0.1-0.7,0.6-0.6,1.1C426.6,259,427.1,259.2,427.5,259.1z M434.2,262c0.5-0.1,0.7-0.6,0.6-1.1
		s-0.6-0.8-1.1-0.7c-0.5,0.1-0.7,0.6-0.6,1.1C433.2,261.9,433.7,262.1,434.2,262z"/>
</g>
<path id="XMLID_169_" class="st4" d="M402.3,169c0,0-11.4-21.9-11.8-39.1c-0.2-9.2,2.5-8.2,5.1-5.3c2.8,3.2,4.4,7.5,4.7,11.9
	L402.3,169z"/>
<rect id="XMLID_100_" x="37.5" y="87.8" class="st5" width="68" height="28"/>
<g id="XMLID_135_">
	<g id="XMLID_381_">
		<path id="XMLID_395_" class="st3" d="M58.6,105.3h-2v-5.4l0-0.9l0-1c-0.3,0.3-0.6,0.5-0.7,0.6l-1.1,0.9L54,98.4l3-2.4h1.6V105.3z"
			/>
		<path id="XMLID_391_" class="st3" d="M64.4,95.9c0.9,0,1.6,0.2,2.1,0.6c0.5,0.4,0.8,0.9,0.8,1.6c0,0.5-0.1,0.9-0.4,1.3
			c-0.3,0.4-0.7,0.7-1.3,1c0.7,0.4,1.2,0.8,1.5,1.2c0.3,0.4,0.5,0.8,0.5,1.3c0,0.8-0.3,1.4-0.9,1.8c-0.6,0.5-1.4,0.7-2.4,0.7
			c-1,0-1.8-0.2-2.4-0.6c-0.6-0.4-0.9-1-0.9-1.8c0-0.5,0.1-1,0.4-1.4s0.7-0.8,1.4-1.1c-0.5-0.3-0.9-0.7-1.1-1.1s-0.3-0.8-0.3-1.3
			c0-0.7,0.3-1.2,0.8-1.6C62.8,96.1,63.5,95.9,64.4,95.9z M62.9,102.8c0,0.4,0.1,0.6,0.4,0.9s0.6,0.3,1,0.3c0.5,0,0.9-0.1,1.1-0.3
			c0.2-0.2,0.4-0.5,0.4-0.8c0-0.3-0.1-0.5-0.4-0.8c-0.2-0.2-0.6-0.5-1.2-0.8C63.4,101.7,62.9,102.2,62.9,102.8z M64.3,97.3
			c-0.3,0-0.6,0.1-0.8,0.3c-0.2,0.2-0.3,0.4-0.3,0.7c0,0.3,0.1,0.5,0.2,0.7c0.2,0.2,0.5,0.4,0.9,0.6c0.4-0.2,0.7-0.4,0.9-0.6
			c0.2-0.2,0.2-0.4,0.2-0.7c0-0.3-0.1-0.5-0.3-0.7S64.7,97.3,64.3,97.3z"/>
		<path id="XMLID_387_" class="st3" d="M71.8,95.9c0.9,0,1.6,0.2,2.1,0.6c0.5,0.4,0.8,0.9,0.8,1.6c0,0.5-0.1,0.9-0.4,1.3
			c-0.3,0.4-0.7,0.7-1.3,1c0.7,0.4,1.2,0.8,1.5,1.2c0.3,0.4,0.5,0.8,0.5,1.3c0,0.8-0.3,1.4-0.9,1.8c-0.6,0.5-1.4,0.7-2.4,0.7
			c-1,0-1.8-0.2-2.4-0.6s-0.9-1-0.9-1.8c0-0.5,0.1-1,0.4-1.4s0.7-0.8,1.4-1.1c-0.5-0.3-0.9-0.7-1.1-1.1c-0.2-0.4-0.3-0.8-0.3-1.3
			c0-0.7,0.3-1.2,0.8-1.6S70.9,95.9,71.8,95.9z M70.3,102.8c0,0.4,0.1,0.6,0.4,0.9s0.6,0.3,1,0.3c0.5,0,0.9-0.1,1.1-0.3
			c0.2-0.2,0.4-0.5,0.4-0.8c0-0.3-0.1-0.5-0.4-0.8c-0.2-0.2-0.6-0.5-1.2-0.8C70.8,101.7,70.3,102.2,70.3,102.8z M71.8,97.3
			c-0.3,0-0.6,0.1-0.8,0.3c-0.2,0.2-0.3,0.4-0.3,0.7c0,0.3,0.1,0.5,0.2,0.7c0.2,0.2,0.5,0.4,0.9,0.6c0.4-0.2,0.7-0.4,0.9-0.6
			s0.2-0.4,0.2-0.7c0-0.3-0.1-0.5-0.3-0.7C72.4,97.4,72.1,97.3,71.8,97.3z"/>
		<path id="XMLID_384_" class="st3" d="M82.5,100.7c0,1.6-0.3,2.8-0.8,3.6s-1.3,1.2-2.5,1.2c-1.1,0-1.9-0.4-2.4-1.2s-0.8-2-0.8-3.6
			c0-1.6,0.3-2.8,0.8-3.6c0.5-0.8,1.3-1.2,2.4-1.2c1.1,0,1.9,0.4,2.4,1.2S82.5,99.1,82.5,100.7z M77.9,100.7c0,1.1,0.1,2,0.3,2.4
			c0.2,0.5,0.5,0.7,1,0.7c0.5,0,0.8-0.2,1-0.7s0.3-1.3,0.3-2.4c0-1.1-0.1-2-0.3-2.5c-0.2-0.5-0.5-0.7-1-0.7c-0.5,0-0.8,0.2-1,0.7
			C78,98.7,77.9,99.5,77.9,100.7z"/>
		<path id="XMLID_382_" class="st3" d="M88.9,103.2c0,0.7-0.3,1.3-0.8,1.7s-1.3,0.6-2.3,0.6c-0.5,0-1,0-1.3-0.1
			c-0.4-0.1-0.7-0.2-1-0.3v-1.6c0.4,0.2,0.8,0.3,1.2,0.4c0.5,0.1,0.8,0.2,1.2,0.2c0.7,0,1.1-0.2,1.1-0.6c0-0.2,0-0.3-0.1-0.4
			c-0.1-0.1-0.3-0.2-0.5-0.3c-0.2-0.1-0.5-0.3-0.9-0.4c-0.5-0.2-0.9-0.4-1.2-0.6s-0.4-0.4-0.6-0.7c-0.1-0.3-0.2-0.6-0.2-0.9
			c0-0.6,0.2-1.1,0.7-1.5c0.5-0.3,1.2-0.5,2.1-0.5c0.9,0,1.7,0.2,2.5,0.6l-0.6,1.4c-0.4-0.2-0.7-0.3-1-0.4s-0.6-0.1-0.9-0.1
			c-0.6,0-0.9,0.2-0.9,0.5c0,0.2,0.1,0.3,0.3,0.5c0.2,0.1,0.6,0.3,1.2,0.6c0.6,0.2,1,0.4,1.2,0.6s0.4,0.4,0.6,0.7
			S88.9,102.9,88.9,103.2z"/>
	</g>
</g>
<circle id="XMLID_134_" class="st6" cx="241.9" cy="161.8" r="144.3"/>
<g id="XMLID_131_">
	<circle id="XMLID_133_" class="st7" cx="241.7" cy="162" r="110"/>
</g>
<circle id="XMLID_130_" class="st3" cx="242.9" cy="164.6" r="12.1"/>
<path id="XMLID_129_" class="st3" d="M242.9,164.6c0,0,15.7-67.6,23.3-80.6c6.8-11.5,18.5-9.4,11.9,5.7
	C273.2,101.2,242.9,164.6,242.9,164.6z"/>
<g id="XMLID_125_">
	
		<rect id="XMLID_128_" x="365" y="286.2" transform="matrix(0.6724 -0.7402 0.7402 0.6724 -95.8054 376.0901)" class="st8" width="24" height="20.1"/>
	<path id="XMLID_127_" class="st9" d="M445.4,366.1L445.4,366.1c-9.7,9-24.9,8.5-33.9-1.2l-48.3-51.8l33.6-31.3l49.7,53.4
		C454.8,344,454.3,357.9,445.4,366.1z"/>
	<circle id="XMLID_126_" class="st10" cx="308.9" cy="227.7" r="78"/>
</g>
<rect id="XMLID_12533_" x="7.5" y="132.8" class="st5" width="77" height="32"/>
<g id="XMLID_110_">
	<path id="XMLID_122_" class="st3" d="M31.1,152.9h-2.2v-6.1l0-1l0-1.1c-0.4,0.4-0.6,0.6-0.8,0.7l-1.2,1l-1.1-1.3l3.4-2.7h1.8V152.9
		z"/>
	<path id="XMLID_119_" class="st3" d="M41.4,146.8c0,2.1-0.4,3.6-1.3,4.7s-2.2,1.5-4,1.5c-0.6,0-1.1,0-1.4-0.1v-1.8
		c0.4,0.1,0.8,0.2,1.3,0.2c0.7,0,1.4-0.1,1.8-0.3c0.5-0.2,0.8-0.6,1.1-1c0.3-0.5,0.4-1.1,0.4-1.9h-0.1c-0.3,0.5-0.6,0.8-1,1
		c-0.4,0.2-0.8,0.3-1.4,0.3c-0.9,0-1.6-0.3-2.2-0.9c-0.5-0.6-0.8-1.4-0.8-2.5c0-1.1,0.3-2,1-2.7c0.6-0.7,1.5-1,2.6-1
		c0.8,0,1.5,0.2,2,0.5c0.6,0.4,1,0.9,1.3,1.6C41.3,145,41.4,145.8,41.4,146.8z M37.6,144c-0.5,0-0.8,0.2-1.1,0.5s-0.4,0.8-0.4,1.4
		c0,0.5,0.1,0.9,0.4,1.2s0.6,0.4,1.1,0.4c0.5,0,0.8-0.1,1.2-0.4c0.3-0.3,0.5-0.6,0.5-1c0-0.6-0.2-1.1-0.5-1.5
		C38.4,144.2,38.1,144,37.6,144z"/>
	<path id="XMLID_116_" class="st3" d="M49.9,147.6c0,1.8-0.3,3.2-0.9,4.1c-0.6,0.9-1.5,1.3-2.8,1.3c-1.2,0-2.1-0.5-2.8-1.4
		c-0.6-0.9-0.9-2.3-0.9-4c0-1.9,0.3-3.2,0.9-4.1c0.6-0.9,1.5-1.3,2.8-1.3c1.2,0,2.1,0.5,2.8,1.4C49.5,144.4,49.9,145.8,49.9,147.6z
		 M44.7,147.6c0,1.3,0.1,2.2,0.3,2.8c0.2,0.6,0.6,0.8,1.1,0.8c0.5,0,0.9-0.3,1.1-0.9c0.2-0.6,0.3-1.5,0.3-2.8c0-1.3-0.1-2.2-0.4-2.8
		c-0.2-0.6-0.6-0.8-1.1-0.8c-0.5,0-0.9,0.3-1.1,0.8C44.8,145.4,44.7,146.3,44.7,147.6z"/>
	<path id="XMLID_113_" class="st3" d="M58.3,147.6c0,1.8-0.3,3.2-0.9,4.1c-0.6,0.9-1.5,1.3-2.8,1.3c-1.2,0-2.1-0.5-2.8-1.4
		c-0.6-0.9-0.9-2.3-0.9-4c0-1.9,0.3-3.2,0.9-4.1c0.6-0.9,1.5-1.3,2.8-1.3c1.2,0,2.1,0.5,2.8,1.4C58,144.4,58.3,145.8,58.3,147.6z
		 M53.1,147.6c0,1.3,0.1,2.2,0.3,2.8c0.2,0.6,0.6,0.8,1.1,0.8c0.5,0,0.9-0.3,1.1-0.9c0.2-0.6,0.3-1.5,0.3-2.8c0-1.3-0.1-2.2-0.3-2.8
		c-0.2-0.6-0.6-0.8-1.1-0.8c-0.5,0-0.9,0.3-1.1,0.8C53.3,145.4,53.1,146.3,53.1,147.6z"/>
	<path id="XMLID_111_" class="st3" d="M65.6,150.5c0,0.8-0.3,1.5-0.9,1.9c-0.6,0.4-1.4,0.6-2.6,0.6c-0.6,0-1.1,0-1.5-0.1
		c-0.4-0.1-0.8-0.2-1.2-0.4v-1.8c0.4,0.2,0.9,0.4,1.4,0.5c0.5,0.1,1,0.2,1.4,0.2c0.8,0,1.2-0.2,1.2-0.7c0-0.2-0.1-0.3-0.2-0.4
		c-0.1-0.1-0.3-0.2-0.5-0.4c-0.3-0.1-0.6-0.3-1-0.5c-0.6-0.3-1.1-0.5-1.4-0.7c-0.3-0.2-0.5-0.5-0.6-0.8c-0.1-0.3-0.2-0.6-0.2-1.1
		c0-0.7,0.3-1.3,0.8-1.7c0.6-0.4,1.3-0.6,2.4-0.6c1,0,1.9,0.2,2.8,0.6l-0.7,1.6c-0.4-0.2-0.8-0.3-1.1-0.4s-0.7-0.2-1.1-0.2
		c-0.7,0-1,0.2-1,0.5c0,0.2,0.1,0.4,0.3,0.5c0.2,0.1,0.7,0.4,1.4,0.6c0.6,0.3,1.1,0.5,1.4,0.7c0.3,0.2,0.5,0.5,0.6,0.8
		C65.6,149.7,65.6,150.1,65.6,150.5z"/>
</g>
<rect id="XMLID_12532_" x="10.5" y="187.8" class="st5" width="92" height="38"/>
<g id="XMLID_85_">
	<path id="XMLID_107_" class="st3" d="M39,214.5h-2.7v-7.3l0-1.2l0-1.3c-0.4,0.4-0.7,0.7-0.9,0.9l-1.4,1.2l-1.3-1.6l4-3.2H39V214.5z
		"/>
	<path id="XMLID_104_" class="st3" d="M51.3,207.3c0,2.5-0.5,4.3-1.6,5.5c-1,1.2-2.6,1.8-4.7,1.8c-0.7,0-1.3,0-1.7-0.1v-2.1
		c0.5,0.1,1,0.2,1.5,0.2c0.9,0,1.6-0.1,2.2-0.4c0.6-0.3,1-0.7,1.3-1.2c0.3-0.6,0.5-1.3,0.5-2.3h-0.1c-0.3,0.5-0.7,0.9-1.1,1.1
		c-0.4,0.2-1,0.3-1.6,0.3c-1.1,0-2-0.4-2.6-1.1c-0.6-0.7-0.9-1.7-0.9-2.9c0-1.3,0.4-2.4,1.1-3.2c0.8-0.8,1.8-1.2,3.1-1.2
		c0.9,0,1.7,0.2,2.4,0.7c0.7,0.4,1.2,1.1,1.6,1.9C51.1,205.2,51.3,206.2,51.3,207.3z M46.7,203.9c-0.5,0-1,0.2-1.3,0.6
		c-0.3,0.4-0.5,0.9-0.5,1.6c0,0.6,0.1,1.1,0.4,1.4c0.3,0.4,0.7,0.5,1.3,0.5c0.5,0,1-0.2,1.4-0.5c0.4-0.4,0.6-0.8,0.6-1.2
		c0-0.7-0.2-1.3-0.5-1.7S47.3,203.9,46.7,203.9z"/>
	<path id="XMLID_102_" class="st3" d="M60.9,204.8c0,0.8-0.2,1.5-0.7,2c-0.5,0.5-1.1,0.9-2,1.1v0.1c1,0.1,1.8,0.4,2.3,0.9
		c0.5,0.5,0.8,1.1,0.8,2c0,1.2-0.4,2.1-1.3,2.8c-0.9,0.7-2.1,1-3.8,1c-1.4,0-2.6-0.2-3.6-0.7v-2.3c0.5,0.2,1,0.4,1.6,0.6
		s1.2,0.2,1.7,0.2c0.9,0,1.5-0.1,1.9-0.4c0.4-0.3,0.6-0.8,0.6-1.4c0-0.6-0.2-1-0.7-1.3c-0.5-0.2-1.2-0.4-2.3-0.4h-1v-2h1
		c1,0,1.7-0.1,2.1-0.4c0.4-0.3,0.7-0.7,0.7-1.3c0-1-0.6-1.4-1.8-1.4c-0.4,0-0.8,0.1-1.3,0.2s-0.9,0.4-1.4,0.7l-1.2-1.8
		c1.1-0.8,2.5-1.2,4.1-1.2c1.3,0,2.3,0.3,3.1,0.8C60.5,203.1,60.9,203.8,60.9,204.8z"/>
	<path id="XMLID_89_" class="st3" d="M71.3,208.2c0,2.2-0.4,3.8-1.1,4.9c-0.7,1.1-1.8,1.6-3.3,1.6c-1.4,0-2.5-0.5-3.3-1.6
		c-0.7-1.1-1.1-2.7-1.1-4.8c0-2.2,0.4-3.8,1.1-4.9c0.7-1.1,1.8-1.6,3.3-1.6c1.4,0,2.5,0.5,3.3,1.6C71,204.5,71.3,206.1,71.3,208.2z
		 M65.2,208.2c0,1.5,0.1,2.6,0.4,3.3c0.3,0.7,0.7,1,1.3,1c0.6,0,1.1-0.3,1.3-1c0.3-0.7,0.4-1.8,0.4-3.3c0-1.5-0.1-2.6-0.4-3.3
		c-0.3-0.7-0.7-1-1.3-1c-0.6,0-1.1,0.3-1.3,1C65.3,205.6,65.2,206.7,65.2,208.2z"/>
	<path id="XMLID_86_" class="st3" d="M80.1,211.7c0,1-0.3,1.7-1,2.3c-0.7,0.5-1.7,0.8-3.1,0.8c-0.7,0-1.3,0-1.8-0.1
		c-0.5-0.1-1-0.2-1.4-0.4V212c0.5,0.2,1,0.4,1.6,0.6c0.6,0.2,1.1,0.2,1.6,0.2c0.9,0,1.4-0.3,1.4-0.8c0-0.2-0.1-0.4-0.2-0.5
		c-0.1-0.1-0.3-0.3-0.7-0.4c-0.3-0.2-0.7-0.4-1.2-0.6c-0.7-0.3-1.3-0.6-1.6-0.9s-0.6-0.6-0.8-0.9c-0.2-0.3-0.2-0.8-0.2-1.3
		c0-0.9,0.3-1.5,1-2c0.7-0.5,1.6-0.7,2.8-0.7c1.2,0,2.3,0.3,3.4,0.8l-0.8,1.9c-0.5-0.2-0.9-0.4-1.3-0.5c-0.4-0.1-0.8-0.2-1.3-0.2
		c-0.8,0-1.2,0.2-1.2,0.6c0,0.2,0.1,0.4,0.4,0.6c0.2,0.2,0.8,0.4,1.6,0.8c0.8,0.3,1.3,0.6,1.6,0.9c0.3,0.3,0.6,0.6,0.8,0.9
		S80.1,211.2,80.1,211.7z"/>
</g>
<rect id="XMLID_12447_" x="25.5" y="245.8" class="st5" width="103" height="43"/>
<g id="XMLID_3_">
	<path id="XMLID_82_" class="st3" d="M58.3,274.3h-3v-8.2l0-1.4l0-1.5c-0.5,0.5-0.8,0.8-1,1l-1.6,1.3l-1.4-1.8l4.6-3.6h2.5V274.3z"
		/>
	<path id="XMLID_28_" class="st3" d="M72.1,266.2c0,2.8-0.6,4.9-1.8,6.3c-1.2,1.4-3,2.1-5.4,2.1c-0.8,0-1.5,0-1.9-0.1V272
		c0.5,0.1,1.1,0.2,1.7,0.2c1,0,1.8-0.1,2.5-0.4c0.6-0.3,1.1-0.8,1.5-1.4c0.3-0.6,0.5-1.5,0.6-2.6h-0.1c-0.4,0.6-0.8,1-1.3,1.3
		c-0.5,0.2-1.1,0.4-1.8,0.4c-1.2,0-2.2-0.4-2.9-1.2c-0.7-0.8-1.1-1.9-1.1-3.3c0-1.5,0.4-2.7,1.3-3.6c0.9-0.9,2-1.3,3.5-1.3
		c1,0,2,0.2,2.8,0.7c0.8,0.5,1.4,1.2,1.8,2.1C71.9,263.8,72.1,264.9,72.1,266.2z M66.9,262.4c-0.6,0-1.1,0.2-1.5,0.6
		c-0.3,0.4-0.5,1-0.5,1.8c0,0.7,0.2,1.2,0.5,1.6c0.3,0.4,0.8,0.6,1.4,0.6c0.6,0,1.1-0.2,1.6-0.6c0.4-0.4,0.7-0.9,0.7-1.4
		c0-0.8-0.2-1.4-0.6-2S67.6,262.4,66.9,262.4z"/>
	<path id="XMLID_25_" class="st3" d="M83.8,271.4h-1.7v2.9h-2.9v-2.9h-6.1v-2.1l6.2-9.2h2.8v8.9h1.7V271.4z M79.2,269v-2.4
		c0-0.4,0-1,0-1.7c0-0.8,0.1-1.2,0.1-1.3h-0.1c-0.2,0.5-0.5,1-0.9,1.6l-2.6,3.9H79.2z"/>
	<path id="XMLID_7_" class="st3" d="M94.8,267.2c0,2.5-0.4,4.3-1.2,5.5c-0.8,1.2-2.1,1.8-3.8,1.8c-1.6,0-2.9-0.6-3.7-1.8
		c-0.8-1.2-1.2-3-1.2-5.4c0-2.5,0.4-4.4,1.2-5.5c0.8-1.2,2.1-1.8,3.7-1.8c1.6,0,2.9,0.6,3.7,1.9S94.8,264.8,94.8,267.2z M87.9,267.2
		c0,1.7,0.1,3,0.5,3.7c0.3,0.8,0.8,1.1,1.5,1.1c0.7,0,1.2-0.4,1.5-1.1c0.3-0.8,0.5-2,0.5-3.7c0-1.7-0.2-3-0.5-3.8
		c-0.3-0.8-0.8-1.1-1.5-1.1c-0.7,0-1.2,0.4-1.5,1.1C88,264.2,87.9,265.5,87.9,267.2z"/>
	<path id="XMLID_4_" class="st3" d="M104.7,271.1c0,1.1-0.4,2-1.2,2.5c-0.8,0.6-1.9,0.9-3.5,0.9c-0.8,0-1.5-0.1-2-0.2
		c-0.6-0.1-1.1-0.3-1.6-0.5v-2.4c0.5,0.3,1.2,0.5,1.9,0.7c0.7,0.2,1.3,0.3,1.8,0.3c1.1,0,1.6-0.3,1.6-0.9c0-0.2-0.1-0.4-0.2-0.6
		c-0.1-0.1-0.4-0.3-0.7-0.5c-0.3-0.2-0.8-0.4-1.4-0.6c-0.8-0.3-1.4-0.7-1.8-1c-0.4-0.3-0.7-0.6-0.9-1c-0.2-0.4-0.3-0.9-0.3-1.4
		c0-1,0.4-1.7,1.1-2.2c0.7-0.5,1.8-0.8,3.2-0.8c1.3,0,2.6,0.3,3.8,0.9l-0.9,2.1c-0.5-0.2-1.1-0.4-1.5-0.6s-1-0.2-1.4-0.2
		c-0.9,0-1.3,0.2-1.3,0.7c0,0.3,0.1,0.5,0.4,0.7c0.3,0.2,0.9,0.5,1.8,0.9c0.8,0.3,1.5,0.7,1.9,1c0.4,0.3,0.7,0.6,0.9,1
		C104.6,270.1,104.7,270.6,104.7,271.1z"/>
</g>
</svg>
