<?xml version="1.0" encoding="utf-8"?>
<!-- Generator: Adobe Illustrator 19.0.0, SVG Export Plug-In . SVG Version: 6.00 Build 0)  -->
<svg version="1.1" id="Layer_1" xmlns="http://www.w3.org/2000/svg" xmlns:xlink="http://www.w3.org/1999/xlink" x="0px" y="0px"
	 viewBox="990.5 199.8 247.3 241.5" style="enable-background:new 990.5 199.8 247.3 241.5;" xml:space="preserve">
<style type="text/css">
	.st0{fill:#33CCCC;}
	.st1{fill:#FFFFFF;}
	.st2{fill:none;stroke:#FFFFFF;stroke-width:1.5;stroke-miterlimit:10;}
</style>
<rect x="990.5" y="199.8" class="st0" width="247.3" height="241.5"/>
<g>
	<g>
		<path class="st1" d="M1021.9,342.6l-4.3-12.5h-0.1c0.1,1,0.1,2.3,0.1,3.9v8.7h-1.5v-14.3h2.4l4,11.7h0.1l4.1-11.7h2.4v14.3h-1.6
			v-8.8c0-1,0-2.2,0.1-3.7h-0.1l-4.4,12.5H1021.9z"/>
		<path class="st1" d="M1036.7,342.8c-1.5,0-2.6-0.5-3.5-1.5s-1.3-2.3-1.3-4c0-1.7,0.4-3.1,1.2-4.1s1.8-1.5,3.2-1.5
			c1.2,0,2.2,0.4,3,1.3c0.7,0.9,1.1,2,1.1,3.5v1.1h-6.8c0,1.2,0.3,2.1,0.9,2.8c0.5,0.6,1.3,0.9,2.3,0.9c0.5,0,1-0.1,1.5-0.2
			s1-0.3,1.7-0.6v1.5c-0.5,0.3-1.1,0.4-1.5,0.5C1037.9,342.8,1037.4,342.8,1036.7,342.8z M1036.3,333.2c-0.8,0-1.4,0.3-1.8,0.8
			c-0.4,0.5-0.7,1.3-0.8,2.3h5c0-1-0.2-1.8-0.6-2.3S1037.1,333.2,1036.3,333.2z"/>
		<path class="st1" d="M1044.5,342.6h-1.6v-15.2h1.6V342.6z"/>
		<path class="st1" d="M1053.7,342.6l-0.3-1.5h-0.1c-0.5,0.7-1,1.1-1.5,1.4s-1.1,0.4-1.8,0.4c-1,0-1.7-0.3-2.3-0.8
			c-0.6-0.6-0.8-1.3-0.8-2.3c0-2.2,1.6-3.3,4.7-3.4l1.7-0.1v-0.6c0-0.8-0.2-1.4-0.5-1.8s-0.8-0.6-1.6-0.6c-0.5,0-1,0.1-1.5,0.3
			s-0.9,0.4-1.3,0.6l-0.5-1.3c0.5-0.3,1-0.5,1.6-0.7c0.6-0.2,1.2-0.2,1.7-0.2c1.2,0,2.1,0.3,2.7,0.9c0.6,0.6,0.9,1.5,0.9,2.7v7.3
			H1053.7z M1050.4,341.4c0.9,0,1.6-0.3,2.1-0.8s0.8-1.3,0.8-2.3v-1l-1.5,0.1c-1.1,0-2,0.2-2.5,0.6s-0.8,0.9-0.8,1.6
			c0,0.6,0.2,1,0.5,1.3C1049.4,341.3,1049.8,341.4,1050.4,341.4z"/>
		<path class="st1" d="M1059.6,342.6h-1.6v-15.2h1.6V342.6z"/>
		<path class="st1" d="M1064.2,331.9v6.9c0,0.9,0.2,1.5,0.5,1.9c0.4,0.4,0.9,0.6,1.7,0.6c1,0,1.7-0.3,2.2-0.9s0.7-1.6,0.7-3v-5.6
			h1.6v10.7h-1.3l-0.2-1.4h-0.1c-0.3,0.5-0.7,0.9-1.2,1.2c-0.5,0.3-1.2,0.4-1.9,0.4c-1.2,0-2.1-0.3-2.7-0.9s-0.9-1.6-0.9-3v-7
			H1064.2z"/>
		<path class="st1" d="M1073.9,329c0-0.4,0.1-0.7,0.3-0.8s0.4-0.3,0.7-0.3c0.3,0,0.5,0.1,0.7,0.3s0.3,0.5,0.3,0.8
			c0,0.4-0.1,0.7-0.3,0.8s-0.4,0.3-0.7,0.3c-0.3,0-0.5-0.1-0.7-0.3S1073.9,329.4,1073.9,329z M1075.7,342.6h-1.6v-10.7h1.6V342.6z"
			/>
		<path class="st1" d="M1085.2,342.6l7.8-17h-10.2v-3.7h14.9v2.7l-7.8,18H1085.2z"/>
		<path class="st1" d="M1118.3,342.6h-1.9l-7-11.9h-0.1l0,0.8c0.1,1.2,0.1,2.2,0.1,3.1v8h-1.5v-14.3h1.9l0.4,0.7l4.3,7.2l2.3,3.9
			h0.1c0-0.2,0-0.7-0.1-1.7s-0.1-1.7-0.1-2.1v-8.1h1.5V342.6z"/>
		<path class="st1" d="M1125.9,342.8c-1.5,0-2.6-0.5-3.5-1.5s-1.3-2.3-1.3-4c0-1.7,0.4-3.1,1.2-4.1c0.8-1,1.8-1.5,3.2-1.5
			c1.2,0,2.2,0.4,3,1.3c0.7,0.9,1.1,2,1.1,3.5v1.1h-6.8c0,1.2,0.3,2.1,0.9,2.8c0.5,0.6,1.3,0.9,2.3,0.9c0.5,0,1-0.1,1.5-0.2
			s1-0.3,1.7-0.6v1.5c-0.5,0.3-1.1,0.4-1.5,0.5S1126.5,342.8,1125.9,342.8z M1125.4,333.2c-0.8,0-1.4,0.3-1.8,0.8s-0.7,1.3-0.8,2.3
			h5c0-1-0.2-1.8-0.6-2.3S1126.2,333.2,1125.4,333.2z"/>
		<path class="st1" d="M1138.6,342.6l0.1-1.3h-0.1c-0.7,1.1-1.7,1.6-3.1,1.6c-1.3,0-2.3-0.5-3-1.5s-1.1-2.3-1.1-4.1
			c0-1.7,0.4-3.1,1.1-4.1c0.7-1,1.7-1.5,3-1.5c1.3,0,2.4,0.5,3.1,1.6h0.1l0.2-1.4h1.3v10.9c0,1.5-0.4,2.7-1.1,3.5
			c-0.7,0.8-1.8,1.2-3.3,1.2c-1.4,0-2.6-0.2-3.5-0.7v-1.6c1,0.6,2.2,0.8,3.6,0.8c0.8,0,1.5-0.3,2-0.8c0.5-0.5,0.7-1.3,0.7-2.2V342.6
			z M1135.8,341.4c1,0,1.7-0.3,2.2-0.9s0.7-1.5,0.7-2.8v-0.4c0-1.4-0.2-2.5-0.7-3.1c-0.5-0.7-1.2-1-2.2-1c-0.8,0-1.5,0.4-1.9,1.1
			s-0.7,1.7-0.7,3.1c0,1.3,0.2,2.3,0.7,3C1134.2,341.1,1134.9,341.4,1135.8,341.4z"/>
		<path class="st1" d="M1149.4,342.6l-0.3-1.5h-0.1c-0.5,0.7-1,1.1-1.5,1.4c-0.5,0.2-1.1,0.4-1.8,0.4c-1,0-1.7-0.3-2.3-0.8
			s-0.8-1.3-0.8-2.3c0-2.2,1.6-3.3,4.7-3.4l1.7-0.1v-0.6c0-0.8-0.2-1.4-0.5-1.8c-0.3-0.4-0.8-0.6-1.6-0.6c-0.5,0-1,0.1-1.5,0.3
			s-0.9,0.4-1.3,0.6l-0.5-1.3c0.5-0.3,1-0.5,1.6-0.7s1.2-0.2,1.7-0.2c1.2,0,2.1,0.3,2.7,0.9s0.9,1.5,0.9,2.7v7.3H1149.4z
			 M1146.1,341.4c0.9,0,1.6-0.3,2.1-0.8s0.8-1.3,0.8-2.3v-1l-1.5,0.1c-1.1,0-2,0.2-2.5,0.6s-0.8,0.9-0.8,1.6c0,0.6,0.2,1,0.5,1.3
			C1145.1,341.3,1145.5,341.4,1146.1,341.4z"/>
		<path class="st1" d="M1158.2,331.7c0.4,0,0.8,0,1.2,0.1l-0.2,1.6c-0.4-0.1-0.7-0.1-1.1-0.1c-0.5,0-1,0.2-1.4,0.5
			c-0.4,0.3-0.8,0.7-1,1.3s-0.4,1.2-0.4,1.8v5.7h-1.6v-10.7h1.3l0.2,2h0.1c0.4-0.7,0.8-1.2,1.3-1.6S1157.6,331.7,1158.2,331.7z"/>
		<path class="st1" d="M1167.1,342.6l-0.3-1.5h-0.1c-0.5,0.7-1,1.1-1.5,1.4c-0.5,0.2-1.1,0.4-1.8,0.4c-1,0-1.7-0.3-2.3-0.8
			s-0.8-1.3-0.8-2.3c0-2.2,1.6-3.3,4.7-3.4l1.7-0.1v-0.6c0-0.8-0.2-1.4-0.5-1.8s-0.8-0.6-1.6-0.6c-0.5,0-1,0.1-1.5,0.3
			c-0.5,0.2-0.9,0.4-1.3,0.6l-0.5-1.3c0.5-0.3,1-0.5,1.6-0.7c0.6-0.2,1.2-0.2,1.7-0.2c1.2,0,2.1,0.3,2.7,0.9s0.9,1.5,0.9,2.7v7.3
			H1167.1z M1163.8,341.4c0.9,0,1.6-0.3,2.1-0.8c0.5-0.5,0.8-1.3,0.8-2.3v-1l-1.5,0.1c-1.1,0-2,0.2-2.5,0.6s-0.8,0.9-0.8,1.6
			c0,0.6,0.2,1,0.5,1.3C1162.8,341.3,1163.3,341.4,1163.8,341.4z"/>
		<path class="st1" d="M1184.6,342.6l-1.6-4.4h-5.2l-1.6,4.4h-1.7l5.1-14.3h1.5l5.1,14.3H1184.6z M1182.5,336.6l-1.5-4.3l-0.6-2.1
			c-0.2,0.8-0.4,1.5-0.6,2.1l-1.5,4.3H1182.5z"/>
		<path class="st1" d="M1194.3,339.7c0,1-0.3,1.8-1,2.3s-1.7,0.8-2.9,0.8c-1.3,0-2.3-0.2-3.1-0.7v-1.6c1.1,0.6,2.1,0.9,3.1,0.9
			c0.8,0,1.4-0.1,1.8-0.4s0.6-0.7,0.6-1.2c0-0.4-0.2-0.8-0.5-1.1c-0.4-0.3-1-0.6-1.9-1c-0.9-0.4-1.6-0.7-2-1s-0.7-0.6-0.8-0.9
			s-0.3-0.8-0.3-1.3c0-0.9,0.3-1.6,1-2.1s1.6-0.8,2.7-0.8c1.1,0,2.2,0.2,3.1,0.7l-0.5,1.4c-1-0.5-1.9-0.7-2.7-0.7
			c-0.7,0-1.2,0.1-1.5,0.3c-0.3,0.2-0.5,0.5-0.5,1c0,0.4,0.1,0.7,0.4,1c0.3,0.3,1,0.6,2.1,1.1c0.8,0.3,1.4,0.6,1.8,0.9
			s0.7,0.6,0.9,1S1194.3,339.2,1194.3,339.7z"/>
		<path class="st1" d="M1196.6,329c0-0.4,0.1-0.7,0.3-0.8s0.4-0.3,0.7-0.3c0.3,0,0.5,0.1,0.7,0.3s0.3,0.5,0.3,0.8
			c0,0.4-0.1,0.7-0.3,0.8s-0.4,0.3-0.7,0.3c-0.3,0-0.5-0.1-0.7-0.3S1196.6,329.4,1196.6,329z M1198.3,342.6h-1.6v-10.7h1.6V342.6z"
			/>
		<path class="st1" d="M1207.5,342.6l-0.3-1.5h-0.1c-0.5,0.7-1,1.1-1.5,1.4s-1.1,0.4-1.8,0.4c-1,0-1.7-0.3-2.3-0.8
			c-0.6-0.6-0.8-1.3-0.8-2.3c0-2.2,1.6-3.3,4.7-3.4l1.7-0.1v-0.6c0-0.8-0.2-1.4-0.5-1.8s-0.8-0.6-1.6-0.6c-0.5,0-1,0.1-1.5,0.3
			s-0.9,0.4-1.3,0.6l-0.5-1.3c0.5-0.3,1-0.5,1.6-0.7c0.6-0.2,1.2-0.2,1.7-0.2c1.2,0,2.1,0.3,2.7,0.9c0.6,0.6,0.9,1.5,0.9,2.7v7.3
			H1207.5z M1204.2,341.4c0.9,0,1.6-0.3,2.1-0.8s0.8-1.3,0.8-2.3v-1l-1.5,0.1c-1.1,0-2,0.2-2.5,0.6s-0.8,0.9-0.8,1.6
			c0,0.6,0.2,1,0.5,1.3C1203.2,341.3,1203.6,341.4,1204.2,341.4z"/>
		<path class="st1" d="M1018.5,363h-1.7v-12.7h-4.1v-1.6h9.8v1.6h-4.1V363z"/>
		<path class="st1" d="M1027.9,363.2c-1.5,0-2.6-0.5-3.5-1.5s-1.3-2.3-1.3-4c0-1.7,0.4-3.1,1.2-4.1c0.8-1,1.8-1.5,3.2-1.5
			c1.2,0,2.2,0.4,3,1.3c0.7,0.9,1.1,2,1.1,3.5v1.1h-6.8c0,1.2,0.3,2.1,0.9,2.8c0.5,0.6,1.3,0.9,2.3,0.9c0.5,0,1-0.1,1.5-0.2
			s1-0.3,1.7-0.6v1.5c-0.5,0.3-1.1,0.4-1.5,0.5S1028.5,363.2,1027.9,363.2z M1027.5,353.6c-0.8,0-1.4,0.3-1.8,0.8s-0.7,1.3-0.8,2.3
			h5c0-1-0.2-1.8-0.6-2.3C1028.8,353.8,1028.2,353.6,1027.5,353.6z"/>
		<path class="st1" d="M1040.8,363v-6.9c0-0.9-0.2-1.5-0.5-1.9c-0.4-0.4-0.9-0.6-1.7-0.6c-1,0-1.7,0.3-2.2,0.9s-0.7,1.6-0.7,3v5.6
			h-1.6v-10.7h1.3l0.2,1.5h0.1c0.3-0.5,0.7-0.9,1.3-1.2c0.5-0.3,1.2-0.4,1.8-0.4c1.2,0,2.1,0.3,2.7,1s0.9,1.6,0.9,3v7H1040.8z"/>
		<path class="st1" d="M1052,363l0.1-1.3h-0.1c-0.7,1.1-1.7,1.6-3.1,1.6c-1.3,0-2.3-0.5-3-1.5c-0.7-1-1.1-2.3-1.1-4.1
			c0-1.7,0.4-3.1,1.1-4.1c0.7-1,1.7-1.5,3-1.5c1.3,0,2.4,0.5,3.1,1.6h0.1l0.2-1.4h1.3v10.9c0,1.5-0.4,2.7-1.1,3.5s-1.8,1.2-3.3,1.2
			c-1.4,0-2.6-0.2-3.5-0.7v-1.6c1,0.6,2.2,0.8,3.6,0.8c0.8,0,1.5-0.3,2-0.8s0.7-1.3,0.7-2.2V363z M1049.2,361.8c1,0,1.7-0.3,2.2-0.9
			c0.5-0.6,0.7-1.5,0.7-2.8v-0.4c0-1.4-0.2-2.5-0.7-3.1s-1.2-1-2.2-1c-0.8,0-1.5,0.4-1.9,1.1c-0.5,0.7-0.7,1.7-0.7,3.1
			c0,1.3,0.2,2.3,0.7,3C1047.6,361.5,1048.3,361.8,1049.2,361.8z"/>
		<path class="st1" d="M1063.3,363l0.1-1.3h-0.1c-0.7,1.1-1.7,1.6-3.1,1.6c-1.3,0-2.3-0.5-3-1.5s-1.1-2.3-1.1-4.1
			c0-1.7,0.4-3.1,1.1-4.1c0.7-1,1.7-1.5,3-1.5c1.3,0,2.4,0.5,3.1,1.6h0.1l0.2-1.4h1.3v10.9c0,1.5-0.4,2.7-1.1,3.5s-1.8,1.2-3.3,1.2
			c-1.4,0-2.6-0.2-3.5-0.7v-1.6c1,0.6,2.2,0.8,3.6,0.8c0.8,0,1.5-0.3,2-0.8c0.5-0.5,0.7-1.3,0.7-2.2V363z M1060.5,361.8
			c1,0,1.7-0.3,2.2-0.9c0.5-0.6,0.7-1.5,0.7-2.8v-0.4c0-1.4-0.2-2.5-0.7-3.1c-0.5-0.7-1.2-1-2.2-1c-0.8,0-1.5,0.4-1.9,1.1
			s-0.7,1.7-0.7,3.1c0,1.3,0.2,2.3,0.7,3C1059,361.5,1059.6,361.8,1060.5,361.8z"/>
		<path class="st1" d="M1074.1,363l-0.3-1.5h-0.1c-0.5,0.7-1,1.1-1.5,1.4s-1.1,0.4-1.8,0.4c-1,0-1.7-0.3-2.3-0.8
			c-0.6-0.6-0.8-1.3-0.8-2.3c0-2.2,1.6-3.3,4.7-3.4l1.7-0.1v-0.6c0-0.8-0.2-1.4-0.5-1.8s-0.8-0.6-1.6-0.6c-0.5,0-1,0.1-1.5,0.3
			s-0.9,0.4-1.3,0.6l-0.5-1.3c0.5-0.3,1-0.5,1.6-0.7c0.6-0.2,1.2-0.2,1.7-0.2c1.2,0,2.1,0.3,2.7,0.9c0.6,0.6,0.9,1.5,0.9,2.7v7.3
			H1074.1z M1070.8,361.8c0.9,0,1.6-0.3,2.1-0.8s0.8-1.3,0.8-2.3v-1l-1.5,0.1c-1.1,0-2,0.2-2.5,0.6s-0.8,0.9-0.8,1.6
			c0,0.6,0.2,1,0.5,1.3C1069.8,361.7,1070.2,361.8,1070.8,361.8z"/>
		<path class="st1" d="M1083,352.1c0.4,0,0.8,0,1.2,0.1l-0.2,1.6c-0.4-0.1-0.7-0.1-1.1-0.1c-0.5,0-1,0.2-1.4,0.5
			c-0.4,0.3-0.8,0.7-1,1.3s-0.4,1.2-0.4,1.8v5.7h-1.6v-10.7h1.3l0.2,2h0.1c0.4-0.7,0.8-1.2,1.3-1.6
			C1081.8,352.3,1082.4,352.1,1083,352.1z"/>
		<path class="st1" d="M1091.9,363l-0.3-1.5h-0.1c-0.5,0.7-1,1.1-1.5,1.4c-0.5,0.2-1.1,0.4-1.8,0.4c-1,0-1.7-0.3-2.3-0.8
			c-0.6-0.6-0.8-1.3-0.8-2.3c0-2.2,1.6-3.3,4.7-3.4l1.7-0.1v-0.6c0-0.8-0.2-1.4-0.5-1.8s-0.8-0.6-1.6-0.6c-0.5,0-1,0.1-1.5,0.3
			s-0.9,0.4-1.3,0.6l-0.5-1.3c0.5-0.3,1-0.5,1.6-0.7c0.6-0.2,1.2-0.2,1.7-0.2c1.2,0,2.1,0.3,2.7,0.9c0.6,0.6,0.9,1.5,0.9,2.7v7.3
			H1091.9z M1088.5,361.8c0.9,0,1.6-0.3,2.1-0.8s0.8-1.3,0.8-2.3v-1l-1.5,0.1c-1.1,0-2,0.2-2.5,0.6s-0.8,0.9-0.8,1.6
			c0,0.6,0.2,1,0.5,1.3C1087.5,361.7,1088,361.8,1088.5,361.8z"/>
		<path class="st1" d="M1105.2,355.3h3.7v1.4h-3.7v4.1h-1.3v-4.1h-3.7v-1.4h3.7v-4.1h1.3V355.3z"/>
		<path class="st1" d="M1126.4,363h-1.7v-6.7h-6.7v6.7h-1.7v-14.3h1.7v6h6.7v-6h1.7V363z"/>
		<path class="st1" d="M1138.3,357.7c0,1.8-0.4,3.1-1.2,4.1c-0.8,1-1.9,1.5-3.4,1.5c-0.9,0-1.7-0.2-2.4-0.7s-1.2-1.1-1.6-1.9
			s-0.6-1.8-0.6-2.9c0-1.7,0.4-3.1,1.2-4.1s1.9-1.5,3.4-1.5c1.4,0,2.5,0.5,3.3,1.5C1137.9,354.6,1138.3,356,1138.3,357.7z
			 M1130.9,357.7c0,1.3,0.2,2.4,0.7,3.1s1.2,1,2.2,1c0.9,0,1.7-0.4,2.1-1c0.5-0.7,0.7-1.7,0.7-3.1s-0.2-2.4-0.7-3
			c-0.5-0.7-1.2-1-2.2-1C1131.9,353.6,1130.9,355,1130.9,357.7z"/>
		<path class="st1" d="M1147.6,363v-6.9c0-0.9-0.2-1.5-0.5-1.9c-0.4-0.4-0.9-0.6-1.7-0.6c-1,0-1.7,0.3-2.2,0.9s-0.7,1.6-0.7,3v5.6
			h-1.6v-10.7h1.3l0.2,1.5h0.1c0.3-0.5,0.7-0.9,1.3-1.2c0.6-0.3,1.2-0.4,1.8-0.4c1.2,0,2.1,0.3,2.7,1c0.6,0.6,0.9,1.6,0.9,3v7
			H1147.6z"/>
		<path class="st1" d="M1158.8,363l0.1-1.3h-0.1c-0.7,1.1-1.7,1.6-3.1,1.6c-1.3,0-2.3-0.5-3-1.5c-0.7-1-1.1-2.3-1.1-4.1
			c0-1.7,0.4-3.1,1.1-4.1c0.7-1,1.7-1.5,3-1.5c1.3,0,2.4,0.5,3.1,1.6h0.1l0.2-1.4h1.3v10.9c0,1.5-0.4,2.7-1.1,3.5
			c-0.7,0.8-1.8,1.2-3.3,1.2c-1.4,0-2.6-0.2-3.5-0.7v-1.6c1,0.6,2.2,0.8,3.6,0.8c0.8,0,1.5-0.3,2-0.8c0.5-0.5,0.7-1.3,0.7-2.2V363z
			 M1156,361.8c1,0,1.7-0.3,2.2-0.9c0.5-0.6,0.7-1.5,0.7-2.8v-0.4c0-1.4-0.2-2.5-0.7-3.1c-0.5-0.7-1.2-1-2.2-1
			c-0.8,0-1.5,0.4-1.9,1.1c-0.5,0.7-0.7,1.7-0.7,3.1c0,1.3,0.2,2.3,0.7,3C1154.5,361.5,1155.1,361.8,1156,361.8z"/>
		<path class="st1" d="M1178.2,363h-1.9l-4.7-6.8l-1.3,1.3v5.5h-1.7v-14.3h1.7v7l1.1-1.4l4.7-5.7h1.9l-5.2,6.2L1178.2,363z"/>
		<path class="st1" d="M1188.3,357.7c0,1.8-0.4,3.1-1.2,4.1c-0.8,1-1.9,1.5-3.4,1.5c-0.9,0-1.7-0.2-2.4-0.7
			c-0.7-0.5-1.2-1.1-1.6-1.9s-0.6-1.8-0.6-2.9c0-1.7,0.4-3.1,1.2-4.1c0.8-1,1.9-1.5,3.4-1.5c1.4,0,2.5,0.5,3.3,1.5
			C1187.9,354.6,1188.3,356,1188.3,357.7z M1180.8,357.7c0,1.3,0.2,2.4,0.7,3.1c0.5,0.7,1.2,1,2.2,1c0.9,0,1.7-0.4,2.1-1
			c0.5-0.7,0.7-1.7,0.7-3.1s-0.2-2.4-0.7-3c-0.5-0.7-1.2-1-2.2-1C1181.8,353.6,1180.8,355,1180.8,357.7z"/>
		<path class="st1" d="M1197.6,363v-6.9c0-0.9-0.2-1.5-0.5-1.9c-0.4-0.4-0.9-0.6-1.7-0.6c-1,0-1.7,0.3-2.2,0.9
			c-0.5,0.6-0.7,1.6-0.7,3v5.6h-1.6v-10.7h1.3l0.2,1.5h0.1c0.3-0.5,0.7-0.9,1.3-1.2s1.2-0.4,1.8-0.4c1.2,0,2.1,0.3,2.7,1
			c0.6,0.6,0.9,1.6,0.9,3v7H1197.6z"/>
		<path class="st1" d="M1208.8,363l0.1-1.3h-0.1c-0.7,1.1-1.7,1.6-3.1,1.6c-1.3,0-2.3-0.5-3-1.5s-1.1-2.3-1.1-4.1
			c0-1.7,0.4-3.1,1.1-4.1s1.7-1.5,3-1.5c1.3,0,2.4,0.5,3.1,1.6h0.1l0.2-1.4h1.3v10.9c0,1.5-0.4,2.7-1.1,3.5s-1.8,1.2-3.3,1.2
			c-1.4,0-2.6-0.2-3.5-0.7v-1.6c1,0.6,2.2,0.8,3.6,0.8c0.8,0,1.5-0.3,2-0.8c0.5-0.5,0.7-1.3,0.7-2.2V363z M1206,361.8
			c1,0,1.7-0.3,2.2-0.9s0.7-1.5,0.7-2.8v-0.4c0-1.4-0.2-2.5-0.7-3.1c-0.5-0.7-1.2-1-2.2-1c-0.8,0-1.5,0.4-1.9,1.1s-0.7,1.7-0.7,3.1
			c0,1.3,0.2,2.3,0.7,3C1204.4,361.5,1205.1,361.8,1206,361.8z"/>
	</g>
</g>
<g>
	<path class="st2" d="M1130.6,273.2c-10,11.2-27.2,12.1-38.3,2.1s-12.1-27.2-2.1-38.3"/>
	<circle class="st2" cx="1110.6" cy="255.3" r="21.2"/>
	<line class="st2" x1="1112.2" y1="283.9" x2="1112.2" y2="292.2"/>
	<line class="st2" x1="1098.4" y1="292.2" x2="1129.8" y2="292.2"/>
</g>
</svg>
