<?xml version="1.0" encoding="utf-8"?>
<!-- Generator: Adobe Illustrator 19.0.0, SVG Export Plug-In . SVG Version: 6.00 Build 0)  -->
<svg version="1.1" id="Layer_1" xmlns="http://www.w3.org/2000/svg" xmlns:xlink="http://www.w3.org/1999/xlink" x="0px" y="0px"
	 viewBox="240.3 6.8 517.9 348.4" style="enable-background:new 240.3 6.8 517.9 348.4;" xml:space="preserve">
<style type="text/css">
	.st0{fill:#FFFFFF;}
	.st1{fill:#33CCCC;}
	.st2{fill:none;stroke:#33CCCC;stroke-width:2;stroke-miterlimit:10;}
	.st3{fill:#FFFFFF;stroke:#FFFFFF;stroke-width:0.5;stroke-miterlimit:10;}
	.st4{fill:none;stroke:#FFFFFF;stroke-width:0.75;stroke-linecap:round;stroke-linejoin:round;stroke-miterlimit:10;}
	.st5{fill:#FF6633;}
	.st6{fill:#33CCCC;stroke:#FFFFFF;stroke-width:0.75;stroke-miterlimit:10;}
	.st7{fill:none;stroke:#FFFFFF;stroke-linecap:round;stroke-linejoin:round;stroke-miterlimit:10;}
	.st8{fill:none;stroke:#FFFFFF;stroke-width:0.75;stroke-miterlimit:10;}
	.st9{fill:#E3E3E3;stroke:#E3E3E3;stroke-width:0.75;stroke-miterlimit:10;}
</style>
<g>
	<path class="st0" d="M273.2,20.8c0,2.9-0.8,5.1-2.5,6.6c-1.6,1.5-4,2.3-7,2.3h-2.2v9.5h-5.2V12.5h7.8c3,0,5.2,0.7,6.8,2.1
		S273.2,18,273.2,20.8z M261.5,25h1.7c1.6,0,2.8-0.3,3.6-1c0.8-0.7,1.2-1.7,1.2-3c0-1.3-0.3-2.3-1-2.9c-0.7-0.6-1.7-0.9-3.1-0.9
		h-2.4V25z"/>
	<path class="st0" d="M289.3,39.1l-1-2.8h-0.1c-0.9,1.2-1.7,2-2.7,2.5c-0.9,0.5-2.1,0.7-3.6,0.7c-1.8,0-3.2-0.6-4.2-1.7
		c-1-1.1-1.5-2.7-1.5-4.8c0-2.2,0.7-3.8,2.1-4.8s3.5-1.6,6.3-1.7l3.2-0.1v-0.9c0-2.1-1-3.1-2.9-3.1c-1.5,0-3.3,0.5-5.3,1.5l-1.7-3.8
		c2.2-1.2,4.5-1.8,7.2-1.8c2.5,0,4.4,0.6,5.8,1.8c1.3,1.2,2,3,2,5.4v13.6H289.3z M287.8,29.7l-2,0.1c-1.5,0-2.6,0.3-3.3,0.9
		c-0.7,0.5-1.1,1.3-1.1,2.4c0,1.6,0.8,2.4,2.5,2.4c1.2,0,2.1-0.4,2.8-1.1c0.7-0.7,1.1-1.7,1.1-3V29.7z"/>
	<path class="st0" d="M315.4,39.1h-5.1V27.2c0-1.5-0.2-2.6-0.7-3.3c-0.5-0.7-1.2-1.1-2.3-1.1c-1.4,0-2.5,0.5-3.1,1.6
		c-0.6,1-1,2.8-1,5.2v9.6h-5.1V18.8h3.9l0.7,2.6h0.3c0.6-1,1.4-1.7,2.4-2.2s2.1-0.8,3.4-0.8c2.2,0,3.8,0.6,5,1.9
		c1.1,1.3,1.7,3.1,1.7,5.5V39.1z"/>
	<path class="st0" d="M326.6,39.5c-2.2,0-3.9-0.9-5.2-2.8c-1.3-1.9-1.9-4.4-1.9-7.7c0-3.3,0.6-5.9,1.9-7.8c1.3-1.9,3-2.8,5.3-2.8
		c2.4,0,4.2,1,5.4,3h0.2c-0.3-1.5-0.4-2.9-0.4-4.1v-6.5h5.1v28.3h-3.9l-1-2.6h-0.2C330.8,38.5,329,39.5,326.6,39.5z M328.4,35.1
		c1.3,0,2.3-0.4,2.9-1.2c0.6-0.8,0.9-2.2,1-4.2V29c0-2.2-0.3-3.8-0.9-4.7c-0.6-0.9-1.6-1.4-3-1.4c-1.1,0-2,0.5-2.7,1.6
		c-0.6,1.1-0.9,2.6-0.9,4.6s0.3,3.5,1,4.5C326.3,34.6,327.2,35.1,328.4,35.1z"/>
	<path class="st0" d="M355.7,39.1l-0.7-2.6h-0.3c-0.5,0.9-1.3,1.7-2.3,2.2c-1,0.5-2.1,0.8-3.4,0.8c-2.2,0-3.9-0.6-5-1.9
		c-1.1-1.3-1.7-3.1-1.7-5.5V18.8h5.1v11.9c0,1.5,0.2,2.6,0.7,3.3c0.5,0.7,1.2,1.1,2.3,1.1c1.4,0,2.5-0.5,3.1-1.6c0.6-1,1-2.8,1-5.2
		v-9.6h5.1v20.4H355.7z"/>
	<path class="st0" d="M376.8,39.1l-1-2.8h-0.1c-0.9,1.2-1.7,2-2.7,2.5c-0.9,0.5-2.1,0.7-3.6,0.7c-1.8,0-3.2-0.6-4.2-1.7
		c-1-1.1-1.5-2.7-1.5-4.8c0-2.2,0.7-3.8,2.1-4.8s3.5-1.6,6.3-1.7l3.2-0.1v-0.9c0-2.1-1-3.1-2.9-3.1c-1.5,0-3.3,0.5-5.3,1.5l-1.7-3.8
		c2.2-1.2,4.5-1.8,7.2-1.8c2.5,0,4.4,0.6,5.8,1.8c1.3,1.2,2,3,2,5.4v13.6H376.8z M375.3,29.7l-2,0.1c-1.5,0-2.6,0.3-3.3,0.9
		c-0.7,0.5-1.1,1.3-1.1,2.4c0,1.6,0.8,2.4,2.5,2.4c1.2,0,2.1-0.4,2.8-1.1c0.7-0.7,1.1-1.7,1.1-3V29.7z"/>
	<path class="st0" d="M402.9,39.1h-5.1V27.2c0-1.5-0.2-2.6-0.7-3.3c-0.5-0.7-1.2-1.1-2.3-1.1c-1.4,0-2.5,0.5-3.1,1.6
		c-0.6,1-1,2.8-1,5.2v9.6h-5.1V18.8h3.9l0.7,2.6h0.3c0.6-1,1.4-1.7,2.4-2.2s2.1-0.8,3.4-0.8c2.2,0,3.8,0.6,5,1.9
		c1.1,1.3,1.7,3.1,1.7,5.5V39.1z"/>
	<path class="st0" d="M434.4,20.8c0,2.9-0.8,5.1-2.5,6.6c-1.6,1.5-4,2.3-7,2.3h-2.2v9.5h-5.2V12.5h7.8c3,0,5.2,0.7,6.8,2.1
		S434.4,18,434.4,20.8z M422.7,25h1.7c1.6,0,2.8-0.3,3.6-1c0.8-0.7,1.2-1.7,1.2-3c0-1.3-0.3-2.3-1-2.9c-0.7-0.6-1.7-0.9-3.1-0.9
		h-2.4V25z"/>
	<path class="st0" d="M447.1,39.5c-3,0-5.4-0.9-7.1-2.7c-1.7-1.8-2.5-4.4-2.5-7.7c0-3.4,0.8-6.1,2.4-7.9c1.6-1.9,3.7-2.8,6.5-2.8
		c2.6,0,4.7,0.8,6.2,2.5c1.5,1.6,2.2,3.9,2.2,6.8v2.7h-12.1c0.1,1.6,0.5,2.8,1.3,3.7c0.8,0.9,1.9,1.3,3.4,1.3c1.1,0,2.2-0.1,3.2-0.4
		c1-0.3,2.1-0.7,3.1-1.2v4.3c-0.9,0.5-1.8,0.8-2.9,1.1S448.6,39.5,447.1,39.5z M446.4,22.3c-1.1,0-1.9,0.4-2.5,1.1
		c-0.6,0.7-1,1.8-1.1,3.2h7.2c0-1.4-0.4-2.4-1-3.2C448.3,22.7,447.5,22.3,446.4,22.3z"/>
	<path class="st0" d="M476.2,39.1h-5.1V27.2c0-1.5-0.2-2.6-0.7-3.3c-0.5-0.7-1.2-1.1-2.3-1.1c-1.4,0-2.5,0.5-3.1,1.6
		c-0.6,1-1,2.8-1,5.2v9.6h-5.1V18.8h3.9l0.7,2.6h0.3c0.6-1,1.4-1.7,2.4-2.2s2.1-0.8,3.4-0.8c2.2,0,3.8,0.6,5,1.9
		c1.1,1.3,1.7,3.1,1.7,5.5V39.1z"/>
	<path class="st0" d="M497.8,39.2c0,2.9-0.8,5.1-2.4,6.7c-1.6,1.5-3.9,2.3-7,2.3c-2.7,0-5.1-0.4-7-1.2v-4.4c2.3,1,4.7,1.6,7.3,1.6
		c2.6,0,3.9-1.5,3.9-4.6V39l0.2-2.5h-0.2c-1.2,2-3,3-5.3,3c-2.2,0-4-0.9-5.2-2.8c-1.2-1.9-1.9-4.4-1.9-7.7c0-3.3,0.6-5.9,1.9-7.8
		c1.3-1.9,3-2.8,5.3-2.8c2.3,0,4.1,1,5.4,3h0.1l0.4-2.6h4.3V39.2z M489.2,35.1c1.4,0,2.4-0.4,2.9-1.3c0.6-0.9,0.9-2.2,0.9-4.2V29
		c0-2.2-0.3-3.7-0.9-4.7c-0.6-1-1.6-1.4-3-1.4c-2.4,0-3.6,2.1-3.6,6.2c0,2,0.3,3.6,0.9,4.6C487,34.6,487.9,35.1,489.2,35.1z"/>
	<path class="st0" d="M519.5,39.2c0,2.9-0.8,5.1-2.4,6.7c-1.6,1.5-3.9,2.3-7,2.3c-2.7,0-5.1-0.4-7-1.2v-4.4c2.3,1,4.7,1.6,7.3,1.6
		c2.6,0,3.9-1.5,3.9-4.6V39l0.2-2.5h-0.2c-1.2,2-3,3-5.3,3c-2.2,0-4-0.9-5.2-2.8c-1.2-1.9-1.9-4.4-1.9-7.7c0-3.3,0.6-5.9,1.9-7.8
		c1.3-1.9,3-2.8,5.3-2.8c2.3,0,4.1,1,5.4,3h0.1l0.4-2.6h4.3V39.2z M510.9,35.1c1.4,0,2.4-0.4,2.9-1.3c0.6-0.9,0.9-2.2,0.9-4.2V29
		c0-2.2-0.3-3.7-0.9-4.7c-0.6-1-1.6-1.4-3-1.4c-2.4,0-3.6,2.1-3.6,6.2c0,2,0.3,3.6,0.9,4.6C508.7,34.6,509.6,35.1,510.9,35.1z"/>
	<path class="st0" d="M538.1,39.1l-0.7-2.6h-0.3c-0.5,0.9-1.3,1.7-2.3,2.2c-1,0.5-2.1,0.8-3.4,0.8c-2.2,0-3.9-0.6-5-1.9
		c-1.1-1.3-1.7-3.1-1.7-5.5V18.8h5.1v11.9c0,1.5,0.2,2.6,0.7,3.3c0.5,0.7,1.2,1.1,2.3,1.1c1.4,0,2.5-0.5,3.1-1.6c0.6-1,1-2.8,1-5.2
		v-9.6h5.1v20.4H538.1z"/>
	<path class="st0" d="M564.6,39.1h-5.1V27.2c0-1.5-0.2-2.6-0.7-3.3c-0.5-0.7-1.2-1.1-2.3-1.1c-1.4,0-2.5,0.5-3.1,1.6
		c-0.6,1-1,2.8-1,5.2v9.6h-5.1V18.8h3.9l0.7,2.6h0.3c0.6-1,1.4-1.7,2.4-2.2s2.1-0.8,3.4-0.8c2.2,0,3.8,0.6,5,1.9
		c1.1,1.3,1.7,3.1,1.7,5.5V39.1z"/>
	<path class="st0" d="M581.8,39.1l-1-2.8h-0.1c-0.9,1.2-1.7,2-2.7,2.5c-0.9,0.5-2.1,0.7-3.6,0.7c-1.8,0-3.2-0.6-4.2-1.7
		c-1-1.1-1.5-2.7-1.5-4.8c0-2.2,0.7-3.8,2.1-4.8s3.5-1.6,6.3-1.7l3.2-0.1v-0.9c0-2.1-1-3.1-2.9-3.1c-1.5,0-3.3,0.5-5.3,1.5l-1.7-3.8
		c2.2-1.2,4.5-1.8,7.2-1.8c2.5,0,4.4,0.6,5.8,1.8c1.3,1.2,2,3,2,5.4v13.6H581.8z M580.3,29.7l-2,0.1c-1.5,0-2.6,0.3-3.3,0.9
		c-0.7,0.5-1.1,1.3-1.1,2.4c0,1.6,0.8,2.4,2.5,2.4c1.2,0,2.1-0.4,2.8-1.1c0.7-0.7,1.1-1.7,1.1-3V29.7z"/>
	<path class="st0" d="M605.5,39.5c-2.2,0-3.9-0.9-5.2-2.8c-1.3-1.9-1.9-4.4-1.9-7.7c0-3.3,0.6-5.9,1.9-7.8c1.3-1.9,3-2.8,5.3-2.8
		c2.4,0,4.2,1,5.4,3h0.2c-0.3-1.5-0.4-2.9-0.4-4.1v-6.5h5.1v28.3H612l-1-2.6h-0.2C609.6,38.5,607.8,39.5,605.5,39.5z M607.2,35.1
		c1.3,0,2.3-0.4,2.9-1.2c0.6-0.8,0.9-2.2,1-4.2V29c0-2.2-0.3-3.8-0.9-4.7c-0.6-0.9-1.6-1.4-3-1.4c-1.1,0-2,0.5-2.7,1.6
		c-0.6,1.1-0.9,2.6-0.9,4.6s0.3,3.5,1,4.5C605.1,34.6,606.1,35.1,607.2,35.1z"/>
	<path class="st0" d="M621,13.5c0-1.8,0.9-2.7,2.8-2.7c1.9,0,2.8,0.9,2.8,2.7c0,0.9-0.2,1.5-0.7,2c-0.5,0.5-1.2,0.7-2.1,0.7
		C621.9,16.2,621,15.3,621,13.5z M626.3,39.1h-5.1V18.8h5.1V39.1z"/>
	<path class="st0" d="M640.4,13.5c0-1.8,0.9-2.7,2.8-2.7c1.9,0,2.8,0.9,2.8,2.7c0,0.9-0.2,1.5-0.7,2c-0.5,0.5-1.2,0.7-2.1,0.7
		C641.3,16.2,640.4,15.3,640.4,13.5z M645.7,39.1h-5.1V18.8h5.1V39.1z"/>
	<path class="st0" d="M661.3,39.5c-2.2,0-3.9-0.9-5.2-2.6h-0.3c0.2,1.7,0.3,2.7,0.3,3v8.3h-5.1V18.8h4.2l0.7,2.6h0.2
		c1.2-2,3-3,5.3-3c2.2,0,3.9,0.9,5.2,2.8s1.9,4.4,1.9,7.7c0,2.2-0.3,4.1-0.9,5.7c-0.6,1.6-1.4,2.8-2.5,3.7
		C664.1,39.1,662.8,39.5,661.3,39.5z M659.8,22.8c-1.3,0-2.2,0.4-2.8,1.3c-0.6,0.8-0.9,2.2-0.9,4.2v0.6c0,2.2,0.3,3.8,0.9,4.7
		c0.6,0.9,1.5,1.4,2.8,1.4c2.3,0,3.4-2.1,3.4-6.2c0-2-0.3-3.5-0.8-4.5S661,22.8,659.8,22.8z"/>
	<path class="st0" d="M683.2,18.4c0.7,0,1.3,0.1,1.7,0.2l-0.4,5.2c-0.4-0.1-0.9-0.2-1.5-0.2c-1.6,0-2.9,0.5-3.8,1.4
		c-0.9,0.9-1.4,2.2-1.4,3.8v10.4h-5.1V18.8h3.9l0.8,3.4h0.3c0.6-1.1,1.4-2.1,2.4-2.8C681,18.7,682.1,18.4,683.2,18.4z"/>
	<path class="st0" d="M688.1,13.5c0-1.8,0.9-2.7,2.8-2.7c1.9,0,2.8,0.9,2.8,2.7c0,0.9-0.2,1.5-0.7,2c-0.5,0.5-1.2,0.7-2.1,0.7
		C689,16.2,688.1,15.3,688.1,13.5z M693.4,39.1h-5.1V18.8h5.1V39.1z"/>
	<path class="st0" d="M706.4,39.5c-5.8,0-8.7-3.5-8.7-10.4c0-3.5,0.8-6.1,2.4-7.9s3.9-2.7,6.8-2.7c2.2,0,4.1,0.5,5.8,1.4l-1.5,4.3
		c-0.8-0.4-1.6-0.6-2.2-0.9c-0.7-0.2-1.4-0.3-2.1-0.3c-2.7,0-4,2.1-4,6.2c0,4,1.3,6,4,6c1,0,1.9-0.1,2.7-0.4
		c0.8-0.3,1.7-0.7,2.5-1.3V38c-0.8,0.6-1.7,1-2.5,1.2C708.8,39.4,707.7,39.5,706.4,39.5z"/>
	<path class="st0" d="M724.9,39.5c-3,0-5.4-0.9-7.1-2.7c-1.7-1.8-2.5-4.4-2.5-7.7c0-3.4,0.8-6.1,2.4-7.9c1.6-1.9,3.7-2.8,6.5-2.8
		c2.6,0,4.7,0.8,6.2,2.5c1.5,1.6,2.2,3.9,2.2,6.8v2.7h-12.1c0.1,1.6,0.5,2.8,1.3,3.7c0.8,0.9,1.9,1.3,3.4,1.3c1.1,0,2.2-0.1,3.2-0.4
		c1-0.3,2.1-0.7,3.1-1.2v4.3c-0.9,0.5-1.8,0.8-2.9,1.1S726.4,39.5,724.9,39.5z M724.2,22.3c-1.1,0-1.9,0.4-2.5,1.1
		c-0.6,0.7-1,1.8-1.1,3.2h7.2c0-1.4-0.4-2.4-1-3.2C726.1,22.7,725.3,22.3,724.2,22.3z"/>
	<path class="st0" d="M736,21.5c0-1,0.3-1.8,0.8-2.3c0.5-0.5,1.2-0.8,2.2-0.8c0.9,0,1.6,0.3,2.2,0.8c0.5,0.5,0.8,1.3,0.8,2.3
		c0,1-0.3,1.7-0.8,2.3c-0.5,0.5-1.2,0.8-2.1,0.8c-0.9,0-1.7-0.3-2.2-0.8C736.2,23.2,736,22.5,736,21.5z M736,36.5
		c0-1,0.3-1.8,0.8-2.3c0.5-0.5,1.2-0.8,2.2-0.8c0.9,0,1.6,0.3,2.2,0.8c0.5,0.5,0.8,1.3,0.8,2.3c0,1-0.3,1.7-0.8,2.3
		c-0.5,0.6-1.2,0.8-2.1,0.8c-0.9,0-1.7-0.3-2.2-0.8C736.2,38.3,736,37.5,736,36.5z"/>
	<path class="st0" d="M337.7,78.5l-5.9-20.9h-0.2c0.2,4.3,0.3,7.1,0.3,8.5v12.4h-4.6V51.9h7.1l5.8,20.4h0.1l6.1-20.4h7.1v26.6h-4.8
		V65.9c0-0.6,0-1.3,0-2.1s0.1-2.8,0.2-6.2h-0.2l-6.3,20.9H337.7z"/>
	<path class="st0" d="M367.7,78.9c-3,0-5.4-0.9-7.1-2.7c-1.7-1.8-2.5-4.4-2.5-7.7c0-3.4,0.8-6.1,2.4-7.9c1.6-1.9,3.7-2.8,6.5-2.8
		c2.6,0,4.7,0.8,6.2,2.5c1.5,1.6,2.2,3.9,2.2,6.8v2.7h-12.1c0.1,1.6,0.5,2.8,1.3,3.7c0.8,0.9,1.9,1.3,3.4,1.3c1.1,0,2.2-0.1,3.2-0.4
		c1-0.3,2.1-0.7,3.1-1.2v4.3c-0.9,0.5-1.8,0.8-2.9,1.1S369.2,78.9,367.7,78.9z M367,61.7c-1.1,0-1.9,0.4-2.5,1.1
		c-0.6,0.7-1,1.8-1.1,3.2h7.2c0-1.4-0.4-2.4-1-3.2C369,62.1,368.1,61.7,367,61.7z"/>
	<path class="st0" d="M396.8,78.5h-5.1V66.6c0-1.5-0.2-2.6-0.7-3.3c-0.5-0.7-1.2-1.1-2.3-1.1c-1.4,0-2.5,0.5-3.1,1.6
		c-0.6,1-1,2.8-1,5.2v9.6h-5.1V58.1h3.9l0.7,2.6h0.3c0.6-1,1.4-1.7,2.4-2.2s2.1-0.8,3.4-0.8c2.2,0,3.8,0.6,5,1.9
		c1.1,1.3,1.7,3.1,1.7,5.5V78.5z"/>
	<path class="st0" d="M410.5,78.9c-3,0-5.4-0.9-7.1-2.7c-1.7-1.8-2.5-4.4-2.5-7.7c0-3.4,0.8-6.1,2.4-7.9c1.6-1.9,3.7-2.8,6.5-2.8
		c2.6,0,4.7,0.8,6.2,2.5c1.5,1.6,2.2,3.9,2.2,6.8v2.7h-12.1c0.1,1.6,0.5,2.8,1.3,3.7c0.8,0.9,1.9,1.3,3.4,1.3c1.1,0,2.2-0.1,3.2-0.4
		c1-0.3,2.1-0.7,3.1-1.2v4.3c-0.9,0.5-1.8,0.8-2.9,1.1S412,78.9,410.5,78.9z M409.8,61.7c-1.1,0-1.9,0.4-2.5,1.1
		c-0.6,0.7-1,1.8-1.1,3.2h7.2c0-1.4-0.4-2.4-1-3.2C411.8,62.1,410.9,61.7,409.8,61.7z"/>
	<path class="st0" d="M439.1,78.5H434V66.6c0-1.5-0.2-2.6-0.7-3.3c-0.5-0.7-1.2-1.1-2.1-1.1c-1.3,0-2.3,0.5-2.8,1.6
		s-0.9,2.8-0.9,5.2v9.6h-5.1V58.1h3.9l0.7,2.6h0.3c0.5-0.9,1.2-1.7,2.2-2.2s2-0.8,3.3-0.8c2.8,0,4.7,1,5.7,3h0.5
		c0.5-0.9,1.2-1.7,2.2-2.2c1-0.5,2.1-0.8,3.3-0.8c2.1,0,3.7,0.6,4.8,1.8c1.1,1.2,1.6,3.1,1.6,5.7v13.3h-5.1V66.6
		c0-1.5-0.2-2.6-0.7-3.3c-0.5-0.7-1.2-1.1-2.1-1.1c-1.3,0-2.2,0.5-2.8,1.5c-0.6,1-0.9,2.5-0.9,4.6V78.5z"/>
	<path class="st0" d="M469.3,78.5l-0.7-2.6h-0.3c-0.5,0.9-1.3,1.7-2.3,2.2c-1,0.5-2.1,0.8-3.4,0.8c-2.2,0-3.9-0.6-5-1.9
		c-1.1-1.3-1.7-3.1-1.7-5.5V58.1h5.1V70c0,1.5,0.2,2.6,0.7,3.3c0.5,0.7,1.2,1.1,2.3,1.1c1.4,0,2.5-0.5,3.1-1.6c0.6-1,1-2.8,1-5.2
		v-9.6h5.1v20.4H469.3z"/>
	<path class="st0" d="M483.4,67.4l2.2-3.1l5.2-6.2h5.8l-7.4,8.8l7.9,11.5h-5.9l-5.4-8.3l-2.2,1.9v6.3h-5.1V50.2h5.1v12.6L483.4,67.4
		L483.4,67.4z"/>
	<path class="st0" d="M511.7,78.5l-1-2.8h-0.1c-0.9,1.2-1.7,2-2.7,2.5c-0.9,0.5-2.1,0.7-3.6,0.7c-1.8,0-3.2-0.6-4.2-1.7
		c-1-1.1-1.5-2.7-1.5-4.8c0-2.2,0.7-3.8,2.1-4.8s3.5-1.6,6.3-1.7l3.2-0.1v-0.9c0-2.1-1-3.1-2.9-3.1c-1.5,0-3.3,0.5-5.3,1.5l-1.7-3.8
		c2.2-1.2,4.5-1.8,7.2-1.8c2.5,0,4.4,0.6,5.8,1.8c1.3,1.2,2,3,2,5.4v13.6H511.7z M510.2,69.1l-2,0.1c-1.5,0-2.6,0.3-3.3,0.9
		c-0.7,0.5-1.1,1.3-1.1,2.4c0,1.6,0.8,2.4,2.5,2.4c1.2,0,2.1-0.4,2.8-1.1c0.7-0.7,1.1-1.7,1.1-3V69.1z"/>
	<path class="st0" d="M537.8,78.5h-5.1V66.6c0-1.5-0.2-2.6-0.7-3.3c-0.5-0.7-1.2-1.1-2.3-1.1c-1.4,0-2.5,0.5-3.1,1.6
		c-0.6,1-1,2.8-1,5.2v9.6h-5.1V58.1h3.9l0.7,2.6h0.3c0.6-1,1.4-1.7,2.4-2.2s2.1-0.8,3.4-0.8c2.2,0,3.8,0.6,5,1.9
		c1.1,1.3,1.7,3.1,1.7,5.5V78.5z"/>
	<path class="st0" d="M569.3,60.2c0,2.9-0.8,5.1-2.5,6.6c-1.6,1.5-4,2.3-7,2.3h-2.2v9.5h-5.2V51.9h7.8c3,0,5.2,0.7,6.8,2.1
		S569.3,57.4,569.3,60.2z M557.5,64.4h1.7c1.6,0,2.8-0.3,3.6-1c0.8-0.7,1.2-1.7,1.2-3c0-1.3-0.3-2.3-1-2.9c-0.7-0.6-1.7-0.9-3.1-0.9
		h-2.4V64.4z"/>
	<path class="st0" d="M583.9,57.8c0.7,0,1.3,0.1,1.7,0.2l-0.4,5.2c-0.4-0.1-0.9-0.2-1.5-0.2c-1.6,0-2.9,0.5-3.8,1.4
		c-0.9,0.9-1.4,2.2-1.4,3.8v10.4h-5.1V58.1h3.9l0.8,3.4h0.3c0.6-1.1,1.4-2.1,2.4-2.8C581.7,58.1,582.8,57.8,583.9,57.8z"/>
	<path class="st0" d="M605.7,68.3c0,3.3-0.8,5.9-2.4,7.8s-3.8,2.8-6.7,2.8c-1.8,0-3.4-0.4-4.8-1.3c-1.4-0.9-2.4-2.1-3.2-3.7
		c-0.7-1.6-1.1-3.5-1.1-5.6c0-3.3,0.8-5.9,2.4-7.8c1.6-1.8,3.8-2.8,6.7-2.8c1.8,0,3.4,0.4,4.8,1.3c1.4,0.9,2.4,2.1,3.2,3.7
		C605.4,64.3,605.7,66.1,605.7,68.3z M592.8,68.3c0,2,0.3,3.5,0.9,4.6s1.6,1.5,3,1.5c1.4,0,2.3-0.5,2.9-1.5c0.6-1,0.9-2.6,0.9-4.6
		c0-2-0.3-3.5-0.9-4.5c-0.6-1-1.6-1.5-3-1.5c-1.4,0-2.3,0.5-2.9,1.5S592.8,66.3,592.8,68.3z"/>
	<path class="st0" d="M615.9,78.9c-2.2,0-3.9-0.9-5.2-2.8c-1.3-1.9-1.9-4.4-1.9-7.7c0-3.3,0.6-5.9,1.9-7.8c1.3-1.9,3-2.8,5.3-2.8
		c2.4,0,4.2,1,5.4,3h0.2c-0.3-1.5-0.4-2.9-0.4-4.1v-6.5h5.1v28.3h-3.9l-1-2.6h-0.2C620,77.9,618.3,78.9,615.9,78.9z M617.7,74.4
		c1.3,0,2.3-0.4,2.9-1.2c0.6-0.8,0.9-2.2,1-4.2v-0.6c0-2.2-0.3-3.8-0.9-4.7c-0.6-0.9-1.6-1.4-3-1.4c-1.1,0-2,0.5-2.7,1.6
		c-0.6,1.1-0.9,2.6-0.9,4.6s0.3,3.5,1,4.5C615.6,73.9,616.5,74.4,617.7,74.4z"/>
	<path class="st0" d="M644.9,78.5l-0.7-2.6H644c-0.5,0.9-1.3,1.7-2.3,2.2c-1,0.5-2.1,0.8-3.4,0.8c-2.2,0-3.9-0.6-5-1.9
		c-1.1-1.3-1.7-3.1-1.7-5.5V58.1h5.1V70c0,1.5,0.2,2.6,0.7,3.3c0.5,0.7,1.2,1.1,2.3,1.1c1.4,0,2.5-0.5,3.1-1.6c0.6-1,1-2.8,1-5.2
		v-9.6h5.1v20.4H644.9z"/>
	<path class="st0" d="M659.1,67.4l2.2-3.1l5.2-6.2h5.8l-7.4,8.8l7.9,11.5h-5.9l-5.4-8.3l-2.2,1.9v6.3h-5.1V50.2h5.1v12.6L659.1,67.4
		L659.1,67.4z"/>
</g>
<g>
	<path class="st1" d="M448.4,188.4l-0.7-2.3h-3.3l-0.7,2.3h-2.1l3.2-9.9h2.4l3.2,9.9H448.4z M447.3,184.3c-0.6-2.1-1-3.3-1-3.6
		s-0.1-0.5-0.2-0.7c-0.1,0.6-0.5,2-1.2,4.3H447.3z"/>
	<path class="st1" d="M455.3,188.6c-0.8,0-1.5-0.3-1.9-1h-0.1c0.1,0.6,0.1,1,0.1,1.1v3.1h-1.9v-10.9h1.5l0.3,1h0.1
		c0.4-0.7,1.1-1.1,2-1.1c0.8,0,1.5,0.3,1.9,1c0.5,0.7,0.7,1.6,0.7,2.9c0,0.8-0.1,1.5-0.3,2.1c-0.2,0.6-0.5,1-0.9,1.4
		C456.3,188.4,455.9,188.6,455.3,188.6z M454.8,182.4c-0.5,0-0.8,0.2-1,0.5s-0.3,0.8-0.3,1.5v0.2c0,0.8,0.1,1.4,0.3,1.7
		c0.2,0.4,0.6,0.5,1.1,0.5c0.8,0,1.3-0.8,1.3-2.3c0-0.7-0.1-1.3-0.3-1.7S455.2,182.4,454.8,182.4z"/>
	<path class="st1" d="M464,188.4l-0.4-1h0c-0.3,0.4-0.6,0.7-1,0.9c-0.3,0.2-0.8,0.3-1.3,0.3c-0.7,0-1.2-0.2-1.6-0.6
		c-0.4-0.4-0.6-1-0.6-1.8c0-0.8,0.3-1.4,0.8-1.8c0.5-0.4,1.3-0.6,2.3-0.6l1.2,0v-0.3c0-0.8-0.4-1.1-1.1-1.1c-0.6,0-1.2,0.2-2,0.5
		l-0.6-1.4c0.8-0.5,1.7-0.7,2.7-0.7c0.9,0,1.6,0.2,2.1,0.7c0.5,0.4,0.7,1.1,0.7,2v5H464z M463.4,184.9l-0.7,0c-0.5,0-1,0.1-1.2,0.3
		c-0.3,0.2-0.4,0.5-0.4,0.9c0,0.6,0.3,0.9,0.9,0.9c0.4,0,0.8-0.1,1.1-0.4s0.4-0.6,0.4-1.1V184.9z"/>
	<path class="st1" d="M470.4,178.9c0-0.7,0.3-1,1-1c0.7,0,1,0.3,1,1c0,0.3-0.1,0.6-0.3,0.7c-0.2,0.2-0.4,0.3-0.8,0.3
		C470.8,179.9,470.4,179.6,470.4,178.9z M472.4,188.4h-1.9v-7.5h1.9V188.4z"/>
	<path class="st1" d="M477.3,186.9c0.3,0,0.7-0.1,1.2-0.2v1.5c-0.5,0.2-1,0.3-1.7,0.3c-0.8,0-1.3-0.2-1.7-0.6
		c-0.3-0.4-0.5-1-0.5-1.9v-3.6h-0.9v-0.9l1-0.7l0.5-1.6h1.2v1.6h1.9v1.5h-1.9v3.6c0,0.3,0.1,0.5,0.2,0.6
		C476.9,186.8,477.1,186.9,477.3,186.9z"/>
	<path class="st1" d="M484.8,188.4l-0.3-1h-0.1c-0.2,0.4-0.5,0.6-0.9,0.8c-0.4,0.2-0.8,0.3-1.3,0.3c-0.8,0-1.4-0.2-1.8-0.7
		s-0.6-1.2-0.6-2v-4.9h1.9v4.4c0,0.5,0.1,1,0.3,1.2c0.2,0.3,0.5,0.4,0.8,0.4c0.5,0,0.9-0.2,1.1-0.6s0.4-1,0.4-1.9v-3.5h1.9v7.5
		H484.8z"/>
	<path class="st1" d="M491.5,178.9c0-0.7,0.3-1,1-1c0.7,0,1,0.3,1,1c0,0.3-0.1,0.6-0.3,0.7c-0.2,0.2-0.4,0.3-0.8,0.3
		C491.8,179.9,491.5,179.6,491.5,178.9z M493.4,188.4h-1.9v-7.5h1.9V188.4z"/>
	<path class="st1" d="M499.2,188.6c-0.8,0-1.5-0.3-1.9-1h-0.1c0.1,0.6,0.1,1,0.1,1.1v3.1h-1.9v-10.9h1.5l0.3,1h0.1
		c0.4-0.7,1.1-1.1,2-1.1c0.8,0,1.5,0.3,1.9,1c0.5,0.7,0.7,1.6,0.7,2.9c0,0.8-0.1,1.5-0.3,2.1c-0.2,0.6-0.5,1-0.9,1.4
		C500.3,188.4,499.8,188.6,499.2,188.6z M498.7,182.4c-0.5,0-0.8,0.2-1,0.5s-0.3,0.8-0.3,1.5v0.2c0,0.8,0.1,1.4,0.3,1.7
		c0.2,0.4,0.6,0.5,1.1,0.5c0.8,0,1.3-0.8,1.3-2.3c0-0.7-0.1-1.3-0.3-1.7S499.1,182.4,498.7,182.4z"/>
	<path class="st1" d="M507.3,180.7c0.3,0,0.5,0,0.6,0.1l-0.1,1.9c-0.2,0-0.3-0.1-0.6-0.1c-0.6,0-1.1,0.2-1.4,0.5
		c-0.3,0.3-0.5,0.8-0.5,1.4v3.8h-1.9v-7.5h1.4l0.3,1.3h0.1c0.2-0.4,0.5-0.8,0.9-1C506.5,180.9,506.9,180.7,507.3,180.7z"/>
	<path class="st1" d="M509.2,178.9c0-0.7,0.3-1,1-1c0.7,0,1,0.3,1,1c0,0.3-0.1,0.6-0.3,0.7c-0.2,0.2-0.4,0.3-0.8,0.3
		C509.5,179.9,509.2,179.6,509.2,178.9z M511.1,188.4h-1.9v-7.5h1.9V188.4z"/>
	<path class="st1" d="M515.9,188.6c-2.2,0-3.2-1.3-3.2-3.9c0-1.3,0.3-2.3,0.9-2.9c0.6-0.7,1.4-1,2.5-1c0.8,0,1.5,0.2,2.2,0.5
		l-0.6,1.6c-0.3-0.1-0.6-0.2-0.8-0.3c-0.3-0.1-0.5-0.1-0.8-0.1c-1,0-1.5,0.8-1.5,2.3c0,1.5,0.5,2.2,1.5,2.2c0.4,0,0.7-0.1,1-0.2
		c0.3-0.1,0.6-0.3,0.9-0.5v1.8c-0.3,0.2-0.6,0.4-0.9,0.4C516.8,188.5,516.4,188.6,515.9,188.6z"/>
	<path class="st1" d="M522.8,188.6c-1.1,0-2-0.3-2.6-1c-0.6-0.7-0.9-1.6-0.9-2.8c0-1.3,0.3-2.2,0.9-2.9c0.6-0.7,1.4-1,2.4-1
		c1,0,1.7,0.3,2.3,0.9c0.5,0.6,0.8,1.4,0.8,2.5v1h-4.5c0,0.6,0.2,1,0.5,1.4c0.3,0.3,0.7,0.5,1.3,0.5c0.4,0,0.8,0,1.2-0.1
		c0.4-0.1,0.8-0.2,1.2-0.5v1.6c-0.3,0.2-0.7,0.3-1.1,0.4S523.3,188.6,522.8,188.6z M522.5,182.2c-0.4,0-0.7,0.1-0.9,0.4
		c-0.2,0.3-0.4,0.7-0.4,1.2h2.7c0-0.5-0.1-0.9-0.4-1.2C523.2,182.3,522.9,182.2,522.5,182.2z"/>
	<path class="st1" d="M527.9,185.1v-0.5c0-0.4,0.1-0.8,0.3-1.1s0.5-0.7,0.9-1c0.4-0.3,0.7-0.6,0.9-0.8s0.2-0.4,0.2-0.7
		c0-0.3-0.1-0.5-0.3-0.7s-0.5-0.2-0.8-0.2c-0.6,0-1.3,0.2-2.1,0.7l-0.7-1.5c0.9-0.6,1.9-0.8,2.9-0.8c0.9,0,1.5,0.2,2,0.7
		c0.5,0.4,0.8,1,0.8,1.8c0,0.5-0.1,0.9-0.3,1.3c-0.2,0.4-0.6,0.8-1.2,1.2c-0.4,0.3-0.6,0.6-0.8,0.7s-0.2,0.4-0.2,0.7v0.4H527.9z
		 M527.7,187.5c0-0.4,0.1-0.7,0.3-0.9c0.2-0.2,0.5-0.3,0.8-0.3c0.3,0,0.6,0.1,0.8,0.3c0.2,0.2,0.3,0.5,0.3,0.9
		c0,0.4-0.1,0.6-0.3,0.8s-0.5,0.3-0.8,0.3c-0.3,0-0.6-0.1-0.8-0.3C527.8,188.1,527.7,187.8,527.7,187.5z"/>
	<path class="st0" d="M448.3,203.9c0,0.9-0.3,1.6-0.9,2.1s-1.4,0.8-2.5,0.8c-1,0-1.8-0.2-2.6-0.6v-1.9c0.6,0.3,1.1,0.5,1.6,0.6
		s0.8,0.2,1.2,0.2c0.4,0,0.7-0.1,1-0.3c0.2-0.2,0.3-0.4,0.3-0.8c0-0.2,0-0.4-0.1-0.5s-0.2-0.3-0.4-0.4c-0.2-0.1-0.6-0.4-1.2-0.7
		c-0.6-0.3-1-0.6-1.2-0.8c-0.3-0.3-0.5-0.6-0.7-0.9c-0.2-0.3-0.2-0.8-0.2-1.2c0-0.9,0.3-1.6,0.8-2.1c0.5-0.5,1.3-0.7,2.3-0.7
		c0.5,0,0.9,0.1,1.3,0.2c0.4,0.1,0.9,0.3,1.3,0.5l-0.6,1.6c-0.5-0.2-0.9-0.4-1.2-0.5s-0.6-0.1-0.9-0.1c-0.4,0-0.6,0.1-0.8,0.3
		c-0.2,0.2-0.3,0.4-0.3,0.7c0,0.2,0,0.3,0.1,0.5c0.1,0.1,0.2,0.3,0.4,0.4s0.6,0.4,1.2,0.7c0.8,0.4,1.4,0.9,1.7,1.3
		C448.1,202.7,448.3,203.3,448.3,203.9z"/>
	<path class="st0" d="M452.9,206.8c-1.1,0-2-0.3-2.6-1c-0.6-0.7-0.9-1.6-0.9-2.8c0-1.3,0.3-2.2,0.9-2.9c0.6-0.7,1.4-1,2.4-1
		c1,0,1.7,0.3,2.3,0.9c0.5,0.6,0.8,1.4,0.8,2.5v1h-4.5c0,0.6,0.2,1,0.5,1.4c0.3,0.3,0.7,0.5,1.3,0.5c0.4,0,0.8,0,1.2-0.1
		c0.4-0.1,0.8-0.2,1.2-0.5v1.6c-0.3,0.2-0.7,0.3-1.1,0.4S453.4,206.8,452.9,206.8z M452.6,200.4c-0.4,0-0.7,0.1-0.9,0.4
		c-0.2,0.3-0.4,0.7-0.4,1.2h2.7c0-0.5-0.1-0.9-0.4-1.2C453.3,200.6,453,200.4,452.6,200.4z"/>
	<path class="st0" d="M461.1,199c0.8,0,1.5,0.3,1.9,1s0.7,1.6,0.7,2.9c0,1.2-0.2,2.2-0.7,2.9s-1.1,1-2,1c-0.8,0-1.5-0.3-1.9-1H459
		l-0.3,0.8h-1.4v-10.5h1.9v2.4c0,0.3,0,0.8-0.1,1.5h0.1C459.6,199.3,460.2,199,461.1,199z M460.5,200.6c-0.5,0-0.8,0.2-1,0.5
		s-0.3,0.8-0.3,1.5v0.2c0,0.8,0.1,1.4,0.3,1.7c0.2,0.4,0.6,0.5,1.1,0.5c0.4,0,0.7-0.2,0.9-0.6s0.3-1,0.3-1.7s-0.1-1.3-0.3-1.7
		S460.9,200.6,460.5,200.6z"/>
	<path class="st0" d="M470.2,206.7l-0.3-1h-0.1c-0.2,0.4-0.5,0.6-0.9,0.8c-0.4,0.2-0.8,0.3-1.3,0.3c-0.8,0-1.4-0.2-1.8-0.7
		s-0.6-1.2-0.6-2v-4.9h1.9v4.4c0,0.5,0.1,1,0.3,1.2c0.2,0.3,0.5,0.4,0.8,0.4c0.5,0,0.9-0.2,1.1-0.6s0.4-1,0.4-1.9v-3.5h1.9v7.5
		H470.2z"/>
	<path class="st0" d="M478,206.7l-0.4-1h0c-0.3,0.4-0.6,0.7-1,0.9c-0.3,0.2-0.8,0.3-1.3,0.3c-0.7,0-1.2-0.2-1.6-0.6
		c-0.4-0.4-0.6-1-0.6-1.8c0-0.8,0.3-1.4,0.8-1.8c0.5-0.4,1.3-0.6,2.3-0.6l1.2,0v-0.3c0-0.8-0.4-1.1-1.1-1.1c-0.6,0-1.2,0.2-2,0.5
		l-0.6-1.4c0.8-0.5,1.7-0.7,2.7-0.7c0.9,0,1.6,0.2,2.1,0.7c0.5,0.4,0.7,1.1,0.7,2v5H478z M477.5,203.2l-0.7,0c-0.5,0-1,0.1-1.2,0.3
		c-0.3,0.2-0.4,0.5-0.4,0.9c0,0.6,0.3,0.9,0.9,0.9c0.4,0,0.8-0.1,1.1-0.4s0.4-0.6,0.4-1.1V203.2z"/>
	<path class="st0" d="M487.7,206.7h-1.9v-4.4c0-1.1-0.4-1.6-1.1-1.6c-0.5,0-0.9,0.2-1.1,0.6c-0.2,0.4-0.4,1-0.4,1.9v3.5h-1.9v-10.5
		h1.9v2.1c0,0.2,0,0.6,0,1.2l0,0.6h0.1c0.4-0.7,1.1-1.1,2-1.1c0.8,0,1.4,0.2,1.9,0.7c0.4,0.5,0.6,1.2,0.6,2.1V206.7z"/>
	<path class="st0" d="M496.8,206.8c-0.8,0-1.5-0.3-1.9-1h-0.1c0.1,0.6,0.1,1,0.1,1.1v3.1H493v-10.9h1.5l0.3,1h0.1
		c0.4-0.7,1.1-1.1,2-1.1c0.8,0,1.5,0.3,1.9,1c0.5,0.7,0.7,1.6,0.7,2.9c0,0.8-0.1,1.5-0.3,2.1c-0.2,0.6-0.5,1-0.9,1.4
		C497.8,206.6,497.3,206.8,496.8,206.8z M496.2,200.6c-0.5,0-0.8,0.2-1,0.5s-0.3,0.8-0.3,1.5v0.2c0,0.8,0.1,1.4,0.3,1.7
		c0.2,0.4,0.6,0.5,1.1,0.5c0.8,0,1.3-0.8,1.3-2.3c0-0.7-0.1-1.3-0.3-1.7S496.6,200.6,496.2,200.6z"/>
	<path class="st0" d="M507.3,202.9c0,1.2-0.3,2.2-0.9,2.9c-0.6,0.7-1.4,1-2.5,1c-0.7,0-1.3-0.2-1.8-0.5c-0.5-0.3-0.9-0.8-1.2-1.4
		c-0.3-0.6-0.4-1.3-0.4-2.1c0-1.2,0.3-2.2,0.9-2.9c0.6-0.7,1.4-1,2.5-1c0.7,0,1.3,0.2,1.8,0.5c0.5,0.3,0.9,0.8,1.2,1.4
		C507.2,201.4,507.3,202.1,507.3,202.9z M502.5,202.9c0,0.7,0.1,1.3,0.3,1.7c0.2,0.4,0.6,0.6,1.1,0.6c0.5,0,0.9-0.2,1.1-0.6
		c0.2-0.4,0.3-0.9,0.3-1.7c0-0.7-0.1-1.3-0.3-1.7c-0.2-0.4-0.6-0.6-1.1-0.6c-0.5,0-0.9,0.2-1.1,0.6
		C502.6,201.6,502.5,202.1,502.5,202.9z"/>
	<path class="st0" d="M512.7,199c0.3,0,0.5,0,0.6,0.1l-0.1,1.9c-0.2,0-0.3-0.1-0.6-0.1c-0.6,0-1.1,0.2-1.4,0.5
		c-0.3,0.3-0.5,0.8-0.5,1.4v3.8h-1.9v-7.5h1.4l0.3,1.3h0.1c0.2-0.4,0.5-0.8,0.9-1C511.9,199.1,512.3,199,512.7,199z"/>
	<path class="st0" d="M517.5,205.2c0.3,0,0.7-0.1,1.2-0.2v1.5c-0.5,0.2-1,0.3-1.7,0.3c-0.8,0-1.3-0.2-1.7-0.6
		c-0.3-0.4-0.5-1-0.5-1.9v-3.6h-0.9v-0.9l1-0.7l0.5-1.6h1.2v1.6h1.9v1.5h-1.9v3.6c0,0.3,0.1,0.5,0.2,0.6
		C517.1,205.1,517.3,205.2,517.5,205.2z"/>
	<path class="st0" d="M524.5,206.7l-0.4-1h0c-0.3,0.4-0.6,0.7-1,0.9c-0.3,0.2-0.8,0.3-1.3,0.3c-0.7,0-1.2-0.2-1.6-0.6
		c-0.4-0.4-0.6-1-0.6-1.8c0-0.8,0.3-1.4,0.8-1.8c0.5-0.4,1.3-0.6,2.3-0.6l1.2,0v-0.3c0-0.8-0.4-1.1-1.1-1.1c-0.6,0-1.2,0.2-2,0.5
		l-0.6-1.4c0.8-0.5,1.7-0.7,2.7-0.7c0.9,0,1.6,0.2,2.1,0.7c0.5,0.4,0.7,1.1,0.7,2v5H524.5z M524,203.2l-0.7,0c-0.5,0-1,0.1-1.2,0.3
		c-0.3,0.2-0.4,0.5-0.4,0.9c0,0.6,0.3,0.9,0.9,0.9c0.4,0,0.8-0.1,1.1-0.4s0.4-0.6,0.4-1.1V203.2z"/>
	<path class="st0" d="M529.7,206.7h-1.9v-10.5h1.9V206.7z"/>
	<path class="st0" d="M538.1,206.8c-1.1,0-2-0.3-2.6-1c-0.6-0.7-0.9-1.6-0.9-2.8c0-1.3,0.3-2.2,0.9-2.9c0.6-0.7,1.4-1,2.4-1
		c1,0,1.7,0.3,2.3,0.9c0.5,0.6,0.8,1.4,0.8,2.5v1h-4.5c0,0.6,0.2,1,0.5,1.4c0.3,0.3,0.7,0.5,1.3,0.5c0.4,0,0.8,0,1.2-0.1
		c0.4-0.1,0.8-0.2,1.2-0.5v1.6c-0.3,0.2-0.7,0.3-1.1,0.4S538.7,206.8,538.1,206.8z M537.9,200.4c-0.4,0-0.7,0.1-0.9,0.4
		c-0.2,0.3-0.4,0.7-0.4,1.2h2.7c0-0.5-0.1-0.9-0.4-1.2C538.6,200.6,538.3,200.4,537.9,200.4z"/>
	<path class="st0" d="M541.9,203.8v-1.7h3.3v1.7H541.9z"/>
	<path class="st0" d="M549.4,206.8c-2.2,0-3.2-1.3-3.2-3.9c0-1.3,0.3-2.3,0.9-2.9c0.6-0.7,1.4-1,2.5-1c0.8,0,1.5,0.2,2.2,0.5
		l-0.6,1.6c-0.3-0.1-0.6-0.2-0.8-0.3c-0.3-0.1-0.5-0.1-0.8-0.1c-1,0-1.5,0.8-1.5,2.3c0,1.5,0.5,2.2,1.5,2.2c0.4,0,0.7-0.1,1-0.2
		c0.3-0.1,0.6-0.3,0.9-0.5v1.8c-0.3,0.2-0.6,0.4-0.9,0.4C550.3,206.8,549.9,206.8,549.4,206.8z"/>
	<path class="st0" d="M559.4,202.9c0,1.2-0.3,2.2-0.9,2.9c-0.6,0.7-1.4,1-2.5,1c-0.7,0-1.3-0.2-1.8-0.5c-0.5-0.3-0.9-0.8-1.2-1.4
		c-0.3-0.6-0.4-1.3-0.4-2.1c0-1.2,0.3-2.2,0.9-2.9c0.6-0.7,1.4-1,2.5-1c0.7,0,1.3,0.2,1.8,0.5c0.5,0.3,0.9,0.8,1.2,1.4
		C559.3,201.4,559.4,202.1,559.4,202.9z M554.6,202.9c0,0.7,0.1,1.3,0.3,1.7c0.2,0.4,0.6,0.6,1.1,0.6c0.5,0,0.9-0.2,1.1-0.6
		c0.2-0.4,0.3-0.9,0.3-1.7c0-0.7-0.1-1.3-0.3-1.7c-0.2-0.4-0.6-0.6-1.1-0.6c-0.5,0-0.9,0.2-1.1,0.6
		C554.7,201.6,554.6,202.1,554.6,202.9z"/>
	<path class="st0" d="M567.2,206.7h-1.9v-4.4c0-0.5-0.1-1-0.3-1.2c-0.2-0.3-0.4-0.4-0.8-0.4c-0.5,0-0.8,0.2-1.1,0.6
		c-0.2,0.4-0.3,1-0.3,1.9v3.5H561v-7.5h1.4l0.3,1h0.1c0.2-0.3,0.5-0.6,0.8-0.8c0.4-0.2,0.8-0.3,1.2-0.3c1,0,1.7,0.4,2.1,1.1h0.2
		c0.2-0.4,0.5-0.6,0.8-0.8c0.4-0.2,0.8-0.3,1.2-0.3c0.8,0,1.4,0.2,1.8,0.7s0.6,1.1,0.6,2.1v4.9h-1.9v-4.4c0-0.5-0.1-1-0.3-1.2
		c-0.2-0.3-0.4-0.4-0.8-0.4c-0.5,0-0.8,0.2-1,0.5s-0.3,0.9-0.3,1.7V206.7z"/>
	<path class="st0" d="M579.6,206.7h-1.9v-4.4c0-0.5-0.1-1-0.3-1.2c-0.2-0.3-0.4-0.4-0.8-0.4c-0.5,0-0.8,0.2-1.1,0.6
		c-0.2,0.4-0.3,1-0.3,1.9v3.5h-1.9v-7.5h1.4l0.3,1h0.1c0.2-0.3,0.5-0.6,0.8-0.8c0.4-0.2,0.8-0.3,1.2-0.3c1,0,1.7,0.4,2.1,1.1h0.2
		c0.2-0.4,0.5-0.6,0.8-0.8c0.4-0.2,0.8-0.3,1.2-0.3c0.8,0,1.4,0.2,1.8,0.7s0.6,1.1,0.6,2.1v4.9h-1.9v-4.4c0-0.5-0.1-1-0.3-1.2
		c-0.2-0.3-0.4-0.4-0.8-0.4c-0.5,0-0.8,0.2-1,0.5s-0.3,0.9-0.3,1.7V206.7z"/>
	<path class="st0" d="M589,206.8c-1.1,0-2-0.3-2.6-1c-0.6-0.7-0.9-1.6-0.9-2.8c0-1.3,0.3-2.2,0.9-2.9c0.6-0.7,1.4-1,2.4-1
		c1,0,1.7,0.3,2.3,0.9c0.5,0.6,0.8,1.4,0.8,2.5v1h-4.5c0,0.6,0.2,1,0.5,1.4c0.3,0.3,0.7,0.5,1.3,0.5c0.4,0,0.8,0,1.2-0.1
		c0.4-0.1,0.8-0.2,1.2-0.5v1.6c-0.3,0.2-0.7,0.3-1.1,0.4S589.6,206.8,589,206.8z M588.8,200.4c-0.4,0-0.7,0.1-0.9,0.4
		c-0.2,0.3-0.4,0.7-0.4,1.2h2.7c0-0.5-0.1-0.9-0.4-1.2C589.5,200.6,589.2,200.4,588.8,200.4z"/>
	<path class="st0" d="M597.3,199c0.3,0,0.5,0,0.6,0.1l-0.1,1.9c-0.2,0-0.3-0.1-0.6-0.1c-0.6,0-1.1,0.2-1.4,0.5
		c-0.3,0.3-0.5,0.8-0.5,1.4v3.8h-1.9v-7.5h1.4l0.3,1.3h0.1c0.2-0.4,0.5-0.8,0.9-1C596.5,199.1,596.9,199,597.3,199z"/>
	<path class="st0" d="M601.9,206.8c-2.2,0-3.2-1.3-3.2-3.9c0-1.3,0.3-2.3,0.9-2.9c0.6-0.7,1.4-1,2.5-1c0.8,0,1.5,0.2,2.2,0.5
		l-0.6,1.6c-0.3-0.1-0.6-0.2-0.8-0.3c-0.3-0.1-0.5-0.1-0.8-0.1c-1,0-1.5,0.8-1.5,2.3c0,1.5,0.5,2.2,1.5,2.2c0.4,0,0.7-0.1,1-0.2
		c0.3-0.1,0.6-0.3,0.9-0.5v1.8c-0.3,0.2-0.6,0.4-0.9,0.4C602.7,206.8,602.3,206.8,601.9,206.8z"/>
	<path class="st0" d="M608.7,206.8c-1.1,0-2-0.3-2.6-1c-0.6-0.7-0.9-1.6-0.9-2.8c0-1.3,0.3-2.2,0.9-2.9c0.6-0.7,1.4-1,2.4-1
		c1,0,1.7,0.3,2.3,0.9c0.5,0.6,0.8,1.4,0.8,2.5v1h-4.5c0,0.6,0.2,1,0.5,1.4c0.3,0.3,0.7,0.5,1.3,0.5c0.4,0,0.8,0,1.2-0.1
		c0.4-0.1,0.8-0.2,1.2-0.5v1.6c-0.3,0.2-0.7,0.3-1.1,0.4S609.3,206.8,608.7,206.8z M608.5,200.4c-0.4,0-0.7,0.1-0.9,0.4
		c-0.2,0.3-0.4,0.7-0.4,1.2h2.7c0-0.5-0.1-0.9-0.4-1.2C609.2,200.6,608.9,200.4,608.5,200.4z"/>
	<path class="st0" d="M615.4,199.1h2.1l1.3,4.2c0.1,0.4,0.2,0.8,0.2,1.3h0c0-0.5,0.1-0.9,0.3-1.3l1.3-4.2h2l-2.9,8.5
		c-0.3,0.8-0.7,1.4-1.2,1.8c-0.5,0.4-1.1,0.6-1.7,0.6c-0.3,0-0.6,0-1-0.1v-1.6c0.2,0.1,0.5,0.1,0.7,0.1c0.3,0,0.6-0.1,0.9-0.3
		s0.4-0.6,0.6-1l0.1-0.4L615.4,199.1z"/>
	<path class="st0" d="M628,206.7l-0.4-1h0c-0.3,0.4-0.6,0.7-1,0.9c-0.3,0.2-0.8,0.3-1.3,0.3c-0.7,0-1.2-0.2-1.6-0.6
		c-0.4-0.4-0.6-1-0.6-1.8c0-0.8,0.3-1.4,0.8-1.8c0.5-0.4,1.3-0.6,2.3-0.6l1.2,0v-0.3c0-0.8-0.4-1.1-1.1-1.1c-0.6,0-1.2,0.2-2,0.5
		l-0.6-1.4c0.8-0.5,1.7-0.7,2.7-0.7c0.9,0,1.6,0.2,2.1,0.7c0.5,0.4,0.7,1.1,0.7,2v5H628z M627.5,203.2l-0.7,0c-0.5,0-1,0.1-1.2,0.3
		c-0.3,0.2-0.4,0.5-0.4,0.9c0,0.6,0.3,0.9,0.9,0.9c0.4,0,0.8-0.1,1.1-0.4s0.4-0.6,0.4-1.1V203.2z"/>
	<path class="st0" d="M637.7,206.7h-1.9v-4.4c0-0.5-0.1-1-0.3-1.2c-0.2-0.3-0.5-0.4-0.8-0.4c-0.5,0-0.9,0.2-1.1,0.6s-0.4,1-0.4,1.9
		v3.5h-1.9v-7.5h1.4l0.3,1h0.1c0.2-0.4,0.5-0.6,0.9-0.8c0.4-0.2,0.8-0.3,1.3-0.3c0.8,0,1.4,0.2,1.8,0.7c0.4,0.5,0.6,1.2,0.6,2.1
		V206.7z"/>
	<path class="st0" d="M645.7,206.7c0,1.1-0.3,1.9-0.9,2.5s-1.4,0.8-2.6,0.8c-1,0-1.9-0.1-2.6-0.4v-1.6c0.8,0.4,1.7,0.6,2.7,0.6
		c1,0,1.5-0.6,1.5-1.7v-0.1l0.1-0.9h-0.1c-0.4,0.7-1.1,1.1-2,1.1c-0.8,0-1.5-0.3-1.9-1s-0.7-1.6-0.7-2.8c0-1.2,0.2-2.2,0.7-2.9
		c0.5-0.7,1.1-1,2-1c0.9,0,1.5,0.4,2,1.1h0l0.2-1h1.6V206.7z M642.5,205.2c0.5,0,0.9-0.2,1.1-0.5c0.2-0.3,0.3-0.8,0.3-1.5v-0.2
		c0-0.8-0.1-1.4-0.3-1.7s-0.6-0.5-1.1-0.5c-0.9,0-1.3,0.8-1.3,2.3c0,0.8,0.1,1.3,0.3,1.7C641.7,205,642,205.2,642.5,205.2z"/>
	<path class="st0" d="M657.2,206.7h-1.9v-4.4c0-0.5-0.1-1-0.3-1.2c-0.2-0.3-0.4-0.4-0.8-0.4c-0.5,0-0.8,0.2-1.1,0.6
		c-0.2,0.4-0.3,1-0.3,1.9v3.5H651v-7.5h1.4l0.3,1h0.1c0.2-0.3,0.5-0.6,0.8-0.8c0.4-0.2,0.8-0.3,1.2-0.3c1,0,1.7,0.4,2.1,1.1h0.2
		c0.2-0.4,0.5-0.6,0.8-0.8c0.4-0.2,0.8-0.3,1.2-0.3c0.8,0,1.4,0.2,1.8,0.7s0.6,1.1,0.6,2.1v4.9h-1.9v-4.4c0-0.5-0.1-1-0.3-1.2
		c-0.2-0.3-0.4-0.4-0.8-0.4c-0.5,0-0.8,0.2-1,0.5s-0.3,0.9-0.3,1.7V206.7z"/>
	<path class="st0" d="M666.6,206.8c-1.1,0-2-0.3-2.6-1c-0.6-0.7-0.9-1.6-0.9-2.8c0-1.3,0.3-2.2,0.9-2.9c0.6-0.7,1.4-1,2.4-1
		c1,0,1.7,0.3,2.3,0.9c0.5,0.6,0.8,1.4,0.8,2.5v1h-4.5c0,0.6,0.2,1,0.5,1.4c0.3,0.3,0.7,0.5,1.3,0.5c0.4,0,0.8,0,1.2-0.1
		c0.4-0.1,0.8-0.2,1.2-0.5v1.6c-0.3,0.2-0.7,0.3-1.1,0.4S667.1,206.8,666.6,206.8z M666.3,200.4c-0.4,0-0.7,0.1-0.9,0.4
		c-0.2,0.3-0.4,0.7-0.4,1.2h2.7c0-0.5-0.1-0.9-0.4-1.2C667,200.6,666.7,200.4,666.3,200.4z"/>
	<path class="st0" d="M677.2,206.7h-1.9v-4.4c0-0.5-0.1-1-0.3-1.2c-0.2-0.3-0.4-0.4-0.8-0.4c-0.5,0-0.8,0.2-1.1,0.6
		c-0.2,0.4-0.3,1-0.3,1.9v3.5h-1.9v-7.5h1.4l0.3,1h0.1c0.2-0.3,0.5-0.6,0.8-0.8c0.4-0.2,0.8-0.3,1.2-0.3c1,0,1.7,0.4,2.1,1.1h0.2
		c0.2-0.4,0.5-0.6,0.8-0.8c0.4-0.2,0.8-0.3,1.2-0.3c0.8,0,1.4,0.2,1.8,0.7s0.6,1.1,0.6,2.1v4.9h-1.9v-4.4c0-0.5-0.1-1-0.3-1.2
		c-0.2-0.3-0.4-0.4-0.8-0.4c-0.5,0-0.8,0.2-1,0.5s-0.3,0.9-0.3,1.7V206.7z"/>
	<path class="st0" d="M688.3,206.7l-0.3-1H688c-0.2,0.4-0.5,0.6-0.9,0.8c-0.4,0.2-0.8,0.3-1.3,0.3c-0.8,0-1.4-0.2-1.8-0.7
		s-0.6-1.2-0.6-2v-4.9h1.9v4.4c0,0.5,0.1,1,0.3,1.2c0.2,0.3,0.5,0.4,0.8,0.4c0.5,0,0.9-0.2,1.1-0.6s0.4-1,0.4-1.9v-3.5h1.9v7.5
		H688.3z"/>
	<path class="st0" d="M698.2,206.7h-1.9v-4.4c0-0.5-0.1-1-0.3-1.2c-0.2-0.3-0.5-0.4-0.8-0.4c-0.5,0-0.9,0.2-1.1,0.6s-0.4,1-0.4,1.9
		v3.5h-1.9v-7.5h1.4l0.3,1h0.1c0.2-0.4,0.5-0.6,0.9-0.8c0.4-0.2,0.8-0.3,1.3-0.3c0.8,0,1.4,0.2,1.8,0.7c0.4,0.5,0.6,1.2,0.6,2.1
		V206.7z"/>
	<path class="st0" d="M706.2,206.7c0,1.1-0.3,1.9-0.9,2.5s-1.4,0.8-2.6,0.8c-1,0-1.9-0.1-2.6-0.4v-1.6c0.8,0.4,1.7,0.6,2.7,0.6
		c1,0,1.5-0.6,1.5-1.7v-0.1l0.1-0.9h-0.1c-0.4,0.7-1.1,1.1-2,1.1c-0.8,0-1.5-0.3-1.9-1s-0.7-1.6-0.7-2.8c0-1.2,0.2-2.2,0.7-2.9
		c0.5-0.7,1.1-1,2-1c0.9,0,1.5,0.4,2,1.1h0l0.2-1h1.6V206.7z M703,205.2c0.5,0,0.9-0.2,1.1-0.5c0.2-0.3,0.3-0.8,0.3-1.5v-0.2
		c0-0.8-0.1-1.4-0.3-1.7s-0.6-0.5-1.1-0.5c-0.9,0-1.3,0.8-1.3,2.3c0,0.8,0.1,1.3,0.3,1.7C702.2,205,702.5,205.2,703,205.2z"/>
	<path class="st0" d="M710,202.6l0.8-1.1l1.9-2.3h2.1l-2.8,3.3l2.9,4.3h-2.2l-2-3.1l-0.8,0.7v2.3h-1.9v-10.5h1.9v4.7L710,202.6
		L710,202.6z"/>
	<path class="st0" d="M715.9,197.2c0-0.7,0.3-1,1-1c0.7,0,1,0.3,1,1c0,0.3-0.1,0.6-0.3,0.7c-0.2,0.2-0.4,0.3-0.8,0.3
		C716.3,198.2,715.9,197.8,715.9,197.2z M717.9,206.7H716v-7.5h1.9V206.7z"/>
	<path class="st0" d="M726.3,206.7h-1.9v-4.4c0-0.5-0.1-1-0.3-1.2c-0.2-0.3-0.5-0.4-0.8-0.4c-0.5,0-0.9,0.2-1.1,0.6s-0.4,1-0.4,1.9
		v3.5h-1.9v-7.5h1.4l0.3,1h0.1c0.2-0.4,0.5-0.6,0.9-0.8c0.4-0.2,0.8-0.3,1.3-0.3c0.8,0,1.4,0.2,1.8,0.7c0.4,0.5,0.6,1.2,0.6,2.1
		V206.7z"/>
	<path class="st0" d="M730.1,202.6l0.8-1.1l1.9-2.3h2.1l-2.8,3.3l2.9,4.3h-2.2l-2-3.1l-0.8,0.7v2.3h-1.9v-10.5h1.9v4.7L730.1,202.6
		L730.1,202.6z"/>
	<path class="st0" d="M740.5,206.7l-0.4-1h0c-0.3,0.4-0.6,0.7-1,0.9c-0.3,0.2-0.8,0.3-1.3,0.3c-0.7,0-1.2-0.2-1.6-0.6
		c-0.4-0.4-0.6-1-0.6-1.8c0-0.8,0.3-1.4,0.8-1.8c0.5-0.4,1.3-0.6,2.3-0.6l1.2,0v-0.3c0-0.8-0.4-1.1-1.1-1.1c-0.6,0-1.2,0.2-2,0.5
		l-0.6-1.4c0.8-0.5,1.7-0.7,2.7-0.7c0.9,0,1.6,0.2,2.1,0.7c0.5,0.4,0.7,1.1,0.7,2v5H740.5z M740,203.2l-0.7,0c-0.5,0-1,0.1-1.2,0.3
		c-0.3,0.2-0.4,0.5-0.4,0.9c0,0.6,0.3,0.9,0.9,0.9c0.4,0,0.8-0.1,1.1-0.4s0.4-0.6,0.4-1.1V203.2z"/>
	<path class="st0" d="M750.2,206.7h-1.9v-4.4c0-0.5-0.1-1-0.3-1.2c-0.2-0.3-0.5-0.4-0.8-0.4c-0.5,0-0.9,0.2-1.1,0.6s-0.4,1-0.4,1.9
		v3.5h-1.9v-7.5h1.4l0.3,1h0.1c0.2-0.4,0.5-0.6,0.9-0.8c0.4-0.2,0.8-0.3,1.3-0.3c0.8,0,1.4,0.2,1.8,0.7c0.4,0.5,0.6,1.2,0.6,2.1
		V206.7z"/>
	<path class="st0" d="M447.2,224.9l-0.4-1h0c-0.3,0.4-0.6,0.7-1,0.9c-0.3,0.2-0.8,0.3-1.3,0.3c-0.7,0-1.2-0.2-1.6-0.6
		c-0.4-0.4-0.6-1-0.6-1.8c0-0.8,0.3-1.4,0.8-1.8c0.5-0.4,1.3-0.6,2.3-0.6l1.2,0v-0.3c0-0.8-0.4-1.1-1.1-1.1c-0.6,0-1.2,0.2-2,0.5
		l-0.6-1.4c0.8-0.5,1.7-0.7,2.7-0.7c0.9,0,1.6,0.2,2.1,0.7c0.5,0.4,0.7,1.1,0.7,2v5H447.2z M446.6,221.4l-0.7,0
		c-0.5,0-1,0.1-1.2,0.3c-0.3,0.2-0.4,0.5-0.4,0.9c0,0.6,0.3,0.9,0.9,0.9c0.4,0,0.8-0.1,1.1-0.4s0.4-0.6,0.4-1.1V221.4z"/>
	<path class="st0" d="M456.8,224.9h-1.9v-4.4c0-0.5-0.1-1-0.3-1.2c-0.2-0.3-0.5-0.4-0.8-0.4c-0.5,0-0.9,0.2-1.1,0.6s-0.4,1-0.4,1.9
		v3.5h-1.9v-7.5h1.4l0.3,1h0.1c0.2-0.4,0.5-0.6,0.9-0.8c0.4-0.2,0.8-0.3,1.3-0.3c0.8,0,1.4,0.2,1.8,0.7c0.4,0.5,0.6,1.2,0.6,2.1
		V224.9z"/>
	<path class="st0" d="M461,225c-0.8,0-1.5-0.3-1.9-1c-0.5-0.7-0.7-1.6-0.7-2.9c0-1.2,0.2-2.2,0.7-2.9c0.5-0.7,1.1-1,2-1
		c0.9,0,1.5,0.4,2,1.1h0.1c-0.1-0.6-0.1-1.1-0.1-1.5v-2.4h1.9v10.5h-1.5l-0.4-1h-0.1C462.5,224.7,461.8,225,461,225z M461.6,223.4
		c0.5,0,0.8-0.2,1.1-0.5s0.3-0.8,0.4-1.6v-0.2c0-0.8-0.1-1.4-0.3-1.7c-0.2-0.4-0.6-0.5-1.1-0.5c-0.4,0-0.7,0.2-1,0.6
		c-0.2,0.4-0.3,1-0.3,1.7c0,0.7,0.1,1.3,0.4,1.7C460.9,223.2,461.2,223.4,461.6,223.4z"/>
	<path class="st0" d="M471.2,224.9l-0.4-1h0c-0.3,0.4-0.6,0.7-1,0.9c-0.3,0.2-0.8,0.3-1.3,0.3c-0.7,0-1.2-0.2-1.6-0.6
		c-0.4-0.4-0.6-1-0.6-1.8c0-0.8,0.3-1.4,0.8-1.8c0.5-0.4,1.3-0.6,2.3-0.6l1.2,0v-0.3c0-0.8-0.4-1.1-1.1-1.1c-0.6,0-1.2,0.2-2,0.5
		l-0.6-1.4c0.8-0.5,1.7-0.7,2.7-0.7c0.9,0,1.6,0.2,2.1,0.7c0.5,0.4,0.7,1.1,0.7,2v5H471.2z M470.7,221.4l-0.7,0
		c-0.5,0-1,0.1-1.2,0.3c-0.3,0.2-0.4,0.5-0.4,0.9c0,0.6,0.3,0.9,0.9,0.9c0.4,0,0.8-0.1,1.1-0.4s0.4-0.6,0.4-1.1V221.4z"/>
	<path class="st0" d="M482.7,224.9l-0.3-1h-0.1c-0.2,0.4-0.5,0.6-0.9,0.8c-0.4,0.2-0.8,0.3-1.3,0.3c-0.8,0-1.4-0.2-1.8-0.7
		s-0.6-1.2-0.6-2v-4.9h1.9v4.4c0,0.5,0.1,1,0.3,1.2c0.2,0.3,0.5,0.4,0.8,0.4c0.5,0,0.9-0.2,1.1-0.6s0.4-1,0.4-1.9v-3.5h1.9v7.5
		H482.7z"/>
	<path class="st0" d="M492.5,224.9h-1.9v-4.4c0-0.5-0.1-1-0.3-1.2c-0.2-0.3-0.5-0.4-0.8-0.4c-0.5,0-0.9,0.2-1.1,0.6s-0.4,1-0.4,1.9
		v3.5h-1.9v-7.5h1.4l0.3,1h0.1c0.2-0.4,0.5-0.6,0.9-0.8c0.4-0.2,0.8-0.3,1.3-0.3c0.8,0,1.4,0.2,1.8,0.7c0.4,0.5,0.6,1.2,0.6,2.1
		V224.9z"/>
	<path class="st0" d="M497.4,223.4c0.3,0,0.7-0.1,1.2-0.2v1.5c-0.5,0.2-1,0.3-1.7,0.3c-0.8,0-1.3-0.2-1.7-0.6
		c-0.3-0.4-0.5-1-0.5-1.9v-3.6h-0.9V218l1-0.7l0.5-1.6h1.2v1.6h1.9v1.5h-1.9v3.6c0,0.3,0.1,0.5,0.2,0.6
		C496.9,223.3,497.1,223.4,497.4,223.4z"/>
	<path class="st0" d="M504.9,224.9l-0.3-1h-0.1c-0.2,0.4-0.5,0.6-0.9,0.8c-0.4,0.2-0.8,0.3-1.3,0.3c-0.8,0-1.4-0.2-1.8-0.7
		s-0.6-1.2-0.6-2v-4.9h1.9v4.4c0,0.5,0.1,1,0.3,1.2c0.2,0.3,0.5,0.4,0.8,0.4c0.5,0,0.9-0.2,1.1-0.6s0.4-1,0.4-1.9v-3.5h1.9v7.5
		H504.9z"/>
	<path class="st0" d="M510.2,220.8l0.8-1.1l1.9-2.3h2.1l-2.8,3.3l2.9,4.3H513l-2-3.1l-0.8,0.7v2.3h-1.9v-10.5h1.9v4.7L510.2,220.8
		L510.2,220.8z"/>
	<path class="st0" d="M525.7,224.9h-1.9v-4.4c0-0.5-0.1-1-0.3-1.2c-0.2-0.3-0.4-0.4-0.8-0.4c-0.5,0-0.8,0.2-1.1,0.6
		c-0.2,0.4-0.3,1-0.3,1.9v3.5h-1.9v-7.5h1.4l0.3,1h0.1c0.2-0.3,0.5-0.6,0.8-0.8c0.4-0.2,0.8-0.3,1.2-0.3c1,0,1.7,0.4,2.1,1.1h0.2
		c0.2-0.4,0.5-0.6,0.8-0.8c0.4-0.2,0.8-0.3,1.2-0.3c0.8,0,1.4,0.2,1.8,0.7s0.6,1.1,0.6,2.1v4.9h-1.9v-4.4c0-0.5-0.1-1-0.3-1.2
		c-0.2-0.3-0.4-0.4-0.8-0.4c-0.5,0-0.8,0.2-1,0.5s-0.3,0.9-0.3,1.7V224.9z"/>
	<path class="st0" d="M535.1,225c-1.1,0-2-0.3-2.6-1c-0.6-0.7-0.9-1.6-0.9-2.8c0-1.3,0.3-2.2,0.9-2.9c0.6-0.7,1.4-1,2.4-1
		c1,0,1.7,0.3,2.3,0.9c0.5,0.6,0.8,1.4,0.8,2.5v1h-4.5c0,0.6,0.2,1,0.5,1.4c0.3,0.3,0.7,0.5,1.3,0.5c0.4,0,0.8,0,1.2-0.1
		c0.4-0.1,0.8-0.2,1.2-0.5v1.6c-0.3,0.2-0.7,0.3-1.1,0.4S535.7,225,535.1,225z M534.9,218.7c-0.4,0-0.7,0.1-0.9,0.4
		c-0.2,0.3-0.4,0.7-0.4,1.2h2.7c0-0.5-0.1-0.9-0.4-1.2C535.6,218.8,535.3,218.7,534.9,218.7z"/>
	<path class="st0" d="M545.9,224.9H544v-4.4c0-0.5-0.1-1-0.3-1.2c-0.2-0.3-0.5-0.4-0.8-0.4c-0.5,0-0.9,0.2-1.1,0.6s-0.4,1-0.4,1.9
		v3.5h-1.9v-7.5h1.4l0.3,1h0.1c0.2-0.4,0.5-0.6,0.9-0.8c0.4-0.2,0.8-0.3,1.3-0.3c0.8,0,1.4,0.2,1.8,0.7c0.4,0.5,0.6,1.2,0.6,2.1
		V224.9z"/>
	<path class="st0" d="M551,225c-1.1,0-2-0.3-2.6-1c-0.6-0.7-0.9-1.6-0.9-2.8c0-1.3,0.3-2.2,0.9-2.9c0.6-0.7,1.4-1,2.4-1
		c1,0,1.7,0.3,2.3,0.9c0.5,0.6,0.8,1.4,0.8,2.5v1h-4.5c0,0.6,0.2,1,0.5,1.4c0.3,0.3,0.7,0.5,1.3,0.5c0.4,0,0.8,0,1.2-0.1
		c0.4-0.1,0.8-0.2,1.2-0.5v1.6c-0.3,0.2-0.7,0.3-1.1,0.4S551.5,225,551,225z M550.7,218.7c-0.4,0-0.7,0.1-0.9,0.4
		c-0.2,0.3-0.4,0.7-0.4,1.2h2.7c0-0.5-0.1-0.9-0.4-1.2C551.4,218.8,551.1,218.7,550.7,218.7z"/>
	<path class="st0" d="M561.5,224.9h-1.9v-4.4c0-0.5-0.1-1-0.3-1.2c-0.2-0.3-0.4-0.4-0.8-0.4c-0.5,0-0.8,0.2-1.1,0.6
		c-0.2,0.4-0.3,1-0.3,1.9v3.5h-1.9v-7.5h1.4l0.3,1h0.1c0.2-0.3,0.5-0.6,0.8-0.8c0.4-0.2,0.8-0.3,1.2-0.3c1,0,1.7,0.4,2.1,1.1h0.2
		c0.2-0.4,0.5-0.6,0.8-0.8c0.4-0.2,0.8-0.3,1.2-0.3c0.8,0,1.4,0.2,1.8,0.7s0.6,1.1,0.6,2.1v4.9H564v-4.4c0-0.5-0.1-1-0.3-1.2
		c-0.2-0.3-0.4-0.4-0.8-0.4c-0.5,0-0.8,0.2-1,0.5s-0.3,0.9-0.3,1.7V224.9z"/>
	<path class="st0" d="M572.7,224.9l-0.3-1h-0.1c-0.2,0.4-0.5,0.6-0.9,0.8c-0.4,0.2-0.8,0.3-1.3,0.3c-0.8,0-1.4-0.2-1.8-0.7
		s-0.6-1.2-0.6-2v-4.9h1.9v4.4c0,0.5,0.1,1,0.3,1.2c0.2,0.3,0.5,0.4,0.8,0.4c0.5,0,0.9-0.2,1.1-0.6s0.4-1,0.4-1.9v-3.5h1.9v7.5
		H572.7z"/>
	<path class="st0" d="M578,220.8l0.8-1.1l1.9-2.3h2.1l-2.8,3.3l2.9,4.3h-2.2l-2-3.1l-0.8,0.7v2.3h-1.9v-10.5h1.9v4.7L578,220.8
		L578,220.8z"/>
	<path class="st0" d="M588.4,224.9l-0.4-1h0c-0.3,0.4-0.6,0.7-1,0.9c-0.3,0.2-0.8,0.3-1.3,0.3c-0.7,0-1.2-0.2-1.6-0.6
		c-0.4-0.4-0.6-1-0.6-1.8c0-0.8,0.3-1.4,0.8-1.8c0.5-0.4,1.3-0.6,2.3-0.6l1.2,0v-0.3c0-0.8-0.4-1.1-1.1-1.1c-0.6,0-1.2,0.2-2,0.5
		l-0.6-1.4c0.8-0.5,1.7-0.7,2.7-0.7c0.9,0,1.6,0.2,2.1,0.7c0.5,0.4,0.7,1.1,0.7,2v5H588.4z M587.9,221.4l-0.7,0
		c-0.5,0-1,0.1-1.2,0.3c-0.3,0.2-0.4,0.5-0.4,0.9c0,0.6,0.3,0.9,0.9,0.9c0.4,0,0.8-0.1,1.1-0.4s0.4-0.6,0.4-1.1V221.4z"/>
	<path class="st0" d="M598.1,224.9h-1.9v-4.4c0-0.5-0.1-1-0.3-1.2c-0.2-0.3-0.5-0.4-0.8-0.4c-0.5,0-0.9,0.2-1.1,0.6s-0.4,1-0.4,1.9
		v3.5h-1.9v-7.5h1.4l0.3,1h0.1c0.2-0.4,0.5-0.6,0.9-0.8c0.4-0.2,0.8-0.3,1.3-0.3c0.8,0,1.4,0.2,1.8,0.7c0.4,0.5,0.6,1.2,0.6,2.1
		V224.9z"/>
	<path class="st0" d="M607.2,217.2c0.8,0,1.5,0.3,1.9,1s0.7,1.6,0.7,2.9c0,1.2-0.2,2.2-0.7,2.9s-1.1,1-2,1c-0.8,0-1.5-0.3-1.9-1
		h-0.1l-0.3,0.8h-1.4v-10.5h1.9v2.4c0,0.3,0,0.8-0.1,1.5h0.1C605.7,217.6,606.3,217.2,607.2,217.2z M606.6,218.9
		c-0.5,0-0.8,0.2-1,0.5s-0.3,0.8-0.3,1.5v0.2c0,0.8,0.1,1.4,0.3,1.7c0.2,0.4,0.6,0.5,1.1,0.5c0.4,0,0.7-0.2,0.9-0.6s0.3-1,0.3-1.7
		s-0.1-1.3-0.3-1.7S607,218.9,606.6,218.9z"/>
	<path class="st0" d="M614.5,225c-1.1,0-2-0.3-2.6-1c-0.6-0.7-0.9-1.6-0.9-2.8c0-1.3,0.3-2.2,0.9-2.9c0.6-0.7,1.4-1,2.4-1
		c1,0,1.7,0.3,2.3,0.9c0.5,0.6,0.8,1.4,0.8,2.5v1h-4.5c0,0.6,0.2,1,0.5,1.4c0.3,0.3,0.7,0.5,1.3,0.5c0.4,0,0.8,0,1.2-0.1
		c0.4-0.1,0.8-0.2,1.2-0.5v1.6c-0.3,0.2-0.7,0.3-1.1,0.4S615.1,225,614.5,225z M614.3,218.7c-0.4,0-0.7,0.1-0.9,0.4
		c-0.2,0.3-0.4,0.7-0.4,1.2h2.7c0-0.5-0.1-0.9-0.4-1.2C615,218.8,614.7,218.7,614.3,218.7z"/>
	<path class="st0" d="M622.8,217.2c0.3,0,0.5,0,0.6,0.1l-0.1,1.9c-0.2,0-0.3-0.1-0.6-0.1c-0.6,0-1.1,0.2-1.4,0.5
		c-0.3,0.3-0.5,0.8-0.5,1.4v3.8h-1.9v-7.5h1.4l0.3,1.3h0.1c0.2-0.4,0.5-0.8,0.9-1C621.9,217.3,622.3,217.2,622.8,217.2z"/>
	<path class="st0" d="M628.5,217.2c0.8,0,1.5,0.3,1.9,1s0.7,1.6,0.7,2.9c0,1.2-0.2,2.2-0.7,2.9s-1.1,1-2,1c-0.8,0-1.5-0.3-1.9-1
		h-0.1l-0.3,0.8h-1.4v-10.5h1.9v2.4c0,0.3,0,0.8-0.1,1.5h0.1C627,217.6,627.6,217.2,628.5,217.2z M627.9,218.9c-0.5,0-0.8,0.2-1,0.5
		s-0.3,0.8-0.3,1.5v0.2c0,0.8,0.1,1.4,0.3,1.7c0.2,0.4,0.6,0.5,1.1,0.5c0.4,0,0.7-0.2,0.9-0.6s0.3-1,0.3-1.7s-0.1-1.3-0.3-1.7
		S628.3,218.9,627.9,218.9z"/>
	<path class="st0" d="M637.1,224.9l-0.4-1h0c-0.3,0.4-0.6,0.7-1,0.9c-0.3,0.2-0.8,0.3-1.3,0.3c-0.7,0-1.2-0.2-1.6-0.6
		c-0.4-0.4-0.6-1-0.6-1.8c0-0.8,0.3-1.4,0.8-1.8c0.5-0.4,1.3-0.6,2.3-0.6l1.2,0v-0.3c0-0.8-0.4-1.1-1.1-1.1c-0.6,0-1.2,0.2-2,0.5
		l-0.6-1.4c0.8-0.5,1.7-0.7,2.7-0.7c0.9,0,1.6,0.2,2.1,0.7c0.5,0.4,0.7,1.1,0.7,2v5H637.1z M636.5,221.4l-0.7,0
		c-0.5,0-1,0.1-1.2,0.3c-0.3,0.2-0.4,0.5-0.4,0.9c0,0.6,0.3,0.9,0.9,0.9c0.4,0,0.8-0.1,1.1-0.4s0.4-0.6,0.4-1.1V221.4z"/>
	<path class="st0" d="M646.4,224.9c0,1.1-0.3,1.9-0.9,2.5s-1.4,0.8-2.6,0.8c-1,0-1.9-0.1-2.6-0.4v-1.6c0.8,0.4,1.7,0.6,2.7,0.6
		c1,0,1.5-0.6,1.5-1.7v-0.1l0.1-0.9h-0.1c-0.4,0.7-1.1,1.1-2,1.1c-0.8,0-1.5-0.3-1.9-1s-0.7-1.6-0.7-2.8c0-1.2,0.2-2.2,0.7-2.9
		c0.5-0.7,1.1-1,2-1c0.9,0,1.5,0.4,2,1.1h0l0.2-1h1.6V224.9z M643.2,223.4c0.5,0,0.9-0.2,1.1-0.5c0.2-0.3,0.3-0.8,0.3-1.5v-0.2
		c0-0.8-0.1-1.4-0.3-1.7s-0.6-0.5-1.1-0.5c-0.9,0-1.3,0.8-1.3,2.3c0,0.8,0.1,1.3,0.3,1.7C642.4,223.2,642.8,223.4,643.2,223.4z"/>
	<path class="st0" d="M652.8,224.9l-0.4-1h0c-0.3,0.4-0.6,0.7-1,0.9c-0.3,0.2-0.8,0.3-1.3,0.3c-0.7,0-1.2-0.2-1.6-0.6
		c-0.4-0.4-0.6-1-0.6-1.8c0-0.8,0.3-1.4,0.8-1.8c0.5-0.4,1.3-0.6,2.3-0.6l1.2,0v-0.3c0-0.8-0.4-1.1-1.1-1.1c-0.6,0-1.2,0.2-2,0.5
		l-0.6-1.4c0.8-0.5,1.7-0.7,2.7-0.7c0.9,0,1.6,0.2,2.1,0.7c0.5,0.4,0.7,1.1,0.7,2v5H652.8z M652.2,221.4l-0.7,0
		c-0.5,0-1,0.1-1.2,0.3c-0.3,0.2-0.4,0.5-0.4,0.9c0,0.6,0.3,0.9,0.9,0.9c0.4,0,0.8-0.1,1.1-0.4s0.4-0.6,0.4-1.1V221.4z"/>
	<path class="st0" d="M656,215.4c0-0.7,0.3-1,1-1c0.7,0,1,0.3,1,1c0,0.3-0.1,0.6-0.3,0.7c-0.2,0.2-0.4,0.3-0.8,0.3
		C656.3,216.4,656,216.1,656,215.4z M658,224.9h-1.9v-7.5h1.9V224.9z"/>
	<path class="st0" d="M669.5,224.9h-1.9v-4.4c0-0.5-0.1-1-0.3-1.2c-0.2-0.3-0.4-0.4-0.8-0.4c-0.5,0-0.8,0.2-1.1,0.6
		c-0.2,0.4-0.3,1-0.3,1.9v3.5h-1.9v-7.5h1.4l0.3,1h0.1c0.2-0.3,0.5-0.6,0.8-0.8c0.4-0.2,0.8-0.3,1.2-0.3c1,0,1.7,0.4,2.1,1.1h0.2
		c0.2-0.4,0.5-0.6,0.8-0.8c0.4-0.2,0.8-0.3,1.2-0.3c0.8,0,1.4,0.2,1.8,0.7s0.6,1.1,0.6,2.1v4.9h-1.9v-4.4c0-0.5-0.1-1-0.3-1.2
		c-0.2-0.3-0.4-0.4-0.8-0.4c-0.5,0-0.8,0.2-1,0.5s-0.3,0.9-0.3,1.7V224.9z"/>
	<path class="st0" d="M680.1,224.9l-0.4-1h0c-0.3,0.4-0.6,0.7-1,0.9c-0.3,0.2-0.8,0.3-1.3,0.3c-0.7,0-1.2-0.2-1.6-0.6
		c-0.4-0.4-0.6-1-0.6-1.8c0-0.8,0.3-1.4,0.8-1.8c0.5-0.4,1.3-0.6,2.3-0.6l1.2,0v-0.3c0-0.8-0.4-1.1-1.1-1.1c-0.6,0-1.2,0.2-2,0.5
		l-0.6-1.4c0.8-0.5,1.7-0.7,2.7-0.7c0.9,0,1.6,0.2,2.1,0.7c0.5,0.4,0.7,1.1,0.7,2v5H680.1z M679.6,221.4l-0.7,0
		c-0.5,0-1,0.1-1.2,0.3c-0.3,0.2-0.4,0.5-0.4,0.9c0,0.6,0.3,0.9,0.9,0.9c0.4,0,0.8-0.1,1.1-0.4s0.4-0.6,0.4-1.1V221.4z"/>
	<path class="st0" d="M686.2,225c-2.2,0-3.2-1.3-3.2-3.9c0-1.3,0.3-2.3,0.9-2.9c0.6-0.7,1.4-1,2.5-1c0.8,0,1.5,0.2,2.2,0.5l-0.6,1.6
		c-0.3-0.1-0.6-0.2-0.8-0.3c-0.3-0.1-0.5-0.1-0.8-0.1c-1,0-1.5,0.8-1.5,2.3c0,1.5,0.5,2.2,1.5,2.2c0.4,0,0.7-0.1,1-0.2
		c0.3-0.1,0.6-0.3,0.9-0.5v1.8c-0.3,0.2-0.6,0.4-0.9,0.4C687.1,225,686.7,225,686.2,225z"/>
	<path class="st0" d="M694.3,224.9l-0.4-1h0c-0.3,0.4-0.6,0.7-1,0.9c-0.3,0.2-0.8,0.3-1.3,0.3c-0.7,0-1.2-0.2-1.6-0.6
		c-0.4-0.4-0.6-1-0.6-1.8c0-0.8,0.3-1.4,0.8-1.8c0.5-0.4,1.3-0.6,2.3-0.6l1.2,0v-0.3c0-0.8-0.4-1.1-1.1-1.1c-0.6,0-1.2,0.2-2,0.5
		l-0.6-1.4c0.8-0.5,1.7-0.7,2.7-0.7c0.9,0,1.6,0.2,2.1,0.7c0.5,0.4,0.7,1.1,0.7,2v5H694.3z M693.8,221.4l-0.7,0
		c-0.5,0-1,0.1-1.2,0.3c-0.3,0.2-0.4,0.5-0.4,0.9c0,0.6,0.3,0.9,0.9,0.9c0.4,0,0.8-0.1,1.1-0.4s0.4-0.6,0.4-1.1V221.4z"/>
	<path class="st0" d="M703.8,224.9h-1.9v-4.4c0-0.5-0.1-1-0.3-1.2c-0.2-0.3-0.4-0.4-0.8-0.4c-0.5,0-0.8,0.2-1.1,0.6
		c-0.2,0.4-0.3,1-0.3,1.9v3.5h-1.9v-7.5h1.4l0.3,1h0.1c0.2-0.3,0.5-0.6,0.8-0.8c0.4-0.2,0.8-0.3,1.2-0.3c1,0,1.7,0.4,2.1,1.1h0.2
		c0.2-0.4,0.5-0.6,0.8-0.8c0.4-0.2,0.8-0.3,1.2-0.3c0.8,0,1.4,0.2,1.8,0.7s0.6,1.1,0.6,2.1v4.9h-1.9v-4.4c0-0.5-0.1-1-0.3-1.2
		c-0.2-0.3-0.4-0.4-0.8-0.4c-0.5,0-0.8,0.2-1,0.5s-0.3,0.9-0.3,1.7V224.9z"/>
	<path class="st0" d="M717.2,225c-0.8,0-1.5-0.3-1.9-1h-0.1c0.1,0.6,0.1,1,0.1,1.1v3.1h-1.9v-10.9h1.5l0.3,1h0.1
		c0.4-0.7,1.1-1.1,2-1.1c0.8,0,1.5,0.3,1.9,1c0.5,0.7,0.7,1.6,0.7,2.9c0,0.8-0.1,1.5-0.3,2.1c-0.2,0.6-0.5,1-0.9,1.4
		C718.2,224.9,717.7,225,717.2,225z M716.6,218.9c-0.5,0-0.8,0.2-1,0.5s-0.3,0.8-0.3,1.5v0.2c0,0.8,0.1,1.4,0.3,1.7
		c0.2,0.4,0.6,0.5,1.1,0.5c0.8,0,1.3-0.8,1.3-2.3c0-0.7-0.1-1.3-0.3-1.7S717.1,218.9,716.6,218.9z"/>
	<path class="st0" d="M725.3,217.2c0.3,0,0.5,0,0.6,0.1l-0.1,1.9c-0.2,0-0.3-0.1-0.6-0.1c-0.6,0-1.1,0.2-1.4,0.5
		c-0.3,0.3-0.5,0.8-0.5,1.4v3.8h-1.9v-7.5h1.4l0.3,1.3h0.1c0.2-0.4,0.5-0.8,0.9-1C724.4,217.3,724.8,217.2,725.3,217.2z"/>
	<path class="st0" d="M733.3,221.1c0,1.2-0.3,2.2-0.9,2.9c-0.6,0.7-1.4,1-2.5,1c-0.7,0-1.3-0.2-1.8-0.5c-0.5-0.3-0.9-0.8-1.2-1.4
		c-0.3-0.6-0.4-1.3-0.4-2.1c0-1.2,0.3-2.2,0.9-2.9c0.6-0.7,1.4-1,2.5-1c0.7,0,1.3,0.2,1.8,0.5c0.5,0.3,0.9,0.8,1.2,1.4
		C733.2,219.6,733.3,220.3,733.3,221.1z M728.6,221.1c0,0.7,0.1,1.3,0.3,1.7c0.2,0.4,0.6,0.6,1.1,0.6c0.5,0,0.9-0.2,1.1-0.6
		c0.2-0.4,0.3-0.9,0.3-1.7c0-0.7-0.1-1.3-0.3-1.7c-0.2-0.4-0.6-0.6-1.1-0.6c-0.5,0-0.9,0.2-1.1,0.6
		C728.7,219.8,728.6,220.4,728.6,221.1z"/>
	<path class="st0" d="M737.1,225c-0.8,0-1.5-0.3-1.9-1c-0.5-0.7-0.7-1.6-0.7-2.9c0-1.2,0.2-2.2,0.7-2.9c0.5-0.7,1.1-1,2-1
		c0.9,0,1.5,0.4,2,1.1h0.1c-0.1-0.6-0.1-1.1-0.1-1.5v-2.4h1.9v10.5h-1.5l-0.4-1h-0.1C738.6,224.7,738,225,737.1,225z M737.8,223.4
		c0.5,0,0.8-0.2,1.1-0.5s0.3-0.8,0.4-1.6v-0.2c0-0.8-0.1-1.4-0.3-1.7c-0.2-0.4-0.6-0.5-1.1-0.5c-0.4,0-0.7,0.2-1,0.6
		c-0.2,0.4-0.3,1-0.3,1.7c0,0.7,0.1,1.3,0.4,1.7C737,223.2,737.3,223.4,737.8,223.4z"/>
	<path class="st0" d="M747.9,224.9l-0.3-1h-0.1c-0.2,0.4-0.5,0.6-0.9,0.8c-0.4,0.2-0.8,0.3-1.3,0.3c-0.8,0-1.4-0.2-1.8-0.7
		s-0.6-1.2-0.6-2v-4.9h1.9v4.4c0,0.5,0.1,1,0.3,1.2c0.2,0.3,0.5,0.4,0.8,0.4c0.5,0,0.9-0.2,1.1-0.6s0.4-1,0.4-1.9v-3.5h1.9v7.5
		H747.9z"/>
	<path class="st0" d="M753.1,220.8l0.8-1.1l1.9-2.3h2.1l-2.8,3.3l2.9,4.3H756l-2-3.1l-0.8,0.7v2.3h-1.9v-10.5h1.9v4.7L753.1,220.8
		L753.1,220.8z"/>
	<path class="st0" d="M441.8,235.6h2.1l1.3,4.2c0.1,0.4,0.2,0.8,0.2,1.3h0c0-0.5,0.1-0.9,0.3-1.3l1.3-4.2h2l-2.9,8.5
		c-0.3,0.8-0.7,1.4-1.2,1.8c-0.5,0.4-1.1,0.6-1.7,0.6c-0.3,0-0.6,0-1-0.1v-1.6c0.2,0.1,0.5,0.1,0.7,0.1c0.3,0,0.6-0.1,0.9-0.3
		s0.4-0.6,0.6-1l0.1-0.4L441.8,235.6z"/>
	<path class="st0" d="M454.4,243.1l-0.4-1h0c-0.3,0.4-0.6,0.7-1,0.9c-0.3,0.2-0.8,0.3-1.3,0.3c-0.7,0-1.2-0.2-1.6-0.6
		c-0.4-0.4-0.6-1-0.6-1.8c0-0.8,0.3-1.4,0.8-1.8c0.5-0.4,1.3-0.6,2.3-0.6l1.2,0v-0.3c0-0.8-0.4-1.1-1.1-1.1c-0.6,0-1.2,0.2-2,0.5
		l-0.6-1.4c0.8-0.5,1.7-0.7,2.7-0.7c0.9,0,1.6,0.2,2.1,0.7c0.5,0.4,0.7,1.1,0.7,2v5H454.4z M453.8,239.6l-0.7,0
		c-0.5,0-1,0.1-1.2,0.3c-0.3,0.2-0.4,0.5-0.4,0.9c0,0.6,0.3,0.9,0.9,0.9c0.4,0,0.8-0.1,1.1-0.4s0.4-0.6,0.4-1.1V239.6z"/>
	<path class="st0" d="M464,243.1h-1.9v-4.4c0-0.5-0.1-1-0.3-1.2c-0.2-0.3-0.5-0.4-0.8-0.4c-0.5,0-0.9,0.2-1.1,0.6s-0.4,1-0.4,1.9
		v3.5h-1.9v-7.5h1.4l0.3,1h0.1c0.2-0.4,0.5-0.6,0.9-0.8c0.4-0.2,0.8-0.3,1.3-0.3c0.8,0,1.4,0.2,1.8,0.7c0.4,0.5,0.6,1.2,0.6,2.1
		V243.1z"/>
	<path class="st0" d="M472.1,243.2c0,1.1-0.3,1.9-0.9,2.5s-1.4,0.8-2.6,0.8c-1,0-1.9-0.1-2.6-0.4v-1.6c0.8,0.4,1.7,0.6,2.7,0.6
		c1,0,1.5-0.6,1.5-1.7v-0.1l0.1-0.9h-0.1c-0.4,0.7-1.1,1.1-2,1.1c-0.8,0-1.5-0.3-1.9-1s-0.7-1.6-0.7-2.8c0-1.2,0.2-2.2,0.7-2.9
		c0.5-0.7,1.1-1,2-1c0.9,0,1.5,0.4,2,1.1h0l0.2-1h1.6V243.2z M468.9,241.7c0.5,0,0.9-0.2,1.1-0.5c0.2-0.3,0.3-0.8,0.3-1.5v-0.2
		c0-0.8-0.1-1.4-0.3-1.7s-0.6-0.5-1.1-0.5c-0.9,0-1.3,0.8-1.3,2.3c0,0.8,0.1,1.3,0.3,1.7C468.1,241.5,468.4,241.7,468.9,241.7z"/>
	<path class="st0" d="M481.7,243.1l-0.4-1h0c-0.3,0.4-0.6,0.7-1,0.9c-0.3,0.2-0.8,0.3-1.3,0.3c-0.7,0-1.2-0.2-1.6-0.6
		c-0.4-0.4-0.6-1-0.6-1.8c0-0.8,0.3-1.4,0.8-1.8c0.5-0.4,1.3-0.6,2.3-0.6l1.2,0v-0.3c0-0.8-0.4-1.1-1.1-1.1c-0.6,0-1.2,0.2-2,0.5
		l-0.6-1.4c0.8-0.5,1.7-0.7,2.7-0.7c0.9,0,1.6,0.2,2.1,0.7c0.5,0.4,0.7,1.1,0.7,2v5H481.7z M481.2,239.6l-0.7,0
		c-0.5,0-1,0.1-1.2,0.3c-0.3,0.2-0.4,0.5-0.4,0.9c0,0.6,0.3,0.9,0.9,0.9c0.4,0,0.8-0.1,1.1-0.4s0.4-0.6,0.4-1.1V239.6z"/>
	<path class="st0" d="M491.4,243.1h-1.9v-4.4c0-0.5-0.1-1-0.3-1.2c-0.2-0.3-0.5-0.4-0.8-0.4c-0.5,0-0.9,0.2-1.1,0.6s-0.4,1-0.4,1.9
		v3.5H485v-7.5h1.4l0.3,1h0.1c0.2-0.4,0.5-0.6,0.9-0.8c0.4-0.2,0.8-0.3,1.3-0.3c0.8,0,1.4,0.2,1.8,0.7c0.4,0.5,0.6,1.2,0.6,2.1
		V243.1z"/>
	<path class="st0" d="M495.5,243.3c-0.8,0-1.5-0.3-1.9-1c-0.5-0.7-0.7-1.6-0.7-2.9c0-1.2,0.2-2.2,0.7-2.9c0.5-0.7,1.1-1,2-1
		c0.9,0,1.5,0.4,2,1.1h0.1c-0.1-0.6-0.1-1.1-0.1-1.5v-2.4h1.9v10.5H498l-0.4-1h-0.1C497.1,242.9,496.4,243.3,495.5,243.3z
		 M496.2,241.6c0.5,0,0.8-0.2,1.1-0.5s0.3-0.8,0.4-1.6v-0.2c0-0.8-0.1-1.4-0.3-1.7c-0.2-0.4-0.6-0.5-1.1-0.5c-0.4,0-0.7,0.2-1,0.6
		c-0.2,0.4-0.3,1-0.3,1.7c0,0.7,0.1,1.3,0.4,1.7C495.4,241.5,495.8,241.6,496.2,241.6z"/>
	<path class="st0" d="M505.8,243.1l-0.4-1h0c-0.3,0.4-0.6,0.7-1,0.9c-0.3,0.2-0.8,0.3-1.3,0.3c-0.7,0-1.2-0.2-1.6-0.6
		c-0.4-0.4-0.6-1-0.6-1.8c0-0.8,0.3-1.4,0.8-1.8c0.5-0.4,1.3-0.6,2.3-0.6l1.2,0v-0.3c0-0.8-0.4-1.1-1.1-1.1c-0.6,0-1.2,0.2-2,0.5
		l-0.6-1.4c0.8-0.5,1.7-0.7,2.7-0.7c0.9,0,1.6,0.2,2.1,0.7c0.5,0.4,0.7,1.1,0.7,2v5H505.8z M505.2,239.6l-0.7,0
		c-0.5,0-1,0.1-1.2,0.3c-0.3,0.2-0.4,0.5-0.4,0.9c0,0.6,0.3,0.9,0.9,0.9c0.4,0,0.8-0.1,1.1-0.4s0.4-0.6,0.4-1.1V239.6z"/>
	<path class="st0" d="M516.2,243.3c-0.8,0-1.5-0.3-1.9-1h-0.1c0.1,0.6,0.1,1,0.1,1.1v3.1h-1.9v-10.9h1.5l0.3,1h0.1
		c0.4-0.7,1.1-1.1,2-1.1c0.8,0,1.5,0.3,1.9,1c0.5,0.7,0.7,1.6,0.7,2.9c0,0.8-0.1,1.5-0.3,2.1c-0.2,0.6-0.5,1-0.9,1.4
		C517.2,243.1,516.7,243.3,516.2,243.3z M515.6,237.1c-0.5,0-0.8,0.2-1,0.5s-0.3,0.8-0.3,1.5v0.2c0,0.8,0.1,1.4,0.3,1.7
		c0.2,0.4,0.6,0.5,1.1,0.5c0.8,0,1.3-0.8,1.3-2.3c0-0.7-0.1-1.3-0.3-1.7S516.1,237.1,515.6,237.1z"/>
	<path class="st0" d="M523.5,243.3c-1.1,0-2-0.3-2.6-1c-0.6-0.7-0.9-1.6-0.9-2.8c0-1.3,0.3-2.2,0.9-2.9c0.6-0.7,1.4-1,2.4-1
		c1,0,1.7,0.3,2.3,0.9c0.5,0.6,0.8,1.4,0.8,2.5v1h-4.5c0,0.6,0.2,1,0.5,1.4c0.3,0.3,0.7,0.5,1.3,0.5c0.4,0,0.8,0,1.2-0.1
		c0.4-0.1,0.8-0.2,1.2-0.5v1.6c-0.3,0.2-0.7,0.3-1.1,0.4S524.1,243.3,523.5,243.3z M523.3,236.9c-0.4,0-0.7,0.1-0.9,0.4
		c-0.2,0.3-0.4,0.7-0.4,1.2h2.7c0-0.5-0.1-0.9-0.4-1.2C524,237.1,523.7,236.9,523.3,236.9z"/>
	<path class="st0" d="M531.8,235.5c0.3,0,0.5,0,0.6,0.1l-0.1,1.9c-0.2,0-0.3-0.1-0.6-0.1c-0.6,0-1.1,0.2-1.4,0.5
		c-0.3,0.3-0.5,0.8-0.5,1.4v3.8h-1.9v-7.5h1.4l0.3,1.3h0.1c0.2-0.4,0.5-0.8,0.9-1C530.9,235.6,531.3,235.5,531.8,235.5z"/>
	<path class="st0" d="M535.6,243.1h-1.9v-10.5h1.9V243.1z"/>
	<path class="st0" d="M542.5,243.1l-0.3-1h-0.1c-0.2,0.4-0.5,0.6-0.9,0.8c-0.4,0.2-0.8,0.3-1.3,0.3c-0.8,0-1.4-0.2-1.8-0.7
		s-0.6-1.2-0.6-2v-4.9h1.9v4.4c0,0.5,0.1,1,0.3,1.2c0.2,0.3,0.5,0.4,0.8,0.4c0.5,0,0.9-0.2,1.1-0.6s0.4-1,0.4-1.9v-3.5h1.9v7.5
		H542.5z"/>
	<path class="st0" d="M547.7,239l0.8-1.1l1.9-2.3h2.1l-2.8,3.3l2.9,4.3h-2.2l-2-3.1l-0.8,0.7v2.3h-1.9v-10.5h1.9v4.7L547.7,239
		L547.7,239z"/>
	<path class="st0" d="M558.2,243.1l-0.4-1h0c-0.3,0.4-0.6,0.7-1,0.9c-0.3,0.2-0.8,0.3-1.3,0.3c-0.7,0-1.2-0.2-1.6-0.6
		c-0.4-0.4-0.6-1-0.6-1.8c0-0.8,0.3-1.4,0.8-1.8c0.5-0.4,1.3-0.6,2.3-0.6l1.2,0v-0.3c0-0.8-0.4-1.1-1.1-1.1c-0.6,0-1.2,0.2-2,0.5
		l-0.6-1.4c0.8-0.5,1.7-0.7,2.7-0.7c0.9,0,1.6,0.2,2.1,0.7c0.5,0.4,0.7,1.1,0.7,2v5H558.2z M557.6,239.6l-0.7,0
		c-0.5,0-1,0.1-1.2,0.3c-0.3,0.2-0.4,0.5-0.4,0.9c0,0.6,0.3,0.9,0.9,0.9c0.4,0,0.8-0.1,1.1-0.4s0.4-0.6,0.4-1.1V239.6z"/>
	<path class="st0" d="M567.8,243.1h-1.9v-4.4c0-0.5-0.1-1-0.3-1.2c-0.2-0.3-0.5-0.4-0.8-0.4c-0.5,0-0.9,0.2-1.1,0.6s-0.4,1-0.4,1.9
		v3.5h-1.9v-7.5h1.4l0.3,1h0.1c0.2-0.4,0.5-0.6,0.9-0.8c0.4-0.2,0.8-0.3,1.3-0.3c0.8,0,1.4,0.2,1.8,0.7c0.4,0.5,0.6,1.2,0.6,2.1
		V243.1z"/>
	<path class="st0" d="M579.3,243.1h-1.9v-4.4c0-0.5-0.1-1-0.3-1.2c-0.2-0.3-0.4-0.4-0.8-0.4c-0.5,0-0.8,0.2-1.1,0.6
		c-0.2,0.4-0.3,1-0.3,1.9v3.5h-1.9v-7.5h1.4l0.3,1h0.1c0.2-0.3,0.5-0.6,0.8-0.8c0.4-0.2,0.8-0.3,1.2-0.3c1,0,1.7,0.4,2.1,1.1h0.2
		c0.2-0.4,0.5-0.6,0.8-0.8c0.4-0.2,0.8-0.3,1.2-0.3c0.8,0,1.4,0.2,1.8,0.7s0.6,1.1,0.6,2.1v4.9h-1.9v-4.4c0-0.5-0.1-1-0.3-1.2
		c-0.2-0.3-0.4-0.4-0.8-0.4c-0.5,0-0.8,0.2-1,0.5s-0.3,0.9-0.3,1.7V243.1z"/>
	<path class="st0" d="M588.7,243.3c-1.1,0-2-0.3-2.6-1c-0.6-0.7-0.9-1.6-0.9-2.8c0-1.3,0.3-2.2,0.9-2.9c0.6-0.7,1.4-1,2.4-1
		c1,0,1.7,0.3,2.3,0.9c0.5,0.6,0.8,1.4,0.8,2.5v1H587c0,0.6,0.2,1,0.5,1.4c0.3,0.3,0.7,0.5,1.3,0.5c0.4,0,0.8,0,1.2-0.1
		c0.4-0.1,0.8-0.2,1.2-0.5v1.6c-0.3,0.2-0.7,0.3-1.1,0.4S589.2,243.3,588.7,243.3z M588.4,236.9c-0.4,0-0.7,0.1-0.9,0.4
		c-0.2,0.3-0.4,0.7-0.4,1.2h2.7c0-0.5-0.1-0.9-0.4-1.2C589.1,237.1,588.8,236.9,588.4,236.9z"/>
	<path class="st0" d="M595,243.1h-1.9v-10.5h1.9V243.1z"/>
	<path class="st0" d="M601.3,243.1l-0.4-1h0c-0.3,0.4-0.6,0.7-1,0.9c-0.3,0.2-0.8,0.3-1.3,0.3c-0.7,0-1.2-0.2-1.6-0.6
		c-0.4-0.4-0.6-1-0.6-1.8c0-0.8,0.3-1.4,0.8-1.8c0.5-0.4,1.3-0.6,2.3-0.6l1.2,0v-0.3c0-0.8-0.4-1.1-1.1-1.1c-0.6,0-1.2,0.2-2,0.5
		l-0.6-1.4c0.8-0.5,1.7-0.7,2.7-0.7c0.9,0,1.6,0.2,2.1,0.7c0.5,0.4,0.7,1.1,0.7,2v5H601.3z M600.8,239.6l-0.7,0
		c-0.5,0-1,0.1-1.2,0.3c-0.3,0.2-0.4,0.5-0.4,0.9c0,0.6,0.3,0.9,0.9,0.9c0.4,0,0.8-0.1,1.1-0.4s0.4-0.6,0.4-1.1V239.6z"/>
	<path class="st0" d="M606.5,243.1h-1.9v-10.5h1.9V243.1z"/>
	<path class="st0" d="M613.4,243.1l-0.3-1H613c-0.2,0.4-0.5,0.6-0.9,0.8c-0.4,0.2-0.8,0.3-1.3,0.3c-0.8,0-1.4-0.2-1.8-0.7
		s-0.6-1.2-0.6-2v-4.9h1.9v4.4c0,0.5,0.1,1,0.3,1.2c0.2,0.3,0.5,0.4,0.8,0.4c0.5,0,0.9-0.2,1.1-0.6s0.4-1,0.4-1.9v-3.5h1.9v7.5
		H613.4z"/>
	<path class="st0" d="M616.8,233.6c0-0.7,0.3-1,1-1c0.7,0,1,0.3,1,1c0,0.3-0.1,0.6-0.3,0.7c-0.2,0.2-0.4,0.3-0.8,0.3
		C617.1,234.7,616.8,234.3,616.8,233.6z M618.7,243.1h-1.9v-7.5h1.9V243.1z"/>
	<path class="st0" d="M628.8,240.9c0,0.8-0.2,1.4-0.7,1.8c-0.5,0.4-1.2,0.6-2.2,0.6c-0.5,0-0.9,0-1.3-0.1s-0.7-0.2-1-0.3v-1.7
		c0.4,0.2,0.7,0.3,1.2,0.5s0.8,0.2,1.2,0.2c0.7,0,1-0.2,1-0.6c0-0.2,0-0.3-0.1-0.4s-0.2-0.2-0.5-0.3c-0.2-0.1-0.5-0.3-0.9-0.4
		c-0.5-0.2-0.9-0.5-1.2-0.7c-0.3-0.2-0.4-0.4-0.5-0.7c-0.1-0.3-0.2-0.6-0.2-1c0-0.7,0.2-1.2,0.7-1.6s1.2-0.5,2-0.5
		c0.8,0,1.6,0.2,2.4,0.6l-0.6,1.5c-0.3-0.2-0.7-0.3-1-0.4s-0.6-0.2-0.9-0.2c-0.6,0-0.8,0.2-0.8,0.5c0,0.2,0.1,0.3,0.3,0.5
		c0.2,0.1,0.6,0.3,1.2,0.6c0.5,0.2,0.9,0.5,1.2,0.7c0.3,0.2,0.4,0.4,0.6,0.7C628.8,240.2,628.8,240.5,628.8,240.9z"/>
	<path class="st0" d="M633.5,243.3c-1.1,0-2-0.3-2.6-1c-0.6-0.7-0.9-1.6-0.9-2.8c0-1.3,0.3-2.2,0.9-2.9c0.6-0.7,1.4-1,2.4-1
		c1,0,1.7,0.3,2.3,0.9c0.5,0.6,0.8,1.4,0.8,2.5v1h-4.5c0,0.6,0.2,1,0.5,1.4c0.3,0.3,0.7,0.5,1.3,0.5c0.4,0,0.8,0,1.2-0.1
		c0.4-0.1,0.8-0.2,1.2-0.5v1.6c-0.3,0.2-0.7,0.3-1.1,0.4S634,243.3,633.5,243.3z M633.2,236.9c-0.4,0-0.7,0.1-0.9,0.4
		c-0.2,0.3-0.4,0.7-0.4,1.2h2.7c0-0.5-0.1-0.9-0.4-1.2C633.9,237.1,633.6,236.9,633.2,236.9z"/>
	<path class="st0" d="M637.3,246.5c-0.5,0-0.9-0.1-1.2-0.2v-1.6c0.3,0.1,0.6,0.1,0.9,0.1c0.3,0,0.6-0.1,0.7-0.3
		c0.1-0.2,0.2-0.5,0.2-0.9v-8.1h1.9v8.4c0,0.8-0.2,1.4-0.6,1.9S638,246.5,637.3,246.5z M637.7,233.6c0-0.7,0.3-1,1-1
		c0.7,0,1,0.3,1,1c0,0.3-0.1,0.6-0.3,0.7c-0.2,0.2-0.4,0.3-0.8,0.3C638.1,234.7,637.7,234.3,637.7,233.6z"/>
	<path class="st0" d="M646.6,243.1l-0.3-1h-0.1c-0.2,0.4-0.5,0.6-0.9,0.8c-0.4,0.2-0.8,0.3-1.3,0.3c-0.8,0-1.4-0.2-1.8-0.7
		s-0.6-1.2-0.6-2v-4.9h1.9v4.4c0,0.5,0.1,1,0.3,1.2c0.2,0.3,0.5,0.4,0.8,0.4c0.5,0,0.9-0.2,1.1-0.6s0.4-1,0.4-1.9v-3.5h1.9v7.5
		H646.6z"/>
	<path class="st0" d="M656.3,243.1h-1.9v-4.4c0-0.5-0.1-1-0.3-1.2c-0.2-0.3-0.4-0.4-0.8-0.4c-0.5,0-0.8,0.2-1.1,0.6
		c-0.2,0.4-0.3,1-0.3,1.9v3.5H650v-7.5h1.4l0.3,1h0.1c0.2-0.3,0.5-0.6,0.8-0.8c0.4-0.2,0.8-0.3,1.2-0.3c1,0,1.7,0.4,2.1,1.1h0.2
		c0.2-0.4,0.5-0.6,0.8-0.8c0.4-0.2,0.8-0.3,1.2-0.3c0.8,0,1.4,0.2,1.8,0.7s0.6,1.1,0.6,2.1v4.9h-1.9v-4.4c0-0.5-0.1-1-0.3-1.2
		c-0.2-0.3-0.4-0.4-0.8-0.4c-0.5,0-0.8,0.2-1,0.5s-0.3,0.9-0.3,1.7V243.1z"/>
	<path class="st0" d="M664.4,243.1h-1.9v-10.5h1.9V243.1z"/>
	<path class="st0" d="M670.8,243.1l-0.4-1h0c-0.3,0.4-0.6,0.7-1,0.9c-0.3,0.2-0.8,0.3-1.3,0.3c-0.7,0-1.2-0.2-1.6-0.6
		c-0.4-0.4-0.6-1-0.6-1.8c0-0.8,0.3-1.4,0.8-1.8c0.5-0.4,1.3-0.6,2.3-0.6l1.2,0v-0.3c0-0.8-0.4-1.1-1.1-1.1c-0.6,0-1.2,0.2-2,0.5
		l-0.6-1.4c0.8-0.5,1.7-0.7,2.7-0.7c0.9,0,1.6,0.2,2.1,0.7c0.5,0.4,0.7,1.1,0.7,2v5H670.8z M670.2,239.6l-0.7,0
		c-0.5,0-1,0.1-1.2,0.3c-0.3,0.2-0.4,0.5-0.4,0.9c0,0.6,0.3,0.9,0.9,0.9c0.4,0,0.8-0.1,1.1-0.4s0.4-0.6,0.4-1.1V239.6z"/>
	<path class="st0" d="M680.5,243.1h-1.9v-4.4c0-1.1-0.4-1.6-1.1-1.6c-0.5,0-0.9,0.2-1.1,0.6c-0.2,0.4-0.4,1-0.4,1.9v3.5h-1.9v-10.5
		h1.9v2.1c0,0.2,0,0.6,0,1.2l0,0.6h0.1c0.4-0.7,1.1-1.1,2-1.1c0.8,0,1.4,0.2,1.9,0.7c0.4,0.5,0.6,1.2,0.6,2.1V243.1z"/>
	<path class="st0" d="M689.5,243.3c-0.8,0-1.5-0.3-1.9-1h-0.1c0.1,0.6,0.1,1,0.1,1.1v3.1h-1.9v-10.9h1.5l0.3,1h0.1
		c0.4-0.7,1.1-1.1,2-1.1c0.8,0,1.5,0.3,1.9,1c0.5,0.7,0.7,1.6,0.7,2.9c0,0.8-0.1,1.5-0.3,2.1c-0.2,0.6-0.5,1-0.9,1.4
		C690.5,243.1,690.1,243.3,689.5,243.3z M689,237.1c-0.5,0-0.8,0.2-1,0.5s-0.3,0.8-0.3,1.5v0.2c0,0.8,0.1,1.4,0.3,1.7
		c0.2,0.4,0.6,0.5,1.1,0.5c0.8,0,1.3-0.8,1.3-2.3c0-0.7-0.1-1.3-0.3-1.7S689.4,237.1,689,237.1z"/>
	<path class="st0" d="M696.9,243.3c-1.1,0-2-0.3-2.6-1c-0.6-0.7-0.9-1.6-0.9-2.8c0-1.3,0.3-2.2,0.9-2.9c0.6-0.7,1.4-1,2.4-1
		c1,0,1.7,0.3,2.3,0.9c0.5,0.6,0.8,1.4,0.8,2.5v1h-4.5c0,0.6,0.2,1,0.5,1.4c0.3,0.3,0.7,0.5,1.3,0.5c0.4,0,0.8,0,1.2-0.1
		c0.4-0.1,0.8-0.2,1.2-0.5v1.6c-0.3,0.2-0.7,0.3-1.1,0.4S697.4,243.3,696.9,243.3z M696.6,236.9c-0.4,0-0.7,0.1-0.9,0.4
		c-0.2,0.3-0.4,0.7-0.4,1.2h2.7c0-0.5-0.1-0.9-0.4-1.2C697.3,237.1,697,236.9,696.6,236.9z"/>
	<path class="st0" d="M707.7,243.1h-1.9v-4.4c0-0.5-0.1-1-0.3-1.2c-0.2-0.3-0.5-0.4-0.8-0.4c-0.5,0-0.9,0.2-1.1,0.6s-0.4,1-0.4,1.9
		v3.5h-1.9v-7.5h1.4l0.3,1h0.1c0.2-0.4,0.5-0.6,0.9-0.8c0.4-0.2,0.8-0.3,1.3-0.3c0.8,0,1.4,0.2,1.8,0.7c0.4,0.5,0.6,1.2,0.6,2.1
		V243.1z"/>
	<path class="st0" d="M709,246.5c-0.5,0-0.9-0.1-1.2-0.2v-1.6c0.3,0.1,0.6,0.1,0.9,0.1c0.3,0,0.6-0.1,0.7-0.3
		c0.1-0.2,0.2-0.5,0.2-0.9v-8.1h1.9v8.4c0,0.8-0.2,1.4-0.6,1.9S709.8,246.5,709,246.5z M709.5,233.6c0-0.7,0.3-1,1-1
		c0.7,0,1,0.3,1,1c0,0.3-0.1,0.6-0.3,0.7c-0.2,0.2-0.4,0.3-0.8,0.3C709.9,234.7,709.5,234.3,709.5,233.6z"/>
	<path class="st0" d="M718.4,243.1l-0.3-1H718c-0.2,0.4-0.5,0.6-0.9,0.8c-0.4,0.2-0.8,0.3-1.3,0.3c-0.8,0-1.4-0.2-1.8-0.7
		s-0.6-1.2-0.6-2v-4.9h1.9v4.4c0,0.5,0.1,1,0.3,1.2c0.2,0.3,0.5,0.4,0.8,0.4c0.5,0,0.9-0.2,1.1-0.6s0.4-1,0.4-1.9v-3.5h1.9v7.5
		H718.4z"/>
	<path class="st0" d="M726.2,243.1l-0.4-1h0c-0.3,0.4-0.6,0.7-1,0.9c-0.3,0.2-0.8,0.3-1.3,0.3c-0.7,0-1.2-0.2-1.6-0.6
		c-0.4-0.4-0.6-1-0.6-1.8c0-0.8,0.3-1.4,0.8-1.8c0.5-0.4,1.3-0.6,2.3-0.6l1.2,0v-0.3c0-0.8-0.4-1.1-1.1-1.1c-0.6,0-1.2,0.2-2,0.5
		l-0.6-1.4c0.8-0.5,1.7-0.7,2.7-0.7c0.9,0,1.6,0.2,2.1,0.7c0.5,0.4,0.7,1.1,0.7,2v5H726.2z M725.7,239.6l-0.7,0
		c-0.5,0-1,0.1-1.2,0.3c-0.3,0.2-0.4,0.5-0.4,0.9c0,0.6,0.3,0.9,0.9,0.9c0.4,0,0.8-0.1,1.1-0.4s0.4-0.6,0.4-1.1V239.6z"/>
	<path class="st0" d="M731.4,243.1h-1.9v-10.5h1.9V243.1z"/>
</g>
<g>
	<g>
		<path class="st2" d="M397.7,219.5l-12.3,12.3l-6.5-6.5l12.2-12.2c0.8,1.2,1.7,2.3,2.7,3.4C395,217.7,396.3,218.7,397.7,219.5z"/>
		<g>
			<path class="st2" d="M361.3,242.9c-1.8,1.8-1.8,4.7,0,6.5c1.8,1.8,4.7,1.8,6.5,0l17.6-17.6l-6.5-6.5L361.3,242.9z"/>
			<circle class="st2" cx="408" cy="202.3" r="25.7"/>
			<path class="st2" d="M391.2,213.1c-5-7.7-4.1-18.1,2.7-24.9c7.8-7.8,20.5-7.8,28.3,0c7.8,7.8,7.8,20.5,0,28.3
				c-6.6,6.6-16.8,7.6-24.5,3c-1.4-0.8-2.6-1.8-3.8-3C392.8,215.5,391.9,214.3,391.2,213.1"/>
		</g>
	</g>
	<g>
		<g>
			<g>
				<path class="st3" d="M389.5,163.7c0.3,0.3,0.7,0.5,1.2,0.5l37.5,0.1c0.4,0,0.9-0.2,1.2-0.5c0.3-0.3,0.5-0.7,0.5-1.2l0.1-50.6
					c0-0.9-0.7-1.7-1.7-1.7l-1.7,0c-0.2,0-0.4,0.2-0.4,0.4c0,0.2,0.2,0.4,0.4,0.4l1.7,0c0.5,0,0.9,0.4,0.9,0.9l-0.1,50.6
					c0,0.2-0.1,0.4-0.3,0.6c-0.2,0.2-0.4,0.3-0.6,0.3l-37.5-0.1c-0.2,0-0.4-0.1-0.6-0.3c-0.2-0.2-0.3-0.4-0.3-0.6l0.1-50.6
					c0-0.2,0.1-0.4,0.3-0.6c0.2-0.2,0.4-0.3,0.6-0.3l3.4,0c0.2,0,0.4-0.2,0.4-0.4c0-0.2-0.2-0.4-0.4-0.4l-3.4,0
					c-0.4,0-0.9,0.2-1.2,0.5c-0.3,0.3-0.5,0.7-0.5,1.2l-0.1,50.6C389,163,389.2,163.4,389.5,163.7z"/>
			</g>
			<g>
				<path class="st3" d="M408.9,111c0.1,0.1,0.2,0.1,0.3,0.1l2.3,0c0.2,0,0.4-0.2,0.4-0.4c0-0.2-0.2-0.4-0.4-0.4l-2.3,0
					c-0.2,0-0.4,0.2-0.4,0.4C408.8,110.8,408.9,110.9,408.9,111z"/>
			</g>
			<g>
				<path class="st3" d="M389.2,124.9c0.1,0.1,0.2,0.1,0.3,0.1l39.9,0.1c0.2,0,0.4-0.2,0.4-0.4c0-0.2-0.2-0.4-0.4-0.4l-39.9-0.1
					c-0.2,0-0.4,0.2-0.4,0.4C389.1,124.7,389.1,124.8,389.2,124.9z"/>
			</g>
			<g>
				<path class="st3" d="M411.2,115.3l0-6.3c0-0.4,0.2-0.9,0.5-1.2c0.3-0.3,0.7-0.5,1.2-0.5l12.5,0c0.4,0,0.9,0.2,1.2,0.5
					c0.3,0.3,0.5,0.7,0.5,1.2l0,6.3c0,0.4-0.2,0.9-0.5,1.2c-0.3,0.3-0.7,0.5-1.2,0.5l-12.5,0c-0.4,0-0.9-0.2-1.2-0.5
					C411.3,116.2,411.2,115.8,411.2,115.3z M425.3,108.2l-12.5,0c-0.2,0-0.4,0.1-0.6,0.3c-0.2,0.2-0.3,0.4-0.3,0.6l0,6.3
					c0,0.2,0.1,0.4,0.3,0.6c0.2,0.2,0.4,0.3,0.6,0.3l12.5,0c0.2,0,0.4-0.1,0.6-0.3c0.2-0.2,0.3-0.4,0.3-0.6l0-6.3
					c0-0.2-0.1-0.4-0.3-0.6C425.8,108.2,425.6,108.2,425.3,108.2z"/>
			</g>
			<g>
				<path class="st3" d="M393.8,115.3l0-6.3c0-0.4,0.2-0.9,0.5-1.2c0.3-0.3,0.7-0.5,1.2-0.5l12.5,0c0.4,0,0.9,0.2,1.2,0.5
					c0.3,0.3,0.5,0.7,0.5,1.2l0,6.3c0,0.9-0.7,1.7-1.7,1.7l-12.5,0c-0.4,0-0.9-0.2-1.2-0.5C394,116.2,393.8,115.8,393.8,115.3z
					 M408,108.1l-12.5,0c-0.2,0-0.4,0.1-0.6,0.3c-0.2,0.2-0.3,0.4-0.3,0.6l0,6.3c0,0.2,0.1,0.4,0.3,0.6c0.2,0.2,0.4,0.3,0.6,0.3
					l12.5,0c0.5,0,0.9-0.4,0.9-0.9l0-6.3c0-0.2-0.1-0.4-0.3-0.6S408.2,108.1,408,108.1z"/>
			</g>
		</g>
		<g>
			<g>
				
					<ellipse transform="matrix(0.7071 0.7071 -0.7071 0.7071 335.9345 -178.634)" class="st4" cx="383.6" cy="316.2" rx="16.4" ry="18.3"/>
				<path class="st4" d="M348.2,354.6l-3.1-3.1c-0.3-0.3-0.3-0.7,0-0.9l12.4-12.4c0.3-0.3,0.7-0.3,0.9,0l3.1,3.1
					c0.3,0.3,0.3,0.7,0,0.9l-12.4,12.4C348.9,354.9,348.5,354.9,348.2,354.6z"/>
				<path class="st4" d="M366.2,318.1c0,0,0.1,15.4-8.1,23.5"/>
				<path class="st4" d="M381.7,333.5c0,0-15.4-0.1-23.5,8.1"/>
			</g>
			<path class="st4" d="M382.6,352c-1.4,1.4-3.3,2-5.1,1.8c-1.4-0.1-2.7-0.7-3.8-1.8c-1.1-1.1-1.7-2.5-1.8-3.9
				c-0.2-1.8,0.4-3.6,1.8-5c1.4-1.4,3.2-2,5-1.8c1.4,0.1,2.8,0.7,3.9,1.8c1.1,1.1,1.7,2.4,1.8,3.8C384.6,348.7,384,350.6,382.6,352z
				"/>
			<path class="st4" d="M376.9,346.3c-1.4,1.4-3.2,2-5,1.8c-0.2-1.8,0.4-3.6,1.8-5c1.4-1.4,3.2-2,5-1.8
				C378.9,343.1,378.3,344.9,376.9,346.3z"/>
			<path class="st4" d="M382.6,352c-1.4,1.4-3.3,2-5.1,1.8c-0.2-1.8,0.4-3.7,1.8-5.1c1.4-1.4,3.3-2,5.1-1.8
				C384.6,348.7,384,350.6,382.6,352z"/>
			<line class="st4" x1="352.6" y1="343.4" x2="358.8" y2="345.2"/>
			<line class="st4" x1="349.1" y1="346.5" x2="355.3" y2="348.3"/>
			<polyline class="st4" points="384.9,302.4 385.9,303.3 388.7,306.2 391.2,308.7 394.1,311.6 397,314.4 397.6,315 			"/>
			<polyline class="st4" points="380.7,303.1 383.4,305.8 386.3,308.7 388.8,311.2 391.6,314 394.5,316.9 396.9,319.3 			"/>
			<polyline class="st4" points="377.3,304.6 380.9,308.3 383.8,311.1 386.3,313.6 389.2,316.5 392,319.4 395.3,322.6 			"/>
			<polyline class="st4" points="374.5,306.8 378.5,310.7 381.3,313.6 383.8,316.1 386.7,319 389.6,321.8 393.1,325.4 			"/>
			<polyline class="st4" points="372.3,309.5 376,313.2 378.9,316.1 381.4,318.6 384.2,321.4 387.1,324.3 390.4,327.6 			"/>
			<polyline class="st4" points="370.6,312.8 373.5,315.7 376.4,318.5 378.9,321 381.8,323.9 384.6,326.8 387.2,329.3 			"/>
			<polyline class="st4" points="369.7,316.8 371.1,318.1 373.9,321 376.4,323.5 379.3,326.4 382.2,329.2 383.1,330.2 			"/>
			
				<ellipse transform="matrix(0.7071 0.7071 -0.7071 0.7071 336.0037 -178.6631)" class="st4" cx="383.7" cy="316.3" rx="13.5" ry="15.1"/>
			<polyline class="st4" points="373.3,326.6 376.4,323.5 378.9,321 381.4,318.6 383.8,316.1 386.3,313.6 388.8,311.2 391.2,308.7 
				394,305.9 			"/>
			<polyline class="st4" points="376.6,329 379.3,326.4 381.8,323.9 384.2,321.4 386.7,319 389.2,316.5 391.6,314 394.1,311.6 
				396.4,309.3 			"/>
			<polyline class="st4" points="381.2,330.2 382.2,329.2 384.6,326.8 387.1,324.3 389.6,321.8 392,319.4 394.5,316.9 397,314.4 
				397.5,313.8 			"/>
			<polyline class="st4" points="369.8,319.4 371.1,318.1 373.5,315.7 376,313.2 378.5,310.7 380.9,308.3 383.4,305.8 385.9,303.3 
				386.7,302.5 			"/>
			<polyline class="st4" points="371.2,323.8 373.9,321 376.4,318.5 378.9,316.1 381.3,313.6 383.8,311.1 386.3,308.7 388.7,306.2 
				391.1,303.8 			"/>
		</g>
		<g>
			<path class="st4" d="M329.4,284.2h-6.6c-1.2,0-2.2-1-2.2-2.2v-17.6c0-1.2,1-2.2,2.2-2.2h6.6c1.2,0,2.2,1,2.2,2.2V282
				C331.7,283.2,330.6,284.2,329.4,284.2z"/>
			<path class="st4" d="M344.3,284.2h-18.5c-1.1,0-1.9-0.9-1.9-1.9v-5.7c0-1.1,0.9-1.9,1.9-1.9h18.5c1.1,0,1.9,0.9,1.9,1.9v5.7
				C346.2,283.3,345.3,284.2,344.3,284.2z"/>
			<rect x="320.7" y="267.9" class="st4" width="10.8" height="2.2"/>
			<line class="st4" x1="329.2" y1="261.6" x2="329.2" y2="253.7"/>
			<line class="st4" x1="322.7" y1="261.6" x2="322.7" y2="249.6"/>
			
				<ellipse transform="matrix(0.7412 -0.6713 0.6713 0.7412 -84.0718 283.6965)" class="st4" cx="325.9" cy="250.9" rx="2.2" ry="4.4"/>
			<ellipse class="st4" cx="327.7" cy="279.4" rx="2.7" ry="3.4"/>
		</g>
		<g>
			<path class="st4" d="M337.8,324.2c-1.6,0.9-3.5,1.4-5.5,1.4c-1.7,0-3.2-0.4-4.6-1"/>
			<path class="st4" d="M323.2,326.5c2.5,1.9,5.7,3,9.1,3c3.4,0,6.6-1.1,9.2-3.1"/>
			<path class="st4" d="M321,315.6c0-0.4-0.1-0.8-0.1-1.3c0-1.1,0.2-2.1,0.4-3.1"/>
			<path class="st4" d="M347.1,317.5c0.2-1,0.4-2.1,0.4-3.3c0-8.4-6.8-15.2-15.2-15.2s-15.2,6.8-15.2,15.2c0,1.7,0.3,3.4,0.8,4.9"/>
			<path class="st4" d="M343.2,311.2c0.3,1,0.4,2,0.4,3.1c0,0.3,0,0.6,0,0.9"/>
			<path class="st4" d="M321.4,311.2c1.4-4.8,5.7-8.3,10.9-8.3s9.6,3.5,10.9,8.3"/>
			<path class="st4" d="M332.3,302.9c-5.2,0-9.6,3.5-10.9,8.3h21.9C341.9,306.4,337.5,302.9,332.3,302.9z"/>
			<path class="st4" d="M343.2,311.2h-21.9c-0.3,1-0.4,2-0.4,3.1c0,0.4,0,0.9,0.1,1.3c0.7-0.3,1.6-0.5,2.4-0.5
				c3.2,0,5.8,2.6,5.8,5.8c0,1.5-0.6,2.9-1.5,3.9c1.4,0.6,3,1,4.6,1c2,0,3.9-0.5,5.5-1.4c-0.7-1-1.2-2.2-1.2-3.5
				c0-3.2,2.6-5.8,5.8-5.8c0.4,0,0.8,0,1.2,0.1c0-0.3,0-0.6,0-0.9C343.6,313.2,343.5,312.2,343.2,311.2z M332.3,315.7
				c-0.8,0-1.4-0.6-1.4-1.4c0-0.8,0.6-1.4,1.4-1.4c0.8,0,1.4,0.6,1.4,1.4C333.7,315.1,333.1,315.7,332.3,315.7z"/>
			<circle class="st4" cx="332.3" cy="314.3" r="1.4"/>
			<path class="st4" d="M327.6,324.7c-3.6-1.6-6.2-5-6.7-9.1"/>
			<path class="st4" d="M317.9,319.2c1,2.9,2.9,5.5,5.3,7.3"/>
			<path class="st4" d="M323.4,315c-0.9,0-1.7,0.2-2.4,0.5c0.5,4.1,3.1,7.5,6.7,9.1c0.9-1,1.5-2.4,1.5-3.9
				C329.2,317.6,326.6,315,323.4,315z"/>
			<path class="st4" d="M341.5,326.4c2.8-2.2,4.9-5.3,5.7-8.9"/>
			<path class="st4" d="M343.6,315.1c-0.3,3.9-2.6,7.3-5.8,9.1"/>
			<path class="st4" d="M336.6,320.8c0,1.3,0.4,2.5,1.2,3.5c3.2-1.8,5.5-5.2,5.8-9.1c-0.4-0.1-0.8-0.1-1.2-0.1
				C339.2,315,336.6,317.6,336.6,320.8z"/>
		</g>
		<path class="st5" d="M335.5,163.6c0,0-0.7,3.6-4.3,4.1c3.6,0.5,4.3,4.1,4.3,4.1s0.7-3.6,4.3-4.1
			C336.2,167.2,335.5,163.6,335.5,163.6"/>
		<path class="st5" d="M348.9,247.5c0,0-1.7,8.9-10.5,10.2c8.8,1.3,10.5,10.1,10.5,10.1s1.7-8.9,10.5-10.1
			C350.6,256.3,348.9,247.5,348.9,247.5"/>
		<g>
			<path class="st4" d="M321.2,165.8c0,4.7-3.7,4.2-3.7,4.2h-13.7c-3,0-5.9-1.2-8.1-3.3L285,156.2v14.7h-3.5l-1.9-15.1
				c-2-13.3,6.5-14.3,6.5-14.3l17.6,21.3l0,0l4.8-2.3L321.2,165.8z"/>
			<line class="st4" x1="285" y1="156.2" x2="279.9" y2="156.2"/>
		</g>
		<g>
			<polyline class="st4" points="317,195.8 317,181.7 303.5,181.7 303.5,195.1 			"/>
			<polyline class="st4" points="315.9,217.6 317,217.6 317,229.9 303.5,229.9 303.5,217.6 303.7,217.6 			"/>
			<circle class="st4" cx="309.8" cy="206.3" r="12.8"/>
			<circle class="st4" cx="309.8" cy="206.3" r="9.5"/>
			
				<rect x="321.9" y="210.1" transform="matrix(0.9191 0.394 -0.394 0.9191 109.539 -110.32)" class="st4" width="3.2" height="3.1"/>
			
				<rect x="321.7" y="199.5" transform="matrix(-0.9191 0.394 -0.394 -0.9191 699.6604 258.4769)" class="st4" width="3.2" height="3.1"/>
			<polyline class="st4" points="309.8,200 309.8,206.3 315.7,206.3 			"/>
			<circle class="st6" cx="309.7" cy="206.4" r="2.1"/>
			<line class="st4" x1="303.5" y1="190.4" x2="316.2" y2="190.4"/>
			<line class="st4" x1="303.5" y1="186.3" x2="316.2" y2="186.3"/>
			<line class="st4" x1="304" y1="226.1" x2="316.6" y2="226.1"/>
			<line class="st4" x1="304" y1="221.9" x2="316.6" y2="221.9"/>
		</g>
		<path class="st4" d="M294.7,255.7l-12.5-44.5c0,0,7.9-4.6,4.8-14.7h-3.5l-2.6-14h-4.6v7.3c0,3-2.4,5.4-5.4,5.4
			c-3,0-5.4-2.4-5.4-5.4v-7.3h-4.6l-2.6,14h-2.9c0,0-1.1,12.1,4.8,14.7l-12.9,44.5H294.7z"/>
		<g>
			<path class="st4" d="M346.1,221.4h19.7c3.2,0,5.8-2.6,5.8-5.8v-27c0-3.2-2.6-5.8-5.8-5.8h-24.7c-1.2,0-2.1,0.9-2.1,2.1v34.5
				c0,1.2,0.9,2.1,2.1,2.1h0.3"/>
			<line class="st4" x1="339" y1="214" x2="371.7" y2="214"/>
			<polygon class="st4" points="343.8,216.7 341.4,216.7 341.4,226 343.8,224.1 346.1,226 346.1,216.7 			"/>
			<rect x="346.9" y="187.6" class="st4" width="20.8" height="8"/>
			<line class="st4" x1="339" y1="216.7" x2="365.4" y2="216.7"/>
			<line class="st4" x1="342.6" y1="182.7" x2="342.6" y2="214"/>
		</g>
		<g>
			<g>
				<path class="st4" d="M294.5,275.2l9.5,1.2c1.4,0,2.6,1,2.6,2.1l0,41.9c0,1.2-1.2,2.1-2.6,2.1l-39.8,0c-1.4,0-2.6-1-2.6-2.1
					v-41.9c0-1.2,1.2-2.1,2.6-2.1l6.7-1.2"/>
				<line class="st4" x1="282.9" y1="280.4" x2="282.9" y2="322.5"/>
				<polygon class="st4" points="301.8,301.3 296.3,303.2 290.7,301.3 290.7,290.7 301.8,290.7 				"/>
				<line class="st4" x1="274.7" y1="271.5" x2="290.7" y2="271.5"/>
				
					<rect x="274.4" y="271.6" transform="matrix(0.7071 -0.7071 0.7071 0.7071 -115.1927 277.08)" class="st4" width="5" height="11.9"/>
				
					<rect x="286" y="271.9" transform="matrix(-0.7071 -0.7071 0.7071 -0.7071 296.3199 677.8738)" class="st4" width="5" height="11.4"/>
				<circle class="st4" cx="286.6" cy="288.5" r="0.8"/>
				<circle class="st4" cx="286.6" cy="293.4" r="0.8"/>
				<circle class="st4" cx="286.6" cy="298.4" r="0.8"/>
				<circle class="st4" cx="286.6" cy="303.3" r="0.8"/>
				<circle class="st4" cx="286.6" cy="308.3" r="0.8"/>
				<circle class="st4" cx="286.6" cy="313.2" r="0.8"/>
				<circle class="st4" cx="286.6" cy="318.2" r="0.8"/>
			</g>
		</g>
		<g>
			<path class="st4" d="M371.4,122.7v45.2l-10.6,0c-4.3,0.4-4.7-2.4-4.7-2.4V163c2.1-0.8,3.6-2.7,3.6-5c0-2.2-1.4-4-3.4-4.9
				l9.9-19.2C362.7,122.4,371.4,122.7,371.4,122.7z"/>
			<rect x="371.3" y="122.8" class="st7" width="4.8" height="44.9"/>
			<line class="st4" x1="359.9" y1="146.3" x2="363.8" y2="149.2"/>
			<line class="st4" x1="361.7" y1="142.4" x2="365.6" y2="145.4"/>
			<line class="st4" x1="363.3" y1="139" x2="367.2" y2="141.9"/>
			<path class="st4" d="M362.8,167.9c0,0-1.2-9.4,8.6-9.8"/>
			<line class="st4" x1="366.2" y1="134" x2="371.4" y2="134"/>
		</g>
		<g>
			<path class="st8" d="M350,145.9h-40.8c-1,0-1.7-0.8-1.7-1.9V122c0-1,0.8-1.9,1.7-1.9H350c1,0,1.7,0.8,1.7,1.9V144
				C351.7,145.1,350.9,145.9,350,145.9z"/>
			<line class="st8" x1="307.5" y1="125.6" x2="351.7" y2="125.6"/>
			<circle class="st8" cx="329.9" cy="135.7" r="5.2"/>
			<line class="st8" x1="317.1" y1="125.6" x2="317.1" y2="145.9"/>
			<line class="st8" x1="342.6" y1="125.6" x2="342.6" y2="145.9"/>
			<rect x="309.2" y="116.9" class="st8" width="8.7" height="3.2"/>
		</g>
		<g>
			<rect x="438.3" y="260.1" class="st4" width="2.1" height="25.9"/>
			<g>
				<circle class="st4" cx="420.5" cy="334.3" r="3.8"/>
				<circle class="st4" cx="437.1" cy="334.3" r="3.8"/>
				
					<rect x="408.3" y="272.1" transform="matrix(-4.746055e-003 1 -1 -4.746055e-003 696.3283 -146.6869)" class="st4" width="25.7" height="2.1"/>
				<path class="st4" d="M413,328.3v-41c0-0.7,0.6-1.3,1.3-1.3h30.1c0.7,0,1.3,0.6,1.3,1.3v41c0,0.7-0.6,1.3-1.3,1.3h-30.1
					C413.5,329.6,413,329.1,413,328.3z"/>
				<path class="st4" d="M418.8,258.7v-1.3c0-0.8,0.7-1.5,1.5-1.5h20.8c0.8,0,1.5,0.7,1.5,1.5v1.3c0,0.8-0.7,1.5-1.5,1.5h-20.8
					C419.5,260.2,418.8,259.5,418.8,258.7z"/>
				<polyline class="st4" points="413,290 443.4,290 445.7,290 				"/>
			</g>
			<line class="st4" x1="441.5" y1="329" x2="441.5" y2="290"/>
			<line class="st4" x1="413.3" y1="294.4" x2="436.6" y2="294.4"/>
			<line class="st4" x1="413.3" y1="298.1" x2="436.6" y2="298.1"/>
			<line class="st4" x1="413.3" y1="301.9" x2="436.6" y2="301.9"/>
			<line class="st4" x1="413.3" y1="305.6" x2="436.6" y2="305.6"/>
			<line class="st4" x1="413.3" y1="309.4" x2="436.6" y2="309.4"/>
			<line class="st4" x1="413.3" y1="313.1" x2="436.6" y2="313.1"/>
			<line class="st4" x1="413.3" y1="316.9" x2="436.6" y2="316.9"/>
			<line class="st4" x1="413.3" y1="320.6" x2="436.6" y2="320.6"/>
			<line class="st4" x1="413.3" y1="324.4" x2="436.6" y2="324.4"/>
		</g>
		<g>
			<polygon class="st4" points="400.1,284.9 375.3,284.9 375.3,262 378.3,259.6 378.3,259.6 397,259.6 400.1,261.8 400.1,261.8 			
				"/>
			<rect x="381.9" y="264.4" class="st4" width="12.1" height="7"/>
			<rect x="381.7" y="257" class="st4" width="12" height="2.6"/>
			<line class="st4" x1="383.4" y1="268.8" x2="392.2" y2="268.8"/>
			<line class="st4" x1="378.3" y1="259.6" x2="378.3" y2="284.8"/>
			<line class="st4" x1="397" y1="259.6" x2="397" y2="284.8"/>
			<rect x="383.4" y="254.7" class="st4" width="8.9" height="2.4"/>
			<rect x="383.4" y="252.3" class="st4" width="8.9" height="2.4"/>
			<line class="st4" x1="388" y1="254.7" x2="395.4" y2="254.7"/>
			<circle class="st4" cx="397.1" cy="254.7" r="1.8"/>
		</g>
		<g>
			<path class="st4" d="M488.9,296.4h-34.4c-1.5,0-2.7-2.1-2.7-4.7h37.1"/>
			<path class="st4" d="M488.9,288.1h-28.4c-1.2,0-2.1-1-2.1-2.1v-19.7c0-1.2,1-2.1,2.1-2.1H492c1.2,0,2.1,1,2.1,2.1V277"/>
			<path class="st4" d="M488.9,291.7h-30.4c-2.1,0-3.7-1.7-3.7-3.7v-23.6c0-2.1,1.7-3.7,3.7-3.7h35.4c2.1,0,3.7,1.7,3.7,3.7V277"/>
			<path class="st4" d="M500.8,302.4h-9.1c-1.6,0-2.8-1.3-2.8-2.8v-19.7c0-1.6,1.3-2.8,2.8-2.8h9.1c1.6,0,2.8,1.3,2.8,2.8v19.7
				C503.6,301.1,502.3,302.4,500.8,302.4z"/>
			<circle class="st4" cx="496.2" cy="299" r="1.4"/>
			<rect x="491.2" y="280.1" class="st4" width="10.1" height="14.7"/>
		</g>
		<g>
			<circle class="st4" cx="455.7" cy="156.1" r="13.7"/>
			<circle class="st4" cx="455.7" cy="156.1" r="10.2"/>
			<polyline class="st4" points="463.5,139.4 469.4,138.4 474.4,143.3 474.4,148.2 467.6,149.4 			"/>
			<line class="st4" x1="464" y1="139.7" x2="474.4" y2="148.2"/>
			<polyline class="st4" points="469.4,138.4 469.1,143.9 474.4,143.3 			"/>
			<line class="st4" x1="463.5" y1="139.4" x2="463.5" y2="144.9"/>
			<line class="st4" x1="465.1" y1="146.2" x2="466.5" y2="141.7"/>
			<line class="st4" x1="465.9" y1="147.1" x2="469.1" y2="143.9"/>
			<line class="st4" x1="466.8" y1="148.2" x2="471.7" y2="146.2"/>
		</g>
		<path class="st9" d="M456,131c-0.8-1.6-2.2-3.7-4.8-4.9c2.6-1.2,4-3.3,4.8-4.9c0.8,1.6,2.2,3.7,4.8,4.9
			C458.2,127.3,456.7,129.4,456,131z"/>
	</g>
</g>
</svg>
