<?xml version="1.0" encoding="utf-8"?>
<!-- Generator: Adobe Illustrator 19.0.0, SVG Export Plug-In . SVG Version: 6.00 Build 0)  -->
<svg version="1.1" id="Layer_1" xmlns="http://www.w3.org/2000/svg" xmlns:xlink="http://www.w3.org/1999/xlink" x="0px" y="0px"
	 viewBox="418.4 205.2 476 274" style="enable-background:new 418.4 205.2 476 274;" xml:space="preserve">
<style type="text/css">
	.st0{fill:#D1D1D1;}
	.st1{fill:#9EA6A8;}
	.st2{fill:#FFFFFF;}
	.st3{fill:#4E5C5E;}
	.st4{fill:#AAA5A3;}
	.st5{fill:none;stroke:#D1D1D1;stroke-miterlimit:10;}
	.st6{fill:#FF6633;}
	.st7{fill:#FFFFFF;stroke:#D1D1D1;stroke-miterlimit:10;}
</style>
<g>
	<g>
		<path class="st0" d="M850.4,467.2h-388c-7.7,0-14-6.3-14-14v-234c0-7.7,6.3-14,14-14h388c7.7,0,14,6.3,14,14v234
			C864.4,460.9,858.1,467.2,850.4,467.2z"/>
		<rect x="466.6" y="231.2" class="st1" width="377.6" height="236"/>
		<rect x="479.5" y="264.2" class="st2" width="351.5" height="173.3"/>
		<path class="st0" d="M418.4,451.2L418.4,451.2c0,15.4,12.6,28,28,28h420c15.4,0,28-12.6,28-28v0H418.4z"/>
		<rect x="479.5" y="236.9" class="st0" width="352.3" height="13.7"/>
		<rect x="479.5" y="250.5" class="st3" width="351.5" height="13.7"/>
		<circle class="st2" cx="490.4" cy="243.9" r="3.3"/>
		<circle class="st2" cx="501.1" cy="243.9" r="3.3"/>
		<circle class="st2" cx="511.9" cy="243.9" r="3.3"/>
	</g>
	<circle class="st2" cx="727.9" cy="412.9" r="2.9"/>
	<path class="st4" d="M714,460.8H603.4c-4,0-7.4-3.3-7.4-7.4l0,0c0-4,3.3-7.4,7.4-7.4H714c4,0,7.4,3.3,7.4,7.4l0,0
		C721.3,457.5,718,460.8,714,460.8z"/>
	<rect x="562.6" y="273.2" class="st5" width="176.5" height="19"/>
	<rect x="739.1" y="273.2" class="st6" width="35.5" height="19"/>
	<g>
		<path class="st3" d="M568.5,276.3c0-0.7,0.4-1.1,1.1-1.1c0.7,0,1.1,0.4,1.1,1.1c0,0.3-0.1,0.6-0.3,0.8c-0.2,0.2-0.5,0.3-0.8,0.3
			C568.8,277.4,568.5,277,568.5,276.3z M570.6,286.6h-2.1v-8.2h2.1V286.6z"/>
		<path class="st3" d="M576.9,286.7c-0.9,0-1.6-0.3-2.1-1h-0.1c0.1,0.7,0.1,1.1,0.1,1.2v3.3h-2.1v-11.8h1.7l0.3,1.1h0.1
			c0.5-0.8,1.2-1.2,2.1-1.2c0.9,0,1.6,0.4,2.1,1.1c0.5,0.7,0.8,1.8,0.8,3.1c0,0.9-0.1,1.6-0.4,2.3c-0.2,0.6-0.6,1.1-1,1.5
			S577.5,286.7,576.9,286.7z M576.3,280c-0.5,0-0.9,0.2-1.1,0.5s-0.4,0.9-0.4,1.7v0.2c0,0.9,0.1,1.5,0.4,1.9s0.6,0.6,1.1,0.6
			c0.9,0,1.4-0.8,1.4-2.5c0-0.8-0.1-1.4-0.3-1.8C577.1,280.2,576.8,280,576.3,280z"/>
		<path class="st3" d="M585.7,278.2c0.3,0,0.5,0,0.7,0.1l-0.2,2.1c-0.2,0-0.4-0.1-0.6-0.1c-0.7,0-1.2,0.2-1.5,0.5
			c-0.4,0.4-0.5,0.9-0.5,1.5v4.2h-2.1v-8.2h1.6l0.3,1.4h0.1c0.2-0.5,0.5-0.8,0.9-1.1S585.2,278.2,585.7,278.2z"/>
		<path class="st3" d="M587.6,276.3c0-0.7,0.4-1.1,1.1-1.1s1.1,0.4,1.1,1.1c0,0.3-0.1,0.6-0.3,0.8c-0.2,0.2-0.5,0.3-0.8,0.3
			C588,277.4,587.6,277,587.6,276.3z M589.8,286.6h-2.1v-8.2h2.1V286.6z"/>
		<path class="st3" d="M595,286.7c-2.3,0-3.5-1.4-3.5-4.2c0-1.4,0.3-2.5,1-3.2c0.6-0.7,1.6-1.1,2.7-1.1c0.9,0,1.7,0.2,2.3,0.6
			l-0.6,1.7c-0.3-0.1-0.6-0.3-0.9-0.3c-0.3-0.1-0.6-0.1-0.8-0.1c-1.1,0-1.6,0.8-1.6,2.5c0,1.6,0.5,2.4,1.6,2.4
			c0.4,0,0.8-0.1,1.1-0.2c0.3-0.1,0.7-0.3,1-0.5v1.9c-0.3,0.2-0.7,0.4-1,0.5S595.5,286.7,595,286.7z"/>
		<path class="st3" d="M602.4,286.7c-1.2,0-2.2-0.4-2.8-1.1s-1-1.8-1-3.1c0-1.4,0.3-2.4,0.9-3.2s1.5-1.1,2.6-1.1
			c1.1,0,1.9,0.3,2.5,1c0.6,0.7,0.9,1.6,0.9,2.7v1.1h-4.9c0,0.6,0.2,1.1,0.5,1.5s0.8,0.5,1.4,0.5c0.5,0,0.9-0.1,1.3-0.2
			c0.4-0.1,0.8-0.3,1.3-0.5v1.7c-0.4,0.2-0.7,0.3-1.2,0.4C603.5,286.7,603,286.7,602.4,286.7z M602.1,279.8c-0.4,0-0.8,0.2-1,0.5
			c-0.2,0.3-0.4,0.7-0.4,1.3h2.9c0-0.6-0.1-1-0.4-1.3C602.9,280,602.6,279.8,602.1,279.8z"/>
		<path class="st3" d="M606.9,285.5c0-0.4,0.1-0.7,0.3-0.9s0.5-0.3,0.9-0.3c0.4,0,0.7,0.1,0.9,0.3s0.3,0.5,0.3,0.9
			c0,0.4-0.1,0.7-0.3,0.9c-0.2,0.2-0.5,0.3-0.9,0.3c-0.4,0-0.7-0.1-0.9-0.3C607,286.2,606.9,285.9,606.9,285.5z"/>
		<path class="st3" d="M614.2,286.7c-2.3,0-3.5-1.4-3.5-4.2c0-1.4,0.3-2.5,1-3.2c0.6-0.7,1.6-1.1,2.7-1.1c0.9,0,1.7,0.2,2.3,0.6
			l-0.6,1.7c-0.3-0.1-0.6-0.3-0.9-0.3c-0.3-0.1-0.6-0.1-0.8-0.1c-1.1,0-1.6,0.8-1.6,2.5c0,1.6,0.5,2.4,1.6,2.4
			c0.4,0,0.8-0.1,1.1-0.2c0.3-0.1,0.7-0.3,1-0.5v1.9c-0.3,0.2-0.7,0.4-1,0.5S614.7,286.7,614.2,286.7z"/>
		<path class="st3" d="M625,282.5c0,1.3-0.3,2.4-1,3.1c-0.6,0.8-1.5,1.1-2.7,1.1c-0.7,0-1.4-0.2-1.9-0.5c-0.6-0.3-1-0.8-1.3-1.5
			c-0.3-0.6-0.4-1.4-0.4-2.3c0-1.3,0.3-2.4,1-3.1s1.5-1.1,2.7-1.1c0.7,0,1.4,0.2,1.9,0.5s1,0.8,1.3,1.5S625,281.6,625,282.5z
			 M619.8,282.5c0,0.8,0.1,1.4,0.4,1.8c0.2,0.4,0.6,0.6,1.2,0.6c0.5,0,0.9-0.2,1.2-0.6s0.4-1,0.4-1.8c0-0.8-0.1-1.4-0.4-1.8
			s-0.6-0.6-1.2-0.6c-0.5,0-0.9,0.2-1.2,0.6C620,281,619.8,281.6,619.8,282.5z"/>
		<path class="st3" d="M626.4,285.5c0-0.4,0.1-0.7,0.3-0.9s0.5-0.3,0.9-0.3c0.4,0,0.7,0.1,0.9,0.3c0.2,0.2,0.3,0.5,0.3,0.9
			c0,0.4-0.1,0.7-0.3,0.9c-0.2,0.2-0.5,0.3-0.9,0.3c-0.4,0-0.7-0.1-0.9-0.3C626.5,286.2,626.4,285.9,626.4,285.5z"/>
		<path class="st3" d="M630.6,276.3c0-0.7,0.4-1.1,1.1-1.1c0.7,0,1.1,0.4,1.1,1.1c0,0.3-0.1,0.6-0.3,0.8c-0.2,0.2-0.5,0.3-0.8,0.3
			C631,277.4,630.6,277,630.6,276.3z M632.7,286.6h-2.1v-8.2h2.1V286.6z"/>
		<path class="st3" d="M637.3,286.7c-0.9,0-1.6-0.4-2.1-1.1s-0.8-1.8-0.8-3.1c0-1.3,0.3-2.4,0.8-3.1s1.2-1.1,2.1-1.1
			c0.9,0,1.7,0.4,2.2,1.2h0.1c-0.1-0.6-0.2-1.2-0.2-1.6v-2.6h2.1v11.4h-1.6l-0.4-1.1h-0.1C638.9,286.3,638.2,286.7,637.3,286.7z
			 M638,284.9c0.5,0,0.9-0.2,1.2-0.5c0.2-0.3,0.4-0.9,0.4-1.7v-0.2c0-0.9-0.1-1.5-0.4-1.9s-0.7-0.6-1.2-0.6c-0.5,0-0.8,0.2-1.1,0.6
			c-0.3,0.4-0.4,1-0.4,1.8s0.1,1.4,0.4,1.8C637.1,284.7,637.5,284.9,638,284.9z"/>
	</g>
	<rect x="583.7" y="306.6" class="st0" width="210" height="11.5"/>
	<rect x="583.7" y="324.3" class="st0" width="177.3" height="5.7"/>
	<rect x="583.7" y="335.1" class="st0" width="177.3" height="5.7"/>
	<rect x="583.7" y="346" class="st0" width="177.3" height="5.7"/>
	<rect x="583.7" y="362.2" class="st0" width="210" height="11.5"/>
	<rect x="583.7" y="379.9" class="st0" width="177.3" height="5.7"/>
	<rect x="583.7" y="390.7" class="st0" width="177.3" height="5.7"/>
	<rect x="583.7" y="401.6" class="st0" width="177.3" height="5.7"/>
	<rect x="562.6" y="292.2" class="st7" width="176.5" height="97"/>
</g>
</svg>
