<?xml version="1.0" encoding="utf-8"?>
<!-- Generator: Adobe Illustrator 19.0.0, SVG Export Plug-In . SVG Version: 6.00 Build 0)  -->
<svg version="1.1" id="Layer_1" xmlns="http://www.w3.org/2000/svg" xmlns:xlink="http://www.w3.org/1999/xlink" x="0px" y="0px"
	 viewBox="990.5 199.8 247.3 241.5" style="enable-background:new 990.5 199.8 247.3 241.5;" xml:space="preserve">
<style type="text/css">
	.st0{fill:#33CCCC;}
	.st1{fill:#3F3F3F;}
	.st2{fill:none;stroke:#FFFFFF;stroke-width:1.5;stroke-miterlimit:10;}
</style>
<rect x="990.5" y="199.8" class="st0" width="247.3" height="241.5"/>
<g>
	<g>
		<path class="st1" d="M1047.2,335c0,2.4-0.6,4.2-1.8,5.4s-2.9,1.9-5.1,1.9h-3.7V328h4c2,0,3.6,0.6,4.8,1.8S1047.2,332.8,1047.2,335
			z M1045.5,335.1c0-1.8-0.4-3.2-1.2-4.1c-0.8-0.9-2.1-1.4-3.7-1.4h-2.2v11.2h1.8C1043.7,340.7,1045.5,338.8,1045.5,335.1z"/>
		<path class="st1" d="M1049.8,328.7c0-0.4,0.1-0.7,0.3-0.8s0.4-0.3,0.7-0.3c0.3,0,0.5,0.1,0.7,0.3s0.3,0.5,0.3,0.8
			c0,0.4-0.1,0.7-0.3,0.8s-0.4,0.3-0.7,0.3c-0.3,0-0.5-0.1-0.7-0.3S1049.8,329,1049.8,328.7z M1051.5,342.3h-1.6v-10.7h1.6V342.3z"
			/>
		<path class="st1" d="M1057.9,341c0.2,0,0.5,0,0.7-0.1s0.5-0.1,0.6-0.2v1.3c-0.1,0.1-0.4,0.1-0.7,0.2s-0.6,0.1-1,0.1
			c-1.9,0-2.9-1.1-2.9-3.3v-6.2h-1.4v-0.8l1.4-0.7l0.6-2.3h1v2.5h2.8v1.4h-2.8v6.2c0,0.6,0.1,1.1,0.4,1.4S1057.4,341,1057.9,341z"/>
		<path class="st1" d="M1067.4,342.3l-0.3-1.5h-0.1c-0.5,0.7-1,1.1-1.5,1.4s-1.1,0.4-1.8,0.4c-1,0-1.7-0.3-2.3-0.8
			c-0.6-0.6-0.8-1.3-0.8-2.3c0-2.2,1.6-3.3,4.7-3.4l1.7-0.1v-0.6c0-0.8-0.2-1.4-0.5-1.8s-0.8-0.6-1.6-0.6c-0.5,0-1,0.1-1.5,0.3
			s-0.9,0.4-1.3,0.6l-0.5-1.3c0.5-0.3,1-0.5,1.6-0.7c0.6-0.2,1.2-0.2,1.7-0.2c1.2,0,2.1,0.3,2.7,0.9c0.6,0.6,0.9,1.5,0.9,2.7v7.3
			H1067.4z M1064,341.1c0.9,0,1.6-0.3,2.1-0.8s0.8-1.3,0.8-2.3v-1l-1.5,0.1c-1.1,0-2,0.2-2.5,0.6s-0.8,0.9-0.8,1.6
			c0,0.6,0.2,1,0.5,1.3C1063,340.9,1063.5,341.1,1064,341.1z"/>
		<path class="st1" d="M1084.1,342.3v-6.9c0-1.7-0.7-2.5-2-2.5c-0.9,0-1.6,0.3-2,0.9s-0.6,1.5-0.6,2.7v5.9h-1.6v-6.9
			c0-0.8-0.2-1.5-0.5-1.9s-0.8-0.6-1.5-0.6c-0.9,0-1.6,0.3-2,0.9s-0.6,1.6-0.6,3v5.6h-1.6v-10.7h1.3l0.2,1.5h0.1
			c0.3-0.5,0.7-0.9,1.2-1.2s1.1-0.4,1.7-0.4c1.5,0,2.5,0.6,3,1.8h0.1c0.3-0.6,0.8-1,1.3-1.3c0.5-0.3,1.2-0.5,1.9-0.5
			c1.1,0,1.9,0.3,2.5,0.9c0.6,0.6,0.8,1.6,0.8,3v7H1084.1z"/>
		<path class="st1" d="M1093.4,331.4c1.3,0,2.3,0.5,3,1.5s1.1,2.3,1.1,4.1c0,1.8-0.4,3.1-1.1,4.1c-0.7,1-1.7,1.5-3,1.5
			c-0.7,0-1.3-0.1-1.8-0.4c-0.5-0.3-0.9-0.6-1.3-1.2h-0.1c-0.2,0.8-0.3,1.2-0.3,1.4h-1.2v-15.2h1.6v3.7c0,0.7,0,1.5-0.1,2.2h0.1
			C1091.1,331.9,1092.1,331.4,1093.4,331.4z M1093.2,332.8c-1,0-1.7,0.3-2.1,0.9s-0.6,1.6-0.6,3.1v0.1c0,1.5,0.2,2.5,0.7,3.1
			s1.2,0.9,2.2,0.9c0.9,0,1.5-0.4,2-1.1c0.4-0.7,0.7-1.7,0.7-3.1c0-1.4-0.2-2.4-0.7-3C1094.7,333.2,1094.1,332.8,1093.2,332.8z"/>
		<path class="st1" d="M1106.2,342.3l-0.3-1.5h-0.1c-0.5,0.7-1,1.1-1.5,1.4s-1.1,0.4-1.8,0.4c-1,0-1.7-0.3-2.3-0.8
			c-0.6-0.6-0.8-1.3-0.8-2.3c0-2.2,1.6-3.3,4.7-3.4l1.7-0.1v-0.6c0-0.8-0.2-1.4-0.5-1.8s-0.8-0.6-1.6-0.6c-0.5,0-1,0.1-1.5,0.3
			s-0.9,0.4-1.3,0.6l-0.5-1.3c0.5-0.3,1-0.5,1.6-0.7c0.6-0.2,1.2-0.2,1.7-0.2c1.2,0,2.1,0.3,2.7,0.9c0.6,0.6,0.9,1.5,0.9,2.7v7.3
			H1106.2z M1102.8,341.1c0.9,0,1.6-0.3,2.1-0.8s0.8-1.3,0.8-2.3v-1l-1.5,0.1c-1.1,0-2,0.2-2.5,0.6s-0.8,0.9-0.8,1.6
			c0,0.6,0.2,1,0.5,1.3C1101.8,340.9,1102.3,341.1,1102.8,341.1z"/>
		<path class="st1" d="M1117.1,342.3v-6.9c0-0.9-0.2-1.5-0.5-1.9c-0.4-0.4-0.9-0.6-1.7-0.6c-1,0-1.7,0.3-2.2,0.9s-0.7,1.6-0.7,3v5.5
			h-1.6v-15.2h1.6v4.5c0,0.6,0,1.1-0.1,1.5h0.1c0.3-0.5,0.7-0.9,1.2-1.2c0.5-0.3,1.1-0.4,1.8-0.4c1.2,0,2.1,0.3,2.7,0.9
			s0.9,1.6,0.9,3v7H1117.1z"/>
		<path class="st1" d="M1130,342.5c-1.3,0-2.3-0.5-3-1.4s-1.1-2.3-1.1-4.1c0-1.8,0.4-3.1,1.1-4.1s1.7-1.5,3-1.5
			c1.3,0,2.3,0.5,3.1,1.6h0.1c0-0.1,0-0.4-0.1-0.8c0-0.4,0-0.7,0-0.8v-4.3h1.6v15.2h-1.3l-0.2-1.4h-0.1
			C1132.4,341.9,1131.4,342.5,1130,342.5z M1130.3,341c1,0,1.7-0.3,2.2-0.9c0.5-0.6,0.7-1.5,0.7-2.9V337c0-1.5-0.2-2.6-0.7-3.2
			c-0.5-0.6-1.2-1-2.2-1c-0.8,0-1.5,0.4-1.9,1.1s-0.7,1.7-0.7,3.1c0,1.3,0.2,2.3,0.7,3C1128.8,340.7,1129.4,341,1130.3,341z"/>
		<path class="st1" d="M1142,342.5c-1.5,0-2.6-0.5-3.5-1.5s-1.3-2.3-1.3-4c0-1.7,0.4-3.1,1.2-4.1s1.8-1.5,3.2-1.5
			c1.2,0,2.2,0.4,3,1.3s1.1,2,1.1,3.5v1.1h-6.8c0,1.2,0.3,2.1,0.9,2.8c0.5,0.6,1.3,0.9,2.3,0.9c0.5,0,1-0.1,1.5-0.2
			c0.5-0.1,1-0.3,1.7-0.6v1.5c-0.5,0.3-1.1,0.4-1.5,0.5C1143.3,342.4,1142.7,342.5,1142,342.5z M1141.6,332.8
			c-0.8,0-1.4,0.3-1.8,0.8c-0.4,0.5-0.7,1.3-0.8,2.3h5c0-1-0.2-1.8-0.6-2.3S1142.4,332.8,1141.6,332.8z"/>
		<path class="st1" d="M1154.9,342.3v-6.9c0-0.9-0.2-1.5-0.5-1.9c-0.4-0.4-0.9-0.6-1.7-0.6c-1,0-1.7,0.3-2.2,0.9
			c-0.5,0.6-0.7,1.6-0.7,3v5.6h-1.6v-10.7h1.3l0.2,1.5h0.1c0.3-0.5,0.7-0.9,1.3-1.2s1.2-0.4,1.8-0.4c1.2,0,2.1,0.3,2.7,1
			c0.6,0.6,0.9,1.6,0.9,3v7H1154.9z"/>
		<path class="st1" d="M1166.2,342.2l0.1-1.3h-0.1c-0.7,1.1-1.7,1.6-3.1,1.6c-1.3,0-2.3-0.5-3-1.5s-1.1-2.3-1.1-4.1
			c0-1.7,0.4-3.1,1.1-4.1s1.7-1.5,3-1.5c1.3,0,2.4,0.5,3.1,1.6h0.1l0.2-1.4h1.3v10.9c0,1.5-0.4,2.7-1.1,3.5s-1.8,1.2-3.3,1.2
			c-1.4,0-2.6-0.2-3.5-0.7v-1.6c1,0.6,2.2,0.8,3.6,0.8c0.8,0,1.5-0.3,2-0.8c0.5-0.5,0.7-1.3,0.7-2.2V342.2z M1163.3,341
			c1,0,1.7-0.3,2.2-0.9s0.7-1.5,0.7-2.8v-0.4c0-1.4-0.2-2.5-0.7-3.1c-0.5-0.7-1.2-1-2.2-1c-0.8,0-1.5,0.4-1.9,1.1s-0.7,1.7-0.7,3.1
			c0,1.3,0.2,2.3,0.7,3C1161.8,340.7,1162.5,341,1163.3,341z"/>
		<path class="st1" d="M1177,342.3l-0.3-1.5h-0.1c-0.5,0.7-1,1.1-1.5,1.4c-0.5,0.2-1.1,0.4-1.8,0.4c-1,0-1.7-0.3-2.3-0.8
			s-0.8-1.3-0.8-2.3c0-2.2,1.6-3.3,4.7-3.4l1.7-0.1v-0.6c0-0.8-0.2-1.4-0.5-1.8s-0.8-0.6-1.6-0.6c-0.5,0-1,0.1-1.5,0.3
			s-0.9,0.4-1.3,0.6l-0.5-1.3c0.5-0.3,1-0.5,1.6-0.7c0.6-0.2,1.2-0.2,1.7-0.2c1.2,0,2.1,0.3,2.7,0.9c0.6,0.6,0.9,1.5,0.9,2.7v7.3
			H1177z M1173.6,341.1c0.9,0,1.6-0.3,2.1-0.8s0.8-1.3,0.8-2.3v-1l-1.5,0.1c-1.1,0-2,0.2-2.5,0.6s-0.8,0.9-0.8,1.6
			c0,0.6,0.2,1,0.5,1.3C1172.6,340.9,1173.1,341.1,1173.6,341.1z"/>
		<path class="st1" d="M1187.9,342.3v-6.9c0-0.9-0.2-1.5-0.5-1.9c-0.4-0.4-0.9-0.6-1.7-0.6c-1,0-1.7,0.3-2.2,0.9s-0.7,1.6-0.7,3v5.6
			h-1.6v-10.7h1.3l0.2,1.5h0.1c0.3-0.5,0.7-0.9,1.3-1.2c0.5-0.3,1.2-0.4,1.8-0.4c1.2,0,2.1,0.3,2.7,1s0.9,1.6,0.9,3v7H1187.9z"/>
		<path class="st1" d="M1021.5,364.9c-1.3,0-2.3-0.5-3.1-1.6h-0.1l0,0.4c0,0.5,0.1,1,0.1,1.4v4.4h-1.6V354h1.3l0.2,1.5h0.1
			c0.4-0.6,0.8-1,1.3-1.3c0.5-0.3,1.1-0.4,1.7-0.4c1.3,0,2.3,0.5,3,1.5s1.1,2.3,1.1,4.1c0,1.8-0.4,3.1-1.1,4.1
			S1022.8,364.9,1021.5,364.9z M1021.2,355.2c-1,0-1.7,0.3-2.1,0.9s-0.7,1.5-0.7,2.8v0.3c0,1.5,0.2,2.5,0.7,3.1c0.4,0.6,1.2,1,2.2,1
			c0.8,0,1.5-0.4,1.9-1.1s0.7-1.7,0.7-3c0-1.3-0.2-2.3-0.7-3S1022.1,355.2,1021.2,355.2z"/>
		<path class="st1" d="M1032.3,364.9c-1.5,0-2.6-0.5-3.5-1.5s-1.3-2.3-1.3-4c0-1.7,0.4-3.1,1.2-4.1s1.8-1.5,3.2-1.5
			c1.2,0,2.2,0.4,3,1.3c0.7,0.9,1.1,2,1.1,3.5v1.1h-6.8c0,1.2,0.3,2.1,0.9,2.8c0.5,0.6,1.3,0.9,2.3,0.9c0.5,0,1-0.1,1.5-0.2
			s1-0.3,1.7-0.6v1.5c-0.5,0.3-1.1,0.4-1.5,0.5C1033.5,364.8,1033,364.9,1032.3,364.9z M1031.9,355.2c-0.8,0-1.4,0.3-1.8,0.8
			c-0.4,0.5-0.7,1.3-0.8,2.3h5c0-1-0.2-1.8-0.6-2.3S1032.7,355.2,1031.9,355.2z"/>
		<path class="st1" d="M1045.2,364.7v-6.9c0-0.9-0.2-1.5-0.5-1.9c-0.4-0.4-0.9-0.6-1.7-0.6c-1,0-1.7,0.3-2.2,0.9
			c-0.5,0.6-0.7,1.6-0.7,3v5.6h-1.6V354h1.3l0.2,1.5h0.1c0.3-0.5,0.7-0.9,1.3-1.2c0.6-0.3,1.2-0.4,1.8-0.4c1.2,0,2.1,0.3,2.7,1
			c0.6,0.6,0.9,1.6,0.9,3v7H1045.2z"/>
		<path class="st1" d="M1055.9,364.7l-0.3-1.5h-0.1c-0.5,0.7-1,1.1-1.5,1.4c-0.5,0.2-1.1,0.4-1.8,0.4c-1,0-1.7-0.3-2.3-0.8
			c-0.6-0.6-0.8-1.3-0.8-2.3c0-2.2,1.6-3.3,4.7-3.4l1.7-0.1v-0.6c0-0.8-0.2-1.4-0.5-1.8s-0.8-0.6-1.6-0.6c-0.5,0-1,0.1-1.5,0.3
			s-0.9,0.4-1.3,0.6l-0.5-1.3c0.5-0.3,1-0.5,1.6-0.7c0.6-0.2,1.2-0.2,1.7-0.2c1.2,0,2.1,0.3,2.7,0.9c0.6,0.6,0.9,1.5,0.9,2.7v7.3
			H1055.9z M1052.6,363.5c0.9,0,1.6-0.3,2.1-0.8s0.8-1.3,0.8-2.3v-1l-1.5,0.1c-1.1,0-2,0.2-2.5,0.6s-0.8,0.9-0.8,1.6
			c0,0.6,0.2,1,0.5,1.3C1051.6,363.3,1052,363.5,1052.6,363.5z"/>
		<path class="st1" d="M1068.2,364.7l-1.7-6c-0.2-0.5-0.4-1.4-0.7-2.8h-0.1c-0.3,1.3-0.5,2.2-0.7,2.9l-1.8,6h-1.8l-2.7-10.7h1.7
			c0.6,2.6,1.1,4.6,1.4,6s0.5,2.3,0.6,2.9h0.1l0.1-0.6c0.2-0.9,0.4-1.7,0.5-2.3l1.8-6h1.8l1.7,6c0.1,0.2,0.1,0.5,0.2,0.7
			c0.1,0.3,0.1,0.5,0.2,0.8s0.1,0.5,0.2,0.7s0.1,0.5,0.1,0.6h0.1c0.1-0.5,0.3-1.6,0.7-3.2l1.4-5.7h1.7l-2.7,10.7H1068.2z"/>
		<path class="st1" d="M1080.7,364.7l-0.3-1.5h-0.1c-0.5,0.7-1,1.1-1.5,1.4c-0.5,0.2-1.1,0.4-1.8,0.4c-1,0-1.7-0.3-2.3-0.8
			s-0.8-1.3-0.8-2.3c0-2.2,1.6-3.3,4.7-3.4l1.7-0.1v-0.6c0-0.8-0.2-1.4-0.5-1.8c-0.3-0.4-0.8-0.6-1.6-0.6c-0.5,0-1,0.1-1.5,0.3
			c-0.5,0.2-0.9,0.4-1.3,0.6l-0.5-1.3c0.5-0.3,1-0.5,1.6-0.7c0.6-0.2,1.2-0.2,1.7-0.2c1.2,0,2.1,0.3,2.7,0.9s0.9,1.5,0.9,2.7v7.3
			H1080.7z M1077.4,363.5c0.9,0,1.6-0.3,2.1-0.8s0.8-1.3,0.8-2.3v-1l-1.5,0.1c-1.1,0-2,0.2-2.5,0.6s-0.8,0.9-0.8,1.6
			c0,0.6,0.2,1,0.5,1.3S1076.8,363.5,1077.4,363.5z"/>
		<path class="st1" d="M1089.5,353.8c0.4,0,0.8,0,1.2,0.1l-0.2,1.6c-0.4-0.1-0.7-0.1-1.1-0.1c-0.5,0-1,0.2-1.4,0.5s-0.8,0.7-1,1.3
			c-0.3,0.6-0.4,1.2-0.4,1.8v5.7h-1.6V354h1.3l0.2,2h0.1c0.4-0.7,0.8-1.2,1.3-1.6S1088.9,353.8,1089.5,353.8z"/>
		<path class="st1" d="M1098.4,364.7l-0.3-1.5h-0.1c-0.5,0.7-1,1.1-1.5,1.4c-0.5,0.2-1.1,0.4-1.8,0.4c-1,0-1.7-0.3-2.3-0.8
			s-0.8-1.3-0.8-2.3c0-2.2,1.6-3.3,4.7-3.4l1.7-0.1v-0.6c0-0.8-0.2-1.4-0.5-1.8s-0.8-0.6-1.6-0.6c-0.5,0-1,0.1-1.5,0.3
			c-0.5,0.2-0.9,0.4-1.3,0.6l-0.5-1.3c0.5-0.3,1-0.5,1.6-0.7c0.6-0.2,1.2-0.2,1.7-0.2c1.2,0,2.1,0.3,2.7,0.9
			c0.6,0.6,0.9,1.5,0.9,2.7v7.3H1098.4z M1095.1,363.5c0.9,0,1.6-0.3,2.1-0.8s0.8-1.3,0.8-2.3v-1l-1.5,0.1c-1.1,0-2,0.2-2.5,0.6
			s-0.8,0.9-0.8,1.6c0,0.6,0.2,1,0.5,1.3S1094.5,363.5,1095.1,363.5z"/>
		<path class="st1" d="M1109.4,364.7v-6.9c0-0.9-0.2-1.5-0.5-1.9c-0.4-0.4-0.9-0.6-1.7-0.6c-1,0-1.7,0.3-2.2,0.9
			c-0.5,0.6-0.7,1.6-0.7,3v5.6h-1.6V354h1.3l0.2,1.5h0.1c0.3-0.5,0.7-0.9,1.3-1.2s1.2-0.4,1.8-0.4c1.2,0,2.1,0.3,2.7,1
			c0.6,0.6,0.9,1.6,0.9,3v7H1109.4z"/>
		<path class="st1" d="M1125.5,364.7v-6.9c0-0.9-0.2-1.5-0.5-1.9c-0.4-0.4-0.9-0.6-1.7-0.6c-1,0-1.7,0.3-2.2,0.9s-0.7,1.6-0.7,3v5.5
			h-1.6v-15.2h1.6v4.5c0,0.6,0,1.1-0.1,1.5h0.1c0.3-0.5,0.7-0.9,1.2-1.2c0.5-0.3,1.1-0.4,1.8-0.4c1.2,0,2.1,0.3,2.7,0.9
			s0.9,1.6,0.9,3v7H1125.5z"/>
		<path class="st1" d="M1136.2,364.7l-0.3-1.5h-0.1c-0.5,0.7-1,1.1-1.5,1.4c-0.5,0.2-1.1,0.4-1.8,0.4c-1,0-1.7-0.3-2.3-0.8
			c-0.6-0.6-0.8-1.3-0.8-2.3c0-2.2,1.6-3.3,4.7-3.4l1.7-0.1v-0.6c0-0.8-0.2-1.4-0.5-1.8s-0.8-0.6-1.6-0.6c-0.5,0-1,0.1-1.5,0.3
			s-0.9,0.4-1.3,0.6l-0.5-1.3c0.5-0.3,1-0.5,1.6-0.7c0.6-0.2,1.2-0.2,1.7-0.2c1.2,0,2.1,0.3,2.7,0.9c0.6,0.6,0.9,1.5,0.9,2.7v7.3
			H1136.2z M1132.9,363.5c0.9,0,1.6-0.3,2.1-0.8s0.8-1.3,0.8-2.3v-1l-1.5,0.1c-1.1,0-2,0.2-2.5,0.6s-0.8,0.9-0.8,1.6
			c0,0.6,0.2,1,0.5,1.3C1131.9,363.3,1132.3,363.5,1132.9,363.5z"/>
		<path class="st1" d="M1145.1,353.8c0.4,0,0.8,0,1.2,0.1l-0.2,1.6c-0.4-0.1-0.7-0.1-1.1-0.1c-0.5,0-1,0.2-1.4,0.5
			c-0.4,0.3-0.8,0.7-1,1.3s-0.4,1.2-0.4,1.8v5.7h-1.6V354h1.3l0.2,2h0.1c0.4-0.7,0.8-1.2,1.3-1.6S1144.5,353.8,1145.1,353.8z"/>
		<path class="st1" d="M1147.9,351.1c0-0.4,0.1-0.7,0.3-0.8s0.4-0.3,0.7-0.3c0.3,0,0.5,0.1,0.7,0.3s0.3,0.5,0.3,0.8
			c0,0.4-0.1,0.7-0.3,0.8s-0.4,0.3-0.7,0.3c-0.3,0-0.5-0.1-0.7-0.3S1147.9,351.4,1147.9,351.1z M1149.7,364.7h-1.6V354h1.6V364.7z"
			/>
		<path class="st1" d="M1158.9,364.7l-0.3-1.5h-0.1c-0.5,0.7-1,1.1-1.5,1.4c-0.5,0.2-1.1,0.4-1.8,0.4c-1,0-1.7-0.3-2.3-0.8
			s-0.8-1.3-0.8-2.3c0-2.2,1.6-3.3,4.7-3.4l1.7-0.1v-0.6c0-0.8-0.2-1.4-0.5-1.8c-0.3-0.4-0.8-0.6-1.6-0.6c-0.5,0-1,0.1-1.5,0.3
			s-0.9,0.4-1.3,0.6l-0.5-1.3c0.5-0.3,1-0.5,1.6-0.7s1.2-0.2,1.7-0.2c1.2,0,2.1,0.3,2.7,0.9c0.6,0.6,0.9,1.5,0.9,2.7v7.3H1158.9z
			 M1155.6,363.5c0.9,0,1.6-0.3,2.1-0.8s0.8-1.3,0.8-2.3v-1l-1.5,0.1c-1.1,0-2,0.2-2.5,0.6s-0.8,0.9-0.8,1.6c0,0.6,0.2,1,0.5,1.3
			C1154.5,363.3,1155,363.5,1155.6,363.5z"/>
		<path class="st1" d="M1169.8,364.7v-6.9c0-0.9-0.2-1.5-0.5-1.9c-0.4-0.4-0.9-0.6-1.7-0.6c-1,0-1.7,0.3-2.2,0.9s-0.7,1.6-0.7,3v5.6
			h-1.6V354h1.3l0.2,1.5h0.1c0.3-0.5,0.7-0.9,1.3-1.2c0.5-0.3,1.2-0.4,1.8-0.4c1.2,0,2.1,0.3,2.7,1c0.6,0.6,0.9,1.6,0.9,3v7H1169.8z
			"/>
		<path class="st1" d="M1182.7,364.9c-1.3,0-2.3-0.5-3-1.4s-1.1-2.3-1.1-4.1c0-1.8,0.4-3.1,1.1-4.1s1.7-1.5,3-1.5
			c1.3,0,2.3,0.5,3.1,1.6h0.1c0-0.1,0-0.4-0.1-0.8c0-0.4,0-0.7,0-0.8v-4.3h1.6v15.2h-1.3l-0.2-1.4h-0.1
			C1185.1,364.3,1184.1,364.9,1182.7,364.9z M1183,363.4c1,0,1.7-0.3,2.1-0.9s0.7-1.5,0.7-2.9v-0.3c0-1.5-0.2-2.6-0.7-3.2
			s-1.2-1-2.2-1c-0.8,0-1.5,0.4-1.9,1.1c-0.5,0.7-0.7,1.7-0.7,3.1c0,1.3,0.2,2.3,0.7,3C1181.5,363.1,1182.2,363.4,1183,363.4z"/>
		<path class="st1" d="M1196.6,364.7l-0.3-1.5h-0.1c-0.5,0.7-1,1.1-1.5,1.4c-0.5,0.2-1.1,0.4-1.8,0.4c-1,0-1.7-0.3-2.3-0.8
			c-0.5-0.6-0.8-1.3-0.8-2.3c0-2.2,1.6-3.3,4.7-3.4l1.7-0.1v-0.6c0-0.8-0.2-1.4-0.5-1.8s-0.8-0.6-1.6-0.6c-0.5,0-1,0.1-1.5,0.3
			s-0.9,0.4-1.3,0.6l-0.5-1.3c0.5-0.3,1-0.5,1.6-0.7c0.6-0.2,1.2-0.2,1.7-0.2c1.2,0,2.1,0.3,2.7,0.9c0.6,0.6,0.9,1.5,0.9,2.7v7.3
			H1196.6z M1193.3,363.5c0.9,0,1.6-0.3,2.1-0.8s0.8-1.3,0.8-2.3v-1l-1.5,0.1c-1.1,0-2,0.2-2.5,0.6s-0.8,0.9-0.8,1.6
			c0,0.6,0.2,1,0.5,1.3S1192.8,363.5,1193.3,363.5z"/>
		<path class="st1" d="M1207.6,364.7v-6.9c0-0.9-0.2-1.5-0.5-1.9c-0.4-0.4-0.9-0.6-1.7-0.6c-1,0-1.7,0.3-2.2,0.9
			c-0.5,0.6-0.7,1.6-0.7,3v5.6h-1.6V354h1.3l0.2,1.5h0.1c0.3-0.5,0.7-0.9,1.3-1.2c0.6-0.3,1.2-0.4,1.8-0.4c1.2,0,2.1,0.3,2.7,1
			c0.6,0.6,0.9,1.6,0.9,3v7H1207.6z"/>
		<path class="st1" d="M1051.2,387.3c-1.5,0-2.6-0.5-3.5-1.5c-0.8-1-1.3-2.3-1.3-4c0-1.7,0.4-3.1,1.2-4.1c0.8-1,1.8-1.5,3.2-1.5
			c1.2,0,2.2,0.4,3,1.3c0.7,0.9,1.1,2,1.1,3.5v1.1h-6.8c0,1.2,0.3,2.1,0.9,2.8c0.5,0.6,1.3,0.9,2.3,0.9c0.5,0,1-0.1,1.5-0.2
			s1-0.3,1.7-0.6v1.5c-0.5,0.3-1.1,0.4-1.5,0.5C1052.4,387.2,1051.9,387.3,1051.2,387.3z M1050.8,377.6c-0.8,0-1.4,0.3-1.8,0.8
			c-0.4,0.5-0.7,1.3-0.8,2.3h5c0-1-0.2-1.8-0.6-2.3S1051.6,377.6,1050.8,377.6z"/>
		<path class="st1" d="M1059,381.6l0.5-0.8l0.6-0.8l3.2-3.6h1.9l-4,4.6l4.3,6.1h-1.9l-3.4-5l-1.1,1.1v3.9h-1.6v-15.2h1.6v7.9V381.6
			L1059,381.6z"/>
		<path class="st1" d="M1073.6,384.1c0,1-0.3,1.8-1,2.3c-0.7,0.6-1.7,0.8-2.9,0.8c-1.3,0-2.3-0.2-3.1-0.7V385
			c1.1,0.6,2.1,0.9,3.1,0.9c0.8,0,1.4-0.1,1.8-0.4s0.6-0.7,0.6-1.2c0-0.4-0.2-0.8-0.5-1.1c-0.4-0.3-1-0.6-1.9-1
			c-0.9-0.4-1.6-0.7-2-1c-0.4-0.3-0.7-0.6-0.8-0.9c-0.2-0.3-0.3-0.8-0.3-1.3c0-0.9,0.3-1.6,1-2.1s1.6-0.8,2.7-0.8
			c1.1,0,2.2,0.2,3.1,0.7l-0.5,1.4c-1-0.5-1.9-0.7-2.7-0.7c-0.7,0-1.2,0.1-1.5,0.3s-0.5,0.5-0.5,1c0,0.4,0.1,0.7,0.4,1
			c0.3,0.3,1,0.6,2.1,1.1c0.8,0.3,1.4,0.6,1.8,0.9c0.4,0.3,0.7,0.6,0.9,1C1073.5,383.2,1073.6,383.6,1073.6,384.1z"/>
		<path class="st1" d="M1077.6,381.6l0.5-0.8l0.6-0.8l3.2-3.6h1.9l-4,4.6l4.3,6.1h-1.9l-3.4-5l-1.1,1.1v3.9h-1.6v-15.2h1.6v7.9
			V381.6L1077.6,381.6z"/>
		<path class="st1" d="M1087.5,387.1h-1.6v-15.2h1.6V387.1z"/>
		<path class="st1" d="M1092.1,376.4v6.9c0,0.9,0.2,1.5,0.5,1.9c0.4,0.4,0.9,0.6,1.7,0.6c1,0,1.7-0.3,2.2-0.9s0.7-1.6,0.7-3v-5.6
			h1.6v10.7h-1.3l-0.2-1.4h-0.1c-0.3,0.5-0.7,0.9-1.2,1.2c-0.5,0.3-1.2,0.4-1.9,0.4c-1.2,0-2.1-0.3-2.7-0.9c-0.6-0.6-0.9-1.6-0.9-3
			v-7H1092.1z"/>
		<path class="st1" d="M1108.4,384.1c0,1-0.3,1.8-1,2.3c-0.7,0.6-1.7,0.8-2.9,0.8c-1.3,0-2.3-0.2-3.1-0.7V385
			c1.1,0.6,2.1,0.9,3.1,0.9c0.8,0,1.4-0.1,1.8-0.4s0.6-0.7,0.6-1.2c0-0.4-0.2-0.8-0.5-1.1c-0.4-0.3-1-0.6-1.9-1
			c-0.9-0.4-1.6-0.7-2-1s-0.7-0.6-0.8-0.9s-0.3-0.8-0.3-1.3c0-0.9,0.3-1.6,1-2.1s1.6-0.8,2.7-0.8c1.1,0,2.2,0.2,3.1,0.7l-0.5,1.4
			c-1-0.5-1.9-0.7-2.7-0.7c-0.7,0-1.2,0.1-1.5,0.3s-0.5,0.5-0.5,1c0,0.4,0.1,0.7,0.4,1c0.3,0.3,1,0.6,2.1,1.1
			c0.8,0.3,1.4,0.6,1.8,0.9c0.4,0.3,0.7,0.6,0.9,1S1108.4,383.6,1108.4,384.1z"/>
		<path class="st1" d="M1110.6,373.5c0-0.4,0.1-0.7,0.3-0.8s0.4-0.3,0.7-0.3c0.3,0,0.5,0.1,0.7,0.3c0.2,0.2,0.3,0.5,0.3,0.8
			c0,0.4-0.1,0.7-0.3,0.8c-0.2,0.2-0.4,0.3-0.7,0.3c-0.3,0-0.5-0.1-0.7-0.3S1110.6,373.8,1110.6,373.5z M1112.4,387.1h-1.6v-10.7
			h1.6V387.1z"/>
		<path class="st1" d="M1120,377.7h-2.5v9.4h-1.6v-9.4h-1.7v-0.8l1.7-0.6v-0.6c0-1.3,0.3-2.3,0.8-2.9s1.3-1,2.4-1
			c0.6,0,1.3,0.1,1.9,0.4l-0.4,1.4c-0.6-0.2-1-0.3-1.5-0.3c-0.5,0-0.9,0.2-1.2,0.6c-0.3,0.4-0.4,1-0.4,1.9v0.7h2.5V377.7z"/>
		<path class="st1" d="M1130.1,387.3c-1.3,0-2.3-0.5-3-1.4s-1.1-2.3-1.1-4.1c0-1.8,0.4-3.1,1.1-4.1s1.7-1.5,3-1.5
			c1.3,0,2.3,0.5,3.1,1.6h0.1c0-0.1,0-0.4-0.1-0.8s0-0.7,0-0.8v-4.3h1.6v15.2h-1.3l-0.2-1.4h-0.1
			C1132.5,386.7,1131.4,387.3,1130.1,387.3z M1130.3,385.8c1,0,1.7-0.3,2.2-0.9c0.5-0.6,0.7-1.5,0.7-2.9v-0.3c0-1.5-0.2-2.6-0.7-3.2
			c-0.5-0.6-1.2-1-2.2-1c-0.8,0-1.5,0.4-1.9,1.1c-0.5,0.7-0.7,1.7-0.7,3.1c0,1.3,0.2,2.3,0.7,3S1129.5,385.8,1130.3,385.8z"/>
		<path class="st1" d="M1137.8,373.5c0-0.4,0.1-0.7,0.3-0.8s0.4-0.3,0.7-0.3c0.3,0,0.5,0.1,0.7,0.3s0.3,0.5,0.3,0.8
			c0,0.4-0.1,0.7-0.3,0.8s-0.4,0.3-0.7,0.3c-0.3,0-0.5-0.1-0.7-0.3S1137.8,373.8,1137.8,373.5z M1139.5,387.1h-1.6v-10.7h1.6V387.1z
			"/>
		<path class="st1" d="M1153.8,384.1c0,1-0.3,1.8-1,2.3c-0.7,0.6-1.7,0.8-2.9,0.8c-1.3,0-2.3-0.2-3.1-0.7V385
			c1.1,0.6,2.1,0.9,3.1,0.9c0.8,0,1.4-0.1,1.8-0.4s0.6-0.7,0.6-1.2c0-0.4-0.2-0.8-0.5-1.1c-0.4-0.3-1-0.6-1.9-1
			c-0.9-0.4-1.6-0.7-2-1c-0.4-0.3-0.7-0.6-0.8-0.9c-0.2-0.3-0.3-0.8-0.3-1.3c0-0.9,0.3-1.6,1-2.1s1.6-0.8,2.7-0.8
			c1.1,0,2.2,0.2,3.1,0.7l-0.5,1.4c-1-0.5-1.9-0.7-2.7-0.7c-0.7,0-1.2,0.1-1.5,0.3s-0.5,0.5-0.5,1c0,0.4,0.1,0.7,0.4,1
			c0.3,0.3,1,0.6,2.1,1.1c0.8,0.3,1.4,0.6,1.8,0.9c0.4,0.3,0.7,0.6,0.9,1C1153.7,383.2,1153.8,383.6,1153.8,384.1z"/>
		<path class="st1" d="M1156.1,373.5c0-0.4,0.1-0.7,0.3-0.8s0.4-0.3,0.7-0.3c0.3,0,0.5,0.1,0.7,0.3s0.3,0.5,0.3,0.8
			c0,0.4-0.1,0.7-0.3,0.8s-0.4,0.3-0.7,0.3c-0.3,0-0.5-0.1-0.7-0.3S1156.1,373.8,1156.1,373.5z M1157.8,387.1h-1.6v-10.7h1.6V387.1z
			"/>
		<path class="st1" d="M1167.7,387.1v-6.9c0-0.9-0.2-1.5-0.5-1.9c-0.4-0.4-0.9-0.6-1.7-0.6c-1,0-1.7,0.3-2.2,0.9s-0.7,1.6-0.7,3v5.6
			h-1.6v-10.7h1.3l0.2,1.5h0.1c0.3-0.5,0.7-0.9,1.3-1.2s1.2-0.4,1.8-0.4c1.2,0,2.1,0.3,2.7,1s0.9,1.6,0.9,3v7H1167.7z"/>
		<path class="st1" d="M1172.2,373.5c0-0.4,0.1-0.7,0.3-0.8s0.4-0.3,0.7-0.3c0.3,0,0.5,0.1,0.7,0.3s0.3,0.5,0.3,0.8
			c0,0.4-0.1,0.7-0.3,0.8s-0.4,0.3-0.7,0.3c-0.3,0-0.5-0.1-0.7-0.3S1172.2,373.8,1172.2,373.5z M1173.9,387.1h-1.6v-10.7h1.6V387.1z
			"/>
		<path class="st1" d="M1176.8,386c0-0.4,0.1-0.8,0.3-1c0.2-0.2,0.5-0.3,0.8-0.3s0.7,0.1,0.8,0.4s0.3,0.6,0.3,1s-0.1,0.7-0.3,1
			c-0.2,0.2-0.5,0.4-0.8,0.4c-0.4,0-0.6-0.1-0.8-0.4S1176.8,386.4,1176.8,386z M1178.5,383.1h-1.1l-0.5-10.3h2L1178.5,383.1z"/>
	</g>
</g>
<g>
	<path class="st2" d="M1096.4,292.3l-21-21l36.3-36.3l14.4,1.3c2.8,0.3,5,2.5,5.2,5.2l1.3,14.4L1096.4,292.3z"/>
	<circle class="st2" cx="1118.4" cy="249.3" r="5.4"/>
</g>
</svg>
