<?xml version="1.0" encoding="utf-8"?>
<!-- Generator: Adobe Illustrator 19.0.0, SVG Export Plug-In . SVG Version: 6.00 Build 0)  -->
<svg version="1.1" id="Layer_1" xmlns="http://www.w3.org/2000/svg" xmlns:xlink="http://www.w3.org/1999/xlink" x="0px" y="0px"
	 viewBox="990.5 199.8 247.3 241.5" style="enable-background:new 990.5 199.8 247.3 241.5;" xml:space="preserve">
<style type="text/css">
	.st0{fill:#E3E3E3;}
	.st1{fill:#3F3F3F;}
	.st2{fill:#33CCCC;}
	.st3{fill:none;stroke:#33CCCC;stroke-width:1.5;stroke-miterlimit:10;}
</style>
<rect x="990.5" y="199.8" class="st0" width="247.3" height="241.5"/>
<g>
	<g>
		<path class="st1" d="M1043.7,342v-14.3h1.7v12.7h5.7v1.6H1043.7z"/>
		<path class="st1" d="M1057.3,342.2c-1.5,0-2.6-0.5-3.5-1.5s-1.3-2.3-1.3-4c0-1.7,0.4-3.1,1.2-4.1s1.8-1.5,3.2-1.5
			c1.2,0,2.2,0.4,3,1.3s1.1,2,1.1,3.5v1.1h-6.8c0,1.2,0.3,2.1,0.9,2.8c0.5,0.6,1.3,0.9,2.3,0.9c0.5,0,1-0.1,1.5-0.2s1-0.3,1.7-0.6
			v1.5c-0.5,0.3-1.1,0.4-1.5,0.5S1058,342.2,1057.3,342.2z M1056.9,332.6c-0.8,0-1.4,0.3-1.8,0.8c-0.4,0.5-0.7,1.3-0.8,2.3h5
			c0-1-0.2-1.8-0.6-2.3S1057.7,332.6,1056.9,332.6z"/>
		<path class="st1" d="M1068.1,331.1c1.3,0,2.3,0.5,3,1.5c0.7,1,1.1,2.3,1.1,4.1c0,1.8-0.4,3.1-1.1,4.1s-1.7,1.5-3,1.5
			c-0.7,0-1.3-0.1-1.8-0.4c-0.5-0.3-0.9-0.6-1.3-1.2h-0.1c-0.2,0.8-0.3,1.2-0.3,1.4h-1.2v-15.2h1.6v3.7c0,0.7,0,1.5-0.1,2.2h0.1
			C1065.8,331.7,1066.8,331.1,1068.1,331.1z M1067.9,332.6c-1,0-1.7,0.3-2.1,0.9s-0.6,1.6-0.6,3.1v0.1c0,1.5,0.2,2.5,0.7,3.1
			c0.4,0.6,1.2,0.9,2.2,0.9c0.9,0,1.5-0.4,2-1.1s0.7-1.7,0.7-3.1c0-1.4-0.2-2.4-0.7-3C1069.4,332.9,1068.8,332.6,1067.9,332.6z"/>
		<path class="st1" d="M1074.7,328.4c0-0.4,0.1-0.7,0.3-0.8s0.4-0.3,0.7-0.3c0.3,0,0.5,0.1,0.7,0.3s0.3,0.5,0.3,0.8
			c0,0.4-0.1,0.7-0.3,0.8s-0.4,0.3-0.7,0.3c-0.3,0-0.5-0.1-0.7-0.3S1074.7,328.8,1074.7,328.4z M1076.4,342h-1.6v-10.7h1.6V342z"/>
		<path class="st1" d="M1086.2,342v-6.9c0-0.9-0.2-1.5-0.5-1.9c-0.4-0.4-0.9-0.6-1.7-0.6c-1,0-1.7,0.3-2.2,0.9s-0.7,1.6-0.7,3v5.5
			h-1.6v-15.2h1.6v4.5c0,0.6,0,1.1-0.1,1.5h0.1c0.3-0.5,0.7-0.9,1.2-1.2c0.5-0.3,1.1-0.4,1.8-0.4c1.2,0,2.1,0.3,2.7,0.9
			s0.9,1.6,0.9,3v7H1086.2z"/>
		<path class="st1" d="M1099.2,342.2c-1.3,0-2.3-0.5-3-1.4s-1.1-2.3-1.1-4.1c0-1.8,0.4-3.1,1.1-4.1s1.7-1.5,3-1.5
			c1.3,0,2.3,0.5,3.1,1.6h0.1c0-0.1,0-0.4-0.1-0.8c0-0.4,0-0.7,0-0.8v-4.3h1.6V342h-1.3l-0.2-1.4h-0.1
			C1101.5,341.7,1100.5,342.2,1099.2,342.2z M1099.4,340.8c1,0,1.7-0.3,2.1-0.9s0.7-1.5,0.7-2.9v-0.3c0-1.5-0.2-2.6-0.7-3.2
			c-0.5-0.6-1.2-1-2.2-1c-0.8,0-1.5,0.4-1.9,1.1c-0.5,0.7-0.7,1.7-0.7,3.1c0,1.3,0.2,2.3,0.7,3
			C1097.9,340.4,1098.6,340.8,1099.4,340.8z"/>
		<path class="st1" d="M1113.1,342l-0.3-1.5h-0.1c-0.5,0.7-1,1.1-1.5,1.4c-0.5,0.2-1.1,0.4-1.8,0.4c-1,0-1.7-0.3-2.3-0.8
			s-0.8-1.3-0.8-2.3c0-2.2,1.6-3.3,4.7-3.4l1.7-0.1v-0.6c0-0.8-0.2-1.4-0.5-1.8s-0.8-0.6-1.6-0.6c-0.5,0-1,0.1-1.5,0.3
			c-0.5,0.2-0.9,0.4-1.3,0.6l-0.5-1.3c0.5-0.3,1-0.5,1.6-0.7c0.6-0.2,1.2-0.2,1.7-0.2c1.2,0,2.1,0.3,2.7,0.9s0.9,1.5,0.9,2.7v7.3
			H1113.1z M1109.7,340.8c0.9,0,1.6-0.3,2.1-0.8c0.5-0.5,0.8-1.3,0.8-2.3v-1l-1.5,0.1c-1.1,0-2,0.2-2.5,0.6s-0.8,0.9-0.8,1.6
			c0,0.6,0.2,1,0.5,1.3C1108.7,340.7,1109.2,340.8,1109.7,340.8z"/>
		<path class="st1" d="M1121.9,331.1c0.4,0,0.8,0,1.2,0.1l-0.2,1.6c-0.4-0.1-0.7-0.1-1.1-0.1c-0.5,0-1,0.2-1.5,0.5
			c-0.4,0.3-0.8,0.7-1,1.3c-0.3,0.6-0.4,1.2-0.4,1.8v5.7h-1.6v-10.7h1.3l0.2,2h0.1c0.4-0.7,0.8-1.2,1.3-1.6
			S1121.3,331.1,1121.9,331.1z"/>
		<path class="st1" d="M1124.8,328.4c0-0.4,0.1-0.7,0.3-0.8s0.4-0.3,0.7-0.3c0.3,0,0.5,0.1,0.7,0.3s0.3,0.5,0.3,0.8
			c0,0.4-0.1,0.7-0.3,0.8s-0.4,0.3-0.7,0.3c-0.3,0-0.5-0.1-0.7-0.3S1124.8,328.8,1124.8,328.4z M1126.5,342h-1.6v-10.7h1.6V342z"/>
		<path class="st2" d="M1149.6,342h-4.4v-12l0-2l0.1-2.2c-0.7,0.7-1.2,1.2-1.5,1.4l-2.4,1.9l-2.1-2.6l6.7-5.3h3.6V342z"/>
		<path class="st2" d="M1162.9,328.8c2,0,3.6,0.6,4.8,1.7c1.2,1.1,1.8,2.7,1.8,4.6c0,2.3-0.7,4.1-2.1,5.3c-1.4,1.2-3.5,1.9-6.1,1.9
			c-2.3,0-4.2-0.4-5.6-1.1v-3.8c0.7,0.4,1.6,0.7,2.6,1c1,0.3,1.9,0.4,2.8,0.4c2.7,0,4-1.1,4-3.3c0-2.1-1.4-3.1-4.1-3.1
			c-0.5,0-1.1,0-1.7,0.1c-0.6,0.1-1.1,0.2-1.5,0.3l-1.7-0.9l0.8-10.5h11.2v3.7h-7.4l-0.4,4.1l0.5-0.1
			C1161.3,328.9,1162,328.8,1162.9,328.8z"/>
		<path class="st2" d="M1186.3,331.7c0,3.6-0.6,6.3-1.8,8c-1.2,1.7-3,2.6-5.5,2.6c-2.4,0-4.2-0.9-5.4-2.7s-1.8-4.4-1.8-7.9
			c0-3.7,0.6-6.3,1.8-8.1c1.2-1.7,3-2.6,5.5-2.6c2.4,0,4.2,0.9,5.4,2.7S1186.3,328.2,1186.3,331.7z M1176.2,331.7
			c0,2.5,0.2,4.4,0.7,5.5c0.4,1.1,1.2,1.6,2.2,1.6c1,0,1.8-0.6,2.2-1.7s0.7-2.9,0.7-5.4c0-2.5-0.2-4.4-0.7-5.5
			c-0.5-1.1-1.2-1.7-2.2-1.7c-1,0-1.8,0.6-2.2,1.7C1176.4,327.3,1176.2,329.2,1176.2,331.7z"/>
		<path class="st1" d="M1045.1,360.6c-1.3,0-2.3-0.5-3.1-1.6h-0.1l0,0.4c0,0.5,0.1,1,0.1,1.4v4.4h-1.6v-15.5h1.3l0.2,1.5h0.1
			c0.4-0.6,0.8-1,1.3-1.3c0.5-0.3,1.1-0.4,1.7-0.4c1.3,0,2.3,0.5,3,1.5s1.1,2.3,1.1,4.1c0,1.8-0.4,3.1-1.1,4.1
			S1046.4,360.6,1045.1,360.6z M1044.8,351c-1,0-1.7,0.3-2.1,0.9s-0.7,1.5-0.7,2.8v0.3c0,1.5,0.2,2.5,0.7,3.1c0.4,0.6,1.2,1,2.2,1
			c0.8,0,1.5-0.4,1.9-1.1s0.7-1.7,0.7-3c0-1.3-0.2-2.3-0.7-3S1045.7,351,1044.8,351z"/>
		<path class="st1" d="M1055.9,360.6c-1.5,0-2.6-0.5-3.5-1.5c-0.8-1-1.3-2.3-1.3-4c0-1.7,0.4-3.1,1.2-4.1c0.8-1,1.8-1.5,3.2-1.5
			c1.2,0,2.2,0.4,3,1.3c0.7,0.9,1.1,2,1.1,3.5v1.1h-6.8c0,1.2,0.3,2.1,0.9,2.8c0.5,0.6,1.3,0.9,2.3,0.9c0.5,0,1-0.1,1.5-0.2
			s1-0.3,1.7-0.6v1.5c-0.5,0.3-1.1,0.4-1.5,0.5C1057.2,360.6,1056.6,360.6,1055.9,360.6z M1055.5,351c-0.8,0-1.4,0.3-1.8,0.8
			c-0.4,0.5-0.7,1.3-0.8,2.3h5c0-1-0.2-1.8-0.6-2.3S1056.3,351,1055.5,351z"/>
		<path class="st1" d="M1068.8,360.4v-6.9c0-0.9-0.2-1.5-0.5-1.9c-0.4-0.4-0.9-0.6-1.7-0.6c-1,0-1.7,0.3-2.2,0.9s-0.7,1.6-0.7,3v5.6
			h-1.6v-10.7h1.3l0.2,1.5h0.1c0.3-0.5,0.7-0.9,1.3-1.2s1.2-0.4,1.8-0.4c1.2,0,2.1,0.3,2.7,1c0.6,0.6,0.9,1.6,0.9,3v7H1068.8z"/>
		<path class="st1" d="M1072.3,365.3c-0.6,0-1-0.1-1.4-0.2v-1.4c0.4,0.1,0.8,0.2,1.2,0.2c0.5,0,0.8-0.1,1-0.4s0.3-0.7,0.3-1.3v-12.4
			h1.6V362c0,1.1-0.2,1.9-0.7,2.4S1073.2,365.3,1072.3,365.3z M1073.4,346.8c0-0.4,0.1-0.7,0.3-0.8s0.4-0.3,0.7-0.3
			c0.3,0,0.5,0.1,0.7,0.3s0.3,0.5,0.3,0.8c0,0.4-0.1,0.7-0.3,0.8s-0.4,0.3-0.7,0.3c-0.3,0-0.5-0.1-0.7-0.3
			S1073.4,347.2,1073.4,346.8z"/>
		<path class="st1" d="M1079.8,349.7v6.9c0,0.9,0.2,1.5,0.5,1.9c0.4,0.4,0.9,0.6,1.7,0.6c1,0,1.7-0.3,2.2-0.9s0.7-1.6,0.7-3v-5.6
			h1.6v10.7h-1.3l-0.2-1.4h-0.1c-0.3,0.5-0.7,0.9-1.2,1.2c-0.5,0.3-1.2,0.4-1.9,0.4c-1.2,0-2.1-0.3-2.7-0.9s-0.9-1.6-0.9-3v-7
			H1079.8z"/>
		<path class="st1" d="M1095.7,360.4l-0.3-1.5h-0.1c-0.5,0.7-1,1.1-1.5,1.4c-0.5,0.2-1.1,0.4-1.8,0.4c-1,0-1.7-0.3-2.3-0.8
			s-0.8-1.3-0.8-2.3c0-2.2,1.6-3.3,4.7-3.4l1.7-0.1v-0.6c0-0.8-0.2-1.4-0.5-1.8s-0.8-0.6-1.6-0.6c-0.5,0-1,0.1-1.5,0.3
			s-0.9,0.4-1.3,0.6l-0.5-1.3c0.5-0.3,1-0.5,1.6-0.7c0.6-0.2,1.2-0.2,1.7-0.2c1.2,0,2.1,0.3,2.7,0.9c0.6,0.6,0.9,1.5,0.9,2.7v7.3
			H1095.7z M1092.3,359.2c0.9,0,1.6-0.3,2.1-0.8s0.8-1.3,0.8-2.3v-1l-1.5,0.1c-1.1,0-2,0.2-2.5,0.6c-0.5,0.3-0.8,0.9-0.8,1.6
			c0,0.6,0.2,1,0.5,1.3S1091.8,359.2,1092.3,359.2z"/>
		<path class="st1" d="M1101.5,360.4h-1.6v-15.2h1.6V360.4z"/>
		<path class="st1" d="M1112.9,360.6c-1.3,0-2.3-0.5-3-1.4s-1.1-2.3-1.1-4.1c0-1.8,0.4-3.1,1.1-4.1c0.7-1,1.7-1.5,3-1.5
			c1.3,0,2.3,0.5,3.1,1.6h0.1c0-0.1,0-0.4-0.1-0.8c0-0.4,0-0.7,0-0.8v-4.3h1.6v15.2h-1.3l-0.2-1.4h-0.1
			C1115.3,360.1,1114.3,360.6,1112.9,360.6z M1113.2,359.2c1,0,1.7-0.3,2.1-0.9c0.5-0.6,0.7-1.5,0.7-2.9v-0.3c0-1.5-0.2-2.6-0.7-3.2
			s-1.2-1-2.2-1c-0.8,0-1.5,0.4-1.9,1.1c-0.5,0.7-0.7,1.7-0.7,3.1c0,1.3,0.2,2.3,0.7,3C1111.7,358.8,1112.3,359.2,1113.2,359.2z"/>
		<path class="st1" d="M1126.8,360.4l-0.3-1.5h-0.1c-0.5,0.7-1,1.1-1.5,1.4c-0.5,0.2-1.1,0.4-1.8,0.4c-1,0-1.7-0.3-2.3-0.8
			c-0.5-0.6-0.8-1.3-0.8-2.3c0-2.2,1.6-3.3,4.7-3.4l1.7-0.1v-0.6c0-0.8-0.2-1.4-0.5-1.8s-0.8-0.6-1.6-0.6c-0.5,0-1,0.1-1.5,0.3
			s-0.9,0.4-1.3,0.6l-0.5-1.3c0.5-0.3,1-0.5,1.6-0.7c0.6-0.2,1.2-0.2,1.7-0.2c1.2,0,2.1,0.3,2.7,0.9c0.6,0.6,0.9,1.5,0.9,2.7v7.3
			H1126.8z M1123.5,359.2c0.9,0,1.6-0.3,2.1-0.8s0.8-1.3,0.8-2.3v-1l-1.5,0.1c-1.1,0-2,0.2-2.5,0.6s-0.8,0.9-0.8,1.6
			c0,0.6,0.2,1,0.5,1.3S1122.9,359.2,1123.5,359.2z"/>
		<path class="st1" d="M1137.8,360.4v-6.9c0-0.9-0.2-1.5-0.5-1.9c-0.4-0.4-0.9-0.6-1.7-0.6c-1,0-1.7,0.3-2.2,0.9s-0.7,1.6-0.7,3v5.6
			h-1.6v-10.7h1.3l0.2,1.5h0.1c0.3-0.5,0.7-0.9,1.3-1.2c0.6-0.3,1.2-0.4,1.8-0.4c1.2,0,2.1,0.3,2.7,1c0.6,0.6,0.9,1.6,0.9,3v7
			H1137.8z"/>
		<path class="st1" d="M1150.5,359.2c0.2,0,0.5,0,0.7-0.1s0.5-0.1,0.6-0.2v1.3c-0.1,0.1-0.4,0.1-0.7,0.2c-0.3,0.1-0.6,0.1-1,0.1
			c-1.9,0-2.9-1.1-2.9-3.3v-6.2h-1.4v-0.8l1.4-0.7l0.6-2.3h1v2.5h2.8v1.4h-2.8v6.2c0,0.6,0.1,1.1,0.4,1.4S1150,359.2,1150.5,359.2z"
			/>
		<path class="st1" d="M1158,360.6c-1.5,0-2.6-0.5-3.5-1.5s-1.3-2.3-1.3-4c0-1.7,0.4-3.1,1.2-4.1s1.8-1.5,3.2-1.5
			c1.2,0,2.2,0.4,3,1.3c0.7,0.9,1.1,2,1.1,3.5v1.1h-6.8c0,1.2,0.3,2.1,0.9,2.8c0.5,0.6,1.3,0.9,2.3,0.9c0.5,0,1-0.1,1.5-0.2
			s1-0.3,1.7-0.6v1.5c-0.5,0.3-1.1,0.4-1.5,0.5C1159.2,360.6,1158.7,360.6,1158,360.6z M1157.6,351c-0.8,0-1.4,0.3-1.8,0.8
			c-0.4,0.5-0.7,1.3-0.8,2.3h5c0-1-0.2-1.8-0.6-2.3S1158.4,351,1157.6,351z"/>
		<path class="st1" d="M1168.8,349.5c0.4,0,0.8,0,1.2,0.1l-0.2,1.6c-0.4-0.1-0.7-0.1-1.1-0.1c-0.5,0-1,0.2-1.5,0.5
			c-0.4,0.3-0.8,0.7-1,1.3c-0.3,0.6-0.4,1.2-0.4,1.8v5.7h-1.6v-10.7h1.3l0.2,2h0.1c0.4-0.7,0.8-1.2,1.3-1.6
			S1168.2,349.5,1168.8,349.5z"/>
		<path class="st1" d="M1173.3,349.7v6.9c0,0.9,0.2,1.5,0.5,1.9c0.4,0.4,0.9,0.6,1.7,0.6c1,0,1.7-0.3,2.2-0.9s0.7-1.6,0.7-3v-5.6
			h1.6v10.7h-1.3l-0.2-1.4h-0.1c-0.3,0.5-0.7,0.9-1.2,1.2c-0.5,0.3-1.2,0.4-1.9,0.4c-1.2,0-2.1-0.3-2.7-0.9c-0.6-0.6-0.9-1.6-0.9-3
			v-7H1173.3z"/>
		<path class="st1" d="M1189.6,357.5c0,1-0.3,1.8-1,2.3c-0.7,0.6-1.7,0.8-2.9,0.8c-1.3,0-2.3-0.2-3.1-0.7v-1.6
			c1.1,0.6,2.1,0.9,3.1,0.9c0.8,0,1.4-0.1,1.8-0.4s0.6-0.7,0.6-1.2c0-0.4-0.2-0.8-0.5-1.1c-0.4-0.3-1-0.6-1.9-1
			c-0.9-0.4-1.6-0.7-2-1s-0.7-0.6-0.8-0.9s-0.3-0.8-0.3-1.3c0-0.9,0.3-1.6,1-2.1s1.6-0.8,2.7-0.8c1.1,0,2.2,0.2,3.1,0.7l-0.5,1.4
			c-1-0.5-1.9-0.7-2.7-0.7c-0.7,0-1.2,0.1-1.5,0.3s-0.5,0.5-0.5,1c0,0.4,0.1,0.7,0.4,1c0.3,0.3,1,0.6,2.1,1.1
			c0.8,0.3,1.4,0.6,1.8,0.9c0.4,0.3,0.7,0.6,0.9,1S1189.6,357,1189.6,357.5z"/>
		<path class="st1" d="M1030.1,367.9c1.3,0,2.3,0.5,3,1.5s1.1,2.3,1.1,4.1c0,1.8-0.4,3.1-1.1,4.1c-0.7,1-1.7,1.5-3,1.5
			c-0.7,0-1.3-0.1-1.8-0.4c-0.5-0.3-0.9-0.6-1.3-1.2h-0.1c-0.2,0.8-0.3,1.2-0.3,1.4h-1.2v-15.2h1.6v3.7c0,0.7,0,1.5-0.1,2.2h0.1
			C1027.7,368.5,1028.7,367.9,1030.1,367.9z M1029.8,369.4c-1,0-1.7,0.3-2.1,0.9s-0.6,1.6-0.6,3.1v0.1c0,1.5,0.2,2.5,0.7,3.1
			s1.2,0.9,2.2,0.9c0.9,0,1.5-0.4,2-1.1c0.4-0.7,0.7-1.7,0.7-3.1c0-1.4-0.2-2.4-0.7-3C1031.4,369.7,1030.7,369.4,1029.8,369.4z"/>
		<path class="st1" d="M1040.9,379c-1.5,0-2.6-0.5-3.5-1.5s-1.3-2.3-1.3-4c0-1.7,0.4-3.1,1.2-4.1c0.8-1,1.8-1.5,3.2-1.5
			c1.2,0,2.2,0.4,3,1.3c0.7,0.9,1.1,2,1.1,3.5v1.1h-6.8c0,1.2,0.3,2.1,0.9,2.8c0.5,0.6,1.3,0.9,2.3,0.9c0.5,0,1-0.1,1.5-0.2
			s1-0.3,1.7-0.6v1.5c-0.5,0.3-1.1,0.4-1.5,0.5C1042.1,379,1041.6,379,1040.9,379z M1040.5,369.4c-0.8,0-1.4,0.3-1.8,0.8
			c-0.4,0.5-0.7,1.3-0.8,2.3h5c0-1-0.2-1.8-0.6-2.3C1041.8,369.6,1041.3,369.4,1040.5,369.4z"/>
		<path class="st1" d="M1051.7,367.9c0.4,0,0.8,0,1.2,0.1l-0.2,1.6c-0.4-0.1-0.7-0.1-1.1-0.1c-0.5,0-1,0.2-1.4,0.5
			c-0.4,0.3-0.8,0.7-1,1.3c-0.3,0.6-0.4,1.2-0.4,1.8v5.7h-1.6v-10.7h1.3l0.2,2h0.1c0.4-0.7,0.8-1.2,1.3-1.6
			C1050.5,368.1,1051.1,367.9,1051.7,367.9z"/>
		<path class="st1" d="M1056.3,373.3l0.5-0.8l0.6-0.8l3.2-3.6h1.9l-4,4.6l4.3,6.1h-1.9l-3.4-5l-1.1,1.1v3.9h-1.6v-15.2h1.6v7.9
			V373.3L1056.3,373.3z"/>
		<path class="st1" d="M1068.5,379c-1.5,0-2.6-0.5-3.5-1.5c-0.8-1-1.3-2.3-1.3-4c0-1.7,0.4-3.1,1.2-4.1c0.8-1,1.8-1.5,3.2-1.5
			c1.2,0,2.2,0.4,3,1.3c0.7,0.9,1.1,2,1.1,3.5v1.1h-6.8c0,1.2,0.3,2.1,0.9,2.8c0.5,0.6,1.3,0.9,2.3,0.9c0.5,0,1-0.1,1.5-0.2
			s1-0.3,1.7-0.6v1.5c-0.5,0.3-1.1,0.4-1.5,0.5C1069.7,379,1069.2,379,1068.5,379z M1068.1,369.4c-0.8,0-1.4,0.3-1.8,0.8
			c-0.4,0.5-0.7,1.3-0.8,2.3h5c0-1-0.2-1.8-0.6-2.3S1068.9,369.4,1068.1,369.4z"/>
		<path class="st1" d="M1087.2,378.8v-6.9c0-1.7-0.7-2.5-2-2.5c-0.9,0-1.6,0.3-2,0.9s-0.6,1.5-0.6,2.7v5.9h-1.6v-6.9
			c0-0.8-0.2-1.5-0.5-1.9s-0.8-0.6-1.5-0.6c-0.9,0-1.6,0.3-2,0.9s-0.6,1.6-0.6,3v5.6h-1.6v-10.7h1.3l0.2,1.5h0.1
			c0.3-0.5,0.7-0.9,1.2-1.2s1.1-0.4,1.7-0.4c1.5,0,2.5,0.6,3,1.8h0.1c0.3-0.6,0.8-1,1.3-1.3c0.5-0.3,1.2-0.5,1.9-0.5
			c1.1,0,1.9,0.3,2.5,0.9c0.6,0.6,0.8,1.6,0.8,3v7H1087.2z"/>
		<path class="st1" d="M1096.5,367.9c1.3,0,2.3,0.5,3,1.5c0.7,1,1.1,2.3,1.1,4.1c0,1.8-0.4,3.1-1.1,4.1s-1.7,1.5-3,1.5
			c-0.7,0-1.3-0.1-1.8-0.4c-0.5-0.3-0.9-0.6-1.3-1.2h-0.1c-0.2,0.8-0.3,1.2-0.3,1.4h-1.2v-15.2h1.6v3.7c0,0.7,0,1.5-0.1,2.2h0.1
			C1094.2,368.5,1095.2,367.9,1096.5,367.9z M1096.3,369.4c-1,0-1.7,0.3-2.1,0.9s-0.6,1.6-0.6,3.1v0.1c0,1.5,0.2,2.5,0.7,3.1
			c0.4,0.6,1.2,0.9,2.2,0.9c0.9,0,1.5-0.4,2-1.1s0.7-1.7,0.7-3.1c0-1.4-0.2-2.4-0.7-3C1097.9,369.7,1097.2,369.4,1096.3,369.4z"/>
		<path class="st1" d="M1109.3,378.8l-0.3-1.5h-0.1c-0.5,0.7-1,1.1-1.5,1.4c-0.5,0.2-1.1,0.4-1.8,0.4c-1,0-1.7-0.3-2.3-0.8
			s-0.8-1.3-0.8-2.3c0-2.2,1.6-3.3,4.7-3.4l1.7-0.1v-0.6c0-0.8-0.2-1.4-0.5-1.8s-0.8-0.6-1.6-0.6c-0.5,0-1,0.1-1.5,0.3
			s-0.9,0.4-1.3,0.6l-0.5-1.3c0.5-0.3,1-0.5,1.6-0.7c0.6-0.2,1.2-0.2,1.7-0.2c1.2,0,2.1,0.3,2.7,0.9c0.6,0.6,0.9,1.5,0.9,2.7v7.3
			H1109.3z M1105.9,377.6c0.9,0,1.6-0.3,2.1-0.8s0.8-1.3,0.8-2.3v-1l-1.5,0.1c-1.1,0-2,0.2-2.5,0.6c-0.5,0.3-0.8,0.9-0.8,1.6
			c0,0.6,0.2,1,0.5,1.3S1105.4,377.6,1105.9,377.6z"/>
		<path class="st1" d="M1120.2,378.8V372c0-0.9-0.2-1.5-0.5-1.9c-0.4-0.4-0.9-0.6-1.7-0.6c-1,0-1.7,0.3-2.2,0.9s-0.7,1.6-0.7,3v5.6
			h-1.6v-10.7h1.3l0.2,1.5h0.1c0.3-0.5,0.7-0.9,1.3-1.2s1.2-0.4,1.8-0.4c1.2,0,2.1,0.3,2.7,1c0.6,0.6,0.9,1.6,0.9,3v7H1120.2z"/>
		<path class="st1" d="M1131.4,378.8l0.1-1.3h-0.1c-0.7,1.1-1.7,1.6-3.1,1.6c-1.3,0-2.3-0.5-3-1.5s-1.1-2.3-1.1-4.1
			c0-1.7,0.4-3.1,1.1-4.1c0.7-1,1.7-1.5,3-1.5c1.3,0,2.4,0.5,3.1,1.6h0.1l0.2-1.4h1.3V379c0,1.5-0.4,2.7-1.1,3.5
			c-0.7,0.8-1.8,1.2-3.3,1.2c-1.4,0-2.6-0.2-3.5-0.7v-1.6c1,0.6,2.2,0.8,3.6,0.8c0.8,0,1.5-0.3,2-0.8c0.5-0.5,0.7-1.3,0.7-2.2V378.8
			z M1128.6,377.6c1,0,1.7-0.3,2.2-0.9s0.7-1.5,0.7-2.8v-0.4c0-1.4-0.2-2.5-0.7-3.1c-0.5-0.7-1.2-1-2.2-1c-0.8,0-1.5,0.4-1.9,1.1
			c-0.5,0.7-0.7,1.7-0.7,3.1c0,1.3,0.2,2.3,0.7,3S1127.7,377.6,1128.6,377.6z"/>
		<path class="st1" d="M1144.4,379c-1.3,0-2.3-0.5-3-1.4c-0.7-1-1.1-2.3-1.1-4.1c0-1.8,0.4-3.1,1.1-4.1s1.7-1.5,3-1.5
			c1.3,0,2.3,0.5,3.1,1.6h0.1c0-0.1,0-0.4-0.1-0.8c0-0.4,0-0.7,0-0.8v-4.3h1.6v15.2h-1.3l-0.2-1.4h-0.1
			C1146.8,378.5,1145.8,379,1144.4,379z M1144.7,377.6c1,0,1.7-0.3,2.1-0.9s0.7-1.5,0.7-2.9v-0.3c0-1.5-0.2-2.6-0.7-3.2
			s-1.2-1-2.2-1c-0.8,0-1.5,0.4-1.9,1.1s-0.7,1.7-0.7,3.1c0,1.3,0.2,2.3,0.7,3C1143.2,377.2,1143.9,377.6,1144.7,377.6z"/>
		<path class="st1" d="M1156.5,379c-1.5,0-2.6-0.5-3.5-1.5c-0.8-1-1.3-2.3-1.3-4c0-1.7,0.4-3.1,1.2-4.1s1.8-1.5,3.2-1.5
			c1.2,0,2.2,0.4,3,1.3s1.1,2,1.1,3.5v1.1h-6.8c0,1.2,0.3,2.1,0.9,2.8s1.3,0.9,2.3,0.9c0.5,0,1-0.1,1.5-0.2s1-0.3,1.7-0.6v1.5
			c-0.5,0.3-1.1,0.4-1.5,0.5C1157.7,379,1157.1,379,1156.5,379z M1156,369.4c-0.8,0-1.4,0.3-1.8,0.8c-0.4,0.5-0.7,1.3-0.8,2.3h5
			c0-1-0.2-1.8-0.6-2.3S1156.8,369.4,1156,369.4z"/>
		<path class="st1" d="M1169.3,378.8V372c0-0.9-0.2-1.5-0.5-1.9c-0.4-0.4-0.9-0.6-1.7-0.6c-1,0-1.7,0.3-2.2,0.9
			c-0.5,0.6-0.7,1.6-0.7,3v5.6h-1.6v-10.7h1.3l0.2,1.5h0.1c0.3-0.5,0.7-0.9,1.3-1.2s1.2-0.4,1.8-0.4c1.2,0,2.1,0.3,2.7,1
			c0.6,0.6,0.9,1.6,0.9,3v7H1169.3z"/>
		<path class="st1" d="M1180.6,378.8l0.1-1.3h-0.1c-0.7,1.1-1.7,1.6-3.1,1.6c-1.3,0-2.3-0.5-3-1.5s-1.1-2.3-1.1-4.1
			c0-1.7,0.4-3.1,1.1-4.1c0.7-1,1.7-1.5,3-1.5c1.3,0,2.4,0.5,3.1,1.6h0.1l0.2-1.4h1.3V379c0,1.5-0.4,2.7-1.1,3.5
			c-0.7,0.8-1.8,1.2-3.3,1.2c-1.4,0-2.6-0.2-3.5-0.7v-1.6c1,0.6,2.2,0.8,3.6,0.8c0.8,0,1.5-0.3,2-0.8c0.5-0.5,0.7-1.3,0.7-2.2V378.8
			z M1177.7,377.6c1,0,1.7-0.3,2.2-0.9s0.7-1.5,0.7-2.8v-0.4c0-1.4-0.2-2.5-0.7-3.1c-0.5-0.7-1.2-1-2.2-1c-0.8,0-1.5,0.4-1.9,1.1
			s-0.7,1.7-0.7,3.1c0,1.3,0.2,2.3,0.7,3C1176.2,377.3,1176.9,377.6,1177.7,377.6z"/>
		<path class="st1" d="M1191.4,378.8l-0.3-1.5h-0.1c-0.5,0.7-1,1.1-1.5,1.4c-0.5,0.2-1.1,0.4-1.8,0.4c-1,0-1.7-0.3-2.3-0.8
			s-0.8-1.3-0.8-2.3c0-2.2,1.6-3.3,4.7-3.4l1.7-0.1v-0.6c0-0.8-0.2-1.4-0.5-1.8c-0.3-0.4-0.8-0.6-1.6-0.6c-0.5,0-1,0.1-1.5,0.3
			s-0.9,0.4-1.3,0.6l-0.5-1.3c0.5-0.3,1-0.5,1.6-0.7s1.2-0.2,1.7-0.2c1.2,0,2.1,0.3,2.7,0.9s0.9,1.5,0.9,2.7v7.3H1191.4z
			 M1188.1,377.6c0.9,0,1.6-0.3,2.1-0.8s0.8-1.3,0.8-2.3v-1l-1.5,0.1c-1.1,0-2,0.2-2.5,0.6s-0.8,0.9-0.8,1.6c0,0.6,0.2,1,0.5,1.3
			C1187,377.5,1187.5,377.6,1188.1,377.6z"/>
		<path class="st1" d="M1202.3,378.8V372c0-0.9-0.2-1.5-0.5-1.9c-0.4-0.4-0.9-0.6-1.7-0.6c-1,0-1.7,0.3-2.2,0.9s-0.7,1.6-0.7,3v5.6
			h-1.6v-10.7h1.3l0.2,1.5h0.1c0.3-0.5,0.7-0.9,1.3-1.2s1.2-0.4,1.8-0.4c1.2,0,2.1,0.3,2.7,1s0.9,1.6,0.9,3v7H1202.3z"/>
		<path class="st1" d="M1097.1,397.4c-1.3,0-2.3-0.5-3.1-1.6h-0.1l0,0.4c0,0.5,0.1,1,0.1,1.4v4.4h-1.6v-15.5h1.3l0.2,1.5h0.1
			c0.4-0.6,0.8-1,1.3-1.3c0.5-0.3,1.1-0.4,1.7-0.4c1.3,0,2.3,0.5,3,1.5s1.1,2.3,1.1,4.1c0,1.8-0.4,3.1-1.1,4.1
			C1099.4,397,1098.4,397.4,1097.1,397.4z M1096.9,387.8c-1,0-1.7,0.3-2.1,0.9s-0.7,1.5-0.7,2.8v0.3c0,1.5,0.2,2.5,0.7,3.1
			c0.4,0.6,1.2,1,2.2,1c0.8,0,1.5-0.4,1.9-1.1s0.7-1.7,0.7-3c0-1.3-0.2-2.3-0.7-3S1097.7,387.8,1096.9,387.8z"/>
		<path class="st1" d="M1108,397.4c-1.5,0-2.6-0.5-3.5-1.5s-1.3-2.3-1.3-4c0-1.7,0.4-3.1,1.2-4.1c0.8-1,1.8-1.5,3.2-1.5
			c1.2,0,2.2,0.4,3,1.3c0.7,0.9,1.1,2,1.1,3.5v1.1h-6.8c0,1.2,0.3,2.1,0.9,2.8c0.5,0.6,1.3,0.9,2.3,0.9c0.5,0,1-0.1,1.5-0.2
			s1-0.3,1.7-0.6v1.5c-0.5,0.3-1.1,0.4-1.5,0.5C1109.2,397.4,1108.6,397.4,1108,397.4z M1107.6,387.8c-0.8,0-1.4,0.3-1.8,0.8
			c-0.4,0.5-0.7,1.3-0.8,2.3h5c0-1-0.2-1.8-0.6-2.3S1108.3,387.8,1107.6,387.8z"/>
		<path class="st1" d="M1120.6,394.3c0,1-0.3,1.8-1,2.3s-1.7,0.8-2.9,0.8c-1.3,0-2.3-0.2-3.1-0.7v-1.6c1.1,0.6,2.1,0.9,3.1,0.9
			c0.8,0,1.4-0.1,1.8-0.4s0.6-0.7,0.6-1.2c0-0.4-0.2-0.8-0.5-1.1c-0.4-0.3-1-0.6-1.9-1c-0.9-0.4-1.6-0.7-2-1s-0.7-0.6-0.8-0.9
			s-0.3-0.8-0.3-1.3c0-0.9,0.3-1.6,1-2.1s1.6-0.8,2.7-0.8c1.1,0,2.2,0.2,3.1,0.7l-0.5,1.4c-1-0.5-1.9-0.7-2.7-0.7
			c-0.7,0-1.2,0.1-1.5,0.3c-0.3,0.2-0.5,0.5-0.5,1c0,0.4,0.1,0.7,0.4,1c0.3,0.3,1,0.6,2.1,1.1c0.8,0.3,1.4,0.6,1.8,0.9
			c0.4,0.3,0.7,0.6,0.9,1S1120.6,393.8,1120.6,394.3z"/>
		<path class="st1" d="M1129,397.2l-0.3-1.5h-0.1c-0.5,0.7-1,1.1-1.5,1.4c-0.5,0.2-1.1,0.4-1.8,0.4c-1,0-1.7-0.3-2.3-0.8
			c-0.5-0.6-0.8-1.3-0.8-2.3c0-2.2,1.6-3.3,4.7-3.4l1.7-0.1v-0.6c0-0.8-0.2-1.4-0.5-1.8s-0.8-0.6-1.6-0.6c-0.5,0-1,0.1-1.5,0.3
			s-0.9,0.4-1.3,0.6l-0.5-1.3c0.5-0.3,1-0.5,1.6-0.7c0.6-0.2,1.2-0.2,1.7-0.2c1.2,0,2.1,0.3,2.7,0.9c0.6,0.6,0.9,1.5,0.9,2.7v7.3
			H1129z M1125.7,396c0.9,0,1.6-0.3,2.1-0.8s0.8-1.3,0.8-2.3v-1l-1.5,0.1c-1.1,0-2,0.2-2.5,0.6s-0.8,0.9-0.8,1.6
			c0,0.6,0.2,1,0.5,1.3S1125.2,396,1125.7,396z"/>
		<path class="st1" d="M1136.6,396c0.2,0,0.5,0,0.7-0.1s0.5-0.1,0.6-0.2v1.3c-0.2,0.1-0.4,0.1-0.7,0.2c-0.3,0.1-0.6,0.1-1,0.1
			c-1.9,0-2.9-1.1-2.9-3.3v-6.2h-1.4v-0.8l1.4-0.7l0.6-2.3h1v2.5h2.8v1.4h-2.8v6.2c0,0.6,0.1,1.1,0.4,1.4
			C1135.7,395.8,1136.1,396,1136.6,396z"/>
	</g>
</g>
<g>
	<rect x="1098.1" y="252.1" class="st3" width="40" height="38.7"/>
	<rect x="1103" y="266.2" class="st3" width="12.9" height="24.6"/>
	<circle class="st3" cx="1112" cy="276.2" r="1.8"/>
	<polygon class="st3" points="1148.4,252.1 1139.9,240.6 1126.7,240.6 1126.7,240.5 1119,240.6 1111.3,240.5 1111.3,240.6 
		1098.1,240.6 1089.6,252.1 1119,252 	"/>
	<path class="st3" d="M1096.1,253.9c0,1.8-1.5,3.3-3.3,3.3s-3.3-1.5-3.3-3.3V252h6.5V253.9z"/>
	<path class="st3" d="M1102.7,253.9c0,1.8-1.5,3.3-3.3,3.3s-3.3-1.5-3.3-3.3V252h6.5V253.9z"/>
	<path class="st3" d="M1109.2,253.9c0,1.8-1.5,3.3-3.3,3.3c-1.8,0-3.3-1.5-3.3-3.3V252h6.5V253.9z"/>
	<path class="st3" d="M1115.7,253.9c0,1.8-1.5,3.3-3.3,3.3s-3.3-1.5-3.3-3.3V252h6.5V253.9z"/>
	<path class="st3" d="M1122.3,253.9c0,1.8-1.5,3.3-3.3,3.3s-3.3-1.5-3.3-3.3V252h6.5V253.9z"/>
	<path class="st3" d="M1128.8,253.9c0,1.8-1.5,3.3-3.3,3.3c-1.8,0-3.3-1.5-3.3-3.3V252h6.5V253.9z"/>
	<path class="st3" d="M1135.3,253.9c0,1.8-1.5,3.3-3.3,3.3c-1.8,0-3.3-1.5-3.3-3.3V252h6.5V253.9z"/>
	<path class="st3" d="M1141.9,253.9c0,1.8-1.5,3.3-3.3,3.3s-3.3-1.5-3.3-3.3V252h6.5V253.9z"/>
	<path class="st3" d="M1148.4,253.9c0,1.8-1.5,3.3-3.3,3.3s-3.3-1.5-3.3-3.3V252h6.5V253.9z"/>
</g>
</svg>
