<?xml version="1.0" encoding="utf-8"?>
<!-- Generator: Adobe Illustrator 19.0.0, SVG Export Plug-In . SVG Version: 6.00 Build 0)  -->
<svg version="1.1" id="Layer_1" xmlns="http://www.w3.org/2000/svg" xmlns:xlink="http://www.w3.org/1999/xlink" x="0px" y="0px"
	 viewBox="739.6 199.7 249.1 241.9" style="enable-background:new 739.6 199.7 249.1 241.9;" xml:space="preserve">
<style type="text/css">
	.st0{fill:#E3E3E3;stroke:#E3E3E3;stroke-width:0.9456;stroke-miterlimit:10;}
	.st1{fill:#3F3F3F;}
	.st2{fill:#33CCCC;}
	.st3{fill:none;stroke:#33CCCC;stroke-width:1.5;stroke-miterlimit:10;}
</style>
<rect x="740.1" y="200.2" class="st0" width="248.1" height="241"/>
<g>
	<path class="st1" d="M797.7,334.9c0,2.4-0.6,4.2-1.8,5.4c-1.2,1.2-2.9,1.9-5.1,1.9h-3.7v-14.3h4c2,0,3.6,0.6,4.8,1.8
		C797.1,330.9,797.7,332.6,797.7,334.9z M795.9,334.9c0-1.8-0.4-3.2-1.2-4.1c-0.8-0.9-2.1-1.4-3.7-1.4h-2.2v11.2h1.8
		C794.1,340.6,795.9,338.7,795.9,334.9z"/>
	<path class="st1" d="M804.5,342.3c-1.5,0-2.6-0.5-3.5-1.5s-1.3-2.3-1.3-4c0-1.7,0.4-3.1,1.2-4.1c0.8-1,1.8-1.5,3.2-1.5
		c1.2,0,2.2,0.4,3,1.3c0.7,0.9,1.1,2,1.1,3.5v1.1h-6.8c0,1.2,0.3,2.1,0.9,2.8c0.5,0.6,1.3,0.9,2.3,0.9c0.5,0,1-0.1,1.5-0.2
		s1-0.3,1.7-0.6v1.5c-0.5,0.3-1.1,0.4-1.5,0.5C805.8,342.3,805.2,342.3,804.5,342.3z M804.1,332.7c-0.8,0-1.4,0.3-1.8,0.8
		c-0.4,0.5-0.7,1.3-0.8,2.3h5c0-1-0.2-1.8-0.6-2.3S804.9,332.7,804.1,332.7z"/>
	<path class="st1" d="M817.4,342.1v-6.9c0-0.9-0.2-1.5-0.5-1.9c-0.4-0.4-0.9-0.6-1.7-0.6c-1,0-1.7,0.3-2.2,0.9s-0.7,1.6-0.7,3v5.6
		h-1.6v-10.7h1.3l0.2,1.5h0.1c0.3-0.5,0.7-0.9,1.3-1.2c0.6-0.3,1.2-0.4,1.8-0.4c1.2,0,2.1,0.3,2.7,1c0.6,0.6,0.9,1.6,0.9,3v7H817.4z
		"/>
	<path class="st1" d="M828.7,342l0.1-1.3h-0.1c-0.7,1.1-1.7,1.6-3.1,1.6c-1.3,0-2.3-0.5-3-1.5s-1.1-2.3-1.1-4.1
		c0-1.7,0.4-3.1,1.1-4.1c0.7-1,1.7-1.5,3-1.5c1.3,0,2.4,0.5,3.1,1.6h0.1l0.2-1.4h1.3v10.9c0,1.5-0.4,2.7-1.1,3.5
		c-0.7,0.8-1.8,1.2-3.3,1.2c-1.4,0-2.6-0.2-3.5-0.7v-1.6c1,0.6,2.2,0.8,3.6,0.8c0.8,0,1.5-0.3,2-0.8c0.5-0.5,0.7-1.3,0.7-2.2V342z
		 M825.8,340.9c1,0,1.7-0.3,2.2-0.9c0.5-0.6,0.7-1.5,0.7-2.8v-0.4c0-1.4-0.2-2.5-0.7-3.1c-0.5-0.7-1.2-1-2.2-1
		c-0.8,0-1.5,0.4-1.9,1.1c-0.5,0.7-0.7,1.7-0.7,3.1c0,1.3,0.2,2.3,0.7,3C824.3,340.5,825,340.9,825.8,340.9z"/>
	<path class="st1" d="M839.5,342.1l-0.3-1.5h-0.1c-0.5,0.7-1,1.1-1.5,1.4c-0.5,0.2-1.1,0.4-1.8,0.4c-1,0-1.7-0.3-2.3-0.8
		s-0.8-1.3-0.8-2.3c0-2.2,1.6-3.3,4.7-3.4l1.7-0.1V335c0-0.8-0.2-1.4-0.5-1.8s-0.8-0.6-1.6-0.6c-0.5,0-1,0.1-1.5,0.3
		c-0.5,0.2-0.9,0.4-1.3,0.6l-0.5-1.3c0.5-0.3,1-0.5,1.6-0.7c0.6-0.2,1.2-0.2,1.7-0.2c1.2,0,2.1,0.3,2.7,0.9s0.9,1.5,0.9,2.7v7.3
		H839.5z M836.1,340.9c0.9,0,1.6-0.3,2.1-0.8c0.5-0.5,0.8-1.3,0.8-2.3v-1l-1.5,0.1c-1.1,0-2,0.2-2.5,0.6s-0.8,0.9-0.8,1.6
		c0,0.6,0.2,1,0.5,1.3S835.6,340.9,836.1,340.9z"/>
	<path class="st1" d="M850.4,342.1v-6.9c0-0.9-0.2-1.5-0.5-1.9s-0.9-0.6-1.7-0.6c-1,0-1.7,0.3-2.2,0.9c-0.5,0.6-0.7,1.6-0.7,3v5.6
		h-1.6v-10.7h1.3l0.2,1.5h0.1c0.3-0.5,0.7-0.9,1.3-1.2s1.2-0.4,1.8-0.4c1.2,0,2.1,0.3,2.7,1c0.6,0.6,0.9,1.6,0.9,3v7H850.4z"/>
	<path class="st1" d="M861.5,342.1h-1.6v-15.2h1.6V342.1z"/>
	<path class="st1" d="M868.8,342.3c-1.5,0-2.6-0.5-3.5-1.5s-1.3-2.3-1.3-4c0-1.7,0.4-3.1,1.2-4.1c0.8-1,1.8-1.5,3.2-1.5
		c1.2,0,2.2,0.4,3,1.3c0.7,0.9,1.1,2,1.1,3.5v1.1h-6.8c0,1.2,0.3,2.1,0.9,2.8c0.5,0.6,1.3,0.9,2.3,0.9c0.5,0,1-0.1,1.5-0.2
		s1-0.3,1.7-0.6v1.5c-0.5,0.3-1.1,0.4-1.5,0.5S869.4,342.3,868.8,342.3z M868.4,332.7c-0.8,0-1.4,0.3-1.8,0.8s-0.7,1.3-0.8,2.3h5
		c0-1-0.2-1.8-0.6-2.3S869.1,332.7,868.4,332.7z"/>
	<path class="st1" d="M879.6,331.2c1.3,0,2.3,0.5,3,1.5s1.1,2.3,1.1,4.1c0,1.8-0.4,3.1-1.1,4.1c-0.7,1-1.7,1.5-3,1.5
		c-0.7,0-1.3-0.1-1.8-0.4s-0.9-0.6-1.3-1.2h-0.1c-0.2,0.8-0.3,1.2-0.3,1.4h-1.2v-15.2h1.6v3.7c0,0.7,0,1.5-0.1,2.2h0.1
		C877.2,331.8,878.2,331.2,879.6,331.2z M879.3,332.7c-1,0-1.7,0.3-2.1,0.9c-0.4,0.6-0.6,1.6-0.6,3.1v0.1c0,1.5,0.2,2.5,0.7,3.1
		c0.4,0.6,1.2,0.9,2.2,0.9c0.9,0,1.5-0.4,2-1.1c0.4-0.7,0.7-1.7,0.7-3.1c0-1.4-0.2-2.4-0.7-3S880.2,332.7,879.3,332.7z"/>
	<path class="st1" d="M886.1,328.5c0-0.4,0.1-0.7,0.3-0.8s0.4-0.3,0.7-0.3c0.3,0,0.5,0.1,0.7,0.3s0.3,0.5,0.3,0.8
		c0,0.4-0.1,0.7-0.3,0.8s-0.4,0.3-0.7,0.3c-0.3,0-0.5-0.1-0.7-0.3S886.1,328.9,886.1,328.5z M887.9,342.1h-1.6v-10.7h1.6V342.1z"/>
	<path class="st1" d="M897.7,342.1v-6.9c0-0.9-0.2-1.5-0.5-1.9s-0.9-0.6-1.7-0.6c-1,0-1.7,0.3-2.2,0.9c-0.5,0.6-0.7,1.6-0.7,3v5.5
		H891v-15.2h1.6v4.5c0,0.6,0,1.1-0.1,1.5h0.1c0.3-0.5,0.7-0.9,1.2-1.2c0.5-0.3,1.1-0.4,1.8-0.4c1.2,0,2.1,0.3,2.7,0.9
		c0.6,0.6,0.9,1.6,0.9,3v7H897.7z"/>
	<path class="st1" d="M910.6,342.3c-1.3,0-2.3-0.5-3-1.4s-1.1-2.3-1.1-4.1c0-1.8,0.4-3.1,1.1-4.1c0.7-1,1.7-1.5,3-1.5
		c1.3,0,2.3,0.5,3.1,1.6h0.1c0-0.1,0-0.4-0.1-0.8c0-0.4,0-0.7,0-0.8v-4.3h1.6v15.2H914l-0.2-1.4h-0.1
		C913,341.8,912,342.3,910.6,342.3z M910.9,340.9c1,0,1.7-0.3,2.1-0.9c0.5-0.6,0.7-1.5,0.7-2.9v-0.3c0-1.5-0.2-2.6-0.7-3.2
		s-1.2-1-2.2-1c-0.8,0-1.5,0.4-1.9,1.1c-0.5,0.7-0.7,1.7-0.7,3.1c0,1.3,0.2,2.3,0.7,3C909.4,340.5,910,340.9,910.9,340.9z"/>
	<path class="st1" d="M924.5,342.1l-0.3-1.5h-0.1c-0.5,0.7-1,1.1-1.5,1.4c-0.5,0.2-1.1,0.4-1.8,0.4c-1,0-1.7-0.3-2.3-0.8
		c-0.5-0.6-0.8-1.3-0.8-2.3c0-2.2,1.6-3.3,4.7-3.4l1.7-0.1V335c0-0.8-0.2-1.4-0.5-1.8s-0.8-0.6-1.6-0.6c-0.5,0-1,0.1-1.5,0.3
		s-0.9,0.4-1.3,0.6l-0.5-1.3c0.5-0.3,1-0.5,1.6-0.7c0.6-0.2,1.2-0.2,1.7-0.2c1.2,0,2.1,0.3,2.7,0.9c0.6,0.6,0.9,1.5,0.9,2.7v7.3
		H924.5z M921.2,340.9c0.9,0,1.6-0.3,2.1-0.8s0.8-1.3,0.8-2.3v-1l-1.5,0.1c-1.1,0-2,0.2-2.5,0.6s-0.8,0.9-0.8,1.6
		c0,0.6,0.2,1,0.5,1.3S920.6,340.9,921.2,340.9z"/>
	<path class="st1" d="M933.4,331.2c0.4,0,0.8,0,1.2,0.1l-0.2,1.6c-0.4-0.1-0.7-0.1-1.1-0.1c-0.5,0-1,0.2-1.5,0.5
		c-0.4,0.3-0.8,0.7-1,1.3c-0.3,0.6-0.4,1.2-0.4,1.8v5.7h-1.6v-10.7h1.3l0.2,2h0.1c0.4-0.7,0.8-1.2,1.3-1.6S932.8,331.2,933.4,331.2z
		"/>
	<path class="st1" d="M936.2,328.5c0-0.4,0.1-0.7,0.3-0.8s0.4-0.3,0.7-0.3c0.3,0,0.5,0.1,0.7,0.3s0.3,0.5,0.3,0.8
		c0,0.4-0.1,0.7-0.3,0.8s-0.4,0.3-0.7,0.3c-0.3,0-0.5-0.1-0.7-0.3S936.2,328.9,936.2,328.5z M938,342.1h-1.6v-10.7h1.6V342.1z"/>
	<path class="st2" d="M776.3,368.9H772v-12l0-2l0.1-2.2c-0.7,0.7-1.2,1.2-1.5,1.4l-2.4,1.9l-2.1-2.6l6.7-5.3h3.6V368.9z"/>
	<path class="st2" d="M789.6,355.7c2,0,3.6,0.6,4.8,1.7c1.2,1.1,1.8,2.7,1.8,4.6c0,2.3-0.7,4.1-2.1,5.3s-3.5,1.9-6.1,1.9
		c-2.3,0-4.2-0.4-5.6-1.1v-3.8c0.7,0.4,1.6,0.7,2.6,1c1,0.3,1.9,0.4,2.8,0.4c2.7,0,4-1.1,4-3.3c0-2.1-1.4-3.1-4.1-3.1
		c-0.5,0-1.1,0-1.7,0.1c-0.6,0.1-1.1,0.2-1.5,0.3l-1.7-0.9l0.8-10.5h11.2v3.7h-7.4L787,356l0.5-0.1
		C788.1,355.8,788.8,355.7,789.6,355.7z"/>
	<path class="st1" d="M805.5,373.7c-0.6,0-1-0.1-1.4-0.2v-1.4c0.4,0.1,0.8,0.2,1.2,0.2c0.5,0,0.8-0.1,1-0.4c0.2-0.3,0.3-0.7,0.3-1.3
		v-12.4h1.6v12.3c0,1.1-0.2,1.9-0.7,2.4S806.4,373.7,805.5,373.7z M806.5,355.3c0-0.4,0.1-0.7,0.3-0.8c0.2-0.2,0.4-0.3,0.7-0.3
		c0.3,0,0.5,0.1,0.7,0.3s0.3,0.5,0.3,0.8c0,0.4-0.1,0.7-0.3,0.8s-0.4,0.3-0.7,0.3c-0.3,0-0.5-0.1-0.7-0.3
		C806.6,356,806.5,355.7,806.5,355.3z"/>
	<path class="st1" d="M812.9,358.2v6.9c0,0.9,0.2,1.5,0.5,1.9c0.4,0.4,0.9,0.6,1.7,0.6c1,0,1.7-0.3,2.2-0.9s0.7-1.6,0.7-3v-5.6h1.6
		v10.7h-1.3l-0.2-1.4H818c-0.3,0.5-0.7,0.9-1.2,1.2c-0.5,0.3-1.2,0.4-1.9,0.4c-1.2,0-2.1-0.3-2.7-0.9c-0.6-0.6-0.9-1.6-0.9-3v-7
		H812.9z"/>
	<path class="st1" d="M826,367.7c0.2,0,0.5,0,0.7-0.1s0.5-0.1,0.6-0.2v1.3c-0.1,0.1-0.4,0.1-0.7,0.2c-0.3,0.1-0.6,0.1-1,0.1
		c-1.9,0-2.9-1.1-2.9-3.3v-6.2h-1.4v-0.8l1.4-0.7l0.6-2.3h1v2.5h2.8v1.4h-2.8v6.2c0,0.6,0.1,1.1,0.4,1.4S825.5,367.7,826,367.7z"/>
	<path class="st1" d="M835.4,368.9l-0.3-1.5h-0.1c-0.5,0.7-1,1.1-1.5,1.4c-0.5,0.2-1.1,0.4-1.8,0.4c-1,0-1.7-0.3-2.3-0.8
		s-0.8-1.3-0.8-2.3c0-2.2,1.6-3.3,4.7-3.4l1.7-0.1v-0.6c0-0.8-0.2-1.4-0.5-1.8s-0.8-0.6-1.6-0.6c-0.5,0-1,0.1-1.5,0.3
		c-0.5,0.2-0.9,0.4-1.3,0.6l-0.5-1.3c0.5-0.3,1-0.5,1.6-0.7c0.6-0.2,1.2-0.2,1.7-0.2c1.2,0,2.1,0.3,2.7,0.9s0.9,1.5,0.9,2.7v7.3
		H835.4z M832.1,367.7c0.9,0,1.6-0.3,2.1-0.8c0.5-0.5,0.8-1.3,0.8-2.3v-1l-1.5,0.1c-1.1,0-2,0.2-2.5,0.6s-0.8,0.9-0.8,1.6
		c0,0.6,0.2,1,0.5,1.3S831.5,367.7,832.1,367.7z"/>
	<path class="st1" d="M849.1,369.1c-1.3,0-2.3-0.5-3.1-1.6H846l0,0.4c0,0.5,0.1,1,0.1,1.4v4.4h-1.6v-15.5h1.3l0.2,1.5h0.1
		c0.4-0.6,0.8-1,1.3-1.3c0.5-0.3,1.1-0.4,1.7-0.4c1.3,0,2.3,0.5,3,1.5s1.1,2.3,1.1,4.1c0,1.8-0.4,3.1-1.1,4.1
		S850.4,369.1,849.1,369.1z M848.8,359.5c-1,0-1.7,0.3-2.1,0.9s-0.7,1.5-0.7,2.8v0.3c0,1.5,0.2,2.5,0.7,3.1c0.4,0.6,1.2,1,2.2,1
		c0.8,0,1.5-0.4,1.9-1.1s0.7-1.7,0.7-3c0-1.3-0.2-2.3-0.7-3S849.7,359.5,848.8,359.5z"/>
	<path class="st1" d="M860.3,358c0.4,0,0.8,0,1.2,0.1l-0.2,1.6c-0.4-0.1-0.7-0.1-1.1-0.1c-0.5,0-1,0.2-1.5,0.5
		c-0.4,0.3-0.8,0.7-1,1.3c-0.3,0.6-0.4,1.2-0.4,1.8v5.7h-1.6v-10.7h1.3l0.2,2h0.1c0.4-0.7,0.8-1.2,1.3-1.6S859.7,358,860.3,358z"/>
	<path class="st1" d="M871.7,363.6c0,1.8-0.4,3.1-1.2,4.1c-0.8,1-1.9,1.5-3.4,1.5c-0.9,0-1.7-0.2-2.4-0.7s-1.2-1.1-1.6-1.9
		s-0.6-1.8-0.6-2.9c0-1.7,0.4-3.1,1.2-4.1s1.9-1.5,3.4-1.5c1.4,0,2.5,0.5,3.3,1.5S871.7,361.8,871.7,363.6z M864.3,363.6
		c0,1.3,0.2,2.4,0.7,3.1c0.5,0.7,1.2,1,2.2,1c0.9,0,1.7-0.4,2.1-1c0.5-0.7,0.7-1.7,0.7-3.1s-0.2-2.4-0.7-3c-0.5-0.7-1.2-1-2.2-1
		C865.2,359.5,864.3,360.8,864.3,363.6z"/>
	<path class="st1" d="M877.8,369.1c-1.3,0-2.3-0.5-3-1.4s-1.1-2.3-1.1-4.1c0-1.8,0.4-3.1,1.1-4.1s1.7-1.5,3-1.5
		c1.3,0,2.3,0.5,3.1,1.6h0.1c0-0.1,0-0.4-0.1-0.8s0-0.7,0-0.8v-4.3h1.6v15.2h-1.3l-0.2-1.4h-0.1
		C880.2,368.6,879.1,369.1,877.8,369.1z M878,367.7c1,0,1.7-0.3,2.2-0.9c0.5-0.6,0.7-1.5,0.7-2.9v-0.3c0-1.5-0.2-2.6-0.7-3.2
		c-0.5-0.6-1.2-1-2.2-1c-0.8,0-1.5,0.4-1.9,1.1c-0.5,0.7-0.7,1.7-0.7,3.1c0,1.3,0.2,2.3,0.7,3S877.2,367.7,878,367.7z"/>
	<path class="st1" d="M887.1,358.2v6.9c0,0.9,0.2,1.5,0.5,1.9s0.9,0.6,1.7,0.6c1,0,1.7-0.3,2.2-0.9s0.7-1.6,0.7-3v-5.6h1.6v10.7
		h-1.3l-0.2-1.4h-0.1c-0.3,0.5-0.7,0.9-1.2,1.2c-0.5,0.3-1.2,0.4-1.9,0.4c-1.2,0-2.1-0.3-2.7-0.9s-0.9-1.6-0.9-3v-7H887.1z"/>
	<path class="st1" d="M898.6,363.4l0.5-0.8l0.6-0.8l3.2-3.6h1.9l-4,4.6l4.3,6.1h-1.9l-3.4-5l-1.1,1.1v3.9H897v-15.2h1.6v7.9V363.4
		L898.6,363.4z"/>
	<path class="st1" d="M913.1,358.2v6.9c0,0.9,0.2,1.5,0.5,1.9c0.4,0.4,0.9,0.6,1.7,0.6c1,0,1.7-0.3,2.2-0.9s0.7-1.6,0.7-3v-5.6h1.6
		v10.7h-1.3l-0.2-1.4h-0.1c-0.3,0.5-0.7,0.9-1.2,1.2c-0.5,0.3-1.2,0.4-1.9,0.4c-1.2,0-2.1-0.3-2.7-0.9s-0.9-1.6-0.9-3v-7H913.1z"/>
	<path class="st1" d="M929.6,368.9v-6.9c0-0.9-0.2-1.5-0.5-1.9c-0.4-0.4-0.9-0.6-1.7-0.6c-1,0-1.7,0.3-2.2,0.9s-0.7,1.6-0.7,3v5.6
		h-1.6v-10.7h1.3l0.2,1.5h0.1c0.3-0.5,0.7-0.9,1.3-1.2s1.2-0.4,1.8-0.4c1.2,0,2.1,0.3,2.7,1c0.6,0.6,0.9,1.6,0.9,3v7H929.6z"/>
	<path class="st1" d="M937.6,367.7c0.2,0,0.5,0,0.7-0.1s0.5-0.1,0.6-0.2v1.3c-0.2,0.1-0.4,0.1-0.7,0.2c-0.3,0.1-0.6,0.1-1,0.1
		c-1.9,0-2.9-1.1-2.9-3.3v-6.2H933v-0.8l1.4-0.7l0.6-2.3h1v2.5h2.8v1.4H936v6.2c0,0.6,0.1,1.1,0.4,1.4
		C936.7,367.5,937.1,367.7,937.6,367.7z"/>
	<path class="st1" d="M942.4,358.2v6.9c0,0.9,0.2,1.5,0.5,1.9c0.4,0.4,0.9,0.6,1.7,0.6c1,0,1.7-0.3,2.2-0.9s0.7-1.6,0.7-3v-5.6h1.6
		v10.7h-1.3l-0.2-1.4h-0.1c-0.3,0.5-0.7,0.9-1.2,1.2c-0.5,0.3-1.2,0.4-1.9,0.4c-1.2,0-2.1-0.3-2.7-0.9s-0.9-1.6-0.9-3v-7H942.4z"/>
	<path class="st1" d="M953.9,363.4l0.5-0.8l0.6-0.8l3.2-3.6h1.9l-4,4.6l4.3,6.1h-1.9l-3.4-5l-1.1,1.1v3.9h-1.6v-15.2h1.6v7.9V363.4
		L953.9,363.4z"/>
	<path class="st1" d="M821,393.9c-1.3,0-2.3-0.5-3-1.4c-0.7-1-1.1-2.3-1.1-4.1c0-1.8,0.4-3.1,1.1-4.1s1.7-1.5,3-1.5
		c1.3,0,2.3,0.5,3.1,1.6h0.1c0-0.1,0-0.4-0.1-0.8c0-0.4,0-0.7,0-0.8v-4.3h1.6v15.2h-1.3l-0.2-1.4H824
		C823.3,393.4,822.3,393.9,821,393.9z M821.2,392.5c1,0,1.7-0.3,2.1-0.9s0.7-1.5,0.7-2.9v-0.3c0-1.5-0.2-2.6-0.7-3.2s-1.2-1-2.2-1
		c-0.8,0-1.5,0.4-1.9,1.1s-0.7,1.7-0.7,3.1c0,1.3,0.2,2.3,0.7,3C819.7,392.1,820.4,392.5,821.2,392.5z"/>
	<path class="st1" d="M828.6,380.1c0-0.4,0.1-0.7,0.3-0.8s0.4-0.3,0.7-0.3c0.3,0,0.5,0.1,0.7,0.3s0.3,0.5,0.3,0.8
		c0,0.4-0.1,0.7-0.3,0.8s-0.4,0.3-0.7,0.3c-0.3,0-0.5-0.1-0.7-0.3S828.6,380.5,828.6,380.1z M830.4,393.7h-1.6V383h1.6V393.7z"/>
	<path class="st1" d="M836.8,392.5c0.2,0,0.5,0,0.7-0.1s0.5-0.1,0.6-0.2v1.3c-0.2,0.1-0.4,0.1-0.7,0.2c-0.3,0.1-0.6,0.1-1,0.1
		c-1.9,0-2.9-1.1-2.9-3.3v-6.2h-1.4v-0.8l1.4-0.7l0.6-2.3h1v2.5h2.8v1.4h-2.8v6.2c0,0.6,0.1,1.1,0.4,1.4
		C835.9,392.3,836.3,392.5,836.8,392.5z"/>
	<path class="st1" d="M844.3,393.9c-1.5,0-2.6-0.5-3.5-1.5s-1.3-2.3-1.3-4c0-1.7,0.4-3.1,1.2-4.1s1.8-1.5,3.2-1.5
		c1.2,0,2.2,0.4,3,1.3s1.1,2,1.1,3.5v1.1h-6.8c0,1.2,0.3,2.1,0.9,2.8c0.5,0.6,1.3,0.9,2.3,0.9c0.5,0,1-0.1,1.5-0.2
		c0.5-0.1,1-0.3,1.7-0.6v1.5c-0.5,0.3-1.1,0.4-1.5,0.5S845,393.9,844.3,393.9z M843.9,384.3c-0.8,0-1.4,0.3-1.8,0.8
		c-0.4,0.5-0.7,1.3-0.8,2.3h5c0-1-0.2-1.8-0.6-2.3C845.3,384.5,844.7,384.3,843.9,384.3z"/>
	<path class="st1" d="M863,393.7v-6.9c0-1.7-0.7-2.5-2-2.5c-0.9,0-1.6,0.3-2,0.9c-0.4,0.6-0.6,1.5-0.6,2.7v5.9h-1.6v-6.9
		c0-0.8-0.2-1.5-0.5-1.9s-0.8-0.6-1.5-0.6c-0.9,0-1.6,0.3-2,0.9s-0.6,1.6-0.6,3v5.6h-1.6V383h1.3l0.2,1.5h0.1
		c0.3-0.5,0.7-0.9,1.2-1.2c0.5-0.3,1.1-0.4,1.7-0.4c1.5,0,2.5,0.6,3,1.8h0.1c0.3-0.6,0.7-1,1.3-1.3s1.2-0.5,1.9-0.5
		c1.1,0,1.9,0.3,2.5,0.9s0.8,1.6,0.8,3v7H863z"/>
	<path class="st1" d="M869.2,383v6.9c0,0.9,0.2,1.5,0.5,1.9c0.4,0.4,0.9,0.6,1.7,0.6c1,0,1.7-0.3,2.2-0.9s0.7-1.6,0.7-3V383h1.6
		v10.7h-1.3l-0.2-1.4h-0.1c-0.3,0.5-0.7,0.9-1.2,1.2c-0.5,0.3-1.2,0.4-1.9,0.4c-1.2,0-2.1-0.3-2.7-0.9s-0.9-1.6-0.9-3v-7H869.2z"/>
	<path class="st1" d="M880.7,388.2l0.5-0.8l0.6-0.8l3.2-3.6h1.9l-4,4.6l4.3,6.1h-1.9l-3.4-5l-1.1,1.1v3.9h-1.6v-15.2h1.6v7.9V388.2
		L880.7,388.2z"/>
	<path class="st1" d="M895,393.7l-0.3-1.5h-0.1c-0.5,0.7-1,1.1-1.5,1.4c-0.5,0.2-1.1,0.4-1.8,0.4c-1,0-1.7-0.3-2.3-0.8
		c-0.6-0.6-0.8-1.3-0.8-2.3c0-2.2,1.6-3.3,4.7-3.4l1.7-0.1v-0.6c0-0.8-0.2-1.4-0.5-1.8s-0.8-0.6-1.6-0.6c-0.5,0-1,0.1-1.5,0.3
		s-0.9,0.4-1.3,0.6l-0.5-1.3c0.5-0.3,1-0.5,1.6-0.7c0.6-0.2,1.2-0.2,1.7-0.2c1.2,0,2.1,0.3,2.7,0.9c0.6,0.6,0.9,1.5,0.9,2.7v7.3H895
		z M891.6,392.5c0.9,0,1.6-0.3,2.1-0.8s0.8-1.3,0.8-2.3v-1l-1.5,0.1c-1.1,0-2,0.2-2.5,0.6s-0.8,0.9-0.8,1.6c0,0.6,0.2,1,0.5,1.3
		C890.6,392.4,891.1,392.5,891.6,392.5z"/>
	<path class="st1" d="M905.9,393.7v-6.9c0-0.9-0.2-1.5-0.5-1.9c-0.4-0.4-0.9-0.6-1.7-0.6c-1,0-1.7,0.3-2.2,0.9s-0.7,1.6-0.7,3v5.6
		h-1.6V383h1.3l0.2,1.5h0.1c0.3-0.5,0.7-0.9,1.3-1.2c0.6-0.3,1.2-0.4,1.8-0.4c1.2,0,2.1,0.3,2.7,1c0.6,0.6,0.9,1.6,0.9,3v7H905.9z"
		/>
</g>
<g>
	<rect x="845.7" y="244.9" class="st3" width="39.2" height="45.9"/>
	<path class="st3" d="M853.3,248.9c0-5.3,4.3-9.6,9.6-9.6s9.6,4.3,9.6,9.6"/>
	<path class="st3" d="M861,248.9c0-5.3,4.3-9.6,9.6-9.6c5.3,0,9.6,4.3,9.6,9.6"/>
	<rect x="875.4" y="244.9" class="st3" width="9.4" height="45.9"/>
</g>
</svg>
