<?xml version="1.0" encoding="utf-8"?>
<!-- Generator: Adobe Illustrator 19.0.0, SVG Export Plug-In . SVG Version: 6.00 Build 0)  -->
<svg version="1.1" id="Layer_1" xmlns="http://www.w3.org/2000/svg" xmlns:xlink="http://www.w3.org/1999/xlink" x="0px" y="0px"
	 viewBox="-93.1 756 694.8 208.3" style="enable-background:new -93.1 756 694.8 208.3;" xml:space="preserve">
<style type="text/css">
	.st0{fill:#086A87;stroke:#086A87;stroke-width:1.5;stroke-linecap:round;stroke-linejoin:round;stroke-miterlimit:10;}
	.st1{fill:#0B90B8;}
	.st2{fill:#FFFFFF;}
</style>
<polygon class="st0" points="601,931.4 561.6,963.5 -92.3,963.5 -92.3,756.7 601,756.7 "/>
<polygon class="st1" points="562.1,963.8 601.8,931.3 564.5,928.8 "/>
<g>
	<path class="st2" d="M211.3,795.1c-1.5,0-2.6,0.6-3.4,1.8s-1.2,2.9-1.2,5c0,4.5,1.5,6.7,4.6,6.7c1.3,0,2.9-0.4,4.7-1.1v3.6
		c-1.5,0.7-3.2,1-5.1,1c-2.7,0-4.7-0.9-6.1-2.6s-2.1-4.3-2.1-7.6c0-2.1,0.3-3.9,1-5.5s1.7-2.8,3-3.6s2.8-1.3,4.6-1.3
		c1.8,0,3.6,0.5,5.4,1.4l-1.3,3.4c-0.7-0.4-1.4-0.7-2.1-0.9S212,795.1,211.3,795.1z"/>
	<path class="st2" d="M228.5,811.8l-0.7-2.1h-0.1c-0.6,0.9-1.3,1.5-2,1.8s-1.6,0.5-2.7,0.5c-1.3,0-2.4-0.4-3.2-1.3s-1.2-2-1.2-3.6
		c0-1.6,0.5-2.8,1.6-3.6s2.6-1.2,4.7-1.3l2.4-0.1v-0.7c0-1.5-0.7-2.3-2.2-2.3c-1.1,0-2.4,0.4-4,1.1l-1.3-2.8
		c1.6-0.9,3.4-1.4,5.4-1.4c1.9,0,3.3,0.4,4.3,1.3s1.5,2.3,1.5,4.1v10.2H228.5z M227.4,804.8l-1.5,0.1c-1.1,0-1.9,0.3-2.5,0.7
		c-0.5,0.4-0.8,1-0.8,1.8c0,1.2,0.6,1.8,1.9,1.8c0.9,0,1.6-0.3,2.1-0.8c0.5-0.6,0.8-1.3,0.8-2.2V804.8z"/>
	<path class="st2" d="M241.1,808.8c0.7,0,1.5-0.2,2.4-0.5v3.1c-1,0.5-2.1,0.7-3.5,0.7c-1.5,0-2.6-0.4-3.3-1.3c-0.7-0.8-1-2.1-1-3.8
		v-7.4h-1.8v-1.8l2.1-1.4l1.1-3.2h2.5v3.3h3.9v3.1h-3.9v7.4c0,0.6,0.2,1,0.5,1.3S240.6,808.8,241.1,808.8z"/>
	<path class="st2" d="M255.3,811.8l-0.7-2.1h-0.1c-0.6,0.9-1.3,1.5-2,1.8c-0.7,0.3-1.6,0.5-2.7,0.5c-1.3,0-2.4-0.4-3.2-1.3
		c-0.8-0.8-1.2-2-1.2-3.6c0-1.6,0.5-2.8,1.6-3.6s2.6-1.2,4.7-1.3l2.4-0.1v-0.7c0-1.5-0.7-2.3-2.2-2.3c-1.1,0-2.4,0.4-4,1.1l-1.3-2.8
		c1.6-0.9,3.4-1.4,5.4-1.4c1.9,0,3.3,0.4,4.3,1.3s1.5,2.3,1.5,4.1v10.2H255.3z M254.1,804.8l-1.5,0.1c-1.1,0-1.9,0.3-2.5,0.7
		c-0.5,0.4-0.8,1-0.8,1.8c0,1.2,0.6,1.8,1.9,1.8c0.9,0,1.6-0.3,2.1-0.8s0.8-1.3,0.8-2.2V804.8z"/>
	<path class="st2" d="M267.8,808.8c0.7,0,1.5-0.2,2.4-0.5v3.1c-1,0.5-2.1,0.7-3.5,0.7c-1.5,0-2.6-0.4-3.3-1.3c-0.7-0.8-1-2.1-1-3.8
		v-7.4h-1.8v-1.8l2.1-1.4l1.1-3.2h2.5v3.3h3.9v3.1h-3.9v7.4c0,0.6,0.2,1,0.5,1.3C266.9,808.6,267.3,808.8,267.8,808.8z"/>
	<path class="st2" d="M282,811.8l-0.7-2.1h-0.1c-0.6,0.9-1.3,1.5-2,1.8s-1.6,0.5-2.7,0.5c-1.3,0-2.4-0.4-3.2-1.3s-1.2-2-1.2-3.6
		c0-1.6,0.5-2.8,1.6-3.6s2.6-1.2,4.7-1.3l2.4-0.1v-0.7c0-1.5-0.7-2.3-2.2-2.3c-1.1,0-2.4,0.4-4,1.1l-1.3-2.8
		c1.6-0.9,3.4-1.4,5.4-1.4c1.9,0,3.3,0.4,4.3,1.3s1.5,2.3,1.5,4.1v10.2H282z M280.8,804.8l-1.5,0.1c-1.1,0-1.9,0.3-2.5,0.7
		c-0.5,0.4-0.8,1-0.8,1.8c0,1.2,0.6,1.8,1.9,1.8c0.9,0,1.6-0.3,2.1-0.8c0.5-0.6,0.8-1.3,0.8-2.2V804.8z"/>
	<path class="st2" d="M301.6,811.8h-3.8v-8.9c0-1.1-0.2-1.9-0.5-2.5s-0.9-0.8-1.7-0.8c-1.1,0-1.8,0.4-2.3,1.2s-0.7,2.1-0.7,3.9v7.2
		h-3.8v-15.3h2.9l0.5,2h0.2c0.4-0.7,1-1.3,1.8-1.7c0.7-0.4,1.6-0.6,2.6-0.6c1.6,0,2.9,0.5,3.7,1.4c0.8,1,1.3,2.3,1.3,4.2V811.8z"/>
	<path class="st2" d="M305,798.6c0-0.8,0.2-1.3,0.6-1.7c0.4-0.4,0.9-0.6,1.6-0.6c0.7,0,1.2,0.2,1.6,0.6c0.4,0.4,0.6,1,0.6,1.7
		c0,0.7-0.2,1.3-0.6,1.7s-0.9,0.6-1.6,0.6c-0.7,0-1.2-0.2-1.6-0.6C305.2,799.9,305,799.3,305,798.6z M305,809.9
		c0-0.8,0.2-1.3,0.6-1.7c0.4-0.4,0.9-0.6,1.6-0.6c0.7,0,1.2,0.2,1.6,0.6c0.4,0.4,0.6,1,0.6,1.7c0,0.7-0.2,1.3-0.6,1.7
		c-0.4,0.4-0.9,0.6-1.6,0.6c-0.7,0-1.2-0.2-1.6-0.6C305.2,811.2,305,810.6,305,809.9z"/>
	<path class="st2" d="M14.7,847.8h-4.4l-4.8-8.4l-1.6,1.3v7.1h-3.9v-20h3.9v9.1l1.5-2.4l5-6.8h4.3l-6.4,8.8L14.7,847.8z"/>
	<path class="st2" d="M23.1,848.1c-2.3,0-4-0.7-5.3-2c-1.3-1.4-1.9-3.3-1.9-5.8c0-2.6,0.6-4.5,1.8-5.9c1.2-1.4,2.8-2.1,4.9-2.1
		c2,0,3.5,0.6,4.6,1.8c1.1,1.2,1.7,2.9,1.7,5.1v2h-9.1c0,1.2,0.4,2.1,1,2.8c0.6,0.7,1.4,1,2.5,1c0.8,0,1.6-0.1,2.4-0.3
		s1.5-0.5,2.4-0.9v3.2c-0.7,0.4-1.4,0.6-2.1,0.8C25.1,848,24.2,848.1,23.1,848.1z M22.6,835.2c-0.8,0-1.4,0.3-1.9,0.8
		c-0.5,0.6-0.7,1.4-0.8,2.4h5.4c0-1-0.3-1.8-0.7-2.4S23.4,835.2,22.6,835.2z"/>
	<path class="st2" d="M39.8,832.3c1.7,0,3,0.7,3.9,2.1c0.9,1.4,1.4,3.3,1.4,5.8c0,2.5-0.5,4.5-1.5,5.9c-1,1.4-2.3,2.1-4,2.1
		c-1.7,0-2.9-0.7-3.9-2h-0.3l-0.6,1.7h-2.9v-21.3h3.8v4.9c0,0.6-0.1,1.6-0.2,3h0.2C36.7,833,38,832.3,39.8,832.3z M38.5,835.6
		c-0.9,0-1.6,0.3-2.1,1c-0.4,0.6-0.7,1.7-0.7,3.1v0.5c0,1.6,0.2,2.8,0.7,3.5c0.4,0.7,1.2,1.1,2.1,1.1c0.8,0,1.4-0.4,1.9-1.2
		c0.5-0.8,0.7-1.9,0.7-3.4s-0.2-2.6-0.7-3.4C40,836,39.3,835.6,38.5,835.6z"/>
	<path class="st2" d="M48.1,828.6c0-1.4,0.7-2,2.1-2s2.1,0.7,2.1,2c0,0.6-0.2,1.2-0.5,1.5s-0.9,0.5-1.6,0.5
		C48.8,830.6,48.1,830,48.1,828.6z M52.1,847.8h-3.8v-15.3h3.8V847.8z"/>
	<path class="st2" d="M55,854.6c-1,0-1.8-0.1-2.5-0.3v-3.3c0.6,0.2,1.2,0.3,1.8,0.3c0.6,0,1.1-0.2,1.4-0.6c0.3-0.4,0.4-1,0.4-1.7
		v-16.3h3.8v16.9c0,1.6-0.4,2.9-1.3,3.8S56.5,854.6,55,854.6z M55.9,828.6c0-1.4,0.7-2,2.1-2s2.1,0.7,2.1,2c0,0.6-0.2,1.2-0.5,1.5
		s-0.9,0.5-1.6,0.5C56.6,830.6,55.9,830,55.9,828.6z"/>
	<path class="st2" d="M72.9,847.8l-0.7-2.1H72c-0.6,0.9-1.3,1.5-2,1.8c-0.7,0.3-1.6,0.5-2.7,0.5c-1.3,0-2.4-0.4-3.2-1.3
		s-1.2-2-1.2-3.6c0-1.6,0.5-2.8,1.6-3.6s2.6-1.2,4.7-1.3l2.4-0.1v-0.7c0-1.5-0.7-2.3-2.2-2.3c-1.1,0-2.4,0.4-4,1.1l-1.3-2.8
		c1.6-0.9,3.4-1.4,5.4-1.4c1.9,0,3.3,0.4,4.3,1.3c1,0.9,1.5,2.3,1.5,4.1v10.2H72.9z M71.7,840.8l-1.5,0.1c-1.1,0-1.9,0.3-2.5,0.7
		c-0.5,0.4-0.8,1-0.8,1.8c0,1.2,0.6,1.8,1.9,1.8c0.9,0,1.6-0.3,2.1-0.8c0.5-0.6,0.8-1.3,0.8-2.2V840.8z"/>
	<path class="st2" d="M83.2,839.5l1.7-2.3l3.9-4.6h4.3l-5.6,6.6l5.9,8.7H89l-4-6.2l-1.6,1.4v4.8h-3.8v-21.3h3.8v9.5L83.2,839.5
		L83.2,839.5z"/>
	<path class="st2" d="M104.4,847.8l-0.7-2.1h-0.1c-0.6,0.9-1.3,1.5-2,1.8s-1.6,0.5-2.7,0.5c-1.3,0-2.4-0.4-3.2-1.3s-1.2-2-1.2-3.6
		c0-1.6,0.5-2.8,1.6-3.6c1-0.8,2.6-1.2,4.7-1.3l2.4-0.1v-0.7c0-1.5-0.7-2.3-2.2-2.3c-1.1,0-2.4,0.4-4,1.1l-1.3-2.8
		c1.6-0.9,3.4-1.4,5.4-1.4c1.9,0,3.3,0.4,4.3,1.3s1.5,2.3,1.5,4.1v10.2H104.4z M103.2,840.8l-1.5,0.1c-1.1,0-1.9,0.3-2.5,0.7
		c-0.5,0.4-0.8,1-0.8,1.8c0,1.2,0.6,1.8,1.9,1.8c0.9,0,1.6-0.3,2.1-0.8s0.8-1.3,0.8-2.2V840.8z"/>
	<path class="st2" d="M124,847.8h-3.8v-8.9c0-1.1-0.2-1.9-0.5-2.5s-0.9-0.8-1.7-0.8c-1.1,0-1.8,0.4-2.3,1.2s-0.7,2.1-0.7,3.9v7.2
		H111v-15.3h2.9l0.5,2h0.2c0.4-0.7,1-1.3,1.8-1.7c0.7-0.4,1.6-0.6,2.6-0.6c1.6,0,2.9,0.5,3.7,1.4s1.3,2.3,1.3,4.2V847.8z"/>
	<path class="st2" d="M147.6,834.1c0,2.2-0.6,3.8-1.9,4.9c-1.2,1.1-3,1.7-5.3,1.7h-1.7v7.1h-3.9v-20h5.9c2.2,0,3.9,0.5,5.1,1.6
		S147.6,832,147.6,834.1z M138.8,837.3h1.3c1.2,0,2.1-0.3,2.7-0.8s0.9-1.3,0.9-2.2c0-1-0.2-1.7-0.7-2.2s-1.3-0.7-2.3-0.7h-1.8V837.3
		z"/>
	<path class="st2" d="M157.1,848.1c-2.3,0-4-0.7-5.3-2s-1.9-3.3-1.9-5.8c0-2.6,0.6-4.5,1.8-5.9s2.8-2.1,4.9-2.1c2,0,3.5,0.6,4.6,1.8
		c1.1,1.2,1.7,2.9,1.7,5.1v2h-9.1c0,1.2,0.4,2.1,1,2.8c0.6,0.7,1.4,1,2.5,1c0.8,0,1.6-0.1,2.4-0.3c0.8-0.2,1.5-0.5,2.4-0.9v3.2
		c-0.7,0.4-1.4,0.6-2.1,0.8C159.1,848,158.2,848.1,157.1,848.1z M156.6,835.2c-0.8,0-1.4,0.3-1.9,0.8s-0.7,1.4-0.8,2.4h5.4
		c0-1-0.3-1.8-0.7-2.4S157.4,835.2,156.6,835.2z"/>
	<path class="st2" d="M178.9,847.8h-3.8v-8.9c0-1.1-0.2-1.9-0.5-2.5c-0.4-0.6-0.9-0.8-1.7-0.8c-1.1,0-1.8,0.4-2.3,1.2
		s-0.7,2.1-0.7,3.9v7.2H166v-15.3h2.9l0.5,2h0.2c0.4-0.7,1-1.3,1.8-1.7s1.6-0.6,2.6-0.6c1.6,0,2.9,0.5,3.7,1.4
		c0.8,1,1.3,2.3,1.3,4.2V847.8z"/>
	<path class="st2" d="M195.1,847.9c0,2.2-0.6,3.9-1.8,5c-1.2,1.1-2.9,1.7-5.3,1.7c-2.1,0-3.8-0.3-5.3-0.9v-3.3
		c1.7,0.8,3.5,1.2,5.5,1.2c2,0,3-1.2,3-3.5v-0.3l0.1-1.9h-0.1c-0.9,1.5-2.2,2.3-4,2.3c-1.7,0-3-0.7-3.9-2.1s-1.4-3.3-1.4-5.8
		c0-2.5,0.5-4.5,1.4-5.9s2.3-2.1,4-2.1c1.7,0,3.1,0.7,4.1,2.2h0.1l0.3-2h3.2V847.9z M188.7,844.8c1,0,1.8-0.3,2.2-1
		c0.4-0.6,0.7-1.7,0.7-3.1v-0.5c0-1.6-0.2-2.8-0.7-3.5c-0.5-0.7-1.2-1.1-2.2-1.1c-1.8,0-2.7,1.5-2.7,4.6c0,1.5,0.2,2.7,0.7,3.4
		C187,844.5,187.7,844.8,188.7,844.8z"/>
	<path class="st2" d="M199,828.6c0-1.4,0.7-2,2.1-2s2.1,0.7,2.1,2c0,0.6-0.2,1.2-0.5,1.5s-0.9,0.5-1.6,0.5
		C199.7,830.6,199,830,199,828.6z M203,847.8h-3.8v-15.3h3.8V847.8z"/>
	<path class="st2" d="M214.8,832.3c0.5,0,1,0,1.3,0.1l-0.3,3.9c-0.3-0.1-0.7-0.1-1.1-0.1c-1.2,0-2.2,0.3-2.9,1s-1,1.6-1,2.9v7.8H207
		v-15.3h2.9l0.6,2.6h0.2c0.4-0.9,1-1.5,1.8-2.1C213.2,832.5,214,832.3,214.8,832.3z"/>
	<path class="st2" d="M218.5,828.6c0-1.4,0.7-2,2.1-2c1.4,0,2.1,0.7,2.1,2c0,0.6-0.2,1.2-0.5,1.5s-0.9,0.5-1.6,0.5
		C219.2,830.6,218.5,830,218.5,828.6z M222.5,847.8h-3.8v-15.3h3.8V847.8z"/>
	<path class="st2" d="M239.1,847.8h-3.8v-8.9c0-1.1-0.2-1.9-0.5-2.5s-0.9-0.8-1.6-0.8c-1,0-1.7,0.4-2.1,1.2s-0.7,2.1-0.7,3.9v7.2
		h-3.8v-15.3h2.9l0.5,2h0.2c0.4-0.7,0.9-1.3,1.6-1.6c0.7-0.4,1.5-0.6,2.5-0.6c2.1,0,3.5,0.7,4.3,2.2h0.3c0.4-0.7,0.9-1.3,1.7-1.7
		c0.7-0.4,1.6-0.6,2.5-0.6c1.6,0,2.8,0.4,3.6,1.3c0.8,0.9,1.2,2.3,1.2,4.3v10H244v-8.9c0-1.1-0.2-1.9-0.5-2.5
		c-0.3-0.6-0.9-0.8-1.6-0.8c-0.9,0-1.6,0.4-2.1,1.1c-0.5,0.7-0.7,1.9-0.7,3.5V847.8z"/>
	<path class="st2" d="M260.7,847.8l-0.7-2.1h-0.1c-0.6,0.9-1.3,1.5-2,1.8c-0.7,0.3-1.6,0.5-2.7,0.5c-1.3,0-2.4-0.4-3.2-1.3
		s-1.2-2-1.2-3.6c0-1.6,0.5-2.8,1.6-3.6s2.6-1.2,4.7-1.3l2.4-0.1v-0.7c0-1.5-0.7-2.3-2.2-2.3c-1.1,0-2.4,0.4-4,1.1l-1.3-2.8
		c1.6-0.9,3.4-1.4,5.4-1.4c1.9,0,3.3,0.4,4.3,1.3c1,0.9,1.5,2.3,1.5,4.1v10.2H260.7z M259.6,840.8l-1.5,0.1c-1.1,0-1.9,0.3-2.5,0.7
		c-0.5,0.4-0.8,1-0.8,1.8c0,1.2,0.6,1.8,1.9,1.8c0.9,0,1.6-0.3,2.1-0.8s0.8-1.3,0.8-2.2V840.8z"/>
	<path class="st2" d="M280.3,847.8h-3.8v-8.9c0-1.1-0.2-1.9-0.5-2.5c-0.4-0.6-0.9-0.8-1.7-0.8c-1.1,0-1.8,0.4-2.3,1.2
		s-0.7,2.1-0.7,3.9v7.2h-3.8v-15.3h2.9l0.5,2h0.2c0.4-0.7,1-1.3,1.8-1.7c0.7-0.4,1.6-0.6,2.6-0.6c1.6,0,2.9,0.5,3.7,1.4
		s1.3,2.3,1.3,4.2V847.8z"/>
	<path class="st2" d="M288,844.9c-0.4,1.8-1.2,4-2.2,6.5h-2.8c0.5-2.4,1-4.7,1.3-6.9h3.5L288,844.9z"/>
	<path class="st2" d="M306,848.1c-1.7,0-2.9-0.7-3.9-2h-0.2c0.1,1.3,0.2,2,0.2,2.2v6.2h-3.8v-22h3.1l0.5,2h0.2
		c0.9-1.5,2.2-2.3,4-2.3c1.7,0,3,0.7,3.9,2.1s1.4,3.3,1.4,5.8c0,1.6-0.2,3-0.7,4.3c-0.4,1.2-1.1,2.1-1.9,2.7S307.1,848.1,306,848.1z
		 M304.9,835.6c-0.9,0-1.6,0.3-2.1,1s-0.7,1.7-0.7,3.1v0.5c0,1.6,0.2,2.8,0.7,3.5s1.2,1.1,2.1,1.1c1.7,0,2.6-1.5,2.6-4.6
		c0-1.5-0.2-2.6-0.6-3.4C306.5,836,305.8,835.6,304.9,835.6z"/>
	<path class="st2" d="M320.9,848.1c-2.3,0-4-0.7-5.3-2s-1.9-3.3-1.9-5.8c0-2.6,0.6-4.5,1.8-5.9s2.8-2.1,4.9-2.1c2,0,3.5,0.6,4.6,1.8
		c1.1,1.2,1.7,2.9,1.7,5.1v2h-9.1c0,1.2,0.4,2.1,1,2.8c0.6,0.7,1.4,1,2.5,1c0.8,0,1.6-0.1,2.4-0.3s1.5-0.5,2.4-0.9v3.2
		c-0.7,0.4-1.4,0.6-2.1,0.8S322,848.1,320.9,848.1z M320.4,835.2c-0.8,0-1.4,0.3-1.9,0.8s-0.7,1.4-0.8,2.4h5.4c0-1-0.3-1.8-0.7-2.4
		S321.2,835.2,320.4,835.2z"/>
	<path class="st2" d="M342.4,847.8h-3.8v-8.9c0-1.1-0.2-1.9-0.5-2.5c-0.3-0.6-0.9-0.8-1.6-0.8c-1,0-1.7,0.4-2.1,1.2
		c-0.4,0.8-0.7,2.1-0.7,3.9v7.2h-3.8v-15.3h2.9l0.5,2h0.2c0.4-0.7,0.9-1.3,1.6-1.6s1.5-0.6,2.5-0.6c2.1,0,3.5,0.7,4.3,2.2h0.3
		c0.4-0.7,0.9-1.3,1.7-1.7c0.7-0.4,1.6-0.6,2.5-0.6c1.6,0,2.8,0.4,3.6,1.3s1.2,2.3,1.2,4.3v10h-3.8v-8.9c0-1.1-0.2-1.9-0.5-2.5
		s-0.9-0.8-1.6-0.8c-0.9,0-1.6,0.4-2.1,1.1s-0.7,1.9-0.7,3.5V847.8z"/>
	<path class="st2" d="M362.9,832.3c1.7,0,3,0.7,3.9,2.1c0.9,1.4,1.4,3.3,1.4,5.8c0,2.5-0.5,4.5-1.5,5.9c-1,1.4-2.3,2.1-4,2.1
		c-1.7,0-2.9-0.7-3.9-2h-0.3l-0.6,1.7h-2.9v-21.3h3.8v4.9c0,0.6,0,1.6-0.2,3h0.2C359.8,833,361.1,832.3,362.9,832.3z M361.7,835.6
		c-0.9,0-1.6,0.3-2.1,1s-0.7,1.7-0.7,3.1v0.5c0,1.6,0.2,2.8,0.7,3.5c0.4,0.7,1.2,1.1,2.1,1.1c0.8,0,1.4-0.4,1.9-1.2s0.7-1.9,0.7-3.4
		s-0.2-2.6-0.7-3.4S362.5,835.6,361.7,835.6z"/>
	<path class="st2" d="M380.3,847.8l-0.7-2.1h-0.1c-0.6,0.9-1.3,1.5-2,1.8s-1.6,0.5-2.7,0.5c-1.3,0-2.4-0.4-3.2-1.3
		c-0.8-0.8-1.2-2-1.2-3.6c0-1.6,0.5-2.8,1.6-3.6s2.6-1.2,4.7-1.3l2.4-0.1v-0.7c0-1.5-0.7-2.3-2.2-2.3c-1.1,0-2.4,0.4-4,1.1l-1.3-2.8
		c1.6-0.9,3.4-1.4,5.4-1.4c1.9,0,3.3,0.4,4.3,1.3c1,0.9,1.5,2.3,1.5,4.1v10.2H380.3z M379.1,840.8l-1.5,0.1c-1.1,0-1.9,0.3-2.5,0.7
		s-0.8,1-0.8,1.8c0,1.2,0.6,1.8,1.9,1.8c0.9,0,1.6-0.3,2.1-0.8c0.5-0.6,0.8-1.3,0.8-2.2V840.8z"/>
	<path class="st2" d="M384.9,832.5h4.2l2.7,8.6c0.2,0.7,0.4,1.6,0.5,2.7h0.1c0.1-0.9,0.3-1.8,0.5-2.7l2.6-8.6h4.1l-5.9,17.2
		c-0.5,1.6-1.3,2.8-2.3,3.6c-1,0.8-2.2,1.2-3.5,1.2c-0.7,0-1.3-0.1-1.9-0.2V851c0.5,0.1,1,0.2,1.5,0.2c0.7,0,1.3-0.2,1.8-0.7
		s0.9-1.1,1.2-2l0.2-0.8L384.9,832.5z"/>
	<path class="st2" d="M410.5,847.8l-0.7-2.1h-0.1c-0.6,0.9-1.3,1.5-2,1.8s-1.6,0.5-2.7,0.5c-1.3,0-2.4-0.4-3.2-1.3
		c-0.8-0.8-1.2-2-1.2-3.6c0-1.6,0.5-2.8,1.6-3.6s2.6-1.2,4.7-1.3l2.4-0.1v-0.7c0-1.5-0.7-2.3-2.2-2.3c-1.1,0-2.4,0.4-4,1.1l-1.3-2.8
		c1.6-0.9,3.4-1.4,5.4-1.4c1.9,0,3.3,0.4,4.3,1.3c1,0.9,1.5,2.3,1.5,4.1v10.2H410.5z M409.3,840.8l-1.5,0.1c-1.1,0-1.9,0.3-2.5,0.7
		c-0.5,0.4-0.8,1-0.8,1.8c0,1.2,0.6,1.8,1.9,1.8c0.9,0,1.6-0.3,2.1-0.8c0.5-0.6,0.8-1.3,0.8-2.2V840.8z"/>
	<path class="st2" d="M424.9,832.3c0.5,0,1,0,1.3,0.1l-0.3,3.9c-0.3-0.1-0.7-0.1-1.1-0.1c-1.2,0-2.2,0.3-2.9,1c-0.7,0.7-1,1.6-1,2.9
		v7.8h-3.8v-15.3h2.9l0.6,2.6h0.2c0.4-0.9,1-1.5,1.8-2.1C423.2,832.5,424.1,832.3,424.9,832.3z"/>
	<path class="st2" d="M437.4,847.8l-0.7-2.1h-0.1c-0.6,0.9-1.3,1.5-2,1.8c-0.7,0.3-1.6,0.5-2.7,0.5c-1.3,0-2.4-0.4-3.2-1.3
		s-1.2-2-1.2-3.6c0-1.6,0.5-2.8,1.6-3.6s2.6-1.2,4.7-1.3l2.4-0.1v-0.7c0-1.5-0.7-2.3-2.2-2.3c-1.1,0-2.4,0.4-4,1.1l-1.3-2.8
		c1.6-0.9,3.4-1.4,5.4-1.4c1.9,0,3.3,0.4,4.3,1.3c1,0.9,1.5,2.3,1.5,4.1v10.2H437.4z M436.3,840.8l-1.5,0.1c-1.1,0-1.9,0.3-2.5,0.7
		c-0.5,0.4-0.8,1-0.8,1.8c0,1.2,0.6,1.8,1.9,1.8c0.9,0,1.6-0.3,2.1-0.8s0.8-1.3,0.8-2.2V840.8z"/>
	<path class="st2" d="M457,847.8h-3.8v-8.9c0-1.1-0.2-1.9-0.5-2.5s-0.9-0.8-1.7-0.8c-1.1,0-1.8,0.4-2.3,1.2s-0.7,2.1-0.7,3.9v7.2
		h-3.8v-15.3h2.9l0.5,2h0.2c0.4-0.7,1-1.3,1.8-1.7c0.7-0.4,1.6-0.6,2.6-0.6c1.6,0,2.9,0.5,3.7,1.4s1.3,2.3,1.3,4.2V847.8z"/>
	<path class="st2" d="M472.1,848.1c-1.7,0-2.9-0.7-3.9-2.1s-1.4-3.3-1.4-5.8c0-2.5,0.5-4.5,1.4-5.9c1-1.4,2.3-2.1,4-2.1
		c1.8,0,3.1,0.7,4,2.2h0.1c-0.2-1.1-0.3-2.2-0.3-3v-4.9h3.8v21.3H477l-0.7-2h-0.2C475.2,847.4,473.9,848.1,472.1,848.1z
		 M473.5,844.8c1,0,1.7-0.3,2.2-0.9s0.7-1.7,0.7-3.2v-0.5c0-1.6-0.2-2.8-0.7-3.5s-1.2-1.1-2.3-1.1c-0.9,0-1.5,0.4-2,1.2
		c-0.5,0.8-0.7,1.9-0.7,3.4s0.2,2.6,0.7,3.4S472.6,844.8,473.5,844.8z"/>
	<path class="st2" d="M492.9,847.8l-0.7-2.1H492c-0.6,0.9-1.3,1.5-2,1.8s-1.6,0.5-2.7,0.5c-1.3,0-2.4-0.4-3.2-1.3s-1.2-2-1.2-3.6
		c0-1.6,0.5-2.8,1.6-3.6s2.6-1.2,4.7-1.3l2.4-0.1v-0.7c0-1.5-0.7-2.3-2.2-2.3c-1.1,0-2.4,0.4-4,1.1l-1.3-2.8
		c1.6-0.9,3.4-1.4,5.4-1.4c1.9,0,3.3,0.4,4.3,1.3c1,0.9,1.5,2.3,1.5,4.1v10.2H492.9z M491.7,840.8l-1.5,0.1c-1.1,0-1.9,0.3-2.5,0.7
		s-0.8,1-0.8,1.8c0,1.2,0.6,1.8,1.9,1.8c0.9,0,1.6-0.3,2.1-0.8s0.8-1.3,0.8-2.2V840.8z"/>
	<path class="st2" d="M512.5,847.8h-3.8v-8.9c0-1.1-0.2-1.9-0.5-2.5c-0.4-0.6-0.9-0.8-1.7-0.8c-1.1,0-1.8,0.4-2.3,1.2
		s-0.7,2.1-0.7,3.9v7.2h-3.8v-15.3h2.9l0.5,2h0.2c0.4-0.7,1-1.3,1.8-1.7s1.6-0.6,2.6-0.6c1.6,0,2.9,0.5,3.7,1.4s1.3,2.3,1.3,4.2
		V847.8z"/>
	<path class="st2" d="M-35.6,884.1c-1.7,0-2.9-0.7-3.9-2h-0.2c0.1,1.3,0.2,2,0.2,2.2v6.2h-3.8v-22h3.1l0.5,2h0.2
		c0.9-1.5,2.2-2.3,4-2.3c1.7,0,3,0.7,3.9,2.1c0.9,1.4,1.4,3.3,1.4,5.8c0,1.6-0.2,3-0.7,4.3s-1.1,2.1-1.9,2.7S-34.5,884.1-35.6,884.1
		z M-36.7,871.6c-0.9,0-1.6,0.3-2.1,1s-0.7,1.7-0.7,3.1v0.5c0,1.6,0.2,2.8,0.7,3.5s1.2,1.1,2.1,1.1c1.7,0,2.6-1.5,2.6-4.6
		c0-1.5-0.2-2.6-0.6-3.4S-35.8,871.6-36.7,871.6z"/>
	<path class="st2" d="M-20.7,884.1c-2.3,0-4-0.7-5.3-2s-1.9-3.3-1.9-5.8c0-2.6,0.6-4.5,1.8-5.9s2.8-2.1,4.9-2.1c2,0,3.5,0.6,4.6,1.8
		c1.1,1.2,1.7,2.9,1.7,5.1v2H-24c0,1.2,0.4,2.1,1,2.8c0.6,0.7,1.4,1,2.5,1c0.8,0,1.6-0.1,2.4-0.3s1.5-0.5,2.4-0.9v3.2
		c-0.7,0.4-1.4,0.6-2.1,0.8S-19.6,884.1-20.7,884.1z M-21.2,871.2c-0.8,0-1.4,0.3-1.9,0.8c-0.5,0.6-0.7,1.4-0.8,2.4h5.4
		c0-1-0.3-1.8-0.7-2.4S-20.4,871.2-21.2,871.2z"/>
	<path class="st2" d="M1.1,883.8h-3.8v-8.9c0-1.1-0.2-1.9-0.5-2.5c-0.4-0.6-0.9-0.8-1.7-0.8c-1.1,0-1.8,0.4-2.3,1.2
		s-0.7,2.1-0.7,3.9v7.2h-3.8v-15.3h2.9l0.5,2h0.2c0.4-0.7,1-1.3,1.8-1.7s1.6-0.6,2.6-0.6c1.6,0,2.9,0.5,3.7,1.4s1.3,2.3,1.3,4.2
		V883.8z"/>
	<path class="st2" d="M17.4,883.9c0,2.2-0.6,3.9-1.8,5s-2.9,1.7-5.3,1.7c-2.1,0-3.8-0.3-5.3-0.9v-3.3c1.7,0.8,3.5,1.2,5.5,1.2
		c2,0,3-1.2,3-3.5v-0.3l0.1-1.9h-0.1c-0.9,1.5-2.2,2.3-4,2.3c-1.7,0-3-0.7-3.9-2.1c-0.9-1.4-1.4-3.3-1.4-5.8c0-2.5,0.5-4.5,1.4-5.9
		c1-1.4,2.3-2.1,4-2.1c1.7,0,3.1,0.7,4.1,2.2h0.1l0.3-2h3.2V883.9z M10.9,880.8c1,0,1.8-0.3,2.2-1c0.4-0.6,0.7-1.7,0.7-3.1v-0.5
		c0-1.6-0.2-2.8-0.7-3.5s-1.2-1.1-2.2-1.1c-1.8,0-2.7,1.5-2.7,4.6c0,1.5,0.2,2.7,0.7,3.4S10,880.8,10.9,880.8z"/>
	<path class="st2" d="M27.7,884.1c-2.3,0-4-0.7-5.3-2s-1.9-3.3-1.9-5.8c0-2.6,0.6-4.5,1.8-5.9s2.8-2.1,4.9-2.1c2,0,3.5,0.6,4.6,1.8
		c1.1,1.2,1.7,2.9,1.7,5.1v2h-9.1c0,1.2,0.4,2.1,1,2.8c0.6,0.7,1.4,1,2.5,1c0.8,0,1.6-0.1,2.4-0.3s1.5-0.5,2.4-0.9v3.2
		c-0.7,0.4-1.4,0.6-2.1,0.8S28.8,884.1,27.7,884.1z M27.2,871.2c-0.8,0-1.4,0.3-1.9,0.8c-0.5,0.6-0.7,1.4-0.8,2.4h5.4
		c0-1-0.3-1.8-0.7-2.4S28,871.2,27.2,871.2z"/>
	<path class="st2" d="M49.2,883.8h-3.8v-8.9c0-1.1-0.2-1.9-0.5-2.5s-0.9-0.8-1.6-0.8c-1,0-1.7,0.4-2.1,1.2c-0.4,0.8-0.7,2.1-0.7,3.9
		v7.2h-3.8v-15.3h2.9l0.5,2h0.2c0.4-0.7,0.9-1.3,1.6-1.6c0.7-0.4,1.5-0.6,2.5-0.6c2.1,0,3.5,0.7,4.3,2.2h0.3
		c0.4-0.7,0.9-1.3,1.7-1.7c0.7-0.4,1.6-0.6,2.5-0.6c1.6,0,2.8,0.4,3.6,1.3s1.2,2.3,1.2,4.3v10h-3.8v-8.9c0-1.1-0.2-1.9-0.5-2.5
		c-0.3-0.6-0.9-0.8-1.6-0.8c-0.9,0-1.6,0.4-2.1,1.1s-0.7,1.9-0.7,3.5V883.8z"/>
	<path class="st2" d="M69.7,868.3c1.7,0,3,0.7,3.9,2.1c0.9,1.4,1.4,3.3,1.4,5.8c0,2.5-0.5,4.5-1.5,5.9c-1,1.4-2.3,2.1-4,2.1
		c-1.7,0-2.9-0.7-3.9-2h-0.3l-0.6,1.7h-2.9v-21.3h3.8v4.9c0,0.6-0.1,1.6-0.2,3h0.2C66.6,869,67.9,868.3,69.7,868.3z M68.4,871.6
		c-0.9,0-1.6,0.3-2.1,1c-0.4,0.6-0.7,1.7-0.7,3.1v0.5c0,1.6,0.2,2.8,0.7,3.5s1.2,1.1,2.1,1.1c0.8,0,1.4-0.4,1.9-1.2s0.7-1.9,0.7-3.4
		s-0.2-2.6-0.7-3.4S69.3,871.6,68.4,871.6z"/>
	<path class="st2" d="M87.1,883.8l-0.7-2.1h-0.1c-0.6,0.9-1.3,1.5-2,1.8c-0.7,0.3-1.6,0.5-2.7,0.5c-1.3,0-2.4-0.4-3.2-1.3
		s-1.2-2-1.2-3.6c0-1.6,0.5-2.8,1.6-3.6c1-0.8,2.6-1.2,4.7-1.3l2.4-0.1v-0.7c0-1.5-0.7-2.3-2.2-2.3c-1.1,0-2.4,0.4-4,1.1l-1.3-2.8
		c1.6-0.9,3.4-1.4,5.4-1.4c1.9,0,3.3,0.4,4.3,1.3s1.5,2.3,1.5,4.1v10.2H87.1z M85.9,876.8l-1.5,0.1c-1.1,0-1.9,0.3-2.5,0.7
		c-0.5,0.4-0.8,1-0.8,1.8c0,1.2,0.6,1.8,1.9,1.8c0.9,0,1.6-0.3,2.1-0.8c0.5-0.6,0.8-1.3,0.8-2.2V876.8z"/>
	<path class="st2" d="M97.5,883.8h-3.8v-21.3h3.8V883.8z"/>
	<path class="st2" d="M101.4,864.6c0-1.4,0.7-2,2.1-2s2.1,0.7,2.1,2c0,0.6-0.2,1.2-0.5,1.5s-0.9,0.5-1.6,0.5
		C102.1,866.6,101.4,866,101.4,864.6z M105.4,883.8h-3.8v-15.3h3.8V883.8z"/>
	<path class="st2" d="M118.3,883.8l-0.7-2.1h-0.1c-0.6,0.9-1.3,1.5-2,1.8c-0.7,0.3-1.6,0.5-2.7,0.5c-1.3,0-2.4-0.4-3.2-1.3
		s-1.2-2-1.2-3.6c0-1.6,0.5-2.8,1.6-3.6c1-0.8,2.6-1.2,4.7-1.3l2.4-0.1v-0.7c0-1.5-0.7-2.3-2.2-2.3c-1.1,0-2.4,0.4-4,1.1l-1.3-2.8
		c1.6-0.9,3.4-1.4,5.4-1.4c1.9,0,3.3,0.4,4.3,1.3s1.5,2.3,1.5,4.1v10.2H118.3z M117.2,876.8l-1.5,0.1c-1.1,0-1.9,0.3-2.5,0.7
		c-0.5,0.4-0.8,1-0.8,1.8c0,1.2,0.6,1.8,1.9,1.8c0.9,0,1.6-0.3,2.1-0.8c0.5-0.6,0.8-1.3,0.8-2.2V876.8z"/>
	<path class="st2" d="M137.9,883.8h-3.8v-8.9c0-1.1-0.2-1.9-0.5-2.5c-0.4-0.6-0.9-0.8-1.7-0.8c-1.1,0-1.8,0.4-2.3,1.2
		s-0.7,2.1-0.7,3.9v7.2h-3.8v-15.3h2.9l0.5,2h0.2c0.4-0.7,1-1.3,1.8-1.7c0.7-0.4,1.6-0.6,2.6-0.6c1.6,0,2.9,0.5,3.7,1.4
		s1.3,2.3,1.3,4.2V883.8z"/>
	<path class="st2" d="M153,884.1c-1.7,0-2.9-0.7-3.9-2.1c-0.9-1.4-1.4-3.3-1.4-5.8c0-2.5,0.5-4.5,1.4-5.9s2.3-2.1,4-2.1
		c1.8,0,3.1,0.7,4,2.2h0.1c-0.2-1.1-0.3-2.2-0.3-3v-4.9h3.8v21.3h-2.9l-0.7-2H157C156.1,883.4,154.8,884.1,153,884.1z M154.3,880.8
		c1,0,1.7-0.3,2.2-0.9c0.5-0.6,0.7-1.7,0.7-3.2v-0.5c0-1.6-0.2-2.8-0.7-3.5c-0.5-0.7-1.2-1.1-2.3-1.1c-0.9,0-1.5,0.4-2,1.2
		s-0.7,1.9-0.7,3.4s0.2,2.6,0.7,3.4S153.4,880.8,154.3,880.8z"/>
	<path class="st2" d="M164.7,864.6c0-1.4,0.7-2,2.1-2s2.1,0.7,2.1,2c0,0.6-0.2,1.2-0.5,1.5s-0.9,0.5-1.6,0.5
		C165.4,866.6,164.7,866,164.7,864.6z M168.7,883.8h-3.8v-15.3h3.8V883.8z"/>
	<path class="st2" d="M178.6,880.8c0.7,0,1.5-0.2,2.4-0.5v3.1c-1,0.5-2.1,0.7-3.5,0.7c-1.5,0-2.6-0.4-3.3-1.3c-0.7-0.8-1-2.1-1-3.8
		v-7.4h-1.8v-1.8l2.1-1.4l1.1-3.2h2.5v3.3h3.9v3.1h-3.9v7.4c0,0.6,0.2,1,0.5,1.3C177.7,880.6,178.1,880.8,178.6,880.8z"/>
	<path class="st2" d="M190.2,884.1c-2.3,0-4-0.7-5.3-2s-1.9-3.3-1.9-5.8c0-2.6,0.6-4.5,1.8-5.9c1.2-1.4,2.8-2.1,4.9-2.1
		c2,0,3.5,0.6,4.6,1.8c1.1,1.2,1.7,2.9,1.7,5.1v2h-9.1c0,1.2,0.4,2.1,1,2.8s1.4,1,2.5,1c0.8,0,1.6-0.1,2.4-0.3
		c0.8-0.2,1.5-0.5,2.4-0.9v3.2c-0.7,0.4-1.4,0.6-2.1,0.8C192.2,884,191.3,884.1,190.2,884.1z M189.7,871.2c-0.8,0-1.4,0.3-1.9,0.8
		c-0.5,0.6-0.7,1.4-0.8,2.4h5.4c0-1-0.3-1.8-0.7-2.4S190.5,871.2,189.7,871.2z"/>
	<path class="st2" d="M212,883.8h-3.8v-8.9c0-1.1-0.2-1.9-0.5-2.5c-0.4-0.6-0.9-0.8-1.7-0.8c-1.1,0-1.8,0.4-2.3,1.2
		s-0.7,2.1-0.7,3.9v7.2h-3.8v-15.3h2.9l0.5,2h0.2c0.4-0.7,1-1.3,1.8-1.7c0.7-0.4,1.6-0.6,2.6-0.6c1.6,0,2.9,0.5,3.7,1.4
		s1.3,2.3,1.3,4.2V883.8z"/>
	<path class="st2" d="M221.9,880.8c0.7,0,1.5-0.2,2.4-0.5v3.1c-1,0.5-2.1,0.7-3.5,0.7c-1.5,0-2.6-0.4-3.3-1.3s-1-2.1-1-3.8v-7.4
		h-1.8v-1.8l2.1-1.4l1.1-3.2h2.5v3.3h3.9v3.1h-3.9v7.4c0,0.6,0.2,1,0.5,1.3C221,880.6,221.4,880.8,221.9,880.8z"/>
	<path class="st2" d="M237.1,883.8l-0.5-2h-0.2c-0.4,0.7-1,1.3-1.7,1.6s-1.6,0.6-2.6,0.6c-1.7,0-2.9-0.5-3.7-1.4
		c-0.8-1-1.3-2.3-1.3-4.1v-10h3.8v8.9c0,1.1,0.2,1.9,0.5,2.5s0.9,0.8,1.7,0.8c1.1,0,1.8-0.4,2.3-1.2s0.7-2.1,0.7-3.9v-7.2h3.8v15.3
		H237.1z"/>
	<path class="st2" d="M247.7,875.5l1.7-2.3l3.9-4.6h4.3l-5.6,6.6l5.9,8.7h-4.4l-4-6.2l-1.6,1.4v4.8h-3.8v-21.3h3.8v9.5L247.7,875.5
		L247.7,875.5z"/>
	<path class="st2" d="M268.9,883.8l-0.7-2.1h-0.1c-0.6,0.9-1.3,1.5-2,1.8c-0.7,0.3-1.6,0.5-2.7,0.5c-1.3,0-2.4-0.4-3.2-1.3
		s-1.2-2-1.2-3.6c0-1.6,0.5-2.8,1.6-3.6s2.6-1.2,4.7-1.3l2.4-0.1v-0.7c0-1.5-0.7-2.3-2.2-2.3c-1.1,0-2.4,0.4-4,1.1l-1.3-2.8
		c1.6-0.9,3.4-1.4,5.4-1.4c1.9,0,3.3,0.4,4.3,1.3c1,0.9,1.5,2.3,1.5,4.1v10.2H268.9z M267.8,876.8l-1.5,0.1c-1.1,0-1.9,0.3-2.5,0.7
		c-0.5,0.4-0.8,1-0.8,1.8c0,1.2,0.6,1.8,1.9,1.8c0.9,0,1.6-0.3,2.1-0.8s0.8-1.3,0.8-2.2V876.8z"/>
	<path class="st2" d="M288.5,883.8h-3.8v-8.9c0-1.1-0.2-1.9-0.5-2.5c-0.4-0.6-0.9-0.8-1.7-0.8c-1.1,0-1.8,0.4-2.3,1.2
		s-0.7,2.1-0.7,3.9v7.2h-3.8v-15.3h2.9l0.5,2h0.2c0.4-0.7,1-1.3,1.8-1.7c0.7-0.4,1.6-0.6,2.6-0.6c1.6,0,2.9,0.5,3.7,1.4
		s1.3,2.3,1.3,4.2V883.8z"/>
	<path class="st2" d="M311.9,876.2c0,2.5-0.6,4.4-1.8,5.8s-2.9,2.1-5,2.1c-1.3,0-2.5-0.3-3.6-1c-1-0.6-1.8-1.6-2.4-2.8
		c-0.6-1.2-0.8-2.6-0.8-4.2c0-2.5,0.6-4.4,1.8-5.8s2.9-2.1,5.1-2.1c1.3,0,2.5,0.3,3.6,1s1.8,1.6,2.4,2.7S311.9,874.6,311.9,876.2z
		 M302.2,876.2c0,1.5,0.2,2.7,0.7,3.4c0.5,0.8,1.2,1.2,2.2,1.2c1,0,1.8-0.4,2.2-1.2s0.7-1.9,0.7-3.4c0-1.5-0.2-2.6-0.7-3.4
		c-0.5-0.8-1.2-1.1-2.2-1.1c-1,0-1.8,0.4-2.2,1.1S302.2,874.6,302.2,876.2z"/>
	<path class="st2" d="M318.9,883.8h-3.8v-21.3h3.8V883.8z"/>
	<path class="st2" d="M329.3,884.1c-2.3,0-4-0.7-5.3-2s-1.9-3.3-1.9-5.8c0-2.6,0.6-4.5,1.8-5.9c1.2-1.4,2.8-2.1,4.9-2.1
		c2,0,3.5,0.6,4.6,1.8s1.7,2.9,1.7,5.1v2H326c0,1.2,0.4,2.1,1,2.8c0.6,0.7,1.4,1,2.5,1c0.8,0,1.6-0.1,2.4-0.3
		c0.8-0.2,1.5-0.5,2.4-0.9v3.2c-0.7,0.4-1.4,0.6-2.1,0.8C331.3,884,330.4,884.1,329.3,884.1z M328.8,871.2c-0.8,0-1.4,0.3-1.9,0.8
		c-0.5,0.6-0.7,1.4-0.8,2.4h5.4c0-1-0.3-1.8-0.7-2.4S329.6,871.2,328.8,871.2z"/>
	<path class="st2" d="M351.1,883.8h-3.8v-8.9c0-2.2-0.8-3.3-2.3-3.3c-1.1,0-1.8,0.4-2.3,1.2s-0.7,2.1-0.7,3.9v7.2h-3.8v-21.3h3.8
		v4.3c0,0.3,0,1.1-0.1,2.4l-0.1,1.2h0.2c0.9-1.5,2.2-2.2,4.1-2.2c1.7,0,2.9,0.5,3.8,1.4s1.3,2.4,1.3,4.2V883.8z"/>
	<path class="st2" d="M374.3,883.8h-3.8v-8.9c0-1.1-0.2-1.9-0.5-2.5s-0.9-0.8-1.6-0.8c-1,0-1.7,0.4-2.1,1.2s-0.7,2.1-0.7,3.9v7.2
		h-3.8v-15.3h2.9l0.5,2h0.2c0.4-0.7,0.9-1.3,1.6-1.6c0.7-0.4,1.5-0.6,2.5-0.6c2.1,0,3.5,0.7,4.3,2.2h0.3c0.4-0.7,0.9-1.3,1.7-1.7
		c0.7-0.4,1.6-0.6,2.5-0.6c1.6,0,2.8,0.4,3.6,1.3c0.8,0.9,1.2,2.3,1.2,4.3v10h-3.8v-8.9c0-1.1-0.2-1.9-0.5-2.5
		c-0.3-0.6-0.9-0.8-1.6-0.8c-0.9,0-1.6,0.4-2.1,1.1c-0.5,0.7-0.7,1.9-0.7,3.5V883.8z"/>
	<path class="st2" d="M396,883.8l-0.7-2.1h-0.1c-0.6,0.9-1.3,1.5-2,1.8c-0.7,0.3-1.6,0.5-2.7,0.5c-1.3,0-2.4-0.4-3.2-1.3
		c-0.8-0.8-1.2-2-1.2-3.6c0-1.6,0.5-2.8,1.6-3.6s2.6-1.2,4.7-1.3l2.4-0.1v-0.7c0-1.5-0.7-2.3-2.2-2.3c-1.1,0-2.4,0.4-4,1.1l-1.3-2.8
		c1.6-0.9,3.4-1.4,5.4-1.4c1.9,0,3.3,0.4,4.3,1.3s1.5,2.3,1.5,4.1v10.2H396z M394.8,876.8l-1.5,0.1c-1.1,0-1.9,0.3-2.5,0.7
		c-0.5,0.4-0.8,1-0.8,1.8c0,1.2,0.6,1.8,1.9,1.8c0.9,0,1.6-0.3,2.1-0.8s0.8-1.3,0.8-2.2V876.8z"/>
	<path class="st2" d="M412.4,879.3c0,1.6-0.5,2.8-1.5,3.6s-2.5,1.2-4.5,1.2c-1,0-1.9-0.1-2.6-0.2s-1.4-0.4-2-0.7v-3.4
		c0.7,0.4,1.5,0.7,2.4,0.9c0.9,0.2,1.7,0.4,2.4,0.4c1.4,0,2.1-0.4,2.1-1.3c0-0.3-0.1-0.6-0.3-0.8c-0.2-0.2-0.5-0.4-1-0.7
		c-0.5-0.3-1.1-0.6-1.8-0.9c-1.1-0.5-1.9-0.9-2.4-1.4s-0.9-0.9-1.1-1.4s-0.3-1.2-0.3-2c0-1.4,0.5-2.4,1.5-3.2s2.3-1.1,4.1-1.1
		c1.7,0,3.3,0.4,4.9,1.2l-1.2,3c-0.7-0.3-1.4-0.6-2-0.8s-1.2-0.3-1.9-0.3c-1.1,0-1.7,0.3-1.7,1c0,0.4,0.2,0.7,0.5,1
		c0.4,0.3,1.2,0.7,2.4,1.2c1.1,0.5,1.9,0.9,2.4,1.4c0.5,0.4,0.9,0.9,1.1,1.4C412.3,877.9,412.4,878.5,412.4,879.3z"/>
	<path class="st2" d="M415.2,864.6c0-1.4,0.7-2,2.1-2s2.1,0.7,2.1,2c0,0.6-0.2,1.2-0.5,1.5s-0.9,0.5-1.6,0.5
		C415.9,866.6,415.2,866,415.2,864.6z M419.2,883.8h-3.8v-15.3h3.8V883.8z"/>
	<path class="st2" d="M436.2,883.8h-3.8v-8.9c0-1.1-0.2-1.9-0.5-2.5c-0.4-0.6-0.9-0.8-1.7-0.8c-1.1,0-1.8,0.4-2.3,1.2
		s-0.7,2.1-0.7,3.9v7.2h-3.8v-15.3h2.9l0.5,2h0.2c0.4-0.7,1-1.3,1.8-1.7s1.6-0.6,2.6-0.6c1.6,0,2.9,0.5,3.7,1.4s1.3,2.3,1.3,4.2
		V883.8z"/>
	<path class="st2" d="M452.4,883.9c0,2.2-0.6,3.9-1.8,5c-1.2,1.1-2.9,1.7-5.3,1.7c-2.1,0-3.8-0.3-5.3-0.9v-3.3
		c1.7,0.8,3.5,1.2,5.5,1.2c2,0,3-1.2,3-3.5v-0.3l0.1-1.9h-0.1c-0.9,1.5-2.2,2.3-4,2.3c-1.7,0-3-0.7-3.9-2.1s-1.4-3.3-1.4-5.8
		c0-2.5,0.5-4.5,1.4-5.9c1-1.4,2.3-2.1,4-2.1c1.7,0,3.1,0.7,4.1,2.2h0.1l0.3-2h3.2V883.9z M446,880.8c1,0,1.8-0.3,2.2-1
		s0.7-1.7,0.7-3.1v-0.5c0-1.6-0.2-2.8-0.7-3.5s-1.2-1.1-2.2-1.1c-1.8,0-2.7,1.5-2.7,4.6c0,1.5,0.2,2.7,0.7,3.4
		C444.3,880.5,445,880.8,446,880.8z"/>
	<path class="st2" d="M455.2,878v-3.4h6.7v3.4H455.2z"/>
	<path class="st2" d="M477.3,883.8h-3.8v-8.9c0-1.1-0.2-1.9-0.5-2.5c-0.3-0.6-0.9-0.8-1.6-0.8c-1,0-1.7,0.4-2.1,1.2
		s-0.7,2.1-0.7,3.9v7.2h-3.8v-15.3h2.9l0.5,2h0.2c0.4-0.7,0.9-1.3,1.6-1.6s1.5-0.6,2.5-0.6c2.1,0,3.5,0.7,4.3,2.2h0.3
		c0.4-0.7,0.9-1.3,1.7-1.7c0.7-0.4,1.6-0.6,2.5-0.6c1.6,0,2.8,0.4,3.6,1.3c0.8,0.9,1.2,2.3,1.2,4.3v10h-3.8v-8.9
		c0-1.1-0.2-1.9-0.5-2.5c-0.3-0.6-0.9-0.8-1.6-0.8c-0.9,0-1.6,0.4-2.1,1.1c-0.5,0.7-0.7,1.9-0.7,3.5V883.8z"/>
	<path class="st2" d="M498.9,883.8l-0.7-2.1h-0.1c-0.6,0.9-1.3,1.5-2,1.8c-0.7,0.3-1.6,0.5-2.7,0.5c-1.3,0-2.4-0.4-3.2-1.3
		s-1.2-2-1.2-3.6c0-1.6,0.5-2.8,1.6-3.6s2.6-1.2,4.7-1.3l2.4-0.1v-0.7c0-1.5-0.7-2.3-2.2-2.3c-1.1,0-2.4,0.4-4,1.1l-1.3-2.8
		c1.6-0.9,3.4-1.4,5.4-1.4c1.9,0,3.3,0.4,4.3,1.3c1,0.9,1.5,2.3,1.5,4.1v10.2H498.9z M497.8,876.8l-1.5,0.1c-1.1,0-1.9,0.3-2.5,0.7
		c-0.5,0.4-0.8,1-0.8,1.8c0,1.2,0.6,1.8,1.9,1.8c0.9,0,1.6-0.3,2.1-0.8s0.8-1.3,0.8-2.2V876.8z"/>
	<path class="st2" d="M515.3,879.3c0,1.6-0.5,2.8-1.5,3.6s-2.5,1.2-4.5,1.2c-1,0-1.9-0.1-2.6-0.2c-0.7-0.2-1.4-0.4-2-0.7v-3.4
		c0.7,0.4,1.5,0.7,2.4,0.9s1.7,0.4,2.4,0.4c1.4,0,2.1-0.4,2.1-1.3c0-0.3-0.1-0.6-0.3-0.8c-0.2-0.2-0.5-0.4-1-0.7
		c-0.5-0.3-1.1-0.6-1.8-0.9c-1.1-0.5-1.9-0.9-2.4-1.4s-0.9-0.9-1.1-1.4s-0.3-1.2-0.3-2c0-1.4,0.5-2.4,1.5-3.2s2.3-1.1,4.1-1.1
		c1.7,0,3.3,0.4,4.9,1.2l-1.2,3c-0.7-0.3-1.4-0.6-2-0.8c-0.6-0.2-1.2-0.3-1.9-0.3c-1.1,0-1.7,0.3-1.7,1c0,0.4,0.2,0.7,0.5,1
		s1.2,0.7,2.4,1.2c1.1,0.5,1.9,0.9,2.4,1.4c0.5,0.4,0.9,0.9,1.1,1.4S515.3,878.5,515.3,879.3z"/>
	<path class="st2" d="M518.1,864.6c0-1.4,0.7-2,2.1-2c1.4,0,2.1,0.7,2.1,2c0,0.6-0.2,1.2-0.5,1.5s-0.9,0.5-1.6,0.5
		C518.8,866.6,518.1,866,518.1,864.6z M522.1,883.8h-3.8v-15.3h3.8V883.8z"/>
	<path class="st2" d="M539.1,883.8h-3.8v-8.9c0-1.1-0.2-1.9-0.5-2.5s-0.9-0.8-1.7-0.8c-1.1,0-1.8,0.4-2.3,1.2
		c-0.5,0.8-0.7,2.1-0.7,3.9v7.2h-3.8v-15.3h2.9l0.5,2h0.2c0.4-0.7,1-1.3,1.8-1.7s1.6-0.6,2.6-0.6c1.6,0,2.9,0.5,3.7,1.4
		c0.8,1,1.3,2.3,1.3,4.2V883.8z"/>
	<path class="st2" d="M555.4,883.9c0,2.2-0.6,3.9-1.8,5c-1.2,1.1-2.9,1.7-5.3,1.7c-2.1,0-3.8-0.3-5.3-0.9v-3.3
		c1.7,0.8,3.5,1.2,5.5,1.2c2,0,3-1.2,3-3.5v-0.3l0.1-1.9h-0.1c-0.9,1.5-2.2,2.3-4,2.3c-1.7,0-3-0.7-3.9-2.1s-1.4-3.3-1.4-5.8
		c0-2.5,0.5-4.5,1.4-5.9s2.3-2.1,4-2.1c1.7,0,3.1,0.7,4.1,2.2h0.1l0.3-2h3.2V883.9z M548.9,880.8c1,0,1.8-0.3,2.2-1
		c0.4-0.6,0.7-1.7,0.7-3.1v-0.5c0-1.6-0.2-2.8-0.7-3.5s-1.2-1.1-2.2-1.1c-1.8,0-2.7,1.5-2.7,4.6c0,1.5,0.2,2.7,0.7,3.4
		S548,880.8,548.9,880.8z"/>
	<path class="st2" d="M217.5,920.1c-1.7,0-2.9-0.7-3.9-2h-0.2c0.1,1.3,0.2,2,0.2,2.2v6.2h-3.8v-22h3.1l0.5,2h0.2
		c0.9-1.5,2.2-2.3,4-2.3c1.7,0,3,0.7,3.9,2.1c0.9,1.4,1.4,3.3,1.4,5.8c0,1.6-0.2,3-0.7,4.3c-0.4,1.2-1.1,2.1-1.9,2.7
		S218.6,920.1,217.5,920.1z M216.3,907.6c-0.9,0-1.6,0.3-2.1,1s-0.7,1.7-0.7,3.1v0.5c0,1.6,0.2,2.8,0.7,3.5s1.2,1.1,2.1,1.1
		c1.7,0,2.6-1.5,2.6-4.6c0-1.5-0.2-2.6-0.6-3.4C217.9,908,217.2,907.6,216.3,907.6z"/>
	<path class="st2" d="M232.4,920.1c-2.3,0-4-0.7-5.3-2s-1.9-3.3-1.9-5.8c0-2.6,0.6-4.5,1.8-5.9c1.2-1.4,2.8-2.1,4.9-2.1
		c2,0,3.5,0.6,4.6,1.8c1.1,1.2,1.7,2.9,1.7,5.1v2h-9.1c0,1.2,0.4,2.1,1,2.8s1.4,1,2.5,1c0.8,0,1.6-0.1,2.4-0.3
		c0.8-0.2,1.5-0.5,2.4-0.9v3.2c-0.7,0.4-1.4,0.6-2.1,0.8C234.4,920,233.5,920.1,232.4,920.1z M231.8,907.2c-0.8,0-1.4,0.3-1.9,0.8
		c-0.5,0.6-0.7,1.4-0.8,2.4h5.4c0-1-0.3-1.8-0.7-2.4S232.7,907.2,231.8,907.2z"/>
	<path class="st2" d="M254.2,919.8h-3.8v-8.9c0-1.1-0.2-1.9-0.5-2.5c-0.4-0.6-0.9-0.8-1.7-0.8c-1.1,0-1.8,0.4-2.3,1.2
		s-0.7,2.1-0.7,3.9v7.2h-3.8v-15.3h2.9l0.5,2h0.2c0.4-0.7,1-1.3,1.8-1.7c0.7-0.4,1.6-0.6,2.6-0.6c1.6,0,2.9,0.5,3.7,1.4
		s1.3,2.3,1.3,4.2V919.8z"/>
	<path class="st2" d="M257,926.6c-1,0-1.8-0.1-2.5-0.3v-3.3c0.6,0.2,1.2,0.3,1.8,0.3c0.6,0,1.1-0.2,1.4-0.6s0.4-1,0.4-1.7v-16.3h3.8
		v16.9c0,1.6-0.4,2.9-1.3,3.8C259.8,926.1,258.6,926.6,257,926.6z M258,900.6c0-1.4,0.7-2,2.1-2s2.1,0.7,2.1,2
		c0,0.6-0.2,1.2-0.5,1.5s-0.9,0.5-1.6,0.5C258.7,902.6,258,902,258,900.6z"/>
	<path class="st2" d="M276,919.8l-0.5-2h-0.2c-0.4,0.7-1,1.3-1.7,1.6s-1.6,0.6-2.6,0.6c-1.7,0-2.9-0.5-3.7-1.4
		c-0.8-1-1.3-2.3-1.3-4.1v-10h3.8v8.9c0,1.1,0.2,1.9,0.5,2.5c0.4,0.6,0.9,0.8,1.7,0.8c1.1,0,1.8-0.4,2.3-1.2s0.7-2.1,0.7-3.9v-7.2
		h3.8v15.3H276z"/>
	<path class="st2" d="M291.8,919.8l-0.7-2.1H291c-0.6,0.9-1.3,1.5-2,1.8s-1.6,0.5-2.7,0.5c-1.3,0-2.4-0.4-3.2-1.3s-1.2-2-1.2-3.6
		c0-1.6,0.5-2.8,1.6-3.6s2.6-1.2,4.7-1.3l2.4-0.1v-0.7c0-1.5-0.7-2.3-2.2-2.3c-1.1,0-2.4,0.4-4,1.1l-1.3-2.8
		c1.6-0.9,3.4-1.4,5.4-1.4c1.9,0,3.3,0.4,4.3,1.3s1.5,2.3,1.5,4.1v10.2H291.8z M290.7,912.8l-1.5,0.1c-1.1,0-1.9,0.3-2.5,0.7
		c-0.5,0.4-0.8,1-0.8,1.8c0,1.2,0.6,1.8,1.9,1.8c0.9,0,1.6-0.3,2.1-0.8c0.5-0.6,0.8-1.3,0.8-2.2V912.8z"/>
	<path class="st2" d="M302.3,919.8h-3.8v-21.3h3.8V919.8z"/>
</g>
</svg>
