<!-- Generator: Adobe Illustrator 19.0.0, SVG Export Plug-In  -->
<svg version="1.1"
	 xmlns="http://www.w3.org/2000/svg" xmlns:xlink="http://www.w3.org/1999/xlink" xmlns:a="http://ns.adobe.com/AdobeSVGViewerExtensions/3.0/"
	 x="0px" y="0px" width="261px" height="72px" viewBox="0 0 261 72" style="enable-background:new 0 0 261 72;"
	 xml:space="preserve">
<style type="text/css">
	.st0{fill:none;stroke:#FFFFFF;stroke-width:2;stroke-linecap:round;stroke-linejoin:round;stroke-miterlimit:10;}
	.st1{fill:none;stroke:#FF6633;stroke-width:2;stroke-miterlimit:10;}
	.st2{fill:#FF6633;}
	.st3{fill:#FFFFFF;}
	.st4{fill:none;stroke:#FFFFFF;stroke-width:2;stroke-miterlimit:10;}
</style>
<defs>
</defs>
<path class="st0" d="M231.3,40.7"/>
<path class="st0" d="M218.9,52.2c0,0-2.5-13.6,9.5-21.1"/>
<path class="st0" d="M225.6,41.3"/>
<path class="st0" d="M226.4,38.7"/>
<path class="st0" d="M219.9,22.9c0,0,7.4-0.2,11.8,6.4C231.7,29.3,231.8,17.2,219.9,22.9z"/>
<path class="st0" d="M218.2,33.4c0,0,5.2-5.2,12.9-3.4C231.2,30,223,21.2,218.2,33.4z"/>
<path class="st0" d="M245.2,33.5c0,0-5.2-5.2-13-3.4C232.2,30.1,240.4,21.2,245.2,33.5z"/>
<path class="st0" d="M239.2,42.3c0,0,0-1-0.4-2.4c-0.1-0.5-0.3-1.2-0.6-1.8c-0.2-0.5-0.4-1-0.7-1.6c-1-1.9-2.7-4-5.4-5.6
	C232.1,31,244.1,30.2,239.2,42.3z"/>
<path class="st0" d="M225.5,52.2c0,0-4.2-11.7,6.6-19.9"/>
<circle class="st1" cx="248.4" cy="39.8" r="3.2"/>
<circle class="st2" cx="8.4" cy="9.2" r="8.4"/>
<g>
	<g>
		<path class="st3" d="M37.1,12h-2.8l-1.5-6.1c-0.1-0.2-0.2-0.7-0.3-1.4c-0.1-0.7-0.2-1.1-0.2-1.4c0,0.3-0.1,0.7-0.2,1.3
			c-0.1,0.6-0.2,1.1-0.3,1.4L30.2,12h-2.8L24.5,0h2.4l1.5,6.4c0.3,1.2,0.4,2.3,0.6,3.1c0-0.3,0.1-0.7,0.2-1.3
			c0.1-0.6,0.2-1.3,0.3-1.6L31.1,0h2.3l1.7,6.6c0.1,0.3,0.2,0.8,0.3,1.4c0.1,0.6,0.2,1.1,0.3,1.6c0.1-0.4,0.1-0.9,0.3-1.5
			c0.1-0.6,0.2-1.3,0.3-1.7L37.6,0H40L37.1,12z"/>
		<path class="st3" d="M45,12c-1.4,0-2.5-0.4-3.3-1.2C41,10.1,40.6,9,40.6,7.5c0-1.5,0.4-2.6,1.1-3.4c0.7-0.8,1.7-1.2,3-1.2
			c1.2,0,2.4,0.4,3.1,1.1S49,5.7,49,6.9V8h-6c0,1,0.2,1.2,0.6,1.6c0.4,0.4,0.9,0.6,1.6,0.6c0.5,0,1,0,1.4-0.2S48,9.8,48,9.5v1.8
			c0,0.2-0.8,0.4-1.3,0.5S45.7,12,45,12z M44.7,4.6c-0.5,0-0.9-0.1-1.2,0.2S43.1,6,43,6h3.3c0,0-0.2-0.8-0.5-1.1S45.2,4.6,44.7,4.6z
			"/>
		<path class="st3" d="M54.5,12c-1.4,0-2.5-0.4-3.3-1.2C50.4,10.1,50,9,50,7.5c0-1.5,0.4-2.6,1.1-3.4c0.7-0.8,1.7-1.2,3-1.2
			c1.2,0,2.2,0.4,2.9,1.1s1,1.7,1,2.9V8h-5.6c0,1,0.2,1.2,0.6,1.6c0.4,0.4,0.9,0.6,1.6,0.6c0.5,0,1.2,0,1.7-0.2S57,9.8,58,9.5v1.8
			c-1,0.2-1.1,0.4-1.6,0.5S55.2,12,54.5,12z M54.2,4.6c-0.5,0-0.9-0.1-1.2,0.2S52.5,6,52.5,6h3.3c0,0-0.2-0.8-0.5-1.1
			S54.7,4.6,54.2,4.6z"/>
		<path class="st3" d="M62.3,7l1-1.3L65.8,3h2.7L65,6.9l3.7,5.1h-2.8l-2.7-3.6L62,9.1V12h-2V0h2v5.1L62.3,7L62.3,7z"/>
		<path class="st3" d="M73.7,12c-1.4,0-2.5-0.4-3.3-1.2c-0.8-0.8-1.2-1.9-1.2-3.3c0-1.5,0.4-2.6,1.1-3.4c0.7-0.8,1.7-1.2,3-1.2
			c1.2,0,2.1,0.4,2.7,1.1S77,5.7,77,6.9V8h-5.4c0,1,0.2,1.2,0.6,1.6c0.4,0.4,0.9,0.6,1.6,0.6c0.5,0,1.1,0,1.6-0.2S76,9.8,77,9.5v1.8
			c-1,0.2-1,0.4-1.4,0.5S74.4,12,73.7,12z M73.4,4.6c-0.5,0-0.9-0.1-1.2,0.2S71.7,6,71.7,6H75c0,0-0.2-0.8-0.5-1.1
			S73.9,4.6,73.4,4.6z"/>
		<path class="st3" d="M87,12h-2V6.7c0-0.6-0.2-1.1-0.4-1.4C84.4,5,84,4.9,83.5,4.9c-0.7,0-1,0.2-1.3,0.7S82,6.7,82,7.7V12h-3V3h2
			l0.3,1h0.1c0.3,0,0.6-0.6,1.1-0.8c0.5-0.2,1-0.3,1.6-0.3c1,0,1.6,0.3,2.2,0.9C86.9,4.3,87,5.1,87,6.1V12z"/>
		<path class="st3" d="M92.5,12.1c-1,0-1.8-0.5-2.4-1.3s-0.9-1.9-0.9-3.3c0-1.4,0.3-2.6,0.9-3.4c0.6-0.8,1.4-1.3,2.5-1.3
			c1.1,0,1.9,0.2,2.5,1.2h0.1C95,4,95,3,95,2.5V0h2v12h-1.5l-0.5-1H95C94.4,12,93.6,12.1,92.5,12.1z M93.3,10.1c0.6,0,1-0.2,1.3-0.5
			c0.3-0.4,0.4-1,0.4-1.8V7.5c0-0.9-0.1-1.6-0.4-2s-0.7-0.6-1.4-0.6c-0.5,0-0.9,0.2-1.2,0.7c-0.3,0.5-0.4,1.1-0.4,2s0.2,1.5,0.4,1.9
			S92.8,10.1,93.3,10.1z"/>
		<path class="st3" d="M106,9.3c0,0.9-0.3,1.6-0.9,2s-1.6,0.7-2.8,0.7c-0.6,0-1.3,0-1.8-0.1s-0.4-0.2-1.4-0.4v-2
			c1,0.2,1.1,0.4,1.7,0.5s1.1,0.2,1.6,0.2c0.9,0,1.3-0.3,1.3-0.8c0-0.2,0-0.3-0.2-0.5s-0.3-0.3-0.6-0.4s-0.7-0.3-1.1-0.5
			c-0.7-0.3-1.2-0.5-1.5-0.8c-0.3-0.2-0.5-0.5-0.7-0.8c-0.1-0.3-0.2-0.7-0.2-1.1c0-0.8,0.3-1.4,0.9-1.8c0.6-0.4,1.5-0.6,2.6-0.6
			c1.1,0,2.1,0.2,3.1,0.7l-0.7,1.7c-0.4-0.2-0.8-0.3-1.2-0.5c-0.4-0.1-0.8-0.2-1.2-0.2c-0.7,0-1.1,0.2-1.1,0.6
			c0,0.2,0.1,0.4,0.3,0.6s0.7,0.4,1.5,0.7c0.7,0.3,1.2,0.5,1.5,0.8c0.3,0.2,0.6,0.5,0.7,0.8S106,8.8,106,9.3z"/>
	</g>
</g>
<polyline class="st4" points="224.6,54.6 231.2,46.2 236.2,50.4 241.5,45 253.8,54.6 "/>
<rect x="207" y="7" class="st1" width="53" height="64"/>
<g>
	<path class="st3" d="M10.4,7.1c0,0.5,0.1,1-0.2,1.4S9,9.1,9,9.2v0c0,0.1,1,0.3,1.3,0.6s0.4,0.8,0.4,1.4c0,0.8-0.4,1.5-1,1.9
		s-1.3,0.7-2.4,0.7c-0.9,0-2.3-0.2-2.3-0.5v-1.5c0,0.2,0.5,0.3,0.9,0.4s0.7,0.2,1.1,0.2c0.6,0,1-0.1,1.3-0.3s0.4-0.5,0.4-1
		c0-0.4-0.2-0.7-0.5-0.9S7.4,10,6.7,10H6V9h0.7c0.7,0,1.1-0.3,1.5-0.5s0.5-0.6,0.5-1c0-0.6-0.4-1-1.2-1c-0.3,0-0.6,0-0.9,0.1
		s-0.6,0.2-1,0.5L4.7,5.9C5.5,5.3,6.4,5,7.5,5c0.9,0,1.6,0.2,2.1,0.5S10.4,6.4,10.4,7.1z"/>
</g>
<rect x="214" y="13" class="st1" width="40" height="42"/>
</svg>