<?xml version="1.0" encoding="utf-8"?>
<!-- Generator: Adobe Illustrator 19.0.0, SVG Export Plug-In . SVG Version: 6.00 Build 0)  -->
<svg version="1.1" id="Layer_1" xmlns="http://www.w3.org/2000/svg" xmlns:xlink="http://www.w3.org/1999/xlink" x="0px" y="0px"
	 viewBox="0 0 548.6 350" style="enable-background:new 0 0 548.6 350;" xml:space="preserve">
<style type="text/css">
	.st0{fill:#5B91B2;}
	.st1{opacity:0.26;fill:#F1F0F0;}
	.st2{fill:#4699BA;}
	.st3{fill:none;stroke:#46A0B9;stroke-width:5;stroke-miterlimit:10;}
	.st4{fill:#48839B;}
	.st5{fill:#6D9CB9;}
	.st6{fill:#6EB3D6;}
	.st7{fill:none;stroke:#F2673A;stroke-miterlimit:10;stroke-dasharray:3.132;}
	.st8{fill:#6F9AD1;}
	.st9{fill:#478395;}
	.st10{fill:#4795AD;}
</style>
<path id="XMLID_237_" class="st0" d="M453.2,126c0,0,1.6-19.6,24.1-31c22.6-11.4,51.4,5.4,55.1,27.7s9,31.3,6.6,36.7
	c-2.4,5.4-13.8,3-13.8,3L524,178l-4.2,3l-1.2,6.6l-4.2,3l-2.4,3h-10.8l-27.4-0.6l-70.4,3L453.2,126z"/>
<ellipse id="XMLID_236_" class="st1" cx="511.7" cy="129.5" rx="5.1" ry="6.3"/>
<path id="XMLID_235_" class="st2" d="M419.5,121.8c0,0,1.6-20.6,25.4-32.6c23.7-12,54.1,5.7,57.9,29.1c3.8,23.4,9.5,32.9,7,38.6
	c-2.5,5.7-14.5,3.2-14.5,3.2l-1.3,16.4l-4.4,3.2l-1.3,7l-4.4,3.2l-2.5,3.2h-11.4l-25,3.2h-37.3L419.5,121.8z"/>
<ellipse id="XMLID_234_" class="st1" cx="480.9" cy="125.5" rx="5.4" ry="6.6"/>
<g id="XMLID_228_">
	<circle id="XMLID_233_" class="st3" cx="114.4" cy="153.3" r="106.2"/>
	<ellipse id="XMLID_232_" class="st3" cx="114.4" cy="153.3" rx="56.6" ry="106.2"/>
	<line id="XMLID_231_" class="st3" x1="114.4" y1="47.1" x2="114.4" y2="259.6"/>
	<line id="XMLID_230_" class="st3" x1="16.5" y1="109.3" x2="213.4" y2="109.3"/>
	<line id="XMLID_229_" class="st3" x1="16.5" y1="194.7" x2="213.4" y2="194.7"/>
</g>
<path id="XMLID_227_" class="st4" d="M374,116c0,0,1.8-22.7,28-36c26.2-13.3,59.8,6.3,63.9,32.1c4.2,25.9,10.5,36.3,7.7,42.6
	s-16.1,3.5-16.1,3.5l-1.4,18.2l-4.9,3.5l-1.4,7.7l-4.9,3.5l-2.8,3.5h-12.6L402,212.7h-19.9L374,116z"/>
<ellipse id="XMLID_226_" class="st1" cx="440.6" cy="120.4" rx="5.9" ry="7.3"/>
<polygon id="XMLID_225_" class="st5" points="123.5,273.5 403.3,273.5 403.3,143.6 263.4,9.4 123.5,143.6 "/>
<g id="XMLID_223_">
	<path id="XMLID_224_" class="st6" d="M363.1,111.8l-35.4-20.7c-9.2,10.8-23.9,15-37.3,11L188.7,275.8c10.1,9.7,13.6,24.6,8.7,37.9
		l35.4,20.7c9.6-11.3,25.4-15.4,39.4-10.3l101.2-172.9C362.1,141.5,357.9,125.8,363.1,111.8z"/>
</g>
<rect id="XMLID_222_" x="182" y="182.6" transform="matrix(0.505 -0.8631 0.8631 0.505 -44.8953 348.7884)" class="st7" width="199.2" height="61.8"/>
<g id="XMLID_206_">
	<path id="XMLID_220_" class="st8" d="M244.5,279.2c-6.8-4-8.1-11.6-4.8-17.3c3.4-5.9,8.8-6.8,12.7-5.6l-1.1,4.6
		c-2.3-0.7-5.5-0.3-7.7,3.3c-1.9,3.2-1.5,7.9,3.3,10.7c4.5,2.6,8.9,0.9,10.9-2.5c2.1-3.6,0.8-6.8-0.9-8.5l3.4-3.2
		c2.8,2.7,5,8.1,1.5,14.1C258.4,280.8,251.2,283.2,244.5,279.2z"/>
	<path id="XMLID_217_" class="st8" d="M253,239.1c3.4-5.8,10.6-8.5,17.5-4.5c6.8,4,8,11.6,4.7,17.4c-3.4,5.8-10.6,8.4-17.4,4.4
		C250.9,252.5,249.7,244.9,253,239.1z M271.2,249.8c1.9-3.3,1.6-8-3.2-10.8c-4.8-2.8-9-0.8-11,2.5c-1.9,3.3-1.6,8,3.2,10.8
		C265,255,269.3,253,271.2,249.8z"/>
	<path id="XMLID_215_" class="st8" d="M275.6,233.1l-13.7-8l2.4-4.1l13.4,7.9c2.8,1.6,5.2,0.9,6.6-1.5c1.5-2.5,0.9-4.9-1.9-6.5
		l-13.4-7.9l2.4-4.1l13.7,8c5.2,3.1,5.9,8.3,3.2,12.9C285.7,234.2,280.8,236.2,275.6,233.1z"/>
	<path id="XMLID_212_" class="st8" d="M289.8,207.7l8,4.7l-2.4,4.1l-21.3-12.4l4.6-7.9c2.5-4.2,6.9-5.4,10.7-3.1
		c3.9,2.3,5,6.7,2.5,10.9L289.8,207.7z M288.2,202.3c1.2-2.1,0.7-4-1.1-5.1c-1.9-1.1-3.8-0.5-5,1.5l-1.9,3.3l6.1,3.6L288.2,202.3z"
		/>
	<path id="XMLID_209_" class="st8" d="M290,176c3.4-5.8,10.6-8.5,17.5-4.5c6.8,4,8,11.6,4.7,17.4c-3.4,5.8-10.6,8.4-17.4,4.4
		C287.8,189.4,286.6,181.8,290,176z M308.1,186.6c1.9-3.3,1.6-8-3.2-10.8c-4.8-2.8-9-0.8-11,2.5c-1.9,3.3-1.6,8,3.2,10.8
		C301.9,191.9,306.2,189.9,308.1,186.6z"/>
	<path id="XMLID_207_" class="st8" d="M328.2,160.4l-20.7,0.8l15.1,8.8l-2.4,4.1l-21.3-12.4l3-5.2l19.2-0.6l-14.1-8.2l2.4-4.1
		l21.3,12.4L328.2,160.4z"/>
</g>
<g id="XMLID_168_">
	<path id="XMLID_205_" class="st6" d="M298.2,81.2L259,69.1c-6.5,12.6-19.9,20-33.9,19.1l-59.7,192.2c12,7.2,18.8,20.9,17.1,35
		l39.2,12.2c6.8-13.2,21.3-20.8,36-18.9l59.5-191.3C303.9,110.4,296.3,96,298.2,81.2z"/>
</g>
<rect id="XMLID_152_" x="142.3" y="167.8" transform="matrix(0.2968 -0.9549 0.9549 0.2968 -19.7292 370.7059)" class="st7" width="199.2" height="61.8"/>
<g id="XMLID_136_">
	<path id="XMLID_150_" class="st8" d="M220.6,271.2c-7.5-2.3-10.5-9.5-8.5-15.8c2-6.5,7-8.6,11.1-8.4l0,4.7c-2.4-0.1-5.5,0.9-6.8,5
		c-1.1,3.5,0.3,8,5.6,9.7c5,1.6,8.9-1.1,10-4.9c1.2-4-0.8-6.8-2.8-8.1l2.6-3.9c3.3,2,6.7,6.8,4.6,13.4
		C234.5,269.5,228.1,273.5,220.6,271.2z"/>
	<path id="XMLID_147_" class="st8" d="M219.8,230.2c2-6.4,8.4-10.7,16-8.3c7.6,2.3,10.5,9.5,8.5,15.9c-2,6.4-8.4,10.6-16,8.3
		C220.8,243.7,217.9,236.6,219.8,230.2z M239.9,236.4c1.1-3.6-0.2-8.1-5.5-9.8c-5.3-1.6-9,1.3-10.1,4.9c-1.1,3.6,0.2,8.1,5.5,9.8
		C235.1,243,238.8,240.1,239.9,236.4z"/>
	<path id="XMLID_145_" class="st8" d="M240.5,219.2l-15.2-4.7l1.4-4.6l14.9,4.6c3.1,1,5.2-0.3,6.1-3c0.9-2.8-0.2-5-3.3-5.9
		l-14.9-4.6l1.4-4.6l15.2,4.7c5.8,1.8,7.6,6.8,6,11.8C250.6,218,246.2,221,240.5,219.2z"/>
	<path id="XMLID_142_" class="st8" d="M248.6,191.3l8.9,2.8l-1.4,4.6l-23.5-7.3l2.7-8.8c1.4-4.6,5.5-6.8,9.7-5.5
		c4.3,1.3,6.4,5.4,4.9,10L248.6,191.3z M245.8,186.4c0.7-2.3-0.2-4.1-2.2-4.7c-2.1-0.6-3.8,0.3-4.5,2.6l-1.1,3.6l6.7,2.1
		L245.8,186.4z"/>
	<path id="XMLID_139_" class="st8" d="M241.6,160.4c2-6.4,8.4-10.7,16-8.3c7.6,2.3,10.5,9.5,8.5,15.9c-2,6.4-8.4,10.6-16,8.3
		C242.5,173.9,239.6,166.7,241.6,160.4z M261.6,166.6c1.1-3.6-0.2-8.1-5.5-9.8c-5.3-1.6-9,1.3-10.1,4.9c-1.1,3.6,0.2,8.1,5.5,9.8
		C256.8,173.1,260.5,170.2,261.6,166.6z"/>
	<path id="XMLID_137_" class="st8" d="M275.3,136.5l-20,5.5l16.7,5.2l-1.4,4.6l-23.5-7.3l1.8-5.7l18.6-4.9l-15.6-4.8l1.4-4.6
		l23.5,7.3L275.3,136.5z"/>
</g>
<path id="XMLID_124_" class="st9" d="M123.5,144.6v199.2h279.9V144.6L265,272.1c-0.9,0.8-2.2,0.8-3.1,0L123.5,144.6z"/>
<polygon id="XMLID_109_" class="st10" points="403.3,144.6 403.3,343.8 261.8,272.1 "/>
<polygon id="XMLID_84_" class="st10" points="123.5,144.6 123.5,343.8 261.8,272.1 "/>
</svg>
