<?xml version="1.0" encoding="utf-8"?>
<!-- Generator: Adobe Illustrator 19.0.0, SVG Export Plug-In . SVG Version: 6.00 Build 0)  -->
<svg version="1.1" id="Layer_1" xmlns="http://www.w3.org/2000/svg" xmlns:xlink="http://www.w3.org/1999/xlink" x="0px" y="0px"
	 viewBox="0 0 446.5 315.5" style="enable-background:new 0 0 446.5 315.5;" xml:space="preserve">
<style type="text/css">
	.st0{fill:none;stroke:#DA5137;stroke-miterlimit:10;}
	.st1{fill:none;stroke:#F1593D;stroke-miterlimit:10;}
	.st2{fill:none;stroke:#D14033;stroke-width:5;stroke-miterlimit:10;}
	.st3{fill:#F17F3B;}
	.st4{fill:none;stroke:#F15A3E;stroke-width:0.2;stroke-miterlimit:10;}
	.st5{fill:#C8552F;}
	.st6{fill:none;stroke:#D35128;stroke-width:5;stroke-miterlimit:10;}
	.st7{fill:#F07F3B;}
	.st8{fill:none;stroke:#D84B1F;stroke-width:5;stroke-miterlimit:10;}
	.st9{fill:none;stroke:#F0502B;stroke-width:5;stroke-miterlimit:10;}
	.st10{fill:none;stroke:#D44933;stroke-width:3;stroke-linecap:round;stroke-linejoin:round;stroke-miterlimit:10;}
	.st11{fill:#F16052;}
	.st12{fill:#D24430;}
	.st13{fill:#F1573B;}
	.st14{fill:#F26739;}
	.st15{fill:none;stroke:#F1583C;stroke-width:0.5;stroke-linecap:round;stroke-linejoin:round;stroke-miterlimit:10;}
	.st16{fill:#EF6B52;}
	.st17{fill:none;stroke:#F1593D;stroke-width:0.2;stroke-miterlimit:10;}
	.st18{fill:#F0714F;}
	.st19{fill:none;stroke:#EF6B52;stroke-width:2;stroke-miterlimit:10;}
	.st20{fill:none;stroke:#F1583C;stroke-miterlimit:10;}
	.st21{fill:none;stroke:#F1583C;stroke-width:3;stroke-linecap:round;stroke-linejoin:round;stroke-miterlimit:10;}
	.st22{fill:#F2764E;}
	.st23{opacity:0.36;fill:#096B88;}
	.st24{font-family:'CircularStd-Book';}
	.st25{font-size:14.834px;}
	.st26{opacity:0.48;fill:none;stroke:#096B88;stroke-width:0.4;stroke-miterlimit:10;stroke-dasharray:2;}
</style>
<line id="XMLID_172_" class="st0" x1="86.8" y1="180.8" x2="160.3" y2="180.8"/>
<line id="XMLID_171_" class="st0" x1="163.2" y1="180.8" x2="177.6" y2="180.8"/>
<line id="XMLID_170_" class="st0" x1="177.6" y1="220.8" x2="104.1" y2="220.8"/>
<line id="XMLID_169_" class="st0" x1="101.3" y1="220.8" x2="86.8" y2="220.8"/>
<line id="XMLID_168_" class="st1" x1="163.2" y1="200.8" x2="177.6" y2="200.8"/>
<line id="XMLID_167_" class="st0" x1="120.5" y1="190.8" x2="177.6" y2="190.8"/>
<line id="XMLID_166_" class="st0" x1="86.8" y1="200.8" x2="160.3" y2="200.8"/>
<line id="XMLID_165_" class="st0" x1="139" y1="210.8" x2="177.6" y2="210.8"/>
<line id="XMLID_164_" class="st0" x1="86.8" y1="120.8" x2="177.8" y2="120.8"/>
<line id="XMLID_163_" class="st0" x1="86.8" y1="130.8" x2="160.3" y2="130.8"/>
<line id="XMLID_162_" class="st0" x1="163.2" y1="130.8" x2="177.6" y2="130.8"/>
<line id="XMLID_161_" class="st0" x1="177.6" y1="170.8" x2="104.1" y2="170.8"/>
<line id="XMLID_160_" class="st0" x1="101.3" y1="170.8" x2="86.8" y2="170.8"/>
<line id="XMLID_159_" class="st1" x1="163.2" y1="150.8" x2="177.6" y2="150.8"/>
<line id="XMLID_158_" class="st1" x1="86.8" y1="140.8" x2="118" y2="140.8"/>
<line id="XMLID_157_" class="st0" x1="120.5" y1="140.8" x2="177.6" y2="140.8"/>
<line id="XMLID_156_" class="st1" x1="86.8" y1="150.8" x2="160.3" y2="150.8"/>
<line id="XMLID_155_" class="st0" x1="139" y1="160.8" x2="177.6" y2="160.8"/>
<line id="XMLID_154_" class="st1" x1="86.8" y1="160.8" x2="135.8" y2="160.8"/>
<path id="XMLID_153_" class="st2" d="M151.8,225.1L82,294.9c-4,4-10.6,4-14.6,0l0,0c-4-4-4-10.6,0-14.6l69.9-69.9L151.8,225.1z"/>
<path id="XMLID_152_" class="st3" d="M139.4,210.2L67.6,282c-2.3,2.3-3.1,5.7-2,8.7l0,0c0.8,2.3,2.5,4.2,4.8,5.1l0.9,0.4
	c1.8,0.8,3.9,0.9,5.8,0.3l1.2-0.4c1.3-0.4,2.5-1.1,3.5-2.1l70.7-70.7L139.4,210.2z"/>
<g id="XMLID_143_">
	<line id="XMLID_151_" class="st4" x1="140.8" y1="211.6" x2="65.2" y2="287.2"/>
	<line id="XMLID_150_" class="st4" x1="142.4" y1="213.2" x2="65.4" y2="290.2"/>
	<line id="XMLID_149_" class="st4" x1="145.3" y1="216.1" x2="67.5" y2="293.9"/>
	<line id="XMLID_148_" class="st4" x1="148" y1="218.8" x2="70.8" y2="296"/>
	<line id="XMLID_147_" class="st4" x1="149.7" y1="220.5" x2="73.4" y2="296.8"/>
	<line id="XMLID_146_" class="st4" x1="151.4" y1="222.2" x2="77" y2="296.5"/>
	<line id="XMLID_145_" class="st4" x1="144.1" y1="214.9" x2="66.4" y2="292.5"/>
	<line id="XMLID_144_" class="st4" x1="146.9" y1="217.7" x2="69.3" y2="295.3"/>
</g>
<path id="XMLID_142_" class="st5" d="M11,303.4v-10.5c0,0-1.1-4.2,3.5-4.2c1.5,0,9.8,0,20.4,0c22.2,0,54.5,0,54.5,0
	s9.5,1.4,9.8,10.9c0,2.8,0,3.9,0,3.9H11z"/>
<path id="XMLID_141_" class="st5" d="M35,288.6V277l-5.3-3.5v-9.1c0,0-5.3-3.5,0-9.1C27.3,245,8.6,150.1,8.6,150.1H6.1l4.2-55.2
	L35,125.9l-17.4,16.7l-4.4,3.4L35,253.5l4.2-1.1l-13.7-74.5l-6.7-37.3l3.9-3.2l20.7,114.6l7-0.7c0,0,7,7.4-6,11.6
	c1.4,4.9,2.5,8.8,2.5,8.8l-6.7,3.5l0.7,5.6l4.9-0.4l1.4-3.5l1.1,4.9l-7.4,0.7l0.7,6H35z"/>
<polygon id="XMLID_140_" class="st5" points="17,103.3 19.5,106.5 124.8,30.6 122,28.7 "/>
<polygon id="XMLID_139_" class="st5" points="27.8,116.8 30.9,120.8 128.5,36.2 124.4,32.3 "/>
<circle id="XMLID_138_" class="st5" cx="125.2" cy="16.6" r="4"/>
<path id="XMLID_137_" class="st5" d="M120.7,27.9l-1.4-1.4c0,0-1.2-3,0-4.6c1.2-1.6,13.2-10.7,13.2-10.7s1.1-1.8,3.9,1.6
	s9.3,11.6,9.3,11.6l45.7,21.4l-55.7,43.8l-8.8-53.1L120.7,27.9z"/>
<path id="XMLID_136_" class="st6" d="M181.2,207l-44.9,88c-2.6,5.1-8.8,7.1-13.9,4.5h0c-5.1-2.6-7.1-8.8-4.5-13.9l44.9-88L181.2,207
	z"/>
<path id="XMLID_135_" class="st7" d="M164.8,196.7l-46.1,90.4c-1.5,2.9-1.2,6.4,0.8,9h0c1.5,2,3.7,3.2,6.2,3.4l1,0.1
	c2,0.2,3.9-0.4,5.6-1.5l1.1-0.7c1.1-0.8,2.1-1.9,2.7-3.1l45.4-89.1L164.8,196.7z"/>
<g id="XMLID_126_">
	<line id="XMLID_134_" class="st4" x1="166.5" y1="197.6" x2="118" y2="292.8"/>
	<line id="XMLID_133_" class="st4" x1="168.6" y1="198.6" x2="119.1" y2="295.6"/>
	<line id="XMLID_132_" class="st4" x1="172.3" y1="200.5" x2="122.3" y2="298.5"/>
	<line id="XMLID_131_" class="st4" x1="175.6" y1="202.2" x2="126" y2="299.5"/>
	<line id="XMLID_130_" class="st4" x1="177.8" y1="203.3" x2="128.7" y2="299.4"/>
	<line id="XMLID_129_" class="st4" x1="179.9" y1="204.4" x2="132.1" y2="298"/>
	<line id="XMLID_128_" class="st4" x1="170.7" y1="199.7" x2="120.8" y2="297.5"/>
	<line id="XMLID_127_" class="st4" x1="174.2" y1="201.5" x2="124.4" y2="299.2"/>
</g>
<path id="XMLID_125_" class="st8" d="M295.9,300.9l-119.5,0c-5.7,0-10.3-4.6-10.3-10.3l0-11c0-5.7,4.6-10.3,10.3-10.3l119.5,0
	L295.9,300.9z"/>
<path id="XMLID_124_" class="st7" d="M297.9,271.3l-120.8,0c-3.9,0-7.4,2.8-9.1,7.3l0,0c-1.3,3.4-1.4,7.3-0.3,10.8l0.4,1.4
	c0.9,2.8,2.5,5.1,4.6,6.5l1.4,0.9c1.5,1,3.1,1.5,4.7,1.5l119,0L297.9,271.3z"/>
<g id="XMLID_115_">
	<line id="XMLID_123_" class="st4" x1="297.9" y1="274.3" x2="170.7" y2="274.3"/>
	<line id="XMLID_122_" class="st4" x1="297.9" y1="277.8" x2="168.4" y2="277.8"/>
	<line id="XMLID_121_" class="st4" x1="297.9" y1="284.2" x2="167" y2="284.2"/>
	<line id="XMLID_120_" class="st4" x1="297.9" y1="290" x2="168" y2="290"/>
	<line id="XMLID_119_" class="st4" x1="297.9" y1="293.6" x2="169.5" y2="293.6"/>
	<line id="XMLID_118_" class="st4" x1="297.9" y1="297.3" x2="172.8" y2="297.3"/>
	<line id="XMLID_117_" class="st4" x1="297.9" y1="281.5" x2="167.3" y2="281.5"/>
	<line id="XMLID_116_" class="st4" x1="297.9" y1="287.5" x2="167.3" y2="287.6"/>
</g>
<path id="XMLID_114_" class="st9" d="M259.7,264.9l-83.8,0c-5.5,0-9.9-4.4-9.9-9.9v0c0-5.5,4.4-9.9,9.9-9.9l83.8,0L259.7,264.9z"/>
<path id="XMLID_113_" class="st7" d="M262.7,246.4l-88.5,0c-2.8,0-5.4,1.8-6.7,4.5l0,0c-0.9,2.1-1,4.6-0.2,6.7l0.3,0.8
	c0.7,1.8,1.9,3.2,3.4,4.1l1,0.6c1.1,0.6,2.3,0.9,3.5,0.9l87.2,0L262.7,246.4z"/>
<g id="XMLID_104_">
	<line id="XMLID_112_" class="st4" x1="262.7" y1="248.3" x2="169.4" y2="248.3"/>
	<line id="XMLID_111_" class="st4" x1="262.7" y1="250.5" x2="167.7" y2="250.5"/>
	<line id="XMLID_110_" class="st4" x1="262.7" y1="254.5" x2="166.7" y2="254.5"/>
	<line id="XMLID_109_" class="st4" x1="262.7" y1="258.1" x2="167.4" y2="258.1"/>
	<line id="XMLID_108_" class="st4" x1="262.7" y1="260.4" x2="168.6" y2="260.4"/>
	<line id="XMLID_107_" class="st4" x1="262.7" y1="262.6" x2="171" y2="262.6"/>
	<line id="XMLID_106_" class="st4" x1="262.7" y1="252.8" x2="166.9" y2="252.8"/>
	<line id="XMLID_105_" class="st4" x1="262.7" y1="256.6" x2="167" y2="256.6"/>
</g>
<path id="XMLID_103_" class="st10" d="M197.5,201.2l83.4,0c5.5,0,9.9,4.4,9.9,9.9v0c0,5.5-4.4,9.9-9.9,9.9l-83.4,0L197.5,201.2z"/>
<path id="XMLID_102_" class="st7" d="M196,219.7l86.7,0c2.8,0,5.3-1.8,6.5-4.5v0c0.9-2.1,1-4.6,0.2-6.7l-0.3-0.8
	c-0.6-1.8-1.8-3.2-3.3-4.1l-1-0.6c-1-0.6-2.2-0.9-3.4-0.9l-85.4,0L196,219.7z"/>
<g id="XMLID_93_">
	<line id="XMLID_101_" class="st4" x1="196" y1="217.8" x2="287.4" y2="217.8"/>
	<line id="XMLID_100_" class="st4" x1="196" y1="215.6" x2="289" y2="215.6"/>
	<line id="XMLID_99_" class="st4" x1="196" y1="211.6" x2="290" y2="211.6"/>
	<line id="XMLID_98_" class="st4" x1="196" y1="208" x2="289.3" y2="208"/>
	<line id="XMLID_97_" class="st4" x1="196" y1="205.7" x2="288.2" y2="205.7"/>
	<line id="XMLID_96_" class="st4" x1="196" y1="203.5" x2="285.8" y2="203.5"/>
	<line id="XMLID_95_" class="st4" x1="196" y1="213.3" x2="289.8" y2="213.3"/>
	<line id="XMLID_94_" class="st4" x1="196" y1="209.5" x2="289.8" y2="209.5"/>
</g>
<path id="XMLID_92_" class="st11" d="M294.8,243.9l-114.6,0c-3.6,0-6.6-2.9-6.6-6.6l0-6.6c0-3.6,2.9-6.6,6.6-6.6l115.3,0
	c1.9,0,3.5,1.6,3.5,3.5l0,11.9C299.1,242,297.2,243.9,294.8,243.9z"/>
<circle id="XMLID_91_" class="st12" cx="270.3" cy="114.2" r="40.4"/>
<path id="XMLID_90_" class="st13" d="M266,124.7l-12,0.6l-0.3-14.1c0,0-1.5-10.8-1.3-15s3.9-9.8,8.3-10.7c3.8-0.8,10.9-0.1,14.7,0
	c1.2,0,2.3,0.4,3.3,1.1c2.4,1.6,6.4,5.8,6.9,9.7s1,29.1,1,29.1L266,124.7z"/>
<path id="XMLID_89_" class="st14" d="M261.6,131.7c0,0,5.3-5.3,5.1-7.3s-8.1-5.3-9.6-11.8c-3.3,0-5-2.3-4.8-7.8s3-3.5,3-3.5v-6.3
	c0,0,2.3-7,8-7s13.8,0,13.8,0s4,3.3,6,9.5c0,3.5,0,3.5,0,3.5s2.9-0.8,2.9,2.1c0,3.9-0.2,9.3-5.2,9.3c-0.6,4.8-4.9,9-7.9,11.2
	c-1.3,3.8,3.9,7.3,3.9,7.3l-8.2,6.2L261.6,131.7z"/>
<path id="XMLID_88_" class="st13" d="M296.5,145c0,0-4-15.6-18-15.6c-6,7.7-15.3,5.3-18,0c-11.3,0-15.9,14-15.4,16.4
	C254.1,153.7,277.2,161.9,296.5,145z"/>
<path id="XMLID_87_" class="st13" d="M285.6,97.4h-33.2c0,0,3.5-8.5,6.1-10.8c2.5-2.2,18.3-3.2,22.2,1.5S285.6,97.4,285.6,97.4z"/>
<line id="XMLID_86_" class="st15" x1="281.7" y1="96.5" x2="281.7" y2="101.3"/>
<line id="XMLID_85_" class="st15" x1="282.7" y1="96.5" x2="282.7" y2="101.3"/>
<line id="XMLID_84_" class="st15" x1="271.7" y1="96.5" x2="271.7" y2="101.3"/>
<line id="XMLID_83_" class="st15" x1="273.7" y1="96.5" x2="273.7" y2="101.3"/>
<line id="XMLID_82_" class="st15" x1="274.7" y1="96.5" x2="274.7" y2="101.3"/>
<line id="XMLID_81_" class="st15" x1="275.7" y1="96.5" x2="275.7" y2="101.3"/>
<line id="XMLID_80_" class="st15" x1="266.7" y1="96.5" x2="266.7" y2="101.3"/>
<line id="XMLID_79_" class="st15" x1="268.7" y1="96.5" x2="268.7" y2="101.3"/>
<line id="XMLID_78_" class="st15" x1="269.7" y1="96.5" x2="269.7" y2="101.3"/>
<line id="XMLID_77_" class="st15" x1="270.7" y1="96.5" x2="270.7" y2="101.3"/>
<line id="XMLID_76_" class="st15" x1="272.7" y1="96.5" x2="272.7" y2="101.3"/>
<line id="XMLID_75_" class="st15" x1="261.7" y1="96.5" x2="261.7" y2="101.3"/>
<line id="XMLID_74_" class="st15" x1="262.7" y1="96.5" x2="262.7" y2="101.3"/>
<line id="XMLID_73_" class="st15" x1="263.7" y1="96.5" x2="263.7" y2="101.3"/>
<line id="XMLID_72_" class="st15" x1="264.7" y1="96.5" x2="264.7" y2="101.3"/>
<line id="XMLID_71_" class="st15" x1="265.7" y1="96.5" x2="265.7" y2="101.3"/>
<line id="XMLID_70_" class="st15" x1="267.7" y1="96.5" x2="267.7" y2="101.3"/>
<line id="XMLID_69_" class="st15" x1="256.7" y1="96.5" x2="256.7" y2="101.3"/>
<line id="XMLID_68_" class="st15" x1="255.7" y1="96.5" x2="255.7" y2="101.3"/>
<line id="XMLID_67_" class="st15" x1="257.7" y1="96.5" x2="257.7" y2="101.3"/>
<line id="XMLID_66_" class="st15" x1="258.7" y1="96.5" x2="258.7" y2="101.3"/>
<line id="XMLID_65_" class="st15" x1="259.7" y1="96.5" x2="259.7" y2="101.3"/>
<line id="XMLID_64_" class="st15" x1="260.7" y1="96.5" x2="260.7" y2="101.3"/>
<line id="XMLID_63_" class="st15" x1="276.7" y1="96.5" x2="276.7" y2="101.3"/>
<line id="XMLID_62_" class="st15" x1="277.7" y1="96.5" x2="277.7" y2="101.3"/>
<line id="XMLID_61_" class="st15" x1="278.7" y1="96.5" x2="278.7" y2="101.3"/>
<line id="XMLID_60_" class="st15" x1="279.7" y1="96.5" x2="279.7" y2="101.3"/>
<line id="XMLID_59_" class="st15" x1="280.7" y1="96.5" x2="280.7" y2="101.3"/>
<g id="XMLID_56_">
	<path id="XMLID_58_" class="st16" d="M337,93.6h-35.8c-6.6,0-12-5.4-12-12v-9c0-6.6,5.4-12,12-12H337c6.6,0,12,5.4,12,12v9
		C349,88.2,343.6,93.6,337,93.6z"/>
	<polygon id="XMLID_57_" class="st16" points="289.2,82.8 280.7,92.5 298.5,93.3 	"/>
</g>
<g id="XMLID_45_">
	<line id="XMLID_55_" class="st17" x1="298.5" y1="68.4" x2="309" y2="68.4"/>
	<line id="XMLID_54_" class="st17" x1="298.6" y1="74.4" x2="301.9" y2="74.4"/>
	<line id="XMLID_53_" class="st17" x1="311.5" y1="68.4" x2="338.8" y2="68.4"/>
	<line id="XMLID_52_" class="st17" x1="298.5" y1="71.4" x2="338.8" y2="71.4"/>
	<line id="XMLID_51_" class="st17" x1="298.5" y1="80.4" x2="338.8" y2="80.4"/>
	<line id="XMLID_50_" class="st17" x1="298.5" y1="83.4" x2="338.8" y2="83.4"/>
	<line id="XMLID_49_" class="st17" x1="298.5" y1="86.4" x2="313.1" y2="86.4"/>
	<line id="XMLID_48_" class="st17" x1="303.8" y1="74.4" x2="338.8" y2="74.4"/>
	<line id="XMLID_47_" class="st17" x1="316.3" y1="77.4" x2="338.8" y2="77.4"/>
	<line id="XMLID_46_" class="st17" x1="298.3" y1="77.4" x2="315.1" y2="77.4"/>
</g>
<path id="XMLID_44_" class="st5" d="M430.7,303.4h-95.8c-5.3,0-9.7-4.3-9.7-9.7V157.6c0-5.3,4.3-9.7,9.7-9.7h95.8
	c5.3,0,9.7,4.3,9.7,9.7v136.1C440.3,299.1,436,303.4,430.7,303.4z"/>
<rect id="XMLID_43_" x="334.3" y="165.3" class="st18" width="96.7" height="121.9"/>
<line id="XMLID_42_" class="st19" x1="346.4" y1="148" x2="325.2" y2="188"/>
<rect id="XMLID_41_" x="345.7" y="188" class="st20" width="19.3" height="22.2"/>
<rect id="XMLID_40_" x="345.7" y="218" class="st20" width="19.3" height="22.2"/>
<rect id="XMLID_39_" x="345.7" y="248" class="st20" width="19.3" height="22.2"/>
<line id="XMLID_38_" class="st20" x1="379.7" y1="191.8" x2="418.3" y2="191.8"/>
<line id="XMLID_37_" class="st20" x1="379.7" y1="219.8" x2="418.3" y2="219.8"/>
<line id="XMLID_36_" class="st20" x1="379.7" y1="228.8" x2="418.3" y2="228.8"/>
<line id="XMLID_35_" class="st20" x1="379.7" y1="237.8" x2="396.1" y2="237.8"/>
<line id="XMLID_34_" class="st20" x1="398.7" y1="237.8" x2="418.3" y2="237.8"/>
<line id="XMLID_33_" class="st20" x1="418.3" y1="201.2" x2="390.7" y2="201.2"/>
<line id="XMLID_32_" class="st20" x1="405.3" y1="210.2" x2="380.7" y2="210.2"/>
<line id="XMLID_31_" class="st20" x1="418.3" y1="210.2" x2="407.1" y2="210.2"/>
<line id="XMLID_30_" class="st20" x1="379.7" y1="201.4" x2="389" y2="201.4"/>
<line id="XMLID_29_" class="st20" x1="379.7" y1="246.8" x2="418.3" y2="246.8"/>
<line id="XMLID_28_" class="st20" x1="418.3" y1="256.2" x2="390.7" y2="256.2"/>
<line id="XMLID_27_" class="st20" x1="405.3" y1="265.2" x2="380.7" y2="265.2"/>
<line id="XMLID_26_" class="st20" x1="418.3" y1="265.2" x2="407.1" y2="265.2"/>
<line id="XMLID_25_" class="st20" x1="379.7" y1="256.4" x2="389" y2="256.4"/>
<g id="XMLID_22_">
	<line id="XMLID_24_" class="st21" x1="348.7" y1="196.6" x2="354.6" y2="208.2"/>
	<line id="XMLID_23_" class="st21" x1="354.6" y1="208.2" x2="372.6" y2="188"/>
</g>
<g id="XMLID_19_">
	<line id="XMLID_21_" class="st21" x1="348.7" y1="225.6" x2="354.6" y2="237.2"/>
	<line id="XMLID_20_" class="st21" x1="354.6" y1="237.2" x2="372.6" y2="217"/>
</g>
<g id="XMLID_16_">
	<line id="XMLID_18_" class="st21" x1="348.7" y1="255.6" x2="354.6" y2="267.2"/>
	<line id="XMLID_17_" class="st21" x1="354.6" y1="267.2" x2="372.6" y2="247"/>
</g>
<polygon id="XMLID_15_" class="st16" points="410.3,161.1 358.6,161.1 354.6,148 414.3,148 "/>
<path id="XMLID_14_" class="st22" d="M173.7,235.7h125.4c0,0,2,8.3-5.6,8.3c-8.2,0-113.9,0-113.9,0S172.8,242.9,173.7,235.7z"/>
<text id="XMLID_13_" transform="matrix(1 0 0 1 205.8202 239.2081)" class="st23 st24 st25">SURVEY</text>
<path id="XMLID_10_" class="st26" d="M192.8,224.2c0,0-1.5,0.9-1.8,2.9c-0.3,2,0,13.1,0,13.1s0,2.4,1.8,3.7"/>
<rect id="XMLID_9_" x="281.7" y="228.8" class="st22" width="7.9" height="6.9"/>
<rect id="XMLID_8_" x="281.7" y="235.8" class="st11" width="7.9" height="6.9"/>
<line id="XMLID_7_" class="st0" x1="86.8" y1="140.8" x2="160.3" y2="140.8"/>
<line id="XMLID_6_" class="st1" x1="163.2" y1="140.8" x2="177.6" y2="140.8"/>
<line id="XMLID_5_" class="st0" x1="86.8" y1="150.8" x2="160.3" y2="150.8"/>
<line id="XMLID_4_" class="st0" x1="163.2" y1="150.8" x2="177.6" y2="150.8"/>
<line id="XMLID_3_" class="st0" x1="86.8" y1="160.8" x2="160.3" y2="160.8"/>
<line id="XMLID_2_" class="st1" x1="163.2" y1="160.8" x2="177.6" y2="160.8"/>
</svg>
