<!-- Generator: Adobe Illustrator 19.1.0, SVG Export Plug-In  -->
<svg version="1.1"
	 xmlns="http://www.w3.org/2000/svg" xmlns:xlink="http://www.w3.org/1999/xlink" xmlns:a="http://ns.adobe.com/AdobeSVGViewerExtensions/3.0/"
	 x="0px" y="0px" width="1432.4px" height="459.6px" viewBox="0 0 1432.4 459.6"
	 style="overflow:scroll;enable-background:new 0 0 1432.4 459.6;" xml:space="preserve">
<style type="text/css">
	.st0{fill:#4AC2C6;}
	.st1{fill:#5FA787;}
	.st2{fill:#80AD78;}
	.st3{fill:#7C6D88;}
	.st4{fill:#AAC9A5;}
	.st5{fill:#6ABB98;}
	.st6{fill:#46929B;}
	.st7{fill:#4B9DA8;}
	.st8{fill:none;stroke:#4B9DA8;stroke-width:0.6;stroke-miterlimit:10;}
	.st9{fill:none;stroke:#4B9DA8;stroke-width:0.2;stroke-miterlimit:10;}
	.st10{fill:#90D4D6;}
	.st11{fill:#2B98B8;stroke:#99CCCC;stroke-width:0.3;stroke-miterlimit:10;}
	.st12{fill:#618586;}
	.st13{fill:#AF7E8F;}
	.st14{fill:#AB7487;}
	.st15{fill:#CF836B;}
	.st16{fill:#C77961;}
	.st17{fill:#4FA7B2;}
	.st18{fill:none;stroke:#C77961;stroke-width:3;stroke-miterlimit:10;stroke-dasharray:9,4;}
	.st19{fill:#53AEB9;}
	.st20{fill:#5CB4BF;}
	.st21{fill:#5488B8;}
	.st22{fill:#5480A6;}
	.st23{fill:#7980A8;}
	.st24{fill:none;stroke:#A79B98;stroke-width:5;stroke-miterlimit:10;}
	.st25{fill:none;stroke:#A79B98;stroke-width:5;stroke-miterlimit:10;stroke-dasharray:23.6462,4.504;}
	.st26{fill:none;stroke:#A79B98;stroke-width:5;stroke-miterlimit:10;stroke-dasharray:18.3205,3.4896;}
	.st27{fill:none;stroke:#A79B98;stroke-width:5;stroke-miterlimit:10;stroke-dasharray:18.5894,3.5408;}
	.st28{fill:none;stroke:#A79B98;stroke-width:5;stroke-miterlimit:10;stroke-dasharray:19.094,3.637;}
	.st29{fill:none;stroke:#A79B98;stroke-width:5;stroke-miterlimit:10;stroke-dasharray:22.0782,4.2054;}
	.st30{fill:none;stroke:#A79B98;stroke-width:5;stroke-miterlimit:10;stroke-dasharray:18.2117,3.4689;}
	.st31{fill:none;stroke:#A79B98;stroke-width:5;stroke-miterlimit:10;stroke-dasharray:19.9808,3.8059;}
	.st32{fill:none;stroke:#A79B98;stroke-width:5;stroke-miterlimit:10;stroke-dasharray:21.2636,4.0502;}
	.st33{fill:none;stroke:#A79B98;stroke-width:5;stroke-miterlimit:10;stroke-dasharray:19.8085,3.773;}
	.st34{fill:#6C97BA;stroke:#2997B8;stroke-miterlimit:10;}
	.st35{fill:#6C97BA;}
	.st36{fill:none;stroke:#2A97B8;stroke-miterlimit:10;}
	.st37{fill:#389699;}
	.st38{fill:none;stroke:#75968C;stroke-width:13;stroke-miterlimit:10;stroke-dasharray:21,4;}
	.st39{fill:none;stroke:#7C6D88;stroke-width:4;stroke-linecap:round;stroke-miterlimit:10;}
	.st40{fill:#669F81;}
	.st41{fill:#6A9075;}
	.st42{fill:#77A183;}
	.st43{fill:#6C9368;}
	.st44{fill:#76A071;}
	.st45{fill:#4D8C71;}
	.st46{fill:#5E9D6F;}
	.st47{fill:#D9D9D9;}
	.st48{fill:#D1D1D1;}
	.st49{fill:#CFCFCF;}
	.st50{fill:none;stroke:#E1D2AB;stroke-width:5;stroke-miterlimit:10;}
	.st51{fill:none;stroke:#E1D2AB;stroke-width:5;stroke-miterlimit:10;stroke-dasharray:15.2576,2.9062;}
	.st52{fill:#E1D1AB;}
	.st53{fill:#E3CA91;}
	.st54{fill:#CAB37F;}
	.st55{fill:#B7A273;}
	.st56{fill:#50AAB6;}
	.st57{fill:#2D829C;}
	.st58{fill:none;stroke:#2E829C;stroke-width:2;stroke-miterlimit:10;}
	.st59{fill:none;stroke:#318C8F;stroke-width:2;stroke-miterlimit:10;}
	.st60{fill:none;stroke:#A5DFF9;stroke-miterlimit:10;}
</style>
<defs>
</defs>
<g>
	<rect x="0.1" class="st0" width="1432.1" height="459.6"/>
	<path class="st1" d="M1430.1,385.1l-180.7-40.4c0,0-38.7-15.6-110,3.4c-55.5,14.9-77.2,19.4-77.2,19.4L1430.1,385.1z"/>
	<path class="st2" d="M1432.2,382.8c0,0-384.4-42.3-462.4-49.1s-417-4.8-417-4.8L5.4,373.9v84.7l1426.7,1V382.8z"/>
	<g>
		<rect x="549.1" y="322.8" class="st3" width="3.1" height="26.8"/>
		<rect x="551.3" y="291" class="st3" width="1.6" height="20.7"/>
		<rect x="516.8" y="291" class="st3" width="1.6" height="20.7"/>
		<rect x="481.7" y="291" class="st3" width="1.6" height="20.7"/>
		<rect x="445.1" y="291" class="st3" width="1.6" height="20.7"/>
		<rect x="410.6" y="291" class="st3" width="1.6" height="20.7"/>
		<rect x="375.5" y="291" class="st3" width="1.6" height="20.7"/>
		<rect x="337.5" y="291" class="st3" width="1.6" height="20.7"/>
		<rect x="303.1" y="291" class="st3" width="1.6" height="20.7"/>
		<rect x="267.9" y="291" class="st3" width="1.6" height="20.7"/>
		<rect x="231.3" y="291" class="st3" width="1.6" height="20.7"/>
		<rect x="196.9" y="291" class="st3" width="1.6" height="20.7"/>
		<rect x="161.7" y="291" class="st3" width="1.6" height="20.7"/>
		<rect x="127.9" y="291" class="st3" width="1.6" height="20.7"/>
		<rect x="91.4" y="291" class="st3" width="1.6" height="20.7"/>
		<rect x="56.9" y="291" class="st3" width="1.6" height="20.7"/>
		<rect x="21.7" y="291" class="st3" width="1.6" height="20.7"/>
		<rect x="452.6" y="322.8" class="st3" width="3.1" height="26.8"/>
		<rect x="365" y="322.8" class="st3" width="3.1" height="27.8"/>
		<rect x="268.5" y="322.8" class="st3" width="3.1" height="45"/>
		<rect x="182.3" y="322.8" class="st3" width="3.1" height="45"/>
		<rect x="85.8" y="322.8" class="st3" width="3.1" height="45"/>
		<rect y="310.3" class="st3" width="558.8" height="12.5"/>
		<rect y="289.3" class="st3" width="558.8" height="2.1"/>
	</g>
	<path class="st4" d="M1432.2,438.6c0,0-247.5-54.5-369.9-60.6c-122.4-6.1-317.4,2.5-317.4,2.5l-108-42.9h-51l131.2,53.6l0,28
		c0,0,188.6-14.7,345.2-12.8c180.6,21.4,320.2,53.1,320.2,53.1h49.7V438.6z"/>
	<path class="st5" d="M1167,354.4l-137.1-56.8c0,0-39-11.7-78,0c-60,23.8-130.6,42.5-130.6,42.5L1167,354.4z"/>
	<path class="st5" d="M894.9,351.8l-137.1-99.1c0,0-39-20.4-78,0c-60,41.6-130.6,74.2-130.6,74.2L894.9,351.8z"/>
	<g>
		<g>
			<rect x="608.5" y="311.4" class="st6" width="32" height="119.5"/>
			<rect x="608.5" y="251.1" class="st6" width="25.2" height="82.6"/>
			<rect x="608.5" y="199.7" class="st6" width="19.5" height="75.9"/>
			<rect x="608.5" y="149.4" class="st6" width="12.6" height="74.6"/>
			<rect x="608.5" y="122.2" class="st6" width="6.3" height="36.6"/>
		</g>
		<rect x="608.5" y="106" class="st6" width="1.5" height="22"/>
	</g>
	<g>
		<g>
			<rect x="228.4" y="317.7" class="st7" width="855.8" height="14.4"/>
			<g>
				<g>
					<polygon class="st7" points="647.9,240.2 650.9,240.2 650.3,241.8 650.9,243.4 650.5,244.7 650.9,245.5 650.9,322.2 
						647.9,322.2 647.9,245.5 648.3,244.7 647.9,243.4 648.5,241.8 					"/>
					<circle class="st7" cx="649.4" cy="237.6" r="3.2"/>
					<polygon class="st7" points="646.2,237.6 648.2,233.7 649.1,230.3 649.4,225.3 649.7,230.3 650.6,233.7 652.6,237.6 					"/>
				</g>
				<g>
					<path class="st8" d="M650.9,237.6c0,0,65.7,71.8,139.4,80.6"/>
					<g>
						<path class="st9" d="M648.9,243.6c0,0,65.7,71.8,139.4,80.6"/>
						<path class="st9" d="M649.1,257.1c0,0,53.8,58.7,114.1,66"/>
						<path class="st9" d="M648.1,269.1c0,0,45,49.1,95.4,55.2"/>
						<path class="st9" d="M648.1,282.1c0,0,34.9,38.1,74.1,42.9"/>
						<path class="st9" d="M649.1,297.1c0,0,25.2,27.5,53.4,30.9"/>
					</g>
				</g>
				<g>
					<path class="st8" d="M646.2,237.6c0,0-65.7,71.8-139.4,80.6"/>
					<g>
						<path class="st9" d="M648.5,243.6c0,0-65.7,71.8-139.4,80.6"/>
						<path class="st9" d="M648.2,257.1c0,0-53.8,58.7-114.1,66"/>
						<path class="st9" d="M649.2,269.1c0,0-45,49.1-95.4,55.2"/>
						<path class="st9" d="M649.2,282.1c0,0-34.9,38.1-74.1,42.9"/>
						<path class="st9" d="M648.2,297.1c0,0-25.2,27.5-53.4,30.9"/>
					</g>
				</g>
			</g>
			<g>
				<g>
					<polygon class="st7" points="940.4,240.2 943.4,240.2 942.8,241.8 943.4,243.4 943.1,244.7 943.4,245.5 943.4,322.2 
						940.4,322.2 940.4,245.5 940.8,244.7 940.4,243.4 941,241.8 					"/>
					<circle class="st7" cx="941.9" cy="237.6" r="3.2"/>
					<polygon class="st7" points="938.8,237.6 940.8,233.7 941.6,230.3 941.9,225.3 942.2,230.3 943.1,233.7 945.1,237.6 					"/>
				</g>
				<g>
					<path class="st8" d="M943.4,237.6c0,0,65.7,71.8,139.4,80.6"/>
					<g>
						<path class="st9" d="M941.4,243.6c0,0,65.7,71.8,139.4,80.6"/>
						<path class="st9" d="M941.6,257.1c0,0,53.8,58.7,114.1,66"/>
						<path class="st9" d="M940.6,269.1c0,0,45,49.1,95.4,55.2"/>
						<path class="st9" d="M940.6,282.1c0,0,34.9,38.1,74.1,42.9"/>
						<path class="st9" d="M941.6,297.1c0,0,25.2,27.5,53.4,30.9"/>
					</g>
				</g>
				<g>
					<path class="st8" d="M938.8,237.6c0,0-65.7,71.8-139.4,80.6"/>
					<g>
						<path class="st9" d="M941,243.6c0,0-65.7,71.8-139.4,80.6"/>
						<path class="st9" d="M940.8,257.1c0,0-53.8,58.7-114.1,66"/>
						<path class="st9" d="M941.8,269.1c0,0-45,49.1-95.4,55.2"/>
						<path class="st9" d="M941.8,282.1c0,0-34.9,38.1-74.1,42.9"/>
						<path class="st9" d="M940.8,297.1c0,0-25.2,27.5-53.4,30.9"/>
					</g>
				</g>
			</g>
			<g>
				<g>
					<polygon class="st7" points="370.4,240.2 373.4,240.2 372.8,241.8 373.4,243.4 373.1,244.7 373.4,245.5 373.4,322.2 
						370.4,322.2 370.4,245.5 370.8,244.7 370.4,243.4 371,241.8 					"/>
					<circle class="st7" cx="371.9" cy="237.6" r="3.2"/>
					<polygon class="st7" points="368.8,237.6 370.8,233.7 371.6,230.3 371.9,225.3 372.2,230.3 373.1,233.7 375.1,237.6 					"/>
				</g>
				<g>
					<path class="st8" d="M373.4,237.6c0,0,65.7,71.8,139.4,80.6"/>
					<g>
						<path class="st9" d="M371.4,243.6c0,0,65.7,71.8,139.4,80.6"/>
						<path class="st9" d="M371.6,257.1c0,0,53.8,58.7,114.1,66"/>
						<path class="st9" d="M370.6,269.1c0,0,45,49.1,95.4,55.2"/>
						<path class="st9" d="M370.6,282.1c0,0,34.9,38.1,74.1,42.9"/>
						<path class="st9" d="M371.6,297.1c0,0,25.2,27.5,53.4,30.9"/>
					</g>
				</g>
				<g>
					<path class="st8" d="M368.8,237.6c0,0-65.7,71.8-139.4,80.6"/>
					<g>
						<path class="st9" d="M371,243.6c0,0-65.7,71.8-139.4,80.6"/>
						<path class="st9" d="M370.8,257.1c0,0-53.8,58.7-114.1,66"/>
						<path class="st9" d="M371.8,269.1c0,0-45,49.1-95.4,55.2"/>
						<path class="st9" d="M371.8,282.1c0,0-34.9,38.1-74.1,42.9"/>
						<path class="st9" d="M370.8,297.1c0,0-25.2,27.5-53.4,30.9"/>
					</g>
				</g>
			</g>
		</g>
		<g>
			<rect x="1075.2" y="328" class="st7" width="2.8" height="91.3"/>
			<rect x="1064.2" y="328" class="st7" width="2.8" height="91.3"/>
			<g>
				<g>
					
						<rect x="1063.6" y="334.4" transform="matrix(0.8759 0.4824 -0.4824 0.8759 294.5301 -475.1318)" class="st7" width="15" height="1.3"/>
					
						<rect x="1063.6" y="344.4" transform="matrix(0.8759 0.4824 -0.4824 0.8759 299.3542 -473.8913)" class="st7" width="15" height="1.3"/>
					
						<rect x="1063.6" y="354.4" transform="matrix(0.8759 0.4824 -0.4824 0.8759 304.1782 -472.6508)" class="st7" width="15" height="1.3"/>
					
						<rect x="1063.6" y="364.4" transform="matrix(0.8759 0.4824 -0.4824 0.8759 309.0023 -471.4103)" class="st7" width="15" height="1.3"/>
					
						<rect x="1063.6" y="374.4" transform="matrix(0.8759 0.4824 -0.4824 0.8759 313.8263 -470.1697)" class="st7" width="15" height="1.3"/>
					
						<rect x="1063.6" y="384.4" transform="matrix(0.8759 0.4824 -0.4824 0.8759 318.6504 -468.9292)" class="st7" width="15" height="1.3"/>
					
						<rect x="1063.6" y="394.4" transform="matrix(0.8759 0.4824 -0.4824 0.8759 323.4745 -467.6887)" class="st7" width="15" height="1.3"/>
					
						<rect x="1063.6" y="404.4" transform="matrix(0.8759 0.4824 -0.4824 0.8759 328.2985 -466.4482)" class="st7" width="15" height="1.3"/>
					
						<rect x="1063.6" y="414.4" transform="matrix(0.8759 0.4824 -0.4824 0.8759 333.1226 -465.2076)" class="st7" width="15" height="1.3"/>
				</g>
				<g>
					
						<rect x="1063.6" y="334.4" transform="matrix(-0.8759 0.4824 -0.4824 -0.8759 2170.9771 111.9431)" class="st7" width="15" height="1.3"/>
					
						<rect x="1063.6" y="344.4" transform="matrix(-0.8759 0.4824 -0.4824 -0.8759 2175.801 130.7025)" class="st7" width="15" height="1.3"/>
					
						<rect x="1063.6" y="354.4" transform="matrix(-0.8759 0.4824 -0.4824 -0.8759 2180.6252 149.462)" class="st7" width="15" height="1.3"/>
					
						<rect x="1063.6" y="364.4" transform="matrix(-0.8759 0.4824 -0.4824 -0.8759 2185.4492 168.2215)" class="st7" width="15" height="1.3"/>
					
						<rect x="1063.6" y="374.4" transform="matrix(-0.8759 0.4824 -0.4824 -0.8759 2190.2732 186.981)" class="st7" width="15" height="1.3"/>
					
						<rect x="1063.6" y="384.4" transform="matrix(-0.8759 0.4824 -0.4824 -0.8759 2195.0974 205.7405)" class="st7" width="15" height="1.3"/>
					
						<rect x="1063.6" y="394.4" transform="matrix(-0.8759 0.4824 -0.4824 -0.8759 2199.9214 224.4999)" class="st7" width="15" height="1.3"/>
					
						<rect x="1063.6" y="404.4" transform="matrix(-0.8759 0.4824 -0.4824 -0.8759 2204.7454 243.2594)" class="st7" width="15" height="1.3"/>
					
						<rect x="1063.6" y="414.4" transform="matrix(-0.8759 0.4824 -0.4824 -0.8759 2209.5696 262.0189)" class="st7" width="15" height="1.3"/>
				</g>
			</g>
		</g>
		<g>
			<rect x="795.2" y="328" class="st7" width="2.8" height="91.3"/>
			<rect x="784.2" y="328" class="st7" width="2.8" height="91.3"/>
			<g>
				<g>
					
						<rect x="783.6" y="334.4" transform="matrix(0.8759 0.4824 -0.4824 0.8759 259.7955 -340.0582)" class="st7" width="15" height="1.3"/>
					
						<rect x="783.6" y="344.4" transform="matrix(0.8759 0.4824 -0.4824 0.8759 264.6195 -338.8176)" class="st7" width="15" height="1.3"/>
					
						<rect x="783.6" y="354.4" transform="matrix(0.8759 0.4824 -0.4824 0.8759 269.4436 -337.5771)" class="st7" width="15" height="1.3"/>
					
						<rect x="783.6" y="364.4" transform="matrix(0.8759 0.4824 -0.4824 0.8759 274.2676 -336.3366)" class="st7" width="15" height="1.3"/>
					
						<rect x="783.6" y="374.4" transform="matrix(0.8759 0.4824 -0.4824 0.8759 279.0917 -335.0961)" class="st7" width="15" height="1.3"/>
					
						<rect x="783.6" y="384.4" transform="matrix(0.8759 0.4824 -0.4824 0.8759 283.9158 -333.8555)" class="st7" width="15" height="1.3"/>
					
						<rect x="783.6" y="394.4" transform="matrix(0.8759 0.4824 -0.4824 0.8759 288.7398 -332.615)" class="st7" width="15" height="1.3"/>
					
						<rect x="783.6" y="404.4" transform="matrix(0.8759 0.4824 -0.4824 0.8759 293.5639 -331.3745)" class="st7" width="15" height="1.3"/>
					
						<rect x="783.6" y="414.4" transform="matrix(0.8759 0.4824 -0.4824 0.8759 298.3879 -330.134)" class="st7" width="15" height="1.3"/>
				</g>
				<g>
					
						<rect x="783.6" y="334.4" transform="matrix(-0.8759 0.4824 -0.4824 -0.8759 1645.7117 247.0168)" class="st7" width="15" height="1.3"/>
					
						<rect x="783.6" y="344.4" transform="matrix(-0.8759 0.4824 -0.4824 -0.8759 1650.5358 265.7762)" class="st7" width="15" height="1.3"/>
					
						<rect x="783.6" y="354.4" transform="matrix(-0.8759 0.4824 -0.4824 -0.8759 1655.3599 284.5357)" class="st7" width="15" height="1.3"/>
					
						<rect x="783.6" y="364.4" transform="matrix(-0.8759 0.4824 -0.4824 -0.8759 1660.1838 303.2952)" class="st7" width="15" height="1.3"/>
					
						<rect x="783.6" y="374.4" transform="matrix(-0.8759 0.4824 -0.4824 -0.8759 1665.0079 322.0547)" class="st7" width="15" height="1.3"/>
					
						<rect x="783.6" y="384.4" transform="matrix(-0.8759 0.4824 -0.4824 -0.8759 1669.832 340.8141)" class="st7" width="15" height="1.3"/>
					
						<rect x="783.6" y="394.4" transform="matrix(-0.8759 0.4824 -0.4824 -0.8759 1674.656 359.5736)" class="st7" width="15" height="1.3"/>
					
						<rect x="783.6" y="404.4" transform="matrix(-0.8759 0.4824 -0.4824 -0.8759 1679.4801 378.3331)" class="st7" width="15" height="1.3"/>
					
						<rect x="783.6" y="414.4" transform="matrix(-0.8759 0.4824 -0.4824 -0.8759 1684.3042 397.0926)" class="st7" width="15" height="1.3"/>
				</g>
			</g>
		</g>
		<g>
			<rect x="506.2" y="328" class="st7" width="2.8" height="91.3"/>
			<rect x="495.2" y="328" class="st7" width="2.8" height="91.3"/>
			<g>
				<g>
					
						<rect x="494.6" y="334.4" transform="matrix(0.8759 0.4824 -0.4824 0.8759 223.9444 -200.6428)" class="st7" width="15" height="1.3"/>
					
						<rect x="494.6" y="344.4" transform="matrix(0.8759 0.4824 -0.4824 0.8759 228.7684 -199.4023)" class="st7" width="15" height="1.3"/>
					
						<rect x="494.6" y="354.4" transform="matrix(0.8759 0.4824 -0.4824 0.8759 233.5925 -198.1618)" class="st7" width="15" height="1.3"/>
					
						<rect x="494.6" y="364.4" transform="matrix(0.8759 0.4824 -0.4824 0.8759 238.4165 -196.9212)" class="st7" width="15" height="1.3"/>
					
						<rect x="494.6" y="374.4" transform="matrix(0.8759 0.4824 -0.4824 0.8759 243.2406 -195.6807)" class="st7" width="15" height="1.3"/>
					
						<rect x="494.6" y="384.4" transform="matrix(0.8759 0.4824 -0.4824 0.8759 248.0647 -194.4402)" class="st7" width="15" height="1.3"/>
					
						<rect x="494.6" y="394.4" transform="matrix(0.8759 0.4824 -0.4824 0.8759 252.8887 -193.1997)" class="st7" width="15" height="1.3"/>
					
						<rect x="494.6" y="404.4" transform="matrix(0.8759 0.4824 -0.4824 0.8759 257.7128 -191.9592)" class="st7" width="15" height="1.3"/>
					
						<rect x="494.6" y="414.4" transform="matrix(0.8759 0.4824 -0.4824 0.8759 262.5368 -190.7186)" class="st7" width="15" height="1.3"/>
				</g>
				<g>
					
						<rect x="494.6" y="334.4" transform="matrix(-0.8759 0.4824 -0.4824 -0.8759 1103.5627 386.4321)" class="st7" width="15" height="1.3"/>
					
						<rect x="494.6" y="344.4" transform="matrix(-0.8759 0.4824 -0.4824 -0.8759 1108.3868 405.1916)" class="st7" width="15" height="1.3"/>
					
						<rect x="494.6" y="354.4" transform="matrix(-0.8759 0.4824 -0.4824 -0.8759 1113.2109 423.951)" class="st7" width="15" height="1.3"/>
					
						<rect x="494.6" y="364.4" transform="matrix(-0.8759 0.4824 -0.4824 -0.8759 1118.0349 442.7105)" class="st7" width="15" height="1.3"/>
					
						<rect x="494.6" y="374.4" transform="matrix(-0.8759 0.4824 -0.4824 -0.8759 1122.859 461.47)" class="st7" width="15" height="1.3"/>
					
						<rect x="494.6" y="384.4" transform="matrix(-0.8759 0.4824 -0.4824 -0.8759 1127.6831 480.2295)" class="st7" width="15" height="1.3"/>
					
						<rect x="494.6" y="394.4" transform="matrix(-0.8759 0.4824 -0.4824 -0.8759 1132.5072 498.989)" class="st7" width="15" height="1.3"/>
					
						<rect x="494.6" y="404.4" transform="matrix(-0.8759 0.4824 -0.4824 -0.8759 1137.3312 517.7484)" class="st7" width="15" height="1.3"/>
					
						<rect x="494.6" y="414.4" transform="matrix(-0.8759 0.4824 -0.4824 -0.8759 1142.1553 536.5079)" class="st7" width="15" height="1.3"/>
				</g>
			</g>
		</g>
		<g>
			<rect x="244.2" y="328" class="st7" width="2.8" height="91.3"/>
			<rect x="233.2" y="328" class="st7" width="2.8" height="91.3"/>
			<g>
				<g>
					
						<rect x="232.6" y="334.4" transform="matrix(0.8759 0.4824 -0.4824 0.8759 191.4427 -74.2524)" class="st7" width="15" height="1.3"/>
					
						<rect x="232.6" y="344.4" transform="matrix(0.8759 0.4824 -0.4824 0.8759 196.2667 -73.0119)" class="st7" width="15" height="1.3"/>
					
						<rect x="232.6" y="354.4" transform="matrix(0.8759 0.4824 -0.4824 0.8759 201.0908 -71.7714)" class="st7" width="15" height="1.3"/>
					
						<rect x="232.6" y="364.4" transform="matrix(0.8759 0.4824 -0.4824 0.8759 205.9148 -70.5309)" class="st7" width="15" height="1.3"/>
					
						<rect x="232.6" y="374.4" transform="matrix(0.8759 0.4824 -0.4824 0.8759 210.7389 -69.2904)" class="st7" width="15" height="1.3"/>
					
						<rect x="232.6" y="384.4" transform="matrix(0.8759 0.4824 -0.4824 0.8759 215.563 -68.0498)" class="st7" width="15" height="1.3"/>
					
						<rect x="232.6" y="394.4" transform="matrix(0.8759 0.4824 -0.4824 0.8759 220.387 -66.8093)" class="st7" width="15" height="1.3"/>
					
						<rect x="232.6" y="404.4" transform="matrix(0.8759 0.4824 -0.4824 0.8759 225.2111 -65.5688)" class="st7" width="15" height="1.3"/>
					
						<rect x="232.6" y="414.4" transform="matrix(0.8759 0.4824 -0.4824 0.8759 230.0351 -64.3283)" class="st7" width="15" height="1.3"/>
				</g>
				<g>
					
						<rect x="232.6" y="334.4" transform="matrix(-0.8759 0.4824 -0.4824 -0.8759 612.0645 512.8224)" class="st7" width="15" height="1.3"/>
					
						<rect x="232.6" y="344.4" transform="matrix(-0.8759 0.4824 -0.4824 -0.8759 616.8885 531.5819)" class="st7" width="15" height="1.3"/>
					
						<rect x="232.6" y="354.4" transform="matrix(-0.8759 0.4824 -0.4824 -0.8759 621.7126 550.3414)" class="st7" width="15" height="1.3"/>
					
						<rect x="232.6" y="364.4" transform="matrix(-0.8759 0.4824 -0.4824 -0.8759 626.5367 569.1009)" class="st7" width="15" height="1.3"/>
					
						<rect x="232.6" y="374.4" transform="matrix(-0.8759 0.4824 -0.4824 -0.8759 631.3607 587.8604)" class="st7" width="15" height="1.3"/>
					
						<rect x="232.6" y="384.4" transform="matrix(-0.8759 0.4824 -0.4824 -0.8759 636.1848 606.6199)" class="st7" width="15" height="1.3"/>
					
						<rect x="232.6" y="394.4" transform="matrix(-0.8759 0.4824 -0.4824 -0.8759 641.0089 625.3793)" class="st7" width="15" height="1.3"/>
					
						<rect x="232.6" y="404.4" transform="matrix(-0.8759 0.4824 -0.4824 -0.8759 645.8329 644.1388)" class="st7" width="15" height="1.3"/>
					
						<rect x="232.6" y="414.4" transform="matrix(-0.8759 0.4824 -0.4824 -0.8759 650.657 662.8983)" class="st7" width="15" height="1.3"/>
				</g>
			</g>
		</g>
	</g>
	<rect x="1084.4" y="317.7" class="st7" width="345.7" height="14.4"/>
	<path class="st8" d="M1432.2,291.3c0,0-21,19.7-69.3,26.9"/>
	<path class="st9" d="M1432.2,300.4c0,0-19.6,17.7-67.1,23.8"/>
	<path class="st9" d="M1432.2,308.6c0,0-10.6,9.5-42,14.4"/>
	<g>
		<g>
			<polygon class="st7" points="1226.4,240.2 1229.4,240.2 1228.8,241.8 1229.4,243.4 1229.1,244.7 1229.4,245.5 1229.4,322.2 
				1226.4,322.2 1226.4,245.5 1226.8,244.7 1226.4,243.4 1227,241.8 			"/>
			<circle class="st7" cx="1227.9" cy="237.6" r="3.2"/>
			<polygon class="st7" points="1224.8,237.6 1226.8,233.7 1227.6,230.3 1227.9,225.3 1228.2,230.3 1229.1,233.7 1231.1,237.6 			
				"/>
		</g>
		<g>
			<path class="st8" d="M1229.4,237.6c0,0,65.7,71.8,139.4,80.6"/>
			<g>
				<path class="st9" d="M1227.4,243.6c0,0,65.7,71.8,139.4,80.6"/>
				<path class="st9" d="M1227.6,257.1c0,0,53.8,58.7,114.1,66"/>
				<path class="st9" d="M1226.6,269.1c0,0,45,49.1,95.4,55.2"/>
				<path class="st9" d="M1226.6,282.1c0,0,34.9,38.1,74.1,42.9"/>
				<path class="st9" d="M1227.6,297.1c0,0,25.2,27.5,53.4,30.9"/>
			</g>
		</g>
		<g>
			<path class="st8" d="M1224.8,237.6c0,0-65.7,71.8-139.4,80.6"/>
			<g>
				<path class="st9" d="M1227,243.6c0,0-65.7,71.8-139.4,80.6"/>
				<path class="st9" d="M1226.8,257.1c0,0-53.8,58.7-114.1,66"/>
				<path class="st9" d="M1227.8,269.1c0,0-45,49.1-95.4,55.2"/>
				<path class="st9" d="M1227.8,282.1c0,0-34.9,38.1-74.1,42.9"/>
				<path class="st9" d="M1226.8,297.1c0,0-25.2,27.5-53.4,30.9"/>
			</g>
		</g>
	</g>
	<g>
		<rect x="1362.2" y="328" class="st7" width="2.8" height="91.3"/>
		<rect x="1351.2" y="328" class="st7" width="2.8" height="91.3"/>
		<g>
			<g>
				
					<rect x="1350.6" y="334.4" transform="matrix(0.8759 0.4824 -0.4824 0.8759 330.1331 -613.5823)" class="st7" width="15" height="1.3"/>
				
					<rect x="1350.6" y="344.4" transform="matrix(0.8759 0.4824 -0.4824 0.8759 334.9572 -612.3419)" class="st7" width="15" height="1.3"/>
				
					<rect x="1350.6" y="354.4" transform="matrix(0.8759 0.4824 -0.4824 0.8759 339.7812 -611.1013)" class="st7" width="15" height="1.3"/>
				
					<rect x="1350.6" y="364.4" transform="matrix(0.8759 0.4824 -0.4824 0.8759 344.6053 -609.8608)" class="st7" width="15" height="1.3"/>
				
					<rect x="1350.6" y="374.4" transform="matrix(0.8759 0.4824 -0.4824 0.8759 349.4293 -608.6202)" class="st7" width="15" height="1.3"/>
				
					<rect x="1350.6" y="384.4" transform="matrix(0.8759 0.4824 -0.4824 0.8759 354.2534 -607.3798)" class="st7" width="15" height="1.3"/>
				
					<rect x="1350.6" y="394.4" transform="matrix(0.8759 0.4824 -0.4824 0.8759 359.0775 -606.1392)" class="st7" width="15" height="1.3"/>
				
					<rect x="1350.6" y="404.4" transform="matrix(0.8759 0.4824 -0.4824 0.8759 363.9015 -604.8987)" class="st7" width="15" height="1.3"/>
				
					<rect x="1350.6" y="414.4" transform="matrix(0.8759 0.4824 -0.4824 0.8759 368.7256 -603.6582)" class="st7" width="15" height="1.3"/>
			</g>
			<g>
				
					<rect x="1350.6" y="334.4" transform="matrix(-0.8759 0.4824 -0.4824 -0.8759 2709.374 -26.5075)" class="st7" width="15" height="1.3"/>
				
					<rect x="1350.6" y="344.4" transform="matrix(-0.8759 0.4824 -0.4824 -0.8759 2714.1982 -7.748)" class="st7" width="15" height="1.3"/>
				
					<rect x="1350.6" y="354.4" transform="matrix(-0.8759 0.4824 -0.4824 -0.8759 2719.0222 11.0115)" class="st7" width="15" height="1.3"/>
				
					<rect x="1350.6" y="364.4" transform="matrix(-0.8759 0.4824 -0.4824 -0.8759 2723.8462 29.771)" class="st7" width="15" height="1.3"/>
				
					<rect x="1350.6" y="374.4" transform="matrix(-0.8759 0.4824 -0.4824 -0.8759 2728.6704 48.5305)" class="st7" width="15" height="1.3"/>
				
					<rect x="1350.6" y="384.4" transform="matrix(-0.8759 0.4824 -0.4824 -0.8759 2733.4944 67.2899)" class="st7" width="15" height="1.3"/>
				
					<rect x="1350.6" y="394.4" transform="matrix(-0.8759 0.4824 -0.4824 -0.8759 2738.3184 86.0494)" class="st7" width="15" height="1.3"/>
				
					<rect x="1350.6" y="404.4" transform="matrix(-0.8759 0.4824 -0.4824 -0.8759 2743.1426 104.8089)" class="st7" width="15" height="1.3"/>
				
					<rect x="1350.6" y="414.4" transform="matrix(-0.8759 0.4824 -0.4824 -0.8759 2747.9666 123.5684)" class="st7" width="15" height="1.3"/>
			</g>
		</g>
	</g>
	<path class="st10" d="M422.9,339.3c0,0,115-1.7,147.9,34.5c22.4,24.7,18,44.8,0,84.7c-108,0-570.8,1-570.8,1V344.5
		C0.1,344.5,371.6,343.6,422.9,339.3z"/>
	<g>
		<rect x="353.2" y="264.2" class="st11" width="112" height="12.8"/>
		<polygon class="st11" points="411.4,280.5 353.2,302.4 353.2,297.8 410.3,277.4 		"/>
		
			<rect x="403.4" y="290.7" transform="matrix(-0.942 -0.3355 0.3355 -0.942 765.5162 716.9443)" class="st11" width="82.7" height="3.3"/>
		<rect x="403.4" y="264.2" class="st11" width="9.8" height="17.2"/>
		<rect x="353.2" y="257.9" class="st11" width="112" height="6.2"/>
		<rect x="353.2" y="276.9" class="st11" width="112" height="4.5"/>
		<g>
			<rect x="301.2" y="84.7" class="st11" width="24.4" height="23.3"/>
			<rect x="295" y="107.7" class="st11" width="36.9" height="26"/>
			<rect x="287.8" y="133.6" class="st11" width="51.1" height="34.2"/>
			<rect x="280.1" y="174.1" class="st11" width="66.6" height="48.2"/>
			<rect x="273.6" y="222" class="st11" width="79.7" height="227.3"/>
			<polyline class="st11" points="301.1,84.9 313.3,72.1 325.7,84.6 301.1,84.6 			"/>
			<polyline class="st11" points="313.6,64.1 313.6,26.6 311.5,64.1 313.6,64.1 			"/>
			<polyline class="st11" points="313.6,64.1 313.6,26.6 315.6,64.1 313.6,64.1 			"/>
			<rect x="273.6" y="441.9" class="st11" width="79.7" height="16.4"/>
			<rect x="273.6" y="430.7" class="st11" width="79.7" height="6.1"/>
			<rect x="273.6" y="418.8" class="st11" width="79.7" height="6.1"/>
			<rect x="273.6" y="406.8" class="st11" width="79.7" height="6.1"/>
			<rect x="273.6" y="394.9" class="st11" width="79.7" height="6.1"/>
			<rect x="273.6" y="382.9" class="st11" width="79.7" height="6.1"/>
			<rect x="273.6" y="371" class="st11" width="79.7" height="6.1"/>
			<rect x="273.6" y="359" class="st11" width="79.7" height="6.1"/>
			<rect x="273.6" y="347.1" class="st11" width="79.7" height="6.1"/>
			<rect x="273.6" y="335.2" class="st11" width="79.7" height="6.1"/>
			<rect x="273.6" y="323.2" class="st11" width="79.7" height="6.1"/>
			<rect x="273.6" y="311.3" class="st11" width="79.7" height="6.1"/>
			<rect x="273.6" y="299.3" class="st11" width="79.7" height="6.1"/>
			<rect x="273.6" y="287.4" class="st11" width="79.7" height="6.1"/>
			<rect x="273.6" y="275.4" class="st11" width="79.7" height="6.1"/>
			<rect x="273.6" y="263.5" class="st11" width="79.7" height="6.1"/>
			<rect x="273.6" y="251.6" class="st11" width="79.7" height="6.1"/>
			<rect x="273.6" y="239.6" class="st11" width="79.7" height="6.1"/>
			<rect x="273.6" y="227.7" class="st11" width="79.7" height="6.1"/>
			<rect x="280.2" y="203.8" class="st11" width="66.5" height="6.1"/>
			<rect x="280.2" y="191.8" class="st11" width="66.5" height="6.1"/>
			<rect x="280.2" y="179.9" class="st11" width="66.5" height="6.1"/>
			<rect x="280.2" y="168" class="st11" width="66.5" height="6.1"/>
			<rect x="287.8" y="156" class="st11" width="51.1" height="6.1"/>
			<rect x="287.8" y="144.1" class="st11" width="51.1" height="6.1"/>
			<rect x="287.8" y="133.8" class="st11" width="51.1" height="4.4"/>
			<rect x="295" y="120.2" class="st11" width="36.9" height="6.1"/>
			<rect x="295" y="108.2" class="st11" width="36.9" height="6.1"/>
			<rect x="301.3" y="96.3" class="st11" width="24.3" height="6.1"/>
			<rect x="301.3" y="84.4" class="st11" width="24.3" height="6.1"/>
			<circle class="st11" cx="313.4" cy="67.3" r="3.6"/>
		</g>
		<rect x="492.9" y="84.9" class="st11" width="24.4" height="23.3"/>
		<rect x="486.6" y="107.9" class="st11" width="36.9" height="24.2"/>
		<rect x="479.5" y="133.9" class="st11" width="51.1" height="40.4"/>
		<rect x="471.8" y="174.3" class="st11" width="66.6" height="48.2"/>
		<rect x="465.2" y="219.3" class="st11" width="79.7" height="230.3"/>
		<polyline class="st11" points="492.7,85.1 504.9,72.3 517.4,84.8 492.7,84.8 		"/>
		<polyline class="st11" points="505.2,69.9 505.2,32.5 503.2,69.9 505.2,69.9 		"/>
		<polyline class="st11" points="505.2,69.9 505.2,32.5 507.3,69.9 505.2,69.9 		"/>
		<rect x="465.2" y="442.1" class="st11" width="79.7" height="16.4"/>
		<rect x="465.2" y="430.9" class="st11" width="79.7" height="6.1"/>
		<rect x="465.2" y="419" class="st11" width="79.7" height="6.1"/>
		<rect x="465.2" y="407" class="st11" width="79.7" height="6.1"/>
		<rect x="465.2" y="395.1" class="st11" width="79.7" height="6.1"/>
		<rect x="465.2" y="383.2" class="st11" width="79.7" height="6.1"/>
		<rect x="465.2" y="371.2" class="st11" width="79.7" height="6.1"/>
		<rect x="465.2" y="359.3" class="st11" width="79.7" height="6.1"/>
		<rect x="465.2" y="347.3" class="st11" width="79.7" height="6.1"/>
		<rect x="465.2" y="335.4" class="st11" width="79.7" height="6.1"/>
		<rect x="465.2" y="323.4" class="st11" width="79.7" height="6.1"/>
		<rect x="465.2" y="311.5" class="st11" width="79.7" height="6.1"/>
		<rect x="465.2" y="299.6" class="st11" width="79.7" height="6.1"/>
		<rect x="465.2" y="287.6" class="st11" width="79.7" height="6.1"/>
		<rect x="465.2" y="275.7" class="st11" width="79.7" height="6.1"/>
		<rect x="465.2" y="263.7" class="st11" width="79.7" height="6.1"/>
		<rect x="465.2" y="251.8" class="st11" width="79.7" height="6.1"/>
		<rect x="465.2" y="239.8" class="st11" width="79.7" height="6.1"/>
		<rect x="465.2" y="227.9" class="st11" width="79.7" height="6.1"/>
		<rect x="465.2" y="216" class="st11" width="79.7" height="6.1"/>
		<rect x="471.9" y="204" class="st11" width="66.5" height="6.1"/>
		<rect x="471.9" y="192.1" class="st11" width="66.5" height="6.1"/>
		<rect x="471.9" y="168.2" class="st11" width="66.5" height="6.1"/>
		<rect x="471.9" y="180.2" class="st11" width="66.5" height="6.1"/>
		<rect x="479.5" y="156.2" class="st11" width="51.1" height="6.1"/>
		<rect x="479.5" y="144.3" class="st11" width="51.1" height="6.1"/>
		<rect x="479.5" y="132.4" class="st11" width="51.1" height="6.1"/>
		<rect x="486.6" y="120.4" class="st11" width="36.9" height="6.1"/>
		<rect x="486.6" y="108.5" class="st11" width="36.9" height="6.1"/>
		<rect x="493" y="96.5" class="st11" width="24.3" height="6.1"/>
		<rect x="493" y="84.6" class="st11" width="24.3" height="6.1"/>
		<circle class="st11" cx="505.2" cy="71.1" r="3.6"/>
		<rect x="305.3" y="335.7" class="st12" width="15.7" height="122.8"/>
		<rect x="499.3" y="335.7" class="st12" width="15.7" height="122.8"/>
		<g>
			<rect x="357.7" y="426.9" class="st11" width="52.5" height="31"/>
			<rect x="409.4" y="426.7" class="st11" width="53.5" height="30.9"/>
			<rect x="332.7" y="364.2" class="st11" width="77.5" height="10.7"/>
			<rect x="332.7" y="374.9" class="st11" width="77.5" height="8.7"/>
			<rect x="332.6" y="383.6" class="st11" width="77.5" height="8.7"/>
			<rect x="332.6" y="392.3" class="st11" width="77.5" height="8.7"/>
			<rect x="332.5" y="400.9" class="st11" width="77.5" height="8.7"/>
			<rect x="332.5" y="409.6" class="st11" width="77.5" height="8.7"/>
			<rect x="332.5" y="418.3" class="st11" width="77.5" height="8.7"/>
			<rect x="364.1" y="439.4" class="st11" width="45.1" height="5.1"/>
			<g>
				<rect x="409.1" y="374.9" class="st11" width="77.5" height="8.7"/>
				<rect x="409.2" y="392.3" class="st11" width="77.5" height="8.7"/>
				<rect x="409.3" y="409.6" class="st11" width="77.5" height="8.7"/>
			</g>
			<g>
				<rect x="409.2" y="364" class="st11" width="77.5" height="11"/>
				<rect x="409.2" y="383.4" class="st11" width="77.5" height="9"/>
				<rect x="409.3" y="400.7" class="st11" width="77.5" height="9.2"/>
				<rect x="409.3" y="418.1" class="st11" width="77.5" height="8.7"/>
			</g>
			<rect x="409.3" y="439.2" class="st11" width="47.2" height="5.1"/>
			<rect x="307.6" y="426.9" class="st11" width="50.1" height="30.9"/>
			<rect x="332.6" y="350.8" class="st11" width="5.4" height="107"/>
			<rect x="347.4" y="350.8" class="st11" width="5.4" height="107"/>
			<rect x="307.6" y="335.1" class="st11" width="50.1" height="91.9"/>
			<rect x="332.7" y="355.6" class="st11" width="77.5" height="8.6"/>
			<rect x="332.6" y="350.8" class="st11" width="77.6" height="4.8"/>
			<rect x="382.8" y="349.2" class="st11" width="5.4" height="108.7"/>
			<rect x="388.2" y="327" class="st11" width="4.5" height="37.2"/>
			<rect x="392.6" y="327" class="st11" width="4.5" height="37.2"/>
			<rect x="397.1" y="327" class="st11" width="4.5" height="37.2"/>
			<rect x="401.6" y="327" class="st11" width="4.5" height="37.2"/>
			<rect x="406.1" y="327" class="st11" width="4.5" height="37.2"/>
			<rect x="364.1" y="408.7" class="st11" width="10" height="49.1"/>
			<rect x="462.9" y="426.7" class="st11" width="50.1" height="30.9"/>
			<rect x="482.7" y="350.6" class="st11" width="5.4" height="107"/>
			<rect x="467.9" y="350.6" class="st11" width="5.4" height="107"/>
			<rect x="462.9" y="334.9" class="st11" width="50.1" height="91.9"/>
			<rect x="410.5" y="355.4" class="st11" width="77.5" height="8.6"/>
			<rect x="410.5" y="350.6" class="st11" width="77.6" height="4.8"/>
			
				<rect x="432.5" y="349" transform="matrix(-1 -1.682250e-003 1.682250e-003 -1 869.6899 807.386)" class="st11" width="5.4" height="108.6"/>
			<rect x="428" y="326.8" class="st11" width="4.5" height="37.2"/>
			<rect x="423.5" y="326.8" class="st11" width="4.5" height="37.2"/>
			<rect x="419.1" y="326.8" class="st11" width="4.5" height="37.2"/>
			<rect x="414.6" y="326.8" class="st11" width="4.5" height="37.2"/>
			<rect x="410.1" y="326.8" class="st11" width="4.5" height="37.2"/>
			<rect x="446.5" y="408.5" class="st11" width="10" height="49.1"/>
		</g>
	</g>
	<rect x="518.4" y="219.5" class="st13" width="105.8" height="239.3"/>
	<rect x="521.4" y="221.5" class="st14" width="99.4" height="4.4"/>
	<g>
		<path class="st14" d="M610.2,263.6h-14c-3.6,0-6.5-2.9-6.5-6.5v0c0-3.6,2.9-6.5,6.5-6.5h14c3.6,0,6.5,2.9,6.5,6.5v0
			C616.6,260.7,613.7,263.6,610.2,263.6z"/>
		<path class="st14" d="M577.1,263.6h-14c-3.6,0-6.5-2.9-6.5-6.5v0c0-3.6,2.9-6.5,6.5-6.5h14c3.6,0,6.5,2.9,6.5,6.5v0
			C583.5,260.7,580.6,263.6,577.1,263.6z"/>
		<path class="st14" d="M544.6,263.6h-14c-3.6,0-6.5-2.9-6.5-6.5v0c0-3.6,2.9-6.5,6.5-6.5h14c3.6,0,6.5,2.9,6.5,6.5v0
			C551.1,260.7,548.2,263.6,544.6,263.6z"/>
		<path class="st14" d="M610.2,283.1h-14c-3.6,0-6.5-2.9-6.5-6.5l0,0c0-3.6,2.9-6.5,6.5-6.5h14c3.6,0,6.5,2.9,6.5,6.5l0,0
			C616.6,280.2,613.7,283.1,610.2,283.1z"/>
		<path class="st14" d="M577.1,283.1h-14c-3.6,0-6.5-2.9-6.5-6.5l0,0c0-3.6,2.9-6.5,6.5-6.5h14c3.6,0,6.5,2.9,6.5,6.5l0,0
			C583.5,280.2,580.6,283.1,577.1,283.1z"/>
		<path class="st14" d="M544.6,283.1h-14c-3.6,0-6.5-2.9-6.5-6.5l0,0c0-3.6,2.9-6.5,6.5-6.5h14c3.6,0,6.5,2.9,6.5,6.5l0,0
			C551.1,280.2,548.2,283.1,544.6,283.1z"/>
		<path class="st14" d="M610.2,301.3h-14c-3.6,0-6.5-2.9-6.5-6.5l0,0c0-3.6,2.9-6.5,6.5-6.5h14c3.6,0,6.5,2.9,6.5,6.5l0,0
			C616.6,298.4,613.7,301.3,610.2,301.3z"/>
		<path class="st14" d="M577.1,301.3h-14c-3.6,0-6.5-2.9-6.5-6.5l0,0c0-3.6,2.9-6.5,6.5-6.5h14c3.6,0,6.5,2.9,6.5,6.5l0,0
			C583.5,298.4,580.6,301.3,577.1,301.3z"/>
		<path class="st14" d="M544.6,301.3h-14c-3.6,0-6.5-2.9-6.5-6.5l0,0c0-3.6,2.9-6.5,6.5-6.5h14c3.6,0,6.5,2.9,6.5,6.5l0,0
			C551.1,298.4,548.2,301.3,544.6,301.3z"/>
		<path class="st14" d="M610.2,321.4h-14c-3.6,0-6.5-2.9-6.5-6.5v0c0-3.6,2.9-6.5,6.5-6.5h14c3.6,0,6.5,2.9,6.5,6.5v0
			C616.6,318.5,613.7,321.4,610.2,321.4z"/>
		<path class="st14" d="M577.1,321.4h-14c-3.6,0-6.5-2.9-6.5-6.5v0c0-3.6,2.9-6.5,6.5-6.5h14c3.6,0,6.5,2.9,6.5,6.5v0
			C583.5,318.5,580.6,321.4,577.1,321.4z"/>
		<path class="st14" d="M544.6,321.4h-14c-3.6,0-6.5-2.9-6.5-6.5v0c0-3.6,2.9-6.5,6.5-6.5h14c3.6,0,6.5,2.9,6.5,6.5v0
			C551.1,318.5,548.2,321.4,544.6,321.4z"/>
		<path class="st14" d="M610.2,341.8h-14c-3.6,0-6.5-2.9-6.5-6.5v0c0-3.6,2.9-6.5,6.5-6.5h14c3.6,0,6.5,2.9,6.5,6.5v0
			C616.6,338.9,613.7,341.8,610.2,341.8z"/>
		<path class="st14" d="M577.1,341.8h-14c-3.6,0-6.5-2.9-6.5-6.5v0c0-3.6,2.9-6.5,6.5-6.5h14c3.6,0,6.5,2.9,6.5,6.5v0
			C583.5,338.9,580.6,341.8,577.1,341.8z"/>
		<path class="st14" d="M544.6,341.8h-14c-3.6,0-6.5-2.9-6.5-6.5v0c0-3.6,2.9-6.5,6.5-6.5h14c3.6,0,6.5,2.9,6.5,6.5v0
			C551.1,338.9,548.2,341.8,544.6,341.8z"/>
		<path class="st14" d="M610.2,360.4h-14c-3.6,0-6.5-2.9-6.5-6.5v0c0-3.6,2.9-6.5,6.5-6.5h14c3.6,0,6.5,2.9,6.5,6.5v0
			C616.6,357.5,613.7,360.4,610.2,360.4z"/>
		<path class="st14" d="M577.1,360.4h-14c-3.6,0-6.5-2.9-6.5-6.5v0c0-3.6,2.9-6.5,6.5-6.5h14c3.6,0,6.5,2.9,6.5,6.5v0
			C583.5,357.5,580.6,360.4,577.1,360.4z"/>
		<path class="st14" d="M544.6,360.4h-14c-3.6,0-6.5-2.9-6.5-6.5v0c0-3.6,2.9-6.5,6.5-6.5h14c3.6,0,6.5,2.9,6.5,6.5v0
			C551.1,357.5,548.2,360.4,544.6,360.4z"/>
		<path class="st14" d="M610.2,378.6h-14c-3.6,0-6.5-2.9-6.5-6.5l0,0c0-3.6,2.9-6.5,6.5-6.5h14c3.6,0,6.5,2.9,6.5,6.5l0,0
			C616.6,375.7,613.7,378.6,610.2,378.6z"/>
		<path class="st14" d="M577.1,378.6h-14c-3.6,0-6.5-2.9-6.5-6.5l0,0c0-3.6,2.9-6.5,6.5-6.5h14c3.6,0,6.5,2.9,6.5,6.5l0,0
			C583.5,375.7,580.6,378.6,577.1,378.6z"/>
		<path class="st14" d="M544.6,378.6h-14c-3.6,0-6.5-2.9-6.5-6.5l0,0c0-3.6,2.9-6.5,6.5-6.5h14c3.6,0,6.5,2.9,6.5,6.5l0,0
			C551.1,375.7,548.2,378.6,544.6,378.6z"/>
		<path class="st14" d="M610.2,397.5h-14c-3.6,0-6.5-2.9-6.5-6.5v0c0-3.6,2.9-6.5,6.5-6.5h14c3.6,0,6.5,2.9,6.5,6.5v0
			C616.6,394.6,613.7,397.5,610.2,397.5z"/>
		<path class="st14" d="M577.1,397.5h-14c-3.6,0-6.5-2.9-6.5-6.5v0c0-3.6,2.9-6.5,6.5-6.5h14c3.6,0,6.5,2.9,6.5,6.5v0
			C583.5,394.6,580.6,397.5,577.1,397.5z"/>
		<path class="st14" d="M544.6,397.5h-14c-3.6,0-6.5-2.9-6.5-6.5v0c0-3.6,2.9-6.5,6.5-6.5h14c3.6,0,6.5,2.9,6.5,6.5v0
			C551.1,394.6,548.2,397.5,544.6,397.5z"/>
		<path class="st14" d="M610.2,415.7h-14c-3.6,0-6.5-2.9-6.5-6.5v0c0-3.6,2.9-6.5,6.5-6.5h14c3.6,0,6.5,2.9,6.5,6.5v0
			C616.6,412.8,613.7,415.7,610.2,415.7z"/>
		<path class="st14" d="M577.1,415.7h-14c-3.6,0-6.5-2.9-6.5-6.5v0c0-3.6,2.9-6.5,6.5-6.5h14c3.6,0,6.5,2.9,6.5,6.5v0
			C583.5,412.8,580.6,415.7,577.1,415.7z"/>
		<path class="st14" d="M544.6,415.7h-14c-3.6,0-6.5-2.9-6.5-6.5v0c0-3.6,2.9-6.5,6.5-6.5h14c3.6,0,6.5,2.9,6.5,6.5v0
			C551.1,412.8,548.2,415.7,544.6,415.7z"/>
	</g>
	<g>
		<rect x="651.5" y="210" class="st15" width="25" height="248.7"/>
		<path class="st15" d="M683.6,458.6h-38c-2.9,0-5.2-2.3-5.2-5.2v-8.3c0-2.9,2.3-5.2,5.2-5.2h38c2.9,0,5.2,2.3,5.2,5.2v8.3
			C688.8,456.3,686.5,458.6,683.6,458.6z"/>
		<rect x="647.5" y="432.6" class="st15" width="35.2" height="26"/>
		<path class="st15" d="M671.8,220.6h-15.7c-9.9,0-18-8.1-18-18V202c0-9.9,8.1-18,18-18h15.7c9.9,0,18,8.1,18,18v0.7
			C689.8,212.6,681.8,220.6,671.8,220.6z"/>
		<rect x="652.8" y="177.3" class="st15" width="21.7" height="21.1"/>
		<rect x="657.8" y="172" class="st15" width="11" height="17.3"/>
		<rect x="661.8" y="162.3" class="st15" width="3.2" height="19.7"/>
	</g>
	<g>
		<rect x="675.5" y="190.6" class="st16" width="8" height="19.3"/>
		<rect x="664.6" y="190.6" class="st16" width="8" height="19.3"/>
		<rect x="653.8" y="190.6" class="st16" width="8" height="19.3"/>
		<rect x="643.1" y="190.6" class="st16" width="8" height="19.3"/>
	</g>
	<path class="st17" d="M728.7,211.3L728.7,211.3l0,207.1h-45.9V257.2C682.9,231.9,703.4,211.3,728.7,211.3z"/>
	<g>
		<line class="st18" x1="673.1" y1="221.9" x2="673.1" y2="431.1"/>
		<line class="st18" x1="667.1" y1="221.9" x2="667.1" y2="431.1"/>
		<line class="st18" x1="661.1" y1="221.9" x2="661.1" y2="431.1"/>
		<line class="st18" x1="655.1" y1="221.9" x2="655.1" y2="431.1"/>
	</g>
	<g>
		<polygon class="st19" points="771.9,338.4 718.5,338.4 737.9,275 737.9,225.8 751.3,225.8 751.3,275 		"/>
		<g>
			<polygon class="st19" points="712.6,338.7 687.1,364.1 755.7,364.1 755.7,338.7 			"/>
			<polygon class="st19" points="777.1,338.7 802.5,364.1 722.6,364.1 722.6,338.7 			"/>
		</g>
		<polygon class="st19" points="766.8,315.8 749.3,315.8 728.9,315.8 722.8,315.8 705.5,333.6 728.9,333.6 749.3,333.6 784.2,333.6 
					"/>
		<polygon class="st19" points="763.2,298 748,298 730.2,298 727,298 712.7,313.2 730.2,313.2 748,313.2 777.5,313.2 		"/>
		<polygon class="st19" points="769.4,294.1 758.7,284 744.2,284 744.2,284 731.5,284 720.8,294.1 744.2,294.1 744.2,294.1 		"/>
		<polygon class="st19" points="756.5,270 742.9,270 737.2,270 735.6,270 728,277.6 737.2,277.6 742.9,277.6 764.1,277.6 		"/>
		<polygon class="st19" points="751.7,240.2 741.4,240.2 736.6,240.2 736.3,240.2 730.9,245.3 736.6,245.3 741.4,245.3 757.1,245.3 
					"/>
		<polygon class="st19" points="751.7,250.5 741.4,250.5 736.6,250.5 736.3,250.5 730.9,255.6 736.6,255.6 741.4,255.6 757.1,255.6 
					"/>
		<polygon class="st19" points="751.7,260.3 741.4,260.3 736.6,260.3 736.3,260.3 730.9,265.3 736.6,265.3 741.4,265.3 757.1,265.3 
					"/>
		<polygon class="st19" points="751.7,230.5 741.4,230.5 736.6,230.5 736.3,230.5 730.9,235.6 736.6,235.6 741.4,235.6 757.1,235.6 
					"/>
		<polygon class="st19" points="750.4,222.6 742.5,222.6 738.8,222.6 738.7,222.6 734.5,226.5 738.8,226.5 742.5,226.5 754.5,226.5 
					"/>
		<rect x="701.1" y="357.9" class="st19" width="83.1" height="33.7"/>
		<rect x="712.3" y="357.6" class="st19" width="65" height="34"/>
		<line class="st19" x1="711.8" y1="375.6" x2="776.6" y2="375.6"/>
		<rect x="742.4" y="368.2" class="st19" width="4.9" height="23.4"/>
	</g>
	<g>
		<g>
			<polygon class="st20" points="786.1,317.4 779.3,317.3 779,405.1 785.8,405.2 792.9,405.2 793.2,317.4 			"/>
			<polygon class="st20" points="806.6,409.2 806.6,387.3 785.9,387.3 764,387.3 764,409.2 753.4,458.3 785.9,458.3 819.4,458.3 			
				"/>
			<rect x="781.6" y="281.4" class="st20" width="9" height="36.1"/>
		</g>
		<rect x="785.9" y="245.9" class="st20" width="1.8" height="34.8"/>
		<rect x="785.9" y="244.7" class="st20" width="18.6" height="4.8"/>
		<rect x="785.9" y="249.4" class="st20" width="18.6" height="4.8"/>
		<polygon class="st20" points="785.9,244.7 785.9,254.2 795.3,249.4 		"/>
	</g>
	<g>
		<g>
			<rect x="673.9" y="408.8" class="st21" width="106.3" height="49.9"/>
			<rect x="673.9" y="408.5" class="st22" width="106.3" height="5.3"/>
			<polygon class="st23" points="649.1,412.1 726.9,322.7 804.8,412.1 			"/>
			<g>
				<g>
					<g>
						<line class="st24" x1="727.1" y1="324.6" x2="733.8" y2="332.6"/>
						<line class="st25" x1="736.7" y1="336" x2="789.6" y2="399"/>
						<line class="st24" x1="791" y1="400.7" x2="797.8" y2="408.7"/>
					</g>
				</g>
				<g>
					<g>
						<line class="st24" x1="726.9" y1="322.7" x2="727.2" y2="333.2"/>
						<line class="st26" x1="727.3" y1="336.7" x2="729.1" y2="400.3"/>
						<line class="st24" x1="729.2" y1="402.1" x2="729.5" y2="412.6"/>
					</g>
				</g>
				<g>
					<g>
						<line class="st24" x1="727.1" y1="324.6" x2="729.7" y2="334.7"/>
						<line class="st27" x1="730.6" y1="338.1" x2="746.8" y2="400.7"/>
						<line class="st24" x1="747.3" y1="402.4" x2="749.9" y2="412.6"/>
					</g>
				</g>
				<g>
					<g>
						<line class="st24" x1="728.7" y1="324.7" x2="721.8" y2="332.6"/>
						<line class="st28" x1="719.4" y1="335.3" x2="660.4" y2="402.1"/>
						<line class="st24" x1="659.2" y1="403.5" x2="652.2" y2="411.4"/>
					</g>
				</g>
				<g>
					<g>
						<line class="st24" x1="727.1" y1="324.6" x2="721.3" y2="333.4"/>
						<line class="st29" x1="719" y1="336.9" x2="677.2" y2="401.3"/>
						<line class="st24" x1="676.1" y1="403" x2="670.4" y2="411.8"/>
					</g>
				</g>
				<g>
					<g>
						<line class="st24" x1="727.1" y1="324.6" x2="724.8" y2="334.8"/>
						<line class="st30" x1="724.1" y1="338.2" x2="710.8" y2="400.1"/>
						<line class="st24" x1="710.4" y1="401.8" x2="708.2" y2="412.1"/>
					</g>
				</g>
				<g>
					<g>
						<line class="st24" x1="726.9" y1="322.7" x2="723" y2="332.4"/>
						<line class="st31" x1="721.6" y1="335.9" x2="695.5" y2="400.3"/>
						<line class="st24" x1="694.8" y1="402.1" x2="690.8" y2="411.8"/>
					</g>
				</g>
				<g>
					<g>
						<line class="st24" x1="726.9" y1="322.7" x2="732.1" y2="331.8"/>
						<line class="st32" x1="734.1" y1="335.3" x2="770.5" y2="399.7"/>
						<line class="st24" x1="771.5" y1="401.4" x2="776.7" y2="410.6"/>
					</g>
				</g>
				<g>
					<g>
						<line class="st24" x1="727.1" y1="324.6" x2="731.3" y2="334.2"/>
						<line class="st33" x1="732.8" y1="337.6" x2="760.4" y2="400.7"/>
						<line class="st24" x1="761.1" y1="402.4" x2="765.3" y2="412.1"/>
					</g>
				</g>
			</g>
		</g>
		<path class="st34" d="M732.3,458.6h-8.5c-1.5,0-2.7-1.2-2.7-2.7v-12.4c0-1.5,1.2-2.7,2.7-2.7h8.5c1.5,0,2.7,1.2,2.7,2.7V456
			C735,457.4,733.8,458.6,732.3,458.6z"/>
		<g>
			<path class="st35" d="M699.1,428.3h-11.6c-1.5,0-2.7-1.2-2.7-2.7v-2.8c0-1.5,1.2-2.7,2.7-2.7h11.6c1.5,0,2.7,1.2,2.7,2.7v2.8
				C701.8,427.1,700.6,428.3,699.1,428.3z"/>
			<path class="st35" d="M699.1,438.1h-11.6c-1.5,0-2.7-1.2-2.7-2.7v-2.8c0-1.5,1.2-2.7,2.7-2.7h11.6c1.5,0,2.7,1.2,2.7,2.7v2.8
				C701.8,436.9,700.6,438.1,699.1,438.1z"/>
			<path class="st36" d="M699.1,438.1h-11.6c-1.5,0-2.7-1.2-2.7-2.7v-12.5c0-1.5,1.2-2.7,2.7-2.7h11.6c1.5,0,2.7,1.2,2.7,2.7v12.5
				C701.8,436.9,700.6,438.1,699.1,438.1z"/>
		</g>
		<g>
			<path class="st35" d="M767,427.5h-11.6c-1.5,0-2.7-1.2-2.7-2.7v-2.8c0-1.5,1.2-2.7,2.7-2.7H767c1.5,0,2.7,1.2,2.7,2.7v2.8
				C769.6,426.3,768.4,427.5,767,427.5z"/>
			<path class="st35" d="M767,437.3h-11.6c-1.5,0-2.7-1.2-2.7-2.7v-2.8c0-1.5,1.2-2.7,2.7-2.7H767c1.5,0,2.7,1.2,2.7,2.7v2.8
				C769.6,436.1,768.4,437.3,767,437.3z"/>
			<path class="st36" d="M767,437.3h-11.6c-1.5,0-2.7-1.2-2.7-2.7v-12.5c0-1.5,1.2-2.7,2.7-2.7H767c1.5,0,2.7,1.2,2.7,2.7v12.5
				C769.6,436.1,768.4,437.3,767,437.3z"/>
		</g>
	</g>
	<g>
		<g>
			<path class="st37" d="M870.1,458.6h-40.2c-8.8,0-16-7.1-16-16V149.6c0-8.8,7.1-16,16-16h40.2c8.8,0,16,7.1,16,16v293.1
				C886.1,451.5,878.9,458.6,870.1,458.6z"/>
			<rect x="814" y="399.1" class="st37" width="72.1" height="59.6"/>
		</g>
		<g>
			<line class="st38" x1="872.5" y1="159.1" x2="872.5" y2="446.5"/>
			<line class="st38" x1="850" y1="159.1" x2="850" y2="446.5"/>
			<line class="st38" x1="828.8" y1="159.1" x2="828.8" y2="446.5"/>
		</g>
	</g>
	<g>
		<path class="st3" d="M877.7,458.6L877.7,458.6c-1.9,0-3.4-1.5-3.4-3.4v-36.7c0-1.9,1.5-3.4,3.4-3.4l0,0c1.9,0,3.4,1.5,3.4,3.4
			v36.7C881.1,457.1,879.6,458.6,877.7,458.6z"/>
		<path class="st39" d="M881.1,425.1h7.1c0,0,1.9,0.5,2-2.2s0-13.7,0-13.7"/>
		<path class="st39" d="M877.2,423.6h-4.5c0,0-1.3-0.3-1.3-2.2c0.1-2.7,0-13.7,0-13.7"/>
		<path class="st39" d="M876.5,428.8h-9.7c0,0-2.6,0.5-2.8-2.2s0-20.3,0-20.3"/>
		<ellipse class="st40" cx="875.4" cy="392.4" rx="16.1" ry="15.7"/>
		<ellipse class="st41" cx="889.4" cy="400.8" rx="12.8" ry="13.9"/>
		<ellipse class="st42" cx="890.9" cy="401.3" rx="12.8" ry="13.9"/>
		<ellipse class="st43" cx="866.6" cy="397" rx="12.1" ry="11.8"/>
		<ellipse class="st44" cx="865.1" cy="397.5" rx="12.1" ry="11.8"/>
		<ellipse class="st45" cx="877.7" cy="401.4" rx="16.1" ry="15.7"/>
		<ellipse class="st1" cx="877.2" cy="401.9" rx="16.1" ry="15.7"/>
		<rect x="874.3" y="452.5" class="st3" width="6.7" height="6.2"/>
	</g>
	<g>
		<g>
			<path class="st3" d="M632.8,458.7L632.8,458.7c-1.7,0-3.2-1.4-3.2-3.2v-34.3c0-1.7,1.4-3.2,3.2-3.2l0,0c1.7,0,3.2,1.4,3.2,3.2
				v34.3C636,457.3,634.6,458.7,632.8,458.7z"/>
			<path class="st39" d="M636,427.4h6.6c0,0,1.8,0.5,1.9-2c0.1-2.5,0-12.8,0-12.8"/>
			<path class="st39" d="M632.4,425.9h-4.2c0,0-1.2-0.3-1.2-2c0-2.5,0-12.8,0-12.8"/>
			<path class="st39" d="M644.6,421.4l-4.3-0.1c0,0-0.7,0.2-0.8-1.3c-0.1-1.5,0-4.8,0-4.8"/>
			<path class="st39" d="M626.9,422.3h-4.4c0,0-1.2,0.5-1.3-2s0-18.9,0-18.9"/>
			<rect x="629.7" y="453" class="st3" width="6.3" height="5.8"/>
		</g>
		<ellipse class="st1" cx="633.2" cy="378.9" rx="20.4" ry="42.3"/>
		<g>
			
				<rect x="640.6" y="356.8" transform="matrix(0.7071 -0.7071 0.7071 0.7071 -65.2803 558.9356)" class="st46" width="2.9" height="2.9"/>
			
				<rect x="637.6" y="349.6" transform="matrix(0.7071 -0.7071 0.7071 0.7071 -60.8993 554.3765)" class="st46" width="2.2" height="2.2"/>
			
				<rect x="637.6" y="354.3" transform="matrix(0.7071 -0.7071 0.7071 0.7071 -64.2458 555.7627)" class="st46" width="2.2" height="2.2"/>
			
				<rect x="637.6" y="359.1" transform="matrix(0.7071 -0.7071 0.7071 0.7071 -67.5922 557.1488)" class="st46" width="2.2" height="2.2"/>
			
				<rect x="644.3" y="359.1" transform="matrix(0.7071 -0.7071 0.7071 0.7071 -65.6516 561.8339)" class="st46" width="2.2" height="2.2"/>
			
				<rect x="644.3" y="354.3" transform="matrix(0.7071 -0.7071 0.7071 0.7071 -62.3052 560.4477)" class="st46" width="2.2" height="2.2"/>
			
				<rect x="644.3" y="349.6" transform="matrix(0.7071 -0.7071 0.7071 0.7071 -58.9587 559.0616)" class="st46" width="2.2" height="2.2"/>
			
				<rect x="640.6" y="352.1" transform="matrix(0.7071 -0.7071 0.7071 0.7071 -61.9339 557.5495)" class="st46" width="2.9" height="2.9"/>
			
				<rect x="641.2" y="378.4" transform="matrix(0.7071 -0.7071 0.7071 0.7071 -80.4084 565.6532)" class="st46" width="2.9" height="2.9"/>
			
				<rect x="643.9" y="381" transform="matrix(0.7071 -0.7071 0.7071 0.7071 -81.4163 568.3271)" class="st46" width="2.9" height="2.9"/>
			
				<rect x="640.6" y="384.1" transform="matrix(0.7071 -0.7071 0.7071 0.7071 -84.5644 566.9233)" class="st46" width="2.9" height="2.9"/>
			
				<rect x="643.3" y="387" transform="matrix(0.7071 -0.7071 0.7071 0.7071 -85.8371 569.707)" class="st46" width="2.9" height="2.9"/>
			
				<rect x="639.7" y="345.7" transform="matrix(0.7071 -0.7071 0.7071 0.7071 -57.5168 554.6847)" class="st46" width="2.2" height="2.2"/>
			
				<rect x="640.3" y="390" transform="matrix(0.7071 -0.7071 0.7071 0.7071 -88.8021 568.405)" class="st46" width="2.9" height="2.9"/>
			
				<rect x="643.2" y="393" transform="matrix(0.7071 -0.7071 0.7071 0.7071 -90.1323 571.3902)" class="st46" width="2.9" height="2.9"/>
			
				<rect x="641.7" y="361.1" transform="matrix(0.7071 -0.7071 0.7071 0.7071 -68.0128 560.97)" class="st46" width="2.9" height="2.9"/>
			
				<rect x="644.4" y="363.7" transform="matrix(0.7071 -0.7071 0.7071 0.7071 -69.0207 563.644)" class="st46" width="2.9" height="2.9"/>
			
				<rect x="641.2" y="366.8" transform="matrix(0.7071 -0.7071 0.7071 0.7071 -72.1689 562.2402)" class="st46" width="2.9" height="2.9"/>
			
				<rect x="643.9" y="369.7" transform="matrix(0.7071 -0.7071 0.7071 0.7071 -73.4415 565.0239)" class="st46" width="2.9" height="2.9"/>
			
				<rect x="640.8" y="372.6" transform="matrix(0.7071 -0.7071 0.7071 0.7071 -76.4065 563.7219)" class="st46" width="2.9" height="2.9"/>
			
				<rect x="643.8" y="375.7" transform="matrix(0.7071 -0.7071 0.7071 0.7071 -77.7367 566.7071)" class="st46" width="2.9" height="2.9"/>
			
				<rect x="640.4" y="396" transform="matrix(0.7071 -0.7071 0.7071 0.7071 -93.0344 570.2399)" class="st46" width="2.9" height="2.9"/>
			
				<rect x="629.6" y="355.7" transform="matrix(0.7318 -0.6815 0.6815 0.7318 -74.188 525.8828)" class="st46" width="2.9" height="3"/>
			
				<rect x="626.8" y="348.2" transform="matrix(0.7318 -0.6815 0.6815 0.7318 -69.6508 521.6395)" class="st46" width="2.3" height="2.3"/>
			
				<rect x="627.2" y="353.6" transform="matrix(0.7318 -0.6815 0.6815 0.7318 -73.2319 523.3414)" class="st46" width="2.3" height="2.3"/>
			
				<rect x="627" y="358.4" transform="matrix(0.7318 -0.6815 0.6815 0.7318 -76.5877 524.526)" class="st46" width="2.3" height="2.3"/>
			
				<rect x="629.9" y="347.6" transform="matrix(0.7318 -0.6815 0.6815 0.7318 -68.4175 523.5906)" class="st46" width="2.3" height="2.3"/>
			
				<rect x="627" y="363.9" transform="matrix(0.7318 -0.6815 0.6815 0.7318 -80.3003 525.9869)" class="st46" width="2.3" height="2.3"/>
			
				<rect x="632.5" y="363.9" transform="matrix(0.7318 -0.6815 0.6815 0.7318 -78.8393 529.6995)" class="st46" width="2.3" height="2.3"/>
			
				<rect x="637.9" y="363.9" transform="matrix(0.7318 -0.6815 0.6815 0.7318 -77.3783 533.4121)" class="st46" width="2.3" height="2.3"/>
			
				<rect x="622.8" y="343.8" transform="matrix(0.7318 -0.6815 0.6815 0.7318 -67.718 517.7416)" class="st46" width="2.3" height="2.3"/>
			
				<rect x="622.7" y="348.6" transform="matrix(0.7318 -0.6815 0.6815 0.7318 -71.0739 518.9261)" class="st46" width="2.3" height="2.3"/>
			
				<rect x="633.3" y="358.1" transform="matrix(0.7318 -0.6815 0.6815 0.7318 -74.7041 528.7068)" class="st46" width="2.3" height="2.3"/>
			
				<rect x="633.4" y="353.3" transform="matrix(0.7318 -0.6815 0.6815 0.7318 -71.3483 527.5222)" class="st46" width="2.3" height="2.3"/>
			
				<rect x="633.6" y="348.4" transform="matrix(0.7318 -0.6815 0.6815 0.7318 -67.9924 526.3376)" class="st46" width="2.3" height="2.3"/>
			
				<rect x="634.2" y="344.1" transform="matrix(0.7318 -0.6815 0.6815 0.7318 -64.8763 525.5401)" class="st46" width="2.3" height="2.3"/>
			
				<rect x="629.8" y="350.9" transform="matrix(0.7318 -0.6815 0.6815 0.7318 -70.8321 524.6982)" class="st46" width="2.9" height="3"/>
			
				<rect x="624.2" y="355.7" transform="matrix(0.7318 -0.6815 0.6815 0.7318 -75.6489 522.1703)" class="st46" width="2.9" height="3"/>
			
				<rect x="624.3" y="350.9" transform="matrix(0.7318 -0.6815 0.6815 0.7318 -72.2931 520.9857)" class="st46" width="2.9" height="3"/>
			
				<rect x="619.3" y="355.2" transform="matrix(0.7318 -0.6815 0.6815 0.7318 -76.5926 518.6829)" class="st46" width="2.9" height="3"/>
			
				<rect x="619.4" y="350.3" transform="matrix(0.7318 -0.6815 0.6815 0.7318 -73.2367 517.4983)" class="st46" width="2.9" height="3"/>
			
				<rect x="629.4" y="377.9" transform="matrix(0.7318 -0.6815 0.6815 0.7318 -89.3823 531.6807)" class="st46" width="2.9" height="3"/>
			
				<rect x="632.1" y="380.6" transform="matrix(0.7318 -0.6815 0.6815 0.7318 -90.5112 534.2513)" class="st46" width="2.9" height="3"/>
			
				<rect x="628.6" y="383.7" transform="matrix(0.7318 -0.6815 0.6815 0.7318 -93.5264 532.7091)" class="st46" width="2.9" height="3"/>
			
				<rect x="631.3" y="386.8" transform="matrix(0.7318 -0.6815 0.6815 0.7318 -94.9209 535.3734)" class="st46" width="2.9" height="3"/>
			
				<rect x="629.1" y="344.2" transform="matrix(0.7318 -0.6815 0.6815 0.7318 -66.3483 522.1191)" class="st46" width="2.3" height="2.3"/>
			
				<rect x="628.1" y="389.7" transform="matrix(0.7318 -0.6815 0.6815 0.7318 -97.7616 533.9407)" class="st46" width="2.9" height="3"/>
			
				<rect x="631" y="393" transform="matrix(0.7318 -0.6815 0.6815 0.7318 -99.2231 536.7997)" class="st46" width="2.9" height="3"/>
			
				<rect x="633.7" y="395.7" transform="matrix(0.7318 -0.6815 0.6815 0.7318 -100.3489 539.3865)" class="st46" width="2.9" height="3"/>
			
				<rect x="630.6" y="360.2" transform="matrix(0.7318 -0.6815 0.6815 0.7318 -76.9755 527.7356)" class="st46" width="2.9" height="3"/>
			
				<rect x="636.5" y="370" transform="matrix(0.7318 -0.6815 0.6815 0.7318 -82.0542 534.433)" class="st46" width="2.9" height="3"/>
			
				<rect x="626.2" y="368.9" transform="matrix(0.7318 -0.6815 0.6815 0.7318 -84.0875 527.087)" class="st46" width="2.9" height="3"/>
			
				<rect x="629.8" y="366" transform="matrix(0.7318 -0.6815 0.6815 0.7318 -81.1195 528.764)" class="st46" width="2.9" height="3"/>
			
				<rect x="632.5" y="369.1" transform="matrix(0.7318 -0.6815 0.6815 0.7318 -82.5141 531.4283)" class="st46" width="2.9" height="3"/>
			
				<rect x="629.2" y="372" transform="matrix(0.7318 -0.6815 0.6815 0.7318 -85.3548 529.9957)" class="st46" width="2.9" height="3"/>
			
				<rect x="632.2" y="375.3" transform="matrix(0.7318 -0.6815 0.6815 0.7318 -86.8163 532.8547)" class="st46" width="2.9" height="3"/>
			
				<rect x="619" y="377.9" transform="matrix(0.7318 -0.6815 0.6815 0.7318 -92.1581 524.6268)" class="st46" width="2.9" height="3"/>
			
				<rect x="621.7" y="380.6" transform="matrix(0.7318 -0.6815 0.6815 0.7318 -93.2871 527.1974)" class="st46" width="2.9" height="3"/>
			
				<rect x="618.3" y="383.7" transform="matrix(0.7318 -0.6815 0.6815 0.7318 -96.3022 525.6552)" class="st46" width="2.9" height="3"/>
			
				<rect x="620.9" y="386.8" transform="matrix(0.7318 -0.6815 0.6815 0.7318 -97.6967 528.3196)" class="st46" width="2.9" height="3"/>
			
				<rect x="617.7" y="389.7" transform="matrix(0.7318 -0.6815 0.6815 0.7318 -100.5375 526.8868)" class="st46" width="2.9" height="3"/>
			
				<rect x="620.6" y="393" transform="matrix(0.7318 -0.6815 0.6815 0.7318 -101.999 529.7459)" class="st46" width="2.9" height="3"/>
			
				<rect x="623.3" y="395.7" transform="matrix(0.7318 -0.6815 0.6815 0.7318 -103.1248 532.3326)" class="st46" width="2.9" height="3"/>
			
				<rect x="620.2" y="360.2" transform="matrix(0.7318 -0.6815 0.6815 0.7318 -79.7514 520.6818)" class="st46" width="2.9" height="3"/>
			
				<rect x="622.9" y="362.9" transform="matrix(0.7318 -0.6815 0.6815 0.7318 -80.8803 523.2523)" class="st46" width="2.9" height="3"/>
			
				<rect x="619.5" y="366" transform="matrix(0.7318 -0.6815 0.6815 0.7318 -83.8954 521.7101)" class="st46" width="2.9" height="3"/>
			
				<rect x="622.1" y="369.1" transform="matrix(0.7318 -0.6815 0.6815 0.7318 -85.2899 524.3745)" class="st46" width="2.9" height="3"/>
			
				<rect x="618.9" y="372" transform="matrix(0.7318 -0.6815 0.6815 0.7318 -88.1307 522.9418)" class="st46" width="2.9" height="3"/>
			
				<rect x="621.8" y="375.3" transform="matrix(0.7318 -0.6815 0.6815 0.7318 -89.5922 525.8008)" class="st46" width="2.9" height="3"/>
		</g>
	</g>
	<path class="st47" d="M817.6,61.8c5-12.9,34.8-38.1,69.6-7.8c2.3,2,5.6,4.4,8.3,3c26.5-14.7,61.3-25.6,76.1-2.4
		c1.6,2.5,4,5.6,7,5.2c39.1-5.3,56.1,27.2,39.3,39.6c-13.4,9.9-48.5-3-78.6,18.9c-19.2,14-46.5,2.4-59.6-8.2
		c-15.3-12.4-23.7-2.5-54.5,1.5s-35.1-5.9-32.3-22.3c2.7-15.6,11.3-22.9,23.4-26.1C816.9,62.9,817.4,62.4,817.6,61.8z"/>
	<path class="st48" d="M934.6,95c-2.8-3.3-7.2-6.1-12.6-8.1c-5-1.8-11.4-3.1-18.3-1.8c-15.3,2.9-26,7.9-26.4,10.5
		c-0.4,2.7,2,8,5.8,8c43.3,0.1,43.2,17.3,57.5,2.4C942.1,104.3,937.7,98.6,934.6,95z"/>
	<path class="st48" d="M861.3,42.6c-2.3-1-5.3-1.3-8.6-0.9c-3,0.4-6.6,1.4-9.7,3.9c-7,5.6-11.1,11-10.6,12.5
		c0.5,1.5,3.2,3.6,5.1,2.7c22-11.4,26.5-2.4,29.7-14C867.6,45.5,863.8,43.7,861.3,42.6z"/>
	<path class="st48" d="M961.1,43.3c-2.4-1.2-5.5-1.8-8.8-1.5c-3,0.3-6.6,1.3-9.7,4c-6.8,6.1-10.7,12.2-10.1,14
		c0.6,1.8,3.4,4.4,5.3,3.4c21.8-12.1,26.9-1.3,29.5-14.7C967.7,47,963.7,44.6,961.1,43.3z"/>
	<g>
		<path class="st47" d="M674.8,86.2c-3.7,9.4-25.8,27.8-51.1,5.4c-1.7-1.5-4.1-3.3-6-2.2c-19.6,10.7-45.1,18.4-55.9,1.3
			c-1.2-1.9-2.9-4.1-5.1-3.9c-28.7,3.7-41-20.3-28.7-29.3c9.9-7.2,21.2-12.5,57.8-13.4c6.9-0.2,29.9-10.9,43.7,6.4
			c9,11.3,17.4,2,40-0.8c22.6-2.8,25.7,4.6,23.6,16.5c-2.1,11.5-8.4,16.8-17.3,19.1C675.3,85.3,674.9,85.8,674.8,86.2z"/>
		<path class="st49" d="M587.9,68.3c1.8,4,4.8,7.4,8.7,9.5c3.5,1.9,8.2,3.1,13.5,0.8c11.8-5,20.3-12.5,20.9-16
			c0.6-3.5-0.7-10.3-3.5-10c-32.5,3.5-30.6-19-42.8,1.8C583.2,56.8,585.9,63.9,587.9,68.3z"/>
		<path class="st49" d="M641.9,97.8c2,1.6,4.4,2.6,6.9,2.7c2.3,0.1,5-0.6,7.1-3.2c4.6-5.7,7-11.8,6.3-13.8s-3.1-5.2-4.4-4.3
			c-15.5,10.4-20.6-1.8-21.2,12.2C636.4,93.1,639.7,96,641.9,97.8z"/>
		<path class="st49" d="M568.8,97.3c2,1.6,4.4,2.6,6.9,2.7c2.3,0.1,5-0.6,7.1-3.2c4.6-5.7,7-11.8,6.3-13.8s-3.1-5.2-4.4-4.3
			c-15.5,10.4-20.6-1.8-21.2,12.2C563.3,92.6,566.6,95.5,568.8,97.3z"/>
	</g>
	<g>
		<path class="st48" d="M459.3,139c-2.1,5.4-14.8,15.9-29.3,3.1c-1-0.8-2.3-1.9-3.5-1.3c-11.2,6.1-25.9,10.6-32,0.8
			c-0.7-1.1-1.7-2.4-2.9-2.2c-16.4,2.1-23.5-11.6-16.4-16.8c5.7-4.1,12.1-7.2,33.1-7.7c3.9-0.1,17.1-6.3,25,3.6
			c5.2,6.5,9.9,1.1,22.9-0.5c13-1.6,14.7,2.6,13.5,9.5c-1.2,6.6-4.8,9.6-9.9,10.9C459.6,138.6,459.4,138.8,459.3,139z"/>
		<path class="st49" d="M409.5,128.8c1,2.3,2.7,4.2,5,5.5c2,1.1,4.7,1.8,7.7,0.5c6.7-2.9,11.6-7.1,12-9.2s-0.4-5.9-2-5.7
			c-18.6,2-17.6-10.9-24.5,1C406.8,122.2,408.4,126.3,409.5,128.8z"/>
		<path class="st49" d="M440.5,145.7c1.1,0.9,2.5,1.5,4,1.5c1.3,0,2.9-0.3,4-1.8c2.6-3.3,4-6.8,3.6-7.9c-0.4-1.1-1.8-3-2.5-2.4
			c-8.9,5.9-11.8-1-12.2,7C437.3,143,439.2,144.7,440.5,145.7z"/>
		<path class="st49" d="M398.6,145.4c1.1,0.9,2.5,1.5,4,1.5c1.3,0,2.9-0.3,4-1.8c2.6-3.3,4-6.8,3.6-7.9c-0.4-1.1-1.8-3-2.5-2.4
			c-8.9,5.9-11.8-1-12.2,7C395.5,142.7,397.3,144.4,398.6,145.4z"/>
	</g>
	<g>
		<g>
			<g>
				<line class="st50" x1="162.1" y1="214.1" x2="162.1" y2="224.6"/>
				<line class="st51" x1="162.1" y1="227.5" x2="162.1" y2="244.2"/>
				<line class="st50" x1="162.1" y1="245.6" x2="162.1" y2="256.1"/>
			</g>
		</g>
		<g>
			<g>
				<line class="st50" x1="199.6" y1="205.2" x2="204.6" y2="214.4"/>
				<line class="st51" x1="206" y1="217" x2="214" y2="231.7"/>
				<line class="st50" x1="214.7" y1="232.9" x2="219.7" y2="242.2"/>
			</g>
		</g>
		<g>
			<g>
				<line class="st50" x1="228.4" y1="180.9" x2="236.8" y2="187.2"/>
				<line class="st51" x1="239.1" y1="188.9" x2="252.5" y2="199"/>
				<line class="st50" x1="253.6" y1="199.8" x2="262" y2="206.2"/>
			</g>
		</g>
		<g>
			<g>
				<line class="st50" x1="237.4" y1="145.6" x2="247.8" y2="146.6"/>
				<line class="st51" x1="250.7" y1="146.9" x2="267.4" y2="148.6"/>
				<line class="st50" x1="268.8" y1="148.7" x2="279.2" y2="149.8"/>
			</g>
		</g>
		<g>
			<g>
				<line class="st50" x1="230.8" y1="102.9" x2="241.2" y2="102"/>
				<line class="st51" x1="244.1" y1="101.7" x2="260.8" y2="100.2"/>
				<line class="st50" x1="262.2" y1="100.1" x2="272.7" y2="99.2"/>
			</g>
		</g>
		<g>
			<g>
				<line class="st50" x1="208.6" y1="73.8" x2="216.5" y2="66.9"/>
				<line class="st51" x1="218.7" y1="65" x2="231.3" y2="54.1"/>
				<line class="st50" x1="232.4" y1="53.1" x2="240.3" y2="46.2"/>
			</g>
		</g>
		<g>
			<g>
				<line class="st50" x1="182.3" y1="62.8" x2="185" y2="52.7"/>
				<line class="st51" x1="185.7" y1="49.9" x2="190.1" y2="33.8"/>
				<line class="st50" x1="190.4" y1="32.4" x2="193.2" y2="22.2"/>
			</g>
		</g>
		<g>
			<g>
				<line class="st50" x1="154.8" y1="63.5" x2="154.3" y2="53"/>
				<line class="st51" x1="154.2" y1="50.1" x2="153.4" y2="33.5"/>
				<line class="st50" x1="153.3" y1="32" x2="152.8" y2="21.5"/>
			</g>
		</g>
		<g>
			<g>
				<line class="st50" x1="122.6" y1="71" x2="115.7" y2="63.2"/>
				<line class="st51" x1="113.8" y1="61" x2="102.7" y2="48.5"/>
				<line class="st50" x1="101.7" y1="47.4" x2="94.8" y2="39.5"/>
			</g>
		</g>
		<g>
			<g>
				<line class="st50" x1="92.6" y1="100.7" x2="82.6" y2="97.4"/>
				<line class="st51" x1="79.9" y1="96.5" x2="64" y2="91.3"/>
				<line class="st50" x1="62.6" y1="90.9" x2="52.6" y2="87.6"/>
			</g>
		</g>
		<g>
			<g>
				<line class="st50" x1="81.5" y1="144.2" x2="71" y2="144.4"/>
				<line class="st51" x1="68.1" y1="144.5" x2="51.4" y2="144.9"/>
				<line class="st50" x1="50" y1="144.9" x2="39.5" y2="145.2"/>
			</g>
		</g>
		<g>
			<g>
				<line class="st50" x1="118.5" y1="210.4" x2="112.3" y2="219"/>
				<line class="st51" x1="110.7" y1="221.3" x2="100.9" y2="234.9"/>
				<line class="st50" x1="100.1" y1="236.1" x2="93.9" y2="244.6"/>
			</g>
		</g>
		<g>
			<g>
				<line class="st50" x1="91" y1="179.8" x2="81.9" y2="185.1"/>
				<line class="st51" x1="79.4" y1="186.6" x2="65" y2="195.1"/>
				<line class="st50" x1="63.8" y1="195.8" x2="54.7" y2="201.1"/>
			</g>
		</g>
		<circle class="st52" cx="159.7" cy="139.7" r="68.7"/>
		<circle class="st53" cx="159.3" cy="140" r="53.1"/>
	</g>
	<rect x="392.9" y="230.4" class="st54" width="78.5" height="228.5"/>
	<g>
		<rect x="436" y="255.1" class="st55" width="25.8" height="18.2"/>
		<rect x="436" y="285.8" class="st55" width="25.8" height="18.2"/>
		<rect x="436" y="318.1" class="st55" width="25.8" height="18.2"/>
		<rect x="436" y="348.7" class="st55" width="25.8" height="18.2"/>
		<rect x="436" y="382.6" class="st55" width="25.8" height="18.2"/>
		<rect x="436" y="413.3" class="st55" width="25.8" height="18.2"/>
		<rect x="402.2" y="255.1" class="st55" width="25.8" height="18.2"/>
		<rect x="402.2" y="285.8" class="st55" width="25.8" height="18.2"/>
		<rect x="402.2" y="318.1" class="st55" width="25.8" height="18.2"/>
		<rect x="402.2" y="348.7" class="st55" width="25.8" height="18.2"/>
		<rect x="402.2" y="382.6" class="st55" width="25.8" height="18.2"/>
		<rect x="402.2" y="413.3" class="st55" width="25.8" height="18.2"/>
	</g>
	<rect x="395.1" y="233.9" class="st55" width="69.5" height="2.2"/>
	<g>
		<g>
			<rect x="452.4" y="217.9" class="st56" width="64.9" height="241.8"/>
			<polygon class="st56" points="452.4,217.9 484.9,161.6 517.3,217.9 			"/>
		</g>
		<g>
			<rect x="495.6" y="241.9" class="st57" width="17.7" height="4.4"/>
			<rect x="475.7" y="241.9" class="st57" width="17.7" height="4.4"/>
			<rect x="455.8" y="241.9" class="st57" width="17.7" height="4.4"/>
			<rect x="495.6" y="250.7" class="st57" width="17.7" height="4.4"/>
			<rect x="475.7" y="250.7" class="st57" width="17.7" height="4.4"/>
			<rect x="455.8" y="250.7" class="st57" width="17.7" height="4.4"/>
			<rect x="495.6" y="225.3" class="st57" width="17.7" height="4.4"/>
			<rect x="475.7" y="225.3" class="st57" width="17.7" height="4.4"/>
			<rect x="455.8" y="225.3" class="st57" width="17.7" height="4.4"/>
			<rect x="495.6" y="234.2" class="st57" width="17.7" height="4.4"/>
			<rect x="475.7" y="234.2" class="st57" width="17.7" height="4.4"/>
			<rect x="455.8" y="234.2" class="st57" width="17.7" height="4.4"/>
			<rect x="495.6" y="260.1" class="st57" width="17.7" height="4.4"/>
			<rect x="475.7" y="260.1" class="st57" width="17.7" height="4.4"/>
			<rect x="455.8" y="260.1" class="st57" width="17.7" height="4.4"/>
			<rect x="495.6" y="268.9" class="st57" width="17.7" height="4.4"/>
			<rect x="475.7" y="268.9" class="st57" width="17.7" height="4.4"/>
			<rect x="455.8" y="268.9" class="st57" width="17.7" height="4.4"/>
			<rect x="495.6" y="276.7" class="st57" width="17.7" height="4.4"/>
			<rect x="475.7" y="276.7" class="st57" width="17.7" height="4.4"/>
			<rect x="455.8" y="276.7" class="st57" width="17.7" height="4.4"/>
			<rect x="495.6" y="285.5" class="st57" width="17.7" height="4.4"/>
			<rect x="475.7" y="285.5" class="st57" width="17.7" height="4.4"/>
			<rect x="455.8" y="285.5" class="st57" width="17.7" height="4.4"/>
			<rect x="495.6" y="294.9" class="st57" width="17.7" height="4.4"/>
			<rect x="475.7" y="294.9" class="st57" width="17.7" height="4.4"/>
			<rect x="455.8" y="294.9" class="st57" width="17.7" height="4.4"/>
			<rect x="495.6" y="304.5" class="st57" width="17.7" height="4.4"/>
			<rect x="475.7" y="304.5" class="st57" width="17.7" height="4.4"/>
			<rect x="455.8" y="304.5" class="st57" width="17.7" height="4.4"/>
			<rect x="495.6" y="312.7" class="st57" width="17.7" height="4.4"/>
			<rect x="475.7" y="312.7" class="st57" width="17.7" height="4.4"/>
			<rect x="455.8" y="312.7" class="st57" width="17.7" height="4.4"/>
			<rect x="495.6" y="321.5" class="st57" width="17.7" height="4.4"/>
			<rect x="475.7" y="321.5" class="st57" width="17.7" height="4.4"/>
			<rect x="455.8" y="321.5" class="st57" width="17.7" height="4.4"/>
			<rect x="495.6" y="330.9" class="st57" width="17.7" height="4.4"/>
			<rect x="475.7" y="330.9" class="st57" width="17.7" height="4.4"/>
			<rect x="455.8" y="330.9" class="st57" width="17.7" height="4.4"/>
			<rect x="495.6" y="339.7" class="st57" width="17.7" height="4.4"/>
			<rect x="475.7" y="339.7" class="st57" width="17.7" height="4.4"/>
			<rect x="455.8" y="339.7" class="st57" width="17.7" height="4.4"/>
			<rect x="495.6" y="347.5" class="st57" width="17.7" height="4.4"/>
			<rect x="475.7" y="347.5" class="st57" width="17.7" height="4.4"/>
			<rect x="455.8" y="347.5" class="st57" width="17.7" height="4.4"/>
			<rect x="495.6" y="356.3" class="st57" width="17.7" height="4.4"/>
			<rect x="475.7" y="356.3" class="st57" width="17.7" height="4.4"/>
			<rect x="455.8" y="356.3" class="st57" width="17.7" height="4.4"/>
			<rect x="495.6" y="365.7" class="st57" width="17.7" height="4.4"/>
			<rect x="475.7" y="365.7" class="st57" width="17.7" height="4.4"/>
			<rect x="455.8" y="365.7" class="st57" width="17.7" height="4.4"/>
			<rect x="495.6" y="375.3" class="st57" width="17.7" height="4.4"/>
			<rect x="475.7" y="375.3" class="st57" width="17.7" height="4.4"/>
			<rect x="455.8" y="375.3" class="st57" width="17.7" height="4.4"/>
			<rect x="495.6" y="383.9" class="st57" width="17.7" height="4.4"/>
			<rect x="475.7" y="383.9" class="st57" width="17.7" height="4.4"/>
			<rect x="455.8" y="383.9" class="st57" width="17.7" height="4.4"/>
			<rect x="495.6" y="392.7" class="st57" width="17.7" height="4.4"/>
			<rect x="475.7" y="392.7" class="st57" width="17.7" height="4.4"/>
			<rect x="455.8" y="392.7" class="st57" width="17.7" height="4.4"/>
			<rect x="495.6" y="402.1" class="st57" width="17.7" height="4.4"/>
			<rect x="475.7" y="402.1" class="st57" width="17.7" height="4.4"/>
			<rect x="455.8" y="402.1" class="st57" width="17.7" height="4.4"/>
			<rect x="495.6" y="410.9" class="st57" width="17.7" height="4.4"/>
			<rect x="475.7" y="410.9" class="st57" width="17.7" height="4.4"/>
			<rect x="455.8" y="410.9" class="st57" width="17.7" height="4.4"/>
			<rect x="495.6" y="418.7" class="st57" width="17.7" height="4.4"/>
			<rect x="475.7" y="418.7" class="st57" width="17.7" height="4.4"/>
			<rect x="455.8" y="418.7" class="st57" width="17.7" height="4.4"/>
			<rect x="495.6" y="427.5" class="st57" width="17.7" height="4.4"/>
			<rect x="475.7" y="427.5" class="st57" width="17.7" height="4.4"/>
			<rect x="455.8" y="427.5" class="st57" width="17.7" height="4.4"/>
			<rect x="495.6" y="436.9" class="st57" width="17.7" height="4.4"/>
			<rect x="475.7" y="436.9" class="st57" width="17.7" height="4.4"/>
			<rect x="455.8" y="436.9" class="st57" width="17.7" height="4.4"/>
			<rect x="495.6" y="446.5" class="st57" width="17.7" height="4.4"/>
			<rect x="475.7" y="446.5" class="st57" width="17.7" height="4.4"/>
			<rect x="455.8" y="446.5" class="st57" width="17.7" height="4.4"/>
		</g>
		<line class="st58" x1="484.5" y1="169.4" x2="511.4" y2="217.9"/>
		<line class="st58" x1="484.8" y1="169.4" x2="458.2" y2="218"/>
	</g>
	<path class="st59" d="M695.6,99.8c0,0-4.4-4-5.4-5.3c-3.3-4.5-3.4-4.4-3.4-4.4s-4,14.7-5.4,12.3"/>
	<path class="st59" d="M662.7,122.8c0,0,9.1-4.9,12.3-0.1c1.6,2.5,1.6,2.5,1.6,2.5s4-7.3,4.8-3.7"/>
	<path class="st59" d="M708.8,56.8c0,0,3.5-9.7,6.4-4.8c2.9,4.8,2.9,4.8,2.9,4.8s1.3-8.3,5.3-4"/>
	<path class="st59" d="M749,79.9c0,0,9.3-1.2,10,4.3v0c0.3,2.2,2.8,3.4,4.7,2.1c2.3-1.6,5-2.7,6,0.2"/>
	<path class="st60" d="M4.8,365.1c0,0,17,6.4,33.3-2.7c16.4-9.2,40.8-15,46.6-3.1c5.8,11.9,24.3-4.1,24.3-4.1"/>
	<path class="st60" d="M40.8,389.8c0,0,17,6.4,33.3-2.7s40.8-15,46.6-3.1c5.8,11.9,24.3-4.1,24.3-4.1"/>
	<path class="st60" d="M21.7,441.9c0,0,17,6.4,33.3-2.7c16.4-9.2,40.8-15,46.6-3.1c5.8,11.9,24.3-4.1,24.3-4.1"/>
	<path class="st60" d="M138.8,361.5c0,0,17,6.4,33.3-2.7s40.8-15,46.6-3.1c5.8,11.9,24.3-4.1,24.3-4.1"/>
	<path class="st60" d="M155,398.6c0,0,17,6.4,33.3-2.7c16.4-9.2,40.8-15,46.6-3.1c5.8,11.9,24.3-4.1,24.3-4.1"/>
	<path class="st60" d="M98.6,423.2c0,0,17,6.4,33.3-2.7s40.8-15,46.6-3.1c5.8,11.9,24.3-4.1,24.3-4.1"/>
</g>
</svg>