<svg id="Layer_1" data-name="Layer 1" xmlns="http://www.w3.org/2000/svg" viewBox="0 0 459.5 377"><defs><style>.cls-1,.cls-11,.cls-3,.cls-5,.cls-8{fill:none;}.cls-1,.cls-3,.cls-5{stroke:#e84d7b;}.cls-1,.cls-11,.cls-3,.cls-5,.cls-6,.cls-7,.cls-8{stroke-miterlimit:10;}.cls-1,.cls-3,.cls-6{stroke-width:2px;}.cls-2,.cls-6,.cls-7{fill:#e86281;}.cls-3{stroke-dasharray:2;}.cls-4{fill:#d44973;}.cls-6,.cls-7,.cls-8{stroke:#d44973;}.cls-11,.cls-7{stroke-width:21px;}.cls-8{stroke-width:5px;stroke-dasharray:11.91 11.91;}.cls-9{fill:#e84d7b;}.cls-10{fill:#f2778a;}.cls-11{stroke:#d95785;}</style></defs><title>time1</title><circle id="_Path_" data-name="&lt;Path&gt;" class="cls-1" cx="402.3" cy="169" r="4.6"/><g id="_Group_" data-name="&lt;Group&gt;"><path id="_Compound_Path_" data-name="&lt;Compound Path&gt;" class="cls-2" d="M398.5,151.1a0.9,0.9,0,0,0-.9-0.2,1.55,1.55,0,0,0-1.1.8c-7.9,15.7-14.6,20.2-12.8,27.6L399.8,247c1.8,7.5,11.9,11.4,22.6,8.9h0c10.7-2.5,18-10.7,16.2-18.1l-16.1-67.7C420.8,162.8,408.4,158.6,398.5,151.1Zm7.5,16.8a4.32,4.32,0,1,1-5.2-3.2A4.41,4.41,0,0,1,406,167.9Z"/></g><path id="_Path_2" data-name="&lt;Path&gt;" class="cls-2" d="M445,264.5l-3.4-14.2a6.2,6.2,0,0,0-7.5-4.6L407.5,252a6.2,6.2,0,0,0-4.6,7.5l3.4,14.2a6.2,6.2,0,0,0,7.5,4.6l26.6-6.3A6.18,6.18,0,0,0,445,264.5Z"/><line id="_Path_3" data-name="&lt;Path&gt;" class="cls-3" x1="387.5" y1="182.9" x2="419.6" y2="173.4"/><g id="_Group_2" data-name="&lt;Group&gt;"><path id="_Path_4" data-name="&lt;Path&gt;" class="cls-4" d="M417,241.7a4.7,4.7,0,0,1-5.8-3.5,4,4,0,0,1,2-4.8l0.9,1.5a2.35,2.35,0,0,0-1.2,2.9,3,3,0,0,0,3.7,2.1,2.82,2.82,0,0,0,2.3-3.5,2.68,2.68,0,0,0-2.4-2.1l0.1-1.8a4.11,4.11,0,0,1,4,3.4A4.65,4.65,0,0,1,417,241.7Z"/><path id="_Compound_Path_2" data-name="&lt;Compound Path&gt;" class="cls-4" d="M409,228.6a4.64,4.64,0,0,1,3.6-5.7,4.7,4.7,0,0,1,5.8,3.5,4.64,4.64,0,0,1-3.6,5.7A4.7,4.7,0,0,1,409,228.6Zm7.7-1.8a2.83,2.83,0,0,0-3.7-2.1,2.88,2.88,0,1,0,1.3,5.6A2.9,2.9,0,0,0,416.7,226.8Z"/><path id="_Path_5" data-name="&lt;Path&gt;" class="cls-4" d="M413.6,221.1l-5.8,1.4-0.4-1.7,5.7-1.3a1.66,1.66,0,0,0,1.4-2.1,1.62,1.62,0,0,0-2.2-1.3l-5.7,1.3-0.4-1.7,5.8-1.4a3.32,3.32,0,0,1,4.2,2.7A3.26,3.26,0,0,1,413.6,221.1Z"/><path id="_Compound_Path_3" data-name="&lt;Compound Path&gt;" class="cls-4" d="M410.9,210.5l3.4-.8,0.4,1.7-9,2.1-0.8-3.4a2.88,2.88,0,1,1,5.6-1.3Zm-1.9-1a1.24,1.24,0,0,0-1.6-1.1,1.29,1.29,0,0,0-1,1.7l0.3,1.4,2.6-.6Z"/><path id="_Compound_Path_4" data-name="&lt;Compound Path&gt;" class="cls-4" d="M402.7,201.9a4.64,4.64,0,0,1,3.6-5.7,4.7,4.7,0,0,1,5.8,3.5,4.64,4.64,0,0,1-3.6,5.7A4.77,4.77,0,0,1,402.7,201.9Zm7.7-1.8a2.83,2.83,0,0,0-3.7-2.1,2.88,2.88,0,1,0,1.3,5.6A2.9,2.9,0,0,0,410.4,200.1Z"/><path id="_Path_6" data-name="&lt;Path&gt;" class="cls-4" d="M409.1,187.7l-5.4,5.6,6.4-1.5,0.4,1.7-9,2.1-0.5-2.2,5.1-5.1-5.9,1.4-0.4-1.7,9-2.1Z"/></g><g id="_Group_3" data-name="&lt;Group&gt;"><path id="_Path_7" data-name="&lt;Path&gt;" class="cls-4" d="M417.1,260.4a10.17,10.17,0,0,0-1.5,7.6l-1.8.5a10.34,10.34,0,0,1,1.4-7.5l-4.2,1.1-0.4-1.5,6.2-1.6Z"/><path id="_Compound_Path_5" data-name="&lt;Compound Path&gt;" class="cls-4" d="M418.1,259.8a3.48,3.48,0,0,1,2.3-2.1,3,3,0,0,1,3,.7,5.57,5.57,0,0,1,1.5,2.7,4.71,4.71,0,0,1,0,3.1,3.48,3.48,0,0,1-2.3,2.1,3.11,3.11,0,0,1-3.1-.7,5.57,5.57,0,0,1-1.5-2.7A8.1,8.1,0,0,1,418.1,259.8Zm2.7,4.6a1.69,1.69,0,0,0,1.4.4,1.59,1.59,0,0,0,1.1-1,4.21,4.21,0,0,0-.1-2.2,3.44,3.44,0,0,0-1-2,1.69,1.69,0,0,0-1.4-.4,1.59,1.59,0,0,0-1.1,1,4.21,4.21,0,0,0,.1,2.2A5.29,5.29,0,0,0,420.8,264.4Z"/><path id="_Compound_Path_6" data-name="&lt;Compound Path&gt;" class="cls-4" d="M428.1,264.7l3.7-9.7,1.5-.4-3.7,9.7Zm-1.3-8.5a2.16,2.16,0,0,1,2.6,1.5,2.1,2.1,0,0,1-1.6,2.6,2.16,2.16,0,0,1-2.6-1.5A2.06,2.06,0,0,1,426.8,256.2Zm6.6,2.9a2.16,2.16,0,0,1,2.6,1.5,2.1,2.1,0,0,1-1.6,2.6A2.11,2.11,0,1,1,433.4,259.1Zm-5.9,0a0.86,0.86,0,0,0,.6-1.1,0.92,0.92,0,0,0-1.1-.7,0.86,0.86,0,0,0-.6,1.1A0.93,0.93,0,0,0,427.5,259.1Zm6.7,2.9a0.86,0.86,0,0,0,.6-1.1,0.92,0.92,0,0,0-1.1-.7A0.94,0.94,0,0,0,434.2,262Z"/></g><path id="_Path_8" data-name="&lt;Path&gt;" class="cls-5" d="M402.3,169s-11.4-21.9-11.8-39.1c-0.2-9.2,2.5-8.2,5.1-5.3a20.24,20.24,0,0,1,4.7,11.9Z"/><rect id="_Path_9" data-name="&lt;Path&gt;" class="cls-6" x="37.5" y="87.8" width="68" height="28"/><g id="_Group_4" data-name="&lt;Group&gt;"><g id="_Group_5" data-name="&lt;Group&gt;"><path id="_Path_10" data-name="&lt;Path&gt;" class="cls-4" d="M58.6,105.3h-2V98c-0.3.3-.6,0.5-0.7,0.6l-1.1.9L54,98.4,57,96h1.6v9.3Z"/><path id="_Compound_Path_7" data-name="&lt;Compound Path&gt;" class="cls-4" d="M64.4,95.9a3.28,3.28,0,0,1,2.1.6,1.94,1.94,0,0,1,.8,1.6,2,2,0,0,1-.4,1.3,3.45,3.45,0,0,1-1.3,1,4.9,4.9,0,0,1,1.5,1.2,2.11,2.11,0,0,1,.5,1.3,2,2,0,0,1-.9,1.8,3.61,3.61,0,0,1-2.4.7,4.27,4.27,0,0,1-2.4-.6A2,2,0,0,1,61,103a2.3,2.3,0,0,1,.4-1.4,3.27,3.27,0,0,1,1.4-1.1,2.89,2.89,0,0,1-1.1-1.1,2.77,2.77,0,0,1-.3-1.3,1.94,1.94,0,0,1,.8-1.6A3.8,3.8,0,0,1,64.4,95.9Zm-1.5,6.9a1.09,1.09,0,0,0,.4.9,1.21,1.21,0,0,0,1,.3,1.61,1.61,0,0,0,1.1-.3,1.23,1.23,0,0,0,.4-0.8,1,1,0,0,0-.4-0.8,4.82,4.82,0,0,0-1.2-.8A1.89,1.89,0,0,0,62.9,102.8Zm1.4-5.5a1.14,1.14,0,0,0-.8.3,0.91,0.91,0,0,0-.3.7,1.45,1.45,0,0,0,.2.7,3.49,3.49,0,0,0,.9.6,3.49,3.49,0,0,0,.9-0.6,0.84,0.84,0,0,0,.2-0.7,0.91,0.91,0,0,0-.3-0.7A1,1,0,0,0,64.3,97.3Z"/><path id="_Compound_Path_8" data-name="&lt;Compound Path&gt;" class="cls-4" d="M71.8,95.9a3.28,3.28,0,0,1,2.1.6,1.94,1.94,0,0,1,.8,1.6,2,2,0,0,1-.4,1.3,3.45,3.45,0,0,1-1.3,1,4.9,4.9,0,0,1,1.5,1.2,2.11,2.11,0,0,1,.5,1.3,2,2,0,0,1-.9,1.8,3.61,3.61,0,0,1-2.4.7,4.27,4.27,0,0,1-2.4-.6,2,2,0,0,1-.9-1.8,2.3,2.3,0,0,1,.4-1.4,3.27,3.27,0,0,1,1.4-1.1,2.89,2.89,0,0,1-1.1-1.1,2.77,2.77,0,0,1-.3-1.3,1.94,1.94,0,0,1,.8-1.6A3.59,3.59,0,0,1,71.8,95.9Zm-1.5,6.9a1.09,1.09,0,0,0,.4.9,1.21,1.21,0,0,0,1,.3,1.61,1.61,0,0,0,1.1-.3,1.23,1.23,0,0,0,.4-0.8,1,1,0,0,0-.4-0.8,4.82,4.82,0,0,0-1.2-.8A1.89,1.89,0,0,0,70.3,102.8Zm1.5-5.5a1.14,1.14,0,0,0-.8.3,0.91,0.91,0,0,0-.3.7,1.45,1.45,0,0,0,.2.7,3.49,3.49,0,0,0,.9.6,3.49,3.49,0,0,0,.9-0.6,0.84,0.84,0,0,0,.2-0.7,0.91,0.91,0,0,0-.3-0.7A1.14,1.14,0,0,0,71.8,97.3Z"/><path id="_Compound_Path_9" data-name="&lt;Compound Path&gt;" class="cls-4" d="M82.5,100.7a6.85,6.85,0,0,1-.8,3.6,2.68,2.68,0,0,1-2.5,1.2,2.62,2.62,0,0,1-2.4-1.2,8.5,8.5,0,0,1,0-7.2,3,3,0,0,1,4.8,0A6.77,6.77,0,0,1,82.5,100.7Zm-4.6,0a6.6,6.6,0,0,0,.3,2.4,1.06,1.06,0,0,0,2,0,7,7,0,0,0,.3-2.4,7.65,7.65,0,0,0-.3-2.5,1.06,1.06,0,0,0-2,0A7.25,7.25,0,0,0,77.9,100.7Z"/><path id="_Path_11" data-name="&lt;Path&gt;" class="cls-4" d="M88.9,103.2a2.14,2.14,0,0,1-.8,1.7,3.71,3.71,0,0,1-2.3.6,4.89,4.89,0,0,1-1.3-.1c-0.4-.1-0.7-0.2-1-0.3v-1.6a5.64,5.64,0,0,0,1.2.4,6,6,0,0,0,1.2.2c0.7,0,1.1-.2,1.1-0.6a0.48,0.48,0,0,0-.1-0.4,2.19,2.19,0,0,0-.5-0.3,3.92,3.92,0,0,0-.9-0.4,6.66,6.66,0,0,1-1.2-.6,2,2,0,0,1-.6-0.7,2.92,2.92,0,0,1-.2-0.9,1.8,1.8,0,0,1,.7-1.5,4.06,4.06,0,0,1,2.1-.5,5.42,5.42,0,0,1,2.5.6l-0.6,1.4a6.89,6.89,0,0,0-1-.4,2.77,2.77,0,0,0-.9-0.1c-0.6,0-.9.2-0.9,0.5a0.68,0.68,0,0,0,.3.5l1.2,0.6a3.26,3.26,0,0,1,1.2.6,4.35,4.35,0,0,1,.6.7A0.73,0.73,0,0,1,88.9,103.2Z"/></g></g><circle id="_Path_12" data-name="&lt;Path&gt;" class="cls-7" cx="241.9" cy="161.8" r="144.3"/><g id="_Group_6" data-name="&lt;Group&gt;"><circle id="_Path_13" data-name="&lt;Path&gt;" class="cls-8" cx="241.7" cy="162" r="110"/></g><circle id="_Path_14" data-name="&lt;Path&gt;" class="cls-9" cx="242.9" cy="164.6" r="12.1"/><path id="_Path_15" data-name="&lt;Path&gt;" class="cls-4" d="M242.9,164.6S258.6,97,266.2,84c6.8-11.5,18.5-9.4,11.9,5.7C273.2,101.2,242.9,164.6,242.9,164.6Z"/><rect id="_Path_16" data-name="&lt;Path&gt;" class="cls-10" x="364.97" y="286.18" width="24" height="20.1" transform="matrix(0.67, -0.74, 0.74, 0.67, -95.77, 376.08)"/><path id="_Path_17" data-name="&lt;Path&gt;" class="cls-4" d="M445.4,366.1h0a24,24,0,0,1-33.9-1.2l-48.3-51.8,33.6-31.3,49.7,53.4A21.74,21.74,0,0,1,445.4,366.1Z"/><circle id="_Path_18" data-name="&lt;Path&gt;" class="cls-11" cx="308.9" cy="227.7" r="78"/><rect id="_Path_19" data-name="&lt;Path&gt;" class="cls-6" x="7.5" y="132.8" width="77" height="32"/><g id="_Group_7" data-name="&lt;Group&gt;"><path id="_Path_20" data-name="&lt;Path&gt;" class="cls-4" d="M31.1,152.9H28.9v-8.2a3.78,3.78,0,0,1-.8.7l-1.2,1-1.1-1.3,3.4-2.7H31v10.5h0.1Z"/><path id="_Compound_Path_10" data-name="&lt;Compound Path&gt;" class="cls-4" d="M41.4,146.8a7.12,7.12,0,0,1-1.3,4.7c-0.9,1.1-2.2,1.5-4,1.5a5.31,5.31,0,0,1-1.4-.1v-1.8a5.07,5.07,0,0,0,1.3.2,4.5,4.5,0,0,0,1.8-.3,2.66,2.66,0,0,0,1.1-1,3.58,3.58,0,0,0,.4-1.9H39.2a2.4,2.4,0,0,1-1,1,2.9,2.9,0,0,1-1.4.3,2.94,2.94,0,0,1-2.2-.9,3.74,3.74,0,0,1-.8-2.5,3.62,3.62,0,0,1,1-2.7,3.25,3.25,0,0,1,2.6-1,3.94,3.94,0,0,1,2,.5,3.44,3.44,0,0,1,1.3,1.6A3.15,3.15,0,0,1,41.4,146.8ZM37.6,144a1.43,1.43,0,0,0-1.1.5,2,2,0,0,0-.4,1.4,1.59,1.59,0,0,0,.4,1.2,1.37,1.37,0,0,0,1.1.4,1.75,1.75,0,0,0,1.2-.4,1.39,1.39,0,0,0,.5-1,2.46,2.46,0,0,0-.5-1.5A1.56,1.56,0,0,0,37.6,144Z"/><path id="_Compound_Path_11" data-name="&lt;Compound Path&gt;" class="cls-4" d="M49.9,147.6a7.56,7.56,0,0,1-.9,4.1,3.06,3.06,0,0,1-2.8,1.3,3.37,3.37,0,0,1-2.8-1.4,7.41,7.41,0,0,1-.9-4,7.33,7.33,0,0,1,.9-4.1,3.06,3.06,0,0,1,2.8-1.3,3.37,3.37,0,0,1,2.8,1.4A7.86,7.86,0,0,1,49.9,147.6Zm-5.2,0a9.41,9.41,0,0,0,.3,2.8,1.05,1.05,0,0,0,1.1.8,1.15,1.15,0,0,0,1.1-.9,9.41,9.41,0,0,0,.3-2.8,6.61,6.61,0,0,0-.4-2.8,1.05,1.05,0,0,0-1.1-.8,1.17,1.17,0,0,0-1.1.8A19.53,19.53,0,0,0,44.7,147.6Z"/><path id="_Compound_Path_12" data-name="&lt;Compound Path&gt;" class="cls-4" d="M58.3,147.6a7.56,7.56,0,0,1-.9,4.1,3.06,3.06,0,0,1-2.8,1.3,3.37,3.37,0,0,1-2.8-1.4,7.41,7.41,0,0,1-.9-4,7.33,7.33,0,0,1,.9-4.1,3.06,3.06,0,0,1,2.8-1.3,3.37,3.37,0,0,1,2.8,1.4A7,7,0,0,1,58.3,147.6Zm-5.2,0a9.41,9.41,0,0,0,.3,2.8,1.05,1.05,0,0,0,1.1.8,1.15,1.15,0,0,0,1.1-.9,13.22,13.22,0,0,0,0-5.6,1.05,1.05,0,0,0-1.1-.8,1.17,1.17,0,0,0-1.1.8A17.21,17.21,0,0,0,53.1,147.6Z"/><path id="_Path_21" data-name="&lt;Path&gt;" class="cls-4" d="M65.6,150.5a2.2,2.2,0,0,1-.9,1.9,4.54,4.54,0,0,1-2.6.6,6.62,6.62,0,0,1-1.5-.1,5.64,5.64,0,0,1-1.2-.4v-1.8a5.78,5.78,0,0,0,1.4.5,7.84,7.84,0,0,0,1.4.2c0.8,0,1.2-.2,1.2-0.7a0.52,0.52,0,0,0-.2-0.4c-0.1-.1-0.3-0.2-0.5-0.4a9.25,9.25,0,0,1-1-.5c-0.6-.3-1.1-0.5-1.4-0.7a1.56,1.56,0,0,1-.6-0.8,3.09,3.09,0,0,1-.2-1.1,2.14,2.14,0,0,1,.8-1.7,4,4,0,0,1,2.4-.6,6.71,6.71,0,0,1,2.8.6l-0.7,1.6a7.6,7.6,0,0,0-1.1-.4,3.6,3.6,0,0,0-1.1-.2c-0.7,0-1,.2-1,0.5a0.55,0.55,0,0,0,.3.5,6.94,6.94,0,0,0,1.4.6c0.6,0.3,1.1.5,1.4,0.7a1.56,1.56,0,0,1,.6.8A2.23,2.23,0,0,1,65.6,150.5Z"/></g><rect id="_Path_22" data-name="&lt;Path&gt;" class="cls-6" x="10.5" y="187.8" width="92" height="38"/><g id="_Group_8" data-name="&lt;Group&gt;"><path id="_Path_23" data-name="&lt;Path&gt;" class="cls-4" d="M39,214.5H36.3v-9.8l-0.9.9L34,206.8l-1.3-1.6,4-3.2H39v12.5Z"/><path id="_Compound_Path_13" data-name="&lt;Compound Path&gt;" class="cls-4" d="M51.3,207.3c0,2.5-.5,4.3-1.6,5.5a5.82,5.82,0,0,1-4.7,1.8,8.12,8.12,0,0,1-1.7-.1v-2.1a7.72,7.72,0,0,0,1.5.2,4.81,4.81,0,0,0,2.2-.4,3,3,0,0,0,1.3-1.2,4.9,4.9,0,0,0,.5-2.3H48.7a2.89,2.89,0,0,1-1.1,1.1,3.81,3.81,0,0,1-1.6.3,3.31,3.31,0,0,1-2.6-1.1,4.37,4.37,0,0,1-.9-2.9,4.77,4.77,0,0,1,1.1-3.2,4.14,4.14,0,0,1,3.1-1.2,4,4,0,0,1,2.4.7,4.31,4.31,0,0,1,1.6,1.9A7.31,7.31,0,0,1,51.3,207.3Zm-4.6-3.4a1.61,1.61,0,0,0-1.3.6,2.54,2.54,0,0,0-.5,1.6,2,2,0,0,0,.4,1.4,1.43,1.43,0,0,0,1.3.5,2.39,2.39,0,0,0,1.4-.5,1.73,1.73,0,0,0,.6-1.2,2.86,2.86,0,0,0-.5-1.7A1.75,1.75,0,0,0,46.7,203.9Z"/><path id="_Path_24" data-name="&lt;Path&gt;" class="cls-4" d="M60.9,204.8a2.72,2.72,0,0,1-.7,2,3.88,3.88,0,0,1-2,1.1V208a3.74,3.74,0,0,1,2.3.9,2.63,2.63,0,0,1,.8,2,3.29,3.29,0,0,1-1.3,2.8,5.94,5.94,0,0,1-3.8,1,8,8,0,0,1-3.6-.7v-2.3c0.5,0.2,1,.4,1.6.6a5.24,5.24,0,0,0,1.7.2,3.16,3.16,0,0,0,1.9-.4,1.68,1.68,0,0,0,.6-1.4,1.36,1.36,0,0,0-.7-1.3,5.92,5.92,0,0,0-2.3-.4h-1v-2h1a3.69,3.69,0,0,0,2.1-.4,1.56,1.56,0,0,0,.7-1.3c0-1-.6-1.4-1.8-1.4a6.88,6.88,0,0,0-1.3.2,4.59,4.59,0,0,0-1.4.7L52.5,203a6.86,6.86,0,0,1,4.1-1.2,5.69,5.69,0,0,1,3.1.8A2.4,2.4,0,0,1,60.9,204.8Z"/><path id="_Compound_Path_14" data-name="&lt;Compound Path&gt;" class="cls-4" d="M71.3,208.2a9.11,9.11,0,0,1-1.1,4.9,3.59,3.59,0,0,1-3.3,1.6,3.82,3.82,0,0,1-3.3-1.6,9,9,0,0,1-1.1-4.8,9.11,9.11,0,0,1,1.1-4.9,3.59,3.59,0,0,1,3.3-1.6,3.82,3.82,0,0,1,3.3,1.6A8.13,8.13,0,0,1,71.3,208.2Zm-6.1,0a9.15,9.15,0,0,0,.4,3.3,1.35,1.35,0,0,0,1.3,1,1.27,1.27,0,0,0,1.3-1,13.81,13.81,0,0,0,0-6.6,1.35,1.35,0,0,0-1.3-1,1.27,1.27,0,0,0-1.3,1A9.15,9.15,0,0,0,65.2,208.2Z"/><path id="_Path_25" data-name="&lt;Path&gt;" class="cls-4" d="M80.1,211.7a2.76,2.76,0,0,1-1,2.3,5.22,5.22,0,0,1-3.1.8,9.72,9.72,0,0,1-1.8-.1,5.73,5.73,0,0,1-1.4-.4V212c0.5,0.2,1,.4,1.6.6a4.68,4.68,0,0,0,1.6.2c0.9,0,1.4-.3,1.4-0.8a0.76,0.76,0,0,0-.2-0.5,1.4,1.4,0,0,0-.7-0.4,6.66,6.66,0,0,0-1.2-.6,5.65,5.65,0,0,1-1.6-.9,6.47,6.47,0,0,1-.8-0.9,2.55,2.55,0,0,1-.2-1.3,2.22,2.22,0,0,1,1-2,4.65,4.65,0,0,1,2.8-.7,8.08,8.08,0,0,1,3.4.8l-0.8,1.9a11.22,11.22,0,0,0-1.3-.5,5.07,5.07,0,0,0-1.3-.2q-1.2,0-1.2.6a0.72,0.72,0,0,0,.4.6,11.12,11.12,0,0,0,1.6.8,4.49,4.49,0,0,1,1.6.9,6.47,6.47,0,0,1,.8.9A2.14,2.14,0,0,1,80.1,211.7Z"/></g><rect id="_Path_26" data-name="&lt;Path&gt;" class="cls-6" x="25.5" y="245.8" width="103" height="43"/><g id="_Group_9" data-name="&lt;Group&gt;"><path id="_Path_27" data-name="&lt;Path&gt;" class="cls-4" d="M58.3,274.3h-3V263.2l-1,1-1.6,1.3-1.4-1.8,4.6-3.6h2.5v14.2H58.3Z"/><path id="_Compound_Path_15" data-name="&lt;Compound Path&gt;" class="cls-4" d="M72.1,266.2q0,4.2-1.8,6.3a6.72,6.72,0,0,1-5.4,2.1,9.76,9.76,0,0,1-1.9-.1V272a8.81,8.81,0,0,0,1.7.2,6.25,6.25,0,0,0,2.5-.4,4,4,0,0,0,1.5-1.4,7.66,7.66,0,0,0,.6-2.6H69.2a4,4,0,0,1-1.3,1.3,4.78,4.78,0,0,1-1.8.4,3.7,3.7,0,0,1-2.9-1.2,5.57,5.57,0,0,1,.2-6.9,4.6,4.6,0,0,1,3.5-1.3,5.3,5.3,0,0,1,2.8.7,4.63,4.63,0,0,1,1.8,2.1A8.11,8.11,0,0,1,72.1,266.2Zm-5.2-3.8a2,2,0,0,0-1.5.6,3,3,0,0,0-.5,1.8,2.54,2.54,0,0,0,.5,1.6,1.68,1.68,0,0,0,1.4.6,2.45,2.45,0,0,0,1.6-.6,2.1,2.1,0,0,0,.7-1.4,3.38,3.38,0,0,0-.6-2A1.58,1.58,0,0,0,66.9,262.4Z"/><path id="_Compound_Path_16" data-name="&lt;Compound Path&gt;" class="cls-4" d="M83.8,271.4H82.1v2.9H79.2v-2.9H73.1v-2.1l6.2-9.2h2.8V269h1.7v2.4ZM79.2,269v-4.1a8.87,8.87,0,0,1,.1-1.3H79.2a8.94,8.94,0,0,1-.9,1.6l-2.6,3.9h3.5V269Z"/><path id="_Compound_Path_17" data-name="&lt;Compound Path&gt;" class="cls-4" d="M94.8,267.2a10,10,0,0,1-1.2,5.5,4.28,4.28,0,0,1-3.8,1.8,4.21,4.21,0,0,1-3.7-1.8,9.82,9.82,0,0,1-1.2-5.4c0-2.5.4-4.4,1.2-5.5a4.21,4.21,0,0,1,3.7-1.8,4.07,4.07,0,0,1,3.7,1.9A9.62,9.62,0,0,1,94.8,267.2Zm-6.9,0a8.56,8.56,0,0,0,.5,3.7,1.47,1.47,0,0,0,1.5,1.1,1.59,1.59,0,0,0,1.5-1.1,10.88,10.88,0,0,0,.5-3.7,11.56,11.56,0,0,0-.5-3.8,1.47,1.47,0,0,0-1.5-1.1,1.59,1.59,0,0,0-1.5,1.1A9.37,9.37,0,0,0,87.9,267.2Z"/><path id="_Path_28" data-name="&lt;Path&gt;" class="cls-4" d="M104.7,271.1a2.79,2.79,0,0,1-1.2,2.5,5.64,5.64,0,0,1-3.5.9,10.31,10.31,0,0,1-2-.2,7.49,7.49,0,0,1-1.6-.5v-2.4a8.39,8.39,0,0,0,1.9.7,6.72,6.72,0,0,0,1.8.3c1.1,0,1.6-.3,1.6-0.9a1.42,1.42,0,0,0-.2-0.6,6.82,6.82,0,0,0-.7-0.5,6.45,6.45,0,0,0-1.4-.6,7.2,7.2,0,0,1-1.8-1,2.84,2.84,0,0,1-.9-1,3.19,3.19,0,0,1-.3-1.4,2.53,2.53,0,0,1,1.1-2.2,5.58,5.58,0,0,1,3.2-.8,8.49,8.49,0,0,1,3.8.9l-0.9,2.1c-0.5-.2-1.1-0.4-1.5-0.6a3.4,3.4,0,0,0-1.4-.2c-0.9,0-1.3.2-1.3,0.7a0.75,0.75,0,0,0,.4.7,14.29,14.29,0,0,0,1.8.9,8.16,8.16,0,0,1,1.9,1,2.84,2.84,0,0,1,.9,1A1.92,1.92,0,0,1,104.7,271.1Z"/></g></svg>