<svg id="Layer_1" data-name="Layer 1" xmlns="http://www.w3.org/2000/svg" viewBox="0 0 122.38 140.87"><defs><style>.cls-1{fill:#247e94;}.cls-2{fill:#f7f6f6;}.cls-3{fill:#07627b;}.cls-4{fill:#fff;}.cls-5{fill:#ec6469;stroke-miterlimit:10;stroke-width:3.58px;}.cls-5,.cls-6{stroke:#6e6d6e;}.cls-6{fill:#eab021;stroke-linecap:round;stroke-linejoin:round;stroke-width:3px;}</style></defs><title>v-gift</title><rect class="cls-1" y="33.32" width="122.38" height="22.25"/><rect class="cls-1" x="8.34" y="55.57" width="105.69" height="85.3"/><path class="cls-2" d="M36.93,29.6h0A10.64,10.64,0,0,1,26.32,19V10.61A10.64,10.64,0,0,1,36.93,0h0A10.64,10.64,0,0,1,47.53,10.61V19A10.64,10.64,0,0,1,36.93,29.6Z"/><path id="_Path_" data-name="&lt;Path&gt;" class="cls-2" d="M36.93,33.32S26.32,29.79,26.32,20.76H47.53S46.78,30.29,54,33.32h-17Z"/><path class="cls-2" d="M81.28,31.14h0A10.64,10.64,0,0,0,91.89,20.53V12.14A10.64,10.64,0,0,0,81.28,1.54h0A10.64,10.64,0,0,0,70.67,12.14v8.39A10.64,10.64,0,0,0,81.28,31.14Z"/><path class="cls-2" d="M81.28,33.32s10.61-3.53,10.61-12.56H70.67s0.76,9.53-6.44,12.56h17Z"/><rect class="cls-3" x="8.34" y="55.57" width="100.52" height="7.45"/><rect class="cls-4" x="51.09" y="33.32" width="20.21" height="107.55"/><rect class="cls-5" x="27.87" y="80.71" width="66.12" height="35.56"/><polygon class="cls-6" points="61.29 86.45 63.93 94.81 72.7 94.75 65.56 99.84 68.34 108.16 61.29 102.95 54.23 108.16 57.01 99.84 49.88 94.75 58.64 94.81 61.29 86.45"/></svg>