<!-- Generator: Adobe Illustrator 19.0.0, SVG Export Plug-In  -->
<svg version="1.1"
	 xmlns="http://www.w3.org/2000/svg" xmlns:xlink="http://www.w3.org/1999/xlink" xmlns:a="http://ns.adobe.com/AdobeSVGViewerExtensions/3.0/"
	 x="0px" y="0px" width="69.7px" height="69.7px" viewBox="0 0 69.7 69.7" style="enable-background:new 0 0 69.7 69.7;"
	 xml:space="preserve">
<style type="text/css">
	.st0{fill:#F8951D;stroke:#16113F;stroke-width:3;stroke-linecap:round;stroke-linejoin:round;stroke-miterlimit:10;}
</style>
<defs>
</defs>
<polygon class="st0" points="34.9,9.9 41.5,1.5 44.4,11.8 53.8,6.6 52.5,17.2 63.1,16 58,25.3 68.2,28.2 59.9,34.9 68.2,41.5 
	58,44.4 63.1,53.8 52.5,52.5 53.8,63.1 44.4,58 41.5,68.2 34.9,59.9 28.2,68.2 25.3,58 16,63.1 17.2,52.5 6.6,53.8 11.8,44.4 
	1.5,41.5 9.9,34.9 1.5,28.2 11.8,25.3 6.6,16 17.2,17.2 16,6.6 25.3,11.8 28.2,1.5 "/>
<g>
	<path d="M21.4,30.1c0-3.3,2.7-5.6,5.7-5.6c3,0,5.7,2.3,5.7,5.6c0,3.3-2.7,5.6-5.7,5.6C24,35.7,21.4,33.4,21.4,30.1z M29.3,30.1
		c0-1.4-1.1-2.4-2.3-2.4s-2.3,0.9-2.3,2.4c0,1.4,1.1,2.4,2.3,2.4S29.3,31.6,29.3,30.1z M38.8,24.8h3.9L31,44.9h-3.9L38.8,24.8z
		 M36.9,39.6c0-3.3,2.7-5.6,5.7-5.6c3,0,5.7,2.3,5.7,5.6c0,3.3-2.7,5.6-5.7,5.6C39.6,45.2,36.9,42.9,36.9,39.6z M44.9,39.6
		c0-1.4-1.1-2.4-2.3-2.4c-1.2,0-2.3,0.9-2.3,2.4c0,1.4,1.1,2.4,2.3,2.4C43.9,42,44.9,41,44.9,39.6z"/>
</g>
</svg>