<!-- Generator: Adobe Illustrator 19.0.0, SVG Export Plug-In  -->
<svg version="1.1"
	 xmlns="http://www.w3.org/2000/svg" xmlns:xlink="http://www.w3.org/1999/xlink" xmlns:a="http://ns.adobe.com/AdobeSVGViewerExtensions/3.0/"
	 x="0px" y="0px" width="747.7px" height="81.6px" viewBox="0 0 747.7 81.6" style="enable-background:new 0 0 747.7 81.6;"
	 xml:space="preserve">
<style type="text/css">
	.st0{fill:none;stroke:#15103F;stroke-width:3;stroke-miterlimit:10;}
	.st1{fill:#15103F;}
</style>
<defs>
</defs>
<line class="st0" x1="0" y1="16" x2="747.7" y2="16"/>
<circle class="st1" cx="83.3" cy="16.7" r="16.7"/>
<circle class="st1" cx="377.3" cy="16.7" r="16.7"/>
<circle class="st1" cx="678.7" cy="16.7" r="16.7"/>
<g>
	<path d="M76.4,55.3h-4.9v-8.6h4.9v1.5h-3.1v1.9h2.9v1.5h-2.9v2.2h3.1V55.3z"/>
	<path d="M84.1,55.3h-1.8v-3.8c0-0.5-0.1-0.8-0.3-1.1s-0.4-0.4-0.8-0.4c-0.5,0-0.9,0.2-1.1,0.5s-0.3,0.9-0.3,1.7v3.1H78v-6.6h1.4
		l0.2,0.8h0.1c0.2-0.3,0.5-0.6,0.8-0.7s0.7-0.2,1.2-0.2c0.8,0,1.3,0.2,1.7,0.6s0.6,1,0.6,1.8V55.3z"/>
	<path d="M88,55.4c-0.8,0-1.4-0.3-1.8-0.9s-0.7-1.4-0.7-2.5c0-1.1,0.2-1.9,0.7-2.5s1.1-0.9,1.8-0.9c0.8,0,1.5,0.3,1.9,1H90
		c-0.1-0.5-0.1-0.9-0.1-1.3v-2.1h1.8v9.1h-1.4l-0.3-0.8h-0.1C89.4,55.1,88.8,55.4,88,55.4z M88.6,54c0.5,0,0.8-0.1,1-0.4
		s0.3-0.7,0.3-1.4v-0.2c0-0.7-0.1-1.2-0.3-1.5s-0.6-0.5-1.1-0.5c-0.4,0-0.7,0.2-0.9,0.5s-0.3,0.8-0.3,1.5s0.1,1.1,0.3,1.4
		S88.2,54,88.6,54z"/>
	<path d="M98.1,53.4c0,0.7-0.2,1.2-0.7,1.5s-1.2,0.5-2.1,0.5c-0.5,0-0.9,0-1.2-0.1s-0.7-0.2-0.9-0.3v-1.5c0.3,0.2,0.7,0.3,1.1,0.4
		s0.8,0.2,1.1,0.2c0.6,0,1-0.2,1-0.6c0-0.1,0-0.3-0.1-0.3S96,53,95.7,52.9s-0.5-0.2-0.8-0.4c-0.5-0.2-0.9-0.4-1.1-0.6
		s-0.4-0.4-0.5-0.6s-0.2-0.5-0.2-0.9c0-0.6,0.2-1,0.7-1.4s1.1-0.5,1.9-0.5c0.8,0,1.6,0.2,2.3,0.5l-0.5,1.3c-0.3-0.1-0.6-0.3-0.9-0.3
		S96,50,95.7,50c-0.5,0-0.8,0.1-0.8,0.4c0,0.2,0.1,0.3,0.3,0.4s0.5,0.3,1.1,0.5c0.5,0.2,0.9,0.4,1.1,0.6s0.4,0.4,0.5,0.6
		S98.1,53.1,98.1,53.4z"/>
	<path d="M73.2,69.7h-1.8v-8.6h4.9v1.5h-3.1v2.2h2.9v1.5h-2.9V69.7z"/>
	<path d="M80.9,69.8c-1.1,0-1.9-0.3-2.5-0.9s-0.9-1.4-0.9-2.5c0-1.1,0.3-1.9,0.8-2.5s1.3-0.9,2.3-0.9c0.9,0,1.6,0.3,2.2,0.8
		s0.8,1.3,0.8,2.2v0.9h-4.2c0,0.5,0.2,0.9,0.5,1.2s0.7,0.4,1.2,0.4c0.4,0,0.8,0,1.1-0.1s0.7-0.2,1.1-0.4v1.4c-0.3,0.2-0.6,0.3-1,0.3
		S81.4,69.8,80.9,69.8z M80.6,64.3c-0.4,0-0.7,0.1-0.9,0.4s-0.3,0.6-0.4,1h2.5c0-0.4-0.1-0.8-0.3-1S81,64.3,80.6,64.3z"/>
	<path d="M88.6,63.1c0.8,0,1.4,0.3,1.8,0.9s0.7,1.4,0.7,2.5c0,1.1-0.2,1.9-0.7,2.5s-1.1,0.9-1.8,0.9c-0.8,0-1.4-0.3-1.8-0.8h-0.1
		l-0.3,0.7H85v-9.1h1.8v2.1c0,0.3,0,0.7-0.1,1.3h0.1C87.2,63.4,87.8,63.1,88.6,63.1z M88.1,64.5c-0.4,0-0.8,0.1-1,0.4
		s-0.3,0.7-0.3,1.3v0.2c0,0.7,0.1,1.2,0.3,1.5s0.5,0.5,1,0.5c0.4,0,0.7-0.2,0.9-0.5s0.3-0.8,0.3-1.5S89.2,65.3,89,65
		S88.4,64.5,88.1,64.5z"/>
	<path d="M96.2,63.1c0.2,0,0.4,0,0.6,0.1l-0.1,1.7c-0.1,0-0.3-0.1-0.5-0.1c-0.6,0-1,0.1-1.3,0.4s-0.5,0.7-0.5,1.2v3.3h-1.8v-6.6h1.4
		l0.3,1.1h0.1c0.2-0.4,0.5-0.7,0.8-0.9S95.8,63.1,96.2,63.1z"/>
	<path d="M102.7,69.7l-0.2-0.8h-0.1c-0.2,0.3-0.5,0.5-0.8,0.7s-0.8,0.3-1.2,0.3c-0.8,0-1.3-0.2-1.7-0.6s-0.6-1-0.6-1.8v-4.3h1.8V67
		c0,0.5,0.1,0.8,0.3,1.1s0.4,0.4,0.8,0.4c0.5,0,0.9-0.2,1.1-0.5s0.3-0.9,0.3-1.7v-3.1h1.8v6.6H102.7z"/>
	<path d="M110.1,69.7l-0.3-0.9h0c-0.3,0.4-0.6,0.6-0.9,0.8s-0.7,0.2-1.2,0.2c-0.6,0-1.1-0.2-1.5-0.5s-0.5-0.9-0.5-1.5
		c0-0.7,0.2-1.2,0.7-1.5s1.2-0.5,2.2-0.5l1.1,0v-0.3c0-0.7-0.3-1-1-1c-0.5,0-1.1,0.2-1.8,0.5l-0.6-1.2c0.8-0.4,1.6-0.6,2.5-0.6
		c0.9,0,1.6,0.2,2,0.6s0.7,1,0.7,1.7v4.4H110.1z M109.5,66.7l-0.7,0c-0.5,0-0.9,0.1-1.2,0.3s-0.4,0.4-0.4,0.8c0,0.5,0.3,0.8,0.9,0.8
		c0.4,0,0.7-0.1,1-0.4s0.4-0.6,0.4-0.9V66.7z"/>
	<path d="M116.8,63.1c0.2,0,0.4,0,0.6,0.1l-0.1,1.7c-0.1,0-0.3-0.1-0.5-0.1c-0.6,0-1,0.1-1.3,0.4s-0.5,0.7-0.5,1.2v3.3h-1.8v-6.6
		h1.4l0.3,1.1h0.1c0.2-0.4,0.5-0.7,0.8-0.9S116.4,63.1,116.8,63.1z"/>
	<path d="M117.7,63.2h2l1.2,3.7c0.1,0.3,0.2,0.7,0.2,1.1h0c0-0.4,0.1-0.8,0.3-1.1l1.2-3.7h1.9l-2.8,7.4c-0.3,0.7-0.6,1.2-1.1,1.5
		s-1,0.5-1.6,0.5c-0.3,0-0.6,0-0.9-0.1v-1.4c0.2,0.1,0.4,0.1,0.7,0.1c0.3,0,0.6-0.1,0.8-0.3s0.4-0.5,0.6-0.9l0.1-0.3L117.7,63.2z"/>
	<path d="M132.6,69.7h-1.8v-5l0-0.8l0-0.9c-0.3,0.3-0.5,0.5-0.6,0.6l-1,0.8l-0.9-1.1l2.8-2.2h1.5V69.7z"/>
	<path d="M141.1,68h-1v1.8h-1.8V68h-3.7v-1.3l3.8-5.5h1.7v5.4h1V68z M138.3,66.5v-1.5c0-0.2,0-0.6,0-1.1s0-0.7,0-0.8h0
		c-0.1,0.3-0.3,0.6-0.5,0.9l-1.6,2.4H138.3z"/>
</g>
<g>
	<path d="M364.5,52.5c-0.4,0-0.8,0-1.1-0.1v-1.5c0.3,0.1,0.6,0.1,0.9,0.1c0.4,0,0.7-0.1,0.9-0.4s0.3-0.6,0.3-1.2v-8h1.8v8
		c0,1-0.2,1.8-0.7,2.3S365.4,52.5,364.5,52.5z"/>
	<path d="M373.4,49.9l-0.3-0.9h0c-0.3,0.4-0.6,0.6-0.9,0.8s-0.7,0.2-1.2,0.2c-0.6,0-1.1-0.2-1.5-0.5s-0.5-0.9-0.5-1.5
		c0-0.7,0.2-1.2,0.7-1.5s1.2-0.5,2.2-0.5l1.1,0v-0.3c0-0.7-0.3-1-1-1c-0.5,0-1.1,0.2-1.8,0.5l-0.6-1.2c0.8-0.4,1.6-0.6,2.5-0.6
		c0.9,0,1.6,0.2,2,0.6s0.7,1,0.7,1.7v4.4H373.4z M372.8,46.9l-0.7,0c-0.5,0-0.9,0.1-1.2,0.3s-0.4,0.4-0.4,0.8c0,0.5,0.3,0.8,0.9,0.8
		c0.4,0,0.7-0.1,1-0.4s0.4-0.6,0.4-0.9V46.9z"/>
	<path d="M382.5,49.9h-1.8v-3.8c0-0.5-0.1-0.8-0.3-1.1s-0.4-0.4-0.8-0.4c-0.5,0-0.9,0.2-1.1,0.5s-0.3,0.9-0.3,1.7v3.1h-1.8v-6.6h1.4
		l0.2,0.8h0.1c0.2-0.3,0.5-0.6,0.8-0.7s0.7-0.2,1.2-0.2c0.8,0,1.3,0.2,1.7,0.6s0.6,1,0.6,1.8V49.9z"/>
	<path d="M389,49.9l-0.2-0.8h-0.1c-0.2,0.3-0.5,0.5-0.8,0.7s-0.8,0.2-1.2,0.2c-0.8,0-1.3-0.2-1.7-0.6s-0.6-1-0.6-1.8v-4.3h1.8v3.8
		c0,0.5,0.1,0.8,0.3,1.1s0.4,0.4,0.8,0.4c0.5,0,0.9-0.2,1.1-0.5s0.3-0.9,0.3-1.7v-3.1h1.8v6.6H389z"/>
	<path d="M396.4,49.9l-0.3-0.9h0c-0.3,0.4-0.6,0.6-0.9,0.8s-0.7,0.2-1.2,0.2c-0.6,0-1.1-0.2-1.5-0.5s-0.5-0.9-0.5-1.5
		c0-0.7,0.2-1.2,0.7-1.5s1.2-0.5,2.2-0.5l1.1,0v-0.3c0-0.7-0.3-1-1-1c-0.5,0-1.1,0.2-1.8,0.5l-0.6-1.2c0.8-0.4,1.6-0.6,2.5-0.6
		c0.9,0,1.6,0.2,2,0.6s0.7,1,0.7,1.7v4.4H396.4z M395.9,46.9l-0.7,0c-0.5,0-0.9,0.1-1.2,0.3s-0.4,0.4-0.4,0.8c0,0.5,0.3,0.8,0.9,0.8
		c0.4,0,0.7-0.1,1-0.4s0.4-0.6,0.4-0.9V46.9z"/>
	<path d="M403.1,43.3c0.2,0,0.4,0,0.6,0.1l-0.1,1.7c-0.1,0-0.3-0.1-0.5-0.1c-0.6,0-1,0.1-1.3,0.4s-0.5,0.7-0.5,1.2v3.3h-1.8v-6.6
		h1.4l0.3,1.1h0.1c0.2-0.4,0.5-0.7,0.8-0.9S402.7,43.3,403.1,43.3z"/>
	<path d="M404,43.4h2l1.2,3.7c0.1,0.3,0.2,0.7,0.2,1.1h0c0-0.4,0.1-0.8,0.3-1.1l1.2-3.7h1.9l-2.8,7.4c-0.3,0.7-0.6,1.2-1.1,1.5
		s-1,0.5-1.6,0.5c-0.3,0-0.6,0-0.9-0.1v-1.4c0.2,0.1,0.4,0.1,0.7,0.1c0.3,0,0.6-0.1,0.8-0.3s0.4-0.5,0.6-0.9l0.1-0.3L404,43.4z"/>
	<path d="M420.4,49.9h-6v-1.3l2.2-2.2c0.6-0.7,1.1-1.1,1.2-1.4s0.3-0.5,0.4-0.7s0.1-0.4,0.1-0.7c0-0.3-0.1-0.6-0.3-0.8
		s-0.4-0.3-0.8-0.3c-0.3,0-0.7,0.1-1,0.2s-0.6,0.4-1,0.7l-1-1.2c0.4-0.4,0.8-0.6,1-0.8s0.6-0.3,0.9-0.3s0.7-0.1,1.1-0.1
		c0.5,0,1,0.1,1.4,0.3s0.7,0.5,1,0.8s0.3,0.8,0.3,1.2c0,0.4-0.1,0.8-0.2,1.1s-0.4,0.7-0.6,1.1s-0.8,0.9-1.5,1.6l-1.1,1v0.1h3.7V49.9
		z"/>
	<path d="M421.2,46.3c0-1.7,0.4-3,1.1-3.8s1.8-1.2,3.2-1.2c0.5,0,0.9,0,1.1,0.1v1.4c-0.3-0.1-0.7-0.1-1-0.1c-0.6,0-1.1,0.1-1.5,0.3
		s-0.7,0.5-0.9,0.8s-0.3,0.9-0.3,1.6h0.1c0.4-0.7,1-1,1.9-1c0.8,0,1.4,0.2,1.8,0.7s0.7,1.1,0.7,2c0,0.9-0.3,1.6-0.8,2.2
		s-1.2,0.8-2.1,0.8c-0.6,0-1.2-0.1-1.7-0.4s-0.8-0.7-1.1-1.3S421.2,47.1,421.2,46.3z M424.3,48.6c0.4,0,0.7-0.1,0.9-0.4
		s0.3-0.6,0.3-1.1c0-0.4-0.1-0.7-0.3-1s-0.5-0.4-0.9-0.4c-0.4,0-0.7,0.1-0.9,0.4S423,46.6,423,47c0,0.5,0.1,0.9,0.4,1.2
		S423.9,48.6,424.3,48.6z"/>
	<path d="M368,63c0.3,0,0.7-0.1,1.1-0.2v1.3c-0.4,0.2-1,0.3-1.6,0.3c-0.7,0-1.2-0.2-1.6-0.5s-0.5-0.9-0.5-1.6v-3.2h-0.9v-0.8l1-0.6
		l0.5-1.4h1.1v1.4h1.8v1.3h-1.8v3.2c0,0.3,0.1,0.4,0.2,0.6S367.7,63,368,63z"/>
	<path d="M376.4,61.1c0,1.1-0.3,1.9-0.8,2.5s-1.3,0.9-2.3,0.9c-0.6,0-1.2-0.1-1.7-0.4s-0.8-0.7-1.1-1.2s-0.4-1.1-0.4-1.8
		c0-1.1,0.3-1.9,0.8-2.5s1.3-0.9,2.4-0.9c0.6,0,1.2,0.1,1.7,0.4s0.8,0.7,1.1,1.2S376.4,60.4,376.4,61.1z M371.9,61.1
		c0,0.6,0.1,1.1,0.3,1.5s0.6,0.5,1,0.5c0.5,0,0.8-0.2,1-0.5s0.3-0.8,0.3-1.5c0-0.6-0.1-1.1-0.3-1.5s-0.6-0.5-1-0.5
		c-0.5,0-0.8,0.2-1,0.5S371.9,60.4,371.9,61.1z"/>
	<path d="M367.2,78.7h-1.8v-8.6h4.9v1.5h-3.1v2.2h2.9v1.5h-2.9V78.7z"/>
	<path d="M374.8,78.9c-1.1,0-1.9-0.3-2.5-0.9s-0.9-1.4-0.9-2.5c0-1.1,0.3-1.9,0.8-2.5s1.3-0.9,2.3-0.9c0.9,0,1.6,0.3,2.2,0.8
		s0.8,1.3,0.8,2.2v0.9h-4.2c0,0.5,0.2,0.9,0.5,1.2s0.7,0.4,1.2,0.4c0.4,0,0.8,0,1.1-0.1s0.7-0.2,1.1-0.4v1.4c-0.3,0.2-0.6,0.3-1,0.3
		S375.3,78.9,374.8,78.9z M374.5,73.3c-0.4,0-0.7,0.1-0.9,0.4s-0.3,0.6-0.4,1h2.5c0-0.4-0.1-0.8-0.3-1S374.9,73.3,374.5,73.3z"/>
	<path d="M382.5,72.1c0.8,0,1.4,0.3,1.8,0.9s0.7,1.4,0.7,2.5c0,1.1-0.2,1.9-0.7,2.5s-1.1,0.9-1.8,0.9c-0.8,0-1.4-0.3-1.8-0.8h-0.1
		l-0.3,0.7h-1.4v-9.1h1.8v2.1c0,0.3,0,0.7-0.1,1.3h0.1C381.1,72.4,381.7,72.1,382.5,72.1z M382,73.5c-0.4,0-0.8,0.1-1,0.4
		s-0.3,0.7-0.3,1.3v0.2c0,0.7,0.1,1.2,0.3,1.5s0.5,0.5,1,0.5c0.4,0,0.7-0.2,0.9-0.5s0.3-0.8,0.3-1.5s-0.1-1.1-0.3-1.5
		S382.3,73.5,382,73.5z"/>
	<path d="M390.1,72.1c0.2,0,0.4,0,0.6,0.1l-0.1,1.7c-0.1,0-0.3-0.1-0.5-0.1c-0.6,0-1,0.1-1.3,0.4s-0.5,0.7-0.5,1.2v3.3h-1.8v-6.6
		h1.4l0.3,1.1h0.1c0.2-0.4,0.5-0.7,0.8-0.9S389.7,72.1,390.1,72.1z"/>
	<path d="M396.6,78.7l-0.2-0.8h-0.1c-0.2,0.3-0.5,0.5-0.8,0.7s-0.8,0.2-1.2,0.2c-0.8,0-1.3-0.2-1.7-0.6s-0.6-1-0.6-1.8v-4.3h1.8V76
		c0,0.5,0.1,0.8,0.3,1.1s0.4,0.4,0.8,0.4c0.5,0,0.9-0.2,1.1-0.5s0.3-0.9,0.3-1.7v-3.1h1.8v6.6H396.6z"/>
	<path d="M404,78.7l-0.3-0.9h0c-0.3,0.4-0.6,0.6-0.9,0.8s-0.7,0.2-1.2,0.2c-0.6,0-1.1-0.2-1.5-0.5s-0.5-0.9-0.5-1.5
		c0-0.7,0.2-1.2,0.7-1.5s1.2-0.5,2.2-0.5l1.1,0v-0.3c0-0.7-0.3-1-1-1c-0.5,0-1.1,0.2-1.8,0.5l-0.6-1.2c0.8-0.4,1.6-0.6,2.5-0.6
		c0.9,0,1.6,0.2,2,0.6s0.7,1,0.7,1.7v4.4H404z M403.5,75.7l-0.7,0c-0.5,0-0.9,0.1-1.2,0.3s-0.4,0.4-0.4,0.8c0,0.5,0.3,0.8,0.9,0.8
		c0.4,0,0.7-0.1,1-0.4s0.4-0.6,0.4-0.9V75.7z"/>
	<path d="M410.7,72.1c0.2,0,0.4,0,0.6,0.1l-0.1,1.7c-0.1,0-0.3-0.1-0.5-0.1c-0.6,0-1,0.1-1.3,0.4s-0.5,0.7-0.5,1.2v3.3h-1.8v-6.6
		h1.4l0.3,1.1h0.1c0.2-0.4,0.5-0.7,0.8-0.9S410.3,72.1,410.7,72.1z"/>
	<path d="M411.6,72.2h2l1.2,3.7c0.1,0.3,0.2,0.7,0.2,1.1h0c0-0.4,0.1-0.8,0.3-1.1l1.2-3.7h1.9l-2.8,7.4c-0.3,0.7-0.6,1.2-1.1,1.5
		s-1,0.5-1.6,0.5c-0.3,0-0.6,0-0.9-0.1v-1.4c0.2,0.1,0.4,0.1,0.7,0.1c0.3,0,0.6-0.1,0.8-0.3s0.4-0.5,0.6-0.9l0.1-0.3L411.6,72.2z"/>
	<path d="M425,70.1c0.8,0,1.5,0.2,2,0.6s0.8,0.9,0.8,1.5c0,0.4-0.1,0.8-0.4,1.2s-0.6,0.6-1.2,0.9c0.6,0.3,1.1,0.7,1.4,1.1
		s0.4,0.8,0.4,1.2c0,0.7-0.3,1.3-0.8,1.7s-1.3,0.6-2.2,0.6c-0.9,0-1.7-0.2-2.2-0.6s-0.8-1-0.8-1.7c0-0.5,0.1-0.9,0.4-1.3
		s0.7-0.7,1.3-1c-0.5-0.3-0.8-0.6-1.1-1s-0.3-0.7-0.3-1.2c0-0.6,0.3-1.1,0.8-1.5S424.1,70.1,425,70.1z M423.6,76.5
		c0,0.3,0.1,0.6,0.4,0.8s0.6,0.3,1,0.3c0.4,0,0.8-0.1,1-0.3s0.3-0.4,0.3-0.8c0-0.3-0.1-0.5-0.3-0.7s-0.6-0.5-1.1-0.7
		C424,75.4,423.6,75.9,423.6,76.5z M425,71.4c-0.3,0-0.6,0.1-0.7,0.2s-0.3,0.4-0.3,0.6c0,0.2,0.1,0.4,0.2,0.6s0.4,0.4,0.8,0.6
		c0.4-0.2,0.7-0.4,0.8-0.6s0.2-0.4,0.2-0.7c0-0.3-0.1-0.5-0.3-0.6S425.3,71.4,425,71.4z"/>
</g>
<g>
	<path d="M670.1,54h-4.9v-8.6h4.9v1.5H667v1.9h2.9v1.5H667v2.2h3.1V54z"/>
	<path d="M677.8,54H676v-3.8c0-0.5-0.1-0.8-0.3-1.1s-0.4-0.4-0.8-0.4c-0.5,0-0.9,0.2-1.1,0.5s-0.3,0.9-0.3,1.7V54h-1.8v-6.6h1.4
		l0.2,0.8h0.1c0.2-0.3,0.5-0.6,0.8-0.7s0.7-0.2,1.2-0.2c0.8,0,1.3,0.2,1.7,0.6s0.6,1,0.6,1.8V54z"/>
	<path d="M681.7,54.1c-0.8,0-1.4-0.3-1.8-0.9s-0.7-1.4-0.7-2.5c0-1.1,0.2-1.9,0.7-2.5s1.1-0.9,1.8-0.9c0.8,0,1.5,0.3,1.9,1h0.1
		c-0.1-0.5-0.1-0.9-0.1-1.3v-2.1h1.8V54H684l-0.3-0.8h-0.1C683.2,53.8,682.6,54.1,681.7,54.1z M682.4,52.7c0.5,0,0.8-0.1,1-0.4
		s0.3-0.7,0.3-1.4v-0.2c0-0.7-0.1-1.2-0.3-1.5s-0.6-0.5-1.1-0.5c-0.4,0-0.7,0.2-0.9,0.5s-0.3,0.8-0.3,1.5s0.1,1.1,0.3,1.5
		S682,52.7,682.4,52.7z"/>
	<path d="M691.8,52c0,0.7-0.2,1.2-0.7,1.5s-1.2,0.5-2.1,0.5c-0.5,0-0.9,0-1.2-0.1s-0.7-0.2-0.9-0.3v-1.5c0.3,0.2,0.7,0.3,1.1,0.4
		s0.8,0.2,1.1,0.2c0.6,0,1-0.2,1-0.6c0-0.1,0-0.3-0.1-0.3s-0.2-0.2-0.4-0.3s-0.5-0.2-0.8-0.4c-0.5-0.2-0.9-0.4-1.1-0.6
		s-0.4-0.4-0.5-0.6s-0.2-0.5-0.2-0.9c0-0.6,0.2-1,0.7-1.4s1.1-0.5,1.9-0.5c0.8,0,1.6,0.2,2.3,0.5l-0.5,1.3c-0.3-0.1-0.6-0.3-0.9-0.3
		s-0.6-0.1-0.9-0.1c-0.5,0-0.8,0.1-0.8,0.4c0,0.2,0.1,0.3,0.3,0.4s0.5,0.3,1.1,0.5c0.5,0.2,0.9,0.4,1.1,0.6s0.4,0.4,0.5,0.6
		S691.8,51.7,691.8,52z"/>
	<path d="M670.4,68.4l-0.6-2h-3.1l-0.6,2h-2l3-8.6h2.2l3,8.6H670.4z M669.4,64.8c-0.6-1.8-0.9-2.9-1-3.1s-0.1-0.4-0.2-0.6
		c-0.1,0.5-0.5,1.7-1.1,3.7H669.4z"/>
	<path d="M676.9,68.5c-0.8,0-1.4-0.3-1.8-0.8H675c0.1,0.5,0.1,0.9,0.1,0.9v2.7h-1.8v-9.4h1.5l0.3,0.8h0.1c0.4-0.6,1-1,1.9-1
		c0.8,0,1.4,0.3,1.8,0.9s0.7,1.4,0.7,2.5c0,0.7-0.1,1.3-0.3,1.8s-0.5,0.9-0.9,1.2S677.4,68.5,676.9,68.5z M676.4,63.1
		c-0.4,0-0.8,0.1-1,0.4s-0.3,0.7-0.3,1.3v0.2c0,0.7,0.1,1.2,0.3,1.5s0.5,0.5,1,0.5c0.8,0,1.2-0.7,1.2-2c0-0.6-0.1-1.1-0.3-1.5
		S676.8,63.1,676.4,63.1z"/>
	<path d="M684.6,61.7c0.2,0,0.4,0,0.6,0.1l-0.1,1.7c-0.1,0-0.3-0.1-0.5-0.1c-0.6,0-1,0.1-1.3,0.4s-0.5,0.7-0.5,1.2v3.3h-1.8v-6.6
		h1.4l0.3,1.1h0.1c0.2-0.4,0.5-0.7,0.8-0.9S684.2,61.7,684.6,61.7z"/>
	<path d="M686.3,60.1c0-0.6,0.3-0.9,1-0.9s1,0.3,1,0.9c0,0.3-0.1,0.5-0.2,0.6s-0.4,0.2-0.7,0.2C686.6,61,686.3,60.7,686.3,60.1z
		 M688.2,68.4h-1.8v-6.6h1.8V68.4z"/>
	<path d="M691.8,68.4H690v-9.1h1.8V68.4z"/>
	<path d="M702,61.7c0,0.5-0.2,1-0.5,1.4s-0.8,0.6-1.4,0.8v0c0.7,0.1,1.2,0.3,1.6,0.6s0.5,0.8,0.5,1.4c0,0.8-0.3,1.5-0.9,1.9
		s-1.5,0.7-2.6,0.7c-0.9,0-1.8-0.2-2.5-0.5v-1.5c0.3,0.2,0.7,0.3,1.1,0.4s0.8,0.2,1.2,0.2c0.6,0,1-0.1,1.3-0.3s0.4-0.5,0.4-1
		c0-0.4-0.2-0.7-0.5-0.9s-0.9-0.3-1.6-0.3h-0.7v-1.4h0.7c0.7,0,1.1-0.1,1.5-0.3s0.5-0.5,0.5-0.9c0-0.6-0.4-1-1.2-1
		c-0.3,0-0.6,0-0.9,0.1s-0.6,0.3-1,0.5l-0.8-1.2c0.8-0.6,1.7-0.8,2.8-0.8c0.9,0,1.6,0.2,2.1,0.5S702,61.1,702,61.7z"/>
	<path d="M709.2,64.1c0,1.5-0.2,2.6-0.7,3.3s-1.2,1.1-2.3,1.1c-1,0-1.7-0.4-2.2-1.1s-0.8-1.8-0.8-3.3c0-1.5,0.2-2.6,0.7-3.3
		s1.2-1.1,2.3-1.1c1,0,1.7,0.4,2.2,1.1S709.2,62.7,709.2,64.1z M705,64.1c0,1.1,0.1,1.8,0.3,2.3s0.5,0.7,0.9,0.7
		c0.4,0,0.7-0.2,0.9-0.7s0.3-1.2,0.3-2.3c0-1.1-0.1-1.8-0.3-2.3s-0.5-0.7-0.9-0.7c-0.4,0-0.7,0.2-0.9,0.7S705,63,705,64.1z"/>
</g>
</svg>