<?xml version="1.0" encoding="utf-8"?>
<!-- Generator: Adobe Illustrator 19.0.0, SVG Export Plug-In . SVG Version: 6.00 Build 0)  -->
<svg version="1.1" id="Layer_1" xmlns="http://www.w3.org/2000/svg" xmlns:xlink="http://www.w3.org/1999/xlink" x="0px" y="0px"
	 viewBox="0 0 506 53" style="enable-background:new 0 0 506 53;" xml:space="preserve">
<style type="text/css">
	.st0{fill:#E0E0DF;stroke:#16123F;stroke-width:3;stroke-linecap:round;stroke-linejoin:round;stroke-miterlimit:10;}
	.st1{fill:#16123F;}
</style>
<polygon class="st0" points="504.5,51.5 1.5,51.5 18.5,25.5 1.5,1.5 504.5,1.5 487.5,24.5 "/>
<g id="XMLID_14_">
	<path id="XMLID_15_" class="st1" d="M81.7,36.2l-5.9-19.3h-0.2c0.2,3.9,0.3,6.5,0.3,7.9v11.4h-4.7V11.6h7.1l5.8,18.8h0.1l6.2-18.8
		h7.1v24.6h-4.9V24.6c0-0.5,0-1.2,0-1.9c0-0.7,0.1-2.6,0.2-5.7h-0.2l-6.3,19.3H81.7z"/>
	<path id="XMLID_17_" class="st1" d="M126.1,23.9c0,4.1-1,7.2-3,9.4c-2,2.2-4.9,3.3-8.7,3.3c-3.8,0-6.7-1.1-8.7-3.3
		c-2-2.2-3-5.3-3-9.4c0-4.1,1-7.2,3-9.4c2-2.2,4.9-3.2,8.7-3.2c3.8,0,6.7,1.1,8.7,3.3C125.1,16.7,126.1,19.8,126.1,23.9z
		 M108.1,23.9c0,2.7,0.5,4.8,1.6,6.2c1,1.4,2.6,2.1,4.7,2.1c4.2,0,6.2-2.8,6.2-8.3c0-5.5-2.1-8.3-6.2-8.3c-2.1,0-3.6,0.7-4.7,2.1
		C108.6,19.1,108.1,21.1,108.1,23.9z"/>
	<path id="XMLID_20_" class="st1" d="M136.4,26.8v9.4h-5.2V11.6h7.2c3.3,0,5.8,0.6,7.4,1.8s2.4,3.1,2.4,5.5c0,1.4-0.4,2.7-1.2,3.9
		c-0.8,1.1-1.9,2-3.4,2.7l7.2,10.7H145l-5.9-9.4H136.4z M136.4,22.5h1.7c1.6,0,2.9-0.3,3.7-0.8c0.8-0.5,1.2-1.4,1.2-2.6
		c0-1.2-0.4-2-1.2-2.5s-2-0.7-3.7-0.7h-1.6V22.5z"/>
	<path id="XMLID_23_" class="st1" d="M168.1,36.2h-14.2V11.6h14.2v4.3h-9v5.4h8.3v4.3h-8.3v6.3h9V36.2z"/>
	<path id="XMLID_25_" class="st1" d="M192.6,15.6c-2,0-3.5,0.7-4.6,2.2c-1.1,1.5-1.6,3.5-1.6,6.2c0,5.5,2.1,8.2,6.2,8.2
		c1.7,0,3.8-0.4,6.3-1.3v4.4c-2,0.8-4.3,1.3-6.8,1.3c-3.6,0-6.3-1.1-8.2-3.3s-2.8-5.3-2.8-9.3c0-2.6,0.5-4.8,1.4-6.7
		c0.9-1.9,2.3-3.4,4-4.4c1.7-1,3.8-1.5,6.1-1.5c2.4,0,4.8,0.6,7.2,1.7l-1.7,4.2c-0.9-0.4-1.8-0.8-2.8-1.1
		C194.4,15.8,193.5,15.6,192.6,15.6z"/>
	<path id="XMLID_27_" class="st1" d="M226.1,23.9c0,4.1-1,7.2-3,9.4c-2,2.2-4.9,3.3-8.7,3.3c-3.8,0-6.7-1.1-8.7-3.3
		c-2-2.2-3-5.3-3-9.4c0-4.1,1-7.2,3-9.4c2-2.2,4.9-3.2,8.7-3.2s6.7,1.1,8.7,3.3S226.1,19.8,226.1,23.9z M208.2,23.9
		c0,2.7,0.5,4.8,1.6,6.2c1,1.4,2.6,2.1,4.7,2.1c4.2,0,6.2-2.8,6.2-8.3c0-5.5-2.1-8.3-6.2-8.3c-2.1,0-3.6,0.7-4.7,2.1
		C208.7,19.1,208.2,21.1,208.2,23.9z"/>
	<path id="XMLID_30_" class="st1" d="M241.7,36.2l-5.9-19.3h-0.2c0.2,3.9,0.3,6.5,0.3,7.9v11.4h-4.7V11.6h7.1l5.8,18.8h0.1l6.2-18.8
		h7.1v24.6h-4.9V24.6c0-0.5,0-1.2,0-1.9s0.1-2.6,0.2-5.7h-0.2l-6.3,19.3H241.7z"/>
	<path id="XMLID_32_" class="st1" d="M272.9,36.2h-11.2v-3l3-1.4V16l-3-1.4v-3h11.2v3l-3,1.4v15.9l3,1.4V36.2z"/>
	<path id="XMLID_34_" class="st1" d="M299,36.2h-6.6l-10.7-18.6h-0.2c0.2,3.3,0.3,5.6,0.3,7v11.6h-4.7V11.6h6.6L294.4,30h0.1
		c-0.2-3.2-0.3-5.5-0.3-6.8V11.6h4.7V36.2z"/>
	<path id="XMLID_36_" class="st1" d="M314.5,22.4h9.8v12.8c-1.6,0.5-3.1,0.9-4.5,1.1c-1.4,0.2-2.8,0.3-4.3,0.3
		c-3.7,0-6.5-1.1-8.5-3.3c-2-2.2-2.9-5.3-2.9-9.4c0-4,1.1-7.1,3.4-9.3c2.3-2.2,5.4-3.3,9.4-3.3c2.5,0,5,0.5,7.3,1.5l-1.7,4.2
		c-1.8-0.9-3.7-1.3-5.6-1.3c-2.3,0-4.1,0.8-5.4,2.3c-1.4,1.5-2,3.6-2,6.1c0,2.7,0.5,4.7,1.6,6.1c1.1,1.4,2.7,2.1,4.8,2.1
		c1.1,0,2.2-0.1,3.3-0.3v-5.1h-4.7V22.4z"/>
	<path id="XMLID_38_" class="st1" d="M353.6,29.4c0,2.2-0.8,4-2.4,5.3c-1.6,1.3-3.8,1.9-6.7,1.9c-2.6,0-4.9-0.5-7-1.5v-4.8
		c1.7,0.7,3.1,1.3,4.2,1.6c1.1,0.3,2.2,0.5,3.2,0.5c1.1,0,2-0.2,2.6-0.7c0.6-0.4,0.9-1.1,0.9-2c0-0.5-0.1-0.9-0.4-1.3
		s-0.7-0.7-1.2-1.1c-0.5-0.3-1.6-0.9-3.2-1.7c-1.5-0.7-2.6-1.4-3.4-2c-0.8-0.7-1.4-1.4-1.8-2.3c-0.4-0.9-0.7-1.9-0.7-3
		c0-2.2,0.7-3.9,2.2-5.1c1.5-1.2,3.5-1.9,6.1-1.9c1.3,0,2.5,0.2,3.7,0.5s2.4,0.7,3.6,1.3l-1.7,4.1c-1.3-0.5-2.4-0.9-3.3-1.1
		c-0.9-0.2-1.7-0.3-2.5-0.3c-1,0-1.7,0.2-2.3,0.7c-0.5,0.5-0.8,1.1-0.8,1.8c0,0.5,0.1,0.9,0.3,1.2c0.2,0.3,0.6,0.7,1,1
		s1.6,0.9,3.3,1.7c2.3,1.1,3.9,2.2,4.7,3.3C353.2,26.4,353.6,27.8,353.6,29.4z"/>
	<path id="XMLID_40_" class="st1" d="M380.4,23.9c0,4.1-1,7.2-3,9.4c-2,2.2-4.9,3.3-8.7,3.3s-6.7-1.1-8.7-3.3c-2-2.2-3-5.3-3-9.4
		c0-4.1,1-7.2,3-9.4c2-2.2,4.9-3.2,8.7-3.2c3.8,0,6.7,1.1,8.7,3.3C379.4,16.7,380.4,19.8,380.4,23.9z M362.4,23.9
		c0,2.7,0.5,4.8,1.6,6.2c1,1.4,2.6,2.1,4.7,2.1c4.2,0,6.2-2.8,6.2-8.3c0-5.5-2.1-8.3-6.2-8.3c-2.1,0-3.6,0.7-4.7,2.1
		C363,19.1,362.4,21.1,362.4,23.9z"/>
	<path id="XMLID_43_" class="st1" d="M407.8,23.9c0,4.1-1,7.2-3,9.4c-2,2.2-4.9,3.3-8.7,3.3s-6.7-1.1-8.7-3.3c-2-2.2-3-5.3-3-9.4
		c0-4.1,1-7.2,3-9.4c2-2.2,4.9-3.2,8.7-3.2s6.7,1.1,8.7,3.3C406.8,16.7,407.8,19.8,407.8,23.9z M389.9,23.9c0,2.7,0.5,4.8,1.6,6.2
		c1,1.4,2.6,2.1,4.7,2.1c4.2,0,6.2-2.8,6.2-8.3c0-5.5-2.1-8.3-6.2-8.3c-2.1,0-3.6,0.7-4.7,2.1C390.4,19.1,389.9,21.1,389.9,23.9z"/>
	<path id="XMLID_46_" class="st1" d="M434.7,36.2h-6.6l-10.7-18.6h-0.2c0.2,3.3,0.3,5.6,0.3,7v11.6h-4.7V11.6h6.6L430.2,30h0.1
		c-0.2-3.2-0.3-5.5-0.3-6.8V11.6h4.7V36.2z"/>
</g>
</svg>
