<!-- Generator: Adobe Illustrator 19.1.0, SVG Export Plug-In  -->
<svg version="1.1"
	 xmlns="http://www.w3.org/2000/svg" xmlns:xlink="http://www.w3.org/1999/xlink" xmlns:a="http://ns.adobe.com/AdobeSVGViewerExtensions/3.0/"
	 x="0px" y="0px" width="756.3px" height="238.4px" viewBox="0 0 756.3 238.4"
	 style="overflow:scroll;enable-background:new 0 0 756.3 238.4;" xml:space="preserve">
<style type="text/css">
	.st0{fill:#A38644;}
	.st1{fill:#AD8E48;}
	.st2{fill:#BA984E;}
	.st3{fill:#C7A355;}
</style>
<defs>
</defs>
<g>
	<path class="st0" d="M0,77.4C0,77.4,0.3,56,0,47l320,0.3c3.7,0,6.6,3,6.5,6.6l-0.4,18.8c-0.1,3.6-3,6.4-6.6,6.3l-156.7-3.2
		L5.4,77.1"/>
	<path class="st0" d="M319.5,79.1l13.3,5.2c0,0,6.5,3.9,12.2,5.3c8,2,53.8,4.6,59.4,4.5c5.6-0.2,14.6-7.7-4.7-10.4
		c-9.6-1.4-17-2.7-19.6-3.5c-1.1-0.3-0.2-0.7-0.2-0.7s37.6,4.9,43.1,5c5.5,0.2,8.7-4.5,6.8-6.3c-1.2-1.1-3.8-2.1-7.7-2.5
		c-12.5-1.4-32.2-4.1-37.9-5c-3.8-0.6-2-0.8-2-0.8s42.3,4.9,48.7,5.8c9.9,1.5,16.6-9-0.4-11.3c-20.4-2-32.2-2.7-44.6-4.4
		c-2.4-0.3-1.3-0.9-1.3-0.9s32.5,1.9,38.9,2.2c6.5,0.3,11.3-9.2-3.2-10.7c-14.5-1.5-49.4-4.1-49.4-4.1s0,0,14.4-1.3
		c3.6-0.3,12.3-1.7,14.1-1.3c4.7,1,13.1-10.5-1.3-11.3c-14.4-0.8-36.3-1.7-40.5-1.3c-4.4,0.5-8.5,2.6-11.4,4.6
		c-4.1,2.8-8.5,5-13.2,6.4l-16,4.8L319.5,79.1z"/>
</g>
<g>
	<path class="st1" d="M199.1,238.4h-18.2l-5.8-0.1c-7.5-0.1-8.3,0.2-17.7,0L306.8,94.7c2.6-2.6,6.8-2.5,9.3,0.2l12.8,13.9
		c2.4,2.6,2.3,6.7-0.4,9.1L213.2,224.1L199.1,238.4"/>
	<path class="st1" d="M328.5,117.9l13.2-5.4c0,0,7.4-1.7,12.5-4.6c7.2-4.1,42-33.9,45.9-37.9s5.2-15.7-10.6-4.3
		c-7.8,5.7-14.1,9.8-16.6,11.1c-1,0.5-0.7-0.3-0.7-0.3s30.5-22.5,34.6-26.2c4.1-3.7,3.2-9.2,0.5-9.2c-1.6,0-4.2,1.1-7.3,3.5
		c-10,7.6-26,19.3-30.8,22.7c-3.1,2.2-2,0.8-2,0.8s33.9-25.8,39.2-29.5c8.2-5.8,5.8-18-8.1-7.9C382.1,43.2,373.1,51,363,58.3
		c-2,1.4-1.6,0.3-1.6,0.3s24.8-21.1,29.6-25.4c4.8-4.3,1.8-14.5-9.7-5.5c-11.5,9-38.4,31.3-38.4,31.3s0,0,9.5-10.9
		c2.4-2.7,7.7-9.7,9.2-10.7c4.1-2.5,2.2-16.7-8.8-7.3c-10.9,9.4-27.4,23.9-30.1,27.2c-2.9,3.4-4.3,7.8-5,11.2
		c-1,4.8-2.7,9.5-5.1,13.8L304.4,97L328.5,117.9z"/>
</g>
<g>
	<path class="st2" d="M539.4,238.3l-12,0.1l-20.3,0L405.7,110.5c-2.3-2.9-1.7-7,1.2-9.2L422.1,90c2.9-2.1,6.9-1.5,9.1,1.3
		l93.4,125.9C525.3,218.2,539.4,238.3,539.4,238.3"/>
	<path class="st2" d="M431.2,91.4l-4-13.7c0,0-0.9-7.6-3.3-12.9c-3.3-7.6-29.3-45.4-32.8-49.7s-15.1-6.8-5.4,10.1
		c4.8,8.4,8.2,15.1,9.2,17.7c0.4,1.1-0.4,0.6-0.4,0.6s-19.2-32.7-22.4-37.1s-8.8-4.1-9.1-1.5c-0.2,1.6,0.7,4.2,2.7,7.7
		c6.5,10.8,16.5,27.9,19.3,33c1.8,3.3,0.6,2,0.6,2s-22-36.4-25.2-42.1c-4.9-8.7-17.3-7.7-8.7,7.2c10.9,17.4,17.6,27.1,23.8,38
		c1.2,2.1,0.1,1.6,0.1,1.6s-18.4-26.9-22.1-32.1c-3.8-5.3-14.2-3.3-6.5,9c7.7,12.4,27,41.5,27,41.5s0,0-9.8-10.6
		c-2.5-2.6-8.8-8.7-9.6-10.3c-2.1-4.3-16.4-3.9-8.2,8s20.9,29.8,23.8,32.8c3.1,3.2,7.3,5.1,10.6,6.2c4.7,1.5,9.2,3.7,13.2,6.5
		l13.6,9.7L431.2,91.4z"/>
</g>
<g>
	<path class="st3" d="M756.3,60.4v17.9l-306.5,0c-3.7,0.1-6.6-2.9-6.6-6.6l0.3-18.8c0.1-3.6,3-6.4,6.6-6.4l265,0h41.2"/>
	<path class="st3" d="M450.1,46.5l-13.3-5.2c0,0-6.5-3.9-12.2-5.3c-8-2-53.8-4.4-59.4-4.2c-5.6,0.2-14.6,7.8,4.7,10.4
		c9.6,1.3,17,2.6,19.6,3.4c1.1,0.3,0.2,0.7,0.2,0.7s-37.6-4.7-43.1-4.8s-8.7,4.5-6.7,6.3c1.2,1.1,3.8,2.1,7.8,2.5
		c12.5,1.4,32.2,3.9,37.9,4.8c3.8,0.6,2,0.8,2,0.8s-42.3-4.7-48.7-5.6c-9.9-1.4-16.6,9,0.5,11.3c20.4,1.9,32.3,2.5,44.7,4.2
		c2.4,0.3,1.3,0.9,1.3,0.9s-32.5-1.8-39-2c-6.5-0.2-11.3,9.2,3.2,10.6s49.4,3.8,49.4,3.8s0,0-14.4,1.4c-3.6,0.3-12.3,1.7-14,1.4
		c-4.7-1-13.1,10.6,1.3,11.3s36.3,1.6,40.5,1.1c4.4-0.5,8.5-2.7,11.4-4.7c4.1-2.8,8.5-5.1,13.2-6.5l16-4.9L450.1,46.5z"/>
</g>
</svg>