<!-- Generator: Adobe Illustrator 19.1.0, SVG Export Plug-In  -->
<svg version="1.1"
	 xmlns="http://www.w3.org/2000/svg" xmlns:xlink="http://www.w3.org/1999/xlink" xmlns:a="http://ns.adobe.com/AdobeSVGViewerExtensions/3.0/"
	 x="0px" y="0px" width="681.8px" height="649.3px" viewBox="0 0 681.8 649.3"
	 style="overflow:scroll;enable-background:new 0 0 681.8 649.3;" xml:space="preserve">
<style type="text/css">
	.st0{fill:#D76A90;}
	.st1{fill:#E05182;}
	.st2{opacity:0.1;fill:#E9D494;}
	.st3{fill:#E86894;}
	.st4{fill:#E36691;}
	.st5{fill:#D9618B;}
	.st6{opacity:0.1;fill:#FFF2CA;}
	.st7{fill:#C3577D;}
	.st8{fill:#AC4D6E;}
	.st9{opacity:0.11;fill:#EDEDED;}
	.st10{opacity:0.32;}
	.st11{fill:#EDEDED;}
	.st12{opacity:0.32;fill:none;stroke:#EDEDED;stroke-miterlimit:10;}
	.st13{fill:none;stroke:#E0658F;stroke-width:23;stroke-miterlimit:10;}
	.st14{fill:#E0658F;}
	.st15{fill:none;stroke:#E0658F;stroke-width:10;stroke-miterlimit:10;}
</style>
<defs>
</defs>
<g>
	<path class="st0" d="M79.3,351.8l-12.5,8.6l0,0l-4.2,2.9l-4,2.8l-4.2,2.9l-11.8,8.1l-0.7,0.5l-12.4,8.5l8.6,12.4l36.4,52.9
		l8.5,12.4l12.4-8.5l37.5-25.8l12.4-8.6l-8.5-12.4l-36.4-52.9l-8.6-12.4L79.3,351.8z M50.4,390.1l12.3-8.4l13-8.9L50.4,390.1z"/>
	<path class="st1" d="M79.3,351.8l-4-5.8l0,0c-7.3-9.8-21-12.1-31.2-5.1c-10.1,7-12.9,20.6-6.3,30.9l0,0l12.6,18.3l12.5-8.6
		l-12.6-18.3c-2.4-3.4-1.5-8.1,1.9-10.5c3.4-2.4,8.1-1.5,10.5,1.9l4,5.9L79.3,351.8"/>
</g>
<polygon class="st2" points="458.8,315.5 4.7,252.5 4.7,482.9 458.8,424.2 "/>
<g>
	<path class="st3" d="M196.4,323.3l-0.1,2l37.9,36.5c9.7-9,16.1-21.7,16.8-36.1c0-0.9,0.1-1.7,0.1-2.5l-51.4-2.6L196.4,323.3z"/>
	<polygon class="st4" points="199.8,320.5 196.5,320.3 196.4,323.3 	"/>
	<polygon class="st5" points="196.5,320.3 190.8,320 195.2,324.2 196.4,323.3 	"/>
	<path class="st3" d="M251.1,323.1c0.1-13.2-4.8-25.4-12.9-34.7l-38.5,32.1L251.1,323.1z"/>
	<path class="st6" d="M193.7,375.6c0.6,0.1,1.2,0.1,1.8,0.1c14.9,0.8,28.6-4.7,38.7-14.1l-37.9-36.5L193.7,375.6z"/>
	<path class="st6" d="M190.8,320l-45.3-2.3c-0.1,0.8-0.2,1.7-0.2,2.5c-0.7,13.5,3.8,26.1,11.6,35.9l38.2-31.9L190.8,320z"/>
	<path class="st6" d="M193.7,375.6l2.6-50.4l-1-1L157,356.1C165.8,367,178.8,374.3,193.7,375.6z"/>
	<path class="st4" d="M199.8,320.5l38.5-32.1c-9.1-10.5-22.3-17.5-37.3-18.3c-0.6,0-1.2,0-1.8,0l-2.6,50.2L199.8,320.5z"/>
	<path class="st6" d="M158.1,288.5c-6.9,8-11.4,18-12.5,29.2l45.3,2.3L158.1,288.5z"/>
	<path class="st5" d="M196.5,320.3l2.6-50.2c-16.3-0.3-31.1,6.9-41,18.4l32.8,31.5L196.5,320.3z"/>
</g>
<polygon class="st2" points="458.8,309.3 4.7,237.5 4.7,499.6 458.8,432.8 "/>
<g>
	<g>
		<path class="st7" d="M470,649.3h210.1v-431H433.8h-68.3L470,256v51.2c0,0-9.7,5.4-10.1,11.4c-0.4,6-6.8,103.4,0,110.9
			s10.1,11,10.1,11v28l-16,9l16,2V649.3z"/>
		<circle class="st7" cx="473.1" cy="283.9" r="14.3"/>
	</g>
	<g>
		<path class="st8" d="M577.4,479.4v-19.9c-25.8-3.5-38.1-22.3-39.8-38.1l23.1-5.6c1.1,11.7,8.9,22.5,26,22.5
			c12.1,0,19.1-5.8,19.1-13.9c0-6.3-4.6-11.2-13.9-13.2l-17.1-3.7c-20.1-4.5-32.5-17.1-32.5-35c0-19.7,15.2-34.2,35.1-37.4v-19.9h19
			v20.5c21.4,3.9,30.7,18.8,33.3,31.2l-22.9,6.5c-1.1-6.5-5.9-17.3-21.2-17.3c-11.9,0-18.4,6.9-18.4,14.5c0,5.8,4.1,10.6,12.8,12.5
			l16.9,3.9c23.4,5.2,34,19.1,34,35.9c0,17.1-12.3,32.9-34.6,36.4v20.1H577.4z"/>
	</g>
</g>
<g>
	<path class="st9" d="M329.2,449.3l-26-20.2c-11.3-8.8-13.4-25-4.6-36.3l35.7-46.1c8.8-11.3,25-13.4,36.3-4.6l26,20.2
		c11.3,8.8,13.4,25,4.6,36.3l-35.7,46.1C356.8,456,340.5,458,329.2,449.3z"/>
	<g class="st10">
		<path class="st11" d="M341.8,360.7l1.7-2.2c-2.5-2.6-2.3-5.7-1.1-7.5l3,1.3c-0.9,1.4-0.9,3.2,0.9,4.7c1.3,1,2.6,1,3.3,0.1
			c0.5-0.7,0.4-1.6-0.4-2.6l-1.6-1.9c-1.8-2.2-2.1-4.6-0.6-6.6c1.7-2.2,4.6-2.4,7-1.1l1.7-2.2l2.1,1.6l-1.7,2.2c2,2.2,1.8,4.6,1,6.2
			l-3-1.2c0.4-0.8,0.8-2.4-0.9-3.7c-1.3-1-2.6-0.8-3.2,0c-0.5,0.6-0.5,1.5,0.3,2.4l1.5,1.9c2.1,2.6,2.1,5,0.7,6.8
			c-1.4,1.9-4.1,2.6-6.9,1.1l-1.7,2.2L341.8,360.7z"/>
	</g>
	<line class="st12" x1="340.5" y1="368.2" x2="380.5" y2="399.2"/>
	<line class="st12" x1="336.6" y1="373.2" x2="376.6" y2="404.2"/>
	<line class="st12" x1="332.7" y1="378.3" x2="372.7" y2="409.3"/>
	<line class="st12" x1="328.8" y1="383.3" x2="368.8" y2="414.3"/>
	<line class="st12" x1="324.8" y1="388.4" x2="364.9" y2="419.4"/>
	<line class="st12" x1="320.9" y1="393.4" x2="361" y2="424.4"/>
	<line class="st12" x1="317" y1="398.5" x2="357.1" y2="429.5"/>
	<line class="st12" x1="313.1" y1="403.5" x2="353.2" y2="434.5"/>
</g>
<line class="st11" x1="268.4" y1="494.6" x2="289" y2="494.6"/>
<line class="st11" x1="268.4" y1="500.6" x2="289" y2="500.6"/>
<g>
	<polyline class="st13" points="680.1,49.7 361,97.6 221.3,49.7 5.3,134.5 	"/>
	<circle class="st14" cx="387" cy="97.1" r="37.4"/>
	<circle class="st14" cx="221.3" cy="49.7" r="37.4"/>
</g>
<g>
	<circle class="st14" cx="462.2" cy="144.1" r="24"/>
	<circle class="st14" cx="272.1" cy="188.3" r="24"/>
	<polyline class="st15" points="680.1,145.5 473.1,145.5 275.1,188.3 2.8,4.1 	"/>
</g>
</svg>