<!-- Generator: Adobe Illustrator 19.1.0, SVG Export Plug-In  -->
<svg version="1.1"
	 xmlns="http://www.w3.org/2000/svg" xmlns:xlink="http://www.w3.org/1999/xlink" xmlns:a="http://ns.adobe.com/AdobeSVGViewerExtensions/3.0/"
	 x="0px" y="0px" width="124.6px" height="234.4px" viewBox="0 0 124.6 234.4"
	 style="overflow:scroll;enable-background:new 0 0 124.6 234.4;" xml:space="preserve">
<style type="text/css">
	.st0{fill:#FFFFFF;}
	.st1{fill:#F2673A;}
</style>
<defs>
</defs>
<g>
	<polygon class="st0" points="3.8,47.8 28.9,25.1 6.2,0 0,5.6 0,51.2 	"/>
	<polygon class="st0" points="97.4,101 74.4,75.5 66.8,67 59.5,58.9 51.8,50.4 26.7,73.1 49.3,98.2 49.8,98.8 72.2,123.6 0,188.8 
		0,234.4 94.9,148.7 120,126 97.4,101 	"/>
	<path class="st1" d="M111.5,19.3C93-1.1,61.8-3.2,40.8,14.4l0,0L28.9,25.1L3.8,47.8l22.9,25.4l25.1-22.7l11.9-10.7
		c6.9-6.3,17.6-5.7,23.9,1.2c6.3,6.9,5.7,17.6-1.2,23.9L74.4,75.5l22.9,25.4l0.1,0.1l0-0.2l11.8-10.7l0,0
		C128.8,71,130,39.8,111.5,19.3z"/>
</g>
</svg>