<?xml version="1.0" encoding="utf-8"?>
<!-- Generator: Adobe Illustrator 19.0.0, SVG Export Plug-In . SVG Version: 6.00 Build 0)  -->
<svg version="1.1" id="Layer_1" xmlns="http://www.w3.org/2000/svg" xmlns:xlink="http://www.w3.org/1999/xlink" x="0px" y="0px"
	 viewBox="0 0 600 404" style="enable-background:new 0 0 600 404;" xml:space="preserve">
<style type="text/css">
	.st0{fill:#F59598;}
	.st1{fill:#A01C33;}
	.st2{fill:#453733;}
	.st3{fill:#C36262;}
	.st4{fill:#FFFFFF;}
	.st5{fill:#404040;}
	.st6{fill:#D3AC5B;}
	.st7{fill:#E5E5DF;}
	.st8{fill:#AAA99B;}
	.st9{fill:#9B9B92;}
	.st10{fill:#E4ECF0;}
	.st11{fill:#DBE0DD;}
	.st12{fill:#943038;}
	.st13{fill:#B5595D;}
	.st14{fill:#E1D6CF;}
	.st15{fill:#567836;}
	.st16{fill:#EFF4CB;}
	.st17{fill:#EEEE94;}
	.st18{fill:#5D130D;}
	.st19{fill:#EFF4CF;}
	.st20{fill:#134453;}
	.st21{fill:#597836;}
	.st22{fill:#185056;}
	.st23{fill:#0C4C51;}
	.st24{fill:#5E1C0D;}
	.st25{fill:#A12922;}
	.st26{fill:#2B4E4A;}
	.st27{fill:#601A0D;}
	.st28{fill:#F6F4CB;}
	.st29{fill:#175552;}
	.st30{fill:#DD3826;}
	.st31{fill:#194B48;}
	.st32{fill:#DF3626;}
	.st33{fill:#EE3325;}
	.st34{fill:#EF3B24;}
	.st35{fill:#EDF2CA;}
	.st36{fill:#E8EDC8;}
	.st37{fill:#607F38;}
	.st38{fill:#4A642E;}
	.st39{fill:#63893C;}
	.st40{fill:#32655C;}
	.st41{fill:#547937;}
	.st42{fill:#587635;}
	.st43{fill:#104F44;}
	.st44{fill:#EF382E;}
	.st45{fill:#D53F27;}
	.st46{fill:#F9F8CF;}
	.st47{fill:#FBF0CC;}
	.st48{fill:none;stroke:#104F44;stroke-width:0.2;stroke-linecap:round;stroke-miterlimit:10;}
	.st49{fill:#D2DFAA;}
	.st50{fill:#F3F5CF;}
	.st51{fill:#094C59;}
	.st52{fill:#F6EECC;}
	.st53{fill:#58150A;}
	.st54{fill:#F9F8D1;}
	.st55{fill:#EE3324;}
	.st56{fill:#5E190F;}
	.st57{fill:none;stroke:#547937;stroke-miterlimit:10;}
	.st58{fill:#CC2127;}
	.st59{fill:none;stroke:#FFFFFF;stroke-linecap:round;stroke-miterlimit:10;}
	.st60{fill:none;stroke:#E38686;stroke-miterlimit:10;}
</style>
<rect id="XMLID_1_" x="0" y="0" class="st0" width="600" height="404"/>
<g id="XMLID_485_">
	<polygon id="XMLID_492_" class="st1" points="150.3,333 105.8,333 117.4,348.6 150.3,348.6 	"/>
	<polygon id="XMLID_491_" class="st1" points="150.9,364.2 106.5,364.2 118,348.6 150.9,348.6 	"/>
	<polygon id="XMLID_490_" class="st2" points="134.2,348.6 150.9,364.2 150.9,348.6 	"/>
	<polygon id="XMLID_489_" class="st1" points="445.2,333 489.6,333 478,348.6 445.2,348.6 	"/>
	<polygon id="XMLID_488_" class="st1" points="444.5,364.2 488.9,364.2 477.4,348.6 444.5,348.6 	"/>
	<polygon id="XMLID_487_" class="st2" points="461.2,348.6 444.5,364.2 444.5,348.6 	"/>
	<rect id="XMLID_486_" x="133.9" y="302.5" class="st1" width="327.2" height="46.1"/>
</g>
<g id="XMLID_47_">
	<path id="XMLID_48_" class="st3" d="M154,241.7l-0.3-3c-1.2,1.8-3.8,3.6-7.7,3.6c-7.1,0-13.1-5.2-13.1-13.7s6.3-13.7,13.4-13.7
		c6.9,0,10.7,4,12,8.1l-4.9,1.7c-0.7-2.3-2.8-5-7.1-5c-4,0-8.3,2.7-8.3,8.9c0,5.9,3.9,9,8.3,9c4.8,0,6.7-3.3,7-5.1h-8.3V228h13.1
		v13.7H154z"/>
	<path id="XMLID_50_" class="st3" d="M165.4,214.4c1.7,0,3,1.4,3,3.1c0,1.6-1.3,3-3,3c-1.7,0-3-1.4-3-3
		C162.4,215.8,163.7,214.4,165.4,214.4z M163,241.7v-18.2h4.9v18.2H163z"/>
	<path id="XMLID_53_" class="st3" d="M179,221.5v2h4.1v4.2H179v14h-5v-14h-3v-4.2h3v-2.1c0-4.1,2.6-6.8,6.6-6.8c1,0,2,0.2,2.4,0.4
		v4.1c-0.3-0.1-0.7-0.2-1.6-0.2C180.5,218.9,179,219.4,179,221.5z"/>
	<path id="XMLID_55_" class="st3" d="M193.2,223.5h3.7v4.4h-3.7v7.6c0,1.6,0.7,2.1,2.1,2.1c0.6,0,1.3-0.1,1.5-0.1v4.1
		c-0.4,0.2-1.3,0.4-2.8,0.4c-3.6,0-5.8-2.1-5.8-5.6v-8.5H185v-4.4h0.9c1.9,0,2.8-1.3,2.8-2.9V218h4.4V223.5z"/>
	<path id="XMLID_57_" class="st3" d="M199.9,232.9v-4.4h10.7v4.4H199.9z"/>
	<path id="XMLID_59_" class="st3" d="M234.9,241.7l-0.3-3c-1.2,1.8-3.8,3.6-7.7,3.6c-7.1,0-13.1-5.2-13.1-13.7s6.3-13.7,13.4-13.7
		c6.9,0,10.7,4,12,8.1l-4.9,1.7c-0.7-2.3-2.8-5-7.1-5c-4,0-8.3,2.7-8.3,8.9c0,5.9,3.9,9,8.3,9c4.8,0,6.7-3.3,7-5.1H226V228h13.1
		v13.7H234.9z"/>
	<path id="XMLID_61_" class="st3" d="M246.3,214.4c1.7,0,3,1.4,3,3.1c0,1.6-1.3,3-3,3c-1.7,0-3-1.4-3-3
		C243.3,215.8,244.6,214.4,246.3,214.4z M243.8,241.7v-18.2h4.9v18.2H243.8z"/>
	<path id="XMLID_64_" class="st3" d="M264.1,241.7h-4.9l-7.4-18.2h5.4l4.5,12.2l4.3-12.2h5.2L264.1,241.7z"/>
	<path id="XMLID_66_" class="st3" d="M276.6,214.4c1.7,0,3,1.4,3,3.1c0,1.6-1.3,3-3,3c-1.7,0-3-1.4-3-3
		C273.6,215.8,275,214.4,276.6,214.4z M274.2,241.7v-18.2h4.9v18.2H274.2z"/>
	<path id="XMLID_69_" class="st3" d="M289.3,241.7h-4.9v-18.2h4.8v2.3c1.1-1.9,3.3-2.7,5.3-2.7c4.5,0,6.6,3.2,6.6,7.2v11.5H296V231
		c0-2-1-3.6-3.4-3.6c-2.1,0-3.4,1.7-3.4,3.8V241.7z"/>
	<path id="XMLID_71_" class="st3" d="M309.1,241.5c0.3,2,1.9,3.4,4.3,3.4c3.1,0,4.8-1.6,4.8-5.1v-1.3c-0.7,1.2-2.4,2.3-5.1,2.3
		c-4.8,0-8.5-3.7-8.5-8.8c0-4.8,3.5-8.9,8.5-8.9c2.9,0,4.6,1.3,5.2,2.5v-2.1h4.7v16.2c0,5-2.7,9.5-9.5,9.5c-5,0-8.3-3.1-8.8-6.6
		L309.1,241.5z M318.3,232c0-2.8-1.9-4.6-4.3-4.6c-2.4,0-4.4,1.8-4.4,4.6c0,2.8,1.8,4.6,4.4,4.6C316.5,236.6,318.3,234.8,318.3,232z
		"/>
	<path id="XMLID_74_" class="st3" d="M336,228.6c0-8.4,6.3-13.7,13.4-13.7c7.3,0,11,4.4,12,8.7l-4.8,1.5c-0.6-2.5-2.7-5.3-7.2-5.3
		c-3.9,0-8.1,2.8-8.1,8.8c0,5.6,3.9,8.7,8.1,8.7c4.5,0,6.7-2.9,7.4-5.4l4.8,1.4c-1,4-4.8,8.9-12.1,8.9
		C342.1,242.2,336,236.9,336,228.6z"/>
	<path id="XMLID_76_" class="st3" d="M376.5,239.7c-1,1.7-3.1,2.4-5,2.4c-4.4,0-6.9-3.2-6.9-7.2v-11.5h4.9V234c0,2,1,3.7,3.3,3.7
		c2.2,0,3.4-1.5,3.4-3.6v-10.6h4.9v14.9c0,1.4,0.1,2.7,0.2,3.3h-4.7C376.6,241.3,376.5,240.4,376.5,239.7z"/>
	<path id="XMLID_78_" class="st3" d="M386.4,241.7v-26.8h4.9v26.8H386.4z"/>
	<path id="XMLID_80_" class="st3" d="M402.6,223.5h3.7v4.4h-3.7v7.6c0,1.6,0.7,2.1,2.1,2.1c0.6,0,1.3-0.1,1.5-0.1v4.1
		c-0.4,0.2-1.3,0.4-2.8,0.4c-3.6,0-5.8-2.1-5.8-5.6v-8.5h-3.3v-4.4h0.9c1.9,0,2.8-1.3,2.8-2.9V218h4.4V223.5z"/>
	<path id="XMLID_82_" class="st3" d="M422.4,239.7c-1,1.7-3.1,2.4-5,2.4c-4.4,0-6.9-3.2-6.9-7.2v-11.5h4.9V234c0,2,1,3.7,3.3,3.7
		c2.2,0,3.4-1.5,3.4-3.6v-10.6h4.9v14.9c0,1.4,0.1,2.7,0.2,3.3h-4.7C422.4,241.3,422.4,240.4,422.4,239.7z"/>
	<path id="XMLID_84_" class="st3" d="M443.4,228.3c-0.6-0.1-1-0.1-1.5-0.1c-2.5,0-4.7,1.2-4.7,5.1v8.3h-4.9v-18.2h4.8v2.7
		c1.1-2.4,3.6-2.8,5.2-2.8c0.4,0,0.8,0,1.1,0.1V228.3z"/>
	<path id="XMLID_86_" class="st3" d="M463,236.5c-0.9,3.1-3.8,5.8-8.3,5.8c-5,0-9.4-3.6-9.4-9.7c0-5.8,4.3-9.6,9-9.6
		c5.6,0,9,3.6,9,9.4c0,0.7-0.1,1.4-0.1,1.5h-13c0.1,2.4,2.1,4.1,4.6,4.1c2.3,0,3.6-1.1,4.1-2.8L463,236.5z M458.4,230.5
		c-0.1-1.8-1.3-3.6-4.1-3.6c-2.6,0-4,1.9-4.1,3.6H458.4z"/>
	<path id="XMLID_89_" class="st3" d="M245.6,258.8c1.7,0,3,1.4,3,3.1c0,1.6-1.3,3-3,3c-1.7,0-3-1.4-3-3
		C242.6,260.2,244,258.8,245.6,258.8z M243.2,286.1v-18.2h4.9v18.2H243.2z"/>
	<path id="XMLID_92_" class="st3" d="M258.3,286.1h-4.9v-18.2h4.8v2.3c1.1-1.9,3.3-2.7,5.3-2.7c4.5,0,6.6,3.2,6.6,7.2v11.5h-4.9
		v-10.6c0-2-1-3.6-3.4-3.6c-2.1,0-3.4,1.7-3.4,3.8V286.1z"/>
	<path id="XMLID_94_" class="st3" d="M300.1,280.1h-10.7l-2.2,6h-5.4l10.1-26.2h5.9l10,26.2h-5.5L300.1,280.1z M291.1,275.4h7.3
		l-3.6-9.9L291.1,275.4z"/>
	<path id="XMLID_97_" class="st3" d="M313.5,280.1c0.1,1.4,1.2,2.8,3.3,2.8c1.6,0,2.4-0.9,2.4-1.8c0-0.8-0.6-1.5-2-1.8l-2.4-0.6
		c-3.5-0.8-5.1-2.9-5.1-5.4c0-3.3,2.9-6,6.8-6c5.2,0,6.9,3.3,7.1,5.3l-4.1,0.9c-0.1-1.1-0.9-2.4-3-2.4c-1.3,0-2.3,0.8-2.3,1.8
		c0,0.9,0.7,1.4,1.7,1.6l2.6,0.6c3.6,0.7,5.4,2.9,5.4,5.6c0,3-2.3,6-7.1,6c-5.5,0-7.4-3.6-7.6-5.6L313.5,280.1z"/>
	<path id="XMLID_99_" class="st3" d="M330.3,258.8c1.7,0,3,1.4,3,3.1c0,1.6-1.3,3-3,3c-1.7,0-3-1.4-3-3
		C327.3,260.2,328.7,258.8,330.3,258.8z M327.9,286.1v-18.2h4.9v18.2H327.9z"/>
	<path id="XMLID_102_" class="st3" d="M342.4,275.6l4.5-0.7c1-0.1,1.4-0.7,1.4-1.3c0-1.3-1-2.4-3.1-2.4c-2.1,0-3.3,1.4-3.5,3
		l-4.4-0.9c0.3-2.8,2.9-6,7.8-6c5.8,0,7.9,3.3,7.9,6.9v9c0,1,0.1,2.3,0.2,2.9h-4.5c-0.1-0.5-0.2-1.5-0.2-2.2
		c-0.9,1.4-2.7,2.7-5.4,2.7c-3.9,0-6.3-2.6-6.3-5.5C337,277.9,339.4,276,342.4,275.6z M348.2,278.7v-0.8l-4.1,0.6
		c-1.3,0.2-2.3,0.9-2.3,2.3c0,1.1,0.8,2.1,2.4,2.1C346.3,282.9,348.2,281.9,348.2,278.7z"/>
</g>
<g id="XMLID_2_">
	<path id="XMLID_3_" class="st4" d="M178.5,333v-20.4h2.8v17.8h9.6v2.6H178.5z"/>
	<path id="XMLID_5_" class="st4" d="M195.3,311.9c1.1,0,2,0.9,2,2c0,1.1-0.9,1.9-2,1.9c-1.1,0-1.9-0.9-1.9-1.9
		C193.3,312.8,194.2,311.9,195.3,311.9z M193.9,333v-13.8h2.7V333H193.9z"/>
	<path id="XMLID_8_" class="st4" d="M204.9,321.6V333h-2.8v-11.4h-2.6v-2.4h2.6v-2.3c0-3.1,2-4.7,4.5-4.7c0.9,0,1.5,0.2,1.6,0.3v2.4
		c-0.1-0.1-0.5-0.2-1.2-0.2c-0.9,0-2.2,0.5-2.2,2.4v2.2h3.3v2.4H204.9z"/>
	<path id="XMLID_10_" class="st4" d="M222.6,329c-0.8,2.4-3,4.4-6.2,4.4c-3.7,0-7-2.7-7-7.4c0-4.3,3.1-7.3,6.6-7.3
		c4.3,0,6.6,2.9,6.6,7.3c0,0.3,0,0.7-0.1,0.9h-10.4c0.1,2.5,1.8,4.2,4.2,4.2c2.2,0,3.4-1.2,3.9-2.8L222.6,329z M219.9,324.6
		c-0.1-2-1.4-3.5-3.8-3.5c-2.3,0-3.7,1.8-3.8,3.5H219.9z"/>
	<path id="XMLID_13_" class="st4" d="M234.6,311.9c1.1,0,2,0.9,2,2c0,1.1-0.9,1.9-2,1.9c-1.1,0-1.9-0.9-1.9-1.9
		C232.7,312.8,233.6,311.9,234.6,311.9z M233.3,333v-13.8h2.7V333H233.3z"/>
	<path id="XMLID_16_" class="st4" d="M241.8,328.5c0.2,1.4,1.3,2.6,3.2,2.6c1.5,0,2.4-0.9,2.4-1.8c0-0.9-0.6-1.5-1.8-1.8l-2.4-0.5
		c-2.2-0.5-3.5-1.9-3.5-3.9c0-2.4,2.2-4.4,4.9-4.4c3.8,0,5,2.5,5.3,3.7l-2.4,0.9c-0.1-0.7-0.7-2.3-2.9-2.3c-1.4,0-2.3,0.9-2.3,1.8
		c0,0.8,0.5,1.4,1.6,1.7l2.2,0.5c2.5,0.5,3.8,2.1,3.8,4.1c0,2-1.6,4.3-5.1,4.3c-3.8,0-5.4-2.4-5.6-4L241.8,328.5z"/>
	<path id="XMLID_18_" class="st4" d="M264.2,325.1l3.7-0.5c0.8-0.1,1.1-0.5,1.1-1c0-1.4-0.9-2.5-3-2.5c-1.9,0-3,1.2-3.1,2.8
		l-2.6-0.6c0.3-2.6,2.7-4.5,5.7-4.5c4.1,0,5.8,2.4,5.8,5.1v6.9c0,1.2,0.1,1.9,0.2,2.3h-2.6c-0.1-0.3-0.1-0.9-0.1-1.9
		c-0.6,1-2,2.3-4.5,2.3c-2.8,0-4.6-2-4.6-4.1C260,326.8,261.8,325.4,264.2,325.1z M269,327.1v-0.6l-4.2,0.6c-1.2,0.2-2,0.8-2,2.1
		c0,1,0.9,2,2.2,2C267.2,331.1,269,330.1,269,327.1z"/>
	<path id="XMLID_21_" class="st4" d="M275.9,333v-20.8h2.7v9c0.7-1.2,2.3-2.4,4.6-2.4c4.2,0,6.4,3.2,6.4,7.3c0,4.1-2.3,7.4-6.4,7.4
		c-2,0-3.6-0.9-4.5-2.4v2H275.9z M282.6,321.1c-2.4,0-4.1,1.9-4.1,4.9s1.7,4.9,4.1,4.9c2.5,0,4.1-2,4.1-4.9S285.1,321.1,282.6,321.1
		z"/>
	<path id="XMLID_24_" class="st4" d="M305.9,326c0,4.2-2.9,7.4-7.1,7.4s-7.1-3.1-7.1-7.4c0-4.2,2.9-7.3,7.1-7.3
		S305.9,321.8,305.9,326z M303.2,326c0-3.2-2-4.9-4.3-4.9s-4.3,1.7-4.3,4.9c0,3.2,2,4.9,4.3,4.9S303.2,329.3,303.2,326z"/>
	<path id="XMLID_27_" class="st4" d="M314.3,333.4c-3.2,0-5.2-2.4-5.2-5.6v-8.7h2.7v8.3c0,1.9,0.9,3.6,3.1,3.6
		c2.2,0,3.3-1.4,3.3-3.5v-8.3h2.7v11.3c0,1.1,0.1,2.1,0.1,2.6h-2.6c-0.1-0.3-0.1-1.1-0.1-1.7C317.6,332.8,315.9,333.4,314.3,333.4z"
		/>
	<path id="XMLID_29_" class="st4" d="M329.2,319.1h3v2.4h-3v7.2c0,1.3,0.5,1.9,1.9,1.9c0.3,0,0.8-0.1,1.1-0.1v2.3
		c-0.2,0.1-0.9,0.3-1.8,0.3c-2.4,0-3.9-1.4-3.9-3.9v-7.6h-2.6v-2.4h0.7c1.5,0,2.1-0.9,2.1-2.1v-2.2h2.5V319.1z"/>
	<path id="XMLID_31_" class="st4" d="M344.6,333.1c0.2,1.9,1.7,3.4,3.8,3.4c2.9,0,4.2-1.5,4.2-4.5v-2c-0.7,1.3-2.2,2.3-4.2,2.3
		c-3.7,0-6.4-2.8-6.4-6.7c0-3.7,2.6-6.7,6.4-6.7c2.1,0,3.6,0.8,4.3,2.2v-1.9h2.7v12.8c0,3.5-1.7,6.9-6.9,6.9c-3.5,0-6-2.2-6.4-5.2
		L344.6,333.1z M352.7,325.6c0-2.7-1.6-4.4-3.9-4.4c-2.4,0-4,1.8-4,4.4c0,2.7,1.6,4.4,4,4.4C351.1,330,352.7,328.3,352.7,325.6z"/>
	<path id="XMLID_34_" class="st4" d="M360.9,311.9c1.1,0,2,0.9,2,2c0,1.1-0.9,1.9-2,1.9c-1.1,0-1.9-0.9-1.9-1.9
		C359,312.8,359.9,311.9,360.9,311.9z M359.6,333v-13.8h2.7V333H359.6z"/>
	<path id="XMLID_37_" class="st4" d="M373.2,333h-2.7l-5.6-13.8h3.1l3.9,10.7l4-10.7h2.9L373.2,333z"/>
	<path id="XMLID_39_" class="st4" d="M382.7,311.9c1.1,0,2,0.9,2,2c0,1.1-0.9,1.9-2,1.9c-1.1,0-1.9-0.9-1.9-1.9
		C380.7,312.8,381.6,311.9,382.7,311.9z M381.3,333v-13.8h2.7V333H381.3z"/>
	<path id="XMLID_42_" class="st4" d="M391.3,333h-2.7v-13.8h2.6v2c1-1.7,2.6-2.4,4.3-2.4c3.3,0,4.9,2.4,4.9,5.5v8.8h-2.7v-8.3
		c0-1.9-0.8-3.5-3.2-3.5c-2.1,0-3.2,1.7-3.2,3.8V333z"/>
	<path id="XMLID_44_" class="st4" d="M406.4,333.1c0.2,1.9,1.7,3.4,3.8,3.4c2.9,0,4.2-1.5,4.2-4.5v-2c-0.7,1.3-2.2,2.3-4.2,2.3
		c-3.7,0-6.4-2.8-6.4-6.7c0-3.7,2.6-6.7,6.4-6.7c2.1,0,3.6,0.8,4.3,2.2v-1.9h2.7v12.8c0,3.5-1.7,6.9-6.9,6.9c-3.5,0-6-2.2-6.4-5.2
		L406.4,333.1z M414.5,325.6c0-2.7-1.6-4.4-3.9-4.4c-2.4,0-4,1.8-4,4.4c0,2.7,1.6,4.4,4,4.4C412.9,330,414.5,328.3,414.5,325.6z"/>
</g>
<g id="XMLID_472_">
	<circle id="XMLID_481_" class="st5" cx="166.4" cy="103.6" r="19.8"/>
	<rect id="XMLID_480_" x="146.5" y="103.9" class="st5" width="39.7" height="76"/>
	<rect id="XMLID_479_" x="160.1" y="54.8" class="st5" width="12.6" height="77.9"/>
	<path id="XMLID_478_" class="st5" d="M174,58.2h-15.2c-0.7,0-1.3-0.6-1.3-1.3v-2.4c0-0.7,0.6-1.3,1.3-1.3H174
		c0.7,0,1.3,0.6,1.3,1.3v2.4C175.2,57.6,174.7,58.2,174,58.2z"/>
	<path id="XMLID_477_" class="st6" d="M171.5,53.3h-9.3c-1.5,0-2.7-1.2-2.7-2.7v-5c0-1.5,1.2-2.7,2.7-2.7h9.3c1.5,0,2.7,1.2,2.7,2.7
		v5C174.2,52.1,173,53.3,171.5,53.3z"/>
	<rect id="XMLID_476_" x="152.6" y="107.3" class="st7" width="33.6" height="52.8"/>
	<rect id="XMLID_475_" x="156.1" y="111.9" class="st8" width="26.6" height="41.7"/>
	<path id="XMLID_474_" class="st5" d="M180.6,184.2h-28.6c-3.1,0-5.6-2.5-5.6-5.6l0,0c0-3.1,2.5-5.6,5.6-5.6h28.6
		c3.1,0,5.6,2.5,5.6,5.6l0,0C186.2,181.7,183.7,184.2,180.6,184.2z"/>
	<rect id="XMLID_473_" x="166.9" y="53.3" class="st9" width="5.8" height="32.5"/>
</g>
<g id="XMLID_463_">
	<g id="XMLID_468_">
		<path id="XMLID_471_" class="st10" d="M205.8,184.2c2,0-10.7,0-10.7,0V110h9.9c0,0,19.1,22.1-5.2,37.1c-4.1,3-3.6,6.3-4,17.1
			C196.2,180.7,196.9,184.2,205.8,184.2z"/>
		<path id="XMLID_470_" class="st10" d="M184.5,184.2c-1.8,0,10.7,0,10.7,0V110h-9.9c0,0-18.5,21.4,5.2,37.1
			c4.7,3.7,3.7,2.6,3.8,16.7C194.2,179.4,194.1,184.2,184.5,184.2z"/>
		<path id="XMLID_469_" class="st10" d="M207.9,184.2h-26.1c-0.4,0-0.7-0.3-0.7-0.7l0,0c0-0.4,0.3-0.7,0.7-0.7h26.1
			c0.4,0,0.7,0.3,0.7,0.7l0,0C208.6,183.9,208.2,184.2,207.9,184.2z"/>
	</g>
	<g id="XMLID_464_">
		<path id="XMLID_467_" class="st11" d="M203.7,112.5c0,0,12,11,3.7,25c-6,10.1-11,6.6-8.3,1.4s3.9-10,1.9-26.4
			C202.7,112.4,203.7,112.5,203.7,112.5z"/>
		<path id="XMLID_466_" class="st11" d="M185,111.9c-1.9,2.7-2.6,5.1-2.9,6.2c-0.3,1.1,4.3,0.8,4.3,0.8l1.8-6.4L185,111.9z"/>
		<path id="XMLID_465_" class="st11" d="M181.8,118.9c0,0,1.7,0.7,4,0.6c0,1.4-0.6,2.7-0.6,2.7l-4.1-0.9
			C181,121.3,181.4,119.8,181.8,118.9z"/>
	</g>
</g>
<g id="XMLID_455_">
	<rect id="XMLID_462_" x="206.2" y="81.4" class="st12" width="116.2" height="21.1"/>
	<rect id="XMLID_461_" x="214.1" y="102.6" class="st13" width="100.3" height="81"/>
	<rect id="XMLID_460_" x="254.7" y="81.4" class="st14" width="19.2" height="102.1"/>
	<path id="XMLID_459_" class="st14" d="M248.1,76h-9.6c-2.9,0-5.3-2.4-5.3-5.3V53.2c0-2.9,2.4-5.3,5.3-5.3h9.6
		c2.9,0,5.3,2.4,5.3,5.3v17.6C253.4,73.7,251,76,248.1,76z"/>
	<path id="XMLID_458_" class="st14" d="M243.3,81.4c0,0-10.1-3.4-10.1-11.9h20.1c0,0-0.7,9,6.1,11.9H243.3z"/>
	<path id="XMLID_457_" class="st14" d="M278.4,76h9.6c2.9,0,5.3-2.4,5.3-5.3V53.2c0-2.9-2.4-5.3-5.3-5.3h-9.6
		c-2.9,0-5.3,2.4-5.3,5.3v17.6C273.1,73.7,275.5,76,278.4,76z"/>
	<path id="XMLID_456_" class="st14" d="M283.2,81.4c0,0,10.1-3.4,10.1-11.9h-20.1c0,0,0.7,9-6.1,11.9H283.2z"/>
</g>
<g id="XMLID_446_">
	<g id="XMLID_451_">
		<path id="XMLID_454_" class="st10" d="M136.3,184.2c2,0-10.7,0-10.7,0V110h9.9c0,0,19.1,22.1-5.2,37.1c-4.1,3-3.6,6.3-4,17.1
			C126.7,180.7,127.4,184.2,136.3,184.2z"/>
		<path id="XMLID_453_" class="st10" d="M115,184.2c-1.8,0,10.7,0,10.7,0V110h-9.9c0,0-18.5,21.4,5.2,37.1c4.7,3.7,3.7,2.6,3.8,16.7
			C124.7,179.4,124.6,184.2,115,184.2z"/>
		<path id="XMLID_452_" class="st10" d="M138.4,184.2h-26.1c-0.4,0-0.7-0.3-0.7-0.7l0,0c0-0.4,0.3-0.7,0.7-0.7h26.1
			c0.4,0,0.7,0.3,0.7,0.7l0,0C139.1,183.9,138.7,184.2,138.4,184.2z"/>
	</g>
	<g id="XMLID_447_">
		<path id="XMLID_450_" class="st11" d="M134.2,112.5c0,0,12,11,3.7,25c-6,10.1-11,6.6-8.3,1.4c2.8-5.1,3.9-10,1.9-26.4
			C133.2,112.4,134.2,112.5,134.2,112.5z"/>
		<path id="XMLID_449_" class="st11" d="M115.5,111.9c-1.9,2.7-2.6,5.1-2.9,6.2c-0.3,1.1,4.3,0.8,4.3,0.8l1.8-6.4L115.5,111.9z"/>
		<path id="XMLID_448_" class="st11" d="M112.3,118.9c0,0,1.7,0.7,4,0.6c0,1.4-0.6,2.7-0.6,2.7l-4.1-0.9
			C111.5,121.3,111.9,119.8,112.3,118.9z"/>
	</g>
</g>
<g id="XMLID_410_">
	<g id="XMLID_425_">
		<g id="XMLID_440_">
			<g id="XMLID_443_">
				<path id="XMLID_445_" class="st15" d="M312.1,137.2c0,0-3.7-1.3-3.7-5.4c0-4.1,3.4-8.1,3.4-8.1s1.7-1.5,2-2.9s0,16.4,0,16.4
					H312.1z"/>
				<path id="XMLID_444_" class="st15" d="M315.7,137.2c0,0,3.7-1.3,3.7-5.4c0-4.1-3.4-8.1-3.4-8.1s-1.7-1.5-2-2.9
					c-0.3-1.4,0,16.4,0,16.4H315.7z"/>
			</g>
			<path id="XMLID_442_" class="st16" d="M312.5,137.1c0,0-2.1-3.6,1.2-7c2.3,2.5,2.6,4.3,1.4,7
				C313.6,137.2,312.5,137.1,312.5,137.1z"/>
			<path id="XMLID_441_" class="st17" d="M313.3,137.2c0,0-0.8-1.3,0.4-2.6c0.9,0.9,1,1.6,0.5,2.6
				C313.7,137.2,313.3,137.2,313.3,137.2z"/>
		</g>
		<g id="XMLID_426_">
			<g id="XMLID_428_">
				<path id="XMLID_439_" class="st18" d="M306.7,183.1h5.6l-9-3.3C303.4,181.6,304.9,183.1,306.7,183.1z"/>
				<polygon id="XMLID_438_" class="st18" points="303.4,166.4 327,175.1 327,170.6 303.4,162 				"/>
				<path id="XMLID_437_" class="st18" d="M327,140.5c0-1.9-1.5-3.4-3.4-3.4h-16.9c-1.5,0-2.7,1-3.1,2.3l23.4,8.6V140.5z"/>
				<polygon id="XMLID_436_" class="st18" points="327,152.9 303.4,144.2 303.4,148.6 327,157.3 				"/>
				<path id="XMLID_435_" class="st18" d="M303.4,175l21.4,7.8c1.3-0.4,2.2-1.6,2.2-3l-23.6-8.7V175z"/>
				<polygon id="XMLID_434_" class="st18" points="303.4,153.4 303.4,157.2 327,165.9 327,162 				"/>
				<path id="XMLID_433_" class="st19" d="M327,148.1l-23.4-8.6c-0.1,0.3-0.2,0.7-0.2,1v3.6l23.6,8.7V148.1z"/>
				<polygon id="XMLID_432_" class="st19" points="327,157.3 303.4,148.6 303.4,153.4 327,162 				"/>
				<polygon id="XMLID_431_" class="st19" points="303.4,162 327,170.6 327,165.9 303.4,157.2 				"/>
				<path id="XMLID_430_" class="st19" d="M303.4,171.2l23.6,8.7c0-0.1,0-0.1,0-0.2v-4.6l-23.6-8.7V171.2z"/>
				<path id="XMLID_429_" class="st19" d="M303.4,179.7C303.4,179.7,303.4,179.7,303.4,179.7l9,3.4h11.3c0.4,0,0.7-0.1,1.1-0.2
					l-21.4-7.8V179.7z"/>
			</g>
			<path id="XMLID_427_" class="st20" d="M303.4,142.9c0,0,4.7,1.7,6.2,0.8c1.5-0.9,1.3,0.9,1.3,2.6c0,1.8,4.8,3.4,4.8,0.2
				c0-2.1,0.8-0.8,0.8,1.2c0,1,0,2.3,0,3.3c0,2.9,5.7,4.2,5.7-0.4c0-4.7,0-5.6,0-5.6s-0.4-0.6,1.1-1.1c1.5-0.5,3.8-0.2,3.8-0.2
				s0-3.2,0-3.8c0-0.6-0.5-2.7-3.2-2.7s-16.1,0-17.3,0c-1.1,0-3.2,0.8-3.2,2.7C303.4,141.8,303.4,142.9,303.4,142.9z"/>
		</g>
	</g>
	<g id="XMLID_411_">
		<path id="XMLID_424_" class="st21" d="M301.2,183.5h-18.6c-1.8,0-3.2-1.4-3.2-3.2v-50.2c0-1.8,1.4-3.2,3.2-3.2h18.6
			c1.8,0,3.2,1.4,3.2,3.2v50.2C304.3,182.1,302.9,183.5,301.2,183.5z"/>
		<path id="XMLID_423_" class="st19" d="M279.4,134.1c0,0,5,2.1,6.5,1s1.3,1.1,1.3,3.3c0,2.2,4.6,3.6,4.6-0.4s0,1.9,0,5.5
			c0,3.6,7.3,5.8,7.3,0c0-5.8,0-6.9,0-6.9s-0.4-0.8,1.2-1.3c1.5-0.6,4-0.2,4-0.2s0-3.9,0-4.7c0-0.8-0.6-3.4-3.4-3.4
			c-2.8,0-17,0-18.2,0s-3.4,1-3.4,3.4C279.4,132.7,279.4,134.1,279.4,134.1z"/>
		<circle id="XMLID_422_" class="st22" cx="285.2" cy="146" r="2.7"/>
		<circle id="XMLID_421_" class="st22" cx="283.7" cy="173" r="2.7"/>
		<circle id="XMLID_420_" class="st22" cx="291.7" cy="159.5" r="2.9"/>
		<circle id="XMLID_419_" class="st22" cx="299.3" cy="179" r="2.6"/>
		<circle id="XMLID_418_" class="st22" cx="300.9" cy="151.1" r="2.4"/>
		<g id="XMLID_412_">
			<g id="XMLID_415_">
				<path id="XMLID_417_" class="st23" d="M289.7,127c0,0-4.5-1.6-4.5-6.7c0-5.1,4.3-10,4.3-10s2.1-1.9,2.4-3.6s0,20.3,0,20.3H289.7
					z"/>
				<path id="XMLID_416_" class="st23" d="M294.2,127c0,0,4.5-1.6,4.5-6.7c0-5.1-4.3-10-4.3-10s-2.1-1.9-2.4-3.6s0,20.3,0,20.3
					H294.2z"/>
			</g>
			<path id="XMLID_414_" class="st24" d="M290.3,126.9c0,0-2.6-4.4,1.4-8.7c2.9,3,3.3,5.3,1.7,8.7
				C291.6,127,290.3,126.9,290.3,126.9z"/>
			<path id="XMLID_413_" class="st25" d="M291.3,127c0,0-1-1.7,0.5-3.3c1.1,1.1,1.2,2,0.7,3.3C291.8,127,291.3,127,291.3,127z"/>
		</g>
	</g>
</g>
<g id="XMLID_373_">
	<g id="XMLID_407_">
		<rect id="XMLID_409_" x="330.8" y="68.7" class="st26" width="0.8" height="29.3"/>
		<rect id="XMLID_408_" x="330.5" y="68.7" class="st27" width="1.5" height="18.7"/>
	</g>
	<g id="XMLID_404_">
		<polygon id="XMLID_406_" class="st28" points="331.5,63.2 332.6,68.6 338.9,68.5 333.6,70.5 336.1,77.2 331.5,71.4 326.9,77.2 
			329.5,70.7 324.1,68.5 330.6,68.9 		"/>
		<polygon id="XMLID_405_" class="st28" points="335.4,64.4 333.2,69.5 338.5,73 333,71.6 331.3,78.6 330.8,71.2 323.7,73.5 
			329.5,69.5 326.2,64.7 331.4,68.6 		"/>
	</g>
	<g id="XMLID_401_">
		
			<rect id="XMLID_403_" x="336.8" y="72.6" transform="matrix(0.6334 0.7738 -0.7738 0.6334 191.1169 -228.9462)" class="st26" width="0.8" height="29.3"/>
		
			<rect id="XMLID_402_" x="340.6" y="74.5" transform="matrix(0.6334 0.7738 -0.7738 0.6334 190.0186 -233.3657)" class="st27" width="1.5" height="18.7"/>
	</g>
	<g id="XMLID_398_">
		<polygon id="XMLID_400_" class="st28" points="353,74.6 349.5,78.9 353.6,83.7 348.7,80.9 345,87 346.7,79.8 339.3,80 345.9,77.8 
			344.2,72.3 348.1,77.5 		"/>
		<polygon id="XMLID_399_" class="st28" points="354.5,78.4 349.2,80 349.9,86.2 347.5,81.1 340.9,84.2 346.4,79.1 340.1,75.1 
			346.9,77 348.5,71.5 348.8,78 		"/>
	</g>
	<g id="XMLID_395_">
		<polygon id="XMLID_397_" class="st29" points="332.8,52.9 333,53.7 333.9,53.7 333.1,53.9 333.5,54.9 332.8,54.1 332.1,54.9 
			332.5,54 331.7,53.7 332.7,53.7 		"/>
		<polygon id="XMLID_396_" class="st29" points="333.4,53.1 333.1,53.8 333.8,54.3 333,54.1 332.8,55.1 332.7,54 331.7,54.4 
			332.5,53.8 332,53.1 332.8,53.7 		"/>
	</g>
	<g id="XMLID_392_">
		<polygon id="XMLID_394_" class="st28" points="341.8,56.6 342,57.7 343.2,57.7 342.2,58.1 342.6,59.4 341.8,58.2 340.9,59.4 
			341.4,58.1 340.3,57.7 341.6,57.7 		"/>
		<polygon id="XMLID_393_" class="st28" points="342.5,56.9 342.1,57.9 343.1,58.5 342.1,58.3 341.7,59.6 341.6,58.2 340.2,58.6 
			341.4,57.9 340.7,56.9 341.7,57.7 		"/>
	</g>
	<g id="XMLID_389_">
		<polygon id="XMLID_391_" class="st28" points="360.4,84.5 360.7,86.1 362.5,86.1 361,86.6 361.7,88.6 360.4,86.9 359.1,88.6 
			359.8,86.7 358.3,86.1 360.1,86.2 		"/>
		<polygon id="XMLID_390_" class="st28" points="361.5,84.9 360.9,86.3 362.4,87.3 360.8,87 360.3,89 360.2,86.8 358.1,87.5 
			359.8,86.3 358.9,84.9 360.4,86.1 		"/>
	</g>
	<g id="XMLID_386_">
		<polygon id="XMLID_388_" class="st28" points="324.2,58.5 324.4,59.6 325.6,59.6 324.6,60 325,61.3 324.2,60.1 323.3,61.3 
			323.8,60 322.7,59.6 324,59.7 		"/>
		<polygon id="XMLID_387_" class="st28" points="324.9,58.8 324.5,59.8 325.5,60.4 324.5,60.2 324.1,61.5 324,60.1 322.6,60.5 
			323.8,59.8 323.1,58.8 324.1,59.6 		"/>
	</g>
	<g id="XMLID_383_">
		<polygon id="XMLID_385_" class="st30" points="349.9,63.4 350.1,64.5 351.3,64.5 350.3,64.8 350.8,66.2 349.9,65 349,66.2 
			349.5,64.9 348.4,64.5 349.7,64.5 		"/>
		<polygon id="XMLID_384_" class="st30" points="350.6,63.6 350.2,64.7 351.3,65.3 350.2,65.1 349.8,66.4 349.7,65 348.3,65.4 
			349.5,64.6 348.8,63.7 349.9,64.5 		"/>
	</g>
	<g id="XMLID_380_">
		<polygon id="XMLID_382_" class="st31" points="361.1,66.2 361.3,67.3 362.5,67.2 361.5,67.6 362,69 361.1,67.8 360.2,69 
			360.7,67.7 359.6,67.2 360.9,67.3 		"/>
		<polygon id="XMLID_381_" class="st31" points="361.8,66.4 361.4,67.4 362.5,68.1 361.4,67.8 361,69.2 360.9,67.8 359.5,68.2 
			360.7,67.4 360,66.5 361.1,67.3 		"/>
	</g>
	<g id="XMLID_377_">
		<polygon id="XMLID_379_" class="st32" points="360.4,75.1 360.7,76.1 361.9,76.1 360.9,76.5 361.3,77.8 360.4,76.7 359.5,77.8 
			360,76.5 359,76.1 360.3,76.2 		"/>
		<polygon id="XMLID_378_" class="st32" points="361.2,75.3 360.8,76.3 361.8,77 360.7,76.7 360.4,78.1 360.3,76.6 358.9,77.1 
			360,76.3 359.4,75.4 360.4,76.1 		"/>
	</g>
	<polygon id="XMLID_376_" class="st31" points="344.4,61.9 344.9,62.9 346,63 345.2,63.8 345.4,64.9 344.4,64.4 343.4,64.9 
		343.6,63.8 342.8,63 343.9,62.9 	"/>
	<polygon id="XMLID_375_" class="st33" points="316.2,67.7 316.5,68.3 317.2,68.4 316.7,68.9 316.8,69.5 316.2,69.2 315.6,69.5 
		315.7,68.9 315.2,68.4 315.9,68.3 	"/>
	<polygon id="XMLID_374_" class="st33" points="320.6,75.8 320.9,76.4 321.6,76.5 321.1,77 321.2,77.7 320.6,77.4 320,77.7 
		320.1,77 319.6,76.5 320.3,76.4 	"/>
</g>
<g id="XMLID_359_">
	<path id="XMLID_372_" class="st34" d="M221.7,173.2h-6.2c-0.4,0-5.1,0.1-5.4,0.2c1.6,0.4,7.5,1.4,8.6,2.7L221.7,173.2z"/>
	<polygon id="XMLID_371_" class="st34" points="249.2,173.2 238.5,183.5 249.1,183.5 259.9,173.2 	"/>
	<polygon id="XMLID_370_" class="st34" points="229.8,173.2 219,183.5 231,183.5 241.8,173.2 	"/>
	<path id="XMLID_369_" class="st34" d="M266.6,173.4L256,183.5h9.4c2.8,0,5.2-2.3,5.2-5.2C270.6,175.9,268.8,174,266.6,173.4z"/>
	<path id="XMLID_368_" class="st34" d="M210.4,151.2c-5,0-11.4,4-14.1,10.9c-1.4,3.6-1.4,7.3-0.5,10.5l19.7-18.8
		C214.4,152.4,212.7,151.2,210.4,151.2z"/>
	<path id="XMLID_367_" class="st34" d="M210.4,178.4c0-2.5,1.8-4.4,4.1-4.9c-0.5-0.1-1-0.2-1.5-0.2c-1.5,0-2.9-0.5-4.2-1.3l-8.1,7.8
		c0,0,0,0,0,0c3.3,2.4,4.8,3.4,10.4,3.7l1.2-1.1C211.1,181.3,210.4,179.9,210.4,178.4z"/>
	<path id="XMLID_366_" class="st34" d="M210.4,178.4c0,1.6,0.8,3,1.9,3.9l6.4-6.1c-1.1-1.3-2.6-2.3-4.3-2.7
		C212.1,173.9,210.4,175.9,210.4,178.4z"/>
	<path id="XMLID_365_" class="st4" d="M212.9,161.8c4.2-0.6,4.7-5,2.6-8l-19.7,18.8c0.9,2.9,2.6,5.3,4.8,7l8.1-7.8
		C204.7,169.4,203.4,163.7,212.9,161.8z"/>
	<path id="XMLID_364_" class="st4" d="M221.7,173.2l-3,2.9c2.7,3,3,7.4-3.2,7.4h3.5l10.8-10.3H221.7z"/>
	<path id="XMLID_363_" class="st4" d="M212.3,182.3l-1.2,1.1c1.3,0.1,2.7,0.1,4.5,0.1C214.3,183.5,213.1,183,212.3,182.3z"/>
	<path id="XMLID_362_" class="st4" d="M215.5,183.5c6.2,0,5.9-4.4,3.2-7.4l-6.4,6.1C213.1,183,214.3,183.5,215.5,183.5z"/>
	<polygon id="XMLID_361_" class="st4" points="241.8,173.2 231,183.5 238.5,183.5 249.2,173.2 	"/>
	<path id="XMLID_360_" class="st4" d="M265.4,173.2h-5.6l-10.8,10.3h7l10.5-10.1C266.2,173.3,265.8,173.2,265.4,173.2z"/>
</g>
<g id="XMLID_317_">
	<circle id="XMLID_358_" class="st35" cx="437.9" cy="89.1" r="28.9"/>
	<circle id="XMLID_357_" class="st36" cx="436.4" cy="145.4" r="39.7"/>
	<path id="XMLID_356_" class="st37" d="M462,113h-47.2c-0.3,0-0.5-0.2-0.5-0.5v-9.7c0-0.3,0.2-0.5,0.5-0.5H462
		c0.3,0,0.5,0.2,0.5,0.5v9.7C462.4,112.8,462.2,113,462,113z"/>
	<rect id="XMLID_355_" x="416.5" y="107.7" class="st38" width="43.3" height="9.1"/>
	<rect id="XMLID_354_" x="428.5" y="111" class="st38" width="15.2" height="33.2"/>
	<rect id="XMLID_353_" x="428.5" y="144.2" class="st38" width="1.2" height="8.9"/>
	<rect id="XMLID_352_" x="431.4" y="144.2" class="st38" width="1.2" height="8.2"/>
	<rect id="XMLID_351_" x="434.9" y="144.2" class="st38" width="1.2" height="8.9"/>
	<rect id="XMLID_350_" x="437.9" y="144.2" class="st38" width="1.2" height="8.2"/>
	<rect id="XMLID_349_" x="442.4" y="144.2" class="st38" width="1.2" height="5.9"/>
	<rect id="XMLID_348_" x="440.1" y="144.2" class="st38" width="1.2" height="5.9"/>
	<rect id="XMLID_347_" x="445" y="111" class="st38" width="12.4" height="27.1"/>
	<rect id="XMLID_346_" x="445" y="138.2" class="st38" width="1" height="7.3"/>
	<rect id="XMLID_345_" x="448.3" y="138.2" class="st38" width="1" height="6.7"/>
	<rect id="XMLID_344_" x="451.5" y="138.2" class="st38" width="1" height="7.3"/>
	<rect id="XMLID_343_" x="454.4" y="138.2" class="st38" width="1" height="6.7"/>
	<rect id="XMLID_342_" x="456.4" y="138.2" class="st38" width="1" height="4.8"/>
	<g id="XMLID_337_">
		
			<rect id="XMLID_341_" x="401.9" y="118.7" transform="matrix(0.7183 0.6958 -0.6958 0.7183 203.5703 -243.9214)" class="st39" width="2.2" height="21.4"/>
		
			<rect id="XMLID_340_" x="391.3" y="132.8" transform="matrix(0.7183 0.6958 -0.6958 0.7183 206.1656 -239.084)" class="st40" width="14" height="4.5"/>
		
			<rect id="XMLID_339_" x="385.5" y="132.4" transform="matrix(0.7183 0.6958 -0.6958 0.7183 208.1691 -231.0811)" class="st41" width="7.9" height="18.1"/>
		
			<rect id="XMLID_338_" x="395" y="137.5" transform="matrix(0.7183 0.6958 -0.6958 0.7183 210.5264 -235.8469)" class="st41" width="3" height="9.1"/>
	</g>
	
		<rect id="XMLID_336_" x="472.7" y="103.6" transform="matrix(-0.7205 -0.6935 0.6935 -0.7205 735.9211 525.1663)" class="st39" width="2.2" height="21.4"/>
	
		<rect id="XMLID_335_" x="481.9" y="98.6" transform="matrix(-0.7205 -0.6935 0.6935 -0.7205 762.2626 518.7396)" class="st41" width="7.5" height="14.2"/>
	<rect id="XMLID_334_" x="419.1" y="48" class="st42" width="39.5" height="17.3"/>
	<rect id="XMLID_333_" x="409" y="65.3" class="st41" width="57.8" height="5.5"/>
	<rect id="XMLID_332_" x="419.1" y="60.3" class="st43" width="39.5" height="3.9"/>
	<ellipse id="XMLID_331_" class="st43" cx="445" cy="78.5" rx="1.3" ry="3.6"/>
	<ellipse id="XMLID_330_" class="st43" cx="429.1" cy="78.5" rx="1.3" ry="3.6"/>
	<circle id="XMLID_329_" class="st44" cx="449.4" cy="90.6" r="4.4"/>
	<circle id="XMLID_328_" class="st44" cx="426.3" cy="90.6" r="4.4"/>
	<path id="XMLID_327_" class="st41" d="M436.4,82.2c0,0-11.1,4.5-14.6,4.1c-0.7-0.1-0.4,0.2,0.6,0.4c3.7,0.8,16.4,3.7,16.4,3.7
		S439.6,84.8,436.4,82.2z"/>
	<g id="XMLID_321_">
		<rect id="XMLID_326_" x="480.9" y="88.5" class="st45" width="22.6" height="19.1"/>
		<rect id="XMLID_325_" x="487.9" y="88.5" class="st46" width="3.5" height="19.1"/>
		<ellipse id="XMLID_324_" class="st47" cx="489.7" cy="88.8" rx="3.2" ry="3.3"/>
		<path id="XMLID_323_" class="st47" d="M489.7,88.8c0,0,2.3-4.8,3.8-5.4c1.5-0.7,3.5,1,3.9,2.2c0.4,1.2,0,3.6,0,3.6L489.7,88.8z"/>
		<path id="XMLID_322_" class="st47" d="M490,88.2c0,0-2.3-4.8-3.8-5.4c-1.5-0.7-3.5,1-3.9,2.2c-0.4,1.2,0,3.6,0,3.6L490,88.2z"/>
	</g>
	<polygon id="XMLID_320_" class="st41" points="479.2,95.8 482.1,98.6 478.6,108.9 474.7,107.4 	"/>
	<path id="XMLID_319_" class="st48" d="M443,96.3c0,0-5.4,10.3-12.4,0"/>
	
		<rect id="XMLID_318_" x="470.7" y="109.1" transform="matrix(-0.7205 -0.6935 0.6935 -0.7205 744.2719 523.8173)" class="st40" width="14" height="5.6"/>
</g>
<g id="XMLID_302_">
	<rect id="XMLID_316_" x="363.5" y="92.8" class="st49" width="3.6" height="40.7"/>
	<path id="XMLID_315_" class="st50" d="M370,135.8h-8.6c-0.3,0-0.5-0.2-0.5-0.5v-6.5c0-0.3,0.2-0.5,0.5-0.5h8.6
		c0.3,0,0.5,0.2,0.5,0.5v6.5C370.5,135.6,370.3,135.8,370,135.8z"/>
	<path id="XMLID_314_" class="st51" d="M387.9,154.3c0,12.5-10.2,16.8-22.7,16.8c-12.5,0-22.5-4.3-22.5-16.8s10.1-22.6,22.6-22.6
		C377.7,131.7,387.9,141.9,387.9,154.3z"/>
	<polygon id="XMLID_313_" class="st52" points="380.1,176.5 380.1,180.7 397.8,180.7 392.9,176.5 397.8,171.6 380.1,171.6 	"/>
	<polygon id="XMLID_312_" class="st53" points="380.1,176.5 388.6,176.5 391.3,175 391.3,165.6 380.1,161.9 	"/>
	<polygon id="XMLID_311_" class="st52" points="350,176.5 350,180.7 332.3,180.7 337.2,176.5 332.3,171.6 350,171.6 	"/>
	<polygon id="XMLID_310_" class="st53" points="350,176.5 341.6,176.5 338.9,175 339,166.3 350,161.9 	"/>
	<path id="XMLID_309_" class="st54" d="M338.9,171.6h52.4c0,0,1.9-11.6-4.7-11.9c-6.5-0.2-42.8,0-42.8,0S337.8,158.5,338.9,171.6z"
		/>
	<g id="XMLID_306_">
		<path id="XMLID_308_" class="st55" d="M383.8,128.4l-4.6,8.2l-27.8-18.7c0,0-4.1-2.1-6.3,1.2c4.9-7.5,7.5-10.3,9.8-9.3
			C357.2,110.6,383.8,128.4,383.8,128.4z"/>
		<path id="XMLID_307_" class="st56" d="M345.8,122l-0.7-2.9c0,0,2-4.2,8,0c5.6,3.7,6,4,6,4L345.8,122z"/>
	</g>
	<g id="XMLID_303_">
		<path id="XMLID_305_" class="st55" d="M345.1,128.4l4.6,8.2l27.8-18.7c0,0,4.1-2.1,6.3,1.2c-4.9-7.5-7.5-10.3-9.8-9.3
			C371.7,110.6,345.1,128.4,345.1,128.4z"/>
		<path id="XMLID_304_" class="st56" d="M383.1,122l0.7-2.9c0,0-2-4.2-8,0c-5.6,3.7-6,4-6,4L383.1,122z"/>
	</g>
</g>
<g id="XMLID_286_">
	<polygon id="XMLID_301_" class="st57" points="385.3,74.6 398.1,67.5 398.1,71.4 385.3,79.2 	"/>
	<line id="XMLID_300_" class="st57" x1="398.1" y1="71.4" x2="397.4" y2="83.8"/>
	<line id="XMLID_299_" class="st57" x1="385.3" y1="79.6" x2="385.3" y2="90.6"/>
	<g id="XMLID_296_">
		<path id="XMLID_298_" class="st58" d="M382.6,97.8l3.6-4.6c0,0,1.9-2.6-1.5-4c-2.4-0.7-3,2.1-3,2.1L382.6,97.8z"/>
		<path id="XMLID_297_" class="st58" d="M382.6,97.8l-4.8-3.3c0,0-2.6-1.9,0.2-4.3c2.1-1.5,3.5,1.1,3.5,1.1L382.6,97.8z"/>
	</g>
	<g id="XMLID_293_">
		<path id="XMLID_295_" class="st58" d="M394.2,90.8l3.6-4.6c0,0,1.9-2.6-1.5-4c-2.4-0.7-3,2.1-3,2.1L394.2,90.8z"/>
		<path id="XMLID_294_" class="st58" d="M394.2,90.8l-4.8-3.3c0,0-2.6-1.9,0.2-4.3c2.1-1.5,3.5,1.1,3.5,1.1L394.2,90.8z"/>
	</g>
	<path id="XMLID_292_" class="st59" d="M381.1,88.1c0,0-1.1-3.9-6.2-6"/>
	<path id="XMLID_291_" class="st59" d="M377,90.6c0,0-3.1-0.9-6,2"/>
	<path id="XMLID_290_" class="st59" d="M378.1,95.5c0,0-3.1,2-3.2,5.2"/>
	<path id="XMLID_289_" class="st59" d="M398.3,82.4c0,0,1.4-2.5,5.2-3.2"/>
	<path id="XMLID_288_" class="st59" d="M398.8,86.6c0,0,2.4-2.2,6.3-0.8"/>
	<path id="XMLID_287_" class="st59" d="M395.8,89.6c0,0,3.6,0.7,5,3.6"/>
</g>
<g id="XMLID_280_">
	<path id="XMLID_285_" class="st60" d="M570.5,90.2h-16.3v16.5c0,0-3.7,3.7-5.3,5.5c-1.7,1.8-8.7,3.5-8.7,3.5s-3.3,1.3-2.3,5.3
		s6.3,3.3,6.3,3.3l16.3-5c0,0,3.5,0,7,0c5.7,0.1,6.3-5.3,6-7.1c-0.6-3.7-3.3-7.2-3.3-7.2L570.5,90.2z"/>
	<path id="XMLID_284_" class="st60" d="M542.1,115.2c0,0,6.8,0.8,5.2,8.2c-2.1,1-4.2,1.5-7.1,0.4c-2.9-1.1-2.5-4.8-2.5-4.8
		S538.5,115.6,542.1,115.2z"/>
	<path id="XMLID_283_" class="st60" d="M542.1,115.2c0,0,6.8,0.8,5.2,8.2"/>
	<path id="XMLID_282_" class="st60" d="M570.2,105c0,0-9.8,0.6-8.9,14.3c2.8,0,5.5,0,5.5,0S579.3,119.3,570.2,105z"/>
	<path id="XMLID_281_" class="st60" d="M570.2,105c0,0-10,1.7-8.9,14.3"/>
</g>
<g id="XMLID_274_">
	<path id="XMLID_279_" class="st60" d="M20.2,124.7h16.3v16.5c0,0,3.7,3.7,5.3,5.5s8.7,3.5,8.7,3.5s3.3,1.3,2.3,5.3
		s-6.3,3.3-6.3,3.3l-16.3-5c0,0-3.5,0-7,0c-5.7,0.1-6.3-5.3-6-7.1c0.6-3.7,3.3-7.2,3.3-7.2L20.2,124.7z"/>
	<path id="XMLID_278_" class="st60" d="M48.7,149.7c0,0-6.8,0.8-5.2,8.2c2.1,1,4.2,1.5,7.1,0.4c2.9-1.1,2.5-4.8,2.5-4.8
		S52.3,150.2,48.7,149.7z"/>
	<path id="XMLID_277_" class="st60" d="M48.7,149.7c0,0-6.8,0.8-5.2,8.2"/>
	<path id="XMLID_276_" class="st60" d="M20.6,139.5c0,0,9.8,0.6,8.9,14.3c-2.8,0-5.5,0-5.5,0S11.4,153.8,20.6,139.5z"/>
	<path id="XMLID_275_" class="st60" d="M20.6,139.5c0,0,10,1.7,8.9,14.3"/>
</g>
<path id="XMLID_273_" class="st60" d="M506.2,166.9h-5.3v-31.7c0,0,0.3-4.8,5.3-8s13.1,0,13.1,0s7,3.1,4.6,12.4
	c-0.8,2.3-4.6,4.6-7.4-0.4c-0.4-9.8-7.6-6.8-7.7-4s0.3,31.7,0.3,31.7H506.2z"/>
<g id="XMLID_268_">
	<circle id="XMLID_272_" class="st60" cx="70.4" cy="201.6" r="13.3"/>
	<rect id="XMLID_271_" x="65.8" y="185" class="st60" width="9.8" height="4.4"/>
	<path id="XMLID_270_" class="st60" d="M69.8,184.3c0,0,1.3-4.6,3.1-5.5s4.1-1.5,7.8-1.1s-0.1,4.9-2.3,5.4s-3.5-0.4-6.3,1.3
		S69.8,184.3,69.8,184.3z"/>
	<path id="XMLID_269_" class="st60" d="M70.1,184.3c0,0-1.3-4.6-3.1-5.5s-4.1-1.5-7.8-1.1s0.1,4.9,2.3,5.4s3.5-0.4,6.3,1.3
		S70.1,184.3,70.1,184.3z"/>
</g>
<g id="XMLID_265_">
	<path id="XMLID_267_" class="st60" d="M111.2,46.1c0,0.8-9.8,13.2-9.8,13.2h3.7l0.2,2.2l-9.7,10h9.3l-0.3,2.1L93.2,84.1h3L95,86.2
		h16.2"/>
	<path id="XMLID_266_" class="st60" d="M111.2,46.1c0,0.8,9.8,13.2,9.8,13.2h-3.7l-0.2,2.2l9.7,10h-9.3l0.3,2.1l11.3,10.5h-3
		l1.2,2.2h-16.2"/>
</g>
<polygon id="XMLID_264_" class="st60" points="480.7,181.4 484.5,189.1 492.9,190.3 486.8,196.3 488.3,204.7 480.7,200.7 
	473.2,204.7 474.6,196.3 468.5,190.3 476.9,189.1 "/>
<g id="XMLID_260_">
	<path id="XMLID_263_" class="st60" d="M78.3,137.8c0,0,1.3-4.6,3.1-5.5s4.1-1.5,7.8-1.1s-0.1,4.9-2.3,5.4s-3.5-0.4-6.3,1.3
		S78.3,137.8,78.3,137.8z"/>
	<path id="XMLID_262_" class="st60" d="M78.7,137.8c0,0-1.3-4.6-3.1-5.5s-4.1-1.5-7.8-1.1s0.1,4.9,2.3,5.4s3.5-0.4,6.3,1.3
		S78.7,137.8,78.7,137.8z"/>
	<rect id="XMLID_261_" x="63.6" y="138.5" class="st60" width="29.8" height="24.8"/>
</g>
<g id="XMLID_255_">
	<path id="XMLID_259_" class="st60" d="M61.3,85.5c0,0,1.3-4.6,3.1-5.5c1.9-0.9,4.1-1.5,7.8-1.1s-0.1,4.9-2.3,5.4s-3.5-0.4-6.3,1.3
		C61,87.1,61.3,85.5,61.3,85.5z"/>
	<path id="XMLID_258_" class="st60" d="M61.7,85.5c0,0-1.3-4.6-3.1-5.5s-4.1-1.5-7.8-1.1s0.1,4.9,2.3,5.4s3.5-0.4,6.3,1.3
		S61.7,85.5,61.7,85.5z"/>
	<path id="XMLID_257_" class="st60" d="M61.2,86.2c9.5,1.3,9.2,5.8,9.2,5.8v13.7c0,0-0.2,2.8,2.8,4.7s5.3,0.7,5.3,0.7
		s-1.1,6.8-17.5,7.3"/>
	<path id="XMLID_256_" class="st60" d="M61.4,86.2c-9.5,1.3-9.2,5.8-9.2,5.8v13.7c0,0,0.2,2.8-2.8,4.7S44,111,44,111
		s1.1,6.8,17.5,7.3"/>
</g>
<g id="XMLID_252_">
	<path id="XMLID_254_" class="st60" d="M531,87h-22.6V53.8c0,0,0.7-6.5,5.2-7.3c4.5-0.8,10.5-0.7,10.5-0.7s6.3,2.2,6.3,8
		s0,12.6,0,12.6s3.3-3.7,5.2-5.1c1.8-1.3,3.8-0.3,3.8-0.3s2.5,2.2-0.7,6.2c-3.2,4-7.8,8.7-7.8,8.7L531,87z"/>
	<line id="XMLID_253_" class="st60" x1="531" y1="81.9" x2="508.4" y2="81.9"/>
</g>
<g id="XMLID_249_">
	<rect id="XMLID_251_" x="528.3" y="171.3" class="st60" width="18.8" height="23.8"/>
	<path id="XMLID_250_" class="st60" d="M535.6,171.3c0,0-2.5-1.7-3.6-3.5c-1.1-1.8-1-4.3,1.8-7.2c2.8-2.9,4.6-4.3,4.6-4.3
		s-0.9,4.3,0,4.3c0.9,0.1,4,1,4,3.8C542.1,166.9,541.3,170,535.6,171.3z"/>
</g>
</svg>
