<!-- Generator: Adobe Illustrator 19.0.0, SVG Export Plug-In  -->
<svg version="1.1"
	 xmlns="http://www.w3.org/2000/svg" xmlns:xlink="http://www.w3.org/1999/xlink" xmlns:a="http://ns.adobe.com/AdobeSVGViewerExtensions/3.0/"
	 x="0px" y="0px" width="69.4px" height="73.3px" viewBox="0 0 69.4 73.3" style="enable-background:new 0 0 69.4 73.3;"
	 xml:space="preserve">
<style type="text/css">
	.st0{fill:#FF6633;}
	.st1{fill:#0D4356;}
	.st2{fill:#FFFFFF;}
	.st3{fill:#55514F;stroke:#FFFFFF;stroke-miterlimit:10;stroke-dasharray:3.132;}
</style>
<defs>
</defs>
<path id="XMLID_24_" class="st0" d="M66.1,20.8h-16c-0.9,0-1.7,0.3-2.3,0.9l-30,30c-1.3,1.3-1.3,3.3,0,4.6l16,16
	c1.3,1.3,3.3,1.3,4.6,0l30-30c0.6-0.6,0.9-1.4,0.9-2.3V24C69.4,22.2,67.9,20.8,66.1,20.8z"/>
<circle id="XMLID_23_" class="st1" cx="57.5" cy="32.3" r="3.8"/>
<g id="XMLID_18_">
	<circle id="XMLID_22_" class="st2" cx="5.4" cy="14.1" r="5.4"/>
	<circle id="XMLID_21_" class="st2" cx="16" cy="5.4" r="5.4"/>
	<path id="XMLID_20_" class="st2" d="M19,32.2L14.3,9L10.8,7l4.6,22.7c0.1,0.4,0.2,0.7,0.3,1C16.2,31.7,17.2,32.6,19,32.2z"/>
	<path id="XMLID_19_" class="st2" d="M27.7,22.4L8.7,9.8l0.7,4.1L29.2,27c1-1.5,0.4-2.9-0.6-3.8C28.4,22.9,28.1,22.6,27.7,22.4z"/>
</g>
<line id="XMLID_17_" class="st3" x1="21" y1="26.6" x2="66.3" y2="71.9"/>
<circle id="XMLID_16_" class="st1" cx="16" cy="5.4" r="3.6"/>
<circle id="XMLID_15_" class="st1" cx="5.4" cy="14.1" r="3.6"/>
</svg>