<!-- Generator: Adobe Illustrator 19.0.0, SVG Export Plug-In  -->
<svg version="1.1"
	 xmlns="http://www.w3.org/2000/svg" xmlns:xlink="http://www.w3.org/1999/xlink" xmlns:a="http://ns.adobe.com/AdobeSVGViewerExtensions/3.0/"
	 x="0px" y="0px" width="166px" height="167.3px" viewBox="0 0 166 167.3" style="enable-background:new 0 0 166 167.3;"
	 xml:space="preserve">
<style type="text/css">
	.st0{fill:#ACD6DD;}
	.st1{fill:#A0813D;}
	.st2{fill:#7C6537;}
	.st3{fill:#1F6575;}
	.st4{fill:#FFFFFF;}
	.st5{fill:#353535;stroke:#353535;stroke-width:0.2;stroke-miterlimit:10;}
	.st6{fill:#3F3F3F;}
	.st7{fill:#D3AB5B;}
	.st8{fill:#E5E5DF;}
	.st9{fill:#AAA99B;}
	.st10{fill:#9B9B92;}
	.st11{fill:#CC0D29;}
</style>
<defs>
</defs>
<rect id="XMLID_312_" x="16.8" class="st0" width="149.2" height="167"/>
<rect id="XMLID_311_" x="16.8" y="68.4" class="st1" width="149" height="20.3"/>
<rect id="XMLID_310_" x="16.8" y="39.7" class="st2" width="149" height="28.8"/>
<rect id="XMLID_309_" x="16.8" y="28.8" class="st3" width="149" height="23.3"/>
<polygon id="XMLID_308_" class="st4" points="19.2,167.1 19.2,148.1 0,167.3 "/>
<rect id="XMLID_307_" x="16.8" y="79.2" class="st4" width="149.2" height="88"/>
<g id="XMLID_30_">
	<g id="XMLID_32_">
		<path id="XMLID_168_" class="st5" d="M61.8,98.3h-2.4L58,93c-0.1-0.2-0.1-0.6-0.3-1.2c-0.1-0.6-0.2-1-0.2-1.2
			c0,0.2-0.1,0.6-0.2,1.2c-0.1,0.5-0.2,0.9-0.3,1.2l-1.3,5.2h-2.4l-2.5-10h2.1l1.3,5.5c0.2,1,0.4,1.9,0.5,2.6c0-0.3,0.1-0.7,0.2-1.2
			c0.1-0.5,0.2-1,0.3-1.3l1.5-5.6h2l1.5,5.6c0.1,0.3,0.1,0.6,0.2,1.1s0.2,1,0.2,1.3c0-0.4,0.1-0.8,0.2-1.3c0.1-0.5,0.2-1,0.3-1.3
			l1.3-5.5h2.1L61.8,98.3z"/>
		<path id="XMLID_165_" class="st5" d="M65.3,88.7c0-0.7,0.4-1,1.1-1s1.1,0.3,1.1,1c0,0.3-0.1,0.6-0.3,0.8c-0.2,0.2-0.5,0.3-0.9,0.3
			C65.7,89.7,65.3,89.3,65.3,88.7z M67.5,98.3h-2.1v-7.6h2.1V98.3z"/>
		<path id="XMLID_163_" class="st5" d="M76.7,98.3h-2.1v-4.5c0-0.6-0.1-1-0.3-1.2c-0.2-0.3-0.5-0.4-0.9-0.4c-0.6,0-1,0.2-1.3,0.6
			c-0.3,0.4-0.4,1-0.4,1.9v3.6h-2.1v-7.6h1.6l0.3,1h0.1c0.2-0.4,0.6-0.6,1-0.8c0.4-0.2,0.9-0.3,1.4-0.3c0.9,0,1.6,0.2,2,0.7
			c0.5,0.5,0.7,1.2,0.7,2.1V98.3z"/>
		<path id="XMLID_160_" class="st5" d="M82.3,98.4c-1.2,0-2.2-0.3-2.9-1s-1-1.6-1-2.9c0-1.3,0.3-2.3,1-3c0.6-0.7,1.5-1,2.7-1
			c1.1,0,1.9,0.3,2.5,0.9s0.9,1.5,0.9,2.5v1h-4.9c0,0.6,0.2,1.1,0.5,1.4s0.8,0.5,1.4,0.5c0.5,0,0.9,0,1.3-0.1s0.8-0.2,1.3-0.5v1.6
			c-0.4,0.2-0.8,0.3-1.2,0.4C83.4,98.4,82.9,98.4,82.3,98.4z M82,92c-0.4,0-0.8,0.1-1,0.4c-0.3,0.3-0.4,0.7-0.4,1.2h2.9
			c0-0.5-0.1-0.9-0.4-1.2C82.8,92.1,82.5,92,82,92z"/>
		<path id="XMLID_157_" class="st5" d="M57.3,112.7l-1-2.7h-3.4l-1,2.7h-1.1l3.3-8.6h1l3.3,8.6H57.3z M56,109.1l-1-2.6l-0.4-1.3
			c-0.1,0.5-0.2,0.9-0.4,1.3l-1,2.6H56z"/>
		<path id="XMLID_154_" class="st5" d="M65.6,106.1c0.8,0,1.5,0.3,2,0.9s0.7,1.4,0.7,2.4c0,1.1-0.2,1.9-0.7,2.5s-1.1,0.9-2,0.9
			c-0.4,0-0.8-0.1-1.2-0.2s-0.6-0.4-0.8-0.7h-0.1c-0.1,0.5-0.2,0.7-0.2,0.8h-0.8v-9.1h1.1v2.2c0,0.4,0,0.9-0.1,1.3h0.1
			C64.1,106.5,64.7,106.1,65.6,106.1z M65.5,107c-0.6,0-1.1,0.2-1.4,0.6c-0.3,0.4-0.4,1-0.4,1.9v0c0,0.9,0.1,1.5,0.4,1.9
			c0.3,0.4,0.8,0.6,1.4,0.6c0.6,0,1-0.2,1.3-0.6s0.4-1,0.4-1.8c0-0.8-0.1-1.4-0.4-1.8S66,107,65.5,107z"/>
		<path id="XMLID_152_" class="st5" d="M71,112.7H70v-9.1H71V112.7z"/>
		<path id="XMLID_149_" class="st5" d="M75.8,112.8c-1,0-1.7-0.3-2.3-0.9s-0.8-1.4-0.8-2.4c0-1,0.3-1.9,0.8-2.5s1.2-0.9,2.1-0.9
			c0.8,0,1.5,0.3,1.9,0.8s0.7,1.2,0.7,2.1v0.6h-4.4c0,0.7,0.2,1.3,0.6,1.7s0.8,0.6,1.5,0.6c0.3,0,0.7,0,1-0.1s0.7-0.2,1.1-0.4v0.9
			c-0.4,0.2-0.7,0.3-1,0.3S76.2,112.8,75.8,112.8z M75.5,107c-0.5,0-0.9,0.2-1.2,0.5s-0.5,0.8-0.5,1.4h3.3c0-0.6-0.1-1.1-0.4-1.4
			S76,107,75.5,107z"/>
		<path id="XMLID_147_" class="st5" d="M84,110.9c0,0.6-0.2,1.1-0.7,1.4s-1.1,0.5-1.9,0.5c-0.8,0-1.5-0.1-2-0.4v-1
			c0.7,0.3,1.4,0.5,2,0.5c0.5,0,0.9-0.1,1.2-0.3s0.4-0.4,0.4-0.7c0-0.3-0.1-0.5-0.3-0.6s-0.6-0.4-1.2-0.6c-0.6-0.2-1-0.4-1.3-0.6
			s-0.4-0.4-0.5-0.6s-0.2-0.5-0.2-0.8c0-0.5,0.2-0.9,0.6-1.2s1-0.5,1.8-0.5c0.7,0,1.4,0.1,2.1,0.4l-0.4,0.8
			c-0.7-0.3-1.2-0.4-1.8-0.4c-0.4,0-0.8,0.1-1,0.2s-0.3,0.3-0.3,0.6c0,0.2,0.1,0.4,0.3,0.6s0.7,0.4,1.4,0.6c0.5,0.2,0.9,0.4,1.2,0.6
			s0.4,0.4,0.6,0.6S84,110.6,84,110.9z"/>
		<path id="XMLID_145_" class="st5" d="M89.8,110.9c0,0.6-0.2,1.1-0.7,1.4s-1.1,0.5-1.9,0.5c-0.8,0-1.5-0.1-2-0.4v-1
			c0.7,0.3,1.4,0.5,2,0.5c0.5,0,0.9-0.1,1.2-0.3s0.4-0.4,0.4-0.7c0-0.3-0.1-0.5-0.3-0.6s-0.6-0.4-1.2-0.6c-0.6-0.2-1-0.4-1.3-0.6
			s-0.4-0.4-0.5-0.6s-0.2-0.5-0.2-0.8c0-0.5,0.2-0.9,0.6-1.2s1-0.5,1.8-0.5c0.7,0,1.4,0.1,2.1,0.4l-0.4,0.8
			c-0.7-0.3-1.2-0.4-1.8-0.4c-0.4,0-0.8,0.1-1,0.2s-0.3,0.3-0.3,0.6c0,0.2,0.1,0.4,0.3,0.6s0.7,0.4,1.4,0.6c0.5,0.2,0.9,0.4,1.2,0.6
			s0.4,0.4,0.6,0.6S89.8,110.6,89.8,110.9z"/>
		<path id="XMLID_142_" class="st5" d="M91.2,104.5c0-0.2,0.1-0.4,0.2-0.5s0.3-0.2,0.4-0.2c0.2,0,0.3,0.1,0.4,0.2s0.2,0.3,0.2,0.5
			c0,0.2-0.1,0.4-0.2,0.5s-0.3,0.2-0.4,0.2c-0.2,0-0.3-0.1-0.4-0.2S91.2,104.7,91.2,104.5z M92.4,112.7h-1.1v-6.4h1.1V112.7z"/>
		<path id="XMLID_140_" class="st5" d="M98.8,112.7v-4.1c0-0.5-0.1-0.9-0.3-1.2s-0.6-0.4-1.1-0.4c-0.7,0-1.1,0.2-1.4,0.5
			s-0.4,1-0.4,1.8v3.3h-1.1v-6.4h0.8l0.2,0.9h0.1c0.2-0.3,0.5-0.6,0.8-0.7s0.8-0.3,1.2-0.3c0.8,0,1.4,0.2,1.8,0.6s0.6,1,0.6,1.8v4.2
			H98.8z"/>
		<path id="XMLID_137_" class="st5" d="M106.1,112.6l0-0.8h0c-0.4,0.6-1.1,1-2,1c-0.8,0-1.5-0.3-1.9-0.9s-0.7-1.4-0.7-2.5
			c0-1,0.2-1.9,0.7-2.4s1.1-0.9,1.9-0.9c0.9,0,1.5,0.3,2,1h0.1l0.1-0.9h0.8v6.5c0,0.9-0.2,1.6-0.7,2.1s-1.2,0.7-2.2,0.7
			c-0.9,0-1.7-0.1-2.3-0.4v-1c0.6,0.3,1.4,0.5,2.4,0.5c0.5,0,1-0.2,1.3-0.5s0.5-0.8,0.5-1.3V112.6z M104.3,111.9
			c0.6,0,1.1-0.2,1.4-0.5s0.4-0.9,0.4-1.7v-0.3c0-0.9-0.1-1.5-0.4-1.9s-0.8-0.6-1.4-0.6c-0.5,0-1,0.2-1.3,0.6s-0.4,1-0.4,1.8
			c0,0.8,0.1,1.4,0.4,1.8S103.7,111.9,104.3,111.9z"/>
		<path id="XMLID_135_" class="st5" d="M115.3,107.1h-1.6v5.6h-1.1v-5.6h-1.1v-0.5l1.1-0.4v-0.4c0-0.8,0.2-1.4,0.5-1.8
			s0.9-0.6,1.6-0.6c0.4,0,0.8,0.1,1.2,0.2l-0.3,0.8c-0.4-0.1-0.7-0.2-1-0.2c-0.4,0-0.6,0.1-0.8,0.4s-0.3,0.6-0.3,1.1v0.4h1.6V107.1z
			"/>
		<path id="XMLID_133_" class="st5" d="M119.5,106.1c0.3,0,0.5,0,0.8,0.1l-0.1,1c-0.2-0.1-0.5-0.1-0.7-0.1c-0.3,0-0.7,0.1-0.9,0.3
			s-0.5,0.4-0.7,0.8s-0.2,0.7-0.2,1.1v3.4h-1.1v-6.4h0.9l0.1,1.2h0c0.2-0.4,0.5-0.7,0.9-1S119.1,106.1,119.5,106.1z"/>
		<path id="XMLID_130_" class="st5" d="M126.9,109.4c0,1.1-0.3,1.9-0.8,2.5s-1.3,0.9-2.2,0.9c-0.6,0-1.1-0.1-1.5-0.4s-0.8-0.7-1-1.2
			s-0.4-1.1-0.4-1.8c0-1,0.3-1.9,0.8-2.4s1.3-0.9,2.2-0.9c0.9,0,1.6,0.3,2.2,0.9S126.9,108.4,126.9,109.4z M122,109.4
			c0,0.8,0.2,1.4,0.5,1.8s0.8,0.6,1.4,0.6c0.6,0,1.1-0.2,1.4-0.6s0.5-1,0.5-1.8s-0.2-1.4-0.5-1.8s-0.8-0.6-1.4-0.6
			C122.7,107,122,107.8,122,109.4z"/>
		<path id="XMLID_128_" class="st5" d="M136.8,112.7v-4.1c0-1-0.4-1.5-1.3-1.5c-0.6,0-1,0.2-1.3,0.5s-0.4,0.9-0.4,1.6v3.6h-1v-4.1
			c0-0.5-0.1-0.9-0.3-1.1s-0.5-0.4-1-0.4c-0.6,0-1,0.2-1.3,0.5s-0.4,1-0.4,1.8v3.3h-1.1v-6.4h0.8l0.2,0.9h0.1
			c0.2-0.3,0.4-0.6,0.8-0.7s0.7-0.3,1.1-0.3c1,0,1.7,0.4,2,1.1h0.1c0.2-0.3,0.5-0.6,0.8-0.8s0.8-0.3,1.2-0.3c0.7,0,1.3,0.2,1.6,0.6
			s0.5,1,0.5,1.8v4.2H136.8z"/>
		<path id="XMLID_126_" class="st5" d="M56.2,127.1V123c0-0.5-0.1-0.9-0.3-1.2s-0.6-0.4-1.1-0.4c-0.7,0-1.1,0.2-1.4,0.5
			s-0.5,1-0.5,1.8v3.3h-1.1V118h1.1v2.7c0,0.4,0,0.7-0.1,0.9h0.1c0.2-0.3,0.5-0.6,0.8-0.7s0.7-0.3,1.2-0.3c0.8,0,1.4,0.2,1.8,0.6
			s0.6,1,0.6,1.8v4.2H56.2z"/>
		<path id="XMLID_123_" class="st5" d="M61.9,127.2c-1,0-1.7-0.3-2.3-0.9s-0.8-1.4-0.8-2.4c0-1,0.3-1.9,0.8-2.5s1.2-0.9,2.1-0.9
			c0.8,0,1.5,0.3,1.9,0.8c0.5,0.5,0.7,1.2,0.7,2.1v0.6h-4.4c0,0.7,0.2,1.3,0.6,1.7s0.8,0.6,1.5,0.6c0.3,0,0.7,0,1-0.1
			s0.7-0.2,1.1-0.4v0.9c-0.4,0.2-0.7,0.3-1,0.3S62.4,127.2,61.9,127.2z M61.7,121.4c-0.5,0-0.9,0.2-1.2,0.5s-0.5,0.8-0.5,1.4h3.3
			c0-0.6-0.1-1.1-0.4-1.4S62.2,121.4,61.7,121.4z"/>
		<path id="XMLID_120_" class="st5" d="M70,127.1l-0.2-0.9h0c-0.3,0.4-0.6,0.7-1,0.8s-0.7,0.2-1.2,0.2c-0.6,0-1.1-0.2-1.5-0.5
			s-0.5-0.8-0.5-1.4c0-1.3,1-2,3.1-2.1l1.1,0v-0.4c0-0.5-0.1-0.8-0.3-1.1s-0.5-0.3-1-0.3c-0.3,0-0.7,0.1-1,0.2s-0.6,0.2-0.9,0.3
			l-0.3-0.8c0.3-0.2,0.7-0.3,1.1-0.4s0.8-0.1,1.1-0.1c0.8,0,1.4,0.2,1.7,0.5s0.6,0.9,0.6,1.6v4.4H70z M67.8,126.3
			c0.6,0,1.1-0.2,1.4-0.5s0.5-0.8,0.5-1.4v-0.6l-0.9,0c-0.7,0-1.3,0.1-1.6,0.4s-0.5,0.5-0.5,1c0,0.3,0.1,0.6,0.3,0.8
			S67.4,126.3,67.8,126.3z"/>
		<path id="XMLID_118_" class="st5" d="M74.1,127.1l-2.4-6.4h1.1l1.4,3.8c0.3,0.8,0.4,1.3,0.5,1.7h0c0-0.1,0-0.1,0-0.2
			s0-0.1,0.1-0.2s0.2-0.5,0.4-1.3l1.4-3.8h1.1l-2.4,6.4H74.1z"/>
		<path id="XMLID_115_" class="st5" d="M81.5,127.2c-1,0-1.7-0.3-2.3-0.9s-0.8-1.4-0.8-2.4c0-1,0.3-1.9,0.8-2.5s1.2-0.9,2.1-0.9
			c0.8,0,1.5,0.3,1.9,0.8s0.7,1.2,0.7,2.1v0.6h-4.4c0,0.7,0.2,1.3,0.6,1.7s0.8,0.6,1.5,0.6c0.3,0,0.7,0,1-0.1s0.7-0.2,1.1-0.4v0.9
			c-0.4,0.2-0.7,0.3-1,0.3S82,127.2,81.5,127.2z M81.3,121.4c-0.5,0-0.9,0.2-1.2,0.5s-0.5,0.8-0.5,1.4h3.3c0-0.6-0.1-1.1-0.4-1.4
			S81.8,121.4,81.3,121.4z"/>
		<path id="XMLID_113_" class="st5" d="M90,127.1V123c0-0.5-0.1-0.9-0.3-1.2s-0.6-0.4-1.1-0.4c-0.7,0-1.1,0.2-1.4,0.5
			s-0.4,1-0.4,1.8v3.3h-1.1v-6.4h0.8l0.2,0.9h0.1c0.2-0.3,0.5-0.6,0.8-0.7s0.8-0.3,1.2-0.3c0.8,0,1.4,0.2,1.8,0.6s0.6,1,0.6,1.8v4.2
			H90z"/>
		<path id="XMLID_111_" class="st5" d="M98.3,126.3c0.1,0,0.3,0,0.5,0s0.3-0.1,0.4-0.1v0.8c-0.1,0-0.2,0.1-0.5,0.1s-0.4,0.1-0.6,0.1
			c-1.3,0-1.9-0.7-1.9-2v-3.7h-0.9V121l0.9-0.4l0.4-1.4h0.6v1.5h1.9v0.8h-1.9v3.7c0,0.4,0.1,0.7,0.3,0.9S97.9,126.3,98.3,126.3z"/>
		<path id="XMLID_109_" class="st5" d="M104.8,127.1V123c0-0.5-0.1-0.9-0.3-1.2s-0.6-0.4-1.1-0.4c-0.7,0-1.1,0.2-1.4,0.5
			s-0.5,1-0.5,1.8v3.3h-1.1V118h1.1v2.7c0,0.4,0,0.7-0.1,0.9h0.1c0.2-0.3,0.5-0.6,0.8-0.7s0.7-0.3,1.2-0.3c0.8,0,1.4,0.2,1.8,0.6
			s0.6,1,0.6,1.8v4.2H104.8z"/>
		<path id="XMLID_106_" class="st5" d="M111.8,127.1l-0.2-0.9h0c-0.3,0.4-0.6,0.7-1,0.8s-0.7,0.2-1.2,0.2c-0.6,0-1.1-0.2-1.5-0.5
			s-0.5-0.8-0.5-1.4c0-1.3,1-2,3.1-2.1l1.1,0v-0.4c0-0.5-0.1-0.8-0.3-1.1s-0.5-0.3-1-0.3c-0.3,0-0.7,0.1-1,0.2s-0.6,0.2-0.9,0.3
			l-0.3-0.8c0.3-0.2,0.7-0.3,1.1-0.4s0.8-0.1,1.1-0.1c0.8,0,1.4,0.2,1.7,0.5s0.6,0.9,0.6,1.6v4.4H111.8z M109.7,126.3
			c0.6,0,1.1-0.2,1.4-0.5s0.5-0.8,0.5-1.4v-0.6l-0.9,0c-0.7,0-1.3,0.1-1.6,0.4s-0.5,0.5-0.5,1c0,0.3,0.1,0.6,0.3,0.8
			S109.3,126.3,109.7,126.3z"/>
		<path id="XMLID_104_" class="st5" d="M116.7,126.3c0.1,0,0.3,0,0.5,0s0.3-0.1,0.4-0.1v0.8c-0.1,0-0.2,0.1-0.5,0.1
			s-0.4,0.1-0.6,0.1c-1.3,0-1.9-0.7-1.9-2v-3.7h-0.9V121l0.9-0.4l0.4-1.4h0.6v1.5h1.9v0.8h-1.9v3.7c0,0.4,0.1,0.7,0.3,0.9
			S116.4,126.3,116.7,126.3z"/>
		<path id="XMLID_101_" class="st5" d="M125.1,120.5c0.8,0,1.5,0.3,2,0.9s0.7,1.4,0.7,2.4c0,1.1-0.2,1.9-0.7,2.5s-1.1,0.9-2,0.9
			c-0.4,0-0.8-0.1-1.2-0.2s-0.6-0.4-0.8-0.7H123c-0.1,0.5-0.2,0.7-0.2,0.8H122V118h1.1v2.2c0,0.4,0,0.9-0.1,1.3h0.1
			C123.5,120.9,124.2,120.5,125.1,120.5z M124.9,121.4c-0.6,0-1.1,0.2-1.4,0.6s-0.4,1-0.4,1.9v0c0,0.9,0.1,1.5,0.4,1.9
			s0.8,0.6,1.4,0.6c0.6,0,1-0.2,1.3-0.6s0.4-1,0.4-1.8c0-0.8-0.1-1.4-0.4-1.8S125.5,121.4,124.9,121.4z"/>
		<path id="XMLID_99_" class="st5" d="M132.4,120.5c0.3,0,0.5,0,0.8,0.1l-0.1,1c-0.2-0.1-0.5-0.1-0.7-0.1c-0.3,0-0.7,0.1-0.9,0.3
			s-0.5,0.4-0.7,0.8s-0.2,0.7-0.2,1.1v3.4h-1.1v-6.4h0.9l0.1,1.2h0c0.2-0.4,0.5-0.7,0.9-1S132,120.5,132.4,120.5z"/>
		<path id="XMLID_96_" class="st5" d="M134.3,118.9c0-0.2,0.1-0.4,0.2-0.5s0.3-0.2,0.4-0.2c0.2,0,0.3,0.1,0.4,0.2s0.2,0.3,0.2,0.5
			c0,0.2-0.1,0.4-0.2,0.5s-0.3,0.2-0.4,0.2c-0.2,0-0.3-0.1-0.4-0.2S134.3,119.1,134.3,118.9z M135.4,127.1h-1.1v-6.4h1.1V127.1z"/>
		<path id="XMLID_94_" class="st5" d="M141.9,127.1V123c0-0.5-0.1-0.9-0.3-1.2s-0.6-0.4-1.1-0.4c-0.7,0-1.1,0.2-1.4,0.5
			s-0.4,1-0.4,1.8v3.3h-1.1v-6.4h0.8l0.2,0.9h0.1c0.2-0.3,0.5-0.6,0.8-0.7s0.8-0.3,1.2-0.3c0.8,0,1.4,0.2,1.8,0.6s0.6,1,0.6,1.8v4.2
			H141.9z"/>
		<path id="XMLID_91_" class="st5" d="M149.2,127l0-0.8h0c-0.4,0.6-1.1,1-2,1c-0.8,0-1.5-0.3-1.9-0.9s-0.7-1.4-0.7-2.5
			c0-1,0.2-1.9,0.7-2.4s1.1-0.9,1.9-0.9c0.9,0,1.5,0.3,2,1h0.1l0.1-0.9h0.8v6.5c0,0.9-0.2,1.6-0.7,2.1s-1.2,0.7-2.2,0.7
			c-0.9,0-1.7-0.1-2.3-0.4v-1c0.6,0.3,1.4,0.5,2.4,0.5c0.5,0,1-0.2,1.3-0.5s0.5-0.8,0.5-1.3V127z M147.3,126.3
			c0.6,0,1.1-0.2,1.4-0.5s0.4-0.9,0.4-1.7v-0.3c0-0.9-0.1-1.5-0.4-1.9s-0.8-0.6-1.4-0.6c-0.5,0-1,0.2-1.3,0.6s-0.4,1-0.4,1.8
			c0,0.8,0.1,1.4,0.4,1.8S146.8,126.3,147.3,126.3z"/>
		<path id="XMLID_89_" class="st5" d="M156.5,125.3c0,0.6-0.2,1.1-0.7,1.4s-1.1,0.5-1.9,0.5c-0.8,0-1.5-0.1-2-0.4v-1
			c0.7,0.3,1.4,0.5,2,0.5c0.5,0,0.9-0.1,1.2-0.3s0.4-0.4,0.4-0.7c0-0.3-0.1-0.5-0.3-0.6s-0.6-0.4-1.2-0.6c-0.6-0.2-1-0.4-1.3-0.6
			s-0.4-0.4-0.5-0.6s-0.2-0.5-0.2-0.8c0-0.5,0.2-0.9,0.6-1.2s1-0.5,1.8-0.5c0.7,0,1.4,0.1,2.1,0.4l-0.4,0.8
			c-0.7-0.3-1.2-0.4-1.8-0.4c-0.4,0-0.8,0.1-1,0.2s-0.3,0.3-0.3,0.6c0,0.2,0.1,0.4,0.3,0.6s0.7,0.4,1.4,0.6c0.5,0.2,0.9,0.4,1.2,0.6
			s0.4,0.4,0.6,0.6S156.5,125,156.5,125.3z"/>
		<path id="XMLID_87_" class="st5" d="M50.8,135h1.1l1.4,3.7c0.3,0.8,0.5,1.4,0.5,1.8h0c0-0.1,0.1-0.4,0.2-0.8s0.2-0.7,0.3-1
			l1.3-3.7h1.1l-2.8,7.3c-0.3,0.7-0.6,1.2-1,1.5s-0.8,0.5-1.4,0.5c-0.3,0-0.6,0-0.9-0.1v-0.8c0.2,0,0.4,0.1,0.7,0.1
			c0.3,0,0.6-0.1,0.9-0.3s0.4-0.5,0.6-0.9l0.3-0.9L50.8,135z"/>
		<path id="XMLID_84_" class="st5" d="M63.5,138.2c0,1.1-0.3,1.9-0.8,2.5s-1.3,0.9-2.2,0.9c-0.6,0-1.1-0.1-1.5-0.4s-0.8-0.7-1-1.2
			s-0.4-1.1-0.4-1.8c0-1,0.3-1.9,0.8-2.4s1.3-0.9,2.2-0.9c0.9,0,1.6,0.3,2.2,0.9S63.5,137.2,63.5,138.2z M58.6,138.2
			c0,0.8,0.2,1.4,0.5,1.8s0.8,0.6,1.4,0.6c0.6,0,1.1-0.2,1.4-0.6s0.5-1,0.5-1.8s-0.2-1.4-0.5-1.8s-0.8-0.6-1.4-0.6
			C59.3,135.8,58.6,136.6,58.6,138.2z"/>
		<path id="XMLID_82_" class="st5" d="M66.2,135v4.1c0,0.5,0.1,0.9,0.3,1.2s0.6,0.4,1.1,0.4c0.7,0,1.1-0.2,1.4-0.6s0.5-1,0.5-1.8
			V135h1.1v6.4h-0.9l-0.2-0.8h-0.1c-0.2,0.3-0.5,0.5-0.8,0.7s-0.8,0.3-1.2,0.3c-0.8,0-1.4-0.2-1.7-0.6s-0.6-1-0.6-1.8V135H66.2z"/>
		<path id="XMLID_79_" class="st5" d="M78.8,141.6c-0.9,0-1.5-0.3-2-0.9h-0.1l0,0.2c0,0.3,0,0.6,0,0.8v2.6h-1.1V135h0.9l0.1,0.9h0
			c0.3-0.4,0.5-0.6,0.9-0.8s0.7-0.2,1.1-0.2c0.8,0,1.5,0.3,1.9,0.9s0.7,1.4,0.7,2.5c0,1.1-0.2,1.9-0.7,2.5S79.6,141.6,78.8,141.6z
			 M78.6,135.8c-0.6,0-1.1,0.2-1.4,0.5s-0.4,0.9-0.4,1.7v0.2c0,0.9,0.1,1.5,0.4,1.9s0.8,0.6,1.4,0.6c0.5,0,1-0.2,1.3-0.7
			s0.5-1,0.5-1.8c0-0.8-0.2-1.4-0.5-1.8S79.1,135.8,78.6,135.8z"/>
		<path id="XMLID_77_" class="st5" d="M86.1,134.9c0.3,0,0.5,0,0.8,0.1l-0.1,1c-0.2-0.1-0.5-0.1-0.7-0.1c-0.3,0-0.7,0.1-0.9,0.3
			s-0.5,0.4-0.7,0.8s-0.2,0.7-0.2,1.1v3.4h-1.1V135H84l0.1,1.2h0c0.2-0.4,0.5-0.7,0.9-1S85.7,134.9,86.1,134.9z"/>
		<path id="XMLID_74_" class="st5" d="M93.5,138.2c0,1.1-0.3,1.9-0.8,2.5s-1.3,0.9-2.2,0.9c-0.6,0-1.1-0.1-1.5-0.4s-0.8-0.7-1-1.2
			s-0.4-1.1-0.4-1.8c0-1,0.3-1.9,0.8-2.4s1.3-0.9,2.2-0.9c0.9,0,1.6,0.3,2.2,0.9S93.5,137.2,93.5,138.2z M88.7,138.2
			c0,0.8,0.2,1.4,0.5,1.8s0.8,0.6,1.4,0.6c0.6,0,1.1-0.2,1.4-0.6s0.5-1,0.5-1.8s-0.2-1.4-0.5-1.8s-0.8-0.6-1.4-0.6
			C89.3,135.8,88.7,136.6,88.7,138.2z"/>
		<path id="XMLID_72_" class="st5" d="M99.4,139.7c0,0.6-0.2,1.1-0.7,1.4s-1.1,0.5-1.9,0.5c-0.8,0-1.5-0.1-2-0.4v-1
			c0.7,0.3,1.4,0.5,2,0.5c0.5,0,0.9-0.1,1.2-0.3s0.4-0.4,0.4-0.7c0-0.3-0.1-0.5-0.3-0.6s-0.6-0.4-1.2-0.6c-0.6-0.2-1-0.4-1.3-0.6
			s-0.4-0.4-0.5-0.6s-0.2-0.5-0.2-0.8c0-0.5,0.2-0.9,0.6-1.2s1-0.5,1.8-0.5c0.7,0,1.4,0.1,2.1,0.4l-0.4,0.8
			c-0.7-0.3-1.2-0.4-1.8-0.4c-0.4,0-0.8,0.1-1,0.2s-0.3,0.3-0.3,0.6c0,0.2,0.1,0.4,0.3,0.6s0.7,0.4,1.4,0.6c0.5,0.2,0.9,0.4,1.2,0.6
			s0.4,0.4,0.6,0.6S99.4,139.4,99.4,139.7z"/>
		<path id="XMLID_69_" class="st5" d="M104,141.6c-0.9,0-1.5-0.3-2-0.9h-0.1l0,0.2c0,0.3,0,0.6,0,0.8v2.6h-1.1V135h0.9l0.1,0.9h0
			c0.3-0.4,0.5-0.6,0.9-0.8s0.7-0.2,1.1-0.2c0.8,0,1.5,0.3,1.9,0.9s0.7,1.4,0.7,2.5c0,1.1-0.2,1.9-0.7,2.5S104.8,141.6,104,141.6z
			 M103.8,135.8c-0.6,0-1.1,0.2-1.4,0.5s-0.4,0.9-0.4,1.7v0.2c0,0.9,0.1,1.5,0.4,1.9s0.8,0.6,1.4,0.6c0.5,0,1-0.2,1.3-0.7
			s0.5-1,0.5-1.8c0-0.8-0.2-1.4-0.5-1.8S104.4,135.8,103.8,135.8z"/>
		<path id="XMLID_66_" class="st5" d="M111.1,141.6c-1,0-1.7-0.3-2.3-0.9s-0.8-1.4-0.8-2.4c0-1,0.3-1.9,0.8-2.5s1.2-0.9,2.1-0.9
			c0.8,0,1.5,0.3,1.9,0.8s0.7,1.2,0.7,2.1v0.6h-4.4c0,0.7,0.2,1.3,0.6,1.7s0.8,0.6,1.5,0.6c0.3,0,0.7,0,1-0.1s0.7-0.2,1.1-0.4v0.9
			c-0.4,0.2-0.7,0.3-1,0.3S111.5,141.6,111.1,141.6z M110.8,135.8c-0.5,0-0.9,0.2-1.2,0.5s-0.5,0.8-0.5,1.4h3.3
			c0-0.6-0.1-1.1-0.4-1.4S111.3,135.8,110.8,135.8z"/>
		<path id="XMLID_64_" class="st5" d="M118.1,134.9c0.3,0,0.5,0,0.8,0.1l-0.1,1c-0.2-0.1-0.5-0.1-0.7-0.1c-0.3,0-0.7,0.1-0.9,0.3
			s-0.5,0.4-0.7,0.8s-0.2,0.7-0.2,1.1v3.4h-1.1V135h0.9l0.1,1.2h0c0.2-0.4,0.5-0.7,0.9-1S117.7,134.9,118.1,134.9z"/>
		<path id="XMLID_61_" class="st5" d="M120,133.3c0-0.2,0.1-0.4,0.2-0.5s0.3-0.2,0.4-0.2c0.2,0,0.3,0.1,0.4,0.2s0.2,0.3,0.2,0.5
			c0,0.2-0.1,0.4-0.2,0.5s-0.3,0.2-0.4,0.2c-0.2,0-0.3-0.1-0.4-0.2S120,133.5,120,133.3z M121.1,141.5H120V135h1.1V141.5z"/>
		<path id="XMLID_59_" class="st5" d="M125.3,140.7c0.1,0,0.3,0,0.5,0s0.3-0.1,0.4-0.1v0.8c-0.1,0-0.2,0.1-0.5,0.1s-0.4,0.1-0.6,0.1
			c-1.3,0-1.9-0.7-1.9-2v-3.7h-0.9v-0.5l0.9-0.4l0.4-1.4h0.6v1.5h1.9v0.8h-1.9v3.7c0,0.4,0.1,0.7,0.3,0.9S125,140.7,125.3,140.7z"/>
		<path id="XMLID_57_" class="st5" d="M126.5,135h1.1l1.4,3.7c0.3,0.8,0.5,1.4,0.5,1.8h0c0-0.1,0.1-0.4,0.2-0.8s0.2-0.7,0.3-1
			l1.3-3.7h1.1l-2.8,7.3c-0.3,0.7-0.6,1.2-1,1.5s-0.8,0.5-1.4,0.5c-0.3,0-0.6,0-0.9-0.1v-0.8c0.2,0,0.4,0.1,0.7,0.1
			c0.3,0,0.6-0.1,0.9-0.3c0.2-0.2,0.4-0.5,0.6-0.9l0.3-0.9L126.5,135z"/>
		<path id="XMLID_54_" class="st5" d="M55.8,155.9l-0.2-0.9h0c-0.3,0.4-0.6,0.7-1,0.8s-0.7,0.2-1.2,0.2c-0.6,0-1.1-0.2-1.5-0.5
			s-0.5-0.8-0.5-1.4c0-1.3,1-2,3.1-2.1l1.1,0v-0.4c0-0.5-0.1-0.8-0.3-1.1s-0.5-0.3-1-0.3c-0.3,0-0.7,0.1-1,0.2s-0.6,0.2-0.9,0.3
			l-0.3-0.8c0.3-0.2,0.7-0.3,1.1-0.4s0.8-0.1,1.1-0.1c0.8,0,1.4,0.2,1.7,0.5s0.6,0.9,0.6,1.6v4.4H55.8z M53.6,155.1
			c0.6,0,1.1-0.2,1.4-0.5s0.5-0.8,0.5-1.4v-0.6l-0.9,0c-0.7,0-1.3,0.1-1.6,0.4s-0.5,0.5-0.5,1c0,0.3,0.1,0.6,0.3,0.8
			S53.2,155.1,53.6,155.1z"/>
		<path id="XMLID_52_" class="st5" d="M62.9,155.9v-4.1c0-0.5-0.1-0.9-0.3-1.2s-0.6-0.4-1.1-0.4c-0.7,0-1.1,0.2-1.4,0.5
			s-0.4,1-0.4,1.8v3.3h-1.1v-6.4h0.8l0.2,0.9h0.1c0.2-0.3,0.5-0.6,0.8-0.7s0.8-0.3,1.2-0.3c0.8,0,1.4,0.2,1.8,0.6s0.6,1,0.6,1.8v4.2
			H62.9z"/>
		<path id="XMLID_49_" class="st5" d="M68.2,156c-0.8,0-1.5-0.3-1.9-0.9s-0.7-1.4-0.7-2.5c0-1.1,0.2-1.9,0.7-2.5s1.1-0.9,2-0.9
			c0.9,0,1.5,0.3,2,0.9h0.1c0-0.1,0-0.2,0-0.5s0-0.4,0-0.5v-2.6h1.1v9.1h-0.8l-0.2-0.9h0C69.8,155.7,69.1,156,68.2,156z M68.4,155.1
			c0.6,0,1.1-0.2,1.4-0.5s0.4-0.9,0.4-1.7v-0.2c0-0.9-0.1-1.5-0.4-1.9s-0.8-0.6-1.4-0.6c-0.5,0-1,0.2-1.3,0.6s-0.4,1-0.4,1.8
			c0,0.8,0.1,1.4,0.4,1.8S67.8,155.1,68.4,155.1z"/>
		<path id="XMLID_47_" class="st5" d="M79.4,150.3h-1.6v5.6h-1.1v-5.6h-1.1v-0.5l1.1-0.4V149c0-0.8,0.2-1.4,0.5-1.8s0.9-0.6,1.6-0.6
			c0.4,0,0.8,0.1,1.2,0.2l-0.3,0.8c-0.4-0.1-0.7-0.2-1-0.2c-0.4,0-0.6,0.1-0.8,0.4s-0.3,0.6-0.3,1.1v0.4h1.6V150.3z"/>
		<path id="XMLID_44_" class="st5" d="M86.2,152.6c0,1.1-0.3,1.9-0.8,2.5s-1.3,0.9-2.2,0.9c-0.6,0-1.1-0.1-1.5-0.4s-0.8-0.7-1-1.2
			s-0.4-1.1-0.4-1.8c0-1,0.3-1.9,0.8-2.4s1.3-0.9,2.2-0.9c0.9,0,1.6,0.3,2.2,0.9S86.2,151.6,86.2,152.6z M81.3,152.6
			c0,0.8,0.2,1.4,0.5,1.8s0.8,0.6,1.4,0.6c0.6,0,1.1-0.2,1.4-0.6s0.5-1,0.5-1.8s-0.2-1.4-0.5-1.8s-0.8-0.6-1.4-0.6
			C81.9,150.2,81.3,151,81.3,152.6z"/>
		<path id="XMLID_42_" class="st5" d="M90.8,149.3c0.3,0,0.5,0,0.8,0.1l-0.1,1c-0.2-0.1-0.5-0.1-0.7-0.1c-0.3,0-0.7,0.1-0.9,0.3
			s-0.5,0.4-0.7,0.8s-0.2,0.7-0.2,1.1v3.4h-1.1v-6.4h0.9l0.1,1.2h0c0.2-0.4,0.5-0.7,0.9-1S90.4,149.3,90.8,149.3z"/>
		<path id="XMLID_40_" class="st5" d="M94.9,155.1c0.1,0,0.3,0,0.5,0s0.3-0.1,0.4-0.1v0.8c-0.1,0-0.2,0.1-0.5,0.1S95,156,94.8,156
			c-1.3,0-1.9-0.7-1.9-2v-3.7H92v-0.5l0.9-0.4l0.4-1.4h0.6v1.5h1.9v0.8h-1.9v3.7c0,0.4,0.1,0.7,0.3,0.9S94.6,155.1,94.9,155.1z"/>
		<path id="XMLID_38_" class="st5" d="M98.1,149.4v4.1c0,0.5,0.1,0.9,0.3,1.2s0.6,0.4,1.1,0.4c0.7,0,1.1-0.2,1.4-0.6s0.5-1,0.5-1.8
			v-3.4h1.1v6.4h-0.9l-0.2-0.8h-0.1c-0.2,0.3-0.5,0.5-0.8,0.7s-0.8,0.3-1.2,0.3c-0.8,0-1.4-0.2-1.7-0.6s-0.6-1-0.6-1.8v-4.2H98.1z"
			/>
		<path id="XMLID_36_" class="st5" d="M108.9,155.9v-4.1c0-0.5-0.1-0.9-0.3-1.2s-0.6-0.4-1.1-0.4c-0.7,0-1.1,0.2-1.4,0.5
			s-0.4,1-0.4,1.8v3.3h-1.1v-6.4h0.8l0.2,0.9h0.1c0.2-0.3,0.5-0.6,0.8-0.7s0.8-0.3,1.2-0.3c0.8,0,1.4,0.2,1.8,0.6s0.6,1,0.6,1.8v4.2
			H108.9z"/>
		<path id="XMLID_33_" class="st5" d="M114.7,156c-1,0-1.7-0.3-2.3-0.9s-0.8-1.4-0.8-2.4c0-1,0.3-1.9,0.8-2.5s1.2-0.9,2.1-0.9
			c0.8,0,1.5,0.3,1.9,0.8s0.7,1.2,0.7,2.1v0.6h-4.4c0,0.7,0.2,1.3,0.6,1.7s0.8,0.6,1.5,0.6c0.3,0,0.7,0,1-0.1s0.7-0.2,1.1-0.4v0.9
			c-0.4,0.2-0.7,0.3-1,0.3S115.1,156,114.7,156z M114.4,150.2c-0.5,0-0.9,0.2-1.2,0.5s-0.5,0.8-0.5,1.4h3.3c0-0.6-0.1-1.1-0.4-1.4
			S114.9,150.2,114.4,150.2z"/>
	</g>
</g>
<g id="XMLID_20_">
	<circle id="XMLID_29_" class="st6" cx="91.8" cy="36.1" r="9.1"/>
	<rect id="XMLID_28_" x="82.6" y="36.2" class="st6" width="18.3" height="35"/>
	<rect id="XMLID_27_" x="88.9" y="13.6" class="st6" width="5.8" height="35.9"/>
	<path id="XMLID_26_" class="st6" d="M94.8,15.1h-6.1c-0.6,0-1-0.5-1-1v-0.2c0-0.6,0.5-1,1-1h6.1c0.6,0,1,0.5,1,1v0.2
		C95.9,14.7,95.4,15.1,94.8,15.1z"/>
	<path id="XMLID_25_" class="st7" d="M93.2,12.9h-2.4c-1.2,0-2.2-1-2.2-2.2v-0.4c0-1.2,1-2.2,2.2-2.2h2.4c1.2,0,2.2,1,2.2,2.2v0.4
		C95.4,11.9,94.4,12.9,93.2,12.9z"/>
	<rect id="XMLID_24_" x="85.4" y="37.8" class="st8" width="15.5" height="24.3"/>
	<rect id="XMLID_23_" x="87.1" y="39.9" class="st9" width="12.3" height="19.2"/>
	<path id="XMLID_22_" class="st6" d="M98.4,73.2H85.2c-1.4,0-2.6-1.2-2.6-2.6l0,0c0-1.4,1.2-2.6,2.6-2.6h13.2c1.4,0,2.6,1.2,2.6,2.6
		l0,0C100.9,72,99.8,73.2,98.4,73.2z"/>
	<rect id="XMLID_21_" x="92" y="12.9" class="st10" width="2.7" height="15"/>
</g>
<g id="XMLID_15_">
	<circle id="XMLID_19_" class="st11" cx="30.2" cy="91.5" r="4"/>
	<path id="XMLID_18_" class="st11" d="M26.2,91.5h8.1v10.1C34.3,101.6,26.2,96.7,26.2,91.5z"/>
	<circle id="XMLID_17_" class="st11" cx="38.3" cy="91.3" r="4"/>
	<path id="XMLID_16_" class="st11" d="M42.3,91.3h-8.1v10.1C34.3,101.4,42.3,96.5,42.3,91.3z"/>
</g>
</svg>