<!-- Generator: Adobe Illustrator 19.0.0, SVG Export Plug-In  -->
<svg version="1.1"
	 xmlns="http://www.w3.org/2000/svg" xmlns:xlink="http://www.w3.org/1999/xlink" xmlns:a="http://ns.adobe.com/AdobeSVGViewerExtensions/3.0/"
	 x="0px" y="0px" width="167px" height="167px" viewBox="0 0 167 167" style="enable-background:new 0 0 167 167;"
	 xml:space="preserve">
<style type="text/css">
	.st0{fill:#0F5A7C;}
	.st1{fill:#FFFFFF;}
	.st2{fill:#3F3F3F;}
	.st3{fill:#CC0D29;}
	.st4{fill:#177596;}
	.st5{fill:#AA7117;}
	.st6{fill:#D1EBF2;}
	.st7{fill:#F4B23D;}
	.st8{fill:#D2D7D8;}
</style>
<defs>
</defs>
<g id="XMLID_15_">
	<rect id="XMLID_234_" class="st0" width="150" height="167"/>
	<polygon id="XMLID_233_" class="st1" points="147.8,166.6 147.8,147.6 167,166.8 	"/>
	<rect id="XMLID_232_" y="88.8" class="st1" width="150" height="78.2"/>
	<g id="XMLID_31_">
		<g id="XMLID_33_">
			<path id="XMLID_129_" class="st2" d="M32.9,96.8H36c1.4,0,2.4,0.2,3.1,0.6c0.6,0.4,1,1,1,1.9c0,0.6-0.1,1.1-0.4,1.5
				s-0.7,0.6-1.1,0.7v0.1c0.6,0.1,1.1,0.4,1.4,0.8c0.3,0.4,0.4,0.9,0.4,1.5c0,0.9-0.3,1.6-1,2.1c-0.7,0.5-1.6,0.8-2.7,0.8h-3.7V96.8
				z M35,100.7h1.2c0.6,0,1-0.1,1.2-0.3c0.3-0.2,0.4-0.5,0.4-0.9c0-0.4-0.1-0.7-0.4-0.8c-0.3-0.2-0.7-0.3-1.3-0.3H35V100.7z
				 M35,102.4v2.6h1.4c0.6,0,1-0.1,1.3-0.3c0.3-0.2,0.4-0.6,0.4-1c0-0.8-0.6-1.2-1.8-1.2H35z"/>
			<path id="XMLID_126_" class="st2" d="M49.1,103c0,1.2-0.3,2.2-1,2.9c-0.7,0.7-1.6,1.1-2.7,1.1c-0.7,0-1.4-0.2-1.9-0.5
				s-1-0.8-1.3-1.4s-0.5-1.3-0.5-2.1c0-1.2,0.3-2.2,1-2.9c0.7-0.7,1.6-1,2.7-1c0.7,0,1.4,0.2,1.9,0.5c0.6,0.3,1,0.8,1.3,1.4
				C48.9,101.4,49.1,102.1,49.1,103z M43.8,103c0,0.8,0.1,1.3,0.4,1.7c0.2,0.4,0.7,0.6,1.2,0.6c0.6,0,1-0.2,1.2-0.6
				c0.2-0.4,0.4-1,0.4-1.7c0-0.8-0.1-1.3-0.4-1.7c-0.2-0.4-0.6-0.6-1.2-0.6c-0.6,0-1,0.2-1.2,0.6S43.8,102.2,43.8,103z"/>
			<path id="XMLID_123_" class="st2" d="M57.8,103c0,1.2-0.3,2.2-1,2.9c-0.7,0.7-1.6,1.1-2.7,1.1c-0.7,0-1.4-0.2-1.9-0.5
				s-1-0.8-1.3-1.4s-0.5-1.3-0.5-2.1c0-1.2,0.3-2.2,1-2.9c0.7-0.7,1.6-1,2.7-1c0.7,0,1.4,0.2,1.9,0.5c0.6,0.3,1,0.8,1.3,1.4
				C57.6,101.4,57.8,102.1,57.8,103z M52.5,103c0,0.8,0.1,1.3,0.4,1.7c0.2,0.4,0.7,0.6,1.2,0.6c0.6,0,1-0.2,1.2-0.6
				c0.2-0.4,0.4-1,0.4-1.7c0-0.8-0.1-1.3-0.4-1.7c-0.2-0.4-0.6-0.6-1.2-0.6c-0.6,0-1,0.2-1.2,0.6S52.5,102.2,52.5,103z"/>
			<path id="XMLID_121_" class="st2" d="M61.5,102.6l0.9-1.2l2.1-2.3h2.4l-3,3.3l3.2,4.3h-2.4l-2.2-3.1l-0.9,0.7v2.4h-2.1V96.1h2.1
				v4.7L61.5,102.6L61.5,102.6z"/>
			<path id="XMLID_119_" class="st2" d="M73.5,104.5c0,0.8-0.3,1.4-0.8,1.8c-0.5,0.4-1.4,0.6-2.4,0.6c-0.6,0-1,0-1.4-0.1
				s-0.8-0.2-1.1-0.3v-1.7c0.4,0.2,0.8,0.3,1.3,0.5s0.9,0.2,1.3,0.2c0.8,0,1.1-0.2,1.1-0.7c0-0.2-0.1-0.3-0.2-0.4s-0.3-0.2-0.5-0.3
				s-0.6-0.3-1-0.5c-0.6-0.2-1-0.5-1.3-0.7c-0.3-0.2-0.5-0.5-0.6-0.7c-0.1-0.3-0.2-0.6-0.2-1c0-0.7,0.3-1.2,0.8-1.6
				c0.5-0.4,1.3-0.6,2.2-0.6c0.9,0,1.8,0.2,2.7,0.6l-0.6,1.5c-0.4-0.2-0.7-0.3-1.1-0.4c-0.3-0.1-0.7-0.2-1-0.2
				c-0.6,0-0.9,0.2-0.9,0.5c0,0.2,0.1,0.3,0.3,0.5s0.6,0.3,1.3,0.6c0.6,0.2,1,0.5,1.3,0.7c0.3,0.2,0.5,0.5,0.6,0.7
				S73.5,104.1,73.5,104.5z"/>
			<path id="XMLID_117_" class="st2" d="M35.8,123.6h-3.6v-0.7l1.2-0.3v-8l-1.2-0.3v-0.7h3.6v0.7l-1.2,0.3v8l1.2,0.3V123.6z"/>
			<path id="XMLID_114_" class="st2" d="M45.8,123.6l-0.2-1.1h-0.1c-0.4,0.5-0.7,0.8-1.1,1c-0.4,0.2-0.8,0.2-1.4,0.2
				c-0.7,0-1.3-0.2-1.7-0.6c-0.4-0.4-0.6-0.9-0.6-1.6c0-1.5,1.2-2.3,3.6-2.4l1.3,0v-0.4c0-0.6-0.1-1-0.4-1.3
				c-0.2-0.3-0.6-0.4-1.2-0.4c-0.4,0-0.8,0.1-1.1,0.2c-0.4,0.1-0.7,0.3-1,0.4l-0.4-0.9c0.4-0.2,0.8-0.4,1.2-0.5
				c0.4-0.1,0.9-0.2,1.3-0.2c0.9,0,1.6,0.2,2,0.6c0.4,0.4,0.7,1,0.7,1.9v5.1H45.8z M43.3,122.7c0.7,0,1.2-0.2,1.6-0.6
				c0.4-0.4,0.6-0.9,0.6-1.6v-0.7l-1.1,0c-0.9,0-1.5,0.2-1.9,0.4c-0.4,0.2-0.6,0.6-0.6,1.1c0,0.4,0.1,0.7,0.4,0.9
				C42.5,122.6,42.9,122.7,43.3,122.7z"/>
			<path id="XMLID_111_" class="st2" d="M51.7,123.7c-1,0-1.7-0.3-2.3-1c-0.5-0.7-0.8-1.6-0.8-2.9c0-1.2,0.3-2.2,0.8-2.9
				c0.5-0.7,1.3-1,2.3-1c1,0,1.8,0.4,2.3,1.1h0.1c0-0.1,0-0.3-0.1-0.5c0-0.3,0-0.5,0-0.6v-3h1.2v10.6h-1l-0.2-1h-0.1
				C53.5,123.3,52.8,123.7,51.7,123.7z M51.9,122.7c0.7,0,1.3-0.2,1.6-0.6c0.3-0.4,0.5-1.1,0.5-2v-0.2c0-1-0.2-1.8-0.5-2.2
				s-0.9-0.7-1.6-0.7c-0.6,0-1.1,0.3-1.5,0.8c-0.3,0.5-0.5,1.2-0.5,2.2c0,0.9,0.2,1.6,0.5,2.1C50.8,122.5,51.3,122.7,51.9,122.7z"/>
			<path id="XMLID_109_" class="st2" d="M67.2,123.6v-4.8c0-1.2-0.5-1.8-1.5-1.8c-0.7,0-1.2,0.2-1.5,0.6c-0.3,0.4-0.5,1-0.5,1.9v4.1
				h-1.2v-4.8c0-0.6-0.1-1-0.4-1.3c-0.2-0.3-0.6-0.4-1.2-0.4c-0.7,0-1.2,0.2-1.5,0.6s-0.5,1.1-0.5,2.1v3.9h-1.2v-7.5h1l0.2,1h0.1
				c0.2-0.4,0.5-0.6,0.9-0.9s0.8-0.3,1.3-0.3c1.2,0,1.9,0.4,2.3,1.3h0.1c0.2-0.4,0.6-0.7,1-0.9s0.9-0.3,1.4-0.3
				c0.8,0,1.5,0.2,1.9,0.7c0.4,0.4,0.6,1.1,0.6,2.1v4.9H67.2z"/>
			<path id="XMLID_106_" class="st2" d="M70.7,114c0-0.3,0.1-0.5,0.2-0.6c0.1-0.1,0.3-0.2,0.5-0.2c0.2,0,0.4,0.1,0.5,0.2
				s0.2,0.3,0.2,0.6c0,0.3-0.1,0.5-0.2,0.6c-0.1,0.1-0.3,0.2-0.5,0.2c-0.2,0-0.4-0.1-0.5-0.2C70.7,114.5,70.7,114.3,70.7,114z
				 M72,123.6h-1.2v-7.5H72V123.6z"/>
			<path id="XMLID_104_" class="st2" d="M77.9,115.9c0.3,0,0.6,0,0.9,0.1l-0.2,1.1c-0.3-0.1-0.5-0.1-0.8-0.1c-0.4,0-0.8,0.1-1.1,0.3
				c-0.3,0.2-0.6,0.5-0.8,0.9c-0.2,0.4-0.3,0.8-0.3,1.3v4h-1.2v-7.5h1l0.1,1.4h0.1c0.3-0.5,0.6-0.9,1-1.1
				C77,116.1,77.4,115.9,77.9,115.9z"/>
			<path id="XMLID_101_" class="st2" d="M83.2,123.7c-1.1,0-2-0.3-2.6-1c-0.6-0.7-1-1.6-1-2.8c0-1.2,0.3-2.2,0.9-2.9
				c0.6-0.7,1.4-1.1,2.4-1.1c0.9,0,1.7,0.3,2.3,0.9s0.8,1.4,0.8,2.5v0.7h-5.1c0,0.9,0.2,1.5,0.6,1.9c0.4,0.4,1,0.7,1.7,0.7
				c0.4,0,0.8,0,1.1-0.1c0.4-0.1,0.8-0.2,1.3-0.4v1.1c-0.4,0.2-0.8,0.3-1.2,0.4C84.1,123.7,83.7,123.7,83.2,123.7z M82.9,116.9
				c-0.6,0-1.1,0.2-1.4,0.6c-0.3,0.4-0.5,0.9-0.6,1.6h3.8c0-0.7-0.2-1.2-0.5-1.6C83.9,117.1,83.5,116.9,82.9,116.9z"/>
			<path id="XMLID_99_" class="st2" d="M90.4,116.1h1.3l1.6,4.3c0.3,0.9,0.6,1.6,0.6,2H94c0-0.2,0.1-0.5,0.3-0.9
				c0.1-0.5,0.3-0.8,0.4-1.1l1.5-4.3h1.3l-3.2,8.5c-0.3,0.8-0.7,1.4-1.1,1.8c-0.4,0.4-1,0.5-1.6,0.5c-0.3,0-0.7,0-1-0.1v-1
				c0.2,0.1,0.5,0.1,0.8,0.1c0.4,0,0.7-0.1,1-0.3c0.3-0.2,0.5-0.6,0.7-1l0.4-1L90.4,116.1z"/>
			<path id="XMLID_96_" class="st2" d="M105.2,119.8c0,1.2-0.3,2.2-0.9,2.9c-0.6,0.7-1.5,1-2.6,1c-0.7,0-1.3-0.2-1.8-0.5
				c-0.5-0.3-0.9-0.8-1.2-1.4c-0.3-0.6-0.4-1.3-0.4-2.1c0-1.2,0.3-2.2,0.9-2.9c0.6-0.7,1.5-1,2.6-1c1.1,0,1.9,0.3,2.5,1
				C104.9,117.7,105.2,118.6,105.2,119.8z M99.5,119.8c0,0.9,0.2,1.7,0.6,2.2c0.4,0.5,0.9,0.7,1.6,0.7c0.7,0,1.3-0.2,1.6-0.7
				c0.4-0.5,0.6-1.2,0.6-2.2s-0.2-1.7-0.6-2.1c-0.4-0.5-0.9-0.7-1.7-0.7C100.3,117,99.5,117.9,99.5,119.8z"/>
			<path id="XMLID_94_" class="st2" d="M108.3,116.1v4.8c0,0.6,0.1,1.1,0.4,1.4c0.3,0.3,0.7,0.4,1.3,0.4c0.8,0,1.3-0.2,1.7-0.6
				c0.4-0.4,0.5-1.1,0.5-2.1v-3.9h1.2v7.5h-1l-0.2-1h-0.1c-0.2,0.4-0.5,0.6-1,0.8c-0.4,0.2-0.9,0.3-1.4,0.3c-0.9,0-1.6-0.2-2-0.6
				c-0.5-0.4-0.7-1.1-0.7-2.1v-4.9H108.3z"/>
			<path id="XMLID_92_" class="st2" d="M119.3,115.9c0.3,0,0.6,0,0.9,0.1l-0.2,1.1c-0.3-0.1-0.5-0.1-0.8-0.1c-0.4,0-0.8,0.1-1.1,0.3
				c-0.3,0.2-0.6,0.5-0.8,0.9c-0.2,0.4-0.3,0.8-0.3,1.3v4h-1.2v-7.5h1l0.1,1.4h0.1c0.3-0.5,0.6-0.9,1-1.1
				C118.4,116.1,118.9,115.9,119.3,115.9z"/>
			<path id="XMLID_90_" class="st2" d="M34,136.5l0.4-0.5l0.5-0.6l2.4-2.5h1.4l-3,3.2l3.2,4.3h-1.5l-2.6-3.5l-0.9,0.7v2.8h-1.2
				v-10.6H34v5.6V136.5L34,136.5z"/>
			<path id="XMLID_88_" class="st2" d="M45.4,140.4v-4.8c0-0.6-0.1-1.1-0.4-1.4c-0.3-0.3-0.7-0.4-1.3-0.4c-0.8,0-1.3,0.2-1.7,0.6
				c-0.3,0.4-0.5,1.1-0.5,2.1v3.9h-1.2v-7.5h1l0.2,1h0.1c0.2-0.4,0.6-0.7,1-0.9c0.4-0.2,0.9-0.3,1.4-0.3c0.9,0,1.6,0.2,2.1,0.7
				c0.4,0.4,0.7,1.1,0.7,2.1v4.9H45.4z"/>
			<path id="XMLID_85_" class="st2" d="M55.5,136.6c0,1.2-0.3,2.2-0.9,2.9c-0.6,0.7-1.5,1-2.6,1c-0.7,0-1.3-0.2-1.8-0.5
				c-0.5-0.3-0.9-0.8-1.2-1.4c-0.3-0.6-0.4-1.3-0.4-2.1c0-1.2,0.3-2.2,0.9-2.9c0.6-0.7,1.5-1,2.6-1c1.1,0,1.9,0.3,2.5,1
				C55.2,134.5,55.5,135.4,55.5,136.6z M49.8,136.6c0,0.9,0.2,1.7,0.6,2.1c0.4,0.5,0.9,0.7,1.6,0.7c0.7,0,1.3-0.2,1.6-0.7
				c0.4-0.5,0.6-1.2,0.6-2.1s-0.2-1.7-0.6-2.1c-0.4-0.5-0.9-0.7-1.7-0.7C50.5,133.8,49.8,134.7,49.8,136.6z"/>
			<path id="XMLID_83_" class="st2" d="M63.4,140.4l-1.3-4.2c-0.1-0.4-0.3-1-0.5-2h-0.1c-0.2,0.9-0.4,1.6-0.5,2l-1.3,4.2h-1.4
				l-2.1-7.5h1.3c0.5,1.8,0.8,3.2,1.1,4.2c0.2,1,0.4,1.6,0.4,2h0.1l0.1-0.4c0.1-0.7,0.3-1.2,0.4-1.6l1.3-4.2h1.3l1.3,4.2
				c0,0.2,0.1,0.3,0.1,0.5c0.1,0.2,0.1,0.4,0.1,0.5c0,0.2,0.1,0.3,0.1,0.5c0,0.2,0.1,0.3,0.1,0.4h0.1c0-0.3,0.2-1.1,0.5-2.2l1.1-4
				H67l-2.1,7.5H63.4z"/>
			<path id="XMLID_81_" class="st2" d="M69.5,140.4h-1.2v-10.6h1.2V140.4z"/>
			<path id="XMLID_78_" class="st2" d="M75.1,140.5c-1.1,0-2-0.3-2.6-1c-0.6-0.7-1-1.6-1-2.8c0-1.2,0.3-2.2,0.9-2.9
				c0.6-0.7,1.4-1.1,2.4-1.1c0.9,0,1.7,0.3,2.3,0.9s0.8,1.4,0.8,2.5v0.7h-5.1c0,0.9,0.2,1.5,0.6,1.9c0.4,0.4,1,0.7,1.7,0.7
				c0.4,0,0.8,0,1.1-0.1c0.4-0.1,0.8-0.2,1.3-0.4v1.1c-0.4,0.2-0.8,0.3-1.2,0.4C76,140.5,75.6,140.5,75.1,140.5z M74.8,133.7
				c-0.6,0-1.1,0.2-1.4,0.6c-0.3,0.4-0.5,0.9-0.6,1.6h3.8c0-0.7-0.2-1.2-0.5-1.6C75.8,133.9,75.4,133.7,74.8,133.7z"/>
			<path id="XMLID_75_" class="st2" d="M82.5,140.5c-1,0-1.7-0.3-2.3-1c-0.5-0.7-0.8-1.6-0.8-2.9c0-1.2,0.3-2.2,0.8-2.9
				c0.5-0.7,1.3-1,2.3-1c1,0,1.8,0.4,2.3,1.1h0.1c0-0.1,0-0.3-0.1-0.6c0-0.3,0-0.5,0-0.6v-3H86v10.6h-1l-0.2-1h-0.1
				C84.3,140.1,83.5,140.5,82.5,140.5z M82.7,139.5c0.7,0,1.3-0.2,1.6-0.6c0.3-0.4,0.5-1.1,0.5-2v-0.2c0-1-0.2-1.8-0.5-2.2
				s-0.9-0.7-1.6-0.7c-0.6,0-1.1,0.3-1.5,0.8c-0.3,0.5-0.5,1.2-0.5,2.2c0,0.9,0.2,1.6,0.5,2.1C81.5,139.3,82,139.5,82.7,139.5z"/>
			<path id="XMLID_72_" class="st2" d="M93.4,140.3l0-0.9h-0.1c-0.5,0.8-1.3,1.1-2.3,1.1c-1,0-1.7-0.3-2.3-1
				c-0.5-0.7-0.8-1.6-0.8-2.9c0-1.2,0.3-2.2,0.8-2.9c0.5-0.7,1.3-1,2.3-1c1,0,1.8,0.4,2.4,1.1h0.1l0.2-1h1v7.6
				c0,1.1-0.3,1.9-0.8,2.4c-0.5,0.5-1.4,0.8-2.5,0.8c-1.1,0-2-0.2-2.7-0.5v-1.1c0.7,0.4,1.7,0.6,2.8,0.6c0.6,0,1.1-0.2,1.5-0.6
				c0.4-0.4,0.6-0.9,0.6-1.6V140.3z M91.3,139.5c0.8,0,1.3-0.2,1.7-0.6c0.3-0.4,0.5-1.1,0.5-2v-0.3c0-1-0.2-1.7-0.5-2.2
				c-0.3-0.5-0.9-0.7-1.7-0.7c-0.6,0-1.1,0.2-1.5,0.7c-0.3,0.5-0.5,1.2-0.5,2.1c0,0.9,0.2,1.6,0.5,2.1
				C90.1,139.3,90.6,139.5,91.3,139.5z"/>
			<path id="XMLID_69_" class="st2" d="M100.2,140.5c-1.1,0-2-0.3-2.6-1c-0.6-0.7-1-1.6-1-2.8c0-1.2,0.3-2.2,0.9-2.9
				c0.6-0.7,1.4-1.1,2.4-1.1c0.9,0,1.7,0.3,2.3,0.9s0.8,1.4,0.8,2.5v0.7h-5.1c0,0.9,0.2,1.5,0.6,1.9c0.4,0.4,1,0.7,1.7,0.7
				c0.4,0,0.8,0,1.1-0.1c0.4-0.1,0.8-0.2,1.3-0.4v1.1c-0.4,0.2-0.8,0.3-1.2,0.4C101.2,140.5,100.7,140.5,100.2,140.5z M99.9,133.7
				c-0.6,0-1.1,0.2-1.4,0.6c-0.3,0.4-0.5,0.9-0.6,1.6h3.8c0-0.7-0.2-1.2-0.5-1.6C100.9,133.9,100.5,133.7,99.9,133.7z"/>
			<path id="XMLID_66_" class="st2" d="M113.2,140.4l-0.2-1.1h-0.1c-0.4,0.5-0.7,0.8-1.1,1c-0.4,0.2-0.8,0.3-1.4,0.3
				c-0.7,0-1.3-0.2-1.7-0.6c-0.4-0.4-0.6-0.9-0.6-1.6c0-1.5,1.2-2.3,3.6-2.4l1.3,0v-0.4c0-0.6-0.1-1-0.4-1.3
				c-0.2-0.3-0.6-0.4-1.2-0.4c-0.4,0-0.8,0.1-1.1,0.2c-0.4,0.1-0.7,0.3-1,0.4l-0.4-0.9c0.4-0.2,0.8-0.4,1.2-0.5
				c0.4-0.1,0.9-0.2,1.3-0.2c0.9,0,1.6,0.2,2,0.6c0.4,0.4,0.7,1,0.7,1.9v5.1H113.2z M110.7,139.5c0.7,0,1.2-0.2,1.6-0.6
				c0.4-0.4,0.6-0.9,0.6-1.6v-0.7l-1.1,0c-0.9,0-1.5,0.2-1.9,0.4c-0.4,0.2-0.6,0.6-0.6,1.1c0,0.4,0.1,0.7,0.4,0.9
				C109.9,139.4,110.2,139.5,110.7,139.5z"/>
			<path id="XMLID_64_" class="st2" d="M121.5,140.4v-4.8c0-0.6-0.1-1.1-0.4-1.4c-0.3-0.3-0.7-0.4-1.3-0.4c-0.8,0-1.3,0.2-1.7,0.6
				c-0.3,0.4-0.5,1.1-0.5,2.1v3.9h-1.2v-7.5h1l0.2,1h0.1c0.2-0.4,0.6-0.7,1-0.9c0.4-0.2,0.9-0.3,1.4-0.3c0.9,0,1.6,0.2,2.1,0.7
				c0.4,0.4,0.7,1.1,0.7,2.1v4.9H121.5z"/>
			<path id="XMLID_61_" class="st2" d="M127.7,140.5c-1,0-1.7-0.3-2.3-1c-0.5-0.7-0.8-1.6-0.8-2.9c0-1.2,0.3-2.2,0.8-2.9
				c0.5-0.7,1.3-1,2.3-1c1,0,1.8,0.4,2.3,1.1h0.1c0-0.1,0-0.3-0.1-0.6c0-0.3,0-0.5,0-0.6v-3h1.2v10.6h-1l-0.2-1h-0.1
				C129.5,140.1,128.8,140.5,127.7,140.5z M127.9,139.5c0.7,0,1.3-0.2,1.6-0.6c0.3-0.4,0.5-1.1,0.5-2v-0.2c0-1-0.2-1.8-0.5-2.2
				s-0.9-0.7-1.6-0.7c-0.6,0-1.1,0.3-1.5,0.8c-0.3,0.5-0.5,1.2-0.5,2.2c0,0.9,0.2,1.6,0.5,2.1C126.8,139.3,127.3,139.5,127.9,139.5z
				"/>
			<path id="XMLID_58_" class="st2" d="M36.4,157.3c-1,0-1.8-0.4-2.3-1.1H34l0,0.3c0,0.4,0.1,0.7,0.1,1v3.1h-1.2v-10.9h1l0.2,1h0.1
				c0.3-0.4,0.6-0.7,1-0.9c0.4-0.2,0.8-0.3,1.3-0.3c1,0,1.7,0.3,2.3,1s0.8,1.6,0.8,2.9c0,1.2-0.3,2.2-0.8,2.9
				C38.1,157,37.4,157.3,36.4,157.3z M36.2,150.6c-0.7,0-1.3,0.2-1.6,0.6c-0.3,0.4-0.5,1.1-0.5,2v0.2c0,1,0.2,1.8,0.5,2.2
				c0.3,0.5,0.9,0.7,1.6,0.7c0.6,0,1.1-0.3,1.5-0.8c0.4-0.5,0.5-1.2,0.5-2.1c0-0.9-0.2-1.6-0.5-2.1
				C37.3,150.8,36.8,150.6,36.2,150.6z"/>
			<path id="XMLID_55_" class="st2" d="M44.6,157.3c-1.1,0-2-0.3-2.6-1c-0.6-0.7-1-1.6-1-2.8c0-1.2,0.3-2.2,0.9-2.9
				c0.6-0.7,1.4-1.1,2.4-1.1c0.9,0,1.7,0.3,2.3,0.9s0.8,1.4,0.8,2.5v0.7h-5.1c0,0.9,0.2,1.5,0.6,1.9c0.4,0.4,1,0.7,1.7,0.7
				c0.4,0,0.8,0,1.1-0.1c0.4-0.1,0.8-0.2,1.3-0.4v1.1c-0.4,0.2-0.8,0.3-1.2,0.4C45.6,157.3,45.1,157.3,44.6,157.3z M44.3,150.5
				c-0.6,0-1.1,0.2-1.4,0.6c-0.3,0.4-0.5,0.9-0.6,1.6h3.8c0-0.7-0.2-1.2-0.5-1.6C45.3,150.7,44.9,150.5,44.3,150.5z"/>
			<path id="XMLID_53_" class="st2" d="M52.8,149.5c0.3,0,0.6,0,0.9,0.1l-0.2,1.1c-0.3-0.1-0.5-0.1-0.8-0.1c-0.4,0-0.8,0.1-1.1,0.3
				c-0.3,0.2-0.6,0.5-0.8,0.9c-0.2,0.4-0.3,0.8-0.3,1.3v4h-1.2v-7.5h1l0.1,1.4h0.1c0.3-0.5,0.6-0.9,1-1.1
				C52,149.7,52.4,149.5,52.8,149.5z"/>
			<path id="XMLID_51_" class="st2" d="M60,155.1c0,0.7-0.3,1.2-0.8,1.6c-0.5,0.4-1.3,0.6-2.2,0.6c-1,0-1.8-0.2-2.4-0.5v-1.1
				c0.8,0.4,1.6,0.6,2.4,0.6c0.6,0,1.1-0.1,1.4-0.3c0.3-0.2,0.4-0.5,0.4-0.8c0-0.3-0.1-0.5-0.4-0.8c-0.3-0.2-0.8-0.4-1.4-0.7
				c-0.7-0.3-1.2-0.5-1.5-0.7c-0.3-0.2-0.5-0.4-0.6-0.7c-0.1-0.2-0.2-0.5-0.2-0.9c0-0.6,0.3-1.1,0.8-1.5s1.2-0.5,2.1-0.5
				c0.9,0,1.6,0.2,2.4,0.5l-0.4,1c-0.8-0.3-1.4-0.5-2.1-0.5c-0.5,0-0.9,0.1-1.2,0.2c-0.3,0.2-0.4,0.4-0.4,0.7c0,0.3,0.1,0.5,0.3,0.7
				c0.2,0.2,0.8,0.4,1.6,0.7c0.6,0.2,1.1,0.4,1.4,0.6c0.3,0.2,0.5,0.4,0.7,0.7C59.9,154.5,60,154.8,60,155.1z"/>
			<path id="XMLID_48_" class="st2" d="M68.4,153.4c0,1.2-0.3,2.2-0.9,2.9c-0.6,0.7-1.5,1-2.6,1c-0.7,0-1.3-0.2-1.8-0.5
				c-0.5-0.3-0.9-0.8-1.2-1.4c-0.3-0.6-0.4-1.3-0.4-2.1c0-1.2,0.3-2.2,0.9-2.9c0.6-0.7,1.5-1,2.6-1c1.1,0,1.9,0.3,2.5,1
				C68,151.3,68.4,152.2,68.4,153.4z M62.7,153.4c0,0.9,0.2,1.7,0.6,2.1c0.4,0.5,0.9,0.7,1.6,0.7c0.7,0,1.3-0.2,1.6-0.7
				c0.4-0.5,0.6-1.2,0.6-2.1s-0.2-1.7-0.6-2.1c-0.4-0.5-0.9-0.7-1.7-0.7C63.4,150.6,62.7,151.5,62.7,153.4z"/>
			<path id="XMLID_46_" class="st2" d="M75.4,157.2v-4.8c0-0.6-0.1-1.1-0.4-1.4c-0.3-0.3-0.7-0.4-1.3-0.4c-0.8,0-1.3,0.2-1.7,0.6
				c-0.3,0.4-0.5,1.1-0.5,2.1v3.9h-1.2v-7.5h1l0.2,1h0.1c0.2-0.4,0.6-0.7,1-0.9c0.4-0.2,0.9-0.3,1.4-0.3c0.9,0,1.6,0.2,2.1,0.7
				c0.4,0.4,0.7,1.1,0.7,2.1v4.9H75.4z"/>
			<path id="XMLID_43_" class="st2" d="M83.6,157.2l-0.2-1.1h-0.1c-0.4,0.5-0.7,0.8-1.1,1c-0.4,0.2-0.8,0.3-1.4,0.3
				c-0.7,0-1.3-0.2-1.7-0.6c-0.4-0.4-0.6-0.9-0.6-1.6c0-1.5,1.2-2.3,3.6-2.4l1.3,0v-0.4c0-0.6-0.1-1-0.4-1.3
				c-0.2-0.3-0.6-0.4-1.2-0.4c-0.4,0-0.8,0.1-1.1,0.2c-0.4,0.1-0.7,0.3-1,0.4l-0.4-0.9c0.4-0.2,0.8-0.4,1.2-0.5
				c0.4-0.1,0.9-0.2,1.3-0.2c0.9,0,1.6,0.2,2,0.6c0.4,0.4,0.7,1,0.7,1.9v5.1H83.6z M81.1,156.3c0.7,0,1.2-0.2,1.6-0.6
				c0.4-0.4,0.6-0.9,0.6-1.6v-0.7l-1.1,0c-0.9,0-1.5,0.2-1.9,0.4c-0.4,0.2-0.6,0.6-0.6,1.1c0,0.4,0.1,0.7,0.4,0.9
				C80.3,156.2,80.6,156.3,81.1,156.3z"/>
			<path id="XMLID_41_" class="st2" d="M88,157.2h-1.2v-10.6H88V157.2z"/>
			<path id="XMLID_38_" class="st2" d="M90.3,147.6c0-0.3,0.1-0.5,0.2-0.6c0.1-0.1,0.3-0.2,0.5-0.2c0.2,0,0.4,0.1,0.5,0.2
				s0.2,0.3,0.2,0.6c0,0.3-0.1,0.5-0.2,0.6c-0.1,0.1-0.3,0.2-0.5,0.2c-0.2,0-0.4-0.1-0.5-0.2C90.4,148.1,90.3,147.9,90.3,147.6z
				 M91.6,157.2h-1.2v-7.5h1.2V157.2z"/>
			<path id="XMLID_36_" class="st2" d="M96.5,156.3c0.2,0,0.3,0,0.6,0c0.2,0,0.4-0.1,0.5-0.1v0.9c-0.1,0-0.3,0.1-0.5,0.1
				s-0.5,0.1-0.7,0.1c-1.5,0-2.2-0.8-2.2-2.3v-4.4h-1.1V150l1.1-0.5l0.5-1.6h0.7v1.7h2.2v1h-2.2v4.3c0,0.4,0.1,0.8,0.3,1
				C95.9,156.2,96.2,156.3,96.5,156.3z"/>
			<path id="XMLID_34_" class="st2" d="M97.9,149.7h1.3l1.6,4.3c0.3,0.9,0.6,1.6,0.6,2h0.1c0-0.2,0.1-0.5,0.3-0.9
				c0.1-0.5,0.3-0.8,0.4-1.1l1.5-4.3h1.3l-3.2,8.5c-0.3,0.8-0.7,1.4-1.1,1.8c-0.4,0.4-1,0.5-1.6,0.5c-0.3,0-0.7,0-1-0.1v-1
				c0.2,0.1,0.5,0.1,0.8,0.1c0.4,0,0.7-0.1,1-0.3c0.3-0.2,0.5-0.5,0.7-1l0.4-1L97.9,149.7z"/>
		</g>
	</g>
	<g id="XMLID_26_">
		<circle id="XMLID_30_" class="st3" cx="12.5" cy="101.1" r="4"/>
		<path id="XMLID_29_" class="st3" d="M8.4,101.1h8.1v10.1C16.5,111.2,8.4,106.3,8.4,101.1z"/>
		<circle id="XMLID_28_" class="st3" cx="20.5" cy="101" r="4"/>
		<path id="XMLID_27_" class="st3" d="M24.6,101h-8.1V111C16.5,111,24.6,106.1,24.6,101z"/>
	</g>
	<g id="XMLID_16_">
		<rect id="XMLID_25_" x="62" y="17.8" class="st4" width="39.2" height="56.8"/>
		<path id="XMLID_24_" class="st5" d="M94.5,77.3H58.9c-3.7,0-6.7-3-6.7-6.7l0,0c0-3.7,3-6.7,6.7-6.7h35.6c3.7,0,6.7,3,6.7,6.7l0,0
			C101.2,74.3,98.2,77.3,94.5,77.3z"/>
		<rect id="XMLID_23_" x="62" y="13" class="st6" width="39.2" height="56.8"/>
		<rect id="XMLID_22_" x="66.7" y="21.1" class="st7" width="31.3" height="9.8"/>
		<rect id="XMLID_21_" x="59.4" y="69.9" class="st1" width="38.7" height="4.7"/>
		<path id="XMLID_20_" class="st5" d="M62,13c0,0-9.7,0.9-9.7,11.4v45.6c0,2.7,3,4.3,5.3,2.8l4.4-3v-2.2V13z"/>
		<circle id="XMLID_19_" class="st1" cx="59.6" cy="71.3" r="3.3"/>
		<rect id="XMLID_18_" x="59.4" y="68" class="st8" width="38.7" height="2.4"/>
		<rect id="XMLID_17_" x="98.1" y="68" class="st0" width="8.6" height="6.6"/>
	</g>
</g>
</svg>