<!-- Generator: Adobe Illustrator 19.0.0, SVG Export Plug-In  -->
<svg version="1.1"
	 xmlns="http://www.w3.org/2000/svg" xmlns:xlink="http://www.w3.org/1999/xlink" xmlns:a="http://ns.adobe.com/AdobeSVGViewerExtensions/3.0/"
	 x="0px" y="0px" width="168.4px" height="167.1px" viewBox="0 0 168.4 167.1" style="enable-background:new 0 0 168.4 167.1;"
	 xml:space="preserve">
<style type="text/css">
	.st0{fill:#E5E5E3;}
	.st1{fill:#FFFFFF;}
	.st2{fill:#12B27D;}
	.st3{fill:#FF105A;}
	.st4{fill:#CC0D29;}
	.st5{fill:#3F3F3F;}
</style>
<defs>
</defs>
<g id="XMLID_15_">
	<rect id="XMLID_221_" class="st0" width="151.3" height="167"/>
	<rect id="XMLID_220_" y="58.9" class="st1" width="151.4" height="108.3"/>
	<polygon id="XMLID_219_" class="st1" points="149.2,167 149.2,147.9 168.4,167.1 	"/>
	<g id="XMLID_200_">
		<g id="XMLID_210_">
			<rect id="XMLID_218_" x="33.8" y="21" class="st2" width="35.4" height="6.4"/>
			<rect id="XMLID_217_" x="36.3" y="27.5" class="st2" width="30.5" height="24.6"/>
			<path id="XMLID_216_" class="st2" d="M44.5,20L44.5,20c-1.7,0-3.1-1.4-3.1-3.1v-2.4c0-1.7,1.4-3.1,3.1-3.1l0,0
				c1.7,0,3.1,1.4,3.1,3.1v2.4C47.6,18.6,46.2,20,44.5,20z"/>
			<path id="XMLID_215_" class="st2" d="M44.5,21c0,0-3.1-1-3.1-3.6h6.1c0,0-0.2,2.8,1.9,3.6H44.5z"/>
			<path id="XMLID_214_" class="st2" d="M57.3,20.4L57.3,20.4c1.7,0,3.1-1.4,3.1-3.1v-2.4c0-1.7-1.4-3.1-3.1-3.1l0,0
				c-1.7,0-3.1,1.4-3.1,3.1v2.4C54.3,19,55.6,20.4,57.3,20.4z"/>
			<path id="XMLID_213_" class="st2" d="M57.3,21c0,0,3.1-1,3.1-3.6h-6.1c0,0,0.2,2.8-1.9,3.6H57.3z"/>
			<rect id="XMLID_212_" x="36.3" y="27.5" class="st2" width="29" height="2.2"/>
			<rect id="XMLID_211_" x="48.6" y="21" class="st2" width="5.8" height="31.1"/>
		</g>
		<g id="XMLID_201_">
			<rect id="XMLID_209_" x="78.4" y="21" class="st3" width="35.4" height="6.4"/>
			<rect id="XMLID_208_" x="80.8" y="27.5" class="st3" width="30.5" height="24.6"/>
			<path id="XMLID_207_" class="st3" d="M89,20L89,20c-1.7,0-3.1-1.4-3.1-3.1v-2.4c0-1.7,1.4-3.1,3.1-3.1h0c1.7,0,3.1,1.4,3.1,3.1
				v2.4C92.1,18.6,90.7,20,89,20z"/>
			<path id="XMLID_206_" class="st3" d="M89,21c0,0-3.1-1-3.1-3.6h6.1c0,0-0.2,2.8,1.9,3.6H89z"/>
			<path id="XMLID_205_" class="st3" d="M101.9,20.4L101.9,20.4c1.7,0,3.1-1.4,3.1-3.1v-2.4c0-1.7-1.4-3.1-3.1-3.1l0,0
				c-1.7,0-3.1,1.4-3.1,3.1v2.4C98.8,19,100.2,20.4,101.9,20.4z"/>
			<path id="XMLID_204_" class="st3" d="M101.9,21c0,0,3.1-1,3.1-3.6h-6.1c0,0,0.2,2.8-1.9,3.6H101.9z"/>
			<rect id="XMLID_203_" x="80.8" y="27.5" class="st3" width="29" height="2.2"/>
			<rect id="XMLID_202_" x="93.1" y="21" class="st3" width="5.8" height="31.1"/>
		</g>
	</g>
	<g id="XMLID_195_">
		<circle id="XMLID_199_" class="st4" cx="10.3" cy="71.3" r="4"/>
		<path id="XMLID_198_" class="st4" d="M6.2,71.3h8.1v10.1C14.3,81.4,6.2,76.5,6.2,71.3z"/>
		<circle id="XMLID_197_" class="st4" cx="18.3" cy="71.2" r="4"/>
		<path id="XMLID_196_" class="st4" d="M22.4,71.2h-8.1v10.1C14.3,81.2,22.4,76.3,22.4,71.2z"/>
	</g>
	<g id="XMLID_16_">
		<path id="XMLID_193_" class="st5" d="M38.8,76.3h-2.4L35,71.1c-0.1-0.2-0.1-0.6-0.3-1.2c-0.1-0.6-0.2-1-0.2-1.2
			c0,0.2-0.1,0.6-0.2,1.2c-0.1,0.5-0.2,0.9-0.3,1.2l-1.3,5.2h-2.4l-2.5-10h2.1l1.3,5.5c0.2,1,0.4,1.9,0.5,2.6c0-0.3,0.1-0.7,0.2-1.2
			c0.1-0.5,0.2-1,0.3-1.3l1.5-5.6h2L37,72c0.1,0.3,0.1,0.6,0.2,1.1s0.2,1,0.2,1.3c0-0.4,0.1-0.8,0.2-1.3c0.1-0.5,0.2-1,0.3-1.3
			l1.3-5.5h2.1L38.8,76.3z"/>
		<path id="XMLID_191_" class="st5" d="M46.6,68.6c0.3,0,0.5,0,0.7,0.1l-0.2,2c-0.2,0-0.4-0.1-0.6-0.1c-0.7,0-1.2,0.2-1.6,0.5
			c-0.4,0.3-0.6,0.8-0.6,1.4v3.9h-2.1v-7.6h1.6l0.3,1.3h0.1c0.2-0.4,0.6-0.8,1-1C45.7,68.7,46.1,68.6,46.6,68.6z"/>
		<path id="XMLID_188_" class="st5" d="M53.4,76.3l-0.4-1H53c-0.4,0.4-0.7,0.7-1.1,0.9c-0.4,0.2-0.9,0.3-1.5,0.3
			c-0.7,0-1.3-0.2-1.7-0.6c-0.4-0.4-0.6-1-0.6-1.8c0-0.8,0.3-1.4,0.9-1.8c0.6-0.4,1.4-0.6,2.6-0.6l1.3,0v-0.3c0-0.8-0.4-1.2-1.2-1.2
			c-0.6,0-1.3,0.2-2.2,0.6l-0.7-1.4c0.9-0.5,1.9-0.7,2.9-0.7c1,0,1.8,0.2,2.4,0.7s0.8,1.1,0.8,2v5.1H53.4z M52.8,72.8l-0.8,0
			c-0.6,0-1.1,0.1-1.4,0.3s-0.4,0.5-0.4,0.9c0,0.6,0.3,0.9,1,0.9c0.5,0,0.9-0.1,1.2-0.4c0.3-0.3,0.4-0.6,0.4-1.1V72.8z"/>
		<path id="XMLID_185_" class="st5" d="M61.2,76.5c-0.9,0-1.6-0.3-2.1-1H59c0.1,0.6,0.1,1,0.1,1.1v3.1H57v-11h1.7l0.3,1h0.1
			c0.5-0.8,1.2-1.1,2.2-1.1c0.9,0,1.6,0.3,2.1,1s0.8,1.7,0.8,2.9c0,0.8-0.1,1.5-0.4,2.1s-0.6,1.1-1,1.4S61.8,76.5,61.2,76.5z
			 M60.6,70.2c-0.5,0-0.9,0.2-1.1,0.5c-0.2,0.3-0.4,0.8-0.4,1.6v0.2c0,0.8,0.1,1.4,0.4,1.8c0.2,0.4,0.6,0.5,1.2,0.5
			c0.9,0,1.4-0.8,1.4-2.3c0-0.8-0.1-1.3-0.3-1.7C61.4,70.4,61.1,70.2,60.6,70.2z"/>
		<path id="XMLID_183_" class="st5" d="M68.4,68.7h2.3l1.4,4.3c0.1,0.4,0.2,0.8,0.3,1.3h0c0.1-0.5,0.1-0.9,0.3-1.3l1.4-4.3h2.2
			l-3.2,8.6c-0.3,0.8-0.7,1.4-1.3,1.8c-0.5,0.4-1.2,0.6-1.9,0.6c-0.4,0-0.7,0-1.1-0.1v-1.7c0.3,0.1,0.5,0.1,0.8,0.1
			c0.4,0,0.7-0.1,1-0.3c0.3-0.2,0.5-0.6,0.6-1l0.1-0.4L68.4,68.7z"/>
		<path id="XMLID_180_" class="st5" d="M84.4,72.5c0,1.2-0.3,2.2-1,2.9s-1.6,1.1-2.7,1.1c-0.7,0-1.4-0.2-1.9-0.5
			c-0.6-0.3-1-0.8-1.3-1.4S77,73.3,77,72.5c0-1.2,0.3-2.2,1-2.9s1.6-1,2.7-1c0.7,0,1.4,0.2,1.9,0.5s1,0.8,1.3,1.4
			S84.4,71.7,84.4,72.5z M79.1,72.5c0,0.8,0.1,1.3,0.4,1.7c0.2,0.4,0.7,0.6,1.2,0.6c0.6,0,1-0.2,1.2-0.6c0.2-0.4,0.4-1,0.4-1.7
			c0-0.8-0.1-1.3-0.4-1.7s-0.6-0.6-1.2-0.6c-0.6,0-1,0.2-1.2,0.6C79.3,71.2,79.1,71.8,79.1,72.5z"/>
		<path id="XMLID_178_" class="st5" d="M91.6,76.3l-0.3-1h-0.1c-0.2,0.4-0.5,0.6-1,0.8c-0.4,0.2-0.9,0.3-1.4,0.3
			c-0.9,0-1.6-0.2-2-0.7c-0.5-0.5-0.7-1.2-0.7-2.1v-5h2.1v4.5c0,0.6,0.1,1,0.3,1.2c0.2,0.3,0.5,0.4,0.9,0.4c0.6,0,1-0.2,1.3-0.6
			c0.3-0.4,0.4-1,0.4-1.9v-3.6h2.1v7.6H91.6z"/>
		<path id="XMLID_176_" class="st5" d="M99.6,68.6c0.3,0,0.5,0,0.7,0.1l-0.2,2c-0.2,0-0.4-0.1-0.6-0.1c-0.7,0-1.2,0.2-1.6,0.5
			c-0.4,0.3-0.6,0.8-0.6,1.4v3.9h-2.1v-7.6h1.6l0.3,1.3h0.1c0.2-0.4,0.6-0.8,1-1C98.7,68.7,99.1,68.6,99.6,68.6z"/>
		<path id="XMLID_173_" class="st5" d="M112,76.4c0,1.1-0.3,1.9-1,2.5c-0.6,0.6-1.6,0.9-2.9,0.9c-1.1,0-2.1-0.2-2.9-0.5v-1.7
			c0.9,0.4,1.9,0.6,3,0.6c1.1,0,1.6-0.6,1.6-1.7v-0.2l0.1-0.9h-0.1c-0.5,0.8-1.2,1.1-2.2,1.1c-0.9,0-1.6-0.4-2.1-1.1
			c-0.5-0.7-0.8-1.7-0.8-2.9c0-1.3,0.3-2.2,0.8-2.9c0.5-0.7,1.2-1,2.2-1c0.9,0,1.7,0.4,2.2,1.1h0.1l0.2-1h1.8V76.4z M108.5,74.8
			c0.6,0,1-0.2,1.2-0.5c0.2-0.3,0.4-0.8,0.4-1.6v-0.3c0-0.8-0.1-1.4-0.4-1.8c-0.3-0.4-0.7-0.5-1.2-0.5c-1,0-1.5,0.8-1.5,2.3
			c0,0.8,0.1,1.3,0.4,1.7C107.6,74.7,108,74.8,108.5,74.8z"/>
		<path id="XMLID_170_" class="st5" d="M114.1,66.7c0-0.7,0.4-1,1.1-1s1.1,0.3,1.1,1c0,0.3-0.1,0.6-0.3,0.8
			c-0.2,0.2-0.5,0.3-0.9,0.3C114.5,67.8,114.1,67.4,114.1,66.7z M116.3,76.3h-2.1v-7.6h2.1V76.3z"/>
		<path id="XMLID_168_" class="st5" d="M122.7,70.3h-1.8v6.1h-2.1v-6.1h-1.1v-1l1.1-0.6v-0.6c0-0.9,0.2-1.5,0.6-1.9s1.1-0.6,2.1-0.6
			c0.7,0,1.4,0.1,1.9,0.3l-0.5,1.5c-0.4-0.1-0.8-0.2-1.2-0.2c-0.3,0-0.5,0.1-0.6,0.3c-0.1,0.2-0.2,0.4-0.2,0.7v0.5h1.8V70.3z"/>
		<path id="XMLID_166_" class="st5" d="M127.1,74.8c0.4,0,0.8-0.1,1.3-0.2v1.6c-0.5,0.2-1.2,0.3-1.9,0.3c-0.8,0-1.4-0.2-1.8-0.6
			c-0.4-0.4-0.6-1.1-0.6-1.9v-3.7h-1v-0.9l1.1-0.7l0.6-1.6h1.3v1.6h2.1v1.6h-2.1V74c0,0.3,0.1,0.5,0.2,0.7
			C126.6,74.8,126.8,74.8,127.1,74.8z"/>
		<path id="XMLID_164_" class="st5" d="M135.3,74.1c0,0.8-0.3,1.4-0.8,1.8c-0.5,0.4-1.4,0.6-2.4,0.6c-0.6,0-1,0-1.4-0.1
			c-0.4-0.1-0.8-0.2-1.1-0.3v-1.7c0.4,0.2,0.8,0.3,1.3,0.5s0.9,0.2,1.3,0.2c0.8,0,1.1-0.2,1.1-0.7c0-0.2-0.1-0.3-0.2-0.4
			c-0.1-0.1-0.3-0.2-0.5-0.3c-0.2-0.1-0.6-0.3-1-0.5c-0.6-0.2-1-0.5-1.3-0.7c-0.3-0.2-0.5-0.5-0.6-0.7c-0.1-0.3-0.2-0.6-0.2-1
			c0-0.7,0.3-1.2,0.8-1.6c0.5-0.4,1.3-0.6,2.2-0.6c0.9,0,1.8,0.2,2.7,0.6l-0.6,1.5c-0.4-0.2-0.7-0.3-1.1-0.4s-0.7-0.2-1-0.2
			c-0.6,0-0.9,0.2-0.9,0.5c0,0.2,0.1,0.3,0.3,0.5s0.6,0.3,1.3,0.6c0.6,0.2,1,0.5,1.3,0.7s0.5,0.5,0.6,0.7S135.3,73.7,135.3,74.1z"/>
		<path id="XMLID_161_" class="st5" d="M28.8,83.5c0-0.7,0.4-1,1.1-1s1.1,0.3,1.1,1c0,0.3-0.1,0.6-0.3,0.8c-0.2,0.2-0.5,0.3-0.9,0.3
			C29.2,84.6,28.8,84.2,28.8,83.5z M31,93.1h-2.1v-7.6H31V93.1z"/>
		<path id="XMLID_159_" class="st5" d="M40.2,93.1h-2.1v-4.5c0-0.6-0.1-1-0.3-1.2c-0.2-0.3-0.5-0.4-0.9-0.4c-0.6,0-1,0.2-1.3,0.6
			c-0.3,0.4-0.4,1-0.4,1.9v3.6h-2.1v-7.6h1.6l0.3,1h0.1c0.2-0.4,0.6-0.6,1-0.8c0.4-0.2,0.9-0.3,1.4-0.3c0.9,0,1.6,0.2,2,0.7
			c0.5,0.5,0.7,1.2,0.7,2.1V93.1z"/>
		<path id="XMLID_156_" class="st5" d="M52.7,93.2c0,1.1-0.3,1.9-1,2.5c-0.6,0.6-1.6,0.9-2.9,0.9c-1.1,0-2.1-0.2-2.9-0.5v-1.7
			c0.9,0.4,1.9,0.6,3,0.6c1.1,0,1.6-0.6,1.6-1.7v-0.2l0.1-0.9h-0.1c-0.5,0.8-1.2,1.1-2.2,1.1c-0.9,0-1.6-0.4-2.1-1.1
			c-0.5-0.7-0.8-1.7-0.8-2.9c0-1.3,0.3-2.2,0.8-2.9c0.5-0.7,1.2-1,2.2-1c0.9,0,1.7,0.4,2.2,1.1h0.1l0.2-1h1.8V93.2z M49.1,91.6
			c0.6,0,1-0.2,1.2-0.5c0.2-0.3,0.4-0.8,0.4-1.6v-0.3c0-0.8-0.1-1.4-0.4-1.8c-0.3-0.4-0.7-0.5-1.2-0.5c-1,0-1.5,0.8-1.5,2.3
			c0,0.8,0.1,1.3,0.4,1.7C48.2,91.5,48.6,91.6,49.1,91.6z"/>
		<path id="XMLID_154_" class="st5" d="M59.1,85.4c0.3,0,0.5,0,0.7,0.1l-0.2,2c-0.2,0-0.4-0.1-0.6-0.1c-0.7,0-1.2,0.2-1.6,0.5
			c-0.4,0.3-0.6,0.8-0.6,1.4v3.9h-2.1v-7.6h1.6l0.3,1.3h0.1c0.2-0.4,0.6-0.8,1-1C58.2,85.5,58.6,85.4,59.1,85.4z"/>
		<path id="XMLID_151_" class="st5" d="M64.5,93.3c-1.2,0-2.2-0.3-2.9-1s-1-1.6-1-2.9c0-1.3,0.3-2.3,1-3c0.6-0.7,1.5-1,2.7-1
			c1.1,0,1.9,0.3,2.5,0.9s0.9,1.5,0.9,2.5v1h-4.9c0,0.6,0.2,1.1,0.5,1.4s0.8,0.5,1.4,0.5c0.5,0,0.9,0,1.3-0.1s0.8-0.2,1.3-0.5v1.6
			c-0.4,0.2-0.8,0.3-1.2,0.4C65.6,93.2,65.1,93.3,64.5,93.3z M64.2,86.8c-0.4,0-0.8,0.1-1,0.4c-0.3,0.3-0.4,0.7-0.4,1.2h2.9
			c0-0.5-0.1-0.9-0.4-1.2C65,87,64.7,86.8,64.2,86.8z"/>
		<path id="XMLID_148_" class="st5" d="M72.8,93.3c-1.2,0-2.2-0.3-2.9-1s-1-1.6-1-2.9c0-1.3,0.3-2.3,1-3c0.6-0.7,1.5-1,2.7-1
			c1.1,0,1.9,0.3,2.5,0.9s0.9,1.5,0.9,2.5v1H71c0,0.6,0.2,1.1,0.5,1.4s0.8,0.5,1.4,0.5c0.5,0,0.9,0,1.3-0.1s0.8-0.2,1.3-0.5v1.6
			c-0.4,0.2-0.8,0.3-1.2,0.4C73.9,93.2,73.4,93.3,72.8,93.3z M72.5,86.8c-0.4,0-0.8,0.1-1,0.4c-0.3,0.3-0.4,0.7-0.4,1.2H74
			c0-0.5-0.1-0.9-0.4-1.2C73.3,87,72.9,86.8,72.5,86.8z"/>
		<path id="XMLID_146_" class="st5" d="M84.7,93.1h-2.1v-4.5c0-0.6-0.1-1-0.3-1.2c-0.2-0.3-0.5-0.4-0.9-0.4c-0.6,0-1,0.2-1.3,0.6
			c-0.3,0.4-0.4,1-0.4,1.9v3.6h-2.1v-7.6h1.6l0.3,1h0.1c0.2-0.4,0.6-0.6,1-0.8c0.4-0.2,0.9-0.3,1.4-0.3c0.9,0,1.6,0.2,2,0.7
			c0.5,0.5,0.7,1.2,0.7,2.1V93.1z"/>
		<path id="XMLID_143_" class="st5" d="M95.3,93.1l-0.4-1h-0.1c-0.4,0.4-0.7,0.7-1.1,0.9c-0.4,0.2-0.9,0.3-1.5,0.3
			c-0.7,0-1.3-0.2-1.7-0.6c-0.4-0.4-0.6-1-0.6-1.8c0-0.8,0.3-1.4,0.9-1.8c0.6-0.4,1.4-0.6,2.6-0.6l1.3,0v-0.3c0-0.8-0.4-1.2-1.2-1.2
			c-0.6,0-1.3,0.2-2.2,0.6L90.6,86c0.9-0.5,1.9-0.7,2.9-0.7c1,0,1.8,0.2,2.4,0.7s0.8,1.1,0.8,2v5.1H95.3z M94.7,89.6l-0.8,0
			c-0.6,0-1.1,0.1-1.4,0.3s-0.4,0.5-0.4,0.9c0,0.6,0.3,0.9,1,0.9c0.5,0,0.9-0.1,1.2-0.4c0.3-0.3,0.4-0.6,0.4-1.1V89.6z"/>
		<path id="XMLID_141_" class="st5" d="M105.9,93.1h-2.1v-4.5c0-0.6-0.1-1-0.3-1.2c-0.2-0.3-0.5-0.4-0.9-0.4c-0.6,0-1,0.2-1.3,0.6
			c-0.3,0.4-0.4,1-0.4,1.9v3.6h-2.1v-7.6h1.6l0.3,1h0.1c0.2-0.4,0.6-0.6,1-0.8c0.4-0.2,0.9-0.3,1.4-0.3c0.9,0,1.6,0.2,2,0.7
			c0.5,0.5,0.7,1.2,0.7,2.1V93.1z"/>
		<path id="XMLID_138_" class="st5" d="M110.5,93.3c-0.9,0-1.6-0.3-2.1-1s-0.8-1.7-0.8-2.9c0-1.3,0.3-2.2,0.8-2.9
			c0.5-0.7,1.2-1,2.2-1c1,0,1.7,0.4,2.2,1.1h0.1c-0.1-0.6-0.2-1.1-0.2-1.5v-2.4h2.1v10.6h-1.6l-0.4-1h-0.1
			C112.2,92.9,111.5,93.3,110.5,93.3z M111.2,91.6c0.5,0,0.9-0.2,1.2-0.5c0.2-0.3,0.4-0.8,0.4-1.6v-0.2c0-0.8-0.1-1.4-0.4-1.8
			s-0.7-0.5-1.2-0.5c-0.5,0-0.8,0.2-1.1,0.6c-0.3,0.4-0.4,1-0.4,1.7s0.1,1.3,0.4,1.7C110.4,91.4,110.8,91.6,111.2,91.6z"/>
		<path id="XMLID_136_" class="st5" d="M124.9,85.4c0.3,0,0.5,0,0.7,0.1l-0.2,2c-0.2,0-0.4-0.1-0.6-0.1c-0.7,0-1.2,0.2-1.6,0.5
			c-0.4,0.3-0.6,0.8-0.6,1.4v3.9h-2.1v-7.6h1.6l0.3,1.3h0.1c0.2-0.4,0.6-0.8,1-1C123.9,85.5,124.4,85.4,124.9,85.4z"/>
		<path id="XMLID_133_" class="st5" d="M130.3,93.3c-1.2,0-2.2-0.3-2.9-1s-1-1.6-1-2.9c0-1.3,0.3-2.3,1-3c0.6-0.7,1.5-1,2.7-1
			c1.1,0,1.9,0.3,2.5,0.9s0.9,1.5,0.9,2.5v1h-4.9c0,0.6,0.2,1.1,0.5,1.4s0.8,0.5,1.4,0.5c0.5,0,0.9,0,1.3-0.1s0.8-0.2,1.3-0.5v1.6
			c-0.4,0.2-0.8,0.3-1.2,0.4C131.4,93.2,130.9,93.3,130.3,93.3z M130,86.8c-0.4,0-0.8,0.1-1,0.4c-0.3,0.3-0.4,0.7-0.4,1.2h2.9
			c0-0.5-0.1-0.9-0.4-1.2C130.8,87,130.4,86.8,130,86.8z"/>
		<path id="XMLID_130_" class="st5" d="M137.5,93.3c-0.9,0-1.6-0.3-2.1-1s-0.8-1.7-0.8-2.9c0-1.3,0.3-2.2,0.8-2.9
			c0.5-0.7,1.2-1,2.2-1c1,0,1.7,0.4,2.2,1.1h0.1c-0.1-0.6-0.2-1.1-0.2-1.5v-2.4h2.1v10.6h-1.6l-0.4-1h-0.1
			C139.2,92.9,138.5,93.3,137.5,93.3z M138.2,91.6c0.5,0,0.9-0.2,1.2-0.5c0.2-0.3,0.4-0.8,0.4-1.6v-0.2c0-0.8-0.1-1.4-0.4-1.8
			s-0.7-0.5-1.2-0.5c-0.5,0-0.8,0.2-1.1,0.6c-0.3,0.4-0.4,1-0.4,1.7s0.1,1.3,0.4,1.7C137.4,91.4,137.8,91.6,138.2,91.6z"/>
		<path id="XMLID_128_" class="st5" d="M35.1,109.9l-0.6-2.7l-0.8-3.4h-0.1l-1.4,6h-2.2l-2.2-7.6H30l0.9,3.4
			c0.1,0.4,0.2,1.2,0.4,2.5h0.1c0-0.3,0.1-0.9,0.2-1.6l0.1-0.6l0.9-3.7h2.3l0.9,3.7c0.1,0.3,0.1,0.6,0.2,1.1
			c0.1,0.5,0.1,0.9,0.1,1.1h0.1c0.1-0.4,0.1-0.9,0.2-1.4s0.2-0.9,0.2-1.1l0.9-3.4h2l-2.2,7.6H35.1z"/>
		<path id="XMLID_126_" class="st5" d="M45.1,102.2c0.3,0,0.5,0,0.7,0.1l-0.2,2c-0.2,0-0.4-0.1-0.6-0.1c-0.7,0-1.2,0.2-1.6,0.5
			c-0.4,0.3-0.6,0.8-0.6,1.4v3.9h-2.1v-7.6h1.6l0.3,1.3h0.1c0.2-0.4,0.6-0.8,1-1S44.6,102.2,45.1,102.2z"/>
		<path id="XMLID_123_" class="st5" d="M51.9,109.9l-0.4-1h-0.1c-0.4,0.4-0.7,0.7-1.1,0.9c-0.4,0.2-0.9,0.3-1.5,0.3
			c-0.7,0-1.3-0.2-1.7-0.6c-0.4-0.4-0.6-1-0.6-1.8c0-0.8,0.3-1.4,0.9-1.8s1.4-0.6,2.6-0.6l1.3,0v-0.3c0-0.8-0.4-1.2-1.2-1.2
			c-0.6,0-1.3,0.2-2.2,0.6l-0.7-1.4c0.9-0.5,1.9-0.7,2.9-0.7c1,0,1.8,0.2,2.4,0.7c0.5,0.4,0.8,1.1,0.8,2v5.1H51.9z M51.3,106.4
			l-0.8,0c-0.6,0-1.1,0.1-1.4,0.3c-0.3,0.2-0.4,0.5-0.4,0.9c0,0.6,0.3,0.9,1,0.9c0.5,0,0.9-0.1,1.2-0.4c0.3-0.3,0.4-0.6,0.4-1.1
			V106.4z"/>
		<path id="XMLID_120_" class="st5" d="M59.7,110.1c-0.9,0-1.6-0.3-2.1-1h-0.1c0.1,0.6,0.1,1,0.1,1.1v3.1h-2.1v-11h1.7l0.3,1h0.1
			c0.5-0.8,1.2-1.1,2.2-1.1c0.9,0,1.6,0.3,2.1,1s0.8,1.7,0.8,2.9c0,0.8-0.1,1.5-0.4,2.1s-0.6,1.1-1,1.4S60.3,110.1,59.7,110.1z
			 M59.1,103.8c-0.5,0-0.9,0.2-1.1,0.5s-0.4,0.8-0.4,1.6v0.2c0,0.8,0.1,1.4,0.4,1.8c0.2,0.4,0.6,0.5,1.2,0.5c0.9,0,1.4-0.8,1.4-2.3
			c0-0.8-0.1-1.3-0.3-1.7C60,104,59.6,103.8,59.1,103.8z"/>
		<path id="XMLID_117_" class="st5" d="M68.6,110.1c-0.9,0-1.6-0.3-2.1-1h-0.1c0.1,0.6,0.1,1,0.1,1.1v3.1h-2.1v-11h1.7l0.3,1h0.1
			c0.5-0.8,1.2-1.1,2.2-1.1c0.9,0,1.6,0.3,2.1,1s0.8,1.7,0.8,2.9c0,0.8-0.1,1.5-0.4,2.1s-0.6,1.1-1,1.4S69.2,110.1,68.6,110.1z
			 M68,103.8c-0.5,0-0.9,0.2-1.1,0.5s-0.4,0.8-0.4,1.6v0.2c0,0.8,0.1,1.4,0.4,1.8c0.2,0.4,0.6,0.5,1.2,0.5c0.9,0,1.4-0.8,1.4-2.3
			c0-0.8-0.1-1.3-0.3-1.7C68.8,104,68.5,103.8,68,103.8z"/>
		<path id="XMLID_114_" class="st5" d="M73.2,100.3c0-0.7,0.4-1,1.1-1s1.1,0.3,1.1,1c0,0.3-0.1,0.6-0.3,0.8
			c-0.2,0.2-0.5,0.3-0.9,0.3C73.5,101.4,73.2,101,73.2,100.3z M75.3,109.9h-2.1v-7.6h2.1V109.9z"/>
		<path id="XMLID_112_" class="st5" d="M84.6,109.9h-2.1v-4.5c0-0.6-0.1-1-0.3-1.2s-0.5-0.4-0.9-0.4c-0.6,0-1,0.2-1.3,0.6
			s-0.4,1-0.4,1.9v3.6h-2.1v-7.6h1.6l0.3,1h0.1c0.2-0.4,0.6-0.6,1-0.8c0.4-0.2,0.9-0.3,1.4-0.3c0.9,0,1.6,0.2,2,0.7s0.7,1.2,0.7,2.1
			V109.9z"/>
		<path id="XMLID_109_" class="st5" d="M93.4,110c0,1.1-0.3,1.9-1,2.5c-0.6,0.6-1.6,0.9-2.9,0.9c-1.1,0-2.1-0.2-2.9-0.5v-1.7
			c0.9,0.4,1.9,0.6,3,0.6c1.1,0,1.6-0.6,1.6-1.7v-0.2l0.1-0.9h-0.1c-0.5,0.8-1.2,1.1-2.2,1.1c-0.9,0-1.6-0.4-2.1-1.1
			c-0.5-0.7-0.8-1.7-0.8-2.9c0-1.3,0.3-2.2,0.8-2.9c0.5-0.7,1.2-1,2.2-1c0.9,0,1.7,0.4,2.2,1.1h0.1l0.2-1h1.8V110z M89.9,108.4
			c0.6,0,1-0.2,1.2-0.5s0.4-0.8,0.4-1.6v-0.3c0-0.8-0.1-1.4-0.4-1.8s-0.7-0.5-1.2-0.5c-1,0-1.5,0.8-1.5,2.3c0,0.8,0.1,1.3,0.4,1.7
			C89,108.3,89.4,108.4,89.9,108.4z"/>
		<path id="XMLID_106_" class="st5" d="M103.4,110.1c-0.9,0-1.6-0.3-2.1-1h-0.1c0.1,0.6,0.1,1,0.1,1.1v3.1h-2.1v-11h1.7l0.3,1h0.1
			c0.5-0.8,1.2-1.1,2.2-1.1c0.9,0,1.6,0.3,2.1,1s0.8,1.7,0.8,2.9c0,0.8-0.1,1.5-0.4,2.1s-0.6,1.1-1,1.4S104,110.1,103.4,110.1z
			 M102.8,103.8c-0.5,0-0.9,0.2-1.1,0.5s-0.4,0.8-0.4,1.6v0.2c0,0.8,0.1,1.4,0.4,1.8c0.2,0.4,0.6,0.5,1.2,0.5c0.9,0,1.4-0.8,1.4-2.3
			c0-0.8-0.1-1.3-0.3-1.7C103.7,104,103.3,103.8,102.8,103.8z"/>
		<path id="XMLID_103_" class="st5" d="M112.9,109.9l-0.4-1h-0.1c-0.4,0.4-0.7,0.7-1.1,0.9c-0.4,0.2-0.9,0.3-1.5,0.3
			c-0.7,0-1.3-0.2-1.7-0.6c-0.4-0.4-0.6-1-0.6-1.8c0-0.8,0.3-1.4,0.9-1.8s1.4-0.6,2.6-0.6l1.3,0v-0.3c0-0.8-0.4-1.2-1.2-1.2
			c-0.6,0-1.3,0.2-2.2,0.6l-0.7-1.4c0.9-0.5,1.9-0.7,2.9-0.7c1,0,1.8,0.2,2.4,0.7c0.5,0.4,0.8,1.1,0.8,2v5.1H112.9z M112.3,106.4
			l-0.8,0c-0.6,0-1.1,0.1-1.4,0.3c-0.3,0.2-0.4,0.5-0.4,0.9c0,0.6,0.3,0.9,1,0.9c0.5,0,0.9-0.1,1.2-0.4c0.3-0.3,0.4-0.6,0.4-1.1
			V106.4z"/>
		<path id="XMLID_100_" class="st5" d="M120.7,110.1c-0.9,0-1.6-0.3-2.1-1h-0.1c0.1,0.6,0.1,1,0.1,1.1v3.1h-2.1v-11h1.7l0.3,1h0.1
			c0.5-0.8,1.2-1.1,2.2-1.1c0.9,0,1.6,0.3,2.1,1s0.8,1.7,0.8,2.9c0,0.8-0.1,1.5-0.4,2.1s-0.6,1.1-1,1.4S121.3,110.1,120.7,110.1z
			 M120.1,103.8c-0.5,0-0.9,0.2-1.1,0.5s-0.4,0.8-0.4,1.6v0.2c0,0.8,0.1,1.4,0.4,1.8c0.2,0.4,0.6,0.5,1.2,0.5c0.9,0,1.4-0.8,1.4-2.3
			c0-0.8-0.1-1.3-0.3-1.7C121,104,120.6,103.8,120.1,103.8z"/>
		<path id="XMLID_97_" class="st5" d="M128.9,110.1c-1.2,0-2.2-0.3-2.9-1c-0.7-0.7-1-1.6-1-2.9c0-1.3,0.3-2.3,1-3
			c0.6-0.7,1.5-1,2.7-1c1.1,0,1.9,0.3,2.5,0.9s0.9,1.5,0.9,2.6v1H127c0,0.6,0.2,1.1,0.5,1.4c0.3,0.3,0.8,0.5,1.4,0.5
			c0.5,0,0.9,0,1.3-0.1s0.8-0.2,1.3-0.5v1.6c-0.4,0.2-0.8,0.3-1.2,0.4S129.4,110.1,128.9,110.1z M128.6,103.6c-0.4,0-0.8,0.1-1,0.4
			s-0.4,0.7-0.4,1.2h2.9c0-0.5-0.1-0.9-0.4-1.2S129,103.6,128.6,103.6z"/>
		<path id="XMLID_95_" class="st5" d="M137.9,102.2c0.3,0,0.5,0,0.7,0.1l-0.2,2c-0.2,0-0.4-0.1-0.6-0.1c-0.7,0-1.2,0.2-1.6,0.5
			c-0.4,0.3-0.6,0.8-0.6,1.4v3.9h-2.1v-7.6h1.6l0.3,1.3h0.1c0.2-0.4,0.6-0.8,1-1S137.5,102.2,137.9,102.2z"/>
		<path id="XMLID_93_" class="st5" d="M38,126.7h-1.3l-1.9-6.5c-0.3-1-0.5-1.6-0.5-2c-0.1,0.5-0.2,1.2-0.5,2l-1.9,6.5h-1.3l-2.6-10
			h1.3l1.6,6.1c0.2,0.8,0.4,1.6,0.5,2.4c0.1-0.7,0.3-1.6,0.5-2.5l1.8-6h1.3l1.8,6.1c0.2,0.8,0.4,1.6,0.5,2.4
			c0.1-0.6,0.2-1.4,0.5-2.4l1.5-6.1h1.3L38,126.7z"/>
		<path id="XMLID_90_" class="st5" d="M41.9,117.2c0-0.3,0.1-0.5,0.2-0.6c0.1-0.1,0.3-0.2,0.5-0.2c0.2,0,0.4,0.1,0.5,0.2
			s0.2,0.3,0.2,0.6c0,0.3-0.1,0.5-0.2,0.6c-0.1,0.1-0.3,0.2-0.5,0.2c-0.2,0-0.4-0.1-0.5-0.2C42,117.7,41.9,117.5,41.9,117.2z
			 M43.2,126.7H42v-7.5h1.2V126.7z"/>
		<path id="XMLID_88_" class="st5" d="M50.5,124.7c0,0.7-0.3,1.2-0.8,1.6s-1.3,0.6-2.2,0.6c-1,0-1.8-0.2-2.4-0.5v-1.1
			c0.8,0.4,1.6,0.6,2.4,0.6c0.6,0,1.1-0.1,1.4-0.3c0.3-0.2,0.4-0.5,0.4-0.8c0-0.3-0.1-0.5-0.4-0.8c-0.3-0.2-0.8-0.4-1.4-0.7
			c-0.7-0.3-1.2-0.5-1.5-0.7s-0.5-0.4-0.6-0.7c-0.1-0.2-0.2-0.5-0.2-0.9c0-0.6,0.3-1.1,0.8-1.5s1.2-0.5,2.1-0.5
			c0.9,0,1.6,0.2,2.4,0.5l-0.4,1c-0.8-0.3-1.4-0.5-2.1-0.5c-0.5,0-0.9,0.1-1.2,0.2s-0.4,0.4-0.4,0.7c0,0.3,0.1,0.5,0.3,0.7
			s0.8,0.4,1.6,0.7c0.6,0.2,1.1,0.4,1.4,0.7c0.3,0.2,0.5,0.4,0.7,0.7C50.4,124,50.5,124.3,50.5,124.7z"/>
		<path id="XMLID_86_" class="st5" d="M57.4,126.7v-4.8c0-0.6-0.1-1.1-0.4-1.4c-0.3-0.3-0.7-0.4-1.3-0.4c-0.8,0-1.3,0.2-1.7,0.6
			c-0.4,0.4-0.5,1.1-0.5,2.1v3.9h-1.2v-10.6h1.2v3.1c0,0.4,0,0.8-0.1,1.1h0.1c0.2-0.4,0.5-0.7,1-0.9s0.9-0.3,1.4-0.3
			c0.9,0,1.6,0.2,2.1,0.7s0.7,1.1,0.7,2.1v4.9H57.4z"/>
		<path id="XMLID_83_" class="st5" d="M64.1,126.9c-1.1,0-2-0.3-2.6-1c-0.6-0.7-1-1.6-1-2.8c0-1.2,0.3-2.2,0.9-2.9s1.4-1.1,2.4-1.1
			c0.9,0,1.7,0.3,2.3,0.9s0.8,1.4,0.8,2.5v0.7h-5.1c0,0.9,0.2,1.5,0.6,1.9c0.4,0.4,1,0.7,1.7,0.7c0.4,0,0.8,0,1.1-0.1
			s0.8-0.2,1.3-0.4v1.1c-0.4,0.2-0.8,0.3-1.2,0.4C65.1,126.8,64.6,126.9,64.1,126.9z M63.8,120.1c-0.6,0-1.1,0.2-1.4,0.6
			c-0.3,0.4-0.5,0.9-0.6,1.6h3.8c0-0.7-0.2-1.2-0.5-1.6C64.9,120.3,64.4,120.1,63.8,120.1z"/>
		<path id="XMLID_81_" class="st5" d="M73.7,124.7c0,0.7-0.3,1.2-0.8,1.6s-1.3,0.6-2.2,0.6c-1,0-1.8-0.2-2.4-0.5v-1.1
			c0.8,0.4,1.6,0.6,2.4,0.6c0.6,0,1.1-0.1,1.4-0.3c0.3-0.2,0.4-0.5,0.4-0.8c0-0.3-0.1-0.5-0.4-0.8c-0.3-0.2-0.8-0.4-1.4-0.7
			c-0.7-0.3-1.2-0.5-1.5-0.7s-0.5-0.4-0.6-0.7c-0.1-0.2-0.2-0.5-0.2-0.9c0-0.6,0.3-1.1,0.8-1.5s1.2-0.5,2.1-0.5
			c0.9,0,1.6,0.2,2.4,0.5l-0.4,1c-0.8-0.3-1.4-0.5-2.1-0.5c-0.5,0-0.9,0.1-1.2,0.2s-0.4,0.4-0.4,0.7c0,0.3,0.1,0.5,0.3,0.7
			s0.8,0.4,1.6,0.7c0.6,0.2,1.1,0.4,1.4,0.7c0.3,0.2,0.5,0.4,0.7,0.7C73.7,124,73.7,124.3,73.7,124.7z"/>
		<path id="XMLID_78_" class="st5" d="M85.7,123c0,1.2-0.3,2.2-0.9,2.9c-0.6,0.7-1.5,1-2.6,1c-0.7,0-1.3-0.2-1.8-0.5
			s-0.9-0.8-1.2-1.4c-0.3-0.6-0.4-1.3-0.4-2.1c0-1.2,0.3-2.2,0.9-2.9s1.5-1,2.6-1c1.1,0,1.9,0.3,2.5,1S85.7,121.8,85.7,123z M80,123
			c0,0.9,0.2,1.7,0.6,2.2c0.4,0.5,0.9,0.7,1.6,0.7c0.7,0,1.3-0.2,1.6-0.7s0.6-1.2,0.6-2.2s-0.2-1.7-0.6-2.1s-0.9-0.7-1.7-0.7
			C80.8,120.1,80,121.1,80,123z"/>
		<path id="XMLID_76_" class="st5" d="M91.1,120.2h-1.9v6.5H88v-6.5h-1.3v-0.6l1.3-0.4v-0.4c0-0.9,0.2-1.6,0.6-2.1
			c0.4-0.5,1-0.7,1.8-0.7c0.5,0,1,0.1,1.5,0.3l-0.3,1c-0.4-0.1-0.8-0.2-1.1-0.2c-0.4,0-0.7,0.1-0.9,0.4s-0.3,0.7-0.3,1.3v0.5h1.9
			V120.2z"/>
		<path id="XMLID_73_" class="st5" d="M101.1,126.7l0-0.9h-0.1c-0.5,0.8-1.3,1.1-2.3,1.1c-1,0-1.7-0.3-2.3-1
			c-0.5-0.7-0.8-1.6-0.8-2.9c0-1.2,0.3-2.2,0.8-2.9c0.5-0.7,1.3-1,2.3-1c1,0,1.8,0.4,2.4,1.1h0.1l0.2-1h1v7.6c0,1.1-0.3,1.9-0.8,2.4
			c-0.5,0.5-1.4,0.8-2.5,0.8c-1.1,0-2-0.2-2.7-0.5v-1.1c0.7,0.4,1.7,0.6,2.8,0.6c0.6,0,1.1-0.2,1.5-0.6c0.4-0.4,0.6-0.9,0.6-1.6
			V126.7z M99,125.9c0.8,0,1.3-0.2,1.7-0.6c0.3-0.4,0.5-1.1,0.5-2V123c0-1-0.2-1.7-0.5-2.2c-0.3-0.5-0.9-0.7-1.7-0.7
			c-0.6,0-1.1,0.3-1.5,0.7c-0.3,0.5-0.5,1.2-0.5,2.1c0,0.9,0.2,1.6,0.5,2.1C97.8,125.6,98.3,125.9,99,125.9z"/>
		<path id="XMLID_70_" class="st5" d="M111.3,123c0,1.2-0.3,2.2-0.9,2.9c-0.6,0.7-1.5,1-2.6,1c-0.7,0-1.3-0.2-1.8-0.5
			s-0.9-0.8-1.2-1.4c-0.3-0.6-0.4-1.3-0.4-2.1c0-1.2,0.3-2.2,0.9-2.9s1.5-1,2.6-1c1.1,0,1.9,0.3,2.5,1S111.3,121.8,111.3,123z
			 M105.6,123c0,0.9,0.2,1.7,0.6,2.2c0.4,0.5,0.9,0.7,1.6,0.7c0.7,0,1.3-0.2,1.6-0.7s0.6-1.2,0.6-2.2s-0.2-1.7-0.6-2.1
			s-0.9-0.7-1.7-0.7C106.3,120.1,105.6,121.1,105.6,123z"/>
		<path id="XMLID_67_" class="st5" d="M119.7,123c0,1.2-0.3,2.2-0.9,2.9c-0.6,0.7-1.5,1-2.6,1c-0.7,0-1.3-0.2-1.8-0.5
			s-0.9-0.8-1.2-1.4c-0.3-0.6-0.4-1.3-0.4-2.1c0-1.2,0.3-2.2,0.9-2.9s1.5-1,2.6-1c1.1,0,1.9,0.3,2.5,1S119.7,121.8,119.7,123z
			 M114.1,123c0,0.9,0.2,1.7,0.6,2.2c0.4,0.5,0.9,0.7,1.6,0.7c0.7,0,1.3-0.2,1.6-0.7s0.6-1.2,0.6-2.2s-0.2-1.7-0.6-2.1
			s-0.9-0.7-1.7-0.7C114.8,120.1,114.1,121.1,114.1,123z"/>
		<path id="XMLID_64_" class="st5" d="M124.3,126.9c-1,0-1.7-0.3-2.3-1c-0.5-0.7-0.8-1.6-0.8-2.9c0-1.2,0.3-2.2,0.8-2.9
			c0.5-0.7,1.3-1,2.3-1c1,0,1.8,0.4,2.3,1.1h0.1c0-0.1,0-0.3-0.1-0.6s0-0.5,0-0.6v-3h1.2v10.6h-1l-0.2-1h-0.1
			C126.1,126.5,125.4,126.9,124.3,126.9z M124.5,125.9c0.7,0,1.3-0.2,1.6-0.6c0.3-0.4,0.5-1.1,0.5-2V123c0-1-0.2-1.8-0.5-2.2
			s-0.9-0.7-1.6-0.7c-0.6,0-1.1,0.3-1.5,0.8s-0.5,1.2-0.5,2.2c0,0.9,0.2,1.6,0.5,2.1C123.4,125.6,123.9,125.9,124.5,125.9z"/>
		<path id="XMLID_62_" class="st5" d="M32.4,137h-1.9v6.5h-1.2V137H28v-0.6l1.3-0.4v-0.4c0-0.9,0.2-1.6,0.6-2.1
			c0.4-0.5,1-0.7,1.8-0.7c0.5,0,1,0.1,1.5,0.3l-0.3,1c-0.4-0.1-0.8-0.2-1.1-0.2c-0.4,0-0.7,0.1-0.9,0.4s-0.3,0.7-0.3,1.3v0.5h1.9
			V137z"/>
		<path id="XMLID_59_" class="st5" d="M40.3,139.8c0,1.2-0.3,2.2-0.9,2.9s-1.5,1-2.6,1c-0.7,0-1.3-0.2-1.8-0.5
			c-0.5-0.3-0.9-0.8-1.2-1.4s-0.4-1.3-0.4-2.1c0-1.2,0.3-2.2,0.9-2.9c0.6-0.7,1.5-1,2.6-1c1.1,0,1.9,0.3,2.5,1
			C40,137.6,40.3,138.6,40.3,139.8z M34.6,139.8c0,0.9,0.2,1.7,0.6,2.2c0.4,0.5,0.9,0.7,1.6,0.7c0.7,0,1.3-0.2,1.6-0.7
			c0.4-0.5,0.6-1.2,0.6-2.2s-0.2-1.7-0.6-2.1c-0.4-0.5-0.9-0.7-1.7-0.7C35.4,136.9,34.6,137.9,34.6,139.8z"/>
		<path id="XMLID_57_" class="st5" d="M45.8,135.9c0.3,0,0.6,0,0.9,0.1l-0.2,1.1c-0.3-0.1-0.5-0.1-0.8-0.1c-0.4,0-0.8,0.1-1.1,0.3
			c-0.3,0.2-0.6,0.5-0.8,0.9c-0.2,0.4-0.3,0.8-0.3,1.3v4h-1.2V136h1l0.1,1.4h0.1c0.3-0.5,0.6-0.9,1-1.1S45.3,135.9,45.8,135.9z"/>
		<path id="XMLID_55_" class="st5" d="M50.5,142.7c0.2,0,0.3,0,0.6,0s0.4-0.1,0.5-0.1v0.9c-0.1,0-0.3,0.1-0.5,0.1
			c-0.2,0-0.5,0.1-0.7,0.1c-1.5,0-2.2-0.8-2.2-2.3V137h-1.1v-0.6l1.1-0.5l0.5-1.6h0.7v1.7h2.2v1h-2.2v4.3c0,0.4,0.1,0.8,0.3,1
			C49.9,142.6,50.2,142.7,50.5,142.7z"/>
		<path id="XMLID_53_" class="st5" d="M54.2,136v4.8c0,0.6,0.1,1.1,0.4,1.3c0.3,0.3,0.7,0.4,1.3,0.4c0.8,0,1.3-0.2,1.7-0.6
			s0.5-1.1,0.5-2.1V136h1.2v7.5h-1l-0.2-1h-0.1c-0.2,0.4-0.5,0.6-1,0.8s-0.9,0.3-1.4,0.3c-0.9,0-1.6-0.2-2-0.6S53,141.9,53,141V136
			H54.2z"/>
		<path id="XMLID_51_" class="st5" d="M66.9,143.5v-4.8c0-0.6-0.1-1.1-0.4-1.4c-0.3-0.3-0.7-0.4-1.3-0.4c-0.8,0-1.3,0.2-1.7,0.6
			c-0.3,0.4-0.5,1.1-0.5,2.1v3.9h-1.2V136h1l0.2,1H63c0.2-0.4,0.6-0.7,1-0.9c0.4-0.2,0.9-0.3,1.4-0.3c0.9,0,1.6,0.2,2.1,0.7
			s0.7,1.1,0.7,2.1v4.9H66.9z"/>
		<path id="XMLID_48_" class="st5" d="M73.6,143.7c-1.1,0-2-0.3-2.6-1c-0.6-0.7-1-1.6-1-2.8c0-1.2,0.3-2.2,0.9-2.9
			c0.6-0.7,1.4-1.1,2.4-1.1c0.9,0,1.7,0.3,2.3,0.9c0.6,0.6,0.8,1.4,0.8,2.5v0.7h-5.1c0,0.9,0.2,1.5,0.6,1.9s1,0.7,1.7,0.7
			c0.4,0,0.8,0,1.1-0.1c0.4-0.1,0.8-0.2,1.3-0.4v1.1c-0.4,0.2-0.8,0.3-1.2,0.4S74.1,143.7,73.6,143.7z M73.3,136.9
			c-0.6,0-1.1,0.2-1.4,0.6s-0.5,0.9-0.6,1.6h3.8c0-0.7-0.2-1.2-0.5-1.6S73.9,136.9,73.3,136.9z"/>
		<path id="XMLID_45_" class="st5" d="M86.6,143.5l-0.2-1.1h-0.1c-0.4,0.5-0.7,0.8-1.1,1c-0.4,0.2-0.8,0.2-1.4,0.2
			c-0.7,0-1.3-0.2-1.7-0.6s-0.6-0.9-0.6-1.6c0-1.5,1.2-2.3,3.6-2.4l1.3,0v-0.4c0-0.6-0.1-1-0.4-1.3c-0.2-0.3-0.6-0.4-1.2-0.4
			c-0.4,0-0.8,0.1-1.1,0.2c-0.4,0.1-0.7,0.3-1,0.4l-0.4-0.9c0.4-0.2,0.8-0.4,1.2-0.5s0.9-0.2,1.3-0.2c0.9,0,1.6,0.2,2,0.6
			s0.7,1,0.7,1.9v5.1H86.6z M84,142.7c0.7,0,1.2-0.2,1.6-0.6c0.4-0.4,0.6-0.9,0.6-1.6v-0.7l-1.1,0c-0.9,0-1.5,0.2-1.9,0.4
			c-0.4,0.2-0.6,0.6-0.6,1.1c0,0.4,0.1,0.7,0.4,0.9S83.6,142.7,84,142.7z"/>
		<path id="XMLID_43_" class="st5" d="M94.9,143.5v-4.8c0-0.6-0.1-1.1-0.4-1.4c-0.3-0.3-0.7-0.4-1.3-0.4c-0.8,0-1.3,0.2-1.7,0.6
			c-0.3,0.4-0.5,1.1-0.5,2.1v3.9h-1.2V136h1l0.2,1H91c0.2-0.4,0.6-0.7,1-0.9c0.4-0.2,0.9-0.3,1.4-0.3c0.9,0,1.6,0.2,2.1,0.7
			s0.7,1.1,0.7,2.1v4.9H94.9z"/>
		<path id="XMLID_40_" class="st5" d="M101.1,143.7c-1,0-1.7-0.3-2.3-1S98,141,98,139.8c0-1.2,0.3-2.2,0.8-2.9s1.3-1,2.3-1
			c1,0,1.8,0.4,2.3,1.1h0.1c0-0.1,0-0.3-0.1-0.5c0-0.3,0-0.5,0-0.6v-3h1.2v10.6h-1l-0.2-1h-0.1C102.9,143.3,102.1,143.7,101.1,143.7
			z M101.3,142.7c0.7,0,1.3-0.2,1.6-0.6c0.3-0.4,0.5-1.1,0.5-2v-0.2c0-1-0.2-1.8-0.5-2.2c-0.3-0.4-0.9-0.7-1.6-0.7
			c-0.6,0-1.1,0.3-1.5,0.8c-0.3,0.5-0.5,1.2-0.5,2.2c0,0.9,0.2,1.6,0.5,2.1C100.2,142.4,100.6,142.7,101.3,142.7z"/>
		<path id="XMLID_38_" class="st5" d="M116.8,143.5l-1.3-4.2c-0.1-0.4-0.3-1-0.5-2H115c-0.2,0.9-0.4,1.6-0.5,2l-1.3,4.2h-1.4
			l-2.1-7.5h1.3c0.5,1.8,0.8,3.2,1.1,4.2c0.2,1,0.4,1.6,0.4,2h0.1l0.1-0.4c0.1-0.7,0.3-1.2,0.4-1.6l1.3-4.2h1.3l1.3,4.2
			c0,0.2,0.1,0.3,0.1,0.5c0.1,0.2,0.1,0.4,0.1,0.5c0,0.2,0.1,0.3,0.1,0.5c0,0.2,0.1,0.3,0.1,0.4h0.1c0-0.3,0.2-1.1,0.5-2.2l1.1-4
			h1.3l-2.1,7.5H116.8z"/>
		<path id="XMLID_35_" class="st5" d="M124.9,143.7c-1.1,0-2-0.3-2.6-1c-0.6-0.7-1-1.6-1-2.8c0-1.2,0.3-2.2,0.9-2.9
			c0.6-0.7,1.4-1.1,2.4-1.1c0.9,0,1.7,0.3,2.3,0.9c0.6,0.6,0.8,1.4,0.8,2.5v0.7h-5.1c0,0.9,0.2,1.5,0.6,1.9s1,0.7,1.7,0.7
			c0.4,0,0.8,0,1.1-0.1c0.4-0.1,0.8-0.2,1.3-0.4v1.1c-0.4,0.2-0.8,0.3-1.2,0.4S125.4,143.7,124.9,143.7z M124.6,136.9
			c-0.6,0-1.1,0.2-1.4,0.6s-0.5,0.9-0.6,1.6h3.8c0-0.7-0.2-1.2-0.5-1.6S125.2,136.9,124.6,136.9z"/>
		<path id="XMLID_33_" class="st5" d="M130.8,143.5h-1.2v-10.6h1.2V143.5z"/>
		<path id="XMLID_31_" class="st5" d="M134.4,143.5h-1.2v-10.6h1.2V143.5z"/>
		<path id="XMLID_28_" class="st5" d="M32.5,152.7c1,0,1.8,0.3,2.3,1c0.5,0.7,0.8,1.6,0.8,2.9c0,1.2-0.3,2.2-0.8,2.9
			c-0.5,0.7-1.3,1-2.3,1c-0.5,0-1-0.1-1.4-0.3s-0.7-0.5-1-0.8h-0.1c-0.1,0.5-0.2,0.9-0.3,1H29v-10.6h1.2v2.6c0,0.5,0,1-0.1,1.5h0.1
			C30.7,153.1,31.5,152.7,32.5,152.7z M32.3,153.7c-0.8,0-1.3,0.2-1.6,0.6s-0.5,1.2-0.5,2.2v0.1c0,1,0.2,1.8,0.5,2.2
			c0.3,0.4,0.9,0.7,1.6,0.7c0.7,0,1.2-0.2,1.5-0.7c0.3-0.5,0.5-1.2,0.5-2.1c0-0.9-0.2-1.7-0.5-2.1S33,153.7,32.3,153.7z"/>
		<path id="XMLID_25_" class="st5" d="M40.8,160.5c-1.1,0-2-0.3-2.6-1c-0.6-0.7-1-1.6-1-2.8c0-1.2,0.3-2.2,0.9-2.9
			c0.6-0.7,1.4-1.1,2.4-1.1c0.9,0,1.7,0.3,2.3,0.9c0.6,0.6,0.8,1.4,0.8,2.5v0.7h-5.1c0,0.9,0.2,1.5,0.6,1.9s1,0.7,1.7,0.7
			c0.4,0,0.8,0,1.1-0.1c0.4-0.1,0.8-0.2,1.3-0.4v1.1c-0.4,0.2-0.8,0.3-1.2,0.4S41.3,160.5,40.8,160.5z M40.5,153.7
			c-0.6,0-1.1,0.2-1.4,0.6s-0.5,0.9-0.6,1.6h3.8c0-0.7-0.2-1.2-0.5-1.6S41,153.7,40.5,153.7z"/>
		<path id="XMLID_22_" class="st5" d="M45.4,150.8c0-0.3,0.1-0.5,0.2-0.6c0.1-0.1,0.3-0.2,0.5-0.2c0.2,0,0.4,0.1,0.5,0.2
			s0.2,0.3,0.2,0.6c0,0.3-0.1,0.5-0.2,0.6s-0.3,0.2-0.5,0.2c-0.2,0-0.4-0.1-0.5-0.2C45.4,151.3,45.4,151.1,45.4,150.8z M46.7,160.3
			h-1.2v-7.5h1.2V160.3z"/>
		<path id="XMLID_20_" class="st5" d="M54.2,160.3v-4.8c0-0.6-0.1-1.1-0.4-1.4c-0.3-0.3-0.7-0.4-1.3-0.4c-0.8,0-1.3,0.2-1.7,0.6
			c-0.3,0.4-0.5,1.1-0.5,2.1v3.9h-1.2v-7.5h1l0.2,1h0.1c0.2-0.4,0.6-0.7,1-0.9c0.4-0.2,0.9-0.3,1.4-0.3c0.9,0,1.6,0.2,2.1,0.7
			s0.7,1.1,0.7,2.1v4.9H54.2z"/>
		<path id="XMLID_17_" class="st5" d="M62.7,160.3l0-0.9h-0.1c-0.5,0.8-1.3,1.1-2.3,1.1c-1,0-1.7-0.3-2.3-1
			c-0.5-0.7-0.8-1.6-0.8-2.9c0-1.2,0.3-2.2,0.8-2.9c0.5-0.7,1.3-1,2.3-1c1,0,1.8,0.4,2.4,1.1h0.1l0.2-1h1v7.6c0,1.1-0.3,1.9-0.8,2.4
			c-0.5,0.5-1.4,0.8-2.5,0.8c-1.1,0-2-0.2-2.7-0.5v-1.1c0.7,0.4,1.7,0.6,2.8,0.6c0.6,0,1.1-0.2,1.5-0.6c0.4-0.4,0.6-0.9,0.6-1.6
			V160.3z M60.6,159.5c0.8,0,1.3-0.2,1.7-0.6c0.3-0.4,0.5-1.1,0.5-2v-0.3c0-1-0.2-1.7-0.5-2.2s-0.9-0.7-1.7-0.7
			c-0.6,0-1.1,0.2-1.5,0.7c-0.3,0.5-0.5,1.2-0.5,2.1c0,0.9,0.2,1.6,0.5,2.1S59.9,159.5,60.6,159.5z"/>
	</g>
</g>
</svg>