<!-- Generator: Adobe Illustrator 19.0.0, SVG Export Plug-In  -->
<svg version="1.1"
	 xmlns="http://www.w3.org/2000/svg" xmlns:xlink="http://www.w3.org/1999/xlink" xmlns:a="http://ns.adobe.com/AdobeSVGViewerExtensions/3.0/"
	 x="0px" y="0px" width="166.5px" height="167.4px" viewBox="0 0 166.5 167.4" style="enable-background:new 0 0 166.5 167.4;"
	 xml:space="preserve">
<style type="text/css">
	.st0{fill:#A00D30;}
	.st1{fill:#FFFFFF;}
	.st2{fill:#3F3F3F;}
	.st3{fill:#3F3F3F;stroke:#3F3F3F;stroke-width:0.2;stroke-miterlimit:10;}
	.st4{fill:#CC0D29;}
	.st5{fill:#F4C3C3;}
	.st6{fill:#E06969;}
	.st7{fill:#BA4F4F;}
	.st8{fill:#D89E5D;}
</style>
<defs>
</defs>
<g id="XMLID_15_">
	<rect id="XMLID_190_" x="16.5" class="st0" width="150" height="147.8"/>
	<g id="XMLID_187_">
		<polygon id="XMLID_189_" class="st1" points="19.2,167.2 19.2,144.2 0,167.4 		"/>
		<rect id="XMLID_188_" x="16.5" y="94.7" class="st1" width="150" height="72.7"/>
	</g>
	<g id="XMLID_50_">
		<g id="XMLID_56_">
			<g id="XMLID_58_">
				<path id="XMLID_120_" class="st2" d="M63.9,107.5c0,1.6-0.5,2.9-1.4,3.8s-2.3,1.3-4.1,1.3h-2.8v-10h3.1c1.6,0,2.9,0.4,3.8,1.3
					S63.9,106,63.9,107.5z M61.7,107.6c0-2.1-0.9-3.2-2.8-3.2h-1.1v6.5h0.9C60.6,110.8,61.7,109.8,61.7,107.6z"/>
				<path id="XMLID_117_" class="st2" d="M72.7,108.8c0,1.2-0.3,2.2-1,2.9s-1.6,1.1-2.7,1.1c-0.7,0-1.4-0.2-1.9-0.5s-1-0.8-1.3-1.4
					s-0.5-1.3-0.5-2.1c0-1.2,0.3-2.2,1-2.9c0.7-0.7,1.6-1,2.7-1c0.7,0,1.4,0.2,1.9,0.5s1,0.8,1.3,1.4S72.7,108,72.7,108.8z
					 M67.4,108.8c0,0.8,0.1,1.3,0.4,1.7s0.7,0.6,1.2,0.6c0.6,0,1-0.2,1.2-0.6s0.4-1,0.4-1.7c0-0.8-0.1-1.3-0.4-1.7s-0.6-0.6-1.2-0.6
					c-0.6,0-1,0.2-1.2,0.6S67.4,108,67.4,108.8z"/>
				<path id="XMLID_115_" class="st2" d="M81.3,112.6h-2.1v-4.5c0-0.6-0.1-1-0.3-1.2s-0.5-0.4-0.9-0.4c-0.5,0-0.9,0.2-1.2,0.6
					c-0.2,0.4-0.4,1-0.4,1.9v3.6h-2.1V105H76l0.3,1h0.1c0.2-0.4,0.5-0.6,0.9-0.8c0.4-0.2,0.8-0.3,1.3-0.3c1.1,0,1.9,0.4,2.3,1.1h0.2
					c0.2-0.4,0.5-0.6,0.9-0.8s0.8-0.3,1.4-0.3c0.9,0,1.5,0.2,2,0.7s0.7,1.2,0.7,2.1v5H84v-4.5c0-0.6-0.1-1-0.3-1.2s-0.5-0.4-0.9-0.4
					c-0.5,0-0.9,0.2-1.1,0.5s-0.4,0.9-0.4,1.7V112.6z"/>
				<path id="XMLID_112_" class="st2" d="M91.6,112.7c-1.2,0-2.2-0.3-2.9-1c-0.7-0.7-1-1.6-1-2.9c0-1.3,0.3-2.3,1-3s1.5-1,2.7-1
					c1.1,0,1.9,0.3,2.5,0.9s0.9,1.5,0.9,2.5v1h-4.9c0,0.6,0.2,1.1,0.5,1.4s0.8,0.5,1.4,0.5c0.5,0,0.9,0,1.3-0.1s0.8-0.2,1.3-0.5v1.6
					c-0.4,0.2-0.8,0.3-1.2,0.4C92.8,112.7,92.2,112.7,91.6,112.7z M91.4,106.3c-0.4,0-0.8,0.1-1,0.4c-0.3,0.3-0.4,0.7-0.4,1.2h2.9
					c0-0.5-0.1-0.9-0.4-1.2S91.8,106.3,91.4,106.3z"/>
				<path id="XMLID_110_" class="st2" d="M101.8,110.3c0,0.8-0.3,1.4-0.8,1.8s-1.4,0.6-2.4,0.6c-0.6,0-1,0-1.4-0.1
					c-0.4-0.1-0.8-0.2-1.1-0.3v-1.7c0.4,0.2,0.8,0.3,1.3,0.5s0.9,0.2,1.3,0.2c0.8,0,1.1-0.2,1.1-0.7c0-0.2-0.1-0.3-0.2-0.4
					c-0.1-0.1-0.3-0.2-0.5-0.3s-0.6-0.3-1-0.5c-0.6-0.2-1-0.5-1.3-0.7s-0.5-0.5-0.6-0.7s-0.2-0.6-0.2-1c0-0.7,0.3-1.2,0.8-1.6
					s1.3-0.6,2.2-0.6c0.9,0,1.8,0.2,2.7,0.6l-0.6,1.5c-0.4-0.2-0.7-0.3-1.1-0.4c-0.3-0.1-0.7-0.2-1-0.2c-0.6,0-0.9,0.2-0.9,0.5
					c0,0.2,0.1,0.3,0.3,0.5s0.6,0.3,1.3,0.6c0.6,0.2,1,0.5,1.3,0.7c0.3,0.2,0.5,0.5,0.6,0.7C101.7,109.6,101.8,110,101.8,110.3z"/>
				<path id="XMLID_108_" class="st2" d="M106.6,111.1c0.4,0,0.8-0.1,1.3-0.2v1.6c-0.5,0.2-1.2,0.3-1.9,0.3c-0.8,0-1.4-0.2-1.8-0.6
					s-0.6-1.1-0.6-1.9v-3.7h-1v-0.9l1.1-0.7l0.6-1.6h1.3v1.6h2.1v1.6h-2.1v3.7c0,0.3,0.1,0.5,0.2,0.7S106.4,111.1,106.6,111.1z"/>
				<path id="XMLID_105_" class="st2" d="M109.4,103c0-0.7,0.4-1,1.1-1c0.8,0,1.1,0.3,1.1,1c0,0.3-0.1,0.6-0.3,0.8s-0.5,0.3-0.9,0.3
					C109.8,104,109.4,103.7,109.4,103z M111.6,112.6h-2.1V105h2.1V112.6z"/>
				<path id="XMLID_103_" class="st2" d="M116.9,112.7c-2.4,0-3.6-1.3-3.6-3.9c0-1.3,0.3-2.3,1-3c0.6-0.7,1.6-1,2.8-1
					c0.9,0,1.7,0.2,2.4,0.5l-0.6,1.6c-0.3-0.1-0.6-0.2-0.9-0.3c-0.3-0.1-0.6-0.1-0.8-0.1c-1.1,0-1.6,0.8-1.6,2.3
					c0,1.5,0.5,2.2,1.6,2.2c0.4,0,0.8-0.1,1.1-0.2s0.7-0.3,1-0.5v1.8c-0.3,0.2-0.7,0.4-1,0.4S117.4,112.7,116.9,112.7z"/>
				<path id="XMLID_100_" class="st2" d="M59.6,129.5c-0.9,0-1.6-0.3-2.1-1h-0.1c0.1,0.6,0.1,1,0.1,1.1v3.1h-2.1v-11h1.7l0.3,1h0.1
					c0.5-0.8,1.2-1.1,2.2-1.1c0.9,0,1.6,0.3,2.1,1c0.5,0.7,0.8,1.7,0.8,2.9c0,0.8-0.1,1.5-0.4,2.1s-0.6,1.1-1,1.4
					C60.7,129.4,60.2,129.5,59.6,129.5z M59,123.3c-0.5,0-0.9,0.2-1.1,0.5c-0.2,0.3-0.4,0.8-0.4,1.6v0.2c0,0.8,0.1,1.4,0.4,1.8
					s0.6,0.5,1.2,0.5c0.9,0,1.4-0.8,1.4-2.3c0-0.8-0.1-1.3-0.3-1.7S59.5,123.3,59,123.3z"/>
				<path id="XMLID_98_" class="st2" d="M68.5,121.6c0.3,0,0.5,0,0.7,0.1l-0.2,2c-0.2,0-0.4-0.1-0.6-0.1c-0.7,0-1.2,0.2-1.6,0.5
					s-0.6,0.8-0.6,1.4v3.9h-2.1v-7.6h1.6l0.3,1.3h0.1c0.2-0.4,0.6-0.8,1-1S68.1,121.6,68.5,121.6z"/>
				<path id="XMLID_95_" class="st2" d="M77.4,125.6c0,1.2-0.3,2.2-1,2.9s-1.6,1.1-2.7,1.1c-0.7,0-1.4-0.2-1.9-0.5s-1-0.8-1.3-1.4
					s-0.5-1.3-0.5-2.1c0-1.2,0.3-2.2,1-2.9c0.7-0.7,1.6-1,2.7-1c0.7,0,1.4,0.2,1.9,0.5s1,0.8,1.3,1.4S77.4,124.8,77.4,125.6z
					 M72.2,125.6c0,0.8,0.1,1.3,0.4,1.7s0.7,0.6,1.2,0.6c0.6,0,1-0.2,1.2-0.6s0.4-1,0.4-1.7c0-0.8-0.1-1.3-0.4-1.7s-0.6-0.6-1.2-0.6
					c-0.6,0-1,0.2-1.2,0.6S72.2,124.8,72.2,125.6z"/>
				<path id="XMLID_92_" class="st2" d="M81.6,129.5c-0.9,0-1.6-0.3-2.1-1s-0.8-1.7-0.8-2.9c0-1.3,0.3-2.2,0.8-2.9s1.2-1,2.2-1
					c1,0,1.7,0.4,2.2,1.1h0.1c-0.1-0.6-0.2-1.1-0.2-1.5v-2.4h2.1v10.6h-1.6l-0.4-1h-0.1C83.3,129.2,82.5,129.5,81.6,129.5z
					 M82.3,127.9c0.5,0,0.9-0.2,1.2-0.5s0.4-0.8,0.4-1.6v-0.2c0-0.8-0.1-1.4-0.4-1.8s-0.7-0.5-1.2-0.5c-0.5,0-0.8,0.2-1.1,0.6
					s-0.4,1-0.4,1.7s0.1,1.3,0.4,1.7S81.8,127.9,82.3,127.9z"/>
				<path id="XMLID_90_" class="st2" d="M93.4,129.4l-0.3-1H93c-0.2,0.4-0.5,0.6-1,0.8s-0.9,0.3-1.4,0.3c-0.9,0-1.6-0.2-2-0.7
					c-0.5-0.5-0.7-1.2-0.7-2.1v-5h2.1v4.5c0,0.6,0.1,1,0.3,1.2c0.2,0.3,0.5,0.4,0.9,0.4c0.6,0,1-0.2,1.3-0.6s0.4-1,0.4-1.9v-3.6H95
					v7.6H93.4z"/>
				<path id="XMLID_88_" class="st2" d="M100.3,129.5c-2.4,0-3.6-1.3-3.6-3.9c0-1.3,0.3-2.3,1-3c0.6-0.7,1.6-1,2.8-1
					c0.9,0,1.7,0.2,2.4,0.5l-0.6,1.6c-0.3-0.1-0.6-0.2-0.9-0.3c-0.3-0.1-0.6-0.1-0.8-0.1c-1.1,0-1.6,0.8-1.6,2.3
					c0,1.5,0.5,2.2,1.6,2.2c0.4,0,0.8-0.1,1.1-0.2s0.7-0.3,1-0.5v1.8c-0.3,0.2-0.7,0.4-1,0.4S100.8,129.5,100.3,129.5z"/>
				<path id="XMLID_86_" class="st2" d="M107.6,127.9c0.4,0,0.8-0.1,1.3-0.2v1.6c-0.5,0.2-1.2,0.3-1.9,0.3c-0.8,0-1.4-0.2-1.8-0.6
					s-0.6-1.1-0.6-1.9v-3.7h-1v-0.9l1.1-0.7l0.6-1.6h1.3v1.6h2.1v1.6h-2.1v3.7c0,0.3,0.1,0.5,0.2,0.7S107.4,127.9,107.6,127.9z"/>
				<path id="XMLID_84_" class="st2" d="M115.8,127.1c0,0.8-0.3,1.4-0.8,1.8s-1.4,0.6-2.4,0.6c-0.6,0-1,0-1.4-0.1
					c-0.4-0.1-0.8-0.2-1.1-0.3v-1.7c0.4,0.2,0.8,0.3,1.3,0.5s0.9,0.2,1.3,0.2c0.8,0,1.1-0.2,1.1-0.7c0-0.2-0.1-0.3-0.2-0.4
					c-0.1-0.1-0.3-0.2-0.5-0.3s-0.6-0.3-1-0.5c-0.6-0.2-1-0.5-1.3-0.7s-0.5-0.5-0.6-0.7s-0.2-0.6-0.2-1c0-0.7,0.3-1.2,0.8-1.6
					s1.3-0.6,2.2-0.6c0.9,0,1.8,0.2,2.7,0.6l-0.6,1.5c-0.4-0.2-0.7-0.3-1.1-0.4c-0.3-0.1-0.7-0.2-1-0.2c-0.6,0-0.9,0.2-0.9,0.5
					c0,0.2,0.1,0.3,0.3,0.5s0.6,0.3,1.3,0.6c0.6,0.2,1,0.5,1.3,0.7c0.3,0.2,0.5,0.5,0.6,0.7C115.8,126.4,115.8,126.8,115.8,127.1z"
					/>
				<path id="XMLID_82_" class="st3" d="M58.5,146.2h-3.6v-0.7l1.2-0.3v-8l-1.2-0.3v-0.7h3.6v0.7l-1.2,0.3v8l1.2,0.3V146.2z"/>
				<path id="XMLID_80_" class="st3" d="M65.1,146.2h-1.2v-10.6h1.2V146.2z"/>
				<path id="XMLID_77_" class="st3" d="M74,142.4c0,1.2-0.3,2.2-0.9,2.9c-0.6,0.7-1.5,1-2.6,1c-0.7,0-1.3-0.2-1.8-0.5
					c-0.5-0.3-0.9-0.8-1.2-1.4c-0.3-0.6-0.4-1.3-0.4-2.1c0-1.2,0.3-2.2,0.9-2.9c0.6-0.7,1.5-1,2.6-1c1.1,0,1.9,0.3,2.5,1
					S74,141.2,74,142.4z M68.4,142.4c0,0.9,0.2,1.7,0.6,2.1s0.9,0.7,1.6,0.7c0.7,0,1.3-0.2,1.6-0.7c0.4-0.5,0.6-1.2,0.6-2.1
					s-0.2-1.7-0.6-2.1s-0.9-0.7-1.7-0.7C69.1,139.6,68.4,140.5,68.4,142.4z"/>
				<path id="XMLID_75_" class="st3" d="M77.5,146.2l-2.8-7.5H76l1.6,4.4c0.3,0.9,0.5,1.6,0.6,2h0.1c0-0.1,0-0.1,0.1-0.2
					s0-0.2,0.1-0.2s0.2-0.6,0.5-1.5l1.6-4.4h1.3l-2.9,7.5H77.5z"/>
				<path id="XMLID_72_" class="st3" d="M86.1,146.3c-1.1,0-2-0.3-2.6-1s-1-1.6-1-2.8c0-1.2,0.3-2.2,0.9-2.9
					c0.6-0.7,1.4-1.1,2.4-1.1c0.9,0,1.7,0.3,2.3,0.9s0.8,1.4,0.8,2.5v0.7h-5.1c0,0.9,0.2,1.5,0.6,1.9s1,0.7,1.7,0.7
					c0.4,0,0.8,0,1.1-0.1c0.4-0.1,0.8-0.2,1.3-0.4v1.1c-0.4,0.2-0.8,0.3-1.2,0.4C87.1,146.3,86.6,146.3,86.1,146.3z M85.8,139.6
					c-0.6,0-1.1,0.2-1.4,0.6s-0.5,0.9-0.6,1.6h3.8c0-0.7-0.2-1.2-0.5-1.6S86.4,139.6,85.8,139.6z"/>
				<path id="XMLID_70_" class="st3" d="M93.2,148.9c-0.4,0-0.8-0.1-1-0.2v-1.1c0.3,0.1,0.7,0.1,1,0.1c0.5,0,0.8-0.1,1-0.4
					c0.2-0.3,0.3-0.7,0.3-1.2v-9.9h1.3v9.8c0,0.9-0.2,1.6-0.7,2.1S94.1,148.9,93.2,148.9z"/>
				<path id="XMLID_67_" class="st3" d="M102.9,146.2l-0.2-1.1h-0.1c-0.4,0.5-0.7,0.8-1.1,1s-0.8,0.2-1.4,0.2
					c-0.7,0-1.3-0.2-1.7-0.6c-0.4-0.4-0.6-0.9-0.6-1.6c0-1.5,1.2-2.3,3.6-2.4l1.3,0v-0.4c0-0.6-0.1-1-0.4-1.3s-0.6-0.4-1.2-0.4
					c-0.4,0-0.8,0.1-1.1,0.2s-0.7,0.3-1,0.4l-0.4-0.9c0.4-0.2,0.8-0.4,1.2-0.5c0.4-0.1,0.9-0.2,1.3-0.2c0.9,0,1.6,0.2,2,0.6
					c0.4,0.4,0.7,1,0.7,1.9v5.1H102.9z M100.4,145.3c0.7,0,1.2-0.2,1.6-0.6s0.6-0.9,0.6-1.6v-0.7l-1.1,0c-0.9,0-1.5,0.2-1.9,0.4
					s-0.6,0.6-0.6,1.1c0,0.4,0.1,0.7,0.4,0.9S100,145.3,100.4,145.3z"/>
				<path id="XMLID_64_" class="st3" d="M109.7,146.3c-1,0-1.8-0.4-2.3-1.1h-0.1l0,0.3c0,0.4,0.1,0.7,0.1,1v3.1h-1.2v-10.9h1l0.2,1
					h0.1c0.3-0.4,0.6-0.7,1-0.9s0.8-0.3,1.3-0.3c1,0,1.7,0.3,2.3,1s0.8,1.6,0.8,2.9c0,1.2-0.3,2.2-0.8,2.9
					C111.4,146,110.7,146.3,109.7,146.3z M109.5,139.6c-0.7,0-1.3,0.2-1.6,0.6s-0.5,1.1-0.5,2v0.2c0,1,0.2,1.8,0.5,2.2
					c0.3,0.5,0.9,0.7,1.6,0.7c0.6,0,1.1-0.3,1.5-0.8s0.5-1.2,0.5-2.1c0-0.9-0.2-1.6-0.5-2.1S110.1,139.6,109.5,139.6z"/>
				<path id="XMLID_61_" class="st3" d="M119.4,146.2l-0.2-1.1h-0.1c-0.4,0.5-0.7,0.8-1.1,1s-0.8,0.2-1.4,0.2
					c-0.7,0-1.3-0.2-1.7-0.6c-0.4-0.4-0.6-0.9-0.6-1.6c0-1.5,1.2-2.3,3.6-2.4l1.3,0v-0.4c0-0.6-0.1-1-0.4-1.3s-0.6-0.4-1.2-0.4
					c-0.4,0-0.8,0.1-1.1,0.2s-0.7,0.3-1,0.4l-0.4-0.9c0.4-0.2,0.8-0.4,1.2-0.5c0.4-0.1,0.9-0.2,1.3-0.2c0.9,0,1.6,0.2,2,0.6
					c0.4,0.4,0.7,1,0.7,1.9v5.1H119.4z M116.9,145.3c0.7,0,1.2-0.2,1.6-0.6s0.6-0.9,0.6-1.6v-0.7l-1.1,0c-0.9,0-1.5,0.2-1.9,0.4
					s-0.6,0.6-0.6,1.1c0,0.4,0.1,0.7,0.4,0.9S116.4,145.3,116.9,145.3z"/>
				<path id="XMLID_59_" class="st3" d="M127.7,146.2v-4.8c0-0.6-0.1-1.1-0.4-1.4s-0.7-0.4-1.3-0.4c-0.8,0-1.3,0.2-1.7,0.6
					s-0.5,1.1-0.5,2.1v3.9h-1.2v-7.5h1l0.2,1h0.1c0.2-0.4,0.6-0.7,1-0.9c0.4-0.2,0.9-0.3,1.4-0.3c0.9,0,1.6,0.2,2.1,0.7
					c0.4,0.4,0.7,1.1,0.7,2.1v4.9H127.7z"/>
			</g>
		</g>
		<g id="XMLID_51_">
			<circle id="XMLID_55_" class="st4" cx="34" cy="106.6" r="4"/>
			<path id="XMLID_54_" class="st4" d="M30,106.6h8.1v10.1C38.1,116.7,30,111.8,30,106.6z"/>
			<circle id="XMLID_53_" class="st4" cx="42.1" cy="106.5" r="4"/>
			<path id="XMLID_52_" class="st4" d="M46.1,106.5h-8.1v10.1C38.1,116.5,46.1,111.6,46.1,106.5z"/>
		</g>
	</g>
	<g id="XMLID_16_">
		<circle id="XMLID_49_" class="st5" cx="101.9" cy="50.8" r="19.5"/>
		<g id="XMLID_46_">
			<path id="XMLID_48_" class="st6" d="M58.1,33l25.4,27.7h18.3V21.4C101.9,21.4,78.3,19.5,58.1,33z"/>
			<path id="XMLID_47_" class="st7" d="M144.9,33l-25.4,27.7h-18.3V21.4C101.1,21.4,124.7,19.5,144.9,33z"/>
		</g>
		<rect id="XMLID_45_" x="40.2" y="36.8" class="st8" width="49.6" height="40.3"/>
		<g id="XMLID_17_">
			<path id="XMLID_43_" class="st1" d="M48.3,57.1l-1.5-4.9h0c0.1,1,0.1,1.7,0.1,2v2.9h-1.2v-6.3h1.8l1.5,4.8h0l1.6-4.8h1.8v6.3
				h-1.2v-3c0-0.1,0-0.3,0-0.5c0-0.2,0-0.7,0.1-1.5h0l-1.6,4.9H48.3z"/>
			<path id="XMLID_40_" class="st1" d="M57.8,57.1l-0.5-1.5H55l-0.5,1.5h-1.4l2.2-6.3H57l2.2,6.3H57.8z M57,54.5
				c-0.4-1.4-0.7-2.1-0.7-2.3s-0.1-0.3-0.1-0.4c-0.1,0.4-0.4,1.3-0.8,2.7H57z"/>
			<path id="XMLID_37_" class="st1" d="M65.2,53.9c0,1-0.3,1.8-0.9,2.4c-0.6,0.5-1.4,0.8-2.5,0.8H60v-6.3h2c1,0,1.8,0.3,2.4,0.8
				C64.9,52.2,65.2,52.9,65.2,53.9z M63.8,53.9c0-1.3-0.6-2-1.8-2h-0.7V56h0.6C63.2,56,63.8,55.3,63.8,53.9z"/>
			<path id="XMLID_35_" class="st1" d="M70.1,57.1h-3.6v-6.3h3.6v1.1h-2.3v1.4h2.1v1.1h-2.1V56h2.3V57.1z"/>
			<path id="XMLID_33_" class="st1" d="M48,67.6h-2.9v-0.8l0.8-0.4v-4.1l-0.8-0.4v-0.8H48v0.8l-0.8,0.4v4.1l0.8,0.4V67.6z"/>
			<path id="XMLID_31_" class="st1" d="M54.6,67.6h-1.7l-2.7-4.7h0c0.1,0.8,0.1,1.4,0.1,1.8v3h-1.2v-6.3h1.7l2.7,4.7h0
				c0-0.8-0.1-1.4-0.1-1.7v-3h1.2V67.6z"/>
			<path id="XMLID_29_" class="st1" d="M57.8,69.5c-0.3,0-0.6,0-0.8-0.1v-1.1c0.2,0.1,0.4,0.1,0.6,0.1c0.3,0,0.5-0.1,0.6-0.3
				c0.1-0.2,0.2-0.5,0.2-0.9v-5.9h1.3v5.9c0,0.7-0.2,1.3-0.5,1.7C59,69.3,58.5,69.5,57.8,69.5z"/>
			<path id="XMLID_26_" class="st1" d="M65.2,67.6l-0.5-1.5h-2.3L62,67.6h-1.4l2.2-6.3h1.6l2.2,6.3H65.2z M64.5,65
				c-0.4-1.4-0.7-2.1-0.7-2.3s-0.1-0.3-0.1-0.4c-0.1,0.4-0.4,1.3-0.8,2.7H64.5z"/>
			<path id="XMLID_23_" class="st1" d="M71.8,63.3c0,0.7-0.2,1.2-0.6,1.5c-0.4,0.4-1,0.5-1.8,0.5h-0.6v2.2h-1.3v-6.3h2
				c0.8,0,1.3,0.2,1.7,0.5C71.6,62.2,71.8,62.7,71.8,63.3z M68.8,64.3h0.4c0.4,0,0.7-0.1,0.9-0.2c0.2-0.2,0.3-0.4,0.3-0.7
				c0-0.3-0.1-0.5-0.3-0.7c-0.2-0.1-0.4-0.2-0.8-0.2h-0.6V64.3z"/>
			<path id="XMLID_20_" class="st1" d="M76.6,67.6l-0.5-1.5h-2.3l-0.5,1.5H72l2.2-6.3h1.6l2.2,6.3H76.6z M75.8,65
				c-0.4-1.4-0.7-2.1-0.7-2.3c-0.1-0.2-0.1-0.3-0.1-0.4c-0.1,0.4-0.4,1.3-0.8,2.7H75.8z"/>
			<path id="XMLID_18_" class="st1" d="M84.4,67.6h-1.7L80,62.9h0c0.1,0.8,0.1,1.4,0.1,1.8v3h-1.2v-6.3h1.7l2.7,4.7h0
				c0-0.8-0.1-1.4-0.1-1.7v-3h1.2V67.6z"/>
		</g>
	</g>
</g>
</svg>