<!-- Generator: Adobe Illustrator 19.0.0, SVG Export Plug-In  -->
<svg version="1.1"
	 xmlns="http://www.w3.org/2000/svg" xmlns:xlink="http://www.w3.org/1999/xlink" xmlns:a="http://ns.adobe.com/AdobeSVGViewerExtensions/3.0/"
	 x="0px" y="0px" width="195px" height="303.5px" viewBox="0 0 195 303.5" style="enable-background:new 0 0 195 303.5;"
	 xml:space="preserve">
<style type="text/css">
	.st0{fill:#FF6633;}
	.st1{fill:#FFFFFF;}
	.st2{fill:#55514F;stroke:#FFFFFF;stroke-width:2;stroke-miterlimit:10;stroke-dasharray:3;}
	.st3{fill:#086A87;}
</style>
<defs>
</defs>
<path id="XMLID_305_" class="st0" d="M100.1,4.8L43.3,61.6c-3.1,3.1-4.8,7.2-4.8,11.5v213.6c0,9,7.3,16.3,16.3,16.3h113.6
	c9,0,16.3-7.3,16.3-16.3V73.1c0-4.3-1.7-8.5-4.8-11.5L123.1,4.8C116.8-1.6,106.5-1.6,100.1,4.8z"/>
<circle id="XMLID_302_" class="st1" cx="111.6" cy="18.3" r="4.6"/>
<line id="XMLID_301_" class="st2" x1="55" y1="225.5" x2="195" y2="225.5"/>
<g id="XMLID_294_">
	<circle id="XMLID_300_" class="st3" cx="6.5" cy="228.9" r="6.5"/>
	<circle id="XMLID_299_" class="st3" cx="8.1" cy="212.5" r="6.5"/>
	<circle id="XMLID_298_" class="st1" cx="8.1" cy="212.5" r="4.3"/>
	<circle id="XMLID_297_" class="st1" cx="6.5" cy="228.9" r="4.3"/>
	<path id="XMLID_296_" class="st3" d="M33.4,232.7L9.7,217L5,218.3l23.2,15.3c0.4,0.2,0.7,0.4,1.2,0.6
		C30.7,234.7,32.2,234.5,33.4,232.7z"/>
	<path id="XMLID_295_" class="st3" d="M32.5,217l-26.9,5.5l4.1,2.9l27.9-5.7c-0.4-2.1-2.1-2.7-3.7-2.8C33.5,216.8,33,216.9,32.5,217
		z"/>
</g>
<g id="XMLID_283_">
	<path id="XMLID_292_" class="st1" d="M87,280.5H59v-5.4l9.9-10c2.9-3,4.9-5.1,5.8-6.3c0.9-1.2,1.6-2.2,1.9-3.2c0.4-1,0.6-2,0.6-3.1
		c0-1.6-0.4-2.8-1.3-3.5c-0.9-0.8-2-1.2-3.5-1.2c-1.5,0-3,0.4-4.5,1.1s-2.9,1.7-4.5,3l-4.5-5.4c1.9-1.7,3.6-2.8,4.8-3.5
		c1.3-0.7,2.7-1.2,4.2-1.6c1.5-0.4,3.2-0.6,5.1-0.6c2.5,0,4.7,0.5,6.5,1.4c1.9,0.9,3.4,2.2,4.4,3.8c1,1.6,1.6,3.5,1.6,5.6
		c0,1.8-0.3,3.5-1,5.1s-1.6,3.2-3,4.9c-1.3,1.7-3.9,4.1-7.3,7.2l-5.3,4.8v0h18V280.5z"/>
	<path id="XMLID_290_" class="st1" d="M105,255.7c3.8,0,6.9,1.1,9.1,3.2c2.3,2.1,3.4,5.1,3.4,8.8c0,4.4-1.4,7.8-4.1,10.2
		c-2.7,2.4-6.7,3.6-11.8,3.6c-4.4,0-7.7-0.7-10.7-2.1v-7.2c2,0.8,3.2,1.4,5.1,1.9c1.9,0.5,3.7,0.7,5.4,0.7c5.1,0,7.7-2.1,7.7-6.3
		c0-4-2.6-6-7.9-6c-1,0-2,0.1-3.2,0.3c-1.2,0.2-2.1,0.4-2.8,0.6l-3.3-1.7l1.5-20.1H115v7h-14.2l-0.7,7.8l0.9-0.2
		C102,255.8,103.4,255.7,105,255.7z"/>
	<path id="XMLID_284_" class="st1" d="M140.6,253.2c0,4.1-0.8,7.3-2.4,9.3c-1.6,2.1-4,3.1-7.1,3.1c-3,0-5.3-1.1-6.9-3.2
		c-1.6-2.1-2.4-5.2-2.4-9.3c0-8.2,3.1-12.4,9.3-12.4c3,0,5.4,1.1,7,3.2C139.8,246.2,140.6,249.2,140.6,253.2z M128.6,253.3
		c0,2.3,0.2,4,0.6,5.1c0.4,1.1,1.1,1.7,2,1.7c1.7,0,2.6-2.3,2.6-6.8c0-4.5-0.9-6.8-2.6-6.8c-0.9,0-1.6,0.6-2,1.7
		C128.8,249.3,128.6,251,128.6,253.3z M159.2,241.5l-21.9,39h-6.5l21.9-39H159.2z M168.3,269c0,4.1-0.8,7.2-2.4,9.3
		c-1.6,2.1-4,3.1-7.1,3.1c-3,0-5.3-1.1-6.9-3.2c-1.6-2.1-2.4-5.2-2.4-9.2c0-8.2,3.1-12.4,9.3-12.4c3,0,5.4,1.1,7,3.2
		C167.5,262,168.3,265,168.3,269z M156.3,269c0,2.3,0.2,4,0.6,5.1c0.4,1.1,1.1,1.7,2,1.7c1.7,0,2.6-2.3,2.6-6.8
		c0-4.5-0.9-6.8-2.6-6.8c-0.9,0-1.6,0.6-2,1.7S156.3,266.8,156.3,269z"/>
</g>
<g id="XMLID_17_">
	<path id="XMLID_280_" class="st1" d="M59.1,75.5v3.8H57v-9.9h2.9c1.3,0,2.3,0.2,3,0.7c0.6,0.5,1,1.2,1,2.2c0,0.6-0.2,1.1-0.5,1.5
		c-0.3,0.5-0.8,0.8-1.4,1.1l2.9,4.3h-2.3l-2.4-3.8H59.1z M59.1,73.8h0.7c0.7,0,1.2-0.1,1.5-0.3c0.3-0.2,0.5-0.6,0.5-1
		c0-0.5-0.2-0.8-0.5-1s-0.8-0.3-1.5-0.3h-0.6V73.8z"/>
	<path id="XMLID_277_" class="st1" d="M70.7,79.3l-0.4-1h-0.1c-0.3,0.4-0.7,0.7-1.1,0.9c-0.4,0.2-0.8,0.3-1.4,0.3
		c-0.7,0-1.3-0.2-1.7-0.6c-0.4-0.4-0.6-1-0.6-1.8c0-0.8,0.3-1.4,0.8-1.8s1.4-0.6,2.5-0.6l1.3,0v-0.3c0-0.8-0.4-1.1-1.2-1.1
		c-0.6,0-1.3,0.2-2.1,0.5l-0.7-1.4c0.9-0.5,1.8-0.7,2.9-0.7c1,0,1.8,0.2,2.3,0.7c0.5,0.4,0.8,1.1,0.8,2v5H70.7z M70.1,75.8l-0.8,0
		c-0.6,0-1,0.1-1.3,0.3c-0.3,0.2-0.4,0.5-0.4,0.9c0,0.6,0.3,0.9,1,0.9c0.5,0,0.9-0.1,1.1-0.4c0.3-0.3,0.4-0.6,0.4-1.1V75.8z"/>
	<path id="XMLID_275_" class="st1" d="M77.5,77.8c0.4,0,0.8-0.1,1.3-0.2v1.5c-0.5,0.2-1.1,0.3-1.9,0.3c-0.8,0-1.4-0.2-1.8-0.6
		c-0.4-0.4-0.6-1-0.6-1.9v-3.6h-1v-0.9l1.1-0.7l0.6-1.6h1.3v1.6h2.1v1.5h-2.1v3.6c0,0.3,0.1,0.5,0.2,0.6
		C77,77.7,77.2,77.8,77.5,77.8z"/>
	<path id="XMLID_272_" class="st1" d="M85.1,79.3l-0.4-1h-0.1c-0.3,0.4-0.7,0.7-1.1,0.9s-0.8,0.3-1.4,0.3c-0.7,0-1.3-0.2-1.7-0.6
		c-0.4-0.4-0.6-1-0.6-1.8c0-0.8,0.3-1.4,0.8-1.8c0.6-0.4,1.4-0.6,2.5-0.6l1.3,0v-0.3c0-0.8-0.4-1.1-1.2-1.1c-0.6,0-1.3,0.2-2.1,0.5
		l-0.7-1.4c0.9-0.5,1.8-0.7,2.9-0.7c1,0,1.8,0.2,2.3,0.7c0.5,0.4,0.8,1.1,0.8,2v5H85.1z M84.5,75.8l-0.8,0c-0.6,0-1,0.1-1.3,0.3
		c-0.3,0.2-0.4,0.5-0.4,0.9c0,0.6,0.3,0.9,1,0.9c0.5,0,0.9-0.1,1.1-0.4c0.3-0.3,0.4-0.6,0.4-1.1V75.8z"/>
	<path id="XMLID_270_" class="st1" d="M88,76.4v-1.7h3.6v1.7H88z"/>
	<path id="XMLID_268_" class="st1" d="M97.3,71.6c0.3,0,0.5,0,0.7,0.1l-0.2,1.9c-0.2,0-0.4-0.1-0.6-0.1c-0.7,0-1.2,0.2-1.5,0.5
		c-0.4,0.3-0.6,0.8-0.6,1.4v3.8h-2.1v-7.5h1.6L95,73h0.1c0.2-0.4,0.6-0.8,0.9-1S96.8,71.6,97.3,71.6z"/>
	<path id="XMLID_265_" class="st1" d="M104,79.3l-0.4-1h-0.1c-0.3,0.4-0.7,0.7-1.1,0.9s-0.8,0.3-1.4,0.3c-0.7,0-1.3-0.2-1.7-0.6
		c-0.4-0.4-0.6-1-0.6-1.8c0-0.8,0.3-1.4,0.8-1.8c0.6-0.4,1.4-0.6,2.5-0.6l1.3,0v-0.3c0-0.8-0.4-1.1-1.2-1.1c-0.6,0-1.3,0.2-2.1,0.5
		l-0.7-1.4c0.9-0.5,1.8-0.7,2.9-0.7c1,0,1.8,0.2,2.3,0.7c0.5,0.4,0.8,1.1,0.8,2v5H104z M103.4,75.8l-0.8,0c-0.6,0-1,0.1-1.3,0.3
		c-0.3,0.2-0.4,0.5-0.4,0.9c0,0.6,0.3,0.9,1,0.9c0.5,0,0.9-0.1,1.1-0.4c0.3-0.3,0.4-0.6,0.4-1.1V75.8z"/>
	<path id="XMLID_263_" class="st1" d="M110.8,77.8c0.4,0,0.8-0.1,1.3-0.2v1.5c-0.5,0.2-1.1,0.3-1.9,0.3c-0.8,0-1.4-0.2-1.8-0.6
		c-0.4-0.4-0.6-1-0.6-1.9v-3.6h-1v-0.9l1.1-0.7l0.6-1.6h1.3v1.6h2.1v1.5h-2.1v3.6c0,0.3,0.1,0.5,0.2,0.6
		C110.3,77.7,110.5,77.8,110.8,77.8z"/>
	<path id="XMLID_260_" class="st1" d="M118.4,79.3l-0.4-1h-0.1c-0.3,0.4-0.7,0.7-1.1,0.9s-0.8,0.3-1.4,0.3c-0.7,0-1.3-0.2-1.7-0.6
		c-0.4-0.4-0.6-1-0.6-1.8c0-0.8,0.3-1.4,0.8-1.8c0.6-0.4,1.4-0.6,2.5-0.6l1.3,0v-0.3c0-0.8-0.4-1.1-1.2-1.1c-0.6,0-1.3,0.2-2.1,0.5
		l-0.7-1.4c0.9-0.5,1.8-0.7,2.9-0.7c1,0,1.8,0.2,2.3,0.7c0.5,0.4,0.8,1.1,0.8,2v5H118.4z M117.8,75.8l-0.8,0c-0.6,0-1,0.1-1.3,0.3
		c-0.3,0.2-0.4,0.5-0.4,0.9c0,0.6,0.3,0.9,1,0.9c0.5,0,0.9-0.1,1.1-0.4c0.3-0.3,0.4-0.6,0.4-1.1V75.8z"/>
	<path id="XMLID_258_" class="st1" d="M124,77.8c-0.2,0.9-0.6,2-1.2,3.2h-1.5c0.3-1.2,0.5-2.3,0.7-3.4h1.9L124,77.8z"/>
	<path id="XMLID_255_" class="st1" d="M60.9,95.8c-0.9,0-1.6-0.3-2.1-1h-0.1c0.1,0.6,0.1,1,0.1,1.1V99h-2.1V88.1h1.7l0.3,1h0.1
		c0.5-0.7,1.2-1.1,2.1-1.1c0.9,0,1.6,0.3,2.1,1c0.5,0.7,0.8,1.6,0.8,2.9c0,0.8-0.1,1.5-0.4,2.1s-0.6,1-1,1.4
		C62,95.6,61.5,95.8,60.9,95.8z M60.3,89.6c-0.5,0-0.9,0.2-1.1,0.5c-0.2,0.3-0.4,0.8-0.4,1.5v0.2c0,0.8,0.1,1.4,0.4,1.7
		c0.2,0.4,0.6,0.5,1.1,0.5c0.9,0,1.4-0.8,1.4-2.3c0-0.7-0.1-1.3-0.3-1.7C61.2,89.8,60.8,89.6,60.3,89.6z"/>
	<path id="XMLID_252_" class="st1" d="M69,95.8c-1.2,0-2.2-0.3-2.8-1s-1-1.6-1-2.8c0-1.3,0.3-2.2,0.9-2.9c0.6-0.7,1.5-1,2.6-1
		c1.1,0,1.9,0.3,2.5,0.9c0.6,0.6,0.9,1.4,0.9,2.5v1h-4.9c0,0.6,0.2,1,0.5,1.4c0.3,0.3,0.8,0.5,1.4,0.5c0.5,0,0.9,0,1.3-0.1
		c0.4-0.1,0.8-0.2,1.3-0.5v1.6c-0.4,0.2-0.7,0.3-1.2,0.4C70.1,95.7,69.6,95.8,69,95.8z M68.7,89.4c-0.4,0-0.8,0.1-1,0.4
		s-0.4,0.7-0.4,1.2h2.9c0-0.5-0.1-0.9-0.4-1.2S69.1,89.4,68.7,89.4z"/>
	<path id="XMLID_250_" class="st1" d="M80.7,95.6h-2.1v-4.4c0-0.5-0.1-1-0.3-1.2c-0.2-0.3-0.5-0.4-0.9-0.4c-0.6,0-1,0.2-1.2,0.6
		c-0.3,0.4-0.4,1-0.4,1.9v3.6h-2.1v-7.5h1.6l0.3,1h0.1c0.2-0.4,0.5-0.6,0.9-0.8c0.4-0.2,0.9-0.3,1.4-0.3c0.9,0,1.5,0.2,2,0.7
		c0.5,0.5,0.7,1.2,0.7,2.1V95.6z"/>
	<path id="XMLID_247_" class="st1" d="M89.4,95.6c0,1.1-0.3,1.9-0.9,2.5c-0.6,0.6-1.6,0.8-2.8,0.8c-1.1,0-2-0.1-2.8-0.4v-1.6
		c0.9,0.4,1.9,0.6,2.9,0.6c1.1,0,1.6-0.6,1.6-1.7v-0.1l0.1-0.9h-0.1c-0.5,0.7-1.2,1.1-2.1,1.1c-0.9,0-1.6-0.3-2.1-1
		c-0.5-0.7-0.7-1.6-0.7-2.8c0-1.2,0.3-2.2,0.8-2.9c0.5-0.7,1.2-1,2.1-1c0.9,0,1.7,0.4,2.2,1.1h0.1l0.2-1h1.7V95.6z M85.9,94.2
		c0.6,0,0.9-0.2,1.2-0.5c0.2-0.3,0.4-0.8,0.4-1.5v-0.2c0-0.8-0.1-1.4-0.4-1.7c-0.3-0.4-0.7-0.5-1.2-0.5c-1,0-1.5,0.8-1.5,2.3
		c0,0.8,0.1,1.3,0.4,1.7C85.1,94,85.4,94.2,85.9,94.2z"/>
	<path id="XMLID_244_" class="st1" d="M98.2,95.6c0,1.1-0.3,1.9-0.9,2.5c-0.6,0.6-1.6,0.8-2.8,0.8c-1.1,0-2-0.1-2.8-0.4v-1.6
		c0.9,0.4,1.9,0.6,2.9,0.6c1.1,0,1.6-0.6,1.6-1.7v-0.1l0.1-0.9h-0.1c-0.5,0.7-1.2,1.1-2.1,1.1c-0.9,0-1.6-0.3-2.1-1
		c-0.5-0.7-0.7-1.6-0.7-2.8c0-1.2,0.3-2.2,0.8-2.9c0.5-0.7,1.2-1,2.1-1c0.9,0,1.7,0.4,2.2,1.1h0.1l0.2-1h1.7V95.6z M94.7,94.2
		c0.6,0,0.9-0.2,1.2-0.5s0.4-0.8,0.4-1.5v-0.2c0-0.8-0.1-1.4-0.4-1.7c-0.3-0.4-0.7-0.5-1.2-0.5c-1,0-1.5,0.8-1.5,2.3
		c0,0.8,0.1,1.3,0.4,1.7C93.8,94,94.2,94.2,94.7,94.2z"/>
	<path id="XMLID_242_" class="st1" d="M105.7,95.6l-0.3-1h-0.1c-0.2,0.4-0.5,0.6-0.9,0.8s-0.9,0.3-1.4,0.3c-0.9,0-1.6-0.2-2-0.7
		c-0.5-0.5-0.7-1.2-0.7-2v-4.9h2.1v4.4c0,0.5,0.1,1,0.3,1.2c0.2,0.3,0.5,0.4,0.9,0.4c0.6,0,1-0.2,1.2-0.6c0.3-0.4,0.4-1,0.4-1.9
		v-3.6h2.1v7.5H105.7z"/>
	<path id="XMLID_240_" class="st1" d="M116.4,95.6h-2.1v-4.4c0-0.5-0.1-1-0.3-1.2c-0.2-0.3-0.5-0.4-0.9-0.4c-0.6,0-1,0.2-1.2,0.6
		c-0.3,0.4-0.4,1-0.4,1.9v3.6h-2.1v-7.5h1.6l0.3,1h0.1c0.2-0.4,0.5-0.6,0.9-0.8c0.4-0.2,0.9-0.3,1.4-0.3c0.9,0,1.5,0.2,2,0.7
		c0.5,0.5,0.7,1.2,0.7,2.1V95.6z"/>
	<path id="XMLID_237_" class="st1" d="M123.3,95.6l-0.4-1h-0.1c-0.3,0.4-0.7,0.7-1.1,0.9s-0.8,0.3-1.4,0.3c-0.7,0-1.3-0.2-1.7-0.6
		c-0.4-0.4-0.6-1-0.6-1.8c0-0.8,0.3-1.4,0.8-1.8c0.6-0.4,1.4-0.6,2.5-0.6l1.3,0v-0.3c0-0.8-0.4-1.1-1.2-1.1c-0.6,0-1.3,0.2-2.1,0.5
		l-0.7-1.4c0.9-0.5,1.8-0.7,2.9-0.7c1,0,1.8,0.2,2.3,0.7c0.5,0.4,0.8,1.1,0.8,2v5H123.3z M122.7,92.1l-0.8,0c-0.6,0-1,0.1-1.3,0.3
		c-0.3,0.2-0.4,0.5-0.4,0.9c0,0.6,0.3,0.9,1,0.9c0.5,0,0.9-0.1,1.1-0.4c0.3-0.3,0.4-0.6,0.4-1.1V92.1z"/>
	<path id="XMLID_234_" class="st1" d="M130.3,86.1c0-0.7,0.4-1,1.1-1c0.7,0,1.1,0.3,1.1,1c0,0.3-0.1,0.6-0.3,0.7
		c-0.2,0.2-0.5,0.3-0.8,0.3C130.7,87.1,130.3,86.8,130.3,86.1z M132.5,95.6h-2.1v-7.5h2.1V95.6z"/>
	<path id="XMLID_231_" class="st1" d="M138.8,95.8c-0.9,0-1.6-0.3-2.1-1h-0.1c0.1,0.6,0.1,1,0.1,1.1V99h-2.1V88.1h1.7l0.3,1h0.1
		c0.5-0.7,1.2-1.1,2.1-1.1c0.9,0,1.6,0.3,2.1,1c0.5,0.7,0.8,1.6,0.8,2.9c0,0.8-0.1,1.5-0.4,2.1s-0.6,1-1,1.4
		C139.9,95.6,139.4,95.8,138.8,95.8z M138.2,89.6c-0.5,0-0.9,0.2-1.1,0.5c-0.2,0.3-0.4,0.8-0.4,1.5v0.2c0,0.8,0.1,1.4,0.4,1.7
		s0.6,0.5,1.1,0.5c0.9,0,1.4-0.8,1.4-2.3c0-0.7-0.1-1.3-0.3-1.7C139,89.8,138.7,89.6,138.2,89.6z"/>
	<path id="XMLID_229_" class="st1" d="M147.6,87.9c0.3,0,0.5,0,0.7,0.1l-0.2,1.9c-0.2,0-0.4-0.1-0.6-0.1c-0.7,0-1.2,0.2-1.5,0.5
		c-0.4,0.3-0.6,0.8-0.6,1.4v3.8h-2.1v-7.5h1.6l0.3,1.3h0.1c0.2-0.4,0.6-0.8,0.9-1S147.2,87.9,147.6,87.9z"/>
	<path id="XMLID_226_" class="st1" d="M149.6,86.1c0-0.7,0.4-1,1.1-1c0.7,0,1.1,0.3,1.1,1c0,0.3-0.1,0.6-0.3,0.7
		c-0.2,0.2-0.5,0.3-0.8,0.3C150,87.1,149.6,86.8,149.6,86.1z M151.7,95.6h-2.1v-7.5h2.1V95.6z"/>
	<path id="XMLID_224_" class="st1" d="M157,95.8c-2.4,0-3.5-1.3-3.5-3.9c0-1.3,0.3-2.3,1-2.9s1.6-1,2.7-1c0.9,0,1.7,0.2,2.3,0.5
		l-0.6,1.6c-0.3-0.1-0.6-0.2-0.9-0.3c-0.3-0.1-0.6-0.1-0.8-0.1c-1.1,0-1.6,0.8-1.6,2.3c0,1.5,0.5,2.2,1.6,2.2c0.4,0,0.8-0.1,1.1-0.2
		c0.3-0.1,0.7-0.3,1-0.5v1.8c-0.3,0.2-0.7,0.4-1,0.4S157.5,95.8,157,95.8z"/>
	<path id="XMLID_221_" class="st1" d="M164.4,95.8c-1.2,0-2.2-0.3-2.8-1s-1-1.6-1-2.8c0-1.3,0.3-2.2,0.9-2.9c0.6-0.7,1.5-1,2.6-1
		c1.1,0,1.9,0.3,2.5,0.9c0.6,0.6,0.9,1.4,0.9,2.5v1h-4.9c0,0.6,0.2,1,0.5,1.4c0.3,0.3,0.8,0.5,1.4,0.5c0.5,0,0.9,0,1.3-0.1
		c0.4-0.1,0.8-0.2,1.3-0.5v1.6c-0.4,0.2-0.7,0.3-1.2,0.4S165,95.8,164.4,95.8z M164.1,89.4c-0.4,0-0.8,0.1-1,0.4
		c-0.2,0.3-0.4,0.7-0.4,1.2h2.9c0-0.5-0.1-0.9-0.4-1.2S164.6,89.4,164.1,89.4z"/>
	<path id="XMLID_218_" class="st1" d="M61,104.3c0.9,0,1.6,0.3,2.1,1c0.5,0.7,0.8,1.6,0.8,2.9c0,1.2-0.3,2.2-0.8,2.9
		c-0.5,0.7-1.2,1-2.1,1c-0.9,0-1.6-0.3-2.1-1h-0.1l-0.3,0.8h-1.6v-10.5h2.1v2.4c0,0.3,0,0.8-0.1,1.5h0.1
		C59.3,104.7,60.1,104.3,61,104.3z M60.3,105.9c-0.5,0-0.9,0.2-1.1,0.5c-0.2,0.3-0.4,0.8-0.4,1.5v0.2c0,0.8,0.1,1.4,0.4,1.7
		c0.2,0.4,0.6,0.5,1.1,0.5c0.4,0,0.8-0.2,1-0.6c0.2-0.4,0.4-1,0.4-1.7c0-0.7-0.1-1.3-0.4-1.7C61.1,106.1,60.8,105.9,60.3,105.9z"/>
	<path id="XMLID_215_" class="st1" d="M65.5,102.5c0-0.7,0.4-1,1.1-1s1.1,0.3,1.1,1c0,0.3-0.1,0.6-0.3,0.7c-0.2,0.2-0.5,0.3-0.8,0.3
		C65.8,103.5,65.5,103.2,65.5,102.5z M67.6,112h-2.1v-7.5h2.1V112z"/>
	<path id="XMLID_213_" class="st1" d="M75,109.7c0,0.8-0.3,1.4-0.8,1.8c-0.5,0.4-1.3,0.6-2.4,0.6c-0.5,0-1,0-1.4-0.1
		c-0.4-0.1-0.7-0.2-1.1-0.3V110c0.4,0.2,0.8,0.3,1.3,0.5c0.5,0.1,0.9,0.2,1.3,0.2c0.7,0,1.1-0.2,1.1-0.6c0-0.2,0-0.3-0.1-0.4
		c-0.1-0.1-0.3-0.2-0.5-0.3s-0.6-0.3-1-0.4c-0.6-0.2-1-0.5-1.3-0.7c-0.3-0.2-0.5-0.4-0.6-0.7c-0.1-0.3-0.2-0.6-0.2-1
		c0-0.7,0.3-1.2,0.8-1.6c0.5-0.4,1.3-0.6,2.2-0.6c0.9,0,1.8,0.2,2.7,0.6l-0.6,1.5c-0.4-0.2-0.7-0.3-1.1-0.4c-0.3-0.1-0.7-0.2-1-0.2
		c-0.6,0-0.9,0.2-0.9,0.5c0,0.2,0.1,0.3,0.3,0.5c0.2,0.1,0.6,0.3,1.3,0.6c0.6,0.2,1,0.5,1.3,0.7s0.5,0.4,0.6,0.7
		C75,109.1,75,109.4,75,109.7z"/>
	<path id="XMLID_210_" class="st1" d="M81.4,112l-0.4-1H81c-0.3,0.4-0.7,0.7-1.1,0.9c-0.4,0.2-0.8,0.3-1.4,0.3
		c-0.7,0-1.3-0.2-1.7-0.6c-0.4-0.4-0.6-1-0.6-1.8c0-0.8,0.3-1.4,0.8-1.8s1.4-0.6,2.5-0.6l1.3,0V107c0-0.8-0.4-1.1-1.2-1.1
		c-0.6,0-1.3,0.2-2.1,0.5l-0.7-1.4c0.9-0.5,1.8-0.7,2.9-0.7c1,0,1.8,0.2,2.3,0.7c0.5,0.4,0.8,1.1,0.8,2v5H81.4z M80.8,108.5l-0.8,0
		c-0.6,0-1,0.1-1.3,0.3c-0.3,0.2-0.4,0.5-0.4,0.9c0,0.6,0.3,0.9,1,0.9c0.5,0,0.9-0.1,1.1-0.4c0.3-0.3,0.4-0.6,0.4-1.1V108.5z"/>
	<path id="XMLID_208_" class="st1" d="M95.4,112h-2.1v-4.4c0-0.5-0.1-1-0.3-1.2c-0.2-0.3-0.5-0.4-0.9-0.4c-0.5,0-0.9,0.2-1.1,0.6
		c-0.2,0.4-0.4,1-0.4,1.9v3.6h-2.1v-7.5h1.6l0.3,1h0.1c0.2-0.3,0.5-0.6,0.9-0.8c0.4-0.2,0.8-0.3,1.3-0.3c1.1,0,1.9,0.4,2.3,1.1h0.2
		c0.2-0.4,0.5-0.6,0.9-0.8c0.4-0.2,0.8-0.3,1.3-0.3c0.9,0,1.5,0.2,1.9,0.7s0.7,1.1,0.7,2.1v4.9H98v-4.4c0-0.5-0.1-1-0.3-1.2
		c-0.2-0.3-0.5-0.4-0.9-0.4c-0.5,0-0.9,0.2-1.1,0.5c-0.2,0.4-0.4,0.9-0.4,1.7V112z"/>
	<path id="XMLID_205_" class="st1" d="M105.6,112.1c-1.2,0-2.2-0.3-2.8-1s-1-1.6-1-2.8c0-1.3,0.3-2.2,0.9-2.9c0.6-0.7,1.5-1,2.6-1
		c1.1,0,1.9,0.3,2.5,0.9c0.6,0.6,0.9,1.4,0.9,2.5v1h-4.9c0,0.6,0.2,1,0.5,1.4s0.8,0.5,1.4,0.5c0.5,0,0.9,0,1.3-0.1
		c0.4-0.1,0.8-0.2,1.3-0.5v1.6c-0.4,0.2-0.7,0.3-1.2,0.4S106.2,112.1,105.6,112.1z M105.3,105.8c-0.4,0-0.8,0.1-1,0.4
		s-0.4,0.7-0.4,1.2h2.9c0-0.5-0.1-0.9-0.4-1.2S105.7,105.8,105.3,105.8z"/>
	<path id="XMLID_203_" class="st1" d="M117.3,112h-2.1v-4.4c0-0.5-0.1-1-0.3-1.2c-0.2-0.3-0.5-0.4-0.9-0.4c-0.6,0-1,0.2-1.2,0.6
		c-0.3,0.4-0.4,1-0.4,1.9v3.6h-2.1v-7.5h1.6l0.3,1h0.1c0.2-0.4,0.5-0.6,0.9-0.8c0.4-0.2,0.9-0.3,1.4-0.3c0.9,0,1.5,0.2,2,0.7
		c0.5,0.5,0.7,1.2,0.7,2.1V112z"/>
	<path id="XMLID_200_" class="st1" d="M126,112c0,1.1-0.3,1.9-0.9,2.5c-0.6,0.6-1.6,0.8-2.8,0.8c-1.1,0-2-0.1-2.8-0.4v-1.6
		c0.9,0.4,1.9,0.6,2.9,0.6c1.1,0,1.6-0.6,1.6-1.7v-0.1l0.1-0.9H124c-0.5,0.7-1.2,1.1-2.1,1.1c-0.9,0-1.6-0.3-2.1-1
		c-0.5-0.7-0.7-1.6-0.7-2.8c0-1.2,0.3-2.2,0.8-2.9c0.5-0.7,1.2-1,2.1-1c0.9,0,1.7,0.4,2.2,1.1h0.1l0.2-1h1.7V112z M122.6,110.5
		c0.6,0,0.9-0.2,1.2-0.5s0.4-0.8,0.4-1.5v-0.2c0-0.8-0.1-1.4-0.4-1.7c-0.3-0.4-0.7-0.5-1.2-0.5c-1,0-1.5,0.8-1.5,2.3
		c0,0.8,0.1,1.3,0.4,1.7C121.7,110.3,122,110.5,122.6,110.5z"/>
	<path id="XMLID_198_" class="st1" d="M135.2,112h-2.1v-4.4c0-1.1-0.4-1.6-1.2-1.6c-0.6,0-1,0.2-1.2,0.6s-0.4,1-0.4,1.9v3.6h-2.1
		v-10.5h2.1v2.1c0,0.2,0,0.6,0,1.2l0,0.6h0.1c0.5-0.7,1.2-1.1,2.2-1.1c0.9,0,1.6,0.2,2,0.7c0.5,0.5,0.7,1.2,0.7,2.1V112z"/>
	<path id="XMLID_195_" class="st1" d="M140.7,112.1c-1.2,0-2.2-0.3-2.8-1c-0.7-0.7-1-1.6-1-2.8c0-1.3,0.3-2.2,0.9-2.9
		c0.6-0.7,1.5-1,2.6-1c1.1,0,1.9,0.3,2.5,0.9c0.6,0.6,0.9,1.4,0.9,2.5v1h-4.9c0,0.6,0.2,1,0.5,1.4s0.8,0.5,1.4,0.5
		c0.5,0,0.9,0,1.3-0.1c0.4-0.1,0.8-0.2,1.3-0.5v1.6c-0.4,0.2-0.7,0.3-1.2,0.4S141.3,112.1,140.7,112.1z M140.4,105.8
		c-0.4,0-0.8,0.1-1,0.4s-0.4,0.7-0.4,1.2h2.9c0-0.5-0.1-0.9-0.4-1.2S140.8,105.8,140.4,105.8z"/>
	<path id="XMLID_193_" class="st1" d="M152.2,112h-2.1v-4.4c0-0.5-0.1-1-0.3-1.2c-0.2-0.3-0.5-0.4-0.9-0.4c-0.5,0-0.9,0.2-1.1,0.6
		c-0.2,0.4-0.4,1-0.4,1.9v3.6h-2.1v-7.5h1.6l0.3,1h0.1c0.2-0.3,0.5-0.6,0.9-0.8s0.8-0.3,1.3-0.3c1.1,0,1.9,0.4,2.3,1.1h0.2
		c0.2-0.4,0.5-0.6,0.9-0.8c0.4-0.2,0.8-0.3,1.3-0.3c0.9,0,1.5,0.2,1.9,0.7s0.7,1.1,0.7,2.1v4.9h-2.1v-4.4c0-0.5-0.1-1-0.3-1.2
		c-0.2-0.3-0.5-0.4-0.9-0.4c-0.5,0-0.9,0.2-1.1,0.5c-0.2,0.4-0.4,0.9-0.4,1.7V112z"/>
	<path id="XMLID_190_" class="st1" d="M163.8,112l-0.4-1h-0.1c-0.3,0.4-0.7,0.7-1.1,0.9s-0.8,0.3-1.4,0.3c-0.7,0-1.3-0.2-1.7-0.6
		c-0.4-0.4-0.6-1-0.6-1.8c0-0.8,0.3-1.4,0.8-1.8c0.6-0.4,1.4-0.6,2.5-0.6l1.3,0V107c0-0.8-0.4-1.1-1.2-1.1c-0.6,0-1.3,0.2-2.1,0.5
		l-0.7-1.4c0.9-0.5,1.8-0.7,2.9-0.7c1,0,1.8,0.2,2.3,0.7c0.5,0.4,0.8,1.1,0.8,2v5H163.8z M163.2,108.5l-0.8,0c-0.6,0-1,0.1-1.3,0.3
		c-0.3,0.2-0.4,0.5-0.4,0.9c0,0.6,0.3,0.9,1,0.9c0.5,0,0.9-0.1,1.1-0.4c0.3-0.3,0.4-0.6,0.4-1.1V108.5z"/>
	<path id="XMLID_188_" class="st1" d="M170.6,110.5c0.4,0,0.8-0.1,1.3-0.2v1.5c-0.5,0.2-1.1,0.3-1.9,0.3c-0.8,0-1.4-0.2-1.8-0.6
		c-0.4-0.4-0.6-1-0.6-1.9V106h-1v-0.9l1.1-0.7l0.6-1.6h1.3v1.6h2.1v1.5h-2.1v3.6c0,0.3,0.1,0.5,0.2,0.6
		C170.1,110.4,170.3,110.5,170.6,110.5z"/>
	<path id="XMLID_186_" class="st1" d="M63.8,128.3h-2.1v-4.4c0-1.1-0.4-1.6-1.2-1.6c-0.6,0-1,0.2-1.2,0.6s-0.4,1-0.4,1.9v3.6h-2.1
		v-10.5h2.1v2.1c0,0.2,0,0.6,0,1.2l0,0.6h0.1c0.5-0.7,1.2-1.1,2.2-1.1c0.9,0,1.6,0.2,2,0.7c0.5,0.5,0.7,1.2,0.7,2.1V128.3z"/>
	<path id="XMLID_183_" class="st1" d="M65.8,118.8c0-0.7,0.4-1,1.1-1s1.1,0.3,1.1,1c0,0.3-0.1,0.6-0.3,0.7c-0.2,0.2-0.5,0.3-0.8,0.3
		C66.2,119.9,65.8,119.5,65.8,118.8z M67.9,128.3h-2.1v-7.5h2.1V128.3z"/>
	<path id="XMLID_181_" class="st1" d="M77.1,128.3H75v-4.4c0-0.5-0.1-1-0.3-1.2c-0.2-0.3-0.5-0.4-0.9-0.4c-0.6,0-1,0.2-1.2,0.6
		c-0.3,0.4-0.4,1-0.4,1.9v3.6h-2.1v-7.5h1.6l0.3,1h0.1c0.2-0.4,0.5-0.6,0.9-0.8c0.4-0.2,0.9-0.3,1.4-0.3c0.9,0,1.5,0.2,2,0.7
		c0.5,0.5,0.7,1.2,0.7,2.1V128.3z"/>
	<path id="XMLID_178_" class="st1" d="M85.8,128.4c0,1.1-0.3,1.9-0.9,2.5c-0.6,0.6-1.6,0.8-2.8,0.8c-1.1,0-2-0.1-2.8-0.4v-1.6
		c0.9,0.4,1.9,0.6,2.9,0.6c1.1,0,1.6-0.6,1.6-1.7v-0.1l0.1-0.9h-0.1c-0.5,0.7-1.2,1.1-2.1,1.1c-0.9,0-1.6-0.3-2.1-1
		c-0.5-0.7-0.7-1.6-0.7-2.8c0-1.2,0.3-2.2,0.8-2.9c0.5-0.7,1.2-1,2.1-1c0.9,0,1.7,0.4,2.2,1.1h0.1l0.2-1h1.7V128.4z M82.3,126.9
		c0.6,0,0.9-0.2,1.2-0.5c0.2-0.3,0.4-0.8,0.4-1.5v-0.2c0-0.8-0.1-1.4-0.4-1.7c-0.2-0.4-0.7-0.5-1.2-0.5c-1,0-1.5,0.8-1.5,2.3
		c0,0.8,0.1,1.3,0.4,1.7C81.4,126.7,81.8,126.9,82.3,126.9z"/>
	<path id="XMLID_175_" class="st1" d="M94.5,128.4c0,1.1-0.3,1.9-0.9,2.5c-0.6,0.6-1.6,0.8-2.8,0.8c-1.1,0-2-0.1-2.8-0.4v-1.6
		c0.9,0.4,1.9,0.6,2.9,0.6c1.1,0,1.6-0.6,1.6-1.7v-0.1l0.1-0.9h-0.1c-0.5,0.7-1.2,1.1-2.1,1.1c-0.9,0-1.6-0.3-2.1-1
		c-0.5-0.7-0.7-1.6-0.7-2.8c0-1.2,0.3-2.2,0.8-2.9c0.5-0.7,1.2-1,2.1-1c0.9,0,1.7,0.4,2.2,1.1h0.1l0.2-1h1.7V128.4z M91.1,126.9
		c0.6,0,0.9-0.2,1.2-0.5c0.2-0.3,0.4-0.8,0.4-1.5v-0.2c0-0.8-0.1-1.4-0.4-1.7c-0.3-0.4-0.7-0.5-1.2-0.5c-1,0-1.5,0.8-1.5,2.3
		c0,0.8,0.1,1.3,0.4,1.7C90.2,126.7,90.6,126.9,91.1,126.9z"/>
	<path id="XMLID_172_" class="st1" d="M101.5,128.3l-0.4-1H101c-0.3,0.4-0.7,0.7-1.1,0.9c-0.4,0.2-0.8,0.3-1.4,0.3
		c-0.7,0-1.3-0.2-1.7-0.6c-0.4-0.4-0.6-1-0.6-1.8c0-0.8,0.3-1.4,0.8-1.8s1.4-0.6,2.5-0.6l1.3,0v-0.3c0-0.8-0.4-1.1-1.2-1.1
		c-0.6,0-1.3,0.2-2.1,0.5l-0.7-1.4c0.9-0.5,1.8-0.7,2.9-0.7c1,0,1.8,0.2,2.3,0.7c0.5,0.4,0.8,1.1,0.8,2v5H101.5z M100.9,124.8
		l-0.8,0c-0.6,0-1,0.1-1.3,0.3c-0.3,0.2-0.4,0.5-0.4,0.9c0,0.6,0.3,0.9,1,0.9c0.5,0,0.9-0.1,1.1-0.4c0.3-0.3,0.4-0.6,0.4-1.1V124.8z
		"/>
	<path id="XMLID_170_" class="st1" d="M115,128.3h-6.9v-1.5l2.5-2.5c0.7-0.8,1.2-1.3,1.4-1.6c0.2-0.3,0.4-0.6,0.5-0.8
		c0.1-0.2,0.1-0.5,0.1-0.8c0-0.4-0.1-0.7-0.3-0.9c-0.2-0.2-0.5-0.3-0.9-0.3c-0.4,0-0.8,0.1-1.1,0.3c-0.4,0.2-0.7,0.4-1.1,0.7
		l-1.1-1.3c0.5-0.4,0.9-0.7,1.2-0.9c0.3-0.2,0.7-0.3,1-0.4s0.8-0.1,1.3-0.1c0.6,0,1.2,0.1,1.6,0.3s0.8,0.5,1.1,0.9
		c0.3,0.4,0.4,0.9,0.4,1.4c0,0.5-0.1,0.9-0.2,1.3c-0.2,0.4-0.4,0.8-0.7,1.2c-0.3,0.4-0.9,1-1.8,1.8l-1.3,1.2v0.1h4.3V128.3z"/>
	<path id="XMLID_168_" class="st1" d="M119.6,122c1,0,1.7,0.3,2.3,0.8s0.8,1.3,0.8,2.2c0,1.1-0.3,2-1,2.5s-1.7,0.9-2.9,0.9
		c-1.1,0-2-0.2-2.7-0.5v-1.8c0.4,0.2,0.8,0.3,1.2,0.5s0.9,0.2,1.3,0.2c1.3,0,1.9-0.5,1.9-1.6c0-1-0.7-1.5-2-1.5
		c-0.2,0-0.5,0-0.8,0.1s-0.5,0.1-0.7,0.2l-0.8-0.4l0.4-5h5.4v1.8h-3.5l-0.2,1.9l0.2,0C118.9,122.1,119.2,122,119.6,122z"/>
	<path id="XMLID_162_" class="st1" d="M128.5,121.4c0,1-0.2,1.8-0.6,2.3c-0.4,0.5-1,0.8-1.8,0.8c-0.7,0-1.3-0.3-1.7-0.8
		c-0.4-0.5-0.6-1.3-0.6-2.3c0-2.1,0.8-3.1,2.3-3.1c0.8,0,1.3,0.3,1.8,0.8C128.3,119.7,128.5,120.4,128.5,121.4z M125.5,121.4
		c0,0.6,0.1,1,0.2,1.3c0.1,0.3,0.3,0.4,0.5,0.4c0.4,0,0.6-0.6,0.6-1.7c0-1.1-0.2-1.7-0.6-1.7c-0.2,0-0.4,0.1-0.5,0.4
		S125.5,120.9,125.5,121.4z M133.1,118.5l-5.5,9.9H126l5.5-9.9H133.1z M135.4,125.4c0,1-0.2,1.8-0.6,2.3s-1,0.8-1.8,0.8
		c-0.7,0-1.3-0.3-1.7-0.8c-0.4-0.5-0.6-1.3-0.6-2.3c0-2.1,0.8-3.1,2.3-3.1c0.8,0,1.3,0.3,1.8,0.8
		C135.2,123.6,135.4,124.4,135.4,125.4z M132.4,125.4c0,0.6,0.1,1,0.2,1.3s0.3,0.4,0.5,0.4c0.4,0,0.6-0.6,0.6-1.7
		c0-1.1-0.2-1.7-0.6-1.7c-0.2,0-0.4,0.1-0.5,0.4S132.4,124.8,132.4,125.4z"/>
	<path id="XMLID_159_" class="st1" d="M59.2,144.8c-0.9,0-1.6-0.3-2.1-1c-0.5-0.7-0.8-1.6-0.8-2.9c0-1.2,0.3-2.2,0.8-2.9
		c0.5-0.7,1.2-1,2.1-1c0.9,0,1.7,0.4,2.2,1.1h0.1c-0.1-0.6-0.2-1.1-0.2-1.5v-2.4h2.1v10.5h-1.6l-0.4-1h-0.1
		C60.9,144.5,60.1,144.8,59.2,144.8z M59.9,143.2c0.5,0,0.9-0.2,1.2-0.5s0.4-0.8,0.4-1.6V141c0-0.8-0.1-1.4-0.4-1.7
		s-0.7-0.5-1.2-0.5c-0.5,0-0.8,0.2-1.1,0.6c-0.3,0.4-0.4,1-0.4,1.7c0,0.7,0.1,1.3,0.4,1.7C59.1,143,59.4,143.2,59.9,143.2z"/>
	<path id="XMLID_156_" class="st1" d="M69,144.8c-1.2,0-2.2-0.3-2.8-1s-1-1.6-1-2.8c0-1.3,0.3-2.2,0.9-2.9c0.6-0.7,1.5-1,2.6-1
		c1.1,0,1.9,0.3,2.5,0.9c0.6,0.6,0.9,1.4,0.9,2.5v1h-4.9c0,0.6,0.2,1,0.5,1.4c0.3,0.3,0.8,0.5,1.4,0.5c0.5,0,0.9,0,1.3-0.1
		c0.4-0.1,0.8-0.2,1.3-0.5v1.6c-0.4,0.2-0.7,0.3-1.2,0.4C70.1,144.8,69.6,144.8,69,144.8z M68.7,138.5c-0.4,0-0.8,0.1-1,0.4
		s-0.4,0.7-0.4,1.2h2.9c0-0.5-0.1-0.9-0.4-1.2S69.1,138.5,68.7,138.5z"/>
	<path id="XMLID_154_" class="st1" d="M80.7,144.7h-2.1v-4.4c0-0.5-0.1-1-0.3-1.2c-0.2-0.3-0.5-0.4-0.9-0.4c-0.6,0-1,0.2-1.2,0.6
		c-0.3,0.4-0.4,1-0.4,1.9v3.6h-2.1v-7.5h1.6l0.3,1h0.1c0.2-0.4,0.5-0.6,0.9-0.8c0.4-0.2,0.9-0.3,1.4-0.3c0.9,0,1.5,0.2,2,0.7
		c0.5,0.5,0.7,1.2,0.7,2.1V144.7z"/>
	<path id="XMLID_151_" class="st1" d="M89.4,144.7c0,1.1-0.3,1.9-0.9,2.5c-0.6,0.6-1.6,0.8-2.8,0.8c-1.1,0-2-0.1-2.8-0.4v-1.6
		c0.9,0.4,1.9,0.6,2.9,0.6c1.1,0,1.6-0.6,1.6-1.7v-0.1l0.1-0.9h-0.1c-0.5,0.7-1.2,1.1-2.1,1.1c-0.9,0-1.6-0.3-2.1-1
		c-0.5-0.7-0.7-1.6-0.7-2.8c0-1.2,0.3-2.2,0.8-2.9c0.5-0.7,1.2-1,2.1-1c0.9,0,1.7,0.4,2.2,1.1h0.1l0.2-1h1.7V144.7z M85.9,143.2
		c0.6,0,0.9-0.2,1.2-0.5c0.2-0.3,0.4-0.8,0.4-1.5V141c0-0.8-0.1-1.4-0.4-1.7c-0.3-0.4-0.7-0.5-1.2-0.5c-1,0-1.5,0.8-1.5,2.3
		c0,0.8,0.1,1.3,0.4,1.7C85.1,143,85.4,143.2,85.9,143.2z"/>
	<path id="XMLID_148_" class="st1" d="M96.4,144.7l-0.4-1h-0.1c-0.3,0.4-0.7,0.7-1.1,0.9c-0.4,0.2-0.8,0.3-1.4,0.3
		c-0.7,0-1.3-0.2-1.7-0.6c-0.4-0.4-0.6-1-0.6-1.8c0-0.8,0.3-1.4,0.8-1.8s1.4-0.6,2.5-0.6l1.3,0v-0.3c0-0.8-0.4-1.1-1.2-1.1
		c-0.6,0-1.3,0.2-2.1,0.5l-0.7-1.4c0.9-0.5,1.8-0.7,2.9-0.7c1,0,1.8,0.2,2.3,0.7c0.5,0.4,0.8,1.1,0.8,2v5H96.4z M95.7,141.2l-0.8,0
		c-0.6,0-1,0.1-1.3,0.3c-0.3,0.2-0.4,0.5-0.4,0.9c0,0.6,0.3,0.9,1,0.9c0.5,0,0.9-0.1,1.1-0.4c0.3-0.3,0.4-0.6,0.4-1.1V141.2z"/>
	<path id="XMLID_146_" class="st1" d="M106.9,144.7h-2.1v-4.4c0-0.5-0.1-1-0.3-1.2c-0.2-0.3-0.5-0.4-0.9-0.4c-0.6,0-1,0.2-1.2,0.6
		c-0.3,0.4-0.4,1-0.4,1.9v3.6h-2.1v-7.5h1.6l0.3,1h0.1c0.2-0.4,0.5-0.6,0.9-0.8c0.4-0.2,0.9-0.3,1.4-0.3c0.9,0,1.5,0.2,2,0.7
		c0.5,0.5,0.7,1.2,0.7,2.1V144.7z"/>
	<path id="XMLID_144_" class="st1" d="M119.4,144.7h-2.1v-4.4c0-0.5-0.1-1-0.3-1.2c-0.2-0.3-0.5-0.4-0.9-0.4c-0.5,0-0.9,0.2-1.1,0.6
		c-0.2,0.4-0.4,1-0.4,1.9v3.6h-2.1v-7.5h1.6l0.3,1h0.1c0.2-0.3,0.5-0.6,0.9-0.8s0.8-0.3,1.3-0.3c1.1,0,1.9,0.4,2.3,1.1h0.2
		c0.2-0.4,0.5-0.6,0.9-0.8c0.4-0.2,0.8-0.3,1.3-0.3c0.9,0,1.5,0.2,1.9,0.7s0.7,1.1,0.7,2.1v4.9H122v-4.4c0-0.5-0.1-1-0.3-1.2
		c-0.2-0.3-0.5-0.4-0.9-0.4c-0.5,0-0.9,0.2-1.1,0.5c-0.3,0.4-0.4,0.9-0.4,1.7V144.7z"/>
	<path id="XMLID_141_" class="st1" d="M129.6,144.8c-1.2,0-2.2-0.3-2.8-1s-1-1.6-1-2.8c0-1.3,0.3-2.2,0.9-2.9c0.6-0.7,1.5-1,2.6-1
		c1.1,0,1.9,0.3,2.5,0.9c0.6,0.6,0.9,1.4,0.9,2.5v1h-4.9c0,0.6,0.2,1,0.5,1.4c0.3,0.3,0.8,0.5,1.4,0.5c0.5,0,0.9,0,1.3-0.1
		c0.4-0.1,0.8-0.2,1.3-0.5v1.6c-0.4,0.2-0.7,0.3-1.2,0.4S130.2,144.8,129.6,144.8z M129.3,138.5c-0.4,0-0.8,0.1-1,0.4
		c-0.2,0.3-0.4,0.7-0.4,1.2h2.9c0-0.5-0.1-0.9-0.4-1.2S129.7,138.5,129.3,138.5z"/>
	<path id="XMLID_139_" class="st1" d="M141.3,144.7h-2.1v-4.4c0-0.5-0.1-1-0.3-1.2c-0.2-0.3-0.5-0.4-0.9-0.4c-0.6,0-1,0.2-1.2,0.6
		c-0.3,0.4-0.4,1-0.4,1.9v3.6h-2.1v-7.5h1.6l0.3,1h0.1c0.2-0.4,0.5-0.6,0.9-0.8c0.4-0.2,0.9-0.3,1.4-0.3c0.9,0,1.5,0.2,2,0.7
		c0.5,0.5,0.7,1.2,0.7,2.1V144.7z"/>
	<path id="XMLID_136_" class="st1" d="M150,144.7c0,1.1-0.3,1.9-0.9,2.5c-0.6,0.6-1.6,0.8-2.8,0.8c-1.1,0-2-0.1-2.8-0.4v-1.6
		c0.9,0.4,1.9,0.6,2.9,0.6c1.1,0,1.6-0.6,1.6-1.7v-0.1l0.1-0.9H148c-0.5,0.7-1.2,1.1-2.1,1.1c-0.9,0-1.6-0.3-2.1-1
		c-0.5-0.7-0.7-1.6-0.7-2.8c0-1.2,0.3-2.2,0.8-2.9c0.5-0.7,1.2-1,2.1-1c0.9,0,1.7,0.4,2.2,1.1h0.1l0.2-1h1.7V144.7z M146.6,143.2
		c0.6,0,0.9-0.2,1.2-0.5c0.2-0.3,0.4-0.8,0.4-1.5V141c0-0.8-0.1-1.4-0.4-1.7s-0.7-0.5-1.2-0.5c-1,0-1.5,0.8-1.5,2.3
		c0,0.8,0.1,1.3,0.4,1.7C145.7,143,146.1,143.2,146.6,143.2z"/>
	<path id="XMLID_133_" class="st1" d="M158.8,144.7c0,1.1-0.3,1.9-0.9,2.5c-0.6,0.6-1.6,0.8-2.8,0.8c-1.1,0-2-0.1-2.8-0.4v-1.6
		c0.9,0.4,1.9,0.6,2.9,0.6c1.1,0,1.6-0.6,1.6-1.7v-0.1l0.1-0.9h-0.1c-0.5,0.7-1.2,1.1-2.1,1.1c-0.9,0-1.6-0.3-2.1-1
		c-0.5-0.7-0.7-1.6-0.7-2.8c0-1.2,0.3-2.2,0.8-2.9c0.5-0.7,1.2-1,2.1-1c0.9,0,1.7,0.4,2.2,1.1h0.1l0.2-1h1.7V144.7z M155.3,143.2
		c0.6,0,0.9-0.2,1.2-0.5s0.4-0.8,0.4-1.5V141c0-0.8-0.1-1.4-0.4-1.7c-0.2-0.4-0.7-0.5-1.2-0.5c-1,0-1.5,0.8-1.5,2.3
		c0,0.8,0.1,1.3,0.4,1.7C154.4,143,154.8,143.2,155.3,143.2z"/>
	<path id="XMLID_131_" class="st1" d="M166.3,144.7l-0.3-1h-0.1c-0.2,0.4-0.5,0.6-0.9,0.8c-0.4,0.2-0.9,0.3-1.4,0.3
		c-0.9,0-1.6-0.2-2-0.7c-0.5-0.5-0.7-1.2-0.7-2v-4.9h2.1v4.4c0,0.5,0.1,1,0.3,1.2c0.2,0.3,0.5,0.4,0.9,0.4c0.6,0,1-0.2,1.2-0.6
		c0.3-0.4,0.4-1,0.4-1.9v-3.6h2.1v7.5H166.3z"/>
	<path id="XMLID_129_" class="st1" d="M169.4,141.8v-1.7h3.6v1.7H169.4z"/>
	<path id="XMLID_127_" class="st1" d="M63.8,161.1h-2.1v-4.4c0-0.5-0.1-1-0.3-1.2c-0.2-0.3-0.5-0.4-0.9-0.4c-0.6,0-1,0.2-1.2,0.6
		c-0.3,0.4-0.4,1-0.4,1.9v3.6h-2.1v-7.5h1.6l0.3,1h0.1c0.2-0.4,0.5-0.6,0.9-0.8c0.4-0.2,0.9-0.3,1.4-0.3c0.9,0,1.5,0.2,2,0.7
		c0.5,0.5,0.7,1.2,0.7,2.1V161.1z"/>
	<path id="XMLID_124_" class="st1" d="M70.7,161.1l-0.4-1h-0.1c-0.3,0.4-0.7,0.7-1.1,0.9c-0.4,0.2-0.8,0.3-1.4,0.3
		c-0.7,0-1.3-0.2-1.7-0.6c-0.4-0.4-0.6-1-0.6-1.8c0-0.8,0.3-1.4,0.8-1.8s1.4-0.6,2.5-0.6l1.3,0V156c0-0.8-0.4-1.1-1.2-1.1
		c-0.6,0-1.3,0.2-2.1,0.5l-0.7-1.4c0.9-0.5,1.8-0.7,2.9-0.7c1,0,1.8,0.2,2.3,0.7c0.5,0.4,0.8,1.1,0.8,2v5H70.7z M70.1,157.6l-0.8,0
		c-0.6,0-1,0.1-1.3,0.3c-0.3,0.2-0.4,0.5-0.4,0.9c0,0.6,0.3,0.9,1,0.9c0.5,0,0.9-0.1,1.1-0.4c0.3-0.3,0.4-0.6,0.4-1.1V157.6z"/>
	<path id="XMLID_122_" class="st1" d="M76.2,157l0.9-1.1l2.1-2.3h2.3l-3,3.3l3.2,4.3h-2.4l-2.2-3.1l-0.9,0.7v2.4h-2.1v-10.5h2.1v4.7
		L76.2,157L76.2,157z"/>
	<path id="XMLID_119_" class="st1" d="M87.6,161.1l-0.4-1h-0.1c-0.3,0.4-0.7,0.7-1.1,0.9s-0.8,0.3-1.4,0.3c-0.7,0-1.3-0.2-1.7-0.6
		c-0.4-0.4-0.6-1-0.6-1.8c0-0.8,0.3-1.4,0.8-1.8c0.6-0.4,1.4-0.6,2.5-0.6l1.3,0V156c0-0.8-0.4-1.1-1.2-1.1c-0.6,0-1.3,0.2-2.1,0.5
		L83,154c0.9-0.5,1.8-0.7,2.9-0.7c1,0,1.8,0.2,2.3,0.7c0.5,0.4,0.8,1.1,0.8,2v5H87.6z M87,157.6l-0.8,0c-0.6,0-1,0.1-1.3,0.3
		c-0.3,0.2-0.4,0.5-0.4,0.9c0,0.6,0.3,0.9,1,0.9c0.5,0,0.9-0.1,1.1-0.4c0.3-0.3,0.4-0.6,0.4-1.1V157.6z"/>
	<path id="XMLID_117_" class="st1" d="M98.1,161.1h-2.1v-4.4c0-0.5-0.1-1-0.3-1.2c-0.2-0.3-0.5-0.4-0.9-0.4c-0.6,0-1,0.2-1.2,0.6
		c-0.3,0.4-0.4,1-0.4,1.9v3.6h-2.1v-7.5h1.6l0.3,1h0.1c0.2-0.4,0.5-0.6,0.9-0.8c0.4-0.2,0.9-0.3,1.4-0.3c0.9,0,1.5,0.2,2,0.7
		c0.5,0.5,0.7,1.2,0.7,2.1V161.1z"/>
	<path id="XMLID_115_" class="st1" d="M105.8,157l0.9-1.1l2.1-2.3h2.3l-3,3.3l3.2,4.3H109l-2.2-3.1l-0.9,0.7v2.4h-2.1v-10.5h2.1v4.7
		L105.8,157L105.8,157z"/>
	<path id="XMLID_113_" class="st1" d="M117.8,161.1l-0.3-1h-0.1c-0.2,0.4-0.5,0.6-0.9,0.8c-0.4,0.2-0.9,0.3-1.4,0.3
		c-0.9,0-1.6-0.2-2-0.7c-0.5-0.5-0.7-1.2-0.7-2v-4.9h2.1v4.4c0,0.5,0.1,1,0.3,1.2c0.2,0.3,0.5,0.4,0.9,0.4c0.6,0,1-0.2,1.2-0.6
		c0.3-0.4,0.4-1,0.4-1.9v-3.6h2.1v7.5H117.8z"/>
	<path id="XMLID_110_" class="st1" d="M125.7,161.2c-0.9,0-1.6-0.3-2.1-1h-0.1c0.1,0.6,0.1,1,0.1,1.1v3.1h-2.1v-10.9h1.7l0.3,1h0.1
		c0.5-0.7,1.2-1.1,2.1-1.1c0.9,0,1.6,0.3,2.1,1c0.5,0.7,0.8,1.6,0.8,2.9c0,0.8-0.1,1.5-0.4,2.1s-0.6,1-1,1.4
		C126.8,161,126.3,161.2,125.7,161.2z M125.1,155c-0.5,0-0.9,0.2-1.1,0.5c-0.2,0.3-0.4,0.8-0.4,1.5v0.2c0,0.8,0.1,1.4,0.4,1.7
		c0.2,0.4,0.6,0.5,1.1,0.5c0.9,0,1.4-0.8,1.4-2.3c0-0.7-0.1-1.3-0.3-1.7C125.9,155.2,125.5,155,125.1,155z"/>
	<path id="XMLID_107_" class="st1" d="M137.1,157.3c0,1.2-0.3,2.2-1,2.9c-0.6,0.7-1.6,1-2.7,1c-0.7,0-1.4-0.2-1.9-0.5
		s-1-0.8-1.3-1.4s-0.4-1.3-0.4-2.1c0-1.2,0.3-2.2,1-2.9c0.6-0.7,1.5-1,2.7-1c0.7,0,1.4,0.2,1.9,0.5c0.6,0.3,1,0.8,1.3,1.4
		C137,155.8,137.1,156.5,137.1,157.3z M131.9,157.3c0,0.7,0.1,1.3,0.4,1.7s0.6,0.6,1.2,0.6c0.5,0,0.9-0.2,1.2-0.6s0.4-0.9,0.4-1.7
		c0-0.7-0.1-1.3-0.4-1.7c-0.2-0.4-0.6-0.6-1.2-0.6c-0.5,0-0.9,0.2-1.2,0.6C132,156,131.9,156.5,131.9,157.3z"/>
	<path id="XMLID_105_" class="st1" d="M145.8,161.1h-2.1v-4.4c0-0.5-0.1-1-0.3-1.2c-0.2-0.3-0.5-0.4-0.9-0.4c-0.6,0-1,0.2-1.2,0.6
		c-0.3,0.4-0.4,1-0.4,1.9v3.6h-2.1v-7.5h1.6l0.3,1h0.1c0.2-0.4,0.5-0.6,0.9-0.8c0.4-0.2,0.9-0.3,1.4-0.3c0.9,0,1.5,0.2,2,0.7
		c0.5,0.5,0.7,1.2,0.7,2.1V161.1z"/>
	<path id="XMLID_103_" class="st1" d="M147.6,160.1c0-0.4,0.1-0.7,0.3-0.9c0.2-0.2,0.5-0.3,0.9-0.3c0.4,0,0.7,0.1,0.9,0.3
		c0.2,0.2,0.3,0.5,0.3,0.9c0,0.4-0.1,0.6-0.3,0.8c-0.2,0.2-0.5,0.3-0.9,0.3c-0.4,0-0.7-0.1-0.9-0.3S147.6,160.5,147.6,160.1z"/>
	<path id="XMLID_101_" class="st1" d="M64.9,177.4h-2.4l-2.6-4.2l-0.9,0.6v3.5H57v-9.9h2.1v4.5l0.8-1.2l2.7-3.4h2.3l-3.4,4.4
		L64.9,177.4z"/>
	<path id="XMLID_99_" class="st1" d="M71.3,177.4l-0.3-1h-0.1c-0.2,0.4-0.5,0.6-0.9,0.8s-0.9,0.3-1.4,0.3c-0.9,0-1.6-0.2-2-0.7
		c-0.5-0.5-0.7-1.2-0.7-2v-4.9H68v4.4c0,0.5,0.1,1,0.3,1.2c0.2,0.3,0.5,0.4,0.9,0.4c0.6,0,1-0.2,1.2-0.6c0.3-0.4,0.4-1,0.4-1.9v-3.6
		h2.1v7.5H71.3z"/>
	<path id="XMLID_97_" class="st1" d="M81.8,177.4h-2.1V173c0-0.5-0.1-1-0.3-1.2c-0.2-0.3-0.5-0.4-0.9-0.4c-0.5,0-0.9,0.2-1.1,0.6
		s-0.4,1-0.4,1.9v3.6h-2.1v-7.5h1.6l0.3,1H77c0.2-0.3,0.5-0.6,0.9-0.8c0.4-0.2,0.8-0.3,1.3-0.3c1.1,0,1.9,0.4,2.3,1.1h0.2
		c0.2-0.4,0.5-0.6,0.9-0.8c0.4-0.2,0.8-0.3,1.3-0.3c0.9,0,1.5,0.2,1.9,0.7c0.4,0.4,0.7,1.1,0.7,2.1v4.9h-2.1V173
		c0-0.5-0.1-1-0.3-1.2c-0.2-0.3-0.5-0.4-0.9-0.4c-0.5,0-0.9,0.2-1.1,0.5c-0.3,0.4-0.4,0.9-0.4,1.7V177.4z"/>
	<path id="XMLID_94_" class="st1" d="M92.8,177.6c-0.9,0-1.6-0.3-2.1-1h-0.1c0.1,0.6,0.1,1,0.1,1.1v3.1h-2.1v-10.9h1.7l0.3,1h0.1
		c0.5-0.7,1.2-1.1,2.1-1.1c0.9,0,1.6,0.3,2.1,1c0.5,0.7,0.8,1.6,0.8,2.9c0,0.8-0.1,1.5-0.4,2.1s-0.6,1-1,1.4
		C93.9,177.4,93.4,177.6,92.8,177.6z M92.2,171.4c-0.5,0-0.9,0.2-1.1,0.5c-0.2,0.3-0.4,0.8-0.4,1.5v0.2c0,0.8,0.1,1.4,0.4,1.7
		c0.2,0.4,0.6,0.5,1.1,0.5c0.9,0,1.4-0.8,1.4-2.3c0-0.7-0.1-1.3-0.3-1.7C93,171.6,92.7,171.4,92.2,171.4z"/>
	<path id="XMLID_92_" class="st1" d="M102.8,177.4l-0.3-1h-0.1c-0.2,0.4-0.5,0.6-0.9,0.8s-0.9,0.3-1.4,0.3c-0.9,0-1.6-0.2-2-0.7
		c-0.5-0.5-0.7-1.2-0.7-2v-4.9h2.1v4.4c0,0.5,0.1,1,0.3,1.2c0.2,0.3,0.5,0.4,0.9,0.4c0.6,0,1-0.2,1.2-0.6c0.3-0.4,0.4-1,0.4-1.9
		v-3.6h2.1v7.5H102.8z"/>
	<path id="XMLID_90_" class="st1" d="M108.6,177.4h-2.1v-10.5h2.1V177.4z"/>
	<path id="XMLID_87_" class="st1" d="M115.5,177.4l-0.4-1h-0.1c-0.3,0.4-0.7,0.7-1.1,0.9c-0.4,0.2-0.8,0.3-1.4,0.3
		c-0.7,0-1.3-0.2-1.7-0.6c-0.4-0.4-0.6-1-0.6-1.8c0-0.8,0.3-1.4,0.8-1.8c0.6-0.4,1.4-0.6,2.5-0.6l1.3,0v-0.3c0-0.8-0.4-1.1-1.2-1.1
		c-0.6,0-1.3,0.2-2.1,0.5l-0.7-1.4c0.9-0.5,1.8-0.7,2.9-0.7c1,0,1.8,0.2,2.3,0.7c0.5,0.4,0.8,1.1,0.8,2v5H115.5z M114.9,173.9
		l-0.8,0c-0.6,0-1,0.1-1.3,0.3c-0.3,0.2-0.4,0.5-0.4,0.9c0,0.6,0.3,0.9,1,0.9c0.5,0,0.9-0.1,1.1-0.4c0.3-0.3,0.4-0.6,0.4-1.1V173.9z
		"/>
	<path id="XMLID_85_" class="st1" d="M126,177.4H124V173c0-0.5-0.1-1-0.3-1.2c-0.2-0.3-0.5-0.4-0.9-0.4c-0.6,0-1,0.2-1.2,0.6
		c-0.3,0.4-0.4,1-0.4,1.9v3.6h-2.1v-7.5h1.6l0.3,1h0.1c0.2-0.4,0.5-0.6,0.9-0.8c0.4-0.2,0.9-0.3,1.4-0.3c0.9,0,1.5,0.2,2,0.7
		c0.5,0.5,0.7,1.2,0.7,2.1V177.4z"/>
	<path id="XMLID_83_" class="st1" d="M139.9,167.5v6.4c0,0.7-0.2,1.4-0.5,1.9c-0.3,0.5-0.8,1-1.4,1.3c-0.6,0.3-1.3,0.4-2.2,0.4
		c-1.3,0-2.3-0.3-3-1c-0.7-0.7-1.1-1.5-1.1-2.7v-6.4h2.1v6c0,0.8,0.2,1.3,0.5,1.7c0.3,0.4,0.8,0.5,1.5,0.5c0.7,0,1.2-0.2,1.5-0.5
		c0.3-0.4,0.5-0.9,0.5-1.7v-6H139.9z"/>
	<path id="XMLID_81_" class="st1" d="M147.5,175.2c0,0.8-0.3,1.4-0.8,1.8c-0.5,0.4-1.3,0.6-2.4,0.6c-0.5,0-1,0-1.4-0.1
		c-0.4-0.1-0.7-0.2-1.1-0.3v-1.7c0.4,0.2,0.8,0.3,1.3,0.5s0.9,0.2,1.3,0.2c0.7,0,1.1-0.2,1.1-0.6c0-0.2,0-0.3-0.1-0.4
		c-0.1-0.1-0.3-0.2-0.5-0.3c-0.2-0.1-0.6-0.3-1-0.4c-0.6-0.2-1-0.5-1.3-0.7s-0.5-0.4-0.6-0.7c-0.1-0.3-0.2-0.6-0.2-1
		c0-0.7,0.3-1.2,0.8-1.6c0.5-0.4,1.3-0.6,2.2-0.6c0.9,0,1.8,0.2,2.7,0.6l-0.6,1.5c-0.4-0.2-0.7-0.3-1.1-0.4s-0.7-0.2-1-0.2
		c-0.6,0-0.9,0.2-0.9,0.5c0,0.2,0.1,0.3,0.3,0.5c0.2,0.1,0.6,0.3,1.3,0.6c0.6,0.2,1,0.5,1.3,0.7c0.3,0.2,0.5,0.4,0.6,0.7
		C147.4,174.5,147.5,174.8,147.5,175.2z"/>
	<path id="XMLID_78_" class="st1" d="M149,167.9c0-0.7,0.4-1,1.1-1s1.1,0.3,1.1,1c0,0.3-0.1,0.6-0.3,0.7c-0.2,0.2-0.5,0.3-0.8,0.3
		C149.4,168.9,149,168.6,149,167.9z M151.1,177.4h-2.1v-7.5h2.1V177.4z"/>
	<path id="XMLID_75_" class="st1" d="M158.1,177.4l-0.4-1h-0.1c-0.3,0.4-0.7,0.7-1.1,0.9c-0.4,0.2-0.8,0.3-1.4,0.3
		c-0.7,0-1.3-0.2-1.7-0.6c-0.4-0.4-0.6-1-0.6-1.8c0-0.8,0.3-1.4,0.8-1.8s1.4-0.6,2.5-0.6l1.3,0v-0.3c0-0.8-0.4-1.1-1.2-1.1
		c-0.6,0-1.3,0.2-2.1,0.5l-0.7-1.4c0.9-0.5,1.8-0.7,2.9-0.7c1,0,1.8,0.2,2.3,0.7c0.5,0.4,0.8,1.1,0.8,2v5H158.1z M157.5,173.9
		l-0.8,0c-0.6,0-1,0.1-1.3,0.3c-0.3,0.2-0.4,0.5-0.4,0.9c0,0.6,0.3,0.9,1,0.9c0.5,0,0.9-0.1,1.1-0.4c0.3-0.3,0.4-0.6,0.4-1.1V173.9z
		"/>
	<path id="XMLID_72_" class="st1" d="M63.8,187c0,1.1-0.3,1.9-1,2.4c-0.7,0.6-1.6,0.8-2.8,0.8h-0.9v3.5H57v-9.9h3.2
		c1.2,0,2.1,0.3,2.7,0.8C63.5,185.2,63.8,186,63.8,187z M59.1,188.5h0.7c0.6,0,1.1-0.1,1.4-0.4s0.5-0.6,0.5-1.1
		c0-0.5-0.1-0.9-0.4-1.1c-0.3-0.2-0.7-0.4-1.3-0.4h-1V188.5z"/>
	<path id="XMLID_69_" class="st1" d="M68.9,193.9c-1.2,0-2.2-0.3-2.8-1s-1-1.6-1-2.8c0-1.3,0.3-2.2,0.9-2.9c0.6-0.7,1.5-1,2.6-1
		c1.1,0,1.9,0.3,2.5,0.9c0.6,0.6,0.9,1.4,0.9,2.5v1h-4.9c0,0.6,0.2,1,0.5,1.4c0.3,0.3,0.8,0.5,1.4,0.5c0.5,0,0.9,0,1.3-0.1
		c0.4-0.1,0.8-0.2,1.3-0.5v1.6c-0.4,0.2-0.7,0.3-1.2,0.4S69.5,193.9,68.9,193.9z M68.6,187.5c-0.4,0-0.8,0.1-1,0.4
		c-0.2,0.3-0.4,0.7-0.4,1.2H70c0-0.5-0.1-0.9-0.4-1.2S69,187.5,68.6,187.5z"/>
	<path id="XMLID_67_" class="st1" d="M80.6,193.8h-2.1v-4.4c0-0.5-0.1-1-0.3-1.2c-0.2-0.3-0.5-0.4-0.9-0.4c-0.6,0-1,0.2-1.2,0.6
		c-0.3,0.4-0.4,1-0.4,1.9v3.6h-2.1v-7.5h1.6l0.3,1h0.1c0.2-0.4,0.5-0.6,0.9-0.8c0.4-0.2,0.9-0.3,1.4-0.3c0.9,0,1.5,0.2,2,0.7
		c0.5,0.5,0.7,1.2,0.7,2.1V193.8z"/>
	<path id="XMLID_64_" class="st1" d="M89.3,193.8c0,1.1-0.3,1.9-0.9,2.5c-0.6,0.6-1.6,0.8-2.8,0.8c-1.1,0-2-0.1-2.8-0.4V195
		c0.9,0.4,1.9,0.6,2.9,0.6c1.1,0,1.6-0.6,1.6-1.7v-0.1l0.1-0.9h-0.1c-0.5,0.7-1.2,1.1-2.1,1.1c-0.9,0-1.6-0.3-2.1-1
		c-0.5-0.7-0.7-1.6-0.7-2.8c0-1.2,0.3-2.2,0.8-2.9c0.5-0.7,1.2-1,2.1-1c0.9,0,1.7,0.4,2.2,1.1h0.1l0.2-1h1.7V193.8z M85.9,192.3
		c0.6,0,0.9-0.2,1.2-0.5s0.4-0.8,0.4-1.5V190c0-0.8-0.1-1.4-0.4-1.7c-0.3-0.4-0.7-0.5-1.2-0.5c-1,0-1.5,0.8-1.5,2.3
		c0,0.8,0.1,1.3,0.4,1.7C85,192.1,85.4,192.3,85.9,192.3z"/>
	<path id="XMLID_61_" class="st1" d="M98.1,193.8c0,1.1-0.3,1.9-0.9,2.5c-0.6,0.6-1.6,0.8-2.8,0.8c-1.1,0-2-0.1-2.8-0.4V195
		c0.9,0.4,1.9,0.6,2.9,0.6c1.1,0,1.6-0.6,1.6-1.7v-0.1l0.1-0.9H96c-0.5,0.7-1.2,1.1-2.1,1.1c-0.9,0-1.6-0.3-2.1-1
		c-0.5-0.7-0.7-1.6-0.7-2.8c0-1.2,0.3-2.2,0.8-2.9c0.5-0.7,1.2-1,2.1-1c0.9,0,1.7,0.4,2.2,1.1h0.1l0.2-1h1.7V193.8z M94.6,192.3
		c0.6,0,0.9-0.2,1.2-0.5s0.4-0.8,0.4-1.5V190c0-0.8-0.1-1.4-0.4-1.7s-0.7-0.5-1.2-0.5c-1,0-1.5,0.8-1.5,2.3c0,0.8,0.1,1.3,0.4,1.7
		C93.7,192.1,94.1,192.3,94.6,192.3z"/>
	<path id="XMLID_59_" class="st1" d="M105.6,193.8l-0.3-1h-0.1c-0.2,0.4-0.5,0.6-0.9,0.8c-0.4,0.2-0.9,0.3-1.4,0.3
		c-0.9,0-1.6-0.2-2-0.7c-0.5-0.5-0.7-1.2-0.7-2v-4.9h2.1v4.4c0,0.5,0.1,1,0.3,1.2c0.2,0.3,0.5,0.4,0.9,0.4c0.6,0,1-0.2,1.2-0.6
		c0.3-0.4,0.4-1,0.4-1.9v-3.6h2.1v7.5H105.6z"/>
	<path id="XMLID_57_" class="st1" d="M116.3,193.8h-2.1v-4.4c0-0.5-0.1-1-0.3-1.2c-0.2-0.3-0.5-0.4-0.9-0.4c-0.6,0-1,0.2-1.2,0.6
		c-0.3,0.4-0.4,1-0.4,1.9v3.6h-2.1v-7.5h1.6l0.3,1h0.1c0.2-0.4,0.5-0.6,0.9-0.8c0.4-0.2,0.9-0.3,1.4-0.3c0.9,0,1.5,0.2,2,0.7
		c0.5,0.5,0.7,1.2,0.7,2.1V193.8z"/>
	<path id="XMLID_54_" class="st1" d="M123.2,193.8l-0.4-1h-0.1c-0.3,0.4-0.7,0.7-1.1,0.9s-0.8,0.3-1.4,0.3c-0.7,0-1.3-0.2-1.7-0.6
		c-0.4-0.4-0.6-1-0.6-1.8c0-0.8,0.3-1.4,0.8-1.8c0.6-0.4,1.4-0.6,2.5-0.6l1.3,0v-0.3c0-0.8-0.4-1.1-1.2-1.1c-0.6,0-1.3,0.2-2.1,0.5
		l-0.7-1.4c0.9-0.5,1.8-0.7,2.9-0.7c1,0,1.8,0.2,2.3,0.7c0.5,0.4,0.8,1.1,0.8,2v5H123.2z M122.6,190.3l-0.8,0c-0.6,0-1,0.1-1.3,0.3
		c-0.3,0.2-0.4,0.5-0.4,0.9c0,0.6,0.3,0.9,1,0.9c0.5,0,0.9-0.1,1.1-0.4c0.3-0.3,0.4-0.6,0.4-1.1V190.3z"/>
	<path id="XMLID_52_" class="st1" d="M138.5,193.8h-2.4l-2.6-4.2l-0.9,0.6v3.5h-2.1v-9.9h2.1v4.5l0.8-1.2l2.7-3.4h2.3l-3.4,4.4
		L138.5,193.8z"/>
	<path id="XMLID_50_" class="st1" d="M144.9,193.8l-0.3-1h-0.1c-0.2,0.4-0.5,0.6-0.9,0.8s-0.9,0.3-1.4,0.3c-0.9,0-1.6-0.2-2-0.7
		c-0.5-0.5-0.7-1.2-0.7-2v-4.9h2.1v4.4c0,0.5,0.1,1,0.3,1.2c0.2,0.3,0.5,0.4,0.9,0.4c0.6,0,1-0.2,1.2-0.6c0.3-0.4,0.4-1,0.4-1.9
		v-3.6h2.1v7.5H144.9z"/>
	<path id="XMLID_47_" class="st1" d="M152.8,193.9c-0.9,0-1.6-0.3-2.1-1h-0.1c0.1,0.6,0.1,1,0.1,1.1v3.1h-2.1v-10.9h1.7l0.3,1h0.1
		c0.5-0.7,1.2-1.1,2.1-1.1c0.9,0,1.6,0.3,2.1,1c0.5,0.7,0.8,1.6,0.8,2.9c0,0.8-0.1,1.5-0.4,2.1s-0.6,1-1,1.4
		C153.9,193.8,153.4,193.9,152.8,193.9z M152.2,187.7c-0.5,0-0.9,0.2-1.1,0.5c-0.2,0.3-0.4,0.8-0.4,1.5v0.2c0,0.8,0.1,1.4,0.4,1.7
		s0.6,0.5,1.1,0.5c0.9,0,1.4-0.8,1.4-2.3c0-0.7-0.1-1.3-0.3-1.7C153,187.9,152.7,187.7,152.2,187.7z"/>
	<path id="XMLID_44_" class="st1" d="M164.3,190c0,1.2-0.3,2.2-1,2.9s-1.6,1-2.7,1c-0.7,0-1.4-0.2-1.9-0.5s-1-0.8-1.3-1.4
		c-0.3-0.6-0.4-1.3-0.4-2.1c0-1.2,0.3-2.2,1-2.9c0.6-0.7,1.5-1,2.7-1c0.7,0,1.4,0.2,1.9,0.5c0.6,0.3,1,0.8,1.3,1.4
		C164.1,188.5,164.3,189.2,164.3,190z M159,190c0,0.7,0.1,1.3,0.4,1.7s0.6,0.6,1.2,0.6c0.5,0,0.9-0.2,1.2-0.6
		c0.2-0.4,0.4-0.9,0.4-1.7c0-0.7-0.1-1.3-0.4-1.7c-0.2-0.4-0.6-0.6-1.2-0.6c-0.5,0-0.9,0.2-1.2,0.6C159.2,188.7,159,189.2,159,190z"
		/>
	<path id="XMLID_42_" class="st1" d="M172.9,193.8h-2.1v-4.4c0-0.5-0.1-1-0.3-1.2c-0.2-0.3-0.5-0.4-0.9-0.4c-0.6,0-1,0.2-1.2,0.6
		c-0.3,0.4-0.4,1-0.4,1.9v3.6H166v-7.5h1.6l0.3,1h0.1c0.2-0.4,0.5-0.6,0.9-0.8c0.4-0.2,0.9-0.3,1.4-0.3c0.9,0,1.5,0.2,2,0.7
		c0.5,0.5,0.7,1.2,0.7,2.1V193.8z"/>
	<path id="XMLID_39_" class="st1" d="M59.2,210.3c-0.9,0-1.6-0.3-2.1-1c-0.5-0.7-0.8-1.6-0.8-2.9c0-1.2,0.3-2.2,0.8-2.9
		c0.5-0.7,1.2-1,2.1-1c0.9,0,1.7,0.4,2.2,1.1h0.1c-0.1-0.6-0.2-1.1-0.2-1.5v-2.4h2.1v10.5h-1.6l-0.4-1h-0.1
		C60.9,209.9,60.1,210.3,59.2,210.3z M59.9,208.6c0.5,0,0.9-0.2,1.2-0.5s0.4-0.8,0.4-1.6v-0.2c0-0.8-0.1-1.4-0.4-1.7
		s-0.7-0.5-1.2-0.5c-0.5,0-0.8,0.2-1.1,0.6c-0.3,0.4-0.4,1-0.4,1.7c0,0.7,0.1,1.3,0.4,1.7C59.1,208.4,59.4,208.6,59.9,208.6z"/>
	<path id="XMLID_36_" class="st1" d="M65.5,200.6c0-0.7,0.4-1,1.1-1s1.1,0.3,1.1,1c0,0.3-0.1,0.6-0.3,0.7c-0.2,0.2-0.5,0.3-0.8,0.3
		C65.8,201.6,65.5,201.3,65.5,200.6z M67.6,210.1h-2.1v-7.5h2.1V210.1z"/>
	<path id="XMLID_33_" class="st1" d="M73.3,200.6c0-0.7,0.4-1,1.1-1s1.1,0.3,1.1,1c0,0.3-0.1,0.6-0.3,0.7c-0.2,0.2-0.5,0.3-0.8,0.3
		C73.7,201.6,73.3,201.3,73.3,200.6z M75.4,210.1h-2.1v-7.5h2.1V210.1z"/>
	<path id="XMLID_30_" class="st1" d="M81.7,210.3c-0.9,0-1.6-0.3-2.1-1h-0.1c0.1,0.6,0.1,1,0.1,1.1v3.1h-2.1v-10.9h1.7l0.3,1h0.1
		c0.5-0.7,1.2-1.1,2.1-1.1c0.9,0,1.6,0.3,2.1,1c0.5,0.7,0.8,1.6,0.8,2.9c0,0.8-0.1,1.5-0.4,2.1s-0.6,1-1,1.4
		C82.8,210.1,82.3,210.3,81.7,210.3z M81.1,204.1c-0.5,0-0.9,0.2-1.1,0.5s-0.4,0.8-0.4,1.5v0.2c0,0.8,0.1,1.4,0.4,1.7
		s0.6,0.5,1.1,0.5c0.9,0,1.4-0.8,1.4-2.3c0-0.7-0.1-1.3-0.3-1.7C82,204.3,81.6,204.1,81.1,204.1z"/>
	<path id="XMLID_28_" class="st1" d="M90.5,202.4c0.3,0,0.5,0,0.7,0.1l-0.2,1.9c-0.2,0-0.4-0.1-0.6-0.1c-0.7,0-1.2,0.2-1.5,0.5
		c-0.4,0.3-0.6,0.8-0.6,1.4v3.8h-2.1v-7.5h1.6l0.3,1.3h0.1c0.2-0.4,0.6-0.8,0.9-1C89.6,202.6,90.1,202.4,90.5,202.4z"/>
	<path id="XMLID_25_" class="st1" d="M92.5,200.6c0-0.7,0.4-1,1.1-1s1.1,0.3,1.1,1c0,0.3-0.1,0.6-0.3,0.7c-0.2,0.2-0.5,0.3-0.8,0.3
		C92.9,201.6,92.5,201.3,92.5,200.6z M94.7,210.1h-2.1v-7.5h2.1V210.1z"/>
	<path id="XMLID_23_" class="st1" d="M99.9,210.3c-2.3,0-3.5-1.3-3.5-3.9c0-1.3,0.3-2.3,1-2.9c0.6-0.7,1.6-1,2.7-1
		c0.9,0,1.7,0.2,2.4,0.5l-0.6,1.6c-0.3-0.1-0.6-0.2-0.9-0.3c-0.3-0.1-0.6-0.1-0.8-0.1c-1.1,0-1.6,0.8-1.6,2.3c0,1.5,0.5,2.2,1.6,2.2
		c0.4,0,0.8-0.1,1.1-0.2s0.7-0.3,1-0.5v1.8c-0.3,0.2-0.7,0.4-1,0.4C100.8,210.2,100.4,210.3,99.9,210.3z"/>
	<path id="XMLID_20_" class="st1" d="M107.4,210.3c-1.2,0-2.2-0.3-2.8-1s-1-1.6-1-2.8c0-1.3,0.3-2.2,0.9-2.9c0.6-0.7,1.5-1,2.6-1
		c1.1,0,1.9,0.3,2.5,0.9c0.6,0.6,0.9,1.4,0.9,2.5v1h-4.9c0,0.6,0.2,1,0.5,1.4c0.3,0.3,0.8,0.5,1.4,0.5c0.5,0,0.9,0,1.3-0.1
		c0.4-0.1,0.8-0.2,1.3-0.5v1.6c-0.4,0.2-0.7,0.3-1.2,0.4S108,210.3,107.4,210.3z M107.1,203.9c-0.4,0-0.8,0.1-1,0.4
		c-0.2,0.3-0.4,0.7-0.4,1.2h2.9c0-0.5-0.1-0.9-0.4-1.2S107.5,203.9,107.1,203.9z"/>
	<path id="XMLID_18_" class="st1" d="M111.8,209.2c0-0.4,0.1-0.7,0.3-0.9c0.2-0.2,0.5-0.3,0.9-0.3c0.4,0,0.7,0.1,0.9,0.3
		s0.3,0.5,0.3,0.9c0,0.4-0.1,0.6-0.3,0.8c-0.2,0.2-0.5,0.3-0.9,0.3c-0.4,0-0.7-0.1-0.9-0.3S111.8,209.5,111.8,209.2z"/>
</g>
</svg>