<!-- Generator: Adobe Illustrator 19.0.0, SVG Export Plug-In  -->
<svg version="1.1"
	 xmlns="http://www.w3.org/2000/svg" xmlns:xlink="http://www.w3.org/1999/xlink" xmlns:a="http://ns.adobe.com/AdobeSVGViewerExtensions/3.0/"
	 x="0px" y="0px" width="261px" height="73.5px" viewBox="0 0 261 73.5" style="enable-background:new 0 0 261 73.5;"
	 xml:space="preserve">
<style type="text/css">
	.st0{fill:none;stroke:#33CCCC;stroke-width:2;stroke-linecap:round;stroke-linejoin:round;stroke-miterlimit:10;}
	.st1{fill:none;stroke:#FFFFFF;stroke-width:2;stroke-linecap:round;stroke-linejoin:round;stroke-miterlimit:10;}
	.st2{fill:none;stroke:#FF6633;stroke-width:2;stroke-miterlimit:10;}
	.st3{fill:#FF6633;}
	.st4{fill:#FFFFFF;}
</style>
<defs>
</defs>
<polygon id="XMLID_91_" class="st0" points="247,72.5 247,61.5 258.9,61.5 "/>
<rect id="XMLID_90_" x="211" y="14.5" class="st1" width="49" height="14"/>
<path id="XMLID_89_" class="st1" d="M226,15.6c0,1.1-0.9,1.9-1.9,1.9h-0.2c-1.1,0-1.9-0.9-1.9-1.9v-5.2c0-1.1,0.9-1.9,1.9-1.9h0.2
	c1.1,0,1.9,0.9,1.9,1.9V15.6z"/>
<path id="XMLID_88_" class="st1" d="M249,15.6c0,1.1-0.9,1.9-1.9,1.9h-0.2c-1.1,0-1.9-0.9-1.9-1.9v-5.2c0-1.1,0.9-1.9,1.9-1.9h0.2
	c1.1,0,1.9,0.9,1.9,1.9V15.6z"/>
<rect id="XMLID_87_" x="211" y="28.5" class="st2" width="49" height="44"/>
<circle id="XMLID_86_" class="st3" cx="8.4" cy="8.4" r="8.4"/>
<g id="XMLID_83_">
	<path id="XMLID_84_" class="st4" d="M9,12.5H7V7.6l0.2-0.8l0.1-0.9C7,6.2,6.9,6.4,6.8,6.5l-1,0.8L4.9,6l2.8-2.4H9V12.5z"/>
</g>
<g id="XMLID_15_">
	<path id="XMLID_80_" class="st4" d="M35.9,7.8c0,1.9-0.5,3.3-1.6,4.3s-2.6,1.5-4.6,1.5h-3.2V2.2H30c1.9,0,3.3,0.5,4.3,1.5
		S35.9,6,35.9,7.8z M33.4,7.8c0-2.5-1.1-3.7-3.3-3.7h-1.3v7.4h1C32.2,11.6,33.4,10.3,33.4,7.8z"/>
	<path id="XMLID_77_" class="st4" d="M38,2.6c0-0.8,0.4-1.2,1.3-1.2c0.9,0,1.3,0.4,1.3,1.2c0,0.4-0.1,0.7-0.3,0.9
		c-0.2,0.2-0.5,0.3-1,0.3C38.4,3.8,38,3.4,38,2.6z M40.5,13.6h-2.4V4.9h2.4V13.6z"/>
	<path id="XMLID_74_" class="st4" d="M52.7,13.6l-0.5-1.2h-0.1c-0.4,0.5-0.8,0.9-1.2,1.1c-0.4,0.2-1,0.3-1.7,0.3
		c-0.8,0-1.5-0.2-2-0.7c-0.5-0.5-0.7-1.2-0.7-2c0-0.9,0.3-1.6,1-2.1c0.6-0.4,1.6-0.7,2.9-0.7l1.5,0V7.8c0-0.9-0.5-1.3-1.4-1.3
		c-0.7,0-1.5,0.2-2.5,0.6l-0.8-1.6c1-0.5,2.1-0.8,3.3-0.8c1.2,0,2.1,0.3,2.7,0.8C54,6,54.3,6.7,54.3,7.8v5.8H52.7z M52,9.5l-0.9,0
		c-0.7,0-1.2,0.1-1.5,0.4c-0.3,0.2-0.5,0.6-0.5,1c0,0.7,0.4,1,1.2,1c0.6,0,1-0.2,1.3-0.5c0.3-0.3,0.5-0.7,0.5-1.3V9.5z"/>
	<path id="XMLID_72_" class="st4" d="M64,13.6l-0.7-3.1l-0.9-3.9h-0.1l-1.6,6.9h-2.6l-2.5-8.7h2.4l1,3.9c0.1,0.5,0.3,1.4,0.5,2.9
		h0.1c0-0.4,0.1-1,0.3-1.9L60,9l1.1-4.2h2.6l1,4.2c0.1,0.3,0.1,0.7,0.2,1.3c0.1,0.6,0.1,1,0.2,1.3h0.1c0.1-0.5,0.1-1,0.2-1.6
		c0.1-0.6,0.2-1,0.3-1.3l1-3.9h2.3l-2.5,8.7H64z"/>
	<path id="XMLID_69_" class="st4" d="M76,13.6l-0.5-1.2h-0.1c-0.4,0.5-0.8,0.9-1.2,1.1c-0.4,0.2-1,0.3-1.7,0.3c-0.8,0-1.5-0.2-2-0.7
		c-0.5-0.5-0.7-1.2-0.7-2c0-0.9,0.3-1.6,1-2.1c0.6-0.4,1.6-0.7,2.9-0.7l1.5,0V7.8c0-0.9-0.5-1.3-1.4-1.3c-0.7,0-1.5,0.2-2.5,0.6
		l-0.8-1.6c1-0.5,2.1-0.8,3.3-0.8c1.2,0,2.1,0.3,2.7,0.8c0.6,0.5,0.9,1.3,0.9,2.3v5.8H76z M75.3,9.5l-0.9,0c-0.7,0-1.2,0.1-1.5,0.4
		c-0.3,0.2-0.5,0.6-0.5,1c0,0.7,0.4,1,1.2,1c0.6,0,1-0.2,1.3-0.5c0.3-0.3,0.5-0.7,0.5-1.3V9.5z"/>
	<path id="XMLID_67_" class="st4" d="M82.5,13.6h-2.4V1.4h2.4V13.6z"/>
	<path id="XMLID_65_" class="st4" d="M87.4,11.9c-0.3,1.1-0.7,2.3-1.4,3.7h-1.7c0.3-1.4,0.6-2.7,0.8-3.9h2.2L87.4,11.9z"/>
	<path id="XMLID_63_" class="st4" d="M97.4,11.8c0.4,0,0.9-0.1,1.5-0.3v1.8c-0.6,0.3-1.3,0.4-2.2,0.4c-1,0-1.6-0.2-2.1-0.7
		c-0.4-0.5-0.7-1.2-0.7-2.2V6.6h-1.1v-1l1.3-0.8L94.9,3h1.5v1.9h2.4v1.8h-2.4v4.2c0,0.3,0.1,0.6,0.3,0.8
		C96.9,11.8,97.1,11.8,97.4,11.8z"/>
	<path id="XMLID_60_" class="st4" d="M104.6,13.7c-1.4,0-2.5-0.4-3.3-1.2c-0.8-0.8-1.2-1.9-1.2-3.3c0-1.5,0.4-2.6,1.1-3.4
		c0.7-0.8,1.7-1.2,3-1.2c1.2,0,2.2,0.4,2.9,1.1s1,1.7,1,2.9v1.2h-5.6c0,0.7,0.2,1.2,0.6,1.6c0.4,0.4,0.9,0.6,1.6,0.6
		c0.5,0,1-0.1,1.5-0.2s1-0.3,1.5-0.5v1.8c-0.4,0.2-0.9,0.4-1.3,0.5C105.9,13.7,105.3,13.7,104.6,13.7z M104.3,6.4
		c-0.5,0-0.9,0.2-1.2,0.5c-0.3,0.3-0.5,0.8-0.5,1.4h3.3c0-0.6-0.2-1-0.5-1.4S104.8,6.4,104.3,6.4z"/>
	<path id="XMLID_58_" class="st4" d="M118.2,13.6h-2.4V8.5c0-0.6-0.1-1.1-0.3-1.4c-0.2-0.3-0.6-0.5-1.1-0.5c-0.7,0-1.1,0.2-1.4,0.7
		s-0.4,1.2-0.4,2.2v4.1h-2.4V4.9h1.8l0.3,1.1h0.1c0.3-0.4,0.6-0.7,1.1-1c0.5-0.2,1-0.3,1.6-0.3c1,0,1.8,0.3,2.3,0.8
		c0.5,0.5,0.8,1.3,0.8,2.4V13.6z"/>
	<path id="XMLID_55_" class="st4" d="M128.3,13.6c0,1.3-0.4,2.2-1.1,2.9c-0.7,0.6-1.8,1-3.3,1c-1.3,0-2.4-0.2-3.3-0.5V15
		c1.1,0.4,2.2,0.7,3.4,0.7c1.2,0,1.8-0.7,1.8-2v-0.2l0.1-1.1h-0.1c-0.6,0.9-1.4,1.3-2.5,1.3c-1,0-1.9-0.4-2.4-1.2
		c-0.6-0.8-0.9-1.9-0.9-3.3c0-1.4,0.3-2.5,0.9-3.3c0.6-0.8,1.4-1.2,2.5-1.2c1.1,0,1.9,0.4,2.5,1.3h0.1l0.2-1.1h2V13.6z M124.3,11.9
		c0.6,0,1.1-0.2,1.4-0.6c0.3-0.4,0.4-1,0.4-1.8V9.3c0-0.9-0.1-1.6-0.4-2c-0.3-0.4-0.8-0.6-1.4-0.6c-1.1,0-1.7,0.9-1.7,2.6
		c0,0.9,0.1,1.5,0.4,2C123.2,11.7,123.7,11.9,124.3,11.9z"/>
	<path id="XMLID_52_" class="st4" d="M136.3,13.6l-0.5-1.2h-0.1c-0.4,0.5-0.8,0.9-1.2,1.1c-0.4,0.2-1,0.3-1.7,0.3
		c-0.8,0-1.5-0.2-2-0.7c-0.5-0.5-0.7-1.2-0.7-2c0-0.9,0.3-1.6,1-2.1c0.6-0.4,1.6-0.7,2.9-0.7l1.5,0V7.8c0-0.9-0.5-1.3-1.4-1.3
		c-0.7,0-1.5,0.2-2.5,0.6L131,5.5c1-0.5,2.1-0.8,3.3-0.8c1.2,0,2.1,0.3,2.7,0.8c0.6,0.5,0.9,1.3,0.9,2.3v5.8H136.3z M135.6,9.5
		l-0.9,0c-0.7,0-1.2,0.1-1.5,0.4c-0.3,0.2-0.5,0.6-0.5,1c0,0.7,0.4,1,1.2,1c0.6,0,1-0.2,1.3-0.5c0.3-0.3,0.5-0.7,0.5-1.3V9.5z"/>
	<path id="XMLID_50_" class="st4" d="M148.5,13.6h-2.4V8.5c0-1.3-0.5-1.9-1.4-1.9c-0.7,0-1.1,0.2-1.4,0.7s-0.4,1.2-0.4,2.2v4.1h-2.4
		V1.4h2.4v2.5c0,0.2,0,0.6-0.1,1.4L142.7,6h0.1c0.5-0.9,1.4-1.3,2.5-1.3c1,0,1.8,0.3,2.3,0.8c0.5,0.6,0.8,1.3,0.8,2.4V13.6z"/>
	<path id="XMLID_47_" class="st4" d="M157.9,13.7c-1,0-1.8-0.4-2.4-1.2s-0.9-1.9-0.9-3.3c0-1.4,0.3-2.5,0.9-3.3
		c0.6-0.8,1.4-1.2,2.5-1.2c1.1,0,1.9,0.4,2.5,1.3h0.1c-0.1-0.7-0.2-1.2-0.2-1.7V1.4h2.4v12.2h-1.8l-0.5-1.1h-0.1
		C159.8,13.3,159,13.7,157.9,13.7z M158.7,11.8c0.6,0,1.1-0.2,1.3-0.5c0.3-0.4,0.4-1,0.5-1.8V9.3c0-0.9-0.1-1.6-0.4-2
		s-0.8-0.6-1.4-0.6c-0.5,0-0.9,0.2-1.2,0.7c-0.3,0.5-0.4,1.1-0.4,2s0.1,1.5,0.4,1.9S158.2,11.8,158.7,11.8z"/>
	<path id="XMLID_44_" class="st4" d="M170.8,13.6l-0.5-1.2h-0.1c-0.4,0.5-0.8,0.9-1.2,1.1c-0.4,0.2-1,0.3-1.7,0.3
		c-0.8,0-1.5-0.2-2-0.7c-0.5-0.5-0.7-1.2-0.7-2c0-0.9,0.3-1.6,1-2.1c0.6-0.4,1.6-0.7,2.9-0.7l1.5,0V7.8c0-0.9-0.5-1.3-1.4-1.3
		c-0.7,0-1.5,0.2-2.5,0.6l-0.8-1.6c1-0.5,2.1-0.8,3.3-0.8c1.2,0,2.1,0.3,2.7,0.8c0.6,0.5,0.9,1.3,0.9,2.3v5.8H170.8z M170.1,9.5
		l-0.9,0c-0.7,0-1.2,0.1-1.5,0.4c-0.3,0.2-0.5,0.6-0.5,1c0,0.7,0.4,1,1.2,1c0.6,0,1-0.2,1.3-0.5c0.3-0.3,0.5-0.7,0.5-1.3V9.5z"/>
	<path id="XMLID_42_" class="st4" d="M183,13.6h-2.4V8.5c0-0.6-0.1-1.1-0.3-1.4c-0.2-0.3-0.6-0.5-1.1-0.5c-0.7,0-1.1,0.2-1.4,0.7
		s-0.4,1.2-0.4,2.2v4.1h-2.4V4.9h1.8L177,6h0.1c0.3-0.4,0.6-0.7,1.1-1c0.5-0.2,1-0.3,1.6-0.3c1,0,1.8,0.3,2.3,0.8
		c0.5,0.5,0.8,1.3,0.8,2.4V13.6z"/>
	<path id="XMLID_39_" class="st4" d="M31.8,30.5l-0.5-1.2h-0.1c-0.4,0.5-0.8,0.9-1.2,1.1c-0.4,0.2-1,0.3-1.7,0.3
		c-0.8,0-1.5-0.2-2-0.7c-0.5-0.5-0.7-1.2-0.7-2c0-0.9,0.3-1.6,1-2.1c0.6-0.4,1.6-0.7,2.9-0.7l1.5,0v-0.4c0-0.9-0.5-1.3-1.4-1.3
		c-0.7,0-1.5,0.2-2.5,0.6l-0.8-1.6c1-0.5,2.1-0.8,3.3-0.8c1.2,0,2.1,0.3,2.7,0.8c0.6,0.5,0.9,1.3,0.9,2.3v5.8H31.8z M31.1,26.4
		l-0.9,0c-0.7,0-1.2,0.1-1.5,0.4c-0.3,0.2-0.5,0.6-0.5,1c0,0.7,0.4,1,1.2,1c0.6,0,1-0.2,1.3-0.5c0.3-0.3,0.5-0.7,0.5-1.3V26.4z"/>
	<path id="XMLID_37_" class="st4" d="M38.2,25.7l1-1.3l2.4-2.7h2.7l-3.5,3.8l3.7,4.9h-2.8l-2.5-3.5l-1,0.8v2.7h-2.4V18.3h2.4v5.4
		L38.2,25.7L38.2,25.7z"/>
	<path id="XMLID_35_" class="st4" d="M53.9,30.5h-2.4v-5.1c0-1.3-0.5-1.9-1.4-1.9c-0.7,0-1.1,0.2-1.4,0.7s-0.4,1.2-0.4,2.2v4.1h-2.4
		V18.3h2.4v2.5c0,0.2,0,0.6-0.1,1.4l-0.1,0.7h0.1c0.5-0.9,1.4-1.3,2.5-1.3c1,0,1.8,0.3,2.3,0.8c0.5,0.6,0.8,1.3,0.8,2.4V30.5z"/>
	<path id="XMLID_32_" class="st4" d="M56.2,19.5c0-0.8,0.4-1.2,1.3-1.2c0.9,0,1.3,0.4,1.3,1.2c0,0.4-0.1,0.7-0.3,0.9
		c-0.2,0.2-0.5,0.3-1,0.3C56.7,20.7,56.2,20.3,56.2,19.5z M58.7,30.5h-2.4v-8.7h2.4V30.5z"/>
	<path id="XMLID_30_" class="st4" d="M66.1,21.6c0.3,0,0.6,0,0.8,0.1l-0.2,2.2c-0.2-0.1-0.4-0.1-0.7-0.1c-0.8,0-1.4,0.2-1.8,0.6
		c-0.4,0.4-0.6,0.9-0.6,1.6v4.4h-2.4v-8.7H63l0.4,1.5h0.1c0.3-0.5,0.6-0.9,1.1-1.2C65,21.7,65.5,21.6,66.1,21.6z"/>
	<path id="XMLID_27_" class="st4" d="M77.5,21.6c1,0,1.8,0.4,2.4,1.2c0.6,0.8,0.9,1.9,0.9,3.3c0,1.4-0.3,2.6-0.9,3.4
		c-0.6,0.8-1.4,1.2-2.5,1.2c-1,0-1.8-0.4-2.4-1.1h-0.2l-0.4,1h-1.8V18.3H75v2.8c0,0.4,0,0.9-0.1,1.7H75C75.6,22,76.4,21.6,77.5,21.6
		z M76.7,23.5c-0.6,0-1,0.2-1.3,0.5c-0.3,0.4-0.4,1-0.4,1.8v0.3c0,0.9,0.1,1.6,0.4,2c0.3,0.4,0.7,0.6,1.3,0.6c0.5,0,0.9-0.2,1.2-0.7
		c0.3-0.5,0.4-1.1,0.4-2s-0.1-1.5-0.4-1.9C77.6,23.7,77.2,23.5,76.7,23.5z"/>
	<path id="XMLID_25_" class="st4" d="M88.9,30.5l-0.3-1.1h-0.1c-0.3,0.4-0.6,0.7-1.1,0.9s-1,0.3-1.6,0.3c-1,0-1.8-0.3-2.3-0.8
		c-0.5-0.5-0.8-1.3-0.8-2.4v-5.7h2.4v5.1c0,0.6,0.1,1.1,0.3,1.4c0.2,0.3,0.6,0.5,1.1,0.5c0.7,0,1.1-0.2,1.4-0.7s0.4-1.2,0.4-2.2
		v-4.1h2.4v8.7H88.9z"/>
	<path id="XMLID_23_" class="st4" d="M95.7,30.5h-2.4V18.3h2.4V30.5z"/>
	<path id="XMLID_20_" class="st4" d="M103.7,30.5l-0.5-1.2h-0.1c-0.4,0.5-0.8,0.9-1.2,1.1c-0.4,0.2-1,0.3-1.7,0.3
		c-0.8,0-1.5-0.2-2-0.7c-0.5-0.5-0.7-1.2-0.7-2c0-0.9,0.3-1.6,1-2.1c0.6-0.4,1.6-0.7,2.9-0.7l1.5,0v-0.4c0-0.9-0.5-1.3-1.4-1.3
		c-0.7,0-1.5,0.2-2.5,0.6l-0.8-1.6c1-0.5,2.1-0.8,3.3-0.8c1.2,0,2.1,0.3,2.7,0.8c0.6,0.5,0.9,1.3,0.9,2.3v5.8H103.7z M103,26.4
		l-0.9,0c-0.7,0-1.2,0.1-1.5,0.4c-0.3,0.2-0.5,0.6-0.5,1c0,0.7,0.4,1,1.2,1c0.6,0,1-0.2,1.3-0.5c0.3-0.3,0.5-0.7,0.5-1.3V26.4z"/>
	<path id="XMLID_18_" class="st4" d="M115.9,30.5h-2.4v-5.1c0-0.6-0.1-1.1-0.3-1.4c-0.2-0.3-0.6-0.5-1.1-0.5c-0.7,0-1.1,0.2-1.4,0.7
		s-0.4,1.2-0.4,2.2v4.1h-2.4v-8.7h1.8l0.3,1.1h0.1c0.3-0.4,0.6-0.7,1.1-1c0.5-0.2,1-0.3,1.6-0.3c1,0,1.8,0.3,2.3,0.8
		c0.5,0.5,0.8,1.3,0.8,2.4V30.5z"/>
	<path id="XMLID_16_" class="st4" d="M118,29.4c0-0.4,0.1-0.8,0.4-1c0.2-0.2,0.6-0.3,1-0.3c0.4,0,0.8,0.1,1,0.3
		c0.2,0.2,0.4,0.6,0.4,1c0,0.4-0.1,0.7-0.4,1c-0.2,0.2-0.6,0.4-1,0.4c-0.4,0-0.8-0.1-1-0.3C118.1,30.1,118,29.8,118,29.4z"/>
</g>
</svg>