<!-- Generator: Adobe Illustrator 19.0.0, SVG Export Plug-In  -->
<svg version="1.1"
	 xmlns="http://www.w3.org/2000/svg" xmlns:xlink="http://www.w3.org/1999/xlink" xmlns:a="http://ns.adobe.com/AdobeSVGViewerExtensions/3.0/"
	 x="0px" y="0px" width="258px" height="92.7px" viewBox="0 0 258 92.7" style="enable-background:new 0 0 258 92.7;"
	 xml:space="preserve">
<style type="text/css">
	.st0{fill:none;stroke:#FFFFFF;stroke-width:2;stroke-linecap:round;stroke-linejoin:round;stroke-miterlimit:10;}
	.st1{fill:none;stroke:#FF6633;stroke-width:2;stroke-miterlimit:10;}
	.st2{fill:none;stroke:#FFFFFF;stroke-width:2.2793;stroke-linecap:round;stroke-linejoin:round;stroke-miterlimit:10;}
	.st3{fill:#FF6633;}
	.st4{fill:#FFFFFF;}
</style>
<defs>
</defs>
<g id="XMLID_349_">
	<rect id="XMLID_354_" x="218" y="55.7" class="st0" width="36" height="36"/>
	<rect id="XMLID_353_" x="214" y="48.7" class="st0" width="43" height="7"/>
	<rect id="XMLID_352_" x="232" y="48.7" class="st1" width="7" height="43"/>
	<path id="XMLID_351_" class="st2" d="M234.6,45.7c0,0-11.9,0.5-15.1-1.7c-3.2-2.2-4.1-6.6-1.9-9.9c2.2-3.2,6.6-4.1,9.9-1.9
		C230.7,34.4,234.6,45.7,234.6,45.7z"/>
	<path id="XMLID_350_" class="st2" d="M235.4,45.7c0,0,11.9,0.5,15.1-1.7c3.2-2.2,4.1-6.6,1.9-9.9c-2.2-3.2-6.6-4.1-9.9-1.9
		C239.3,34.4,235.4,45.7,235.4,45.7z"/>
</g>
<circle id="XMLID_348_" class="st3" cx="8.4" cy="8.4" r="8.4"/>
<g id="XMLID_345_">
	<path id="XMLID_346_" class="st4" d="M11,11.7H5v-0.9l2-2.2C7.6,8,8,7.5,8.2,7.3s0.3-0.5,0.4-0.7s0.1-0.4,0.1-0.7
		c0-0.3-0.1-0.6-0.3-0.8S7.9,4.9,7.6,4.9C7.3,4.9,7,5,6.7,5.1S6,5.5,5.7,5.8l-1-1.2c0.4-0.4,0.8-0.6,1-0.8C6,3.7,6.3,3.6,6.6,3.5
		s0.7-0.1,1.1-0.1c0.5,0,1,0.1,1.4,0.3s0.7,0.5,1,0.8s0.3,0.8,0.3,1.2c0,0.4-0.1,0.8-0.2,1.1S9.9,7.5,9.6,7.9
		C9.3,8.3,8.8,8.8,8.1,9.4l-1.1,1v0.2h4V11.7z"/>
</g>
<g id="XMLID_15_">
	<g id="XMLID_17_">
		<path id="XMLID_234_" class="st4" d="M33.9,12.2c0,1-0.4,1.8-1.1,2.4s-1.8,0.9-3.1,0.9c-1.2,0-2.3-0.2-3.2-0.7v-2.3
			c0.8,0.3,1.4,0.6,2,0.7c0.5,0.1,1,0.2,1.5,0.2c0.5,0,0.9-0.1,1.2-0.3c0.3-0.2,0.4-0.5,0.4-0.9c0-0.2-0.1-0.4-0.2-0.6
			c-0.1-0.2-0.3-0.3-0.6-0.5c-0.2-0.2-0.7-0.4-1.5-0.8c-0.7-0.3-1.2-0.6-1.6-0.9c-0.3-0.3-0.6-0.7-0.8-1.1C26.7,8,26.6,7.6,26.6,7
			c0-1,0.3-1.8,1-2.4c0.7-0.6,1.6-0.9,2.8-0.9c0.6,0,1.2,0.1,1.7,0.2c0.5,0.1,1.1,0.3,1.7,0.6l-0.8,1.9C32.5,6.2,32,6,31.6,5.9
			c-0.4-0.1-0.8-0.1-1.2-0.1c-0.5,0-0.8,0.1-1.1,0.3C29.1,6.3,29,6.6,29,7c0,0.2,0,0.4,0.1,0.6c0.1,0.2,0.3,0.3,0.5,0.5
			c0.2,0.1,0.7,0.4,1.5,0.8c1.1,0.5,1.8,1,2.2,1.5C33.7,10.8,33.9,11.5,33.9,12.2z"/>
		<path id="XMLID_231_" class="st4" d="M41.3,15.4l-0.5-1.2h-0.1c-0.4,0.5-0.8,0.9-1.2,1.1c-0.4,0.2-1,0.3-1.7,0.3
			c-0.8,0-1.5-0.2-2-0.7c-0.5-0.5-0.7-1.2-0.7-2c0-0.9,0.3-1.6,1-2.1c0.6-0.4,1.6-0.7,2.9-0.7l1.5,0V9.6c0-0.9-0.5-1.3-1.4-1.3
			c-0.7,0-1.5,0.2-2.5,0.6L36,7.2c1-0.5,2.1-0.8,3.3-0.8c1.2,0,2.1,0.3,2.7,0.8C42.7,7.7,43,8.5,43,9.6v5.8H41.3z M40.6,11.3l-0.9,0
			c-0.7,0-1.2,0.1-1.5,0.4c-0.3,0.2-0.5,0.6-0.5,1c0,0.7,0.4,1,1.2,1c0.6,0,1-0.2,1.3-0.5c0.3-0.3,0.5-0.7,0.5-1.3V11.3z"/>
		<path id="XMLID_228_" class="st4" d="M51,15.4l-0.5-1.2h-0.1c-0.4,0.5-0.8,0.9-1.2,1.1c-0.4,0.2-1,0.3-1.7,0.3
			c-0.8,0-1.5-0.2-2-0.7c-0.5-0.5-0.7-1.2-0.7-2c0-0.9,0.3-1.6,1-2.1c0.6-0.4,1.6-0.7,2.9-0.7l1.5,0V9.6c0-0.9-0.5-1.3-1.4-1.3
			c-0.7,0-1.5,0.2-2.5,0.6l-0.8-1.6c1-0.5,2.1-0.8,3.3-0.8c1.2,0,2.1,0.3,2.7,0.8c0.6,0.5,0.9,1.3,0.9,2.3v5.8H51z M50.3,11.3
			l-0.9,0c-0.7,0-1.2,0.1-1.5,0.4c-0.3,0.2-0.5,0.6-0.5,1c0,0.7,0.4,1,1.2,1c0.6,0,1-0.2,1.3-0.5c0.3-0.3,0.5-0.7,0.5-1.3V11.3z"/>
		<path id="XMLID_226_" class="st4" d="M58.8,13.6c0.4,0,0.9-0.1,1.5-0.3v1.8c-0.6,0.3-1.3,0.4-2.2,0.4c-1,0-1.6-0.2-2.1-0.7
			c-0.4-0.5-0.7-1.2-0.7-2.2V8.4h-1.1v-1l1.3-0.8l0.7-1.8h1.5v1.9h2.4v1.8h-2.4v4.2c0,0.3,0.1,0.6,0.3,0.8
			C58.2,13.5,58.5,13.6,58.8,13.6z"/>
		<path id="XMLID_223_" class="st4" d="M71.8,15.4l-0.5-1.2h-0.1c-0.4,0.5-0.8,0.9-1.2,1.1c-0.4,0.2-1,0.3-1.7,0.3
			c-0.8,0-1.5-0.2-2-0.7c-0.5-0.5-0.7-1.2-0.7-2c0-0.9,0.3-1.6,1-2.1c0.6-0.4,1.6-0.7,2.9-0.7l1.5,0V9.6c0-0.9-0.5-1.3-1.4-1.3
			c-0.7,0-1.5,0.2-2.5,0.6l-0.8-1.6c1-0.5,2.1-0.8,3.3-0.8c1.2,0,2.1,0.3,2.7,0.8c0.6,0.5,0.9,1.3,0.9,2.3v5.8H71.8z M71.1,11.3
			l-0.9,0c-0.7,0-1.2,0.1-1.5,0.4c-0.3,0.2-0.5,0.6-0.5,1c0,0.7,0.4,1,1.2,1c0.6,0,1-0.2,1.3-0.5c0.3-0.3,0.5-0.7,0.5-1.3V11.3z"/>
		<path id="XMLID_220_" class="st4" d="M78.7,15.5c-1,0-1.8-0.4-2.4-1.2s-0.9-1.9-0.9-3.3c0-1.4,0.3-2.5,0.9-3.3
			c0.6-0.8,1.4-1.2,2.5-1.2c1.1,0,1.9,0.4,2.5,1.3h0.1c-0.1-0.7-0.2-1.2-0.2-1.7V3.2h2.4v12.2h-1.8l-0.5-1.1h-0.1
			C80.6,15.1,79.8,15.5,78.7,15.5z M79.5,13.6c0.6,0,1.1-0.2,1.3-0.5c0.3-0.4,0.4-1,0.5-1.8V11c0-0.9-0.1-1.6-0.4-2
			s-0.8-0.6-1.4-0.6c-0.5,0-0.9,0.2-1.2,0.7c-0.3,0.5-0.4,1.1-0.4,2s0.1,1.5,0.4,1.9S78.9,13.6,79.5,13.6z"/>
		<path id="XMLID_217_" class="st4" d="M91.6,15.4l-0.5-1.2H91c-0.4,0.5-0.8,0.9-1.2,1.1c-0.4,0.2-1,0.3-1.7,0.3
			c-0.8,0-1.5-0.2-2-0.7c-0.5-0.5-0.7-1.2-0.7-2c0-0.9,0.3-1.6,1-2.1c0.6-0.4,1.6-0.7,2.9-0.7l1.5,0V9.6c0-0.9-0.5-1.3-1.4-1.3
			c-0.7,0-1.5,0.2-2.5,0.6l-0.8-1.6c1-0.5,2.1-0.8,3.3-0.8c1.2,0,2.1,0.3,2.7,0.8c0.6,0.5,0.9,1.3,0.9,2.3v5.8H91.6z M90.9,11.3
			l-0.9,0c-0.7,0-1.2,0.1-1.5,0.4c-0.3,0.2-0.5,0.6-0.5,1c0,0.7,0.4,1,1.2,1c0.6,0,1-0.2,1.3-0.5c0.3-0.3,0.5-0.7,0.5-1.3V11.3z"/>
		<path id="XMLID_215_" class="st4" d="M103.7,15.4h-2.4v-5.1c0-0.6-0.1-1.1-0.3-1.4c-0.2-0.3-0.6-0.5-1.1-0.5
			c-0.7,0-1.1,0.2-1.4,0.7s-0.4,1.2-0.4,2.2v4.1h-2.4V6.6h1.8l0.3,1.1H98c0.3-0.4,0.6-0.7,1.1-1c0.5-0.2,1-0.3,1.6-0.3
			c1,0,1.8,0.3,2.3,0.8c0.5,0.5,0.8,1.3,0.8,2.4V15.4z"/>
		<path id="XMLID_213_" class="st4" d="M104.9,6.6h2.6l1.6,4.9c0.1,0.4,0.2,0.9,0.3,1.5h0c0.1-0.5,0.2-1,0.3-1.5l1.6-4.9h2.6
			l-3.7,9.9c-0.3,0.9-0.8,1.6-1.4,2c-0.6,0.5-1.4,0.7-2.2,0.7c-0.4,0-0.8,0-1.2-0.1v-1.9c0.3,0.1,0.6,0.1,0.9,0.1
			c0.4,0,0.8-0.1,1.1-0.4c0.3-0.3,0.6-0.6,0.7-1.2l0.1-0.4L104.9,6.6z"/>
		<path id="XMLID_210_" class="st4" d="M120.8,15.4l-0.5-1.2h-0.1c-0.4,0.5-0.8,0.9-1.2,1.1c-0.4,0.2-1,0.3-1.7,0.3
			c-0.8,0-1.5-0.2-2-0.7c-0.5-0.5-0.7-1.2-0.7-2c0-0.9,0.3-1.6,1-2.1c0.6-0.4,1.6-0.7,2.9-0.7l1.5,0V9.6c0-0.9-0.5-1.3-1.4-1.3
			c-0.7,0-1.5,0.2-2.5,0.6l-0.8-1.6c1-0.5,2.1-0.8,3.3-0.8c1.2,0,2.1,0.3,2.7,0.8c0.6,0.5,0.9,1.3,0.9,2.3v5.8H120.8z M120.1,11.3
			l-0.9,0c-0.7,0-1.2,0.1-1.5,0.4c-0.3,0.2-0.5,0.6-0.5,1c0,0.7,0.4,1,1.2,1c0.6,0,1-0.2,1.3-0.5c0.3-0.3,0.5-0.7,0.5-1.3V11.3z"/>
		<path id="XMLID_207_" class="st4" d="M133.9,15.5c-1,0-1.8-0.4-2.4-1.1h-0.1c0.1,0.7,0.1,1.2,0.1,1.3v3.5h-2.4V6.6h1.9l0.3,1.1
			h0.1c0.6-0.9,1.4-1.3,2.5-1.3c1,0,1.8,0.4,2.4,1.2c0.6,0.8,0.9,1.9,0.9,3.3c0,0.9-0.1,1.7-0.4,2.4s-0.7,1.2-1.2,1.6
			C135.2,15.3,134.6,15.5,133.9,15.5z M133.2,8.4c-0.6,0-1,0.2-1.3,0.5c-0.3,0.4-0.4,1-0.4,1.8V11c0,0.9,0.1,1.6,0.4,2
			c0.3,0.4,0.7,0.6,1.3,0.6c1.1,0,1.6-0.9,1.6-2.6c0-0.9-0.1-1.5-0.4-1.9C134.2,8.6,133.8,8.4,133.2,8.4z"/>
		<path id="XMLID_204_" class="st4" d="M143.2,15.5c-1.4,0-2.5-0.4-3.3-1.2c-0.8-0.8-1.2-1.9-1.2-3.3c0-1.5,0.4-2.6,1.1-3.4
			c0.7-0.8,1.7-1.2,3-1.2c1.2,0,2.2,0.4,2.9,1.1s1,1.7,1,2.9v1.2h-5.6c0,0.7,0.2,1.2,0.6,1.6c0.4,0.4,0.9,0.6,1.6,0.6
			c0.5,0,1-0.1,1.5-0.2s1-0.3,1.5-0.5v1.8c-0.4,0.2-0.9,0.4-1.3,0.5C144.5,15.5,143.9,15.5,143.2,15.5z M142.9,8.2
			c-0.5,0-0.9,0.2-1.2,0.5c-0.3,0.3-0.5,0.8-0.5,1.4h3.3c0-0.6-0.2-1-0.5-1.4S143.4,8.2,142.9,8.2z"/>
		<path id="XMLID_114_" class="st4" d="M151.1,15.4h-2.4V3.2h2.4V15.4z"/>
		<path id="XMLID_109_" class="st4" d="M159.8,15.4l-0.3-1.1h-0.1c-0.3,0.4-0.6,0.7-1.1,0.9s-1,0.3-1.6,0.3c-1,0-1.8-0.3-2.3-0.8
			c-0.5-0.5-0.8-1.3-0.8-2.4V6.6h2.4v5.1c0,0.6,0.1,1.1,0.3,1.4c0.2,0.3,0.6,0.5,1.1,0.5c0.7,0,1.1-0.2,1.4-0.7s0.4-1.2,0.4-2.2V6.6
			h2.4v8.7H159.8z"/>
		<path id="XMLID_91_" class="st4" d="M172.2,15.4h-2.4v-5.1c0-0.6-0.1-1.1-0.3-1.4c-0.2-0.3-0.6-0.5-1.1-0.5
			c-0.7,0-1.1,0.2-1.4,0.7s-0.4,1.2-0.4,2.2v4.1h-2.4V6.6h1.8l0.3,1.1h0.1c0.3-0.4,0.6-0.7,1.1-1c0.5-0.2,1-0.3,1.6-0.3
			c1,0,1.8,0.3,2.3,0.8c0.5,0.5,0.8,1.3,0.8,2.4V15.4z"/>
		<path id="XMLID_89_" class="st4" d="M178.2,15.5c-2.7,0-4.1-1.5-4.1-4.5c0-1.5,0.4-2.6,1.1-3.4c0.7-0.8,1.8-1.2,3.2-1.2
			c1,0,1.9,0.2,2.7,0.6l-0.7,1.8c-0.4-0.2-0.7-0.3-1-0.4c-0.3-0.1-0.6-0.1-1-0.1c-1.2,0-1.9,0.9-1.9,2.6c0,1.7,0.6,2.6,1.9,2.6
			c0.5,0,0.9-0.1,1.3-0.2c0.4-0.1,0.8-0.3,1.2-0.6v2c-0.4,0.2-0.8,0.4-1.2,0.5C179.3,15.5,178.8,15.5,178.2,15.5z"/>
		<path id="XMLID_87_" class="st4" d="M189,15.4l-0.3-1.1h-0.1c-0.3,0.4-0.6,0.7-1.1,0.9s-1,0.3-1.6,0.3c-1,0-1.8-0.3-2.3-0.8
			c-0.5-0.5-0.8-1.3-0.8-2.4V6.6h2.4v5.1c0,0.6,0.1,1.1,0.3,1.4c0.2,0.3,0.6,0.5,1.1,0.5c0.7,0,1.1-0.2,1.4-0.7s0.4-1.2,0.4-2.2V6.6
			h2.4v8.7H189z"/>
		<path id="XMLID_85_" class="st4" d="M198.2,6.5c0.3,0,0.6,0,0.8,0.1l-0.2,2.2c-0.2-0.1-0.4-0.1-0.7-0.1c-0.8,0-1.4,0.2-1.8,0.6
			c-0.4,0.4-0.6,0.9-0.6,1.6v4.4h-2.4V6.6h1.8l0.4,1.5h0.1c0.3-0.5,0.6-0.9,1.1-1.2C197.2,6.6,197.7,6.5,198.2,6.5z"/>
		<path id="XMLID_81_" class="st4" d="M206,15.4l-0.5-1.2h-0.1c-0.4,0.5-0.8,0.9-1.2,1.1c-0.4,0.2-1,0.3-1.7,0.3
			c-0.8,0-1.5-0.2-2-0.7c-0.5-0.5-0.7-1.2-0.7-2c0-0.9,0.3-1.6,1-2.1c0.6-0.4,1.6-0.7,2.9-0.7l1.5,0V9.6c0-0.9-0.5-1.3-1.4-1.3
			c-0.7,0-1.5,0.2-2.5,0.6l-0.8-1.6c1-0.5,2.1-0.8,3.3-0.8c1.2,0,2.1,0.3,2.7,0.8c0.6,0.5,0.9,1.3,0.9,2.3v5.8H206z M205.3,11.3
			l-0.9,0c-0.7,0-1.2,0.1-1.5,0.4c-0.3,0.2-0.5,0.6-0.5,1c0,0.7,0.4,1,1.2,1c0.6,0,1-0.2,1.3-0.5c0.3-0.3,0.5-0.7,0.5-1.3V11.3z"/>
		<path id="XMLID_79_" class="st4" d="M218.2,15.4h-2.4v-5.1c0-0.6-0.1-1.1-0.3-1.4c-0.2-0.3-0.6-0.5-1.1-0.5
			c-0.7,0-1.1,0.2-1.4,0.7s-0.4,1.2-0.4,2.2v4.1h-2.4V6.6h1.8l0.3,1.1h0.1c0.3-0.4,0.6-0.7,1.1-1c0.5-0.2,1-0.3,1.6-0.3
			c1,0,1.8,0.3,2.3,0.8c0.5,0.5,0.8,1.3,0.8,2.4V15.4z"/>
		<path id="XMLID_76_" class="st4" d="M31.8,32.4c-1,0-1.8-0.4-2.4-1.1h-0.1c0.1,0.7,0.1,1.2,0.1,1.3v3.5H27V23.5h1.9l0.3,1.1h0.1
			c0.6-0.9,1.4-1.3,2.5-1.3c1,0,1.8,0.4,2.4,1.2c0.6,0.8,0.9,1.9,0.9,3.3c0,0.9-0.1,1.7-0.4,2.4s-0.7,1.2-1.2,1.6
			C33.1,32.2,32.5,32.4,31.8,32.4z M31.1,25.3c-0.6,0-1,0.2-1.3,0.5c-0.3,0.4-0.4,1-0.4,1.8v0.3c0,0.9,0.1,1.6,0.4,2
			c0.3,0.4,0.7,0.6,1.3,0.6c1.1,0,1.6-0.9,1.6-2.6c0-0.9-0.1-1.5-0.4-1.9C32.1,25.5,31.6,25.3,31.1,25.3z"/>
		<path id="XMLID_73_" class="st4" d="M42,23.4c0.3,0,0.6,0,0.8,0.1l-0.2,2.2c-0.2-0.1-0.4-0.1-0.7-0.1c-0.8,0-1.4,0.2-1.8,0.6
			c-0.4,0.4-0.6,0.9-0.6,1.6v4.4h-2.4v-8.7h1.8l0.4,1.5h0.1c0.3-0.5,0.6-0.9,1.1-1.2C40.9,23.5,41.4,23.4,42,23.4z"/>
		<path id="XMLID_70_" class="st4" d="M52.2,27.9c0,1.4-0.4,2.5-1.1,3.3c-0.8,0.8-1.8,1.2-3.1,1.2c-0.8,0-1.6-0.2-2.2-0.6
			s-1.1-0.9-1.5-1.6s-0.5-1.5-0.5-2.4c0-1.4,0.4-2.5,1.1-3.3c0.7-0.8,1.8-1.2,3.1-1.2c0.8,0,1.6,0.2,2.2,0.5
			c0.6,0.4,1.1,0.9,1.5,1.6C52,26.2,52.2,27,52.2,27.9z M46.1,27.9c0,0.9,0.1,1.5,0.4,2c0.3,0.4,0.7,0.7,1.4,0.7
			c0.6,0,1.1-0.2,1.4-0.7c0.3-0.4,0.4-1.1,0.4-2c0-0.9-0.1-1.5-0.4-1.9c-0.3-0.4-0.7-0.6-1.4-0.6c-0.6,0-1.1,0.2-1.4,0.6
			S46.1,27,46.1,27.9z"/>
		<path id="XMLID_67_" class="st4" d="M56.9,32.4c-1,0-1.8-0.4-2.4-1.2s-0.9-1.9-0.9-3.3c0-1.4,0.3-2.5,0.9-3.3
			c0.6-0.8,1.4-1.2,2.5-1.2c1.1,0,1.9,0.4,2.5,1.3h0.1c-0.1-0.7-0.2-1.2-0.2-1.7v-2.8h2.4v12.2h-1.8l-0.5-1.1h-0.1
			C58.8,32,58,32.4,56.9,32.4z M57.7,30.5c0.6,0,1.1-0.2,1.3-0.5c0.3-0.4,0.4-1,0.5-1.8v-0.3c0-0.9-0.1-1.6-0.4-2s-0.8-0.6-1.4-0.6
			c-0.5,0-0.9,0.2-1.2,0.7c-0.3,0.5-0.4,1.1-0.4,2s0.1,1.5,0.4,1.9S57.2,30.5,57.7,30.5z"/>
		<path id="XMLID_65_" class="st4" d="M70.4,32.3l-0.3-1.1H70c-0.3,0.4-0.6,0.7-1.1,0.9s-1,0.3-1.6,0.3c-1,0-1.8-0.3-2.3-0.8
			c-0.5-0.5-0.8-1.3-0.8-2.4v-5.7h2.4v5.1c0,0.6,0.1,1.1,0.3,1.4c0.2,0.3,0.6,0.5,1.1,0.5c0.7,0,1.1-0.2,1.4-0.7s0.4-1.2,0.4-2.2
			v-4.1h2.4v8.7H70.4z"/>
		<path id="XMLID_63_" class="st4" d="M77.1,27.5l1-1.3l2.4-2.7h2.7l-3.5,3.8l3.7,4.9h-2.8l-2.5-3.5l-1,0.8v2.7h-2.4V20.1h2.4v5.4
			L77.1,27.5L77.1,27.5z"/>
		<path id="XMLID_60_" class="st4" d="M94.4,32.3l-0.5-1.2h-0.1c-0.4,0.5-0.8,0.9-1.2,1.1c-0.4,0.2-1,0.3-1.7,0.3
			c-0.8,0-1.5-0.2-2-0.7c-0.5-0.5-0.7-1.2-0.7-2c0-0.9,0.3-1.6,1-2.1c0.6-0.4,1.6-0.7,2.9-0.7l1.5,0v-0.4c0-0.9-0.5-1.3-1.4-1.3
			c-0.7,0-1.5,0.2-2.5,0.6l-0.8-1.6c1-0.5,2.1-0.8,3.3-0.8c1.2,0,2.1,0.3,2.7,0.8c0.6,0.5,0.9,1.3,0.9,2.3v5.8H94.4z M93.7,28.2
			l-0.9,0c-0.7,0-1.2,0.1-1.5,0.4c-0.3,0.2-0.5,0.6-0.5,1c0,0.7,0.4,1,1.2,1c0.6,0,1-0.2,1.3-0.5c0.3-0.3,0.5-0.7,0.5-1.3V28.2z"/>
		<path id="XMLID_58_" class="st4" d="M102.2,30.5c0.4,0,0.9-0.1,1.5-0.3V32c-0.6,0.3-1.3,0.4-2.2,0.4c-1,0-1.6-0.2-2.1-0.7
			c-0.4-0.5-0.7-1.2-0.7-2.2v-4.2h-1.1v-1l1.3-0.8l0.7-1.8h1.5v1.9h2.4v1.8h-2.4v4.2c0,0.3,0.1,0.6,0.3,0.8
			C101.6,30.4,101.9,30.5,102.2,30.5z"/>
		<path id="XMLID_55_" class="st4" d="M111,32.3l-0.5-1.2h-0.1c-0.4,0.5-0.8,0.9-1.2,1.1c-0.4,0.2-1,0.3-1.7,0.3
			c-0.8,0-1.5-0.2-2-0.7c-0.5-0.5-0.7-1.2-0.7-2c0-0.9,0.3-1.6,1-2.1c0.6-0.4,1.6-0.7,2.9-0.7l1.5,0v-0.4c0-0.9-0.5-1.3-1.4-1.3
			c-0.7,0-1.5,0.2-2.5,0.6l-0.8-1.6c1-0.5,2.1-0.8,3.3-0.8c1.2,0,2.1,0.3,2.7,0.8c0.6,0.5,0.9,1.3,0.9,2.3v5.8H111z M110.3,28.2
			l-0.9,0c-0.7,0-1.2,0.1-1.5,0.4c-0.3,0.2-0.5,0.6-0.5,1c0,0.7,0.4,1,1.2,1c0.6,0,1-0.2,1.3-0.5c0.3-0.3,0.5-0.7,0.5-1.3V28.2z"/>
		<path id="XMLID_53_" class="st4" d="M121.3,32.3l-0.3-1.1h-0.1c-0.3,0.4-0.6,0.7-1.1,0.9s-1,0.3-1.6,0.3c-1,0-1.8-0.3-2.3-0.8
			c-0.5-0.5-0.8-1.3-0.8-2.4v-5.7h2.4v5.1c0,0.6,0.1,1.1,0.3,1.4c0.2,0.3,0.6,0.5,1.1,0.5c0.7,0,1.1-0.2,1.4-0.7s0.4-1.2,0.4-2.2
			v-4.1h2.4v8.7H121.3z"/>
		<path id="XMLID_50_" class="st4" d="M31.8,49.3c-1,0-1.8-0.4-2.4-1.1h-0.1c0.1,0.7,0.1,1.2,0.1,1.3V53H27V40.4h1.9l0.3,1.1h0.1
			c0.6-0.9,1.4-1.3,2.5-1.3c1,0,1.8,0.4,2.4,1.2c0.6,0.8,0.9,1.9,0.9,3.3c0,0.9-0.1,1.7-0.4,2.4s-0.7,1.2-1.2,1.6
			C33.1,49.1,32.5,49.3,31.8,49.3z M31.1,42.1c-0.6,0-1,0.2-1.3,0.5c-0.3,0.4-0.4,1-0.4,1.8v0.3c0,0.9,0.1,1.6,0.4,2
			c0.3,0.4,0.7,0.6,1.3,0.6c1.1,0,1.6-0.9,1.6-2.6c0-0.9-0.1-1.5-0.4-1.9C32.1,42.4,31.6,42.1,31.1,42.1z"/>
		<path id="XMLID_47_" class="st4" d="M41.1,49.3c-1.4,0-2.5-0.4-3.3-1.2c-0.8-0.8-1.2-1.9-1.2-3.3c0-1.5,0.4-2.6,1.1-3.4
			c0.7-0.8,1.7-1.2,3-1.2c1.2,0,2.2,0.4,2.9,1.1s1,1.7,1,2.9v1.2H39c0,0.7,0.2,1.2,0.6,1.6c0.4,0.4,0.9,0.6,1.6,0.6
			c0.5,0,1-0.1,1.5-0.2s1-0.3,1.5-0.5v1.8c-0.4,0.2-0.9,0.4-1.3,0.5C42.3,49.2,41.7,49.3,41.1,49.3z M40.7,41.9
			c-0.5,0-0.9,0.2-1.2,0.5c-0.3,0.3-0.5,0.8-0.5,1.4h3.3c0-0.6-0.2-1-0.5-1.4S41.2,41.9,40.7,41.9z"/>
		<path id="XMLID_45_" class="st4" d="M48.9,49.1h-2.4V37h2.4V49.1z"/>
		<path id="XMLID_42_" class="st4" d="M57,49.1L56.5,48h-0.1c-0.4,0.5-0.8,0.9-1.2,1.1c-0.4,0.2-1,0.3-1.7,0.3c-0.8,0-1.5-0.2-2-0.7
			c-0.5-0.5-0.7-1.2-0.7-2c0-0.9,0.3-1.6,1-2.1c0.6-0.4,1.6-0.7,2.9-0.7l1.5,0v-0.4c0-0.9-0.5-1.3-1.4-1.3c-0.7,0-1.5,0.2-2.5,0.6
			L51.7,41c1-0.5,2.1-0.8,3.3-0.8c1.2,0,2.1,0.3,2.7,0.8c0.6,0.5,0.9,1.3,0.9,2.3v5.8H57z M56.3,45.1l-0.9,0c-0.7,0-1.2,0.1-1.5,0.4
			c-0.3,0.2-0.5,0.6-0.5,1c0,0.7,0.4,1,1.2,1c0.6,0,1-0.2,1.3-0.5c0.3-0.3,0.5-0.7,0.5-1.3V45.1z"/>
		<path id="XMLID_40_" class="st4" d="M59.9,40.4h2.6l1.6,4.9c0.1,0.4,0.2,0.9,0.3,1.5h0c0.1-0.5,0.2-1,0.3-1.5l1.6-4.9H69l-3.7,9.9
			c-0.3,0.9-0.8,1.6-1.4,2c-0.6,0.5-1.4,0.7-2.2,0.7c-0.4,0-0.8,0-1.2-0.1V51c0.3,0.1,0.6,0.1,0.9,0.1c0.4,0,0.8-0.1,1.1-0.4
			c0.3-0.3,0.6-0.6,0.7-1.2l0.1-0.4L59.9,40.4z"/>
		<path id="XMLID_37_" class="st4" d="M75.8,49.1L75.3,48h-0.1c-0.4,0.5-0.8,0.9-1.2,1.1c-0.4,0.2-1,0.3-1.7,0.3
			c-0.8,0-1.5-0.2-2-0.7c-0.5-0.5-0.7-1.2-0.7-2c0-0.9,0.3-1.6,1-2.1c0.6-0.4,1.6-0.7,2.9-0.7l1.5,0v-0.4c0-0.9-0.5-1.3-1.4-1.3
			c-0.7,0-1.5,0.2-2.5,0.6L70.4,41c1-0.5,2.1-0.8,3.3-0.8c1.2,0,2.1,0.3,2.7,0.8c0.6,0.5,0.9,1.3,0.9,2.3v5.8H75.8z M75.1,45.1
			l-0.9,0c-0.7,0-1.2,0.1-1.5,0.4c-0.3,0.2-0.5,0.6-0.5,1c0,0.7,0.4,1,1.2,1c0.6,0,1-0.2,1.3-0.5c0.3-0.3,0.5-0.7,0.5-1.3V45.1z"/>
		<path id="XMLID_35_" class="st4" d="M87.9,49.1h-2.4V44c0-0.6-0.1-1.1-0.3-1.4c-0.2-0.3-0.6-0.5-1.1-0.5c-0.7,0-1.1,0.2-1.4,0.7
			S82.3,44,82.3,45v4.1h-2.4v-8.7h1.8l0.3,1.1h0.1c0.3-0.4,0.6-0.7,1.1-1c0.5-0.2,1-0.3,1.6-0.3c1,0,1.8,0.3,2.3,0.8
			c0.5,0.5,0.8,1.3,0.8,2.4V49.1z"/>
		<path id="XMLID_32_" class="st4" d="M95.9,49.1L95.5,48h-0.1c-0.4,0.5-0.8,0.9-1.2,1.1c-0.4,0.2-1,0.3-1.7,0.3
			c-0.8,0-1.5-0.2-2-0.7c-0.5-0.5-0.7-1.2-0.7-2c0-0.9,0.3-1.6,1-2.1c0.6-0.4,1.6-0.7,2.9-0.7l1.5,0v-0.4c0-0.9-0.5-1.3-1.4-1.3
			c-0.7,0-1.5,0.2-2.5,0.6L90.6,41c1-0.5,2.1-0.8,3.3-0.8c1.2,0,2.1,0.3,2.7,0.8c0.6,0.5,0.9,1.3,0.9,2.3v5.8H95.9z M95.2,45.1
			l-0.9,0c-0.7,0-1.2,0.1-1.5,0.4c-0.3,0.2-0.5,0.6-0.5,1c0,0.7,0.4,1,1.2,1c0.6,0,1-0.2,1.3-0.5c0.3-0.3,0.5-0.7,0.5-1.3V45.1z"/>
		<path id="XMLID_30_" class="st4" d="M108.1,49.1h-2.4V44c0-0.6-0.1-1.1-0.3-1.4c-0.2-0.3-0.6-0.5-1.1-0.5c-0.7,0-1.1,0.2-1.4,0.7
			s-0.4,1.2-0.4,2.2v4.1h-2.4v-8.7h1.8l0.3,1.1h0.1c0.3-0.4,0.6-0.7,1.1-1c0.5-0.2,1-0.3,1.6-0.3c1,0,1.8,0.3,2.3,0.8
			c0.5,0.5,0.8,1.3,0.8,2.4V49.1z"/>
		<path id="XMLID_27_" class="st4" d="M119.6,40.2c1,0,1.8,0.4,2.4,1.2c0.6,0.8,0.9,1.9,0.9,3.3c0,1.4-0.3,2.6-0.9,3.4
			c-0.6,0.8-1.4,1.2-2.5,1.2c-1,0-1.8-0.4-2.4-1.1h-0.2l-0.4,1h-1.8V37h2.4v2.8c0,0.4,0,0.9-0.1,1.7h0.1
			C117.7,40.7,118.5,40.2,119.6,40.2z M118.8,42.1c-0.6,0-1,0.2-1.3,0.5c-0.3,0.4-0.4,1-0.4,1.8v0.3c0,0.9,0.1,1.6,0.4,2
			c0.3,0.4,0.7,0.6,1.3,0.6c0.5,0,0.9-0.2,1.2-0.7c0.3-0.5,0.4-1.1,0.4-2s-0.1-1.5-0.4-1.9C119.7,42.4,119.3,42.1,118.8,42.1z"/>
		<path id="XMLID_24_" class="st4" d="M130.4,49.1l-0.5-1.2h-0.1c-0.4,0.5-0.8,0.9-1.2,1.1c-0.4,0.2-1,0.3-1.7,0.3
			c-0.8,0-1.5-0.2-2-0.7c-0.5-0.5-0.7-1.2-0.7-2c0-0.9,0.3-1.6,1-2.1c0.6-0.4,1.6-0.7,2.9-0.7l1.5,0v-0.4c0-0.9-0.5-1.3-1.4-1.3
			c-0.7,0-1.5,0.2-2.5,0.6l-0.8-1.6c1-0.5,2.1-0.8,3.3-0.8c1.2,0,2.1,0.3,2.7,0.8c0.6,0.5,0.9,1.3,0.9,2.3v5.8H130.4z M129.7,45.1
			l-0.9,0c-0.7,0-1.2,0.1-1.5,0.4c-0.3,0.2-0.5,0.6-0.5,1c0,0.7,0.4,1,1.2,1c0.6,0,1-0.2,1.3-0.5c0.3-0.3,0.5-0.7,0.5-1.3V45.1z"/>
		<path id="XMLID_22_" class="st4" d="M139.4,40.2c0.3,0,0.6,0,0.8,0.1l-0.2,2.2c-0.2-0.1-0.4-0.1-0.7-0.1c-0.8,0-1.4,0.2-1.8,0.6
			c-0.4,0.4-0.6,0.9-0.6,1.6v4.4h-2.4v-8.7h1.8l0.4,1.5h0.1c0.3-0.5,0.6-0.9,1.1-1.2C138.4,40.4,138.9,40.2,139.4,40.2z"/>
		<path id="XMLID_20_" class="st4" d="M148,49.1l-0.3-1.1h-0.1c-0.3,0.4-0.6,0.7-1.1,0.9s-1,0.3-1.6,0.3c-1,0-1.8-0.3-2.3-0.8
			c-0.5-0.5-0.8-1.3-0.8-2.4v-5.7h2.4v5.1c0,0.6,0.1,1.1,0.3,1.4c0.2,0.3,0.6,0.5,1.1,0.5c0.7,0,1.1-0.2,1.4-0.7s0.4-1.2,0.4-2.2
			v-4.1h2.4v8.7H148z"/>
		<path id="XMLID_18_" class="st4" d="M152,48c0-0.4,0.1-0.8,0.4-1c0.2-0.2,0.6-0.3,1-0.3c0.4,0,0.8,0.1,1,0.3
			c0.2,0.2,0.4,0.6,0.4,1c0,0.4-0.1,0.7-0.4,1c-0.2,0.2-0.6,0.4-1,0.4c-0.4,0-0.8-0.1-1-0.3C152.1,48.8,152,48.4,152,48z"/>
	</g>
</g>
</svg>