<!-- Generator: Adobe Illustrator 19.0.0, SVG Export Plug-In  -->
<svg version="1.1"
	 xmlns="http://www.w3.org/2000/svg" xmlns:xlink="http://www.w3.org/1999/xlink" xmlns:a="http://ns.adobe.com/AdobeSVGViewerExtensions/3.0/"
	 x="0px" y="0px" width="600px" height="379.3px" viewBox="0 0 600 379.3" style="enable-background:new 0 0 600 379.3;"
	 xml:space="preserve">
<style type="text/css">
	.st0{fill:#086A87;}
	.st1{fill:#FFFFFF;}
	.st2{fill:#33CCCC;}
	.st3{fill:#FF6633;}
	.st4{fill:#2ABAB6;}
	.st5{fill:none;stroke:#FFFFFF;stroke-miterlimit:10;stroke-dasharray:3.132;}
</style>
<defs>
</defs>
<rect x="0" class="st0" width="600" height="379.3"/>
<g>
	<path class="st1" d="M123.9,70.3c-4.1,0-7.3,1.5-9.5,4.6c-2.3,3.1-3.4,7.4-3.4,12.9c0,11.5,4.3,17.2,12.9,17.2
		c3.6,0,8-0.9,13.1-2.7v9.1c-4.2,1.8-8.9,2.6-14.1,2.6c-7.5,0-13.2-2.3-17.2-6.8s-5.9-11-5.9-19.5c0-5.3,1-10,2.9-14
		c1.9-4,4.7-7.1,8.4-9.2s7.9-3.2,12.8-3.2c5,0,10,1.2,15,3.6l-3.5,8.9c-1.9-0.9-3.9-1.7-5.8-2.4C127.7,70.7,125.8,70.3,123.9,70.3z"
		/>
	<path class="st1" d="M182.8,93.7c0,6.4-1.7,11.4-5.1,15c-3.4,3.6-8.1,5.4-14.1,5.4c-3.8,0-7.1-0.8-10-2.5s-5.1-4-6.6-7.1
		s-2.3-6.7-2.3-10.8c0-6.4,1.7-11.4,5-15c3.4-3.6,8.1-5.3,14.1-5.3c3.8,0,7.1,0.8,10,2.5c2.9,1.6,5.1,4,6.6,7.1
		C182.1,85.9,182.8,89.5,182.8,93.7z M155.6,93.7c0,3.9,0.6,6.8,1.9,8.8c1.3,2,3.4,3,6.2,3c2.9,0,4.9-1,6.2-3c1.3-2,1.9-4.9,1.9-8.8
		c0-3.9-0.6-6.8-1.9-8.8c-1.3-1.9-3.3-2.9-6.2-2.9c-2.9,0-4.9,1-6.2,2.9S155.6,89.8,155.6,93.7z"/>
	<path class="st1" d="M219.5,113.4l-1.4-5h-0.6c-1.1,1.8-2.8,3.2-4.9,4.2s-4.5,1.5-7.2,1.5c-4.6,0-8.1-1.2-10.4-3.7
		c-2.3-2.5-3.5-6-3.5-10.7V74.1h10.7v23c0,2.8,0.5,5,1.5,6.4c1,1.4,2.6,2.1,4.8,2.1c3,0,5.2-1,6.5-3s2-5.3,2-10V74.1h10.7v39.3
		H219.5z"/>
	<path class="st1" d="M260.6,114.1c-4.6,0-8.2-1.7-10.9-5h-0.6c0.4,3.3,0.6,5.2,0.6,5.7v15.9H239V74.1h8.7l1.5,5.1h0.5
		c2.5-3.9,6.2-5.8,11.1-5.8c4.6,0,8.3,1.8,10.9,5.4s3.9,8.6,3.9,14.9c0,4.2-0.6,7.8-1.8,10.9s-3,5.4-5.3,7.1
		S263.7,114.1,260.6,114.1z M257.4,81.9c-2.6,0-4.6,0.8-5.8,2.4c-1.2,1.6-1.9,4.3-1.9,8.1v1.2c0,4.2,0.6,7.2,1.9,9.1s3.2,2.7,6,2.7
		c4.8,0,7.2-4,7.2-11.9c0-3.9-0.6-6.8-1.8-8.7S260,81.9,257.4,81.9z"/>
	<path class="st1" d="M320.3,93.7c0,6.4-1.7,11.4-5.1,15c-3.4,3.6-8.1,5.4-14.1,5.4c-3.8,0-7.1-0.8-10-2.5s-5.1-4-6.6-7.1
		s-2.3-6.7-2.3-10.8c0-6.4,1.7-11.4,5-15c3.4-3.6,8.1-5.3,14.1-5.3c3.8,0,7.1,0.8,10,2.5c2.9,1.6,5.1,4,6.6,7.1
		C319.5,85.9,320.3,89.5,320.3,93.7z M293.1,93.7c0,3.9,0.6,6.8,1.9,8.8c1.3,2,3.4,3,6.2,3c2.9,0,4.9-1,6.2-3c1.3-2,1.9-4.9,1.9-8.8
		c0-3.9-0.6-6.8-1.9-8.8c-1.3-1.9-3.3-2.9-6.2-2.9c-2.9,0-4.9,1-6.2,2.9S293.1,89.8,293.1,93.7z"/>
	<path class="st1" d="M365.4,113.4h-10.7v-23c0-2.8-0.5-5-1.5-6.4c-1-1.4-2.6-2.1-4.8-2.1c-3,0-5.2,1-6.5,3s-2,5.3-2,10v18.5h-10.7
		V74.1h8.2l1.4,5h0.6c1.2-1.9,2.8-3.3,4.9-4.3c2.1-1,4.5-1.5,7.2-1.5c4.6,0,8,1.2,10.4,3.7c2.4,2.5,3.6,6,3.6,10.7V113.4z"/>
	<path class="st1" d="M376,63.9c0-3.5,1.9-5.2,5.8-5.2s5.8,1.7,5.8,5.2c0,1.7-0.5,3-1.5,3.9c-1,0.9-2.4,1.4-4.4,1.4
		C378,69.2,376,67.4,376,63.9z M387.2,113.4h-10.7V74.1h10.7V113.4z"/>
	<path class="st1" d="M434.7,113.4H424v-23c0-2.8-0.5-5-1.5-6.4c-1-1.4-2.6-2.1-4.8-2.1c-3,0-5.2,1-6.5,3s-2,5.3-2,10v18.5h-10.7
		V74.1h8.2l1.4,5h0.6c1.2-1.9,2.8-3.3,4.9-4.3c2.1-1,4.5-1.5,7.2-1.5c4.6,0,8,1.2,10.4,3.7c2.4,2.5,3.6,6,3.6,10.7V113.4z"/>
	<path class="st1" d="M480.1,113.5c0,5.6-1.6,9.9-4.9,12.8s-8.2,4.4-14.7,4.4c-5.7,0-10.6-0.8-14.7-2.3v-8.6c4.8,2,9.9,3,15.3,3
		c5.5,0,8.3-3,8.3-8.9v-0.8l0.3-4.8h-0.3c-2.5,3.9-6.2,5.8-11.1,5.8c-4.7,0-8.4-1.8-11-5.4c-2.6-3.6-3.9-8.6-3.9-14.8
		c0-6.4,1.3-11.5,4-15.1c2.7-3.6,6.4-5.4,11.1-5.4c4.8,0,8.6,1.9,11.4,5.8h0.3l0.9-5h9.1V113.5z M462,105.7c2.9,0,4.9-0.8,6.2-2.5
		s1.9-4.3,1.9-8v-1.3c0-4.2-0.7-7.2-2-9.1c-1.3-1.8-3.4-2.8-6.3-2.8c-5,0-7.6,4-7.6,11.9c0,3.9,0.6,6.9,1.9,8.8
		C457.4,104.7,459.4,105.7,462,105.7z"/>
	<path class="st2" d="M187.7,297h-33.6v-92.1l0.3-15.1l0.5-16.6c-5.6,5.6-9.5,9.3-11.7,11L125,198.9l-16.2-20.3l51.3-40.8h27.7V297z
		"/>
	<path class="st2" d="M342.4,217.4c0,27.8-4.6,48.4-13.7,61.7c-9.1,13.4-23.1,20-42.1,20c-18.4,0-32.2-6.9-41.5-20.7
		c-9.3-13.8-14-34.2-14-61.1c0-28.1,4.5-48.8,13.6-62.1c9.1-13.3,23-20,41.9-20c18.4,0,32.2,7,41.6,20.9
		C337.7,170.1,342.4,190.5,342.4,217.4z M264.6,217.4c0,19.5,1.7,33.5,5.1,42c3.4,8.5,9.1,12.7,17,12.7c7.8,0,13.5-4.3,17-12.8
		s5.2-22.5,5.2-41.8c0-19.5-1.8-33.6-5.3-42.1c-3.5-8.5-9.2-12.8-16.9-12.8c-7.9,0-13.6,4.3-17,12.8
		C266.3,183.8,264.6,197.9,264.6,217.4z"/>
	<path class="st2" d="M442.7,297h-33.6v-92.1l0.3-15.1l0.5-16.6c-5.6,5.6-9.5,9.3-11.7,11L380,198.9l-16.2-20.3l51.3-40.8h27.7V297z
		"/>
</g>
<circle class="st3" cx="80.7" cy="183.1" r="6.5"/>
<circle class="st3" cx="82.3" cy="166.8" r="6.5"/>
<circle class="st0" cx="82.3" cy="166.8" r="4.3"/>
<circle class="st0" cx="80.7" cy="183.1" r="4.3"/>
<path class="st3" d="M107.6,187l-23.7-15.7l-4.7,1.2l23.2,15.3c0.4,0.2,0.7,0.4,1.2,0.6C104.9,188.9,106.5,188.8,107.6,187z"/>
<path class="st3" d="M106.7,171.2l-26.9,5.5l4.1,2.9l27.9-5.7c-0.4-2.1-2.1-2.7-3.7-2.8C107.7,171.1,107.2,171.1,106.7,171.2z"/>
<polygon class="st1" points="109.1,178.9 125.3,198.9 142,185.6 "/>
<polygon class="st4" points="109,178.5 131.5,171 142,185.6 "/>
<rect x="44.4" y="37.5" class="st5" width="488.7" height="291"/>
</svg>