<!-- Generator: Adobe Illustrator 19.0.0, SVG Export Plug-In  -->
<svg version="1.1"
	 xmlns="http://www.w3.org/2000/svg" xmlns:xlink="http://www.w3.org/1999/xlink" xmlns:a="http://ns.adobe.com/AdobeSVGViewerExtensions/3.0/"
	 x="0px" y="0px" width="230.2px" height="124.5px" viewBox="0 0 230.2 124.5" style="enable-background:new 0 0 230.2 124.5;"
	 xml:space="preserve">
<style type="text/css">
	.st0{fill:#FF6633;}
	.st1{fill:#FFFFFF;}
	.st2{fill:none;stroke:#FFFFFF;stroke-width:2;stroke-linecap:round;stroke-linejoin:round;stroke-miterlimit:10;}
	.st3{fill:#FFFFFF;stroke:#FFFFFF;stroke-width:0.9939;stroke-miterlimit:10;}
</style>
<defs>
</defs>
<circle id="XMLID_127_" class="st0" cx="8.4" cy="8.4" r="8.4"/>
<g id="XMLID_123_">
	<path id="XMLID_124_" class="st1" d="M11,10.5h-1v2H8v-2H4v-1l4.2-6H10v6h1V10.5z M8,9.5V7.9c0-0.2,0.1-0.4,0.1-0.8
		s0.1-0.6,0.1-0.6h0C8,6.5,7.8,7,7.6,7.3L6,9.5H8z"/>
</g>
<polygon id="XMLID_122_" class="st2" points="174.5,123.5 200.7,59.4 229.2,123.5 "/>
<line id="XMLID_121_" class="st2" x1="196" y1="53.5" x2="203" y2="53.5"/>
<line id="XMLID_120_" class="st2" x1="197" y1="50.7" x2="202" y2="55.7"/>
<line id="XMLID_119_" class="st2" x1="202.3" y1="50.7" x2="197.4" y2="55.7"/>
<path id="XMLID_118_" class="st0" d="M153,63.3c0,0-1.1,5.5-6.5,6.3c5.5,0.8,6.5,6.3,6.5,6.3s1.1-5.5,6.5-6.3
	C154.1,68.8,153,63.3,153,63.3"/>
<path id="XMLID_117_" class="st0" d="M168.9,93.8c0,0-1.1,5.5-6.5,6.3c5.5,0.8,6.5,6.3,6.5,6.3s1.1-5.5,6.5-6.3
	C170,99.3,168.9,93.8,168.9,93.8"/>
<path id="XMLID_113_" class="st0" d="M145.1,78.3c0,0-2.6,13.5-16,15.5c13.5,2,16,15.5,16,15.5s2.6-13.5,16-15.5
	C147.7,91.8,145.1,78.3,145.1,78.3 M145.1,82.5c0.5,1.1,1.1,2.3,1.9,3.5c2.3,3.6,5.5,6.3,9.3,7.8c-3.8,1.5-6.9,4.2-9.3,7.8
	c-0.8,1.2-1.4,2.5-1.9,3.5c-0.5-1.1-1.1-2.3-1.9-3.5c-2.3-3.6-5.5-6.3-9.3-7.8c3.8-1.5,6.9-4.2,9.3-7.8
	C144,84.7,144.7,83.5,145.1,82.5"/>
<path id="XMLID_112_" class="st3" d="M135.1,85.4c-0.6-1.3-1.7-2.9-3.7-3.9c2-0.9,3.1-2.6,3.7-3.9c0.6,1.3,1.7,2.9,3.7,3.9
	C136.8,82.4,135.7,84.1,135.1,85.4z"/>
<circle id="XMLID_111_" class="st1" cx="158" cy="110" r="3.2"/>
<g id="XMLID_15_">
	<path id="XMLID_109_" class="st1" d="M34.8,13.5H32l-3-4.8l-1,0.7v4.1h-2.4V2.1H28v5.2l1-1.3L32,2.1h2.7l-4,5.1L34.8,13.5z"/>
	<path id="XMLID_106_" class="st1" d="M40,13.6c-1.4,0-2.5-0.4-3.3-1.2c-0.8-0.8-1.2-1.9-1.2-3.3c0-1.5,0.4-2.6,1.1-3.4
		c0.7-0.8,1.7-1.2,3-1.2c1.2,0,2.2,0.4,2.9,1.1s1,1.7,1,2.9v1.2h-5.6c0,0.7,0.2,1.2,0.6,1.6c0.4,0.4,0.9,0.6,1.6,0.6
		c0.5,0,1-0.1,1.5-0.2s1-0.3,1.5-0.5V13c-0.4,0.2-0.9,0.4-1.3,0.5S40.6,13.6,40,13.6z M39.6,6.3c-0.5,0-0.9,0.2-1.2,0.5
		S38,7.5,37.9,8.1h3.3c0-0.6-0.2-1-0.5-1.4S40.1,6.3,39.6,6.3z"/>
	<path id="XMLID_104_" class="st1" d="M51.5,10.9c0,0.9-0.3,1.6-0.9,2s-1.6,0.7-2.8,0.7c-0.6,0-1.2,0-1.6-0.1s-0.9-0.2-1.3-0.4v-2
		c0.4,0.2,0.9,0.4,1.5,0.5s1,0.2,1.5,0.2c0.9,0,1.3-0.3,1.3-0.8c0-0.2-0.1-0.3-0.2-0.5s-0.3-0.3-0.6-0.4s-0.7-0.3-1.1-0.5
		c-0.7-0.3-1.2-0.5-1.5-0.8c-0.3-0.2-0.5-0.5-0.7-0.8C45,7.9,44.9,7.5,44.9,7c0-0.8,0.3-1.4,0.9-1.8c0.6-0.4,1.5-0.6,2.6-0.6
		c1.1,0,2.1,0.2,3.1,0.7L50.7,7c-0.4-0.2-0.8-0.3-1.2-0.5c-0.4-0.1-0.8-0.2-1.2-0.2c-0.7,0-1.1,0.2-1.1,0.6c0,0.2,0.1,0.4,0.3,0.6
		s0.7,0.4,1.5,0.7c0.7,0.3,1.2,0.5,1.5,0.8c0.3,0.2,0.6,0.5,0.7,0.8S51.5,10.5,51.5,10.9z"/>
	<path id="XMLID_101_" class="st1" d="M57.4,13.6c-1.4,0-2.5-0.4-3.3-1.2c-0.8-0.8-1.2-1.9-1.2-3.3c0-1.5,0.4-2.6,1.1-3.4
		c0.7-0.8,1.7-1.2,3-1.2c1.2,0,2.2,0.4,2.9,1.1s1,1.7,1,2.9v1.2h-5.6c0,0.7,0.2,1.2,0.6,1.6c0.4,0.4,0.9,0.6,1.6,0.6
		c0.5,0,1-0.1,1.5-0.2s1-0.3,1.5-0.5V13c-0.4,0.2-0.9,0.4-1.3,0.5S58,13.6,57.4,13.6z M57,6.3c-0.5,0-0.9,0.2-1.2,0.5
		s-0.5,0.8-0.5,1.4h3.3c0-0.6-0.2-1-0.5-1.4S57.5,6.3,57,6.3z"/>
	<path id="XMLID_99_" class="st1" d="M70.7,13.5h-2.4V8.4c0-0.6-0.1-1.1-0.3-1.4c-0.2-0.3-0.5-0.5-1-0.5c-0.6,0-1.1,0.2-1.3,0.7
		c-0.3,0.4-0.4,1.2-0.4,2.2v4.1h-2.4V4.8h1.8L65,5.9h0.1c0.2-0.4,0.6-0.7,1-0.9s1-0.3,1.5-0.3c1.3,0,2.2,0.4,2.7,1.3h0.2
		c0.2-0.4,0.6-0.7,1-0.9c0.5-0.2,1-0.3,1.5-0.3c1,0,1.7,0.3,2.2,0.8s0.8,1.3,0.8,2.4v5.7h-2.4V8.4c0-0.6-0.1-1.1-0.3-1.4
		c-0.2-0.3-0.5-0.5-1-0.5c-0.6,0-1,0.2-1.3,0.6c-0.3,0.4-0.4,1.1-0.4,2V13.5z"/>
	<path id="XMLID_96_" class="st1" d="M83.4,13.6c-1,0-1.8-0.4-2.4-1.1h-0.1c0.1,0.7,0.1,1.2,0.1,1.3v3.5h-2.4V4.8h1.9l0.3,1.1H81
		c0.6-0.9,1.4-1.3,2.5-1.3c1,0,1.8,0.4,2.4,1.2s0.9,1.9,0.9,3.3c0,0.9-0.1,1.7-0.4,2.4s-0.7,1.2-1.2,1.6S84,13.6,83.4,13.6z
		 M82.7,6.5c-0.6,0-1,0.2-1.3,0.5C81.1,7.4,81,8,81,8.8v0.3c0,0.9,0.1,1.6,0.4,2s0.7,0.6,1.3,0.6c1.1,0,1.6-0.9,1.6-2.6
		c0-0.9-0.1-1.5-0.4-1.9S83.2,6.5,82.7,6.5z"/>
	<path id="XMLID_93_" class="st1" d="M94.2,13.5l-0.5-1.2h-0.1c-0.4,0.5-0.8,0.9-1.2,1.1s-1,0.3-1.7,0.3c-0.8,0-1.5-0.2-2-0.7
		c-0.5-0.5-0.7-1.2-0.7-2c0-0.9,0.3-1.6,1-2.1c0.6-0.4,1.6-0.7,2.9-0.7l1.5,0V7.7c0-0.9-0.5-1.3-1.4-1.3c-0.7,0-1.5,0.2-2.5,0.6
		l-0.8-1.6c1-0.5,2.1-0.8,3.3-0.8c1.2,0,2.1,0.3,2.7,0.8c0.6,0.5,0.9,1.3,0.9,2.3v5.8H94.2z M93.5,9.4l-0.9,0
		c-0.7,0-1.2,0.1-1.5,0.4c-0.3,0.2-0.5,0.6-0.5,1c0,0.7,0.4,1,1.2,1c0.6,0,1-0.2,1.3-0.5c0.3-0.3,0.5-0.7,0.5-1.3V9.4z"/>
	<path id="XMLID_91_" class="st1" d="M102,11.7c0.4,0,0.9-0.1,1.5-0.3v1.8c-0.6,0.3-1.3,0.4-2.2,0.4c-1,0-1.6-0.2-2.1-0.7
		c-0.4-0.5-0.7-1.2-0.7-2.2V6.5h-1.1v-1l1.3-0.8l0.7-1.8h1.5v1.9h2.4v1.8H101v4.2c0,0.3,0.1,0.6,0.3,0.8
		C101.5,11.7,101.7,11.7,102,11.7z"/>
	<path id="XMLID_88_" class="st1" d="M110.9,13.5l-0.5-1.2h-0.1c-0.4,0.5-0.8,0.9-1.2,1.1s-1,0.3-1.7,0.3c-0.8,0-1.5-0.2-2-0.7
		c-0.5-0.5-0.7-1.2-0.7-2c0-0.9,0.3-1.6,1-2.1c0.6-0.4,1.6-0.7,2.9-0.7l1.5,0V7.7c0-0.9-0.5-1.3-1.4-1.3c-0.7,0-1.5,0.2-2.5,0.6
		l-0.8-1.6c1-0.5,2.1-0.8,3.3-0.8c1.2,0,2.1,0.3,2.7,0.8c0.6,0.5,0.9,1.3,0.9,2.3v5.8H110.9z M110.1,9.4l-0.9,0
		c-0.7,0-1.2,0.1-1.5,0.4c-0.3,0.2-0.5,0.6-0.5,1c0,0.7,0.4,1,1.2,1c0.6,0,1-0.2,1.3-0.5c0.3-0.3,0.5-0.7,0.5-1.3V9.4z"/>
	<path id="XMLID_86_" class="st1" d="M123,13.5h-2.4V8.4c0-0.6-0.1-1.1-0.3-1.4c-0.2-0.3-0.6-0.5-1.1-0.5c-0.7,0-1.1,0.2-1.4,0.7
		s-0.4,1.2-0.4,2.2v4.1H115V4.8h1.8l0.3,1.1h0.1c0.3-0.4,0.6-0.7,1.1-1c0.5-0.2,1-0.3,1.6-0.3c1,0,1.8,0.3,2.3,0.8
		c0.5,0.5,0.8,1.3,0.8,2.4V13.5z"/>
	<path id="XMLID_84_" class="st1" d="M131.9,8.7l1-1.3l2.4-2.7h2.7l-3.5,3.8l3.7,4.9h-2.8L133,10l-1,0.8v2.7h-2.4V1.3h2.4v5.4
		L131.9,8.7L131.9,8.7z"/>
	<path id="XMLID_82_" class="st1" d="M147.6,13.5h-2.4V8.4c0-1.3-0.5-1.9-1.4-1.9c-0.7,0-1.1,0.2-1.4,0.7s-0.4,1.2-0.4,2.2v4.1h-2.4
		V1.3h2.4v2.5c0,0.2,0,0.6-0.1,1.4l-0.1,0.7h0.1c0.5-0.9,1.4-1.3,2.5-1.3c1,0,1.8,0.3,2.3,0.8c0.5,0.6,0.8,1.3,0.8,2.4V13.5z"/>
	<path id="XMLID_80_" class="st1" d="M156.3,13.5l-0.3-1.1h-0.1c-0.3,0.4-0.6,0.7-1.1,0.9s-1,0.3-1.6,0.3c-1,0-1.8-0.3-2.3-0.8
		c-0.5-0.5-0.8-1.3-0.8-2.4V4.8h2.4v5.1c0,0.6,0.1,1.1,0.3,1.4c0.2,0.3,0.6,0.5,1.1,0.5c0.7,0,1.1-0.2,1.4-0.7s0.4-1.2,0.4-2.2V4.8
		h2.4v8.7H156.3z"/>
	<path id="XMLID_78_" class="st1" d="M166.7,10.9c0,0.9-0.3,1.6-0.9,2s-1.6,0.7-2.8,0.7c-0.6,0-1.2,0-1.6-0.1s-0.9-0.2-1.3-0.4v-2
		c0.4,0.2,0.9,0.4,1.5,0.5s1,0.2,1.5,0.2c0.9,0,1.3-0.3,1.3-0.8c0-0.2-0.1-0.3-0.2-0.5s-0.3-0.3-0.6-0.4s-0.7-0.3-1.1-0.5
		c-0.7-0.3-1.2-0.5-1.5-0.8c-0.3-0.2-0.5-0.5-0.7-0.8c-0.1-0.3-0.2-0.7-0.2-1.1c0-0.8,0.3-1.4,0.9-1.8c0.6-0.4,1.5-0.6,2.6-0.6
		c1.1,0,2.1,0.2,3.1,0.7L165.9,7c-0.4-0.2-0.8-0.3-1.2-0.5c-0.4-0.1-0.8-0.2-1.2-0.2c-0.7,0-1.1,0.2-1.1,0.6c0,0.2,0.1,0.4,0.3,0.6
		s0.7,0.4,1.5,0.7c0.7,0.3,1.2,0.5,1.5,0.8c0.3,0.2,0.6,0.5,0.7,0.8S166.7,10.5,166.7,10.9z"/>
	<path id="XMLID_76_" class="st1" d="M174.7,13.5l-0.3-1.1h-0.1c-0.3,0.4-0.6,0.7-1.1,0.9s-1,0.3-1.6,0.3c-1,0-1.8-0.3-2.3-0.8
		c-0.5-0.5-0.8-1.3-0.8-2.4V4.8h2.4v5.1c0,0.6,0.1,1.1,0.3,1.4c0.2,0.3,0.6,0.5,1.1,0.5c0.7,0,1.1-0.2,1.4-0.7s0.4-1.2,0.4-2.2V4.8
		h2.4v8.7H174.7z"/>
	<path id="XMLID_74_" class="st1" d="M185.2,10.9c0,0.9-0.3,1.6-0.9,2s-1.6,0.7-2.8,0.7c-0.6,0-1.2,0-1.6-0.1s-0.9-0.2-1.3-0.4v-2
		c0.4,0.2,0.9,0.4,1.5,0.5s1,0.2,1.5,0.2c0.9,0,1.3-0.3,1.3-0.8c0-0.2-0.1-0.3-0.2-0.5s-0.3-0.3-0.6-0.4s-0.7-0.3-1.1-0.5
		c-0.7-0.3-1.2-0.5-1.5-0.8c-0.3-0.2-0.5-0.5-0.7-0.8c-0.1-0.3-0.2-0.7-0.2-1.1c0-0.8,0.3-1.4,0.9-1.8c0.6-0.4,1.5-0.6,2.6-0.6
		c1.1,0,2.1,0.2,3.1,0.7L184.3,7c-0.4-0.2-0.8-0.3-1.2-0.5c-0.4-0.1-0.8-0.2-1.2-0.2c-0.7,0-1.1,0.2-1.1,0.6c0,0.2,0.1,0.4,0.3,0.6
		s0.7,0.4,1.5,0.7c0.7,0.3,1.2,0.5,1.5,0.8c0.3,0.2,0.6,0.5,0.7,0.8S185.2,10.5,185.2,10.9z"/>
	<path id="XMLID_72_" class="st1" d="M28.9,30.5c-2.7,0-4.1-1.5-4.1-4.5c0-1.5,0.4-2.6,1.1-3.4c0.7-0.8,1.8-1.2,3.2-1.2
		c1,0,1.9,0.2,2.7,0.6l-0.7,1.8c-0.4-0.2-0.7-0.3-1-0.4c-0.3-0.1-0.6-0.1-1-0.1c-1.2,0-1.9,0.9-1.9,2.6c0,1.7,0.6,2.6,1.9,2.6
		c0.5,0,0.9-0.1,1.3-0.2c0.4-0.1,0.8-0.3,1.2-0.6v2c-0.4,0.2-0.8,0.4-1.2,0.5S29.5,30.5,28.9,30.5z"/>
	<path id="XMLID_69_" class="st1" d="M41.5,26c0,1.4-0.4,2.5-1.1,3.3c-0.8,0.8-1.8,1.2-3.1,1.2c-0.8,0-1.6-0.2-2.2-0.6
		s-1.1-0.9-1.5-1.6s-0.5-1.5-0.5-2.4c0-1.4,0.4-2.5,1.1-3.3c0.7-0.8,1.8-1.2,3.1-1.2c0.8,0,1.6,0.2,2.2,0.5c0.6,0.4,1.1,0.9,1.5,1.6
		C41.4,24.3,41.5,25.1,41.5,26z M35.5,26c0,0.9,0.1,1.5,0.4,2c0.3,0.4,0.7,0.7,1.4,0.7c0.6,0,1.1-0.2,1.4-0.7c0.3-0.4,0.4-1.1,0.4-2
		c0-0.9-0.1-1.5-0.4-1.9c-0.3-0.4-0.7-0.6-1.4-0.6c-0.6,0-1.1,0.2-1.4,0.6S35.5,25.1,35.5,26z"/>
	<path id="XMLID_67_" class="st1" d="M51.6,30.4h-2.4v-5.1c0-0.6-0.1-1.1-0.3-1.4c-0.2-0.3-0.6-0.5-1.1-0.5c-0.7,0-1.1,0.2-1.4,0.7
		s-0.4,1.2-0.4,2.2v4.1h-2.4v-8.7h1.8l0.3,1.1h0.1c0.3-0.4,0.6-0.7,1.1-1c0.5-0.2,1-0.3,1.6-0.3c1,0,1.8,0.3,2.3,0.8
		c0.5,0.5,0.8,1.3,0.8,2.4V30.4z"/>
	<path id="XMLID_65_" class="st1" d="M57.7,28.6c0.4,0,0.9-0.1,1.5-0.3v1.8c-0.6,0.3-1.3,0.4-2.2,0.4c-1,0-1.6-0.2-2.1-0.7
		c-0.4-0.5-0.7-1.2-0.7-2.2v-4.2h-1.1v-1l1.3-0.8l0.7-1.8h1.5v1.9h2.4v1.8h-2.4v4.2c0,0.3,0.1,0.6,0.3,0.8
		C57.1,28.6,57.4,28.6,57.7,28.6z"/>
	<path id="XMLID_62_" class="st1" d="M68.9,26c0,1.4-0.4,2.5-1.1,3.3c-0.8,0.8-1.8,1.2-3.1,1.2c-0.8,0-1.6-0.2-2.2-0.6
		s-1.1-0.9-1.5-1.6s-0.5-1.5-0.5-2.4c0-1.4,0.4-2.5,1.1-3.3c0.7-0.8,1.8-1.2,3.1-1.2c0.8,0,1.6,0.2,2.2,0.5c0.6,0.4,1.1,0.9,1.5,1.6
		C68.7,24.3,68.9,25.1,68.9,26z M62.9,26c0,0.9,0.1,1.5,0.4,2c0.3,0.4,0.7,0.7,1.4,0.7c0.6,0,1.1-0.2,1.4-0.7c0.3-0.4,0.4-1.1,0.4-2
		c0-0.9-0.1-1.5-0.4-1.9c-0.3-0.4-0.7-0.6-1.4-0.6c-0.6,0-1.1,0.2-1.4,0.6S62.9,25.1,62.9,26z"/>
	<path id="XMLID_60_" class="st1" d="M78.9,30.4h-2.4v-5.1c0-1.3-0.5-1.9-1.4-1.9c-0.7,0-1.1,0.2-1.4,0.7s-0.4,1.2-0.4,2.2v4.1h-2.4
		V18.2h2.4v2.5c0,0.2,0,0.6-0.1,1.4l-0.1,0.7h0.1c0.5-0.9,1.4-1.3,2.5-1.3c1,0,1.8,0.3,2.3,0.8c0.5,0.6,0.8,1.3,0.8,2.4V30.4z"/>
	<path id="XMLID_58_" class="st1" d="M89.5,30.4h-2.4v-5.1c0-0.6-0.1-1.1-0.3-1.4c-0.2-0.3-0.6-0.5-1.1-0.5c-0.7,0-1.1,0.2-1.4,0.7
		s-0.4,1.2-0.4,2.2v4.1h-2.4v-8.7h1.8l0.3,1.1h0.1c0.3-0.4,0.6-0.7,1.1-1c0.5-0.2,1-0.3,1.6-0.3c1,0,1.8,0.3,2.3,0.8
		c0.5,0.5,0.8,1.3,0.8,2.4V30.4z"/>
	<path id="XMLID_56_" class="st1" d="M90.7,21.6h2.6l1.6,4.9c0.1,0.4,0.2,0.9,0.3,1.5h0c0.1-0.5,0.2-1,0.3-1.5l1.6-4.9h2.6l-3.7,9.9
		c-0.3,0.9-0.8,1.6-1.4,2s-1.4,0.7-2.2,0.7c-0.4,0-0.8,0-1.2-0.1v-1.9c0.3,0.1,0.6,0.1,0.9,0.1c0.4,0,0.8-0.1,1.1-0.4
		s0.6-0.6,0.7-1.2l0.1-0.4L90.7,21.6z"/>
	<path id="XMLID_53_" class="st1" d="M106.6,30.4l-0.5-1.2H106c-0.4,0.5-0.8,0.9-1.2,1.1s-1,0.3-1.7,0.3c-0.8,0-1.5-0.2-2-0.7
		c-0.5-0.5-0.7-1.2-0.7-2c0-0.9,0.3-1.6,1-2.1c0.6-0.4,1.6-0.7,2.9-0.7l1.5,0v-0.4c0-0.9-0.5-1.3-1.4-1.3c-0.7,0-1.5,0.2-2.5,0.6
		l-0.8-1.6c1-0.5,2.1-0.8,3.3-0.8c1.2,0,2.1,0.3,2.7,0.8c0.6,0.5,0.9,1.3,0.9,2.3v5.8H106.6z M105.9,26.3l-0.9,0
		c-0.7,0-1.2,0.1-1.5,0.4c-0.3,0.2-0.5,0.6-0.5,1c0,0.7,0.4,1,1.2,1c0.6,0,1-0.2,1.3-0.5c0.3-0.3,0.5-0.7,0.5-1.3V26.3z"/>
	<path id="XMLID_50_" class="st1" d="M110.3,22.8c0-0.4,0.1-0.8,0.4-1c0.2-0.2,0.6-0.3,1-0.3c0.4,0,0.8,0.1,1,0.3
		c0.2,0.2,0.4,0.6,0.4,1c0,0.4-0.1,0.7-0.4,1c-0.2,0.2-0.6,0.3-1,0.3c-0.4,0-0.8-0.1-1-0.3C110.5,23.6,110.3,23.2,110.3,22.8z
		 M110.3,29.3c0-0.4,0.1-0.8,0.4-1c0.2-0.2,0.6-0.3,1-0.3c0.4,0,0.8,0.1,1,0.3c0.2,0.2,0.4,0.6,0.4,1c0,0.4-0.1,0.7-0.4,1
		s-0.6,0.4-1,0.4c-0.4,0-0.8-0.1-1-0.3S110.3,29.7,110.3,29.3z"/>
	<path id="XMLID_48_" class="st1" d="M34.9,47.3h-2.4v-4.9H28v4.9h-2.4V35.8H28v4.5h4.5v-4.5h2.4V47.3z"/>
	<path id="XMLID_45_" class="st1" d="M43.2,47.3l-0.5-1.2h-0.1c-0.4,0.5-0.8,0.9-1.2,1.1s-1,0.3-1.7,0.3c-0.8,0-1.5-0.2-2-0.7
		c-0.5-0.5-0.7-1.2-0.7-2c0-0.9,0.3-1.6,1-2.1c0.6-0.4,1.6-0.7,2.9-0.7l1.5,0v-0.4c0-0.9-0.5-1.3-1.4-1.3c-0.7,0-1.5,0.2-2.5,0.6
		l-0.8-1.6c1-0.5,2.1-0.8,3.3-0.8c1.2,0,2.1,0.3,2.7,0.8c0.6,0.5,0.9,1.3,0.9,2.3v5.8H43.2z M42.5,43.2l-0.9,0
		c-0.7,0-1.2,0.1-1.5,0.4c-0.3,0.2-0.5,0.6-0.5,1c0,0.7,0.4,1,1.2,1c0.6,0,1-0.2,1.3-0.5c0.3-0.3,0.5-0.7,0.5-1.3V43.2z"/>
	<path id="XMLID_43_" class="st1" d="M52.2,38.4c0.3,0,0.6,0,0.8,0.1l-0.2,2.2c-0.2-0.1-0.4-0.1-0.7-0.1c-0.8,0-1.4,0.2-1.8,0.6
		s-0.6,0.9-0.6,1.6v4.4h-2.4v-8.7h1.8l0.4,1.5h0.1c0.3-0.5,0.6-0.9,1.1-1.2C51.1,38.5,51.6,38.4,52.2,38.4z"/>
	<path id="XMLID_40_" class="st1" d="M54.4,36.3c0-0.8,0.4-1.2,1.3-1.2s1.3,0.4,1.3,1.2c0,0.4-0.1,0.7-0.3,0.9
		c-0.2,0.2-0.5,0.3-1,0.3C54.9,37.4,54.4,37.1,54.4,36.3z M56.9,47.3h-2.4v-8.7h2.4V47.3z"/>
	<path id="XMLID_38_" class="st1" d="M70.3,35.8h2.4l-3.9,11.4h-2.6l-3.9-11.4h2.4l2.1,6.8c0.1,0.4,0.2,0.9,0.4,1.4
		c0.1,0.5,0.2,0.9,0.2,1.1c0.1-0.5,0.3-1.3,0.6-2.5L70.3,35.8z"/>
	<path id="XMLID_35_" class="st1" d="M79.4,47.3l-0.5-1.2h-0.1c-0.4,0.5-0.8,0.9-1.2,1.1s-1,0.3-1.7,0.3c-0.8,0-1.5-0.2-2-0.7
		c-0.5-0.5-0.7-1.2-0.7-2c0-0.9,0.3-1.6,1-2.1c0.6-0.4,1.6-0.7,2.9-0.7l1.5,0v-0.4c0-0.9-0.5-1.3-1.4-1.3c-0.7,0-1.5,0.2-2.5,0.6
		l-0.8-1.6c1-0.5,2.1-0.8,3.3-0.8c1.2,0,2.1,0.3,2.7,0.8c0.6,0.5,0.9,1.3,0.9,2.3v5.8H79.4z M78.7,43.2l-0.9,0
		c-0.7,0-1.2,0.1-1.5,0.4c-0.3,0.2-0.5,0.6-0.5,1c0,0.7,0.4,1,1.2,1c0.6,0,1-0.2,1.3-0.5c0.3-0.3,0.5-0.7,0.5-1.3V43.2z"/>
	<path id="XMLID_33_" class="st1" d="M85.9,47.3h-2.4V35.1h2.4V47.3z"/>
	<path id="XMLID_30_" class="st1" d="M92.3,47.4c-1.4,0-2.5-0.4-3.3-1.2c-0.8-0.8-1.2-1.9-1.2-3.3c0-1.5,0.4-2.6,1.1-3.4
		c0.7-0.8,1.7-1.2,3-1.2c1.2,0,2.2,0.4,2.9,1.1s1,1.7,1,2.9v1.2h-5.6c0,0.7,0.2,1.2,0.6,1.6c0.4,0.4,0.9,0.6,1.6,0.6
		c0.5,0,1-0.1,1.5-0.2s1-0.3,1.5-0.5v1.8c-0.4,0.2-0.9,0.4-1.3,0.5S93,47.4,92.3,47.4z M92,40.1c-0.5,0-0.9,0.2-1.2,0.5
		s-0.5,0.8-0.5,1.4h3.3c0-0.6-0.2-1-0.5-1.4S92.5,40.1,92,40.1z"/>
	<path id="XMLID_28_" class="st1" d="M105.9,47.3h-2.4v-5.1c0-0.6-0.1-1.1-0.3-1.4c-0.2-0.3-0.6-0.5-1.1-0.5c-0.7,0-1.1,0.2-1.4,0.7
		s-0.4,1.2-0.4,2.2v4.1h-2.4v-8.7h1.8l0.3,1.1h0.1c0.3-0.4,0.6-0.7,1.1-1c0.5-0.2,1-0.3,1.6-0.3c1,0,1.8,0.3,2.3,0.8
		c0.5,0.5,0.8,1.3,0.8,2.4V47.3z"/>
	<path id="XMLID_26_" class="st1" d="M112,45.5c0.4,0,0.9-0.1,1.5-0.3V47c-0.6,0.3-1.3,0.4-2.2,0.4c-1,0-1.6-0.2-2.1-0.7
		c-0.4-0.5-0.7-1.2-0.7-2.2v-4.2h-1.1v-1l1.3-0.8l0.7-1.8h1.5v1.9h2.4v1.8H111v4.2c0,0.3,0.1,0.6,0.3,0.8
		C111.5,45.4,111.7,45.5,112,45.5z"/>
	<path id="XMLID_23_" class="st1" d="M115.2,36.3c0-0.8,0.4-1.2,1.3-1.2s1.3,0.4,1.3,1.2c0,0.4-0.1,0.7-0.3,0.9
		c-0.2,0.2-0.5,0.3-1,0.3C115.6,37.4,115.2,37.1,115.2,36.3z M117.7,47.3h-2.4v-8.7h2.4V47.3z"/>
	<path id="XMLID_21_" class="st1" d="M128.2,47.3h-2.4v-5.1c0-0.6-0.1-1.1-0.3-1.4c-0.2-0.3-0.6-0.5-1.1-0.5c-0.7,0-1.1,0.2-1.4,0.7
		s-0.4,1.2-0.4,2.2v4.1h-2.4v-8.7h1.8l0.3,1.1h0.1c0.3-0.4,0.6-0.7,1.1-1c0.5-0.2,1-0.3,1.6-0.3c1,0,1.8,0.3,2.3,0.8
		c0.5,0.5,0.8,1.3,0.8,2.4V47.3z"/>
	<path id="XMLID_18_" class="st1" d="M134.6,47.4c-1.4,0-2.5-0.4-3.3-1.2c-0.8-0.8-1.2-1.9-1.2-3.3c0-1.5,0.4-2.6,1.1-3.4
		c0.7-0.8,1.7-1.2,3-1.2c1.2,0,2.2,0.4,2.9,1.1s1,1.7,1,2.9v1.2h-5.6c0,0.7,0.2,1.2,0.6,1.6c0.4,0.4,0.9,0.6,1.6,0.6
		c0.5,0,1-0.1,1.5-0.2s1-0.3,1.5-0.5v1.8c-0.4,0.2-0.9,0.4-1.3,0.5S135.3,47.4,134.6,47.4z M134.3,40.1c-0.5,0-0.9,0.2-1.2,0.5
		s-0.5,0.8-0.5,1.4h3.3c0-0.6-0.2-1-0.5-1.4S134.8,40.1,134.3,40.1z"/>
	<path id="XMLID_16_" class="st1" d="M139.8,46.1c0-0.4,0.1-0.8,0.4-1c0.2-0.2,0.6-0.3,1-0.3c0.4,0,0.8,0.1,1,0.3
		c0.2,0.2,0.4,0.6,0.4,1c0,0.4-0.1,0.7-0.4,1s-0.6,0.4-1,0.4c-0.4,0-0.8-0.1-1-0.3S139.8,46.6,139.8,46.1z"/>
</g>
</svg>