<!-- Generator: Adobe Illustrator 19.0.0, SVG Export Plug-In  -->
<svg version="1.1"
	 xmlns="http://www.w3.org/2000/svg" xmlns:xlink="http://www.w3.org/1999/xlink" xmlns:a="http://ns.adobe.com/AdobeSVGViewerExtensions/3.0/"
	 x="0px" y="0px" width="282px" height="66px" viewBox="0 0 282 66" style="enable-background:new 0 0 282 66;"
	 xml:space="preserve">
<style type="text/css">
	.st0{fill:#FF6633;}
	.st1{fill:#FFFFFF;}
	.st2{fill:none;stroke:#FFFFFF;stroke-width:2;stroke-linecap:round;stroke-linejoin:round;stroke-miterlimit:10;}
	.st3{fill:none;stroke:#FF6633;stroke-width:2;stroke-miterlimit:10;}
	.st4{fill:none;stroke:#FFFFFF;stroke-width:2;stroke-miterlimit:10;}
	.st5{fill:#FFFFFF;stroke:#FFFFFF;stroke-width:0.7;stroke-miterlimit:10;}
</style>
<defs>
</defs>
<circle id="XMLID_90_" class="st0" cx="8.4" cy="21.2" r="8.4"/>
<g id="XMLID_87_">
	<path id="XMLID_88_" class="st1" d="M10.4,19.1c0,0.5,0.1,1-0.2,1.4S9,21.1,9,21.2v0c0,0.1,1,0.3,1.3,0.6s0.4,0.8,0.4,1.4
		c0,0.8-0.4,1.5-1,1.9s-1.3,0.7-2.4,0.7c-0.9,0-2.3-0.2-2.3-0.5v-1.5c0,0.2,0.5,0.3,0.9,0.4s0.7,0.2,1.1,0.2c0.6,0,1-0.1,1.3-0.3
		s0.4-0.5,0.4-1c0-0.4-0.2-0.7-0.5-0.9S7.4,22,6.7,22H6v-1h0.7c0.7,0,1.1-0.3,1.5-0.5s0.5-0.6,0.5-1c0-0.6-0.4-1-1.2-1
		c-0.3,0-0.6,0-0.9,0.1s-0.6,0.2-1,0.5l-0.8-1.3C5.5,17.3,6.4,17,7.5,17c0.9,0,1.6,0.2,2.1,0.5S10.4,18.4,10.4,19.1z"/>
</g>
<g id="XMLID_72_">
	<path id="XMLID_86_" class="st2" d="M252.3,34.7"/>
	<path id="XMLID_85_" class="st2" d="M239.9,46.2c0,0-2.5-13.6,9.5-21.1"/>
	<path id="XMLID_84_" class="st2" d="M246.6,35.3"/>
	<path id="XMLID_83_" class="st2" d="M247.4,32.7"/>
	<path id="XMLID_82_" class="st2" d="M240.9,16.9c0,0,7.4-0.2,11.8,6.4C252.7,23.3,252.8,11.2,240.9,16.9z"/>
	<path id="XMLID_81_" class="st2" d="M239.2,27.4c0,0,5.2-5.2,12.9-3.4C252.2,24,244,15.2,239.2,27.4z"/>
	<path id="XMLID_80_" class="st2" d="M266.2,27.5c0,0-5.2-5.2-13-3.4C253.2,24.1,261.4,15.2,266.2,27.5z"/>
	<path id="XMLID_79_" class="st2" d="M260.2,36.3c0,0,0-1-0.4-2.4c-0.1-0.5-0.3-1.2-0.6-1.8c-0.2-0.5-0.4-1-0.7-1.6
		c-1-1.9-2.7-4-5.4-5.6C253.1,25,265.1,24.2,260.2,36.3z"/>
	<path id="XMLID_77_" class="st2" d="M246.5,46.2c0,0-4.2-11.7,6.6-19.9"/>
	<circle id="XMLID_76_" class="st3" cx="269.4" cy="33.8" r="3.2"/>
	<polyline id="XMLID_75_" class="st4" points="245.6,48.6 252.2,40.2 257.2,44.4 262.5,39 274.8,48.6 	"/>
	<rect id="XMLID_74_" x="228" y="1" class="st3" width="53" height="64"/>
	<rect id="XMLID_73_" x="235" y="7" class="st3" width="40" height="42"/>
</g>
<g id="XMLID_15_">
	<g id="XMLID_17_">
		<path id="XMLID_42_" class="st5" d="M36.8,26l-1.4-3.5h-4.5L29.5,26H28l4.5-11.5h1.3L38.2,26H36.8z M35,21.1l-1.3-3.5L33.1,16
			c-0.2,0.6-0.3,1.2-0.5,1.7l-1.3,3.5H35z"/>
		<path id="XMLID_40_" class="st5" d="M41,21.5l0.5-0.6l0.5-0.7l2.7-2.9h1.6L43,21l3.7,4.9H45l-3-4l-1,0.9V26h-1.4V13.8H41v6.4V21.5
			L41,21.5z"/>
		<path id="XMLID_38_" class="st5" d="M54,26v-5.5c0-0.7-0.2-1.2-0.5-1.6c-0.3-0.3-0.8-0.5-1.5-0.5c-0.9,0-1.5,0.2-1.9,0.7
			s-0.6,1.3-0.6,2.4V26h-1.4V13.8h1.4v3.6c0,0.5,0,0.9-0.1,1.2h0.1c0.3-0.4,0.6-0.7,1.1-1s1-0.4,1.6-0.4c1,0,1.8,0.2,2.4,0.7
			c0.5,0.5,0.8,1.3,0.8,2.4V26H54z"/>
		<path id="XMLID_35_" class="st5" d="M58,15.1c0-0.3,0.1-0.5,0.2-0.7s0.4-0.2,0.6-0.2c0.2,0,0.4,0.1,0.6,0.2s0.2,0.4,0.2,0.7
			c0,0.3-0.1,0.5-0.2,0.7C59.2,15.9,59,16,58.8,16c-0.2,0-0.4-0.1-0.6-0.2C58,15.6,58,15.4,58,15.1z M59.5,26h-1.4v-8.6h1.4V26z"/>
		<path id="XMLID_33_" class="st5" d="M66.2,17.2c0.4,0,0.7,0,1,0.1L67,18.6c-0.3-0.1-0.6-0.1-0.9-0.1c-0.5,0-0.9,0.1-1.3,0.4
			s-0.7,0.6-0.9,1c-0.2,0.4-0.3,0.9-0.3,1.5V26h-1.4v-8.6h1.2l0.2,1.6h0.1c0.3-0.6,0.7-1,1.2-1.3C65.2,17.4,65.7,17.2,66.2,17.2z"/>
		<path id="XMLID_30_" class="st5" d="M77,26.1c-1.2,0-2-0.4-2.7-1.2h-0.1l0,0.3c0,0.4,0.1,0.8,0.1,1.1v3.5H73V17.4h1.2l0.2,1.2h0.1
			c0.3-0.5,0.7-0.8,1.2-1c0.4-0.2,0.9-0.3,1.5-0.3c1.1,0,2,0.4,2.6,1.2s0.9,1.9,0.9,3.3c0,1.4-0.3,2.5-0.9,3.3
			C79,25.7,78.1,26.1,77,26.1z M76.8,18.4c-0.8,0-1.5,0.2-1.8,0.7c-0.4,0.5-0.6,1.2-0.6,2.3v0.3c0,1.2,0.2,2,0.6,2.5
			c0.4,0.5,1,0.8,1.9,0.8c0.7,0,1.3-0.3,1.7-0.9c0.4-0.6,0.6-1.4,0.6-2.4c0-1-0.2-1.8-0.6-2.4S77.5,18.4,76.8,18.4z"/>
		<path id="XMLID_27_" class="st5" d="M86.4,26.1c-1.3,0-2.3-0.4-3-1.2c-0.7-0.8-1.1-1.9-1.1-3.2c0-1.4,0.3-2.5,1-3.3
			c0.7-0.8,1.6-1.2,2.8-1.2c1.1,0,1.9,0.3,2.6,1s1,1.6,1,2.8v0.9h-5.9c0,1,0.3,1.7,0.7,2.2c0.5,0.5,1.1,0.8,2,0.8
			c0.5,0,0.9,0,1.3-0.1c0.4-0.1,0.9-0.2,1.4-0.5v1.2c-0.5,0.2-0.9,0.3-1.3,0.4S87,26.1,86.4,26.1z M86.1,18.4
			c-0.7,0-1.2,0.2-1.6,0.6c-0.4,0.4-0.6,1-0.7,1.8h4.4c0-0.8-0.2-1.4-0.6-1.8C87.3,18.6,86.7,18.4,86.1,18.4z"/>
		<path id="XMLID_25_" class="st5" d="M93.2,21.5l0.5-0.6l0.5-0.7l2.7-2.9h1.6L95.1,21l3.7,4.9h-1.7l-3-4l-1,0.9V26h-1.4V13.8h1.4
			v6.4V21.5L93.2,21.5z"/>
		<path id="XMLID_22_" class="st5" d="M105.7,26l-0.3-1.2h-0.1c-0.4,0.5-0.9,0.9-1.3,1.1s-1,0.3-1.6,0.3c-0.8,0-1.5-0.2-2-0.7
			c-0.5-0.4-0.7-1.1-0.7-1.9c0-1.7,1.4-2.7,4.1-2.7l1.5-0.1v-0.5c0-0.7-0.1-1.1-0.4-1.4c-0.3-0.3-0.7-0.5-1.4-0.5
			c-0.5,0-0.9,0.1-1.3,0.2c-0.4,0.1-0.8,0.3-1.1,0.5l-0.4-1.1c0.4-0.2,0.9-0.4,1.4-0.5c0.5-0.1,1-0.2,1.5-0.2c1,0,1.8,0.2,2.3,0.7
			c0.5,0.5,0.8,1.2,0.8,2.2V26H105.7z M102.8,25c0.8,0,1.4-0.2,1.9-0.6c0.5-0.4,0.7-1,0.7-1.8v-0.8l-1.3,0.1c-1,0-1.7,0.2-2.2,0.5
			c-0.5,0.3-0.7,0.7-0.7,1.3c0,0.4,0.1,0.8,0.4,1C101.9,24.9,102.3,25,102.8,25z"/>
		<path id="XMLID_20_" class="st5" d="M115.2,26v-5.5c0-0.7-0.2-1.2-0.5-1.6c-0.3-0.3-0.8-0.5-1.5-0.5c-0.9,0-1.5,0.2-1.9,0.7
			c-0.4,0.5-0.6,1.3-0.6,2.4V26h-1.4v-8.6h1.1l0.2,1.2h0.1c0.3-0.4,0.6-0.7,1.1-1c0.5-0.2,1-0.3,1.6-0.3c1.1,0,1.8,0.3,2.3,0.8
			c0.5,0.5,0.8,1.3,0.8,2.4V26H115.2z"/>
		<path id="XMLID_18_" class="st5" d="M119,25.1c0-0.3,0.1-0.6,0.3-0.8c0.2-0.2,0.4-0.3,0.7-0.3c0.3,0,0.6,0.1,0.7,0.3
			c0.2,0.2,0.3,0.4,0.3,0.8c0,0.3-0.1,0.6-0.3,0.8s-0.4,0.3-0.7,0.3c-0.3,0-0.5-0.1-0.7-0.3S119,25.4,119,25.1z"/>
	</g>
</g>
</svg>