<!-- Generator: Adobe Illustrator 19.0.0, SVG Export Plug-In  -->
<svg version="1.1"
	 xmlns="http://www.w3.org/2000/svg" xmlns:xlink="http://www.w3.org/1999/xlink" xmlns:a="http://ns.adobe.com/AdobeSVGViewerExtensions/3.0/"
	 x="0px" y="0px" width="318.3px" height="259.6px" viewBox="0 0 318.3 259.6" style="enable-background:new 0 0 318.3 259.6;"
	 xml:space="preserve">
<style type="text/css">
	.st0{fill:none;}
	.st1{fill:#086A87;}
	.st2{fill:none;stroke:#33CCCC;stroke-miterlimit:10;}
	.st3{fill:#33CCCC;}
</style>
<defs>
</defs>
<path id="XMLID_576_" class="st0" d="M297,247.8"/>
<g id="XMLID_539_">
	<g id="XMLID_541_">
		<path id="XMLID_557_" class="st1" d="M6,7.1H0V6.4l2.1-1.9c0.6-0.6,1-1,1.2-1.2C3.5,3.2,3.6,3,3.7,2.8c0.1-0.2,0.1-0.4,0.1-0.6
			c0-0.3-0.1-0.5-0.2-0.7C3.5,1.4,3.3,1.3,3,1.3c-0.3,0-0.6,0.1-0.8,0.2S1.6,1.8,1.3,2.1l-0.9-1c0.4-0.3,0.7-0.5,0.9-0.7
			c0.2-0.1,0.5-0.2,0.8-0.3S2.8,0,3.1,0C3.6,0,4,0.1,4.3,0.3C4.7,0.4,5,0.7,5.2,1c0.2,0.3,0.3,0.7,0.3,1c0,0.3-0.1,0.7-0.2,1
			C5.2,3.3,5,3.6,4.7,3.9C4.5,4.2,3.8,4.6,3.2,5.2L2,6.1v0h4V7.1z"/>
		<path id="XMLID_555_" class="st1" d="M11.3,1.8c0,0.5,0,0.9-0.3,1.2c-0.3,0.3-1,0.5-1,0.7v0c0,0.1,0.9,0.3,1.2,0.5
			c0.3,0.3,0.4,0.7,0.4,1.2c0,0.7-0.3,1.3-0.8,1.7c-0.5,0.4-1.5,0.6-2.4,0.6C7.5,7.6,7,7.5,6,7.2V5.9C7,6,6.8,6.1,7.1,6.2
			s0.8,0.1,1.1,0.1c0.5,0,0.9-0.1,1.2-0.3s0.4-0.5,0.4-0.8c0-0.3-0.1-0.7-0.4-0.8C9.2,4.3,8.7,4.1,8.1,4.1H8v-1h0.1
			c0.6,0,1-0.1,1.3-0.2c0.3-0.1,0.4-0.4,0.4-0.8c0-0.6-0.4-0.8-1.1-0.8c-0.2,0-0.5,0-0.7,0.1C7.7,1.5,7.4,1.6,7.1,1.8L6.4,0.7
			C7.1,0.2,7.9,0,8.8,0c0.8,0,1.4,0.2,1.8,0.5C11.1,0.8,11.3,1.2,11.3,1.8z"/>
		<path id="XMLID_553_" class="st1" d="M12.5,6.8c0-0.3,0.1-0.5,0.2-0.6c0.2-0.1,0.4-0.2,0.7-0.2c0.3,0,0.5,0.1,0.7,0.2
			c0.2,0.1,0.2,0.4,0.2,0.6c0,0.3-0.1,0.5-0.2,0.6c-0.2,0.2-0.4,0.2-0.6,0.2c-0.3,0-0.5-0.1-0.7-0.2C12.6,7.3,12.5,7.1,12.5,6.8z"/>
		<path id="XMLID_550_" class="st1" d="M21,6.1h-1v1h-2v-1h-3V4.9l3.3-4.8H20v5h1V6.1z M18,5.1V3.5c0-0.2,0.1-0.4,0.1-0.8
			c0-0.4,0.1-0.6,0.2-0.6h0c-0.1,0-0.3,0.6-0.5,0.9l-1.4,2.1H18z"/>
		<path id="XMLID_548_" class="st1" d="M22,7.1l2.8-6H21v-1h5v1l-2.4,6H22z"/>
		<path id="XMLID_542_" class="st1" d="M30.6,2.3c0,0.8-0.2,1.4-0.5,1.8c-0.3,0.4-0.7,0.6-1.3,0.6c-0.6,0-1-0.2-1.3-0.6
			s-0.5-1-0.5-1.7c0-1.5,0.6-2.3,1.7-2.3c0.6,0,1,0.2,1.3,0.6C30.5,1,30.6,1.6,30.6,2.3z M28.4,2.3c0,0.4,0,0.7,0.1,1
			c0.1,0.2,0.2,0.3,0.4,0.3c0.3,0,0.5-0.4,0.5-1.3c0-0.8-0.2-1.3-0.5-1.3c-0.2,0-0.3,0.1-0.4,0.3C28.4,1.6,28.4,1.9,28.4,2.3z
			 M34.1,0.1l-4.1,7h-1.2l4.1-7H34.1z M35.8,5.3c0,0.8-0.2,1.4-0.5,1.7S34.6,7.6,34,7.6c-0.6,0-1-0.2-1.3-0.6s-0.5-1-0.5-1.7
			C32.3,3.7,32.9,3,34,3c0.6,0,1,0.2,1.3,0.6C35.6,4,35.8,4.5,35.8,5.3z M33.5,5.3c0,0.4,0,0.7,0.1,1c0.1,0.2,0.2,0.3,0.4,0.3
			c0.3,0,0.5-0.4,0.5-1.3C34.5,4.4,34.4,4,34,4c-0.2,0-0.3,0.1-0.4,0.3C33.6,4.5,33.5,4.9,33.5,5.3z"/>
	</g>
</g>
<g id="XMLID_504_">
	<g id="XMLID_506_">
		<path id="XMLID_520_" class="st1" d="M66,6.1h-1v1h-2v-1h-3V4.9l3.5-4.8H65v5h1V6.1z M63,5.1V3.5c0-0.2,0.2-0.4,0.3-0.8
			c0-0.4,0.3-0.6,0.3-0.6h0c-0.1,0-0.3,0.6-0.5,0.9l-1.4,2.1H63z"/>
		<path id="XMLID_518_" class="st1" d="M67.2,7.1l2.8-6h-4v-1h6v1l-3.2,6H67.2z"/>
		<path id="XMLID_516_" class="st1" d="M72.6,6.8c0-0.3,0.1-0.5,0.2-0.6C73,6,73.2,5.9,73.5,5.9c0.3,0,0.5,0.1,0.7,0.2
			c0.2,0.1,0.2,0.4,0.2,0.6c0,0.3-0.1,0.5-0.2,0.6c-0.2,0.2-0.4,0.2-0.6,0.2c-0.3,0-0.5-0.1-0.7-0.2C72.7,7.3,72.6,7.1,72.6,6.8z"/>
		<path id="XMLID_513_" class="st1" d="M75.3,4.4c0-1.5,0.3-2.6,0.9-3.3C76.9,0.4,77.8,0,79,0c0.4,0,1,0,1,0.1v1.3
			c0-0.1-0.6-0.1-0.9-0.1c-0.5,0-1,0.1-1.3,0.2c-0.3,0.2-0.6,0.2-0.8,0.5c-0.2,0.3-0.3,1.1-0.3,1.1h0.1c0.3,0,0.9-0.6,1.6-0.6
			c0.7,0,1.2,0.3,1.6,0.7c0.4,0.4,0.6,1,0.6,1.8c0,0.8-0.2,1.4-0.7,1.9c-0.4,0.5-1.1,0.7-1.9,0.7c-0.5,0-1-0.1-1.4-0.4
			c-0.4-0.3-0.7-0.6-0.9-1.1C75.4,5.6,75.3,5.1,75.3,4.4z M78,6.4c0.3,0,0.6-0.1,0.8-0.3c0.2-0.2,0.3-0.5,0.3-1
			c0-0.4-0.1-0.6-0.3-0.9C78.6,4,78.4,3.9,78,3.9c-0.3,0-0.6,0.1-0.8,0.3s-0.3,0.4-0.3,0.7c0,0.4,0.1,0.7,0.3,1
			C77.4,6.2,77.7,6.4,78,6.4z"/>
		<path id="XMLID_507_" class="st1" d="M84.7,2.3c0,0.8-0.2,1.4-0.5,1.8C84,4.5,83.5,4.7,83,4.7c-0.6,0-1-0.2-1.3-0.6
			s-0.5-1-0.5-1.7C81.2,0.8,81.8,0,83,0c0.6,0,1,0.2,1.3,0.6C84.6,1,84.7,1.6,84.7,2.3z M82.5,2.3c0,0.4,0,0.7,0.1,1
			c0.1,0.2,0.2,0.3,0.4,0.3c0.3,0,0.5-0.4,0.5-1.3c0-0.8-0.2-1.3-0.5-1.3c-0.2,0-0.3,0.1-0.4,0.3C82.5,1.6,82.5,1.9,82.5,2.3z
			 M88.2,0.1l-4.1,7h-1.2l4.1-7H88.2z M89.9,5.3c0,0.8-0.2,1.4-0.5,1.7s-0.7,0.6-1.3,0.6c-0.6,0-1-0.2-1.3-0.6s-0.5-1-0.5-1.7
			C86.4,3.7,87,3,88.1,3c0.6,0,1,0.2,1.3,0.6C89.8,4,89.9,4.5,89.9,5.3z M87.7,5.3c0,0.4,0,0.7,0.1,1c0.1,0.2,0.2,0.3,0.4,0.3
			c0.3,0,0.5-0.4,0.5-1.3c0-0.8-0.2-1.3-0.5-1.3c-0.2,0-0.3,0.1-0.4,0.3C87.7,4.5,87.7,4.9,87.7,5.3z"/>
	</g>
</g>
<g id="XMLID_453_">
	<g id="XMLID_455_">
		<path id="XMLID_484_" class="st1" d="M119,7.1h-2V3.2l0-0.7l0-0.8c-0.3,0.3-0.4,0.4-0.5,0.5L115.6,3L114.9,2l2.4-1.9h1.8V7.1z"/>
		<path id="XMLID_468_" class="st1" d="M123.1,0c0.7,0,1.3,0.2,1.7,0.5c0.4,0.3,0.7,0.8,0.7,1.3c0,0.4-0.1,0.7-0.3,1
			c-0.2,0.3-0.5,0.6-1,0.8c0.6,0.3,1,0.6,1.2,0.9c0.2,0.3,0.4,0.7,0.4,1.1c0,0.6-0.2,1.1-0.7,1.5c-0.5,0.4-1.1,0.6-1.9,0.6
			c-0.8,0-1.4-0.2-1.9-0.5s-0.7-0.8-0.7-1.5c0-0.4,0.1-0.8,0.3-1.1c0.2-0.3,0.6-0.6,1.1-0.9c-0.4-0.3-0.7-0.6-0.9-0.9
			c-0.2-0.3-0.3-0.6-0.3-1c0-0.5,0.2-1,0.7-1.3C121.9,0.2,122.4,0,123.1,0z M122,5.5c0,0.3,0.1,0.5,0.3,0.7c0.2,0.2,0.5,0.2,0.8,0.2
			c0.4,0,0.7-0.1,0.9-0.3c0.2-0.2,0.3-0.4,0.3-0.7c0-0.2-0.1-0.4-0.3-0.6c-0.2-0.2-0.5-0.4-0.9-0.6C122.4,4.6,122,5,122,5.5z
			 M123.1,1.2c-0.3,0-0.5,0.1-0.6,0.2c-0.2,0.1-0.2,0.3-0.2,0.6c0,0.2,0.1,0.4,0.2,0.5c0.1,0.2,0.4,0.3,0.7,0.5
			c0.3-0.2,0.6-0.3,0.7-0.5s0.2-0.3,0.2-0.6c0-0.2-0.1-0.4-0.3-0.6S123.4,1.2,123.1,1.2z"/>
		<path id="XMLID_466_" class="st1" d="M126.7,6.8c0-0.3,0.1-0.5,0.2-0.6c0.2-0.1,0.4-0.2,0.7-0.2c0.3,0,0.5,0.1,0.7,0.2
			c0.2,0.1,0.2,0.4,0.2,0.6c0,0.3-0.1,0.5-0.2,0.6s-0.4,0.2-0.6,0.2c-0.3,0-0.5-0.1-0.7-0.2C126.8,7.3,126.7,7.1,126.7,6.8z"/>
		<path id="XMLID_464_" class="st1" d="M133,7.1h-1V3.2l-0.1-0.7l0-0.8c-0.3,0.3-0.5,0.4-0.6,0.5L130.5,3L129.7,2l2.4-1.9h0.9V7.1z"
			/>
		<path id="XMLID_462_" class="st1" d="M138.1,2.8c0.7,0,1.3,0.2,1.7,0.6c0.4,0.4,0.6,1,0.6,1.7c0,0.8-0.3,1.5-0.8,1.9
			c-0.5,0.4-1,0.7-1.9,0.7c-0.8,0-1.8-0.1-1.8-0.4V5.9c0,0.1,0.3,0.3,0.7,0.3c0.4,0.1,0.6,0.1,0.9,0.1c1,0,1.4-0.4,1.4-1.2
			c0-0.7-0.5-1.1-1.5-1.1c-0.2,0-0.4,0-0.6,0.1s-0.4,0.1-0.5,0.1l-0.6-0.3l0.3-3.8h4.1v1h-2.7l-0.1,1.6l0.2,0
			C137.6,2.7,137.8,2.8,138.1,2.8z"/>
		<path id="XMLID_456_" class="st1" d="M144.8,2.3c0,0.8-0.2,1.4-0.5,1.8c-0.3,0.4-0.7,0.6-1.3,0.6c-0.6,0-1-0.2-1.3-0.6
			c-0.3-0.4-0.5-1-0.5-1.7c0-1.5,0.6-2.3,1.7-2.3c0.6,0,1,0.2,1.3,0.6C144.6,1,144.8,1.6,144.8,2.3z M142.5,2.3c0,0.4,0,0.7,0.1,1
			c0.1,0.2,0.2,0.3,0.4,0.3c0.3,0,0.5-0.4,0.5-1.3c0-0.8-0.2-1.3-0.5-1.3c-0.2,0-0.3,0.1-0.4,0.3C142.6,1.6,142.5,1.9,142.5,2.3z
			 M148.3,0.1l-4.1,7h-1.2l4.1-7H148.3z M150,5.3c0,0.8-0.2,1.4-0.5,1.7s-0.7,0.6-1.3,0.6c-0.6,0-1-0.2-1.3-0.6
			c-0.3-0.4-0.5-1-0.5-1.7c0-1.5,0.6-2.3,1.7-2.3c0.6,0,1,0.2,1.3,0.6S150,4.5,150,5.3z M147.7,5.3c0,0.4,0,0.7,0.1,1
			c0.1,0.2,0.2,0.3,0.4,0.3c0.3,0,0.5-0.4,0.5-1.3c0-0.8-0.2-1.3-0.5-1.3c-0.2,0-0.3,0.1-0.4,0.3C147.8,4.5,147.7,4.9,147.7,5.3z"/>
	</g>
</g>
<g id="XMLID_418_">
	<g id="XMLID_420_">
		<path id="XMLID_434_" class="st1" d="M174.7,4.4c0-1.5,0.3-2.6,0.9-3.3c0.6-0.7,1.4-1.1,2.6-1.1c0.4,0,0.8,0,0.8,0.1v1.3
			c0-0.1-0.4-0.1-0.7-0.1c-0.5,0-0.9,0.1-1.2,0.2s-0.5,0.2-0.7,0.5c-0.2,0.3-0.2,1.1-0.3,1.1h0.1c0.3,0,0.9-0.6,1.6-0.6
			c0.7,0,1.2,0.3,1.6,0.7c0.4,0.4,0.6,1,0.6,1.8c0,0.8-0.2,1.4-0.7,1.9c-0.4,0.5-1.1,0.7-1.9,0.7c-0.5,0-1-0.1-1.4-0.4
			s-0.7-0.6-0.9-1.1C174.8,5.6,174.7,5.1,174.7,4.4z M177.3,6.4c0.3,0,0.6-0.1,0.8-0.3c0.2-0.2,0.3-0.5,0.3-1c0-0.4-0.1-0.6-0.3-0.9
			c-0.2-0.2-0.4-0.3-0.8-0.3c-0.3,0-0.6,0.1-0.8,0.3c-0.2,0.2-0.3,0.4-0.3,0.7c0,0.4,0.1,0.7,0.3,1C176.8,6.2,177,6.4,177.3,6.4z"/>
		<path id="XMLID_432_" class="st1" d="M180.8,6.8c0-0.3,0.1-0.5,0.2-0.6c0.2-0.1,0.4-0.2,0.7-0.2c0.3,0,0.5,0.1,0.7,0.2
			c0.2,0.1,0.2,0.4,0.2,0.6c0,0.3-0.1,0.5-0.2,0.6s-0.4,0.2-0.6,0.2c-0.3,0-0.5-0.1-0.7-0.2C180.9,7.3,180.8,7.1,180.8,6.8z"/>
		<path id="XMLID_429_" class="st1" d="M183.6,4.4c0-1.5,0.3-2.6,0.9-3.3c0.6-0.7,1.4-1.1,2.6-1.1c0.4,0,0.9,0,0.9,0.1v1.3
			c0-0.1-0.5-0.1-0.8-0.1c-0.5,0-0.9,0.1-1.2,0.2c-0.3,0.2-0.6,0.2-0.7,0.5c-0.2,0.3-0.2,1.1-0.3,1.1h0.1c0.3,0,0.9-0.6,1.6-0.6
			c0.7,0,1.2,0.3,1.6,0.7c0.4,0.4,0.6,1,0.6,1.8c0,0.8-0.2,1.4-0.7,1.9c-0.4,0.5-1.1,0.7-1.9,0.7c-0.5,0-1-0.1-1.4-0.4
			s-0.7-0.6-0.9-1.1C183.7,5.6,183.6,5.1,183.6,4.4z M186.2,6.4c0.3,0,0.6-0.1,0.8-0.3c0.2-0.2,0.3-0.5,0.3-1c0-0.4-0.1-0.6-0.3-0.9
			c-0.2-0.2-0.4-0.3-0.8-0.3c-0.3,0-0.6,0.1-0.8,0.3c-0.2,0.2-0.3,0.4-0.3,0.7c0,0.4,0.1,0.7,0.3,1C185.6,6.2,185.9,6.4,186.2,6.4z"
			/>
		<path id="XMLID_427_" class="st1" d="M195,7.1h-5V6.4l1.6-1.9c0.6-0.6,0.8-1,1-1.2c0.2-0.2,0.2-0.4,0.3-0.6
			c0.1-0.2,0.1-0.4,0.1-0.6c0-0.3-0.1-0.5-0.3-0.7c-0.2-0.1-0.4-0.2-0.7-0.2c-0.3,0-0.6,0.1-0.8,0.2s-0.6,0.3-0.8,0.6l-0.9-1
			c0.4-0.3,0.7-0.5,0.9-0.7s0.5-0.2,0.8-0.3s0.6-0.1,1-0.1c0.5,0,0.9,0.1,1.2,0.3c0.4,0.2,0.6,0.4,0.8,0.7c0.2,0.3,0.3,0.7,0.3,1
			c0,0.3-0.1,0.7-0.2,1c-0.1,0.3-0.3,0.6-0.6,0.9c-0.3,0.3-0.9,0.8-1.6,1.3L191,6.1v0h4V7.1z"/>
		<path id="XMLID_421_" class="st1" d="M198.9,2.3c0,0.8-0.2,1.4-0.5,1.8c-0.3,0.4-0.7,0.6-1.3,0.6c-0.6,0-1-0.2-1.3-0.6
			c-0.3-0.4-0.5-1-0.5-1.7c0-1.5,0.6-2.3,1.7-2.3c0.6,0,1,0.2,1.3,0.6S198.9,1.6,198.9,2.3z M196.7,2.3c0,0.4,0,0.7,0.1,1
			c0.1,0.2,0.2,0.3,0.4,0.3c0.3,0,0.5-0.4,0.5-1.3c0-0.8-0.2-1.3-0.5-1.3c-0.2,0-0.3,0.1-0.4,0.3C196.7,1.6,196.7,1.9,196.7,2.3z
			 M202.4,0.1l-4.1,7h-1.2l4.1-7H202.4z M204.1,5.3c0,0.8-0.2,1.4-0.5,1.7s-0.7,0.6-1.3,0.6c-0.6,0-1-0.2-1.3-0.6s-0.5-1-0.5-1.7
			c0-1.5,0.6-2.3,1.7-2.3c0.6,0,1,0.2,1.3,0.6C203.9,4,204.1,4.5,204.1,5.3z M201.9,5.3c0,0.4,0,0.7,0.1,1c0.1,0.2,0.2,0.3,0.4,0.3
			c0.3,0,0.5-0.4,0.5-1.3c0-0.8-0.2-1.3-0.5-1.3c-0.2,0-0.3,0.1-0.4,0.3C201.9,4.5,201.9,4.9,201.9,5.3z"/>
	</g>
</g>
<g id="XMLID_385_">
	<g id="XMLID_387_">
		<path id="XMLID_401_" class="st1" d="M237,7.1h-5V6.4l1.8-1.9c0.6-0.6,0.9-1,1-1.2c0.2-0.2,0.3-0.4,0.3-0.6
			c0.1-0.2,0.1-0.4,0.1-0.6c0-0.3-0.1-0.5-0.3-0.7c-0.2-0.1-0.4-0.2-0.7-0.2c-0.3,0-0.6,0.1-0.8,0.2c-0.3,0.1-0.6,0.3-0.8,0.6
			l-0.9-1c0.4-0.3,0.7-0.5,0.9-0.7c0.2-0.1,0.5-0.2,0.8-0.3c0.3-0.1,0.6-0.1,1-0.1c0.5,0,0.9,0.1,1.2,0.3c0.4,0.2,0.6,0.4,0.8,0.7
			c0.2,0.3,0.3,0.7,0.3,1c0,0.3-0.1,0.7-0.2,1c-0.1,0.3-0.3,0.6-0.6,0.9c-0.3,0.3-0.6,0.8-1.2,1.3L234,6.1v0h3V7.1z"/>
		<path id="XMLID_399_" class="st1" d="M237.9,6.8c0-0.3,0.1-0.5,0.2-0.6c0.2-0.1,0.4-0.2,0.7-0.2c0.3,0,0.5,0.1,0.7,0.2
			c0.2,0.1,0.2,0.4,0.2,0.6c0,0.3-0.1,0.5-0.2,0.6s-0.4,0.2-0.6,0.2c-0.3,0-0.5-0.1-0.7-0.2C238,7.3,237.9,7.1,237.9,6.8z"/>
		<path id="XMLID_396_" class="st1" d="M245.9,3.3c0,1.5-0.3,2.5-0.9,3.3s-1.6,1.1-2.9,1.1c-0.4,0-1.1,0-1.1-0.1V6.3
			c0,0.1,0.7,0.1,1,0.1c0.5,0,1-0.1,1.3-0.2s0.6-0.4,0.8-0.7c0.2-0.3,0.3-0.3,0.3-1.3h-0.1c-0.2,0-0.4,0.5-0.7,0.7
			c-0.3,0.1-0.6,0.2-1,0.2c-0.6,0-1.2-0.2-1.5-0.6c-0.4-0.4-0.6-1-0.6-1.7c0-0.8,0.2-1.4,0.7-1.9c0.5-0.5,1.1-0.7,1.8-0.7
			c0.5,0,1,0.1,1.4,0.4s0.7,0.6,0.9,1.1C245.7,2,245.9,2.6,245.9,3.3z M243.2,1.3c-0.3,0-0.6,0.1-0.8,0.3c-0.2,0.2-0.3,0.5-0.3,1
			c0,0.4,0.1,0.6,0.2,0.9s0.4,0.3,0.8,0.3c0.3,0,0.6-0.1,0.8-0.3c0.2-0.2,0.3-0.4,0.3-0.7c0-0.4-0.1-0.7-0.3-1
			C243.8,1.4,243.5,1.3,243.2,1.3z"/>
		<path id="XMLID_394_" class="st1" d="M251.5,1.8c0,0.5-0.1,0.9-0.4,1.2c-0.3,0.3-1.1,0.5-1.1,0.7v0c1,0.1,1,0.3,1.3,0.5
			c0.3,0.3,0.4,0.7,0.4,1.2c0,0.7-0.3,1.3-0.8,1.7s-1.1,0.6-2,0.6c-0.8,0-2-0.1-2-0.4V5.9c0,0.1,0.4,0.3,0.8,0.4s0.6,0.1,0.9,0.1
			c0.5,0,0.9-0.1,1.1-0.3c0.2-0.2,0.3-0.5,0.3-0.8c0-0.3-0.2-0.7-0.4-0.8c-0.3-0.1-0.7-0.3-1.4-0.3H248v-1h0.3c0.6,0,1-0.1,1.3-0.2
			c0.3-0.1,0.4-0.4,0.4-0.8c0-0.6-0.4-0.8-1.1-0.8c-0.2,0-0.5,0-0.7,0.1c-0.3,0.1-0.5,0.2-0.8,0.4l-0.7-1.1c0.7-0.5,1.5-0.7,2.4-0.7
			c0.8,0,1.4,0.2,1.8,0.5C251.3,0.8,251.5,1.2,251.5,1.8z"/>
		<path id="XMLID_388_" class="st1" d="M256,2.3c0,0.8-0.2,1.4-0.5,1.8c-0.3,0.4-0.7,0.6-1.3,0.6c-0.6,0-1-0.2-1.3-0.6
			c-0.3-0.4-0.5-1-0.5-1.7c0-1.5,0.6-2.3,1.7-2.3c0.6,0,1,0.2,1.3,0.6C255.8,1,256,1.6,256,2.3z M253.8,2.3c0,0.4,0,0.7,0.1,1
			c0.1,0.2,0.2,0.3,0.4,0.3c0.3,0,0.5-0.4,0.5-1.3c0-0.8-0.2-1.3-0.5-1.3c-0.2,0-0.3,0.1-0.4,0.3C253.8,1.6,253.8,1.9,253.8,2.3z
			 M259.5,0.1l-4.1,7h-1.2l4.1-7H259.5z M261.2,5.3c0,0.8-0.2,1.4-0.5,1.7s-0.7,0.6-1.3,0.6c-0.6,0-1-0.2-1.3-0.6
			c-0.3-0.4-0.5-1-0.5-1.7c0-1.5,0.6-2.3,1.7-2.3c0.6,0,1,0.2,1.3,0.6S261.2,4.5,261.2,5.3z M258.9,5.3c0,0.4,0,0.7,0.1,1
			c0.1,0.2,0.2,0.3,0.4,0.3c0.3,0,0.5-0.4,0.5-1.3c0-0.8-0.2-1.3-0.5-1.3c-0.2,0-0.3,0.1-0.4,0.3C259,4.5,258.9,4.9,258.9,5.3z"/>
	</g>
</g>
<g id="XMLID_354_">
	<g id="XMLID_356_">
		<path id="XMLID_369_" class="st1" d="M293,7.1h-2V3.2l0.1-0.7l0.1-0.8c-0.3,0.3-0.4,0.4-0.5,0.5L289.8,3L289.1,2l2.4-1.9h1.5V7.1z
			"/>
		<path id="XMLID_367_" class="st1" d="M295,6.8c0-0.3,0.1-0.5,0.2-0.6c0.2-0.1,0.4-0.2,0.7-0.2c0.3,0,0.5,0.1,0.7,0.2
			c0.2,0.1,0.2,0.4,0.2,0.6c0,0.3-0.1,0.5-0.2,0.6c-0.2,0.2-0.4,0.2-0.6,0.2c-0.3,0-0.5-0.1-0.7-0.2C295.1,7.3,295,7.1,295,6.8z"/>
		<path id="XMLID_365_" class="st1" d="M303,7.1h-5V6.4l1.8-1.9c0.6-0.6,0.9-1,1-1.2c0.2-0.2,0.3-0.4,0.3-0.6
			c0.1-0.2,0.1-0.4,0.1-0.6c0-0.3-0.1-0.5-0.3-0.7c-0.2-0.1-0.4-0.2-0.7-0.2c-0.3,0-0.6,0.1-0.8,0.2c-0.3,0.1-0.6,0.3-0.8,0.6
			l-0.9-1c0.4-0.3,0.7-0.5,0.9-0.7c0.2-0.1,0.5-0.2,0.8-0.3c0.3-0.1,0.6-0.1,1-0.1c0.5,0,0.9,0.1,1.2,0.3c0.4,0.2,0.6,0.4,0.8,0.7
			c0.2,0.3,0.3,0.7,0.3,1c0,0.3-0.1,0.7-0.2,1c-0.1,0.3-0.3,0.6-0.6,0.9c-0.3,0.3-0.6,0.8-1.2,1.3L300,6.1v0h3V7.1z"/>
		<path id="XMLID_363_" class="st1" d="M308.6,1.8c0,0.5-0.1,0.9-0.4,1.2c-0.3,0.3-0.2,0.5-1.2,0.7v0c1,0.1,1.1,0.3,1.4,0.5
			c0.3,0.3,0.5,0.7,0.5,1.2c0,0.7-0.3,1.3-0.8,1.7S307,7.6,306,7.6c-0.8,0-2-0.1-2-0.4V5.9c0,0.1,0.5,0.3,0.8,0.4
			c0.3,0.1,0.6,0.1,1,0.1c0.5,0,0.9-0.1,1.1-0.3s0.4-0.5,0.4-0.8c0-0.3-0.2-0.7-0.4-0.8c-0.3-0.1-0.7-0.3-1.4-0.3H305v-1h0.4
			c0.6,0,1-0.1,1.3-0.2c0.3-0.1,0.4-0.4,0.4-0.8c0-0.6-0.4-0.8-1.1-0.8c-0.2,0-0.5,0-0.7,0.1c-0.3,0.1-0.5,0.2-0.8,0.4l-0.7-1.1
			c0.7-0.5,1.5-0.7,2.4-0.7c0.8,0,1.4,0.2,1.8,0.5C308.4,0.8,308.6,1.2,308.6,1.8z"/>
		<path id="XMLID_357_" class="st1" d="M313.1,2.3c0,0.8-0.2,1.4-0.5,1.8c-0.3,0.4-0.7,0.6-1.3,0.6c-0.6,0-1-0.2-1.3-0.6
			s-0.5-1-0.5-1.7c0-1.5,0.6-2.3,1.7-2.3c0.6,0,1,0.2,1.3,0.6C312.9,1,313.1,1.6,313.1,2.3z M310.8,2.3c0,0.4,0,0.7,0.1,1
			c0.1,0.2,0.2,0.3,0.4,0.3c0.3,0,0.5-0.4,0.5-1.3c0-0.8-0.2-1.3-0.5-1.3c-0.2,0-0.3,0.1-0.4,0.3C310.9,1.6,310.8,1.9,310.8,2.3z
			 M316.6,0.1l-4.1,7h-1.2l4.1-7H316.6z M318.3,5.3c0,0.8-0.2,1.4-0.5,1.7c-0.3,0.4-0.7,0.6-1.3,0.6c-0.6,0-1-0.2-1.3-0.6
			s-0.5-1-0.5-1.7c0-1.5,0.6-2.3,1.7-2.3c0.6,0,1,0.2,1.3,0.6S318.3,4.5,318.3,5.3z M316,5.3c0,0.4,0,0.7,0.1,1
			c0.1,0.2,0.2,0.3,0.4,0.3c0.3,0,0.5-0.4,0.5-1.3c0-0.8-0.2-1.3-0.5-1.3c-0.2,0-0.3,0.1-0.4,0.3C316.1,4.5,316,4.9,316,5.3z"/>
	</g>
</g>
<g id="XMLID_325_">
	<g id="XMLID_327_">
		<path id="XMLID_339_" class="st1" d="M12,246.1h-1v-4.7l-0.1-0.7l0-0.8c-0.3,0.3-0.5,0.4-0.6,0.5l-0.9,0.7l-0.8-1.1l2.4-2h1V246.1
			z"/>
		<path id="XMLID_335_" class="st1" d="M16.9,238.2c0.7,0,1.3,0.2,1.7,0.5c0.4,0.3,0.7,0.8,0.7,1.3c0,0.4-0.1,0.7-0.3,1
			c-0.2,0.3-0.5,0.6-1,0.8c0.6,0.3,1,0.6,1.2,0.9c0.2,0.3,0.4,0.7,0.4,1.1c0,0.6-0.2,1.1-0.7,1.5s-1.1,0.6-1.9,0.6
			c-0.8,0-1.4-0.2-1.9-0.5c-0.5-0.3-0.7-0.8-0.7-1.5c0-0.4,0.1-0.8,0.3-1.1c0.2-0.3,0.6-0.6,1.1-0.9c-0.4-0.3-0.7-0.6-0.9-0.9
			c-0.2-0.3-0.3-0.6-0.3-1c0-0.5,0.2-1,0.7-1.3C15.6,238.4,16.2,238.2,16.9,238.2z M15.8,243.8c0,0.3,0.1,0.5,0.3,0.7
			s0.5,0.2,0.8,0.2c0.4,0,0.7-0.1,0.9-0.3c0.2-0.2,0.3-0.4,0.3-0.7c0-0.2-0.1-0.4-0.3-0.6s-0.5-0.4-0.9-0.6
			C16.1,242.8,15.8,243.3,15.8,243.8z M16.9,239.4c-0.3,0-0.5,0.1-0.6,0.2c-0.2,0.1-0.2,0.3-0.2,0.6c0,0.2,0.1,0.4,0.2,0.5
			c0.1,0.2,0.4,0.3,0.7,0.5c0.3-0.2,0.6-0.3,0.7-0.5s0.2-0.3,0.2-0.6c0-0.2-0.1-0.4-0.3-0.6S17.2,239.4,16.9,239.4z"/>
		<path id="XMLID_333_" class="st1" d="M20,243.1v-1h3v1H20z"/>
		<path id="XMLID_331_" class="st1" d="M29,246.1h-5v-1.5l1.7-1.9c0.6-0.6,0.8-1,1-1.2c0.2-0.2,0.2-0.4,0.3-0.6
			c0.1-0.2,0.1-0.4,0.1-0.6c0-0.3-0.1-0.5-0.3-0.7c-0.2-0.1-0.4-0.2-0.7-0.2c-0.3,0-0.6,0.1-0.8,0.2c-0.3,0.1-0.6,0.3-0.8,0.6
			l-0.9-1c0.4-0.3,0.7-0.5,0.9-0.7c0.2-0.1,0.5-0.2,0.8-0.3c0.3-0.1,0.6-0.1,1-0.1c0.5,0,0.9,0.1,1.2,0.3c0.4,0.2,0.6,0.4,0.8,0.7
			c0.2,0.3,0.3,0.7,0.3,1c0,0.3-0.1,0.7-0.2,1c-0.1,0.3-0.3,0.6-0.6,0.9c-0.3,0.3-0.5,0.8-1.1,1.3l-0.8,0.9v-0.2h3V246.1z"/>
		<path id="XMLID_328_" class="st1" d="M35,244.1h-1v2h-1v-2h-4v-1l3.6-5H34v5h1V244.1z M33,243.1v-1.4c0-0.2-0.2-0.5-0.2-0.9
			c0-0.4-0.2-0.7-0.2-0.7h0c-0.1,0-0.3,0.6-0.5,0.9l-1.4,2.1H33z"/>
	</g>
</g>
<g id="XMLID_300_">
	<g id="XMLID_302_">
		<path id="XMLID_312_" class="st1" d="M71,246.1h-5v-1.5l1.6-1.9c0.6-0.6,0.8-1,1-1.2c0.2-0.2,0.2-0.4,0.3-0.6
			c0.1-0.2,0.1-0.4,0.1-0.6c0-0.3-0.1-0.5-0.3-0.7c-0.2-0.1-0.4-0.2-0.7-0.2c-0.3,0-0.6,0.1-0.8,0.2c-0.3,0.1-0.6,0.3-0.8,0.6
			l-0.9-1c0.4-0.3,0.7-0.5,0.9-0.7c0.2-0.1,0.5-0.2,0.8-0.3c0.3-0.1,0.6-0.1,1-0.1c0.5,0,0.9,0.1,1.2,0.3c0.4,0.2,0.6,0.4,0.8,0.7
			c0.2,0.3,0.3,0.7,0.3,1c0,0.3-0.1,0.7-0.2,1c-0.1,0.3-0.3,0.6-0.6,0.9c-0.3,0.3-0.9,0.8-1.6,1.3l-1.2,0.9v-0.2h4V246.1z"/>
		<path id="XMLID_310_" class="st1" d="M74.2,241c0.7,0,1.3,0.2,1.7,0.6c0.4,0.4,0.6,1,0.6,1.7c0,0.8-0.3,1.5-0.8,1.9
			c-0.5,0.4-1,0.7-2,0.7c-0.8,0-1.8-0.1-1.8-0.4v-1.4c0,0.1,0.4,0.3,0.7,0.3c0.4,0.1,0.6,0.1,0.9,0.1c1,0,1.4-0.4,1.4-1.2
			c0-0.7-0.5-1.1-1.5-1.1c-0.2,0-0.4,0-0.6,0.1s-0.4,0.1-0.5,0.1l-0.6-0.4l0.3-3.9h4v2h-2.6l-0.1,1.2l0.2-0.1
			C73.6,241.1,73.9,241,74.2,241z"/>
		<path id="XMLID_308_" class="st1" d="M77,243.1v-1h3v1H77z"/>
		<path id="XMLID_306_" class="st1" d="M85.6,240c0,0.5-0.2,0.9-0.4,1.2s-0.2,0.5-1.2,0.7v0c1,0.1,1.1,0.3,1.4,0.5
			c0.3,0.3,0.5,0.7,0.5,1.2c0,0.7-0.3,1.3-0.8,1.7s-1.1,0.6-2.1,0.6c-0.8,0-2-0.1-2-0.4v-1.3c0,0.1,0.5,0.3,0.8,0.4
			c0.3,0.1,0.6,0.1,1,0.1c0.5,0,0.9-0.1,1.1-0.3s0.4-0.5,0.4-0.8c0-0.3-0.2-0.8-0.4-1c-0.3-0.1-0.7-0.4-1.4-0.4H82v-1h0.4
			c0.6,0,1,0,1.3-0.1c0.3-0.1,0.4-0.4,0.4-0.7c0-0.6-0.4-0.8-1.1-0.8c-0.2,0-0.5,0.1-0.7,0.1c-0.3,0.1-0.5,0.2-0.8,0.4l-0.7-1.1
			c0.7-0.5,1.5-0.7,2.4-0.7c0.8,0,1.4,0.2,1.8,0.5C85.4,239,85.6,239.4,85.6,240z"/>
		<path id="XMLID_303_" class="st1" d="M92,244.1h-1v2h-1v-2h-4v-1l3.7-5H91v5h1V244.1z M90,243.1v-1.4c0-0.2-0.2-0.5-0.2-0.9
			c0-0.4-0.2-0.7-0.2-0.7h0c-0.1,0-0.3,0.6-0.5,0.9l-1.4,2.1H90z"/>
	</g>
</g>
<g id="XMLID_273_">
	<g id="XMLID_275_">
		<path id="XMLID_286_" class="st1" d="M123.8,240c0,0.5-0.2,0.9-0.5,1.2s-0.3,0.5-1.3,0.7v0c1,0.1,1.1,0.3,1.4,0.5
			c0.3,0.3,0.5,0.7,0.5,1.2c0,0.7-0.2,1.3-0.8,1.7s-1.2,0.6-2.1,0.6c-0.8,0-2.1-0.1-2.1-0.4v-1.3c0,0.1,0.5,0.3,0.9,0.4
			s0.6,0.1,1,0.1c0.5,0,0.9-0.1,1.1-0.3s0.4-0.5,0.4-0.8c0-0.3-0.1-0.8-0.4-1c-0.3-0.1-0.7-0.4-1.4-0.4H120v-1h0.6
			c0.6,0,1,0,1.3-0.1c0.3-0.1,0.4-0.4,0.4-0.7c0-0.6-0.4-0.8-1.1-0.8c-0.2,0-0.5,0.1-0.7,0.1c-0.3,0.1-0.5,0.2-0.8,0.4l-0.7-1.1
			c0.7-0.5,1.5-0.7,2.4-0.7c0.8,0,1.4,0.2,1.8,0.5C123.5,239,123.8,239.4,123.8,240z"/>
		<path id="XMLID_284_" class="st1" d="M127.5,241c0.7,0,1.3,0.2,1.7,0.6c0.4,0.4,0.6,1,0.6,1.7c0,0.8-0.3,1.5-0.8,1.9
			c-0.5,0.4-1.2,0.7-2.1,0.7c-0.8,0-1.9-0.1-1.9-0.4v-1.4c0,0.1,0.5,0.3,0.9,0.3c0.4,0.1,0.7,0.1,1,0.1c1,0,1.4-0.4,1.4-1.2
			c0-0.7-0.5-1.1-1.5-1.1c-0.2,0-0.4,0-0.6,0.1s-0.4,0.1-0.5,0.1L125,242l0.3-3.9h3.7v2h-2.3l-0.1,1.2l0.2-0.1
			C126.9,241.1,127.2,241,127.5,241z"/>
		<path id="XMLID_282_" class="st1" d="M131,243.1v-1h2v1H131z"/>
		<path id="XMLID_279_" class="st1" d="M139,244.1L139,244.1v2h-2v-2h-3v-1l3.1-5h1.9v5l0,0V244.1z M137,243.1v-1.4
			c0-0.2,0-0.5,0-0.9c0-0.4,0-0.7,0-0.7h0c-0.1,0-0.3,0.6-0.5,0.9l-1.4,2.1H137z"/>
		<path id="XMLID_276_" class="st1" d="M145,244.1h-1v2h-1v-2h-3v-1l3-5h1v5h1V244.1z M143,243.1v-1.4c0-0.2,0-0.5,0-0.9
			c0-0.4,0-0.7,0-0.7h0c-0.1,0-0.3,0.6-0.5,0.9l-1.4,2.1H143z"/>
	</g>
</g>
<g id="XMLID_246_">
	<g id="XMLID_248_">
		<path id="XMLID_258_" class="st1" d="M179,244.1L179,244.1v2h-2v-2h-3v-1l3.1-5h1.9v5l0,0V244.1z M177,243.1v-1.4
			c0-0.2,0-0.5,0-0.9c0-0.4,0-0.7,0-0.7h0c-0.1,0-0.3,0.6-0.5,0.9l-1.4,2.1H177z"/>
		<path id="XMLID_256_" class="st1" d="M182.7,241c0.7,0,1.3,0.2,1.7,0.6c0.4,0.4,0.6,1,0.6,1.7c0,0.8-0.3,1.5-0.8,1.9
			c-0.5,0.4-1.3,0.7-2.2,0.7c-0.8,0-1.1-0.1-2.1-0.4v-1.4c0,0.1,0.6,0.3,1,0.3c0.4,0.1,0.7,0.1,1,0.1c1,0,1.4-0.4,1.4-1.2
			c0-0.7-0.5-1.1-1.5-1.1c-0.2,0-0.4,0-0.6,0.1s-0.4,0.1-0.5,0.1l-0.6-0.4l0.3-3.9h4.5v2h-3.1l-0.1,1.2l0.2-0.1
			C182.2,241.1,182.4,241,182.7,241z"/>
		<path id="XMLID_254_" class="st1" d="M186,243.1v-1h3v1H186z"/>
		<path id="XMLID_252_" class="st1" d="M192,241c0.7,0,1.3,0.2,1.7,0.6c0.4,0.4,0.6,1,0.6,1.7c0,0.8-0.3,1.5-0.8,1.9
			c-0.5,0.4-1.4,0.7-2.4,0.7c-0.8,0-1.2-0.1-2.2-0.4v-1.4c1,0.1,0.8,0.3,1.1,0.3c0.4,0.1,0.8,0.1,1.1,0.1c1,0,1.5-0.4,1.5-1.2
			c0-0.7-0.5-1.1-1.5-1.1c-0.2,0-0.4,0-0.6,0.1c-0.2,0-0.4,0.1-0.5,0.1l-0.6-0.4l0.3-3.9h4.2v2h-2.8l-0.1,1.2l0.2-0.1
			C191.4,241.1,191.7,241,192,241z"/>
		<path id="XMLID_249_" class="st1" d="M201,244.1h-1v2h-2v-2h-3v-1l3.2-5h1.8v5h1V244.1z M198,243.1v-1.4c0-0.2,0.1-0.5,0.1-0.9
			c0-0.4,0.1-0.7,0.1-0.7h0c-0.1,0-0.3,0.6-0.5,0.9l-1.4,2.1H198z"/>
	</g>
</g>
<g id="XMLID_219_">
	<g id="XMLID_221_">
		<path id="XMLID_232_" class="st1" d="M232,241c0.7,0,1.3,0.2,1.7,0.6c0.4,0.4,0.6,1,0.6,1.7c0,0.8-0.3,1.5-0.8,1.9
			c-0.5,0.4-1.4,0.7-2.4,0.7c-0.8,0-1.2-0.1-2.2-0.4v-1.4c1,0.1,0.8,0.3,1.1,0.3c0.4,0.1,0.8,0.1,1.1,0.1c1,0,1.5-0.4,1.5-1.2
			c0-0.7-0.5-1.1-1.5-1.1c-0.2,0-0.4,0-0.6,0.1c-0.2,0-0.4,0.1-0.5,0.1l-0.6-0.4l0.3-3.9h4.2v2h-2.8l-0.1,1.2l0.2-0.1
			C231.4,241.1,231.7,241,232,241z"/>
		<path id="XMLID_230_" class="st1" d="M237.9,241c0.7,0,1.3,0.2,1.7,0.6c0.4,0.4,0.6,1,0.6,1.7c0,0.8-0.3,1.5-0.8,1.9
			c-0.5,0.4-1.4,0.7-2.3,0.7c-0.8,0-1.2-0.1-2.2-0.4v-1.4c1,0.1,0.7,0.3,1.1,0.3c0.4,0.1,0.8,0.1,1.1,0.1c1,0,1.5-0.4,1.5-1.2
			c0-0.7-0.5-1.1-1.5-1.1c-0.2,0-0.4,0-0.6,0.1c-0.2,0-0.4,0.1-0.5,0.1l-0.6-0.4l0.3-3.9h4.3v2h-2.9l-0.1,1.2l0.2-0.1
			C237.4,241.1,237.6,241,237.9,241z"/>
		<path id="XMLID_228_" class="st1" d="M241,243.1v-1h3v1H241z"/>
		<path id="XMLID_225_" class="st1" d="M244.5,242.6c0-1.5,0.3-2.6,0.9-3.3c0.6-0.7,1.5-1.1,2.7-1.1c0.4,0,0.9,0,0.9,0.1v1.3
			c0-0.1-0.5-0.1-0.8-0.1c-0.5,0-0.9,0.1-1.3,0.2c-0.3,0.2-0.6,0.6-0.7,0.9c-0.2,0.3-0.2,0.5-0.3,1.5h0.1c0.3-1,0.9-1,1.6-1
			c0.7,0,1.2,0.1,1.6,0.5c0.4,0.4,0.6,0.9,0.6,1.7c0,0.8-0.2,1.4-0.7,1.9c-0.4,0.5-1.1,0.7-1.9,0.7c-0.5,0-1-0.1-1.4-0.4
			s-0.7-0.6-0.9-1.1C244.6,243.9,244.5,243.3,244.5,242.6z M247.1,244.6c0.3,0,0.6-0.1,0.8-0.3c0.2-0.2,0.3-0.5,0.3-1
			c0-0.4-0.1-0.6-0.3-0.9c-0.2-0.2-0.4-0.3-0.8-0.3c-0.3,0-0.6,0.1-0.8,0.3s-0.3,0.4-0.3,0.7c0,0.4,0.1,0.7,0.3,1
			C246.5,244.5,246.8,244.6,247.1,244.6z"/>
		<path id="XMLID_222_" class="st1" d="M256,244.1h-1v2h-2v-2h-3v-1l3.5-5h1.5v5h1V244.1z M253,243.1v-1.4c0-0.2,0.2-0.5,0.2-0.9
			c0-0.4,0.2-0.7,0.2-0.7h0c-0.1,0-0.3,0.6-0.5,0.9l-1.4,2.1H253z"/>
	</g>
</g>
<g id="XMLID_202_">
	<g id="XMLID_204_">
		<path id="XMLID_209_" class="st1" d="M291.8,242.6c0-1.5,0.3-2.6,0.9-3.3c0.6-0.7,1.8-1.1,3-1.1c0.4,0,0.2,0,1.2,0.1v1.3
			c-1-0.1-0.8-0.1-1.1-0.1c-0.5,0-1.1,0.1-1.4,0.2c-0.3,0.2-0.7,0.6-0.8,0.9c-0.2,0.3-0.3,0.5-0.4,1.5h0.1c0.3-1,0.9-1,1.6-1
			c0.7,0,1.2,0.1,1.6,0.5c0.4,0.4,0.6,0.9,0.6,1.7c0,0.8-0.2,1.4-0.7,1.9c-0.4,0.5-1.1,0.7-1.9,0.7c-0.5,0-1-0.1-1.4-0.4
			s-0.7-0.6-0.9-1.1C291.9,243.9,291.8,243.3,291.8,242.6z M294.5,244.6c0.3,0,0.6-0.1,0.8-0.3c0.2-0.2,0.3-0.5,0.3-1
			c0-0.4-0.1-0.6-0.3-0.9c-0.2-0.2-0.4-0.3-0.8-0.3c-0.3,0-0.6,0.1-0.8,0.3s-0.3,0.4-0.3,0.7c0,0.4,0.1,0.7,0.3,1
			C293.9,244.5,294.1,244.6,294.5,244.6z"/>
		<path id="XMLID_207_" class="st1" d="M300.5,241c0.7,0,1.3,0.2,1.7,0.6c0.4,0.4,0.6,1,0.6,1.7c0,0.8-0.3,1.5-0.8,1.9
			c-0.5,0.4-1.2,0.7-2.1,0.7c-0.8,0-1.9-0.1-1.9-0.4v-1.4c0,0.1,0.5,0.3,0.9,0.3c0.4,0.1,0.7,0.1,1,0.1c1,0,1.4-0.4,1.4-1.2
			c0-0.7-0.5-1.1-1.5-1.1c-0.2,0-0.4,0-0.6,0.1s-0.4,0.1-0.5,0.1L298,242l0.3-3.9h3.7v2h-2.3l-0.1,1.2l0.2-0.1
			C299.9,241.1,300.2,241,300.5,241z"/>
		<path id="XMLID_205_" class="st1" d="M306,243.1h-2v-2h2v-2h1v2h2v2h-2v1h-1V243.1z"/>
	</g>
</g>
<rect id="XMLID_201_" x="9.5" y="20.6" class="st2" width="24" height="207"/>
<rect id="XMLID_200_" x="64.5" y="20.6" class="st2" width="24" height="207"/>
<rect id="XMLID_199_" x="120.5" y="20.6" class="st2" width="23" height="207"/>
<rect id="XMLID_198_" x="175.5" y="20.6" class="st2" width="24" height="207"/>
<rect id="XMLID_197_" x="230.5" y="20.6" class="st2" width="24" height="207"/>
<rect id="XMLID_196_" x="285.5" y="20.6" class="st2" width="24" height="207"/>
<rect id="XMLID_195_" x="10" y="186.1" class="st3" width="23" height="41"/>
<rect id="XMLID_194_" x="65" y="129.1" class="st3" width="24" height="98"/>
<rect id="XMLID_193_" x="120" y="192.1" class="st3" width="24" height="35"/>
<rect id="XMLID_192_" x="175" y="212.1" class="st3" width="24" height="15"/>
<rect id="XMLID_191_" x="231" y="220.1" class="st3" width="23" height="7"/>
<rect id="XMLID_190_" x="286" y="220.1" class="st3" width="23" height="7"/>
<g id="XMLID_165_">
	<g id="XMLID_167_">
		<path id="XMLID_177_" class="st1" d="M8.9,259.5H7.3v-6.1h-2v-1.3h5.6v1.3h-2V259.5z"/>
		<path id="XMLID_174_" class="st1" d="M15.1,259.5l-0.3-0.8h0c-0.3,0.3-0.5,0.6-0.8,0.7c-0.3,0.1-0.6,0.2-1.1,0.2
			c-0.5,0-1-0.2-1.3-0.5c-0.3-0.3-0.5-0.8-0.5-1.3c0-0.6,0.2-1,0.6-1.3c0.4-0.3,1.1-0.4,1.9-0.5l1,0v-0.2c0-0.6-0.3-0.9-0.9-0.9
			c-0.5,0-1,0.1-1.6,0.4l-0.5-1c0.7-0.3,1.4-0.5,2.2-0.5c0.8,0,1.3,0.2,1.7,0.5c0.4,0.3,0.6,0.8,0.6,1.5v3.8H15.1z M14.7,256.9
			l-0.6,0c-0.4,0-0.8,0.1-1,0.2c-0.2,0.1-0.3,0.4-0.3,0.7c0,0.4,0.3,0.7,0.8,0.7c0.4,0,0.6-0.1,0.9-0.3s0.3-0.5,0.3-0.8V256.9z"/>
		<path id="XMLID_172_" class="st1" d="M23,259.5h-1.5v-3.3c0-0.8-0.3-1.2-0.9-1.2c-0.4,0-0.7,0.1-0.9,0.4c-0.2,0.3-0.3,0.8-0.3,1.4
			v2.7h-1.5v-7.9h1.5v1.6c0,0.1,0,0.4,0,0.9l0,0.5h0.1c0.3-0.6,0.9-0.8,1.6-0.8c0.7,0,1.2,0.2,1.5,0.5c0.3,0.4,0.5,0.9,0.5,1.5
			V259.5z"/>
		<path id="XMLID_170_" class="st1" d="M28.6,259.5l-0.2-0.7h-0.1c-0.2,0.3-0.4,0.5-0.7,0.6c-0.3,0.1-0.7,0.2-1,0.2
			c-0.7,0-1.2-0.2-1.5-0.5c-0.3-0.4-0.5-0.9-0.5-1.5v-3.7h1.5v3.3c0,0.4,0.1,0.7,0.2,0.9c0.1,0.2,0.4,0.3,0.7,0.3
			c0.4,0,0.7-0.1,0.9-0.4c0.2-0.3,0.3-0.8,0.3-1.4v-2.7h1.5v5.7H28.6z"/>
		<path id="XMLID_168_" class="st1" d="M36.7,259.5h-1.5v-3.3c0-0.4-0.1-0.7-0.2-0.9s-0.4-0.3-0.7-0.3c-0.4,0-0.7,0.1-0.9,0.4
			c-0.2,0.3-0.3,0.8-0.3,1.4v2.7h-1.5v-5.7h1.2l0.2,0.7h0.1c0.2-0.3,0.4-0.5,0.7-0.6c0.3-0.1,0.6-0.2,1-0.2c0.7,0,1.2,0.2,1.5,0.5
			s0.5,0.9,0.5,1.5V259.5z"/>
	</g>
</g>
<g id="XMLID_140_">
	<g id="XMLID_142_">
		<path id="XMLID_152_" class="st1" d="M65.9,259.5h-1.6v-6.1h-2v-1.3h5.6v1.3h-2V259.5z"/>
		<path id="XMLID_149_" class="st1" d="M72.1,259.5l-0.3-0.8h0c-0.3,0.3-0.5,0.6-0.8,0.7c-0.3,0.1-0.6,0.2-1.1,0.2
			c-0.5,0-1-0.2-1.3-0.5c-0.3-0.3-0.5-0.8-0.5-1.3c0-0.6,0.2-1,0.6-1.3c0.4-0.3,1.1-0.4,1.9-0.5l1,0v-0.2c0-0.6-0.3-0.9-0.9-0.9
			c-0.5,0-1,0.1-1.6,0.4l-0.5-1c0.7-0.3,1.4-0.5,2.2-0.5c0.8,0,1.3,0.2,1.7,0.5c0.4,0.3,0.6,0.8,0.6,1.5v3.8H72.1z M71.7,256.9
			l-0.6,0c-0.4,0-0.8,0.1-1,0.2c-0.2,0.1-0.3,0.4-0.3,0.7c0,0.4,0.3,0.7,0.8,0.7c0.4,0,0.6-0.1,0.9-0.3s0.3-0.5,0.3-0.8V256.9z"/>
		<path id="XMLID_147_" class="st1" d="M80,259.5h-1.5v-3.3c0-0.8-0.3-1.2-0.9-1.2c-0.4,0-0.7,0.1-0.9,0.4c-0.2,0.3-0.3,0.8-0.3,1.4
			v2.7h-1.5v-7.9h1.5v1.6c0,0.1,0,0.4,0,0.9l0,0.5h0.1c0.3-0.6,0.9-0.8,1.6-0.8c0.7,0,1.2,0.2,1.5,0.5c0.3,0.4,0.5,0.9,0.5,1.5
			V259.5z"/>
		<path id="XMLID_145_" class="st1" d="M85.6,259.5l-0.2-0.7h-0.1c-0.2,0.3-0.4,0.5-0.7,0.6c-0.3,0.1-0.7,0.2-1,0.2
			c-0.7,0-1.2-0.2-1.5-0.5c-0.3-0.4-0.5-0.9-0.5-1.5v-3.7h1.5v3.3c0,0.4,0.1,0.7,0.2,0.9c0.1,0.2,0.4,0.3,0.7,0.3
			c0.4,0,0.7-0.1,0.9-0.4c0.2-0.3,0.3-0.8,0.3-1.4v-2.7h1.5v5.7H85.6z"/>
		<path id="XMLID_143_" class="st1" d="M93.7,259.5h-1.5v-3.3c0-0.4-0.1-0.7-0.2-0.9s-0.4-0.3-0.7-0.3c-0.4,0-0.7,0.1-0.9,0.4
			c-0.2,0.3-0.3,0.8-0.3,1.4v2.7h-1.5v-5.7h1.2l0.2,0.7h0.1c0.2-0.3,0.4-0.5,0.7-0.6c0.3-0.1,0.6-0.2,1-0.2c0.7,0,1.2,0.2,1.5,0.5
			s0.5,0.9,0.5,1.5V259.5z"/>
	</g>
</g>
<g id="XMLID_115_">
	<g id="XMLID_117_">
		<path id="XMLID_127_" class="st1" d="M120.9,259.5h-1.6v-6.1h-2v-1.3h5.6v1.3h-2V259.5z"/>
		<path id="XMLID_124_" class="st1" d="M127.1,259.5l-0.3-0.8h0c-0.3,0.3-0.5,0.6-0.8,0.7c-0.3,0.1-0.6,0.2-1.1,0.2
			c-0.5,0-1-0.2-1.3-0.5c-0.3-0.3-0.5-0.8-0.5-1.3c0-0.6,0.2-1,0.6-1.3c0.4-0.3,1.1-0.4,1.9-0.5l1,0v-0.2c0-0.6-0.3-0.9-0.9-0.9
			c-0.5,0-1,0.1-1.6,0.4l-0.5-1c0.7-0.3,1.4-0.5,2.2-0.5c0.8,0,1.3,0.2,1.7,0.5c0.4,0.3,0.6,0.8,0.6,1.5v3.8H127.1z M126.7,256.9
			l-0.6,0c-0.4,0-0.8,0.1-1,0.2c-0.2,0.1-0.3,0.4-0.3,0.7c0,0.4,0.3,0.7,0.8,0.7c0.4,0,0.6-0.1,0.9-0.3s0.3-0.5,0.3-0.8V256.9z"/>
		<path id="XMLID_122_" class="st1" d="M135,259.5h-1.5v-3.3c0-0.8-0.3-1.2-0.9-1.2c-0.4,0-0.7,0.1-0.9,0.4
			c-0.2,0.3-0.3,0.8-0.3,1.4v2.7h-1.5v-7.9h1.5v1.6c0,0.1,0,0.4,0,0.9l0,0.5h0.1c0.3-0.6,0.9-0.8,1.6-0.8c0.7,0,1.2,0.2,1.5,0.5
			c0.3,0.4,0.5,0.9,0.5,1.5V259.5z"/>
		<path id="XMLID_120_" class="st1" d="M140.6,259.5l-0.2-0.7h-0.1c-0.2,0.3-0.4,0.5-0.7,0.6c-0.3,0.1-0.7,0.2-1,0.2
			c-0.7,0-1.2-0.2-1.5-0.5c-0.3-0.4-0.5-0.9-0.5-1.5v-3.7h1.5v3.3c0,0.4,0.1,0.7,0.2,0.9c0.1,0.2,0.4,0.3,0.7,0.3
			c0.4,0,0.7-0.1,0.9-0.4c0.2-0.3,0.3-0.8,0.3-1.4v-2.7h1.5v5.7H140.6z"/>
		<path id="XMLID_118_" class="st1" d="M148.7,259.5h-1.5v-3.3c0-0.4-0.1-0.7-0.2-0.9s-0.4-0.3-0.7-0.3c-0.4,0-0.7,0.1-0.9,0.4
			c-0.2,0.3-0.3,0.8-0.3,1.4v2.7h-1.5v-5.7h1.2l0.2,0.7h0.1c0.2-0.3,0.4-0.5,0.7-0.6c0.3-0.1,0.6-0.2,1-0.2c0.7,0,1.2,0.2,1.5,0.5
			s0.5,0.9,0.5,1.5V259.5z"/>
	</g>
</g>
<g id="XMLID_90_">
	<g id="XMLID_92_">
		<path id="XMLID_102_" class="st1" d="M175.9,259.5h-1.6v-6.1h-2v-1.3h5.6v1.3h-2V259.5z"/>
		<path id="XMLID_99_" class="st1" d="M182.1,259.5l-0.3-0.8h0c-0.3,0.3-0.5,0.6-0.8,0.7c-0.3,0.1-0.6,0.2-1.1,0.2
			c-0.5,0-1-0.2-1.3-0.5c-0.3-0.3-0.5-0.8-0.5-1.3c0-0.6,0.2-1,0.6-1.3c0.4-0.3,1.1-0.4,1.9-0.5l1,0v-0.2c0-0.6-0.3-0.9-0.9-0.9
			c-0.5,0-1,0.1-1.6,0.4l-0.5-1c0.7-0.3,1.4-0.5,2.2-0.5c0.8,0,1.3,0.2,1.7,0.5c0.4,0.3,0.6,0.8,0.6,1.5v3.8H182.1z M181.7,256.9
			l-0.6,0c-0.4,0-0.8,0.1-1,0.2c-0.2,0.1-0.3,0.4-0.3,0.7c0,0.4,0.3,0.7,0.8,0.7c0.4,0,0.6-0.1,0.9-0.3s0.3-0.5,0.3-0.8V256.9z"/>
		<path id="XMLID_97_" class="st1" d="M190,259.5h-1.5v-3.3c0-0.8-0.3-1.2-0.9-1.2c-0.4,0-0.7,0.1-0.9,0.4c-0.2,0.3-0.3,0.8-0.3,1.4
			v2.7h-1.5v-7.9h1.5v1.6c0,0.1,0,0.4,0,0.9l0,0.5h0.1c0.3-0.6,0.9-0.8,1.6-0.8c0.7,0,1.2,0.2,1.5,0.5c0.3,0.4,0.5,0.9,0.5,1.5
			V259.5z"/>
		<path id="XMLID_95_" class="st1" d="M195.6,259.5l-0.2-0.7h-0.1c-0.2,0.3-0.4,0.5-0.7,0.6c-0.3,0.1-0.7,0.2-1,0.2
			c-0.7,0-1.2-0.2-1.5-0.5c-0.3-0.4-0.5-0.9-0.5-1.5v-3.7h1.5v3.3c0,0.4,0.1,0.7,0.2,0.9c0.1,0.2,0.4,0.3,0.7,0.3
			c0.4,0,0.7-0.1,0.9-0.4c0.2-0.3,0.3-0.8,0.3-1.4v-2.7h1.5v5.7H195.6z"/>
		<path id="XMLID_93_" class="st1" d="M203.7,259.5h-1.5v-3.3c0-0.4-0.1-0.7-0.2-0.9s-0.4-0.3-0.7-0.3c-0.4,0-0.7,0.1-0.9,0.4
			c-0.2,0.3-0.3,0.8-0.3,1.4v2.7h-1.5v-5.7h1.2l0.2,0.7h0.1c0.2-0.3,0.4-0.5,0.7-0.6c0.3-0.1,0.6-0.2,1-0.2c0.7,0,1.2,0.2,1.5,0.5
			s0.5,0.9,0.5,1.5V259.5z"/>
	</g>
</g>
<g id="XMLID_65_">
	<g id="XMLID_67_">
		<path id="XMLID_77_" class="st1" d="M230.9,259.5h-1.6v-6.1h-2v-1.3h5.6v1.3h-2V259.5z"/>
		<path id="XMLID_74_" class="st1" d="M237.1,259.5l-0.3-0.8h0c-0.3,0.3-0.5,0.6-0.8,0.7c-0.3,0.1-0.6,0.2-1.1,0.2
			c-0.5,0-1-0.2-1.3-0.5c-0.3-0.3-0.5-0.8-0.5-1.3c0-0.6,0.2-1,0.6-1.3c0.4-0.3,1.1-0.4,1.9-0.5l1,0v-0.2c0-0.6-0.3-0.9-0.9-0.9
			c-0.5,0-1,0.1-1.6,0.4l-0.5-1c0.7-0.3,1.4-0.5,2.2-0.5c0.8,0,1.3,0.2,1.7,0.5c0.4,0.3,0.6,0.8,0.6,1.5v3.8H237.1z M236.7,256.9
			l-0.6,0c-0.4,0-0.8,0.1-1,0.2c-0.2,0.1-0.3,0.4-0.3,0.7c0,0.4,0.3,0.7,0.8,0.7c0.4,0,0.6-0.1,0.9-0.3s0.3-0.5,0.3-0.8V256.9z"/>
		<path id="XMLID_72_" class="st1" d="M245,259.5h-1.5v-3.3c0-0.8-0.3-1.2-0.9-1.2c-0.4,0-0.7,0.1-0.9,0.4c-0.2,0.3-0.3,0.8-0.3,1.4
			v2.7h-1.5v-7.9h1.5v1.6c0,0.1,0,0.4,0,0.9l0,0.5h0.1c0.3-0.6,0.9-0.8,1.6-0.8c0.7,0,1.2,0.2,1.5,0.5c0.3,0.4,0.5,0.9,0.5,1.5
			V259.5z"/>
		<path id="XMLID_70_" class="st1" d="M250.6,259.5l-0.2-0.7h-0.1c-0.2,0.3-0.4,0.5-0.7,0.6c-0.3,0.1-0.7,0.2-1,0.2
			c-0.7,0-1.2-0.2-1.5-0.5c-0.3-0.4-0.5-0.9-0.5-1.5v-3.7h1.5v3.3c0,0.4,0.1,0.7,0.2,0.9c0.1,0.2,0.4,0.3,0.7,0.3
			c0.4,0,0.7-0.1,0.9-0.4c0.2-0.3,0.3-0.8,0.3-1.4v-2.7h1.5v5.7H250.6z"/>
		<path id="XMLID_68_" class="st1" d="M258.7,259.5h-1.5v-3.3c0-0.4-0.1-0.7-0.2-0.9s-0.4-0.3-0.7-0.3c-0.4,0-0.7,0.1-0.9,0.4
			c-0.2,0.3-0.3,0.8-0.3,1.4v2.7h-1.5v-5.7h1.2l0.2,0.7h0.1c0.2-0.3,0.4-0.5,0.7-0.6c0.3-0.1,0.6-0.2,1-0.2c0.7,0,1.2,0.2,1.5,0.5
			s0.5,0.9,0.5,1.5V259.5z"/>
	</g>
</g>
<g id="XMLID_27_">
	<g id="XMLID_37_">
		<path id="XMLID_48_" class="st1" d="M286.9,259.5h-1.6v-6.1h-2v-1.3h5.6v1.3h-2V259.5z"/>
		<path id="XMLID_45_" class="st1" d="M293.1,259.5l-0.3-0.8h0c-0.3,0.3-0.5,0.6-0.8,0.7c-0.3,0.1-0.6,0.2-1.1,0.2
			c-0.5,0-1-0.2-1.3-0.5c-0.3-0.3-0.5-0.8-0.5-1.3c0-0.6,0.2-1,0.6-1.3c0.4-0.3,1.1-0.4,1.9-0.5l1,0v-0.2c0-0.6-0.3-0.9-0.9-0.9
			c-0.5,0-1,0.1-1.6,0.4l-0.5-1c0.7-0.3,1.4-0.5,2.2-0.5c0.8,0,1.3,0.2,1.7,0.5c0.4,0.3,0.6,0.8,0.6,1.5v3.8H293.1z M292.7,256.9
			l-0.6,0c-0.4,0-0.8,0.1-1,0.2c-0.2,0.1-0.3,0.4-0.3,0.7c0,0.4,0.3,0.7,0.8,0.7c0.4,0,0.6-0.1,0.9-0.3s0.3-0.5,0.3-0.8V256.9z"/>
		<path id="XMLID_43_" class="st1" d="M301,259.5h-1.5v-3.3c0-0.8-0.3-1.2-0.9-1.2c-0.4,0-0.7,0.1-0.9,0.4c-0.2,0.3-0.3,0.8-0.3,1.4
			v2.7h-1.5v-7.9h1.5v1.6c0,0.1,0,0.4,0,0.9l0,0.5h0.1c0.3-0.6,0.9-0.8,1.6-0.8c0.7,0,1.2,0.2,1.5,0.5c0.3,0.4,0.5,0.9,0.5,1.5
			V259.5z"/>
		<path id="XMLID_41_" class="st1" d="M306.6,259.5l-0.2-0.7h-0.1c-0.2,0.3-0.4,0.5-0.7,0.6c-0.3,0.1-0.7,0.2-1,0.2
			c-0.7,0-1.2-0.2-1.5-0.5c-0.3-0.4-0.5-0.9-0.5-1.5v-3.7h1.5v3.3c0,0.4,0.1,0.7,0.2,0.9c0.1,0.2,0.4,0.3,0.7,0.3
			c0.4,0,0.7-0.1,0.9-0.4c0.2-0.3,0.3-0.8,0.3-1.4v-2.7h1.5v5.7H306.6z"/>
		<path id="XMLID_38_" class="st1" d="M314.7,259.5h-1.5v-3.3c0-0.4-0.1-0.7-0.2-0.9s-0.4-0.3-0.7-0.3c-0.4,0-0.7,0.1-0.9,0.4
			c-0.2,0.3-0.3,0.8-0.3,1.4v2.7h-1.5v-5.7h1.2l0.2,0.7h0.1c0.2-0.3,0.4-0.5,0.7-0.6c0.3-0.1,0.6-0.2,1-0.2c0.7,0,1.2,0.2,1.5,0.5
			s0.5,0.9,0.5,1.5V259.5z"/>
	</g>
</g>
</svg>