<!-- Generator: Adobe Illustrator 19.0.0, SVG Export Plug-In  -->
<svg version="1.1"
	 xmlns="http://www.w3.org/2000/svg" xmlns:xlink="http://www.w3.org/1999/xlink" xmlns:a="http://ns.adobe.com/AdobeSVGViewerExtensions/3.0/"
	 x="0px" y="0px" width="299.2px" height="74.8px" viewBox="0 0 299.2 74.8" style="enable-background:new 0 0 299.2 74.8;"
	 xml:space="preserve">
<style type="text/css">
	.st0{fill:#FF6633;}
	.st1{fill:#FFFFFF;}
	.st2{fill:none;stroke:#FFFFFF;stroke-width:2;stroke-linecap:round;stroke-linejoin:round;stroke-miterlimit:10;}
	.st3{fill:#FFFFFF;stroke:#FFFFFF;stroke-width:0.9939;stroke-miterlimit:10;}
	.st4{fill:#FFFFFF;stroke:#FFFFFF;stroke-width:0.7;stroke-miterlimit:10;}
</style>
<defs>
</defs>
<circle id="XMLID_126_" class="st0" cx="8.4" cy="20.6" r="8.4"/>
<g id="XMLID_122_">
	<path id="XMLID_123_" class="st1" d="M11,22.8h-1v2H8v-2H4v-1l4.2-6H10v6h1V22.8z M8,21.8v-1.6c0-0.2,0.1-0.4,0.1-0.8
		s0.1-0.6,0.1-0.6h0c-0.1,0-0.3,0.5-0.5,0.8L6,21.8H8z"/>
</g>
<polygon id="XMLID_121_" class="st2" points="243.5,73.8 269.7,9.7 298.2,73.8 "/>
<line id="XMLID_120_" class="st2" x1="265" y1="3.8" x2="272" y2="3.8"/>
<line id="XMLID_119_" class="st2" x1="266" y1="1" x2="271" y2="5.9"/>
<line id="XMLID_118_" class="st2" x1="271.3" y1="1" x2="266.4" y2="5.9"/>
<path id="XMLID_117_" class="st0" d="M242,13.5c0,0-1.1,5.5-6.5,6.3c5.5,0.8,6.5,6.3,6.5,6.3s1.1-5.5,6.5-6.3
	C243.1,19.1,242,13.5,242,13.5"/>
<path id="XMLID_116_" class="st0" d="M237.9,44.1c0,0-1.1,5.5-6.5,6.3c5.5,0.8,6.5,6.3,6.5,6.3s1.1-5.5,6.5-6.3
	C239,49.6,237.9,44.1,237.9,44.1"/>
<path id="XMLID_113_" class="st0" d="M214.1,28.6c0,0-2.6,13.5-16,15.5c13.5,2,16,15.5,16,15.5s2.6-13.5,16-15.5
	C216.7,42.1,214.1,28.6,214.1,28.6 M214.1,32.7c0.5,1.1,1.1,2.3,1.9,3.5c2.3,3.6,5.5,6.3,9.3,7.8c-3.8,1.5-6.9,4.2-9.3,7.8
	c-0.8,1.2-1.4,2.5-1.9,3.5c-0.5-1.1-1.1-2.3-1.9-3.5c-2.3-3.6-5.5-6.3-9.3-7.8c3.8-1.5,6.9-4.2,9.3-7.8
	C213,35,213.7,33.8,214.1,32.7"/>
<path id="XMLID_112_" class="st3" d="M228.1,35.6c-0.6-1.3-1.7-2.9-3.7-3.9c2-0.9,3.1-2.6,3.7-3.9c0.6,1.3,1.7,2.9,3.7,3.9
	C229.8,32.7,228.7,34.3,228.1,35.6z"/>
<circle id="XMLID_111_" class="st1" cx="227" cy="60.2" r="3.2"/>
<g id="XMLID_15_">
	<path id="XMLID_109_" class="st4" d="M40.5,25.9h-1.7l-4.1-5.5l-1.2,1v4.4h-1.4V14.5h1.4v5.6l1-1.1l4.1-4.5h1.7l-4.5,5L40.5,25.9z"
		/>
	<path id="XMLID_106_" class="st4" d="M45.5,26c-1.3,0-2.3-0.4-3-1.2c-0.7-0.8-1.1-1.8-1.1-3.2c0-1.4,0.3-2.5,1-3.3
		c0.7-0.8,1.6-1.2,2.8-1.2c1.1,0,1.9,0.3,2.6,1s1,1.6,1,2.8v0.9h-5.9c0,1,0.3,1.7,0.7,2.2c0.5,0.5,1.1,0.8,2,0.8
		c0.5,0,0.9,0,1.3-0.1c0.4-0.1,0.9-0.2,1.4-0.5v1.2c-0.5,0.2-0.9,0.3-1.3,0.4C46.5,26,46,26,45.5,26z M45.1,18.3
		c-0.7,0-1.2,0.2-1.6,0.6c-0.4,0.4-0.6,1-0.7,1.8h4.4c0-0.8-0.2-1.4-0.6-1.8C46.3,18.5,45.8,18.3,45.1,18.3z"/>
	<path id="XMLID_104_" class="st4" d="M56.4,23.5c0,0.8-0.3,1.4-0.9,1.9C54.9,25.8,54.1,26,53,26c-1.1,0-2-0.2-2.7-0.5v-1.3
		c0.9,0.5,1.9,0.7,2.7,0.7c0.7,0,1.2-0.1,1.5-0.3c0.3-0.2,0.5-0.5,0.5-0.9c0-0.3-0.2-0.6-0.5-0.9c-0.3-0.2-0.9-0.5-1.7-0.8
		c-0.8-0.3-1.4-0.6-1.7-0.8c-0.3-0.2-0.6-0.5-0.7-0.7c-0.2-0.3-0.2-0.6-0.2-1c0-0.7,0.3-1.3,0.9-1.7c0.6-0.4,1.4-0.6,2.4-0.6
		c1,0,1.9,0.2,2.7,0.6l-0.5,1.1c-0.9-0.4-1.7-0.5-2.4-0.5c-0.6,0-1,0.1-1.3,0.3c-0.3,0.2-0.5,0.4-0.5,0.8c0,0.3,0.1,0.6,0.4,0.8
		c0.3,0.2,0.9,0.5,1.8,0.9c0.7,0.3,1.2,0.5,1.6,0.7c0.3,0.2,0.6,0.5,0.8,0.8C56.4,22.8,56.4,23.1,56.4,23.5z"/>
	<path id="XMLID_101_" class="st4" d="M62.2,26c-1.3,0-2.3-0.4-3-1.2C58.4,24.1,58,23,58,21.7c0-1.4,0.3-2.5,1-3.3
		c0.7-0.8,1.6-1.2,2.8-1.2c1.1,0,1.9,0.3,2.6,1s1,1.6,1,2.8v0.9h-5.9c0,1,0.3,1.7,0.7,2.2c0.5,0.5,1.1,0.8,2,0.8
		c0.5,0,0.9,0,1.3-0.1c0.4-0.1,0.9-0.2,1.4-0.5v1.2c-0.5,0.2-0.9,0.3-1.3,0.4C63.2,26,62.7,26,62.2,26z M61.8,18.3
		c-0.7,0-1.2,0.2-1.6,0.6c-0.4,0.4-0.6,1-0.7,1.8h4.4c0-0.8-0.2-1.4-0.6-1.8C63,18.5,62.5,18.3,61.8,18.3z"/>
	<path id="XMLID_99_" class="st4" d="M78.4,25.9v-5.5c0-1.4-0.6-2-1.7-2c-0.8,0-1.4,0.2-1.8,0.7c-0.4,0.5-0.6,1.2-0.6,2.1v4.7H73
		v-5.5c0-0.7-0.1-1.2-0.4-1.5c-0.3-0.3-0.7-0.5-1.3-0.5c-0.8,0-1.4,0.2-1.7,0.7s-0.6,1.3-0.6,2.4v4.4h-1.4v-8.6h1.1l0.2,1.2H69
		c0.2-0.4,0.6-0.7,1-1s0.9-0.4,1.5-0.4c1.3,0,2.2,0.5,2.6,1.4h0.1c0.3-0.5,0.7-0.8,1.1-1.1s1-0.4,1.6-0.4c1,0,1.7,0.3,2.2,0.8
		c0.5,0.5,0.7,1.3,0.7,2.4v5.6H78.4z"/>
	<path id="XMLID_96_" class="st4" d="M86.6,26c-1.2,0-2-0.4-2.7-1.2h-0.1l0,0.3c0,0.4,0.1,0.8,0.1,1.1v3.5h-1.4V17.3h1.2l0.2,1.2
		h0.1c0.3-0.5,0.7-0.8,1.2-1c0.4-0.2,0.9-0.3,1.5-0.3c1.1,0,2,0.4,2.6,1.2s0.9,1.9,0.9,3.3c0,1.4-0.3,2.5-0.9,3.3
		C88.5,25.7,87.7,26,86.6,26z M86.3,18.3c-0.8,0-1.5,0.2-1.8,0.7c-0.4,0.5-0.6,1.2-0.6,2.3v0.3c0,1.2,0.2,2,0.6,2.5
		c0.4,0.5,1,0.8,1.9,0.8c0.7,0,1.3-0.3,1.7-0.9c0.4-0.6,0.6-1.4,0.6-2.4c0-1-0.2-1.8-0.6-2.4C87.6,18.6,87.1,18.3,86.3,18.3z"/>
	<path id="XMLID_93_" class="st4" d="M97.6,25.9l-0.3-1.2h-0.1c-0.4,0.5-0.9,0.9-1.3,1.1c-0.4,0.2-1,0.3-1.6,0.3
		c-0.8,0-1.5-0.2-2-0.7c-0.5-0.4-0.7-1.1-0.7-1.9c0-1.7,1.4-2.7,4.1-2.7l1.5-0.1v-0.5c0-0.7-0.1-1.1-0.4-1.4
		c-0.3-0.3-0.7-0.5-1.4-0.5c-0.5,0-0.9,0.1-1.3,0.2c-0.4,0.1-0.8,0.3-1.1,0.5l-0.4-1.1c0.4-0.2,0.9-0.4,1.4-0.5
		c0.5-0.1,1-0.2,1.5-0.2c1,0,1.8,0.2,2.3,0.7c0.5,0.5,0.8,1.2,0.8,2.2v5.8H97.6z M94.7,24.9c0.8,0,1.4-0.2,1.9-0.6
		c0.5-0.4,0.7-1,0.7-1.8v-0.8L96,21.8c-1,0-1.7,0.2-2.2,0.5c-0.5,0.3-0.7,0.7-0.7,1.3c0,0.4,0.1,0.8,0.4,1
		C93.9,24.8,94.2,24.9,94.7,24.9z"/>
	<path id="XMLID_91_" class="st4" d="M104.2,24.9c0.2,0,0.4,0,0.6-0.1c0.2,0,0.4-0.1,0.6-0.1v1.1c-0.1,0.1-0.3,0.1-0.6,0.2
		s-0.6,0.1-0.8,0.1c-1.7,0-2.5-0.9-2.5-2.6v-5h-1.2v-0.7l1.2-0.6l0.6-1.8h0.8v2h2.5v1.1h-2.5v5c0,0.5,0.1,0.9,0.4,1.1
		C103.4,24.8,103.8,24.9,104.2,24.9z"/>
	<path id="XMLID_88_" class="st4" d="M112.4,25.9l-0.3-1.2H112c-0.4,0.5-0.9,0.9-1.3,1.1c-0.4,0.2-1,0.3-1.6,0.3
		c-0.8,0-1.5-0.2-2-0.7c-0.5-0.4-0.7-1.1-0.7-1.9c0-1.7,1.4-2.7,4.1-2.7l1.5-0.1v-0.5c0-0.7-0.1-1.1-0.4-1.4
		c-0.3-0.3-0.7-0.5-1.4-0.5c-0.5,0-0.9,0.1-1.3,0.2c-0.4,0.1-0.8,0.3-1.1,0.5l-0.4-1.1c0.4-0.2,0.9-0.4,1.4-0.5
		c0.5-0.1,1-0.2,1.5-0.2c1,0,1.8,0.2,2.3,0.7c0.5,0.5,0.8,1.2,0.8,2.2v5.8H112.4z M109.5,24.9c0.8,0,1.4-0.2,1.9-0.6
		c0.5-0.4,0.7-1,0.7-1.8v-0.8l-1.3,0.1c-1,0-1.7,0.2-2.2,0.5c-0.5,0.3-0.7,0.7-0.7,1.3c0,0.4,0.1,0.8,0.4,1
		C108.6,24.8,109,24.9,109.5,24.9z"/>
	<path id="XMLID_86_" class="st4" d="M121.9,25.9v-5.5c0-0.7-0.2-1.2-0.5-1.6c-0.3-0.3-0.8-0.5-1.5-0.5c-0.9,0-1.5,0.2-1.9,0.7
		c-0.4,0.5-0.6,1.3-0.6,2.4v4.4h-1.4v-8.6h1.1l0.2,1.2h0.1c0.3-0.4,0.6-0.7,1.1-1c0.5-0.2,1-0.3,1.6-0.3c1.1,0,1.8,0.3,2.3,0.8
		c0.5,0.5,0.8,1.3,0.8,2.4v5.6H121.9z"/>
	<path id="XMLID_84_" class="st4" d="M131.5,21.5l0.5-0.6l0.5-0.7l2.7-2.9h1.6l-3.5,3.7l3.7,4.9h-1.7l-3-4l-1,0.9v3.1h-1.4V13.7h1.4
		v6.4V21.5L131.5,21.5z"/>
	<path id="XMLID_82_" class="st4" d="M144.5,25.9v-5.5c0-0.7-0.2-1.2-0.5-1.6c-0.3-0.3-0.8-0.5-1.5-0.5c-0.9,0-1.5,0.2-1.9,0.7
		c-0.4,0.5-0.6,1.3-0.6,2.4v4.4h-1.4V13.7h1.4v3.6c0,0.5,0,0.9-0.1,1.2h0.1c0.3-0.4,0.6-0.7,1.1-1s1-0.4,1.6-0.4
		c1,0,1.8,0.2,2.4,0.7c0.5,0.5,0.8,1.3,0.8,2.4v5.6H144.5z"/>
	<path id="XMLID_80_" class="st4" d="M149.9,17.3v5.5c0,0.7,0.2,1.2,0.5,1.5c0.3,0.3,0.8,0.5,1.4,0.5c0.9,0,1.5-0.2,1.9-0.7
		c0.4-0.5,0.6-1.3,0.6-2.4v-4.5h1.4v8.6h-1.2l-0.2-1.1h-0.1c-0.3,0.4-0.6,0.7-1.1,1s-1,0.3-1.6,0.3c-1,0-1.8-0.2-2.3-0.7
		c-0.5-0.5-0.8-1.3-0.8-2.4v-5.6H149.9z"/>
	<path id="XMLID_78_" class="st4" d="M164,23.5c0,0.8-0.3,1.4-0.9,1.9c-0.6,0.4-1.4,0.7-2.5,0.7c-1.1,0-2-0.2-2.7-0.5v-1.3
		c0.9,0.5,1.9,0.7,2.7,0.7c0.7,0,1.2-0.1,1.5-0.3c0.3-0.2,0.5-0.5,0.5-0.9c0-0.3-0.2-0.6-0.5-0.9c-0.3-0.2-0.9-0.5-1.7-0.8
		c-0.8-0.3-1.4-0.6-1.7-0.8c-0.3-0.2-0.6-0.5-0.7-0.7c-0.2-0.3-0.2-0.6-0.2-1c0-0.7,0.3-1.3,0.9-1.7c0.6-0.4,1.4-0.6,2.4-0.6
		c1,0,1.9,0.2,2.7,0.6l-0.5,1.1c-0.9-0.4-1.7-0.5-2.4-0.5c-0.6,0-1,0.1-1.3,0.3c-0.3,0.2-0.5,0.4-0.5,0.8c0,0.3,0.1,0.6,0.4,0.8
		c0.3,0.2,0.9,0.5,1.8,0.9c0.7,0.3,1.2,0.5,1.6,0.7c0.3,0.2,0.6,0.5,0.8,0.8C163.9,22.8,164,23.1,164,23.5z"/>
	<path id="XMLID_76_" class="st4" d="M167.4,17.3v5.5c0,0.7,0.2,1.2,0.5,1.5c0.3,0.3,0.8,0.5,1.4,0.5c0.9,0,1.5-0.2,1.9-0.7
		c0.4-0.5,0.6-1.3,0.6-2.4v-4.5h1.4v8.6h-1.2l-0.2-1.1h-0.1c-0.3,0.4-0.6,0.7-1.1,1s-1,0.3-1.6,0.3c-1,0-1.8-0.2-2.3-0.7
		c-0.5-0.5-0.8-1.3-0.8-2.4v-5.6H167.4z"/>
	<path id="XMLID_74_" class="st4" d="M181.6,23.5c0,0.8-0.3,1.4-0.9,1.9c-0.6,0.4-1.4,0.7-2.5,0.7c-1.1,0-2-0.2-2.7-0.5v-1.3
		c0.9,0.5,1.9,0.7,2.7,0.7c0.7,0,1.2-0.1,1.5-0.3c0.3-0.2,0.5-0.5,0.5-0.9c0-0.3-0.2-0.6-0.5-0.9c-0.3-0.2-0.9-0.5-1.7-0.8
		c-0.8-0.3-1.4-0.6-1.7-0.8c-0.3-0.2-0.6-0.5-0.7-0.7c-0.2-0.3-0.2-0.6-0.2-1c0-0.7,0.3-1.3,0.9-1.7c0.6-0.4,1.4-0.6,2.4-0.6
		c1,0,1.9,0.2,2.7,0.6l-0.5,1.1c-0.9-0.4-1.7-0.5-2.4-0.5c-0.6,0-1,0.1-1.3,0.3c-0.3,0.2-0.5,0.4-0.5,0.8c0,0.3,0.1,0.6,0.4,0.8
		c0.3,0.2,0.9,0.5,1.8,0.9c0.7,0.3,1.2,0.5,1.6,0.7c0.3,0.2,0.6,0.5,0.8,0.8C181.5,22.8,181.6,23.1,181.6,23.5z"/>
	<path id="XMLID_72_" class="st4" d="M35.4,42.9c-1.2,0-2.2-0.4-2.9-1.1s-1-1.8-1-3.3c0-1.4,0.3-2.5,1-3.3c0.7-0.8,1.7-1.2,3-1.2
		c0.4,0,0.8,0,1.2,0.1c0.4,0.1,0.7,0.2,1,0.3l-0.4,1.2c-0.7-0.3-1.3-0.4-1.9-0.4c-0.9,0-1.5,0.3-1.9,0.8c-0.4,0.5-0.6,1.4-0.6,2.4
		c0,1,0.2,1.8,0.6,2.4c0.4,0.5,1,0.8,1.8,0.8c0.8,0,1.5-0.2,2.2-0.5v1.3C37,42.8,36.2,42.9,35.4,42.9z"/>
	<path id="XMLID_69_" class="st4" d="M47,38.5c0,1.4-0.4,2.5-1.1,3.3c-0.7,0.8-1.7,1.2-2.9,1.2c-0.8,0-1.5-0.2-2.1-0.5
		c-0.6-0.4-1.1-0.9-1.4-1.6c-0.3-0.7-0.5-1.5-0.5-2.4c0-1.4,0.3-2.5,1-3.3c0.7-0.8,1.7-1.2,2.9-1.2c1.2,0,2.2,0.4,2.9,1.2
		C46.7,36,47,37.1,47,38.5z M40.6,38.5c0,1.1,0.2,1.9,0.6,2.5c0.4,0.6,1.1,0.8,1.9,0.8c0.8,0,1.4-0.3,1.9-0.8
		c0.4-0.6,0.6-1.4,0.6-2.5S45.4,36.6,45,36c-0.4-0.5-1.1-0.8-1.9-0.8C41.4,35.2,40.6,36.3,40.6,38.5z"/>
	<path id="XMLID_67_" class="st4" d="M55.1,42.8v-5.5c0-0.7-0.2-1.2-0.5-1.6c-0.3-0.3-0.8-0.5-1.5-0.5c-0.9,0-1.5,0.2-1.9,0.7
		c-0.4,0.5-0.6,1.3-0.6,2.4v4.4h-1.4v-8.6h1.1l0.2,1.2h0.1c0.3-0.4,0.6-0.7,1.1-1c0.5-0.2,1-0.3,1.6-0.3c1.1,0,1.8,0.3,2.3,0.8
		c0.5,0.5,0.8,1.3,0.8,2.4v5.6H55.1z"/>
	<path id="XMLID_65_" class="st4" d="M62,41.8c0.2,0,0.4,0,0.6-0.1c0.2,0,0.4-0.1,0.6-0.1v1.1c-0.1,0.1-0.3,0.1-0.6,0.2
		s-0.6,0.1-0.8,0.1c-1.7,0-2.5-0.9-2.5-2.6v-5h-1.2v-0.7l1.2-0.6l0.6-1.8h0.8v2h2.5v1.1h-2.5v5c0,0.5,0.1,0.9,0.4,1.1
		C61.3,41.7,61.6,41.8,62,41.8z"/>
	<path id="XMLID_62_" class="st4" d="M72.4,38.5c0,1.4-0.4,2.5-1.1,3.3c-0.7,0.8-1.7,1.2-2.9,1.2c-0.8,0-1.5-0.2-2.1-0.5
		c-0.6-0.4-1.1-0.9-1.4-1.6c-0.3-0.7-0.5-1.5-0.5-2.4c0-1.4,0.3-2.5,1-3.3c0.7-0.8,1.7-1.2,2.9-1.2c1.2,0,2.2,0.4,2.9,1.2
		C72,36,72.4,37.1,72.4,38.5z M65.9,38.5c0,1.1,0.2,1.9,0.6,2.5c0.4,0.6,1.1,0.8,1.9,0.8c0.8,0,1.4-0.3,1.9-0.8
		c0.4-0.6,0.6-1.4,0.6-2.5s-0.2-1.9-0.6-2.4c-0.4-0.5-1.1-0.8-1.9-0.8C66.7,35.2,65.9,36.3,65.9,38.5z"/>
	<path id="XMLID_60_" class="st4" d="M80.5,42.8v-5.5c0-0.7-0.2-1.2-0.5-1.6c-0.3-0.3-0.8-0.5-1.5-0.5c-0.9,0-1.5,0.2-1.9,0.7
		c-0.4,0.5-0.6,1.3-0.6,2.4v4.4h-1.4V30.6H76v3.6c0,0.5,0,0.9-0.1,1.2H76c0.3-0.4,0.6-0.7,1.1-1s1-0.4,1.6-0.4c1,0,1.8,0.2,2.4,0.7
		c0.5,0.5,0.8,1.3,0.8,2.4v5.6H80.5z"/>
	<path id="XMLID_58_" class="st4" d="M90.4,42.8v-5.5c0-0.7-0.2-1.2-0.5-1.6c-0.3-0.3-0.8-0.5-1.5-0.5c-0.9,0-1.5,0.2-1.9,0.7
		c-0.4,0.5-0.6,1.3-0.6,2.4v4.4h-1.4v-8.6h1.1l0.2,1.2h0.1c0.3-0.4,0.6-0.7,1.1-1c0.5-0.2,1-0.3,1.6-0.3c1.1,0,1.8,0.3,2.3,0.8
		c0.5,0.5,0.8,1.3,0.8,2.4v5.6H90.4z"/>
	<path id="XMLID_56_" class="st4" d="M93.1,34.2h1.5l1.9,4.9c0.4,1.1,0.6,1.8,0.7,2.3h0.1c0-0.2,0.2-0.6,0.3-1.1
		c0.2-0.5,0.3-1,0.4-1.3l1.7-4.9h1.5L97.5,44c-0.4,0.9-0.8,1.6-1.3,2c-0.5,0.4-1.1,0.6-1.8,0.6c-0.4,0-0.8,0-1.2-0.1v-1.1
		c0.3,0.1,0.6,0.1,0.9,0.1c0.4,0,0.8-0.1,1.1-0.4s0.6-0.6,0.8-1.1l0.4-1.1L93.1,34.2z"/>
	<path id="XMLID_53_" class="st4" d="M107.9,42.8l-0.3-1.2h-0.1c-0.4,0.5-0.9,0.9-1.3,1.1c-0.4,0.2-1,0.3-1.6,0.3
		c-0.8,0-1.5-0.2-2-0.7c-0.5-0.4-0.7-1.1-0.7-1.9c0-1.7,1.4-2.7,4.1-2.7l1.5-0.1v-0.5c0-0.7-0.1-1.1-0.4-1.4
		c-0.3-0.3-0.7-0.5-1.4-0.5c-0.5,0-0.9,0.1-1.3,0.2c-0.4,0.1-0.8,0.3-1.1,0.5l-0.4-1.1c0.4-0.2,0.9-0.4,1.4-0.5
		c0.5-0.1,1-0.2,1.5-0.2c1,0,1.8,0.2,2.3,0.7c0.5,0.5,0.8,1.2,0.8,2.2v5.8H107.9z M105,41.8c0.8,0,1.4-0.2,1.9-0.6
		c0.5-0.4,0.7-1,0.7-1.8v-0.8l-1.3,0.1c-1,0-1.7,0.2-2.2,0.5c-0.5,0.3-0.7,0.7-0.7,1.3c0,0.4,0.1,0.8,0.4,1
		C104.1,41.7,104.5,41.8,105,41.8z"/>
	<path id="XMLID_50_" class="st4" d="M111.3,35.1c0-0.3,0.1-0.6,0.2-0.8c0.2-0.2,0.4-0.3,0.7-0.3c0.3,0,0.6,0.1,0.8,0.3
		s0.3,0.5,0.3,0.8c0,0.3-0.1,0.6-0.3,0.8c-0.2,0.2-0.4,0.3-0.7,0.3c-0.3,0-0.5-0.1-0.7-0.3C111.4,35.7,111.3,35.4,111.3,35.1z
		 M111.3,41.9c0-0.3,0.1-0.6,0.3-0.8c0.2-0.2,0.4-0.3,0.7-0.3c0.3,0,0.6,0.1,0.7,0.3c0.2,0.2,0.3,0.4,0.3,0.8c0,0.3-0.1,0.6-0.3,0.8
		c-0.2,0.2-0.4,0.3-0.7,0.3c-0.3,0-0.5-0.1-0.7-0.3S111.3,42.3,111.3,41.9z"/>
	<path id="XMLID_48_" class="st4" d="M40.8,59.7h-1.4v-5.3h-5.9v5.3h-1.4V48.2h1.4v4.8h5.9v-4.8h1.4V59.7z"/>
	<path id="XMLID_45_" class="st4" d="M49.1,59.7l-0.3-1.2h-0.1c-0.4,0.5-0.9,0.9-1.3,1.1c-0.4,0.2-1,0.3-1.6,0.3
		c-0.8,0-1.5-0.2-2-0.7c-0.5-0.4-0.7-1.1-0.7-1.9c0-1.7,1.4-2.7,4.1-2.7l1.5-0.1V54c0-0.7-0.1-1.1-0.4-1.4c-0.3-0.3-0.7-0.5-1.4-0.5
		c-0.5,0-0.9,0.1-1.3,0.2c-0.4,0.1-0.8,0.3-1.1,0.5l-0.4-1.1c0.4-0.2,0.9-0.4,1.4-0.5c0.5-0.1,1-0.2,1.5-0.2c1,0,1.8,0.2,2.3,0.7
		c0.5,0.5,0.8,1.2,0.8,2.2v5.8H49.1z M46.2,58.7c0.8,0,1.4-0.2,1.9-0.6c0.5-0.4,0.7-1,0.7-1.8v-0.8l-1.3,0.1c-1,0-1.7,0.2-2.2,0.5
		c-0.5,0.3-0.7,0.7-0.7,1.3c0,0.4,0.1,0.8,0.4,1C45.3,58.6,45.7,58.7,46.2,58.7z"/>
	<path id="XMLID_43_" class="st4" d="M56.8,50.9c0.4,0,0.7,0,1,0.1l-0.2,1.3c-0.3-0.1-0.6-0.1-0.9-0.1c-0.5,0-0.9,0.1-1.3,0.4
		c-0.4,0.3-0.7,0.6-0.9,1c-0.2,0.4-0.3,0.9-0.3,1.5v4.6h-1.4v-8.6h1.2l0.2,1.6h0.1c0.3-0.6,0.7-1,1.2-1.3
		C55.7,51.1,56.2,50.9,56.8,50.9z"/>
	<path id="XMLID_40_" class="st4" d="M59.3,48.8c0-0.3,0.1-0.5,0.2-0.7c0.2-0.1,0.4-0.2,0.6-0.2c0.2,0,0.4,0.1,0.6,0.2
		s0.2,0.4,0.2,0.7c0,0.3-0.1,0.5-0.2,0.7c-0.2,0.1-0.4,0.2-0.6,0.2c-0.2,0-0.4-0.1-0.6-0.2C59.3,49.3,59.3,49.1,59.3,48.8z
		 M60.8,59.7h-1.4v-8.6h1.4V59.7z"/>
	<path id="XMLID_38_" class="st4" d="M66.3,48.2h1.5l2.6,7.3c0.3,0.9,0.6,1.8,0.7,2.5c0.1-0.7,0.4-1.5,0.7-2.5l2.6-7.3h1.5
		l-4.1,11.4h-1.4L66.3,48.2z"/>
	<path id="XMLID_35_" class="st4" d="M82.4,59.7l-0.3-1.2H82c-0.4,0.5-0.9,0.9-1.3,1.1c-0.4,0.2-1,0.3-1.6,0.3c-0.8,0-1.5-0.2-2-0.7
		c-0.5-0.4-0.7-1.1-0.7-1.9c0-1.7,1.4-2.7,4.1-2.7l1.5-0.1V54c0-0.7-0.1-1.1-0.4-1.4c-0.3-0.3-0.7-0.5-1.4-0.5
		c-0.5,0-0.9,0.1-1.3,0.2c-0.4,0.1-0.8,0.3-1.1,0.5l-0.4-1.1c0.4-0.2,0.9-0.4,1.4-0.5c0.5-0.1,1-0.2,1.5-0.2c1,0,1.8,0.2,2.3,0.7
		c0.5,0.5,0.8,1.2,0.8,2.2v5.8H82.4z M79.5,58.7c0.8,0,1.4-0.2,1.9-0.6c0.5-0.4,0.7-1,0.7-1.8v-0.8l-1.3,0.1c-1,0-1.7,0.2-2.2,0.5
		c-0.5,0.3-0.7,0.7-0.7,1.3c0,0.4,0.1,0.8,0.4,1C78.6,58.6,79,58.7,79.5,58.7z"/>
	<path id="XMLID_33_" class="st4" d="M87.5,59.7h-1.4V47.5h1.4V59.7z"/>
	<path id="XMLID_30_" class="st4" d="M93.8,59.8c-1.3,0-2.3-0.4-3-1.2c-0.7-0.8-1.1-1.8-1.1-3.2c0-1.4,0.3-2.5,1-3.3
		c0.7-0.8,1.6-1.2,2.8-1.2c1.1,0,1.9,0.3,2.6,1s1,1.6,1,2.8v0.9h-5.9c0,1,0.3,1.7,0.7,2.2c0.5,0.5,1.1,0.8,2,0.8
		c0.5,0,0.9,0,1.3-0.1c0.4-0.1,0.9-0.2,1.4-0.5v1.2c-0.5,0.2-0.9,0.3-1.3,0.4C94.9,59.8,94.4,59.8,93.8,59.8z M93.5,52.1
		c-0.7,0-1.2,0.2-1.6,0.6c-0.4,0.4-0.6,1-0.7,1.8h4.4c0-0.8-0.2-1.4-0.6-1.8C94.7,52.3,94.1,52.1,93.5,52.1z"/>
	<path id="XMLID_28_" class="st4" d="M105.1,59.7v-5.5c0-0.7-0.2-1.2-0.5-1.6c-0.3-0.3-0.8-0.5-1.5-0.5c-0.9,0-1.5,0.2-1.9,0.7
		c-0.4,0.5-0.6,1.3-0.6,2.4v4.4h-1.4v-8.6h1.1l0.2,1.2h0.1c0.3-0.4,0.6-0.7,1.1-1c0.5-0.2,1-0.3,1.6-0.3c1.1,0,1.8,0.3,2.3,0.8
		c0.5,0.5,0.8,1.3,0.8,2.4v5.6H105.1z"/>
	<path id="XMLID_26_" class="st4" d="M112,58.7c0.2,0,0.4,0,0.6-0.1c0.2,0,0.4-0.1,0.6-0.1v1.1c-0.1,0.1-0.3,0.1-0.6,0.2
		s-0.6,0.1-0.8,0.1c-1.7,0-2.5-0.9-2.5-2.6v-5H108v-0.7l1.2-0.6l0.6-1.8h0.8v2h2.5v1.1h-2.5v5c0,0.5,0.1,0.9,0.4,1.1
		C111.2,58.5,111.5,58.7,112,58.7z"/>
	<path id="XMLID_23_" class="st4" d="M114.8,48.8c0-0.3,0.1-0.5,0.2-0.7c0.2-0.1,0.4-0.2,0.6-0.2c0.2,0,0.4,0.1,0.6,0.2
		s0.2,0.4,0.2,0.7c0,0.3-0.1,0.5-0.2,0.7c-0.2,0.1-0.4,0.2-0.6,0.2c-0.2,0-0.4-0.1-0.6-0.2C114.8,49.3,114.8,49.1,114.8,48.8z
		 M116.3,59.7h-1.4v-8.6h1.4V59.7z"/>
	<path id="XMLID_21_" class="st4" d="M124.8,59.7v-5.5c0-0.7-0.2-1.2-0.5-1.6c-0.3-0.3-0.8-0.5-1.5-0.5c-0.9,0-1.5,0.2-1.9,0.7
		c-0.4,0.5-0.6,1.3-0.6,2.4v4.4H119v-8.6h1.1l0.2,1.2h0.1c0.3-0.4,0.6-0.7,1.1-1c0.5-0.2,1-0.3,1.6-0.3c1.1,0,1.8,0.3,2.3,0.8
		c0.5,0.5,0.8,1.3,0.8,2.4v5.6H124.8z"/>
	<path id="XMLID_18_" class="st4" d="M132.5,59.8c-1.3,0-2.3-0.4-3-1.2c-0.7-0.8-1.1-1.8-1.1-3.2c0-1.4,0.3-2.5,1-3.3
		c0.7-0.8,1.6-1.2,2.8-1.2c1.1,0,1.9,0.3,2.6,1s1,1.6,1,2.8v0.9h-5.9c0,1,0.3,1.7,0.7,2.2c0.5,0.5,1.1,0.8,2,0.8
		c0.5,0,0.9,0,1.3-0.1c0.4-0.1,0.9-0.2,1.4-0.5v1.2c-0.5,0.2-0.9,0.3-1.3,0.4C133.6,59.8,133.1,59.8,132.5,59.8z M132.2,52.1
		c-0.7,0-1.2,0.2-1.6,0.6c-0.4,0.4-0.6,1-0.7,1.8h4.4c0-0.8-0.2-1.4-0.6-1.8C133.4,52.3,132.8,52.1,132.2,52.1z"/>
	<path id="XMLID_16_" class="st4" d="M137.7,58.8c0-0.3,0.1-0.6,0.3-0.8c0.2-0.2,0.4-0.3,0.7-0.3c0.3,0,0.6,0.1,0.7,0.3
		c0.2,0.2,0.3,0.4,0.3,0.8c0,0.3-0.1,0.6-0.3,0.8c-0.2,0.2-0.4,0.3-0.7,0.3c-0.3,0-0.5-0.1-0.7-0.3S137.7,59.1,137.7,58.8z"/>
</g>
</svg>