<!-- Generator: Adobe Illustrator 19.0.0, SVG Export Plug-In  -->
<svg version="1.1"
	 xmlns="http://www.w3.org/2000/svg" xmlns:xlink="http://www.w3.org/1999/xlink" xmlns:a="http://ns.adobe.com/AdobeSVGViewerExtensions/3.0/"
	 x="0px" y="0px" width="476.7px" height="115px" viewBox="0 0 476.7 115" style="enable-background:new 0 0 476.7 115;"
	 xml:space="preserve">
<style type="text/css">
	.st0{fill:none;stroke:#33CCCC;stroke-width:5;stroke-linecap:round;stroke-linejoin:round;stroke-miterlimit:10;}
	.st1{fill:#33CCCC;stroke:#33CCCC;stroke-width:5;stroke-linecap:round;stroke-linejoin:round;stroke-miterlimit:10;}
	.st2{fill:#33CCCC;}
</style>
<defs>
</defs>
<rect id="XMLID_158_" x="75.2" y="2.5" class="st0" width="324" height="91"/>
<polyline id="XMLID_157_" class="st0" points="93.2,93 93.2,112.5 2.5,112.5 31.3,83.6 7.7,48.5 75.7,48.5 "/>
<polygon id="XMLID_156_" class="st1" points="76.7,94.8 92.2,110.2 92.2,95 "/>
<polyline id="XMLID_155_" class="st0" points="383.2,93 383.2,112.5 474.2,112.5 445.4,83.6 469,48.5 400.7,48.5 "/>
<polygon id="XMLID_154_" class="st1" points="399.7,94.8 384.2,110.2 384.2,95 "/>
<g id="XMLID_15_">
	<g id="XMLID_17_">
		<path id="XMLID_84_" class="st2" d="M119.1,41.5h-4.4l-2.5-9.6c-0.1-0.3-0.2-1-0.5-2.1c-0.2-1.1-0.3-1.8-0.4-2.2
			c-0.1,0.5-0.2,1.2-0.4,2.2c-0.2,1-0.4,1.7-0.5,2.1l-2.5,9.6h-4.4L99,23.2h3.8l2.3,10c0.4,1.8,0.7,3.4,0.9,4.8
			c0-0.5,0.2-1.2,0.3-2.2s0.3-1.8,0.5-2.3l2.7-10.2h3.7l2.7,10.2c0.1,0.5,0.3,1.2,0.4,2.1s0.3,1.8,0.4,2.4c0.1-0.7,0.2-1.5,0.4-2.4
			s0.4-1.8,0.5-2.4l2.3-10h3.8L119.1,41.5z"/>
		<path id="XMLID_81_" class="st2" d="M134.4,41.5l-0.7-1.9h-0.1c-0.6,0.8-1.3,1.4-2,1.7c-0.7,0.3-1.6,0.5-2.7,0.5
			c-1.3,0-2.4-0.4-3.2-1.2c-0.8-0.8-1.2-1.9-1.2-3.3c0-1.5,0.5-2.6,1.6-3.3c1-0.7,2.6-1.1,4.7-1.2l2.4-0.1v-0.6
			c0-1.4-0.7-2.1-2.2-2.1c-1.1,0-2.4,0.3-3.9,1l-1.3-2.6c1.6-0.8,3.4-1.3,5.4-1.3c1.9,0,3.3,0.4,4.3,1.2c1,0.8,1.5,2.1,1.5,3.7v9.3
			H134.4z M133.3,35l-1.5,0.1c-1.1,0-1.9,0.2-2.5,0.6c-0.5,0.4-0.8,0.9-0.8,1.7c0,1.1,0.6,1.6,1.9,1.6c0.9,0,1.6-0.3,2.1-0.8
			s0.8-1.2,0.8-2V35z"/>
		<path id="XMLID_79_" class="st2" d="M144.7,33.9l1.7-2.1l3.9-4.3h4.3l-5.6,6.1l5.9,7.9h-4.4l-4-5.7l-1.6,1.3v4.4H141V22h3.8v8.7
			L144.7,33.9L144.7,33.9z"/>
		<path id="XMLID_77_" class="st2" d="M162.8,38.7c0.7,0,1.5-0.1,2.4-0.4v2.8c-1,0.4-2.1,0.6-3.5,0.6c-1.5,0-2.6-0.4-3.3-1.2
			c-0.7-0.8-1-1.9-1-3.5v-6.7h-1.8v-1.6l2.1-1.3l1.1-3h2.4v3h3.9v2.9h-3.9v6.7c0,0.5,0.2,0.9,0.5,1.2
			C161.9,38.6,162.3,38.7,162.8,38.7z"/>
		<path id="XMLID_75_" class="st2" d="M177.9,41.5l-0.5-1.8h-0.2c-0.4,0.7-1,1.2-1.7,1.5c-0.8,0.4-1.6,0.5-2.6,0.5
			c-1.6,0-2.9-0.4-3.7-1.3c-0.8-0.9-1.3-2.1-1.3-3.8v-9.1h3.8v8.2c0,1,0.2,1.8,0.5,2.3c0.4,0.5,0.9,0.8,1.7,0.8
			c1.1,0,1.8-0.4,2.3-1.1c0.5-0.7,0.7-1.9,0.7-3.5v-6.6h3.8v14H177.9z"/>
		<path id="XMLID_73_" class="st2" d="M198.9,41.5H195V26.4h-5v-3.2h13.8v3.2h-5V41.5z"/>
		<path id="XMLID_70_" class="st2" d="M211.8,41.7c-2.3,0-4-0.6-5.3-1.9c-1.3-1.2-1.9-3-1.9-5.3c0-2.3,0.6-4.2,1.8-5.4
			c1.2-1.3,2.8-1.9,4.9-1.9c2,0,3.5,0.6,4.6,1.7c1.1,1.1,1.7,2.7,1.7,4.7v1.9h-9c0,1.1,0.4,1.9,1,2.5s1.4,0.9,2.5,0.9
			c0.8,0,1.6-0.1,2.4-0.3c0.8-0.2,1.5-0.5,2.4-0.8v3c-0.7,0.3-1.4,0.6-2.1,0.7C213.8,41.6,212.9,41.7,211.8,41.7z M211.3,29.9
			c-0.8,0-1.4,0.3-1.9,0.8c-0.5,0.5-0.7,1.2-0.8,2.2h5.4c0-0.9-0.3-1.7-0.7-2.2C212.7,30.2,212.1,29.9,211.3,29.9z"/>
		<path id="XMLID_68_" class="st2" d="M228.4,27.2c0.5,0,0.9,0,1.3,0.1l-0.3,3.6c-0.3-0.1-0.7-0.1-1.1-0.1c-1.2,0-2.2,0.3-2.8,0.9
			s-1,1.5-1,2.6v7.1h-3.8v-14h2.9l0.6,2.4h0.2c0.4-0.8,1-1.4,1.8-1.9C226.8,27.5,227.6,27.2,228.4,27.2z"/>
		<path id="XMLID_65_" class="st2" d="M240,27.2c1.7,0,2.9,0.6,3.9,1.9c0.9,1.3,1.4,3.1,1.4,5.3c0,2.3-0.5,4.1-1.4,5.4
			c-1,1.3-2.3,1.9-3.9,1.9c-1.6,0-2.9-0.6-3.9-1.8h-0.3l-0.6,1.5h-2.9V22h3.8v4.5c0,0.6-0.1,1.5-0.2,2.8h0.2
			C237,27.9,238.3,27.2,240,27.2z M238.8,30.3c-0.9,0-1.6,0.3-2.1,0.9c-0.4,0.6-0.7,1.5-0.7,2.9v0.4c0,1.5,0.2,2.6,0.7,3.2
			c0.4,0.7,1.2,1,2.1,1c0.8,0,1.4-0.4,1.9-1.1c0.5-0.7,0.7-1.8,0.7-3.1s-0.2-2.4-0.7-3.1C240.3,30.6,239.6,30.3,238.8,30.3z"/>
		<path id="XMLID_62_" class="st2" d="M257.4,41.5l-0.7-1.9h-0.1c-0.6,0.8-1.3,1.4-2,1.7c-0.7,0.3-1.6,0.5-2.7,0.5
			c-1.3,0-2.4-0.4-3.2-1.2c-0.8-0.8-1.2-1.9-1.2-3.3c0-1.5,0.5-2.6,1.6-3.3s2.6-1.1,4.7-1.2l2.4-0.1v-0.6c0-1.4-0.7-2.1-2.2-2.1
			c-1.1,0-2.4,0.3-3.9,1l-1.3-2.6c1.6-0.8,3.4-1.3,5.4-1.3c1.9,0,3.3,0.4,4.3,1.2c1,0.8,1.5,2.1,1.5,3.7v9.3H257.4z M256.2,35
			l-1.5,0.1c-1.1,0-1.9,0.2-2.5,0.6c-0.5,0.4-0.8,0.9-0.8,1.7c0,1.1,0.6,1.6,1.9,1.6c0.9,0,1.6-0.3,2.1-0.8c0.5-0.5,0.8-1.2,0.8-2
			V35z"/>
		<path id="XMLID_59_" class="st2" d="M263.8,23.9c0-1.2,0.7-1.9,2.1-1.9s2.1,0.6,2.1,1.9c0,0.6-0.2,1.1-0.5,1.4
			c-0.3,0.3-0.9,0.5-1.6,0.5C264.5,25.7,263.8,25.1,263.8,23.9z M267.8,41.5H264v-14h3.8V41.5z"/>
		<path id="XMLID_57_" class="st2" d="M275.4,33.9l1.7-2.1l3.9-4.3h4.3l-5.6,6.1l5.9,7.9h-4.4l-4-5.7l-1.6,1.3v4.4h-3.8V22h3.8v8.7
			L275.4,33.9L275.4,33.9z"/>
		<path id="XMLID_55_" class="st2" d="M309.5,23.2V35c0,1.4-0.3,2.5-0.9,3.6c-0.6,1-1.5,1.8-2.6,2.3c-1.1,0.5-2.5,0.8-4.1,0.8
			c-2.4,0-4.2-0.6-5.5-1.8c-1.3-1.2-2-2.9-2-4.9V23.2h3.9v11.2c0,1.4,0.3,2.4,0.9,3.1c0.6,0.7,1.5,1,2.8,1c1.3,0,2.2-0.3,2.8-1
			s0.9-1.7,0.9-3.1V23.2H309.5z"/>
		<path id="XMLID_53_" class="st2" d="M326.6,41.5h-3.8v-8.2c0-1-0.2-1.8-0.5-2.3c-0.4-0.5-0.9-0.8-1.7-0.8c-1.1,0-1.8,0.4-2.3,1.1
			c-0.5,0.7-0.7,1.9-0.7,3.5v6.6h-3.8v-14h2.9l0.5,1.8h0.2c0.4-0.7,1-1.2,1.8-1.5c0.7-0.3,1.6-0.5,2.5-0.5c1.6,0,2.9,0.4,3.7,1.3
			c0.8,0.9,1.3,2.1,1.3,3.8V41.5z"/>
		<path id="XMLID_51_" class="st2" d="M336.4,38.7c0.7,0,1.5-0.1,2.4-0.4v2.8c-1,0.4-2.1,0.6-3.5,0.6c-1.5,0-2.6-0.4-3.3-1.2
			c-0.7-0.8-1-1.9-1-3.5v-6.7h-1.8v-1.6l2.1-1.3l1.1-3h2.4v3h3.9v2.9h-3.9v6.7c0,0.5,0.2,0.9,0.5,1.2
			C335.5,38.6,335.9,38.7,336.4,38.7z"/>
		<path id="XMLID_49_" class="st2" d="M351.6,41.5l-0.5-1.8h-0.2c-0.4,0.7-1,1.2-1.7,1.5c-0.8,0.4-1.6,0.5-2.6,0.5
			c-1.6,0-2.9-0.4-3.7-1.3c-0.8-0.9-1.3-2.1-1.3-3.8v-9.1h3.8v8.2c0,1,0.2,1.8,0.5,2.3c0.4,0.5,0.9,0.8,1.7,0.8
			c1.1,0,1.8-0.4,2.3-1.1c0.5-0.7,0.7-1.9,0.7-3.5v-6.6h3.8v14H351.6z"/>
		<path id="XMLID_47_" class="st2" d="M362.1,33.9l1.7-2.1l3.9-4.3h4.3l-5.6,6.1l5.9,7.9H368l-4-5.7l-1.6,1.3v4.4h-3.8V22h3.8v8.7
			L362.1,33.9L362.1,33.9z"/>
		<path id="XMLID_45_" class="st2" d="M152.2,69.6l-4.4-14.3h-0.1c0.2,2.9,0.2,4.9,0.2,5.8v8.5h-3.5V51.3h5.3l4.3,14h0.1l4.6-14h5.3
			v18.3h-3.6v-8.7c0-0.4,0-0.9,0-1.4c0-0.5,0.1-2,0.2-4.3h-0.1l-4.7,14.3H152.2z"/>
		<path id="XMLID_42_" class="st2" d="M174.7,69.8c-2.3,0-4-0.6-5.3-1.9c-1.3-1.2-1.9-3-1.9-5.3c0-2.3,0.6-4.2,1.8-5.4
			c1.2-1.3,2.8-1.9,4.9-1.9c2,0,3.5,0.6,4.6,1.7c1.1,1.1,1.7,2.7,1.7,4.7v1.9h-9c0,1.1,0.4,1.9,1,2.5c0.6,0.6,1.4,0.9,2.5,0.9
			c0.8,0,1.6-0.1,2.4-0.3c0.8-0.2,1.5-0.5,2.4-0.8v3c-0.7,0.3-1.4,0.6-2.1,0.7C176.7,69.7,175.8,69.8,174.7,69.8z M174.1,58
			c-0.8,0-1.4,0.3-1.9,0.8c-0.5,0.5-0.7,1.2-0.8,2.2h5.4c0-0.9-0.3-1.7-0.7-2.2C175.6,58.3,175,58,174.1,58z"/>
		<path id="XMLID_40_" class="st2" d="M196.4,69.6h-3.8v-8.2c0-1-0.2-1.8-0.5-2.3c-0.4-0.5-0.9-0.8-1.7-0.8c-1.1,0-1.8,0.4-2.3,1.1
			c-0.5,0.7-0.7,1.9-0.7,3.5v6.6h-3.8v-14h2.9l0.5,1.8h0.2c0.4-0.7,1-1.2,1.8-1.5c0.7-0.3,1.6-0.5,2.5-0.5c1.6,0,2.9,0.4,3.7,1.3
			c0.8,0.9,1.3,2.1,1.3,3.8V69.6z"/>
		<path id="XMLID_38_" class="st2" d="M206,69.8c-4.4,0-6.5-2.4-6.5-7.2c0-2.4,0.6-4.2,1.8-5.4c1.2-1.3,2.9-1.9,5.1-1.9
			c1.6,0,3.1,0.3,4.4,1l-1.1,3c-0.6-0.2-1.2-0.4-1.7-0.6c-0.5-0.2-1-0.2-1.6-0.2c-2,0-3,1.4-3,4.2c0,2.7,1,4.1,3,4.1
			c0.7,0,1.4-0.1,2-0.3c0.6-0.2,1.3-0.5,1.9-0.9v3.3c-0.6,0.4-1.2,0.7-1.9,0.8C207.8,69.8,207,69.8,206,69.8z"/>
		<path id="XMLID_35_" class="st2" d="M222.4,69.6l-0.7-1.9h-0.1c-0.6,0.8-1.3,1.4-2,1.7c-0.7,0.3-1.6,0.5-2.7,0.5
			c-1.3,0-2.4-0.4-3.2-1.2c-0.8-0.8-1.2-1.9-1.2-3.3c0-1.5,0.5-2.6,1.6-3.3c1-0.7,2.6-1.1,4.7-1.2l2.4-0.1v-0.6
			c0-1.4-0.7-2.1-2.2-2.1c-1.1,0-2.4,0.3-3.9,1l-1.3-2.6c1.6-0.8,3.4-1.3,5.4-1.3c1.9,0,3.3,0.4,4.3,1.2s1.5,2.1,1.5,3.7v9.3H222.4z
			 M221.3,63.1l-1.5,0.1c-1.1,0-1.9,0.2-2.5,0.6c-0.5,0.4-0.8,0.9-0.8,1.7c0,1.1,0.6,1.6,1.9,1.6c0.9,0,1.6-0.3,2.1-0.8
			c0.5-0.5,0.8-1.2,0.8-2V63.1z"/>
		<path id="XMLID_33_" class="st2" d="M236.8,55.3c0.5,0,0.9,0,1.3,0.1l-0.3,3.6c-0.3-0.1-0.7-0.1-1.1-0.1c-1.2,0-2.2,0.3-2.8,0.9
			c-0.7,0.6-1,1.5-1,2.6v7.1H229v-14h2.9l0.6,2.4h0.2c0.4-0.8,1-1.4,1.8-1.9C235.1,55.6,235.9,55.3,236.8,55.3z"/>
		<path id="XMLID_30_" class="st2" d="M240.5,52c0-1.2,0.7-1.9,2.1-1.9c1.4,0,2.1,0.6,2.1,1.9c0,0.6-0.2,1.1-0.5,1.4
			c-0.3,0.3-0.9,0.5-1.6,0.5C241.1,53.9,240.5,53.2,240.5,52z M244.4,69.6h-3.8v-14h3.8V69.6z"/>
		<path id="XMLID_28_" class="st2" d="M270.1,69.6h-4.4l-4.8-7.7l-1.6,1.2v6.5h-3.9V51.3h3.9v8.4l1.5-2.2l5-6.2h4.3l-6.4,8.1
			L270.1,69.6z"/>
		<path id="XMLID_26_" class="st2" d="M282,69.6l-0.5-1.8h-0.2c-0.4,0.7-1,1.2-1.7,1.5c-0.8,0.4-1.6,0.5-2.6,0.5
			c-1.6,0-2.9-0.4-3.7-1.3c-0.8-0.9-1.3-2.1-1.3-3.8v-9.1h3.8v8.2c0,1,0.2,1.8,0.5,2.3c0.4,0.5,0.9,0.8,1.7,0.8
			c1.1,0,1.8-0.4,2.3-1.1c0.5-0.7,0.7-1.9,0.7-3.5v-6.6h3.8v14H282z"/>
		<path id="XMLID_23_" class="st2" d="M296.6,69.8c-1.6,0-2.9-0.6-3.9-1.8h-0.2c0.1,1.2,0.2,1.8,0.2,2v5.7h-3.8V55.6h3.1l0.5,1.8
			h0.2c0.9-1.4,2.2-2.1,4-2.1c1.7,0,2.9,0.6,3.9,1.9c0.9,1.3,1.4,3,1.4,5.3c0,1.5-0.2,2.8-0.7,3.9c-0.4,1.1-1.1,1.9-1.9,2.5
			C298.7,69.5,297.7,69.8,296.6,69.8z M295.5,58.4c-0.9,0-1.6,0.3-2.1,0.9c-0.4,0.6-0.7,1.5-0.7,2.9v0.4c0,1.5,0.2,2.6,0.7,3.2
			c0.4,0.7,1.2,1,2.1,1c1.7,0,2.6-1.4,2.6-4.2c0-1.4-0.2-2.4-0.6-3.1C297.1,58.7,296.4,58.4,295.5,58.4z"/>
		<path id="XMLID_20_" class="st2" d="M317.9,62.6c0,2.3-0.6,4.1-1.8,5.3s-2.9,1.9-5,1.9c-1.3,0-2.5-0.3-3.6-0.9s-1.8-1.4-2.4-2.5
			c-0.6-1.1-0.8-2.4-0.8-3.9c0-2.3,0.6-4.1,1.8-5.3c1.2-1.3,2.9-1.9,5-1.9c1.3,0,2.5,0.3,3.6,0.9c1,0.6,1.8,1.4,2.4,2.5
			C317.6,59.8,317.9,61.1,317.9,62.6z M308.2,62.6c0,1.4,0.2,2.4,0.7,3.1c0.5,0.7,1.2,1.1,2.2,1.1c1,0,1.7-0.4,2.2-1.1
			c0.4-0.7,0.7-1.8,0.7-3.1c0-1.4-0.2-2.4-0.7-3.1c-0.5-0.7-1.2-1-2.2-1c-1,0-1.8,0.3-2.2,1C308.4,60.1,308.2,61.2,308.2,62.6z"/>
		<path id="XMLID_18_" class="st2" d="M333.9,69.6h-3.8v-8.2c0-1-0.2-1.8-0.5-2.3c-0.4-0.5-0.9-0.8-1.7-0.8c-1.1,0-1.8,0.4-2.3,1.1
			c-0.5,0.7-0.7,1.9-0.7,3.5v6.6H321v-14h2.9l0.5,1.8h0.2c0.4-0.7,1-1.2,1.8-1.5c0.7-0.3,1.6-0.5,2.5-0.5c1.6,0,2.9,0.4,3.7,1.3
			c0.8,0.9,1.3,2.1,1.3,3.8V69.6z"/>
	</g>
</g>
</svg>