<!-- Generator: Adobe Illustrator 19.0.0, SVG Export Plug-In  -->
<svg version="1.1"
	 xmlns="http://www.w3.org/2000/svg" xmlns:xlink="http://www.w3.org/1999/xlink" xmlns:a="http://ns.adobe.com/AdobeSVGViewerExtensions/3.0/"
	 x="0px" y="0px" width="281px" height="67.8px" viewBox="0 0 281 67.8" style="enable-background:new 0 0 281 67.8;"
	 xml:space="preserve">
<style type="text/css">
	.st0{fill:none;stroke:#FFFFFF;stroke-width:2;stroke-linecap:round;stroke-linejoin:round;stroke-miterlimit:10;}
	.st1{fill:none;stroke:#FF6633;stroke-width:2;stroke-miterlimit:10;}
	.st2{fill:none;stroke:#FFFFFF;stroke-width:2.2793;stroke-linecap:round;stroke-linejoin:round;stroke-miterlimit:10;}
	.st3{fill:#FF6633;}
	.st4{fill:#FFFFFF;}
	.st5{fill:#FFFFFF;stroke:#FFFFFF;stroke-width:0.7;stroke-miterlimit:10;}
</style>
<defs>
</defs>
<g id="XMLID_241_">
	<rect id="XMLID_246_" x="238" y="27.8" class="st0" width="39" height="39"/>
	<rect id="XMLID_245_" x="233" y="19.8" class="st0" width="47" height="8"/>
	<rect id="XMLID_244_" x="253" y="19.8" class="st1" width="8" height="47"/>
	<path id="XMLID_243_" class="st2" d="M255.7,17c0,0-12.9,0.5-16.4-1.9c-3.5-2.4-4.4-7.2-2-10.7c2.4-3.5,7.2-4.4,10.7-2
		C251.5,4.9,255.7,17,255.7,17z"/>
	<path id="XMLID_242_" class="st2" d="M256.6,17c0,0,12.9,0.5,16.4-1.9c3.5-2.4,4.4-7.2,2-10.7c-2.4-3.5-7.2-4.4-10.7-2
		C260.8,4.9,256.6,17,256.6,17z"/>
</g>
<circle id="XMLID_240_" class="st3" cx="8.4" cy="16.5" r="8.4"/>
<g id="XMLID_237_">
	<path id="XMLID_238_" class="st4" d="M11,19.8H5V19l2-2.2c0.6-0.7,1-1.1,1.2-1.4s0.3-0.5,0.4-0.7s0.1-0.4,0.1-0.7
		c0-0.3-0.1-0.6-0.3-0.8S7.9,13,7.6,13c-0.3,0-0.7,0.1-1,0.2s-0.6,0.4-1,0.7l-1-1.2c0.4-0.4,0.8-0.6,1-0.8s0.6-0.3,0.9-0.3
		s0.7-0.1,1.1-0.1c0.5,0,1,0.1,1.4,0.3s0.7,0.5,1,0.8s0.3,0.8,0.3,1.2c0,0.4-0.1,0.8-0.2,1.1S9.9,15.7,9.6,16s-0.8,0.9-1.5,1.6
		l-1.1,1v0.2h4V19.8z"/>
</g>
<g id="XMLID_15_">
	<g id="XMLID_17_">
		<path id="XMLID_126_" class="st5" d="M37,15.5c0,1-0.4,1.8-1.1,2.4c-0.7,0.6-1.7,0.9-3,0.9c-1.4,0-2.4-0.2-3.1-0.5v-1.4
			c0.5,0.2,1,0.4,1.6,0.5c0.6,0.1,1.1,0.2,1.6,0.2c0.9,0,1.5-0.2,1.9-0.5c0.4-0.3,0.6-0.8,0.6-1.4c0-0.4-0.1-0.7-0.2-0.9
			c-0.2-0.2-0.4-0.5-0.8-0.7c-0.4-0.2-0.9-0.5-1.7-0.7c-1.1-0.4-1.8-0.8-2.3-1.4s-0.7-1.2-0.7-2c0-0.9,0.3-1.6,1-2.1
			C31.6,7.3,32.5,7,33.6,7c1.1,0,2.2,0.2,3.1,0.6l-0.4,1.2c-1-0.4-1.9-0.6-2.7-0.6c-0.7,0-1.2,0.1-1.6,0.4c-0.4,0.3-0.6,0.7-0.6,1.2
			c0,0.4,0.1,0.7,0.2,0.9c0.1,0.2,0.4,0.5,0.7,0.7c0.3,0.2,0.9,0.4,1.6,0.7c0.8,0.3,1.5,0.6,1.9,0.9c0.4,0.3,0.7,0.6,0.9,1
			C36.9,14.5,37,15,37,15.5z"/>
		<path id="XMLID_123_" class="st5" d="M44.5,18.6l-0.3-1.2h-0.1c-0.4,0.5-0.9,0.9-1.3,1.1c-0.4,0.2-1,0.3-1.6,0.3
			c-0.8,0-1.5-0.2-2-0.7c-0.5-0.4-0.7-1.1-0.7-1.9c0-1.7,1.4-2.7,4.1-2.7l1.5-0.1v-0.5c0-0.7-0.1-1.1-0.4-1.4
			c-0.3-0.3-0.7-0.5-1.4-0.5c-0.5,0-0.9,0.1-1.3,0.2c-0.4,0.1-0.8,0.3-1.1,0.5l-0.4-1.1c0.4-0.2,0.9-0.4,1.4-0.5
			c0.5-0.1,1-0.2,1.5-0.2c1,0,1.8,0.2,2.3,0.7c0.5,0.5,0.8,1.2,0.8,2.2v5.8H44.5z M41.6,17.6c0.8,0,1.4-0.2,1.9-0.6
			c0.5-0.4,0.7-1,0.7-1.8v-0.8l-1.3,0.1c-1,0-1.7,0.2-2.2,0.5c-0.5,0.3-0.7,0.7-0.7,1.3c0,0.4,0.1,0.8,0.4,1
			C40.7,17.5,41.1,17.6,41.6,17.6z"/>
		<path id="XMLID_120_" class="st5" d="M53.4,18.6l-0.3-1.2h-0.1c-0.4,0.5-0.9,0.9-1.3,1.1c-0.4,0.2-1,0.3-1.6,0.3
			c-0.8,0-1.5-0.2-2-0.7c-0.5-0.4-0.7-1.1-0.7-1.9c0-1.7,1.4-2.7,4.1-2.7l1.5-0.1v-0.5c0-0.7-0.1-1.1-0.4-1.4
			c-0.3-0.3-0.7-0.5-1.4-0.5c-0.5,0-0.9,0.1-1.3,0.2c-0.4,0.1-0.8,0.3-1.1,0.5l-0.4-1.1c0.4-0.2,0.9-0.4,1.4-0.5
			c0.5-0.1,1-0.2,1.5-0.2c1,0,1.8,0.2,2.3,0.7c0.5,0.5,0.8,1.2,0.8,2.2v5.8H53.4z M50.5,17.6c0.8,0,1.4-0.2,1.9-0.6
			c0.5-0.4,0.7-1,0.7-1.8v-0.8l-1.3,0.1c-1,0-1.7,0.2-2.2,0.5c-0.5,0.3-0.7,0.7-0.7,1.3c0,0.4,0.1,0.8,0.4,1
			C49.7,17.5,50,17.6,50.5,17.6z"/>
		<path id="XMLID_118_" class="st5" d="M60,17.6c0.2,0,0.4,0,0.6-0.1c0.2,0,0.4-0.1,0.6-0.1v1.1c-0.1,0.1-0.3,0.1-0.6,0.2
			s-0.6,0.1-0.8,0.1c-1.7,0-2.5-0.9-2.5-2.6v-5H56v-0.7l1.2-0.6L57.8,8h0.8v2h2.5v1.1h-2.5v5c0,0.5,0.1,0.9,0.4,1.1
			C59.2,17.5,59.6,17.6,60,17.6z"/>
		<path id="XMLID_115_" class="st5" d="M72.3,18.6l-0.3-1.2H72c-0.4,0.5-0.9,0.9-1.3,1.1c-0.4,0.2-1,0.3-1.6,0.3
			c-0.8,0-1.5-0.2-2-0.7c-0.5-0.4-0.7-1.1-0.7-1.9c0-1.7,1.4-2.7,4.1-2.7l1.5-0.1v-0.5c0-0.7-0.1-1.1-0.4-1.4
			c-0.3-0.3-0.7-0.5-1.4-0.5c-0.5,0-0.9,0.1-1.3,0.2c-0.4,0.1-0.8,0.3-1.1,0.5l-0.4-1.1c0.4-0.2,0.9-0.4,1.4-0.5
			c0.5-0.1,1-0.2,1.5-0.2c1,0,1.8,0.2,2.3,0.7c0.5,0.5,0.8,1.2,0.8,2.2v5.8H72.3z M69.4,17.6c0.8,0,1.4-0.2,1.9-0.6
			c0.5-0.4,0.7-1,0.7-1.8v-0.8l-1.3,0.1c-1,0-1.7,0.2-2.2,0.5c-0.5,0.3-0.7,0.7-0.7,1.3c0,0.4,0.1,0.8,0.4,1
			C68.6,17.5,68.9,17.6,69.4,17.6z"/>
		<path id="XMLID_112_" class="st5" d="M79.1,18.7c-1.1,0-2-0.4-2.6-1.2c-0.6-0.8-0.9-1.9-0.9-3.3c0-1.4,0.3-2.5,0.9-3.3
			c0.6-0.8,1.5-1.2,2.6-1.2c1.2,0,2,0.4,2.7,1.3h0.1c0-0.1,0-0.3-0.1-0.6c0-0.3,0-0.5,0-0.6V6.4h1.4v12.2H82l-0.2-1.1h-0.1
			C81.1,18.3,80.2,18.7,79.1,18.7z M79.3,17.6c0.9,0,1.5-0.2,1.9-0.7c0.4-0.5,0.6-1.2,0.6-2.3v-0.3c0-1.2-0.2-2-0.6-2.6
			s-1-0.8-1.9-0.8c-0.7,0-1.3,0.3-1.7,0.9c-0.4,0.6-0.6,1.4-0.6,2.5c0,1.1,0.2,1.9,0.6,2.4C78,17.3,78.5,17.6,79.3,17.6z"/>
		<path id="XMLID_109_" class="st5" d="M91.2,18.6l-0.3-1.2h-0.1c-0.4,0.5-0.9,0.9-1.3,1.1c-0.4,0.2-1,0.3-1.6,0.3
			c-0.8,0-1.5-0.2-2-0.7c-0.5-0.4-0.7-1.1-0.7-1.9c0-1.7,1.4-2.7,4.1-2.7l1.5-0.1v-0.5c0-0.7-0.1-1.1-0.4-1.4
			C90.1,11.1,89.7,11,89,11c-0.5,0-0.9,0.1-1.3,0.2c-0.4,0.1-0.8,0.3-1.1,0.5l-0.4-1.1c0.4-0.2,0.9-0.4,1.4-0.5
			c0.5-0.1,1-0.2,1.5-0.2c1,0,1.8,0.2,2.3,0.7c0.5,0.5,0.8,1.2,0.8,2.2v5.8H91.2z M88.3,17.6c0.8,0,1.4-0.2,1.9-0.6
			c0.5-0.4,0.7-1,0.7-1.8v-0.8l-1.3,0.1c-1,0-1.7,0.2-2.2,0.5c-0.5,0.3-0.7,0.7-0.7,1.3c0,0.4,0.1,0.8,0.4,1
			C87.4,17.5,87.8,17.6,88.3,17.6z"/>
		<path id="XMLID_107_" class="st5" d="M100.7,18.6v-5.5c0-0.7-0.2-1.2-0.5-1.6c-0.3-0.3-0.8-0.5-1.5-0.5c-0.9,0-1.5,0.2-1.9,0.7
			c-0.4,0.5-0.6,1.3-0.6,2.4v4.4h-1.4V10H96l0.2,1.2h0.1c0.3-0.4,0.6-0.7,1.1-1c0.5-0.2,1-0.3,1.6-0.3c1.1,0,1.8,0.3,2.3,0.8
			c0.5,0.5,0.8,1.3,0.8,2.4v5.6H100.7z"/>
		<path id="XMLID_105_" class="st5" d="M103.4,10h1.5l1.9,4.9c0.4,1.1,0.6,1.8,0.7,2.3h0.1c0-0.2,0.2-0.6,0.3-1.1
			c0.2-0.5,0.3-1,0.4-1.3L110,10h1.5l-3.7,9.8c-0.4,0.9-0.8,1.6-1.3,2c-0.5,0.4-1.1,0.6-1.8,0.6c-0.4,0-0.8,0-1.2-0.1v-1.1
			c0.3,0.1,0.6,0.1,0.9,0.1c0.4,0,0.8-0.1,1.1-0.4c0.3-0.2,0.6-0.6,0.8-1.1l0.4-1.1L103.4,10z"/>
		<path id="XMLID_102_" class="st5" d="M118.2,18.6l-0.3-1.2h-0.1c-0.4,0.5-0.9,0.9-1.3,1.1c-0.4,0.2-1,0.3-1.6,0.3
			c-0.8,0-1.5-0.2-2-0.7c-0.5-0.4-0.7-1.1-0.7-1.9c0-1.7,1.4-2.7,4.1-2.7l1.5-0.1v-0.5c0-0.7-0.1-1.1-0.4-1.4
			c-0.3-0.3-0.7-0.5-1.4-0.5c-0.5,0-0.9,0.1-1.3,0.2c-0.4,0.1-0.8,0.3-1.1,0.5l-0.4-1.1c0.4-0.2,0.9-0.4,1.4-0.5
			c0.5-0.1,1-0.2,1.5-0.2c1,0,1.8,0.2,2.3,0.7c0.5,0.5,0.8,1.2,0.8,2.2v5.8H118.2z M115.3,17.6c0.8,0,1.4-0.2,1.9-0.6
			c0.5-0.4,0.7-1,0.7-1.8v-0.8l-1.3,0.1c-1,0-1.7,0.2-2.2,0.5c-0.5,0.3-0.7,0.7-0.7,1.3c0,0.4,0.1,0.8,0.4,1
			C114.4,17.5,114.8,17.6,115.3,17.6z"/>
		<path id="XMLID_99_" class="st5" d="M130.1,18.7c-1.2,0-2-0.4-2.7-1.2h-0.1l0,0.3c0,0.4,0.1,0.8,0.1,1.1v3.5H126V10h1.2l0.2,1.2
			h0.1c0.3-0.5,0.7-0.8,1.2-1c0.4-0.2,0.9-0.3,1.5-0.3c1.1,0,2,0.4,2.6,1.2s0.9,1.9,0.9,3.3c0,1.4-0.3,2.5-0.9,3.3
			C132.1,18.3,131.2,18.7,130.1,18.7z M129.8,11c-0.8,0-1.5,0.2-1.8,0.7c-0.4,0.5-0.6,1.2-0.6,2.3v0.3c0,1.2,0.2,2,0.6,2.5
			c0.4,0.5,1,0.8,1.9,0.8c0.7,0,1.3-0.3,1.7-0.9c0.4-0.6,0.6-1.4,0.6-2.4c0-1-0.2-1.8-0.6-2.4C131.2,11.3,130.6,11,129.8,11z"/>
		<path id="XMLID_96_" class="st5" d="M139.5,18.7c-1.3,0-2.3-0.4-3-1.2c-0.7-0.8-1.1-1.9-1.1-3.2c0-1.4,0.3-2.5,1-3.3
			c0.7-0.8,1.6-1.2,2.8-1.2c1.1,0,1.9,0.3,2.6,1s1,1.6,1,2.8v0.9h-5.9c0,1,0.3,1.7,0.7,2.2c0.5,0.5,1.1,0.8,2,0.8
			c0.5,0,0.9,0,1.3-0.1c0.4-0.1,0.9-0.2,1.4-0.5v1.2c-0.5,0.2-0.9,0.3-1.3,0.4C140.6,18.7,140.1,18.7,139.5,18.7z M139.2,11
			c-0.7,0-1.2,0.2-1.6,0.6c-0.4,0.4-0.6,1-0.7,1.8h4.4c0-0.8-0.2-1.4-0.6-1.8C140.3,11.2,139.8,11,139.2,11z"/>
		<path id="XMLID_94_" class="st5" d="M146.3,18.6h-1.4V6.4h1.4V18.6z"/>
		<path id="XMLID_92_" class="st5" d="M150.3,10v5.5c0,0.7,0.2,1.2,0.5,1.5c0.3,0.3,0.8,0.5,1.4,0.5c0.9,0,1.5-0.2,1.9-0.7
			c0.4-0.5,0.6-1.3,0.6-2.4V10h1.4v8.6H155l-0.2-1.1h-0.1c-0.3,0.4-0.6,0.7-1.1,1s-1,0.3-1.6,0.3c-1,0-1.8-0.2-2.3-0.7
			c-0.5-0.5-0.8-1.3-0.8-2.4V10H150.3z"/>
		<path id="XMLID_90_" class="st5" d="M164.7,18.6v-5.5c0-0.7-0.2-1.2-0.5-1.6c-0.3-0.3-0.8-0.5-1.5-0.5c-0.9,0-1.5,0.2-1.9,0.7
			c-0.4,0.5-0.6,1.3-0.6,2.4v4.4h-1.4V10h1.1l0.2,1.2h0.1c0.3-0.4,0.6-0.7,1.1-1c0.5-0.2,1-0.3,1.6-0.3c1.1,0,1.8,0.3,2.3,0.8
			c0.5,0.5,0.8,1.3,0.8,2.4v5.6H164.7z"/>
		<path id="XMLID_88_" class="st5" d="M172.2,18.7c-1.2,0-2.2-0.4-2.9-1.1s-1-1.8-1-3.3c0-1.4,0.3-2.5,1-3.3c0.7-0.8,1.7-1.2,3-1.2
			c0.4,0,0.8,0,1.2,0.1c0.4,0.1,0.7,0.2,1,0.3l-0.4,1.2c-0.7-0.3-1.3-0.4-1.9-0.4c-0.9,0-1.5,0.3-1.9,0.8c-0.4,0.5-0.6,1.4-0.6,2.4
			c0,1,0.2,1.8,0.6,2.4c0.4,0.5,1,0.8,1.8,0.8c0.8,0,1.5-0.2,2.2-0.5v1.3C173.8,18.6,173.1,18.7,172.2,18.7z"/>
		<path id="XMLID_86_" class="st5" d="M177.8,10v5.5c0,0.7,0.2,1.2,0.5,1.5c0.3,0.3,0.8,0.5,1.4,0.5c0.9,0,1.5-0.2,1.9-0.7
			c0.4-0.5,0.6-1.3,0.6-2.4V10h1.4v8.6h-1.2l-0.2-1.1h-0.1c-0.3,0.4-0.6,0.7-1.1,1s-1,0.3-1.6,0.3c-1,0-1.8-0.2-2.3-0.7
			c-0.5-0.5-0.8-1.3-0.8-2.4V10H177.8z"/>
		<path id="XMLID_84_" class="st5" d="M190.4,9.8c0.4,0,0.7,0,1,0.1l-0.2,1.3c-0.3-0.1-0.6-0.1-0.9-0.1c-0.5,0-0.9,0.1-1.3,0.4
			c-0.4,0.3-0.7,0.6-0.9,1c-0.2,0.4-0.3,0.9-0.3,1.5v4.6h-1.4V10h1.2l0.2,1.6h0.1c0.3-0.6,0.7-1,1.2-1.3
			C189.3,10,189.8,9.8,190.4,9.8z"/>
		<path id="XMLID_81_" class="st5" d="M198.1,18.6l-0.3-1.2h-0.1c-0.4,0.5-0.9,0.9-1.3,1.1c-0.4,0.2-1,0.3-1.6,0.3
			c-0.8,0-1.5-0.2-2-0.7c-0.5-0.4-0.7-1.1-0.7-1.9c0-1.7,1.4-2.7,4.1-2.7l1.5-0.1v-0.5c0-0.7-0.1-1.1-0.4-1.4
			c-0.3-0.3-0.7-0.5-1.4-0.5c-0.5,0-0.9,0.1-1.3,0.2c-0.4,0.1-0.8,0.3-1.1,0.5l-0.4-1.1c0.4-0.2,0.9-0.4,1.4-0.5
			c0.5-0.1,1-0.2,1.5-0.2c1,0,1.8,0.2,2.3,0.7c0.5,0.5,0.8,1.2,0.8,2.2v5.8H198.1z M195.2,17.6c0.8,0,1.4-0.2,1.9-0.6
			c0.5-0.4,0.7-1,0.7-1.8v-0.8l-1.3,0.1c-1,0-1.7,0.2-2.2,0.5c-0.5,0.3-0.7,0.7-0.7,1.3c0,0.4,0.1,0.8,0.4,1
			C194.3,17.5,194.7,17.6,195.2,17.6z"/>
		<path id="XMLID_79_" class="st5" d="M207.6,18.6v-5.5c0-0.7-0.2-1.2-0.5-1.6c-0.3-0.3-0.8-0.5-1.5-0.5c-0.9,0-1.5,0.2-1.9,0.7
			c-0.4,0.5-0.6,1.3-0.6,2.4v4.4h-1.4V10h1.1l0.2,1.2h0.1c0.3-0.4,0.6-0.7,1.1-1c0.5-0.2,1-0.3,1.6-0.3c1.1,0,1.8,0.3,2.3,0.8
			c0.5,0.5,0.8,1.3,0.8,2.4v5.6H207.6z"/>
		<path id="XMLID_75_" class="st5" d="M34.4,35.6c-1.2,0-2-0.4-2.7-1.2h-0.1l0,0.3c0,0.4,0.1,0.8,0.1,1.1v3.5h-1.4V26.9h1.2l0.2,1.2
			h0.1c0.3-0.5,0.7-0.8,1.2-1c0.4-0.2,0.9-0.3,1.5-0.3c1.1,0,2,0.4,2.6,1.2s0.9,1.9,0.9,3.3c0,1.4-0.3,2.5-0.9,3.3
			C36.4,35.2,35.6,35.6,34.4,35.6z M34.2,27.9c-0.8,0-1.5,0.2-1.8,0.7c-0.4,0.5-0.6,1.2-0.6,2.3v0.3c0,1.2,0.2,2,0.6,2.5
			c0.4,0.5,1,0.8,1.9,0.8c0.7,0,1.3-0.3,1.7-0.9c0.4-0.6,0.6-1.4,0.6-2.4c0-1-0.2-1.8-0.6-2.4C35.5,28.2,34.9,27.9,34.2,27.9z"/>
		<path id="XMLID_73_" class="st5" d="M44.2,26.7c0.4,0,0.7,0,1,0.1l-0.2,1.3C44.7,28,44.4,28,44.1,28c-0.5,0-0.9,0.1-1.3,0.4
			c-0.4,0.3-0.7,0.6-0.9,1c-0.2,0.4-0.3,0.9-0.3,1.5v4.6h-1.4v-8.6h1.2l0.2,1.6h0.1c0.3-0.6,0.7-1,1.2-1.3
			C43.2,26.9,43.7,26.7,44.2,26.7z"/>
		<path id="XMLID_70_" class="st5" d="M54.1,31.2c0,1.4-0.4,2.5-1.1,3.3c-0.7,0.8-1.7,1.2-2.9,1.2c-0.8,0-1.5-0.2-2.1-0.5
			c-0.6-0.4-1.1-0.9-1.4-1.6c-0.3-0.7-0.5-1.5-0.5-2.4c0-1.4,0.3-2.5,1-3.3c0.7-0.8,1.7-1.2,2.9-1.2c1.2,0,2.2,0.4,2.9,1.2
			C53.8,28.7,54.1,29.8,54.1,31.2z M47.6,31.2c0,1.1,0.2,1.9,0.6,2.5c0.4,0.6,1.1,0.8,1.9,0.8c0.8,0,1.4-0.3,1.9-0.8
			c0.4-0.6,0.6-1.4,0.6-2.5c0-1.1-0.2-1.9-0.6-2.4c-0.4-0.5-1.1-0.8-1.9-0.8C48.5,27.9,47.6,29,47.6,31.2z"/>
		<path id="XMLID_67_" class="st5" d="M59.4,35.6c-1.1,0-2-0.4-2.6-1.2c-0.6-0.8-0.9-1.9-0.9-3.3c0-1.4,0.3-2.5,0.9-3.3
			c0.6-0.8,1.5-1.2,2.6-1.2c1.2,0,2,0.4,2.7,1.3h0.1c0-0.1,0-0.3-0.1-0.6c0-0.3,0-0.5,0-0.6v-3.4h1.4v12.2h-1.1l-0.2-1.1h-0.1
			C61.5,35.2,60.6,35.6,59.4,35.6z M59.6,34.5c0.9,0,1.5-0.2,1.9-0.7c0.4-0.5,0.6-1.2,0.6-2.3v-0.3c0-1.2-0.2-2-0.6-2.6
			s-1-0.8-1.9-0.8c-0.7,0-1.3,0.3-1.7,0.9c-0.4,0.6-0.6,1.4-0.6,2.5c0,1.1,0.2,1.9,0.6,2.4C58.3,34.2,58.9,34.5,59.6,34.5z"/>
		<path id="XMLID_65_" class="st5" d="M67.5,26.9v5.5c0,0.7,0.2,1.2,0.5,1.5c0.3,0.3,0.8,0.5,1.4,0.5c0.9,0,1.5-0.2,1.9-0.7
			c0.4-0.5,0.6-1.3,0.6-2.4v-4.5h1.4v8.6h-1.2L72,34.3h-0.1c-0.3,0.4-0.6,0.7-1.1,1s-1,0.3-1.6,0.3c-1,0-1.8-0.2-2.3-0.7
			c-0.5-0.5-0.8-1.3-0.8-2.4v-5.6H67.5z"/>
		<path id="XMLID_63_" class="st5" d="M77.5,31.1l0.5-0.6l0.5-0.7l2.7-2.9h1.6l-3.5,3.7l3.7,4.9h-1.7l-3-4l-1,0.9v3.1h-1.4V23.3h1.4
			v6.4V31.1L77.5,31.1z"/>
		<path id="XMLID_60_" class="st5" d="M94.1,35.5l-0.3-1.2h-0.1c-0.4,0.5-0.9,0.9-1.3,1.1c-0.4,0.2-1,0.3-1.6,0.3
			c-0.8,0-1.5-0.2-2-0.7c-0.5-0.4-0.7-1.1-0.7-1.9c0-1.7,1.4-2.7,4.1-2.7l1.5-0.1v-0.5c0-0.7-0.1-1.1-0.4-1.4
			C93,28,92.6,27.9,92,27.9c-0.5,0-0.9,0.1-1.3,0.2c-0.4,0.1-0.8,0.3-1.1,0.5l-0.4-1.1c0.4-0.2,0.9-0.4,1.4-0.5
			c0.5-0.1,1-0.2,1.5-0.2c1,0,1.8,0.2,2.3,0.7c0.5,0.5,0.8,1.2,0.8,2.2v5.8H94.1z M91.2,34.5c0.8,0,1.4-0.2,1.9-0.6
			c0.5-0.4,0.7-1,0.7-1.8v-0.8l-1.3,0.1c-1,0-1.7,0.2-2.2,0.5c-0.5,0.3-0.7,0.7-0.7,1.3c0,0.4,0.1,0.8,0.4,1
			C90.3,34.4,90.7,34.5,91.2,34.5z"/>
		<path id="XMLID_58_" class="st5" d="M100.6,34.5c0.2,0,0.4,0,0.6-0.1c0.2,0,0.4-0.1,0.6-0.1v1.1c-0.1,0.1-0.3,0.1-0.6,0.2
			s-0.6,0.1-0.8,0.1c-1.7,0-2.5-0.9-2.5-2.6v-5h-1.2v-0.7l1.2-0.6l0.6-1.8h0.8v2h2.5V28h-2.5v5c0,0.5,0.1,0.9,0.4,1.1
			C99.9,34.3,100.2,34.5,100.6,34.5z"/>
		<path id="XMLID_55_" class="st5" d="M108.8,35.5l-0.3-1.2h-0.1c-0.4,0.5-0.9,0.9-1.3,1.1c-0.4,0.2-1,0.3-1.6,0.3
			c-0.8,0-1.5-0.2-2-0.7c-0.5-0.4-0.7-1.1-0.7-1.9c0-1.7,1.4-2.7,4.1-2.7l1.5-0.1v-0.5c0-0.7-0.1-1.1-0.4-1.4
			c-0.3-0.3-0.7-0.5-1.4-0.5c-0.5,0-0.9,0.1-1.3,0.2c-0.4,0.1-0.8,0.3-1.1,0.5l-0.4-1.1c0.4-0.2,0.9-0.4,1.4-0.5
			c0.5-0.1,1-0.2,1.5-0.2c1,0,1.8,0.2,2.3,0.7c0.5,0.5,0.8,1.2,0.8,2.2v5.8H108.8z M105.9,34.5c0.8,0,1.4-0.2,1.9-0.6
			c0.5-0.4,0.7-1,0.7-1.8v-0.8l-1.3,0.1c-1,0-1.7,0.2-2.2,0.5c-0.5,0.3-0.7,0.7-0.7,1.3c0,0.4,0.1,0.8,0.4,1
			C105.1,34.4,105.4,34.5,105.9,34.5z"/>
		<path id="XMLID_53_" class="st5" d="M113.8,26.9v5.5c0,0.7,0.2,1.2,0.5,1.5c0.3,0.3,0.8,0.5,1.4,0.5c0.9,0,1.5-0.2,1.9-0.7
			c0.4-0.5,0.6-1.3,0.6-2.4v-4.5h1.4v8.6h-1.2l-0.2-1.1h-0.1c-0.3,0.4-0.6,0.7-1.1,1s-1,0.3-1.6,0.3c-1,0-1.8-0.2-2.3-0.7
			c-0.5-0.5-0.8-1.3-0.8-2.4v-5.6H113.8z"/>
		<path id="XMLID_50_" class="st5" d="M34.4,52.5c-1.2,0-2-0.4-2.7-1.2h-0.1l0,0.3c0,0.4,0.1,0.8,0.1,1.1v3.5h-1.4V43.8h1.2l0.2,1.2
			h0.1c0.3-0.5,0.7-0.8,1.2-1c0.4-0.2,0.9-0.3,1.5-0.3c1.1,0,2,0.4,2.6,1.2S38,46.6,38,48c0,1.4-0.3,2.5-0.9,3.3
			C36.4,52.1,35.6,52.5,34.4,52.5z M34.2,44.8c-0.8,0-1.5,0.2-1.8,0.7c-0.4,0.5-0.6,1.2-0.6,2.3V48c0,1.2,0.2,2,0.6,2.5
			c0.4,0.5,1,0.8,1.9,0.8c0.7,0,1.3-0.3,1.7-0.9c0.4-0.6,0.6-1.4,0.6-2.4c0-1-0.2-1.8-0.6-2.4C35.5,45.1,34.9,44.8,34.2,44.8z"/>
		<path id="XMLID_47_" class="st5" d="M43.9,52.5c-1.3,0-2.3-0.4-3-1.2c-0.7-0.8-1.1-1.9-1.1-3.2c0-1.4,0.3-2.5,1-3.3
			c0.7-0.8,1.6-1.2,2.8-1.2c1.1,0,1.9,0.3,2.6,1s1,1.6,1,2.8v0.9h-5.9c0,1,0.3,1.7,0.7,2.2c0.5,0.5,1.1,0.8,2,0.8
			c0.5,0,0.9,0,1.3-0.1c0.4-0.1,0.9-0.2,1.4-0.5V52c-0.5,0.2-0.9,0.3-1.3,0.4C44.9,52.5,44.4,52.5,43.9,52.5z M43.5,44.8
			c-0.7,0-1.2,0.2-1.6,0.6c-0.4,0.4-0.6,1-0.7,1.8h4.4c0-0.8-0.2-1.4-0.6-1.8C44.7,45,44.2,44.8,43.5,44.8z"/>
		<path id="XMLID_45_" class="st5" d="M50.6,52.3h-1.4V40.2h1.4V52.3z"/>
		<path id="XMLID_42_" class="st5" d="M58.7,52.3l-0.3-1.2h-0.1c-0.4,0.5-0.9,0.9-1.3,1.1c-0.4,0.2-1,0.3-1.6,0.3
			c-0.8,0-1.5-0.2-2-0.7c-0.5-0.4-0.7-1.1-0.7-1.9c0-1.7,1.4-2.7,4.1-2.7l1.5-0.1v-0.5c0-0.7-0.1-1.1-0.4-1.4
			c-0.3-0.3-0.7-0.5-1.4-0.5c-0.5,0-0.9,0.1-1.3,0.2c-0.4,0.1-0.8,0.3-1.1,0.5l-0.4-1.1c0.4-0.2,0.9-0.4,1.4-0.5
			c0.5-0.1,1-0.2,1.5-0.2c1,0,1.8,0.2,2.3,0.7c0.5,0.5,0.8,1.2,0.8,2.2v5.8H58.7z M55.8,51.4c0.8,0,1.4-0.2,1.9-0.6
			c0.5-0.4,0.7-1,0.7-1.8v-0.8L57,48.2c-1,0-1.7,0.2-2.2,0.5c-0.5,0.3-0.7,0.7-0.7,1.3c0,0.4,0.1,0.8,0.4,1
			C54.9,51.3,55.3,51.4,55.8,51.4z"/>
		<path id="XMLID_40_" class="st5" d="M61,43.8h1.5l1.9,4.9c0.4,1.1,0.6,1.8,0.7,2.3h0.1c0-0.2,0.2-0.6,0.3-1.1
			c0.2-0.5,0.3-1,0.4-1.3l1.7-4.9h1.5l-3.7,9.8c-0.4,0.9-0.8,1.6-1.3,2c-0.5,0.4-1.1,0.6-1.8,0.6c-0.4,0-0.8,0-1.2-0.1v-1.1
			c0.3,0.1,0.6,0.1,0.9,0.1c0.4,0,0.8-0.1,1.1-0.4c0.3-0.2,0.6-0.6,0.8-1.1l0.4-1.1L61,43.8z"/>
		<path id="XMLID_37_" class="st5" d="M75.8,52.3l-0.3-1.2h-0.1c-0.4,0.5-0.9,0.9-1.3,1.1c-0.4,0.2-1,0.3-1.6,0.3
			c-0.8,0-1.5-0.2-2-0.7c-0.5-0.4-0.7-1.1-0.7-1.9c0-1.7,1.4-2.7,4.1-2.7l1.5-0.1v-0.5c0-0.7-0.1-1.1-0.4-1.4
			c-0.3-0.3-0.7-0.5-1.4-0.5c-0.5,0-0.9,0.1-1.3,0.2c-0.4,0.1-0.8,0.3-1.1,0.5l-0.4-1.1c0.4-0.2,0.9-0.4,1.4-0.5
			c0.5-0.1,1-0.2,1.5-0.2c1,0,1.8,0.2,2.3,0.7c0.5,0.5,0.8,1.2,0.8,2.2v5.8H75.8z M72.9,51.4c0.8,0,1.4-0.2,1.9-0.6
			c0.5-0.4,0.7-1,0.7-1.8v-0.8l-1.3,0.1c-1,0-1.7,0.2-2.2,0.5c-0.5,0.3-0.7,0.7-0.7,1.3c0,0.4,0.1,0.8,0.4,1
			C72,51.3,72.4,51.4,72.9,51.4z"/>
		<path id="XMLID_35_" class="st5" d="M85.3,52.3v-5.5c0-0.7-0.2-1.2-0.5-1.6c-0.3-0.3-0.8-0.5-1.5-0.5c-0.9,0-1.5,0.2-1.9,0.7
			c-0.4,0.5-0.6,1.3-0.6,2.4v4.4h-1.4v-8.6h1.1l0.2,1.2h0.1c0.3-0.4,0.6-0.7,1.1-1c0.5-0.2,1-0.3,1.6-0.3c1.1,0,1.8,0.3,2.3,0.8
			c0.5,0.5,0.8,1.3,0.8,2.4v5.6H85.3z"/>
		<path id="XMLID_32_" class="st5" d="M94.7,52.3l-0.3-1.2h-0.1c-0.4,0.5-0.9,0.9-1.3,1.1c-0.4,0.2-1,0.3-1.6,0.3
			c-0.8,0-1.5-0.2-2-0.7c-0.5-0.4-0.7-1.1-0.7-1.9c0-1.7,1.4-2.7,4.1-2.7l1.5-0.1v-0.5c0-0.7-0.1-1.1-0.4-1.4
			c-0.3-0.3-0.7-0.5-1.4-0.5c-0.5,0-0.9,0.1-1.3,0.2c-0.4,0.1-0.8,0.3-1.1,0.5l-0.4-1.1c0.4-0.2,0.9-0.4,1.4-0.5
			c0.5-0.1,1-0.2,1.5-0.2c1,0,1.8,0.2,2.3,0.7c0.5,0.5,0.8,1.2,0.8,2.2v5.8H94.7z M91.8,51.4c0.8,0,1.4-0.2,1.9-0.6
			c0.5-0.4,0.7-1,0.7-1.8v-0.8L93,48.2c-1,0-1.7,0.2-2.2,0.5c-0.5,0.3-0.7,0.7-0.7,1.3c0,0.4,0.1,0.8,0.4,1
			C90.9,51.3,91.3,51.4,91.8,51.4z"/>
		<path id="XMLID_30_" class="st5" d="M104.2,52.3v-5.5c0-0.7-0.2-1.2-0.5-1.6c-0.3-0.3-0.8-0.5-1.5-0.5c-0.9,0-1.5,0.2-1.9,0.7
			c-0.4,0.5-0.6,1.3-0.6,2.4v4.4h-1.4v-8.6h1.1l0.2,1.2h0.1c0.3-0.4,0.6-0.7,1.1-1c0.5-0.2,1-0.3,1.6-0.3c1.1,0,1.8,0.3,2.3,0.8
			c0.5,0.5,0.8,1.3,0.8,2.4v5.6H104.2z"/>
		<path id="XMLID_27_" class="st5" d="M116.5,43.6c1.1,0,2,0.4,2.6,1.2c0.6,0.8,0.9,1.9,0.9,3.3c0,1.4-0.3,2.5-0.9,3.3
			s-1.5,1.2-2.6,1.2c-0.6,0-1.1-0.1-1.5-0.3s-0.8-0.5-1.1-0.9h-0.1c-0.2,0.6-0.3,1-0.3,1.1h-1V40.2h1.4v3c0,0.6,0,1.2-0.1,1.8h0.1
			C114.4,44.1,115.3,43.6,116.5,43.6z M116.2,44.8c-0.9,0-1.5,0.2-1.9,0.7c-0.4,0.5-0.6,1.3-0.6,2.5v0.1c0,1.2,0.2,2,0.6,2.5
			c0.4,0.5,1,0.8,1.9,0.8c0.8,0,1.3-0.3,1.7-0.8c0.4-0.6,0.6-1.4,0.6-2.4c0-1.1-0.2-1.9-0.6-2.4C117.6,45.1,117,44.8,116.2,44.8z"/>
		<path id="XMLID_24_" class="st5" d="M127.5,52.3l-0.3-1.2h-0.1c-0.4,0.5-0.9,0.9-1.3,1.1c-0.4,0.2-1,0.3-1.6,0.3
			c-0.8,0-1.5-0.2-2-0.7c-0.5-0.4-0.7-1.1-0.7-1.9c0-1.7,1.4-2.7,4.1-2.7l1.5-0.1v-0.5c0-0.7-0.1-1.1-0.4-1.4
			c-0.3-0.3-0.7-0.5-1.4-0.5c-0.5,0-0.9,0.1-1.3,0.2c-0.4,0.1-0.8,0.3-1.1,0.5l-0.4-1.1c0.4-0.2,0.9-0.4,1.4-0.5
			c0.5-0.1,1-0.2,1.5-0.2c1,0,1.8,0.2,2.3,0.7c0.5,0.5,0.8,1.2,0.8,2.2v5.8H127.5z M124.6,51.4c0.8,0,1.4-0.2,1.9-0.6
			c0.5-0.4,0.7-1,0.7-1.8v-0.8l-1.3,0.1c-1,0-1.7,0.2-2.2,0.5c-0.5,0.3-0.7,0.7-0.7,1.3c0,0.4,0.1,0.8,0.4,1
			C123.8,51.3,124.1,51.4,124.6,51.4z"/>
		<path id="XMLID_22_" class="st5" d="M135.2,43.6c0.4,0,0.7,0,1,0.1L136,45c-0.3-0.1-0.6-0.1-0.9-0.1c-0.5,0-0.9,0.1-1.3,0.4
			c-0.4,0.3-0.7,0.6-0.9,1c-0.2,0.4-0.3,0.9-0.3,1.5v4.6h-1.4v-8.6h1.2l0.2,1.6h0.1c0.3-0.6,0.7-1,1.2-1.3
			C134.2,43.8,134.7,43.6,135.2,43.6z"/>
		<path id="XMLID_20_" class="st5" d="M139.1,43.8v5.5c0,0.7,0.2,1.2,0.5,1.5c0.3,0.3,0.8,0.5,1.4,0.5c0.9,0,1.5-0.2,1.9-0.7
			c0.4-0.5,0.6-1.3,0.6-2.4v-4.5h1.4v8.6h-1.2l-0.2-1.1h-0.1c-0.3,0.4-0.6,0.7-1.1,1s-1,0.3-1.6,0.3c-1,0-1.8-0.2-2.3-0.7
			c-0.5-0.5-0.8-1.3-0.8-2.4v-5.6H139.1z"/>
		<path id="XMLID_18_" class="st5" d="M147.5,51.5c0-0.3,0.1-0.6,0.3-0.8c0.2-0.2,0.4-0.3,0.7-0.3c0.3,0,0.6,0.1,0.7,0.3
			c0.2,0.2,0.3,0.4,0.3,0.8c0,0.3-0.1,0.6-0.3,0.8c-0.2,0.2-0.4,0.3-0.7,0.3c-0.3,0-0.5-0.1-0.7-0.3S147.5,51.8,147.5,51.5z"/>
	</g>
</g>
</svg>