<!-- Generator: Adobe Illustrator 19.0.0, SVG Export Plug-In  -->
<svg version="1.1"
	 xmlns="http://www.w3.org/2000/svg" xmlns:xlink="http://www.w3.org/1999/xlink" xmlns:a="http://ns.adobe.com/AdobeSVGViewerExtensions/3.0/"
	 x="0px" y="0px" width="600px" height="380px" viewBox="0 0 600 380" style="enable-background:new 0 0 600 380;"
	 xml:space="preserve">
<style type="text/css">
	.st0{fill:#086A87;}
	.st1{fill:#33CCCC;}
	.st2{fill:#FF6633;}
	.st3{fill:#FFFFFF;}
	.st4{fill:#2ABAB6;}
	.st5{fill:none;stroke:#FFFFFF;stroke-miterlimit:10;stroke-dasharray:3.132;}
</style>
<defs>
</defs>
<rect id="XMLID_73_" class="st0" width="600" height="380"/>
<g id="XMLID_65_">
	<path id="XMLID_71_" class="st1" d="M213,331.5h-27.5v-75.3l0.3-12.4l0.4-13.5c-4.6,4.6-7.7,7.6-9.5,9l-14.9,12l-13.3-16.6
		l41.9-33.4H213V331.5z"/>
	<path id="XMLID_68_" class="st1" d="M339.4,266.5c0,22.7-3.7,39.5-11.2,50.5c-7.4,10.9-18.9,16.4-34.4,16.4
		c-15,0-26.3-5.6-33.9-16.9c-7.6-11.3-11.4-27.9-11.4-49.9c0-23,3.7-39.9,11.1-50.8c7.4-10.9,18.8-16.3,34.3-16.3
		c15,0,26.4,5.7,34,17.1C335.6,227.8,339.4,244.5,339.4,266.5z M275.8,266.5c0,16,1.4,27.4,4.1,34.3c2.8,6.9,7.4,10.4,13.9,10.4
		c6.4,0,11-3.5,13.9-10.5c2.8-7,4.3-18.4,4.3-34.2c0-16-1.4-27.4-4.3-34.4c-2.9-7-7.5-10.5-13.8-10.5c-6.5,0-11.1,3.5-13.9,10.5
		C277.2,239,275.8,250.5,275.8,266.5z"/>
	<path id="XMLID_66_" class="st1" d="M421.4,331.5h-27.5v-75.3l0.3-12.4l0.4-13.5c-4.6,4.6-7.7,7.6-9.5,9l-14.9,12l-13.3-16.6
		l41.9-33.4h22.6V331.5z"/>
</g>
<circle id="XMLID_64_" class="st2" cx="125.5" cy="236.5" r="5.3"/>
<circle id="XMLID_63_" class="st2" cx="126.8" cy="223.1" r="5.3"/>
<circle id="XMLID_62_" class="st0" cx="126.8" cy="223.1" r="3.5"/>
<circle id="XMLID_61_" class="st0" cx="125.5" cy="236.5" r="3.5"/>
<path id="XMLID_60_" class="st2" d="M147.5,239.7l-19.4-12.8l-3.9,1l18.9,12.5c0.3,0.2,0.6,0.4,0.9,0.5
	C145.3,241.2,146.6,241.1,147.5,239.7z"/>
<path id="XMLID_59_" class="st2" d="M146.8,226.8l-22,4.5l3.3,2.3l22.8-4.6c-0.3-1.7-1.8-2.2-3.1-2.3
	C147.5,226.6,147.2,226.7,146.8,226.8z"/>
<polygon id="XMLID_58_" class="st3" points="148.7,233 161.9,249.4 175.6,238.5 "/>
<polygon id="XMLID_55_" class="st4" points="148.6,232.7 167,226.6 175.6,238.5 "/>
<rect id="XMLID_54_" x="50.5" y="21.5" class="st5" width="489" height="335"/>
<g id="XMLID_15_">
	<path id="XMLID_51_" class="st3" d="M125,58.1c0,5.1-1.6,9.1-4.8,11.8c-3.2,2.7-7.8,4.1-13.7,4.1h-4.4v17H91.9V43.2h15.3
		c5.8,0,10.2,1.2,13.2,3.7C123.5,49.4,125,53.2,125,58.1z M102.1,65.7h3.3c3.1,0,5.5-0.6,7-1.8c1.5-1.2,2.3-3,2.3-5.4
		c0-2.4-0.6-4.1-1.9-5.3c-1.3-1.1-3.3-1.7-6.1-1.7h-4.6V65.7z"/>
	<path id="XMLID_48_" class="st3" d="M149.8,91.7c-5.9,0-10.5-1.6-13.8-4.9c-3.3-3.2-5-7.9-5-13.8c0-6.1,1.5-10.9,4.6-14.2
		c3.1-3.3,7.3-5,12.7-5c5.2,0,9.2,1.5,12.1,4.4s4.3,7,4.3,12.2v4.8h-23.6c0.1,2.8,0.9,5,2.5,6.6c1.6,1.6,3.8,2.4,6.6,2.4
		c2.2,0,4.3-0.2,6.2-0.7s4-1.2,6.2-2.2v7.7c-1.7,0.9-3.6,1.5-5.6,1.9C155.1,91.5,152.6,91.7,149.8,91.7z M148.4,60.9
		c-2.1,0-3.8,0.7-5,2c-1.2,1.3-1.9,3.2-2.1,5.7h14c0-2.5-0.7-4.4-1.9-5.7S150.5,60.9,148.4,60.9z"/>
	<path id="XMLID_46_" class="st3" d="M206.6,91h-10V69.7c0-2.6-0.5-4.6-1.4-5.9c-0.9-1.3-2.4-2-4.5-2c-2.8,0-4.8,0.9-6.1,2.8
		s-1.9,5-1.9,9.3V91h-10V54.5h7.6l1.3,4.7h0.6c1.1-1.8,2.6-3.1,4.6-4c2-0.9,4.2-1.4,6.7-1.4c4.3,0,7.5,1.2,9.7,3.5
		c2.2,2.3,3.3,5.6,3.3,10V91z"/>
	<path id="XMLID_43_" class="st3" d="M248.8,91.1c0,5.3-1.5,9.2-4.6,12c-3.1,2.7-7.6,4.1-13.7,4.1c-5.3,0-9.9-0.7-13.7-2.2v-8
		c4.4,1.9,9.2,2.8,14.3,2.8c5.1,0,7.7-2.8,7.7-8.3v-0.7l0.3-4.5h-0.3c-2.3,3.6-5.8,5.4-10.4,5.4c-4.4,0-7.8-1.7-10.2-5.1
		c-2.4-3.4-3.6-8-3.6-13.8c0-6,1.2-10.7,3.7-14c2.5-3.3,5.9-5,10.3-5c4.5,0,8,1.8,10.6,5.4h0.3l0.8-4.7h8.4V91.1z M232,83.9
		c2.7,0,4.6-0.8,5.8-2.3c1.2-1.5,1.7-4,1.7-7.5v-1.2c0-3.9-0.6-6.7-1.8-8.4c-1.2-1.7-3.2-2.6-5.8-2.6c-4.7,0-7,3.7-7,11.1
		c0,3.7,0.6,6.4,1.8,8.2C227.7,83,229.5,83.9,232,83.9z"/>
	<path id="XMLID_40_" class="st3" d="M291.2,91.1c0,5.3-1.5,9.2-4.6,12c-3.1,2.7-7.6,4.1-13.7,4.1c-5.3,0-9.9-0.7-13.7-2.2v-8
		c4.4,1.9,9.2,2.8,14.3,2.8c5.1,0,7.7-2.8,7.7-8.3v-0.7l0.3-4.5h-0.3c-2.3,3.6-5.8,5.4-10.4,5.4c-4.4,0-7.8-1.7-10.2-5.1
		c-2.4-3.4-3.6-8-3.6-13.8c0-6,1.2-10.7,3.7-14c2.5-3.3,5.9-5,10.3-5c4.5,0,8,1.8,10.6,5.4h0.3l0.8-4.7h8.4V91.1z M274.4,83.9
		c2.7,0,4.6-0.8,5.8-2.3c1.2-1.5,1.7-4,1.7-7.5v-1.2c0-3.9-0.6-6.7-1.8-8.4c-1.2-1.7-3.2-2.6-5.8-2.6c-4.7,0-7,3.7-7,11.1
		c0,3.7,0.6,6.4,1.8,8.2C270.1,83,271.9,83.9,274.4,83.9z"/>
	<path id="XMLID_38_" class="st3" d="M327.6,91l-1.3-4.7h-0.5c-1.1,1.7-2.6,3-4.5,3.9s-4.2,1.4-6.7,1.4c-4.3,0-7.5-1.2-9.7-3.5
		c-2.2-2.3-3.3-5.6-3.3-9.9V54.5h10v21.4c0,2.6,0.5,4.6,1.4,5.9c0.9,1.3,2.4,2,4.5,2c2.8,0,4.8-0.9,6.1-2.8s1.9-5,1.9-9.3V54.5h10
		V91H327.6z"/>
	<path id="XMLID_36_" class="st3" d="M379.4,91h-10V69.7c0-2.6-0.5-4.6-1.4-5.9c-0.9-1.3-2.4-2-4.5-2c-2.8,0-4.8,0.9-6.1,2.8
		s-1.9,5-1.9,9.3V91h-10V54.5h7.6l1.3,4.7h0.6c1.1-1.8,2.6-3.1,4.6-4c2-0.9,4.2-1.4,6.7-1.4c4.3,0,7.5,1.2,9.7,3.5
		c2.2,2.3,3.3,5.6,3.3,10V91z"/>
	<path id="XMLID_33_" class="st3" d="M412.9,91l-1.9-5h-0.3c-1.7,2.1-3.4,3.6-5.2,4.4c-1.8,0.8-4.1,1.2-7,1.2c-3.5,0-6.3-1-8.3-3
		c-2-2-3-4.9-3-8.6c0-3.9,1.4-6.7,4.1-8.6c2.7-1.8,6.8-2.9,12.3-3.1l6.3-0.2v-1.6c0-3.7-1.9-5.6-5.7-5.6c-2.9,0-6.4,0.9-10.3,2.6
		l-3.3-6.7c4.2-2.2,8.9-3.3,14-3.3c4.9,0,8.7,1.1,11.3,3.2c2.6,2.1,3.9,5.4,3.9,9.7V91H412.9z M410,74.1l-3.9,0.1
		c-2.9,0.1-5.1,0.6-6.5,1.6c-1.4,1-2.1,2.4-2.1,4.4c0,2.8,1.6,4.2,4.8,4.2c2.3,0,4.2-0.7,5.5-2c1.4-1.3,2.1-3.1,2.1-5.3V74.1z"/>
	<path id="XMLID_30_" class="st3" d="M453.4,91l-1.9-5h-0.3c-1.7,2.1-3.4,3.6-5.2,4.4c-1.8,0.8-4.1,1.2-7,1.2c-3.5,0-6.3-1-8.3-3
		c-2-2-3-4.9-3-8.6c0-3.9,1.4-6.7,4.1-8.6c2.7-1.8,6.8-2.9,12.3-3.1l6.3-0.2v-1.6c0-3.7-1.9-5.6-5.7-5.6c-2.9,0-6.4,0.9-10.3,2.6
		l-3.3-6.7c4.2-2.2,8.9-3.3,14-3.3c4.9,0,8.7,1.1,11.3,3.2c2.6,2.1,3.9,5.4,3.9,9.7V91H453.4z M450.5,74.1l-3.9,0.1
		c-2.9,0.1-5.1,0.6-6.5,1.6c-1.4,1-2.1,2.4-2.1,4.4c0,2.8,1.6,4.2,4.8,4.2c2.3,0,4.2-0.7,5.5-2c1.4-1.3,2.1-3.1,2.1-5.3V74.1z"/>
	<path id="XMLID_28_" class="st3" d="M504.4,91h-10V69.7c0-2.6-0.5-4.6-1.4-5.9c-0.9-1.3-2.4-2-4.5-2c-2.8,0-4.8,0.9-6.1,2.8
		s-1.9,5-1.9,9.3V91h-10V54.5h7.6l1.3,4.7h0.6c1.1-1.8,2.6-3.1,4.6-4c2-0.9,4.2-1.4,6.7-1.4c4.3,0,7.5,1.2,9.7,3.5
		c2.2,2.3,3.3,5.6,3.3,10V91z"/>
	<path id="XMLID_26_" class="st3" d="M242.7,171h-11.5l-12.5-20.2l-4.3,3.1V171h-10.1v-47.8h10.1v21.9l4-5.6l13-16.3h11.3
		l-16.7,21.2L242.7,171z"/>
	<path id="XMLID_24_" class="st3" d="M273.8,171l-1.3-4.7h-0.5c-1.1,1.7-2.6,3-4.5,3.9s-4.2,1.4-6.7,1.4c-4.3,0-7.5-1.2-9.7-3.5
		c-2.2-2.3-3.3-5.6-3.3-9.9v-23.8h10v21.4c0,2.6,0.5,4.6,1.4,5.9c0.9,1.3,2.4,2,4.5,2c2.8,0,4.8-0.9,6.1-2.8s1.9-5,1.9-9.3v-17.2h10
		V171H273.8z"/>
	<path id="XMLID_21_" class="st3" d="M312,171.7c-4.3,0-7.7-1.6-10.1-4.7h-0.5c0.3,3.1,0.5,4.8,0.5,5.3v14.8h-10v-52.7h8.1l1.4,4.7
		h0.5c2.3-3.6,5.8-5.4,10.4-5.4c4.3,0,7.7,1.7,10.1,5c2.4,3.3,3.7,8,3.7,13.9c0,3.9-0.6,7.3-1.7,10.2s-2.8,5.1-4.9,6.6
		C317.4,170.9,314.9,171.7,312,171.7z M309.1,141.8c-2.5,0-4.3,0.8-5.4,2.3c-1.1,1.5-1.7,4-1.8,7.5v1.1c0,3.9,0.6,6.7,1.8,8.4
		c1.2,1.7,3,2.6,5.5,2.6c4.5,0,6.7-3.7,6.7-11.1c0-3.6-0.6-6.3-1.7-8.1C313.2,142.7,311.4,141.8,309.1,141.8z"/>
	<path id="XMLID_18_" class="st3" d="M367.6,152.7c0,6-1.6,10.6-4.7,14c-3.1,3.4-7.5,5-13.1,5c-3.5,0-6.6-0.8-9.3-2.3
		s-4.7-3.7-6.2-6.6s-2.2-6.2-2.2-10.1c0-6,1.6-10.6,4.7-13.9c3.1-3.3,7.5-5,13.2-5c3.5,0,6.6,0.8,9.3,2.3c2.7,1.5,4.7,3.7,6.2,6.6
		C366.9,145.5,367.6,148.8,367.6,152.7z M342.3,152.7c0,3.6,0.6,6.4,1.8,8.2c1.2,1.9,3.1,2.8,5.8,2.8c2.7,0,4.6-0.9,5.7-2.8
		c1.2-1.8,1.8-4.6,1.8-8.2c0-3.6-0.6-6.3-1.8-8.1c-1.2-1.8-3.1-2.7-5.8-2.7c-2.7,0-4.6,0.9-5.8,2.7S342.3,149,342.3,152.7z"/>
	<path id="XMLID_16_" class="st3" d="M409.6,171h-10v-21.4c0-2.6-0.5-4.6-1.4-5.9c-0.9-1.3-2.4-2-4.5-2c-2.8,0-4.8,0.9-6.1,2.8
		s-1.9,5-1.9,9.3V171h-10v-36.6h7.6l1.3,4.7h0.6c1.1-1.8,2.6-3.1,4.6-4c2-0.9,4.2-1.4,6.7-1.4c4.3,0,7.5,1.2,9.7,3.5
		c2.2,2.3,3.3,5.6,3.3,10V171z"/>
</g>
</svg>