<!-- Generator: Adobe Illustrator 19.0.0, SVG Export Plug-In  -->
<svg version="1.1"
	 xmlns="http://www.w3.org/2000/svg" xmlns:xlink="http://www.w3.org/1999/xlink" xmlns:a="http://ns.adobe.com/AdobeSVGViewerExtensions/3.0/"
	 x="0px" y="0px" width="228.2px" height="123px" viewBox="0 0 228.2 123" style="enable-background:new 0 0 228.2 123;"
	 xml:space="preserve">
<style type="text/css">
	.st0{fill:#FF6633;}
	.st1{fill:#FFFFFF;}
	.st2{fill:none;stroke:#FFFFFF;stroke-width:2;stroke-linecap:round;stroke-linejoin:round;stroke-miterlimit:10;}
	.st3{fill:none;stroke:#FFFFFF;stroke-linecap:round;stroke-linejoin:round;stroke-miterlimit:10;}
	.st4{fill:none;stroke:#FF6633;stroke-width:2;stroke-miterlimit:10;}
</style>
<defs>
</defs>
<circle class="st0" cx="8.4" cy="8.4" r="8.4"/>
<g>
	<path class="st1" d="M7.8,7.1c0.8,0,1.5,0.2,2,0.7s0.7,1.1,0.7,1.9c0,1-0.3,1.7-0.9,2.2s-1.3,0.8-2.4,0.8c-1,0-2.2-0.2-2.2-0.5
		v-1.6c0,0.2,0.6,0.3,1,0.4s0.8,0.2,1.1,0.2c1.1,0,1.6-0.5,1.6-1.4C8.7,9,8.2,8.6,7,8.6c-0.2,0-0.4,0-0.7,0.1S5.9,8.7,5.7,8.8L5,8.1
		l0.3-4.6H10v2H6.9L6.7,7.2l0.2,0C7.2,7.1,7.5,7.1,7.8,7.1z"/>
</g>
<g>
	<g>
		<path class="st1" d="M33,15.5h-2v-5h-5v5h-2v-12h2v5h5v-5h2V15.5z"/>
		<path class="st1" d="M44,11c0,1.4-0.4,2.5-1.1,3.3c-0.8,0.8-1.8,1.2-3.1,1.2c-0.8,0-1.6-0.2-2.2-0.6s-1.1-0.9-1.5-1.6
			s-0.5-1.5-0.5-2.4c0-1.4,0.4-2.5,1.1-3.3c0.7-0.8,1.8-1.2,3.1-1.2c0.8,0,1.6,0.2,2.2,0.5c0.6,0.4,1.1,0.9,1.5,1.6
			C43.8,9.3,44,10.1,44,11z M37.9,11c0,0.9,0.1,1.5,0.4,2c0.3,0.4,0.7,0.7,1.4,0.7c0.6,0,1.1-0.2,1.4-0.7c0.3-0.4,0.4-1.1,0.4-2
			c0-0.9-0.1-1.5-0.4-1.9c-0.3-0.4-0.7-0.6-1.4-0.6c-0.6,0-1.1,0.2-1.4,0.6S37.9,10.1,37.9,11z"/>
		<path class="st1" d="M48,15.5h-2v-12h2V15.5z"/>
		<path class="st1" d="M50.7,4.4c0-0.8,0.4-1.2,1.3-1.2s1.3,0.4,1.3,1.2c0,0.4-0.1,0.7-0.3,0.9c-0.2,0.2-0.5,0.3-1,0.3
			C51.1,5.6,50.7,5.2,50.7,4.4z M53,15.5h-2v-9h2V15.5z"/>
		<path class="st1" d="M58.5,15.7c-1,0-1.8-0.5-2.4-1.3s-0.9-1.9-0.9-3.3c0-1.4,0.3-2.6,0.9-3.4c0.6-0.8,1.4-1.3,2.5-1.3
			c1.1,0,1.9,0.2,2.5,1.2h0.1C61,7.5,61,6.5,61,6V3.5h2v12h-1.5l-0.5-1h-0.1C60.4,15.5,59.6,15.7,58.5,15.7z M59.3,13.6
			c0.6,0,1-0.2,1.3-0.5c0.3-0.4,0.4-1,0.4-1.8V11c0-0.9-0.1-1.6-0.4-2s-0.7-0.6-1.4-0.6c-0.5,0-0.9,0.2-1.2,0.7
			c-0.3,0.5-0.4,1.1-0.4,2s0.2,1.5,0.4,1.9S58.7,13.6,59.3,13.6z"/>
		<path class="st1" d="M71.4,15.5l-0.5-1h-0.1c-0.4,0-0.8,0.7-1.2,0.9s-1,0.2-1.7,0.2c-0.8,0-1.5-0.3-2-0.8
			c-0.5-0.5-0.7-1.2-0.7-2.1c0-0.9,0.3-1.6,1-2.1c0.6-0.4,1.8-0.7,3.1-0.7L71,9.9V9.6c0-0.9-0.6-1.3-1.5-1.3c-0.7,0-1.6,0.2-2.5,0.6
			l-0.8-1.6c1-0.5,2.1-0.8,3.3-0.8c1.2,0,2,0.3,2.7,0.8C72.7,7.7,73,8.5,73,9.6v6H71.4z M71,11.3l-1.1,0c-0.7,0-1.3,0.1-1.6,0.4
			c-0.3,0.2-0.6,0.6-0.6,1c0,0.7,0.4,1,1.1,1c0.6,0,1.2-0.2,1.5-0.5C70.7,13,71,12.6,71,12V11.3z"/>
		<path class="st1" d="M74.2,6.5h2.6l1.6,5.2c0.1,0.4,0.2,0.8,0.3,1.8h0c0.1-1,0.2-1.3,0.3-1.8l1.6-5.2h2.6l-3.7,9.9
			c-0.3,0.9-0.8,1.6-1.4,2.1s-1.3,0.7-2.1,0.7c-0.4,0-1.1,0-1.1-0.1v-1.9c0,0.1,0.5,0.1,0.8,0.1c0.4,0,0.7-0.1,1.1-0.4
			s0.5-0.6,0.7-1.2l0.1-0.5L74.2,6.5z"/>
		<path class="st1" d="M94.8,12.8c0,0.9-0.3,1.6-0.9,2s-1.6,0.7-2.8,0.7c-0.6,0-1.3,0-1.7-0.1S89,15.2,88,15v-2
			c1,0.2,1.1,0.4,1.6,0.5s1.1,0.2,1.5,0.2c0.9,0,1.3-0.3,1.3-0.8c0-0.2,0-0.3-0.2-0.5s-0.3-0.3-0.6-0.4s-0.7-0.3-1.1-0.5
			c-0.7-0.3-1.2-0.5-1.5-0.8c-0.3-0.2-0.5-0.5-0.7-0.8c-0.1-0.3-0.2-0.7-0.2-1.1c0-0.8,0.3-1.4,0.9-1.8c0.6-0.4,1.5-0.6,2.6-0.6
			c1.1,0,2.1,0.2,3.1,0.7L94,8.9c-0.4-0.2-0.8-0.3-1.2-0.5c-0.4-0.1-0.8-0.2-1.2-0.2c-0.7,0-1.1,0.2-1.1,0.6c0,0.2,0.1,0.4,0.3,0.6
			s0.7,0.4,1.5,0.7c0.7,0.3,1.2,0.5,1.5,0.8c0.3,0.2,0.6,0.5,0.7,0.8S94.8,12.3,94.8,12.8z"/>
		<path class="st1" d="M100.6,15.5c-1.4,0-2.5-0.4-3.3-1.2c-0.8-0.8-1.2-1.9-1.2-3.3c0-1.5,0.4-2.6,1.1-3.4c0.7-0.8,1.7-1.2,3-1.2
			c1.2,0,2.1,0.4,2.8,1.1s0.9,1.7,0.9,2.9v1.1h-5.4c0,1,0.2,1.2,0.6,1.6c0.4,0.4,0.9,0.6,1.6,0.6c0.5,0,1.2,0,1.6-0.2
			s0.6-0.3,1.6-0.5v1.8c-1,0.2-1,0.4-1.5,0.5S101.3,15.5,100.6,15.5z M100.3,8.2c-0.5,0-0.9-0.1-1.2,0.2s-0.5,1.1-0.5,1.1h3.3
			c0,0-0.2-0.8-0.5-1.1S100.8,8.2,100.3,8.2z"/>
		<path class="st1" d="M111.7,15.5l-0.5-1h-0.1c-0.4,0-0.8,0.7-1.2,0.9s-1,0.2-1.7,0.2c-0.8,0-1.5-0.3-2-0.8
			c-0.5-0.5-0.7-1.2-0.7-2.1c0-0.9,0.3-1.6,1-2.1c0.6-0.4,1.6-0.7,2.9-0.7l1.5-0.1V9.6c0-0.9-0.5-1.3-1.4-1.3
			c-0.7,0-1.5,0.2-2.5,0.6l-0.8-1.6c1-0.5,2.1-0.8,3.3-0.8c1.2,0,1.9,0.3,2.5,0.8c0.6,0.5,0.8,1.3,0.8,2.3v6H111.7z M111,11.3
			l-0.9,0c-0.7,0-1.2,0.1-1.5,0.4c-0.3,0.2-0.5,0.6-0.5,1c0,0.7,0.4,1,1.2,1c0.6,0,1-0.2,1.3-0.5c0.3-0.3,0.5-0.7,0.5-1.3V11.3z"/>
		<path class="st1" d="M121.9,12.8c0,0.9-0.3,1.6-0.9,2s-1.6,0.7-2.8,0.7c-0.6,0-1.3,0-1.8-0.1S116,15.2,115,15v-2
			c1,0.2,1.1,0.4,1.6,0.5s1.1,0.2,1.5,0.2c0.9,0,1.3-0.3,1.3-0.8c0-0.2,0-0.3-0.2-0.5s-0.3-0.3-0.6-0.4s-0.7-0.3-1.1-0.5
			c-0.7-0.3-1.2-0.5-1.5-0.8c-0.3-0.2-0.5-0.5-0.7-0.8c-0.1-0.3-0.2-0.7-0.2-1.1c0-0.8,0.3-1.4,0.9-1.8c0.6-0.4,1.5-0.6,2.6-0.6
			c1.1,0,2.1,0.2,3.1,0.7l-0.7,1.7c-0.4-0.2-0.8-0.3-1.2-0.5c-0.4-0.1-0.8-0.2-1.2-0.2c-0.7,0-1.1,0.2-1.1,0.6
			c0,0.2,0.1,0.4,0.3,0.6s0.7,0.4,1.5,0.7c0.7,0.3,1.2,0.5,1.5,0.8c0.3,0.2,0.6,0.5,0.7,0.8S121.9,12.3,121.9,12.8z"/>
		<path class="st1" d="M131.7,11c0,1.4-0.4,2.5-1.1,3.3c-0.8,0.8-1.8,1.2-3.1,1.2c-0.8,0-1.6-0.2-2.2-0.6s-1.1-0.9-1.5-1.6
			s-0.5-1.5-0.5-2.4c0-1.4,0.4-2.5,1.1-3.3c0.7-0.8,1.8-1.2,3.1-1.2c0.8,0,1.6,0.2,2.2,0.5c0.6,0.4,1.1,0.9,1.5,1.6
			C131.5,9.3,131.7,10.1,131.7,11z M125.7,11c0,0.9,0.1,1.5,0.4,2c0.3,0.4,0.7,0.7,1.4,0.7c0.6,0,1.1-0.2,1.4-0.7
			c0.3-0.4,0.4-1.1,0.4-2c0-0.9-0.1-1.5-0.4-1.9c-0.3-0.4-0.7-0.6-1.4-0.6c-0.6,0-1.1,0.2-1.4,0.6S125.7,10.1,125.7,11z"/>
		<path class="st1" d="M142,15.5h-3v-5.3c0-0.6,0.1-1.1-0.2-1.4c-0.2-0.3-0.5-0.5-1-0.5c-0.7,0-1.1,0.2-1.4,0.7s-0.4,1.2-0.4,2.2
			v4.3h-2v-9h1.5l0.3,1h0.1c0.3,0,0.6-0.6,1.1-0.8c0.5-0.2,1-0.3,1.6-0.3c1,0,1.9,0.3,2.4,0.9c0.5,0.5,0.9,1.4,0.9,2.4V15.5z"/>
		<path class="st1" d="M150.3,12.8c0,0.9-0.3,1.6-0.9,2s-1.6,0.7-2.8,0.7c-0.6,0-1,0-1.5-0.1S144,15.2,144,15v-2
			c0,0.2,0.8,0.4,1.3,0.5s1,0.2,1.4,0.2c0.9,0,1.3-0.3,1.3-0.8c0-0.2-0.1-0.3-0.2-0.5s-0.3-0.3-0.6-0.4s-0.7-0.3-1.1-0.5
			c-0.7-0.3-1.2-0.5-1.5-0.8c-0.3-0.2-0.5-0.5-0.7-0.8c-0.1-0.3-0.2-0.7-0.2-1.1c0-0.8,0.3-1.4,0.9-1.8c0.6-0.4,1.5-0.6,2.6-0.6
			c1.1,0,2.1,0.2,3.1,0.7l-0.7,1.7c-0.4-0.2-0.8-0.3-1.2-0.5c-0.4-0.1-0.8-0.2-1.2-0.2c-0.7,0-1.1,0.2-1.1,0.6
			c0,0.2,0.1,0.4,0.3,0.6s0.7,0.4,1.5,0.7c0.7,0.3,1.2,0.5,1.5,0.8c0.3,0.2,0.6,0.5,0.7,0.8S150.3,12.3,150.3,12.8z"/>
	</g>
</g>
<g>
	<polygon class="st2" points="200.1,89.5 194.1,89.5 201.7,76 202.3,74.5 197.4,74.5 203.4,64.4 209.3,54.2 215.3,64.4 221.2,74.5 
		216.3,74.5 216.9,76 224.5,89.5 219.1,89.5 227.2,103.4 209.6,103.3 192,103.4 	"/>
	<line class="st2" x1="210" y1="103.5" x2="210" y2="118.5"/>
</g>
<g>
	<line class="st3" x1="126.9" y1="86.7" x2="127.3" y2="122.5"/>
	<line class="st3" x1="144.9" y1="105.1" x2="109.2" y2="105.5"/>
	<line class="st3" x1="116.6" y1="94.7" x2="138.6" y2="116.2"/>
	<line class="st3" x1="137.8" y1="94.5" x2="116.3" y2="116.5"/>
	<circle class="st3" cx="127.3" cy="105.5" r="3.3"/>
	<g>
		<line class="st3" x1="130.1" y1="90.1" x2="127" y2="93.2"/>
		<line class="st3" x1="130" y1="87.6" x2="127" y2="90.7"/>
		<line class="st3" x1="123.6" y1="90.1" x2="126.7" y2="93.2"/>
		<line class="st3" x1="123.5" y1="87.7" x2="126.7" y2="90.7"/>
	</g>
	<g>
		<line class="st3" x1="123.9" y1="118.8" x2="126.9" y2="115.7"/>
		<line class="st3" x1="123.9" y1="121.3" x2="126.9" y2="118.2"/>
		<line class="st3" x1="130.4" y1="118.8" x2="127.3" y2="115.7"/>
		<line class="st3" x1="130.4" y1="121.2" x2="127.3" y2="118.2"/>
	</g>
	<g>
		<line class="st3" x1="111.9" y1="102.4" x2="115" y2="105.4"/>
		<line class="st3" x1="109.5" y1="102.4" x2="112.6" y2="105.5"/>
		<line class="st3" x1="112" y1="108.9" x2="115" y2="105.8"/>
		<line class="st3" x1="109.5" y1="108.9" x2="112.6" y2="105.8"/>
	</g>
	<g>
		<line class="st3" x1="140.2" y1="108.6" x2="137.1" y2="105.5"/>
		<line class="st3" x1="142.6" y1="108.6" x2="139.5" y2="105.5"/>
		<line class="st3" x1="140.1" y1="102.1" x2="137.1" y2="105.2"/>
		<line class="st3" x1="142.6" y1="102.1" x2="139.5" y2="105.2"/>
	</g>
	<circle class="st3" cx="114.6" cy="118.5" r="0.9"/>
	<circle class="st3" cx="114.8" cy="93.3" r="0.9"/>
	<circle class="st3" cx="139.4" cy="93.4" r="0.9"/>
	<circle class="st3" cx="140.3" cy="117.9" r="0.9"/>
</g>
<g>
	<line class="st4" x1="161.3" y1="53.3" x2="161.6" y2="89.1"/>
	<line class="st4" x1="179.3" y1="71.7" x2="143.6" y2="72.1"/>
	<line class="st4" x1="151" y1="61.3" x2="173" y2="82.8"/>
	<line class="st4" x1="172.2" y1="61.1" x2="150.7" y2="83.1"/>
	<circle class="st4" cx="161.7" cy="72.1" r="3.3"/>
	<g>
		<line class="st4" x1="164.4" y1="56.7" x2="161.4" y2="59.8"/>
		<line class="st4" x1="164.4" y1="54.2" x2="161.4" y2="57.3"/>
		<line class="st4" x1="157.9" y1="56.7" x2="161.1" y2="59.8"/>
		<line class="st4" x1="157.9" y1="54.3" x2="161" y2="57.3"/>
	</g>
	<g>
		<line class="st4" x1="158.2" y1="85.4" x2="161.3" y2="82.3"/>
		<line class="st4" x1="158.3" y1="87.9" x2="161.3" y2="84.8"/>
		<line class="st4" x1="164.8" y1="85.4" x2="161.6" y2="82.3"/>
		<line class="st4" x1="164.8" y1="87.8" x2="161.7" y2="84.8"/>
	</g>
	<g>
		<line class="st4" x1="146.3" y1="69" x2="149.4" y2="72"/>
		<line class="st4" x1="143.8" y1="69" x2="147" y2="72.1"/>
		<line class="st4" x1="146.4" y1="75.5" x2="149.4" y2="72.4"/>
		<line class="st4" x1="143.9" y1="75.5" x2="147" y2="72.4"/>
	</g>
	<g>
		<line class="st4" x1="174.6" y1="75.2" x2="171.4" y2="72.1"/>
		<line class="st4" x1="177" y1="75.2" x2="173.9" y2="72.1"/>
		<line class="st4" x1="174.5" y1="68.7" x2="171.4" y2="71.8"/>
		<line class="st4" x1="177" y1="68.7" x2="173.9" y2="71.8"/>
	</g>
	<circle class="st4" cx="149" cy="85.1" r="0.9"/>
	<circle class="st4" cx="149.2" cy="59.9" r="0.9"/>
	<circle class="st4" cx="173.8" cy="60" r="0.9"/>
	<circle class="st4" cx="174.7" cy="84.5" r="0.9"/>
</g>
</svg>