<!-- Generator: Adobe Illustrator 19.0.0, SVG Export Plug-In  -->
<svg version="1.1"
	 xmlns="http://www.w3.org/2000/svg" xmlns:xlink="http://www.w3.org/1999/xlink" xmlns:a="http://ns.adobe.com/AdobeSVGViewerExtensions/3.0/"
	 x="0px" y="0px" width="281px" height="66px" viewBox="0 0 281 66" style="enable-background:new 0 0 281 66;"
	 xml:space="preserve">
<style type="text/css">
	.st0{fill:none;stroke:#33CCCC;stroke-width:2;stroke-linecap:round;stroke-linejoin:round;stroke-miterlimit:10;}
	.st1{fill:none;stroke:#FFFFFF;stroke-width:2;stroke-linecap:round;stroke-linejoin:round;stroke-miterlimit:10;}
	.st2{fill:none;stroke:#FF6633;stroke-width:2;stroke-miterlimit:10;}
	.st3{fill:#FF6633;}
	.st4{fill:#FFFFFF;}
	.st5{fill:#FFFFFF;stroke:#FFFFFF;stroke-width:0.7;stroke-miterlimit:10;}
</style>
<defs>
</defs>
<g id="XMLID_91_">
	<polygon id="XMLID_96_" class="st0" points="267,65 267,54 278.9,54 	"/>
	<rect id="XMLID_95_" x="231" y="7" class="st1" width="49" height="14"/>
	<path id="XMLID_94_" class="st1" d="M246,8.1c0,1.1-0.9,1.9-1.9,1.9h-0.2c-1.1,0-1.9-0.9-1.9-1.9V2.9c0-1.1,0.9-1.9,1.9-1.9h0.2
		c1.1,0,1.9,0.9,1.9,1.9V8.1z"/>
	<path id="XMLID_93_" class="st1" d="M269,8.1c0,1.1-0.9,1.9-1.9,1.9h-0.2c-1.1,0-1.9-0.9-1.9-1.9V2.9c0-1.1,0.9-1.9,1.9-1.9h0.2
		c1.1,0,1.9,0.9,1.9,1.9V8.1z"/>
	<rect id="XMLID_92_" x="231" y="21" class="st2" width="49" height="44"/>
</g>
<circle id="XMLID_90_" class="st3" cx="8.4" cy="20.8" r="8.4"/>
<g id="XMLID_87_">
	<path id="XMLID_88_" class="st4" d="M9,25H7v-4.9l0.2-0.8l0.1-0.9C7,18.7,6.9,18.9,6.8,19l-1,0.8l-0.9-1.3L7.7,16H9V25z"/>
</g>
<g id="XMLID_15_">
	<path id="XMLID_82_" class="st5" d="M38.2,20c0,1.9-0.5,3.3-1.5,4.3c-1,1-2.5,1.5-4.4,1.5h-3.2V14.4h3.5c1.8,0,3.2,0.5,4.1,1.5
		C37.7,16.8,38.2,18.2,38.2,20z M36.7,20c0-1.5-0.4-2.6-1.1-3.3c-0.7-0.7-1.8-1.1-3.2-1.1h-1.9v9H32C35.1,24.5,36.7,23,36.7,20z"/>
	<path id="XMLID_78_" class="st5" d="M40.4,14.9c0-0.3,0.1-0.5,0.2-0.7c0.2-0.1,0.4-0.2,0.6-0.2c0.2,0,0.4,0.1,0.6,0.2
		s0.2,0.4,0.2,0.7c0,0.3-0.1,0.5-0.2,0.7c-0.2,0.1-0.4,0.2-0.6,0.2c-0.2,0-0.4-0.1-0.6-0.2C40.5,15.4,40.4,15.2,40.4,14.9z
		 M41.9,25.8h-1.4v-8.6h1.4V25.8z"/>
	<path id="XMLID_75_" class="st5" d="M54.1,25.8l-0.3-1.2h-0.1c-0.4,0.5-0.9,0.9-1.3,1.1c-0.4,0.2-1,0.3-1.6,0.3
		c-0.8,0-1.5-0.2-2-0.7c-0.5-0.4-0.7-1.1-0.7-1.9c0-1.7,1.4-2.7,4.1-2.7l1.5-0.1v-0.5c0-0.7-0.1-1.1-0.4-1.4
		c-0.3-0.3-0.7-0.5-1.4-0.5c-0.5,0-0.9,0.1-1.3,0.2c-0.4,0.1-0.8,0.3-1.1,0.5l-0.4-1.1c0.4-0.2,0.9-0.4,1.4-0.5
		c0.5-0.1,1-0.2,1.5-0.2c1,0,1.8,0.2,2.3,0.7c0.5,0.5,0.8,1.2,0.8,2.2v5.8H54.1z M51.2,24.8c0.8,0,1.4-0.2,1.9-0.6
		c0.5-0.4,0.7-1,0.7-1.8v-0.8l-1.3,0.1c-1,0-1.7,0.2-2.2,0.5c-0.5,0.3-0.7,0.7-0.7,1.3c0,0.4,0.1,0.8,0.4,1
		C50.3,24.7,50.7,24.8,51.2,24.8z"/>
	<path id="XMLID_72_" class="st5" d="M64.8,25.8l-1.5-4.8c-0.1-0.4-0.3-1.2-0.6-2.3h-0.1c-0.2,1-0.4,1.8-0.6,2.3l-1.5,4.8H59
		l-2.4-8.6h1.5c0.5,2.1,1,3.7,1.2,4.8c0.3,1.1,0.5,1.9,0.5,2.3h0.1l0.1-0.5c0.2-0.7,0.3-1.4,0.5-1.8l1.5-4.8h1.5L65,22
		c0.1,0.2,0.1,0.4,0.2,0.6c0.1,0.2,0.1,0.4,0.2,0.6c0.1,0.2,0.1,0.4,0.1,0.6c0,0.2,0.1,0.4,0.1,0.5h0.1c0-0.4,0.2-1.2,0.6-2.5
		l1.2-4.6h1.4l-2.4,8.6H64.8z"/>
	<path id="XMLID_69_" class="st5" d="M75.7,25.8l-0.3-1.2h-0.1c-0.4,0.5-0.9,0.9-1.3,1.1c-0.4,0.2-1,0.3-1.6,0.3
		c-0.8,0-1.5-0.2-2-0.7c-0.5-0.4-0.7-1.1-0.7-1.9c0-1.7,1.4-2.7,4.1-2.7l1.5-0.1v-0.5c0-0.7-0.1-1.1-0.4-1.4
		c-0.3-0.3-0.7-0.5-1.4-0.5c-0.5,0-0.9,0.1-1.3,0.2c-0.4,0.1-0.8,0.3-1.1,0.5l-0.4-1.1c0.4-0.2,0.9-0.4,1.4-0.5
		c0.5-0.1,1-0.2,1.5-0.2c1,0,1.8,0.2,2.3,0.7c0.5,0.5,0.8,1.2,0.8,2.2v5.8H75.7z M72.8,24.8c0.8,0,1.4-0.2,1.9-0.6
		c0.5-0.4,0.7-1,0.7-1.8v-0.8L74,21.6c-1,0-1.7,0.2-2.2,0.5c-0.5,0.3-0.7,0.7-0.7,1.3c0,0.4,0.1,0.8,0.4,1
		C71.9,24.7,72.3,24.8,72.8,24.8z"/>
	<path id="XMLID_67_" class="st5" d="M80.8,25.8h-1.4V13.6h1.4V25.8z"/>
	<path id="XMLID_65_" class="st5" d="M85.1,23.9l0.1,0.2c-0.3,1.1-0.7,2.4-1.4,3.7h-1c0.3-1.3,0.6-2.6,0.8-3.9H85.1z"/>
	<path id="XMLID_63_" class="st5" d="M94.8,24.8c0.2,0,0.4,0,0.6-0.1c0.2,0,0.4-0.1,0.6-0.1v1.1c-0.1,0.1-0.3,0.1-0.6,0.2
		s-0.6,0.1-0.8,0.1c-1.7,0-2.5-0.9-2.5-2.6v-5h-1.2v-0.7l1.2-0.6l0.6-1.8h0.8v2h2.5v1.1h-2.5v5c0,0.5,0.1,0.9,0.4,1.1
		C94,24.7,94.4,24.8,94.8,24.8z"/>
	<path id="XMLID_60_" class="st5" d="M101.3,25.9c-1.3,0-2.3-0.4-3-1.2c-0.7-0.8-1.1-1.9-1.1-3.2c0-1.4,0.3-2.5,1-3.3
		c0.7-0.8,1.6-1.2,2.8-1.2c1.1,0,1.9,0.3,2.6,1s1,1.6,1,2.8v0.9h-5.9c0,1,0.3,1.7,0.7,2.2c0.5,0.5,1.1,0.8,2,0.8
		c0.5,0,0.9,0,1.3-0.1c0.4-0.1,0.9-0.2,1.4-0.5v1.2c-0.5,0.2-0.9,0.3-1.3,0.4C102.4,25.9,101.9,25.9,101.3,25.9z M101,18.2
		c-0.7,0-1.2,0.2-1.6,0.6c-0.4,0.4-0.6,1-0.7,1.8h4.4c0-0.8-0.2-1.4-0.6-1.8C102.2,18.4,101.6,18.2,101,18.2z"/>
	<path id="XMLID_58_" class="st5" d="M112.6,25.8v-5.5c0-0.7-0.2-1.2-0.5-1.6c-0.3-0.3-0.8-0.5-1.5-0.5c-0.9,0-1.5,0.2-1.9,0.7
		c-0.4,0.5-0.6,1.3-0.6,2.4v4.4h-1.4v-8.6h1.1l0.2,1.2h0.1c0.3-0.4,0.6-0.7,1.1-1c0.5-0.2,1-0.3,1.6-0.3c1.1,0,1.8,0.3,2.3,0.8
		c0.5,0.5,0.8,1.3,0.8,2.4v5.6H112.6z"/>
	<path id="XMLID_55_" class="st5" d="M122.3,25.7l0-1.1h-0.1c-0.6,0.9-1.5,1.3-2.7,1.3c-1.1,0-2-0.4-2.6-1.2
		c-0.6-0.8-0.9-1.9-0.9-3.3c0-1.4,0.3-2.5,0.9-3.3c0.6-0.8,1.5-1.2,2.6-1.2c1.2,0,2.1,0.4,2.7,1.3h0.1l0.2-1.1h1.1v8.7
		c0,1.2-0.3,2.2-0.9,2.8c-0.6,0.6-1.6,0.9-2.9,0.9c-1.3,0-2.3-0.2-3.1-0.5v-1.3c0.8,0.4,1.9,0.7,3.2,0.7c0.7,0,1.3-0.2,1.7-0.6
		c0.4-0.4,0.6-1,0.6-1.8V25.7z M119.9,24.8c0.9,0,1.5-0.2,1.9-0.7c0.4-0.5,0.6-1.2,0.6-2.2v-0.3c0-1.1-0.2-2-0.6-2.5
		c-0.4-0.5-1-0.8-1.9-0.8c-0.7,0-1.3,0.3-1.7,0.9c-0.4,0.6-0.6,1.4-0.6,2.4c0,1.1,0.2,1.9,0.6,2.4C118.5,24.5,119.1,24.8,119.9,24.8
		z"/>
	<path id="XMLID_52_" class="st5" d="M131.8,25.8l-0.3-1.2h-0.1c-0.4,0.5-0.9,0.9-1.3,1.1c-0.4,0.2-1,0.3-1.6,0.3
		c-0.8,0-1.5-0.2-2-0.7c-0.5-0.4-0.7-1.1-0.7-1.9c0-1.7,1.4-2.7,4.1-2.7l1.5-0.1v-0.5c0-0.7-0.1-1.1-0.4-1.4
		c-0.3-0.3-0.7-0.5-1.4-0.5c-0.5,0-0.9,0.1-1.3,0.2c-0.4,0.1-0.8,0.3-1.1,0.5l-0.4-1.1c0.4-0.2,0.9-0.4,1.4-0.5
		c0.5-0.1,1-0.2,1.5-0.2c1,0,1.8,0.2,2.3,0.7c0.5,0.5,0.8,1.2,0.8,2.2v5.8H131.8z M128.9,24.8c0.8,0,1.4-0.2,1.9-0.6
		c0.5-0.4,0.7-1,0.7-1.8v-0.8l-1.3,0.1c-1,0-1.7,0.2-2.2,0.5c-0.5,0.3-0.7,0.7-0.7,1.3c0,0.4,0.1,0.8,0.4,1
		C128,24.7,128.4,24.8,128.9,24.8z"/>
	<path id="XMLID_50_" class="st5" d="M141.3,25.8v-5.5c0-0.7-0.2-1.2-0.5-1.6c-0.3-0.3-0.8-0.5-1.5-0.5c-0.9,0-1.5,0.2-1.9,0.7
		c-0.4,0.5-0.6,1.3-0.6,2.4v4.4h-1.4V13.6h1.4v3.6c0,0.5,0,0.9-0.1,1.2h0.1c0.3-0.4,0.6-0.7,1.1-1s1-0.4,1.6-0.4
		c1,0,1.8,0.2,2.4,0.7c0.5,0.5,0.8,1.3,0.8,2.4v5.6H141.3z"/>
	<path id="XMLID_47_" class="st5" d="M152.5,25.9c-1.1,0-2-0.4-2.6-1.2c-0.6-0.8-0.9-1.9-0.9-3.3c0-1.4,0.3-2.5,0.9-3.3
		c0.6-0.8,1.5-1.2,2.6-1.2c1.2,0,2,0.4,2.7,1.3h0.1c0-0.1,0-0.3-0.1-0.6c0-0.3,0-0.5,0-0.6v-3.4h1.4v12.2h-1.1l-0.2-1.1h-0.1
		C154.6,25.5,153.7,25.9,152.5,25.9z M152.7,24.8c0.9,0,1.5-0.2,1.9-0.7c0.4-0.5,0.6-1.2,0.6-2.3v-0.3c0-1.2-0.2-2-0.6-2.6
		s-1-0.8-1.9-0.8c-0.7,0-1.3,0.3-1.7,0.9c-0.4,0.6-0.6,1.4-0.6,2.5c0,1.1,0.2,1.9,0.6,2.4C151.4,24.5,152,24.8,152.7,24.8z"/>
	<path id="XMLID_44_" class="st5" d="M164.6,25.8l-0.3-1.2h-0.1c-0.4,0.5-0.9,0.9-1.3,1.1c-0.4,0.2-1,0.3-1.6,0.3
		c-0.8,0-1.5-0.2-2-0.7c-0.5-0.4-0.7-1.1-0.7-1.9c0-1.7,1.4-2.7,4.1-2.7l1.5-0.1v-0.5c0-0.7-0.1-1.1-0.4-1.4
		c-0.3-0.3-0.7-0.5-1.4-0.5c-0.5,0-0.9,0.1-1.3,0.2c-0.4,0.1-0.8,0.3-1.1,0.5l-0.4-1.1c0.4-0.2,0.9-0.4,1.4-0.5
		c0.5-0.1,1-0.2,1.5-0.2c1,0,1.8,0.2,2.3,0.7c0.5,0.5,0.8,1.2,0.8,2.2v5.8H164.6z M161.7,24.8c0.8,0,1.4-0.2,1.9-0.6
		c0.5-0.4,0.7-1,0.7-1.8v-0.8l-1.3,0.1c-1,0-1.7,0.2-2.2,0.5c-0.5,0.3-0.7,0.7-0.7,1.3c0,0.4,0.1,0.8,0.4,1
		C160.8,24.7,161.2,24.8,161.7,24.8z"/>
	<path id="XMLID_42_" class="st5" d="M174.1,25.8v-5.5c0-0.7-0.2-1.2-0.5-1.6c-0.3-0.3-0.8-0.5-1.5-0.5c-0.9,0-1.5,0.2-1.9,0.7
		c-0.4,0.5-0.6,1.3-0.6,2.4v4.4h-1.4v-8.6h1.1l0.2,1.2h0.1c0.3-0.4,0.6-0.7,1.1-1c0.5-0.2,1-0.3,1.6-0.3c1.1,0,1.8,0.3,2.3,0.8
		c0.5,0.5,0.8,1.3,0.8,2.4v5.6H174.1z"/>
	<path id="XMLID_39_" class="st5" d="M34.2,42.7l-0.3-1.2h-0.1c-0.4,0.5-0.9,0.9-1.3,1.1c-0.4,0.2-1,0.3-1.6,0.3
		c-0.8,0-1.5-0.2-2-0.7c-0.5-0.4-0.7-1.1-0.7-1.9c0-1.7,1.4-2.7,4.1-2.7l1.5-0.1V37c0-0.7-0.1-1.1-0.4-1.4c-0.3-0.3-0.7-0.5-1.4-0.5
		c-0.5,0-0.9,0.1-1.3,0.2c-0.4,0.1-0.8,0.3-1.1,0.5l-0.4-1.1c0.4-0.2,0.9-0.4,1.4-0.5c0.5-0.1,1-0.2,1.5-0.2c1,0,1.8,0.2,2.3,0.7
		c0.5,0.5,0.8,1.2,0.8,2.2v5.8H34.2z M31.3,41.7c0.8,0,1.4-0.2,1.9-0.6c0.5-0.4,0.7-1,0.7-1.8v-0.8l-1.3,0.1c-1,0-1.7,0.2-2.2,0.5
		c-0.5,0.3-0.7,0.7-0.7,1.3c0,0.4,0.1,0.8,0.4,1C30.4,41.6,30.8,41.7,31.3,41.7z"/>
	<path id="XMLID_37_" class="st5" d="M39.2,38.2l0.5-0.6l0.5-0.7l2.7-2.9h1.6l-3.5,3.7l3.7,4.9h-1.7l-3-4l-1,0.9v3.1h-1.4V30.5h1.4
		v6.4V38.2L39.2,38.2z"/>
	<path id="XMLID_35_" class="st5" d="M52.2,42.7v-5.5c0-0.7-0.2-1.2-0.5-1.6c-0.3-0.3-0.8-0.5-1.5-0.5c-0.9,0-1.5,0.2-1.9,0.7
		c-0.4,0.5-0.6,1.3-0.6,2.4v4.4h-1.4V30.5h1.4v3.6c0,0.5,0,0.9-0.1,1.2h0.1c0.3-0.4,0.6-0.7,1.1-1s1-0.4,1.6-0.4
		c1,0,1.8,0.2,2.4,0.7c0.5,0.5,0.8,1.3,0.8,2.4v5.6H52.2z"/>
	<path id="XMLID_32_" class="st5" d="M56.2,31.8c0-0.3,0.1-0.5,0.2-0.7c0.2-0.1,0.4-0.2,0.6-0.2c0.2,0,0.4,0.1,0.6,0.2
		s0.2,0.4,0.2,0.7c0,0.3-0.1,0.5-0.2,0.7c-0.2,0.1-0.4,0.2-0.6,0.2c-0.2,0-0.4-0.1-0.6-0.2C56.2,32.3,56.2,32.1,56.2,31.8z
		 M57.7,42.7h-1.4v-8.6h1.4V42.7z"/>
	<path id="XMLID_30_" class="st5" d="M64.4,33.9c0.4,0,0.7,0,1,0.1l-0.2,1.3c-0.3-0.1-0.6-0.1-0.9-0.1c-0.5,0-0.9,0.1-1.3,0.4
		c-0.4,0.3-0.7,0.6-0.9,1c-0.2,0.4-0.3,0.9-0.3,1.5v4.6h-1.4v-8.6h1.2l0.2,1.6h0.1c0.3-0.6,0.7-1,1.2-1.3
		C63.4,34.1,63.9,33.9,64.4,33.9z"/>
	<path id="XMLID_27_" class="st5" d="M75.2,33.9c1.1,0,2,0.4,2.6,1.2c0.6,0.8,0.9,1.9,0.9,3.3c0,1.4-0.3,2.5-0.9,3.3
		s-1.5,1.2-2.6,1.2c-0.6,0-1.1-0.1-1.5-0.3s-0.8-0.5-1.1-0.9h-0.1c-0.2,0.6-0.3,1-0.3,1.1h-1V30.5h1.4v3c0,0.6,0,1.2-0.1,1.8h0.1
		C73.1,34.4,74,33.9,75.2,33.9z M75,35.1c-0.9,0-1.5,0.2-1.9,0.7c-0.4,0.5-0.6,1.3-0.6,2.5v0.1c0,1.2,0.2,2,0.6,2.5
		c0.4,0.5,1,0.8,1.9,0.8c0.8,0,1.3-0.3,1.7-0.8c0.4-0.6,0.6-1.4,0.6-2.4c0-1.1-0.2-1.9-0.6-2.4C76.4,35.4,75.8,35.1,75,35.1z"/>
	<path id="XMLID_25_" class="st5" d="M82.3,34.1v5.5c0,0.7,0.2,1.2,0.5,1.5c0.3,0.3,0.8,0.5,1.4,0.5c0.9,0,1.5-0.2,1.9-0.7
		c0.4-0.5,0.6-1.3,0.6-2.4v-4.5h1.4v8.6H87l-0.2-1.1h-0.1c-0.3,0.4-0.6,0.7-1.1,1s-1,0.3-1.6,0.3c-1,0-1.8-0.2-2.3-0.7
		c-0.5-0.5-0.8-1.3-0.8-2.4v-5.6H82.3z"/>
	<path id="XMLID_23_" class="st5" d="M92.3,42.7h-1.4V30.5h1.4V42.7z"/>
	<path id="XMLID_20_" class="st5" d="M100.3,42.7l-0.3-1.2H100c-0.4,0.5-0.9,0.9-1.3,1.1c-0.4,0.2-1,0.3-1.6,0.3
		c-0.8,0-1.5-0.2-2-0.7c-0.5-0.4-0.7-1.1-0.7-1.9c0-1.7,1.4-2.7,4.1-2.7l1.5-0.1V37c0-0.7-0.1-1.1-0.4-1.4c-0.3-0.3-0.7-0.5-1.4-0.5
		c-0.5,0-0.9,0.1-1.3,0.2c-0.4,0.1-0.8,0.3-1.1,0.5l-0.4-1.1c0.4-0.2,0.9-0.4,1.4-0.5c0.5-0.1,1-0.2,1.5-0.2c1,0,1.8,0.2,2.3,0.7
		c0.5,0.5,0.8,1.2,0.8,2.2v5.8H100.3z M97.4,41.7c0.8,0,1.4-0.2,1.9-0.6c0.5-0.4,0.7-1,0.7-1.8v-0.8l-1.3,0.1c-1,0-1.7,0.2-2.2,0.5
		c-0.5,0.3-0.7,0.7-0.7,1.3c0,0.4,0.1,0.8,0.4,1C96.5,41.6,96.9,41.7,97.4,41.7z"/>
	<path id="XMLID_18_" class="st5" d="M109.8,42.7v-5.5c0-0.7-0.2-1.2-0.5-1.6c-0.3-0.3-0.8-0.5-1.5-0.5c-0.9,0-1.5,0.2-1.9,0.7
		c-0.4,0.5-0.6,1.3-0.6,2.4v4.4H104v-8.6h1.1l0.2,1.2h0.1c0.3-0.4,0.6-0.7,1.1-1c0.5-0.2,1-0.3,1.6-0.3c1.1,0,1.8,0.3,2.3,0.8
		c0.5,0.5,0.8,1.3,0.8,2.4v5.6H109.8z"/>
	<path id="XMLID_16_" class="st5" d="M113.7,41.8c0-0.3,0.1-0.6,0.3-0.8c0.2-0.2,0.4-0.3,0.7-0.3c0.3,0,0.6,0.1,0.7,0.3
		c0.2,0.2,0.3,0.4,0.3,0.8c0,0.3-0.1,0.6-0.3,0.8c-0.2,0.2-0.4,0.3-0.7,0.3c-0.3,0-0.5-0.1-0.7-0.3S113.7,42.1,113.7,41.8z"/>
</g>
</svg>