<?xml version="1.0" encoding="utf-8"?>
<!-- Generator: Adobe Illustrator 19.0.0, SVG Export Plug-In . SVG Version: 6.00 Build 0)  -->
<svg version="1.1" id="Layer_1" xmlns="http://www.w3.org/2000/svg" xmlns:xlink="http://www.w3.org/1999/xlink" x="0px" y="0px"
	 viewBox="0 0 162 166" style="enable-background:new 0 0 162 166;" xml:space="preserve">
<style type="text/css">
	.st0{fill:#5F7FBF;}
	.st1{fill:#F8B7A7;}
	.st2{fill:#FFFFFF;}
	.st3{fill:#332F64;}
	.st4{fill:none;stroke:#313D56;stroke-miterlimit:10;}
	.st5{fill:#EE2425;}
	.st6{fill:#CC2127;}
	.st7{fill:#25215A;}
</style>
<g id="XMLID_52_">
	<rect id="XMLID_15_" class="st0" width="162" height="166"/>
	<rect id="XMLID_9_" x="34" y="36" class="st1" width="86" height="57"/>
	<circle id="XMLID_67_" class="st0" cx="120.1" cy="44.1" r="3.4"/>
	<circle id="XMLID_66_" class="st0" cx="120.1" cy="54.1" r="3.4"/>
	<circle id="XMLID_65_" class="st0" cx="120.1" cy="65.3" r="4.8"/>
	<circle id="XMLID_64_" class="st0" cx="120.1" cy="82" r="4.8"/>
	<circle id="XMLID_63_" class="st2" cx="14.2" cy="60.2" r="4.5"/>
	<path id="XMLID_1_" class="st2" d="M25,52.4c0,0.9-0.7,1.6-1.6,1.6h-0.7c-0.9,0-1.6-0.7-1.6-1.6V40.6c0-0.9,0.7-1.6,1.6-1.6h0.7
		c0.9,0,1.6,0.7,1.6,1.6V52.4z"/>
	<path id="XMLID_8_" class="st2" d="M29,46.1c0,1.1-0.9,1.9-1.9,1.9h-9.1c-1.1,0-1.9-0.9-1.9-1.9v-0.1c0-1.1,0.9-1.9,1.9-1.9h9.1
		c1.1,0,1.9,0.9,1.9,1.9V46.1z"/>
	<path id="XMLID_7_" class="st3" d="M103,124.8c0,5.1-4.1,9.2-9.2,9.2H18.2c-5.1,0-9.2-4.1-9.2-9.2V84.2c0-5.1,4.1-9.2,9.2-9.2h75.6
		c5.1,0,9.2,4.1,9.2,9.2V124.8z"/>
	<path id="XMLID_6_" class="st4" d="M107.5,12.2c-10,0-18,9.3-18,20.9v44.5h36V33C125.5,21.5,117.5,12.2,107.5,12.2z"/>
	<path id="XMLID_5_" class="st4" d="M120.5,11.3c-11.5,0-21,9.3-21,20.9v44.3h42V32.2C141.5,20.6,132,11.3,120.5,11.3z"/>
	<rect id="XMLID_4_" x="77" y="54" class="st5" width="57" height="88"/>
	<rect id="XMLID_3_" x="134" y="54" class="st6" width="15" height="88"/>
	<circle id="XMLID_55_" class="st6" cx="90.6" cy="59.5" r="2.7"/>
	<circle id="XMLID_54_" class="st6" cx="124.6" cy="60.5" r="2.7"/>
	<rect id="XMLID_2_" x="9" y="111" class="st7" width="68" height="11"/>
</g>
</svg>
