<?xml version="1.0" encoding="utf-8"?>
<!-- Generator: Adobe Illustrator 19.0.0, SVG Export Plug-In . SVG Version: 6.00 Build 0)  -->
<svg version="1.1" id="Layer_1" xmlns="http://www.w3.org/2000/svg" xmlns:xlink="http://www.w3.org/1999/xlink" x="0px" y="0px"
	 viewBox="0 0 161 165.6" style="enable-background:new 0 0 161 165.6;" xml:space="preserve">
<style type="text/css">
	.st0{fill:#DEDBDC;}
	.st1{fill:#EDEDEB;}
	.st2{fill:#0F0B0E;}
	.st3{clip-path:url(#SVGID_2_);fill:#58290E;}
	.st4{fill:#E2914F;}
	.st5{fill:#C4743B;}
	.st6{fill:#D3D3CF;}
</style>
<rect y="0" class="st0" width="161" height="165.6"/>
<rect x="36" y="12.6" class="st1" width="87.7" height="105"/>
<g>
	<path class="st2" d="M68.4,36.1l-0.6,1.2v4h-2V28.4h2V34l2.7-5.6h2l-2.8,5.8l2.8,7.2h-2.1L68.4,36.1z"/>
	<path class="st2" d="M75.4,33.8h2.8v1.8h-2.8v3.8h3.5v1.8h-5.5V28.4h5.5v1.8h-3.5V33.8z"/>
	<path class="st2" d="M82.2,33.8H85v1.8h-2.8v3.8h3.5v1.8h-5.5V28.4h5.5v1.8h-3.5V33.8z"/>
	<path class="st2" d="M92.9,31.5v1.7c0,2.1-1,3.2-3,3.2h-1v4.9h-2V28.4h3C92,28.4,92.9,29.5,92.9,31.5z M89,30.2v4.4h1
		c0.6,0,1-0.3,1-1.2v-1.9c0-0.9-0.4-1.2-1-1.2H89z"/>
	<path class="st2" d="M70.2,54.9v1.7c0,2.1-1,3.2-3,3.2c-2,0-3-1.2-3-3.2v-6.7c0-2.1,1-3.3,3-3.3c2,0,3,1.2,3,3.3v1.3h-1.9v-1.4
		c0-0.9-0.4-1.3-1.1-1.3c-0.6,0-1.1,0.4-1.1,1.3v7c0,0.9,0.4,1.3,1.1,1.3c0.6,0,1.1-0.3,1.1-1.3v-1.8H70.2z"/>
	<path class="st2" d="M78,59.7h-2l-0.4-2.3h-2.5l-0.4,2.3h-1.9L73,46.8h3L78,59.7z M73.4,55.6h2l-1-6.5L73.4,55.6z"/>
	<path class="st2" d="M79,46.8h2v11.1h3.3v1.8H79V46.8z"/>
	<path class="st2" d="M89.5,56l1.4-9.2h2.8v12.9h-1.9v-9.3l-1.4,9.3h-1.9L87,50.6v9.1h-1.8V46.8h2.8L89.5,56z"/>
	<path class="st2" d="M74.9,78.2h-2l-0.4-2.3H70l-0.4,2.3h-1.9l2.1-12.9h3L74.9,78.2z M70.3,74.1h2l-1-6.5L70.3,74.1z"/>
	<path class="st2" d="M77.6,68.8v9.4h-1.8V65.3h2.5l2.1,7.7v-7.7h1.8v12.9h-2.1L77.6,68.8z"/>
	<path class="st2" d="M83.7,65.3h3.2c2,0,3,1.1,3,3.2V75c0,2.1-1,3.2-3,3.2h-3.2V65.3z M85.8,67.1v9.2h1.1c0.6,0,1-0.3,1-1.3v-6.7
		c0-0.9-0.4-1.3-1-1.3H85.8z"/>
	<path class="st2" d="M59.9,83.7h6.3v1.8H64v11.1h-2V85.6h-2.1V83.7z"/>
	<path class="st2" d="M71.3,96.7c-0.1-0.3-0.2-0.5-0.2-1.6v-2c0-1.2-0.4-1.6-1.3-1.6h-0.7v5.3h-2V83.7h3.1c2.1,0,3,1,3,3v1
		c0,1.3-0.4,2.2-1.3,2.6c1,0.4,1.3,1.4,1.3,2.8v2c0,0.6,0,1.1,0.2,1.6H71.3z M69.1,85.6v4h0.8c0.8,0,1.2-0.3,1.2-1.4v-1.3
		c0-0.9-0.3-1.3-1-1.3H69.1z"/>
	<path class="st2" d="M81,96.7h-2l-0.4-2.3h-2.5l-0.4,2.3h-1.9L76,83.7h3L81,96.7z M76.4,92.6h2l-1-6.5L76.4,92.6z"/>
	<path class="st2" d="M84.6,94.3l1.6-10.5H88l-2,12.9h-3l-2-12.9h2L84.6,94.3z"/>
	<path class="st2" d="M91,89.2h2.8V91H91v3.8h3.5v1.8h-5.5V83.7h5.5v1.8H91V89.2z"/>
	<path class="st2" d="M95.7,83.7h2v11.1h3.3v1.8h-5.4V83.7z"/>
</g>
<circle class="st2" cx="40.7" cy="114.2" r="2"/>
<circle class="st2" cx="118.4" cy="114.2" r="2"/>
<circle class="st2" cx="39.7" cy="17.2" r="2"/>
<circle class="st2" cx="117.4" cy="17.2" r="2"/>
<g>
	<defs>
		<rect id="SVGID_1_" x="25" y="124.5" width="125.1" height="41.1"/>
	</defs>
	<clipPath id="SVGID_2_">
		<use xlink:href="#SVGID_1_"  style="overflow:visible;"/>
	</clipPath>
	
		<rect x="45.8" y="125.8" transform="matrix(-0.8528 -0.5222 0.5222 -0.8528 13.0346 318.3995)" class="st3" width="11.1" height="63.2"/>
	
		<rect x="123.3" y="125.8" transform="matrix(0.8528 -0.5222 0.5222 0.8528 -63.2156 90.446)" class="st3" width="11.1" height="63.2"/>
</g>
<rect x="14.3" y="125.5" class="st4" width="146.7" height="21.2"/>
<rect x="14.3" y="135" class="st5" width="146.7" height="14.9"/>
<path class="st6" d="M48.9,137.1H26c-1.2,0-2.2-1-2.2-2.2l0,0c0-1.2,1-2.2,2.2-2.2h22.9c1.2,0,2.2,1,2.2,2.2l0,0
	C51.1,136.1,50.1,137.1,48.9,137.1z"/>
<path class="st6" d="M66.3,137.1H57c-1.2,0-2.2-1-2.2-2.2l0,0c0-1.2,1-2.2,2.2-2.2h9.3c1.2,0,2.2,1,2.2,2.2l0,0
	C68.5,136.1,67.5,137.1,66.3,137.1z"/>
</svg>
