<?xml version="1.0" encoding="utf-8"?>
<!-- Generator: Adobe Illustrator 19.0.0, SVG Export Plug-In . SVG Version: 6.00 Build 0)  -->
<svg version="1.1" id="Layer_1" xmlns="http://www.w3.org/2000/svg" xmlns:xlink="http://www.w3.org/1999/xlink" x="0px" y="0px"
	 viewBox="0 0 517.5 265.6" style="enable-background:new 0 0 517.5 265.6;" xml:space="preserve">
<style type="text/css">
	.st0{fill:#14153D;}
	.st1{fill:#FFFFFF;}
	.st2{fill:#EA3064;}
	.st3{fill:#E5E0DF;}
	.st4{fill:#54A6DC;}
	.st5{fill:none;stroke:#54A6DC;stroke-width:4;stroke-miterlimit:10;}
	.st6{fill:none;stroke:#FFFFFF;stroke-miterlimit:10;}
	.st7{fill:#CD1E54;}
	.st8{fill:#DC2763;}
</style>
<g>
	<rect x="0" y="0" class="st0" width="517.5" height="265.6"/>
	<rect x="100.5" y="22.4" class="st1" width="91.2" height="128.2"/>
	
		<rect x="70.5" y="34.8" transform="matrix(0.7071 -0.7071 0.7071 0.7071 -11.5195 85.1973)" class="st1" width="53.1" height="43.4"/>
	
		<rect x="168.6" y="34.8" transform="matrix(0.7071 0.7071 -0.7071 0.7071 97.1275 -121.4789)" class="st1" width="53.1" height="43.4"/>
	<circle class="st0" cx="143.6" cy="22.3" r="14.5"/>
	<circle class="st2" cx="132" cy="75.3" r="15.1"/>
	<path id="XMLID_202_" class="st2" d="M146.5,77.9v29.3c0,0-25.3-8.4-29.9-29.9L146.5,77.9z"/>
	<circle class="st2" cx="161.8" cy="75.3" r="15.1"/>
	<path id="XMLID_201_" class="st2" d="M146.5,77.9v29.3c0,0,25.3-8.4,29.9-29.9L146.5,77.9z"/>
	<rect x="206.3" y="22.4" class="st3" width="91.2" height="128.2"/>
	
		<rect x="176.4" y="34.8" transform="matrix(0.7071 -0.7071 0.7071 0.7071 19.4786 160.0332)" class="st3" width="53.1" height="43.4"/>
	
		<rect x="274.5" y="34.8" transform="matrix(0.7071 0.7071 -0.7071 0.7071 128.1255 -196.3147)" class="st3" width="53.1" height="43.4"/>
	<circle class="st2" cx="237.8" cy="75.3" r="15.1"/>
	<path id="XMLID_200_" class="st2" d="M252.5,77.9v29.3c0,0-25.3-8.4-29.9-29.9L252.5,77.9z"/>
	<circle class="st2" cx="267.6" cy="75.3" r="15.1"/>
	<path id="XMLID_199_" class="st2" d="M252.5,77.9v29.3c0,0,25.3-8.4,29.9-29.9L252.5,77.9z"/>
	<path class="st4" d="M412,220.4h-68.1c-5.6,0-10.1-4.5-10.1-10.1v-69.1c0-5.6,4.5-10.1,10.1-10.1H412c5.6,0,10.1,4.5,10.1,10.1
		v69.1C422,215.9,417.5,220.4,412,220.4z"/>
	<circle class="st5" cx="424" cy="167" r="29.1"/>
	<ellipse class="st2" cx="377.9" cy="138.1" rx="44.1" ry="30.6"/>
	<ellipse class="st0" cx="377.9" cy="137" rx="36.8" ry="23.2"/>
	<circle class="st2" cx="367.3" cy="183.9" r="9.8"/>
	<path class="st2" d="M377,185.3v18.9c0,0-16.4-5.4-19.3-19.3L377,185.3z"/>
	<circle class="st2" cx="386.6" cy="183.9" r="9.8"/>
	<path class="st2" d="M377,185.3v18.9c0,0,16.4-5.4,19.3-19.3L377,185.3z"/>
	<circle class="st2" cx="392.9" cy="74.8" r="9.8"/>
	<path class="st2" d="M402.6,76.5v18.9c0,0-16.4-5.4-19.3-19.3L402.6,76.5z"/>
	<circle class="st2" cx="412.2" cy="74.8" r="9.8"/>
	<path class="st2" d="M402.6,76.5v18.9c0,0,16.4-5.4,19.3-19.3L402.6,76.5z"/>
	<path class="st1" d="M402.4,74.8L402.4,74.8c-1.4,0-2.6-1.2-2.6-2.6v-9.1c0-1.4,1.2-2.6,2.6-2.6l0,0c1.4,0,2.6,1.2,2.6,2.6v9.1
		C405,73.7,403.8,74.8,402.4,74.8z"/>
	<path id="XMLID_198_" class="st6" d="M402.3,29.4c5.3,0,9.5,4.1,9.5,9.4c0,5.3-4.8,9.4-9.8,9.4v20.2"/>
	<circle class="st2" cx="437.8" cy="74.8" r="9.8"/>
	<path class="st2" d="M447.5,76.5v18.9c0,0-16.4-5.4-19.3-19.3L447.5,76.5z"/>
	<circle class="st2" cx="457.1" cy="74.8" r="9.8"/>
	<path class="st2" d="M447.5,76.5v18.9c0,0,16.4-5.4,19.3-19.3L447.5,76.5z"/>
	<path class="st1" d="M447.3,74.8L447.3,74.8c-1.4,0-2.6-1.2-2.6-2.6v-9.1c0-1.4,1.2-2.6,2.6-2.6l0,0c1.4,0,2.6,1.2,2.6,2.6v9.1
		C449.9,73.7,448.7,74.8,447.3,74.8z"/>
	<path id="XMLID_197_" class="st6" d="M447.2,29.4c5.3,0,9.5,4.1,9.5,9.4c0,5.3-4.8,9.4-9.8,9.4v20.2"/>
	<path id="XMLID_196_" class="st2" d="M87.5,136.8v78.5c0,4.8-4.3,8.2-9.1,8.2H36c-4.8,0-7.5-3.4-7.5-8.2v-78.5
		c0-4.8,2.7-9.3,7.5-9.3h42.5C83.2,127.6,87.5,132,87.5,136.8z"/>
	<path id="XMLID_195_" class="st0" d="M226.2,22.1c0,0,4.3,21,26.3,28.3V21.8L226.2,22.1z"/>
	<path id="XMLID_194_" class="st0" d="M278.8,22.1c0,0-3.3,21-26.3,28.3V21.8L278.8,22.1z"/>
	<circle class="st2" cx="226.8" cy="152.2" r="27.8"/>
	<path id="XMLID_166_" class="st2" d="M254.5,156.9v53.9c0,0-46.6-15.4-55-55L254.5,156.9z"/>
	<circle class="st2" cx="281.8" cy="152.2" r="27.8"/>
	<path id="XMLID_165_" class="st2" d="M254.5,156.9v53.9c0,0,46.6-15.4,55-55L254.5,156.9z"/>
	<circle class="st3" cx="51.5" cy="171.3" r="8.8"/>
	<path id="XMLID_164_" class="st3" d="M60.5,172.8V190c0,0-14.8-4.9-17.5-17.5L60.5,172.8z"/>
	<circle class="st3" cx="69" cy="171.3" r="8.8"/>
	<path id="XMLID_163_" class="st3" d="M60.5,172.8V190c0,0,14.8-4.9,17.5-17.5L60.5,172.8z"/>
	<path class="st7" d="M42.6,138.7h-5.9c-1.5,0-2.7-1.2-2.7-2.7l0,0c0-1.5,1.2-2.7,2.7-2.7h5.9c1.5,0,2.7,1.2,2.7,2.7l0,0
		C45.3,137.5,44.1,138.7,42.6,138.7z"/>
	<path class="st7" d="M52.1,138.7h-2c-1.5,0-2.7-1.2-2.7-2.7l0,0c0-1.5,1.2-2.7,2.7-2.7h2c1.5,0,2.7,1.2,2.7,2.7l0,0
		C54.9,137.5,53.6,138.7,52.1,138.7z"/>
	<path id="XMLID_162_" class="st8" d="M87.5,141.6v73.8c0,4.8-4.3,8.2-9.1,8.2H66.5v-72.1c0-4.8,4.5-9.9,9.3-9.9H87.5z"/>
	<path class="st2" d="M127.3,238.7h-49c-3,0-5.4-2.4-5.4-5.4v-85.1c0-3,2.4-5.4,5.4-5.4h49c3,0,5.4,2.4,5.4,5.4v85.1
		C132.8,236.3,130.3,238.7,127.3,238.7z"/>
	<circle class="st3" cx="94.8" cy="171.3" r="8.8"/>
	<path id="XMLID_134_" class="st3" d="M103.5,172.8V190c0,0-14.8-4.9-17.5-17.5L103.5,172.8z"/>
	<circle class="st3" cx="112.3" cy="171.3" r="8.8"/>
	<path id="XMLID_133_" class="st3" d="M103.5,172.8V190c0,0,14.8-4.9,17.5-17.5L103.5,172.8z"/>
	<circle class="st3" cx="94.8" cy="205" r="8.8"/>
	<path id="XMLID_132_" class="st3" d="M103.5,206.5v17.2c0,0-14.8-4.9-17.5-17.5L103.5,206.5z"/>
	<circle class="st3" cx="112.3" cy="205" r="8.8"/>
	<path id="XMLID_131_" class="st3" d="M103.5,206.5v17.2c0,0,14.8-4.9,17.5-17.5L103.5,206.5z"/>
	<path class="st7" d="M86.3,152.5h-5.9c-1.5,0-2.7-1.2-2.7-2.7l0,0c0-1.5,1.2-2.7,2.7-2.7h5.9c1.5,0,2.7,1.2,2.7,2.7l0,0
		C89,151.3,87.8,152.5,86.3,152.5z"/>
	<path class="st7" d="M95.8,152.5h-2c-1.5,0-2.7-1.2-2.7-2.7l0,0c0-1.5,1.2-2.7,2.7-2.7h2c1.5,0,2.7,1.2,2.7,2.7l0,0
		C98.5,151.3,97.3,152.5,95.8,152.5z"/>
</g>
</svg>
