<?xml version="1.0" encoding="utf-8"?>
<!-- Generator: Adobe Illustrator 19.0.0, SVG Export Plug-In . SVG Version: 6.00 Build 0)  -->
<svg version="1.1" id="Layer_1" xmlns="http://www.w3.org/2000/svg" xmlns:xlink="http://www.w3.org/1999/xlink" x="0px" y="0px"
	 viewBox="0 0 160.7 165.6" style="enable-background:new 0 0 160.7 165.6;" xml:space="preserve">
<style type="text/css">
	.st0{fill:#F8B7A7;}
	.st1{fill:#FFFFFF;}
	.st2{fill:#25215A;}
	.st3{fill:#332F64;}
	.st4{fill:#EA3064;}
	.st5{fill:#5F7FBF;}
</style>
<rect id="XMLID_192_" x="0" class="st0" width="160.7" height="165.6"/>
<rect id="XMLID_191_" x="50.9" y="29" class="st1" width="89" height="115.5"/>
<rect id="XMLID_190_" x="21.7" y="60.5" class="st2" width="87" height="60.1"/>
<path id="XMLID_189_" class="st3" d="M21.7,60.3l32.2,26.5c6.6,5.4,16.1,5.4,22.7,0l32.2-26.5H21.7z"/>
<circle id="XMLID_188_" class="st4" cx="57.4" cy="87.8" r="6.1"/>
<path id="XMLID_186_" class="st4" d="M63.4,88.9v11.8c0,0-10.2-3.4-12.1-12.1L63.4,88.9z"/>
<circle id="XMLID_185_" class="st4" cx="69.4" cy="87.8" r="6.1"/>
<path id="XMLID_181_" class="st4" d="M63.4,88.9v11.8c0,0,10.2-3.4,12.1-12.1L63.4,88.9z"/>
<rect id="XMLID_179_" x="59.2" y="40.3" class="st5" width="69.8" height="6.6"/>
<rect id="XMLID_178_" x="59.2" y="50.7" class="st5" width="69.8" height="6.6"/>
<rect id="XMLID_177_" x="108.7" y="61" class="st5" width="20.4" height="6.6"/>
<rect id="XMLID_176_" x="108.7" y="71.4" class="st5" width="20.4" height="6.6"/>
<rect id="XMLID_175_" x="108.7" y="81.7" class="st5" width="20.4" height="6.6"/>
<rect id="XMLID_174_" x="108.7" y="92.1" class="st5" width="20.4" height="6.6"/>
<rect id="XMLID_173_" x="108.7" y="102.4" class="st5" width="20.4" height="6.6"/>
<rect id="XMLID_170_" x="108.7" y="112.7" class="st5" width="20.4" height="6.6"/>
</svg>
