<?xml version="1.0" encoding="utf-8"?>
<!-- Generator: Adobe Illustrator 19.0.0, SVG Export Plug-In . SVG Version: 6.00 Build 0)  -->
<svg version="1.1" id="Layer_1" xmlns="http://www.w3.org/2000/svg" xmlns:xlink="http://www.w3.org/1999/xlink" x="0px" y="0px"
	 viewBox="0 0 619.3 579.1" style="enable-background:new 0 0 619.3 579.1;" xml:space="preserve">
<style type="text/css">
	.st0{opacity:0.2;}
	.st1{fill:#F3F0F2;}
	.st2{fill:#CC2086;}
	.st3{fill:#E88B6B;}
	.st4{fill:#332F64;}
	.st5{fill:#5E81C1;}
	.st6{fill:none;stroke:#332F64;stroke-miterlimit:10;}
	.st7{fill:#010101;}
	.st8{fill:none;stroke:#FEF0F1;stroke-miterlimit:10;}
	.st9{fill:#3A5783;}
	.st10{fill:#EA3064;}
</style>
<g id="XMLID_29_" class="st0">
	<path id="XMLID_66_" class="st1" d="M587.2,224.8H60.7c-15.6,0-28.5-12.8-28.5-28.5l0,0c0-15.6,12.8-28.5,28.5-28.5h526.5
		c15.6,0,28.5,12.8,28.5,28.5l0,0C615.7,212,602.9,224.8,587.2,224.8z"/>
	<path id="XMLID_65_" class="st1" d="M558.4,279.4H31.8c-15.7,0-28.5-12.8-28.5-28.5l0,0c0-15.6,12.8-28.5,28.5-28.5h526.5
		c15.7,0,28.5,12.8,28.5,28.5l0,0C586.8,266.6,574,279.4,558.4,279.4z"/>
	<path id="XMLID_64_" class="st1" d="M605.2,489.6H49.9c-7.7,0-14.1-6.3-14.1-14.1v-28.7c0-7.8,6.3-14.1,14.1-14.1h555.3
		c7.8,0,14.1,6.3,14.1,14.1v28.7C619.3,483.2,613,489.6,605.2,489.6z"/>
	<path id="XMLID_63_" class="st1" d="M555,546.5H28.5C12.8,546.5,0,533.7,0,518l0,0c0-15.6,12.8-28.5,28.5-28.5H555
		c15.6,0,28.5,12.8,28.5,28.5l0,0C583.5,533.7,570.7,546.5,555,546.5z"/>
	<circle id="XMLID_62_" class="st2" cx="429.8" cy="292.5" r="124.6"/>
	<path id="XMLID_61_" class="st3" d="M177.9,212.5L177.9,212.5c-37.8,0-68.7-30.9-68.7-68.7V94.1c0-37.8,30.9-68.7,68.7-68.7l0,0
		c37.8,0,68.7,30.9,68.7,68.7v49.8C246.6,181.6,215.7,212.5,177.9,212.5z"/>
	<path id="XMLID_60_" class="st3" d="M386.1,95.1h-85.4c-3.7,0-6.8-3.1-6.8-6.8V74.5c0-3.7,3.1-6.8,6.8-6.8h85.4
		c3.7,0,6.8,3.1,6.8,6.8v13.9C392.9,92.1,389.9,95.1,386.1,95.1z"/>
	<path id="XMLID_59_" class="st3" d="M298.5,86.4h44.6c4.6,0,8.3,3.7,8.3,8.3v141.2c0,4.6-3.8,8.3-8.3,8.3h-44.6
		c-4.6,0-8.3-3.8-8.3-8.3V94.7C290.2,90.1,294,86.4,298.5,86.4z"/>
	<path id="XMLID_58_" class="st3" d="M253.3,134.8h-14.8c-6.5,0-11.8-5.3-11.8-11.8l0,0c0-6.5,5.3-11.8,11.8-11.8h14.8
		c6.5,0,11.8,5.3,11.8,11.8l0,0C265.1,129.5,259.8,134.8,253.3,134.8z"/>
	<path id="XMLID_57_" class="st3" d="M431,148.8h-14.8c-6.5,0-11.8-5.3-11.8-11.8l0,0c0-6.5,5.3-11.8,11.8-11.8H431
		c6.5,0,11.8,5.3,11.8,11.8l0,0C442.7,143.5,437.4,148.8,431,148.8z"/>
	<path id="XMLID_56_" class="st3" d="M461.7,191.7L461.7,191.7c-27.7,0-50.4-22.7-50.4-50.4v-36.6c0-27.7,22.7-50.4,50.4-50.4l0,0
		c27.7,0,50.4,22.7,50.4,50.4v36.6C512.1,169,489.4,191.7,461.7,191.7z"/>
	<path id="XMLID_55_" class="st3" d="M517,134.7h-10.9c-4.8,0-8.7-3.9-8.7-8.7l0,0c0-4.8,3.9-8.7,8.7-8.7H517c4.8,0,8.7,3.9,8.7,8.7
		l0,0C525.7,130.8,521.8,134.7,517,134.7z"/>
	<circle id="XMLID_54_" class="st4" cx="219" cy="110.9" r="7.7"/>
	<path id="XMLID_27_" class="st5" d="M114.1,167.9l54.5-24.3V80.1h76.3c0,0,28.6-9.2,15.8-48.1c0,2.8-17.2,18.1-17.2,18.1V18.4
		l-24.2,18.8c0,0-13.3-13.8-47.6-13.8s-63.4,25.2-62.4,77.8l0,46.4C109.4,147.6,101.5,164.6,114.1,167.9z"/>
	<path id="XMLID_52_" class="st3" d="M167.5,130.8h-4.3c-6.5,0-11.8-5.3-11.8-11.8l0,0c0-6.5,5.3-11.8,11.8-11.8h4.3
		c6.5,0,11.8,5.3,11.8,11.8l0,0C179.3,125.5,174,130.8,167.5,130.8z"/>
	<path id="XMLID_51_" class="st6" d="M198.9,122.4c0,0-0.4,18.4,25.2,15.8"/>
	<path id="XMLID_50_" class="st6" d="M205.7,116.9c0,3.2-2.6,5.8-5.8,5.8c-3.2,0-5.8-2.6-5.8-5.8"/>
	<polygon id="XMLID_49_" class="st5" points="288.2,224.8 310.8,255.3 306.9,432.7 186.3,280.8 	"/>
	<path id="XMLID_48_" class="st3" d="M333,118.2h-22.4c-14.4,0-26.1-11.7-26.1-26.1l0,0c0-14.3,11.7-26.1,26.1-26.1H333
		c14.3,0,26.1,11.7,26.1,26.1l0,0C359.1,106.4,347.3,118.2,333,118.2z"/>
	<path id="XMLID_47_" class="st7" d="M419.3,129.1c0-4.3,3.5-7.7,7.7-7.7c4.3,0,7.7,3.5,7.7,7.7"/>
	<rect id="XMLID_46_" x="113.9" y="167.9" class="st3" width="34.8" height="39.6"/>
	<path id="XMLID_45_" class="st8" d="M322.8,30L322.8,30c-6.1,0-11-5-11-11v-7.4c0-6.1,5-11,11-11l0,0c6.1,0,11,5,11,11v7.4
		C333.8,25,328.8,30,322.8,30z"/>
	<path id="XMLID_44_" class="st8" d="M344.8,30L344.8,30c-6.1,0-11-5-11-11v-7.4c0-6.1,5-11,11-11l0,0c6.1,0,11,5,11,11v7.4
		C355.8,25,350.9,30,344.8,30z"/>
	<rect id="XMLID_43_" x="298" y="15.2" class="st5" width="71.7" height="11.4"/>
	<rect id="XMLID_42_" x="301.3" y="26.7" class="st5" width="64.9" height="46.3"/>
	<path id="XMLID_26_" class="st1" d="M418.6,137.1c0,6,6,13.3,13.3,13.3s13.3-7.3,13.3-13.3H418.6z"/>
	<rect id="XMLID_40_" x="178.4" y="177.6" class="st9" width="173.5" height="70"/>
	<circle id="XMLID_39_" class="st5" cx="183.5" cy="292.5" r="124.6"/>
	<path id="XMLID_38_" class="st5" d="M307.2,417.2l203.1-219.8c0,0-74.6-70.7-166.4,2.9L226.8,313.7L307.2,417.2z"/>
	<path id="XMLID_25_" class="st2" d="M305.6,314.3v264.6c0,0,209.1-75.8,246.7-270.1L305.6,314.3z"/>
	<path id="XMLID_24_" class="st9" d="M306.2,309.1l-0.7,270.1c0,0-209.1-76.1-246.6-270.1H306.2z"/>
	<path id="XMLID_35_" class="st7" d="M408.4,84.1c0,0,1.3,40.3,53.8,41.3v154.9c0,0-10.1,70.7,68,88.9h51.2c0,0-54.5-14-54.5-90.5
		V102.9c0-18.6-6.7-36.8-19.5-50.4c-10.6-11.2-26.2-20.6-48.5-19C406.4,37.3,408.4,84.1,408.4,84.1z"/>
	<path id="XMLID_34_" class="st7" d="M442.8,84.1c0,0,1.3,40.3,53.8,41.3v154.9c0,0-10.1,70.7,68,88.9h51.2c0,0-54.5-14-54.5-90.5
		V102.9c0-18.6-6.7-36.8-19.5-50.4c-10.6-11.2-26.2-20.6-48.5-19C440.7,37.3,442.8,84.1,442.8,84.1z"/>
	<circle id="XMLID_33_" class="st10" cx="324.1" cy="30.4" r="10"/>
	<path id="XMLID_23_" class="st10" d="M333.6,32.1v19.4c0,0-16.8-5.6-19.8-19.8L333.6,32.1z"/>
	<circle id="XMLID_31_" class="st10" cx="343.9" cy="30.4" r="10"/>
	<path id="XMLID_22_" class="st10" d="M333.6,32.1v19.4c0,0,16.8-5.6,19.8-19.8L333.6,32.1z"/>
</g>
</svg>
