<!-- Generator: Adobe Illustrator 19.0.0, SVG Export Plug-In  -->
<svg version="1.1"
	 xmlns="http://www.w3.org/2000/svg" xmlns:xlink="http://www.w3.org/1999/xlink" xmlns:a="http://ns.adobe.com/AdobeSVGViewerExtensions/3.0/"
	 x="0px" y="0px" width="89.5px" height="127.6px" viewBox="0 0 89.5 127.6" style="enable-background:new 0 0 89.5 127.6;"
	 xml:space="preserve">
<style type="text/css">
	.st0{fill:#086A87;}
	.st1{fill:#FF6633;}
	.st2{fill:none;stroke:#086A87;stroke-width:2;stroke-linecap:round;stroke-linejoin:round;stroke-miterlimit:10;}
</style>
<defs>
</defs>
<g>
	<g>
		<path class="st0" d="M9.5,81.7h2.7c1.2,0,2.1,0.2,2.6,0.5s0.8,0.9,0.8,1.6c0,0.5-0.1,0.9-0.4,1.3s-0.6,0.5-1,0.6v0.1
			c0.5,0.1,0.9,0.3,1.2,0.7s0.4,0.8,0.4,1.3c0,0.8-0.3,1.4-0.8,1.8s-1.3,0.7-2.3,0.7H9.5V81.7z M11.3,85.1h1.1
			c0.5,0,0.8-0.1,1.1-0.2s0.3-0.4,0.3-0.8c0-0.3-0.1-0.6-0.4-0.7s-0.6-0.2-1.1-0.2h-1V85.1z M11.3,86.5v2.2h1.2
			c0.5,0,0.9-0.1,1.1-0.3S14,88,14,87.6c0-0.7-0.5-1.1-1.5-1.1H11.3z"/>
		<path class="st0" d="M23.4,87c0,1.1-0.3,1.9-0.8,2.5s-1.3,0.9-2.3,0.9c-0.6,0-1.2-0.1-1.7-0.4s-0.8-0.7-1.1-1.2S17,87.7,17,87
			c0-1.1,0.3-1.9,0.8-2.5s1.3-0.9,2.4-0.9c0.6,0,1.2,0.1,1.7,0.4s0.8,0.7,1.1,1.2S23.4,86.3,23.4,87z M18.9,87
			c0,0.6,0.1,1.1,0.3,1.5s0.6,0.5,1,0.5c0.5,0,0.8-0.2,1-0.5s0.3-0.8,0.3-1.5c0-0.6-0.1-1.1-0.3-1.5s-0.6-0.5-1-0.5
			c-0.5,0-0.8,0.2-1,0.5S18.9,86.3,18.9,87z"/>
		<path class="st0" d="M30.8,87c0,1.1-0.3,1.9-0.8,2.5s-1.3,0.9-2.3,0.9c-0.6,0-1.2-0.1-1.7-0.4s-0.8-0.7-1.1-1.2s-0.4-1.1-0.4-1.8
			c0-1.1,0.3-1.9,0.8-2.5s1.3-0.9,2.4-0.9c0.6,0,1.2,0.1,1.7,0.4s0.8,0.7,1.1,1.2S30.8,86.3,30.8,87z M26.3,87
			c0,0.6,0.1,1.1,0.3,1.5s0.6,0.5,1,0.5c0.5,0,0.8-0.2,1-0.5S29,87.6,29,87c0-0.6-0.1-1.1-0.3-1.5s-0.6-0.5-1-0.5
			c-0.5,0-0.8,0.2-1,0.5S26.3,86.3,26.3,87z"/>
		<path class="st0" d="M34,86.7l0.8-1l1.8-2h2L36,86.5l2.8,3.7h-2.1l-1.9-2.7l-0.8,0.6v2h-1.8v-9.1h1.8v4.1L34,86.7L34,86.7z"/>
		<path class="st0" d="M44.3,88.3c0,0.7-0.2,1.2-0.7,1.5s-1.2,0.5-2.1,0.5c-0.5,0-0.9,0-1.2-0.1s-0.7-0.2-0.9-0.3v-1.5
			c0.3,0.2,0.7,0.3,1.1,0.4s0.8,0.2,1.1,0.2c0.6,0,1-0.2,1-0.6c0-0.1,0-0.3-0.1-0.3S42.2,88,42,87.9s-0.5-0.2-0.8-0.4
			c-0.5-0.2-0.9-0.4-1.1-0.6s-0.4-0.4-0.5-0.6s-0.2-0.5-0.2-0.9c0-0.6,0.2-1,0.7-1.4s1.1-0.5,1.9-0.5c0.8,0,1.6,0.2,2.3,0.5
			l-0.5,1.3c-0.3-0.1-0.6-0.3-0.9-0.3s-0.6-0.1-0.9-0.1c-0.5,0-0.8,0.1-0.8,0.4c0,0.2,0.1,0.3,0.3,0.4s0.5,0.3,1.1,0.5
			c0.5,0.2,0.9,0.4,1.1,0.6s0.4,0.4,0.5,0.6S44.3,88,44.3,88.3z"/>
		<path class="st0" d="M47.5,89c-0.2,0.8-0.5,1.7-1,2.8h-1.3c0.3-1,0.5-2,0.6-2.9h1.6L47.5,89z"/>
		<path class="st0" d="M54.2,90.3h-1.8v-8.6h4.9v1.5h-3.1v2.2h2.9v1.5h-2.9V90.3z"/>
		<path class="st0" d="M58.7,82c0-0.6,0.3-0.9,1-0.9s1,0.3,1,0.9c0,0.3-0.1,0.5-0.2,0.6s-0.4,0.2-0.7,0.2
			C59.1,82.9,58.7,82.6,58.7,82z M60.6,90.3h-1.8v-6.6h1.8V90.3z"/>
		<path class="st0" d="M64.3,90.3h-1.8v-9.1h1.8V90.3z"/>
		<path class="st0" d="M72,90.3h-1.8v-3.8c0-0.5-0.1-0.8-0.2-1.1S69.6,85,69.2,85c-0.5,0-0.8,0.2-1,0.5s-0.3,0.9-0.3,1.7v3.1h-1.8
			v-6.6h1.4l0.2,0.8h0.1c0.2-0.3,0.4-0.5,0.8-0.7s0.7-0.3,1.1-0.3c1,0,1.6,0.3,2,1h0.2c0.2-0.3,0.4-0.5,0.8-0.7s0.7-0.3,1.2-0.3
			c0.7,0,1.3,0.2,1.7,0.6s0.6,1,0.6,1.8v4.3h-1.8v-3.8c0-0.5-0.1-0.8-0.2-1.1S73.7,85,73.3,85c-0.4,0-0.8,0.2-1,0.5S72,86.3,72,87
			V90.3z"/>
		<path class="st0" d="M79.7,89c-0.2,0.8-0.5,1.7-1,2.8h-1.3c0.3-1,0.5-2,0.6-2.9h1.6L79.7,89z"/>
		<path class="st0" d="M3.6,104.7l-2.1-6.7H1.5c0.1,1.4,0.1,2.3,0.1,2.7v4H0v-8.6h2.5l2,6.6h0l2.2-6.6h2.5v8.6H7.5v-4.1
			c0-0.2,0-0.4,0-0.7s0-0.9,0.1-2H7.5l-2.2,6.7H3.6z"/>
		<path class="st0" d="M15.8,104.7l-0.2-0.8h-0.1c-0.2,0.3-0.5,0.5-0.8,0.7s-0.8,0.2-1.2,0.2c-0.8,0-1.3-0.2-1.7-0.6s-0.6-1-0.6-1.8
			v-4.3h1.8v3.8c0,0.5,0.1,0.8,0.3,1.1s0.4,0.4,0.8,0.4c0.5,0,0.9-0.2,1.1-0.5s0.3-0.9,0.3-1.7v-3.1h1.8v6.6H15.8z"/>
		<path class="st0" d="M23.6,102.7c0,0.7-0.2,1.2-0.7,1.5s-1.2,0.5-2.1,0.5c-0.5,0-0.9,0-1.2-0.1s-0.7-0.2-0.9-0.3v-1.5
			c0.3,0.2,0.7,0.3,1.1,0.4s0.8,0.2,1.1,0.2c0.6,0,1-0.2,1-0.6c0-0.1,0-0.3-0.1-0.3s-0.2-0.2-0.4-0.3s-0.5-0.2-0.8-0.4
			c-0.5-0.2-0.9-0.4-1.1-0.6s-0.4-0.4-0.5-0.6s-0.2-0.5-0.2-0.9c0-0.6,0.2-1,0.7-1.4s1.1-0.5,1.9-0.5c0.8,0,1.6,0.2,2.3,0.5L23,99.8
			c-0.3-0.1-0.6-0.3-0.9-0.3s-0.6-0.1-0.9-0.1c-0.5,0-0.8,0.1-0.8,0.4c0,0.2,0.1,0.3,0.3,0.4s0.5,0.3,1.1,0.5
			c0.5,0.2,0.9,0.4,1.1,0.6s0.4,0.4,0.5,0.6S23.6,102.4,23.6,102.7z"/>
		<path class="st0" d="M24.9,96.4c0-0.6,0.3-0.9,1-0.9s1,0.3,1,0.9c0,0.3-0.1,0.5-0.2,0.6s-0.4,0.2-0.7,0.2
			C25.3,97.3,24.9,97,24.9,96.4z M26.8,104.7H25v-6.6h1.8V104.7z"/>
		<path class="st0" d="M31.3,104.8c-2,0-3.1-1.1-3.1-3.4c0-1.1,0.3-2,0.8-2.6s1.3-0.9,2.4-0.9c0.8,0,1.4,0.1,2,0.4L33,99.8
			c-0.3-0.1-0.5-0.2-0.8-0.3s-0.5-0.1-0.7-0.1c-0.9,0-1.4,0.7-1.4,2c0,1.3,0.5,1.9,1.4,1.9c0.3,0,0.7,0,1-0.1s0.6-0.2,0.9-0.4v1.5
			c-0.3,0.2-0.6,0.3-0.9,0.4S31.8,104.8,31.3,104.8z"/>
		<path class="st0" d="M46,104.7h-2.2l-0.7-0.7c-0.7,0.5-1.6,0.8-2.5,0.8c-1,0-1.7-0.2-2.3-0.7s-0.8-1-0.8-1.8c0-0.5,0.1-1,0.4-1.4
			s0.6-0.7,1.2-1.1c-0.3-0.3-0.5-0.7-0.6-1s-0.2-0.6-0.2-1c0-0.6,0.2-1.1,0.7-1.4S40,96,40.8,96c0.7,0,1.3,0.2,1.7,0.5
			s0.7,0.8,0.7,1.4c0,0.5-0.1,0.9-0.4,1.3s-0.7,0.8-1.3,1.1l1.7,1.6c0.3-0.5,0.5-1,0.7-1.8h1.9c-0.1,0.5-0.3,1-0.6,1.5
			s-0.5,0.9-0.8,1.3L46,104.7z M39.4,102.2c0,0.3,0.1,0.6,0.4,0.8s0.6,0.3,1,0.3c0.5,0,0.9-0.1,1.3-0.4l-1.9-1.9
			c-0.2,0.2-0.4,0.4-0.5,0.5S39.4,101.9,39.4,102.2z M41.5,98c0-0.2-0.1-0.4-0.2-0.5s-0.3-0.2-0.5-0.2c-0.3,0-0.5,0.1-0.6,0.2
			s-0.2,0.3-0.2,0.5c0,0.3,0.2,0.7,0.6,1.1c0.3-0.2,0.6-0.4,0.8-0.6S41.5,98.3,41.5,98z"/>
		<path class="st0" d="M53.5,99.8h3.4v4.4c-0.6,0.2-1.1,0.3-1.6,0.4s-1,0.1-1.5,0.1c-1.3,0-2.3-0.4-3-1.1s-1-1.9-1-3.3
			c0-1.4,0.4-2.5,1.2-3.2s1.9-1.2,3.3-1.2c0.9,0,1.7,0.2,2.5,0.5l-0.6,1.5c-0.6-0.3-1.3-0.5-2-0.5c-0.8,0-1.4,0.3-1.9,0.8
			s-0.7,1.2-0.7,2.1c0,0.9,0.2,1.6,0.6,2.1s0.9,0.7,1.7,0.7c0.4,0,0.8,0,1.2-0.1v-1.8h-1.6V99.8z"/>
		<path class="st0" d="M62.9,104.7l-0.3-0.9h0c-0.3,0.4-0.6,0.6-0.9,0.8s-0.7,0.2-1.2,0.2c-0.6,0-1.1-0.2-1.5-0.5s-0.5-0.9-0.5-1.5
			c0-0.7,0.2-1.2,0.7-1.5s1.2-0.5,2.2-0.5l1.1,0v-0.3c0-0.7-0.3-1-1-1c-0.5,0-1.1,0.2-1.8,0.5L59,98.6c0.8-0.4,1.6-0.6,2.5-0.6
			c0.9,0,1.6,0.2,2,0.6s0.7,1,0.7,1.7v4.4H62.9z M62.4,101.6l-0.7,0c-0.5,0-0.9,0.1-1.2,0.3s-0.4,0.4-0.4,0.8c0,0.5,0.3,0.8,0.9,0.8
			c0.4,0,0.7-0.1,1-0.4s0.4-0.6,0.4-0.9V101.6z"/>
		<path class="st0" d="M71.9,104.7h-1.8v-3.8c0-0.5-0.1-0.8-0.2-1.1s-0.4-0.4-0.7-0.4c-0.5,0-0.8,0.2-1,0.5s-0.3,0.9-0.3,1.7v3.1H66
			v-6.6h1.4l0.2,0.8h0.1c0.2-0.3,0.4-0.5,0.8-0.7s0.7-0.3,1.1-0.3c1,0,1.6,0.3,2,1h0.2c0.2-0.3,0.4-0.5,0.8-0.7s0.7-0.3,1.2-0.3
			c0.7,0,1.3,0.2,1.7,0.6s0.6,1,0.6,1.8v4.3h-1.8v-3.8c0-0.5-0.1-0.8-0.2-1.1s-0.4-0.4-0.7-0.4c-0.4,0-0.8,0.2-1,0.5
			s-0.3,0.8-0.3,1.5V104.7z"/>
		<path class="st0" d="M80.8,104.8c-1.1,0-1.9-0.3-2.5-0.9s-0.9-1.4-0.9-2.5c0-1.1,0.3-1.9,0.8-2.5s1.3-0.9,2.3-0.9
			c0.9,0,1.6,0.3,2.2,0.8s0.8,1.3,0.8,2.2v0.9h-4.2c0,0.5,0.2,0.9,0.5,1.2s0.7,0.4,1.2,0.4c0.4,0,0.8,0,1.1-0.1s0.7-0.2,1.1-0.4v1.4
			c-0.3,0.2-0.6,0.3-1,0.3S81.3,104.8,80.8,104.8z M80.5,99.3c-0.4,0-0.7,0.1-0.9,0.4s-0.3,0.6-0.4,1h2.5c0-0.4-0.1-0.8-0.3-1
			S80.9,99.3,80.5,99.3z"/>
		<path class="st0" d="M89.5,102.7c0,0.7-0.2,1.2-0.7,1.5s-1.2,0.5-2.1,0.5c-0.5,0-0.9,0-1.2-0.1s-0.7-0.2-0.9-0.3v-1.5
			c0.3,0.2,0.7,0.3,1.1,0.4s0.8,0.2,1.1,0.2c0.6,0,1-0.2,1-0.6c0-0.1,0-0.3-0.1-0.3s-0.2-0.2-0.4-0.3s-0.5-0.2-0.8-0.4
			c-0.5-0.2-0.9-0.4-1.1-0.6s-0.4-0.4-0.5-0.6s-0.2-0.5-0.2-0.9c0-0.6,0.2-1,0.7-1.4s1.1-0.5,1.9-0.5c0.8,0,1.6,0.2,2.3,0.5
			l-0.5,1.3c-0.3-0.1-0.6-0.3-0.9-0.3s-0.6-0.1-0.9-0.1c-0.5,0-0.8,0.1-0.8,0.4c0,0.2,0.1,0.3,0.3,0.4s0.5,0.3,1.1,0.5
			c0.5,0.2,0.9,0.4,1.1,0.6s0.4,0.4,0.5,0.6S89.5,102.4,89.5,102.7z"/>
	</g>
</g>
<g>
	<g>
		<path class="st1" d="M18.3,121.3c0-2.8,0.6-4.9,1.8-6.3c1.2-1.4,3-2.1,5.4-2.1c0.8,0,1.5,0,1.9,0.1v2.4c-0.6-0.1-1.2-0.2-1.7-0.2
			c-1,0-1.9,0.2-2.5,0.5s-1.1,0.8-1.5,1.4c-0.3,0.6-0.5,1.5-0.6,2.6h0.1c0.6-1.1,1.7-1.7,3.1-1.7c1.3,0,2.3,0.4,3,1.2
			s1.1,1.9,1.1,3.3c0,1.5-0.4,2.7-1.3,3.6s-2.1,1.3-3.6,1.3c-1.1,0-2-0.2-2.8-0.7c-0.8-0.5-1.4-1.2-1.8-2.1
			C18.6,123.7,18.3,122.6,18.3,121.3z M23.5,125.1c0.6,0,1.1-0.2,1.5-0.6c0.3-0.4,0.5-1,0.5-1.9c0-0.7-0.2-1.2-0.5-1.6
			s-0.8-0.6-1.5-0.6c-0.6,0-1.1,0.2-1.6,0.6c-0.4,0.4-0.6,0.9-0.6,1.4c0,0.8,0.2,1.4,0.6,2C22.4,124.9,22.9,125.1,23.5,125.1z"/>
		<path class="st1" d="M30.2,125.9c0-0.5,0.1-1,0.4-1.2s0.7-0.4,1.3-0.4c0.5,0,1,0.1,1.3,0.4c0.3,0.3,0.4,0.7,0.4,1.2
			c0,0.5-0.1,0.9-0.4,1.2c-0.3,0.3-0.7,0.4-1.3,0.4c-0.5,0-1-0.1-1.3-0.4C30.4,126.9,30.2,126.5,30.2,125.9z"/>
		<path class="st1" d="M40.8,118.2c1.4,0,2.5,0.4,3.3,1.2c0.8,0.8,1.2,1.8,1.2,3.2c0,1.6-0.5,2.8-1.5,3.7c-1,0.9-2.4,1.3-4.2,1.3
			c-1.6,0-2.9-0.3-3.8-0.8v-2.6c0.5,0.3,1.1,0.5,1.8,0.7s1.3,0.3,1.9,0.3c1.8,0,2.8-0.8,2.8-2.3c0-1.4-1-2.2-2.9-2.2
			c-0.3,0-0.7,0-1.1,0.1c-0.4,0.1-0.8,0.1-1,0.2l-1.2-0.6l0.5-7.3h7.7v2.6h-5.1l-0.3,2.8l0.3-0.1C39.7,118.3,40.2,118.2,40.8,118.2z
			"/>
		<path class="st1" d="M56.4,116.3c0,0.9-0.3,1.7-0.8,2.3c-0.5,0.6-1.3,1.1-2.3,1.3v0.1c1.2,0.1,2,0.5,2.6,1
			c0.6,0.6,0.9,1.3,0.9,2.3c0,1.4-0.5,2.4-1.5,3.2s-2.4,1.1-4.3,1.1c-1.5,0-2.9-0.3-4.1-0.8v-2.6c0.6,0.3,1.2,0.5,1.8,0.7
			s1.3,0.3,2,0.3c1,0,1.7-0.2,2.2-0.5c0.5-0.3,0.7-0.9,0.7-1.6c0-0.7-0.3-1.1-0.8-1.4s-1.4-0.4-2.6-0.4h-1.1v-2.3h1.1
			c1.1,0,1.9-0.1,2.4-0.4c0.5-0.3,0.8-0.8,0.8-1.5c0-1.1-0.7-1.6-2-1.6c-0.5,0-0.9,0.1-1.4,0.2c-0.5,0.2-1,0.4-1.6,0.8l-1.4-2.1
			c1.3-0.9,2.9-1.4,4.7-1.4c1.5,0,2.6,0.3,3.5,0.9C56,114.4,56.4,115.2,56.4,116.3z"/>
		<path class="st1" d="M65.1,117.3c0,1.5-0.3,2.6-0.9,3.4c-0.6,0.8-1.4,1.1-2.5,1.1c-1.1,0-1.9-0.4-2.5-1.2s-0.9-1.9-0.9-3.3
			c0-3,1.1-4.5,3.4-4.5c1.1,0,1.9,0.4,2.5,1.2C64.8,114.8,65.1,115.9,65.1,117.3z M60.7,117.3c0,0.8,0.1,1.4,0.2,1.9
			s0.4,0.6,0.7,0.6c0.6,0,0.9-0.8,0.9-2.5c0-1.6-0.3-2.4-0.9-2.4c-0.3,0-0.6,0.2-0.7,0.6S60.7,116.5,60.7,117.3z M71.8,113.1
			l-7.9,14.3h-2.3l7.9-14.3H71.8z M75.1,123c0,1.5-0.3,2.6-0.9,3.4c-0.6,0.8-1.4,1.1-2.5,1.1c-1.1,0-1.9-0.4-2.5-1.2
			s-0.9-1.9-0.9-3.3c0-3,1.1-4.5,3.4-4.5c1.1,0,1.9,0.4,2.5,1.2C74.8,120.5,75.1,121.6,75.1,123z M70.7,123c0,0.8,0.1,1.4,0.2,1.9
			s0.4,0.6,0.7,0.6c0.6,0,0.9-0.8,0.9-2.5c0-1.6-0.3-2.4-0.9-2.4c-0.3,0-0.6,0.2-0.7,0.6S70.7,122.2,70.7,123z"/>
	</g>
</g>
<g>
	<rect x="9.6" y="1" class="st2" width="54" height="54"/>
	<polygon class="st2" points="29.4,20.6 42.6,28.2 29.4,35.8 	"/>
	<rect x="9.6" y="1" class="st2" width="9" height="54"/>
	<rect x="54.6" y="1" class="st2" width="9" height="54"/>
	<rect x="9.6" y="10" class="st2" width="9" height="9"/>
	<rect x="9.6" y="19" class="st2" width="9" height="9"/>
	<rect x="9.6" y="28" class="st2" width="9" height="9"/>
	<rect x="9.6" y="37" class="st2" width="9" height="9"/>
	<rect x="54.6" y="10" class="st2" width="9" height="9"/>
	<rect x="54.6" y="19" class="st2" width="9" height="9"/>
	<rect x="54.6" y="28" class="st2" width="9" height="9"/>
	<rect x="54.6" y="37" class="st2" width="9" height="9"/>
</g>
</svg>