<!-- Generator: Adobe Illustrator 19.0.0, SVG Export Plug-In  -->
<svg version="1.1"
	 xmlns="http://www.w3.org/2000/svg" xmlns:xlink="http://www.w3.org/1999/xlink" xmlns:a="http://ns.adobe.com/AdobeSVGViewerExtensions/3.0/"
	 x="0px" y="0px" width="299.2px" height="74.8px" viewBox="0 0 299.2 74.8" style="enable-background:new 0 0 299.2 74.8;"
	 xml:space="preserve">
<style type="text/css">
	.st0{fill:#FF6633;}
	.st1{fill:#FFFFFF;}
	.st2{fill:none;stroke:#FFFFFF;stroke-width:2;stroke-linecap:round;stroke-linejoin:round;stroke-miterlimit:10;}
	.st3{fill:#FFFFFF;stroke:#FFFFFF;stroke-width:0.9939;stroke-miterlimit:10;}
	.st4{fill:#FFFFFF;stroke:#FFFFFF;stroke-width:0.6;stroke-miterlimit:10;}
</style>
<defs>
</defs>
<circle id="XMLID_215_" class="st0" cx="8.4" cy="20.6" r="8.4"/>
<g id="XMLID_211_">
	<path id="XMLID_212_" class="st1" d="M11,22.8h-1v2H8v-2H4v-1l4.2-6H10v6h1V22.8z M8,21.8v-1.6c0-0.2,0.1-0.4,0.1-0.8
		s0.1-0.6,0.1-0.6h0c-0.1,0-0.3,0.5-0.5,0.8L6,21.8H8z"/>
</g>
<polygon id="XMLID_210_" class="st2" points="243.5,73.8 269.7,9.7 298.2,73.8 "/>
<line id="XMLID_209_" class="st2" x1="265" y1="3.8" x2="272" y2="3.8"/>
<line id="XMLID_208_" class="st2" x1="266" y1="1" x2="271" y2="5.9"/>
<line id="XMLID_207_" class="st2" x1="271.3" y1="1" x2="266.4" y2="5.9"/>
<path id="XMLID_206_" class="st0" d="M242,13.5c0,0-1.1,5.5-6.5,6.3c5.5,0.8,6.5,6.3,6.5,6.3s1.1-5.5,6.5-6.3
	C243.1,19.1,242,13.5,242,13.5"/>
<path id="XMLID_205_" class="st0" d="M237.9,44.1c0,0-1.1,5.5-6.5,6.3c5.5,0.8,6.5,6.3,6.5,6.3s1.1-5.5,6.5-6.3
	C239,49.6,237.9,44.1,237.9,44.1"/>
<path id="XMLID_202_" class="st0" d="M214.1,28.6c0,0-2.6,13.5-16,15.5c13.5,2,16,15.5,16,15.5s2.6-13.5,16-15.5
	C216.7,42.1,214.1,28.6,214.1,28.6 M214.1,32.7c0.5,1.1,1.1,2.3,1.9,3.5c2.3,3.6,5.5,6.3,9.3,7.8c-3.8,1.5-6.9,4.2-9.3,7.8
	c-0.8,1.2-1.4,2.5-1.9,3.5c-0.5-1.1-1.1-2.3-1.9-3.5c-2.3-3.6-5.5-6.3-9.3-7.8c3.8-1.5,6.9-4.2,9.3-7.8
	C213,35,213.7,33.8,214.1,32.7"/>
<path id="XMLID_201_" class="st3" d="M228.1,35.6c-0.6-1.3-1.7-2.9-3.7-3.9c2-0.9,3.1-2.6,3.7-3.9c0.6,1.3,1.7,2.9,3.7,3.9
	C229.8,32.7,228.7,34.3,228.1,35.6z"/>
<circle id="XMLID_200_" class="st1" cx="227" cy="60.2" r="3.2"/>
<g id="XMLID_15_">
	<g id="XMLID_17_">
		<path id="XMLID_107_" class="st4" d="M36.4,14.9c-1.2,0-2.2,0.4-2.9,1.2c-0.7,0.8-1.1,1.9-1.1,3.4c0,1.5,0.3,2.6,1,3.4
			c0.7,0.8,1.7,1.2,2.9,1.2c0.8,0,1.7-0.2,2.7-0.5v1.3c-0.5,0.2-1,0.3-1.4,0.4s-1,0.1-1.5,0.1c-1.7,0-3-0.5-3.9-1.5
			s-1.4-2.5-1.4-4.3c0-1.2,0.2-2.2,0.7-3.1c0.4-0.9,1.1-1.6,1.9-2c0.8-0.5,1.8-0.7,2.9-0.7c1.2,0,2.3,0.2,3.2,0.7L39,15.5
			C38.1,15.1,37.2,14.9,36.4,14.9z"/>
		<path id="XMLID_103_" class="st4" d="M46.7,25.2L46.4,24h-0.1c-0.4,0.5-0.9,0.9-1.3,1.1s-1,0.3-1.6,0.3c-0.8,0-1.5-0.2-2-0.7
			c-0.5-0.4-0.7-1.1-0.7-1.9c0-1.7,1.4-2.7,4.1-2.7l1.5-0.1v-0.5c0-0.7-0.1-1.1-0.4-1.4c-0.3-0.3-0.7-0.5-1.4-0.5
			c-0.5,0-0.9,0.1-1.3,0.2c-0.4,0.1-0.8,0.3-1.1,0.5l-0.4-1.1c0.4-0.2,0.9-0.4,1.4-0.5c0.5-0.1,1-0.2,1.5-0.2c1,0,1.8,0.2,2.3,0.7
			c0.5,0.5,0.8,1.2,0.8,2.2v5.8H46.7z M43.8,24.2c0.8,0,1.4-0.2,1.9-0.6c0.5-0.4,0.7-1,0.7-1.8V21L45.1,21c-1,0-1.7,0.2-2.2,0.5
			c-0.5,0.3-0.7,0.7-0.7,1.3c0,0.4,0.1,0.8,0.4,1C42.9,24.1,43.3,24.2,43.8,24.2z M43.4,15.3c0.2-0.3,0.4-0.6,0.8-1.1
			s0.6-0.9,0.8-1.3h1.7v0.2c-0.2,0.3-0.6,0.8-1.1,1.3c-0.5,0.5-0.9,0.9-1.2,1.1h-0.9V15.3z"/>
		<path id="XMLID_101_" class="st4" d="M53.8,25.3c-1.2,0-2.2-0.4-2.9-1.1s-1-1.8-1-3.3c0-1.4,0.3-2.5,1-3.3c0.7-0.8,1.7-1.2,3-1.2
			c0.4,0,0.8,0,1.2,0.1s0.7,0.2,1,0.3l-0.4,1.2c-0.7-0.3-1.3-0.4-1.9-0.4c-0.9,0-1.5,0.3-1.9,0.8c-0.4,0.5-0.6,1.4-0.6,2.4
			c0,1,0.2,1.8,0.6,2.4c0.4,0.5,1,0.8,1.8,0.8c0.8,0,1.5-0.2,2.2-0.5v1.3C55.4,25.2,54.7,25.3,53.8,25.3z"/>
		<path id="XMLID_99_" class="st4" d="M67.8,22.8c0,0.8-0.3,1.4-0.9,1.9c-0.6,0.4-1.4,0.7-2.5,0.7c-1.1,0-2-0.2-2.7-0.5v-1.3
			c0.9,0.5,1.9,0.7,2.7,0.7c0.7,0,1.2-0.1,1.5-0.3c0.3-0.2,0.5-0.5,0.5-0.9c0-0.3-0.2-0.6-0.5-0.9s-0.9-0.5-1.7-0.8
			c-0.8-0.3-1.4-0.6-1.7-0.8c-0.3-0.2-0.6-0.5-0.7-0.7c-0.2-0.3-0.2-0.6-0.2-1c0-0.7,0.3-1.3,0.9-1.7s1.4-0.6,2.4-0.6
			c1,0,1.9,0.2,2.7,0.6l-0.5,1.1c-0.9-0.4-1.7-0.5-2.4-0.5c-0.6,0-1,0.1-1.3,0.3c-0.3,0.2-0.5,0.4-0.5,0.8c0,0.3,0.1,0.6,0.4,0.8
			c0.3,0.2,0.9,0.5,1.8,0.9c0.7,0.3,1.2,0.5,1.6,0.7c0.3,0.2,0.6,0.5,0.8,0.8C67.7,22.1,67.8,22.4,67.8,22.8z"/>
		<path id="XMLID_96_" class="st4" d="M71.2,16.6v5.5c0,0.7,0.2,1.2,0.5,1.5s0.8,0.5,1.4,0.5c0.9,0,1.5-0.2,1.9-0.7
			c0.4-0.5,0.6-1.3,0.6-2.4v-4.5h1.4v0.9c0.4-0.1,0.7-0.3,0.9-0.6c0.2-0.3,0.3-0.9,0.3-1.7h1.5l0.1,0.2c-0.2,1-0.5,1.7-0.9,2.2
			s-1.1,0.8-1.9,0.9v6.6h-1.2L75.7,24h-0.1c-0.3,0.4-0.6,0.7-1.1,1s-1,0.3-1.6,0.3c-1,0-1.8-0.2-2.4-0.7c-0.5-0.5-0.8-1.3-0.8-2.4
			v-5.6H71.2z M72.4,27.1c0-0.3,0.1-0.5,0.2-0.7c0.2-0.1,0.4-0.2,0.6-0.2c0.2,0,0.4,0.1,0.6,0.2c0.2,0.1,0.2,0.4,0.2,0.7
			c0,0.3-0.1,0.5-0.2,0.7c-0.2,0.2-0.4,0.2-0.6,0.2c-0.3,0-0.5-0.1-0.6-0.2S72.4,27.4,72.4,27.1z"/>
		<path id="XMLID_94_" class="st4" d="M86.2,20.8l0.5-0.6l0.5-0.7l2.7-2.9h1.6l-3.5,3.7l3.7,4.9h-1.7l-3-4l-1,0.9v3.1h-1.4V13h1.4
			v6.4V20.8L86.2,20.8z"/>
		<path id="XMLID_91_" class="st4" d="M93.3,14.3c0-0.3,0.1-0.5,0.2-0.7s0.4-0.2,0.6-0.2c0.2,0,0.4,0.1,0.6,0.2s0.2,0.4,0.2,0.7
			c0,0.3-0.1,0.5-0.2,0.7c-0.2,0.1-0.4,0.2-0.6,0.2c-0.2,0-0.4-0.1-0.6-0.2C93.3,14.8,93.3,14.6,93.3,14.3z M94.8,25.2h-1.4v-8.6
			h1.4V25.2z"/>
		<path id="XMLID_86_" class="st4" d="M101.1,25.3c-1.3,0-2.3-0.4-3-1.2C97.4,23.4,97,22.3,97,21c0-1.4,0.3-2.5,1-3.3
			c0.7-0.8,1.6-1.2,2.8-1.2c1.1,0,1.9,0.3,2.6,1s1,1.6,1,2.8v0.9h-5.9c0,1,0.3,1.7,0.7,2.2c0.5,0.5,1.1,0.8,2,0.8
			c0.5,0,0.9,0,1.3-0.1c0.4-0.1,0.9-0.2,1.4-0.5v1.2c-0.5,0.2-0.9,0.3-1.3,0.4S101.7,25.3,101.1,25.3z M98.1,15.3
			c0.7-0.7,1.1-1.2,1.4-1.5c0.3-0.3,0.5-0.6,0.6-0.8h1.4c0.3,0.5,0.9,1.3,2,2.4v0.2h-1c-0.5-0.3-1-0.8-1.7-1.4
			c-0.7,0.7-1.3,1.1-1.7,1.4h-1V15.3z M100.8,17.6c-0.7,0-1.2,0.2-1.6,0.6c-0.4,0.4-0.6,1-0.7,1.8h4.4c0-0.8-0.2-1.4-0.6-1.8
			C101.9,17.8,101.4,17.6,100.8,17.6z M99.9,27.1c0-0.3,0.1-0.5,0.2-0.7c0.2-0.1,0.4-0.2,0.6-0.2c0.2,0,0.4,0.1,0.6,0.2
			c0.2,0.1,0.2,0.4,0.2,0.7c0,0.3-0.1,0.5-0.2,0.7c-0.2,0.2-0.4,0.2-0.6,0.2c-0.3,0-0.5-0.1-0.6-0.2S99.9,27.4,99.9,27.1z"/>
		<path id="XMLID_84_" class="st4" d="M112.4,25.2v-5.5c0-0.7-0.2-1.2-0.5-1.6c-0.3-0.3-0.8-0.5-1.5-0.5c-0.9,0-1.5,0.2-1.9,0.7
			c-0.4,0.5-0.6,1.3-0.6,2.4v4.4h-1.4v-8.6h1.1l0.2,1.2h0.1c0.3-0.4,0.6-0.7,1.1-1c0.5-0.2,1-0.3,1.6-0.3c1.1,0,1.8,0.3,2.3,0.8
			c0.5,0.5,0.8,1.3,0.8,2.4v5.6H112.4z"/>
		<path id="XMLID_81_" class="st4" d="M123.6,25.3c-1.1,0-2-0.4-2.6-1.1s-0.9-1.8-0.9-3.3c0-1.4,0.3-2.5,0.9-3.3
			c0.6-0.8,1.5-1.2,2.6-1.2c1.2,0,2.1,0.4,2.7,1.3h0.1c0-0.1,0-0.3-0.1-0.5c0-0.3,0-0.5,0-0.7v-1h-3.4v-1.1h3.4V13h1.4v1.4h1.2v1.1
			h-1.2v9.7h-1.1l-0.2-1.1h-0.1C125.7,24.9,124.8,25.3,123.6,25.3z M123.8,24.2c0.8,0,1.5-0.2,1.9-0.7s0.6-1.2,0.6-2.3v-0.3
			c0-1.2-0.2-2-0.6-2.5c-0.4-0.5-1-0.7-1.9-0.7c-0.7,0-1.3,0.3-1.7,0.8c-0.4,0.6-0.6,1.4-0.6,2.5c0,1,0.2,1.8,0.6,2.4
			C122.5,23.9,123.1,24.2,123.8,24.2z"/>
		<path id="XMLID_76_" class="st4" d="M135.7,25.2l-0.3-1.2h-0.1c-0.4,0.5-0.9,0.9-1.3,1.1s-1,0.3-1.6,0.3c-0.8,0-1.5-0.2-2-0.7
			c-0.5-0.4-0.7-1.1-0.7-1.9c0-1.7,1.4-2.7,4.1-2.7l1.5-0.1v-0.5c0-0.7-0.1-1.1-0.4-1.4c-0.3-0.3-0.7-0.5-1.4-0.5
			c-0.5,0-0.9,0.1-1.3,0.2c-0.4,0.1-0.8,0.3-1.1,0.5l-0.4-1.1c0.4-0.2,0.9-0.4,1.4-0.5c0.5-0.1,1-0.2,1.5-0.2c1,0,1.8,0.2,2.3,0.7
			c0.5,0.5,0.8,1.2,0.8,2.2v5.8H135.7z M133.5,15.5c-0.7,0-1.3-0.2-1.7-0.5s-0.7-0.9-0.7-1.6h0.9c0,0.4,0.2,0.6,0.4,0.8
			c0.2,0.2,0.6,0.2,1.2,0.2c0.5,0,0.9-0.1,1.2-0.2s0.4-0.4,0.4-0.8h0.9c-0.1,0.7-0.3,1.2-0.8,1.6S134.2,15.5,133.5,15.5z
			 M132.8,24.2c0.8,0,1.4-0.2,1.9-0.6c0.5-0.4,0.7-1,0.7-1.8V21l-1.3,0.1c-1,0-1.7,0.2-2.2,0.5c-0.5,0.3-0.7,0.7-0.7,1.3
			c0,0.4,0.1,0.8,0.4,1C132,24.1,132.3,24.2,132.8,24.2z M132.4,27.1c0-0.3,0.1-0.5,0.2-0.7c0.2-0.1,0.4-0.2,0.6-0.2
			c0.2,0,0.4,0.1,0.6,0.2c0.2,0.1,0.2,0.4,0.2,0.7c0,0.3-0.1,0.5-0.2,0.7c-0.2,0.2-0.4,0.2-0.6,0.2c-0.3,0-0.5-0.1-0.6-0.2
			S132.4,27.4,132.4,27.1z"/>
		<path id="XMLID_74_" class="st4" d="M142.8,25.3c-1.2,0-2.2-0.4-2.9-1.1s-1-1.8-1-3.3c0-1.4,0.3-2.5,1-3.3c0.7-0.8,1.7-1.2,3-1.2
			c0.4,0,0.8,0,1.2,0.1s0.7,0.2,1,0.3l-0.4,1.2c-0.7-0.3-1.3-0.4-1.9-0.4c-0.9,0-1.5,0.3-1.9,0.8c-0.4,0.5-0.6,1.4-0.6,2.4
			c0,1,0.2,1.8,0.6,2.4c0.4,0.5,1,0.8,1.8,0.8c0.8,0,1.5-0.2,2.2-0.5v1.3C144.5,25.2,143.7,25.3,142.8,25.3z"/>
		<path id="XMLID_71_" class="st4" d="M155.3,16.5c1.1,0,2,0.4,2.6,1.2c0.6,0.8,0.9,1.9,0.9,3.3c0,1.4-0.3,2.5-0.9,3.3
			s-1.5,1.2-2.6,1.2c-0.6,0-1.1-0.1-1.5-0.3s-0.8-0.5-1.1-0.9h-0.1c-0.2,0.6-0.3,1-0.3,1.1h-1V13h1.4v3c0,0.6,0,1.2-0.1,1.8h0.1
			C153.2,16.9,154.1,16.5,155.3,16.5z M155.1,17.6c-0.9,0-1.5,0.2-1.9,0.7c-0.4,0.5-0.6,1.3-0.6,2.5v0.1c0,1.2,0.2,2,0.6,2.5
			c0.4,0.5,1,0.8,1.9,0.8c0.8,0,1.3-0.3,1.7-0.8c0.4-0.6,0.6-1.4,0.6-2.4c0-1.1-0.2-1.9-0.6-2.4C156.4,17.9,155.9,17.6,155.1,17.6z"
			/>
		<path id="XMLID_68_" class="st4" d="M161,14.3c0-0.3,0.1-0.5,0.2-0.7s0.4-0.2,0.6-0.2c0.2,0,0.4,0.1,0.6,0.2s0.2,0.4,0.2,0.7
			c0,0.3-0.1,0.5-0.2,0.7c-0.2,0.1-0.4,0.2-0.6,0.2c-0.2,0-0.4-0.1-0.6-0.2C161.1,14.8,161,14.6,161,14.3z M162.5,25.2h-1.4v-8.6
			h1.4V25.2z"/>
		<path id="XMLID_63_" class="st4" d="M168.9,25.3c-1.3,0-2.3-0.4-3-1.2c-0.7-0.8-1.1-1.9-1.1-3.2c0-1.4,0.3-2.5,1-3.3
			c0.7-0.8,1.6-1.2,2.8-1.2c1.1,0,1.9,0.3,2.6,1s1,1.6,1,2.8v0.9h-5.9c0,1,0.3,1.7,0.7,2.2c0.5,0.5,1.1,0.8,2,0.8
			c0.5,0,0.9,0,1.3-0.1c0.4-0.1,0.9-0.2,1.4-0.5v1.2c-0.5,0.2-0.9,0.3-1.3,0.4S169.4,25.3,168.9,25.3z M165.8,15.3
			c0.7-0.7,1.1-1.2,1.4-1.5c0.3-0.3,0.5-0.6,0.6-0.8h1.4c0.3,0.5,0.9,1.3,2,2.4v0.2h-1c-0.5-0.3-1-0.8-1.7-1.4
			c-0.7,0.7-1.3,1.1-1.7,1.4h-1V15.3z M168.5,17.6c-0.7,0-1.2,0.2-1.6,0.6c-0.4,0.4-0.6,1-0.7,1.8h4.4c0-0.8-0.2-1.4-0.6-1.8
			C169.7,17.8,169.2,17.6,168.5,17.6z M167.6,27.1c0-0.3,0.1-0.5,0.2-0.7c0.2-0.1,0.4-0.2,0.6-0.2c0.2,0,0.4,0.1,0.6,0.2
			c0.2,0.1,0.2,0.4,0.2,0.7c0,0.3-0.1,0.5-0.2,0.7c-0.2,0.2-0.4,0.2-0.6,0.2c-0.3,0-0.5-0.1-0.6-0.2S167.6,27.4,167.6,27.1z"/>
		<path id="XMLID_61_" class="st4" d="M177.1,24.2c0.2,0,0.4,0,0.6-0.1c0.2,0,0.4-0.1,0.6-0.1v1.1c-0.1,0.1-0.3,0.1-0.6,0.2
			s-0.6,0.1-0.8,0.1c-1.7,0-2.5-0.9-2.5-2.6v-5h-1.2V17l1.2-0.6l0.6-1.8h0.8v2h2.5v1.1h-2.5v5c0,0.5,0.1,0.9,0.4,1.1
			S176.7,24.2,177.1,24.2z"/>
		<path id="XMLID_59_" class="st4" d="M181.6,23.3l0.1,0.2c-0.3,1.1-0.7,2.4-1.4,3.7h-1c0.3-1.3,0.6-2.6,0.8-3.9H181.6z"/>
		<path id="XMLID_57_" class="st4" d="M190.3,25.2l-3.3-8.6h1.5l1.8,5.1c0.4,1,0.6,1.8,0.7,2.3h0.1c0-0.1,0-0.1,0.1-0.2
			s0.1-0.2,0.1-0.3s0.2-0.7,0.6-1.8l1.8-5.1h1.5l-3.3,8.6H190.3z"/>
		<path id="XMLID_54_" class="st4" d="M196.5,15.3c0.2-0.3,0.4-0.6,0.8-1.1s0.6-0.9,0.8-1.3h1.7v0.2c-0.2,0.3-0.6,0.8-1.1,1.3
			c-0.5,0.5-0.9,0.9-1.2,1.1h-0.9V15.3z M198,25.2h-1.4v-8.6h1.4V25.2z"/>
		<path id="XMLID_51_" class="st4" d="M34.3,42.2c-1.1,0-2-0.4-2.6-1.2c-0.6-0.8-0.9-1.9-0.9-3.3c0-1.4,0.3-2.5,0.9-3.3
			c0.6-0.8,1.5-1.2,2.6-1.2c1.2,0,2,0.4,2.7,1.3h0.1c0-0.1,0-0.3-0.1-0.6c0-0.3,0-0.5,0-0.6v-3.4h1.4v12.2h-1.1l-0.2-1.1H37
			C36.4,41.8,35.5,42.2,34.3,42.2z M34.6,41.1c0.9,0,1.5-0.2,1.9-0.7c0.4-0.5,0.6-1.2,0.6-2.3v-0.3c0-1.2-0.2-2-0.6-2.6
			s-1-0.8-1.9-0.8c-0.7,0-1.3,0.3-1.7,0.9c-0.4,0.6-0.6,1.4-0.6,2.5c0,1.1,0.2,1.9,0.6,2.4S33.8,41.1,34.6,41.1z"/>
		<path id="XMLID_48_" class="st4" d="M42.5,33.5V39c0,0.7,0.2,1.2,0.5,1.5s0.8,0.5,1.4,0.5c0.9,0,1.5-0.2,1.9-0.7
			c0.4-0.5,0.6-1.3,0.6-2.4v-4.5h1.4v8.6h-1.2l-0.2-1.1h-0.1c-0.3,0.4-0.6,0.7-1.1,1s-1,0.3-1.6,0.3c-1,0-1.8-0.2-2.3-0.7
			C41.3,41,41,40.2,41,39.1v-5.6H42.5z M43.7,44c0-0.3,0.1-0.5,0.2-0.7c0.2-0.1,0.4-0.2,0.6-0.2c0.2,0,0.4,0.1,0.6,0.2
			c0.2,0.1,0.2,0.4,0.2,0.7c0,0.3-0.1,0.5-0.2,0.7c-0.2,0.2-0.4,0.2-0.6,0.2c-0.3,0-0.5-0.1-0.6-0.2S43.7,44.3,43.7,44z"/>
		<path id="XMLID_46_" class="st4" d="M61,42.1v-5.5c0-0.7-0.2-1.2-0.5-1.6c-0.3-0.3-0.8-0.5-1.5-0.5c-0.9,0-1.5,0.2-1.9,0.7
			c-0.4,0.5-0.6,1.3-0.6,2.4v4.4h-1.4v-8.6h1.1l0.2,1.2h0.1c0.3-0.4,0.6-0.7,1.1-1c0.5-0.2,1-0.3,1.6-0.3c1.1,0,1.8,0.3,2.3,0.8
			c0.5,0.5,0.8,1.3,0.8,2.4v5.6H61z"/>
		<path id="XMLID_44_" class="st4" d="M70.9,42.1v-5.5c0-0.7-0.2-1.2-0.5-1.6c-0.3-0.3-0.8-0.5-1.5-0.5c-0.9,0-1.5,0.2-1.9,0.7
			s-0.6,1.3-0.6,2.4v4.4h-1.4V29.9h1.4v3.6c0,0.5,0,0.9-0.1,1.2h0.1c0.3-0.4,0.6-0.7,1.1-1s1-0.4,1.6-0.4c1,0,1.8,0.2,2.4,0.7
			c0.5,0.5,0.8,1.3,0.8,2.4v5.6H70.9z"/>
		<path id="XMLID_42_" class="st4" d="M76.3,33.5V39c0,0.7,0.2,1.2,0.5,1.5s0.8,0.5,1.4,0.5c0.9,0,1.5-0.2,1.9-0.7
			c0.4-0.5,0.6-1.3,0.6-2.4v-4.5h1.4v0.9c0.4-0.1,0.7-0.3,0.9-0.6c0.2-0.3,0.3-0.9,0.3-1.7h1.5l0.1,0.2c-0.2,1-0.5,1.7-0.9,2.2
			s-1.1,0.8-1.9,0.9v6.6H81l-0.2-1.1h-0.1c-0.3,0.4-0.6,0.7-1.1,1s-1,0.3-1.6,0.3c-1,0-1.8-0.2-2.4-0.7c-0.5-0.5-0.8-1.3-0.8-2.4
			v-5.6H76.3z"/>
		<path id="XMLID_40_" class="st4" d="M88.5,30.6h1.5l2.6,7.3c0.3,0.9,0.6,1.8,0.7,2.5c0.1-0.7,0.4-1.5,0.7-2.5l2.6-7.3h1.5
			l-4.1,11.4h-1.4L88.5,30.6z"/>
		<path id="XMLID_37_" class="st4" d="M104.6,42.1l-0.3-1.2h-0.1c-0.4,0.5-0.9,0.9-1.3,1.1s-1,0.3-1.6,0.3c-0.8,0-1.5-0.2-2-0.7
			c-0.5-0.4-0.7-1.1-0.7-1.9c0-1.7,1.4-2.7,4.1-2.7l1.5-0.1v-0.5c0-0.7-0.1-1.1-0.4-1.4c-0.3-0.3-0.7-0.5-1.4-0.5
			c-0.5,0-0.9,0.1-1.3,0.2c-0.4,0.1-0.8,0.3-1.1,0.5l-0.4-1.1c0.4-0.2,0.9-0.4,1.4-0.5c0.5-0.1,1-0.2,1.5-0.2c1,0,1.8,0.2,2.3,0.7
			c0.5,0.5,0.8,1.2,0.8,2.2v5.8H104.6z M101.7,41.1c0.8,0,1.4-0.2,1.9-0.6c0.5-0.4,0.7-1,0.7-1.8v-0.8l-1.3,0.1
			c-1,0-1.7,0.2-2.2,0.5c-0.5,0.3-0.7,0.7-0.7,1.3c0,0.4,0.1,0.8,0.4,1C100.9,41,101.3,41.1,101.7,41.1z"/>
		<path id="XMLID_35_" class="st4" d="M109.7,42.1h-1.4V29.9h1.4V42.1z"/>
		<path id="XMLID_32_" class="st4" d="M116.1,42.2c-1.3,0-2.3-0.4-3-1.2c-0.7-0.8-1.1-1.9-1.1-3.2c0-1.4,0.3-2.5,1-3.3
			c0.7-0.8,1.6-1.2,2.8-1.2c1.1,0,1.9,0.3,2.6,1s1,1.6,1,2.8v0.9h-5.9c0,1,0.3,1.7,0.7,2.2c0.5,0.5,1.1,0.8,2,0.8
			c0.5,0,0.9,0,1.3-0.1c0.4-0.1,0.9-0.2,1.4-0.5v1.2c-0.5,0.2-0.9,0.3-1.3,0.4S116.7,42.2,116.1,42.2z M115.7,34.5
			c-0.7,0-1.2,0.2-1.6,0.6c-0.4,0.4-0.6,1-0.7,1.8h4.4c0-0.8-0.2-1.4-0.6-1.8C116.9,34.7,116.4,34.5,115.7,34.5z"/>
		<path id="XMLID_30_" class="st4" d="M127.3,42.1v-5.5c0-0.7-0.2-1.2-0.5-1.6c-0.3-0.3-0.8-0.5-1.5-0.5c-0.9,0-1.5,0.2-1.9,0.7
			c-0.4,0.5-0.6,1.3-0.6,2.4v4.4h-1.4v-8.6h1.1l0.2,1.2h0.1c0.3-0.4,0.6-0.7,1.1-1c0.5-0.2,1-0.3,1.6-0.3c1.1,0,1.8,0.3,2.3,0.8
			c0.5,0.5,0.8,1.3,0.8,2.4v5.6H127.3z"/>
		<path id="XMLID_28_" class="st4" d="M134.2,41.1c0.2,0,0.4,0,0.6-0.1c0.2,0,0.4-0.1,0.6-0.1V42c-0.1,0.1-0.3,0.1-0.6,0.2
			s-0.6,0.1-0.8,0.1c-1.7,0-2.5-0.9-2.5-2.6v-5h-1.2v-0.7l1.2-0.6l0.6-1.8h0.8v2h2.5v1.1h-2.5v5c0,0.5,0.1,0.9,0.4,1.1
			S133.8,41.1,134.2,41.1z"/>
		<path id="XMLID_25_" class="st4" d="M137,31.2c0-0.3,0.1-0.5,0.2-0.7s0.4-0.2,0.6-0.2c0.2,0,0.4,0.1,0.6,0.2s0.2,0.4,0.2,0.7
			c0,0.3-0.1,0.5-0.2,0.7c-0.2,0.1-0.4,0.2-0.6,0.2c-0.2,0-0.4-0.1-0.6-0.2C137.1,31.7,137,31.5,137,31.2z M138.5,42.1h-1.4v-8.6
			h1.4V42.1z"/>
		<path id="XMLID_23_" class="st4" d="M147.1,42.1v-5.5c0-0.7-0.2-1.2-0.5-1.6c-0.3-0.3-0.8-0.5-1.5-0.5c-0.9,0-1.5,0.2-1.9,0.7
			c-0.4,0.5-0.6,1.3-0.6,2.4v4.4h-1.4v-8.6h1.1l0.2,1.2h0.1c0.3-0.4,0.6-0.7,1.1-1c0.5-0.2,1-0.3,1.6-0.3c1.1,0,1.8,0.3,2.3,0.8
			c0.5,0.5,0.8,1.3,0.8,2.4v5.6H147.1z"/>
		<path id="XMLID_20_" class="st4" d="M154.8,42.2c-1.3,0-2.3-0.4-3-1.2c-0.7-0.8-1.1-1.9-1.1-3.2c0-1.4,0.3-2.5,1-3.3
			c0.7-0.8,1.6-1.2,2.8-1.2c1.1,0,1.9,0.3,2.6,1s1,1.6,1,2.8v0.9h-5.9c0,1,0.3,1.7,0.7,2.2c0.5,0.5,1.1,0.8,2,0.8
			c0.5,0,0.9,0,1.3-0.1c0.4-0.1,0.9-0.2,1.4-0.5v1.2c-0.5,0.2-0.9,0.3-1.3,0.4S155.4,42.2,154.8,42.2z M154.4,34.5
			c-0.7,0-1.2,0.2-1.6,0.6c-0.4,0.4-0.6,1-0.7,1.8h4.4c0-0.8-0.2-1.4-0.6-1.8C155.6,34.7,155.1,34.5,154.4,34.5z"/>
		<path id="XMLID_18_" class="st4" d="M160,41.2c0-0.3,0.1-0.6,0.3-0.8c0.2-0.2,0.4-0.3,0.7-0.3c0.3,0,0.6,0.1,0.7,0.3
			c0.2,0.2,0.3,0.4,0.3,0.8c0,0.3-0.1,0.6-0.3,0.8s-0.4,0.3-0.7,0.3c-0.3,0-0.5-0.1-0.7-0.3S160,41.5,160,41.2z"/>
	</g>
</g>
</svg>