<!-- Generator: Adobe Illustrator 19.0.0, SVG Export Plug-In  -->
<svg version="1.1"
	 xmlns="http://www.w3.org/2000/svg" xmlns:xlink="http://www.w3.org/1999/xlink" xmlns:a="http://ns.adobe.com/AdobeSVGViewerExtensions/3.0/"
	 x="0px" y="0px" width="281px" height="67.8px" viewBox="0 0 281 67.8" style="enable-background:new 0 0 281 67.8;"
	 xml:space="preserve">
<style type="text/css">
	.st0{fill:none;stroke:#FFFFFF;stroke-width:2;stroke-linecap:round;stroke-linejoin:round;stroke-miterlimit:10;}
	.st1{fill:none;stroke:#FF6633;stroke-width:2;stroke-miterlimit:10;}
	.st2{fill:none;stroke:#FFFFFF;stroke-width:2.2793;stroke-linecap:round;stroke-linejoin:round;stroke-miterlimit:10;}
	.st3{fill:#FF6633;}
	.st4{fill:#FFFFFF;}
</style>
<defs>
</defs>
<g id="XMLID_234_">
	<rect id="XMLID_239_" x="238" y="27.8" class="st0" width="39" height="39"/>
	<rect id="XMLID_238_" x="233" y="19.8" class="st0" width="47" height="8"/>
	<rect id="XMLID_237_" x="253" y="19.8" class="st1" width="8" height="47"/>
	<path id="XMLID_236_" class="st2" d="M255.7,17c0,0-12.9,0.5-16.4-1.9c-3.5-2.4-4.4-7.2-2-10.7c2.4-3.5,7.2-4.4,10.7-2
		C251.5,4.9,255.7,17,255.7,17z"/>
	<path id="XMLID_235_" class="st2" d="M256.6,17c0,0,12.9,0.5,16.4-1.9c3.5-2.4,4.4-7.2,2-10.7c-2.4-3.5-7.2-4.4-10.7-2
		C260.8,4.9,256.6,17,256.6,17z"/>
</g>
<circle id="XMLID_233_" class="st3" cx="8.4" cy="16.5" r="8.4"/>
<g id="XMLID_230_">
	<path id="XMLID_231_" class="st4" d="M11,19.8H5V19l2-2.2c0.6-0.7,1-1.1,1.2-1.4s0.3-0.5,0.4-0.7s0.1-0.4,0.1-0.7
		c0-0.3-0.1-0.6-0.3-0.8S7.9,13,7.6,13c-0.3,0-0.7,0.1-1,0.2s-0.6,0.4-1,0.7l-1-1.2c0.4-0.4,0.8-0.6,1-0.8s0.6-0.3,0.9-0.3
		s0.7-0.1,1.1-0.1c0.5,0,1,0.1,1.4,0.3s0.7,0.5,1,0.8s0.3,0.8,0.3,1.2c0,0.4-0.1,0.8-0.2,1.1S9.9,15.7,9.6,16s-0.8,0.9-1.5,1.6
		l-1.1,1v0.2h4V19.8z"/>
</g>
<g id="XMLID_15_">
	<g id="XMLID_17_">
		<path id="XMLID_122_" class="st4" d="M33.8,22h-2.4v-9.4h-3.1v-2h8.6v2h-3.1V22z"/>
		<path id="XMLID_120_" class="st4" d="M42.9,13.1c0.3,0,0.6,0,0.8,0.1l-0.2,2.2c-0.2-0.1-0.4-0.1-0.7-0.1c-0.8,0-1.4,0.2-1.8,0.6
			s-0.6,0.9-0.6,1.6V22h-2.4v-8.7h1.8l0.4,1.5h0.1c0.3-0.5,0.6-0.9,1.1-1.2C41.9,13.2,42.4,13.1,42.9,13.1z"/>
		<path id="XMLID_117_" class="st4" d="M53.1,17.6c0,1.4-0.4,2.5-1.1,3.3c-0.8,0.8-1.8,1.2-3.1,1.2c-0.8,0-1.6-0.2-2.2-0.6
			s-1.1-0.9-1.5-1.6s-0.5-1.5-0.5-2.4c0-1.4,0.4-2.5,1.1-3.3c0.7-0.8,1.8-1.2,3.1-1.2c0.8,0,1.6,0.2,2.2,0.5
			c0.6,0.4,1.1,0.9,1.5,1.6C52.9,15.9,53.1,16.7,53.1,17.6z M47.1,17.6c0,0.9,0.1,1.5,0.4,2c0.3,0.4,0.7,0.7,1.4,0.7
			c0.6,0,1.1-0.2,1.4-0.7c0.3-0.4,0.4-1.1,0.4-2c0-0.9-0.1-1.5-0.4-1.9C50,15.2,49.5,15,48.9,15c-0.6,0-1.1,0.2-1.4,0.6
			S47.1,16.7,47.1,17.6z"/>
		<path id="XMLID_115_" class="st4" d="M63.1,22h-2.4v-5.1c0-0.6-0.1-1.1-0.3-1.4c-0.2-0.3-0.6-0.5-1.1-0.5c-0.7,0-1.1,0.2-1.4,0.7
			s-0.4,1.2-0.4,2.2V22h-2.4v-8.7h1.8l0.3,1.1h0.1c0.3-0.4,0.6-0.7,1.1-1c0.5-0.2,1-0.3,1.6-0.3c1,0,1.8,0.3,2.3,0.8
			c0.5,0.5,0.8,1.3,0.8,2.4V22z"/>
		<path id="XMLID_112_" class="st4" d="M73.2,22c0,1.3-0.4,2.2-1.1,2.9s-1.8,1-3.3,1c-1.3,0-2.4-0.2-3.3-0.5v-1.9
			c1.1,0.4,2.2,0.7,3.4,0.7c1.2,0,1.8-0.7,1.8-2v-0.2l0.1-1.1h-0.1c-0.6,0.9-1.4,1.3-2.5,1.3c-1,0-1.9-0.4-2.4-1.2
			c-0.6-0.8-0.9-1.9-0.9-3.3c0-1.4,0.3-2.5,0.9-3.3c0.6-0.8,1.4-1.2,2.5-1.2c1.1,0,1.9,0.4,2.5,1.3H71l0.2-1.1h2V22z M69.2,20.2
			c0.6,0,1.1-0.2,1.4-0.6s0.4-1,0.4-1.8v-0.3c0-0.9-0.1-1.6-0.4-2c-0.3-0.4-0.8-0.6-1.4-0.6c-1.1,0-1.7,0.9-1.7,2.6
			c0,0.9,0.1,1.5,0.4,2C68.2,20,68.6,20.2,69.2,20.2z"/>
		<path id="XMLID_110_" class="st4" d="M86,19.4c0,0.9-0.3,1.6-0.9,2s-1.6,0.7-2.8,0.7c-0.6,0-1.2,0-1.6-0.1s-0.9-0.2-1.3-0.4v-2
			c0.4,0.2,0.9,0.4,1.5,0.5s1,0.2,1.5,0.2c0.9,0,1.3-0.3,1.3-0.8c0-0.2-0.1-0.3-0.2-0.5s-0.3-0.3-0.6-0.4s-0.7-0.3-1.1-0.5
			c-0.7-0.3-1.2-0.5-1.5-0.8c-0.3-0.2-0.5-0.5-0.7-0.8c-0.1-0.3-0.2-0.7-0.2-1.1c0-0.8,0.3-1.4,0.9-1.8c0.6-0.4,1.5-0.6,2.6-0.6
			c1.1,0,2.1,0.2,3.1,0.7l-0.7,1.7c-0.4-0.2-0.8-0.3-1.2-0.5c-0.4-0.1-0.8-0.2-1.2-0.2c-0.7,0-1.1,0.2-1.1,0.6
			c0,0.2,0.1,0.4,0.3,0.6s0.7,0.4,1.5,0.7c0.7,0.3,1.2,0.5,1.5,0.8c0.3,0.2,0.6,0.5,0.7,0.8S86,18.9,86,19.4z"/>
		<path id="XMLID_108_" class="st4" d="M94,22l-0.3-1.1h-0.1c-0.3,0.4-0.6,0.7-1.1,0.9s-1,0.3-1.6,0.3c-1,0-1.8-0.3-2.3-0.8
			c-0.5-0.5-0.8-1.3-0.8-2.4v-5.7h2.4v5.1c0,0.6,0.1,1.1,0.3,1.4c0.2,0.3,0.6,0.5,1.1,0.5c0.7,0,1.1-0.2,1.4-0.7s0.4-1.2,0.4-2.2
			v-4.1h2.4V22H94z"/>
		<path id="XMLID_103_" class="st4" d="M106.3,17.6c0,1.4-0.4,2.5-1.1,3.3c-0.8,0.8-1.8,1.2-3.1,1.2c-0.8,0-1.6-0.2-2.2-0.6
			s-1.1-0.9-1.5-1.6s-0.5-1.5-0.5-2.4c0-1.4,0.4-2.5,1.1-3.3c0.7-0.8,1.8-1.2,3.1-1.2c0.8,0,1.6,0.2,2.2,0.5
			c0.6,0.4,1.1,0.9,1.5,1.6C106.1,15.9,106.3,16.7,106.3,17.6z M104.9,12.3h-1.3c-0.6-0.4-1.1-0.8-1.6-1.3c-0.6,0.5-1.1,1-1.6,1.3
			h-1.3V12c0.6-0.7,1.1-1.4,1.7-2.2h2.5c0.3,0.4,0.6,0.8,0.9,1.3s0.6,0.7,0.7,0.9V12.3z M100.2,17.6c0,0.9,0.1,1.5,0.4,2
			c0.3,0.4,0.7,0.7,1.4,0.7c0.6,0,1.1-0.2,1.4-0.7c0.3-0.4,0.4-1.1,0.4-2c0-0.9-0.1-1.5-0.4-1.9c-0.3-0.4-0.7-0.6-1.4-0.6
			c-0.6,0-1.1,0.2-1.4,0.6S100.2,16.7,100.2,17.6z M104.2,10.5c0.4-0.5,0.8-1,1.1-1.6h1.9v0.2c-0.3,0.5-0.9,1-1.8,1.6h-1.2V10.5z"/>
		<path id="XMLID_101_" class="st4" d="M111.9,20.2c0.4,0,0.9-0.1,1.5-0.3v1.8c-0.6,0.3-1.3,0.4-2.2,0.4c-1,0-1.6-0.2-2.1-0.7
			c-0.4-0.5-0.7-1.2-0.7-2.2V15h-1.1v-1l1.3-0.8l0.7-1.8h1.5v1.9h2.4V15h-2.4v4.2c0,0.3,0.1,0.6,0.3,0.8
			C111.4,20.1,111.6,20.2,111.9,20.2z"/>
		<path id="XMLID_99_" class="st4" d="M121.6,17.2l1-1.3l2.4-2.7h2.7l-3.5,3.8L128,22h-2.8l-2.5-3.5l-1,0.8V22h-2.4V9.8h2.4v5.4
			L121.6,17.2L121.6,17.2z"/>
		<path id="XMLID_96_" class="st4" d="M128,13.2h2.6l1.6,4.9c0.1,0.4,0.2,0.9,0.3,1.5h0c0.1-0.5,0.2-1,0.3-1.5l1.6-4.9h2.6l-3.7,9.9
			c-0.3,0.9-0.8,1.6-1.4,2s-1.4,0.7-2.2,0.7c-0.4,0-0.8,0-1.2-0.1v-1.9c0.3,0.1,0.6,0.1,0.9,0.1c0.4,0,0.8-0.1,1.1-0.4
			s0.6-0.6,0.7-1.2l0.1-0.4L128,13.2z M132.2,12.3c-0.3-0.2-0.8-0.6-1.4-1.1c-0.6-0.5-1.1-0.9-1.5-1.3V9.7h2.7
			c0.3,0.5,0.9,1.3,1.8,2.4v0.2H132.2z"/>
		<path id="XMLID_93_" class="st4" d="M145.3,22.1c-1,0-1.8-0.4-2.4-1.2c-0.6-0.8-0.9-1.9-0.9-3.3c0-1.4,0.3-2.5,0.9-3.3
			c0.6-0.8,1.4-1.2,2.4-1.2c0.6,0,1,0.1,1.4,0.3c0.4,0.2,0.8,0.5,1.1,1h0.1l0.2-1.1h2v12.6h-2.4v-3.7c0-0.3,0-0.8,0.1-1.3h-0.1
			c-0.3,0.4-0.6,0.7-1,1S145.8,22.1,145.3,22.1z M146.1,20.2c0.6,0,1-0.2,1.3-0.5c0.3-0.3,0.4-1,0.5-1.8v-0.3c0-0.9-0.1-1.6-0.4-2
			s-0.8-0.6-1.4-0.6c-1.1,0-1.7,0.9-1.7,2.6c0,0.9,0.1,1.5,0.4,2C145.1,20,145.6,20.2,146.1,20.2z"/>
		<path id="XMLID_91_" class="st4" d="M158.8,22l-0.3-1.1h-0.1c-0.3,0.4-0.6,0.7-1.1,0.9s-1,0.3-1.6,0.3c-1,0-1.8-0.3-2.3-0.8
			c-0.5-0.5-0.8-1.3-0.8-2.4v-5.7h2.4v5.1c0,0.6,0.1,1.1,0.3,1.4c0.2,0.3,0.6,0.5,1.1,0.5c0.7,0,1.1-0.2,1.4-0.7s0.4-1.2,0.4-2.2
			v-4.1h2.4V22H158.8z"/>
		<path id="XMLID_87_" class="st4" d="M168.7,22l-0.5-1.2h-0.1c-0.4,0.5-0.8,0.9-1.2,1.1s-1,0.3-1.7,0.3c-0.8,0-1.5-0.2-2-0.7
			c-0.5-0.5-0.7-1.2-0.7-2c0-0.9,0.3-1.6,1-2.1c0.6-0.4,1.6-0.7,2.9-0.7l1.5,0v-0.4c0-0.9-0.5-1.3-1.4-1.3c-0.7,0-1.5,0.2-2.5,0.6
			l-0.8-1.6c1-0.5,2.1-0.8,3.3-0.8c1.2,0,2.1,0.3,2.7,0.8c0.6,0.5,0.9,1.3,0.9,2.3V22H168.7z M168,17.9l-0.9,0
			c-0.7,0-1.2,0.1-1.5,0.4c-0.3,0.2-0.5,0.6-0.5,1c0,0.7,0.4,1,1.2,1c0.6,0,1-0.2,1.3-0.5c0.3-0.3,0.5-0.7,0.5-1.3V17.9z
			 M168.8,10.3c0,0.8-0.4,1.3-1.3,1.5l-0.1,0.6h-1.4l-0.2-1.1c0.4-0.1,0.7-0.2,0.8-0.3s0.2-0.3,0.2-0.5c0-0.2-0.1-0.3-0.2-0.4
			c-0.1-0.1-0.3-0.1-0.4-0.1c-0.3,0-0.7,0.1-1.1,0.2V8.8c0.2-0.1,0.4-0.1,0.6-0.1c0.3,0,0.5-0.1,0.7-0.1c0.7,0,1.3,0.1,1.6,0.4
			S168.8,9.8,168.8,10.3z"/>
		<path id="XMLID_85_" class="st4" d="M180.9,22h-2.4v-5.1c0-0.6-0.1-1.1-0.3-1.4c-0.2-0.3-0.6-0.5-1.1-0.5c-0.7,0-1.1,0.2-1.4,0.7
			s-0.4,1.2-0.4,2.2V22h-2.4v-8.7h1.8l0.3,1.1h0.1c0.3-0.4,0.6-0.7,1.1-1c0.5-0.2,1-0.3,1.6-0.3c1,0,1.8,0.3,2.3,0.8
			c0.5,0.5,0.8,1.3,0.8,2.4V22z"/>
		<path id="XMLID_82_" class="st4" d="M191,22c0,1.3-0.4,2.2-1.1,2.9s-1.8,1-3.3,1c-1.3,0-2.4-0.2-3.3-0.5v-1.9
			c1.1,0.4,2.2,0.7,3.4,0.7c1.2,0,1.8-0.7,1.8-2v-0.2l0.1-1.1h-0.1c-0.6,0.9-1.4,1.3-2.5,1.3c-1,0-1.9-0.4-2.4-1.2
			c-0.6-0.8-0.9-1.9-0.9-3.3c0-1.4,0.3-2.5,0.9-3.3c0.6-0.8,1.4-1.2,2.5-1.2c1.1,0,1.9,0.4,2.5,1.3h0.1l0.2-1.1h2V22z M187,20.2
			c0.6,0,1.1-0.2,1.4-0.6s0.4-1,0.4-1.8v-0.3c0-0.9-0.1-1.6-0.4-2c-0.3-0.4-0.8-0.6-1.4-0.6c-1.1,0-1.7,0.9-1.7,2.6
			c0,0.9,0.1,1.5,0.4,2C185.9,20,186.4,20.2,187,20.2z"/>
		<path id="XMLID_79_" class="st4" d="M202.5,13.1c1,0,1.8,0.4,2.4,1.2s0.9,1.9,0.9,3.3c0,1.4-0.3,2.6-0.9,3.4
			c-0.6,0.8-1.4,1.2-2.5,1.2c-1,0-1.8-0.4-2.4-1.1h-0.2l-0.4,1h-1.8V9.8h2.4v2.8c0,0.4,0,0.9-0.1,1.7h0.1
			C200.6,13.5,201.4,13.1,202.5,13.1z M201.7,15c-0.6,0-1,0.2-1.3,0.5c-0.3,0.4-0.4,1-0.4,1.8v0.3c0,0.9,0.1,1.6,0.4,2
			s0.7,0.6,1.3,0.6c0.5,0,0.9-0.2,1.2-0.7c0.3-0.5,0.4-1.1,0.4-2s-0.1-1.5-0.4-1.9S202.2,15,201.7,15z"/>
		<path id="XMLID_75_" class="st4" d="M213.3,22l-0.5-1.2h-0.1c-0.4,0.5-0.8,0.9-1.2,1.1s-1,0.3-1.7,0.3c-0.8,0-1.5-0.2-2-0.7
			c-0.5-0.5-0.7-1.2-0.7-2c0-0.9,0.3-1.6,1-2.1c0.6-0.4,1.6-0.7,2.9-0.7l1.5,0v-0.4c0-0.9-0.5-1.3-1.4-1.3c-0.7,0-1.5,0.2-2.5,0.6
			l-0.8-1.6c1-0.5,2.1-0.8,3.3-0.8c1.2,0,2.1,0.3,2.7,0.8c0.6,0.5,0.9,1.3,0.9,2.3V22H213.3z M212.6,17.9l-0.9,0
			c-0.7,0-1.2,0.1-1.5,0.4c-0.3,0.2-0.5,0.6-0.5,1c0,0.7,0.4,1,1.2,1c0.6,0,1-0.2,1.3-0.5c0.3-0.3,0.5-0.7,0.5-1.3V17.9z
			 M209.9,12.3V12c0.9-1,1.5-1.8,1.8-2.4h2.7v0.2c-0.3,0.3-0.7,0.7-1.4,1.2c-0.7,0.5-1.2,0.9-1.5,1.2H209.9z"/>
		<path id="XMLID_73_" class="st4" d="M32.7,39c-2.7,0-4.1-1.5-4.1-4.5c0-1.5,0.4-2.6,1.1-3.4c0.7-0.8,1.8-1.2,3.2-1.2
			c1,0,1.9,0.2,2.7,0.6L35,32.4c-0.4-0.2-0.7-0.3-1-0.4c-0.3-0.1-0.6-0.1-1-0.1c-1.2,0-1.9,0.9-1.9,2.6c0,1.7,0.6,2.6,1.9,2.6
			c0.5,0,0.9-0.1,1.3-0.2c0.4-0.1,0.8-0.3,1.2-0.6v2c-0.4,0.2-0.8,0.4-1.2,0.5S33.3,39,32.7,39z"/>
		<path id="XMLID_70_" class="st4" d="M43.6,38.8l-0.3-1.1h-0.1c-0.3,0.4-0.6,0.7-1.1,0.9s-1,0.3-1.6,0.3c-1,0-1.8-0.3-2.3-0.8
			c-0.5-0.5-0.8-1.3-0.8-2.4v-5.7h2.4v5.1c0,0.6,0.1,1.1,0.3,1.4c0.2,0.3,0.6,0.5,1.1,0.5c0.7,0,1.1-0.2,1.4-0.7s0.4-1.2,0.4-2.2
			v-4.1h2.4v8.7H43.6z M43.3,27.2c0,0.8-0.4,1.3-1.3,1.5L42,29.3h-1.4l-0.2-1.1c0.4-0.1,0.7-0.2,0.8-0.3s0.2-0.3,0.2-0.5
			c0-0.2-0.1-0.3-0.2-0.4c-0.1-0.1-0.3-0.1-0.4-0.1c-0.3,0-0.7,0.1-1.1,0.2v-1.3c0.2-0.1,0.4-0.1,0.6-0.1c0.3,0,0.5-0.1,0.7-0.1
			c0.7,0,1.3,0.1,1.6,0.4S43.3,26.7,43.3,27.2z"/>
		<path id="XMLID_67_" class="st4" d="M53.5,38.8L53,37.6h-0.1c-0.4,0.5-0.8,0.9-1.2,1.1s-1,0.3-1.7,0.3c-0.8,0-1.5-0.2-2-0.7
			c-0.5-0.5-0.7-1.2-0.7-2c0-0.9,0.3-1.6,1-2.1c0.6-0.4,1.6-0.7,2.9-0.7l1.5,0V33c0-0.9-0.5-1.3-1.4-1.3c-0.7,0-1.5,0.2-2.5,0.6
			l-0.8-1.6c1-0.5,2.1-0.8,3.3-0.8c1.2,0,2.1,0.3,2.7,0.8c0.6,0.5,0.9,1.3,0.9,2.3v5.8H53.5z M52.8,34.8l-0.9,0
			c-0.7,0-1.2,0.1-1.5,0.4c-0.3,0.2-0.5,0.6-0.5,1c0,0.7,0.4,1,1.2,1c0.6,0,1-0.2,1.3-0.5c0.3-0.3,0.5-0.7,0.5-1.3V34.8z"/>
		<path id="XMLID_65_" class="st4" d="M67.8,36.2c0,0.9-0.3,1.6-0.9,2S65.4,39,64.1,39c-0.6,0-1.2,0-1.6-0.1s-0.9-0.2-1.3-0.4v-2
			c0.4,0.2,0.9,0.4,1.5,0.5s1,0.2,1.5,0.2c0.9,0,1.3-0.3,1.3-0.8c0-0.2-0.1-0.3-0.2-0.5s-0.3-0.3-0.6-0.4s-0.7-0.3-1.1-0.5
			c-0.7-0.3-1.2-0.5-1.5-0.8c-0.3-0.2-0.5-0.5-0.7-0.8c-0.1-0.3-0.2-0.7-0.2-1.1c0-0.8,0.3-1.4,0.9-1.8c0.6-0.4,1.5-0.6,2.6-0.6
			c1.1,0,2.1,0.2,3.1,0.7L67,32.3c-0.4-0.2-0.8-0.3-1.2-0.5c-0.4-0.1-0.8-0.2-1.2-0.2c-0.7,0-1.1,0.2-1.1,0.6c0,0.2,0.1,0.4,0.3,0.6
			s0.7,0.4,1.5,0.7c0.7,0.3,1.2,0.5,1.5,0.8c0.3,0.2,0.6,0.5,0.7,0.8S67.8,35.8,67.8,36.2z"/>
		<path id="XMLID_61_" class="st4" d="M75.2,38.8l-0.5-1.2h-0.1c-0.4,0.5-0.8,0.9-1.2,1.1s-1,0.3-1.7,0.3c-0.8,0-1.5-0.2-2-0.7
			c-0.5-0.5-0.7-1.2-0.7-2c0-0.9,0.3-1.6,1-2.1c0.6-0.4,1.6-0.7,2.9-0.7l1.5,0V33c0-0.9-0.5-1.3-1.4-1.3c-0.7,0-1.5,0.2-2.5,0.6
			l-0.8-1.6c1-0.5,2.1-0.8,3.3-0.8c1.2,0,2.1,0.3,2.7,0.8c0.6,0.5,0.9,1.3,0.9,2.3v5.8H75.2z M74.5,34.8l-0.9,0
			c-0.7,0-1.2,0.1-1.5,0.4c-0.3,0.2-0.5,0.6-0.5,1c0,0.7,0.4,1,1.2,1c0.6,0,1-0.2,1.3-0.5c0.3-0.3,0.5-0.7,0.5-1.3V34.8z M75.3,27.2
			c0,0.8-0.4,1.3-1.3,1.5l-0.1,0.6h-1.4l-0.2-1.1c0.4-0.1,0.7-0.2,0.8-0.3s0.2-0.3,0.2-0.5c0-0.2-0.1-0.3-0.2-0.4
			c-0.1-0.1-0.3-0.1-0.4-0.1c-0.3,0-0.7,0.1-1.1,0.2v-1.3c0.2-0.1,0.4-0.1,0.6-0.1c0.3,0,0.5-0.1,0.7-0.1c0.7,0,1.3,0.1,1.6,0.4
			S75.3,26.7,75.3,27.2z"/>
		<path id="XMLID_59_" class="st4" d="M87.4,38.8H85v-5.1c0-0.6-0.1-1.1-0.3-1.4c-0.2-0.3-0.6-0.5-1.1-0.5c-0.7,0-1.1,0.2-1.4,0.7
			s-0.4,1.2-0.4,2.2v4.1h-2.4v-8.7h1.8l0.3,1.1h0.1c0.3-0.4,0.6-0.7,1.1-1c0.5-0.2,1-0.3,1.6-0.3c1,0,1.8,0.3,2.3,0.8
			c0.5,0.5,0.8,1.3,0.8,2.4V38.8z"/>
		<path id="XMLID_56_" class="st4" d="M98.8,39c-1,0-1.8-0.4-2.4-1.1h-0.1c0.1,0.7,0.1,1.2,0.1,1.3v3.5H94V30.1H96l0.3,1.1h0.1
			c0.6-0.9,1.4-1.3,2.5-1.3c1,0,1.8,0.4,2.4,1.2s0.9,1.9,0.9,3.3c0,0.9-0.1,1.7-0.4,2.4s-0.7,1.2-1.2,1.6S99.5,39,98.8,39z
			 M98.1,31.8c-0.6,0-1,0.2-1.3,0.5c-0.3,0.4-0.4,1-0.4,1.8v0.3c0,0.9,0.1,1.6,0.4,2s0.7,0.6,1.3,0.6c1.1,0,1.6-0.9,1.6-2.6
			c0-0.9-0.1-1.5-0.4-1.9S98.7,31.8,98.1,31.8z"/>
		<path id="XMLID_54_" class="st4" d="M112.2,38.8h-2.4v-5.1c0-1.3-0.5-1.9-1.4-1.9c-0.7,0-1.1,0.2-1.4,0.7s-0.4,1.2-0.4,2.2v4.1
			h-2.4V26.7h2.4v2.5c0,0.2,0,0.6-0.1,1.4l-0.1,0.7h0.1c0.5-0.9,1.4-1.3,2.5-1.3c1,0,1.8,0.3,2.3,0.8c0.5,0.6,0.8,1.3,0.8,2.4V38.8z
			"/>
		<path id="XMLID_49_" class="st4" d="M120.2,38.8l-0.5-1.2h-0.1c-0.4,0.5-0.8,0.9-1.2,1.1s-1,0.3-1.7,0.3c-0.8,0-1.5-0.2-2-0.7
			c-0.5-0.5-0.7-1.2-0.7-2c0-0.9,0.3-1.6,1-2.1c0.6-0.4,1.6-0.7,2.9-0.7l1.5,0V33c0-0.9-0.5-1.3-1.4-1.3c-0.7,0-1.5,0.2-2.5,0.6
			l-0.8-1.6c1-0.5,2.1-0.8,3.3-0.8c1.2,0,2.1,0.3,2.7,0.8c0.6,0.5,0.9,1.3,0.9,2.3v5.8H120.2z M121.2,29.1h-1.3
			c-0.6-0.4-1.1-0.8-1.6-1.3c-0.6,0.5-1.1,1-1.6,1.3h-1.3v-0.2c0.6-0.7,1.1-1.4,1.7-2.2h2.5c0.3,0.4,0.6,0.8,0.9,1.3
			s0.6,0.7,0.7,0.9V29.1z M119.5,34.8l-0.9,0c-0.7,0-1.2,0.1-1.5,0.4c-0.3,0.2-0.5,0.6-0.5,1c0,0.7,0.4,1,1.2,1c0.6,0,1-0.2,1.3-0.5
			c0.3-0.3,0.5-0.7,0.5-1.3V34.8z M122.7,26.1c0,0.6-0.3,1-1,1.1l0,0.5h-1l-0.1-0.9c0.3,0,0.5-0.1,0.7-0.1c0.2-0.1,0.3-0.2,0.3-0.3
			c0-0.1,0-0.2-0.1-0.3s-0.3-0.1-0.5-0.1c-0.2,0-0.4,0-0.6,0.1v-1c0.1,0,0.4,0,0.7,0c0.5,0,0.9,0.1,1.2,0.3S122.7,25.7,122.7,26.1z"
			/>
		<path id="XMLID_47_" class="st4" d="M132.2,38.8h-2.4v-5.1c0-0.6-0.1-1.1-0.3-1.4c-0.2-0.3-0.5-0.5-1-0.5c-0.6,0-1.1,0.2-1.3,0.7
			c-0.3,0.4-0.4,1.2-0.4,2.2v4.1h-2.4v-8.7h1.8l0.3,1.1h0.1c0.2-0.4,0.6-0.7,1-0.9s1-0.3,1.5-0.3c1.3,0,2.2,0.4,2.7,1.3h0.2
			c0.2-0.4,0.6-0.7,1-0.9c0.5-0.2,1-0.3,1.5-0.3c1,0,1.7,0.3,2.2,0.8s0.8,1.3,0.8,2.4v5.7h-2.4v-5.1c0-0.6-0.1-1.1-0.3-1.4
			c-0.2-0.3-0.5-0.5-1-0.5c-0.6,0-1,0.2-1.3,0.6c-0.3,0.4-0.4,1.1-0.4,2V38.8z"/>
		<path id="XMLID_45_" class="st4" d="M145.3,27.4l-4.3,11.4h-2.2l4.3-11.4H145.3z"/>
		<path id="XMLID_42_" class="st4" d="M31.9,55.9c-1,0-1.8-0.4-2.4-1.2s-0.9-1.9-0.9-3.3c0-1.4,0.3-2.5,0.9-3.3
			c0.6-0.8,1.4-1.2,2.5-1.2c1.1,0,1.9,0.4,2.5,1.3h0.1c-0.1-0.7-0.2-1.2-0.2-1.7v-2.8h2.4v12.2H35l-0.5-1.1h-0.1
			C33.9,55.4,33.1,55.9,31.9,55.9z M32.8,54c0.6,0,1.1-0.2,1.3-0.5c0.3-0.4,0.4-1,0.5-1.8v-0.3c0-0.9-0.1-1.6-0.4-2
			s-0.8-0.6-1.4-0.6c-0.5,0-0.9,0.2-1.2,0.7c-0.3,0.5-0.4,1.1-0.4,2s0.1,1.5,0.4,1.9S32.2,54,32.8,54z"/>
		<path id="XMLID_38_" class="st4" d="M39.2,57.9c0-0.8,0.4-1.2,1.3-1.2s1.3,0.4,1.3,1.2c0,0.4-0.1,0.7-0.3,0.9s-0.5,0.3-1,0.3
			C39.6,59.1,39.2,58.7,39.2,57.9z M39.2,44.7c0-0.8,0.4-1.2,1.3-1.2s1.3,0.4,1.3,1.2c0,0.4-0.1,0.7-0.3,0.9c-0.2,0.2-0.5,0.3-1,0.3
			C39.6,45.9,39.2,45.5,39.2,44.7z M41.7,55.7h-2.4V47h2.4V55.7z"/>
		<path id="XMLID_36_" class="st4" d="M47.7,55.9c-2.7,0-4.1-1.5-4.1-4.5c0-1.5,0.4-2.6,1.1-3.4c0.7-0.8,1.8-1.2,3.2-1.2
			c1,0,1.9,0.2,2.7,0.6L50,49.3c-0.4-0.2-0.7-0.3-1-0.4c-0.3-0.1-0.6-0.1-1-0.1c-1.2,0-1.9,0.9-1.9,2.6c0,1.7,0.6,2.6,1.9,2.6
			c0.5,0,0.9-0.1,1.3-0.2c0.4-0.1,0.8-0.3,1.2-0.6v2c-0.4,0.2-0.8,0.4-1.2,0.5S48.3,55.9,47.7,55.9z"/>
		<path id="XMLID_34_" class="st4" d="M60.5,55.7h-2.4v-5.1c0-1.3-0.5-1.9-1.4-1.9c-0.7,0-1.1,0.2-1.4,0.7s-0.4,1.2-0.4,2.2v4.1
			h-2.4V43.6h2.4V46c0,0.2,0,0.6-0.1,1.4l-0.1,0.7h0.1c0.5-0.9,1.4-1.3,2.5-1.3c1,0,1.8,0.3,2.3,0.8c0.5,0.6,0.8,1.3,0.8,2.4V55.7z"
			/>
		<path id="XMLID_32_" class="st4" d="M69.2,55.7L65.8,47h2.5l1.7,5c0.2,0.5,0.3,1.1,0.3,1.8h0.1c0-0.6,0.1-1.2,0.4-1.8l1.7-5h2.5
			l-3.3,8.7H69.2z"/>
		<path id="XMLID_29_" class="st4" d="M82.4,55.7l-0.3-1.1h-0.1c-0.3,0.4-0.6,0.7-1.1,0.9s-1,0.3-1.6,0.3c-1,0-1.8-0.3-2.3-0.8
			c-0.5-0.5-0.8-1.3-0.8-2.4V47h2.4v5.1c0,0.6,0.1,1.1,0.3,1.4c0.2,0.3,0.6,0.5,1.1,0.5c0.7,0,1.1-0.2,1.4-0.7s0.4-1.2,0.4-2.2V47
			h2.4v8.7H82.4z M78.9,57.9c0-0.8,0.4-1.2,1.3-1.2s1.3,0.4,1.3,1.2c0,0.4-0.1,0.7-0.3,0.9s-0.5,0.3-1,0.3
			C79.3,59.1,78.9,58.7,78.9,57.9z"/>
		<path id="XMLID_27_" class="st4" d="M98.7,55.7h-2.4v-5.1c0-0.6-0.1-1.1-0.3-1.4c-0.2-0.3-0.5-0.5-1-0.5c-0.6,0-1.1,0.2-1.3,0.7
			c-0.3,0.4-0.4,1.2-0.4,2.2v4.1h-2.4V47h1.8l0.3,1.1h0.1c0.2-0.4,0.6-0.7,1-0.9s1-0.3,1.5-0.3c1.3,0,2.2,0.4,2.7,1.3h0.2
			c0.2-0.4,0.6-0.7,1-0.9c0.5-0.2,1-0.3,1.5-0.3c1,0,1.7,0.3,2.2,0.8s0.8,1.3,0.8,2.4v5.7h-2.4v-5.1c0-0.6-0.1-1.1-0.3-1.4
			c-0.2-0.3-0.5-0.5-1-0.5c-0.6,0-1,0.2-1.3,0.6c-0.3,0.4-0.4,1.1-0.4,2V55.7z"/>
		<path id="XMLID_23_" class="st4" d="M114.5,51.3c0,1.4-0.4,2.5-1.1,3.3c-0.8,0.8-1.8,1.2-3.1,1.2c-0.8,0-1.6-0.2-2.2-0.6
			s-1.1-0.9-1.5-1.6s-0.5-1.5-0.5-2.4c0-1.4,0.4-2.5,1.1-3.3c0.7-0.8,1.8-1.2,3.1-1.2c0.6,0,1.1,0.1,1.7,0.3s1,0.4,1.3,0.8
			c0.8-0.2,1.2-1,1.2-2.2h2.4l0.1,0.2c-0.1,0.7-0.3,1.3-0.6,1.7c-0.2,0.4-0.5,0.8-0.9,1c-0.4,0.3-0.8,0.5-1.4,0.6
			C114.4,49.8,114.5,50.5,114.5,51.3z M108.5,51.3c0,0.9,0.1,1.5,0.4,2c0.3,0.4,0.7,0.7,1.4,0.7c0.6,0,1.1-0.2,1.4-0.7
			c0.3-0.4,0.4-1.1,0.4-2c0-0.9-0.1-1.5-0.4-1.9c-0.3-0.4-0.7-0.6-1.4-0.6c-0.6,0-1.1,0.2-1.4,0.6S108.5,50.5,108.5,51.3z M108.9,46
			v-0.2c0.9-1,1.5-1.8,1.8-2.4h2.7v0.2c-0.3,0.3-0.7,0.7-1.4,1.2c-0.7,0.5-1.2,0.9-1.5,1.2H108.9z"/>
		<path id="XMLID_20_" class="st4" d="M117.3,44.7c0-0.8,0.4-1.2,1.3-1.2s1.3,0.4,1.3,1.2c0,0.4-0.1,0.7-0.3,0.9
			c-0.2,0.2-0.5,0.3-1,0.3C117.8,45.9,117.3,45.5,117.3,44.7z M119.8,55.7h-2.4V47h2.4V55.7z"/>
		<path id="XMLID_18_" class="st4" d="M122,54.6c0-0.4,0.1-0.8,0.4-1c0.2-0.2,0.6-0.3,1-0.3c0.4,0,0.8,0.1,1,0.3
			c0.2,0.2,0.4,0.6,0.4,1c0,0.4-0.1,0.7-0.4,1s-0.6,0.4-1,0.4c-0.4,0-0.8-0.1-1-0.3S122,55,122,54.6z"/>
	</g>
</g>
</svg>