<!-- Generator: Adobe Illustrator 19.0.0, SVG Export Plug-In  -->
<svg version="1.1"
	 xmlns="http://www.w3.org/2000/svg" xmlns:xlink="http://www.w3.org/1999/xlink" xmlns:a="http://ns.adobe.com/AdobeSVGViewerExtensions/3.0/"
	 x="0px" y="0px" width="131.7px" height="83.6px" viewBox="0 0 131.7 83.6" style="enable-background:new 0 0 131.7 83.6;"
	 xml:space="preserve">
<style type="text/css">
	.st0{fill:#086A87;}
</style>
<defs>
</defs>
<g>
	<path class="st0" d="M15,28.6h-5V12.8l0-2.5l0.1-2.7C9.2,8.5,8.5,9.1,8.1,9.4l-3,2.4L2.4,8.4l8.5-6.8H15V28.6z"/>
	<path class="st0" d="M33.6,2.7c0-1.8,1-2.7,3-2.7c2,0,3,0.9,3,2.7c0,0.9-0.3,1.5-0.8,2c-0.5,0.5-1.2,0.7-2.2,0.7
		C34.6,5.4,33.6,4.5,33.6,2.7z M39,28.6h-5v-21h5V28.6z"/>
	<path class="st0" d="M64,28.6h-6V16.3c0-1.5-0.1-2.6-0.6-3.3c-0.5-0.7-1.3-1.1-2.4-1.1c-1.5,0-2.5,0.5-3.1,1.5
		c-0.7,1-0.8,2.7-0.8,5.1v10h-6v-21h4.4l0.7,3h0.3c0.6-1,1.5-1.8,2.5-2.3c1.1-0.5,2.3-0.8,3.7-0.8c2.3,0,4.2,0.6,5.4,1.9
		c1.2,1.3,1.9,3.1,1.9,5.5V28.6z"/>
	<path class="st0" d="M87.3,11.2c2.6,0,4.6,0.7,6.1,2.1c1.5,1.4,2.3,3.4,2.3,5.9c0,3-0.9,5.2-2.7,6.8c-1.8,1.6-4.4,2.4-7.8,2.4
		C82.2,28.5,80,28,78,27v-4.8c1,0.5,2.1,0.9,3.3,1.2c1.3,0.3,2.5,0.5,3.6,0.5c3.4,0,5.1-1.4,5.1-4.2c0-2.7-1.8-4-5.3-4
		c-0.6,0-1.3,0.1-2.1,0.2c-0.8,0.1-1.4,0.3-1.9,0.4l-2.2-1.3l1-13.5H94v5h-9.6l-0.5,5.1l0.6-0.2C85.3,11.4,86.2,11.2,87.3,11.2z"/>
	<path class="st0" d="M5.5,48.4c-1.3,0-2.4-0.4-3.1-1.2c-0.7-0.8-1.1-2-1.1-3.5c0-1.5,0.3-2.7,1.1-3.5c0.7-0.8,1.8-1.2,3.1-1.2
		c0.4,0,0.9,0,1.3,0.1c0.4,0.1,0.8,0.2,1.1,0.4l-0.5,1.2c-0.8-0.3-1.4-0.4-2-0.4c-0.9,0-1.6,0.3-2,0.9c-0.4,0.6-0.7,1.4-0.7,2.6
		c0,1.1,0.2,1.9,0.7,2.5c0.4,0.6,1.3,0.9,2.1,0.9c0.8,0,1.5-0.2,2.5-0.5v1.3C7,48.2,6.4,48.4,5.5,48.4z"/>
	<path class="st0" d="M17.7,43.6c0,1.5-0.4,2.7-1.1,3.5s-1.8,1.3-3.1,1.3c-0.8,0-1.6-0.2-2.2-0.6c-0.6-0.4-1.1-0.9-1.5-1.7
		s-0.5-1.6-0.5-2.5c0-1.5,0.4-2.6,1.1-3.5c0.7-0.8,1.8-1.2,3.1-1.2c1.3,0,2.3,0.4,3.1,1.3C17.4,41,17.7,42.2,17.7,43.6z M10.9,43.6
		c0,1.1,0.2,2,0.7,2.6c0.5,0.6,1.1,0.9,2,0.9c0.9,0,1.5-0.3,2-0.9c0.5-0.6,0.7-1.5,0.7-2.6s-0.2-2-0.7-2.6c-0.5-0.6-1.1-0.9-2-0.9
		C11.7,40.2,10.9,41.3,10.9,43.6z"/>
	<path class="st0" d="M26,48.6v-6.2c0-0.7,0-1.3-0.3-1.7c-0.3-0.4-0.8-0.5-1.5-0.5c-0.9,0-1.4,0.3-1.8,0.8C22,41.5,22,42.3,22,43.5
		v5.1h-2v-9h1.3l0.2,1h0.1c0.3-1,0.7-0.9,1.2-1.2c0.5-0.2,1.1-0.4,1.7-0.4c1.1,0,2.1,0.2,2.6,0.8s0.9,1.4,0.9,2.5v6.3H26z"/>
	<path class="st0" d="M36.5,45.7c0,0.9-0.3,1.5-1,2c-0.6,0.5-1.6,0.7-2.7,0.7c-1.2,0-1.9-0.2-2.9-0.6v-1.4c1,0.5,2,0.7,2.9,0.7
		c0.8,0,1.3-0.1,1.7-0.4s0.5-0.6,0.5-1c0-0.4-0.2-0.7-0.5-0.9c-0.3-0.2-0.9-0.5-1.8-0.9c-0.9-0.3-1.5-0.6-1.8-0.9
		c-0.3-0.2-0.6-0.5-0.8-0.8c-0.2-0.3-0.2-0.7-0.2-1.1c0-0.7,0.3-1.3,0.9-1.8s1.4-0.6,2.5-0.6c1,0,2,0.2,2.9,0.6l-0.5,1.2
		c-0.9-0.4-1.8-0.6-2.5-0.6c-0.6,0-1.1,0.1-1.4,0.3c-0.3,0.2-0.5,0.5-0.5,0.8c0,0.3,0.1,0.6,0.4,0.8c0.3,0.2,0.9,0.5,1.9,0.9
		c0.8,0.3,1.3,0.5,1.7,0.8c0.4,0.2,0.6,0.5,0.8,0.8S36.5,45.3,36.5,45.7z"/>
	<path class="st0" d="M40,39.6V45c0,0.7,0.2,1.3,0.6,1.6c0.3,0.4,0.9,0.5,1.6,0.5c0.9,0,1.7-0.3,2.1-0.8S45,45,45,43.9v-4.3h1v9
		h-0.9l-0.2-2h-0.1c-0.3,1-0.7,1-1.2,1.2s-1.1,0.5-1.7,0.5c-1.1,0-1.8-0.2-2.3-0.7C39.1,47,39,46.2,39,45.1v-5.5H40z"/>
	<path class="st0" d="M61,48.6v-6.2c0-1.4-0.7-2.2-1.9-2.2c-0.8,0-1.3,0.2-1.7,0.7S57,42.2,57,43.2v5.4h-2v-6.2
		c0-0.7-0.1-1.3-0.4-1.6c-0.3-0.4-0.8-0.5-1.4-0.5c-0.8,0-1.3,0.3-1.7,0.8c-0.4,0.5-0.5,1.4-0.5,2.5v5.1h-2v-9h1.5l0.2,1h0.1
		c0.3-1,0.6-0.9,1.1-1.1c0.5-0.2,1-0.4,1.6-0.4c1.4,0,2.4,0.5,2.8,1.5h0.1c0.3-1,0.7-0.9,1.2-1.2c0.5-0.3,1.1-0.4,1.7-0.4
		c1,0,1.6,0.3,2.1,0.8c0.5,0.5,0.6,1.4,0.6,2.5v6.3H61z"/>
	<path class="st0" d="M69,48.4c-1.4,0-2.4-0.4-3.2-1.2c-0.8-0.8-1.2-2-1.2-3.4c0-1.5,0.4-2.6,1.1-3.5c0.7-0.9,1.7-1.3,2.9-1.3
		c1.1,0,1.8,0.4,2.5,1.1c0.7,0.7,0.8,1.7,0.8,3v0.5h-5.8c0,1,0.3,2,0.8,2.5s1.2,0.9,2.1,0.9c0.5,0,0.9,0,1.4-0.1
		c0.4-0.1,0.5-0.2,1.5-0.5v1.3c0,0.2-1,0.4-1.4,0.5S69.6,48.4,69,48.4z M68.7,40.2c-0.7,0-1.3,0.1-1.7,0.6s-0.7,0.8-0.7,1.8h4.6
		c0-1-0.2-1.4-0.6-1.8S69.4,40.2,68.7,40.2z"/>
	<path class="st0" d="M79,38.9c0.4,0,0.8,0,1.1,0.1l-0.2,1.4c-0.3-0.1-0.7-0.1-1-0.1c-0.5,0-0.9,0.1-1.3,0.4
		c-0.4,0.3-0.9,0.6-1.1,1.1c-0.2,0.5-0.5,1-0.5,1.6v5.2h-1v-9h1l0.2,1h0.1c0.3,0,0.8-1,1.2-1.3S78.4,38.9,79,38.9z"/>
	<path class="st0" d="M87.7,45.7c0,0.9-0.3,1.5-1,2c-0.6,0.5-1.6,0.7-2.8,0.7c-1.2,0-2-0.2-3-0.6v-1.4c1,0.5,2.1,0.7,3,0.7
		c0.8,0,1.4-0.1,1.7-0.4s0.5-0.6,0.5-1c0-0.4-0.2-0.7-0.5-0.9c-0.3-0.2-0.9-0.5-1.7-0.9c-0.9-0.3-1.5-0.6-1.8-0.9
		c-0.3-0.2-0.6-0.5-0.8-0.8c-0.2-0.3-0.2-0.7-0.2-1.1c0-0.7,0.3-1.3,0.9-1.8s1.4-0.6,2.5-0.6c1,0,2,0.2,2.9,0.6L87,40.7
		c-0.9-0.4-1.8-0.6-2.5-0.6c-0.6,0-1.1,0.1-1.4,0.3c-0.3,0.2-0.5,0.5-0.5,0.8c0,0.3,0.1,0.6,0.4,0.8c0.3,0.2,0.9,0.5,1.9,0.9
		c0.8,0.3,1.3,0.5,1.7,0.8c0.4,0.2,0.6,0.5,0.8,0.8S87.7,45.3,87.7,45.7z"/>
	<path class="st0" d="M5,58.6H3v6H2v-6H0v-0.9l2-0.4v-0.4c0-0.8,0-1.5,0.4-1.9c0.4-0.4,0.8-0.6,1.6-0.6c0.4,0,0.8,0.1,1.3,0.2
		L5,55.5c-0.4-0.1-0.8-0.2-1-0.2c-0.4,0-0.6,0.1-0.8,0.4S3,56.4,3,56.9v0.7h2V58.6z"/>
	<path class="st0" d="M8.8,64.5c-1,0-1.9-0.3-2.5-0.9c-0.6-0.6-0.9-1.5-0.9-2.6c0-1.1,0.3-2,0.8-2.7c0.6-0.7,1.3-1,2.2-1
		c0.9,0,1.4,0.3,1.9,0.8c0.5,0.6,0.6,1.3,0.6,2.3v0.2H6.6c0,1,0.2,1.6,0.6,2s0.9,0.7,1.6,0.7c0.4,0,0.7,0,1,0
		c0.3-0.1,1.2-0.1,1.2-0.3v1c0,0.2-0.7,0.3-1.1,0.3S9.2,64.5,8.8,64.5z M8.5,58.2c-0.5,0-1,0.4-1.3,0.7s-0.5,0.7-0.6,1.7h3.5
		c0-1-0.2-1.4-0.5-1.7S9,58.2,8.5,58.2z"/>
	<path class="st0" d="M16.1,64.5c-1,0-1.9-0.3-2.5-0.9c-0.6-0.6-0.9-1.5-0.9-2.6c0-1.1,0.3-2,0.8-2.7c0.6-0.7,1.3-1,2.2-1
		c0.9,0,1.7,0.3,2.2,0.8c0.5,0.6,0.9,1.3,0.9,2.3v0.2h-5.1c0,1,0.2,1.6,0.6,2s0.9,0.7,1.6,0.7c0.4,0,0.5,0,0.9,0
		c0.3-0.1,1-0.1,1-0.3v1c0,0.2-0.6,0.3-0.9,0.3C16.8,64.4,16.6,64.5,16.1,64.5z M15.8,58.2c-0.5,0-1,0.4-1.3,0.7s-0.5,0.7-0.6,1.7
		h3.5c0-1-0.2-1.4-0.5-1.7S16.3,58.2,15.8,58.2z"/>
	<path class="st0" d="M22,64.6h-2v-10h2V64.6z"/>
	<path class="st0" d="M31.5,64.6l-0.2-1h-0.1c-0.3,0-0.7,0.6-1,0.8c-0.3,0.2-0.8,0.2-1.3,0.2c-0.7,0-1.2-0.2-1.6-0.6
		s-0.6-0.9-0.6-1.5c0-1.4,1-2.2,3.2-2.2l1.1-0.1v-0.4c0-0.5,0-0.9-0.2-1.2c-0.2-0.3-0.5-0.4-1-0.4c-0.4,0-0.7,0.1-1,0.2
		c-0.3,0.1-0.6,0.2-0.9,0.4l-0.3-0.9c0.4-0.2,0.7-0.3,1.2-0.4s0.8-0.2,1.2-0.2c0.8,0,1.3,0.2,1.7,0.6s0.5,1,0.5,1.8v5H31.5z
		 M29.1,63.5c0.6,0,1-0.2,1.4-0.5c0.4-0.3,0.5-0.8,0.5-1.5v-0.6l-0.9,0c-0.8,0-1.3,0.2-1.7,0.4c-0.4,0.2-0.5,0.6-0.5,1.1
		c0,0.4,0.1,0.6,0.3,0.8C28.4,63.4,28.7,63.5,29.1,63.5z"/>
	<path class="st0" d="M42.4,62.4c0,0.7-0.2,1.2-0.7,1.5c-0.5,0.4-1.4,0.5-2.3,0.5c-0.9,0-1.4-0.1-2.4-0.4v-1c1,0.4,1.7,0.6,2.4,0.6
		c0.6,0,1.1-0.1,1.4-0.3s0.4-0.4,0.4-0.7c0-0.3-0.1-0.5-0.4-0.7c-0.3-0.2-0.7-0.4-1.3-0.7c-0.7-0.3-1.1-0.5-1.4-0.7
		c-0.3-0.2-0.5-0.4-0.6-0.6c-0.1-0.2-0.2-0.5-0.2-0.8c0-0.6,0.2-1,0.7-1.4c0.5-0.3,1.1-0.5,1.9-0.5c0.8,0,1.5,0.2,2.2,0.5l-0.4,0.9
		c-0.7-0.3-1.3-0.4-1.9-0.4c-0.5,0-0.8,0.1-1.1,0.2c-0.2,0.2-0.4,0.4-0.4,0.6c0,0.3,0.1,0.5,0.3,0.6c0.2,0.2,0.7,0.4,1.5,0.7
		c0.6,0.2,1,0.4,1.3,0.6c0.3,0.2,0.5,0.4,0.6,0.6C42.3,61.8,42.4,62.1,42.4,62.4z"/>
	<path class="st0" d="M47,64.5c-1,0-1.9-0.3-2.5-0.9c-0.6-0.6-0.9-1.5-0.9-2.6c0-1.1,0.3-2,0.8-2.7c0.6-0.7,1.3-1,2.2-1
		c0.9,0,1.7,0.3,2.3,0.8c0.5,0.6,1,1.3,1,2.3v0.2h-5.1c0,1,0.2,1.6,0.6,2s0.9,0.7,1.6,0.7c0.4,0,0.6,0,0.9,0c0.3-0.1,1-0.1,1-0.3v1
		c0,0.2-0.6,0.3-0.9,0.3S47.5,64.5,47,64.5z M46.8,58.2c-0.5,0-1,0.4-1.3,0.7s-0.5,0.7-0.6,1.7h3.5c0-1-0.2-1.4-0.5-1.7
		S47.3,58.2,46.8,58.2z"/>
	<path class="st0" d="M56,64.6v-4.7c0-0.6,0-1-0.3-1.3c-0.3-0.3-0.6-0.4-1.1-0.4c-0.7,0-1,0.2-1.3,0.6c-0.3,0.4-0.2,1-0.2,1.9v3.9
		h-2v-7h1.3l0.2,1h0.1c0.2-1,0.5-0.7,0.9-0.9c0.4-0.2,0.8-0.3,1.3-0.3c0.9,0,1.3,0.2,1.8,0.6c0.4,0.4,0.5,1,0.5,1.9v4.8H56z"/>
	<path class="st0" d="M64,62.4c0,0.7-0.2,1.2-0.7,1.5c-0.5,0.4-1.2,0.5-2.1,0.5c-0.9,0-1.2-0.1-2.2-0.4v-1c1,0.4,1.5,0.6,2.2,0.6
		c0.6,0,1-0.1,1.3-0.3s0.4-0.4,0.4-0.7c0-0.3-0.1-0.5-0.4-0.7c-0.3-0.2-0.7-0.4-1.3-0.7c-0.7-0.3-1.1-0.5-1.4-0.7
		c-0.3-0.2-0.5-0.4-0.6-0.6c-0.1-0.2-0.2-0.5-0.2-0.8c0-0.6,0.2-1,0.7-1.4c0.5-0.3,1.1-0.5,1.9-0.5c0.8,0,1.5,0.2,2.2,0.5l-0.4,0.9
		c-0.7-0.3-1.3-0.4-1.9-0.4c-0.5,0-0.8,0.1-1.1,0.2c-0.2,0.2-0.4,0.4-0.4,0.6c0,0.3,0.1,0.5,0.3,0.6c0.2,0.2,0.7,0.4,1.5,0.7
		c0.6,0.2,1,0.4,1.3,0.6c0.3,0.2,0.5,0.4,0.6,0.6C63.9,61.8,64,62.1,64,62.4z"/>
	<path class="st0" d="M68.6,64.5c-1,0-1.9-0.3-2.5-0.9c-0.6-0.6-0.9-1.5-0.9-2.6c0-1.1,0.3-2,0.8-2.7c0.6-0.7,1.3-1,2.2-1
		c0.9,0,1.5,0.3,2,0.8c0.5,0.6,0.7,1.3,0.7,2.3v0.2h-4.5c0,1,0.2,1.6,0.6,2s0.9,0.7,1.6,0.7c0.4,0,0.8,0,1.1,0
		c0.3-0.1,0.2-0.1,1.2-0.3v1c0,0.2-0.8,0.3-1.1,0.3S69.1,64.5,68.6,64.5z M68.4,58.2c-0.5,0-1,0.4-1.3,0.7s-0.5,0.7-0.6,1.7H70
		c0-1-0.2-1.4-0.5-1.7S68.9,58.2,68.4,58.2z"/>
	<path class="st0" d="M82.4,60.8c0,1.1-0.3,2-0.9,2.7c-0.6,0.6-1.4,1-2.4,1c-0.6,0-1.2-0.1-1.7-0.4c-0.5-0.3-0.9-0.7-1.1-1.3
		S76,61.6,76,60.8c0-1.1,0.3-2,0.9-2.6c0.6-0.6,1.4-0.9,2.4-0.9c1,0,1.8,0.3,2.3,1C82.2,58.8,82.4,59.7,82.4,60.8z M77.2,60.8
		c0,0.9,0.2,1.5,0.5,2c0.3,0.5,0.9,0.7,1.5,0.7c0.7,0,1.2-0.2,1.5-0.7c0.3-0.5,0.5-1.1,0.5-2s-0.2-1.5-0.5-2
		c-0.3-0.4-0.9-0.7-1.5-0.7C77.9,58.2,77.2,59.1,77.2,60.8z"/>
	<path class="st0" d="M87,58.6h-1v6h-1v-6h-2v-0.9l2-0.4v-0.4c0-0.8,0-1.5,0.3-1.9c0.4-0.4,0.8-0.6,1.6-0.6c0.4,0,0.8,0.1,1.3,0.2
		l-0.3,0.9c-0.4-0.1-0.8-0.2-1-0.2c-0.4,0-0.5,0.1-0.7,0.4C86,56,86,56.4,86,56.9v0.7h1V58.6z"/>
	<path class="st0" d="M93.6,64.6l-2.6-7h1.2l1.5,4.1c0.3,0.8,0.5,0.9,0.6,1.9h0.1c0,0,0-0.2,0-0.3c0-0.1,0-0.2,0.1-0.3
		c0-0.1,0.2-0.5,0.5-1.4l1.5-4h1.2l-2.6,7H93.6z"/>
	<path class="st0" d="M98.6,55.5c0-0.3,0.1-0.4,0.2-0.6c0.1-0.1,0.3-0.2,0.5-0.2c0.2,0,0.3,0.1,0.5,0.2c0.1,0.1,0.2,0.3,0.2,0.6
		c0,0.2-0.1,0.4-0.2,0.6c-0.1,0.1-0.3,0.2-0.5,0.2c-0.2,0-0.4-0.1-0.5-0.2C98.7,55.9,98.6,55.7,98.6,55.5z M100,64.6h-1v-7h1V64.6z"
		/>
	<path class="st0" d="M105,64.5c-1,0-1.9-0.3-2.4-0.9c-0.6-0.6-0.9-1.5-0.9-2.6c0-1.2,0.3-2.1,0.8-2.7c0.6-0.6,1.4-0.9,2.4-0.9
		c0.3,0,0.7,0,1,0.1c0.3,0.1,0.6,0.2,0.8,0.3l-0.4,1c-0.6-0.2-1.1-0.3-1.5-0.3c-0.7,0-1.2,0.2-1.6,0.7c-0.3,0.4-0.5,1.1-0.5,2
		c0,0.8,0.2,1.5,0.5,1.9c0.3,0.4,1,0.7,1.7,0.7c0.6,0,1-0.1,2-0.4v1C106,64.3,105.7,64.5,105,64.5z"/>
	<path class="st0" d="M110.6,63.5c0.1,0,0.5,0,0.7,0c0.2,0-0.3-0.1,0.7-0.1v0.9c-1,0-0.5,0.1-0.7,0.1c-0.2,0-0.7,0.1-1,0.1
		c-1.4,0-2.3-0.7-2.3-2.2v-3.7h-1v-0.9l1.2-0.5l0.7-1.6h1.1v2h2v1h-2v3.7c0,0.4-0.1,0.7,0.1,0.9C110.2,63.4,110.3,63.5,110.6,63.5z"
		/>
	<path class="st0" d="M119,60.8c0,1.1-0.3,2-0.9,2.7c-0.6,0.6-1.4,1-2.4,1c-0.6,0-1.2-0.1-1.7-0.4c-0.5-0.3-0.9-0.7-1.1-1.3
		s-0.4-1.2-0.4-1.9c0-1.1,0.3-2,0.9-2.6c0.6-0.6,1.4-0.9,2.4-0.9c1,0,1.8,0.3,2.3,1C118.8,58.8,119,59.7,119,60.8z M113.8,60.8
		c0,0.9,0.2,1.5,0.5,2c0.3,0.5,0.9,0.7,1.5,0.7c0.7,0,1.2-0.2,1.5-0.7c0.3-0.5,0.5-1.1,0.5-2s-0.2-1.5-0.5-2
		c-0.3-0.4-0.9-0.7-1.5-0.7C114.5,58.2,113.8,59.1,113.8,60.8z"/>
	<path class="st0" d="M124.1,57.2c0.3,0,0.6,0,0.8,0.1l-0.1,1.1c-0.3-0.1-0.5-0.1-0.8-0.1c-0.4,0-0.7,0.1-1,0.3
		c-0.3,0.2-0.6,0.5-0.7,0.8c-0.2,0.4-0.3,0.8-0.3,1.2v4h-1v-7h0.8l0.1,1h0.1c0.3,0,0.6-0.8,0.9-1C123.3,57.3,123.7,57.2,124.1,57.2z
		"/>
	<path class="st0" d="M125.1,57.6h1.2l1.5,4c0.3,0.9,0.5,1,0.6,2h0.1c0-1,0.1-0.6,0.3-1.1c0.1-0.4,0.2-0.8,0.3-1l1.4-3.9h1.2l-3,7.8
		c-0.3,0.8-0.6,1.3-1,1.6c-0.4,0.3-1,0.5-1.6,0.5c-0.3,0-0.1-0.1-1.1-0.1v-0.9c0,0.1,0.6,0.1,0.9,0.1c0.4,0,0.7-0.1,1-0.3
		c0.3-0.2,0.5-0.5,0.7-0.9l0.4-0.8L125.1,57.6z"/>
	<path class="st0" d="M7,80.6l-1.2-4c-0.1-0.3-0.3-1-0.5-2H5.3c-0.2,1-0.3,1.6-0.5,2l-1.3,4H2.3l-1.9-7h1.2c0.4,2,0.8,3.1,1,4
		c0.2,0.9,0.4,1,0.4,2H3L3.1,79c0.1-0.6,0.3-1.1,0.4-1.5l1.2-4H6l1.2,3.9c0,0.1,0.1,0.3,0.1,0.4c0,0.2,0.1,0.3,0.1,0.5
		c0,0.2,0.1,0.5,0.1,0.6c0,0.2,0.1,0.6,0.1,0.6h0.1c0-1,0.2-1.1,0.5-2.2l1-3.8h1.2l-1.9,7H7z"/>
	<path class="st0" d="M16,80.6V76c0-0.6,0-1-0.2-1.3c-0.3-0.3-0.6-0.4-1.1-0.4c-0.7,0-1,0.2-1.4,0.6c-0.3,0.4-0.3,1-0.3,1.9v3.7h-1
		v-10h1v2.9c0,0.4-0.3,1.1-0.4,1.1h0.1c0.2,0,0.5-0.7,0.9-0.9s0.8-0.3,1.3-0.3c0.8,0,1.3,0.2,1.7,0.6c0.4,0.4,0.4,1,0.4,1.9v4.7H16z
		"/>
	<path class="st0" d="M22.5,80.6c-1,0-1.9-0.3-2.5-0.9c-0.6-0.6-0.9-1.5-0.9-2.6c0-1.1,0.3-2,0.8-2.7c0.6-0.7,1.3-1,2.2-1
		c0.9,0,1.5,0.3,2,0.8c0.5,0.6,0.7,1.3,0.7,2.3v1.1h-4.6c0,0,0.2,1.2,0.6,1.6s0.9,0.5,1.6,0.5c0.4,0,0.8-0.1,1.1-0.1
		c0.3-0.1,0.3-0.2,1.3-0.4v1c-1,0.2-0.8,0.3-1.2,0.3C23.5,80.5,23,80.6,22.5,80.6z M22.3,74.3c-0.5,0-1,0.3-1.3,0.7
		s-0.5,0.6-0.6,1.6h3.5c0-1-0.2-1.3-0.5-1.6S22.8,74.3,22.3,74.3z"/>
	<path class="st0" d="M32,80.6V76c0-0.6-0.3-1-0.5-1.3c-0.3-0.3-0.7-0.4-1.3-0.4c-0.7,0-1.3,0.2-1.6,0.6c-0.3,0.4-0.6,1-0.6,1.9v3.8
		h-1v-7h0.8l0.2,1h0.1c0.2,0,0.5-0.7,0.9-0.9c0.4-0.2,0.8-0.3,1.3-0.3c0.9,0,1.6,0.2,2,0.6s0.7,1,0.7,1.9v4.7H32z"/>
	<path class="st0" d="M39,73.6v4.4c0,0.6,0.3,1,0.6,1.3c0.3,0.3,0.7,0.4,1.3,0.4c0.7,0,1.3-0.2,1.6-0.6s0.5-1,0.5-1.9v-3.5h1v7h-0.8
		l-0.2-1H43c-0.2,0-0.5,0.6-0.9,0.7s-0.8,0.3-1.3,0.3c-0.8,0-1.6-0.2-2-0.6C38.3,79.6,38,78.9,38,78v-4.5H39z"/>
	<path class="st0" d="M50.9,78.5c0,0.7-0.2,1.2-0.7,1.5c-0.5,0.4-1.1,0.5-2,0.5c-0.9,0-2.2-0.1-2.2-0.4v-1c1,0.4,1.5,0.6,2.2,0.6
		c0.6,0,1-0.1,1.2-0.3c0.3-0.2,0.4-0.4,0.4-0.7c0-0.3-0.1-0.5-0.4-0.7c-0.3-0.2-0.7-0.4-1.3-0.7c-0.7-0.3-1.1-0.5-1.4-0.7
		c-0.3-0.2-0.5-0.4-0.6-0.6c-0.1-0.2-0.2-0.5-0.2-0.8c0-0.6,0.2-1,0.7-1.4s1.1-0.5,1.9-0.5c0.8,0,1.5,0.2,2.2,0.5l-0.4,0.9
		c-0.7-0.3-1.3-0.4-1.9-0.4c-0.5,0-0.8,0.1-1.1,0.2c-0.2,0.2-0.4,0.4-0.4,0.6c0,0.3,0.1,0.5,0.3,0.6c0.2,0.2,0.7,0.4,1.5,0.7
		c0.6,0.2,1,0.4,1.3,0.6c0.3,0.2,0.5,0.4,0.6,0.6S50.9,78.2,50.9,78.5z"/>
	<path class="st0" d="M52.5,71.6c0-0.3,0.1-0.4,0.2-0.6c0.1-0.1,0.3-0.2,0.5-0.2c0.2,0,0.3,0.1,0.5,0.2c0.1,0.1,0.2,0.3,0.2,0.6
		c0,0.2-0.1,0.4-0.2,0.6c-0.1,0.1-0.3,0.2-0.5,0.2c-0.2,0-0.4-0.1-0.5-0.2C52.6,72,52.5,71.8,52.5,71.6z M54,80.6h-1v-7h1V80.6z"/>
	<path class="st0" d="M61,80.6V76c0-0.6-0.3-1-0.5-1.3c-0.3-0.3-0.7-0.4-1.3-0.4c-0.7,0-1.3,0.2-1.6,0.6c-0.3,0.4-0.6,1-0.6,1.9v3.8
		h-1v-7h0.9l0.2,1h0.1c0.2,0,0.5-0.7,0.9-0.9c0.4-0.2,0.8-0.3,1.3-0.3c0.9,0,1.6,0.2,2,0.6c0.4,0.4,0.7,1,0.7,1.9v4.7H61z"/>
	<path class="st0" d="M69,80.4l-0.3-0.8h-0.1c-0.5,1-1.2,1-2.2,1c-0.9,0-1.6-0.3-2.1-1c-0.5-0.6-0.8-1.5-0.8-2.7
		c0-1.1,0.3-2,0.8-2.7c0.5-0.6,1.2-0.9,2.1-0.9c0.9,0,1.7,0.1,2.2,1.1h0.1l0.2-1H70v7c0,1-0.4,1.8-0.9,2.3c-0.5,0.5-1.4,0.8-2.5,0.8
		c-1,0-1.6-0.1-2.6-0.4v-1.1c1,0.4,1.6,0.5,2.6,0.5c0.6,0,1.3-0.2,1.6-0.5c0.3-0.3,0.7-0.8,0.7-1.4V80.4z M66.6,79.6
		c0.7,0,1.4-0.2,1.7-0.6c0.3-0.4,0.7-1,0.7-1.8V77c0-0.9-0.3-1.6-0.7-2s-0.9-0.6-1.6-0.6c-0.6,0-1.1,0.2-1.4,0.7
		c-0.3,0.5-0.5,1.1-0.5,2c0,0.9,0.1,1.5,0.5,2C65.6,79.4,66,79.6,66.6,79.6z"/>
	<path class="st0" d="M78.2,80.6c-1,0-1.8-0.3-2.4-0.9C75.3,79,75,78.1,75,77c0-1.2,0.3-2.1,0.8-2.7c0.6-0.6,1.4-0.9,2.4-0.9
		c0.3,0,0.7,0,1,0.1c0.3,0.1,0.6,0.2,0.8,0.3l-0.3,1c-0.6-0.2-1.1-0.3-1.5-0.3c-0.7,0-1.2,0.2-1.6,0.7c-0.3,0.4-0.5,1.1-0.5,2
		c0,0.8,0.2,1.5,0.5,1.9c0.3,0.4,0.9,0.7,1.5,0.7c0.6,0,0.8-0.1,1.8-0.4v1C79,80.4,78.9,80.6,78.2,80.6z"/>
	<path class="st0" d="M87.6,76.9c0,1.1-0.3,2-0.9,2.7s-1.4,1-2.4,1c-0.6,0-1.2-0.1-1.7-0.4c-0.5-0.3-0.9-0.7-1.1-1.3
		c-0.3-0.6-0.4-1.2-0.4-1.9c0-1.1,0.3-2,0.9-2.6c0.6-0.6,1.4-0.9,2.4-0.9c1,0,1.8,0.3,2.3,1C87.4,74.9,87.6,75.8,87.6,76.9z
		 M82.4,76.9c0,0.9,0.2,1.5,0.5,2c0.3,0.5,0.9,0.7,1.5,0.7c0.7,0,1.2-0.2,1.5-0.7c0.3-0.5,0.5-1.1,0.5-2s-0.2-1.5-0.5-2
		c-0.3-0.4-0.9-0.7-1.5-0.7C83.1,74.3,82.4,75.2,82.4,76.9z"/>
	<path class="st0" d="M91,73.6v4.4c0,0.6-0.1,1,0.1,1.3c0.3,0.3,0.5,0.4,1.1,0.4c0.7,0,1.1-0.2,1.4-0.6c0.3-0.4,0.4-1,0.4-1.9v-3.5
		h1v7h-0.7l-0.2-1h-0.1c-0.2,0-0.5,0.6-0.9,0.7s-0.8,0.3-1.3,0.3c-0.8,0-1.7-0.2-2.1-0.6C89.4,79.6,89,78.9,89,78v-4.5H91z"/>
	<path class="st0" d="M100.8,80.6c-0.9,0-1.7,0-2.2-1h-0.1l0.2,0.3c0,0.3,0.2,0.6,0.2,0.9v2.9h-2v-10h1.4l0.2,1h0.1
		c0.3-1,0.6-0.7,0.9-0.9s0.8-0.3,1.2-0.3c0.9,0,1.6,0.3,2.1,0.9c0.5,0.6,0.8,1.5,0.8,2.6c0,1.1-0.3,2-0.8,2.7
		C102.4,80.2,101.7,80.6,100.8,80.6z M100.6,74.3c-0.7,0-1,0.2-1.3,0.6c-0.3,0.4-0.3,1-0.3,1.8v0.2c0,0.9,0,1.6,0.3,2
		c0.3,0.4,0.7,0.6,1.4,0.6c0.6,0,1-0.2,1.3-0.7c0.3-0.5,0.5-1.1,0.5-2c0-0.9-0.2-1.5-0.5-2C101.7,74.5,101.2,74.3,100.6,74.3z"/>
	<path class="st0" d="M111.5,76.9c0,1.1-0.3,2-0.9,2.7c-0.6,0.6-1.4,1-2.4,1c-0.6,0-1.2-0.1-1.7-0.4c-0.5-0.3-0.9-0.7-1.1-1.3
		s-0.4-1.2-0.4-1.9c0-1.1,0.3-2,0.9-2.6c0.6-0.6,1.4-0.9,2.4-0.9c1,0,1.8,0.3,2.3,1C111.3,74.9,111.5,75.8,111.5,76.9z M106.3,76.9
		c0,0.9,0.2,1.5,0.5,2c0.3,0.5,0.9,0.7,1.5,0.7c0.7,0,1.2-0.2,1.5-0.7c0.3-0.5,0.5-1.1,0.5-2s-0.2-1.5-0.5-2
		c-0.3-0.4-0.9-0.7-1.5-0.7C107,74.3,106.3,75.2,106.3,76.9z"/>
	<path class="st0" d="M118,80.6V76c0-0.6-0.1-1-0.3-1.3c-0.3-0.3-0.6-0.4-1.2-0.4c-0.7,0-1.5,0.2-1.8,0.6c-0.3,0.4-0.7,1-0.7,1.9
		v3.8h-1v-7h1.3l0.2,1h0.1c0.2,0,0.5-0.7,0.9-0.9c0.4-0.2,0.8-0.3,1.3-0.3c0.9,0,1.4,0.2,1.8,0.6s0.5,1,0.5,1.9v4.7H118z"/>
	<path class="st0" d="M125.9,78.5c0,0.7-0.2,1.2-0.7,1.5c-0.5,0.4-1.1,0.5-2,0.5c-0.9,0-2.2-0.1-2.2-0.4v-1c1,0.4,1.5,0.6,2.2,0.6
		c0.6,0,1-0.1,1.2-0.3c0.3-0.2,0.4-0.4,0.4-0.7c0-0.3-0.1-0.5-0.4-0.7c-0.3-0.2-0.7-0.4-1.3-0.7c-0.7-0.3-1.1-0.5-1.4-0.7
		c-0.3-0.2-0.5-0.4-0.6-0.6c-0.1-0.2-0.2-0.5-0.2-0.8c0-0.6,0.2-1,0.7-1.4s1.1-0.5,1.9-0.5c0.8,0,1.5,0.2,2.2,0.5l-0.4,0.9
		c-0.7-0.3-1.3-0.4-1.9-0.4c-0.5,0-0.8,0.1-1.1,0.2c-0.2,0.2-0.4,0.4-0.4,0.6c0,0.3,0.1,0.5,0.3,0.6c0.2,0.2,0.7,0.4,1.5,0.7
		c0.6,0.2,1,0.4,1.3,0.6c0.3,0.2,0.5,0.4,0.6,0.6S125.9,78.2,125.9,78.5z"/>
</g>
</svg>