<!-- Generator: Adobe Illustrator 19.0.0, SVG Export Plug-In  -->
<svg version="1.1"
	 xmlns="http://www.w3.org/2000/svg" xmlns:xlink="http://www.w3.org/1999/xlink" xmlns:a="http://ns.adobe.com/AdobeSVGViewerExtensions/3.0/"
	 x="0px" y="0px" width="70.1px" height="123.4px" viewBox="0 0 70.1 123.4" style="enable-background:new 0 0 70.1 123.4;"
	 xml:space="preserve">
<style type="text/css">
	.st0{fill:#086A87;stroke:#086A87;stroke-width:0.6;stroke-miterlimit:10;}
	.st1{fill:none;stroke:#086A87;stroke-width:1.5569;stroke-linecap:round;stroke-linejoin:round;stroke-miterlimit:10;}
	.st2{fill:none;stroke:#086A87;stroke-width:2;stroke-linecap:round;stroke-linejoin:round;stroke-miterlimit:10;}
	.st3{fill:#086A87;}
	.st4{fill:#FF6633;}
</style>
<defs>
</defs>
<g id="XMLID_53_">
	<g id="XMLID_55_">
		<path id="XMLID_73_" class="st0" d="M16.9,88.4l-2.8-7.5h0c0.1,0.6,0.1,1.4,0.1,2.3v5.2h-1v-8.6h1.6l2.6,7h0l2.7-7h1.6v8.6h-1.1
			v-5.3c0-0.6,0-1.3,0.1-2.2h0l-2.9,7.5H16.9z"/>
		<path id="XMLID_69_" class="st0" d="M26.6,88.5c-1,0-1.7-0.3-2.3-0.9s-0.8-1.4-0.8-2.4c0-1,0.3-1.9,0.8-2.5s1.2-0.9,2.1-0.9
			c0.8,0,1.5,0.3,1.9,0.8s0.7,1.2,0.7,2.1v0.6h-4.4c0,0.7,0.2,1.3,0.6,1.7s0.8,0.6,1.5,0.6c0.3,0,0.7,0,1-0.1s0.7-0.2,1.1-0.4v0.9
			c-0.4,0.2-0.7,0.3-1,0.3S27.1,88.5,26.6,88.5z M26.4,82.7c-0.5,0-0.9,0.2-1.2,0.5s-0.5,0.8-0.5,1.4h3.3c0-0.6-0.1-1.1-0.4-1.4
			S26.9,82.7,26.4,82.7z M25.8,89.8c0-0.2,0.1-0.4,0.2-0.5s0.3-0.2,0.4-0.2c0.2,0,0.3,0.1,0.4,0.2s0.2,0.3,0.2,0.5
			c0,0.2-0.1,0.4-0.2,0.5s-0.3,0.2-0.4,0.2c-0.2,0-0.3-0.1-0.5-0.2S25.8,90,25.8,89.8z"/>
		<path id="XMLID_67_" class="st0" d="M35.2,88.4l-2.4-6.4h1.1l1.4,3.8c0.3,0.8,0.4,1.3,0.5,1.7h0c0-0.1,0-0.1,0-0.2s0-0.1,0.1-0.2
			s0.2-0.5,0.4-1.3l1.4-3.8h1.1l-2.4,6.4H35.2z"/>
		<path id="XMLID_63_" class="st0" d="M43.8,88.4l-0.2-0.9h0c-0.3,0.4-0.6,0.7-1,0.8s-0.7,0.2-1.2,0.2c-0.6,0-1.1-0.2-1.5-0.5
			s-0.5-0.8-0.5-1.4c0-1.3,1-2,3.1-2.1l1.1,0v-0.4c0-0.5-0.1-0.8-0.3-1.1s-0.5-0.3-1-0.3c-0.3,0-0.7,0.1-1,0.2s-0.6,0.2-0.9,0.3
			l-0.3-0.8c0.3-0.2,0.7-0.3,1.1-0.4s0.8-0.1,1.1-0.1c0.8,0,1.4,0.2,1.7,0.5s0.6,0.9,0.6,1.6v4.4H43.8z M42.9,81.1h-0.7
			c-0.3-0.2-0.6-0.5-1-0.9s-0.6-0.7-0.7-0.9v-0.1h1.3c0.1,0.3,0.3,0.6,0.5,0.9s0.4,0.6,0.6,0.9V81.1z M41.7,87.6
			c0.6,0,1.1-0.2,1.4-0.5s0.5-0.8,0.5-1.4v-0.6l-0.9,0c-0.7,0-1.3,0.1-1.6,0.4s-0.5,0.5-0.5,1c0,0.3,0.1,0.6,0.3,0.8
			S41.3,87.6,41.7,87.6z"/>
		<path id="XMLID_60_" class="st0" d="M52.8,81.8c0.8,0,1.5,0.3,2,0.9s0.7,1.4,0.7,2.4c0,1.1-0.2,1.9-0.7,2.5s-1.1,0.9-2,0.9
			c-0.4,0-0.8-0.1-1.2-0.2s-0.6-0.4-0.8-0.7h-0.1c-0.1,0.5-0.2,0.7-0.2,0.8h-0.8v-9.1h1.1v2.2c0,0.4,0,0.9-0.1,1.3h0.1
			C51.2,82.1,51.9,81.8,52.8,81.8z M52.6,82.7c-0.6,0-1.1,0.2-1.4,0.6s-0.4,1-0.4,1.9v0c0,0.9,0.1,1.5,0.4,1.9s0.8,0.6,1.4,0.6
			c0.6,0,1-0.2,1.3-0.6s0.4-1,0.4-1.8c0-0.8-0.1-1.4-0.4-1.8S53.2,82.7,52.6,82.7z"/>
		<path id="XMLID_56_" class="st0" d="M59.8,88.5c-1,0-1.7-0.3-2.3-0.9s-0.8-1.4-0.8-2.4c0-1,0.3-1.9,0.8-2.5s1.2-0.9,2.1-0.9
			c0.8,0,1.5,0.3,1.9,0.8s0.7,1.2,0.7,2.1v0.6h-4.4c0,0.7,0.2,1.3,0.6,1.7s0.8,0.6,1.5,0.6c0.3,0,0.7,0,1-0.1s0.7-0.2,1.1-0.4v0.9
			c-0.4,0.2-0.7,0.3-1,0.3S60.3,88.5,59.8,88.5z M59.6,82.7c-0.5,0-0.9,0.2-1.2,0.5s-0.5,0.8-0.5,1.4h3.3c0-0.6-0.1-1.1-0.4-1.4
			S60.1,82.7,59.6,82.7z M58.8,80.9c0.1-0.2,0.3-0.5,0.6-0.8s0.4-0.7,0.6-1h1.3v0.1c-0.2,0.3-0.4,0.6-0.8,0.9s-0.7,0.7-0.9,0.9h-0.7
			V80.9z"/>
	</g>
</g>
<g id="XMLID_34_">
	<g id="XMLID_40_">
		<path id="XMLID_52_" class="st1" d="M50.3,41.8c2-2.5,3.4-5.5,4.2-8.8c0.4-1.7,0.6-3.6,0.6-5.4c0-1.9-0.2-3.7-0.6-5.4
			c-0.8-3.5-2.5-6.6-4.6-9.3c-0.7-0.8-1.4-1.6-2.2-2.3c-0.7-0.7-1.4-1.3-2.2-1.8c-1.4-1-2.9-1.9-4.6-2.5c-2.7-1.1-5.7-1.8-8.8-1.8
			c-0.8,0-1.7,0-2.5,0.1c-1,0.1-1.9,0.3-2.8,0.5c-1,0.2-2.1,0.6-3,0.9c-7.3,2.8-12.8,9.2-14.3,17C9.1,24.5,9,26,9,27.6
			c0,1.9,0.2,3.8,0.7,5.6c2.5,10.1,11.6,17.5,22.4,17.5c3.5,0,6.8-0.8,9.8-2.2"/>
		<polygon id="XMLID_51_" class="st2" points="32.4,22.8 32.4,30.2 37.2,30.2 		"/>
		<circle id="XMLID_50_" class="st3" cx="25.2" cy="26.4" r="2.9"/>
		<circle id="XMLID_49_" class="st3" cx="41.7" cy="26.4" r="2.9"/>
		<path id="XMLID_48_" class="st1" d="M27.5,7.8"/>
		<path id="XMLID_47_" class="st1" d="M42.1,0.8c0.2,2.4-0.5,4.9-2.1,6.9c-2.7,3.4-7.3,4.4-11.1,2.8"/>
		<path id="XMLID_46_" class="st1" d="M9.7,33.1c-0.9,0.6-1.9,0.9-3,0.9c-3.2,0-5.9-2.6-5.9-5.9c0-3.2,2.6-5.8,5.9-5.8
			c1,0,2,0.3,2.8,0.7"/>
		<line id="XMLID_45_" class="st2" x1="3.4" y1="27.2" x2="6.4" y2="27.2"/>
		<line id="XMLID_44_" class="st2" x1="5.4" y1="27.2" x2="5.4" y2="30.2"/>
		<path id="XMLID_43_" class="st1" d="M54.5,22.2c0.7-0.3,1.4-0.4,2.1-0.4c3.2,0,5.8,2.6,5.8,5.8s-2.6,5.8-5.8,5.8
			c-0.8,0-1.5-0.1-2.1-0.4"/>
		<line id="XMLID_42_" class="st2" x1="59.4" y1="26.2" x2="56.4" y2="26.2"/>
		<line id="XMLID_41_" class="st2" x1="58.4" y1="26.2" x2="58.4" y2="29.2"/>
	</g>
	<path id="XMLID_39_" class="st1" d="M58.1,53.2l-4,4c-1,1-2.6,1-3.6,0l-9.9-9.9c-1-1-1-2.6,0-3.6l4-4c1-1,2.6-1,3.6,0l9.9,9.9
		C59.1,50.6,59.1,52.2,58.1,53.2z"/>
	<path id="XMLID_38_" class="st1" d="M44.1,36.8l-0.3,0.3L43,36.3c-0.7-0.7-1.7-0.7-2.4,0L40,36.9l-1.4-1.4c-0.5-0.5-1.4-0.5-2,0
		c-0.5,0.5-0.5,1.4,0,2l1.4,1.4l-0.6,0.6c-0.7,0.7-0.7,1.7,0,2.4l0.8,0.8L37.9,43c-0.5,0.5-0.5,1.3,0,1.7c0.5,0.5,1.3,0.5,1.7,0
		l1.5-1.5l3.2-3.2l1.5-1.5c0.5-0.5,0.5-1.3,0-1.7C45.4,36.4,44.6,36.4,44.1,36.8z"/>
	<line id="XMLID_37_" class="st1" x1="49.8" y1="41.3" x2="46.1" y2="45"/>
	<line id="XMLID_36_" class="st1" x1="51.2" y1="43.1" x2="47.5" y2="46.9"/>
	<line id="XMLID_35_" class="st1" x1="52.7" y1="45" x2="49" y2="48.7"/>
</g>
<g id="XMLID_15_">
	<path id="XMLID_31_" class="st4" d="M23.4,120.2h-1v3h-3v-3h-6v-2.2l5.8-8.8h3.2v9h1V120.2z M19.4,118.2v-2.8c0-0.4-0.2-1-0.1-1.8
		c0-0.8-0.1-1.4-0.1-1.4h-0.1c-0.2,1-0.5,1.3-0.9,1.8l-2.6,4.2H19.4z"/>
	<path id="XMLID_29_" class="st4" d="M25.2,121.7c0-0.5,0.1-1,0.4-1.2s0.7-0.4,1.3-0.4c0.5,0,1,0.1,1.3,0.4c0.3,0.3,0.4,0.7,0.4,1.2
		c0,0.5-0.1,0.9-0.4,1.2c-0.3,0.3-0.7,0.4-1.3,0.4c-0.5,0-1-0.1-1.3-0.4C25.4,122.7,25.2,122.3,25.2,121.7z"/>
	<path id="XMLID_25_" class="st4" d="M35.5,108.7c1.4,0,2.5,0.3,3.3,0.9c0.8,0.6,1.3,1.5,1.3,2.5c0,0.7-0.2,1.4-0.6,1.9
		c-0.4,0.6-1.1,1.1-2,1.5c1.1,0.6,1.8,1.2,2.3,1.8c0.5,0.6,0.7,1.3,0.7,2c0,1.2-0.5,2.1-1.4,2.8s-2.1,1.1-3.6,1.1
		c-1.6,0-2.8-0.3-3.7-1c-0.9-0.7-1.3-1.6-1.3-2.8c0-0.8,0.2-1.5,0.6-2.2c0.4-0.6,1.1-1.2,2.1-1.7c-0.8-0.5-1.4-1.1-1.8-1.7
		c-0.4-0.6-0.5-1.2-0.5-1.9c0-1,0.4-1.8,1.3-2.5C33.1,109,34.2,108.7,35.5,108.7z M33.3,119.3c0,0.6,0.2,1,0.6,1.3s0.9,0.5,1.6,0.5
		c0.7,0,1.3-0.2,1.7-0.5s0.6-0.7,0.6-1.3c0-0.4-0.2-0.8-0.6-1.2c-0.4-0.4-1-0.8-1.8-1.2C34,117.5,33.3,118.3,33.3,119.3z
		 M35.5,110.9c-0.5,0-0.9,0.1-1.2,0.4c-0.3,0.3-0.5,0.6-0.5,1.1c0,0.4,0.1,0.7,0.4,1c0.3,0.3,0.7,0.6,1.4,1c0.6-0.3,1.1-0.6,1.3-0.9
		s0.4-0.7,0.4-1.1c0-0.4-0.2-0.8-0.5-1.1C36.4,111,36,110.9,35.5,110.9z"/>
	<path id="XMLID_22_" class="st4" d="M41.9,117.1c0-2.8,0.6-4.9,1.8-6.3c1.2-1.4,3.2-2.1,5.6-2.1c0.8,0,1.1,0,2.1,0.1v2.4
		c-1-0.1-1.4-0.2-1.9-0.2c-1,0-2,0.2-2.6,0.5s-1.2,0.6-1.5,1.3c-0.3,0.6-0.6,1.5-0.6,2.5h0.1c0.6-1,1.7-1.5,3.1-1.5
		c1.3,0,2.3,0.5,3,1.3s1.1,1.9,1.1,3.4c0,1.5-0.4,2.7-1.3,3.6s-2.1,1.3-3.6,1.3c-1.1,0-2-0.2-2.8-0.7c-0.8-0.5-1.4-1.2-1.8-2.1
		C42.2,119.5,41.9,118.4,41.9,117.1z M47.1,120.9c0.6,0,1.1-0.2,1.5-0.6c0.3-0.4,0.5-1,0.5-1.9c0-0.7-0.2-1.2-0.5-1.6
		s-0.8-0.6-1.5-0.6c-0.6,0-1.1,0.2-1.6,0.6c-0.4,0.4-0.6,0.9-0.6,1.4c0,0.8,0.2,1.4,0.6,2C46,120.6,46.5,120.9,47.1,120.9z"/>
	<path id="XMLID_16_" class="st4" d="M60.1,113.1c0,1.5-0.3,2.6-0.9,3.4c-0.6,0.8-1.4,1.1-2.5,1.1c-1.1,0-1.9-0.4-2.5-1.2
		s-0.9-1.9-0.9-3.3c0-3,1.1-4.5,3.4-4.5c1.1,0,1.9,0.4,2.5,1.2C59.8,110.6,60.1,111.7,60.1,113.1z M55.7,113.1
		c0,0.8,0.1,1.4,0.2,1.9s0.4,0.6,0.7,0.6c0.6,0,0.9-0.8,0.9-2.5c0-1.6-0.3-2.4-0.9-2.4c-0.3,0-0.6,0.2-0.7,0.6
		S55.7,112.3,55.7,113.1z M66.8,109.2l-7.9,14h-2.3l7.9-14H66.8z M70.1,118.8c0,1.5-0.3,2.6-0.9,3.4c-0.6,0.8-1.4,1.1-2.5,1.1
		c-1.1,0-1.9-0.4-2.5-1.2s-0.9-1.9-0.9-3.3c0-3,1.1-4.5,3.4-4.5c1.1,0,1.9,0.4,2.5,1.2C69.8,116.3,70.1,117.4,70.1,118.8z
		 M65.7,118.8c0,0.8,0.1,1.4,0.2,1.9s0.4,0.6,0.7,0.6c0.6,0,0.9-0.8,0.9-2.5c0-1.6-0.3-2.4-0.9-2.4c-0.3,0-0.6,0.2-0.7,0.6
		S65.7,118,65.7,118.8z"/>
</g>
</svg>