<!-- Generator: Adobe Illustrator 19.0.0, SVG Export Plug-In  -->
<svg version="1.1"
	 xmlns="http://www.w3.org/2000/svg" xmlns:xlink="http://www.w3.org/1999/xlink" xmlns:a="http://ns.adobe.com/AdobeSVGViewerExtensions/3.0/"
	 x="0px" y="0px" width="59.6px" height="126.5px" viewBox="0 0 59.6 126.5" style="enable-background:new 0 0 59.6 126.5;"
	 xml:space="preserve">
<style type="text/css">
	.st0{fill:#086A87;stroke:#086A87;stroke-width:0.6;stroke-miterlimit:10;}
	.st1{fill:#FF6633;}
	.st2{fill:none;stroke:#086A87;stroke-width:2;stroke-linecap:round;stroke-linejoin:round;stroke-miterlimit:10;}
</style>
<defs>
</defs>
<g id="XMLID_58_">
	<g id="XMLID_60_">
		<path id="XMLID_80_" class="st0" d="M9.9,86.4c0,1.4-0.4,2.5-1.2,3.2s-1.9,1.1-3.3,1.1H3.1v-8.6h2.6c1.3,0,2.4,0.4,3.1,1.1
			S9.9,85,9.9,86.4z M8.8,86.4c0-1.1-0.3-1.9-0.8-2.5s-1.3-0.8-2.4-0.8H4.2v6.7h1.2C7.6,89.8,8.8,88.7,8.8,86.4z"/>
		<path id="XMLID_76_" class="st0" d="M15.7,90.7l-0.2-0.9h0c-0.3,0.4-0.6,0.7-1,0.8s-0.7,0.2-1.2,0.2c-0.6,0-1.1-0.2-1.5-0.5
			s-0.5-0.8-0.5-1.4c0-1.3,1-2,3.1-2.1l1.1,0v-0.4c0-0.5-0.1-0.8-0.3-1.1s-0.5-0.3-1-0.3c-0.3,0-0.7,0.1-1,0.2s-0.6,0.2-0.9,0.3
			l-0.3-0.8c0.3-0.2,0.7-0.3,1.1-0.4s0.8-0.1,1.1-0.1c0.8,0,1.4,0.2,1.7,0.5c0.4,0.3,0.6,0.9,0.6,1.6v4.4H15.7z M14.9,83.5
			c-0.2,0-0.3,0-0.5-0.1s-0.3-0.2-0.5-0.2s-0.3-0.2-0.4-0.2s-0.3-0.1-0.4-0.1c-0.2,0-0.3,0.1-0.4,0.2s-0.2,0.3-0.2,0.5h-0.6
			c0-0.5,0.2-0.9,0.4-1.1s0.5-0.4,0.9-0.4c0.2,0,0.3,0,0.5,0.1s0.3,0.2,0.5,0.2s0.3,0.2,0.4,0.2s0.3,0.1,0.4,0.1
			c0.2,0,0.3-0.1,0.4-0.2s0.2-0.3,0.2-0.5h0.6c0,0.5-0.2,0.8-0.4,1.1C15.6,83.3,15.3,83.5,14.9,83.5z M13.5,90
			c0.6,0,1.1-0.2,1.4-0.5s0.5-0.8,0.5-1.4v-0.6l-0.9,0c-0.7,0-1.3,0.1-1.6,0.4s-0.5,0.5-0.5,1c0,0.3,0.1,0.6,0.3,0.8
			S13.1,90,13.5,90z"/>
		<path id="XMLID_74_" class="st0" d="M25.9,90.7v-4.1c0-0.5-0.1-0.9-0.3-1.2s-0.6-0.4-1.1-0.4c-0.7,0-1.1,0.2-1.4,0.5
			s-0.4,1-0.4,1.8v3.3h-1.1v-6.4h0.8l0.2,0.9h0.1c0.2-0.3,0.5-0.6,0.8-0.7s0.8-0.3,1.2-0.3c0.8,0,1.4,0.2,1.8,0.6s0.6,1,0.6,1.8v4.2
			H25.9z"/>
		<path id="XMLID_71_" class="st0" d="M33.3,90.7l0-0.8h0c-0.4,0.6-1.1,1-2,1c-0.8,0-1.5-0.3-1.9-0.9s-0.7-1.4-0.7-2.5
			c0-1,0.2-1.9,0.7-2.4s1.1-0.9,1.9-0.9c0.9,0,1.5,0.3,2,1h0.1l0.1-0.9h0.8v6.5c0,0.9-0.2,1.6-0.7,2.1s-1.2,0.7-2.2,0.7
			c-0.9,0-1.7-0.1-2.3-0.4v-1c0.6,0.3,1.4,0.5,2.4,0.5c0.5,0,1-0.2,1.3-0.5s0.5-0.8,0.5-1.3V90.7z M31.4,90c0.6,0,1.1-0.2,1.4-0.5
			s0.4-0.9,0.4-1.7v-0.3c0-0.9-0.1-1.5-0.4-1.9s-0.8-0.6-1.4-0.6c-0.5,0-1,0.2-1.3,0.6s-0.4,1-0.4,1.8c0,0.8,0.1,1.4,0.4,1.8
			S30.8,90,31.4,90z"/>
		<path id="XMLID_68_" class="st0" d="M41.9,87.5c0,1.1-0.3,1.9-0.8,2.5s-1.3,0.9-2.2,0.9c-0.6,0-1.1-0.1-1.5-0.4s-0.8-0.7-1-1.2
			S36,88.2,36,87.5c0-1,0.3-1.9,0.8-2.4s1.3-0.9,2.2-0.9c0.9,0,1.6,0.3,2.2,0.9S41.9,86.5,41.9,87.5z M37.1,87.5
			c0,0.8,0.2,1.4,0.5,1.8S38.3,90,39,90c0.6,0,1.1-0.2,1.4-0.6s0.5-1,0.5-1.8s-0.2-1.4-0.5-1.8s-0.8-0.6-1.4-0.6
			C37.7,85.1,37.1,85.9,37.1,87.5z"/>
		<path id="XMLID_64_" class="st0" d="M47.6,90.7l-0.2-0.9h0c-0.3,0.4-0.6,0.7-1,0.8s-0.7,0.2-1.2,0.2c-0.6,0-1.1-0.2-1.5-0.5
			s-0.5-0.8-0.5-1.4c0-1.3,1-2,3.1-2.1l1.1,0v-0.4c0-0.5-0.1-0.8-0.3-1.1S46.5,85,46,85c-0.3,0-0.7,0.1-1,0.2s-0.6,0.2-0.9,0.3
			l-0.3-0.8c0.3-0.2,0.7-0.3,1.1-0.4s0.8-0.1,1.1-0.1c0.8,0,1.4,0.2,1.7,0.5s0.6,0.9,0.6,1.6v4.4H47.6z M45.4,90
			c0.6,0,1.1-0.2,1.4-0.5s0.5-0.8,0.5-1.4v-0.6l-0.9,0c-0.7,0-1.3,0.1-1.6,0.4s-0.5,0.5-0.5,1c0,0.3,0.1,0.6,0.3,0.8S45,90,45.4,90z
			 M44.9,92.2c0-0.2,0.1-0.4,0.2-0.5s0.3-0.2,0.4-0.2c0.2,0,0.3,0.1,0.4,0.2s0.2,0.3,0.2,0.5c0,0.2-0.1,0.4-0.2,0.5
			s-0.3,0.2-0.4,0.2c-0.2,0-0.3-0.1-0.5-0.2S44.9,92.4,44.9,92.2z"/>
		<path id="XMLID_61_" class="st0" d="M50.3,82.6c0-0.2,0.1-0.4,0.2-0.5s0.3-0.2,0.4-0.2c0.2,0,0.3,0.1,0.4,0.2s0.2,0.3,0.2,0.5
			c0,0.2-0.1,0.4-0.2,0.5s-0.3,0.2-0.4,0.2c-0.2,0-0.3-0.1-0.4-0.2S50.3,82.8,50.3,82.6z M51.4,90.7h-1.1v-6.4h1.1V90.7z"/>
	</g>
</g>
<g id="XMLID_23_">
	<g id="XMLID_25_">
		<path id="XMLID_40_" class="st1" d="M4.4,126.4l5.4-12H3v-2h10v1.5l-5.4,12.5H4.4z"/>
		<path id="XMLID_38_" class="st1" d="M14.8,124.9c0-0.5,0.1-1,0.4-1.2s0.7-0.4,1.3-0.4c0.5,0,1,0.1,1.3,0.4
			c0.3,0.3,0.4,0.7,0.4,1.2c0,0.5-0.1,0.9-0.4,1.2c-0.3,0.3-0.7,0.4-1.3,0.4c-0.5,0-1-0.1-1.3-0.4C14.9,125.8,14.8,125.4,14.8,124.9
			z"/>
		<path id="XMLID_35_" class="st1" d="M30,123.4h-1v3h-3v-3h-6v-2.2l6-8.8h3v9h1V123.4z M26,121.4v-2.8c0-0.4-0.1-1-0.1-1.8
			c0-0.8,0-1.4,0-1.4h-0.1c-0.2,1-0.5,1.3-0.9,1.8l-2.6,4.2H26z"/>
		<path id="XMLID_32_" class="st1" d="M42,123.4h-2v3h-3v-3h-6v-2.2l6.4-8.8H40v9h2V123.4z M37,121.4v-2.8c0-0.4,0.1-1,0.2-1.8
			c0-0.8,0.2-1.4,0.2-1.4h-0.1c-0.2,1-0.5,1.3-0.9,1.8l-2.6,4.2H37z"/>
		<path id="XMLID_26_" class="st1" d="M49.6,116.2c0,1.5-0.3,2.6-0.9,3.4c-0.6,0.8-1.4,1.1-2.5,1.1c-1.1,0-1.9-0.4-2.5-1.2
			s-0.9-1.9-0.9-3.3c0-3,1.1-4.5,3.4-4.5c1.1,0,1.9,0.4,2.5,1.2C49.3,113.7,49.6,114.8,49.6,116.2z M45.3,116.3
			c0,0.8,0.1,1.4,0.2,1.9s0.4,0.6,0.7,0.6c0.6,0,0.9-0.8,0.9-2.5c0-1.6-0.3-2.4-0.9-2.4c-0.3,0-0.6,0.2-0.7,0.6
			S45.3,115.4,45.3,116.3z M56.3,112.4l-7.9,14h-2.3l7.9-14H56.3z M59.6,121.9c0,1.5-0.3,2.6-0.9,3.4c-0.6,0.8-1.4,1.1-2.5,1.1
			c-1.1,0-1.9-0.4-2.5-1.2s-0.9-1.9-0.9-3.3c0-3,1.1-4.5,3.4-4.5c1.1,0,1.9,0.4,2.5,1.2C59.3,119.4,59.6,120.5,59.6,121.9z
			 M55.3,122c0,0.8,0.1,1.4,0.2,1.9s0.4,0.6,0.7,0.6c0.6,0,0.9-0.8,0.9-2.5c0-1.6-0.3-2.4-0.9-2.4c-0.3,0-0.6,0.2-0.7,0.6
			S55.3,121.1,55.3,122z"/>
	</g>
</g>
<g id="XMLID_15_">
	<path id="XMLID_22_" class="st2" d="M11.7,20.9c0-8.6,7-15.5,15.5-15.5s15.5,7,15.5,15.5"/>
	<rect id="XMLID_21_" x="9" y="21.4" class="st2" width="37" height="3"/>
	<path id="XMLID_20_" class="st2" d="M23.3,6c0-2.8,2.2-5,5-5s5,2.2,5,5"/>
	<path id="XMLID_19_" class="st2" d="M34.3,24.5c0,3.6-2.9,6.5-6.5,6.5s-6.5-2.9-6.5-6.5"/>
	<path id="XMLID_18_" class="st2" d="M13.5,57.2"/>
	<path id="XMLID_17_" class="st2" d="M1,57.4v-30h10v29.8V27.4H1v29c0,5.3,4.2,9.9,9.5,10.3c5.5,0.4,10.3-3.8,10.7-9.1
		c0-0.5,0.1-1.1,0.2-1.6L26.2,31"/>
	<line id="XMLID_16_" class="st2" x1="11.5" y1="57.2" x2="21.2" y2="26.2"/>
</g>
</svg>