<!-- Generator: Adobe Illustrator 19.0.0, SVG Export Plug-In  -->
<svg version="1.1"
	 xmlns="http://www.w3.org/2000/svg" xmlns:xlink="http://www.w3.org/1999/xlink" xmlns:a="http://ns.adobe.com/AdobeSVGViewerExtensions/3.0/"
	 x="0px" y="0px" width="88.8px" height="125.2px" viewBox="0 0 88.8 125.2" style="enable-background:new 0 0 88.8 125.2;"
	 xml:space="preserve">
<style type="text/css">
	.st0{fill:#086A87;stroke:#086A87;stroke-width:0.6;stroke-miterlimit:10;}
	.st1{fill:#FF6633;}
	.st2{fill:none;stroke:#086A87;stroke-width:2;stroke-linecap:round;stroke-linejoin:round;stroke-miterlimit:10;}
</style>
<defs>
</defs>
<g id="XMLID_61_">
	<g id="XMLID_63_">
		<path id="XMLID_132_" class="st0" d="M5.7,73.7c0,0.7-0.3,1.3-0.8,1.8s-1.3,0.6-2.3,0.6c-1,0-1.8-0.1-2.4-0.4v-1
			c0.4,0.2,0.8,0.3,1.2,0.4s0.8,0.1,1.2,0.1c0.6,0,1.1-0.1,1.4-0.4s0.5-0.6,0.5-1c0-0.3-0.1-0.5-0.2-0.7s-0.3-0.4-0.6-0.5
			S3.2,72.2,2.6,72c-0.8-0.3-1.4-0.6-1.7-1s-0.5-0.9-0.5-1.5c0-0.7,0.3-1.2,0.8-1.6s1.2-0.6,2-0.6c0.9,0,1.6,0.2,2.4,0.5l-0.3,0.9
			c-0.7-0.3-1.4-0.5-2.1-0.5c-0.5,0-0.9,0.1-1.2,0.3s-0.4,0.5-0.4,0.9c0,0.3,0.1,0.5,0.2,0.7s0.3,0.4,0.5,0.5s0.6,0.3,1.2,0.5
			c0.6,0.2,1.1,0.5,1.4,0.7s0.5,0.5,0.7,0.8S5.7,73.3,5.7,73.7z"/>
		<path id="XMLID_128_" class="st0" d="M11.3,76l-0.2-0.9h0c-0.3,0.4-0.6,0.7-1,0.8s-0.7,0.2-1.2,0.2c-0.6,0-1.1-0.2-1.5-0.5
			s-0.5-0.8-0.5-1.4c0-1.3,1-2,3.1-2.1l1.1,0v-0.4c0-0.5-0.1-0.8-0.3-1.1s-0.5-0.3-1-0.3c-0.3,0-0.7,0.1-1,0.2s-0.6,0.2-0.9,0.3
			L7.5,70c0.3-0.2,0.7-0.3,1.1-0.4s0.8-0.1,1.1-0.1c0.8,0,1.4,0.2,1.7,0.5s0.6,0.9,0.6,1.6V76H11.3z M9.1,75.2
			c0.6,0,1.1-0.2,1.4-0.5S11,74,11,73.4v-0.6l-0.9,0c-0.7,0-1.3,0.1-1.6,0.4s-0.5,0.5-0.5,1c0,0.3,0.1,0.6,0.3,0.8
			S8.7,75.2,9.1,75.2z M8.8,68.6c0.1-0.2,0.3-0.5,0.6-0.8s0.4-0.7,0.6-1h1.3v0.1c-0.2,0.3-0.4,0.6-0.8,0.9s-0.7,0.7-0.9,0.9H8.8
			V68.6z"/>
		<path id="XMLID_126_" class="st0" d="M16.6,76.1c-0.9,0-1.6-0.3-2.2-0.9s-0.8-1.4-0.8-2.4c0-1.1,0.3-1.9,0.8-2.5s1.3-0.9,2.2-0.9
			c0.3,0,0.6,0,0.9,0.1s0.6,0.1,0.8,0.2L18,70.6c-0.5-0.2-1-0.3-1.4-0.3c-0.6,0-1.1,0.2-1.4,0.6s-0.5,1-0.5,1.8
			c0,0.8,0.2,1.4,0.5,1.8s0.8,0.6,1.4,0.6c0.6,0,1.1-0.1,1.7-0.4v0.9C17.8,76,17.3,76.1,16.6,76.1z"/>
		<path id="XMLID_124_" class="st0" d="M24.2,76v-4.1c0-0.5-0.1-0.9-0.3-1.2s-0.6-0.4-1.1-0.4c-0.7,0-1.1,0.2-1.4,0.5
			s-0.5,1-0.5,1.8V76h-1.1v-9.1h1.1v2.7c0,0.4,0,0.7-0.1,0.9h0.1c0.2-0.3,0.5-0.6,0.8-0.7s0.7-0.3,1.2-0.3c0.8,0,1.4,0.2,1.8,0.6
			s0.6,1,0.6,1.8V76H24.2z"/>
		<path id="XMLID_122_" class="st0" d="M28.4,74.6l0.1,0.1c-0.2,0.8-0.6,1.8-1,2.8h-0.8c0.3-1,0.5-2,0.6-2.9H28.4z"/>
		<path id="XMLID_119_" class="st0" d="M39.2,69.9c0,0.9-0.3,1.5-0.9,2s-1.4,0.7-2.5,0.7h-1V76h-1.1v-8.6H36
			C38.1,67.4,39.2,68.2,39.2,69.9z M34.8,71.7h0.9c0.9,0,1.5-0.1,1.9-0.4s0.6-0.7,0.6-1.3c0-0.6-0.2-1-0.5-1.2s-0.9-0.4-1.7-0.4
			h-1.1V71.7z"/>
		<path id="XMLID_117_" class="st0" d="M45.2,76v-4.1c0-0.5-0.1-0.9-0.3-1.2s-0.6-0.4-1.1-0.4c-0.7,0-1.1,0.2-1.4,0.5
			s-0.5,1-0.5,1.8V76h-1.1v-9.1h1.1v2.7c0,0.4,0,0.7-0.1,0.9h0.1c0.2-0.3,0.5-0.6,0.8-0.7s0.7-0.3,1.2-0.3c0.8,0,1.4,0.2,1.8,0.6
			s0.6,1,0.6,1.8V76H45.2z"/>
		<path id="XMLID_114_" class="st0" d="M48.1,67.8c0-0.2,0.1-0.4,0.2-0.5s0.3-0.2,0.4-0.2c0.2,0,0.3,0.1,0.4,0.2s0.2,0.3,0.2,0.5
			c0,0.2-0.1,0.4-0.2,0.5s-0.3,0.2-0.4,0.2c-0.2,0-0.3-0.1-0.4-0.2S48.1,68,48.1,67.8z M49.3,76h-1.1v-6.4h1.1V76z"/>
		<path id="XMLID_112_" class="st0" d="M59.5,76v-4.1c0-1-0.4-1.5-1.3-1.5c-0.6,0-1,0.2-1.3,0.5s-0.4,0.9-0.4,1.6V76h-1v-4.1
			c0-0.5-0.1-0.9-0.3-1.1s-0.5-0.4-1-0.4c-0.6,0-1,0.2-1.3,0.5s-0.4,1-0.4,1.8V76h-1.1v-6.4h0.8l0.2,0.9h0.1
			c0.2-0.3,0.4-0.6,0.8-0.7s0.7-0.3,1.1-0.3c1,0,1.7,0.4,2,1.1h0.1c0.2-0.3,0.5-0.6,0.8-0.8s0.8-0.3,1.2-0.3c0.7,0,1.3,0.2,1.6,0.6
			s0.5,1,0.5,1.8V76H59.5z"/>
		<path id="XMLID_108_" class="st0" d="M69.6,76l-0.2-0.9h0c-0.3,0.4-0.6,0.7-1,0.8s-0.7,0.2-1.2,0.2c-0.6,0-1.1-0.2-1.5-0.5
			s-0.5-0.8-0.5-1.4c0-1.3,1-2,3.1-2.1l1.1,0v-0.4c0-0.5-0.1-0.8-0.3-1.1s-0.5-0.3-1-0.3c-0.3,0-0.7,0.1-1,0.2s-0.6,0.2-0.9,0.3
			L65.9,70c0.3-0.2,0.7-0.3,1.1-0.4s0.8-0.1,1.1-0.1c0.8,0,1.4,0.2,1.7,0.5s0.6,0.9,0.6,1.6V76H69.6z M67.4,75.2
			c0.6,0,1.1-0.2,1.4-0.5s0.5-0.8,0.5-1.4v-0.6l-0.9,0c-0.7,0-1.3,0.1-1.6,0.4s-0.5,0.5-0.5,1c0,0.3,0.1,0.6,0.3,0.8
			S67.1,75.2,67.4,75.2z M69.3,67.2c0,0.5-0.3,0.9-1,1l-0.1,0.6h-0.7l-0.1-1c0.3-0.1,0.5-0.1,0.7-0.2s0.3-0.2,0.3-0.4
			c0-0.3-0.3-0.5-0.8-0.5c-0.2,0-0.4,0-0.6,0v-0.6c0.1,0,0.4-0.1,0.7-0.1C68.8,66.1,69.3,66.5,69.3,67.2z"/>
		<path id="XMLID_106_" class="st0" d="M76.8,76v-4.1c0-0.5-0.1-0.9-0.3-1.2s-0.6-0.4-1.1-0.4c-0.7,0-1.1,0.2-1.4,0.5
			s-0.4,1-0.4,1.8V76h-1.1v-6.4h0.8l0.2,0.9h0.1c0.2-0.3,0.5-0.6,0.8-0.7s0.8-0.3,1.2-0.3c0.8,0,1.4,0.2,1.8,0.6s0.6,1,0.6,1.8V76
			H76.8z"/>
		<path id="XMLID_104_" class="st0" d="M84.2,76v-4.1c0-0.5-0.1-0.9-0.3-1.2s-0.6-0.4-1.1-0.4c-0.7,0-1.1,0.2-1.4,0.5
			s-0.5,1-0.5,1.8V76h-1.1v-9.1h1.1v2.7c0,0.4,0,0.7-0.1,0.9h0.1c0.2-0.3,0.5-0.6,0.8-0.7s0.7-0.3,1.2-0.3c0.8,0,1.4,0.2,1.8,0.6
			s0.6,1,0.6,1.8V76H84.2z"/>
		<path id="XMLID_102_" class="st0" d="M88.4,74.6l0.1,0.1c-0.2,0.8-0.6,1.8-1,2.8h-0.8c0.3-1,0.5-2,0.6-2.9H88.4z"/>
		<path id="XMLID_98_" class="st0" d="M9.7,90.4l-1-2.7H5.2l-1,2.7H3.1l3.3-8.6h1l3.3,8.6H9.7z M4.9,81c0.5-0.5,0.8-0.9,1-1.2
			s0.3-0.5,0.4-0.6h1.1c0.2,0.4,0.7,1,1.5,1.8v0.1H8.2c-0.4-0.2-0.8-0.6-1.3-1.1c-0.5,0.5-0.9,0.9-1.3,1.1H4.9V81z M8.3,86.8l-1-2.6
			L7,82.9c-0.1,0.5-0.2,0.9-0.4,1.3l-1,2.6H8.3z"/>
		<path id="XMLID_96_" class="st0" d="M20,90.4v-4.1c0-1-0.4-1.5-1.3-1.5c-0.6,0-1,0.2-1.3,0.5S17,86.1,17,86.8v3.6h-1v-4.1
			c0-0.5-0.1-0.9-0.3-1.1s-0.5-0.4-1-0.4c-0.6,0-1,0.2-1.3,0.5s-0.4,1-0.4,1.8v3.3h-1.1v-6.4h0.8l0.2,0.9h0.1
			c0.2-0.3,0.4-0.6,0.8-0.7s0.7-0.3,1.1-0.3c1,0,1.7,0.4,2,1.1h0.1c0.2-0.3,0.5-0.6,0.8-0.8s0.8-0.3,1.2-0.3c0.7,0,1.3,0.2,1.6,0.6
			s0.5,1,0.5,1.8v4.2H20z"/>
		<path id="XMLID_94_" class="st0" d="M30.5,90.4v-4.1c0-0.5-0.1-0.9-0.3-1.2s-0.6-0.4-1.1-0.4c-0.7,0-1.1,0.2-1.4,0.5
			s-0.4,1-0.4,1.8v3.3h-1.1v-6.4H27l0.2,0.9h0.1c0.2-0.3,0.5-0.6,0.8-0.7s0.8-0.3,1.2-0.3c0.8,0,1.4,0.2,1.8,0.6s0.6,1,0.6,1.8v4.2
			H30.5z"/>
		<path id="XMLID_92_" class="st0" d="M38,90.4v-4.1c0-0.5-0.1-0.9-0.3-1.2s-0.6-0.4-1.1-0.4c-0.7,0-1.1,0.2-1.4,0.5s-0.5,1-0.5,1.8
			v3.3h-1.1v-9.1h1.1v2.7c0,0.4,0,0.7-0.1,0.9h0.1c0.2-0.3,0.5-0.6,0.8-0.7s0.7-0.3,1.2-0.3c0.8,0,1.4,0.2,1.8,0.6s0.6,1,0.6,1.8
			v4.2H38z"/>
		<path id="XMLID_88_" class="st0" d="M45,90.4l-0.2-0.9h0c-0.3,0.4-0.6,0.7-1,0.8s-0.7,0.2-1.2,0.2c-0.6,0-1.1-0.2-1.5-0.5
			s-0.5-0.8-0.5-1.4c0-1.3,1-2,3.1-2.1l1.1,0v-0.4c0-0.5-0.1-0.8-0.3-1.1s-0.5-0.3-1-0.3c-0.3,0-0.7,0.1-1,0.2s-0.6,0.2-0.9,0.3
			l-0.3-0.8c0.3-0.2,0.7-0.3,1.1-0.4s0.8-0.1,1.1-0.1c0.8,0,1.4,0.2,1.7,0.5s0.6,0.9,0.6,1.6v4.4H45z M42.8,89.6
			c0.6,0,1.1-0.2,1.4-0.5s0.5-0.8,0.5-1.4v-0.6l-0.9,0c-0.7,0-1.3,0.1-1.6,0.4s-0.5,0.5-0.5,1c0,0.3,0.1,0.6,0.3,0.8
			S42.4,89.6,42.8,89.6z M42.3,91.8c0-0.2,0.1-0.4,0.2-0.5s0.3-0.2,0.4-0.2c0.2,0,0.3,0.1,0.4,0.2s0.2,0.3,0.2,0.5
			c0,0.2-0.1,0.4-0.2,0.5s-0.3,0.2-0.4,0.2c-0.2,0-0.3-0.1-0.5-0.2S42.3,92,42.3,91.8z"/>
		<path id="XMLID_86_" class="st0" d="M50.3,90.5c-0.9,0-1.6-0.3-2.2-0.9s-0.8-1.4-0.8-2.4c0-1.1,0.3-1.9,0.8-2.5s1.3-0.9,2.2-0.9
			c0.3,0,0.6,0,0.9,0.1s0.6,0.1,0.8,0.2L51.8,85c-0.5-0.2-1-0.3-1.4-0.3c-0.6,0-1.1,0.2-1.4,0.6s-0.5,1-0.5,1.8
			c0,0.8,0.2,1.4,0.5,1.8s0.8,0.6,1.4,0.6c0.6,0,1.1-0.1,1.7-0.4v0.9C51.5,90.4,51,90.5,50.3,90.5z"/>
		<path id="XMLID_82_" class="st0" d="M56.2,88.1c0-0.5,0.1-1,0.4-1.3s0.7-0.8,1.5-1.2c-0.3-0.3-0.5-0.6-0.6-0.8s-0.2-0.4-0.3-0.6
			S57,83.8,57,83.5c0-0.6,0.2-1,0.6-1.4s0.9-0.5,1.6-0.5c0.6,0,1.2,0.2,1.5,0.5s0.6,0.8,0.6,1.4c0,0.4-0.1,0.8-0.4,1.2
			s-0.7,0.7-1.3,1.1l2.3,2.2c0.4-0.4,0.6-1.1,0.8-1.9h1.1c-0.3,1.1-0.7,2-1.2,2.6l1.8,1.7h-1.4l-1-1c-0.4,0.4-0.9,0.7-1.4,0.9
			s-1,0.3-1.6,0.3c-0.8,0-1.5-0.2-2-0.6S56.2,88.9,56.2,88.1z M59,89.6c0.9,0,1.6-0.3,2.2-0.9l-2.5-2.4c-0.5,0.3-0.9,0.6-1.1,0.9
			s-0.3,0.6-0.3,0.9c0,0.4,0.2,0.8,0.5,1.1S58.5,89.6,59,89.6z M58.1,83.5c0,0.3,0.1,0.5,0.2,0.8s0.4,0.5,0.7,0.8
			c0.5-0.3,0.8-0.5,1-0.8s0.3-0.5,0.3-0.8c0-0.3-0.1-0.5-0.3-0.7s-0.5-0.3-0.8-0.3c-0.3,0-0.6,0.1-0.8,0.3S58.1,83.2,58.1,83.5z"/>
		<path id="XMLID_80_" class="st0" d="M71.4,90.4h-1.1v-7.6h-2.7v-0.9H74v0.9h-2.7V90.4z"/>
		<path id="XMLID_78_" class="st0" d="M77.9,83.8c0.3,0,0.5,0,0.8,0.1l-0.1,1c-0.2-0.1-0.5-0.1-0.7-0.1c-0.3,0-0.7,0.1-0.9,0.3
			s-0.5,0.4-0.7,0.8s-0.2,0.7-0.2,1.1v3.4h-1.1v-6.4h0.9l0.1,1.2h0c0.2-0.4,0.5-0.7,0.9-1S77.5,83.8,77.9,83.8z"/>
		<path id="XMLID_74_" class="st0" d="M85.3,87.1c0,1.1-0.3,1.9-0.8,2.5s-1.3,0.9-2.2,0.9c-0.6,0-1.1-0.1-1.5-0.4s-0.8-0.7-1-1.2
			s-0.4-1.1-0.4-1.8c0-1,0.3-1.9,0.8-2.4s1.3-0.9,2.2-0.9c0.9,0,1.6,0.3,2.2,0.9S85.3,86.1,85.3,87.1z M80.5,87.1
			c0,0.8,0.2,1.4,0.5,1.8s0.8,0.6,1.4,0.6c0.6,0,1.1-0.2,1.4-0.6s0.5-1,0.5-1.8s-0.2-1.4-0.5-1.8s-0.8-0.6-1.4-0.6
			C81.1,84.7,80.5,85.5,80.5,87.1z M83.1,83.1h-0.7c-0.3-0.2-0.6-0.5-1-0.9s-0.6-0.7-0.7-0.9v-0.1H82c0.1,0.3,0.3,0.6,0.5,0.9
			s0.4,0.6,0.6,0.9V83.1z"/>
		<path id="XMLID_72_" class="st0" d="M36.3,104.9c-0.9,0-1.6-0.3-2.2-0.9s-0.8-1.4-0.8-2.4c0-1.1,0.3-1.9,0.8-2.5s1.3-0.9,2.2-0.9
			c0.3,0,0.6,0,0.9,0.1s0.6,0.1,0.8,0.2l-0.3,0.9c-0.5-0.2-1-0.3-1.4-0.3c-0.6,0-1.1,0.2-1.4,0.6s-0.5,1-0.5,1.8
			c0,0.8,0.2,1.4,0.5,1.8s0.8,0.6,1.4,0.6c0.6,0,1.1-0.1,1.7-0.4v0.9C37.5,104.8,37,104.9,36.3,104.9z"/>
		<path id="XMLID_70_" class="st0" d="M43.9,104.8v-4.1c0-0.5-0.1-0.9-0.3-1.2s-0.6-0.4-1.1-0.4c-0.7,0-1.1,0.2-1.4,0.5
			s-0.5,1-0.5,1.8v3.3h-1.1v-9.1h1.1v2.7c0,0.4,0,0.7-0.1,0.9h0.1c0.2-0.3,0.5-0.6,0.8-0.7s0.7-0.3,1.2-0.3c0.8,0,1.4,0.2,1.8,0.6
			s0.6,1,0.6,1.8v4.2H43.9z"/>
		<path id="XMLID_67_" class="st0" d="M52.5,101.5c0,1.1-0.3,1.9-0.8,2.5s-1.3,0.9-2.2,0.9c-0.6,0-1.1-0.1-1.5-0.4s-0.8-0.7-1-1.2
			s-0.4-1.1-0.4-1.8c0-1,0.3-1.9,0.8-2.4s1.3-0.9,2.2-0.9c0.4,0,0.8,0.1,1.2,0.2s0.7,0.3,0.9,0.6c0.2-0.1,0.4-0.2,0.5-0.3
			s0.2-0.3,0.3-0.5s0.1-0.5,0.1-0.9h1.1l0.1,0.1c-0.1,0.6-0.3,1.1-0.6,1.5s-0.6,0.6-1,0.7C52.4,100.2,52.5,100.8,52.5,101.5z
			 M47.6,101.5c0,0.8,0.2,1.5,0.5,1.9s0.8,0.6,1.4,0.6c0.7,0,1.1-0.2,1.4-0.6s0.4-1,0.4-1.8c0-0.8-0.2-1.4-0.5-1.8s-0.8-0.6-1.4-0.6
			s-1.1,0.2-1.4,0.6S47.6,100.7,47.6,101.5z"/>
		<path id="XMLID_64_" class="st0" d="M54.2,96.6c0-0.2,0.1-0.4,0.2-0.5s0.3-0.2,0.4-0.2c0.2,0,0.3,0.1,0.4,0.2s0.2,0.3,0.2,0.5
			c0,0.2-0.1,0.4-0.2,0.5s-0.3,0.2-0.4,0.2c-0.2,0-0.3-0.1-0.4-0.2S54.2,96.8,54.2,96.6z M55.4,104.8h-1.1v-6.4h1.1V104.8z"/>
	</g>
</g>
<g id="XMLID_28_">
	<g id="XMLID_30_">
		<path id="XMLID_43_" class="st1" d="M14.3,118.8c0-2.8,0.6-4.9,1.8-6.3c1.2-1.4,3-2.1,5.4-2.1c0.8,0,1.9,0,1.9,0.1v2.4
			c-1-0.1-1.2-0.2-1.7-0.2c-1,0-1.9,0.2-2.5,0.5s-1.1,0.6-1.5,1.2c-0.3,0.6-0.5,1.5-0.6,2.5h0.1c0.6-1,1.7-1.5,3.1-1.5
			c1.3,0,2.3,0.5,3,1.3s1.1,1.9,1.1,3.4c0,1.5-0.4,2.7-1.3,3.6s-2.1,1.3-3.6,1.3c-1.1,0-2-0.2-2.8-0.7c-0.8-0.5-1.4-1.2-1.8-2.1
			C14.6,121.3,14.3,120.1,14.3,118.8z M19.5,122.7c0.6,0,1.1-0.2,1.5-0.6c0.3-0.4,0.5-1,0.5-1.9c0-0.7-0.2-1.2-0.5-1.6
			s-0.8-0.6-1.5-0.6c-0.6,0-1.1,0.2-1.6,0.6c-0.4,0.4-0.6,0.9-0.6,1.4c0,0.8,0.2,1.4,0.6,2C18.4,122.4,18.9,122.7,19.5,122.7z"/>
		<path id="XMLID_41_" class="st1" d="M26.2,123.5c0-0.5,0.1-1,0.4-1.2s0.7-0.4,1.3-0.4c0.5,0,1,0.1,1.3,0.4
			c0.3,0.3,0.4,0.7,0.4,1.2c0,0.5-0.1,0.9-0.4,1.2c-0.3,0.3-0.7,0.4-1.3,0.4c-0.5,0-1-0.1-1.3-0.4C26.4,124.4,26.2,124,26.2,123.5z"
			/>
		<path id="XMLID_39_" class="st1" d="M36.8,115.8c1.4,0,2.5,0.4,3.3,1.2c0.8,0.8,1.2,1.8,1.2,3.2c0,1.6-0.5,2.8-1.5,3.7
			c-1,0.9-2.6,1.3-4.4,1.3c-1.6,0-3-0.3-4-0.8v-2.6c1,0.3,1.3,0.5,2,0.7s1.4,0.3,2,0.3c1.8,0,2.8-0.8,2.8-2.3c0-1.4-0.9-2.2-2.8-2.2
			c-0.3,0-0.7,0-1.1,0.1c-0.4,0.1-0.8,0.1-1,0.2l-1.2-0.5l0.5-7.1h7.8v2h-5.2l-0.3,2.9l0.3,0C35.7,115.8,36.2,115.8,36.8,115.8z"/>
		<path id="XMLID_37_" class="st1" d="M52.4,113.8c0,0.9-0.2,1.7-0.8,2.3c-0.5,0.6-1.2,1.1-2.2,1.3v0.1c1,0.1,2,0.5,2.6,1
			c0.6,0.6,0.9,1.3,0.9,2.3c0,1.4-0.5,2.4-1.5,3.2s-2.2,1.1-4,1.1c-1.5,0-2.9-0.3-3.9-0.8v-2.6c0,0.3,0.9,0.5,1.6,0.7
			s1.2,0.3,1.9,0.3c1,0,1.7-0.2,2.2-0.5c0.5-0.3,0.7-0.9,0.7-1.6c0-0.7-0.3-1-0.8-1.3s-1.4-0.3-2.6-0.3h-0.8v-3h0.9
			c1.1,0,1.9,0.1,2.4-0.2c0.5-0.3,0.8-0.7,0.8-1.4c0-1.1-0.7-1.6-2-1.6c-0.5,0-0.9,0.1-1.4,0.3c-0.5,0.2-1,0.4-1.6,0.8l-1.4-2.1
			c1.3-0.9,2.9-1.4,4.7-1.4c1.5,0,2.6,0.3,3.5,0.9C52,111.9,52.4,112.7,52.4,113.8z"/>
		<path id="XMLID_31_" class="st1" d="M61.1,114.9c0,1.5-0.3,2.6-0.9,3.4c-0.6,0.8-1.4,1.1-2.5,1.1c-1.1,0-1.9-0.4-2.5-1.2
			s-0.9-1.9-0.9-3.3c0-3,1.1-4.5,3.4-4.5c1.1,0,1.9,0.4,2.5,1.2C60.8,112.3,61.1,113.4,61.1,114.9z M56.7,114.9
			c0,0.8,0.1,1.4,0.2,1.9s0.4,0.6,0.7,0.6c0.6,0,0.9-0.8,0.9-2.5c0-1.6-0.3-2.4-0.9-2.4c-0.3,0-0.6,0.2-0.7,0.6
			S56.7,114.1,56.7,114.9z M67.8,111l-7.9,14h-2.3l7.9-14H67.8z M71.1,120.6c0,1.5-0.3,2.6-0.9,3.4c-0.6,0.8-1.4,1.1-2.5,1.1
			c-1.1,0-1.9-0.4-2.5-1.2s-0.9-1.9-0.9-3.3c0-3,1.1-4.5,3.4-4.5c1.1,0,1.9,0.4,2.5,1.2C70.8,118,71.1,119.1,71.1,120.6z
			 M66.7,120.6c0,0.8,0.1,1.4,0.2,1.9s0.4,0.6,0.7,0.6c0.6,0,0.9-0.8,0.9-2.5c0-1.6-0.3-2.4-0.9-2.4c-0.3,0-0.6,0.2-0.7,0.6
			S66.7,119.8,66.7,120.6z"/>
	</g>
</g>
<g id="XMLID_15_">
	<rect id="XMLID_27_" x="12.4" y="1" class="st2" width="54" height="54"/>
	<polygon id="XMLID_26_" class="st2" points="32.4,20.2 45.6,27.8 32.4,35.3 	"/>
	<rect id="XMLID_25_" x="12.4" y="1" class="st2" width="9" height="54"/>
	<rect id="XMLID_24_" x="57.4" y="1" class="st2" width="9" height="54"/>
	<rect id="XMLID_23_" x="12.4" y="10" class="st2" width="9" height="9"/>
	<rect id="XMLID_22_" x="12.4" y="19" class="st2" width="9" height="9"/>
	<rect id="XMLID_21_" x="12.4" y="28" class="st2" width="9" height="9"/>
	<rect id="XMLID_20_" x="12.4" y="37" class="st2" width="9" height="9"/>
	<rect id="XMLID_19_" x="57.4" y="10" class="st2" width="9" height="9"/>
	<rect id="XMLID_18_" x="57.4" y="19" class="st2" width="9" height="9"/>
	<rect id="XMLID_17_" x="57.4" y="28" class="st2" width="9" height="9"/>
	<rect id="XMLID_16_" x="57.4" y="37" class="st2" width="9" height="9"/>
</g>
</svg>