<!-- Generator: Adobe Illustrator 19.0.0, SVG Export Plug-In  -->
<svg version="1.1"
	 xmlns="http://www.w3.org/2000/svg" xmlns:xlink="http://www.w3.org/1999/xlink" xmlns:a="http://ns.adobe.com/AdobeSVGViewerExtensions/3.0/"
	 x="0px" y="0px" width="67.7px" height="122.8px" viewBox="0 0 67.7 122.8" style="enable-background:new 0 0 67.7 122.8;"
	 xml:space="preserve">
<style type="text/css">
	.st0{fill:none;stroke:#086A87;stroke-width:2;stroke-linecap:round;stroke-linejoin:round;stroke-miterlimit:10;}
	.st1{fill:#086A87;}
	.st2{fill:#FF6633;}
</style>
<defs>
</defs>
<path class="st0" d="M46.9,57.5l-9.6-34.3c0,0,6.1-3.5,3.7-11.4h-2.7L36.2,1h-3.5v5.7c0,2.3-1.9,4.2-4.2,4.2S24.3,9,24.3,6.7V1h-3.5
	l-2,10.8h-2.3c0,0-0.9,9.4,3.7,11.4l-9.9,34.3H46.9z"/>
<g>
	<g>
		<path class="st1" d="M10.1,86.5H8.4v-8.6h4.9v1.5h-3.1v2.2H13v1.5h-2.9V86.5z"/>
		<path class="st1" d="M19,86.5l-0.3-0.9h0c-0.3,0.4-0.6,0.6-0.9,0.8s-0.7,0.2-1.2,0.2c-0.6,0-1.1-0.2-1.5-0.5s-0.5-0.9-0.5-1.5
			c0-0.7,0.2-1.2,0.7-1.5s1.2-0.5,2.2-0.5l1.1,0v-0.3c0-0.7-0.3-1-1-1c-0.5,0-1.1,0.2-1.8,0.5L15,80.4c0.8-0.4,1.6-0.6,2.5-0.6
			c0.9,0,1.6,0.2,2,0.6s0.7,1,0.7,1.7v4.4H19z M18.4,83.5l-0.7,0c-0.5,0-0.9,0.1-1.2,0.3s-0.4,0.4-0.4,0.8c0,0.5,0.3,0.8,0.9,0.8
			c0.4,0,0.7-0.1,1-0.4s0.4-0.6,0.4-0.9V83.5z"/>
		<path class="st1" d="M26.6,84.5c0,0.7-0.2,1.2-0.7,1.5s-1.2,0.5-2.1,0.5c-0.5,0-0.9,0-1.2-0.1s-0.7-0.2-0.9-0.3v-1.5
			c0.3,0.2,0.7,0.3,1.1,0.4s0.8,0.2,1.1,0.2c0.6,0,1-0.2,1-0.6c0-0.1,0-0.3-0.1-0.3s-0.2-0.2-0.4-0.3s-0.5-0.2-0.8-0.4
			c-0.5-0.2-0.9-0.4-1.1-0.6s-0.4-0.4-0.5-0.6s-0.2-0.5-0.2-0.9c0-0.6,0.2-1,0.7-1.4s1.1-0.5,1.9-0.5c0.8,0,1.6,0.2,2.3,0.5L26,81.6
			c-0.3-0.1-0.6-0.3-0.9-0.3s-0.6-0.1-0.9-0.1c-0.5,0-0.8,0.1-0.8,0.4c0,0.2,0.1,0.3,0.3,0.4s0.5,0.3,1.1,0.5
			c0.5,0.2,0.9,0.4,1.1,0.6s0.4,0.4,0.5,0.6S26.6,84.2,26.6,84.5z"/>
		<path class="st1" d="M34.1,86.5h-1.8v-3.8c0-0.9-0.4-1.4-1.1-1.4c-0.5,0-0.9,0.2-1.1,0.5s-0.3,0.9-0.3,1.7v3.1H28v-9.1h1.8v1.9
			c0,0.1,0,0.5,0,1l0,0.5h0.1c0.4-0.6,1-1,1.9-1c0.8,0,1.4,0.2,1.8,0.6s0.6,1,0.6,1.8V86.5z"/>
		<path class="st1" d="M35.8,78.2c0-0.6,0.3-0.9,1-0.9s1,0.3,1,0.9c0,0.3-0.1,0.5-0.2,0.6s-0.4,0.2-0.7,0.2
			C36.1,79.1,35.8,78.8,35.8,78.2z M37.7,86.5h-1.8v-6.6h1.8V86.5z"/>
		<path class="st1" d="M45.5,83.2c0,1.1-0.3,1.9-0.8,2.5s-1.3,0.9-2.3,0.9c-0.6,0-1.2-0.1-1.7-0.4s-0.8-0.7-1.1-1.2
			s-0.4-1.1-0.4-1.8c0-1.1,0.3-1.9,0.8-2.5s1.3-0.9,2.4-0.9c0.6,0,1.2,0.1,1.7,0.4s0.8,0.7,1.1,1.2S45.5,82.5,45.5,83.2z M41,83.2
			c0,0.6,0.1,1.1,0.3,1.5s0.6,0.5,1,0.5c0.5,0,0.8-0.2,1-0.5s0.3-0.8,0.3-1.5c0-0.6-0.1-1.1-0.3-1.5s-0.6-0.5-1-0.5
			c-0.5,0-0.8,0.2-1,0.5S41,82.6,41,83.2z"/>
		<path class="st1" d="M53,86.5h-1.8v-3.8c0-0.5-0.1-0.8-0.3-1.1s-0.4-0.4-0.8-0.4c-0.5,0-0.9,0.2-1.1,0.5s-0.3,0.9-0.3,1.7v3.1H47
			v-6.6h1.4l0.2,0.8h0.1c0.2-0.3,0.5-0.6,0.8-0.7s0.7-0.2,1.2-0.2c0.8,0,1.3,0.2,1.7,0.6s0.6,1,0.6,1.8V86.5z"/>
	</g>
</g>
<g>
	<g>
		<path class="st2" d="M7.1,122.6h-3v-8.3l0-1.4l0-1.5c-0.5,0.5-0.8,0.8-1,1l-1.6,1.3L0,112l4.6-3.7h2.5V122.6z"/>
		<path class="st2" d="M16.3,113.5c1.4,0,2.5,0.4,3.3,1.2c0.8,0.8,1.2,1.8,1.2,3.2c0,1.6-0.5,2.8-1.5,3.7c-1,0.9-2.4,1.3-4.2,1.3
			c-1.6,0-2.9-0.3-3.8-0.8v-2.6c0.5,0.3,1.1,0.5,1.8,0.7s1.3,0.3,1.9,0.3c1.8,0,2.8-0.8,2.8-2.3c0-1.4-1-2.2-2.9-2.2
			c-0.3,0-0.7,0-1.1,0.1c-0.4,0.1-0.8,0.1-1,0.2l-1.2-0.6l0.5-7.3h7.7v2.6h-5.1l-0.3,2.8l0.3-0.1C15.2,113.5,15.7,113.5,16.3,113.5z
			"/>
		<path class="st2" d="M22.8,121.2c0-0.5,0.1-1,0.4-1.2s0.7-0.4,1.3-0.4c0.5,0,1,0.1,1.3,0.4c0.3,0.3,0.4,0.7,0.4,1.2
			c0,0.5-0.1,0.9-0.4,1.2c-0.3,0.3-0.7,0.4-1.3,0.4c-0.5,0-1-0.1-1.3-0.4C23,122.1,22.8,121.7,22.8,121.2z"/>
		<path class="st2" d="M38.1,115.4c0,2.5-0.4,4.3-1.2,5.5c-0.8,1.2-2.1,1.8-3.8,1.8c-1.6,0-2.9-0.6-3.7-1.9
			c-0.8-1.2-1.3-3.1-1.3-5.5c0-2.5,0.4-4.4,1.2-5.6c0.8-1.2,2.1-1.8,3.8-1.8c1.6,0,2.9,0.6,3.7,1.9C37.7,111.2,38.1,113,38.1,115.4z
			 M31.1,115.4c0,1.8,0.2,3,0.5,3.8s0.8,1.1,1.5,1.1c0.7,0,1.2-0.4,1.5-1.2s0.5-2,0.5-3.8c0-1.8-0.2-3-0.5-3.8
			c-0.3-0.8-0.8-1.1-1.5-1.1c-0.7,0-1.2,0.4-1.5,1.1C31.3,112.4,31.1,113.7,31.1,115.4z"/>
		<path class="st2" d="M41,122.6l5.4-11.7h-7v-2.5h10.2v1.9l-5.4,12.4H41z"/>
		<path class="st2" d="M57.7,112.6c0,1.5-0.3,2.6-0.9,3.4c-0.6,0.8-1.4,1.1-2.5,1.1c-1.1,0-1.9-0.4-2.5-1.2s-0.9-1.9-0.9-3.3
			c0-3,1.1-4.5,3.4-4.5c1.1,0,1.9,0.4,2.5,1.2C57.4,110,57.7,111.1,57.7,112.6z M53.3,112.6c0,0.8,0.1,1.4,0.2,1.9s0.4,0.6,0.7,0.6
			c0.6,0,0.9-0.8,0.9-2.5c0-1.6-0.3-2.4-0.9-2.4c-0.3,0-0.6,0.2-0.7,0.6S53.3,111.8,53.3,112.6z M64.4,108.3l-7.9,14.3h-2.3
			l7.9-14.3H64.4z M67.7,118.3c0,1.5-0.3,2.6-0.9,3.4c-0.6,0.8-1.4,1.1-2.5,1.1c-1.1,0-1.9-0.4-2.5-1.2s-0.9-1.9-0.9-3.3
			c0-3,1.1-4.5,3.4-4.5c1.1,0,1.9,0.4,2.5,1.2C67.4,115.7,67.7,116.8,67.7,118.3z M63.3,118.3c0,0.8,0.1,1.4,0.2,1.9
			s0.4,0.6,0.7,0.6c0.6,0,0.9-0.8,0.9-2.5c0-1.6-0.3-2.4-0.9-2.4c-0.3,0-0.6,0.2-0.7,0.6S63.3,117.5,63.3,118.3z"/>
	</g>
</g>
</svg>