<!-- Generator: Adobe Illustrator 19.0.0, SVG Export Plug-In  -->
<svg version="1.1"
	 xmlns="http://www.w3.org/2000/svg" xmlns:xlink="http://www.w3.org/1999/xlink" xmlns:a="http://ns.adobe.com/AdobeSVGViewerExtensions/3.0/"
	 x="0px" y="0px" width="281px" height="67.8px" viewBox="0 0 281 67.8"
	 style="overflow:scroll;enable-background:new 0 0 281 67.8;" xml:space="preserve">
<style type="text/css">
	.st0{fill:none;stroke:#FFFFFF;stroke-width:2;stroke-linecap:round;stroke-linejoin:round;stroke-miterlimit:10;}
	.st1{fill:none;stroke:#FF6633;stroke-width:2;stroke-miterlimit:10;}
	.st2{fill:none;stroke:#FFFFFF;stroke-width:2.2793;stroke-linecap:round;stroke-linejoin:round;stroke-miterlimit:10;}
	.st3{fill:#FF6633;}
	.st4{fill:#FFFFFF;}
	.st5{fill:#F5FFF3;stroke:#FFFFFF;stroke-width:0.4;stroke-miterlimit:10;}
</style>
<defs>
</defs>
<g id="XMLID_154_">
	<rect id="XMLID_159_" x="238" y="27.8" class="st0" width="39" height="39"/>
	<rect id="XMLID_158_" x="233" y="19.8" class="st0" width="47" height="8"/>
	<rect id="XMLID_157_" x="253" y="19.8" class="st1" width="8" height="47"/>
	<path id="XMLID_156_" class="st2" d="M255.7,17c0,0-12.9,0.5-16.4-1.9c-3.5-2.4-4.4-7.2-2-10.7c2.4-3.5,7.2-4.4,10.7-2
		C251.5,4.9,255.7,17,255.7,17z"/>
	<path id="XMLID_155_" class="st2" d="M256.6,17c0,0,12.9,0.5,16.4-1.9c3.5-2.4,4.4-7.2,2-10.7c-2.4-3.5-7.2-4.4-10.7-2
		C260.8,4.9,256.6,17,256.6,17z"/>
</g>
<circle id="XMLID_153_" class="st3" cx="8.4" cy="16.5" r="8.4"/>
<g id="XMLID_150_">
	<path id="XMLID_151_" class="st4" d="M11,19.8H5V19l2-2.2c0.6-0.7,1-1.1,1.2-1.4s0.3-0.5,0.4-0.7s0.1-0.4,0.1-0.7
		c0-0.3-0.1-0.6-0.3-0.8S7.9,13,7.6,13c-0.3,0-0.7,0.1-1,0.2s-0.6,0.4-1,0.7l-1-1.2c0.4-0.4,0.8-0.6,1-0.8s0.6-0.3,0.9-0.3
		s0.7-0.1,1.1-0.1c0.5,0,1,0.1,1.4,0.3s0.7,0.5,1,0.8s0.3,0.8,0.3,1.2c0,0.4-0.1,0.8-0.2,1.1S9.9,15.7,9.6,16s-0.8,0.9-1.5,1.6
		l-1.1,1v0.2h4V19.8z"/>
</g>
<g id="XMLID_15_">
	<g id="XMLID_17_">
		<path id="XMLID_82_" class="st5" d="M31.7,21.6h-1.4v-9.4h1.4V21.6z"/>
		<path id="XMLID_80_" class="st5" d="M41.3,12.1V18v0.1c0,0.1,0,0.3,0,0.5s-0.1,0.5-0.1,0.7c-0.1,0.3-0.2,0.5-0.3,0.8
			s-0.3,0.5-0.6,0.8c-0.2,0.2-0.6,0.4-0.9,0.6c-0.4,0.1-0.8,0.2-1.4,0.2h-0.3c-0.4,0-0.8-0.1-1.1-0.2c-0.1,0-0.3-0.1-0.4-0.2
			c-0.1-0.1-0.3-0.2-0.4-0.3s-0.2-0.2-0.3-0.3s-0.1-0.3-0.1-0.5v1.3H34v-9.4h1.4V18c0,0,0,0.1,0,0.2s0,0.3,0.1,0.5s0.1,0.4,0.2,0.6
			c0.1,0.2,0.2,0.4,0.4,0.5c0.2,0.2,0.4,0.3,0.6,0.4c0.3,0.1,0.6,0.2,0.9,0.2c0,0,0.1,0,0.2,0c0.1,0,0.3,0,0.4-0.1
			c0.2,0,0.3-0.1,0.5-0.2c0.2-0.1,0.4-0.2,0.5-0.4c0.2-0.2,0.3-0.4,0.4-0.7c0.1-0.3,0.2-0.6,0.2-1v-5.9H41.3z"/>
		<path id="XMLID_78_" class="st5" d="M41.5,8.7V11h-5.8V9.7h2.4v-1h1.3v1h0.8v-1H41.5z"/>
		<path id="XMLID_76_" class="st5" d="M41.6,4.7v2.7h-1.3V4.7H41.6z"/>
		<path id="XMLID_74_" class="st5" d="M52,18.3c-0.1,0.6-0.2,1.2-0.5,1.7c-0.1,0.2-0.3,0.4-0.4,0.6s-0.4,0.4-0.7,0.5
			s-0.6,0.3-0.9,0.4s-0.7,0.1-1.2,0.1c-0.5,0-0.8,0-1.2-0.1s-0.6-0.2-0.9-0.4s-0.5-0.3-0.7-0.5s-0.3-0.4-0.4-0.6
			c-0.3-0.5-0.4-1.1-0.5-1.7v-1.9h2.6v1.3H46v0.6c0,0.3,0,0.5,0.1,0.7s0.2,0.4,0.3,0.5s0.2,0.3,0.4,0.4s0.3,0.2,0.4,0.2
			c0.3,0.2,0.7,0.2,1.1,0.3c0.4,0,0.8-0.1,1.1-0.3c0.1-0.1,0.3-0.1,0.4-0.2s0.3-0.2,0.4-0.4s0.2-0.3,0.3-0.5s0.1-0.4,0.1-0.7v-2.9
			c0-0.2,0-0.5-0.1-0.7s-0.2-0.4-0.3-0.5S50,14.1,49.8,14s-0.3-0.2-0.4-0.2c-0.3-0.1-0.7-0.2-1.1-0.2h-0.1c-0.1,0-0.2,0-0.4,0
			s-0.4,0.1-0.6,0.2s-0.4,0.2-0.6,0.4s-0.3,0.4-0.4,0.7h-1.4c0-0.2,0.1-0.3,0.2-0.5s0.2-0.4,0.3-0.6s0.3-0.4,0.5-0.6
			s0.4-0.4,0.7-0.5s0.6-0.3,0.9-0.4s0.7-0.1,1.2-0.1c0.4,0,0.8,0,1.2,0.1s0.6,0.2,0.9,0.4s0.5,0.3,0.7,0.5s0.3,0.4,0.4,0.6
			c0.3,0.5,0.4,1.1,0.5,1.7V18.3z"/>
		<path id="XMLID_72_" class="st5" d="M61.2,12.1V18v0.1c0,0.1,0,0.3,0,0.5s-0.1,0.5-0.1,0.7s-0.2,0.5-0.3,0.8s-0.3,0.5-0.6,0.8
			s-0.6,0.4-0.9,0.6s-0.8,0.2-1.4,0.2h-0.3c-0.4,0-0.8-0.1-1.1-0.2c-0.1,0-0.3-0.1-0.4-0.2s-0.3-0.2-0.4-0.3s-0.2-0.2-0.3-0.3
			s-0.1-0.3-0.1-0.5v1.3h-1.4v-9.4h1.4V18c0,0,0,0.1,0,0.2s0,0.3,0.1,0.5s0.1,0.4,0.2,0.6s0.2,0.4,0.4,0.5s0.4,0.3,0.6,0.4
			s0.6,0.2,0.9,0.2c0,0,0.1,0,0.2,0s0.3,0,0.4-0.1s0.3-0.1,0.5-0.2s0.4-0.2,0.5-0.4s0.3-0.4,0.4-0.7s0.2-0.6,0.2-1v-5.9H61.2z"/>
		<path id="XMLID_70_" class="st5" d="M60.6,8.9V11h-5.3V9.7h3.9V8.9H60.6z"/>
		<path id="XMLID_68_" class="st5" d="M71.6,12c0,0,0,0.1-0.1,0.1s-0.1,0.1-0.2,0.2s-0.2,0.2-0.3,0.3s-0.2,0.2-0.3,0.3
			s-0.2,0.2-0.3,0.2s-0.2,0.1-0.2,0.1c0.2,0.2,0.3,0.5,0.4,0.7s0.2,0.5,0.2,0.7s0.1,0.4,0.1,0.6s0,0.3,0,0.4v0.1v5.7h-1.4v-2.8
			c0-0.3-0.1-0.5-0.2-0.7s-0.3-0.3-0.5-0.5s-0.4-0.2-0.6-0.3s-0.4-0.1-0.6-0.1s-0.4-0.1-0.7-0.1c0,0-0.1,0-0.2,0s-0.2,0-0.4,0.1
			s-0.3,0.1-0.5,0.1s-0.3,0.2-0.5,0.3s-0.3,0.3-0.4,0.4s-0.2,0.4-0.3,0.7c0,0,0,0.1,0,0.1s0,0.1,0,0.1c0,0.2,0,0.4,0.1,0.5
			s0.2,0.3,0.4,0.4s0.3,0.2,0.5,0.2s0.4,0.1,0.6,0.1s0.4,0,0.5,0.1s0.3,0,0.4,0h0.1v1.3h-1.6c-0.3,0-0.6-0.1-0.9-0.2
			s-0.5-0.3-0.8-0.6s-0.4-0.5-0.5-0.8s-0.2-0.7-0.2-1c0-0.3,0.1-0.7,0.2-1.1s0.4-0.7,0.8-1c0.2-0.2,0.4-0.4,0.7-0.5s0.5-0.2,0.7-0.3
			s0.5-0.1,0.7-0.2s0.4-0.1,0.7-0.1c0.3,0,0.6,0,0.9,0.1s0.5,0.1,0.7,0.2c0.2,0.1,0.5,0.2,0.7,0.3v-0.5c0-0.3,0-0.6-0.1-0.8
			s-0.2-0.4-0.3-0.6S69.1,14.2,69,14s-0.3-0.2-0.4-0.3c-0.3-0.2-0.7-0.3-1.1-0.3c-0.4,0-0.7,0.1-1,0.2S66,14,65.8,14.2
			s-0.3,0.4-0.4,0.6s-0.2,0.4-0.2,0.6h-1.5c0-0.5,0.1-1,0.3-1.3s0.4-0.7,0.6-0.9s0.5-0.4,0.8-0.6s0.5-0.2,0.8-0.3s0.5-0.1,0.7-0.1
			s0.3,0,0.4,0h0.1c0.4,0,0.9,0.1,1.3,0.2c0.2,0,0.5-0.1,0.7-0.2c0.2-0.1,0.4-0.2,0.6-0.4s0.4-0.4,0.5-0.7l0.5,0.5
			c0.1,0.1,0.1,0.1,0.2,0.2s0.1,0.1,0.2,0.2S71.5,11.9,71.6,12C71.5,12,71.6,12,71.6,12z"/>
		<path id="XMLID_66_" class="st5" d="M71,9.7V11h-5.3V9.7H71z"/>
		<path id="XMLID_64_" class="st5" d="M75.3,12.1V18c0,0.4,0.1,0.7,0.2,1c0.1,0.3,0.2,0.5,0.4,0.7c0.2,0.2,0.3,0.3,0.5,0.4
			c0.2,0.1,0.4,0.2,0.5,0.2c0.2,0,0.3,0.1,0.4,0.1c0.1,0,0.2,0,0.2,0c0.4,0,0.7-0.1,0.9-0.2c0.3-0.1,0.5-0.3,0.6-0.4
			c0.2-0.2,0.3-0.4,0.4-0.5c0.1-0.2,0.2-0.4,0.2-0.6s0.1-0.3,0.1-0.5s0-0.2,0-0.2v-5.9h1.4v9.4h-1.4v-1.3c0,0.2-0.1,0.3-0.1,0.5
			s-0.2,0.2-0.3,0.3s-0.2,0.2-0.4,0.3s-0.3,0.1-0.4,0.2c-0.3,0.1-0.7,0.2-1.1,0.2h-0.3c-0.5,0-1-0.1-1.4-0.2
			c-0.4-0.1-0.7-0.3-0.9-0.6c-0.2-0.2-0.4-0.5-0.6-0.8s-0.2-0.6-0.3-0.8c-0.1-0.3-0.1-0.5-0.1-0.7s0-0.4,0-0.5V18v-5.9H75.3z"/>
		<path id="XMLID_62_" class="st5" d="M88.8,12.3c0.4,0.2,0.8,0.4,1,0.6s0.5,0.5,0.6,0.8c0.2,0.3,0.3,0.6,0.4,0.8s0.1,0.5,0.1,0.7
			s0,0.4,0,0.5v0.1v5.7h-1.4v-5.7c0-0.3,0-0.6-0.1-0.8c-0.1-0.2-0.2-0.4-0.3-0.6c-0.1-0.2-0.2-0.3-0.4-0.4c-0.1-0.1-0.3-0.2-0.4-0.3
			c-0.3-0.2-0.7-0.3-1.1-0.3c-0.3,0-0.5,0-0.7,0.1c-0.2,0.1-0.4,0.2-0.5,0.3s-0.3,0.2-0.4,0.4c-0.1,0.1-0.2,0.3-0.3,0.4
			C85.1,15,85,15.4,85,15.8v1c0.5-0.3,1.1-0.5,1.8-0.5c0.3,0,0.6,0,0.9,0.1v1.5c-0.1-0.1-0.2-0.1-0.4-0.1c-0.1,0-0.3,0-0.5,0
			c-0.4,0-0.8,0.1-1.1,0.3c-0.2,0.1-0.3,0.2-0.4,0.4c-0.1,0.2-0.2,0.3-0.3,0.5v2.6h-1.4v-5.8c0-0.6,0.1-1.1,0.2-1.5
			c0.2-0.4,0.3-0.7,0.6-1s0.5-0.5,0.8-0.6c0.3-0.2,0.6-0.3,0.8-0.3c0.3-0.1,0.5-0.1,0.7-0.1c0.2,0,0.4,0,0.5,0h0.1
			C87.9,12.1,88.4,12.2,88.8,12.3z"/>
		<path id="XMLID_60_" class="st5" d="M91.5,9.7V11h-3.9V9.3h-0.7V7.9h1.4c0.1,0,0.2,0,0.3,0.1c0.1,0,0.2,0.1,0.2,0.2
			c0.1,0.1,0.1,0.2,0.1,0.3v1.1H91.5z"/>
		<path id="XMLID_58_" class="st5" d="M95.2,12.1c0,0,0.1,0,0.3,0c0.1,0,0.3,0,0.5,0.1c0.2,0,0.4,0.1,0.6,0.2
			c0.2,0.1,0.4,0.3,0.6,0.5c0.2,0.2,0.3,0.5,0.4,0.8s0.2,0.7,0.2,1.2v6.7h-1.4v-6.7c0-0.3-0.1-0.5-0.1-0.7c0-0.1-0.1-0.2-0.1-0.3
			s-0.1-0.2-0.2-0.2c-0.1-0.1-0.2-0.1-0.3-0.2c-0.1,0-0.2-0.1-0.4-0.1c-0.2,0-0.4,0-0.6,0.1c-0.2,0.1-0.3,0.1-0.4,0.2
			S94,13.9,93.9,14s-0.1,0.1-0.1,0.1l-1-1c0.2-0.2,0.3-0.4,0.6-0.5c0.2-0.1,0.4-0.2,0.7-0.4S94.8,12.1,95.2,12.1z"/>
		<path id="XMLID_56_" class="st5" d="M100.7,21.6V12c0-0.2,0-0.4,0.1-0.6c0-0.2,0.1-0.4,0.2-0.5c0.1-0.2,0.2-0.3,0.3-0.5
			c0.1-0.2,0.3-0.3,0.4-0.4c0.1-0.1,0.3-0.3,0.4-0.4s0.2-0.2,0.2-0.3c0-0.1,0.1-0.2,0.1-0.3c0-0.1,0-0.2,0-0.3c0-0.2,0-0.4-0.1-0.6
			c-0.1-0.2-0.2-0.3-0.3-0.4c-0.1-0.1-0.3-0.2-0.5-0.3c-0.2-0.1-0.4-0.1-0.6-0.1c-0.4,0-0.7,0-0.9,0.1s-0.4,0.1-0.4,0.2
			c-0.1,0.1-0.2,0.2-0.2,0.3h-1.2c0,0,0,0,0,0V7.7c0-0.1,0-0.2,0-0.3s0.1-0.2,0.1-0.4c0.1-0.1,0.1-0.3,0.3-0.4
			c0.1-0.1,0.3-0.3,0.5-0.4s0.4-0.2,0.7-0.3c0.3-0.1,0.7-0.1,1.1-0.1c0.4,0,0.8,0,1.1,0.1s0.6,0.2,0.8,0.4c0.2,0.2,0.4,0.3,0.5,0.5
			c0.1,0.2,0.2,0.4,0.3,0.6c0.1,0.2,0.1,0.4,0.1,0.5c0,0.2,0,0.3,0,0.4v0.2c0,0.1,0,0.3,0,0.4c0,0.1-0.1,0.3-0.1,0.4
			c-0.1,0.2-0.2,0.3-0.3,0.5c-0.1,0.2-0.3,0.4-0.4,0.6c-0.2,0.2-0.3,0.4-0.4,0.6s-0.2,0.3-0.2,0.4c-0.1,0.1-0.1,0.3-0.1,0.4v9.6
			H100.7z"/>
		<path id="XMLID_54_" class="st5" d="M105,12.1h1.4v2.4h3.1c0.2,0,0.3-0.1,0.5-0.2c0.1-0.1,0.2-0.2,0.4-0.4s0.2-0.4,0.3-0.6v-1.2
			h1.4v1.4c0,0.1,0,0.2-0.1,0.3s-0.1,0.3-0.2,0.5s-0.2,0.3-0.3,0.5c-0.1,0.2-0.2,0.3-0.4,0.4c0.2,0.2,0.3,0.4,0.5,0.6
			c0.1,0.2,0.2,0.4,0.3,0.7c0.1,0.3,0.2,0.6,0.2,1v4.1h-1.4v-4.1c0-0.2-0.1-0.3-0.1-0.4c0-0.1-0.1-0.3-0.1-0.4
			c-0.1-0.1-0.1-0.3-0.2-0.4c-0.1-0.1-0.2-0.2-0.3-0.3c-0.1-0.1-0.3-0.1-0.5-0.1h-3.1v5.7H105V12.1z"/>
		<path id="XMLID_52_" class="st5" d="M121.8,12.1V18v0.1c0,0.1,0,0.3,0,0.5s-0.1,0.5-0.1,0.7s-0.2,0.5-0.3,0.8s-0.3,0.5-0.6,0.8
			s-0.6,0.4-0.9,0.6s-0.8,0.2-1.4,0.2h-0.3c-0.4,0-0.8-0.1-1.1-0.2c-0.1,0-0.3-0.1-0.4-0.2s-0.3-0.2-0.4-0.3s-0.2-0.2-0.3-0.3
			s-0.1-0.3-0.1-0.5v1.3h-1.4v-9.4h1.4V18c0,0,0,0.1,0,0.2s0,0.3,0.1,0.5s0.1,0.4,0.2,0.6s0.2,0.4,0.4,0.5s0.4,0.3,0.6,0.4
			s0.6,0.2,0.9,0.2c0,0,0.1,0,0.2,0s0.3,0,0.4-0.1s0.3-0.1,0.5-0.2s0.4-0.2,0.5-0.4s0.3-0.4,0.4-0.7s0.2-0.6,0.2-1v-5.9H121.8z"/>
		<path id="XMLID_50_" class="st5" d="M121.3,8.3V11H120V8.3H121.3z"/>
		<path id="XMLID_48_" class="st5" d="M136.2,23.9h-1.4v-8.4c0-0.1,0-0.2,0-0.4s0-0.3-0.1-0.5s-0.1-0.3-0.2-0.5s-0.2-0.3-0.3-0.4
			l-1.4,1.4l-1.3-1.4c-0.1,0.1-0.2,0.2-0.3,0.4s-0.1,0.4-0.2,0.5s-0.1,0.4-0.1,0.5s0,0.3,0,0.3v0.1h-1.4c0-0.6,0.1-1,0.2-1.4
			s0.2-0.7,0.4-1s0.3-0.5,0.5-0.6s0.4-0.2,0.6-0.3s0.3-0.1,0.4-0.1s0.2,0,0.2,0l0.9,0.9l0.1,0.1c0.2-0.2,0.4-0.4,0.6-0.6
			s0.2-0.2,0.3-0.3s0.1-0.1,0.1-0.1c0,0,0.1,0,0.2,0s0.3,0,0.4,0.1s0.4,0.2,0.5,0.3s0.4,0.3,0.5,0.6s0.3,0.6,0.4,0.9
			s0.2,0.8,0.2,1.4v0.2V23.9z"/>
		<path id="XMLID_46_" class="st5" d="M30.3,32.1h1.4v2.4h3.1c0.2,0,0.3-0.1,0.5-0.2c0.1-0.1,0.2-0.2,0.4-0.4s0.2-0.4,0.3-0.6v-1.2
			h1.4v1.4c0,0.1,0,0.2-0.1,0.3s-0.1,0.3-0.2,0.5s-0.2,0.3-0.3,0.5c-0.1,0.2-0.2,0.3-0.4,0.4c0.2,0.2,0.3,0.4,0.5,0.6
			c0.1,0.2,0.2,0.4,0.3,0.7c0.1,0.3,0.2,0.6,0.2,1v4.1h-1.4v-4.1c0-0.2-0.1-0.3-0.1-0.4c0-0.1-0.1-0.3-0.1-0.4
			c-0.1-0.1-0.1-0.3-0.2-0.4c-0.1-0.1-0.2-0.2-0.3-0.3c-0.1-0.1-0.3-0.1-0.5-0.1h-3.1v5.7h-1.4V32.1z"/>
		<path id="XMLID_44_" class="st5" d="M45.1,34.6l-0.6-0.4c-0.1-0.1-0.3-0.2-0.5-0.3c-0.2-0.1-0.4-0.2-0.5-0.2s-0.4-0.1-0.5-0.1
			c-0.2,0-0.3-0.1-0.4-0.1c-0.2,0-0.4,0-0.6,0.1c-0.2,0-0.4,0.1-0.5,0.2c-0.2,0.1-0.3,0.2-0.4,0.4c-0.1,0.2-0.1,0.4-0.1,0.7
			s0.1,0.5,0.2,0.7c0.2,0.2,0.4,0.3,0.6,0.4c0.2,0.1,0.5,0.2,0.8,0.2c0.3,0,0.6,0.1,0.9,0.1c0.3,0.1,0.6,0.2,0.9,0.3
			c0.3,0.2,0.5,0.3,0.8,0.6s0.4,0.5,0.5,0.8s0.2,0.6,0.2,0.9c0,0.5-0.1,0.9-0.3,1.3s-0.4,0.7-0.7,0.9c-0.3,0.2-0.7,0.4-1.1,0.5
			c-0.4,0.1-0.8,0.2-1.3,0.2c-0.6,0-1.2-0.1-1.6-0.2c-0.5-0.1-0.8-0.3-1.1-0.5c-0.3-0.2-0.6-0.4-0.9-0.7l0.9-0.9
			c0.1,0.1,0.3,0.2,0.4,0.3c0.2,0.1,0.4,0.2,0.6,0.3s0.5,0.2,0.8,0.2s0.6,0.1,0.8,0.1c0.3,0,0.6,0,0.8-0.1s0.4-0.2,0.6-0.3
			s0.3-0.3,0.4-0.5s0.1-0.4,0.1-0.6c0-0.2,0-0.4-0.1-0.6c-0.1-0.1-0.2-0.3-0.3-0.3c-0.1-0.1-0.2-0.1-0.3-0.2s-0.2-0.1-0.2-0.1
			c0,0-0.1,0-0.3,0s-0.4-0.1-0.6-0.1s-0.4-0.1-0.6-0.1s-0.4-0.1-0.5-0.1c-0.1,0-0.2,0-0.3-0.1c-0.1,0-0.3-0.1-0.4-0.2
			c-0.2-0.1-0.3-0.2-0.5-0.3c-0.2-0.1-0.3-0.3-0.4-0.5s-0.2-0.4-0.3-0.7c-0.1-0.3-0.1-0.6-0.1-0.9c0-0.5,0.1-0.9,0.3-1.3
			c0.2-0.4,0.4-0.6,0.7-0.9c0.3-0.2,0.6-0.4,1-0.5s0.7-0.1,1.1-0.1c0.4,0,0.7,0,1.1,0.1c0.3,0.1,0.6,0.2,0.8,0.3
			c0.3,0.1,0.5,0.3,0.7,0.4l0.7,0.5L45.1,34.6z"/>
		<path id="XMLID_42_" class="st5" d="M45.7,28.7V31h-5.8v-1.3h2.4v-1h1.3v1h0.8v-1H45.7z"/>
		<path id="XMLID_40_" class="st5" d="M55.6,38.3c-0.1,0.6-0.2,1.2-0.5,1.7c-0.1,0.2-0.3,0.4-0.4,0.6S54.3,41,54,41.2
			s-0.6,0.3-0.9,0.4s-0.7,0.1-1.2,0.1c-0.5,0-0.8,0-1.2-0.1s-0.6-0.2-0.9-0.4s-0.5-0.3-0.7-0.5s-0.3-0.4-0.4-0.6
			c-0.3-0.5-0.4-1.1-0.5-1.7v-1.9h2.6v1.3h-1.2v0.6c0,0.3,0,0.5,0.1,0.7s0.2,0.4,0.3,0.5s0.2,0.3,0.4,0.4s0.3,0.2,0.4,0.2
			c0.3,0.2,0.7,0.2,1.1,0.3c0.4,0,0.8-0.1,1.1-0.3c0.1-0.1,0.3-0.1,0.4-0.2s0.3-0.2,0.4-0.4s0.2-0.3,0.3-0.5s0.1-0.4,0.1-0.7v-2.9
			c0-0.2,0-0.5-0.1-0.7s-0.2-0.4-0.3-0.5s-0.2-0.3-0.4-0.4s-0.3-0.2-0.4-0.2c-0.3-0.1-0.7-0.2-1.1-0.2h-0.1c-0.1,0-0.2,0-0.4,0
			s-0.4,0.1-0.6,0.2s-0.4,0.2-0.6,0.4s-0.3,0.4-0.4,0.7h-1.4c0-0.2,0.1-0.3,0.2-0.5s0.2-0.4,0.3-0.6s0.3-0.4,0.5-0.6
			s0.4-0.4,0.7-0.5s0.6-0.3,0.9-0.4s0.7-0.1,1.2-0.1c0.4,0,0.8,0,1.2,0.1s0.6,0.2,0.9,0.4s0.5,0.3,0.7,0.5s0.3,0.4,0.4,0.6
			c0.3,0.5,0.4,1.1,0.5,1.7V38.3z"/>
		<path id="XMLID_38_" class="st5" d="M64.8,32.1v6.2c-0.1,0.6-0.2,1.2-0.5,1.7c-0.1,0.2-0.3,0.4-0.4,0.6s-0.4,0.4-0.7,0.5
			s-0.6,0.3-0.9,0.4s-0.7,0.1-1.2,0.1c-0.5,0-0.8,0-1.2-0.1s-0.6-0.2-0.9-0.4s-0.5-0.3-0.7-0.5S58.1,40.2,58,40
			c-0.3-0.5-0.4-1.1-0.5-1.7v-6.2h1.4v6.2c0,0.3,0,0.5,0.1,0.7s0.2,0.4,0.3,0.5s0.2,0.3,0.4,0.4s0.3,0.2,0.4,0.2
			c0.3,0.2,0.7,0.2,1.1,0.3c0.4,0,0.8-0.1,1.1-0.3c0.1-0.1,0.3-0.1,0.4-0.2s0.3-0.2,0.4-0.4s0.2-0.3,0.3-0.5s0.1-0.4,0.1-0.7v-6.2
			H64.8z"/>
		<path id="XMLID_36_" class="st5" d="M72.6,34.6L72,34.2c-0.1-0.1-0.3-0.2-0.5-0.3s-0.4-0.2-0.5-0.2s-0.4-0.1-0.5-0.1
			s-0.3-0.1-0.4-0.1c-0.2,0-0.4,0-0.6,0.1s-0.4,0.1-0.5,0.2s-0.3,0.2-0.4,0.4s-0.1,0.4-0.1,0.7s0.1,0.5,0.2,0.7s0.4,0.3,0.6,0.4
			s0.5,0.2,0.8,0.2s0.6,0.1,0.9,0.1s0.6,0.2,0.9,0.3s0.5,0.3,0.8,0.6s0.4,0.5,0.5,0.8s0.2,0.6,0.2,0.9c0,0.5-0.1,0.9-0.3,1.3
			s-0.4,0.7-0.7,0.9s-0.7,0.4-1.1,0.5s-0.8,0.2-1.3,0.2c-0.6,0-1.2-0.1-1.6-0.2s-0.8-0.3-1.1-0.5c-0.3-0.2-0.6-0.4-0.9-0.7l0.9-0.9
			c0.1,0.1,0.3,0.2,0.4,0.3s0.4,0.2,0.6,0.3s0.5,0.2,0.8,0.2s0.6,0.1,0.8,0.1c0.3,0,0.6,0,0.8-0.1s0.4-0.2,0.6-0.3s0.3-0.3,0.4-0.5
			s0.1-0.4,0.1-0.6c0-0.2,0-0.4-0.1-0.6s-0.2-0.3-0.3-0.3s-0.2-0.1-0.3-0.2s-0.2-0.1-0.2-0.1c0,0-0.1,0-0.3,0s-0.4-0.1-0.6-0.1
			s-0.4-0.1-0.6-0.1s-0.4-0.1-0.5-0.1c-0.1,0-0.2,0-0.3-0.1s-0.3-0.1-0.4-0.2s-0.3-0.2-0.5-0.3s-0.3-0.3-0.4-0.5S67.1,36,67,35.8
			s-0.1-0.6-0.1-0.9c0-0.5,0.1-0.9,0.3-1.3s0.4-0.6,0.7-0.9s0.6-0.4,1-0.5s0.7-0.1,1.1-0.1c0.4,0,0.7,0,1.1,0.1s0.6,0.2,0.8,0.3
			c0.3,0.1,0.5,0.3,0.7,0.4l0.7,0.5L72.6,34.6z"/>
		<path id="XMLID_34_" class="st5" d="M73,29.7V31h-5.3v-1.3H73z"/>
		<path id="XMLID_32_" class="st5" d="M75.8,41.6v-7.2c0.2-0.4,0.4-0.7,0.6-0.9s0.5-0.5,0.7-0.6s0.5-0.3,0.7-0.4s0.5-0.2,0.7-0.2
			s0.4-0.1,0.5-0.1s0.3,0,0.3,0h0.1c0.5,0,0.9,0.1,1.2,0.2s0.6,0.2,0.9,0.4s0.5,0.3,0.7,0.5s0.3,0.4,0.4,0.6s0.2,0.4,0.3,0.6
			s0.1,0.4,0.1,0.6s0.1,0.3,0.1,0.4s0,0.2,0,0.2v5.8h-1.4v-5.8c0-0.4-0.1-0.7-0.2-0.9s-0.2-0.5-0.4-0.6s-0.3-0.3-0.5-0.4
			s-0.4-0.2-0.5-0.2s-0.3-0.1-0.4-0.1s-0.2,0-0.2,0c-0.3,0-0.5,0-0.8,0.1s-0.4,0.1-0.6,0.3s-0.3,0.2-0.4,0.4s-0.2,0.3-0.3,0.4
			c-0.2,0.3-0.3,0.7-0.3,1.1v5.8H75.8z"/>
		<path id="XMLID_30_" class="st5" d="M86.9,32.1c0,0,0.1,0,0.3,0c0.1,0,0.3,0,0.5,0.1c0.2,0,0.4,0.1,0.6,0.2
			c0.2,0.1,0.4,0.3,0.6,0.5c0.2,0.2,0.3,0.5,0.4,0.8s0.2,0.7,0.2,1.2v6.7H88v-6.7c0-0.3-0.1-0.5-0.1-0.7c0-0.1-0.1-0.2-0.1-0.3
			s-0.1-0.2-0.2-0.2c-0.1-0.1-0.2-0.1-0.3-0.2c-0.1,0-0.2-0.1-0.4-0.1c-0.2,0-0.4,0-0.6,0.1c-0.2,0.1-0.3,0.1-0.4,0.2
			s-0.2,0.1-0.3,0.2s-0.1,0.1-0.1,0.1l-1-1c0.2-0.2,0.3-0.4,0.6-0.5c0.2-0.1,0.4-0.2,0.7-0.4S86.5,32.1,86.9,32.1z"/>
		<path id="XMLID_28_" class="st5" d="M97.1,34.6l-0.6-0.4c-0.1-0.1-0.3-0.2-0.5-0.3c-0.2-0.1-0.4-0.2-0.5-0.2s-0.4-0.1-0.5-0.1
			c-0.2,0-0.3-0.1-0.4-0.1c-0.2,0-0.4,0-0.6,0.1c-0.2,0-0.4,0.1-0.5,0.2c-0.2,0.1-0.3,0.2-0.4,0.4c-0.1,0.2-0.1,0.4-0.1,0.7
			s0.1,0.5,0.2,0.7c0.2,0.2,0.4,0.3,0.6,0.4c0.2,0.1,0.5,0.2,0.8,0.2c0.3,0,0.6,0.1,0.9,0.1c0.3,0.1,0.6,0.2,0.9,0.3
			c0.3,0.2,0.5,0.3,0.8,0.6s0.4,0.5,0.5,0.8s0.2,0.6,0.2,0.9c0,0.5-0.1,0.9-0.3,1.3s-0.4,0.7-0.7,0.9c-0.3,0.2-0.7,0.4-1.1,0.5
			c-0.4,0.1-0.8,0.2-1.3,0.2c-0.6,0-1.2-0.1-1.6-0.2c-0.5-0.1-0.8-0.3-1.1-0.5c-0.3-0.2-0.6-0.4-0.9-0.7l0.9-0.9
			c0.1,0.1,0.3,0.2,0.4,0.3c0.2,0.1,0.4,0.2,0.6,0.3s0.5,0.2,0.8,0.2s0.6,0.1,0.8,0.1c0.3,0,0.6,0,0.8-0.1s0.4-0.2,0.6-0.3
			s0.3-0.3,0.4-0.5s0.1-0.4,0.1-0.6c0-0.2,0-0.4-0.1-0.6c-0.1-0.1-0.2-0.3-0.3-0.3c-0.1-0.1-0.2-0.1-0.3-0.2s-0.2-0.1-0.2-0.1
			c0,0-0.1,0-0.3,0s-0.4-0.1-0.6-0.1s-0.4-0.1-0.6-0.1s-0.4-0.1-0.5-0.1c-0.1,0-0.2,0-0.3-0.1c-0.1,0-0.3-0.1-0.4-0.2
			c-0.2-0.1-0.3-0.2-0.5-0.3c-0.2-0.1-0.3-0.3-0.4-0.5s-0.2-0.4-0.3-0.7c-0.1-0.3-0.1-0.6-0.1-0.9c0-0.5,0.1-0.9,0.3-1.3
			c0.2-0.4,0.4-0.6,0.7-0.9c0.3-0.2,0.6-0.4,1-0.5s0.7-0.1,1.1-0.1c0.4,0,0.7,0,1.1,0.1c0.3,0.1,0.6,0.2,0.8,0.3
			c0.3,0.1,0.5,0.3,0.7,0.4l0.7,0.5L97.1,34.6z"/>
		<path id="XMLID_26_" class="st5" d="M100.4,41.6V32c0-0.2,0-0.4,0.1-0.6c0-0.2,0.1-0.4,0.2-0.5c0.1-0.2,0.2-0.3,0.3-0.5
			c0.1-0.2,0.3-0.3,0.4-0.4c0.1-0.1,0.3-0.3,0.4-0.4s0.2-0.2,0.2-0.3c0-0.1,0.1-0.2,0.1-0.3c0-0.1,0-0.2,0-0.3c0-0.2,0-0.4-0.1-0.6
			s-0.2-0.3-0.3-0.4c-0.1-0.1-0.3-0.2-0.5-0.3c-0.2-0.1-0.4-0.1-0.6-0.1c-0.4,0-0.7,0-0.9,0.1s-0.4,0.1-0.4,0.2
			c-0.1,0.1-0.2,0.2-0.2,0.3h-1.2c0,0,0,0,0,0v-0.1c0-0.1,0-0.2,0-0.3s0.1-0.2,0.1-0.4s0.1-0.3,0.3-0.4s0.3-0.3,0.5-0.4
			c0.2-0.1,0.4-0.2,0.7-0.3c0.3-0.1,0.7-0.1,1.1-0.1c0.4,0,0.8,0,1.1,0.1s0.6,0.2,0.8,0.4c0.2,0.2,0.4,0.3,0.5,0.5
			c0.1,0.2,0.2,0.4,0.3,0.6c0.1,0.2,0.1,0.4,0.1,0.5c0,0.2,0,0.3,0,0.4v0.2c0,0.1,0,0.3,0,0.4c0,0.1-0.1,0.3-0.1,0.4
			c-0.1,0.2-0.2,0.3-0.3,0.5c-0.1,0.2-0.3,0.4-0.4,0.6c-0.2,0.2-0.3,0.4-0.4,0.6s-0.2,0.3-0.2,0.4c-0.1,0.1-0.1,0.3-0.1,0.4v9.6
			H100.4z"/>
		<path id="XMLID_24_" class="st5" d="M104.7,32.1h1.4v2.4h3.1c0.2,0,0.3-0.1,0.5-0.2c0.1-0.1,0.2-0.2,0.4-0.4s0.2-0.4,0.3-0.6v-1.2
			h1.4v1.4c0,0.1,0,0.2-0.1,0.3s-0.1,0.3-0.2,0.5s-0.2,0.3-0.3,0.5c-0.1,0.2-0.2,0.3-0.4,0.4c0.2,0.2,0.3,0.4,0.5,0.6
			c0.1,0.2,0.2,0.4,0.3,0.7c0.1,0.3,0.2,0.6,0.2,1v4.1h-1.4v-4.1c0-0.2-0.1-0.3-0.1-0.4c0-0.1-0.1-0.3-0.1-0.4
			c-0.1-0.1-0.1-0.3-0.2-0.4c-0.1-0.1-0.2-0.2-0.3-0.3c-0.1-0.1-0.3-0.1-0.5-0.1h-3.1v5.7h-1.4V32.1z"/>
		<path id="XMLID_22_" class="st5" d="M121.5,32.1V38v0.1c0,0.1,0,0.3,0,0.5s-0.1,0.5-0.1,0.7c-0.1,0.3-0.2,0.5-0.3,0.8
			s-0.3,0.5-0.6,0.8c-0.2,0.2-0.6,0.4-0.9,0.6c-0.4,0.1-0.8,0.2-1.4,0.2h-0.3c-0.4,0-0.8-0.1-1.1-0.2c-0.1,0-0.3-0.1-0.4-0.2
			c-0.1-0.1-0.3-0.2-0.4-0.3s-0.2-0.2-0.3-0.3s-0.1-0.3-0.1-0.5v1.3h-1.4v-9.4h1.4V38c0,0,0,0.1,0,0.2s0,0.3,0.1,0.5
			s0.1,0.4,0.2,0.6c0.1,0.2,0.2,0.4,0.4,0.5c0.2,0.2,0.4,0.3,0.6,0.4c0.3,0.1,0.6,0.2,0.9,0.2c0,0,0.1,0,0.2,0c0.1,0,0.3,0,0.4-0.1
			c0.2,0,0.3-0.1,0.5-0.2c0.2-0.1,0.4-0.2,0.5-0.4c0.2-0.2,0.3-0.4,0.4-0.7c0.1-0.3,0.2-0.6,0.2-1v-5.9H121.5z"/>
		<path id="XMLID_20_" class="st5" d="M121,28.3V31h-1.3v-2.7H121z"/>
		<path id="XMLID_18_" class="st5" d="M135.9,43.9h-1.4v-8.4c0-0.1,0-0.2,0-0.4s0-0.3-0.1-0.5s-0.1-0.3-0.2-0.5s-0.2-0.3-0.3-0.4
			l-1.4,1.4l-1.3-1.4c-0.1,0.1-0.2,0.2-0.3,0.4s-0.1,0.4-0.2,0.5s-0.1,0.4-0.1,0.5s0,0.3,0,0.3v0.1h-1.4c0-0.6,0.1-1,0.2-1.4
			s0.2-0.7,0.4-1s0.3-0.5,0.5-0.6s0.4-0.2,0.6-0.3s0.3-0.1,0.4-0.1s0.2,0,0.2,0l0.9,0.9l0.1,0.1c0.2-0.2,0.4-0.4,0.6-0.6
			s0.2-0.2,0.3-0.3s0.1-0.1,0.1-0.1c0,0,0.1,0,0.2,0s0.3,0,0.4,0.1s0.4,0.2,0.5,0.3s0.4,0.3,0.5,0.6s0.3,0.6,0.4,0.9
			s0.2,0.8,0.2,1.4v0.2V43.9z"/>
	</g>
</g>
</svg>