<!-- Generator: Adobe Illustrator 19.0.0, SVG Export Plug-In  -->
<svg version="1.1"
	 xmlns="http://www.w3.org/2000/svg" xmlns:xlink="http://www.w3.org/1999/xlink" xmlns:a="http://ns.adobe.com/AdobeSVGViewerExtensions/3.0/"
	 x="0px" y="0px" width="67.7px" height="123px" viewBox="0 0 67.7 123" style="enable-background:new 0 0 67.7 123;"
	 xml:space="preserve">
<style type="text/css">
	.st0{fill:#086A87;stroke:#086A87;stroke-width:0.6;stroke-miterlimit:10;}
	.st1{fill:none;stroke:#086A87;stroke-width:2;stroke-linecap:round;stroke-linejoin:round;stroke-miterlimit:10;}
	.st2{fill:#FF6633;}
</style>
<defs>
</defs>
<g id="XMLID_53_">
	<g id="XMLID_55_">
		<path id="XMLID_77_" class="st0" d="M6.2,86.6H5.2v-7.6H2.5V78h6.4v0.9H6.2V86.6z"/>
		<path id="XMLID_75_" class="st0" d="M14.4,86.6v-4.1c0-0.5-0.1-0.9-0.3-1.2s-0.6-0.4-1.1-0.4c-0.7,0-1.1,0.2-1.4,0.5
			s-0.5,1-0.5,1.8v3.3h-1.1v-9.1h1.1v2.7c0,0.4,0,0.7-0.1,0.9h0.1c0.2-0.3,0.5-0.6,0.8-0.7s0.7-0.3,1.2-0.3c0.8,0,1.4,0.2,1.8,0.6
			s0.6,1,0.6,1.8v4.2H14.4z"/>
		<path id="XMLID_71_" class="st0" d="M23.1,83.3c0,1.1-0.3,1.9-0.8,2.5s-1.3,0.9-2.2,0.9c-0.6,0-1.1-0.1-1.5-0.4s-0.8-0.7-1-1.2
			s-0.4-1.1-0.4-1.8c0-1,0.3-1.9,0.8-2.4s1.3-0.9,2.2-0.9c0.4,0,0.8,0.1,1.2,0.2s0.7,0.3,0.9,0.6c0.2-0.1,0.4-0.2,0.5-0.3
			s0.2-0.3,0.3-0.5s0.1-0.5,0.1-0.9h1.1l0.1,0.1c-0.1,0.6-0.3,1.1-0.6,1.5s-0.6,0.6-1,0.7C22.9,82,23.1,82.6,23.1,83.3z M18.2,83.3
			c0,0.8,0.2,1.5,0.5,1.9s0.8,0.6,1.4,0.6c0.7,0,1.1-0.2,1.4-0.6s0.4-1,0.4-1.8c0-0.8-0.2-1.4-0.5-1.8s-0.8-0.6-1.4-0.6
			s-1.1,0.2-1.4,0.6S18.2,82.5,18.2,83.3z M20.9,79.3h-0.7c-0.3-0.2-0.6-0.5-1-0.9s-0.6-0.7-0.7-0.9v-0.1h1.3
			c0.1,0.3,0.3,0.6,0.5,0.9s0.4,0.6,0.6,0.9V79.3z"/>
		<path id="XMLID_68_" class="st0" d="M24.8,78.4c0-0.2,0.1-0.4,0.2-0.5s0.3-0.2,0.4-0.2c0.2,0,0.3,0.1,0.4,0.2s0.2,0.3,0.2,0.5
			c0,0.2-0.1,0.4-0.2,0.5s-0.3,0.2-0.4,0.2c-0.2,0-0.3-0.1-0.4-0.2S24.8,78.6,24.8,78.4z M25.9,86.6h-1.1v-6.4h1.1V86.6z"/>
		<path id="XMLID_66_" class="st0" d="M33.2,85.8c0.1,0,0.3,0,0.5,0s0.3-0.1,0.4-0.1v0.8c-0.1,0-0.2,0.1-0.5,0.1s-0.4,0.1-0.6,0.1
			c-1.3,0-1.9-0.7-1.9-2v-3.7h-0.9v-0.5l0.9-0.4l0.4-1.4h0.6v1.5h1.9v0.8h-1.9v3.7c0,0.4,0.1,0.7,0.3,0.9S32.9,85.8,33.2,85.8z"/>
		<path id="XMLID_64_" class="st0" d="M38.4,80c0.3,0,0.5,0,0.8,0.1L39,81C38.8,81,38.6,81,38.3,81c-0.3,0-0.7,0.1-0.9,0.3
			s-0.5,0.4-0.7,0.8s-0.2,0.7-0.2,1.1v3.4h-1.1v-6.4h0.9l0.1,1.2h0c0.2-0.4,0.5-0.7,0.9-1S38,80,38.4,80z"/>
		<path id="XMLID_61_" class="st0" d="M44.2,86.6L44,85.6h0c-0.3,0.4-0.6,0.7-1,0.8s-0.7,0.2-1.2,0.2c-0.6,0-1.1-0.2-1.5-0.5
			s-0.5-0.8-0.5-1.4c0-1.3,1-2,3.1-2.1l1.1,0v-0.4c0-0.5-0.1-0.8-0.3-1.1s-0.5-0.3-1-0.3c-0.3,0-0.7,0.1-1,0.2s-0.6,0.2-0.9,0.3
			l-0.3-0.8c0.3-0.2,0.7-0.3,1.1-0.4s0.8-0.1,1.1-0.1c0.8,0,1.4,0.2,1.7,0.5s0.6,0.9,0.6,1.6v4.4H44.2z M42.1,85.8
			c0.6,0,1.1-0.2,1.4-0.5S44,84.6,44,84v-0.6l-0.9,0c-0.7,0-1.3,0.1-1.6,0.4s-0.5,0.5-0.5,1c0,0.3,0.1,0.6,0.3,0.8
			S41.7,85.8,42.1,85.8z"/>
		<path id="XMLID_59_" class="st0" d="M51.4,86.6v-4.1c0-0.5-0.1-0.9-0.3-1.2s-0.6-0.4-1.1-0.4c-0.7,0-1.1,0.2-1.4,0.5
			s-0.4,1-0.4,1.8v3.3H47v-6.4h0.8L48,81h0.1c0.2-0.3,0.5-0.6,0.8-0.7s0.8-0.3,1.2-0.3c0.8,0,1.4,0.2,1.8,0.6s0.6,1,0.6,1.8v4.2
			H51.4z"/>
		<path id="XMLID_56_" class="st0" d="M58.7,86.5l0-0.8h0c-0.4,0.6-1.1,1-2,1c-0.8,0-1.5-0.3-1.9-0.9S54,84.4,54,83.4
			c0-1,0.2-1.9,0.7-2.4s1.1-0.9,1.9-0.9c0.9,0,1.5,0.3,2,1h0.1l0.1-0.9h0.8v6.5c0,0.9-0.2,1.6-0.7,2.1s-1.2,0.7-2.2,0.7
			c-0.9,0-1.7-0.1-2.3-0.4v-1c0.6,0.3,1.4,0.5,2.4,0.5c0.5,0,1-0.2,1.3-0.5s0.5-0.8,0.5-1.3V86.5z M56.9,85.8c0.6,0,1.1-0.2,1.4-0.5
			s0.4-0.9,0.4-1.7v-0.3c0-0.9-0.1-1.5-0.4-1.9s-0.8-0.6-1.4-0.6c-0.5,0-1,0.2-1.3,0.6s-0.4,1-0.4,1.8c0,0.8,0.1,1.4,0.4,1.8
			S56.3,85.8,56.9,85.8z"/>
	</g>
</g>
<path id="XMLID_52_" class="st1" d="M46.9,58l-9.6-34.5c0,0,6.1-3.5,3.7-11.5h-2.7l-2-11H33v5.7c0,2.3-2.2,4.2-4.5,4.2S24,9,24,6.7
	V1h-3.3l-2,11h-2.3c0,0-0.9,9.5,3.7,11.5L10.3,58H46.9z"/>
<g id="XMLID_15_">
	<g id="XMLID_17_">
		<path id="XMLID_33_" class="st2" d="M7,123H4v-8.6l0-1.4l0.1-1.5c-0.5,0.5-0.8,0.8-1,1l-1.6,1.3l-1.5-2l4.6-3.8H7V123z"/>
		<path id="XMLID_31_" class="st2" d="M16.3,113.5c1.4,0,2.5,0.4,3.3,1.2c0.8,0.8,1.2,1.8,1.2,3.2c0,1.6-0.5,2.8-1.5,3.7
			c-1,0.9-2.5,1.3-4.3,1.3c-1.6,0-2.9-0.3-3.9-0.8v-2.6c1,0.3,1.2,0.5,1.9,0.7s1.4,0.3,2,0.3c1.8,0,2.8-0.8,2.8-2.3
			c0-1.4-0.9-2.2-2.8-2.2c-0.3,0-0.7,0-1.1,0.1c-0.4,0.1-0.8,0.1-1,0.2l-1.2-0.8l0.5-7.4h8v3h-5.3l-0.3,2.8l0.3-0.1
			C15.2,113.6,15.7,113.5,16.3,113.5z"/>
		<path id="XMLID_29_" class="st2" d="M22.8,121.2c0-0.5,0.1-1,0.4-1.2s0.7-0.4,1.3-0.4c0.5,0,1,0.1,1.3,0.4
			c0.3,0.3,0.4,0.7,0.4,1.2c0,0.5-0.1,0.9-0.4,1.2c-0.3,0.3-0.7,0.4-1.3,0.4c-0.5,0-1-0.1-1.3-0.4C23,122.2,22.8,121.7,22.8,121.2z"
			/>
		<path id="XMLID_26_" class="st2" d="M38.1,115.5c0,2.5-0.4,4.3-1.2,5.5c-0.8,1.2-2.1,1.8-3.8,1.8c-1.6,0-2.9-0.6-3.7-1.9
			c-0.8-1.2-1.3-3.1-1.3-5.5c0-2.5,0.4-4.4,1.2-5.6c0.8-1.2,2.1-1.8,3.8-1.8c1.6,0,2.9,0.6,3.7,1.9
			C37.7,111.2,38.1,113.1,38.1,115.5z M31.1,115.5c0,1.8,0.2,3,0.5,3.8s0.8,1.1,1.5,1.1c0.7,0,1.2-0.4,1.5-1.2s0.5-2,0.5-3.8
			c0-1.8-0.2-3-0.5-3.8c-0.3-0.8-0.8-1.1-1.5-1.1c-0.7,0-1.2,0.4-1.5,1.1C31.3,112.5,31.1,113.7,31.1,115.5z"/>
		<path id="XMLID_24_" class="st2" d="M41,123l5.4-12H39v-3h11v2.2L44.2,123H41z"/>
		<path id="XMLID_18_" class="st2" d="M57.7,112.6c0,1.5-0.3,2.6-0.9,3.4c-0.6,0.8-1.4,1.1-2.5,1.1c-1.1,0-1.9-0.4-2.5-1.2
			s-0.9-1.9-0.9-3.3c0-3,1.1-4.5,3.4-4.5c1.1,0,1.9,0.4,2.5,1.2C57.4,110.1,57.7,111.2,57.7,112.6z M53.3,112.6
			c0,0.8,0.1,1.4,0.2,1.9s0.4,0.6,0.7,0.6c0.6,0,0.9-0.8,0.9-2.5c0-1.6-0.3-2.4-0.9-2.4c-0.3,0-0.6,0.2-0.7,0.6
			S53.3,111.8,53.3,112.6z M64.4,108l-7.9,15h-2.3l7.9-15H64.4z M67.7,118.3c0,1.5-0.3,2.6-0.9,3.4c-0.6,0.8-1.4,1.1-2.5,1.1
			c-1.1,0-1.9-0.4-2.5-1.2s-0.9-1.9-0.9-3.3c0-3,1.1-4.5,3.4-4.5c1.1,0,1.9,0.4,2.5,1.2C67.4,115.8,67.7,116.9,67.7,118.3z
			 M63.3,118.3c0,0.8,0.1,1.4,0.2,1.9s0.4,0.6,0.7,0.6c0.6,0,0.9-0.8,0.9-2.5c0-1.6-0.3-2.4-0.9-2.4c-0.3,0-0.6,0.2-0.7,0.6
			S63.3,117.5,63.3,118.3z"/>
	</g>
</g>
</svg>