<!-- Generator: Adobe Illustrator 19.0.0, SVG Export Plug-In  -->
<svg version="1.1"
	 xmlns="http://www.w3.org/2000/svg" xmlns:xlink="http://www.w3.org/1999/xlink" xmlns:a="http://ns.adobe.com/AdobeSVGViewerExtensions/3.0/"
	 x="0px" y="0px" width="87px" height="127.9px" viewBox="0 0 87 127.9" style="enable-background:new 0 0 87 127.9;"
	 xml:space="preserve">
<style type="text/css">
	.st0{fill:none;stroke:#086A87;stroke-width:1.5569;stroke-linecap:round;stroke-linejoin:round;stroke-miterlimit:10;}
	.st1{fill:#086A87;}
	.st2{fill:#FF6633;}
</style>
<defs>
</defs>
<g>
	<g>
		<ellipse transform="matrix(0.7071 0.7071 -0.7071 0.7071 26.3662 -26.1209)" class="st0" cx="44.7" cy="18.8" rx="17" ry="18.9"/>
		<path class="st0" d="M7.4,58l-2-2c-0.6-0.6-0.6-1.6,0-2.2l11.7-11.7c0.6-0.6,1.6-0.6,2.2,0l2,2c0.6,0.6,0.6,1.6,0,2.2L9.6,58
			C9,58.6,8,58.6,7.4,58z"/>
		<path class="st0" d="M26.7,20.7c0,0,0.1,15.9-8.4,24.4"/>
		<path class="st0" d="M42.8,36.8c0,0-15.9-0.1-24.4,8.4"/>
	</g>
	<path class="st0" d="M43.7,55.8c-1.4,1.4-3.4,2.1-5.3,1.9c-1.4-0.2-2.8-0.8-3.9-1.9c-1.1-1.1-1.7-2.5-1.9-4
		c-0.2-1.8,0.5-3.8,1.9-5.2c1.4-1.4,3.3-2,5.2-1.9c1.5,0.1,2.9,0.8,4,1.9c1.1,1.1,1.7,2.5,1.9,3.9C45.7,52.5,45.1,54.4,43.7,55.8z"
		/>
	<path class="st0" d="M37.8,49.9c-1.4,1.4-3.3,2-5.2,1.9c-0.2-1.8,0.5-3.8,1.9-5.2c1.4-1.4,3.3-2,5.2-1.9
		C39.8,46.6,39.2,48.5,37.8,49.9z"/>
	<path class="st0" d="M43.7,55.8c-1.4,1.4-3.4,2.1-5.3,1.9c-0.2-1.9,0.4-3.8,1.9-5.3s3.4-2.1,5.3-1.9C45.7,52.5,45.1,54.4,43.7,55.8
		z"/>
	<line class="st0" x1="12.5" y1="46.9" x2="19" y2="48.8"/>
	<line class="st0" x1="9" y1="50.2" x2="15.4" y2="52.1"/>
	<polyline class="st0" points="46,4.4 47.1,5.4 50,8.4 52.6,11 55.6,14 58.6,16.9 59.2,17.6 	"/>
	<polyline class="st0" points="41.7,5.2 44.5,8 47.5,11 50.1,13.6 53,16.5 56,19.5 58.5,21.9 	"/>
	<polyline class="st0" points="38.2,6.8 41.9,10.5 44.9,13.5 47.5,16.1 50.5,19.1 53.5,22.1 56.8,25.4 	"/>
	<polyline class="st0" points="35.3,9 39.4,13.1 42.4,16.1 45,18.7 47.9,21.6 50.9,24.6 54.6,28.3 	"/>
	<polyline class="st0" points="33,11.8 36.8,15.7 39.8,18.6 42.4,21.2 45.4,24.2 48.3,27.2 51.8,30.6 	"/>
	<polyline class="st0" points="31.3,15.2 34.3,18.2 37.2,21.2 39.8,23.8 42.8,26.8 45.8,29.7 48.4,32.4 	"/>
	<polyline class="st0" points="30.4,19.4 31.7,20.8 34.7,23.7 37.3,26.3 40.3,29.3 43.2,32.3 44.2,33.3 	"/>
	<ellipse transform="matrix(0.7071 0.7071 -0.7071 0.7071 26.4388 -26.1511)" class="st0" cx="44.8" cy="18.8" rx="14" ry="15.6"/>
	<polyline class="st0" points="34,29.6 37.3,26.3 39.8,23.8 42.4,21.2 45,18.7 47.5,16.1 50.1,13.6 52.6,11 55.5,8.1 	"/>
	<polyline class="st0" points="37.5,32.1 40.3,29.3 42.8,26.8 45.4,24.2 47.9,21.6 50.5,19.1 53,16.5 55.6,14 57.9,11.6 	"/>
	<polyline class="st0" points="42.2,33.3 43.2,32.3 45.8,29.7 48.3,27.2 50.9,24.6 53.5,22.1 56,19.5 58.6,16.9 59.2,16.3 	"/>
	<polyline class="st0" points="30.4,22.1 31.7,20.8 34.3,18.2 36.8,15.7 39.4,13.1 41.9,10.5 44.5,8 47.1,5.4 48,4.5 	"/>
	<polyline class="st0" points="31.8,26.6 34.7,23.7 37.2,21.2 39.8,18.6 42.4,16.1 44.9,13.5 47.5,11 50,8.4 52.5,5.9 	"/>
</g>
<g>
	<g>
		<path class="st1" d="M5.6,87.2c0,0.8-0.3,1.4-0.8,1.8s-1.3,0.7-2.3,0.7c-0.9,0-1.7-0.2-2.4-0.5v-1.7c0.6,0.3,1.1,0.4,1.5,0.5
			s0.8,0.2,1.1,0.2c0.4,0,0.7-0.1,0.9-0.2s0.3-0.4,0.3-0.7c0-0.2,0-0.3-0.1-0.4s-0.2-0.3-0.4-0.4s-0.6-0.3-1.1-0.6
			c-0.5-0.2-0.9-0.5-1.2-0.7s-0.5-0.5-0.6-0.8s-0.2-0.7-0.2-1.1c0-0.8,0.3-1.4,0.8-1.8s1.2-0.7,2.1-0.7c0.4,0,0.9,0.1,1.3,0.2
			s0.8,0.3,1.3,0.4L5,82.9c-0.5-0.2-0.8-0.3-1.1-0.4s-0.6-0.1-0.9-0.1c-0.3,0-0.6,0.1-0.8,0.2S1.9,83,1.9,83.3c0,0.2,0,0.3,0.1,0.4
			s0.2,0.2,0.4,0.3s0.5,0.3,1.2,0.6c0.8,0.4,1.3,0.8,1.6,1.2S5.6,86.6,5.6,87.2z"/>
		<path class="st1" d="M10.6,89.7c-0.8,0-1.4-0.3-1.8-0.8H8.7c0.1,0.5,0.1,0.9,0.1,0.9v2.7H7V83h1.5l0.3,0.8h0.1c0.4-0.6,1-1,1.9-1
			c0.8,0,1.4,0.3,1.8,0.9s0.7,1.4,0.7,2.5c0,0.7-0.1,1.3-0.3,1.8s-0.5,0.9-0.9,1.2S11.1,89.7,10.6,89.7z M10.1,84.3
			c-0.4,0-0.8,0.1-1,0.4s-0.3,0.7-0.3,1.3v0.2c0,0.7,0.1,1.2,0.3,1.5s0.5,0.5,1,0.5c0.8,0,1.2-0.7,1.2-2c0-0.6-0.1-1.1-0.3-1.5
			S10.5,84.3,10.1,84.3z"/>
		<path class="st1" d="M20.5,86.3c0,1.1-0.3,1.9-0.8,2.5s-1.3,0.9-2.3,0.9c-0.6,0-1.2-0.1-1.7-0.4s-0.8-0.7-1.1-1.2
			s-0.4-1.1-0.4-1.8c0-1.1,0.3-1.9,0.8-2.5s1.3-0.9,2.4-0.9c0.6,0,1.2,0.1,1.7,0.4s0.8,0.7,1.1,1.2S20.5,85.6,20.5,86.3z M16,86.3
			c0,0.6,0.1,1.1,0.3,1.5s0.6,0.5,1,0.5c0.5,0,0.8-0.2,1-0.5s0.3-0.8,0.3-1.5c0-0.6-0.1-1.1-0.3-1.5s-0.6-0.5-1-0.5
			c-0.5,0-0.8,0.2-1,0.5S16,85.6,16,86.3z"/>
		<path class="st1" d="M25.7,82.9c0.2,0,0.4,0,0.6,0.1l-0.1,1.7c-0.1,0-0.3-0.1-0.5-0.1c-0.6,0-1,0.1-1.3,0.4s-0.5,0.7-0.5,1.2v3.3
			H22V83h1.4l0.3,1.1h0.1c0.2-0.4,0.5-0.7,0.8-0.9S25.3,82.9,25.7,82.9z"/>
		<path class="st1" d="M30.2,88.3c0.3,0,0.7-0.1,1.1-0.2v1.3c-0.4,0.2-1,0.3-1.6,0.3c-0.7,0-1.2-0.2-1.6-0.5s-0.5-0.9-0.5-1.6v-3.2
			h-0.9v-0.8l1-0.6l0.5-1.4h1.1V83h1.8v1.3h-1.8v3.2c0,0.3,0.1,0.4,0.2,0.6S30,88.3,30.2,88.3z"/>
		<path class="st1" d="M34.4,88.3c-0.2,0.8-0.5,1.7-1,2.8h-1.3c0.3-1,0.5-2,0.6-2.9h1.6L34.4,88.3z"/>
		<path class="st1" d="M41.1,89.6h-1.8V81h4.9v1.5h-3.1v2.2h2.9v1.5h-2.9V89.6z"/>
		<path class="st1" d="M45.7,81.3c0-0.6,0.3-0.9,1-0.9s1,0.3,1,0.9c0,0.3-0.1,0.5-0.2,0.6s-0.4,0.2-0.7,0.2
			C46.1,82.2,45.7,81.9,45.7,81.3z M47.6,89.6h-1.8V83h1.8V89.6z"/>
		<path class="st1" d="M52.2,88.3c0.3,0,0.7-0.1,1.1-0.2v1.3c-0.4,0.2-1,0.3-1.6,0.3c-0.7,0-1.2-0.2-1.6-0.5s-0.5-0.9-0.5-1.6v-3.2
			h-0.9v-0.8l1-0.6l0.5-1.4h1.1V83h1.8v1.3h-1.8v3.2c0,0.3,0.1,0.4,0.2,0.6S52,88.3,52.2,88.3z"/>
		<path class="st1" d="M60.7,89.6h-1.8v-3.8c0-0.5-0.1-0.8-0.3-1.1s-0.4-0.4-0.8-0.4c-0.5,0-0.9,0.2-1.1,0.5s-0.3,0.9-0.3,1.7v3.1
			h-1.8V83H56l0.2,0.8h0.1c0.2-0.3,0.5-0.6,0.8-0.7s0.7-0.2,1.2-0.2c0.8,0,1.3,0.2,1.7,0.6s0.6,1,0.6,1.8V89.6z"/>
		<path class="st1" d="M65.5,89.7c-1.1,0-1.9-0.3-2.5-0.9s-0.9-1.4-0.9-2.5c0-1.1,0.3-1.9,0.8-2.5s1.3-0.9,2.3-0.9
			c0.9,0,1.6,0.3,2.2,0.8s0.8,1.3,0.8,2.2v0.9H64c0,0.5,0.2,0.9,0.5,1.2s0.7,0.4,1.2,0.4c0.4,0,0.8,0,1.1-0.1s0.7-0.2,1.1-0.4v1.4
			c-0.3,0.2-0.6,0.3-1,0.3S66,89.7,65.5,89.7z M65.3,84.2c-0.4,0-0.7,0.1-0.9,0.4s-0.3,0.6-0.4,1h2.5c0-0.4-0.1-0.8-0.3-1
			S65.7,84.2,65.3,84.2z"/>
		<path class="st1" d="M74.2,87.6c0,0.7-0.2,1.2-0.7,1.5s-1.2,0.5-2.1,0.5c-0.5,0-0.9,0-1.2-0.1s-0.7-0.2-0.9-0.3v-1.5
			c0.3,0.2,0.7,0.3,1.1,0.4s0.8,0.2,1.1,0.2c0.6,0,1-0.2,1-0.6c0-0.1,0-0.3-0.1-0.3s-0.2-0.2-0.4-0.3S71.4,87,71,86.8
			c-0.5-0.2-0.9-0.4-1.1-0.6s-0.4-0.4-0.5-0.6s-0.2-0.5-0.2-0.9c0-0.6,0.2-1,0.7-1.4s1.1-0.5,1.9-0.5c0.8,0,1.6,0.2,2.3,0.5
			l-0.5,1.3c-0.3-0.1-0.6-0.3-0.9-0.3s-0.6-0.1-0.9-0.1c-0.5,0-0.8,0.1-0.8,0.4c0,0.2,0.1,0.3,0.3,0.4s0.5,0.3,1.1,0.5
			c0.5,0.2,0.9,0.4,1.1,0.6s0.4,0.4,0.5,0.6S74.2,87.3,74.2,87.6z"/>
		<path class="st1" d="M80.2,87.6c0,0.7-0.2,1.2-0.7,1.5s-1.2,0.5-2.1,0.5c-0.5,0-0.9,0-1.2-0.1s-0.7-0.2-0.9-0.3v-1.5
			c0.3,0.2,0.7,0.3,1.1,0.4s0.8,0.2,1.1,0.2c0.6,0,1-0.2,1-0.6c0-0.1,0-0.3-0.1-0.3s-0.2-0.2-0.4-0.3S77.4,87,77,86.8
			c-0.5-0.2-0.9-0.4-1.1-0.6s-0.4-0.4-0.5-0.6s-0.2-0.5-0.2-0.9c0-0.6,0.2-1,0.7-1.4s1.1-0.5,1.9-0.5c0.8,0,1.6,0.2,2.3,0.5
			l-0.5,1.3c-0.3-0.1-0.6-0.3-0.9-0.3s-0.6-0.1-0.9-0.1c-0.5,0-0.8,0.1-0.8,0.4c0,0.2,0.1,0.3,0.3,0.4s0.5,0.3,1.1,0.5
			c0.5,0.2,0.9,0.4,1.1,0.6s0.4,0.4,0.5,0.6S80.2,87.3,80.2,87.6z"/>
		<path class="st1" d="M14.7,104h-2.2l-0.7-0.7c-0.7,0.5-1.6,0.8-2.5,0.8c-1,0-1.7-0.2-2.3-0.7s-0.8-1-0.8-1.8c0-0.5,0.1-1,0.4-1.4
			s0.6-0.7,1.2-1.1c-0.3-0.3-0.5-0.7-0.6-1s-0.2-0.6-0.2-1c0-0.6,0.2-1.1,0.7-1.4s1.1-0.5,1.8-0.5c0.7,0,1.3,0.2,1.7,0.5
			s0.7,0.8,0.7,1.4c0,0.5-0.1,0.9-0.4,1.3s-0.7,0.8-1.3,1.1l1.7,1.6c0.3-0.5,0.5-1,0.7-1.8h1.9c-0.1,0.5-0.3,1-0.6,1.5
			s-0.5,0.9-0.8,1.3L14.7,104z M8.1,101.5c0,0.3,0.1,0.6,0.4,0.8s0.6,0.3,1,0.3c0.5,0,0.9-0.1,1.3-0.4l-1.9-1.9
			c-0.2,0.2-0.4,0.4-0.5,0.5S8.1,101.3,8.1,101.5z M10.2,97.3c0-0.2-0.1-0.4-0.2-0.5s-0.3-0.2-0.5-0.2c-0.3,0-0.5,0.1-0.6,0.2
			s-0.2,0.3-0.2,0.5c0,0.3,0.2,0.7,0.6,1.1c0.3-0.2,0.6-0.4,0.8-0.6S10.2,97.6,10.2,97.3z"/>
		<path class="st1" d="M26.7,99.7c0,1.4-0.4,2.5-1.1,3.3s-1.7,1.1-3,1.1s-2.3-0.4-3-1.1s-1.1-1.9-1.1-3.3s0.4-2.5,1.1-3.3
			s1.7-1.1,3-1.1s2.3,0.4,3,1.1S26.7,98.3,26.7,99.7z M20.4,99.7c0,1,0.2,1.7,0.5,2.2s0.9,0.7,1.6,0.7c1.4,0,2.2-1,2.2-2.9
			c0-1.9-0.7-2.9-2.2-2.9c-0.7,0-1.3,0.2-1.6,0.7S20.4,98.7,20.4,99.7z"/>
		<path class="st1" d="M33,104l-0.2-0.8h-0.1c-0.2,0.3-0.5,0.5-0.8,0.7s-0.8,0.2-1.2,0.2c-0.8,0-1.3-0.2-1.7-0.6s-0.6-1-0.6-1.8
			v-4.3h1.8v3.8c0,0.5,0.1,0.8,0.3,1.1s0.4,0.4,0.8,0.4c0.5,0,0.9-0.2,1.1-0.5s0.3-0.9,0.3-1.7v-3.1h1.8v6.6H33z"/>
		<path class="st1" d="M39,102.7c0.3,0,0.7-0.1,1.1-0.2v1.3c-0.4,0.2-1,0.3-1.6,0.3c-0.7,0-1.2-0.2-1.6-0.5s-0.5-0.9-0.5-1.6v-3.2
			h-0.9V98l1-0.6l0.5-1.4h1.1v1.4H40v1.3h-1.8v3.2c0,0.3,0.1,0.4,0.2,0.6S38.7,102.7,39,102.7z"/>
		<path class="st1" d="M43.5,104.1c-0.8,0-1.4-0.3-1.8-0.9s-0.7-1.4-0.7-2.5c0-1.1,0.2-1.9,0.7-2.5s1.1-0.9,1.8-0.9
			c0.8,0,1.5,0.3,1.9,1h0.1c-0.1-0.5-0.1-0.9-0.1-1.3v-2.1h1.8v9.1h-1.4l-0.3-0.8h-0.1C45,103.8,44.3,104.1,43.5,104.1z M44.1,102.7
			c0.5,0,0.8-0.1,1-0.4s0.3-0.7,0.3-1.4v-0.2c0-0.7-0.1-1.2-0.3-1.5s-0.6-0.5-1.1-0.5c-0.4,0-0.7,0.2-0.9,0.5s-0.3,0.8-0.3,1.5
			s0.1,1.1,0.3,1.5S43.7,102.7,44.1,102.7z"/>
		<path class="st1" d="M55,100.7c0,1.1-0.3,1.9-0.8,2.5s-1.3,0.9-2.3,0.9c-0.6,0-1.2-0.1-1.7-0.4s-0.8-0.7-1.1-1.2s-0.4-1.1-0.4-1.8
			c0-1.1,0.3-1.9,0.8-2.5s1.3-0.9,2.4-0.9c0.6,0,1.2,0.1,1.7,0.4s0.8,0.7,1.1,1.2S55,100,55,100.7z M50.4,100.7
			c0,0.6,0.1,1.1,0.3,1.5s0.6,0.5,1,0.5c0.5,0,0.8-0.2,1-0.5s0.3-0.8,0.3-1.5c0-0.6-0.1-1.1-0.3-1.5s-0.6-0.5-1-0.5
			c-0.5,0-0.8,0.2-1,0.5S50.4,100,50.4,100.7z"/>
		<path class="st1" d="M62.4,100.7c0,1.1-0.3,1.9-0.8,2.5s-1.3,0.9-2.3,0.9c-0.6,0-1.2-0.1-1.7-0.4s-0.8-0.7-1.1-1.2
			s-0.4-1.1-0.4-1.8c0-1.1,0.3-1.9,0.8-2.5s1.3-0.9,2.4-0.9c0.6,0,1.2,0.1,1.7,0.4s0.8,0.7,1.1,1.2S62.4,100,62.4,100.7z
			 M57.9,100.7c0,0.6,0.1,1.1,0.3,1.5s0.6,0.5,1,0.5c0.5,0,0.8-0.2,1-0.5s0.3-0.8,0.3-1.5c0-0.6-0.1-1.1-0.3-1.5s-0.6-0.5-1-0.5
			c-0.5,0-0.8,0.2-1,0.5S57.9,100,57.9,100.7z"/>
		<path class="st1" d="M67.5,97.3c0.2,0,0.4,0,0.6,0.1L68,99c-0.1,0-0.3-0.1-0.5-0.1c-0.6,0-1,0.1-1.3,0.4s-0.5,0.7-0.5,1.2v3.3
			h-1.8v-6.6h1.4l0.3,1.1h0.1c0.2-0.4,0.5-0.7,0.8-0.9S67.1,97.3,67.5,97.3z"/>
		<path class="st1" d="M73.9,102c0,0.7-0.2,1.2-0.7,1.5s-1.2,0.5-2.1,0.5c-0.5,0-0.9,0-1.2-0.1s-0.7-0.2-0.9-0.3v-1.5
			c0.3,0.2,0.7,0.3,1.1,0.4s0.8,0.2,1.1,0.2c0.6,0,1-0.2,1-0.6c0-0.1,0-0.3-0.1-0.3s-0.2-0.2-0.4-0.3s-0.5-0.2-0.8-0.4
			c-0.5-0.2-0.9-0.4-1.1-0.6s-0.4-0.4-0.5-0.6s-0.2-0.5-0.2-0.9c0-0.6,0.2-1,0.7-1.4s1.1-0.5,1.9-0.5c0.8,0,1.6,0.2,2.3,0.5
			l-0.5,1.3c-0.3-0.1-0.6-0.3-0.9-0.3s-0.6-0.1-0.9-0.1c-0.5,0-0.8,0.1-0.8,0.4c0,0.2,0.1,0.3,0.3,0.4s0.5,0.3,1.1,0.5
			c0.5,0.2,0.9,0.4,1.1,0.6s0.4,0.4,0.5,0.6S73.9,101.7,73.9,102z"/>
	</g>
</g>
<g>
	<path class="st2" d="M26.5,127.7h-3v-8.3l0-1.4l0-1.5c-0.5,0.5-0.8,0.8-1,1l-1.6,1.3l-1.5-1.8l4.6-3.7h2.5V127.7z"/>
	<path class="st2" d="M39.9,116.6c0,0.9-0.3,1.7-0.8,2.3c-0.5,0.6-1.3,1.1-2.3,1.3v0.1c1.2,0.1,2,0.5,2.6,1c0.6,0.6,0.9,1.3,0.9,2.3
		c0,1.4-0.5,2.4-1.5,3.2s-2.4,1.1-4.3,1.1c-1.5,0-2.9-0.3-4.1-0.8v-2.6c0.6,0.3,1.2,0.5,1.8,0.7s1.3,0.3,2,0.3c1,0,1.7-0.2,2.2-0.5
		c0.5-0.3,0.7-0.9,0.7-1.6c0-0.7-0.3-1.1-0.8-1.4s-1.4-0.4-2.6-0.4h-1.1v-2.3h1.1c1.1,0,1.9-0.1,2.4-0.4c0.5-0.3,0.8-0.8,0.8-1.5
		c0-1.1-0.7-1.6-2-1.6c-0.5,0-0.9,0.1-1.4,0.2c-0.5,0.2-1,0.4-1.6,0.8l-1.4-2.1c1.3-0.9,2.9-1.4,4.7-1.4c1.5,0,2.6,0.3,3.5,0.9
		C39.4,114.7,39.9,115.5,39.9,116.6z"/>
	<path class="st2" d="M42.2,126.3c0-0.5,0.1-1,0.4-1.2s0.7-0.4,1.3-0.4c0.5,0,1,0.1,1.3,0.4c0.3,0.3,0.4,0.7,0.4,1.2
		c0,0.5-0.1,0.9-0.4,1.2c-0.3,0.3-0.7,0.4-1.3,0.4c-0.5,0-1-0.1-1.3-0.4C42.4,127.2,42.2,126.8,42.2,126.3z"/>
	<path class="st2" d="M52.8,118.5c1.4,0,2.5,0.4,3.3,1.2c0.8,0.8,1.2,1.8,1.2,3.2c0,1.6-0.5,2.8-1.5,3.7c-1,0.9-2.4,1.3-4.2,1.3
		c-1.6,0-2.9-0.3-3.8-0.8v-2.6c0.5,0.3,1.1,0.5,1.8,0.7s1.3,0.3,1.9,0.3c1.8,0,2.8-0.8,2.8-2.3c0-1.4-1-2.2-2.9-2.2
		c-0.3,0-0.7,0-1.1,0.1c-0.4,0.1-0.8,0.1-1,0.2l-1.2-0.6l0.5-7.3h7.7v2.6h-5.1l-0.3,2.8l0.3-0.1C51.7,118.6,52.2,118.5,52.8,118.5z"
		/>
	<path class="st2" d="M66.5,127.7h-3v-8.3l0-1.4l0-1.5c-0.5,0.5-0.8,0.8-1,1l-1.6,1.3l-1.5-1.8l4.6-3.7h2.5V127.7z"/>
	<path class="st2" d="M77,117.6c0,1.5-0.3,2.6-0.9,3.4c-0.6,0.8-1.4,1.1-2.5,1.1c-1.1,0-1.9-0.4-2.5-1.2s-0.9-1.9-0.9-3.3
		c0-3,1.1-4.5,3.4-4.5c1.1,0,1.9,0.4,2.5,1.2C76.8,115.1,77,116.2,77,117.6z M72.7,117.7c0,0.8,0.1,1.4,0.2,1.9s0.4,0.6,0.7,0.6
		c0.6,0,0.9-0.8,0.9-2.5c0-1.6-0.3-2.4-0.9-2.4c-0.3,0-0.6,0.2-0.7,0.6S72.7,116.8,72.7,117.7z M83.8,113.4l-7.9,14.3h-2.3l7.9-14.3
		H83.8z M87,123.3c0,1.5-0.3,2.6-0.9,3.4c-0.6,0.8-1.4,1.1-2.5,1.1c-1.1,0-1.9-0.4-2.5-1.2s-0.9-1.9-0.9-3.3c0-3,1.1-4.5,3.4-4.5
		c1.1,0,1.9,0.4,2.5,1.2C86.8,120.8,87,121.9,87,123.3z M82.7,123.4c0,0.8,0.1,1.4,0.2,1.9s0.4,0.6,0.7,0.6c0.6,0,0.9-0.8,0.9-2.5
		c0-1.6-0.3-2.4-0.9-2.4c-0.3,0-0.6,0.2-0.7,0.6S82.7,122.5,82.7,123.4z"/>
</g>
</svg>