<!-- Generator: Adobe Illustrator 19.0.0, SVG Export Plug-In  -->
<svg version="1.1"
	 xmlns="http://www.w3.org/2000/svg" xmlns:xlink="http://www.w3.org/1999/xlink" xmlns:a="http://ns.adobe.com/AdobeSVGViewerExtensions/3.0/"
	 x="0px" y="0px" width="476.7px" height="115px" viewBox="0 0 476.7 115" style="enable-background:new 0 0 476.7 115;"
	 xml:space="preserve">
<style type="text/css">
	.st0{fill:#33CCCC;}
	.st1{fill:none;stroke:#33CCCC;stroke-width:5;stroke-linecap:round;stroke-linejoin:round;stroke-miterlimit:10;}
</style>
<defs>
</defs>
<g>
	<g>
		<path class="st0" d="M117.7,25h6.1c2.6,0,4.5,0.2,5.6,0.9s1.8,1.8,1.8,3.4c0,1.1-0.1,1.9-0.6,2.6c-0.5,0.7-0.9,1.1-1.9,1.2v0.1
			c1,0.3,1.8,0.7,2.4,1.5c0.5,0.7,0.7,1.7,0.7,2.8c0,1.7-0.6,3-1.8,3.9c-1.2,0.9-2.9,1.4-4.9,1.4h-7.3V25z M121.7,32h2.5
			c1.1,0,1.8-0.2,2.3-0.5s0.7-0.9,0.7-1.6c0-0.7-0.3-1.1-0.8-1.4c-0.5-0.3-1.3-0.4-2.4-0.4h-2.3V32z M121.7,35v5h2.8
			c1.1,0,1.9-0.3,2.4-0.7c0.5-0.4,0.8-1.1,0.8-1.9c0-1.5-1.1-2.3-3.3-2.3H121.7z"/>
		<path class="st0" d="M141.4,43.2c-2.3,0-4-0.6-5.3-1.9c-1.3-1.2-1.9-3-1.9-5.3c0-2.3,0.6-4.2,1.8-5.4s2.8-1.9,4.9-1.9
			c2,0,3.3,0.6,4.4,1.7s1.5,2.7,1.5,4.7V37H138c0,1,0.4,1.9,1,2.5c0.6,0.6,1.4,0.9,2.5,0.9c0.8,0,1.9-0.1,2.6-0.3
			c0.8-0.2,1.6-0.5,2.6-0.8v3c-1,0.3-1.6,0.6-2.4,0.7C143.6,43.1,142.4,43.2,141.4,43.2z M140.8,31.4c-0.8,0-1.4,0.1-1.9,0.6
			c-0.5,0.5-0.7,1-0.8,2h5.4c0-1-0.3-1.5-0.7-2C142.3,31.5,141.6,31.4,140.8,31.4z"/>
		<path class="st0" d="M159.9,38.8c0,1.4-0.5,2.5-1.5,3.3c-1,0.8-2.5,1.1-4.5,1.1c-1,0-1.7-0.1-2.4-0.2s-1.8-0.3-1.8-0.6v-3.2
			c0,0.3,1.3,0.6,2.2,0.8s1.6,0.3,2.3,0.3c1.4,0,2-0.4,2-1.2c0-0.3-0.1-0.5-0.3-0.7c-0.2-0.2-0.5-0.4-1-0.6
			c-0.5-0.2-1.1-0.5-1.8-0.8c-1.1-0.5-1.9-0.9-2.4-1.3c-0.5-0.4-0.9-0.8-1.1-1.3c-0.2-0.5-0.3-1.1-0.3-1.8c0-1.2,0.5-2.2,1.4-2.9
			c1-0.7,2.3-1,4.1-1c1.7,0,3.3,0.4,4.9,1.1l-1.2,2.8c-0.7-0.3-1.4-0.5-2-0.7s-1.2-0.3-1.9-0.3c-1.1,0-1.7,0.3-1.7,0.9
			c0,0.3,0.2,0.6,0.5,0.9c0.4,0.3,1.2,0.6,2.4,1.1c1.1,0.4,1.9,0.9,2.4,1.2s0.9,0.8,1.1,1.3C159.8,37.5,159.9,38.1,159.9,38.8z"/>
		<path class="st0" d="M168.5,40.2c0.7,0,2.2-0.1,2.2-0.4v2.8c0,0.4-1.9,0.6-3.3,0.6c-1.5,0-2.3-0.4-3-1.2c-0.7-0.8-0.7-1.9-0.7-3.5
			V32h-2v-1.8l2-1.3l1-2.9h2v3h4v3h-4v6.6c0,0.5,0.2,0.9,0.5,1.2C167.6,40,168,40.2,168.5,40.2z"/>
		<path class="st0" d="M187.7,43h-4V28h-5v-3h14v3h-5V43z"/>
		<path class="st0" d="M195.4,25.4c0-1.2,0.7-1.9,2.1-1.9c1.4,0,2.1,0.6,2.1,1.9c0,0.6-0.2,1.1-0.5,1.4c-0.3,0.3-0.9,0.5-1.6,0.5
			C196,27.2,195.4,26.6,195.4,25.4z M199.7,43h-4V29h4V43z"/>
		<path class="st0" d="M215.7,43h-4v-8.2c0-1,0-1.8-0.3-2.3c-0.3-0.5-0.8-0.8-1.5-0.8c-1,0-1.9,0.4-2.3,1.1
			c-0.4,0.7-0.8,1.9-0.8,3.5V43h-3V29h2.5l0.5,2h0.2c0.4-1,0.9-1.3,1.6-1.6s1.5-0.5,2.4-0.5c2.1,0,3.5,0.1,4.3,2.1h0.3
			c0.4-1,0.9-1.3,1.7-1.6c0.7-0.4,1.6-0.6,2.5-0.6c1.6,0,2.8,0.4,3.7,1.2c0.8,0.8,1.3,2.1,1.3,3.9V43h-4v-8.2c0-1-0.1-1.8-0.5-2.3
			c-0.3-0.5-0.9-0.8-1.6-0.8c-0.9,0-1.7,0.3-2.2,1c-0.5,0.7-0.8,1.7-0.8,3.2V43z"/>
		<path class="st0" d="M234.8,43.2c-2.3,0-4-0.6-5.3-1.9c-1.3-1.2-1.9-3-1.9-5.3c0-2.3,0.6-4.2,1.8-5.4s2.8-1.9,4.9-1.9
			c2,0,3.6,0.6,4.7,1.7c1.1,1.1,1.7,2.7,1.7,4.7V37h-9.2c0,1,0.4,1.9,1,2.5s1.4,0.9,2.5,0.9c0.8,0,1.6-0.1,2.4-0.3
			c0.8-0.2,1.3-0.5,2.3-0.8v3c-1,0.3-1.4,0.6-2.1,0.7C236.8,43.1,235.9,43.2,234.8,43.2z M234.3,31.4c-0.8,0-1.4,0.1-1.9,0.6
			c-0.5,0.5-0.7,1-0.8,2h5.4c0-1-0.3-1.5-0.7-2C235.7,31.5,235.1,31.4,234.3,31.4z"/>
		<path class="st0" d="M253.4,38.8c0,1.4-0.5,2.5-1.5,3.3c-1,0.8-2.5,1.1-4.5,1.1c-1,0-1.9-0.1-2.7-0.2s-1.1-0.3-2.1-0.6v-3.2
			c1,0.3,1.6,0.6,2.4,0.8s1.7,0.3,2.4,0.3c1.4,0,2.1-0.4,2.1-1.2c0-0.3-0.1-0.5-0.3-0.7c-0.2-0.2-0.5-0.4-0.9-0.6
			c-0.5-0.2-1-0.5-1.8-0.8c-1.1-0.5-1.9-0.9-2.4-1.3c-0.5-0.4-0.9-0.8-1.1-1.3c-0.2-0.5-0.3-1.1-0.3-1.8c0-1.2,0.5-2.2,1.4-2.9
			c1-0.7,2.3-1,4.1-1c1.7,0,3.3,0.4,4.9,1.1l-1.2,2.8c-0.7-0.3-1.4-0.5-2-0.7s-1.2-0.3-1.9-0.3c-1.1,0-1.7,0.3-1.7,0.9
			c0,0.3,0.2,0.6,0.5,0.9c0.4,0.3,1.2,0.6,2.4,1.1c1.1,0.4,1.9,0.9,2.4,1.2s0.9,0.8,1.1,1.3C253.3,37.5,253.4,38.1,253.4,38.8z"/>
		<path class="st0" d="M270.7,43h-4V28h-5v-3h14v3h-5V43z"/>
		<path class="st0" d="M289.7,35.9c0,2.3-0.6,4.1-1.8,5.3c-1.2,1.3-2.9,1.9-5,1.9c-1.3,0-2.5-0.3-3.6-0.9s-1.8-1.4-2.4-2.5
			c-0.6-1.1-0.8-2.4-0.8-3.9c0-2.3,0.6-4.1,1.8-5.3c1.2-1.3,2.9-1.9,5-1.9c1.3,0,2.5,0.3,3.6,0.9c1,0.6,1.8,1.4,2.4,2.5
			C289.4,33.2,289.7,34.5,289.7,35.9z M280,35.9c0,1.4,0.2,2.4,0.7,3.1c0.5,0.7,1.2,1.1,2.2,1.1c1,0,1.7-0.4,2.2-1.1
			c0.4-0.7,0.7-1.8,0.7-3.1c0-1.4-0.2-2.4-0.7-3.1c-0.5-0.7-1.2-1-2.2-1c-1,0-1.8,0.3-2.2,1C280.2,33.5,280,34.5,280,35.9z"/>
		<path class="st0" d="M299.7,43V25h4v15h7v3H299.7z"/>
		<path class="st0" d="M326.7,35.9c0,2.3-0.6,4.1-1.8,5.3s-2.9,1.9-5,1.9c-1.3,0-2.5-0.3-3.6-0.9c-1-0.6-1.8-1.4-2.4-2.5
			c-0.6-1.1-0.8-2.4-0.8-3.9c0-2.3,0.6-4.1,1.8-5.3c1.2-1.3,2.9-1.9,5-1.9c1.3,0,2.5,0.3,3.6,0.9c1,0.6,1.8,1.4,2.4,2.5
			C326.4,33.2,326.7,34.5,326.7,35.9z M317,35.9c0,1.4,0.2,2.4,0.7,3.1c0.5,0.7,1.2,1.1,2.2,1.1c1,0,1.7-0.4,2.2-1.1
			c0.4-0.7,0.7-1.8,0.7-3.1c0-1.4-0.2-2.4-0.7-3.1s-1.2-1-2.2-1c-1,0-1.8,0.3-2.2,1S317,34.5,317,35.9z"/>
		<path class="st0" d="M342.5,35.9c0,2.3-0.6,4.1-1.8,5.3c-1.2,1.3-2.9,1.9-5,1.9c-1.3,0-2.5-0.3-3.6-0.9c-1-0.6-1.8-1.4-2.4-2.5
			c-0.6-1.1-0.8-2.4-0.8-3.9c0-2.3,0.6-4.1,1.8-5.3c1.2-1.3,2.9-1.9,5-1.9c1.3,0,2.5,0.3,3.6,0.9c1,0.6,1.8,1.4,2.4,2.5
			C342.3,33.2,342.5,34.5,342.5,35.9z M332.9,35.9c0,1.4,0.2,2.4,0.7,3.1c0.5,0.7,1.2,1.1,2.2,1.1c1,0,1.7-0.4,2.2-1.1
			c0.4-0.7,0.7-1.8,0.7-3.1c0-1.4-0.2-2.4-0.7-3.1c-0.5-0.7-1.2-1-2.2-1c-1,0-1.8,0.3-2.2,1S332.9,34.5,332.9,35.9z"/>
		<path class="st0" d="M349.4,35l1.7-1.9l3.9-4.1h4.3l-5.6,6.1l5.9,7.9h-4.4l-3.9-5.7l-1.5,1.3V43h-4V23h4v9.2L349.4,35L349.4,35z"
			/>
		<path class="st0" d="M149.7,61.9c0,3-0.8,5.4-2.3,7c-1.5,1.6-3.7,2.4-6.5,2.4c-2.8,0-5-0.8-6.5-2.4s-2.3-4-2.3-7
			c0-3,0.8-5.4,2.3-7c1.5-1.6,3.7-2.4,6.5-2.4c2.8,0,5,0.8,6.4,2.4S149.7,58.9,149.7,61.9z M136.3,61.9c0,2,0.4,3.6,1.2,4.6
			s1.9,1.6,3.5,1.6c3.1,0,4.6-2.1,4.6-6.2c0-4.1-1.5-6.2-4.6-6.2c-1.5,0-2.7,0.5-3.5,1.6C136.7,58.3,136.3,59.8,136.3,61.9z"/>
		<path class="st0" d="M163,71l-0.5-2h-0.2c-0.4,1-1,1.3-1.7,1.6c-0.8,0.4-1.6,0.6-2.6,0.6c-1.6,0-3.1-0.4-3.9-1.3
			c-0.8-0.9-1.4-2.1-1.4-3.8V57h4v8.2c0,1,0.3,1.8,0.6,2.3c0.4,0.5,1,0.8,1.8,0.8c1.1,0,1.6-0.4,2.1-1.1c0.5-0.7,0.5-1.9,0.5-3.5V57
			h4v14H163z"/>
		<path class="st0" d="M176.1,68.3c0.7,0,1.6-0.1,2.6-0.4v2.8c-1,0.4-2.3,0.6-3.7,0.6c-1.5,0-2.6-0.4-3.3-1.2c-0.7-0.8-1-1.9-1-3.5
			V60h-2v-1.7l2-1.3l1-3h2.9v3h3v3h-3v6.7c0,0.5,0,0.9,0.3,1.2C175.3,68.1,175.6,68.3,176.1,68.3z"/>
		<path class="st0" d="M191.7,71h-4V53h11v3h-7v5h6v3h-6V71z"/>
		<path class="st0" d="M214.5,64c0,2.3-0.6,4.1-1.8,5.3s-2.9,1.9-5,1.9c-1.3,0-2.5-0.3-3.6-0.9s-1.8-1.4-2.4-2.5
			c-0.6-1.1-0.8-2.4-0.8-3.9c0-2.3,0.6-4.1,1.8-5.3c1.2-1.3,2.9-1.9,5-1.9c1.3,0,2.5,0.3,3.6,0.9c1,0.6,1.8,1.4,2.4,2.5
			C214.3,61.3,214.5,62.6,214.5,64z M204.9,64c0,1.4,0.2,2.4,0.7,3.1c0.5,0.7,1.2,1.1,2.2,1.1c1,0,1.7-0.4,2.2-1.1
			c0.4-0.7,0.7-1.8,0.7-3.1c0-1.4-0.2-2.4-0.7-3.1s-1.2-1-2.2-1c-1,0-1.8,0.3-2.2,1C205.1,61.6,204.9,62.7,204.9,64z"/>
		<path class="st0" d="M225.5,56.8c0.5,0,0.9,0,1.3,0.1l-0.3,3.6c-0.3-0.1-0.7-0.1-1.1-0.1c-1.2,0-2.1,0.3-2.7,0.9
			c-0.7,0.6-0.9,1.5-0.9,2.6V71h-4V57h2.9l0.6,2h0.2c0.4,0,1-1.2,1.8-1.7C223.8,56.8,224.6,56.8,225.5,56.8z"/>
		<path class="st0" d="M244,55.7c-1.5,0-2.6,0.5-3.4,1.6s-1.2,2.6-1.2,4.6c0,4.1,1.5,6.1,4.6,6.1c1.3,0,2.7-0.3,4.7-1v3.3
			c-1,0.6-3.2,0.9-5,0.9c-2.7,0-4.7-0.8-6.1-2.4c-1.4-1.6-2.1-3.9-2.1-6.9c0-1.9,0.3-3.6,1-5c0.7-1.4,1.7-2.5,3-3.3s2.8-1.1,4.6-1.1
			c1.8,0,3.6,0.4,5.4,1.3l-1.3,3.2c-0.7-0.3-1.4-0.6-2.1-0.9C245.4,55.9,244.7,55.7,244,55.7z"/>
		<path class="st0" d="M265,64c0,2.3-0.6,4.1-1.8,5.3c-1.2,1.3-2.9,1.9-5,1.9c-1.3,0-2.5-0.3-3.6-0.9c-1-0.6-1.8-1.4-2.4-2.5
			c-0.6-1.1-0.8-2.4-0.8-3.9c0-2.3,0.6-4.1,1.8-5.3c1.2-1.3,2.9-1.9,5-1.9c1.3,0,2.5,0.3,3.6,0.9c1,0.6,1.8,1.4,2.4,2.5
			C264.7,61.3,265,62.6,265,64z M255.3,64c0,1.4,0.2,2.4,0.7,3.1c0.5,0.7,1.2,1.1,2.2,1.1c1,0,1.7-0.4,2.2-1.1
			c0.4-0.7,0.7-1.8,0.7-3.1c0-1.4-0.2-2.4-0.7-3.1c-0.5-0.7-1.2-1-2.2-1c-1,0-1.8,0.3-2.2,1S255.3,62.7,255.3,64z"/>
		<path class="st0" d="M278.1,71l-0.5-2h-0.2c-0.4,1-1,1.3-1.7,1.6c-0.8,0.4-1.6,0.6-2.6,0.6c-1.6,0-3.1-0.4-3.9-1.3
			c-0.8-0.9-1.4-2.1-1.4-3.8V57h4v8.2c0,1,0.3,1.8,0.6,2.3c0.4,0.5,1,0.8,1.8,0.8c1.1,0,1.6-0.4,2.1-1.1c0.5-0.7,0.5-1.9,0.5-3.5V57
			h4v14H278.1z"/>
		<path class="st0" d="M292.7,71.6c-1.6,0-2.9-0.6-3.9-1.6h-0.2c0.1,1,0.1,1.4,0.1,1.5V77h-4V57h3.4l0.5,2h0.2c0.9-1,2.2-2.1,4-2.1
			c1.7,0,2.9,0.6,3.9,1.9c0.9,1.3,1.4,3,1.4,5.3c0,1.5-0.2,2.8-0.7,3.9c-0.4,1.1-1.1,2.1-1.9,2.6C294.7,71.1,293.8,71.6,292.7,71.6z
			 M291.6,59.9c-0.9,0-1.7,0.3-2.1,0.9c-0.4,0.6-0.7,1.5-0.7,2.9V64c0,1.5,0.3,2.6,0.7,3.2c0.4,0.7,1.2,1,2.2,1
			c1.7,0,2.6-1.4,2.6-4.2c0-1.4-0.2-2.4-0.6-3.1C293.1,60.2,292.5,59.9,291.6,59.9z"/>
		<path class="st0" d="M313.9,64c0,2.3-0.6,4.1-1.8,5.3c-1.2,1.3-2.9,1.9-5,1.9c-1.3,0-2.5-0.3-3.6-0.9c-1-0.6-1.8-1.4-2.4-2.5
			c-0.6-1.1-0.8-2.4-0.8-3.9c0-2.3,0.6-4.1,1.8-5.3c1.2-1.3,2.9-1.9,5-1.9c1.3,0,2.5,0.3,3.6,0.9c1,0.6,1.8,1.4,2.4,2.5
			C313.7,61.3,313.9,62.6,313.9,64z M304.3,64c0,1.4,0.2,2.4,0.7,3.1c0.5,0.7,1.2,1.1,2.2,1.1c1,0,1.7-0.4,2.2-1.1
			c0.4-0.7,0.7-1.8,0.7-3.1c0-1.4-0.2-2.4-0.7-3.1c-0.5-0.7-1.2-1-2.2-1c-1,0-1.8,0.3-2.2,1S304.3,62.7,304.3,64z"/>
		<path class="st0" d="M329.7,71h-4v-8.1c0-1,0.1-1.8-0.3-2.3c-0.4-0.5-0.8-0.8-1.6-0.8c-1.1,0-1.9,0.4-2.4,1.1
			c-0.5,0.7-0.8,1.9-0.8,3.5V71h-4V57h3.3l0.5,2h0.2c0.4-1,1-1.3,1.8-1.6c0.7-0.3,1.6-0.6,2.5-0.6c1.6,0,2.7,0.4,3.6,1.3
			c0.8,0.9,1.1,2.1,1.1,3.8V71z"/>
		<path class="st0" d="M343.7,66.9c0,1.4-0.5,2.5-1.5,3.3c-1,0.8-2.5,1.1-4.5,1.1c-1,0-2.1-0.1-2.8-0.2s-1.2-0.3-2.2-0.6v-3.2
			c1,0.3,1.7,0.6,2.6,0.8c0.9,0.2,1.8,0.3,2.4,0.3c1.4,0,2.1-0.4,2.1-1.2c0-0.3-0.1-0.5-0.3-0.7c-0.2-0.2-0.5-0.4-0.9-0.6
			c-0.5-0.2-1-0.5-1.8-0.8c-1.1-0.5-1.9-0.9-2.4-1.3c-0.5-0.4-0.9-0.8-1.1-1.3s-0.3-1.1-0.3-1.8c0-1.2,0.5-2.2,1.4-2.9
			c1-0.7,2.3-1,4.1-1c1.7,0,3.3,0.4,4.9,1.1l-1.2,2.8c-0.7-0.3-1.4-0.5-2-0.7c-0.6-0.2-1.2-0.3-1.9-0.3c-1.1,0-1.7,0.3-1.7,0.9
			c0,0.3,0.2,0.6,0.5,0.9c0.4,0.3,1.2,0.6,2.4,1.1c1.1,0.4,1.9,0.9,2.4,1.2c0.5,0.4,0.9,0.8,1.1,1.3
			C343.6,65.6,343.7,66.2,343.7,66.9z"/>
	</g>
</g>
<rect x="75.2" y="2.5" class="st1" width="324" height="91"/>
<polyline class="st1" points="93.2,93 93.2,112.5 2.5,112.5 31.3,83.6 7.7,48.5 75.7,48.5 "/>
<polyline class="st1" points="383.2,93 383.2,112.5 474.2,112.5 445.4,83.6 469,48.5 400.7,48.5 "/>
</svg>