<!-- Generator: Adobe Illustrator 19.0.0, SVG Export Plug-In  -->
<svg version="1.1"
	 xmlns="http://www.w3.org/2000/svg" xmlns:xlink="http://www.w3.org/1999/xlink" xmlns:a="http://ns.adobe.com/AdobeSVGViewerExtensions/3.0/"
	 x="0px" y="0px" width="67.2px" height="122.2px" viewBox="0 0 67.2 122.2" style="enable-background:new 0 0 67.2 122.2;"
	 xml:space="preserve">
<style type="text/css">
	.st0{fill:#086A87;stroke:#086A87;stroke-width:0.5;stroke-miterlimit:10;}
	.st1{fill:#FF6633;}
	.st2{fill:none;stroke:#086A87;stroke-width:2;stroke-linecap:round;stroke-linejoin:round;stroke-miterlimit:10;}
</style>
<defs>
</defs>
<g id="XMLID_58_">
	<path id="XMLID_101_" class="st0" d="M8.2,79.4c0,1.1-0.2,2-0.7,2.7s-1,1.2-1.8,1.5l2.1,2.1H6.2l-1.7-1.9l-0.3,0
		c-1.3,0-2.2-0.4-2.9-1.2s-1-1.9-1-3.3c0-1.4,0.3-2.5,1-3.2S2.9,75,4.2,75c1.2,0,2.2,0.4,2.9,1.2S8.2,78.1,8.2,79.4z M1.4,79.4
		c0,1.1,0.2,2,0.7,2.6s1.2,0.9,2.1,0.9c0.9,0,1.6-0.3,2.1-0.9S7,80.6,7,79.4c0-1.1-0.2-2-0.7-2.6S5.1,76,4.2,76
		c-0.9,0-1.6,0.3-2.1,0.9S1.4,78.3,1.4,79.4z"/>
	<path id="XMLID_99_" class="st0" d="M10.9,77.3v4.1c0,0.5,0.1,0.9,0.3,1.2s0.6,0.4,1.1,0.4c0.7,0,1.1-0.2,1.4-0.6s0.5-1,0.5-1.8
		v-3.4h1.1v6.4h-0.9l-0.2-0.8h-0.1c-0.2,0.3-0.5,0.5-0.8,0.7s-0.8,0.3-1.2,0.3c-0.8,0-1.4-0.2-1.7-0.6s-0.6-1-0.6-1.8v-4.2H10.9z"/>
	<path id="XMLID_95_" class="st0" d="M21.3,83.7l-0.2-0.9h0c-0.3,0.4-0.6,0.7-1,0.8s-0.7,0.2-1.2,0.2c-0.6,0-1.1-0.2-1.5-0.5
		s-0.5-0.8-0.5-1.4c0-1.3,1-2,3.1-2.1l1.1,0v-0.4c0-0.5-0.1-0.8-0.3-1.1s-0.5-0.3-1-0.3c-0.3,0-0.7,0.1-1,0.2s-0.6,0.2-0.9,0.3
		l-0.3-0.8c0.3-0.2,0.7-0.3,1.1-0.4s0.8-0.1,1.1-0.1c0.8,0,1.4,0.2,1.7,0.5s0.6,0.9,0.6,1.6v4.4H21.3z M20.3,76.5h-0.7
		c-0.3-0.2-0.6-0.5-1-0.9s-0.6-0.7-0.7-0.9v-0.1h1.3c0.1,0.3,0.3,0.6,0.5,0.9s0.4,0.6,0.6,0.9V76.5z M19.1,83c0.6,0,1.1-0.2,1.4-0.5
		s0.5-0.8,0.5-1.4v-0.6l-0.9,0c-0.7,0-1.3,0.1-1.6,0.4S18,81.5,18,82c0,0.3,0.1,0.6,0.3,0.8S18.8,83,19.1,83z"/>
	<path id="XMLID_93_" class="st0" d="M29.3,83c0.1,0,0.3,0,0.5,0s0.3-0.1,0.4-0.1v0.8c-0.1,0-0.2,0.1-0.5,0.1s-0.4,0.1-0.6,0.1
		c-1.3,0-1.9-0.7-1.9-2v-3.7h-0.9v-0.5l0.9-0.4l0.4-1.4h0.6v1.5h1.9v0.8h-1.9v3.7c0,0.4,0.1,0.7,0.3,0.9S29,83,29.3,83z"/>
	<path id="XMLID_88_" class="st0" d="M35.5,83.7l-0.2-0.9h0c-0.3,0.4-0.6,0.7-1,0.8s-0.7,0.2-1.2,0.2c-0.6,0-1.1-0.2-1.5-0.5
		S31,82.6,31,82c0-1.3,1-2,3.1-2.1l1.1,0v-0.4c0-0.5-0.1-0.8-0.3-1.1s-0.5-0.3-1-0.3c-0.3,0-0.7,0.1-1,0.2s-0.6,0.2-0.9,0.3
		l-0.3-0.8c0.3-0.2,0.7-0.3,1.1-0.4s0.8-0.1,1.1-0.1c0.8,0,1.4,0.2,1.7,0.5s0.6,0.9,0.6,1.6v4.4H35.5z M33.8,76.5
		c-0.6,0-1-0.1-1.3-0.4S32,75.4,32,74.9h0.6c0,0.3,0.1,0.5,0.3,0.6s0.5,0.2,0.9,0.2c0.4,0,0.7-0.1,0.9-0.2s0.3-0.3,0.3-0.6h0.7
		c-0.1,0.5-0.2,0.9-0.6,1.2S34.3,76.5,33.8,76.5z M33.3,83c0.6,0,1.1-0.2,1.4-0.5s0.5-0.8,0.5-1.4v-0.6l-0.9,0
		c-0.7,0-1.3,0.1-1.6,0.4s-0.5,0.5-0.5,1c0,0.3,0.1,0.6,0.3,0.8S32.9,83,33.3,83z M33,85.2c0-0.2,0.1-0.4,0.2-0.5s0.3-0.2,0.4-0.2
		c0.2,0,0.3,0.1,0.4,0.2s0.2,0.3,0.2,0.5c0,0.2-0.1,0.4-0.2,0.5s-0.3,0.2-0.4,0.2c-0.2,0-0.3-0.1-0.5-0.2S33,85.4,33,85.2z"/>
	<path id="XMLID_86_" class="st0" d="M42.6,83.7v-4.1c0-0.5-0.1-0.9-0.3-1.2s-0.6-0.4-1.1-0.4c-0.7,0-1.1,0.2-1.4,0.5
		s-0.4,1-0.4,1.8v3.3h-1.1v-6.4h0.8l0.2,0.9h0.1c0.2-0.3,0.5-0.6,0.8-0.7s0.8-0.3,1.2-0.3c0.8,0,1.4,0.2,1.8,0.6s0.6,1,0.6,1.8v4.2
		H42.6z"/>
	<path id="XMLID_83_" class="st0" d="M49.9,83.7l0-0.8h0c-0.4,0.6-1.1,1-2,1c-0.8,0-1.5-0.3-1.9-0.9s-0.7-1.4-0.7-2.5
		c0-1,0.2-1.9,0.7-2.4s1.1-0.9,1.9-0.9c0.9,0,1.5,0.3,2,1H50l0.1-0.9H51v6.5c0,0.9-0.2,1.6-0.7,2.1s-1.2,0.7-2.2,0.7
		c-0.9,0-1.7-0.1-2.3-0.4v-1c0.6,0.3,1.4,0.5,2.4,0.5c0.5,0,1-0.2,1.3-0.5s0.5-0.8,0.5-1.3V83.7z M48.1,83c0.6,0,1.1-0.2,1.4-0.5
		s0.4-0.9,0.4-1.7v-0.3c0-0.9-0.1-1.5-0.4-1.9s-0.8-0.6-1.4-0.6c-0.5,0-1,0.2-1.3,0.6s-0.4,1-0.4,1.8c0,0.8,0.1,1.4,0.4,1.8
		S47.5,83,48.1,83z"/>
	<path id="XMLID_81_" class="st0" d="M57.6,83.7l-2.4-6.4h1.1l1.4,3.8c0.3,0.8,0.4,1.3,0.5,1.7h0c0-0.1,0-0.1,0-0.2s0-0.1,0.1-0.2
		s0.2-0.5,0.4-1.3l1.4-3.8h1.1l-2.4,6.4H57.6z"/>
	<path id="XMLID_77_" class="st0" d="M66.2,83.7L66,82.8h0c-0.3,0.4-0.6,0.7-1,0.8s-0.7,0.2-1.2,0.2c-0.6,0-1.1-0.2-1.5-0.5
		s-0.5-0.8-0.5-1.4c0-1.3,1-2,3.1-2.1l1.1,0v-0.4c0-0.5-0.1-0.8-0.3-1.1s-0.5-0.3-1-0.3c-0.3,0-0.7,0.1-1,0.2s-0.6,0.2-0.9,0.3
		l-0.3-0.8c0.3-0.2,0.7-0.3,1.1-0.4s0.8-0.1,1.1-0.1c0.8,0,1.4,0.2,1.7,0.5s0.6,0.9,0.6,1.6v4.4H66.2z M65.3,76.5h-0.7
		c-0.3-0.2-0.6-0.5-1-0.9s-0.6-0.7-0.7-0.9v-0.1h1.3c0.1,0.3,0.3,0.6,0.5,0.9s0.4,0.6,0.6,0.9V76.5z M64,83c0.6,0,1.1-0.2,1.4-0.5
		s0.5-0.8,0.5-1.4v-0.6l-0.9,0c-0.7,0-1.3,0.1-1.6,0.4s-0.5,0.5-0.5,1c0,0.3,0.1,0.6,0.3,0.8S63.7,83,64,83z"/>
	<path id="XMLID_75_" class="st0" d="M4.4,93.6h3v4.2C6.9,98,6.4,98.1,6,98.1s-1,0.1-1.6,0.1c-1.3,0-2.3-0.4-3-1.2s-1.1-1.9-1.1-3.2
		c0-0.9,0.2-1.7,0.5-2.3s0.9-1.2,1.5-1.5s1.5-0.5,2.4-0.5c0.9,0,1.8,0.2,2.6,0.5l-0.4,0.9c-0.8-0.3-1.5-0.5-2.2-0.5
		c-1,0-1.8,0.3-2.4,0.9s-0.9,1.5-0.9,2.5c0,1.1,0.3,2,0.8,2.6s1.4,0.9,2.4,0.9c0.6,0,1.1-0.1,1.7-0.2v-2.5H4.4V93.6z"/>
	<path id="XMLID_72_" class="st0" d="M13.2,98.1L13,97.2h0c-0.3,0.4-0.6,0.7-1,0.8s-0.7,0.2-1.2,0.2c-0.6,0-1.1-0.2-1.5-0.5
		S8.8,97,8.8,96.4c0-1.3,1-2,3.1-2.1l1.1,0v-0.4c0-0.5-0.1-0.8-0.3-1.1s-0.5-0.3-1-0.3c-0.3,0-0.7,0.1-1,0.2s-0.6,0.2-0.9,0.3
		l-0.3-0.8c0.3-0.2,0.7-0.3,1.1-0.4s0.8-0.1,1.1-0.1c0.8,0,1.4,0.2,1.7,0.5S14,93,14,93.8v4.4H13.2z M11.1,97.4
		c0.6,0,1.1-0.2,1.4-0.5s0.5-0.8,0.5-1.4V95L12,95c-0.7,0-1.3,0.1-1.6,0.4s-0.5,0.5-0.5,1c0,0.3,0.1,0.6,0.3,0.8
		S10.7,97.4,11.1,97.4z"/>
	<path id="XMLID_69_" class="st0" d="M18.3,98.3c-0.8,0-1.5-0.3-1.9-0.9s-0.7-1.4-0.7-2.5c0-1.1,0.2-1.9,0.7-2.5s1.1-0.9,2-0.9
		c0.9,0,1.5,0.3,2,0.9h0.1c0-0.1,0-0.2,0-0.5s0-0.4,0-0.5V89h1.1v9.1h-0.8l-0.2-0.9h0C19.8,97.9,19.2,98.3,18.3,98.3z M18.5,97.4
		c0.6,0,1.1-0.2,1.4-0.5s0.4-0.9,0.4-1.7v-0.2c0-0.9-0.1-1.5-0.4-1.9s-0.8-0.6-1.4-0.6c-0.5,0-1,0.2-1.3,0.6s-0.4,1-0.4,1.8
		c0,0.8,0.1,1.4,0.4,1.8S17.9,97.4,18.5,97.4z"/>
	<path id="XMLID_66_" class="st0" d="M27.7,98.1l0-0.8h0c-0.4,0.6-1.1,1-2,1c-0.8,0-1.5-0.3-1.9-0.9S23,96,23,94.9
		c0-1,0.2-1.9,0.7-2.4s1.1-0.9,1.9-0.9c0.9,0,1.5,0.3,2,1h0.1l0.1-0.9h0.8v6.5c0,0.9-0.2,1.6-0.7,2.1s-1.2,0.7-2.2,0.7
		c-0.9,0-1.7-0.1-2.3-0.4v-1c0.6,0.3,1.4,0.5,2.4,0.5c0.5,0,1-0.2,1.3-0.5s0.5-0.8,0.5-1.3V98.1z M25.8,97.4c0.6,0,1.1-0.2,1.4-0.5
		s0.4-0.9,0.4-1.7v-0.3c0-0.9-0.1-1.5-0.4-1.9s-0.8-0.6-1.4-0.6c-0.5,0-1,0.2-1.3,0.6s-0.4,1-0.4,1.8c0,0.8,0.1,1.4,0.4,1.8
		S25.3,97.4,25.8,97.4z"/>
	<path id="XMLID_63_" class="st0" d="M33.5,98.3c-1,0-1.7-0.3-2.3-0.9S30.4,96,30.4,95c0-1,0.3-1.9,0.8-2.5s1.2-0.9,2.1-0.9
		c0.8,0,1.5,0.3,1.9,0.8s0.7,1.2,0.7,2.1v0.6h-4.4c0,0.7,0.2,1.3,0.6,1.7s0.8,0.6,1.5,0.6c0.3,0,0.7,0,1-0.1s0.7-0.2,1.1-0.4v0.9
		c-0.4,0.2-0.7,0.3-1,0.3S33.9,98.3,33.5,98.3z M33.2,92.4c-0.5,0-0.9,0.2-1.2,0.5s-0.5,0.8-0.5,1.4h3.3c0-0.6-0.1-1.1-0.4-1.4
		S33.7,92.4,33.2,92.4z"/>
	<path id="XMLID_61_" class="st0" d="M39.7,97.4c0.1,0,0.3,0,0.5,0s0.3-0.1,0.4-0.1v0.8c-0.1,0-0.2,0.1-0.5,0.1s-0.4,0.1-0.6,0.1
		c-1.3,0-1.9-0.7-1.9-2v-3.7h-0.9V92l0.9-0.4l0.4-1.4h0.6v1.5h1.9v0.8h-1.9v3.7c0,0.4,0.1,0.7,0.3,0.9S39.4,97.4,39.7,97.4z"/>
	<path id="XMLID_59_" class="st0" d="M46.1,96.4c0,0.6-0.2,1.1-0.7,1.4s-1.1,0.5-1.9,0.5c-0.8,0-1.5-0.1-2-0.4v-1
		c0.7,0.3,1.4,0.5,2,0.5c0.5,0,0.9-0.1,1.2-0.3s0.4-0.4,0.4-0.7c0-0.3-0.1-0.5-0.3-0.6s-0.6-0.4-1.2-0.6c-0.6-0.2-1-0.4-1.3-0.6
		s-0.4-0.4-0.5-0.6s-0.2-0.5-0.2-0.8c0-0.5,0.2-0.9,0.6-1.2s1-0.5,1.8-0.5c0.7,0,1.4,0.1,2.1,0.4l-0.4,0.8c-0.7-0.3-1.2-0.4-1.8-0.4
		c-0.4,0-0.8,0.1-1,0.2s-0.3,0.3-0.3,0.6c0,0.2,0.1,0.4,0.3,0.6s0.7,0.4,1.4,0.6c0.5,0.2,0.9,0.4,1.2,0.6s0.4,0.4,0.6,0.6
		S46.1,96.1,46.1,96.4z"/>
</g>
<g id="XMLID_21_">
	<g id="XMLID_23_">
		<path id="XMLID_38_" class="st1" d="M19.5,119h-1v3h-3v-3h-6v-2.2l5.8-8.8h3.2v9h1V119z M15.5,117v-2.8c0-0.4-0.2-1-0.1-1.8
			c0-0.8-0.1-1.4-0.1-1.4h-0.1c-0.2,1-0.5,1.3-0.9,1.8l-2.6,4.2H15.5z"/>
		<path id="XMLID_36_" class="st1" d="M21.3,120.5c0-0.5,0.1-1,0.4-1.2s0.7-0.4,1.3-0.4c0.5,0,1,0.1,1.3,0.4
			c0.3,0.3,0.4,0.7,0.4,1.2c0,0.5-0.1,0.9-0.4,1.2c-0.3,0.3-0.7,0.4-1.3,0.4c-0.5,0-1-0.1-1.3-0.4C21.5,121.4,21.3,121,21.3,120.5z"
			/>
		<path id="XMLID_33_" class="st1" d="M36.6,113.7c0,2.8-0.6,4.9-1.8,6.3c-1.2,1.4-3,2.1-5.4,2.1c-0.8,0-1.9,0-1.9-0.1v-2.4
			c1,0.1,1.1,0.2,1.7,0.2c1,0,1.8-0.1,2.5-0.4c0.7-0.3,1.1-0.9,1.5-1.5c0.3-0.6,0.5-1.8,0.6-2.8h-0.1c-0.4,1-0.8,1.2-1.3,1.4
			c-0.5,0.2-1.1,0.4-1.9,0.4c-1.2,0-2.2-0.4-2.9-1.2c-0.7-0.8-1.1-1.9-1.1-3.3c0-1.5,0.4-2.7,1.3-3.6s2.1-1.3,3.5-1.3
			c1.1,0,2,0.2,2.8,0.7s1.4,1.2,1.8,2.2C36.4,111.3,36.6,112.4,36.6,113.7z M31.5,109.9c-0.6,0-1.1,0.2-1.5,0.6s-0.5,1-0.5,1.9
			c0,0.7,0.2,1.2,0.5,1.6c0.3,0.4,0.8,0.6,1.5,0.6c0.6,0,1.1-0.2,1.6-0.6c0.4-0.4,0.7-0.9,0.7-1.4c0-0.8-0.2-1.4-0.6-2
			C32.6,110.2,32.1,109.9,31.5,109.9z"/>
		<path id="XMLID_30_" class="st1" d="M48.5,119h-2v3h-3v-3h-6v-2.2l6.4-8.8h2.6v9h2V119z M43.5,117v-2.8c0-0.4,0.1-1,0.2-1.8
			c0-0.8,0.2-1.4,0.2-1.4h-0.1c-0.2,1-0.5,1.3-0.9,1.8l-2.6,4.2H43.5z"/>
		<path id="XMLID_24_" class="st1" d="M56.2,111.9c0,1.5-0.3,2.6-0.9,3.4c-0.6,0.8-1.4,1.1-2.5,1.1c-1.1,0-1.9-0.4-2.5-1.2
			s-0.9-1.9-0.9-3.3c0-3,1.1-4.5,3.4-4.5c1.1,0,1.9,0.4,2.5,1.2C55.9,109.4,56.2,110.5,56.2,111.9z M51.8,111.9
			c0,0.8,0.1,1.4,0.2,1.9s0.4,0.6,0.7,0.6c0.6,0,0.9-0.8,0.9-2.5c0-1.6-0.3-2.4-0.9-2.4c-0.3,0-0.6,0.2-0.7,0.6
			S51.8,111.1,51.8,111.9z M62.9,108L55,122h-2.3l7.9-14H62.9z M66.2,117.6c0,1.5-0.3,2.6-0.9,3.4c-0.6,0.8-1.4,1.1-2.5,1.1
			c-1.1,0-1.9-0.4-2.5-1.2s-0.9-1.9-0.9-3.3c0-3,1.1-4.5,3.4-4.5c1.1,0,1.9,0.4,2.5,1.2C65.9,115.1,66.2,116.2,66.2,117.6z
			 M61.8,117.6c0,0.8,0.1,1.4,0.2,1.9s0.4,0.6,0.7,0.6c0.6,0,0.9-0.8,0.9-2.5c0-1.6-0.3-2.4-0.9-2.4c-0.3,0-0.6,0.2-0.7,0.6
			S61.8,116.8,61.8,117.6z"/>
	</g>
</g>
<g id="XMLID_15_">
	<rect id="XMLID_20_" x="7.5" y="22" class="st2" width="45" height="36"/>
	<rect id="XMLID_19_" x="3.5" y="13" class="st2" width="54" height="9"/>
	<rect id="XMLID_18_" x="25.5" y="13" class="st2" width="9" height="45"/>
	<path id="XMLID_17_" class="st2" d="M11.8,10c0-5,4-9,9-9s9,4,9,9"/>
	<path id="XMLID_16_" class="st2" d="M29.8,10c0-5,4-9,9-9s9,4,9,9"/>
</g>
</svg>