<!-- Generator: Adobe Illustrator 19.0.0, SVG Export Plug-In  -->
<svg version="1.1"
	 xmlns="http://www.w3.org/2000/svg" xmlns:xlink="http://www.w3.org/1999/xlink" xmlns:a="http://ns.adobe.com/AdobeSVGViewerExtensions/3.0/"
	 x="0px" y="0px" width="281px" height="67.8px" viewBox="0 0 281 67.8" style="enable-background:new 0 0 281 67.8;"
	 xml:space="preserve">
<style type="text/css">
	.st0{fill:none;stroke:#FFFFFF;stroke-width:2;stroke-linecap:round;stroke-linejoin:round;stroke-miterlimit:10;}
	.st1{fill:none;stroke:#FF6633;stroke-width:2;stroke-miterlimit:10;}
	.st2{fill:none;stroke:#FFFFFF;stroke-width:2.2793;stroke-linecap:round;stroke-linejoin:round;stroke-miterlimit:10;}
	.st3{fill:#FF6633;}
	.st4{fill:#FFFFFF;}
	.st5{fill:#FFFFFF;stroke:#FFFFFF;stroke-width:0.6;stroke-miterlimit:10;}
</style>
<defs>
</defs>
<g id="XMLID_234_">
	<rect id="XMLID_239_" x="238" y="27.8" class="st0" width="39" height="39"/>
	<rect id="XMLID_238_" x="233" y="19.8" class="st0" width="47" height="8"/>
	<rect id="XMLID_237_" x="253" y="19.8" class="st1" width="8" height="47"/>
	<path id="XMLID_236_" class="st2" d="M255.7,17c0,0-12.9,0.5-16.4-1.9c-3.5-2.4-4.4-7.2-2-10.7c2.4-3.5,7.2-4.4,10.7-2
		C251.5,4.9,255.7,17,255.7,17z"/>
	<path id="XMLID_235_" class="st2" d="M256.6,17c0,0,12.9,0.5,16.4-1.9c3.5-2.4,4.4-7.2,2-10.7c-2.4-3.5-7.2-4.4-10.7-2
		C260.8,4.9,256.6,17,256.6,17z"/>
</g>
<circle id="XMLID_233_" class="st3" cx="8.4" cy="16.5" r="8.4"/>
<g id="XMLID_230_">
	<path id="XMLID_231_" class="st4" d="M11,19.8H5V19l2-2.2c0.6-0.7,1-1.1,1.2-1.4s0.3-0.5,0.4-0.7s0.1-0.4,0.1-0.7
		c0-0.3-0.1-0.6-0.3-0.8S7.9,13,7.6,13c-0.3,0-0.7,0.1-1,0.2s-0.6,0.4-1,0.7l-1-1.2c0.4-0.4,0.8-0.6,1-0.8s0.6-0.3,0.9-0.3
		s0.7-0.1,1.1-0.1c0.5,0,1,0.1,1.4,0.3s0.7,0.5,1,0.8s0.3,0.8,0.3,1.2c0,0.4-0.1,0.8-0.2,1.1S9.9,15.7,9.6,16s-0.8,0.9-1.5,1.6
		l-1.1,1v0.2h4V19.8z"/>
</g>
<g id="XMLID_15_">
	<g id="XMLID_17_">
		<path id="XMLID_122_" class="st5" d="M33.1,22h-1.4V11.8h-3.6v-1.3h8.6v1.3h-3.5V22z"/>
		<path id="XMLID_120_" class="st5" d="M41.8,13.2c0.4,0,0.7,0,1,0.1l-0.2,1.3c-0.3-0.1-0.6-0.1-0.9-0.1c-0.5,0-0.9,0.1-1.3,0.4
			s-0.7,0.6-0.9,1c-0.2,0.4-0.3,0.9-0.3,1.5V22h-1.4v-8.6H39l0.2,1.6h0.1c0.3-0.6,0.7-1,1.2-1.3C40.8,13.4,41.3,13.2,41.8,13.2z"/>
		<path id="XMLID_117_" class="st5" d="M51.7,17.6c0,1.4-0.4,2.5-1.1,3.3c-0.7,0.8-1.7,1.2-2.9,1.2c-0.8,0-1.5-0.2-2.1-0.5
			c-0.6-0.4-1.1-0.9-1.4-1.6c-0.3-0.7-0.5-1.5-0.5-2.4c0-1.4,0.3-2.5,1-3.3c0.7-0.8,1.7-1.2,2.9-1.2c1.2,0,2.2,0.4,2.9,1.2
			C51.4,15.2,51.7,16.3,51.7,17.6z M45.2,17.6c0,1.1,0.2,1.9,0.6,2.5c0.4,0.6,1.1,0.8,1.9,0.8c0.8,0,1.4-0.3,1.9-0.8
			c0.4-0.6,0.6-1.4,0.6-2.5s-0.2-1.9-0.6-2.4c-0.4-0.5-1.1-0.8-1.9-0.8C46.1,14.4,45.2,15.5,45.2,17.6z"/>
		<path id="XMLID_115_" class="st5" d="M59.8,22v-5.5c0-0.7-0.2-1.2-0.5-1.6c-0.3-0.3-0.8-0.5-1.5-0.5c-0.9,0-1.5,0.2-1.9,0.7
			c-0.4,0.5-0.6,1.3-0.6,2.4V22h-1.4v-8.6h1.1l0.2,1.2h0.1c0.3-0.4,0.6-0.7,1.1-1c0.5-0.2,1-0.3,1.6-0.3c1.1,0,1.8,0.3,2.3,0.8
			c0.5,0.5,0.8,1.3,0.8,2.4V22H59.8z"/>
		<path id="XMLID_112_" class="st5" d="M69.6,21.9l0-1.1h-0.1c-0.6,0.9-1.5,1.3-2.7,1.3c-1.1,0-2-0.4-2.6-1.2s-0.9-1.9-0.9-3.3
			c0-1.4,0.3-2.5,0.9-3.3s1.5-1.2,2.6-1.2c1.2,0,2.1,0.4,2.7,1.3h0.1l0.2-1.1h1.1v8.7c0,1.2-0.3,2.2-0.9,2.8
			c-0.6,0.6-1.6,0.9-2.9,0.9c-1.3,0-2.3-0.2-3.1-0.5V24c0.8,0.4,1.9,0.7,3.2,0.7c0.7,0,1.3-0.2,1.7-0.6c0.4-0.4,0.6-1,0.6-1.8V21.9z
			 M67.1,21c0.9,0,1.5-0.2,1.9-0.7c0.4-0.5,0.6-1.2,0.6-2.2v-0.3c0-1.1-0.2-2-0.6-2.5c-0.4-0.5-1-0.8-1.9-0.8
			c-0.7,0-1.3,0.3-1.7,0.9s-0.6,1.4-0.6,2.4c0,1.1,0.2,1.9,0.6,2.4C65.8,20.7,66.3,21,67.1,21z"/>
		<path id="XMLID_110_" class="st5" d="M83.4,19.6c0,0.8-0.3,1.4-0.9,1.9c-0.6,0.4-1.4,0.7-2.5,0.7c-1.1,0-2-0.2-2.7-0.5v-1.3
			c0.9,0.5,1.9,0.7,2.7,0.7c0.7,0,1.2-0.1,1.5-0.3c0.3-0.2,0.5-0.5,0.5-0.9c0-0.3-0.2-0.6-0.5-0.9s-0.9-0.5-1.7-0.8
			c-0.8-0.3-1.4-0.6-1.7-0.8c-0.3-0.2-0.6-0.5-0.7-0.7c-0.2-0.3-0.2-0.6-0.2-1c0-0.7,0.3-1.3,0.9-1.7s1.4-0.6,2.4-0.6
			c1,0,1.9,0.2,2.7,0.6l-0.5,1.1c-0.9-0.4-1.7-0.5-2.4-0.5c-0.6,0-1,0.1-1.3,0.3c-0.3,0.2-0.5,0.4-0.5,0.8c0,0.3,0.1,0.6,0.4,0.8
			c0.3,0.2,0.9,0.5,1.8,0.9c0.7,0.3,1.2,0.5,1.6,0.7c0.3,0.2,0.6,0.5,0.8,0.8C83.3,18.8,83.4,19.2,83.4,19.6z"/>
		<path id="XMLID_108_" class="st5" d="M86.8,13.4v5.5c0,0.7,0.2,1.2,0.5,1.5s0.8,0.5,1.4,0.5c0.9,0,1.5-0.2,1.9-0.7
			c0.4-0.5,0.6-1.3,0.6-2.4v-4.5h1.4V22h-1.2l-0.2-1.1h-0.1c-0.3,0.4-0.6,0.7-1.1,1s-1,0.3-1.6,0.3c-1,0-1.8-0.2-2.3-0.7
			c-0.5-0.5-0.8-1.3-0.8-2.4v-5.6H86.8z"/>
		<path id="XMLID_103_" class="st5" d="M102.8,17.6c0,1.4-0.4,2.5-1.1,3.3c-0.7,0.8-1.7,1.2-2.9,1.2c-0.8,0-1.5-0.2-2.1-0.5
			c-0.6-0.4-1.1-0.9-1.4-1.6c-0.3-0.7-0.5-1.5-0.5-2.4c0-1.4,0.3-2.5,1-3.3c0.7-0.8,1.7-1.2,2.9-1.2c1.2,0,2.2,0.4,2.9,1.2
			C102.5,15.2,102.8,16.3,102.8,17.6z M96.4,17.6c0,1.1,0.2,1.9,0.6,2.5c0.4,0.6,1.1,0.8,1.9,0.8c0.8,0,1.4-0.3,1.9-0.8
			c0.4-0.6,0.6-1.4,0.6-2.5s-0.2-1.9-0.6-2.4c-0.4-0.5-1.1-0.8-1.9-0.8C97.2,14.4,96.4,15.5,96.4,17.6z M101.3,12.3h-0.8
			c-0.6-0.4-1.1-0.8-1.6-1.3c-0.6,0.5-1.1,1-1.6,1.3h-0.8v-0.2c0.3-0.3,0.6-0.6,0.9-1s0.6-0.7,0.8-1.1h1.5c0.4,0.5,0.9,1.2,1.7,2
			V12.3z M100.6,10.5c0.4-0.5,0.7-1,1-1.6h1.4v0.2c-0.4,0.6-1,1.1-1.6,1.6h-0.8V10.5z"/>
		<path id="XMLID_101_" class="st5" d="M107.9,21c0.2,0,0.4,0,0.6-0.1c0.2,0,0.4-0.1,0.6-0.1v1.1c-0.1,0.1-0.3,0.1-0.6,0.2
			s-0.6,0.1-0.8,0.1c-1.7,0-2.5-0.9-2.5-2.6v-5H104v-0.7l1.2-0.6l0.6-1.8h0.8v2h2.5v1.1h-2.5v5c0,0.5,0.1,0.9,0.4,1.1
			S107.5,21,107.9,21z"/>
		<path id="XMLID_99_" class="st5" d="M116.4,17.5l0.5-0.6l0.5-0.7l2.7-2.9h1.6l-3.5,3.7L122,22h-1.7l-3-4l-1,0.9V22H115V9.8h1.4
			v6.4V17.5L116.4,17.5z"/>
		<path id="XMLID_96_" class="st5" d="M122.2,13.4h1.5l1.9,4.9c0.4,1.1,0.6,1.8,0.7,2.3h0.1c0-0.2,0.2-0.6,0.3-1.1
			c0.2-0.5,0.3-1,0.4-1.3l1.7-4.9h1.5l-3.7,9.8c-0.4,0.9-0.8,1.6-1.3,2c-0.5,0.4-1.1,0.6-1.8,0.6c-0.4,0-0.8,0-1.2-0.1v-1.1
			c0.3,0.1,0.6,0.1,0.9,0.1c0.4,0,0.8-0.1,1.1-0.4c0.3-0.2,0.6-0.6,0.8-1.1l0.4-1.1L122.2,13.4z M127.2,12.3h-0.9
			c-0.4-0.3-0.8-0.7-1.3-1.2c-0.5-0.5-0.8-0.9-1-1.2V9.7h1.7c0.2,0.3,0.4,0.8,0.7,1.2s0.6,0.9,0.8,1.1V12.3z"/>
		<path id="XMLID_93_" class="st5" d="M138.9,22.1c-1.1,0-2-0.4-2.6-1.2s-0.9-1.9-0.9-3.3c0-1.4,0.3-2.5,0.9-3.3s1.5-1.2,2.6-1.2
			c1.2,0,2.1,0.4,2.7,1.3h0.1l0.2-1.2h1.1v12.4h-1.4v-3.7c0-0.6,0-1,0.1-1.3h-0.1C140.9,21.7,140,22.1,138.9,22.1z M139.1,20.9
			c0.8,0,1.5-0.2,1.8-0.7c0.4-0.5,0.6-1.2,0.6-2.3v-0.3c0-1.2-0.2-2-0.6-2.5c-0.4-0.5-1-0.8-1.9-0.8c-0.7,0-1.3,0.3-1.7,0.9
			s-0.6,1.4-0.6,2.5c0,1,0.2,1.8,0.6,2.4S138.4,20.9,139.1,20.9z"/>
		<path id="XMLID_91_" class="st5" d="M147,13.4v5.5c0,0.7,0.2,1.2,0.5,1.5s0.8,0.5,1.4,0.5c0.9,0,1.5-0.2,1.9-0.7
			c0.4-0.5,0.6-1.3,0.6-2.4v-4.5h1.4V22h-1.2l-0.2-1.1h-0.1c-0.3,0.4-0.6,0.7-1.1,1s-1,0.3-1.6,0.3c-1,0-1.8-0.2-2.3-0.7
			c-0.5-0.5-0.8-1.3-0.8-2.4v-5.6H147z"/>
		<path id="XMLID_87_" class="st5" d="M160.9,22l-0.3-1.2h-0.1c-0.4,0.5-0.9,0.9-1.3,1.1s-1,0.3-1.6,0.3c-0.8,0-1.5-0.2-2-0.7
			c-0.5-0.4-0.7-1.1-0.7-1.9c0-1.7,1.4-2.7,4.1-2.7l1.5-0.1v-0.5c0-0.7-0.1-1.1-0.4-1.4c-0.3-0.3-0.7-0.5-1.4-0.5
			c-0.5,0-0.9,0.1-1.3,0.2c-0.4,0.1-0.8,0.3-1.1,0.5l-0.4-1.1c0.4-0.2,0.9-0.4,1.4-0.5c0.5-0.1,1-0.2,1.5-0.2c1,0,1.8,0.2,2.3,0.7
			c0.5,0.5,0.8,1.2,0.8,2.2V22H160.9z M158,21c0.8,0,1.4-0.2,1.9-0.6c0.5-0.4,0.7-1,0.7-1.8v-0.8l-1.3,0.1c-1,0-1.7,0.2-2.2,0.5
			c-0.5,0.3-0.7,0.7-0.7,1.3c0,0.4,0.1,0.8,0.4,1C157.1,20.9,157.5,21,158,21z M160.5,10.3c0,0.7-0.4,1.2-1.3,1.4l-0.1,0.9h-0.9
			l-0.1-1.4c0.4-0.1,0.7-0.2,0.9-0.3c0.2-0.1,0.3-0.3,0.3-0.6c0-0.4-0.3-0.6-1-0.6c-0.3,0-0.5,0-0.8,0.1V8.9
			c0.2-0.1,0.5-0.1,0.9-0.1C159.8,8.8,160.5,9.3,160.5,10.3z"/>
		<path id="XMLID_85_" class="st5" d="M170.4,22v-5.5c0-0.7-0.2-1.2-0.5-1.6c-0.3-0.3-0.8-0.5-1.5-0.5c-0.9,0-1.5,0.2-1.9,0.7
			c-0.4,0.5-0.6,1.3-0.6,2.4V22h-1.4v-8.6h1.1l0.2,1.2h0.1c0.3-0.4,0.6-0.7,1.1-1c0.5-0.2,1-0.3,1.6-0.3c1.1,0,1.8,0.3,2.3,0.8
			c0.5,0.5,0.8,1.3,0.8,2.4V22H170.4z"/>
		<path id="XMLID_82_" class="st5" d="M180.2,21.9l0-1.1h-0.1c-0.6,0.9-1.5,1.3-2.7,1.3c-1.1,0-2-0.4-2.6-1.2s-0.9-1.9-0.9-3.3
			c0-1.4,0.3-2.5,0.9-3.3s1.5-1.2,2.6-1.2c1.2,0,2.1,0.4,2.7,1.3h0.1l0.2-1.1h1.1v8.7c0,1.2-0.3,2.2-0.9,2.8
			c-0.6,0.6-1.6,0.9-2.9,0.9c-1.3,0-2.3-0.2-3.1-0.5V24c0.8,0.4,1.9,0.7,3.2,0.7c0.7,0,1.3-0.2,1.7-0.6c0.4-0.4,0.6-1,0.6-1.8V21.9z
			 M177.7,21c0.9,0,1.5-0.2,1.9-0.7c0.4-0.5,0.6-1.2,0.6-2.2v-0.3c0-1.1-0.2-2-0.6-2.5c-0.4-0.5-1-0.8-1.9-0.8
			c-0.7,0-1.3,0.3-1.7,0.9s-0.6,1.4-0.6,2.4c0,1.1,0.2,1.9,0.6,2.4C176.4,20.7,177,21,177.7,21z"/>
		<path id="XMLID_79_" class="st5" d="M192.5,13.2c1.1,0,2,0.4,2.6,1.2c0.6,0.8,0.9,1.9,0.9,3.3c0,1.4-0.3,2.5-0.9,3.3
			s-1.5,1.2-2.6,1.2c-0.6,0-1.1-0.1-1.5-0.3s-0.8-0.5-1.1-0.9h-0.1c-0.2,0.6-0.3,1-0.3,1.1h-1V9.8h1.4v3c0,0.6,0,1.2-0.1,1.8h0.1
			C190.4,13.7,191.3,13.2,192.5,13.2z M192.3,14.4c-0.9,0-1.5,0.2-1.9,0.7c-0.4,0.5-0.6,1.3-0.6,2.5v0.1c0,1.2,0.2,2,0.6,2.5
			c0.4,0.5,1,0.8,1.9,0.8c0.8,0,1.3-0.3,1.7-0.8c0.4-0.6,0.6-1.4,0.6-2.4c0-1.1-0.2-1.9-0.6-2.4C193.6,14.7,193.1,14.4,192.3,14.4z"
			/>
		<path id="XMLID_75_" class="st5" d="M203.6,22l-0.3-1.2h-0.1c-0.4,0.5-0.9,0.9-1.3,1.1s-1,0.3-1.6,0.3c-0.8,0-1.5-0.2-2-0.7
			c-0.5-0.4-0.7-1.1-0.7-1.9c0-1.7,1.4-2.7,4.1-2.7l1.5-0.1v-0.5c0-0.7-0.1-1.1-0.4-1.4c-0.3-0.3-0.7-0.5-1.4-0.5
			c-0.5,0-0.9,0.1-1.3,0.2c-0.4,0.1-0.8,0.3-1.1,0.5l-0.4-1.1c0.4-0.2,0.9-0.4,1.4-0.5c0.5-0.1,1-0.2,1.5-0.2c1,0,1.8,0.2,2.3,0.7
			c0.5,0.5,0.8,1.2,0.8,2.2V22H203.6z M200.7,21c0.8,0,1.4-0.2,1.9-0.6c0.5-0.4,0.7-1,0.7-1.8v-0.8l-1.3,0.1c-1,0-1.7,0.2-2.2,0.5
			c-0.5,0.3-0.7,0.7-0.7,1.3c0,0.4,0.1,0.8,0.4,1C199.8,20.9,200.2,21,200.7,21z M200.3,12.1c0.2-0.3,0.4-0.6,0.8-1.1
			s0.6-0.9,0.8-1.3h1.7v0.2c-0.2,0.3-0.6,0.8-1.1,1.3c-0.5,0.5-0.9,0.9-1.2,1.1h-0.9V12.1z"/>
		<path id="XMLID_73_" class="st5" d="M32.7,39c-1.2,0-2.2-0.4-2.9-1.1s-1-1.8-1-3.3c0-1.4,0.3-2.5,1-3.3c0.7-0.8,1.7-1.2,3-1.2
			c0.4,0,0.8,0,1.2,0.1s0.7,0.2,1,0.3l-0.4,1.2c-0.7-0.3-1.3-0.4-1.9-0.4c-0.9,0-1.5,0.3-1.9,0.8c-0.4,0.5-0.6,1.4-0.6,2.4
			c0,1,0.2,1.8,0.6,2.4c0.4,0.5,1,0.8,1.8,0.8c0.8,0,1.5-0.2,2.2-0.5v1.3C34.3,38.8,33.6,39,32.7,39z"/>
		<path id="XMLID_70_" class="st5" d="M38.3,30.3v5.5c0,0.7,0.2,1.2,0.5,1.5s0.8,0.5,1.4,0.5c0.9,0,1.5-0.2,1.9-0.7
			c0.4-0.5,0.6-1.3,0.6-2.4v-4.5h1.4v8.6H43l-0.2-1.1h-0.1c-0.3,0.4-0.6,0.7-1.1,1S40.6,39,40,39c-1,0-1.8-0.2-2.3-0.7
			c-0.5-0.5-0.8-1.3-0.8-2.4v-5.6H38.3z M42.2,27.2c0,0.7-0.4,1.2-1.3,1.4l-0.1,0.9H40L39.9,28c0.4-0.1,0.7-0.2,0.9-0.3
			c0.2-0.1,0.3-0.3,0.3-0.6c0-0.4-0.3-0.6-1-0.6c-0.3,0-0.5,0-0.8,0.1v-0.8c0.2-0.1,0.5-0.1,0.9-0.1C41.6,25.7,42.2,26.2,42.2,27.2z
			"/>
		<path id="XMLID_67_" class="st5" d="M52.2,38.8l-0.3-1.2h-0.1c-0.4,0.5-0.9,0.9-1.3,1.1s-1,0.3-1.6,0.3c-0.8,0-1.5-0.2-2-0.7
			c-0.5-0.4-0.7-1.1-0.7-1.9c0-1.7,1.4-2.7,4.1-2.7l1.5-0.1v-0.5c0-0.7-0.1-1.1-0.4-1.4c-0.3-0.3-0.7-0.5-1.4-0.5
			c-0.5,0-0.9,0.1-1.3,0.2c-0.4,0.1-0.8,0.3-1.1,0.5l-0.4-1.1c0.4-0.2,0.9-0.4,1.4-0.5c0.5-0.1,1-0.2,1.5-0.2c1,0,1.8,0.2,2.3,0.7
			c0.5,0.5,0.8,1.2,0.8,2.2v5.8H52.2z M49.3,37.9c0.8,0,1.4-0.2,1.9-0.6c0.5-0.4,0.7-1,0.7-1.8v-0.8l-1.3,0.1c-1,0-1.7,0.2-2.2,0.5
			c-0.5,0.3-0.7,0.7-0.7,1.3c0,0.4,0.1,0.8,0.4,1C48.4,37.7,48.8,37.9,49.3,37.9z"/>
		<path id="XMLID_65_" class="st5" d="M65.6,36.5c0,0.8-0.3,1.4-0.9,1.9c-0.6,0.4-1.4,0.7-2.5,0.7c-1.1,0-2-0.2-2.7-0.5v-1.3
			c0.9,0.5,1.9,0.7,2.7,0.7c0.7,0,1.2-0.1,1.5-0.3c0.3-0.2,0.5-0.5,0.5-0.9c0-0.3-0.2-0.6-0.5-0.9s-0.9-0.5-1.7-0.8
			c-0.8-0.3-1.4-0.6-1.7-0.8c-0.3-0.2-0.6-0.5-0.7-0.7c-0.2-0.3-0.2-0.6-0.2-1c0-0.7,0.3-1.3,0.9-1.7s1.4-0.6,2.4-0.6
			c1,0,1.9,0.2,2.7,0.6l-0.5,1.1c-0.9-0.4-1.7-0.5-2.4-0.5c-0.6,0-1,0.1-1.3,0.3c-0.3,0.2-0.5,0.4-0.5,0.8c0,0.3,0.1,0.6,0.4,0.8
			c0.3,0.2,0.9,0.5,1.8,0.9c0.7,0.3,1.2,0.5,1.6,0.7c0.3,0.2,0.6,0.5,0.8,0.8C65.5,35.7,65.6,36.1,65.6,36.5z"/>
		<path id="XMLID_61_" class="st5" d="M73,38.8l-0.3-1.2h-0.1c-0.4,0.5-0.9,0.9-1.3,1.1s-1,0.3-1.6,0.3c-0.8,0-1.5-0.2-2-0.7
			c-0.5-0.4-0.7-1.1-0.7-1.9c0-1.7,1.4-2.7,4.1-2.7l1.5-0.1v-0.5c0-0.7-0.1-1.1-0.4-1.4c-0.3-0.3-0.7-0.5-1.4-0.5
			c-0.5,0-0.9,0.1-1.3,0.2c-0.4,0.1-0.8,0.3-1.1,0.5L68,30.9c0.4-0.2,0.9-0.4,1.4-0.5c0.5-0.1,1-0.2,1.5-0.2c1,0,1.8,0.2,2.3,0.7
			C73.7,31.3,74,32,74,33v5.8H73z M70.1,37.9c0.8,0,1.4-0.2,1.9-0.6c0.5-0.4,0.7-1,0.7-1.8v-0.8l-1.3,0.1c-1,0-1.7,0.2-2.2,0.5
			c-0.5,0.3-0.7,0.7-0.7,1.3c0,0.4,0.1,0.8,0.4,1C69.2,37.7,69.6,37.9,70.1,37.9z M72.5,27.2c0,0.7-0.4,1.2-1.3,1.4l-0.1,0.9h-0.9
			L70.2,28c0.4-0.1,0.7-0.2,0.9-0.3c0.2-0.1,0.3-0.3,0.3-0.6c0-0.4-0.3-0.6-1-0.6c-0.3,0-0.5,0-0.8,0.1v-0.8
			c0.2-0.1,0.5-0.1,0.9-0.1C71.9,25.7,72.5,26.2,72.5,27.2z"/>
		<path id="XMLID_59_" class="st5" d="M82.5,38.8v-5.5c0-0.7-0.2-1.2-0.5-1.6c-0.3-0.3-0.8-0.5-1.5-0.5c-0.9,0-1.5,0.2-1.9,0.7
			c-0.4,0.5-0.6,1.3-0.6,2.4v4.4h-1.4v-8.6h1.1l0.2,1.2h0.1c0.3-0.4,0.6-0.7,1.1-1c0.5-0.2,1-0.3,1.6-0.3c1.1,0,1.8,0.3,2.3,0.8
			c0.5,0.5,0.8,1.3,0.8,2.4v5.6H82.5z"/>
		<path id="XMLID_56_" class="st5" d="M94.7,39c-1.2,0-2-0.4-2.7-1.2H92l0,0.3c0,0.4,0.1,0.8,0.1,1.1v3.5h-1.4V30.3h1.2l0.2,1.2h0.1
			c0.3-0.5,0.7-0.8,1.2-1c0.4-0.2,0.9-0.3,1.5-0.3c1.1,0,2,0.4,2.6,1.2c0.6,0.8,0.9,1.9,0.9,3.3c0,1.4-0.3,2.5-0.9,3.3
			C96.7,38.6,95.9,39,94.7,39z M94.5,31.3c-0.8,0-1.5,0.2-1.8,0.7c-0.4,0.5-0.6,1.2-0.6,2.3v0.3c0,1.2,0.2,2,0.6,2.5
			c0.4,0.5,1,0.8,1.9,0.8c0.7,0,1.3-0.3,1.7-0.9c0.4-0.6,0.6-1.4,0.6-2.4c0-1-0.2-1.8-0.6-2.4C95.8,31.6,95.3,31.3,94.5,31.3z"/>
		<path id="XMLID_54_" class="st5" d="M106.4,38.8v-5.5c0-0.7-0.2-1.2-0.5-1.6c-0.3-0.3-0.8-0.5-1.5-0.5c-0.9,0-1.5,0.2-1.9,0.7
			c-0.4,0.5-0.6,1.3-0.6,2.4v4.4h-1.4V26.7h1.4v3.6c0,0.5,0,0.9-0.1,1.2h0.1c0.3-0.4,0.6-0.7,1.1-1s1-0.4,1.6-0.4
			c1,0,1.8,0.2,2.4,0.7c0.5,0.5,0.8,1.3,0.8,2.4v5.6H106.4z"/>
		<path id="XMLID_49_" class="st5" d="M115.7,38.8l-0.3-1.2h-0.1c-0.4,0.5-0.9,0.9-1.3,1.1s-1,0.3-1.6,0.3c-0.8,0-1.5-0.2-2-0.7
			c-0.5-0.4-0.7-1.1-0.7-1.9c0-1.7,1.4-2.7,4.1-2.7l1.5-0.1v-0.5c0-0.7-0.1-1.1-0.4-1.4c-0.3-0.3-0.7-0.5-1.4-0.5
			c-0.5,0-0.9,0.1-1.3,0.2c-0.4,0.1-0.8,0.3-1.1,0.5l-0.4-1.1c0.4-0.2,0.9-0.4,1.4-0.5c0.5-0.1,1-0.2,1.5-0.2c1,0,1.8,0.2,2.3,0.7
			c0.5,0.5,0.8,1.2,0.8,2.2v5.8H115.7z M116,29.1h-0.8c-0.6-0.4-1.1-0.8-1.6-1.3c-0.6,0.5-1.1,1-1.6,1.3h-0.8v-0.2
			c0.3-0.3,0.6-0.6,0.9-1s0.6-0.7,0.8-1.1h1.5c0.4,0.5,0.9,1.2,1.7,2V29.1z M112.8,37.9c0.8,0,1.4-0.2,1.9-0.6
			c0.5-0.4,0.7-1,0.7-1.8v-0.8l-1.3,0.1c-1,0-1.7,0.2-2.2,0.5c-0.5,0.3-0.7,0.7-0.7,1.3c0,0.4,0.1,0.8,0.4,1
			C111.9,37.7,112.3,37.9,112.8,37.9z M117.3,26c0,0.5-0.3,0.9-1,1l0,0.6h-0.7l-0.1-1c0.3,0,0.5-0.1,0.7-0.2
			c0.2-0.1,0.2-0.2,0.2-0.4c0-0.3-0.3-0.5-0.8-0.5c-0.2,0-0.4,0-0.6,0v-0.7c0.1,0,0.3,0,0.6,0C116.8,24.9,117.3,25.3,117.3,26z"/>
		<path id="XMLID_47_" class="st5" d="M130.3,38.8v-5.5c0-1.4-0.6-2-1.7-2c-0.8,0-1.4,0.2-1.8,0.7c-0.4,0.5-0.6,1.2-0.6,2.1v4.7
			h-1.4v-5.5c0-0.7-0.1-1.2-0.4-1.5c-0.3-0.3-0.7-0.5-1.3-0.5c-0.8,0-1.4,0.2-1.7,0.7c-0.4,0.5-0.6,1.3-0.6,2.4v4.4h-1.4v-8.6h1.1
			l0.2,1.2h0.1c0.2-0.4,0.6-0.7,1-1s0.9-0.4,1.5-0.4c1.3,0,2.2,0.5,2.6,1.4h0.1c0.3-0.5,0.7-0.8,1.1-1.1s1-0.4,1.6-0.4
			c1,0,1.7,0.3,2.2,0.8s0.7,1.3,0.7,2.4v5.6H130.3z"/>
		<path id="XMLID_45_" class="st5" d="M138.8,27.4l-4.3,11.4h-1.4l4.3-11.4H138.8z"/>
		<path id="XMLID_42_" class="st5" d="M32.3,55.9c-1.1,0-2-0.4-2.6-1.2c-0.6-0.8-0.9-1.9-0.9-3.3c0-1.4,0.3-2.5,0.9-3.3
			c0.6-0.8,1.5-1.2,2.6-1.2c1.2,0,2,0.4,2.7,1.3h0.1c0-0.1,0-0.3-0.1-0.6c0-0.3,0-0.5,0-0.6v-3.4h1.4v12.2h-1.1l-0.2-1.1H35
			C34.4,55.4,33.5,55.9,32.3,55.9z M32.6,54.7c0.9,0,1.5-0.2,1.9-0.7c0.4-0.5,0.6-1.2,0.6-2.3v-0.3c0-1.2-0.2-2-0.6-2.6
			s-1-0.8-1.9-0.8c-0.7,0-1.3,0.3-1.7,0.9c-0.4,0.6-0.6,1.4-0.6,2.5c0,1.1,0.2,1.9,0.6,2.4S31.8,54.7,32.6,54.7z"/>
		<path id="XMLID_38_" class="st5" d="M39,57.6c0-0.3,0.1-0.5,0.2-0.7c0.2-0.1,0.4-0.2,0.6-0.2c0.2,0,0.4,0.1,0.6,0.2
			c0.2,0.1,0.2,0.4,0.2,0.7c0,0.3-0.1,0.5-0.2,0.7c-0.2,0.2-0.4,0.2-0.6,0.2c-0.3,0-0.5-0.1-0.6-0.2S39,57.9,39,57.6z M39,44.8
			c0-0.3,0.1-0.5,0.2-0.7s0.4-0.2,0.6-0.2c0.2,0,0.4,0.1,0.6,0.2s0.2,0.4,0.2,0.7c0,0.3-0.1,0.5-0.2,0.7c-0.2,0.1-0.4,0.2-0.6,0.2
			c-0.2,0-0.4-0.1-0.6-0.2C39.1,45.4,39,45.1,39,44.8z M40.5,55.7h-1.4v-8.6h1.4V55.7z"/>
		<path id="XMLID_36_" class="st5" d="M46.7,55.9c-1.2,0-2.2-0.4-2.9-1.1s-1-1.8-1-3.3c0-1.4,0.3-2.5,1-3.3c0.7-0.8,1.7-1.2,3-1.2
			c0.4,0,0.8,0,1.2,0.1s0.7,0.2,1,0.3l-0.4,1.2c-0.7-0.3-1.3-0.4-1.9-0.4c-0.9,0-1.5,0.3-1.9,0.8c-0.4,0.5-0.6,1.4-0.6,2.4
			c0,1,0.2,1.8,0.6,2.4c0.4,0.5,1,0.8,1.8,0.8c0.8,0,1.5-0.2,2.2-0.5v1.3C48.3,55.7,47.6,55.9,46.7,55.9z"/>
		<path id="XMLID_34_" class="st5" d="M56.8,55.7v-5.5c0-0.7-0.2-1.2-0.5-1.6c-0.3-0.3-0.8-0.5-1.5-0.5c-0.9,0-1.5,0.2-1.9,0.7
			s-0.6,1.3-0.6,2.4v4.4h-1.4V43.6h1.4v3.6c0,0.5,0,0.9-0.1,1.2h0.1c0.3-0.4,0.6-0.7,1.1-1s1-0.4,1.6-0.4c1,0,1.8,0.2,2.4,0.7
			c0.5,0.5,0.8,1.3,0.8,2.4v5.6H56.8z"/>
		<path id="XMLID_32_" class="st5" d="M66.9,55.7l-3.3-8.6h1.5l1.8,5.1c0.4,1,0.6,1.8,0.7,2.3h0.1c0-0.1,0-0.1,0.1-0.2
			s0.1-0.2,0.1-0.3s0.2-0.7,0.6-1.8l1.8-5.1h1.5l-3.3,8.6H66.9z"/>
		<path id="XMLID_29_" class="st5" d="M74.4,47.1v5.5c0,0.7,0.2,1.2,0.5,1.5s0.8,0.5,1.4,0.5c0.9,0,1.5-0.2,1.9-0.7
			c0.4-0.5,0.6-1.3,0.6-2.4v-4.5h1.4v8.6h-1.2l-0.2-1.1h-0.1c-0.3,0.4-0.6,0.7-1.1,1s-1,0.3-1.6,0.3c-1,0-1.8-0.2-2.3-0.7
			c-0.5-0.5-0.8-1.3-0.8-2.4v-5.6H74.4z M75.7,57.6c0-0.3,0.1-0.5,0.2-0.7c0.2-0.1,0.4-0.2,0.6-0.2c0.2,0,0.4,0.1,0.6,0.2
			c0.2,0.1,0.2,0.4,0.2,0.7c0,0.3-0.1,0.5-0.2,0.7c-0.2,0.2-0.4,0.2-0.6,0.2c-0.3,0-0.5-0.1-0.6-0.2S75.7,57.9,75.7,57.6z"/>
		<path id="XMLID_27_" class="st5" d="M98.1,55.7v-5.5c0-1.4-0.6-2-1.7-2c-0.8,0-1.4,0.2-1.8,0.7C94.2,49.3,94,50,94,51v4.7h-1.4
			v-5.5c0-0.7-0.1-1.2-0.4-1.5c-0.3-0.3-0.7-0.5-1.3-0.5c-0.8,0-1.4,0.2-1.7,0.7s-0.6,1.3-0.6,2.4v4.4h-1.4v-8.6h1.1l0.2,1.2h0.1
			c0.2-0.4,0.6-0.7,1-1s0.9-0.4,1.5-0.4c1.3,0,2.2,0.5,2.6,1.4h0.1c0.3-0.5,0.7-0.8,1.1-1.1s1-0.4,1.6-0.4c1,0,1.7,0.3,2.2,0.8
			s0.7,1.3,0.7,2.4v5.6H98.1z"/>
		<path id="XMLID_23_" class="st5" d="M109.6,51.4c0,1.4-0.4,2.5-1.1,3.3c-0.7,0.8-1.7,1.2-2.9,1.2c-0.8,0-1.5-0.2-2.1-0.5
			c-0.6-0.4-1.1-0.9-1.4-1.6c-0.3-0.7-0.5-1.5-0.5-2.4c0-1.4,0.3-2.5,1-3.3c0.7-0.8,1.7-1.2,2.9-1.2c0.6,0,1.1,0.1,1.6,0.3
			c0.5,0.2,0.9,0.5,1.2,0.8c0.3-0.1,0.5-0.2,0.6-0.4c0.2-0.2,0.3-0.4,0.3-0.7c0.1-0.3,0.1-0.7,0.1-1.2h1.5l0.1,0.2
			c-0.2,0.8-0.4,1.5-0.7,1.9c-0.3,0.5-0.8,0.8-1.3,1C109.4,49.7,109.6,50.5,109.6,51.4z M103.1,51.4c0,1.1,0.2,2,0.6,2.5
			c0.4,0.5,1,0.8,1.9,0.8c0.9,0,1.5-0.3,1.9-0.8c0.4-0.6,0.6-1.4,0.6-2.5c0-1.1-0.2-1.9-0.6-2.4c-0.4-0.5-1-0.8-1.9-0.8
			s-1.5,0.3-1.9,0.8C103.3,49.5,103.1,50.3,103.1,51.4z M104.6,45.8c0.2-0.3,0.4-0.6,0.8-1.1s0.6-0.9,0.8-1.3h1.7v0.2
			c-0.2,0.3-0.6,0.8-1.1,1.3c-0.5,0.5-0.9,0.9-1.2,1.1h-0.9V45.8z"/>
		<path id="XMLID_20_" class="st5" d="M111.9,44.8c0-0.3,0.1-0.5,0.2-0.7s0.4-0.2,0.6-0.2c0.2,0,0.4,0.1,0.6,0.2s0.2,0.4,0.2,0.7
			c0,0.3-0.1,0.5-0.2,0.7c-0.2,0.1-0.4,0.2-0.6,0.2c-0.2,0-0.4-0.1-0.6-0.2C112,45.4,111.9,45.1,111.9,44.8z M113.4,55.7H112v-8.6
			h1.4V55.7z"/>
		<path id="XMLID_18_" class="st5" d="M115.9,54.9c0-0.3,0.1-0.6,0.3-0.8c0.2-0.2,0.4-0.3,0.7-0.3c0.3,0,0.6,0.1,0.7,0.3
			c0.2,0.2,0.3,0.4,0.3,0.8c0,0.3-0.1,0.6-0.3,0.8s-0.4,0.3-0.7,0.3c-0.3,0-0.5-0.1-0.7-0.3S115.9,55.2,115.9,54.9z"/>
	</g>
</g>
</svg>