<!-- Generator: Adobe Illustrator 19.0.0, SVG Export Plug-In  -->
<svg version="1.1"
	 xmlns="http://www.w3.org/2000/svg" xmlns:xlink="http://www.w3.org/1999/xlink" xmlns:a="http://ns.adobe.com/AdobeSVGViewerExtensions/3.0/"
	 x="0px" y="0px" width="288.2px" height="79.7px" viewBox="0 0 288.2 79.7" style="enable-background:new 0 0 288.2 79.7;"
	 xml:space="preserve">
<style type="text/css">
	.st0{fill:#FF6633;}
	.st1{fill:#FFFFFF;}
	.st2{fill:none;stroke:#FFFFFF;stroke-width:2;stroke-linecap:round;stroke-linejoin:round;stroke-miterlimit:10;}
	.st3{fill:none;stroke:#FFFFFF;stroke-linecap:round;stroke-linejoin:round;stroke-miterlimit:10;}
	.st4{fill:none;stroke:#FF6633;stroke-width:2;stroke-miterlimit:10;}
	.st5{fill:#FFFFFF;stroke:#FFFFFF;stroke-width:0.6;stroke-miterlimit:10;}
</style>
<defs>
</defs>
<circle id="XMLID_118_" class="st0" cx="8.4" cy="25.1" r="8.4"/>
<g id="XMLID_115_">
	<path id="XMLID_116_" class="st1" d="M7.8,23.9c0.8,0,1.5,0.2,2,0.7s0.7,1.1,0.7,1.9c0,1-0.3,1.7-0.9,2.2s-1.3,0.8-2.4,0.8
		c-1,0-2.2-0.2-2.2-0.5v-1.6c0,0.2,0.6,0.3,1,0.4S6.7,28,7.1,28c1.1,0,1.6-0.5,1.6-1.4c0-0.9-0.6-1.3-1.7-1.3c-0.2,0-0.4,0-0.7,0.1
		s-0.5,0.1-0.6,0.1L5,24.9l0.3-4.6H10v2H6.9L6.7,24l0.2,0C7.2,23.9,7.5,23.9,7.8,23.9z"/>
</g>
<g id="XMLID_112_">
	<polygon id="XMLID_114_" class="st2" points="260.1,36.3 254.1,36.3 261.7,22.7 262.3,21.3 257.4,21.3 263.4,11.2 269.3,1 
		275.3,11.1 281.2,21.3 276.3,21.3 276.9,22.7 284.5,36.3 279.1,36.3 287.2,50.1 269.6,50 252,50.2 	"/>
	<line id="XMLID_113_" class="st2" x1="270" y1="50.3" x2="270" y2="65.3"/>
</g>
<g id="XMLID_82_">
	<line id="XMLID_111_" class="st3" x1="226.9" y1="43.5" x2="227.3" y2="79.2"/>
	<line id="XMLID_110_" class="st3" x1="244.9" y1="61.9" x2="209.2" y2="62.2"/>
	<line id="XMLID_109_" class="st3" x1="216.6" y1="51.5" x2="238.6" y2="73"/>
	<line id="XMLID_108_" class="st3" x1="237.8" y1="51.2" x2="216.3" y2="73.2"/>
	<circle id="XMLID_107_" class="st3" cx="227.3" cy="62.2" r="3.3"/>
	<g id="XMLID_102_">
		<line id="XMLID_106_" class="st3" x1="230.1" y1="46.8" x2="227" y2="49.9"/>
		<line id="XMLID_105_" class="st3" x1="230" y1="44.4" x2="227" y2="47.5"/>
		<line id="XMLID_104_" class="st3" x1="223.6" y1="46.9" x2="226.7" y2="49.9"/>
		<line id="XMLID_103_" class="st3" x1="223.5" y1="44.4" x2="226.7" y2="47.5"/>
	</g>
	<g id="XMLID_97_">
		<line id="XMLID_101_" class="st3" x1="223.9" y1="75.6" x2="226.9" y2="72.5"/>
		<line id="XMLID_100_" class="st3" x1="223.9" y1="78.1" x2="226.9" y2="74.9"/>
		<line id="XMLID_99_" class="st3" x1="230.4" y1="75.5" x2="227.3" y2="72.5"/>
		<line id="XMLID_98_" class="st3" x1="230.4" y1="78" x2="227.3" y2="74.9"/>
	</g>
	<g id="XMLID_92_">
		<line id="XMLID_96_" class="st3" x1="211.9" y1="59.2" x2="215" y2="62.2"/>
		<line id="XMLID_95_" class="st3" x1="209.5" y1="59.2" x2="212.6" y2="62.2"/>
		<line id="XMLID_94_" class="st3" x1="212" y1="65.7" x2="215" y2="62.5"/>
		<line id="XMLID_93_" class="st3" x1="209.5" y1="65.7" x2="212.6" y2="62.6"/>
	</g>
	<g id="XMLID_87_">
		<line id="XMLID_91_" class="st3" x1="240.2" y1="65.4" x2="237.1" y2="62.3"/>
		<line id="XMLID_90_" class="st3" x1="242.6" y1="65.3" x2="239.5" y2="62.3"/>
		<line id="XMLID_89_" class="st3" x1="240.1" y1="58.9" x2="237.1" y2="62"/>
		<line id="XMLID_88_" class="st3" x1="242.6" y1="58.8" x2="239.5" y2="61.9"/>
	</g>
	<circle id="XMLID_86_" class="st3" cx="214.6" cy="75.3" r="0.9"/>
	<circle id="XMLID_85_" class="st3" cx="214.8" cy="50.1" r="0.9"/>
	<circle id="XMLID_84_" class="st3" cx="239.4" cy="50.2" r="0.9"/>
	<circle id="XMLID_83_" class="st3" cx="240.3" cy="74.7" r="0.9"/>
</g>
<g id="XMLID_52_">
	<line id="XMLID_81_" class="st4" x1="221.3" y1="0.1" x2="221.6" y2="35.8"/>
	<line id="XMLID_80_" class="st4" x1="239.3" y1="18.5" x2="203.6" y2="18.8"/>
	<line id="XMLID_79_" class="st4" x1="211" y1="8.1" x2="233" y2="29.6"/>
	<line id="XMLID_78_" class="st4" x1="232.2" y1="7.8" x2="210.7" y2="29.8"/>
	<circle id="XMLID_77_" class="st4" cx="221.7" cy="18.8" r="3.3"/>
	<g id="XMLID_72_">
		<line id="XMLID_76_" class="st4" x1="224.4" y1="3.4" x2="221.4" y2="6.5"/>
		<line id="XMLID_75_" class="st4" x1="224.4" y1="1" x2="221.4" y2="4.1"/>
		<line id="XMLID_74_" class="st4" x1="217.9" y1="3.5" x2="221.1" y2="6.5"/>
		<line id="XMLID_73_" class="st4" x1="217.9" y1="1" x2="221" y2="4.1"/>
	</g>
	<g id="XMLID_67_">
		<line id="XMLID_71_" class="st4" x1="218.2" y1="32.2" x2="221.3" y2="29.1"/>
		<line id="XMLID_70_" class="st4" x1="218.3" y1="34.7" x2="221.3" y2="31.5"/>
		<line id="XMLID_69_" class="st4" x1="224.8" y1="32.1" x2="221.6" y2="29.1"/>
		<line id="XMLID_68_" class="st4" x1="224.8" y1="34.6" x2="221.7" y2="31.5"/>
	</g>
	<g id="XMLID_62_">
		<line id="XMLID_66_" class="st4" x1="206.3" y1="15.7" x2="209.4" y2="18.8"/>
		<line id="XMLID_65_" class="st4" x1="203.8" y1="15.8" x2="207" y2="18.8"/>
		<line id="XMLID_64_" class="st4" x1="206.4" y1="22.3" x2="209.4" y2="19.1"/>
		<line id="XMLID_63_" class="st4" x1="203.9" y1="22.3" x2="207" y2="19.2"/>
	</g>
	<g id="XMLID_57_">
		<line id="XMLID_61_" class="st4" x1="234.6" y1="22" x2="231.4" y2="18.9"/>
		<line id="XMLID_60_" class="st4" x1="237" y1="21.9" x2="233.9" y2="18.9"/>
		<line id="XMLID_59_" class="st4" x1="234.5" y1="15.5" x2="231.4" y2="18.6"/>
		<line id="XMLID_58_" class="st4" x1="237" y1="15.4" x2="233.9" y2="18.5"/>
	</g>
	<circle id="XMLID_56_" class="st4" cx="209" cy="31.9" r="0.9"/>
	<circle id="XMLID_55_" class="st4" cx="209.2" cy="6.7" r="0.9"/>
	<circle id="XMLID_54_" class="st4" cx="233.8" cy="6.8" r="0.9"/>
	<circle id="XMLID_53_" class="st4" cx="234.7" cy="31.3" r="0.9"/>
</g>
<g id="XMLID_15_">
	<g id="XMLID_17_">
		<path id="XMLID_33_" class="st5" d="M41.5,30.7h-1.7l-6.1-9.5h-0.1l0,0.6c0.1,0.9,0.1,1.8,0.1,2.5v6.4h-1.3V19.3h1.7l0.4,0.6
			l3.8,5.8l2,3.1h0.1c0-0.1,0-0.6-0.1-1.3c0-0.8,0-1.3,0-1.7v-6.4h1.3V30.7z"/>
		<path id="XMLID_30_" class="st5" d="M50.2,30.6l0-1.1h-0.1c-0.6,0.9-1.5,1.3-2.7,1.3c-1.1,0-2-0.4-2.6-1.2S44,27.8,44,26.4
			c0-1.4,0.3-2.5,0.9-3.3s1.5-1.2,2.6-1.2c1.2,0,2.1,0.4,2.7,1.3h0.1l0.2-1.1h1.1v8.7c0,1.2-0.3,2.2-0.9,2.8
			c-0.6,0.6-1.6,0.9-2.9,0.9c-1.3,0-2.3-0.2-3.1-0.5v-1.3c0.8,0.4,1.9,0.7,3.2,0.7c0.7,0,1.3-0.2,1.7-0.6c0.4-0.4,0.6-1,0.6-1.8
			V30.6z M47.7,29.7c0.9,0,1.5-0.2,1.9-0.7c0.4-0.5,0.6-1.2,0.6-2.2v-0.3c0-1.1-0.2-2-0.6-2.5c-0.4-0.5-1-0.8-1.9-0.8
			c-0.7,0-1.3,0.3-1.7,0.9s-0.6,1.4-0.6,2.4c0,1.1,0.2,1.9,0.6,2.4C46.4,29.4,47,29.7,47.7,29.7z"/>
		<path id="XMLID_28_" class="st5" d="M60.1,30.7v-5.5c0-0.7-0.2-1.2-0.5-1.6c-0.3-0.3-0.8-0.5-1.5-0.5c-0.9,0-1.5,0.2-1.9,0.7
			s-0.6,1.3-0.6,2.4v4.4h-1.4V18.5h1.4v3.6c0,0.5,0,0.9-0.1,1.2h0.1c0.3-0.4,0.6-0.7,1.1-1s1-0.4,1.6-0.4c1,0,1.8,0.2,2.4,0.7
			c0.5,0.5,0.8,1.3,0.8,2.4v5.6H60.1z"/>
		<path id="XMLID_25_" class="st5" d="M66.7,19c0,0.7-0.4,1.2-1.3,1.4l-0.1,0.9h-0.9l-0.1-1.4c0.4-0.1,0.7-0.2,0.9-0.3
			c0.2-0.1,0.3-0.3,0.3-0.6c0-0.4-0.3-0.6-1-0.6c-0.3,0-0.5,0-0.8,0.1v-0.8c0.2-0.1,0.5-0.1,0.9-0.1C66,17.5,66.7,18,66.7,19z
			 M65.6,30.7h-1.4v-8.6h1.4V30.7z"/>
		<path id="XMLID_23_" class="st5" d="M73.9,30.7h-1.4V18.5h1.4V30.7z"/>
		<path id="XMLID_18_" class="st5" d="M80.2,30.8c-1.3,0-2.3-0.4-3-1.2c-0.7-0.8-1.1-1.9-1.1-3.2c0-1.4,0.3-2.5,1-3.3
			c0.7-0.8,1.6-1.2,2.8-1.2c1.1,0,1.9,0.3,2.6,1s1,1.6,1,2.8v0.9h-5.9c0,1,0.3,1.7,0.7,2.2c0.5,0.5,1.1,0.8,2,0.8
			c0.5,0,0.9,0,1.3-0.1c0.4-0.1,0.9-0.2,1.4-0.5v1.2c-0.5,0.2-0.9,0.3-1.3,0.4S80.8,30.8,80.2,30.8z M80.9,18.3
			c-0.2,0-0.4,0-0.6-0.1c-0.2-0.1-0.4-0.2-0.5-0.3s-0.3-0.2-0.5-0.3c-0.2-0.1-0.3-0.1-0.5-0.1c-0.2,0-0.4,0.1-0.5,0.2
			c-0.1,0.1-0.2,0.3-0.3,0.6h-0.7c0.1-0.6,0.2-1,0.5-1.3c0.3-0.3,0.6-0.4,1-0.4c0.2,0,0.4,0,0.6,0.1c0.2,0.1,0.4,0.2,0.6,0.3
			s0.4,0.2,0.5,0.3c0.2,0.1,0.3,0.1,0.5,0.1c0.2,0,0.4-0.1,0.5-0.2c0.1-0.1,0.2-0.3,0.3-0.6h0.7c-0.1,0.6-0.2,1-0.5,1.3
			C81.6,18.1,81.3,18.3,80.9,18.3z M82.3,21h-0.8c-0.5-0.3-1.1-0.8-1.7-1.3c-0.5,0.4-1,0.9-1.7,1.3h-0.8v-0.2l0.4-0.5
			c0.6-0.6,1-1.2,1.3-1.6h1.4c0.3,0.4,0.5,0.7,0.8,1.1c0.3,0.3,0.6,0.7,0.9,1V21z M79.9,23.1c-0.7,0-1.2,0.2-1.6,0.6
			c-0.4,0.4-0.6,1-0.7,1.8H82c0-0.8-0.2-1.4-0.6-1.8C81.1,23.3,80.5,23.1,79.9,23.1z"/>
	</g>
</g>
</svg>