<!-- Generator: Adobe Illustrator 19.0.0, SVG Export Plug-In  -->
<svg version="1.1"
	 xmlns="http://www.w3.org/2000/svg" xmlns:xlink="http://www.w3.org/1999/xlink" xmlns:a="http://ns.adobe.com/AdobeSVGViewerExtensions/3.0/"
	 x="0px" y="0px" width="195px" height="303.5px" viewBox="0 0 195 303.5" style="enable-background:new 0 0 195 303.5;"
	 xml:space="preserve">
<style type="text/css">
	.st0{fill:#FF6633;}
	.st1{fill:#FFFFFF;}
	.st2{fill:#55514F;stroke:#FFFFFF;stroke-width:2;stroke-miterlimit:10;stroke-dasharray:3;}
	.st3{fill:#086A87;}
</style>
<defs>
</defs>
<path id="XMLID_202_" class="st0" d="M100.1,4.8L43.3,61.6c-3.1,3.1-4.8,7.2-4.8,11.5v213.6c0,9,7.3,16.3,16.3,16.3h113.6
	c9,0,16.3-7.3,16.3-16.3V73.1c0-4.3-1.7-8.5-4.8-11.5L123.1,4.8C116.8-1.6,106.5-1.6,100.1,4.8z"/>
<circle id="XMLID_199_" class="st1" cx="111.6" cy="18.3" r="4.6"/>
<line id="XMLID_198_" class="st2" x1="55" y1="225.5" x2="195" y2="225.5"/>
<g id="XMLID_191_">
	<circle id="XMLID_197_" class="st3" cx="6.5" cy="228.9" r="6.5"/>
	<circle id="XMLID_196_" class="st3" cx="8.1" cy="212.5" r="6.5"/>
	<circle id="XMLID_195_" class="st1" cx="8.1" cy="212.5" r="4.3"/>
	<circle id="XMLID_194_" class="st1" cx="6.5" cy="228.9" r="4.3"/>
	<path id="XMLID_193_" class="st3" d="M33.4,232.7L9.7,217L5,218.3l23.2,15.3c0.4,0.2,0.7,0.4,1.2,0.6
		C30.7,234.7,32.2,234.5,33.4,232.7z"/>
	<path id="XMLID_192_" class="st3" d="M32.5,217l-26.9,5.5l4.1,2.9l27.9-5.7c-0.4-2.1-2.1-2.7-3.7-2.8C33.5,216.8,33,216.9,32.5,217
		z"/>
</g>
<g id="XMLID_180_">
	<path id="XMLID_189_" class="st1" d="M83,190.5H55v-5.4l9.9-10c2.9-3,4.9-5.1,5.8-6.3c0.9-1.2,1.6-2.2,2-3.2c0.4-1,0.6-2,0.6-3.1
		c0-1.6-0.4-2.8-1.3-3.5c-0.9-0.8-2-1.2-3.5-1.2c-1.5,0-3,0.4-4.5,1.1c-1.4,0.7-2.9,1.7-4.5,3l-4.5-5.4c1.9-1.7,3.6-2.8,4.8-3.5
		c1.3-0.7,2.7-1.2,4.2-1.6c1.5-0.4,3.2-0.6,5.1-0.6c2.5,0,4.7,0.5,6.5,1.4c1.9,0.9,3.4,2.2,4.4,3.8c1,1.6,1.6,3.5,1.6,5.6
		c0,1.8-0.3,3.5-1,5.1s-1.6,3.2-3,4.9c-1.3,1.7-3.9,4.1-7.3,7.2l-5.3,4.8v0h18V190.5z"/>
	<path id="XMLID_187_" class="st1" d="M101.1,165.6c3.8,0,6.9,1.1,9.1,3.2c2.3,2.1,3.4,5.1,3.4,8.8c0,4.4-1.4,7.8-4.1,10.2
		c-2.7,2.4-6.7,3.6-11.8,3.6c-4.4,0-7.8-0.7-10.8-2.1v-7.2c2,0.8,3.2,1.4,5.1,1.9c1.9,0.5,3.7,0.7,5.4,0.7c5.1,0,7.7-2.1,7.7-6.3
		c0-4-2.6-6-7.9-6c-1,0-2,0.1-3.2,0.3c-1.2,0.2-2.1,0.4-2.8,0.6l-3.3-1.7l1.5-20.1H111v7H96.8l-0.7,7.7L97,166
		C98.1,165.8,99.4,165.6,101.1,165.6z"/>
	<path id="XMLID_181_" class="st1" d="M136.6,163.1c0,4.1-0.8,7.3-2.4,9.3c-1.6,2.1-4,3.1-7.1,3.1c-3,0-5.3-1.1-6.9-3.2
		c-1.6-2.1-2.4-5.2-2.4-9.3c0-8.2,3.1-12.4,9.3-12.4c3,0,5.4,1.1,7,3.2C135.8,156.1,136.6,159.2,136.6,163.1z M124.6,163.2
		c0,2.3,0.2,4,0.6,5.1c0.4,1.1,1.1,1.7,2,1.7c1.7,0,2.6-2.3,2.6-6.8c0-4.5-0.9-6.8-2.6-6.8c-0.9,0-1.6,0.6-2,1.7
		C124.8,159.2,124.6,160.9,124.6,163.2z M155.2,151.5l-21.9,39h-6.5l21.9-39H155.2z M164.3,178.9c0,4.1-0.8,7.2-2.4,9.3
		c-1.6,2.1-4,3.1-7.1,3.1c-3,0-5.3-1.1-6.9-3.2c-1.6-2.1-2.4-5.2-2.4-9.2c0-8.2,3.1-12.4,9.3-12.4c3,0,5.4,1.1,7,3.2
		C163.5,171.9,164.3,175,164.3,178.9z M152.3,179c0,2.3,0.2,4,0.6,5.1c0.4,1.1,1.1,1.7,2,1.7c1.7,0,2.6-2.3,2.6-6.8
		c0-4.5-0.9-6.8-2.6-6.8c-0.9,0-1.6,0.6-2,1.7S152.3,176.7,152.3,179z"/>
</g>
<g id="XMLID_50_">
	<path id="XMLID_176_" class="st1" d="M55.5,78.5h3.1c1.4,0,2.4,0.2,3,0.6c0.6,0.4,0.9,1,0.9,1.9c0,0.6-0.1,1.1-0.4,1.5
		c-0.3,0.4-0.6,0.6-1.1,0.7v0.1c0.6,0.1,1.1,0.4,1.4,0.8c0.3,0.4,0.4,0.9,0.4,1.5c0,0.9-0.3,1.6-1,2.1c-0.7,0.5-1.5,0.8-2.7,0.8
		h-3.7V78.5z M57.6,82.4h1.2c0.6,0,1-0.1,1.2-0.3c0.3-0.2,0.4-0.5,0.4-0.9c0-0.4-0.1-0.6-0.4-0.8c-0.3-0.2-0.7-0.2-1.3-0.2h-1.1
		V82.4z M57.6,84.1v2.6h1.4c0.6,0,1-0.1,1.3-0.3c0.3-0.2,0.4-0.6,0.4-1c0-0.8-0.6-1.2-1.8-1.2H57.6z"/>
	<path id="XMLID_171_" class="st1" d="M69.4,88.4l-0.4-1h-0.1c-0.3,0.4-0.7,0.7-1.1,0.9c-0.4,0.2-0.8,0.3-1.4,0.3
		c-0.7,0-1.3-0.2-1.7-0.6c-0.4-0.4-0.6-1-0.6-1.8c0-0.8,0.3-1.4,0.8-1.8s1.4-0.6,2.5-0.6l1.3,0v-0.3c0-0.8-0.4-1.1-1.2-1.1
		c-0.6,0-1.3,0.2-2.1,0.5l-0.7-1.4c0.9-0.5,1.8-0.7,2.9-0.7c1,0,1.8,0.2,2.3,0.7c0.5,0.4,0.8,1.1,0.8,2v5H69.4z M70.1,77.7
		c0,0.7-0.3,1.3-0.7,1.7c-0.4,0.4-1,0.6-1.7,0.6c-0.7,0-1.3-0.2-1.7-0.6c-0.4-0.4-0.6-1-0.7-1.7h1c0,0.4,0.2,0.7,0.4,0.9
		c0.3,0.2,0.6,0.3,1,0.3c0.4,0,0.7-0.1,1-0.3s0.4-0.5,0.4-0.8H70.1z M68.3,78.2h-0.9c-0.5-0.4-0.9-0.8-1.4-1.4v-0.1h1.5
		c0.2,0.4,0.5,0.9,0.8,1.4V78.2z M68.8,84.9l-0.8,0c-0.6,0-1,0.1-1.3,0.3c-0.3,0.2-0.4,0.5-0.4,0.9c0,0.6,0.3,0.9,1,0.9
		c0.5,0,0.9-0.1,1.1-0.4c0.3-0.3,0.4-0.6,0.4-1.1V84.9z"/>
	<path id="XMLID_169_" class="st1" d="M79.9,88.4h-2.1V84c0-0.5-0.1-1-0.3-1.2c-0.2-0.3-0.5-0.4-0.9-0.4c-0.6,0-1,0.2-1.2,0.6
		c-0.3,0.4-0.4,1-0.4,1.9v3.6h-2.1v-7.5h1.6l0.3,1h0.1c0.2-0.4,0.5-0.6,0.9-0.8c0.4-0.2,0.9-0.3,1.4-0.3c0.9,0,1.5,0.2,2,0.7
		c0.5,0.5,0.7,1.2,0.7,2.1V88.4z"/>
	<path id="XMLID_166_" class="st1" d="M88.6,88.4c0,1.1-0.3,1.9-0.9,2.5c-0.6,0.6-1.6,0.8-2.8,0.8c-1.1,0-2-0.1-2.8-0.4v-1.6
		c0.9,0.4,1.9,0.6,2.9,0.6c1.1,0,1.6-0.6,1.6-1.7v-0.1l0.1-0.9h-0.1c-0.5,0.7-1.2,1.1-2.1,1.1c-0.9,0-1.6-0.3-2.1-1
		c-0.5-0.7-0.7-1.6-0.7-2.8c0-1.2,0.3-2.2,0.8-2.9c0.5-0.7,1.2-1,2.1-1c0.9,0,1.7,0.4,2.2,1.1h0.1l0.2-1h1.7V88.4z M85.2,86.9
		c0.6,0,0.9-0.2,1.2-0.5s0.4-0.8,0.4-1.5v-0.2c0-0.8-0.1-1.4-0.4-1.7c-0.2-0.4-0.7-0.5-1.2-0.5c-1,0-1.5,0.8-1.5,2.3
		c0,0.8,0.1,1.3,0.4,1.7C84.3,86.7,84.7,86.9,85.2,86.9z"/>
	<path id="XMLID_164_" class="st1" d="M97.4,88.5c-2.3,0-3.5-1.3-3.5-3.9c0-1.3,0.3-2.3,1-2.9c0.6-0.7,1.6-1,2.7-1
		c0.9,0,1.7,0.2,2.3,0.5l-0.6,1.6c-0.3-0.1-0.6-0.2-0.9-0.3c-0.3-0.1-0.6-0.1-0.8-0.1c-1.1,0-1.6,0.8-1.6,2.3c0,1.5,0.5,2.2,1.6,2.2
		c0.4,0,0.8-0.1,1.1-0.2s0.7-0.3,1-0.5V88c-0.3,0.2-0.7,0.4-1,0.4C98.4,88.5,98,88.5,97.4,88.5z"/>
	<path id="XMLID_161_" class="st1" d="M108.4,84.6c0,1.2-0.3,2.2-1,2.9c-0.6,0.7-1.6,1-2.7,1c-0.7,0-1.4-0.2-1.9-0.5
		c-0.6-0.3-1-0.8-1.3-1.4s-0.4-1.3-0.4-2.1c0-1.2,0.3-2.2,1-2.9c0.6-0.7,1.5-1,2.7-1c0.7,0,1.4,0.2,1.9,0.5c0.6,0.3,1,0.8,1.3,1.4
		C108.2,83.1,108.4,83.8,108.4,84.6z M103.1,84.6c0,0.7,0.1,1.3,0.4,1.7c0.2,0.4,0.6,0.6,1.2,0.6c0.5,0,0.9-0.2,1.2-0.6
		c0.2-0.4,0.4-0.9,0.4-1.7c0-0.7-0.1-1.3-0.4-1.7c-0.2-0.4-0.6-0.6-1.2-0.6c-0.5,0-0.9,0.2-1.2,0.6
		C103.3,83.3,103.1,83.8,103.1,84.6z"/>
	<path id="XMLID_159_" class="st1" d="M115.4,88.4l-0.3-1H115c-0.2,0.4-0.5,0.6-0.9,0.8c-0.4,0.2-0.9,0.3-1.4,0.3
		c-0.9,0-1.6-0.2-2-0.7c-0.5-0.5-0.7-1.2-0.7-2v-4.9h2.1v4.4c0,0.5,0.1,1,0.3,1.2c0.2,0.3,0.5,0.4,0.9,0.4c0.6,0,1-0.2,1.2-0.6
		c0.3-0.4,0.4-1,0.4-1.9v-3.6h2.1v7.5H115.4z"/>
	<path id="XMLID_156_" class="st1" d="M123.3,88.5c-0.9,0-1.6-0.3-2.1-1h-0.1c0.1,0.6,0.1,1,0.1,1.1v3.1h-2.1V80.8h1.7l0.3,1h0.1
		c0.5-0.7,1.2-1.1,2.1-1.1c0.9,0,1.6,0.3,2.1,1c0.5,0.7,0.8,1.6,0.8,2.9c0,0.8-0.1,1.5-0.4,2.1s-0.6,1-1,1.4
		C124.4,88.4,123.9,88.5,123.3,88.5z M122.7,82.3c-0.5,0-0.9,0.2-1.1,0.5s-0.4,0.8-0.4,1.5v0.2c0,0.8,0.1,1.4,0.4,1.7
		c0.2,0.4,0.6,0.5,1.1,0.5c0.9,0,1.4-0.8,1.4-2.3c0-0.7-0.1-1.3-0.3-1.7C123.5,82.5,123.2,82.3,122.7,82.3z"/>
	<path id="XMLID_153_" class="st1" d="M134.8,84.6c0,1.2-0.3,2.2-1,2.9c-0.6,0.7-1.6,1-2.7,1c-0.7,0-1.4-0.2-1.9-0.5
		c-0.6-0.3-1-0.8-1.3-1.4s-0.4-1.3-0.4-2.1c0-1.2,0.3-2.2,1-2.9c0.6-0.7,1.5-1,2.7-1c0.7,0,1.4,0.2,1.9,0.5c0.6,0.3,1,0.8,1.3,1.4
		C134.6,83.1,134.8,83.8,134.8,84.6z M129.5,84.6c0,0.7,0.1,1.3,0.4,1.7c0.2,0.4,0.6,0.6,1.2,0.6c0.5,0,0.9-0.2,1.2-0.6
		c0.2-0.4,0.4-0.9,0.4-1.7c0-0.7-0.1-1.3-0.4-1.7c-0.2-0.4-0.6-0.6-1.2-0.6c-0.5,0-0.9,0.2-1.2,0.6
		C129.7,83.3,129.5,83.8,129.5,84.6z"/>
	<path id="XMLID_151_" class="st1" d="M143.4,88.4h-2.1V84c0-0.5-0.1-1-0.3-1.2c-0.2-0.3-0.5-0.4-0.9-0.4c-0.6,0-1,0.2-1.2,0.6
		c-0.3,0.4-0.4,1-0.4,1.9v3.6h-2.1v-7.5h1.6l0.3,1h0.1c0.2-0.4,0.5-0.6,0.9-0.8c0.4-0.2,0.9-0.3,1.4-0.3c0.9,0,1.5,0.2,2,0.7
		c0.5,0.5,0.7,1.2,0.7,2.1V88.4z"/>
	<path id="XMLID_149_" class="st1" d="M150.8,86.1c0,0.8-0.3,1.4-0.8,1.8c-0.5,0.4-1.3,0.6-2.4,0.6c-0.5,0-1,0-1.4-0.1
		c-0.4-0.1-0.7-0.2-1.1-0.3v-1.7c0.4,0.2,0.8,0.3,1.3,0.5c0.5,0.1,0.9,0.2,1.3,0.2c0.7,0,1.1-0.2,1.1-0.6c0-0.2,0-0.3-0.1-0.4
		c-0.1-0.1-0.3-0.2-0.5-0.3s-0.6-0.3-1-0.4c-0.6-0.2-1-0.5-1.3-0.7c-0.3-0.2-0.5-0.4-0.6-0.7c-0.1-0.3-0.2-0.6-0.2-1
		c0-0.7,0.3-1.2,0.8-1.6c0.5-0.4,1.3-0.6,2.2-0.6c0.9,0,1.8,0.2,2.7,0.6l-0.6,1.5c-0.4-0.2-0.7-0.3-1.1-0.4c-0.3-0.1-0.7-0.2-1-0.2
		c-0.6,0-0.9,0.2-0.9,0.5c0,0.2,0.1,0.3,0.3,0.5c0.2,0.1,0.6,0.3,1.3,0.6c0.6,0.2,1,0.5,1.3,0.7s0.5,0.4,0.6,0.7
		C150.7,85.4,150.8,85.8,150.8,86.1z"/>
	<path id="XMLID_147_" class="st1" d="M154.4,86.9c-0.2,0.9-0.6,2-1.2,3.2h-1.5c0.3-1.2,0.5-2.3,0.7-3.4h1.9L154.4,86.9z"/>
	<path id="XMLID_145_" class="st1" d="M62.1,104.7H60v-4.4c0-0.5-0.1-1-0.3-1.2c-0.2-0.3-0.5-0.4-0.9-0.4c-0.5,0-0.9,0.2-1.1,0.6
		s-0.4,1-0.4,1.9v3.6h-2.1v-7.5h1.6l0.3,1h0.1c0.2-0.3,0.5-0.6,0.9-0.8c0.4-0.2,0.8-0.3,1.3-0.3c1.1,0,1.9,0.4,2.3,1.1h0.2
		c0.2-0.4,0.5-0.6,0.9-0.8c0.4-0.2,0.8-0.3,1.3-0.3c0.9,0,1.5,0.2,1.9,0.7c0.4,0.4,0.7,1.1,0.7,2.1v4.9h-2.1v-4.4
		c0-0.5-0.1-1-0.3-1.2c-0.2-0.3-0.5-0.4-0.9-0.4c-0.5,0-0.9,0.2-1.1,0.5c-0.3,0.4-0.4,0.9-0.4,1.7V104.7z"/>
	<path id="XMLID_140_" class="st1" d="M75.7,101c0,1.2-0.3,2.2-1,2.9c-0.6,0.7-1.6,1-2.7,1c-0.7,0-1.4-0.2-1.9-0.5
		c-0.6-0.3-1-0.8-1.3-1.4s-0.4-1.3-0.4-2.1c0-1.2,0.3-2.2,1-2.9c0.6-0.7,1.5-1,2.7-1c0.7,0,1.4,0.2,1.9,0.5c0.6,0.3,1,0.8,1.3,1.4
		C75.6,99.5,75.7,100.2,75.7,101z M74.6,96.4h-1c-0.6-0.3-1.2-0.7-1.6-1c-0.4,0.3-0.9,0.7-1.6,1h-1v-0.2c0.8-0.7,1.3-1.3,1.6-1.8H73
		c0.2,0.3,0.5,0.6,0.8,0.9c0.3,0.3,0.6,0.6,0.8,0.8V96.4z M73.1,94c-0.2,0-0.4,0-0.6-0.1c-0.2-0.1-0.4-0.1-0.5-0.2
		c-0.2-0.1-0.3-0.1-0.5-0.2c-0.1-0.1-0.3-0.1-0.4-0.1c-0.2,0-0.3,0-0.4,0.1s-0.2,0.2-0.2,0.5h-0.8c0-0.5,0.2-0.9,0.5-1.2
		c0.3-0.3,0.6-0.4,1-0.4c0.2,0,0.4,0,0.6,0.1c0.2,0.1,0.4,0.1,0.5,0.2c0.2,0.1,0.3,0.1,0.4,0.2C72.8,93,73,93,73.1,93
		c0.2,0,0.3,0,0.4-0.1s0.2-0.2,0.2-0.4h0.8c-0.1,0.5-0.2,0.9-0.5,1.2S73.5,94,73.1,94z M70.5,101c0,0.7,0.1,1.3,0.4,1.7
		c0.2,0.4,0.6,0.6,1.2,0.6c0.5,0,0.9-0.2,1.2-0.6c0.2-0.4,0.4-0.9,0.4-1.7c0-0.7-0.1-1.3-0.4-1.7c-0.2-0.4-0.6-0.6-1.2-0.6
		c-0.5,0-0.9,0.2-1.2,0.6C70.6,99.6,70.5,100.2,70.5,101z"/>
	<path id="XMLID_137_" class="st1" d="M77.4,95.2c0-0.7,0.4-1,1.1-1c0.7,0,1.1,0.3,1.1,1c0,0.3-0.1,0.6-0.3,0.7
		c-0.2,0.2-0.5,0.3-0.8,0.3C77.7,96.3,77.4,95.9,77.4,95.2z M79.5,104.7h-2.1v-7.5h2.1V104.7z"/>
	<path id="XMLID_135_" class="st1" d="M92.2,104.7h-2.1v-4.4c0-0.5-0.1-1-0.3-1.2c-0.2-0.3-0.5-0.4-0.9-0.4c-0.6,0-1,0.2-1.2,0.6
		c-0.3,0.4-0.4,1-0.4,1.9v3.6h-2.1v-7.5h1.6l0.3,1h0.1c0.2-0.4,0.5-0.6,0.9-0.8c0.4-0.2,0.9-0.3,1.4-0.3c0.9,0,1.5,0.2,2,0.7
		c0.5,0.5,0.7,1.2,0.7,2.1V104.7z"/>
	<path id="XMLID_132_" class="st1" d="M100.9,104.8c0,1.1-0.3,1.9-0.9,2.5c-0.6,0.6-1.6,0.8-2.8,0.8c-1.1,0-2-0.1-2.8-0.4V106
		c0.9,0.4,1.9,0.6,2.9,0.6c1.1,0,1.6-0.6,1.6-1.7v-0.1l0.1-0.9h-0.1c-0.5,0.7-1.2,1.1-2.1,1.1c-0.9,0-1.6-0.3-2.1-1
		c-0.5-0.7-0.7-1.6-0.7-2.8c0-1.2,0.3-2.2,0.8-2.9c0.5-0.7,1.2-1,2.1-1c0.9,0,1.7,0.4,2.2,1.1H99l0.2-1h1.7V104.8z M97.5,103.3
		c0.6,0,0.9-0.2,1.2-0.5c0.2-0.3,0.4-0.8,0.4-1.5V101c0-0.8-0.1-1.4-0.4-1.7c-0.2-0.4-0.7-0.5-1.2-0.5c-1,0-1.5,0.8-1.5,2.3
		c0,0.8,0.1,1.3,0.4,1.7C96.6,103.1,97,103.3,97.5,103.3z"/>
	<path id="XMLID_130_" class="st1" d="M108.4,104.7l-0.3-1H108c-0.2,0.3-0.5,0.6-0.9,0.8c-0.4,0.2-0.9,0.3-1.4,0.3
		c-0.9,0-1.6-0.2-2-0.7c-0.5-0.5-0.7-1.2-0.7-2v-4.9h2.1v4.4c0,0.5,0.1,1,0.3,1.2c0.2,0.3,0.5,0.4,0.9,0.4c0.6,0,1-0.2,1.2-0.6
		c0.3-0.4,0.4-1,0.4-1.9v-3.6h2.1V98c0.3-0.1,0.6-0.3,0.7-0.6c0.2-0.3,0.3-0.8,0.3-1.3h2l0.1,0.1c-0.1,0.7-0.3,1.2-0.6,1.6
		s-0.6,0.7-1,0.9s-0.9,0.4-1.6,0.5v5.5H108.4z"/>
	<path id="XMLID_126_" class="st1" d="M120.5,101c0,1.2-0.3,2.2-1,2.9c-0.6,0.7-1.6,1-2.7,1c-0.7,0-1.4-0.2-1.9-0.5s-1-0.8-1.3-1.4
		s-0.4-1.3-0.4-2.1c0-1.2,0.3-2.2,1-2.9c0.6-0.7,1.5-1,2.7-1c0.5,0,1,0.1,1.4,0.2c0.4,0.2,0.8,0.4,1.2,0.7c0.7-0.2,1-0.8,1-1.9h2
		l0.1,0.1c-0.1,0.6-0.3,1.1-0.5,1.4s-0.5,0.7-0.8,0.9c-0.3,0.2-0.7,0.4-1.2,0.5C120.3,99.6,120.5,100.3,120.5,101z M116.7,96.4
		c-0.3-0.2-0.7-0.5-1.2-1c-0.5-0.4-1-0.8-1.3-1.1v-0.1h2.3c0.3,0.5,0.8,1.1,1.6,2v0.2H116.7z M115.2,101c0,0.7,0.1,1.3,0.4,1.7
		s0.6,0.6,1.2,0.6c0.5,0,0.9-0.2,1.2-0.6s0.4-0.9,0.4-1.7c0-0.7-0.1-1.3-0.4-1.7c-0.2-0.4-0.6-0.6-1.2-0.6c-0.5,0-0.9,0.2-1.2,0.6
		C115.4,99.6,115.2,100.2,115.2,101z"/>
	<path id="XMLID_123_" class="st1" d="M122.9,95.2c0-0.7,0.4-1,1.1-1c0.7,0,1.1,0.3,1.1,1c0,0.3-0.1,0.6-0.3,0.7
		c-0.2,0.2-0.5,0.3-0.8,0.3C123.3,96.3,122.9,95.9,122.9,95.2z M125.1,104.7H123v-7.5h2.1V104.7z"/>
	<path id="XMLID_120_" class="st1" d="M133.2,104.9c-0.9,0-1.6-0.3-2.1-1c-0.5-0.7-0.8-1.6-0.8-2.9c0-1.2,0.3-2.2,0.8-2.9
		c0.5-0.7,1.2-1,2.1-1c0.9,0,1.7,0.4,2.2,1.1h0.1c-0.1-0.6-0.2-1.1-0.2-1.5v-2.4h2.1v10.5h-1.6l-0.4-1h-0.1
		C134.9,104.5,134.2,104.9,133.2,104.9z M133.9,103.2c0.5,0,0.9-0.2,1.2-0.5c0.2-0.3,0.4-0.8,0.4-1.6V101c0-0.8-0.1-1.4-0.4-1.7
		c-0.2-0.4-0.7-0.5-1.2-0.5c-0.5,0-0.8,0.2-1.1,0.6c-0.3,0.4-0.4,1-0.4,1.7c0,0.7,0.1,1.3,0.4,1.7
		C133.1,103,133.4,103.2,133.9,103.2z"/>
	<path id="XMLID_117_" class="st1" d="M144.9,104.7l-0.3-1h-0.1c-0.2,0.4-0.5,0.6-0.9,0.8c-0.4,0.2-0.9,0.3-1.4,0.3
		c-0.9,0-1.6-0.2-2-0.7c-0.5-0.5-0.7-1.2-0.7-2v-4.9h2.1v4.4c0,0.5,0.1,1,0.3,1.2c0.2,0.3,0.5,0.4,0.9,0.4c0.6,0,1-0.2,1.2-0.6
		c0.3-0.4,0.4-1,0.4-1.9v-3.6h2.1v7.5H144.9z M142.7,96.4c-0.3-0.2-0.7-0.5-1.2-1c-0.5-0.4-1-0.8-1.3-1.1v-0.1h2.3
		c0.3,0.5,0.8,1.1,1.6,2v0.2H142.7z"/>
	<path id="XMLID_115_" class="st1" d="M155.6,104.7h-2.1v-4.4c0-0.5-0.1-1-0.3-1.2c-0.2-0.3-0.5-0.4-0.9-0.4c-0.6,0-1,0.2-1.2,0.6
		c-0.3,0.4-0.4,1-0.4,1.9v3.6h-2.1v-7.5h1.6l0.3,1h0.1c0.2-0.4,0.5-0.6,0.9-0.8c0.4-0.2,0.9-0.3,1.4-0.3c0.9,0,1.5,0.2,2,0.7
		c0.5,0.5,0.7,1.2,0.7,2.1V104.7z"/>
	<path id="XMLID_112_" class="st1" d="M164.3,104.8c0,1.1-0.3,1.9-0.9,2.5s-1.6,0.8-2.8,0.8c-1.1,0-2-0.1-2.8-0.4V106
		c0.9,0.4,1.9,0.6,2.9,0.6c1.1,0,1.6-0.6,1.6-1.7v-0.1l0.1-0.9h-0.1c-0.5,0.7-1.2,1.1-2.1,1.1c-0.9,0-1.6-0.3-2.1-1
		c-0.5-0.7-0.7-1.6-0.7-2.8c0-1.2,0.3-2.2,0.8-2.9c0.5-0.7,1.2-1,2.1-1c0.9,0,1.7,0.4,2.2,1.1h0.1l0.2-1h1.7V104.8z M160.9,103.3
		c0.6,0,0.9-0.2,1.2-0.5c0.2-0.3,0.4-0.8,0.4-1.5V101c0-0.8-0.1-1.4-0.4-1.7c-0.3-0.4-0.7-0.5-1.2-0.5c-1,0-1.5,0.8-1.5,2.3
		c0,0.8,0.1,1.3,0.4,1.7C160,103.1,160.4,103.3,160.9,103.3z"/>
	<path id="XMLID_109_" class="st1" d="M55.2,111.6c0-0.7,0.4-1,1.1-1s1.1,0.3,1.1,1c0,0.3-0.1,0.6-0.3,0.7c-0.2,0.2-0.5,0.3-0.8,0.3
		C55.6,112.6,55.2,112.3,55.2,111.6z M57.4,121.1h-2.1v-7.5h2.1V121.1z"/>
	<path id="XMLID_106_" class="st1" d="M63.7,121.2c-0.9,0-1.6-0.3-2.1-1h-0.1c0.1,0.6,0.1,1,0.1,1.1v3.1h-2.1v-10.9h1.7l0.3,1h0.1
		c0.5-0.7,1.2-1.1,2.1-1.1c0.9,0,1.6,0.3,2.1,1c0.5,0.7,0.8,1.6,0.8,2.9c0,0.8-0.1,1.5-0.4,2.1s-0.6,1-1,1.4
		C64.8,121.1,64.3,121.2,63.7,121.2z M63.1,115.1c-0.5,0-0.9,0.2-1.1,0.5s-0.4,0.8-0.4,1.5v0.2c0,0.8,0.1,1.4,0.4,1.7
		s0.6,0.5,1.1,0.5c0.9,0,1.4-0.8,1.4-2.3c0-0.7-0.1-1.3-0.3-1.7C63.9,115.2,63.5,115.1,63.1,115.1z"/>
	<path id="XMLID_104_" class="st1" d="M72.5,113.4c0.3,0,0.5,0,0.7,0.1l-0.2,1.9c-0.2,0-0.4-0.1-0.6-0.1c-0.7,0-1.2,0.2-1.5,0.5
		c-0.4,0.3-0.6,0.8-0.6,1.4v3.8h-2.1v-7.5h1.6l0.3,1.3h0.1c0.2-0.4,0.6-0.8,0.9-1C71.6,113.5,72,113.4,72.5,113.4z"/>
	<path id="XMLID_101_" class="st1" d="M74.5,111.6c0-0.7,0.4-1,1.1-1s1.1,0.3,1.1,1c0,0.3-0.1,0.6-0.3,0.7c-0.2,0.2-0.5,0.3-0.8,0.3
		C74.8,112.6,74.5,112.3,74.5,111.6z M76.6,121.1h-2.1v-7.5h2.1V121.1z"/>
	<path id="XMLID_99_" class="st1" d="M81.8,121.2c-2.3,0-3.5-1.3-3.5-3.9c0-1.3,0.3-2.3,1-2.9c0.6-0.7,1.6-1,2.7-1
		c0.9,0,1.7,0.2,2.4,0.5l-0.6,1.6c-0.3-0.1-0.6-0.2-0.9-0.3c-0.3-0.1-0.6-0.1-0.8-0.1c-1.1,0-1.6,0.8-1.6,2.3c0,1.5,0.5,2.2,1.6,2.2
		c0.4,0,0.8-0.1,1.1-0.2s0.7-0.3,1-0.5v1.8c-0.3,0.2-0.7,0.4-1,0.4C82.8,121.2,82.4,121.2,81.8,121.2z"/>
	<path id="XMLID_96_" class="st1" d="M89.3,121.2c-1.2,0-2.2-0.3-2.8-1s-1-1.6-1-2.8c0-1.3,0.3-2.2,0.9-2.9c0.6-0.7,1.5-1,2.6-1
		c1.1,0,1.9,0.3,2.5,0.9c0.6,0.6,0.9,1.4,0.9,2.5v1h-4.9c0,0.6,0.2,1,0.5,1.4c0.3,0.3,0.8,0.5,1.4,0.5c0.5,0,0.9,0,1.3-0.1
		c0.4-0.1,0.8-0.2,1.3-0.5v1.6c-0.4,0.2-0.7,0.3-1.2,0.4S89.9,121.2,89.3,121.2z M89,114.9c-0.4,0-0.8,0.1-1,0.4
		c-0.2,0.3-0.4,0.7-0.4,1.2h2.9c0-0.5-0.1-0.9-0.4-1.2S89.5,114.9,89,114.9z"/>
	<path id="XMLID_94_" class="st1" d="M100.8,119.6c0.4,0,0.8-0.1,1.3-0.2v1.5c-0.5,0.2-1.1,0.3-1.9,0.3c-0.8,0-1.4-0.2-1.8-0.6
		c-0.4-0.4-0.6-1-0.6-1.9v-3.6h-1v-0.9l1.1-0.7l0.6-1.6h1.3v1.6h2.1v1.5h-2.1v3.6c0,0.3,0.1,0.5,0.2,0.6
		C100.3,119.5,100.6,119.6,100.8,119.6z"/>
	<path id="XMLID_91_" class="st1" d="M103.6,111.6c0-0.7,0.4-1,1.1-1c0.7,0,1.1,0.3,1.1,1c0,0.3-0.1,0.6-0.3,0.7
		c-0.2,0.2-0.5,0.3-0.8,0.3C103.9,112.6,103.6,112.3,103.6,111.6z M105.7,121.1h-2.1v-7.5h2.1V121.1z"/>
	<path id="XMLID_86_" class="st1" d="M111.3,121.2c-1.2,0-2.2-0.3-2.8-1c-0.7-0.7-1-1.6-1-2.8c0-1.3,0.3-2.2,0.9-2.9
		c0.6-0.7,1.5-1,2.6-1c1.1,0,1.9,0.3,2.5,0.9c0.6,0.6,0.9,1.4,0.9,2.5v1h-4.9c0,0.6,0.2,1,0.5,1.4s0.8,0.5,1.4,0.5
		c0.5,0,0.9,0,1.3-0.1c0.4-0.1,0.8-0.2,1.3-0.5v1.6c-0.4,0.2-0.7,0.3-1.2,0.4S111.9,121.2,111.3,121.2z M113.5,112.7h-1.1
		c-0.5-0.3-1-0.7-1.4-1.1c-0.5,0.5-1,0.8-1.4,1.1h-1.1v-0.2c0.5-0.6,1-1.2,1.5-1.9h2.1c0.2,0.4,0.5,0.7,0.8,1.1
		c0.3,0.4,0.5,0.6,0.6,0.8V112.7z M111,114.9c-0.4,0-0.8,0.1-1,0.4s-0.4,0.7-0.4,1.2h2.9c0-0.5-0.1-0.9-0.4-1.2
		S111.4,114.9,111,114.9z M112.9,111.2c0.4-0.4,0.7-0.9,0.9-1.4h1.6v0.1c-0.3,0.4-0.8,0.9-1.5,1.4h-1V111.2z"/>
	<path id="XMLID_84_" class="st1" d="M119.2,119.6c0.4,0,0.8-0.1,1.3-0.2v1.5c-0.5,0.2-1.1,0.3-1.9,0.3c-0.8,0-1.4-0.2-1.8-0.6
		c-0.4-0.4-0.6-1-0.6-1.9v-3.6h-1v-0.9l1.1-0.7l0.6-1.6h1.3v1.6h2.1v1.5h-2.1v3.6c0,0.3,0.1,0.5,0.2,0.6
		C118.7,119.5,119,119.6,119.2,119.6z"/>
	<path id="XMLID_82_" class="st1" d="M127.6,117l0.9-1.1l2.1-2.3h2.3l-3,3.3l3.2,4.3h-2.4l-2.2-3.1l-0.9,0.7v2.4h-2.1v-10.5h2.1v4.7
		L127.6,117L127.6,117z"/>
	<path id="XMLID_79_" class="st1" d="M134.1,111.6c0-0.7,0.4-1,1.1-1s1.1,0.3,1.1,1c0,0.3-0.1,0.6-0.3,0.7c-0.2,0.2-0.5,0.3-0.8,0.3
		C134.5,112.6,134.1,112.3,134.1,111.6z M136.3,121.1h-2.1v-7.5h2.1V121.1z"/>
	<path id="XMLID_74_" class="st1" d="M141.9,121.2c-1.2,0-2.2-0.3-2.8-1s-1-1.6-1-2.8c0-1.3,0.3-2.2,0.9-2.9c0.6-0.7,1.5-1,2.6-1
		c1.1,0,1.9,0.3,2.5,0.9c0.6,0.6,0.9,1.4,0.9,2.5v1h-4.9c0,0.6,0.2,1,0.5,1.4c0.3,0.3,0.8,0.5,1.4,0.5c0.5,0,0.9,0,1.3-0.1
		c0.4-0.1,0.8-0.2,1.3-0.5v1.6c-0.4,0.2-0.7,0.3-1.2,0.4S142.4,121.2,141.9,121.2z M143,112.7c-0.7-0.4-1.2-0.8-1.6-1.2
		c-0.4,0.4-0.9,0.8-1.5,1.2h-1.4v-0.2c0.9-0.9,1.4-1.5,1.7-2h2.4c0.1,0.2,0.4,0.6,0.7,1c0.3,0.4,0.7,0.8,1,1.1v0.2H143z
		 M141.6,114.9c-0.4,0-0.8,0.1-1,0.4s-0.4,0.7-0.4,1.2h2.9c0-0.5-0.1-0.9-0.4-1.2S142,114.9,141.6,114.9z M140.3,123
		c0-0.7,0.4-1,1.1-1s1.1,0.3,1.1,1c0,0.3-0.1,0.6-0.3,0.7c-0.2,0.2-0.5,0.3-0.8,0.3C140.7,124,140.3,123.7,140.3,123z"/>
	<path id="XMLID_72_" class="st1" d="M153.4,121.1h-2.1v-4.4c0-0.5-0.1-1-0.3-1.2c-0.2-0.3-0.5-0.4-0.9-0.4c-0.5,0-0.9,0.2-1.1,0.6
		s-0.4,1-0.4,1.9v3.6h-2.1v-7.5h1.6l0.3,1h0.1c0.2-0.3,0.5-0.6,0.9-0.8c0.4-0.2,0.8-0.3,1.3-0.3c1.1,0,1.9,0.4,2.3,1.1h0.2
		c0.2-0.4,0.5-0.6,0.9-0.8c0.4-0.2,0.8-0.3,1.3-0.3c0.9,0,1.5,0.2,1.9,0.7s0.7,1.1,0.7,2.1v4.9H156v-4.4c0-0.5-0.1-1-0.3-1.2
		c-0.2-0.3-0.5-0.4-0.9-0.4c-0.5,0-0.9,0.2-1.1,0.5c-0.3,0.4-0.4,0.9-0.4,1.7V121.1z"/>
	<path id="XMLID_70_" class="st1" d="M58.5,135.9c0.4,0,0.8-0.1,1.3-0.2v1.5c-0.5,0.2-1.1,0.3-1.9,0.3c-0.8,0-1.4-0.2-1.8-0.6
		c-0.4-0.4-0.6-1-0.6-1.9v-3.6h-1v-0.9l1.1-0.7l0.6-1.6h1.3v1.6h2.1v1.5h-2.1v3.6c0,0.3,0.1,0.5,0.2,0.6
		C58,135.9,58.2,135.9,58.5,135.9z"/>
	<path id="XMLID_68_" class="st1" d="M65.5,129.8c0.3,0,0.5,0,0.7,0.1l-0.2,1.9c-0.2,0-0.4-0.1-0.6-0.1c-0.7,0-1.2,0.2-1.5,0.5
		c-0.4,0.3-0.6,0.8-0.6,1.4v3.8h-2.1v-7.5h1.6l0.3,1.3h0.1c0.2-0.4,0.6-0.8,0.9-1S65.1,129.8,65.5,129.8z"/>
	<path id="XMLID_66_" class="st1" d="M72.9,137.5l-0.3-1h-0.1c-0.2,0.4-0.5,0.6-0.9,0.8c-0.4,0.2-0.9,0.3-1.4,0.3
		c-0.9,0-1.6-0.2-2-0.7c-0.5-0.5-0.7-1.2-0.7-2v-4.9h2.1v4.4c0,0.5,0.1,1,0.3,1.2c0.2,0.3,0.5,0.4,0.9,0.4c0.6,0,1-0.2,1.2-0.6
		c0.3-0.4,0.4-1,0.4-1.9v-3.6h2.1v7.5H72.9z"/>
	<path id="XMLID_64_" class="st1" d="M83.6,137.5h-2.1V133c0-0.5-0.1-1-0.3-1.2c-0.2-0.3-0.5-0.4-0.9-0.4c-0.6,0-1,0.2-1.2,0.6
		c-0.3,0.4-0.4,1-0.4,1.9v3.6h-2.1v-7.5h1.6l0.3,1h0.1c0.2-0.4,0.5-0.6,0.9-0.8c0.4-0.2,0.9-0.3,1.4-0.3c0.9,0,1.5,0.2,2,0.7
		c0.5,0.5,0.7,1.2,0.7,2.1V137.5z"/>
	<path id="XMLID_61_" class="st1" d="M92.4,137.5c0,1.1-0.3,1.9-0.9,2.5c-0.6,0.6-1.6,0.8-2.8,0.8c-1.1,0-2-0.1-2.8-0.4v-1.6
		c0.9,0.4,1.9,0.6,2.9,0.6c1.1,0,1.6-0.6,1.6-1.7v-0.1l0.1-0.9h-0.1c-0.5,0.7-1.2,1.1-2.1,1.1c-0.9,0-1.6-0.3-2.1-1
		c-0.5-0.7-0.7-1.6-0.7-2.8c0-1.2,0.3-2.2,0.8-2.9c0.5-0.7,1.2-1,2.1-1c0.9,0,1.7,0.4,2.2,1.1h0.1l0.2-1h1.7V137.5z M88.9,136
		c0.6,0,0.9-0.2,1.2-0.5c0.2-0.3,0.4-0.8,0.4-1.5v-0.2c0-0.8-0.1-1.4-0.4-1.7c-0.2-0.4-0.7-0.5-1.2-0.5c-1,0-1.5,0.8-1.5,2.3
		c0,0.8,0.1,1.3,0.4,1.7C88,135.8,88.4,136,88.9,136z"/>
	<path id="XMLID_58_" class="st1" d="M102.3,129.8c0.9,0,1.6,0.3,2.1,1c0.5,0.7,0.8,1.6,0.8,2.9c0,1.2-0.3,2.2-0.8,2.9
		c-0.5,0.7-1.2,1-2.1,1c-0.9,0-1.6-0.3-2.1-1H100l-0.3,0.8h-1.6v-10.5h2.1v2.4c0,0.3,0,0.8-0.1,1.5h0.1
		C100.7,130.1,101.4,129.8,102.3,129.8z M101.6,131.4c-0.5,0-0.9,0.2-1.1,0.5c-0.2,0.3-0.4,0.8-0.4,1.5v0.2c0,0.8,0.1,1.4,0.4,1.7
		c0.2,0.4,0.6,0.5,1.1,0.5c0.4,0,0.8-0.2,1-0.6c0.2-0.4,0.4-1,0.4-1.7c0-0.7-0.1-1.3-0.4-1.7C102.4,131.6,102.1,131.4,101.6,131.4z"
		/>
	<path id="XMLID_55_" class="st1" d="M107.6,129.1c-0.3-0.2-0.7-0.5-1.2-1c-0.5-0.4-1-0.8-1.3-1.1v-0.1h2.3c0.3,0.5,0.8,1.1,1.6,2
		v0.2H107.6z M108.9,137.5h-2.1v-7.5h2.1V137.5z"/>
	<path id="XMLID_53_" class="st1" d="M118,137.5H116V133c0-0.5-0.1-1-0.3-1.2c-0.2-0.3-0.5-0.4-0.9-0.4c-0.6,0-1,0.2-1.2,0.6
		c-0.3,0.4-0.4,1-0.4,1.9v3.6h-2.1v-7.5h1.6l0.3,1h0.1c0.2-0.4,0.5-0.6,0.9-0.8c0.4-0.2,0.9-0.3,1.4-0.3c0.9,0,1.5,0.2,2,0.7
		c0.5,0.5,0.7,1.2,0.7,2.1V137.5z"/>
	<path id="XMLID_51_" class="st1" d="M127.1,137.5h-2.1V133c0-1.1-0.4-1.6-1.2-1.6c-0.6,0-1,0.2-1.2,0.6s-0.4,1-0.4,1.9v3.6h-2.1
		v-10.5h2.1v2.1c0,0.2,0,0.6,0,1.2l0,0.6h0.1c0.5-0.7,1.2-1.1,2.2-1.1c0.9,0,1.6,0.2,2,0.7c0.5,0.5,0.7,1.2,0.7,2.1V137.5z"/>
</g>
<g id="XMLID_16_">
	<path id="XMLID_48_" class="st1" d="M58,210c-2.3,0-3.5-1.3-3.5-3.9c0-1.3,0.3-2.3,1-2.9s1.6-1,2.7-1c0.9,0,1.7,0.2,2.3,0.5
		l-0.6,1.6c-0.3-0.1-0.6-0.2-0.9-0.3c-0.3-0.1-0.6-0.1-0.8-0.1c-1.1,0-1.6,0.8-1.6,2.3c0,1.5,0.5,2.2,1.6,2.2c0.4,0,0.8-0.1,1.1-0.2
		s0.7-0.3,1-0.5v1.8c-0.3,0.2-0.7,0.4-1,0.4S58.5,210,58,210z"/>
	<path id="XMLID_46_" class="st1" d="M69,209.8h-2.1v-4.4c0-1.1-0.4-1.6-1.2-1.6c-0.6,0-1,0.2-1.2,0.6s-0.4,1-0.4,1.9v3.6H62v-10.5
		h2.1v2.1c0,0.2,0,0.6,0,1.2l0,0.6h0.1c0.5-0.7,1.2-1.1,2.2-1.1c0.9,0,1.6,0.2,2,0.7c0.5,0.5,0.7,1.2,0.7,2.1V209.8z"/>
	<path id="XMLID_43_" class="st1" d="M71,200.3c0-0.7,0.4-1,1.1-1s1.1,0.3,1.1,1c0,0.3-0.1,0.6-0.3,0.7c-0.2,0.2-0.5,0.3-0.8,0.3
		C71.4,201.3,71,201,71,200.3z M73.2,209.8h-2.1v-7.5h2.1V209.8z"/>
	<path id="XMLID_40_" class="st1" d="M83.1,210c-0.9,0-1.6-0.3-2.1-1h-0.1c0.1,0.6,0.1,1,0.1,1.1v3.1h-2.1v-10.9h1.7l0.3,1H81
		c0.5-0.7,1.2-1.1,2.1-1.1c0.9,0,1.6,0.3,2.1,1c0.5,0.7,0.8,1.6,0.8,2.9c0,0.8-0.1,1.5-0.4,2.1c-0.2,0.6-0.6,1-1,1.4
		C84.2,209.8,83.6,210,83.1,210z M82.5,203.8c-0.5,0-0.9,0.2-1.1,0.5c-0.2,0.3-0.4,0.8-0.4,1.5v0.2c0,0.8,0.1,1.4,0.4,1.7
		c0.2,0.4,0.6,0.5,1.1,0.5c0.9,0,1.4-0.8,1.4-2.3c0-0.7-0.1-1.3-0.3-1.7C83.3,204,82.9,203.8,82.5,203.8z"/>
	<path id="XMLID_38_" class="st1" d="M94.6,209.8h-2.1v-4.4c0-1.1-0.4-1.6-1.2-1.6c-0.6,0-1,0.2-1.2,0.6s-0.4,1-0.4,1.9v3.6h-2.1
		v-10.5h2.1v2.1c0,0.2,0,0.6,0,1.2l0,0.6h0.1c0.5-0.7,1.2-1.1,2.2-1.1c0.9,0,1.6,0.2,2,0.7c0.5,0.5,0.7,1.2,0.7,2.1V209.8z"/>
	<path id="XMLID_35_" class="st1" d="M96.7,201.4v-0.2c0.8-0.9,1.3-1.6,1.6-2h2.3v0.1c-0.2,0.2-0.6,0.6-1.2,1s-1,0.8-1.3,1H96.7z
		 M98.8,209.8h-2.1v-7.5h2.1V209.8z"/>
	<path id="XMLID_33_" class="st1" d="M111.3,209.8h-2.1v-4.4c0-0.5-0.1-1-0.3-1.2c-0.2-0.3-0.5-0.4-0.9-0.4c-0.5,0-0.9,0.2-1.1,0.6
		s-0.4,1-0.4,1.9v3.6h-2.1v-7.5h1.6l0.3,1h0.1c0.2-0.3,0.5-0.6,0.9-0.8c0.4-0.2,0.8-0.3,1.3-0.3c1.1,0,1.9,0.4,2.3,1.1h0.2
		c0.2-0.4,0.5-0.6,0.9-0.8c0.4-0.2,0.8-0.3,1.3-0.3c0.9,0,1.5,0.2,1.9,0.7c0.4,0.4,0.7,1.1,0.7,2.1v4.9H114v-4.4
		c0-0.5-0.1-1-0.3-1.2c-0.2-0.3-0.5-0.4-0.9-0.4c-0.5,0-0.9,0.2-1.1,0.5c-0.2,0.4-0.4,0.9-0.4,1.7V209.8z"/>
	<path id="XMLID_31_" class="st1" d="M123.5,209.8l-0.3-1h-0.1c-0.2,0.4-0.5,0.6-0.9,0.8c-0.4,0.2-0.9,0.3-1.4,0.3
		c-0.9,0-1.6-0.2-2-0.7c-0.5-0.5-0.7-1.2-0.7-2v-4.9h2.1v4.4c0,0.5,0.1,1,0.3,1.2c0.2,0.3,0.5,0.4,0.9,0.4c0.6,0,1-0.2,1.2-0.6
		c0.3-0.4,0.4-1,0.4-1.9v-3.6h2.1v7.5H123.5z"/>
	<path id="XMLID_28_" class="st1" d="M132,209.8l-0.4-1h-0.1c-0.3,0.4-0.7,0.7-1.1,0.9c-0.4,0.2-0.8,0.3-1.4,0.3
		c-0.7,0-1.3-0.2-1.7-0.6c-0.4-0.4-0.6-1-0.6-1.8c0-0.8,0.3-1.4,0.8-1.8s1.4-0.6,2.5-0.6l1.3,0v-0.3c0-0.8-0.4-1.1-1.2-1.1
		c-0.6,0-1.3,0.2-2.1,0.5l-0.7-1.4c0.9-0.5,1.8-0.7,2.9-0.7c1,0,1.8,0.2,2.3,0.7c0.5,0.4,0.8,1.1,0.8,2v5H132z M131.4,206.3l-0.8,0
		c-0.6,0-1,0.1-1.3,0.3c-0.3,0.2-0.4,0.5-0.4,0.9c0,0.6,0.3,0.9,1,0.9c0.5,0,0.9-0.1,1.1-0.4c0.3-0.3,0.4-0.6,0.4-1.1V206.3z"/>
	<path id="XMLID_26_" class="st1" d="M144.4,207.6c0,0.8-0.3,1.4-0.8,1.8c-0.5,0.4-1.3,0.6-2.4,0.6c-0.5,0-1,0-1.4-0.1
		c-0.4-0.1-0.7-0.2-1.1-0.3v-1.7c0.4,0.2,0.8,0.3,1.3,0.5s0.9,0.2,1.3,0.2c0.7,0,1.1-0.2,1.1-0.6c0-0.2,0-0.3-0.1-0.4
		c-0.1-0.1-0.3-0.2-0.5-0.3c-0.2-0.1-0.6-0.3-1-0.4c-0.6-0.2-1-0.5-1.3-0.7c-0.3-0.2-0.5-0.4-0.6-0.7c-0.1-0.3-0.2-0.6-0.2-1
		c0-0.7,0.3-1.2,0.8-1.6c0.5-0.4,1.3-0.6,2.2-0.6c0.9,0,1.8,0.2,2.7,0.6l-0.6,1.5c-0.4-0.2-0.7-0.3-1.1-0.4s-0.7-0.2-1-0.2
		c-0.6,0-0.9,0.2-0.9,0.5c0,0.2,0.1,0.3,0.3,0.5c0.2,0.1,0.6,0.3,1.3,0.6c0.6,0.2,1,0.5,1.3,0.7c0.3,0.2,0.5,0.4,0.6,0.7
		S144.4,207.2,144.4,207.6z"/>
	<path id="XMLID_21_" class="st1" d="M150.8,209.8l-0.4-1h-0.1c-0.3,0.4-0.7,0.7-1.1,0.9s-0.8,0.3-1.4,0.3c-0.7,0-1.3-0.2-1.7-0.6
		c-0.4-0.4-0.6-1-0.6-1.8c0-0.8,0.3-1.4,0.8-1.8c0.6-0.4,1.4-0.6,2.5-0.6l1.3,0v-0.3c0-0.8-0.4-1.1-1.2-1.1c-0.6,0-1.3,0.2-2.1,0.5
		l-0.7-1.4c0.9-0.5,1.8-0.7,2.9-0.7c1,0,1.8,0.2,2.3,0.7c0.5,0.4,0.8,1.1,0.8,2v5H150.8z M151.6,199.2c0,0.7-0.3,1.3-0.7,1.7
		c-0.4,0.4-1,0.6-1.7,0.6c-0.7,0-1.3-0.2-1.7-0.6s-0.6-1-0.7-1.7h1c0,0.4,0.2,0.7,0.4,0.9c0.3,0.2,0.6,0.3,1,0.3
		c0.4,0,0.7-0.1,1-0.3s0.4-0.5,0.4-0.8H151.6z M150.2,206.3l-0.8,0c-0.6,0-1,0.1-1.3,0.3c-0.3,0.2-0.4,0.5-0.4,0.9
		c0,0.6,0.3,0.9,1,0.9c0.5,0,0.9-0.1,1.1-0.4c0.3-0.3,0.4-0.6,0.4-1.1V206.3z M148.5,199.5c0.3-0.5,0.6-0.9,0.8-1.4h1.5v0.1
		c-0.4,0.5-0.9,1-1.4,1.4h-0.9V199.5z"/>
	<path id="XMLID_19_" class="st1" d="M161.2,209.8h-2.1v-4.4c0-0.5-0.1-1-0.3-1.2c-0.2-0.3-0.5-0.4-0.9-0.4c-0.5,0-0.9,0.2-1.1,0.6
		s-0.4,1-0.4,1.9v3.6h-2.1v-7.5h1.6l0.3,1h0.1c0.2-0.3,0.5-0.6,0.9-0.8c0.4-0.2,0.8-0.3,1.3-0.3c1.1,0,1.9,0.4,2.3,1.1h0.2
		c0.2-0.4,0.5-0.6,0.9-0.8c0.4-0.2,0.8-0.3,1.3-0.3c0.9,0,1.5,0.2,1.9,0.7c0.4,0.4,0.7,1.1,0.7,2.1v4.9h-2.1v-4.4
		c0-0.5-0.1-1-0.3-1.2c-0.2-0.3-0.5-0.4-0.9-0.4c-0.5,0-0.9,0.2-1.1,0.5c-0.2,0.4-0.4,0.9-0.4,1.7V209.8z"/>
	<path id="XMLID_17_" class="st1" d="M167.7,208.9c0-0.4,0.1-0.7,0.3-0.9c0.2-0.2,0.5-0.3,0.9-0.3c0.4,0,0.7,0.1,0.9,0.3
		s0.3,0.5,0.3,0.9c0,0.4-0.1,0.6-0.3,0.8c-0.2,0.2-0.5,0.3-0.9,0.3c-0.4,0-0.7-0.1-0.9-0.3S167.7,209.2,167.7,208.9z"/>
</g>
</svg>