<!-- Generator: Adobe Illustrator 19.0.0, SVG Export Plug-In  -->
<svg version="1.1"
	 xmlns="http://www.w3.org/2000/svg" xmlns:xlink="http://www.w3.org/1999/xlink" xmlns:a="http://ns.adobe.com/AdobeSVGViewerExtensions/3.0/"
	 x="0px" y="0px" width="288.2px" height="79.7px" viewBox="0 0 288.2 79.7"
	 style="overflow:scroll;enable-background:new 0 0 288.2 79.7;" xml:space="preserve">
<style type="text/css">
	.st0{fill:#FF6633;}
	.st1{fill:#FFFFFF;}
	.st2{fill:none;stroke:#FFFFFF;stroke-width:2;stroke-linecap:round;stroke-linejoin:round;stroke-miterlimit:10;}
	.st3{fill:none;stroke:#FFFFFF;stroke-linecap:round;stroke-linejoin:round;stroke-miterlimit:10;}
	.st4{fill:none;stroke:#FF6633;stroke-width:2;stroke-miterlimit:10;}
	.st5{fill:#FFFFFF;stroke:#FFFFFF;stroke-width:0.4;stroke-miterlimit:10;}
</style>
<defs>
</defs>
<circle id="XMLID_160_" class="st0" cx="8.4" cy="25.1" r="8.4"/>
<g id="XMLID_157_">
	<path id="XMLID_158_" class="st1" d="M7.8,23.9c0.8,0,1.5,0.2,2,0.7s0.7,1.1,0.7,1.9c0,1-0.3,1.7-0.9,2.2s-1.3,0.8-2.4,0.8
		c-1,0-2.2-0.2-2.2-0.5v-1.6c0,0.2,0.6,0.3,1,0.4S6.7,28,7.1,28c1.1,0,1.6-0.5,1.6-1.4c0-0.9-0.6-1.3-1.7-1.3c-0.2,0-0.4,0-0.7,0.1
		s-0.5,0.1-0.6,0.1L5,24.9l0.3-4.6H10v2H6.9L6.7,24l0.2,0C7.2,23.9,7.5,23.9,7.8,23.9z"/>
</g>
<g id="XMLID_154_">
	<polygon id="XMLID_156_" class="st2" points="260.1,36.3 254.1,36.3 261.7,22.7 262.3,21.3 257.4,21.3 263.4,11.2 269.3,1 
		275.3,11.1 281.2,21.3 276.3,21.3 276.9,22.7 284.5,36.3 279.1,36.3 287.2,50.1 269.6,50 252,50.2 	"/>
	<line id="XMLID_155_" class="st2" x1="270" y1="50.3" x2="270" y2="65.3"/>
</g>
<g id="XMLID_124_">
	<line id="XMLID_153_" class="st3" x1="226.9" y1="43.5" x2="227.3" y2="79.2"/>
	<line id="XMLID_152_" class="st3" x1="244.9" y1="61.9" x2="209.2" y2="62.2"/>
	<line id="XMLID_151_" class="st3" x1="216.6" y1="51.5" x2="238.6" y2="73"/>
	<line id="XMLID_150_" class="st3" x1="237.8" y1="51.2" x2="216.3" y2="73.2"/>
	<circle id="XMLID_149_" class="st3" cx="227.3" cy="62.2" r="3.3"/>
	<g id="XMLID_144_">
		<line id="XMLID_148_" class="st3" x1="230.1" y1="46.8" x2="227" y2="49.9"/>
		<line id="XMLID_147_" class="st3" x1="230" y1="44.4" x2="227" y2="47.5"/>
		<line id="XMLID_146_" class="st3" x1="223.6" y1="46.9" x2="226.7" y2="49.9"/>
		<line id="XMLID_145_" class="st3" x1="223.5" y1="44.4" x2="226.7" y2="47.5"/>
	</g>
	<g id="XMLID_139_">
		<line id="XMLID_143_" class="st3" x1="223.9" y1="75.6" x2="226.9" y2="72.5"/>
		<line id="XMLID_142_" class="st3" x1="223.9" y1="78.1" x2="226.9" y2="74.9"/>
		<line id="XMLID_141_" class="st3" x1="230.4" y1="75.5" x2="227.3" y2="72.5"/>
		<line id="XMLID_140_" class="st3" x1="230.4" y1="78" x2="227.3" y2="74.9"/>
	</g>
	<g id="XMLID_134_">
		<line id="XMLID_138_" class="st3" x1="211.9" y1="59.2" x2="215" y2="62.2"/>
		<line id="XMLID_137_" class="st3" x1="209.5" y1="59.2" x2="212.6" y2="62.2"/>
		<line id="XMLID_136_" class="st3" x1="212" y1="65.7" x2="215" y2="62.5"/>
		<line id="XMLID_135_" class="st3" x1="209.5" y1="65.7" x2="212.6" y2="62.6"/>
	</g>
	<g id="XMLID_129_">
		<line id="XMLID_133_" class="st3" x1="240.2" y1="65.4" x2="237.1" y2="62.3"/>
		<line id="XMLID_132_" class="st3" x1="242.6" y1="65.3" x2="239.5" y2="62.3"/>
		<line id="XMLID_131_" class="st3" x1="240.1" y1="58.9" x2="237.1" y2="62"/>
		<line id="XMLID_130_" class="st3" x1="242.6" y1="58.8" x2="239.5" y2="61.9"/>
	</g>
	<circle id="XMLID_128_" class="st3" cx="214.6" cy="75.3" r="0.9"/>
	<circle id="XMLID_127_" class="st3" cx="214.8" cy="50.1" r="0.9"/>
	<circle id="XMLID_126_" class="st3" cx="239.4" cy="50.2" r="0.9"/>
	<circle id="XMLID_125_" class="st3" cx="240.3" cy="74.7" r="0.9"/>
</g>
<g id="XMLID_94_">
	<line id="XMLID_123_" class="st4" x1="221.3" y1="0.1" x2="221.6" y2="35.8"/>
	<line id="XMLID_122_" class="st4" x1="239.3" y1="18.5" x2="203.6" y2="18.8"/>
	<line id="XMLID_121_" class="st4" x1="211" y1="8.1" x2="233" y2="29.6"/>
	<line id="XMLID_120_" class="st4" x1="232.2" y1="7.8" x2="210.7" y2="29.8"/>
	<circle id="XMLID_119_" class="st4" cx="221.7" cy="18.8" r="3.3"/>
	<g id="XMLID_114_">
		<line id="XMLID_118_" class="st4" x1="224.4" y1="3.4" x2="221.4" y2="6.5"/>
		<line id="XMLID_117_" class="st4" x1="224.4" y1="1" x2="221.4" y2="4.1"/>
		<line id="XMLID_116_" class="st4" x1="217.9" y1="3.5" x2="221.1" y2="6.5"/>
		<line id="XMLID_115_" class="st4" x1="217.9" y1="1" x2="221" y2="4.1"/>
	</g>
	<g id="XMLID_109_">
		<line id="XMLID_113_" class="st4" x1="218.2" y1="32.2" x2="221.3" y2="29.1"/>
		<line id="XMLID_112_" class="st4" x1="218.3" y1="34.7" x2="221.3" y2="31.5"/>
		<line id="XMLID_111_" class="st4" x1="224.8" y1="32.1" x2="221.6" y2="29.1"/>
		<line id="XMLID_110_" class="st4" x1="224.8" y1="34.6" x2="221.7" y2="31.5"/>
	</g>
	<g id="XMLID_104_">
		<line id="XMLID_108_" class="st4" x1="206.3" y1="15.7" x2="209.4" y2="18.8"/>
		<line id="XMLID_107_" class="st4" x1="203.8" y1="15.8" x2="207" y2="18.8"/>
		<line id="XMLID_106_" class="st4" x1="206.4" y1="22.3" x2="209.4" y2="19.1"/>
		<line id="XMLID_105_" class="st4" x1="203.9" y1="22.3" x2="207" y2="19.2"/>
	</g>
	<g id="XMLID_99_">
		<line id="XMLID_103_" class="st4" x1="234.6" y1="22" x2="231.4" y2="18.9"/>
		<line id="XMLID_102_" class="st4" x1="237" y1="21.9" x2="233.9" y2="18.9"/>
		<line id="XMLID_101_" class="st4" x1="234.5" y1="15.5" x2="231.4" y2="18.6"/>
		<line id="XMLID_100_" class="st4" x1="237" y1="15.4" x2="233.9" y2="18.5"/>
	</g>
	<circle id="XMLID_98_" class="st4" cx="209" cy="31.9" r="0.9"/>
	<circle id="XMLID_97_" class="st4" cx="209.2" cy="6.7" r="0.9"/>
	<circle id="XMLID_96_" class="st4" cx="233.8" cy="6.8" r="0.9"/>
	<circle id="XMLID_95_" class="st4" cx="234.7" cy="31.3" r="0.9"/>
</g>
<g id="XMLID_15_">
	<g id="XMLID_17_">
		<path id="XMLID_54_" class="st5" d="M33.2,21c0.1,0,0.2,0,0.4,0s0.4,0.1,0.6,0.1s0.5,0.2,0.7,0.3s0.5,0.3,0.7,0.6s0.4,0.5,0.5,0.9
			s0.2,0.8,0.2,1.3v3.1c0,0.6-0.2,1.1-0.4,1.6c-0.1,0.2-0.2,0.4-0.4,0.6s-0.3,0.4-0.6,0.5s-0.5,0.3-0.8,0.4s-0.6,0.1-1,0.1
			c-0.4,0-0.8,0-1.1-0.1s-0.6-0.2-0.8-0.4s-0.4-0.3-0.6-0.5s-0.3-0.4-0.4-0.6c0.1,0,0.1-0.1,0.2-0.1s0.2-0.1,0.3-0.2
			s0.2-0.1,0.3-0.2s0.2-0.1,0.3-0.1c0.1,0.3,0.2,0.5,0.4,0.6s0.4,0.2,0.5,0.3c0.2,0.1,0.4,0.1,0.7,0.1c0.3,0,0.6-0.1,0.9-0.3
			c0.1-0.1,0.2-0.1,0.3-0.2s0.2-0.2,0.3-0.3s0.1-0.3,0.2-0.4s0.1-0.4,0.1-0.6v-3.1c0-0.3-0.1-0.7-0.2-0.9c-0.1-0.1-0.1-0.2-0.2-0.3
			s-0.2-0.2-0.3-0.3s-0.3-0.2-0.4-0.2s-0.4-0.1-0.6-0.1c-0.3,0-0.6,0-0.8,0.1s-0.4,0.1-0.6,0.3s-0.3,0.3-0.4,0.5s-0.2,0.4-0.3,0.7
			h-1.4c0-0.4,0.1-0.8,0.3-1.2s0.4-0.7,0.7-0.9s0.6-0.4,1.1-0.6S32.5,21,33.2,21L33.2,21L33.2,21z"/>
		<path id="XMLID_52_" class="st5" d="M33.8,18v0.7h3.5V20h-4.2c-0.2,0-0.3,0-0.4-0.1c-0.1-0.1-0.1-0.1-0.2-0.2
			c0-0.1-0.1-0.2-0.1-0.3V18H33.8z"/>
		<path id="XMLID_50_" class="st5" d="M40.4,21.1V27c0,0.4,0.1,0.7,0.2,1s0.2,0.5,0.4,0.7s0.3,0.3,0.5,0.4s0.4,0.2,0.5,0.2
			s0.3,0.1,0.4,0.1s0.2,0,0.2,0c0.4,0,0.7-0.1,0.9-0.2s0.5-0.3,0.6-0.4s0.3-0.4,0.4-0.5s0.2-0.4,0.2-0.6s0.1-0.3,0.1-0.5
			s0-0.2,0-0.2v-5.9h1.4v9.4h-1.4v-1.3c0,0.2-0.1,0.3-0.1,0.5s-0.2,0.2-0.3,0.3s-0.2,0.2-0.4,0.3s-0.3,0.1-0.4,0.2
			c-0.3,0.1-0.7,0.2-1.1,0.2h-0.3c-0.5,0-1-0.1-1.4-0.2s-0.7-0.3-0.9-0.6s-0.4-0.5-0.6-0.8s-0.2-0.6-0.3-0.8S39,27.8,39,27.6
			s0-0.4,0-0.5V27v-5.9H40.4z"/>
		<path id="XMLID_48_" class="st5" d="M48.8,21.1h1.4v2.4h3.1c0.2,0,0.3-0.1,0.5-0.2c0.1-0.1,0.2-0.2,0.4-0.4s0.2-0.4,0.3-0.6v-1.2
			h1.4v1.4c0,0.1,0,0.2-0.1,0.3s-0.1,0.3-0.2,0.5s-0.2,0.3-0.3,0.5s-0.2,0.3-0.4,0.4c0.2,0.2,0.3,0.4,0.5,0.6
			c0.1,0.2,0.2,0.4,0.3,0.7s0.2,0.6,0.2,1v4.1h-1.4v-4.1c0-0.2-0.1-0.3-0.1-0.4s-0.1-0.3-0.1-0.4s-0.1-0.3-0.2-0.4s-0.2-0.2-0.3-0.3
			s-0.3-0.1-0.5-0.1h-3.1v5.7h-1.4V21.1z"/>
		<path id="XMLID_46_" class="st5" d="M65.4,21.1v6.8c0,0.4-0.1,0.7-0.2,1s-0.3,0.5-0.4,0.7s-0.4,0.4-0.6,0.5s-0.4,0.2-0.6,0.3
			s-0.4,0.1-0.6,0.1s-0.3,0-0.4,0h-1.8c-0.5,0-0.9,0-1.2-0.1s-0.6-0.2-0.8-0.4s-0.4-0.3-0.5-0.5s-0.2-0.4-0.3-0.6s-0.1-0.4-0.1-0.5
			s0-0.3,0-0.4c0-0.4,0.1-0.7,0.2-0.9s0.3-0.5,0.5-0.6s0.3-0.3,0.5-0.4s0.2-0.1,0.3-0.1c-0.2,0-0.4-0.1-0.5-0.2s-0.3-0.2-0.4-0.3
			s-0.2-0.2-0.3-0.3S58,24.9,58,24.8c-0.1-0.3-0.2-0.6-0.2-1c0-0.3,0-0.6,0.1-0.9s0.2-0.5,0.3-0.7s0.2-0.4,0.4-0.5s0.3-0.2,0.4-0.3
			c0.3-0.2,0.7-0.3,1.2-0.3H62v1.3h-1.1c-0.2,0-0.4,0-0.6,0.1s-0.3,0.1-0.4,0.2s-0.2,0.1-0.3,0.2s-0.1,0.2-0.2,0.3
			c-0.1,0.2-0.2,0.4-0.2,0.7c0,0.2,0,0.4,0.1,0.6s0.2,0.3,0.3,0.4s0.2,0.2,0.4,0.2s0.3,0.1,0.4,0.1s0.2,0,0.3,0s0.1,0,0.2,0H62v1.3
			h-1.1c-0.2,0-0.5,0-0.6,0.1s-0.3,0.1-0.4,0.2s-0.2,0.2-0.3,0.3s-0.1,0.2-0.1,0.3s0,0.2-0.1,0.2s0,0.1,0,0.1c0,0.2,0,0.4,0.1,0.6
			s0.1,0.3,0.2,0.4S59.9,29,60,29s0.2,0.1,0.4,0.1s0.2,0,0.3,0s0.2,0,0.2,0h0h1.7c0.3,0,0.6-0.1,0.8-0.2s0.3-0.3,0.4-0.5
			c0.1-0.2,0.2-0.4,0.2-0.7v-6.8H65.4z"/>
		<path id="XMLID_44_" class="st5" d="M64.4,32.8h-0.7v-1.3H65c0.2,0,0.3,0.1,0.5,0.2c0.1,0.1,0.2,0.3,0.2,0.5v2.8h-1.3V32.8z"/>
		<path id="XMLID_42_" class="st5" d="M74.4,30.5v-5.9c0-0.4-0.1-0.8-0.3-1.1c-0.1-0.1-0.2-0.3-0.3-0.4c-0.1-0.1-0.3-0.2-0.4-0.3
			c-0.2-0.1-0.4-0.2-0.6-0.2c-0.2-0.1-0.5-0.1-0.8-0.1s-0.6,0-0.8,0.1c-0.2,0.1-0.4,0.1-0.6,0.2s-0.3,0.2-0.4,0.3
			c-0.1,0.1-0.2,0.3-0.3,0.4c-0.2,0.3-0.3,0.7-0.3,1.1v3.1c0,0.2,0.1,0.4,0.1,0.6c0.1,0.2,0.1,0.3,0.2,0.5c0.1,0.2,0.2,0.3,0.4,0.4
			c0.2,0.1,0.4,0.2,0.6,0.2c0.2,0,0.3,0,0.5-0.1c0.1-0.1,0.2-0.2,0.3-0.2l0.9,0.9c-0.1,0.1-0.3,0.3-0.5,0.4
			c-0.2,0.1-0.3,0.2-0.5,0.3c-0.2,0.1-0.5,0.1-0.7,0.1c-0.1,0-0.2,0-0.3,0c-0.1,0-0.2,0-0.3,0c-0.3-0.1-0.6-0.2-0.9-0.4
			s-0.5-0.4-0.7-0.7c-0.2-0.3-0.3-0.5-0.4-0.9c-0.1-0.3-0.1-0.6-0.1-1v-3.1c0.1-0.6,0.2-1,0.3-1.4s0.4-0.7,0.6-1
			c0.2-0.3,0.5-0.5,0.8-0.6c0.3-0.2,0.5-0.3,0.8-0.3c0.3-0.1,0.5-0.1,0.7-0.1c0.2,0,0.4,0,0.5,0H72h0.1c0.1,0,0.3,0,0.5,0
			c0.2,0,0.4,0.1,0.7,0.1c0.3,0.1,0.5,0.2,0.8,0.3c0.3,0.2,0.5,0.4,0.8,0.6c0.2,0.3,0.4,0.6,0.6,1s0.3,0.9,0.4,1.4v5.9H74.4z"/>
		<path id="XMLID_40_" class="st5" d="M79.6,30.5h-1.4v-9.4h1.4V30.5z"/>
		<path id="XMLID_38_" class="st5" d="M87.9,30.5v-5.9c0-0.4-0.1-0.7-0.2-0.9c-0.1-0.3-0.2-0.5-0.4-0.6c-0.2-0.2-0.3-0.3-0.5-0.4
			c-0.2-0.1-0.4-0.2-0.5-0.2c-0.2,0-0.3-0.1-0.4-0.1c-0.1,0-0.2,0-0.2,0c-0.4,0-0.7,0.1-0.9,0.2c-0.3,0.1-0.5,0.2-0.6,0.4
			c-0.2,0.2-0.3,0.3-0.4,0.5c-0.1,0.2-0.2,0.4-0.2,0.5s-0.1,0.3-0.1,0.4s0,0.2,0,0.2v5.9H82v-9.4h1.4v1.3c0-0.2,0-0.3,0.1-0.5
			s0.2-0.2,0.3-0.3s0.2-0.2,0.4-0.2c0.1-0.1,0.3-0.1,0.4-0.2c0.3-0.1,0.7-0.2,1.1-0.2h0.3c0.5,0,1,0.1,1.4,0.2
			c0.4,0.1,0.7,0.3,0.9,0.6s0.4,0.5,0.6,0.8c0.1,0.3,0.3,0.5,0.3,0.8s0.1,0.5,0.1,0.7s0,0.4,0,0.5v0.1v5.9H87.9z"/>
		<path id="XMLID_36_" class="st5" d="M99.5,21c0,0-0.1,0.1-0.2,0.3s-0.2,0.3-0.4,0.4c-0.1,0.1-0.3,0.3-0.4,0.4
			c-0.1,0.1-0.3,0.2-0.3,0.2c0.2,0.2,0.3,0.5,0.5,0.7c0.1,0.3,0.2,0.5,0.2,0.7s0.1,0.4,0.1,0.6c0,0.2,0,0.3,0,0.4v0.1v5.7h-1.4v-5.7
			c0-0.3,0-0.6-0.1-0.8c-0.1-0.2-0.2-0.4-0.3-0.6c-0.1-0.2-0.2-0.3-0.4-0.4c-0.1-0.1-0.3-0.2-0.4-0.3c-0.3-0.2-0.7-0.3-1.1-0.3
			c-0.3,0-0.5,0-0.7,0.1c-0.2,0.1-0.4,0.2-0.5,0.3s-0.3,0.2-0.4,0.4c-0.1,0.1-0.2,0.3-0.3,0.4C93.2,24,93,24.4,93,24.8v0.9
			c0.3-0.2,0.6-0.3,0.9-0.4c0.3-0.1,0.6-0.1,1-0.1c0.3,0,0.6,0,0.9,0.1v1.5c-0.1-0.1-0.2-0.1-0.4-0.1c-0.1,0-0.3,0-0.5,0
			c-0.4,0-0.8,0.1-1.1,0.3c-0.2,0.1-0.3,0.2-0.4,0.4c-0.1,0.2-0.2,0.3-0.3,0.5v2.6h-1.4v-5.8c0-0.6,0.1-1.1,0.2-1.5
			c0.2-0.4,0.3-0.7,0.6-1s0.5-0.5,0.8-0.6c0.3-0.2,0.6-0.3,0.8-0.3c0.3-0.1,0.5-0.1,0.7-0.1c0.2,0,0.4,0,0.5,0h0.1
			c0.3,0,0.5,0,0.7,0s0.4,0.1,0.6,0.1c0,0,0.1,0,0.2,0c0.1,0,0.3-0.1,0.5-0.2c0.2-0.1,0.4-0.2,0.6-0.4s0.4-0.4,0.5-0.6
			c0.2,0.2,0.3,0.3,0.5,0.5c0.1,0.1,0.1,0.1,0.2,0.2c0.1,0.1,0.1,0.1,0.2,0.2C99.3,20.8,99.3,20.9,99.5,21
			C99.4,20.9,99.5,21,99.5,21z"/>
		<path id="XMLID_34_" class="st5" d="M101.5,30.5v-7.2c0.2-0.4,0.4-0.7,0.6-0.9s0.5-0.5,0.7-0.6c0.2-0.2,0.5-0.3,0.7-0.4
			s0.5-0.2,0.7-0.2s0.4-0.1,0.5-0.1c0.2,0,0.3,0,0.3,0h0.1c0.5,0,0.9,0.1,1.2,0.2c0.3,0.1,0.6,0.2,0.9,0.4c0.3,0.2,0.5,0.3,0.7,0.5
			c0.2,0.2,0.3,0.4,0.4,0.6c0.1,0.2,0.2,0.4,0.3,0.6c0.1,0.2,0.1,0.4,0.1,0.6c0,0.2,0.1,0.3,0.1,0.4c0,0.1,0,0.2,0,0.2v5.8h-1.4
			v-5.8c0-0.4-0.1-0.7-0.2-0.9c-0.1-0.3-0.2-0.5-0.4-0.6s-0.3-0.3-0.5-0.4c-0.2-0.1-0.4-0.2-0.5-0.2c-0.2,0-0.3-0.1-0.4-0.1
			c-0.1,0-0.2,0-0.2,0c-0.3,0-0.5,0-0.8,0.1c-0.2,0.1-0.4,0.1-0.6,0.3c-0.2,0.1-0.3,0.2-0.4,0.4c-0.1,0.1-0.2,0.3-0.3,0.4
			c-0.2,0.3-0.3,0.7-0.3,1.1v5.8H101.5z"/>
		<path id="XMLID_32_" class="st5" d="M112.5,21c0,0,0.1,0,0.3,0s0.3,0,0.5,0.1s0.4,0.1,0.6,0.2s0.4,0.3,0.6,0.5s0.3,0.5,0.4,0.8
			s0.2,0.7,0.2,1.2v6.7h-1.4v-6.7c0-0.3-0.1-0.5-0.1-0.7c0-0.1-0.1-0.2-0.1-0.3s-0.1-0.2-0.2-0.2s-0.2-0.1-0.3-0.2s-0.2-0.1-0.4-0.1
			c-0.2,0-0.4,0-0.6,0.1s-0.3,0.1-0.4,0.2s-0.2,0.1-0.3,0.2s-0.1,0.1-0.1,0.1l-1-1c0.2-0.2,0.3-0.4,0.6-0.5c0.2-0.1,0.4-0.2,0.7-0.4
			S112.1,21,112.5,21z"/>
		<path id="XMLID_30_" class="st5" d="M122.3,21.3c0.4,0.2,0.8,0.4,1,0.6s0.5,0.5,0.6,0.8s0.3,0.6,0.4,0.8s0.1,0.5,0.1,0.7
			s0,0.4,0,0.5v0.1v5.7h-1.4v-2.8c0-0.3-0.1-0.5-0.2-0.7s-0.3-0.3-0.5-0.5s-0.4-0.2-0.6-0.3s-0.4-0.1-0.6-0.1s-0.4-0.1-0.6-0.1
			c0,0-0.1,0-0.2,0s-0.2,0-0.4,0.1s-0.3,0.1-0.5,0.1s-0.3,0.2-0.5,0.3s-0.3,0.3-0.4,0.4s-0.2,0.4-0.3,0.7c0,0.1,0,0.2,0,0.2
			c0,0.2,0,0.4,0.1,0.5s0.2,0.3,0.4,0.4s0.3,0.2,0.5,0.2s0.4,0.1,0.6,0.1s0.4,0,0.5,0.1s0.3,0,0.4,0h0.1v1.3h-1.6
			c-0.3,0-0.6-0.1-0.9-0.2s-0.5-0.3-0.8-0.6s-0.4-0.5-0.5-0.8s-0.2-0.7-0.2-1c0-0.3,0.1-0.7,0.2-1.1s0.4-0.7,0.8-1
			c0.2-0.2,0.4-0.4,0.7-0.5s0.5-0.2,0.7-0.3s0.5-0.1,0.7-0.2s0.4-0.1,0.7-0.1c0.3,0,0.6,0,0.9,0.1s0.5,0.1,0.7,0.2
			c0.2,0.1,0.5,0.2,0.7,0.3v-0.5c0-0.3,0-0.6-0.1-0.8s-0.2-0.4-0.3-0.6s-0.2-0.3-0.4-0.4s-0.3-0.2-0.4-0.3c-0.3-0.2-0.7-0.3-1.1-0.3
			c-0.4,0-0.7,0.1-1,0.2s-0.5,0.3-0.7,0.5s-0.3,0.4-0.4,0.6s-0.2,0.4-0.2,0.6h-1.5c0-0.5,0.1-1,0.3-1.3s0.4-0.7,0.6-0.9
			s0.5-0.4,0.8-0.6s0.5-0.2,0.8-0.3s0.5-0.1,0.7-0.1s0.3,0,0.4,0h0.1C121.4,21,121.9,21.1,122.3,21.3z"/>
		<path id="XMLID_28_" class="st5" d="M134.1,21c0,0,0,0.1-0.1,0.1s-0.1,0.1-0.2,0.2s-0.2,0.2-0.3,0.3s-0.2,0.2-0.3,0.3
			s-0.2,0.2-0.3,0.2s-0.2,0.1-0.2,0.1c0.2,0.2,0.3,0.5,0.4,0.7s0.2,0.5,0.2,0.7s0.1,0.4,0.1,0.6s0,0.3,0,0.4v0.1v5.7h-1.4v-2.8
			c0-0.3-0.1-0.5-0.2-0.7s-0.3-0.3-0.5-0.5s-0.4-0.2-0.6-0.3s-0.4-0.1-0.6-0.1s-0.4-0.1-0.7-0.1c0,0-0.1,0-0.2,0s-0.2,0-0.4,0.1
			s-0.3,0.1-0.5,0.1s-0.3,0.2-0.5,0.3s-0.3,0.3-0.4,0.4s-0.2,0.4-0.3,0.7c0,0,0,0.1,0,0.1s0,0.1,0,0.1c0,0.2,0,0.4,0.1,0.5
			s0.2,0.3,0.4,0.4s0.3,0.2,0.5,0.2s0.4,0.1,0.6,0.1s0.4,0,0.5,0.1s0.3,0,0.4,0h0.1v1.3h-1.6c-0.3,0-0.6-0.1-0.9-0.2
			s-0.5-0.3-0.8-0.6s-0.4-0.5-0.5-0.8s-0.2-0.7-0.2-1c0-0.3,0.1-0.7,0.2-1.1s0.4-0.7,0.8-1c0.2-0.2,0.4-0.4,0.7-0.5s0.5-0.2,0.7-0.3
			s0.5-0.1,0.7-0.2s0.4-0.1,0.7-0.1c0.3,0,0.6,0,0.9,0.1s0.5,0.1,0.7,0.2c0.2,0.1,0.5,0.2,0.7,0.3v-0.5c0-0.3,0-0.6-0.1-0.8
			s-0.2-0.4-0.3-0.6s-0.2-0.3-0.4-0.4s-0.3-0.2-0.4-0.3c-0.3-0.2-0.7-0.3-1.1-0.3c-0.4,0-0.7,0.1-1,0.2s-0.5,0.3-0.7,0.5
			s-0.3,0.4-0.4,0.6s-0.2,0.4-0.2,0.6h-1.5c0-0.5,0.1-1,0.3-1.3s0.4-0.7,0.6-0.9s0.5-0.4,0.8-0.6s0.5-0.2,0.8-0.3s0.5-0.1,0.7-0.1
			s0.3,0,0.4,0h0.1c0.4,0,0.9,0.1,1.3,0.2c0.2,0,0.5-0.1,0.7-0.2c0.2-0.1,0.4-0.2,0.6-0.4s0.4-0.4,0.5-0.7l0.5,0.5
			c0.1,0.1,0.1,0.1,0.2,0.2s0.1,0.1,0.2,0.2S134,20.9,134.1,21C134.1,20.9,134.1,21,134.1,21z"/>
		<path id="XMLID_24_" class="st5" d="M131.5,17.1c0.2,0,0.4,0,0.6,0.1c0.2,0.1,0.4,0.2,0.5,0.4s0.3,0.3,0.4,0.5s0.1,0.4,0.1,0.6
			s0,0.4-0.1,0.6s-0.2,0.4-0.4,0.5s-0.3,0.3-0.5,0.4c-0.2,0.1-0.4,0.1-0.6,0.1s-0.4,0-0.6-0.1c-0.2-0.1-0.4-0.2-0.5-0.4
			s-0.3-0.3-0.4-0.5c-0.1-0.2-0.1-0.4-0.1-0.6s0-0.4,0.1-0.6c0.1-0.2,0.2-0.4,0.4-0.5s0.3-0.3,0.5-0.4
			C131.1,17.1,131.3,17.1,131.5,17.1z M131.5,19.3c0.2,0,0.3-0.1,0.4-0.2c0.1-0.1,0.2-0.2,0.2-0.4s-0.1-0.3-0.2-0.4
			c-0.1-0.1-0.2-0.2-0.4-0.2c-0.2,0-0.3,0.1-0.4,0.2s-0.2,0.2-0.2,0.4s0.1,0.3,0.2,0.4S131.4,19.3,131.5,19.3z M137.5,21
			c0,0,0.1,0,0.3,0s0.3,0,0.5,0.1s0.4,0.1,0.6,0.3s0.4,0.3,0.6,0.5s0.3,0.5,0.4,0.8s0.2,0.7,0.2,1.1v6.7h-1.4v-6.7
			c0-0.3-0.1-0.5-0.1-0.7c0-0.1-0.1-0.2-0.1-0.3s-0.1-0.2-0.2-0.2s-0.2-0.1-0.3-0.2s-0.2-0.1-0.4-0.1c-0.2,0-0.4,0-0.6,0.1
			s-0.3,0.1-0.4,0.2s-0.2,0.1-0.3,0.2s-0.1,0.1-0.1,0.1l-1-1c0.2-0.2,0.3-0.4,0.6-0.5c0.2-0.1,0.4-0.2,0.7-0.4S137.1,21,137.5,21z"
			/>
		<path id="XMLID_22_" class="st5" d="M147.6,21.3c0.4,0.2,0.8,0.4,1,0.6s0.5,0.5,0.6,0.8s0.3,0.6,0.4,0.8s0.1,0.5,0.1,0.7
			s0,0.4,0,0.5v0.1v5.7h-1.4v-5.7c0-0.3,0-0.6-0.1-0.8s-0.2-0.4-0.3-0.6s-0.2-0.3-0.4-0.4s-0.3-0.2-0.4-0.3
			c-0.3-0.2-0.7-0.3-1.1-0.3c-0.3,0-0.5,0-0.7,0.1s-0.4,0.2-0.5,0.3s-0.3,0.2-0.4,0.4s-0.2,0.3-0.3,0.4c-0.2,0.3-0.3,0.7-0.3,1.2v1
			c0.5-0.3,1.1-0.5,1.8-0.5c0.3,0,0.6,0,0.9,0.1v1.5c-0.1-0.1-0.2-0.1-0.4-0.1s-0.3,0-0.5,0c-0.4,0-0.8,0.1-1.1,0.3
			c-0.2,0.1-0.3,0.2-0.4,0.4s-0.2,0.3-0.3,0.5v2.6h-1.4v-5.8c0-0.6,0.1-1.1,0.2-1.5s0.3-0.7,0.6-1s0.5-0.5,0.8-0.6s0.6-0.3,0.8-0.3
			s0.5-0.1,0.7-0.1s0.4,0,0.5,0h0.1C146.7,21,147.2,21.1,147.6,21.3z"/>
		<path id="XMLID_20_" class="st5" d="M147.5,18v0.7h3.5V20h-4.2c-0.2,0-0.3,0-0.4-0.1s-0.1-0.1-0.2-0.2c0-0.1-0.1-0.2-0.1-0.3V18
			H147.5z"/>
		<path id="XMLID_18_" class="st5" d="M165.9,30.9c0,0.5-0.1,0.8-0.2,1.1s-0.3,0.6-0.4,0.8s-0.4,0.4-0.6,0.5s-0.4,0.2-0.6,0.3
			s-0.4,0.1-0.5,0.1s-0.2,0-0.3,0c-0.4,0-0.8-0.1-1-0.2s-0.5-0.2-0.7-0.4c-0.2-0.2-0.4-0.3-0.6-0.5l1-1.2c0,0,0.1,0.1,0.1,0.1
			s0.2,0.1,0.3,0.2s0.2,0.1,0.4,0.2s0.4,0.1,0.6,0.1c0.3,0,0.5-0.1,0.6-0.2s0.3-0.3,0.3-0.4c0.1-0.2,0.1-0.4,0.1-0.6v-1.7
			c0,0.2-0.1,0.3-0.1,0.4s-0.2,0.2-0.3,0.3s-0.2,0.2-0.4,0.3s-0.3,0.1-0.4,0.2c-0.3,0.1-0.7,0.2-1,0.2H162c-0.5,0-1-0.1-1.4-0.2
			s-0.7-0.3-0.9-0.6s-0.4-0.5-0.6-0.8s-0.2-0.6-0.3-0.8s-0.1-0.5-0.1-0.7s0-0.4,0-0.5v-2.4c0-0.4-0.1-0.7-0.2-0.9s-0.2-0.5-0.4-0.6
			s-0.3-0.3-0.5-0.4s-0.4-0.2-0.5-0.2s-0.3-0.1-0.4-0.1s-0.2,0-0.2,0c-0.3,0-0.5,0-0.7,0.1s-0.4,0.1-0.6,0.3s-0.3,0.2-0.4,0.4
			s-0.2,0.3-0.3,0.4c-0.2,0.3-0.3,0.7-0.3,1.1v2.9c0,0.3,0.1,0.6,0.2,0.8c0.1,0.1,0.1,0.2,0.2,0.3s0.2,0.2,0.3,0.3s0.2,0.1,0.4,0.2
			s0.3,0.1,0.5,0.1h1v1.3h-1.9c-0.4,0-0.8-0.1-1.1-0.3c-0.1-0.1-0.3-0.2-0.4-0.3s-0.2-0.3-0.3-0.5s-0.2-0.4-0.2-0.7
			s-0.1-0.6-0.1-0.9v-0.2v-4.3c0.2-0.4,0.4-0.7,0.6-0.9s0.5-0.5,0.7-0.6s0.5-0.3,0.7-0.4s0.5-0.2,0.7-0.2s0.4-0.1,0.5-0.1
			s0.3,0,0.3,0h0.1c0.6,0,1.1,0.1,1.5,0.3s0.8,0.4,1,0.6s0.5,0.5,0.6,0.8s0.3,0.6,0.3,0.8s0.1,0.5,0.1,0.7s0,0.3,0,0.4V27
			c0,0.4,0.1,0.7,0.2,1s0.2,0.5,0.4,0.7s0.3,0.3,0.5,0.4s0.4,0.2,0.5,0.2s0.3,0.1,0.4,0.1s0.2,0,0.2,0c0.4,0,0.7-0.1,0.9-0.2
			s0.5-0.3,0.6-0.4s0.3-0.3,0.4-0.5s0.2-0.4,0.2-0.6s0.1-0.3,0.1-0.5s0-0.2,0-0.2v-5.9h1.4L165.9,30.9z"/>
	</g>
</g>
</svg>