<!-- Generator: Adobe Illustrator 19.0.0, SVG Export Plug-In  -->
<svg version="1.1"
	 xmlns="http://www.w3.org/2000/svg" xmlns:xlink="http://www.w3.org/1999/xlink" xmlns:a="http://ns.adobe.com/AdobeSVGViewerExtensions/3.0/"
	 x="0px" y="0px" width="70.3px" height="124.1px" viewBox="0 0 70.3 124.1"
	 style="overflow:scroll;enable-background:new 0 0 70.3 124.1;" xml:space="preserve">
<style type="text/css">
	.st0{fill:#086A87;}
	.st1{fill:none;stroke:#086A87;stroke-width:2;stroke-linecap:round;stroke-linejoin:round;stroke-miterlimit:10;}
	.st2{fill:none;stroke:#086A87;stroke-width:1.5569;stroke-linecap:round;stroke-linejoin:round;stroke-miterlimit:10;}
	.st3{fill:#FF6633;}
</style>
<defs>
</defs>
<g id="XMLID_46_">
	<path id="XMLID_67_" class="st0" d="M12.6,79.5v5.2c0,0.5-0.2,1-0.4,1.4c-0.1,0.2-0.2,0.3-0.4,0.5c-0.1,0.2-0.3,0.3-0.5,0.5
		s-0.5,0.2-0.8,0.3c-0.3,0.1-0.6,0.1-1,0.1c-0.4,0-0.7,0-1-0.1C8.2,87.3,8,87.2,7.8,87s-0.4-0.3-0.5-0.5c-0.1-0.2-0.3-0.3-0.4-0.5
		c-0.2-0.4-0.4-0.9-0.4-1.4v-5.2h1.2v5.2c0,0.2,0,0.4,0.1,0.6s0.1,0.3,0.2,0.4C8,85.8,8.1,85.9,8.2,86c0.1,0.1,0.2,0.2,0.3,0.2
		c0.3,0.1,0.6,0.2,1,0.2c0.4,0,0.7-0.1,1-0.2c0.1-0.1,0.2-0.1,0.3-0.2c0.1-0.1,0.2-0.2,0.3-0.3c0.1-0.1,0.2-0.3,0.2-0.4
		s0.1-0.4,0.1-0.6v-5.2H12.6z"/>
	<path id="XMLID_65_" class="st0" d="M13.1,77.5v1.1H9.9v-1.5H9.3V76h1.2c0.1,0,0.2,0,0.3,0.1c0.1,0,0.1,0.1,0.2,0.2
		c0.1,0.1,0.1,0.2,0.1,0.3v1H13.1z"/>
	<path id="XMLID_63_" class="st0" d="M16.2,79.5c0,0,0.1,0,0.2,0c0.1,0,0.3,0,0.4,0.1c0.2,0,0.3,0.1,0.5,0.2s0.3,0.2,0.5,0.4
		c0.1,0.2,0.3,0.4,0.4,0.7s0.1,0.6,0.1,1v5.6h-1.2v-5.6c0-0.2,0-0.4-0.1-0.6c0-0.1-0.1-0.1-0.1-0.2s-0.1-0.1-0.2-0.2
		s-0.1-0.1-0.2-0.1c-0.1,0-0.2,0-0.3,0c-0.2,0-0.4,0-0.5,0.1c-0.1,0-0.2,0.1-0.3,0.2S15.2,81,15.1,81s-0.1,0.1-0.1,0.1l-0.8-0.8
		c0.1-0.2,0.3-0.3,0.5-0.4c0.2-0.1,0.4-0.2,0.6-0.3S15.8,79.5,16.2,79.5z"/>
	<path id="XMLID_61_" class="st0" d="M21.5,79.5v4.9c0,0.3,0,0.6,0.1,0.8c0.1,0.2,0.2,0.4,0.3,0.6s0.3,0.3,0.4,0.3
		c0.2,0.1,0.3,0.1,0.4,0.2c0.1,0,0.3,0.1,0.4,0.1c0.1,0,0.2,0,0.2,0c0.3,0,0.6,0,0.8-0.1c0.2-0.1,0.4-0.2,0.5-0.3
		c0.1-0.1,0.2-0.3,0.3-0.5s0.1-0.3,0.2-0.5s0.1-0.3,0.1-0.4s0-0.2,0-0.2v-4.9h1.2v7.9h-1.2v-1.1c0,0.1,0,0.3-0.1,0.4
		c-0.1,0.1-0.1,0.2-0.2,0.3s-0.2,0.2-0.3,0.2s-0.2,0.1-0.3,0.1c-0.3,0.1-0.6,0.2-0.9,0.2h-0.3c-0.4,0-0.8-0.1-1.1-0.2
		c-0.3-0.1-0.6-0.3-0.8-0.5s-0.4-0.4-0.5-0.6s-0.2-0.5-0.3-0.7s-0.1-0.4-0.1-0.6s0-0.3,0-0.4v-0.1v-4.9H21.5z"/>
	<path id="XMLID_58_" class="st0" d="M29.5,87.4h-1.2v-7.9h1.2V87.4z M32,87.4h-1.2v-7.9H32V87.4z"/>
	<path id="XMLID_56_" class="st0" d="M37.8,79.7c0.3,0.1,0.6,0.3,0.9,0.5s0.4,0.4,0.5,0.7c0.1,0.2,0.2,0.5,0.3,0.7
		c0.1,0.2,0.1,0.4,0.1,0.6s0,0.3,0,0.4v0.1v4.8h-1.2v-2.3c0-0.2-0.1-0.4-0.2-0.6c-0.1-0.2-0.2-0.3-0.4-0.4s-0.3-0.2-0.5-0.2
		c-0.2-0.1-0.3-0.1-0.5-0.1c-0.2,0-0.3,0-0.5-0.1c0,0-0.1,0-0.1,0s-0.2,0-0.3,0c-0.1,0-0.2,0.1-0.4,0.1c-0.1,0.1-0.3,0.1-0.4,0.2
		s-0.2,0.2-0.3,0.4c-0.1,0.1-0.2,0.3-0.2,0.5c0,0.1,0,0.1,0,0.2c0,0.2,0,0.3,0.1,0.4s0.2,0.2,0.3,0.3s0.3,0.1,0.4,0.2
		c0.2,0,0.3,0.1,0.5,0.1s0.3,0,0.4,0c0.1,0,0.2,0,0.3,0h0.1v1.1h-1.3c-0.3,0-0.5-0.1-0.8-0.2s-0.5-0.3-0.6-0.5s-0.3-0.4-0.4-0.7
		s-0.2-0.5-0.2-0.8c0-0.3,0.1-0.6,0.2-0.9c0.1-0.3,0.3-0.6,0.6-0.9c0.2-0.2,0.4-0.3,0.6-0.4s0.4-0.2,0.6-0.3
		c0.2-0.1,0.4-0.1,0.6-0.1s0.4,0,0.5,0c0.3,0,0.5,0,0.8,0.1c0.2,0.1,0.4,0.1,0.6,0.2c0.2,0.1,0.4,0.2,0.6,0.2v-0.5
		c0-0.2,0-0.5-0.1-0.6s-0.1-0.3-0.2-0.5c-0.1-0.1-0.2-0.3-0.3-0.3c-0.1-0.1-0.2-0.2-0.3-0.2c-0.3-0.1-0.6-0.2-1-0.2
		c-0.3,0-0.6,0.1-0.8,0.2s-0.4,0.3-0.5,0.4c-0.1,0.2-0.3,0.3-0.3,0.5c-0.1,0.2-0.1,0.3-0.2,0.5h-1.2c0-0.4,0.1-0.8,0.3-1.1
		s0.3-0.6,0.5-0.8s0.4-0.4,0.6-0.5s0.5-0.2,0.7-0.3c0.2-0.1,0.4-0.1,0.6-0.1s0.3,0,0.4,0h0.1C37.1,79.5,37.5,79.5,37.8,79.7z"/>
	<path id="XMLID_53_" class="st0" d="M42.2,80.2v0.6h2.1v1.1h-2.6c-0.1,0-0.2,0-0.3-0.1c-0.1-0.1-0.1-0.1-0.2-0.2
		c0-0.1-0.1-0.2-0.1-0.3v-1.2H42.2z M42.2,85v0.6h2.1v1.1h-2.6c-0.1,0-0.2,0-0.3-0.1c-0.1-0.1-0.1-0.1-0.2-0.2
		c0-0.1-0.1-0.2-0.1-0.3V85H42.2z"/>
	<path id="XMLID_51_" class="st0" d="M52.2,79.4c0,0,0,0.1-0.1,0.1s-0.1,0.1-0.2,0.2s-0.1,0.1-0.2,0.2s-0.2,0.2-0.2,0.2
		s-0.2,0.1-0.2,0.2c-0.1,0.1-0.1,0.1-0.2,0.1c0.2,0.2,0.3,0.4,0.4,0.6c0.1,0.2,0.2,0.4,0.2,0.6s0.1,0.4,0.1,0.5c0,0.2,0,0.3,0,0.3
		v0.1v4.8h-1.2v-2.3c0-0.2-0.1-0.4-0.2-0.6c-0.1-0.2-0.2-0.3-0.4-0.4s-0.3-0.2-0.5-0.2c-0.2-0.1-0.3-0.1-0.5-0.1
		c-0.2,0-0.3,0-0.5-0.1c0,0-0.1,0-0.1,0s-0.2,0-0.3,0c-0.1,0-0.2,0.1-0.4,0.1c-0.1,0.1-0.3,0.1-0.4,0.2s-0.2,0.2-0.3,0.4
		c-0.1,0.1-0.2,0.3-0.2,0.5c0,0,0,0.1,0,0.1s0,0.1,0,0.1c0,0.2,0,0.3,0.1,0.4s0.2,0.2,0.3,0.3s0.3,0.1,0.4,0.2
		c0.2,0,0.3,0.1,0.5,0.1s0.3,0,0.4,0c0.1,0,0.2,0,0.3,0h0.1v1.1h-1.3c-0.3,0-0.5-0.1-0.8-0.2s-0.5-0.3-0.6-0.5
		c-0.2-0.2-0.3-0.4-0.4-0.7c-0.1-0.3-0.2-0.5-0.2-0.8c0-0.3,0.1-0.6,0.2-0.9s0.3-0.6,0.7-0.9c0.2-0.2,0.4-0.3,0.6-0.4
		s0.4-0.2,0.6-0.3c0.2-0.1,0.4-0.1,0.6-0.1s0.4,0,0.5,0c0.3,0,0.5,0,0.8,0.1c0.2,0.1,0.4,0.1,0.6,0.2c0.2,0.1,0.4,0.2,0.6,0.2v-0.5
		c0-0.2,0-0.5-0.1-0.6s-0.1-0.3-0.2-0.5c-0.1-0.1-0.2-0.3-0.3-0.3c-0.1-0.1-0.2-0.2-0.3-0.2c-0.3-0.1-0.6-0.2-1-0.2
		c-0.3,0-0.6,0.1-0.8,0.2s-0.4,0.3-0.5,0.4c-0.1,0.2-0.3,0.3-0.3,0.5c-0.1,0.2-0.1,0.3-0.2,0.5h-1.2c0-0.4,0.1-0.8,0.3-1.1
		s0.3-0.6,0.5-0.8s0.4-0.4,0.6-0.5s0.5-0.2,0.7-0.3c0.2-0.1,0.4-0.1,0.6-0.1s0.3,0,0.4,0h0.1c0.4,0,0.7,0.1,1.1,0.2
		c0.2,0,0.4-0.1,0.6-0.2c0.2-0.1,0.3-0.2,0.5-0.3s0.3-0.3,0.4-0.6l0.4,0.4c0,0,0.1,0.1,0.1,0.1s0.1,0.1,0.1,0.1
		C52,79.3,52.1,79.3,52.2,79.4C52.1,79.4,52.1,79.4,52.2,79.4z"/>
	<path id="XMLID_49_" class="st0" d="M56,79.5c0.1,0,0.2,0,0.3,0c0.2,0,0.3,0.1,0.5,0.1s0.4,0.1,0.6,0.3s0.4,0.3,0.6,0.5
		c0.2,0.2,0.3,0.5,0.4,0.8c0.1,0.3,0.2,0.7,0.2,1.1v2.6c0,0.5-0.1,0.9-0.3,1.3c-0.1,0.2-0.2,0.3-0.3,0.5c-0.1,0.2-0.3,0.3-0.5,0.4
		c-0.2,0.1-0.4,0.2-0.7,0.3c-0.3,0.1-0.5,0.1-0.9,0.1c-0.3,0-0.6,0-0.9-0.1c-0.3-0.1-0.5-0.2-0.7-0.3c-0.2-0.1-0.3-0.3-0.5-0.4
		c-0.1-0.2-0.2-0.3-0.3-0.5c0,0,0.1-0.1,0.2-0.1c0.1-0.1,0.2-0.1,0.3-0.2c0.1-0.1,0.2-0.1,0.3-0.2c0.1-0.1,0.2-0.1,0.2-0.1
		c0.1,0.2,0.2,0.4,0.4,0.5c0.2,0.1,0.3,0.2,0.5,0.3c0.2,0.1,0.4,0.1,0.6,0.1c0.3,0,0.5-0.1,0.7-0.2c0.1-0.1,0.2-0.1,0.3-0.2
		s0.2-0.2,0.2-0.3c0.1-0.1,0.1-0.2,0.2-0.4s0.1-0.3,0.1-0.5v-2.6c0-0.3-0.1-0.5-0.2-0.8c0-0.1-0.1-0.2-0.2-0.3s-0.2-0.2-0.3-0.2
		s-0.2-0.1-0.4-0.2c-0.1,0-0.3-0.1-0.5-0.1c-0.2,0-0.5,0-0.6,0.1c-0.2,0-0.3,0.1-0.5,0.2s-0.2,0.2-0.3,0.4c-0.1,0.2-0.2,0.3-0.3,0.6
		H53c0-0.4,0.1-0.7,0.3-1s0.3-0.5,0.5-0.8s0.5-0.4,0.9-0.5S55.5,79.5,56,79.5L56,79.5L56,79.5z"/>
	<path id="XMLID_47_" class="st0" d="M61.6,79.5v4.9c0,0.3,0,0.6,0.1,0.8c0.1,0.2,0.2,0.4,0.3,0.6s0.3,0.3,0.4,0.3
		c0.2,0.1,0.3,0.1,0.4,0.2c0.1,0,0.3,0.1,0.4,0.1c0.1,0,0.2,0,0.2,0c0.3,0,0.6,0,0.8-0.1c0.2-0.1,0.4-0.2,0.5-0.3
		c0.1-0.1,0.2-0.3,0.3-0.5s0.1-0.3,0.2-0.5s0.1-0.3,0.1-0.4s0-0.2,0-0.2v-4.9h1.2v7.9h-1.2v-1.1c0,0.1,0,0.3-0.1,0.4
		c-0.1,0.1-0.1,0.2-0.2,0.3s-0.2,0.2-0.3,0.2s-0.2,0.1-0.3,0.1c-0.3,0.1-0.6,0.2-0.9,0.2h-0.3c-0.4,0-0.8-0.1-1.1-0.2
		c-0.3-0.1-0.6-0.3-0.8-0.5s-0.4-0.4-0.5-0.6s-0.2-0.5-0.3-0.7s-0.1-0.4-0.1-0.6s0-0.3,0-0.4v-0.1v-4.9H61.6z"/>
</g>
<g id="XMLID_35_">
	<path id="XMLID_45_" class="st1" d="M10.3,17V6.7c0-3.3,2.3-5.7,5.6-5.7h42.4c3.4,0,6,2.4,6,5.7V17"/>
	<rect id="XMLID_44_" x="14.3" y="25" class="st1" width="44" height="6"/>
	<path id="XMLID_43_" class="st1" d="M14.3,25v-3c0-2.7-1.9-4.9-4.5-5.4c-0.3,0-0.7-0.1-1-0.1c-3,0-5.5,2.4-5.5,5.4v8.8V44"/>
	<path id="XMLID_42_" class="st1" d="M58.3,25v-2.8c0-3,2.3-5.4,5.3-5.4c0.3,0,0.8,0,1.2,0.1c2.5,0.5,4.6,2.7,4.6,5.3V31"/>
	<circle id="XMLID_41_" class="st2" cx="28" cy="12.7" r="2.1"/>
	<circle id="XMLID_40_" class="st2" cx="46.2" cy="12.7" r="2.1"/>
	<path id="XMLID_39_" class="st1" d="M9.5,44l-2.3,5.7c0,0,0,0,0,0.1c-0.2,1.8,2,2.7,3.3,1.5l7.8-7.3H9.5z"/>
	<path id="XMLID_38_" class="st1" d="M63,44l2.3,5.7c0,0,0,0,0,0.1c0.2,1.8-2,2.7-3.3,1.5L54.2,44H63z"/>
	<rect id="XMLID_37_" x="14.3" y="25" class="st1" width="44" height="6"/>
	<rect id="XMLID_36_" x="3.3" y="31" class="st1" width="66" height="13"/>
</g>
<g id="XMLID_15_">
	<path id="XMLID_33_" class="st3" d="M7.3,124h-3v-8.4l-0.1-1.4l0-1.5c-0.5,0.5-0.9,0.8-1.1,1l-1.7,1.3L0,113.5l4.6-3.5h2.7V124z"/>
	<path id="XMLID_29_" class="st3" d="M11,117.8c0-2.8,0.6-4.9,1.8-6.3c1.2-1.4,3.1-2.1,5.5-2.1c0.8,0,1,0,2,0.1v2.4
		c-1-0.1-1.3-0.2-1.8-0.2c-1,0-1.9,0.2-2.6,0.5s-1.2,0.6-1.5,1.3c-0.3,0.6-0.5,1.5-0.6,2.5h0.1c0.6-1,1.7-1.5,3.1-1.5
		c1.3,0,2.3,0.5,3,1.3s1.1,1.9,1.1,3.4c0,1.5-0.4,2.7-1.3,3.6s-2.1,1.3-3.6,1.3c-1.1,0-2-0.2-2.8-0.7c-0.8-0.5-1.4-1.2-1.8-2.1
		C11.2,120.3,11,119.1,11,117.8z M16.1,121.7c0.6,0,1.1-0.2,1.5-0.6c0.3-0.4,0.5-1,0.5-1.9c0-0.7-0.2-1.2-0.5-1.6s-0.8-0.6-1.5-0.6
		c-0.6,0-1.1,0.2-1.6,0.6c-0.4,0.4-0.6,0.9-0.6,1.4c0,0.8,0.2,1.4,0.6,2C15,121.4,15.5,121.7,16.1,121.7z"/>
	<path id="XMLID_27_" class="st3" d="M22.8,122.5c0-0.5,0.1-1,0.4-1.2s0.7-0.4,1.3-0.4c0.5,0,1,0.1,1.3,0.4c0.3,0.3,0.4,0.7,0.4,1.2
		c0,0.5-0.1,0.9-0.4,1.2c-0.3,0.3-0.7,0.4-1.3,0.4c-0.5,0-1-0.1-1.3-0.4C23,123.4,22.8,123,22.8,122.5z"/>
	<path id="XMLID_25_" class="st3" d="M35.3,124h-3v-8.4l0.2-1.4l0.1-1.5c-0.5,0.5-0.8,0.8-1,1l-1.6,1.3l-1.4-1.6l4.6-3.5h2.1V124z"
		/>
	<path id="XMLID_22_" class="st3" d="M39.5,117.8c0-2.8,0.6-4.9,1.8-6.3c1.2-1.4,2.8-2.1,5.2-2.1c0.8,0,1.8,0,1.8,0.1v2.4
		c0-0.1-1-0.2-1.6-0.2c-1,0-1.8,0.2-2.5,0.5s-1.1,0.6-1.4,1.3c-0.3,0.6-0.5,1.5-0.5,2.5h0.1c0.6-1,1.7-1.5,3.1-1.5
		c1.3,0,2.3,0.5,3,1.3s1.1,1.9,1.1,3.4c0,1.5-0.4,2.7-1.3,3.6s-2.1,1.3-3.6,1.3c-1.1,0-2-0.2-2.8-0.7c-0.8-0.5-1.4-1.2-1.8-2.1
		C39.7,120.3,39.5,119.1,39.5,117.8z M44.7,121.7c0.6,0,1.1-0.2,1.5-0.6c0.3-0.4,0.5-1,0.5-1.9c0-0.7-0.2-1.2-0.5-1.6
		s-0.8-0.6-1.5-0.6c-0.6,0-1.1,0.2-1.6,0.6c-0.4,0.4-0.6,0.9-0.6,1.4c0,0.8,0.2,1.4,0.6,2C43.5,121.4,44.1,121.7,44.7,121.7z"/>
	<path id="XMLID_16_" class="st3" d="M57.7,113.9c0,1.5-0.3,2.6-0.9,3.4c-0.6,0.8-1.4,1.1-2.5,1.1c-1.1,0-1.9-0.4-2.5-1.2
		s-0.9-1.9-0.9-3.3c0-3,1.1-4.5,3.4-4.5c1.1,0,1.9,0.4,2.5,1.2C57.4,111.3,57.7,112.4,57.7,113.9z M53.3,113.9
		c0,0.8,0.1,1.4,0.2,1.9s0.4,0.6,0.7,0.6c0.6,0,0.9-0.8,0.9-2.5c0-1.6-0.3-2.4-0.9-2.4c-0.3,0-0.6,0.2-0.7,0.6
		S53.3,113.1,53.3,113.9z M64.4,110l-7.9,14h-2.3l7.9-14H64.4z M67.7,119.6c0,1.5-0.3,2.6-0.9,3.4c-0.6,0.8-1.4,1.1-2.5,1.1
		c-1.1,0-1.9-0.4-2.5-1.2s-0.9-1.9-0.9-3.3c0-3,1.1-4.5,3.4-4.5c1.1,0,1.9,0.4,2.5,1.2C67.4,117,67.7,118.1,67.7,119.6z M63.3,119.6
		c0,0.8,0.1,1.4,0.2,1.9s0.4,0.6,0.7,0.6c0.6,0,0.9-0.8,0.9-2.5c0-1.6-0.3-2.4-0.9-2.4c-0.3,0-0.6,0.2-0.7,0.6
		S63.3,118.8,63.3,119.6z"/>
</g>
</svg>