<!-- Generator: Adobe Illustrator 19.0.0, SVG Export Plug-In  -->
<svg version="1.1"
	 xmlns="http://www.w3.org/2000/svg" xmlns:xlink="http://www.w3.org/1999/xlink" xmlns:a="http://ns.adobe.com/AdobeSVGViewerExtensions/3.0/"
	 x="0px" y="0px" width="195px" height="303.5px" viewBox="0 0 195 303.5"
	 style="overflow:scroll;enable-background:new 0 0 195 303.5;" xml:space="preserve">
<style type="text/css">
	.st0{fill:#FF6633;}
	.st1{fill:#55514F;stroke:#FFFFFF;stroke-width:2;stroke-miterlimit:10;stroke-dasharray:3;}
	.st2{fill:#086A87;}
	.st3{fill:#FFFFFF;}
	.st4{fill:#FEFFFF;}
</style>
<defs>
</defs>
<path id="XMLID_227_" class="st0" d="M100.1,4.8L43.3,61.6c-3.1,3.1-4.8,7.2-4.8,11.5v213.6c0,9,7.3,16.3,16.3,16.3h113.6
	c9,0,16.3-7.3,16.3-16.3V73.1c0-4.3-1.7-8.5-4.8-11.5L123.1,4.8C116.8-1.6,106.5-1.6,100.1,4.8z"/>
<line id="XMLID_226_" class="st1" x1="55" y1="175.5" x2="195" y2="175.5"/>
<g id="XMLID_219_">
	<circle id="XMLID_225_" class="st2" cx="6.5" cy="178.9" r="6.5"/>
	<circle id="XMLID_224_" class="st2" cx="8.1" cy="162.5" r="6.5"/>
	<circle id="XMLID_223_" class="st3" cx="8.1" cy="162.5" r="4.3"/>
	<circle id="XMLID_222_" class="st3" cx="6.5" cy="178.9" r="4.3"/>
	<path id="XMLID_221_" class="st2" d="M33.4,182.7L9.7,167L5,168.3l23.2,15.3c0.4,0.2,0.7,0.4,1.2,0.6
		C30.7,184.7,32.2,184.5,33.4,182.7z"/>
	<path id="XMLID_220_" class="st2" d="M32.5,167l-26.9,5.5l4.1,2.9l27.9-5.7c-0.4-2.1-2.1-2.7-3.7-2.8C33.5,166.8,33,166.9,32.5,167
		z"/>
</g>
<g id="XMLID_208_">
	<path id="XMLID_217_" class="st3" d="M88,268.5H60v-5.4l9.9-10c2.9-3,4.9-5.1,5.8-6.3c0.9-1.2,1.6-2.2,2-3.2c0.4-1,0.6-2,0.6-3.1
		c0-1.6-0.4-2.8-1.3-3.5c-0.9-0.8-2-1.2-3.5-1.2c-1.5,0-3,0.4-4.5,1.1s-2.9,1.7-4.5,3l-4.5-5.4c1.9-1.7,3.6-2.8,4.8-3.5
		c1.3-0.7,2.7-1.2,4.2-1.6c1.5-0.4,3.2-0.6,5.1-0.6c2.5,0,4.7,0.5,6.5,1.4c1.9,0.9,3.4,2.2,4.4,3.8c1,1.6,1.6,3.5,1.6,5.6
		c0,1.8-0.3,3.5-1,5.1s-1.6,3.2-3,4.9c-1.3,1.7-3.9,4.1-7.3,7.2l-5.3,4.8v0h18V268.5z"/>
	<path id="XMLID_215_" class="st3" d="M106.1,243.6c3.8,0,6.9,1.1,9.1,3.2c2.3,2.1,3.4,5.1,3.4,8.8c0,4.4-1.4,7.8-4.1,10.2
		c-2.7,2.4-6.7,3.6-11.8,3.6c-4.4,0-7.8-0.7-10.8-2.1v-7.2c2,0.8,3.2,1.4,5.1,1.9c1.9,0.5,3.7,0.7,5.4,0.7c5.1,0,7.7-2.1,7.7-6.3
		c0-4-2.6-6-7.9-6c-1,0-2,0.1-3.2,0.3c-1.2,0.2-2.1,0.4-2.8,0.6l-3.3-1.7l1.5-20.1H116v7h-14.2l-0.7,7.7l0.9-0.2
		C103.1,243.8,104.4,243.6,106.1,243.6z"/>
	<path id="XMLID_209_" class="st3" d="M141.6,241.1c0,4.1-0.8,7.3-2.4,9.3c-1.6,2.1-4,3.1-7.1,3.1c-3,0-5.3-1.1-6.9-3.2
		c-1.6-2.1-2.4-5.2-2.4-9.3c0-8.2,3.1-12.4,9.3-12.4c3,0,5.4,1.1,7,3.2C140.8,234.1,141.6,237.2,141.6,241.1z M129.6,241.2
		c0,2.3,0.2,4,0.6,5.1c0.4,1.1,1.1,1.7,2,1.7c1.7,0,2.6-2.3,2.6-6.8c0-4.5-0.9-6.8-2.6-6.8c-0.9,0-1.6,0.6-2,1.7
		C129.8,237.2,129.6,238.9,129.6,241.2z M160.2,229.5l-21.9,39h-6.5l21.9-39H160.2z M169.3,256.9c0,4.1-0.8,7.2-2.4,9.3
		c-1.6,2.1-4,3.1-7.1,3.1c-3,0-5.3-1.1-6.9-3.2c-1.6-2.1-2.4-5.2-2.4-9.2c0-8.2,3.1-12.4,9.3-12.4c3,0,5.4,1.1,7,3.2
		C168.5,249.9,169.3,253,169.3,256.9z M157.3,257c0,2.3,0.2,4,0.6,5.1c0.4,1.1,1.1,1.7,2,1.7c1.7,0,2.6-2.3,2.6-6.8
		c0-4.5-0.9-6.8-2.6-6.8c-0.9,0-1.6,0.6-2,1.7S157.3,254.7,157.3,257z"/>
</g>
<circle id="XMLID_205_" class="st3" cx="111.6" cy="18.3" r="4.6"/>
<g id="XMLID_15_">
	<path id="XMLID_202_" class="st4" d="M65.6,77.7c0,1.4-0.1,1.9-1.3,1.9h-0.6l-1.2-3.1c-0.2,0.4-0.6,0.6-1.1,0.6
		c-0.8,0-1.4-0.6-1.4-1.4c0-0.9,0.7-1.5,1.5-1.5c0.5,0,1.1,0.2,1.6,1.5l1.2,3.2c0.4,0,0.4-0.1,0.4-0.8v-3.7c0-1.5-1-1.9-2-1.9
		c-0.9,0-1.6,0.4-2.4,1l-0.3-0.4c1-0.9,2-1.2,2.8-1.2c1,0,2.8,0.4,2.8,2.6V77.7z M61.4,74.9c-0.5,0-0.8,0.4-0.8,0.8
		c0,0.4,0.3,0.9,0.8,0.9c0.4,0,0.8-0.3,0.9-0.8C62.2,75.2,61.9,74.9,61.4,74.9z"/>
	<path id="XMLID_200_" class="st4" d="M71,79.6v-5c0-1.5-0.8-2-1.6-2c-0.6,0-1.2,0.3-1.7,0.7l-0.3-0.4c0.8-0.7,1.5-0.9,2.2-0.9
		c0.8,0,2.4,0.4,2.4,2.6v4.9H71z"/>
	<path id="XMLID_198_" class="st4" d="M79.5,79.7c0-0.8,0.1-1.7,0.1-2.5v-2.4c0-1.6-1-2.3-2.1-2.3c-0.8,0-1.8,0.4-2.1,1.2l2,0.5
		l-0.2,0.5c-1,0.1-1.3,0.8-1.3,1.5v3.3h-0.9v-3.1c0-0.8,0.2-1.5,1.2-1.9v0l-1.7-0.3c0.1-1.3,1.4-2.3,3-2.3c2,0,2.8,1.3,2.8,3.1v4.2
		l-0.9,0.4H79.5z"/>
	<path id="XMLID_196_" class="st4" d="M88.1,79.7c0-0.8,0.1-1.7,0.1-2.5v-2.4c0-1.6-1-2.3-2.1-2.3c-0.8,0-1.8,0.4-2.1,1.2l2,0.5
		l-0.2,0.5c-1,0.1-1.3,0.8-1.3,1.5v3.3h-0.9v-3.1c0-0.8,0.2-1.5,1.2-1.9v0l-1.7-0.3c0.1-1.3,1.4-2.3,3-2.3c2,0,2.8,1.3,2.8,3.1v4.2
		l-0.9,0.4H88.1z"/>
	<path id="XMLID_194_" class="st4" d="M94.5,79.6v-5c0-1.5-0.8-2-1.6-2c-0.6,0-1.2,0.3-1.7,0.7l-0.3-0.4c0.8-0.7,1.5-0.9,2.2-0.9
		c0.8,0,2.4,0.4,2.4,2.6v4.9H94.5z"/>
	<path id="XMLID_191_" class="st4" d="M99.5,71.8c0.7,0,1.2,0.2,1.6,0.4c0.3,0.2,0.6,0.3,0.9,0.3c0.3,0,0.7-0.2,0.8-0.5l0.3,0.4
		c-0.4,0.5-0.9,0.8-1.4,0.8c-0.5,0-0.9-0.2-1.3-0.3c-0.4-0.1-0.8-0.3-1.2-0.3c-0.5,0-1,0.2-1,0.8c2.1,0.2,2.9,0.4,3.6,0.9
		c0.6,0.5,0.8,1.1,0.8,1.9v1.6c0,1.2-0.6,2-1.7,2c-0.9,0-1.5-0.6-1.5-1.5c0-0.8,0.6-1.5,1.5-1.5c0.3,0,0.5,0.1,0.8,0.3v-1
		c0-1.3-1.1-1.7-4.1-2C97.5,72.6,98.5,71.8,99.5,71.8z M100.9,77.2c-0.5,0-0.9,0.4-0.9,0.9c0,0.5,0.3,1,0.9,1c0.5,0,0.8-0.5,0.8-1
		c0-0.3,0-0.4-0.1-0.6C101.5,77.3,101.2,77.2,100.9,77.2z"/>
	<path id="XMLID_187_" class="st4" d="M107.4,76.7c0.7,0,1.4,0.5,1.4,1.5c0,0.8-0.6,1.5-1.5,1.5c-0.5,0-1.7-0.2-1.7-2.1v-8.7
		c0-1.3-0.8-1.5-1.2-1.5c-0.7,0-1.1,0.4-1.3,1c0.2-0.1,0.5-0.2,0.7-0.2c0.7,0,1.2,0.5,1.2,1.2c0,0.7-0.5,1.3-1.3,1.3
		c-0.9,0-1.4-0.7-1.4-1.6c0-1.2,0.9-2.2,2.1-2.2c1.1,0,2.1,0.7,2.1,2.2V77C106.7,76.8,107.1,76.7,107.4,76.7z M103.6,68.7
		c-0.3,0-0.6,0.1-0.8,0.3c0,0.6,0.2,1.2,0.8,1.2c0.5,0,0.7-0.4,0.7-0.8S104.1,68.7,103.6,68.7z M106.4,78.1c0,0.6,0.4,1,0.9,1
		c0.5,0,0.9-0.5,0.9-1c0-0.5-0.3-1-0.9-1c-0.3,0-0.7,0.2-0.8,0.4C106.4,77.8,106.4,77.9,106.4,78.1z"/>
	<path id="XMLID_183_" class="st4" d="M112.3,79.6l0.1-0.6h1.2v-4.9c0-1.4-0.8-1.6-1.3-1.6c-0.7,0-1.1,0.5-1.4,1
		c0.2-0.1,0.5-0.2,0.7-0.2c0.7,0,1.2,0.5,1.2,1.2c0,0.7-0.5,1.3-1.3,1.3c-0.9,0-1.4-0.7-1.4-1.6c0-1.2,0.9-2.2,2.2-2.2
		c0.8,0,1.9,0.5,2.1,1.8c1.5-0.2,2-1.4,2.1-2.2h1c-0.2,1.2-0.8,1.9-1.8,2.3v0c1.5,0.3,1.7,1.1,1.7,2v1.8c0,1.7-1.1,1.8-2.4,1.8
		H112.3z M111.6,75.3c0.5,0,0.7-0.4,0.7-0.8s-0.3-0.7-0.7-0.7c-0.3,0-0.6,0.1-0.8,0.3C110.8,74.7,111,75.3,111.6,75.3z M116.5,77.5
		v-1.7c0-0.8-0.2-1.4-2-1.5V79h0.4C116.2,79,116.5,78.8,116.5,77.5z"/>
	<path id="XMLID_180_" class="st4" d="M114.7,70.7c0.3-0.1,0.7-0.2,0.9-0.6c-0.7-0.1-1.1-0.5-1.1-1.1c0-0.6,0.5-1.1,1.1-1.1
		c0.6,0,1.1,0.5,1.1,1.1c0,0.3-0.1,0.8-0.7,1.4l0,0c1.4-0.2,1.9-1.4,2-2.4h0.9c-0.2,1.1-0.7,2-1.6,2.5c-0.6,0.3-1.4,0.5-2.6,0.6
		L114.7,70.7z M115.1,69c0,0.4,0.4,0.6,0.7,0.6c0.1,0,0.3-0.1,0.4-0.2c0.1-0.1,0.1-0.3,0.1-0.5c0-0.3-0.3-0.6-0.6-0.6
		C115.2,68.4,115.1,68.7,115.1,69z"/>
	<path id="XMLID_177_" class="st4" d="M119.7,75c1.3,0.8,3,2.7,3.9,3.9c0.3,0,0.4-0.2,0.4-1.1v-3.2c-0.3,0.2-0.5,0.3-0.8,0.3
		c-0.7,0-1.4-0.5-1.4-1.5c0-0.8,0.6-1.5,1.6-1.5c0.4,0,1.6,0.2,1.6,2v3.7c0,1.4-0.1,1.9-1.3,1.9h-0.4c-1-1.4-2.8-3.3-3.9-4L119.7,75
		z M124.1,73.5c0-0.6-0.4-1-0.8-1c-0.6,0-0.9,0.4-0.9,1c0,0.5,0.3,1,0.9,1c0.3,0,0.7-0.2,0.8-0.4C124.1,74,124.1,73.8,124.1,73.5z"
		/>
	<path id="XMLID_175_" class="st4" d="M130.3,79.6v-5c0-1.5-0.8-2-1.6-2c-0.6,0-1.2,0.3-1.7,0.7l-0.3-0.4c0.8-0.7,1.5-0.9,2.2-0.9
		c0.8,0,2.4,0.4,2.4,2.6v4.9H130.3z"/>
	<path id="XMLID_170_" class="st4" d="M140.4,72.1L140.4,72.1l0.1,4.4c0.1,0,0.2,0,0.3,0c1,0,1.7,0.6,1.7,1.6c0,0.9-0.6,1.6-1.5,1.6
		c-0.9,0-1.4-0.6-1.4-2c0-0.1,0-0.2,0-0.4c-1,0.3-2.1,1.2-2.9,2.3h-0.8v-4.8c-0.3,0.2-0.5,0.3-0.8,0.3c-0.7,0-1.4-0.5-1.4-1.5
		c0-0.8,0.6-1.5,1.6-1.5c0.4,0,1.6,0.2,1.6,2v4.6c0.8-0.9,1.7-1.5,2.8-1.9V75c0-0.8,0-1.7-0.1-2.5L140.4,72.1z M136,73.5
		c0-0.6-0.4-1-0.8-1c-0.6,0-0.9,0.4-0.9,1c0,0.5,0.3,1,0.9,1c0.3,0,0.7-0.2,0.8-0.4C135.9,74,136,73.8,136,73.5z M140.5,77.1
		c0,0.2-0.1,0.5-0.1,0.8c0,0.6,0.1,1.2,0.6,1.2c0.5,0,0.8-0.6,0.8-1.1c0-0.6-0.4-1-1-1C140.7,77.1,140.6,77.1,140.5,77.1z"/>
	<path id="XMLID_167_" class="st4" d="M150.8,72.1V78c0,1.2-0.9,1.7-1.9,1.7c-0.8,0-1.8-0.5-1.8-1.7V74c0-1.3-0.8-1.5-1.3-1.5
		c-0.7,0-1.1,0.5-1.4,1c0.2-0.1,0.5-0.2,0.7-0.2c0.7,0,1.2,0.5,1.2,1.2c0,0.7-0.5,1.3-1.3,1.3c-0.9,0-1.4-0.7-1.4-1.6
		c0-1.2,0.9-2.2,2.2-2.2c1.1,0,2.1,0.7,2.1,2.2v3.8c0,1,0.5,1.2,0.9,1.2s0.9-0.3,0.9-1.2V75c0-0.8,0-1.7-0.1-2.5L150.8,72.1
		L150.8,72.1z M145.1,73.8c-0.3,0-0.6,0.1-0.8,0.3c0,0.6,0.2,1.2,0.8,1.2c0.4,0,0.7-0.4,0.7-0.8S145.6,73.8,145.1,73.8z"/>
	<path id="XMLID_164_" class="st4" d="M153.3,73.2c1-0.9,2-1.2,2.8-1.2c1,0,2.7,0.4,2.7,2.6v3.1c0,1.2-1.2,2-2.7,2
		c-1.5,0-2.5-0.6-2.5-1.9v-1.9c0-1.2,0.6-1.9,1.6-1.9c0.8,0,1.4,0.6,1.4,1.4c0,0.8-0.5,1.4-1.4,1.4c-0.3,0-0.5-0.1-0.7-0.2v1.1
		c0,1,0.6,1.5,1.7,1.5c1,0,1.7-0.5,1.7-1.5v-3.1c0-1.5-1-1.9-2-1.9c-0.9,0-1.6,0.4-2.3,1L153.3,73.2z M155.2,76.2
		c0.5,0,0.8-0.4,0.8-0.9c0-0.5-0.3-0.9-0.8-0.9c-0.5,0-0.8,0.4-0.8,0.9c0,0.2,0,0.4,0.1,0.6C154.7,76.1,155,76.2,155.2,76.2z"/>
	<path id="XMLID_161_" class="st4" d="M160.7,75c1.3,0.8,3,2.7,3.9,3.9c0.3,0,0.4-0.2,0.4-1.1v-3.2c-0.3,0.2-0.5,0.3-0.8,0.3
		c-0.7,0-1.4-0.5-1.4-1.5c0-0.8,0.6-1.5,1.6-1.5c0.4,0,1.6,0.2,1.6,2v3.7c0,1.4-0.1,1.9-1.3,1.9h-0.4c-1-1.4-2.8-3.3-3.9-4L160.7,75
		z M165,73.5c0-0.6-0.4-1-0.8-1c-0.6,0-0.9,0.4-0.9,1c0,0.5,0.3,1,0.9,1c0.3,0,0.7-0.2,0.8-0.4C165,74,165,73.8,165,73.5z"/>
	<path id="XMLID_158_" class="st4" d="M63.8,95.3l-2,2.9c-0.2,0.3-0.3,0.4-0.6,0.4h-0.7V93c0-1.2,0.6-2,1.7-2c0.9,0,1.5,0.6,1.5,1.5
		c0,0.9-0.6,1.5-1.5,1.5c-0.3,0-0.5-0.1-0.8-0.2v2.6c0,0.5,0,0.8,0,1.2l0,0l2.3-3.4h0.1l2.1,3.3l0,0c0-0.4,0-0.9,0-1.3V94
		c0-0.8,0-1.7-0.1-2.5l0.9-0.4h0.1v6.8c0,0.3-0.1,0.7-0.5,0.7h-0.5L63.8,95.3z M62.2,93.5c0.5,0,0.9-0.4,0.9-0.9s-0.3-1-0.9-1
		c-0.5,0-0.9,0.4-0.9,1c0,0.3,0,0.4,0.1,0.6C61.6,93.3,61.9,93.5,62.2,93.5z"/>
	<path id="XMLID_155_" class="st4" d="M67.3,99.4L67.3,99.4l0,1.9c0,1.2-0.7,1.4-1.6,1.4H64l0.1-0.4h0.7v-0.9
		c-0.2,0.1-0.4,0.1-0.6,0.1c-0.5,0-1-0.3-1-1c0-0.6,0.5-1.1,1.2-1.1c0.3,0,1.1,0.1,1.1,1.3v1.5h0.2c0.6,0,1,0,1-1v-1.5L67.3,99.4z
		 M64.9,100.4c0-0.4-0.3-0.6-0.6-0.6c-0.4,0-0.6,0.3-0.6,0.6c0,0.3,0.2,0.6,0.6,0.6c0.2,0,0.5-0.1,0.6-0.2
		C64.8,100.7,64.9,100.5,64.9,100.4z"/>
	<path id="XMLID_152_" class="st4" d="M64.7,89.7c0.3-0.1,0.7-0.2,0.9-0.6c-0.7-0.1-1.1-0.5-1.1-1.1c0-0.6,0.5-1.1,1.1-1.1
		c0.6,0,1.1,0.5,1.1,1.1c0,0.3-0.1,0.8-0.7,1.4l0,0c1.4-0.2,1.9-1.4,2-2.4h0.9c-0.2,1.1-0.7,2-1.6,2.5c-0.6,0.3-1.4,0.5-2.6,0.6
		L64.7,89.7z M65.1,88c0,0.4,0.4,0.6,0.7,0.6c0.1,0,0.3-0.1,0.4-0.2c0.1-0.1,0.1-0.3,0.1-0.5c0-0.3-0.3-0.6-0.6-0.6
		C65.3,87.4,65.1,87.7,65.1,88z"/>
	<path id="XMLID_148_" class="st4" d="M72.9,95.7c0.7,0,1.4,0.5,1.4,1.5c0,0.8-0.6,1.5-1.5,1.5c-0.5,0-1.7-0.2-1.7-2.1v-8.7
		c0-1.3-0.8-1.5-1.2-1.5c-0.7,0-1.1,0.4-1.3,1c0.2-0.1,0.5-0.2,0.7-0.2c0.7,0,1.2,0.5,1.2,1.2c0,0.7-0.5,1.3-1.3,1.3
		c-0.9,0-1.4-0.7-1.4-1.6c0-1.2,0.9-2.2,2.1-2.2c1.1,0,2.1,0.7,2.1,2.2V96C72.3,95.8,72.6,95.7,72.9,95.7z M69.2,87.7
		c-0.3,0-0.6,0.1-0.8,0.3c0,0.6,0.2,1.2,0.8,1.2c0.4,0,0.7-0.4,0.7-0.8S69.6,87.7,69.2,87.7z M72,97.1c0,0.6,0.4,1,0.9,1
		s0.9-0.5,0.9-1c0-0.5-0.3-1-0.9-1c-0.3,0-0.7,0.2-0.8,0.4C72,96.8,72,96.9,72,97.1z"/>
	<path id="XMLID_144_" class="st4" d="M77.8,98.6l0.1-0.6h1.2v-4.9c0-1.4-0.8-1.6-1.3-1.6c-0.7,0-1.1,0.5-1.4,1
		c0.2-0.1,0.5-0.2,0.7-0.2c0.7,0,1.2,0.5,1.2,1.2c0,0.7-0.5,1.3-1.3,1.3c-0.9,0-1.4-0.7-1.4-1.6c0-1.2,0.9-2.2,2.2-2.2
		c0.8,0,1.9,0.5,2.1,1.8c1.5-0.2,2-1.4,2.1-2.2h1c-0.2,1.2-0.8,1.9-1.8,2.3v0c1.5,0.3,1.7,1.1,1.7,2v1.8c0,1.7-1.1,1.8-2.4,1.8H77.8
		z M77.1,94.3c0.5,0,0.7-0.4,0.7-0.8s-0.3-0.7-0.7-0.7c-0.3,0-0.6,0.1-0.8,0.3C76.3,93.7,76.5,94.3,77.1,94.3z M82,96.5v-1.7
		c0-0.8-0.2-1.4-2-1.5V98h0.4C81.8,98,82,97.8,82,96.5z"/>
	<path id="XMLID_141_" class="st4" d="M80.2,89.7c0.3-0.1,0.7-0.2,0.9-0.6c-0.7-0.1-1.1-0.5-1.1-1.1c0-0.6,0.5-1.1,1.1-1.1
		c0.6,0,1.1,0.5,1.1,1.1c0,0.3-0.1,0.8-0.7,1.4l0,0c1.4-0.2,1.9-1.4,2-2.4h0.9c-0.2,1.1-0.7,2-1.6,2.5c-0.6,0.3-1.4,0.5-2.6,0.6
		L80.2,89.7z M80.6,88c0,0.4,0.4,0.6,0.7,0.6c0.1,0,0.3-0.1,0.4-0.2c0.1-0.1,0.1-0.3,0.1-0.5c0-0.3-0.3-0.6-0.6-0.6
		C80.8,87.4,80.6,87.7,80.6,88z"/>
	<path id="XMLID_138_" class="st4" d="M92.9,98.6h-0.9v-4.8c0-1.6-1.2-2.3-2.5-2.3c-1.4,0-2.4,1-2.4,2.5c0,1,0.3,2,0.5,2.9h0
		c0.1-1.2,0.4-2.5,0.8-3.1c0.3-0.4,0.7-0.7,1.2-0.7c0.8,0,1.4,0.6,1.4,1.4c0,0.8-0.6,1.4-1.4,1.4c-0.4,0-0.7-0.1-1-0.4
		c-0.3,0.9-0.5,1.9-0.5,3.1h-0.8c0-0.7-0.3-1.4-0.5-2.2c-0.3-0.8-0.5-1.6-0.5-2.5c0-1.9,1.5-3,3.3-3c2.4,0,3.3,1.3,3.3,3.1V98.6z
		 M89.6,95.4c0.5,0,0.8-0.5,0.8-0.9c0-0.5-0.3-0.9-0.8-0.9c-0.5,0-0.9,0.5-0.9,1C88.7,95.1,89.2,95.4,89.6,95.4z"/>
	<path id="XMLID_135_" class="st4" d="M93.2,99.4L93.2,99.4l0,1.9c0,1.2-0.7,1.4-1.6,1.4H90l0.1-0.4h0.7v-0.9
		c-0.2,0.1-0.4,0.1-0.6,0.1c-0.5,0-1-0.3-1-1c0-0.6,0.5-1.1,1.2-1.1c0.3,0,1.1,0.1,1.1,1.3v1.5h0.2c0.6,0,1,0,1-1v-1.5L93.2,99.4z
		 M90.8,100.4c0-0.4-0.3-0.6-0.6-0.6c-0.4,0-0.6,0.3-0.6,0.6c0,0.3,0.2,0.6,0.6,0.6c0.2,0,0.5-0.1,0.6-0.2
		C90.8,100.7,90.8,100.5,90.8,100.4z"/>
	<path id="XMLID_132_" class="st4" d="M102.7,85.9L102.7,85.9l0.1,10.5c0,1.9-1.2,2.2-2.6,2.2h-3.5l0.1-0.6H98v-4.2
		C97.7,94,97.4,94,97.1,94c-0.7,0-1.4-0.5-1.4-1.5c0-0.8,0.6-1.5,1.6-1.5c0.4,0,1.6,0.2,1.6,2v5h1.2c1.1,0,1.8-0.3,1.8-1.7v-6.5
		c0-1.2,0-2.3-0.1-3.5L102.7,85.9z M98.1,92.5c0-0.6-0.4-1-0.8-1c-0.6,0-0.9,0.4-0.9,1c0,0.5,0.3,1,0.9,1c0.3,0,0.7-0.2,0.8-0.4
		C98,93,98.1,92.8,98.1,92.5z"/>
	<path id="XMLID_129_" class="st4" d="M105.3,92.2c1-0.9,2-1.2,2.8-1.2c1,0,2.7,0.4,2.7,2.6v3.1c0,1.2-1.2,2-2.7,2
		c-1.5,0-2.5-0.6-2.5-1.9v-1.9c0-1.2,0.6-1.9,1.6-1.9c0.8,0,1.4,0.6,1.4,1.4c0,0.8-0.5,1.4-1.4,1.4c-0.3,0-0.5-0.1-0.7-0.2v1.1
		c0,1,0.6,1.5,1.7,1.5c1,0,1.7-0.5,1.7-1.5v-3.1c0-1.5-1-1.9-2-1.9c-0.9,0-1.6,0.4-2.3,1L105.3,92.2z M107.2,95.2
		c0.5,0,0.8-0.4,0.8-0.9c0-0.5-0.3-0.9-0.8-0.9c-0.5,0-0.8,0.4-0.8,0.9c0,0.2,0,0.4,0.1,0.6C106.7,95.1,107,95.2,107.2,95.2z"/>
	<path id="XMLID_126_" class="st4" d="M112.7,94c1.3,0.8,3,2.7,3.9,3.9c0.3,0,0.4-0.2,0.4-1.1v-3.2c-0.3,0.2-0.5,0.3-0.8,0.3
		c-0.7,0-1.4-0.5-1.4-1.5c0-0.8,0.6-1.5,1.6-1.5c0.4,0,1.6,0.2,1.6,2v3.7c0,1.4-0.1,1.9-1.3,1.9h-0.4c-1-1.4-2.8-3.3-3.9-4L112.7,94
		z M117.1,92.5c0-0.6-0.4-1-0.8-1c-0.6,0-0.9,0.4-0.9,1c0,0.5,0.3,1,0.9,1c0.3,0,0.7-0.2,0.8-0.4C117,93,117.1,92.8,117.1,92.5z"/>
	<path id="XMLID_123_" class="st4" d="M125.9,96.7c0,1.4-0.1,1.9-1.3,1.9H124l-1.2-3.1c-0.2,0.4-0.6,0.6-1.1,0.6
		c-0.8,0-1.4-0.6-1.4-1.4c0-0.9,0.7-1.5,1.5-1.5c0.5,0,1.1,0.2,1.6,1.5l1.2,3.2c0.4,0,0.4-0.1,0.4-0.8v-3.7c0-1.5-1-1.9-2-1.9
		c-0.9,0-1.6,0.4-2.4,1l-0.3-0.4c1-0.9,2-1.2,2.8-1.2c1,0,2.8,0.4,2.8,2.6V96.7z M121.7,93.9c-0.5,0-0.8,0.4-0.8,0.8
		c0,0.4,0.3,0.9,0.8,0.9c0.4,0,0.8-0.3,0.9-0.8C122.5,94.2,122.2,93.9,121.7,93.9z"/>
	<path id="XMLID_121_" class="st4" d="M131.3,98.6v-5c0-1.5-0.8-2-1.6-2c-0.6,0-1.2,0.3-1.7,0.7l-0.3-0.4c0.8-0.7,1.5-0.9,2.2-0.9
		c0.8,0,2.4,0.4,2.4,2.6v4.9H131.3z"/>
	<path id="XMLID_119_" class="st4" d="M139.9,98.7c0-0.8,0.1-1.7,0.1-2.5v-2.4c0-1.6-1-2.3-2.1-2.3c-0.8,0-1.8,0.4-2.1,1.2l2,0.5
		l-0.2,0.5c-1,0.1-1.3,0.8-1.3,1.5v3.3h-0.9v-3.1c0-0.8,0.2-1.5,1.2-1.9v0l-1.7-0.3c0.1-1.3,1.4-2.3,3-2.3c2,0,2.8,1.3,2.8,3.1v4.2
		l-0.9,0.4H139.9z"/>
	<path id="XMLID_116_" class="st3" d="M61.4,105.2c0.6,0,1.2,0.5,1.2,1.2c0,0.6-0.5,1.1-1.2,1.1c-0.6,0-1.1-0.5-1.1-1.1
		C60.3,105.7,60.8,105.2,61.4,105.2z M60.7,117.6v-8.2h1.6v8.2H60.7z"/>
	<path id="XMLID_113_" class="st3" d="M65.5,120.8v-11.4H67v1.3c0.4-0.8,1.4-1.5,2.7-1.5c2.4,0,3.8,1.9,3.8,4.3
		c0,2.4-1.4,4.3-3.8,4.3c-1.3,0-2.2-0.6-2.7-1.3v4.3H65.5z M69.5,110.6c-1.5,0-2.4,1.2-2.4,2.9c0,1.7,1,2.9,2.4,2.9
		c1.5,0,2.4-1.2,2.4-2.9C71.9,111.9,71,110.6,69.5,110.6z"/>
	<path id="XMLID_111_" class="st3" d="M80.6,111c-0.2,0-0.5-0.1-0.7-0.1c-1.3,0-2.2,0.7-2.2,2.5v4.1h-1.6v-8.2h1.6v1.4
		c0.6-1.3,1.6-1.6,2.4-1.6c0.2,0,0.4,0,0.5,0.1V111z"/>
	<path id="XMLID_108_" class="st3" d="M83.6,105.2c0.6,0,1.2,0.5,1.2,1.2c0,0.6-0.5,1.1-1.2,1.1c-0.6,0-1.1-0.5-1.1-1.1
		C82.5,105.7,83,105.2,83.6,105.2z M82.8,117.6v-8.2h1.6v8.2H82.8z"/>
	<path id="XMLID_106_" class="st3" d="M88.6,113.5c0,1.9,1.2,2.9,2.5,2.9c1.5,0,2.1-1,2.3-1.7l1.4,0.6c-0.4,1.2-1.6,2.5-3.7,2.5
		c-2.4,0-4.1-1.9-4.1-4.4c0-2.5,1.8-4.3,4.1-4.3c2.2,0,3.3,1.4,3.6,2.6l-1.4,0.6c-0.2-0.8-0.8-1.7-2.2-1.7
		C89.8,110.6,88.6,111.6,88.6,113.5z"/>
	<path id="XMLID_103_" class="st3" d="M104.3,115.3c-0.5,1.4-1.8,2.6-3.7,2.6c-2.2,0-4.1-1.6-4.1-4.4c0-2.6,1.9-4.3,3.9-4.3
		c2.5,0,3.9,1.7,3.9,4.3c0,0.2,0,0.4,0,0.5h-6.2c0,1.5,1.1,2.5,2.5,2.5c1.3,0,2-0.7,2.3-1.6L104.3,115.3z M102.7,112.7
		c0-1.2-0.8-2.1-2.2-2.1c-1.3,0-2.2,1-2.2,2.1H102.7z"/>
	<path id="XMLID_100_" class="st4" d="M59.4,123.9c0.7,0,1.1,0.2,1.5,0.4c0.3,0.2,0.6,0.3,1,0.3c0.3,0,0.6-0.2,0.8-0.5l0.3,0.4
		c-0.4,0.6-0.8,0.8-1.3,0.8c-0.5,0-0.9-0.2-1.4-0.3c-0.4-0.1-0.7-0.3-1.2-0.3c-0.5,0-1,0.2-1,0.8c1.4,0.1,2.5,0.3,3,0.8
		c0.5,0.5,0.5,0.8,0.5,1.9v5.8c0.3-0.2,0.6-0.3,0.9-0.3c0.7,0,1.4,0.5,1.4,1.5c0,0.8-0.6,1.5-1.5,1.5c-0.5,0-1.7-0.2-1.7-2.1v-6.8
		c0-1.2-0.4-1.6-3.3-1.9C57.4,124.7,58.4,123.9,59.4,123.9z M61.5,135.1c0,0.6,0.4,1,0.9,1s0.9-0.5,0.9-1c0-0.5-0.3-1-0.9-1
		c-0.3,0-0.7,0.2-0.8,0.4C61.5,134.8,61.5,134.9,61.5,135.1z"/>
	<path id="XMLID_97_" class="st4" d="M72.7,136.6h-0.9v-4.8c0-1.6-1.2-2.3-2.5-2.3c-1,0-2.4,0.5-2.4,2.3c0,0.8,0.3,1.9,1.1,3.7h0
		c0.4-0.6,0.8-1,1.2-1.6c-0.8-0.1-1.3-0.6-1.3-1.4c0-0.8,0.6-1.4,1.5-1.4c0.8,0,1.4,0.6,1.4,1.4c0,0.4-0.1,0.9-0.6,1.5
		c-0.5,0.7-1.3,1.7-1.9,2.6h-0.8c-0.4-1.5-1.5-3-1.5-4.7c0-1.8,1.5-2.9,3.4-2.9c2.4,0,3.3,1.3,3.3,3.1V136.6z M70.1,132.4
		c0-0.5-0.4-0.8-0.8-0.8c-0.5,0-0.9,0.4-0.9,0.9c0,0.5,0.4,0.9,1,0.9C69.7,133.4,70.1,133,70.1,132.4z"/>
	<path id="XMLID_94_" class="st4" d="M77.9,136.7c-1.4,0-2.5-0.7-2.5-2v-0.1c0-1,0.7-1.4,1.2-1.5v0c-1-0.4-1.3-0.9-1.3-1.9V131
		c0-1,0.5-2,1.6-2c0.8,0,1.3,0.6,1.3,1.4c0,0.8-0.5,1.4-1.4,1.4c-0.2,0-0.5,0-0.8-0.2c0,0.8,0.4,1.1,1.3,1.1H78v0.6h-0.7
		c-0.6,0-1,0.4-1,1.2v0.3c0,1,0.7,1.4,1.6,1.4c1,0,1.7-0.5,1.7-1.5V132c0-0.8,0-1.7-0.1-2.5l0.9-0.4h0.1v5.6
		C80.6,135.9,79.4,136.7,77.9,136.7z M76.9,129.5c-0.5,0-0.8,0.4-0.8,0.9c0,0.5,0.3,0.8,0.8,0.8c0.5,0,0.8-0.4,0.8-0.8
		C77.7,129.9,77.4,129.5,76.9,129.5z"/>
	<path id="XMLID_91_" class="st4" d="M84.5,134c0.3-0.2,0.6-0.3,0.9-0.3c0.7,0,1.4,0.5,1.4,1.5c0,0.8-0.6,1.5-1.5,1.5
		c-0.4,0-1.7-0.2-1.7-2.1V132c0-0.8,0-1.7-0.1-2.5l0.9-0.4h0.1V134z M84.5,135.1c0,0.6,0.4,1,0.9,1c0.5,0,0.9-0.5,0.9-1
		c0-0.5-0.3-1-0.9-1c-0.3,0-0.7,0.2-0.8,0.4C84.5,134.8,84.5,134.9,84.5,135.1z"/>
	<path id="XMLID_87_" class="st4" d="M94,133.7v-2.1c0-1.4-0.8-1.9-1.9-1.9c-0.7,0-1.5,0.3-2.1,0.6l-0.3-0.5
		c0.8-0.5,1.7-0.8,2.6-0.8c1.5,0,2.6,0.8,2.6,2.6v1.8c0.1,0,0.2,0,0.3,0c1,0,1.7,0.6,1.7,1.6c0,0.9-0.6,1.6-1.5,1.6
		c-0.9,0-1.4-0.6-1.4-2c0-0.1,0-0.2,0-0.4c-0.9,0.3-1.9,1.2-2.5,2.3h-0.8v-3.1c-0.2,0.2-0.5,0.3-0.8,0.3c-0.6,0-1.2-0.5-1.2-1.4
		c0-0.8,0.6-1.4,1.4-1.4c0.5,0,1.5,0.2,1.5,2.1v2.4C92.2,134.6,93.1,134,94,133.7z M90.7,132.4c0-0.6-0.3-1-0.8-1
		c-0.4,0-0.8,0.4-0.8,0.9s0.3,0.9,0.8,0.9c0.2,0,0.6-0.1,0.7-0.3C90.7,132.7,90.7,132.5,90.7,132.4z M94.9,134.1
		c0,0.2-0.1,0.5-0.1,0.8c0,0.6,0.1,1.2,0.6,1.2c0.5,0,0.8-0.6,0.8-1.1c0-0.6-0.4-1-1-1C95.2,134.1,95.1,134.1,94.9,134.1z"/>
	<path id="XMLID_84_" class="st4" d="M103.7,133c-0.5-0.5-1.3-1.1-2-1.1c-1,0-1.6,0.7-1.6,1.8v0.5c0.2-0.2,0.6-0.3,0.8-0.3
		c0.7,0,1.3,0.5,1.3,1.4c0,0.8-0.6,1.4-1.5,1.4c-0.4,0-1.5-0.2-1.5-2.1V134c0-2.3,1.7-2.6,2.5-2.6c0.7,0,1.4,0.2,1.9,0.6v-0.4
		c0-1.5-1-1.9-1.9-1.9c-0.9,0-1.6,0.4-2.3,1l-0.3-0.4c1-0.9,2-1.2,2.8-1.2c1,0,2.7,0.4,2.7,2.6v4.9h-0.9V133z M100,135.3
		c0,0.5,0.3,0.9,0.8,0.9c0.4,0,0.8-0.4,0.8-0.9c0-0.5-0.3-0.9-0.8-0.9c-0.2,0-0.6,0.2-0.7,0.3C100,134.9,100,135.1,100,135.3z"/>
	<path id="XMLID_81_" class="st4" d="M103.1,124.9c0.5,0,0.9,0.1,1.3,0.4v-1.4l0.6-0.3h0.1v2.2c0.3,0.4,0.5,0.9,0.5,1.4
		c0,0.3-0.1,0.6-0.2,0.9c-1.5-0.8-2.9-1.1-4.7-1.2C100.8,125.6,101.8,124.9,103.1,124.9z M105.1,127.4c-0.1-1.2-1.2-1.8-2.3-1.8
		c-0.7,0-1.3,0.3-1.6,0.8C102.6,126.6,103.8,126.8,105.1,127.4z"/>
	<path id="XMLID_79_" class="st4" d="M105,128.1l-0.4-3.2h1.2l-0.4,3.1L105,128.1L105,128.1z"/>
	<path id="XMLID_76_" class="st4" d="M110.9,136.7c-1.4,0-2.5-0.7-2.5-2v-0.1c0-1,0.7-1.4,1.2-1.5v0c-1-0.4-1.3-0.9-1.3-1.9V131
		c0-1,0.5-2,1.6-2c0.8,0,1.3,0.6,1.3,1.4c0,0.8-0.5,1.4-1.4,1.4c-0.2,0-0.5,0-0.8-0.2c0,0.8,0.4,1.1,1.3,1.1h0.5v0.6h-0.7
		c-0.6,0-1,0.4-1,1.2v0.3c0,1,0.7,1.4,1.6,1.4c1,0,1.7-0.5,1.7-1.5V132c0-0.8,0-1.7-0.1-2.5l0.9-0.4h0.1v5.6
		C113.6,135.9,112.4,136.7,110.9,136.7z M109.9,129.5c-0.5,0-0.8,0.4-0.8,0.9c0,0.5,0.3,0.8,0.8,0.8c0.5,0,0.8-0.4,0.8-0.8
		C110.7,129.9,110.4,129.5,109.9,129.5z"/>
	<path id="XMLID_73_" class="st4" d="M121.1,133c-0.5-0.5-1.3-1.1-2-1.1c-1,0-1.6,0.7-1.6,1.8v0.5c0.2-0.2,0.6-0.3,0.8-0.3
		c0.7,0,1.3,0.5,1.3,1.4c0,0.8-0.6,1.4-1.5,1.4c-0.4,0-1.5-0.2-1.5-2.1V134c0-2.3,1.7-2.6,2.5-2.6c0.7,0,1.4,0.2,1.9,0.6v-0.4
		c0-0.6-0.2-1-0.4-1.3c-0.4,0.3-0.8,0.6-1.2,0.8l-0.5-0.1v-0.1c0.5-0.3,0.9-0.6,1.3-0.9c-0.3-0.2-0.7-0.3-1.1-0.3
		c-0.9,0-1.6,0.4-2.3,1l-0.3-0.4c1-0.9,2-1.2,2.8-1.2c0.4,0,1,0.1,1.5,0.3c0.3-0.3,0.4-0.7,0.5-1.2h0.9c-0.1,0.6-0.4,1.1-0.9,1.5
		c0.4,0.4,0.7,1,0.7,1.9v4.9h-0.9V133z M117.4,135.3c0,0.5,0.3,0.9,0.8,0.9c0.4,0,0.8-0.4,0.8-0.9c0-0.5-0.3-0.9-0.8-0.9
		c-0.2,0-0.6,0.2-0.7,0.3C117.4,134.9,117.4,135.1,117.4,135.3z"/>
	<path id="XMLID_71_" class="st4" d="M127.6,136.6v-5c0-1.5-0.8-2-1.6-2c-0.6,0-1.2,0.3-1.7,0.7l-0.3-0.4c0.8-0.7,1.5-0.9,2.2-0.9
		c0.8,0,2.4,0.4,2.4,2.6v4.9H127.6z"/>
	<path id="XMLID_67_" class="st4" d="M137,135.5V132c0-0.8,0-1.7-0.1-2.5l0.9-0.4h0.1v7.5H137c-0.8-1-1.9-1.8-2.9-2.1v0.2
		c0,1.2-0.4,2.1-1.5,2.1c-0.8,0-1.4-0.6-1.4-1.5c0-1.1,0.8-1.6,1.7-1.6c0.1,0,0.1,0,0.3,0v-1.9c-0.3,0.2-0.5,0.3-0.8,0.3
		c-0.7,0-1.4-0.5-1.4-1.5c0-0.8,0.6-1.5,1.6-1.5c0.4,0,1.6,0.2,1.6,2v2.8C135.2,134.1,136.1,134.7,137,135.5z M133.4,130.5
		c0-0.6-0.4-1-0.8-1c-0.6,0-0.9,0.4-0.9,1c0,0.5,0.3,1,0.9,1c0.3,0,0.7-0.2,0.8-0.4C133.3,131,133.4,130.8,133.4,130.5z
		 M131.8,135.2c0,0.5,0.3,1,0.8,1c0.5,0,0.7-0.5,0.7-1.1c0-0.3-0.1-0.6-0.1-0.8c-0.2,0-0.2,0-0.4,0
		C132.3,134.3,131.8,134.6,131.8,135.2z"/>
	<path id="XMLID_65_" class="st4" d="M143.3,136.6v-5c0-1.5-0.8-2-1.6-2c-0.6,0-1.2,0.3-1.7,0.7l-0.3-0.4c0.8-0.7,1.5-0.9,2.2-0.9
		c0.8,0,2.4,0.4,2.4,2.6v4.9H143.3z"/>
	<path id="XMLID_62_" class="st4" d="M148.4,128.8c0.7,0,1.2,0.2,1.6,0.4c0.3,0.2,0.6,0.3,0.9,0.3c0.3,0,0.7-0.2,0.8-0.5l0.3,0.4
		c-0.4,0.5-0.9,0.8-1.4,0.8c-0.5,0-0.9-0.2-1.3-0.3c-0.4-0.1-0.8-0.3-1.2-0.3c-0.5,0-1,0.2-1,0.8c2.1,0.2,2.9,0.4,3.6,0.9
		c0.6,0.5,0.8,1.1,0.8,1.9v1.6c0,1.2-0.6,2-1.7,2c-0.9,0-1.5-0.6-1.5-1.5c0-0.8,0.6-1.5,1.5-1.5c0.3,0,0.5,0.1,0.8,0.3v-1
		c0-1.3-1.1-1.7-4.1-2C146.3,129.6,147.4,128.8,148.4,128.8z M149.8,134.2c-0.5,0-0.9,0.4-0.9,0.9c0,0.5,0.3,1,0.9,1
		c0.5,0,0.8-0.5,0.8-1c0-0.3,0-0.4-0.1-0.6C150.3,134.3,150,134.2,149.8,134.2z"/>
	<path id="XMLID_59_" class="st4" d="M156.6,131.8c-1.2,0.1-1.5,0.8-1.5,1.5v0.8c0.2-0.2,0.5-0.3,0.8-0.3c0.6,0,1.2,0.5,1.2,1.4
		c0,0.8-0.6,1.4-1.4,1.4c-0.4,0-1.5-0.2-1.5-2.1v-1.1c0-0.8,0.3-1.5,1.5-1.9v0l-1.7-0.3c0.1-1.3,1.4-2.3,3-2.3
		c2.1,0,2.9,1.3,2.9,3.1v4.2l-0.9,0.4h-0.1c0-0.8,0.1-1.7,0.1-2.5v-2.4c0-1.6-1-2.3-2.1-2.3c-0.9,0-1.8,0.4-2.1,1.2l2,0.5
		L156.6,131.8z M155,135.2c0,0.6,0.3,1,0.8,1c0.5,0,0.8-0.4,0.8-0.9s-0.3-0.9-0.8-0.9c-0.2,0-0.6,0.1-0.7,0.3
		C155,134.9,155,135.1,155,135.2z"/>
	<path id="XMLID_56_" class="st4" d="M66.9,142.9L66.9,142.9l0.1,10.5c0,1.9-1.2,2.2-2.6,2.2h-3.5l0.1-0.6h1.3v-4.2
		c-0.3,0.2-0.5,0.3-0.8,0.3c-0.7,0-1.4-0.5-1.4-1.5c0-0.8,0.6-1.5,1.6-1.5c0.4,0,1.6,0.2,1.6,2v5h1.2c1.1,0,1.8-0.3,1.8-1.7v-6.5
		c0-1.2,0-2.3-0.1-3.5L66.9,142.9z M62.2,149.5c0-0.6-0.4-1-0.8-1c-0.6,0-0.9,0.4-0.9,1c0,0.5,0.3,1,0.9,1c0.3,0,0.7-0.2,0.8-0.4
		C62.2,150,62.2,149.8,62.2,149.5z"/>
	<path id="XMLID_53_" class="st4" d="M71.1,147.8c0.7,0,1.2,0.2,1.6,0.4c0.3,0.2,0.6,0.3,0.9,0.3c0.3,0,0.7-0.2,0.8-0.5l0.3,0.4
		c-0.4,0.5-0.9,0.8-1.4,0.8c-0.5,0-0.9-0.2-1.3-0.3s-0.8-0.3-1.2-0.3c-0.5,0-1,0.2-1,0.8c2.1,0.2,2.9,0.4,3.6,0.9
		c0.6,0.5,0.8,1.1,0.8,1.9v1.6c0,1.2-0.6,2-1.7,2c-0.9,0-1.5-0.6-1.5-1.5c0-0.8,0.6-1.5,1.5-1.5c0.3,0,0.5,0.1,0.8,0.3v-1
		c0-1.3-1.1-1.7-4.1-2C69.1,148.6,70.1,147.8,71.1,147.8z M72.5,153.2c-0.5,0-0.9,0.4-0.9,0.9c0,0.5,0.3,1,0.9,1
		c0.5,0,0.8-0.5,0.8-1c0-0.3,0-0.4-0.1-0.6C73.1,153.3,72.7,153.2,72.5,153.2z"/>
	<path id="XMLID_48_" class="st4" d="M82.3,148.5c-0.5,2.1-1.9,3-3.4,3c-1,0-2.2-0.5-2.2-1.7c0-0.8,0.6-1.4,1.4-1.4
		c0.7,0,1.2,0.5,1.2,1.2c0,0.5-0.2,0.9-0.7,1.2v0c0.1,0,0.2,0,0.3,0c1.2,0,2-0.8,2.3-2.4H82.3z M82.3,152.8c-0.5,2.1-1.9,3-3.4,3
		c-1,0-2.2-0.5-2.2-1.7c0-0.8,0.6-1.4,1.4-1.4c0.7,0,1.2,0.5,1.2,1.2c0,0.5-0.2,0.9-0.7,1.2v0c0.1,0,0.2,0,0.3,0
		c1.2,0,2-0.8,2.3-2.4H82.3z M78.7,149.6c0-0.5-0.3-0.7-0.7-0.7c-0.4,0-0.7,0.3-0.7,0.7c0,0.5,0.3,0.8,0.7,1
		C78.5,150.4,78.7,150.1,78.7,149.6z M78.7,153.9c0-0.4-0.3-0.7-0.7-0.7c-0.4,0-0.7,0.3-0.7,0.7c0,0.5,0.3,0.8,0.7,1
		C78.5,154.7,78.7,154.5,78.7,153.9z"/>
	<path id="XMLID_44_" class="st4" d="M86.3,150.8c-0.3,0.2-0.5,0.3-0.8,0.3c-0.7,0-1.4-0.5-1.4-1.5c0-0.8,0.6-1.5,1.6-1.5
		c0.4,0,1.6,0.2,1.6,2v3.1c0,0.4,0,0.9-0.1,1.3l0,0c1-1.9,2.1-3.4,3-4c-0.6-0.2-1-0.6-1-1.2c0-0.8,0.6-1.4,1.4-1.4
		c0.8,0,1.3,0.6,1.3,1.3c0,0.4-0.2,0.8-0.6,1.2c0.1,0.1,0.2,0.2,0.2,0.4v4.8h-0.9v-4.8c-1,0.5-2.3,2.4-3.4,4.8h-1V150.8z
		 M86.4,149.5c0-0.6-0.4-1-0.8-1c-0.6,0-0.9,0.4-0.9,1c0,0.5,0.3,1,0.9,1c0.3,0,0.7-0.2,0.8-0.4C86.4,150,86.4,149.8,86.4,149.5z
		 M91.4,149.2c0-0.5-0.3-0.8-0.8-0.8c-0.5,0-0.8,0.3-0.8,0.8c0,0.5,0.4,0.8,0.9,0.9C91.1,149.9,91.4,149.6,91.4,149.2z"/>
	<path id="XMLID_41_" class="st4" d="M96.8,155.7c-1.4,0-2.5-0.7-2.5-2v-0.1c0-1,0.7-1.4,1.2-1.5v0c-1-0.4-1.3-0.9-1.3-1.9V150
		c0-1,0.5-2,1.6-2c0.8,0,1.3,0.6,1.3,1.4c0,0.8-0.5,1.4-1.4,1.4c-0.2,0-0.5,0-0.8-0.2c0,0.8,0.4,1.1,1.3,1.1h0.5v0.6h-0.7
		c-0.6,0-1,0.4-1,1.2v0.3c0,1,0.7,1.4,1.6,1.4c1,0,1.7-0.5,1.7-1.5V151c0-0.8,0-1.7-0.1-2.5l0.9-0.4h0.1v5.6
		C99.5,154.9,98.3,155.7,96.8,155.7z M95.8,148.5c-0.5,0-0.8,0.4-0.8,0.9c0,0.5,0.3,0.8,0.8,0.8c0.5,0,0.8-0.4,0.8-0.8
		C96.6,148.9,96.3,148.5,95.8,148.5z"/>
	<path id="XMLID_38_" class="st4" d="M102.4,144.7c-0.5,1.6-1.5,2.4-3,2.4c-0.9,0-2.1-0.4-2.1-1.5c0-0.6,0.5-1.1,1.2-1.1
		c0.6,0,1,0.5,1,1c0,0.3-0.2,0.8-0.6,1v0c0.2,0.1,0.4,0.1,0.5,0.1c0.9,0,1.7-0.7,1.9-1.9H102.4z M98.3,146.3
		c0.4-0.1,0.5-0.4,0.5-0.7c0-0.3-0.2-0.5-0.5-0.5c-0.3,0-0.5,0.3-0.5,0.6C97.8,145.9,98,146.2,98.3,146.3z"/>
	<path id="XMLID_35_" class="st4" d="M109.5,155.6h-0.9v-4.8c0-1.6-1.2-2.3-2.5-2.3c-1,0-2.4,0.5-2.4,2.3c0,0.8,0.3,1.9,1.1,3.7h0
		c0.4-0.6,0.8-1,1.2-1.6c-0.8-0.1-1.3-0.6-1.3-1.4c0-0.8,0.6-1.4,1.5-1.4c0.8,0,1.4,0.6,1.4,1.4c0,0.4-0.1,0.9-0.6,1.5
		c-0.5,0.7-1.3,1.7-1.9,2.6h-0.8c-0.4-1.5-1.5-3-1.5-4.7c0-1.8,1.5-2.9,3.4-2.9c2.4,0,3.3,1.3,3.3,3.1V155.6z M106.9,151.4
		c0-0.5-0.4-0.8-0.8-0.8c-0.5,0-0.9,0.4-0.9,0.9c0,0.5,0.4,0.9,1,0.9C106.5,152.4,106.9,152,106.9,151.4z"/>
	<path id="XMLID_32_" class="st4" d="M114.4,152.7c0.7,0,1.4,0.5,1.4,1.5c0,0.8-0.6,1.5-1.5,1.5c-0.5,0-1.7-0.2-1.7-2.1v-9
		c0-1.1-0.2-1.1-0.3-1.1c-0.2,0.5-0.5,1.5-1.1,3.1h-0.4c-1.1-3.2-1.1-3.2-1.5-3.2v-0.5h0.2c0.8,0,0.8,0.1,1.6,2.3h0
		c0.4-1.3,0.6-1.9,0.8-2.3h0.2c0.6,0,1.4,0.3,1.4,2.1v7.9C113.8,152.8,114.1,152.7,114.4,152.7z M113.4,154.1c0,0.6,0.4,1,0.9,1
		c0.5,0,0.9-0.5,0.9-1c0-0.5-0.3-1-0.9-1c-0.3,0-0.7,0.2-0.8,0.4C113.5,153.8,113.4,153.9,113.4,154.1z"/>
	<path id="XMLID_29_" class="st4" d="M124.6,155.6h-0.9v-4.8c0-1.6-1.2-2.3-2.5-2.3c-1,0-2.4,0.5-2.4,2.3c0,0.8,0.3,1.9,1.1,3.7h0
		c0.4-0.6,0.8-1,1.2-1.6c-0.8-0.1-1.3-0.6-1.3-1.4c0-0.8,0.6-1.4,1.5-1.4c0.8,0,1.4,0.6,1.4,1.4c0,0.4-0.1,0.9-0.6,1.5
		c-0.5,0.7-1.3,1.7-1.9,2.6h-0.8c-0.4-1.5-1.5-3-1.5-4.7c0-1.8,1.5-2.9,3.4-2.9c2.4,0,3.3,1.3,3.3,3.1V155.6z M122.1,151.4
		c0-0.5-0.4-0.8-0.8-0.8c-0.5,0-0.9,0.4-0.9,0.9c0,0.5,0.4,0.9,1,0.9C121.6,152.4,122.1,152,122.1,151.4z"/>
	<path id="XMLID_26_" class="st4" d="M121.9,146.7c0.3-0.1,0.7-0.2,0.9-0.6c-0.7-0.1-1.1-0.5-1.1-1.1c0-0.6,0.5-1.1,1.1-1.1
		c0.6,0,1.1,0.5,1.1,1.1c0,0.3-0.1,0.8-0.7,1.4l0,0c1.4-0.2,1.9-1.4,2-2.4h0.9c-0.2,1.1-0.7,2-1.6,2.5c-0.6,0.3-1.4,0.5-2.6,0.6
		L121.9,146.7z M122.3,145c0,0.4,0.4,0.6,0.7,0.6c0.1,0,0.3-0.1,0.4-0.2c0.1-0.1,0.1-0.3,0.1-0.5c0-0.3-0.3-0.6-0.6-0.6
		C122.4,144.4,122.3,144.7,122.3,145z"/>
	<path id="XMLID_23_" class="st4" d="M130.5,150.8c-1.2,0.1-1.5,0.8-1.5,1.5v0.8c0.2-0.2,0.5-0.3,0.8-0.3c0.6,0,1.2,0.5,1.2,1.4
		c0,0.8-0.6,1.4-1.4,1.4c-0.5,0-1.5-0.2-1.5-2.1v-1.1c0-0.8,0.3-1.5,1.5-1.9v0l-1.7-0.3c0.1-1.3,1.4-2.3,3-2.3
		c2.1,0,2.9,1.3,2.9,3.1v4.2l-0.9,0.4h-0.1c0-0.8,0.1-1.7,0.1-2.5v-2.4c0-1.6-1-2.3-2.1-2.3c-0.9,0-1.8,0.4-2.1,1.2l2,0.5
		L130.5,150.8z M128.9,154.2c0,0.6,0.3,1,0.8,1c0.5,0,0.8-0.4,0.8-0.9s-0.3-0.9-0.8-0.9c-0.2,0-0.6,0.1-0.7,0.3
		C128.9,153.9,128.9,154.1,128.9,154.2z"/>
	<path id="XMLID_19_" class="st4" d="M132.2,143.9c0.2,0,0.3,0,0.5,0.1c0-0.1-0.1-0.2-0.1-0.3c0-0.6,0.5-1,1-1c0.6,0,1,0.5,1,1
		c0,0.3-0.2,0.8-0.7,1c0.4,0.4,0.7,1,0.7,1.6c0,0.3-0.1,0.6-0.2,0.9c-1.5-0.8-2.9-1.1-4.7-1.2C129.9,144.6,130.9,143.9,132.2,143.9z
		 M134.2,146.4c-0.1-1.2-1.2-1.8-2.3-1.8c-0.7,0-1.3,0.3-1.6,0.8C131.7,145.6,132.9,145.8,134.2,146.4z M134.2,143.8
		c0-0.3-0.2-0.6-0.6-0.6c-0.3,0-0.6,0.3-0.6,0.6c0,0.3,0.3,0.6,0.6,0.6C134,144.3,134.2,144.1,134.2,143.8z"/>
	<path id="XMLID_16_" class="st4" d="M136.1,151c1.3,0.8,3,2.7,3.9,3.9c0.3,0,0.4-0.2,0.4-1.1v-3.2c-0.3,0.2-0.5,0.3-0.8,0.3
		c-0.7,0-1.4-0.5-1.4-1.5c0-0.8,0.6-1.5,1.6-1.5c0.4,0,1.6,0.2,1.6,2v3.7c0,1.4-0.1,1.9-1.3,1.9h-0.4c-1-1.4-2.8-3.3-3.9-4
		L136.1,151z M140.4,149.5c0-0.6-0.4-1-0.8-1c-0.6,0-0.9,0.4-0.9,1c0,0.5,0.3,1,0.9,1c0.3,0,0.7-0.2,0.8-0.4
		C140.4,150,140.4,149.8,140.4,149.5z"/>
</g>
</svg>