<!-- Generator: Adobe Illustrator 19.0.0, SVG Export Plug-In  -->
<svg version="1.1"
	 xmlns="http://www.w3.org/2000/svg" xmlns:xlink="http://www.w3.org/1999/xlink" xmlns:a="http://ns.adobe.com/AdobeSVGViewerExtensions/3.0/"
	 x="0px" y="0px" width="282px" height="66px" viewBox="0 0 282 66" style="overflow:scroll;enable-background:new 0 0 282 66;"
	 xml:space="preserve">
<style type="text/css">
	.st0{fill:#FF6633;}
	.st1{fill:#FFFFFF;}
	.st2{fill:none;stroke:#FFFFFF;stroke-width:2;stroke-linecap:round;stroke-linejoin:round;stroke-miterlimit:10;}
	.st3{fill:none;stroke:#FF6633;stroke-width:2;stroke-miterlimit:10;}
	.st4{fill:none;stroke:#FFFFFF;stroke-width:2;stroke-miterlimit:10;}
	.st5{fill:#FFFFFF;stroke:#FFFFFF;stroke-width:0.4;stroke-miterlimit:10;}
</style>
<defs>
</defs>
<circle id="XMLID_103_" class="st0" cx="8.4" cy="21.2" r="8.4"/>
<g id="XMLID_100_">
	<path id="XMLID_101_" class="st1" d="M10.4,19.1c0,0.5,0.1,1-0.2,1.4S9,21.1,9,21.2v0c0,0.1,1,0.3,1.3,0.6s0.4,0.8,0.4,1.4
		c0,0.8-0.4,1.5-1,1.9s-1.3,0.7-2.4,0.7c-0.9,0-2.3-0.2-2.3-0.5v-1.5c0,0.2,0.5,0.3,0.9,0.4s0.7,0.2,1.1,0.2c0.6,0,1-0.1,1.3-0.3
		s0.4-0.5,0.4-1c0-0.4-0.2-0.7-0.5-0.9S7.4,22,6.7,22H6v-1h0.7c0.7,0,1.1-0.3,1.5-0.5s0.5-0.6,0.5-1c0-0.6-0.4-1-1.2-1
		c-0.3,0-0.6,0-0.9,0.1s-0.6,0.2-1,0.5l-0.8-1.3C5.5,17.3,6.4,17,7.5,17c0.9,0,1.6,0.2,2.1,0.5S10.4,18.4,10.4,19.1z"/>
</g>
<g id="XMLID_86_">
	<path id="XMLID_99_" class="st2" d="M252.3,34.7"/>
	<path id="XMLID_98_" class="st2" d="M239.9,46.2c0,0-2.5-13.6,9.5-21.1"/>
	<path id="XMLID_97_" class="st2" d="M246.6,35.3"/>
	<path id="XMLID_96_" class="st2" d="M247.4,32.7"/>
	<path id="XMLID_95_" class="st2" d="M240.9,16.9c0,0,7.4-0.2,11.8,6.4C252.7,23.3,252.8,11.2,240.9,16.9z"/>
	<path id="XMLID_94_" class="st2" d="M239.2,27.4c0,0,5.2-5.2,12.9-3.4C252.2,24,244,15.2,239.2,27.4z"/>
	<path id="XMLID_93_" class="st2" d="M266.2,27.5c0,0-5.2-5.2-13-3.4C253.2,24.1,261.4,15.2,266.2,27.5z"/>
	<path id="XMLID_92_" class="st2" d="M260.2,36.3c0,0,0-1-0.4-2.4c-0.1-0.5-0.3-1.2-0.6-1.8c-0.2-0.5-0.4-1-0.7-1.6
		c-1-1.9-2.7-4-5.4-5.6C253.1,25,265.1,24.2,260.2,36.3z"/>
	<path id="XMLID_91_" class="st2" d="M246.5,46.2c0,0-4.2-11.7,6.6-19.9"/>
	<circle id="XMLID_90_" class="st3" cx="269.4" cy="33.8" r="3.2"/>
	<polyline id="XMLID_89_" class="st4" points="245.6,48.6 252.2,40.2 257.2,44.4 262.5,39 274.8,48.6 	"/>
	<rect id="XMLID_88_" x="228" y="1" class="st3" width="53" height="64"/>
	<rect id="XMLID_87_" x="235" y="7" class="st3" width="40" height="42"/>
</g>
<g id="XMLID_15_">
	<g id="XMLID_17_">
		<path id="XMLID_50_" class="st5" d="M30.6,17.8c0.1,0,0.2,0,0.4,0c0.2,0,0.4,0.1,0.6,0.1s0.5,0.2,0.7,0.3c0.2,0.1,0.5,0.3,0.7,0.6
			c0.2,0.2,0.4,0.5,0.5,0.9c0.1,0.4,0.2,0.8,0.2,1.3v3.1c0,0.6-0.2,1.1-0.4,1.6c-0.1,0.2-0.2,0.4-0.4,0.6c-0.2,0.2-0.3,0.4-0.6,0.5
			c-0.2,0.1-0.5,0.3-0.8,0.4c-0.3,0.1-0.6,0.1-1,0.1c-0.4,0-0.8,0-1.1-0.1c-0.3-0.1-0.6-0.2-0.8-0.4c-0.2-0.2-0.4-0.3-0.6-0.5
			c-0.2-0.2-0.3-0.4-0.4-0.6c0.1,0,0.1-0.1,0.2-0.1s0.2-0.1,0.3-0.2c0.1-0.1,0.2-0.1,0.3-0.2c0.1-0.1,0.2-0.1,0.3-0.1
			c0.1,0.3,0.2,0.5,0.4,0.6c0.2,0.1,0.4,0.2,0.5,0.3c0.2,0.1,0.4,0.1,0.7,0.1c0.3,0,0.6-0.1,0.9-0.3c0.1-0.1,0.2-0.1,0.3-0.2
			s0.2-0.2,0.3-0.3c0.1-0.1,0.1-0.3,0.2-0.4c0-0.2,0.1-0.4,0.1-0.6V21c0-0.3-0.1-0.7-0.2-0.9c-0.1-0.1-0.1-0.2-0.2-0.3
			c-0.1-0.1-0.2-0.2-0.3-0.3c-0.1-0.1-0.3-0.2-0.4-0.2c-0.2-0.1-0.4-0.1-0.6-0.1c-0.3,0-0.6,0-0.8,0.1s-0.4,0.1-0.6,0.3
			s-0.3,0.3-0.4,0.5c-0.1,0.2-0.2,0.4-0.3,0.7H27c0-0.4,0.1-0.8,0.3-1.2c0.2-0.4,0.4-0.7,0.7-0.9c0.3-0.3,0.6-0.4,1.1-0.6
			C29.5,17.8,30,17.8,30.6,17.8L30.6,17.8L30.6,17.8z"/>
		<path id="XMLID_48_" class="st5" d="M31.3,14.7v0.7h3.5v1.3h-4.2c-0.2,0-0.3,0-0.4-0.1c-0.1-0.1-0.1-0.1-0.2-0.2
			c0-0.1-0.1-0.2-0.1-0.3v-1.4H31.3z"/>
		<path id="XMLID_46_" class="st5" d="M37.8,17.8v5.9c0,0.4,0.1,0.7,0.2,1s0.2,0.5,0.4,0.7s0.3,0.3,0.5,0.4s0.4,0.2,0.5,0.2
			s0.3,0.1,0.4,0.1s0.2,0,0.2,0c0.4,0,0.7-0.1,0.9-0.2s0.5-0.3,0.6-0.4s0.3-0.4,0.4-0.5s0.2-0.4,0.2-0.6s0.1-0.3,0.1-0.5
			s0-0.2,0-0.2v-5.9h1.4v9.4h-1.4v-1.3c0,0.2-0.1,0.3-0.1,0.5s-0.2,0.2-0.3,0.3s-0.2,0.2-0.4,0.3s-0.3,0.1-0.4,0.2
			c-0.3,0.1-0.7,0.2-1.1,0.2h-0.3c-0.5,0-1-0.1-1.4-0.2s-0.7-0.3-0.9-0.6s-0.4-0.5-0.6-0.8s-0.2-0.6-0.3-0.8s-0.1-0.5-0.1-0.7
			s0-0.4,0-0.5v-0.1v-5.9H37.8z"/>
		<path id="XMLID_44_" class="st5" d="M46.2,17.8h1.4v2.4h3.1c0.2,0,0.3-0.1,0.5-0.2c0.1-0.1,0.2-0.2,0.4-0.4s0.2-0.4,0.3-0.6v-1.2
			h1.4v1.4c0,0.1,0,0.2-0.1,0.3s-0.1,0.3-0.2,0.5s-0.2,0.3-0.3,0.5s-0.2,0.3-0.4,0.4c0.2,0.2,0.3,0.4,0.5,0.6
			c0.1,0.2,0.2,0.4,0.3,0.7s0.2,0.6,0.2,1v4.1H52v-4.1c0-0.2-0.1-0.3-0.1-0.4s-0.1-0.3-0.1-0.4s-0.1-0.3-0.2-0.4s-0.2-0.2-0.3-0.3
			s-0.3-0.1-0.5-0.1h-3.1v5.7h-1.4V17.8z"/>
		<path id="XMLID_42_" class="st5" d="M62.9,17.8v6.8c0,0.4-0.1,0.7-0.2,1s-0.3,0.5-0.4,0.7s-0.4,0.4-0.6,0.5S61.2,27,61,27.1
			s-0.4,0.1-0.6,0.1s-0.3,0-0.4,0h-1.8c-0.5,0-0.9,0-1.2-0.1s-0.6-0.2-0.8-0.4s-0.4-0.3-0.5-0.5s-0.2-0.4-0.3-0.6s-0.1-0.4-0.1-0.5
			s0-0.3,0-0.4c0-0.4,0.1-0.7,0.2-0.9s0.3-0.5,0.5-0.6s0.3-0.3,0.5-0.4s0.2-0.1,0.3-0.1c-0.2,0-0.4-0.1-0.5-0.2s-0.3-0.2-0.4-0.3
			s-0.2-0.2-0.3-0.3s-0.1-0.2-0.2-0.4c-0.1-0.3-0.2-0.6-0.2-1c0-0.3,0-0.6,0.1-0.9s0.2-0.5,0.3-0.7s0.2-0.4,0.4-0.5s0.3-0.2,0.4-0.3
			c0.3-0.2,0.7-0.3,1.2-0.3h1.9v1.3h-1.1c-0.2,0-0.4,0-0.6,0.1s-0.3,0.1-0.4,0.2s-0.2,0.1-0.3,0.2s-0.1,0.2-0.2,0.3
			c-0.1,0.2-0.2,0.4-0.2,0.7c0,0.2,0,0.4,0.1,0.6s0.2,0.3,0.3,0.4s0.2,0.2,0.4,0.2s0.3,0.1,0.4,0.1s0.2,0,0.3,0s0.1,0,0.2,0h1.1v1.3
			h-1.1c-0.2,0-0.5,0-0.6,0.1s-0.3,0.1-0.4,0.2S57,23.8,57,23.9s-0.1,0.2-0.1,0.3s0,0.2-0.1,0.2s0,0.1,0,0.1c0,0.2,0,0.4,0.1,0.6
			s0.1,0.3,0.2,0.4s0.2,0.2,0.3,0.2s0.2,0.1,0.4,0.1s0.2,0,0.3,0s0.2,0,0.2,0h0H60c0.3,0,0.6-0.1,0.8-0.2s0.3-0.3,0.4-0.5
			c0.1-0.2,0.2-0.4,0.2-0.7v-6.8H62.9z"/>
		<path id="XMLID_40_" class="st5" d="M61.8,29.5h-0.7v-1.3h1.3c0.2,0,0.3,0.1,0.5,0.2c0.1,0.1,0.2,0.3,0.2,0.5v2.8h-1.3V29.5z"/>
		<path id="XMLID_38_" class="st5" d="M71.8,27.3v-5.9c0-0.4-0.1-0.8-0.3-1.1c-0.1-0.1-0.2-0.3-0.3-0.4s-0.3-0.2-0.4-0.3
			s-0.4-0.2-0.6-0.2s-0.5-0.1-0.8-0.1s-0.6,0-0.8,0.1s-0.4,0.1-0.6,0.2s-0.3,0.2-0.4,0.3s-0.2,0.3-0.3,0.4c-0.2,0.3-0.3,0.7-0.3,1.1
			v3.1c0,0.2,0.1,0.4,0.1,0.6c0.1,0.2,0.1,0.3,0.2,0.5s0.2,0.3,0.4,0.4c0.2,0.1,0.4,0.2,0.6,0.2c0.2,0,0.3,0,0.5-0.1
			s0.2-0.2,0.3-0.2l0.9,0.9c-0.1,0.1-0.3,0.3-0.5,0.4c-0.2,0.1-0.3,0.2-0.5,0.3s-0.5,0.1-0.7,0.1c-0.1,0-0.2,0-0.3,0s-0.2,0-0.3,0
			c-0.3-0.1-0.6-0.2-0.9-0.4s-0.5-0.4-0.7-0.7s-0.3-0.5-0.4-0.9s-0.1-0.6-0.1-1v-3.1c0.1-0.6,0.2-1,0.3-1.4s0.4-0.7,0.6-1
			s0.5-0.5,0.8-0.6s0.5-0.3,0.8-0.3s0.5-0.1,0.7-0.1s0.4,0,0.5,0h0.1h0.1c0.1,0,0.3,0,0.5,0s0.4,0.1,0.7,0.1s0.5,0.2,0.8,0.3
			s0.5,0.4,0.8,0.6s0.4,0.6,0.6,1s0.3,0.9,0.4,1.4v5.9H71.8z"/>
		<path id="XMLID_36_" class="st5" d="M83.2,17.7c0,0,0,0.1-0.1,0.1S83,18,82.9,18.1s-0.2,0.2-0.3,0.3s-0.2,0.2-0.3,0.3
			s-0.2,0.2-0.3,0.2s-0.2,0.1-0.2,0.1c0.2,0.2,0.3,0.5,0.4,0.7s0.2,0.5,0.2,0.7s0.1,0.4,0.1,0.6s0,0.3,0,0.4v0.1v5.7h-1.4v-2.8
			c0-0.3-0.1-0.5-0.2-0.7s-0.3-0.3-0.5-0.5s-0.4-0.2-0.6-0.3s-0.4-0.1-0.6-0.1s-0.4-0.1-0.7-0.1c0,0-0.1,0-0.2,0s-0.2,0-0.4,0.1
			S78,23,77.8,23s-0.3,0.2-0.5,0.3s-0.3,0.3-0.4,0.4s-0.2,0.4-0.3,0.7c0,0,0,0.1,0,0.1s0,0.1,0,0.1c0,0.2,0,0.4,0.1,0.5
			s0.2,0.3,0.4,0.4s0.3,0.2,0.5,0.2s0.4,0.1,0.6,0.1s0.4,0,0.5,0.1s0.3,0,0.4,0h0.1v1.3h-1.6c-0.3,0-0.6-0.1-0.9-0.2
			s-0.5-0.3-0.8-0.6s-0.4-0.5-0.5-0.8s-0.2-0.7-0.2-1c0-0.3,0.1-0.7,0.2-1.1s0.4-0.7,0.8-1c0.2-0.2,0.4-0.4,0.7-0.5s0.5-0.2,0.7-0.3
			s0.5-0.1,0.7-0.2s0.4-0.1,0.7-0.1c0.3,0,0.6,0,0.9,0.1s0.5,0.1,0.7,0.2c0.2,0.1,0.5,0.2,0.7,0.3v-0.5c0-0.3,0-0.6-0.1-0.8
			s-0.2-0.4-0.3-0.6s-0.2-0.3-0.4-0.4s-0.3-0.2-0.4-0.3c-0.3-0.2-0.7-0.3-1.1-0.3c-0.4,0-0.7,0.1-1,0.2s-0.5,0.3-0.7,0.5
			s-0.3,0.4-0.4,0.6s-0.2,0.4-0.2,0.6h-1.5c0-0.5,0.1-1,0.3-1.3s0.4-0.7,0.6-0.9s0.5-0.4,0.8-0.6s0.5-0.2,0.8-0.3s0.5-0.1,0.7-0.1
			s0.3,0,0.4,0H79c0.4,0,0.9,0.1,1.3,0.2c0.2,0,0.5-0.1,0.7-0.2c0.2-0.1,0.4-0.2,0.6-0.4s0.4-0.4,0.5-0.7l0.5,0.5
			c0.1,0.1,0.1,0.1,0.2,0.2s0.1,0.1,0.2,0.2S83.1,17.6,83.2,17.7C83.2,17.7,83.2,17.7,83.2,17.7z"/>
		<path id="XMLID_34_" class="st5" d="M81.5,29.5h-0.7v-1.3h1.3c0.2,0,0.3,0.1,0.5,0.2c0.1,0.1,0.2,0.3,0.2,0.5v2.8h-1.3V29.5z"/>
		<path id="XMLID_32_" class="st5" d="M91.5,27.3v-5.9c0-0.4-0.1-0.8-0.3-1.1c-0.1-0.1-0.2-0.3-0.3-0.4c-0.1-0.1-0.3-0.2-0.4-0.3
			c-0.2-0.1-0.4-0.2-0.6-0.2c-0.2-0.1-0.5-0.1-0.8-0.1s-0.6,0-0.8,0.1c-0.2,0.1-0.4,0.1-0.6,0.2s-0.3,0.2-0.4,0.3
			C87.1,20,87,20.1,87,20.2c-0.2,0.3-0.3,0.7-0.3,1.1v3.1c0,0.2,0.1,0.4,0.1,0.6c0.1,0.2,0.1,0.3,0.2,0.5c0.1,0.2,0.2,0.3,0.4,0.4
			c0.2,0.1,0.4,0.2,0.6,0.2c0.2,0,0.3,0,0.5-0.1c0.1-0.1,0.2-0.2,0.3-0.2l0.9,0.9c-0.1,0.1-0.3,0.3-0.5,0.4
			c-0.2,0.1-0.3,0.2-0.5,0.3c-0.2,0.1-0.5,0.1-0.7,0.1c-0.1,0-0.2,0-0.3,0c-0.1,0-0.2,0-0.3,0c-0.3-0.1-0.6-0.2-0.9-0.4
			s-0.5-0.4-0.7-0.7c-0.2-0.3-0.3-0.5-0.4-0.9c-0.1-0.3-0.1-0.6-0.1-1v-3.1c0.1-0.6,0.2-1,0.3-1.4s0.4-0.7,0.6-1
			c0.2-0.3,0.5-0.5,0.8-0.6c0.3-0.2,0.5-0.3,0.8-0.3c0.3-0.1,0.5-0.1,0.7-0.1c0.2,0,0.4,0,0.5,0H89h0.1c0.1,0,0.3,0,0.5,0
			c0.2,0,0.4,0.1,0.7,0.1c0.3,0.1,0.5,0.2,0.8,0.3c0.3,0.2,0.5,0.4,0.8,0.6c0.2,0.3,0.4,0.6,0.6,1s0.3,0.9,0.4,1.4v5.9H91.5z"/>
		<path id="XMLID_30_" class="st5" d="M102.8,17.7c0,0,0,0.1-0.1,0.1c0,0.1-0.1,0.1-0.2,0.2s-0.2,0.2-0.3,0.3
			c-0.1,0.1-0.2,0.2-0.3,0.3s-0.2,0.2-0.3,0.2c-0.1,0.1-0.2,0.1-0.2,0.1c0.2,0.2,0.3,0.5,0.4,0.7c0.1,0.3,0.2,0.5,0.2,0.7
			s0.1,0.4,0.1,0.6c0,0.2,0,0.3,0,0.4v0.1v5.7h-1.4v-2.8c0-0.3-0.1-0.5-0.2-0.7s-0.3-0.3-0.5-0.5s-0.4-0.2-0.6-0.3
			c-0.2-0.1-0.4-0.1-0.6-0.1s-0.4-0.1-0.7-0.1c0,0-0.1,0-0.2,0s-0.2,0-0.4,0.1S97.6,23,97.5,23c-0.2,0.1-0.3,0.2-0.5,0.3
			c-0.2,0.1-0.3,0.3-0.4,0.4c-0.1,0.2-0.2,0.4-0.3,0.7c0,0,0,0.1,0,0.1s0,0.1,0,0.1c0,0.2,0,0.4,0.1,0.5c0.1,0.1,0.2,0.3,0.4,0.4
			c0.2,0.1,0.3,0.2,0.5,0.2c0.2,0.1,0.4,0.1,0.6,0.1c0.2,0,0.4,0,0.5,0.1c0.2,0,0.3,0,0.4,0h0.1v1.3h-1.6c-0.3,0-0.6-0.1-0.9-0.2
			s-0.5-0.3-0.8-0.6c-0.2-0.2-0.4-0.5-0.5-0.8c-0.1-0.3-0.2-0.7-0.2-1c0-0.3,0.1-0.7,0.2-1.1s0.4-0.7,0.8-1c0.2-0.2,0.4-0.4,0.7-0.5
			s0.5-0.2,0.7-0.3s0.5-0.1,0.7-0.2c0.2,0,0.4-0.1,0.7-0.1c0.3,0,0.6,0,0.9,0.1c0.3,0.1,0.5,0.1,0.7,0.2c0.2,0.1,0.5,0.2,0.7,0.3
			v-0.5c0-0.3,0-0.6-0.1-0.8c-0.1-0.2-0.2-0.4-0.3-0.6c-0.1-0.2-0.2-0.3-0.4-0.4c-0.1-0.1-0.3-0.2-0.4-0.3c-0.3-0.2-0.7-0.3-1.1-0.3
			c-0.4,0-0.7,0.1-1,0.2s-0.5,0.3-0.7,0.5c-0.2,0.2-0.3,0.4-0.4,0.6c-0.1,0.2-0.2,0.4-0.2,0.6H95c0-0.5,0.1-1,0.3-1.3
			s0.4-0.7,0.6-0.9s0.5-0.4,0.8-0.6c0.3-0.1,0.5-0.2,0.8-0.3s0.5-0.1,0.7-0.1s0.3,0,0.4,0h0.1c0.4,0,0.9,0.1,1.3,0.2
			c0.2,0,0.5-0.1,0.7-0.2c0.2-0.1,0.4-0.2,0.6-0.4c0.2-0.2,0.4-0.4,0.5-0.7l0.5,0.5c0.1,0.1,0.1,0.1,0.2,0.2
			c0.1,0.1,0.1,0.1,0.2,0.2C102.7,17.5,102.7,17.6,102.8,17.7C102.8,17.7,102.8,17.7,102.8,17.7z"/>
		<path id="XMLID_28_" class="st5" d="M99.9,14.7v0.7h3.5v1.3h-4.2c-0.2,0-0.3,0-0.4-0.1c-0.1-0.1-0.1-0.1-0.2-0.2
			c0-0.1-0.1-0.2-0.1-0.3v-1.4H99.9z"/>
		<path id="XMLID_26_" class="st5" d="M112.4,14.4v9.7c-0.1,0.6-0.2,1.2-0.5,1.7c-0.1,0.2-0.3,0.4-0.4,0.6c-0.2,0.2-0.4,0.4-0.7,0.5
			c-0.3,0.2-0.6,0.3-0.9,0.4s-0.7,0.1-1.2,0.1c-0.5,0-0.8,0-1.2-0.1s-0.6-0.2-0.9-0.4c-0.3-0.2-0.5-0.3-0.7-0.5
			c-0.2-0.2-0.3-0.4-0.4-0.6c-0.3-0.5-0.4-1.1-0.5-1.7v-6.2h1.4v6.2c0,0.3,0,0.5,0.1,0.7c0.1,0.2,0.2,0.4,0.3,0.5
			c0.1,0.1,0.2,0.3,0.4,0.4c0.1,0.1,0.3,0.2,0.4,0.2c0.3,0.1,0.7,0.2,1.1,0.2c0.4,0,0.8-0.1,1.1-0.2c0.1-0.1,0.3-0.1,0.4-0.2
			c0.1-0.1,0.3-0.2,0.4-0.4c0.1-0.1,0.2-0.3,0.3-0.5c0.1-0.2,0.1-0.4,0.1-0.7v-9.7H112.4z"/>
		<path id="XMLID_24_" class="st5" d="M120.7,27.3v-5.9c0-0.4-0.1-0.8-0.3-1.1c-0.1-0.1-0.2-0.3-0.3-0.4c-0.1-0.1-0.3-0.2-0.4-0.3
			c-0.2-0.1-0.4-0.2-0.6-0.2c-0.2-0.1-0.5-0.1-0.8-0.1s-0.6,0-0.8,0.1c-0.2,0.1-0.4,0.1-0.6,0.2s-0.3,0.2-0.4,0.3
			c-0.1,0.1-0.2,0.3-0.3,0.4c-0.2,0.3-0.3,0.7-0.3,1.1v3.1c0,0.2,0.1,0.4,0.1,0.6c0.1,0.2,0.1,0.3,0.2,0.5c0.1,0.2,0.2,0.3,0.4,0.4
			c0.2,0.1,0.4,0.2,0.6,0.2c0.2,0,0.3,0,0.5-0.1c0.1-0.1,0.2-0.2,0.3-0.2l0.9,0.9c-0.1,0.1-0.3,0.3-0.5,0.4
			c-0.2,0.1-0.3,0.2-0.5,0.3c-0.2,0.1-0.5,0.1-0.7,0.1c-0.1,0-0.2,0-0.3,0c-0.1,0-0.2,0-0.3,0c-0.3-0.1-0.6-0.2-0.9-0.4
			s-0.5-0.4-0.7-0.7c-0.2-0.3-0.3-0.5-0.4-0.9c-0.1-0.3-0.1-0.6-0.1-1v-3.1c0.1-0.6,0.2-1,0.3-1.4s0.4-0.7,0.6-1
			c0.2-0.3,0.5-0.5,0.8-0.6c0.3-0.2,0.5-0.3,0.8-0.3c0.3-0.1,0.5-0.1,0.7-0.1c0.2,0,0.4,0,0.5,0h0.1h0.1c0.1,0,0.3,0,0.5,0
			c0.2,0,0.4,0.1,0.7,0.1c0.3,0.1,0.5,0.2,0.8,0.3c0.3,0.2,0.5,0.4,0.8,0.6c0.2,0.3,0.4,0.6,0.6,1s0.3,0.9,0.4,1.4v5.9H120.7z"/>
		<path id="XMLID_22_" class="st5" d="M125.9,17.8c0,0,0.1,0,0.3,0c0.1,0,0.3,0,0.5,0.1c0.2,0,0.4,0.1,0.6,0.2
			c0.2,0.1,0.4,0.3,0.6,0.5c0.2,0.2,0.3,0.5,0.4,0.8s0.2,0.7,0.2,1.2v6.7H127v-6.7c0-0.3-0.1-0.5-0.1-0.7c0-0.1-0.1-0.2-0.1-0.3
			s-0.1-0.2-0.2-0.2c-0.1-0.1-0.2-0.1-0.3-0.2c-0.1,0-0.2-0.1-0.4-0.1c-0.2,0-0.4,0-0.6,0.1c-0.2,0.1-0.3,0.1-0.4,0.2
			s-0.2,0.1-0.3,0.2s-0.1,0.1-0.1,0.1l-1-1c0.2-0.2,0.3-0.4,0.6-0.5c0.2-0.1,0.4-0.2,0.7-0.4S125.5,17.8,125.9,17.8z"/>
		<path id="XMLID_20_" class="st5" d="M130.9,17.8h1.4v2.4h3.1c0.2,0,0.3-0.1,0.5-0.2c0.1-0.1,0.2-0.2,0.4-0.4s0.2-0.4,0.3-0.6v-1.2
			h1.4v1.4c0,0.1,0,0.2-0.1,0.3s-0.1,0.3-0.2,0.5s-0.2,0.3-0.3,0.5s-0.2,0.3-0.4,0.4c0.2,0.2,0.3,0.4,0.5,0.6
			c0.1,0.2,0.2,0.4,0.3,0.7s0.2,0.6,0.2,1v4.1h-1.4v-4.1c0-0.2-0.1-0.3-0.1-0.4s-0.1-0.3-0.1-0.4s-0.1-0.3-0.2-0.4s-0.2-0.2-0.3-0.3
			s-0.3-0.1-0.5-0.1h-3.1v5.7h-1.4V17.8z"/>
		<path id="XMLID_18_" class="st5" d="M134.9,16.7v-1.4c0-0.1,0-0.2,0.1-0.3c0-0.1,0.1-0.2,0.2-0.2c0.1-0.1,0.2-0.1,0.4-0.1h3.1V16
			h-2.4v0.7H134.9z"/>
	</g>
</g>
</svg>