<!-- Generator: Adobe Illustrator 19.0.0, SVG Export Plug-In  -->
<svg version="1.1"
	 xmlns="http://www.w3.org/2000/svg" xmlns:xlink="http://www.w3.org/1999/xlink" xmlns:a="http://ns.adobe.com/AdobeSVGViewerExtensions/3.0/"
	 x="0px" y="0px" width="56.8px" height="120.1px" viewBox="0 0 56.8 120.1"
	 style="overflow:scroll;enable-background:new 0 0 56.8 120.1;" xml:space="preserve">
<style type="text/css">
	.st0{fill:#036A95;}
	.st1{fill:#FF6633;}
	.st2{fill:none;stroke:#086A87;stroke-width:1.5569;stroke-linecap:round;stroke-linejoin:round;stroke-miterlimit:10;}
	.st3{fill:none;stroke:#086A87;stroke-width:2;stroke-linecap:round;stroke-linejoin:round;stroke-miterlimit:10;}
	.st4{fill:#FFFFFF;stroke:#086A87;stroke-width:2;stroke-linecap:round;stroke-linejoin:round;stroke-miterlimit:10;}
</style>
<defs>
</defs>
<g id="XMLID_44_">
	<path id="XMLID_63_" class="st0" d="M11.4,91.4v-4.9c0-0.3,0-0.6-0.1-0.8c-0.1-0.2-0.2-0.4-0.3-0.5s-0.3-0.2-0.4-0.3
		c-0.2-0.1-0.3-0.1-0.4-0.2c-0.1,0-0.3-0.1-0.4-0.1s-0.2,0-0.2,0c-0.3,0-0.6,0-0.8,0.1c-0.2,0.1-0.4,0.2-0.5,0.3
		c-0.1,0.1-0.2,0.3-0.3,0.4c-0.1,0.2-0.1,0.3-0.2,0.4s-0.1,0.3-0.1,0.4s0,0.2,0,0.2v4.9H6.5v-7.9h1.2v1.1c0-0.1,0-0.3,0.1-0.4
		C7.8,84.1,7.9,84,8,84c0.1-0.1,0.2-0.1,0.3-0.2c0.1-0.1,0.2-0.1,0.3-0.1c0.3-0.1,0.6-0.1,0.9-0.1h0.3c0.4,0,0.8,0.1,1.1,0.2
		s0.6,0.3,0.8,0.5c0.2,0.2,0.4,0.4,0.5,0.6s0.2,0.5,0.3,0.7s0.1,0.4,0.1,0.6c0,0.2,0,0.3,0,0.4v0.1v4.9H11.4z"/>
	<path id="XMLID_61_" class="st0" d="M12.2,80.4v2.2h-1.1v-2.2H12.2z"/>
	<path id="XMLID_59_" class="st0" d="M21,88.7c0,0.5-0.2,1-0.4,1.4c-0.1,0.2-0.2,0.3-0.4,0.5c-0.2,0.2-0.3,0.3-0.5,0.5
		c-0.2,0.1-0.5,0.2-0.8,0.3c-0.3,0.1-0.6,0.1-1,0.1c-0.4,0-0.7,0-1-0.1c-0.3-0.1-0.5-0.2-0.8-0.3c-0.2-0.1-0.4-0.3-0.5-0.5
		c-0.1-0.2-0.3-0.3-0.4-0.5c-0.2-0.4-0.4-0.9-0.4-1.4v-1.6h2.2v1.1h-1v0.5c0,0.2,0,0.4,0.1,0.6c0.1,0.2,0.1,0.3,0.2,0.4
		s0.2,0.2,0.3,0.3s0.2,0.2,0.3,0.2c0.3,0.1,0.6,0.2,1,0.2c0.4,0,0.7-0.1,1-0.2c0.1-0.1,0.2-0.1,0.3-0.2s0.2-0.2,0.3-0.3
		s0.2-0.3,0.2-0.4c0.1-0.2,0.1-0.4,0.1-0.6v-2.4c0-0.2,0-0.4-0.1-0.5c-0.1-0.2-0.1-0.3-0.2-0.4s-0.2-0.2-0.3-0.3s-0.2-0.1-0.3-0.2
		c-0.3-0.1-0.6-0.2-1-0.2h-0.1c-0.1,0-0.2,0-0.4,0c-0.2,0-0.3,0.1-0.5,0.2s-0.3,0.2-0.5,0.4c-0.2,0.2-0.3,0.4-0.4,0.6h-1.2
		c0-0.1,0.1-0.3,0.1-0.5c0.1-0.2,0.1-0.3,0.2-0.5s0.2-0.3,0.4-0.5s0.3-0.3,0.5-0.4s0.5-0.2,0.7-0.3c0.3-0.1,0.6-0.1,1-0.1
		c0.4,0,0.7,0,1,0.1c0.3,0.1,0.5,0.2,0.8,0.3c0.2,0.1,0.4,0.3,0.5,0.5c0.2,0.2,0.3,0.3,0.4,0.5c0.2,0.4,0.4,0.9,0.4,1.4V88.7z"/>
	<path id="XMLID_57_" class="st0" d="M23.6,83.5h2.3v5.7c0,0.4,0,0.7-0.1,1s-0.2,0.5-0.4,0.6c-0.1,0.2-0.3,0.3-0.5,0.4
		c-0.2,0.1-0.3,0.2-0.5,0.2s-0.3,0.1-0.4,0.1c-0.1,0-0.2,0-0.2,0c-0.3,0-0.6,0-0.9-0.1s-0.4-0.2-0.6-0.3c-0.2-0.1-0.3-0.3-0.5-0.4
		l0.8-0.8c0,0,0.1,0.1,0.1,0.1c0.1,0.1,0.1,0.1,0.2,0.2c0.1,0.1,0.2,0.1,0.3,0.2c0.1,0,0.3,0.1,0.5,0.1c0.1,0,0.2,0,0.3-0.1
		c0.1,0,0.2-0.1,0.2-0.1c0.1-0.1,0.1-0.1,0.2-0.2s0.1-0.1,0.1-0.2c0.1-0.2,0.1-0.4,0.1-0.6v-4.6h-1.1V83.5z"/>
	<path id="XMLID_55_" class="st0" d="M28.9,91.4h-1.2v-7.9h1.2V91.4z"/>
	<path id="XMLID_53_" class="st0" d="M35.8,91.4v-4.9c0-0.3,0-0.6-0.1-0.8c-0.1-0.2-0.2-0.4-0.3-0.5s-0.3-0.2-0.4-0.3
		c-0.2-0.1-0.3-0.1-0.4-0.2c-0.1,0-0.3-0.1-0.4-0.1s-0.2,0-0.2,0c-0.3,0-0.6,0-0.8,0.1c-0.2,0.1-0.4,0.2-0.5,0.3
		c-0.1,0.1-0.2,0.3-0.3,0.4c-0.1,0.2-0.1,0.3-0.2,0.4s-0.1,0.3-0.1,0.4s0,0.2,0,0.2v4.9h-1.2v-7.9H32v1.1c0-0.1,0-0.3,0.1-0.4
		c0.1-0.1,0.1-0.2,0.2-0.3c0.1-0.1,0.2-0.1,0.3-0.2c0.1-0.1,0.2-0.1,0.3-0.1c0.3-0.1,0.6-0.1,0.9-0.1h0.3c0.4,0,0.8,0.1,1.1,0.2
		s0.6,0.3,0.8,0.5c0.2,0.2,0.4,0.4,0.5,0.6s0.2,0.5,0.3,0.7s0.1,0.4,0.1,0.6c0,0.2,0,0.3,0,0.4v0.1v4.9H35.8z"/>
	<path id="XMLID_51_" class="st0" d="M36.5,80.8v1.8h-4.4v-1.1h3.3v-0.7H36.5z"/>
	<path id="XMLID_49_" class="st0" d="M37.2,77.3v2.2h-1.1v-2.2H37.2z"/>
	<path id="XMLID_47_" class="st0" d="M45.8,83.5v5.7c0,0.3,0,0.6-0.1,0.9s-0.2,0.4-0.4,0.6S45,90.9,44.8,91s-0.4,0.2-0.5,0.2
		c-0.2,0.1-0.3,0.1-0.5,0.1s-0.2,0-0.3,0H42c-0.4,0-0.7,0-1-0.1c-0.3-0.1-0.5-0.2-0.7-0.3s-0.3-0.3-0.4-0.4
		c-0.1-0.2-0.2-0.3-0.2-0.5c-0.1-0.2-0.1-0.3-0.1-0.4c0-0.1,0-0.2,0-0.3c0-0.3,0.1-0.6,0.2-0.8s0.2-0.4,0.4-0.5
		c0.1-0.1,0.3-0.2,0.4-0.3s0.2-0.1,0.2-0.1c-0.2,0-0.3-0.1-0.4-0.1c-0.1-0.1-0.2-0.1-0.3-0.2s-0.2-0.2-0.2-0.3
		c-0.1-0.1-0.1-0.2-0.2-0.3c-0.1-0.2-0.2-0.5-0.2-0.8c0-0.3,0-0.5,0.1-0.8c0.1-0.2,0.1-0.4,0.2-0.6c0.1-0.2,0.2-0.3,0.3-0.4
		c0.1-0.1,0.2-0.2,0.4-0.3c0.3-0.2,0.6-0.3,1-0.3h1.6v1.1H42c-0.2,0-0.3,0-0.5,0.1s-0.2,0.1-0.3,0.1S41,84.9,40.9,85
		s-0.1,0.1-0.2,0.2c-0.1,0.2-0.2,0.4-0.2,0.6c0,0.2,0,0.4,0.1,0.5c0.1,0.1,0.1,0.2,0.2,0.3s0.2,0.2,0.3,0.2c0.1,0,0.2,0.1,0.3,0.1
		c0.1,0,0.2,0,0.3,0s0.1,0,0.1,0h0.9v1.1H42c-0.2,0-0.4,0-0.5,0.1c-0.1,0-0.3,0.1-0.4,0.2s-0.2,0.1-0.2,0.2s-0.1,0.2-0.1,0.2
		s0,0.1,0,0.2s0,0.1,0,0.1c0,0.2,0,0.4,0.1,0.5c0.1,0.1,0.1,0.2,0.2,0.3s0.2,0.2,0.3,0.2s0.2,0.1,0.3,0.1c0.1,0,0.2,0,0.3,0
		c0.1,0,0.1,0,0.2,0h0h1.4c0.3,0,0.5-0.1,0.7-0.2s0.3-0.2,0.4-0.4c0.1-0.2,0.2-0.3,0.2-0.6v-5.7H45.8z"/>
	<path id="XMLID_45_" class="st0" d="M50.2,83.5c0.1,0,0.2,0,0.3,0s0.3,0.1,0.5,0.1s0.4,0.1,0.6,0.3c0.2,0.1,0.4,0.3,0.6,0.5
		c0.2,0.2,0.3,0.5,0.4,0.8c0.1,0.3,0.2,0.7,0.2,1.1v2.6c0,0.5-0.1,0.9-0.3,1.3c-0.1,0.2-0.2,0.3-0.3,0.5s-0.3,0.3-0.5,0.4
		c-0.2,0.1-0.4,0.2-0.7,0.3c-0.3,0.1-0.5,0.1-0.9,0.1c-0.3,0-0.6,0-0.9-0.1c-0.3-0.1-0.5-0.2-0.7-0.3c-0.2-0.1-0.3-0.3-0.5-0.4
		s-0.2-0.3-0.3-0.5c0,0,0.1-0.1,0.2-0.1c0.1-0.1,0.2-0.1,0.3-0.2s0.2-0.1,0.3-0.2c0.1-0.1,0.2-0.1,0.2-0.1c0.1,0.2,0.2,0.4,0.4,0.5
		s0.3,0.2,0.5,0.3c0.2,0.1,0.4,0.1,0.6,0.1c0.3,0,0.5-0.1,0.7-0.2c0.1-0.1,0.2-0.1,0.3-0.2s0.2-0.2,0.2-0.3s0.1-0.2,0.2-0.4
		c0-0.1,0.1-0.3,0.1-0.5v-2.6c0-0.3-0.1-0.5-0.2-0.8c0-0.1-0.1-0.2-0.2-0.3C51.2,85,51.1,85,51,84.9c-0.1-0.1-0.2-0.1-0.4-0.2
		c-0.1,0-0.3-0.1-0.5-0.1c-0.2,0-0.5,0-0.6,0.1c-0.2,0-0.3,0.1-0.5,0.2s-0.2,0.2-0.3,0.4s-0.2,0.3-0.3,0.6h-1.2c0-0.4,0.1-0.7,0.3-1
		c0.1-0.3,0.3-0.5,0.5-0.8c0.2-0.2,0.5-0.4,0.9-0.5C49.3,83.5,49.7,83.5,50.2,83.5L50.2,83.5L50.2,83.5z"/>
</g>
<g id="XMLID_28_">
	<path id="XMLID_41_" class="st1" d="M10.1,111.7c0,2.8-0.6,4.9-1.8,6.3c-1.2,1.4-2.9,2.1-5.3,2.1c-0.8,0-1.9,0-1.9-0.1v-2.4
		c0,0.1,1,0.2,1.6,0.2c1,0,1.8-0.1,2.5-0.4c0.7-0.3,1.1-0.9,1.5-1.5c0.3-0.6,0.5-1.8,0.6-2.8H7.2c-0.4,1-0.8,1.2-1.3,1.4
		c-0.5,0.2-1.1,0.4-1.9,0.4c-1.2,0-2.2-0.4-2.9-1.2c-0.7-0.8-1.1-1.9-1.1-3.3c0-1.5,0.4-2.7,1.3-3.6s2.1-1.3,3.5-1.3
		c1.1,0,2,0.2,2.8,0.7s1.4,1.2,1.8,2.2C9.9,109.3,10.1,110.4,10.1,111.7z M4.9,107.9c-0.6,0-1.1,0.2-1.5,0.6s-0.5,1-0.5,1.9
		c0,0.7,0.2,1.2,0.5,1.6c0.3,0.4,0.8,0.6,1.5,0.6c0.6,0,1.1-0.2,1.6-0.6c0.4-0.4,0.7-0.9,0.7-1.4c0-0.8-0.2-1.4-0.6-2
		C6.1,108.1,5.5,107.9,4.9,107.9z"/>
	<path id="XMLID_39_" class="st1" d="M11.9,118.5c0-0.5,0.1-1,0.4-1.2s0.7-0.4,1.3-0.4c0.5,0,1,0.1,1.3,0.4c0.3,0.3,0.4,0.7,0.4,1.2
		c0,0.5-0.1,0.9-0.4,1.2c-0.3,0.3-0.7,0.4-1.3,0.4c-0.5,0-1-0.1-1.3-0.4C12.1,119.4,11.9,119,11.9,118.5z"/>
	<path id="XMLID_37_" class="st1" d="M27.1,120h-10v-2.2l3.7-3.6c1.1-1.1,1.8-1.8,2.1-2.3c0.3-0.4,0.6-0.8,0.7-1.2
		c0.1-0.4,0.2-0.7,0.2-1.1c0-0.6-0.2-1-0.5-1.3c-0.3-0.3-0.7-0.4-1.3-0.4c-0.6,0-1.1,0.1-1.6,0.4c-0.5,0.3-1.1,0.6-1.6,1.1l-1.6-1.9
		c0.7-0.6,1.3-1,1.7-1.3c0.5-0.2,1-0.4,1.5-0.6s1.2-0.2,1.8-0.2c0.9,0,1.7,0.2,2.4,0.5s1.2,0.8,1.6,1.4c0.4,0.6,0.6,1.3,0.6,2
		c0,0.7-0.1,1.3-0.3,1.9c-0.2,0.6-0.6,1.2-1.1,1.8c-0.5,0.6-1.3,1.5-2.5,2.6l-1.8,1.7V117h6V120z"/>
	<path id="XMLID_35_" class="st1" d="M38.2,108.8c0,0.9-0.2,1.7-0.8,2.3c-0.5,0.6-1.2,1.1-2.2,1.3v0.1c1,0.1,2,0.5,2.6,1
		c0.6,0.6,0.9,1.3,0.9,2.3c0,1.4-0.5,2.4-1.5,3.2s-2.2,1.1-4,1.1c-1.5,0-2.9-0.3-3.9-0.8v-2.6c0,0.3,0.9,0.5,1.6,0.7
		s1.2,0.3,1.9,0.3c1,0,1.7-0.2,2.2-0.5c0.5-0.3,0.7-0.9,0.7-1.6c0-0.7-0.3-1-0.8-1.3S33.2,114,32,114h-0.8v-3H32
		c1.1,0,1.9,0,2.4-0.2c0.5-0.3,0.8-0.7,0.8-1.4c0-1.1-0.7-1.6-2-1.6c-0.5,0-0.9,0.1-1.4,0.3c-0.5,0.2-1,0.4-1.6,0.8l-1.4-2.1
		c1.3-0.9,2.9-1.4,4.7-1.4c1.5,0,2.6,0.3,3.5,0.9C37.7,106.9,38.2,107.7,38.2,108.8z"/>
	<path id="XMLID_29_" class="st1" d="M46.8,109.9c0,1.5-0.3,2.6-0.9,3.4c-0.6,0.8-1.4,1.1-2.5,1.1c-1.1,0-1.9-0.4-2.5-1.2
		s-0.9-1.9-0.9-3.3c0-3,1.1-4.5,3.4-4.5c1.1,0,1.9,0.4,2.5,1.2C46.5,107.3,46.8,108.4,46.8,109.9z M42.4,109.9
		c0,0.8,0.1,1.4,0.2,1.9s0.4,0.6,0.7,0.6c0.6,0,0.9-0.8,0.9-2.5c0-1.6-0.3-2.4-0.9-2.4c-0.3,0-0.6,0.2-0.7,0.6
		S42.4,109.1,42.4,109.9z M53.5,106l-7.9,14h-2.3l7.9-14H53.5z M56.8,115.6c0,1.5-0.3,2.6-0.9,3.4c-0.6,0.8-1.4,1.1-2.5,1.1
		c-1.1,0-1.9-0.4-2.5-1.2S50,117,50,115.6c0-3,1.1-4.5,3.4-4.5c1.1,0,1.9,0.4,2.5,1.2C56.5,113,56.8,114.1,56.8,115.6z M52.4,115.6
		c0,0.8,0.1,1.4,0.2,1.9s0.4,0.6,0.7,0.6c0.6,0,0.9-0.8,0.9-2.5c0-1.6-0.3-2.4-0.9-2.4c-0.3,0-0.6,0.2-0.7,0.6
		S52.4,114.8,52.4,115.6z"/>
</g>
<g id="XMLID_15_">
	<circle id="XMLID_27_" class="st2" cx="18.8" cy="60.3" r="3.7"/>
	<circle id="XMLID_26_" class="st2" cx="35" cy="60.3" r="3.7"/>
	<rect id="XMLID_25_" x="17.1" y="6" class="st3" width="5" height="38"/>
	<rect id="XMLID_24_" x="33.1" y="6" class="st3" width="4" height="38"/>
	<path id="XMLID_23_" class="st4" d="M43.1,51.4c0,3.1-2.5,5.6-5.6,5.6H15.8c-3.1,0-5.6-2.5-5.6-5.6V19.6c0-3.1,2.5-5.6,5.6-5.6
		h21.8c3.1,0,5.6,2.5,5.6,5.6V51.4z"/>
	<line id="XMLID_22_" class="st3" x1="10.1" y1="20" x2="42.1" y2="20"/>
	<line id="XMLID_21_" class="st3" x1="10.1" y1="27" x2="34.1" y2="27"/>
	<line id="XMLID_20_" class="st3" x1="10.1" y1="31" x2="34.1" y2="31"/>
	<line id="XMLID_19_" class="st3" x1="10.1" y1="35" x2="34.1" y2="35"/>
	<line id="XMLID_18_" class="st3" x1="10.1" y1="39" x2="34.1" y2="39"/>
	<line id="XMLID_17_" class="st3" x1="10.1" y1="43" x2="34.1" y2="43"/>
	<path id="XMLID_16_" class="st3" d="M43.1,3.5C43.1,4.9,42,6,40.6,6h-28c-1.4,0-2.5-1.1-2.5-2.5l0,0c0-1.4,1.1-2.5,2.5-2.5h28
		C42,1,43.1,2.1,43.1,3.5L43.1,3.5z"/>
</g>
</svg>