<!-- Generator: Adobe Illustrator 19.0.0, SVG Export Plug-In  -->
<svg version="1.1"
	 xmlns="http://www.w3.org/2000/svg" xmlns:xlink="http://www.w3.org/1999/xlink" xmlns:a="http://ns.adobe.com/AdobeSVGViewerExtensions/3.0/"
	 x="0px" y="0px" width="258px" height="93px" viewBox="0 0 258 93" style="enable-background:new 0 0 258 93;"
	 xml:space="preserve">
<style type="text/css">
	.st0{fill:none;stroke:#FFFFFF;stroke-width:2;stroke-linecap:round;stroke-linejoin:round;stroke-miterlimit:10;}
	.st1{fill:none;stroke:#FF6633;stroke-width:2;stroke-miterlimit:10;}
	.st2{fill:none;stroke:#FFFFFF;stroke-width:2.2793;stroke-linecap:round;stroke-linejoin:round;stroke-miterlimit:10;}
	.st3{fill:#FF6633;}
	.st4{fill:#FFFFFF;}
</style>
<defs>
</defs>
<g>
	<rect x="218" y="56" class="st0" width="36" height="36"/>
	<rect x="214" y="49" class="st0" width="43" height="7"/>
	<rect x="232" y="49" class="st1" width="7" height="43"/>
	<path class="st2" d="M234.6,46c0,0-11.9,0.5-15.1-1.7c-3.2-2.2-4.1-6.6-1.9-9.9c2.2-3.2,6.6-4.1,9.9-1.9
		C230.7,34.8,234.6,46,234.6,46z"/>
	<path class="st2" d="M235.4,46c0,0,11.9,0.5,15.1-1.7c3.2-2.2,4.1-6.6,1.9-9.9c-2.2-3.2-6.6-4.1-9.9-1.9
		C239.3,34.8,235.4,46,235.4,46z"/>
</g>
<circle class="st3" cx="8.4" cy="8.7" r="8.4"/>
<g>
	<g>
		<path class="st4" d="M35.4,6.8c0,1.9-0.5,3.5-1.6,4.5S31.2,13,29.2,13H26V1h3.6c1.9,0,3.3,0.6,4.3,1.6S35.4,5,35.4,6.8z M32.9,7
			c0-2.5-1.1-4-3.3-4H28v8h1.4C31.8,11,32.9,9.5,32.9,7z"/>
		<path class="st4" d="M43.8,13l-0.3-2h-0.1c-0.3,1-0.6,1-1.1,1.2s-1,0.4-1.6,0.4c-1,0-1.6-0.2-2.1-0.8C38,11.3,38,10.6,38,9.5V4h2
			v5c0,0.6,0.1,1.1,0.3,1.4c0.2,0.3,0.6,0.5,1.1,0.5c0.7,0,1-0.2,1.3-0.7S43,9,43,8V4h3v9H43.8z"/>
		<path class="st4" d="M53,3.7c0.3,0,0.6,0,0.8,0.1L53.6,6c-0.2-0.1-0.4-0.1-0.7-0.1c-0.8,0-1.1,0.2-1.5,0.6S51,7.4,51,8.1V13h-3V4
			h1.9l0.4,1h0.1c0.3,0,0.6-0.7,1.1-1C52,3.7,52.5,3.7,53,3.7z"/>
		<path class="st4" d="M55.3,1.6c0-0.8,0.4-1.2,1.3-1.2s1.3,0.4,1.3,1.2c0,0.4-0.1,0.7-0.3,0.9c-0.2,0.2-0.5,0.3-1,0.3
			C55.7,2.8,55.3,2.4,55.3,1.6z M58,13h-3V4h3V13z"/>
		<path class="st4" d="M68,13h-2V7.5c0-0.6-0.1-1.1-0.4-1.4c-0.2-0.3-0.6-0.5-1.1-0.5c-0.7,0-1,0.2-1.3,0.7S63,7.4,63,8.5V13h-3V4
			h2.1l0.3,1h0.1c0.3,0,0.6-0.8,1.1-1c0.5-0.2,1-0.3,1.6-0.3c1,0,1.6,0.3,2.1,0.8C67.9,5.1,68,5.9,68,6.9V13z"/>
		<path class="st4" d="M78,12.6c0,1.3-0.1,2.2-0.9,2.9s-1.6,1-3.1,1c-1.3,0-2.1-0.2-3.1-0.5V14c1,0.4,2.1,0.7,3.3,0.7
			c1.2,0,1.7-0.7,1.7-2v-0.2l0.1-1.5H76c-0.6,1-1.4,1.5-2.5,1.5c-1,0-1.9-0.3-2.4-1.1c-0.6-0.8-0.9-1.8-0.9-3.2
			c0-1.4,0.3-2.5,0.9-3.3c0.6-0.8,1.4-1.2,2.5-1.2c1.1,0,1.9,0.3,2.5,1.3h0.1l0.2-1H78V12.6z M74.4,10.9c0.6,0,1-0.2,1.3-0.6
			s0.3-1,0.3-1.8V8.3c0-0.9,0-1.6-0.3-2c-0.3-0.4-0.7-0.6-1.3-0.6c-1.1,0-1.7,0.9-1.7,2.6c0,0.9,0.2,1.5,0.4,2
			C73.4,10.7,73.8,10.9,74.4,10.9z"/>
		<path class="st4" d="M93,13h-2V7.5c0-0.6-0.2-1.1-0.5-1.4c-0.2-0.3-0.6-0.5-1.1-0.5c-0.7,0-1.4,0.2-1.7,0.7S87,7.4,87,8.5V13h-2V4
			h1.9l0.3,1h0.1c0.3,0,0.6-0.8,1.1-1c0.5-0.2,1-0.3,1.6-0.3c1,0,1.7,0.3,2.2,0.8C92.8,5.1,93,5.9,93,6.9V13z"/>
		<path class="st4" d="M99.6,12.7c-1.4,0-2.5-0.4-3.3-1.2c-0.8-0.8-1.2-1.9-1.2-3.3c0-1.5,0.4-2.6,1.1-3.4c0.7-0.8,1.7-1.2,3-1.2
			c1.2,0,2.1,0.4,2.8,1.1s1,1.7,1,2.9V9h-5.5c0,0,0.2,1.1,0.6,1.5c0.4,0.4,0.9,0.5,1.6,0.5c0.5,0,1.2-0.1,1.7-0.2s0.7-0.3,1.7-0.5
			v1.8c-1,0.2-1.1,0.4-1.5,0.5S100.2,12.7,99.6,12.7z M99.2,5.4c-0.5,0-0.9,0-1.2,0.4S97.6,7,97.5,7h3.3c0,0-0.2-0.9-0.5-1.2
			S99.7,5.4,99.2,5.4z"/>
		<path class="st4" d="M112.1,13l-0.7-3.1L110.5,6h-0.1l-1.6,7h-2.6l-2.5-9h2.4l1,4c0.1,0.5,0.3,1,0.5,3h0.1c0-1,0.1-1.2,0.3-2.1
			l0.1-0.7l1.1-4.2h2.6l1,4.1c0.1,0.3,0.1,0.9,0.2,1.4s0.1,0.5,0.2,1.5h0.1c0.1-1,0.1-1.2,0.2-1.8c0.1-0.6,0.2-1,0.3-1.3l1-3.9h2.3
			l-2.5,9H112.1z"/>
		<path class="st4" d="M127.5,12.9c-1,0-1.8-0.9-2.4-0.9H125c0.1,0,0,0.8,0,0.9V16h-2V4h1.7l0.3,1h0.1c0.6-1,1.4-1.3,2.5-1.3
			c1,0,1.8,0.4,2.4,1.2s0.9,1.9,0.9,3.3c0,0.9-0.1,1.7-0.4,2.4s-0.7,1.3-1.2,1.7S128.2,12.9,127.5,12.9z M126.8,5.6
			c-0.6,0-1.1,0.2-1.4,0.5c-0.3,0.4-0.5,1-0.5,1.8v0.3c0,0.9,0.2,1.6,0.5,2s0.8,0.6,1.4,0.6c1.1,0,1.6-0.9,1.6-2.6
			c0-0.9-0.1-1.5-0.4-1.9S127.4,5.6,126.8,5.6z"/>
		<path class="st4" d="M137.7,3.7c0.3,0,0.6,0,0.8,0.1L138.4,6c-0.2-0.1-0.4-0.1-0.7-0.1c-0.8,0-1.5,0.2-1.9,0.6S135,7.4,135,8.1V13
			h-2V4h1.7l0.4,1h0.1c0.3,0,0.6-0.7,1.1-1C136.7,3.7,137.2,3.7,137.7,3.7z"/>
		<path class="st4" d="M147.9,8.2c0,1.4-0.4,2.5-1.1,3.3c-0.8,0.8-1.8,1.2-3.1,1.2c-0.8,0-1.6-0.2-2.2-0.6s-1.1-0.9-1.5-1.6
			s-0.5-1.5-0.5-2.4c0-1.4,0.4-2.5,1.1-3.3c0.7-0.8,1.8-1.2,3.1-1.2c0.8,0,1.6,0.2,2.2,0.5c0.6,0.4,1.1,0.9,1.5,1.6
			C147.7,6.5,147.9,7.3,147.9,8.2z M141.9,8.2c0,0.9,0.1,1.5,0.4,2c0.3,0.4,0.7,0.7,1.4,0.7c0.6,0,1.1-0.2,1.4-0.7
			c0.3-0.4,0.4-1.1,0.4-2c0-0.9-0.1-1.5-0.4-1.9c-0.3-0.4-0.7-0.6-1.4-0.6c-0.6,0-1.1,0.2-1.4,0.6S141.9,7.3,141.9,8.2z"/>
		<path class="st4" d="M152.7,12.5c-1,0-1.8-0.3-2.4-1.1s-0.9-1.8-0.9-3.3c0-1.4,0.3-2.5,0.9-3.3c0.6-0.8,1.4-1.2,2.5-1.2
			c1.1,0,1.9,0.3,2.5,1.3h0.1c-0.1-1-0.3-1.3-0.3-1.8V0h3v13h-2.3l-0.5-2h-0.1C154.6,12,153.8,12.5,152.7,12.5z M153.5,10.8
			c0.6,0,0.9-0.2,1.2-0.5c0.3-0.4,0.3-1,0.3-1.8V8.3c0-0.9,0-1.6-0.3-2s-0.7-0.6-1.3-0.6c-0.5,0-0.9,0.2-1.2,0.7
			c-0.3,0.5-0.4,1.1-0.4,2s0.2,1.5,0.5,1.9S152.9,10.8,153.5,10.8z"/>
		<path class="st4" d="M166.2,13l-0.3-2h-0.1c-0.3,1-0.6,1-1.1,1.2s-1,0.4-1.6,0.4c-1,0-1.8-0.2-2.3-0.8c-0.5-0.5-0.8-1.3-0.8-2.3V4
			h2v5c0,0.6,0.3,1.1,0.5,1.4c0.2,0.3,0.7,0.5,1.2,0.5c0.7,0,1.4-0.2,1.7-0.7S166,9,166,8V4h2v9H166.2z"/>
		<path class="st4" d="M174.1,12.7c-2.7,0-4.1-1.5-4.1-4.5c0-1.5,0.4-2.6,1.1-3.4c0.7-0.8,1.8-1.2,3.2-1.2c1,0,1.9,0.2,2.7,0.6
			l-0.7,1.8c-0.4-0.2-0.7-0.3-1-0.4c-0.3-0.1-0.6-0.1-1-0.1c-1.2,0-1.9,0.9-1.9,2.6c0,1.7,0.6,2.6,1.9,2.6c0.5,0,1-0.1,1.4-0.2
			c0.4-0.1,0.3-0.3,1.3-0.6v2c-1,0.2-0.9,0.4-1.3,0.5S174.7,12.7,174.1,12.7z"/>
		<path class="st4" d="M182.5,10.8c0.4,0,0.5-0.1,1.5-0.3v1.8c-1,0.3-1.4,0.4-2.2,0.4c-1,0-1.7-0.2-2.1-0.7
			c-0.4-0.5-0.7-1.2-0.7-2.2V6h-1V4.6l1.2-0.8l0.6-1.8h1.1v2h3v2h-3v3.9c0,0.3,0.3,0.6,0.5,0.8C181.7,10.8,182.2,10.8,182.5,10.8z"
			/>
		<path class="st4" d="M191.8,10c0,0.9-0.3,1.6-0.9,2s-1.6,0.7-2.8,0.7c-0.6,0-1.3,0-1.7-0.1s-0.4-0.2-1.4-0.4v-2
			c1,0.2,1,0.4,1.6,0.5s1.1,0.2,1.5,0.2c0.9,0,1.3-0.3,1.3-0.8c0-0.2,0-0.3-0.2-0.5s-0.3-0.3-0.6-0.4s-0.7-0.3-1.1-0.5
			c-0.7-0.3-1.2-0.5-1.5-0.8c-0.3-0.2-0.5-0.5-0.7-0.8c-0.1-0.3-0.2-0.7-0.2-1.1c0-0.8,0.3-1.4,0.9-1.8c0.6-0.4,1.5-0.6,2.6-0.6
			c1.1,0,2.1,0.2,3.1,0.7L191,6.1c-0.4-0.2-0.8-0.3-1.2-0.5c-0.4-0.1-0.8-0.2-1.2-0.2c-0.7,0-1.1,0.2-1.1,0.6c0,0.2,0.1,0.4,0.3,0.6
			s0.7,0.4,1.5,0.7c0.7,0.3,1.2,0.5,1.5,0.8c0.3,0.2,0.6,0.5,0.7,0.8S191.8,9.6,191.8,10z"/>
		<path class="st4" d="M33.7,25.1c0,1.4-0.4,2.5-1.1,3.3c-0.8,0.8-1.8,1.2-3.1,1.2c-0.8,0-1.6-0.2-2.2-0.6s-1.1-0.9-1.5-1.6
			s-0.5-1.5-0.5-2.4c0-1.4,0.4-2.5,1.1-3.3c0.7-0.8,1.8-1.2,3.1-1.2c0.8,0,1.6,0.2,2.2,0.5c0.6,0.4,1.1,0.9,1.5,1.6
			C33.5,23.4,33.7,24.2,33.7,25.1z M27.7,25.1c0,0.9,0.1,1.5,0.4,2c0.3,0.4,0.7,0.7,1.4,0.7c0.6,0,1.1-0.2,1.4-0.7
			c0.3-0.4,0.4-1.1,0.4-2c0-0.9-0.1-1.5-0.4-1.9c-0.3-0.4-0.7-0.6-1.4-0.6c-0.6,0-1.1,0.2-1.4,0.6S27.7,24.2,27.7,25.1z"/>
		<path class="st4" d="M40.6,20.6c0.3,0,0.6,0,0.8,0.1l-0.2,2.2c-0.2-0.1-0.4-0.1-0.7-0.1c-0.8,0-1.4,0.2-1.8,0.6S38,24.3,38,25v4
			h-2v-8h1.5l0.4,1H38c0.3,0,0.6-0.8,1.1-1.1C39.5,20.6,40,20.6,40.6,20.6z"/>
		<path class="st4" d="M53.2,26.9c0,0.9-0.3,1.6-0.9,2s-1.6,0.7-2.8,0.7c-0.6,0-1,0-1.4-0.1S47,29.3,47,29.1v-2
			c0,0.2,0.7,0.4,1.3,0.5s0.9,0.2,1.4,0.2c0.9,0,1.2-0.3,1.2-0.8c0-0.2-0.1-0.3-0.2-0.5s-0.3-0.3-0.6-0.4S49.4,26,49,25.8
			c-0.7-0.3-1.2-0.5-1.5-0.8c-0.3-0.2-0.5-0.5-0.7-0.8c-0.1-0.3-0.2-0.7-0.2-1.1c0-0.8,0.3-1.4,0.9-1.8c0.6-0.4,1.5-0.6,2.6-0.6
			c1.1,0,2.1,0.2,3.1,0.7L52.4,23c-0.4-0.2-0.8-0.3-1.2-0.5c-0.4-0.1-0.8-0.2-1.2-0.2c-0.7,0-1.1,0.2-1.1,0.6c0,0.2,0.1,0.4,0.3,0.6
			s0.7,0.4,1.5,0.7c0.7,0.3,1.2,0.5,1.5,0.8c0.3,0.2,0.6,0.5,0.7,0.8S53.2,26.4,53.2,26.9z"/>
		<path class="st4" d="M59,29.6c-1.4,0-2.5-0.4-3.3-1.2c-0.8-0.8-1.2-1.9-1.2-3.3c0-1.5,0.4-2.6,1.1-3.4c0.7-0.8,1.7-1.2,3-1.2
			c1.2,0,2.4,0.4,3.1,1.1s1.2,1.7,1.2,2.9V26h-6.1c0,0,0.2,1.1,0.6,1.4c0.4,0.4,0.9,0.5,1.6,0.5c0.5,0,1-0.1,1.5-0.2
			s1.4-0.3,1.4-0.6V29c0,0.2-0.8,0.4-1.3,0.5S59.7,29.6,59,29.6z M58.7,22.3c-0.5,0-0.9,0.1-1.2,0.4S57,24,57,24h3.3
			c0,0-0.2-1-0.5-1.3S59.2,22.3,58.7,22.3z"/>
		<path class="st4" d="M69.4,20.6c0.3,0,0.6,0,0.8,0.1L70,22.9c-0.2-0.1-0.4-0.1-0.7-0.1c-0.8,0-1.3,0.2-1.7,0.6S67,24.3,67,25v4h-2
			v-8h1.3l0.4,1h0.1c0.3,0,0.6-0.8,1.1-1.1C68.3,20.6,68.8,20.6,69.4,20.6z"/>
		<path class="st4" d="M73.9,29l-3.3-8H73l1.7,5.1C74.9,26.6,75,27,75,28h0.1c0-1,0.1-1.3,0.4-1.9l1.7-5.1h2.5l-3.3,8H73.9z"/>
		<path class="st4" d="M80.8,18.5c0-0.8,0.4-1.2,1.3-1.2s1.3,0.4,1.3,1.2c0,0.4-0.1,0.7-0.3,0.9c-0.2,0.2-0.5,0.3-1,0.3
			C81.2,19.7,80.8,19.3,80.8,18.5z M83,29h-2v-8h2V29z"/>
		<path class="st4" d="M89.3,29.6c-2.7,0-4.1-1.5-4.1-4.5c0-1.5,0.4-2.6,1.1-3.4c0.7-0.8,1.8-1.2,3.2-1.2c1,0,1.9,0.2,2.7,0.6
			L91.5,23c-0.4-0.2-0.7-0.3-1-0.4c-0.3-0.1-0.6-0.1-1-0.1c-1.2,0-1.9,0.9-1.9,2.6c0,1.7,0.6,2.6,1.9,2.6c0.5,0,0.9-0.1,1.3-0.2
			c0.4-0.1,1.2-0.3,1.2-0.6v2c0,0.2-0.8,0.4-1.2,0.5S89.9,29.6,89.3,29.6z"/>
		<path class="st4" d="M97.9,29.6c-1.4,0-2.5-0.4-3.3-1.2c-0.8-0.8-1.2-1.9-1.2-3.3c0-1.5,0.4-2.6,1.1-3.4c0.7-0.8,1.7-1.2,3-1.2
			c1.2,0,2.4,0.4,3.1,1.1s1.3,1.7,1.3,2.9V26h-6.1c0,0,0.2,1.1,0.6,1.4c0.4,0.4,0.9,0.5,1.6,0.5c0.5,0,1-0.1,1.5-0.2
			s1.5-0.3,1.5-0.6V29c0,0.2-0.9,0.4-1.3,0.5S98.6,29.6,97.9,29.6z M97.6,22.3c-0.5,0-0.9,0.1-1.2,0.4S96,24,95.9,24h3.3
			c0,0-0.2-1-0.5-1.3S98.1,22.3,97.6,22.3z"/>
		<path class="st4" d="M110,29h-2V17h2V29z"/>
		<path class="st4" d="M118,29l-0.5-1h-0.1c-0.4,1-0.8,1-1.2,1.2s-1,0.4-1.7,0.4c-0.8,0-1.5-0.2-2-0.7c-0.5-0.5-0.7-1.1-0.7-2
			c0-0.9,0.3-1.6,1-2c0.6-0.4,1.5-0.7,2.8-0.7l1.4,0v-0.4c0-0.9-0.3-1.3-1.2-1.3c-0.7,0-1.4,0.2-2.4,0.6l-0.7-1.6
			c1-0.5,2.1-0.8,3.4-0.8c1.2,0,2.2,0.3,2.9,0.8c0.6,0.5,1.1,1.3,1.1,2.3V29H118z M117,25.4l-0.8,0c-0.7,0-1.1,0.1-1.5,0.4
			c-0.3,0.2-0.5,0.6-0.5,1c0,0.7,0.4,1,1.2,1c0.6,0,0.8-0.2,1.2-0.5c0.3-0.3,0.3-0.7,0.3-1.3V25.4z"/>
		<path class="st4" d="M128.3,29l-0.3-1h-0.1c-0.3,1-0.6,0.9-1.1,1.1s-1,0.4-1.6,0.4c-1,0-1.8-0.2-2.4-0.8c-0.5-0.5-0.8-1.3-0.8-2.3
			V21h2v4.8c0,0.6,0.4,1.1,0.6,1.4c0.2,0.3,0.7,0.5,1.2,0.5c0.7,0,1.3-0.2,1.6-0.7s0.6-1.2,0.6-2.2V21h2v8H128.3z"/>
		<path class="st4" d="M141,29h-3v-4.6c0-0.6,0.1-1.1-0.2-1.4c-0.2-0.3-0.5-0.5-1-0.5c-0.7,0-1.1,0.2-1.4,0.7s-0.4,1.2-0.4,2.2V29
			h-2v-8h1.5l0.3,1h0.1c0.3-1,0.6-0.8,1.1-1c0.5-0.2,1-0.4,1.6-0.4c1,0,1.9,0.3,2.5,0.8c0.5,0.5,0.9,1.3,0.9,2.4V29z"/>
		<path class="st4" d="M146.7,29.6c-2.7,0-4.1-1.5-4.1-4.5c0-1.5,0.4-2.6,1.1-3.4c0.7-0.8,1.8-1.2,3.2-1.2c1,0,1.9,0.2,2.7,0.6
			L149,23c-0.4-0.2-0.7-0.3-1-0.4c-0.3-0.1-0.6-0.1-1-0.1c-1.2,0-1.9,0.9-1.9,2.6c0,1.7,0.6,2.6,1.9,2.6c0.5,0,0.7-0.1,1.1-0.2
			c0.4-0.1,1-0.3,1-0.6v2c0,0.2-0.6,0.4-1,0.5S147.3,29.6,146.7,29.6z"/>
		<path class="st4" d="M159,29h-2v-4.6c0-1.3-0.4-1.9-1.4-1.9c-0.7,0-1,0.2-1.3,0.7s-0.3,1.2-0.3,2.2V29h-3V17h3v2.8
			c0,0.2-0.1,0.7-0.2,1.4l-0.2,0.8h0.1c0.5-1,1.4-1.4,2.5-1.4c1,0,1.6,0.2,2.1,0.8c0.5,0.6,0.6,1.3,0.6,2.3V29z"/>
		<path class="st4" d="M165.9,29.6c-1.4,0-2.5-0.4-3.3-1.2c-0.8-0.8-1.2-1.9-1.2-3.3c0-1.5,0.4-2.6,1.1-3.4c0.7-0.8,1.7-1.2,3-1.2
			c1.2,0,2,0.4,2.7,1.1s0.8,1.7,0.8,2.9V26h-5.2c0,0,0.2,1.1,0.6,1.4c0.4,0.4,0.9,0.5,1.6,0.5c0.5,0,1.1-0.1,1.5-0.2
			s0.5-0.3,1.5-0.6V29c0,0.2-0.9,0.4-1.4,0.5S166.6,29.6,165.9,29.6z M165.5,22.3c-0.5,0-0.9,0.1-1.2,0.4s-0.5,1.3-0.5,1.3h3.3
			c0,0-0.2-1-0.5-1.3S166,22.3,165.5,22.3z"/>
		<path class="st4" d="M177.5,26.9c0,0.9-0.3,1.6-0.9,2s-1.6,0.7-2.8,0.7c-0.6,0-1.1,0-1.6-0.1s-1.2-0.2-1.2-0.4v-2
			c0,0.2,0.9,0.4,1.4,0.5s1,0.2,1.4,0.2c0.9,0,1.3-0.3,1.3-0.8c0-0.2-0.1-0.3-0.2-0.5s-0.3-0.3-0.6-0.4s-0.7-0.3-1.1-0.5
			c-0.7-0.3-1.2-0.5-1.5-0.8c-0.3-0.2-0.5-0.5-0.7-0.8c-0.1-0.3-0.2-0.7-0.2-1.1c0-0.8,0.3-1.4,0.9-1.8c0.6-0.4,1.5-0.6,2.6-0.6
			c1.1,0,2.1,0.2,3.1,0.7l-0.7,1.7c-0.4-0.2-0.8-0.3-1.2-0.5c-0.4-0.1-0.8-0.2-1.2-0.2c-0.7,0-1.1,0.2-1.1,0.6
			c0,0.2,0.1,0.4,0.3,0.6s0.7,0.4,1.5,0.7c0.7,0.3,1.2,0.5,1.5,0.8c0.3,0.2,0.6,0.5,0.7,0.8S177.5,26.4,177.5,26.9z"/>
		<path class="st4" d="M179,28.4c0-0.4,0.1-0.8,0.4-1c0.2-0.2,0.6-0.3,1-0.3c0.4,0,0.8,0.1,1,0.3c0.2,0.2,0.4,0.6,0.4,1
			c0,0.4-0.1,0.7-0.4,1s-0.6,0.4-1,0.4c-0.4,0-0.8-0.1-1-0.3S179,28.8,179,28.4z"/>
	</g>
</g>
<g>
	<path class="st4" d="M11,12H5v-0.9L7,9c0.6-0.7,1-1.1,1.2-1.4s0.3-0.5,0.4-0.7s0.1-0.4,0.1-0.7c0-0.3-0.1-0.6-0.3-0.8
		S7.9,5.2,7.6,5.2c-0.3,0-0.7,0.1-1,0.2S6,5.8,5.7,6.1l-1-1.2c0.4-0.4,0.8-0.6,1-0.8s0.6-0.3,0.9-0.3s0.7-0.1,1.1-0.1
		c0.5,0,1,0.1,1.4,0.3s0.7,0.5,1,0.8s0.3,0.8,0.3,1.2c0,0.4-0.1,0.8-0.2,1.1S9.9,7.8,9.6,8.2S8.8,9.1,8.1,9.8l-1.1,1V11h4V12z"/>
</g>
</svg>