<!-- Generator: Adobe Illustrator 19.0.0, SVG Export Plug-In  -->
<svg version="1.1"
	 xmlns="http://www.w3.org/2000/svg" xmlns:xlink="http://www.w3.org/1999/xlink" xmlns:a="http://ns.adobe.com/AdobeSVGViewerExtensions/3.0/"
	 x="0px" y="0px" width="61.6px" height="130.5px" viewBox="0 0 61.6 130.5" style="enable-background:new 0 0 61.6 130.5;"
	 xml:space="preserve">
<style type="text/css">
	.st0{fill:#086A87;}
	.st1{fill:#FF6633;}
	.st2{fill:none;stroke:#086A87;stroke-width:2;stroke-linecap:round;stroke-linejoin:round;stroke-miterlimit:10;}
</style>
<defs>
</defs>
<g>
	<g>
		<path class="st0" d="M3.6,90.4H7v4.4C6.5,95,6,95.1,5.5,95.2s-1,0.1-1.5,0.1c-1.3,0-2.3-0.4-3-1.1s-1-1.9-1-3.3
			c0-1.4,0.4-2.5,1.2-3.2s1.9-1.2,3.3-1.2c0.9,0,1.7,0.2,2.5,0.5l-0.6,1.5c-0.6-0.3-1.3-0.5-2-0.5c-0.8,0-1.4,0.3-1.9,0.8
			S1.9,90,1.9,90.9c0,0.9,0.2,1.6,0.6,2.1s0.9,0.7,1.7,0.7c0.4,0,0.8,0,1.2-0.1v-1.8H3.6V90.4z"/>
		<path class="st0" d="M14.9,91.9c0,1.1-0.3,1.9-0.8,2.5s-1.3,0.9-2.3,0.9c-0.6,0-1.2-0.1-1.7-0.4s-0.8-0.7-1.1-1.2
			s-0.4-1.1-0.4-1.8c0-1.1,0.3-1.9,0.8-2.5s1.3-0.9,2.4-0.9c0.6,0,1.2,0.1,1.7,0.4s0.8,0.7,1.1,1.2S14.9,91.2,14.9,91.9z M10.4,91.9
			c0,0.6,0.1,1.1,0.3,1.5s0.6,0.5,1,0.5c0.5,0,0.8-0.2,1-0.5s0.3-0.8,0.3-1.5c0-0.6-0.1-1.1-0.3-1.5s-0.6-0.5-1-0.5
			c-0.5,0-0.8,0.2-1,0.5S10.4,91.2,10.4,91.9z"/>
		<path class="st0" d="M16.3,86.9c0-0.6,0.3-0.9,1-0.9s1,0.3,1,0.9c0,0.3-0.1,0.5-0.2,0.6s-0.4,0.2-0.7,0.2
			C16.6,87.8,16.3,87.5,16.3,86.9z M18.1,95.2h-1.8v-6.6h1.8V95.2z"/>
		<path class="st0" d="M26.1,95.2h-1.8v-3.8c0-0.5-0.1-0.8-0.3-1.1s-0.4-0.4-0.8-0.4c-0.5,0-0.9,0.2-1.1,0.5s-0.3,0.9-0.3,1.7v3.1
			H20v-6.6h1.4l0.2,0.8h0.1c0.2-0.3,0.5-0.6,0.8-0.7s0.7-0.2,1.2-0.2c0.8,0,1.3,0.2,1.7,0.6s0.6,1,0.6,1.8V95.2z"/>
		<path class="st0" d="M33.6,95.2c0,0.9-0.3,1.7-0.8,2.1S31.4,98,30.4,98c-1,0-1.8-0.1-2.4-0.4v-1.4c0.8,0.3,1.6,0.5,2.6,0.5
			c0.9,0,1.4-0.5,1.4-1.5v-0.1l0.1-0.8h-0.1c-0.4,0.6-1,1-1.9,1c-0.8,0-1.4-0.3-1.8-0.9s-0.6-1.4-0.6-2.5c0-1.1,0.2-1.9,0.7-2.5
			s1.1-0.9,1.8-0.9c0.8,0,1.4,0.3,1.9,1h0l0.1-0.8h1.5V95.2z M30.6,93.9c0.5,0,0.8-0.1,1-0.4s0.3-0.7,0.3-1.3v-0.2
			c0-0.7-0.1-1.2-0.3-1.5s-0.6-0.5-1-0.5c-0.8,0-1.3,0.7-1.3,2c0,0.7,0.1,1.1,0.3,1.5S30.2,93.9,30.6,93.9z"/>
		<path class="st0" d="M46.5,90.9c0,1.4-0.4,2.5-1.1,3.3s-1.7,1.1-3,1.1s-2.3-0.4-3-1.1s-1.1-1.9-1.1-3.3s0.4-2.5,1.1-3.3
			s1.7-1.1,3-1.1s2.3,0.4,3,1.1S46.5,89.4,46.5,90.9z M40.3,90.9c0,1,0.2,1.7,0.5,2.2s0.9,0.7,1.6,0.7c1.4,0,2.2-1,2.2-2.9
			c0-1.9-0.7-2.9-2.2-2.9c-0.7,0-1.3,0.2-1.6,0.7S40.3,89.9,40.3,90.9z"/>
		<path class="st0" d="M52.8,95.2l-0.2-0.8h-0.1c-0.2,0.3-0.5,0.5-0.8,0.7s-0.8,0.2-1.2,0.2c-0.8,0-1.3-0.2-1.7-0.6s-0.6-1-0.6-1.8
			v-4.3h1.8v3.8c0,0.5,0.1,0.8,0.3,1.1s0.4,0.4,0.8,0.4c0.5,0,0.9-0.2,1.1-0.5s0.3-0.9,0.3-1.7v-3.1h1.8v6.6H52.8z"/>
		<path class="st0" d="M58.8,93.9c0.3,0,0.7-0.1,1.1-0.2V95c-0.4,0.2-1,0.3-1.6,0.3c-0.7,0-1.2-0.2-1.6-0.5s-0.5-0.9-0.5-1.6V90
			h-0.9v-0.8l1-0.6l0.5-1.4H58v1.4h1.8V90H58v3.2c0,0.3,0.1,0.4,0.2,0.6S58.6,93.9,58.8,93.9z"/>
	</g>
</g>
<g>
	<g>
		<path class="st1" d="M6.4,130.3l5.4-11.7h-7V116h10.2v1.9l-5.4,12.4H6.4z"/>
		<path class="st1" d="M16.7,128.9c0-0.5,0.1-1,0.4-1.2s0.7-0.4,1.3-0.4c0.5,0,1,0.1,1.3,0.4c0.3,0.3,0.4,0.7,0.4,1.2
			c0,0.5-0.1,0.9-0.4,1.2c-0.3,0.3-0.7,0.4-1.3,0.4c-0.5,0-1-0.1-1.3-0.4C16.9,129.8,16.7,129.4,16.7,128.9z"/>
		<path class="st1" d="M32.4,127.3h-1.7v3h-2.9v-3h-6.1v-2.1l6.3-9.2h2.8v9h1.7V127.3z M27.7,124.9v-2.4c0-0.4,0-1,0-1.8
			c0-0.8,0.1-1.2,0.1-1.3h-0.1c-0.2,0.5-0.5,1.1-0.9,1.6l-2.6,4H27.7z"/>
		<path class="st1" d="M43.8,127.3h-1.7v3h-2.9v-3h-6.1v-2.1l6.3-9.2h2.8v9h1.7V127.3z M39.2,124.9v-2.4c0-0.4,0-1,0-1.8
			c0-0.8,0.1-1.2,0.1-1.3h-0.1c-0.2,0.5-0.5,1.1-0.9,1.6l-2.6,4H39.2z"/>
		<path class="st1" d="M51.6,120.2c0,1.5-0.3,2.6-0.9,3.4c-0.6,0.8-1.4,1.1-2.5,1.1c-1.1,0-1.9-0.4-2.5-1.2s-0.9-1.9-0.9-3.3
			c0-3,1.1-4.5,3.4-4.5c1.1,0,1.9,0.4,2.5,1.2C51.3,117.7,51.6,118.8,51.6,120.2z M47.2,120.3c0,0.8,0.1,1.4,0.2,1.9
			s0.4,0.6,0.7,0.6c0.6,0,0.9-0.8,0.9-2.5c0-1.6-0.3-2.4-0.9-2.4c-0.3,0-0.6,0.2-0.7,0.6S47.2,119.4,47.2,120.3z M58.3,116
			l-7.9,14.3H48l7.9-14.3H58.3z M61.6,125.9c0,1.5-0.3,2.6-0.9,3.4c-0.6,0.8-1.4,1.1-2.5,1.1c-1.1,0-1.9-0.4-2.5-1.2
			s-0.9-1.9-0.9-3.3c0-3,1.1-4.5,3.4-4.5c1.1,0,1.9,0.4,2.5,1.2C61.3,123.4,61.6,124.5,61.6,125.9z M57.2,126c0,0.8,0.1,1.4,0.2,1.9
			s0.4,0.6,0.7,0.6c0.6,0,0.9-0.8,0.9-2.5c0-1.6-0.3-2.4-0.9-2.4c-0.3,0-0.6,0.2-0.7,0.6S57.2,125.1,57.2,126z"/>
	</g>
</g>
<g>
	<path class="st2" d="M13.7,20.9c0-8.6,7-15.5,15.5-15.5s15.5,7,15.5,15.5"/>
	<rect x="10.9" y="20.9" class="st2" width="36.6" height="3.3"/>
	<path class="st2" d="M25.2,6c0-2.8,2.2-5,5-5s5,2.2,5,5"/>
	<path class="st2" d="M36.2,24.5c0,3.6-2.9,6.5-6.5,6.5s-6.5-2.9-6.5-6.5"/>
	<path class="st2" d="M15.4,57.2"/>
	<path class="st2" d="M3.4,57.2v-30h10v30v-30h-10l0,29.1c0,5.3,4,9.9,9.2,10.3c5.5,0.4,10.2-3.8,10.6-9.1c0-0.5,0.1-1.1,0.2-1.6
		l4.9-25"/>
	<line class="st2" x1="13.4" y1="57.2" x2="23.2" y2="26.2"/>
</g>
</svg>