<!-- Generator: Adobe Illustrator 19.0.0, SVG Export Plug-In  -->
<svg version="1.1"
	 xmlns="http://www.w3.org/2000/svg" xmlns:xlink="http://www.w3.org/1999/xlink" xmlns:a="http://ns.adobe.com/AdobeSVGViewerExtensions/3.0/"
	 x="0px" y="0px" width="299.2px" height="74.8px" viewBox="0 0 299.2 74.8"
	 style="overflow:scroll;enable-background:new 0 0 299.2 74.8;" xml:space="preserve">
<style type="text/css">
	.st0{fill:#FF6633;}
	.st1{fill:#FFFFFF;}
	.st2{fill:none;stroke:#FFFFFF;stroke-width:2;stroke-linecap:round;stroke-linejoin:round;stroke-miterlimit:10;}
	.st3{fill:#FFFFFF;stroke:#FFFFFF;stroke-width:0.9939;stroke-miterlimit:10;}
	.st4{fill:#FFFFFF;stroke:#FFFFFF;stroke-width:0.4;stroke-miterlimit:10;}
</style>
<defs>
</defs>
<circle id="XMLID_165_" class="st0" cx="8.4" cy="20.6" r="8.4"/>
<g id="XMLID_161_">
	<path id="XMLID_162_" class="st1" d="M11,22.8h-1v2H8v-2H4v-1l4.2-6H10v6h1V22.8z M8,21.8v-1.6c0-0.2,0.1-0.4,0.1-0.8
		s0.1-0.6,0.1-0.6h0c-0.1,0-0.3,0.5-0.5,0.8L6,21.8H8z"/>
</g>
<polygon id="XMLID_160_" class="st2" points="243.5,73.8 269.7,9.7 298.2,73.8 "/>
<line id="XMLID_159_" class="st2" x1="265" y1="3.8" x2="272" y2="3.8"/>
<line id="XMLID_158_" class="st2" x1="266" y1="1" x2="271" y2="5.9"/>
<line id="XMLID_157_" class="st2" x1="271.3" y1="1" x2="266.4" y2="5.9"/>
<path id="XMLID_156_" class="st0" d="M242,13.5c0,0-1.1,5.5-6.5,6.3c5.5,0.8,6.5,6.3,6.5,6.3s1.1-5.5,6.5-6.3
	C243.1,19.1,242,13.5,242,13.5"/>
<path id="XMLID_155_" class="st0" d="M237.9,44.1c0,0-1.1,5.5-6.5,6.3c5.5,0.8,6.5,6.3,6.5,6.3s1.1-5.5,6.5-6.3
	C239,49.6,237.9,44.1,237.9,44.1"/>
<path id="XMLID_152_" class="st0" d="M214.1,28.6c0,0-2.6,13.5-16,15.5c13.5,2,16,15.5,16,15.5s2.6-13.5,16-15.5
	C216.7,42.1,214.1,28.6,214.1,28.6 M214.1,32.7c0.5,1.1,1.1,2.3,1.9,3.5c2.3,3.6,5.5,6.3,9.3,7.8c-3.8,1.5-6.9,4.2-9.3,7.8
	c-0.8,1.2-1.4,2.5-1.9,3.5c-0.5-1.1-1.1-2.3-1.9-3.5c-2.3-3.6-5.5-6.3-9.3-7.8c3.8-1.5,6.9-4.2,9.3-7.8
	C213,35,213.7,33.8,214.1,32.7"/>
<path id="XMLID_151_" class="st3" d="M228.1,35.6c-0.6-1.3-1.7-2.9-3.7-3.9c2-0.9,3.1-2.6,3.7-3.9c0.6,1.3,1.7,2.9,3.7,3.9
	C229.8,32.7,228.7,34.3,228.1,35.6z"/>
<circle id="XMLID_150_" class="st1" cx="227" cy="60.2" r="3.2"/>
<g id="XMLID_15_">
	<g id="XMLID_17_">
		<path id="XMLID_82_" class="st4" d="M32.7,26.4v-9.6c0-0.2,0-0.4,0.1-0.6c0-0.2,0.1-0.4,0.2-0.5c0.1-0.2,0.2-0.3,0.3-0.5
			c0.1-0.2,0.3-0.3,0.4-0.4c0.1-0.1,0.3-0.3,0.4-0.4s0.2-0.2,0.2-0.3c0-0.1,0.1-0.2,0.1-0.3c0-0.1,0-0.2,0-0.3c0-0.2,0-0.4-0.1-0.6
			s-0.2-0.3-0.3-0.4c-0.1-0.1-0.3-0.2-0.5-0.3c-0.2-0.1-0.4-0.1-0.6-0.1c-0.4,0-0.7,0-0.9,0.1s-0.4,0.1-0.4,0.2
			c-0.1,0.1-0.2,0.2-0.2,0.3h-1.2c0,0,0,0,0,0v-0.1c0-0.1,0-0.2,0-0.3s0.1-0.2,0.1-0.4c0.1-0.1,0.1-0.3,0.3-0.4
			c0.1-0.1,0.3-0.3,0.5-0.4s0.4-0.2,0.7-0.3c0.3-0.1,0.7-0.1,1.1-0.1c0.4,0,0.8,0,1.1,0.1s0.6,0.2,0.8,0.4c0.2,0.2,0.4,0.3,0.5,0.5
			c0.1,0.2,0.2,0.4,0.3,0.6c0.1,0.2,0.1,0.4,0.1,0.5c0,0.2,0,0.3,0,0.4v0.2c0,0.1,0,0.3,0,0.4c0,0.1-0.1,0.3-0.1,0.4
			c-0.1,0.2-0.2,0.3-0.3,0.5c-0.1,0.2-0.3,0.4-0.4,0.6c-0.2,0.2-0.3,0.4-0.4,0.6c-0.1,0.2-0.2,0.3-0.2,0.4c-0.1,0.1-0.1,0.3-0.1,0.4
			v9.6H32.7z"/>
		<path id="XMLID_80_" class="st4" d="M38.4,17v5.9c0,0.4,0.1,0.7,0.2,1c0.1,0.3,0.2,0.5,0.4,0.7c0.2,0.2,0.3,0.3,0.5,0.4
			c0.2,0.1,0.4,0.2,0.5,0.2c0.2,0,0.3,0.1,0.4,0.1c0.1,0,0.2,0,0.2,0c0.4,0,0.7-0.1,0.9-0.2c0.3-0.1,0.5-0.3,0.6-0.4
			c0.2-0.2,0.3-0.4,0.4-0.5c0.1-0.2,0.2-0.4,0.2-0.6s0.1-0.3,0.1-0.5s0-0.2,0-0.2V17h1.4v9.4h-1.4v-1.3c0,0.2-0.1,0.3-0.1,0.5
			s-0.2,0.2-0.3,0.3s-0.2,0.2-0.4,0.3s-0.3,0.1-0.4,0.2c-0.3,0.1-0.7,0.2-1.1,0.2h-0.3c-0.5,0-1-0.1-1.4-0.2
			c-0.4-0.1-0.7-0.3-0.9-0.6c-0.2-0.2-0.4-0.5-0.6-0.8s-0.2-0.6-0.3-0.8C37,23.9,37,23.7,37,23.4s0-0.4,0-0.5v-0.1V17H38.4z"/>
		<path id="XMLID_78_" class="st4" d="M48.1,26.4h-1.4V17h1.4V26.4z"/>
		<path id="XMLID_76_" class="st4" d="M56.3,26.4v-5.9c0-0.4-0.1-0.7-0.2-0.9S56,19.1,55.8,19s-0.3-0.3-0.5-0.4s-0.4-0.2-0.5-0.2
			s-0.3-0.1-0.4-0.1s-0.2,0-0.2,0c-0.4,0-0.7,0.1-0.9,0.2s-0.5,0.2-0.6,0.4s-0.3,0.3-0.4,0.5s-0.2,0.4-0.2,0.5s-0.1,0.3-0.1,0.4
			s0,0.2,0,0.2v5.9h-1.4V17h1.4v1.3c0-0.2,0-0.3,0.1-0.5s0.2-0.2,0.3-0.3s0.2-0.2,0.4-0.2s0.3-0.1,0.4-0.2c0.3-0.1,0.7-0.2,1.1-0.2
			h0.3c0.5,0,1,0.1,1.4,0.2s0.7,0.3,0.9,0.6s0.4,0.5,0.6,0.8s0.3,0.5,0.3,0.8s0.1,0.5,0.1,0.7s0,0.4,0,0.5v0.1v5.9H56.3z"/>
		<path id="XMLID_74_" class="st4" d="M68,16.8c0,0-0.1,0.1-0.2,0.3s-0.2,0.3-0.4,0.4s-0.3,0.3-0.4,0.4s-0.3,0.2-0.3,0.2
			c0.2,0.2,0.3,0.5,0.5,0.7s0.2,0.5,0.2,0.7s0.1,0.4,0.1,0.6s0,0.3,0,0.4v0.1v5.7h-1.4v-5.7c0-0.3,0-0.6-0.1-0.8s-0.2-0.4-0.3-0.6
			s-0.2-0.3-0.4-0.4s-0.3-0.2-0.4-0.3c-0.3-0.2-0.7-0.3-1.1-0.3c-0.3,0-0.5,0-0.7,0.1s-0.4,0.2-0.5,0.3s-0.3,0.2-0.4,0.4
			s-0.2,0.3-0.3,0.4c-0.2,0.3-0.3,0.7-0.3,1.2v0.9c0.3-0.2,0.6-0.3,0.9-0.4s0.6-0.1,1-0.1c0.3,0,0.6,0,0.9,0.1v1.5
			c-0.1-0.1-0.2-0.1-0.4-0.1s-0.3,0-0.5,0c-0.4,0-0.8,0.1-1.1,0.3c-0.2,0.1-0.3,0.2-0.4,0.4s-0.2,0.3-0.3,0.5v2.6h-1.4v-5.8
			c0-0.6,0.1-1.1,0.2-1.5s0.3-0.7,0.6-1s0.5-0.5,0.8-0.6s0.6-0.3,0.8-0.3s0.5-0.1,0.7-0.1s0.4,0,0.5,0h0.1c0.3,0,0.5,0,0.7,0
			s0.4,0.1,0.6,0.1c0,0,0.1,0,0.2,0s0.3-0.1,0.5-0.2s0.4-0.2,0.6-0.4s0.4-0.4,0.5-0.6c0.2,0.2,0.3,0.3,0.5,0.5
			c0.1,0.1,0.1,0.1,0.2,0.2s0.1,0.1,0.2,0.2S67.8,16.7,68,16.8C67.9,16.8,67.9,16.8,68,16.8z"/>
		<path id="XMLID_72_" class="st4" d="M70,26.4v-7.2c0.2-0.4,0.4-0.7,0.6-0.9s0.5-0.5,0.7-0.6s0.5-0.3,0.7-0.4s0.5-0.2,0.7-0.2
			s0.4-0.1,0.5-0.1s0.3,0,0.3,0h0.1c0.5,0,0.9,0.1,1.2,0.2s0.6,0.2,0.9,0.4s0.5,0.3,0.7,0.5s0.3,0.4,0.4,0.6s0.2,0.4,0.3,0.6
			s0.1,0.4,0.1,0.6s0.1,0.3,0.1,0.4s0,0.2,0,0.2v5.8h-1.4v-5.8c0-0.4-0.1-0.7-0.2-0.9s-0.2-0.5-0.4-0.6s-0.3-0.3-0.5-0.4
			s-0.4-0.2-0.5-0.2s-0.3-0.1-0.4-0.1s-0.2,0-0.2,0c-0.3,0-0.5,0-0.8,0.1s-0.4,0.1-0.6,0.3S72,18.9,71.9,19s-0.2,0.3-0.3,0.4
			c-0.2,0.3-0.3,0.7-0.3,1.1v5.8H70z"/>
		<path id="XMLID_70_" class="st4" d="M81,16.9c0,0,0.1,0,0.3,0s0.3,0,0.5,0.1s0.4,0.1,0.6,0.2s0.4,0.3,0.6,0.5s0.3,0.5,0.4,0.8
			s0.2,0.7,0.2,1.2v6.7h-1.4v-6.7c0-0.3-0.1-0.5-0.1-0.7c0-0.1-0.1-0.2-0.1-0.3s-0.1-0.2-0.2-0.2s-0.2-0.1-0.3-0.2s-0.2-0.1-0.4-0.1
			c-0.2,0-0.4,0-0.6,0.1s-0.3,0.1-0.4,0.2s-0.2,0.1-0.3,0.2s-0.1,0.1-0.1,0.1l-1-1c0.2-0.2,0.3-0.4,0.6-0.5c0.2-0.1,0.4-0.2,0.7-0.4
			S80.6,16.9,81,16.9z"/>
		<path id="XMLID_68_" class="st4" d="M90.8,17.1c0.4,0.2,0.8,0.4,1,0.6s0.5,0.5,0.6,0.8s0.3,0.6,0.4,0.8s0.1,0.5,0.1,0.7
			s0,0.4,0,0.5v0.1v5.7h-1.4v-2.8c0-0.3-0.1-0.5-0.2-0.7s-0.3-0.3-0.5-0.5s-0.4-0.2-0.6-0.3s-0.4-0.1-0.6-0.1S89.3,22,89.1,22
			c0,0-0.1,0-0.2,0s-0.2,0-0.4,0.1s-0.3,0.1-0.5,0.1s-0.3,0.2-0.5,0.3s-0.3,0.3-0.4,0.4s-0.2,0.4-0.3,0.7c0,0.1,0,0.2,0,0.2
			c0,0.2,0,0.4,0.1,0.5s0.2,0.3,0.4,0.4s0.3,0.2,0.5,0.2s0.4,0.1,0.6,0.1s0.4,0,0.5,0.1s0.3,0,0.4,0h0.1v1.3h-1.6
			c-0.3,0-0.6-0.1-0.9-0.2s-0.5-0.3-0.8-0.6s-0.4-0.5-0.5-0.8s-0.2-0.7-0.2-1c0-0.3,0.1-0.7,0.2-1.1s0.4-0.7,0.8-1
			c0.2-0.2,0.4-0.4,0.7-0.5s0.5-0.2,0.7-0.3s0.5-0.1,0.7-0.2s0.4-0.1,0.7-0.1c0.3,0,0.6,0,0.9,0.1s0.5,0.1,0.7,0.2
			c0.2,0.1,0.5,0.2,0.7,0.3v-0.5c0-0.3,0-0.6-0.1-0.8s-0.2-0.4-0.3-0.6S91,19,90.8,18.9s-0.3-0.2-0.4-0.3c-0.3-0.2-0.7-0.3-1.1-0.3
			c-0.4,0-0.7,0.1-1,0.2s-0.5,0.3-0.7,0.5s-0.3,0.4-0.4,0.6s-0.2,0.4-0.2,0.6h-1.5c0-0.5,0.1-1,0.3-1.3s0.4-0.7,0.6-0.9
			s0.5-0.4,0.8-0.6s0.5-0.2,0.8-0.3s0.5-0.1,0.7-0.1s0.3,0,0.4,0h0.1C89.8,16.9,90.3,17,90.8,17.1z"/>
		<path id="XMLID_66_" class="st4" d="M102.6,16.8c0,0,0,0.1-0.1,0.1c0,0.1-0.1,0.1-0.2,0.2s-0.2,0.2-0.3,0.3
			c-0.1,0.1-0.2,0.2-0.3,0.3s-0.2,0.2-0.3,0.2c-0.1,0.1-0.2,0.1-0.2,0.1c0.2,0.2,0.3,0.5,0.4,0.7c0.1,0.3,0.2,0.5,0.2,0.7
			s0.1,0.4,0.1,0.6c0,0.2,0,0.3,0,0.4v0.1v5.7h-1.4v-2.8c0-0.3-0.1-0.5-0.2-0.7s-0.3-0.3-0.5-0.5s-0.4-0.2-0.6-0.3
			c-0.2-0.1-0.4-0.1-0.6-0.1S98.5,22,98.2,22c0,0-0.1,0-0.2,0s-0.2,0-0.4,0.1s-0.3,0.1-0.5,0.1c-0.2,0.1-0.3,0.2-0.5,0.3
			c-0.2,0.1-0.3,0.3-0.4,0.4c-0.1,0.2-0.2,0.4-0.3,0.7c0,0,0,0.1,0,0.1s0,0.1,0,0.1c0,0.2,0,0.4,0.1,0.5c0.1,0.1,0.2,0.3,0.4,0.4
			c0.2,0.1,0.3,0.2,0.5,0.2c0.2,0.1,0.4,0.1,0.6,0.1c0.2,0,0.4,0,0.5,0.1c0.2,0,0.3,0,0.4,0h0.1v1.3h-1.6c-0.3,0-0.6-0.1-0.9-0.2
			s-0.5-0.3-0.8-0.6c-0.2-0.2-0.4-0.5-0.5-0.8c-0.1-0.3-0.2-0.7-0.2-1c0-0.3,0.1-0.7,0.2-1.1s0.4-0.7,0.8-1c0.2-0.2,0.4-0.4,0.7-0.5
			s0.5-0.2,0.7-0.3s0.5-0.1,0.7-0.2c0.2,0,0.4-0.1,0.7-0.1c0.3,0,0.6,0,0.9,0.1c0.3,0.1,0.5,0.1,0.7,0.2c0.2,0.1,0.5,0.2,0.7,0.3
			v-0.5c0-0.3,0-0.6-0.1-0.8c-0.1-0.2-0.2-0.4-0.3-0.6c-0.1-0.2-0.2-0.3-0.4-0.4c-0.1-0.1-0.3-0.2-0.4-0.3c-0.3-0.2-0.7-0.3-1.1-0.3
			c-0.4,0-0.7,0.1-1,0.2S97,18.8,96.8,19c-0.2,0.2-0.3,0.4-0.4,0.6c-0.1,0.2-0.2,0.4-0.2,0.6h-1.5c0-0.5,0.1-1,0.3-1.3
			s0.4-0.7,0.6-0.9s0.5-0.4,0.8-0.6c0.3-0.1,0.5-0.2,0.8-0.3s0.5-0.1,0.7-0.1s0.3,0,0.4,0h0.1c0.4,0,0.9,0.1,1.3,0.2
			c0.2,0,0.5-0.1,0.7-0.2c0.2-0.1,0.4-0.2,0.6-0.4c0.2-0.2,0.4-0.4,0.5-0.7l0.5,0.5c0.1,0.1,0.1,0.1,0.2,0.2
			c0.1,0.1,0.1,0.1,0.2,0.2C102.4,16.7,102.5,16.7,102.6,16.8C102.6,16.8,102.6,16.8,102.6,16.8z"/>
		<path id="XMLID_64_" class="st4" d="M100.8,28.6h-0.7v-1.3h1.3c0.2,0,0.3,0.1,0.5,0.2c0.1,0.1,0.2,0.3,0.2,0.5v2.8h-1.3V28.6z"/>
		<path id="XMLID_62_" class="st4" d="M110.8,26.4v-5.9c0-0.4-0.1-0.8-0.3-1.1c-0.1-0.1-0.2-0.3-0.3-0.4c-0.1-0.1-0.3-0.2-0.4-0.3
			c-0.2-0.1-0.4-0.2-0.6-0.2c-0.2-0.1-0.5-0.1-0.8-0.1s-0.6,0-0.8,0.1c-0.2,0.1-0.4,0.1-0.6,0.2s-0.3,0.2-0.4,0.3
			c-0.1,0.1-0.2,0.3-0.3,0.4c-0.2,0.3-0.3,0.7-0.3,1.1v3.1c0,0.2,0.1,0.4,0.1,0.6c0.1,0.2,0.1,0.3,0.2,0.5c0.1,0.2,0.2,0.3,0.4,0.4
			c0.2,0.1,0.4,0.2,0.6,0.2c0.2,0,0.3,0,0.5-0.1c0.1-0.1,0.2-0.2,0.3-0.2l0.9,0.9c-0.1,0.1-0.3,0.3-0.5,0.4
			c-0.2,0.1-0.3,0.2-0.5,0.3c-0.2,0.1-0.5,0.1-0.7,0.1c-0.1,0-0.2,0-0.3,0c-0.1,0-0.2,0-0.3,0c-0.3-0.1-0.6-0.2-0.9-0.4
			s-0.5-0.4-0.7-0.7c-0.2-0.3-0.3-0.5-0.4-0.9c-0.1-0.3-0.1-0.6-0.1-1v-3.1c0.1-0.6,0.2-1,0.3-1.4s0.4-0.7,0.6-1
			c0.2-0.3,0.5-0.5,0.8-0.6c0.3-0.2,0.5-0.3,0.8-0.3c0.3-0.1,0.5-0.1,0.7-0.1c0.2,0,0.4,0,0.5,0h0.1h0.1c0.1,0,0.3,0,0.5,0
			c0.2,0,0.4,0.1,0.7,0.1c0.3,0.1,0.5,0.2,0.8,0.3c0.3,0.2,0.5,0.4,0.8,0.6c0.2,0.3,0.4,0.6,0.6,1s0.3,0.9,0.4,1.4v5.9H110.8z"/>
		<path id="XMLID_60_" class="st4" d="M123.4,17v7.1c0,0.5-0.2,0.9-0.4,1.2c-0.1,0.2-0.2,0.3-0.3,0.4s-0.3,0.3-0.5,0.4
			s-0.4,0.2-0.6,0.3s-0.5,0.1-0.8,0.1c-0.2,0-0.5,0-0.7-0.1s-0.4-0.2-0.5-0.3s-0.3-0.3-0.4-0.5s-0.1-0.4-0.1-0.6
			c0,0.2-0.1,0.5-0.1,0.6s-0.2,0.3-0.4,0.5c-0.2,0.1-0.3,0.2-0.5,0.3s-0.4,0.1-0.7,0.1c-0.3,0-0.6,0-0.8-0.1s-0.5-0.2-0.6-0.3
			s-0.3-0.2-0.5-0.4c-0.1-0.1-0.2-0.3-0.3-0.4c-0.2-0.4-0.3-0.8-0.4-1.2V17h1.4v6.6c0,0.4,0,0.7,0.1,1c0.1,0.2,0.2,0.4,0.4,0.5
			c0.1,0.1,0.3,0.2,0.4,0.2c0.1,0,0.2,0,0.3,0h0.1c0.2,0,0.4-0.1,0.6-0.2s0.2-0.3,0.3-0.4c0.1-0.2,0.1-0.3,0.1-0.5s0-0.3,0-0.4v-0.1
			V17h1.2v6.6v0.1c0,0.1,0,0.2,0,0.4c0,0.2,0.1,0.3,0.1,0.5c0.1,0.2,0.2,0.3,0.3,0.4c0.1,0.1,0.3,0.2,0.6,0.2h0.1c0.1,0,0.2,0,0.3,0
			c0.1,0,0.3-0.1,0.4-0.2c0.1-0.1,0.2-0.3,0.3-0.5s0.1-0.5,0.1-1V17H123.4z"/>
		<path id="XMLID_58_" class="st4" d="M123.3,14.5v1.3H118v-1.3H123.3z"/>
		<path id="XMLID_56_" class="st4" d="M127.5,26.4h-1.4V17h1.4V26.4z"/>
		<path id="XMLID_54_" class="st4" d="M137.7,16.8c0,0-0.1,0.1-0.2,0.3s-0.2,0.3-0.4,0.4c-0.1,0.1-0.3,0.3-0.4,0.4
			c-0.1,0.1-0.3,0.2-0.3,0.2c0.2,0.2,0.3,0.5,0.5,0.7c0.1,0.3,0.2,0.5,0.2,0.7s0.1,0.4,0.1,0.6c0,0.2,0,0.3,0,0.4v0.1v5.7h-1.4v-5.7
			c0-0.3,0-0.6-0.1-0.8c-0.1-0.2-0.2-0.4-0.3-0.6c-0.1-0.2-0.2-0.3-0.4-0.4c-0.1-0.1-0.3-0.2-0.4-0.3c-0.3-0.2-0.7-0.3-1.1-0.3
			c-0.3,0-0.5,0-0.7,0.1c-0.2,0.1-0.4,0.2-0.5,0.3s-0.3,0.2-0.4,0.4c-0.1,0.1-0.2,0.3-0.3,0.4c-0.2,0.3-0.3,0.7-0.3,1.2v0.9
			c0.3-0.2,0.6-0.3,0.9-0.4c0.3-0.1,0.6-0.1,1-0.1c0.3,0,0.6,0,0.9,0.1v1.5c-0.1-0.1-0.2-0.1-0.4-0.1c-0.1,0-0.3,0-0.5,0
			c-0.4,0-0.8,0.1-1.1,0.3c-0.2,0.1-0.3,0.2-0.4,0.4c-0.1,0.2-0.2,0.3-0.3,0.5v2.6h-1.4v-5.8c0-0.6,0.1-1.1,0.2-1.5
			c0.2-0.4,0.3-0.7,0.6-1s0.5-0.5,0.8-0.6c0.3-0.2,0.6-0.3,0.8-0.3c0.3-0.1,0.5-0.1,0.7-0.1c0.2,0,0.4,0,0.5,0h0.1
			c0.3,0,0.5,0,0.7,0s0.4,0.1,0.6,0.1c0,0,0.1,0,0.2,0c0.1,0,0.3-0.1,0.5-0.2c0.2-0.1,0.4-0.2,0.6-0.4s0.4-0.4,0.5-0.6
			c0.2,0.2,0.3,0.3,0.5,0.5c0.1,0.1,0.1,0.1,0.2,0.2c0.1,0.1,0.1,0.1,0.2,0.2C137.5,16.7,137.6,16.7,137.7,16.8
			C137.6,16.8,137.7,16.8,137.7,16.8z"/>
		<path id="XMLID_52_" class="st4" d="M147.7,21.6h-0.9v1.5c-0.1,0.6-0.2,1.2-0.5,1.7c-0.1,0.2-0.3,0.4-0.4,0.6s-0.4,0.4-0.7,0.5
			s-0.6,0.3-0.9,0.4s-0.7,0.1-1.2,0.1c-0.5,0-0.8,0-1.2-0.1s-0.6-0.2-0.9-0.4s-0.5-0.3-0.7-0.5s-0.3-0.4-0.4-0.6
			c-0.3-0.5-0.4-1.1-0.5-1.7v-6.3h1.4v6.3c0,0.3,0,0.5,0.1,0.7s0.2,0.4,0.3,0.5s0.2,0.3,0.4,0.4s0.3,0.2,0.4,0.2
			c0.3,0.2,0.7,0.2,1.1,0.3c0.4,0,0.8-0.1,1.1-0.3c0.1-0.1,0.3-0.1,0.4-0.2s0.3-0.2,0.4-0.4s0.2-0.3,0.3-0.5s0.1-0.4,0.1-0.7v-1.5
			h-1.7c-0.2,0-0.3,0-0.4-0.1s-0.1-0.1-0.2-0.2c0-0.1-0.1-0.2-0.1-0.3v-1.4h1.3v0.7h1v-3.5h1.4v3.5h0.9V21.6z"/>
		<path id="XMLID_50_" class="st4" d="M39.4,43.2c-0.1,0.6-0.2,1.2-0.5,1.7c-0.1,0.2-0.3,0.4-0.4,0.6c-0.2,0.2-0.4,0.4-0.7,0.5
			c-0.3,0.2-0.6,0.3-0.9,0.4s-0.7,0.1-1.2,0.1c-0.5,0-0.8,0-1.2-0.1s-0.6-0.2-0.9-0.4c-0.3-0.2-0.5-0.3-0.7-0.5
			c-0.2-0.2-0.3-0.4-0.4-0.6c-0.3-0.5-0.4-1.1-0.5-1.7v-1.9h2.6v1.3h-1.2v0.6c0,0.3,0,0.5,0.1,0.7c0.1,0.2,0.2,0.4,0.3,0.5
			c0.1,0.1,0.2,0.3,0.4,0.4c0.1,0.1,0.3,0.2,0.4,0.2c0.3,0.2,0.7,0.2,1.1,0.3c0.4,0,0.8-0.1,1.1-0.3c0.1-0.1,0.3-0.1,0.4-0.2
			c0.1-0.1,0.3-0.2,0.4-0.4c0.1-0.1,0.2-0.3,0.3-0.5c0.1-0.2,0.1-0.4,0.1-0.7v-2.9c0-0.2,0-0.5-0.1-0.7c-0.1-0.2-0.2-0.4-0.3-0.5
			c-0.1-0.1-0.2-0.3-0.4-0.4c-0.1-0.1-0.3-0.2-0.4-0.2c-0.3-0.1-0.7-0.2-1.1-0.2h-0.1c-0.1,0-0.2,0-0.4,0s-0.4,0.1-0.6,0.2
			c-0.2,0.1-0.4,0.2-0.6,0.4s-0.3,0.4-0.4,0.7h-1.4c0-0.2,0.1-0.3,0.2-0.5s0.2-0.4,0.3-0.6s0.3-0.4,0.5-0.6c0.2-0.2,0.4-0.4,0.7-0.5
			s0.6-0.3,0.9-0.4c0.3-0.1,0.7-0.1,1.2-0.1c0.4,0,0.8,0,1.2,0.1s0.6,0.2,0.9,0.4c0.3,0.2,0.5,0.3,0.7,0.5c0.2,0.2,0.3,0.4,0.4,0.6
			c0.3,0.5,0.4,1.1,0.5,1.7V43.2z"/>
		<path id="XMLID_48_" class="st4" d="M48.4,37v6.8c0,0.4-0.1,0.7-0.2,1c-0.1,0.3-0.3,0.5-0.4,0.7c-0.2,0.2-0.4,0.4-0.6,0.5
			c-0.2,0.1-0.4,0.2-0.6,0.3c-0.2,0.1-0.4,0.1-0.6,0.1c-0.2,0-0.3,0-0.4,0h-1.8c-0.5,0-0.9,0-1.2-0.1c-0.3-0.1-0.6-0.2-0.8-0.4
			c-0.2-0.2-0.4-0.3-0.5-0.5s-0.2-0.4-0.3-0.6c-0.1-0.2-0.1-0.4-0.1-0.5c0-0.2,0-0.3,0-0.4c0-0.4,0.1-0.7,0.2-0.9
			c0.1-0.3,0.3-0.5,0.5-0.6c0.2-0.2,0.3-0.3,0.5-0.4c0.2-0.1,0.2-0.1,0.3-0.1c-0.2,0-0.4-0.1-0.5-0.2c-0.1-0.1-0.3-0.2-0.4-0.3
			s-0.2-0.2-0.3-0.3c-0.1-0.1-0.1-0.2-0.2-0.4c-0.1-0.3-0.2-0.6-0.2-1c0-0.3,0-0.6,0.1-0.9c0.1-0.3,0.2-0.5,0.3-0.7
			c0.1-0.2,0.2-0.4,0.4-0.5c0.1-0.1,0.3-0.2,0.4-0.3c0.3-0.2,0.7-0.3,1.2-0.3H45v1.3h-1.1c-0.2,0-0.4,0-0.6,0.1s-0.3,0.1-0.4,0.2
			s-0.2,0.1-0.3,0.2s-0.1,0.2-0.2,0.3c-0.1,0.2-0.2,0.4-0.2,0.7c0,0.2,0,0.4,0.1,0.6c0.1,0.2,0.2,0.3,0.3,0.4
			c0.1,0.1,0.2,0.2,0.4,0.2c0.1,0.1,0.3,0.1,0.4,0.1s0.2,0,0.3,0s0.1,0,0.2,0H45v1.3h-1.1c-0.2,0-0.5,0-0.6,0.1
			c-0.2,0.1-0.3,0.1-0.4,0.2c-0.1,0.1-0.2,0.2-0.3,0.3s-0.1,0.2-0.1,0.3c0,0.1,0,0.2-0.1,0.2c0,0.1,0,0.1,0,0.1c0,0.2,0,0.4,0.1,0.6
			c0.1,0.2,0.1,0.3,0.2,0.4c0.1,0.1,0.2,0.2,0.3,0.2s0.2,0.1,0.4,0.1c0.1,0,0.2,0,0.3,0c0.1,0,0.2,0,0.2,0h0h1.7
			c0.3,0,0.6-0.1,0.8-0.2c0.2-0.1,0.3-0.3,0.4-0.5c0.1-0.2,0.2-0.4,0.2-0.7V37H48.4z"/>
		<path id="XMLID_46_" class="st4" d="M48.2,33.2v2.7h-1.3v-2.7H48.2z"/>
		<path id="XMLID_44_" class="st4" d="M52.8,36.9c0,0,0.1,0,0.3,0s0.3,0,0.5,0.1s0.4,0.1,0.6,0.2s0.4,0.3,0.6,0.5s0.3,0.5,0.4,0.8
			s0.2,0.7,0.2,1.2v6.7h-1.4v-6.7c0-0.3-0.1-0.5-0.1-0.7c0-0.1-0.1-0.2-0.1-0.3s-0.1-0.2-0.2-0.2s-0.2-0.1-0.3-0.2s-0.2-0.1-0.4-0.1
			c-0.2,0-0.4,0-0.6,0.1s-0.3,0.1-0.4,0.2s-0.2,0.1-0.3,0.2s-0.1,0.1-0.1,0.1l-1-1c0.2-0.2,0.3-0.4,0.6-0.5c0.2-0.1,0.4-0.2,0.7-0.4
			S52.4,36.9,52.8,36.9z"/>
		<path id="XMLID_42_" class="st4" d="M59,37h2.7v6.8c0,0.5-0.1,0.8-0.2,1.1s-0.3,0.6-0.4,0.8s-0.4,0.4-0.6,0.5s-0.4,0.2-0.6,0.3
			s-0.4,0.1-0.5,0.1s-0.2,0-0.3,0c-0.4,0-0.8-0.1-1-0.2s-0.5-0.2-0.7-0.4c-0.2-0.2-0.4-0.3-0.6-0.5l0.9-0.9c0,0,0.1,0.1,0.1,0.1
			s0.2,0.1,0.3,0.2s0.2,0.1,0.4,0.2s0.4,0.1,0.6,0.1c0.1,0,0.3,0,0.4-0.1s0.2-0.1,0.3-0.2s0.1-0.1,0.2-0.2s0.1-0.2,0.1-0.3
			c0.1-0.2,0.1-0.5,0.1-0.7v-5.5H59V37z"/>
		<path id="XMLID_40_" class="st4" d="M65.4,46.4h-1.4V37h1.4V46.4z"/>
		<path id="XMLID_38_" class="st4" d="M73.3,38.9c0.3,0.1,0.6,0.2,0.7,0.4s0.3,0.4,0.3,0.7v3.3c0,0.5-0.1,1-0.2,1.3
			s-0.3,0.7-0.6,0.9s-0.5,0.4-0.8,0.6s-0.5,0.2-0.8,0.3s-0.5,0.1-0.7,0.1s-0.3,0-0.4,0c-0.6,0-1-0.1-1.4-0.2s-0.7-0.3-0.9-0.6
			s-0.4-0.5-0.6-0.7s-0.2-0.5-0.3-0.8s-0.1-0.5-0.1-0.6s0-0.3,0-0.4c0-0.3,0-0.6,0.1-0.8s0.2-0.5,0.3-0.7s0.3-0.4,0.4-0.5
			s0.3-0.3,0.4-0.5s0.3-0.3,0.4-0.4s0.2-0.3,0.2-0.4c0,0,0-0.1,0-0.1s0-0.1,0-0.1c0-0.2,0-0.4-0.1-0.5s-0.2-0.3-0.3-0.4
			s-0.2-0.2-0.4-0.2s-0.3-0.1-0.4-0.1s-0.3,0-0.4-0.1s-0.2,0-0.3,0h-0.1V37h0.8c0.4,0,0.7,0.1,1,0.2s0.5,0.2,0.7,0.4
			s0.3,0.3,0.4,0.6s0.2,0.4,0.2,0.6s0.1,0.4,0.1,0.6s0,0.3,0,0.4c0,0,0,0.1,0,0.1s0,0,0,0.1v0c0,0.2-0.1,0.3-0.1,0.5
			s-0.1,0.3-0.2,0.4c-0.1,0.2-0.2,0.3-0.3,0.4c-0.3,0.3-0.5,0.6-0.6,0.8s-0.3,0.4-0.3,0.6s-0.1,0.3-0.1,0.4s0,0.2,0,0.2
			c0,0.3,0,0.6,0.1,0.8s0.2,0.4,0.3,0.5s0.3,0.3,0.4,0.3s0.3,0.1,0.4,0.2s0.3,0.1,0.4,0.1s0.2,0,0.2,0c0.3,0,0.5,0,0.7-0.1
			s0.4-0.2,0.5-0.3s0.3-0.3,0.3-0.4s0.2-0.3,0.2-0.4s0.1-0.3,0.1-0.4s0-0.2,0-0.2v-3c0-0.6-0.4-0.9-1.2-0.9h-0.5v-1.1h0.5
			c0.4,0,0.7-0.1,0.9-0.3s0.3-0.5,0.3-0.8V37h1.4v0.5C74.4,38.2,74,38.7,73.3,38.9z"/>
		<path id="XMLID_36_" class="st4" d="M73.9,33.2v2.7h-1.3v-2.7H73.9z"/>
		<path id="XMLID_34_" class="st4" d="M78.6,37v5.9c0,0.4,0.1,0.7,0.2,1c0.1,0.3,0.2,0.5,0.4,0.7c0.2,0.2,0.3,0.3,0.5,0.4
			c0.2,0.1,0.4,0.2,0.5,0.2c0.2,0,0.3,0.1,0.4,0.1c0.1,0,0.2,0,0.2,0c0.4,0,0.7-0.1,0.9-0.2c0.3-0.1,0.5-0.3,0.6-0.4
			c0.2-0.2,0.3-0.4,0.4-0.5c0.1-0.2,0.2-0.4,0.2-0.6s0.1-0.3,0.1-0.5s0-0.2,0-0.2V37h1.4v9.4h-1.4v-1.3c0,0.2-0.1,0.3-0.1,0.5
			s-0.2,0.2-0.3,0.3s-0.2,0.2-0.4,0.3s-0.3,0.1-0.4,0.2c-0.3,0.1-0.7,0.2-1.1,0.2h-0.3c-0.5,0-1-0.1-1.4-0.2
			c-0.4-0.1-0.7-0.3-0.9-0.6c-0.2-0.2-0.4-0.5-0.6-0.8s-0.2-0.6-0.3-0.8c-0.1-0.3-0.1-0.5-0.1-0.7s0-0.4,0-0.5v-0.1V37H78.6z"/>
		<path id="XMLID_32_" class="st4" d="M95.3,36.9c0.1,0,0.2,0,0.4,0c0.2,0,0.4,0.1,0.6,0.1s0.5,0.2,0.7,0.3c0.2,0.1,0.5,0.3,0.7,0.6
			c0.2,0.2,0.4,0.5,0.5,0.9c0.1,0.4,0.2,0.8,0.2,1.3v3.1c0,0.6-0.2,1.1-0.4,1.6c-0.1,0.2-0.2,0.4-0.4,0.6c-0.2,0.2-0.3,0.4-0.6,0.5
			c-0.2,0.1-0.5,0.3-0.8,0.4c-0.3,0.1-0.6,0.1-1,0.1c-0.4,0-0.8,0-1.1-0.1c-0.3-0.1-0.6-0.2-0.8-0.4c-0.2-0.2-0.4-0.3-0.6-0.5
			c-0.2-0.2-0.3-0.4-0.4-0.6c0.1,0,0.1-0.1,0.2-0.1s0.2-0.1,0.3-0.2c0.1-0.1,0.2-0.1,0.3-0.2c0.1-0.1,0.2-0.1,0.3-0.1
			c0.1,0.3,0.2,0.5,0.4,0.6c0.2,0.1,0.4,0.2,0.5,0.3c0.2,0.1,0.4,0.1,0.7,0.1c0.3,0,0.6-0.1,0.9-0.3c0.1-0.1,0.2-0.1,0.3-0.2
			s0.2-0.2,0.3-0.3c0.1-0.1,0.1-0.3,0.2-0.4c0-0.2,0.1-0.4,0.1-0.6v-3.1c0-0.3-0.1-0.7-0.2-0.9c-0.1-0.1-0.1-0.2-0.2-0.3
			c-0.1-0.1-0.2-0.2-0.3-0.3c-0.1-0.1-0.3-0.2-0.4-0.2c-0.2-0.1-0.4-0.1-0.6-0.1c-0.3,0-0.6,0-0.8,0.1s-0.4,0.1-0.6,0.3
			s-0.3,0.3-0.4,0.5c-0.1,0.2-0.2,0.4-0.3,0.7h-1.4c0-0.4,0.1-0.8,0.3-1.2c0.2-0.4,0.4-0.7,0.7-0.9c0.3-0.3,0.6-0.4,1.1-0.6
			C94.2,37,94.7,36.9,95.3,36.9L95.3,36.9L95.3,36.9z"/>
		<path id="XMLID_30_" class="st4" d="M102,36.9c0,0,0.1,0,0.3,0c0.1,0,0.3,0,0.5,0.1c0.2,0,0.4,0.1,0.6,0.2
			c0.2,0.1,0.4,0.3,0.6,0.5c0.2,0.2,0.3,0.5,0.4,0.8s0.2,0.7,0.2,1.2v6.7h-1.4v-6.7c0-0.3-0.1-0.5-0.1-0.7c0-0.1-0.1-0.2-0.1-0.3
			s-0.1-0.2-0.2-0.2c-0.1-0.1-0.2-0.1-0.3-0.2c-0.1,0-0.2-0.1-0.4-0.1c-0.2,0-0.4,0-0.6,0.1c-0.2,0.1-0.3,0.1-0.4,0.2
			s-0.2,0.1-0.3,0.2s-0.1,0.1-0.1,0.1l-1-1c0.2-0.2,0.3-0.4,0.6-0.5c0.2-0.1,0.4-0.2,0.7-0.4S101.6,36.9,102,36.9z"/>
		<path id="XMLID_28_" class="st4" d="M108.4,46.4h-1.4V37h1.4V46.4z"/>
		<path id="XMLID_26_" class="st4" d="M115.5,37.1c0.4,0.2,0.8,0.4,1,0.6s0.5,0.5,0.6,0.8c0.2,0.3,0.3,0.6,0.4,0.8s0.1,0.5,0.1,0.7
			s0,0.4,0,0.5v0.1v5.7h-1.4v-2.8c0-0.3-0.1-0.5-0.2-0.7s-0.3-0.3-0.5-0.5s-0.4-0.2-0.6-0.3c-0.2-0.1-0.4-0.1-0.6-0.1
			S114,42,113.8,42c0,0-0.1,0-0.2,0s-0.2,0-0.4,0.1c-0.1,0-0.3,0.1-0.5,0.1c-0.2,0.1-0.3,0.2-0.5,0.3s-0.3,0.3-0.4,0.4
			c-0.1,0.2-0.2,0.4-0.3,0.7c0,0.1,0,0.2,0,0.2c0,0.2,0,0.4,0.1,0.5c0.1,0.1,0.2,0.3,0.4,0.4c0.2,0.1,0.3,0.2,0.5,0.2
			c0.2,0.1,0.4,0.1,0.6,0.1s0.4,0,0.5,0.1c0.2,0,0.3,0,0.4,0h0.1v1.3h-1.6c-0.3,0-0.6-0.1-0.9-0.2s-0.5-0.3-0.8-0.6
			c-0.2-0.2-0.4-0.5-0.5-0.8s-0.2-0.7-0.2-1c0-0.3,0.1-0.7,0.2-1.1c0.2-0.4,0.4-0.7,0.8-1c0.2-0.2,0.4-0.4,0.7-0.5s0.5-0.2,0.7-0.3
			s0.5-0.1,0.7-0.2c0.2,0,0.4-0.1,0.7-0.1c0.3,0,0.6,0,0.9,0.1c0.3,0.1,0.5,0.1,0.7,0.2c0.2,0.1,0.5,0.2,0.7,0.3v-0.5
			c0-0.3,0-0.6-0.1-0.8c-0.1-0.2-0.2-0.4-0.3-0.6c-0.1-0.2-0.2-0.3-0.4-0.4c-0.1-0.1-0.3-0.2-0.4-0.3c-0.3-0.2-0.7-0.3-1.1-0.3
			c-0.4,0-0.7,0.1-1,0.2s-0.5,0.3-0.7,0.5c-0.2,0.2-0.3,0.4-0.4,0.6c-0.1,0.2-0.2,0.4-0.2,0.6h-1.5c0-0.5,0.1-1,0.3-1.3
			s0.4-0.7,0.6-0.9s0.5-0.4,0.8-0.6c0.3-0.1,0.5-0.2,0.8-0.3s0.5-0.1,0.7-0.1s0.3,0,0.4,0h0.1C114.6,36.9,115.1,37,115.5,37.1z"/>
		<path id="XMLID_24_" class="st4" d="M121.1,37v5.9c0,0.4,0.1,0.7,0.2,1c0.1,0.3,0.2,0.5,0.4,0.7c0.2,0.2,0.3,0.3,0.5,0.4
			c0.2,0.1,0.4,0.2,0.5,0.2c0.2,0,0.3,0.1,0.4,0.1c0.1,0,0.2,0,0.2,0c0.4,0,0.7-0.1,0.9-0.2c0.3-0.1,0.5-0.3,0.6-0.4
			c0.2-0.2,0.3-0.4,0.4-0.5c0.1-0.2,0.2-0.4,0.2-0.6s0.1-0.3,0.1-0.5s0-0.2,0-0.2V37h1.4v9.4h-1.4v-1.3c0,0.2-0.1,0.3-0.1,0.5
			s-0.2,0.2-0.3,0.3s-0.2,0.2-0.4,0.3s-0.3,0.1-0.4,0.2c-0.3,0.1-0.7,0.2-1.1,0.2h-0.3c-0.5,0-1-0.1-1.4-0.2
			c-0.4-0.1-0.7-0.3-0.9-0.6c-0.2-0.2-0.4-0.5-0.6-0.8s-0.2-0.6-0.3-0.8c-0.1-0.3-0.1-0.5-0.1-0.7s0-0.4,0-0.5v-0.1V37H121.1z"/>
		<path id="XMLID_22_" class="st4" d="M130.2,30.9c0.2,0.1,0.4,0.2,0.6,0.3s0.3,0.3,0.4,0.4s0.2,0.3,0.3,0.5
			c0.2,0.4,0.3,0.8,0.3,1.2v13h-1.4v-13c0-0.1,0-0.2-0.1-0.4s-0.1-0.2-0.2-0.3c-0.1-0.1-0.2-0.2-0.3-0.4l-1.1,1.1l-1.4-1.8l0.9-0.8
			l0.6,0.9l0.7-1C129.8,30.7,130,30.8,130.2,30.9z"/>
		<path id="XMLID_20_" class="st4" d="M140,46.4v-5.9c0-0.4-0.1-0.7-0.2-0.9s-0.2-0.5-0.4-0.6s-0.3-0.3-0.5-0.4s-0.4-0.2-0.5-0.2
			s-0.3-0.1-0.4-0.1s-0.2,0-0.2,0c-0.4,0-0.7,0.1-0.9,0.2s-0.5,0.2-0.6,0.4s-0.3,0.3-0.4,0.5s-0.2,0.4-0.2,0.5s-0.1,0.3-0.1,0.4
			s0,0.2,0,0.2v5.9h-1.4V37h1.4v1.3c0-0.2,0-0.3,0.1-0.5s0.2-0.2,0.3-0.3s0.2-0.2,0.4-0.2s0.3-0.1,0.4-0.2c0.3-0.1,0.7-0.2,1.1-0.2
			h0.3c0.5,0,1,0.1,1.4,0.2s0.7,0.3,0.9,0.6s0.4,0.5,0.6,0.8s0.3,0.5,0.3,0.8s0.1,0.5,0.1,0.7s0,0.4,0,0.5v0.1v5.9H140z"/>
		<path id="XMLID_18_" class="st4" d="M145.1,37v5.9c0,0.4,0.1,0.7,0.2,1s0.2,0.5,0.4,0.7s0.3,0.3,0.5,0.4s0.4,0.2,0.5,0.2
			s0.3,0.1,0.4,0.1s0.2,0,0.2,0c0.4,0,0.7-0.1,0.9-0.2s0.5-0.3,0.6-0.4s0.3-0.4,0.4-0.5s0.2-0.4,0.2-0.6s0.1-0.3,0.1-0.5
			s0-0.2,0-0.2V37h1.4v9.4h-1.4v-1.3c0,0.2-0.1,0.3-0.1,0.5s-0.2,0.2-0.3,0.3s-0.2,0.2-0.4,0.3s-0.3,0.1-0.4,0.2
			c-0.3,0.1-0.7,0.2-1.1,0.2h-0.3c-0.5,0-1-0.1-1.4-0.2s-0.7-0.3-0.9-0.6s-0.4-0.5-0.6-0.8s-0.2-0.6-0.3-0.8s-0.1-0.5-0.1-0.7
			s0-0.4,0-0.5v-0.1V37H145.1z"/>
	</g>
</g>
</svg>