<?xml version="1.0" encoding="utf-8"?>
<!-- Generator: Adobe Illustrator 19.0.0, SVG Export Plug-In . SVG Version: 6.00 Build 0)  -->
<svg version="1.1" id="Layer_1" xmlns="http://www.w3.org/2000/svg" xmlns:xlink="http://www.w3.org/1999/xlink" x="0px" y="0px"
	 viewBox="0 0 1695.1 496.1" style="enable-background:new 0 0 1695.1 496.1;" xml:space="preserve">
<style type="text/css">
	.st0{fill:#4BC2C6;}
	.st1{fill:#45B7B9;}
	.st2{fill:none;stroke:#FFFFFF;stroke-width:2;stroke-miterlimit:10;}
	.st3{fill:#FFFFFF;}
</style>
<rect x="1" class="st0" width="1693.5" height="496"/>
<polygon class="st1" points="413.7,195 1476.5,3 1694.5,3 1694.5,133 "/>
<polygon class="st1" points="417.2,195 207.5,0 0,0 0,132 "/>
<polygon class="st1" points="417.2,195 0,290 0,390 1,496 "/>
<polygon id="XMLID_1_" class="st1" points="413.8,194.4 1694.6,399.8 1695.1,496.1 1570.3,495.9 "/>
<path class="st2" d="M504.8,103.3c0,0,2.7,3.3-4.4,3.3s-16.3,0-16.3,0"/>
<line class="st2" x1="472.4" y1="105.9" x2="455.3" y2="105.9"/>
<path class="st2" d="M443.1,106.1c0,0-4.7,4.8-13.3,0.5"/>
<path class="st2" d="M361.6,106.1c0,0-9.1,8.4-17.6-1.3"/>
<path class="st2" d="M321.2,104c0,0,2.1,12.1-15.7,2.1"/>
<line class="st2" x1="293.3" y1="105.9" x2="276.2" y2="105.9"/>
<path class="st2" d="M263.7,106.4c0.1,2.8-14.3,3.6-14.2-1.9"/>
<circle class="st3" cx="367.6" cy="44.9" r="8.3"/>
<path class="st2" d="M540.1,104.1c0,0,4.6,3.1-1.1,3.1s-15.2,0-15.2,0s-1.8-0.5-1.8-3.1"/>
<g>
	<g>
		<path class="st2" d="M236.5,106.2V39.7h13.1v64.5L236.5,106.2z"/>
		<path class="st2" d="M276.2,105.9h-12.4V60h12.1v5.7c2.8-4.8,8.3-6.9,13.3-6.9c11.4,0,16.6,8.1,16.6,18.2v29h-12.4V79.1
			c0-5.1-2.5-9.2-8.5-9.2c-5.4,0-8.6,4.2-8.6,9.5V105.9z"/>
		<path class="st2" d="M325,90.8c0.3,3.6,3,7,8.4,7c4.1,0,6.1-2.1,6.1-4.6c0-2.1-1.4-3.7-5-4.5l-6.1-1.4c-8.9-2-12.9-7.3-12.9-13.7
			c0-8.2,7.3-15,17.2-15c13.1,0,17.5,8.3,18,13.3l-10.4,2.3c-0.4-2.7-2.3-6.2-7.6-6.2c-3.3,0-5.9,2-5.9,4.6c0,2.2,1.7,3.6,4.2,4.1
			l6.5,1.4c9.1,1.9,13.6,7.4,13.6,14.1c0,7.5-5.8,15.1-17.8,15.1c-13.8,0-18.6-9-19.2-14.2L325,90.8z"/>
		<path class="st2" d="M367.5,37.2c4.3,0,7.7,3.5,7.7,7.8c0,4.1-3.4,7.6-7.7,7.6c-4.2,0-7.7-3.5-7.7-7.6
			C359.9,40.6,363.3,37.2,367.5,37.2z M361.4,105.9V60h12.4v46H361.4z"/>
		<path class="st2" d="M395,105.5c0.8,5,4.9,8.7,10.7,8.7c7.8,0,12.2-3.9,12.2-12.8V98c-1.9,3-6.2,5.9-12.8,5.9
			c-12.2,0-21.4-9.4-21.4-22.3c0-12.1,8.8-22.4,21.4-22.4c7.3,0,11.5,3.2,13.1,6.3V60h12v41c0,12.6-6.8,24.1-24.1,24.1
			c-12.6,0-21-7.8-22.3-16.6L395,105.5z M418.2,81.6c0-7.1-4.9-11.6-10.8-11.6c-6.2,0-11,4.5-11,11.6c0,7.2,4.6,11.7,11,11.7
			C413.7,93.2,418.2,88.7,418.2,81.6z"/>
		<path class="st2" d="M455.3,105.9h-12.4V38.3h12.4v25.5c3-3.6,8-5,12.4-5c11.7,0,17.1,8.1,17.1,18.2v29h-12.4V79.1
			c0-5.1-2.5-9.2-8.5-9.2c-5.2,0-8.3,3.9-8.6,9V105.9z"/>
		<path class="st2" d="M512.7,60h9.2v11h-9.2v19.2c0,4,1.9,5.3,5.4,5.3c1.5,0,3.2-0.2,3.8-0.4v10.3c-1.1,0.5-3.4,1.1-7,1.1
			c-9,0-14.6-5.3-14.6-14.2V71h-8.3V60h2.3c4.9,0,7.1-3.2,7.1-7.3v-6.4h11.2V60z"/>
	</g>
	<g>
		<path class="st2" d="M545.4,91.3c0.3,3.8,3.2,7.4,8.9,7.4c4.3,0,6.4-2.3,6.4-4.8c0-2.2-1.5-3.9-5.2-4.7l-6.4-1.5
			c-9.4-2.1-13.6-7.7-13.6-14.5c0-8.7,7.7-15.9,18.2-15.9c13.8,0,18.5,8.8,19,14l-11,2.5c-0.4-2.9-2.5-6.5-8-6.5
			c-3.5,0-6.2,2.1-6.2,4.8c0,2.4,1.8,3.8,4.4,4.3l6.9,1.5c9.6,2,14.4,7.8,14.4,14.9c0,7.9-6.1,16-18.8,16c-14.6,0-19.6-9.5-20.2-15
			L545.4,91.3z"/>
	</g>
</g>
<path class="st0" d="M542.9,105.3c0,0,0.1,1.5-0.7,2.1c-0.9,0.7,6.9,2.7,6.9,2.7l21.8,2.7l-2.8-5.6c0,0-1.8-1.2-1.9-2.9
	c-3.9-0.2-25.9-1.3-25.9-1.3L542.9,105.3z"/>
<path class="st0" d="M421.3,162.2h-31.2c-10.4,0-18.8-8.4-18.8-18.8v-19.4c0-10.4,9.1-20.5,19.5-20.5l30.5,1.7
	c10.4,0,18.8,8.4,18.8,18.8v19.4C440.1,153.8,431.7,162.2,421.3,162.2z"/>
<path class="st2" d="M417.8,104.7c-2.5,10.7-30.5,16.9-44.1,1.5"/>
<path class="st1" d="M275.1,104l0,3.4c0,0-11.2,1.1-10.6,0c0.5-1.1,0.2-4.7,0.2-4.7L275.1,104z"/>
<polygon class="st0" points="443.7,105.2 449.4,107 443.7,108.9 "/>
<path class="st0" d="M521.8,107.1c-0.7-1.1-0.9-2.4-0.9-2.4l-13.8-1.2l-1.2-0.6c0,0,0.9,2,0,3c-0.7,0.8,10.2,2.8,10.2,2.8
	S522.4,108,521.8,107.1z"/>
<polygon class="st0" points="520.8,104.3 520.9,105.7 518.7,105.4 "/>
<path class="st0" d="M368.1,112.6h-1c-2.8,0-5-2.2-5-5v-1.1c0-2.8,2.2-5,5-5h1c2.8,0,5,2.2,5,5v1.1
	C373.1,110.4,370.9,112.6,368.1,112.6z"/>
<polygon class="st0" points="322,106.9 323.5,106.8 342.6,103 344.4,107.6 334.1,109.5 326.7,109.5 "/>
<polygon class="st0" points="454.5,102 454.5,107.3 450.3,107.3 443.7,105.2 443.7,102 "/>
<path class="st0" d="M339.2,103.4l-18.7-1.2c0,0,2.4,1.5,1.5,5C326.7,106.8,339.2,103.4,339.2,103.4z"/>
<polygon class="st0" points="473.2,104.8 484.1,107 484.1,104 "/>
<polygon class="st0" points="473.2,104.8 473.2,107.7 484.1,108.4 484.1,107 "/>
<polygon class="st1" points="294.2,102.1 294.3,107.6 304.6,107.8 304.7,99.6 "/>
<path class="st1" d="M237.4,101.5v7.5h11.3c0,0-0.2-6.3-0.2-6.8C248.5,101.5,237.4,101.5,237.4,101.5z"/>
<polygon class="st3" points="235.5,107.3 237.4,107.3 237.4,106.2 "/>
</svg>
