<!-- Generator: Adobe Illustrator 19.1.0, SVG Export Plug-In  -->
<svg version="1.1"
	 xmlns="http://www.w3.org/2000/svg" xmlns:xlink="http://www.w3.org/1999/xlink" xmlns:a="http://ns.adobe.com/AdobeSVGViewerExtensions/3.0/"
	 x="0px" y="0px" width="171.9px" height="129.1px" viewBox="0 0 171.9 129.1"
	 style="overflow:scroll;enable-background:new 0 0 171.9 129.1;" xml:space="preserve">
<style type="text/css">
	.st0{fill:#FF6633;}
	.st1{fill:#086A87;}
</style>
<defs>
</defs>
<g>
	<path class="st0" d="M36,36.9h-7.7V15.9l0.1-3.5l0.1-3.8c-1.3,1.3-2.2,2.1-2.7,2.5l-4.2,3.4L18,9.9l11.7-9.3H36V36.9z"/>
	<path class="st0" d="M65.2,36.9h-7.7V15.9l0.1-3.5l0.1-3.8c-1.3,1.3-2.2,2.1-2.7,2.5l-4.2,3.4l-3.7-4.6l11.7-9.3h6.3V36.9z"/>
	<path class="st0" d="M76.2,33.4c0-1.4,0.4-2.4,1.1-3.2s1.8-1.1,3.3-1.1c1.4,0,2.4,0.4,3.2,1.1c0.8,0.7,1.1,1.8,1.1,3.1
		c0,1.3-0.4,2.3-1.1,3.1c-0.8,0.8-1.8,1.1-3.2,1.1c-1.4,0-2.5-0.4-3.2-1.1S76.2,34.7,76.2,33.4z"/>
	<path class="st0" d="M103.1,13.7c3.5,0,6.3,1,8.4,3c2.1,2,3.1,4.7,3.1,8.1c0,4.1-1.3,7.2-3.8,9.4s-6.1,3.3-10.8,3.3
		c-4.1,0-7.3-0.7-9.8-2v-6.6c1.3,0.7,2.8,1.3,4.6,1.7s3.4,0.7,5,0.7c4.7,0,7-1.9,7-5.8c0-3.7-2.4-5.5-7.3-5.5
		c-0.9,0-1.9,0.1-2.9,0.3c-1.1,0.2-1.9,0.4-2.6,0.6L91,19.1l1.4-18.6h19.7V7h-13l-0.7,7.1l0.9-0.2C100.4,13.8,101.6,13.7,103.1,13.7
		z"/>
	<path class="st0" d="M135.9,11.4c0,3.8-0.7,6.7-2.2,8.6c-1.5,1.9-3.6,2.9-6.5,2.9c-2.7,0-4.9-1-6.4-3c-1.5-2-2.2-4.8-2.2-8.5
		c0-7.6,2.9-11.4,8.6-11.4c2.8,0,5,1,6.5,3C135.1,4.9,135.9,7.7,135.9,11.4z M124.8,11.4c0,2.1,0.2,3.7,0.6,4.7c0.4,1,1,1.6,1.8,1.6
		c1.6,0,2.4-2.1,2.4-6.3c0-4.2-0.8-6.2-2.4-6.2c-0.8,0-1.4,0.5-1.8,1.5C125,7.8,124.8,9.3,124.8,11.4z M153,0.5l-20.2,36.4h-6
		L147,0.5H153z M161.4,25.9c0,3.8-0.7,6.7-2.2,8.6c-1.5,1.9-3.6,2.9-6.5,2.9c-2.7,0-4.9-1-6.4-3c-1.5-2-2.2-4.8-2.2-8.5
		c0-7.6,2.9-11.4,8.6-11.4c2.8,0,5,1,6.5,3C160.6,19.5,161.4,22.3,161.4,25.9z M150.3,26c0,2.1,0.2,3.7,0.6,4.7c0.4,1,1,1.6,1.8,1.6
		c1.6,0,2.4-2.1,2.4-6.3c0-4.2-0.8-6.2-2.4-6.2c-0.8,0-1.4,0.5-1.8,1.5C150.5,22.3,150.3,23.9,150.3,26z"/>
	<path class="st1" d="M71.1,65.7h-9.9V48.6h9.9v3h-6.2v3.8h5.8v3h-5.8v4.4h6.2V65.7z"/>
	<path class="st1" d="M82.7,65.7L82,63.9h-0.1c-0.6,0.8-1.2,1.3-1.9,1.6S78.6,66,77.6,66c-1.3,0-2.2-0.4-3-1.1s-1.1-1.7-1.1-3.1
		c0-1.4,0.5-2.4,1.5-3.1s2.4-1,4.4-1.1l2.3-0.1V57c0-1.3-0.7-2-2-2c-1,0-2.3,0.3-3.7,0.9l-1.2-2.4c1.5-0.8,3.2-1.2,5-1.2
		c1.8,0,3.1,0.4,4,1.1s1.4,1.9,1.4,3.5v8.7H82.7z M81.7,59.7l-1.4,0c-1,0-1.8,0.2-2.3,0.6s-0.8,0.9-0.8,1.6c0,1,0.6,1.5,1.7,1.5
		c0.8,0,1.5-0.2,2-0.7s0.7-1.1,0.7-1.9V59.7z"/>
	<path class="st1" d="M98,61.8c0,1.3-0.5,2.4-1.4,3.1S94.3,66,92.4,66c-1,0-1.8-0.1-2.4-0.2s-1.3-0.3-1.9-0.6v-3
		c0.7,0.3,1.4,0.6,2.2,0.8s1.6,0.3,2.2,0.3c1.3,0,1.9-0.4,1.9-1.1c0-0.3-0.1-0.5-0.3-0.7s-0.5-0.4-0.9-0.6s-1-0.5-1.7-0.8
		c-1-0.4-1.7-0.8-2.2-1.2s-0.8-0.8-1-1.2s-0.3-1-0.3-1.7c0-1.2,0.5-2.1,1.4-2.7s2.2-1,3.8-1c1.6,0,3.1,0.3,4.6,1L96.8,56
		c-0.7-0.3-1.3-0.5-1.8-0.7S93.8,55,93.2,55c-1.1,0-1.6,0.3-1.6,0.9c0,0.3,0.2,0.6,0.5,0.8s1.1,0.6,2.2,1c1,0.4,1.8,0.8,2.3,1.2
		s0.8,0.8,1.1,1.2S98,61.2,98,61.8z"/>
	<path class="st1" d="M98.9,52.6h3.9l2.5,7.4c0.2,0.6,0.4,1.4,0.4,2.3h0.1c0.1-0.8,0.3-1.6,0.5-2.3l2.4-7.4h3.8L107,67.4
		c-0.5,1.4-1.2,2.4-2.2,3.1s-2,1-3.3,1c-0.6,0-1.2-0.1-1.8-0.2v-2.8c0.4,0.1,0.9,0.2,1.4,0.2c0.6,0,1.2-0.2,1.7-0.6s0.8-1,1.1-1.8
		l0.2-0.6L98.9,52.6z"/>
	<path class="st1" d="M35.6,88c0-2.1,0.3-4,0.9-5.8s1.5-3.4,2.6-4.7h2c-1.1,1.5-2,3.2-2.5,5s-0.8,3.7-0.8,5.6c0,1.9,0.3,3.7,0.9,5.5
		s1.4,3.4,2.5,4.9h-2c-1.1-1.3-2-2.9-2.6-4.7S35.6,90,35.6,88z"/>
	<path class="st1" d="M50,81.5c1.7,0,3,0.6,3.9,1.8s1.4,2.8,1.4,4.9c0,2.1-0.5,3.8-1.4,4.9s-2.2,1.7-3.9,1.7c-0.9,0-1.6-0.2-2.3-0.5
		s-1.2-0.8-1.7-1.4h-0.2c-0.2,0.9-0.4,1.5-0.4,1.6h-1.5V76.3H46v4.4c0,0.9,0,1.8-0.1,2.6H46C46.9,82.1,48.2,81.5,50,81.5z
		 M49.6,83.2c-1.3,0-2.2,0.4-2.8,1.1S46,86.3,46,88v0.1c0,1.8,0.3,3,0.9,3.8s1.5,1.1,2.8,1.1c1.2,0,2-0.4,2.6-1.3s0.8-2.1,0.8-3.7
		c0-1.6-0.3-2.8-0.9-3.7S50.8,83.2,49.6,83.2z"/>
	<path class="st1" d="M56.4,81.7h2.3l2.8,7.3c0.6,1.6,0.9,2.8,1.1,3.5h0.1c0.1-0.3,0.2-0.8,0.5-1.6s0.5-1.4,0.6-1.9l2.6-7.3h2.3
		l-5.5,14.6c-0.5,1.4-1.2,2.4-1.9,3.1s-1.7,0.9-2.8,0.9c-0.6,0-1.2-0.1-1.7-0.2v-1.7c0.4,0.1,0.9,0.1,1.4,0.1c0.7,0,1.2-0.2,1.7-0.6
		s0.9-0.9,1.1-1.7l0.7-1.7L56.4,81.7z"/>
	<path class="st1" d="M78.9,81.7v8.3c0,1,0.2,1.8,0.7,2.3s1.2,0.8,2.2,0.8c1.3,0,2.3-0.4,2.9-1.1s0.9-1.9,0.9-3.6v-6.7h2.1v12.9
		h-1.7l-0.3-1.7h-0.1c-0.4,0.6-0.9,1.1-1.6,1.4s-1.5,0.5-2.4,0.5c-1.5,0-2.7-0.4-3.5-1.1s-1.2-1.9-1.2-3.6v-8.4H78.9z"/>
	<path class="st1" d="M100.1,91c0,1.2-0.4,2.1-1.3,2.8s-2.2,1-3.8,1c-1.7,0-3-0.3-4-0.8V92c1.4,0.7,2.8,1,4.1,1
		c1.1,0,1.8-0.2,2.3-0.5s0.7-0.8,0.7-1.4c0-0.5-0.2-0.9-0.7-1.3s-1.3-0.8-2.5-1.2c-1.2-0.5-2.1-0.9-2.6-1.2s-0.9-0.7-1.1-1.1
		s-0.3-0.9-0.3-1.5c0-1.1,0.4-1.9,1.3-2.5s2-0.9,3.5-0.9c1.5,0,2.8,0.3,4.1,0.9L99.1,84c-1.3-0.5-2.5-0.8-3.5-0.8
		c-0.9,0-1.5,0.1-2,0.4s-0.7,0.7-0.7,1.1c0,0.5,0.2,0.9,0.6,1.2s1.3,0.7,2.7,1.3c1.1,0.4,1.9,0.8,2.4,1.1s0.9,0.7,1.1,1.2
		S100.1,90.4,100.1,91z"/>
	<path class="st1" d="M103.1,78.2c0-0.5,0.1-0.8,0.4-1s0.5-0.3,0.9-0.3c0.3,0,0.6,0.1,0.9,0.3s0.4,0.6,0.4,1c0,0.5-0.1,0.8-0.4,1
		s-0.5,0.3-0.9,0.3c-0.4,0-0.6-0.1-0.9-0.3S103.1,78.6,103.1,78.2z M105.3,94.5h-2.1V81.7h2.1V94.5z"/>
	<path class="st1" d="M118.2,94.5v-8.2c0-1-0.2-1.8-0.7-2.3s-1.2-0.8-2.2-0.8c-1.3,0-2.3,0.4-2.9,1.1s-0.9,1.9-0.9,3.6v6.7h-2.1
		V81.7h1.7l0.3,1.8h0.1c0.4-0.6,1-1.1,1.7-1.5s1.5-0.5,2.4-0.5c1.6,0,2.8,0.4,3.5,1.1s1.1,2,1.1,3.6v8.4H118.2z"/>
	<path class="st1" d="M132.8,94.4l0.1-1.6h-0.1c-0.9,1.3-2.2,1.9-4,1.9c-1.7,0-3-0.6-3.9-1.7s-1.4-2.8-1.4-4.9
		c0-2.1,0.5-3.7,1.4-4.9s2.2-1.8,3.9-1.8c1.7,0,3.1,0.6,4,1.9h0.1l0.3-1.7h1.7v13.1c0,1.8-0.5,3.2-1.4,4.2s-2.4,1.4-4.4,1.4
		c-1.9,0-3.4-0.3-4.6-0.8v-1.9c1.3,0.7,2.8,1,4.7,1c1.1,0,2-0.3,2.6-1s1-1.5,1-2.7V94.4z M129.2,93c1.3,0,2.2-0.3,2.8-1
		s0.9-1.8,0.9-3.4v-0.5c0-1.7-0.3-3-0.9-3.8s-1.6-1.2-2.9-1.2c-1.1,0-1.9,0.4-2.5,1.3s-0.9,2.1-0.9,3.7c0,1.6,0.3,2.8,0.9,3.6
		S128,93,129.2,93z"/>
	<path class="st1" d="M9.2,119.8c0,1.2-0.4,2.1-1.3,2.8s-2.2,1-3.8,1c-1.7,0-3-0.3-4-0.8v-1.9c1.4,0.7,2.8,1,4.1,1
		c1.1,0,1.8-0.2,2.3-0.5s0.7-0.8,0.7-1.4c0-0.5-0.2-0.9-0.7-1.3s-1.3-0.8-2.5-1.2c-1.2-0.5-2.1-0.9-2.6-1.2s-0.9-0.7-1.1-1.1
		S0,114.2,0,113.6c0-1.1,0.4-1.9,1.3-2.5s2-0.9,3.5-0.9c1.5,0,2.8,0.3,4.1,0.9l-0.7,1.7c-1.3-0.5-2.5-0.8-3.5-0.8
		c-0.9,0-1.5,0.1-2,0.4S2,113,2,113.5c0,0.5,0.2,0.9,0.6,1.2s1.3,0.7,2.7,1.3c1.1,0.4,1.9,0.8,2.4,1.1s0.9,0.7,1.1,1.2
		S9.2,119.2,9.2,119.8z"/>
	<path class="st1" d="M21.1,123.3v-8.2c0-1-0.2-1.8-0.7-2.3s-1.2-0.8-2.2-0.8c-1.3,0-2.3,0.4-2.9,1.1s-0.9,1.9-0.9,3.6v6.6h-2.1
		v-18.2h2.1v5.3c0,0.7,0,1.3-0.1,1.8h0.1c0.4-0.6,0.9-1.1,1.6-1.5s1.5-0.5,2.4-0.5c1.6,0,2.7,0.4,3.5,1.1s1.2,1.9,1.2,3.6v8.4H21.1z
		"/>
	<path class="st1" d="M38.3,116.9c0,2.1-0.5,3.7-1.6,4.9s-2.5,1.8-4.4,1.8c-1.2,0-2.2-0.3-3.1-0.8s-1.6-1.3-2.1-2.3
		s-0.7-2.2-0.7-3.5c0-2.1,0.5-3.7,1.6-4.9s2.5-1.8,4.4-1.8c1.8,0,3.3,0.6,4.3,1.8S38.3,114.8,38.3,116.9z M28.6,116.9
		c0,1.6,0.3,2.8,1,3.7s1.6,1.3,2.8,1.3c1.2,0,2.2-0.4,2.8-1.3s1-2.1,1-3.7s-0.3-2.8-1-3.7s-1.6-1.2-2.8-1.2
		C29.9,112,28.6,113.6,28.6,116.9z"/>
	<path class="st1" d="M47.8,123.6c-1.7,0-3.1-0.6-4-1.9h-0.1l0,0.5c0.1,0.6,0.1,1.2,0.1,1.6v5.3h-2.1v-18.6h1.7l0.3,1.8h0.1
		c0.5-0.7,1.1-1.2,1.7-1.5s1.4-0.5,2.3-0.5c1.7,0,3,0.6,3.9,1.7s1.4,2.8,1.4,4.9c0,2.1-0.5,3.7-1.4,4.9S49.4,123.6,47.8,123.6z
		 M47.4,112c-1.3,0-2.2,0.4-2.8,1.1s-0.9,1.8-0.9,3.4v0.4c0,1.7,0.3,3,0.9,3.8s1.5,1.2,2.8,1.2c1.1,0,1.9-0.4,2.5-1.3
		s0.9-2.1,0.9-3.7c0-1.6-0.3-2.8-0.9-3.6S48.5,112,47.4,112z"/>
	<path class="st1" d="M62.5,123.6c-1.7,0-3.1-0.6-4-1.9h-0.1l0,0.5c0.1,0.6,0.1,1.2,0.1,1.6v5.3h-2.1v-18.6h1.7l0.3,1.8h0.1
		c0.5-0.7,1.1-1.2,1.7-1.5s1.4-0.5,2.3-0.5c1.7,0,3,0.6,3.9,1.7s1.4,2.8,1.4,4.9c0,2.1-0.5,3.7-1.4,4.9S64.2,123.6,62.5,123.6z
		 M62.2,112c-1.3,0-2.2,0.4-2.8,1.1s-0.9,1.8-0.9,3.4v0.4c0,1.7,0.3,3,0.9,3.8s1.5,1.2,2.8,1.2c1.1,0,1.9-0.4,2.5-1.3
		s0.9-2.1,0.9-3.7c0-1.6-0.3-2.8-0.9-3.6S63.3,112,62.2,112z"/>
	<path class="st1" d="M71,107c0-0.5,0.1-0.8,0.4-1s0.5-0.3,0.9-0.3c0.3,0,0.6,0.1,0.9,0.3s0.4,0.6,0.4,1c0,0.5-0.1,0.8-0.4,1
		s-0.5,0.3-0.9,0.3c-0.4,0-0.6-0.1-0.9-0.3S71,107.4,71,107z M73.3,123.3h-2.1v-12.9h2.1V123.3z"/>
	<path class="st1" d="M86.2,123.3v-8.2c0-1-0.2-1.8-0.7-2.3s-1.2-0.8-2.2-0.8c-1.3,0-2.3,0.4-2.9,1.1s-0.9,1.9-0.9,3.6v6.7h-2.1
		v-12.9h1.7l0.3,1.8h0.1c0.4-0.6,1-1.1,1.7-1.5s1.5-0.5,2.4-0.5c1.6,0,2.8,0.4,3.5,1.1s1.1,2,1.1,3.6v8.4H86.2z"/>
	<path class="st1" d="M100.8,123.2l0.1-1.6h-0.1c-0.9,1.3-2.2,1.9-4,1.9c-1.7,0-3-0.6-3.9-1.7s-1.4-2.8-1.4-4.9
		c0-2.1,0.5-3.7,1.4-4.9s2.2-1.8,3.9-1.8c1.7,0,3.1,0.6,4,1.9h0.1l0.3-1.7h1.7v13.1c0,1.8-0.5,3.2-1.4,4.2s-2.4,1.4-4.4,1.4
		c-1.9,0-3.4-0.3-4.6-0.8v-1.9c1.3,0.7,2.8,1,4.7,1c1.1,0,2-0.3,2.6-1s1-1.5,1-2.7V123.2z M97.1,121.8c1.3,0,2.2-0.3,2.8-1
		s0.9-1.8,0.9-3.4v-0.5c0-1.7-0.3-3-0.9-3.8s-1.6-1.2-2.9-1.2c-1.1,0-1.9,0.4-2.5,1.3s-0.9,2.1-0.9,3.7c0,1.6,0.3,2.8,0.9,3.6
		S96,121.8,97.1,121.8z"/>
	<path class="st1" d="M121.2,123.3l-0.4-1.8h-0.1c-0.6,0.8-1.3,1.3-1.9,1.6s-1.4,0.4-2.4,0.4c-1.3,0-2.3-0.3-3-1s-1.1-1.6-1.1-2.8
		c0-2.6,2.1-4,6.2-4.1l2.2-0.1v-0.8c0-1-0.2-1.7-0.6-2.2s-1.1-0.7-2-0.7c-0.7,0-1.3,0.1-1.9,0.3s-1.2,0.4-1.7,0.7l-0.6-1.6
		c0.6-0.3,1.4-0.6,2.1-0.8s1.5-0.3,2.3-0.3c1.6,0,2.7,0.3,3.5,1s1.1,1.8,1.1,3.3v8.8H121.2z M116.8,121.9c1.2,0,2.1-0.3,2.8-1
		s1-1.5,1-2.7V117l-1.9,0.1c-1.5,0.1-2.6,0.3-3.2,0.7s-1,1.1-1,2c0,0.7,0.2,1.2,0.6,1.5S116.1,121.9,116.8,121.9z"/>
	<path class="st1" d="M132.8,123.6c-1.7,0-3.1-0.6-4-1.9h-0.1l0,0.5c0.1,0.6,0.1,1.2,0.1,1.6v5.3h-2.1v-18.6h1.7l0.3,1.8h0.1
		c0.5-0.7,1.1-1.2,1.7-1.5s1.4-0.5,2.3-0.5c1.7,0,3,0.6,3.9,1.7s1.4,2.8,1.4,4.9c0,2.1-0.5,3.7-1.4,4.9S134.5,123.6,132.8,123.6z
		 M132.4,112c-1.3,0-2.2,0.4-2.8,1.1s-0.9,1.8-0.9,3.4v0.4c0,1.7,0.3,3,0.9,3.8s1.5,1.2,2.8,1.2c1.1,0,1.9-0.4,2.5-1.3
		s0.9-2.1,0.9-3.7c0-1.6-0.3-2.8-0.9-3.6S133.5,112,132.4,112z"/>
	<path class="st1" d="M147.6,123.6c-1.7,0-3.1-0.6-4-1.9h-0.1l0,0.5c0.1,0.6,0.1,1.2,0.1,1.6v5.3h-2.1v-18.6h1.7l0.3,1.8h0.1
		c0.5-0.7,1.1-1.2,1.7-1.5s1.4-0.5,2.3-0.5c1.7,0,3,0.6,3.9,1.7s1.4,2.8,1.4,4.9c0,2.1-0.5,3.7-1.4,4.9S149.2,123.6,147.6,123.6z
		 M147.2,112c-1.3,0-2.2,0.4-2.8,1.1s-0.9,1.8-0.9,3.4v0.4c0,1.7,0.3,3,0.9,3.8s1.5,1.2,2.8,1.2c1.1,0,1.9-0.4,2.5-1.3
		s0.9-2.1,0.9-3.7c0-1.6-0.3-2.8-0.9-3.6S148.3,112,147.2,112z"/>
	<path class="st1" d="M164.6,119.8c0,1.2-0.4,2.1-1.3,2.8s-2.2,1-3.8,1c-1.7,0-3-0.3-4-0.8v-1.9c1.4,0.7,2.8,1,4.1,1
		c1.1,0,1.8-0.2,2.3-0.5s0.7-0.8,0.7-1.4c0-0.5-0.2-0.9-0.7-1.3s-1.3-0.8-2.5-1.2c-1.2-0.5-2.1-0.9-2.6-1.2s-0.9-0.7-1.1-1.1
		s-0.3-0.9-0.3-1.5c0-1.1,0.4-1.9,1.3-2.5s2-0.9,3.5-0.9c1.5,0,2.8,0.3,4.1,0.9l-0.7,1.7c-1.3-0.5-2.5-0.8-3.5-0.8
		c-0.9,0-1.5,0.1-2,0.4s-0.7,0.7-0.7,1.1c0,0.5,0.2,0.9,0.6,1.2s1.3,0.7,2.7,1.3c1.1,0.4,1.9,0.8,2.4,1.1s0.9,0.7,1.1,1.2
		S164.6,119.2,164.6,119.8z"/>
	<path class="st1" d="M171.9,116.8c0,2.1-0.3,4-0.9,5.7s-1.5,3.3-2.6,4.6h-2c1.1-1.5,1.9-3.1,2.5-4.9s0.9-3.6,0.9-5.5
		c0-1.9-0.3-3.8-0.8-5.6s-1.4-3.5-2.5-5h2c1.1,1.4,2,3,2.6,4.8S171.9,114.7,171.9,116.8z"/>
</g>
</svg>