<?xml version="1.0" encoding="utf-8"?>
<!-- Generator: Adobe Illustrator 19.0.0, SVG Export Plug-In . SVG Version: 6.00 Build 0)  -->
<svg version="1.1" id="Layer_1" xmlns="http://www.w3.org/2000/svg" xmlns:xlink="http://www.w3.org/1999/xlink" x="0px" y="0px"
	 viewBox="0 0 291 90" style="enable-background:new 0 0 291 90;" xml:space="preserve">
<style type="text/css">
	.st0{fill:#0C6B88;}
	.st1{fill:#FFFFFF;}
	.st2{fill:#F2673A;}
	.st3{fill:none;stroke:#FFFFFF;stroke-miterlimit:10;stroke-dasharray:3.132;}
</style>
<rect id="XMLID_100_" x="-451.4" y="210.6" class="st0" width="1202" height="632"/>
<circle id="XMLID_3_" class="st0" cx="12.9" cy="563.2" r="4.3"/>
<g id="XMLID_31_">
	<g id="XMLID_4_">
		<path id="XMLID_98_" class="st1" d="M-166.3,495.3h-17.9v-69.6h-22.9v-14.9h63.8v14.9h-22.9V495.3z"/>
		<path id="XMLID_96_" class="st1" d="M-72.1,495.3h-17.6v-37.7c0-9.3-3.5-14-10.4-14c-4.9,0-8.5,1.7-10.7,5
			c-2.2,3.4-3.3,8.8-3.3,16.3v30.4h-17.6v-89.9h17.6v18.3c0,1.4-0.1,4.8-0.4,10.1l-0.4,5.2h0.9c3.9-6.3,10.2-9.5,18.7-9.5
			c7.6,0,13.4,2,17.3,6.1c3.9,4.1,5.9,9.9,5.9,17.6V495.3z"/>
		<path id="XMLID_93_" class="st1" d="M-24.7,496.4c-10.4,0-18.5-2.9-24.4-8.6c-5.9-5.7-8.8-13.9-8.8-24.4c0-10.8,2.7-19.2,8.1-25.1
			c5.4-5.9,12.9-8.9,22.5-8.9c9.1,0,16.2,2.6,21.3,7.8s7.6,12.4,7.6,21.6v8.6H-40c0.2,5,1.7,8.9,4.5,11.7c2.8,2.8,6.7,4.2,11.7,4.2
			c3.9,0,7.6-0.4,11-1.2c3.5-0.8,7.1-2.1,10.9-3.9v13.6c-3.1,1.5-6.4,2.7-9.9,3.4C-15.3,496-19.6,496.4-24.7,496.4z M-27.2,442
			c-3.7,0-6.7,1.2-8.8,3.6c-2.1,2.4-3.3,5.7-3.6,10.1h24.7c-0.1-4.4-1.2-7.7-3.4-10.1C-20.4,443.1-23.4,442-27.2,442z"/>
		<path id="XMLID_91_" class="st1" d="M117.4,495.3H99.6v-36.5H66.1v36.5H48.2v-84.5h17.9v33.1h33.5v-33.1h17.9V495.3z"/>
		<path id="XMLID_88_" class="st1" d="M136.6,413.9c0-5.7,3.2-8.6,9.6-8.6c6.4,0,9.6,2.9,9.6,8.6c0,2.7-0.8,4.9-2.4,6.4
			c-1.6,1.5-4,2.3-7.2,2.3C139.8,422.6,136.6,419.7,136.6,413.9z M155,495.3h-17.6v-64.6H155V495.3z"/>
		<path id="XMLID_86_" class="st1" d="M218.6,476.1c0,6.6-2.3,11.7-6.9,15.1c-4.6,3.5-11.5,5.2-20.7,5.2c-4.7,0-8.7-0.3-12-1
			c-3.3-0.6-6.4-1.6-9.3-2.8v-14.6c3.3,1.5,7,2.8,11.1,3.9c4.1,1,7.7,1.6,10.8,1.6c6.4,0,9.6-1.8,9.6-5.5c0-1.4-0.4-2.5-1.3-3.4
			c-0.8-0.9-2.3-1.8-4.4-2.9c-2.1-1.1-4.9-2.4-8.3-3.8c-5-2.1-8.6-4-11-5.8c-2.3-1.8-4-3.8-5.1-6.1c-1.1-2.3-1.6-5.1-1.6-8.5
			c0-5.7,2.2-10.2,6.7-13.3c4.5-3.1,10.8-4.7,18.9-4.7c7.8,0,15.4,1.7,22.7,5.1l-5.3,12.7c-3.2-1.4-6.3-2.5-9.1-3.4
			c-2.8-0.9-5.7-1.3-8.6-1.3c-5.2,0-7.8,1.4-7.8,4.2c0,1.6,0.8,2.9,2.5,4.1c1.7,1.2,5.3,2.9,11,5.1c5,2,8.7,4,11.1,5.7
			c2.3,1.8,4.1,3.8,5.2,6.1C218,470.1,218.6,472.9,218.6,476.1z"/>
		<path id="XMLID_84_" class="st1" d="M259.6,482.4c3.1,0,6.8-0.7,11.1-2v13.1c-4.4,2-9.8,2.9-16.2,2.9c-7.1,0-12.2-1.8-15.4-5.3
			c-3.2-3.6-4.8-8.9-4.8-16v-31.2h-8.4v-7.5l9.7-5.9l5.1-13.6h11.3v13.8H270v13.2h-18.1V475c0,2.5,0.7,4.4,2.1,5.5
			C255.4,481.8,257.2,482.4,259.6,482.4z"/>
		<path id="XMLID_81_" class="st1" d="M342.4,462.8c0,10.5-2.8,18.7-8.3,24.7c-5.5,5.9-13.3,8.9-23.2,8.9c-6.2,0-11.7-1.4-16.4-4.1
			c-4.7-2.7-8.4-6.6-10.9-11.7c-2.5-5.1-3.8-11-3.8-17.8c0-10.6,2.8-18.8,8.3-24.6c5.5-5.9,13.3-8.8,23.2-8.8c6.2,0,11.7,1.3,16.4,4
			c4.7,2.7,8.4,6.6,10.9,11.6C341.2,450.1,342.4,456,342.4,462.8z M297.8,462.8c0,6.4,1.1,11.2,3.2,14.5c2.1,3.3,5.5,4.9,10.3,4.9
			c4.7,0,8.1-1.6,10.1-4.9c2.1-3.3,3.1-8.1,3.1-14.5c0-6.4-1-11.2-3.1-14.4c-2.1-3.2-5.5-4.8-10.2-4.8c-4.7,0-8.1,1.6-10.2,4.8
			C298.8,451.6,297.8,456.4,297.8,462.8z"/>
		<path id="XMLID_79_" class="st1" d="M393.1,429.4c2.4,0,4.4,0.2,6,0.5l-1.3,16.5c-1.4-0.4-3.2-0.6-5.2-0.6c-5.6,0-10,1.4-13.1,4.3
			c-3.1,2.9-4.7,6.9-4.7,12.1v32.9H357v-64.6h13.4l2.6,10.9h0.9c2-3.6,4.7-6.5,8.1-8.8C385.4,430.5,389.1,429.4,393.1,429.4z"/>
		<path id="XMLID_77_" class="st1" d="M401.5,430.6h19.3L433,467c1,3.2,1.8,6.9,2.1,11.2h0.3c0.4-4,1.3-7.7,2.5-11.2l12-36.4h18.9
			l-27.3,72.9c-2.5,6.7-6.1,11.8-10.7,15.1c-4.6,3.4-10.1,5-16.3,5c-3,0-6-0.3-9-1v-14c2.1,0.5,4.4,0.8,6.9,0.8c3.1,0,5.8-1,8.2-2.9
			c2.3-1.9,4.2-4.8,5.5-8.6l1-3.2L401.5,430.6z"/>
		<path id="XMLID_74_" class="st1" d="M-141.5,581.6c0,10.5-2.8,18.7-8.3,24.7c-5.5,5.9-13.3,8.9-23.2,8.9c-6.2,0-11.7-1.4-16.4-4.1
			c-4.7-2.7-8.4-6.6-10.9-11.7c-2.5-5.1-3.8-11-3.8-17.8c0-10.6,2.8-18.8,8.3-24.6c5.5-5.9,13.3-8.8,23.2-8.8c6.2,0,11.7,1.3,16.4,4
			c4.7,2.7,8.4,6.6,10.9,11.6C-142.8,568.9-141.5,574.8-141.5,581.6z M-186.2,581.6c0,6.4,1.1,11.2,3.2,14.5
			c2.1,3.3,5.5,4.9,10.3,4.9c4.7,0,8.1-1.6,10.1-4.9c2.1-3.3,3.1-8.1,3.1-14.5c0-6.4-1-11.2-3.1-14.4c-2.1-3.2-5.5-4.8-10.2-4.8
			c-4.7,0-8.1,1.6-10.2,4.8C-185.2,570.3-186.2,575.1-186.2,581.6z"/>
		<path id="XMLID_22_" class="st1" d="M-91.3,562.6h-15.3V614h-17.6v-51.4h-9.7v-8.5l9.7-4.7v-4.7c0-7.4,1.8-12.7,5.4-16.1
			s9.4-5.1,17.4-5.1c6.1,0,11.5,0.9,16.2,2.7l-4.5,12.9c-3.5-1.1-6.8-1.7-9.8-1.7c-2.5,0-4.3,0.7-5.4,2.2c-1.1,1.5-1.7,3.4-1.7,5.7
			v4h15.3V562.6z"/>
		<path id="XMLID_20_" class="st2" d="M-13.1,543.2c-6.7,0-12,2.5-15.7,7.6s-5.5,12.1-5.5,21.2c0,18.8,7.1,28.3,21.2,28.3
			c5.9,0,13.1-1.5,21.6-4.5v15c-6.9,2.9-14.7,4.3-23.2,4.3c-12.3,0-21.7-3.7-28.2-11.2c-6.5-7.5-9.8-18.2-9.8-32.1
			c0-8.8,1.6-16.5,4.8-23.1c3.2-6.6,7.8-11.7,13.8-15.2c6-3.5,13-5.3,21.1-5.3c8.2,0,16.5,2,24.7,6l-5.8,14.6
			c-3.2-1.5-6.3-2.8-9.5-3.9C-6.9,543.7-10,543.2-13.1,543.2z"/>
		<path id="XMLID_18_" class="st2" d="M83.8,581.6c0,10.5-2.8,18.7-8.3,24.7c-5.5,5.9-13.3,8.9-23.2,8.9c-6.2,0-11.7-1.4-16.4-4.1
			c-4.7-2.7-8.4-6.6-10.9-11.7s-3.8-11-3.8-17.8c0-10.6,2.8-18.8,8.3-24.6c5.5-5.9,13.3-8.8,23.2-8.8c6.2,0,11.7,1.3,16.4,4
			c4.7,2.7,8.4,6.6,10.9,11.6C82.5,568.9,83.8,574.8,83.8,581.6z M39.1,581.6c0,6.4,1.1,11.2,3.2,14.5c2.1,3.3,5.5,4.9,10.3,4.9
			c4.7,0,8.1-1.6,10.1-4.9c2.1-3.3,3.1-8.1,3.1-14.5c0-6.4-1-11.2-3.1-14.4c-2.1-3.2-5.5-4.8-10.2-4.8c-4.7,0-8.1,1.6-10.2,4.8
			C40.1,570.3,39.1,575.1,39.1,581.6z"/>
		<path id="XMLID_15_" class="st2" d="M144.1,614l-2.4-8.3h-0.9c-1.9,3-4.6,5.3-8,7c-3.5,1.6-7.4,2.5-11.9,2.5
			c-7.6,0-13.3-2-17.2-6.1c-3.9-4.1-5.8-9.9-5.8-17.5v-42.1h17.6v37.7c0,4.7,0.8,8.2,2.5,10.5c1.7,2.3,4.3,3.5,7.9,3.5
			c4.9,0,8.5-1.6,10.7-4.9c2.2-3.3,3.3-8.8,3.3-16.4v-30.4h17.6V614H144.1z"/>
		<path id="XMLID_62_" class="st2" d="M211.6,615.1c-7.6,0-13.5-2.8-17.9-8.3h-0.9c0.6,5.4,0.9,8.5,0.9,9.4v26.2h-17.6v-93.1h14.3
			l2.5,8.4h0.8c4.1-6.4,10.2-9.6,18.3-9.6c7.6,0,13.6,2.9,17.9,8.8c4.3,5.9,6.5,14.1,6.5,24.6c0,6.9-1,12.9-3,18
			c-2,5.1-4.9,9-8.6,11.6C221.1,613.8,216.7,615.1,211.6,615.1z M206.4,562.3c-4.4,0-7.5,1.3-9.5,4c-2,2.7-3,7.1-3.1,13.3v1.9
			c0,6.9,1,11.9,3.1,14.9c2.1,3,5.3,4.5,9.8,4.5c7.9,0,11.9-6.5,11.9-19.5c0-6.4-1-11.1-2.9-14.3
			C213.6,563.8,210.6,562.3,206.4,562.3z"/>
		<path id="XMLID_11_" class="st2" d="M309.8,581.6c0,10.5-2.8,18.7-8.3,24.7c-5.5,5.9-13.3,8.9-23.2,8.9c-6.2,0-11.7-1.4-16.4-4.1
			c-4.7-2.7-8.4-6.6-10.9-11.7c-2.5-5.1-3.8-11-3.8-17.8c0-10.6,2.8-18.8,8.3-24.6c5.5-5.9,13.3-8.8,23.2-8.8c6.2,0,11.7,1.3,16.4,4
			c4.7,2.7,8.4,6.6,10.9,11.6C308.5,568.9,309.8,574.8,309.8,581.6z M265.1,581.6c0,6.4,1.1,11.2,3.2,14.5c2.1,3.3,5.5,4.9,10.3,4.9
			c4.7,0,8.1-1.6,10.1-4.9c2.1-3.3,3.1-8.1,3.1-14.5c0-6.4-1-11.2-3.1-14.4c-2.1-3.2-5.5-4.8-10.2-4.8c-4.7,0-8.1,1.6-10.2,4.8
			C266.1,570.3,265.1,575.1,265.1,581.6z"/>
		<path id="XMLID_6_" class="st2" d="M384,614h-17.6v-37.7c0-4.7-0.8-8.2-2.5-10.5c-1.7-2.3-4.3-3.5-7.9-3.5
			c-4.9,0-8.5,1.6-10.7,4.9c-2.2,3.3-3.3,8.8-3.3,16.4V614h-17.6v-64.6h13.5l2.4,8.3h1c2-3.1,4.7-5.5,8.1-7.1
			c3.4-1.6,7.4-2.4,11.8-2.4c7.5,0,13.2,2,17.1,6.1c3.9,4.1,5.8,9.9,5.8,17.6V614z"/>
		<path id="XMLID_55_" class="st2" d="M447.2,594.8c0,6.6-2.3,11.7-6.9,15.1c-4.6,3.5-11.5,5.2-20.7,5.2c-4.7,0-8.7-0.3-12-1
			c-3.3-0.6-6.4-1.6-9.3-2.8v-14.6c3.3,1.5,7,2.8,11.1,3.9c4.1,1,7.7,1.6,10.8,1.6c6.4,0,9.6-1.8,9.6-5.5c0-1.4-0.4-2.5-1.3-3.4
			c-0.8-0.9-2.3-1.8-4.4-2.9c-2.1-1.1-4.9-2.4-8.3-3.8c-5-2.1-8.6-4-11-5.8c-2.3-1.8-4-3.8-5.1-6.1c-1.1-2.3-1.6-5.1-1.6-8.5
			c0-5.7,2.2-10.2,6.7-13.3c4.5-3.1,10.8-4.7,18.9-4.7c7.8,0,15.4,1.7,22.7,5.1l-5.3,12.7c-3.2-1.4-6.3-2.5-9.1-3.4
			c-2.8-0.9-5.7-1.3-8.6-1.3c-5.2,0-7.8,1.4-7.8,4.2c0,1.6,0.8,2.9,2.5,4.1c1.7,1.2,5.3,2.9,11,5.1c5,2,8.7,4,11.1,5.7
			c2.3,1.8,4.1,3.8,5.2,6.1C446.7,588.8,447.2,591.6,447.2,594.8z"/>
	</g>
	<rect id="XMLID_2_" x="-287.9" y="362.1" class="st3" width="876" height="330"/>
</g>
<g id="XMLID_45_">
	<path id="XMLID_169_" class="st2" d="M8.2,7.1c0-2.9,2.4-5,5.1-5c2.7,0,5.1,2.1,5.1,5c0,3-2.4,5.1-5.1,5.1
		C10.5,12.2,8.2,10.1,8.2,7.1z"/>
	<rect id="XMLID_168_" x="8.2" y="21.8" class="st0" width="10.2" height="42"/>
	<path id="XMLID_394_" class="st0" d="M120.2,3.2c-2.7,0-5,2.1-5,5c0,3,2.3,5,5,5c2.7,0,5-2,5-5C125.2,5.3,122.9,3.2,120.2,3.2z
		 M115.1,22.8v42h10.2v-42H115.1z"/>
	<g id="XMLID_237_">
		<g id="XMLID_744_">
			<path id="XMLID_820_" class="st0" d="M52.9,80.9l-4.1-7.5h1.9l2.5,4.5c0.3,0.6,0.7,1.6,0.7,1.6s0.3-1,0.7-1.6l2.4-4.5h1.8l-4,7.4
				v3.6h-1.7V80.9z"/>
			<path id="XMLID_817_" class="st0" d="M57.5,81c0-2,1.6-3.5,3.6-3.5c2.1,0,3.6,1.5,3.6,3.5c0,2-1.6,3.5-3.6,3.5
				C59.1,84.5,57.5,83,57.5,81z M63.1,81c0-1.2-0.8-2.1-2-2.1c-1.2,0-2,0.9-2,2.1c0,1.2,0.8,2.1,2,2.1C62.4,83.1,63.1,82.3,63.1,81z
				"/>
			<path id="XMLID_815_" class="st0" d="M66.5,81.7v-4h1.6v3.9c0,1,0.4,1.5,1.4,1.5c1.1,0,1.7-0.7,1.7-1.8v-3.7h1.6v6.8h-1.6l0-1.2
				C70.8,84,70,84.5,69,84.5C67.5,84.5,66.5,83.5,66.5,81.7z"/>
			<path id="XMLID_813_" class="st0" d="M74.9,77.7h1.6l0,1.3c0.4-1.1,1.2-1.4,2-1.4c0.5,0,0.8,0.1,1.1,0.3L79,79.3
				c-0.3-0.1-0.5-0.2-0.9-0.2c-1,0-1.6,0.6-1.6,2.1v3.3h-1.6V77.7z"/>
			<path id="XMLID_810_" class="st0" d="M84.2,81c0-2,1.6-3.5,3.6-3.5c2.1,0,3.6,1.5,3.6,3.5c0,2-1.6,3.5-3.6,3.5
				C85.8,84.5,84.2,83,84.2,81z M89.8,81c0-1.2-0.8-2.1-2-2.1c-1.2,0-2,0.9-2,2.1c0,1.2,0.8,2.1,2,2.1C89.1,83.1,89.8,82.3,89.8,81z
				"/>
			<path id="XMLID_808_" class="st0" d="M93.2,77.7h1.6l0,1.3c0.4-0.9,1.3-1.4,2.3-1.4c1.5,0,2.5,1.1,2.5,2.9v4H98v-3.9
				c0-1-0.5-1.5-1.4-1.5c-1.1,0-1.8,0.6-1.8,1.7v3.7h-1.6V77.7z"/>
			<path id="XMLID_805_" class="st0" d="M105.1,83.2c0.9,0,1.5-0.4,1.9-0.7l0.9,1c-0.6,0.6-1.5,1.1-2.8,1.1c-2.3,0-3.8-1.5-3.8-3.5
				c0-2,1.6-3.5,3.6-3.5c2.3,0,3.6,1.7,3.5,4.1h-5.4C103.1,82.6,103.8,83.2,105.1,83.2z M106.7,80.4c-0.1-0.9-0.7-1.6-1.8-1.6
				c-1,0-1.8,0.6-2,1.6H106.7z"/>
			<path id="XMLID_803_" class="st0" d="M113.1,83.1l1.1-0.8c0.4,0.6,1,0.9,1.8,0.9c0.8,0,1.2-0.3,1.2-0.7c0-0.5-0.5-0.6-1.6-0.9
				c-1-0.3-2-0.7-2-2.1c0-1.3,1.1-2,2.4-2c1.1,0,1.8,0.4,2.3,1l-0.9,0.9c-0.3-0.4-0.8-0.7-1.4-0.7c-0.6,0-0.9,0.2-0.9,0.6
				c0,0.5,0.4,0.6,1.5,0.9c1.1,0.3,2.2,0.7,2.2,2.1c0,1.2-0.7,2.1-2.6,2.1C114.6,84.5,113.6,83.9,113.1,83.1z"/>
			<path id="XMLID_801_" class="st0" d="M120.7,82.1V79h-1v-1.4h1v-3.5h1.6v3.5h1.8V79h-1.8v3.1c0,0.8,0.3,1,0.7,1
				c0.4,0,0.6-0.2,0.8-0.3l0.8,1.1c-0.3,0.3-0.9,0.6-1.7,0.6C121.6,84.6,120.7,83.9,120.7,82.1z"/>
			<path id="XMLID_798_" class="st0" d="M125.5,81c0-2,1.6-3.5,3.6-3.5c2.1,0,3.6,1.5,3.6,3.5c0,2-1.6,3.5-3.6,3.5
				C127.1,84.5,125.5,83,125.5,81z M131.1,81c0-1.2-0.8-2.1-2-2.1c-1.2,0-2,0.9-2,2.1c0,1.2,0.8,2.1,2,2.1
				C130.4,83.1,131.1,82.3,131.1,81z"/>
			<path id="XMLID_795_" class="st0" d="M134.5,77.7h1.6l0,1.3c0.4-0.8,1.2-1.4,2.4-1.4c1.7,0,3.1,1.5,3.1,3.5c0,2-1.4,3.5-3.2,3.5
				c-1.1,0-1.9-0.5-2.3-1.3v4.6h-1.6V77.7z M140,81c0-1.2-0.7-2.1-1.9-2.1c-1.2,0-2,0.8-2,2.1c0,1.3,0.8,2.1,2,2.1
				C139.2,83.1,140,82.3,140,81z"/>
			<path id="XMLID_793_" class="st0" d="M146.4,83.1l1.1-0.8c0.4,0.6,1,0.9,1.8,0.9c0.8,0,1.2-0.3,1.2-0.7c0-0.5-0.5-0.6-1.6-0.9
				c-1-0.3-2-0.7-2-2.1c0-1.3,1.1-2,2.4-2c1.1,0,1.8,0.4,2.3,1l-0.9,0.9c-0.3-0.4-0.8-0.7-1.4-0.7c-0.6,0-0.9,0.2-0.9,0.6
				c0,0.5,0.4,0.6,1.5,0.9c1.1,0.3,2.2,0.7,2.2,2.1c0,1.2-0.7,2.1-2.6,2.1C147.9,84.5,146.9,83.9,146.4,83.1z"/>
			<path id="XMLID_791_" class="st0" d="M153.7,72.8h1.6v6c0.4-0.8,1.2-1.3,2.3-1.3c1.5,0,2.5,1.1,2.5,2.9v4h-1.6v-3.9
				c0-1-0.4-1.5-1.4-1.5c-1.1,0-1.8,0.6-1.8,1.7v3.7h-1.6V72.8z"/>
			<path id="XMLID_788_" class="st0" d="M161.8,81c0-2,1.6-3.5,3.6-3.5c2.1,0,3.6,1.5,3.6,3.5c0,2-1.6,3.5-3.6,3.5
				C163.4,84.5,161.8,83,161.8,81z M167.4,81c0-1.2-0.8-2.1-2-2.1c-1.2,0-2,0.9-2,2.1c0,1.2,0.8,2.1,2,2.1
				C166.6,83.1,167.4,82.3,167.4,81z"/>
			<path id="XMLID_785_" class="st0" d="M170.8,77.7h1.6l0,1.3c0.4-0.8,1.2-1.4,2.4-1.4c1.7,0,3.1,1.5,3.1,3.5c0,2-1.4,3.5-3.2,3.5
				c-1.1,0-1.9-0.5-2.3-1.3v4.6h-1.6V77.7z M176.2,81c0-1.2-0.7-2.1-1.9-2.1c-1.2,0-2,0.8-2,2.1c0,1.3,0.8,2.1,2,2.1
				C175.5,83.1,176.2,82.3,176.2,81z"/>
			<path id="XMLID_782_" class="st0" d="M179.6,77.7h1.6l0,1.3c0.4-0.8,1.2-1.4,2.4-1.4c1.7,0,3.1,1.5,3.1,3.5c0,2-1.4,3.5-3.2,3.5
				c-1.1,0-1.9-0.5-2.3-1.3v4.6h-1.6V77.7z M185.1,81c0-1.2-0.7-2.1-1.9-2.1c-1.2,0-2,0.8-2,2.1c0,1.3,0.8,2.1,2,2.1
				C184.3,83.1,185.1,82.3,185.1,81z"/>
			<path id="XMLID_779_" class="st0" d="M188.3,75c0-0.6,0.5-1.1,1.1-1.1c0.6,0,1.1,0.5,1.1,1.1c0,0.6-0.5,1.1-1.1,1.1
				C188.7,76.1,188.3,75.7,188.3,75z M188.5,77.7h1.6v6.8h-1.6V77.7z"/>
			<path id="XMLID_777_" class="st0" d="M192.3,77.7h1.6l0,1.3c0.4-0.9,1.3-1.4,2.3-1.4c1.5,0,2.5,1.1,2.5,2.9v4H197v-3.9
				c0-1-0.5-1.5-1.4-1.5c-1.1,0-1.8,0.6-1.8,1.7v3.7h-1.6V77.7z"/>
			<path id="XMLID_773_" class="st0" d="M206.9,77.7v1.2h-1.2c0.3,0.3,0.4,0.7,0.4,1.1c0,1.4-1.1,2.5-2.7,2.5c-0.5,0-1-0.1-1.4-0.3
				c-0.2,0.1-0.4,0.3-0.4,0.6c0,0.4,0.3,0.5,0.8,0.6l1.7,0.1c1.9,0.1,2.9,0.8,2.9,2.2c0,1.4-1.2,2.4-3.7,2.4c-2.3,0-3.5-0.9-3.5-2.2
				c0-0.8,0.6-1.3,1.4-1.6c-0.6-0.3-0.9-0.7-0.9-1.3c0-0.6,0.3-1,0.9-1.3c-0.4-0.4-0.7-1-0.7-1.6c0-1.4,1.1-2.4,2.8-2.4
				c0.4,0,0.7,0,1,0.1H206.9z M201.4,85.6c0,0.7,0.6,1.2,1.9,1.2c1.4,0,2-0.4,2-1.1c0-0.6-0.3-0.8-1.5-0.9l-1.9-0.1
				C201.6,84.9,201.4,85.2,201.4,85.6z M204.7,79.9c0-0.7-0.5-1.2-1.3-1.2c-0.8,0-1.3,0.5-1.3,1.2c0,0.8,0.5,1.3,1.3,1.3
				C204.2,81.2,204.7,80.7,204.7,79.9z"/>
			<path id="XMLID_770_" class="st0" d="M211.7,81c0-2,1.4-3.5,3.1-3.5c1.2,0,1.9,0.5,2.3,1.3v-6h1.6v11.6h-1.6l0-1.2
				c-0.4,0.8-1.2,1.4-2.4,1.4C213.1,84.5,211.7,83.1,211.7,81z M217.2,81c0-1.2-0.8-2.1-2-2.1c-1.2,0-1.9,0.8-1.9,2.1
				c0,1.3,0.7,2.1,1.9,2.1C216.4,83.1,217.2,82.3,217.2,81z"/>
			<path id="XMLID_767_" class="st0" d="M224.3,83.2c0.9,0,1.5-0.4,1.9-0.7l0.9,1c-0.6,0.6-1.5,1.1-2.8,1.1c-2.3,0-3.8-1.5-3.8-3.5
				c0-2,1.6-3.5,3.6-3.5c2.3,0,3.6,1.7,3.5,4.1h-5.4C222.3,82.6,223.1,83.2,224.3,83.2z M225.9,80.4c-0.1-0.9-0.7-1.6-1.8-1.6
				c-1,0-1.8,0.6-2,1.6H225.9z"/>
			<path id="XMLID_765_" class="st0" d="M228.6,83.1l1.1-0.8c0.4,0.6,1,0.9,1.8,0.9c0.8,0,1.2-0.3,1.2-0.7c0-0.5-0.5-0.6-1.6-0.9
				c-1-0.3-2-0.7-2-2.1c0-1.3,1.1-2,2.4-2c1.1,0,1.8,0.4,2.3,1l-0.9,0.9c-0.3-0.4-0.8-0.7-1.4-0.7c-0.6,0-0.9,0.2-0.9,0.6
				c0,0.5,0.4,0.6,1.5,0.9c1.1,0.3,2.2,0.7,2.2,2.1c0,1.2-0.7,2.1-2.6,2.1C230.1,84.5,229.1,83.9,228.6,83.1z"/>
			<path id="XMLID_763_" class="st0" d="M236.2,82.1V79h-1v-1.4h1v-3.5h1.6v3.5h1.8V79h-1.8v3.1c0,0.8,0.3,1,0.7,1
				c0.4,0,0.6-0.2,0.8-0.3l0.8,1.1c-0.3,0.3-0.9,0.6-1.7,0.6C237,84.6,236.2,83.9,236.2,82.1z"/>
			<path id="XMLID_760_" class="st0" d="M241.1,75c0-0.6,0.5-1.1,1.1-1.1c0.6,0,1.1,0.5,1.1,1.1c0,0.6-0.5,1.1-1.1,1.1
				C241.6,76.1,241.1,75.7,241.1,75z M241.4,77.7h1.6v6.8h-1.6V77.7z"/>
			<path id="XMLID_758_" class="st0" d="M245.1,77.7h1.6l0,1.3c0.4-0.9,1.3-1.4,2.3-1.4c1.5,0,2.5,1.1,2.5,2.9v4h-1.6v-3.9
				c0-1-0.4-1.5-1.4-1.5c-1.1,0-1.8,0.6-1.8,1.7v3.7h-1.6V77.7z"/>
			<path id="XMLID_755_" class="st0" d="M256.2,78.9c-0.9,0-1.4,0.4-1.8,0.8l-0.9-0.9c0.6-0.7,1.4-1.2,2.8-1.2
				c1.6,0,2.8,0.9,2.8,2.9v4h-1.6l0-1c-0.5,0.7-1.1,1.1-2.1,1.1c-1.3,0-2.4-0.6-2.4-2.1c0-1.4,1.1-2,2.7-2h1.8
				C257.6,79.3,257.1,78.9,256.2,78.9z M255.8,81.5c-0.7,0-1.2,0.3-1.2,0.9c0,0.6,0.5,0.9,1.3,0.9c0.9,0,1.6-0.5,1.6-1.2v-0.5H255.8
				z"/>
			<path id="XMLID_753_" class="st0" d="M261.6,82.1V79h-1v-1.4h1v-3.5h1.6v3.5h1.8V79h-1.8v3.1c0,0.8,0.3,1,0.7,1
				c0.4,0,0.6-0.2,0.8-0.3l0.8,1.1c-0.3,0.3-0.9,0.6-1.7,0.6C262.5,84.6,261.6,83.9,261.6,82.1z"/>
			<path id="XMLID_750_" class="st0" d="M266.6,75c0-0.6,0.5-1.1,1.1-1.1c0.6,0,1.1,0.5,1.1,1.1c0,0.6-0.5,1.1-1.1,1.1
				C267.1,76.1,266.6,75.7,266.6,75z M266.8,77.7h1.6v6.8h-1.6V77.7z"/>
			<path id="XMLID_747_" class="st0" d="M270.2,81c0-2,1.6-3.5,3.6-3.5c2.1,0,3.6,1.5,3.6,3.5c0,2-1.6,3.5-3.6,3.5
				C271.8,84.5,270.2,83,270.2,81z M275.8,81c0-1.2-0.8-2.1-2-2.1c-1.2,0-2,0.9-2,2.1c0,1.2,0.8,2.1,2,2.1
				C275.1,83.1,275.8,82.3,275.8,81z"/>
			<path id="XMLID_745_" class="st0" d="M279.2,77.7h1.6l0,1.3c0.4-0.9,1.3-1.4,2.3-1.4c1.5,0,2.5,1.1,2.5,2.9v4H284v-3.9
				c0-1-0.4-1.5-1.4-1.5c-1.1,0-1.8,0.6-1.8,1.7v3.7h-1.6V77.7z"/>
		</g>
	</g>
	<path id="XMLID_229_" class="st0" d="M281,36.7l-4.9-4.9l0,0l-1.7-1.7l-1.6-1.6l-1.7-1.7l-4.6-4.6l-0.3-0.3l-4.9-4.9l-4.9,4.9
		l-20.8,20.8l-4.9,4.9l4.9,4.9l14.7,14.7l4.9,4.9l4.9-4.9L281,46.5l4.9-4.9L281,36.7z M255.3,62.4l-14.7-14.7l20.8-20.8l4.8,4.8
		l0.1,0.1l4.9,4.9l0.1,0.1l4.8,4.8L255.3,62.4z"/>
	<path id="XMLID_227_" class="st2" d="M281,36.7l2.3-2.3l0,0c3.8-4.1,3.7-10.5-0.3-14.5c-4-4-10.4-4.1-14.5-0.3l0,0l-7.2,7.2
		l4.9,4.9l7.2-7.2c1.3-1.3,3.5-1.3,4.9,0c1.3,1.3,1.3,3.5,0,4.9l-2.3,2.3L281,36.7"/>
	<line id="XMLID_60_" class="st1" x1="90" y1="64.3" x2="79.9" y2="64.3"/>
	<path id="XMLID_196_" class="st0" d="M156.1,56.2c-7.1,0-12.8-5.8-12.8-12.9c0-7.1,5.8-12.9,12.8-12.9c4.1,0,7.7,1.9,10.1,4.9
		l7.7-6.1c-4.2-5.2-10.6-8.6-17.8-8.6c-12.5,0-22.7,10.2-22.7,22.7S143.5,66,156.1,66c7,0,13.3-3.2,17.4-8.2l-7.6-6.3
		C163.6,54.4,160,56.2,156.1,56.2z"/>
	<polygon id="XMLID_58_" class="st1" points="38.5,27.8 38.5,27.8 38.5,22.3 38.5,22.7 	"/>
	<path id="XMLID_184_" class="st0" d="M51.3,21.8c-0.2,0-0.3,0-0.5,0c-0.1,0-0.3,0-0.4,0c-3.7,0-6.8,0.9-9.3,2.5
		c-0.9,0.5-1.7,1-2.5,1.5v-3.1l0-0.4H28.3V84h10.2v-5.4V62.1c3.6,2.6,8,4.1,12.8,4.1c12.3,0,22.2-10,22.2-22.2S63.6,21.8,51.3,21.8z
		 M51.3,56.6c-7,0-12.6-5.6-12.6-12.6s5.6-12.6,12.6-12.6S63.9,37,63.9,44S58.3,56.6,51.3,56.6z"/>
	<path id="XMLID_50_" class="st0" d="M104.7,23.1C96.9,21,92.3,24.2,89.8,27v-4.1H79.7v12.8h0v29.2h10.1V45.3
		c0-9.4,4.1-12.9,10.1-12.9c2.3,0,3.9,0.6,5.5,1.4l3.4-9.1C107.7,24,106.3,23.4,104.7,23.1z"/>
	<path id="XMLID_49_" class="st1" d="M189.9,48.5c0,0,0-0.1-0.1-0.1C189.9,48.5,189.9,48.5,189.9,48.5L189.9,48.5z"/>
	<path id="XMLID_48_" class="st1" d="M189.9,48.4C189.9,48.4,189.9,48.4,189.9,48.4C189.9,48.4,189.9,48.4,189.9,48.4L189.9,48.4z"
		/>
	<path id="XMLID_111_" class="st0" d="M223.8,48.4c0.4-1.6,0.6-3.3,0.6-5.1c0-1-0.1-1.9-0.2-2.8c-0.1-0.8-0.2-1.5-0.4-2.2
		c-2.3-10.1-11.3-17.6-22.1-17.6s-19.8,7.5-22.1,17.6c-0.4,1.6-0.6,3.3-0.6,5.1c0,0.3,0,0.5,0,0.8l0,0c0,0.3,0,0.7,0,1
		c0.1,3,0.7,5.8,1.8,8.3c1.2,2.8,2.9,5.2,5,7.2c2.1,2,4.6,3.5,7.5,4.6c2.9,1.1,5.9,1.6,9.2,1.6c3.4,0,6.7-0.7,9.8-2
		c3.1-1.3,5.9-3.5,8.5-6.7l-7.7-5.8c-1.4,1.7-3,3.1-4.8,4.2c-1.8,1.1-4.1,1.7-6.8,1.7c-3.1,0-5.7-0.9-7.8-2.7c-2-1.7-3.2-4-3.7-6.9
		c0,0,0-0.1,0-0.1c0,0,0,0,0,0h0H223.8z M193.3,32.3c1.9-1.9,4.5-2.8,7.7-2.8c3.4,0,6.1,0.9,8,2.7c1.9,1.8,2.9,4.3,3,7.5h-22.1
		C190.2,36.7,191.4,34.2,193.3,32.3z"/>
</g>
</svg>
