<!-- Generator: Adobe Illustrator 19.0.0, SVG Export Plug-In  -->
<svg version="1.1"
	 xmlns="http://www.w3.org/2000/svg" xmlns:xlink="http://www.w3.org/1999/xlink" xmlns:a="http://ns.adobe.com/AdobeSVGViewerExtensions/3.0/"
	 x="0px" y="0px" width="56.8px" height="130.2px" viewBox="0 0 56.8 130.2" style="enable-background:new 0 0 56.8 130.2;"
	 xml:space="preserve">
<style type="text/css">
	.st0{fill:#086A87;}
	.st1{fill:#FF6633;}
	.st2{fill:none;stroke:#086A87;stroke-width:1.5569;stroke-linecap:round;stroke-linejoin:round;stroke-miterlimit:10;}
	.st3{fill:#FFFFFF;stroke:#086A87;stroke-width:1.5569;stroke-linecap:round;stroke-linejoin:round;stroke-miterlimit:10;}
	.st4{fill:none;stroke:#086A87;stroke-width:2;stroke-linecap:round;stroke-linejoin:round;stroke-miterlimit:10;}
</style>
<defs>
</defs>
<g>
	<g>
		<path class="st0" d="M10,99.5H8.2v-7.1H5.9V91h6.5v1.5H10V99.5z"/>
		<path class="st0" d="M16.9,92.8c0.2,0,0.4,0,0.6,0.1l-0.1,1.7c-0.1,0-0.3-0.1-0.5-0.1c-0.6,0-1,0.1-1.3,0.4S15,95.7,15,96.2v3.3
			h-1.8V93h1.4l0.3,1.1H15c0.2-0.4,0.5-0.7,0.8-0.9S16.5,92.8,16.9,92.8z"/>
		<path class="st0" d="M22.7,99.5l-0.3-0.9h0c-0.3,0.4-0.6,0.6-0.9,0.8s-0.7,0.2-1.2,0.2c-0.6,0-1.1-0.2-1.5-0.5s-0.5-0.9-0.5-1.5
			c0-0.7,0.2-1.2,0.7-1.5s1.2-0.5,2.2-0.5l1.1,0v-0.3c0-0.7-0.3-1-1-1c-0.5,0-1.1,0.2-1.8,0.5l-0.6-1.2c0.8-0.4,1.6-0.6,2.5-0.6
			c0.9,0,1.6,0.2,2,0.6s0.7,1,0.7,1.7v4.4H22.7z M22.2,96.5l-0.7,0c-0.5,0-0.9,0.1-1.2,0.3S20,97.2,20,97.6c0,0.5,0.3,0.8,0.9,0.8
			c0.4,0,0.7-0.1,1-0.4s0.4-0.6,0.4-0.9V96.5z"/>
		<path class="st0" d="M27.4,99.5L24.9,93h1.9l1.3,3.7c0.1,0.4,0.2,0.9,0.3,1.3h0c0-0.4,0.1-0.9,0.3-1.3l1.3-3.7h1.9l-2.5,6.6H27.4z
			"/>
		<path class="st0" d="M35.6,99.6c-1.1,0-1.9-0.3-2.5-0.9s-0.9-1.4-0.9-2.5c0-1.1,0.3-1.9,0.8-2.5s1.3-0.9,2.3-0.9
			c0.9,0,1.6,0.3,2.2,0.8s0.8,1.3,0.8,2.2v0.9h-4.2c0,0.5,0.2,0.9,0.5,1.2s0.7,0.4,1.2,0.4c0.4,0,0.8,0,1.1-0.1s0.7-0.2,1.1-0.4v1.4
			c-0.3,0.2-0.6,0.3-1,0.3S36.1,99.6,35.6,99.6z M35.4,94.1c-0.4,0-0.7,0.1-0.9,0.4s-0.3,0.6-0.4,1h2.5c0-0.4-0.1-0.8-0.3-1
			S35.7,94.1,35.4,94.1z"/>
		<path class="st0" d="M41.5,99.5h-1.8v-9.1h1.8V99.5z"/>
	</g>
</g>
<g>
	<path class="st1" d="M10.1,121.8c0,2.8-0.6,4.9-1.8,6.3c-1.2,1.4-3,2.1-5.4,2.1c-0.8,0-1.5,0-1.9-0.1v-2.4c0.5,0.1,1.1,0.2,1.7,0.2
		c1,0,1.8-0.1,2.5-0.4c0.7-0.3,1.1-0.8,1.5-1.4c0.3-0.6,0.5-1.5,0.6-2.6H7.2c-0.4,0.6-0.8,1-1.3,1.3C5.4,124.9,4.8,125,4,125
		c-1.2,0-2.2-0.4-2.9-1.2C0.4,123,0,121.9,0,120.5c0-1.5,0.4-2.7,1.3-3.6s2.1-1.3,3.5-1.3c1.1,0,2,0.2,2.8,0.7s1.4,1.2,1.8,2.2
		C9.9,119.4,10.1,120.5,10.1,121.8z M4.9,118c-0.6,0-1.1,0.2-1.5,0.6s-0.5,1-0.5,1.9c0,0.7,0.2,1.2,0.5,1.6c0.3,0.4,0.8,0.6,1.5,0.6
		c0.6,0,1.1-0.2,1.6-0.6c0.4-0.4,0.7-0.9,0.7-1.4c0-0.8-0.2-1.4-0.6-2C6.1,118.2,5.5,118,4.9,118z"/>
	<path class="st1" d="M11.9,128.6c0-0.5,0.1-1,0.4-1.2s0.7-0.4,1.3-0.4c0.5,0,1,0.1,1.3,0.4c0.3,0.3,0.4,0.7,0.4,1.2
		c0,0.5-0.1,0.9-0.4,1.2c-0.3,0.3-0.7,0.4-1.3,0.4c-0.5,0-1-0.1-1.3-0.4C12.1,129.5,11.9,129.1,11.9,128.6z"/>
	<path class="st1" d="M27.3,130h-10v-2.1l3.6-3.6c1.1-1.1,1.8-1.8,2.1-2.3c0.3-0.4,0.6-0.8,0.7-1.2c0.1-0.4,0.2-0.7,0.2-1.1
		c0-0.6-0.2-1-0.5-1.3c-0.3-0.3-0.7-0.4-1.3-0.4c-0.6,0-1.1,0.1-1.6,0.4c-0.5,0.3-1.1,0.6-1.6,1.1l-1.6-1.9c0.7-0.6,1.3-1,1.7-1.3
		c0.5-0.2,1-0.4,1.5-0.6s1.2-0.2,1.8-0.2c0.9,0,1.7,0.2,2.4,0.5s1.2,0.8,1.6,1.4c0.4,0.6,0.6,1.3,0.6,2c0,0.7-0.1,1.3-0.3,1.9
		c-0.2,0.6-0.6,1.2-1.1,1.8c-0.5,0.6-1.3,1.5-2.6,2.6l-1.8,1.7v0.1h6.2V130z"/>
	<path class="st1" d="M38.2,118.9c0,0.9-0.3,1.7-0.8,2.3c-0.5,0.6-1.3,1.1-2.3,1.3v0.1c1.2,0.1,2,0.5,2.6,1c0.6,0.6,0.9,1.3,0.9,2.3
		c0,1.4-0.5,2.4-1.5,3.2s-2.4,1.1-4.3,1.1c-1.5,0-2.9-0.3-4.1-0.8v-2.6c0.6,0.3,1.2,0.5,1.8,0.7s1.3,0.3,2,0.3c1,0,1.7-0.2,2.2-0.5
		c0.5-0.3,0.7-0.9,0.7-1.6c0-0.7-0.3-1.1-0.8-1.4s-1.4-0.4-2.6-0.4h-1.1v-2.3H32c1.1,0,1.9-0.1,2.4-0.4c0.5-0.3,0.8-0.8,0.8-1.5
		c0-1.1-0.7-1.6-2-1.6c-0.5,0-0.9,0.1-1.4,0.2c-0.5,0.2-1,0.4-1.6,0.8l-1.4-2.1c1.3-0.9,2.9-1.4,4.7-1.4c1.5,0,2.6,0.3,3.5,0.9
		C37.7,117,38.2,117.8,38.2,118.9z"/>
	<path class="st1" d="M46.8,120c0,1.5-0.3,2.6-0.9,3.4c-0.6,0.8-1.4,1.1-2.5,1.1c-1.1,0-1.9-0.4-2.5-1.2S40,121.4,40,120
		c0-3,1.1-4.5,3.4-4.5c1.1,0,1.9,0.4,2.5,1.2C46.5,117.4,46.8,118.5,46.8,120z M42.4,120c0,0.8,0.1,1.4,0.2,1.9s0.4,0.6,0.7,0.6
		c0.6,0,0.9-0.8,0.9-2.5c0-1.6-0.3-2.4-0.9-2.4c-0.3,0-0.6,0.2-0.7,0.6S42.4,119.2,42.4,120z M53.5,115.7L45.6,130h-2.3l7.9-14.3
		H53.5z M56.8,125.7c0,1.5-0.3,2.6-0.9,3.4c-0.6,0.8-1.4,1.1-2.5,1.1c-1.1,0-1.9-0.4-2.5-1.2s-0.9-1.9-0.9-3.3c0-3,1.1-4.5,3.4-4.5
		c1.1,0,1.9,0.4,2.5,1.2C56.5,123.1,56.8,124.2,56.8,125.7z M52.4,125.7c0,0.8,0.1,1.4,0.2,1.9s0.4,0.6,0.7,0.6
		c0.6,0,0.9-0.8,0.9-2.5c0-1.6-0.3-2.4-0.9-2.4c-0.3,0-0.6,0.2-0.7,0.6S52.4,124.9,52.4,125.7z"/>
</g>
<g>
	<circle class="st2" cx="13.2" cy="74.3" r="4.5"/>
	<circle class="st2" cx="33.2" cy="74.3" r="4.5"/>
	<rect x="11.7" y="7" class="st2" width="5.3" height="46.7"/>
	<rect x="30.5" y="7" class="st2" width="5.3" height="46.7"/>
	<path class="st3" d="M37.2,70.3h-29c-3.1,0-5.6-2.5-5.6-5.6V22.5c0-3.1,2.5-5.6,5.6-5.6h29c3.1,0,5.6,2.5,5.6,5.6v42.2
		C42.8,67.8,40.3,70.3,37.2,70.3z"/>
	<line class="st4" x1="2.1" y1="24.1" x2="42.1" y2="24.1"/>
	<line class="st4" x1="2.1" y1="33.1" x2="33.1" y2="33.1"/>
	<line class="st4" x1="2.1" y1="38.1" x2="33.1" y2="38.1"/>
	<line class="st4" x1="2.1" y1="43.1" x2="33.1" y2="43.1"/>
	<line class="st4" x1="2.1" y1="48.1" x2="33.1" y2="48.1"/>
	<line class="st4" x1="2.1" y1="53.1" x2="33.1" y2="53.1"/>
	<path class="st2" d="M39.7,7h-34C4,7,2.6,5.6,2.6,3.9v0c0-1.7,1.4-3.1,3.1-3.1h34c1.7,0,3.1,1.4,3.1,3.1v0C42.8,5.6,41.4,7,39.7,7z
		"/>
</g>
</svg>