<!-- Generator: Adobe Illustrator 19.0.0, SVG Export Plug-In  -->
<svg version="1.1"
	 xmlns="http://www.w3.org/2000/svg" xmlns:xlink="http://www.w3.org/1999/xlink" xmlns:a="http://ns.adobe.com/AdobeSVGViewerExtensions/3.0/"
	 x="0px" y="0px" width="67.7px" height="123.2px" viewBox="0 0 67.7 123.2" style="enable-background:new 0 0 67.7 123.2;"
	 xml:space="preserve">
<style type="text/css">
	.st0{fill:#086A87;}
	.st1{fill:#FF6633;}
	.st2{fill:none;stroke:#086A87;stroke-width:2;stroke-linecap:round;stroke-linejoin:round;stroke-miterlimit:10;}
</style>
<defs>
</defs>
<g>
	<g>
		<path class="st0" d="M15.8,85.5c0,1.4-0.4,2.5-1.1,3.3s-1.7,1.1-3,1.1s-2.3-0.4-3-1.1s-1.1-1.9-1.1-3.3S8,83,8.7,82.2
			s1.7-1.1,3-1.1s2.3,0.4,3,1.1S15.8,84.1,15.8,85.5z M9.6,85.5c0,1,0.2,1.7,0.5,2.2s0.9,0.7,1.6,0.7c1.4,0,2.2-1,2.2-2.9
			c0-1.9-0.7-2.9-2.2-2.9c-0.7,0-1.3,0.2-1.6,0.7S9.6,84.6,9.6,85.5z"/>
		<path class="st0" d="M20.2,88.5c0.3,0,0.7-0.1,1.1-0.2v1.3c-0.4,0.2-1,0.3-1.6,0.3c-0.7,0-1.2-0.2-1.6-0.5s-0.5-0.9-0.5-1.6v-3.2
			h-0.9v-0.8l1-0.6l0.5-1.4h1.1v1.4h1.8v1.3h-1.8v3.2c0,0.3,0.1,0.4,0.2,0.6S20,88.5,20.2,88.5z"/>
		<path class="st0" d="M28.7,89.8h-1.8V86c0-0.9-0.4-1.4-1.1-1.4c-0.5,0-0.9,0.2-1.1,0.5s-0.3,0.9-0.3,1.7v3.1h-1.8v-9.1h1.8v1.9
			c0,0.1,0,0.5,0,1l0,0.5h0.1c0.4-0.6,1-1,1.9-1c0.8,0,1.4,0.2,1.8,0.6s0.6,1,0.6,1.8V89.8z"/>
		<path class="st0" d="M33.5,89.9c-1.1,0-1.9-0.3-2.5-0.9s-0.9-1.4-0.9-2.5c0-1.1,0.3-1.9,0.8-2.5s1.3-0.9,2.3-0.9
			c0.9,0,1.6,0.3,2.2,0.8s0.8,1.3,0.8,2.2V87H32c0,0.5,0.2,0.9,0.5,1.2s0.7,0.4,1.2,0.4c0.4,0,0.8,0,1.1-0.1s0.7-0.2,1.1-0.4v1.4
			c-0.3,0.2-0.6,0.3-1,0.3S34,89.9,33.5,89.9z M33.3,84.4c-0.4,0-0.7,0.1-0.9,0.4s-0.3,0.6-0.4,1h2.5c0-0.4-0.1-0.8-0.3-1
			S33.7,84.4,33.3,84.4z"/>
		<path class="st0" d="M41.3,83.1c0.2,0,0.4,0,0.6,0.1l-0.1,1.7c-0.1,0-0.3-0.1-0.5-0.1c-0.6,0-1,0.1-1.3,0.4s-0.5,0.7-0.5,1.2v3.3
			h-1.8v-6.6H39l0.3,1.1h0.1c0.2-0.4,0.5-0.7,0.8-0.9S40.9,83.1,41.3,83.1z"/>
		<path class="st0" d="M47.7,87.9c0,0.7-0.2,1.2-0.7,1.5s-1.2,0.5-2.1,0.5c-0.5,0-0.9,0-1.2-0.1s-0.7-0.2-0.9-0.3v-1.5
			c0.3,0.2,0.7,0.3,1.1,0.4s0.8,0.2,1.1,0.2c0.6,0,1-0.2,1-0.6c0-0.1,0-0.3-0.1-0.3s-0.2-0.2-0.4-0.3s-0.5-0.2-0.8-0.4
			c-0.5-0.2-0.9-0.4-1.1-0.6S43,86,42.9,85.8s-0.2-0.5-0.2-0.9c0-0.6,0.2-1,0.7-1.4s1.1-0.5,1.9-0.5c0.8,0,1.6,0.2,2.3,0.5l-0.5,1.3
			c-0.3-0.1-0.6-0.3-0.9-0.3s-0.6-0.1-0.9-0.1c-0.5,0-0.8,0.1-0.8,0.4c0,0.2,0.1,0.3,0.3,0.4s0.5,0.3,1.1,0.5
			c0.5,0.2,0.9,0.4,1.1,0.6s0.4,0.4,0.5,0.6S47.7,87.5,47.7,87.9z"/>
	</g>
</g>
<g>
	<g>
		<path class="st1" d="M7.1,122.9h-3v-8.3l0-1.4l0-1.5c-0.5,0.5-0.8,0.8-1,1l-1.6,1.3L0,112.3l4.6-3.7h2.5V122.9z"/>
		<path class="st1" d="M21,122.9h-10v-2.1l3.6-3.6c1.1-1.1,1.8-1.8,2.1-2.3c0.3-0.4,0.6-0.8,0.7-1.2c0.1-0.4,0.2-0.7,0.2-1.1
			c0-0.6-0.2-1-0.5-1.3c-0.3-0.3-0.7-0.4-1.3-0.4c-0.6,0-1.1,0.1-1.6,0.4c-0.5,0.3-1.1,0.6-1.6,1.1l-1.6-1.9c0.7-0.6,1.3-1,1.7-1.3
			c0.5-0.2,1-0.4,1.5-0.6s1.2-0.2,1.8-0.2c0.9,0,1.7,0.2,2.4,0.5s1.2,0.8,1.6,1.4c0.4,0.6,0.6,1.3,0.6,2c0,0.7-0.1,1.3-0.3,1.9
			c-0.2,0.6-0.6,1.2-1.1,1.8c-0.5,0.6-1.3,1.5-2.6,2.6l-1.8,1.7v0.1H21V122.9z"/>
		<path class="st1" d="M22.8,121.5c0-0.5,0.1-1,0.4-1.2s0.7-0.4,1.3-0.4c0.5,0,1,0.1,1.3,0.4c0.3,0.3,0.4,0.7,0.4,1.2
			c0,0.5-0.1,0.9-0.4,1.2c-0.3,0.3-0.7,0.4-1.3,0.4c-0.5,0-1-0.1-1.3-0.4C23,122.4,22.8,122,22.8,121.5z"/>
		<path class="st1" d="M35.7,122.9h-3v-8.3l0-1.4l0-1.5c-0.5,0.5-0.8,0.8-1,1l-1.6,1.3l-1.5-1.8l4.6-3.7h2.5V122.9z"/>
		<path class="st1" d="M39.5,116.8c0-2.8,0.6-4.9,1.8-6.3c1.2-1.4,3-2.1,5.4-2.1c0.8,0,1.5,0,1.9,0.1v2.4c-0.6-0.1-1.2-0.2-1.7-0.2
			c-1,0-1.9,0.2-2.5,0.5s-1.1,0.8-1.5,1.4c-0.3,0.6-0.5,1.5-0.6,2.6h0.1c0.6-1.1,1.7-1.7,3.1-1.7c1.3,0,2.3,0.4,3,1.2
			s1.1,1.9,1.1,3.3c0,1.5-0.4,2.7-1.3,3.6s-2.1,1.3-3.6,1.3c-1.1,0-2-0.2-2.8-0.7c-0.8-0.5-1.4-1.2-1.8-2.1
			C39.7,119.3,39.5,118.1,39.5,116.8z M44.7,120.7c0.6,0,1.1-0.2,1.5-0.6c0.3-0.4,0.5-1,0.5-1.9c0-0.7-0.2-1.2-0.5-1.6
			s-0.8-0.6-1.5-0.6c-0.6,0-1.1,0.2-1.6,0.6c-0.4,0.4-0.6,0.9-0.6,1.4c0,0.8,0.2,1.4,0.6,2C43.5,120.4,44.1,120.7,44.7,120.7z"/>
		<path class="st1" d="M57.7,112.9c0,1.5-0.3,2.6-0.9,3.4c-0.6,0.8-1.4,1.1-2.5,1.1c-1.1,0-1.9-0.4-2.5-1.2s-0.9-1.9-0.9-3.3
			c0-3,1.1-4.5,3.4-4.5c1.1,0,1.9,0.4,2.5,1.2C57.4,110.3,57.7,111.4,57.7,112.9z M53.3,112.9c0,0.8,0.1,1.4,0.2,1.9
			s0.4,0.6,0.7,0.6c0.6,0,0.9-0.8,0.9-2.5c0-1.6-0.3-2.4-0.9-2.4c-0.3,0-0.6,0.2-0.7,0.6S53.3,112.1,53.3,112.9z M64.4,108.6
			l-7.9,14.3h-2.3l7.9-14.3H64.4z M67.7,118.6c0,1.5-0.3,2.6-0.9,3.4c-0.6,0.8-1.4,1.1-2.5,1.1c-1.1,0-1.9-0.4-2.5-1.2
			s-0.9-1.9-0.9-3.3c0-3,1.1-4.5,3.4-4.5c1.1,0,1.9,0.4,2.5,1.2C67.4,116,67.7,117.1,67.7,118.6z M63.3,118.6c0,0.8,0.1,1.4,0.2,1.9
			s0.4,0.6,0.7,0.6c0.6,0,0.9-0.8,0.9-2.5c0-1.6-0.3-2.4-0.9-2.4c-0.3,0-0.6,0.2-0.7,0.6S63.3,117.8,63.3,118.6z"/>
	</g>
</g>
<g>
	<path class="st2" d="M31.7,18.9l0-4.8l-4,0c-0.1-0.4-0.2-0.8-0.3-1.2l3.5-2l-2.4-4.1l-3.5,2c-0.3-0.3-0.6-0.6-0.9-0.9l2-3.5L22.1,2
		l-1.7,3.5c-0.4-0.1-0.8-0.2-0.8-0.3V1h-5v4.1c-1,0.1-0.8,0.1-1.1,0.2l-2-3.5L7.2,4.1l1.9,3.5C8.8,7.9,8.5,8.1,8.2,8.4L4.8,6.3
		l-2.5,4.1l3.4,2.1c-0.1,0.4-0.3,0.8-0.4,1.2l-4-0.1l-0.1,4.8l4,0.1c0.1,0.4,0.2,0.8,0.3,1.2L2,21.6l2.3,4.2l3.5-1.9
		c0.3,0.3,0.6,0.6,0.9,0.9l-2,3.4l4.1,2.5l2-3.4c0.4,0.1,0.8,0.3,1.2,0.3l-0.1,4l4.8,0.1l0.1-4c0.4-0.1,0.8-0.2,1.2-0.3l1.9,3.5
		l4.2-2.3L24,25.1c0.3-0.3,0.6-0.6,0.9-0.9l3.4,2l2.4-4.1l-3.4-2c0.1-0.4,0.2-0.8,0.3-1.2L31.7,18.9z"/>
	<path class="st2" d="M61.3,43.6l0-4.8l-4,0c-0.1-0.4-0.2-0.8-0.3-1.2l3.5-2l-2.4-4.1l-3.5,2c-0.3-0.3-0.6-0.6-0.9-0.9l2-3.5
		l-4.1-2.4l-2,3.5c-0.4-0.1-1.2-0.2-1.2-0.3V26h-5v3.8c-1,0.1-0.5,0.1-0.8,0.2L41,26.5l-4.2,2.3l1.9,3.5c-0.3,0.3-0.6,0.6-0.9,0.9
		L34.4,31l-2.5,4.1l3.4,2.1c-0.1,0.4-0.3,0.8-0.4,1.2l-4-0.1L30.8,43l4,0.1c0.1,0.4,0.2,0.8,0.3,1.2l-3.5,1.9l2.3,4.2l3.5-1.9
		c0.3,0.3,0.6,0.6,0.9,0.9l-2,3.4l4.1,2.5l2-3.4c0.4,0.1,0.8,0.3,1.2,0.3l-0.1,4l4.8,0.1l0.1-4c0.4-0.1,0.8-0.2,1.2-0.3l1.9,3.5
		l4.2-2.3l-1.9-3.5c0.3-0.3,0.6-0.6,0.9-0.9l3.4,2l2.4-4.1l-3.4-2c0.1-0.4,0.2-0.8,0.3-1.2L61.3,43.6z"/>
	<circle class="st2" cx="16" cy="16.7" r="5.3"/>
	<circle class="st2" cx="46" cy="40.7" r="5.3"/>
</g>
</svg>