<!-- Generator: Adobe Illustrator 19.0.0, SVG Export Plug-In  -->
<svg version="1.1"
	 xmlns="http://www.w3.org/2000/svg" xmlns:xlink="http://www.w3.org/1999/xlink" xmlns:a="http://ns.adobe.com/AdobeSVGViewerExtensions/3.0/"
	 x="0px" y="0px" width="92.6px" height="124.2px" viewBox="0 0 92.6 124.2" style="enable-background:new 0 0 92.6 124.2;"
	 xml:space="preserve">
<style type="text/css">
	.st0{fill:none;stroke:#086A87;stroke-width:1.5569;stroke-linecap:round;stroke-linejoin:round;stroke-miterlimit:10;}
	.st1{fill:#086A87;}
	.st2{fill:#FF6633;}
</style>
<defs>
</defs>
<g>
	<path class="st0" d="M17.8,16.7V6.8c0-3.4,2.7-6.1,6.1-6.1h42.4c3.3,0,6.1,2.7,6.1,6.1v10.1"/>
	<rect x="22.4" y="24.8" class="st0" width="43.5" height="6.1"/>
	<path class="st0" d="M22.3,24.8v-2.7c0-2.7-2-4.9-4.5-5.4c-0.3,0-0.6-0.1-0.9-0.1c-3,0-5.4,2.4-5.4,5.4v8.8v13.3"/>
	<path class="st0" d="M65.9,24.8v-2.5c0-3,2.4-5.4,5.4-5.4c0.3,0,0.7,0,1,0.1c2.5,0.5,4.4,2.7,4.4,5.3v8.6"/>
	<circle class="st0" cx="35.9" cy="12.8" r="2.1"/>
	<circle class="st0" cx="54.2" cy="12.8" r="2.1"/>
	<path class="st0" d="M17.4,44.2l-2.3,5.7c0,0,0,0,0,0c-0.2,1.8,2,2.8,3.3,1.6l7.8-7.3H17.4z"/>
	<path class="st0" d="M70.9,44.2l2.3,5.7c0,0,0,0,0,0c0.2,1.8-2,2.8-3.3,1.6l-7.8-7.3H70.9z"/>
	<rect x="22.3" y="24.8" class="st0" width="43.6" height="6"/>
	<rect x="11.4" y="30.8" class="st0" width="65.4" height="13.4"/>
</g>
<g>
	<path class="st1" d="M7,85.9H5.2v-3.7H1.8v3.7H0v-8.6h1.8v3.4h3.4v-3.4H7V85.9z"/>
	<path class="st1" d="M15,82.6c0,1.1-0.3,1.9-0.8,2.5S12.8,86,11.8,86c-0.6,0-1.2-0.1-1.7-0.4S9.3,84.9,9,84.4s-0.4-1.1-0.4-1.8
		c0-1.1,0.3-1.9,0.8-2.5s1.3-0.9,2.4-0.9c0.6,0,1.2,0.1,1.7,0.4s0.8,0.7,1.1,1.2S15,81.9,15,82.6z M10.5,82.6c0,0.6,0.1,1.1,0.3,1.5
		s0.6,0.5,1,0.5c0.5,0,0.8-0.2,1-0.5s0.3-0.8,0.3-1.5c0-0.6-0.1-1.1-0.3-1.5s-0.6-0.5-1-0.5c-0.5,0-0.8,0.2-1,0.5S10.5,82,10.5,82.6
		z"/>
	<path class="st1" d="M22.3,85.9h-1.8v-3.8c0-0.5-0.1-0.8-0.2-1.1s-0.4-0.4-0.7-0.4c-0.5,0-0.8,0.2-1,0.5s-0.3,0.9-0.3,1.7v3.1h-1.8
		v-6.6h1.4l0.2,0.8h0.1c0.2-0.3,0.4-0.5,0.8-0.7s0.7-0.3,1.1-0.3c1,0,1.6,0.3,2,1h0.2c0.2-0.3,0.4-0.5,0.8-0.7s0.7-0.3,1.2-0.3
		c0.7,0,1.3,0.2,1.7,0.6s0.6,1,0.6,1.8v4.3h-1.8v-3.8c0-0.5-0.1-0.8-0.2-1.1s-0.4-0.4-0.7-0.4c-0.4,0-0.8,0.2-1,0.5
		s-0.3,0.8-0.3,1.5V85.9z"/>
	<path class="st1" d="M31.2,86c-1.1,0-1.9-0.3-2.5-0.9s-0.9-1.4-0.9-2.5c0-1.1,0.3-1.9,0.8-2.5s1.3-0.9,2.3-0.9
		c0.9,0,1.6,0.3,2.2,0.8s0.8,1.3,0.8,2.2v0.9h-4.2c0,0.5,0.2,0.9,0.5,1.2s0.7,0.4,1.2,0.4c0.4,0,0.8,0,1.1-0.1s0.7-0.2,1.1-0.4v1.4
		c-0.3,0.2-0.6,0.3-1,0.3S31.7,86,31.2,86z M31,80.5c-0.4,0-0.7,0.1-0.9,0.4s-0.3,0.6-0.4,1h2.5c0-0.4-0.1-0.8-0.3-1
		S31.3,80.5,31,80.5z"/>
	<path class="st1" d="M46.5,85.9h-2.2l-0.7-0.7c-0.7,0.5-1.6,0.8-2.5,0.8c-1,0-1.7-0.2-2.3-0.7s-0.8-1-0.8-1.8c0-0.5,0.1-1,0.4-1.4
		s0.6-0.7,1.2-1.1c-0.3-0.3-0.5-0.7-0.6-1s-0.2-0.6-0.2-1c0-0.6,0.2-1.1,0.7-1.4s1.1-0.5,1.8-0.5c0.7,0,1.3,0.2,1.7,0.5
		s0.7,0.8,0.7,1.4c0,0.5-0.1,0.9-0.4,1.3s-0.7,0.8-1.3,1.1l1.7,1.6c0.3-0.5,0.5-1,0.7-1.8h1.9c-0.1,0.5-0.3,1-0.6,1.5
		s-0.5,0.9-0.8,1.3L46.5,85.9z M39.9,83.4c0,0.3,0.1,0.6,0.4,0.8s0.6,0.3,1,0.3c0.5,0,0.9-0.1,1.3-0.4l-1.9-1.9
		c-0.2,0.2-0.4,0.4-0.5,0.5S39.9,83.2,39.9,83.4z M42,79.3c0-0.2-0.1-0.4-0.2-0.5s-0.3-0.2-0.5-0.2c-0.3,0-0.5,0.1-0.6,0.2
		s-0.2,0.3-0.2,0.5c0,0.3,0.2,0.7,0.6,1.1c0.3-0.2,0.6-0.4,0.8-0.6S42,79.5,42,79.3z"/>
	<path class="st1" d="M54,81.1h3.4v4.4c-0.6,0.2-1.1,0.3-1.6,0.4s-1,0.1-1.5,0.1c-1.3,0-2.3-0.4-3-1.1s-1-1.9-1-3.3
		c0-1.4,0.4-2.5,1.2-3.2s1.9-1.2,3.3-1.2c0.9,0,1.7,0.2,2.5,0.5l-0.6,1.5c-0.6-0.3-1.3-0.5-2-0.5c-0.8,0-1.4,0.3-1.9,0.8
		s-0.7,1.2-0.7,2.1c0,0.9,0.2,1.6,0.6,2.1s0.9,0.7,1.7,0.7c0.4,0,0.8,0,1.2-0.1v-1.8H54V81.1z"/>
	<path class="st1" d="M63.4,85.9L63.1,85h0c-0.3,0.4-0.6,0.6-0.9,0.8S61.4,86,60.9,86c-0.6,0-1.1-0.2-1.5-0.5s-0.5-0.9-0.5-1.5
		c0-0.7,0.2-1.2,0.7-1.5s1.2-0.5,2.2-0.5l1.1,0v-0.3c0-0.7-0.3-1-1-1c-0.5,0-1.1,0.2-1.8,0.5l-0.6-1.2c0.8-0.4,1.6-0.6,2.5-0.6
		c0.9,0,1.6,0.2,2,0.6s0.7,1,0.7,1.7v4.4H63.4z M62.9,82.9l-0.7,0c-0.5,0-0.9,0.1-1.2,0.3s-0.4,0.4-0.4,0.8c0,0.5,0.3,0.8,0.9,0.8
		c0.4,0,0.7-0.1,1-0.4s0.4-0.6,0.4-0.9V82.9z"/>
	<path class="st1" d="M70.2,79.2c0.2,0,0.4,0,0.6,0.1L70.6,81c-0.1,0-0.3-0.1-0.5-0.1c-0.6,0-1,0.1-1.3,0.4s-0.5,0.7-0.5,1.2v3.3
		h-1.8v-6.6h1.4l0.3,1.1h0.1c0.2-0.4,0.5-0.7,0.8-0.9S69.8,79.2,70.2,79.2z"/>
	<path class="st1" d="M73.9,86c-0.8,0-1.4-0.3-1.8-0.9s-0.7-1.4-0.7-2.5c0-1.1,0.2-1.9,0.7-2.5s1.1-0.9,1.8-0.9c0.8,0,1.5,0.3,1.9,1
		h0.1c-0.1-0.5-0.1-0.9-0.1-1.3v-2.1h1.8v9.1h-1.4L75.9,85h-0.1C75.4,85.7,74.8,86,73.9,86z M74.5,84.6c0.5,0,0.8-0.1,1-0.4
		s0.3-0.7,0.3-1.4v-0.2c0-0.7-0.1-1.2-0.3-1.5s-0.6-0.5-1.1-0.5c-0.4,0-0.7,0.2-0.9,0.5s-0.3,0.8-0.3,1.5s0.1,1.1,0.3,1.5
		S74.1,84.6,74.5,84.6z"/>
	<path class="st1" d="M82.4,86c-1.1,0-1.9-0.3-2.5-0.9S79,83.7,79,82.7c0-1.1,0.3-1.9,0.8-2.5s1.3-0.9,2.3-0.9
		c0.9,0,1.6,0.3,2.2,0.8s0.8,1.3,0.8,2.2v0.9h-4.2c0,0.5,0.2,0.9,0.5,1.2s0.7,0.4,1.2,0.4c0.4,0,0.8,0,1.1-0.1s0.7-0.2,1.1-0.4v1.4
		c-0.3,0.2-0.6,0.3-1,0.3S82.9,86,82.4,86z M82.2,80.5c-0.4,0-0.7,0.1-0.9,0.4s-0.3,0.6-0.4,1h2.5c0-0.4-0.1-0.8-0.3-1
		S82.5,80.5,82.2,80.5z"/>
	<path class="st1" d="M92.6,85.9h-1.8v-3.8c0-0.5-0.1-0.8-0.3-1.1s-0.4-0.4-0.8-0.4c-0.5,0-0.9,0.2-1.1,0.5s-0.3,0.9-0.3,1.7v3.1
		h-1.8v-6.6h1.4l0.2,0.8h0.1c0.2-0.3,0.5-0.6,0.8-0.7s0.7-0.2,1.2-0.2c0.8,0,1.3,0.2,1.7,0.6s0.6,1,0.6,1.8V85.9z"/>
</g>
<g>
	<path class="st2" d="M15,124h-3v-8.3l0-1.4l0-1.5c-0.5,0.5-0.8,0.8-1,1l-1.6,1.3l-1.5-1.8l4.6-3.7H15V124z"/>
	<path class="st2" d="M18.9,117.9c0-2.8,0.6-4.9,1.8-6.3c1.2-1.4,3-2.1,5.4-2.1c0.8,0,1.5,0,1.9,0.1v2.4c-0.6-0.1-1.2-0.2-1.7-0.2
		c-1,0-1.9,0.2-2.5,0.5s-1.1,0.8-1.5,1.4c-0.3,0.6-0.5,1.5-0.6,2.6h0.1c0.6-1.1,1.7-1.7,3.1-1.7c1.3,0,2.3,0.4,3,1.2
		s1.1,1.9,1.1,3.3c0,1.5-0.4,2.7-1.3,3.6s-2.1,1.3-3.6,1.3c-1.1,0-2-0.2-2.8-0.7c-0.8-0.5-1.4-1.2-1.8-2.1
		C19.1,120.4,18.9,119.2,18.9,117.9z M24,121.8c0.6,0,1.1-0.2,1.5-0.6c0.3-0.4,0.5-1,0.5-1.9c0-0.7-0.2-1.2-0.5-1.6
		s-0.8-0.6-1.5-0.6c-0.6,0-1.1,0.2-1.6,0.6c-0.4,0.4-0.6,0.9-0.6,1.4c0,0.8,0.2,1.4,0.6,2C22.9,121.5,23.4,121.8,24,121.8z"/>
	<path class="st2" d="M30.8,122.6c0-0.5,0.1-1,0.4-1.2s0.7-0.4,1.3-0.4c0.5,0,1,0.1,1.3,0.4c0.3,0.3,0.4,0.7,0.4,1.2
		c0,0.5-0.1,0.9-0.4,1.2c-0.3,0.3-0.7,0.4-1.3,0.4c-0.5,0-1-0.1-1.3-0.4C30.9,123.5,30.8,123.1,30.8,122.6z"/>
	<path class="st2" d="M43.6,124h-3v-8.3l0-1.4l0-1.5c-0.5,0.5-0.8,0.8-1,1l-1.6,1.3l-1.5-1.8l4.6-3.7h2.5V124z"/>
	<path class="st2" d="M47.5,117.9c0-2.8,0.6-4.9,1.8-6.3c1.2-1.4,3-2.1,5.4-2.1c0.8,0,1.5,0,1.9,0.1v2.4c-0.6-0.1-1.2-0.2-1.7-0.2
		c-1,0-1.9,0.2-2.5,0.5s-1.1,0.8-1.5,1.4c-0.3,0.6-0.5,1.5-0.6,2.6h0.1c0.6-1.1,1.7-1.7,3.1-1.7c1.3,0,2.3,0.4,3,1.2
		s1.1,1.9,1.1,3.3c0,1.5-0.4,2.7-1.3,3.6s-2.1,1.3-3.6,1.3c-1.1,0-2-0.2-2.8-0.7c-0.8-0.5-1.4-1.2-1.8-2.1
		C47.7,120.4,47.5,119.2,47.5,117.9z M52.6,121.8c0.6,0,1.1-0.2,1.5-0.6c0.3-0.4,0.5-1,0.5-1.9c0-0.7-0.2-1.2-0.5-1.6
		s-0.8-0.6-1.5-0.6c-0.6,0-1.1,0.2-1.6,0.6c-0.4,0.4-0.6,0.9-0.6,1.4c0,0.8,0.2,1.4,0.6,2C51.5,121.5,52,121.8,52.6,121.8z"/>
	<path class="st2" d="M65.6,114c0,1.5-0.3,2.6-0.9,3.4c-0.6,0.8-1.4,1.1-2.5,1.1c-1.1,0-1.9-0.4-2.5-1.2s-0.9-1.9-0.9-3.3
		c0-3,1.1-4.5,3.4-4.5c1.1,0,1.9,0.4,2.5,1.2C65.3,111.4,65.6,112.5,65.6,114z M61.3,114c0,0.8,0.1,1.4,0.2,1.9s0.4,0.6,0.7,0.6
		c0.6,0,0.9-0.8,0.9-2.5c0-1.6-0.3-2.4-0.9-2.4c-0.3,0-0.6,0.2-0.7,0.6S61.3,113.2,61.3,114z M72.3,109.7L64.4,124H62l7.9-14.3H72.3
		z M75.6,119.7c0,1.5-0.3,2.6-0.9,3.4c-0.6,0.8-1.4,1.1-2.5,1.1c-1.1,0-1.9-0.4-2.5-1.2s-0.9-1.9-0.9-3.3c0-3,1.1-4.5,3.4-4.5
		c1.1,0,1.9,0.4,2.5,1.2C75.3,117.1,75.6,118.2,75.6,119.7z M71.3,119.7c0,0.8,0.1,1.4,0.2,1.9s0.4,0.6,0.7,0.6
		c0.6,0,0.9-0.8,0.9-2.5c0-1.6-0.3-2.4-0.9-2.4c-0.3,0-0.6,0.2-0.7,0.6S71.3,118.9,71.3,119.7z"/>
</g>
</svg>