<!-- Generator: Adobe Illustrator 19.0.0, SVG Export Plug-In  -->
<svg version="1.1"
	 xmlns="http://www.w3.org/2000/svg" xmlns:xlink="http://www.w3.org/1999/xlink" xmlns:a="http://ns.adobe.com/AdobeSVGViewerExtensions/3.0/"
	 x="0px" y="0px" width="72.1px" height="124.2px" viewBox="0 0 72.1 124.2" style="enable-background:new 0 0 72.1 124.2;"
	 xml:space="preserve">
<style type="text/css">
	.st0{fill:none;stroke:#086A87;stroke-width:1.5569;stroke-linecap:round;stroke-linejoin:round;stroke-miterlimit:10;}
	.st1{fill:#086A87;}
	.st2{fill:#FF6633;}
</style>
<defs>
</defs>
<g>
	<path class="st0" d="M50.2,48.6H4.4c-2,0-3.6-2.8-3.6-6.3h49.4"/>
	<path class="st0" d="M50.2,37.5H12.3c-1.6,0-2.8-1.3-2.8-2.8V8.4c0-1.6,1.3-2.8,2.8-2.8h42c1.6,0,2.8,1.3,2.8,2.8v14.4"/>
	<path class="st0" d="M50.2,42.3H9.7c-2.7,0-5-2.3-5-5V5.8c0-2.7,2.3-5,5-5h47.2c2.8,0,5,2.3,5,5v17"/>
	<path class="st0" d="M67,56.6H53c-1.6,0-2.8-1.3-2.8-2.8V25.6c0-1.6,1.3-2.8,2.8-2.8h14c1.6,0,2.8,1.3,2.8,2.8v28.1
		C69.9,55.3,68.6,56.6,67,56.6z"/>
	<circle class="st0" cx="60" cy="52.1" r="1.8"/>
	<rect x="53.3" y="26.8" class="st0" width="13.4" height="19.6"/>
</g>
<g>
	<g>
		<path class="st1" d="M8,85.9H6.2v-7.1H3.8v-1.5h6.5v1.5H8V85.9z"/>
		<path class="st1" d="M14,86c-1.1,0-1.9-0.3-2.5-0.9s-0.9-1.4-0.9-2.5c0-1.1,0.3-1.9,0.8-2.5s1.3-0.9,2.3-0.9
			c0.9,0,1.6,0.3,2.2,0.8s0.8,1.3,0.8,2.2v0.9h-4.2c0,0.5,0.2,0.9,0.5,1.2s0.7,0.4,1.2,0.4c0.4,0,0.8,0,1.1-0.1s0.7-0.2,1.1-0.4v1.4
			c-0.3,0.2-0.6,0.3-1,0.3S14.6,86,14,86z M13.8,80.5c-0.4,0-0.7,0.1-0.9,0.4s-0.3,0.6-0.4,1H15c0-0.4-0.1-0.8-0.3-1
			S14.2,80.5,13.8,80.5z"/>
		<path class="st1" d="M20.8,86c-2,0-3.1-1.1-3.1-3.4c0-1.1,0.3-2,0.8-2.6s1.3-0.9,2.4-0.9c0.8,0,1.4,0.1,2,0.4l-0.5,1.4
			c-0.3-0.1-0.5-0.2-0.8-0.3s-0.5-0.1-0.7-0.1c-0.9,0-1.4,0.7-1.4,2c0,1.3,0.5,1.9,1.4,1.9c0.3,0,0.7,0,1-0.1s0.6-0.2,0.9-0.4v1.5
			c-0.3,0.2-0.6,0.3-0.9,0.4S21.3,86,20.8,86z"/>
		<path class="st1" d="M30.4,85.9h-1.8v-3.8c0-0.9-0.4-1.4-1.1-1.4c-0.5,0-0.9,0.2-1.1,0.5s-0.3,0.9-0.3,1.7v3.1h-1.8v-9.1h1.8v1.9
			c0,0.1,0,0.5,0,1l0,0.5h0.1c0.4-0.6,1-1,1.9-1c0.8,0,1.4,0.2,1.8,0.6s0.6,1,0.6,1.8V85.9z"/>
		<path class="st1" d="M38.3,85.9h-1.8v-3.8c0-0.5-0.1-0.8-0.3-1.1s-0.4-0.4-0.8-0.4c-0.5,0-0.9,0.2-1.1,0.5S34,82,34,82.8v3.1h-1.8
			v-6.6h1.4l0.2,0.8h0.1c0.2-0.3,0.5-0.6,0.8-0.7s0.7-0.2,1.2-0.2c0.8,0,1.3,0.2,1.7,0.6s0.6,1,0.6,1.8V85.9z"/>
		<path class="st1" d="M46.1,82.6c0,1.1-0.3,1.9-0.8,2.5S43.9,86,42.9,86c-0.6,0-1.2-0.1-1.7-0.4s-0.8-0.7-1.1-1.2s-0.4-1.1-0.4-1.8
			c0-1.1,0.3-1.9,0.8-2.5s1.3-0.9,2.4-0.9c0.6,0,1.2,0.1,1.7,0.4s0.8,0.7,1.1,1.2S46.1,81.9,46.1,82.6z M41.5,82.6
			c0,0.6,0.1,1.1,0.3,1.5s0.6,0.5,1,0.5c0.5,0,0.8-0.2,1-0.5s0.3-0.8,0.3-1.5c0-0.6-0.1-1.1-0.3-1.5s-0.6-0.5-1-0.5
			c-0.5,0-0.8,0.2-1,0.5S41.5,82,41.5,82.6z"/>
		<path class="st1" d="M49.3,85.9h-1.8v-9.1h1.8V85.9z"/>
		<path class="st1" d="M57.2,82.6c0,1.1-0.3,1.9-0.8,2.5S55,86,54,86c-0.6,0-1.2-0.1-1.7-0.4s-0.8-0.7-1.1-1.2s-0.4-1.1-0.4-1.8
			c0-1.1,0.3-1.9,0.8-2.5s1.3-0.9,2.4-0.9c0.6,0,1.2,0.1,1.7,0.4s0.8,0.7,1.1,1.2S57.2,81.9,57.2,82.6z M52.6,82.6
			c0,0.6,0.1,1.1,0.3,1.5s0.6,0.5,1,0.5c0.5,0,0.8-0.2,1-0.5s0.3-0.8,0.3-1.5c0-0.6-0.1-1.1-0.3-1.5s-0.6-0.5-1-0.5
			c-0.5,0-0.8,0.2-1,0.5S52.6,82,52.6,82.6z"/>
		<path class="st1" d="M64.4,85.9c0,0.9-0.3,1.7-0.8,2.1s-1.4,0.7-2.5,0.7c-1,0-1.8-0.1-2.4-0.4V87c0.8,0.3,1.6,0.5,2.6,0.5
			c0.9,0,1.4-0.5,1.4-1.5v-0.1l0.1-0.8h-0.1c-0.4,0.6-1,1-1.9,1c-0.8,0-1.4-0.3-1.8-0.9s-0.6-1.4-0.6-2.5c0-1.1,0.2-1.9,0.7-2.5
			s1.1-0.9,1.8-0.9c0.8,0,1.4,0.3,1.9,1h0l0.1-0.8h1.5V85.9z M61.3,84.6c0.5,0,0.8-0.1,1-0.4s0.3-0.7,0.3-1.3v-0.2
			c0-0.7-0.1-1.2-0.3-1.5s-0.6-0.5-1-0.5c-0.8,0-1.3,0.7-1.3,2c0,0.7,0.1,1.1,0.3,1.5S60.9,84.6,61.3,84.6z"/>
		<path class="st1" d="M65.3,79.3h2l1.2,3.7c0.1,0.3,0.2,0.7,0.2,1.1h0c0-0.4,0.1-0.8,0.3-1.1l1.2-3.7h1.9l-2.8,7.4
			c-0.3,0.7-0.6,1.2-1.1,1.5s-1,0.5-1.6,0.5c-0.3,0-0.6,0-0.9-0.1v-1.4c0.2,0.1,0.4,0.1,0.7,0.1c0.3,0,0.6-0.1,0.8-0.3
			s0.4-0.5,0.6-0.9l0.1-0.3L65.3,79.3z"/>
		<path class="st1" d="M12.6,100.3h-2.2l-0.7-0.7c-0.7,0.5-1.6,0.8-2.5,0.8c-1,0-1.7-0.2-2.3-0.7s-0.8-1-0.8-1.8
			c0-0.5,0.1-1,0.4-1.4s0.6-0.7,1.2-1.1c-0.3-0.3-0.5-0.7-0.6-1s-0.2-0.6-0.2-1c0-0.6,0.2-1.1,0.7-1.4s1.1-0.5,1.8-0.5
			c0.7,0,1.3,0.2,1.7,0.5s0.7,0.8,0.7,1.4c0,0.5-0.1,0.9-0.4,1.3S8.6,95.5,8,95.8l1.7,1.6c0.3-0.5,0.5-1,0.7-1.8h1.9
			c-0.1,0.5-0.3,1-0.6,1.5s-0.5,0.9-0.8,1.3L12.6,100.3z M6,97.8c0,0.3,0.1,0.6,0.4,0.8s0.6,0.3,1,0.3c0.5,0,0.9-0.1,1.3-0.4
			l-1.9-1.9c-0.2,0.2-0.4,0.4-0.5,0.5S6,97.6,6,97.8z M8.1,93.7c0-0.2-0.1-0.4-0.2-0.5S7.5,93,7.3,93c-0.3,0-0.5,0.1-0.6,0.2
			s-0.2,0.3-0.2,0.5c0,0.3,0.2,0.7,0.6,1.1c0.3-0.2,0.6-0.4,0.8-0.6S8.1,93.9,8.1,93.7z"/>
		<path class="st1" d="M21.7,100.3h-4.9v-8.6h4.9v1.5h-3.1v1.9h2.9v1.5h-2.9v2.2h3.1V100.3z"/>
		<path class="st1" d="M25.2,100.3h-1.8v-9.1h1.8V100.3z"/>
		<path class="st1" d="M30,100.4c-1.1,0-1.9-0.3-2.5-0.9s-0.9-1.4-0.9-2.5c0-1.1,0.3-1.9,0.8-2.5s1.3-0.9,2.3-0.9
			c0.9,0,1.6,0.3,2.2,0.8c0.5,0.5,0.8,1.3,0.8,2.2v0.9h-4.2c0,0.5,0.2,0.9,0.5,1.2s0.7,0.4,1.2,0.4c0.4,0,0.8,0,1.1-0.1
			s0.7-0.2,1.1-0.4v1.4c-0.3,0.2-0.6,0.3-1,0.3S30.5,100.4,30,100.4z M29.8,94.9c-0.4,0-0.7,0.1-0.9,0.4s-0.3,0.6-0.4,1H31
			c0-0.4-0.1-0.8-0.3-1S30.1,94.9,29.8,94.9z"/>
		<path class="st1" d="M36.8,100.4c-2,0-3.1-1.1-3.1-3.4c0-1.1,0.3-2,0.8-2.6s1.3-0.9,2.4-0.9c0.8,0,1.4,0.1,2,0.4l-0.5,1.4
			c-0.3-0.1-0.5-0.2-0.8-0.3s-0.5-0.1-0.7-0.1c-0.9,0-1.4,0.7-1.4,2c0,1.3,0.5,1.9,1.4,1.9c0.3,0,0.7,0,1-0.1s0.6-0.2,0.9-0.4v1.5
			c-0.3,0.2-0.6,0.3-0.9,0.4S37.2,100.4,36.8,100.4z"/>
		<path class="st1" d="M43.1,99c0.3,0,0.7-0.1,1.1-0.2v1.3c-0.4,0.2-1,0.3-1.6,0.3c-0.7,0-1.2-0.2-1.6-0.5s-0.5-0.9-0.5-1.6v-3.2
			h-0.9v-0.8l1-0.6l0.5-1.4h1.1v1.4h1.8v1.3h-1.8v3.2c0,0.3,0.1,0.4,0.2,0.6S42.8,99,43.1,99z"/>
		<path class="st1" d="M49.2,93.6c0.2,0,0.4,0,0.6,0.1l-0.1,1.7c-0.1,0-0.3-0.1-0.5-0.1c-0.6,0-1,0.1-1.3,0.4s-0.5,0.7-0.5,1.2v3.3
			h-1.8v-6.6h1.4l0.3,1.1h0.1c0.2-0.4,0.5-0.7,0.8-0.9S48.8,93.6,49.2,93.6z"/>
		<path class="st1" d="M50.9,92.1c0-0.6,0.3-0.9,1-0.9s1,0.3,1,0.9c0,0.3-0.1,0.5-0.2,0.6s-0.4,0.2-0.7,0.2
			C51.2,92.9,50.9,92.6,50.9,92.1z M52.7,100.3H51v-6.6h1.8V100.3z"/>
		<path class="st1" d="M57.3,100.4c-2,0-3.1-1.1-3.1-3.4c0-1.1,0.3-2,0.8-2.6s1.3-0.9,2.4-0.9c0.8,0,1.4,0.1,2,0.4L59,95.5
			c-0.3-0.1-0.5-0.2-0.8-0.3s-0.5-0.1-0.7-0.1c-0.9,0-1.4,0.7-1.4,2c0,1.3,0.5,1.9,1.4,1.9c0.3,0,0.7,0,1-0.1s0.6-0.2,0.9-0.4v1.5
			c-0.3,0.2-0.6,0.3-0.9,0.4S57.7,100.4,57.3,100.4z"/>
		<path class="st1" d="M65,100.3l-0.3-0.9h0c-0.3,0.4-0.6,0.6-0.9,0.8s-0.7,0.2-1.2,0.2c-0.6,0-1.1-0.2-1.5-0.5s-0.5-0.9-0.5-1.5
			c0-0.7,0.2-1.2,0.7-1.5s1.2-0.5,2.2-0.5l1.1,0v-0.3c0-0.7-0.3-1-1-1c-0.5,0-1.1,0.2-1.8,0.5L61,94.2c0.8-0.4,1.6-0.6,2.5-0.6
			c0.9,0,1.6,0.2,2,0.6s0.7,1,0.7,1.7v4.4H65z M64.4,97.3l-0.7,0c-0.5,0-0.9,0.1-1.2,0.3s-0.4,0.4-0.4,0.8c0,0.5,0.3,0.8,0.9,0.8
			c0.4,0,0.7-0.1,1-0.4s0.4-0.6,0.4-0.9V97.3z"/>
		<path class="st1" d="M69.8,100.3H68v-9.1h1.8V100.3z"/>
	</g>
</g>
<g>
	<path class="st2" d="M18.6,124h-3v-8.3l0-1.4l0-1.5c-0.5,0.5-0.8,0.8-1,1l-1.6,1.3l-1.5-1.8l4.6-3.7h2.5V124z"/>
	<path class="st2" d="M32.4,116.8c0,2.5-0.4,4.3-1.2,5.5c-0.8,1.2-2.1,1.8-3.8,1.8c-1.6,0-2.9-0.6-3.7-1.9c-0.8-1.2-1.3-3.1-1.3-5.5
		c0-2.5,0.4-4.4,1.2-5.6c0.8-1.2,2.1-1.8,3.8-1.8c1.6,0,2.9,0.6,3.7,1.9C32,112.6,32.4,114.4,32.4,116.8z M25.5,116.8
		c0,1.8,0.2,3,0.5,3.8s0.8,1.1,1.5,1.1c0.7,0,1.2-0.4,1.5-1.2s0.5-2,0.5-3.8c0-1.8-0.2-3-0.5-3.8c-0.3-0.8-0.8-1.1-1.5-1.1
		c-0.7,0-1.2,0.4-1.5,1.1C25.6,113.8,25.5,115.1,25.5,116.8z"/>
	<path class="st2" d="M34.3,122.6c0-0.5,0.1-1,0.4-1.2s0.7-0.4,1.3-0.4c0.5,0,1,0.1,1.3,0.4c0.3,0.3,0.4,0.7,0.4,1.2
		c0,0.5-0.1,0.9-0.4,1.2c-0.3,0.3-0.7,0.4-1.3,0.4c-0.5,0-1-0.1-1.3-0.4C34.5,123.5,34.3,123.1,34.3,122.6z"/>
	<path class="st2" d="M47.1,124h-3v-8.3l0-1.4l0-1.5c-0.5,0.5-0.8,0.8-1,1l-1.6,1.3l-1.5-1.8l4.6-3.7h2.5V124z"/>
	<path class="st2" d="M57.7,114c0,1.5-0.3,2.6-0.9,3.4c-0.6,0.8-1.4,1.1-2.5,1.1c-1.1,0-1.9-0.4-2.5-1.2s-0.9-1.9-0.9-3.3
		c0-3,1.1-4.5,3.4-4.5c1.1,0,1.9,0.4,2.5,1.2C57.4,111.4,57.7,112.5,57.7,114z M53.4,114c0,0.8,0.1,1.4,0.2,1.9s0.4,0.6,0.7,0.6
		c0.6,0,0.9-0.8,0.9-2.5c0-1.6-0.3-2.4-0.9-2.4c-0.3,0-0.6,0.2-0.7,0.6S53.4,113.2,53.4,114z M64.4,109.7L56.5,124h-2.3l7.9-14.3
		H64.4z M67.7,119.7c0,1.5-0.3,2.6-0.9,3.4c-0.6,0.8-1.4,1.1-2.5,1.1c-1.1,0-1.9-0.4-2.5-1.2s-0.9-1.9-0.9-3.3c0-3,1.1-4.5,3.4-4.5
		c1.1,0,1.9,0.4,2.5,1.2C67.4,117.1,67.7,118.2,67.7,119.7z M63.4,119.7c0,0.8,0.1,1.4,0.2,1.9s0.4,0.6,0.7,0.6
		c0.6,0,0.9-0.8,0.9-2.5c0-1.6-0.3-2.4-0.9-2.4c-0.3,0-0.6,0.2-0.7,0.6S63.4,118.9,63.4,119.7z"/>
</g>
</svg>