<!-- Generator: Adobe Illustrator 19.0.0, SVG Export Plug-In  -->
<svg version="1.1"
	 xmlns="http://www.w3.org/2000/svg" xmlns:xlink="http://www.w3.org/1999/xlink" xmlns:a="http://ns.adobe.com/AdobeSVGViewerExtensions/3.0/"
	 x="0px" y="0px" width="128.3px" height="41.3px" viewBox="0 0 128.3 41.3" style="enable-background:new 0 0 128.3 41.3;"
	 xml:space="preserve">
<style type="text/css">
	.st0{fill:#F1673A;}
	.st1{fill:#FFFFFF;}
</style>
<defs>
</defs>
<g id="XMLID_15_">
	<path id="XMLID_116_" class="st0" d="M0,2.3C0,1,1.1,0,2.4,0c1.3,0,2.3,1,2.3,2.3c0,1.4-1.1,2.3-2.3,2.3C1.1,4.7,0,3.7,0,2.3z"/>
	<rect id="XMLID_115_" y="9.1" class="st1" width="4.7" height="19.4"/>
	<path id="XMLID_112_" class="st1" d="M51.6,0.5c-1.2,0-2.3,1-2.3,2.3c0,1.4,1.1,2.3,2.3,2.3c1.2,0,2.3-0.9,2.3-2.3
		C54,1.5,52.9,0.5,51.6,0.5z M49.3,9.6v19.4H54V9.6H49.3z"/>
	<g id="XMLID_34_">
		<path id="XMLID_110_" class="st1" d="M21,38l-1.9-3.4H20l1.1,2.1c0.2,0.3,0.3,0.7,0.3,0.7s0.2-0.4,0.3-0.7l1.1-2.1h0.8L21.8,38
			v1.6H21V38z"/>
		<path id="XMLID_107_" class="st1" d="M23.2,38.1c0-0.9,0.7-1.6,1.7-1.6c0.9,0,1.7,0.7,1.7,1.6c0,0.9-0.7,1.6-1.7,1.6
			C23.9,39.7,23.2,39,23.2,38.1z M25.8,38.1c0-0.6-0.3-1-0.9-1c-0.6,0-0.9,0.4-0.9,1c0,0.6,0.4,1,0.9,1C25.4,39,25.8,38.6,25.8,38.1
			z"/>
		<path id="XMLID_105_" class="st1" d="M27.3,38.4v-1.9H28v1.8c0,0.4,0.2,0.7,0.6,0.7c0.5,0,0.8-0.3,0.8-0.8v-1.7h0.7v3.1h-0.7
			l0-0.6c-0.2,0.4-0.6,0.6-1,0.6C27.8,39.7,27.3,39.2,27.3,38.4z"/>
		<path id="XMLID_103_" class="st1" d="M31.2,36.5h0.7l0,0.6c0.2-0.5,0.6-0.6,0.9-0.6c0.2,0,0.4,0.1,0.5,0.1l-0.3,0.7
			c-0.1-0.1-0.2-0.1-0.4-0.1c-0.4,0-0.7,0.3-0.7,1v1.5h-0.7V36.5z"/>
		<path id="XMLID_100_" class="st1" d="M35.5,38.1c0-0.9,0.7-1.6,1.7-1.6c0.9,0,1.7,0.7,1.7,1.6c0,0.9-0.7,1.6-1.7,1.6
			C36.2,39.7,35.5,39,35.5,38.1z M38.1,38.1c0-0.6-0.3-1-0.9-1c-0.6,0-0.9,0.4-0.9,1c0,0.6,0.4,1,0.9,1C37.7,39,38.1,38.6,38.1,38.1
			z"/>
		<path id="XMLID_98_" class="st1" d="M39.6,36.5h0.7l0,0.6c0.2-0.4,0.6-0.6,1.1-0.6c0.7,0,1.2,0.5,1.2,1.3v1.8h-0.7v-1.8
			c0-0.4-0.2-0.7-0.6-0.7c-0.5,0-0.8,0.3-0.8,0.8v1.7h-0.7V36.5z"/>
		<path id="XMLID_95_" class="st1" d="M45.1,39.1c0.4,0,0.7-0.2,0.9-0.3l0.4,0.5c-0.3,0.3-0.7,0.5-1.3,0.5c-1.1,0-1.8-0.7-1.8-1.6
			c0-0.9,0.7-1.6,1.7-1.6c1.1,0,1.7,0.8,1.6,1.9h-2.5C44.2,38.8,44.5,39.1,45.1,39.1z M45.8,37.8c-0.1-0.4-0.3-0.7-0.8-0.7
			c-0.5,0-0.8,0.3-0.9,0.7H45.8z"/>
		<path id="XMLID_93_" class="st1" d="M48.8,39l0.5-0.4c0.2,0.3,0.5,0.4,0.8,0.4c0.4,0,0.5-0.1,0.5-0.3c0-0.3-0.2-0.3-0.8-0.4
			c-0.5-0.1-0.9-0.3-0.9-1c0-0.6,0.5-0.9,1.1-0.9c0.5,0,0.8,0.2,1.1,0.5l-0.4,0.4c-0.1-0.2-0.4-0.3-0.6-0.3c-0.3,0-0.4,0.1-0.4,0.3
			c0,0.2,0.2,0.3,0.7,0.4c0.5,0.1,1,0.3,1,1c0,0.5-0.3,1-1.2,1C49.5,39.7,49,39.4,48.8,39z"/>
		<path id="XMLID_91_" class="st1" d="M52.3,38.6v-1.4h-0.5v-0.6h0.5v-1.6H53v1.6h0.8v0.6H53v1.4c0,0.4,0.1,0.5,0.3,0.5
			c0.2,0,0.3-0.1,0.4-0.1l0.4,0.5c-0.2,0.1-0.4,0.3-0.8,0.3C52.7,39.7,52.3,39.4,52.3,38.6z"/>
		<path id="XMLID_88_" class="st1" d="M54.5,38.1c0-0.9,0.7-1.6,1.7-1.6c0.9,0,1.7,0.7,1.7,1.6c0,0.9-0.7,1.6-1.7,1.6
			C55.2,39.7,54.5,39,54.5,38.1z M57.1,38.1c0-0.6-0.3-1-0.9-1c-0.6,0-0.9,0.4-0.9,1c0,0.6,0.4,1,0.9,1C56.7,39,57.1,38.6,57.1,38.1
			z"/>
		<path id="XMLID_85_" class="st1" d="M58.6,36.5h0.8l0,0.6c0.2-0.4,0.6-0.6,1.1-0.6c0.8,0,1.4,0.7,1.4,1.6c0,0.9-0.7,1.6-1.5,1.6
			c-0.5,0-0.9-0.3-1.1-0.6v2.1h-0.8V36.5z M61.2,38.1c0-0.6-0.3-0.9-0.9-0.9c-0.5,0-0.9,0.4-0.9,0.9c0,0.6,0.4,1,0.9,1
			C60.8,39,61.2,38.6,61.2,38.1z"/>
		<path id="XMLID_83_" class="st1" d="M64.1,39l0.5-0.4c0.2,0.3,0.5,0.4,0.8,0.4c0.4,0,0.5-0.1,0.5-0.3c0-0.3-0.2-0.3-0.8-0.4
			c-0.5-0.1-0.9-0.3-0.9-1c0-0.6,0.5-0.9,1.1-0.9c0.5,0,0.8,0.2,1.1,0.5l-0.4,0.4C66,37.2,65.8,37,65.5,37c-0.3,0-0.4,0.1-0.4,0.3
			c0,0.2,0.2,0.3,0.7,0.4c0.5,0.1,1,0.3,1,1c0,0.5-0.3,1-1.2,1C64.8,39.7,64.3,39.4,64.1,39z"/>
		<path id="XMLID_81_" class="st1" d="M67.5,34.3h0.7v2.8c0.2-0.4,0.6-0.6,1-0.6c0.7,0,1.2,0.5,1.2,1.3v1.8h-0.7v-1.8
			c0-0.4-0.2-0.7-0.6-0.7c-0.5,0-0.8,0.3-0.8,0.8v1.7h-0.7V34.3z"/>
		<path id="XMLID_78_" class="st1" d="M71.2,38.1c0-0.9,0.7-1.6,1.7-1.6c0.9,0,1.7,0.7,1.7,1.6c0,0.9-0.7,1.6-1.7,1.6
			C71.9,39.7,71.2,39,71.2,38.1z M73.8,38.1c0-0.6-0.3-1-0.9-1c-0.6,0-0.9,0.4-0.9,1c0,0.6,0.4,1,0.9,1C73.4,39,73.8,38.6,73.8,38.1
			z"/>
		<path id="XMLID_75_" class="st1" d="M75.3,36.5h0.8l0,0.6c0.2-0.4,0.6-0.6,1.1-0.6c0.8,0,1.4,0.7,1.4,1.6c0,0.9-0.7,1.6-1.5,1.6
			c-0.5,0-0.9-0.3-1.1-0.6v2.1h-0.8V36.5z M77.9,38.1c0-0.6-0.3-0.9-0.9-0.9c-0.5,0-0.9,0.4-0.9,0.9c0,0.6,0.4,1,0.9,1
			C77.5,39,77.9,38.6,77.9,38.1z"/>
		<path id="XMLID_72_" class="st1" d="M79.4,36.5h0.8l0,0.6c0.2-0.4,0.6-0.6,1.1-0.6c0.8,0,1.4,0.7,1.4,1.6c0,0.9-0.7,1.6-1.5,1.6
			c-0.5,0-0.9-0.3-1.1-0.6v2.1h-0.8V36.5z M81.9,38.1c0-0.6-0.3-0.9-0.9-0.9c-0.5,0-0.9,0.4-0.9,0.9c0,0.6,0.4,1,0.9,1
			C81.6,39,81.9,38.6,81.9,38.1z"/>
		<path id="XMLID_69_" class="st1" d="M83.4,35.3c0-0.3,0.2-0.5,0.5-0.5c0.3,0,0.5,0.2,0.5,0.5c0,0.3-0.2,0.5-0.5,0.5
			C83.6,35.8,83.4,35.6,83.4,35.3z M83.5,36.5h0.8v3.1h-0.8V36.5z"/>
		<path id="XMLID_67_" class="st1" d="M85.3,36.5H86l0,0.6c0.2-0.4,0.6-0.6,1.1-0.6c0.7,0,1.2,0.5,1.2,1.3v1.8h-0.7v-1.8
			c0-0.4-0.2-0.7-0.6-0.7c-0.5,0-0.8,0.3-0.8,0.8v1.7h-0.7V36.5z"/>
		<path id="XMLID_63_" class="st1" d="M92,36.5v0.5h-0.5c0.1,0.1,0.2,0.3,0.2,0.5c0,0.7-0.5,1.1-1.3,1.1c-0.3,0-0.5,0-0.6-0.1
			c-0.1,0.1-0.2,0.2-0.2,0.3c0,0.2,0.1,0.3,0.4,0.3l0.8,0.1c0.9,0.1,1.3,0.4,1.3,1c0,0.7-0.6,1.1-1.7,1.1c-1.1,0-1.6-0.4-1.6-1
			c0-0.4,0.3-0.6,0.7-0.7c-0.3-0.1-0.4-0.3-0.4-0.6c0-0.3,0.2-0.5,0.4-0.6c-0.2-0.2-0.3-0.5-0.3-0.7c0-0.7,0.5-1.1,1.3-1.1
			c0.2,0,0.3,0,0.5,0.1H92z M89.5,40.2c0,0.3,0.3,0.5,0.9,0.5c0.6,0,0.9-0.2,0.9-0.5c0-0.3-0.2-0.4-0.7-0.4l-0.9-0.1
			C89.5,39.8,89.5,40,89.5,40.2z M91,37.6c0-0.3-0.2-0.6-0.6-0.6c-0.4,0-0.6,0.2-0.6,0.6c0,0.3,0.2,0.6,0.6,0.6
			C90.8,38.1,91,37.9,91,37.6z"/>
		<path id="XMLID_60_" class="st1" d="M94.2,38.1c0-0.9,0.7-1.6,1.4-1.6c0.5,0,0.9,0.3,1.1,0.6v-2.8h0.8v5.3h-0.8l0-0.6
			c-0.2,0.4-0.6,0.6-1.1,0.6C94.8,39.7,94.2,39,94.2,38.1z M96.8,38.1c0-0.6-0.4-0.9-0.9-0.9c-0.5,0-0.9,0.4-0.9,0.9
			c0,0.6,0.3,1,0.9,1C96.4,39,96.8,38.6,96.8,38.1z"/>
		<path id="XMLID_57_" class="st1" d="M100,39.1c0.4,0,0.7-0.2,0.9-0.3l0.4,0.5c-0.3,0.3-0.7,0.5-1.3,0.5c-1.1,0-1.8-0.7-1.8-1.6
			c0-0.9,0.7-1.6,1.7-1.6c1.1,0,1.7,0.8,1.6,1.9H99C99.1,38.8,99.4,39.1,100,39.1z M100.8,37.8c-0.1-0.4-0.3-0.7-0.8-0.7
			c-0.5,0-0.8,0.3-0.9,0.7H100.8z"/>
		<path id="XMLID_55_" class="st1" d="M102,39l0.5-0.4c0.2,0.3,0.5,0.4,0.8,0.4c0.4,0,0.5-0.1,0.5-0.3c0-0.3-0.2-0.3-0.8-0.4
			c-0.5-0.1-0.9-0.3-0.9-1c0-0.6,0.5-0.9,1.1-0.9c0.5,0,0.8,0.2,1.1,0.5l-0.4,0.4c-0.1-0.2-0.4-0.3-0.6-0.3c-0.3,0-0.4,0.1-0.4,0.3
			c0,0.2,0.2,0.3,0.7,0.4c0.5,0.1,1,0.3,1,1c0,0.5-0.3,1-1.2,1C102.7,39.7,102.2,39.4,102,39z"/>
		<path id="XMLID_53_" class="st1" d="M105.5,38.6v-1.4H105v-0.6h0.5v-1.6h0.7v1.6h0.8v0.6h-0.8v1.4c0,0.4,0.1,0.5,0.3,0.5
			c0.2,0,0.3-0.1,0.4-0.1l0.4,0.5c-0.2,0.1-0.4,0.3-0.8,0.3C105.9,39.7,105.5,39.4,105.5,38.6z"/>
		<path id="XMLID_50_" class="st1" d="M107.8,35.3c0-0.3,0.2-0.5,0.5-0.5c0.3,0,0.5,0.2,0.5,0.5c0,0.3-0.2,0.5-0.5,0.5
			C108,35.8,107.8,35.6,107.8,35.3z M107.9,36.5h0.8v3.1h-0.8V36.5z"/>
		<path id="XMLID_48_" class="st1" d="M109.6,36.5h0.7l0,0.6c0.2-0.4,0.6-0.6,1.1-0.6c0.7,0,1.2,0.5,1.2,1.3v1.8h-0.7v-1.8
			c0-0.4-0.2-0.7-0.6-0.7c-0.5,0-0.8,0.3-0.8,0.8v1.7h-0.7V36.5z"/>
		<path id="XMLID_45_" class="st1" d="M114.7,37.1c-0.4,0-0.6,0.2-0.8,0.4l-0.4-0.4c0.3-0.3,0.6-0.6,1.3-0.6c0.7,0,1.3,0.4,1.3,1.3
			v1.8h-0.7l0-0.4c-0.2,0.3-0.5,0.5-1,0.5c-0.6,0-1.1-0.3-1.1-1c0-0.6,0.5-0.9,1.2-0.9h0.9C115.4,37.3,115.1,37.1,114.7,37.1z
			 M114.6,38.3c-0.3,0-0.5,0.1-0.5,0.4c0,0.3,0.2,0.4,0.6,0.4c0.4,0,0.7-0.2,0.7-0.6v-0.2H114.6z"/>
		<path id="XMLID_43_" class="st1" d="M117.2,38.6v-1.4h-0.5v-0.6h0.5v-1.6h0.7v1.6h0.8v0.6H118v1.4c0,0.4,0.1,0.5,0.3,0.5
			c0.2,0,0.3-0.1,0.4-0.1l0.4,0.5c-0.2,0.1-0.4,0.3-0.8,0.3C117.6,39.7,117.2,39.4,117.2,38.6z"/>
		<path id="XMLID_40_" class="st1" d="M119.5,35.3c0-0.3,0.2-0.5,0.5-0.5c0.3,0,0.5,0.2,0.5,0.5c0,0.3-0.2,0.5-0.5,0.5
			C119.7,35.8,119.5,35.6,119.5,35.3z M119.6,36.5h0.8v3.1h-0.8V36.5z"/>
		<path id="XMLID_37_" class="st1" d="M121.2,38.1c0-0.9,0.7-1.6,1.7-1.6c0.9,0,1.7,0.7,1.7,1.6c0,0.9-0.7,1.6-1.7,1.6
			C121.9,39.7,121.2,39,121.2,38.1z M123.8,38.1c0-0.6-0.3-1-0.9-1c-0.6,0-0.9,0.4-0.9,1c0,0.6,0.4,1,0.9,1
			C123.4,39,123.8,38.6,123.8,38.1z"/>
		<path id="XMLID_35_" class="st1" d="M125.3,36.5h0.7l0,0.6c0.2-0.4,0.6-0.6,1.1-0.6c0.7,0,1.2,0.5,1.2,1.3v1.8h-0.7v-1.8
			c0-0.4-0.2-0.7-0.6-0.7c-0.5,0-0.8,0.3-0.8,0.8v1.7h-0.7V36.5z"/>
	</g>
	<path id="XMLID_31_" class="st1" d="M125.7,16l-2.3-2.3l0,0l-0.8-0.8l-0.7-0.7l-0.8-0.8L119,9.3l-0.1-0.1l-2.2-2.2l-2.3,2.3
		l-9.6,9.6l-2.2,2.2l2.2,2.2l6.8,6.8l2.3,2.3l2.2-2.2l9.6-9.6l2.3-2.3L125.7,16z M113.9,27.8l-6.8-6.8l9.6-9.6l2.2,2.2l0.1,0.1
		l2.2,2.2l0.1,0.1l2.2,2.2L113.9,27.8z"/>
	<path id="XMLID_29_" class="st0" d="M125.7,16l1.1-1.1l0,0c1.8-1.9,1.7-4.8-0.1-6.7c-1.8-1.8-4.8-1.9-6.7-0.1l0,0l-3.3,3.3l2.3,2.3
		l3.3-3.3c0.6-0.6,1.6-0.6,2.2,0c0.6,0.6,0.6,1.6,0,2.2l-1.1,1.1L125.7,16"/>
	<line id="XMLID_28_" class="st1" x1="37.7" y1="28.7" x2="33.1" y2="28.7"/>
	<path id="XMLID_26_" class="st1" d="M68.1,24.9c-3.3,0-5.9-2.7-5.9-5.9c0-3.3,2.7-5.9,5.9-5.9c1.9,0,3.6,0.9,4.6,2.2l3.5-2.8
		c-1.9-2.4-4.9-3.9-8.2-3.9c-5.8,0-10.5,4.7-10.5,10.5s4.7,10.5,10.5,10.5c3.2,0,6.1-1.5,8-3.8l-3.5-2.9
		C71.6,24.1,70,24.9,68.1,24.9z"/>
	<polygon id="XMLID_25_" class="st1" points="14,11.9 14,11.9 14,9.3 14,9.5 	"/>
	<path id="XMLID_22_" class="st1" d="M19.9,9.1c-0.1,0-0.2,0-0.2,0c-0.1,0-0.1,0-0.2,0c-1.7,0-3.1,0.4-4.3,1.2
		c-0.4,0.2-0.8,0.5-1.2,0.7V9.5l0-0.2H9.3v28.4H14v-2.5v-7.6c1.7,1.2,3.7,1.9,5.9,1.9c5.7,0,10.2-4.6,10.2-10.2S25.6,9.1,19.9,9.1z
		 M19.9,25.1c-3.2,0-5.8-2.6-5.8-5.8s2.6-5.8,5.8-5.8s5.8,2.6,5.8,5.8S23.1,25.1,19.9,25.1z"/>
	<path id="XMLID_21_" class="st1" d="M44.5,9.7c-3.6-1-5.7,0.5-6.8,1.8V9.6H33v5.9h0v13.5h4.7v-9c0-4.3,1.9-5.9,4.7-5.9
		c1.1,0,1.8,0.3,2.5,0.6l1.6-4.2C45.8,10.1,45.2,9.8,44.5,9.7z"/>
	<path id="XMLID_20_" class="st1" d="M83.8,21.4C83.8,21.4,83.7,21.4,83.8,21.4C83.7,21.4,83.7,21.4,83.8,21.4L83.8,21.4z"/>
	<path id="XMLID_19_" class="st1" d="M83.7,21.3C83.7,21.3,83.7,21.4,83.7,21.3C83.7,21.4,83.7,21.3,83.7,21.3L83.7,21.3z"/>
	<path id="XMLID_16_" class="st1" d="M99.4,21.3c0.2-0.8,0.3-1.5,0.3-2.3c0-0.4,0-0.9-0.1-1.3c0-0.4-0.1-0.7-0.2-1
		c-1.1-4.6-5.2-8.1-10.2-8.1c-5,0-9.1,3.5-10.2,8.1c-0.2,0.8-0.3,1.5-0.3,2.3c0,0.1,0,0.2,0,0.4l0,0c0,0.2,0,0.3,0,0.5
		c0.1,1.4,0.3,2.7,0.8,3.8c0.6,1.3,1.3,2.4,2.3,3.3c1,0.9,2.1,1.6,3.4,2.1c1.3,0.5,2.7,0.7,4.2,0.7c1.6,0,3.1-0.3,4.5-0.9
		c1.4-0.6,2.7-1.6,3.9-3.1l-3.6-2.7c-0.6,0.8-1.4,1.4-2.2,1.9c-0.8,0.5-1.9,0.8-3.1,0.8c-1.4,0-2.6-0.4-3.6-1.2
		c-0.9-0.8-1.5-1.8-1.7-3.2c0,0,0,0,0-0.1c0,0,0,0,0,0h0H99.4z M85.3,13.9c0.9-0.9,2.1-1.3,3.5-1.3c1.6,0,2.8,0.4,3.7,1.3
		c0.9,0.8,1.3,2,1.4,3.5H83.7C83.9,15.9,84.4,14.8,85.3,13.9z"/>
</g>
</svg>