<?xml version="1.0" encoding="utf-8"?>
<!-- Generator: Adobe Illustrator 19.0.0, SVG Export Plug-In . SVG Version: 6.00 Build 0)  -->
<svg version="1.1" id="Layer_1" xmlns="http://www.w3.org/2000/svg" xmlns:xlink="http://www.w3.org/1999/xlink" x="0px" y="0px"
	 viewBox="808.9 -127.3 237.5 244.8" style="enable-background:new 808.9 -127.3 237.5 244.8;" xml:space="preserve">
<style type="text/css">
	.st0{fill:#33CCCC;}
	.st1{fill:#FFFFFF;}
	.st2{fill:none;stroke:#FFFFFF;stroke-width:1.5;stroke-miterlimit:10;}
</style>
<rect x="808.9" y="-127.3" class="st0" width="237.5" height="244.8"/>
<g>
	<g>
		<path class="st1" d="M866,3.9h-2.1v-15.2h2.1V3.9z"/>
		<path class="st1" d="M877-8.3c0.5,0.1,0.8,0.4,1.1,0.7c0.3,0.3,0.4,0.7,0.4,1.2v5.3c0,0.8-0.1,1.6-0.3,2.2
			c-0.2,0.6-0.5,1.1-0.8,1.5c-0.3,0.4-0.7,0.7-1.1,0.9s-0.8,0.4-1.2,0.5c-0.4,0.1-0.7,0.2-1,0.2c-0.3,0-0.5,0-0.5,0
			c-0.8,0-1.5-0.1-2.1-0.4c-0.6-0.2-1-0.5-1.4-0.9c-0.4-0.4-0.7-0.8-0.9-1.2c-0.2-0.4-0.4-0.9-0.5-1.2c-0.1-0.4-0.2-0.7-0.2-1
			c0-0.3,0-0.5,0-0.6c0-0.5,0.1-0.9,0.2-1.3c0.1-0.4,0.3-0.8,0.5-1.1c0.2-0.3,0.4-0.6,0.7-0.9s0.5-0.5,0.7-0.8
			c0.2-0.2,0.4-0.5,0.5-0.7c0.1-0.2,0.2-0.5,0.3-0.7c0-0.1,0-0.1,0-0.2c0-0.1,0-0.1,0-0.2c0-0.3-0.1-0.6-0.2-0.9
			c-0.1-0.2-0.2-0.4-0.4-0.6s-0.4-0.3-0.6-0.4S869.8-9,869.6-9s-0.4-0.1-0.6-0.1c-0.2,0-0.3,0-0.4,0h-0.1v-2.1h1.2
			c0.6,0,1,0.1,1.4,0.3c0.4,0.2,0.7,0.4,1,0.7c0.3,0.3,0.5,0.6,0.6,0.9s0.3,0.7,0.4,1c0.1,0.3,0.1,0.6,0.2,0.9c0,0.3,0,0.5,0,0.7
			c0,0,0,0.1,0,0.1c0,0,0,0.1,0,0.1v0.1c0,0.3-0.1,0.5-0.2,0.8c-0.1,0.3-0.2,0.5-0.3,0.7c-0.1,0.2-0.3,0.5-0.5,0.7
			c-0.4,0.5-0.7,0.9-0.9,1.3c-0.2,0.4-0.4,0.7-0.5,1c-0.1,0.3-0.2,0.5-0.2,0.7c0,0.2,0,0.3,0,0.3c0,0.5,0.1,1,0.2,1.3
			c0.1,0.4,0.3,0.6,0.5,0.9c0.2,0.2,0.4,0.4,0.6,0.5c0.2,0.1,0.4,0.2,0.7,0.3c0.2,0.1,0.4,0.1,0.5,0.1s0.3,0,0.3,0
			c0.4,0,0.8-0.1,1.1-0.2c0.3-0.1,0.6-0.3,0.8-0.5c0.2-0.2,0.4-0.4,0.5-0.7c0.1-0.3,0.2-0.5,0.3-0.7c0.1-0.2,0.1-0.4,0.1-0.6
			c0-0.2,0-0.3,0-0.3v-4.8c0-1-0.6-1.4-1.8-1.4h-0.7v-1.8h0.7c0.6,0,1.1-0.1,1.4-0.4c0.3-0.3,0.5-0.7,0.5-1.3v-0.4h2.1v0.9
			C878.5-9.3,878-8.5,877-8.3z"/>
		<path class="st1" d="M878-16.8v3.7h-8.6v-2.1h3.5v-1.6h2v1.6h1.2v-1.6H878z"/>
		<path class="st1" d="M877.3-23.2v4.3h-2v-4.3H877.3z"/>
		<path class="st1" d="M891.9-1.3c-0.1,1-0.3,1.9-0.7,2.7c-0.2,0.3-0.4,0.7-0.7,1c-0.3,0.3-0.6,0.6-1,0.9s-0.8,0.5-1.3,0.6
			c-0.5,0.2-1.1,0.2-1.8,0.2c-0.7,0-1.3-0.1-1.8-0.2c-0.5-0.2-1-0.4-1.3-0.6s-0.7-0.5-1-0.9c-0.3-0.3-0.5-0.7-0.7-1
			c-0.4-0.8-0.7-1.7-0.7-2.7v-3.1h3.9v2.1H883v0.9c0,0.4,0,0.8,0.1,1.1c0.1,0.3,0.2,0.6,0.4,0.8c0.2,0.2,0.3,0.4,0.5,0.6
			c0.2,0.2,0.4,0.3,0.6,0.4c0.5,0.2,1.1,0.4,1.7,0.4c0.6,0,1.2-0.2,1.7-0.4c0.2-0.1,0.4-0.2,0.6-0.4s0.4-0.4,0.5-0.6
			c0.2-0.2,0.3-0.5,0.4-0.8c0.1-0.3,0.1-0.7,0.1-1.1v-4.6c0-0.4,0-0.7-0.1-1c-0.1-0.3-0.2-0.6-0.4-0.8c-0.2-0.2-0.3-0.4-0.5-0.6
			s-0.4-0.3-0.6-0.4c-0.5-0.2-1.1-0.4-1.7-0.4h-0.2c-0.1,0-0.4,0-0.7,0.1c-0.3,0.1-0.6,0.2-0.9,0.3c-0.3,0.2-0.6,0.4-0.9,0.7
			c-0.3,0.3-0.5,0.7-0.6,1.2h-2.1c0.1-0.3,0.1-0.5,0.2-0.9c0.1-0.3,0.2-0.7,0.4-1c0.2-0.3,0.4-0.7,0.7-1s0.6-0.6,1-0.9
			c0.4-0.3,0.8-0.5,1.3-0.6c0.5-0.2,1.1-0.2,1.7-0.2c0.7,0,1.2,0.1,1.8,0.2c0.5,0.2,1,0.4,1.3,0.6c0.4,0.3,0.7,0.6,1,0.9
			c0.3,0.3,0.5,0.7,0.7,1c0.4,0.8,0.7,1.7,0.7,2.7V-1.3z"/>
		<path class="st1" d="M904.7-11.3v9.4v0.2c0,0.2,0,0.4,0,0.8c0,0.3-0.1,0.7-0.2,1.2c-0.1,0.4-0.3,0.9-0.5,1.3
			c-0.2,0.5-0.5,0.9-0.9,1.2s-0.8,0.7-1.4,0.9c-0.6,0.2-1.2,0.4-2,0.4h-0.5c-0.6,0-1.1-0.2-1.6-0.3c-0.2-0.1-0.4-0.2-0.6-0.3
			c-0.2-0.1-0.4-0.3-0.5-0.4s-0.3-0.3-0.4-0.6C896,2.3,896,2.1,896,1.8v2.1h-2.1v-15.2h2.1v9.4c0,0,0,0.2,0,0.4
			c0,0.2,0.1,0.5,0.1,0.7c0.1,0.3,0.2,0.6,0.3,0.9c0.1,0.3,0.3,0.6,0.6,0.9c0.2,0.3,0.6,0.5,0.9,0.7c0.4,0.2,0.8,0.3,1.4,0.3
			c0.1,0,0.2,0,0.4,0c0.2,0,0.4-0.1,0.7-0.1c0.3-0.1,0.5-0.2,0.8-0.3c0.3-0.2,0.5-0.4,0.8-0.7c0.2-0.3,0.4-0.6,0.6-1.1
			c0.2-0.4,0.2-1,0.2-1.6v-9.4H904.7z"/>
		<path class="st1" d="M908.5,3.9v-15.4c0-0.3-0.1-0.6-0.2-0.9c-0.1-0.3-0.3-0.6-0.5-0.9c-0.2-0.3-0.4-0.6-0.6-0.9
			c-0.2-0.3-0.4-0.6-0.6-0.9c-0.2-0.3-0.3-0.6-0.5-0.9s-0.2-0.7-0.2-1c0-0.5,0-0.9,0.1-1.5s0.3-1,0.5-1.5c0.3-0.4,0.6-0.8,1.1-1.1
			c0.4-0.3,1-0.4,1.7-0.4h5.3v2.1h-4.8c-0.3,0-0.7,0.1-0.9,0.3c-0.1,0.1-0.2,0.2-0.3,0.3s-0.2,0.3-0.3,0.4c-0.1,0.2-0.2,0.4-0.2,0.6
			s-0.1,0.5-0.1,0.8c0,0.4,0.1,0.7,0.2,0.9c0.1,0.2,0.3,0.5,0.4,0.7s0.4,0.5,0.7,0.8c0.3,0.3,0.6,0.8,0.9,1.3
			c0.1,0.2,0.1,0.3,0.2,0.5c0,0.2,0.1,0.4,0.1,0.6c0,0.3,0.1,0.5,0.1,0.9v15H908.5z"/>
		<path class="st1" d="M923.6-11.3v10.9c0,0.6-0.1,1.2-0.3,1.7s-0.4,0.9-0.7,1.2c-0.3,0.3-0.6,0.6-0.9,0.8s-0.6,0.3-1,0.4
			c-0.3,0.1-0.6,0.2-0.8,0.2c-0.2,0-0.4,0-0.5,0h-2.6c-0.7,0-1.3-0.1-1.8-0.2c-0.5-0.2-0.9-0.4-1.2-0.6c-0.3-0.3-0.6-0.5-0.8-0.8
			c-0.2-0.3-0.3-0.6-0.4-0.9s-0.2-0.6-0.2-0.8c0-0.3,0-0.5,0-0.6c0-0.6,0.1-1.1,0.3-1.5c0.2-0.4,0.4-0.7,0.7-1s0.5-0.4,0.7-0.6
			c0.2-0.1,0.4-0.2,0.4-0.2c-0.3-0.1-0.5-0.1-0.7-0.3c-0.2-0.1-0.4-0.3-0.6-0.5c-0.2-0.2-0.3-0.4-0.4-0.6s-0.2-0.4-0.3-0.6
			c-0.2-0.5-0.3-1-0.3-1.5c0-0.5,0-1,0.1-1.5c0.1-0.4,0.2-0.8,0.4-1.1c0.2-0.3,0.3-0.6,0.5-0.8c0.2-0.2,0.4-0.4,0.6-0.5
			c0.5-0.3,1.1-0.5,1.7-0.5h2.8v2.1h-1.7c-0.3,0-0.6,0-0.8,0.1s-0.4,0.2-0.6,0.3c-0.2,0.1-0.3,0.2-0.4,0.4c-0.1,0.1-0.2,0.3-0.3,0.4
			c-0.2,0.3-0.3,0.7-0.3,1.1c0,0.4,0.1,0.7,0.2,1c0.1,0.3,0.3,0.5,0.4,0.6c0.2,0.2,0.4,0.3,0.6,0.4c0.2,0.1,0.4,0.2,0.6,0.2
			c0.2,0,0.3,0.1,0.5,0.1c0.1,0,0.2,0,0.2,0h1.7v2.1h-1.7c-0.4,0-0.7,0-0.9,0.1c-0.3,0.1-0.5,0.2-0.6,0.3c-0.2,0.1-0.3,0.3-0.4,0.4
			c-0.1,0.2-0.2,0.3-0.2,0.5s-0.1,0.3-0.1,0.4c0,0.1,0,0.2,0,0.2c0,0.4,0,0.7,0.1,1c0.1,0.3,0.2,0.5,0.4,0.6
			c0.1,0.2,0.3,0.3,0.5,0.4s0.4,0.2,0.5,0.2c0.2,0,0.3,0.1,0.4,0.1c0.1,0,0.2,0,0.3,0h0.1h2.5c0.5,0,0.9-0.1,1.2-0.3
			s0.5-0.5,0.6-0.7c0.2-0.3,0.3-0.7,0.3-1.1v-10.9H923.6z"/>
		<path class="st1" d="M928.3-11.3h4.1v11c0,0.7-0.1,1.3-0.3,1.8c-0.2,0.5-0.4,0.9-0.6,1.3s-0.5,0.6-0.8,0.8
			c-0.3,0.2-0.6,0.3-0.9,0.4c-0.3,0.1-0.5,0.1-0.7,0.2s-0.3,0-0.4,0c-0.6,0-1.1-0.1-1.5-0.3c-0.4-0.2-0.8-0.4-1.1-0.6
			c-0.3-0.2-0.6-0.5-0.8-0.8l1.4-1.5c0,0,0.1,0.1,0.2,0.2c0.1,0.1,0.2,0.2,0.4,0.3c0.2,0.1,0.4,0.2,0.6,0.3C928,2,928.3,2,928.6,2
			c0.2,0,0.4,0,0.5-0.1c0.2-0.1,0.3-0.2,0.4-0.3c0.1-0.1,0.2-0.2,0.3-0.4S930,1,930,0.8c0.1-0.3,0.2-0.7,0.2-1.2v-8.8h-2V-11.3z"/>
		<path class="st1" d="M942.5-11c0.6,0.3,1.1,0.6,1.5,1c0.4,0.4,0.7,0.8,0.9,1.3c0.2,0.5,0.4,0.9,0.5,1.4c0.1,0.4,0.2,0.8,0.2,1.2
			c0,0.3,0,0.6,0,0.8v0.1v9.3h-2.1v-9.3c0-0.5,0-0.9-0.1-1.2s-0.2-0.7-0.4-0.9c-0.2-0.3-0.3-0.5-0.5-0.7c-0.2-0.2-0.4-0.3-0.6-0.4
			c-0.5-0.3-1.1-0.4-1.7-0.5c-0.4,0-0.8,0.1-1.1,0.2c-0.3,0.1-0.6,0.3-0.8,0.4s-0.4,0.4-0.6,0.6c-0.2,0.2-0.3,0.5-0.4,0.7
			c-0.3,0.6-0.4,1.2-0.5,1.9v1.5c0.8-0.5,1.7-0.8,2.7-0.8c0.5,0,0.9,0.1,1.3,0.2v2.3c-0.2-0.1-0.4-0.1-0.6-0.2c-0.2,0-0.4,0-0.7,0
			c-0.6,0-1.2,0.2-1.7,0.5c-0.2,0.2-0.4,0.4-0.6,0.6c-0.2,0.3-0.3,0.5-0.4,0.8v4.2h-2.1v-9.4c0-0.9,0.1-1.7,0.3-2.4
			c0.2-0.7,0.5-1.2,0.9-1.6s0.7-0.8,1.2-1c0.4-0.3,0.8-0.4,1.2-0.6s0.8-0.2,1.1-0.2c0.3,0,0.5,0,0.7,0h0.1
			C941.1-11.4,941.8-11.3,942.5-11z"/>
		<path class="st1" d="M943.1,7.5h-1V5.4h1.9c0.3,0,0.5,0.1,0.7,0.3c0.2,0.2,0.3,0.5,0.3,0.8v4.5h-2V7.5z"/>
		<path class="st1" d="M967.9-11.3V3.9h-2.1V1.8c0,0.3-0.1,0.5-0.2,0.7c-0.1,0.2-0.2,0.4-0.4,0.6s-0.3,0.3-0.5,0.4
			c-0.2,0.1-0.4,0.2-0.6,0.3c-0.5,0.2-1,0.3-1.6,0.3h-0.5c-0.8,0-1.5-0.1-2-0.4s-1-0.5-1.4-0.9c-0.4-0.4-0.7-0.8-0.9-1.2
			s-0.4-0.9-0.5-1.3s-0.2-0.8-0.2-1.2c0-0.3,0-0.6,0-0.8c0-0.1,0-0.2,0-0.2v-3.7c0-0.6-0.1-1.1-0.2-1.5c-0.2-0.4-0.3-0.8-0.6-1
			c-0.2-0.3-0.5-0.5-0.8-0.6S955-8.9,954.7-9c-0.3-0.1-0.5-0.1-0.7-0.1s-0.3,0-0.4,0c-0.4,0-0.8,0.1-1.1,0.2
			c-0.3,0.1-0.6,0.2-0.8,0.4c-0.2,0.2-0.4,0.4-0.6,0.6c-0.2,0.2-0.3,0.4-0.4,0.7c-0.2,0.5-0.4,1.1-0.4,1.8v4.7
			c0,0.5,0.1,0.9,0.3,1.3c0.1,0.2,0.2,0.3,0.3,0.5c0.1,0.2,0.3,0.3,0.4,0.4s0.4,0.2,0.6,0.3s0.5,0.1,0.8,0.1h1.5v2.1h-2.8
			c-0.6,0-1.1-0.2-1.6-0.6c-0.2-0.1-0.4-0.3-0.6-0.5c-0.2-0.2-0.4-0.5-0.5-0.8s-0.3-0.7-0.4-1.1c-0.1-0.4-0.1-0.9-0.1-1.5v-0.3v-6.9
			c0.3-0.6,0.6-1.1,0.9-1.5s0.7-0.7,1.1-1c0.4-0.3,0.7-0.5,1.1-0.6s0.7-0.3,1-0.4c0.3-0.1,0.6-0.1,0.8-0.1c0.2,0,0.4,0,0.5,0h0.1
			c0.9,0,1.7,0.2,2.3,0.5s1.1,0.6,1.5,1c0.4,0.4,0.7,0.9,0.9,1.3c0.2,0.5,0.4,0.9,0.5,1.4s0.2,0.8,0.2,1.1s0,0.5,0,0.6v3.7
			c0,0.6,0.1,1.2,0.2,1.6c0.2,0.4,0.3,0.8,0.6,1.1s0.5,0.5,0.8,0.7s0.5,0.3,0.8,0.3c0.3,0.1,0.5,0.1,0.7,0.1c0.2,0,0.3,0,0.4,0
			c0.5,0,1-0.1,1.4-0.3c0.4-0.2,0.7-0.4,0.9-0.7c0.2-0.3,0.4-0.6,0.6-0.9c0.1-0.3,0.2-0.6,0.3-0.9c0.1-0.3,0.1-0.5,0.1-0.7
			c0-0.2,0-0.3,0-0.4v-9.4H967.9z"/>
		<path class="st1" d="M970.7,3.9V-7.7c0.3-0.6,0.6-1.1,0.9-1.5c0.3-0.4,0.7-0.7,1-1c0.4-0.3,0.7-0.5,1.1-0.6c0.4-0.2,0.7-0.3,1-0.4
			c0.3-0.1,0.6-0.1,0.8-0.1c0.2,0,0.4,0,0.5,0h0.1c0.7,0,1.3,0.1,1.8,0.3c0.5,0.2,1,0.4,1.3,0.6c0.4,0.3,0.7,0.6,1,0.9
			s0.5,0.7,0.7,1c0.2,0.3,0.3,0.7,0.4,1c0.1,0.3,0.2,0.6,0.2,0.9c0,0.3,0.1,0.5,0.1,0.7c0,0.2,0,0.3,0,0.4v9.4h-2.1v-9.4
			c0-0.6-0.1-1.1-0.2-1.5c-0.2-0.4-0.3-0.8-0.6-1c-0.2-0.3-0.5-0.5-0.8-0.6c-0.3-0.1-0.5-0.2-0.8-0.3c-0.3-0.1-0.5-0.1-0.7-0.1
			s-0.3,0-0.4,0c-0.4,0-0.8,0.1-1.1,0.2c-0.3,0.1-0.6,0.2-0.8,0.4c-0.2,0.2-0.4,0.4-0.6,0.6c-0.2,0.2-0.3,0.4-0.4,0.7
			c-0.2,0.5-0.4,1.1-0.4,1.8v9.4H970.7z"/>
		<path class="st1" d="M977.4-16.4v1.1h5.2v2.1h-6.3c-0.2,0-0.4,0-0.5-0.1c-0.1-0.1-0.2-0.2-0.3-0.3c-0.1-0.2-0.1-0.3-0.1-0.5v-2.3
			H977.4z"/>
		<path class="st1" d="M995.1-11.3v10c-0.1,1-0.3,1.9-0.8,2.7c-0.2,0.3-0.4,0.7-0.7,1c-0.3,0.3-0.6,0.6-1,0.9
			c-0.4,0.3-0.8,0.5-1.3,0.6c-0.5,0.2-1.1,0.2-1.8,0.2c-0.7,0-1.3-0.1-1.8-0.2c-0.5-0.2-1-0.4-1.3-0.6s-0.7-0.5-1-0.9
			c-0.3-0.3-0.5-0.7-0.7-1c-0.4-0.8-0.7-1.7-0.7-2.7v-10h2.1v10c0,0.4,0,0.8,0.1,1.1s0.2,0.6,0.4,0.8c0.2,0.2,0.3,0.4,0.5,0.6
			s0.4,0.3,0.6,0.4c0.5,0.2,1.1,0.4,1.7,0.4c0.6,0,1.2-0.2,1.7-0.4c0.2-0.1,0.4-0.2,0.6-0.4c0.2-0.2,0.4-0.4,0.5-0.6
			c0.2-0.2,0.3-0.5,0.4-0.8c0.1-0.3,0.1-0.7,0.1-1.1v-10H995.1z"/>
		<path class="st1" d="M881.2,19.4l-0.9-0.6c-0.2-0.2-0.5-0.3-0.7-0.4c-0.3-0.1-0.5-0.3-0.8-0.4s-0.5-0.2-0.8-0.2s-0.4-0.1-0.6-0.1
			c-0.3,0-0.6,0-0.9,0.1c-0.3,0.1-0.6,0.2-0.8,0.3c-0.2,0.2-0.4,0.4-0.5,0.7c-0.1,0.3-0.2,0.7-0.2,1.1s0.1,0.8,0.3,1.1
			c0.2,0.3,0.5,0.5,0.9,0.6c0.4,0.1,0.8,0.3,1.2,0.3c0.5,0.1,0.9,0.2,1.4,0.2s0.9,0.3,1.3,0.5c0.4,0.3,0.8,0.6,1.1,0.9
			c0.3,0.4,0.6,0.8,0.8,1.3s0.3,1,0.3,1.5c0,0.8-0.1,1.5-0.4,2c-0.3,0.6-0.6,1.1-1.1,1.4c-0.4,0.4-1,0.6-1.6,0.8
			c-0.6,0.2-1.2,0.3-1.9,0.3c-1,0-1.8-0.1-2.4-0.3c-0.7-0.2-1.2-0.5-1.7-0.8c-0.5-0.3-0.9-0.7-1.3-1.1l1.4-1.5
			c0.2,0.2,0.4,0.4,0.7,0.6c0.3,0.2,0.6,0.4,0.9,0.5c0.4,0.2,0.7,0.3,1.1,0.4s0.8,0.1,1.2,0.1c0.4,0,0.8-0.1,1.2-0.2
			c0.4-0.1,0.7-0.3,0.9-0.5s0.4-0.5,0.6-0.8c0.1-0.3,0.2-0.6,0.2-1c0-0.4-0.1-0.7-0.2-0.9c-0.1-0.2-0.2-0.4-0.4-0.5
			c-0.2-0.1-0.3-0.2-0.5-0.3c-0.2-0.1-0.3-0.1-0.4-0.1c0,0-0.2,0-0.4-0.1c-0.2,0-0.5-0.1-0.8-0.1c-0.3-0.1-0.6-0.1-0.9-0.2
			S876,24,875.9,24c-0.1,0-0.3-0.1-0.4-0.1c-0.2-0.1-0.4-0.2-0.6-0.3c-0.2-0.1-0.5-0.3-0.7-0.5c-0.2-0.2-0.5-0.4-0.7-0.7
			c-0.2-0.3-0.4-0.7-0.5-1.1c-0.1-0.4-0.2-0.9-0.2-1.4c0-0.8,0.1-1.5,0.4-2.1c0.3-0.6,0.6-1,1.1-1.4s0.9-0.6,1.5-0.8
			c0.5-0.2,1.1-0.2,1.7-0.2c0.6,0,1.1,0.1,1.6,0.2c0.5,0.1,0.9,0.3,1.2,0.5c0.4,0.2,0.8,0.4,1.1,0.7l1.1,0.8L881.2,19.4z"/>
		<path class="st1" d="M881.8,11.6v2.1H876v-2.8h-1V8.7h2.1c0.2,0,0.3,0.1,0.5,0.1c0.1,0.1,0.2,0.2,0.3,0.3c0.1,0.1,0.1,0.3,0.1,0.6
			v1.8H881.8z"/>
		<path class="st1" d="M886.4,15.4c0.1,0,0.2,0,0.4,0c0.2,0,0.4,0.1,0.7,0.1c0.3,0.1,0.6,0.2,0.9,0.4c0.3,0.2,0.6,0.4,0.8,0.8
			s0.5,0.8,0.6,1.3c0.2,0.5,0.3,1.1,0.3,1.9v10.8H888V19.9c0-0.4-0.1-0.8-0.2-1.1c-0.1-0.1-0.1-0.3-0.2-0.4s-0.2-0.3-0.3-0.4
			c-0.1-0.1-0.2-0.2-0.4-0.2c-0.2-0.1-0.3-0.1-0.5-0.1c-0.3,0-0.6,0-0.9,0.1c-0.2,0.1-0.4,0.2-0.6,0.3s-0.3,0.2-0.4,0.3
			c-0.1,0.1-0.2,0.2-0.2,0.2l-1.4-1.6c0.2-0.3,0.5-0.6,0.8-0.8c0.3-0.2,0.6-0.4,1.1-0.6S885.8,15.4,886.4,15.4z"/>
		<path class="st1" d="M895,15.5V25c0,0.6,0.1,1.2,0.2,1.6c0.2,0.4,0.3,0.8,0.6,1.1c0.2,0.3,0.5,0.5,0.8,0.7
			c0.3,0.2,0.5,0.3,0.8,0.3c0.3,0.1,0.5,0.1,0.7,0.1c0.2,0,0.3,0,0.4,0c0.5,0,1-0.1,1.4-0.3s0.7-0.4,0.9-0.7
			c0.2-0.3,0.4-0.6,0.6-0.9s0.2-0.6,0.3-0.9c0.1-0.3,0.1-0.5,0.1-0.7c0-0.2,0-0.3,0-0.4v-9.4h2.1v15.2h-2.1v-2.1
			c0,0.3-0.1,0.5-0.2,0.7c-0.1,0.2-0.2,0.4-0.4,0.6s-0.3,0.3-0.5,0.4s-0.4,0.2-0.6,0.3c-0.5,0.2-1,0.3-1.6,0.3h-0.5
			c-0.8,0-1.5-0.1-2-0.4c-0.6-0.2-1-0.5-1.4-0.9c-0.4-0.4-0.7-0.8-0.9-1.2c-0.2-0.5-0.4-0.9-0.5-1.3c-0.1-0.4-0.2-0.8-0.2-1.2
			c0-0.3,0-0.6,0-0.8V25v-9.4H895z"/>
		<path class="st1" d="M916.5,17c0.3,0.4,0.5,0.8,0.6,1.2c0.2,0.4,0.3,0.9,0.3,1.5v11h-2.1V20.5c0-0.6-0.1-1.2-0.3-1.6
			c-0.2-0.5-0.5-0.8-0.8-1.1l-2.3,1.6l-2.2-1.6c-0.4,0.3-0.6,0.6-0.8,1.1c-0.2,0.5-0.3,1-0.3,1.6V26c0,0.5,0.1,0.9,0.3,1.3
			c0.1,0.2,0.2,0.3,0.3,0.5c0.1,0.2,0.2,0.3,0.4,0.4c0.2,0.1,0.4,0.2,0.6,0.3s0.5,0.1,0.8,0.1h1.5v2.1h-2.8c-0.6,0-1.1-0.2-1.6-0.6
			c-0.2-0.1-0.4-0.3-0.6-0.5c-0.2-0.2-0.4-0.5-0.5-0.8s-0.3-0.7-0.4-1.1c-0.1-0.4-0.1-0.9-0.1-1.5v-6.6c0.1-1,0.4-1.9,1-2.7
			s1.2-1.3,2.1-1.6L912,17l2.4-1.6C915.3,15.7,916,16.3,916.5,17z"/>
		<path class="st1" d="M916,9.4v4.3h-2V9.4H916z"/>
		<path class="st1" d="M922.1,15.4c0.1,0,0.2,0,0.4,0c0.2,0,0.4,0.1,0.7,0.1c0.3,0.1,0.6,0.2,0.9,0.4s0.6,0.4,0.8,0.8
			c0.3,0.3,0.5,0.8,0.6,1.3c0.2,0.5,0.3,1.1,0.3,1.9v10.8h-2.1V19.9c0-0.4-0.1-0.8-0.2-1.1c-0.1-0.1-0.1-0.3-0.2-0.4
			s-0.2-0.3-0.3-0.4c-0.1-0.1-0.2-0.2-0.4-0.2c-0.2-0.1-0.3-0.1-0.5-0.1c-0.3,0-0.6,0-0.9,0.1c-0.2,0.1-0.4,0.2-0.6,0.3
			s-0.3,0.2-0.4,0.3c-0.1,0.1-0.2,0.2-0.2,0.2l-1.4-1.6c0.2-0.3,0.5-0.6,0.8-0.8c0.3-0.2,0.6-0.4,1.1-0.6
			C921,15.5,921.5,15.4,922.1,15.4z"/>
		<path class="st1" d="M930.5,15.5h4.1v11c0,0.7-0.1,1.3-0.3,1.8c-0.2,0.5-0.4,0.9-0.6,1.3s-0.5,0.6-0.8,0.8
			c-0.3,0.2-0.6,0.3-0.9,0.4c-0.3,0.1-0.5,0.1-0.7,0.2s-0.3,0-0.4,0c-0.6,0-1.1-0.1-1.5-0.3s-0.8-0.4-1.1-0.6
			c-0.3-0.2-0.6-0.5-0.8-0.8l1.4-1.5c0,0,0.1,0.1,0.2,0.2c0.1,0.1,0.2,0.2,0.4,0.3c0.2,0.1,0.4,0.2,0.6,0.3c0.2,0.1,0.5,0.1,0.8,0.1
			c0.2,0,0.4,0,0.5-0.1c0.2-0.1,0.3-0.2,0.4-0.3c0.1-0.1,0.2-0.2,0.3-0.4s0.1-0.3,0.2-0.4c0.1-0.3,0.2-0.7,0.2-1.2v-8.8h-2V15.5z"/>
		<path class="st1" d="M946,34.4h-2.1V20.8c0-0.1,0-0.3,0-0.6c0-0.3-0.1-0.5-0.1-0.8c-0.1-0.3-0.1-0.5-0.3-0.8
			c-0.1-0.3-0.3-0.5-0.5-0.6l-2,2.2l-2-2.2c-0.2,0.2-0.4,0.4-0.5,0.7c-0.1,0.3-0.2,0.6-0.3,0.9s-0.1,0.6-0.1,0.8c0,0.3,0,0.4,0,0.5
			v0.1h-2.1c0-0.9,0.1-1.7,0.2-2.3c0.2-0.6,0.4-1.2,0.6-1.6c0.2-0.4,0.5-0.7,0.8-1c0.3-0.2,0.6-0.4,0.8-0.5c0.3-0.1,0.5-0.2,0.7-0.2
			s0.3,0,0.3,0l1.3,1.4l0.2,0.2c0.4-0.4,0.6-0.7,0.8-0.9c0.2-0.2,0.3-0.4,0.4-0.5c0.1-0.1,0.2-0.2,0.2-0.2c0,0,0.1,0,0.3,0
			s0.4,0.1,0.7,0.2c0.3,0.1,0.5,0.3,0.8,0.5s0.6,0.5,0.8,0.9c0.2,0.4,0.5,0.9,0.6,1.5c0.2,0.6,0.3,1.3,0.3,2.2v0.3V34.4z"/>
		<path class="st1" d="M949.5,30.7V15.3c0-0.4,0-0.7,0.1-1c0.1-0.3,0.2-0.6,0.3-0.9c0.1-0.3,0.3-0.5,0.5-0.8s0.4-0.5,0.6-0.7
			s0.4-0.4,0.5-0.6s0.2-0.4,0.3-0.5c0.1-0.2,0.1-0.3,0.1-0.5s0-0.3,0-0.5c0-0.4-0.1-0.7-0.2-1c-0.1-0.3-0.3-0.5-0.5-0.7
			c-0.2-0.2-0.4-0.3-0.7-0.4c-0.3-0.1-0.6-0.1-0.8-0.1c-0.6,0-1,0.1-1.3,0.2c-0.3,0.1-0.5,0.2-0.7,0.4c-0.2,0.2-0.2,0.3-0.3,0.5
			h-1.8c0,0,0,0,0,0V8.4c0-0.1,0-0.3,0-0.4c0-0.2,0.1-0.4,0.2-0.6c0.1-0.2,0.2-0.4,0.4-0.7c0.2-0.2,0.4-0.4,0.7-0.6s0.7-0.3,1.1-0.5
			c0.4-0.1,1-0.2,1.6-0.2c0.7,0,1.2,0.1,1.7,0.2c0.5,0.2,0.8,0.4,1.1,0.6c0.3,0.3,0.5,0.5,0.7,0.8s0.3,0.6,0.4,0.9
			c0.1,0.3,0.1,0.6,0.2,0.9s0,0.5,0,0.7v0.3c0,0.2,0,0.4-0.1,0.6c0,0.2-0.1,0.5-0.2,0.7s-0.2,0.5-0.4,0.8c-0.2,0.3-0.4,0.6-0.7,1
			c-0.3,0.3-0.4,0.6-0.6,0.9c-0.1,0.3-0.2,0.5-0.3,0.7c-0.1,0.2-0.1,0.4-0.1,0.6v15.4H949.5z"/>
		<path class="st1" d="M957,15.5V25c0,0.6,0.1,1.2,0.2,1.6c0.2,0.4,0.3,0.8,0.6,1.1s0.5,0.5,0.8,0.7c0.3,0.2,0.5,0.3,0.8,0.3
			c0.3,0.1,0.5,0.1,0.7,0.1c0.2,0,0.3,0,0.4,0c0.5,0,1-0.1,1.4-0.3s0.7-0.4,0.9-0.7c0.2-0.3,0.4-0.6,0.6-0.9
			c0.1-0.3,0.2-0.6,0.3-0.9c0.1-0.3,0.1-0.5,0.1-0.7c0-0.2,0-0.3,0-0.4v-9.4h2.1v15.2h-2.1v-2.1c0,0.3-0.1,0.5-0.2,0.7
			c-0.1,0.2-0.2,0.4-0.4,0.6s-0.3,0.3-0.5,0.4s-0.4,0.2-0.6,0.3c-0.5,0.2-1,0.3-1.6,0.3h-0.5c-0.8,0-1.5-0.1-2-0.4
			c-0.6-0.2-1-0.5-1.4-0.9c-0.4-0.4-0.7-0.8-0.9-1.2s-0.4-0.9-0.5-1.3c-0.1-0.4-0.2-0.8-0.2-1.2s0-0.6,0-0.8V25v-9.4H957z"/>
		<path class="st1" d="M986.4,13v2.1l-6.1,15.6H978l6.1-15.6h-8.7V13H986.4z"/>
		<path class="st1" d="M875.8,34.3V50c-0.1,1-0.3,1.9-0.8,2.7c-0.2,0.3-0.4,0.7-0.7,1c-0.3,0.3-0.6,0.6-1,0.9s-0.8,0.5-1.3,0.6
			c-0.5,0.2-1.1,0.2-1.8,0.2c-0.7,0-1.3-0.1-1.8-0.2c-0.5-0.2-1-0.4-1.3-0.6s-0.7-0.5-1-0.9c-0.3-0.3-0.5-0.7-0.7-1
			c-0.4-0.8-0.7-1.7-0.7-2.7V40h2.1v10c0,0.4,0,0.8,0.1,1.1c0.1,0.3,0.2,0.6,0.4,0.8c0.2,0.2,0.3,0.4,0.5,0.6
			c0.2,0.2,0.4,0.3,0.6,0.4c0.5,0.2,1.1,0.4,1.7,0.4c0.6,0,1.2-0.2,1.7-0.4c0.2-0.1,0.4-0.2,0.6-0.4c0.2-0.2,0.4-0.3,0.5-0.6
			s0.3-0.5,0.4-0.8c0.1-0.3,0.1-0.7,0.1-1.1V34.3H875.8z"/>
		<path class="st1" d="M886.3,43.8l-0.9-0.6c-0.2-0.2-0.5-0.3-0.7-0.4c-0.3-0.1-0.5-0.3-0.8-0.4s-0.5-0.2-0.8-0.2
			c-0.2-0.1-0.4-0.1-0.6-0.1c-0.3,0-0.6,0-0.9,0.1c-0.3,0.1-0.6,0.2-0.8,0.3c-0.2,0.2-0.4,0.4-0.5,0.7c-0.1,0.3-0.2,0.7-0.2,1.1
			s0.1,0.8,0.3,1.1c0.2,0.3,0.5,0.5,0.9,0.6c0.4,0.1,0.8,0.3,1.2,0.3s0.9,0.2,1.4,0.2s0.9,0.3,1.3,0.5c0.4,0.3,0.8,0.6,1.1,0.9
			c0.3,0.4,0.6,0.8,0.8,1.3s0.3,1,0.3,1.5c0,0.8-0.1,1.5-0.4,2c-0.3,0.6-0.6,1.1-1.1,1.4c-0.4,0.4-1,0.6-1.6,0.8
			c-0.6,0.2-1.2,0.3-1.9,0.3c-1,0-1.8-0.1-2.4-0.3c-0.7-0.2-1.2-0.5-1.7-0.8c-0.5-0.3-0.9-0.7-1.3-1.1l1.4-1.5
			c0.2,0.2,0.4,0.4,0.7,0.6s0.6,0.4,0.9,0.5c0.4,0.2,0.7,0.3,1.1,0.4s0.8,0.1,1.2,0.1c0.4,0,0.8-0.1,1.2-0.2
			c0.4-0.1,0.7-0.3,0.9-0.5c0.2-0.2,0.4-0.5,0.6-0.8c0.1-0.3,0.2-0.6,0.2-1c0-0.4-0.1-0.7-0.2-0.9c-0.1-0.2-0.2-0.4-0.4-0.5
			c-0.2-0.1-0.3-0.2-0.5-0.3c-0.2-0.1-0.3-0.1-0.4-0.1c0,0-0.2,0-0.4-0.1c-0.2,0-0.5-0.1-0.8-0.1c-0.3-0.1-0.6-0.1-0.9-0.2
			s-0.5-0.1-0.7-0.1c-0.1,0-0.3-0.1-0.4-0.1c-0.2-0.1-0.4-0.2-0.6-0.3c-0.2-0.1-0.5-0.3-0.7-0.5c-0.2-0.2-0.5-0.4-0.7-0.7
			c-0.2-0.3-0.4-0.7-0.5-1.1c-0.1-0.4-0.2-0.9-0.2-1.4c0-0.8,0.1-1.5,0.4-2.1c0.3-0.6,0.6-1,1.1-1.4s0.9-0.6,1.5-0.8
			s1.1-0.2,1.7-0.2c0.6,0,1.1,0.1,1.6,0.2c0.5,0.1,0.9,0.3,1.2,0.5c0.4,0.2,0.8,0.4,1.1,0.7l1.1,0.8L886.3,43.8z"/>
		<path class="st1" d="M890.9,41.3v1.1h3.7v2.1h-4.7c-0.2,0-0.4,0-0.5-0.1c-0.1-0.1-0.2-0.2-0.3-0.3c-0.1-0.2-0.1-0.3-0.1-0.5v-2.3
			H890.9z M890.9,50.5v1.1h3.7v2.1h-4.7c-0.2,0-0.4,0-0.5-0.1c-0.1-0.1-0.2-0.2-0.3-0.3c-0.1-0.2-0.1-0.3-0.1-0.5v-2.3H890.9z"/>
		<path class="st1" d="M898.7,55.1h-2.1V39.9h2.1V55.1z"/>
		<path class="st1" d="M910.1,55.1v-9.4c0-0.6-0.1-1.1-0.2-1.5c-0.2-0.4-0.3-0.7-0.6-1c-0.2-0.3-0.5-0.5-0.8-0.6
			c-0.3-0.1-0.5-0.3-0.8-0.3s-0.5-0.1-0.7-0.1s-0.3,0-0.4,0c-0.5,0-1,0.1-1.4,0.2c-0.4,0.2-0.7,0.4-0.9,0.6s-0.4,0.5-0.6,0.8
			c-0.1,0.3-0.2,0.6-0.3,0.8c-0.1,0.3-0.1,0.5-0.1,0.7c0,0.2,0,0.3,0,0.3v9.4h-2.1V39.9h2.1V42c0-0.3,0.1-0.5,0.2-0.7
			c0.1-0.2,0.2-0.4,0.4-0.6c0.2-0.2,0.3-0.3,0.5-0.4c0.2-0.1,0.4-0.2,0.6-0.3c0.5-0.2,1-0.3,1.6-0.3h0.5c0.8,0,1.5,0.1,2,0.3
			c0.6,0.2,1,0.5,1.4,0.9c0.4,0.4,0.7,0.8,0.9,1.2c0.2,0.4,0.4,0.9,0.5,1.3c0.1,0.4,0.2,0.8,0.2,1.1c0,0.3,0,0.6,0,0.8v0.2v9.4
			H910.1z"/>
		<path class="st1" d="M926.5,39.7c0,0.1-0.1,0.2-0.2,0.4s-0.3,0.4-0.6,0.6c-0.2,0.2-0.4,0.4-0.6,0.6s-0.4,0.3-0.5,0.4
			c0.3,0.4,0.5,0.8,0.7,1.2s0.3,0.8,0.4,1.2c0.1,0.4,0.1,0.7,0.1,1s0,0.5,0,0.6v0.1v9.3h-2.1v-9.3c0-0.5,0-0.9-0.1-1.2
			s-0.2-0.7-0.4-0.9c-0.2-0.3-0.3-0.5-0.5-0.7c-0.2-0.2-0.4-0.3-0.6-0.4c-0.5-0.3-1.1-0.4-1.7-0.5c-0.4,0-0.8,0.1-1.1,0.2
			c-0.3,0.1-0.6,0.3-0.8,0.4s-0.4,0.4-0.6,0.6c-0.2,0.2-0.3,0.5-0.4,0.7c-0.3,0.6-0.4,1.2-0.5,1.9v1.5c0.4-0.2,0.8-0.4,1.3-0.6
			c0.4-0.1,0.9-0.2,1.4-0.2c0.4,0,0.9,0.1,1.3,0.2v2.4c-0.2-0.1-0.4-0.1-0.6-0.2c-0.2,0-0.4,0-0.7,0c-0.6,0-1.2,0.2-1.7,0.5
			c-0.2,0.2-0.4,0.4-0.6,0.6c-0.2,0.3-0.3,0.5-0.4,0.8v4.2h-2.1v-9.4c0-0.9,0.1-1.7,0.3-2.4c0.2-0.7,0.5-1.2,0.9-1.6s0.7-0.8,1.2-1
			c0.4-0.3,0.8-0.4,1.2-0.6c0.4-0.1,0.8-0.2,1.1-0.2c0.3,0,0.5,0,0.7,0h0.1c0.4,0,0.7,0,1.1,0.1s0.6,0.1,0.9,0.2c0,0,0.1,0,0.3-0.1
			c0.2,0,0.5-0.1,0.7-0.3c0.3-0.1,0.6-0.3,0.9-0.6c0.3-0.3,0.5-0.6,0.7-1c0.3,0.3,0.5,0.5,0.7,0.7c0.1,0.1,0.2,0.2,0.3,0.3
			c0.1,0.1,0.2,0.2,0.2,0.3c0.1,0.1,0.1,0.1,0.2,0.2C926.4,39.6,926.5,39.7,926.5,39.7z"/>
		<path class="st1" d="M929.5,55.1V39.7c0-0.4,0-0.7,0.1-1c0.1-0.3,0.2-0.6,0.3-0.9c0.1-0.3,0.3-0.5,0.5-0.8s0.4-0.5,0.6-0.7
			s0.4-0.4,0.5-0.6s0.2-0.4,0.3-0.5c0.1-0.2,0.1-0.3,0.1-0.5s0-0.3,0-0.5c0-0.4-0.1-0.7-0.2-1c-0.1-0.3-0.3-0.5-0.5-0.7
			c-0.2-0.2-0.4-0.3-0.7-0.4c-0.3-0.1-0.6-0.1-0.8-0.1c-0.6,0-1,0.1-1.3,0.2c-0.3,0.1-0.5,0.2-0.7,0.4c-0.2,0.2-0.2,0.3-0.3,0.5
			h-1.8c0,0,0,0,0,0v-0.1c0-0.1,0-0.3,0-0.4c0-0.2,0.1-0.4,0.2-0.6c0.1-0.2,0.2-0.4,0.4-0.7c0.2-0.2,0.4-0.4,0.7-0.6
			s0.7-0.3,1.1-0.5c0.4-0.1,1-0.2,1.6-0.2c0.7,0,1.2,0.1,1.7,0.2c0.5,0.2,0.8,0.4,1.1,0.6c0.3,0.3,0.5,0.5,0.7,0.8s0.3,0.6,0.4,0.9
			s0.1,0.6,0.2,0.9c0,0.3,0,0.5,0,0.7v0.3c0,0.2,0,0.4-0.1,0.6c0,0.2-0.1,0.5-0.2,0.7c-0.1,0.3-0.2,0.5-0.4,0.8
			c-0.2,0.3-0.4,0.6-0.7,1c-0.3,0.3-0.4,0.6-0.6,0.9c-0.1,0.3-0.2,0.5-0.3,0.7c-0.1,0.2-0.1,0.4-0.1,0.6v15.4H929.5z"/>
		<path class="st1" d="M937,39.9v9.4c0,0.6,0.1,1.2,0.2,1.6c0.2,0.4,0.3,0.8,0.6,1.1c0.2,0.3,0.5,0.5,0.8,0.7s0.5,0.3,0.8,0.3
			c0.3,0.1,0.5,0.1,0.7,0.1c0.2,0,0.3,0,0.4,0c0.5,0,1-0.1,1.4-0.3s0.7-0.4,0.9-0.7c0.2-0.3,0.4-0.6,0.6-0.9s0.2-0.6,0.3-0.9
			c0.1-0.3,0.1-0.5,0.1-0.7c0-0.2,0-0.3,0-0.4v-9.4h2.1v15.2h-2.1V53c0,0.3-0.1,0.5-0.2,0.7c-0.1,0.2-0.2,0.4-0.4,0.6
			s-0.3,0.3-0.5,0.4s-0.4,0.2-0.6,0.3c-0.5,0.2-1,0.3-1.6,0.3h-0.5c-0.8,0-1.5-0.1-2-0.4c-0.6-0.2-1-0.5-1.4-0.9
			c-0.4-0.4-0.7-0.8-0.9-1.2c-0.2-0.5-0.4-0.9-0.5-1.3c-0.1-0.4-0.2-0.8-0.2-1.2c0-0.3,0-0.6,0-0.8v-0.2v-9.4H937z"/>
		<path class="st1" d="M950.7,55.1h-2.1V39.9h2.1V55.1z"/>
		<path class="st1" d="M964.1,49.9c-0.1,1-0.3,1.9-0.7,2.7c-0.2,0.3-0.4,0.7-0.7,1c-0.3,0.3-0.6,0.6-1,0.9s-0.8,0.5-1.3,0.6
			c-0.5,0.2-1.1,0.2-1.8,0.2c-0.7,0-1.3-0.1-1.8-0.2c-0.5-0.2-1-0.4-1.3-0.6c-0.4-0.3-0.7-0.5-1-0.9c-0.3-0.3-0.5-0.7-0.7-1
			c-0.4-0.8-0.7-1.7-0.7-2.7v-3.1h3.9v2.1h-1.8v0.9c0,0.4,0,0.8,0.1,1.1c0.1,0.3,0.2,0.6,0.4,0.8c0.2,0.2,0.3,0.4,0.5,0.6
			c0.2,0.2,0.4,0.3,0.6,0.4c0.5,0.2,1.1,0.4,1.7,0.4c0.6,0,1.2-0.2,1.7-0.4c0.2-0.1,0.4-0.2,0.6-0.4s0.4-0.4,0.5-0.6
			c0.2-0.2,0.3-0.5,0.4-0.8s0.1-0.7,0.1-1.1v-4.6c0-0.4,0-0.7-0.1-1s-0.2-0.6-0.4-0.8c-0.2-0.2-0.3-0.4-0.5-0.6s-0.4-0.3-0.6-0.4
			c-0.5-0.2-1.1-0.4-1.7-0.4h-0.2c-0.1,0-0.4,0-0.7,0.1c-0.3,0.1-0.6,0.2-0.9,0.3c-0.3,0.2-0.6,0.4-0.9,0.7
			c-0.3,0.3-0.5,0.7-0.6,1.2h-2.1c0.1-0.3,0.1-0.5,0.2-0.9c0.1-0.3,0.2-0.7,0.4-1c0.2-0.3,0.4-0.7,0.7-1s0.6-0.6,1-0.9
			c0.4-0.3,0.8-0.5,1.3-0.6s1.1-0.2,1.7-0.2c0.7,0,1.2,0.1,1.8,0.2c0.5,0.2,1,0.4,1.3,0.6c0.4,0.3,0.7,0.6,1,0.9
			c0.3,0.3,0.5,0.7,0.7,1c0.4,0.8,0.7,1.7,0.7,2.7V49.9z"/>
		<path class="st1" d="M968.2,55.1h-2.1V39.9h2.1V55.1z"/>
		<path class="st1" d="M979.2,42.9c0.5,0.1,0.8,0.4,1.1,0.7s0.4,0.7,0.4,1.2v5.3c0,0.8-0.1,1.6-0.3,2.2c-0.2,0.6-0.5,1.1-0.8,1.5
			s-0.7,0.7-1.1,0.9s-0.8,0.4-1.2,0.5c-0.4,0.1-0.7,0.2-1,0.2c-0.3,0-0.5,0-0.5,0c-0.8,0-1.5-0.1-2.1-0.4c-0.6-0.2-1-0.5-1.4-0.9
			c-0.4-0.4-0.7-0.8-0.9-1.2c-0.2-0.4-0.4-0.9-0.5-1.2c-0.1-0.4-0.2-0.7-0.2-1s0-0.5,0-0.6c0-0.5,0.1-0.9,0.2-1.3
			c0.1-0.4,0.3-0.8,0.5-1.1c0.2-0.3,0.4-0.6,0.7-0.9c0.2-0.3,0.5-0.5,0.7-0.8s0.4-0.5,0.5-0.7c0.1-0.2,0.2-0.5,0.3-0.7
			c0-0.1,0-0.1,0-0.2c0-0.1,0-0.1,0-0.2c0-0.3-0.1-0.6-0.2-0.9c-0.1-0.2-0.2-0.4-0.4-0.6c-0.2-0.2-0.4-0.3-0.6-0.4
			c-0.2-0.1-0.4-0.2-0.6-0.2c-0.2,0-0.4-0.1-0.6-0.1c-0.2,0-0.3,0-0.4,0h-0.1v-2.1h1.2c0.6,0,1,0.1,1.4,0.3c0.4,0.2,0.7,0.4,1,0.7
			s0.5,0.6,0.6,0.9c0.2,0.3,0.3,0.7,0.4,1c0.1,0.3,0.1,0.6,0.2,0.9c0,0.3,0,0.5,0,0.7c0,0,0,0.1,0,0.1c0,0,0,0.1,0,0.1v0.1
			c0,0.3-0.1,0.5-0.2,0.8c-0.1,0.3-0.2,0.5-0.3,0.7c-0.1,0.2-0.3,0.5-0.5,0.7c-0.4,0.5-0.7,0.9-0.9,1.3c-0.2,0.4-0.4,0.7-0.5,1
			c-0.1,0.3-0.2,0.5-0.2,0.7c0,0.2,0,0.3,0,0.3c0,0.5,0.1,1,0.2,1.3c0.1,0.4,0.3,0.6,0.5,0.9c0.2,0.2,0.4,0.4,0.6,0.5
			c0.2,0.1,0.4,0.2,0.7,0.3c0.2,0.1,0.4,0.1,0.5,0.1s0.3,0,0.3,0c0.4,0,0.8-0.1,1.1-0.2c0.3-0.1,0.6-0.3,0.8-0.5
			c0.2-0.2,0.4-0.4,0.5-0.7c0.1-0.3,0.2-0.5,0.3-0.7c0.1-0.2,0.1-0.4,0.1-0.6c0-0.2,0-0.3,0-0.3v-4.8c0-1-0.6-1.4-1.8-1.4h-0.7v-1.8
			h0.7c0.6,0,1.1-0.1,1.4-0.4c0.3-0.3,0.5-0.7,0.5-1.3v-0.4h2.1v0.9C980.8,41.9,980.2,42.7,979.2,42.9z"/>
		<path class="st1" d="M979.1,34.6v3.5h-7.8V36h5.8v-1.4H979.1z"/>
		<path class="st1" d="M993.9,39.9v10.9c0,0.6-0.1,1.2-0.3,1.7c-0.2,0.5-0.4,0.9-0.7,1.2c-0.3,0.3-0.6,0.6-0.9,0.8
			c-0.3,0.2-0.6,0.3-1,0.4c-0.3,0.1-0.6,0.2-0.8,0.2c-0.2,0-0.4,0-0.5,0h-2.6c-0.7,0-1.3-0.1-1.8-0.2c-0.5-0.2-0.9-0.4-1.2-0.6
			c-0.3-0.3-0.6-0.5-0.8-0.8c-0.2-0.3-0.3-0.6-0.4-0.9c-0.1-0.3-0.2-0.6-0.2-0.8s0-0.5,0-0.6c0-0.6,0.1-1.1,0.3-1.5
			c0.2-0.4,0.4-0.7,0.7-1s0.5-0.4,0.7-0.6s0.4-0.2,0.4-0.2c-0.3-0.1-0.5-0.1-0.7-0.3c-0.2-0.1-0.4-0.3-0.6-0.5
			c-0.2-0.2-0.3-0.4-0.4-0.6c-0.1-0.2-0.2-0.4-0.3-0.6c-0.2-0.5-0.3-1-0.3-1.5c0-0.5,0-1,0.1-1.5c0.1-0.4,0.2-0.8,0.4-1.1
			s0.3-0.6,0.5-0.8c0.2-0.2,0.4-0.4,0.6-0.5c0.5-0.3,1.1-0.5,1.7-0.5h2.8V42h-1.7c-0.3,0-0.6,0-0.8,0.1s-0.4,0.2-0.6,0.3
			c-0.2,0.1-0.3,0.2-0.4,0.4c-0.1,0.1-0.2,0.3-0.3,0.4c-0.2,0.3-0.3,0.7-0.3,1.1c0,0.4,0.1,0.7,0.2,1c0.1,0.3,0.3,0.5,0.4,0.6
			s0.4,0.3,0.6,0.4s0.4,0.2,0.6,0.2c0.2,0,0.3,0.1,0.5,0.1c0.1,0,0.2,0,0.2,0h1.7v2.1h-1.7c-0.4,0-0.7,0-0.9,0.1
			c-0.3,0.1-0.5,0.2-0.6,0.3s-0.3,0.3-0.4,0.4s-0.2,0.3-0.2,0.5c0,0.2-0.1,0.3-0.1,0.4c0,0.1,0,0.2,0,0.2c0,0.4,0,0.7,0.1,1
			c0.1,0.3,0.2,0.5,0.4,0.6c0.1,0.2,0.3,0.3,0.5,0.4c0.2,0.1,0.4,0.2,0.5,0.2c0.2,0,0.3,0.1,0.4,0.1c0.1,0,0.2,0,0.3,0h0.1h2.5
			c0.5,0,0.9-0.1,1.2-0.3c0.3-0.2,0.5-0.5,0.6-0.7c0.2-0.3,0.3-0.7,0.3-1.1V39.9H993.9z"/>
		<path class="st1" d="M868.1,65.8c0.3,0.4,0.5,0.8,0.6,1.2c0.2,0.4,0.3,0.9,0.3,1.5v11H867V69.3c0-0.6-0.1-1.2-0.3-1.6
			c-0.2-0.5-0.5-0.8-0.8-1.1l-2.3,1.6l-2.2-1.6c-0.4,0.3-0.6,0.6-0.8,1.1c-0.2,0.5-0.3,1-0.3,1.6v5.4c0,0.5,0.1,0.9,0.3,1.3
			c0.1,0.2,0.2,0.3,0.3,0.5c0.1,0.2,0.2,0.3,0.4,0.4c0.2,0.1,0.4,0.2,0.6,0.3s0.5,0.1,0.8,0.1h1.5v2.1h-2.8c-0.6,0-1.1-0.2-1.6-0.6
			c-0.2-0.1-0.4-0.3-0.6-0.5c-0.2-0.2-0.4-0.5-0.5-0.8c-0.1-0.3-0.3-0.7-0.4-1.1c-0.1-0.4-0.1-0.9-0.1-1.5v-6.6c0.1-1,0.4-1.9,1-2.7
			c0.5-0.7,1.2-1.3,2.1-1.6l2.4,1.6l2.4-1.6C866.9,64.5,867.6,65.1,868.1,65.8z"/>
		<path class="st1" d="M873.1,65.7v1.1h3.7v2.1h-4.7c-0.2,0-0.4,0-0.5-0.1c-0.1-0.1-0.2-0.2-0.3-0.3c-0.1-0.2-0.1-0.3-0.1-0.5v-2.3
			H873.1z M873.1,74.9V76h3.7v2.1h-4.7c-0.2,0-0.4,0-0.5-0.1c-0.1-0.1-0.2-0.2-0.3-0.3c-0.1-0.2-0.1-0.3-0.1-0.5v-2.3H873.1z"/>
		<path class="st1" d="M883.1,64.2c0.1,0,0.3,0,0.6,0s0.6,0.1,0.9,0.2s0.7,0.3,1.1,0.5c0.4,0.2,0.7,0.5,1,0.9
			c0.3,0.4,0.6,0.9,0.8,1.5c0.2,0.6,0.3,1.3,0.3,2.1v5c0,1-0.2,1.8-0.6,2.6c-0.1,0.3-0.3,0.6-0.6,0.9s-0.5,0.6-0.8,0.8
			c-0.3,0.2-0.7,0.4-1.2,0.6c-0.4,0.1-1,0.2-1.5,0.2c-0.6,0-1.1-0.1-1.6-0.2c-0.5-0.2-0.8-0.4-1.2-0.6c-0.3-0.3-0.6-0.5-0.8-0.9
			s-0.4-0.6-0.5-1c0.1-0.1,0.2-0.1,0.4-0.2c0.2-0.1,0.3-0.2,0.5-0.3s0.3-0.2,0.5-0.3c0.2-0.1,0.3-0.2,0.4-0.2c0.1,0.4,0.4,0.7,0.6,1
			c0.3,0.2,0.5,0.4,0.8,0.5c0.3,0.1,0.6,0.2,1,0.2c0.5-0.1,0.9-0.2,1.3-0.5c0.2-0.1,0.3-0.2,0.5-0.4s0.3-0.3,0.4-0.5
			s0.2-0.4,0.3-0.7c0.1-0.3,0.1-0.6,0.1-0.9v-5c0-0.6-0.2-1.1-0.4-1.5c-0.1-0.2-0.2-0.4-0.3-0.6s-0.3-0.3-0.5-0.5s-0.4-0.3-0.6-0.3
			c-0.2-0.1-0.5-0.1-0.8-0.1c-0.4,0-0.8,0-1.2,0.1c-0.3,0.1-0.6,0.2-0.8,0.4c-0.2,0.2-0.4,0.4-0.6,0.7s-0.3,0.7-0.5,1.1h-2.1
			c0.1-0.7,0.2-1.3,0.4-1.9c0.2-0.6,0.6-1.1,1-1.5s0.9-0.7,1.6-0.9C881.4,64.3,882.1,64.2,883.1,64.2L883.1,64.2L883.1,64.2z"/>
		<path class="st1" d="M883.2,59.2v1.1h5.2v2.1h-6.3c-0.2,0-0.4,0-0.5-0.1c-0.1-0.1-0.2-0.2-0.3-0.3c-0.1-0.2-0.1-0.3-0.1-0.5v-2.3
			H883.2z"/>
		<path class="st1" d="M892.2,64.3v9.4c0,0.6,0.1,1.2,0.2,1.6c0.2,0.4,0.3,0.8,0.6,1.1c0.2,0.3,0.5,0.5,0.8,0.7
			c0.3,0.2,0.5,0.3,0.8,0.3c0.3,0.1,0.5,0.1,0.7,0.1c0.2,0,0.3,0,0.4,0c0.5,0,1-0.1,1.4-0.3s0.7-0.4,0.9-0.7
			c0.2-0.3,0.4-0.6,0.6-0.9s0.2-0.6,0.3-0.9s0.1-0.5,0.1-0.7s0-0.3,0-0.4v-9.4h2.1v15.2h-2.1v-2.1c0,0.3-0.1,0.5-0.2,0.7
			c-0.1,0.2-0.2,0.4-0.4,0.6s-0.3,0.3-0.5,0.4s-0.4,0.2-0.6,0.3c-0.5,0.2-1,0.3-1.6,0.3h-0.5c-0.8,0-1.5-0.1-2-0.4
			c-0.6-0.2-1-0.5-1.4-0.9s-0.7-0.8-0.9-1.2c-0.2-0.5-0.4-0.9-0.5-1.3c-0.1-0.4-0.2-0.8-0.2-1.2c0-0.3,0-0.6,0-0.8v-0.2v-9.4H892.2z
			"/>
		<path class="st1" d="M914.5,74.3c-0.1,1-0.3,1.9-0.7,2.7c-0.2,0.3-0.4,0.7-0.7,1c-0.3,0.3-0.6,0.6-1,0.9s-0.8,0.5-1.3,0.6
			c-0.5,0.2-1.1,0.2-1.8,0.2c-0.7,0-1.3-0.1-1.8-0.2c-0.5-0.2-1-0.4-1.3-0.6s-0.7-0.5-1-0.9c-0.3-0.3-0.5-0.7-0.7-1
			c-0.4-0.8-0.7-1.7-0.7-2.7v-3.1h3.9v2.1h-1.8v0.9c0,0.4,0,0.8,0.1,1.1s0.2,0.6,0.4,0.8c0.2,0.2,0.3,0.4,0.5,0.6s0.4,0.3,0.6,0.4
			c0.5,0.2,1.1,0.4,1.7,0.4c0.6,0,1.2-0.2,1.7-0.4c0.2-0.1,0.4-0.2,0.6-0.4c0.2-0.2,0.4-0.4,0.5-0.6c0.2-0.2,0.3-0.5,0.4-0.8
			s0.1-0.7,0.1-1.1v-4.6c0-0.4,0-0.7-0.1-1s-0.2-0.6-0.4-0.8c-0.2-0.2-0.3-0.4-0.5-0.6c-0.2-0.2-0.4-0.3-0.6-0.4
			c-0.5-0.2-1.1-0.4-1.7-0.4h-0.2c-0.1,0-0.4,0-0.7,0.1c-0.3,0.1-0.6,0.2-0.9,0.3s-0.6,0.4-0.9,0.7c-0.3,0.3-0.5,0.7-0.6,1.2h-2.1
			c0.1-0.3,0.1-0.5,0.2-0.9c0.1-0.3,0.2-0.7,0.4-1c0.2-0.3,0.4-0.7,0.7-1s0.6-0.6,1-0.9c0.4-0.3,0.8-0.5,1.3-0.6s1.1-0.2,1.7-0.2
			c0.7,0,1.2,0.1,1.8,0.2c0.5,0.2,1,0.4,1.3,0.6c0.4,0.3,0.7,0.6,1,0.9c0.3,0.3,0.5,0.7,0.7,1c0.4,0.8,0.7,1.7,0.7,2.7V74.3z"/>
		<path class="st1" d="M927.2,74.3c-0.1,1-0.3,1.9-0.7,2.7c-0.2,0.3-0.4,0.7-0.7,1c-0.3,0.3-0.6,0.6-1,0.9s-0.8,0.5-1.3,0.6
			c-0.5,0.2-1.1,0.2-1.8,0.2c-0.7,0-1.3-0.1-1.8-0.2c-0.5-0.2-1-0.4-1.3-0.6s-0.7-0.5-1-0.9c-0.3-0.3-0.5-0.7-0.7-1
			c-0.4-0.8-0.7-1.7-0.7-2.7v-3.1h3.9v2.1h-1.8v0.9c0,0.4,0,0.8,0.1,1.1c0.1,0.3,0.2,0.6,0.4,0.8c0.2,0.2,0.3,0.4,0.5,0.6
			c0.2,0.2,0.4,0.3,0.6,0.4c0.5,0.2,1.1,0.4,1.7,0.4c0.6,0,1.2-0.2,1.7-0.4c0.2-0.1,0.4-0.2,0.6-0.4s0.4-0.4,0.5-0.6
			c0.2-0.2,0.3-0.5,0.4-0.8c0.1-0.3,0.1-0.7,0.1-1.1v-4.6c0-0.4,0-0.7-0.1-1c-0.1-0.3-0.2-0.6-0.4-0.8c-0.2-0.2-0.3-0.4-0.5-0.6
			s-0.4-0.3-0.6-0.4c-0.5-0.2-1.1-0.4-1.7-0.4h-0.2c-0.1,0-0.4,0-0.7,0.1c-0.3,0.1-0.6,0.2-0.9,0.3c-0.3,0.2-0.6,0.4-0.9,0.7
			c-0.3,0.3-0.5,0.7-0.6,1.2h-2.1c0.1-0.3,0.1-0.5,0.2-0.9c0.1-0.3,0.2-0.7,0.4-1c0.2-0.3,0.4-0.7,0.7-1s0.6-0.6,1-0.9
			c0.4-0.3,0.8-0.5,1.3-0.6c0.5-0.2,1.1-0.2,1.7-0.2c0.7,0,1.2,0.1,1.8,0.2c0.5,0.2,1,0.4,1.3,0.6c0.4,0.3,0.7,0.6,1,0.9
			c0.3,0.3,0.5,0.7,0.7,1c0.4,0.8,0.7,1.7,0.7,2.7V74.3z"/>
		<path class="st1" d="M929.2,79.5V67.9c0.3-0.6,0.6-1.1,0.9-1.5c0.3-0.4,0.7-0.7,1-1c0.4-0.3,0.7-0.5,1.1-0.6
			c0.4-0.2,0.7-0.3,1-0.4c0.3-0.1,0.6-0.1,0.8-0.1s0.4,0,0.5,0h0.1c0.7,0,1.3,0.1,1.8,0.3s1,0.4,1.3,0.6c0.4,0.3,0.7,0.6,1,0.9
			s0.5,0.7,0.7,1s0.3,0.7,0.4,1s0.2,0.6,0.2,0.9c0,0.3,0.1,0.5,0.1,0.7c0,0.2,0,0.3,0,0.4v9.4h-2.1v-9.4c0-0.6-0.1-1.1-0.2-1.5
			c-0.2-0.4-0.3-0.8-0.6-1c-0.2-0.3-0.5-0.5-0.8-0.6s-0.5-0.2-0.8-0.3c-0.3-0.1-0.5-0.1-0.7-0.1c-0.2,0-0.3,0-0.4,0
			c-0.4,0-0.8,0.1-1.1,0.2c-0.3,0.1-0.6,0.2-0.8,0.4s-0.4,0.4-0.6,0.6c-0.2,0.2-0.3,0.4-0.4,0.7c-0.2,0.5-0.4,1.1-0.4,1.8v9.4H929.2
			z"/>
		<path class="st1" d="M944.9,79.5h-2.1V64.3h2.1V79.5z"/>
		<path class="st1" d="M953.6,64.2c0.7,0,1.2,0.1,1.8,0.2c0.5,0.2,1,0.4,1.3,0.6c0.4,0.3,0.7,0.6,1,0.9c0.3,0.3,0.5,0.7,0.7,1
			c0.4,0.8,0.7,1.7,0.7,2.7v9.8H957v-2.1c0,0.3-0.1,0.5-0.2,0.7c-0.1,0.2-0.2,0.4-0.4,0.6s-0.3,0.3-0.5,0.4s-0.4,0.2-0.6,0.3
			c-0.5,0.2-1,0.3-1.6,0.3h-0.5c-0.8,0-1.5-0.1-2-0.4c-0.6-0.2-1-0.6-1.4-0.9c-0.4-0.4-0.7-0.8-0.9-1.3c-0.2-0.5-0.4-0.9-0.5-1.4
			c-0.1-0.4-0.2-0.9-0.2-1.2c0-0.4,0-0.7,0-0.9h-0.7v-2.1h2.8v2.2c0,0.6,0.1,1.2,0.2,1.6c0.2,0.4,0.3,0.8,0.6,1.1
			c0.2,0.3,0.5,0.5,0.8,0.7c0.3,0.2,0.5,0.3,0.8,0.3c0.3,0.1,0.5,0.1,0.7,0.1c0.2,0,0.3,0,0.4,0c0.5,0,1-0.1,1.4-0.3
			s0.7-0.4,0.9-0.7c0.2-0.3,0.4-0.6,0.6-0.9s0.2-0.6,0.3-0.9c0.1-0.3,0.1-0.5,0.1-0.7c0-0.2,0-0.3,0-0.4v-4.1c0-0.4,0-0.7-0.1-1
			c-0.1-0.3-0.2-0.6-0.4-0.8c-0.2-0.2-0.3-0.4-0.5-0.6s-0.4-0.3-0.6-0.4c-0.5-0.2-1.1-0.4-1.7-0.4h-0.2c-0.1,0-0.4,0-0.7,0.1
			c-0.3,0.1-0.6,0.2-0.9,0.3c-0.3,0.2-0.6,0.4-0.9,0.7c-0.3,0.3-0.5,0.7-0.6,1.2h-2.1c0.1-0.3,0.1-0.5,0.2-0.9
			c0.1-0.3,0.2-0.7,0.4-1c0.2-0.3,0.4-0.7,0.7-1c0.3-0.3,0.6-0.6,1-0.9c0.4-0.3,0.8-0.5,1.3-0.6C952.3,64.3,952.9,64.2,953.6,64.2z"
			/>
		<path class="st1" d="M957.7,59v3.5h-7.8v-2.1h5.8V59H957.7z"/>
		<path class="st1" d="M972.5,64.3v10.9c0,0.6-0.1,1.2-0.3,1.7s-0.4,0.9-0.7,1.2c-0.3,0.3-0.6,0.6-0.9,0.8c-0.3,0.2-0.6,0.3-1,0.4
			c-0.3,0.1-0.6,0.2-0.8,0.2c-0.2,0-0.4,0-0.5,0h-2.6c-0.7,0-1.3-0.1-1.8-0.2c-0.5-0.2-0.9-0.4-1.2-0.6c-0.3-0.3-0.6-0.5-0.8-0.8
			c-0.2-0.3-0.3-0.6-0.4-0.9s-0.2-0.6-0.2-0.8s0-0.5,0-0.6c0-0.6,0.1-1.1,0.3-1.5c0.2-0.4,0.4-0.7,0.7-1c0.3-0.3,0.5-0.4,0.7-0.6
			s0.4-0.2,0.4-0.2c-0.3-0.1-0.5-0.1-0.7-0.3c-0.2-0.1-0.4-0.3-0.6-0.5c-0.2-0.2-0.3-0.4-0.4-0.6s-0.2-0.4-0.3-0.6
			c-0.2-0.5-0.3-1-0.3-1.5c0-0.5,0-1,0.1-1.5c0.1-0.4,0.2-0.8,0.4-1.1s0.3-0.6,0.5-0.8c0.2-0.2,0.4-0.4,0.6-0.5
			c0.5-0.3,1.1-0.5,1.7-0.5h2.8v2.1h-1.7c-0.3,0-0.6,0-0.8,0.1s-0.4,0.2-0.6,0.3c-0.2,0.1-0.3,0.2-0.4,0.4c-0.1,0.1-0.2,0.3-0.3,0.4
			c-0.2,0.3-0.3,0.7-0.3,1.1c0,0.4,0.1,0.7,0.2,1c0.1,0.3,0.3,0.5,0.4,0.6c0.2,0.2,0.4,0.3,0.6,0.4s0.4,0.2,0.6,0.2
			c0.2,0,0.3,0.1,0.5,0.1s0.2,0,0.2,0h1.7v2.1h-1.7c-0.4,0-0.7,0-0.9,0.1c-0.3,0.1-0.5,0.2-0.6,0.3c-0.2,0.1-0.3,0.3-0.4,0.4
			c-0.1,0.2-0.2,0.3-0.2,0.5c0,0.2-0.1,0.3-0.1,0.4c0,0.1,0,0.2,0,0.2c0,0.4,0,0.7,0.1,1c0.1,0.3,0.2,0.5,0.4,0.6
			c0.1,0.2,0.3,0.3,0.5,0.4c0.2,0.1,0.4,0.2,0.5,0.2c0.2,0,0.3,0.1,0.4,0.1c0.1,0,0.2,0,0.3,0h0.1h2.5c0.5,0,0.9-0.1,1.2-0.3
			c0.3-0.2,0.5-0.5,0.6-0.7c0.2-0.3,0.3-0.7,0.3-1.1V64.3H972.5z"/>
		<path class="st1" d="M977.2,64.3h4.1v11c0,0.7-0.1,1.3-0.3,1.8c-0.2,0.5-0.4,0.9-0.6,1.3c-0.3,0.3-0.5,0.6-0.8,0.8
			c-0.3,0.2-0.6,0.3-0.9,0.4c-0.3,0.1-0.5,0.1-0.7,0.2s-0.3,0-0.4,0c-0.6,0-1.1-0.1-1.5-0.3s-0.8-0.4-1.1-0.6
			c-0.3-0.2-0.6-0.5-0.8-0.8l1.4-1.5c0,0,0.1,0.1,0.2,0.2c0.1,0.1,0.2,0.2,0.4,0.3s0.4,0.2,0.6,0.3c0.2,0.1,0.5,0.1,0.8,0.1
			c0.2,0,0.4,0,0.5-0.1c0.2-0.1,0.3-0.2,0.4-0.3c0.1-0.1,0.2-0.2,0.3-0.4s0.1-0.3,0.2-0.4c0.1-0.3,0.2-0.7,0.2-1.2v-8.8h-2V64.3z"/>
		<path class="st1" d="M984.6,79.5V64.1c0-0.4,0-0.7,0.1-1c0.1-0.3,0.2-0.6,0.3-0.9c0.1-0.3,0.3-0.5,0.5-0.8s0.4-0.5,0.6-0.7
			s0.4-0.4,0.5-0.6c0.1-0.2,0.2-0.4,0.3-0.5s0.1-0.3,0.1-0.5s0-0.3,0-0.5c0-0.4-0.1-0.7-0.2-1c-0.1-0.3-0.3-0.5-0.5-0.7
			c-0.2-0.2-0.4-0.3-0.7-0.4c-0.3-0.1-0.6-0.1-0.8-0.1c-0.6,0-1,0.1-1.3,0.2c-0.3,0.1-0.5,0.2-0.7,0.4c-0.2,0.2-0.2,0.3-0.3,0.5
			h-1.8c0,0,0,0,0,0v-0.1c0-0.1,0-0.3,0-0.4c0-0.2,0.1-0.4,0.2-0.6c0.1-0.2,0.2-0.4,0.4-0.7c0.2-0.2,0.4-0.4,0.7-0.6
			s0.7-0.3,1.1-0.5c0.4-0.1,1-0.2,1.6-0.2c0.7,0,1.2,0.1,1.7,0.2c0.5,0.2,0.8,0.4,1.1,0.6c0.3,0.3,0.5,0.5,0.7,0.8
			c0.2,0.3,0.3,0.6,0.4,0.9s0.1,0.6,0.2,0.9s0,0.5,0,0.7v0.3c0,0.2,0,0.4-0.1,0.6c0,0.2-0.1,0.5-0.2,0.7s-0.2,0.5-0.4,0.8
			c-0.2,0.3-0.4,0.6-0.7,1c-0.3,0.3-0.4,0.6-0.6,0.9c-0.1,0.3-0.2,0.5-0.3,0.7c-0.1,0.2-0.1,0.4-0.1,0.6v15.4H984.6z"/>
		<path class="st1" d="M1000,65.8c0.3,0.4,0.5,0.8,0.6,1.2c0.2,0.4,0.3,0.9,0.3,1.5v11h-2.1V69.3c0-0.6-0.1-1.2-0.3-1.6
			c-0.2-0.5-0.5-0.8-0.8-1.1l-2.3,1.6l-2.2-1.6c-0.4,0.3-0.6,0.6-0.8,1.1c-0.2,0.5-0.3,1-0.3,1.6v5.4c0,0.5,0.1,0.9,0.3,1.3
			c0.1,0.2,0.2,0.3,0.3,0.5c0.1,0.2,0.2,0.3,0.4,0.4c0.2,0.1,0.4,0.2,0.6,0.3s0.5,0.1,0.8,0.1h1.5v2.1h-2.8c-0.6,0-1.1-0.2-1.6-0.6
			c-0.2-0.1-0.4-0.3-0.6-0.5c-0.2-0.2-0.4-0.5-0.5-0.8s-0.3-0.7-0.4-1.1c-0.1-0.4-0.1-0.9-0.1-1.5v-6.6c0.1-1,0.4-1.9,1-2.7
			s1.2-1.3,2.1-1.6l2.4,1.6l2.4-1.6C998.7,64.5,999.4,65.1,1000,65.8z"/>
		<path class="st1" d="M1001,60.4v2.1h-5.8v-2.8h-1v-2.1h2.1c0.2,0,0.3,0.1,0.5,0.1c0.1,0.1,0.2,0.2,0.3,0.3
			c0.1,0.1,0.1,0.3,0.1,0.6v1.8H1001z"/>
		<path class="st1" d="M890.3,103.9h-2.1V88.7h2.1V103.9z M894.7,103.9h-2.1V88.7h2.1V103.9z"/>
		<path class="st1" d="M904.4,89c0.6,0.3,1.1,0.6,1.5,1s0.7,0.8,1,1.3c0.2,0.5,0.4,0.9,0.5,1.4c0.1,0.4,0.2,0.8,0.2,1.2s0,0.6,0,0.8
			v0.1v9.3h-2.1v-4.5c0-0.4-0.1-0.8-0.3-1.1c-0.2-0.3-0.4-0.5-0.7-0.7c-0.3-0.2-0.6-0.3-0.9-0.5c-0.3-0.1-0.6-0.2-0.9-0.2
			c-0.3-0.1-0.6-0.1-1-0.1c0,0-0.1,0-0.3,0s-0.3,0-0.5,0.1c-0.2,0.1-0.4,0.1-0.7,0.2c-0.2,0.1-0.5,0.2-0.7,0.4
			c-0.2,0.2-0.4,0.4-0.6,0.7c-0.2,0.3-0.3,0.6-0.4,1.1c0,0.1,0,0.3,0,0.4c0,0.3,0.1,0.6,0.2,0.8c0.1,0.2,0.3,0.4,0.6,0.6
			c0.2,0.2,0.5,0.3,0.8,0.4s0.6,0.2,0.8,0.2s0.5,0.1,0.7,0.1c0.2,0,0.4,0,0.5,0h0.2v2.1h-2.3c-0.5,0-0.9-0.1-1.4-0.3
			c-0.4-0.2-0.8-0.5-1.1-0.9c-0.3-0.4-0.6-0.8-0.8-1.4c-0.2-0.5-0.3-1.1-0.3-1.6c0-0.6,0.1-1.1,0.3-1.7c0.2-0.6,0.6-1.1,1.2-1.7
			c0.3-0.3,0.7-0.6,1-0.8c0.3-0.2,0.7-0.4,1-0.5c0.3-0.1,0.7-0.2,1-0.3s0.7-0.1,1-0.1c0.5,0,0.9,0,1.3,0.1c0.4,0.1,0.8,0.2,1.1,0.3
			c0.4,0.1,0.7,0.3,1,0.5v-0.9c0-0.5,0-0.9-0.1-1.2s-0.2-0.7-0.4-0.9c-0.2-0.3-0.3-0.5-0.5-0.7c-0.2-0.2-0.4-0.3-0.6-0.4
			c-0.5-0.3-1.1-0.4-1.7-0.5c-0.6,0-1,0.1-1.4,0.3c-0.4,0.2-0.7,0.5-1,0.8c-0.3,0.3-0.4,0.6-0.6,1c-0.1,0.3-0.2,0.6-0.3,0.9h-2.2
			c0.1-0.8,0.2-1.6,0.4-2.1s0.5-1.1,0.9-1.5c0.4-0.4,0.7-0.7,1.1-0.9c0.4-0.2,0.8-0.4,1.2-0.5c0.4-0.1,0.7-0.2,1-0.2
			c0.3,0,0.5,0,0.6,0h0.1C903,88.6,903.8,88.7,904.4,89z"/>
		<path class="st1" d="M911.3,90.1v1.1h3.7v2.1h-4.7c-0.2,0-0.4,0-0.5-0.1c-0.1-0.1-0.2-0.2-0.3-0.3c-0.1-0.2-0.1-0.3-0.1-0.5v-2.3
			H911.3z M911.3,99.3v1.1h3.7v2.1h-4.7c-0.2,0-0.4,0-0.5-0.1c-0.1-0.1-0.2-0.2-0.3-0.3c-0.1-0.2-0.1-0.3-0.1-0.5v-2.3H911.3z"/>
		<path class="st1" d="M928.6,88.5c0,0.1-0.1,0.2-0.2,0.4c-0.2,0.2-0.3,0.4-0.5,0.6c-0.2,0.2-0.4,0.4-0.6,0.6s-0.4,0.3-0.5,0.4
			c0.3,0.4,0.5,0.8,0.7,1.2c0.2,0.4,0.3,0.8,0.4,1.1c0.1,0.4,0.2,0.8,0.2,1.2v4.6c-0.1,1-0.3,1.9-0.7,2.7c-0.2,0.3-0.4,0.7-0.7,1
			c-0.3,0.3-0.6,0.6-1,0.9s-0.8,0.5-1.3,0.6c-0.5,0.2-1.1,0.2-1.8,0.2c-0.7,0-1.3-0.1-1.8-0.2c-0.5-0.2-1-0.4-1.3-0.6
			s-0.7-0.5-1-0.9c-0.3-0.3-0.5-0.7-0.7-1c-0.4-0.8-0.7-1.7-0.7-2.7v-3.1h3.9v2.1h-1.8v0.9c0,0.4,0,0.8,0.1,1.1s0.2,0.6,0.4,0.8
			c0.2,0.2,0.3,0.4,0.5,0.6s0.4,0.3,0.6,0.4c0.5,0.2,1.1,0.4,1.7,0.4c0.6,0,1.2-0.2,1.7-0.4c0.2-0.1,0.4-0.2,0.6-0.4
			c0.2-0.2,0.4-0.4,0.5-0.6c0.2-0.2,0.3-0.5,0.4-0.8s0.1-0.7,0.1-1.1v-4.6c0-0.4,0-0.7-0.1-1s-0.2-0.6-0.4-0.8
			c-0.2-0.2-0.3-0.4-0.5-0.6c-0.2-0.2-0.4-0.3-0.6-0.4c-0.5-0.2-1.1-0.4-1.7-0.4h-0.2c-0.1,0-0.4,0-0.7,0.1
			c-0.3,0.1-0.6,0.2-0.9,0.3c-0.3,0.2-0.6,0.4-0.9,0.7c-0.3,0.3-0.5,0.7-0.6,1.2h-2.1c0.1-0.3,0.1-0.5,0.2-0.9
			c0.1-0.3,0.2-0.7,0.4-1c0.2-0.3,0.4-0.7,0.7-1s0.6-0.6,1-0.9c0.4-0.3,0.8-0.5,1.3-0.6s1.1-0.2,1.7-0.2c0.4,0,0.7,0,1.1,0.1
			c0.3,0.1,0.6,0.1,0.9,0.2c0.4-0.1,0.7-0.2,1-0.3c0.3-0.1,0.6-0.3,0.9-0.6s0.6-0.6,0.8-1.1c0.3,0.3,0.5,0.5,0.7,0.7
			c0.2,0.2,0.4,0.4,0.5,0.5C928.5,88.4,928.6,88.5,928.6,88.5z"/>
		<path class="st1" d="M926.2,82.6v4.3h-2v-4.3H926.2z"/>
		<path class="st1" d="M941,98.7c-0.1,1-0.3,1.9-0.7,2.7c-0.2,0.3-0.4,0.7-0.7,1c-0.3,0.3-0.6,0.6-1,0.9c-0.4,0.3-0.8,0.5-1.3,0.6
			c-0.5,0.2-1.1,0.2-1.8,0.2c-0.7,0-1.3-0.1-1.8-0.2c-0.5-0.2-1-0.4-1.3-0.6s-0.7-0.5-1-0.9c-0.3-0.3-0.5-0.7-0.7-1
			c-0.4-0.8-0.7-1.7-0.7-2.7v-3.1h3.9v2.1h-1.8v0.9c0,0.4,0,0.8,0.1,1.1s0.2,0.6,0.4,0.8c0.2,0.2,0.3,0.4,0.5,0.6s0.4,0.3,0.6,0.4
			c0.5,0.2,1.1,0.4,1.7,0.4c0.6,0,1.2-0.2,1.7-0.4c0.2-0.1,0.4-0.2,0.6-0.4c0.2-0.2,0.4-0.4,0.5-0.6c0.2-0.2,0.3-0.5,0.4-0.8
			c0.1-0.3,0.1-0.7,0.1-1.1v-4.6c0-0.4,0-0.7-0.1-1c-0.1-0.3-0.2-0.6-0.4-0.8s-0.3-0.4-0.5-0.6c-0.2-0.2-0.4-0.3-0.6-0.4
			c-0.5-0.2-1.1-0.4-1.7-0.4h-0.2c-0.1,0-0.4,0-0.7,0.1c-0.3,0.1-0.6,0.2-0.9,0.3c-0.3,0.2-0.6,0.4-0.9,0.7
			c-0.3,0.3-0.5,0.7-0.6,1.2h-2.1c0.1-0.3,0.1-0.5,0.2-0.9c0.1-0.3,0.2-0.7,0.4-1c0.2-0.3,0.4-0.7,0.7-1s0.6-0.6,1-0.9
			c0.4-0.3,0.8-0.5,1.3-0.6s1.1-0.2,1.7-0.2c0.7,0,1.2,0.1,1.8,0.2c0.5,0.2,1,0.4,1.3,0.6c0.4,0.3,0.7,0.6,1,0.9
			c0.3,0.3,0.5,0.7,0.7,1c0.4,0.8,0.7,1.7,0.7,2.7V98.7z"/>
		<path class="st1" d="M944.9,88.7h4.1v11c0,0.7-0.1,1.3-0.3,1.8c-0.2,0.5-0.4,0.9-0.6,1.3s-0.5,0.6-0.8,0.8
			c-0.3,0.2-0.6,0.3-0.9,0.4c-0.3,0.1-0.5,0.1-0.7,0.2s-0.3,0-0.4,0c-0.6,0-1.1-0.1-1.5-0.3s-0.8-0.4-1.1-0.6
			c-0.3-0.2-0.6-0.5-0.8-0.8l1.4-1.5c0,0,0.1,0.1,0.2,0.2c0.1,0.1,0.2,0.2,0.4,0.3c0.2,0.1,0.4,0.2,0.6,0.3c0.2,0.1,0.5,0.1,0.8,0.1
			c0.2,0,0.4,0,0.5-0.1c0.2-0.1,0.3-0.2,0.4-0.3c0.1-0.1,0.2-0.2,0.3-0.4s0.1-0.3,0.2-0.4c0.1-0.3,0.2-0.7,0.2-1.2v-8.8h-2V88.7z"/>
		<path class="st1" d="M951.4,103.9V92.3c0.3-0.6,0.6-1.1,0.9-1.5c0.3-0.4,0.7-0.7,1-1c0.4-0.3,0.7-0.5,1.1-0.6
			c0.4-0.2,0.7-0.3,1-0.4c0.3-0.1,0.6-0.1,0.8-0.1s0.4,0,0.5,0h0.1c0.7,0,1.3,0.1,1.8,0.3s1,0.4,1.3,0.6c0.4,0.3,0.7,0.6,1,0.9
			s0.5,0.7,0.7,1s0.3,0.7,0.4,1c0.1,0.3,0.2,0.6,0.2,0.9c0,0.3,0.1,0.5,0.1,0.7c0,0.2,0,0.3,0,0.4v9.4h-2.1v-9.4
			c0-0.6-0.1-1.1-0.2-1.5c-0.2-0.4-0.3-0.8-0.6-1c-0.2-0.3-0.5-0.5-0.8-0.6c-0.3-0.1-0.5-0.2-0.8-0.3c-0.3-0.1-0.5-0.1-0.7-0.1
			s-0.3,0-0.4,0c-0.4,0-0.8,0.1-1.1,0.2s-0.6,0.2-0.8,0.4c-0.2,0.2-0.4,0.4-0.6,0.6c-0.2,0.2-0.3,0.4-0.4,0.7
			c-0.2,0.5-0.4,1.1-0.4,1.8v9.4H951.4z"/>
		<path class="st1" d="M966.8,88.7h4.1v11c0,0.7-0.1,1.3-0.3,1.8c-0.2,0.5-0.4,0.9-0.6,1.3s-0.5,0.6-0.8,0.8
			c-0.3,0.2-0.6,0.3-0.9,0.4c-0.3,0.1-0.5,0.1-0.7,0.2c-0.2,0-0.3,0-0.4,0c-0.6,0-1.1-0.1-1.5-0.3c-0.4-0.2-0.8-0.4-1.1-0.6
			c-0.3-0.2-0.6-0.5-0.8-0.8l1.4-1.5c0,0,0.1,0.1,0.2,0.2c0.1,0.1,0.2,0.2,0.4,0.3c0.2,0.1,0.4,0.2,0.6,0.3c0.2,0.1,0.5,0.1,0.8,0.1
			c0.2,0,0.4,0,0.5-0.1c0.2-0.1,0.3-0.2,0.4-0.3c0.1-0.1,0.2-0.2,0.3-0.4s0.1-0.3,0.2-0.4c0.1-0.3,0.2-0.7,0.2-1.2v-8.8h-2V88.7z"/>
	</g>
</g>
<g>
	<path class="st2" d="M947.9-60.7c-10,11.2-27.2,12.1-38.3,2.1c-11.2-10-12.1-27.2-2.1-38.3"/>
	<circle class="st2" cx="927.9" cy="-78.5" r="21.2"/>
	<line class="st2" x1="929.6" y1="-49.9" x2="929.6" y2="-41.7"/>
	<line class="st2" x1="915.7" y1="-41.7" x2="947.1" y2="-41.7"/>
</g>
</svg>
