<?xml version="1.0" encoding="utf-8"?>
<!-- Generator: Adobe Illustrator 19.0.0, SVG Export Plug-In . SVG Version: 6.00 Build 0)  -->
<svg version="1.1" id="Layer_1" xmlns="http://www.w3.org/2000/svg" xmlns:xlink="http://www.w3.org/1999/xlink" x="0px" y="0px"
	 viewBox="1222.3 -128.3 238.4 245.9" style="enable-background:new 1222.3 -128.3 238.4 245.9;" xml:space="preserve">
<style type="text/css">
	.st0{fill:#E3E3E3;stroke:#E3E3E3;stroke-width:0.9456;stroke-miterlimit:10;}
	.st1{fill:#3F3F3F;}
	.st2{fill:#33CCCC;}
	.st3{fill:none;stroke:#33CCCC;stroke-width:1.5;stroke-miterlimit:10;}
</style>
<rect x="1222.8" y="-127.8" class="st0" width="237.5" height="245"/>
<g>
	<g>
		<path class="st1" d="M1319.2-10.7v9.4v0.2c0,0.2,0,0.4,0,0.8c0,0.3-0.1,0.7-0.2,1.2c-0.1,0.4-0.3,0.9-0.5,1.3
			c-0.2,0.5-0.5,0.9-0.9,1.2s-0.8,0.7-1.4,0.9c-0.6,0.2-1.2,0.4-2,0.4h-0.5c-0.6,0-1.1-0.2-1.6-0.3c-0.2-0.1-0.4-0.2-0.6-0.3
			c-0.2-0.1-0.4-0.3-0.5-0.4s-0.3-0.3-0.4-0.6c-0.1-0.2-0.2-0.5-0.2-0.7v2.1h-2.1v-15.2h2.1v9.4c0,0,0,0.2,0,0.4
			c0,0.2,0.1,0.5,0.1,0.7c0.1,0.3,0.2,0.6,0.3,0.9s0.3,0.6,0.6,0.9c0.2,0.3,0.6,0.5,0.9,0.7s0.8,0.3,1.4,0.3c0.1,0,0.2,0,0.4,0
			c0.2,0,0.4-0.1,0.7-0.1c0.3-0.1,0.5-0.2,0.8-0.3c0.3-0.2,0.5-0.4,0.8-0.7c0.2-0.3,0.4-0.6,0.6-1.1c0.2-0.4,0.2-1,0.2-1.6v-9.4
			H1319.2z"/>
		<path class="st1" d="M1323.8-10.8c0.1,0,0.2,0,0.4,0c0.2,0,0.4,0.1,0.7,0.1c0.3,0.1,0.6,0.2,0.9,0.4s0.6,0.4,0.8,0.8
			s0.5,0.8,0.6,1.3s0.3,1.1,0.3,1.9V4.5h-2.1V-6.3c0-0.4-0.1-0.8-0.2-1.1c-0.1-0.1-0.1-0.3-0.2-0.4s-0.2-0.3-0.3-0.4
			s-0.2-0.2-0.4-0.2c-0.2-0.1-0.3-0.1-0.5-0.1c-0.3,0-0.6,0-0.9,0.1c-0.2,0.1-0.4,0.2-0.6,0.3s-0.3,0.2-0.4,0.3
			c-0.1,0.1-0.2,0.2-0.2,0.2l-1.4-1.6c0.2-0.3,0.5-0.6,0.8-0.8c0.3-0.2,0.6-0.4,1.1-0.6S1323.2-10.8,1323.8-10.8z"/>
		<path class="st1" d="M1330.3,4.5V-7.1c0.3-0.6,0.6-1.1,0.9-1.5s0.7-0.7,1-1c0.4-0.3,0.7-0.5,1.1-0.6c0.4-0.2,0.7-0.3,1-0.4
			c0.3-0.1,0.6-0.1,0.8-0.1s0.4,0,0.5,0h0.1c0.7,0,1.3,0.1,1.8,0.3c0.5,0.2,1,0.4,1.3,0.6c0.4,0.3,0.7,0.6,1,0.9
			c0.3,0.3,0.5,0.7,0.7,1c0.2,0.3,0.3,0.7,0.4,1c0.1,0.3,0.2,0.6,0.2,0.9c0,0.3,0.1,0.5,0.1,0.7c0,0.2,0,0.3,0,0.4v9.4h-2.1v-9.4
			c0-0.6-0.1-1.1-0.2-1.5c-0.2-0.4-0.3-0.8-0.6-1c-0.2-0.3-0.5-0.5-0.8-0.6s-0.5-0.2-0.8-0.3c-0.3-0.1-0.5-0.1-0.7-0.1s-0.3,0-0.4,0
			c-0.4,0-0.8,0.1-1.1,0.2c-0.3,0.1-0.6,0.2-0.8,0.4c-0.2,0.2-0.4,0.4-0.6,0.6c-0.2,0.2-0.3,0.4-0.4,0.7c-0.2,0.5-0.4,1.1-0.4,1.8
			v9.4H1330.3z"/>
		<path class="st1" d="M1343.9,4.5V-7.1c0.3-0.6,0.6-1.1,0.9-1.5c0.3-0.4,0.7-0.7,1-1c0.4-0.3,0.7-0.5,1.1-0.6
			c0.4-0.2,0.7-0.3,1-0.4c0.3-0.1,0.6-0.1,0.8-0.1s0.4,0,0.5,0h0.1c0.7,0,1.3,0.1,1.8,0.3s1,0.4,1.3,0.6c0.4,0.3,0.7,0.6,1,0.9
			s0.5,0.7,0.7,1s0.3,0.7,0.4,1c0.1,0.3,0.2,0.6,0.2,0.9c0,0.3,0.1,0.5,0.1,0.7c0,0.2,0,0.3,0,0.4v9.4h-2.1v-9.4
			c0-0.6-0.1-1.1-0.2-1.5c-0.2-0.4-0.3-0.8-0.6-1c-0.2-0.3-0.5-0.5-0.8-0.6c-0.3-0.1-0.5-0.2-0.8-0.3c-0.3-0.1-0.5-0.1-0.7-0.1
			s-0.3,0-0.4,0c-0.4,0-0.8,0.1-1.1,0.2c-0.3,0.1-0.6,0.2-0.8,0.4c-0.2,0.2-0.4,0.4-0.6,0.6c-0.2,0.2-0.3,0.4-0.4,0.7
			c-0.2,0.5-0.4,1.1-0.4,1.8v9.4H1343.9z"/>
		<path class="st1" d="M1361.7-10.8c0.1,0,0.3,0,0.6,0s0.6,0.1,0.9,0.2s0.7,0.3,1.1,0.5c0.4,0.2,0.7,0.5,1,0.9
			c0.3,0.4,0.6,0.9,0.8,1.5c0.2,0.6,0.3,1.3,0.3,2.1v5c0,1-0.2,1.8-0.6,2.6c-0.1,0.3-0.3,0.6-0.6,0.9s-0.5,0.6-0.8,0.8
			c-0.3,0.2-0.7,0.4-1.2,0.6c-0.4,0.1-1,0.2-1.5,0.2c-0.6,0-1.1-0.1-1.6-0.2c-0.5-0.2-0.8-0.4-1.2-0.6c-0.3-0.3-0.6-0.5-0.8-0.9
			s-0.4-0.6-0.5-1c0.1-0.1,0.2-0.1,0.4-0.2c0.2-0.1,0.3-0.2,0.5-0.3s0.3-0.2,0.5-0.3c0.2-0.1,0.3-0.2,0.4-0.2c0.1,0.4,0.4,0.7,0.6,1
			c0.3,0.2,0.5,0.4,0.8,0.5c0.3,0.1,0.6,0.2,1,0.2c0.5-0.1,0.9-0.2,1.3-0.5c0.2-0.1,0.3-0.2,0.5-0.4s0.3-0.3,0.4-0.5
			s0.2-0.4,0.3-0.7c0.1-0.3,0.1-0.6,0.1-0.9v-5c0-0.6-0.2-1.1-0.4-1.5c-0.1-0.2-0.2-0.4-0.3-0.6s-0.3-0.3-0.5-0.5s-0.4-0.3-0.6-0.3
			c-0.2-0.1-0.5-0.1-0.8-0.1c-0.4,0-0.8,0-1.2,0.1c-0.3,0.1-0.6,0.2-0.8,0.4c-0.2,0.2-0.4,0.4-0.6,0.7s-0.3,0.7-0.5,1.1h-2.1
			c0.1-0.7,0.2-1.3,0.4-1.9c0.2-0.6,0.6-1.1,1-1.5s0.9-0.7,1.6-0.9C1360-10.7,1360.8-10.8,1361.7-10.8L1361.7-10.8L1361.7-10.8z"/>
		<path class="st1" d="M1364.7-16.8v4.3h-2v-4.3H1364.7z"/>
		<path class="st1" d="M1370.8-10.8c0.1,0,0.2,0,0.4,0c0.2,0,0.4,0.1,0.7,0.1c0.3,0.1,0.6,0.2,0.9,0.4s0.6,0.4,0.8,0.8
			s0.5,0.8,0.6,1.3s0.3,1.1,0.3,1.9V4.5h-2.1V-6.3c0-0.4-0.1-0.8-0.2-1.1c-0.1-0.1-0.1-0.3-0.2-0.4s-0.2-0.3-0.3-0.4
			c-0.1-0.1-0.2-0.2-0.4-0.2c-0.2-0.1-0.3-0.1-0.5-0.1c-0.3,0-0.6,0-0.9,0.1c-0.2,0.1-0.4,0.2-0.6,0.3s-0.3,0.2-0.4,0.3
			c-0.1,0.1-0.2,0.2-0.2,0.2l-1.4-1.6c0.2-0.3,0.5-0.6,0.8-0.8c0.3-0.2,0.6-0.4,1.1-0.6S1370.2-10.8,1370.8-10.8z"/>
		<path class="st2" d="M1260.5,14.8v17.7h-2.3V19.6c-0.4,0.3-1,0.6-1.6,0.8c-0.6,0.2-1.3,0.3-2.1,0.3v-2.3c0.1,0,0.2,0,0.4,0
			s0.4,0,0.7-0.1c0.3-0.1,0.6-0.2,0.9-0.3s0.6-0.3,0.8-0.6c0.3-0.3,0.5-0.6,0.6-1c0.2-0.4,0.2-0.9,0.2-1.5H1260.5z"/>
		<path class="st2" d="M1269.3,20.5c0.7,0,1.4,0.1,1.9,0.2c0.6,0.2,1,0.4,1.5,0.6c0.4,0.3,0.8,0.6,1.1,0.9c0.3,0.3,0.5,0.7,0.7,1
			c0.5,0.8,0.7,1.7,0.8,2.7v1.2c-0.1,1-0.4,1.9-0.8,2.7c-0.2,0.3-0.4,0.7-0.7,1s-0.6,0.6-1.1,0.9c-0.4,0.3-0.9,0.5-1.5,0.6
			c-0.6,0.2-1.2,0.2-1.9,0.2c-1,0-1.8-0.1-2.5-0.4c-0.7-0.3-1.2-0.6-1.7-1s-0.8-0.9-1-1.3c-0.2-0.5-0.4-0.9-0.5-1.3h2.3
			c0.2,0.5,0.5,0.8,0.9,1.1c0.4,0.3,0.8,0.4,1.1,0.5c0.4,0.1,0.9,0.2,1.4,0.2c0.7,0,1.3-0.2,1.8-0.4c0.2-0.1,0.5-0.2,0.7-0.4
			c0.2-0.2,0.4-0.3,0.6-0.6c0.2-0.2,0.3-0.5,0.4-0.8c0.1-0.3,0.2-0.7,0.2-1.1V26c0-0.4-0.1-0.8-0.2-1.1c-0.1-0.3-0.2-0.6-0.4-0.8
			s-0.4-0.4-0.6-0.6s-0.4-0.3-0.7-0.4c-0.5-0.2-1.2-0.4-1.8-0.4c-0.6,0-1.2,0.2-1.7,0.4c-0.2,0.1-0.4,0.2-0.7,0.4s-0.4,0.3-0.6,0.5
			c-0.2,0.2-0.3,0.4-0.5,0.7c-0.1,0.3-0.2,0.6-0.2,1h-2.3V14.8h10.6V17h-8.4v4.6c0.4-0.3,1-0.6,1.6-0.8S1268.4,20.5,1269.3,20.5z"/>
		<path class="st2" d="M1283.1,14.7c0.7,0,1.4,0.1,1.9,0.2c0.6,0.2,1,0.4,1.5,0.6c0.4,0.3,0.8,0.6,1.1,0.9c0.3,0.3,0.5,0.7,0.7,1
			c0.5,0.8,0.7,1.7,0.8,2.7v7.2c-0.1,1-0.4,1.9-0.8,2.7c-0.2,0.3-0.4,0.7-0.7,1c-0.3,0.3-0.6,0.6-1.1,0.9c-0.4,0.3-0.9,0.5-1.5,0.6
			c-0.6,0.2-1.2,0.2-1.9,0.2c-0.7,0-1.4-0.1-1.9-0.2c-0.6-0.2-1-0.4-1.5-0.6c-0.4-0.3-0.8-0.5-1.1-0.9c-0.3-0.3-0.5-0.7-0.7-1
			c-0.5-0.8-0.7-1.7-0.8-2.7v-7.2c0.1-1,0.4-1.9,0.8-2.7c0.2-0.3,0.4-0.7,0.7-1c0.3-0.3,0.6-0.6,1.1-0.9c0.4-0.3,0.9-0.5,1.5-0.6
			C1281.7,14.7,1282.3,14.7,1283.1,14.7z M1286.7,20.1c0-0.4-0.1-0.7-0.2-1s-0.2-0.6-0.4-0.8c-0.2-0.2-0.4-0.4-0.6-0.6
			c-0.2-0.2-0.4-0.3-0.7-0.4c-0.5-0.2-1.2-0.4-1.8-0.4c-0.7,0-1.3,0.2-1.8,0.4c-0.2,0.1-0.5,0.2-0.7,0.4s-0.4,0.3-0.6,0.6
			s-0.3,0.5-0.4,0.8c-0.1,0.3-0.2,0.7-0.2,1v7.2c0,0.4,0.1,0.8,0.2,1.1c0.1,0.3,0.2,0.6,0.4,0.8c0.2,0.2,0.4,0.4,0.6,0.6
			s0.4,0.3,0.7,0.4c0.5,0.2,1.2,0.4,1.8,0.4c0.7,0,1.3-0.2,1.8-0.4c0.2-0.1,0.5-0.2,0.7-0.4c0.2-0.2,0.4-0.4,0.6-0.6
			c0.2-0.2,0.3-0.5,0.4-0.8s0.2-0.7,0.2-1.1V20.1z"/>
		<path class="st1" d="M1307.3,21.2l-0.9-0.6c-0.2-0.2-0.5-0.3-0.7-0.4c-0.3-0.1-0.5-0.3-0.8-0.4s-0.5-0.2-0.8-0.2
			c-0.2-0.1-0.4-0.1-0.6-0.1c-0.3,0-0.6,0-0.9,0.1c-0.3,0.1-0.6,0.2-0.8,0.3c-0.2,0.2-0.4,0.4-0.5,0.7c-0.1,0.3-0.2,0.7-0.2,1.1
			s0.1,0.8,0.3,1.1c0.2,0.3,0.5,0.5,0.9,0.6c0.4,0.1,0.8,0.3,1.2,0.3s0.9,0.2,1.4,0.2s0.9,0.3,1.3,0.5c0.4,0.3,0.8,0.6,1.1,0.9
			s0.6,0.8,0.8,1.3s0.3,1,0.3,1.5c0,0.8-0.1,1.5-0.4,2s-0.6,1.1-1.1,1.4c-0.4,0.4-1,0.6-1.6,0.8s-1.2,0.3-1.9,0.3
			c-1,0-1.8-0.1-2.4-0.3c-0.7-0.2-1.2-0.5-1.7-0.8c-0.5-0.3-0.9-0.7-1.3-1.1l1.4-1.5c0.2,0.2,0.4,0.4,0.7,0.6s0.6,0.4,0.9,0.5
			c0.4,0.2,0.7,0.3,1.1,0.4s0.8,0.1,1.2,0.1c0.4,0,0.8-0.1,1.2-0.2c0.4-0.1,0.7-0.3,0.9-0.5c0.2-0.2,0.4-0.5,0.6-0.8s0.2-0.6,0.2-1
			c0-0.4-0.1-0.7-0.2-0.9c-0.1-0.2-0.2-0.4-0.4-0.5c-0.2-0.1-0.3-0.2-0.5-0.3c-0.2-0.1-0.3-0.1-0.4-0.1c0,0-0.2,0-0.4-0.1
			c-0.2,0-0.5-0.1-0.8-0.1s-0.6-0.1-0.9-0.2c-0.3-0.1-0.5-0.1-0.7-0.1c-0.1,0-0.3-0.1-0.4-0.1c-0.2-0.1-0.4-0.2-0.6-0.3
			c-0.2-0.1-0.5-0.3-0.7-0.5c-0.2-0.2-0.5-0.4-0.7-0.7c-0.2-0.3-0.4-0.7-0.5-1.1c-0.1-0.4-0.2-0.9-0.2-1.4c0-0.8,0.1-1.5,0.4-2.1
			c0.3-0.6,0.6-1,1.1-1.4c0.4-0.4,0.9-0.6,1.5-0.8s1.1-0.2,1.7-0.2c0.6,0,1.1,0.1,1.6,0.2c0.5,0.1,0.9,0.3,1.2,0.5
			c0.4,0.2,0.8,0.4,1.1,0.7l1.1,0.8L1307.3,21.2z"/>
		<path class="st1" d="M1307.9,13.4v2.1h-5.8v-2.8h-1v-2.1h2.1c0.2,0,0.3,0.1,0.5,0.1c0.1,0.1,0.2,0.2,0.3,0.3
			c0.1,0.1,0.1,0.3,0.1,0.6v1.8H1307.9z"/>
		<path class="st1" d="M1312.5,17.2c0.1,0,0.2,0,0.4,0c0.2,0,0.4,0.1,0.7,0.1c0.3,0.1,0.6,0.2,0.9,0.4s0.6,0.4,0.8,0.8
			s0.5,0.8,0.6,1.3s0.3,1.1,0.3,1.9v10.8h-2.1V21.7c0-0.4-0.1-0.8-0.2-1.1c-0.1-0.1-0.1-0.3-0.2-0.4s-0.2-0.3-0.3-0.4
			c-0.1-0.1-0.2-0.2-0.4-0.2c-0.2-0.1-0.3-0.1-0.5-0.1c-0.3,0-0.6,0-0.9,0.1c-0.2,0.1-0.4,0.2-0.6,0.3s-0.3,0.2-0.4,0.3
			c-0.1,0.1-0.2,0.2-0.2,0.2l-1.4-1.6c0.2-0.3,0.5-0.6,0.8-0.8c0.3-0.2,0.6-0.4,1.1-0.6S1311.9,17.2,1312.5,17.2z"/>
		<path class="st1" d="M1321.1,17.3v9.4c0,0.6,0.1,1.2,0.2,1.6c0.2,0.4,0.3,0.8,0.6,1.1c0.2,0.3,0.5,0.5,0.8,0.7
			c0.3,0.2,0.5,0.3,0.8,0.3c0.3,0.1,0.5,0.1,0.7,0.1c0.2,0,0.3,0,0.4,0c0.5,0,1-0.1,1.4-0.3s0.7-0.4,0.9-0.7
			c0.2-0.3,0.4-0.6,0.6-0.9s0.2-0.6,0.3-0.9c0.1-0.3,0.1-0.5,0.1-0.7c0-0.2,0-0.3,0-0.4v-9.4h2.1v15.2h-2.1v-2.1
			c0,0.3-0.1,0.5-0.2,0.7c-0.1,0.2-0.2,0.4-0.4,0.6s-0.3,0.3-0.5,0.4c-0.2,0.1-0.4,0.2-0.6,0.3c-0.5,0.2-1,0.3-1.6,0.3h-0.5
			c-0.8,0-1.5-0.1-2-0.4c-0.6-0.2-1-0.5-1.4-0.9c-0.4-0.4-0.7-0.8-0.9-1.2s-0.4-0.9-0.5-1.3c-0.1-0.4-0.2-0.8-0.2-1.2
			c0-0.3,0-0.6,0-0.8v-0.2v-9.4H1321.1z"/>
		<path class="st1" d="M1340.3,17.6c0.6,0.3,1.1,0.6,1.5,1c0.4,0.4,0.7,0.8,0.9,1.3c0.2,0.5,0.4,0.9,0.5,1.4
			c0.1,0.4,0.2,0.8,0.2,1.2c0,0.3,0,0.6,0,0.8v0.1v9.3h-2.1v-9.3c0-0.5,0-0.9-0.1-1.2c-0.1-0.4-0.2-0.7-0.4-0.9
			c-0.2-0.3-0.3-0.5-0.5-0.7c-0.2-0.2-0.4-0.3-0.6-0.4c-0.5-0.3-1.1-0.4-1.7-0.5c-0.4,0-0.8,0.1-1.1,0.2c-0.3,0.1-0.6,0.3-0.8,0.4
			c-0.2,0.2-0.4,0.4-0.6,0.6c-0.2,0.2-0.3,0.5-0.4,0.7c-0.3,0.6-0.4,1.2-0.5,1.9v1.5c0.8-0.5,1.7-0.8,2.7-0.8c0.5,0,0.9,0.1,1.3,0.2
			v2.3c-0.2-0.1-0.4-0.1-0.6-0.2c-0.2,0-0.4,0-0.7,0c-0.6,0-1.2,0.2-1.7,0.5c-0.2,0.2-0.4,0.4-0.6,0.6c-0.2,0.3-0.3,0.5-0.4,0.8v4.2
			h-2.1v-9.4c0-0.9,0.1-1.7,0.3-2.4c0.2-0.7,0.5-1.2,0.9-1.6s0.7-0.8,1.2-1c0.4-0.3,0.8-0.4,1.2-0.6s0.8-0.2,1.1-0.2
			c0.3,0,0.5,0,0.7,0h0.1C1339,17.2,1339.7,17.3,1340.3,17.6z"/>
		<path class="st1" d="M1343.6,13.4v2.1h-5.8v-2.8h-1v-2.1h2.1c0.2,0,0.3,0.1,0.5,0.1c0.1,0.1,0.2,0.2,0.3,0.3
			c0.1,0.1,0.1,0.3,0.1,0.6v1.8H1343.6z"/>
		<path class="st1" d="M1348.2,17.2c0.1,0,0.2,0,0.4,0c0.2,0,0.4,0.1,0.7,0.1c0.3,0.1,0.6,0.2,0.9,0.4s0.6,0.4,0.8,0.8
			s0.5,0.8,0.6,1.3s0.3,1.1,0.3,1.9v10.8h-2.1V21.7c0-0.4-0.1-0.8-0.2-1.1c-0.1-0.1-0.1-0.3-0.2-0.4s-0.2-0.3-0.3-0.4
			s-0.2-0.2-0.4-0.2c-0.2-0.1-0.3-0.1-0.5-0.1c-0.3,0-0.6,0-0.9,0.1c-0.2,0.1-0.4,0.2-0.6,0.3s-0.3,0.2-0.4,0.3
			c-0.1,0.1-0.2,0.2-0.2,0.2l-1.4-1.6c0.2-0.3,0.5-0.6,0.8-0.8c0.3-0.2,0.6-0.4,1.1-0.6S1347.6,17.2,1348.2,17.2z"/>
		<path class="st1" d="M1363.5,32.5V23c0-0.6-0.1-1.1-0.2-1.5c-0.2-0.4-0.3-0.7-0.6-1c-0.2-0.3-0.5-0.5-0.8-0.6
			c-0.3-0.1-0.5-0.3-0.8-0.3c-0.3-0.1-0.5-0.1-0.7-0.1s-0.3,0-0.4,0c-0.5,0-1,0.1-1.4,0.2c-0.4,0.2-0.7,0.4-0.9,0.6
			s-0.4,0.5-0.6,0.8c-0.1,0.3-0.2,0.6-0.3,0.8c-0.1,0.3-0.1,0.5-0.1,0.7c0,0.2,0,0.3,0,0.3v9.4h-2.1V17.3h2.1v2.1
			c0-0.3,0.1-0.5,0.2-0.7c0.1-0.2,0.2-0.4,0.4-0.6c0.2-0.2,0.3-0.3,0.5-0.4c0.2-0.1,0.4-0.2,0.6-0.3c0.5-0.2,1-0.3,1.6-0.3h0.5
			c0.8,0,1.5,0.1,2,0.3c0.6,0.2,1,0.5,1.4,0.9c0.4,0.4,0.7,0.8,0.9,1.2c0.2,0.4,0.4,0.9,0.5,1.3c0.1,0.4,0.2,0.8,0.2,1.1
			c0,0.3,0,0.6,0,0.8V23v9.4H1363.5z"/>
		<path class="st1" d="M1364,12v3.5h-7.8v-2.1h5.8V12H1364z"/>
		<path class="st1" d="M1364.4,5.4v4.3h-2V5.4H1364.4z"/>
		<path class="st1" d="M1368.3,32.5V20.9c0.3-0.6,0.6-1.1,0.9-1.5c0.3-0.4,0.7-0.7,1-1c0.4-0.3,0.7-0.5,1.1-0.6
			c0.4-0.2,0.7-0.3,1-0.4c0.3-0.1,0.6-0.1,0.8-0.1s0.4,0,0.5,0h0.1c0.7,0,1.3,0.1,1.8,0.3s1,0.4,1.3,0.6c0.4,0.3,0.7,0.6,1,0.9
			s0.5,0.7,0.7,1s0.3,0.7,0.4,1s0.2,0.6,0.2,0.9c0,0.3,0.1,0.5,0.1,0.7c0,0.2,0,0.3,0,0.4v9.4h-2.1v-9.4c0-0.6-0.1-1.1-0.2-1.5
			c-0.2-0.4-0.3-0.8-0.6-1c-0.2-0.3-0.5-0.5-0.8-0.6c-0.3-0.1-0.5-0.2-0.8-0.3c-0.3-0.1-0.5-0.1-0.7-0.1c-0.2,0-0.3,0-0.4,0
			c-0.4,0-0.8,0.1-1.1,0.2s-0.6,0.2-0.8,0.4c-0.2,0.2-0.4,0.4-0.6,0.6c-0.2,0.2-0.3,0.4-0.4,0.7c-0.2,0.5-0.4,1.1-0.4,1.8v9.4
			H1368.3z"/>
		<path class="st1" d="M1375.5,10.8c0.3,0,0.7,0.1,1,0.2c0.3,0.1,0.6,0.3,0.8,0.6c0.2,0.2,0.4,0.5,0.5,0.8s0.2,0.7,0.2,1
			s-0.1,0.7-0.2,1s-0.3,0.6-0.5,0.8c-0.2,0.2-0.5,0.4-0.8,0.6c-0.3,0.1-0.6,0.2-1,0.2s-0.7-0.1-1-0.2c-0.3-0.1-0.6-0.3-0.8-0.6
			c-0.2-0.2-0.4-0.5-0.5-0.8s-0.2-0.7-0.2-1s0.1-0.7,0.2-1s0.3-0.6,0.5-0.8c0.2-0.2,0.5-0.4,0.8-0.6
			C1374.9,10.9,1375.2,10.8,1375.5,10.8z M1375.5,14.3c0.2,0,0.4-0.1,0.6-0.3c0.2-0.2,0.2-0.4,0.2-0.6s-0.1-0.5-0.2-0.6
			c-0.2-0.2-0.4-0.3-0.6-0.3s-0.4,0.1-0.6,0.3s-0.2,0.4-0.2,0.6s0.1,0.5,0.2,0.6S1375.3,14.3,1375.5,14.3z M1384.3,17.2
			c0.1,0,0.2,0,0.4,0c0.2,0,0.4,0.1,0.7,0.2s0.6,0.2,0.9,0.4c0.3,0.2,0.6,0.4,0.8,0.8c0.3,0.3,0.5,0.7,0.6,1.3
			c0.2,0.5,0.3,1.1,0.3,1.8v10.8h-2.1V21.7c0-0.4-0.1-0.8-0.2-1.1c-0.1-0.1-0.1-0.3-0.2-0.4s-0.2-0.3-0.3-0.4
			c-0.1-0.1-0.2-0.2-0.4-0.2c-0.2-0.1-0.3-0.1-0.5-0.1c-0.3,0-0.6,0-0.9,0.1c-0.2,0.1-0.4,0.2-0.6,0.3c-0.2,0.1-0.3,0.2-0.4,0.3
			c-0.1,0.1-0.2,0.2-0.2,0.2l-1.4-1.6c0.2-0.3,0.5-0.6,0.8-0.8c0.3-0.2,0.6-0.4,1.1-0.6S1383.7,17.2,1384.3,17.2z"/>
		<path class="st1" d="M1397.9,17.6c0.6,0.3,1.1,0.6,1.5,1s0.7,0.8,1,1.3c0.2,0.5,0.4,0.9,0.5,1.4c0.1,0.4,0.2,0.8,0.2,1.2
			c0,0.3,0,0.6,0,0.8v0.1v9.3h-2.1V28c0-0.4-0.1-0.8-0.3-1.1c-0.2-0.3-0.4-0.5-0.7-0.7c-0.3-0.2-0.6-0.3-0.9-0.5
			c-0.3-0.1-0.6-0.2-0.9-0.2c-0.3-0.1-0.6-0.1-1-0.1c0,0-0.1,0-0.3,0c-0.1,0-0.3,0-0.5,0.1c-0.2,0.1-0.4,0.1-0.7,0.2
			c-0.2,0.1-0.5,0.2-0.7,0.4c-0.2,0.2-0.4,0.4-0.6,0.7c-0.2,0.3-0.3,0.6-0.4,1.1c0,0.1,0,0.3,0,0.4c0,0.3,0.1,0.6,0.2,0.8
			c0.1,0.2,0.3,0.4,0.6,0.6s0.5,0.3,0.8,0.4c0.3,0.1,0.6,0.2,0.8,0.2c0.3,0,0.5,0.1,0.7,0.1c0.2,0,0.4,0,0.5,0h0.2v2.1h-2.3
			c-0.5,0-0.9-0.1-1.4-0.3c-0.4-0.2-0.8-0.5-1.1-0.9c-0.3-0.4-0.6-0.8-0.8-1.4c-0.2-0.5-0.3-1.1-0.3-1.6c0-0.6,0.1-1.1,0.3-1.7
			s0.6-1.1,1.2-1.7c0.3-0.3,0.7-0.6,1-0.8c0.3-0.2,0.7-0.4,1-0.5c0.3-0.1,0.7-0.2,1-0.3c0.3-0.1,0.7-0.1,1-0.1c0.5,0,0.9,0,1.3,0.1
			c0.4,0.1,0.8,0.2,1.1,0.3c0.4,0.1,0.7,0.3,1,0.5v-0.9c0-0.5,0-0.9-0.1-1.2s-0.2-0.7-0.4-0.9c-0.2-0.3-0.3-0.5-0.5-0.7
			c-0.2-0.2-0.4-0.3-0.6-0.4c-0.5-0.3-1.1-0.4-1.7-0.5c-0.6,0-1,0.1-1.4,0.3c-0.4,0.2-0.7,0.5-1,0.8c-0.3,0.3-0.4,0.6-0.6,1
			c-0.1,0.3-0.2,0.6-0.3,0.9h-2.2c0.1-0.8,0.2-1.6,0.4-2.1s0.5-1.1,0.9-1.5c0.4-0.4,0.7-0.7,1.1-0.9c0.4-0.2,0.8-0.4,1.2-0.5
			c0.4-0.1,0.7-0.2,1-0.2c0.3,0,0.5,0,0.6,0h0.1C1396.6,17.2,1397.3,17.3,1397.9,17.6z"/>
		<path class="st1" d="M1396.6,12.2v1.1h5.2v2.1h-6.3c-0.2,0-0.4,0-0.5-0.1c-0.1-0.1-0.2-0.2-0.3-0.3c-0.1-0.2-0.1-0.3-0.1-0.5v-2.3
			H1396.6z"/>
		<path class="st1" d="M1405.3,17.3h4.1v11c0,0.7-0.1,1.3-0.3,1.8c-0.2,0.5-0.4,0.9-0.6,1.3s-0.5,0.6-0.8,0.8
			c-0.3,0.2-0.6,0.3-0.9,0.4c-0.3,0.1-0.5,0.1-0.7,0.2c-0.2,0-0.3,0-0.4,0c-0.6,0-1.1-0.1-1.5-0.3c-0.4-0.2-0.8-0.4-1.1-0.6
			c-0.3-0.2-0.6-0.5-0.8-0.8l1.4-1.5c0,0,0.1,0.1,0.2,0.2c0.1,0.1,0.2,0.2,0.4,0.3c0.2,0.1,0.4,0.2,0.6,0.3c0.2,0.1,0.5,0.1,0.8,0.1
			c0.2,0,0.4,0,0.5-0.1c0.2-0.1,0.3-0.2,0.4-0.3c0.1-0.1,0.2-0.2,0.3-0.4c0.1-0.1,0.1-0.3,0.2-0.4c0.1-0.3,0.2-0.7,0.2-1.2v-8.8h-2
			V17.3z"/>
		<path class="st1" d="M1412.9,32.5V17.1c0-0.3-0.1-0.6-0.2-0.9c-0.1-0.3-0.3-0.6-0.5-0.9c-0.2-0.3-0.4-0.6-0.6-0.9
			c-0.2-0.3-0.4-0.6-0.6-0.9c-0.2-0.3-0.3-0.6-0.5-0.9s-0.2-0.7-0.2-1c0-0.5,0-0.9,0.1-1.5s0.3-1,0.5-1.5c0.3-0.4,0.6-0.8,1.1-1.1
			c0.4-0.3,1-0.4,1.7-0.4h5.3v2.1h-4.8c-0.3,0-0.7,0.1-0.9,0.3c-0.1,0.1-0.2,0.2-0.3,0.3s-0.2,0.3-0.3,0.4c-0.1,0.2-0.2,0.4-0.2,0.6
			s-0.1,0.5-0.1,0.8c0,0.4,0.1,0.7,0.2,0.9c0.1,0.2,0.3,0.5,0.4,0.7s0.4,0.5,0.7,0.8c0.3,0.3,0.6,0.8,0.9,1.3
			c0.1,0.2,0.1,0.3,0.2,0.5c0,0.2,0.1,0.4,0.1,0.6c0,0.3,0.1,0.5,0.1,0.9v15H1412.9z"/>
		<path class="st1" d="M1427.5,18.8c0.3,0.4,0.5,0.8,0.6,1.2c0.2,0.4,0.3,0.9,0.3,1.5v11h-2.1V22.3c0-0.6-0.1-1.2-0.3-1.6
			c-0.2-0.5-0.5-0.8-0.8-1.1l-2.3,1.6l-2.2-1.6c-0.4,0.3-0.6,0.6-0.8,1.1c-0.2,0.5-0.3,1-0.3,1.6v5.4c0,0.5,0.1,0.9,0.3,1.3
			c0.1,0.2,0.2,0.3,0.3,0.5c0.1,0.2,0.2,0.3,0.4,0.4c0.2,0.1,0.4,0.2,0.6,0.3s0.5,0.1,0.8,0.1h1.5v2.1h-2.8c-0.6,0-1.1-0.2-1.6-0.6
			c-0.2-0.1-0.4-0.3-0.6-0.5c-0.2-0.2-0.4-0.5-0.5-0.8s-0.3-0.7-0.4-1.1c-0.1-0.4-0.1-0.9-0.1-1.5v-6.6c0.1-1,0.4-1.9,1-2.7
			s1.2-1.3,2.1-1.6l2.4,1.6l2.4-1.6C1426.2,17.5,1426.9,18.1,1427.5,18.8z"/>
		<path class="st1" d="M1245,60.5h-2.1V45.3h2.1V60.5z M1249.3,60.5h-2.1V45.3h2.1V60.5z"/>
		<path class="st1" d="M1259,45.6c0.6,0.3,1.1,0.6,1.5,1s0.7,0.8,1,1.3c0.2,0.5,0.4,0.9,0.5,1.4c0.1,0.4,0.2,0.8,0.2,1.2
			s0,0.6,0,0.8v0.1v9.3h-2.1V56c0-0.4-0.1-0.8-0.3-1.1c-0.2-0.3-0.4-0.5-0.7-0.7c-0.3-0.2-0.6-0.3-0.9-0.5c-0.3-0.1-0.6-0.2-0.9-0.2
			c-0.3-0.1-0.6-0.1-1-0.1c0,0-0.1,0-0.3,0c-0.1,0-0.3,0-0.5,0.1c-0.2,0.1-0.4,0.1-0.7,0.2c-0.2,0.1-0.5,0.2-0.7,0.4
			c-0.2,0.2-0.4,0.4-0.6,0.7c-0.2,0.3-0.3,0.6-0.4,1.1c0,0.1,0,0.3,0,0.4c0,0.3,0.1,0.6,0.2,0.8s0.3,0.4,0.6,0.6s0.5,0.3,0.8,0.4
			s0.6,0.2,0.8,0.2s0.5,0.1,0.7,0.1c0.2,0,0.4,0,0.5,0h0.2v2.1h-2.3c-0.5,0-0.9-0.1-1.4-0.3c-0.4-0.2-0.8-0.5-1.1-0.9
			c-0.3-0.4-0.6-0.8-0.8-1.4c-0.2-0.5-0.3-1.1-0.3-1.6c0-0.6,0.1-1.1,0.3-1.7c0.2-0.6,0.6-1.1,1.2-1.7c0.3-0.3,0.7-0.6,1-0.8
			c0.3-0.2,0.7-0.4,1-0.5c0.3-0.1,0.7-0.2,1-0.3s0.7-0.1,1-0.1c0.5,0,0.9,0,1.3,0.1c0.4,0.1,0.8,0.2,1.1,0.3c0.4,0.1,0.7,0.3,1,0.5
			v-0.9c0-0.5,0-0.9-0.1-1.2s-0.2-0.7-0.4-0.9c-0.2-0.3-0.3-0.5-0.5-0.7c-0.2-0.2-0.4-0.3-0.6-0.4c-0.5-0.3-1.1-0.4-1.7-0.5
			c-0.6,0-1,0.1-1.4,0.3s-0.7,0.5-1,0.8c-0.3,0.3-0.4,0.6-0.6,1c-0.1,0.3-0.2,0.6-0.3,0.9h-2.2c0.1-0.8,0.2-1.6,0.4-2.1
			s0.5-1.1,0.9-1.5c0.4-0.4,0.7-0.7,1.1-0.9c0.4-0.2,0.8-0.4,1.2-0.5c0.4-0.1,0.7-0.2,1-0.2c0.3,0,0.5,0,0.6,0h0.1
			C1257.7,45.2,1258.4,45.3,1259,45.6z"/>
		<path class="st1" d="M1265.9,46.6v1.1h3.7v2.1h-4.7c-0.2,0-0.4,0-0.5-0.1c-0.1-0.1-0.2-0.2-0.3-0.3c-0.1-0.2-0.1-0.3-0.1-0.5v-2.3
			H1265.9z M1265.9,55.9V57h3.7v2.1h-4.7c-0.2,0-0.4,0-0.5-0.1c-0.1-0.1-0.2-0.2-0.3-0.3c-0.1-0.2-0.1-0.3-0.1-0.5v-2.3H1265.9z"/>
		<path class="st1" d="M1282.4,45.3v9.4v0.2c0,0.2,0,0.4,0,0.8s-0.1,0.7-0.2,1.2c-0.1,0.4-0.3,0.9-0.5,1.3s-0.5,0.9-0.9,1.2
			c-0.4,0.4-0.8,0.7-1.4,0.9c-0.6,0.2-1.2,0.4-2,0.4h-0.5c-0.6,0-1.1-0.2-1.6-0.3c-0.2-0.1-0.4-0.2-0.6-0.3
			c-0.2-0.1-0.4-0.3-0.5-0.4s-0.3-0.3-0.4-0.6c-0.1-0.2-0.2-0.5-0.2-0.7v2.1h-2.1V45.3h2.1v9.4c0,0,0,0.2,0,0.4
			c0,0.2,0.1,0.5,0.1,0.7c0.1,0.3,0.2,0.6,0.3,0.9s0.3,0.6,0.6,0.9c0.2,0.3,0.6,0.5,0.9,0.7s0.8,0.3,1.4,0.3c0.1,0,0.2,0,0.4,0
			c0.2,0,0.4-0.1,0.7-0.1c0.3-0.1,0.5-0.2,0.8-0.3s0.5-0.4,0.8-0.7c0.2-0.3,0.4-0.6,0.6-1.1c0.2-0.4,0.2-1,0.2-1.6v-9.4H1282.4z"/>
		<path class="st1" d="M1280.8,40v3.5h-7.8v-2.1h5.8V40H1280.8z"/>
		<path class="st1" d="M1295.6,45.3v10.9c0,0.6-0.1,1.2-0.3,1.7s-0.4,0.9-0.7,1.2c-0.3,0.3-0.6,0.6-0.9,0.8c-0.3,0.2-0.6,0.3-1,0.4
			c-0.3,0.1-0.6,0.2-0.8,0.2c-0.2,0-0.4,0-0.5,0h-2.6c-0.7,0-1.3-0.1-1.8-0.2c-0.5-0.2-0.9-0.4-1.2-0.6c-0.3-0.3-0.6-0.5-0.8-0.8
			c-0.2-0.3-0.3-0.6-0.4-0.9s-0.2-0.6-0.2-0.8s0-0.5,0-0.6c0-0.6,0.1-1.1,0.3-1.5c0.2-0.4,0.4-0.7,0.7-1s0.5-0.4,0.7-0.6
			s0.4-0.2,0.4-0.2c-0.3-0.1-0.5-0.1-0.7-0.3c-0.2-0.1-0.4-0.3-0.6-0.5c-0.2-0.2-0.3-0.4-0.4-0.6s-0.2-0.4-0.3-0.6
			c-0.2-0.5-0.3-1-0.3-1.5c0-0.5,0-1,0.1-1.5c0.1-0.4,0.2-0.8,0.4-1.1c0.2-0.3,0.3-0.6,0.5-0.8c0.2-0.2,0.4-0.4,0.6-0.5
			c0.5-0.3,1.1-0.5,1.7-0.5h2.8v2.1h-1.7c-0.3,0-0.6,0-0.8,0.1s-0.4,0.2-0.6,0.3c-0.2,0.1-0.3,0.2-0.4,0.4c-0.1,0.1-0.2,0.3-0.3,0.4
			c-0.2,0.3-0.3,0.7-0.3,1.1c0,0.4,0.1,0.7,0.2,1c0.1,0.3,0.3,0.5,0.4,0.6c0.2,0.2,0.4,0.3,0.6,0.4s0.4,0.2,0.6,0.2
			c0.2,0,0.3,0.1,0.5,0.1s0.2,0,0.2,0h1.7v2.1h-1.7c-0.4,0-0.7,0-0.9,0.1c-0.3,0.1-0.5,0.2-0.6,0.3c-0.2,0.1-0.3,0.3-0.4,0.4
			c-0.1,0.2-0.2,0.3-0.2,0.5c0,0.2-0.1,0.3-0.1,0.4c0,0.1,0,0.2,0,0.2c0,0.4,0,0.7,0.1,1c0.1,0.3,0.2,0.5,0.4,0.6
			c0.1,0.2,0.3,0.3,0.5,0.4c0.2,0.1,0.4,0.2,0.5,0.2c0.2,0,0.3,0.1,0.4,0.1c0.1,0,0.2,0,0.3,0h0.1h2.5c0.5,0,0.9-0.1,1.2-0.3
			c0.3-0.2,0.5-0.5,0.6-0.7c0.2-0.3,0.3-0.7,0.3-1.1V45.3H1295.6z"/>
		<path class="st1" d="M1309.2,55.3c-0.1,1-0.3,1.9-0.7,2.7c-0.2,0.3-0.4,0.7-0.7,1c-0.3,0.3-0.6,0.6-1,0.9s-0.8,0.5-1.3,0.6
			c-0.5,0.2-1.1,0.2-1.8,0.2c-0.7,0-1.3-0.1-1.8-0.2c-0.5-0.2-1-0.4-1.3-0.6s-0.7-0.5-1-0.9c-0.3-0.3-0.5-0.7-0.7-1
			c-0.4-0.8-0.7-1.7-0.7-2.7v-3.1h3.9v2.1h-1.8v0.9c0,0.4,0,0.8,0.1,1.1c0.1,0.3,0.2,0.6,0.4,0.8c0.2,0.2,0.3,0.4,0.5,0.6
			c0.2,0.2,0.4,0.3,0.6,0.4c0.5,0.2,1.1,0.4,1.7,0.4c0.6,0,1.2-0.2,1.7-0.4c0.2-0.1,0.4-0.2,0.6-0.4c0.2-0.2,0.4-0.4,0.5-0.6
			c0.2-0.2,0.3-0.5,0.4-0.8c0.1-0.3,0.1-0.7,0.1-1.1v-4.6c0-0.4,0-0.7-0.1-1c-0.1-0.3-0.2-0.6-0.4-0.8c-0.2-0.2-0.3-0.4-0.5-0.6
			c-0.2-0.2-0.4-0.3-0.6-0.4c-0.5-0.2-1.1-0.4-1.7-0.4h-0.2c-0.1,0-0.4,0-0.7,0.1c-0.3,0.1-0.6,0.2-0.9,0.3s-0.6,0.4-0.9,0.7
			c-0.3,0.3-0.5,0.7-0.6,1.2h-2.1c0.1-0.3,0.1-0.5,0.2-0.9c0.1-0.3,0.2-0.7,0.4-1c0.2-0.3,0.4-0.7,0.7-1s0.6-0.6,1-0.9
			c0.4-0.3,0.8-0.5,1.3-0.6c0.5-0.2,1.1-0.2,1.7-0.2c0.7,0,1.2,0.1,1.8,0.2c0.5,0.2,1,0.4,1.3,0.6c0.4,0.3,0.7,0.6,1,0.9
			c0.3,0.3,0.5,0.7,0.7,1c0.4,0.8,0.7,1.7,0.7,2.7V55.3z"/>
		<path class="st1" d="M1320.1,60.5v-9.6c0-0.6-0.2-1.2-0.5-1.7c-0.1-0.2-0.3-0.4-0.4-0.6s-0.4-0.4-0.6-0.6
			c-0.3-0.2-0.5-0.3-0.9-0.4c-0.3-0.1-0.7-0.1-1.2-0.1c-0.4,0-0.8,0-1.2,0.1c-0.3,0.1-0.6,0.2-0.9,0.4c-0.2,0.2-0.5,0.4-0.6,0.6
			s-0.3,0.4-0.4,0.6c-0.3,0.5-0.4,1.1-0.5,1.7v5c0,0.3,0.1,0.6,0.2,0.9c0.1,0.3,0.2,0.5,0.3,0.8s0.3,0.5,0.5,0.6
			c0.3,0.2,0.6,0.3,0.8,0.3c0.3,0,0.5-0.1,0.7-0.2c0.2-0.1,0.4-0.3,0.5-0.4l1.4,1.5c-0.2,0.2-0.4,0.4-0.7,0.6
			c-0.2,0.2-0.5,0.3-0.8,0.4s-0.7,0.2-1.1,0.2c-0.1,0-0.3,0-0.4,0c-0.1,0-0.3,0-0.4-0.1c-0.5-0.1-1-0.4-1.3-0.7
			c-0.4-0.3-0.7-0.7-1-1.1c-0.3-0.4-0.5-0.9-0.6-1.4c-0.1-0.5-0.2-1-0.2-1.6v-5c0.1-0.9,0.2-1.7,0.5-2.3c0.3-0.6,0.6-1.2,0.9-1.6
			c0.4-0.4,0.7-0.8,1.1-1c0.4-0.2,0.8-0.4,1.2-0.5c0.4-0.1,0.7-0.2,1-0.2c0.3,0,0.5,0,0.7,0h0.2h0.2c0.1,0,0.4,0,0.7,0
			c0.3,0,0.6,0.1,1,0.2c0.4,0.1,0.8,0.3,1.2,0.5s0.8,0.6,1.2,1c0.4,0.4,0.7,0.9,0.9,1.6c0.3,0.6,0.4,1.4,0.5,2.3v9.6H1320.1z"/>
		<path class="st1" d="M1334.5,45.3v10.2c0,0.8-0.1,1.6-0.3,2.2c-0.2,0.6-0.5,1.1-0.8,1.5s-0.7,0.7-1.1,0.9s-0.8,0.4-1.2,0.5
			c-0.4,0.1-0.7,0.2-1,0.2c-0.3,0-0.5,0-0.5,0c-0.8,0-1.5-0.1-2.1-0.4c-0.6-0.2-1-0.5-1.4-0.9c-0.4-0.4-0.7-0.8-0.9-1.2
			c-0.2-0.4-0.4-0.9-0.5-1.2c-0.1-0.4-0.2-0.7-0.2-1c0-0.3,0-0.5,0-0.6c0-0.5,0.1-0.9,0.2-1.3c0.1-0.4,0.3-0.8,0.5-1.1
			c0.2-0.3,0.4-0.6,0.7-0.9s0.5-0.5,0.7-0.8c0.2-0.2,0.4-0.5,0.5-0.7c0.1-0.2,0.2-0.5,0.3-0.7c0-0.1,0-0.1,0-0.2c0-0.1,0-0.1,0-0.2
			c0-0.3-0.1-0.6-0.2-0.9c-0.1-0.2-0.2-0.4-0.4-0.6c-0.2-0.2-0.4-0.3-0.6-0.4c-0.2-0.1-0.4-0.2-0.6-0.2c-0.2,0-0.4-0.1-0.6-0.1
			c-0.2,0-0.3,0-0.4,0h-0.1v-2.1h1.2c0.6,0,1,0.1,1.4,0.3c0.4,0.2,0.7,0.4,1,0.7c0.3,0.3,0.5,0.6,0.6,0.9c0.2,0.3,0.3,0.7,0.4,1
			c0.1,0.3,0.1,0.6,0.2,0.9c0,0.3,0,0.5,0,0.7c0,0,0,0.1,0,0.1c0,0,0,0.1,0,0.1v0.1c0,0.3-0.1,0.5-0.2,0.8c-0.1,0.3-0.2,0.5-0.3,0.7
			c-0.1,0.2-0.3,0.5-0.5,0.7c-0.4,0.5-0.7,0.9-0.9,1.3c-0.2,0.4-0.4,0.7-0.5,1c-0.1,0.3-0.2,0.5-0.2,0.7c0,0.2,0,0.3,0,0.3
			c0,0.5,0.1,1,0.2,1.3c0.1,0.4,0.3,0.6,0.5,0.9c0.2,0.2,0.4,0.4,0.6,0.5c0.2,0.1,0.4,0.2,0.7,0.3s0.4,0.1,0.5,0.1s0.3,0,0.3,0
			c0.4,0,0.8-0.1,1.1-0.2c0.3-0.1,0.6-0.3,0.8-0.5c0.2-0.2,0.4-0.4,0.5-0.7c0.1-0.3,0.2-0.5,0.3-0.7c0.1-0.2,0.1-0.4,0.1-0.6
			c0-0.2,0-0.3,0-0.3V45.3H1334.5z"/>
		<path class="st1" d="M1339.1,45.2c0.1,0,0.2,0,0.4,0c0.2,0,0.4,0.1,0.7,0.1c0.3,0.1,0.6,0.2,0.9,0.4s0.6,0.4,0.8,0.8
			s0.5,0.8,0.6,1.3c0.2,0.5,0.3,1.1,0.3,1.9v10.8h-2.1V49.7c0-0.4-0.1-0.8-0.2-1.1c-0.1-0.1-0.1-0.3-0.2-0.4s-0.2-0.3-0.3-0.4
			c-0.1-0.1-0.2-0.2-0.4-0.2c-0.2-0.1-0.3-0.1-0.5-0.1c-0.3,0-0.6,0-0.9,0.1c-0.2,0.1-0.4,0.2-0.6,0.3c-0.2,0.1-0.3,0.2-0.4,0.3
			c-0.1,0.1-0.2,0.2-0.2,0.2l-1.4-1.6c0.2-0.3,0.5-0.6,0.8-0.8c0.3-0.2,0.6-0.4,1.1-0.6S1338.5,45.2,1339.1,45.2z"/>
		<path class="st1" d="M1356.3,45.3v10.9c0,0.6-0.1,1.2-0.3,1.7s-0.4,0.9-0.7,1.2c-0.3,0.3-0.6,0.6-0.9,0.8c-0.3,0.2-0.6,0.3-1,0.4
			c-0.3,0.1-0.6,0.2-0.8,0.2c-0.2,0-0.4,0-0.5,0h-2.6c-0.7,0-1.3-0.1-1.8-0.2c-0.5-0.2-0.9-0.4-1.2-0.6c-0.3-0.3-0.6-0.5-0.8-0.8
			c-0.2-0.3-0.3-0.6-0.4-0.9s-0.2-0.6-0.2-0.8s0-0.5,0-0.6c0-0.6,0.1-1.1,0.3-1.5c0.2-0.4,0.4-0.7,0.7-1s0.5-0.4,0.7-0.6
			s0.4-0.2,0.4-0.2c-0.3-0.1-0.5-0.1-0.7-0.3c-0.2-0.1-0.4-0.3-0.6-0.5c-0.2-0.2-0.3-0.4-0.4-0.6s-0.2-0.4-0.3-0.6
			c-0.2-0.5-0.3-1-0.3-1.5c0-0.5,0-1,0.1-1.5c0.1-0.4,0.2-0.8,0.4-1.1c0.2-0.3,0.3-0.6,0.5-0.8c0.2-0.2,0.4-0.4,0.6-0.5
			c0.5-0.3,1.1-0.5,1.7-0.5h2.8v2.1h-1.7c-0.3,0-0.6,0-0.8,0.1s-0.4,0.2-0.6,0.3c-0.2,0.1-0.3,0.2-0.4,0.4c-0.1,0.1-0.2,0.3-0.3,0.4
			c-0.2,0.3-0.3,0.7-0.3,1.1c0,0.4,0.1,0.7,0.2,1c0.1,0.3,0.3,0.5,0.4,0.6s0.4,0.3,0.6,0.4s0.4,0.2,0.6,0.2c0.2,0,0.3,0.1,0.5,0.1
			s0.2,0,0.2,0h1.7v2.1h-1.7c-0.4,0-0.7,0-0.9,0.1c-0.3,0.1-0.5,0.2-0.6,0.3c-0.2,0.1-0.3,0.3-0.4,0.4c-0.1,0.2-0.2,0.3-0.2,0.5
			c0,0.2-0.1,0.3-0.1,0.4c0,0.1,0,0.2,0,0.2c0,0.4,0,0.7,0.1,1c0.1,0.3,0.2,0.5,0.4,0.6c0.1,0.2,0.3,0.3,0.5,0.4
			c0.2,0.1,0.4,0.2,0.5,0.2c0.2,0,0.3,0.1,0.4,0.1c0.1,0,0.2,0,0.3,0h0.1h2.5c0.5,0,0.9-0.1,1.2-0.3c0.3-0.2,0.5-0.5,0.6-0.7
			c0.2-0.3,0.3-0.7,0.3-1.1V45.3H1356.3z"/>
		<path class="st1" d="M1372,45.3v11.5c-0.1,0.7-0.3,1.4-0.6,2c-0.1,0.2-0.3,0.5-0.5,0.7c-0.2,0.2-0.4,0.4-0.7,0.6
			c-0.3,0.2-0.6,0.3-1,0.4s-0.8,0.2-1.2,0.2c-0.3,0-0.7,0-1-0.1c-0.3-0.1-0.6-0.2-0.8-0.4s-0.4-0.4-0.5-0.7s-0.2-0.6-0.2-1
			c0,0.4-0.1,0.7-0.2,1c-0.1,0.3-0.3,0.5-0.5,0.7s-0.5,0.3-0.8,0.4c-0.3,0.1-0.6,0.1-1,0.1c-0.5,0-0.9-0.1-1.2-0.2
			c-0.4-0.1-0.7-0.3-1-0.4c-0.3-0.2-0.5-0.4-0.7-0.6c-0.2-0.2-0.4-0.5-0.5-0.7c-0.3-0.6-0.5-1.2-0.6-2V45.3h2.1v10.6
			c0,0.7,0.1,1.2,0.2,1.5s0.3,0.6,0.5,0.8c0.2,0.2,0.4,0.3,0.6,0.3c0.2,0,0.3,0,0.4,0h0.1c0.4,0,0.7-0.1,0.9-0.3
			c0.2-0.2,0.4-0.4,0.5-0.7s0.2-0.5,0.2-0.8c0-0.3,0-0.5,0-0.6v-0.2V45.3h1.8v10.6v0.2c0,0.1,0,0.3,0.1,0.6c0,0.3,0.1,0.5,0.2,0.8
			s0.3,0.5,0.5,0.7c0.2,0.2,0.5,0.3,0.9,0.3h0.1c0.1,0,0.2,0,0.4,0s0.4-0.1,0.6-0.3c0.2-0.2,0.4-0.4,0.5-0.8
			c0.1-0.4,0.2-0.9,0.2-1.5V45.3H1372z"/>
		<path class="st1" d="M1369.3,64.1h-1V62h1.9c0.3,0,0.5,0.1,0.7,0.3c0.2,0.2,0.3,0.5,0.3,0.8v4.5h-2V64.1z"/>
		<path class="st1" d="M1370.4,39.2v4.3h-2v-4.3H1370.4z"/>
		<path class="st1" d="M1376.3,45.3h4.1v11c0,0.7-0.1,1.3-0.3,1.8c-0.2,0.5-0.4,0.9-0.6,1.3s-0.5,0.6-0.8,0.8
			c-0.3,0.2-0.6,0.3-0.9,0.4c-0.3,0.1-0.5,0.1-0.7,0.2s-0.3,0-0.4,0c-0.6,0-1.1-0.1-1.5-0.3s-0.8-0.4-1.1-0.6
			c-0.3-0.2-0.6-0.5-0.8-0.8l1.4-1.5c0,0,0.1,0.1,0.2,0.2c0.1,0.1,0.2,0.2,0.4,0.3c0.2,0.1,0.4,0.2,0.6,0.3c0.2,0.1,0.5,0.1,0.8,0.1
			c0.2,0,0.4,0,0.5-0.1c0.2-0.1,0.3-0.2,0.4-0.3c0.1-0.1,0.2-0.2,0.3-0.4c0.1-0.1,0.1-0.3,0.2-0.4c0.1-0.3,0.2-0.7,0.2-1.2v-8.8h-2
			V45.3z"/>
		<path class="st1" d="M1382.8,60.5V48.9c0.3-0.6,0.6-1.1,0.9-1.5c0.3-0.4,0.7-0.7,1-1c0.4-0.3,0.7-0.5,1.1-0.6
			c0.4-0.2,0.7-0.3,1-0.4c0.3-0.1,0.6-0.1,0.8-0.1s0.4,0,0.5,0h0.1c0.7,0,1.3,0.1,1.8,0.3s1,0.4,1.3,0.6c0.4,0.3,0.7,0.6,1,0.9
			s0.5,0.7,0.7,1s0.3,0.7,0.4,1s0.2,0.6,0.2,0.9c0,0.3,0.1,0.5,0.1,0.7c0,0.2,0,0.3,0,0.4v9.4h-2.1v-9.4c0-0.6-0.1-1.1-0.2-1.5
			c-0.2-0.4-0.3-0.8-0.6-1c-0.2-0.3-0.5-0.5-0.8-0.6s-0.5-0.2-0.8-0.3c-0.3-0.1-0.5-0.1-0.7-0.1c-0.2,0-0.3,0-0.4,0
			c-0.4,0-0.8,0.1-1.1,0.2c-0.3,0.1-0.6,0.2-0.8,0.4s-0.4,0.4-0.6,0.6c-0.2,0.2-0.3,0.4-0.4,0.7c-0.2,0.5-0.4,1.1-0.4,1.8v9.4
			H1382.8z"/>
		<path class="st1" d="M1404.2,49.2l-0.9-0.6c-0.2-0.2-0.5-0.3-0.7-0.4c-0.3-0.1-0.5-0.3-0.8-0.4s-0.5-0.2-0.8-0.2s-0.4-0.1-0.6-0.1
			c-0.3,0-0.6,0-0.9,0.1c-0.3,0.1-0.6,0.2-0.8,0.3c-0.2,0.2-0.4,0.4-0.5,0.7c-0.1,0.3-0.2,0.7-0.2,1.1s0.1,0.8,0.3,1.1
			c0.2,0.3,0.5,0.5,0.9,0.6c0.4,0.1,0.8,0.3,1.2,0.3s0.9,0.2,1.4,0.2c0.5,0.1,0.9,0.3,1.3,0.5c0.4,0.3,0.8,0.6,1.1,0.9
			c0.3,0.4,0.6,0.8,0.8,1.3c0.2,0.5,0.3,1,0.3,1.5c0,0.8-0.1,1.5-0.4,2c-0.3,0.6-0.6,1.1-1.1,1.4c-0.4,0.4-1,0.6-1.6,0.8
			c-0.6,0.2-1.2,0.3-1.9,0.3c-1,0-1.8-0.1-2.4-0.3c-0.7-0.2-1.2-0.5-1.7-0.8c-0.5-0.3-0.9-0.7-1.3-1.1l1.4-1.5
			c0.2,0.2,0.4,0.4,0.7,0.6c0.3,0.2,0.6,0.4,0.9,0.5s0.7,0.3,1.1,0.4s0.8,0.1,1.2,0.1c0.4,0,0.8-0.1,1.2-0.2
			c0.4-0.1,0.7-0.3,0.9-0.5s0.4-0.5,0.6-0.8c0.1-0.3,0.2-0.6,0.2-1c0-0.4-0.1-0.7-0.2-0.9c-0.1-0.2-0.2-0.4-0.4-0.5
			c-0.2-0.1-0.3-0.2-0.5-0.3c-0.2-0.1-0.3-0.1-0.4-0.1c0,0-0.2,0-0.4-0.1c-0.2,0-0.5-0.1-0.8-0.1c-0.3-0.1-0.6-0.1-0.9-0.2
			s-0.5-0.1-0.7-0.1c-0.1,0-0.3-0.1-0.4-0.1c-0.2-0.1-0.4-0.2-0.6-0.3c-0.2-0.1-0.5-0.3-0.7-0.5c-0.2-0.2-0.5-0.4-0.7-0.7
			c-0.2-0.3-0.4-0.7-0.5-1.1c-0.1-0.4-0.2-0.9-0.2-1.4c0-0.8,0.1-1.5,0.4-2.1c0.3-0.6,0.6-1,1.1-1.4c0.4-0.4,0.9-0.6,1.5-0.8
			c0.5-0.2,1.1-0.2,1.7-0.2c0.6,0,1.1,0.1,1.6,0.2s0.9,0.3,1.2,0.5c0.4,0.2,0.8,0.4,1.1,0.7l1.1,0.8L1404.2,49.2z"/>
		<path class="st1" d="M1408.8,46.6v1.1h3.7v2.1h-4.7c-0.2,0-0.4,0-0.5-0.1c-0.1-0.1-0.2-0.2-0.3-0.3c-0.1-0.2-0.1-0.3-0.1-0.5v-2.3
			H1408.8z M1408.8,55.9V57h3.7v2.1h-4.7c-0.2,0-0.4,0-0.5-0.1c-0.1-0.1-0.2-0.2-0.3-0.3c-0.1-0.2-0.1-0.3-0.1-0.5v-2.3H1408.8z"/>
		<path class="st1" d="M1420.5,45.2c0.7,0,1.2,0.1,1.8,0.2c0.5,0.2,1,0.4,1.3,0.6c0.4,0.3,0.7,0.6,1,0.9c0.3,0.3,0.5,0.7,0.7,1
			c0.4,0.8,0.7,1.7,0.7,2.7v9.8h-2.1v-2.1c0,0.3-0.1,0.5-0.2,0.7c-0.1,0.2-0.2,0.4-0.4,0.6c-0.2,0.2-0.3,0.3-0.5,0.4
			s-0.4,0.2-0.6,0.3c-0.5,0.2-1,0.3-1.6,0.3h-0.5c-0.8,0-1.5-0.1-2-0.4c-0.6-0.2-1-0.6-1.4-0.9c-0.4-0.4-0.7-0.8-0.9-1.3
			c-0.2-0.5-0.4-0.9-0.5-1.4c-0.1-0.4-0.2-0.9-0.2-1.2c0-0.4,0-0.7,0-0.9h-0.7v-2.1h2.8v2.2c0,0.6,0.1,1.2,0.2,1.6
			c0.2,0.4,0.3,0.8,0.6,1.1c0.2,0.3,0.5,0.5,0.8,0.7c0.3,0.2,0.5,0.3,0.8,0.3c0.3,0.1,0.5,0.1,0.7,0.1c0.2,0,0.3,0,0.4,0
			c0.5,0,1-0.1,1.4-0.3s0.7-0.4,0.9-0.7c0.2-0.3,0.4-0.6,0.6-0.9c0.1-0.3,0.2-0.6,0.3-0.9c0.1-0.3,0.1-0.5,0.1-0.7
			c0-0.2,0-0.3,0-0.4v-4.1c0-0.4,0-0.7-0.1-1s-0.2-0.6-0.4-0.8s-0.3-0.4-0.5-0.6s-0.4-0.3-0.6-0.4c-0.5-0.2-1.1-0.4-1.7-0.4h-0.2
			c-0.1,0-0.4,0-0.7,0.1c-0.3,0.1-0.6,0.2-0.9,0.3c-0.3,0.2-0.6,0.4-0.9,0.7c-0.3,0.3-0.5,0.7-0.6,1.2h-2.1c0.1-0.3,0.1-0.5,0.2-0.9
			c0.1-0.3,0.2-0.7,0.4-1c0.2-0.3,0.4-0.7,0.7-1s0.6-0.6,1-0.9c0.4-0.3,0.8-0.5,1.3-0.6S1419.8,45.2,1420.5,45.2z"/>
		<path class="st1" d="M1425.6,61.6v3.9c0,0.3-0.1,0.5-0.3,0.7c-0.1,0.2-0.3,0.3-0.6,0.3h-2.7c-0.2,0-0.4-0.1-0.6-0.3
			c-0.2-0.2-0.2-0.4-0.2-0.7v-2.1h-0.8v-1.8h1.6c0.3,0,0.5,0.1,0.6,0.3c0.1,0.1,0.2,0.2,0.2,0.3s0.1,0.2,0.1,0.4v2.1h1.1v-3H1425.6z
			"/>
		<path class="st1" d="M1437.7,60.5v-9.6c0-0.6-0.2-1.2-0.5-1.7c-0.1-0.2-0.3-0.4-0.4-0.6s-0.4-0.4-0.6-0.6
			c-0.3-0.2-0.5-0.3-0.9-0.4c-0.3-0.1-0.7-0.1-1.2-0.1s-0.8,0-1.2,0.1c-0.3,0.1-0.6,0.2-0.9,0.4c-0.2,0.2-0.5,0.4-0.6,0.6
			c-0.2,0.2-0.3,0.4-0.4,0.6c-0.3,0.5-0.4,1.1-0.5,1.7v5c0,0.3,0.1,0.6,0.2,0.9c0.1,0.3,0.2,0.5,0.3,0.8c0.1,0.3,0.3,0.5,0.5,0.6
			c0.3,0.2,0.6,0.3,0.8,0.3c0.3,0,0.5-0.1,0.7-0.2c0.2-0.1,0.4-0.3,0.5-0.4l1.4,1.5c-0.2,0.2-0.4,0.4-0.7,0.6
			c-0.2,0.2-0.5,0.3-0.8,0.4s-0.7,0.2-1.1,0.2c-0.1,0-0.2,0-0.4,0c-0.1,0-0.3,0-0.4-0.1c-0.5-0.1-1-0.4-1.3-0.7
			c-0.4-0.3-0.7-0.7-1-1.1c-0.3-0.4-0.5-0.9-0.6-1.4c-0.1-0.5-0.2-1-0.2-1.6v-5c0.1-0.9,0.2-1.7,0.5-2.3c0.3-0.6,0.6-1.2,0.9-1.6
			c0.4-0.4,0.7-0.8,1.1-1c0.4-0.2,0.8-0.4,1.2-0.5c0.4-0.1,0.7-0.2,1-0.2c0.3,0,0.5,0,0.7,0h0.2h0.2c0.1,0,0.4,0,0.7,0
			c0.3,0,0.6,0.1,1,0.2c0.4,0.1,0.8,0.3,1.2,0.5s0.8,0.6,1.2,1c0.4,0.4,0.7,0.9,0.9,1.6c0.3,0.6,0.4,1.4,0.5,2.3v9.6H1437.7z"/>
	</g>
</g>
<g>
	<rect x="1325" y="-79.4" class="st3" width="40" height="38.7"/>
	<rect x="1329.9" y="-65.3" class="st3" width="12.9" height="24.6"/>
	<circle class="st3" cx="1338.8" cy="-55.3" r="1.8"/>
	<polygon class="st3" points="1375.3,-79.4 1366.7,-90.9 1353.6,-90.9 1353.6,-91 1345.9,-90.9 1338.2,-91 1338.2,-90.9 1325,-90.9 
		1316.5,-79.4 1345.9,-79.5 	"/>
	<path class="st3" d="M1323-77.6c0,1.8-1.5,3.3-3.3,3.3s-3.3-1.5-3.3-3.3v-1.9h6.5V-77.6z"/>
	<path class="st3" d="M1329.5-77.6c0,1.8-1.5,3.3-3.3,3.3s-3.3-1.5-3.3-3.3v-1.9h6.5V-77.6z"/>
	<path class="st3" d="M1336.1-77.6c0,1.8-1.5,3.3-3.3,3.3c-1.8,0-3.3-1.5-3.3-3.3v-1.9h6.5V-77.6z"/>
	<path class="st3" d="M1342.6-77.6c0,1.8-1.5,3.3-3.3,3.3c-1.8,0-3.3-1.5-3.3-3.3v-1.9h6.5V-77.6z"/>
	<path class="st3" d="M1349.1-77.6c0,1.8-1.5,3.3-3.3,3.3c-1.8,0-3.3-1.5-3.3-3.3v-1.9h6.5V-77.6z"/>
	<path class="st3" d="M1355.7-77.6c0,1.8-1.5,3.3-3.3,3.3s-3.3-1.5-3.3-3.3v-1.9h6.5V-77.6z"/>
	<path class="st3" d="M1362.2-77.6c0,1.8-1.5,3.3-3.3,3.3c-1.8,0-3.3-1.5-3.3-3.3v-1.9h6.5V-77.6z"/>
	<path class="st3" d="M1368.7-77.6c0,1.8-1.5,3.3-3.3,3.3c-1.8,0-3.3-1.5-3.3-3.3v-1.9h6.5V-77.6z"/>
	<path class="st3" d="M1375.3-77.6c0,1.8-1.5,3.3-3.3,3.3c-1.8,0-3.3-1.5-3.3-3.3v-1.9h6.5V-77.6z"/>
</g>
</svg>
