<?xml version="1.0" encoding="utf-8"?>
<!-- Generator: Adobe Illustrator 19.0.0, SVG Export Plug-In . SVG Version: 6.00 Build 0)  -->
<svg version="1.1" id="Layer_1" xmlns="http://www.w3.org/2000/svg" xmlns:xlink="http://www.w3.org/1999/xlink" x="0px" y="0px"
	 viewBox="416.2 -129.5 229.1 236.7" style="enable-background:new 416.2 -129.5 229.1 236.7;" xml:space="preserve">
<style type="text/css">
	.st0{fill:#33CCCC;}
	.st1{fill:#3F3F3F;}
	.st2{fill:none;stroke:#FFFFFF;stroke-width:1.5;stroke-miterlimit:10;}
</style>
<rect x="416.2" y="-129.5" class="st0" width="229.1" height="236.7"/>
<g>
	<g>
		<path class="st1" d="M503.6-9.6c0,0,0,0.1-0.1,0.2c-0.1,0.1-0.2,0.2-0.3,0.4s-0.3,0.3-0.4,0.4c-0.1,0.2-0.3,0.3-0.4,0.4
			c-0.1,0.1-0.3,0.2-0.4,0.3c-0.1,0.1-0.2,0.2-0.3,0.2c0.3,0.4,0.5,0.8,0.7,1.2c0.2,0.4,0.3,0.8,0.4,1.2s0.1,0.7,0.1,1
			c0,0.3,0,0.5,0,0.6v0.1v9.3h-2.1V1.4c0-0.4-0.1-0.8-0.3-1.1c-0.2-0.3-0.4-0.5-0.7-0.7s-0.6-0.3-0.9-0.5c-0.3-0.1-0.6-0.2-0.9-0.2
			c-0.3-0.1-0.6-0.1-1-0.1c0,0-0.1,0-0.3,0c-0.1,0-0.3,0-0.5,0.1c-0.2,0.1-0.4,0.1-0.7,0.2c-0.2,0.1-0.5,0.2-0.7,0.4
			c-0.2,0.2-0.4,0.4-0.6,0.7s-0.3,0.6-0.4,1.1c0,0.1,0,0.1,0,0.2s0,0.1,0,0.2c0,0.3,0.1,0.6,0.2,0.8c0.1,0.2,0.3,0.4,0.6,0.6
			c0.2,0.2,0.5,0.3,0.8,0.4c0.3,0.1,0.6,0.2,0.8,0.2c0.3,0,0.5,0.1,0.7,0.1c0.2,0,0.4,0,0.5,0h0.2v2.1h-2.4c-0.5,0-0.9-0.1-1.4-0.3
			s-0.8-0.5-1.1-0.9s-0.6-0.8-0.8-1.4s-0.3-1.1-0.3-1.6c0-0.6,0.1-1.1,0.4-1.7c0.2-0.6,0.6-1.1,1.2-1.7c0.3-0.3,0.7-0.6,1-0.8
			c0.3-0.2,0.7-0.4,1-0.5c0.3-0.1,0.7-0.2,1-0.3s0.7-0.1,1-0.1c0.5,0,0.9,0,1.3,0.1c0.4,0.1,0.8,0.2,1.1,0.3c0.4,0.1,0.7,0.3,1,0.5
			v-0.9c0-0.5,0-0.9-0.1-1.2c-0.1-0.4-0.2-0.7-0.4-0.9c-0.2-0.3-0.3-0.5-0.5-0.7c-0.2-0.2-0.4-0.3-0.6-0.4c-0.5-0.3-1.1-0.4-1.7-0.5
			c-0.6,0-1,0.1-1.4,0.3c-0.4,0.2-0.7,0.5-1,0.8c-0.3,0.3-0.4,0.6-0.6,1c-0.1,0.3-0.2,0.6-0.3,0.9h-2.2c0.1-0.8,0.2-1.6,0.4-2.1
			c0.2-0.6,0.5-1.1,0.9-1.5s0.7-0.7,1.1-0.9c0.4-0.2,0.8-0.4,1.2-0.5c0.4-0.1,0.7-0.2,1-0.2c0.3,0,0.5,0,0.6,0h0.1
			c0.7,0,1.3,0.1,2,0.3c0.4-0.1,0.7-0.2,1.1-0.3c0.3-0.1,0.6-0.3,0.9-0.6s0.6-0.6,0.8-1.1l0.7,0.8c0.1,0.1,0.2,0.2,0.3,0.3
			c0.1,0.1,0.2,0.2,0.2,0.3c0.1,0.1,0.1,0.1,0.2,0.2S503.5-9.6,503.6-9.6z"/>
		<path class="st1" d="M502-13.3v2.2h-7.8v-2.2H502z"/>
		<path class="st1" d="M514.1,5.8v-9.4c0-0.6-0.1-1.1-0.2-1.5c-0.2-0.4-0.3-0.7-0.6-1c-0.2-0.3-0.5-0.5-0.8-0.6
			c-0.3-0.1-0.5-0.3-0.8-0.3c-0.3-0.1-0.5-0.1-0.7-0.1c-0.2,0-0.3,0-0.4,0c-0.5,0-1,0.1-1.4,0.2c-0.4,0.2-0.7,0.4-0.9,0.6
			s-0.4,0.5-0.6,0.8c-0.1,0.3-0.2,0.6-0.3,0.8c-0.1,0.3-0.1,0.5-0.1,0.7c0,0.2,0,0.3,0,0.3v9.4h-2.1V-9.4h2.1v2.1
			c0-0.3,0.1-0.5,0.2-0.7c0.1-0.2,0.2-0.4,0.4-0.6c0.2-0.2,0.3-0.3,0.5-0.4c0.2-0.1,0.4-0.2,0.6-0.3c0.5-0.2,1-0.3,1.6-0.3h0.5
			c0.8,0,1.5,0.1,2,0.3s1,0.5,1.4,0.9c0.4,0.4,0.7,0.8,0.9,1.2c0.2,0.4,0.4,0.9,0.5,1.3s0.2,0.8,0.2,1.1c0,0.3,0,0.6,0,0.8v0.2v9.4
			H514.1z"/>
		<path class="st1" d="M524.8-2.7c0.5,0.1,0.9,0.3,1.3,0.5c0.4,0.3,0.8,0.6,1.1,0.9s0.6,0.8,0.8,1.3c0.2,0.5,0.3,1,0.3,1.5
			c0,0.8-0.1,1.5-0.4,2c-0.3,0.6-0.6,1.1-1.1,1.4c-0.4,0.4-1,0.6-1.6,0.8c-0.6,0.2-1.2,0.3-1.9,0.3c-0.6,0-1.1,0-1.6-0.1
			c-0.5-0.1-0.9-0.2-1.3-0.4c-0.4-0.2-0.7-0.3-1-0.5c-0.3-0.2-0.5-0.3-0.7-0.5V1h2.1v2.3c0.4,0.2,0.8,0.3,1.2,0.4
			c0.4,0.1,0.9,0.2,1.4,0.2c0.4,0,0.8-0.1,1.2-0.2c0.4-0.1,0.7-0.3,0.9-0.5c0.2-0.2,0.4-0.5,0.6-0.8c0.1-0.3,0.2-0.6,0.2-1
			c0-0.4-0.1-0.7-0.2-0.9c-0.1-0.2-0.2-0.4-0.4-0.5c-0.2-0.1-0.3-0.2-0.5-0.3c-0.2-0.1-0.3-0.1-0.4-0.1c0,0-0.2,0-0.4-0.1
			c-0.2,0-0.5-0.1-0.8-0.1s-0.6-0.1-0.9-0.2s-0.5-0.1-0.7-0.1c-0.1,0-0.3-0.1-0.4-0.1c-0.2-0.1-0.4-0.2-0.6-0.3
			c-0.2-0.1-0.5-0.3-0.7-0.5c-0.2-0.2-0.5-0.4-0.7-0.7c-0.2-0.3-0.4-0.7-0.5-1.1c-0.1-0.4-0.2-0.9-0.2-1.4c0-0.8,0.1-1.5,0.4-2.1
			c0.3-0.6,0.6-1,1.1-1.4c0.4-0.4,0.9-0.6,1.5-0.8c0.5-0.2,1.1-0.2,1.7-0.2c0.6,0,1.1,0.1,1.6,0.2s0.9,0.3,1.2,0.5
			c0.4,0.2,0.8,0.4,1.1,0.7l1.1,0.8l-1.2,1.9l-0.9-0.6c-0.2-0.2-0.5-0.3-0.7-0.4c-0.3-0.1-0.5-0.3-0.8-0.4c-0.3-0.1-0.5-0.2-0.8-0.2
			s-0.4-0.1-0.6-0.1c-0.3,0-0.6,0-0.9,0.1c-0.3,0.1-0.6,0.2-0.8,0.3c-0.2,0.2-0.4,0.4-0.5,0.7C521-5.8,521-5.4,521-5
			c0,0.5,0.1,0.8,0.3,1.1c0.2,0.3,0.5,0.5,0.9,0.6c0.4,0.1,0.8,0.3,1.2,0.3C523.9-2.9,524.4-2.8,524.8-2.7z"/>
		<path class="st1" d="M526.9-13.3v2.2h-7.8v-2.2H526.9z"/>
		<path class="st1" d="M543.2-9.4V2.1c-0.1,0.7-0.3,1.4-0.6,2c-0.1,0.2-0.3,0.5-0.5,0.7c-0.2,0.2-0.4,0.4-0.7,0.6
			c-0.3,0.2-0.6,0.3-1,0.4s-0.8,0.2-1.2,0.2c-0.3,0-0.7,0-1-0.1c-0.3-0.1-0.6-0.2-0.8-0.4s-0.4-0.4-0.5-0.7c-0.1-0.3-0.2-0.6-0.2-1
			c0,0.4-0.1,0.7-0.2,1c-0.1,0.3-0.3,0.5-0.5,0.7s-0.5,0.3-0.8,0.4c-0.3,0.1-0.6,0.1-1,0.1c-0.5,0-0.9-0.1-1.2-0.2
			c-0.4-0.1-0.7-0.3-1-0.4c-0.3-0.2-0.5-0.4-0.7-0.6c-0.2-0.2-0.4-0.5-0.5-0.7c-0.3-0.6-0.5-1.2-0.6-2V-9.4h2.1V1.3
			c0,0.7,0.1,1.2,0.2,1.5c0.1,0.4,0.3,0.6,0.5,0.8c0.2,0.2,0.4,0.3,0.6,0.3c0.2,0,0.3,0,0.4,0h0.1c0.4,0,0.7-0.1,0.9-0.3
			c0.2-0.2,0.4-0.4,0.5-0.7c0.1-0.3,0.2-0.5,0.2-0.8c0-0.3,0-0.5,0-0.6V1.3V-9.4h1.8V1.3v0.2c0,0.1,0,0.3,0.1,0.6
			c0,0.3,0.1,0.5,0.2,0.8c0.1,0.3,0.3,0.5,0.5,0.7c0.2,0.2,0.5,0.3,0.9,0.3h0.1c0.1,0,0.2,0,0.4,0c0.2,0,0.4-0.1,0.6-0.3
			c0.2-0.2,0.4-0.4,0.5-0.8c0.1-0.4,0.2-0.9,0.2-1.5V-9.4H543.2z"/>
		<path class="st1" d="M542.2-13.3v2.2h-7.8v-2.2H542.2z"/>
		<path class="st1" d="M547.7,5.8h-2.1V-9.4h2.1V5.8z"/>
		<path class="st1" d="M562-9.6c0,0.1-0.1,0.2-0.2,0.4s-0.3,0.4-0.6,0.6c-0.2,0.2-0.4,0.4-0.6,0.6c-0.2,0.2-0.4,0.3-0.5,0.4
			c0.3,0.4,0.5,0.8,0.7,1.2c0.2,0.4,0.3,0.8,0.4,1.2s0.1,0.7,0.1,1c0,0.3,0,0.5,0,0.6v0.1v9.3h-2.1v-9.3c0-0.5,0-0.9-0.1-1.2
			c-0.1-0.4-0.2-0.7-0.4-0.9c-0.2-0.3-0.3-0.5-0.5-0.7c-0.2-0.2-0.4-0.3-0.6-0.4c-0.5-0.3-1.1-0.4-1.7-0.5c-0.4,0-0.8,0.1-1.1,0.2
			c-0.3,0.1-0.6,0.3-0.8,0.4c-0.2,0.2-0.4,0.4-0.6,0.6s-0.3,0.5-0.4,0.7c-0.3,0.6-0.4,1.2-0.5,1.9v1.5c0.4-0.2,0.8-0.4,1.3-0.6
			c0.4-0.1,0.9-0.2,1.4-0.2c0.4,0,0.9,0.1,1.3,0.2v2.4c-0.2-0.1-0.4-0.1-0.6-0.2c-0.2,0-0.4,0-0.7,0c-0.6,0-1.2,0.2-1.7,0.5
			c-0.2,0.2-0.4,0.4-0.6,0.6c-0.2,0.3-0.3,0.5-0.4,0.8v4.2h-2.1v-9.4c0-0.9,0.1-1.7,0.3-2.4c0.2-0.7,0.5-1.2,0.9-1.6
			c0.4-0.4,0.7-0.8,1.2-1s0.8-0.4,1.2-0.6c0.4-0.1,0.8-0.2,1.1-0.2c0.3,0,0.5,0,0.7,0h0.1c0.4,0,0.7,0,1.1,0.1
			c0.3,0,0.6,0.1,0.9,0.2c0,0,0.1,0,0.3-0.1c0.2,0,0.5-0.1,0.7-0.3c0.3-0.1,0.6-0.3,0.9-0.6c0.3-0.3,0.5-0.6,0.7-1
			c0.3,0.3,0.5,0.5,0.7,0.7c0.1,0.1,0.2,0.2,0.3,0.3c0.1,0.1,0.2,0.2,0.2,0.3s0.1,0.1,0.2,0.2S561.9-9.6,562-9.6z"/>
		<path class="st1" d="M576.1-1.9h-1.3v2.5c-0.1,1-0.3,1.9-0.8,2.7c-0.2,0.3-0.4,0.7-0.7,1c-0.3,0.3-0.6,0.6-1,0.9s-0.8,0.5-1.3,0.6
			c-0.5,0.2-1.1,0.2-1.8,0.2c-0.7,0-1.3-0.1-1.8-0.2c-0.5-0.2-1-0.4-1.3-0.6s-0.7-0.5-1-0.9c-0.3-0.3-0.5-0.7-0.7-1
			c-0.4-0.8-0.7-1.7-0.7-2.7V-9.6h2.1V0.6c0,0.4,0,0.8,0.1,1.1c0.1,0.3,0.2,0.6,0.4,0.8c0.2,0.2,0.3,0.4,0.5,0.6
			c0.2,0.2,0.4,0.3,0.6,0.4c0.5,0.2,1.1,0.4,1.7,0.4c0.6,0,1.2-0.2,1.7-0.4c0.2-0.1,0.4-0.2,0.6-0.4c0.2-0.2,0.4-0.4,0.5-0.6
			c0.2-0.2,0.3-0.5,0.4-0.8c0.1-0.3,0.1-0.7,0.1-1.1v-2.5h-2.4c-0.2,0-0.4,0-0.5-0.1c-0.1-0.1-0.2-0.2-0.3-0.3
			c-0.1-0.2-0.1-0.3-0.1-0.5v-2.3h2V-4h1.4v-5.6h2.1V-4h1.3V-1.9z"/>
		<path class="st1" d="M448.5,32.2h-2.1V17h2.1V32.2z M452.9,32.2h-2.1V17h2.1V32.2z"/>
		<path class="st1" d="M462.6,17.3c0.6,0.3,1.1,0.6,1.5,1c0.4,0.4,0.7,0.8,1,1.3c0.2,0.5,0.4,0.9,0.5,1.4c0.1,0.4,0.2,0.8,0.2,1.2
			c0,0.3,0,0.6,0,0.8V23v9.3h-2.1v-4.5c0-0.4-0.1-0.8-0.3-1.1c-0.2-0.3-0.4-0.5-0.7-0.7s-0.6-0.3-0.9-0.5s-0.6-0.2-0.9-0.2
			c-0.3-0.1-0.6-0.1-1-0.1c0,0-0.1,0-0.3,0c-0.1,0-0.3,0-0.5,0.1c-0.2,0.1-0.4,0.1-0.7,0.2c-0.2,0.1-0.5,0.2-0.7,0.4
			c-0.2,0.2-0.4,0.4-0.6,0.7s-0.3,0.6-0.4,1.1c0,0.1,0,0.3,0,0.4c0,0.3,0.1,0.6,0.2,0.8s0.3,0.4,0.6,0.6c0.2,0.2,0.5,0.3,0.8,0.4
			c0.3,0.1,0.6,0.2,0.8,0.2c0.3,0,0.5,0.1,0.7,0.1c0.2,0,0.4,0,0.5,0h0.2v2.1h-2.3c-0.5,0-0.9-0.1-1.4-0.3c-0.4-0.2-0.8-0.5-1.1-0.9
			c-0.3-0.4-0.6-0.8-0.8-1.4s-0.3-1.1-0.3-1.6c0-0.6,0.1-1.1,0.3-1.7c0.2-0.6,0.6-1.1,1.2-1.7c0.3-0.3,0.7-0.6,1-0.8
			c0.3-0.2,0.7-0.4,1-0.5c0.3-0.1,0.7-0.2,1-0.3c0.3-0.1,0.7-0.1,1-0.1c0.5,0,0.9,0,1.3,0.1c0.4,0.1,0.8,0.2,1.1,0.3
			c0.4,0.1,0.7,0.3,1,0.5V23c0-0.5,0-0.9-0.1-1.2c-0.1-0.4-0.2-0.7-0.4-0.9c-0.2-0.3-0.3-0.5-0.5-0.7c-0.2-0.2-0.4-0.3-0.6-0.4
			c-0.5-0.3-1.1-0.4-1.7-0.5c-0.6,0-1,0.1-1.4,0.3c-0.4,0.2-0.7,0.5-1,0.8c-0.3,0.3-0.4,0.6-0.6,1c-0.1,0.3-0.2,0.6-0.3,0.9h-2.2
			c0.1-0.8,0.2-1.6,0.4-2.1c0.2-0.6,0.5-1.1,0.9-1.5s0.7-0.7,1.1-0.9c0.4-0.2,0.8-0.4,1.2-0.5c0.4-0.1,0.7-0.2,1-0.2
			c0.3,0,0.5,0,0.6,0h0.1C461.2,16.9,462,17.1,462.6,17.3z"/>
		<path class="st1" d="M469.4,18.4v1.1h3.7v2.1h-4.7c-0.2,0-0.4,0-0.5-0.1c-0.1-0.1-0.2-0.2-0.3-0.3c-0.1-0.2-0.1-0.3-0.1-0.5v-2.3
			H469.4z M469.4,27.6v1.1h3.7v2.1h-4.7c-0.2,0-0.4,0-0.5-0.1c-0.1-0.1-0.2-0.2-0.3-0.3c-0.1-0.2-0.1-0.3-0.1-0.5v-2.3H469.4z"/>
		<path class="st1" d="M484,32.2v-9.6c0-0.6-0.2-1.2-0.5-1.7c-0.1-0.2-0.3-0.4-0.4-0.6c-0.2-0.2-0.4-0.4-0.6-0.6s-0.5-0.3-0.9-0.4
			c-0.3-0.1-0.7-0.1-1.2-0.1s-0.8,0-1.2,0.1c-0.3,0.1-0.6,0.2-0.9,0.4s-0.5,0.4-0.6,0.6c-0.2,0.2-0.3,0.4-0.4,0.6
			c-0.3,0.5-0.4,1.1-0.5,1.7v5c0,0.3,0.1,0.6,0.2,0.9c0.1,0.3,0.2,0.5,0.3,0.8c0.1,0.3,0.3,0.5,0.5,0.6c0.3,0.2,0.6,0.3,0.8,0.3
			c0.3,0,0.5-0.1,0.7-0.2c0.2-0.1,0.4-0.3,0.5-0.4l1.4,1.5c-0.2,0.2-0.4,0.4-0.7,0.6c-0.2,0.2-0.5,0.3-0.8,0.4
			c-0.3,0.1-0.7,0.2-1.1,0.2c-0.1,0-0.2,0-0.4,0c-0.1,0-0.3,0-0.4-0.1c-0.5-0.1-1-0.4-1.3-0.7c-0.4-0.3-0.7-0.7-1-1.1
			s-0.5-0.9-0.6-1.4s-0.2-1-0.2-1.6v-5c0.1-0.9,0.2-1.7,0.5-2.3c0.3-0.6,0.6-1.2,0.9-1.6c0.4-0.4,0.7-0.8,1.1-1
			c0.4-0.2,0.8-0.4,1.2-0.5s0.7-0.2,1-0.2s0.5,0,0.7,0h0.2h0.2c0.1,0,0.4,0,0.7,0s0.6,0.1,1,0.2s0.8,0.3,1.2,0.5
			c0.4,0.2,0.8,0.6,1.2,1c0.4,0.4,0.7,0.9,0.9,1.6c0.3,0.6,0.4,1.4,0.5,2.3v9.6H484z"/>
		<path class="st1" d="M484.6,11.8v3.5h-7.8v-2.1h5.8v-1.4H484.6z"/>
		<path class="st1" d="M495.9,17.3c0.6,0.3,1.1,0.6,1.5,1c0.4,0.4,0.7,0.8,1,1.3c0.2,0.5,0.4,0.9,0.5,1.4c0.1,0.4,0.2,0.8,0.2,1.2
			c0,0.3,0,0.6,0,0.8V23v9.3h-2.1v-4.5c0-0.4-0.1-0.8-0.3-1.1c-0.2-0.3-0.4-0.5-0.7-0.7s-0.6-0.3-0.9-0.5c-0.3-0.1-0.6-0.2-0.9-0.2
			c-0.3-0.1-0.6-0.1-1-0.1c0,0-0.1,0-0.3,0c-0.1,0-0.3,0-0.5,0.1c-0.2,0.1-0.4,0.1-0.7,0.2c-0.2,0.1-0.5,0.2-0.7,0.4
			c-0.2,0.2-0.4,0.4-0.6,0.7c-0.2,0.3-0.3,0.6-0.4,1.1c0,0.1,0,0.3,0,0.4c0,0.3,0.1,0.6,0.2,0.8c0.1,0.2,0.3,0.4,0.6,0.6
			c0.2,0.2,0.5,0.3,0.8,0.4c0.3,0.1,0.6,0.2,0.8,0.2c0.3,0,0.5,0.1,0.7,0.1c0.2,0,0.4,0,0.5,0h0.2v2.1h-2.3c-0.5,0-0.9-0.1-1.4-0.3
			c-0.4-0.2-0.8-0.5-1.1-0.9c-0.3-0.4-0.6-0.8-0.8-1.4c-0.2-0.5-0.3-1.1-0.3-1.6c0-0.6,0.1-1.1,0.3-1.7c0.2-0.6,0.6-1.1,1.2-1.7
			c0.3-0.3,0.7-0.6,1-0.8c0.3-0.2,0.7-0.4,1-0.5c0.3-0.1,0.7-0.2,1-0.3s0.7-0.1,1-0.1c0.5,0,0.9,0,1.3,0.1c0.4,0.1,0.8,0.2,1.1,0.3
			c0.4,0.1,0.7,0.3,1,0.5V23c0-0.5,0-0.9-0.1-1.2c-0.1-0.4-0.2-0.7-0.4-0.9c-0.2-0.3-0.3-0.5-0.5-0.7c-0.2-0.2-0.4-0.3-0.6-0.4
			c-0.5-0.3-1.1-0.4-1.7-0.5c-0.6,0-1,0.1-1.4,0.3c-0.4,0.2-0.7,0.5-1,0.8c-0.3,0.3-0.4,0.6-0.6,1c-0.1,0.3-0.2,0.6-0.3,0.9h-2.2
			c0.1-0.8,0.2-1.6,0.4-2.1c0.2-0.6,0.5-1.1,0.9-1.5c0.4-0.4,0.7-0.7,1.1-0.9c0.4-0.2,0.8-0.4,1.2-0.5c0.4-0.1,0.7-0.2,1-0.2
			c0.3,0,0.5,0,0.6,0h0.1C494.6,16.9,495.3,17.1,495.9,17.3z"/>
		<path class="st1" d="M509.1,17.3c0.6,0.3,1.1,0.6,1.5,1c0.4,0.4,0.7,0.8,1,1.3c0.2,0.5,0.4,0.9,0.5,1.4c0.1,0.4,0.2,0.8,0.2,1.2
			c0,0.3,0,0.6,0,0.8V23v9.3h-2.1V23c0-0.5,0-0.9-0.1-1.2c-0.1-0.4-0.2-0.7-0.4-0.9c-0.2-0.3-0.3-0.5-0.5-0.7
			c-0.2-0.2-0.4-0.3-0.6-0.4c-0.5-0.3-1.1-0.4-1.7-0.5c-0.4,0-0.8,0.1-1.1,0.2c-0.3,0.1-0.6,0.3-0.8,0.4c-0.2,0.2-0.4,0.4-0.6,0.6
			c-0.2,0.2-0.3,0.5-0.4,0.7c-0.3,0.6-0.4,1.2-0.5,1.9v1.5c0.8-0.5,1.7-0.8,2.7-0.8c0.5,0,0.9,0.1,1.3,0.2v2.3
			c-0.2-0.1-0.4-0.1-0.6-0.2c-0.2,0-0.4,0-0.7,0c-0.6,0-1.2,0.2-1.7,0.5c-0.2,0.2-0.4,0.4-0.6,0.6c-0.2,0.3-0.3,0.5-0.4,0.8v4.2
			h-2.1v-9.4c0-0.9,0.1-1.7,0.3-2.4s0.5-1.2,0.9-1.6c0.4-0.4,0.7-0.8,1.2-1c0.4-0.3,0.8-0.4,1.2-0.6c0.4-0.1,0.8-0.2,1.1-0.2
			c0.3,0,0.5,0,0.7,0h0.1C507.8,16.9,508.5,17.1,509.1,17.3z"/>
		<path class="st1" d="M511.7,33.4v3.9c0,0.3-0.1,0.5-0.3,0.7c-0.1,0.2-0.3,0.3-0.6,0.3h-2.7c-0.2,0-0.4-0.1-0.6-0.3
			c-0.2-0.2-0.2-0.4-0.2-0.7v-2.1h-0.8v-1.8h1.6c0.3,0,0.5,0.1,0.6,0.3c0.1,0.1,0.2,0.2,0.2,0.3s0.1,0.2,0.1,0.4v2.1h1.1v-3H511.7z"
			/>
		<path class="st1" d="M525.8,11.5v15.6c-0.1,1-0.3,1.9-0.8,2.7c-0.2,0.3-0.4,0.7-0.7,1c-0.3,0.3-0.6,0.6-1,0.9s-0.8,0.5-1.3,0.6
			c-0.5,0.2-1.1,0.2-1.8,0.2c-0.7,0-1.3-0.1-1.8-0.2c-0.5-0.2-1-0.4-1.3-0.6s-0.7-0.5-1-0.9c-0.3-0.3-0.5-0.7-0.7-1
			c-0.4-0.8-0.7-1.7-0.7-2.7v-10h2.1v10c0,0.4,0,0.8,0.1,1.1c0.1,0.3,0.2,0.6,0.4,0.8c0.2,0.2,0.3,0.4,0.5,0.6
			c0.2,0.2,0.4,0.3,0.6,0.4c0.5,0.2,1.1,0.4,1.7,0.4c0.6,0,1.2-0.2,1.7-0.4c0.2-0.1,0.4-0.2,0.6-0.4c0.2-0.2,0.4-0.3,0.5-0.6
			c0.2-0.2,0.3-0.5,0.4-0.8c0.1-0.3,0.1-0.7,0.1-1.1V11.5H525.8z"/>
		<path class="st1" d="M539.2,27c-0.1,1-0.3,1.9-0.7,2.7c-0.2,0.3-0.4,0.7-0.7,1c-0.3,0.3-0.6,0.6-1,0.9s-0.8,0.5-1.3,0.6
			c-0.5,0.2-1.1,0.2-1.8,0.2c-0.7,0-1.3-0.1-1.8-0.2c-0.5-0.2-1-0.4-1.3-0.6s-0.7-0.5-1-0.9c-0.3-0.3-0.5-0.7-0.7-1
			c-0.4-0.8-0.7-1.7-0.7-2.7v-3.1h3.9v2.1h-1.8V27c0,0.4,0,0.8,0.1,1.1c0.1,0.3,0.2,0.6,0.4,0.8c0.2,0.2,0.3,0.4,0.5,0.6
			c0.2,0.2,0.4,0.3,0.6,0.4c0.5,0.2,1.1,0.4,1.7,0.4c0.6,0,1.2-0.2,1.7-0.4c0.2-0.1,0.4-0.2,0.6-0.4c0.2-0.2,0.4-0.4,0.5-0.6
			s0.3-0.5,0.4-0.8c0.1-0.3,0.1-0.7,0.1-1.1v-4.6c0-0.4,0-0.7-0.1-1c-0.1-0.3-0.2-0.6-0.4-0.8s-0.3-0.4-0.5-0.6
			c-0.2-0.2-0.4-0.3-0.6-0.4c-0.5-0.2-1.1-0.4-1.7-0.4h-0.2c-0.1,0-0.4,0-0.7,0.1c-0.3,0.1-0.6,0.2-0.9,0.3
			c-0.3,0.2-0.6,0.4-0.9,0.7c-0.3,0.3-0.5,0.7-0.6,1.2h-2.1c0.1-0.3,0.1-0.5,0.2-0.9c0.1-0.3,0.2-0.7,0.4-1c0.2-0.3,0.4-0.7,0.7-1
			c0.3-0.3,0.6-0.6,1-0.9c0.4-0.3,0.8-0.5,1.3-0.6c0.5-0.2,1.1-0.2,1.7-0.2c0.7,0,1.2,0.1,1.8,0.2c0.5,0.2,1,0.4,1.3,0.6
			s0.7,0.6,1,0.9c0.3,0.3,0.5,0.7,0.7,1c0.4,0.8,0.7,1.7,0.7,2.7V27z"/>
		<path class="st1" d="M543,17h4.1v11c0,0.7-0.1,1.3-0.3,1.8c-0.2,0.5-0.4,0.9-0.6,1.3c-0.3,0.3-0.5,0.6-0.8,0.8
			c-0.3,0.2-0.6,0.3-0.9,0.4c-0.3,0.1-0.5,0.1-0.7,0.2c-0.2,0-0.3,0-0.4,0c-0.6,0-1.1-0.1-1.5-0.3s-0.8-0.4-1.1-0.6
			c-0.3-0.2-0.6-0.5-0.8-0.8l1.4-1.5c0,0,0.1,0.1,0.2,0.2s0.2,0.2,0.4,0.3c0.2,0.1,0.4,0.2,0.6,0.3c0.2,0.1,0.5,0.1,0.8,0.1
			c0.2,0,0.4,0,0.5-0.1c0.2-0.1,0.3-0.2,0.4-0.3c0.1-0.1,0.2-0.2,0.3-0.4c0.1-0.1,0.1-0.3,0.2-0.4c0.1-0.3,0.2-0.7,0.2-1.2v-8.8h-2
			V17z"/>
		<path class="st1" d="M558.1,20.1c0.9,0.3,1.4,0.9,1.5,1.8v5.3c0,0.8-0.1,1.6-0.3,2.2c-0.2,0.6-0.5,1.1-0.8,1.5
			c-0.3,0.4-0.7,0.7-1.1,0.9c-0.4,0.2-0.8,0.4-1.2,0.5c-0.4,0.1-0.7,0.2-1,0.2c-0.3,0-0.5,0-0.5,0c-0.8,0-1.5-0.1-2.1-0.4
			c-0.6-0.2-1-0.5-1.4-0.9c-0.4-0.4-0.7-0.8-0.9-1.2c-0.2-0.4-0.4-0.8-0.5-1.2s-0.2-0.7-0.2-1c0-0.3,0-0.5,0-0.6
			c0-0.5,0.1-0.9,0.2-1.3c0.1-0.4,0.3-0.8,0.5-1.1c0.2-0.3,0.4-0.6,0.7-0.9c0.2-0.3,0.5-0.5,0.7-0.8c0.2-0.2,0.4-0.5,0.5-0.7
			c0.1-0.2,0.2-0.5,0.3-0.7c0-0.1,0-0.1,0-0.2s0-0.1,0-0.2c0-0.2,0-0.4-0.1-0.6c0-0.2-0.1-0.3-0.2-0.5l-1,1l-2.4-2.9l1.4-1.5
			l1.1,1.3l1.2-1.3l1.3,1.5c0.2,0.2,0.3,0.4,0.4,0.7c0.1,0.3,0.2,0.5,0.2,0.8c0,0.3,0.1,0.5,0.1,0.8c0,0.2,0,0.4,0,0.6v0.3
			c0,0.3-0.1,0.5-0.2,0.8c-0.1,0.3-0.2,0.5-0.3,0.7c-0.1,0.2-0.3,0.5-0.5,0.7c-0.4,0.5-0.7,0.9-0.9,1.3c-0.2,0.4-0.4,0.7-0.5,1
			c-0.1,0.3-0.2,0.5-0.2,0.7c0,0.2,0,0.3,0,0.3c0,0.5,0.1,0.9,0.2,1.3c0.1,0.4,0.3,0.6,0.5,0.9s0.4,0.4,0.6,0.5
			c0.2,0.1,0.4,0.2,0.7,0.3c0.2,0.1,0.4,0.1,0.5,0.1c0.2,0,0.3,0,0.3,0c0.4,0,0.8-0.1,1.1-0.2s0.6-0.3,0.8-0.5
			c0.2-0.2,0.4-0.4,0.5-0.7c0.1-0.3,0.2-0.5,0.3-0.7c0.1-0.2,0.1-0.4,0.1-0.6c0-0.2,0-0.3,0-0.3v-4.8c0-1-0.6-1.4-1.8-1.4H555v-1.7
			h0.7c0.6,0,1.1-0.1,1.4-0.4c0.3-0.3,0.5-0.7,0.5-1.3V17h2.1v0.9C559.6,19.1,559.1,19.8,558.1,20.1z"/>
		<path class="st1" d="M559.5,11.6v3.7h-8.6v-2.1h3.5v-1.6h2v1.6h1.2v-1.6H559.5z"/>
		<path class="st1" d="M559.4,7.4v2.1h-5.8V6.7h-1V4.5h2.1c0.2,0,0.3,0.1,0.5,0.1c0.1,0.1,0.2,0.2,0.3,0.3c0.1,0.1,0.1,0.3,0.1,0.6
			v1.8H559.4z"/>
		<path class="st1" d="M573.4,27c-0.1,1-0.3,1.9-0.7,2.7c-0.2,0.3-0.4,0.7-0.7,1c-0.3,0.3-0.6,0.6-1,0.9s-0.8,0.5-1.3,0.6
			c-0.5,0.2-1.1,0.2-1.8,0.2c-0.7,0-1.3-0.1-1.8-0.2c-0.5-0.2-1-0.4-1.3-0.6s-0.7-0.5-1-0.9c-0.3-0.3-0.5-0.7-0.7-1
			c-0.4-0.8-0.7-1.7-0.7-2.7v-3.1h3.9v2.1h-1.8V27c0,0.4,0,0.8,0.1,1.1c0.1,0.3,0.2,0.6,0.4,0.8c0.2,0.2,0.3,0.4,0.5,0.6
			c0.2,0.2,0.4,0.3,0.6,0.4c0.5,0.2,1.1,0.4,1.7,0.4c0.6,0,1.2-0.2,1.7-0.4c0.2-0.1,0.4-0.2,0.6-0.4c0.2-0.2,0.4-0.4,0.5-0.6
			c0.2-0.2,0.3-0.5,0.4-0.8c0.1-0.3,0.1-0.7,0.1-1.1v-4.6c0-0.4,0-0.7-0.1-1c-0.1-0.3-0.2-0.6-0.4-0.8c-0.2-0.2-0.3-0.4-0.5-0.6
			c-0.2-0.2-0.4-0.3-0.6-0.4c-0.5-0.2-1.1-0.4-1.7-0.4h-0.2c-0.1,0-0.4,0-0.7,0.1c-0.3,0.1-0.6,0.2-0.9,0.3
			c-0.3,0.2-0.6,0.4-0.9,0.7c-0.3,0.3-0.5,0.7-0.6,1.2h-2.1c0.1-0.3,0.1-0.5,0.2-0.9c0.1-0.3,0.2-0.7,0.4-1s0.4-0.7,0.7-1
			c0.3-0.3,0.6-0.6,1-0.9c0.4-0.3,0.8-0.5,1.3-0.6c0.5-0.2,1.1-0.2,1.7-0.2c0.7,0,1.2,0.1,1.8,0.2c0.5,0.2,1,0.4,1.3,0.6
			s0.7,0.6,1,0.9c0.3,0.3,0.5,0.7,0.7,1c0.4,0.8,0.7,1.7,0.7,2.7V27z"/>
		<path class="st1" d="M586.6,16.8c0,0,0,0.1-0.1,0.2s-0.2,0.2-0.3,0.4s-0.3,0.3-0.4,0.4c-0.1,0.2-0.3,0.3-0.4,0.4
			c-0.1,0.1-0.3,0.2-0.4,0.3c-0.1,0.1-0.2,0.2-0.3,0.2c0.3,0.4,0.5,0.8,0.7,1.2c0.2,0.4,0.3,0.8,0.4,1.2s0.1,0.7,0.1,1
			c0,0.3,0,0.5,0,0.6V23v9.3h-2.1v-4.5c0-0.4-0.1-0.8-0.3-1.1c-0.2-0.3-0.4-0.5-0.7-0.7s-0.6-0.3-0.9-0.5c-0.3-0.1-0.6-0.2-0.9-0.2
			c-0.3-0.1-0.6-0.1-1-0.1c0,0-0.1,0-0.3,0c-0.1,0-0.3,0-0.5,0.1c-0.2,0.1-0.4,0.1-0.7,0.2c-0.2,0.1-0.5,0.2-0.7,0.4
			c-0.2,0.2-0.4,0.4-0.6,0.7s-0.3,0.6-0.4,1.1c0,0.1,0,0.1,0,0.2s0,0.1,0,0.2c0,0.3,0.1,0.6,0.2,0.8s0.3,0.4,0.6,0.6
			c0.2,0.2,0.5,0.3,0.8,0.4c0.3,0.1,0.6,0.2,0.8,0.2c0.3,0,0.5,0.1,0.7,0.1c0.2,0,0.4,0,0.5,0h0.2v2.1h-2.4c-0.5,0-0.9-0.1-1.4-0.3
			s-0.8-0.5-1.1-0.9c-0.3-0.4-0.6-0.8-0.8-1.4s-0.3-1.1-0.3-1.6c0-0.6,0.1-1.1,0.4-1.7c0.2-0.6,0.6-1.1,1.2-1.7
			c0.3-0.3,0.7-0.6,1-0.8c0.3-0.2,0.7-0.4,1-0.5c0.3-0.1,0.7-0.2,1-0.3s0.7-0.1,1-0.1c0.5,0,0.9,0,1.3,0.1c0.4,0.1,0.8,0.2,1.1,0.3
			c0.4,0.1,0.7,0.3,1,0.5V23c0-0.5,0-0.9-0.1-1.2c-0.1-0.4-0.2-0.7-0.4-0.9c-0.2-0.3-0.3-0.5-0.5-0.7c-0.2-0.2-0.4-0.3-0.6-0.4
			c-0.5-0.3-1.1-0.4-1.7-0.5c-0.6,0-1,0.1-1.4,0.3c-0.4,0.2-0.7,0.5-1,0.8c-0.3,0.3-0.4,0.6-0.6,1c-0.1,0.3-0.2,0.6-0.3,0.9H575
			c0.1-0.8,0.2-1.6,0.4-2.1c0.2-0.6,0.5-1.1,0.9-1.5s0.7-0.7,1.1-0.9s0.8-0.4,1.2-0.5c0.4-0.1,0.7-0.2,1-0.2s0.5,0,0.6,0h0.1
			c0.7,0,1.3,0.1,2,0.3c0.4-0.1,0.7-0.2,1.1-0.3c0.3-0.1,0.6-0.3,0.9-0.6s0.6-0.6,0.8-1.1l0.7,0.8c0.1,0.1,0.2,0.2,0.3,0.3
			c0.1,0.1,0.2,0.2,0.2,0.3c0.1,0.1,0.1,0.1,0.2,0.2C586.5,16.8,586.6,16.8,586.6,16.8z"/>
		<path class="st1" d="M585,13.1v2.2h-7.8v-2.2H585z"/>
		<path class="st1" d="M590.4,17v9.4c0,0.6,0.1,1.2,0.2,1.6c0.2,0.4,0.3,0.8,0.6,1.1c0.2,0.3,0.5,0.5,0.8,0.7
			c0.3,0.2,0.5,0.3,0.8,0.3c0.3,0.1,0.5,0.1,0.7,0.1c0.2,0,0.3,0,0.4,0c0.5,0,1-0.1,1.4-0.3c0.4-0.2,0.7-0.4,0.9-0.7
			c0.2-0.3,0.4-0.6,0.6-0.9c0.1-0.3,0.2-0.6,0.3-0.9c0.1-0.3,0.1-0.5,0.1-0.7c0-0.2,0-0.3,0-0.4V17h2.1v15.2h-2.1v-2.1
			c0,0.3-0.1,0.5-0.2,0.7c-0.1,0.2-0.2,0.4-0.4,0.6c-0.2,0.2-0.3,0.3-0.5,0.4s-0.4,0.2-0.6,0.3c-0.5,0.2-1,0.3-1.6,0.3h-0.5
			c-0.8,0-1.5-0.1-2-0.4c-0.6-0.2-1-0.5-1.4-0.9c-0.4-0.4-0.7-0.8-0.9-1.2s-0.4-0.9-0.5-1.3s-0.2-0.8-0.2-1.2c0-0.3,0-0.6,0-0.8
			v-0.2V17H590.4z"/>
		<path class="st1" d="M609.7,17.3c0.6,0.3,1.1,0.6,1.5,1c0.4,0.4,0.7,0.8,0.9,1.3c0.2,0.5,0.4,0.9,0.5,1.4c0.1,0.4,0.2,0.8,0.2,1.2
			c0,0.3,0,0.6,0,0.8V23v9.3h-2.1V23c0-0.5,0-0.9-0.1-1.2c-0.1-0.4-0.2-0.7-0.4-0.9c-0.2-0.3-0.3-0.5-0.5-0.7
			c-0.2-0.2-0.4-0.3-0.6-0.4c-0.5-0.3-1.1-0.4-1.7-0.5c-0.4,0-0.8,0.1-1.1,0.2c-0.3,0.1-0.6,0.3-0.8,0.4c-0.2,0.2-0.4,0.4-0.6,0.6
			s-0.3,0.5-0.4,0.7c-0.3,0.6-0.4,1.2-0.5,1.9v1.5c0.8-0.5,1.7-0.8,2.7-0.8c0.5,0,0.9,0.1,1.3,0.2v2.3c-0.2-0.1-0.4-0.1-0.6-0.2
			c-0.2,0-0.4,0-0.7,0c-0.6,0-1.2,0.2-1.7,0.5c-0.2,0.2-0.4,0.4-0.6,0.6c-0.2,0.3-0.3,0.5-0.4,0.8v4.2H602v-9.4
			c0-0.9,0.1-1.7,0.3-2.4s0.5-1.2,0.9-1.6c0.4-0.4,0.7-0.8,1.2-1s0.8-0.4,1.2-0.6c0.4-0.1,0.8-0.2,1.1-0.2c0.3,0,0.5,0,0.7,0h0.1
			C608.3,16.9,609.1,17.1,609.7,17.3z"/>
		<path class="st1" d="M612.9,13.1v2.1h-5.8v-2.8h-1v-2.1h2.1c0.2,0,0.3,0.1,0.5,0.1c0.1,0.1,0.2,0.2,0.3,0.3
			c0.1,0.1,0.1,0.3,0.1,0.6v1.8H612.9z"/>
		<path class="st1" d="M617.5,16.9c0.1,0,0.2,0,0.4,0c0.2,0,0.4,0.1,0.7,0.1c0.3,0.1,0.6,0.2,0.9,0.4c0.3,0.2,0.6,0.4,0.8,0.8
			c0.3,0.3,0.5,0.8,0.6,1.3s0.3,1.1,0.3,1.9v10.8h-2.1V21.4c0-0.4-0.1-0.8-0.2-1.1c-0.1-0.1-0.1-0.3-0.2-0.4
			c-0.1-0.1-0.2-0.3-0.3-0.4c-0.1-0.1-0.2-0.2-0.4-0.2c-0.2-0.1-0.3-0.1-0.5-0.1c-0.3,0-0.6,0-0.9,0.1c-0.2,0.1-0.4,0.2-0.6,0.3
			s-0.3,0.2-0.4,0.3s-0.2,0.2-0.2,0.2l-1.4-1.6c0.2-0.3,0.5-0.6,0.8-0.8c0.3-0.2,0.6-0.4,1.1-0.6S616.9,16.9,617.5,16.9z"/>
		<path class="st1" d="M459,43.7c0.6,0.3,1.1,0.6,1.5,1c0.4,0.4,0.7,0.8,1,1.3c0.2,0.5,0.4,0.9,0.5,1.4c0.1,0.4,0.2,0.8,0.2,1.2
			c0,0.3,0,0.6,0,0.8v0.1v9.3h-2.1v-4.5c0-0.4-0.1-0.8-0.3-1.1c-0.2-0.3-0.4-0.5-0.7-0.7s-0.6-0.3-0.9-0.5s-0.6-0.2-0.9-0.2
			c-0.3-0.1-0.6-0.1-1-0.1c0,0-0.1,0-0.3,0c-0.1,0-0.3,0-0.5,0.1c-0.2,0.1-0.4,0.1-0.7,0.2c-0.2,0.1-0.5,0.2-0.7,0.4
			c-0.2,0.2-0.4,0.4-0.6,0.7s-0.3,0.6-0.4,1.1c0,0.1,0,0.3,0,0.4c0,0.3,0.1,0.6,0.2,0.8s0.3,0.4,0.6,0.6c0.2,0.2,0.5,0.3,0.8,0.4
			c0.3,0.1,0.6,0.2,0.8,0.2c0.3,0,0.5,0.1,0.7,0.1c0.2,0,0.4,0,0.5,0h0.2v2.1h-2.3c-0.5,0-0.9-0.1-1.4-0.3s-0.8-0.5-1.1-0.9
			s-0.6-0.8-0.8-1.4s-0.3-1.1-0.3-1.6c0-0.6,0.1-1.1,0.3-1.7c0.2-0.6,0.6-1.1,1.2-1.7c0.3-0.3,0.7-0.6,1-0.8c0.3-0.2,0.7-0.4,1-0.5
			c0.3-0.1,0.7-0.2,1-0.3c0.3-0.1,0.7-0.1,1-0.1c0.5,0,0.9,0,1.3,0.1c0.4,0.1,0.8,0.2,1.1,0.3c0.4,0.1,0.7,0.3,1,0.5v-0.9
			c0-0.5,0-0.9-0.1-1.2c-0.1-0.4-0.2-0.7-0.4-0.9c-0.2-0.3-0.3-0.5-0.5-0.7c-0.2-0.2-0.4-0.3-0.6-0.4c-0.5-0.3-1.1-0.4-1.7-0.5
			c-0.6,0-1,0.1-1.4,0.3c-0.4,0.2-0.7,0.5-1,0.8c-0.3,0.3-0.4,0.6-0.6,1c-0.1,0.3-0.2,0.6-0.3,0.9h-2.2c0.1-0.8,0.2-1.6,0.4-2.1
			c0.2-0.6,0.5-1.1,0.9-1.5s0.7-0.7,1.1-0.9s0.8-0.4,1.2-0.5c0.4-0.1,0.7-0.2,1-0.2c0.3,0,0.5,0,0.6,0h0.1
			C457.7,43.4,458.4,43.5,459,43.7z"/>
		<path class="st1" d="M473.4,58.6v-9.6c0-0.6-0.2-1.2-0.5-1.7c-0.1-0.2-0.3-0.4-0.4-0.6c-0.2-0.2-0.4-0.4-0.6-0.6
			c-0.3-0.2-0.5-0.3-0.9-0.4c-0.3-0.1-0.7-0.1-1.2-0.1s-0.8,0-1.2,0.1c-0.3,0.1-0.6,0.2-0.9,0.4s-0.5,0.4-0.6,0.6
			c-0.2,0.2-0.3,0.4-0.4,0.6c-0.3,0.5-0.4,1.1-0.5,1.7v5c0,0.3,0.1,0.6,0.2,0.9c0.1,0.3,0.2,0.5,0.3,0.8c0.1,0.3,0.3,0.5,0.5,0.6
			c0.3,0.2,0.6,0.3,0.8,0.3c0.3,0,0.5-0.1,0.7-0.2c0.2-0.1,0.4-0.3,0.5-0.4l1.4,1.5c-0.2,0.2-0.4,0.4-0.7,0.6
			c-0.2,0.2-0.5,0.3-0.8,0.4c-0.3,0.1-0.7,0.2-1.1,0.2c-0.1,0-0.2,0-0.4,0c-0.1,0-0.3,0-0.4-0.1c-0.5-0.1-1-0.4-1.3-0.7
			c-0.4-0.3-0.7-0.7-1-1.1s-0.5-0.9-0.6-1.4c-0.1-0.5-0.2-1-0.2-1.6v-5c0.1-0.9,0.2-1.7,0.5-2.3c0.3-0.6,0.6-1.2,0.9-1.6
			c0.4-0.4,0.7-0.8,1.1-1c0.4-0.2,0.8-0.4,1.2-0.5c0.4-0.1,0.7-0.2,1-0.2s0.5,0,0.7,0h0.2h0.2c0.1,0,0.4,0,0.7,0s0.6,0.1,1,0.2
			s0.8,0.3,1.2,0.5c0.4,0.2,0.8,0.6,1.2,1c0.4,0.4,0.7,0.9,0.9,1.6c0.3,0.6,0.4,1.4,0.5,2.3v9.6H473.4z"/>
		<path class="st1" d="M486.1,47.4l-0.9-0.6c-0.2-0.2-0.5-0.3-0.7-0.4c-0.3-0.1-0.5-0.3-0.8-0.4c-0.3-0.1-0.5-0.2-0.8-0.2
			s-0.4-0.1-0.6-0.1c-0.3,0-0.6,0-0.9,0.1s-0.6,0.2-0.8,0.3c-0.2,0.2-0.4,0.4-0.5,0.7c-0.1,0.3-0.2,0.7-0.2,1.1
			c0,0.5,0.1,0.8,0.3,1.1s0.5,0.5,0.9,0.6c0.4,0.1,0.8,0.3,1.2,0.3c0.5,0.1,0.9,0.2,1.4,0.2s0.9,0.3,1.3,0.5
			c0.4,0.3,0.8,0.6,1.1,0.9c0.3,0.4,0.6,0.8,0.8,1.3c0.2,0.5,0.3,1,0.3,1.5c0,0.8-0.1,1.5-0.4,2c-0.3,0.6-0.6,1-1.1,1.4
			s-1,0.6-1.6,0.8c-0.6,0.2-1.2,0.3-1.9,0.3c-1,0-1.8-0.1-2.4-0.3c-0.7-0.2-1.2-0.5-1.7-0.8c-0.5-0.3-0.9-0.7-1.3-1.1l1.4-1.5
			c0.2,0.2,0.4,0.4,0.7,0.6c0.3,0.2,0.6,0.4,0.9,0.5c0.4,0.2,0.7,0.3,1.1,0.4c0.4,0.1,0.8,0.1,1.2,0.1c0.4,0,0.8-0.1,1.2-0.2
			s0.7-0.3,0.9-0.5c0.2-0.2,0.4-0.5,0.6-0.8c0.1-0.3,0.2-0.6,0.2-1c0-0.4-0.1-0.7-0.2-0.9s-0.2-0.4-0.4-0.5
			c-0.2-0.1-0.3-0.2-0.5-0.3s-0.3-0.1-0.4-0.1c0,0-0.2,0-0.4-0.1c-0.2,0-0.5-0.1-0.8-0.1c-0.3-0.1-0.6-0.1-0.9-0.2s-0.5-0.1-0.7-0.1
			c-0.1,0-0.3-0.1-0.4-0.1s-0.4-0.2-0.6-0.3c-0.2-0.1-0.5-0.3-0.7-0.5s-0.5-0.4-0.7-0.7c-0.2-0.3-0.4-0.7-0.5-1.1
			c-0.1-0.4-0.2-0.9-0.2-1.4c0-0.8,0.1-1.5,0.4-2.1c0.3-0.6,0.6-1,1.1-1.4c0.4-0.4,0.9-0.6,1.5-0.8c0.5-0.2,1.1-0.2,1.7-0.2
			c0.6,0,1.1,0.1,1.6,0.2c0.5,0.1,0.9,0.3,1.2,0.5c0.4,0.2,0.8,0.4,1.1,0.7l1.1,0.8L486.1,47.4z"/>
		<path class="st1" d="M491.3,43.4c0.1,0,0.2,0,0.4,0c0.2,0,0.4,0.1,0.7,0.1c0.3,0.1,0.6,0.2,0.9,0.4c0.3,0.2,0.6,0.4,0.8,0.8
			c0.3,0.3,0.5,0.8,0.6,1.3c0.2,0.5,0.3,1.1,0.3,1.9v10.8h-2.1V47.8c0-0.4-0.1-0.8-0.2-1.1c-0.1-0.1-0.1-0.3-0.2-0.4
			c-0.1-0.1-0.2-0.3-0.3-0.4c-0.1-0.1-0.2-0.2-0.4-0.2c-0.2-0.1-0.3-0.1-0.5-0.1c-0.3,0-0.6,0-0.9,0.1c-0.2,0.1-0.4,0.2-0.6,0.3
			s-0.3,0.2-0.4,0.3s-0.2,0.2-0.2,0.2l-1.4-1.6c0.2-0.3,0.5-0.6,0.8-0.8c0.3-0.2,0.6-0.4,1.1-0.6S490.7,43.4,491.3,43.4z"/>
		<path class="st1" d="M505.5,43.7c0.6,0.3,1.1,0.6,1.5,1c0.4,0.4,0.7,0.8,1,1.3c0.2,0.5,0.4,0.9,0.5,1.4c0.1,0.4,0.2,0.8,0.2,1.2
			c0,0.3,0,0.6,0,0.8v0.1v9.3h-2.1v-9.3c0-0.5,0-0.9-0.1-1.2c-0.1-0.4-0.2-0.7-0.4-0.9c-0.2-0.3-0.3-0.5-0.5-0.7
			c-0.2-0.2-0.4-0.3-0.6-0.4c-0.5-0.3-1.1-0.4-1.7-0.5c-0.4,0-0.8,0.1-1.1,0.2c-0.3,0.1-0.6,0.3-0.8,0.4c-0.2,0.2-0.4,0.4-0.6,0.6
			c-0.2,0.2-0.3,0.5-0.4,0.7c-0.3,0.6-0.4,1.2-0.5,1.9v1.5c0.8-0.5,1.7-0.8,2.7-0.8c0.5,0,0.9,0.1,1.3,0.2v2.3
			c-0.2-0.1-0.4-0.1-0.6-0.2c-0.2,0-0.4,0-0.7,0c-0.6,0-1.2,0.2-1.7,0.5c-0.2,0.2-0.4,0.4-0.6,0.6c-0.2,0.3-0.3,0.5-0.4,0.8v4.2
			h-2.1v-9.4c0-0.9,0.1-1.7,0.3-2.4s0.5-1.2,0.9-1.6c0.4-0.4,0.7-0.8,1.2-1s0.8-0.4,1.2-0.6c0.4-0.1,0.8-0.2,1.1-0.2s0.5,0,0.7,0
			h0.1C504.2,43.4,504.9,43.5,505.5,43.7z"/>
		<path class="st1" d="M513.4,43.4c0.1,0,0.2,0,0.4,0c0.2,0,0.4,0.1,0.7,0.1c0.3,0.1,0.6,0.2,0.9,0.4c0.3,0.2,0.6,0.4,0.8,0.8
			c0.3,0.3,0.5,0.8,0.6,1.3c0.2,0.5,0.3,1.1,0.3,1.9v10.8H515V47.8c0-0.4-0.1-0.8-0.2-1.1c-0.1-0.1-0.1-0.3-0.2-0.4
			c-0.1-0.1-0.2-0.3-0.3-0.4c-0.1-0.1-0.2-0.2-0.4-0.2c-0.2-0.1-0.3-0.1-0.5-0.1c-0.3,0-0.6,0-0.9,0.1c-0.2,0.1-0.4,0.2-0.6,0.3
			s-0.3,0.2-0.4,0.3c-0.1,0.1-0.2,0.2-0.2,0.2l-1.4-1.6c0.2-0.3,0.5-0.6,0.8-0.8c0.3-0.2,0.6-0.4,1.1-0.6
			C512.3,43.4,512.8,43.4,513.4,43.4z"/>
		<path class="st1" d="M528.7,58.6v-9.4c0-0.6-0.1-1.1-0.2-1.5c-0.2-0.4-0.3-0.7-0.6-1c-0.2-0.3-0.5-0.5-0.8-0.6
			c-0.3-0.1-0.5-0.3-0.8-0.3c-0.3-0.1-0.5-0.1-0.7-0.1c-0.2,0-0.3,0-0.4,0c-0.5,0-1,0.1-1.4,0.2c-0.4,0.2-0.7,0.4-0.9,0.6
			s-0.4,0.5-0.6,0.8c-0.1,0.3-0.2,0.6-0.3,0.8c-0.1,0.3-0.1,0.5-0.1,0.7s0,0.3,0,0.3v9.4h-2.1V43.4h2.1v2.1c0-0.3,0.1-0.5,0.2-0.7
			c0.1-0.2,0.2-0.4,0.4-0.6c0.2-0.2,0.3-0.3,0.5-0.4c0.2-0.1,0.4-0.2,0.6-0.3c0.5-0.2,1-0.3,1.6-0.3h0.5c0.8,0,1.5,0.1,2,0.3
			c0.6,0.2,1,0.5,1.4,0.9c0.4,0.4,0.7,0.8,0.9,1.2c0.2,0.4,0.4,0.9,0.5,1.3c0.1,0.4,0.2,0.8,0.2,1.1c0,0.3,0,0.6,0,0.8v0.2v9.4
			H528.7z"/>
		<path class="st1" d="M528.3,62.2h-1v-2.1h1.9c0.3,0,0.5,0.1,0.7,0.3c0.2,0.2,0.3,0.5,0.3,0.8v4.5h-2V62.2z"/>
		<path class="st1" d="M533.4,58.6V47c0.3-0.6,0.6-1.1,0.9-1.5c0.3-0.4,0.7-0.7,1-1c0.4-0.3,0.7-0.5,1.1-0.6c0.4-0.2,0.7-0.3,1-0.4
			s0.6-0.1,0.8-0.1c0.2,0,0.4,0,0.5,0h0.1c0.7,0,1.3,0.1,1.8,0.3s1,0.4,1.3,0.6c0.4,0.3,0.7,0.6,1,0.9c0.3,0.3,0.5,0.7,0.7,1
			c0.2,0.3,0.3,0.7,0.4,1c0.1,0.3,0.2,0.6,0.2,0.9s0.1,0.5,0.1,0.7s0,0.3,0,0.4v9.4h-2.1v-9.4c0-0.6-0.1-1.1-0.2-1.5
			c-0.2-0.4-0.3-0.8-0.6-1c-0.2-0.3-0.5-0.5-0.8-0.6c-0.3-0.1-0.5-0.2-0.8-0.3c-0.3-0.1-0.5-0.1-0.7-0.1c-0.2,0-0.3,0-0.4,0
			c-0.4,0-0.8,0.1-1.1,0.2c-0.3,0.1-0.6,0.2-0.8,0.4c-0.2,0.2-0.4,0.4-0.6,0.6c-0.2,0.2-0.3,0.4-0.4,0.7c-0.2,0.5-0.4,1.1-0.4,1.8
			v9.4H533.4z"/>
		<path class="st1" d="M551.3,43.4c0.1,0,0.3,0,0.6,0s0.6,0.1,0.9,0.2s0.7,0.3,1.1,0.5c0.4,0.2,0.7,0.5,1,0.9
			c0.3,0.4,0.6,0.9,0.8,1.5c0.2,0.6,0.3,1.3,0.3,2.1v5c0,1-0.2,1.8-0.6,2.6c-0.1,0.3-0.3,0.6-0.6,0.9s-0.5,0.6-0.8,0.8
			c-0.3,0.2-0.7,0.4-1.2,0.6c-0.4,0.1-1,0.2-1.5,0.2c-0.6,0-1.1-0.1-1.6-0.2c-0.5-0.2-0.8-0.4-1.2-0.6c-0.3-0.3-0.6-0.5-0.8-0.9
			c-0.2-0.3-0.4-0.6-0.5-1c0.1-0.1,0.2-0.1,0.4-0.2c0.2-0.1,0.3-0.2,0.5-0.3s0.3-0.2,0.5-0.3c0.2-0.1,0.3-0.2,0.4-0.2
			c0.1,0.4,0.4,0.7,0.6,1c0.3,0.2,0.5,0.4,0.8,0.5c0.3,0.1,0.6,0.2,1,0.2c0.5-0.1,0.9-0.2,1.3-0.5c0.2-0.1,0.3-0.2,0.5-0.4
			c0.2-0.2,0.3-0.3,0.4-0.5c0.1-0.2,0.2-0.4,0.3-0.7c0.1-0.3,0.1-0.6,0.1-0.9v-5c0-0.6-0.2-1.1-0.4-1.5c-0.1-0.2-0.2-0.4-0.3-0.6
			c-0.1-0.2-0.3-0.3-0.5-0.5s-0.4-0.3-0.6-0.3c-0.2-0.1-0.5-0.1-0.8-0.1c-0.4,0-0.8,0-1.2,0.1c-0.3,0.1-0.6,0.2-0.8,0.4
			c-0.2,0.2-0.4,0.4-0.6,0.7c-0.2,0.3-0.3,0.7-0.5,1.1H546c0.1-0.7,0.2-1.3,0.4-1.9c0.2-0.6,0.6-1.1,1-1.5c0.4-0.4,0.9-0.7,1.6-0.9
			C549.6,43.5,550.3,43.4,551.3,43.4L551.3,43.4L551.3,43.4z"/>
		<path class="st1" d="M551.5,38.4v1.1h5.2v2.1h-6.3c-0.2,0-0.4,0-0.5-0.1c-0.1-0.1-0.2-0.2-0.3-0.3c-0.1-0.2-0.1-0.3-0.1-0.5v-2.3
			H551.5z"/>
		<path class="st1" d="M560.4,43.4v9.4c0,0.6,0.1,1.2,0.2,1.6c0.2,0.4,0.3,0.8,0.6,1.1c0.2,0.3,0.5,0.5,0.8,0.7
			c0.3,0.2,0.5,0.3,0.8,0.3c0.3,0.1,0.5,0.1,0.7,0.1c0.2,0,0.3,0,0.4,0c0.5,0,1-0.1,1.4-0.3c0.4-0.2,0.7-0.4,0.9-0.7
			c0.2-0.3,0.4-0.6,0.6-0.9c0.1-0.3,0.2-0.6,0.3-0.9s0.1-0.5,0.1-0.7c0-0.2,0-0.3,0-0.4v-9.4h2.1v15.2H567v-2.1
			c0,0.3-0.1,0.5-0.2,0.7c-0.1,0.2-0.2,0.4-0.4,0.6c-0.2,0.2-0.3,0.3-0.5,0.4s-0.4,0.2-0.6,0.3c-0.5,0.2-1,0.3-1.6,0.3h-0.5
			c-0.8,0-1.5-0.1-2-0.4c-0.6-0.2-1-0.5-1.4-0.9s-0.7-0.8-0.9-1.2c-0.2-0.5-0.4-0.9-0.5-1.3s-0.2-0.8-0.2-1.2c0-0.3,0-0.6,0-0.8
			v-0.2v-9.4H560.4z"/>
		<path class="st1" d="M573.1,33.6c0.3,0.2,0.6,0.3,0.9,0.6c0.2,0.2,0.5,0.5,0.6,0.7c0.2,0.3,0.3,0.5,0.4,0.8c0.3,0.6,0.4,1.3,0.4,2
			v21h-2.1v-21c0-0.2,0-0.4-0.1-0.6c-0.1-0.2-0.2-0.4-0.3-0.5c-0.1-0.2-0.3-0.4-0.5-0.6l-1.7,1.8l-2-2.9l1.3-1.3l0.9,1.4l1-1.6
			C572.4,33.4,572.7,33.5,573.1,33.6z"/>
		<path class="st1" d="M586.8,58.6v-9.6c0-0.6-0.2-1.2-0.5-1.7c-0.1-0.2-0.3-0.4-0.4-0.6c-0.2-0.2-0.4-0.4-0.6-0.6
			c-0.3-0.2-0.5-0.3-0.9-0.4c-0.3-0.1-0.7-0.1-1.2-0.1s-0.8,0-1.2,0.1c-0.3,0.1-0.6,0.2-0.9,0.4c-0.2,0.2-0.5,0.4-0.6,0.6
			c-0.2,0.2-0.3,0.4-0.4,0.6c-0.3,0.5-0.4,1.1-0.5,1.7v5c0,0.3,0.1,0.6,0.2,0.9c0.1,0.3,0.2,0.5,0.3,0.8c0.1,0.3,0.3,0.5,0.5,0.6
			c0.3,0.2,0.6,0.3,0.8,0.3c0.3,0,0.5-0.1,0.7-0.2c0.2-0.1,0.4-0.3,0.5-0.4l1.4,1.5c-0.2,0.2-0.4,0.4-0.7,0.6
			c-0.2,0.2-0.5,0.3-0.8,0.4c-0.3,0.1-0.7,0.2-1.1,0.2c-0.1,0-0.3,0-0.4,0c-0.1,0-0.3,0-0.4-0.1c-0.5-0.1-1-0.4-1.3-0.7
			c-0.4-0.3-0.7-0.7-1-1.1s-0.5-0.9-0.6-1.4c-0.1-0.5-0.2-1-0.2-1.6v-5c0.1-0.9,0.2-1.7,0.5-2.3c0.3-0.6,0.6-1.2,0.9-1.6
			c0.4-0.4,0.7-0.8,1.1-1c0.4-0.2,0.8-0.4,1.2-0.5s0.7-0.2,1-0.2c0.3,0,0.5,0,0.7,0h0.2h0.2c0.1,0,0.4,0,0.7,0c0.3,0,0.6,0.1,1,0.2
			s0.8,0.3,1.2,0.5c0.4,0.2,0.8,0.6,1.2,1c0.4,0.4,0.7,0.9,0.9,1.6c0.3,0.6,0.4,1.4,0.5,2.3v9.6H586.8z"/>
		<path class="st1" d="M589,39.5v2.1h-5.8v-2.8h-1v-2.1h2.1c0.2,0,0.3,0.1,0.5,0.1c0.1,0.1,0.2,0.2,0.3,0.3s0.1,0.3,0.1,0.6v1.8H589
			z"/>
		<path class="st1" d="M600.3,58.6v-9.4c0-0.6-0.1-1.1-0.2-1.5c-0.2-0.4-0.3-0.7-0.6-1c-0.2-0.3-0.5-0.5-0.8-0.6
			c-0.3-0.1-0.5-0.3-0.8-0.3c-0.3-0.1-0.5-0.1-0.7-0.1c-0.2,0-0.3,0-0.4,0c-0.5,0-1,0.1-1.4,0.2c-0.4,0.2-0.7,0.4-0.9,0.6
			s-0.4,0.5-0.6,0.8c-0.1,0.3-0.2,0.6-0.3,0.8c-0.1,0.3-0.1,0.5-0.1,0.7s0,0.3,0,0.3v9.4h-2.1V43.4h2.1v2.1c0-0.3,0.1-0.5,0.2-0.7
			c0.1-0.2,0.2-0.4,0.4-0.6c0.2-0.2,0.3-0.3,0.5-0.4c0.2-0.1,0.4-0.2,0.6-0.3c0.5-0.2,1-0.3,1.6-0.3h0.5c0.8,0,1.5,0.1,2,0.3
			c0.6,0.2,1,0.5,1.4,0.9c0.4,0.4,0.7,0.8,0.9,1.2c0.2,0.4,0.4,0.9,0.5,1.3c0.1,0.4,0.2,0.8,0.2,1.1c0,0.3,0,0.6,0,0.8v0.2v9.4
			H600.3z"/>
		<path class="st1" d="M600.9,38.2v3.5h-7.8v-2.1h5.8v-1.4H600.9z"/>
		<path class="st1" d="M601.3,31.5v4.3h-2v-4.3H601.3z"/>
		<path class="st1" d="M607.2,43.4v9.4c0,0.6,0.1,1.2,0.2,1.6c0.2,0.4,0.3,0.8,0.6,1.1s0.5,0.5,0.8,0.7c0.3,0.2,0.5,0.3,0.8,0.3
			c0.3,0.1,0.5,0.1,0.7,0.1c0.2,0,0.3,0,0.4,0c0.5,0,1-0.1,1.4-0.3c0.4-0.2,0.7-0.4,0.9-0.7c0.2-0.3,0.4-0.6,0.6-0.9
			c0.1-0.3,0.2-0.6,0.3-0.9c0.1-0.3,0.1-0.5,0.1-0.7c0-0.2,0-0.3,0-0.4v-9.4h2.1v15.2h-2.1v-2.1c0,0.3-0.1,0.5-0.2,0.7
			c-0.1,0.2-0.2,0.4-0.4,0.6c-0.2,0.2-0.3,0.3-0.5,0.4s-0.4,0.2-0.6,0.3c-0.5,0.2-1,0.3-1.6,0.3h-0.5c-0.8,0-1.5-0.1-2-0.4
			c-0.6-0.2-1-0.5-1.4-0.9c-0.4-0.4-0.7-0.8-0.9-1.2s-0.4-0.9-0.5-1.3c-0.1-0.4-0.2-0.8-0.2-1.2c0-0.3,0-0.6,0-0.8v-0.2v-9.4H607.2z
			"/>
		<path class="st1" d="M614.5,38.2v3.5h-7.8v-2.1h5.8v-1.4H614.5z"/>
		<path class="st1" d="M614.9,31.5v4.3h-2v-4.3H614.9z"/>
	</g>
</g>
<path class="st2" d="M512-39.9l-21-21l36.3-36.3l14.4,1.3c2.8,0.3,5,2.5,5.2,5.2l1.3,14.4L512-39.9z"/>
<circle class="st2" cx="534.1" cy="-82.9" r="5.4"/>
</svg>
