<!-- Generator: Adobe Illustrator 19.0.0, SVG Export Plug-In  -->
<svg version="1.1"
	 xmlns="http://www.w3.org/2000/svg" xmlns:xlink="http://www.w3.org/1999/xlink" xmlns:a="http://ns.adobe.com/AdobeSVGViewerExtensions/3.0/"
	 x="0px" y="0px" width="476px" height="274px" viewBox="0 0 476 274" style="enable-background:new 0 0 476 274;"
	 xml:space="preserve">
<style type="text/css">
	.st0{fill:#D1D1D1;}
	.st1{fill:#9EA6A8;}
	.st2{fill:#FFFFFF;}
	.st3{fill:#FF6633;}
	.st4{fill:#AAA5A3;}
	.st5{fill:none;stroke:#D1D1D1;stroke-miterlimit:10;}
	.st6{fill:#33CCCC;}
	.st7{fill:#258986;}
	.st8{fill:none;stroke:#FF6633;stroke-width:0.5;stroke-miterlimit:10;}
	.st9{fill:#9E9E9E;stroke:#FF6633;stroke-width:0.5;stroke-miterlimit:10;}
</style>
<defs>
</defs>
<g>
	<path class="st0" d="M432,262H44c-7.7,0-14-6.3-14-14V14c0-7.7,6.3-14,14-14h388c7.7,0,14,6.3,14,14v234
		C446,255.7,439.7,262,432,262z"/>
	<rect x="48.2" y="26" class="st1" width="377.6" height="236"/>
	<rect x="61.2" y="59" class="st2" width="352.3" height="173.3"/>
	<path class="st0" d="M0,246L0,246c0,15.4,12.6,28,28,28h420c15.4,0,28-12.6,28-28v0H0z"/>
	<rect x="61.2" y="31.7" class="st0" width="352.3" height="13.7"/>
	<rect x="61.2" y="45.3" class="st2" width="351.5" height="13.7"/>
	<circle class="st3" cx="72" cy="38.5" r="3.3"/>
	<circle class="st3" cx="82.7" cy="38.5" r="3.3"/>
	<circle class="st3" cx="93.5" cy="38.5" r="3.3"/>
</g>
<circle class="st2" cx="284.3" cy="189.6" r="2.9"/>
<path class="st4" d="M302.5,260.7H191.9c-4,0-7.4-3.3-7.4-7.4l0,0c0-4,3.3-7.4,7.4-7.4h110.6c4,0,7.4,3.3,7.4,7.4l0,0
	C309.8,257.4,306.5,260.7,302.5,260.7z"/>
<rect x="118.9" y="49.9" class="st5" width="176.5" height="19"/>
<rect x="295.4" y="49.9" class="st3" width="35.5" height="19"/>
<g>
	<path class="st1" d="M124.8,53c0-0.7,0.4-1.1,1.1-1.1c0.7,0,1.1,0.4,1.1,1.1c0,0.3-0.1,0.6-0.3,0.8c-0.2,0.2-0.5,0.3-0.8,0.3
		C125.1,54.1,124.8,53.7,124.8,53z M126.9,63.3h-2.1v-8.2h2.1V63.3z"/>
	<path class="st1" d="M133.2,63.4c-0.9,0-1.6-0.3-2.1-1H131c0.1,0.7,0.1,1.1,0.1,1.2v3.3h-2.1V55.1h1.7l0.3,1.1h0.1
		c0.5-0.8,1.2-1.2,2.1-1.2c0.9,0,1.6,0.4,2.1,1.1s0.8,1.8,0.8,3.1c0,0.9-0.1,1.6-0.4,2.3s-0.6,1.1-1,1.5
		C134.3,63.3,133.8,63.4,133.2,63.4z M132.6,56.7c-0.5,0-0.9,0.2-1.1,0.5s-0.4,0.9-0.4,1.7v0.2c0,0.9,0.1,1.5,0.4,1.9
		c0.2,0.4,0.6,0.6,1.1,0.6c0.9,0,1.4-0.8,1.4-2.5c0-0.8-0.1-1.4-0.3-1.8C133.4,56.9,133.1,56.7,132.6,56.7z"/>
	<path class="st1" d="M142,55c0.3,0,0.5,0,0.7,0.1l-0.2,2.1c-0.2,0-0.4-0.1-0.6-0.1c-0.7,0-1.2,0.2-1.5,0.5
		c-0.4,0.4-0.5,0.9-0.5,1.5v4.2h-2.1v-8.2h1.6l0.3,1.4h0.1c0.2-0.5,0.5-0.8,0.9-1.1S141.5,55,142,55z"/>
	<path class="st1" d="M144,53c0-0.7,0.4-1.1,1.1-1.1c0.7,0,1.1,0.4,1.1,1.1c0,0.3-0.1,0.6-0.3,0.8c-0.2,0.2-0.5,0.3-0.8,0.3
		C144.3,54.1,144,53.7,144,53z M146.1,63.3H144v-8.2h2.1V63.3z"/>
	<path class="st1" d="M151.3,63.4c-2.3,0-3.5-1.4-3.5-4.2c0-1.4,0.3-2.5,1-3.2c0.6-0.7,1.6-1.1,2.7-1.1c0.9,0,1.7,0.2,2.3,0.6
		l-0.6,1.7c-0.3-0.1-0.6-0.3-0.9-0.3c-0.3-0.1-0.6-0.1-0.8-0.1c-1.1,0-1.6,0.8-1.6,2.5c0,1.6,0.5,2.4,1.6,2.4c0.4,0,0.8-0.1,1.1-0.2
		c0.3-0.1,0.7-0.3,1-0.5v1.9c-0.3,0.2-0.7,0.4-1,0.5C152.3,63.4,151.8,63.4,151.3,63.4z"/>
	<path class="st1" d="M158.7,63.4c-1.2,0-2.2-0.4-2.8-1.1s-1-1.8-1-3.1c0-1.4,0.3-2.4,0.9-3.2s1.5-1.1,2.6-1.1c1.1,0,1.9,0.3,2.5,1
		c0.6,0.7,0.9,1.6,0.9,2.7v1.1H157c0,0.6,0.2,1.1,0.5,1.5c0.3,0.4,0.8,0.5,1.4,0.5c0.5,0,0.9-0.1,1.3-0.2c0.4-0.1,0.8-0.3,1.3-0.5
		v1.7c-0.4,0.2-0.7,0.3-1.2,0.4C159.8,63.4,159.3,63.4,158.7,63.4z M158.5,56.5c-0.4,0-0.8,0.2-1,0.5c-0.2,0.3-0.4,0.7-0.4,1.3h2.9
		c0-0.6-0.1-1-0.4-1.3C159.2,56.7,158.9,56.5,158.5,56.5z"/>
	<path class="st1" d="M163.2,62.2c0-0.4,0.1-0.7,0.3-0.9s0.5-0.3,0.9-0.3c0.4,0,0.7,0.1,0.9,0.3c0.2,0.2,0.3,0.5,0.3,0.9
		c0,0.4-0.1,0.7-0.3,0.9c-0.2,0.2-0.5,0.3-0.9,0.3c-0.4,0-0.7-0.1-0.9-0.3C163.3,63,163.2,62.6,163.2,62.2z"/>
	<path class="st1" d="M174.2,63.3h-2.1v-4.8c0-0.6-0.1-1-0.3-1.3c-0.2-0.3-0.5-0.4-0.9-0.4c-0.5,0-0.9,0.2-1.1,0.6
		c-0.2,0.4-0.4,1.1-0.4,2.1v3.9h-2.1v-8.2h1.6l0.3,1h0.1c0.2-0.4,0.5-0.7,0.9-0.9c0.4-0.2,0.8-0.3,1.3-0.3c1.1,0,1.9,0.4,2.3,1.2
		h0.2c0.2-0.4,0.5-0.7,0.9-0.9s0.8-0.3,1.3-0.3c0.9,0,1.5,0.2,1.9,0.7c0.4,0.5,0.7,1.2,0.7,2.3v5.3h-2.1v-4.8c0-0.6-0.1-1-0.3-1.3
		c-0.2-0.3-0.5-0.4-0.9-0.4c-0.5,0-0.9,0.2-1.1,0.6c-0.2,0.4-0.4,1-0.4,1.9V63.3z"/>
	<path class="st1" d="M179.9,55.1h2.2l1.4,4.6c0.1,0.4,0.2,0.9,0.2,1.4h0c0-0.5,0.1-1,0.3-1.4l1.4-4.6h2.2l-3.2,9.2
		c-0.3,0.9-0.7,1.5-1.2,1.9s-1.2,0.6-1.9,0.6c-0.4,0-0.7,0-1-0.1V65c0.2,0.1,0.5,0.1,0.8,0.1c0.4,0,0.7-0.1,1-0.4
		c0.3-0.2,0.5-0.6,0.6-1.1l0.1-0.4L179.9,55.1z"/>
</g>
<rect x="131.8" y="94.7" class="st5" width="280.8" height="137.6"/>
<rect x="61.2" y="43.1" class="st6" width="352.3" height="51.6"/>
<rect x="140.1" y="58.5" class="st2" width="134.1" height="20.7"/>
<rect x="271" y="58.5" class="st7" width="37" height="20.7"/>
<rect x="140.4" y="107.4" class="st6" width="131.8" height="12.9"/>
<rect x="140.4" y="124.3" class="st6" width="71.9" height="3.5"/>
<rect x="140.4" y="129.9" class="st6" width="71.9" height="3.5"/>
<rect x="140.1" y="139.4" class="st6" width="47.6" height="58.3"/>
<rect x="191.7" y="139.4" class="st6" width="47.6" height="58.3"/>
<rect x="247.5" y="123.7" class="st6" width="71.9" height="3.5"/>
<rect x="247.5" y="129.3" class="st6" width="71.9" height="3.5"/>
<rect x="247.2" y="138.8" class="st6" width="47.6" height="58.3"/>
<rect x="298.8" y="138.8" class="st6" width="47.6" height="58.3"/>
<g>
	<g>
		<path class="st8" d="M117.3,141.4v-4c0-4.3-3.5-7.7-7.7-7.7c-4.3,0-7.7,3.5-7.7,7.7v4H117.3z"/>
		<path class="st8" d="M111.8,131.6v-2.9c0-1.3-1-2.3-2.3-2.3c-1.3,0-2.3,1-2.3,2.3v2.9"/>
		<path class="st8" d="M112.6,131.6v-2.8c0-1.7-1.3-3-3-3c-1.7,0-3,1.3-3,3v2.8"/>
		<rect x="111.5" y="131.6" class="st8" width="1.4" height="2.8"/>
		<rect x="106.1" y="131.6" class="st8" width="1.4" height="2.8"/>
		<line class="st8" x1="101.9" y1="140.3" x2="117.2" y2="140.3"/>
	</g>
	<g>
		<g>
			
				<ellipse transform="matrix(0.7071 0.7071 -0.7071 0.7071 163.419 -25.5451)" class="st8" cx="112.5" cy="184.5" rx="4.7" ry="5.2"/>
			<path class="st8" d="M102,195.1L102,195.1c-0.3-0.3-0.3-0.8,0-1.1l2.7-2.7c0.3-0.3,0.8-0.3,1.1,0l0,0c0.3,0.3,0.3,0.8,0,1.1
				l-2.7,2.7C102.8,195.4,102.3,195.4,102,195.1z"/>
			<path class="st8" d="M107.6,185c0,0,0,4.4-2.3,6.7"/>
			<path class="st8" d="M112,189.5c0,0-4.4,0-6.7,2.3"/>
		</g>
		<path class="st8" d="M112.3,194.7c-0.4,0.4-0.9,0.6-1.4,0.5c-0.4,0-0.8-0.2-1.1-0.5c-0.3-0.3-0.5-0.7-0.5-1.1c0-0.5,0.1-1,0.5-1.4
			c0.4-0.4,0.9-0.6,1.4-0.5c0.4,0,0.8,0.2,1.1,0.5c0.3,0.3,0.5,0.7,0.5,1.1C112.8,193.8,112.7,194.3,112.3,194.7z"/>
		<path class="st8" d="M110.6,193.1c-0.4,0.4-0.9,0.6-1.4,0.5c0-0.5,0.1-1,0.5-1.4c0.4-0.4,0.9-0.6,1.4-0.5
			C111.2,192.2,111,192.7,110.6,193.1z"/>
		<path class="st8" d="M112.3,194.7c-0.4,0.4-0.9,0.6-1.4,0.5c-0.1-0.5,0.1-1.1,0.5-1.5c0.4-0.4,0.9-0.6,1.5-0.5
			C112.8,193.8,112.7,194.3,112.3,194.7z"/>
		<line class="st8" x1="103.7" y1="192.3" x2="105.5" y2="192.8"/>
		<line class="st8" x1="102.7" y1="193.2" x2="104.5" y2="193.7"/>
		<polyline class="st8" points="112.9,180.5 113.2,180.8 114,181.6 114.7,182.4 115.5,183.2 116.4,184 116.5,184.2 		"/>
		<polyline class="st8" points="111.7,180.7 112.5,181.5 113.3,182.3 114,183.1 114.8,183.9 115.7,184.7 116.3,185.4 		"/>
		<polyline class="st8" points="110.7,181.2 111.8,182.2 112.6,183 113.3,183.8 114.1,184.6 115,185.4 115.9,186.3 		"/>
		<polyline class="st8" points="110,181.8 111.1,182.9 111.9,183.8 112.6,184.5 113.4,185.3 114.2,186.1 115.3,187.1 		"/>
		<polyline class="st8" points="109.3,182.6 110.4,183.6 111.2,184.5 111.9,185.2 112.7,186 113.5,186.8 114.5,187.8 		"/>
		<polyline class="st8" points="108.8,183.5 109.7,184.3 110.5,185.2 111.2,185.9 112,186.7 112.8,187.5 113.6,188.2 		"/>
		<polyline class="st8" points="108.6,184.7 109,185 109.8,185.9 110.5,186.6 111.3,187.4 112.1,188.2 112.4,188.5 		"/>
		
			<ellipse transform="matrix(0.7071 0.7071 -0.7071 0.7071 163.4406 -25.553)" class="st8" cx="112.6" cy="184.5" rx="3.9" ry="4.3"/>
		<polyline class="st8" points="109.6,187.5 110.5,186.6 111.2,185.9 111.9,185.2 112.6,184.5 113.3,183.8 114,183.1 114.7,182.4 
			115.5,181.6 		"/>
		<polyline class="st8" points="110.6,188.2 111.3,187.4 112,186.7 112.7,186 113.4,185.3 114.1,184.6 114.8,183.9 115.5,183.2 
			116.2,182.5 		"/>
		<polyline class="st8" points="111.9,188.5 112.1,188.2 112.8,187.5 113.5,186.8 114.2,186.1 115,185.4 115.7,184.7 116.4,184 
			116.5,183.8 		"/>
		<polyline class="st8" points="108.6,185.4 109,185 109.7,184.3 110.4,183.6 111.1,182.9 111.8,182.2 112.5,181.5 113.2,180.8 
			113.4,180.6 		"/>
		<polyline class="st8" points="109,186.7 109.8,185.9 110.5,185.2 111.2,184.5 111.9,183.8 112.6,183 113.3,182.3 114,181.6 
			114.7,181 		"/>
	</g>
	<g>
		<path class="st8" d="M90.8,137.3c0,1.7-1.3,1.5-1.3,1.5h-4.8c-1.1,0-2.1-0.4-2.9-1.2l-3.8-3.7v5.2h-1.2l-0.7-5.4
			c-0.7-4.7,2.3-5.1,2.3-5.1l6.3,7.5l0,0l1.7-0.8L90.8,137.3z"/>
		<line class="st8" x1="78" y1="133.9" x2="76.1" y2="133.9"/>
	</g>
	<g>
		<path class="st8" d="M87.5,112.5H74.9c-0.5,0-1-0.8-1-1.7h13.6"/>
		<path class="st8" d="M87.5,109.5H77.1c-0.4,0-0.8-0.3-0.8-0.8v-7.3c0-0.4,0.3-0.8,0.8-0.8h11.6c0.4,0,0.8,0.3,0.8,0.8v4"/>
		<path class="st8" d="M87.5,110.8H76.3c-0.8,0-1.4-0.6-1.4-1.4v-8.7c0-0.8,0.6-1.4,1.4-1.4h13c0.8,0,1.4,0.6,1.4,1.4v4.7"/>
		<path class="st8" d="M92.1,114.7h-3.9c-0.4,0-0.7-0.3-0.7-0.7v-7.8c0-0.4,0.3-0.7,0.7-0.7h3.9c0.4,0,0.7,0.3,0.7,0.7v7.8
			C92.9,114.4,92.6,114.7,92.1,114.7z"/>
		<circle class="st8" cx="90.2" cy="113.5" r="0.5"/>
		<rect x="88.3" y="106.5" class="st8" width="3.7" height="5.4"/>
	</g>
	<g>
		<polyline class="st8" points="85.2,157.7 85.2,153.3 80.9,153.3 80.9,157.5 		"/>
		<polyline class="st8" points="84.8,164.6 85.2,164.6 85.2,168.5 80.9,168.5 80.9,164.6 81,164.6 		"/>
		<circle class="st8" cx="82.9" cy="161.1" r="4.1"/>
		<circle class="st8" cx="82.9" cy="161.1" r="3"/>
		<rect x="86.7" y="162.3" transform="matrix(0.9191 0.3939 -0.3939 0.9191 71.1675 -21.213)" class="st8" width="1" height="1"/>
		<rect x="86.7" y="158.9" transform="matrix(-0.9191 0.394 -0.394 -0.9191 230.145 271.5245)" class="st8" width="1" height="1"/>
		<polyline class="st8" points="82.9,159.1 82.9,161.1 84.8,161.1 		"/>
		<circle class="st9" cx="82.9" cy="161.1" r="0.7"/>
		<line class="st8" x1="80.9" y1="156" x2="84.9" y2="156"/>
		<line class="st8" x1="80.9" y1="154.7" x2="84.9" y2="154.7"/>
		<line class="st8" x1="81.1" y1="167.3" x2="85.1" y2="167.3"/>
		<line class="st8" x1="81.1" y1="166" x2="85.1" y2="166"/>
	</g>
	<g>
		<circle class="st8" cx="108.4" cy="161.9" r="6.5"/>
		<circle class="st8" cx="108.4" cy="161.9" r="4.9"/>
		<polyline class="st8" points="112.1,153.9 114.9,153.4 117.3,155.8 117.3,158.1 114.1,158.7 		"/>
		<line class="st8" x1="112.3" y1="154" x2="117.3" y2="158.1"/>
		<polyline class="st8" points="114.9,153.4 114.8,156 117.3,155.8 		"/>
		<line class="st8" x1="112.1" y1="153.9" x2="112.1" y2="156.5"/>
		<line class="st8" x1="112.9" y1="157.1" x2="113.5" y2="155"/>
		<line class="st8" x1="113.3" y1="157.5" x2="114.8" y2="156"/>
		<line class="st8" x1="113.7" y1="158.1" x2="116" y2="157.1"/>
	</g>
	<g>
		<path class="st8" d="M76.1,210.6v-2.7c0-0.9,0.7-1.7,1.7-1.7h11.7c0.9,0,1.7,0.7,1.7,1.7v2.8"/>
		<rect x="77.4" y="212.8" class="st8" width="12" height="1.7"/>
		<path class="st8" d="M77.4,212.8v-0.7c0-0.7-0.5-1.4-1.2-1.5c-0.1,0-0.2,0-0.3,0c-0.8,0-1.5,0.7-1.5,1.5v2.4v3.7"/>
		<path class="st8" d="M89.4,212.8v-0.7c0-0.8,0.7-1.5,1.5-1.5c0.1,0,0.2,0,0.3,0c0.7,0.1,1.2,0.7,1.2,1.5v2.4"/>
		<circle class="st8" cx="81.1" cy="209.5" r="0.6"/>
		<circle class="st8" cx="86.2" cy="209.5" r="0.6"/>
		<path class="st8" d="M76,218.2l-0.6,1.6c0,0,0,0,0,0c-0.1,0.5,0.5,0.8,0.9,0.4l2.1-2H76z"/>
		<path class="st8" d="M90.8,218.2l0.6,1.6c0,0,0,0,0,0c0.1,0.5-0.5,0.8-0.9,0.4l-2.1-2H90.8z"/>
		<rect x="77.4" y="212.8" class="st8" width="12" height="1.7"/>
		<rect x="74.4" y="214.5" class="st8" width="18" height="3.7"/>
	</g>
	<g>
		<path class="st8" d="M106.8,222.2h-0.2c-1.2,0-2.3-1-2.3-2.3v-4.9c0-1.2,1-2.3,2.3-2.3h0.2c1.2,0,2.3,1,2.3,2.3v4.9
			C109.1,221.2,108,222.2,106.8,222.2z"/>
		<path class="st8" d="M113.3,222.2h-5.6c-1.1,0-2-0.9-2-2v-0.2c0-1.1,0.9-2,2-2h5.6c1.1,0,2,0.9,2,2v0.2
			C115.3,221.3,114.4,222.2,113.3,222.2z"/>
		<rect x="104.4" y="215.3" class="st8" width="4.6" height="0.9"/>
		<line class="st8" x1="108" y1="212.6" x2="108" y2="209.2"/>
		<line class="st8" x1="105.2" y1="212.6" x2="105.2" y2="207.4"/>
		
			<ellipse transform="matrix(0.7412 -0.6713 0.6713 0.7412 -112.0421 125.394)" class="st8" cx="106.6" cy="208" rx="0.9" ry="1.9"/>
		<ellipse class="st8" cx="107.4" cy="220.2" rx="1.1" ry="1.4"/>
	</g>
	<g>
		<g>
			<path class="st8" d="M88.6,191c0.5-0.7,1-1.5,1.2-2.4c0.1-0.5,0.2-1,0.2-1.5c0-0.5-0.1-1-0.2-1.5c-0.2-1-0.7-1.8-1.3-2.6
				c-0.2-0.2-0.4-0.4-0.6-0.6c-0.2-0.2-0.4-0.3-0.6-0.5c-0.4-0.3-0.8-0.5-1.3-0.7c-0.7-0.3-1.6-0.5-2.4-0.5c-0.2,0-0.5,0-0.7,0
				c-0.3,0-0.5,0.1-0.8,0.1c-0.3,0.1-0.6,0.2-0.8,0.3c-2,0.8-3.5,2.5-3.9,4.7c-0.1,0.4-0.1,0.8-0.1,1.3c0,0.5,0.1,1,0.2,1.5
				c0.7,2.8,3.2,4.8,6.2,4.8c1,0,1.9-0.2,2.7-0.6"/>
			<polygon class="st8" points="83.6,185.7 83.6,187.7 85,187.7 			"/>
			<circle class="st9" cx="81.7" cy="186.7" r="0.8"/>
			<circle class="st9" cx="86.2" cy="186.7" r="0.8"/>
			<path class="st8" d="M82.3,181.6"/>
			<path class="st8" d="M86.3,179.7c0.1,0.7-0.1,1.3-0.6,1.9c-0.8,0.9-2,1.2-3.1,0.8"/>
			<path class="st8" d="M77.4,188.6c-0.2,0.2-0.5,0.2-0.8,0.2c-0.9,0-1.6-0.7-1.6-1.6c0-0.9,0.7-1.6,1.6-1.6c0.3,0,0.5,0.1,0.8,0.2"
				/>
			<line class="st8" x1="75.7" y1="186.9" x2="76.5" y2="186.9"/>
			<line class="st8" x1="76.1" y1="186.9" x2="76.1" y2="187.7"/>
			<path class="st8" d="M89.7,185.6c0.2-0.1,0.4-0.1,0.6-0.1c0.9,0,1.6,0.7,1.6,1.6c0,0.9-0.7,1.6-1.6,1.6c-0.2,0-0.4,0-0.6-0.1"/>
			<line class="st8" x1="91.2" y1="186.7" x2="90.3" y2="186.7"/>
			<line class="st8" x1="90.8" y1="186.8" x2="90.8" y2="187.6"/>
		</g>
		<path class="st8" d="M90.2,194.6L90.2,194.6c-0.6,0.6-1.5,0.6-2.1,0.1l-1.7-1.7c-0.6-0.6-0.6-1.5,0-2l0.1-0.1c0.6-0.6,1.5-0.6,2,0
			l1.7,1.7C90.8,193.2,90.8,194.1,90.2,194.6z"/>
		<path class="st8" d="M86.9,189.6L86.9,189.6l-0.3-0.2c-0.2-0.2-0.5-0.2-0.7,0l-0.2,0.2l-0.4-0.4c-0.1-0.1-0.4-0.1-0.5,0
			c-0.1,0.1-0.1,0.4,0,0.5l0.4,0.4l-0.2,0.2c-0.2,0.2-0.2,0.5,0,0.7l0.2,0.2l-0.1,0.1c-0.1,0.1-0.1,0.3,0,0.5c0.1,0.1,0.3,0.1,0.5,0
			l0.4-0.4l0.9-0.9l0.4-0.4c0.1-0.1,0.1-0.3,0-0.5S87,189.5,86.9,189.6z"/>
		<line class="st8" x1="88.4" y1="190.8" x2="87.4" y2="191.8"/>
		<line class="st8" x1="88.8" y1="191.3" x2="87.8" y2="192.4"/>
		<line class="st8" x1="89.2" y1="191.8" x2="88.2" y2="192.9"/>
	</g>
	<path class="st8" d="M114.6,115l-2.7-9.5c0,0,1.7-1,1-3.1h-0.7l-0.5-3h-1v1.6c0,0.6-0.5,1.2-1.2,1.2c-0.6,0-1.2-0.5-1.2-1.2v-1.6
		h-1l-0.5,3h-0.6c0,0-0.2,2.6,1,3.1l-2.7,9.5H114.6z"/>
</g>
</svg>