<!-- Generator: Adobe Illustrator 19.0.0, SVG Export Plug-In  -->
<svg version="1.1"
	 xmlns="http://www.w3.org/2000/svg" xmlns:xlink="http://www.w3.org/1999/xlink" xmlns:a="http://ns.adobe.com/AdobeSVGViewerExtensions/3.0/"
	 x="0px" y="0px" width="476px" height="274px" viewBox="0 0 476 274" style="enable-background:new 0 0 476 274;"
	 xml:space="preserve">
<style type="text/css">
	.st0{fill:#D1D1D1;}
	.st1{fill:#9EA6A8;}
	.st2{fill:#FFFFFF;}
	.st3{fill:#4E5C5E;}
	.st4{fill:#AAA5A3;}
	.st5{fill:none;stroke:#D1D1D1;stroke-miterlimit:10;}
	.st6{fill:#FF6633;}
	.st7{fill:#FFFFFF;stroke:#D1D1D1;stroke-miterlimit:10;}
</style>
<defs>
</defs>
<g>
	<path class="st0" d="M432,262H44c-7.7,0-14-6.3-14-14V14c0-7.7,6.3-14,14-14h388c7.7,0,14,6.3,14,14v234
		C446,255.7,439.7,262,432,262z"/>
	<rect x="48.2" y="26" class="st1" width="377.6" height="236"/>
	<rect x="61.2" y="59" class="st2" width="351.5" height="173.3"/>
	<path class="st0" d="M0,246L0,246c0,15.4,12.6,28,28,28h420c15.4,0,28-12.6,28-28v0H0z"/>
	<rect x="61.2" y="31.7" class="st0" width="352.3" height="13.7"/>
	<rect x="61.2" y="45.3" class="st3" width="351.5" height="13.7"/>
	<circle class="st2" cx="72" cy="38.7" r="3.3"/>
	<circle class="st2" cx="82.7" cy="38.7" r="3.3"/>
	<circle class="st2" cx="93.5" cy="38.7" r="3.3"/>
</g>
<circle class="st2" cx="309.6" cy="207.7" r="2.9"/>
<path class="st4" d="M295.6,255.6H185c-4,0-7.4-3.3-7.4-7.4l0,0c0-4,3.3-7.4,7.4-7.4h110.6c4,0,7.4,3.3,7.4,7.4l0,0
	C302.9,252.3,299.6,255.6,295.6,255.6z"/>
<rect x="144.2" y="68" class="st5" width="176.5" height="19"/>
<rect x="320.7" y="68" class="st6" width="35.5" height="19"/>
<g>
	<path class="st3" d="M150.1,71.1c0-0.7,0.4-1.1,1.1-1.1c0.7,0,1.1,0.4,1.1,1.1c0,0.3-0.1,0.6-0.3,0.8c-0.2,0.2-0.5,0.3-0.8,0.3
		C150.4,72.2,150.1,71.8,150.1,71.1z M152.2,81.4h-2.1v-8.2h2.1V81.4z"/>
	<path class="st3" d="M158.5,81.5c-0.9,0-1.6-0.3-2.1-1h-0.1c0.1,0.7,0.1,1.1,0.1,1.2V85h-2.1V73.2h1.7l0.3,1.1h0.1
		c0.5-0.8,1.2-1.2,2.1-1.2c0.9,0,1.6,0.4,2.1,1.1s0.8,1.8,0.8,3.1c0,0.9-0.1,1.6-0.4,2.3s-0.6,1.1-1,1.5
		C159.6,81.3,159.1,81.5,158.5,81.5z M157.9,74.8c-0.5,0-0.9,0.2-1.1,0.5s-0.4,0.9-0.4,1.7v0.2c0,0.9,0.1,1.5,0.4,1.9
		c0.2,0.4,0.6,0.6,1.1,0.6c0.9,0,1.4-0.8,1.4-2.5c0-0.8-0.1-1.4-0.3-1.8C158.7,75,158.4,74.8,157.9,74.8z"/>
	<path class="st3" d="M167.3,73c0.3,0,0.5,0,0.7,0.1l-0.2,2.1c-0.2,0-0.4-0.1-0.6-0.1c-0.7,0-1.2,0.2-1.5,0.5
		c-0.4,0.4-0.5,0.9-0.5,1.5v4.2h-2.1v-8.2h1.6l0.3,1.4h0.1c0.2-0.5,0.5-0.8,0.9-1.1S166.8,73,167.3,73z"/>
	<path class="st3" d="M169.3,71.1c0-0.7,0.4-1.1,1.1-1.1c0.7,0,1.1,0.4,1.1,1.1c0,0.3-0.1,0.6-0.3,0.8c-0.2,0.2-0.5,0.3-0.8,0.3
		C169.6,72.2,169.3,71.8,169.3,71.1z M171.4,81.4h-2.1v-8.2h2.1V81.4z"/>
	<path class="st3" d="M176.6,81.5c-2.3,0-3.5-1.4-3.5-4.2c0-1.4,0.3-2.5,1-3.2c0.6-0.7,1.6-1.1,2.7-1.1c0.9,0,1.7,0.2,2.3,0.6
		l-0.6,1.7c-0.3-0.1-0.6-0.3-0.9-0.3c-0.3-0.1-0.6-0.1-0.8-0.1c-1.1,0-1.6,0.8-1.6,2.5c0,1.6,0.5,2.4,1.6,2.4c0.4,0,0.8-0.1,1.1-0.2
		c0.3-0.1,0.7-0.3,1-0.5v1.9c-0.3,0.2-0.7,0.4-1,0.5C177.5,81.5,177.1,81.5,176.6,81.5z"/>
	<path class="st3" d="M184,81.5c-1.2,0-2.2-0.4-2.8-1.1s-1-1.8-1-3.1c0-1.4,0.3-2.4,0.9-3.2s1.5-1.1,2.6-1.1c1.1,0,1.9,0.3,2.5,1
		c0.6,0.7,0.9,1.6,0.9,2.7v1.1h-4.9c0,0.6,0.2,1.1,0.5,1.5c0.3,0.4,0.8,0.5,1.4,0.5c0.5,0,0.9-0.1,1.3-0.2c0.4-0.1,0.8-0.3,1.3-0.5
		v1.7c-0.4,0.2-0.7,0.3-1.2,0.4C185.1,81.5,184.6,81.5,184,81.5z M183.8,74.6c-0.4,0-0.8,0.2-1,0.5c-0.2,0.3-0.4,0.7-0.4,1.3h2.9
		c0-0.6-0.1-1-0.4-1.3C184.5,74.8,184.2,74.6,183.8,74.6z"/>
	<path class="st3" d="M188.5,80.3c0-0.4,0.1-0.7,0.3-0.9s0.5-0.3,0.9-0.3c0.4,0,0.7,0.1,0.9,0.3c0.2,0.2,0.3,0.5,0.3,0.9
		c0,0.4-0.1,0.7-0.3,0.9c-0.2,0.2-0.5,0.3-0.9,0.3c-0.4,0-0.7-0.1-0.9-0.3C188.6,81,188.5,80.7,188.5,80.3z"/>
	<path class="st3" d="M199.5,81.4h-2.1v-4.8c0-0.6-0.1-1-0.3-1.3c-0.2-0.3-0.5-0.4-0.9-0.4c-0.5,0-0.9,0.2-1.1,0.6
		c-0.2,0.4-0.4,1.1-0.4,2.1v3.9h-2.1v-8.2h1.6l0.3,1h0.1c0.2-0.4,0.5-0.7,0.9-0.9c0.4-0.2,0.8-0.3,1.3-0.3c1.1,0,1.9,0.4,2.3,1.2
		h0.2c0.2-0.4,0.5-0.7,0.9-0.9s0.8-0.3,1.3-0.3c0.9,0,1.5,0.2,1.9,0.7c0.4,0.5,0.7,1.2,0.7,2.3v5.3h-2.1v-4.8c0-0.6-0.1-1-0.3-1.3
		c-0.2-0.3-0.5-0.4-0.9-0.4c-0.5,0-0.9,0.2-1.1,0.6c-0.2,0.4-0.4,1-0.4,1.9V81.4z"/>
	<path class="st3" d="M205.2,73.2h2.2l1.4,4.6c0.1,0.4,0.2,0.9,0.2,1.4h0c0-0.5,0.1-1,0.3-1.4l1.4-4.6h2.2l-3.2,9.2
		c-0.3,0.9-0.7,1.5-1.2,1.9s-1.2,0.6-1.9,0.6c-0.4,0-0.7,0-1-0.1v-1.8c0.2,0.1,0.5,0.1,0.8,0.1c0.4,0,0.7-0.1,1-0.4
		c0.3-0.2,0.5-0.6,0.6-1.1l0.1-0.4L205.2,73.2z"/>
</g>
<rect x="165.3" y="119.1" class="st0" width="177.3" height="5.7"/>
<rect x="165.3" y="129.9" class="st0" width="177.3" height="5.7"/>
<rect x="165.3" y="140.8" class="st0" width="177.3" height="5.7"/>
<rect x="165.3" y="157" class="st0" width="210" height="11.5"/>
<rect x="165.3" y="174.7" class="st0" width="177.3" height="5.7"/>
<rect x="165.3" y="185.5" class="st0" width="177.3" height="5.7"/>
<rect x="165.3" y="196.4" class="st0" width="177.3" height="5.7"/>
<rect x="144.2" y="87" class="st7" width="176.5" height="97"/>
</svg>