<?xml version="1.0" encoding="utf-8"?>
<!-- Generator: Adobe Illustrator 19.0.0, SVG Export Plug-In . SVG Version: 6.00 Build 0)  -->
<svg version="1.1" id="Layer_1" xmlns="http://www.w3.org/2000/svg" xmlns:xlink="http://www.w3.org/1999/xlink" x="0px" y="0px"
	 viewBox="-93.1 756 694.8 208.3" style="enable-background:new -93.1 756 694.8 208.3;" xml:space="preserve">
<style type="text/css">
	.st0{fill:#086A87;stroke:#086A87;stroke-width:1.5;stroke-linecap:round;stroke-linejoin:round;stroke-miterlimit:10;}
	.st1{fill:#0B90B8;}
	.st2{fill:#FFFFFF;}
</style>
<polygon class="st0" points="601,931.4 561.6,963.5 -92.3,963.5 -92.3,756.7 601,756.7 "/>
<polygon class="st1" points="562.1,963.8 601.8,931.3 564.5,928.8 "/>
<g>
	<path class="st2" d="M186.9,789.5h3.4v6.4h7.7c0.4-0.1,0.8-0.2,1.1-0.5c0.3-0.2,0.6-0.5,0.9-0.9c0.3-0.4,0.5-1,0.7-1.7v-3.3h3.4
		v3.7c0,0.2,0,0.5-0.1,0.9c-0.1,0.4-0.2,0.8-0.4,1.2c-0.2,0.4-0.4,0.9-0.6,1.3c-0.3,0.4-0.5,0.8-0.9,1.2c0.4,0.4,0.8,1,1.2,1.6
		c0.3,0.5,0.6,1.1,0.8,1.9c0.3,0.8,0.4,1.6,0.4,2.6v10.9h-3.4v-10.9c-0.1-0.4-0.1-0.8-0.2-1.1c-0.1-0.3-0.2-0.7-0.3-1
		c-0.1-0.4-0.3-0.7-0.6-1.1s-0.5-0.6-0.8-0.8c-0.3-0.2-0.7-0.3-1.2-0.3h-7.7v15.3h-3.4V789.5z"/>
	<path class="st2" d="M226.8,789.5v15.6v0.3c0,0.3,0,0.7-0.1,1.3s-0.2,1.2-0.3,1.9s-0.4,1.4-0.8,2.2s-0.8,1.4-1.4,2
		s-1.4,1.1-2.3,1.5c-0.9,0.4-2,0.6-3.3,0.6h-0.8c-1-0.1-1.9-0.3-2.6-0.6c-0.3-0.1-0.7-0.3-1-0.5c-0.3-0.2-0.6-0.4-0.9-0.7
		c-0.3-0.3-0.5-0.6-0.6-0.9s-0.3-0.8-0.3-1.2v3.5h-3.4v-25.1h3.4v15.6c0,0.1,0,0.3,0,0.6c0,0.3,0.1,0.8,0.2,1.2
		c0.1,0.5,0.3,1,0.5,1.5s0.5,1,0.9,1.5c0.4,0.4,0.9,0.8,1.5,1.1c0.6,0.3,1.4,0.4,2.3,0.4c0.1,0,0.3,0,0.6,0c0.3,0,0.7-0.1,1.1-0.2
		c0.4-0.1,0.9-0.3,1.3-0.6s0.9-0.6,1.3-1.1c0.4-0.5,0.7-1.1,0.9-1.8c0.3-0.7,0.4-1.6,0.4-2.7v-15.6H226.8z"/>
	<path class="st2" d="M234.4,789.4c0.1,0,0.3,0,0.6,0s0.7,0.1,1.2,0.2s0.9,0.3,1.4,0.6c0.5,0.3,1,0.7,1.4,1.3
		c0.4,0.5,0.8,1.2,1.1,2.1c0.3,0.8,0.4,1.9,0.4,3.1v17.9h-3.4v-17.9c0-0.7-0.1-1.3-0.3-1.8c-0.1-0.2-0.2-0.5-0.3-0.7
		c-0.1-0.2-0.3-0.4-0.5-0.6c-0.2-0.2-0.4-0.3-0.7-0.4c-0.3-0.1-0.5-0.2-0.9-0.2c-0.6,0-1.1,0.1-1.5,0.2s-0.7,0.3-1,0.5
		c-0.3,0.2-0.5,0.4-0.6,0.6c-0.2,0.2-0.3,0.3-0.3,0.4l-2.4-2.7c0.4-0.5,0.8-1,1.4-1.4c0.5-0.3,1.1-0.7,1.8-0.9
		C232.6,789.5,233.5,789.4,234.4,789.4z"/>
	<path class="st2" d="M262.8,789.5v18.1c0,1.1-0.1,2-0.4,2.7c-0.3,0.8-0.7,1.4-1.1,1.9c-0.4,0.5-0.9,0.9-1.5,1.3
		c-0.5,0.3-1.1,0.6-1.6,0.7s-1,0.3-1.4,0.3c-0.4,0.1-0.7,0.1-0.9,0.1h-4.3c-1.1,0-2.1-0.1-2.9-0.4c-0.8-0.3-1.5-0.6-2-1
		c-0.5-0.4-1-0.9-1.3-1.4s-0.6-1-0.7-1.5s-0.3-1-0.3-1.4c-0.1-0.4-0.1-0.8-0.1-1.1c0-1,0.2-1.8,0.5-2.5s0.7-1.2,1.1-1.6
		s0.8-0.7,1.2-0.9s0.6-0.3,0.7-0.4c-0.5-0.1-0.9-0.2-1.2-0.5c-0.4-0.2-0.7-0.5-0.9-0.8s-0.5-0.6-0.7-0.9c-0.2-0.3-0.3-0.7-0.5-1
		c-0.3-0.8-0.5-1.6-0.5-2.6c0-0.9,0.1-1.7,0.2-2.4c0.2-0.7,0.4-1.3,0.6-1.8c0.3-0.5,0.6-0.9,0.9-1.3c0.3-0.4,0.7-0.6,1-0.9
		c0.8-0.5,1.8-0.8,2.8-0.9h4.6v3.5h-2.8c-0.5,0-1,0.1-1.4,0.2s-0.7,0.3-1,0.4c-0.3,0.2-0.5,0.4-0.7,0.6c-0.2,0.2-0.4,0.5-0.5,0.7
		c-0.3,0.5-0.5,1.2-0.5,1.9c0,0.6,0.1,1.2,0.3,1.6c0.2,0.4,0.4,0.8,0.7,1.1c0.3,0.3,0.6,0.5,0.9,0.7c0.3,0.2,0.7,0.3,1,0.3
		c0.3,0.1,0.6,0.1,0.8,0.1c0.2,0,0.3,0,0.4,0h2.8v3.5h-2.8c-0.6,0-1.1,0.1-1.5,0.2s-0.8,0.3-1,0.6c-0.3,0.2-0.5,0.5-0.6,0.7
		c-0.2,0.3-0.3,0.5-0.3,0.8c-0.1,0.3-0.1,0.5-0.1,0.6c0,0.2,0,0.3,0,0.4c0,0.6,0.1,1.2,0.2,1.6s0.4,0.8,0.6,1.1s0.5,0.5,0.8,0.6
		s0.6,0.3,0.9,0.3s0.5,0.1,0.7,0.1c0.2,0,0.4,0,0.5,0h0.1h4.2c0.8,0,1.5-0.2,1.9-0.5c0.5-0.4,0.8-0.8,1.1-1.2
		c0.3-0.5,0.5-1.1,0.5-1.8v-18.1H262.8z"/>
	<path class="st2" d="M271,814.7h-3.5v-25.1h3.5V814.7z"/>
	<path class="st2" d="M275.5,789.5h3.4v6.4h7.7c0.4-0.1,0.8-0.2,1.1-0.5c0.3-0.2,0.6-0.5,0.9-0.9s0.5-1,0.7-1.7v-3.3h3.4v3.7
		c0,0.2,0,0.5-0.1,0.9s-0.2,0.8-0.4,1.2s-0.4,0.9-0.6,1.3c-0.3,0.4-0.5,0.8-0.9,1.2c0.4,0.4,0.8,1,1.2,1.6c0.3,0.5,0.6,1.1,0.8,1.9
		c0.3,0.8,0.4,1.6,0.4,2.6v10.9h-3.4v-10.9c-0.1-0.4-0.1-0.8-0.2-1.1c-0.1-0.3-0.2-0.7-0.3-1s-0.3-0.7-0.6-1.1
		c-0.2-0.3-0.5-0.6-0.8-0.8c-0.3-0.2-0.7-0.3-1.2-0.3h-7.7v15.3h-3.4V789.5z"/>
	<path class="st2" d="M314,792c0.4,0.6,0.8,1.3,1,2s0.4,1.5,0.5,2.4v18.2h-3.4v-16.8c0-1-0.2-1.9-0.5-2.7c-0.3-0.8-0.8-1.3-1.4-1.8
		l-3.7,2.6l-3.7-2.6c-0.6,0.4-1.1,1-1.4,1.8c-0.3,0.8-0.5,1.6-0.5,2.7v9c0,0.8,0.2,1.6,0.5,2.2c0.1,0.3,0.3,0.5,0.5,0.8
		s0.4,0.5,0.7,0.7s0.6,0.4,1,0.5c0.4,0.1,0.8,0.2,1.3,0.2h2.5v3.5h-4.6c-1-0.1-1.9-0.4-2.6-0.9c-0.3-0.2-0.7-0.5-1-0.9
		s-0.6-0.8-0.8-1.3s-0.4-1.1-0.6-1.8s-0.2-1.5-0.2-2.4v-10.9c0.2-1.7,0.7-3.2,1.6-4.4s2-2.1,3.4-2.7l4,2.7l4-2.7
		C311.9,789.9,313.1,790.8,314,792z"/>
	<path class="st2" d="M311.4,820.6h-1.6v-3.5h3.2c0.5,0,0.9,0.2,1.2,0.5c0.3,0.3,0.5,0.8,0.5,1.3v7.4h-3.2V820.6z"/>
	<path class="st2" d="M321.7,806.4c0.3,0,0.6,0.1,0.9,0.2c0.3,0.1,0.5,0.3,0.7,0.5c0.2,0.2,0.4,0.5,0.5,0.8s0.2,0.6,0.2,1
		s-0.1,0.7-0.2,1s-0.3,0.6-0.5,0.8c-0.2,0.2-0.5,0.4-0.7,0.6c-0.3,0.1-0.6,0.2-0.9,0.2c-0.3,0-0.6-0.1-0.9-0.2
		c-0.3-0.1-0.5-0.3-0.7-0.6c-0.2-0.2-0.4-0.5-0.5-0.8s-0.2-0.6-0.2-1s0.1-0.7,0.2-1s0.3-0.6,0.5-0.8c0.2-0.2,0.5-0.4,0.7-0.5
		C321.1,806.5,321.4,806.4,321.7,806.4z M321.8,796.3c-0.3,0-0.6-0.1-0.9-0.2s-0.5-0.3-0.7-0.6c-0.2-0.2-0.4-0.5-0.5-0.8
		c-0.1-0.3-0.2-0.6-0.2-1s0.1-0.7,0.2-1c0.1-0.3,0.3-0.6,0.5-0.8c0.2-0.2,0.5-0.4,0.7-0.5s0.6-0.2,0.9-0.2c0.3,0,0.6,0.1,0.9,0.2
		s0.5,0.3,0.7,0.5s0.4,0.5,0.5,0.8c0.1,0.3,0.2,0.6,0.2,1s-0.1,0.7-0.2,1c-0.1,0.3-0.3,0.6-0.5,0.8s-0.5,0.4-0.7,0.6
		S322.2,796.3,321.8,796.3z"/>
	<path class="st2" d="M-7.1,863.5c0.7,0.3,1.2,0.6,1.6,1s0.8,0.9,1,1.4s0.4,1,0.6,1.4c0.1,0.5,0.2,0.9,0.2,1.3c0,0.4,0,0.6,0,0.8
		v0.2v9.9h-2.2v-9.9c0-0.5-0.1-0.9-0.2-1.3s-0.2-0.7-0.4-1c-0.2-0.3-0.4-0.5-0.6-0.7c-0.2-0.2-0.4-0.4-0.7-0.5
		c-0.5-0.3-1.1-0.5-1.8-0.5c-0.4,0-0.8,0.1-1.1,0.2c-0.3,0.1-0.6,0.3-0.9,0.5c-0.3,0.2-0.5,0.4-0.6,0.6s-0.3,0.5-0.4,0.7
		c-0.3,0.6-0.4,1.3-0.5,2v1.6c0.9-0.6,1.8-0.8,2.9-0.8c0.5,0,0.9,0.1,1.3,0.2v2.5c-0.2-0.1-0.4-0.2-0.6-0.2c-0.2,0-0.5,0-0.7,0
		c-0.7,0-1.3,0.2-1.8,0.5c-0.3,0.2-0.5,0.4-0.6,0.7c-0.2,0.3-0.3,0.6-0.4,0.9v4.5h-2.2v-10.1c0-1,0.1-1.8,0.4-2.5
		c0.2-0.7,0.5-1.3,0.9-1.7c0.4-0.5,0.8-0.8,1.2-1.1c0.4-0.3,0.9-0.5,1.3-0.6c0.4-0.1,0.8-0.2,1.1-0.2c0.3,0,0.6,0,0.7,0h0.1
		C-8.6,863.1-7.8,863.3-7.1,863.5z"/>
	<path class="st2" d="M-5.2,856.7v4.6h-2.1v-4.6H-5.2z"/>
	<path class="st2" d="M1.3,863.1c0.1,0,0.2,0,0.4,0c0.2,0,0.5,0.1,0.8,0.2c0.3,0.1,0.6,0.2,0.9,0.4c0.3,0.2,0.6,0.5,0.9,0.8
		c0.3,0.4,0.5,0.8,0.7,1.3c0.2,0.5,0.3,1.2,0.3,2v11.6H3v-11.6c0-0.4-0.1-0.8-0.2-1.2c-0.1-0.2-0.1-0.3-0.2-0.4
		c-0.1-0.1-0.2-0.3-0.3-0.4s-0.3-0.2-0.4-0.3c-0.2-0.1-0.4-0.1-0.6-0.1c-0.4,0-0.7,0-0.9,0.1c-0.3,0.1-0.5,0.2-0.6,0.3
		s-0.3,0.2-0.4,0.4s-0.2,0.2-0.2,0.2l-1.5-1.7c0.2-0.3,0.5-0.6,0.9-0.9c0.3-0.2,0.7-0.4,1.1-0.6C0.1,863.2,0.6,863.1,1.3,863.1z"/>
	<path class="st2" d="M18.5,863.2v10.9c0,0.9-0.1,1.7-0.4,2.3c-0.2,0.6-0.5,1.2-0.9,1.6s-0.8,0.7-1.2,1c-0.4,0.2-0.8,0.4-1.2,0.5
		c-0.4,0.1-0.7,0.2-1,0.2c-0.3,0-0.5,0-0.6,0c-0.9,0-1.6-0.1-2.2-0.4s-1.1-0.6-1.5-1s-0.7-0.8-0.9-1.3c-0.2-0.5-0.4-0.9-0.5-1.3
		c-0.1-0.4-0.2-0.8-0.2-1.1c0-0.3,0-0.5,0-0.6c0-0.5,0.1-1,0.2-1.4s0.3-0.8,0.5-1.2c0.2-0.3,0.4-0.7,0.7-0.9
		c0.3-0.3,0.5-0.6,0.7-0.8c0.2-0.3,0.4-0.5,0.6-0.7c0.2-0.2,0.3-0.5,0.3-0.7c0-0.1,0-0.1,0-0.2c0-0.1,0-0.1,0-0.2
		c0-0.4-0.1-0.7-0.2-0.9c-0.1-0.3-0.3-0.5-0.4-0.6c-0.2-0.2-0.4-0.3-0.6-0.4c-0.2-0.1-0.4-0.2-0.6-0.2s-0.4-0.1-0.6-0.1
		c-0.2,0-0.3,0-0.4,0H7.9v-2.3h1.3c0.6,0,1.1,0.1,1.5,0.3s0.8,0.4,1.1,0.7c0.3,0.3,0.5,0.6,0.7,1c0.2,0.4,0.3,0.7,0.4,1.1
		c0.1,0.3,0.1,0.7,0.2,1c0,0.3,0,0.5,0,0.7c0,0.1,0,0.1,0,0.1c0,0,0,0.1,0,0.1v0.1c0,0.3-0.1,0.6-0.2,0.9s-0.2,0.5-0.4,0.8
		c-0.1,0.3-0.3,0.5-0.5,0.8c-0.4,0.5-0.8,1-1,1.4c-0.2,0.4-0.4,0.8-0.5,1.1c-0.1,0.3-0.2,0.5-0.2,0.7c0,0.2,0,0.3,0,0.4
		c0,0.6,0.1,1,0.2,1.4c0.1,0.4,0.3,0.7,0.5,0.9s0.4,0.4,0.7,0.6c0.2,0.1,0.5,0.2,0.7,0.3s0.4,0.1,0.6,0.1c0.2,0,0.3,0,0.3,0
		c0.5,0,0.9-0.1,1.2-0.2c0.3-0.1,0.6-0.3,0.8-0.6c0.2-0.2,0.4-0.5,0.5-0.7s0.2-0.5,0.3-0.8c0.1-0.2,0.1-0.5,0.1-0.7
		c0-0.2,0-0.3,0-0.4v-10.9H18.5z"/>
	<path class="st2" d="M23.6,863.2v10.1c0,0.7,0.1,1.3,0.2,1.7c0.2,0.5,0.4,0.9,0.6,1.2c0.2,0.3,0.5,0.5,0.8,0.7
		c0.3,0.2,0.6,0.3,0.8,0.4c0.3,0.1,0.5,0.1,0.7,0.1c0.2,0,0.3,0,0.4,0c0.6,0,1.1-0.1,1.5-0.3c0.4-0.2,0.7-0.4,1-0.7
		c0.3-0.3,0.5-0.6,0.6-0.9s0.3-0.7,0.3-1c0.1-0.3,0.1-0.6,0.1-0.8s0-0.4,0-0.4v-10.1h2.2v16.2h-2.2v-2.3c0,0.3-0.1,0.6-0.2,0.8
		c-0.1,0.2-0.3,0.4-0.4,0.6s-0.4,0.3-0.6,0.4s-0.4,0.2-0.6,0.3c-0.5,0.2-1.1,0.3-1.7,0.4h-0.5c-0.8,0-1.6-0.1-2.1-0.4
		c-0.6-0.3-1.1-0.6-1.5-1c-0.4-0.4-0.7-0.8-0.9-1.3s-0.4-1-0.5-1.4s-0.2-0.9-0.2-1.2c0-0.4,0-0.7,0-0.8v-0.2v-10.1H23.6z"/>
	<path class="st2" d="M47.9,863c0,0.1,0,0.1-0.1,0.3c-0.1,0.1-0.2,0.3-0.3,0.4c-0.1,0.2-0.3,0.3-0.4,0.5c-0.2,0.2-0.3,0.3-0.5,0.5
		c-0.2,0.1-0.3,0.3-0.4,0.4c-0.1,0.1-0.2,0.2-0.3,0.2c0.3,0.4,0.5,0.8,0.7,1.3s0.3,0.9,0.4,1.3c0.1,0.4,0.1,0.7,0.2,1.1
		c0,0.3,0,0.5,0,0.7v0.2v9.9h-2.2v-4.8c0-0.5-0.1-0.9-0.3-1.2c-0.2-0.3-0.4-0.6-0.7-0.8c-0.3-0.2-0.6-0.4-0.9-0.5
		c-0.3-0.1-0.7-0.2-0.9-0.3c-0.3-0.1-0.6-0.1-1-0.1c0,0-0.1,0-0.3,0c-0.2,0-0.3,0-0.6,0.1c-0.2,0.1-0.5,0.1-0.7,0.2
		c-0.3,0.1-0.5,0.3-0.8,0.5s-0.5,0.5-0.6,0.8c-0.2,0.3-0.3,0.7-0.4,1.1c0,0.1,0,0.1,0,0.2s0,0.1,0,0.2c0,0.3,0.1,0.6,0.2,0.9
		c0.2,0.2,0.4,0.4,0.6,0.6c0.2,0.2,0.5,0.3,0.8,0.4c0.3,0.1,0.6,0.2,0.9,0.2s0.6,0.1,0.8,0.1c0.2,0,0.4,0,0.6,0h0.2v2.3h-2.5
		c-0.5,0-1-0.1-1.5-0.4c-0.5-0.2-0.9-0.6-1.2-1c-0.3-0.4-0.6-0.9-0.8-1.5s-0.3-1.1-0.3-1.7c0-0.6,0.1-1.2,0.4-1.8s0.7-1.2,1.2-1.8
		c0.3-0.3,0.7-0.6,1.1-0.9c0.4-0.2,0.7-0.4,1.1-0.6c0.4-0.1,0.7-0.2,1.1-0.3c0.4-0.1,0.7-0.1,1-0.1c0.5,0,1,0.1,1.4,0.2
		c0.5,0.1,0.8,0.2,1.2,0.3c0.4,0.2,0.7,0.3,1.1,0.5v-0.9c0-0.5-0.1-0.9-0.2-1.3c-0.1-0.4-0.2-0.7-0.4-1s-0.4-0.5-0.6-0.7
		c-0.2-0.2-0.4-0.4-0.7-0.5c-0.5-0.3-1.1-0.5-1.8-0.5c-0.6,0-1.1,0.1-1.5,0.3c-0.4,0.2-0.8,0.5-1,0.9c-0.3,0.3-0.5,0.7-0.6,1.1
		c-0.1,0.4-0.3,0.7-0.3,1h-2.3c0.1-0.9,0.2-1.7,0.5-2.3c0.3-0.6,0.6-1.1,1-1.6c0.4-0.4,0.8-0.7,1.2-1c0.4-0.2,0.9-0.4,1.3-0.5
		c0.4-0.1,0.8-0.2,1.1-0.2c0.3,0,0.5,0,0.7,0h0.2c0.7,0,1.4,0.1,2.1,0.3c0.4-0.1,0.8-0.2,1.1-0.4c0.3-0.2,0.6-0.4,0.9-0.6
		s0.6-0.7,0.8-1.1l0.7,0.8c0.1,0.1,0.2,0.2,0.3,0.3c0.1,0.1,0.2,0.2,0.3,0.3c0.1,0.1,0.1,0.2,0.2,0.2S47.9,863,47.9,863z"/>
	<path class="st2" d="M45.4,856.7v4.6h-2.1v-4.6H45.4z"/>
	<path class="st2" d="M51.7,863.2h4.3v11.7c0,0.8-0.1,1.4-0.3,2s-0.4,1-0.7,1.3c-0.3,0.4-0.6,0.6-0.9,0.8c-0.3,0.2-0.6,0.3-0.9,0.4
		s-0.6,0.1-0.8,0.2c-0.2,0-0.4,0-0.4,0c-0.6,0-1.2-0.1-1.6-0.3s-0.8-0.4-1.1-0.6c-0.4-0.3-0.7-0.6-0.9-0.9l1.5-1.6
		c0,0.1,0.1,0.1,0.2,0.3c0.1,0.1,0.2,0.2,0.4,0.4c0.2,0.1,0.4,0.2,0.6,0.3c0.3,0.1,0.6,0.1,0.9,0.1c0.2,0,0.4,0,0.6-0.1
		c0.2-0.1,0.3-0.2,0.4-0.3c0.1-0.1,0.2-0.3,0.3-0.4c0.1-0.2,0.2-0.3,0.2-0.5c0.1-0.4,0.2-0.8,0.2-1.3v-9.4h-2.1V863.2z"/>
	<path class="st2" d="M59.5,877.5h2l-1.5,6.1h-2L59.5,877.5z"/>
	<path class="st2" d="M83.1,863.2v10.7c-0.1,1.1-0.4,2.1-0.8,2.9c-0.2,0.4-0.4,0.7-0.7,1.1c-0.3,0.3-0.6,0.7-1,0.9
		c-0.4,0.3-0.9,0.5-1.4,0.7c-0.5,0.2-1.2,0.2-1.9,0.2c-0.7,0-1.3-0.1-1.9-0.2c-0.5-0.2-1-0.4-1.4-0.7c-0.4-0.3-0.8-0.6-1-0.9
		c-0.3-0.3-0.5-0.7-0.7-1.1c-0.4-0.8-0.7-1.8-0.8-2.9v-10.7h2.2v10.7c0,0.4,0.1,0.8,0.2,1.2s0.2,0.6,0.4,0.9
		c0.2,0.2,0.4,0.5,0.6,0.6c0.2,0.2,0.4,0.3,0.7,0.4c0.5,0.3,1.1,0.4,1.8,0.4c0.7,0,1.3-0.2,1.8-0.4c0.2-0.1,0.4-0.3,0.7-0.4
		c0.2-0.2,0.4-0.4,0.6-0.6c0.2-0.2,0.3-0.5,0.4-0.9s0.2-0.7,0.2-1.2v-10.7H83.1z"/>
	<path class="st2" d="M94.5,867.4l-0.9-0.7c-0.2-0.2-0.5-0.3-0.8-0.5s-0.6-0.3-0.9-0.4c-0.3-0.1-0.6-0.2-0.8-0.3s-0.5-0.1-0.6-0.1
		c-0.4,0-0.7,0-1,0.1s-0.6,0.2-0.8,0.4s-0.4,0.4-0.6,0.7c-0.1,0.3-0.2,0.7-0.2,1.2s0.1,0.9,0.4,1.2s0.6,0.5,1,0.7
		c0.4,0.2,0.8,0.3,1.3,0.4c0.5,0.1,1,0.2,1.5,0.3c0.5,0.1,1,0.3,1.4,0.5c0.5,0.3,0.9,0.6,1.2,1c0.3,0.4,0.6,0.8,0.8,1.3
		c0.2,0.5,0.3,1,0.3,1.6c0,0.8-0.1,1.6-0.4,2.2s-0.7,1.1-1.1,1.5c-0.5,0.4-1,0.7-1.7,0.9c-0.6,0.2-1.3,0.3-2.1,0.3
		c-1,0-1.9-0.1-2.6-0.4s-1.3-0.5-1.8-0.8c-0.5-0.3-1-0.7-1.4-1.2l1.5-1.6c0.2,0.2,0.4,0.4,0.7,0.6c0.3,0.2,0.6,0.4,1,0.5
		c0.4,0.2,0.8,0.3,1.2,0.4c0.4,0.1,0.9,0.2,1.3,0.2c0.5,0,0.9-0.1,1.3-0.2c0.4-0.1,0.7-0.3,1-0.5c0.3-0.2,0.5-0.5,0.6-0.8
		c0.1-0.3,0.2-0.7,0.2-1c0-0.4-0.1-0.7-0.2-1s-0.3-0.4-0.4-0.6s-0.3-0.2-0.5-0.3s-0.3-0.1-0.4-0.1c0,0-0.2,0-0.5-0.1
		c-0.3,0-0.6-0.1-0.9-0.2s-0.7-0.1-1-0.2c-0.3-0.1-0.6-0.1-0.8-0.2c-0.1,0-0.3-0.1-0.5-0.1s-0.4-0.2-0.7-0.3
		c-0.2-0.1-0.5-0.3-0.8-0.5s-0.5-0.5-0.7-0.8c-0.2-0.3-0.4-0.7-0.5-1.1c-0.1-0.4-0.2-1-0.2-1.5c0-0.9,0.1-1.6,0.4-2.2
		s0.7-1.1,1.1-1.5c0.5-0.4,1-0.7,1.6-0.8c0.6-0.2,1.2-0.3,1.8-0.3c0.6,0,1.2,0.1,1.7,0.2c0.5,0.2,0.9,0.3,1.3,0.5
		c0.4,0.2,0.8,0.4,1.2,0.7l1.1,0.8L94.5,867.4z"/>
	<path class="st2" d="M94.3,859v2.3H86V859H94.3z"/>
	<path class="st2" d="M97.9,879.5V867c0.3-0.6,0.6-1.1,1-1.6s0.7-0.8,1.1-1.1c0.4-0.3,0.8-0.5,1.1-0.7c0.4-0.2,0.7-0.3,1-0.4
		s0.6-0.1,0.8-0.2s0.4,0,0.5,0h0.1c0.7,0,1.4,0.1,1.9,0.3s1,0.4,1.4,0.7c0.4,0.3,0.8,0.6,1,0.9c0.3,0.4,0.5,0.7,0.7,1.1
		s0.3,0.7,0.4,1.1s0.2,0.7,0.2,1c0.1,0.3,0.1,0.5,0.1,0.8c0,0.2,0,0.3,0,0.4v10.1h-2.2v-10.1c0-0.6-0.1-1.2-0.2-1.6
		c-0.2-0.4-0.4-0.8-0.6-1.1c-0.3-0.3-0.5-0.5-0.8-0.7c-0.3-0.2-0.6-0.3-0.9-0.3c-0.3-0.1-0.5-0.1-0.7-0.1c-0.2,0-0.3,0-0.4,0
		c-0.5,0-0.9,0.1-1.2,0.2c-0.3,0.1-0.6,0.3-0.9,0.4c-0.3,0.2-0.5,0.4-0.6,0.6c-0.2,0.2-0.3,0.5-0.4,0.7c-0.3,0.6-0.4,1.2-0.4,1.9
		v10.1H97.9z"/>
	<path class="st2" d="M114.5,863.1c0.1,0,0.2,0,0.4,0c0.2,0,0.5,0.1,0.8,0.2c0.3,0.1,0.6,0.2,0.9,0.4c0.3,0.2,0.6,0.5,0.9,0.8
		c0.3,0.4,0.5,0.8,0.7,1.3c0.2,0.5,0.3,1.2,0.3,2v11.6h-2.2v-11.6c0-0.4-0.1-0.8-0.2-1.2c-0.1-0.2-0.1-0.3-0.2-0.4
		c-0.1-0.1-0.2-0.3-0.3-0.4c-0.1-0.1-0.3-0.2-0.4-0.3s-0.4-0.1-0.6-0.1c-0.4,0-0.7,0-0.9,0.1c-0.3,0.1-0.5,0.2-0.6,0.3
		c-0.2,0.1-0.3,0.2-0.4,0.4c-0.1,0.1-0.2,0.2-0.2,0.2l-1.5-1.7c0.2-0.3,0.5-0.6,0.9-0.9c0.3-0.2,0.7-0.4,1.1-0.6
		C113.3,863.2,113.9,863.1,114.5,863.1z"/>
	<path class="st2" d="M129.9,867.4l-0.9-0.7c-0.2-0.2-0.5-0.3-0.8-0.5c-0.3-0.1-0.6-0.3-0.9-0.4c-0.3-0.1-0.6-0.2-0.8-0.3
		s-0.5-0.1-0.6-0.1c-0.4,0-0.7,0-1,0.1s-0.6,0.2-0.8,0.4c-0.2,0.2-0.4,0.4-0.6,0.7c-0.1,0.3-0.2,0.7-0.2,1.2s0.1,0.9,0.4,1.2
		c0.2,0.3,0.6,0.5,1,0.7c0.4,0.2,0.8,0.3,1.3,0.4c0.5,0.1,1,0.2,1.5,0.3c0.5,0.1,1,0.3,1.4,0.5c0.5,0.3,0.9,0.6,1.2,1
		c0.3,0.4,0.6,0.8,0.8,1.3c0.2,0.5,0.3,1,0.3,1.6c0,0.8-0.1,1.6-0.4,2.2s-0.7,1.1-1.1,1.5c-0.5,0.4-1,0.7-1.7,0.9
		c-0.6,0.2-1.3,0.3-2.1,0.3c-1,0-1.9-0.1-2.6-0.4c-0.7-0.2-1.3-0.5-1.8-0.8c-0.5-0.3-1-0.7-1.4-1.2l1.5-1.6c0.2,0.2,0.4,0.4,0.7,0.6
		c0.3,0.2,0.6,0.4,1,0.5c0.4,0.2,0.8,0.3,1.2,0.4c0.4,0.1,0.9,0.2,1.3,0.2c0.5,0,0.9-0.1,1.3-0.2c0.4-0.1,0.7-0.3,1-0.5
		c0.3-0.2,0.5-0.5,0.6-0.8c0.1-0.3,0.2-0.7,0.2-1c0-0.4-0.1-0.7-0.2-1s-0.3-0.4-0.4-0.6c-0.2-0.1-0.3-0.2-0.5-0.3s-0.3-0.1-0.4-0.1
		c0,0-0.2,0-0.5-0.1c-0.3,0-0.6-0.1-0.9-0.2s-0.7-0.1-1-0.2c-0.3-0.1-0.6-0.1-0.8-0.2c-0.1,0-0.3-0.1-0.5-0.1s-0.4-0.2-0.7-0.3
		c-0.2-0.1-0.5-0.3-0.8-0.5c-0.3-0.2-0.5-0.5-0.7-0.8c-0.2-0.3-0.4-0.7-0.5-1.1c-0.1-0.4-0.2-1-0.2-1.5c0-0.9,0.1-1.6,0.4-2.2
		s0.7-1.1,1.1-1.5s1-0.7,1.6-0.8c0.6-0.2,1.2-0.3,1.8-0.3c0.6,0,1.2,0.1,1.7,0.2c0.5,0.2,0.9,0.3,1.3,0.5c0.4,0.2,0.8,0.4,1.2,0.7
		l1.1,0.8L129.9,867.4z"/>
	<path class="st2" d="M138.9,863.2c0.3,0,0.7,0.1,1.1,0.2c0.4,0.1,0.9,0.3,1.3,0.6c0.5,0.3,0.9,0.6,1.2,1.1c0.4,0.5,0.7,1.1,0.9,1.8
		s0.4,1.6,0.4,2.5v10.1h-2.2V875c-0.1-0.3-0.2-0.6-0.4-0.9s-0.4-0.5-0.7-0.7c-0.3-0.2-0.5-0.3-0.8-0.4c-0.3-0.1-0.6-0.1-1-0.1
		c-0.3,0-0.5,0-0.7,0c-0.2,0-0.4,0.1-0.6,0.2v-2.5c0.4-0.1,0.8-0.2,1.3-0.2c1,0,2,0.3,2.9,0.8v-1.6c-0.1-0.7-0.2-1.4-0.5-2
		c-0.1-0.3-0.3-0.5-0.4-0.7c-0.2-0.2-0.4-0.5-0.6-0.6s-0.5-0.3-0.9-0.5c-0.3-0.1-0.7-0.2-1.1-0.2c-0.7,0-1.3,0.2-1.8,0.5
		c-0.2,0.1-0.4,0.3-0.7,0.5c-0.2,0.2-0.4,0.4-0.6,0.7s-0.3,0.6-0.4,1s-0.2,0.8-0.2,1.3h-2.2v-0.2c0-0.2,0-0.4,0-0.8
		c0-0.4,0.1-0.8,0.2-1.3c0.1-0.5,0.3-1,0.6-1.5c0.2-0.5,0.6-1,1-1.4c0.4-0.4,1-0.7,1.6-1c0.6-0.3,1.4-0.4,2.4-0.4h0.1
		C138.3,863.1,138.6,863.2,138.9,863.2z"/>
	<path class="st2" d="M139.3,857.8v1.2h5.6v2.3h-6.7c-0.2,0-0.4-0.1-0.6-0.2c-0.1-0.1-0.2-0.2-0.3-0.4c-0.1-0.2-0.1-0.3-0.1-0.5
		v-2.4H139.3z"/>
	<path class="st2" d="M156.1,879.5v-10.2c0-0.7-0.2-1.3-0.5-1.8c-0.1-0.2-0.3-0.5-0.5-0.7s-0.4-0.4-0.7-0.6s-0.6-0.3-0.9-0.4
		c-0.4-0.1-0.8-0.2-1.2-0.2s-0.9,0.1-1.2,0.2c-0.4,0.1-0.7,0.2-0.9,0.4c-0.3,0.2-0.5,0.4-0.7,0.6s-0.3,0.4-0.5,0.7
		c-0.3,0.5-0.5,1.2-0.5,1.8v5.3c0,0.3,0.1,0.7,0.2,1c0.1,0.3,0.2,0.5,0.3,0.8c0.1,0.3,0.3,0.5,0.6,0.7c0.3,0.2,0.6,0.3,0.9,0.3
		c0.3,0,0.5-0.1,0.7-0.2c0.2-0.1,0.4-0.3,0.5-0.4l1.4,1.6c-0.2,0.2-0.5,0.5-0.8,0.6c-0.2,0.2-0.5,0.3-0.9,0.4
		c-0.3,0.1-0.7,0.2-1.1,0.2c-0.1,0-0.3,0-0.4,0c-0.1,0-0.3,0-0.4-0.1c-0.5-0.1-1-0.4-1.4-0.7c-0.4-0.3-0.8-0.7-1.1-1.2
		c-0.3-0.4-0.5-0.9-0.6-1.5s-0.2-1.1-0.2-1.7v-5.3c0.1-1,0.3-1.8,0.5-2.5c0.3-0.7,0.6-1.2,1-1.7c0.4-0.4,0.8-0.8,1.2-1.1
		c0.4-0.3,0.9-0.5,1.3-0.6s0.8-0.2,1.1-0.2s0.6-0.1,0.7-0.1h0.2h0.2c0.2,0,0.4,0,0.7,0.1s0.7,0.1,1.1,0.2s0.8,0.3,1.3,0.6
		c0.4,0.3,0.9,0.6,1.2,1.1c0.4,0.4,0.7,1,1,1.7c0.3,0.7,0.5,1.5,0.6,2.5v10.2H156.1z"/>
	<path class="st2" d="M173.2,863c0,0.1,0,0.1-0.1,0.3c-0.1,0.1-0.2,0.3-0.3,0.4c-0.1,0.2-0.3,0.3-0.4,0.5c-0.2,0.2-0.3,0.3-0.5,0.5
		c-0.2,0.1-0.3,0.3-0.4,0.4c-0.1,0.1-0.2,0.2-0.3,0.2c0.3,0.4,0.5,0.8,0.7,1.3c0.2,0.4,0.3,0.9,0.4,1.3c0.1,0.4,0.1,0.7,0.2,1.1
		c0,0.3,0,0.5,0,0.7v0.2v9.9h-2.2v-4.8c0-0.5-0.1-0.9-0.3-1.2c-0.2-0.3-0.4-0.6-0.7-0.8c-0.3-0.2-0.6-0.4-0.9-0.5s-0.7-0.2-0.9-0.3
		c-0.3-0.1-0.6-0.1-1-0.1c0,0-0.1,0-0.3,0c-0.2,0-0.3,0-0.6,0.1c-0.2,0.1-0.5,0.1-0.7,0.2c-0.3,0.1-0.5,0.3-0.8,0.5
		s-0.5,0.5-0.6,0.8c-0.2,0.3-0.3,0.7-0.4,1.1c0,0.1,0,0.1,0,0.2s0,0.1,0,0.2c0,0.3,0.1,0.6,0.2,0.9s0.4,0.4,0.6,0.6
		c0.2,0.2,0.5,0.3,0.8,0.4c0.3,0.1,0.6,0.2,0.9,0.2c0.3,0.1,0.6,0.1,0.8,0.1c0.2,0,0.4,0,0.6,0h0.2v2.3h-2.5c-0.5,0-1-0.1-1.5-0.4
		c-0.5-0.2-0.9-0.6-1.2-1s-0.6-0.9-0.8-1.5c-0.2-0.5-0.3-1.1-0.3-1.7c0-0.6,0.1-1.2,0.4-1.8c0.3-0.6,0.7-1.2,1.2-1.8
		c0.3-0.3,0.7-0.6,1.1-0.9c0.4-0.2,0.7-0.4,1.1-0.6c0.4-0.1,0.7-0.2,1.1-0.3s0.7-0.1,1-0.1c0.5,0,1,0.1,1.4,0.2
		c0.4,0.1,0.8,0.2,1.2,0.3c0.4,0.2,0.7,0.3,1.1,0.5v-0.9c0-0.5-0.1-0.9-0.2-1.3c-0.1-0.4-0.2-0.7-0.4-1c-0.2-0.3-0.4-0.5-0.6-0.7
		c-0.2-0.2-0.4-0.4-0.7-0.5c-0.5-0.3-1.1-0.5-1.8-0.5c-0.6,0-1.1,0.1-1.5,0.3c-0.4,0.2-0.8,0.5-1,0.9c-0.3,0.3-0.5,0.7-0.6,1.1
		c-0.1,0.4-0.3,0.7-0.3,1h-2.3c0.1-0.9,0.2-1.7,0.5-2.3s0.6-1.1,1-1.6c0.4-0.4,0.8-0.7,1.2-1c0.4-0.2,0.9-0.4,1.3-0.5
		c0.4-0.1,0.8-0.2,1.1-0.2c0.3,0,0.5,0,0.7,0h0.2c0.7,0,1.4,0.1,2.1,0.3c0.4-0.1,0.8-0.2,1.1-0.4c0.3-0.2,0.6-0.4,0.9-0.6
		c0.3-0.3,0.6-0.7,0.8-1.1l0.7,0.8c0.1,0.1,0.2,0.2,0.3,0.3s0.2,0.2,0.3,0.3c0.1,0.1,0.1,0.2,0.2,0.2C173.2,863,173.2,863,173.2,863
		z"/>
	<path class="st2" d="M170.8,856.7v4.6h-2.1v-4.6H170.8z"/>
	<path class="st2" d="M177.1,863.2h4.3v11.7c0,0.8-0.1,1.4-0.3,2c-0.2,0.5-0.4,1-0.7,1.3c-0.3,0.4-0.6,0.6-0.9,0.8
		c-0.3,0.2-0.6,0.3-0.9,0.4s-0.6,0.1-0.8,0.2c-0.2,0-0.4,0-0.4,0c-0.6,0-1.2-0.1-1.6-0.3c-0.5-0.2-0.8-0.4-1.1-0.6
		c-0.4-0.3-0.7-0.6-0.9-0.9l1.5-1.6c0,0.1,0.1,0.1,0.2,0.3s0.2,0.2,0.4,0.4c0.2,0.1,0.4,0.2,0.6,0.3c0.3,0.1,0.6,0.1,0.9,0.1
		c0.2,0,0.4,0,0.6-0.1c0.2-0.1,0.3-0.2,0.4-0.3c0.1-0.1,0.2-0.3,0.3-0.4c0.1-0.2,0.2-0.3,0.2-0.5c0.1-0.4,0.2-0.8,0.2-1.3v-9.4h-2.1
		V863.2z"/>
	<path class="st2" d="M191.8,863.4c0.5,0.2,1,0.4,1.4,0.7c0.4,0.3,0.8,0.6,1,0.9c0.3,0.4,0.5,0.7,0.7,1.1c0.2,0.4,0.3,0.7,0.4,1.1
		s0.2,0.7,0.2,1s0.1,0.5,0.1,0.8c0,0.2,0,0.3,0,0.4v10.1h-2.2v-10.1c0-0.6-0.1-1.2-0.2-1.6c-0.2-0.4-0.4-0.8-0.6-1.1
		c-0.3-0.3-0.5-0.5-0.8-0.7s-0.6-0.3-0.9-0.3c-0.3-0.1-0.5-0.1-0.7-0.1c-0.2,0-0.3,0-0.4,0c-0.5,0-0.9,0.1-1.2,0.2
		c-0.3,0.1-0.6,0.3-0.9,0.4c-0.3,0.2-0.5,0.4-0.6,0.6c-0.2,0.2-0.3,0.5-0.4,0.7c-0.3,0.6-0.4,1.2-0.4,1.9v7.8h1.4v2.3H184V867
		c0.3-0.6,0.6-1.1,1-1.6s0.7-0.8,1.1-1.1c0.4-0.3,0.8-0.5,1.1-0.7c0.4-0.2,0.7-0.3,1-0.4c0.3-0.1,0.6-0.1,0.8-0.2s0.4,0,0.5,0h0.1
		C190.6,863.2,191.2,863.3,191.8,863.4z"/>
	<path class="st2" d="M192.7,855.6c0.4,0,0.7,0.1,1,0.2s0.6,0.4,0.8,0.6c0.2,0.3,0.4,0.6,0.6,0.9c0.1,0.3,0.2,0.7,0.2,1.1
		c0,0.4-0.1,0.8-0.2,1.1c-0.1,0.3-0.3,0.7-0.6,0.9c-0.2,0.3-0.5,0.5-0.8,0.6c-0.3,0.1-0.6,0.2-1,0.2H184V859h6.1c0-0.1,0-0.2,0-0.3
		s0-0.2,0-0.3c0-0.4,0.1-0.7,0.2-1.1c0.1-0.3,0.3-0.6,0.6-0.9c0.2-0.3,0.5-0.5,0.8-0.6C192,855.7,192.3,855.6,192.7,855.6z
		 M192.7,859.4c0.2,0,0.4-0.1,0.6-0.3s0.3-0.4,0.3-0.7s-0.1-0.5-0.3-0.7s-0.4-0.3-0.6-0.3s-0.4,0.1-0.6,0.3
		c-0.2,0.2-0.3,0.4-0.3,0.7s0.1,0.5,0.3,0.7C192.2,859.3,192.4,859.4,192.7,859.4z"/>
	<path class="st2" d="M200.4,863.2h4.3v11.7c0,0.8-0.1,1.4-0.3,2c-0.2,0.5-0.4,1-0.7,1.3c-0.3,0.4-0.6,0.6-0.9,0.8
		c-0.3,0.2-0.6,0.3-0.9,0.4c-0.3,0.1-0.6,0.1-0.8,0.2c-0.2,0-0.4,0-0.4,0c-0.6,0-1.2-0.1-1.6-0.3c-0.5-0.2-0.8-0.4-1.1-0.6
		c-0.4-0.3-0.7-0.6-0.9-0.9l1.5-1.6c0,0.1,0.1,0.1,0.2,0.3c0.1,0.1,0.2,0.2,0.4,0.4s0.4,0.2,0.6,0.3c0.3,0.1,0.6,0.1,0.9,0.1
		c0.2,0,0.4,0,0.6-0.1c0.2-0.1,0.3-0.2,0.4-0.3c0.1-0.1,0.2-0.3,0.3-0.4c0.1-0.2,0.2-0.3,0.2-0.5c0.1-0.4,0.2-0.8,0.2-1.3v-9.4h-2.1
		V863.2z"/>
	<path class="st2" d="M219,863.2v10.7c-0.1,1.1-0.4,2.1-0.8,2.9c-0.2,0.4-0.4,0.7-0.7,1.1c-0.3,0.3-0.6,0.7-1,0.9
		c-0.4,0.3-0.9,0.5-1.4,0.7c-0.5,0.2-1.2,0.2-1.9,0.2c-0.7,0-1.3-0.1-1.9-0.2c-0.5-0.2-1-0.4-1.4-0.7c-0.4-0.3-0.8-0.6-1-0.9
		c-0.3-0.3-0.5-0.7-0.7-1.1c-0.4-0.8-0.7-1.8-0.8-2.9v-10.7h2.2v10.7c0,0.4,0.1,0.8,0.2,1.2s0.2,0.6,0.4,0.9
		c0.2,0.2,0.4,0.5,0.6,0.6s0.4,0.3,0.7,0.4c0.5,0.3,1.1,0.4,1.8,0.4c0.7,0,1.3-0.2,1.8-0.4c0.2-0.1,0.4-0.3,0.7-0.4
		c0.2-0.2,0.4-0.4,0.6-0.6s0.3-0.5,0.4-0.9c0.1-0.3,0.2-0.7,0.2-1.2v-10.7H219z"/>
	<path class="st2" d="M219.1,859.1v2.3h-6.2v-3h-1.1V856h2.2c0.2,0,0.3,0.1,0.5,0.2c0.1,0.1,0.2,0.2,0.3,0.3
		c0.1,0.1,0.2,0.3,0.2,0.6v2H219.1z"/>
	<path class="st2" d="M224.1,863.1c0.1,0,0.2,0,0.4,0c0.2,0,0.5,0.1,0.8,0.2c0.3,0.1,0.6,0.2,0.9,0.4c0.3,0.2,0.6,0.5,0.9,0.8
		c0.3,0.4,0.5,0.8,0.7,1.3s0.3,1.2,0.3,2v11.6h-2.2v-11.6c0-0.4-0.1-0.8-0.2-1.2c-0.1-0.2-0.1-0.3-0.2-0.4c-0.1-0.1-0.2-0.3-0.3-0.4
		c-0.1-0.1-0.3-0.2-0.4-0.3s-0.4-0.1-0.6-0.1c-0.4,0-0.7,0-0.9,0.1c-0.3,0.1-0.5,0.2-0.6,0.3s-0.3,0.2-0.4,0.4
		c-0.1,0.1-0.2,0.2-0.2,0.2l-1.5-1.7c0.2-0.3,0.5-0.6,0.9-0.9c0.3-0.2,0.7-0.4,1.1-0.6C222.9,863.2,223.4,863.1,224.1,863.1z"/>
	<path class="st2" d="M233.3,863.2v10.1c0,0.7,0.1,1.3,0.2,1.7c0.2,0.5,0.4,0.9,0.6,1.2c0.2,0.3,0.5,0.5,0.8,0.7
		c0.3,0.2,0.6,0.3,0.8,0.4c0.3,0.1,0.5,0.1,0.7,0.1c0.2,0,0.3,0,0.4,0c0.6,0,1.1-0.1,1.5-0.3s0.7-0.4,1-0.7c0.3-0.3,0.5-0.6,0.6-0.9
		c0.1-0.3,0.3-0.7,0.3-1s0.1-0.6,0.1-0.8c0-0.2,0-0.4,0-0.4v-10.1h2.2v16.2h-2.2v-2.3c0,0.3-0.1,0.6-0.2,0.8
		c-0.1,0.2-0.3,0.4-0.4,0.6s-0.4,0.3-0.6,0.4c-0.2,0.1-0.4,0.2-0.6,0.3c-0.5,0.2-1.1,0.3-1.7,0.4h-0.5c-0.8,0-1.6-0.1-2.1-0.4
		c-0.6-0.3-1.1-0.6-1.5-1c-0.4-0.4-0.7-0.8-0.9-1.3s-0.4-1-0.5-1.4c-0.1-0.5-0.2-0.9-0.2-1.2s0-0.7,0-0.8v-0.2v-10.1H233.3z"/>
	<path class="st2" d="M246.4,877.5h2l-1.5,6.1h-2L246.4,877.5z"/>
	<path class="st2" d="M258.5,879.5V867c0.3-0.6,0.6-1.1,1-1.6c0.4-0.4,0.7-0.8,1.1-1.1c0.4-0.3,0.8-0.5,1.1-0.7
		c0.4-0.2,0.7-0.3,1-0.4c0.3-0.1,0.6-0.1,0.8-0.2s0.4,0,0.5,0h0.1c0.7,0,1.4,0.1,1.9,0.3c0.5,0.2,1,0.4,1.4,0.7
		c0.4,0.3,0.8,0.6,1,0.9c0.3,0.4,0.5,0.7,0.7,1.1s0.3,0.7,0.4,1.1c0.1,0.4,0.2,0.7,0.2,1c0.1,0.3,0.1,0.5,0.1,0.8s0,0.3,0,0.4v10.1
		h-2.2v-10.1c0-0.6-0.1-1.2-0.2-1.6c-0.2-0.4-0.4-0.8-0.6-1.1c-0.3-0.3-0.5-0.5-0.8-0.7c-0.3-0.2-0.6-0.3-0.9-0.3
		c-0.3-0.1-0.5-0.1-0.7-0.1c-0.2,0-0.3,0-0.4,0c-0.5,0-0.9,0.1-1.2,0.2c-0.3,0.1-0.6,0.3-0.9,0.4c-0.3,0.2-0.5,0.4-0.6,0.6
		c-0.2,0.2-0.3,0.5-0.4,0.7c-0.3,0.6-0.4,1.2-0.4,1.9v10.1H258.5z"/>
	<path class="st2" d="M275.1,863.1c0.1,0,0.2,0,0.4,0c0.2,0,0.5,0.1,0.8,0.2c0.3,0.1,0.6,0.2,0.9,0.4c0.3,0.2,0.6,0.5,0.9,0.8
		c0.3,0.4,0.5,0.8,0.7,1.3c0.2,0.5,0.3,1.2,0.3,2v11.6h-2.2v-11.6c0-0.4-0.1-0.8-0.2-1.2c-0.1-0.2-0.1-0.3-0.2-0.4
		c-0.1-0.1-0.2-0.3-0.3-0.4c-0.1-0.1-0.3-0.2-0.4-0.3c-0.2-0.1-0.4-0.1-0.6-0.1c-0.4,0-0.7,0-0.9,0.1c-0.3,0.1-0.5,0.2-0.6,0.3
		s-0.3,0.2-0.4,0.4s-0.2,0.2-0.2,0.2l-1.5-1.7c0.2-0.3,0.5-0.6,0.9-0.9c0.3-0.2,0.7-0.4,1.1-0.6S274.5,863.1,275.1,863.1z"/>
	<path class="st2" d="M290.5,867.4l-0.9-0.7c-0.2-0.2-0.5-0.3-0.8-0.5c-0.3-0.1-0.6-0.3-0.9-0.4c-0.3-0.1-0.6-0.2-0.8-0.3
		s-0.5-0.1-0.6-0.1c-0.4,0-0.7,0-1,0.1s-0.6,0.2-0.8,0.4s-0.4,0.4-0.6,0.7c-0.1,0.3-0.2,0.7-0.2,1.2s0.1,0.9,0.4,1.2s0.6,0.5,1,0.7
		c0.4,0.2,0.8,0.3,1.3,0.4c0.5,0.1,1,0.2,1.5,0.3c0.5,0.1,1,0.3,1.4,0.5c0.5,0.3,0.9,0.6,1.2,1c0.3,0.4,0.6,0.8,0.8,1.3
		c0.2,0.5,0.3,1,0.3,1.6c0,0.8-0.1,1.6-0.4,2.2s-0.7,1.1-1.1,1.5c-0.5,0.4-1,0.7-1.7,0.9c-0.6,0.2-1.3,0.3-2.1,0.3
		c-1,0-1.9-0.1-2.6-0.4s-1.3-0.5-1.8-0.8c-0.5-0.3-1-0.7-1.4-1.2l1.5-1.6c0.2,0.2,0.4,0.4,0.7,0.6c0.3,0.2,0.6,0.4,1,0.5
		c0.4,0.2,0.8,0.3,1.2,0.4c0.4,0.1,0.9,0.2,1.3,0.2c0.5,0,0.9-0.1,1.3-0.2c0.4-0.1,0.7-0.3,1-0.5c0.3-0.2,0.5-0.5,0.6-0.8
		c0.1-0.3,0.2-0.7,0.2-1c0-0.4-0.1-0.7-0.2-1s-0.3-0.4-0.4-0.6s-0.3-0.2-0.5-0.3s-0.3-0.1-0.4-0.1c0,0-0.2,0-0.5-0.1
		c-0.3,0-0.6-0.1-0.9-0.2c-0.3-0.1-0.7-0.1-1-0.2c-0.3-0.1-0.6-0.1-0.8-0.2c-0.1,0-0.3-0.1-0.5-0.1s-0.4-0.2-0.7-0.3
		c-0.2-0.1-0.5-0.3-0.8-0.5s-0.5-0.5-0.7-0.8c-0.2-0.3-0.4-0.7-0.5-1.1c-0.1-0.4-0.2-1-0.2-1.5c0-0.9,0.1-1.6,0.4-2.2
		s0.7-1.1,1.1-1.5c0.5-0.4,1-0.7,1.6-0.8c0.6-0.2,1.2-0.3,1.8-0.3c0.6,0,1.2,0.1,1.7,0.2c0.5,0.2,0.9,0.3,1.3,0.5
		c0.4,0.2,0.8,0.4,1.2,0.7l1.1,0.8L290.5,867.4z"/>
	<path class="st2" d="M299.5,863.2c0.3,0,0.7,0.1,1.1,0.2c0.4,0.1,0.9,0.3,1.3,0.6s0.9,0.6,1.2,1.1c0.4,0.5,0.7,1.1,0.9,1.8
		s0.4,1.6,0.4,2.5v10.1h-2.2V875c-0.1-0.3-0.2-0.6-0.4-0.9s-0.4-0.5-0.7-0.7c-0.3-0.2-0.5-0.3-0.8-0.4c-0.3-0.1-0.6-0.1-1-0.1
		c-0.3,0-0.5,0-0.7,0c-0.2,0-0.4,0.1-0.6,0.2v-2.5c0.4-0.1,0.8-0.2,1.3-0.2c1,0,2,0.3,2.9,0.8v-1.6c-0.1-0.7-0.2-1.4-0.5-2
		c-0.1-0.3-0.3-0.5-0.4-0.7c-0.2-0.2-0.4-0.5-0.6-0.6c-0.3-0.2-0.5-0.3-0.9-0.5c-0.3-0.1-0.7-0.2-1.1-0.2c-0.7,0-1.3,0.2-1.8,0.5
		c-0.2,0.1-0.4,0.3-0.7,0.5c-0.2,0.2-0.4,0.4-0.6,0.7c-0.2,0.3-0.3,0.6-0.4,1c-0.1,0.4-0.2,0.8-0.2,1.3h-2.2v-0.2c0-0.2,0-0.4,0-0.8
		c0-0.4,0.1-0.8,0.2-1.3c0.1-0.5,0.3-1,0.6-1.5c0.2-0.5,0.6-1,1-1.4c0.4-0.4,1-0.7,1.6-1c0.6-0.3,1.4-0.4,2.4-0.4h0.1
		C298.9,863.1,299.2,863.2,299.5,863.2z"/>
	<path class="st2" d="M302.9,856.7v4.6h-2.1v-4.6H302.9z"/>
	<path class="st2" d="M309.4,863.1c0.1,0,0.2,0,0.4,0c0.2,0,0.5,0.1,0.8,0.2c0.3,0.1,0.6,0.2,0.9,0.4c0.3,0.2,0.6,0.5,0.9,0.8
		c0.3,0.4,0.5,0.8,0.7,1.3s0.3,1.2,0.3,2v11.6h-2.2v-11.6c0-0.4-0.1-0.8-0.2-1.2c-0.1-0.2-0.1-0.3-0.2-0.4c-0.1-0.1-0.2-0.3-0.3-0.4
		c-0.1-0.1-0.3-0.2-0.4-0.3s-0.4-0.1-0.6-0.1c-0.4,0-0.7,0-0.9,0.1c-0.3,0.1-0.5,0.2-0.6,0.3s-0.3,0.2-0.4,0.4
		c-0.1,0.1-0.2,0.2-0.2,0.2l-1.5-1.7c0.2-0.3,0.5-0.6,0.9-0.9c0.3-0.2,0.7-0.4,1.1-0.6C308.2,863.2,308.7,863.1,309.4,863.1z"/>
	<path class="st2" d="M327.7,863.2v11.7c0,0.7-0.1,1.3-0.3,1.8s-0.4,0.9-0.7,1.2c-0.3,0.3-0.6,0.6-1,0.8s-0.7,0.4-1,0.5
		c-0.3,0.1-0.6,0.2-0.9,0.2c-0.3,0-0.4,0.1-0.6,0.1h-2.8c-0.7,0-1.4-0.1-1.9-0.3c-0.5-0.2-1-0.4-1.3-0.7s-0.6-0.6-0.8-0.9
		c-0.2-0.3-0.4-0.7-0.5-1c-0.1-0.3-0.2-0.6-0.2-0.9c0-0.3,0-0.5,0-0.7c0-0.6,0.1-1.2,0.3-1.6c0.2-0.4,0.5-0.8,0.7-1.1
		c0.3-0.3,0.5-0.5,0.8-0.6c0.2-0.1,0.4-0.2,0.4-0.2c-0.3-0.1-0.6-0.2-0.8-0.3c-0.2-0.1-0.4-0.3-0.6-0.5s-0.3-0.4-0.4-0.6
		c-0.1-0.2-0.2-0.4-0.3-0.6c-0.2-0.5-0.3-1-0.3-1.6c0-0.6,0.1-1.1,0.2-1.6c0.1-0.4,0.2-0.8,0.4-1.2s0.4-0.6,0.6-0.8
		c0.2-0.2,0.4-0.4,0.7-0.6c0.5-0.3,1.1-0.5,1.8-0.6h3v2.3h-1.8c-0.3,0-0.6,0-0.9,0.1c-0.3,0.1-0.5,0.2-0.6,0.3
		c-0.2,0.1-0.3,0.2-0.5,0.4s-0.2,0.3-0.3,0.4c-0.2,0.4-0.3,0.8-0.3,1.2c0,0.4,0.1,0.7,0.2,1c0.1,0.3,0.3,0.5,0.5,0.7
		s0.4,0.3,0.6,0.4c0.2,0.1,0.4,0.2,0.6,0.2c0.2,0,0.4,0.1,0.5,0.1c0.1,0,0.2,0,0.3,0h1.8v2.3h-1.8c-0.4,0-0.7,0-1,0.1
		c-0.3,0.1-0.5,0.2-0.7,0.4c-0.2,0.1-0.3,0.3-0.4,0.5c-0.1,0.2-0.2,0.3-0.2,0.5c0,0.2-0.1,0.3-0.1,0.4s0,0.2,0,0.2
		c0,0.4,0.1,0.7,0.2,1c0.1,0.3,0.2,0.5,0.4,0.7s0.3,0.3,0.5,0.4c0.2,0.1,0.4,0.2,0.6,0.2c0.2,0,0.3,0.1,0.5,0.1c0.1,0,0.2,0,0.3,0
		h0.1h2.7c0.5,0,0.9-0.1,1.2-0.3c0.3-0.2,0.5-0.5,0.7-0.8c0.2-0.3,0.3-0.7,0.3-1.2v-11.7H327.7z"/>
	<path class="st2" d="M333,879.5h-2.3v-16.2h2.3V879.5z"/>
	<path class="st2" d="M337.8,863.2h4.3v11.7c0,0.8-0.1,1.4-0.3,2s-0.4,1-0.7,1.3c-0.3,0.4-0.6,0.6-0.9,0.8c-0.3,0.2-0.6,0.3-0.9,0.4
		s-0.6,0.1-0.8,0.2c-0.2,0-0.4,0-0.4,0c-0.6,0-1.2-0.1-1.6-0.3c-0.5-0.2-0.8-0.4-1.1-0.6c-0.4-0.3-0.7-0.6-0.9-0.9l1.5-1.6
		c0,0.1,0.1,0.1,0.2,0.3c0.1,0.1,0.2,0.2,0.4,0.4c0.2,0.1,0.4,0.2,0.6,0.3c0.3,0.1,0.6,0.1,0.9,0.1c0.2,0,0.4,0,0.6-0.1
		s0.3-0.2,0.4-0.3c0.1-0.1,0.2-0.3,0.3-0.4c0.1-0.2,0.2-0.3,0.2-0.5c0.1-0.4,0.2-0.8,0.2-1.3v-9.4h-2.1V863.2z"/>
	<path class="st2" d="M341.1,859v2.3h-8.3V859H341.1z"/>
	<path class="st2" d="M346.9,863.2v10.1c0,0.7,0.1,1.3,0.2,1.7c0.2,0.5,0.4,0.9,0.6,1.2s0.5,0.5,0.8,0.7c0.3,0.2,0.6,0.3,0.8,0.4
		c0.3,0.1,0.5,0.1,0.7,0.1c0.2,0,0.3,0,0.4,0c0.6,0,1.1-0.1,1.5-0.3c0.4-0.2,0.7-0.4,1-0.7c0.3-0.3,0.5-0.6,0.6-0.9s0.3-0.7,0.3-1
		c0.1-0.3,0.1-0.6,0.1-0.8s0-0.4,0-0.4v-10.1h2.2v16.2h-2.2v-2.3c0,0.3-0.1,0.6-0.2,0.8c-0.1,0.2-0.3,0.4-0.4,0.6s-0.4,0.3-0.6,0.4
		s-0.4,0.2-0.6,0.3c-0.5,0.2-1.1,0.3-1.7,0.4H350c-0.8,0-1.6-0.1-2.1-0.4c-0.6-0.3-1.1-0.6-1.5-1c-0.4-0.4-0.7-0.8-0.9-1.3
		s-0.4-1-0.5-1.4s-0.2-0.9-0.2-1.2c0-0.4,0-0.7,0-0.8v-0.2v-10.1H346.9z"/>
	<path class="st2" d="M360.1,877.5h2l-1.5,6.1h-2L360.1,877.5z"/>
	<path class="st2" d="M372.2,863.2h2.2v4.2h5c0.3,0,0.5-0.1,0.7-0.3c0.2-0.1,0.4-0.3,0.6-0.6s0.3-0.6,0.4-1.1v-2.1h2.2v2.4
		c0,0.1,0,0.3-0.1,0.6c-0.1,0.2-0.1,0.5-0.3,0.8c-0.1,0.3-0.2,0.6-0.4,0.8c-0.2,0.3-0.4,0.5-0.6,0.8c0.3,0.3,0.5,0.6,0.8,1
		c0.2,0.3,0.4,0.7,0.5,1.2s0.2,1,0.2,1.6v7h-2.2v-7c0-0.3-0.1-0.5-0.1-0.7c-0.1-0.2-0.1-0.4-0.2-0.7c-0.1-0.2-0.2-0.5-0.4-0.7
		c-0.1-0.2-0.3-0.4-0.5-0.5c-0.2-0.1-0.5-0.2-0.8-0.2h-5v9.9h-2.2V863.2z"/>
	<path class="st2" d="M394.8,867.4l-0.9-0.7c-0.2-0.2-0.5-0.3-0.8-0.5c-0.3-0.1-0.6-0.3-0.9-0.4c-0.3-0.1-0.6-0.2-0.8-0.3
		s-0.5-0.1-0.6-0.1c-0.4,0-0.7,0-1,0.1s-0.6,0.2-0.8,0.4s-0.4,0.4-0.6,0.7c-0.1,0.3-0.2,0.7-0.2,1.2s0.1,0.9,0.4,1.2s0.6,0.5,1,0.7
		c0.4,0.2,0.8,0.3,1.3,0.4c0.5,0.1,1,0.2,1.5,0.3c0.5,0.1,1,0.3,1.4,0.5c0.5,0.3,0.9,0.6,1.2,1c0.3,0.4,0.6,0.8,0.8,1.3
		c0.2,0.5,0.3,1,0.3,1.6c0,0.8-0.1,1.6-0.4,2.2s-0.7,1.1-1.1,1.5s-1,0.7-1.7,0.9c-0.6,0.2-1.3,0.3-2.1,0.3c-1,0-1.9-0.1-2.6-0.4
		s-1.3-0.5-1.8-0.8c-0.5-0.3-1-0.7-1.4-1.2l1.5-1.6c0.2,0.2,0.4,0.4,0.7,0.6c0.3,0.2,0.6,0.4,1,0.5c0.4,0.2,0.8,0.3,1.2,0.4
		c0.4,0.1,0.9,0.2,1.3,0.2c0.5,0,0.9-0.1,1.3-0.2c0.4-0.1,0.7-0.3,1-0.5c0.3-0.2,0.5-0.5,0.6-0.8c0.1-0.3,0.2-0.7,0.2-1
		c0-0.4-0.1-0.7-0.2-1c-0.1-0.2-0.3-0.4-0.4-0.6s-0.3-0.2-0.5-0.3s-0.3-0.1-0.4-0.1c0,0-0.2,0-0.5-0.1c-0.3,0-0.6-0.1-0.9-0.2
		s-0.7-0.1-1-0.2c-0.3-0.1-0.6-0.1-0.8-0.2c-0.1,0-0.3-0.1-0.5-0.1s-0.4-0.2-0.7-0.3c-0.2-0.1-0.5-0.3-0.8-0.5s-0.5-0.5-0.7-0.8
		c-0.2-0.3-0.4-0.7-0.5-1.1c-0.1-0.4-0.2-1-0.2-1.5c0-0.9,0.1-1.6,0.4-2.2s0.7-1.1,1.1-1.5c0.5-0.4,1-0.7,1.6-0.8
		c0.6-0.2,1.2-0.3,1.8-0.3c0.6,0,1.2,0.1,1.7,0.2c0.5,0.2,0.9,0.3,1.3,0.5c0.4,0.2,0.8,0.4,1.2,0.7l1.1,0.8L394.8,867.4z"/>
	<path class="st2" d="M394.9,857.4v4h-9.2v-2.3h3.7v-1.7h2.1v1.7h1.2v-1.7H394.9z"/>
	<path class="st2" d="M409.7,873.9c-0.1,1.1-0.3,2.1-0.8,2.9c-0.2,0.4-0.4,0.7-0.7,1.1c-0.3,0.3-0.6,0.7-1,0.9
		c-0.4,0.3-0.9,0.5-1.4,0.7c-0.5,0.2-1.2,0.2-1.9,0.2c-0.7,0-1.3-0.1-1.9-0.2c-0.5-0.2-1-0.4-1.4-0.7c-0.4-0.3-0.8-0.6-1-0.9
		c-0.3-0.3-0.5-0.7-0.7-1.1c-0.4-0.8-0.7-1.8-0.8-2.9v-3.3h4.2v2.3h-1.9v1c0,0.4,0.1,0.8,0.2,1.2c0.1,0.3,0.2,0.6,0.4,0.9
		s0.4,0.5,0.6,0.6c0.2,0.2,0.4,0.3,0.7,0.4c0.5,0.3,1.1,0.4,1.8,0.4c0.7,0,1.3-0.2,1.8-0.4c0.2-0.1,0.4-0.3,0.7-0.4s0.4-0.4,0.6-0.6
		c0.2-0.2,0.3-0.5,0.4-0.9c0.1-0.3,0.2-0.7,0.2-1.2V869c0-0.4-0.1-0.8-0.2-1.1c-0.1-0.3-0.2-0.6-0.4-0.8c-0.2-0.2-0.4-0.4-0.6-0.6
		c-0.2-0.2-0.4-0.3-0.7-0.4c-0.5-0.3-1.1-0.4-1.8-0.4h-0.2c-0.2,0-0.4,0-0.7,0.1c-0.3,0.1-0.6,0.2-1,0.3c-0.3,0.2-0.7,0.4-1,0.7
		c-0.3,0.3-0.5,0.7-0.7,1.3h-2.2c0.1-0.3,0.1-0.6,0.3-0.9c0.1-0.3,0.3-0.7,0.5-1.1c0.2-0.4,0.4-0.7,0.7-1.1c0.3-0.3,0.6-0.6,1-0.9
		c0.4-0.3,0.9-0.5,1.4-0.6c0.5-0.2,1.2-0.2,1.8-0.2c0.7,0,1.3,0.1,1.9,0.3c0.5,0.2,1,0.4,1.4,0.7s0.8,0.6,1,0.9
		c0.3,0.3,0.5,0.7,0.7,1.1c0.4,0.8,0.7,1.8,0.8,2.9V873.9z"/>
	<path class="st2" d="M411.9,879.5V867c0.3-0.6,0.6-1.1,1-1.6s0.7-0.8,1.1-1.1c0.4-0.3,0.8-0.5,1.1-0.7c0.4-0.2,0.7-0.3,1-0.4
		c0.3-0.1,0.6-0.1,0.8-0.2c0.2,0,0.4,0,0.5,0h0.1c0.7,0,1.4,0.1,1.9,0.3c0.5,0.2,1,0.4,1.4,0.7c0.4,0.3,0.8,0.6,1,0.9
		c0.3,0.4,0.5,0.7,0.7,1.1s0.3,0.7,0.4,1.1c0.1,0.4,0.2,0.7,0.2,1c0.1,0.3,0.1,0.5,0.1,0.8s0,0.3,0,0.4v10.1h-2.2v-10.1
		c0-0.6-0.1-1.2-0.2-1.6c-0.2-0.4-0.4-0.8-0.6-1.1c-0.3-0.3-0.5-0.5-0.8-0.7s-0.6-0.3-0.9-0.3c-0.3-0.1-0.5-0.1-0.7-0.1
		c-0.2,0-0.3,0-0.4,0c-0.5,0-0.9,0.1-1.2,0.2c-0.3,0.1-0.6,0.3-0.9,0.4c-0.3,0.2-0.5,0.4-0.6,0.6c-0.2,0.2-0.3,0.5-0.4,0.7
		c-0.3,0.6-0.4,1.2-0.4,1.9v10.1H411.9z"/>
	<path class="st2" d="M428.5,863.1c0.1,0,0.2,0,0.4,0c0.2,0,0.5,0.1,0.8,0.2c0.3,0.1,0.6,0.2,0.9,0.4c0.3,0.2,0.6,0.5,0.9,0.8
		c0.3,0.4,0.5,0.8,0.7,1.3c0.2,0.5,0.3,1.2,0.3,2v11.6h-2.2v-11.6c0-0.4-0.1-0.8-0.2-1.2c-0.1-0.2-0.1-0.3-0.2-0.4
		c-0.1-0.1-0.2-0.3-0.3-0.4c-0.1-0.1-0.3-0.2-0.4-0.3s-0.4-0.1-0.6-0.1c-0.4,0-0.7,0-0.9,0.1c-0.3,0.1-0.5,0.2-0.6,0.3
		s-0.3,0.2-0.4,0.4s-0.2,0.2-0.2,0.2l-1.5-1.7c0.2-0.3,0.5-0.6,0.9-0.9c0.3-0.2,0.7-0.4,1.1-0.6S427.9,863.1,428.5,863.1z"/>
	<path class="st2" d="M444,867.4l-0.9-0.7c-0.2-0.2-0.5-0.3-0.8-0.5c-0.3-0.1-0.6-0.3-0.9-0.4c-0.3-0.1-0.6-0.2-0.8-0.3
		c-0.3-0.1-0.5-0.1-0.6-0.1c-0.4,0-0.7,0-1,0.1c-0.3,0.1-0.6,0.2-0.8,0.4s-0.4,0.4-0.6,0.7c-0.1,0.3-0.2,0.7-0.2,1.2
		s0.1,0.9,0.4,1.2s0.6,0.5,1,0.7c0.4,0.2,0.8,0.3,1.3,0.4c0.5,0.1,1,0.2,1.5,0.3s1,0.3,1.4,0.5c0.5,0.3,0.9,0.6,1.2,1
		c0.3,0.4,0.6,0.8,0.8,1.3c0.2,0.5,0.3,1,0.3,1.6c0,0.8-0.1,1.6-0.4,2.2c-0.3,0.6-0.7,1.1-1.1,1.5c-0.5,0.4-1,0.7-1.7,0.9
		c-0.6,0.2-1.3,0.3-2.1,0.3c-1,0-1.9-0.1-2.6-0.4s-1.3-0.5-1.8-0.8c-0.5-0.3-1-0.7-1.4-1.2l1.5-1.6c0.2,0.2,0.4,0.4,0.7,0.6
		c0.3,0.2,0.6,0.4,1,0.5c0.4,0.2,0.8,0.3,1.2,0.4c0.4,0.1,0.9,0.2,1.3,0.2c0.5,0,0.9-0.1,1.3-0.2s0.7-0.3,1-0.5
		c0.3-0.2,0.5-0.5,0.6-0.8c0.1-0.3,0.2-0.7,0.2-1c0-0.4-0.1-0.7-0.2-1s-0.3-0.4-0.4-0.6c-0.2-0.1-0.3-0.2-0.5-0.3s-0.3-0.1-0.4-0.1
		c0,0-0.2,0-0.5-0.1c-0.3,0-0.6-0.1-0.9-0.2s-0.7-0.1-1-0.2s-0.6-0.1-0.8-0.2c-0.1,0-0.3-0.1-0.5-0.1s-0.4-0.2-0.7-0.3
		c-0.2-0.1-0.5-0.3-0.8-0.5c-0.3-0.2-0.5-0.5-0.7-0.8c-0.2-0.3-0.4-0.7-0.5-1.1c-0.1-0.4-0.2-1-0.2-1.5c0-0.9,0.1-1.6,0.4-2.2
		s0.7-1.1,1.1-1.5s1-0.7,1.6-0.8c0.6-0.2,1.2-0.3,1.8-0.3c0.6,0,1.2,0.1,1.7,0.2c0.5,0.2,0.9,0.3,1.3,0.5c0.4,0.2,0.8,0.4,1.2,0.7
		l1.1,0.8L444,867.4z"/>
	<path class="st2" d="M455.6,863.5c0.7,0.3,1.2,0.6,1.6,1c0.4,0.4,0.8,0.9,1,1.4c0.2,0.5,0.4,1,0.6,1.4c0.1,0.5,0.2,0.9,0.2,1.3
		c0,0.4,0,0.6,0,0.8v0.2v9.9h-2.2v-9.9c0-0.5-0.1-0.9-0.2-1.3s-0.2-0.7-0.4-1c-0.2-0.3-0.4-0.5-0.6-0.7c-0.2-0.2-0.4-0.4-0.7-0.5
		c-0.5-0.3-1.1-0.5-1.8-0.5c-0.4,0-0.8,0.1-1.1,0.2c-0.3,0.1-0.6,0.3-0.9,0.5c-0.3,0.2-0.5,0.4-0.6,0.6c-0.2,0.2-0.3,0.5-0.4,0.7
		c-0.3,0.6-0.4,1.3-0.5,2v1.6c0.9-0.6,1.8-0.8,2.9-0.8c0.5,0,0.9,0.1,1.3,0.2v2.5c-0.2-0.1-0.4-0.2-0.6-0.2c-0.2,0-0.5,0-0.7,0
		c-0.7,0-1.3,0.2-1.8,0.5c-0.3,0.2-0.5,0.4-0.6,0.7s-0.3,0.6-0.4,0.9v4.5h-2.2v-10.1c0-1,0.1-1.8,0.4-2.5s0.5-1.3,0.9-1.7
		c0.4-0.5,0.8-0.8,1.2-1.1c0.4-0.3,0.9-0.5,1.3-0.6c0.4-0.1,0.8-0.2,1.1-0.2c0.3,0,0.6,0,0.7,0h0.1
		C454.1,863.1,454.9,863.3,455.6,863.5z"/>
	<path class="st2" d="M458.5,857.4v4h-9.2v-2.3h3.7v-1.7h2.1v1.7h1.2v-1.7H458.5z"/>
	<path class="st2" d="M464.1,863.2v10.1c0,0.7,0.1,1.3,0.2,1.7c0.2,0.5,0.4,0.9,0.6,1.2s0.5,0.5,0.8,0.7c0.3,0.2,0.6,0.3,0.8,0.4
		c0.3,0.1,0.5,0.1,0.7,0.1c0.2,0,0.3,0,0.4,0c0.6,0,1.1-0.1,1.5-0.3c0.4-0.2,0.7-0.4,1-0.7c0.3-0.3,0.5-0.6,0.6-0.9s0.3-0.7,0.3-1
		s0.1-0.6,0.1-0.8s0-0.4,0-0.4v-10.1h2.2v16.2h-2.2v-2.3c0,0.3-0.1,0.6-0.2,0.8c-0.1,0.2-0.3,0.4-0.4,0.6c-0.2,0.2-0.4,0.3-0.6,0.4
		c-0.2,0.1-0.4,0.2-0.6,0.3c-0.5,0.2-1.1,0.3-1.7,0.4h-0.5c-0.8,0-1.6-0.1-2.1-0.4c-0.6-0.3-1.1-0.6-1.5-1c-0.4-0.4-0.7-0.8-0.9-1.3
		s-0.4-1-0.5-1.4s-0.2-0.9-0.2-1.2c0-0.4,0-0.7,0-0.8v-0.2v-10.1H464.1z"/>
	<path class="st2" d="M488.4,863c0,0.1,0,0.1-0.1,0.3s-0.2,0.3-0.3,0.4c-0.1,0.2-0.3,0.3-0.4,0.5c-0.2,0.2-0.3,0.3-0.5,0.5
		c-0.2,0.1-0.3,0.3-0.4,0.4c-0.1,0.1-0.2,0.2-0.3,0.2c0.3,0.4,0.5,0.8,0.7,1.3c0.2,0.4,0.3,0.9,0.4,1.3c0.1,0.4,0.1,0.7,0.2,1.1
		c0,0.3,0,0.5,0,0.7v0.2v9.9h-2.2v-4.8c0-0.5-0.1-0.9-0.3-1.2c-0.2-0.3-0.4-0.6-0.7-0.8c-0.3-0.2-0.6-0.4-0.9-0.5
		c-0.3-0.1-0.7-0.2-0.9-0.3c-0.3-0.1-0.6-0.1-1-0.1c0,0-0.1,0-0.3,0c-0.2,0-0.3,0-0.6,0.1c-0.2,0.1-0.5,0.1-0.7,0.2
		c-0.3,0.1-0.5,0.3-0.8,0.5c-0.2,0.2-0.5,0.5-0.6,0.8s-0.3,0.7-0.4,1.1c0,0.1,0,0.1,0,0.2s0,0.1,0,0.2c0,0.3,0.1,0.6,0.2,0.9
		c0.2,0.2,0.4,0.4,0.6,0.6c0.2,0.2,0.5,0.3,0.8,0.4c0.3,0.1,0.6,0.2,0.9,0.2c0.3,0.1,0.6,0.1,0.8,0.1c0.2,0,0.4,0,0.6,0h0.2v2.3
		h-2.5c-0.5,0-1-0.1-1.5-0.4s-0.9-0.6-1.2-1c-0.3-0.4-0.6-0.9-0.8-1.5s-0.3-1.1-0.3-1.7c0-0.6,0.1-1.2,0.4-1.8
		c0.3-0.6,0.7-1.2,1.2-1.8c0.3-0.3,0.7-0.6,1.1-0.9c0.4-0.2,0.7-0.4,1.1-0.6c0.4-0.1,0.7-0.2,1.1-0.3c0.4-0.1,0.7-0.1,1-0.1
		c0.5,0,1,0.1,1.4,0.2c0.5,0.1,0.8,0.2,1.2,0.3c0.4,0.2,0.7,0.3,1.1,0.5v-0.9c0-0.5-0.1-0.9-0.2-1.3c-0.1-0.4-0.2-0.7-0.4-1
		c-0.2-0.3-0.4-0.5-0.6-0.7c-0.2-0.2-0.4-0.4-0.7-0.5c-0.5-0.3-1.1-0.5-1.8-0.5c-0.6,0-1.1,0.1-1.5,0.3c-0.4,0.2-0.8,0.5-1,0.9
		c-0.3,0.3-0.5,0.7-0.6,1.1c-0.1,0.4-0.3,0.7-0.3,1h-2.3c0.1-0.9,0.2-1.7,0.5-2.3c0.3-0.6,0.6-1.1,1-1.6c0.4-0.4,0.8-0.7,1.2-1
		s0.9-0.4,1.3-0.5c0.4-0.1,0.8-0.2,1.1-0.2c0.3,0,0.5,0,0.7,0h0.2c0.7,0,1.4,0.1,2.1,0.3c0.4-0.1,0.8-0.2,1.1-0.4
		c0.3-0.2,0.6-0.4,0.9-0.6c0.3-0.3,0.6-0.7,0.8-1.1l0.7,0.8c0.1,0.1,0.2,0.2,0.3,0.3s0.2,0.2,0.3,0.3s0.1,0.2,0.2,0.2
		C488.3,863,488.4,863,488.4,863z"/>
	<path class="st2" d="M486.7,859v2.3h-8.3V859H486.7z"/>
	<path class="st2" d="M486.8,852.9v2.3h-6.2v-3h-1.1v-2.3h2.2c0.2,0,0.3,0.1,0.5,0.2c0.1,0.1,0.2,0.2,0.3,0.3
		c0.1,0.1,0.2,0.3,0.2,0.6v2H486.8z"/>
	<path class="st2" d="M492.5,863.2v10.1c0,0.7,0.1,1.3,0.2,1.7c0.2,0.5,0.4,0.9,0.6,1.2c0.2,0.3,0.5,0.5,0.8,0.7
		c0.3,0.2,0.6,0.3,0.8,0.4c0.3,0.1,0.5,0.1,0.7,0.1c0.2,0,0.3,0,0.4,0c0.6,0,1.1-0.1,1.5-0.3s0.7-0.4,1-0.7c0.3-0.3,0.5-0.6,0.6-0.9
		c0.1-0.3,0.3-0.7,0.3-1s0.1-0.6,0.1-0.8c0-0.2,0-0.4,0-0.4v-10.1h2.2v16.2h-2.2v-2.3c0,0.3-0.1,0.6-0.2,0.8
		c-0.1,0.2-0.3,0.4-0.4,0.6s-0.4,0.3-0.6,0.4s-0.4,0.2-0.6,0.3c-0.5,0.2-1.1,0.3-1.7,0.4h-0.5c-0.8,0-1.6-0.1-2.1-0.4
		c-0.6-0.3-1.1-0.6-1.5-1c-0.4-0.4-0.7-0.8-0.9-1.3s-0.4-1-0.5-1.4c-0.1-0.5-0.2-0.9-0.2-1.2c0-0.4,0-0.7,0-0.8v-0.2v-10.1H492.5z"
		/>
	<path class="st2" d="M513,863.5c0.7,0.3,1.2,0.6,1.6,1c0.4,0.4,0.8,0.9,1,1.4s0.4,1,0.6,1.4c0.1,0.5,0.2,0.9,0.2,1.3
		c0,0.4,0,0.6,0,0.8v0.2v9.9h-2.2v-9.9c0-0.5-0.1-0.9-0.2-1.3c-0.1-0.4-0.2-0.7-0.4-1s-0.4-0.5-0.6-0.7c-0.2-0.2-0.4-0.4-0.7-0.5
		c-0.5-0.3-1.1-0.5-1.8-0.5c-0.4,0-0.8,0.1-1.1,0.2c-0.3,0.1-0.6,0.3-0.9,0.5c-0.3,0.2-0.5,0.4-0.6,0.6s-0.3,0.5-0.4,0.7
		c-0.3,0.6-0.5,1.3-0.5,2v1.6c0.9-0.6,1.8-0.8,2.9-0.8c0.5,0,0.9,0.1,1.3,0.2v2.5c-0.2-0.1-0.4-0.2-0.6-0.2c-0.2,0-0.5,0-0.7,0
		c-0.7,0-1.3,0.2-1.8,0.5c-0.3,0.2-0.5,0.4-0.6,0.7c-0.2,0.3-0.3,0.6-0.4,0.9v4.5h-2.2v-10.1c0-1,0.1-1.8,0.4-2.5s0.5-1.3,0.9-1.7
		c0.4-0.5,0.8-0.8,1.2-1.1s0.9-0.5,1.3-0.6c0.4-0.1,0.8-0.2,1.1-0.2c0.3,0,0.6,0,0.7,0h0.1C511.6,863.1,512.4,863.3,513,863.5z"/>
	<path class="st2" d="M516.5,859.1v2.3h-6.2v-3h-1.1V856h2.2c0.2,0,0.3,0.1,0.5,0.2c0.1,0.1,0.2,0.2,0.3,0.3
		c0.1,0.1,0.2,0.3,0.2,0.6v2H516.5z"/>
	<path class="st2" d="M521.4,863.1c0.1,0,0.2,0,0.4,0c0.2,0,0.5,0.1,0.8,0.2c0.3,0.1,0.6,0.2,0.9,0.4c0.3,0.2,0.6,0.5,0.9,0.8
		c0.3,0.4,0.5,0.8,0.7,1.3s0.3,1.2,0.3,2v11.6h-2.2v-11.6c0-0.4-0.1-0.8-0.2-1.2c-0.1-0.2-0.1-0.3-0.2-0.4c-0.1-0.1-0.2-0.3-0.3-0.4
		c-0.1-0.1-0.3-0.2-0.4-0.3c-0.2-0.1-0.4-0.1-0.6-0.1c-0.4,0-0.7,0-0.9,0.1c-0.3,0.1-0.5,0.2-0.6,0.3c-0.2,0.1-0.3,0.2-0.4,0.4
		c-0.1,0.1-0.2,0.2-0.2,0.2l-1.5-1.7c0.2-0.3,0.5-0.6,0.9-0.9c0.3-0.2,0.7-0.4,1.1-0.6S520.8,863.1,521.4,863.1z"/>
	<path class="st2" d="M-42.1,911.9h-2.3v-16.2h2.3V911.9z M-37.4,911.9h-2.3v-16.2h2.3V911.9z"/>
	<path class="st2" d="M-27.1,895.9c0.7,0.3,1.2,0.6,1.6,1s0.8,0.9,1,1.4s0.4,1,0.6,1.4c0.1,0.5,0.2,0.9,0.2,1.3c0,0.4,0,0.6,0,0.8
		v0.2v9.9h-2.2v-4.8c0-0.5-0.1-0.9-0.3-1.2c-0.2-0.3-0.4-0.6-0.7-0.8c-0.3-0.2-0.6-0.4-0.9-0.5c-0.3-0.1-0.7-0.2-0.9-0.3
		c-0.3-0.1-0.6-0.1-1-0.1c0,0-0.1,0-0.3,0c-0.2,0-0.3,0-0.6,0.1c-0.2,0.1-0.5,0.1-0.7,0.2c-0.3,0.1-0.5,0.3-0.7,0.5
		c-0.2,0.2-0.5,0.5-0.6,0.8s-0.3,0.7-0.4,1.1c0,0.1,0,0.3,0,0.4c0,0.3,0.1,0.6,0.2,0.9c0.2,0.2,0.4,0.4,0.6,0.6
		c0.2,0.2,0.5,0.3,0.8,0.4c0.3,0.1,0.6,0.2,0.9,0.2c0.3,0.1,0.6,0.1,0.8,0.1c0.2,0,0.4,0,0.6,0h0.2v2.3h-2.5c-0.5,0-1-0.1-1.5-0.4
		s-0.9-0.6-1.2-1c-0.3-0.4-0.6-0.9-0.8-1.5s-0.3-1.1-0.3-1.7c0-0.6,0.1-1.2,0.4-1.8c0.2-0.6,0.7-1.2,1.2-1.8
		c0.3-0.3,0.7-0.6,1.1-0.9s0.7-0.4,1.1-0.6c0.4-0.1,0.7-0.2,1.1-0.3s0.7-0.1,1-0.1c0.5,0,1,0.1,1.4,0.2c0.4,0.1,0.8,0.2,1.2,0.3
		c0.4,0.2,0.7,0.3,1.1,0.5V902c0-0.5-0.1-0.9-0.2-1.3s-0.2-0.7-0.4-1c-0.2-0.3-0.4-0.5-0.6-0.7c-0.2-0.2-0.4-0.4-0.7-0.5
		c-0.5-0.3-1.1-0.5-1.8-0.5c-0.6,0-1.1,0.1-1.5,0.3c-0.4,0.2-0.8,0.5-1,0.9c-0.3,0.3-0.5,0.7-0.6,1.1c-0.1,0.4-0.2,0.7-0.3,1h-2.3
		c0.1-0.9,0.2-1.7,0.5-2.3c0.3-0.6,0.6-1.1,1-1.6c0.4-0.4,0.8-0.7,1.2-1c0.4-0.2,0.9-0.4,1.3-0.5c0.4-0.1,0.8-0.2,1.1-0.2
		c0.3,0,0.5,0,0.7,0h0.1C-28.5,895.5-27.7,895.7-27.1,895.9z"/>
	<path class="st2" d="M-19.7,897.1v1.2h3.9v2.3h-5c-0.2,0-0.4-0.1-0.6-0.2c-0.1-0.1-0.2-0.2-0.3-0.4c-0.1-0.2-0.1-0.3-0.1-0.5v-2.4
		H-19.7z M-19.7,906.9v1.2h3.9v2.3h-5c-0.2,0-0.4-0.1-0.6-0.2c-0.1-0.1-0.2-0.2-0.3-0.4c-0.1-0.2-0.1-0.3-0.1-0.5v-2.4H-19.7z"/>
	<path class="st2" d="M-5.4,895.9c0.7,0.3,1.2,0.6,1.6,1c0.4,0.4,0.8,0.9,1,1.4c0.2,0.5,0.4,1,0.6,1.4c0.1,0.5,0.2,0.9,0.2,1.3
		c0,0.4,0,0.6,0,0.8v0.2v9.9h-2.2V902c0-0.5-0.1-0.9-0.2-1.3c-0.1-0.4-0.2-0.7-0.4-1c-0.2-0.3-0.4-0.5-0.6-0.7
		c-0.2-0.2-0.4-0.4-0.7-0.5c-0.5-0.3-1.1-0.5-1.8-0.5c-0.4,0-0.8,0.1-1.1,0.2c-0.3,0.1-0.6,0.3-0.9,0.5s-0.5,0.4-0.6,0.6
		s-0.3,0.5-0.4,0.7c-0.3,0.6-0.4,1.3-0.5,2v1.6c0.9-0.6,1.8-0.8,2.9-0.8c0.5,0,0.9,0.1,1.3,0.2v2.5c-0.2-0.1-0.4-0.2-0.6-0.2
		c-0.2,0-0.5,0-0.7,0c-0.7,0-1.3,0.2-1.8,0.5c-0.3,0.2-0.5,0.4-0.6,0.7c-0.2,0.3-0.3,0.6-0.4,0.9v4.5h-2.2v-10.1
		c0-1,0.1-1.8,0.4-2.5s0.5-1.3,0.9-1.7c0.4-0.5,0.8-0.8,1.2-1.1c0.4-0.3,0.9-0.5,1.3-0.6c0.4-0.1,0.8-0.2,1.1-0.2c0.3,0,0.6,0,0.7,0
		h0.1C-6.8,895.5-6,895.7-5.4,895.9z"/>
	<path class="st2" d="M-2.5,889.8v4h-9.2v-2.3h3.7v-1.7h2.1v1.7h1.2v-1.7H-2.5z"/>
	<path class="st2" d="M3.1,895.6v10.1c0,0.7,0.1,1.3,0.2,1.7c0.2,0.5,0.4,0.9,0.6,1.2c0.2,0.3,0.5,0.5,0.8,0.7
		c0.3,0.2,0.6,0.3,0.8,0.4c0.3,0.1,0.5,0.1,0.7,0.1c0.2,0,0.3,0,0.4,0c0.6,0,1.1-0.1,1.5-0.3s0.7-0.4,1-0.7c0.3-0.3,0.5-0.6,0.6-0.9
		c0.1-0.3,0.3-0.7,0.3-1s0.1-0.6,0.1-0.8c0-0.2,0-0.4,0-0.4v-10.1h2.2v16.2h-2.2v-2.3c0,0.3-0.1,0.6-0.2,0.8
		c-0.1,0.2-0.3,0.4-0.4,0.6s-0.4,0.3-0.6,0.4c-0.2,0.1-0.4,0.2-0.6,0.3c-0.5,0.2-1.1,0.3-1.7,0.4H6.2c-0.8,0-1.6-0.1-2.1-0.4
		c-0.6-0.3-1.1-0.6-1.5-1c-0.4-0.4-0.7-0.8-0.9-1.3s-0.4-1-0.5-1.4c-0.1-0.5-0.2-0.9-0.2-1.2s0-0.7,0-0.8v-0.2v-10.1H3.1z"/>
	<path class="st2" d="M17.7,911.9h-2.3v-16.2h2.3V911.9z"/>
	<path class="st2" d="M22.5,895.6h4.3v11.7c0,0.8-0.1,1.4-0.3,2s-0.4,1-0.7,1.3c-0.3,0.4-0.6,0.6-0.9,0.8c-0.3,0.2-0.6,0.3-0.9,0.4
		s-0.6,0.1-0.8,0.2c-0.2,0-0.4,0-0.4,0c-0.6,0-1.2-0.1-1.6-0.3c-0.5-0.2-0.8-0.4-1.1-0.6c-0.4-0.3-0.7-0.6-0.9-0.9l1.5-1.6
		c0,0.1,0.1,0.1,0.2,0.3c0.1,0.1,0.2,0.2,0.4,0.4c0.2,0.1,0.4,0.2,0.6,0.3c0.3,0.1,0.6,0.1,0.9,0.1c0.2,0,0.4,0,0.6-0.1
		s0.3-0.2,0.4-0.3c0.1-0.1,0.2-0.3,0.3-0.4c0.1-0.2,0.2-0.3,0.2-0.5c0.1-0.4,0.2-0.8,0.2-1.3v-9.4h-2.1V895.6z"/>
	<path class="st2" d="M25.8,891.4v2.3h-8.3v-2.3H25.8z"/>
	<path class="st2" d="M31.6,895.6v10.1c0,0.7,0.1,1.3,0.2,1.7c0.2,0.5,0.4,0.9,0.6,1.2s0.5,0.5,0.8,0.7c0.3,0.2,0.6,0.3,0.8,0.4
		c0.3,0.1,0.5,0.1,0.7,0.1c0.2,0,0.3,0,0.4,0c0.6,0,1.1-0.1,1.5-0.3c0.4-0.2,0.7-0.4,1-0.7c0.3-0.3,0.5-0.6,0.6-0.9
		c0.1-0.3,0.3-0.7,0.3-1c0.1-0.3,0.1-0.6,0.1-0.8c0-0.2,0-0.4,0-0.4v-10.1H41v16.2h-2.2v-2.3c0,0.3-0.1,0.6-0.2,0.8
		c-0.1,0.2-0.3,0.4-0.4,0.6s-0.4,0.3-0.6,0.4c-0.2,0.1-0.4,0.2-0.6,0.3c-0.5,0.2-1.1,0.3-1.7,0.4h-0.5c-0.8,0-1.6-0.1-2.1-0.4
		c-0.6-0.3-1.1-0.6-1.5-1c-0.4-0.4-0.7-0.8-0.9-1.3s-0.4-1-0.5-1.4c-0.1-0.5-0.2-0.9-0.2-1.2s0-0.7,0-0.8v-0.2v-10.1H31.6z"/>
	<path class="st2" d="M54.2,895.6v10.9c0,0.9-0.1,1.7-0.4,2.3c-0.2,0.6-0.5,1.2-0.9,1.6c-0.4,0.4-0.8,0.7-1.2,1s-0.8,0.4-1.2,0.5
		c-0.4,0.1-0.7,0.2-1,0.2c-0.3,0-0.5,0-0.6,0c-0.9,0-1.6-0.1-2.2-0.4s-1.1-0.6-1.5-1c-0.4-0.4-0.7-0.8-0.9-1.3
		c-0.2-0.5-0.4-0.9-0.5-1.3c-0.1-0.4-0.2-0.8-0.2-1.1c0-0.3,0-0.5,0-0.6c0-0.5,0.1-1,0.2-1.4s0.3-0.8,0.5-1.2
		c0.2-0.3,0.4-0.7,0.7-0.9c0.3-0.3,0.5-0.6,0.7-0.8c0.2-0.3,0.4-0.5,0.6-0.7s0.3-0.5,0.3-0.7c0-0.1,0-0.1,0-0.2c0-0.1,0-0.1,0-0.2
		c0-0.4-0.1-0.7-0.2-0.9c-0.1-0.3-0.3-0.5-0.4-0.6c-0.2-0.2-0.4-0.3-0.6-0.4c-0.2-0.1-0.4-0.2-0.6-0.2s-0.4-0.1-0.6-0.1
		c-0.2,0-0.3,0-0.4,0h-0.2v-2.3h1.3c0.6,0,1.1,0.1,1.5,0.3c0.4,0.2,0.8,0.4,1.1,0.7c0.3,0.3,0.5,0.6,0.7,1c0.2,0.4,0.3,0.7,0.4,1.1
		c0.1,0.3,0.1,0.7,0.2,1c0,0.3,0,0.5,0,0.7c0,0.1,0,0.1,0,0.1c0,0,0,0.1,0,0.1v0.1c0,0.3-0.1,0.6-0.2,0.9s-0.2,0.5-0.4,0.8
		c-0.1,0.3-0.3,0.5-0.5,0.8c-0.4,0.5-0.8,1-1,1.4c-0.2,0.4-0.4,0.8-0.5,1.1c-0.1,0.3-0.2,0.5-0.2,0.7c0,0.2,0,0.3,0,0.4
		c0,0.6,0.1,1,0.2,1.4c0.1,0.4,0.3,0.7,0.5,0.9c0.2,0.2,0.4,0.4,0.7,0.6c0.2,0.1,0.5,0.2,0.7,0.3s0.4,0.1,0.6,0.1s0.3,0,0.3,0
		c0.5,0,0.9-0.1,1.2-0.2s0.6-0.3,0.8-0.6c0.2-0.2,0.4-0.5,0.5-0.7s0.2-0.5,0.3-0.8c0.1-0.2,0.1-0.5,0.1-0.7c0-0.2,0-0.3,0-0.4v-10.9
		H54.2z"/>
	<path class="st2" d="M51.2,888c0.4,0,0.7,0.1,1,0.2s0.6,0.4,0.8,0.6c0.2,0.3,0.4,0.6,0.6,0.9s0.2,0.7,0.2,1.1
		c0,0.4-0.1,0.8-0.2,1.1c-0.1,0.3-0.3,0.7-0.6,0.9c-0.2,0.3-0.5,0.5-0.8,0.6c-0.3,0.1-0.6,0.2-1,0.2h-8.6v-2.3h6.1
		c0-0.1,0-0.2,0-0.3c0-0.1,0-0.2,0-0.3c0-0.4,0.1-0.7,0.2-1.1c0.1-0.3,0.3-0.6,0.6-0.9c0.2-0.3,0.5-0.5,0.8-0.6
		C50.5,888.1,50.9,888,51.2,888z M51.2,891.8c0.2,0,0.4-0.1,0.6-0.3s0.3-0.4,0.3-0.7s-0.1-0.5-0.3-0.7s-0.4-0.3-0.6-0.3
		s-0.4,0.1-0.6,0.3s-0.3,0.4-0.3,0.7s0.1,0.5,0.3,0.7S51,891.8,51.2,891.8z"/>
	<path class="st2" d="M53.6,885.3v2.3h-6.2v-3h-1.1v-2.3h2.2c0.2,0,0.3,0.1,0.5,0.2c0.1,0.1,0.2,0.2,0.3,0.3
		c0.1,0.1,0.2,0.3,0.2,0.6v2H53.6z"/>
	<path class="st2" d="M59.3,895.6v10.1c0,0.7,0.1,1.3,0.2,1.7c0.2,0.5,0.4,0.9,0.6,1.2c0.2,0.3,0.5,0.5,0.8,0.7
		c0.3,0.2,0.6,0.3,0.8,0.4c0.3,0.1,0.5,0.1,0.7,0.1c0.2,0,0.3,0,0.4,0c0.6,0,1.1-0.1,1.5-0.3c0.4-0.2,0.7-0.4,1-0.7
		c0.3-0.3,0.5-0.6,0.6-0.9s0.3-0.7,0.3-1c0.1-0.3,0.1-0.6,0.1-0.8s0-0.4,0-0.4v-10.1h2.2v16.2h-2.2v-2.3c0,0.3-0.1,0.6-0.2,0.8
		c-0.1,0.2-0.3,0.4-0.4,0.6s-0.4,0.3-0.6,0.4c-0.2,0.1-0.4,0.2-0.6,0.3c-0.5,0.2-1.1,0.3-1.7,0.4h-0.5c-0.8,0-1.6-0.1-2.1-0.4
		c-0.6-0.3-1.1-0.6-1.5-1c-0.4-0.4-0.7-0.8-0.9-1.3s-0.4-1-0.5-1.4s-0.2-0.9-0.2-1.2c0-0.4,0-0.7,0-0.8v-0.2v-10.1H59.3z"/>
	<path class="st2" d="M83.1,906.3c-0.1,1.1-0.3,2.1-0.8,2.9c-0.2,0.4-0.4,0.7-0.7,1.1c-0.3,0.3-0.6,0.7-1,0.9
		c-0.4,0.3-0.9,0.5-1.4,0.7c-0.5,0.2-1.2,0.2-1.9,0.2c-0.7,0-1.3-0.1-1.9-0.2c-0.5-0.2-1-0.4-1.4-0.7c-0.4-0.3-0.8-0.6-1-0.9
		c-0.3-0.3-0.5-0.7-0.7-1.1c-0.4-0.8-0.7-1.8-0.8-2.9V903h4.2v2.3h-1.9v1c0,0.4,0.1,0.8,0.2,1.2s0.2,0.6,0.4,0.9
		c0.2,0.2,0.4,0.5,0.6,0.6c0.2,0.2,0.4,0.3,0.7,0.4c0.5,0.3,1.1,0.4,1.8,0.4c0.7,0,1.3-0.2,1.8-0.4c0.2-0.1,0.4-0.3,0.7-0.4
		c0.2-0.2,0.4-0.4,0.6-0.6c0.2-0.2,0.3-0.5,0.4-0.9s0.2-0.7,0.2-1.2v-4.9c0-0.4-0.1-0.8-0.2-1.1c-0.1-0.3-0.2-0.6-0.4-0.8
		c-0.2-0.2-0.4-0.4-0.6-0.6c-0.2-0.2-0.4-0.3-0.7-0.4c-0.5-0.3-1.1-0.4-1.8-0.4h-0.2c-0.2,0-0.4,0-0.7,0.1c-0.3,0.1-0.6,0.2-1,0.3
		c-0.3,0.2-0.7,0.4-1,0.7c-0.3,0.3-0.5,0.7-0.7,1.3h-2.2c0.1-0.3,0.1-0.6,0.3-0.9c0.1-0.3,0.3-0.7,0.5-1.1c0.2-0.4,0.4-0.7,0.7-1.1
		c0.3-0.3,0.6-0.6,1-0.9c0.4-0.3,0.9-0.5,1.4-0.6c0.5-0.2,1.2-0.2,1.9-0.2c0.7,0,1.3,0.1,1.9,0.3c0.5,0.2,1,0.4,1.4,0.7
		s0.8,0.6,1,0.9c0.3,0.3,0.5,0.7,0.7,1.1c0.4,0.8,0.7,1.8,0.8,2.9V906.3z"/>
	<path class="st2" d="M96.6,895.6v11.7c0,0.7-0.1,1.3-0.3,1.8s-0.4,0.9-0.7,1.2c-0.3,0.3-0.6,0.6-1,0.8s-0.7,0.4-1,0.5
		c-0.3,0.1-0.6,0.2-0.9,0.2s-0.4,0.1-0.6,0.1h-2.8c-0.7,0-1.4-0.1-1.9-0.3c-0.5-0.2-1-0.4-1.3-0.7c-0.4-0.3-0.6-0.6-0.8-0.9
		c-0.2-0.3-0.4-0.7-0.5-1c-0.1-0.3-0.2-0.6-0.2-0.9c0-0.3,0-0.5,0-0.7c0-0.6,0.1-1.2,0.3-1.6c0.2-0.4,0.5-0.8,0.7-1.1
		c0.3-0.3,0.5-0.5,0.8-0.6c0.2-0.1,0.4-0.2,0.4-0.2c-0.3-0.1-0.6-0.2-0.8-0.3c-0.2-0.1-0.4-0.3-0.6-0.5s-0.3-0.4-0.4-0.6
		c-0.1-0.2-0.2-0.4-0.3-0.6c-0.2-0.5-0.3-1-0.3-1.6c0-0.6,0.1-1.1,0.2-1.6c0.1-0.4,0.2-0.8,0.4-1.2c0.2-0.3,0.4-0.6,0.6-0.8
		c0.2-0.2,0.4-0.4,0.7-0.6c0.5-0.3,1.1-0.5,1.8-0.6h3v2.3h-1.8c-0.3,0-0.6,0-0.9,0.1s-0.5,0.2-0.6,0.3c-0.2,0.1-0.3,0.2-0.5,0.4
		c-0.1,0.1-0.2,0.3-0.3,0.4c-0.2,0.4-0.3,0.8-0.3,1.2c0,0.4,0.1,0.7,0.2,1c0.1,0.3,0.3,0.5,0.5,0.7s0.4,0.3,0.6,0.4
		c0.2,0.1,0.4,0.2,0.6,0.2c0.2,0,0.4,0.1,0.5,0.1c0.1,0,0.2,0,0.3,0h1.8v2.3h-1.8c-0.4,0-0.7,0-1,0.1c-0.3,0.1-0.5,0.2-0.7,0.4
		c-0.2,0.1-0.3,0.3-0.4,0.5c-0.1,0.2-0.2,0.3-0.2,0.5c0,0.2-0.1,0.3-0.1,0.4s0,0.2,0,0.2c0,0.4,0.1,0.7,0.2,1
		c0.1,0.3,0.2,0.5,0.4,0.7c0.2,0.2,0.3,0.3,0.5,0.4c0.2,0.1,0.4,0.2,0.6,0.2c0.2,0,0.3,0.1,0.5,0.1c0.1,0,0.2,0,0.3,0h0.1h2.7
		c0.5,0,0.9-0.1,1.2-0.3c0.3-0.2,0.5-0.5,0.7-0.8c0.2-0.3,0.3-0.7,0.3-1.2v-11.7H96.6z"/>
	<path class="st2" d="M96.1,913.1v4.1c0,0.3-0.1,0.5-0.3,0.7c-0.2,0.2-0.4,0.3-0.6,0.3h-2.9c-0.3,0-0.5-0.1-0.6-0.3
		c-0.2-0.2-0.3-0.4-0.3-0.7V915h-0.9v-1.9h1.8c0.3,0,0.5,0.1,0.6,0.3c0.1,0.1,0.2,0.2,0.2,0.3c0,0.1,0.1,0.2,0.1,0.4v2.2h1.1v-3.2
		H96.1z"/>
	<path class="st2" d="M95.3,889.1v4.6h-2.1v-4.6H95.3z"/>
	<path class="st2" d="M99.6,911.9v-12.4c0.3-0.6,0.6-1.1,1-1.6c0.4-0.4,0.7-0.8,1.1-1.1c0.4-0.3,0.8-0.5,1.1-0.7
		c0.4-0.2,0.7-0.3,1-0.4s0.6-0.1,0.8-0.2c0.2,0,0.4,0,0.5,0h0.1c0.7,0,1.4,0.1,1.9,0.3c0.5,0.2,1,0.4,1.4,0.7c0.4,0.3,0.8,0.6,1,0.9
		c0.3,0.4,0.5,0.7,0.7,1.1s0.3,0.7,0.4,1.1s0.2,0.7,0.2,1c0.1,0.3,0.1,0.5,0.1,0.8s0,0.3,0,0.4v10.1h-2.2v-10.1
		c0-0.6-0.1-1.2-0.2-1.6c-0.2-0.4-0.4-0.8-0.6-1.1c-0.3-0.3-0.5-0.5-0.8-0.7c-0.3-0.2-0.6-0.3-0.9-0.3c-0.3-0.1-0.5-0.1-0.7-0.1
		c-0.2,0-0.3,0-0.4,0c-0.5,0-0.9,0.1-1.2,0.2c-0.3,0.1-0.6,0.3-0.9,0.4c-0.3,0.2-0.5,0.4-0.6,0.6c-0.2,0.2-0.3,0.5-0.4,0.7
		c-0.3,0.6-0.4,1.2-0.4,1.9v10.1H99.6z"/>
	<path class="st2" d="M106.8,890.2v1.2h5.6v2.3h-6.7c-0.2,0-0.4-0.1-0.6-0.2c-0.1-0.1-0.2-0.2-0.3-0.4c-0.1-0.2-0.1-0.3-0.1-0.5
		v-2.4H106.8z"/>
	<path class="st2" d="M125.7,895.6v10.7c-0.1,1.1-0.4,2.1-0.8,2.9c-0.2,0.4-0.4,0.7-0.7,1.1c-0.3,0.3-0.6,0.7-1,0.9
		c-0.4,0.3-0.9,0.5-1.4,0.7c-0.5,0.2-1.2,0.2-1.9,0.2c-0.7,0-1.3-0.1-1.9-0.2c-0.5-0.2-1-0.4-1.4-0.7c-0.4-0.3-0.8-0.6-1-0.9
		c-0.3-0.3-0.5-0.7-0.7-1.1c-0.4-0.8-0.7-1.8-0.8-2.9v-10.7h2.2v10.7c0,0.4,0.1,0.8,0.2,1.2s0.2,0.6,0.4,0.9
		c0.2,0.2,0.4,0.5,0.6,0.6c0.2,0.2,0.4,0.3,0.7,0.4c0.5,0.3,1.1,0.4,1.8,0.4c0.7,0,1.3-0.2,1.8-0.4c0.2-0.1,0.4-0.3,0.7-0.4
		c0.2-0.2,0.4-0.4,0.6-0.6c0.2-0.2,0.3-0.5,0.4-0.9s0.2-0.7,0.2-1.2v-10.7H125.7z"/>
	<path class="st2" d="M128.6,911.9v-12.4c0.3-0.6,0.6-1.1,1-1.6c0.4-0.4,0.7-0.8,1.1-1.1c0.4-0.3,0.8-0.5,1.1-0.7
		c0.4-0.2,0.7-0.3,1-0.4c0.3-0.1,0.6-0.1,0.8-0.2s0.4,0,0.5,0h0.1c0.7,0,1.4,0.1,1.9,0.3s1,0.4,1.4,0.7c0.4,0.3,0.8,0.6,1,0.9
		c0.3,0.4,0.5,0.7,0.7,1.1c0.2,0.4,0.3,0.7,0.4,1.1s0.2,0.7,0.2,1c0.1,0.3,0.1,0.5,0.1,0.8s0,0.3,0,0.4v10.1h-2.2v-10.1
		c0-0.6-0.1-1.2-0.2-1.6c-0.2-0.4-0.4-0.8-0.6-1.1c-0.3-0.3-0.5-0.5-0.8-0.7c-0.3-0.2-0.6-0.3-0.9-0.3c-0.3-0.1-0.5-0.1-0.7-0.1
		c-0.2,0-0.3,0-0.4,0c-0.5,0-0.9,0.1-1.2,0.2c-0.3,0.1-0.6,0.3-0.9,0.4c-0.3,0.2-0.5,0.4-0.6,0.6c-0.2,0.2-0.3,0.5-0.4,0.7
		c-0.3,0.6-0.4,1.2-0.4,1.9v10.1H128.6z"/>
	<path class="st2" d="M153.8,897.3c0.3,0.4,0.5,0.8,0.7,1.3c0.2,0.5,0.3,1,0.3,1.6v11.8h-2.2V901c0-0.7-0.1-1.2-0.3-1.7
		c-0.2-0.5-0.5-0.9-0.9-1.1l-2.4,1.7l-2.4-1.7c-0.4,0.3-0.7,0.7-0.9,1.1c-0.2,0.5-0.3,1.1-0.3,1.7v5.8c0,0.5,0.1,1,0.3,1.4
		c0.1,0.2,0.2,0.3,0.3,0.5c0.1,0.2,0.3,0.3,0.4,0.4c0.2,0.1,0.4,0.2,0.6,0.3s0.5,0.1,0.8,0.1h1.6v2.3h-3c-0.6-0.1-1.2-0.2-1.7-0.6
		c-0.2-0.2-0.4-0.3-0.6-0.6c-0.2-0.2-0.4-0.5-0.5-0.8c-0.2-0.3-0.3-0.7-0.4-1.2s-0.1-1-0.1-1.6v-7c0.1-1.1,0.5-2.1,1-2.9
		c0.6-0.8,1.3-1.4,2.2-1.7l2.6,1.8l2.6-1.8C152.5,895.9,153.2,896.5,153.8,897.3z"/>
	<path class="st2" d="M154.1,891.4v2.3h-8.3v-2.3H154.1z"/>
	<path class="st2" d="M157.7,911.9v-12.4c0.3-0.6,0.6-1.1,1-1.6c0.4-0.4,0.7-0.8,1.1-1.1c0.4-0.3,0.8-0.5,1.1-0.7
		c0.4-0.2,0.7-0.3,1-0.4c0.3-0.1,0.6-0.1,0.8-0.2s0.4,0,0.5,0h0.1c0.7,0,1.4,0.1,1.9,0.3c0.5,0.2,1,0.4,1.4,0.7
		c0.4,0.3,0.8,0.6,1,0.9c0.3,0.4,0.5,0.7,0.7,1.1c0.2,0.4,0.3,0.7,0.4,1.1c0.1,0.4,0.2,0.7,0.2,1c0.1,0.3,0.1,0.5,0.1,0.8
		c0,0.2,0,0.3,0,0.4v10.1h-2.2v-10.1c0-0.6-0.1-1.2-0.2-1.6c-0.2-0.4-0.4-0.8-0.6-1.1c-0.3-0.3-0.5-0.5-0.8-0.7
		c-0.3-0.2-0.6-0.3-0.9-0.3c-0.3-0.1-0.5-0.1-0.7-0.1c-0.2,0-0.3,0-0.4,0c-0.5,0-0.9,0.1-1.2,0.2c-0.3,0.1-0.6,0.3-0.9,0.4
		s-0.5,0.4-0.6,0.6c-0.2,0.2-0.3,0.5-0.4,0.7c-0.3,0.6-0.4,1.2-0.4,1.9v10.1H157.7z"/>
	<path class="st2" d="M174.3,895.5c0.1,0,0.2,0,0.4,0c0.2,0,0.5,0.1,0.8,0.2c0.3,0.1,0.6,0.2,0.9,0.4c0.3,0.2,0.6,0.5,0.9,0.8
		c0.3,0.4,0.5,0.8,0.7,1.3c0.2,0.5,0.3,1.2,0.3,2v11.6h-2.2v-11.6c0-0.4-0.1-0.8-0.2-1.2c-0.1-0.2-0.1-0.3-0.2-0.4
		c-0.1-0.1-0.2-0.3-0.3-0.4s-0.3-0.2-0.4-0.3s-0.4-0.1-0.6-0.1c-0.4,0-0.7,0-0.9,0.1c-0.3,0.1-0.5,0.2-0.6,0.3s-0.3,0.2-0.4,0.4
		s-0.2,0.2-0.2,0.2l-1.5-1.7c0.2-0.3,0.5-0.6,0.9-0.9c0.3-0.2,0.7-0.4,1.1-0.6C173.1,895.6,173.7,895.5,174.3,895.5z"/>
	<path class="st2" d="M190.7,911.9v-10.1c0-0.6-0.1-1.2-0.2-1.6c-0.2-0.4-0.4-0.8-0.6-1.1c-0.2-0.3-0.5-0.5-0.8-0.7
		c-0.3-0.2-0.6-0.3-0.8-0.3c-0.3-0.1-0.5-0.1-0.7-0.1c-0.2,0-0.3,0-0.4,0c-0.6,0-1.1,0.1-1.5,0.3c-0.4,0.2-0.7,0.4-1,0.7
		c-0.3,0.3-0.5,0.6-0.6,0.9c-0.1,0.3-0.3,0.6-0.3,0.9s-0.1,0.5-0.1,0.7c0,0.2,0,0.3,0,0.4v10.1h-2.2v-16.2h2.2v2.3
		c0-0.3,0.1-0.6,0.2-0.8c0.1-0.2,0.3-0.4,0.4-0.6c0.2-0.2,0.4-0.3,0.6-0.4c0.2-0.1,0.4-0.2,0.6-0.3c0.5-0.2,1.1-0.3,1.7-0.3h0.5
		c0.8,0,1.6,0.1,2.1,0.4c0.6,0.2,1.1,0.6,1.5,1c0.4,0.4,0.7,0.8,0.9,1.3c0.2,0.5,0.4,0.9,0.5,1.4s0.2,0.9,0.2,1.2c0,0.4,0,0.6,0,0.8
		v0.2v10.1H190.7z"/>
	<path class="st2" d="M191.2,890v3.7h-8.3v-2.3h6.2V890H191.2z"/>
	<path class="st2" d="M191.7,882.9v4.6h-2.1v-4.6H191.7z"/>
	<path class="st2" d="M203.5,895.8c0.5,0.2,1,0.4,1.4,0.7c0.4,0.3,0.8,0.6,1,0.9c0.3,0.4,0.5,0.7,0.7,1.1s0.3,0.7,0.4,1.1
		c0.1,0.4,0.2,0.7,0.2,1c0.1,0.3,0.1,0.5,0.1,0.8s0,0.3,0,0.4v10.1h-2.2v-10.1c0-0.6-0.1-1.2-0.2-1.6c-0.2-0.4-0.4-0.8-0.6-1.1
		c-0.3-0.3-0.5-0.5-0.8-0.7c-0.3-0.2-0.6-0.3-0.9-0.3c-0.3-0.1-0.5-0.1-0.7-0.1c-0.2,0-0.3,0-0.4,0c-0.5,0-0.9,0.1-1.2,0.2
		c-0.3,0.1-0.6,0.3-0.9,0.4c-0.3,0.2-0.5,0.4-0.6,0.6c-0.2,0.2-0.3,0.5-0.4,0.7c-0.3,0.6-0.4,1.2-0.4,1.9v7.8h1.4v2.3h-3.6v-12.4
		c0.3-0.6,0.6-1.1,1-1.6c0.4-0.4,0.7-0.8,1.1-1.1c0.4-0.3,0.8-0.5,1.1-0.7c0.4-0.2,0.7-0.3,1-0.4c0.3-0.1,0.6-0.1,0.8-0.2
		s0.4,0,0.5,0h0.1C202.3,895.6,203,895.7,203.5,895.8z"/>
	<path class="st2" d="M206.8,913.1v4.1c0,0.3-0.1,0.5-0.3,0.7c-0.2,0.2-0.4,0.3-0.6,0.3H203c-0.3,0-0.5-0.1-0.6-0.3
		c-0.2-0.2-0.3-0.4-0.3-0.7V915h-0.9v-1.9h1.8c0.3,0,0.5,0.1,0.6,0.3c0.1,0.1,0.2,0.2,0.2,0.3c0,0.1,0.1,0.2,0.1,0.4v2.2h1.1v-3.2
		H206.8z"/>
	<path class="st2" d="M210.2,911.9v-12.4c0.3-0.6,0.6-1.1,1-1.6c0.4-0.4,0.7-0.8,1.1-1.1c0.4-0.3,0.8-0.5,1.1-0.7
		c0.4-0.2,0.7-0.3,1-0.4c0.3-0.1,0.6-0.1,0.8-0.2s0.4,0,0.5,0h0.1c0.7,0,1.4,0.1,1.9,0.3c0.5,0.2,1,0.4,1.4,0.7
		c0.4,0.3,0.8,0.6,1,0.9c0.3,0.4,0.5,0.7,0.7,1.1c0.2,0.4,0.3,0.7,0.4,1.1c0.1,0.4,0.2,0.7,0.2,1c0.1,0.3,0.1,0.5,0.1,0.8
		c0,0.2,0,0.3,0,0.4v10.1h-2.2v-10.1c0-0.6-0.1-1.2-0.2-1.6c-0.2-0.4-0.4-0.8-0.6-1.1c-0.3-0.3-0.5-0.5-0.8-0.7
		c-0.3-0.2-0.6-0.3-0.9-0.3c-0.3-0.1-0.5-0.1-0.7-0.1c-0.2,0-0.3,0-0.4,0c-0.5,0-0.9,0.1-1.2,0.2c-0.3,0.1-0.6,0.3-0.9,0.4
		s-0.5,0.4-0.6,0.6c-0.2,0.2-0.3,0.5-0.4,0.7c-0.3,0.6-0.4,1.2-0.4,1.9v10.1H210.2z"/>
	<path class="st2" d="M224.7,911.9v-12.4c0.3-0.6,0.6-1.1,1-1.6c0.4-0.4,0.7-0.8,1.1-1.1c0.4-0.3,0.8-0.5,1.1-0.7
		c0.4-0.2,0.7-0.3,1-0.4c0.3-0.1,0.6-0.1,0.8-0.2s0.4,0,0.5,0h0.1c0.7,0,1.4,0.1,1.9,0.3c0.5,0.2,1,0.4,1.4,0.7
		c0.4,0.3,0.8,0.6,1,0.9c0.3,0.4,0.5,0.7,0.7,1.1s0.3,0.7,0.4,1.1c0.1,0.4,0.2,0.7,0.2,1c0.1,0.3,0.1,0.5,0.1,0.8s0,0.3,0,0.4v10.1
		h-2.2v-10.1c0-0.6-0.1-1.2-0.2-1.6c-0.2-0.4-0.4-0.8-0.6-1.1c-0.3-0.3-0.5-0.5-0.8-0.7c-0.3-0.2-0.6-0.3-0.9-0.3
		c-0.3-0.1-0.5-0.1-0.7-0.1c-0.2,0-0.3,0-0.4,0c-0.5,0-0.9,0.1-1.2,0.2c-0.3,0.1-0.6,0.3-0.9,0.4c-0.3,0.2-0.5,0.4-0.6,0.6
		c-0.2,0.2-0.3,0.5-0.4,0.7c-0.3,0.6-0.4,1.2-0.4,1.9v10.1H224.7z"/>
	<path class="st2" d="M232.5,888.7c0.4,0,0.7,0.1,1,0.2c0.3,0.1,0.6,0.3,0.8,0.6c0.2,0.3,0.4,0.6,0.6,0.9c0.1,0.3,0.2,0.7,0.2,1.1
		s-0.1,0.8-0.2,1.1c-0.1,0.3-0.3,0.6-0.6,0.9c-0.2,0.3-0.5,0.5-0.8,0.6s-0.7,0.2-1,0.2c-0.4,0-0.7-0.1-1-0.2s-0.6-0.3-0.8-0.6
		c-0.2-0.3-0.4-0.6-0.6-0.9c-0.1-0.3-0.2-0.7-0.2-1.1s0.1-0.8,0.2-1.1c0.1-0.3,0.3-0.6,0.6-0.9c0.2-0.3,0.5-0.5,0.8-0.6
		C231.8,888.8,232.1,888.7,232.5,888.7z M232.5,892.5c0.2,0,0.4-0.1,0.6-0.3c0.2-0.2,0.3-0.4,0.3-0.7s-0.1-0.5-0.3-0.7
		c-0.2-0.2-0.4-0.3-0.6-0.3s-0.4,0.1-0.6,0.3s-0.3,0.4-0.3,0.7s0.1,0.5,0.3,0.7S232.2,892.5,232.5,892.5z M241.9,895.5
		c0.1,0,0.2,0,0.4,0c0.2,0,0.5,0.1,0.8,0.2c0.3,0.1,0.6,0.2,0.9,0.4c0.3,0.2,0.6,0.5,0.9,0.8c0.3,0.4,0.5,0.8,0.7,1.3
		c0.2,0.5,0.3,1.2,0.3,2v11.6h-2.2v-11.6c0-0.4-0.1-0.8-0.2-1.2c-0.1-0.2-0.1-0.3-0.2-0.4c-0.1-0.1-0.2-0.3-0.3-0.4
		c-0.1-0.1-0.3-0.2-0.4-0.3c-0.2-0.1-0.3-0.1-0.6-0.1c-0.4,0-0.7,0-0.9,0.1c-0.3,0.1-0.5,0.2-0.6,0.3s-0.3,0.2-0.4,0.4
		s-0.2,0.2-0.2,0.2l-1.5-1.7c0.2-0.3,0.5-0.6,0.9-0.9c0.3-0.2,0.7-0.4,1.1-0.6S241.3,895.5,241.9,895.5z"/>
	<path class="st2" d="M248.9,895.6h2.2v4.2h5c0.3,0,0.5-0.1,0.7-0.3c0.2-0.1,0.4-0.3,0.6-0.6s0.3-0.6,0.4-1.1v-2.1h2.2v2.4
		c0,0.1,0,0.3-0.1,0.6s-0.1,0.5-0.3,0.8c-0.1,0.3-0.2,0.6-0.4,0.8c-0.2,0.3-0.4,0.5-0.6,0.8c0.3,0.3,0.5,0.6,0.8,1
		c0.2,0.3,0.4,0.7,0.5,1.2c0.2,0.5,0.2,1,0.2,1.6v7h-2.2v-7c0-0.3-0.1-0.5-0.1-0.7s-0.1-0.4-0.2-0.7s-0.2-0.5-0.4-0.7
		c-0.1-0.2-0.3-0.4-0.5-0.5c-0.2-0.1-0.5-0.2-0.8-0.2h-5v9.9h-2.2V895.6z"/>
	<path class="st2" d="M265.4,895.6v10.1c0,0.7,0.1,1.3,0.2,1.7c0.2,0.5,0.4,0.9,0.6,1.2s0.5,0.5,0.8,0.7c0.3,0.2,0.6,0.3,0.8,0.4
		c0.3,0.1,0.5,0.1,0.7,0.1c0.2,0,0.3,0,0.4,0c0.6,0,1.1-0.1,1.5-0.3c0.4-0.2,0.7-0.4,1-0.7c0.3-0.3,0.5-0.6,0.6-0.9s0.3-0.7,0.3-1
		c0.1-0.3,0.1-0.6,0.1-0.8s0-0.4,0-0.4v-10.1h2.2v16.2h-2.2v-2.3c0,0.3-0.1,0.6-0.2,0.8c-0.1,0.2-0.3,0.4-0.4,0.6s-0.4,0.3-0.6,0.4
		s-0.4,0.2-0.6,0.3c-0.5,0.2-1.1,0.3-1.7,0.4h-0.5c-0.8,0-1.6-0.1-2.1-0.4c-0.6-0.3-1.1-0.6-1.5-1c-0.4-0.4-0.7-0.8-0.9-1.3
		s-0.4-1-0.5-1.4s-0.2-0.9-0.2-1.2c0-0.4,0-0.7,0-0.8v-0.2v-10.1H265.4z"/>
	<path class="st2" d="M287.2,911.9v-10.2c0-0.7-0.2-1.3-0.5-1.8c-0.1-0.2-0.3-0.5-0.5-0.7c-0.2-0.2-0.4-0.4-0.7-0.6
		s-0.6-0.3-0.9-0.4c-0.4-0.1-0.8-0.2-1.2-0.2c-0.5,0-0.9,0.1-1.2,0.2c-0.4,0.1-0.7,0.2-0.9,0.4s-0.5,0.4-0.7,0.6s-0.3,0.4-0.5,0.7
		c-0.3,0.5-0.5,1.2-0.5,1.8v5.3c0,0.3,0.1,0.7,0.2,1c0.1,0.3,0.2,0.5,0.3,0.8c0.1,0.3,0.3,0.5,0.6,0.7c0.3,0.2,0.6,0.3,0.9,0.3
		c0.3,0,0.5-0.1,0.7-0.2c0.2-0.1,0.4-0.3,0.5-0.4l1.4,1.6c-0.2,0.2-0.5,0.5-0.8,0.6c-0.2,0.2-0.5,0.3-0.9,0.4
		c-0.3,0.1-0.7,0.2-1.1,0.2c-0.1,0-0.3,0-0.4,0c-0.1,0-0.3,0-0.4-0.1c-0.5-0.1-1-0.4-1.4-0.7c-0.4-0.3-0.8-0.7-1-1.2
		c-0.3-0.4-0.5-0.9-0.6-1.5c-0.1-0.5-0.2-1.1-0.2-1.7v-5.3c0.1-1,0.3-1.8,0.5-2.5c0.3-0.7,0.6-1.2,1-1.7c0.4-0.4,0.8-0.8,1.2-1.1
		c0.4-0.3,0.9-0.5,1.3-0.6s0.8-0.2,1.1-0.2c0.3,0,0.6-0.1,0.7-0.1h0.2h0.2c0.2,0,0.4,0,0.7,0.1c0.3,0,0.7,0.1,1.1,0.2
		s0.8,0.3,1.3,0.6c0.4,0.3,0.9,0.6,1.2,1.1c0.4,0.4,0.7,1,1,1.7c0.3,0.7,0.5,1.5,0.6,2.5v10.2H287.2z"/>
	<path class="st2" d="M293.6,885.1c0.4,0.2,0.7,0.4,0.9,0.6c0.3,0.2,0.5,0.5,0.7,0.8c0.2,0.3,0.3,0.5,0.4,0.8
		c0.3,0.6,0.4,1.4,0.5,2.1v22.4h-2.2v-22.4c0-0.2-0.1-0.4-0.2-0.6s-0.2-0.4-0.3-0.6c-0.1-0.2-0.3-0.4-0.5-0.6l-1.8,1.9l-2.2-3.1
		l1.4-1.4l0.9,1.5l1.1-1.7C292.8,884.9,293.2,885,293.6,885.1z"/>
	<path class="st2" d="M303.3,895.5c0.1,0,0.3,0,0.6,0c0.3,0,0.6,0.1,1,0.2s0.7,0.3,1.1,0.5c0.4,0.2,0.8,0.6,1.1,1
		c0.3,0.4,0.6,0.9,0.8,1.6c0.2,0.6,0.3,1.4,0.3,2.3v5.4c0,1-0.3,2-0.6,2.8c-0.2,0.3-0.4,0.7-0.6,1s-0.5,0.6-0.9,0.9
		c-0.4,0.3-0.8,0.5-1.2,0.6s-1,0.2-1.6,0.2c-0.6,0-1.2-0.1-1.7-0.2c-0.5-0.2-0.9-0.4-1.3-0.7c-0.4-0.3-0.7-0.6-0.9-0.9
		c-0.2-0.3-0.4-0.7-0.6-1c0.1-0.1,0.2-0.1,0.4-0.3c0.2-0.1,0.3-0.2,0.5-0.3c0.2-0.1,0.4-0.2,0.5-0.3c0.2-0.1,0.3-0.2,0.4-0.2
		c0.2,0.4,0.4,0.8,0.7,1c0.3,0.2,0.6,0.4,0.9,0.5c0.3,0.1,0.7,0.2,1.1,0.2c0.5-0.1,1-0.2,1.4-0.5c0.2-0.1,0.3-0.2,0.5-0.4
		c0.2-0.2,0.3-0.4,0.4-0.6c0.1-0.2,0.2-0.5,0.3-0.8c0.1-0.3,0.1-0.6,0.1-1v-5.4c0-0.6-0.2-1.1-0.4-1.6c-0.1-0.2-0.2-0.4-0.3-0.6
		s-0.3-0.4-0.5-0.5c-0.2-0.2-0.4-0.3-0.7-0.4c-0.3-0.1-0.6-0.1-0.9-0.1c-0.5,0-0.9,0-1.2,0.1c-0.3,0.1-0.6,0.2-0.9,0.4
		c-0.3,0.2-0.5,0.5-0.7,0.8c-0.2,0.3-0.4,0.7-0.5,1.2h-2.3c0.1-0.7,0.2-1.4,0.5-2c0.2-0.6,0.6-1.1,1-1.6c0.4-0.4,1-0.8,1.7-1
		S302.3,895.5,303.3,895.5L303.3,895.5L303.3,895.5z"/>
	<path class="st2" d="M308,891.5v2.3h-6.2v-3h-1.1v-2.3h2.2c0.2,0,0.3,0.1,0.5,0.2c0.1,0.1,0.2,0.2,0.3,0.3c0.1,0.1,0.2,0.3,0.2,0.6
		v2H308z"/>
	<path class="st2" d="M324.6,895.6v12.3c-0.1,0.8-0.3,1.5-0.6,2.1c-0.1,0.3-0.3,0.5-0.5,0.8c-0.2,0.2-0.5,0.5-0.8,0.7
		c-0.3,0.2-0.6,0.4-1,0.5s-0.8,0.2-1.3,0.2c-0.4,0-0.7-0.1-1-0.2c-0.3-0.1-0.6-0.3-0.8-0.5c-0.2-0.2-0.4-0.5-0.6-0.8
		s-0.2-0.7-0.2-1.1c0,0.4-0.1,0.8-0.2,1.1c-0.1,0.3-0.3,0.6-0.6,0.8c-0.2,0.2-0.5,0.4-0.8,0.5c-0.3,0.1-0.7,0.2-1,0.2
		c-0.5,0-0.9-0.1-1.3-0.2s-0.7-0.3-1-0.5c-0.3-0.2-0.5-0.4-0.7-0.7c-0.2-0.2-0.4-0.5-0.5-0.8c-0.3-0.6-0.5-1.3-0.6-2.1v-12.3h3.6
		v2.3h-1.4v9.1c0,0.7,0.1,1.3,0.2,1.6c0.2,0.4,0.3,0.7,0.6,0.8c0.2,0.2,0.4,0.3,0.6,0.3s0.4,0,0.5,0h0.1c0.4,0,0.7-0.1,0.9-0.3
		c0.2-0.2,0.4-0.5,0.5-0.8s0.2-0.6,0.2-0.9c0-0.3,0-0.5,0-0.7V907v-11.4h2V907v0.2c0,0.2,0,0.4,0.1,0.7s0.1,0.6,0.2,0.9
		c0.1,0.3,0.3,0.5,0.5,0.8c0.2,0.2,0.5,0.3,0.9,0.3h0.1c0.1,0,0.3,0,0.5,0s0.4-0.1,0.6-0.3c0.2-0.2,0.4-0.5,0.5-0.8
		c0.2-0.4,0.2-0.9,0.2-1.6v-11.4H324.6z"/>
	<path class="st2" d="M322.8,889.1v4.6h-2.1v-4.6H322.8z"/>
	<path class="st2" d="M329.3,895.5c0.1,0,0.2,0,0.4,0c0.2,0,0.5,0.1,0.8,0.2c0.3,0.1,0.6,0.2,0.9,0.4c0.3,0.2,0.6,0.5,0.9,0.8
		c0.3,0.4,0.5,0.8,0.7,1.3c0.2,0.5,0.3,1.2,0.3,2v11.6h-2.2v-11.6c0-0.4-0.1-0.8-0.2-1.2c-0.1-0.2-0.1-0.3-0.2-0.4
		c-0.1-0.1-0.2-0.3-0.3-0.4s-0.3-0.2-0.4-0.3s-0.4-0.1-0.6-0.1c-0.4,0-0.7,0-0.9,0.1c-0.3,0.1-0.5,0.2-0.6,0.3s-0.3,0.2-0.4,0.4
		s-0.2,0.2-0.2,0.2l-1.5-1.7c0.2-0.3,0.5-0.6,0.9-0.9c0.3-0.2,0.7-0.4,1.1-0.6C328.1,895.6,328.7,895.5,329.3,895.5z"/>
	<path class="st2" d="M338.5,895.6v10.1c0,0.7,0.1,1.3,0.2,1.7c0.2,0.5,0.4,0.9,0.6,1.2s0.5,0.5,0.8,0.7c0.3,0.2,0.6,0.3,0.8,0.4
		c0.3,0.1,0.5,0.1,0.7,0.1c0.2,0,0.3,0,0.4,0c0.6,0,1.1-0.1,1.5-0.3c0.4-0.2,0.7-0.4,1-0.7c0.3-0.3,0.5-0.6,0.6-0.9s0.3-0.7,0.3-1
		c0.1-0.3,0.1-0.6,0.1-0.8s0-0.4,0-0.4v-10.1h2.2v16.2h-2.2v-2.3c0,0.3-0.1,0.6-0.2,0.8c-0.1,0.2-0.3,0.4-0.4,0.6s-0.4,0.3-0.6,0.4
		s-0.4,0.2-0.6,0.3c-0.5,0.2-1.1,0.3-1.7,0.4h-0.5c-0.8,0-1.6-0.1-2.1-0.4c-0.6-0.3-1.1-0.6-1.5-1c-0.4-0.4-0.7-0.8-0.9-1.3
		s-0.4-1-0.5-1.4s-0.2-0.9-0.2-1.2c0-0.4,0-0.7,0-0.8v-0.2v-10.1H338.5z"/>
	<path class="st2" d="M353.1,911.9h-2.3v-16.2h2.3V911.9z"/>
	<path class="st2" d="M360.5,895.5c0.1,0,0.3,0,0.6,0c0.3,0,0.6,0.1,1,0.2c0.4,0.1,0.7,0.3,1.1,0.5c0.4,0.2,0.8,0.6,1.1,1
		c0.3,0.4,0.6,0.9,0.8,1.6c0.2,0.6,0.3,1.4,0.3,2.3v5.4c0,1-0.3,2-0.6,2.8c-0.2,0.3-0.4,0.7-0.6,1s-0.5,0.6-0.9,0.9
		c-0.4,0.3-0.8,0.5-1.2,0.6s-1,0.2-1.6,0.2c-0.6,0-1.2-0.1-1.7-0.2c-0.5-0.2-0.9-0.4-1.3-0.7c-0.4-0.3-0.7-0.6-0.9-0.9
		c-0.2-0.3-0.4-0.7-0.6-1c0.1-0.1,0.2-0.1,0.4-0.3c0.2-0.1,0.3-0.2,0.5-0.3s0.4-0.2,0.5-0.3c0.2-0.1,0.3-0.2,0.4-0.2
		c0.2,0.4,0.4,0.8,0.7,1s0.6,0.4,0.9,0.5c0.3,0.1,0.7,0.2,1.1,0.2c0.5-0.1,1-0.2,1.4-0.5c0.2-0.1,0.3-0.2,0.5-0.4
		c0.2-0.2,0.3-0.4,0.4-0.6c0.1-0.2,0.2-0.5,0.3-0.8c0.1-0.3,0.1-0.6,0.1-1v-5.4c0-0.6-0.2-1.1-0.4-1.6c-0.1-0.2-0.2-0.4-0.3-0.6
		c-0.1-0.2-0.3-0.4-0.5-0.5c-0.2-0.2-0.4-0.3-0.7-0.4c-0.3-0.1-0.6-0.1-0.9-0.1c-0.5,0-0.9,0-1.2,0.1c-0.3,0.1-0.6,0.2-0.9,0.4
		c-0.3,0.2-0.5,0.5-0.7,0.8c-0.2,0.3-0.4,0.7-0.5,1.2h-2.3c0.1-0.7,0.2-1.4,0.5-2c0.2-0.6,0.6-1.1,1-1.6c0.5-0.4,1-0.8,1.7-1
		S359.5,895.5,360.5,895.5L360.5,895.5L360.5,895.5z"/>
	<path class="st2" d="M364.2,889.4h-6.3c-0.1,0-0.2,0-0.3,0.1c-0.1,0.1-0.2,0.2-0.2,0.3s-0.1,0.2-0.1,0.4c0,0.1,0,0.3,0,0.4
		c0,0.1,0,0.3,0,0.4c0,0.1,0.1,0.3,0.1,0.4c0.1,0.1,0.1,0.2,0.2,0.3c0.1,0.1,0.2,0.1,0.3,0.1c0.1,0,0.3,0,0.4-0.1
		c0.1-0.1,0.2-0.2,0.2-0.3c0-0.1,0.1-0.2,0.1-0.3s0-0.2,0-0.3v-0.2h1.7v0.1c0,0.1,0,0.2,0,0.3c0,0.1,0,0.3,0.1,0.4
		c0,0.1,0.1,0.2,0.2,0.3c0.1,0.1,0.2,0.1,0.4,0.1s0.3,0,0.4-0.1c0.1-0.1,0.2-0.2,0.2-0.3c0-0.1,0.1-0.2,0.1-0.4c0-0.1,0-0.2,0-0.3
		v-0.2h1.8c0,0.6-0.1,1.2-0.2,1.6c-0.2,0.4-0.4,0.7-0.6,1c-0.2,0.2-0.5,0.4-0.8,0.5c-0.3,0.1-0.5,0.1-0.8,0.1s-0.5,0-0.6-0.1
		s-0.4-0.1-0.5-0.2c-0.2-0.1-0.3-0.2-0.4-0.3c0,0-0.1,0.1-0.2,0.2c-0.1,0.1-0.2,0.1-0.4,0.2c-0.1,0.1-0.3,0.1-0.5,0.2
		c-0.2,0.1-0.3,0.1-0.5,0.1c-0.1,0-0.2,0-0.4,0c-0.2,0-0.3-0.1-0.5-0.1c-0.2-0.1-0.4-0.2-0.5-0.3c-0.2-0.1-0.4-0.3-0.5-0.6
		c-0.1-0.2-0.3-0.5-0.4-0.9c-0.1-0.3-0.1-0.8-0.1-1.3c0-0.7,0.1-1.3,0.3-1.7c0.2-0.4,0.5-0.8,0.8-1.1c0.3-0.3,0.6-0.4,0.8-0.5
		c0.3-0.1,0.4-0.2,0.5-0.2h6.3V889.4z"/>
	<path class="st2" d="M379.6,895.6v10.7c-0.1,1.1-0.4,2.1-0.8,2.9c-0.2,0.4-0.4,0.7-0.7,1.1c-0.3,0.3-0.6,0.7-1,0.9
		c-0.4,0.3-0.9,0.5-1.4,0.7c-0.5,0.2-1.2,0.2-1.9,0.2c-0.7,0-1.3-0.1-1.9-0.2c-0.5-0.2-1-0.4-1.4-0.7c-0.4-0.3-0.8-0.6-1-0.9
		c-0.3-0.3-0.5-0.7-0.7-1.1c-0.4-0.8-0.7-1.8-0.8-2.9v-10.7h2.2v10.7c0,0.4,0.1,0.8,0.2,1.2c0.1,0.3,0.2,0.6,0.4,0.9
		c0.2,0.2,0.4,0.5,0.6,0.6s0.4,0.3,0.7,0.4c0.5,0.3,1.1,0.4,1.8,0.4c0.7,0,1.3-0.2,1.8-0.4c0.2-0.1,0.4-0.3,0.7-0.4s0.4-0.4,0.6-0.6
		c0.2-0.2,0.3-0.5,0.4-0.9s0.2-0.7,0.2-1.2v-10.7H379.6z"/>
	<path class="st2" d="M383.8,885.1c0.4,0.2,0.7,0.4,0.9,0.6c0.3,0.2,0.5,0.5,0.7,0.8c0.2,0.3,0.3,0.5,0.4,0.8
		c0.3,0.6,0.4,1.4,0.5,2.1v22.4H384v-22.4c0-0.2-0.1-0.4-0.2-0.6s-0.2-0.4-0.3-0.6c-0.1-0.2-0.3-0.4-0.5-0.6l-1.8,1.9l-2.2-3.1
		l1.4-1.4l0.9,1.5l1.1-1.7C383,884.9,383.4,885,383.8,885.1z"/>
	<path class="st2" d="M398.1,898.9c1,0.3,1.5,0.9,1.6,2v5.7c0,0.9-0.1,1.7-0.4,2.3c-0.2,0.6-0.5,1.2-0.9,1.6c-0.4,0.4-0.8,0.7-1.2,1
		c-0.4,0.2-0.8,0.4-1.2,0.5c-0.4,0.1-0.7,0.2-1,0.2s-0.5,0-0.6,0c-0.9,0-1.6-0.1-2.2-0.4c-0.6-0.3-1.1-0.6-1.5-1
		c-0.4-0.4-0.7-0.8-0.9-1.3c-0.2-0.5-0.4-0.9-0.5-1.3c-0.1-0.4-0.2-0.8-0.2-1.1c0-0.3,0-0.5,0-0.6c0-0.5,0.1-1,0.2-1.4
		c0.1-0.4,0.3-0.8,0.5-1.2c0.2-0.3,0.4-0.7,0.7-0.9c0.3-0.3,0.5-0.5,0.7-0.8c0.2-0.3,0.4-0.5,0.6-0.7s0.3-0.5,0.3-0.7
		c0-0.1,0-0.1,0-0.2s0-0.1,0-0.2c0-0.2,0-0.4-0.1-0.6s-0.1-0.4-0.2-0.5l-1.1,1.1l-2.6-3.1l1.5-1.6l1.2,1.4l1.3-1.4l1.4,1.6
		c0.2,0.2,0.3,0.5,0.4,0.8c0.1,0.3,0.2,0.6,0.2,0.9c0.1,0.3,0.1,0.6,0.1,0.8c0,0.3,0,0.5,0,0.6v0.3c0,0.3-0.1,0.6-0.2,0.9
		c-0.1,0.3-0.2,0.5-0.4,0.8c-0.1,0.3-0.3,0.5-0.5,0.8c-0.4,0.5-0.8,1-1,1.4c-0.2,0.4-0.4,0.8-0.5,1.1c-0.1,0.3-0.2,0.5-0.2,0.7
		c0,0.2,0,0.3,0,0.4c0,0.5,0.1,1,0.2,1.4c0.1,0.4,0.3,0.7,0.5,0.9c0.2,0.2,0.4,0.4,0.7,0.6c0.2,0.1,0.5,0.2,0.7,0.3
		c0.2,0.1,0.4,0.1,0.6,0.1s0.3,0,0.3,0c0.5,0,0.8-0.1,1.2-0.2s0.6-0.3,0.8-0.6s0.4-0.5,0.5-0.7c0.1-0.3,0.2-0.5,0.3-0.8
		s0.1-0.5,0.1-0.6c0-0.2,0-0.3,0-0.4v-5.2c0-1-0.7-1.5-2-1.5h-0.7V898h0.7c0.7,0,1.2-0.2,1.5-0.5c0.3-0.3,0.5-0.8,0.5-1.4v-0.5h2.2
		v1C399.8,897.8,399.2,898.6,398.1,898.9z"/>
	<path class="st2" d="M413.6,897.3c0.3,0.4,0.5,0.8,0.7,1.3c0.2,0.5,0.3,1,0.3,1.6v11.8h-2.2V901c0-0.7-0.1-1.2-0.3-1.7
		c-0.2-0.5-0.5-0.9-0.9-1.1l-2.4,1.7l-2.4-1.7c-0.4,0.3-0.7,0.7-0.9,1.1c-0.2,0.5-0.3,1.1-0.3,1.7v5.8c0,0.5,0.1,1,0.3,1.4
		c0.1,0.2,0.2,0.3,0.3,0.5c0.1,0.2,0.3,0.3,0.4,0.4c0.2,0.1,0.4,0.2,0.6,0.3s0.5,0.1,0.8,0.1h1.6v2.3h-3c-0.6-0.1-1.2-0.2-1.7-0.6
		c-0.2-0.2-0.4-0.3-0.6-0.6c-0.2-0.2-0.4-0.5-0.5-0.8c-0.2-0.3-0.3-0.7-0.4-1.2c-0.1-0.4-0.1-1-0.1-1.6v-7c0.1-1.1,0.5-2.1,1-2.9
		c0.6-0.8,1.3-1.4,2.2-1.7l2.6,1.8l2.6-1.8C412.3,895.9,413,896.5,413.6,897.3z"/>
	<path class="st2" d="M408.8,893.6v-2.4c0-0.2,0.1-0.4,0.1-0.5c0.1-0.1,0.2-0.3,0.3-0.4s0.3-0.2,0.6-0.2h4.9v2.3h-3.8v1.2H408.8z"/>
	<path class="st2" d="M427.7,895.6v10.9c0,0.9-0.1,1.7-0.4,2.3c-0.2,0.6-0.5,1.2-0.9,1.6s-0.8,0.7-1.2,1c-0.4,0.2-0.8,0.4-1.2,0.5
		c-0.4,0.1-0.7,0.2-1,0.2c-0.3,0-0.5,0-0.6,0c-0.9,0-1.6-0.1-2.2-0.4c-0.6-0.3-1.1-0.6-1.5-1c-0.4-0.4-0.7-0.8-0.9-1.3
		c-0.2-0.5-0.4-0.9-0.5-1.3c-0.1-0.4-0.2-0.8-0.2-1.1c0-0.3,0-0.5,0-0.6c0-0.5,0.1-1,0.2-1.4s0.3-0.8,0.5-1.2
		c0.2-0.3,0.4-0.7,0.7-0.9c0.3-0.3,0.5-0.6,0.7-0.8c0.2-0.3,0.4-0.5,0.6-0.7c0.2-0.2,0.3-0.5,0.3-0.7c0-0.1,0-0.1,0-0.2
		c0-0.1,0-0.1,0-0.2c0-0.4-0.1-0.7-0.2-0.9c-0.1-0.3-0.3-0.5-0.4-0.6s-0.4-0.3-0.6-0.4c-0.2-0.1-0.4-0.2-0.6-0.2
		c-0.2-0.1-0.4-0.1-0.6-0.1c-0.2,0-0.3,0-0.4,0H417v-2.3h1.3c0.6,0,1.1,0.1,1.5,0.3s0.8,0.4,1.1,0.7c0.3,0.3,0.5,0.6,0.7,1
		c0.2,0.4,0.3,0.7,0.4,1.1c0.1,0.3,0.1,0.7,0.2,1s0,0.5,0,0.7c0,0.1,0,0.1,0,0.1c0,0,0,0.1,0,0.1v0.1c0,0.3-0.1,0.6-0.2,0.9
		s-0.2,0.5-0.4,0.8c-0.1,0.3-0.3,0.5-0.5,0.8c-0.4,0.5-0.8,1-1,1.4c-0.2,0.4-0.4,0.8-0.5,1.1c-0.1,0.3-0.2,0.5-0.2,0.7
		c0,0.2,0,0.3,0,0.4c0,0.6,0.1,1,0.2,1.4c0.1,0.4,0.3,0.7,0.5,0.9s0.4,0.4,0.7,0.6c0.2,0.1,0.5,0.2,0.7,0.3s0.4,0.1,0.6,0.1
		s0.3,0,0.3,0c0.5,0,0.9-0.1,1.2-0.2s0.6-0.3,0.8-0.6c0.2-0.2,0.4-0.5,0.5-0.7c0.1-0.3,0.2-0.5,0.3-0.8c0.1-0.2,0.1-0.5,0.1-0.7
		c0-0.2,0-0.3,0-0.4v-10.9H427.7z"/>
	<path class="st2" d="M442,906.3c-0.1,1.1-0.3,2.1-0.8,2.9c-0.2,0.4-0.4,0.7-0.7,1.1c-0.3,0.3-0.6,0.7-1,0.9
		c-0.4,0.3-0.9,0.5-1.4,0.7c-0.5,0.2-1.2,0.2-1.9,0.2c-0.7,0-1.3-0.1-1.9-0.2c-0.5-0.2-1-0.4-1.4-0.7c-0.4-0.3-0.8-0.6-1-0.9
		c-0.3-0.3-0.5-0.7-0.7-1.1c-0.4-0.8-0.7-1.8-0.8-2.9V903h4.2v2.3h-1.9v1c0,0.4,0.1,0.8,0.2,1.2c0.1,0.3,0.2,0.6,0.4,0.9
		s0.4,0.5,0.6,0.6c0.2,0.2,0.4,0.3,0.7,0.4c0.5,0.3,1.1,0.4,1.8,0.4c0.7,0,1.3-0.2,1.8-0.4c0.2-0.1,0.4-0.3,0.7-0.4s0.4-0.4,0.6-0.6
		c0.2-0.2,0.3-0.5,0.4-0.9c0.1-0.3,0.2-0.7,0.2-1.2v-4.9c0-0.4-0.1-0.8-0.2-1.1c-0.1-0.3-0.2-0.6-0.4-0.8c-0.2-0.2-0.4-0.4-0.6-0.6
		c-0.2-0.2-0.4-0.3-0.7-0.4c-0.5-0.3-1.1-0.4-1.8-0.4H436c-0.2,0-0.4,0-0.7,0.1c-0.3,0.1-0.6,0.2-1,0.3c-0.3,0.2-0.7,0.4-1,0.7
		c-0.3,0.3-0.5,0.7-0.7,1.3h-2.2c0.1-0.3,0.1-0.6,0.3-0.9c0.1-0.3,0.3-0.7,0.5-1.1c0.2-0.4,0.4-0.7,0.7-1.1c0.3-0.3,0.6-0.6,1-0.9
		c0.4-0.3,0.9-0.5,1.4-0.6c0.5-0.2,1.2-0.2,1.8-0.2c0.7,0,1.3,0.1,1.9,0.3c0.5,0.2,1,0.4,1.4,0.7s0.8,0.6,1,0.9
		c0.3,0.3,0.5,0.7,0.7,1.1c0.4,0.8,0.7,1.8,0.8,2.9V906.3z"/>
	<path class="st2" d="M446.1,895.6h4.3v11.7c0,0.8-0.1,1.4-0.3,2c-0.2,0.5-0.4,1-0.7,1.3c-0.3,0.4-0.6,0.6-0.9,0.8
		c-0.3,0.2-0.6,0.3-0.9,0.4s-0.6,0.1-0.8,0.2c-0.2,0-0.4,0-0.4,0c-0.6,0-1.2-0.1-1.6-0.3c-0.5-0.2-0.8-0.4-1.1-0.6
		c-0.4-0.3-0.7-0.6-0.9-0.9l1.5-1.6c0,0.1,0.1,0.1,0.2,0.3c0.1,0.1,0.2,0.2,0.4,0.4s0.4,0.2,0.6,0.3c0.3,0.1,0.6,0.1,0.9,0.1
		c0.2,0,0.4,0,0.6-0.1s0.3-0.2,0.4-0.3c0.1-0.1,0.2-0.3,0.3-0.4c0.1-0.2,0.2-0.3,0.2-0.5c0.1-0.4,0.2-0.8,0.2-1.3v-9.4h-2.1V895.6z"
		/>
	<path class="st2" d="M461.5,899.8l-0.9-0.7c-0.2-0.2-0.5-0.3-0.8-0.5c-0.3-0.1-0.6-0.3-0.9-0.4c-0.3-0.1-0.6-0.2-0.8-0.3
		c-0.3-0.1-0.5-0.1-0.6-0.1c-0.4,0-0.7,0-1,0.1c-0.3,0.1-0.6,0.2-0.8,0.4s-0.4,0.4-0.6,0.7c-0.1,0.3-0.2,0.7-0.2,1.2
		s0.1,0.9,0.4,1.2s0.6,0.5,1,0.7c0.4,0.2,0.8,0.3,1.3,0.4c0.5,0.1,1,0.2,1.5,0.3s1,0.3,1.4,0.5c0.5,0.3,0.9,0.6,1.2,1
		c0.3,0.4,0.6,0.8,0.8,1.3c0.2,0.5,0.3,1,0.3,1.6c0,0.8-0.1,1.6-0.4,2.2c-0.3,0.6-0.7,1.1-1.1,1.5c-0.5,0.4-1,0.7-1.7,0.9
		c-0.6,0.2-1.3,0.3-2.1,0.3c-1,0-1.9-0.1-2.6-0.4s-1.3-0.5-1.8-0.8c-0.5-0.3-1-0.7-1.4-1.2l1.5-1.6c0.2,0.2,0.4,0.4,0.7,0.6
		c0.3,0.2,0.6,0.4,1,0.5c0.4,0.2,0.8,0.3,1.2,0.4c0.4,0.1,0.9,0.2,1.3,0.2c0.5,0,0.9-0.1,1.3-0.2s0.7-0.3,1-0.5
		c0.3-0.2,0.5-0.5,0.6-0.8c0.1-0.3,0.2-0.7,0.2-1c0-0.4-0.1-0.7-0.2-1s-0.3-0.4-0.4-0.6c-0.2-0.1-0.3-0.2-0.5-0.3s-0.3-0.1-0.4-0.1
		c0,0-0.2,0-0.5-0.1c-0.3,0-0.6-0.1-0.9-0.2s-0.7-0.1-1-0.2s-0.6-0.1-0.8-0.2c-0.1,0-0.3-0.1-0.5-0.1s-0.4-0.2-0.7-0.3
		c-0.2-0.1-0.5-0.3-0.8-0.5c-0.3-0.2-0.5-0.5-0.7-0.8c-0.2-0.3-0.4-0.7-0.5-1.1c-0.1-0.4-0.2-1-0.2-1.5c0-0.9,0.1-1.6,0.4-2.2
		s0.7-1.1,1.1-1.5s1-0.7,1.6-0.8c0.6-0.2,1.2-0.3,1.8-0.3c0.6,0,1.2,0.1,1.7,0.2c0.5,0.2,0.9,0.3,1.3,0.5c0.4,0.2,0.8,0.4,1.2,0.7
		l1.1,0.8L461.5,899.8z"/>
	<path class="st2" d="M462.1,891.5v2.3h-6.2v-3h-1.1v-2.3h2.2c0.2,0,0.3,0.1,0.5,0.2c0.1,0.1,0.2,0.2,0.3,0.3
		c0.1,0.1,0.2,0.3,0.2,0.6v2H462.1z"/>
	<path class="st2" d="M467.1,895.5c0.1,0,0.2,0,0.4,0c0.2,0,0.5,0.1,0.8,0.2c0.3,0.1,0.6,0.2,0.9,0.4c0.3,0.2,0.6,0.5,0.9,0.8
		c0.3,0.4,0.5,0.8,0.7,1.3s0.3,1.2,0.3,2v11.6h-2.2v-11.6c0-0.4-0.1-0.8-0.2-1.2c-0.1-0.2-0.1-0.3-0.2-0.4c-0.1-0.1-0.2-0.3-0.3-0.4
		c-0.1-0.1-0.3-0.2-0.4-0.3c-0.2-0.1-0.4-0.1-0.6-0.1c-0.4,0-0.7,0-0.9,0.1c-0.3,0.1-0.5,0.2-0.6,0.3c-0.2,0.1-0.3,0.2-0.4,0.4
		c-0.1,0.1-0.2,0.2-0.2,0.2l-1.5-1.7c0.2-0.3,0.5-0.6,0.9-0.9c0.3-0.2,0.7-0.4,1.1-0.6S466.4,895.5,467.1,895.5z"/>
	<path class="st2" d="M476.3,895.6v10.1c0,0.7,0.1,1.3,0.2,1.7c0.2,0.5,0.4,0.9,0.6,1.2s0.5,0.5,0.8,0.7c0.3,0.2,0.6,0.3,0.8,0.4
		c0.3,0.1,0.5,0.1,0.7,0.1c0.2,0,0.3,0,0.4,0c0.6,0,1.1-0.1,1.5-0.3c0.4-0.2,0.7-0.4,1-0.7c0.3-0.3,0.5-0.6,0.6-0.9s0.3-0.7,0.3-1
		s0.1-0.6,0.1-0.8s0-0.4,0-0.4v-10.1h2.2v16.2h-2.2v-2.3c0,0.3-0.1,0.6-0.2,0.8c-0.1,0.2-0.3,0.4-0.4,0.6c-0.2,0.2-0.4,0.3-0.6,0.4
		c-0.2,0.1-0.4,0.2-0.6,0.3c-0.5,0.2-1.1,0.3-1.7,0.4h-0.5c-0.8,0-1.6-0.1-2.1-0.4c-0.6-0.3-1.1-0.6-1.5-1c-0.4-0.4-0.7-0.8-0.9-1.3
		s-0.4-1-0.5-1.4s-0.2-0.9-0.2-1.2c0-0.4,0-0.7,0-0.8v-0.2v-10.1H476.3z"/>
	<path class="st2" d="M496.8,895.9c0.7,0.3,1.2,0.6,1.6,1c0.4,0.4,0.8,0.9,1,1.4c0.2,0.5,0.4,1,0.6,1.4c0.1,0.5,0.2,0.9,0.2,1.3
		c0,0.4,0,0.6,0,0.8v0.2v9.9h-2.2V902c0-0.5-0.1-0.9-0.2-1.3s-0.2-0.7-0.4-1s-0.4-0.5-0.6-0.7c-0.2-0.2-0.4-0.4-0.7-0.5
		c-0.5-0.3-1.1-0.5-1.8-0.5c-0.4,0-0.8,0.1-1.1,0.2c-0.3,0.1-0.6,0.3-0.9,0.5c-0.3,0.2-0.5,0.4-0.6,0.6c-0.2,0.2-0.3,0.5-0.4,0.7
		c-0.3,0.6-0.5,1.3-0.5,2v1.6c0.9-0.6,1.8-0.8,2.9-0.8c0.5,0,0.9,0.1,1.3,0.2v2.5c-0.2-0.1-0.4-0.2-0.6-0.2c-0.2,0-0.5,0-0.7,0
		c-0.7,0-1.3,0.2-1.8,0.5c-0.3,0.2-0.5,0.4-0.6,0.7c-0.2,0.3-0.3,0.6-0.4,0.9v4.5h-2.2v-10.1c0-1,0.1-1.8,0.4-2.5s0.5-1.3,0.9-1.7
		c0.4-0.5,0.8-0.8,1.2-1.1c0.4-0.3,0.9-0.5,1.3-0.6c0.4-0.1,0.8-0.2,1.1-0.2c0.3,0,0.6,0,0.7,0h0.1
		C495.4,895.5,496.2,895.7,496.8,895.9z"/>
	<path class="st2" d="M500.3,891.5v2.3h-6.2v-3H493v-2.3h2.2c0.2,0,0.3,0.1,0.5,0.2c0.1,0.1,0.2,0.2,0.3,0.3s0.2,0.3,0.2,0.6v2
		H500.3z"/>
	<path class="st2" d="M505.2,895.5c0.1,0,0.2,0,0.4,0c0.2,0,0.5,0.1,0.8,0.2c0.3,0.1,0.6,0.2,0.9,0.4c0.3,0.2,0.6,0.5,0.9,0.8
		c0.3,0.4,0.5,0.8,0.7,1.3c0.2,0.5,0.3,1.2,0.3,2v11.6H507v-11.6c0-0.4-0.1-0.8-0.2-1.2c-0.1-0.2-0.1-0.3-0.2-0.4
		c-0.1-0.1-0.2-0.3-0.3-0.4c-0.1-0.1-0.3-0.2-0.4-0.3s-0.4-0.1-0.6-0.1c-0.4,0-0.7,0-0.9,0.1c-0.3,0.1-0.5,0.2-0.6,0.3
		s-0.3,0.2-0.4,0.4s-0.2,0.2-0.2,0.2l-1.5-1.7c0.2-0.3,0.5-0.6,0.9-0.9c0.3-0.2,0.7-0.4,1.1-0.6C504,895.6,504.6,895.5,505.2,895.5z
		"/>
	<path class="st2" d="M522.9,897.3c0.3,0.4,0.5,0.8,0.7,1.3c0.2,0.5,0.3,1,0.3,1.6v11.8h-2.2V901c0-0.7-0.1-1.2-0.3-1.7
		c-0.2-0.5-0.5-0.9-0.9-1.1l-2.4,1.7l-2.4-1.7c-0.4,0.3-0.7,0.7-0.9,1.1c-0.2,0.5-0.3,1.1-0.3,1.7v5.8c0,0.5,0.1,1,0.3,1.4
		c0.1,0.2,0.2,0.3,0.3,0.5c0.1,0.2,0.3,0.3,0.4,0.4c0.2,0.1,0.4,0.2,0.6,0.3s0.5,0.1,0.8,0.1h1.6v2.3h-3c-0.6-0.1-1.2-0.2-1.7-0.6
		c-0.2-0.2-0.4-0.3-0.6-0.6c-0.2-0.2-0.4-0.5-0.5-0.8c-0.2-0.3-0.3-0.7-0.4-1.2c-0.1-0.4-0.1-1-0.1-1.6v-7c0.1-1.1,0.5-2.1,1-2.9
		c0.6-0.8,1.3-1.4,2.2-1.7l2.6,1.8l2.6-1.8C521.6,895.9,522.3,896.5,522.9,897.3z"/>
	<path class="st2" d="M522.4,889.1v4.6h-2.1v-4.6H522.4z"/>
	<path class="st2" d="M528.9,895.5c0.1,0,0.2,0,0.4,0c0.2,0,0.5,0.1,0.8,0.2c0.3,0.1,0.6,0.2,0.9,0.4c0.3,0.2,0.6,0.5,0.9,0.8
		c0.3,0.4,0.5,0.8,0.7,1.3c0.2,0.5,0.3,1.2,0.3,2v11.6h-2.2v-11.6c0-0.4-0.1-0.8-0.2-1.2c-0.1-0.2-0.1-0.3-0.2-0.4
		c-0.1-0.1-0.2-0.3-0.3-0.4c-0.1-0.1-0.3-0.2-0.4-0.3s-0.4-0.1-0.6-0.1c-0.4,0-0.7,0-0.9,0.1c-0.3,0.1-0.5,0.2-0.6,0.3
		s-0.3,0.2-0.4,0.4s-0.2,0.2-0.2,0.2l-1.5-1.7c0.2-0.3,0.5-0.6,0.9-0.9c0.3-0.2,0.7-0.4,1.1-0.6
		C527.7,895.6,528.3,895.5,528.9,895.5z"/>
	<path class="st2" d="M537.9,895.6h4.3v11.7c0,0.8-0.1,1.4-0.3,2s-0.4,1-0.7,1.3c-0.3,0.4-0.6,0.6-0.9,0.8c-0.3,0.2-0.6,0.3-0.9,0.4
		s-0.6,0.1-0.8,0.2c-0.2,0-0.4,0-0.4,0c-0.6,0-1.2-0.1-1.6-0.3c-0.5-0.2-0.8-0.4-1.1-0.6c-0.4-0.3-0.7-0.6-0.9-0.9l1.5-1.6
		c0,0.1,0.1,0.1,0.2,0.3c0.1,0.1,0.2,0.2,0.4,0.4c0.2,0.1,0.4,0.2,0.6,0.3c0.3,0.1,0.6,0.1,0.9,0.1c0.2,0,0.4,0,0.6-0.1
		s0.3-0.2,0.4-0.3c0.1-0.1,0.2-0.3,0.3-0.4c0.1-0.2,0.2-0.3,0.2-0.5c0.1-0.4,0.2-0.8,0.2-1.3v-9.4h-2.1V895.6z"/>
	<path class="st2" d="M554.4,915.9h-2.2v-14.5c0-0.2,0-0.4,0-0.6c0-0.3-0.1-0.5-0.1-0.8c-0.1-0.3-0.2-0.6-0.3-0.8
		c-0.1-0.3-0.3-0.5-0.5-0.6l-2.1,2.3l-2.1-2.3c-0.2,0.2-0.4,0.4-0.5,0.7c-0.1,0.3-0.2,0.6-0.3,0.9c-0.1,0.3-0.1,0.6-0.1,0.9
		c0,0.3,0,0.5,0,0.6v0.1h-2.2c0-1,0.1-1.8,0.3-2.5c0.2-0.7,0.4-1.2,0.7-1.7c0.3-0.4,0.5-0.8,0.9-1s0.6-0.4,0.9-0.5s0.5-0.2,0.7-0.2
		c0.2,0,0.3,0,0.4,0l1.4,1.5l0.2,0.2c0.4-0.4,0.7-0.7,0.9-1c0.2-0.2,0.4-0.4,0.5-0.5c0.1-0.1,0.2-0.2,0.2-0.2c0,0,0.2,0,0.3,0
		c0.2,0,0.4,0.1,0.7,0.2c0.3,0.1,0.6,0.3,0.9,0.5s0.6,0.6,0.9,1c0.3,0.4,0.5,0.9,0.7,1.6c0.2,0.6,0.3,1.4,0.3,2.4v0.3V915.9z"/>
</g>
</svg>
