<?xml version="1.0" encoding="utf-8"?>
<!-- Generator: Adobe Illustrator 19.0.0, SVG Export Plug-In . SVG Version: 6.00 Build 0)  -->
<svg version="1.1" id="Layer_1" xmlns="http://www.w3.org/2000/svg" xmlns:xlink="http://www.w3.org/1999/xlink" x="0px" y="0px"
	 viewBox="813.1 -127.9 251.2 258.9" style="enable-background:new 813.1 -127.9 251.2 258.9;" xml:space="preserve">
<style type="text/css">
	.st0{fill:#E3E3E3;stroke:#E3E3E3;stroke-width:0.9456;stroke-miterlimit:10;}
	.st1{fill:#3F3F3F;}
	.st2{fill:#33CCCC;}
	.st3{fill:none;stroke:#33CCCC;stroke-width:1.5;stroke-miterlimit:10;}
</style>
<rect x="813.6" y="-127.5" class="st0" width="250.3" height="258"/>
<g>
	<path class="st1" d="M874.6-12.1c0,0,0,0.1-0.1,0.2s-0.2,0.2-0.3,0.4s-0.2,0.3-0.4,0.4s-0.3,0.3-0.4,0.4c-0.1,0.1-0.3,0.2-0.4,0.3
		s-0.2,0.2-0.3,0.2c0.3,0.4,0.5,0.8,0.7,1.2s0.3,0.8,0.4,1.2s0.1,0.7,0.2,1s0,0.5,0,0.6v0.1v9.3h-2.1v-4.5c0-0.4-0.1-0.8-0.3-1.1
		c-0.2-0.3-0.4-0.5-0.7-0.7c-0.3-0.2-0.6-0.3-0.9-0.5c-0.3-0.1-0.6-0.2-0.9-0.2c-0.3-0.1-0.6-0.1-1-0.1c0,0-0.1,0-0.3,0
		s-0.3,0-0.5,0.1s-0.4,0.1-0.7,0.2c-0.2,0.1-0.5,0.2-0.7,0.4s-0.4,0.4-0.6,0.7s-0.3,0.6-0.4,1.1c0,0.1,0,0.1,0,0.2s0,0.1,0,0.2
		c0,0.3,0.1,0.6,0.2,0.8s0.3,0.4,0.6,0.6s0.5,0.3,0.8,0.4s0.6,0.2,0.8,0.2c0.3,0,0.5,0.1,0.7,0.1s0.4,0,0.5,0h0.2v2.1h-2.4
		c-0.5,0-0.9-0.1-1.4-0.3c-0.4-0.2-0.8-0.5-1.1-0.9c-0.3-0.4-0.6-0.8-0.8-1.4c-0.2-0.5-0.3-1.1-0.3-1.6c0-0.6,0.1-1.1,0.4-1.7
		s0.6-1.1,1.2-1.7c0.3-0.3,0.7-0.6,1-0.8c0.3-0.2,0.7-0.4,1-0.5s0.7-0.2,1-0.3c0.3-0.1,0.7-0.1,1-0.1c0.5,0,0.9,0,1.3,0.1
		s0.8,0.2,1.1,0.3c0.4,0.1,0.7,0.3,1,0.5v-0.9c0-0.5,0-0.9-0.1-1.2c-0.1-0.4-0.2-0.7-0.4-0.9c-0.2-0.2-0.3-0.5-0.5-0.7
		s-0.4-0.3-0.6-0.4c-0.5-0.3-1.1-0.4-1.7-0.5c-0.6,0-1,0.1-1.4,0.3s-0.7,0.5-1,0.8s-0.4,0.6-0.6,1c-0.1,0.3-0.2,0.6-0.3,0.9h-2.2
		c0.1-0.8,0.2-1.6,0.4-2.1s0.5-1.1,0.9-1.5s0.7-0.7,1.1-0.9s0.8-0.4,1.2-0.5c0.4-0.1,0.7-0.2,1-0.2s0.5,0,0.6,0h0.1
		c0.7,0,1.3,0.1,2,0.3c0.4-0.1,0.7-0.2,1.1-0.3c0.3-0.1,0.6-0.3,0.9-0.6s0.6-0.6,0.8-1.1l0.7,0.8c0.1,0.1,0.2,0.2,0.3,0.3
		c0.1,0.1,0.2,0.2,0.2,0.3c0.1,0.1,0.1,0.1,0.2,0.2S874.6-12.1,874.6-12.1z"/>
	<path class="st1" d="M873-15.8v2.2h-7.8v-2.2H873z"/>
	<path class="st1" d="M873.1-21.5v2.1h-5.8v-2.8h-1v-2.1h2.1c0.2,0,0.3,0.1,0.5,0.1c0.1,0.1,0.2,0.2,0.3,0.3
		c0.1,0.1,0.1,0.3,0.1,0.6v1.8C869.3-21.5,873.1-21.5,873.1-21.5z"/>
	<path class="st1" d="M878.5-11.8v9.4c0,0.6,0.1,1.2,0.2,1.6c0.2,0.4,0.3,0.8,0.6,1.1c0.2,0.3,0.5,0.5,0.8,0.7s0.5,0.3,0.8,0.3
		c0.3,0.1,0.5,0.1,0.7,0.1s0.3,0,0.4,0c0.5,0,1-0.1,1.4-0.3s0.7-0.4,0.9-0.7c0.2-0.3,0.4-0.6,0.6-0.9c0.1-0.3,0.2-0.6,0.3-0.9
		s0.1-0.5,0.1-0.7s0-0.3,0-0.4v-9.4h2.1V3.4h-2.1V1.2c0,0.3-0.1,0.5-0.2,0.7s-0.2,0.4-0.4,0.6c-0.2,0.2-0.3,0.3-0.5,0.4
		s-0.4,0.2-0.6,0.3c-0.5,0.2-1,0.3-1.6,0.3h-0.5c-0.8,0-1.5-0.1-2-0.4c-0.6-0.2-1-0.5-1.4-0.9s-0.7-0.8-0.9-1.2
		c-0.2-0.5-0.4-0.9-0.5-1.3s-0.2-0.8-0.2-1.2c0-0.3,0-0.6,0-0.8v-0.2v-9.4L878.5-11.8L878.5-11.8z"/>
	<path class="st1" d="M897.7-11.6c0.6,0.3,1.1,0.6,1.5,1s0.7,0.8,1,1.3s0.4,0.9,0.5,1.4c0.1,0.4,0.2,0.8,0.2,1.2s0,0.6,0,0.8v0.1
		v9.3h-2.1v-9.3c0-0.5,0-0.9-0.1-1.2s-0.2-0.7-0.4-0.9c-0.2-0.3-0.3-0.5-0.5-0.7c-0.2-0.2-0.4-0.3-0.6-0.4c-0.5-0.3-1.1-0.4-1.7-0.5
		c-0.4,0-0.8,0.1-1.1,0.2c-0.3,0.1-0.6,0.3-0.8,0.4s-0.4,0.4-0.6,0.6c-0.2,0.2-0.3,0.5-0.4,0.7c-0.3,0.6-0.4,1.2-0.5,1.9v1.5
		c0.8-0.5,1.7-0.8,2.7-0.8c0.5,0,0.9,0.1,1.3,0.2v2.3c-0.2-0.1-0.4-0.1-0.6-0.2c-0.2,0-0.4,0-0.7,0c-0.6,0-1.2,0.2-1.7,0.5
		c-0.2,0.2-0.4,0.4-0.6,0.6c-0.2,0.3-0.3,0.5-0.4,0.8v4.2H890V-6c0-0.9,0.1-1.7,0.3-2.4c0.2-0.7,0.5-1.2,0.9-1.6
		c0.4-0.4,0.7-0.8,1.2-1c0.4-0.3,0.8-0.4,1.2-0.6c0.4-0.1,0.8-0.2,1.1-0.2c0.3,0,0.5,0,0.7,0h0.1C896.4-11.9,897.1-11.8,897.7-11.6z
		"/>
	<path class="st1" d="M900.9-15.7v2.1h-5.8v-2.8h-1v-2.1h2.1c0.2,0,0.3,0.1,0.5,0.1c0.1,0.1,0.2,0.2,0.3,0.3
		c0.1,0.1,0.1,0.3,0.1,0.6v1.8C897.1-15.7,900.9-15.7,900.9-15.7z"/>
	<path class="st1" d="M905.6-11.9c0.1,0,0.2,0,0.4,0c0.2,0,0.4,0.1,0.7,0.1c0.3,0.1,0.6,0.2,0.9,0.4s0.6,0.4,0.8,0.8
		c0.3,0.3,0.5,0.8,0.6,1.3c0.2,0.5,0.3,1.1,0.3,1.9V3.4h-2.1V-7.5c0-0.4-0.1-0.8-0.2-1.1c-0.1-0.1-0.1-0.3-0.2-0.4s-0.2-0.3-0.3-0.4
		c-0.1-0.1-0.2-0.2-0.4-0.2c-0.2-0.1-0.3-0.1-0.5-0.1c-0.3,0-0.6,0-0.9,0.1c-0.2,0.1-0.4,0.2-0.6,0.3s-0.3,0.2-0.4,0.3
		s-0.2,0.2-0.2,0.2l-1.4-1.6c0.2-0.3,0.5-0.6,0.8-0.8s0.6-0.4,1.1-0.6C904.5-11.8,905-11.9,905.6-11.9z"/>
	<path class="st1" d="M922.9-11.8v9.4v0.2c0,0.2,0,0.4,0,0.8c0,0.3-0.1,0.7-0.2,1.2c-0.1,0.4-0.3,0.9-0.5,1.3
		c-0.2,0.5-0.5,0.9-0.9,1.2c-0.4,0.4-0.8,0.7-1.4,0.9s-1.2,0.4-2,0.4h-0.5c-0.6,0-1.1-0.2-1.6-0.3c-0.2-0.1-0.4-0.2-0.6-0.3
		s-0.4-0.3-0.5-0.4c-0.2-0.2-0.3-0.3-0.4-0.6c-0.1-0.2-0.2-0.5-0.2-0.7v2.1H912v-15.2h2.1v9.4c0,0,0,0.2,0,0.4s0.1,0.5,0.1,0.7
		c0.1,0.3,0.2,0.6,0.3,0.9c0.1,0.3,0.3,0.6,0.6,0.9c0.2,0.3,0.6,0.5,0.9,0.7s0.8,0.3,1.4,0.3c0.1,0,0.2,0,0.4,0
		c0.2,0,0.4-0.1,0.7-0.1c0.3-0.1,0.5-0.2,0.8-0.3c0.3-0.2,0.5-0.4,0.8-0.7c0.2-0.3,0.4-0.6,0.6-1.1c0.2-0.4,0.2-1,0.2-1.6v-9.4h2
		V-11.8z"/>
	<path class="st1" d="M927.5-11.9c0.1,0,0.2,0,0.4,0c0.2,0,0.4,0.1,0.7,0.1c0.3,0.1,0.6,0.2,0.9,0.4s0.6,0.4,0.8,0.8
		s0.5,0.8,0.6,1.3s0.3,1.1,0.3,1.9V3.4h-2.1V-7.5c0-0.4-0.1-0.8-0.2-1.1c-0.1-0.1-0.1-0.3-0.2-0.4s-0.2-0.3-0.3-0.4
		c-0.1-0.1-0.2-0.2-0.4-0.2c-0.2-0.1-0.3-0.1-0.5-0.1c-0.3,0-0.6,0-0.9,0.1c-0.2,0.1-0.4,0.2-0.6,0.3s-0.3,0.2-0.4,0.3
		s-0.2,0.2-0.2,0.2l-1.4-1.6c0.2-0.3,0.5-0.6,0.8-0.8s0.6-0.4,1.1-0.6S927-11.9,927.5-11.9z"/>
	<path class="st1" d="M934.1,3.4V-8.3c0.3-0.6,0.6-1.1,0.9-1.5s0.7-0.7,1-1c0.4-0.3,0.7-0.5,1.1-0.6c0.4-0.2,0.7-0.3,1-0.4
		c0.3-0.1,0.6-0.1,0.8-0.1c0.2,0,0.4,0,0.5,0h0.1c0.7,0,1.3,0.1,1.8,0.3s1,0.4,1.3,0.6c0.4,0.3,0.7,0.6,1,0.9c0.3,0.3,0.5,0.7,0.7,1
		s0.3,0.7,0.4,1c0.1,0.3,0.2,0.6,0.2,0.9s0.1,0.5,0.1,0.7s0,0.3,0,0.4v9.4h-2.1v-9.4c0-0.6-0.1-1.1-0.2-1.5c-0.2-0.4-0.3-0.8-0.6-1
		c-0.2-0.3-0.5-0.5-0.8-0.6s-0.5-0.2-0.8-0.3s-0.5-0.1-0.7-0.1s-0.3,0-0.4,0c-0.4,0-0.8,0.1-1.1,0.2c-0.3,0.1-0.6,0.2-0.8,0.4
		c-0.2,0.2-0.4,0.4-0.6,0.6c-0.2,0.2-0.3,0.4-0.4,0.7c-0.2,0.5-0.4,1.1-0.4,1.8v9.4L934.1,3.4L934.1,3.4z"/>
	<path class="st1" d="M947.7,3.4V-8.3c0.3-0.6,0.6-1.1,0.9-1.5s0.7-0.7,1-1c0.4-0.3,0.7-0.5,1.1-0.6c0.4-0.2,0.7-0.3,1-0.4
		c0.3-0.1,0.6-0.1,0.8-0.1s0.4,0,0.5,0h0.1c0.7,0,1.3,0.1,1.8,0.3s1,0.4,1.3,0.6c0.4,0.3,0.7,0.6,1,0.9s0.5,0.7,0.7,1s0.3,0.7,0.4,1
		c0.1,0.3,0.2,0.6,0.2,0.9s0.1,0.5,0.1,0.7s0,0.3,0,0.4v9.4h-2.1v-9.4c0-0.6-0.1-1.1-0.2-1.5c-0.2-0.4-0.3-0.8-0.6-1
		c-0.2-0.3-0.5-0.5-0.8-0.6s-0.5-0.2-0.8-0.3s-0.5-0.1-0.7-0.1s-0.3,0-0.4,0c-0.4,0-0.8,0.1-1.1,0.2s-0.6,0.2-0.8,0.4
		c-0.2,0.2-0.4,0.4-0.6,0.6c-0.2,0.2-0.3,0.4-0.4,0.7c-0.2,0.5-0.4,1.1-0.4,1.8v9.4L947.7,3.4L947.7,3.4z"/>
	<path class="st1" d="M965.5-11.9c0.1,0,0.3,0,0.6,0s0.6,0.1,0.9,0.2c0.3,0.1,0.7,0.3,1.1,0.5s0.7,0.5,1,0.9s0.6,0.9,0.8,1.5
		c0.2,0.6,0.3,1.3,0.3,2.1v5c0,1-0.2,1.8-0.6,2.6c-0.1,0.3-0.3,0.6-0.6,0.9s-0.5,0.6-0.8,0.8S967.5,3,967,3.2
		c-0.4,0.1-1,0.2-1.5,0.2c-0.6,0-1.1-0.1-1.6-0.2c-0.5-0.2-0.8-0.4-1.2-0.6c-0.3-0.3-0.6-0.5-0.8-0.9s-0.4-0.6-0.5-1
		c0.1-0.1,0.2-0.1,0.4-0.2c0.2-0.1,0.3-0.2,0.5-0.3s0.3-0.2,0.5-0.3s0.3-0.2,0.4-0.2c0.1,0.4,0.4,0.7,0.6,1c0.3,0.2,0.5,0.4,0.8,0.5
		s0.6,0.2,1,0.2c0.5-0.1,0.9-0.2,1.3-0.5c0.2-0.1,0.3-0.2,0.5-0.4s0.3-0.3,0.4-0.5s0.2-0.4,0.3-0.7c0.1-0.3,0.1-0.6,0.1-0.9v-5
		c0-0.6-0.2-1.1-0.4-1.5c-0.1-0.2-0.2-0.4-0.3-0.6S967.2-9,967-9.2c-0.2-0.1-0.4-0.3-0.6-0.3c-0.2-0.1-0.5-0.1-0.8-0.1
		c-0.4,0-0.8,0-1.2,0.1c-0.3,0.1-0.6,0.2-0.8,0.4s-0.4,0.4-0.6,0.7s-0.3,0.7-0.5,1.1h-2.1c0.1-0.7,0.2-1.3,0.4-1.9
		c0.2-0.6,0.6-1.1,1-1.5s0.9-0.7,1.6-0.9C963.8-11.8,964.6-11.9,965.5-11.9L965.5-11.9L965.5-11.9z"/>
	<path class="st1" d="M968.4-17.9v4.3h-2v-4.3H968.4z"/>
	<path class="st1" d="M974.5-11.9c0.1,0,0.2,0,0.4,0c0.2,0,0.4,0.1,0.7,0.1c0.3,0.1,0.6,0.2,0.9,0.4s0.6,0.4,0.8,0.8
		s0.5,0.8,0.6,1.3s0.3,1.1,0.3,1.9V3.4h-2.1V-7.5c0-0.4-0.1-0.8-0.2-1.1c-0.1-0.1-0.1-0.3-0.2-0.4s-0.2-0.3-0.3-0.4
		s-0.2-0.2-0.4-0.2c-0.2-0.1-0.3-0.1-0.5-0.1c-0.3,0-0.6,0-0.9,0.1c-0.2,0.1-0.4,0.2-0.6,0.3s-0.3,0.2-0.4,0.3s-0.2,0.2-0.2,0.2
		l-1.4-1.6c0.2-0.3,0.5-0.6,0.8-0.8s0.6-0.4,1.1-0.6S973.9-11.9,974.5-11.9z"/>
	<path class="st2" d="M994.4-14.3V3.4h-2.3v-13c-0.4,0.3-1,0.6-1.5,0.8c-0.6,0.2-1.3,0.3-2.1,0.3v-2.3c0.1,0,0.2,0,0.4,0
		c0.2,0,0.4,0,0.7-0.1c0.3-0.1,0.6-0.2,0.9-0.3s0.6-0.3,0.8-0.6c0.3-0.3,0.5-0.6,0.6-1c0.2-0.4,0.2-0.9,0.2-1.5H994.4z"/>
	<path class="st2" d="M1003.1-8.6c0.7,0,1.4,0.1,1.9,0.2c0.6,0.2,1,0.4,1.5,0.6c0.4,0.3,0.8,0.6,1.1,0.9c0.3,0.3,0.5,0.7,0.7,1
		c0.5,0.8,0.7,1.7,0.8,2.7V-2c-0.1,1-0.4,1.9-0.8,2.7c-0.2,0.3-0.4,0.7-0.7,1s-0.6,0.6-1.1,0.9c-0.4,0.3-0.9,0.5-1.5,0.6
		c-0.6,0.2-1.2,0.2-1.9,0.2c-1,0-1.8-0.1-2.5-0.4s-1.2-0.6-1.7-1c-0.4-0.4-0.8-0.9-1-1.3c-0.2-0.5-0.4-0.9-0.5-1.3h2.3
		c0.2,0.5,0.5,0.8,0.9,1.1s0.8,0.4,1.1,0.5c0.4,0.1,0.9,0.2,1.4,0.2c0.7,0,1.3-0.2,1.8-0.4c0.2-0.1,0.5-0.2,0.7-0.4s0.4-0.3,0.6-0.6
		c0.2-0.2,0.3-0.5,0.4-0.8s0.2-0.7,0.2-1.1v-1.2c0-0.4-0.1-0.8-0.2-1.1c-0.1-0.3-0.2-0.6-0.4-0.8s-0.4-0.4-0.6-0.6s-0.4-0.3-0.7-0.4
		c-0.5-0.2-1.2-0.4-1.8-0.4c-0.6,0-1.2,0.2-1.7,0.4c-0.2,0.1-0.4,0.2-0.7,0.4s-0.4,0.3-0.6,0.5s-0.3,0.4-0.5,0.7
		c-0.1,0.3-0.2,0.6-0.2,1h-2.3v-10.8h10.6v2.3h-8.4v4.6c0.4-0.3,1-0.6,1.6-0.8S1002.3-8.6,1003.1-8.6z"/>
	<path class="st1" d="M864.7,18.9c0.6,0.3,1.1,0.6,1.5,1s0.7,0.8,1,1.3s0.4,0.9,0.5,1.4c0.1,0.4,0.2,0.8,0.2,1.2s0,0.6,0,0.8v0.1
		v9.1h-2.1v-4.5c0-0.4-0.1-0.8-0.3-1.1c-0.2-0.3-0.4-0.5-0.7-0.7c-0.3-0.2-0.6-0.3-0.9-0.5c-0.3-0.1-0.6-0.2-0.9-0.2
		c-0.3-0.1-0.6-0.1-1-0.1c0,0-0.1,0-0.3,0s-0.3,0-0.5,0.1s-0.4,0.1-0.7,0.2c-0.2,0.1-0.5,0.2-0.7,0.4c-0.2,0.2-0.4,0.4-0.6,0.7
		c-0.2,0.3-0.3,0.6-0.4,1.1c0,0.1,0,0.3,0,0.4c0,0.3,0.1,0.6,0.2,0.8c0.1,0.2,0.3,0.4,0.6,0.6s0.5,0.3,0.8,0.4s0.6,0.2,0.8,0.2
		s0.5,0.1,0.7,0.1s0.4,0,0.5,0h0.2v2.1h-2.3c-0.5,0-0.9-0.1-1.4-0.3c-0.4-0.2-0.8-0.5-1.1-0.9c-0.3-0.4-0.6-0.8-0.8-1.4
		c-0.2-0.5-0.3-1.1-0.3-1.6c0-0.6,0.1-1.1,0.3-1.7s0.6-1.1,1.2-1.7c0.3-0.3,0.7-0.6,1-0.8c0.3-0.2,0.7-0.4,1-0.5s0.7-0.2,1-0.3
		c0.3-0.1,0.7-0.1,1-0.1c0.5,0,0.9,0,1.3,0.1s0.8,0.2,1.1,0.3c0.4,0.1,0.7,0.3,1,0.5v-0.9c0-0.5,0-0.9-0.1-1.2s-0.2-0.7-0.4-0.9
		c-0.2-0.3-0.3-0.5-0.5-0.7s-0.4-0.3-0.6-0.4c-0.5-0.3-1.1-0.4-1.7-0.5c-0.6,0-1,0.1-1.4,0.3c-0.4,0.2-0.7,0.5-1,0.8s-0.4,0.6-0.6,1
		c-0.1,0.3-0.2,0.6-0.3,0.9h-2.2c0.1-0.8,0.2-1.6,0.4-2.1s0.5-1.1,0.9-1.5s0.7-0.7,1.1-0.9c0.4-0.2,0.8-0.4,1.2-0.5
		c0.4-0.1,0.7-0.2,1-0.2s0.5,0,0.6,0h0.1C863.3,18.5,864.1,18.6,864.7,18.9z"/>
	<path class="st1" d="M867.6,14.7v2.1h-5.8V14h-1v-2.2h2.1c0.2,0,0.3,0.1,0.5,0.1c0.1,0.1,0.2,0.2,0.3,0.3c0.1,0.1,0.1,0.3,0.1,0.6
		v1.8L867.6,14.7L867.6,14.7z"/>
	<path class="st1" d="M872.2,18.5c0.1,0,0.2,0,0.4,0c0.2,0,0.4,0.1,0.7,0.1c0.3,0.1,0.6,0.2,0.9,0.4s0.6,0.4,0.8,0.8
		s0.5,0.8,0.6,1.3s0.3,1.1,0.3,1.9v10.8h-2.1V22.9c0-0.4-0.1-0.8-0.2-1.1c-0.1-0.1-0.1-0.3-0.2-0.4s-0.2-0.3-0.3-0.4
		c-0.1-0.1-0.2-0.2-0.4-0.2c-0.2-0.1-0.3-0.1-0.5-0.1c-0.3,0-0.6,0-0.9,0.1c-0.2,0.1-0.4,0.2-0.6,0.3s-0.3,0.2-0.4,0.3
		c-0.1,0.1-0.2,0.2-0.2,0.2l-1.4-1.6c0.2-0.3,0.5-0.6,0.8-0.8c0.3-0.2,0.6-0.4,1.1-0.6S871.6,18.5,872.2,18.5z"/>
	<path class="st1" d="M880.8,18.6V28c0,0.6,0.1,1.2,0.2,1.6c0.2,0.4,0.3,0.8,0.6,1.1c0.2,0.3,0.5,0.5,0.8,0.7s0.5,0.3,0.8,0.3
		c0.3,0.1,0.5,0.1,0.7,0.1s0.3,0,0.4,0c0.5,0,1-0.1,1.4-0.3s0.7-0.4,0.9-0.7c0.2-0.3,0.4-0.6,0.6-0.9s0.2-0.6,0.3-0.9
		c0.1-0.3,0.1-0.5,0.1-0.7s0-0.3,0-0.4v-9.4h2.1v15.3h-2.1v-2.1c0,0.3-0.1,0.5-0.2,0.7c-0.1,0.2-0.2,0.4-0.4,0.6s-0.3,0.3-0.5,0.4
		s-0.4,0.2-0.6,0.3c-0.5,0.2-1,0.3-1.6,0.3h-0.5c-0.8,0-1.5-0.1-2-0.4c-0.6-0.2-1-0.5-1.4-0.9s-0.7-0.8-0.9-1.2
		c-0.2-0.5-0.4-0.9-0.5-1.3s-0.2-0.8-0.2-1.2c0-0.3,0-0.6,0-0.8V28v-9.4C878.8,18.6,880.8,18.6,880.8,18.6z"/>
	<path class="st1" d="M900.7,21.6c0.5,0.1,0.8,0.4,1.1,0.7s0.4,0.7,0.4,1.2v5.3c0,0.8-0.1,1.6-0.3,2.2c-0.2,0.6-0.5,1.1-0.8,1.5
		s-0.7,0.7-1.1,0.9s-0.8,0.4-1.2,0.5c-0.4,0.1-0.7,0.2-1,0.2s-0.5,0-0.5,0c-0.8,0-1.5-0.1-2.1-0.4c-0.6-0.2-1-0.5-1.4-0.9
		s-0.7-0.8-0.9-1.2c-0.2-0.4-0.4-0.9-0.5-1.2c-0.1-0.4-0.2-0.7-0.2-1s0-0.5,0-0.6c0-0.5,0.1-0.9,0.2-1.3s0.3-0.8,0.5-1.1
		c0.2-0.3,0.4-0.6,0.7-0.9s0.5-0.5,0.7-0.8s0.4-0.5,0.5-0.7s0.2-0.5,0.3-0.7c0-0.1,0-0.1,0-0.2s0-0.1,0-0.2c0-0.3-0.1-0.6-0.2-0.9
		c-0.1-0.2-0.2-0.4-0.4-0.6c-0.2-0.2-0.4-0.3-0.6-0.4s-0.4-0.2-0.6-0.2s-0.4-0.1-0.6-0.1s-0.3,0-0.4,0h-0.1v-2.1h1.2
		c0.6,0,1,0.1,1.4,0.3c0.4,0.2,0.7,0.4,1,0.7s0.5,0.6,0.6,0.9c0.2,0.3,0.3,0.7,0.4,1s0.1,0.6,0.2,0.9c0,0.3,0,0.5,0,0.7v0.1v0.1v0.1
		c0,0.3-0.1,0.5-0.2,0.8s-0.2,0.5-0.3,0.7c-0.1,0.2-0.3,0.5-0.5,0.7c-0.4,0.5-0.7,0.9-0.9,1.3c-0.2,0.4-0.4,0.7-0.5,1
		s-0.2,0.5-0.2,0.7s0,0.3,0,0.3c0,0.5,0.1,1,0.2,1.3c0.1,0.4,0.3,0.6,0.5,0.9c0.2,0.2,0.4,0.4,0.6,0.5s0.4,0.2,0.7,0.3
		s0.4,0.1,0.5,0.1s0.3,0,0.3,0c0.4,0,0.8-0.1,1.1-0.2c0.3-0.1,0.6-0.3,0.8-0.5c0.2-0.2,0.4-0.4,0.5-0.7c0.1-0.3,0.2-0.5,0.3-0.7
		c0.1-0.2,0.1-0.4,0.1-0.6s0-0.3,0-0.3v-4.8c0-1-0.6-1.4-1.8-1.4h-0.7V21h0.7c0.6,0,1.1-0.1,1.4-0.4s0.5-0.7,0.5-1.3v-0.4h2.1v0.9
		C902.3,20.6,901.8,21.3,900.7,21.6z"/>
	<path class="st1" d="M901.5,14.6v2.2h-7.8v-2.2H901.5z"/>
	<path class="st1" d="M901.6,8.9V11h-5.8V8.2h-1V6.1h2.1c0.2,0,0.3,0.1,0.5,0.1c0.1,0.1,0.2,0.2,0.3,0.3c0.1,0.1,0.1,0.3,0.1,0.6
		v1.8H901.6z"/>
	<path class="st1" d="M906.9,18.6V28c0,0.6,0.1,1.2,0.2,1.6c0.2,0.4,0.3,0.8,0.6,1.1c0.2,0.3,0.5,0.5,0.8,0.7s0.5,0.3,0.8,0.3
		c0.3,0.1,0.5,0.1,0.7,0.1s0.3,0,0.4,0c0.5,0,1-0.1,1.4-0.3c0.4-0.2,0.7-0.4,0.9-0.7c0.2-0.3,0.4-0.6,0.6-0.9
		c0.1-0.3,0.2-0.6,0.3-0.9s0.1-0.5,0.1-0.7s0-0.3,0-0.4v-9.4h2.1v15.3h-2.1v-2.1c0,0.3-0.1,0.5-0.2,0.7c-0.1,0.2-0.2,0.4-0.4,0.6
		s-0.3,0.3-0.5,0.4s-0.4,0.2-0.6,0.3c-0.5,0.2-1,0.3-1.6,0.3h-0.5c-0.8,0-1.5-0.1-2-0.4c-0.6-0.2-1-0.5-1.4-0.9s-0.7-0.8-0.9-1.2
		s-0.4-0.9-0.5-1.3s-0.2-0.8-0.2-1.2c0-0.3,0-0.6,0-0.8V28v-9.4C904.9,18.6,906.9,18.6,906.9,18.6z"/>
	<path class="st1" d="M919.4,33.8V18.4c0-0.4,0-0.7,0.1-1s0.2-0.6,0.3-0.9c0.1-0.3,0.3-0.5,0.5-0.8c0.2-0.2,0.4-0.5,0.6-0.7
		s0.4-0.4,0.5-0.6c0.1-0.2,0.2-0.4,0.3-0.5s0.1-0.3,0.1-0.5s0-0.3,0-0.5c0-0.4-0.1-0.7-0.2-1s-0.3-0.5-0.5-0.7s-0.4-0.3-0.7-0.4
		c-0.3-0.1-0.6-0.1-0.8-0.1c-0.6,0-1,0.1-1.3,0.2c-0.3,0.1-0.5,0.2-0.7,0.4s-0.2,0.3-0.3,0.5h-1.8l0,0v-0.1c0-0.1,0-0.3,0-0.4
		c0-0.2,0.1-0.4,0.2-0.6c0.1-0.2,0.2-0.4,0.4-0.7c0.2-0.2,0.4-0.4,0.7-0.6s0.7-0.3,1.1-0.5c0.4-0.1,1-0.2,1.6-0.2
		c0.7,0,1.2,0.1,1.7,0.2c0.5,0.2,0.8,0.4,1.1,0.6c0.3,0.3,0.5,0.5,0.7,0.8s0.3,0.6,0.4,0.9s0.1,0.6,0.2,0.9c0,0.3,0,0.5,0,0.7v0.3
		c0,0.2,0,0.4-0.1,0.6c0,0.2-0.1,0.5-0.2,0.7s-0.2,0.5-0.4,0.8c-0.2,0.3-0.4,0.6-0.7,1c-0.3,0.3-0.4,0.6-0.6,0.9
		c-0.1,0.3-0.2,0.5-0.3,0.7c-0.1,0.2-0.1,0.4-0.1,0.6v15.4H919.4z"/>
	<path class="st1" d="M924.9,18.5h2.1v3.9h4.7c0.2,0,0.5-0.1,0.7-0.3c0.2-0.1,0.4-0.3,0.5-0.6c0.2-0.2,0.3-0.6,0.4-1v-2h2.1v2.3
		c0,0.1,0,0.3-0.1,0.5s-0.1,0.5-0.2,0.7c-0.1,0.3-0.2,0.5-0.4,0.8c-0.2,0.3-0.3,0.5-0.5,0.7c0.3,0.3,0.5,0.6,0.7,0.9
		s0.3,0.7,0.5,1.1c0.2,0.5,0.2,1,0.2,1.5v6.8h-2.1v-6.6c0-0.3-0.1-0.5-0.1-0.7s-0.1-0.4-0.2-0.6s-0.2-0.4-0.3-0.6
		c-0.1-0.2-0.3-0.4-0.5-0.5s-0.4-0.2-0.7-0.2H927v9.2h-2.1V18.5z"/>
	<path class="st1" d="M935.6,14.7v2.1h-5.8V14h-1v-2.2h2.1c0.2,0,0.3,0.1,0.5,0.1c0.1,0.1,0.2,0.2,0.3,0.3c0.1,0.1,0.1,0.3,0.1,0.6
		v1.8L935.6,14.7L935.6,14.7z"/>
	<path class="st1" d="M940.3,33.8h-2.1V18.6h2.1V33.8z"/>
	<path class="st1" d="M950,18.9c0.6,0.3,1.1,0.6,1.5,1s0.7,0.8,1,1.3c0.2,0.5,0.4,0.9,0.5,1.4c0.1,0.4,0.2,0.8,0.2,1.2
		c0,0.3,0,0.6,0,0.8v0.1v9.1h-2.1v-4.5c0-0.4-0.1-0.8-0.3-1.1c-0.2-0.3-0.4-0.5-0.7-0.7c-0.3-0.2-0.6-0.3-0.9-0.5
		c-0.3-0.1-0.6-0.2-0.9-0.2c-0.3-0.1-0.6-0.1-1-0.1c0,0-0.1,0-0.3,0c-0.1,0-0.3,0-0.5,0.1s-0.4,0.1-0.7,0.2
		c-0.2,0.1-0.5,0.2-0.7,0.4c-0.2,0.2-0.4,0.4-0.6,0.7c-0.2,0.3-0.3,0.6-0.4,1.1c0,0.1,0,0.3,0,0.4c0,0.3,0.1,0.6,0.2,0.8
		s0.3,0.4,0.6,0.6s0.5,0.3,0.8,0.4s0.6,0.2,0.8,0.2c0.3,0,0.5,0.1,0.7,0.1s0.4,0,0.5,0h0.2v2.1h-2.3c-0.5,0-0.9-0.1-1.4-0.3
		s-0.8-0.5-1.1-0.9c-0.3-0.4-0.6-0.8-0.8-1.4c-0.2-0.5-0.3-1.1-0.3-1.6c0-0.6,0.1-1.1,0.3-1.7c0.2-0.6,0.6-1.1,1.2-1.7
		c0.3-0.3,0.7-0.6,1-0.8c0.3-0.2,0.7-0.4,1-0.5s0.7-0.2,1-0.3c0.3-0.1,0.7-0.1,1-0.1c0.5,0,0.9,0,1.3,0.1s0.8,0.2,1.1,0.3
		c0.4,0.1,0.7,0.3,1,0.5v-0.9c0-0.5,0-0.9-0.1-1.2c-0.1-0.4-0.2-0.7-0.4-0.9c-0.2-0.3-0.3-0.5-0.5-0.7s-0.4-0.3-0.6-0.4
		c-0.5-0.3-1.1-0.4-1.7-0.5c-0.6,0-1,0.1-1.4,0.3s-0.7,0.5-1,0.8s-0.4,0.6-0.6,1c-0.1,0.3-0.2,0.6-0.3,0.9h-2.2
		c0.1-0.8,0.2-1.6,0.4-2.1c0.2-0.6,0.5-1.1,0.9-1.5s0.7-0.7,1.1-0.9s0.8-0.4,1.2-0.5c0.4-0.1,0.7-0.2,1-0.2s0.5,0,0.6,0h0.1
		C948.6,18.5,949.4,18.6,950,18.9z"/>
	<path class="st1" d="M952.4,13.1v3.7h-8.6v-2.1h3.5v-1.6h2v1.6h1.2v-1.6C950.5,13.1,952.4,13.1,952.4,13.1z"/>
	<path class="st1" d="M966.2,28.5c-0.1,1-0.3,1.9-0.7,2.7c-0.2,0.3-0.4,0.7-0.7,1c-0.3,0.3-0.6,0.6-1,0.9s-0.8,0.5-1.3,0.6
		c-0.5,0.2-1.1,0.2-1.8,0.2c-0.7,0-1.3-0.1-1.8-0.2c-0.5-0.2-1-0.4-1.3-0.6s-0.7-0.5-1-0.9c-0.3-0.3-0.5-0.7-0.7-1
		c-0.4-0.8-0.7-1.7-0.7-2.7v-3.1h3.9v2.1h-1.8v0.9c0,0.4,0,0.8,0.1,1.1c0.1,0.3,0.2,0.6,0.4,0.8c0.2,0.2,0.3,0.4,0.5,0.6
		s0.4,0.3,0.6,0.4c0.5,0.2,1.1,0.4,1.7,0.4s1.2-0.2,1.7-0.4c0.2-0.1,0.4-0.2,0.6-0.4s0.4-0.4,0.5-0.6c0.2-0.2,0.3-0.5,0.4-0.8
		s0.1-0.7,0.1-1.1v-4.6c0-0.4,0-0.7-0.1-1s-0.2-0.6-0.4-0.8c-0.2-0.2-0.3-0.4-0.5-0.6s-0.4-0.3-0.6-0.4c-0.5-0.2-1.1-0.4-1.7-0.4
		h-0.2c-0.1,0-0.4,0-0.7,0.1c-0.3,0.1-0.6,0.2-0.9,0.3c-0.3,0.2-0.6,0.4-0.9,0.7c-0.3,0.3-0.5,0.7-0.6,1.2h-2.1
		c0.1-0.3,0.1-0.5,0.2-0.9c0.1-0.3,0.2-0.7,0.4-1c0.2-0.3,0.4-0.7,0.7-1c0.3-0.3,0.6-0.6,1-0.9s0.8-0.5,1.3-0.6
		c0.5-0.2,1.1-0.2,1.7-0.2c0.7,0,1.2,0.1,1.8,0.2c0.5,0.2,1,0.4,1.3,0.6c0.4,0.3,0.7,0.6,1,0.9s0.5,0.7,0.7,1
		c0.4,0.8,0.7,1.7,0.7,2.7v4.8H966.2z"/>
	<path class="st1" d="M968.3,33.8V22.1c0.3-0.6,0.6-1.1,0.9-1.5s0.7-0.7,1-1c0.4-0.3,0.7-0.5,1.1-0.6c0.4-0.2,0.7-0.3,1-0.4
		s0.6-0.1,0.8-0.1s0.4,0,0.5,0h0.1c0.7,0,1.3,0.1,1.8,0.3c0.5,0.2,1,0.4,1.3,0.6c0.4,0.3,0.7,0.6,1,0.9s0.5,0.7,0.7,1s0.3,0.7,0.4,1
		s0.2,0.6,0.2,0.9s0.1,0.5,0.1,0.7s0,0.3,0,0.4v9.5h-2.1v-9.4c0-0.6-0.1-1.1-0.2-1.5c-0.2-0.4-0.3-0.8-0.6-1
		c-0.2-0.3-0.5-0.5-0.8-0.6s-0.5-0.2-0.8-0.3c-0.3-0.1-0.5-0.1-0.7-0.1s-0.3,0-0.4,0c-0.4,0-0.8,0.1-1.1,0.2
		c-0.3,0.1-0.6,0.2-0.8,0.4c-0.2,0.2-0.4,0.4-0.6,0.6s-0.3,0.4-0.4,0.7c-0.2,0.5-0.4,1.1-0.4,1.8v9.2H968.3z"/>
	<path class="st1" d="M993.1,18.3c0,0,0,0.1-0.1,0.2s-0.2,0.2-0.3,0.4c-0.1,0.1-0.2,0.3-0.4,0.4s-0.3,0.3-0.4,0.4s-0.3,0.2-0.4,0.3
		c-0.1,0.1-0.2,0.2-0.3,0.2c0.3,0.4,0.5,0.8,0.7,1.2c0.2,0.4,0.3,0.8,0.4,1.2s0.1,0.7,0.1,1s0,0.5,0,0.6v0.1v9.5h-2.1v-4.5
		c0-0.4-0.1-0.8-0.3-1.1c-0.2-0.3-0.4-0.5-0.7-0.7c-0.3-0.2-0.6-0.3-0.9-0.5c-0.3-0.1-0.6-0.2-0.9-0.2c-0.3-0.1-0.6-0.1-1-0.1
		c0,0-0.1,0-0.3,0c-0.1,0-0.3,0-0.5,0.1s-0.4,0.1-0.7,0.2c-0.2,0.1-0.5,0.2-0.7,0.4s-0.4,0.4-0.6,0.7c-0.2,0.3-0.3,0.6-0.4,1.1
		c0,0.1,0,0.1,0,0.2s0,0.1,0,0.2c0,0.3,0.1,0.6,0.2,0.8s0.3,0.4,0.6,0.6s0.5,0.3,0.8,0.4s0.6,0.2,0.8,0.2c0.3,0,0.5,0.1,0.7,0.1
		s0.4,0,0.5,0h0.2v2.1h-2.4c-0.5,0-0.9-0.1-1.4-0.3s-0.8-0.5-1.1-0.9c-0.3-0.4-0.6-0.8-0.8-1.4c-0.2-0.5-0.3-1.1-0.3-1.6
		c0-0.6,0.1-1.1,0.4-1.7s0.6-1.1,1.2-1.7c0.3-0.3,0.7-0.6,1-0.8c0.3-0.2,0.7-0.4,1-0.5s0.7-0.2,1-0.3c0.3-0.1,0.7-0.1,1-0.1
		c0.5,0,0.9,0,1.3,0.1s0.8,0.2,1.1,0.3c0.4,0.1,0.7,0.3,1,0.5v-0.9c0-0.5,0-0.9-0.1-1.2c-0.1-0.4-0.2-0.7-0.4-0.9
		c-0.2-0.3-0.3-0.5-0.5-0.7s-0.4-0.3-0.6-0.4c-0.5-0.3-1.1-0.4-1.7-0.5c-0.6,0-1,0.1-1.4,0.3s-0.7,0.5-1,0.8s-0.4,0.6-0.6,1
		c-0.1,0.3-0.2,0.6-0.3,0.9h-2.2c0.1-0.8,0.2-1.6,0.4-2.1s0.5-1.1,0.9-1.5s0.7-0.7,1.1-0.9s0.8-0.4,1.2-0.5c0.4-0.1,0.7-0.2,1-0.2
		s0.5,0,0.6,0h0.1c0.7,0,1.3,0.1,2,0.3c0.4-0.1,0.7-0.2,1.1-0.3c0.3-0.1,0.6-0.3,0.9-0.6c0.3-0.3,0.6-0.6,0.8-1.1l0.7,0.8
		c0.1,0.1,0.2,0.2,0.3,0.3s0.2,0.2,0.2,0.3c0.1,0.1,0.1,0.1,0.2,0.2S993,18.3,993.1,18.3z"/>
	<path class="st1" d="M1002.7,22.5l-0.9-0.6c-0.2-0.2-0.5-0.3-0.7-0.4c-0.3-0.1-0.5-0.3-0.8-0.4s-0.5-0.2-0.8-0.2
		c-0.2-0.1-0.4-0.1-0.6-0.1c-0.3,0-0.6,0-0.9,0.1s-0.6,0.2-0.8,0.3c-0.2,0.2-0.4,0.4-0.5,0.7c-0.1,0.3-0.2,0.7-0.2,1.1
		s0.1,0.8,0.3,1.1c0.2,0.3,0.5,0.5,0.9,0.6s0.8,0.3,1.2,0.3s0.9,0.2,1.4,0.2s0.9,0.3,1.3,0.5c0.4,0.3,0.8,0.6,1.1,0.9
		s0.6,0.8,0.8,1.3s0.3,1,0.3,1.5c0,0.8-0.1,1.5-0.4,2c-0.3,0.6-0.6,1.1-1.1,1.4c-0.4,0.4-1,0.6-1.6,0.8s-1.2,0.3-1.9,0.3
		c-1,0-1.8-0.1-2.4-0.3c-0.7-0.2-1.2-0.5-1.7-0.8s-0.9-0.7-1.3-1.1l1.4-1.5c0.2,0.2,0.4,0.4,0.7,0.6s0.6,0.4,0.9,0.5
		s0.7,0.3,1.1,0.4s0.8,0.1,1.2,0.1c0.4,0,0.8-0.1,1.2-0.2c0.4-0.1,0.7-0.3,0.9-0.5c0.2-0.2,0.4-0.5,0.6-0.8s0.2-0.6,0.2-1
		s-0.1-0.7-0.2-0.9c-0.1-0.2-0.2-0.4-0.4-0.5c-0.2-0.1-0.3-0.2-0.5-0.3c-0.2-0.1-0.3-0.1-0.4-0.1c0,0-0.2,0-0.4-0.1
		c-0.2,0-0.5-0.1-0.8-0.1s-0.6-0.1-0.9-0.2s-0.5-0.1-0.7-0.1c-0.1,0-0.3-0.1-0.4-0.1c-0.2-0.1-0.4-0.2-0.6-0.3
		c-0.2-0.1-0.5-0.3-0.7-0.5s-0.5-0.4-0.7-0.7c-0.2-0.3-0.4-0.7-0.5-1.1s-0.2-0.9-0.2-1.4c0-0.8,0.1-1.5,0.4-2.1s0.6-1,1.1-1.4
		s0.9-0.6,1.5-0.8s1.1-0.2,1.7-0.2s1.1,0.1,1.6,0.2s0.9,0.3,1.2,0.5c0.4,0.2,0.8,0.4,1.1,0.7l1.1,0.8L1002.7,22.5z"/>
	<path class="st1" d="M1013.7,22.5l-0.9-0.6c-0.2-0.2-0.5-0.3-0.7-0.4c-0.3-0.1-0.5-0.3-0.8-0.4s-0.5-0.2-0.8-0.2s-0.4-0.1-0.6-0.1
		c-0.3,0-0.6,0-0.9,0.1s-0.6,0.2-0.8,0.3c-0.2,0.2-0.4,0.4-0.5,0.7c-0.1,0.3-0.2,0.7-0.2,1.1s0.1,0.8,0.3,1.1
		c0.2,0.3,0.5,0.5,0.9,0.6s0.8,0.3,1.2,0.3s0.9,0.2,1.4,0.2s0.9,0.3,1.3,0.5c0.4,0.3,0.8,0.6,1.1,0.9s0.6,0.8,0.8,1.3s0.3,1,0.3,1.5
		c0,0.8-0.1,1.5-0.4,2c-0.3,0.6-0.6,1.1-1.1,1.4c-0.4,0.4-1,0.6-1.6,0.8s-1.2,0.3-1.9,0.3c-1,0-1.8-0.1-2.4-0.3
		c-0.7-0.2-1.2-0.5-1.7-0.8s-0.9-0.7-1.3-1.1l1.4-1.5c0.2,0.2,0.4,0.4,0.7,0.6c0.3,0.2,0.6,0.4,0.9,0.5s0.7,0.3,1.1,0.4
		s0.8,0.1,1.2,0.1c0.4,0,0.8-0.1,1.2-0.2c0.4-0.1,0.7-0.3,0.9-0.5s0.4-0.5,0.6-0.8c0.1-0.3,0.2-0.6,0.2-1s-0.1-0.7-0.2-0.9
		c-0.1-0.2-0.2-0.4-0.4-0.5c-0.2-0.1-0.3-0.2-0.5-0.3c-0.2-0.1-0.3-0.1-0.4-0.1c0,0-0.2,0-0.4-0.1c-0.2,0-0.5-0.1-0.8-0.1
		s-0.6-0.1-0.9-0.2s-0.5-0.1-0.7-0.1c-0.1,0-0.3-0.1-0.4-0.1c-0.2-0.1-0.4-0.2-0.6-0.3c-0.2-0.1-0.5-0.3-0.7-0.5s-0.5-0.4-0.7-0.7
		c-0.2-0.3-0.4-0.7-0.5-1.1s-0.2-0.9-0.2-1.4c0-0.8,0.1-1.5,0.4-2.1s0.6-1,1.1-1.4c0.4-0.4,0.9-0.6,1.5-0.8c0.5-0.2,1.1-0.2,1.7-0.2
		s1.1,0.1,1.6,0.2s0.9,0.3,1.2,0.5c0.4,0.2,0.8,0.4,1.1,0.7l1.1,0.8L1013.7,22.5z"/>
</g>
<g>
	<rect x="919.2" y="-81.8" class="st3" width="39.2" height="45.9"/>
	<path class="st3" d="M926.8-77.8c0-5.3,4.3-9.6,9.6-9.6c5.3,0,9.6,4.3,9.6,9.6"/>
	<path class="st3" d="M934.5-77.8c0-5.3,4.3-9.6,9.6-9.6c5.3,0,9.6,4.3,9.6,9.6"/>
	<rect x="949" y="-81.8" class="st3" width="9.4" height="45.9"/>
</g>
</svg>
