<svg id="Layer_1" data-name="Layer 1" xmlns="http://www.w3.org/2000/svg" viewBox="0 0 353.35 347.49"><defs><style>.cls-1{fill:#c32039;}.cls-2{fill:#b3d1ba;}.cls-3{fill:#ca3927;}.cls-4{fill:#f3f0de;}.cls-5{fill:#df0984;}.cls-10,.cls-11,.cls-12,.cls-13,.cls-15,.cls-5,.cls-6,.cls-7,.cls-8,.cls-9{fill-rule:evenodd;}.cls-6{fill:#f9b8bc;}.cls-7{fill:#f58865;}.cls-8{fill:#f05a73;}.cls-9{fill:#f58f8d;}.cls-10{fill:#f9df1f;}.cls-11{fill:#fac80f;}.cls-12{fill:#683451;}.cls-13{fill:#c56b35;}.cls-14,.cls-15{fill:#30302f;}.cls-16{fill:#f3f0f2;}</style></defs><title>bear2</title><path id="_Path_" data-name="&lt;Path&gt;" class="cls-1" d="M115.66,211.71S294.29,70.87,268.08,32.33c-23.29-34.25-93.4,30.35-93.4,30.35S175-4.67,134.79.26C64.85,8.83,115.66,211.71,115.66,211.71Z"/><path id="_Path_2" data-name="&lt;Path&gt;" class="cls-2" d="M107.82,183.94S115.34,43.23,83,42.38c-34.08-.9-18,53.85-18,53.85s-45-44.5-61.05-20.74C-24,116.78,107.82,183.94,107.82,183.94Z"/><path id="_Path_3" data-name="&lt;Path&gt;" class="cls-3" d="M108.94,284.71s64.58-147.37,30.34-161.29c-36.07-14.66-40.92,50.3-40.92,50.3S68.16,108.07,41.44,127C-5,159.93,108.94,284.71,108.94,284.71Z"/><path id="_Path_4" data-name="&lt;Path&gt;" class="cls-4" d="M108.12,299.28s4.54-84.89-15-85.41c-20.56-.55-10.88,32.49-10.88,32.49S55.1,219.51,45.41,233.84C28.56,258.76,108.12,299.28,108.12,299.28Z"/><path class="cls-5" d="M267.68,266.26c-15.46-7.65-30.89-4.64-49.12,5.53,2.46,0.18,6.62,2.45,9.08,2.63-1.06,2.7-2.13,5.43-3.15,8.18,14.2-12,22.09-19.08,42.23-14.73,0.33-.53.63-1.08,1-1.61h0Z"/><path class="cls-5" d="M265.05,267.63c17.25,0.17,29.59,9.9,41.2,27.24-2.27-1-7-.82-9.25-1.77-0.28,2.88-.61,5.8-0.91,8.72-7.23-17.15-11-27-30.92-32.31-0.05-.63-0.11-1.26-0.12-1.87h0Z"/><path class="cls-6" d="M260.2,183c8.64,2.08,14.08,10.15,12.18,18.05s-10.4,12.58-19,10.5-14.08-10.15-12.19-18a13.48,13.48,0,0,1,4-6.82c3.89-.33,6.74-0.23,11.93,3.24,4.06,2.74,5.39,5.89,5.14,10.83-0.26,4.65-12,3-11.13-3.33,0.55-3.84,1.91-6.22,5.24-2.51,1.09,1.25.22,1.28,0.14,2a0.41,0.41,0,0,0,.28-0.14v0c2.76-1.26-3.53-8.14-6.16-3.53-7.36,13.07,14.1,17,14.71,7.84a13.4,13.4,0,0,0-7-13.16c-4-2.36-7.38-3.25-10.87-3A16.75,16.75,0,0,1,260.2,183h0Z"/><path class="cls-7" d="M337.52,149.48c6.39,1.54,10.44,7.55,9,13.4s-7.74,9.37-14.14,7.83-10.44-7.55-9-13.4a10.13,10.13,0,0,1,2.94-5.07c2.93-.24,5-0.15,8.89,2.42,3,2,4,4.36,3.8,8-0.21,3.43-8.94,2.24-8.26-2.48,0.44-2.85,1.44-4.61,3.89-1.85,0.81,0.89.18,0.95,0.11,1.42a0.85,0.85,0,0,0,.22-0.07h0c2.06-.9-2.61-6-4.55-2.57-5.48,9.67,10.45,12.64,10.91,5.78a9.94,9.94,0,0,0-5.19-9.77,13.79,13.79,0,0,0-8.07-2.23,12.45,12.45,0,0,1,9.49-1.45h0Z"/><path class="cls-6" d="M232.83,151.6c5.42,1.3,8.87,6.4,7.68,11.36s-6.59,8-12,6.66-8.87-6.4-7.67-11.39a8.62,8.62,0,0,1,2.5-4.27c2.47-.23,4.26-0.16,7.5,2,2.58,1.73,3.46,3.7,3.28,6.81-0.17,2.91-7.59,1.91-7-2.09,0.34-2.42,1.19-3.93,3.25-1.59,0.71,0.79.17,0.82,0.12,1.22a0.21,0.21,0,0,0,.17,0h0c1.74-.77-2.25-5.13-3.9-2.21-4.64,8.23,8.89,10.74,9.27,4.93a8.4,8.4,0,0,0-4.4-8.31,11.78,11.78,0,0,0-6.84-1.89,10.55,10.55,0,0,1,8-1.22h0Z"/><path class="cls-5" d="M311.7,188.19a18.83,18.83,0,1,1-17.16,4.4c5.1-.91,8.17-1.93,15.36,1.56,11.54,5.69,3.47,35.51-10.24,16.84-5.5-7.47,3.73-17.05,5.64-8.28l0.33,2.21v0a1.26,1.26,0,0,0,0,.66c2-2.26-.37-11.24-6.45-6.76-6.37,4.66-3.57,12.46,1.1,17.4,14.88,15.67,26-15.35,12-23.59-5.21-3.06-10.14-3.18-15.13-2a18.86,18.86,0,0,1,14.51-2.37h0Z"/><path class="cls-5" d="M316.9,137.22A11.58,11.58,0,1,1,303,145.8a11.29,11.29,0,0,1,3.46-5.85c3.1-.61,5-1.21,9.4.95,7.08,3.46,2.14,21.79-6.3,10.33-3.36-4.62,2.31-10.47,3.48-5.11l0.21,1.36h0a0.64,0.64,0,0,0,0,.38c1.19-1.35-.27-6.91-4-4.16-3.89,2.88-2.17,7.67.71,10.7,9.12,9.61,15.91-9.41,7.37-14.46A11.68,11.68,0,0,0,308,138.7a11.62,11.62,0,0,1,8.88-1.47h0Z"/><path class="cls-8" d="M312.51,160.92c-4-1-9.91,1.14-8.49,1,9.45-1,15.33,6.14,13.14,15.25-2.86,11.89-21.1,5.26-17.1-6.28,1.59-4.58,8.65-2.39,9.42.21l-0.26-.27c1.32,1.34,1.05,4.15-1.91,3.35,1.79-.31,2.6-0.6,1.58-2.65l0.16,0a0.36,0.36,0,0,1-.24-0.18c-1.17-2.13-6.48-3.24-7.43-.11-2.84,9.6,11.41,14.42,13.85,5.46,1.49-5.34-.13-10.89-5.69-13a13.46,13.46,0,0,0-8.14-.4,13,13,0,0,0,5.08,22.7,13,13,0,0,0,6.06-25.18h0Z"/><path class="cls-5" d="M261.42,149.46a15.37,15.37,0,0,0-3.34-.43c8.89,4.6,14.79,19.29,5.22,25.35-10.89,6.93-28.59-11-10.28-17.23,11.29-3.84,5.6,10.81,1.64,7l0.43,0.1c3.56,0.53,6.42-8.79-1.53-5.57-13.89,5.6-1.85,16,5.88,14.41,9.8-2.07,6.79-14.93.82-20.62a14.25,14.25,0,0,0-5-3.26,15.15,15.15,0,0,0-12.53,11.37,15.65,15.65,0,1,0,18.74-11.11h0Z"/><path class="cls-7" d="M286.29,168.76a14.38,14.38,0,0,0-8.44.51c10.43-.77,18,7.41,13,18.75-2.2,5-4.05,7.14-9.91,5.61-7.32-2-13.87-9.32-6.92-15.89,6.6-6.32,16.6,3.25,7.27,6.09-1.11.35-2.52-.28-2-1.42,0.38,0.79.64,1.26,1.75,0.75,7.31-3.28-1.39-8.53-5.66-4.07-7.78,8.17,8.55,14.56,11,11.22,5.05-6.86,5.55-15.76-3.77-18.74a15,15,0,0,0-8.3-.44,13.43,13.43,0,0,0-5.07,7.63,14.22,14.22,0,1,0,17-10h0Z"/><path class="cls-9" d="M240,170.45a8.73,8.73,0,0,0-5.16.32c6.34-.44,10.92,4.51,8,11.38-1.35,3.08-2.47,4.32-6,3.39-4.48-1.16-8.44-5.64-4.24-9.63,4-3.83,10.1,2,4.44,3.69-0.7.2-1.56-.17-1.24-0.83,0.22,0.46.39,0.75,1.09,0.43,4.41-2-.85-5.16-3.46-2.47-4.72,5,5.2,8.87,6.72,6.82,3.05-4.18,3.36-9.56-2.31-11.37a9.33,9.33,0,0,0-5-.26,8.16,8.16,0,0,0-3.08,4.63A8.61,8.61,0,1,0,240,170.45h0Z"/><path class="cls-8" d="M231.17,186.12a11.53,11.53,0,0,0-6.73.39c8.3-.59,14.32,5.9,10.39,14.92-1.75,4-3.21,5.66-7.88,4.46-5.85-1.57-11-7.4-5.53-12.64,5.26-5,13.23,2.61,5.8,4.84-0.89.28-2-.2-1.62-1.13,0.3,0.64.49,1,1.42,0.59,5.78-2.58-1.12-6.78-4.51-3.22-6.19,6.5,6.8,11.6,8.8,8.92,4-5.43,4.4-12.51-3.05-14.92a12.35,12.35,0,0,0-6.56-.35,10.73,10.73,0,0,0-4,6.08,11.31,11.31,0,1,0,13.51-7.94h0Z"/><path class="cls-6" d="M286.26,167.15c4.86,0.06,11.14-3.88,9.58-3.35-10.73,3.53-19.35-3.22-19.1-14.31C277,135,299.83,138,298.08,152.41c-0.67,5.7-9.35,5-10.92,2.13l0.39,0.26c-1.85-1.18-2.27-4.52,1.33-4.35-2,.79-2.87,1.36-1.16,3.45h-0.16a0.38,0.38,0,0,1,.33.16c1.9,2.14,8.31,2.08,8.63-1.78,0.84-11.85-16.88-13.81-17.44-2.8C278.73,156,282,162,289,163.05a16,16,0,0,0,9.53-1.6,15.2,15.2,0,0,0,3.43-9.34,15.36,15.36,0,1,0-15.67,15h0Z"/><path class="cls-7" d="M338.68,231.93c4.45,0.09,10.16-3.54,8.73-3.07-9.79,3.22-17.66-2.93-17.44-13,0.31-13.21,21.08-10.46,19.48,2.68-0.59,5.19-8.54,4.5-10,1.95l0.39,0.26c-1.7-1.11-2.08-4.15,1.21-4-1.82.75-2.6,1.26-1.05,3.19l-0.16,0a0.48,0.48,0,0,1,.29.15c1.74,2,7.58,1.9,7.85-1.64,0.78-10.75-15.39-12.55-15.9-2.55-0.29,6,2.65,11.46,9,12.38a14.47,14.47,0,0,0,8.71-1.43,14.23,14.23,0,0,0,3.12-8.55,14,14,0,1,0-14.29,13.74h0Z"/><path class="cls-6" d="M353.35,187.3a16.47,16.47,0,0,0-2.91-9.22c3.72,11.3-3.18,21.94-17,19.59-6.23-1-9-2.5-8.93-9.4,0.11-8.62,6.38-17.85,15.6-12,8.79,5.56,1,19.25-4.72,9.73-0.67-1.14-.41-2.89,1-2.63-0.77.64-1.2,1.06-.32,2.18,5.62,7.13,9-3.94,2.88-7.38-11.14-6.33-13.69,13.47-9.29,15.27,8.94,3.71,18.92,1.76,19.63-9.38a17.29,17.29,0,0,0-1.83-9.25,15.15,15.15,0,0,0-9.82-3.47c-8.62.06-15.54,7.37-15.47,16.28s7.15,16.11,15.78,16,15.54-7.37,15.43-16.29h0Z"/><path class="cls-8" d="M266.31,146.33a11.44,11.44,0,0,0,4.66-4.9c-5.66,6.14-14.48,5.5-17.78-3.78-1.47-4.12-1.52-6.31,2.73-8.61,5.28-2.87,13.06-2.15,12.63,5.42-0.4,7.28-11.44,7.17-7.53.44,0.45-.84,1.61-1.25,1.91-0.28-0.63-.27-1-0.37-1.4.53-2.44,5.89,5.42,4.21,5.46-.74,0.1-9-12.86-3.79-12.46-.5,0.76,6.74,5.32,12.14,12.35,8.79a11.37,11.37,0,0,0,5-4.24,10.55,10.55,0,0,0-1.19-7.17,11.3,11.3,0,1,0-4.44,15h0Z"/><path class="cls-10" d="M223.64,210.42c20.1,19.71,30.86,38,30.31,54.63,8.85-1.68,17.21,8,25.46,6.12,8.89-19.42,29.68-31.06,58.15-37.62-4.89-1.67-9.73-3.32-14.61-5l-15.78-.35-17.92-4.92c-3.91-3.36-7.8-6.75-11.71-10.11L261,214.19c-2.66,1.53-5.29,3.07-8,4.6l-11.58-7.74c-5.94-.2-11.86-0.43-17.8-0.63h0Z"/><path class="cls-11" d="M254,265c-4.12,12.86-13.36,21.13-24.22,27.95,8.12,0.84,13.38,4.2,11.83,13.7,5.76-4.85,10.92-5.86,13.93,6,5.08-8,10.76-9.79,17.46-1,2.85-10,8.32-11.07,15.48-6.44-6.92-11.09-10.43-22.43-9-34.06-8.16,1.73-15.92-8.79-25.46-6.12h0Z"/><path class="cls-11" d="M223.64,210.42c8.51-4,16.65-3.13,24.49,2.12A12.22,12.22,0,0,0,261,214.19c33.19-19.4,26.35,21.34,53.07,11.12,10.07-1.8,17.26,3.37,23.51,8.24-26.15-9.2-29.64,10.09-51.61-9.33-8.89-6.65-11.16-6.95-21.91-3.14-16.45,5.84-15.89-10.79-40.39-10.65h0Z"/><path class="cls-8" d="M253.88,261.26s19.4,9.83,28.29,4.71a17.71,17.71,0,0,0-3.08,11.6s-17.48-12.19-26-10.07a14.12,14.12,0,0,0,.8-6.24h0Z"/><path id="_Path_5" data-name="&lt;Path&gt;" class="cls-2" d="M131.77,284.47s50.67-28.92,43.72-40.38c-7.32-12.07-22.79,5.79-22.79,5.79s5.41-25.64-6.46-25.91C125.6,223.51,131.77,284.47,131.77,284.47Z"/><path class="cls-12" d="M142.49,281.23c-5.7,10.54-11.7,25.81-26,13.65-15.38-19.13-45.8-4.67-29.5,27.65,6.91,14.46,17.11,24.77,35.14,24.95,21-4,31.46-20.68,34.57-46.15,0.06-14.06-5.65-19.3-14.17-20.11h0Z"/><path class="cls-13" d="M120.89,308.08c11.06,15.21,10.49,28.4,3.63,32.84-9.16,6-22.64-3.4-30.82-16.13-5.76-8.93-13.14-31.11,3.57-33.53,8.58-1.21,17.86,8.87,23.62,16.82h0Z"/><path class="cls-12" d="M218,281.23c5.7,10.54,11.7,25.81,26,13.65,15.32-19.13,45.8-4.67,29.5,27.65-7,14.46-17.17,24.77-35.14,24.95-21-4-31.46-20.68-34.63-46.15,0-14.06,5.65-19.3,14.23-20.11h0Z"/><path class="cls-12" d="M183.23,157.37c38,0,68.85,51,68.85,92.87,0,99.9-137.69,99.9-137.69,0,0-41.88,30.82-92.87,68.85-92.87h0Z"/><path class="cls-12" d="M260.37,93.07c8.53,8.53,7.49,23.45-2.36,33.3-31.74,33.24-62.22,1.73-31-30.94,9.85-9.85,24.77-10.89,33.36-2.36h0Z"/><path class="cls-13" d="M247.7,105.75c5.13,5.13,2.82,15.79-5.19,23.79-25.92,26.85-44.19,7.78-18.61-18.61,8-8,18.67-10.37,23.79-5.19h0Z"/><path class="cls-12" d="M106.14,93.07c-8.53,8.53-7.49,23.45,2.36,33.3,31.74,33.24,62.16,1.73,30.94-30.94-9.85-9.85-24.77-10.89-33.3-2.36h0Z"/><path class="cls-13" d="M118.76,105.75c-5.13,5.13-2.82,15.79,5.18,23.79,26,26.85,44.19,7.78,18.67-18.61-8-8-18.67-10.37-23.85-5.19h0Z"/><path class="cls-12" d="M183.23,92.38c39.52,0,71.61,27,71.61,60.26s-32.09,60.26-71.61,60.26-71.56-27-71.56-60.26,32-60.26,71.56-60.26h0Z"/><path class="cls-13" d="M183.23,135.93c20.8,0,37.68,14.17,37.68,31.69S204,199.31,183.23,199.31s-37.62-14.17-37.62-31.69,16.82-31.69,37.62-31.69h0Z"/><path class="cls-14" d="M182,152.53a1.27,1.27,0,1,1,2.54,0v24.89c6-.29,12.16-2.65,18.26-7a1.26,1.26,0,0,1,1.44,2.07c-6.91,5-13.89,7.49-20.86,7.49h-0.23c-7,0-13.88-2.48-20.86-7.49a1.28,1.28,0,1,1,1.5-2.07c6.11,4.44,12.16,6.74,18.21,7V152.53Z"/><path class="cls-15" d="M183.23,131.33c10.2,0,18.44,6.91,18.44,15.5s-8.24,15.44-18.44,15.44-18.38-6.91-18.38-15.44,8.24-15.5,18.38-15.5h0Z"/><path class="cls-15" d="M158.4,116c3.4,0,6.16,3.86,6.16,8.7s-2.77,8.7-6.16,8.7-6.11-3.92-6.11-8.7S155,116,158.4,116h0Zm49.66,0c3.4,0,6.16,3.86,6.16,8.7s-2.77,8.7-6.16,8.7-6.11-3.92-6.11-8.7,2.71-8.7,6.11-8.7h0Z"/><path class="cls-13" d="M239.63,308.08c-11.06,15.21-10.49,28.4-3.63,32.84,9.1,6,22.64-3.4,30.82-16.13,5.76-8.93,13.14-31.11-3.57-33.53-8.58-1.21-17.86,8.87-23.62,16.82h0Z"/><path class="cls-16" d="M180.52,219.24c5.93-10.89,11.81-16.3,23.62-16.3,13,0,23.62,9.74,23.62,21.72,0,21.72-23.62,43.44-47.24,65.16-23.62-21.72-47.24-43.44-47.24-65.16,0-12,10.6-21.72,23.62-21.72,11.81,0,17.74,5.42,23.62,16.3h0Z"/><path class="cls-12" d="M236,195.28c60.15,18.49,46.38,78.87-16.48,66.08-22.7-2.77-17.57-40.39,1.15-35.14,12.85,2.42,17.34,7.49,27.08-2.88A138.31,138.31,0,0,0,236,195.28h0Z"/><path class="cls-12" d="M130.57,195.28C70.48,213.77,84.19,274.15,147,261.36c22.7-2.77,17.57-40.39-1.15-35.14-12.85,2.42-17.28,7.49-27.08-2.88a138.24,138.24,0,0,1,11.75-28.06h0Z"/></svg>