<?xml version="1.0" encoding="utf-8"?>
<!-- Generator: Adobe Illustrator 19.0.0, SVG Export Plug-In . SVG Version: 6.00 Build 0)  -->
<svg version="1.1" id="Layer_1" xmlns="http://www.w3.org/2000/svg" xmlns:xlink="http://www.w3.org/1999/xlink" x="0px" y="0px"
	 viewBox="0 0 358 104.1" style="enable-background:new 0 0 358 104.1;" xml:space="preserve">
<style type="text/css">
	.st0{fill:none;stroke:#FFFFFF;stroke-width:2;stroke-miterlimit:10;}
	.st1{fill:#FFFFFF;}
	.st2{fill:#4BC2C6;}
	.st3{fill:#45B7B9;}
</style>
<path class="st0" d="M280.8,82.3c0,0,2.7,3.3-4.4,3.3c-7.1,0-16.3,0-16.3,0"/>
<line class="st0" x1="248.4" y1="84.9" x2="231.3" y2="84.9"/>
<path class="st0" d="M219.1,85.1c0,0-4.7,4.8-13.3,0.5"/>
<path class="st0" d="M137.6,85.1c0,0-9.1,8.4-17.6-1.3"/>
<path class="st0" d="M97.2,83c0,0,2.1,12.1-15.7,2.1"/>
<line class="st0" x1="69.3" y1="84.9" x2="52.2" y2="84.9"/>
<path class="st0" d="M39.7,85.4c0.1,2.8-14.3,3.6-14.2-1.9"/>
<circle class="st1" cx="143.6" cy="23.9" r="8.3"/>
<path class="st0" d="M316.1,83.1c0,0,4.6,3.1-1.1,3.1s-15.2,0-15.2,0s-1.8-0.5-1.8-3.1"/>
<g>
	<g>
		<path class="st0" d="M12.5,85.2V18.7h13.1v64.5L12.5,85.2z"/>
		<path class="st0" d="M52.2,84.9H39.7V39h12.1v5.7c2.8-4.8,8.3-6.9,13.3-6.9c11.4,0,16.6,8.1,16.6,18.2v29H69.3V58.1
			c0-5.1-2.5-9.2-8.5-9.2c-5.4,0-8.6,4.2-8.6,9.5V84.9z"/>
		<path class="st0" d="M101,69.8c0.3,3.6,3,7,8.4,7c4.1,0,6.1-2.1,6.1-4.6c0-2.1-1.4-3.7-5-4.5l-6.1-1.4c-8.9-2-12.9-7.3-12.9-13.7
			c0-8.2,7.3-15,17.2-15c13.1,0,17.5,8.3,18,13.3l-10.4,2.3c-0.4-2.7-2.3-6.2-7.6-6.2c-3.3,0-5.9,2-5.9,4.6c0,2.2,1.7,3.6,4.2,4.1
			l6.5,1.4c9.1,1.9,13.6,7.4,13.6,14.1c0,7.5-5.8,15.1-17.8,15.1c-13.8,0-18.6-9-19.2-14.2L101,69.8z"/>
		<path class="st0" d="M143.5,16.2c4.3,0,7.7,3.5,7.7,7.8c0,4.1-3.4,7.6-7.7,7.6c-4.2,0-7.7-3.5-7.7-7.6
			C135.9,19.6,139.3,16.2,143.5,16.2z M137.4,84.9V39h12.4v46H137.4z"/>
		<path class="st0" d="M171,84.5c0.8,5,4.9,8.7,10.7,8.7c7.8,0,12.2-3.9,12.2-12.8V77c-1.9,3-6.2,5.9-12.8,5.9
			c-12.2,0-21.4-9.4-21.4-22.3c0-12.1,8.8-22.4,21.4-22.4c7.3,0,11.5,3.2,13.1,6.3V39h12v41c0,12.6-6.8,24.1-24.1,24.1
			c-12.6,0-21-7.8-22.3-16.6L171,84.5z M194.2,60.6c0-7.1-4.9-11.6-10.8-11.6c-6.2,0-11,4.5-11,11.6c0,7.2,4.6,11.7,11,11.7
			C189.7,72.2,194.2,67.7,194.2,60.6z"/>
		<path class="st0" d="M231.3,84.9h-12.4V17.3h12.4v25.5c3-3.6,8-5,12.4-5c11.7,0,17.1,8.1,17.1,18.2v29h-12.4V58.1
			c0-5.1-2.5-9.2-8.5-9.2c-5.2,0-8.3,3.9-8.6,9V84.9z"/>
		<path class="st0" d="M288.7,39h9.2v11h-9.2v19.2c0,4,1.9,5.3,5.4,5.3c1.5,0,3.2-0.2,3.8-0.4v10.3c-1.1,0.5-3.4,1.1-7,1.1
			c-9,0-14.6-5.3-14.6-14.2V50h-8.3V39h2.3c4.9,0,7.1-3.2,7.1-7.3v-6.4h11.2V39z"/>
	</g>
	<g>
		<path class="st0" d="M321.4,70.3c0.3,3.8,3.2,7.4,8.9,7.4c4.3,0,6.4-2.3,6.4-4.8c0-2.2-1.5-3.9-5.2-4.7l-6.4-1.5
			c-9.4-2.1-13.6-7.7-13.6-14.5c0-8.7,7.7-15.9,18.2-15.9c13.8,0,18.5,8.8,19,14l-11,2.5c-0.4-2.9-2.5-6.5-8-6.5
			c-3.5,0-6.2,2.1-6.2,4.8c0,2.4,1.8,3.8,4.4,4.3l6.9,1.5c9.6,2,14.4,7.8,14.4,14.9c0,7.9-6.1,16-18.8,16c-14.6,0-19.6-9.5-20.2-15
			L321.4,70.3z"/>
	</g>
</g>
<path class="st2" d="M318.9,84.3c0,0,0.1,1.5-0.7,2.1c-0.9,0.7,6.9,2.7,6.9,2.7l21.8,2.7l-2.8-5.6c0,0-1.8-1.2-1.9-2.9
	c-3.9-0.2-25.9-1.3-25.9-1.3L318.9,84.3z"/>
<path class="st0" d="M193.8,83.7c-2.5,10.7-30.5,16.9-44.1,1.5"/>
<path class="st3" d="M51.1,83l0,3.4c0,0-11.2,1.1-10.6,0c0.5-1.1,0.2-4.7,0.2-4.7L51.1,83z"/>
<polygon class="st2" points="219.7,84.2 225.4,86 219.7,87.9 "/>
<path class="st2" d="M297.8,86.1c-0.7-1.1-0.9-2.4-0.9-2.4l-13.8-1.2l-1.2-0.6c0,0,0.9,2,0,3c-0.7,0.8,10.2,2.8,10.2,2.8
	S298.4,87,297.8,86.1z"/>
<polygon class="st2" points="296.8,83.3 296.9,84.7 294.7,84.4 "/>
<path class="st2" d="M144.1,91.6h-1c-2.8,0-5-2.2-5-5v-1.1c0-2.8,2.2-5,5-5h1c2.8,0,5,2.2,5,5v1.1C149.1,89.4,146.9,91.6,144.1,91.6
	z"/>
<polygon class="st2" points="98,85.9 99.5,85.8 118.6,82 120.4,86.6 110.1,88.5 102.7,88.5 "/>
<polygon class="st2" points="230.5,81 230.5,86.3 226.3,86.3 219.7,84.2 219.7,81 "/>
<path class="st2" d="M115.2,82.4l-18.7-1.2c0,0,2.4,1.5,1.5,5C102.7,85.8,115.2,82.4,115.2,82.4z"/>
<polygon class="st2" points="249.2,83.8 260.1,86 260.1,83 "/>
<polygon class="st2" points="249.2,83.8 249.2,86.7 260.1,87.4 260.1,86 "/>
<polygon class="st3" points="70.2,81.1 70.3,86.6 80.6,86.8 80.7,78.6 "/>
<path class="st3" d="M13.4,80.5v7.5h11.3c0,0-0.2-6.3-0.2-6.8C24.5,80.5,13.4,80.5,13.4,80.5z"/>
<polygon class="st1" points="11.5,86.3 13.4,86.3 13.4,85.2 "/>
<g id="XMLID_15_">
	<path id="XMLID_68_" class="st2" d="M216.1,105.1c0-10.4-8.4-20.8-18.8-20.8l-30.5-1.7c-10.4,0-19.5,12.2-19.5,22.6v0L216.1,105.1
		L216.1,105.1z"/>
</g>
</svg>
