<svg id="Layer_1" data-name="Layer 1" xmlns="http://www.w3.org/2000/svg" viewBox="0 0 1031.1 189.2"><defs><style>.cls-1{fill:#fff;}.cls-2{fill:#f2673a;}</style></defs><title>insight-logo</title><g id="_Group_" data-name="&lt;Group&gt;"><path id="_Path_" data-name="&lt;Path&gt;" class="cls-1" d="M608,155.8V78.5h15.3v77.3H608Z"/><path id="_Path_2" data-name="&lt;Path&gt;" class="cls-1" d="M654.3,155.8H639.8V102.2h14.1v6.6c3.3-5.6,9.7-8.1,15.5-8.1,13.3,0,19.4,9.5,19.4,21.3v33.8H674.3V124.5c0-6-2.9-10.7-9.9-10.7-6.3,0-10,4.9-10,11.1v30.9h-0.1Z"/><path id="_Path_3" data-name="&lt;Path&gt;" class="cls-1" d="M711.3,138.1c0.3,4.3,3.5,8.2,9.8,8.2,4.8,0,7.1-2.5,7.1-5.3,0-2.4-1.6-4.4-5.8-5.2l-7.1-1.6c-10.4-2.3-15-8.5-15-16,0-9.6,8.5-17.5,20.1-17.5,15.3,0,20.4,9.7,21,15.5l-12.1,2.7c-0.4-3.2-2.7-7.2-8.8-7.2-3.8,0-6.9,2.3-6.9,5.3,0,2.6,2,4.3,4.9,4.8l7.6,1.6c10.6,2.2,15.9,8.6,15.9,16.5,0,8.7-6.8,17.7-20.8,17.7-16.1,0-21.7-10.5-22.3-16.6Z"/><path id="_Compound_Path_" data-name="&lt;Compound Path&gt;" class="cls-1" d="M760.9,75.6a8.9,8.9,0,1,1-8.9,9A8.88,8.88,0,0,1,760.9,75.6Zm-7.2,80.2V102.2h14.5v53.6H753.7Z"/><path id="_Compound_Path_2" data-name="&lt;Compound Path&gt;" class="cls-1" d="M792.9,155.2c1,5.9,5.7,10.1,12.5,10.1,9.2,0,14.3-4.6,14.3-14.9v-3.9c-2.2,3.5-7.2,6.9-14.9,6.9-14.3,0-25-11-25-26,0-14.2,10.2-26.2,25-26.2,8.5,0,13.4,3.7,15.3,7.3v-6.3h14V150c0,14.7-8,28.1-28.1,28.1-14.7,0-24.5-9.2-26-19.4ZM820,127.3c0-8.3-5.7-13.5-12.6-13.5-7.2,0-12.9,5.2-12.9,13.5s5.3,13.6,12.9,13.6C814.7,141,820,135.6,820,127.3Z"/><path id="_Path_4" data-name="&lt;Path&gt;" class="cls-1" d="M863.2,155.8H848.7V76.9h14.5v29.8c3.5-4.1,9.4-5.9,14.5-5.9,13.6,0,19.9,9.5,19.9,21.3v33.8H883.1V124.6c0-6-2.9-10.7-9.9-10.7-6.1,0-9.7,4.6-10,10.5v31.4Z"/><path id="_Path_5" data-name="&lt;Path&gt;" class="cls-1" d="M930.2,102.2H941V115H930.2v22.5c0,4.7,2.2,6.2,6.3,6.2a23.93,23.93,0,0,0,4.5-.4v12a22.43,22.43,0,0,1-8.2,1.3c-10.5,0-17-6.2-17-16.6V115h-9.7V102.1h2.7c5.7,0,8.3-3.7,8.3-8.5V86.1h13.1v16.1h0Z"/><path id="_Path_6" data-name="&lt;Path&gt;" class="cls-1" d="M962.4,138.1c0.3,4.3,3.5,8.2,9.8,8.2,4.8,0,7.1-2.5,7.1-5.3,0-2.4-1.6-4.4-5.8-5.2l-7.1-1.6c-10.4-2.3-15-8.5-15-16,0-9.6,8.5-17.5,20.1-17.5,15.3,0,20.4,9.7,21,15.5l-12.1,2.7c-0.4-3.2-2.7-7.2-8.8-7.2-3.8,0-6.9,2.3-6.9,5.3,0,2.6,2,4.3,4.9,4.8l7.6,1.6c10.6,2.2,15.9,8.6,15.9,16.5,0,8.7-6.8,17.7-20.8,17.7-16.1,0-21.7-10.5-22.3-16.6Z"/></g><g id="_Group_2" data-name="&lt;Group&gt;"><path id="_Path_7" data-name="&lt;Path&gt;" class="cls-1" d="M389.8,106.7a0.35,0.35,0,0,0-.1-0.2c0,0.1.1,0.1,0.1,0.2h0Z"/><path id="_Path_8" data-name="&lt;Path&gt;" class="cls-2" d="M14.2,21a10.5,10.5,0,0,1,21,0A10.31,10.31,0,0,1,24.7,31.5,10.25,10.25,0,0,1,14.2,21Z"/><rect id="_Path_9" data-name="&lt;Path&gt;" class="cls-1" x="14.2" y="51.4" width="21.1" height="86.9"/><path id="_Compound_Path_3" data-name="&lt;Compound Path&gt;" class="cls-1" d="M245.7,13.1a10.24,10.24,0,0,0-10.4,10.3,10.4,10.4,0,0,0,20.8,0A10.18,10.18,0,0,0,245.7,13.1ZM235.2,53.6v86.9h21.1V53.6H235.2Z"/><g id="_Group_3" data-name="&lt;Group&gt;"><path id="_Path_10" data-name="&lt;Path&gt;" class="cls-1" d="M106.6,173.7L98,158.3h3.9l5.1,9.3a28.4,28.4,0,0,1,1.4,3.3,28.4,28.4,0,0,1,1.4-3.3l4.9-9.3h3.6l-8.2,15.2v7.3h-3.5v-7.1Z"/><path id="_Compound_Path_4" data-name="&lt;Compound Path&gt;" class="cls-1" d="M116.2,173.8a7.5,7.5,0,1,1,7.5,7.3A7.26,7.26,0,0,1,116.2,173.8Zm11.6,0a3.94,3.94,0,0,0-4.1-4.3,4,4,0,0,0-4.1,4.3c0,2.6,1.6,4.4,4.1,4.4S127.8,176.4,127.8,173.8Z"/><path id="_Path_11" data-name="&lt;Path&gt;" class="cls-1" d="M134.7,175.2v-8.3h3.4v8c0,2,.9,3.2,2.9,3.2a3.36,3.36,0,0,0,3.6-3.6v-7.6H148v13.9h-3.4l0.1-2.6a5.11,5.11,0,0,1-4.7,2.9C136.8,181.1,134.7,179,134.7,175.2Z"/><path id="_Path_12" data-name="&lt;Path&gt;" class="cls-1" d="M152.1,166.9h3.4v2.6a4.2,4.2,0,0,1,4.1-2.9,3.92,3.92,0,0,1,2.3.6l-1.1,3a3.45,3.45,0,0,0-1.8-.5c-2,0-3.4,1.2-3.4,4.3v6.8h-3.4V166.9h-0.1Z"/><path id="_Compound_Path_5" data-name="&lt;Compound Path&gt;" class="cls-1" d="M171.4,173.8a7.5,7.5,0,1,1,7.5,7.3A7.26,7.26,0,0,1,171.4,173.8Zm11.6,0a3.94,3.94,0,0,0-4.1-4.3,4,4,0,0,0-4.1,4.3c0,2.6,1.6,4.4,4.1,4.4S183,176.4,183,173.8Z"/><path id="_Path_13" data-name="&lt;Path&gt;" class="cls-1" d="M190,166.9h3.4l-0.1,2.6a5.11,5.11,0,0,1,4.7-2.9c3.1,0,5.2,2.2,5.2,6v8.3h-3.4v-8c0-2-.9-3.2-2.9-3.2a3.31,3.31,0,0,0-3.6,3.6v7.6H190v-14Z"/><path id="_Compound_Path_6" data-name="&lt;Compound Path&gt;" class="cls-1" d="M214.4,178.3a5.67,5.67,0,0,0,4-1.5l2,2.1a7.86,7.86,0,0,1-5.9,2.3c-4.8,0-7.9-3.1-7.9-7.3a7.24,7.24,0,0,1,7.4-7.3c4.8,0,7.4,3.5,7.2,8.4H210C210.4,177,211.9,178.3,214.4,178.3Zm3.5-5.7a3.59,3.59,0,0,0-3.8-3.3,3.86,3.86,0,0,0-4.1,3.3h7.9Z"/><path id="_Path_14" data-name="&lt;Path&gt;" class="cls-1" d="M231.1,178.2l2.3-1.6a4.52,4.52,0,0,0,3.8,1.8c1.7,0,2.5-.6,2.5-1.5,0-1.1-1-1.3-3.4-2-2.1-.6-4.1-1.5-4.1-4.3s2.2-4.1,5-4.1a6,6,0,0,1,4.8,2.1l-2,1.9a3.7,3.7,0,0,0-2.9-1.4c-1.3,0-2,.5-2,1.3,0,1.1.9,1.3,3.1,1.9s4.6,1.4,4.6,4.4c0,2.4-1.5,4.4-5.4,4.4A7.32,7.32,0,0,1,231.1,178.2Z"/><path id="_Path_15" data-name="&lt;Path&gt;" class="cls-1" d="M246.7,176.1v-6.4h-2.1v-2.8h2.1v-7.3h3.4v7.3h3.7v2.8h-3.7v6.5c0,1.6.5,2.1,1.4,2.1a2.68,2.68,0,0,0,1.7-.7l1.6,2.3a4.82,4.82,0,0,1-3.6,1.3C248.5,181.1,246.7,179.8,246.7,176.1Z"/><path id="_Compound_Path_7" data-name="&lt;Compound Path&gt;" class="cls-1" d="M256.7,173.8a7.5,7.5,0,1,1,7.5,7.3A7.26,7.26,0,0,1,256.7,173.8Zm11.6,0a3.94,3.94,0,0,0-4.1-4.3,4,4,0,0,0-4.1,4.3c0,2.6,1.6,4.4,4.1,4.4S268.3,176.4,268.3,173.8Z"/><path id="_Compound_Path_8" data-name="&lt;Compound Path&gt;" class="cls-1" d="M275.3,166.9h3.4l-0.1,2.6a5.37,5.37,0,0,1,4.9-2.9c3.6,0,6.5,3,6.5,7.2s-2.9,7.3-6.5,7.3a5.13,5.13,0,0,1-4.8-2.7v9.4h-3.4V166.9Zm11.3,6.9c0-2.5-1.5-4.3-4-4.3a3.94,3.94,0,0,0-4.1,4.3c0,2.6,1.6,4.4,4.1,4.4S286.6,176.4,286.6,173.8Z"/><path id="_Path_16" data-name="&lt;Path&gt;" class="cls-1" d="M299.9,178.2l2.3-1.6a4.52,4.52,0,0,0,3.8,1.8c1.7,0,2.5-.6,2.5-1.5,0-1.1-1-1.3-3.4-2-2.1-.6-4.1-1.5-4.1-4.3s2.2-4.1,5-4.1a6,6,0,0,1,4.8,2.1l-2,1.9a3.7,3.7,0,0,0-2.9-1.4c-1.3,0-2,.5-2,1.3,0,1.1.9,1.3,3.1,1.9s4.6,1.4,4.6,4.4c0,2.4-1.5,4.4-5.4,4.4A7.32,7.32,0,0,1,299.9,178.2Z"/><path id="_Path_17" data-name="&lt;Path&gt;" class="cls-1" d="M315,156.8h3.4v12.5a5.2,5.2,0,0,1,4.7-2.8c3.1,0,5.2,2.2,5.2,6v8.3h-3.4v-8c0-2-.9-3.2-2.9-3.2a3.31,3.31,0,0,0-3.6,3.6v7.6H315v-24Z"/><path id="_Compound_Path_9" data-name="&lt;Compound Path&gt;" class="cls-1" d="M331.6,173.8a7.5,7.5,0,1,1,7.5,7.3A7.26,7.26,0,0,1,331.6,173.8Zm11.6,0a3.94,3.94,0,0,0-4.1-4.3,4,4,0,0,0-4.1,4.3c0,2.6,1.6,4.4,4.1,4.4S343.2,176.4,343.2,173.8Z"/><path id="_Compound_Path_10" data-name="&lt;Compound Path&gt;" class="cls-1" d="M350.2,166.9h3.4l-0.1,2.6a5.37,5.37,0,0,1,4.9-2.9c3.6,0,6.5,3,6.5,7.2s-2.9,7.3-6.5,7.3a5.13,5.13,0,0,1-4.8-2.7v9.4h-3.4V166.9Zm11.3,6.9c0-2.5-1.5-4.3-4-4.3a3.94,3.94,0,0,0-4.1,4.3c0,2.6,1.6,4.4,4.1,4.4S361.5,176.4,361.5,173.8Z"/><path id="_Compound_Path_11" data-name="&lt;Compound Path&gt;" class="cls-1" d="M368.5,166.9h3.4l-0.1,2.6a5.37,5.37,0,0,1,4.9-2.9c3.6,0,6.5,3,6.5,7.2s-2.9,7.3-6.5,7.3a5.13,5.13,0,0,1-4.8-2.7v9.4h-3.4V166.9Zm11.3,6.9c0-2.5-1.5-4.3-4-4.3a3.94,3.94,0,0,0-4.1,4.3c0,2.6,1.6,4.4,4.1,4.4S379.8,176.4,379.8,173.8Z"/><path id="_Compound_Path_12" data-name="&lt;Compound Path&gt;" class="cls-1" d="M386.4,161.5a2.2,2.2,0,1,1,2.2,2.2A2.16,2.16,0,0,1,386.4,161.5Zm0.5,5.4h3.4v13.9h-3.4V166.9Z"/><path id="_Path_18" data-name="&lt;Path&gt;" class="cls-1" d="M394.6,166.9H398l-0.1,2.6a5.11,5.11,0,0,1,4.7-2.9c3.1,0,5.2,2.2,5.2,6v8.3h-3.4v-8c0-2-.9-3.2-2.9-3.2a3.31,3.31,0,0,0-3.6,3.6v7.6h-3.4v-14h0.1Z"/><path id="_Compound_Path_13" data-name="&lt;Compound Path&gt;" class="cls-1" d="M424.9,166.9v2.5h-2.4a3.57,3.57,0,0,1,.8,2.3c0,3-2.3,5.1-5.6,5.1a6.53,6.53,0,0,1-2.9-.6,1.31,1.31,0,0,0-.7,1.2c0,0.7.5,1.1,1.6,1.2l3.5,0.2c3.9,0.2,5.9,1.7,5.9,4.5,0,3-2.5,5.1-7.6,5.1-4.7,0-7.3-1.8-7.3-4.6,0-1.7,1.2-2.8,3-3.3a2.88,2.88,0,0,1-1.8-2.7,3,3,0,0,1,1.9-2.7,4.53,4.53,0,0,1-1.4-3.3c0-2.9,2.4-5,5.8-5a6,6,0,0,1,2,.3h5.2v-0.2Zm-11.4,16.3c0,1.5,1.2,2.4,4,2.4s4.1-.9,4.1-2.3c0-1.2-.7-1.6-3.1-1.8l-3.9-.3A2.43,2.43,0,0,0,413.5,183.2Zm6.8-11.6a2.7,2.7,0,1,0-2.7,2.6A2.49,2.49,0,0,0,420.3,171.6Z"/><path id="_Compound_Path_14" data-name="&lt;Compound Path&gt;" class="cls-1" d="M434.7,173.8c0-4.2,2.9-7.2,6.5-7.2a5,5,0,0,1,4.8,2.7V156.8h3.4v24H446l0.1-2.5a5.29,5.29,0,0,1-4.9,2.8C437.7,181.1,434.7,178,434.7,173.8Zm11.5,0a4,4,0,0,0-4.1-4.3c-2.4,0-4,1.7-4,4.3s1.5,4.4,4,4.4S446.2,176.4,446.2,173.8Z"/><path id="_Compound_Path_15" data-name="&lt;Compound Path&gt;" class="cls-1" d="M460.8,178.3a5.67,5.67,0,0,0,4-1.5l2,2.1a7.86,7.86,0,0,1-5.9,2.3c-4.8,0-7.9-3.1-7.9-7.3a7.24,7.24,0,0,1,7.4-7.3c4.7,0,7.4,3.5,7.2,8.4H456.4C456.8,177,458.3,178.3,460.8,178.3Zm3.5-5.7a3.59,3.59,0,0,0-3.8-3.3,3.86,3.86,0,0,0-4.1,3.3h7.9Z"/><path id="_Path_19" data-name="&lt;Path&gt;" class="cls-1" d="M469.8,178.2l2.3-1.6a4.52,4.52,0,0,0,3.8,1.8c1.7,0,2.5-.6,2.5-1.5,0-1.1-1-1.3-3.4-2-2.1-.6-4.1-1.5-4.1-4.3s2.2-4.1,5-4.1a6,6,0,0,1,4.8,2.1l-2,1.9a3.7,3.7,0,0,0-2.9-1.4c-1.3,0-2,.5-2,1.3,0,1.1.9,1.3,3.1,1.9s4.6,1.4,4.6,4.4c0,2.4-1.5,4.4-5.4,4.4C472.8,181.1,470.7,179.7,469.8,178.2Z"/><path id="_Path_20" data-name="&lt;Path&gt;" class="cls-1" d="M485.4,176.1v-6.4h-2.1v-2.8h2.1v-7.3h3.4v7.3h3.7v2.8h-3.7v6.5c0,1.6.5,2.1,1.4,2.1a2.68,2.68,0,0,0,1.7-.7l1.6,2.3a4.82,4.82,0,0,1-3.6,1.3C487.2,181.1,485.4,179.8,485.4,176.1Z"/><path id="_Compound_Path_16" data-name="&lt;Compound Path&gt;" class="cls-1" d="M495.6,161.5a2.2,2.2,0,1,1,2.2,2.2A2.16,2.16,0,0,1,495.6,161.5Zm0.5,5.4h3.4v13.9h-3.4V166.9Z"/><path id="_Path_21" data-name="&lt;Path&gt;" class="cls-1" d="M503.9,166.9h3.4l-0.1,2.6a5.11,5.11,0,0,1,4.7-2.9c3.1,0,5.2,2.2,5.2,6v8.3h-3.4v-8c0-2-.9-3.2-2.9-3.2a3.31,3.31,0,0,0-3.6,3.6v7.6h-3.4v-14h0.1Z"/><path id="_Compound_Path_17" data-name="&lt;Compound Path&gt;" class="cls-1" d="M526.8,169.4a4.67,4.67,0,0,0-3.7,1.7l-1.9-2a6.79,6.79,0,0,1,5.8-2.5c3.4,0,5.9,1.9,5.9,6v8.2h-3.4l0.1-2a4.81,4.81,0,0,1-4.4,2.3c-2.8,0-5-1.3-5-4.4,0-2.9,2.3-4.2,5.5-4.2h3.8C529.6,170.3,528.6,169.4,526.8,169.4Zm-0.8,5.4c-1.5,0-2.4.5-2.4,1.8s0.9,1.8,2.7,1.8c2,0,3.4-1,3.4-2.5v-1.1H526Z"/><path id="_Path_22" data-name="&lt;Path&gt;" class="cls-1" d="M538,176.1v-6.4h-2.1v-2.8H538v-7.3h3.4v7.3h3.7v2.8h-3.7v6.5c0,1.6.5,2.1,1.4,2.1a2.68,2.68,0,0,0,1.7-.7l1.6,2.3a4.82,4.82,0,0,1-3.6,1.3C539.8,181.1,538,179.8,538,176.1Z"/><path id="_Compound_Path_18" data-name="&lt;Compound Path&gt;" class="cls-1" d="M548.2,161.5a2.2,2.2,0,1,1,2.2,2.2A2.22,2.22,0,0,1,548.2,161.5Zm0.6,5.4h3.4v13.9h-3.4V166.9Z"/><path id="_Compound_Path_19" data-name="&lt;Compound Path&gt;" class="cls-1" d="M555.8,173.8a7.5,7.5,0,1,1,7.5,7.3A7.26,7.26,0,0,1,555.8,173.8Zm11.6,0a3.94,3.94,0,0,0-4.1-4.3,4,4,0,0,0-4.1,4.3c0,2.6,1.6,4.4,4.1,4.4S567.4,176.4,567.4,173.8Z"/><path id="_Path_23" data-name="&lt;Path&gt;" class="cls-1" d="M574.4,166.9h3.4l-0.1,2.6a5.11,5.11,0,0,1,4.7-2.9c3.1,0,5.2,2.2,5.2,6v8.3h-3.4v-8c0-2-.9-3.2-2.9-3.2a3.31,3.31,0,0,0-3.6,3.6v7.6h-3.4v-14h0.1Z"/></g><path id="_Compound_Path_20" data-name="&lt;Compound Path&gt;" class="cls-1" d="M577.9,82.2L567.7,72h0l-3.4-3.4L561,65.3l-3.4-3.4L548,52.3l-0.6-.6L537.3,41.6,527.2,51.7l-43,43-10.1,10.1,10.1,10.1,30.5,30.5,10.1,10.1,10.1-10.1,43-43L588,92.3Zm-53,53.1-30.5-30.5,43-43,10,10,0.2,0.2,10.1,10.1,0.2,0.2,10,10Z"/><path id="_Path_24" data-name="&lt;Path&gt;" class="cls-1" d="M319.8,122.5a26.6,26.6,0,1,1,20.8-43.2l15.9-12.7a46.93,46.93,0,1,0-.7,59.2l-15.6-13A26,26,0,0,1,319.8,122.5Z"/><path id="_Compound_Path_21" data-name="&lt;Compound Path&gt;" class="cls-1" d="M103.4,51.4h-2a35.32,35.32,0,0,0-19.3,5.2,40.41,40.41,0,0,0-5.2,3.2V52.5h-21V180H77V134.8A45.88,45.88,0,1,0,103.4,51.4Zm0,71.9a26,26,0,1,1,26-26A25.95,25.95,0,0,1,103.4,123.3Z"/><path id="_Path_25" data-name="&lt;Path&gt;" class="cls-1" d="M213.6,54.2c-15.9-4.4-25.6,2.2-30.6,7.9V53.7H162.1V80.1h0v60.4H183V100.1c0-19.4,8.5-26.7,20.9-26.7a23.15,23.15,0,0,1,11.4,2.9l7-18.8A23.21,23.21,0,0,0,213.6,54.2Z"/><path id="_Compound_Path_22" data-name="&lt;Compound Path&gt;" class="cls-1" d="M459.8,106.4A45.69,45.69,0,0,0,461,95.9a38.14,38.14,0,0,0-.4-5.9c-0.2-1.6-.5-3.1-0.8-4.6a46.89,46.89,0,0,0-91.4,0,45.69,45.69,0,0,0-1.2,10.5c0,0.6.1,1.1,0.1,1.6h0c0,0.7.1,1.4,0.1,2.1a46,46,0,0,0,3.7,17.2,44.36,44.36,0,0,0,25.7,24.3,54.62,54.62,0,0,0,19,3.3,52.22,52.22,0,0,0,20.3-4.1,45,45,0,0,0,17.5-13.8l-16-12.1a38.34,38.34,0,0,1-9.9,8.6c-3.8,2.3-8.5,3.4-14,3.4a24.73,24.73,0,0,1-16.2-5.6,22.34,22.34,0,0,1-7.6-14.2v-0.3h69.9v0.1ZM396.7,73.2c3.9-3.8,9.2-5.8,15.9-5.8q10.65,0,16.5,5.7c4,3.8,6,9,6.1,15.5H389.5C390.4,82.1,392.8,77,396.7,73.2Z"/><path id="_Path_26" data-name="&lt;Path&gt;" class="cls-2" d="M578,82.2l4.7-4.7h0A21.58,21.58,0,0,0,552.2,47h0L537.3,61.9l10.2,10.2,14.9-14.9a7.14,7.14,0,0,1,10.1,10.1l-4.8,4.8L578,82.2"/></g></svg>