<?xml version="1.0" encoding="utf-8"?>
<!-- Generator: Adobe Illustrator 19.1.0, SVG Export Plug-In . SVG Version: 6.00 Build 0)  -->
<svg version="1.1" id="Layer_1" xmlns="http://www.w3.org/2000/svg" xmlns:xlink="http://www.w3.org/1999/xlink" x="0px" y="0px"
	 viewBox="0 0 1367.7 648.7" style="enable-background:new 0 0 1367.7 648.7;" xml:space="preserve">
<style type="text/css">
	.st0{fill:#C2532D;}
	.st1{fill:#D45A32;}
	.st2{fill:none;stroke:#C3542C;stroke-width:3;stroke-miterlimit:10;}
	.st3{fill:#C2532D;stroke:#C34932;stroke-miterlimit:10;}
	.st4{fill:#C36E52;}
	.st5{fill:#B64E29;}
	.st6{fill:none;stroke:#C2532D;stroke-width:4;stroke-miterlimit:10;}
	.st7{fill:none;stroke:#C2532D;stroke-width:5;stroke-miterlimit:10;}
	.st8{opacity:0.35;fill:#C28E7C;}
</style>
<g>
	<path class="st0" d="M496.5,367.1h-12c-3,0-5.5-2.5-5.5-5.5v-22.9c0-3,2.5-5.5,5.5-5.5h12c3,0,5.5,2.5,5.5,5.5v22.9
		C502,364.6,499.5,367.1,496.5,367.1z"/>
	<polygon class="st0" points="498.9,336.8 505.1,326.4 476.9,326.4 482.1,336.8 	"/>
	
		<rect x="482" y="316.4" transform="matrix(0.8973 -0.4413 0.4413 0.8973 -97.4601 247.2874)" class="st0" width="1.7" height="33.5"/>
</g>
<g>
	<rect x="453.6" y="356.6" class="st1" width="881.1" height="38.5"/>
	<rect x="1213.2" y="374.3" class="st1" width="25.1" height="226.4"/>
	<rect x="559.9" y="374.3" class="st1" width="25.1" height="226.4"/>
</g>
<g>
	<rect x="833.3" y="166.7" class="st0" width="152.4" height="311"/>
	<rect x="788.2" y="423.4" class="st0" width="253.7" height="75.1"/>
	<rect x="1010.8" y="488.1" class="st0" width="10.4" height="112.6"/>
	<rect x="812.5" y="488.1" class="st0" width="10.4" height="112.6"/>
</g>
<rect x="1213.2" y="308.6" class="st0" width="82.7" height="48"/>
<path class="st0" d="M1269.6,356.6h-29.9c-7.6,0-13.8-6.2-13.8-13.8v-49.7c0-7.6,6.2-13.8,13.8-13.8h29.9c7.6,0,13.8,6.2,13.8,13.8
	v49.7C1283.4,350.5,1277.2,356.6,1269.6,356.6z"/>
<polyline class="st2" points="1254.6,286.7 1254.7,176.1 1245.6,176.1 1245.6,167.7 1177.8,136.4 "/>
<path class="st0" d="M1197.6,126.6l-41.8,25.6c-3.4,2.1-7.9,1-10-2.4l-8.2-13.4c-2.1-3.4-1-7.9,2.4-10l41.8-25.6
	c3.4-2.1,7.9-1,10,2.4l8.2,13.4C1202.1,120,1201,124.5,1197.6,126.6z"/>
<polygon class="st0" points="1161.1,113.5 1099.5,126.5 1161.1,179.2 1177.8,136.4 "/>
<g>
	<rect x="530.7" y="326.4" class="st3" width="97.1" height="9.4"/>
	<rect x="530.7" y="336.8" class="st3" width="97.1" height="9.4"/>
	<rect x="530.7" y="347.2" class="st3" width="97.1" height="9.4"/>
</g>
<g>
	<path class="st0" d="M260,483.8H76.3c-14.2,0-25.8-11.5-25.8-25.8v-371c0-14.2,11.5-25.8,25.8-25.8H260c14.2,0,25.8,11.5,25.8,25.8
		v371C285.7,472.3,274.2,483.8,260,483.8z"/>
	<path class="st4" d="M248.8,439.7H86c-12.2,0-22.1-9.9-22.1-22.1v-318c0-12.2,9.9-22.1,22.1-22.1h162.8c12.2,0,22.1,9.9,22.1,22.1
		v318C270.9,429.8,261,439.7,248.8,439.7z"/>
	<path class="st5" d="M193.2,470.3H136c-2.2,0-4-1.8-4-4v-8.8c0-2.2,1.8-4,4-4h57.2c2.2,0,4,1.8,4,4v8.8
		C197.3,468.4,195.4,470.3,193.2,470.3z"/>
	<g>
		<rect x="133.1" y="139.3" class="st6" width="59.4" height="49.3"/>
		<rect x="133.1" y="206.6" class="st6" width="59.4" height="49.3"/>
		<rect x="133.1" y="273.8" class="st6" width="59.4" height="49.3"/>
		<rect x="133.1" y="341" class="st6" width="59.4" height="49.3"/>
		<polyline class="st7" points="152.7,156.1 168,180.8 209.3,119.2 		"/>
		<polyline class="st7" points="152.7,218.9 168,243.5 209.3,181.9 		"/>
	</g>
	<path class="st8" d="M270.6,101.7L84.1,439c0,0-19.9-12.8-19.9-27.8c0-15,0-303.4,0-303.4s0.9-29.4,29.4-29.4s148.2,0,148.2,0
		S270,81.7,270.6,101.7z"/>
</g>
</svg>
