<!-- Generator: Adobe Illustrator 19.1.0, SVG Export Plug-In  -->
<svg version="1.1"
	 xmlns="http://www.w3.org/2000/svg" xmlns:xlink="http://www.w3.org/1999/xlink" xmlns:a="http://ns.adobe.com/AdobeSVGViewerExtensions/3.0/"
	 x="0px" y="0px" width="287.1px" height="166.5px" viewBox="0 0 287.1 166.5"
	 style="overflow:scroll;enable-background:new 0 0 287.1 166.5;" xml:space="preserve">
<style type="text/css">
	.st0{fill:#F2673A;}
	.st1{fill:#096B88;}
</style>
<defs>
</defs>
<g>
	<g>
		<path class="st0" d="M11.1,68.9H0.3v-0.3l0-0.2v-1.9l0-0.2V66h10.8v0.3l0,0.2v1.9l0,0.2V68.9z"/>
		<path class="st0" d="M11.1,72.4H0.3v-0.2l0-0.1V71l0-0.1v-0.2h10.8v0.2l0,0.1v1.1l0,0.1V72.4z"/>
		<path class="st0" d="M11.1,75.3H0.3v-0.1l0,0v-0.6l0,0v-0.1h10.8v0.1l0,0v0.6l0,0V75.3z"/>
		<path class="st0" d="M11.1,78.2H0.3v-0.1l0-0.1v-0.6l0-0.1v-0.1h10.8v0.1l0,0.1V78l0,0.1V78.2z"/>
		<path class="st0" d="M11.1,82.8H0.3v-0.3l0-0.2v-1.9l0-0.2v-0.3h10.8v0.3l0,0.2v1.9l0,0.2V82.8z"/>
		<path class="st0" d="M11.1,86.3H0.3v-0.2l0-0.1v-1.1l0-0.1v-0.2h10.8v0.2l0,0.1V86l0,0.1V86.3z"/>
		<path class="st0" d="M11.1,89.2H0.3V89l0,0v-0.6l0,0v-0.1h10.8v0.1l0,0V89l0,0V89.2z"/>
		<path class="st0" d="M11.1,92.1H0.3v-0.1l0-0.1v-0.6l0-0.1v-0.1h10.8v0.1l0,0.1v0.6l0,0.1V92.1z"/>
	</g>
	<g>
		<g>
			<path class="st0" d="M0.3,5.2c0-3,2.4-5.2,5.3-5.2c2.8,0,5.3,2.2,5.3,5.2c0,3.1-2.4,5.3-5.3,5.3C2.7,10.4,0.3,8.3,0.3,5.2z"/>
			<rect x="0.3" y="20.3" class="st1" width="10.5" height="43.4"/>
			<path class="st1" d="M115.9,1.2c-2.8,0-5.2,2.2-5.2,5.1c0,3.1,2.4,5.2,5.2,5.2c2.8,0,5.2-2.1,5.2-5.2
				C121.1,3.4,118.7,1.2,115.9,1.2z M110.7,21.4v43.4h10.5V21.4H110.7z"/>
			<path class="st1" d="M281.9,35.8l-5.1-5.1l0,0l-1.7-1.7l-1.6-1.6l-1.7-1.7l-4.8-4.8l-0.3-0.3l-5-5l-5,5L235.1,42l-5,5l5,5
				l15.2,15.2l5,5l5-5l21.5-21.5l5-5L281.9,35.8z M255.4,62.3L240.2,47l21.5-21.5l5,5l0.1,0.1l5,5l0.1,0.1l5,5L255.4,62.3z"/>
			<path class="st0" d="M281.9,35.7l2.4-2.4l0,0c3.9-4.2,3.8-10.8-0.3-14.9c-4.1-4.1-10.7-4.2-14.9-0.3l0,0l-7.4,7.4l5.1,5.1
				l7.4-7.4c1.4-1.4,3.6-1.4,5,0c1.4,1.4,1.4,3.6,0,5l-2.4,2.4L281.9,35.7"/>
			<path class="st1" d="M152.9,55.9c-7.3,0-13.3-5.9-13.3-13.3c0-7.3,5.9-13.3,13.3-13.3c4.2,0,8,2,10.4,5l7.9-6.3
				c-4.3-5.4-10.9-8.8-18.3-8.8c-12.9,0-23.4,10.5-23.4,23.4S140,66,152.9,66c7.2,0,13.7-3.3,18-8.4l-7.8-6.5
				C160.7,54,157,55.9,152.9,55.9z"/>
			<path class="st1" d="M44.8,20.3c-0.2,0-0.4,0-0.5,0c-0.2,0-0.3,0-0.5,0c-3.8,0-7,1-9.6,2.6c-0.9,0.5-1.8,1-2.6,1.6v-3.2l0-0.4
				H21.1v63.7h10.5V79V62c3.7,2.6,8.3,4.2,13.2,4.2c12.7,0,22.9-10.3,22.9-22.9S57.5,20.3,44.8,20.3z M44.8,56.3
				c-7.2,0-13-5.8-13-13s5.8-13,13-13s13,5.8,13,13S52,56.3,44.8,56.3z"/>
			<path class="st1" d="M99.9,21.7c-8-2.2-12.8,1.1-15.3,3.9v-4.2H74.1v13.2h0v30.2h10.4V44.6c0-9.7,4.2-13.3,10.4-13.3
				c2.4,0,4,0.6,5.7,1.4l3.5-9.4C103,22.6,101.6,22,99.9,21.7z"/>
			<path class="st1" d="M222.9,47.8c0.4-1.7,0.6-3.4,0.6-5.3c0-1-0.1-2-0.2-2.9c-0.1-0.8-0.2-1.5-0.4-2.3
				c-2.4-10.4-11.7-18.2-22.8-18.2c-11.1,0-20.5,7.8-22.8,18.2c-0.4,1.7-0.6,3.4-0.6,5.3c0,0.3,0,0.5,0,0.8l0,0c0,0.4,0,0.7,0,1
				c0.1,3.1,0.7,6,1.9,8.6c1.3,2.9,3,5.3,5.2,7.4c2.2,2,4.7,3.6,7.7,4.7c3,1.1,6.1,1.7,9.5,1.7c3.5,0,6.9-0.7,10.1-2
				c3.2-1.4,6.1-3.7,8.7-6.9l-8-6c-1.4,1.7-3.1,3.2-5,4.3c-1.9,1.1-4.2,1.7-7,1.7c-3.2,0-5.9-0.9-8.1-2.8c-2.1-1.7-3.3-4.1-3.8-7.1
				c0,0,0-0.1,0-0.1c0,0,0,0,0,0h0H222.9z M191.3,31.2c1.9-1.9,4.6-2.9,7.9-2.9c3.5,0,6.3,0.9,8.3,2.8c2,1.9,3,4.5,3.1,7.8h-22.8
				C188.2,35.7,189.4,33.1,191.3,31.2z"/>
		</g>
		<g>
			<path class="st1" d="M0,150.6V95.5h10.9v55.1H0z"/>
			<path class="st1" d="M33,150.6H22.7v-38.2h10v4.7c2.3-4,6.9-5.7,11-5.7c9.5,0,13.8,6.8,13.8,15.1v24.1H47.2v-22.3
				c0-4.3-2.1-7.6-7.1-7.6c-4.5,0-7.1,3.5-7.1,7.9V150.6z"/>
			<path class="st1" d="M73.6,138c0.2,3,2.5,5.8,7,5.8c3.4,0,5-1.8,5-3.8c0-1.7-1.2-3.1-4.1-3.7l-5-1.2c-7.4-1.6-10.7-6.1-10.7-11.4
				c0-6.8,6.1-12.5,14.3-12.5c10.9,0,14.5,6.9,15,11l-8.6,1.9c-0.3-2.3-1.9-5.1-6.3-5.1c-2.7,0-4.9,1.6-4.9,3.8c0,1.9,1.4,3,3.5,3.4
				l5.4,1.2c7.5,1.6,11.3,6.1,11.3,11.7c0,6.2-4.8,12.6-14.8,12.6c-11.5,0-15.5-7.5-15.9-11.8L73.6,138z"/>
			<path class="st1" d="M109,93.4c3.6,0,6.4,2.9,6.4,6.4c0,3.4-2.8,6.3-6.4,6.3c-3.5,0-6.4-2.9-6.4-6.3
				C102.6,96.3,105.5,93.4,109,93.4z M103.9,150.6v-38.2h10.3v38.2H103.9z"/>
			<path class="st1" d="M131.8,150.2c0.7,4.2,4,7.2,8.9,7.2c6.5,0,10.2-3.3,10.2-10.6V144c-1.6,2.5-5.1,4.9-10.6,4.9
				c-10.2,0-17.8-7.8-17.8-18.6c0-10.1,7.3-18.6,17.8-18.6c6.1,0,9.6,2.6,10.9,5.2v-4.5h9.9v34.1c0,10.5-5.7,20-20,20
				c-10.5,0-17.5-6.5-18.6-13.8L131.8,150.2z M151.1,130.3c0-5.9-4-9.6-9-9.6c-5.1,0-9.2,3.7-9.2,9.6c0,6,3.8,9.7,9.2,9.7
				C147.4,140,151.1,136.2,151.1,130.3z"/>
			<path class="st1" d="M181.9,150.6h-10.3V94.4h10.3v21.2c2.5-3,6.7-4.2,10.3-4.2c9.7,0,14.2,6.8,14.2,15.1v24.1h-10.3v-22.3
				c0-4.3-2.1-7.6-7.1-7.6c-4.4,0-6.9,3.3-7.1,7.5V150.6z"/>
			<path class="st1" d="M229.7,112.4h7.7v9.2h-7.7v16c0,3.3,1.6,4.4,4.5,4.4c1.2,0,2.6-0.2,3.2-0.3v8.5c-0.9,0.4-2.8,0.9-5.8,0.9
				c-7.5,0-12.1-4.4-12.1-11.8v-17.8h-6.9v-9.2h1.9c4,0,5.9-2.6,5.9-6.1V101h9.3V112.4z"/>
			<path class="st1" d="M252.6,138c0.2,3,2.5,5.8,7,5.8c3.4,0,5-1.8,5-3.8c0-1.7-1.2-3.1-4.1-3.7l-5-1.2
				c-7.4-1.6-10.7-6.1-10.7-11.4c0-6.8,6.1-12.5,14.3-12.5c10.9,0,14.5,6.9,15,11l-8.6,1.9c-0.3-2.3-1.9-5.1-6.3-5.1
				c-2.7,0-4.9,1.6-4.9,3.8c0,1.9,1.4,3,3.5,3.4l5.4,1.2c7.5,1.6,11.3,6.1,11.3,11.7c0,6.2-4.8,12.6-14.8,12.6
				c-11.5,0-15.5-7.5-15.9-11.8L252.6,138z"/>
		</g>
	</g>
</g>
</svg>