<!-- Generator: Adobe Illustrator 19.1.0, SVG Export Plug-In  -->
<svg version="1.1"
	 xmlns="http://www.w3.org/2000/svg" xmlns:xlink="http://www.w3.org/1999/xlink" xmlns:a="http://ns.adobe.com/AdobeSVGViewerExtensions/3.0/"
	 x="0px" y="0px" width="124.6px" height="214.9px" viewBox="0 0 124.6 214.9"
	 style="overflow:scroll;enable-background:new 0 0 124.6 214.9;" xml:space="preserve">
<style type="text/css">
	.st0{fill:none;}
	.st1{fill:#FFFFFF;}
	.st2{fill:#F2673A;}
</style>
<defs>
</defs>
<g>
	<polygon class="st0" points="49.8,98.8 49.3,98.2 26.7,73.1 26.1,72.5 3.8,47.8 0,51.2 0,188.8 72.2,123.6 	"/>
	<path class="st0" d="M87.5,40.9c-6.3-6.9-16.9-7.5-23.9-1.2L51.8,50.4l7.7,8.5l7.3,8.1l7.7,8.5l11.9-10.7
		C93.3,58.5,93.8,47.9,87.5,40.9z"/>
	<polygon class="st1" points="28.9,25.1 6.2,0 0,5.6 0,51.2 3.8,47.8 	"/>
	<polygon class="st1" points="26.1,72.5 26.7,73.1 3.8,47.8 	"/>
	<polygon class="st1" points="94.9,148.7 120,126 97.4,101 97.4,101 74.4,75.5 66.8,67 59.5,58.9 51.8,50.4 26.7,73.1 49.3,98.2 
		49.8,98.8 72.2,123.6 0,188.8 0,214.9 21.6,214.9 	"/>
	<path class="st2" d="M51.8,50.4L51.8,50.4l11.9-10.7c6.9-6.3,17.6-5.7,23.9,1.2c6.3,6.9,5.7,17.6-1.2,23.9L74.4,75.5l22.9,25.4
		l0.1,0.1l0-0.2l11.8-10.7l0,0c19.6-19.1,20.8-50.3,2.3-70.8C93-1.1,61.8-3.2,40.8,14.4l0,0L28.9,25.1l1.3,1.5L51.8,50.4z"/>
	<polygon class="st2" points="74.4,75.5 97.4,101 97.4,101 97.3,100.9 	"/>
	<polygon class="st2" points="26.7,73.1 51.8,50.4 51.8,50.4 30.2,26.6 28.9,25.1 3.8,47.8 	"/>
</g>
</svg>