<!-- Generator: Adobe Illustrator 19.1.0, SVG Export Plug-In  -->
<svg version="1.1"
	 xmlns="http://www.w3.org/2000/svg" xmlns:xlink="http://www.w3.org/1999/xlink" xmlns:a="http://ns.adobe.com/AdobeSVGViewerExtensions/3.0/"
	 x="0px" y="0px" width="780.1px" height="379.3px" viewBox="0 0 780.1 379.3"
	 style="overflow:scroll;enable-background:new 0 0 780.1 379.3;" xml:space="preserve">
<style type="text/css">
	.st0{fill:#E3E3E3;stroke:#E3E3E3;stroke-width:2.0919;stroke-miterlimit:10;}
	.st1{fill:#9D9FA0;stroke:#E3E3E3;stroke-width:1.3336;stroke-miterlimit:10;}
	.st2{fill:#ED6A4A;}
	.st3{fill:#086A87;stroke:#086A87;stroke-width:1.81;stroke-linecap:round;stroke-linejoin:round;stroke-miterlimit:10;}
	.st4{fill:#33CCCC;}
	.st5{fill:#FFFFFF;}
	.st6{fill:none;stroke:#ED6A4A;stroke-width:7.4568;stroke-miterlimit:10;}
	.st7{fill:#FF6633;}
	.st8{fill:#086A87;stroke:#086A87;stroke-width:2.3031;stroke-linecap:round;stroke-linejoin:round;stroke-miterlimit:10;}
	.st9{fill:#FFFFFF;stroke:#ED6A4A;stroke-width:2.3031;stroke-miterlimit:10;}
	.st10{fill:none;stroke:#ED6A4A;stroke-width:7.3184;stroke-miterlimit:10;}
	.st11{fill:#086A87;stroke:#086A87;stroke-width:2.2793;stroke-linecap:round;stroke-linejoin:round;stroke-miterlimit:10;}
	.st12{fill:#E3E3E3;stroke:#FFFFFF;stroke-width:4;stroke-miterlimit:10;}
</style>
<defs>
</defs>
<rect x="54.1" y="103.9" class="st0" width="227.2" height="271.2"/>
<rect x="281.3" y="304.5" class="st1" width="346.6" height="35.9"/>
<rect x="281.3" y="250.7" class="st2" width="346.6" height="35.9"/>
<rect x="281.3" y="196.9" class="st3" width="382.4" height="35.9"/>
<rect x="281.3" y="143.2" class="st4" width="346.6" height="35.9"/>
<g>
	<g>
		<path class="st5" d="M317.7,159.7c0,2.4-0.6,4.2-1.8,5.4s-2.9,1.9-5,1.9s-3.9-0.6-5-1.9s-1.8-3.1-1.8-5.5s0.6-4.2,1.8-5.4
			s2.9-1.9,5.1-1.9s3.9,0.6,5,1.9S317.7,157.4,317.7,159.7z M307.3,159.7c0,1.6,0.3,2.8,0.9,3.6s1.5,1.2,2.7,1.2
			c2.4,0,3.6-1.6,3.6-4.8c0-3.2-1.2-4.8-3.6-4.8c-1.2,0-2.1,0.4-2.7,1.2S307.3,158.1,307.3,159.7z"/>
		<path class="st5" d="M330.5,166.9h-3v-6.4c0-0.8-0.1-1.4-0.4-1.8s-0.7-0.6-1.3-0.6c-0.8,0-1.4,0.3-1.8,0.8s-0.6,1.5-0.6,2.8v5.1
			h-3V156h2.3l0.4,1.4h0.2c0.3-0.5,0.8-0.9,1.4-1.2s1.2-0.4,2-0.4c1.3,0,2.2,0.3,2.9,1s1,1.7,1,3V166.9z"/>
		<path class="st5" d="M338,167.1c-3.4,0-5.1-1.9-5.1-5.6c0-1.9,0.5-3.3,1.4-4.3s2.2-1.5,4-1.5c1.3,0,2.4,0.2,3.4,0.7l-0.9,2.3
			c-0.5-0.2-0.9-0.3-1.3-0.5s-0.8-0.2-1.2-0.2c-1.5,0-2.3,1.1-2.3,3.3c0,2.1,0.8,3.2,2.3,3.2c0.6,0,1.1-0.1,1.6-0.2s1-0.4,1.5-0.7
			v2.5c-0.5,0.3-1,0.5-1.5,0.6S338.8,167.1,338,167.1z"/>
		<path class="st5" d="M348.8,167.1c-1.8,0-3.1-0.5-4.1-1.5s-1.5-2.3-1.5-4.1c0-1.8,0.5-3.2,1.4-4.2s2.2-1.5,3.8-1.5
			c1.5,0,2.7,0.4,3.6,1.3s1.3,2.1,1.3,3.6v1.4h-7c0,0.8,0.3,1.5,0.8,2s1.1,0.7,2,0.7c0.7,0,1.3-0.1,1.9-0.2s1.2-0.4,1.8-0.7v2.3
			c-0.5,0.3-1.1,0.5-1.7,0.6S349.7,167.1,348.8,167.1z M348.4,157.9c-0.6,0-1.1,0.2-1.5,0.6s-0.6,1-0.6,1.7h4.2
			c0-0.7-0.2-1.3-0.6-1.7S349,157.9,348.4,157.9z"/>
		<path class="st5" d="M367.8,166.9l-0.6-1.5h-0.1c-0.5,0.6-1,1.1-1.5,1.3s-1.2,0.4-2.1,0.4c-1,0-1.9-0.3-2.5-0.9s-0.9-1.5-0.9-2.6
			c0-1.2,0.4-2,1.2-2.6s2-0.9,3.7-0.9l1.9-0.1v-0.5c0-1.1-0.6-1.7-1.7-1.7c-0.9,0-1.9,0.3-3.1,0.8l-1-2c1.3-0.7,2.6-1,4.2-1
			c1.5,0,2.6,0.3,3.4,1s1.2,1.6,1.2,2.9v7.3H367.8z M367,161.8l-1.2,0c-0.9,0-1.5,0.2-1.9,0.5s-0.6,0.7-0.6,1.3
			c0,0.8,0.5,1.3,1.4,1.3c0.7,0,1.2-0.2,1.7-0.6s0.6-0.9,0.6-1.6V161.8z"/>
		<path class="st5" d="M376.6,156h3.3l2.1,6.1c0.2,0.5,0.3,1.2,0.4,1.9h0.1c0.1-0.7,0.2-1.3,0.4-1.9l2-6.1h3.2l-4.6,12.3
			c-0.4,1.1-1,2-1.8,2.6s-1.7,0.8-2.7,0.8c-0.5,0-1-0.1-1.5-0.2v-2.4c0.4,0.1,0.7,0.1,1.2,0.1c0.5,0,1-0.2,1.4-0.5s0.7-0.8,0.9-1.5
			l0.2-0.5L376.6,156z"/>
		<path class="st5" d="M394.5,167.1c-1.8,0-3.1-0.5-4.1-1.5s-1.5-2.3-1.5-4.1c0-1.8,0.5-3.2,1.4-4.2s2.2-1.5,3.8-1.5
			c1.5,0,2.7,0.4,3.6,1.3s1.3,2.1,1.3,3.6v1.4h-7c0,0.8,0.3,1.5,0.8,2s1.1,0.7,2,0.7c0.7,0,1.3-0.1,1.9-0.2s1.2-0.4,1.8-0.7v2.3
			c-0.5,0.3-1.1,0.5-1.7,0.6S395.3,167.1,394.5,167.1z M394.1,157.9c-0.6,0-1.1,0.2-1.5,0.6s-0.6,1-0.6,1.7h4.2
			c0-0.7-0.2-1.3-0.6-1.7S394.7,157.9,394.1,157.9z"/>
		<path class="st5" d="M408.3,166.9l-0.6-1.5h-0.1c-0.5,0.6-1,1.1-1.5,1.3s-1.2,0.4-2.1,0.4c-1,0-1.9-0.3-2.5-0.9s-0.9-1.5-0.9-2.6
			c0-1.2,0.4-2,1.2-2.6s2-0.9,3.7-0.9l1.9-0.1v-0.5c0-1.1-0.6-1.7-1.7-1.7c-0.9,0-1.9,0.3-3.1,0.8l-1-2c1.3-0.7,2.6-1,4.2-1
			c1.5,0,2.6,0.3,3.4,1s1.2,1.6,1.2,2.9v7.3H408.3z M407.4,161.8l-1.2,0c-0.9,0-1.5,0.2-1.9,0.5s-0.6,0.7-0.6,1.3
			c0,0.8,0.5,1.3,1.4,1.3c0.7,0,1.2-0.2,1.7-0.6s0.6-0.9,0.6-1.6V161.8z"/>
		<path class="st5" d="M419.5,155.8c0.4,0,0.7,0,1,0.1l-0.2,2.8c-0.2-0.1-0.5-0.1-0.9-0.1c-1,0-1.7,0.2-2.2,0.7s-0.8,1.2-0.8,2.1
			v5.6h-3V156h2.3l0.4,1.8h0.1c0.3-0.6,0.8-1.1,1.4-1.5S418.9,155.8,419.5,155.8z"/>
		<path class="st5" d="M446.8,155.8c0,0.9-0.3,1.7-0.8,2.3s-1.3,1.1-2.3,1.3v0.1c1.2,0.1,2,0.5,2.6,1s0.9,1.3,0.9,2.3
			c0,1.4-0.5,2.4-1.5,3.2s-2.4,1.1-4.3,1.1c-1.5,0-2.9-0.3-4.1-0.8v-2.6c0.6,0.3,1.2,0.5,1.8,0.7s1.3,0.3,2,0.3c1,0,1.7-0.2,2.2-0.5
			s0.7-0.9,0.7-1.6c0-0.7-0.3-1.1-0.8-1.4s-1.4-0.4-2.6-0.4h-1.1v-2.3h1.1c1.1,0,1.9-0.1,2.4-0.4s0.8-0.8,0.8-1.5
			c0-1.1-0.7-1.6-2-1.6c-0.5,0-0.9,0.1-1.4,0.2s-1,0.4-1.6,0.8l-1.4-2.1c1.3-0.9,2.9-1.4,4.7-1.4c1.5,0,2.6,0.3,3.5,0.9
			S446.8,154.8,446.8,155.8z"/>
		<path class="st5" d="M454,157.8c1.4,0,2.5,0.4,3.3,1.2s1.2,1.8,1.2,3.2c0,1.6-0.5,2.8-1.5,3.7s-2.4,1.3-4.2,1.3
			c-1.6,0-2.9-0.3-3.8-0.8v-2.6c0.5,0.3,1.1,0.5,1.8,0.7s1.3,0.3,1.9,0.3c1.8,0,2.8-0.8,2.8-2.3c0-1.4-1-2.2-2.9-2.2
			c-0.3,0-0.7,0-1.1,0.1s-0.8,0.1-1,0.2l-1.2-0.6l0.5-7.3h7.7v2.6h-5.1l-0.3,2.8l0.3-0.1C452.9,157.8,453.4,157.8,454,157.8z"/>
		<path class="st5" d="M466.8,156.9c0,1.5-0.3,2.6-0.9,3.4s-1.4,1.1-2.5,1.1c-1.1,0-1.9-0.4-2.5-1.2s-0.9-1.9-0.9-3.3
			c0-3,1.1-4.5,3.4-4.5c1.1,0,1.9,0.4,2.5,1.2S466.8,155.5,466.8,156.9z M462.5,156.9c0,0.8,0.1,1.4,0.2,1.9s0.4,0.6,0.7,0.6
			c0.6,0,0.9-0.8,0.9-2.5c0-1.6-0.3-2.4-0.9-2.4c-0.3,0-0.6,0.2-0.7,0.6S462.5,156.1,462.5,156.9z M473.5,152.6l-7.9,14.3h-2.3
			l7.9-14.3H473.5z M476.8,162.6c0,1.5-0.3,2.6-0.9,3.4s-1.4,1.1-2.5,1.1c-1.1,0-1.9-0.4-2.5-1.2s-0.9-1.9-0.9-3.3
			c0-3,1.1-4.5,3.4-4.5c1.1,0,1.9,0.4,2.5,1.2S476.8,161.2,476.8,162.6z M472.5,162.6c0,0.8,0.1,1.4,0.2,1.9s0.4,0.6,0.7,0.6
			c0.6,0,0.9-0.8,0.9-2.5c0-1.6-0.3-2.4-0.9-2.4c-0.3,0-0.6,0.2-0.7,0.6S472.5,161.8,472.5,162.6z"/>
	</g>
</g>
<g>
	<g>
		<path class="st5" d="M317.7,212.5c0,2.4-0.6,4.2-1.8,5.4s-2.9,1.9-5,1.9s-3.9-0.6-5-1.9s-1.8-3.1-1.8-5.5s0.6-4.2,1.8-5.4
			c1.2-1.3,2.9-1.9,5.1-1.9c2.2,0,3.9,0.6,5,1.9S317.7,210.1,317.7,212.5z M307.3,212.5c0,1.6,0.3,2.8,0.9,3.6s1.5,1.2,2.7,1.2
			c2.4,0,3.6-1.6,3.6-4.8c0-3.2-1.2-4.8-3.6-4.8c-1.2,0-2.1,0.4-2.7,1.2C307.6,209.7,307.3,210.9,307.3,212.5z"/>
		<path class="st5" d="M330.5,219.6h-3v-6.4c0-0.8-0.1-1.4-0.4-1.8c-0.3-0.4-0.7-0.6-1.3-0.6c-0.8,0-1.4,0.3-1.8,0.8
			s-0.6,1.5-0.6,2.8v5.1h-3v-10.9h2.3l0.4,1.4h0.2c0.3-0.5,0.8-0.9,1.4-1.2c0.6-0.3,1.2-0.4,2-0.4c1.3,0,2.2,0.3,2.9,1
			c0.7,0.7,1,1.7,1,3V219.6z"/>
		<path class="st5" d="M338,219.8c-3.4,0-5.1-1.9-5.1-5.6c0-1.9,0.5-3.3,1.4-4.3c0.9-1,2.2-1.5,4-1.5c1.3,0,2.4,0.2,3.4,0.7
			l-0.9,2.3c-0.5-0.2-0.9-0.3-1.3-0.5c-0.4-0.1-0.8-0.2-1.2-0.2c-1.5,0-2.3,1.1-2.3,3.3c0,2.1,0.8,3.2,2.3,3.2
			c0.6,0,1.1-0.1,1.6-0.2s1-0.4,1.5-0.7v2.5c-0.5,0.3-1,0.5-1.5,0.6C339.4,219.7,338.8,219.8,338,219.8z"/>
		<path class="st5" d="M348.8,219.8c-1.8,0-3.1-0.5-4.1-1.5c-1-1-1.5-2.3-1.5-4.1c0-1.8,0.5-3.2,1.4-4.2c0.9-1,2.2-1.5,3.8-1.5
			c1.5,0,2.7,0.4,3.6,1.3s1.3,2.1,1.3,3.6v1.4h-7c0,0.8,0.3,1.5,0.8,2s1.1,0.7,2,0.7c0.7,0,1.3-0.1,1.9-0.2s1.2-0.4,1.8-0.7v2.3
			c-0.5,0.3-1.1,0.5-1.7,0.6C350.4,219.7,349.7,219.8,348.8,219.8z M348.4,210.6c-0.6,0-1.1,0.2-1.5,0.6c-0.4,0.4-0.6,1-0.6,1.7h4.2
			c0-0.7-0.2-1.3-0.6-1.7S349,210.6,348.4,210.6z"/>
		<path class="st5" d="M367.8,219.6l-0.6-1.5h-0.1c-0.5,0.6-1,1.1-1.5,1.3c-0.5,0.2-1.2,0.4-2.1,0.4c-1,0-1.9-0.3-2.5-0.9
			c-0.6-0.6-0.9-1.5-0.9-2.6c0-1.2,0.4-2,1.2-2.6s2-0.9,3.7-0.9l1.9-0.1v-0.5c0-1.1-0.6-1.7-1.7-1.7c-0.9,0-1.9,0.3-3.1,0.8l-1-2
			c1.3-0.7,2.6-1,4.2-1c1.5,0,2.6,0.3,3.4,1s1.2,1.6,1.2,2.9v7.3H367.8z M367,214.6l-1.2,0c-0.9,0-1.5,0.2-1.9,0.5
			c-0.4,0.3-0.6,0.7-0.6,1.3c0,0.8,0.5,1.3,1.4,1.3c0.7,0,1.2-0.2,1.7-0.6c0.4-0.4,0.6-0.9,0.6-1.6V214.6z"/>
		<path class="st5" d="M388,219.6h-3v-6.4c0-0.8-0.1-1.4-0.4-1.8s-0.7-0.6-1.2-0.6c-0.8,0-1.3,0.3-1.7,0.8c-0.3,0.6-0.5,1.5-0.5,2.8
			v5.1h-3v-10.9h2.3l0.4,1.4h0.2c0.3-0.5,0.7-0.9,1.3-1.2c0.6-0.3,1.2-0.4,1.9-0.4c1.6,0,2.7,0.5,3.3,1.6h0.3
			c0.3-0.5,0.7-0.9,1.3-1.2c0.6-0.3,1.2-0.4,1.9-0.4c1.2,0,2.2,0.3,2.8,1s1,1.7,1,3.1v7.1h-3v-6.4c0-0.8-0.1-1.4-0.4-1.8
			s-0.7-0.6-1.2-0.6c-0.7,0-1.3,0.3-1.6,0.8s-0.5,1.3-0.5,2.5V219.6z"/>
		<path class="st5" d="M407.7,214.1c0,1.8-0.5,3.2-1.4,4.2s-2.2,1.5-3.9,1.5c-1,0-2-0.2-2.8-0.7s-1.4-1.1-1.8-2s-0.6-1.9-0.6-3
			c0-1.8,0.5-3.2,1.4-4.2c0.9-1,2.2-1.5,3.9-1.5c1,0,2,0.2,2.8,0.7s1.4,1.1,1.8,2S407.7,213,407.7,214.1z M400.2,214.1
			c0,1.1,0.2,1.9,0.5,2.5c0.4,0.6,0.9,0.8,1.7,0.8c0.8,0,1.4-0.3,1.7-0.8c0.3-0.6,0.5-1.4,0.5-2.5c0-1.1-0.2-1.9-0.5-2.4
			s-0.9-0.8-1.7-0.8c-0.8,0-1.4,0.3-1.7,0.8S400.2,213,400.2,214.1z"/>
		<path class="st5" d="M420.3,219.6h-3v-6.4c0-0.8-0.1-1.4-0.4-1.8c-0.3-0.4-0.7-0.6-1.3-0.6c-0.8,0-1.4,0.3-1.8,0.8
			s-0.6,1.5-0.6,2.8v5.1h-3v-10.9h2.3l0.4,1.4h0.2c0.3-0.5,0.8-0.9,1.4-1.2c0.6-0.3,1.2-0.4,2-0.4c1.3,0,2.2,0.3,2.9,1
			c0.7,0.7,1,1.7,1,3V219.6z"/>
		<path class="st5" d="M427.9,217.4c0.5,0,1.1-0.1,1.9-0.3v2.2c-0.7,0.3-1.7,0.5-2.7,0.5c-1.2,0-2.1-0.3-2.6-0.9
			c-0.5-0.6-0.8-1.5-0.8-2.7v-5.3h-1.4v-1.3l1.6-1l0.9-2.3h1.9v2.3h3.1v2.2h-3.1v5.3c0,0.4,0.1,0.7,0.4,0.9
			C427.2,217.3,427.5,217.4,427.9,217.4z"/>
		<path class="st5" d="M442.1,219.6h-3v-6.4c0-1.6-0.6-2.4-1.8-2.4c-0.8,0-1.4,0.3-1.8,0.8s-0.6,1.5-0.6,2.8v5.1h-3v-15.2h3v3.1
			c0,0.2,0,0.8-0.1,1.7l-0.1,0.9h0.2c0.7-1.1,1.7-1.6,3.2-1.6c1.3,0,2.3,0.3,2.9,1s1,1.7,1,3V219.6z"/>
		<path class="st5" d="M459,208.5c0,0.9-0.3,1.7-0.8,2.3s-1.3,1.1-2.3,1.3v0.1c1.2,0.1,2,0.5,2.6,1s0.9,1.3,0.9,2.3
			c0,1.4-0.5,2.4-1.5,3.2s-2.4,1.1-4.3,1.1c-1.5,0-2.9-0.3-4.1-0.8v-2.6c0.6,0.3,1.2,0.5,1.8,0.7s1.3,0.3,2,0.3c1,0,1.7-0.2,2.2-0.5
			s0.7-0.9,0.7-1.6c0-0.7-0.3-1.1-0.8-1.4s-1.4-0.4-2.6-0.4h-1.1v-2.3h1.1c1.1,0,1.9-0.1,2.4-0.4s0.8-0.8,0.8-1.5
			c0-1.1-0.7-1.6-2-1.6c-0.5,0-0.9,0.1-1.4,0.2s-1,0.4-1.6,0.8l-1.4-2.1c1.3-0.9,2.9-1.4,4.7-1.4c1.5,0,2.6,0.3,3.5,0.9
			S459,207.5,459,208.5z"/>
		<path class="st5" d="M460.9,213.5c0-2.8,0.6-4.9,1.8-6.3s3-2.1,5.4-2.1c0.8,0,1.5,0,1.9,0.1v2.4c-0.6-0.1-1.2-0.2-1.7-0.2
			c-1,0-1.9,0.2-2.5,0.5s-1.1,0.8-1.5,1.4s-0.5,1.5-0.6,2.6h0.1c0.6-1.1,1.7-1.7,3.1-1.7c1.3,0,2.3,0.4,3,1.2s1.1,1.9,1.1,3.3
			c0,1.5-0.4,2.7-1.3,3.6s-2.1,1.3-3.6,1.3c-1.1,0-2-0.2-2.8-0.7s-1.4-1.2-1.8-2.1S460.9,214.9,460.9,213.5z M466.1,217.4
			c0.6,0,1.1-0.2,1.5-0.6s0.5-1,0.5-1.9c0-0.7-0.2-1.2-0.5-1.6s-0.8-0.6-1.5-0.6c-0.6,0-1.1,0.2-1.6,0.6s-0.6,0.9-0.6,1.4
			c0,0.8,0.2,1.4,0.6,2S465.5,217.4,466.1,217.4z"/>
		<path class="st5" d="M472.8,218.2c0-0.5,0.1-1,0.4-1.2s0.7-0.4,1.3-0.4c0.5,0,1,0.1,1.3,0.4s0.4,0.7,0.4,1.2
			c0,0.5-0.1,0.9-0.4,1.2s-0.7,0.4-1.3,0.4c-0.5,0-1-0.1-1.3-0.4S472.8,218.7,472.8,218.2z"/>
		<path class="st5" d="M483.4,210.5c1.4,0,2.5,0.4,3.3,1.2s1.2,1.8,1.2,3.2c0,1.6-0.5,2.8-1.5,3.7s-2.4,1.3-4.2,1.3
			c-1.6,0-2.9-0.3-3.8-0.8v-2.6c0.5,0.3,1.1,0.5,1.8,0.7s1.3,0.3,1.9,0.3c1.8,0,2.8-0.8,2.8-2.3c0-1.4-1-2.2-2.9-2.2
			c-0.3,0-0.7,0-1.1,0.1s-0.8,0.1-1,0.2l-1.2-0.6l0.5-7.3h7.7v2.6h-5.1l-0.3,2.8l0.3-0.1C482.3,210.5,482.8,210.5,483.4,210.5z"/>
		<path class="st5" d="M496.2,209.6c0,1.5-0.3,2.6-0.9,3.4s-1.4,1.1-2.5,1.1c-1.1,0-1.9-0.4-2.5-1.2s-0.9-1.9-0.9-3.3
			c0-3,1.1-4.5,3.4-4.5c1.1,0,1.9,0.4,2.5,1.2S496.2,208.2,496.2,209.6z M491.9,209.6c0,0.8,0.1,1.4,0.2,1.9s0.4,0.6,0.7,0.6
			c0.6,0,0.9-0.8,0.9-2.5c0-1.6-0.3-2.4-0.9-2.4c-0.3,0-0.6,0.2-0.7,0.6S491.9,208.8,491.9,209.6z M502.9,205.3l-7.9,14.3h-2.3
			l7.9-14.3H502.9z M506.2,215.3c0,1.5-0.3,2.6-0.9,3.4s-1.4,1.1-2.5,1.1c-1.1,0-1.9-0.4-2.5-1.2s-0.9-1.9-0.9-3.3
			c0-3,1.1-4.5,3.4-4.5c1.1,0,1.9,0.4,2.5,1.2S506.2,213.9,506.2,215.3z M501.9,215.3c0,0.8,0.1,1.4,0.2,1.9s0.4,0.6,0.7,0.6
			c0.6,0,0.9-0.8,0.9-2.5c0-1.6-0.3-2.4-0.9-2.4c-0.3,0-0.6,0.2-0.7,0.6S501.9,214.5,501.9,215.3z"/>
	</g>
</g>
<g>
	<g>
		<path class="st5" d="M317.7,269.5c0,2.4-0.6,4.2-1.8,5.4s-2.9,1.9-5,1.9s-3.9-0.6-5-1.9s-1.8-3.1-1.8-5.5s0.6-4.2,1.8-5.4
			c1.2-1.3,2.9-1.9,5.1-1.9c2.2,0,3.9,0.6,5,1.9S317.7,267.1,317.7,269.5z M307.3,269.5c0,1.6,0.3,2.8,0.9,3.6s1.5,1.2,2.7,1.2
			c2.4,0,3.6-1.6,3.6-4.8c0-3.2-1.2-4.8-3.6-4.8c-1.2,0-2.1,0.4-2.7,1.2C307.6,266.7,307.3,267.9,307.3,269.5z"/>
		<path class="st5" d="M330.5,276.7h-3v-6.4c0-0.8-0.1-1.4-0.4-1.8c-0.3-0.4-0.7-0.6-1.3-0.6c-0.8,0-1.4,0.3-1.8,0.8
			s-0.6,1.5-0.6,2.8v5.1h-3v-10.9h2.3l0.4,1.4h0.2c0.3-0.5,0.8-0.9,1.4-1.2c0.6-0.3,1.2-0.4,2-0.4c1.3,0,2.2,0.3,2.9,1
			c0.7,0.7,1,1.7,1,3V276.7z"/>
		<path class="st5" d="M338,276.9c-3.4,0-5.1-1.9-5.1-5.6c0-1.9,0.5-3.3,1.4-4.3c0.9-1,2.2-1.5,4-1.5c1.3,0,2.4,0.2,3.4,0.7
			l-0.9,2.3c-0.5-0.2-0.9-0.3-1.3-0.5c-0.4-0.1-0.8-0.2-1.2-0.2c-1.5,0-2.3,1.1-2.3,3.3c0,2.1,0.8,3.2,2.3,3.2
			c0.6,0,1.1-0.1,1.6-0.2s1-0.4,1.5-0.7v2.5c-0.5,0.3-1,0.5-1.5,0.6C339.4,276.8,338.8,276.9,338,276.9z"/>
		<path class="st5" d="M348.8,276.9c-1.8,0-3.1-0.5-4.1-1.5c-1-1-1.5-2.3-1.5-4.1c0-1.8,0.5-3.2,1.4-4.2c0.9-1,2.2-1.5,3.8-1.5
			c1.5,0,2.7,0.4,3.6,1.3s1.3,2.1,1.3,3.6v1.4h-7c0,0.8,0.3,1.5,0.8,2s1.1,0.7,2,0.7c0.7,0,1.3-0.1,1.9-0.2s1.2-0.4,1.8-0.7v2.3
			c-0.5,0.3-1.1,0.5-1.7,0.6C350.4,276.8,349.7,276.9,348.8,276.9z M348.4,267.7c-0.6,0-1.1,0.2-1.5,0.6c-0.4,0.4-0.6,1-0.6,1.7h4.2
			c0-0.7-0.2-1.3-0.6-1.7S349,267.7,348.4,267.7z"/>
		<path class="st5" d="M367.8,276.7l-0.6-1.5h-0.1c-0.5,0.6-1,1.1-1.5,1.3c-0.5,0.2-1.2,0.4-2.1,0.4c-1,0-1.9-0.3-2.5-0.9
			c-0.6-0.6-0.9-1.5-0.9-2.6c0-1.2,0.4-2,1.2-2.6s2-0.9,3.7-0.9l1.9-0.1v-0.5c0-1.1-0.6-1.7-1.7-1.7c-0.9,0-1.9,0.3-3.1,0.8l-1-2
			c1.3-0.7,2.6-1,4.2-1c1.5,0,2.6,0.3,3.4,1s1.2,1.6,1.2,2.9v7.3H367.8z M367,271.6l-1.2,0c-0.9,0-1.5,0.2-1.9,0.5
			c-0.4,0.3-0.6,0.7-0.6,1.3c0,0.8,0.5,1.3,1.4,1.3c0.7,0,1.2-0.2,1.7-0.6c0.4-0.4,0.6-0.9,0.6-1.6V271.6z"/>
		<path class="st5" d="M387.1,276.7l-0.8-3.8l-1.1-4.8h-0.1l-2,8.6h-3.2l-3.1-10.9h3l1.3,4.8c0.1,0.6,0.3,1.8,0.6,3.6h0.1
			c0-0.5,0.1-1.3,0.3-2.4l0.2-0.8l1.3-5.2h3.3l1.3,5.2c0.1,0.4,0.2,0.9,0.3,1.6c0.1,0.7,0.2,1.2,0.2,1.6h0.1c0.1-0.6,0.2-1.2,0.3-2
			c0.1-0.7,0.2-1.3,0.3-1.6l1.3-4.8h2.9l-3.1,10.9H387.1z"/>
		<path class="st5" d="M400.2,276.9c-1.8,0-3.1-0.5-4.1-1.5c-1-1-1.5-2.3-1.5-4.1c0-1.8,0.5-3.2,1.4-4.2c0.9-1,2.2-1.5,3.8-1.5
			c1.5,0,2.7,0.4,3.6,1.3s1.3,2.1,1.3,3.6v1.4h-7c0,0.8,0.3,1.5,0.8,2s1.1,0.7,2,0.7c0.7,0,1.3-0.1,1.9-0.2s1.2-0.4,1.8-0.7v2.3
			c-0.5,0.3-1.1,0.5-1.7,0.6C401.8,276.8,401.1,276.9,400.2,276.9z M399.8,267.7c-0.6,0-1.1,0.2-1.5,0.6c-0.4,0.4-0.6,1-0.6,1.7h4.2
			c0-0.7-0.2-1.3-0.6-1.7S400.4,267.7,399.8,267.7z"/>
		<path class="st5" d="M412.1,276.9c-1.8,0-3.1-0.5-4.1-1.5c-1-1-1.5-2.3-1.5-4.1c0-1.8,0.5-3.2,1.4-4.2c0.9-1,2.2-1.5,3.8-1.5
			c1.5,0,2.7,0.4,3.6,1.3s1.3,2.1,1.3,3.6v1.4h-7c0,0.8,0.3,1.5,0.8,2s1.1,0.7,2,0.7c0.7,0,1.3-0.1,1.9-0.2s1.2-0.4,1.8-0.7v2.3
			c-0.5,0.3-1.1,0.5-1.7,0.6C413.6,276.8,412.9,276.9,412.1,276.9z M411.6,267.7c-0.6,0-1.1,0.2-1.5,0.6c-0.4,0.4-0.6,1-0.6,1.7h4.2
			c0-0.7-0.2-1.3-0.6-1.7S412.3,267.7,411.6,267.7z"/>
		<path class="st5" d="M421.8,270.7l1.3-1.7l3.1-3.3h3.4l-4.3,4.7l4.6,6.2h-3.4l-3.1-4.4l-1.3,1v3.4h-3v-15.2h3v6.8L421.8,270.7
			L421.8,270.7z"/>
		<path class="st5" d="M443.2,276.7h-3v-8.3l0-1.4l0-1.5c-0.5,0.5-0.8,0.8-1,1l-1.6,1.3l-1.5-1.8l4.6-3.7h2.5V276.7z"/>
		<path class="st5" d="M454.7,276.7h-3v-8.3l0-1.4l0-1.5c-0.5,0.5-0.8,0.8-1,1l-1.6,1.3l-1.5-1.8l4.6-3.7h2.5V276.7z"/>
		<path class="st5" d="M459,275.3c0-0.5,0.1-1,0.4-1.2s0.7-0.4,1.3-0.4c0.5,0,1,0.1,1.3,0.4s0.4,0.7,0.4,1.2c0,0.5-0.1,0.9-0.4,1.2
			s-0.7,0.4-1.3,0.4c-0.5,0-1-0.1-1.3-0.4S459,275.8,459,275.3z"/>
		<path class="st5" d="M469.5,267.5c1.4,0,2.5,0.4,3.3,1.2s1.2,1.8,1.2,3.2c0,1.6-0.5,2.8-1.5,3.7s-2.4,1.3-4.2,1.3
			c-1.6,0-2.9-0.3-3.8-0.8v-2.6c0.5,0.3,1.1,0.5,1.8,0.7s1.3,0.3,1.9,0.3c1.8,0,2.8-0.8,2.8-2.3c0-1.4-1-2.2-2.9-2.2
			c-0.3,0-0.7,0-1.1,0.1s-0.8,0.1-1,0.2l-1.2-0.6l0.5-7.3h7.7v2.6H468l-0.3,2.8l0.3-0.1C468.5,267.6,468.9,267.5,469.5,267.5z"/>
		<path class="st5" d="M482.4,266.6c0,1.5-0.3,2.6-0.9,3.4s-1.4,1.1-2.5,1.1c-1.1,0-1.9-0.4-2.5-1.2s-0.9-1.9-0.9-3.3
			c0-3,1.1-4.5,3.4-4.5c1.1,0,1.9,0.4,2.5,1.2S482.4,265.2,482.4,266.6z M478,266.7c0,0.8,0.1,1.4,0.2,1.9s0.4,0.6,0.7,0.6
			c0.6,0,0.9-0.8,0.9-2.5c0-1.6-0.3-2.4-0.9-2.4c-0.3,0-0.6,0.2-0.7,0.6S478,265.8,478,266.7z M489.1,262.4l-7.9,14.3h-2.3l7.9-14.3
			H489.1z M492.4,272.3c0,1.5-0.3,2.6-0.9,3.4s-1.4,1.1-2.5,1.1c-1.1,0-1.9-0.4-2.5-1.2s-0.9-1.9-0.9-3.3c0-3,1.1-4.5,3.4-4.5
			c1.1,0,1.9,0.4,2.5,1.2S492.4,270.9,492.4,272.3z M488,272.4c0,0.8,0.1,1.4,0.2,1.9s0.4,0.6,0.7,0.6c0.6,0,0.9-0.8,0.9-2.5
			c0-1.6-0.3-2.4-0.9-2.4c-0.3,0-0.6,0.2-0.7,0.6S488,271.5,488,272.4z"/>
	</g>
</g>
<g>
	<g>
		<path class="st5" d="M316.6,319.8c0,2.4-0.7,4.2-2,5.4s-3.3,1.9-5.8,1.9h-4v-14.3h4.5c2.3,0,4.1,0.6,5.4,1.8
			S316.6,317.6,316.6,319.8z M313.5,319.9c0-3.1-1.4-4.6-4.1-4.6h-1.6v9.3h1.3C312,324.6,313.5,323.1,313.5,319.9z"/>
		<path class="st5" d="M326.3,327.1l-0.6-1.5h-0.1c-0.5,0.6-1,1.1-1.5,1.3c-0.5,0.2-1.2,0.4-2.1,0.4c-1,0-1.9-0.3-2.5-0.9
			c-0.6-0.6-0.9-1.5-0.9-2.6c0-1.2,0.4-2,1.2-2.6s2-0.9,3.7-0.9l1.9-0.1v-0.5c0-1.1-0.6-1.7-1.7-1.7c-0.9,0-1.9,0.3-3.1,0.8l-1-2
			c1.3-0.7,2.6-1,4.2-1c1.5,0,2.6,0.3,3.4,1s1.2,1.6,1.2,2.9v7.3H326.3z M325.4,322.1l-1.2,0c-0.9,0-1.5,0.2-1.9,0.5
			c-0.4,0.3-0.6,0.7-0.6,1.3c0,0.8,0.5,1.3,1.4,1.3c0.7,0,1.2-0.2,1.7-0.6c0.4-0.4,0.6-0.9,0.6-1.6V322.1z"/>
		<path class="st5" d="M331.3,313.4c0-1,0.5-1.5,1.6-1.5c1.1,0,1.6,0.5,1.6,1.5c0,0.5-0.1,0.8-0.4,1.1c-0.3,0.3-0.7,0.4-1.2,0.4
			C331.8,314.8,331.3,314.4,331.3,313.4z M334.4,327.1h-3v-10.9h3V327.1z"/>
		<path class="st5" d="M340.5,327.1h-3v-15.2h3V327.1z"/>
		<path class="st5" d="M342.1,316.2h3.3l2.1,6.1c0.2,0.5,0.3,1.2,0.4,1.9h0.1c0.1-0.7,0.2-1.3,0.4-1.9l2-6.1h3.2l-4.6,12.3
			c-0.4,1.1-1,2-1.8,2.6c-0.8,0.6-1.7,0.8-2.7,0.8c-0.5,0-1-0.1-1.5-0.2v-2.4c0.4,0.1,0.7,0.1,1.2,0.1c0.5,0,1-0.2,1.4-0.5
			c0.4-0.3,0.7-0.8,0.9-1.5l0.2-0.5L342.1,316.2z"/>
		<path class="st5" d="M444.8,327.1h-3v-8.3l0-1.4l0-1.5c-0.5,0.5-0.8,0.8-1,1l-1.6,1.3l-1.5-1.8l4.6-3.7h2.5V327.1z"/>
		<path class="st5" d="M450.2,327.1l5.4-11.7h-7v-2.5h10.2v1.9l-5.4,12.4H450.2z"/>
		<path class="st5" d="M466.8,317.1c0,1.5-0.3,2.6-0.9,3.4s-1.4,1.1-2.5,1.1c-1.1,0-1.9-0.4-2.5-1.2s-0.9-1.9-0.9-3.3
			c0-3,1.1-4.5,3.4-4.5c1.1,0,1.9,0.4,2.5,1.2S466.8,315.7,466.8,317.1z M462.5,317.1c0,0.8,0.1,1.4,0.2,1.9s0.4,0.6,0.7,0.6
			c0.6,0,0.9-0.8,0.9-2.5c0-1.6-0.3-2.4-0.9-2.4c-0.3,0-0.6,0.2-0.7,0.6S462.5,316.3,462.5,317.1z M473.6,312.8l-7.9,14.3h-2.3
			l7.9-14.3H473.6z M476.8,322.8c0,1.5-0.3,2.6-0.9,3.4s-1.4,1.1-2.5,1.1c-1.1,0-1.9-0.4-2.5-1.2s-0.9-1.9-0.9-3.3
			c0-3,1.1-4.5,3.4-4.5c1.1,0,1.9,0.4,2.5,1.2S476.8,321.4,476.8,322.8z M472.5,322.8c0,0.8,0.1,1.4,0.2,1.9s0.4,0.6,0.7,0.6
			c0.6,0,0.9-0.8,0.9-2.5c0-1.6-0.3-2.4-0.9-2.4c-0.3,0-0.6,0.2-0.7,0.6S472.5,322,472.5,322.8z"/>
	</g>
</g>
<rect x="3.7" y="113.1" class="st6" width="771.4" height="262.1"/>
<g>
	<line class="st4" x1="47.3" y1="176.4" x2="56.3" y2="185.3"/>
	<line class="st4" x1="56.3" y1="176.4" x2="47.3" y2="185.3"/>
</g>
<polygon class="st7" points="706.5,373.3 706.5,307.5 775,307.5 "/>
<circle class="st8" cx="154.8" cy="246.5" r="74.8"/>
<circle class="st9" cx="154.8" cy="246.5" r="61.1"/>
<polyline class="st9" points="154.8,206.6 154.8,246.5 183.6,246.5 "/>
<line class="st10" x1="281.3" y1="113.1" x2="281.3" y2="379.3"/>
<rect x="1.3" y="36.1" class="st11" width="777.6" height="83"/>
<g>
	<g>
		<path class="st5" d="M79.6,94.3h-4.9V70.7h13.5v4.1h-8.6v6.1h8V85h-8V94.3z"/>
		<path class="st5" d="M102.4,76c0.7,0,1.2,0,1.7,0.1l-0.4,4.6c-0.4-0.1-0.9-0.2-1.5-0.2c-1.6,0-2.8,0.4-3.7,1.2
			c-0.9,0.8-1.3,1.9-1.3,3.4v9.2h-4.9v-18h3.7l0.7,3h0.2c0.6-1,1.3-1.8,2.3-2.4C100.3,76.3,101.3,76,102.4,76z"/>
		<path class="st5" d="M115.2,94.6c-2.9,0-5.2-0.8-6.8-2.4c-1.6-1.6-2.4-3.9-2.4-6.8c0-3,0.8-5.4,2.3-7c1.5-1.6,3.6-2.5,6.3-2.5
			c2.5,0,4.5,0.7,5.9,2.2s2.1,3.5,2.1,6v2.4h-11.6c0.1,1.4,0.5,2.5,1.2,3.3s1.9,1.2,3.3,1.2c1.1,0,2.1-0.1,3.1-0.3s2-0.6,3-1.1v3.8
			c-0.9,0.4-1.8,0.7-2.8,1C117.8,94.5,116.6,94.6,115.2,94.6z M114.5,79.4c-1,0-1.9,0.3-2.4,1c-0.6,0.7-0.9,1.6-1,2.8h6.9
			c0-1.2-0.3-2.2-1-2.8C116.4,79.8,115.5,79.4,114.5,79.4z"/>
		<path class="st5" d="M132.2,94.6c-2.1,0-3.8-0.8-5-2.5c-1.2-1.6-1.8-3.9-1.8-6.8c0-2.9,0.6-5.2,1.8-6.9c1.2-1.7,2.9-2.5,5.1-2.5
			c1.1,0,2.1,0.2,3,0.6c0.8,0.4,1.6,1.1,2.2,2h0.1l0.4-2.3h4.2v25.9h-4.9v-7.6c0-0.7,0.1-1.6,0.2-2.7h-0.2c-0.5,0.9-1.2,1.5-2.1,2
			S133.4,94.6,132.2,94.6z M134,90.8c1.2,0,2.2-0.4,2.7-1.1c0.6-0.7,0.9-2,1-3.7v-0.6c0-1.9-0.3-3.3-0.9-4.2s-1.6-1.3-2.9-1.3
			c-2.3,0-3.5,1.8-3.5,5.4c0,1.8,0.3,3.2,0.9,4C131.9,90.3,132.8,90.8,134,90.8z"/>
		<path class="st5" d="M160.2,94.3l-0.7-2.3h-0.3c-0.5,0.8-1.3,1.5-2.2,1.9c-1,0.5-2.1,0.7-3.3,0.7c-2.1,0-3.7-0.6-4.8-1.7
			c-1.1-1.1-1.6-2.8-1.6-4.9V76.3h4.9v10.5c0,1.3,0.2,2.3,0.7,2.9c0.5,0.7,1.2,1,2.2,1c1.4,0,2.4-0.5,3-1.4c0.6-0.9,0.9-2.4,0.9-4.6
			v-8.5h4.9v18H160.2z"/>
		<path class="st5" d="M177.3,94.6c-2.9,0-5.2-0.8-6.8-2.4s-2.4-3.9-2.4-6.8c0-3,0.8-5.4,2.3-7c1.5-1.6,3.6-2.5,6.3-2.5
			c2.5,0,4.5,0.7,5.9,2.2s2.1,3.5,2.1,6v2.4H173c0.1,1.4,0.5,2.5,1.2,3.3s1.9,1.2,3.3,1.2c1.1,0,2.1-0.1,3.1-0.3s2-0.6,3-1.1v3.8
			c-0.9,0.4-1.8,0.7-2.8,1C179.9,94.5,178.7,94.6,177.3,94.6z M176.6,79.4c-1,0-1.9,0.3-2.4,1c-0.6,0.7-0.9,1.6-1,2.8h6.9
			c0-1.2-0.3-2.2-1-2.8C178.4,79.8,177.6,79.4,176.6,79.4z"/>
		<path class="st5" d="M205.2,94.3h-4.9V83.8c0-1.3-0.2-2.3-0.7-2.9s-1.2-1-2.2-1c-1.4,0-2.4,0.5-3,1.4c-0.6,0.9-0.9,2.4-0.9,4.6
			v8.5h-4.9v-18h3.8l0.7,2.3h0.3c0.5-0.9,1.3-1.5,2.3-2c1-0.4,2.1-0.7,3.3-0.7c2.1,0,3.7,0.6,4.8,1.7c1.1,1.1,1.6,2.8,1.6,4.9V94.3z
			"/>
		<path class="st5" d="M217.6,94.6c-5.6,0-8.4-3.1-8.4-9.2c0-3.1,0.8-5.4,2.3-7s3.7-2.4,6.6-2.4c2.1,0,4,0.4,5.6,1.2l-1.5,3.8
			c-0.8-0.3-1.5-0.6-2.2-0.8s-1.3-0.3-2-0.3c-2.6,0-3.8,1.8-3.8,5.4c0,3.5,1.3,5.3,3.8,5.3c0.9,0,1.8-0.1,2.6-0.4s1.6-0.6,2.4-1.2
			v4.2c-0.8,0.5-1.6,0.9-2.4,1S218.8,94.6,217.6,94.6z"/>
		<path class="st5" d="M224.7,76.3h5.4l3.4,10.1c0.3,0.9,0.5,1.9,0.6,3.1h0.1c0.1-1.1,0.3-2.1,0.7-3.1l3.3-10.1h5.3l-7.6,20.3
			c-0.7,1.9-1.7,3.3-3,4.2s-2.8,1.4-4.5,1.4c-0.8,0-1.7-0.1-2.5-0.3v-3.9c0.6,0.1,1.2,0.2,1.9,0.2c0.9,0,1.6-0.3,2.3-0.8
			c0.6-0.5,1.2-1.3,1.5-2.4l0.3-0.9L224.7,76.3z"/>
		<path class="st5" d="M271,85.3c0,2.9-0.8,5.2-2.3,6.9s-3.7,2.5-6.5,2.5c-1.7,0-3.3-0.4-4.6-1.1c-1.3-0.8-2.3-1.8-3-3.3
			s-1.1-3.1-1.1-5c0-2.9,0.8-5.2,2.3-6.9c1.5-1.6,3.7-2.4,6.5-2.4c1.7,0,3.3,0.4,4.6,1.1s2.3,1.8,3,3.2S271,83.4,271,85.3z
			 M258.5,85.3c0,1.8,0.3,3.1,0.9,4c0.6,0.9,1.5,1.4,2.9,1.4c1.3,0,2.3-0.5,2.8-1.4c0.6-0.9,0.9-2.3,0.9-4.1c0-1.8-0.3-3.1-0.9-4
			s-1.5-1.3-2.9-1.3c-1.3,0-2.3,0.4-2.8,1.3C258.8,82.1,258.5,83.5,258.5,85.3z"/>
		<path class="st5" d="M285,80h-4.3v14.3h-4.9V80h-2.7v-2.4l2.7-1.3V75c0-2.1,0.5-3.6,1.5-4.5s2.6-1.4,4.9-1.4
			c1.7,0,3.2,0.3,4.5,0.8l-1.3,3.6c-1-0.3-1.9-0.5-2.7-0.5c-0.7,0-1.2,0.2-1.5,0.6s-0.5,0.9-0.5,1.6v1.1h4.3V80z"/>
		<path class="st5" d="M309,89c0,1.8-0.6,3.3-1.9,4.2s-3.2,1.5-5.8,1.5c-1.3,0-2.4-0.1-3.4-0.3c-0.9-0.2-1.8-0.4-2.6-0.8v-4.1
			c0.9,0.4,1.9,0.8,3.1,1.1c1.1,0.3,2.2,0.4,3,0.4c1.8,0,2.7-0.5,2.7-1.5c0-0.4-0.1-0.7-0.4-0.9c-0.2-0.2-0.6-0.5-1.2-0.8
			c-0.6-0.3-1.4-0.7-2.3-1.1c-1.4-0.6-2.4-1.1-3.1-1.6c-0.7-0.5-1.1-1.1-1.4-1.7c-0.3-0.6-0.4-1.4-0.4-2.4c0-1.6,0.6-2.8,1.9-3.7
			c1.2-0.9,3-1.3,5.3-1.3c2.2,0,4.3,0.5,6.3,1.4l-1.5,3.5c-0.9-0.4-1.7-0.7-2.5-1s-1.6-0.4-2.4-0.4c-1.5,0-2.2,0.4-2.2,1.2
			c0,0.4,0.2,0.8,0.7,1.1c0.5,0.3,1.5,0.8,3.1,1.4c1.4,0.6,2.4,1.1,3.1,1.6s1.1,1.1,1.5,1.7S309,88.1,309,89z"/>
		<path class="st5" d="M329.4,94.3h-4.9V83.8c0-2.6-1-3.9-2.9-3.9c-1.4,0-2.4,0.5-3,1.4s-0.9,2.4-0.9,4.5v8.5h-4.9V69.2h4.9v5.1
			c0,0.4,0,1.3-0.1,2.8l-0.1,1.5h0.3c1.1-1.8,2.8-2.6,5.2-2.6c2.1,0,3.7,0.6,4.8,1.7s1.6,2.8,1.6,4.9V94.3z"/>
		<path class="st5" d="M350.8,85.3c0,2.9-0.8,5.2-2.3,6.9s-3.7,2.5-6.5,2.5c-1.7,0-3.3-0.4-4.6-1.1c-1.3-0.8-2.3-1.8-3-3.3
			s-1.1-3.1-1.1-5c0-2.9,0.8-5.2,2.3-6.9s3.7-2.4,6.5-2.4c1.7,0,3.3,0.4,4.6,1.1s2.3,1.8,3,3.2S350.8,83.4,350.8,85.3z M338.4,85.3
			c0,1.8,0.3,3.1,0.9,4c0.6,0.9,1.5,1.4,2.9,1.4c1.3,0,2.3-0.5,2.8-1.4c0.6-0.9,0.9-2.3,0.9-4.1c0-1.8-0.3-3.1-0.9-4
			s-1.5-1.3-2.9-1.3c-1.3,0-2.3,0.4-2.8,1.3C338.7,82.1,338.4,83.5,338.4,85.3z"/>
		<path class="st5" d="M364.8,94.6c-2.1,0-3.8-0.8-5-2.3h-0.3c0.2,1.5,0.3,2.4,0.3,2.6v7.3h-4.9V76.3h4l0.7,2.3h0.2
			c1.1-1.8,2.9-2.7,5.1-2.7c2.1,0,3.8,0.8,5,2.5s1.8,3.9,1.8,6.8c0,1.9-0.3,3.6-0.8,5c-0.6,1.4-1.4,2.5-2.4,3.2
			S366.2,94.6,364.8,94.6z M363.4,79.9c-1.2,0-2.1,0.4-2.7,1.1c-0.6,0.7-0.8,2-0.9,3.7v0.5c0,1.9,0.3,3.3,0.9,4.2s1.5,1.3,2.7,1.3
			c2.2,0,3.3-1.8,3.3-5.4c0-1.8-0.3-3.1-0.8-4C365.4,80.3,364.5,79.9,363.4,79.9z"/>
		<path class="st5" d="M385.7,94.6c-2.1,0-3.8-0.8-5-2.3h-0.3c0.2,1.5,0.3,2.4,0.3,2.6v7.3h-4.9V76.3h4l0.7,2.3h0.2
			c1.1-1.8,2.9-2.7,5.1-2.7c2.1,0,3.8,0.8,5,2.5s1.8,3.9,1.8,6.8c0,1.9-0.3,3.6-0.8,5c-0.6,1.4-1.4,2.5-2.4,3.2
			S387.1,94.6,385.7,94.6z M384.2,79.9c-1.2,0-2.1,0.4-2.7,1.1c-0.6,0.7-0.8,2-0.9,3.7v0.5c0,1.9,0.3,3.3,0.9,4.2s1.5,1.3,2.7,1.3
			c2.2,0,3.3-1.8,3.3-5.4c0-1.8-0.3-3.1-0.8-4C386.2,80.3,385.4,79.9,384.2,79.9z"/>
		<path class="st5" d="M396.5,71.6c0-1.6,0.9-2.4,2.7-2.4s2.7,0.8,2.7,2.4c0,0.8-0.2,1.4-0.7,1.8c-0.4,0.4-1.1,0.6-2,0.6
			C397.4,74.1,396.5,73.2,396.5,71.6z M401.6,94.3h-4.9v-18h4.9V94.3z"/>
		<path class="st5" d="M423.4,94.3h-4.9V83.8c0-1.3-0.2-2.3-0.7-2.9s-1.2-1-2.2-1c-1.4,0-2.4,0.5-3,1.4c-0.6,0.9-0.9,2.4-0.9,4.6
			v8.5h-4.9v-18h3.8l0.7,2.3h0.3c0.5-0.9,1.3-1.5,2.3-2c1-0.4,2.1-0.7,3.3-0.7c2.1,0,3.7,0.6,4.8,1.7c1.1,1.1,1.6,2.8,1.6,4.9V94.3z
			"/>
		<path class="st5" d="M444.2,94.3c0,2.6-0.8,4.6-2.3,5.9c-1.5,1.3-3.8,2-6.7,2c-2.6,0-4.9-0.4-6.7-1.1v-3.9c2.2,0.9,4.5,1.4,7,1.4
			c2.5,0,3.8-1.4,3.8-4.1v-0.4l0.1-2.2h-0.1c-1.1,1.8-2.9,2.7-5.1,2.7c-2.2,0-3.8-0.8-5-2.5s-1.8-3.9-1.8-6.8c0-3,0.6-5.3,1.8-6.9
			c1.2-1.6,2.9-2.5,5.1-2.5c2.2,0,4,0.9,5.2,2.6h0.1l0.4-2.3h4.2V94.3z M435.9,90.8c1.3,0,2.3-0.4,2.8-1.1c0.6-0.8,0.9-2,0.9-3.7
			v-0.6c0-1.9-0.3-3.3-0.9-4.1c-0.6-0.8-1.6-1.3-2.9-1.3c-2.3,0-3.5,1.8-3.5,5.4c0,1.8,0.3,3.2,0.9,4S434.7,90.8,435.9,90.8z"/>
		<path class="st5" d="M465.5,90.7c0.9,0,1.9-0.2,3.1-0.6v3.7c-1.2,0.5-2.7,0.8-4.5,0.8c-2,0-3.4-0.5-4.3-1.5s-1.3-2.5-1.3-4.5V80
			h-2.4v-2.1l2.7-1.6l1.4-3.8h3.1v3.8h5V80h-5v8.7c0,0.7,0.2,1.2,0.6,1.5S464.8,90.7,465.5,90.7z"/>
		<path class="st5" d="M488.8,94.3h-4.9V83.8c0-2.6-1-3.9-2.9-3.9c-1.4,0-2.4,0.5-3,1.4s-0.9,2.4-0.9,4.5v8.5h-4.9V69.2h4.9v5.1
			c0,0.4,0,1.3-0.1,2.8l-0.1,1.5h0.3c1.1-1.8,2.8-2.6,5.2-2.6c2.1,0,3.7,0.6,4.8,1.7s1.6,2.8,1.6,4.9V94.3z"/>
		<path class="st5" d="M504,76c0.7,0,1.2,0,1.7,0.1l-0.4,4.6c-0.4-0.1-0.9-0.2-1.5-0.2c-1.6,0-2.8,0.4-3.7,1.2s-1.3,1.9-1.3,3.4v9.2
			h-4.9v-18h3.7l0.7,3h0.2c0.6-1,1.3-1.8,2.3-2.4C501.8,76.3,502.8,76,504,76z"/>
		<path class="st5" d="M524.9,85.3c0,2.9-0.8,5.2-2.3,6.9s-3.7,2.5-6.5,2.5c-1.7,0-3.3-0.4-4.6-1.1c-1.3-0.8-2.3-1.8-3-3.3
			s-1.1-3.1-1.1-5c0-2.9,0.8-5.2,2.3-6.9s3.7-2.4,6.5-2.4c1.7,0,3.3,0.4,4.6,1.1s2.3,1.8,3,3.2S524.9,83.4,524.9,85.3z M512.5,85.3
			c0,1.8,0.3,3.1,0.9,4c0.6,0.9,1.5,1.4,2.9,1.4c1.3,0,2.3-0.5,2.8-1.4c0.6-0.9,0.9-2.3,0.9-4.1c0-1.8-0.3-3.1-0.9-4
			s-1.5-1.3-2.9-1.3c-1.3,0-2.3,0.4-2.8,1.3C512.8,82.1,512.5,83.5,512.5,85.3z"/>
		<path class="st5" d="M541.8,94.3l-0.7-2.3h-0.3c-0.5,0.8-1.3,1.5-2.2,1.9c-1,0.5-2.1,0.7-3.3,0.7c-2.1,0-3.7-0.6-4.8-1.7
			c-1.1-1.1-1.6-2.8-1.6-4.9V76.3h4.9v10.5c0,1.3,0.2,2.3,0.7,2.9c0.5,0.7,1.2,1,2.2,1c1.4,0,2.4-0.5,3-1.4c0.6-0.9,0.9-2.4,0.9-4.6
			v-8.5h4.9v18H541.8z"/>
		<path class="st5" d="M566.4,94.3c0,2.6-0.8,4.6-2.3,5.9c-1.5,1.3-3.8,2-6.7,2c-2.6,0-4.9-0.4-6.7-1.1v-3.9c2.2,0.9,4.5,1.4,7,1.4
			c2.5,0,3.8-1.4,3.8-4.1v-0.4l0.1-2.2h-0.1c-1.1,1.8-2.9,2.7-5.1,2.7c-2.2,0-3.8-0.8-5-2.5s-1.8-3.9-1.8-6.8c0-3,0.6-5.3,1.8-6.9
			c1.2-1.6,2.9-2.5,5.1-2.5c2.2,0,4,0.9,5.2,2.6h0.1l0.4-2.3h4.2V94.3z M558.1,90.8c1.3,0,2.3-0.4,2.8-1.1c0.6-0.8,0.9-2,0.9-3.7
			v-0.6c0-1.9-0.3-3.3-0.9-4.1c-0.6-0.8-1.6-1.3-2.9-1.3c-2.3,0-3.5,1.8-3.5,5.4c0,1.8,0.3,3.2,0.9,4S556.9,90.8,558.1,90.8z"/>
		<path class="st5" d="M588.2,94.3h-4.9V83.8c0-2.6-1-3.9-2.9-3.9c-1.4,0-2.4,0.5-3,1.4s-0.9,2.4-0.9,4.5v8.5h-4.9V69.2h4.9v5.1
			c0,0.4,0,1.3-0.1,2.8l-0.1,1.5h0.3c1.1-1.8,2.8-2.6,5.2-2.6c2.1,0,3.7,0.6,4.8,1.7s1.6,2.8,1.6,4.9V94.3z"/>
		<path class="st5" d="M618,94.3H613V83.8c0-1.3-0.2-2.3-0.7-2.9c-0.4-0.6-1.1-1-2.1-1c-1.3,0-2.2,0.5-2.7,1.4s-0.9,2.4-0.9,4.6v8.5
			h-4.9v-18h3.8l0.7,2.3h0.3c0.5-0.8,1.2-1.5,2.1-1.9c0.9-0.5,2-0.7,3.1-0.7c2.7,0,4.5,0.9,5.5,2.6h0.4c0.5-0.8,1.2-1.5,2.1-1.9
			c0.9-0.5,2-0.7,3.2-0.7c2,0,3.6,0.5,4.6,1.6c1,1,1.6,2.7,1.6,5v11.7h-4.9V83.8c0-1.3-0.2-2.3-0.7-2.9c-0.4-0.6-1.1-1-2.1-1
			c-1.2,0-2.1,0.4-2.7,1.3c-0.6,0.9-0.9,2.2-0.9,4.1V94.3z"/>
		<path class="st5" d="M650.6,85.3c0,2.9-0.8,5.2-2.3,6.9s-3.7,2.5-6.5,2.5c-1.7,0-3.3-0.4-4.6-1.1c-1.3-0.8-2.3-1.8-3-3.3
			s-1.1-3.1-1.1-5c0-2.9,0.8-5.2,2.3-6.9s3.7-2.4,6.5-2.4c1.7,0,3.3,0.4,4.6,1.1s2.3,1.8,3,3.2S650.6,83.4,650.6,85.3z M638.1,85.3
			c0,1.8,0.3,3.1,0.9,4c0.6,0.9,1.5,1.4,2.9,1.4c1.3,0,2.3-0.5,2.8-1.4c0.6-0.9,0.9-2.3,0.9-4.1c0-1.8-0.3-3.1-0.9-4
			s-1.5-1.3-2.9-1.3c-1.3,0-2.3,0.4-2.8,1.3C638.4,82.1,638.1,83.5,638.1,85.3z"/>
		<path class="st5" d="M664.7,76c2.1,0,3.8,0.8,5,2.5c1.2,1.7,1.8,3.9,1.8,6.8c0,3-0.6,5.3-1.9,6.9c-1.2,1.6-2.9,2.4-5.1,2.4
			c-2.1,0-3.8-0.8-5-2.3h-0.3l-0.8,2h-3.8V69.2h4.9v5.8c0,0.7-0.1,1.9-0.2,3.6h0.2C660.7,76.8,662.4,76,664.7,76z M663.1,79.9
			c-1.2,0-2.1,0.4-2.7,1.1c-0.6,0.7-0.8,2-0.9,3.7v0.5c0,1.9,0.3,3.3,0.9,4.2s1.5,1.3,2.7,1.3c1,0,1.8-0.5,2.4-1.4
			c0.6-0.9,0.9-2.3,0.9-4.1s-0.3-3.1-0.9-4C665,80.3,664.1,79.9,663.1,79.9z"/>
		<path class="st5" d="M675.3,71.6c0-1.6,0.9-2.4,2.7-2.4s2.7,0.8,2.7,2.4c0,0.8-0.2,1.4-0.7,1.8c-0.4,0.4-1.1,0.6-2,0.6
			C676.2,74.1,675.3,73.2,675.3,71.6z M680.5,94.3h-4.9v-18h4.9V94.3z"/>
		<path class="st5" d="M690.5,94.3h-4.9V69.2h4.9V94.3z"/>
		<path class="st5" d="M703.8,94.6c-2.9,0-5.2-0.8-6.8-2.4s-2.4-3.9-2.4-6.8c0-3,0.8-5.4,2.3-7c1.5-1.6,3.6-2.5,6.3-2.5
			c2.5,0,4.5,0.7,5.9,2.2s2.1,3.5,2.1,6v2.4h-11.6c0.1,1.4,0.5,2.5,1.2,3.3s1.9,1.2,3.3,1.2c1.1,0,2.1-0.1,3.1-0.3s2-0.6,3-1.1v3.8
			c-0.9,0.4-1.8,0.7-2.8,1C706.4,94.5,705.2,94.6,703.8,94.6z M703.1,79.4c-1,0-1.9,0.3-2.4,1c-0.6,0.7-0.9,1.6-1,2.8h6.9
			c0-1.2-0.3-2.2-1-2.8C705,79.8,704.2,79.4,703.1,79.4z"/>
	</g>
</g>
<path class="st12" d="M144.5,52.9h-3.1c-5.7,0-10.3-4.6-10.3-10.3V12.3c0-5.7,4.6-10.3,10.3-10.3h3.1c5.7,0,10.3,4.6,10.3,10.3v30.4
	C154.8,48.3,150.1,52.9,144.5,52.9z"/>
<path class="st12" d="M659.1,52.9H656c-5.7,0-10.3-4.6-10.3-10.3V12.3C645.7,6.6,650.3,2,656,2h3.1c5.7,0,10.3,4.6,10.3,10.3v30.4
	C669.4,48.3,664.8,52.9,659.1,52.9z"/>
<rect x="141.1" y="161.1" class="st8" width="28" height="14.4"/>
<rect x="134.1" y="145" class="st8" width="41.3" height="16.1"/>
<rect x="154.8" y="145" class="st4" width="8.7" height="16.1"/>
<rect x="162.3" y="145" class="st5" width="4.4" height="16.1"/>
</svg>