<?xml version="1.0" encoding="utf-8"?>
<!-- Generator: Adobe Illustrator 19.0.0, SVG Export Plug-In . SVG Version: 6.00 Build 0)  -->
<svg version="1.1" id="Layer_1" xmlns="http://www.w3.org/2000/svg" xmlns:xlink="http://www.w3.org/1999/xlink" x="0px" y="0px"
	 viewBox="0 0 266.5 214.1" style="enable-background:new 0 0 266.5 214.1;" xml:space="preserve">
<style type="text/css">
	.st0{fill:#F8981D;}
	.st1{fill:#FFFFFF;}
	.st2{fill:#F8CF0C;}
	.st3{fill:#5AB9C9;}
</style>
<g>
	<circle class="st0" cx="46.5" cy="114.8" r="46.5"/>
	<circle class="st0" cx="119.6" cy="80.9" r="80.9"/>
	<circle class="st0" cx="175.9" cy="94.7" r="64.9"/>
	<circle class="st0" cx="234.5" cy="129.8" r="32"/>
	<g id="XMLID_2_">
		<path id="XMLID_3_" class="st1" d="M50.5,52.7l0-0.1c0.4-0.8,0.9-1.9,1.7-3h0.9c-0.6,1.4-1,2.5-1.3,3.2H50.5z M52.9,52.7l-0.1-0.1
			c0.3-0.8,0.9-1.8,1.7-3h0.9c-0.6,1.5-1.1,2.5-1.3,3.2H52.9z"/>
		<path id="XMLID_6_" class="st1" d="M60.3,50.4c-0.7,0-1.4,0.2-2,0.6c-0.6,0.4-1,1-1.3,1.8c-0.3,0.8-0.5,1.6-0.5,2.5
			c0,0.8,0.2,1.4,0.6,1.9c0.4,0.5,1,0.7,1.7,0.7c0.6,0,1.3-0.1,2.1-0.4v1c-0.7,0.3-1.4,0.4-2.3,0.4c-1,0-1.8-0.3-2.4-0.9
			s-0.9-1.5-0.9-2.6c0-1.1,0.2-2.1,0.7-3.1c0.4-1,1-1.7,1.8-2.2s1.6-0.8,2.6-0.8c0.9,0,1.6,0.2,2.3,0.5l-0.5,1
			C61.5,50.5,60.9,50.4,60.3,50.4z"/>
		<path id="XMLID_8_" class="st1" d="M68.7,54.4c0,0.8-0.2,1.6-0.5,2.3c-0.3,0.7-0.7,1.2-1.2,1.6c-0.5,0.4-1.1,0.6-1.8,0.6
			c-0.8,0-1.4-0.2-1.9-0.7c-0.5-0.5-0.7-1.1-0.7-2c0-0.8,0.2-1.6,0.5-2.3s0.7-1.3,1.3-1.6c0.5-0.4,1.1-0.6,1.8-0.6
			c0.8,0,1.4,0.2,1.9,0.7C68.5,52.9,68.7,53.6,68.7,54.4z M67.5,54.3c0-0.5-0.1-0.9-0.4-1.2s-0.6-0.4-1-0.4c-0.4,0-0.9,0.2-1.2,0.5
			c-0.4,0.3-0.6,0.7-0.8,1.3c-0.2,0.6-0.3,1.2-0.3,1.8c0,0.5,0.1,1,0.4,1.3c0.3,0.3,0.6,0.4,1.1,0.4c0.4,0,0.8-0.2,1.2-0.5
			s0.6-0.7,0.8-1.3C67.4,55.6,67.5,55,67.5,54.3z M65.7,50.7c0.2-0.2,0.5-0.5,0.7-0.9c0.3-0.4,0.5-0.7,0.7-1h1.3v0.1
			c-0.2,0.2-0.5,0.6-0.9,1s-0.8,0.7-1.1,1h-0.7V50.7z"/>
		<path id="XMLID_12_" class="st1" d="M75.9,58.9c-0.8,0-1.5-0.2-1.9-0.7c-0.5-0.5-0.7-1.1-0.7-1.9c0-0.9,0.2-1.6,0.5-2.4
			c0.3-0.7,0.7-1.3,1.3-1.7c0.5-0.4,1.2-0.6,1.9-0.6c0.6,0,1.2,0.1,1.7,0.3l-0.3,1c-0.5-0.2-0.9-0.3-1.4-0.3c-0.5,0-0.9,0.2-1.3,0.5
			c-0.4,0.3-0.7,0.8-0.9,1.3c-0.2,0.6-0.3,1.2-0.3,1.8c0,0.5,0.1,0.9,0.4,1.2s0.6,0.4,1.1,0.4c0.3,0,0.6,0,0.9-0.1
			c0.3-0.1,0.5-0.2,0.8-0.3v1C77.2,58.7,76.6,58.9,75.9,58.9z"/>
		<path id="XMLID_14_" class="st1" d="M84.3,58.8h-1.1l0.9-4.4c0.1-0.4,0.1-0.7,0.1-0.9c0-0.6-0.3-0.9-0.9-0.9
			c-0.4,0-0.7,0.1-1.1,0.4s-0.7,0.6-0.9,1.1s-0.5,1-0.6,1.7l-0.6,3H79l2.1-9.9h1.1l-0.6,2.6c-0.1,0.3-0.1,0.5-0.2,0.8
			s-0.1,0.6-0.2,0.8h0.1c0.4-0.5,0.8-0.9,1.1-1.1c0.4-0.2,0.8-0.3,1.2-0.3c0.6,0,1,0.2,1.3,0.5s0.5,0.7,0.5,1.3c0,0.2,0,0.6-0.1,1.1
			L84.3,58.8z"/>
		<path id="XMLID_16_" class="st1" d="M88.6,58.9c-0.6,0-1-0.2-1.4-0.6s-0.5-1-0.5-1.8c0-0.9,0.1-1.7,0.4-2.4
			c0.3-0.8,0.7-1.3,1.2-1.8c0.5-0.4,1.1-0.6,1.7-0.6c0.4,0,0.7,0.1,1,0.3c0.3,0.2,0.5,0.5,0.7,0.9H92l0.4-1.1h0.9l-1.5,7h-0.9
			l0.2-1.3H91C90.3,58.4,89.5,58.9,88.6,58.9z M89,57.9c0.4,0,0.8-0.2,1.2-0.6c0.4-0.4,0.7-0.9,1-1.5c0.2-0.6,0.4-1.2,0.4-1.9
			c0-0.4-0.1-0.8-0.3-1s-0.5-0.4-0.9-0.4c-0.4,0-0.8,0.2-1.2,0.5s-0.7,0.8-0.9,1.4c-0.2,0.6-0.3,1.3-0.3,1.9c0,0.5,0.1,0.8,0.3,1.1
			S88.7,57.9,89,57.9z M90.7,50.9c-0.5,0-0.9-0.2-1.2-0.5S89,49.7,89,49.2h0.7c0.1,0.3,0.2,0.5,0.3,0.6s0.4,0.2,0.8,0.2
			c0.6,0,1.1-0.3,1.3-0.8h0.7c-0.1,0.5-0.4,1-0.7,1.2S91.3,50.9,90.7,50.9z M90.6,49.1c0.4-0.4,0.8-0.8,1.1-1.3h1.1v0.1
			c-0.2,0.2-0.4,0.4-0.8,0.7c-0.3,0.3-0.7,0.5-0.9,0.6h-0.5V49.1z"/>
		<path id="XMLID_21_" class="st1" d="M96.7,58.9c-0.8,0-1.5-0.2-1.9-0.7c-0.5-0.5-0.7-1.1-0.7-1.9c0-0.9,0.2-1.6,0.5-2.4
			c0.3-0.7,0.7-1.3,1.3-1.7c0.5-0.4,1.2-0.6,1.9-0.6c0.6,0,1.2,0.1,1.7,0.3l-0.3,1c-0.5-0.2-0.9-0.3-1.4-0.3c-0.5,0-0.9,0.2-1.3,0.5
			c-0.4,0.3-0.7,0.8-0.9,1.3c-0.2,0.6-0.3,1.2-0.3,1.8c0,0.5,0.1,0.9,0.4,1.2s0.6,0.4,1.1,0.4c0.3,0,0.6,0,0.9-0.1
			c0.3-0.1,0.5-0.2,0.8-0.3v1C98,58.7,97.4,58.9,96.7,58.9z"/>
		<path id="XMLID_23_" class="st1" d="M106.8,51.7c0.4,0,0.7,0.1,1.1,0.3c0.3,0.2,0.6,0.5,0.7,0.9h0.1l0.1-0.6
			c0-0.2,0.1-0.7,0.3-1.4h-2.3l0.2-0.9h2.4l0.2-1.2h1.1l-0.2,1.2h0.9l-0.2,0.9h-1l-1.7,7.9h-0.9l0.1-1.3h-0.1
			c-0.4,0.5-0.8,0.9-1.2,1.1s-0.7,0.3-1.1,0.3c-0.6,0-1-0.2-1.4-0.6c-0.3-0.4-0.5-1-0.5-1.8c0-0.9,0.1-1.7,0.4-2.4s0.7-1.3,1.2-1.8
			C105.5,51.9,106.1,51.7,106.8,51.7z M105.7,57.9c0.4,0,0.8-0.2,1.2-0.6s0.7-0.9,1-1.5s0.4-1.2,0.4-1.8c0-0.5-0.1-0.8-0.3-1.1
			s-0.6-0.4-1-0.4c-0.4,0-0.8,0.2-1.2,0.5s-0.6,0.8-0.8,1.5s-0.3,1.3-0.3,1.9C104.6,57.5,104.9,57.9,105.7,57.9z"/>
		<path id="XMLID_26_" class="st1" d="M112.8,58.9c-0.6,0-1-0.2-1.4-0.6s-0.5-1-0.5-1.8c0-0.9,0.1-1.7,0.4-2.4
			c0.3-0.8,0.7-1.3,1.2-1.8c0.5-0.4,1.1-0.6,1.7-0.6c0.4,0,0.7,0.1,1,0.3c0.3,0.2,0.5,0.5,0.7,0.9h0.1l0.4-1.1h0.9l-1.5,7h-0.9
			l0.2-1.3h-0.1C114.4,58.4,113.6,58.9,112.8,58.9z M113.2,57.9c0.4,0,0.8-0.2,1.2-0.6c0.4-0.4,0.7-0.9,1-1.5
			c0.2-0.6,0.4-1.2,0.4-1.9c0-0.4-0.1-0.8-0.3-1s-0.5-0.4-0.9-0.4c-0.4,0-0.8,0.2-1.2,0.5s-0.7,0.8-0.9,1.4
			c-0.2,0.6-0.3,1.3-0.3,1.9c0,0.5,0.1,0.8,0.3,1.1S112.8,57.9,113.2,57.9z M116.7,50.9H116c-0.2-0.2-0.6-0.6-1-1.2
			c-0.5,0.5-1,0.9-1.5,1.2h-0.8v-0.2c1-0.9,1.6-1.6,1.8-1.9h1.1c0.1,0.4,0.4,0.9,0.8,1.5l0.3,0.4V50.9z"/>
		<path id="XMLID_30_" class="st1" d="M118.3,51.8h1.1l0.5,3.4c0,0.3,0.1,0.7,0.1,1.2c0,0.5,0.1,1,0.1,1.4h0
			c0.1-0.3,0.3-0.7,0.5-1.1c0.2-0.5,0.4-0.8,0.5-1.1l2-3.8h1.2l-4.4,8.1c-0.4,0.7-0.8,1.2-1.2,1.5c-0.4,0.3-0.9,0.4-1.4,0.4
			c-0.3,0-0.6,0-0.9-0.1v-0.9c0.3,0.1,0.5,0.1,0.8,0.1c0.3,0,0.6-0.1,0.9-0.3s0.5-0.5,0.7-0.9l0.5-0.8L118.3,51.8z"/>
		<path id="XMLID_32_" class="st1" d="M128.6,58.8h-1.1l2.1-9.9h1.1L128.6,58.8z"/>
		<path id="XMLID_34_" class="st1" d="M133,58.9c-0.6,0-1-0.2-1.4-0.6s-0.5-1-0.5-1.8c0-0.9,0.1-1.7,0.4-2.4
			c0.3-0.8,0.7-1.3,1.2-1.8c0.5-0.4,1.1-0.6,1.7-0.6c0.4,0,0.7,0.1,1,0.3c0.3,0.2,0.5,0.5,0.7,0.9h0.1l0.4-1.1h0.9l-1.5,7h-0.9
			l0.2-1.3h-0.1C134.6,58.4,133.8,58.9,133,58.9z M133.4,57.9c0.4,0,0.8-0.2,1.2-0.6c0.4-0.4,0.7-0.9,1-1.5c0.2-0.6,0.4-1.2,0.4-1.9
			c0-0.4-0.1-0.8-0.3-1s-0.5-0.4-0.9-0.4c-0.4,0-0.8,0.2-1.2,0.5s-0.7,0.8-0.9,1.4c-0.2,0.6-0.3,1.3-0.3,1.9c0,0.5,0.1,0.8,0.3,1.1
			S133,57.9,133.4,57.9z M135.7,50.9H135c-0.3-0.3-0.6-0.6-0.8-1c-0.3-0.4-0.5-0.7-0.6-0.9v-0.1h1.2c0.2,0.6,0.5,1.2,0.9,1.9V50.9z"
			/>
		<path id="XMLID_38_" class="st1" d="M143.7,61.9c-0.8,0-1.5-0.1-2.1-0.4v-1.1c0.3,0.2,0.6,0.3,1,0.4c0.4,0.1,0.7,0.2,1.1,0.2
			c0.6,0,1-0.1,1.3-0.4c0.3-0.3,0.6-0.7,0.7-1.3l0.3-1.3l0.1-0.4h-0.1c-0.4,0.5-0.8,0.9-1.1,1.1c-0.4,0.2-0.8,0.3-1.2,0.3
			c-0.6,0-1.1-0.2-1.4-0.6s-0.5-1-0.5-1.8c0-0.9,0.2-1.7,0.5-2.5c0.3-0.8,0.7-1.3,1.2-1.7c0.5-0.4,1.1-0.6,1.7-0.6
			c0.8,0,1.4,0.4,1.8,1.2h0.1l0.4-1.1h0.9l-1.6,7.4c-0.2,0.9-0.6,1.6-1.1,2.1C145.2,61.7,144.5,61.9,143.7,61.9z M144.1,57.9
			c0.4,0,0.8-0.2,1.2-0.6s0.7-0.9,1-1.5s0.4-1.2,0.4-1.8c0-0.9-0.4-1.4-1.3-1.4c-0.4,0-0.8,0.2-1.2,0.5c-0.4,0.4-0.6,0.8-0.8,1.5
			c-0.2,0.6-0.3,1.3-0.3,1.9C143,57.5,143.4,57.9,144.1,57.9z"/>
		<path id="XMLID_41_" class="st1" d="M150.3,58.8h-1.1l1.5-7h1.1L150.3,58.8z M150.9,50c0-0.2,0.1-0.4,0.2-0.6s0.3-0.2,0.6-0.2
			c0.4,0,0.6,0.2,0.6,0.6c0,0.3-0.1,0.5-0.2,0.6c-0.1,0.2-0.3,0.2-0.5,0.2c-0.2,0-0.3-0.1-0.4-0.2C151,50.4,150.9,50.2,150.9,50z"/>
		<path id="XMLID_44_" class="st1" d="M154.6,58.9c-0.6,0-1-0.2-1.4-0.6s-0.5-1-0.5-1.8c0-0.9,0.1-1.7,0.4-2.4
			c0.3-0.8,0.7-1.3,1.2-1.8c0.5-0.4,1.1-0.6,1.7-0.6c0.4,0,0.7,0.1,1,0.3c0.3,0.2,0.5,0.5,0.7,0.9h0.1l0.4-1.1h0.9l-1.5,7h-0.9
			l0.2-1.3H157C156.3,58.4,155.5,58.9,154.6,58.9z M155,57.9c0.4,0,0.8-0.2,1.2-0.6c0.4-0.4,0.7-0.9,1-1.5c0.2-0.6,0.4-1.2,0.4-1.9
			c0-0.4-0.1-0.8-0.3-1s-0.5-0.4-0.9-0.4c-0.4,0-0.8,0.2-1.2,0.5s-0.7,0.8-0.9,1.4c-0.2,0.6-0.3,1.3-0.3,1.9c0,0.5,0.1,0.8,0.3,1.1
			S154.7,57.9,155,57.9z M155.9,50.7c0.2-0.2,0.5-0.5,0.7-0.9c0.3-0.4,0.5-0.7,0.7-1h1.3v0.1c-0.2,0.2-0.5,0.6-0.9,1
			c-0.4,0.4-0.8,0.7-1.1,1h-0.7V50.7z"/>
		<path id="XMLID_48_" class="st1" d="M165.5,57.9c0.3,0,0.6-0.1,0.9-0.2v0.9c-0.1,0.1-0.3,0.1-0.5,0.2c-0.2,0-0.4,0.1-0.6,0.1
			c-0.5,0-1-0.1-1.2-0.4s-0.4-0.6-0.4-1.1c0-0.3,0-0.6,0.1-0.9l0.8-3.8h-1.1l0.1-0.5l1.2-0.5l0.8-1.4h0.7l-0.3,1.6h1.8l-0.2,0.9
			h-1.7l-0.8,3.8c-0.1,0.3-0.1,0.6-0.1,0.8c0,0.2,0.1,0.4,0.2,0.5S165.2,57.9,165.5,57.9z"/>
		<path id="XMLID_50_" class="st1" d="M173.9,54.4c0,0.8-0.2,1.6-0.5,2.3c-0.3,0.7-0.7,1.2-1.2,1.6c-0.5,0.4-1.1,0.6-1.8,0.6
			c-0.8,0-1.4-0.2-1.9-0.7c-0.5-0.5-0.7-1.1-0.7-2c0-0.8,0.2-1.6,0.5-2.3s0.7-1.3,1.3-1.6c0.5-0.4,1.1-0.6,1.8-0.6
			c0.8,0,1.4,0.2,1.9,0.7C173.7,52.9,173.9,53.6,173.9,54.4z M172.7,54.3c0-0.5-0.1-0.9-0.4-1.2s-0.6-0.4-1-0.4
			c-0.4,0-0.9,0.2-1.2,0.5c-0.4,0.3-0.6,0.7-0.8,1.3c-0.2,0.6-0.3,1.2-0.3,1.8c0,0.5,0.1,1,0.4,1.3c0.3,0.3,0.6,0.4,1.1,0.4
			c0.4,0,0.8-0.2,1.2-0.5s0.6-0.7,0.8-1.3C172.6,55.6,172.7,55,172.7,54.3z M172.9,50.9c-0.4-0.2-0.8-0.6-1.2-1.1
			c-0.6,0.4-1.1,0.8-1.7,1.1h-0.5l0.1-0.2c0.7-0.6,1.3-1.2,1.7-1.7h1.2c0.1,0.2,0.2,0.5,0.4,0.8c0.2,0.3,0.4,0.6,0.6,0.9l0,0.1
			H172.9z M173.1,49.6v-0.2c0.6-0.6,0.9-1,1.1-1.3h1.1v0.1c-0.2,0.2-0.4,0.4-0.7,0.7c-0.3,0.2-0.6,0.5-0.9,0.6H173.1z"/>
		<path id="XMLID_56_" class="st1" d="M177.1,57.9c0.3,0,0.6-0.1,0.9-0.2v0.9c-0.1,0.1-0.3,0.1-0.5,0.2c-0.2,0-0.4,0.1-0.6,0.1
			c-0.5,0-1-0.1-1.2-0.4s-0.4-0.6-0.4-1.1c0-0.3,0-0.6,0.1-0.9l0.8-3.8h-1.1l0.1-0.5l1.2-0.5l0.8-1.4h0.7l-0.3,1.6h1.8l-0.2,0.9
			h-1.7l-0.8,3.8c-0.1,0.3-0.1,0.6-0.1,0.8c0,0.2,0.1,0.4,0.2,0.5S176.8,57.9,177.1,57.9z"/>
		<path id="XMLID_58_" class="st1" d="M187.9,58.8h-1.1l0.9-4.4c0.1-0.4,0.1-0.7,0.1-0.9c0-0.3-0.1-0.5-0.2-0.6
			c-0.1-0.2-0.4-0.2-0.7-0.2c-0.4,0-0.7,0.1-1.1,0.4s-0.7,0.6-0.9,1.1c-0.3,0.5-0.5,1-0.6,1.7l-0.6,3h-1.1l1.5-7h0.9l-0.1,1.3h0.1
			c0.3-0.4,0.5-0.6,0.8-0.8s0.5-0.3,0.7-0.4c0.3-0.1,0.5-0.2,0.8-0.2c0.5,0,1,0.1,1.3,0.4c0.3,0.3,0.5,0.7,0.5,1.3
			c0,0.3,0,0.7-0.1,1.1L187.9,58.8z"/>
		<path id="XMLID_60_" class="st1" d="M195.5,58.8h-1.1l0.9-4.4c0.1-0.4,0.1-0.7,0.1-0.9c0-0.6-0.3-0.9-0.9-0.9
			c-0.4,0-0.7,0.1-1.1,0.4s-0.7,0.6-0.9,1.1s-0.5,1-0.6,1.7l-0.6,3h-1.1l2.1-9.9h1.1l-0.6,2.6c-0.1,0.3-0.1,0.5-0.2,0.8
			s-0.1,0.6-0.2,0.8h0.1c0.4-0.5,0.8-0.9,1.1-1.1c0.4-0.2,0.8-0.3,1.2-0.3c0.6,0,1,0.2,1.3,0.5s0.5,0.7,0.5,1.3c0,0.2,0,0.6-0.1,1.1
			L195.5,58.8z"/>
		<path id="XMLID_62_" class="st1" d="M199.8,58.9c-0.6,0-1-0.2-1.4-0.6s-0.5-1-0.5-1.8c0-0.9,0.1-1.7,0.4-2.4
			c0.3-0.8,0.7-1.3,1.2-1.8c0.5-0.4,1.1-0.6,1.7-0.6c0.4,0,0.7,0.1,1,0.3c0.3,0.2,0.5,0.5,0.7,0.9h0.1l0.4-1.1h0.9l-1.5,7H202
			l0.2-1.3h-0.1C201.4,58.4,200.6,58.9,199.8,58.9z M200.1,57.9c0.4,0,0.8-0.2,1.2-0.6c0.4-0.4,0.7-0.9,1-1.5
			c0.2-0.6,0.4-1.2,0.4-1.9c0-0.4-0.1-0.8-0.3-1s-0.5-0.4-0.9-0.4c-0.4,0-0.8,0.2-1.2,0.5s-0.7,0.8-0.9,1.4
			c-0.2,0.6-0.3,1.3-0.3,1.9c0,0.5,0.1,0.8,0.3,1.1S199.8,57.9,200.1,57.9z M203.2,50.9c-0.4-0.2-0.8-0.6-1.2-1.1
			c-0.6,0.4-1.1,0.8-1.7,1.1h-0.5l0.1-0.2c0.7-0.6,1.3-1.2,1.7-1.7h1.2c0.1,0.2,0.2,0.5,0.4,0.8c0.2,0.3,0.4,0.6,0.6,0.9l0,0.1
			H203.2z M203.4,49.6v-0.2c0.6-0.6,0.9-1,1.1-1.3h1.1v0.1c-0.2,0.2-0.4,0.4-0.7,0.7c-0.3,0.2-0.6,0.5-0.9,0.6H203.4z"/>
		<path id="XMLID_67_" class="st1" d="M207.2,57.9c0.3,0,0.6-0.1,0.9-0.2v0.9c-0.1,0.1-0.3,0.1-0.5,0.2c-0.2,0-0.4,0.1-0.6,0.1
			c-0.5,0-1-0.1-1.2-0.4s-0.4-0.6-0.4-1.1c0-0.3,0-0.6,0.1-0.9l0.8-3.8h-1.1l0.1-0.5l1.2-0.5l0.8-1.4h0.7l-0.3,1.6h1.8l-0.2,0.9
			h-1.7l-0.8,3.8c-0.1,0.3-0.1,0.6-0.1,0.8c0,0.2,0.1,0.4,0.2,0.5S207,57.9,207.2,57.9z"/>
		<path id="XMLID_69_" class="st1" d="M210,58.3c0-0.3,0.1-0.6,0.3-0.8c0.2-0.2,0.4-0.3,0.7-0.3c0.2,0,0.3,0.1,0.5,0.2
			s0.2,0.3,0.2,0.5c0,0.3-0.1,0.6-0.3,0.8c-0.2,0.2-0.4,0.3-0.7,0.3c-0.2,0-0.4-0.1-0.5-0.2C210,58.6,210,58.5,210,58.3z
			 M210.6,56.1c0.1-0.6,0.3-1,0.5-1.4c0.2-0.4,0.6-0.7,1-1.1c0.5-0.4,0.8-0.7,1-0.9c0.2-0.2,0.3-0.4,0.4-0.6
			c0.1-0.2,0.1-0.4,0.1-0.7c0-0.4-0.1-0.7-0.3-0.9c-0.2-0.2-0.5-0.3-0.9-0.3c-0.3,0-0.7,0.1-1,0.2c-0.3,0.1-0.6,0.2-0.9,0.4
			l-0.4-0.9c0.4-0.2,0.8-0.4,1.2-0.5s0.8-0.2,1.2-0.2c0.7,0,1.3,0.2,1.7,0.5s0.6,0.9,0.6,1.5c0,0.5-0.1,1-0.4,1.4s-0.8,0.9-1.5,1.4
			c-0.5,0.4-0.9,0.7-1.1,0.9c-0.2,0.2-0.3,0.6-0.4,1H210.6z"/>
		<path id="XMLID_72_" class="st1" d="M50.3,74.4l2-9.3h1.2l-1.8,8.2h3.6l-0.2,1H50.3z"/>
		<path id="XMLID_74_" class="st1" d="M58.4,74.5c-0.6,0-1-0.2-1.4-0.6s-0.5-1-0.5-1.8c0-0.9,0.1-1.7,0.4-2.4
			c0.3-0.8,0.7-1.3,1.2-1.8c0.5-0.4,1.1-0.6,1.7-0.6c0.4,0,0.7,0.1,1,0.3c0.3,0.2,0.5,0.5,0.7,0.9h0.1l0.4-1.1h0.9l-1.5,7h-0.9
			l0.2-1.3h-0.1C60.1,74,59.3,74.5,58.4,74.5z M58.8,73.5c0.4,0,0.8-0.2,1.2-0.6c0.4-0.4,0.7-0.9,1-1.5c0.2-0.6,0.4-1.2,0.4-1.9
			c0-0.4-0.1-0.8-0.3-1s-0.5-0.4-0.9-0.4c-0.4,0-0.8,0.2-1.2,0.5s-0.7,0.8-0.9,1.4c-0.2,0.6-0.3,1.3-0.3,1.9c0,0.5,0.1,0.8,0.3,1.1
			S58.5,73.5,58.8,73.5z M61.2,66.5h-0.7c-0.3-0.3-0.6-0.6-0.8-1c-0.3-0.4-0.5-0.7-0.6-0.9v-0.1h1.2c0.2,0.6,0.5,1.2,0.9,1.9V66.5z"
			/>
		<path id="XMLID_78_" class="st1" d="M68.3,67.3c0.5,0,0.8,0.1,1.1,0.4c0.3,0.3,0.4,0.7,0.5,1.1h0.1c0.7-1,1.5-1.5,2.4-1.5
			c0.5,0,1,0.1,1.3,0.4S74,68.4,74,69c0,0.4,0,0.8-0.1,1.1l-0.9,4.2h-1.2l0.9-4.4c0.1-0.4,0.1-0.7,0.1-0.9c0-0.3-0.1-0.5-0.2-0.6
			s-0.4-0.2-0.7-0.2c-0.3,0-0.7,0.1-1,0.4s-0.6,0.6-0.9,1c-0.3,0.5-0.4,1-0.6,1.6l-0.7,3.1h-1.1l0.9-4.4c0.1-0.4,0.1-0.7,0.1-0.9
			c0-0.6-0.3-0.9-0.8-0.9c-0.3,0-0.7,0.1-1,0.4s-0.6,0.6-0.9,1.1s-0.4,1-0.6,1.7l-0.6,3h-1.1l1.5-7h0.9L66,68.7H66
			c0.3-0.4,0.5-0.7,0.7-0.8c0.2-0.2,0.4-0.3,0.7-0.4C67.7,67.3,68,67.3,68.3,67.3z"/>
		<path id="XMLID_82_" class="st1" d="M82.8,72.3c0,0.7-0.2,1.2-0.7,1.6c-0.5,0.4-1.1,0.6-2,0.6c-0.8,0-1.4-0.1-1.9-0.4V73
			c0.3,0.2,0.6,0.3,0.9,0.4c0.3,0.1,0.7,0.2,1,0.2c0.5,0,0.9-0.1,1.2-0.3s0.4-0.5,0.4-0.8c0-0.2-0.1-0.4-0.2-0.6
			c-0.1-0.2-0.5-0.4-0.9-0.7c-0.5-0.3-0.9-0.6-1.2-0.9S79,69.6,79,69.2c0-0.6,0.2-1.1,0.6-1.4c0.4-0.4,1-0.5,1.7-0.5
			c0.7,0,1.4,0.2,2.1,0.5l-0.4,0.9c-0.2-0.1-0.5-0.2-0.8-0.3s-0.6-0.1-1-0.1c-0.4,0-0.7,0.1-0.9,0.3c-0.2,0.2-0.3,0.4-0.3,0.7
			c0,0.2,0.1,0.4,0.2,0.6s0.5,0.4,0.9,0.6c0.5,0.3,0.8,0.5,1,0.7s0.3,0.4,0.4,0.6C82.7,71.8,82.8,72.1,82.8,72.3z"/>
		<path id="XMLID_95_" class="st1" d="M86.2,74.5c-0.6,0-1-0.2-1.4-0.6s-0.5-1-0.5-1.8c0-0.9,0.1-1.7,0.4-2.4
			c0.3-0.8,0.7-1.3,1.2-1.8c0.5-0.4,1.1-0.6,1.7-0.6c0.4,0,0.7,0.1,1,0.3c0.3,0.2,0.5,0.5,0.7,0.9h0.1l0.4-1.1h0.9l-1.5,7h-0.9
			l0.2-1.3h-0.1C87.8,74,87,74.5,86.2,74.5z M86.6,73.5c0.4,0,0.8-0.2,1.2-0.6c0.4-0.4,0.7-0.9,1-1.5c0.2-0.6,0.4-1.2,0.4-1.9
			c0-0.4-0.1-0.8-0.3-1s-0.5-0.4-0.9-0.4c-0.4,0-0.8,0.2-1.2,0.5s-0.7,0.8-0.9,1.4c-0.2,0.6-0.3,1.3-0.3,1.9c0,0.5,0.1,0.8,0.3,1.1
			S86.2,73.5,86.6,73.5z"/>
		<path id="XMLID_98_" class="st1" d="M97.8,70c0,0.8-0.2,1.6-0.5,2.3c-0.3,0.7-0.7,1.2-1.2,1.6c-0.5,0.4-1.1,0.6-1.8,0.6
			c-0.8,0-1.4-0.2-1.9-0.7c-0.5-0.5-0.7-1.1-0.7-2c0-0.8,0.2-1.6,0.5-2.3s0.7-1.3,1.3-1.6c0.5-0.4,1.1-0.6,1.8-0.6
			c0.8,0,1.4,0.2,1.9,0.7C97.5,68.5,97.8,69.2,97.8,70z M96.6,69.9c0-0.5-0.1-0.9-0.4-1.2s-0.6-0.4-1-0.4c-0.4,0-0.9,0.2-1.2,0.5
			c-0.4,0.3-0.6,0.7-0.8,1.3c-0.2,0.6-0.3,1.2-0.3,1.8c0,0.5,0.1,1,0.4,1.3c0.3,0.3,0.6,0.4,1.1,0.4c0.4,0,0.8-0.2,1.2-0.5
			s0.6-0.7,0.8-1.3C96.5,71.2,96.6,70.6,96.6,69.9z"/>
		<path id="XMLID_101_" class="st1" d="M104.3,73.5c0.3,0,0.6-0.1,0.9-0.2v0.9c-0.1,0.1-0.3,0.1-0.5,0.2c-0.2,0-0.4,0.1-0.6,0.1
			c-0.5,0-1-0.1-1.2-0.4s-0.4-0.6-0.4-1.1c0-0.3,0-0.6,0.1-0.9l0.8-3.8h-1.1l0.1-0.5l1.2-0.5l0.8-1.4h0.7l-0.3,1.6h1.8l-0.2,0.9
			h-1.7l-0.8,3.8c-0.1,0.3-0.1,0.6-0.1,0.8c0,0.2,0.1,0.4,0.2,0.5S104.1,73.5,104.3,73.5z"/>
		<path id="XMLID_103_" class="st1" d="M112.8,70c0,0.8-0.2,1.6-0.5,2.3c-0.3,0.7-0.7,1.2-1.2,1.6c-0.5,0.4-1.1,0.6-1.8,0.6
			c-0.8,0-1.4-0.2-1.9-0.7c-0.5-0.5-0.7-1.1-0.7-2c0-0.8,0.2-1.6,0.5-2.3s0.7-1.3,1.3-1.6c0.5-0.4,1.1-0.6,1.8-0.6
			c0.8,0,1.4,0.2,1.9,0.7C112.6,68.5,112.8,69.2,112.8,70z M111.6,69.9c0-0.5-0.1-0.9-0.4-1.2s-0.6-0.4-1-0.4
			c-0.4,0-0.9,0.2-1.2,0.5c-0.4,0.3-0.6,0.7-0.8,1.3c-0.2,0.6-0.3,1.2-0.3,1.8c0,0.5,0.1,1,0.4,1.3c0.3,0.3,0.6,0.4,1.1,0.4
			c0.4,0,0.8-0.2,1.2-0.5s0.6-0.7,0.8-1.3C111.5,71.2,111.6,70.6,111.6,69.9z M112.5,66.5h-0.7c-0.2-0.2-0.6-0.6-1-1.2
			c-0.5,0.5-1,0.9-1.5,1.2h-0.8v-0.2c1-0.9,1.6-1.6,1.8-1.9h1.1c0.1,0.4,0.4,0.9,0.8,1.5l0.3,0.4V66.5z"/>
		<path id="XMLID_107_" class="st1" d="M114.9,74.4h-1.1l1.5-7h1.1L114.9,74.4z M115.5,65.6c0-0.2,0.1-0.4,0.2-0.6s0.3-0.2,0.6-0.2
			c0.4,0,0.6,0.2,0.6,0.6c0,0.3-0.1,0.5-0.2,0.6c-0.1,0.2-0.3,0.2-0.5,0.2c-0.2,0-0.3-0.1-0.4-0.2C115.6,66,115.5,65.8,115.5,65.6z"
			/>
		<path id="XMLID_110_" class="st1" d="M123.3,74.5c-0.8,0-1.5-0.2-1.9-0.7c-0.5-0.5-0.7-1.1-0.7-1.9c0-0.9,0.2-1.6,0.5-2.4
			c0.3-0.7,0.7-1.3,1.3-1.7c0.5-0.4,1.2-0.6,1.9-0.6c0.6,0,1.2,0.1,1.7,0.3l-0.3,1c-0.5-0.2-0.9-0.3-1.4-0.3c-0.5,0-0.9,0.2-1.3,0.5
			c-0.4,0.3-0.7,0.8-0.9,1.3c-0.2,0.6-0.3,1.2-0.3,1.8c0,0.5,0.1,0.9,0.4,1.2s0.6,0.4,1.1,0.4c0.3,0,0.6,0,0.9-0.1
			c0.3-0.1,0.5-0.2,0.8-0.3v1C124.6,74.3,124,74.5,123.3,74.5z"/>
		<path id="XMLID_112_" class="st1" d="M131.8,74.4h-1.1l0.9-4.4c0.1-0.4,0.1-0.7,0.1-0.9c0-0.6-0.3-0.9-0.9-0.9
			c-0.4,0-0.7,0.1-1.1,0.4s-0.7,0.6-0.9,1.1s-0.5,1-0.6,1.7l-0.6,3h-1.1l2.1-9.9h1.1l-0.6,2.6c-0.1,0.3-0.1,0.5-0.2,0.8
			s-0.1,0.6-0.2,0.8h0.1c0.4-0.5,0.8-0.9,1.1-1.1c0.4-0.2,0.8-0.3,1.2-0.3c0.6,0,1,0.2,1.3,0.5s0.5,0.7,0.5,1.3c0,0.2,0,0.6-0.1,1.1
			L131.8,74.4z"/>
		<path id="XMLID_114_" class="st1" d="M136.1,74.5c-0.6,0-1-0.2-1.4-0.6s-0.5-1-0.5-1.8c0-0.9,0.1-1.7,0.4-2.4
			c0.3-0.8,0.7-1.3,1.2-1.8c0.5-0.4,1.1-0.6,1.7-0.6c0.4,0,0.7,0.1,1,0.3c0.3,0.2,0.5,0.5,0.7,0.9h0.1l0.4-1.1h0.9l-1.5,7h-0.9
			l0.2-1.3h-0.1C137.7,74,136.9,74.5,136.1,74.5z M136.4,73.5c0.4,0,0.8-0.2,1.2-0.6c0.4-0.4,0.7-0.9,1-1.5c0.2-0.6,0.4-1.2,0.4-1.9
			c0-0.4-0.1-0.8-0.3-1s-0.5-0.4-0.9-0.4c-0.4,0-0.8,0.2-1.2,0.5s-0.7,0.8-0.9,1.4c-0.2,0.6-0.3,1.3-0.3,1.9c0,0.5,0.1,0.8,0.3,1.1
			S136.1,73.5,136.4,73.5z M138.1,66.5c-0.5,0-0.9-0.2-1.2-0.5s-0.5-0.7-0.5-1.2h0.7c0.1,0.3,0.2,0.5,0.3,0.6s0.4,0.2,0.8,0.2
			c0.6,0,1.1-0.3,1.3-0.8h0.7c-0.1,0.5-0.4,1-0.7,1.2S138.7,66.5,138.1,66.5z M138,64.7c0.4-0.4,0.8-0.8,1.1-1.3h1.1v0.1
			c-0.2,0.2-0.4,0.4-0.8,0.7c-0.3,0.3-0.7,0.5-0.9,0.6H138V64.7z"/>
		<path id="XMLID_119_" class="st1" d="M144.1,74.5c-0.8,0-1.5-0.2-1.9-0.7c-0.5-0.5-0.7-1.1-0.7-1.9c0-0.9,0.2-1.6,0.5-2.4
			c0.3-0.7,0.7-1.3,1.3-1.7c0.5-0.4,1.2-0.6,1.9-0.6c0.6,0,1.2,0.1,1.7,0.3l-0.3,1c-0.5-0.2-0.9-0.3-1.4-0.3c-0.5,0-0.9,0.2-1.3,0.5
			c-0.4,0.3-0.7,0.8-0.9,1.3c-0.2,0.6-0.3,1.2-0.3,1.8c0,0.5,0.1,0.9,0.4,1.2s0.6,0.4,1.1,0.4c0.3,0,0.6,0,0.9-0.1
			c0.3-0.1,0.5-0.2,0.8-0.3v1C145.4,74.3,144.8,74.5,144.1,74.5z"/>
		<path id="XMLID_121_" class="st1" d="M153.4,74.5c-0.8,0-1.5-0.2-1.9-0.7c-0.5-0.5-0.7-1.1-0.7-1.9c0-0.9,0.2-1.6,0.5-2.4
			c0.3-0.7,0.7-1.3,1.3-1.7c0.5-0.4,1.2-0.6,1.9-0.6c0.6,0,1.2,0.1,1.7,0.3l-0.3,1c-0.5-0.2-0.9-0.3-1.4-0.3c-0.5,0-0.9,0.2-1.3,0.5
			c-0.4,0.3-0.7,0.8-0.9,1.3c-0.2,0.6-0.3,1.2-0.3,1.8c0,0.5,0.1,0.9,0.4,1.2s0.6,0.4,1.1,0.4c0.3,0,0.6,0,0.9-0.1
			c0.3-0.1,0.5-0.2,0.8-0.3v1C154.7,74.3,154.1,74.5,153.4,74.5z"/>
		<path id="XMLID_123_" class="st1" d="M161.8,74.4h-1.1l0.9-4.4c0.1-0.4,0.1-0.7,0.1-0.9c0-0.6-0.3-0.9-0.9-0.9
			c-0.4,0-0.7,0.1-1.1,0.4s-0.7,0.6-0.9,1.1s-0.5,1-0.6,1.7l-0.6,3h-1.1l2.1-9.9h1.1l-0.6,2.6c-0.1,0.3-0.1,0.5-0.2,0.8
			s-0.1,0.6-0.2,0.8h0.1c0.4-0.5,0.8-0.9,1.1-1.1c0.4-0.2,0.8-0.3,1.2-0.3c0.6,0,1,0.2,1.3,0.5s0.5,0.7,0.5,1.3c0,0.2,0,0.6-0.1,1.1
			L161.8,74.4z"/>
		<path id="XMLID_125_" class="st1" d="M166.1,74.5c-0.6,0-1-0.2-1.4-0.6s-0.5-1-0.5-1.8c0-0.9,0.1-1.7,0.4-2.4
			c0.3-0.8,0.7-1.3,1.2-1.8c0.5-0.4,1.1-0.6,1.7-0.6c0.4,0,0.7,0.1,1,0.3c0.3,0.2,0.5,0.5,0.7,0.9h0.1l0.4-1.1h0.9l-1.5,7h-0.9
			l0.2-1.3h-0.1C167.8,74,167,74.5,166.1,74.5z M166.5,73.5c0.4,0,0.8-0.2,1.2-0.6c0.4-0.4,0.7-0.9,1-1.5c0.2-0.6,0.4-1.2,0.4-1.9
			c0-0.4-0.1-0.8-0.3-1s-0.5-0.4-0.9-0.4c-0.4,0-0.8,0.2-1.2,0.5s-0.7,0.8-0.9,1.4c-0.2,0.6-0.3,1.3-0.3,1.9c0,0.5,0.1,0.8,0.3,1.1
			S166.2,73.5,166.5,73.5z M168.2,66.5c-0.5,0-0.9-0.2-1.2-0.5s-0.5-0.7-0.5-1.2h0.7c0.1,0.3,0.2,0.5,0.3,0.6s0.4,0.2,0.8,0.2
			c0.6,0,1.1-0.3,1.3-0.8h0.7c-0.1,0.5-0.4,1-0.7,1.2S168.8,66.5,168.2,66.5z M168.1,64.7c0.4-0.4,0.8-0.8,1.1-1.3h1.1v0.1
			c-0.2,0.2-0.4,0.4-0.8,0.7c-0.3,0.3-0.7,0.5-0.9,0.6h-0.5V64.7z"/>
		<path id="XMLID_130_" class="st1" d="M176.7,74.4h-1.1l0.9-4.4c0.1-0.4,0.1-0.7,0.1-0.9c0-0.3-0.1-0.5-0.2-0.6
			c-0.1-0.2-0.4-0.2-0.7-0.2c-0.4,0-0.7,0.1-1.1,0.4s-0.7,0.6-0.9,1.1c-0.3,0.5-0.5,1-0.6,1.7l-0.6,3h-1.1l1.5-7h0.9l-0.1,1.3h0.1
			c0.3-0.4,0.5-0.6,0.8-0.8s0.5-0.3,0.7-0.4c0.3-0.1,0.5-0.2,0.8-0.2c0.5,0,1,0.1,1.3,0.4c0.3,0.3,0.5,0.7,0.5,1.3
			c0,0.3,0,0.7-0.1,1.1L176.7,74.4z"/>
		<path id="XMLID_132_" class="st1" d="M186.7,67.3c0.3,0,0.5,0,0.8,0.1l-0.2,1c-0.2-0.1-0.5-0.1-0.7-0.1c-0.4,0-0.7,0.1-1.1,0.4
			c-0.3,0.2-0.6,0.6-0.9,1c-0.2,0.4-0.4,0.9-0.5,1.5l-0.7,3.2h-1.1l1.5-7h0.9l-0.1,1.3h0.1c0.3-0.4,0.6-0.7,0.8-0.9s0.4-0.3,0.6-0.4
			C186.2,67.3,186.5,67.3,186.7,67.3z"/>
		<path id="XMLID_134_" class="st1" d="M189.6,74.5c-0.6,0-1-0.2-1.4-0.6s-0.5-1-0.5-1.8c0-0.9,0.1-1.7,0.4-2.4
			c0.3-0.8,0.7-1.3,1.2-1.8c0.5-0.4,1.1-0.6,1.7-0.6c0.4,0,0.7,0.1,1,0.3c0.3,0.2,0.5,0.5,0.7,0.9h0.1l0.4-1.1h0.9l-1.5,7h-0.9
			l0.2-1.3h-0.1C191.2,74,190.4,74.5,189.6,74.5z M190,73.5c0.4,0,0.8-0.2,1.2-0.6c0.4-0.4,0.7-0.9,1-1.5c0.2-0.6,0.4-1.2,0.4-1.9
			c0-0.4-0.1-0.8-0.3-1s-0.5-0.4-0.9-0.4c-0.4,0-0.8,0.2-1.2,0.5s-0.7,0.8-0.9,1.4c-0.2,0.6-0.3,1.3-0.3,1.9c0,0.5,0.1,0.8,0.3,1.1
			S189.6,73.5,190,73.5z M193.8,64.8c-0.1,0.5-0.4,1-0.7,1.2s-0.8,0.4-1.4,0.4c-0.5,0-0.9-0.1-1.2-0.4c-0.3-0.3-0.5-0.7-0.5-1.2h0.7
			c0.1,0.3,0.2,0.5,0.3,0.6s0.4,0.2,0.8,0.2c0.6,0,1.1-0.3,1.3-0.8H193.8z M191.8,64.8c-0.5-0.5-0.9-0.9-1.2-1.3l0-0.1h0.9
			c0.2,0.5,0.5,0.9,0.8,1.3l-0.1,0.2H191.8z"/>
		<path id="XMLID_139_" class="st1" d="M200.2,74.4h-1.1L200,70c0.1-0.4,0.1-0.7,0.1-0.9c0-0.3-0.1-0.5-0.2-0.6
			c-0.1-0.2-0.4-0.2-0.7-0.2c-0.4,0-0.7,0.1-1.1,0.4s-0.7,0.6-0.9,1.1c-0.3,0.5-0.5,1-0.6,1.7l-0.6,3h-1.1l1.5-7h0.9l-0.1,1.3h0.1
			c0.3-0.4,0.5-0.6,0.8-0.8s0.5-0.3,0.7-0.4c0.3-0.1,0.5-0.2,0.8-0.2c0.5,0,1,0.1,1.3,0.4c0.3,0.3,0.5,0.7,0.5,1.3
			c0,0.3,0,0.7-0.1,1.1L200.2,74.4z"/>
		<path id="XMLID_141_" class="st1" d="M204.4,77.5c-0.8,0-1.5-0.1-2.1-0.4V76c0.3,0.2,0.6,0.3,1,0.4c0.4,0.1,0.7,0.2,1.1,0.2
			c0.6,0,1-0.1,1.3-0.4c0.3-0.3,0.6-0.7,0.7-1.3l0.3-1.3l0.1-0.4h-0.1c-0.4,0.5-0.8,0.9-1.1,1.1c-0.4,0.2-0.8,0.3-1.2,0.3
			c-0.6,0-1.1-0.2-1.4-0.6s-0.5-1-0.5-1.8c0-0.9,0.2-1.7,0.5-2.5c0.3-0.8,0.7-1.3,1.2-1.7c0.5-0.4,1.1-0.6,1.7-0.6
			c0.8,0,1.4,0.4,1.8,1.2h0.1l0.4-1.1h0.9l-1.6,7.4c-0.2,0.9-0.6,1.6-1.1,2.1C206,77.3,205.3,77.5,204.4,77.5z M204.9,73.5
			c0.4,0,0.8-0.2,1.2-0.6s0.7-0.9,1-1.5s0.4-1.2,0.4-1.8c0-0.9-0.4-1.4-1.3-1.4c-0.4,0-0.8,0.2-1.2,0.5c-0.4,0.4-0.6,0.8-0.8,1.5
			c-0.2,0.6-0.3,1.3-0.3,1.9C203.8,73.1,204.1,73.5,204.9,73.5z"/>
		<path id="XMLID_144_" class="st1" d="M54.7,82.9c0.5,0,0.8,0.1,1.1,0.4c0.3,0.3,0.4,0.7,0.5,1.1h0.1c0.7-1,1.5-1.5,2.4-1.5
			c0.5,0,1,0.1,1.3,0.4s0.4,0.7,0.4,1.3c0,0.4,0,0.8-0.1,1.1L59.3,90h-1.2l0.9-4.4c0.1-0.4,0.1-0.7,0.1-0.9c0-0.3-0.1-0.5-0.2-0.6
			s-0.4-0.2-0.7-0.2c-0.3,0-0.7,0.1-1,0.4s-0.6,0.6-0.9,1c-0.3,0.5-0.4,1-0.6,1.6L55.3,90h-1.1l0.9-4.4c0.1-0.4,0.1-0.7,0.1-0.9
			c0-0.6-0.3-0.9-0.8-0.9c-0.3,0-0.7,0.1-1,0.4s-0.6,0.6-0.9,1.1s-0.4,1-0.6,1.7l-0.6,3h-1.1l1.5-7h0.9l-0.1,1.3h0.1
			c0.3-0.4,0.5-0.7,0.7-0.8c0.2-0.2,0.4-0.3,0.7-0.4C54.1,82.9,54.4,82.9,54.7,82.9z"/>
		<path id="XMLID_146_" class="st1" d="M62.6,90h-1.1l1.5-7h1.1L62.6,90z M64.3,82.1h-0.7c-0.3-0.3-0.6-0.6-0.8-1
			c-0.3-0.4-0.5-0.7-0.6-0.9V80h1.2c0.2,0.6,0.5,1.2,0.9,1.9V82.1z"/>
		<path id="XMLID_149_" class="st1" d="M70.2,90H69l0.9-4.4c0.1-0.4,0.1-0.7,0.1-0.9c0-0.3-0.1-0.5-0.2-0.6
			c-0.1-0.2-0.4-0.2-0.7-0.2c-0.4,0-0.7,0.1-1.1,0.4s-0.7,0.6-0.9,1.1c-0.3,0.5-0.5,1-0.6,1.7L66,90h-1.1l1.5-7h0.9l-0.1,1.3h0.1
			c0.3-0.4,0.5-0.6,0.8-0.8s0.5-0.3,0.7-0.4c0.3-0.1,0.5-0.2,0.8-0.2c0.5,0,1,0.1,1.3,0.4c0.3,0.3,0.5,0.7,0.5,1.3
			c0,0.3,0,0.7-0.1,1.1L70.2,90z"/>
		<path id="XMLID_151_" class="st1" d="M77.7,90h-1.1l0.9-4.4c0.1-0.4,0.1-0.7,0.1-0.9c0-0.6-0.3-0.9-0.9-0.9
			c-0.4,0-0.7,0.1-1.1,0.4s-0.7,0.6-0.9,1.1s-0.5,1-0.6,1.7l-0.6,3h-1.1l2.1-9.9h1.1L75,82.6c-0.1,0.3-0.1,0.5-0.2,0.8
			s-0.1,0.6-0.2,0.8h0.1c0.4-0.5,0.8-0.9,1.1-1.1c0.4-0.2,0.8-0.3,1.2-0.3c0.6,0,1,0.2,1.3,0.5s0.5,0.7,0.5,1.3c0,0.2,0,0.6-0.1,1.1
			L77.7,90z"/>
		<path id="XMLID_153_" class="st1" d="M88.4,83h1.4l-3,3l1.9,4h-1.3l-1.5-3.3l-0.9,0.7L84.4,90h-1.2l2.1-9.9h1.2
			c-0.4,1.7-0.7,3.1-0.9,4c-0.2,0.9-0.4,1.7-0.6,2.3h0L88.4,83z"/>
		<path id="XMLID_155_" class="st1" d="M95.1,90h-1.1l0.9-4.4c0.1-0.4,0.1-0.7,0.1-0.9c0-0.6-0.3-0.9-0.9-0.9
			c-0.4,0-0.7,0.1-1.1,0.4s-0.7,0.6-0.9,1.1s-0.5,1-0.6,1.7l-0.6,3h-1.1l2.1-9.9h1.1l-0.6,2.6c-0.1,0.3-0.1,0.5-0.2,0.8
			S92,84,91.9,84.3H92c0.4-0.5,0.8-0.9,1.1-1.1c0.4-0.2,0.8-0.3,1.2-0.3c0.6,0,1,0.2,1.3,0.5s0.5,0.7,0.5,1.3c0,0.2,0,0.6-0.1,1.1
			L95.1,90z"/>
		<path id="XMLID_157_" class="st1" d="M103.6,85.6c0,0.8-0.2,1.6-0.5,2.3c-0.3,0.7-0.7,1.2-1.2,1.6c-0.5,0.4-1.1,0.6-1.8,0.6
			c-0.8,0-1.4-0.2-1.9-0.7c-0.5-0.5-0.7-1.1-0.7-2c0-0.8,0.2-1.6,0.5-2.3s0.7-1.3,1.3-1.6c0.5-0.4,1.1-0.6,1.8-0.6
			c0.8,0,1.4,0.2,1.9,0.7C103.3,84.1,103.6,84.8,103.6,85.6z M102.4,85.5c0-0.5-0.1-0.9-0.4-1.2s-0.6-0.4-1-0.4
			c-0.4,0-0.9,0.2-1.2,0.5c-0.4,0.3-0.6,0.7-0.8,1.3c-0.2,0.6-0.3,1.2-0.3,1.8c0,0.5,0.1,1,0.4,1.3c0.3,0.3,0.6,0.4,1.1,0.4
			c0.4,0,0.8-0.2,1.2-0.5s0.6-0.7,0.8-1.3C102.3,86.8,102.4,86.2,102.4,85.5z M103.2,82.1h-0.7c-0.2-0.2-0.6-0.6-1-1.2
			c-0.5,0.5-1,0.9-1.5,1.2h-0.8v-0.2c1-0.9,1.6-1.6,1.8-1.9h1.1c0.1,0.4,0.4,0.9,0.8,1.5l0.3,0.4V82.1z"/>
		<path id="XMLID_161_" class="st1" d="M109.9,90h-1.1l0.9-4.4c0.1-0.4,0.1-0.7,0.1-0.9c0-0.3-0.1-0.5-0.2-0.6
			c-0.1-0.2-0.4-0.2-0.7-0.2c-0.4,0-0.7,0.1-1.1,0.4s-0.7,0.6-0.9,1.1c-0.3,0.5-0.5,1-0.6,1.7l-0.6,3h-1.1l1.5-7h0.9l-0.1,1.3h0.1
			c0.3-0.4,0.5-0.6,0.8-0.8s0.5-0.3,0.7-0.4c0.3-0.1,0.5-0.2,0.8-0.2c0.5,0,1,0.1,1.3,0.4c0.3,0.3,0.5,0.7,0.5,1.3
			c0,0.3,0,0.7-0.1,1.1L109.9,90z"/>
		<path id="XMLID_163_" class="st1" d="M114.1,93.1c-0.8,0-1.5-0.1-2.1-0.4v-1.1c0.3,0.2,0.6,0.3,1,0.4c0.4,0.1,0.7,0.2,1.1,0.2
			c0.6,0,1-0.1,1.3-0.4c0.3-0.3,0.6-0.7,0.7-1.3l0.3-1.3l0.1-0.4h-0.1c-0.4,0.5-0.8,0.9-1.1,1.1c-0.4,0.2-0.8,0.3-1.2,0.3
			c-0.6,0-1.1-0.2-1.4-0.6s-0.5-1-0.5-1.8c0-0.9,0.2-1.7,0.5-2.5c0.3-0.8,0.7-1.3,1.2-1.7c0.5-0.4,1.1-0.6,1.7-0.6
			c0.8,0,1.4,0.4,1.8,1.2h0.1L118,83h0.9l-1.6,7.4c-0.2,0.9-0.6,1.6-1.1,2.1C115.7,92.9,115,93.1,114.1,93.1z M114.6,89.1
			c0.4,0,0.8-0.2,1.2-0.6s0.7-0.9,1-1.5s0.4-1.2,0.4-1.8c0-0.9-0.4-1.4-1.3-1.4c-0.4,0-0.8,0.2-1.2,0.5c-0.4,0.4-0.6,0.8-0.8,1.5
			c-0.2,0.6-0.3,1.3-0.3,1.9C113.5,88.7,113.9,89.1,114.6,89.1z"/>
		<path id="XMLID_166_" class="st1" d="M126.1,90.1c-0.4,0-0.8-0.1-1.1-0.3c-0.3-0.2-0.5-0.5-0.7-0.9h-0.1l-0.4,1.1H123l2.1-9.9h1.1
			l-0.5,2.3c-0.1,0.4-0.2,0.8-0.3,1.2s-0.2,0.6-0.2,0.7h0.1c0.4-0.5,0.8-0.9,1.2-1.1c0.4-0.2,0.7-0.3,1.1-0.3c0.6,0,1.1,0.2,1.4,0.6
			c0.3,0.4,0.5,1,0.5,1.7c0,0.9-0.1,1.7-0.4,2.4c-0.3,0.8-0.7,1.3-1.2,1.8C127.3,89.9,126.7,90.1,126.1,90.1z M127.2,83.8
			c-0.4,0-0.8,0.2-1.2,0.6c-0.4,0.4-0.7,0.9-1,1.5c-0.2,0.6-0.4,1.2-0.4,1.8c0,0.4,0.1,0.8,0.3,1c0.2,0.2,0.6,0.4,1,0.4
			c0.4,0,0.8-0.2,1.2-0.5c0.4-0.3,0.6-0.8,0.8-1.4c0.2-0.6,0.3-1.3,0.3-1.9C128.3,84.3,127.9,83.8,127.2,83.8z"/>
		<path id="XMLID_169_" class="st1" d="M130.1,91.6c0-0.2,0.1-0.4,0.2-0.6c0.1-0.2,0.3-0.2,0.5-0.2c0.2,0,0.4,0.1,0.4,0.2
			c0.1,0.1,0.1,0.3,0.1,0.4c0,0.2-0.1,0.5-0.2,0.6c-0.1,0.2-0.3,0.2-0.5,0.2c-0.2,0-0.3-0.1-0.4-0.2S130.1,91.8,130.1,91.6z
			 M131.6,90h-1.1l1.5-7h1.1L131.6,90z M132.3,81.2c0-0.2,0.1-0.4,0.2-0.6s0.3-0.2,0.6-0.2c0.4,0,0.6,0.2,0.6,0.6
			c0,0.3-0.1,0.5-0.2,0.6c-0.1,0.2-0.3,0.2-0.5,0.2c-0.2,0-0.3-0.1-0.4-0.2C132.3,81.6,132.3,81.4,132.3,81.2z"/>
		<path id="XMLID_173_" class="st1" d="M138.4,90h-1.1l2.1-9.9h1.1L138.4,90z"/>
		<path id="XMLID_175_" class="st1" d="M143.1,83l-0.9,4.4c-0.1,0.4-0.1,0.7-0.1,0.9c0,0.6,0.3,0.9,0.9,0.9c0.4,0,0.7-0.1,1.1-0.4
			s0.7-0.6,0.9-1.1c0.3-0.5,0.5-1,0.6-1.7l0.6-3h1.1l-0.2,0.8c0.3-0.1,0.6-0.2,0.9-0.5s0.4-0.7,0.5-1.3h1.2l0.1,0.1
			c-0.1,0.7-0.5,1.2-0.9,1.6s-1.1,0.7-1.8,0.9l-1.1,5.4h-0.9l0.1-1.3H145c-0.4,0.5-0.8,0.9-1.1,1.1c-0.4,0.2-0.8,0.3-1.2,0.3
			c-0.6,0-1-0.2-1.3-0.5s-0.5-0.7-0.5-1.3c0-0.2,0-0.6,0.1-1.1L142,83H143.1z M145.2,82.1h-0.7c-0.3-0.3-0.6-0.6-0.8-1
			s-0.5-0.7-0.6-0.9V80h1.2c0.2,0.6,0.5,1.2,0.9,1.9V82.1z"/>
		<path id="XMLID_178_" class="st1" d="M150.9,90.1c-0.6,0-1-0.2-1.4-0.6s-0.5-1-0.5-1.8c0-0.9,0.1-1.7,0.4-2.4
			c0.3-0.8,0.7-1.3,1.2-1.8c0.5-0.4,1.1-0.6,1.7-0.6c0.4,0,0.7,0.1,1,0.3c0.3,0.2,0.5,0.5,0.7,0.9h0.1l0.4-1.1h0.9l-1.5,7h-0.9
			l0.2-1.3h-0.1C152.5,89.6,151.7,90.1,150.9,90.1z M151.2,89.1c0.4,0,0.8-0.2,1.2-0.6c0.4-0.4,0.7-0.9,1-1.5
			c0.2-0.6,0.4-1.2,0.4-1.9c0-0.4-0.1-0.8-0.3-1s-0.5-0.4-0.9-0.4c-0.4,0-0.8,0.2-1.2,0.5s-0.7,0.8-0.9,1.4
			c-0.2,0.6-0.3,1.3-0.3,1.9c0,0.5,0.1,0.8,0.3,1.1S150.9,89.1,151.2,89.1z"/>
		<path id="XMLID_181_" class="st1" d="M163.1,82.9c0.4,0,0.7,0.1,1.1,0.3c0.3,0.2,0.6,0.5,0.7,0.9h0.1l0.1-0.6
			c0-0.2,0.1-0.7,0.3-1.4H163l0.2-0.9h2.4l0.2-1.2h1.1l-0.2,1.2h0.9l-0.2,0.9h-1l-1.7,7.9h-0.9l0.1-1.3h-0.1
			c-0.4,0.5-0.8,0.9-1.2,1.1s-0.7,0.3-1.1,0.3c-0.6,0-1-0.2-1.4-0.6c-0.3-0.4-0.5-1-0.5-1.8c0-0.9,0.1-1.7,0.4-2.4s0.7-1.3,1.2-1.8
			C161.9,83.1,162.5,82.9,163.1,82.9z M162,89.1c0.4,0,0.8-0.2,1.2-0.6s0.7-0.9,1-1.5s0.4-1.2,0.4-1.8c0-0.5-0.1-0.8-0.3-1.1
			s-0.6-0.4-1-0.4c-0.4,0-0.8,0.2-1.2,0.5s-0.6,0.8-0.8,1.5s-0.3,1.3-0.3,1.9C160.9,88.7,161.3,89.1,162,89.1z"/>
		<path id="XMLID_184_" class="st1" d="M169.1,90.1c-0.6,0-1-0.2-1.4-0.6s-0.5-1-0.5-1.8c0-0.9,0.1-1.7,0.4-2.4
			c0.3-0.8,0.7-1.3,1.2-1.8c0.5-0.4,1.1-0.6,1.7-0.6c0.4,0,0.7,0.1,1,0.3c0.3,0.2,0.5,0.5,0.7,0.9h0.1l0.4-1.1h0.9l-1.5,7h-0.9
			l0.2-1.3h-0.1C170.8,89.6,170,90.1,169.1,90.1z M169.5,89.1c0.4,0,0.8-0.2,1.2-0.6c0.4-0.4,0.7-0.9,1-1.5c0.2-0.6,0.4-1.2,0.4-1.9
			c0-0.4-0.1-0.8-0.3-1s-0.5-0.4-0.9-0.4c-0.4,0-0.8,0.2-1.2,0.5s-0.7,0.8-0.9,1.4c-0.2,0.6-0.3,1.3-0.3,1.9c0,0.5,0.1,0.8,0.3,1.1
			S169.2,89.1,169.5,89.1z M172.9,80.3c0,0.4-0.1,0.6-0.4,0.8c-0.2,0.2-0.6,0.4-1,0.4l-0.2,0.7h-0.7l0.1-1.1
			c0.4-0.1,0.7-0.1,0.9-0.3c0.2-0.1,0.3-0.3,0.3-0.5c0-0.2-0.1-0.3-0.2-0.3s-0.3-0.1-0.5-0.1c-0.1,0-0.3,0-0.6,0.1v-0.7
			c0.2-0.1,0.4-0.1,0.8-0.1c0.5,0,0.8,0.1,1.1,0.3S172.9,80,172.9,80.3z"/>
		<path id="XMLID_188_" class="st1" d="M180.7,85.6c0,0.8-0.2,1.6-0.5,2.3c-0.3,0.7-0.7,1.2-1.2,1.6c-0.5,0.4-1.1,0.6-1.8,0.6
			c-0.8,0-1.4-0.2-1.9-0.7c-0.5-0.5-0.7-1.1-0.7-2c0-0.8,0.2-1.6,0.5-2.3s0.7-1.3,1.3-1.6c0.5-0.4,1.1-0.6,1.8-0.6
			c0.8,0,1.4,0.2,1.9,0.7C180.5,84.1,180.7,84.8,180.7,85.6z M179.5,85.5c0-0.5-0.1-0.9-0.4-1.2s-0.6-0.4-1-0.4
			c-0.4,0-0.9,0.2-1.2,0.5c-0.4,0.3-0.6,0.7-0.8,1.3c-0.2,0.6-0.3,1.2-0.3,1.8c0,0.5,0.1,1,0.4,1.3c0.3,0.3,0.6,0.4,1.1,0.4
			c0.4,0,0.8-0.2,1.2-0.5s0.6-0.7,0.8-1.3C179.5,86.8,179.5,86.2,179.5,85.5z"/>
		<path id="XMLID_191_" class="st1" d="M182.3,89.5c0-0.3,0.1-0.6,0.3-0.8c0.2-0.2,0.4-0.3,0.7-0.3c0.2,0,0.3,0.1,0.5,0.2
			s0.2,0.3,0.2,0.5c0,0.3-0.1,0.6-0.3,0.8c-0.2,0.2-0.4,0.3-0.7,0.3c-0.2,0-0.4-0.1-0.5-0.2C182.4,89.8,182.3,89.7,182.3,89.5z
			 M183,87.3c0.1-0.6,0.3-1,0.5-1.4c0.2-0.4,0.6-0.7,1-1.1c0.5-0.4,0.8-0.7,1-0.9c0.2-0.2,0.3-0.4,0.4-0.6c0.1-0.2,0.1-0.4,0.1-0.7
			c0-0.4-0.1-0.7-0.3-0.9c-0.2-0.2-0.5-0.3-0.9-0.3c-0.3,0-0.7,0.1-1,0.2c-0.3,0.1-0.6,0.2-0.9,0.4l-0.4-0.9
			c0.4-0.2,0.8-0.4,1.2-0.5s0.8-0.2,1.2-0.2c0.7,0,1.3,0.2,1.7,0.5s0.6,0.9,0.6,1.5c0,0.5-0.1,1-0.4,1.4s-0.8,0.9-1.5,1.4
			c-0.5,0.4-0.9,0.7-1.1,0.9c-0.2,0.2-0.3,0.6-0.4,1H183z"/>
		<path id="XMLID_333_" class="st1" d="M193.4,90h-1.2l1.7-8.3h-2.6l0.2-1h6.3l-0.2,1h-2.6L193.4,90z"/>
		<path id="XMLID_335_" class="st1" d="M201.4,82.9c0.3,0,0.5,0,0.8,0.1l-0.2,1c-0.2-0.1-0.5-0.1-0.7-0.1c-0.4,0-0.7,0.1-1.1,0.4
			c-0.3,0.2-0.6,0.6-0.9,1c-0.2,0.4-0.4,0.9-0.5,1.5l-0.7,3.2h-1.1l1.5-7h0.9l-0.1,1.3h0.1c0.3-0.4,0.6-0.7,0.8-0.9s0.4-0.3,0.6-0.4
			C200.9,82.9,201.1,82.9,201.4,82.9z"/>
		<path id="XMLID_337_" class="st1" d="M204.2,90.1c-0.6,0-1-0.2-1.4-0.6s-0.5-1-0.5-1.8c0-0.9,0.1-1.7,0.4-2.4
			c0.3-0.8,0.7-1.3,1.2-1.8c0.5-0.4,1.1-0.6,1.7-0.6c0.4,0,0.7,0.1,1,0.3c0.3,0.2,0.5,0.5,0.7,0.9h0.1L208,83h0.9l-1.5,7h-0.9
			l0.2-1.3h-0.1C205.9,89.6,205.1,90.1,204.2,90.1z M204.6,89.1c0.4,0,0.8-0.2,1.2-0.6c0.4-0.4,0.7-0.9,1-1.5
			c0.2-0.6,0.4-1.2,0.4-1.9c0-0.4-0.1-0.8-0.3-1s-0.5-0.4-0.9-0.4c-0.4,0-0.8,0.2-1.2,0.5s-0.7,0.8-0.9,1.4
			c-0.2,0.6-0.3,1.3-0.3,1.9c0,0.5,0.1,0.8,0.3,1.1S204.3,89.1,204.6,89.1z"/>
		<path id="XMLID_340_" class="st1" d="M214.9,90h-1.1l0.9-4.4c0.1-0.4,0.1-0.7,0.1-0.9c0-0.3-0.1-0.5-0.2-0.6
			c-0.1-0.2-0.4-0.2-0.7-0.2c-0.4,0-0.7,0.1-1.1,0.4s-0.7,0.6-0.9,1.1c-0.3,0.5-0.5,1-0.6,1.7l-0.6,3h-1.1l1.5-7h0.9l-0.1,1.3h0.1
			c0.3-0.4,0.5-0.6,0.8-0.8s0.5-0.3,0.7-0.4c0.3-0.1,0.5-0.2,0.8-0.2c0.5,0,1,0.1,1.3,0.4c0.3,0.3,0.5,0.7,0.5,1.3
			c0,0.3,0,0.7-0.1,1.1L214.9,90z"/>
		<path id="XMLID_342_" class="st1" d="M219.1,93.1c-0.8,0-1.5-0.1-2.1-0.4v-1.1c0.3,0.2,0.6,0.3,1,0.4c0.4,0.1,0.7,0.2,1.1,0.2
			c0.6,0,1-0.1,1.3-0.4c0.3-0.3,0.6-0.7,0.7-1.3l0.3-1.3l0.1-0.4h-0.1c-0.4,0.5-0.8,0.9-1.1,1.1c-0.4,0.2-0.8,0.3-1.2,0.3
			c-0.6,0-1.1-0.2-1.4-0.6s-0.5-1-0.5-1.8c0-0.9,0.2-1.7,0.5-2.5c0.3-0.8,0.7-1.3,1.2-1.7c0.5-0.4,1.1-0.6,1.7-0.6
			c0.8,0,1.4,0.4,1.8,1.2h0.1l0.4-1.1h0.9l-1.6,7.4c-0.2,0.9-0.6,1.6-1.1,2.1C220.6,92.9,219.9,93.1,219.1,93.1z M219.5,89.1
			c0.4,0,0.8-0.2,1.2-0.6s0.7-0.9,1-1.5s0.4-1.2,0.4-1.8c0-0.9-0.4-1.4-1.3-1.4c-0.4,0-0.8,0.2-1.2,0.5c-0.4,0.4-0.6,0.8-0.8,1.5
			c-0.2,0.6-0.3,1.3-0.3,1.9C218.4,88.7,218.8,89.1,219.5,89.1z"/>
		<path id="XMLID_345_" class="st1" d="M54.8,99.7l-0.3,0.8l-0.5,1.2l-1.8,3.9h-1.4l-0.3-7h1.1l0.1,4.4c0,0.3,0,0.8-0.1,1.6h0.1
			c0-0.1,0.2-0.4,0.3-0.8c0.2-0.4,0.3-0.8,0.5-1.1c0.1-0.3,0.8-1.7,1.9-4.1h1.2l0.2,3.7l0,1.6v0.4l0,0.3h0.1c0.2-0.7,0.6-1.5,1-2.5
			l1.5-3.4h1.2l-3.2,7H55l-0.2-3.8l0-0.9L54.8,99.7L54.8,99.7z"/>
		<path id="XMLID_347_" class="st1" d="M62.3,105.7c-0.8,0-1.4-0.2-1.9-0.7c-0.4-0.5-0.7-1.1-0.7-1.9c0-0.8,0.2-1.6,0.5-2.3
			c0.3-0.7,0.7-1.3,1.3-1.7c0.5-0.4,1.1-0.6,1.8-0.6c0.7,0,1.2,0.1,1.5,0.4c0.3,0.3,0.5,0.7,0.5,1.2c0,0.8-0.4,1.4-1.1,1.8
			c-0.7,0.4-1.7,0.7-3,0.7h-0.2l0,0.5c0,0.5,0.1,1,0.4,1.3s0.7,0.5,1.2,0.5c0.3,0,0.6,0,0.9-0.1c0.3-0.1,0.6-0.2,1-0.4v1
			c-0.4,0.2-0.8,0.3-1.1,0.4C63,105.6,62.6,105.7,62.3,105.7z M63.2,99.4c-0.4,0-0.8,0.2-1.2,0.6c-0.4,0.4-0.7,0.9-0.8,1.6h0.1
			c0.9,0,1.6-0.1,2.1-0.4c0.5-0.2,0.8-0.6,0.8-1.1c0-0.2-0.1-0.4-0.2-0.6C63.7,99.5,63.5,99.4,63.2,99.4z"/>
		<path id="XMLID_350_" class="st1" d="M69.1,105.7c-0.4,0-0.8-0.1-1.1-0.3c-0.3-0.2-0.5-0.5-0.7-0.9h-0.1l-0.4,1.1H66l2.1-9.9h1.1
			L68.7,98c-0.1,0.4-0.2,0.8-0.3,1.2c-0.1,0.4-0.2,0.6-0.2,0.7h0.1c0.4-0.5,0.8-0.9,1.2-1.1c0.4-0.2,0.7-0.3,1.1-0.3
			c0.6,0,1.1,0.2,1.4,0.6c0.3,0.4,0.5,1,0.5,1.7c0,0.9-0.1,1.7-0.4,2.4c-0.3,0.8-0.7,1.3-1.2,1.8C70.3,105.5,69.8,105.7,69.1,105.7z
			 M70.2,99.4c-0.4,0-0.8,0.2-1.2,0.6c-0.4,0.4-0.7,0.9-1,1.5c-0.2,0.6-0.4,1.2-0.4,1.8c0,0.4,0.1,0.8,0.3,1c0.2,0.2,0.6,0.4,1,0.4
			c0.4,0,0.8-0.2,1.2-0.5c0.4-0.3,0.6-0.8,0.8-1.4c0.2-0.6,0.3-1.3,0.3-1.9C71.3,99.9,71,99.4,70.2,99.4z"/>
		<path id="XMLID_353_" class="st1" d="M82.3,105.6h-1.1l0.9-4.4c0.1-0.4,0.1-0.7,0.1-0.9c0-0.3-0.1-0.5-0.2-0.6
			c-0.1-0.2-0.4-0.2-0.7-0.2c-0.4,0-0.7,0.1-1.1,0.4s-0.7,0.6-0.9,1.1c-0.3,0.5-0.5,1-0.6,1.7l-0.6,3h-1.1l1.5-7h0.9l-0.1,1.3h0.1
			c0.3-0.4,0.5-0.6,0.8-0.8s0.5-0.3,0.7-0.4c0.3-0.1,0.5-0.2,0.8-0.2c0.5,0,1,0.1,1.3,0.4c0.3,0.3,0.5,0.7,0.5,1.3
			c0,0.3,0,0.7-0.1,1.1L82.3,105.6z"/>
		<path id="XMLID_355_" class="st1" d="M86.6,105.7c-0.6,0-1-0.2-1.4-0.6s-0.5-1-0.5-1.8c0-0.9,0.1-1.7,0.4-2.4
			c0.3-0.8,0.7-1.3,1.2-1.8c0.5-0.4,1.1-0.6,1.7-0.6c0.4,0,0.7,0.1,1,0.3c0.3,0.2,0.5,0.5,0.7,0.9h0.1l0.4-1.1h0.9l-1.5,7h-0.9
			l0.2-1.3h-0.1C88.2,105.2,87.4,105.7,86.6,105.7z M86.9,104.7c0.4,0,0.8-0.2,1.2-0.6c0.4-0.4,0.7-0.9,1-1.5
			c0.2-0.6,0.4-1.2,0.4-1.9c0-0.4-0.1-0.8-0.3-1s-0.5-0.4-0.9-0.4c-0.4,0-0.8,0.2-1.2,0.5s-0.7,0.8-0.9,1.4
			c-0.2,0.6-0.3,1.3-0.3,1.9c0,0.5,0.1,0.8,0.3,1.1S86.6,104.7,86.9,104.7z M89.3,97.7h-0.7c-0.3-0.3-0.6-0.6-0.8-1
			c-0.3-0.4-0.5-0.7-0.6-0.9v-0.1h1.2c0.2,0.6,0.5,1.2,0.9,1.9V97.7z"/>
		<path id="XMLID_359_" class="st1" d="M92,98.6h1.1l0.5,3.4c0,0.3,0.1,0.7,0.1,1.2c0,0.5,0.1,1,0.1,1.4h0c0.1-0.3,0.3-0.7,0.5-1.1
			c0.2-0.5,0.4-0.8,0.5-1.1l2-3.8h1.2l-4.4,8.1c-0.4,0.7-0.8,1.2-1.2,1.5c-0.4,0.3-0.9,0.4-1.4,0.4c-0.3,0-0.6,0-0.9-0.1v-0.9
			c0.3,0.1,0.5,0.1,0.8,0.1c0.3,0,0.6-0.1,0.9-0.3s0.5-0.5,0.7-0.9l0.5-0.8L92,98.6z"/>
		<path id="XMLID_361_" class="st1" d="M104.1,105.7c-0.8,0-1.5-0.2-1.9-0.7c-0.5-0.5-0.7-1.1-0.7-1.9c0-0.9,0.2-1.6,0.5-2.4
			c0.3-0.7,0.7-1.3,1.3-1.7c0.5-0.4,1.2-0.6,1.9-0.6c0.6,0,1.2,0.1,1.7,0.3l-0.3,1c-0.5-0.2-0.9-0.3-1.4-0.3c-0.5,0-0.9,0.2-1.3,0.5
			c-0.4,0.3-0.7,0.8-0.9,1.3c-0.2,0.6-0.3,1.2-0.3,1.8c0,0.5,0.1,0.9,0.4,1.2s0.6,0.4,1.1,0.4c0.3,0,0.6,0,0.9-0.1
			c0.3-0.1,0.5-0.2,0.8-0.3v1C105.3,105.5,104.7,105.7,104.1,105.7z"/>
		<path id="XMLID_363_" class="st1" d="M113.5,101.2c0,0.8-0.2,1.6-0.5,2.3c-0.3,0.7-0.7,1.2-1.2,1.6c-0.5,0.4-1.1,0.6-1.8,0.6
			c-0.8,0-1.4-0.2-1.9-0.7c-0.5-0.5-0.7-1.1-0.7-2c0-0.8,0.2-1.6,0.5-2.3s0.7-1.3,1.3-1.6c0.5-0.4,1.1-0.6,1.8-0.6
			c0.8,0,1.4,0.2,1.9,0.7C113.2,99.7,113.5,100.4,113.5,101.2z M112.3,101.1c0-0.5-0.1-0.9-0.4-1.2s-0.6-0.4-1-0.4
			c-0.4,0-0.9,0.2-1.2,0.5c-0.4,0.3-0.6,0.7-0.8,1.3c-0.2,0.6-0.3,1.2-0.3,1.8c0,0.5,0.1,1,0.4,1.3c0.3,0.3,0.6,0.4,1.1,0.4
			c0.4,0,0.8-0.2,1.2-0.5s0.6-0.7,0.8-1.3C112.2,102.4,112.3,101.8,112.3,101.1z M110.5,97.5c0.2-0.2,0.5-0.5,0.7-0.9
			c0.3-0.4,0.5-0.7,0.7-1h1.3v0.1c-0.2,0.2-0.5,0.6-0.9,1s-0.8,0.7-1.1,1h-0.7V97.5z"/>
		<path id="XMLID_367_" class="st1" d="M121.5,98.5c0.4,0,0.7,0.1,1.1,0.3c0.3,0.2,0.6,0.5,0.7,0.9h0.1l0.1-0.6
			c0-0.2,0.1-0.7,0.3-1.4h-2.3l0.2-0.9h2.4l0.2-1.2h1.1l-0.2,1.2h0.9l-0.2,0.9h-1l-1.7,7.9h-0.9l0.1-1.3h-0.1
			c-0.4,0.5-0.8,0.9-1.2,1.1s-0.7,0.3-1.1,0.3c-0.6,0-1-0.2-1.4-0.6c-0.3-0.4-0.5-1-0.5-1.8c0-0.9,0.1-1.7,0.4-2.4s0.7-1.3,1.2-1.8
			C120.2,98.7,120.8,98.5,121.5,98.5z M120.4,104.7c0.4,0,0.8-0.2,1.2-0.6s0.7-0.9,1-1.5s0.4-1.2,0.4-1.8c0-0.5-0.1-0.8-0.3-1.1
			s-0.6-0.4-1-0.4c-0.4,0-0.8,0.2-1.2,0.5s-0.6,0.8-0.8,1.5s-0.3,1.3-0.3,1.9C119.3,104.3,119.6,104.7,120.4,104.7z"/>
		<path id="XMLID_370_" class="st1" d="M127.5,105.7c-0.6,0-1-0.2-1.4-0.6s-0.5-1-0.5-1.8c0-0.9,0.1-1.7,0.4-2.4
			c0.3-0.8,0.7-1.3,1.2-1.8c0.5-0.4,1.1-0.6,1.7-0.6c0.4,0,0.7,0.1,1,0.3c0.3,0.2,0.5,0.5,0.7,0.9h0.1l0.4-1.1h0.9l-1.5,7h-0.9
			l0.2-1.3h-0.1C129.1,105.2,128.3,105.7,127.5,105.7z M127.9,104.7c0.4,0,0.8-0.2,1.2-0.6c0.4-0.4,0.7-0.9,1-1.5
			c0.2-0.6,0.4-1.2,0.4-1.9c0-0.4-0.1-0.8-0.3-1s-0.5-0.4-0.9-0.4c-0.4,0-0.8,0.2-1.2,0.5s-0.7,0.8-0.9,1.4
			c-0.2,0.6-0.3,1.3-0.3,1.9c0,0.5,0.1,0.8,0.3,1.1S127.5,104.7,127.9,104.7z M128.8,97.5c0.2-0.2,0.5-0.5,0.7-0.9
			c0.3-0.4,0.5-0.7,0.7-1h1.3v0.1c-0.2,0.2-0.5,0.6-0.9,1c-0.4,0.4-0.8,0.7-1.1,1h-0.7V97.5z"/>
		<path id="XMLID_374_" class="st1" d="M138.1,105.6H137l0.9-4.4c0.1-0.4,0.1-0.7,0.1-0.9c0-0.3-0.1-0.5-0.2-0.6
			c-0.1-0.2-0.4-0.2-0.7-0.2c-0.4,0-0.7,0.1-1.1,0.4s-0.7,0.6-0.9,1.1c-0.3,0.5-0.5,1-0.6,1.7l-0.6,3h-1.1l1.5-7h0.9l-0.1,1.3h0.1
			c0.3-0.4,0.5-0.6,0.8-0.8s0.5-0.3,0.7-0.4c0.3-0.1,0.5-0.2,0.8-0.2c0.5,0,1,0.1,1.3,0.4c0.3,0.3,0.5,0.7,0.5,1.3
			c0,0.3,0,0.7-0.1,1.1L138.1,105.6z"/>
		<path id="XMLID_376_" class="st1" d="M142.3,108.7c-0.8,0-1.5-0.1-2.1-0.4v-1.1c0.3,0.2,0.6,0.3,1,0.4c0.4,0.1,0.7,0.2,1.1,0.2
			c0.6,0,1-0.1,1.3-0.4c0.3-0.3,0.6-0.7,0.7-1.3l0.3-1.3l0.1-0.4h-0.1c-0.4,0.5-0.8,0.9-1.1,1.1c-0.4,0.2-0.8,0.3-1.2,0.3
			c-0.6,0-1.1-0.2-1.4-0.6s-0.5-1-0.5-1.8c0-0.9,0.2-1.7,0.5-2.5c0.3-0.8,0.7-1.3,1.2-1.7c0.5-0.4,1.1-0.6,1.7-0.6
			c0.8,0,1.4,0.4,1.8,1.2h0.1l0.4-1.1h0.9l-1.6,7.4c-0.2,0.9-0.6,1.6-1.1,2.1C143.9,108.5,143.2,108.7,142.3,108.7z M142.8,104.7
			c0.4,0,0.8-0.2,1.2-0.6s0.7-0.9,1-1.5s0.4-1.2,0.4-1.8c0-0.9-0.4-1.4-1.3-1.4c-0.4,0-0.8,0.2-1.2,0.5c-0.4,0.4-0.6,0.8-0.8,1.5
			c-0.2,0.6-0.3,1.3-0.3,1.9C141.7,104.3,142.1,104.7,142.8,104.7z"/>
		<path id="XMLID_379_" class="st1" d="M153.4,104.7c0.3,0,0.6-0.1,0.9-0.2v0.9c-0.1,0.1-0.3,0.1-0.5,0.2c-0.2,0-0.4,0.1-0.6,0.1
			c-0.5,0-1-0.1-1.2-0.4s-0.4-0.6-0.4-1.1c0-0.3,0-0.6,0.1-0.9l0.8-3.8h-1.1l0.1-0.5l1.2-0.5l0.8-1.4h0.7l-0.3,1.6h1.8l-0.2,0.9
			h-1.7l-0.8,3.8c-0.1,0.3-0.1,0.6-0.1,0.8c0,0.2,0.1,0.4,0.2,0.5S153.1,104.7,153.4,104.7z"/>
		<path id="XMLID_381_" class="st1" d="M156.6,105.6h-1.1l1.5-7h1.1L156.6,105.6z M157.3,96.8c0-0.2,0.1-0.4,0.2-0.6
			s0.3-0.2,0.6-0.2c0.4,0,0.6,0.2,0.6,0.6c0,0.3-0.1,0.5-0.2,0.6c-0.1,0.2-0.3,0.2-0.5,0.2c-0.2,0-0.3-0.1-0.4-0.2
			C157.3,97.2,157.3,97,157.3,96.8z"/>
		<path id="XMLID_384_" class="st1" d="M164.2,105.6h-1.1l0.9-4.4c0.1-0.4,0.1-0.7,0.1-0.9c0-0.3-0.1-0.5-0.2-0.6
			c-0.1-0.2-0.4-0.2-0.7-0.2c-0.4,0-0.7,0.1-1.1,0.4s-0.7,0.6-0.9,1.1c-0.3,0.5-0.5,1-0.6,1.7l-0.6,3h-1.1l1.5-7h0.9l-0.1,1.3h0.1
			c0.3-0.4,0.5-0.6,0.8-0.8s0.5-0.3,0.7-0.4c0.3-0.1,0.5-0.2,0.8-0.2c0.5,0,1,0.1,1.3,0.4c0.3,0.3,0.5,0.7,0.5,1.3
			c0,0.3,0,0.7-0.1,1.1L164.2,105.6z"/>
		<path id="XMLID_386_" class="st1" d="M174.8,98.6h1.4l-3,3l1.9,4h-1.3l-1.5-3.3l-0.9,0.7l-0.5,2.5h-1.2l2.1-9.9h1.2
			c-0.4,1.7-0.7,3.1-0.9,4c-0.2,0.9-0.4,1.7-0.6,2.3h0L174.8,98.6z"/>
		<path id="XMLID_388_" class="st1" d="M181.6,105.6h-1.1l0.9-4.4c0.1-0.4,0.1-0.7,0.1-0.9c0-0.6-0.3-0.9-0.9-0.9
			c-0.4,0-0.7,0.1-1.1,0.4s-0.7,0.6-0.9,1.1s-0.5,1-0.6,1.7l-0.6,3h-1.1l2.1-9.9h1.1l-0.6,2.6c-0.1,0.3-0.1,0.5-0.2,0.8
			c-0.1,0.3-0.1,0.6-0.2,0.8h0.1c0.4-0.5,0.8-0.9,1.1-1.1c0.4-0.2,0.8-0.3,1.2-0.3c0.6,0,1,0.2,1.3,0.5s0.5,0.7,0.5,1.3
			c0,0.2,0,0.6-0.1,1.1L181.6,105.6z"/>
		<path id="XMLID_390_" class="st1" d="M190,101.2c0,0.8-0.2,1.6-0.5,2.3c-0.3,0.7-0.7,1.2-1.2,1.6c-0.5,0.4-1.1,0.6-1.8,0.6
			c-0.8,0-1.4-0.2-1.9-0.7c-0.5-0.5-0.7-1.1-0.7-2c0-0.8,0.2-1.6,0.5-2.3s0.7-1.3,1.3-1.6c0.5-0.4,1.1-0.6,1.8-0.6
			c0.8,0,1.4,0.2,1.9,0.7C189.8,99.7,190,100.4,190,101.2z M188.9,101.1c0-0.5-0.1-0.9-0.4-1.2s-0.6-0.4-1-0.4
			c-0.4,0-0.9,0.2-1.2,0.5c-0.4,0.3-0.6,0.7-0.8,1.3c-0.2,0.6-0.3,1.2-0.3,1.8c0,0.5,0.1,1,0.4,1.3c0.3,0.3,0.6,0.4,1.1,0.4
			c0.4,0,0.8-0.2,1.2-0.5s0.6-0.7,0.8-1.3C188.8,102.4,188.9,101.8,188.9,101.1z M189.7,97.7H189c-0.2-0.2-0.6-0.6-1-1.2
			c-0.5,0.5-1,0.9-1.5,1.2h-0.8v-0.2c1-0.9,1.6-1.6,1.8-1.9h1.1c0.1,0.4,0.4,0.9,0.8,1.5l0.3,0.4V97.7z"/>
		<path id="XMLID_394_" class="st1" d="M196.4,105.6h-1.1l0.9-4.4c0.1-0.4,0.1-0.7,0.1-0.9c0-0.3-0.1-0.5-0.2-0.6
			c-0.1-0.2-0.4-0.2-0.7-0.2c-0.4,0-0.7,0.1-1.1,0.4s-0.7,0.6-0.9,1.1c-0.3,0.5-0.5,1-0.6,1.7l-0.6,3H191l1.5-7h0.9l-0.1,1.3h0.1
			c0.3-0.4,0.5-0.6,0.8-0.8s0.5-0.3,0.7-0.4c0.3-0.1,0.5-0.2,0.8-0.2c0.5,0,1,0.1,1.3,0.4c0.3,0.3,0.5,0.7,0.5,1.3
			c0,0.3,0,0.7-0.1,1.1L196.4,105.6z"/>
		<path id="XMLID_396_" class="st1" d="M200.6,108.7c-0.8,0-1.5-0.1-2.1-0.4v-1.1c0.3,0.2,0.6,0.3,1,0.4c0.4,0.1,0.7,0.2,1.1,0.2
			c0.6,0,1-0.1,1.3-0.4c0.3-0.3,0.6-0.7,0.7-1.3l0.3-1.3l0.1-0.4H203c-0.4,0.5-0.8,0.9-1.1,1.1c-0.4,0.2-0.8,0.3-1.2,0.3
			c-0.6,0-1.1-0.2-1.4-0.6s-0.5-1-0.5-1.8c0-0.9,0.2-1.7,0.5-2.5c0.3-0.8,0.7-1.3,1.2-1.7c0.5-0.4,1.1-0.6,1.7-0.6
			c0.8,0,1.4,0.4,1.8,1.2h0.1l0.4-1.1h0.9l-1.6,7.4c-0.2,0.9-0.6,1.6-1.1,2.1C202.2,108.5,201.5,108.7,200.6,108.7z M201.1,104.7
			c0.4,0,0.8-0.2,1.2-0.6s0.7-0.9,1-1.5s0.4-1.2,0.4-1.8c0-0.9-0.4-1.4-1.3-1.4c-0.4,0-0.8,0.2-1.2,0.5c-0.4,0.4-0.6,0.8-0.8,1.5
			c-0.2,0.6-0.3,1.3-0.3,1.9C200,104.3,200.3,104.7,201.1,104.7z"/>
		<path id="XMLID_399_" class="st1" d="M52.1,120.3c0.5-1.1,0.8-1.8,1.1-2.3l2-3.8h1.2l-3.8,7h-1.5l-0.8-7h1.1l0.4,3.9
			c0,0.4,0.1,0.8,0.1,1.3C52,119.8,52,120.1,52.1,120.3L52.1,120.3z"/>
		<path id="XMLID_401_" class="st1" d="M58.3,121.3c-0.6,0-1-0.2-1.4-0.6s-0.5-1-0.5-1.8c0-0.9,0.1-1.7,0.4-2.4
			c0.3-0.8,0.7-1.3,1.2-1.8c0.5-0.4,1.1-0.6,1.7-0.6c0.4,0,0.7,0.1,1,0.3c0.3,0.2,0.5,0.5,0.7,0.9h0.1l0.4-1.1h0.9l-1.5,7h-0.9
			l0.2-1.3h-0.1C59.9,120.8,59.1,121.3,58.3,121.3z M58.7,120.3c0.4,0,0.8-0.2,1.2-0.6c0.4-0.4,0.7-0.9,1-1.5
			c0.2-0.6,0.4-1.2,0.4-1.9c0-0.4-0.1-0.8-0.3-1s-0.5-0.4-0.9-0.4c-0.4,0-0.8,0.2-1.2,0.5s-0.7,0.8-0.9,1.4
			c-0.2,0.6-0.3,1.3-0.3,1.9c0,0.5,0.1,0.8,0.3,1.1S58.3,120.3,58.7,120.3z M57.8,122.8c0-0.2,0.1-0.4,0.2-0.6
			c0.1-0.2,0.3-0.2,0.5-0.2c0.2,0,0.4,0.1,0.4,0.2c0.1,0.1,0.1,0.3,0.1,0.4c0,0.2-0.1,0.5-0.2,0.6c-0.1,0.2-0.3,0.2-0.5,0.2
			c-0.2,0-0.3-0.1-0.4-0.2S57.8,123,57.8,122.8z M62.2,113.3h-0.7c-0.2-0.2-0.6-0.6-1-1.2c-0.5,0.5-1,0.9-1.5,1.2h-0.8v-0.2
			c1-0.9,1.6-1.6,1.8-1.9h1.1c0.1,0.4,0.4,0.9,0.8,1.5l0.3,0.4V113.3z"/>
		<path id="XMLID_406_" class="st1" d="M63.8,114.2h1.1l0.5,3.4c0,0.3,0.1,0.7,0.1,1.2c0,0.5,0.1,1,0.1,1.4h0
			c0.1-0.3,0.3-0.7,0.5-1.1c0.2-0.5,0.4-0.8,0.5-1.1l2-3.8h1.2l-4.4,8.1c-0.4,0.7-0.8,1.2-1.2,1.5c-0.4,0.3-0.9,0.4-1.4,0.4
			c-0.3,0-0.6,0-0.9-0.1v-0.9c0.3,0.1,0.5,0.1,0.8,0.1c0.3,0,0.6-0.1,0.9-0.3s0.5-0.5,0.7-0.9l0.5-0.8L63.8,114.2z"/>
		<path id="XMLID_408_" class="st1" d="M70.2,120.7c0-0.3,0.1-0.6,0.3-0.8c0.2-0.2,0.4-0.3,0.7-0.3c0.2,0,0.3,0.1,0.5,0.2
			s0.2,0.3,0.2,0.5c0,0.3-0.1,0.6-0.3,0.8c-0.2,0.2-0.4,0.3-0.7,0.3c-0.2,0-0.4-0.1-0.5-0.2C70.3,121,70.2,120.9,70.2,120.7z
			 M70.9,118.5c0.1-0.6,0.3-1,0.5-1.4c0.2-0.4,0.6-0.7,1-1.1c0.5-0.4,0.8-0.7,1-0.9c0.2-0.2,0.3-0.4,0.4-0.6
			c0.1-0.2,0.1-0.4,0.1-0.7c0-0.4-0.1-0.7-0.3-0.9c-0.2-0.2-0.5-0.3-0.9-0.3c-0.3,0-0.7,0.1-1,0.2c-0.3,0.1-0.6,0.2-0.9,0.4
			l-0.4-0.9c0.4-0.2,0.8-0.4,1.2-0.5s0.8-0.2,1.2-0.2c0.7,0,1.3,0.2,1.7,0.5s0.6,0.9,0.6,1.5c0,0.5-0.1,1-0.4,1.4s-0.8,0.9-1.5,1.4
			c-0.5,0.4-0.9,0.7-1.1,0.9c-0.2,0.2-0.3,0.6-0.4,1H70.9z"/>
		<path id="XMLID_411_" class="st1" d="M85.1,121.2H84l0.9-4.3h-4.1l-0.9,4.3h-1.2l2-9.3h1.2l-0.8,3.9h4.1l0.8-3.9h1.1L85.1,121.2z"
			/>
		<path id="XMLID_413_" class="st1" d="M88.6,121.2h-1.1l1.5-7H90L88.6,121.2z M90.2,113.3h-0.7c-0.3-0.3-0.6-0.6-0.8-1
			c-0.3-0.4-0.5-0.7-0.6-0.9v-0.1h1.2c0.2,0.6,0.5,1.2,0.9,1.9V113.3z"/>
		<path id="XMLID_416_" class="st1" d="M96.1,121.2H95l0.9-4.4c0.1-0.4,0.1-0.7,0.1-0.9c0-0.3-0.1-0.5-0.2-0.6
			c-0.1-0.2-0.4-0.2-0.7-0.2c-0.4,0-0.7,0.1-1.1,0.4s-0.7,0.6-0.9,1.1c-0.3,0.5-0.5,1-0.6,1.7l-0.6,3h-1.1l1.5-7h0.9l-0.1,1.3h0.1
			c0.3-0.4,0.5-0.6,0.8-0.8s0.5-0.3,0.7-0.4c0.3-0.1,0.5-0.2,0.8-0.2c0.5,0,1,0.1,1.3,0.4c0.3,0.3,0.5,0.7,0.5,1.3
			c0,0.3,0,0.7-0.1,1.1L96.1,121.2z"/>
		<path id="XMLID_418_" class="st1" d="M103.7,121.2h-1.1l0.9-4.4c0.1-0.4,0.1-0.7,0.1-0.9c0-0.6-0.3-0.9-0.9-0.9
			c-0.4,0-0.7,0.1-1.1,0.4s-0.7,0.6-0.9,1.1s-0.5,1-0.6,1.7l-0.6,3h-1.1l2.1-9.9h1.1l-0.6,2.6c-0.1,0.3-0.1,0.5-0.2,0.8
			s-0.1,0.6-0.2,0.8h0.1c0.4-0.5,0.8-0.9,1.1-1.1c0.4-0.2,0.8-0.3,1.2-0.3c0.6,0,1,0.2,1.3,0.5s0.5,0.7,0.5,1.3c0,0.2,0,0.6-0.1,1.1
			L103.7,121.2z"/>
		<path id="XMLID_420_" class="st1" d="M114.6,121.2h-1.1l0.9-4.4c0.1-0.4,0.1-0.7,0.1-0.9c0-0.3-0.1-0.5-0.2-0.6
			c-0.1-0.2-0.4-0.2-0.7-0.2c-0.4,0-0.7,0.1-1.1,0.4s-0.7,0.6-0.9,1.1c-0.3,0.5-0.5,1-0.6,1.7l-0.6,3h-1.1l1.5-7h0.9l-0.1,1.3h0.1
			c0.3-0.4,0.5-0.6,0.8-0.8s0.5-0.3,0.7-0.4c0.3-0.1,0.5-0.2,0.8-0.2c0.5,0,1,0.1,1.3,0.4c0.3,0.3,0.5,0.7,0.5,1.3
			c0,0.3,0,0.7-0.1,1.1L114.6,121.2z"/>
		<path id="XMLID_422_" class="st1" d="M122.1,121.2H121l0.9-4.4c0.1-0.4,0.1-0.7,0.1-0.9c0-0.6-0.3-0.9-0.9-0.9
			c-0.4,0-0.7,0.1-1.1,0.4s-0.7,0.6-0.9,1.1s-0.5,1-0.6,1.7l-0.6,3h-1.1l2.1-9.9h1.1l-0.6,2.6c-0.1,0.3-0.1,0.5-0.2,0.8
			s-0.1,0.6-0.2,0.8h0.1c0.4-0.5,0.8-0.9,1.1-1.1c0.4-0.2,0.8-0.3,1.2-0.3c0.6,0,1,0.2,1.3,0.5s0.5,0.7,0.5,1.3c0,0.2,0,0.6-0.1,1.1
			L122.1,121.2z"/>
		<path id="XMLID_424_" class="st1" d="M126.8,114.2l-0.9,4.4c-0.1,0.4-0.1,0.7-0.1,0.9c0,0.6,0.3,0.9,0.9,0.9
			c0.4,0,0.7-0.1,1.1-0.4s0.7-0.6,0.9-1.1c0.3-0.5,0.5-1,0.6-1.7l0.6-3h1.1l-0.2,0.8c0.3-0.1,0.6-0.2,0.9-0.5s0.4-0.7,0.5-1.3h1.2
			l0.1,0.1c-0.1,0.7-0.5,1.2-0.9,1.6s-1.1,0.7-1.8,0.9l-1.1,5.4h-0.9l0.1-1.3h-0.1c-0.4,0.5-0.8,0.9-1.1,1.1
			c-0.4,0.2-0.8,0.3-1.2,0.3c-0.6,0-1-0.2-1.3-0.5s-0.5-0.7-0.5-1.3c0-0.2,0-0.6,0.1-1.1l0.9-4.3H126.8z"/>
		<path id="XMLID_426_" class="st1" d="M140.1,119.1c0,0.7-0.2,1.2-0.7,1.6c-0.5,0.4-1.1,0.6-2,0.6c-0.8,0-1.4-0.1-1.9-0.4v-1.1
			c0.3,0.2,0.6,0.3,0.9,0.4c0.3,0.1,0.7,0.2,1,0.2c0.5,0,0.9-0.1,1.2-0.3s0.4-0.5,0.4-0.8c0-0.2-0.1-0.4-0.2-0.6
			c-0.1-0.2-0.5-0.4-0.9-0.7c-0.5-0.3-0.9-0.6-1.2-0.9s-0.3-0.7-0.3-1.1c0-0.6,0.2-1.1,0.6-1.4c0.4-0.4,1-0.5,1.7-0.5
			c0.7,0,1.4,0.2,2.1,0.5l-0.4,0.9c-0.2-0.1-0.5-0.2-0.8-0.3s-0.6-0.1-1-0.1c-0.4,0-0.7,0.1-0.9,0.3c-0.2,0.2-0.3,0.4-0.3,0.7
			c0,0.2,0.1,0.4,0.2,0.6s0.5,0.4,0.9,0.6c0.5,0.3,0.8,0.5,1,0.7s0.3,0.4,0.4,0.6C140.1,118.6,140.1,118.9,140.1,119.1z"/>
		<path id="XMLID_428_" class="st1" d="M143.9,114.2l-0.9,4.4c-0.1,0.4-0.1,0.7-0.1,0.9c0,0.6,0.3,0.9,0.9,0.9
			c0.4,0,0.7-0.1,1.1-0.4s0.7-0.6,0.9-1.1c0.3-0.5,0.5-1,0.6-1.7l0.6-3h1.1L148,115c0.3-0.1,0.6-0.2,0.9-0.5s0.4-0.7,0.5-1.3h1.2
			l0.1,0.1c-0.1,0.7-0.5,1.2-0.9,1.6s-1.1,0.7-1.8,0.9l-1.1,5.4h-0.9l0.1-1.3h-0.1c-0.4,0.5-0.8,0.9-1.1,1.1
			c-0.4,0.2-0.8,0.3-1.2,0.3c-0.6,0-1-0.2-1.3-0.5s-0.5-0.7-0.5-1.3c0-0.2,0-0.6,0.1-1.1l0.9-4.3H143.9z M143.4,122.8
			c0-0.2,0.1-0.4,0.2-0.6c0.1-0.2,0.3-0.2,0.5-0.2c0.2,0,0.4,0.1,0.4,0.2c0.1,0.1,0.1,0.3,0.1,0.4c0,0.2-0.1,0.5-0.2,0.6
			c-0.1,0.2-0.3,0.2-0.5,0.2c-0.2,0-0.3-0.1-0.4-0.2C143.4,123.2,143.4,123,143.4,122.8z"/>
		<path id="XMLID_431_" class="st1" d="M155,121.3c-0.6,0-1-0.2-1.4-0.6s-0.5-1-0.5-1.8c0-0.9,0.1-1.7,0.4-2.4
			c0.3-0.8,0.7-1.3,1.2-1.8c0.5-0.4,1.1-0.6,1.7-0.6c0.4,0,0.7,0.1,1,0.3c0.3,0.2,0.5,0.5,0.7,0.9h0.1l0.4-1.1h0.9l-1.5,7h-0.9
			l0.2-1.3h-0.1C156.7,120.8,155.9,121.3,155,121.3z M155.4,120.3c0.4,0,0.8-0.2,1.2-0.6c0.4-0.4,0.7-0.9,1-1.5
			c0.2-0.6,0.4-1.2,0.4-1.9c0-0.4-0.1-0.8-0.3-1s-0.5-0.4-0.9-0.4c-0.4,0-0.8,0.2-1.2,0.5s-0.7,0.8-0.9,1.4
			c-0.2,0.6-0.3,1.3-0.3,1.9c0,0.5,0.1,0.8,0.3,1.1S155.1,120.3,155.4,120.3z"/>
		<path id="XMLID_434_" class="st1" d="M165.7,121.2h-1.1l0.9-4.4c0.1-0.4,0.1-0.7,0.1-0.9c0-0.3-0.1-0.5-0.2-0.6
			c-0.1-0.2-0.4-0.2-0.7-0.2c-0.4,0-0.7,0.1-1.1,0.4s-0.7,0.6-0.9,1.1c-0.3,0.5-0.5,1-0.6,1.7l-0.6,3h-1.1l1.5-7h0.9l-0.1,1.3h0.1
			c0.3-0.4,0.5-0.6,0.8-0.8s0.5-0.3,0.7-0.4c0.3-0.1,0.5-0.2,0.8-0.2c0.5,0,1,0.1,1.3,0.4c0.3,0.3,0.5,0.7,0.5,1.3
			c0,0.3,0,0.7-0.1,1.1L165.7,121.2z"/>
		<path id="XMLID_436_" class="st1" d="M173.4,120.3c0.3,0,0.6-0.1,0.9-0.2v0.9c-0.1,0.1-0.3,0.1-0.5,0.2c-0.2,0-0.4,0.1-0.6,0.1
			c-0.5,0-1-0.1-1.2-0.4s-0.4-0.6-0.4-1.1c0-0.3,0-0.6,0.1-0.9l0.8-3.8h-1.1l0.1-0.5l1.2-0.5l0.8-1.4h0.7l-0.3,1.6h1.8l-0.2,0.9
			h-1.7l-0.8,3.8c-0.1,0.3-0.1,0.6-0.1,0.8c0,0.2,0.1,0.4,0.2,0.5S173.2,120.3,173.4,120.3z"/>
		<path id="XMLID_438_" class="st1" d="M181.9,116.8c0,0.8-0.2,1.6-0.5,2.3c-0.3,0.7-0.7,1.2-1.2,1.6c-0.5,0.4-1.1,0.6-1.8,0.6
			c-0.8,0-1.4-0.2-1.9-0.7c-0.5-0.5-0.7-1.1-0.7-2c0-0.8,0.2-1.6,0.5-2.3s0.7-1.3,1.3-1.6c0.5-0.4,1.1-0.6,1.8-0.6
			c0.8,0,1.4,0.2,1.9,0.7C181.6,115.3,181.9,116,181.9,116.8z M180.7,116.7c0-0.5-0.1-0.9-0.4-1.2s-0.6-0.4-1-0.4
			c-0.4,0-0.9,0.2-1.2,0.5c-0.4,0.3-0.6,0.7-0.8,1.3c-0.2,0.6-0.3,1.2-0.3,1.8c0,0.5,0.1,1,0.4,1.3c0.3,0.3,0.6,0.4,1.1,0.4
			c0.4,0,0.8-0.2,1.2-0.5s0.6-0.7,0.8-1.3C180.6,118,180.7,117.4,180.7,116.7z"/>
		<path id="XMLID_441_" class="st1" d="M185,121.3c-0.6,0-1-0.2-1.4-0.6s-0.5-1-0.5-1.8c0-0.9,0.1-1.7,0.4-2.4
			c0.3-0.8,0.7-1.3,1.2-1.8c0.5-0.4,1.1-0.6,1.7-0.6c0.4,0,0.7,0.1,1,0.3c0.3,0.2,0.5,0.5,0.7,0.9h0.1l0.4-1.1h0.9l-1.5,7h-0.9
			l0.2-1.3h-0.1C186.6,120.8,185.8,121.3,185,121.3z M185.4,120.3c0.4,0,0.8-0.2,1.2-0.6c0.4-0.4,0.7-0.9,1-1.5
			c0.2-0.6,0.4-1.2,0.4-1.9c0-0.4-0.1-0.8-0.3-1s-0.5-0.4-0.9-0.4c-0.4,0-0.8,0.2-1.2,0.5s-0.7,0.8-0.9,1.4
			c-0.2,0.6-0.3,1.3-0.3,1.9c0,0.5,0.1,0.8,0.3,1.1S185,120.3,185.4,120.3z M187.7,113.3H187c-0.3-0.3-0.6-0.6-0.8-1
			c-0.3-0.4-0.5-0.7-0.6-0.9v-0.1h1.2c0.2,0.6,0.5,1.2,0.9,1.9V113.3z"/>
		<path id="XMLID_445_" class="st1" d="M195.6,121.2h-1.1l0.9-4.4c0.1-0.4,0.1-0.7,0.1-0.9c0-0.3-0.1-0.5-0.2-0.6
			c-0.1-0.2-0.4-0.2-0.7-0.2c-0.4,0-0.7,0.1-1.1,0.4s-0.7,0.6-0.9,1.1c-0.3,0.5-0.5,1-0.6,1.7l-0.6,3h-1.1l1.5-7h0.9l-0.1,1.3h0.1
			c0.3-0.4,0.5-0.6,0.8-0.8s0.5-0.3,0.7-0.4c0.3-0.1,0.5-0.2,0.8-0.2c0.5,0,1,0.1,1.3,0.4c0.3,0.3,0.5,0.7,0.5,1.3
			c0,0.3,0,0.7-0.1,1.1L195.6,121.2z"/>
		<path id="XMLID_447_" class="st1" d="M204,121.3c-0.8,0-1.5-0.2-1.9-0.7c-0.5-0.5-0.7-1.1-0.7-1.9c0-0.9,0.2-1.6,0.5-2.4
			c0.3-0.7,0.7-1.3,1.3-1.7c0.5-0.4,1.2-0.6,1.9-0.6c0.6,0,1.2,0.1,1.7,0.3l-0.3,1c-0.5-0.2-0.9-0.3-1.4-0.3c-0.5,0-0.9,0.2-1.3,0.5
			c-0.4,0.3-0.7,0.8-0.9,1.3c-0.2,0.6-0.3,1.2-0.3,1.8c0,0.5,0.1,0.9,0.4,1.2s0.6,0.4,1.1,0.4c0.3,0,0.6,0,0.9-0.1
			c0.3-0.1,0.5-0.2,0.8-0.3v1C205.2,121.1,204.6,121.3,204,121.3z"/>
		<path id="XMLID_449_" class="st1" d="M208.4,114.2h1.2l-0.9,4.4c-0.1,0.4-0.1,0.7-0.1,0.9c0,0.6,0.3,0.9,0.9,0.9
			c0.4,0,0.7-0.1,1.1-0.4s0.7-0.6,0.9-1.1c0.3-0.5,0.5-1,0.6-1.7l0.6-3h1.1l-1.5,7h-0.9l0.1-1.3h-0.1c-0.4,0.5-0.8,0.9-1.1,1.1
			c-0.4,0.2-0.8,0.3-1.2,0.3c-0.5,0-1-0.2-1.3-0.5s-0.5-0.7-0.5-1.3c0-0.3,0-0.6,0.1-1.1L208.4,114.2z M212.9,111.5
			c0,0.4-0.1,0.6-0.4,0.8s-0.6,0.4-1,0.4l-0.2,0.7h-0.7l0.1-1.1c0.4-0.1,0.7-0.1,0.9-0.3c0.2-0.1,0.3-0.3,0.3-0.5
			c0-0.2-0.1-0.3-0.2-0.3s-0.3-0.1-0.5-0.1c-0.1,0-0.3,0-0.6,0.1v-0.7c0.2-0.1,0.4-0.1,0.8-0.1c0.5,0,0.8,0.1,1.1,0.3
			C212.8,110.9,212.9,111.2,212.9,111.5z"/>
		<path id="XMLID_452_" class="st1" d="M216.7,121.3c-0.6,0-1-0.2-1.4-0.6s-0.5-1-0.5-1.8c0-0.9,0.1-1.7,0.4-2.4
			c0.3-0.8,0.7-1.3,1.2-1.8c0.5-0.4,1.1-0.6,1.7-0.6c0.4,0,0.7,0.1,1,0.3c0.3,0.2,0.5,0.5,0.7,0.9h0.1l0.4-1.1h0.9l-1.5,7h-0.9
			l0.2-1.3H219C218.3,120.8,217.5,121.3,216.7,121.3z M217.1,120.3c0.4,0,0.8-0.2,1.2-0.6c0.4-0.4,0.7-0.9,1-1.5
			c0.2-0.6,0.4-1.2,0.4-1.9c0-0.4-0.1-0.8-0.3-1s-0.5-0.4-0.9-0.4c-0.4,0-0.8,0.2-1.2,0.5s-0.7,0.8-0.9,1.4
			c-0.2,0.6-0.3,1.3-0.3,1.9c0,0.5,0.1,0.8,0.3,1.1S216.7,120.3,217.1,120.3z"/>
		<path id="XMLID_455_" class="st1" d="M54.7,129.7c0.5,0,0.8,0.1,1.1,0.4c0.3,0.3,0.4,0.7,0.5,1.1h0.1c0.7-1,1.5-1.5,2.4-1.5
			c0.5,0,1,0.1,1.3,0.4s0.4,0.7,0.4,1.3c0,0.4,0,0.8-0.1,1.1l-0.9,4.2h-1.2l0.9-4.4c0.1-0.4,0.1-0.7,0.1-0.9c0-0.3-0.1-0.5-0.2-0.6
			s-0.4-0.2-0.7-0.2c-0.3,0-0.7,0.1-1,0.4s-0.6,0.6-0.9,1c-0.3,0.5-0.4,1-0.6,1.6l-0.7,3.1h-1.1l0.9-4.4c0.1-0.4,0.1-0.7,0.1-0.9
			c0-0.6-0.3-0.9-0.8-0.9c-0.3,0-0.7,0.1-1,0.4s-0.6,0.6-0.9,1.1s-0.4,1-0.6,1.7l-0.6,3h-1.1l1.5-7h0.9l-0.1,1.3h0.1
			c0.3-0.4,0.5-0.7,0.7-0.8c0.2-0.2,0.4-0.3,0.7-0.4C54.1,129.7,54.4,129.7,54.7,129.7z"/>
		<path id="XMLID_457_" class="st1" d="M62.6,136.8h-1.1l1.5-7h1.1L62.6,136.8z M64.3,128.9h-0.7c-0.3-0.3-0.6-0.6-0.8-1
			c-0.3-0.4-0.5-0.7-0.6-0.9v-0.1h1.2c0.2,0.6,0.5,1.2,0.9,1.9V128.9z"/>
		<path id="XMLID_460_" class="st1" d="M70.2,136.8H69l0.9-4.4c0.1-0.4,0.1-0.7,0.1-0.9c0-0.3-0.1-0.5-0.2-0.6
			c-0.1-0.2-0.4-0.2-0.7-0.2c-0.4,0-0.7,0.1-1.1,0.4s-0.7,0.6-0.9,1.1c-0.3,0.5-0.5,1-0.6,1.7l-0.6,3h-1.1l1.5-7h0.9l-0.1,1.3h0.1
			c0.3-0.4,0.5-0.6,0.8-0.8s0.5-0.3,0.7-0.4c0.3-0.1,0.5-0.2,0.8-0.2c0.5,0,1,0.1,1.3,0.4c0.3,0.3,0.5,0.7,0.5,1.3
			c0,0.3,0,0.7-0.1,1.1L70.2,136.8z"/>
		<path id="XMLID_462_" class="st1" d="M77.7,136.8h-1.1l0.9-4.4c0.1-0.4,0.1-0.7,0.1-0.9c0-0.6-0.3-0.9-0.9-0.9
			c-0.4,0-0.7,0.1-1.1,0.4s-0.7,0.6-0.9,1.1s-0.5,1-0.6,1.7l-0.6,3h-1.1l2.1-9.9h1.1l-0.6,2.6c-0.1,0.3-0.1,0.5-0.2,0.8
			s-0.1,0.6-0.2,0.8h0.1c0.4-0.5,0.8-0.9,1.1-1.1c0.4-0.2,0.8-0.3,1.2-0.3c0.6,0,1,0.2,1.3,0.5s0.5,0.7,0.5,1.3c0,0.2,0,0.6-0.1,1.1
			L77.7,136.8z"/>
		<path id="XMLID_464_" class="st1" d="M86.9,129.7c0.4,0,0.7,0.1,1.1,0.3c0.3,0.2,0.6,0.5,0.7,0.9h0.1l0.1-0.6
			c0-0.2,0.1-0.7,0.3-1.4h-2.3l0.2-0.9h2.4l0.2-1.2h1.1l-0.2,1.2h0.9l-0.2,0.9h-1l-1.7,7.9h-0.9l0.1-1.3h-0.1
			c-0.4,0.5-0.8,0.9-1.2,1.1s-0.7,0.3-1.1,0.3c-0.6,0-1-0.2-1.4-0.6c-0.3-0.4-0.5-1-0.5-1.8c0-0.9,0.1-1.7,0.4-2.4s0.7-1.3,1.2-1.8
			C85.7,129.9,86.2,129.7,86.9,129.7z M85.8,135.9c0.4,0,0.8-0.2,1.2-0.6s0.7-0.9,1-1.5s0.4-1.2,0.4-1.8c0-0.5-0.1-0.8-0.3-1.1
			s-0.6-0.4-1-0.4c-0.4,0-0.8,0.2-1.2,0.5s-0.6,0.8-0.8,1.5s-0.3,1.3-0.3,1.9C84.7,135.5,85,135.9,85.8,135.9z"/>
		<path id="XMLID_467_" class="st1" d="M92.9,136.9c-0.6,0-1-0.2-1.4-0.6s-0.5-1-0.5-1.8c0-0.9,0.1-1.7,0.4-2.4
			c0.3-0.8,0.7-1.3,1.2-1.8c0.5-0.4,1.1-0.6,1.7-0.6c0.4,0,0.7,0.1,1,0.3c0.3,0.2,0.5,0.5,0.7,0.9h0.1l0.4-1.1h0.9l-1.5,7h-0.9
			l0.2-1.3h-0.1C94.6,136.4,93.8,136.9,92.9,136.9z M93.3,135.9c0.4,0,0.8-0.2,1.2-0.6c0.4-0.4,0.7-0.9,1-1.5
			c0.2-0.6,0.4-1.2,0.4-1.9c0-0.4-0.1-0.8-0.3-1s-0.5-0.4-0.9-0.4c-0.4,0-0.8,0.2-1.2,0.5s-0.7,0.8-0.9,1.4
			c-0.2,0.6-0.3,1.3-0.3,1.9c0,0.5,0.1,0.8,0.3,1.1S92.9,135.9,93.3,135.9z"/>
		<path id="XMLID_470_" class="st1" d="M103.5,136.8h-1.1l0.9-4.4c0.1-0.4,0.1-0.7,0.1-0.9c0-0.3-0.1-0.5-0.2-0.6
			c-0.1-0.2-0.4-0.2-0.7-0.2c-0.4,0-0.7,0.1-1.1,0.4s-0.7,0.6-0.9,1.1c-0.3,0.5-0.5,1-0.6,1.7l-0.6,3h-1.1l1.5-7h0.9l-0.1,1.3h0.1
			c0.3-0.4,0.5-0.6,0.8-0.8s0.5-0.3,0.7-0.4c0.3-0.1,0.5-0.2,0.8-0.2c0.5,0,1,0.1,1.3,0.4c0.3,0.3,0.5,0.7,0.5,1.3
			c0,0.3,0,0.7-0.1,1.1L103.5,136.8z"/>
		<path id="XMLID_472_" class="st1" d="M107.7,139.9c-0.8,0-1.5-0.1-2.1-0.4v-1.1c0.3,0.2,0.6,0.3,1,0.4c0.4,0.1,0.7,0.2,1.1,0.2
			c0.6,0,1-0.1,1.3-0.4c0.3-0.3,0.6-0.7,0.7-1.3l0.3-1.3l0.1-0.4h-0.1c-0.4,0.5-0.8,0.9-1.1,1.1c-0.4,0.2-0.8,0.3-1.2,0.3
			c-0.6,0-1.1-0.2-1.4-0.6s-0.5-1-0.5-1.8c0-0.9,0.2-1.7,0.5-2.5c0.3-0.8,0.7-1.3,1.2-1.7c0.5-0.4,1.1-0.6,1.7-0.6
			c0.8,0,1.4,0.4,1.8,1.2h0.1l0.4-1.1h0.9l-1.6,7.4c-0.2,0.9-0.6,1.6-1.1,2.1C109.3,139.7,108.6,139.9,107.7,139.9z M108.2,135.9
			c0.4,0,0.8-0.2,1.2-0.6s0.7-0.9,1-1.5s0.4-1.2,0.4-1.8c0-0.9-0.4-1.4-1.3-1.4c-0.4,0-0.8,0.2-1.2,0.5c-0.4,0.4-0.6,0.8-0.8,1.5
			c-0.2,0.6-0.3,1.3-0.3,1.9C107.1,135.5,107.5,135.9,108.2,135.9z"/>
		<path id="XMLID_475_" class="st1" d="M119.7,136.9c-0.4,0-0.8-0.1-1.1-0.3c-0.3-0.2-0.5-0.5-0.7-0.9h-0.1l-0.4,1.1h-0.9l2.1-9.9
			h1.1l-0.5,2.3c-0.1,0.4-0.2,0.8-0.3,1.2s-0.2,0.6-0.2,0.7h0.1c0.4-0.5,0.8-0.9,1.2-1.1c0.4-0.2,0.7-0.3,1.1-0.3
			c0.6,0,1.1,0.2,1.4,0.6c0.3,0.4,0.5,1,0.5,1.7c0,0.9-0.1,1.7-0.4,2.4c-0.3,0.8-0.7,1.3-1.2,1.8C121,136.7,120.4,136.9,119.7,136.9
			z M120.8,130.6c-0.4,0-0.8,0.2-1.2,0.6c-0.4,0.4-0.7,0.9-1,1.5c-0.2,0.6-0.4,1.2-0.4,1.8c0,0.4,0.1,0.8,0.3,1
			c0.2,0.2,0.6,0.4,1,0.4c0.4,0,0.8-0.2,1.2-0.5c0.4-0.3,0.6-0.8,0.8-1.4c0.2-0.6,0.3-1.3,0.3-1.9
			C121.9,131.1,121.6,130.6,120.8,130.6z"/>
		<path id="XMLID_478_" class="st1" d="M123.7,138.4c0-0.2,0.1-0.4,0.2-0.6c0.1-0.2,0.3-0.2,0.5-0.2c0.2,0,0.4,0.1,0.4,0.2
			c0.1,0.1,0.1,0.3,0.1,0.4c0,0.2-0.1,0.5-0.2,0.6c-0.1,0.2-0.3,0.2-0.5,0.2c-0.2,0-0.3-0.1-0.4-0.2S123.7,138.6,123.7,138.4z
			 M125.3,136.8h-1.1l1.5-7h1.1L125.3,136.8z M125.9,128c0-0.2,0.1-0.4,0.2-0.6s0.3-0.2,0.6-0.2c0.4,0,0.6,0.2,0.6,0.6
			c0,0.3-0.1,0.5-0.2,0.6c-0.1,0.2-0.3,0.2-0.5,0.2c-0.2,0-0.3-0.1-0.4-0.2C126,128.4,125.9,128.2,125.9,128z"/>
		<path id="XMLID_482_" class="st1" d="M134.5,129.7c0.4,0,0.7,0.1,1.1,0.3c0.3,0.2,0.6,0.5,0.7,0.9h0.1l0.1-0.6
			c0-0.2,0.1-0.7,0.3-1.4h-2.3l0.2-0.9h2.4l0.2-1.2h1.1L138,128h0.9l-0.2,0.9h-1l-1.7,7.9h-0.9l0.1-1.3h-0.1
			c-0.4,0.5-0.8,0.9-1.2,1.1s-0.7,0.3-1.1,0.3c-0.6,0-1-0.2-1.4-0.6c-0.3-0.4-0.5-1-0.5-1.8c0-0.9,0.1-1.7,0.4-2.4s0.7-1.3,1.2-1.8
			C133.3,129.9,133.8,129.7,134.5,129.7z M133.4,135.9c0.4,0,0.8-0.2,1.2-0.6s0.7-0.9,1-1.5s0.4-1.2,0.4-1.8c0-0.5-0.1-0.8-0.3-1.1
			s-0.6-0.4-1-0.4c-0.4,0-0.8,0.2-1.2,0.5s-0.6,0.8-0.8,1.5s-0.3,1.3-0.3,1.9C132.3,135.5,132.6,135.9,133.4,135.9z"/>
		<path id="XMLID_485_" class="st1" d="M141.2,136.9c-0.8,0-1.4-0.2-1.9-0.7c-0.4-0.5-0.7-1.1-0.7-1.9c0-0.8,0.2-1.6,0.5-2.3
			c0.3-0.7,0.7-1.3,1.3-1.7c0.5-0.4,1.1-0.6,1.8-0.6c0.7,0,1.2,0.1,1.5,0.4c0.3,0.3,0.5,0.7,0.5,1.2c0,0.8-0.4,1.4-1.1,1.8
			s-1.7,0.7-3,0.7h-0.2l0,0.5c0,0.5,0.1,1,0.4,1.3s0.7,0.5,1.2,0.5c0.3,0,0.6,0,0.9-0.1c0.3-0.1,0.6-0.2,1-0.4v1
			c-0.4,0.2-0.8,0.3-1.1,0.4C141.8,136.8,141.5,136.9,141.2,136.9z M142.1,130.6c-0.4,0-0.8,0.2-1.2,0.6c-0.4,0.4-0.7,0.9-0.8,1.6
			h0.1c0.9,0,1.6-0.1,2.1-0.4c0.5-0.2,0.8-0.6,0.8-1.1c0-0.2-0.1-0.4-0.2-0.6C142.6,130.7,142.4,130.6,142.1,130.6z"/>
		<path id="XMLID_488_" class="st1" d="M150.4,136.9c-0.6,0-1-0.2-1.4-0.6c-0.3-0.4-0.5-1-0.5-1.8c0-0.9,0.1-1.7,0.4-2.5
			c0.3-0.8,0.7-1.3,1.2-1.8s1.1-0.6,1.7-0.6c0.8,0,1.4,0.4,1.8,1.2h0.1c0.1-0.7,0.2-1.3,0.3-1.7l0.5-2.3h1.1l-2.1,9.9h-0.9l0.1-1.3
			h-0.1c-0.4,0.5-0.8,0.9-1.2,1.1C151.2,136.8,150.8,136.9,150.4,136.9z M150.8,135.9c0.4,0,0.8-0.2,1.2-0.6s0.7-0.9,1-1.5
			s0.4-1.2,0.4-1.8c0-0.5-0.1-0.8-0.3-1s-0.5-0.4-1-0.4c-0.4,0-0.8,0.2-1.2,0.5s-0.6,0.8-0.8,1.4c-0.2,0.6-0.3,1.3-0.3,1.9
			C149.7,135.5,150,135.9,150.8,135.9z"/>
		<path id="XMLID_491_" class="st1" d="M162.1,132.4c0,0.8-0.2,1.6-0.5,2.3c-0.3,0.7-0.7,1.2-1.2,1.6c-0.5,0.4-1.1,0.6-1.8,0.6
			c-0.8,0-1.4-0.2-1.9-0.7c-0.5-0.5-0.7-1.1-0.7-2c0-0.8,0.2-1.6,0.5-2.3s0.7-1.3,1.3-1.6c0.5-0.4,1.1-0.6,1.8-0.6
			c0.8,0,1.4,0.2,1.9,0.7C161.9,130.9,162.1,131.6,162.1,132.4z M160.9,132.3c0-0.5-0.1-0.9-0.4-1.2s-0.6-0.4-1-0.4
			c-0.4,0-0.9,0.2-1.2,0.5c-0.4,0.3-0.6,0.7-0.8,1.3c-0.2,0.6-0.3,1.2-0.3,1.8c0,0.5,0.1,1,0.4,1.3c0.3,0.3,0.6,0.4,1.1,0.4
			c0.4,0,0.8-0.2,1.2-0.5s0.6-0.7,0.8-1.3C160.8,133.6,160.9,133,160.9,132.3z M157.6,138.4c0-0.2,0.1-0.4,0.2-0.6
			c0.1-0.2,0.3-0.2,0.5-0.2c0.2,0,0.4,0.1,0.4,0.2c0.1,0.1,0.1,0.3,0.1,0.4c0,0.2-0.1,0.5-0.2,0.6c-0.1,0.2-0.3,0.2-0.5,0.2
			c-0.2,0-0.3-0.1-0.4-0.2S157.6,138.6,157.6,138.4z"/>
		<path id="XMLID_495_" class="st1" d="M165.2,136.9c-0.6,0-1-0.2-1.4-0.6s-0.5-1-0.5-1.8c0-0.9,0.1-1.7,0.4-2.4
			c0.3-0.8,0.7-1.3,1.2-1.8c0.5-0.4,1.1-0.6,1.7-0.6c0.4,0,0.7,0.1,1,0.3c0.3,0.2,0.5,0.5,0.7,0.9h0.1l0.4-1.1h0.9l-1.5,7h-0.9
			l0.2-1.3h-0.1C166.9,136.4,166.1,136.9,165.2,136.9z M165.6,135.9c0.4,0,0.8-0.2,1.2-0.6c0.4-0.4,0.7-0.9,1-1.5
			c0.2-0.6,0.4-1.2,0.4-1.9c0-0.4-0.1-0.8-0.3-1s-0.5-0.4-0.9-0.4c-0.4,0-0.8,0.2-1.2,0.5s-0.7,0.8-0.9,1.4
			c-0.2,0.6-0.3,1.3-0.3,1.9c0,0.5,0.1,0.8,0.3,1.1S165.3,135.9,165.6,135.9z"/>
		<path id="XMLID_498_" class="st1" d="M170.4,136.2c0-0.3,0.1-0.6,0.3-0.8s0.4-0.3,0.7-0.3c0.2,0,0.4,0.1,0.5,0.2
			c0.1,0.1,0.2,0.3,0.2,0.5c0,0.3-0.1,0.5-0.3,0.7c-0.2,0.2-0.4,0.3-0.7,0.3c-0.2,0-0.4-0.1-0.5-0.2
			C170.4,136.6,170.4,136.5,170.4,136.2z M173.7,127.5l-1.7,6.7h-0.8l1.1-6.7H173.7z"/>
		<path id="XMLID_501_" class="st1" d="M176.8,127.5l0.1,0.1c-0.2,0.4-0.4,0.8-0.7,1.4c-0.3,0.5-0.6,1.1-1,1.7h-0.9
			c0.6-1.3,1-2.3,1.3-3.2H176.8z M179.2,127.5l0.1,0.1c-0.4,0.8-0.9,1.9-1.7,3h-0.9c0.2-0.5,0.5-1.1,0.7-1.8s0.4-1.2,0.5-1.4H179.2z
			"/>
	</g>
	<rect x="40.7" y="140.9" class="st0" width="193.8" height="20.9"/>
</g>
<circle class="st2" cx="57.7" cy="181.8" r="32.3"/>
<g>
	<path class="st3" d="M52.2,190v-1.4c0-2.1,0.3-3.8,1-5.1c0.7-1.3,1.8-2.6,3.5-4c1.9-1.6,3.1-2.7,3.7-3.4c0.6-0.7,1-1.4,1.3-2.1
		c0.2-0.7,0.4-1.5,0.4-2.4c0-1.7-0.6-3-1.7-4c-1.1-0.9-2.7-1.4-4.8-1.4c-1.4,0-2.8,0.2-4.1,0.5c-1.3,0.3-2.8,0.9-4.5,1.7l-1.6-3.7
		c3.3-1.8,6.8-2.6,10.5-2.6c3.3,0,5.9,0.8,7.8,2.5c1.9,1.6,2.8,3.9,2.8,6.9c0,1.3-0.2,2.4-0.5,3.4c-0.3,1-0.9,1.9-1.6,2.8
		c-0.7,0.9-2.1,2.2-4.2,4c-1.7,1.5-2.9,2.7-3.4,3.7c-0.6,1-0.8,2.2-0.8,3.8v0.9H52.2z M51,197.9c0-2.4,1.1-3.6,3.3-3.6
		c1,0,1.8,0.3,2.4,0.9c0.6,0.6,0.9,1.5,0.9,2.7c0,1.2-0.3,2.1-0.9,2.7c-0.6,0.6-1.4,1-2.4,1c-1,0-1.8-0.3-2.4-0.9
		C51.3,200.1,51,199.2,51,197.9z"/>
</g>
</svg>
