<?xml version="1.0" encoding="utf-8"?>
<!-- Generator: Adobe Illustrator 19.0.0, SVG Export Plug-In . SVG Version: 6.00 Build 0)  -->
<svg version="1.1" id="Layer_1" xmlns="http://www.w3.org/2000/svg" xmlns:xlink="http://www.w3.org/1999/xlink" x="0px" y="0px"
	 viewBox="0 0 325.7 180.1" style="enable-background:new 0 0 325.7 180.1;" xml:space="preserve">
<style type="text/css">
	.st0{fill:#F8981D;}
	.st1{fill:#FFFFFF;}
</style>
<g>
	<circle class="st0" cx="57" cy="122.4" r="57"/>
	<circle class="st0" cx="113.9" cy="89.7" r="89.7"/>
	<circle class="st0" cx="223.4" cy="98.2" r="79.5"/>
	<circle class="st0" cx="285.8" cy="140.1" r="40"/>
	<rect x="57" y="130.1" class="st0" width="238.8" height="49.2"/>
	<g id="XMLID_4_">
		<path id="XMLID_5_" class="st1" d="M47.2,61.9l0-0.2c0.4-1,1.1-2.2,2-3.5h1c-0.7,1.6-1.2,2.8-1.5,3.7H47.2z M50,61.9l-0.1-0.2
			c0.4-0.9,1.1-2.1,2-3.5h1c-0.7,1.7-1.2,2.9-1.5,3.7H50z"/>
		<path id="XMLID_8_" class="st1" d="M55.3,69h-1.4l2-9.5H53l0.3-1.2h7.2l-0.2,1.2h-2.9L55.3,69z"/>
		<path id="XMLID_10_" class="st1" d="M66.9,63.9c0,0.9-0.2,1.8-0.5,2.6c-0.4,0.8-0.8,1.4-1.4,1.9c-0.6,0.4-1.3,0.7-2.1,0.7
			c-0.9,0-1.7-0.3-2.2-0.8s-0.8-1.3-0.8-2.3c0-0.9,0.2-1.8,0.5-2.6s0.8-1.4,1.4-1.9c0.6-0.4,1.3-0.7,2-0.7c0.9,0,1.7,0.3,2.2,0.8
			C66.6,62.2,66.9,63,66.9,63.9z M65.5,63.8c0-0.6-0.1-1-0.4-1.4c-0.3-0.3-0.7-0.5-1.2-0.5c-0.5,0-1,0.2-1.4,0.5
			c-0.4,0.4-0.7,0.9-1,1.5c-0.2,0.6-0.3,1.3-0.3,2.1c0,0.6,0.1,1.1,0.5,1.4c0.3,0.3,0.7,0.5,1.3,0.5c0.5,0,0.9-0.2,1.3-0.5
			c0.4-0.3,0.7-0.8,0.9-1.5C65.4,65.3,65.5,64.6,65.5,63.8z M66.5,59.9h-0.8c-0.3-0.2-0.7-0.7-1.2-1.4c-0.6,0.6-1.2,1-1.8,1.4h-0.9
			v-0.2c1.2-1.1,1.9-1.8,2.1-2.2h1.3c0.2,0.5,0.5,1,1,1.7l0.3,0.5V59.9z"/>
		<path id="XMLID_14_" class="st1" d="M69.3,69H68l1.7-8H71L69.3,69z M70.1,58.9c0-0.3,0.1-0.5,0.2-0.7c0.2-0.2,0.4-0.3,0.6-0.3
			c0.5,0,0.7,0.2,0.7,0.7c0,0.3-0.1,0.5-0.3,0.7c-0.2,0.2-0.4,0.3-0.6,0.3c-0.2,0-0.4-0.1-0.5-0.2C70.1,59.3,70.1,59.1,70.1,58.9z"
			/>
		<path id="XMLID_17_" class="st1" d="M79,69.1c-0.9,0-1.7-0.3-2.2-0.8c-0.5-0.5-0.8-1.3-0.8-2.2c0-1,0.2-1.9,0.5-2.7
			c0.4-0.8,0.9-1.5,1.5-1.9s1.4-0.7,2.2-0.7c0.7,0,1.4,0.1,2,0.4l-0.4,1.1c-0.6-0.3-1.1-0.4-1.6-0.4c-0.5,0-1,0.2-1.5,0.6
			c-0.4,0.4-0.8,0.9-1,1.5c-0.2,0.6-0.4,1.4-0.4,2.1c0,0.6,0.2,1.1,0.5,1.4c0.3,0.3,0.7,0.5,1.3,0.5c0.4,0,0.7,0,1-0.1
			c0.3-0.1,0.6-0.2,0.9-0.4v1.1C80.5,68.9,79.8,69.1,79,69.1z"/>
		<path id="XMLID_19_" class="st1" d="M89.9,63.9c0,0.9-0.2,1.8-0.5,2.6c-0.4,0.8-0.8,1.4-1.4,1.9c-0.6,0.4-1.3,0.7-2.1,0.7
			c-0.9,0-1.7-0.3-2.2-0.8s-0.8-1.3-0.8-2.3c0-0.9,0.2-1.8,0.5-2.6s0.8-1.4,1.4-1.9c0.6-0.4,1.3-0.7,2-0.7c0.9,0,1.7,0.3,2.2,0.8
			C89.6,62.2,89.9,63,89.9,63.9z M88.5,63.8c0-0.6-0.1-1-0.4-1.4c-0.3-0.3-0.7-0.5-1.2-0.5c-0.5,0-1,0.2-1.4,0.5
			c-0.4,0.4-0.7,0.9-1,1.5c-0.2,0.6-0.3,1.3-0.3,2.1c0,0.6,0.1,1.1,0.5,1.4c0.3,0.3,0.7,0.5,1.3,0.5c0.5,0,0.9-0.2,1.3-0.5
			c0.4-0.3,0.7-0.8,0.9-1.5C88.4,65.3,88.5,64.6,88.5,63.8z M86.4,59.7c0.3-0.3,0.5-0.6,0.9-1.1c0.3-0.4,0.6-0.8,0.8-1.2h1.5v0.2
			c-0.2,0.3-0.6,0.7-1.1,1.1c-0.5,0.5-0.9,0.9-1.3,1.1h-0.8V59.7z"/>
		<path id="XMLID_23_" class="st1" d="M101.1,69h-1.3l1.1-5c0.1-0.5,0.2-0.8,0.2-1c0-0.3-0.1-0.6-0.3-0.7c-0.2-0.2-0.4-0.3-0.8-0.3
			c-0.4,0-0.8,0.1-1.2,0.4c-0.4,0.3-0.8,0.7-1.1,1.2c-0.3,0.5-0.5,1.2-0.7,1.9L96.2,69h-1.3l1.7-8h1.1l-0.2,1.5h0.1
			c0.3-0.4,0.6-0.7,0.9-0.9c0.3-0.2,0.5-0.4,0.8-0.5c0.3-0.1,0.6-0.2,1-0.2c0.6,0,1.1,0.2,1.5,0.5c0.4,0.3,0.5,0.8,0.5,1.5
			c0,0.4-0.1,0.8-0.2,1.3L101.1,69z"/>
		<path id="XMLID_25_" class="st1" d="M106.8,69.1c-0.9,0-1.6-0.3-2.1-0.8c-0.5-0.5-0.8-1.3-0.8-2.2c0-0.9,0.2-1.8,0.5-2.6
			c0.4-0.8,0.8-1.5,1.5-2c0.6-0.5,1.3-0.7,2-0.7c0.8,0,1.3,0.2,1.7,0.5c0.4,0.3,0.6,0.8,0.6,1.4c0,0.9-0.4,1.6-1.2,2.1
			c-0.8,0.5-2,0.8-3.5,0.8h-0.2l0,0.6c0,0.6,0.1,1.1,0.4,1.4c0.3,0.4,0.8,0.5,1.4,0.5c0.4,0,0.7-0.1,1.1-0.2
			c0.3-0.1,0.7-0.3,1.1-0.5v1.1c-0.5,0.2-0.9,0.4-1.3,0.5C107.6,69.1,107.2,69.1,106.8,69.1z M107.8,61.9c-0.5,0-1,0.2-1.4,0.7
			c-0.4,0.5-0.8,1.1-1,1.8h0.1c1.1,0,1.9-0.1,2.5-0.4s0.9-0.7,0.9-1.2c0-0.3-0.1-0.5-0.3-0.6S108.2,61.9,107.8,61.9z M110.3,59.9
			h-0.8c-0.3-0.2-0.7-0.7-1.2-1.4c-0.6,0.6-1.2,1-1.8,1.4h-0.9v-0.2c1.2-1.1,1.9-1.8,2.1-2.2h1.3c0.2,0.5,0.5,1,1,1.7l0.3,0.5V59.9z
			"/>
		<path id="XMLID_29_" class="st1" d="M117.3,69H116l1.1-5c0.1-0.5,0.2-0.8,0.2-1c0-0.3-0.1-0.6-0.3-0.7c-0.2-0.2-0.4-0.3-0.8-0.3
			c-0.4,0-0.8,0.1-1.2,0.4c-0.4,0.3-0.8,0.7-1.1,1.2c-0.3,0.5-0.5,1.2-0.7,1.9l-0.7,3.5h-1.3l1.7-8h1.1l-0.2,1.5h0.1
			c0.3-0.4,0.6-0.7,0.9-0.9c0.3-0.2,0.5-0.4,0.8-0.5c0.3-0.1,0.6-0.2,1-0.2c0.6,0,1.1,0.2,1.5,0.5c0.4,0.3,0.5,0.8,0.5,1.5
			c0,0.4-0.1,0.8-0.2,1.3L117.3,69z"/>
		<path id="XMLID_31_" class="st1" d="M126.2,68c0.3,0,0.7-0.1,1.1-0.2v1c-0.1,0.1-0.3,0.1-0.6,0.2c-0.3,0.1-0.5,0.1-0.7,0.1
			c-0.6,0-1.1-0.1-1.4-0.4s-0.5-0.7-0.5-1.3c0-0.3,0-0.7,0.1-1.1l0.9-4.4h-1.2l0.1-0.6l1.4-0.6l0.9-1.7h0.8l-0.4,1.8h2l-0.2,1h-2
			l-0.9,4.4c-0.1,0.4-0.1,0.7-0.1,0.9c0,0.2,0.1,0.4,0.2,0.6C125.7,67.9,125.9,68,126.2,68z"/>
		<path id="XMLID_33_" class="st1" d="M130,69h-1.3l1.7-8h1.3L130,69z M131.9,59.9h-0.8c-0.3-0.3-0.6-0.7-1-1.2s-0.6-0.8-0.7-1.1
			v-0.2h1.4c0.2,0.7,0.5,1.4,1,2.2V59.9z"/>
		<path id="XMLID_36_" class="st1" d="M137.8,60.8c0.6,0,1,0.2,1.3,0.5c0.3,0.3,0.5,0.8,0.5,1.3h0.1c0.8-1.2,1.7-1.8,2.8-1.8
			c0.6,0,1.1,0.2,1.4,0.5c0.3,0.3,0.5,0.8,0.5,1.5c0,0.4-0.1,0.9-0.2,1.3l-1,4.9h-1.3l1.1-5c0.1-0.5,0.1-0.8,0.1-1
			c0-0.3-0.1-0.5-0.2-0.7c-0.2-0.2-0.4-0.3-0.8-0.3c-0.4,0-0.8,0.1-1.1,0.4c-0.4,0.3-0.7,0.7-1,1.2c-0.3,0.5-0.5,1.1-0.7,1.8
			l-0.8,3.6h-1.3l1.1-5c0.1-0.5,0.1-0.8,0.1-1c0-0.7-0.3-1.1-1-1.1c-0.4,0-0.8,0.1-1.2,0.4s-0.7,0.7-1,1.2c-0.3,0.5-0.5,1.2-0.7,1.9
			l-0.7,3.5h-1.3l1.7-8h1.1l-0.2,1.5h0.1c0.3-0.4,0.6-0.8,0.9-1c0.2-0.2,0.5-0.4,0.8-0.5C137.1,60.8,137.4,60.8,137.8,60.8z"/>
		<path id="XMLID_38_" class="st1" d="M154.8,60.8c0.6,0,1,0.2,1.3,0.5c0.3,0.3,0.5,0.8,0.5,1.3h0.1c0.8-1.2,1.7-1.8,2.8-1.8
			c0.6,0,1.1,0.2,1.4,0.5c0.3,0.3,0.5,0.8,0.5,1.5c0,0.4-0.1,0.9-0.2,1.3l-1,4.9h-1.3l1.1-5c0.1-0.5,0.1-0.8,0.1-1
			c0-0.3-0.1-0.5-0.2-0.7c-0.2-0.2-0.4-0.3-0.8-0.3c-0.4,0-0.8,0.1-1.1,0.4c-0.4,0.3-0.7,0.7-1,1.2c-0.3,0.5-0.5,1.1-0.7,1.8
			l-0.8,3.6h-1.3l1.1-5c0.1-0.5,0.1-0.8,0.1-1c0-0.7-0.3-1.1-1-1.1c-0.4,0-0.8,0.1-1.2,0.4s-0.7,0.7-1,1.2c-0.3,0.5-0.5,1.2-0.7,1.9
			l-0.7,3.5h-1.3l1.7-8h1.1l-0.2,1.5h0.1c0.3-0.4,0.6-0.8,0.9-1c0.2-0.2,0.5-0.4,0.8-0.5C154.2,60.8,154.5,60.8,154.8,60.8z"/>
		<path id="XMLID_40_" class="st1" d="M164.3,60.9h1.3l-1.1,5.1c-0.1,0.4-0.1,0.8-0.1,1c0,0.7,0.3,1,1,1c0.4,0,0.8-0.1,1.2-0.4
			c0.4-0.3,0.8-0.7,1.1-1.3c0.3-0.5,0.5-1.2,0.7-1.9l0.7-3.5h1.3l-1.7,8h-1.1l0.2-1.5h-0.1c-0.4,0.6-0.9,1-1.3,1.2
			c-0.4,0.3-0.9,0.4-1.4,0.4c-0.6,0-1.1-0.2-1.5-0.5c-0.4-0.3-0.5-0.8-0.5-1.5c0-0.3,0.1-0.7,0.2-1.3L164.3,60.9z"/>
		<path id="XMLID_42_" class="st1" d="M173.8,69.1c-0.7,0-1.2-0.2-1.6-0.7s-0.6-1.2-0.6-2c0-1,0.2-1.9,0.5-2.8
			c0.3-0.9,0.8-1.5,1.4-2s1.3-0.7,2-0.7c0.5,0,0.9,0.1,1.2,0.4c0.3,0.2,0.6,0.6,0.8,1h0.1l0.5-1.2h1l-1.7,8h-1l0.2-1.5h-0.1
			C175.7,68.6,174.8,69.1,173.8,69.1z M174.2,68c0.5,0,0.9-0.2,1.4-0.7c0.5-0.4,0.8-1,1.1-1.7c0.3-0.7,0.4-1.4,0.4-2.2
			c0-0.5-0.1-0.9-0.4-1.2c-0.3-0.3-0.6-0.4-1-0.4c-0.5,0-1,0.2-1.4,0.6c-0.4,0.4-0.8,1-1,1.7s-0.4,1.4-0.4,2.2
			c0,0.5,0.1,0.9,0.3,1.2S173.8,68,174.2,68z"/>
		<path id="XMLID_45_" class="st1" d="M186.3,68c0.3,0,0.7-0.1,1.1-0.2v1c-0.1,0.1-0.3,0.1-0.6,0.2c-0.3,0.1-0.5,0.1-0.7,0.1
			c-0.6,0-1.1-0.1-1.4-0.4s-0.5-0.7-0.5-1.3c0-0.3,0-0.7,0.1-1.1l0.9-4.4H184l0.1-0.6l1.4-0.6l0.9-1.7h0.8l-0.4,1.8h2l-0.2,1h-2
			l-0.9,4.4c-0.1,0.4-0.1,0.7-0.1,0.9c0,0.2,0.1,0.4,0.2,0.6C185.8,67.9,186,68,186.3,68z"/>
		<path id="XMLID_47_" class="st1" d="M193.9,60.8c0.3,0,0.6,0,0.9,0.1l-0.3,1.2c-0.3-0.1-0.5-0.1-0.8-0.1c-0.4,0-0.9,0.1-1.2,0.4
			c-0.4,0.3-0.7,0.7-1,1.2c-0.3,0.5-0.5,1.1-0.6,1.7l-0.8,3.7h-1.3l1.7-8h1.1l-0.2,1.5h0.1c0.4-0.5,0.6-0.8,0.9-1s0.5-0.4,0.7-0.5
			C193.3,60.8,193.6,60.8,193.9,60.8z"/>
		<path id="XMLID_49_" class="st1" d="M197.7,60.9l-1.1,5.1c-0.1,0.4-0.1,0.8-0.1,1c0,0.7,0.3,1.1,1,1.1c0.4,0,0.8-0.1,1.2-0.4
			c0.4-0.3,0.8-0.7,1.1-1.3c0.3-0.5,0.5-1.2,0.7-1.9l0.7-3.5h1.3l-0.2,0.9c0.4-0.1,0.7-0.3,1-0.6c0.3-0.3,0.4-0.8,0.5-1.5h1.4
			l0.1,0.2c-0.2,0.8-0.5,1.4-1.1,1.9c-0.6,0.5-1.3,0.8-2.1,1l-1.3,6.2h-1.1l0.2-1.5h-0.1c-0.4,0.6-0.9,1-1.3,1.2
			c-0.4,0.3-0.9,0.4-1.4,0.4c-0.6,0-1.1-0.2-1.5-0.5c-0.4-0.4-0.5-0.9-0.5-1.5c0-0.3,0.1-0.7,0.2-1.2l1.1-4.9H197.7z M197,70.9
			c0-0.3,0.1-0.5,0.3-0.7c0.2-0.2,0.4-0.3,0.6-0.3c0.2,0,0.4,0.1,0.5,0.2c0.1,0.1,0.2,0.3,0.2,0.5c0,0.3-0.1,0.5-0.3,0.7
			c-0.2,0.2-0.4,0.3-0.6,0.3c-0.2,0-0.4-0.1-0.5-0.2S197,71.1,197,70.9z"/>
		<path id="XMLID_52_" class="st1" d="M207.4,69.1c-0.9,0-1.7-0.3-2.2-0.8c-0.5-0.5-0.8-1.3-0.8-2.2c0-1,0.2-1.9,0.5-2.7
			c0.4-0.8,0.9-1.5,1.5-1.9s1.4-0.7,2.2-0.7c0.7,0,1.4,0.1,2,0.4l-0.4,1.1c-0.6-0.3-1.1-0.4-1.6-0.4c-0.5,0-1,0.2-1.5,0.6
			c-0.4,0.4-0.8,0.9-1,1.5c-0.2,0.6-0.4,1.4-0.4,2.1c0,0.6,0.2,1.1,0.5,1.4c0.3,0.3,0.7,0.5,1.3,0.5c0.4,0,0.7,0,1-0.1
			c0.3-0.1,0.6-0.2,0.9-0.4v1.1C208.8,68.9,208.1,69.1,207.4,69.1z"/>
		<path id="XMLID_55_" class="st1" d="M217.3,68c0.3,0,0.7-0.1,1.1-0.2v1c-0.1,0.1-0.3,0.1-0.6,0.2c-0.3,0.1-0.5,0.1-0.7,0.1
			c-0.6,0-1.1-0.1-1.4-0.4s-0.5-0.7-0.5-1.3c0-0.3,0-0.7,0.1-1.1l0.9-4.4H215l0.1-0.6l1.4-0.6l0.9-1.7h0.8l-0.4,1.8h2l-0.2,1h-2
			l-0.9,4.4c-0.1,0.4-0.1,0.7-0.1,0.9c0,0.2,0.1,0.4,0.2,0.6C216.8,67.9,217,68,217.3,68z"/>
		<path id="XMLID_57_" class="st1" d="M221.1,69h-1.3l1.7-8h1.3L221.1,69z M221.8,58.9c0-0.3,0.1-0.5,0.2-0.7
			c0.2-0.2,0.4-0.3,0.6-0.3c0.5,0,0.7,0.2,0.7,0.7c0,0.3-0.1,0.5-0.3,0.7c-0.2,0.2-0.4,0.3-0.6,0.3c-0.2,0-0.4-0.1-0.5-0.2
			C221.9,59.3,221.8,59.1,221.8,58.9z"/>
		<path id="XMLID_60_" class="st1" d="M226.8,69.1c-0.9,0-1.6-0.3-2.1-0.8c-0.5-0.5-0.8-1.3-0.8-2.2c0-0.9,0.2-1.8,0.5-2.6
			c0.4-0.8,0.8-1.5,1.5-2c0.6-0.5,1.3-0.7,2-0.7c0.8,0,1.3,0.2,1.7,0.5c0.4,0.3,0.6,0.8,0.6,1.4c0,0.9-0.4,1.6-1.2,2.1
			c-0.8,0.5-2,0.8-3.5,0.8h-0.2l0,0.6c0,0.6,0.1,1.1,0.4,1.4c0.3,0.4,0.8,0.5,1.4,0.5c0.4,0,0.7-0.1,1.1-0.2
			c0.3-0.1,0.7-0.3,1.1-0.5v1.1c-0.5,0.2-0.9,0.4-1.3,0.5C227.6,69.1,227.3,69.1,226.8,69.1z M227.9,61.9c-0.5,0-1,0.2-1.4,0.7
			c-0.4,0.5-0.8,1.1-1,1.8h0.1c1.1,0,1.9-0.1,2.5-0.4s0.9-0.7,0.9-1.2c0-0.3-0.1-0.5-0.3-0.6S228.2,61.9,227.9,61.9z M229.7,59.9
			c-0.4-0.3-0.9-0.7-1.4-1.2c-0.6,0.5-1.3,0.9-1.9,1.2h-0.6l0.1-0.2c0.9-0.7,1.5-1.4,1.9-1.9h1.4c0.1,0.3,0.2,0.6,0.5,0.9
			c0.2,0.4,0.4,0.7,0.7,1l-0.1,0.2H229.7z M230,58.4v-0.2c0.6-0.6,1.1-1.1,1.3-1.5h1.3v0.2c-0.2,0.2-0.5,0.5-0.8,0.8
			c-0.4,0.3-0.7,0.5-1,0.7H230z"/>
		<path id="XMLID_65_" class="st1" d="M236.5,60.8c0.7,0,1.2,0.2,1.6,0.7c0.4,0.5,0.6,1.2,0.6,2c0,1-0.2,2-0.5,2.9
			c-0.3,0.9-0.8,1.5-1.4,2c-0.6,0.5-1.3,0.7-2,0.7c-0.9,0-1.6-0.5-2.1-1.4h-0.1c-0.1,0.7-0.1,1.1-0.2,1.4l-0.7,3.5h-1.3l2.5-11.6
			h1.1l-0.2,1.5h0.1c0.5-0.6,0.9-1,1.4-1.2C235.6,60.9,236,60.8,236.5,60.8z M236,61.9c-0.5,0-0.9,0.2-1.4,0.7
			c-0.5,0.4-0.8,1-1.1,1.7c-0.3,0.7-0.4,1.4-0.4,2.1c0,0.5,0.1,0.9,0.4,1.2c0.3,0.3,0.6,0.4,1.1,0.4c0.5,0,0.9-0.2,1.3-0.6
			s0.7-1,1-1.7c0.2-0.7,0.4-1.5,0.4-2.2C237.3,62.4,236.9,61.9,236,61.9z"/>
		<path id="XMLID_68_" class="st1" d="M241.6,67.2l0.1,0.2c-0.5,1-1.1,2.2-2,3.5h-1c0.4-1,0.9-2.2,1.5-3.7H241.6z"/>
		<path id="XMLID_70_" class="st1" d="M250,68c0.3,0,0.7-0.1,1.1-0.2v1c-0.1,0.1-0.3,0.1-0.6,0.2c-0.3,0.1-0.5,0.1-0.7,0.1
			c-0.6,0-1.1-0.1-1.4-0.4s-0.5-0.7-0.5-1.3c0-0.3,0-0.7,0.1-1.1l0.9-4.4h-1.2l0.1-0.6l1.4-0.6l0.9-1.7h0.8l-0.4,1.8h2l-0.2,1h-2
			l-0.9,4.4c-0.1,0.4-0.1,0.7-0.1,0.9c0,0.2,0.1,0.4,0.2,0.6C249.5,67.9,249.7,68,250,68z"/>
		<path id="XMLID_72_" class="st1" d="M258.7,69h-1.3l1.1-5c0.1-0.4,0.1-0.8,0.1-1c0-0.7-0.4-1.1-1.1-1.1c-0.4,0-0.8,0.1-1.2,0.4
			c-0.4,0.3-0.8,0.7-1.1,1.2c-0.3,0.5-0.5,1.2-0.7,1.9l-0.7,3.5h-1.3l2.4-11.4h1.3l-0.6,3c-0.1,0.3-0.1,0.6-0.2,0.9
			c-0.1,0.3-0.2,0.6-0.3,1h0.1c0.4-0.6,0.9-1,1.3-1.2c0.4-0.3,0.9-0.4,1.4-0.4c0.6,0,1.1,0.2,1.5,0.5c0.4,0.3,0.5,0.9,0.5,1.5
			c0,0.3-0.1,0.7-0.2,1.2L258.7,69z"/>
		<path id="XMLID_74_" class="st1" d="M263.6,69.1c-0.7,0-1.2-0.2-1.6-0.7s-0.6-1.2-0.6-2c0-1,0.2-1.9,0.5-2.8
			c0.3-0.9,0.8-1.5,1.4-2s1.3-0.7,2-0.7c0.5,0,0.9,0.1,1.2,0.4c0.3,0.2,0.6,0.6,0.8,1h0.1l0.5-1.2h1l-1.7,8h-1l0.2-1.5h-0.1
			C265.5,68.6,264.6,69.1,263.6,69.1z M264,68c0.5,0,0.9-0.2,1.4-0.7c0.5-0.4,0.8-1,1.1-1.7c0.3-0.7,0.4-1.4,0.4-2.2
			c0-0.5-0.1-0.9-0.4-1.2c-0.3-0.3-0.6-0.4-1-0.4c-0.5,0-1,0.2-1.4,0.6c-0.4,0.4-0.8,1-1,1.7s-0.4,1.4-0.4,2.2
			c0,0.5,0.1,0.9,0.3,1.2S263.6,68,264,68z"/>
		<path id="XMLID_77_" class="st1" d="M269.9,60.9h1.3l0.5,4c0.1,0.4,0.1,0.8,0.1,1.4c0,0.6,0.1,1.1,0.1,1.6h0
			c0.1-0.3,0.3-0.8,0.6-1.3c0.3-0.6,0.5-1,0.6-1.2l2.3-4.4h1.4l-5.1,9.4c-0.4,0.8-0.9,1.4-1.3,1.8c-0.5,0.3-1,0.5-1.6,0.5
			c-0.4,0-0.7-0.1-1-0.2v-1.1c0.3,0.1,0.6,0.1,1,0.1c0.4,0,0.7-0.1,1-0.4c0.3-0.3,0.6-0.6,0.8-1.1l0.5-0.9L269.9,60.9z"/>
		<path id="XMLID_79_" class="st1" d="M49,86c0.6-1.2,1-2.1,1.2-2.6l2.4-4.4H54l-4.3,8h-1.7l-0.9-8h1.3l0.4,4.5
			c0,0.4,0.1,0.9,0.1,1.5C48.9,85.4,48.9,85.8,49,86L49,86z"/>
		<path id="XMLID_91_" class="st1" d="M55,87h-1.3l1.7-8h1.3L55,87z M56.9,77.9h-0.8c-0.3-0.3-0.6-0.7-1-1.2s-0.6-0.8-0.7-1.1v-0.2
			h1.4c0.2,0.7,0.5,1.4,1,2.2V77.9z"/>
		<path id="XMLID_97_" class="st1" d="M65.6,78.8c0.5,0,0.9,0.1,1.2,0.3c0.4,0.2,0.6,0.6,0.8,1h0.1l0.1-0.6c0-0.3,0.1-0.8,0.3-1.6
			h-2.7l0.2-1h2.7l0.3-1.3H70l-0.3,1.3h1.1l-0.2,1h-1.1L67.6,87h-1.1l0.2-1.5h-0.1c-0.5,0.6-0.9,1-1.4,1.3c-0.4,0.2-0.9,0.4-1.3,0.4
			c-0.7,0-1.2-0.2-1.6-0.7c-0.4-0.5-0.6-1.2-0.6-2c0-1,0.2-2,0.5-2.8c0.3-0.9,0.8-1.5,1.4-2C64.2,79,64.9,78.8,65.6,78.8z M64.4,86
			c0.4,0,0.9-0.2,1.4-0.7c0.5-0.5,0.8-1,1.1-1.7c0.3-0.7,0.4-1.4,0.4-2.1c0-0.5-0.1-0.9-0.4-1.2c-0.3-0.3-0.6-0.4-1.1-0.4
			s-0.9,0.2-1.3,0.6c-0.4,0.4-0.7,1-1,1.7c-0.2,0.7-0.4,1.5-0.4,2.2C63.1,85.5,63.5,86,64.4,86z"/>
		<path id="XMLID_100_" class="st1" d="M72.6,87.1c-0.7,0-1.2-0.2-1.6-0.7s-0.6-1.2-0.6-2c0-1,0.2-1.9,0.5-2.8
			c0.3-0.9,0.8-1.5,1.4-2s1.3-0.7,2-0.7c0.5,0,0.9,0.1,1.2,0.4c0.3,0.2,0.6,0.6,0.8,1h0.1l0.5-1.2h1l-1.7,8h-1l0.2-1.5h-0.1
			C74.5,86.6,73.6,87.1,72.6,87.1z M73,86c0.5,0,0.9-0.2,1.4-0.7c0.5-0.4,0.8-1,1.1-1.7c0.3-0.7,0.4-1.4,0.4-2.2
			c0-0.5-0.1-0.9-0.4-1.2c-0.3-0.3-0.6-0.4-1-0.4c-0.5,0-1,0.2-1.4,0.6c-0.4,0.4-0.8,1-1,1.7s-0.4,1.4-0.4,2.2
			c0,0.5,0.1,0.9,0.3,1.2S72.6,86,73,86z M72.1,88.9c0-0.3,0.1-0.5,0.3-0.7c0.2-0.2,0.4-0.3,0.6-0.3c0.2,0,0.4,0.1,0.5,0.2
			c0.1,0.1,0.2,0.3,0.2,0.5c0,0.3-0.1,0.5-0.3,0.7c-0.2,0.2-0.4,0.3-0.6,0.3c-0.2,0-0.4-0.1-0.5-0.2S72.1,89.1,72.1,88.9z
			 M77.5,75.9c-0.3,1.3-1.1,2-2.4,2c-0.6,0-1-0.1-1.4-0.4c-0.3-0.3-0.5-0.7-0.5-1.2V76l0-0.2H74c0,0.3,0.1,0.5,0.3,0.7
			c0.2,0.2,0.5,0.2,0.9,0.2c0.8,0,1.3-0.3,1.5-0.9H77.5z"/>
		<path id="XMLID_105_" class="st1" d="M81.2,86c0.3,0,0.7-0.1,1.1-0.2v1c-0.1,0.1-0.3,0.1-0.6,0.2c-0.3,0.1-0.5,0.1-0.7,0.1
			c-0.6,0-1.1-0.1-1.4-0.4s-0.5-0.7-0.5-1.3c0-0.3,0-0.7,0.1-1.1l0.9-4.4h-1.2l0.1-0.6l1.4-0.6l0.9-1.7h0.8l-0.4,1.8h2l-0.2,1h-2
			l-0.9,4.4c-0.1,0.4-0.1,0.7-0.1,0.9c0,0.2,0.1,0.4,0.2,0.6C80.7,85.9,80.9,86,81.2,86z"/>
		<path id="XMLID_107_" class="st1" d="M93.7,87h-1.3l1.1-5c0.1-0.4,0.1-0.8,0.1-1c0-0.7-0.4-1.1-1.1-1.1c-0.4,0-0.8,0.1-1.2,0.4
			c-0.4,0.3-0.8,0.7-1.1,1.2c-0.3,0.5-0.5,1.2-0.7,1.9L88.8,87h-1.3l2.4-11.4h1.3l-0.6,3c-0.1,0.3-0.1,0.6-0.2,0.9
			c-0.1,0.3-0.2,0.6-0.3,1h0.1c0.4-0.6,0.9-1,1.3-1.2c0.4-0.3,0.9-0.4,1.4-0.4c0.6,0,1.1,0.2,1.5,0.5c0.4,0.3,0.5,0.9,0.5,1.5
			c0,0.3-0.1,0.7-0.2,1.2L93.7,87z"/>
		<path id="XMLID_109_" class="st1" d="M98.7,87.1c-0.7,0-1.2-0.2-1.6-0.7s-0.6-1.2-0.6-2c0-1,0.2-1.9,0.5-2.8
			c0.3-0.9,0.8-1.5,1.4-2s1.3-0.7,2-0.7c0.5,0,0.9,0.1,1.2,0.4c0.3,0.2,0.6,0.6,0.8,1h0.1l0.5-1.2h1l-1.7,8h-1l0.2-1.5h-0.1
			C100.6,86.6,99.7,87.1,98.7,87.1z M99.1,86c0.5,0,0.9-0.2,1.4-0.7c0.5-0.4,0.8-1,1.1-1.7c0.3-0.7,0.4-1.4,0.4-2.2
			c0-0.5-0.1-0.9-0.4-1.2c-0.3-0.3-0.6-0.4-1-0.4c-0.5,0-1,0.2-1.4,0.6c-0.4,0.4-0.8,1-1,1.7s-0.4,1.4-0.4,2.2
			c0,0.5,0.1,0.9,0.3,1.2S98.7,86,99.1,86z M101.8,77.9H101c-0.3-0.3-0.6-0.7-1-1.2c-0.3-0.5-0.6-0.8-0.7-1.1v-0.2h1.4
			c0.2,0.7,0.5,1.4,1,2.2V77.9z"/>
		<path id="XMLID_113_" class="st1" d="M110.9,87h-1.3l1.1-5c0.1-0.5,0.2-0.8,0.2-1c0-0.3-0.1-0.6-0.3-0.7c-0.2-0.2-0.4-0.3-0.8-0.3
			c-0.4,0-0.8,0.1-1.2,0.4c-0.4,0.3-0.8,0.7-1.1,1.2c-0.3,0.5-0.5,1.2-0.7,1.9L106,87h-1.3l1.7-8h1.1l-0.2,1.5h0.1
			c0.3-0.4,0.6-0.7,0.9-0.9c0.3-0.2,0.5-0.4,0.8-0.5c0.3-0.1,0.6-0.2,1-0.2c0.6,0,1.1,0.2,1.5,0.5c0.4,0.3,0.5,0.8,0.5,1.5
			c0,0.4-0.1,0.8-0.2,1.3L110.9,87z"/>
		<path id="XMLID_115_" class="st1" d="M115.8,90.6c-1,0-1.8-0.2-2.4-0.5v-1.2c0.3,0.2,0.7,0.3,1.1,0.5c0.5,0.1,0.9,0.2,1.2,0.2
			c0.6,0,1.2-0.2,1.6-0.5c0.4-0.3,0.7-0.8,0.8-1.5l0.4-1.5l0.1-0.5h-0.1c-0.4,0.6-0.9,1-1.3,1.2c-0.4,0.3-0.9,0.4-1.3,0.4
			c-0.7,0-1.2-0.2-1.6-0.7s-0.6-1.2-0.6-2c0-1,0.2-2,0.5-2.9c0.4-0.9,0.8-1.5,1.4-2c0.6-0.5,1.3-0.7,2-0.7c0.9,0,1.6,0.5,2,1.4h0.1
			l0.5-1.2h1l-1.8,8.5c-0.2,1.1-0.6,1.9-1.2,2.4C117.6,90.3,116.8,90.6,115.8,90.6z M116.3,86c0.4,0,0.9-0.2,1.4-0.7s0.8-1,1.1-1.7
			c0.3-0.7,0.4-1.4,0.4-2.1c0-1.1-0.5-1.6-1.5-1.6c-0.5,0-0.9,0.2-1.4,0.6c-0.4,0.4-0.7,1-1,1.7c-0.2,0.7-0.4,1.4-0.4,2.2
			C115.1,85.5,115.5,86,116.3,86z"/>
		<path id="XMLID_118_" class="st1" d="M133.3,81.9c0,0.9-0.2,1.8-0.5,2.6c-0.4,0.8-0.8,1.4-1.4,1.9c-0.6,0.4-1.3,0.7-2.1,0.7
			c-0.9,0-1.7-0.3-2.2-0.8s-0.8-1.3-0.8-2.3c0-0.9,0.2-1.8,0.5-2.6s0.8-1.4,1.4-1.9c0.6-0.4,1.3-0.7,2-0.7c0.9,0,1.7,0.3,2.2,0.8
			C133,80.2,133.3,81,133.3,81.9z M132,81.8c0-0.6-0.1-1-0.4-1.4c-0.3-0.3-0.7-0.5-1.2-0.5c-0.5,0-1,0.2-1.4,0.5
			c-0.4,0.4-0.7,0.9-1,1.5c-0.2,0.6-0.3,1.3-0.3,2.1c0,0.6,0.1,1.1,0.5,1.4c0.3,0.3,0.7,0.5,1.3,0.5c0.5,0,0.9-0.2,1.3-0.5
			c0.4-0.3,0.7-0.8,0.9-1.5C131.8,83.3,132,82.6,132,81.8z"/>
		<path id="XMLID_121_" class="st1" d="M140.6,87h-1.3l1.1-5c0.1-0.5,0.2-0.8,0.2-1c0-0.3-0.1-0.6-0.3-0.7c-0.2-0.2-0.4-0.3-0.8-0.3
			c-0.4,0-0.8,0.1-1.2,0.4c-0.4,0.3-0.8,0.7-1.1,1.2c-0.3,0.5-0.5,1.2-0.7,1.9l-0.7,3.5h-1.3l1.7-8h1.1l-0.2,1.5h0.1
			c0.3-0.4,0.6-0.7,0.9-0.9c0.3-0.2,0.5-0.4,0.8-0.5c0.3-0.1,0.6-0.2,1-0.2c0.6,0,1.1,0.2,1.5,0.5c0.4,0.3,0.5,0.8,0.5,1.5
			c0,0.4-0.1,0.8-0.2,1.3L140.6,87z"/>
		<path id="XMLID_123_" class="st1" d="M144.4,87h-1.3l2.4-11.4h1.3L144.4,87z"/>
		<path id="XMLID_125_" class="st1" d="M148.3,87H147l1.7-8h1.3L148.3,87z M149,76.9c0-0.3,0.1-0.5,0.2-0.7c0.2-0.2,0.4-0.3,0.6-0.3
			c0.5,0,0.7,0.2,0.7,0.7c0,0.3-0.1,0.5-0.3,0.7c-0.2,0.2-0.4,0.3-0.6,0.3c-0.2,0-0.4-0.1-0.5-0.2C149.1,77.3,149,77.1,149,76.9z"/>
		<path id="XMLID_128_" class="st1" d="M157.1,87h-1.3l1.1-5c0.1-0.5,0.2-0.8,0.2-1c0-0.3-0.1-0.6-0.3-0.7c-0.2-0.2-0.4-0.3-0.8-0.3
			c-0.4,0-0.8,0.1-1.2,0.4c-0.4,0.3-0.8,0.7-1.1,1.2c-0.3,0.5-0.5,1.2-0.7,1.9l-0.7,3.5h-1.3l1.7-8h1.1l-0.2,1.5h0.1
			c0.3-0.4,0.6-0.7,0.9-0.9c0.3-0.2,0.5-0.4,0.8-0.5c0.3-0.1,0.6-0.2,1-0.2c0.6,0,1.1,0.2,1.5,0.5c0.4,0.3,0.5,0.8,0.5,1.5
			c0,0.4-0.1,0.8-0.2,1.3L157.1,87z"/>
		<path id="XMLID_130_" class="st1" d="M162.8,87.1c-0.9,0-1.6-0.3-2.1-0.8c-0.5-0.5-0.8-1.3-0.8-2.2c0-0.9,0.2-1.8,0.5-2.6
			c0.4-0.8,0.8-1.5,1.5-2c0.6-0.5,1.3-0.7,2-0.7c0.8,0,1.3,0.2,1.7,0.5c0.4,0.3,0.6,0.8,0.6,1.4c0,0.9-0.4,1.6-1.2,2.1
			c-0.8,0.5-2,0.8-3.5,0.8h-0.2l0,0.6c0,0.6,0.1,1.1,0.4,1.4c0.3,0.4,0.8,0.5,1.4,0.5c0.4,0,0.7-0.1,1.1-0.2
			c0.3-0.1,0.7-0.3,1.1-0.5v1.1c-0.5,0.2-0.9,0.4-1.3,0.5C163.6,87.1,163.2,87.1,162.8,87.1z M163.8,79.9c-0.5,0-1,0.2-1.4,0.7
			c-0.4,0.5-0.8,1.1-1,1.8h0.1c1.1,0,1.9-0.1,2.5-0.4s0.9-0.7,0.9-1.2c0-0.3-0.1-0.5-0.3-0.6S164.2,79.9,163.8,79.9z"/>
		<path id="XMLID_133_" class="st1" d="M167.8,86.4c0-0.4,0.1-0.7,0.3-0.9c0.2-0.2,0.5-0.3,0.8-0.3c0.2,0,0.4,0.1,0.5,0.2
			c0.1,0.1,0.2,0.3,0.2,0.6c0,0.4-0.1,0.6-0.3,0.9s-0.5,0.4-0.8,0.4c-0.2,0-0.4-0.1-0.6-0.2C167.8,86.8,167.8,86.6,167.8,86.4z
			 M168.5,83.9c0.1-0.6,0.3-1.2,0.5-1.6s0.7-0.8,1.2-1.3c0.6-0.4,1-0.8,1.2-1c0.2-0.2,0.4-0.4,0.5-0.7c0.1-0.2,0.2-0.5,0.2-0.8
			c0-0.4-0.1-0.8-0.4-1c-0.2-0.2-0.6-0.4-1.1-0.4c-0.4,0-0.8,0.1-1.1,0.2c-0.4,0.1-0.7,0.3-1,0.4l-0.5-1c0.4-0.2,0.9-0.4,1.4-0.6
			c0.5-0.1,1-0.2,1.4-0.2c0.8,0,1.5,0.2,1.9,0.6c0.5,0.4,0.7,1,0.7,1.7c0,0.6-0.2,1.1-0.5,1.6c-0.3,0.5-0.9,1-1.7,1.6
			c-0.6,0.5-1,0.8-1.2,1.1c-0.2,0.3-0.3,0.6-0.5,1.1H168.5z"/>
		<path id="XMLID_136_" class="st1" d="M185,87h-1.3l1.1-5H180l-1.1,5h-1.3l2.3-10.7h1.3l-1,4.5h4.7l1-4.5h1.3L185,87z"/>
		<path id="XMLID_138_" class="st1" d="M188.9,87h-1.3l1.7-8h1.3L188.9,87z M190.8,77.9H190c-0.3-0.3-0.6-0.7-1-1.2
			s-0.6-0.8-0.7-1.1v-0.2h1.4c0.2,0.7,0.5,1.4,1,2.2V77.9z"/>
		<path id="XMLID_141_" class="st1" d="M197.7,87h-1.3l1.1-5c0.1-0.5,0.2-0.8,0.2-1c0-0.3-0.1-0.6-0.3-0.7c-0.2-0.2-0.4-0.3-0.8-0.3
			c-0.4,0-0.8,0.1-1.2,0.4c-0.4,0.3-0.8,0.7-1.1,1.2c-0.3,0.5-0.5,1.2-0.7,1.9l-0.7,3.5h-1.3l1.7-8h1.1l-0.2,1.5h0.1
			c0.3-0.4,0.6-0.7,0.9-0.9c0.3-0.2,0.5-0.4,0.8-0.5c0.3-0.1,0.6-0.2,1-0.2c0.6,0,1.1,0.2,1.5,0.5c0.4,0.3,0.5,0.8,0.5,1.5
			c0,0.4-0.1,0.8-0.2,1.3L197.7,87z"/>
		<path id="XMLID_143_" class="st1" d="M206.3,87H205l1.1-5c0.1-0.4,0.1-0.8,0.1-1c0-0.7-0.4-1.1-1.1-1.1c-0.4,0-0.8,0.1-1.2,0.4
			c-0.4,0.3-0.8,0.7-1.1,1.2c-0.3,0.5-0.5,1.2-0.7,1.9l-0.7,3.5h-1.3l2.4-11.4h1.3l-0.6,3c-0.1,0.3-0.1,0.6-0.2,0.9
			c-0.1,0.3-0.2,0.6-0.3,1h0.1c0.4-0.6,0.9-1,1.3-1.2c0.4-0.3,0.9-0.4,1.4-0.4c0.6,0,1.1,0.2,1.5,0.5c0.4,0.3,0.5,0.9,0.5,1.5
			c0,0.3-0.1,0.7-0.2,1.2L206.3,87z"/>
		<path id="XMLID_145_" class="st1" d="M218.9,87h-1.3l1.1-5c0.1-0.5,0.2-0.8,0.2-1c0-0.3-0.1-0.6-0.3-0.7c-0.2-0.2-0.4-0.3-0.8-0.3
			c-0.4,0-0.8,0.1-1.2,0.4c-0.4,0.3-0.8,0.7-1.1,1.2c-0.3,0.5-0.5,1.2-0.7,1.9L214,87h-1.3l1.7-8h1.1l-0.2,1.5h0.1
			c0.3-0.4,0.6-0.7,0.9-0.9c0.3-0.2,0.5-0.4,0.8-0.5c0.3-0.1,0.6-0.2,1-0.2c0.6,0,1.1,0.2,1.5,0.5c0.4,0.3,0.5,0.8,0.5,1.5
			c0,0.4-0.1,0.8-0.2,1.3L218.9,87z"/>
		<path id="XMLID_147_" class="st1" d="M227.6,87h-1.3l1.1-5c0.1-0.4,0.1-0.8,0.1-1c0-0.7-0.4-1.1-1.1-1.1c-0.4,0-0.8,0.1-1.2,0.4
			c-0.4,0.3-0.8,0.7-1.1,1.2c-0.3,0.5-0.5,1.2-0.7,1.9l-0.7,3.5h-1.3l2.4-11.4h1.3l-0.6,3c-0.1,0.3-0.1,0.6-0.2,0.9
			c-0.1,0.3-0.2,0.6-0.3,1h0.1c0.4-0.6,0.9-1,1.3-1.2c0.4-0.3,0.9-0.4,1.4-0.4c0.6,0,1.1,0.2,1.5,0.5c0.4,0.3,0.5,0.9,0.5,1.5
			c0,0.3-0.1,0.7-0.2,1.2L227.6,87z"/>
		<path id="XMLID_149_" class="st1" d="M233,78.9L232,84c-0.1,0.4-0.1,0.8-0.1,1c0,0.7,0.3,1.1,1,1.1c0.4,0,0.8-0.1,1.2-0.4
			c0.4-0.3,0.8-0.7,1.1-1.3c0.3-0.5,0.5-1.2,0.7-1.9l0.7-3.5h1.3l-0.2,0.9c0.4-0.1,0.7-0.3,1-0.6c0.3-0.3,0.4-0.8,0.5-1.5h1.4
			l0.1,0.2c-0.2,0.8-0.5,1.4-1.1,1.9c-0.6,0.5-1.3,0.8-2.1,1l-1.3,6.2h-1.1l0.2-1.5h-0.1c-0.4,0.6-0.9,1-1.3,1.2
			c-0.4,0.3-0.9,0.4-1.4,0.4c-0.6,0-1.1-0.2-1.5-0.5c-0.4-0.4-0.5-0.9-0.5-1.5c0-0.3,0.1-0.7,0.2-1.2l1.1-4.9H233z"/>
		<path id="XMLID_151_" class="st1" d="M245.7,86c0.6-1.2,1-2.1,1.2-2.6l2.4-4.4h1.4l-4.3,8h-1.7l-0.9-8h1.3l0.4,4.5
			c0,0.4,0.1,0.9,0.1,1.5C245.6,85.4,245.6,85.8,245.7,86L245.7,86z"/>
		<path id="XMLID_153_" class="st1" d="M252.9,87.1c-0.7,0-1.2-0.2-1.6-0.7s-0.6-1.2-0.6-2c0-1,0.2-1.9,0.5-2.8
			c0.3-0.9,0.8-1.5,1.4-2s1.3-0.7,2-0.7c0.5,0,0.9,0.1,1.2,0.4c0.3,0.2,0.6,0.6,0.8,1h0.1l0.5-1.2h1l-1.7,8h-1l0.2-1.5h-0.1
			C254.7,86.6,253.8,87.1,252.9,87.1z M253.3,86c0.5,0,0.9-0.2,1.4-0.7c0.5-0.4,0.8-1,1.1-1.7c0.3-0.7,0.4-1.4,0.4-2.2
			c0-0.5-0.1-0.9-0.4-1.2c-0.3-0.3-0.6-0.4-1-0.4c-0.5,0-1,0.2-1.4,0.6c-0.4,0.4-0.8,1-1,1.7s-0.4,1.4-0.4,2.2
			c0,0.5,0.1,0.9,0.3,1.2S252.9,86,253.3,86z M256,77.9h-0.8c-0.3-0.3-0.6-0.7-1-1.2c-0.3-0.5-0.6-0.8-0.7-1.1v-0.2h1.4
			c0.2,0.7,0.5,1.4,1,2.2V77.9z"/>
		<path id="XMLID_157_" class="st1" d="M260.2,87h-1.3l1.7-8h1.3L260.2,87z M261,76.9c0-0.3,0.1-0.5,0.2-0.7
			c0.2-0.2,0.4-0.3,0.6-0.3c0.5,0,0.7,0.2,0.7,0.7c0,0.3-0.1,0.5-0.3,0.7c-0.2,0.2-0.4,0.3-0.6,0.3c-0.2,0-0.4-0.1-0.5-0.2
			C261,77.3,261,77.1,261,76.9z"/>
		<path id="XMLID_160_" class="st1" d="M49.2,104c0.3,0,0.7-0.1,1.1-0.2v1c-0.1,0.1-0.3,0.1-0.6,0.2c-0.3,0.1-0.5,0.1-0.7,0.1
			c-0.6,0-1.1-0.1-1.4-0.4s-0.5-0.7-0.5-1.3c0-0.3,0-0.7,0.1-1.1l0.9-4.4h-1.2l0.1-0.6l1.4-0.6l0.9-1.7h0.8l-0.4,1.8h2l-0.2,1h-2
			l-0.9,4.4c-0.1,0.4-0.1,0.7-0.1,0.9c0,0.2,0.1,0.4,0.2,0.6C48.7,103.9,48.9,104,49.2,104z"/>
		<path id="XMLID_162_" class="st1" d="M56.8,96.8c0.3,0,0.6,0,0.9,0.1l-0.3,1.2C57.1,98,56.9,98,56.6,98c-0.4,0-0.9,0.1-1.2,0.4
			c-0.4,0.3-0.7,0.7-1,1.2c-0.3,0.5-0.5,1.1-0.6,1.7L53,105h-1.3l1.7-8h1.1l-0.2,1.5h0.1c0.4-0.5,0.6-0.8,0.9-1s0.5-0.4,0.7-0.5
			C56.2,96.8,56.5,96.8,56.8,96.8z"/>
		<path id="XMLID_164_" class="st1" d="M60.1,105.1c-0.7,0-1.2-0.2-1.6-0.7s-0.6-1.2-0.6-2c0-1,0.2-1.9,0.5-2.8
			c0.3-0.9,0.8-1.5,1.4-2s1.3-0.7,2-0.7c0.5,0,0.9,0.1,1.2,0.4c0.3,0.2,0.6,0.6,0.8,1H64l0.5-1.2h1l-1.7,8h-1l0.2-1.5h-0.1
			C62,104.6,61.1,105.1,60.1,105.1z M60.5,104c0.5,0,0.9-0.2,1.4-0.7c0.5-0.4,0.8-1,1.1-1.7c0.3-0.7,0.4-1.4,0.4-2.2
			c0-0.5-0.1-0.9-0.4-1.2c-0.3-0.3-0.6-0.4-1-0.4c-0.5,0-1,0.2-1.4,0.6c-0.4,0.4-0.8,1-1,1.7s-0.4,1.4-0.4,2.2
			c0,0.5,0.1,0.9,0.3,1.2S60.1,104,60.5,104z"/>
		<path id="XMLID_167_" class="st1" d="M72.3,105H71l1.1-5c0.1-0.5,0.2-0.8,0.2-1c0-0.3-0.1-0.6-0.3-0.7c-0.2-0.2-0.4-0.3-0.8-0.3
			c-0.4,0-0.8,0.1-1.2,0.4c-0.4,0.3-0.8,0.7-1.1,1.2c-0.3,0.5-0.5,1.2-0.7,1.9l-0.7,3.5h-1.3l1.7-8h1.1l-0.2,1.5h0.1
			c0.3-0.4,0.6-0.7,0.9-0.9c0.3-0.2,0.5-0.4,0.8-0.5c0.3-0.1,0.6-0.2,1-0.2c0.6,0,1.1,0.2,1.5,0.5c0.4,0.3,0.5,0.8,0.5,1.5
			c0,0.4-0.1,0.8-0.2,1.3L72.3,105z"/>
		<path id="XMLID_169_" class="st1" d="M77.2,108.6c-1,0-1.8-0.2-2.4-0.5v-1.2c0.3,0.2,0.7,0.3,1.1,0.5c0.5,0.1,0.9,0.2,1.2,0.2
			c0.6,0,1.2-0.2,1.6-0.5c0.4-0.3,0.7-0.8,0.8-1.5l0.4-1.5l0.1-0.5H80c-0.4,0.6-0.9,1-1.3,1.2c-0.4,0.3-0.9,0.4-1.3,0.4
			c-0.7,0-1.2-0.2-1.6-0.7s-0.6-1.2-0.6-2c0-1,0.2-2,0.5-2.9c0.4-0.9,0.8-1.5,1.4-2c0.6-0.5,1.3-0.7,2-0.7c0.9,0,1.6,0.5,2,1.4h0.1
			l0.5-1.2h1l-1.8,8.5c-0.2,1.1-0.6,1.9-1.2,2.4C79,108.3,78.2,108.6,77.2,108.6z M77.8,104c0.4,0,0.9-0.2,1.4-0.7s0.8-1,1.1-1.7
			c0.3-0.7,0.4-1.4,0.4-2.1c0-1.1-0.5-1.6-1.5-1.6c-0.5,0-0.9,0.2-1.4,0.6c-0.4,0.4-0.7,1-1,1.7c-0.2,0.7-0.4,1.4-0.4,2.2
			C76.5,103.5,76.9,104,77.8,104z"/>
		<path id="XMLID_172_" class="st1" d="M92.8,98.2l-0.4,0.9l-0.6,1.4l-2.1,4.5h-1.6l-0.3-8h1.3l0.1,5c0,0.3,0,1-0.1,1.8h0.1
			c0.1-0.1,0.2-0.5,0.4-0.9c0.2-0.5,0.4-0.9,0.5-1.3c0.2-0.4,0.9-1.9,2.2-4.7h1.4l0.3,4.3l0,1.8v0.4l0,0.3h0.1
			c0.3-0.8,0.6-1.7,1.2-2.9l1.8-3.9h1.4l-3.7,8h-1.6l-0.2-4.4l0-1L92.8,98.2L92.8,98.2z"/>
		<path id="XMLID_174_" class="st1" d="M101.5,105.1c-0.9,0-1.6-0.3-2.1-0.8c-0.5-0.5-0.8-1.3-0.8-2.2c0-0.9,0.2-1.8,0.5-2.6
			c0.4-0.8,0.8-1.5,1.5-2c0.6-0.5,1.3-0.7,2-0.7c0.8,0,1.3,0.2,1.7,0.5c0.4,0.3,0.6,0.8,0.6,1.4c0,0.9-0.4,1.6-1.2,2.1
			c-0.8,0.5-2,0.8-3.5,0.8h-0.2l0,0.6c0,0.6,0.1,1.1,0.4,1.4c0.3,0.4,0.8,0.5,1.4,0.5c0.4,0,0.7-0.1,1.1-0.2
			c0.3-0.1,0.7-0.3,1.1-0.5v1.1c-0.5,0.2-0.9,0.4-1.3,0.5C102.3,105.1,101.9,105.1,101.5,105.1z M102.5,97.9c-0.5,0-1,0.2-1.4,0.7
			c-0.4,0.5-0.8,1.1-1,1.8h0.1c1.1,0,1.9-0.1,2.5-0.4s0.9-0.7,0.9-1.2c0-0.3-0.1-0.5-0.3-0.6S102.9,97.9,102.5,97.9z"/>
		<path id="XMLID_177_" class="st1" d="M109.4,105.1c-0.5,0-0.9-0.1-1.2-0.4c-0.4-0.2-0.6-0.6-0.8-1h-0.1l-0.5,1.2h-1l2.4-11.4h1.3
			l-0.6,2.7c-0.1,0.4-0.2,0.9-0.3,1.4s-0.2,0.7-0.2,0.8h0.1c0.5-0.6,1-1,1.4-1.3c0.4-0.2,0.8-0.4,1.3-0.4c0.7,0,1.2,0.2,1.6,0.7
			c0.4,0.5,0.6,1.1,0.6,2c0,1-0.2,1.9-0.5,2.8c-0.3,0.9-0.8,1.5-1.4,2C110.8,104.9,110.1,105.1,109.4,105.1z M110.6,97.9
			c-0.5,0-0.9,0.2-1.4,0.7c-0.5,0.5-0.8,1-1.1,1.7c-0.3,0.7-0.4,1.4-0.4,2.1c0,0.5,0.1,0.9,0.4,1.2c0.3,0.3,0.6,0.4,1.1,0.4
			c0.5,0,0.9-0.2,1.3-0.6s0.7-1,1-1.7c0.2-0.7,0.4-1.5,0.4-2.2C111.9,98.4,111.5,97.9,110.6,97.9z"/>
		<path id="XMLID_180_" class="st1" d="M121.6,105.1c-0.9,0-1.7-0.3-2.2-0.8c-0.5-0.5-0.8-1.3-0.8-2.2c0-1,0.2-1.9,0.5-2.7
			c0.4-0.8,0.9-1.5,1.5-1.9s1.4-0.7,2.2-0.7c0.7,0,1.4,0.1,2,0.4l-0.4,1.1c-0.6-0.3-1.1-0.4-1.6-0.4c-0.5,0-1,0.2-1.5,0.6
			c-0.4,0.4-0.8,0.9-1,1.5c-0.2,0.6-0.4,1.4-0.4,2.1c0,0.6,0.2,1.1,0.5,1.4c0.3,0.3,0.7,0.5,1.3,0.5c0.4,0,0.7,0,1-0.1
			c0.3-0.1,0.6-0.2,0.9-0.4v1.1C123,104.9,122.4,105.1,121.6,105.1z"/>
		<path id="XMLID_182_" class="st1" d="M132.4,99.9c0,0.9-0.2,1.8-0.5,2.6c-0.4,0.8-0.8,1.4-1.4,1.9c-0.6,0.4-1.3,0.7-2.1,0.7
			c-0.9,0-1.7-0.3-2.2-0.8s-0.8-1.3-0.8-2.3c0-0.9,0.2-1.8,0.5-2.6s0.8-1.4,1.4-1.9c0.6-0.4,1.3-0.7,2-0.7c0.9,0,1.7,0.3,2.2,0.8
			C132.2,98.2,132.4,99,132.4,99.9z M131.1,99.8c0-0.6-0.1-1-0.4-1.4c-0.3-0.3-0.7-0.5-1.2-0.5c-0.5,0-1,0.2-1.4,0.5
			c-0.4,0.4-0.7,0.9-1,1.5c-0.2,0.6-0.3,1.3-0.3,2.1c0,0.6,0.1,1.1,0.5,1.4c0.3,0.3,0.7,0.5,1.3,0.5c0.5,0,0.9-0.2,1.3-0.5
			c0.4-0.3,0.7-0.8,0.9-1.5C131,101.3,131.1,100.6,131.1,99.8z M129,95.7c0.3-0.3,0.5-0.6,0.9-1.1c0.3-0.4,0.6-0.8,0.8-1.2h1.5v0.2
			c-0.2,0.3-0.6,0.7-1.1,1.1c-0.5,0.5-0.9,0.9-1.3,1.1H129V95.7z"/>
		<path id="XMLID_186_" class="st1" d="M139.9,105.1c-0.7,0-1.2-0.2-1.6-0.7c-0.4-0.5-0.6-1.1-0.6-2c0-1,0.2-2,0.5-2.8
			c0.3-0.9,0.8-1.5,1.4-2c0.6-0.5,1.3-0.7,2-0.7c0.9,0,1.6,0.5,2,1.4h0.1c0.1-0.8,0.2-1.5,0.3-2l0.5-2.6h1.3l-2.4,11.4h-1.1l0.2-1.5
			h-0.1c-0.5,0.6-0.9,1-1.3,1.3C140.8,105,140.4,105.1,139.9,105.1z M140.4,104c0.5,0,0.9-0.2,1.4-0.7c0.5-0.5,0.8-1,1.1-1.7
			c0.3-0.7,0.4-1.4,0.4-2.1c0-0.5-0.1-0.9-0.4-1.2s-0.6-0.4-1.1-0.4c-0.5,0-0.9,0.2-1.3,0.6c-0.4,0.4-0.7,1-1,1.7
			c-0.2,0.7-0.4,1.5-0.4,2.2C139.1,103.5,139.5,104,140.4,104z"/>
		<path id="XMLID_189_" class="st1" d="M145.7,106.9c0-0.3,0.1-0.5,0.3-0.7c0.2-0.2,0.4-0.3,0.6-0.3c0.2,0,0.4,0.1,0.5,0.2
			c0.1,0.1,0.2,0.3,0.2,0.5c0,0.3-0.1,0.5-0.3,0.7c-0.2,0.2-0.4,0.3-0.6,0.3c-0.2,0-0.4-0.1-0.5-0.2S145.7,107.1,145.7,106.9z
			 M147.5,105h-1.3l1.7-8h1.3L147.5,105z M148.2,94.9c0-0.3,0.1-0.5,0.2-0.7c0.2-0.2,0.4-0.3,0.6-0.3c0.5,0,0.7,0.2,0.7,0.7
			c0,0.3-0.1,0.5-0.3,0.7c-0.2,0.2-0.4,0.3-0.6,0.3c-0.2,0-0.4-0.1-0.5-0.2C148.3,95.3,148.2,95.1,148.2,94.9z"/>
		<path id="XMLID_332_" class="st1" d="M153.3,105.1c-0.9,0-1.7-0.3-2.2-0.8c-0.5-0.5-0.8-1.3-0.8-2.2c0-1,0.2-1.9,0.5-2.7
			c0.4-0.8,0.9-1.5,1.5-1.9s1.4-0.7,2.2-0.7c0.7,0,1.4,0.1,2,0.4l-0.4,1.1c-0.6-0.3-1.1-0.4-1.6-0.4c-0.5,0-1,0.2-1.5,0.6
			c-0.4,0.4-0.8,0.9-1,1.5c-0.2,0.6-0.4,1.4-0.4,2.1c0,0.6,0.2,1.1,0.5,1.4c0.3,0.3,0.7,0.5,1.3,0.5c0.4,0,0.7,0,1-0.1
			c0.3-0.1,0.6-0.2,0.9-0.4v1.1C154.7,104.9,154.1,105.1,153.3,105.1z"/>
		<path id="XMLID_334_" class="st1" d="M163,105h-1.3l1.1-5c0.1-0.4,0.1-0.8,0.1-1c0-0.7-0.4-1.1-1.1-1.1c-0.4,0-0.8,0.1-1.2,0.4
			c-0.4,0.3-0.8,0.7-1.1,1.2c-0.3,0.5-0.5,1.2-0.7,1.9l-0.7,3.5h-1.3l2.4-11.4h1.3l-0.6,3c-0.1,0.3-0.1,0.6-0.2,0.9
			c-0.1,0.3-0.2,0.6-0.3,1h0.1c0.4-0.6,0.9-1,1.3-1.2c0.4-0.3,0.9-0.4,1.4-0.4c0.6,0,1.1,0.2,1.5,0.5c0.4,0.3,0.5,0.9,0.5,1.5
			c0,0.3-0.1,0.7-0.2,1.2L163,105z"/>
		<path id="XMLID_336_" class="st1" d="M171.7,104c0.6-1.2,1-2.1,1.2-2.6l2.4-4.4h1.4l-4.3,8h-1.7l-0.9-8h1.3l0.4,4.5
			c0,0.4,0.1,0.9,0.1,1.5C171.6,103.4,171.6,103.8,171.7,104L171.7,104z"/>
		<path id="XMLID_338_" class="st1" d="M178,96.9h1.3l-1.1,5.1c-0.1,0.4-0.1,0.8-0.1,1c0,0.7,0.3,1,1,1c0.4,0,0.8-0.1,1.2-0.4
			c0.4-0.3,0.8-0.7,1.1-1.3c0.3-0.5,0.5-1.2,0.7-1.9l0.7-3.5h1.3l-1.7,8h-1.1l0.2-1.5h-0.1c-0.4,0.6-0.9,1-1.3,1.2
			c-0.4,0.3-0.9,0.4-1.4,0.4c-0.6,0-1.1-0.2-1.5-0.5c-0.4-0.3-0.5-0.8-0.5-1.5c0-0.3,0.1-0.7,0.2-1.3L178,96.9z M178.4,106.9
			c0-0.3,0.1-0.5,0.3-0.7c0.2-0.2,0.4-0.3,0.6-0.3c0.2,0,0.4,0.1,0.5,0.2c0.1,0.1,0.2,0.3,0.2,0.5c0,0.3-0.1,0.5-0.3,0.7
			c-0.2,0.2-0.4,0.3-0.6,0.3c-0.2,0-0.4-0.1-0.5-0.2S178.4,107.1,178.4,106.9z"/>
		<path id="XMLID_341_" class="st1" d="M192.3,105.1c-0.9,0-1.7-0.3-2.2-0.8c-0.5-0.5-0.8-1.3-0.8-2.2c0-1,0.2-1.9,0.5-2.7
			c0.4-0.8,0.9-1.5,1.5-1.9s1.4-0.7,2.2-0.7c0.7,0,1.4,0.1,2,0.4l-0.4,1.1c-0.6-0.3-1.1-0.4-1.6-0.4c-0.5,0-1,0.2-1.5,0.6
			c-0.4,0.4-0.8,0.9-1,1.5c-0.2,0.6-0.4,1.4-0.4,2.1c0,0.6,0.2,1.1,0.5,1.4c0.3,0.3,0.7,0.5,1.3,0.5c0.4,0,0.7,0,1-0.1
			c0.3-0.1,0.6-0.2,0.9-0.4v1.1C193.7,104.9,193,105.1,192.3,105.1z"/>
		<path id="XMLID_343_" class="st1" d="M202,105h-1.3l1.1-5c0.1-0.4,0.1-0.8,0.1-1c0-0.7-0.4-1.1-1.1-1.1c-0.4,0-0.8,0.1-1.2,0.4
			c-0.4,0.3-0.8,0.7-1.1,1.2c-0.3,0.5-0.5,1.2-0.7,1.9l-0.7,3.5h-1.3l2.4-11.4h1.3l-0.6,3c-0.1,0.3-0.1,0.6-0.2,0.9
			c-0.1,0.3-0.2,0.6-0.3,1h0.1c0.4-0.6,0.9-1,1.3-1.2c0.4-0.3,0.9-0.4,1.4-0.4c0.6,0,1.1,0.2,1.5,0.5c0.4,0.3,0.5,0.9,0.5,1.5
			c0,0.3-0.1,0.7-0.2,1.2L202,105z"/>
		<path id="XMLID_345_" class="st1" d="M206.1,96.9h1.3l-1.1,5.1c-0.1,0.4-0.1,0.8-0.1,1c0,0.7,0.3,1,1,1c0.4,0,0.8-0.1,1.2-0.4
			c0.4-0.3,0.8-0.7,1.1-1.3c0.3-0.5,0.5-1.2,0.7-1.9l0.7-3.5h1.3l-1.7,8h-1.1l0.2-1.5h-0.1c-0.4,0.6-0.9,1-1.3,1.2
			c-0.4,0.3-0.9,0.4-1.4,0.4c-0.6,0-1.1-0.2-1.5-0.5c-0.4-0.3-0.5-0.8-0.5-1.5c0-0.3,0.1-0.7,0.2-1.3L206.1,96.9z"/>
		<path id="XMLID_347_" class="st1" d="M213.4,96.9h1.3l0.5,4c0.1,0.4,0.1,0.8,0.1,1.4c0,0.6,0.1,1.1,0.1,1.6h0
			c0.1-0.3,0.3-0.8,0.6-1.3c0.3-0.6,0.5-1,0.6-1.2l2.3-4.4h1.4l-5.1,9.4c-0.4,0.8-0.9,1.4-1.3,1.8c-0.5,0.3-1,0.5-1.6,0.5
			c-0.4,0-0.7-0.1-1-0.2v-1.1c0.3,0.1,0.6,0.1,1,0.1c0.4,0,0.7-0.1,1-0.4c0.3-0.3,0.6-0.6,0.8-1.1l0.5-0.9L213.4,96.9z"/>
		<path id="XMLID_349_" class="st1" d="M223.4,105.1c-0.9,0-1.6-0.3-2.1-0.8c-0.5-0.5-0.8-1.3-0.8-2.2c0-0.9,0.2-1.8,0.5-2.6
			c0.4-0.8,0.8-1.5,1.5-2c0.6-0.5,1.3-0.7,2-0.7c0.8,0,1.3,0.2,1.7,0.5c0.4,0.3,0.6,0.8,0.6,1.4c0,0.9-0.4,1.6-1.2,2.1
			c-0.8,0.5-2,0.8-3.5,0.8h-0.2l0,0.6c0,0.6,0.1,1.1,0.4,1.4c0.3,0.4,0.8,0.5,1.4,0.5c0.4,0,0.7-0.1,1.1-0.2
			c0.3-0.1,0.7-0.3,1.1-0.5v1.1c-0.5,0.2-0.9,0.4-1.3,0.5C224.2,105.1,223.8,105.1,223.4,105.1z M224.4,97.9c-0.5,0-1,0.2-1.4,0.7
			c-0.4,0.5-0.8,1.1-1,1.8h0.1c1.1,0,1.9-0.1,2.5-0.4s0.9-0.7,0.9-1.2c0-0.3-0.1-0.5-0.3-0.6S224.8,97.9,224.4,97.9z M224.4,93.8
			h1.4c0.1,0.3,0.2,0.6,0.5,0.9c0.2,0.4,0.4,0.7,0.7,1l-0.1,0.2h-0.5c-0.4-0.3-0.9-0.7-1.4-1.2c-0.6,0.5-1.3,0.9-1.9,1.2h-0.6
			l0.1-0.2C223.3,94.9,223.9,94.3,224.4,93.8z M226.7,94.3l0.1-0.7c0.3-0.1,0.6-0.1,0.8-0.2c0.2-0.1,0.3-0.2,0.3-0.4
			c0-0.1-0.1-0.2-0.2-0.3c-0.1,0-0.3-0.1-0.5-0.1c-0.2,0-0.4,0-0.5,0.1v-0.6c0.1,0,0.3,0,0.7,0c0.4,0,0.7,0.1,0.9,0.2
			c0.2,0.1,0.3,0.4,0.3,0.6c0,0.3-0.1,0.6-0.3,0.7c-0.2,0.2-0.5,0.3-0.8,0.4l-0.1,0.3H226.7z"/>
		<path id="XMLID_354_" class="st1" d="M233.8,105h-1.3l1.1-5c0.1-0.5,0.2-0.8,0.2-1c0-0.3-0.1-0.6-0.3-0.7
			c-0.2-0.2-0.4-0.3-0.8-0.3c-0.4,0-0.8,0.1-1.2,0.4c-0.4,0.3-0.8,0.7-1.1,1.2c-0.3,0.5-0.5,1.2-0.7,1.9L229,105h-1.3l1.7-8h1.1
			l-0.2,1.5h0.1c0.3-0.4,0.6-0.7,0.9-0.9c0.3-0.2,0.5-0.4,0.8-0.5c0.3-0.1,0.6-0.2,1-0.2c0.6,0,1.1,0.2,1.5,0.5
			c0.4,0.3,0.5,0.8,0.5,1.5c0,0.4-0.1,0.8-0.2,1.3L233.8,105z"/>
		<path id="XMLID_356_" class="st1" d="M246.4,105h-1.3l1.1-5c0.1-0.4,0.1-0.8,0.1-1c0-0.7-0.4-1.1-1.1-1.1c-0.4,0-0.8,0.1-1.2,0.4
			c-0.4,0.3-0.8,0.7-1.1,1.2c-0.3,0.5-0.5,1.2-0.7,1.9l-0.7,3.5h-1.3l2.4-11.4h1.3l-0.6,3c-0.1,0.3-0.1,0.6-0.2,0.9
			c-0.1,0.3-0.2,0.6-0.3,1h0.1c0.4-0.6,0.9-1,1.3-1.2c0.4-0.3,0.9-0.4,1.4-0.4c0.6,0,1.1,0.2,1.5,0.5c0.4,0.3,0.5,0.9,0.5,1.5
			c0,0.3-0.1,0.7-0.2,1.2L246.4,105z"/>
		<path id="XMLID_358_" class="st1" d="M251.4,105.1c-0.7,0-1.2-0.2-1.6-0.7c-0.4-0.5-0.6-1.2-0.6-2c0-1,0.2-1.9,0.5-2.8
			c0.3-0.9,0.8-1.5,1.4-2s1.3-0.7,2-0.7c0.5,0,0.9,0.1,1.2,0.4c0.3,0.2,0.6,0.6,0.8,1h0.1l0.5-1.2h1l-1.7,8h-1l0.2-1.5h-0.1
			C253.3,104.6,252.4,105.1,251.4,105.1z M251.8,104c0.5,0,0.9-0.2,1.4-0.7c0.5-0.4,0.8-1,1.1-1.7c0.3-0.7,0.4-1.4,0.4-2.2
			c0-0.5-0.1-0.9-0.4-1.2c-0.3-0.3-0.6-0.4-1-0.4c-0.5,0-1,0.2-1.4,0.6c-0.4,0.4-0.8,1-1,1.7s-0.4,1.4-0.4,2.2
			c0,0.5,0.1,0.9,0.3,1.2S251.4,104,251.8,104z M254.6,95.9h-0.8c-0.3-0.3-0.6-0.7-1-1.2c-0.3-0.5-0.6-0.8-0.7-1.1v-0.2h1.4
			c0.2,0.7,0.5,1.4,1,2.2V95.9z"/>
		<path id="XMLID_362_" class="st1" d="M263.6,105h-1.3l1.1-5c0.1-0.5,0.2-0.8,0.2-1c0-0.3-0.1-0.6-0.3-0.7
			c-0.2-0.2-0.4-0.3-0.8-0.3c-0.4,0-0.8,0.1-1.2,0.4c-0.4,0.3-0.8,0.7-1.1,1.2c-0.3,0.5-0.5,1.2-0.7,1.9l-0.7,3.5h-1.3l1.7-8h1.1
			l-0.2,1.5h0.1c0.3-0.4,0.6-0.7,0.9-0.9c0.3-0.2,0.5-0.4,0.8-0.5c0.3-0.1,0.6-0.2,1-0.2c0.6,0,1.1,0.2,1.5,0.5
			c0.4,0.3,0.5,0.8,0.5,1.5c0,0.4-0.1,0.8-0.2,1.3L263.6,105z"/>
		<path id="XMLID_364_" class="st1" d="M268.5,108.6c-1,0-1.8-0.2-2.4-0.5v-1.2c0.3,0.2,0.7,0.3,1.1,0.5c0.5,0.1,0.9,0.2,1.2,0.2
			c0.6,0,1.2-0.2,1.6-0.5c0.4-0.3,0.7-0.8,0.8-1.5l0.4-1.5l0.1-0.5h-0.1c-0.4,0.6-0.9,1-1.3,1.2c-0.4,0.3-0.9,0.4-1.3,0.4
			c-0.7,0-1.2-0.2-1.6-0.7s-0.6-1.2-0.6-2c0-1,0.2-2,0.5-2.9c0.4-0.9,0.8-1.5,1.4-2c0.6-0.5,1.3-0.7,2-0.7c0.9,0,1.6,0.5,2,1.4h0.1
			l0.5-1.2h1l-1.8,8.5c-0.2,1.1-0.6,1.9-1.2,2.4C270.3,108.3,269.5,108.6,268.5,108.6z M269,104c0.4,0,0.9-0.2,1.4-0.7
			s0.8-1,1.1-1.7c0.3-0.7,0.4-1.4,0.4-2.1c0-1.1-0.5-1.6-1.5-1.6c-0.5,0-0.9,0.2-1.4,0.6c-0.4,0.4-0.7,1-1,1.7
			c-0.2,0.7-0.4,1.4-0.4,2.2C267.8,103.5,268.2,104,269,104z"/>
		<path id="XMLID_367_" class="st1" d="M53.1,113.3c-0.9,0-1.6,0.2-2.3,0.7c-0.7,0.5-1.2,1.2-1.5,2.1c-0.4,0.9-0.6,1.9-0.6,2.9
			c0,0.9,0.2,1.6,0.7,2.2c0.5,0.5,1.1,0.8,1.9,0.8c0.7,0,1.5-0.1,2.4-0.4v1.2c-0.8,0.3-1.7,0.4-2.6,0.4c-1.2,0-2.1-0.4-2.8-1.1
			c-0.7-0.7-1-1.7-1-3c0-1.3,0.3-2.4,0.8-3.5c0.5-1.1,1.2-1.9,2.1-2.5s1.9-0.9,3-0.9c1,0,1.9,0.2,2.6,0.6l-0.5,1.1
			C54.5,113.5,53.8,113.3,53.1,113.3z"/>
		<path id="XMLID_369_" class="st1" d="M65.4,116.3c0,1.3-0.2,2.5-0.7,3.6c-0.4,1-1.1,1.8-1.9,2.4c-0.8,0.6-1.7,0.8-2.8,0.8
			c-1.3,0-2.2-0.4-2.9-1.1c-0.7-0.7-1-1.7-1-3.1c0-1.3,0.2-2.5,0.7-3.5c0.5-1.1,1.1-1.9,1.9-2.5c0.8-0.6,1.8-0.9,2.8-0.9
			c1.2,0,2.2,0.4,2.8,1.1C65.1,114,65.4,115,65.4,116.3z M61.5,113.3c-0.8,0-1.4,0.2-2,0.7s-1.1,1.2-1.4,2c-0.3,0.9-0.5,1.8-0.5,2.9
			c0,1,0.2,1.7,0.7,2.2c0.5,0.5,1.1,0.8,1.9,0.8c0.7,0,1.4-0.2,2-0.7s1-1.1,1.4-2c0.3-0.9,0.5-1.9,0.5-2.9c0-0.9-0.2-1.7-0.7-2.2
			C62.9,113.5,62.2,113.3,61.5,113.3z"/>
		<path id="XMLID_372_" class="st1" d="M75.4,116.5c0,1.3-0.3,2.4-0.8,3.4c-0.5,1-1.2,1.7-2.2,2.3c-1,0.5-2.1,0.8-3.3,0.8h-2.6
			l2.3-10.7h2.5c1.3,0,2.4,0.4,3.1,1.1C75.1,114.1,75.4,115.1,75.4,116.5z M69.2,121.8c1,0,1.8-0.2,2.5-0.7c0.7-0.4,1.3-1.1,1.7-1.9
			c0.4-0.8,0.6-1.7,0.6-2.8c0-1-0.2-1.8-0.7-2.3c-0.5-0.5-1.2-0.8-2.1-0.8h-1.3l-1.8,8.4H69.2z"/>
		<path id="XMLID_375_" class="st1" d="M77.7,121.2l0.1,0.2c-0.5,1-1.1,2.2-2,3.5h-1c0.4-1,0.9-2.2,1.5-3.7H77.7z"/>
		<path id="XMLID_377_" class="st1" d="M89.8,123h-1.3l1.1-5c0.1-0.5,0.2-0.8,0.2-1c0-0.3-0.1-0.6-0.3-0.7c-0.2-0.2-0.4-0.3-0.8-0.3
			c-0.4,0-0.8,0.1-1.2,0.4c-0.4,0.3-0.8,0.7-1.1,1.2c-0.3,0.5-0.5,1.2-0.7,1.9l-0.7,3.5h-1.3l1.7-8h1.1l-0.2,1.5h0.1
			c0.3-0.4,0.6-0.7,0.9-0.9c0.3-0.2,0.5-0.4,0.8-0.5c0.3-0.1,0.6-0.2,1-0.2c0.6,0,1.1,0.2,1.5,0.5c0.4,0.3,0.5,0.8,0.5,1.5
			c0,0.4-0.1,0.8-0.2,1.3L89.8,123z"/>
		<path id="XMLID_379_" class="st1" d="M95.5,123.1c-0.9,0-1.6-0.3-2.1-0.8c-0.5-0.5-0.8-1.3-0.8-2.2c0-0.9,0.2-1.8,0.5-2.6
			c0.4-0.8,0.8-1.5,1.5-2c0.6-0.5,1.3-0.7,2-0.7c0.8,0,1.3,0.2,1.7,0.5c0.4,0.3,0.6,0.8,0.6,1.4c0,0.9-0.4,1.6-1.2,2.1
			c-0.8,0.5-2,0.8-3.5,0.8h-0.2l0,0.6c0,0.6,0.1,1.1,0.4,1.4c0.3,0.4,0.8,0.5,1.4,0.5c0.4,0,0.7-0.1,1.1-0.2
			c0.3-0.1,0.7-0.3,1.1-0.5v1.1c-0.5,0.2-0.9,0.4-1.3,0.5C96.3,123.1,95.9,123.1,95.5,123.1z M96.5,115.9c-0.5,0-1,0.2-1.4,0.7
			c-0.4,0.5-0.8,1.1-1,1.8h0.1c1.1,0,1.9-0.1,2.5-0.4s0.9-0.7,0.9-1.2c0-0.3-0.1-0.5-0.3-0.6S96.9,115.9,96.5,115.9z M98.4,113.9
			c-0.4-0.3-0.9-0.7-1.4-1.2c-0.6,0.5-1.3,0.9-1.9,1.2h-0.6l0.1-0.2c0.9-0.7,1.5-1.4,1.9-1.9h1.4c0.1,0.3,0.2,0.6,0.5,0.9
			c0.2,0.4,0.4,0.7,0.7,1l-0.1,0.2H98.4z M98.6,112.4v-0.2c0.6-0.6,1.1-1.1,1.3-1.5h1.3v0.2c-0.2,0.2-0.5,0.5-0.8,0.8
			c-0.4,0.3-0.7,0.5-1,0.7H98.6z"/>
		<path id="XMLID_384_" class="st1" d="M101.4,114.9h1.3l-1.1,5.1c-0.1,0.4-0.1,0.8-0.1,1c0,0.7,0.3,1,1,1c0.4,0,0.8-0.1,1.2-0.4
			c0.4-0.3,0.8-0.7,1.1-1.3c0.3-0.5,0.5-1.2,0.7-1.9l0.7-3.5h1.3l-1.7,8h-1.1l0.2-1.5h-0.1c-0.4,0.6-0.9,1-1.3,1.2
			c-0.4,0.3-0.9,0.4-1.4,0.4c-0.6,0-1.1-0.2-1.5-0.5c-0.4-0.3-0.5-0.8-0.5-1.5c0-0.3,0.1-0.7,0.2-1.3L101.4,114.9z"/>
		<path id="XMLID_386_" class="st1" d="M114.6,122c0.6-1.2,1-2.1,1.2-2.6l2.4-4.4h1.4l-4.3,8h-1.7l-0.9-8h1.3l0.4,4.5
			c0,0.4,0.1,0.9,0.1,1.5C114.6,121.4,114.6,121.8,114.6,122L114.6,122z"/>
		<path id="XMLID_388_" class="st1" d="M121.8,123.1c-0.7,0-1.2-0.2-1.6-0.7s-0.6-1.2-0.6-2c0-1,0.2-1.9,0.5-2.8
			c0.3-0.9,0.8-1.5,1.4-2s1.3-0.7,2-0.7c0.5,0,0.9,0.1,1.2,0.4c0.3,0.2,0.6,0.6,0.8,1h0.1l0.5-1.2h1l-1.7,8h-1l0.2-1.5h-0.1
			C123.7,122.6,122.8,123.1,121.8,123.1z M122.3,122c0.5,0,0.9-0.2,1.4-0.7c0.5-0.4,0.8-1,1.1-1.7c0.3-0.7,0.4-1.4,0.4-2.2
			c0-0.5-0.1-0.9-0.4-1.2c-0.3-0.3-0.6-0.4-1-0.4c-0.5,0-1,0.2-1.4,0.6c-0.4,0.4-0.8,1-1,1.7s-0.4,1.4-0.4,2.2
			c0,0.5,0.1,0.9,0.3,1.2S121.9,122,122.3,122z M121.3,124.9c0-0.3,0.1-0.5,0.3-0.7c0.2-0.2,0.4-0.3,0.6-0.3c0.2,0,0.4,0.1,0.5,0.2
			c0.1,0.1,0.2,0.3,0.2,0.5c0,0.3-0.1,0.5-0.3,0.7c-0.2,0.2-0.4,0.3-0.6,0.3c-0.2,0-0.4-0.1-0.5-0.2S121.3,125.1,121.3,124.9z
			 M126.4,113.9h-0.8c-0.3-0.2-0.7-0.7-1.2-1.4c-0.6,0.6-1.2,1-1.8,1.4h-0.9v-0.2c1.2-1.1,1.9-1.8,2.1-2.2h1.3c0.2,0.5,0.5,1,1,1.7
			l0.3,0.5V113.9z"/>
		<path id="XMLID_393_" class="st1" d="M128.2,114.9h1.3l0.5,4c0.1,0.4,0.1,0.8,0.1,1.4c0,0.6,0.1,1.1,0.1,1.6h0
			c0.1-0.3,0.3-0.8,0.6-1.3c0.3-0.6,0.5-1,0.6-1.2l2.3-4.4h1.4l-5.1,9.4c-0.4,0.8-0.9,1.4-1.3,1.8c-0.5,0.3-1,0.5-1.6,0.5
			c-0.4,0-0.7-0.1-1-0.2v-1.1c0.3,0.1,0.6,0.1,1,0.1c0.4,0,0.7-0.1,1-0.4c0.3-0.3,0.6-0.6,0.8-1.1l0.5-0.9L128.2,114.9z"/>
		<path id="XMLID_395_" class="st1" d="M141.3,122c0.3,0,0.7-0.1,1.1-0.2v1c-0.1,0.1-0.3,0.1-0.6,0.2c-0.3,0.1-0.5,0.1-0.7,0.1
			c-0.6,0-1.1-0.1-1.4-0.4s-0.5-0.7-0.5-1.3c0-0.3,0-0.7,0.1-1.1l0.9-4.4H139l0.1-0.6l1.4-0.6l0.9-1.7h0.8l-0.4,1.8h2l-0.2,1h-2
			l-0.9,4.4c-0.1,0.4-0.1,0.7-0.1,0.9c0,0.2,0.1,0.4,0.2,0.6C140.8,121.9,141,122,141.3,122z"/>
		<path id="XMLID_397_" class="st1" d="M150,123h-1.3l1.1-5c0.1-0.4,0.1-0.8,0.1-1c0-0.7-0.4-1.1-1.1-1.1c-0.4,0-0.8,0.1-1.2,0.4
			c-0.4,0.3-0.8,0.7-1.1,1.2c-0.3,0.5-0.5,1.2-0.7,1.9l-0.7,3.5h-1.3l2.4-11.4h1.3l-0.6,3c-0.1,0.3-0.1,0.6-0.2,0.9
			c-0.1,0.3-0.2,0.6-0.3,1h0.1c0.4-0.6,0.9-1,1.3-1.2c0.4-0.3,0.9-0.4,1.4-0.4c0.6,0,1.1,0.2,1.5,0.5c0.4,0.3,0.5,0.9,0.5,1.5
			c0,0.3-0.1,0.7-0.2,1.2L150,123z"/>
		<path id="XMLID_399_" class="st1" d="M153.8,123h-1.3l1.7-8h1.3L153.8,123z M155.7,113.9h-0.8c-0.3-0.3-0.6-0.7-1-1.2
			s-0.6-0.8-0.7-1.1v-0.2h1.4c0.2,0.7,0.5,1.4,1,2.2V113.9z"/>
		<path id="XMLID_402_" class="st1" d="M165.5,114.8c0.6,0,1,0.2,1.3,0.5c0.3,0.3,0.5,0.8,0.5,1.3h0.1c0.8-1.2,1.7-1.8,2.8-1.8
			c0.6,0,1.1,0.2,1.4,0.5c0.3,0.3,0.5,0.8,0.5,1.5c0,0.4-0.1,0.9-0.2,1.3l-1,4.9h-1.3l1.1-5c0.1-0.5,0.1-0.8,0.1-1
			c0-0.3-0.1-0.5-0.2-0.7c-0.2-0.2-0.4-0.3-0.8-0.3c-0.4,0-0.8,0.1-1.1,0.4c-0.4,0.3-0.7,0.7-1,1.2c-0.3,0.5-0.5,1.1-0.7,1.8
			l-0.8,3.6h-1.3l1.1-5c0.1-0.5,0.1-0.8,0.1-1c0-0.7-0.3-1.1-1-1.1c-0.4,0-0.8,0.1-1.2,0.4s-0.7,0.7-1,1.2c-0.3,0.5-0.5,1.2-0.7,1.9
			l-0.7,3.5h-1.3l1.7-8h1.1l-0.2,1.5h0.1c0.3-0.4,0.6-0.8,0.9-1c0.2-0.2,0.5-0.4,0.8-0.5C164.8,114.8,165.1,114.8,165.5,114.8z"/>
		<path id="XMLID_404_" class="st1" d="M174.6,123h-1.3l1.7-8h1.3L174.6,123z M176.5,113.9h-0.8c-0.3-0.3-0.6-0.7-1-1.2
			s-0.6-0.8-0.7-1.1v-0.2h1.4c0.2,0.7,0.5,1.4,1,2.2V113.9z"/>
		<path id="XMLID_407_" class="st1" d="M183.4,123h-1.3l1.1-5c0.1-0.5,0.2-0.8,0.2-1c0-0.3-0.1-0.6-0.3-0.7
			c-0.2-0.2-0.4-0.3-0.8-0.3c-0.4,0-0.8,0.1-1.2,0.4c-0.4,0.3-0.8,0.7-1.1,1.2c-0.3,0.5-0.5,1.2-0.7,1.9l-0.7,3.5h-1.3l1.7-8h1.1
			l-0.2,1.5h0.1c0.3-0.4,0.6-0.7,0.9-0.9c0.3-0.2,0.5-0.4,0.8-0.5c0.3-0.1,0.6-0.2,1-0.2c0.6,0,1.1,0.2,1.5,0.5
			c0.4,0.3,0.5,0.8,0.5,1.5c0,0.4-0.1,0.8-0.2,1.3L183.4,123z"/>
		<path id="XMLID_409_" class="st1" d="M192.1,123h-1.3l1.1-5c0.1-0.4,0.1-0.8,0.1-1c0-0.7-0.4-1.1-1.1-1.1c-0.4,0-0.8,0.1-1.2,0.4
			c-0.4,0.3-0.8,0.7-1.1,1.2c-0.3,0.5-0.5,1.2-0.7,1.9l-0.7,3.5h-1.3l2.4-11.4h1.3l-0.6,3c-0.1,0.3-0.1,0.6-0.2,0.9
			c-0.1,0.3-0.2,0.6-0.3,1h0.1c0.4-0.6,0.9-1,1.3-1.2c0.4-0.3,0.9-0.4,1.4-0.4c0.6,0,1.1,0.2,1.5,0.5c0.4,0.3,0.5,0.9,0.5,1.5
			c0,0.3-0.1,0.7-0.2,1.2L192.1,123z"/>
		<path id="XMLID_411_" class="st1" d="M201.7,123.1c-0.9,0-1.7-0.3-2.2-0.8c-0.5-0.5-0.8-1.3-0.8-2.2c0-1,0.2-1.9,0.5-2.7
			c0.4-0.8,0.9-1.5,1.5-1.9s1.4-0.7,2.2-0.7c0.7,0,1.4,0.1,2,0.4l-0.4,1.1c-0.6-0.3-1.1-0.4-1.6-0.4c-0.5,0-1,0.2-1.5,0.6
			c-0.4,0.4-0.8,0.9-1,1.5c-0.2,0.6-0.4,1.4-0.4,2.1c0,0.6,0.2,1.1,0.5,1.4c0.3,0.3,0.7,0.5,1.3,0.5c0.4,0,0.7,0,1-0.1
			c0.3-0.1,0.6-0.2,0.9-0.4v1.1C203.2,122.9,202.5,123.1,201.7,123.1z"/>
		<path id="XMLID_413_" class="st1" d="M211.5,123h-1.3l1.1-5c0.1-0.4,0.1-0.8,0.1-1c0-0.7-0.4-1.1-1.1-1.1c-0.4,0-0.8,0.1-1.2,0.4
			c-0.4,0.3-0.8,0.7-1.1,1.2c-0.3,0.5-0.5,1.2-0.7,1.9l-0.7,3.5h-1.3l2.4-11.4h1.3l-0.6,3c-0.1,0.3-0.1,0.6-0.2,0.9
			c-0.1,0.3-0.2,0.6-0.3,1h0.1c0.4-0.6,0.9-1,1.3-1.2c0.4-0.3,0.9-0.4,1.4-0.4c0.6,0,1.1,0.2,1.5,0.5c0.4,0.3,0.5,0.9,0.5,1.5
			c0,0.3-0.1,0.7-0.2,1.2L211.5,123z"/>
		<path id="XMLID_415_" class="st1" d="M216.4,123.1c-0.7,0-1.2-0.2-1.6-0.7s-0.6-1.2-0.6-2c0-1,0.2-1.9,0.5-2.8
			c0.3-0.9,0.8-1.5,1.4-2s1.3-0.7,2-0.7c0.5,0,0.9,0.1,1.2,0.4c0.3,0.2,0.6,0.6,0.8,1h0.1l0.5-1.2h1l-1.7,8h-1l0.2-1.5h-0.1
			C218.3,122.6,217.4,123.1,216.4,123.1z M216.9,122c0.5,0,0.9-0.2,1.4-0.7c0.5-0.4,0.8-1,1.1-1.7c0.3-0.7,0.4-1.4,0.4-2.2
			c0-0.5-0.1-0.9-0.4-1.2c-0.3-0.3-0.6-0.4-1-0.4c-0.5,0-1,0.2-1.4,0.6c-0.4,0.4-0.8,1-1,1.7s-0.4,1.4-0.4,2.2
			c0,0.5,0.1,0.9,0.3,1.2S216.5,122,216.9,122z M221.3,111.9c-0.2,0.6-0.4,1.1-0.9,1.4c-0.4,0.3-0.9,0.5-1.6,0.5
			c-0.6,0-1.1-0.2-1.4-0.5c-0.4-0.3-0.5-0.8-0.6-1.4h0.8c0.1,0.3,0.2,0.6,0.4,0.7c0.2,0.1,0.5,0.2,0.9,0.2c0.7,0,1.2-0.3,1.5-0.9
			H221.3z M220.4,110.7c0,0.3-0.1,0.6-0.3,0.7c-0.2,0.2-0.5,0.3-0.8,0.4l-0.1,0.3h-0.6l0.1-0.7c0.3-0.1,0.6-0.1,0.7-0.2
			c0.2-0.1,0.2-0.2,0.2-0.4c0-0.1-0.1-0.2-0.2-0.3c-0.1,0-0.3-0.1-0.4-0.1c-0.2,0-0.4,0-0.5,0.1v-0.6c0.1,0,0.4-0.1,0.7-0.1
			c0.4,0,0.7,0.1,0.9,0.2C220.3,110.1,220.4,110.4,220.4,110.7z"/>
		<path id="XMLID_420_" class="st1" d="M228.7,123h-1.3l1.1-5c0.1-0.5,0.2-0.8,0.2-1c0-0.3-0.1-0.6-0.3-0.7
			c-0.2-0.2-0.4-0.3-0.8-0.3c-0.4,0-0.8,0.1-1.2,0.4c-0.4,0.3-0.8,0.7-1.1,1.2c-0.3,0.5-0.5,1.2-0.7,1.9l-0.7,3.5h-1.3l1.7-8h1.1
			l-0.2,1.5h0.1c0.3-0.4,0.6-0.7,0.9-0.9c0.3-0.2,0.5-0.4,0.8-0.5c0.3-0.1,0.6-0.2,1-0.2c0.6,0,1.1,0.2,1.5,0.5
			c0.4,0.3,0.5,0.8,0.5,1.5c0,0.4-0.1,0.8-0.2,1.3L228.7,123z"/>
		<path id="XMLID_422_" class="st1" d="M233.5,126.6c-1,0-1.8-0.2-2.4-0.5v-1.2c0.3,0.2,0.7,0.3,1.1,0.5c0.5,0.1,0.9,0.2,1.2,0.2
			c0.6,0,1.2-0.2,1.6-0.5c0.4-0.3,0.7-0.8,0.8-1.5l0.4-1.5l0.1-0.5h-0.1c-0.4,0.6-0.9,1-1.3,1.2c-0.4,0.3-0.9,0.4-1.3,0.4
			c-0.7,0-1.2-0.2-1.6-0.7s-0.6-1.2-0.6-2c0-1,0.2-2,0.5-2.9c0.4-0.9,0.8-1.5,1.4-2c0.6-0.5,1.3-0.7,2-0.7c0.9,0,1.6,0.5,2,1.4h0.1
			l0.5-1.2h1l-1.8,8.5c-0.2,1.1-0.6,1.9-1.2,2.4C235.3,126.3,234.5,126.6,233.5,126.6z M234.1,122c0.4,0,0.9-0.2,1.4-0.7
			s0.8-1,1.1-1.7c0.3-0.7,0.4-1.4,0.4-2.1c0-1.1-0.5-1.6-1.5-1.6c-0.5,0-0.9,0.2-1.4,0.6c-0.4,0.4-0.7,1-1,1.7
			c-0.2,0.7-0.4,1.4-0.4,2.2C232.8,121.5,233.2,122,234.1,122z"/>
		<path id="XMLID_425_" class="st1" d="M247,123.1c-0.9,0-1.7-0.3-2.2-0.8c-0.5-0.5-0.8-1.3-0.8-2.2c0-1,0.2-1.9,0.5-2.7
			c0.4-0.8,0.9-1.5,1.5-1.9s1.4-0.7,2.2-0.7c0.7,0,1.4,0.1,2,0.4l-0.4,1.1c-0.6-0.3-1.1-0.4-1.6-0.4c-0.5,0-1,0.2-1.5,0.6
			c-0.4,0.4-0.8,0.9-1,1.5c-0.2,0.6-0.4,1.4-0.4,2.1c0,0.6,0.2,1.1,0.5,1.4c0.3,0.3,0.7,0.5,1.3,0.5c0.4,0,0.7,0,1-0.1
			c0.3-0.1,0.6-0.2,0.9-0.4v1.1C248.5,122.9,247.8,123.1,247,123.1z"/>
		<path id="XMLID_427_" class="st1" d="M253,123.1c-0.7,0-1.2-0.2-1.6-0.7s-0.6-1.2-0.6-2c0-1,0.2-1.9,0.5-2.8
			c0.3-0.9,0.8-1.5,1.4-2s1.3-0.7,2-0.7c0.5,0,0.9,0.1,1.2,0.4c0.3,0.2,0.6,0.6,0.8,1h0.1l0.5-1.2h1l-1.7,8h-1l0.2-1.5h-0.1
			C254.9,122.6,254,123.1,253,123.1z M253.3,112.4c-0.4-0.4-0.8-0.9-1.3-1.5l0-0.2h1.1c0.3,0.5,0.5,1,0.9,1.5v0.2H253.3z M253.4,122
			c0.5,0,0.9-0.2,1.4-0.7c0.5-0.4,0.8-1,1.1-1.7c0.3-0.7,0.4-1.4,0.4-2.2c0-0.5-0.1-0.9-0.4-1.2c-0.3-0.3-0.6-0.4-1-0.4
			c-0.5,0-1,0.2-1.4,0.6c-0.4,0.4-0.8,1-1,1.7s-0.4,1.4-0.4,2.2c0,0.5,0.1,0.9,0.3,1.2S253,122,253.4,122z M257,113.9
			c-0.4-0.3-0.9-0.7-1.4-1.2c-0.6,0.5-1.3,0.9-1.9,1.2h-0.6l0.1-0.2c0.9-0.7,1.5-1.4,1.9-1.9h1.4c0.1,0.3,0.2,0.6,0.5,0.9
			c0.2,0.4,0.4,0.7,0.7,1l-0.1,0.2H257z"/>
		<path id="XMLID_432_" class="st1" d="M265.2,123h-1.3l1.1-5c0.1-0.5,0.2-0.8,0.2-1c0-0.3-0.1-0.6-0.3-0.7
			c-0.2-0.2-0.4-0.3-0.8-0.3c-0.4,0-0.8,0.1-1.2,0.4c-0.4,0.3-0.8,0.7-1.1,1.2c-0.3,0.5-0.5,1.2-0.7,1.9l-0.7,3.5H259l1.7-8h1.1
			l-0.2,1.5h0.1c0.3-0.4,0.6-0.7,0.9-0.9c0.3-0.2,0.5-0.4,0.8-0.5c0.3-0.1,0.6-0.2,1-0.2c0.6,0,1.1,0.2,1.5,0.5
			c0.4,0.3,0.5,0.8,0.5,1.5c0,0.4-0.1,0.8-0.2,1.3L265.2,123z"/>
		<path id="XMLID_434_" class="st1" d="M52,132.8c0.7,0,1.2,0.2,1.6,0.7c0.4,0.5,0.6,1.2,0.6,2c0,1-0.2,2-0.5,2.9
			c-0.3,0.9-0.8,1.5-1.4,2c-0.6,0.5-1.3,0.7-2,0.7c-0.9,0-1.6-0.5-2.1-1.4h-0.1c-0.1,0.7-0.1,1.1-0.2,1.4l-0.7,3.5h-1.3l2.5-11.6
			h1.1l-0.2,1.5h0.1c0.5-0.6,0.9-1,1.4-1.2C51.1,132.9,51.6,132.8,52,132.8z M51.6,133.9c-0.5,0-0.9,0.2-1.4,0.7
			c-0.5,0.4-0.8,1-1.1,1.7c-0.3,0.7-0.4,1.4-0.4,2.1c0,0.5,0.1,0.9,0.4,1.2c0.3,0.3,0.6,0.4,1.1,0.4c0.5,0,0.9-0.2,1.3-0.6
			s0.7-1,1-1.7c0.2-0.7,0.4-1.5,0.4-2.2C52.8,134.4,52.4,133.9,51.6,133.9z"/>
		<path id="XMLID_437_" class="st1" d="M61.6,141h-1.3l1.1-5c0.1-0.4,0.1-0.8,0.1-1c0-0.7-0.4-1.1-1.1-1.1c-0.4,0-0.8,0.1-1.2,0.4
			c-0.4,0.3-0.8,0.7-1.1,1.2c-0.3,0.5-0.5,1.2-0.7,1.9l-0.7,3.5h-1.3l2.4-11.4h1.3l-0.6,3c-0.1,0.3-0.1,0.6-0.2,0.9
			c-0.1,0.3-0.2,0.6-0.3,1H58c0.4-0.6,0.9-1,1.3-1.2c0.4-0.3,0.9-0.4,1.4-0.4c0.6,0,1.1,0.2,1.5,0.5c0.4,0.3,0.5,0.9,0.5,1.5
			c0,0.3-0.1,0.7-0.2,1.2L61.6,141z"/>
		<path id="XMLID_439_" class="st1" d="M66.5,141.1c-0.7,0-1.2-0.2-1.6-0.7s-0.6-1.2-0.6-2c0-1,0.2-1.9,0.5-2.8
			c0.3-0.9,0.8-1.5,1.4-2s1.3-0.7,2-0.7c0.5,0,0.9,0.1,1.2,0.4c0.3,0.2,0.6,0.6,0.8,1h0.1l0.5-1.2h1l-1.7,8h-1l0.2-1.5h-0.1
			C68.4,140.6,67.5,141.1,66.5,141.1z M67,140c0.5,0,0.9-0.2,1.4-0.7c0.5-0.4,0.8-1,1.1-1.7c0.3-0.7,0.4-1.4,0.4-2.2
			c0-0.5-0.1-0.9-0.4-1.2c-0.3-0.3-0.6-0.4-1-0.4c-0.5,0-1,0.2-1.4,0.6c-0.4,0.4-0.8,1-1,1.7s-0.4,1.4-0.4,2.2
			c0,0.5,0.1,0.9,0.3,1.2S66.6,140,67,140z M70.9,129.9c0,0.4-0.1,0.7-0.4,1c-0.3,0.2-0.6,0.4-1.1,0.5l-0.2,0.8h-0.8l0.1-1.3
			c0.4-0.1,0.8-0.2,1-0.3c0.2-0.1,0.3-0.3,0.3-0.5c0-0.2-0.1-0.3-0.2-0.4c-0.1-0.1-0.3-0.1-0.6-0.1c-0.2,0-0.4,0-0.7,0.1v-0.8
			c0.2-0.1,0.5-0.1,0.9-0.1c0.5,0,1,0.1,1.3,0.3S70.9,129.5,70.9,129.9z"/>
		<path id="XMLID_443_" class="st1" d="M73.9,141h-1.3l1.7-8h1.3L73.9,141z M74.6,130.9c0-0.3,0.1-0.5,0.2-0.7
			c0.2-0.2,0.4-0.3,0.6-0.3c0.5,0,0.7,0.2,0.7,0.7c0,0.3-0.1,0.5-0.3,0.7c-0.2,0.2-0.4,0.3-0.6,0.3c-0.2,0-0.4-0.1-0.5-0.2
			C74.7,131.3,74.6,131.1,74.6,130.9z"/>
		<path id="XMLID_446_" class="st1" d="M83.6,141.1c-0.9,0-1.7-0.3-2.2-0.8c-0.5-0.5-0.8-1.3-0.8-2.2c0-1,0.2-1.9,0.5-2.7
			c0.4-0.8,0.9-1.5,1.5-1.9s1.4-0.7,2.2-0.7c0.7,0,1.4,0.1,2,0.4l-0.4,1.1c-0.6-0.3-1.1-0.4-1.6-0.4c-0.5,0-1,0.2-1.5,0.6
			c-0.4,0.4-0.8,0.9-1,1.5c-0.2,0.6-0.4,1.4-0.4,2.1c0,0.6,0.2,1.1,0.5,1.4c0.3,0.3,0.7,0.5,1.3,0.5c0.4,0,0.7,0,1-0.1
			c0.3-0.1,0.6-0.2,0.9-0.4v1.1C85.1,140.9,84.4,141.1,83.6,141.1z"/>
		<path id="XMLID_448_" class="st1" d="M88.7,132.9h1.3L89,138c-0.1,0.4-0.1,0.8-0.1,1c0,0.7,0.3,1,1,1c0.4,0,0.8-0.1,1.2-0.4
			c0.4-0.3,0.8-0.7,1.1-1.3c0.3-0.5,0.5-1.2,0.7-1.9l0.7-3.5h1.3l-1.7,8h-1.1l0.2-1.5h-0.1c-0.4,0.6-0.9,1-1.3,1.2
			c-0.4,0.3-0.9,0.4-1.4,0.4c-0.6,0-1.1-0.2-1.5-0.5c-0.4-0.3-0.5-0.8-0.5-1.5c0-0.3,0.1-0.7,0.2-1.3L88.7,132.9z"/>
		<path id="XMLID_450_" class="st1" d="M102,141h-1.3l1.1-5c0.1-0.5,0.2-0.8,0.2-1c0-0.3-0.1-0.6-0.3-0.7c-0.2-0.2-0.4-0.3-0.8-0.3
			c-0.4,0-0.8,0.1-1.2,0.4c-0.4,0.3-0.8,0.7-1.1,1.2c-0.3,0.5-0.5,1.2-0.7,1.9l-0.7,3.5h-1.3l1.7-8h1.1l-0.2,1.5h0.1
			c0.3-0.4,0.6-0.7,0.9-0.9c0.3-0.2,0.5-0.4,0.8-0.5c0.3-0.1,0.6-0.2,1-0.2c0.6,0,1.1,0.2,1.5,0.5c0.4,0.3,0.5,0.8,0.5,1.5
			c0,0.4-0.1,0.8-0.2,1.3L102,141z"/>
		<path id="XMLID_452_" class="st1" d="M106.9,144.6c-1,0-1.8-0.2-2.4-0.5v-1.2c0.3,0.2,0.7,0.3,1.1,0.5c0.5,0.1,0.9,0.2,1.2,0.2
			c0.6,0,1.2-0.2,1.6-0.5c0.4-0.3,0.7-0.8,0.8-1.5l0.4-1.5l0.1-0.5h-0.1c-0.4,0.6-0.9,1-1.3,1.2c-0.4,0.3-0.9,0.4-1.3,0.4
			c-0.7,0-1.2-0.2-1.6-0.7s-0.6-1.2-0.6-2c0-1,0.2-2,0.5-2.9c0.4-0.9,0.8-1.5,1.4-2c0.6-0.5,1.3-0.7,2-0.7c0.9,0,1.6,0.5,2,1.4h0.1
			l0.5-1.2h1l-1.8,8.5c-0.2,1.1-0.6,1.9-1.2,2.4C108.7,144.3,107.9,144.6,106.9,144.6z M107.4,140c0.4,0,0.9-0.2,1.4-0.7
			s0.8-1,1.1-1.7c0.3-0.7,0.4-1.4,0.4-2.1c0-1.1-0.5-1.6-1.5-1.6c-0.5,0-0.9,0.2-1.4,0.6c-0.4,0.4-0.7,1-1,1.7
			c-0.2,0.7-0.4,1.4-0.4,2.2C106.1,139.5,106.6,140,107.4,140z"/>
		<path id="XMLID_455_" class="st1" d="M120.4,141.1c-0.9,0-1.7-0.3-2.2-0.8c-0.5-0.5-0.8-1.3-0.8-2.2c0-1,0.2-1.9,0.5-2.7
			c0.4-0.8,0.9-1.5,1.5-1.9s1.4-0.7,2.2-0.7c0.7,0,1.4,0.1,2,0.4l-0.4,1.1c-0.6-0.3-1.1-0.4-1.6-0.4c-0.5,0-1,0.2-1.5,0.6
			c-0.4,0.4-0.8,0.9-1,1.5c-0.2,0.6-0.4,1.4-0.4,2.1c0,0.6,0.2,1.1,0.5,1.4c0.3,0.3,0.7,0.5,1.3,0.5c0.4,0,0.7,0,1-0.1
			c0.3-0.1,0.6-0.2,0.9-0.4v1.1C121.8,140.9,121.1,141.1,120.4,141.1z"/>
		<path id="XMLID_457_" class="st1" d="M126.3,141.1c-0.7,0-1.2-0.2-1.6-0.7s-0.6-1.2-0.6-2c0-1,0.2-1.9,0.5-2.8
			c0.3-0.9,0.8-1.5,1.4-2s1.3-0.7,2-0.7c0.5,0,0.9,0.1,1.2,0.4c0.3,0.2,0.6,0.6,0.8,1h0.1l0.5-1.2h1l-1.7,8h-1l0.2-1.5h-0.1
			C128.2,140.6,127.3,141.1,126.3,141.1z M126.8,140c0.5,0,0.9-0.2,1.4-0.7c0.5-0.4,0.8-1,1.1-1.7c0.3-0.7,0.4-1.4,0.4-2.2
			c0-0.5-0.1-0.9-0.4-1.2c-0.3-0.3-0.6-0.4-1-0.4c-0.5,0-1,0.2-1.4,0.6c-0.4,0.4-0.8,1-1,1.7s-0.4,1.4-0.4,2.2
			c0,0.5,0.1,0.9,0.3,1.2S126.4,140,126.8,140z M130.3,131.9c-0.4-0.3-0.9-0.7-1.4-1.2c-0.7,0.5-1.3,0.9-1.9,1.2h-0.6l0.1-0.2
			c0.9-0.7,1.5-1.4,1.9-1.9h1.4c0.1,0.3,0.2,0.6,0.5,0.9c0.2,0.4,0.4,0.7,0.7,1l-0.1,0.2H130.3z M130.5,130.4v-0.2
			c0.6-0.6,1.1-1.1,1.3-1.5h1.3v0.2c-0.2,0.2-0.5,0.5-0.8,0.8c-0.4,0.3-0.7,0.5-1,0.7H130.5z"/>
		<path id="XMLID_462_" class="st1" d="M137.7,132.8c0.7,0,1.2,0.2,1.6,0.7c0.4,0.5,0.6,1.2,0.6,2c0,1-0.2,2-0.5,2.9
			c-0.3,0.9-0.8,1.5-1.4,2c-0.6,0.5-1.3,0.7-2,0.7c-0.9,0-1.6-0.5-2.1-1.4h-0.1c-0.1,0.7-0.1,1.1-0.2,1.4l-0.7,3.5h-1.3l2.5-11.6
			h1.1l-0.2,1.5h0.1c0.5-0.6,0.9-1,1.4-1.2C136.9,132.9,137.3,132.8,137.7,132.8z M137.3,133.9c-0.5,0-0.9,0.2-1.4,0.7
			c-0.5,0.4-0.8,1-1.1,1.7c-0.3,0.7-0.4,1.4-0.4,2.1c0,0.5,0.1,0.9,0.4,1.2c0.3,0.3,0.6,0.4,1.1,0.4c0.5,0,0.9-0.2,1.3-0.6
			s0.7-1,1-1.7c0.2-0.7,0.4-1.5,0.4-2.2C138.6,134.4,138.1,133.9,137.3,133.9z"/>
		<path id="XMLID_465_" class="st1" d="M147.5,140c0.3,0,0.7-0.1,1.1-0.2v1c-0.1,0.1-0.3,0.1-0.6,0.2c-0.3,0.1-0.5,0.1-0.7,0.1
			c-0.6,0-1.1-0.1-1.4-0.4s-0.5-0.7-0.5-1.3c0-0.3,0-0.7,0.1-1.1l0.9-4.4h-1.2l0.1-0.6l1.4-0.6l0.9-1.7h0.8l-0.4,1.8h2l-0.2,1h-2
			l-0.9,4.4c-0.1,0.4-0.1,0.7-0.1,0.9c0,0.2,0.1,0.4,0.2,0.6C147,139.9,147.2,140,147.5,140z"/>
		<path id="XMLID_467_" class="st1" d="M156.2,141h-1.3l1.1-5c0.1-0.4,0.1-0.8,0.1-1c0-0.7-0.4-1.1-1.1-1.1c-0.4,0-0.8,0.1-1.2,0.4
			c-0.4,0.3-0.8,0.7-1.1,1.2c-0.3,0.5-0.5,1.2-0.7,1.9l-0.7,3.5H150l2.4-11.4h1.3l-0.6,3c-0.1,0.3-0.1,0.6-0.2,0.9
			c-0.1,0.3-0.2,0.6-0.3,1h0.1c0.4-0.6,0.9-1,1.3-1.2c0.4-0.3,0.9-0.4,1.4-0.4c0.6,0,1.1,0.2,1.5,0.5c0.4,0.3,0.5,0.9,0.5,1.5
			c0,0.3-0.1,0.7-0.2,1.2L156.2,141z"/>
		<path id="XMLID_469_" class="st1" d="M166,135.9c0,0.9-0.2,1.8-0.5,2.6c-0.4,0.8-0.8,1.4-1.4,1.9c-0.6,0.4-1.3,0.7-2.1,0.7
			c-0.9,0-1.7-0.3-2.2-0.8s-0.8-1.3-0.8-2.3c0-0.9,0.2-1.8,0.5-2.6s0.8-1.4,1.4-1.9c0.6-0.4,1.3-0.7,2-0.7c0.9,0,1.7,0.3,2.2,0.8
			C165.7,134.2,166,135,166,135.9z M164.6,135.8c0-0.6-0.1-1-0.4-1.4c-0.3-0.3-0.7-0.5-1.2-0.5c-0.5,0-1,0.2-1.4,0.5
			c-0.4,0.4-0.7,0.9-1,1.5c-0.2,0.6-0.3,1.3-0.3,2.1c0,0.6,0.1,1.1,0.5,1.4c0.3,0.3,0.7,0.5,1.3,0.5c0.5,0,0.9-0.2,1.3-0.5
			c0.4-0.3,0.7-0.8,0.9-1.5C164.5,137.3,164.6,136.6,164.6,135.8z M165.6,131.9h-0.8c-0.3-0.2-0.7-0.7-1.2-1.4
			c-0.6,0.6-1.2,1-1.8,1.4H161v-0.2c1.2-1.1,1.9-1.8,2.1-2.2h1.3c0.2,0.5,0.5,1,1,1.7l0.3,0.5V131.9z"/>
		<path id="XMLID_473_" class="st1" d="M173.3,141H172l1.1-5c0.1-0.5,0.2-0.8,0.2-1c0-0.3-0.1-0.6-0.3-0.7c-0.2-0.2-0.4-0.3-0.8-0.3
			c-0.4,0-0.8,0.1-1.2,0.4c-0.4,0.3-0.8,0.7-1.1,1.2c-0.3,0.5-0.5,1.2-0.7,1.9l-0.7,3.5h-1.3l1.7-8h1.1l-0.2,1.5h0.1
			c0.3-0.4,0.6-0.7,0.9-0.9c0.3-0.2,0.5-0.4,0.8-0.5c0.3-0.1,0.6-0.2,1-0.2c0.6,0,1.1,0.2,1.5,0.5c0.4,0.3,0.5,0.8,0.5,1.5
			c0,0.4-0.1,0.8-0.2,1.3L173.3,141z"/>
		<path id="XMLID_475_" class="st1" d="M178.1,144.6c-1,0-1.8-0.2-2.4-0.5v-1.2c0.3,0.2,0.7,0.3,1.1,0.5c0.5,0.1,0.9,0.2,1.2,0.2
			c0.6,0,1.2-0.2,1.6-0.5c0.4-0.3,0.7-0.8,0.8-1.5l0.4-1.5l0.1-0.5h-0.1c-0.4,0.6-0.9,1-1.3,1.2c-0.4,0.3-0.9,0.4-1.3,0.4
			c-0.7,0-1.2-0.2-1.6-0.7s-0.6-1.2-0.6-2c0-1,0.2-2,0.5-2.9c0.4-0.9,0.8-1.5,1.4-2c0.6-0.5,1.3-0.7,2-0.7c0.9,0,1.6,0.5,2,1.4h0.1
			l0.5-1.2h1l-1.8,8.5c-0.2,1.1-0.6,1.9-1.2,2.4C180,144.3,179.2,144.6,178.1,144.6z M178.7,140c0.4,0,0.9-0.2,1.4-0.7
			s0.8-1,1.1-1.7c0.3-0.7,0.4-1.4,0.4-2.1c0-1.1-0.5-1.6-1.5-1.6c-0.5,0-0.9,0.2-1.4,0.6c-0.4,0.4-0.7,1-1,1.7
			c-0.2,0.7-0.4,1.4-0.4,2.2C177.4,139.5,177.9,140,178.7,140z"/>
		<path id="XMLID_478_" class="st1" d="M190.9,140c0.3,0,0.7-0.1,1.1-0.2v1c-0.1,0.1-0.3,0.1-0.6,0.2c-0.3,0.1-0.5,0.1-0.7,0.1
			c-0.6,0-1.1-0.1-1.4-0.4s-0.5-0.7-0.5-1.3c0-0.3,0-0.7,0.1-1.1l0.9-4.4h-1.2l0.1-0.6l1.4-0.6l0.9-1.7h0.8l-0.4,1.8h2l-0.2,1h-2
			l-0.9,4.4c-0.1,0.4-0.1,0.7-0.1,0.9c0,0.2,0.1,0.4,0.2,0.6C190.4,139.9,190.6,140,190.9,140z"/>
		<path id="XMLID_480_" class="st1" d="M194.7,141h-1.3l1.7-8h1.3L194.7,141z M195.4,130.9c0-0.3,0.1-0.5,0.2-0.7
			c0.2-0.2,0.4-0.3,0.6-0.3c0.5,0,0.7,0.2,0.7,0.7c0,0.3-0.1,0.5-0.3,0.7c-0.2,0.2-0.4,0.3-0.6,0.3c-0.2,0-0.4-0.1-0.5-0.2
			C195.5,131.3,195.4,131.1,195.4,130.9z"/>
		<path id="XMLID_483_" class="st1" d="M203.4,141h-1.3l1.1-5c0.1-0.5,0.2-0.8,0.2-1c0-0.3-0.1-0.6-0.3-0.7
			c-0.2-0.2-0.4-0.3-0.8-0.3c-0.4,0-0.8,0.1-1.2,0.4c-0.4,0.3-0.8,0.7-1.1,1.2c-0.3,0.5-0.5,1.2-0.7,1.9l-0.7,3.5h-1.3l1.7-8h1.1
			l-0.2,1.5h0.1c0.3-0.4,0.6-0.7,0.9-0.9c0.3-0.2,0.5-0.4,0.8-0.5c0.3-0.1,0.6-0.2,1-0.2c0.6,0,1.1,0.2,1.5,0.5
			c0.4,0.3,0.5,0.8,0.5,1.5c0,0.4-0.1,0.8-0.2,1.3L203.4,141z"/>
		<path id="XMLID_485_" class="st1" d="M213.1,141.1c-0.9,0-1.7-0.3-2.2-0.8c-0.5-0.5-0.8-1.3-0.8-2.2c0-1,0.2-1.9,0.5-2.7
			c0.4-0.8,0.9-1.5,1.5-1.9s1.4-0.7,2.2-0.7c0.7,0,1.4,0.1,2,0.4l-0.4,1.1c-0.6-0.3-1.1-0.4-1.6-0.4c-0.5,0-1,0.2-1.5,0.6
			c-0.4,0.4-0.8,0.9-1,1.5c-0.2,0.6-0.4,1.4-0.4,2.1c0,0.6,0.2,1.1,0.5,1.4c0.3,0.3,0.7,0.5,1.3,0.5c0.4,0,0.7,0,1-0.1
			c0.3-0.1,0.6-0.2,0.9-0.4v1.1C214.5,140.9,213.8,141.1,213.1,141.1z"/>
		<path id="XMLID_487_" class="st1" d="M219.1,141.1c-0.7,0-1.2-0.2-1.6-0.7s-0.6-1.2-0.6-2c0-1,0.2-1.9,0.5-2.8
			c0.3-0.9,0.8-1.5,1.4-2s1.3-0.7,2-0.7c0.5,0,0.9,0.1,1.2,0.4c0.3,0.2,0.6,0.6,0.8,1h0.1l0.5-1.2h1l-1.7,8h-1l0.2-1.5h-0.1
			C220.9,140.6,220,141.1,219.1,141.1z M219.5,140c0.5,0,0.9-0.2,1.4-0.7c0.5-0.4,0.8-1,1.1-1.7c0.3-0.7,0.4-1.4,0.4-2.2
			c0-0.5-0.1-0.9-0.4-1.2c-0.3-0.3-0.6-0.4-1-0.4c-0.5,0-1,0.2-1.4,0.6c-0.4,0.4-0.8,1-1,1.7s-0.4,1.4-0.4,2.2
			c0,0.5,0.1,0.9,0.3,1.2S219.1,140,219.5,140z M220.6,131.7c0.2-0.3,0.5-0.6,0.9-1.1c0.3-0.4,0.6-0.8,0.8-1.2h1.5v0.2
			c-0.2,0.3-0.6,0.7-1.1,1.1c-0.5,0.5-0.9,0.9-1.3,1.1h-0.8V131.7z"/>
		<path id="XMLID_491_" class="st1" d="M235.2,141h-1.3l1.1-5c0.1-0.5,0.2-0.8,0.2-1c0-0.3-0.1-0.6-0.3-0.7
			c-0.2-0.2-0.4-0.3-0.8-0.3c-0.4,0-0.8,0.1-1.2,0.4c-0.4,0.3-0.8,0.7-1.1,1.2c-0.3,0.5-0.5,1.2-0.7,1.9l-0.7,3.5H229l1.7-8h1.1
			l-0.2,1.5h0.1c0.3-0.4,0.6-0.7,0.9-0.9c0.3-0.2,0.5-0.4,0.8-0.5c0.3-0.1,0.6-0.2,1-0.2c0.6,0,1.1,0.2,1.5,0.5
			c0.4,0.3,0.5,0.8,0.5,1.5c0,0.4-0.1,0.8-0.2,1.3L235.2,141z"/>
		<path id="XMLID_493_" class="st1" d="M243.9,141h-1.3l1.1-5c0.1-0.4,0.1-0.8,0.1-1c0-0.7-0.4-1.1-1.1-1.1c-0.4,0-0.8,0.1-1.2,0.4
			c-0.4,0.3-0.8,0.7-1.1,1.2c-0.3,0.5-0.5,1.2-0.7,1.9L239,141h-1.3l2.4-11.4h1.3l-0.6,3c-0.1,0.3-0.1,0.6-0.2,0.9
			c-0.1,0.3-0.2,0.6-0.3,1h0.1c0.4-0.6,0.9-1,1.3-1.2c0.4-0.3,0.9-0.4,1.4-0.4c0.6,0,1.1,0.2,1.5,0.5c0.4,0.3,0.5,0.9,0.5,1.5
			c0,0.3-0.1,0.7-0.2,1.2L243.9,141z"/>
		<path id="XMLID_495_" class="st1" d="M248.8,141.1c-0.7,0-1.2-0.2-1.6-0.7s-0.6-1.2-0.6-2c0-1,0.2-1.9,0.5-2.8
			c0.3-0.9,0.8-1.5,1.4-2s1.3-0.7,2-0.7c0.5,0,0.9,0.1,1.2,0.4c0.3,0.2,0.6,0.6,0.8,1h0.1l0.5-1.2h1l-1.7,8h-1l0.2-1.5h-0.1
			C250.7,140.6,249.8,141.1,248.8,141.1z M249.3,140c0.5,0,0.9-0.2,1.4-0.7c0.5-0.4,0.8-1,1.1-1.7c0.3-0.7,0.4-1.4,0.4-2.2
			c0-0.5-0.1-0.9-0.4-1.2c-0.3-0.3-0.6-0.4-1-0.4c-0.5,0-0.9,0.2-1.4,0.6c-0.4,0.4-0.8,1-1,1.7s-0.4,1.4-0.4,2.2
			c0,0.5,0.1,0.9,0.3,1.2S248.9,140,249.3,140z M253.4,131.9h-0.8c-0.3-0.2-0.7-0.7-1.2-1.4c-0.6,0.6-1.2,1-1.8,1.4h-0.9v-0.2
			c1.2-1.1,1.9-1.8,2.1-2.2h1.3c0.2,0.5,0.5,1,1,1.7l0.3,0.5V131.9z"/>
		<path id="XMLID_499_" class="st1" d="M261.1,141h-1.3l1.1-5c0.1-0.5,0.2-0.8,0.2-1c0-0.3-0.1-0.6-0.3-0.7
			c-0.2-0.2-0.4-0.3-0.8-0.3c-0.4,0-0.8,0.1-1.2,0.4c-0.4,0.3-0.8,0.7-1.1,1.2c-0.3,0.5-0.5,1.2-0.7,1.9l-0.7,3.5h-1.3l1.7-8h1.1
			l-0.2,1.5h0.1c0.3-0.4,0.6-0.7,0.9-0.9c0.3-0.2,0.5-0.4,0.8-0.5c0.3-0.1,0.6-0.2,1-0.2c0.6,0,1.1,0.2,1.5,0.5
			c0.4,0.3,0.5,0.8,0.5,1.5c0,0.4-0.1,0.8-0.2,1.3L261.1,141z"/>
		<path id="XMLID_501_" class="st1" d="M52.9,159h-1.3l1.1-5c0.1-0.5,0.2-0.8,0.2-1c0-0.3-0.1-0.6-0.3-0.7c-0.2-0.2-0.4-0.3-0.8-0.3
			c-0.4,0-0.8,0.1-1.2,0.4c-0.4,0.3-0.8,0.7-1.1,1.2c-0.3,0.5-0.5,1.2-0.7,1.9L48,159h-1.3l1.7-8h1.1l-0.2,1.5h0.1
			c0.3-0.4,0.6-0.7,0.9-0.9c0.3-0.2,0.5-0.4,0.8-0.5c0.3-0.1,0.6-0.2,1-0.2c0.6,0,1.1,0.2,1.5,0.5c0.4,0.3,0.5,0.8,0.5,1.5
			c0,0.4-0.1,0.8-0.2,1.3L52.9,159z"/>
		<path id="XMLID_503_" class="st1" d="M58.3,150.9l-1.1,5.1c-0.1,0.4-0.1,0.8-0.1,1c0,0.7,0.3,1.1,1,1.1c0.4,0,0.8-0.1,1.2-0.4
			c0.4-0.3,0.8-0.7,1.1-1.3c0.3-0.5,0.5-1.2,0.7-1.9l0.7-3.5h1.3l-0.2,0.9c0.4-0.1,0.7-0.3,1-0.6c0.3-0.3,0.4-0.8,0.5-1.5h1.4
			l0.1,0.2c-0.2,0.8-0.5,1.4-1.1,1.9c-0.6,0.5-1.3,0.8-2.1,1l-1.3,6.2h-1.1l0.2-1.5h-0.1c-0.4,0.6-0.9,1-1.3,1.2
			c-0.4,0.3-0.9,0.4-1.4,0.4c-0.6,0-1.1-0.2-1.5-0.5c-0.4-0.4-0.5-0.9-0.5-1.5c0-0.3,0.1-0.7,0.2-1.2l1.1-4.9H58.3z M61.4,149.9
			c-0.2,0-0.4,0-0.6-0.1c-0.2-0.1-0.4-0.2-0.5-0.3c-0.2-0.1-0.3-0.2-0.5-0.3c-0.2-0.1-0.3-0.1-0.5-0.1c-0.2,0-0.4,0.1-0.5,0.2
			s-0.2,0.4-0.3,0.6h-0.8c0.3-1.3,0.9-1.9,1.7-1.9c0.2,0,0.4,0,0.6,0.1c0.2,0.1,0.4,0.2,0.5,0.3c0.2,0.1,0.3,0.2,0.5,0.3
			c0.2,0.1,0.3,0.1,0.4,0.1c0.2,0,0.4-0.1,0.5-0.2c0.1-0.1,0.3-0.3,0.4-0.6h0.8C62.9,149.2,62.3,149.9,61.4,149.9z"/>
		<path id="XMLID_770_" class="st1" d="M67.2,159.1c-0.7,0-1.2-0.2-1.6-0.7s-0.6-1.2-0.6-2c0-1,0.2-1.9,0.5-2.8
			c0.3-0.9,0.8-1.5,1.4-2s1.3-0.7,2-0.7c0.5,0,0.9,0.1,1.2,0.4c0.3,0.2,0.6,0.6,0.8,1h0.1l0.5-1.2h1l-1.7,8h-1l0.2-1.5H70
			C69.1,158.6,68.2,159.1,67.2,159.1z M67.7,158c0.5,0,0.9-0.2,1.4-0.7c0.5-0.4,0.8-1,1.1-1.7c0.3-0.7,0.4-1.4,0.4-2.2
			c0-0.5-0.1-0.9-0.4-1.2c-0.3-0.3-0.6-0.4-1-0.4c-0.5,0-1,0.2-1.4,0.6c-0.4,0.4-0.8,1-1,1.7s-0.4,1.4-0.4,2.2
			c0,0.5,0.1,0.9,0.3,1.2S67.3,158,67.7,158z"/>
		<path id="XMLID_773_" class="st1" d="M73.1,158.4c0-0.4,0.1-0.7,0.3-0.9c0.2-0.2,0.5-0.3,0.8-0.3c0.2,0,0.4,0.1,0.5,0.2
			c0.1,0.1,0.2,0.3,0.2,0.6c0,0.3-0.1,0.6-0.3,0.9c-0.2,0.2-0.5,0.4-0.8,0.4c-0.3,0-0.5-0.1-0.6-0.2
			C73.2,158.8,73.1,158.6,73.1,158.4z M77,148.2l-2,7.7h-0.9l1.3-7.7H77z"/>
		<path id="XMLID_776_" class="st1" d="M80.6,148.2l0.1,0.2c-0.2,0.4-0.5,1-0.8,1.6c-0.3,0.6-0.7,1.3-1.2,1.9h-1
			c0.7-1.5,1.2-2.7,1.5-3.7H80.6z M83.3,148.2l0.1,0.2c-0.4,1-1.1,2.1-2,3.5h-1c0.3-0.6,0.5-1.2,0.8-2s0.5-1.3,0.6-1.6H83.3z"/>
	</g>
</g>
</svg>
