<?xml version="1.0" encoding="utf-8"?>
<!-- Generator: Adobe Illustrator 19.0.0, SVG Export Plug-In . SVG Version: 6.00 Build 0)  -->
<svg version="1.1" id="Layer_1" xmlns="http://www.w3.org/2000/svg" xmlns:xlink="http://www.w3.org/1999/xlink" x="0px" y="0px"
	 viewBox="0 0 416.3 477.7" style="enable-background:new 0 0 416.3 477.7;" xml:space="preserve">
<style type="text/css">
	.st0{fill:none;stroke:#0C6B88;stroke-width:2;stroke-miterlimit:10;}
	.st1{fill:#49C2C6;}
	.st2{fill:#0C6B88;}
	.st3{fill:#F2673A;}
	.st4{fill:#F8981D;}
	.st5{fill:#D2D9DB;}
	.st6{fill:#076B88;}
	.st7{fill:#FFFFFF;}
</style>
<g>
	<path class="st0" d="M166.2,1c-37.2,0-67.4,30.2-67.4,67.4v99.2h134.8V68.4C233.6,31.2,203.4,1,166.2,1z"/>
	<path class="st0" d="M272,1c-37.2,0-67.4,30.2-67.4,67.4v99.2h134.8V68.4C339.4,31.2,309.3,1,272,1z"/>
	<rect y="107.7" class="st1" width="333.4" height="369.9"/>
	<rect y="322" class="st2" width="107.3" height="155.7"/>
	<rect x="233.6" y="322" class="st2" width="130.8" height="155.7"/>
	<rect y="107.7" class="st3" width="363.8" height="107.1"/>
	<rect x="13.6" y="214.9" class="st4" width="350.8" height="107.1"/>
	<rect x="0" y="214.9" class="st5" width="155.9" height="107.1"/>
	<g id="XMLID_590_">
		<path id="XMLID_591_" class="st6" d="M27.9,245.3h-2.7l-4.3-7.6h-0.1c0.1,1.3,0.1,2.3,0.1,2.9v4.7h-1.9v-10h2.7l4.3,7.5h0
			c-0.1-1.3-0.1-2.2-0.1-2.8v-4.7h1.9V245.3z"/>
		<path id="XMLID_593_" class="st6" d="M37,245.3c0,1.1-0.3,1.9-1,2.5c-0.6,0.6-1.6,0.9-2.9,0.9c-1.1,0-2.1-0.2-2.9-0.5v-1.7
			c0.9,0.4,1.9,0.6,3,0.6c1.1,0,1.6-0.6,1.6-1.7v-0.2l0.1-0.9h-0.1c-0.5,0.8-1.2,1.1-2.2,1.1c-0.9,0-1.6-0.4-2.1-1.1
			s-0.8-1.7-0.8-2.9c0-1.3,0.3-2.2,0.8-2.9c0.5-0.7,1.2-1,2.2-1c0.9,0,1.7,0.4,2.2,1.1H35l0.2-1H37V245.3z M33.5,243.8
			c0.6,0,1-0.2,1.2-0.5c0.2-0.3,0.4-0.8,0.4-1.6v-0.3c0-0.8-0.1-1.4-0.4-1.8c-0.3-0.4-0.7-0.5-1.2-0.5c-1,0-1.5,0.8-1.5,2.3
			c0,0.8,0.1,1.3,0.4,1.7S32.9,243.8,33.5,243.8z"/>
		<path id="XMLID_596_" class="st6" d="M44.6,245.3l-0.3-1h-0.1c-0.2,0.4-0.5,0.6-0.9,0.8s-0.9,0.3-1.4,0.3c-0.9,0-1.6-0.2-2-0.7
			c-0.5-0.5-0.7-1.2-0.7-2.1v-5h2.1v4.5c0,0.6,0.1,1,0.3,1.2c0.2,0.3,0.5,0.4,0.9,0.4c0.6,0,1-0.2,1.3-0.6c0.3-0.4,0.4-1,0.4-1.9
			v-3.6h2.1v0.8c0.3-0.1,0.6-0.3,0.8-0.7c0.2-0.3,0.3-0.8,0.3-1.3h2.1l0.1,0.2c-0.1,0.7-0.3,1.3-0.6,1.6s-0.6,0.7-1,0.9
			s-0.9,0.4-1.6,0.5v5.6H44.6z"/>
		<path id="XMLID_598_" class="st6" d="M56.7,241.5c0,1.2-0.3,2.2-1,2.9s-1.6,1.1-2.7,1.1c-0.7,0-1.4-0.2-1.9-0.5
			c-0.6-0.3-1-0.8-1.3-1.4s-0.5-1.3-0.5-2.1c0-1.2,0.3-2.2,1-2.9s1.6-1,2.7-1c0.5,0,1,0.1,1.4,0.2c0.5,0.2,0.8,0.4,1.2,0.7
			c0.7-0.2,1-0.9,1-1.9h2.1l0.1,0.2c-0.1,0.6-0.3,1.1-0.5,1.5c-0.2,0.4-0.5,0.7-0.8,0.9c-0.3,0.2-0.7,0.4-1.2,0.5
			C56.6,240.2,56.7,240.8,56.7,241.5z M52.9,236.9c-0.3-0.2-0.7-0.5-1.3-1c-0.6-0.4-1-0.8-1.3-1.1v-0.1h2.3c0.3,0.5,0.8,1.1,1.6,2.1
			v0.2H52.9z M51.4,241.5c0,0.8,0.1,1.3,0.4,1.7s0.7,0.6,1.2,0.6c0.6,0,1-0.2,1.2-0.6c0.2-0.4,0.4-1,0.4-1.7c0-0.8-0.1-1.3-0.4-1.7
			s-0.6-0.6-1.2-0.6c-0.6,0-1,0.2-1.2,0.6C51.6,240.2,51.4,240.7,51.4,241.5z"/>
		<path id="XMLID_602_" class="st6" d="M59.2,235.7c0-0.7,0.4-1,1.1-1s1.1,0.3,1.1,1c0,0.3-0.1,0.6-0.3,0.8
			c-0.2,0.2-0.5,0.3-0.9,0.3C59.6,236.7,59.2,236.4,59.2,235.7z M61.4,245.3h-2.1v-7.6h2.1V245.3z"/>
		<path id="XMLID_605_" class="st6" d="M70.4,243.8c0.4,0,0.8-0.1,1.3-0.2v1.6c-0.5,0.2-1.2,0.3-1.9,0.3c-0.8,0-1.4-0.2-1.8-0.6
			c-0.4-0.4-0.6-1.1-0.6-1.9v-3.7h-1v-0.9l1.1-0.7l0.6-1.6h1.3v1.6h2.1v1.6h-2.1v3.7c0,0.3,0.1,0.5,0.2,0.7S70.1,243.8,70.4,243.8z"
			/>
		<path id="XMLID_607_" class="st6" d="M78.1,245.3l-0.4-1h-0.1c-0.4,0.4-0.7,0.7-1.1,0.9c-0.4,0.2-0.9,0.3-1.5,0.3
			c-0.7,0-1.3-0.2-1.7-0.6s-0.6-1-0.6-1.8c0-0.8,0.3-1.4,0.9-1.8c0.6-0.4,1.4-0.6,2.6-0.6l1.3,0v-0.3c0-0.8-0.4-1.2-1.2-1.2
			c-0.6,0-1.3,0.2-2.2,0.6l-0.7-1.4c0.9-0.5,1.9-0.7,2.9-0.7c1,0,1.8,0.2,2.4,0.7s0.8,1.1,0.8,2v5.1H78.1z M77.5,241.8l-0.8,0
			c-0.6,0-1.1,0.1-1.4,0.3s-0.4,0.5-0.4,0.9c0,0.6,0.3,0.9,1,0.9c0.5,0,0.9-0.1,1.2-0.4s0.4-0.6,0.4-1.1V241.8z"/>
		<path id="XMLID_610_" class="st6" d="M90.7,243.1c0,0.8-0.3,1.4-0.8,1.8s-1.4,0.6-2.4,0.6c-0.6,0-1,0-1.4-0.1
			c-0.4-0.1-0.8-0.2-1.1-0.3v-1.7c0.4,0.2,0.8,0.3,1.3,0.5s0.9,0.2,1.3,0.2c0.8,0,1.1-0.2,1.1-0.7c0-0.2-0.1-0.3-0.2-0.4
			c-0.1-0.1-0.3-0.2-0.5-0.3c-0.2-0.1-0.6-0.3-1-0.5c-0.6-0.2-1-0.5-1.3-0.7s-0.5-0.5-0.6-0.7c-0.1-0.3-0.2-0.6-0.2-1
			c0-0.7,0.3-1.2,0.8-1.6c0.5-0.4,1.3-0.6,2.2-0.6c0.9,0,1.8,0.2,2.7,0.6l-0.6,1.5c-0.4-0.2-0.7-0.3-1.1-0.4s-0.7-0.2-1-0.2
			c-0.6,0-0.9,0.2-0.9,0.5c0,0.2,0.1,0.3,0.3,0.5s0.6,0.3,1.3,0.6c0.6,0.2,1,0.5,1.3,0.7s0.5,0.5,0.6,0.7S90.7,242.7,90.7,243.1z"/>
		<path id="XMLID_612_" class="st6" d="M95.8,245.5c-1.2,0-2.2-0.3-2.9-1s-1-1.6-1-2.9c0-1.3,0.3-2.3,1-3c0.6-0.7,1.5-1,2.7-1
			c1.1,0,1.9,0.3,2.5,0.9s0.9,1.5,0.9,2.5v1H94c0,0.6,0.2,1.1,0.5,1.4s0.8,0.5,1.4,0.5c0.5,0,0.9,0,1.3-0.1s0.8-0.2,1.3-0.5v1.6
			c-0.4,0.2-0.8,0.3-1.2,0.4C96.9,245.4,96.4,245.5,95.8,245.5z M94.3,236.1c-0.1,0-0.3,0.1-0.4,0.2c-0.1,0.1-0.2,0.3-0.3,0.5h-1
			c0.1-0.7,0.2-1.2,0.6-1.6s0.8-0.6,1.3-0.6c0.2,0,0.4,0,0.6,0.1c0.2,0.1,0.4,0.2,0.5,0.2c0.2,0.1,0.3,0.2,0.5,0.2s0.3,0.1,0.5,0.1
			c0.1,0,0.3-0.1,0.4-0.2s0.2-0.3,0.3-0.5h1c-0.1,0.7-0.2,1.2-0.6,1.6s-0.8,0.6-1.3,0.6c-0.2,0-0.4,0-0.6-0.1
			c-0.2-0.1-0.4-0.2-0.5-0.2c-0.2-0.1-0.3-0.2-0.5-0.2C94.7,236.2,94.5,236.1,94.3,236.1z M95.5,239c-0.4,0-0.8,0.1-1,0.4
			c-0.3,0.3-0.4,0.7-0.4,1.2H97c0-0.5-0.1-0.9-0.4-1.2C96.3,239.2,95.9,239,95.5,239z"/>
		<path id="XMLID_616_" class="st6" d="M21,262.1h-2.1v-10.6H21V262.1z"/>
		<path id="XMLID_618_" class="st6" d="M28,262.1l-0.4-1h-0.1c-0.4,0.4-0.7,0.7-1.1,0.9c-0.4,0.2-0.9,0.3-1.5,0.3
			c-0.7,0-1.3-0.2-1.7-0.6s-0.6-1-0.6-1.8c0-0.8,0.3-1.4,0.9-1.8c0.6-0.4,1.4-0.6,2.6-0.6l1.3,0V257c0-0.8-0.4-1.2-1.2-1.2
			c-0.6,0-1.3,0.2-2.2,0.6l-0.7-1.4c0.9-0.5,1.9-0.7,2.9-0.7c1,0,1.8,0.2,2.4,0.7s0.8,1.1,0.8,2v5.1H28z M26.3,253.7
			c-0.3-0.2-0.7-0.5-1.3-1c-0.6-0.4-1-0.8-1.3-1.1v-0.1h2.3c0.3,0.5,0.8,1.1,1.6,2.1v0.2H26.3z M27.4,258.6l-0.8,0
			c-0.6,0-1.1,0.1-1.4,0.3s-0.4,0.5-0.4,0.9c0,0.6,0.3,0.9,1,0.9c0.5,0,0.9-0.1,1.2-0.4s0.4-0.6,0.4-1.1V258.6z"/>
		<path id="XMLID_622_" class="st6" d="M38.5,262.1h-2.1v-4.5c0-0.6-0.1-1-0.3-1.2c-0.2-0.3-0.5-0.4-0.9-0.4c-0.5,0-0.9,0.2-1.2,0.6
			s-0.4,1-0.4,1.9v3.6h-2.1v-7.6h1.6l0.3,1h0.1c0.2-0.4,0.5-0.6,0.9-0.8c0.4-0.2,0.8-0.3,1.3-0.3c1.1,0,1.9,0.4,2.3,1.1h0.2
			c0.2-0.4,0.5-0.6,0.9-0.8s0.8-0.3,1.4-0.3c0.9,0,1.5,0.2,2,0.7c0.4,0.4,0.7,1.2,0.7,2.1v5h-2.1v-4.5c0-0.6-0.1-1-0.3-1.2
			c-0.2-0.3-0.5-0.4-0.9-0.4c-0.5,0-0.9,0.2-1.1,0.5s-0.4,0.9-0.4,1.7V262.1z"/>
		<path id="XMLID_624_" class="st6" d="M55.7,262.1c0,1.1-0.3,1.9-1,2.5c-0.6,0.6-1.6,0.9-2.9,0.9c-1.1,0-2.1-0.2-2.9-0.5v-1.7
			c0.9,0.4,1.9,0.6,3,0.6c1.1,0,1.6-0.6,1.6-1.7v-0.2l0.1-0.9h-0.1c-0.5,0.8-1.2,1.1-2.2,1.1c-0.9,0-1.6-0.4-2.1-1.1
			s-0.8-1.7-0.8-2.9c0-1.3,0.3-2.2,0.8-2.9c0.5-0.7,1.2-1,2.2-1c0.9,0,1.7,0.4,2.2,1.1h0.1l0.2-1h1.8V262.1z M52.2,260.6
			c0.6,0,1-0.2,1.2-0.5c0.2-0.3,0.4-0.8,0.4-1.6v-0.3c0-0.8-0.1-1.4-0.4-1.8c-0.3-0.4-0.7-0.5-1.2-0.5c-1,0-1.5,0.8-1.5,2.3
			c0,0.8,0.1,1.3,0.4,1.7S51.7,260.6,52.2,260.6z"/>
		<path id="XMLID_627_" class="st6" d="M58.7,253.7c-0.3-0.2-0.7-0.5-1.3-1c-0.6-0.4-1-0.8-1.3-1.1v-0.1h2.3
			c0.3,0.5,0.8,1.1,1.6,2.1v0.2H58.7z M60,262.1h-2.1v-7.6H60V262.1z"/>
		<path id="XMLID_630_" class="st6" d="M67.6,262.1l-2.9-7.6h2.2l1.5,4.4c0.2,0.5,0.2,1,0.3,1.6h0.1c0-0.5,0.1-1,0.3-1.6l1.5-4.4
			h2.2l-2.9,7.6H67.6z"/>
		<path id="XMLID_632_" class="st6" d="M80.7,258.3c0,1.2-0.3,2.2-1,2.9s-1.6,1.1-2.7,1.1c-0.7,0-1.4-0.2-1.9-0.5
			c-0.6-0.3-1-0.8-1.3-1.4s-0.5-1.3-0.5-2.1c0-1.2,0.3-2.2,1-2.9c0.7-0.7,1.6-1,2.7-1c0.5,0,1,0.1,1.4,0.2c0.5,0.2,0.8,0.4,1.2,0.7
			c0.7-0.2,1-0.9,1-1.9h2.1l0.1,0.2c-0.1,0.6-0.3,1.1-0.5,1.5c-0.2,0.4-0.5,0.7-0.8,0.9c-0.3,0.2-0.7,0.4-1.2,0.5
			C80.6,257,80.7,257.6,80.7,258.3z M75.4,258.3c0,0.8,0.1,1.3,0.4,1.7s0.7,0.6,1.2,0.6c0.6,0,1-0.2,1.2-0.6c0.2-0.4,0.4-1,0.4-1.7
			c0-0.8-0.1-1.3-0.4-1.7S77.5,256,77,256c-0.6,0-1,0.2-1.2,0.6C75.5,257,75.4,257.5,75.4,258.3z M75.8,253.7v-0.2
			c0.8-0.9,1.3-1.6,1.6-2.1h2.3v0.1c-0.2,0.2-0.6,0.6-1.2,1.1c-0.6,0.5-1,0.8-1.3,1H75.8z"/>
		<path id="XMLID_636_" class="st6" d="M83.2,252.5c0-0.7,0.4-1,1.1-1s1.1,0.3,1.1,1c0,0.3-0.1,0.6-0.3,0.8
			c-0.2,0.2-0.5,0.3-0.9,0.3C83.5,253.5,83.2,253.2,83.2,252.5z M85.3,262.1h-2.1v-7.6h2.1V262.1z"/>
		<path id="XMLID_639_" class="st6" d="M22.1,277.4c0.4,0,0.8-0.1,1.3-0.2v1.6c-0.5,0.2-1.2,0.3-1.9,0.3c-0.8,0-1.4-0.2-1.8-0.6
			c-0.4-0.4-0.6-1.1-0.6-1.9v-3.7h-1V272l1.1-0.7l0.6-1.6h1.3v1.6h2.1v1.6h-2.1v3.7c0,0.3,0.1,0.5,0.2,0.7S21.9,277.4,22.1,277.4z"
			/>
		<path id="XMLID_641_" class="st6" d="M32,278.9H30v-4.5c0-1.1-0.4-1.7-1.2-1.7c-0.6,0-1,0.2-1.3,0.6s-0.4,1-0.4,1.9v3.6H25v-10.6
			h2.1v2.2c0,0.2,0,0.6,0,1.2l0,0.6h0.1c0.5-0.7,1.2-1.1,2.2-1.1c0.9,0,1.6,0.2,2,0.7S32,273,32,274V278.9z"/>
		<path id="XMLID_643_" class="st6" d="M41.1,275.1c0,1.2-0.3,2.2-1,2.9s-1.6,1.1-2.7,1.1c-0.7,0-1.4-0.2-1.9-0.5
			c-0.6-0.3-1-0.8-1.3-1.4s-0.5-1.3-0.5-2.1c0-1.2,0.3-2.2,1-2.9s1.6-1,2.7-1c0.7,0,1.4,0.2,1.9,0.5s1,0.8,1.3,1.4
			S41.1,274.3,41.1,275.1z M39,270.5c-0.7-0.4-1.2-0.8-1.6-1.2c-0.4,0.4-0.9,0.8-1.6,1.2h-1.4v-0.2c0.9-0.9,1.4-1.5,1.8-2.1h2.4
			c0.1,0.2,0.4,0.6,0.7,1c0.3,0.4,0.7,0.8,1,1.1v0.2H39z M35.8,275.1c0,0.8,0.1,1.3,0.4,1.7s0.7,0.6,1.2,0.6c0.6,0,1-0.2,1.2-0.6
			c0.2-0.4,0.4-1,0.4-1.7c0-0.8-0.1-1.3-0.4-1.7s-0.6-0.6-1.2-0.6c-0.6,0-1,0.2-1.2,0.6C36,273.8,35.8,274.3,35.8,275.1z"/>
		<path id="XMLID_647_" class="st6" d="M49.9,278.9h-2.1v-4.5c0-0.6-0.1-1-0.3-1.2c-0.2-0.3-0.5-0.4-0.9-0.4c-0.6,0-1,0.2-1.3,0.6
			c-0.3,0.4-0.4,1-0.4,1.9v3.6h-2.1v-7.6h1.6l0.3,1h0.1c0.2-0.4,0.6-0.6,1-0.8c0.4-0.2,0.9-0.3,1.4-0.3c0.9,0,1.6,0.2,2,0.7
			c0.5,0.5,0.7,1.2,0.7,2.1V278.9z"/>
		<path id="XMLID_649_" class="st6" d="M58.7,278.9c0,1.1-0.3,1.9-1,2.5c-0.6,0.6-1.6,0.9-2.9,0.9c-1.1,0-2.1-0.2-2.9-0.5v-1.7
			c0.9,0.4,1.9,0.6,3,0.6c1.1,0,1.6-0.6,1.6-1.7v-0.2l0.1-0.9h-0.1c-0.5,0.8-1.2,1.1-2.2,1.1c-0.9,0-1.6-0.4-2.1-1.1
			s-0.8-1.7-0.8-2.9c0-1.3,0.3-2.2,0.8-2.9c0.5-0.7,1.2-1,2.2-1c0.9,0,1.7,0.4,2.2,1.1h0.1l0.2-1h1.8V278.9z M55.2,277.4
			c0.6,0,1-0.2,1.2-0.5c0.2-0.3,0.4-0.8,0.4-1.6v-0.3c0-0.8-0.1-1.4-0.4-1.8c-0.3-0.4-0.7-0.5-1.2-0.5c-1,0-1.5,0.8-1.5,2.3
			c0,0.8,0.1,1.3,0.4,1.7S54.7,277.4,55.2,277.4z"/>
		<path id="XMLID_652_" class="st6" d="M67.8,277.4c0.4,0,0.8-0.1,1.3-0.2v1.6c-0.5,0.2-1.2,0.3-1.9,0.3c-0.8,0-1.4-0.2-1.8-0.6
			c-0.4-0.4-0.6-1.1-0.6-1.9v-3.7h-1V272l1.1-0.7l0.6-1.6h1.3v1.6H69v1.6h-2.1v3.7c0,0.3,0.1,0.5,0.2,0.7S67.5,277.4,67.8,277.4z"/>
		<path id="XMLID_654_" class="st6" d="M70.5,269.3c0-0.7,0.4-1,1.1-1s1.1,0.3,1.1,1c0,0.3-0.1,0.6-0.3,0.8
			c-0.2,0.2-0.5,0.3-0.9,0.3C70.9,270.3,70.5,270,70.5,269.3z M72.7,278.9h-2.1v-7.6h2.1V278.9z"/>
		<path id="XMLID_657_" class="st6" d="M82,278.9h-2.1v-4.5c0-0.6-0.1-1-0.3-1.2c-0.2-0.3-0.5-0.4-0.9-0.4c-0.6,0-1,0.2-1.3,0.6
			c-0.3,0.4-0.4,1-0.4,1.9v3.6h-2.1v-7.6h1.6l0.3,1h0.1c0.2-0.4,0.6-0.6,1-0.8c0.4-0.2,0.9-0.3,1.4-0.3c0.9,0,1.6,0.2,2,0.7
			c0.5,0.5,0.7,1.2,0.7,2.1V278.9z"/>
		<path id="XMLID_659_" class="st6" d="M90.8,279.1c-2.4,0-3.6-1.3-3.6-3.9c0-1.3,0.3-2.3,1-3c0.6-0.7,1.6-1,2.8-1
			c0.9,0,1.7,0.2,2.4,0.5l-0.6,1.6c-0.3-0.1-0.6-0.2-0.9-0.3c-0.3-0.1-0.6-0.1-0.8-0.1c-1.1,0-1.6,0.8-1.6,2.3
			c0,1.5,0.5,2.2,1.6,2.2c0.4,0,0.8-0.1,1.1-0.2c0.3-0.1,0.7-0.3,1-0.5v1.8c-0.3,0.2-0.7,0.4-1,0.4S91.4,279.1,90.8,279.1z"/>
		<path id="XMLID_661_" class="st6" d="M100.4,278.9l-0.3-1H100c-0.2,0.4-0.5,0.6-1,0.8c-0.4,0.2-0.9,0.3-1.4,0.3
			c-0.9,0-1.6-0.2-2-0.7c-0.5-0.5-0.7-1.2-0.7-2.1v-5H97v4.5c0,0.6,0.1,1,0.3,1.2c0.2,0.3,0.5,0.4,0.9,0.4c0.6,0,1-0.2,1.3-0.6
			c0.3-0.4,0.4-1,0.4-1.9v-3.6h2.1v7.6H100.4z M100.1,268.8c0,0.7-0.4,1.2-1.1,1.3l-0.1,0.5h-1.2l-0.2-1c0.3-0.1,0.6-0.1,0.7-0.3
			c0.1-0.1,0.2-0.3,0.2-0.4c0-0.1,0-0.3-0.1-0.3s-0.2-0.1-0.4-0.1c-0.3,0-0.6,0.1-1,0.2v-1.1c0.1,0,0.3-0.1,0.6-0.1
			c0.2,0,0.5,0,0.6,0c0.6,0,1.1,0.1,1.4,0.4C100,267.9,100.1,268.3,100.1,268.8z"/>
		<path id="XMLID_664_" class="st6" d="M109,278.9l-0.4-1h-0.1c-0.4,0.4-0.7,0.7-1.1,0.9c-0.4,0.2-0.9,0.3-1.5,0.3
			c-0.7,0-1.3-0.2-1.7-0.6c-0.4-0.4-0.6-1-0.6-1.8c0-0.8,0.3-1.4,0.9-1.8c0.6-0.4,1.4-0.6,2.6-0.6l1.3,0v-0.3c0-0.8-0.4-1.2-1.2-1.2
			c-0.6,0-1.3,0.2-2.2,0.6l-0.7-1.4c0.9-0.5,1.9-0.7,2.9-0.7c1,0,1.8,0.2,2.4,0.7s0.8,1.1,0.8,2v5.1H109z M108.4,275.4l-0.8,0
			c-0.6,0-1.1,0.1-1.4,0.3s-0.4,0.5-0.4,0.9c0,0.6,0.3,0.9,1,0.9c0.5,0,0.9-0.1,1.2-0.4c0.3-0.3,0.4-0.6,0.4-1.1V275.4z"/>
		<path id="XMLID_667_" class="st6" d="M119.5,277.4c0.4,0,0.8-0.1,1.3-0.2v1.6c-0.5,0.2-1.2,0.3-1.9,0.3c-0.8,0-1.4-0.2-1.8-0.6
			c-0.4-0.4-0.6-1.1-0.6-1.9v-3.7h-1V272l1.1-0.7l0.6-1.6h1.3v1.6h2.1v1.6h-2.1v3.7c0,0.3,0.1,0.5,0.3,0.7
			C119,277.3,119.2,277.4,119.5,277.4z"/>
		<path id="XMLID_669_" class="st6" d="M129.3,275.1c0,1.2-0.3,2.2-1,2.9s-1.6,1.1-2.7,1.1c-0.7,0-1.4-0.2-1.9-0.5
			c-0.6-0.3-1-0.8-1.3-1.4s-0.5-1.3-0.5-2.1c0-1.2,0.3-2.2,1-2.9s1.6-1,2.7-1c0.7,0,1.4,0.2,1.9,0.5s1,0.8,1.3,1.4
			S129.3,274.3,129.3,275.1z M127.1,270.5c-0.7-0.4-1.2-0.8-1.6-1.2c-0.4,0.4-0.9,0.8-1.6,1.2h-1.4v-0.2c0.9-0.9,1.4-1.5,1.8-2.1
			h2.4c0.1,0.2,0.4,0.6,0.7,1c0.3,0.4,0.7,0.8,1,1.1v0.2H127.1z M124,275.1c0,0.8,0.1,1.3,0.4,1.7c0.2,0.4,0.7,0.6,1.2,0.6
			c0.6,0,1-0.2,1.2-0.6c0.2-0.4,0.4-1,0.4-1.7c0-0.8-0.1-1.3-0.4-1.7s-0.6-0.6-1.2-0.6c-0.6,0-1,0.2-1.2,0.6
			C124.1,273.8,124,274.3,124,275.1z"/>
		<path id="XMLID_673_" class="st6" d="M130.9,269.3c0-0.7,0.4-1,1.1-1s1.1,0.3,1.1,1c0,0.3-0.1,0.6-0.3,0.8
			c-0.2,0.2-0.5,0.3-0.9,0.3C131.3,270.3,130.9,270,130.9,269.3z M133.1,278.9H131v-7.6h2.1V278.9z"/>
		<path id="XMLID_676_" class="st6" d="M136,275.6v-0.5c0-0.4,0.1-0.8,0.3-1.1s0.5-0.7,1-1c0.5-0.3,0.8-0.6,0.9-0.8
			c0.2-0.2,0.2-0.5,0.2-0.7c0-0.3-0.1-0.5-0.3-0.7s-0.5-0.2-0.9-0.2c-0.7,0-1.5,0.2-2.3,0.7l-0.7-1.5c1-0.6,2.1-0.9,3.2-0.9
			c0.9,0,1.7,0.2,2.2,0.7c0.6,0.5,0.8,1.1,0.8,1.8c0,0.5-0.1,0.9-0.3,1.3s-0.7,0.8-1.3,1.2c-0.4,0.3-0.7,0.6-0.8,0.7
			c-0.1,0.2-0.2,0.4-0.2,0.7v0.4H136z M135.8,278c0-0.4,0.1-0.7,0.3-0.9s0.5-0.3,0.9-0.3c0.4,0,0.7,0.1,0.9,0.3
			c0.2,0.2,0.3,0.5,0.3,0.9c0,0.4-0.1,0.6-0.3,0.9c-0.2,0.2-0.5,0.3-0.9,0.3c-0.4,0-0.7-0.1-0.9-0.3
			C135.9,278.6,135.8,278.3,135.8,278z"/>
	</g>
	<g id="XMLID_510_">
		<path id="XMLID_511_" class="st7" d="M193.8,237c-0.8,0-1.4,0.3-1.9,0.9c-0.4,0.6-0.7,1.4-0.7,2.5c0,2.2,0.8,3.3,2.5,3.3
			c0.7,0,1.6-0.2,2.5-0.5v1.8c-0.8,0.3-1.7,0.5-2.7,0.5c-1.5,0-2.6-0.4-3.3-1.3c-0.8-0.9-1.2-2.1-1.2-3.8c0-1,0.2-1.9,0.6-2.7
			c0.4-0.8,0.9-1.4,1.6-1.8c0.7-0.4,1.5-0.6,2.5-0.6c1,0,1.9,0.2,2.9,0.7l-0.7,1.7c-0.4-0.2-0.7-0.3-1.1-0.5S194.2,237,193.8,237z"
			/>
		<path id="XMLID_513_" class="st7" d="M203.7,245.3l-0.3-1h-0.1c-0.2,0.4-0.5,0.6-0.9,0.8s-0.9,0.3-1.4,0.3c-0.9,0-1.6-0.2-2-0.7
			c-0.5-0.5-0.7-1.2-0.7-2.1v-5h2.1v4.5c0,0.6,0.1,1,0.3,1.2c0.2,0.3,0.5,0.4,0.9,0.4c0.6,0,1-0.2,1.3-0.6c0.3-0.4,0.4-1,0.4-1.9
			v-3.6h2.1v0.8c0.3-0.1,0.6-0.3,0.8-0.7c0.2-0.3,0.3-0.8,0.3-1.3h2.1l0.1,0.2c-0.1,0.7-0.3,1.3-0.6,1.6s-0.6,0.7-1,0.9
			s-0.9,0.4-1.6,0.5v5.6H203.7z M203.6,235.2c0,0.7-0.4,1.2-1.1,1.3l-0.1,0.5h-1.2l-0.2-1c0.3-0.1,0.6-0.1,0.7-0.3
			c0.1-0.1,0.2-0.3,0.2-0.4c0-0.1,0-0.3-0.1-0.3s-0.2-0.1-0.4-0.1c-0.3,0-0.6,0.1-1,0.2v-1.1c0.1,0,0.3-0.1,0.6-0.1
			c0.2,0,0.5,0,0.6,0c0.6,0,1.1,0.1,1.4,0.4C203.4,234.3,203.6,234.7,203.6,235.2z"/>
		<path id="XMLID_516_" class="st7" d="M213.8,245.3l-0.4-1h-0.1c-0.4,0.4-0.7,0.7-1.1,0.9c-0.4,0.2-0.9,0.3-1.5,0.3
			c-0.7,0-1.3-0.2-1.7-0.6s-0.6-1-0.6-1.8c0-0.8,0.3-1.4,0.9-1.8c0.6-0.4,1.4-0.6,2.6-0.6l1.3,0v-0.3c0-0.8-0.4-1.2-1.2-1.2
			c-0.6,0-1.3,0.2-2.2,0.6l-0.7-1.4c0.9-0.5,1.9-0.7,2.9-0.7c1,0,1.8,0.2,2.4,0.7s0.8,1.1,0.8,2v5.1H213.8z M213.2,241.8l-0.8,0
			c-0.6,0-1.1,0.1-1.4,0.3s-0.4,0.5-0.4,0.9c0,0.6,0.3,0.9,1,0.9c0.5,0,0.9-0.1,1.2-0.4s0.4-0.6,0.4-1.1V241.8z"/>
		<path id="XMLID_519_" class="st7" d="M228.1,245.3H226v-4.5c0-1.1-0.4-1.7-1.2-1.7c-0.6,0-1,0.2-1.3,0.6s-0.4,1-0.4,1.9v3.6h-2.1
			v-10.6h2.1v2.2c0,0.2,0,0.6,0,1.2l0,0.6h0.1c0.5-0.7,1.2-1.1,2.2-1.1c0.9,0,1.6,0.2,2,0.7s0.7,1.2,0.7,2.1V245.3z"/>
		<path id="XMLID_521_" class="st7" d="M235.1,245.3l-0.4-1h-0.1c-0.4,0.4-0.7,0.7-1.1,0.9c-0.4,0.2-0.9,0.3-1.5,0.3
			c-0.7,0-1.3-0.2-1.7-0.6s-0.6-1-0.6-1.8c0-0.8,0.3-1.4,0.9-1.8c0.6-0.4,1.4-0.6,2.6-0.6l1.3,0v-0.3c0-0.8-0.4-1.2-1.2-1.2
			c-0.6,0-1.3,0.2-2.2,0.6l-0.7-1.4c0.9-0.5,1.9-0.7,2.9-0.7c1,0,1.8,0.2,2.4,0.7s0.8,1.1,0.8,2v5.1H235.1z M233.4,236.9
			c-0.3-0.2-0.7-0.5-1.3-1c-0.6-0.4-1-0.8-1.3-1.1v-0.1h2.3c0.3,0.5,0.8,1.1,1.6,2.1v0.2H233.4z M234.5,241.8l-0.8,0
			c-0.6,0-1.1,0.1-1.4,0.3s-0.4,0.5-0.4,0.9c0,0.6,0.3,0.9,1,0.9c0.5,0,0.9-0.1,1.2-0.4s0.4-0.6,0.4-1.1V241.8z"/>
		<path id="XMLID_525_" class="st7" d="M245.8,245.3h-2.1v-4.5c0-0.6-0.1-1-0.3-1.2c-0.2-0.3-0.5-0.4-0.9-0.4c-0.6,0-1,0.2-1.3,0.6
			c-0.3,0.4-0.4,1-0.4,1.9v3.6h-2.1v-7.6h1.6l0.3,1h0.1c0.2-0.4,0.6-0.6,1-0.8c0.4-0.2,0.9-0.3,1.4-0.3c0.9,0,1.6,0.2,2,0.7
			c0.5,0.5,0.7,1.2,0.7,2.1V245.3z"/>
		<path id="XMLID_527_" class="st7" d="M254.6,245.3c0,1.1-0.3,1.9-1,2.5c-0.6,0.6-1.6,0.9-2.9,0.9c-1.1,0-2.1-0.2-2.9-0.5v-1.7
			c0.9,0.4,1.9,0.6,3,0.6c1.1,0,1.6-0.6,1.6-1.7v-0.2l0.1-0.9h-0.1c-0.5,0.8-1.2,1.1-2.2,1.1c-0.9,0-1.6-0.4-2.1-1.1
			s-0.8-1.7-0.8-2.9c0-1.3,0.3-2.2,0.8-2.9c0.5-0.7,1.2-1,2.2-1c0.9,0,1.7,0.4,2.2,1.1h0.1l0.2-1h1.8V245.3z M251.1,243.8
			c0.6,0,1-0.2,1.2-0.5c0.2-0.3,0.4-0.8,0.4-1.6v-0.3c0-0.8-0.1-1.4-0.4-1.8c-0.3-0.4-0.7-0.5-1.2-0.5c-1,0-1.5,0.8-1.5,2.3
			c0,0.8,0.1,1.3,0.4,1.7S250.6,243.8,251.1,243.8z"/>
		<path id="XMLID_530_" class="st7" d="M267.5,245.3h-2.1v-4.5c0-0.6-0.1-1-0.3-1.2c-0.2-0.3-0.5-0.4-0.9-0.4c-0.6,0-1,0.2-1.3,0.6
			c-0.3,0.4-0.4,1-0.4,1.9v3.6h-2.1v-7.6h1.6l0.3,1h0.1c0.2-0.4,0.6-0.6,1-0.8c0.4-0.2,0.9-0.3,1.4-0.3c0.9,0,1.6,0.2,2,0.7
			c0.5,0.5,0.7,1.2,0.7,2.1V245.3z"/>
		<path id="XMLID_532_" class="st7" d="M274.5,245.3l-0.4-1H274c-0.3,0.4-0.7,0.7-1.1,0.9c-0.4,0.2-0.9,0.3-1.5,0.3
			c-0.7,0-1.3-0.2-1.7-0.6s-0.6-1-0.6-1.8c0-0.8,0.3-1.4,0.9-1.8c0.6-0.4,1.4-0.6,2.6-0.6l1.3,0v-0.3c0-0.8-0.4-1.2-1.2-1.2
			c-0.6,0-1.3,0.2-2.2,0.6l-0.7-1.4c0.9-0.5,1.9-0.7,2.9-0.7c1,0,1.8,0.2,2.4,0.7s0.8,1.1,0.8,2v5.1H274.5z M272.7,236.9
			c-0.3-0.2-0.7-0.5-1.3-1c-0.6-0.4-1-0.8-1.3-1.1v-0.1h2.3c0.3,0.5,0.8,1.1,1.6,2.1v0.2H272.7z M273.9,241.8l-0.8,0
			c-0.6,0-1.1,0.1-1.4,0.3s-0.4,0.5-0.4,0.9c0,0.6,0.3,0.9,1,0.9c0.5,0,0.9-0.1,1.2-0.4c0.3-0.3,0.4-0.6,0.4-1.1V241.8z"/>
		<path id="XMLID_536_" class="st7" d="M277,237.7h2.3l1.4,4.3c0.1,0.4,0.2,0.8,0.3,1.3h0c0-0.5,0.1-0.9,0.3-1.3l1.4-4.3h2.2
			l-3.2,8.6c-0.3,0.8-0.7,1.4-1.3,1.8c-0.5,0.4-1.2,0.6-1.9,0.6c-0.4,0-0.7,0-1.1-0.1v-1.7c0.3,0.1,0.5,0.1,0.8,0.1
			c0.4,0,0.7-0.1,1-0.3c0.3-0.2,0.5-0.6,0.6-1l0.1-0.4L277,237.7z"/>
		<path id="XMLID_538_" class="st7" d="M192.5,262.3c-2.4,0-3.6-1.3-3.6-3.9c0-1.3,0.3-2.3,1-3c0.6-0.7,1.6-1,2.8-1
			c0.9,0,1.7,0.2,2.4,0.5l-0.6,1.6c-0.3-0.1-0.6-0.2-0.9-0.3c-0.3-0.1-0.6-0.1-0.8-0.1c-1.1,0-1.6,0.8-1.6,2.3
			c0,1.5,0.5,2.2,1.6,2.2c0.4,0,0.8-0.1,1.1-0.2c0.3-0.1,0.7-0.3,1-0.5v1.8c-0.3,0.2-0.7,0.4-1,0.4S193,262.3,192.5,262.3z"/>
		<path id="XMLID_540_" class="st7" d="M203.6,258.3c0,1.2-0.3,2.2-1,2.9s-1.6,1.1-2.7,1.1c-0.7,0-1.4-0.2-1.9-0.5
			c-0.6-0.3-1-0.8-1.3-1.4s-0.5-1.3-0.5-2.1c0-1.2,0.3-2.2,1-2.9c0.7-0.7,1.6-1,2.7-1c0.7,0,1.4,0.2,1.9,0.5s1,0.8,1.3,1.4
			C203.4,256.8,203.6,257.5,203.6,258.3z M198.3,258.3c0,0.8,0.1,1.3,0.4,1.7s0.7,0.6,1.2,0.6c0.6,0,1-0.2,1.2-0.6
			c0.2-0.4,0.4-1,0.4-1.7c0-0.8-0.1-1.3-0.4-1.7s-0.6-0.6-1.2-0.6c-0.6,0-1,0.2-1.2,0.6C198.4,257,198.3,257.5,198.3,258.3z
			 M198.7,253.7v-0.2c0.8-0.9,1.3-1.6,1.6-2.1h2.3v0.1c-0.2,0.2-0.6,0.6-1.2,1.1c-0.6,0.5-1,0.8-1.3,1H198.7z"/>
		<path id="XMLID_544_" class="st7" d="M216,262.1h-2.1v-4.5c0-1.1-0.4-1.7-1.2-1.7c-0.6,0-1,0.2-1.3,0.6s-0.4,1-0.4,1.9v3.6h-2.1
			v-10.6h2.1v2.2c0,0.2,0,0.6,0,1.2l0,0.6h0.1c0.5-0.7,1.2-1.1,2.2-1.1c0.9,0,1.6,0.2,2,0.7s0.7,1.2,0.7,2.1V262.1z"/>
		<path id="XMLID_546_" class="st7" d="M225.1,258.3c0,1.2-0.3,2.2-1,2.9s-1.6,1.1-2.7,1.1c-0.7,0-1.4-0.2-1.9-0.5
			c-0.6-0.3-1-0.8-1.3-1.4s-0.5-1.3-0.5-2.1c0-1.2,0.3-2.2,1-2.9c0.7-0.7,1.6-1,2.7-1c0.5,0,1,0.1,1.4,0.2c0.5,0.2,0.8,0.4,1.2,0.7
			c0.7-0.2,1-0.9,1-1.9h2.1l0.1,0.2c-0.1,0.6-0.3,1.1-0.5,1.5c-0.2,0.4-0.5,0.7-0.8,0.9c-0.3,0.2-0.7,0.4-1.2,0.5
			C224.9,257,225.1,257.6,225.1,258.3z M219.8,258.3c0,0.8,0.1,1.3,0.4,1.7s0.7,0.6,1.2,0.6c0.6,0,1-0.2,1.2-0.6
			c0.2-0.4,0.4-1,0.4-1.7c0-0.8-0.1-1.3-0.4-1.7s-0.6-0.6-1.2-0.6c-0.6,0-1,0.2-1.2,0.6C219.9,257,219.8,257.5,219.8,258.3z
			 M220.2,264.1c0-0.7,0.4-1,1.1-1s1.1,0.3,1.1,1c0,0.3-0.1,0.6-0.3,0.8s-0.5,0.3-0.8,0.3C220.6,265.1,220.2,264.7,220.2,264.1z"/>
		<path id="XMLID_550_" class="st7" d="M231.8,262.3c-0.9,0-1.6-0.3-2.1-1h-0.1c0.1,0.6,0.1,1,0.1,1.1v3.1h-2.1v-11h1.7l0.3,1h0.1
			c0.5-0.8,1.2-1.1,2.2-1.1c0.9,0,1.6,0.3,2.1,1c0.5,0.7,0.8,1.7,0.8,2.9c0,0.8-0.1,1.5-0.4,2.1s-0.6,1.1-1,1.4
			S232.4,262.3,231.8,262.3z M231.2,256c-0.5,0-0.9,0.2-1.1,0.5c-0.2,0.3-0.4,0.8-0.4,1.6v0.2c0,0.8,0.1,1.4,0.4,1.8
			s0.6,0.5,1.2,0.5c0.9,0,1.4-0.8,1.4-2.3c0-0.8-0.1-1.3-0.3-1.7C232.1,256.2,231.7,256,231.2,256z"/>
		<path id="XMLID_553_" class="st7" d="M244.3,262.3c-0.9,0-1.6-0.3-2.1-1h-0.1c0.1,0.6,0.1,1,0.1,1.1v3.1h-2.1v-11h1.7l0.3,1h0.1
			c0.5-0.8,1.2-1.1,2.2-1.1c0.9,0,1.6,0.3,2.1,1c0.5,0.7,0.8,1.7,0.8,2.9c0,0.8-0.1,1.5-0.4,2.1s-0.6,1.1-1,1.4
			S244.9,262.3,244.3,262.3z M243.7,256c-0.5,0-0.9,0.2-1.1,0.5c-0.2,0.3-0.4,0.8-0.4,1.6v0.2c0,0.8,0.1,1.4,0.4,1.8
			s0.6,0.5,1.2,0.5c0.9,0,1.4-0.8,1.4-2.3c0-0.8-0.1-1.3-0.3-1.7C244.6,256.2,244.2,256,243.7,256z"/>
		<path id="XMLID_556_" class="st7" d="M256,262.1H254v-4.5c0-1.1-0.4-1.7-1.2-1.7c-0.6,0-1,0.2-1.3,0.6s-0.4,1-0.4,1.9v3.6H249
			v-10.6h2.1v2.2c0,0.2,0,0.6,0,1.2l0,0.6h0.1c0.5-0.7,1.2-1.1,2.2-1.1c0.9,0,1.6,0.2,2,0.7s0.7,1.2,0.7,2.1V262.1z"/>
		<path id="XMLID_558_" class="st7" d="M263,262.1l-0.4-1h-0.1c-0.4,0.4-0.7,0.7-1.1,0.9c-0.4,0.2-0.9,0.3-1.5,0.3
			c-0.7,0-1.3-0.2-1.7-0.6s-0.6-1-0.6-1.8c0-0.8,0.3-1.4,0.9-1.8c0.6-0.4,1.4-0.6,2.6-0.6l1.3,0V257c0-0.8-0.4-1.2-1.2-1.2
			c-0.6,0-1.3,0.2-2.2,0.6l-0.7-1.4c0.9-0.5,1.9-0.7,2.9-0.7c1,0,1.8,0.2,2.4,0.7s0.8,1.1,0.8,2v5.1H263z M262.4,258.6l-0.8,0
			c-0.6,0-1.1,0.1-1.4,0.3s-0.4,0.5-0.4,0.9c0,0.6,0.3,0.9,1,0.9c0.5,0,0.9-0.1,1.2-0.4s0.4-0.6,0.4-1.1V258.6z M260.1,253.7v-0.2
			c0.8-0.9,1.3-1.6,1.6-2.1h2.3v0.1c-0.2,0.2-0.6,0.6-1.2,1.1c-0.6,0.5-1,0.8-1.3,1H260.1z"/>
		<path id="XMLID_562_" class="st7" d="M270.8,262.3c-0.9,0-1.6-0.3-2.1-1h-0.1c0.1,0.6,0.1,1,0.1,1.1v3.1h-2.1v-11h1.7l0.3,1h0.1
			c0.5-0.8,1.2-1.1,2.2-1.1c0.9,0,1.6,0.3,2.1,1c0.5,0.7,0.8,1.7,0.8,2.9c0,0.8-0.1,1.5-0.4,2.1c-0.2,0.6-0.6,1.1-1,1.4
			S271.4,262.3,270.8,262.3z M270.2,256c-0.5,0-0.9,0.2-1.1,0.5c-0.2,0.3-0.4,0.8-0.4,1.6v0.2c0,0.8,0.1,1.4,0.4,1.8
			s0.6,0.5,1.2,0.5c0.9,0,1.4-0.8,1.4-2.3c0-0.8-0.1-1.3-0.3-1.7C271.1,256.2,270.7,256,270.2,256z"/>
		<path id="XMLID_565_" class="st7" d="M191.4,274.8l0.9-1.2l2.1-2.3h2.4l-3,3.3l3.2,4.3h-2.4l-2.2-3.1l-0.9,0.7v2.4h-2.1v-10.6h2.1
			v4.7L191.4,274.8L191.4,274.8z"/>
		<path id="XMLID_567_" class="st7" d="M205.1,278.9h-2.1v-4.5c0-1.1-0.4-1.7-1.2-1.7c-0.6,0-1,0.2-1.3,0.6s-0.4,1-0.4,1.9v3.6h-2.1
			v-10.6h2.1v2.2c0,0.2,0,0.6,0,1.2l0,0.6h0.1c0.5-0.7,1.2-1.1,2.2-1.1c0.9,0,1.6,0.2,2,0.7s0.7,1.2,0.7,2.1V278.9z"/>
		<path id="XMLID_569_" class="st7" d="M214.2,275.1c0,1.2-0.3,2.2-1,2.9s-1.6,1.1-2.7,1.1c-0.7,0-1.4-0.2-1.9-0.5
			c-0.6-0.3-1-0.8-1.3-1.4s-0.5-1.3-0.5-2.1c0-1.2,0.3-2.2,1-2.9s1.6-1,2.7-1c0.7,0,1.4,0.2,1.9,0.5s1,0.8,1.3,1.4
			S214.2,274.3,214.2,275.1z M212.1,270.5c-0.7-0.4-1.2-0.8-1.6-1.2c-0.4,0.4-0.9,0.8-1.6,1.2h-1.4v-0.2c0.9-0.9,1.4-1.5,1.8-2.1
			h2.4c0.1,0.2,0.4,0.6,0.7,1c0.3,0.4,0.7,0.8,1,1.1v0.2H212.1z M209,275.1c0,0.8,0.1,1.3,0.4,1.7s0.7,0.6,1.2,0.6
			c0.6,0,1-0.2,1.2-0.6c0.2-0.4,0.4-1,0.4-1.7c0-0.8-0.1-1.3-0.4-1.7s-0.6-0.6-1.2-0.6c-0.6,0-1,0.2-1.2,0.6
			C209.1,273.8,209,274.3,209,275.1z"/>
		<path id="XMLID_573_" class="st7" d="M223,278.9h-2.1v-4.5c0-0.6-0.1-1-0.3-1.2c-0.2-0.3-0.5-0.4-0.9-0.4c-0.6,0-1,0.2-1.3,0.6
			c-0.3,0.4-0.4,1-0.4,1.9v3.6H216v-7.6h1.6l0.3,1h0.1c0.2-0.4,0.6-0.6,1-0.8c0.4-0.2,0.9-0.3,1.4-0.3c0.9,0,1.6,0.2,2,0.7
			c0.5,0.5,0.7,1.2,0.7,2.1V278.9z"/>
		<path id="XMLID_575_" class="st7" d="M231.8,278.9c0,1.1-0.3,1.9-1,2.5c-0.6,0.6-1.6,0.9-2.9,0.9c-1.1,0-2.1-0.2-2.9-0.5v-1.7
			c0.9,0.4,1.9,0.6,3,0.6c1.1,0,1.6-0.6,1.6-1.7v-0.2l0.1-0.9h-0.1c-0.5,0.8-1.2,1.1-2.2,1.1c-0.9,0-1.6-0.4-2.1-1.1
			s-0.8-1.7-0.8-2.9c0-1.3,0.3-2.2,0.8-2.9c0.5-0.7,1.2-1,2.2-1c0.9,0,1.7,0.4,2.2,1.1h0.1l0.2-1h1.8V278.9z M228.3,277.4
			c0.6,0,1-0.2,1.2-0.5c0.2-0.3,0.4-0.8,0.4-1.6v-0.3c0-0.8-0.1-1.4-0.4-1.8c-0.3-0.4-0.7-0.5-1.2-0.5c-1,0-1.5,0.8-1.5,2.3
			c0,0.8,0.1,1.3,0.4,1.7S227.8,277.4,228.3,277.4z"/>
		<path id="XMLID_578_" class="st7" d="M239.5,278.9l-2.9-7.6h2.2l1.5,4.4c0.2,0.5,0.2,1,0.3,1.6h0.1c0-0.5,0.1-1,0.3-1.6l1.5-4.4
			h2.2l-2.9,7.6H239.5z"/>
		<path id="XMLID_580_" class="st7" d="M250.5,278.9l-0.4-1H250c-0.4,0.4-0.7,0.7-1.1,0.9c-0.4,0.2-0.9,0.3-1.5,0.3
			c-0.7,0-1.3-0.2-1.7-0.6s-0.6-1-0.6-1.8c0-0.8,0.3-1.4,0.9-1.8c0.6-0.4,1.4-0.6,2.6-0.6l1.3,0v-0.3c0-0.8-0.4-1.2-1.2-1.2
			c-0.6,0-1.3,0.2-2.2,0.6l-0.7-1.4c0.9-0.5,1.9-0.7,2.9-0.7c1,0,1.8,0.2,2.4,0.7s0.8,1.1,0.8,2v5.1H250.5z M250.3,270.5
			c-0.7-0.4-1.2-0.8-1.6-1.2c-0.4,0.4-0.9,0.8-1.6,1.2h-1.4v-0.2c0.9-0.9,1.4-1.5,1.8-2.1h2.4c0.1,0.2,0.4,0.6,0.7,1
			c0.3,0.4,0.7,0.8,1,1.1v0.2H250.3z M249.9,275.4l-0.8,0c-0.6,0-1.1,0.1-1.4,0.3s-0.4,0.5-0.4,0.9c0,0.6,0.3,0.9,1,0.9
			c0.5,0,0.9-0.1,1.2-0.4s0.4-0.6,0.4-1.1V275.4z M247.5,280.9c0-0.7,0.4-1,1.1-1s1.1,0.3,1.1,1c0,0.3-0.1,0.6-0.3,0.8
			s-0.5,0.3-0.8,0.3C247.8,281.9,247.5,281.5,247.5,280.9z"/>
		<path id="XMLID_585_" class="st7" d="M253,271.3h2.3l1.4,4.3c0.1,0.4,0.2,0.8,0.3,1.3h0c0.1-0.5,0.1-0.9,0.3-1.3l1.4-4.3h2.2
			l-3.2,8.6c-0.3,0.8-0.7,1.4-1.3,1.8s-1.2,0.6-1.9,0.6c-0.4,0-0.7,0-1.1-0.1v-1.7c0.3,0.1,0.5,0.1,0.8,0.1c0.4,0,0.7-0.1,1-0.3
			c0.3-0.2,0.5-0.6,0.6-1l0.1-0.4L253,271.3z"/>
		<path id="XMLID_587_" class="st7" d="M263,275.6v-0.5c0-0.4,0.1-0.8,0.3-1.1s0.5-0.7,1-1c0.5-0.3,0.8-0.6,0.9-0.8s0.2-0.5,0.2-0.7
			c0-0.3-0.1-0.5-0.3-0.7s-0.5-0.2-0.9-0.2c-0.7,0-1.5,0.2-2.3,0.7l-0.7-1.5c1-0.6,2.1-0.9,3.2-0.9c0.9,0,1.7,0.2,2.2,0.7
			s0.8,1.1,0.8,1.8c0,0.5-0.1,0.9-0.3,1.3s-0.7,0.8-1.3,1.2c-0.4,0.3-0.7,0.6-0.8,0.7s-0.2,0.4-0.2,0.7v0.4H263z M262.8,278
			c0-0.4,0.1-0.7,0.3-0.9s0.5-0.3,0.9-0.3c0.4,0,0.7,0.1,0.9,0.3s0.3,0.5,0.3,0.9c0,0.4-0.1,0.6-0.3,0.9c-0.2,0.2-0.5,0.3-0.9,0.3
			c-0.4,0-0.7-0.1-0.9-0.3C262.9,278.6,262.8,278.3,262.8,278z"/>
	</g>
	<g id="XMLID_429_">
		<path id="XMLID_430_" class="st7" d="M22.9,370.4h-2.1v-8.2h-2.7v-1.8h7.5v1.8h-2.7V370.4z"/>
		<path id="XMLID_432_" class="st7" d="M33.5,366.6c0,1.2-0.3,2.2-1,2.9c-0.7,0.7-1.6,1.1-2.7,1.1c-0.7,0-1.4-0.2-1.9-0.5
			c-0.6-0.3-1-0.8-1.3-1.4s-0.5-1.3-0.5-2.1c0-1.2,0.3-2.2,1-2.9s1.6-1,2.7-1c0.7,0,1.4,0.2,1.9,0.5c0.6,0.3,1,0.8,1.3,1.4
			S33.5,365.8,33.5,366.6z M31.3,361.9c-0.7-0.4-1.2-0.8-1.6-1.2c-0.4,0.4-0.9,0.8-1.6,1.2h-1.4v-0.2c0.9-0.9,1.4-1.5,1.8-2.1H31
			c0.1,0.2,0.4,0.6,0.7,1c0.3,0.4,0.7,0.8,1,1.1v0.2H31.3z M28.2,366.6c0,0.8,0.1,1.3,0.4,1.7s0.7,0.6,1.2,0.6c0.6,0,1-0.2,1.2-0.6
			c0.2-0.4,0.4-1,0.4-1.7c0-0.8-0.1-1.3-0.4-1.7s-0.6-0.6-1.2-0.6c-0.6,0-1,0.2-1.2,0.6C28.3,365.3,28.2,365.8,28.2,366.6z"/>
		<path id="XMLID_436_" class="st7" d="M35.1,360.8c0-0.7,0.4-1,1.1-1s1.1,0.3,1.1,1c0,0.3-0.1,0.6-0.3,0.8
			c-0.2,0.2-0.5,0.3-0.9,0.3C35.5,361.8,35.1,361.5,35.1,360.8z M37.3,370.4h-2.1v-7.6h2.1V370.4z"/>
		<path id="XMLID_439_" class="st7" d="M46.2,370.6c-2.4,0-3.6-1.3-3.6-3.9c0-1.3,0.3-2.3,1-3c0.6-0.7,1.6-1,2.8-1
			c0.9,0,1.7,0.2,2.4,0.5l-0.6,1.6c-0.3-0.1-0.6-0.2-0.9-0.3c-0.3-0.1-0.6-0.1-0.8-0.1c-1.1,0-1.6,0.8-1.6,2.3
			c0,1.5,0.5,2.2,1.6,2.2c0.4,0,0.8-0.1,1.1-0.2c0.3-0.1,0.7-0.3,1-0.5v1.8c-0.3,0.2-0.7,0.4-1,0.4S46.7,370.6,46.2,370.6z"/>
		<path id="XMLID_441_" class="st7" d="M57.3,366.6c0,1.2-0.3,2.2-1,2.9s-1.6,1.1-2.7,1.1c-0.7,0-1.4-0.2-1.9-0.5
			c-0.6-0.3-1-0.8-1.3-1.4s-0.5-1.3-0.5-2.1c0-1.2,0.3-2.2,1-2.9s1.6-1,2.7-1c0.7,0,1.4,0.2,1.9,0.5s1,0.8,1.3,1.4
			S57.3,365.8,57.3,366.6z M52,366.6c0,0.8,0.1,1.3,0.4,1.7s0.7,0.6,1.2,0.6c0.6,0,1-0.2,1.2-0.6c0.2-0.4,0.4-1,0.4-1.7
			c0-0.8-0.1-1.3-0.4-1.7s-0.6-0.6-1.2-0.6c-0.6,0-1,0.2-1.2,0.6C52.1,365.3,52,365.8,52,366.6z M52.4,361.9v-0.2
			c0.8-0.9,1.3-1.6,1.6-2.1h2.3v0.1c-0.2,0.2-0.6,0.6-1.2,1.1c-0.6,0.5-1,0.8-1.3,1H52.4z"/>
		<path id="XMLID_445_" class="st7" d="M65,370.6c-0.9,0-1.6-0.3-2.1-1s-0.8-1.6-0.8-2.7c0-1.2,0.3-2.1,0.8-2.8c0.5-0.7,1.2-1,2.2-1
			c1,0,1.7,0.4,2.2,1.1h0.1c-0.1-0.6-0.2-1.1-0.2-1.6v-0.3H65v-1.4h2.2v-1.1h2.1v1.1h1.1v1.4h-1.1v8.2h-1.6l-0.4-1h-0.1
			C66.7,370.2,66,370.6,65,370.6z M65.8,368.9c0.5,0,0.9-0.1,1.2-0.4c0.3-0.3,0.4-0.8,0.4-1.4v-0.2c0-0.7-0.1-1.3-0.4-1.6
			c-0.3-0.3-0.7-0.5-1.2-0.5c-0.5,0-0.8,0.2-1.1,0.5c-0.3,0.4-0.4,0.9-0.4,1.6c0,0.7,0.1,1.2,0.4,1.5S65.3,368.9,65.8,368.9z"/>
		<path id="XMLID_448_" class="st7" d="M77.1,370.4l-0.3-1h-0.1c-0.2,0.4-0.5,0.6-0.9,0.8s-0.9,0.3-1.4,0.3c-0.9,0-1.6-0.2-2-0.7
			c-0.5-0.5-0.7-1.2-0.7-2.1v-5h2.1v4.5c0,0.6,0.1,1,0.3,1.2c0.2,0.3,0.5,0.4,0.9,0.4c0.6,0,1-0.2,1.3-0.6c0.3-0.4,0.4-1,0.4-1.9
			v-3.6h2.1v0.8c0.3-0.1,0.6-0.3,0.8-0.7c0.2-0.3,0.3-0.8,0.3-1.3h2.1l0.1,0.2c-0.1,0.7-0.3,1.3-0.6,1.6s-0.6,0.7-1,0.9
			s-0.9,0.4-1.6,0.5v5.6H77.1z"/>
		<path id="XMLID_450_" class="st7" d="M89.3,366.6c0,1.2-0.3,2.2-1,2.9s-1.6,1.1-2.7,1.1c-0.7,0-1.4-0.2-1.9-0.5
			c-0.6-0.3-1-0.8-1.3-1.4s-0.5-1.3-0.5-2.1c0-1.2,0.3-2.2,1-2.9s1.6-1,2.7-1c0.5,0,1,0.1,1.4,0.2c0.5,0.2,0.8,0.4,1.2,0.7
			c0.7-0.2,1-0.9,1-1.9h2.1l0.1,0.2c-0.1,0.6-0.3,1.1-0.5,1.5c-0.2,0.4-0.5,0.7-0.8,0.9c-0.3,0.2-0.7,0.4-1.2,0.5
			C89.2,365.2,89.3,365.9,89.3,366.6z M84,366.6c0,0.8,0.1,1.3,0.4,1.7s0.7,0.6,1.2,0.6c0.6,0,1-0.2,1.2-0.6c0.2-0.4,0.4-1,0.4-1.7
			c0-0.8-0.1-1.3-0.4-1.7s-0.6-0.6-1.2-0.6c-0.6,0-1,0.2-1.2,0.6C84.1,365.3,84,365.8,84,366.6z M84.5,372.3c0-0.7,0.4-1,1.1-1
			s1.1,0.3,1.1,1c0,0.3-0.1,0.6-0.3,0.8s-0.5,0.3-0.8,0.3C84.8,373.4,84.5,373,84.5,372.3z"/>
		<path id="XMLID_454_" class="st7" d="M94.9,370.6c-2.4,0-3.6-1.3-3.6-3.9c0-1.3,0.3-2.3,1-3c0.6-0.7,1.6-1,2.8-1
			c0.9,0,1.7,0.2,2.4,0.5l-0.6,1.6c-0.3-0.1-0.6-0.2-0.9-0.3c-0.3-0.1-0.6-0.1-0.8-0.1c-1.1,0-1.6,0.8-1.6,2.3
			c0,1.5,0.5,2.2,1.6,2.2c0.4,0,0.8-0.1,1.1-0.2c0.3-0.1,0.7-0.3,1-0.5v1.8c-0.3,0.2-0.7,0.4-1,0.4S95.5,370.6,94.9,370.6z"/>
		<path id="XMLID_456_" class="st7" d="M22.1,385.7c0.4,0,0.8-0.1,1.3-0.2v1.6c-0.5,0.2-1.2,0.3-1.9,0.3c-0.8,0-1.4-0.2-1.8-0.6
			c-0.4-0.4-0.6-1.1-0.6-1.9v-3.7h-1v-0.9l1.1-0.7l0.6-1.6h1.3v1.6h2.1v1.6h-2.1v3.7c0,0.3,0.1,0.5,0.2,0.7S21.9,385.7,22.1,385.7z"
			/>
		<path id="XMLID_458_" class="st7" d="M29.2,379.4c0.3,0,0.5,0,0.7,0.1l-0.2,2c-0.2,0-0.4-0.1-0.6-0.1c-0.7,0-1.2,0.2-1.6,0.5
			s-0.6,0.8-0.6,1.4v3.9H25v-7.6h1.6l0.3,1.3H27c0.2-0.4,0.6-0.8,1-1C28.3,379.6,28.8,379.4,29.2,379.4z"/>
		<path id="XMLID_460_" class="st7" d="M36.1,387.2l-0.4-1h-0.1c-0.4,0.4-0.7,0.7-1.1,0.9c-0.4,0.2-0.9,0.3-1.5,0.3
			c-0.7,0-1.3-0.2-1.7-0.6s-0.6-1-0.6-1.8c0-0.8,0.3-1.4,0.9-1.8c0.6-0.4,1.4-0.6,2.6-0.6l1.3,0v-0.3c0-0.8-0.4-1.2-1.2-1.2
			c-0.6,0-1.3,0.2-2.2,0.6l-0.7-1.4c0.9-0.5,1.9-0.7,2.9-0.7c1,0,1.8,0.2,2.4,0.7s0.8,1.1,0.8,2v5.1H36.1z M35.4,383.7l-0.8,0
			c-0.6,0-1.1,0.1-1.4,0.3s-0.4,0.5-0.4,0.9c0,0.6,0.3,0.9,1,0.9c0.5,0,0.9-0.1,1.2-0.4s0.4-0.6,0.4-1.1V383.7z M36.1,377.1
			c0,0.7-0.4,1.2-1.1,1.3l-0.1,0.5h-1.2l-0.2-1c0.3-0.1,0.6-0.1,0.7-0.3c0.1-0.1,0.2-0.3,0.2-0.4c0-0.1,0-0.3-0.1-0.3
			s-0.2-0.1-0.4-0.1c-0.3,0-0.6,0.1-1,0.2v-1.1c0.1,0,0.3-0.1,0.6-0.1c0.2,0,0.5,0,0.6,0c0.6,0,1.1,0.1,1.4,0.4
			C35.9,376.2,36.1,376.6,36.1,377.1z"/>
		<path id="XMLID_464_" class="st7" d="M50.4,387.2h-2.1v-4.5c0-1.1-0.4-1.7-1.2-1.7c-0.6,0-1,0.2-1.3,0.6s-0.4,1-0.4,1.9v3.6h-2.1
			v-10.6h2.1v2.2c0,0.2,0,0.6,0,1.2l0,0.6h0.1c0.5-0.7,1.2-1.1,2.2-1.1c0.9,0,1.6,0.2,2,0.7s0.7,1.2,0.7,2.1V387.2z"/>
		<path id="XMLID_466_" class="st7" d="M57.4,387.2l-0.4-1h-0.1c-0.4,0.4-0.7,0.7-1.1,0.9c-0.4,0.2-0.9,0.3-1.5,0.3
			c-0.7,0-1.3-0.2-1.7-0.6s-0.6-1-0.6-1.8c0-0.8,0.3-1.4,0.9-1.8c0.6-0.4,1.4-0.6,2.6-0.6l1.3,0v-0.3c0-0.8-0.4-1.2-1.2-1.2
			c-0.6,0-1.3,0.2-2.2,0.6l-0.7-1.4c0.9-0.5,1.9-0.7,2.9-0.7c1,0,1.8,0.2,2.4,0.7s0.8,1.1,0.8,2v5.1H57.4z M55.6,378.7
			c-0.3-0.2-0.7-0.5-1.3-1c-0.6-0.4-1-0.8-1.3-1.1v-0.1h2.3c0.3,0.5,0.8,1.1,1.6,2.1v0.2H55.6z M56.7,383.7l-0.8,0
			c-0.6,0-1.1,0.1-1.4,0.3s-0.4,0.5-0.4,0.9c0,0.6,0.3,0.9,1,0.9c0.5,0,0.9-0.1,1.2-0.4s0.4-0.6,0.4-1.1V383.7z"/>
		<path id="XMLID_470_" class="st7" d="M68,387.2h-2.1v-4.5c0-0.6-0.1-1-0.3-1.2c-0.2-0.3-0.5-0.4-0.9-0.4c-0.6,0-1,0.2-1.3,0.6
			c-0.3,0.4-0.4,1-0.4,1.9v3.6H61v-7.6h1.6l0.3,1h0.1c0.2-0.4,0.6-0.6,1-0.8c0.4-0.2,0.9-0.3,1.4-0.3c0.9,0,1.6,0.2,2,0.7
			c0.5,0.5,0.7,1.2,0.7,2.1V387.2z"/>
		<path id="XMLID_472_" class="st7" d="M76.8,387.2c0,1.1-0.3,1.9-1,2.5c-0.6,0.6-1.6,0.9-2.9,0.9c-1.1,0-2.1-0.2-2.9-0.5v-1.7
			c0.9,0.4,1.9,0.6,3,0.6c1.1,0,1.6-0.6,1.6-1.7v-0.2l0.1-0.9h-0.1c-0.5,0.8-1.2,1.1-2.2,1.1c-0.9,0-1.6-0.4-2.1-1.1
			s-0.8-1.7-0.8-2.9c0-1.3,0.3-2.2,0.8-2.9c0.5-0.7,1.2-1,2.2-1c0.9,0,1.7,0.4,2.2,1.1h0.1l0.2-1h1.8V387.2z M73.3,385.7
			c0.6,0,1-0.2,1.2-0.5c0.2-0.3,0.4-0.8,0.4-1.6v-0.3c0-0.8-0.1-1.4-0.4-1.8c-0.3-0.4-0.7-0.5-1.2-0.5c-1,0-1.5,0.8-1.5,2.3
			c0,0.8,0.1,1.3,0.4,1.7S72.8,385.7,73.3,385.7z"/>
		<path id="XMLID_475_" class="st7" d="M26,404h-2.1v-4.5c0-0.6-0.1-1-0.3-1.2c-0.2-0.3-0.5-0.4-0.9-0.4c-0.6,0-1,0.2-1.3,0.6
			c-0.3,0.4-0.4,1-0.4,1.9v3.6h-2.1v-7.6h1.6l0.3,1h0.1c0.2-0.4,0.6-0.6,1-0.8c0.4-0.2,0.9-0.3,1.4-0.3c0.9,0,1.6,0.2,2,0.7
			c0.5,0.5,0.7,1.2,0.7,2.1V404z"/>
		<path id="XMLID_477_" class="st7" d="M31.6,404.2c-1.2,0-2.2-0.3-2.9-1s-1-1.6-1-2.9c0-1.3,0.3-2.3,1-3c0.6-0.7,1.5-1,2.7-1
			c1.1,0,1.9,0.3,2.5,0.9s0.9,1.5,0.9,2.5v1h-4.9c0,0.6,0.2,1.1,0.5,1.4s0.8,0.5,1.4,0.5c0.5,0,0.9,0,1.3-0.1s0.8-0.2,1.3-0.5v1.6
			c-0.4,0.2-0.8,0.3-1.2,0.4C32.7,404.1,32.2,404.2,31.6,404.2z M33.8,395.5h-1.1c-0.5-0.3-1-0.7-1.4-1.1c-0.5,0.5-1,0.8-1.4,1.1
			h-1.1v-0.2c0.5-0.6,1-1.2,1.5-1.9h2.2c0.2,0.4,0.5,0.7,0.8,1.1c0.3,0.4,0.5,0.7,0.7,0.8V395.5z M31.3,397.7c-0.4,0-0.8,0.1-1,0.4
			c-0.3,0.3-0.4,0.7-0.4,1.2h2.9c0-0.5-0.1-0.9-0.4-1.2C32.1,397.9,31.7,397.7,31.3,397.7z M33.2,394c0.4-0.4,0.7-0.9,0.9-1.4h1.6
			v0.1c-0.3,0.4-0.8,0.9-1.6,1.4h-1V394z"/>
		<path id="XMLID_482_" class="st7" d="M41.8,404l-0.3-1h-0.1c-0.2,0.4-0.5,0.6-1,0.8c-0.4,0.2-0.9,0.3-1.4,0.3
			c-0.9,0-1.6-0.2-2-0.7c-0.5-0.5-0.7-1.2-0.7-2.1v-5h2.1v4.5c0,0.6,0.1,1,0.3,1.2c0.2,0.3,0.5,0.4,0.9,0.4c0.6,0,1-0.2,1.3-0.6
			c0.3-0.4,0.4-1,0.4-1.9v-3.6h2.1v7.6H41.8z"/>
		<path id="XMLID_484_" class="st7" d="M51.2,399.9l0.9-1.2l2.1-2.3h2.4l-3,3.3l3.2,4.3h-2.4l-2.2-3.1l-0.9,0.7v2.4h-2.1v-10.6h2.1
			v4.7L51.2,399.9L51.2,399.9z"/>
		<path id="XMLID_486_" class="st7" d="M65,404h-2.1v-4.5c0-1.1-0.4-1.7-1.2-1.7c-0.6,0-1,0.2-1.3,0.6s-0.4,1-0.4,1.9v3.6h-2.1
			v-10.6H60v2.2c0,0.2,0,0.6,0,1.2l0,0.6H60c0.5-0.7,1.2-1.1,2.2-1.1c0.9,0,1.6,0.2,2,0.7c0.5,0.5,0.7,1.2,0.7,2.1V404z"/>
		<path id="XMLID_488_" class="st7" d="M74,400.2c0,1.2-0.3,2.2-1,2.9s-1.6,1.1-2.7,1.1c-0.7,0-1.4-0.2-1.9-0.5
			c-0.6-0.3-1-0.8-1.3-1.4s-0.5-1.3-0.5-2.1c0-1.2,0.3-2.2,1-2.9s1.6-1,2.7-1c0.7,0,1.4,0.2,1.9,0.5s1,0.8,1.3,1.4
			S74,399.4,74,400.2z M71.9,395.5c-0.7-0.4-1.2-0.8-1.6-1.2c-0.4,0.4-0.9,0.8-1.6,1.2h-1.4v-0.2c0.9-0.9,1.4-1.5,1.8-2.1h2.4
			c0.1,0.2,0.4,0.6,0.7,1c0.3,0.4,0.7,0.8,1,1.1v0.2H71.9z M68.8,400.2c0,0.8,0.1,1.3,0.4,1.7s0.7,0.6,1.2,0.6c0.6,0,1-0.2,1.2-0.6
			c0.2-0.4,0.4-1,0.4-1.7c0-0.8-0.1-1.3-0.4-1.7s-0.6-0.6-1.2-0.6c-0.6,0-1,0.2-1.2,0.6C68.9,398.9,68.8,399.4,68.8,400.2z"/>
		<path id="XMLID_492_" class="st7" d="M82.8,404h-2.1v-4.5c0-0.6-0.1-1-0.3-1.2c-0.2-0.3-0.5-0.4-0.9-0.4c-0.6,0-1,0.2-1.3,0.6
			c-0.3,0.4-0.4,1-0.4,1.9v3.6h-2.1v-7.6h1.6l0.3,1h0.1c0.2-0.4,0.6-0.6,1-0.8c0.4-0.2,0.9-0.3,1.4-0.3c0.9,0,1.6,0.2,2,0.7
			c0.5,0.5,0.7,1.2,0.7,2.1V404z"/>
		<path id="XMLID_494_" class="st7" d="M91.6,404c0,1.1-0.3,1.9-1,2.5c-0.6,0.6-1.6,0.9-2.9,0.9c-1.1,0-2.1-0.2-2.9-0.5v-1.7
			c0.9,0.4,1.9,0.6,3,0.6c1.1,0,1.6-0.6,1.6-1.7V404l0.1-0.9h-0.1c-0.5,0.8-1.2,1.1-2.2,1.1c-0.9,0-1.6-0.4-2.1-1.1
			s-0.8-1.7-0.8-2.9c0-1.3,0.3-2.2,0.8-2.9c0.5-0.7,1.2-1,2.2-1c0.9,0,1.7,0.4,2.2,1.1h0.1l0.2-1h1.8V404z M88.1,402.5
			c0.6,0,1-0.2,1.2-0.5c0.2-0.3,0.4-0.8,0.4-1.6v-0.3c0-0.8-0.1-1.4-0.4-1.8c-0.3-0.4-0.7-0.5-1.2-0.5c-1,0-1.5,0.8-1.5,2.3
			c0,0.8,0.1,1.3,0.4,1.7S87.6,402.5,88.1,402.5z"/>
		<path id="XMLID_497_" class="st7" d="M24.3,420.8l-0.3-1h-0.1c-0.2,0.4-0.5,0.6-0.9,0.8s-0.9,0.3-1.4,0.3c-0.9,0-1.6-0.2-2-0.7
			c-0.5-0.5-0.7-1.2-0.7-2.1v-5H21v4.5c0,0.6,0.1,1,0.3,1.2c0.2,0.3,0.5,0.4,0.9,0.4c0.6,0,1-0.2,1.3-0.6c0.3-0.4,0.4-1,0.4-1.9
			v-3.6h2.1v0.8c0.3-0.1,0.6-0.3,0.8-0.7c0.2-0.3,0.3-0.8,0.3-1.3H29l0.1,0.2c-0.1,0.7-0.3,1.3-0.6,1.6s-0.6,0.7-1,0.9
			s-0.9,0.4-1.6,0.5v5.6H24.3z"/>
		<path id="XMLID_499_" class="st7" d="M36.6,420.8h-2.1v-4.5c0-0.6-0.1-1-0.3-1.2c-0.2-0.3-0.5-0.4-0.9-0.4c-0.6,0-1,0.2-1.3,0.6
			c-0.3,0.4-0.4,1-0.4,1.9v3.6h-2.1v-7.6h1.6l0.3,1h0.1c0.2-0.4,0.6-0.6,1-0.8c0.4-0.2,0.9-0.3,1.4-0.3c0.9,0,1.6,0.2,2,0.7
			c0.5,0.5,0.7,1.2,0.7,2.1V420.8z"/>
		<path id="XMLID_501_" class="st7" d="M45.4,420.8c0,1.1-0.3,1.9-1,2.5c-0.6,0.6-1.6,0.9-2.9,0.9c-1.1,0-2.1-0.2-2.9-0.5v-1.7
			c0.9,0.4,1.9,0.6,3,0.6c1.1,0,1.6-0.6,1.6-1.7v-0.2l0.1-0.9h-0.1c-0.5,0.8-1.2,1.1-2.2,1.1c-0.9,0-1.6-0.4-2.1-1.1
			s-0.8-1.7-0.8-2.9c0-1.3,0.3-2.2,0.8-2.9c0.5-0.7,1.2-1,2.2-1c0.9,0,1.7,0.4,2.2,1.1h0.1l0.2-1h1.8V420.8z M41.9,419.3
			c0.6,0,1-0.2,1.2-0.5c0.2-0.3,0.4-0.8,0.4-1.6V417c0-0.8-0.1-1.4-0.4-1.8c-0.3-0.4-0.7-0.5-1.2-0.5c-1,0-1.5,0.8-1.5,2.3
			c0,0.8,0.1,1.3,0.4,1.7S41.4,419.3,41.9,419.3z"/>
		<path id="XMLID_504_" class="st7" d="M50.1,413.2h2.3l1.4,4.3c0.1,0.4,0.2,0.8,0.3,1.3h0c0.1-0.5,0.1-0.9,0.3-1.3l1.4-4.3h2.2
			l-3.2,8.6c-0.3,0.8-0.7,1.4-1.3,1.8s-1.2,0.6-1.9,0.6c-0.4,0-0.7,0-1.1-0.1v-1.7c0.3,0.1,0.5,0.1,0.8,0.1c0.4,0,0.7-0.1,1-0.3
			c0.3-0.2,0.5-0.6,0.6-1l0.1-0.4L50.1,413.2z M52.8,412.3v-0.2c0.8-0.9,1.3-1.6,1.6-2.1h2.3v0.1c-0.2,0.2-0.6,0.6-1.2,1.1
			c-0.6,0.5-1,0.8-1.3,1H52.8z"/>
		<path id="XMLID_507_" class="st7" d="M60.1,417.5V417c0-0.4,0.1-0.8,0.3-1.1s0.5-0.7,1-1c0.5-0.3,0.8-0.6,0.9-0.8s0.2-0.5,0.2-0.7
			c0-0.3-0.1-0.5-0.3-0.7s-0.5-0.2-0.9-0.2c-0.7,0-1.5,0.2-2.3,0.7l-0.7-1.5c1-0.6,2.1-0.9,3.2-0.9c0.9,0,1.7,0.2,2.2,0.7
			c0.6,0.5,0.8,1.1,0.8,1.8c0,0.5-0.1,0.9-0.3,1.3s-0.7,0.8-1.3,1.2c-0.4,0.3-0.7,0.6-0.8,0.7s-0.2,0.4-0.2,0.7v0.4H60.1z
			 M59.9,419.8c0-0.4,0.1-0.7,0.3-0.9s0.5-0.3,0.9-0.3c0.4,0,0.7,0.1,0.9,0.3s0.3,0.5,0.3,0.9c0,0.4-0.1,0.6-0.3,0.9
			c-0.2,0.2-0.5,0.3-0.9,0.3c-0.4,0-0.7-0.1-0.9-0.3C60,420.5,59.9,420.2,59.9,419.8z"/>
	</g>
	<g id="XMLID_312_">
		<g id="XMLID_1451_">
			<path id="XMLID_1556_" class="st7" d="M124.8,371.7v-10h2.1v8.2h4.1v1.8H124.8z"/>
			<path id="XMLID_1552_" class="st7" d="M137.4,371.7l-0.4-1h-0.1c-0.4,0.4-0.7,0.7-1.1,0.9c-0.4,0.2-0.9,0.3-1.5,0.3
				c-0.7,0-1.3-0.2-1.7-0.6s-0.6-1-0.6-1.8c0-0.8,0.3-1.4,0.9-1.8c0.6-0.4,1.4-0.6,2.6-0.6l1.3,0v-0.3c0-0.8-0.4-1.2-1.2-1.2
				c-0.6,0-1.3,0.2-2.2,0.6l-0.7-1.4c0.9-0.5,1.9-0.7,2.9-0.7c1,0,1.8,0.2,2.4,0.7s0.8,1.1,0.8,2v5.1H137.4z M135.6,363.2
				c-0.3-0.2-0.7-0.5-1.3-1c-0.6-0.4-1-0.8-1.3-1.1V361h2.3c0.3,0.5,0.8,1.1,1.6,2.1v0.2H135.6z M136.8,368.1l-0.8,0
				c-0.6,0-1.1,0.1-1.4,0.3s-0.4,0.5-0.4,0.9c0,0.6,0.3,0.9,1,0.9c0.5,0,0.9-0.1,1.2-0.4s0.4-0.6,0.4-1.1V368.1z"/>
			<path id="XMLID_1550_" class="st7" d="M147.8,371.7h-2.1v-4.5c0-0.6-0.1-1-0.3-1.2c-0.2-0.3-0.5-0.4-0.9-0.4
				c-0.5,0-0.9,0.2-1.2,0.6s-0.4,1-0.4,1.9v3.6H141V364h1.6l0.3,1h0.1c0.2-0.4,0.5-0.6,0.9-0.8c0.4-0.2,0.8-0.3,1.3-0.3
				c1.1,0,1.9,0.4,2.3,1.1h0.2c0.2-0.4,0.5-0.6,0.9-0.8s0.8-0.3,1.4-0.3c0.9,0,1.5,0.2,2,0.7c0.4,0.4,0.7,1.2,0.7,2.1v5h-2.1v-4.5
				c0-0.6-0.1-1-0.3-1.2c-0.2-0.3-0.5-0.4-0.9-0.4c-0.5,0-0.9,0.2-1.1,0.5s-0.4,0.9-0.4,1.7V371.7z"/>
			<path id="XMLID_1548_" class="st7" d="M161.5,371.8c-2.4,0-3.6-1.3-3.6-3.9c0-1.3,0.3-2.3,1-3c0.6-0.7,1.6-1,2.8-1
				c0.9,0,1.7,0.2,2.4,0.5l-0.6,1.6c-0.3-0.1-0.6-0.2-0.9-0.3c-0.3-0.1-0.6-0.1-0.8-0.1c-1.1,0-1.6,0.8-1.6,2.3
				c0,1.5,0.5,2.2,1.6,2.2c0.4,0,0.8-0.1,1.1-0.2c0.3-0.1,0.7-0.3,1-0.5v1.8c-0.3,0.2-0.7,0.4-1,0.4S162,371.8,161.5,371.8z"/>
			<path id="XMLID_1544_" class="st7" d="M170.4,371.7l-0.4-1H170c-0.4,0.4-0.7,0.7-1.1,0.9c-0.4,0.2-0.9,0.3-1.5,0.3
				c-0.7,0-1.3-0.2-1.7-0.6s-0.6-1-0.6-1.8c0-0.8,0.3-1.4,0.9-1.8c0.6-0.4,1.4-0.6,2.6-0.6l1.3,0v-0.3c0-0.8-0.4-1.2-1.2-1.2
				c-0.6,0-1.3,0.2-2.2,0.6l-0.7-1.4c0.9-0.5,1.9-0.7,2.9-0.7c1,0,1.8,0.2,2.4,0.7s0.8,1.1,0.8,2v5.1H170.4z M169.8,368.1l-0.8,0
				c-0.6,0-1.1,0.1-1.4,0.3s-0.4,0.5-0.4,0.9c0,0.6,0.3,0.9,1,0.9c0.5,0,0.9-0.1,1.2-0.4s0.4-0.6,0.4-1.1V368.1z M167.5,363.2V363
				c0.8-0.9,1.3-1.6,1.6-2.1h2.3v0.1c-0.2,0.2-0.6,0.6-1.2,1.1c-0.6,0.5-1,0.8-1.3,1H167.5z"/>
			<path id="XMLID_1542_" class="st7" d="M177.1,371.8c-2.4,0-3.6-1.3-3.6-3.9c0-1.3,0.3-2.3,1-3c0.6-0.7,1.6-1,2.8-1
				c0.9,0,1.7,0.2,2.4,0.5l-0.6,1.6c-0.3-0.1-0.6-0.2-0.9-0.3c-0.3-0.1-0.6-0.1-0.8-0.1c-1.1,0-1.6,0.8-1.6,2.3
				c0,1.5,0.5,2.2,1.6,2.2c0.4,0,0.8-0.1,1.1-0.2c0.3-0.1,0.7-0.3,1-0.5v1.8c-0.3,0.2-0.7,0.4-1,0.4S177.7,371.8,177.1,371.8z"/>
			<path id="XMLID_1540_" class="st7" d="M188.3,371.7h-2.1v-4.5c0-1.1-0.4-1.7-1.2-1.7c-0.6,0-1,0.2-1.3,0.6s-0.4,1-0.4,1.9v3.6
				h-2.1v-10.6h2.1v2.2c0,0.2,0,0.6,0,1.2l0,0.6h0.1c0.5-0.7,1.2-1.1,2.2-1.1c0.9,0,1.6,0.2,2,0.7s0.7,1.2,0.7,2.1V371.7z"/>
			<path id="XMLID_1538_" class="st7" d="M201.1,371.7H199v-4.5c0-0.6-0.1-1-0.3-1.2c-0.2-0.3-0.5-0.4-0.9-0.4c-0.6,0-1,0.2-1.3,0.6
				c-0.3,0.4-0.4,1-0.4,1.9v3.6h-2.1V364h1.6l0.3,1h0.1c0.2-0.4,0.6-0.6,1-0.8c0.4-0.2,0.9-0.3,1.4-0.3c0.9,0,1.6,0.2,2,0.7
				c0.5,0.5,0.7,1.2,0.7,2.1V371.7z"/>
			<path id="XMLID_1534_" class="st7" d="M208.1,371.7l-0.4-1h-0.1c-0.4,0.4-0.7,0.7-1.1,0.9c-0.4,0.2-0.9,0.3-1.5,0.3
				c-0.7,0-1.3-0.2-1.7-0.6s-0.6-1-0.6-1.8c0-0.8,0.3-1.4,0.9-1.8c0.6-0.4,1.4-0.6,2.6-0.6l1.3,0v-0.3c0-0.8-0.4-1.2-1.2-1.2
				c-0.6,0-1.3,0.2-2.2,0.6l-0.7-1.4c0.9-0.5,1.9-0.7,2.9-0.7c1,0,1.8,0.2,2.4,0.7s0.8,1.1,0.8,2v5.1H208.1z M206.4,363.2
				c-0.3-0.2-0.7-0.5-1.3-1c-0.6-0.4-1-0.8-1.3-1.1V361h2.3c0.3,0.5,0.8,1.1,1.6,2.1v0.2H206.4z M207.5,368.1l-0.8,0
				c-0.6,0-1.1,0.1-1.4,0.3s-0.4,0.5-0.4,0.9c0,0.6,0.3,0.9,1,0.9c0.5,0,0.9-0.1,1.2-0.4s0.4-0.6,0.4-1.1V368.1z"/>
			<path id="XMLID_1531_" class="st7" d="M218.7,367.9c0,1.2-0.3,2.2-1,2.9s-1.6,1.1-2.7,1.1c-0.7,0-1.4-0.2-1.9-0.5
				c-0.6-0.3-1-0.8-1.3-1.4s-0.5-1.3-0.5-2.1c0-1.2,0.3-2.2,1-2.9s1.6-1,2.7-1c0.7,0,1.4,0.2,1.9,0.5s1,0.8,1.3,1.4
				S218.7,367.1,218.7,367.9z M213.4,367.9c0,0.8,0.1,1.3,0.4,1.7s0.7,0.6,1.2,0.6c0.6,0,1-0.2,1.2-0.6c0.2-0.4,0.4-1,0.4-1.7
				c0-0.8-0.1-1.3-0.4-1.7s-0.6-0.6-1.2-0.6c-0.6,0-1,0.2-1.2,0.6C213.5,366.5,213.4,367.1,213.4,367.9z"/>
			<path id="XMLID_1528_" class="st7" d="M127.1,388.6c-0.9,0-1.6-0.3-2.1-1s-0.8-1.6-0.8-2.7c0-1.2,0.3-2.1,0.8-2.8
				c0.5-0.7,1.2-1,2.2-1c1,0,1.7,0.4,2.2,1.1h0.1c-0.1-0.6-0.2-1.1-0.2-1.6v-0.3h-2.2V379h2.2v-1.1h2.1v1.1h1.1v1.4h-1.1v8.2h-1.6
				l-0.4-1h-0.1C128.7,388.2,128,388.6,127.1,388.6z M127.8,387c0.5,0,0.9-0.1,1.2-0.4c0.3-0.3,0.4-0.8,0.4-1.4v-0.2
				c0-0.7-0.1-1.3-0.4-1.6c-0.3-0.3-0.7-0.5-1.2-0.5c-0.5,0-0.8,0.2-1.1,0.5c-0.3,0.4-0.4,0.9-0.4,1.6c0,0.7,0.1,1.2,0.4,1.5
				S127.3,387,127.8,387z"/>
			<path id="XMLID_1523_" class="st7" d="M137.2,388.6c-1.2,0-2.2-0.3-2.9-1s-1-1.6-1-2.9c0-1.3,0.3-2.3,1-3c0.6-0.7,1.5-1,2.7-1
				c1.1,0,1.9,0.3,2.5,0.9s0.9,1.5,0.9,2.5v1h-4.9c0,0.6,0.2,1.1,0.5,1.4s0.8,0.5,1.4,0.5c0.5,0,0.9,0,1.3-0.1s0.8-0.2,1.3-0.5v1.6
				c-0.4,0.2-0.8,0.3-1.2,0.4C138.3,388.6,137.8,388.6,137.2,388.6z M139.4,380h-1.1c-0.5-0.3-1-0.7-1.4-1.1c-0.5,0.5-1,0.8-1.4,1.1
				h-1.1v-0.2c0.5-0.6,1-1.2,1.5-1.9h2.2c0.2,0.4,0.5,0.7,0.8,1.1c0.3,0.4,0.5,0.7,0.7,0.8V380z M136.9,382.2c-0.4,0-0.8,0.1-1,0.4
				c-0.3,0.3-0.4,0.7-0.4,1.2h2.9c0-0.5-0.1-0.9-0.4-1.2C137.7,382.3,137.3,382.2,136.9,382.2z M140.8,377.3c0,0.5-0.3,0.8-0.9,1
				l0,0.4H139l-0.1-0.8c0.3,0,0.5,0,0.6-0.1c0.2-0.1,0.2-0.2,0.2-0.3c0-0.1,0-0.2-0.1-0.2s-0.2-0.1-0.4-0.1c-0.2,0-0.3,0-0.5,0.1
				v-0.9c0.1,0,0.3,0,0.6,0c0.4,0,0.8,0.1,1,0.2S140.8,377,140.8,377.3z"/>
			<path id="XMLID_1521_" class="st7" d="M148.8,387c0.4,0,0.8-0.1,1.3-0.2v1.6c-0.5,0.2-1.2,0.3-1.9,0.3c-0.8,0-1.4-0.2-1.8-0.6
				c-0.4-0.4-0.6-1.1-0.6-1.9v-3.7h-1v-0.9l1.1-0.7l0.6-1.6h1.3v1.6h2.1v1.6h-2.1v3.7c0,0.3,0.1,0.5,0.2,0.7S148.6,387,148.8,387z"
				/>
			<path id="XMLID_1519_" class="st7" d="M158.8,388.5h-2.1V384c0-1.1-0.4-1.7-1.2-1.7c-0.6,0-1,0.2-1.3,0.6s-0.4,1-0.4,1.9v3.6
				h-2.1v-10.6h2.1v2.2c0,0.2,0,0.6,0,1.2l0,0.6h0.1c0.5-0.7,1.2-1.1,2.2-1.1c0.9,0,1.6,0.2,2,0.7s0.7,1.2,0.7,2.1V388.5z"/>
			<path id="XMLID_1516_" class="st7" d="M164.4,388.6c-1.2,0-2.2-0.3-2.9-1s-1-1.6-1-2.9c0-1.3,0.3-2.3,1-3c0.6-0.7,1.5-1,2.7-1
				c1.1,0,1.9,0.3,2.5,0.9s0.9,1.5,0.9,2.5v1h-4.9c0,0.6,0.2,1.1,0.5,1.4s0.8,0.5,1.4,0.5c0.5,0,0.9,0,1.3-0.1s0.8-0.2,1.3-0.5v1.6
				c-0.4,0.2-0.8,0.3-1.2,0.4C165.5,388.6,165,388.6,164.4,388.6z M164.1,382.2c-0.4,0-0.8,0.1-1,0.4c-0.3,0.3-0.4,0.7-0.4,1.2h2.9
				c0-0.5-0.1-0.9-0.4-1.2C164.9,382.3,164.5,382.2,164.1,382.2z"/>
			<path id="XMLID_1513_" class="st7" d="M176.1,384.7c0,1.2-0.3,2.2-1,2.9s-1.6,1.1-2.7,1.1c-0.7,0-1.4-0.2-1.9-0.5
				c-0.6-0.3-1-0.8-1.3-1.4s-0.5-1.3-0.5-2.1c0-1.2,0.3-2.2,1-2.9s1.6-1,2.7-1c0.7,0,1.4,0.2,1.9,0.5s1,0.8,1.3,1.4
				S176.1,383.9,176.1,384.7z M170.8,384.7c0,0.8,0.1,1.3,0.4,1.7s0.7,0.6,1.2,0.6c0.6,0,1-0.2,1.2-0.6c0.2-0.4,0.4-1,0.4-1.7
				c0-0.8-0.1-1.3-0.4-1.7s-0.6-0.6-1.2-0.6c-0.6,0-1,0.2-1.2,0.6C171,383.3,170.8,383.9,170.8,384.7z"/>
			<path id="XMLID_1510_" class="st7" d="M183.9,388.6c-0.9,0-1.6-0.3-2.1-1s-0.8-1.7-0.8-2.9c0-1.3,0.3-2.2,0.8-2.9
				c0.5-0.7,1.2-1,2.2-1c1,0,1.7,0.4,2.2,1.1h0.1c-0.1-0.6-0.2-1.1-0.2-1.5v-2.4h2.1v10.6h-1.6l-0.4-1h-0.1
				C185.6,388.2,184.9,388.6,183.9,388.6z M184.6,387c0.5,0,0.9-0.2,1.2-0.5s0.4-0.8,0.4-1.6v-0.2c0-0.8-0.1-1.4-0.4-1.8
				s-0.7-0.5-1.2-0.5c-0.5,0-0.8,0.2-1.1,0.6c-0.3,0.4-0.4,1-0.4,1.7s0.1,1.3,0.4,1.7C183.8,386.8,184.2,387,184.6,387z"/>
			<path id="XMLID_1506_" class="st7" d="M197.3,384.7c0,1.2-0.3,2.2-1,2.9s-1.6,1.1-2.7,1.1c-0.7,0-1.4-0.2-1.9-0.5
				c-0.6-0.3-1-0.8-1.3-1.4s-0.5-1.3-0.5-2.1c0-1.2,0.3-2.2,1-2.9s1.6-1,2.7-1c0.7,0,1.4,0.2,1.9,0.5s1,0.8,1.3,1.4
				S197.3,383.9,197.3,384.7z M192.5,379.3c-0.1,0-0.3,0.1-0.4,0.2c-0.1,0.1-0.2,0.3-0.3,0.5h-1c0.1-0.7,0.2-1.2,0.6-1.6
				s0.8-0.6,1.3-0.6c0.2,0,0.4,0,0.6,0.1c0.2,0.1,0.4,0.2,0.5,0.2c0.2,0.1,0.3,0.2,0.5,0.2s0.3,0.1,0.5,0.1c0.1,0,0.3-0.1,0.4-0.2
				s0.2-0.3,0.3-0.5h1c-0.1,0.7-0.2,1.2-0.6,1.6s-0.8,0.6-1.3,0.6c-0.2,0-0.4,0-0.6-0.1c-0.2-0.1-0.4-0.2-0.5-0.2
				c-0.2-0.1-0.3-0.2-0.5-0.2C192.8,379.3,192.6,379.3,192.5,379.3z M192,384.7c0,0.8,0.1,1.3,0.4,1.7s0.7,0.6,1.2,0.6
				c0.6,0,1-0.2,1.2-0.6c0.2-0.4,0.4-1,0.4-1.7c0-0.8-0.1-1.3-0.4-1.7s-0.6-0.6-1.2-0.6c-0.6,0-1,0.2-1.2,0.6
				C192.1,383.3,192,383.9,192,384.7z"/>
			<path id="XMLID_1503_" class="st7" d="M198.9,378.9c0-0.7,0.4-1,1.1-1s1.1,0.3,1.1,1c0,0.3-0.1,0.6-0.3,0.8
				c-0.2,0.2-0.5,0.3-0.9,0.3C199.3,379.9,198.9,379.6,198.9,378.9z M201.1,388.5H199v-7.6h2.1V388.5z"/>
			<path id="XMLID_1499_" class="st7" d="M127.1,405.4c-0.9,0-1.6-0.3-2.1-1s-0.8-1.6-0.8-2.7c0-1.2,0.3-2.1,0.8-2.8
				c0.5-0.7,1.2-1,2.2-1c1,0,1.7,0.4,2.2,1.1h0.1c-0.1-0.6-0.2-1.1-0.2-1.6v-0.3h-2.2v-1.4h2.2v-1.1h2.1v1.1h1.1v1.4h-1.1v8.2h-1.6
				l-0.4-1h-0.1C128.7,405,128,405.4,127.1,405.4z M127.8,403.8c0.5,0,0.9-0.1,1.2-0.4c0.3-0.3,0.4-0.8,0.4-1.4v-0.2
				c0-0.7-0.1-1.3-0.4-1.6c-0.3-0.3-0.7-0.5-1.2-0.5c-0.5,0-0.8,0.2-1.1,0.5c-0.3,0.4-0.4,0.9-0.4,1.6c0,0.7,0.1,1.2,0.4,1.5
				S127.3,403.8,127.8,403.8z"/>
			<path id="XMLID_1497_" class="st7" d="M139.1,405.3l-0.3-1h-0.1c-0.2,0.4-0.5,0.6-0.9,0.8s-0.9,0.3-1.4,0.3c-0.9,0-1.6-0.2-2-0.7
				c-0.5-0.5-0.7-1.2-0.7-2.1v-5h2.1v4.5c0,0.6,0.1,1,0.3,1.2c0.2,0.3,0.5,0.4,0.9,0.4c0.6,0,1-0.2,1.3-0.6c0.3-0.4,0.4-1,0.4-1.9
				v-3.6h2.1v0.8c0.3-0.1,0.6-0.3,0.8-0.7c0.2-0.3,0.3-0.8,0.3-1.3h2.1l0.1,0.2c-0.1,0.7-0.3,1.3-0.6,1.6s-0.6,0.7-1,0.9
				s-0.9,0.4-1.6,0.5v5.6H139.1z"/>
			<path id="XMLID_1493_" class="st7" d="M151.3,401.5c0,1.2-0.3,2.2-1,2.9s-1.6,1.1-2.7,1.1c-0.7,0-1.4-0.2-1.9-0.5
				c-0.6-0.3-1-0.8-1.3-1.4s-0.5-1.3-0.5-2.1c0-1.2,0.3-2.2,1-2.9s1.6-1,2.7-1c0.5,0,1,0.1,1.4,0.2c0.5,0.2,0.8,0.4,1.2,0.7
				c0.7-0.2,1-0.9,1-1.9h2.1l0.1,0.2c-0.1,0.6-0.3,1.1-0.5,1.5c-0.2,0.4-0.5,0.7-0.8,0.9c-0.3,0.2-0.7,0.4-1.2,0.5
				C151.2,400.1,151.3,400.8,151.3,401.5z M146,401.5c0,0.8,0.1,1.3,0.4,1.7s0.7,0.6,1.2,0.6c0.6,0,1-0.2,1.2-0.6
				c0.2-0.4,0.4-1,0.4-1.7c0-0.8-0.1-1.3-0.4-1.7s-0.6-0.6-1.2-0.6c-0.6,0-1,0.2-1.2,0.6C146.1,400.1,146,400.7,146,401.5z
				 M146.5,407.2c0-0.7,0.4-1,1.1-1s1.1,0.3,1.1,1c0,0.3-0.1,0.6-0.3,0.8s-0.5,0.3-0.8,0.3C146.9,408.2,146.5,407.9,146.5,407.2z"/>
			<path id="XMLID_1491_" class="st7" d="M157,405.4c-2.4,0-3.6-1.3-3.6-3.9c0-1.3,0.3-2.3,1-3c0.6-0.7,1.6-1,2.8-1
				c0.9,0,1.7,0.2,2.4,0.5l-0.6,1.6c-0.3-0.1-0.6-0.2-0.9-0.3c-0.3-0.1-0.6-0.1-0.8-0.1c-1.1,0-1.6,0.8-1.6,2.3
				c0,1.5,0.5,2.2,1.6,2.2c0.4,0,0.8-0.1,1.1-0.2c0.3-0.1,0.7-0.3,1-0.5v1.8c-0.3,0.2-0.7,0.4-1,0.4S157.5,405.4,157,405.4z"/>
			<path id="XMLID_1488_" class="st7" d="M167.1,405.4c-0.9,0-1.6-0.3-2.1-1s-0.8-1.6-0.8-2.7c0-1.2,0.3-2.1,0.8-2.8
				c0.5-0.7,1.2-1,2.2-1c1,0,1.7,0.4,2.2,1.1h0.1c-0.1-0.6-0.2-1.1-0.2-1.6v-0.3h-2.2v-1.4h2.2v-1.1h2.1v1.1h1.1v1.4h-1.1v8.2h-1.6
				l-0.4-1h-0.1C168.8,405,168.1,405.4,167.1,405.4z M167.9,403.8c0.5,0,0.9-0.1,1.2-0.4c0.3-0.3,0.4-0.8,0.4-1.4v-0.2
				c0-0.7-0.1-1.3-0.4-1.6c-0.3-0.3-0.7-0.5-1.2-0.5c-0.5,0-0.8,0.2-1.1,0.5c-0.3,0.4-0.4,0.9-0.4,1.6c0,0.7,0.1,1.2,0.4,1.5
				S167.4,403.8,167.9,403.8z"/>
			<path id="XMLID_1485_" class="st7" d="M180.7,401.5c0,1.2-0.3,2.2-1,2.9s-1.6,1.1-2.7,1.1c-0.7,0-1.4-0.2-1.9-0.5
				c-0.6-0.3-1-0.8-1.3-1.4s-0.5-1.3-0.5-2.1c0-1.2,0.3-2.2,1-2.9s1.6-1,2.7-1c0.5,0,1,0.1,1.4,0.2c0.5,0.2,0.8,0.4,1.2,0.7
				c0.7-0.2,1-0.9,1-1.9h2.1l0.1,0.2c-0.1,0.6-0.3,1.1-0.5,1.5c-0.2,0.4-0.5,0.7-0.8,0.9c-0.3,0.2-0.7,0.4-1.2,0.5
				C180.6,400.1,180.7,400.8,180.7,401.5z M175.4,401.5c0,0.8,0.1,1.3,0.4,1.7s0.7,0.6,1.2,0.6c0.6,0,1-0.2,1.2-0.6
				c0.2-0.4,0.4-1,0.4-1.7c0-0.8-0.1-1.3-0.4-1.7s-0.6-0.6-1.2-0.6c-0.6,0-1,0.2-1.2,0.6C175.6,400.1,175.4,400.7,175.4,401.5z"/>
			<path id="XMLID_1483_" class="st7" d="M190.3,405.3h-2.1v-4.5c0-0.6-0.1-1-0.3-1.2c-0.2-0.3-0.5-0.4-0.9-0.4
				c-0.6,0-1,0.2-1.3,0.6c-0.3,0.4-0.4,1-0.4,1.9v3.6h-2.1v-7.6h1.6l0.3,1h0.1c0.2-0.4,0.6-0.6,1-0.8c0.4-0.2,0.9-0.3,1.4-0.3
				c0.9,0,1.6,0.2,2,0.7c0.5,0.5,0.7,1.2,0.7,2.1V405.3z"/>
			<path id="XMLID_1481_" class="st7" d="M131.7,422.1h-2.1v-4.5c0-1.1-0.4-1.7-1.2-1.7c-0.6,0-1,0.2-1.3,0.6s-0.4,1-0.4,1.9v3.6
				h-2.1v-10.6h2.1v2.2c0,0.2,0,0.6,0,1.2l0,0.6h0.1c0.5-0.7,1.2-1.1,2.2-1.1c0.9,0,1.6,0.2,2,0.7s0.7,1.2,0.7,2.1V422.1z"/>
			<path id="XMLID_1477_" class="st7" d="M138.7,422.1l-0.4-1h-0.1c-0.4,0.4-0.7,0.7-1.1,0.9c-0.4,0.2-0.9,0.3-1.5,0.3
				c-0.7,0-1.3-0.2-1.7-0.6s-0.6-1-0.6-1.8c0-0.8,0.3-1.4,0.9-1.8c0.6-0.4,1.4-0.6,2.6-0.6l1.3,0V417c0-0.8-0.4-1.2-1.2-1.2
				c-0.6,0-1.3,0.2-2.2,0.6L134,415c0.9-0.5,1.9-0.7,2.9-0.7c1,0,1.8,0.2,2.4,0.7s0.8,1.1,0.8,2v5.1H138.7z M136.9,413.6
				c-0.3-0.2-0.7-0.5-1.3-1c-0.6-0.4-1-0.8-1.3-1.1v-0.1h2.3c0.3,0.5,0.8,1.1,1.6,2.1v0.2H136.9z M138.1,418.5l-0.8,0
				c-0.6,0-1.1,0.1-1.4,0.3s-0.4,0.5-0.4,0.9c0,0.6,0.3,0.9,1,0.9c0.5,0,0.9-0.1,1.2-0.4s0.4-0.6,0.4-1.1V418.5z"/>
			<path id="XMLID_1475_" class="st7" d="M149.3,422.1h-2.1v-4.5c0-0.6-0.1-1-0.3-1.2c-0.2-0.3-0.5-0.4-0.9-0.4
				c-0.6,0-1,0.2-1.3,0.6c-0.3,0.4-0.4,1-0.4,1.9v3.6h-2.1v-7.6h1.6l0.3,1h0.1c0.2-0.4,0.6-0.6,1-0.8c0.4-0.2,0.9-0.3,1.4-0.3
				c0.9,0,1.6,0.2,2,0.7c0.5,0.5,0.7,1.2,0.7,2.1V422.1z"/>
			<path id="XMLID_1472_" class="st7" d="M158.2,422.1c0,1.1-0.3,1.9-1,2.5c-0.6,0.6-1.6,0.9-2.9,0.9c-1.1,0-2.1-0.2-2.9-0.5v-1.7
				c0.9,0.4,1.9,0.6,3,0.6c1.1,0,1.6-0.6,1.6-1.7V422l0.1-0.9h-0.1c-0.5,0.8-1.2,1.1-2.2,1.1c-0.9,0-1.6-0.4-2.1-1.1
				s-0.8-1.7-0.8-2.9c0-1.3,0.3-2.2,0.8-2.9c0.5-0.7,1.2-1,2.2-1c0.9,0,1.7,0.4,2.2,1.1h0.1l0.2-1h1.8V422.1z M154.7,420.6
				c0.6,0,1-0.2,1.2-0.5c0.2-0.3,0.4-0.8,0.4-1.6v-0.3c0-0.8-0.1-1.4-0.4-1.8c-0.3-0.4-0.7-0.5-1.2-0.5c-1,0-1.5,0.8-1.5,2.3
				c0,0.8,0.1,1.3,0.4,1.7S154.1,420.6,154.7,420.6z"/>
			<path id="XMLID_1470_" class="st7" d="M167.1,422.2c-2.4,0-3.6-1.3-3.6-3.9c0-1.3,0.3-2.3,1-3c0.6-0.7,1.6-1,2.8-1
				c0.9,0,1.7,0.2,2.4,0.5l-0.6,1.6c-0.3-0.1-0.6-0.2-0.9-0.3c-0.3-0.1-0.6-0.1-0.8-0.1c-1.1,0-1.6,0.8-1.6,2.3
				c0,1.5,0.5,2.2,1.6,2.2c0.4,0,0.8-0.1,1.1-0.2c0.3-0.1,0.7-0.3,1-0.5v1.8c-0.3,0.2-0.7,0.4-1,0.4S167.6,422.2,167.1,422.2z"/>
			<path id="XMLID_1467_" class="st7" d="M176.6,422.1l-0.3-1h-0.1c-0.2,0.4-0.5,0.6-1,0.8c-0.4,0.2-0.9,0.3-1.4,0.3
				c-0.9,0-1.6-0.2-2-0.7c-0.5-0.5-0.7-1.2-0.7-2.1v-5h2.1v4.5c0,0.6,0.1,1,0.3,1.2c0.2,0.3,0.5,0.4,0.9,0.4c0.6,0,1-0.2,1.3-0.6
				c0.3-0.4,0.4-1,0.4-1.9v-3.6h2.1v7.6H176.6z M176.4,411.9c0,0.7-0.4,1.2-1.1,1.3l-0.1,0.5H174l-0.2-1c0.3-0.1,0.6-0.1,0.7-0.3
				c0.1-0.1,0.2-0.3,0.2-0.4c0-0.1,0-0.3-0.1-0.3s-0.2-0.1-0.4-0.1c-0.3,0-0.6,0.1-1,0.2v-1.1c0.1,0,0.3-0.1,0.6-0.1
				c0.2,0,0.5,0,0.6,0c0.6,0,1.1,0.1,1.4,0.4C176.2,411.1,176.4,411.5,176.4,411.9z"/>
			<path id="XMLID_1464_" class="st7" d="M185.2,422.1l-0.4-1h-0.1c-0.4,0.4-0.7,0.7-1.1,0.9c-0.4,0.2-0.9,0.3-1.5,0.3
				c-0.7,0-1.3-0.2-1.7-0.6s-0.6-1-0.6-1.8c0-0.8,0.3-1.4,0.9-1.8c0.6-0.4,1.4-0.6,2.6-0.6l1.3,0V417c0-0.8-0.4-1.2-1.2-1.2
				c-0.6,0-1.3,0.2-2.2,0.6l-0.7-1.4c0.9-0.5,1.9-0.7,2.9-0.7c1,0,1.8,0.2,2.4,0.7s0.8,1.1,0.8,2v5.1H185.2z M184.6,418.5l-0.8,0
				c-0.6,0-1.1,0.1-1.4,0.3s-0.4,0.5-0.4,0.9c0,0.6,0.3,0.9,1,0.9c0.5,0,0.9-0.1,1.2-0.4s0.4-0.6,0.4-1.1V418.5z"/>
			<path id="XMLID_1462_" class="st7" d="M131.5,438.9h-2.1v-4.5c0-0.6-0.1-1-0.3-1.2c-0.2-0.3-0.5-0.4-0.9-0.4
				c-0.5,0-0.9,0.2-1.2,0.6s-0.4,1-0.4,1.9v3.6h-2.1v-7.6h1.6l0.3,1h0.1c0.2-0.4,0.5-0.6,0.9-0.8c0.4-0.2,0.8-0.3,1.3-0.3
				c1.1,0,1.9,0.4,2.3,1.1h0.2c0.2-0.4,0.5-0.6,0.9-0.8s0.8-0.3,1.4-0.3c0.9,0,1.5,0.2,2,0.7c0.4,0.4,0.7,1.2,0.7,2.1v5h-2.1v-4.5
				c0-0.6-0.1-1-0.3-1.2c-0.2-0.3-0.5-0.4-0.9-0.4c-0.5,0-0.9,0.2-1.1,0.5s-0.4,0.9-0.4,1.7V438.9z"/>
			<path id="XMLID_1459_" class="st7" d="M139.2,430.4c-0.3-0.2-0.7-0.5-1.3-1c-0.6-0.4-1-0.8-1.3-1.1v-0.1h2.3
				c0.3,0.5,0.8,1.1,1.6,2.1v0.2H139.2z M140.5,438.9h-2.1v-7.6h2.1V438.9z"/>
			<path id="XMLID_1457_" class="st7" d="M149.7,438.9h-2.1v-4.5c0-0.6-0.1-1-0.3-1.2c-0.2-0.3-0.5-0.4-0.9-0.4
				c-0.6,0-1,0.2-1.3,0.6c-0.3,0.4-0.4,1-0.4,1.9v3.6h-2.1v-7.6h1.6l0.3,1h0.1c0.2-0.4,0.6-0.6,1-0.8c0.4-0.2,0.9-0.3,1.4-0.3
				c0.9,0,1.6,0.2,2,0.7c0.5,0.5,0.7,1.2,0.7,2.1V438.9z"/>
			<path id="XMLID_1455_" class="st7" d="M158.9,438.9h-2.1v-4.5c0-1.1-0.4-1.7-1.2-1.7c-0.6,0-1,0.2-1.3,0.6s-0.4,1-0.4,1.9v3.6
				h-2.1v-10.6h2.1v2.2c0,0.2,0,0.6,0,1.2l0,0.6h0.1c0.5-0.7,1.2-1.1,2.2-1.1c0.9,0,1.6,0.2,2,0.7s0.7,1.2,0.7,2.1V438.9z"/>
			<path id="XMLID_1452_" class="st7" d="M161.8,435.6v-0.5c0-0.4,0.1-0.8,0.3-1.1s0.5-0.7,1-1c0.5-0.3,0.8-0.6,0.9-0.8
				s0.2-0.5,0.2-0.7c0-0.3-0.1-0.5-0.3-0.7s-0.5-0.2-0.9-0.2c-0.7,0-1.5,0.2-2.3,0.7l-0.7-1.5c1-0.6,2.1-0.9,3.2-0.9
				c0.9,0,1.7,0.2,2.2,0.7s0.8,1.1,0.8,1.8c0,0.5-0.1,0.9-0.3,1.3s-0.7,0.8-1.3,1.2c-0.4,0.3-0.7,0.6-0.8,0.7s-0.2,0.4-0.2,0.7v0.4
				H161.8z M161.6,437.9c0-0.4,0.1-0.7,0.3-0.9s0.5-0.3,0.9-0.3c0.4,0,0.7,0.1,0.9,0.3s0.3,0.5,0.3,0.9c0,0.4-0.1,0.6-0.3,0.9
				c-0.2,0.2-0.5,0.3-0.9,0.3c-0.4,0-0.7-0.1-0.9-0.3C161.7,438.6,161.6,438.3,161.6,437.9z"/>
		</g>
	</g>
	<g id="XMLID_162_">
		<g id="XMLID_1633_">
			<path id="XMLID_1763_" class="st7" d="M246.1,363.3c-0.8,0-1.4,0.3-1.9,0.9c-0.4,0.6-0.7,1.4-0.7,2.5c0,2.2,0.8,3.3,2.5,3.3
				c0.7,0,1.6-0.2,2.5-0.5v1.8c-0.8,0.3-1.7,0.5-2.7,0.5c-1.5,0-2.6-0.4-3.3-1.3c-0.8-0.9-1.2-2.1-1.2-3.8c0-1,0.2-1.9,0.6-2.7
				c0.4-0.8,0.9-1.4,1.6-1.8c0.7-0.4,1.5-0.6,2.5-0.6c1,0,1.9,0.2,2.9,0.7l-0.7,1.7c-0.4-0.2-0.7-0.3-1.1-0.5
				S246.5,363.3,246.1,363.3z"/>
			<path id="XMLID_1759_" class="st7" d="M257.6,367.9c0,1.2-0.3,2.2-1,2.9s-1.6,1.1-2.7,1.1c-0.7,0-1.4-0.2-1.9-0.5
				c-0.6-0.3-1-0.8-1.3-1.4s-0.5-1.3-0.5-2.1c0-1.2,0.3-2.2,1-2.9s1.6-1,2.7-1c0.7,0,1.4,0.2,1.9,0.5s1,0.8,1.3,1.4
				S257.6,367.1,257.6,367.9z M252.3,367.9c0,0.8,0.1,1.3,0.4,1.7s0.7,0.6,1.2,0.6c0.6,0,1-0.2,1.2-0.6c0.2-0.4,0.4-1,0.4-1.7
				c0-0.8-0.1-1.3-0.4-1.7s-0.6-0.6-1.2-0.6c-0.6,0-1,0.2-1.2,0.6C252.4,366.5,252.3,367.1,252.3,367.9z M252.8,363.2V363
				c0.8-0.9,1.3-1.6,1.6-2.1h2.3v0.1c-0.2,0.2-0.6,0.6-1.2,1.1c-0.6,0.5-1,0.8-1.3,1H252.8z"/>
			<path id="XMLID_1757_" class="st7" d="M265,371.7H263v-10.6h2.1V371.7z"/>
			<path id="XMLID_1753_" class="st7" d="M270.7,371.8c-1.2,0-2.2-0.3-2.9-1s-1-1.6-1-2.9c0-1.3,0.3-2.3,1-3c0.6-0.7,1.5-1,2.7-1
				c1.1,0,1.9,0.3,2.5,0.9s0.9,1.5,0.9,2.5v1h-4.9c0,0.6,0.2,1.1,0.5,1.4s0.8,0.5,1.4,0.5c0.5,0,0.9,0,1.3-0.1s0.8-0.2,1.3-0.5v1.6
				c-0.4,0.2-0.8,0.3-1.2,0.4C271.8,371.8,271.3,371.8,270.7,371.8z M269.2,362.5c-0.1,0-0.3,0.1-0.4,0.2c-0.1,0.1-0.2,0.3-0.3,0.5
				h-1c0.1-0.7,0.2-1.2,0.6-1.6s0.8-0.6,1.3-0.6c0.2,0,0.4,0,0.6,0.1c0.2,0.1,0.4,0.2,0.5,0.2c0.2,0.1,0.3,0.2,0.5,0.2
				s0.3,0.1,0.5,0.1c0.1,0,0.3-0.1,0.4-0.2s0.2-0.3,0.3-0.5h1c-0.1,0.7-0.2,1.2-0.6,1.6s-0.8,0.6-1.3,0.6c-0.2,0-0.4,0-0.6-0.1
				c-0.2-0.1-0.4-0.2-0.5-0.2c-0.2-0.1-0.3-0.2-0.5-0.2C269.6,362.5,269.4,362.5,269.2,362.5z M270.4,365.4c-0.4,0-0.8,0.1-1,0.4
				c-0.3,0.3-0.4,0.7-0.4,1.2h2.9c0-0.5-0.1-0.9-0.4-1.2C271.2,365.5,270.8,365.4,270.4,365.4z"/>
			<path id="XMLID_1751_" class="st7" d="M286.2,371.7h-2.1v-4.5c0-1.1-0.4-1.7-1.2-1.7c-0.6,0-1,0.2-1.3,0.6s-0.4,1-0.4,1.9v3.6
				h-2.1v-10.6h2.1v2.2c0,0.2,0,0.6,0,1.2l0,0.6h0.1c0.5-0.7,1.2-1.1,2.2-1.1c0.9,0,1.6,0.2,2,0.7s0.7,1.2,0.7,2.1V371.7z"/>
			<path id="XMLID_1747_" class="st7" d="M293.2,371.7l-0.4-1h-0.1c-0.4,0.4-0.7,0.7-1.1,0.9c-0.4,0.2-0.9,0.3-1.5,0.3
				c-0.7,0-1.3-0.2-1.7-0.6s-0.6-1-0.6-1.8c0-0.8,0.3-1.4,0.9-1.8c0.6-0.4,1.4-0.6,2.6-0.6l1.3,0v-0.3c0-0.8-0.4-1.2-1.2-1.2
				c-0.6,0-1.3,0.2-2.2,0.6l-0.7-1.4c0.9-0.5,1.9-0.7,2.9-0.7c1,0,1.8,0.2,2.4,0.7s0.8,1.1,0.8,2v5.1H293.2z M291.5,363.2
				c-0.3-0.2-0.7-0.5-1.3-1c-0.6-0.4-1-0.8-1.3-1.1V361h2.3c0.3,0.5,0.8,1.1,1.6,2.1v0.2H291.5z M292.6,368.1l-0.8,0
				c-0.6,0-1.1,0.1-1.4,0.3s-0.4,0.5-0.4,0.9c0,0.6,0.3,0.9,1,0.9c0.5,0,0.9-0.1,1.2-0.4s0.4-0.6,0.4-1.1V368.1z"/>
			<path id="XMLID_1745_" class="st7" d="M303.9,371.7h-2.1v-4.5c0-0.6-0.1-1-0.3-1.2c-0.2-0.3-0.5-0.4-0.9-0.4
				c-0.6,0-1,0.2-1.3,0.6c-0.3,0.4-0.4,1-0.4,1.9v3.6h-2.1V364h1.6l0.3,1h0.1c0.2-0.4,0.6-0.6,1-0.8c0.4-0.2,0.9-0.3,1.4-0.3
				c0.9,0,1.6,0.2,2,0.7c0.5,0.5,0.7,1.2,0.7,2.1V371.7z"/>
			<path id="XMLID_1742_" class="st7" d="M312.7,371.7c0,1.1-0.3,1.9-1,2.5c-0.6,0.6-1.6,0.9-2.9,0.9c-1.1,0-2.1-0.2-2.9-0.5v-1.7
				c0.9,0.4,1.9,0.6,3,0.6c1.1,0,1.6-0.6,1.6-1.7v-0.2l0.1-0.9h-0.1c-0.5,0.8-1.2,1.1-2.2,1.1c-0.9,0-1.6-0.4-2.1-1.1
				s-0.8-1.7-0.8-2.9c0-1.3,0.3-2.2,0.8-2.9c0.5-0.7,1.2-1,2.2-1c0.9,0,1.7,0.4,2.2,1.1h0.1l0.2-1h1.8V371.7z M309.2,370.2
				c0.6,0,1-0.2,1.2-0.5c0.2-0.3,0.4-0.8,0.4-1.6v-0.3c0-0.8-0.1-1.4-0.4-1.8c-0.3-0.4-0.7-0.5-1.2-0.5c-1,0-1.5,0.8-1.5,2.3
				c0,0.8,0.1,1.3,0.4,1.7S308.7,370.2,309.2,370.2z"/>
			<path id="XMLID_1740_" class="st7" d="M245,387c0.4,0,0.8-0.1,1.3-0.2v1.6c-0.5,0.2-1.2,0.3-1.9,0.3c-0.8,0-1.4-0.2-1.8-0.6
				c-0.4-0.4-0.6-1.1-0.6-1.9v-3.7h-1v-0.9l1.1-0.7l0.6-1.6h1.3v1.6h2.1v1.6H244v3.7c0,0.3,0.1,0.5,0.2,0.7S244.7,387,245,387z"/>
			<path id="XMLID_1738_" class="st7" d="M254.9,388.5h-2.1V384c0-1.1-0.4-1.7-1.2-1.7c-0.6,0-1,0.2-1.3,0.6s-0.4,1-0.4,1.9v3.6
				h-2.1v-10.6h2.1v2.2c0,0.2,0,0.6,0,1.2l0,0.6h0.1c0.5-0.7,1.2-1.1,2.2-1.1c0.9,0,1.6,0.2,2,0.7s0.7,1.2,0.7,2.1V388.5z"/>
			<path id="XMLID_1733_" class="st7" d="M261.9,388.5l-0.4-1h-0.1c-0.4,0.4-0.7,0.7-1.1,0.9c-0.4,0.2-0.9,0.3-1.5,0.3
				c-0.7,0-1.3-0.2-1.7-0.6s-0.6-1-0.6-1.8c0-0.8,0.3-1.4,0.9-1.8c0.6-0.4,1.4-0.6,2.6-0.6l1.3,0v-0.3c0-0.8-0.4-1.2-1.2-1.2
				c-0.6,0-1.3,0.2-2.2,0.6l-0.7-1.4c0.9-0.5,1.9-0.7,2.9-0.7c1,0,1.8,0.2,2.4,0.7s0.8,1.1,0.8,2v5.1H261.9z M261.7,380
				c-0.7-0.4-1.2-0.8-1.6-1.2c-0.4,0.4-0.9,0.8-1.6,1.2h-1.4v-0.2c0.9-0.9,1.4-1.5,1.8-2.1h2.4c0.1,0.2,0.4,0.6,0.7,1
				c0.3,0.4,0.7,0.8,1,1.1v0.2H261.7z M261.3,384.9l-0.8,0c-0.6,0-1.1,0.1-1.4,0.3s-0.4,0.5-0.4,0.9c0,0.6,0.3,0.9,1,0.9
				c0.5,0,0.9-0.1,1.2-0.4s0.4-0.6,0.4-1.1V384.9z M258.8,390.4c0-0.7,0.4-1,1.1-1s1.1,0.3,1.1,1c0,0.3-0.1,0.6-0.3,0.8
				s-0.5,0.3-0.8,0.3C259.2,391.4,258.8,391.1,258.8,390.4z"/>
			<path id="XMLID_1731_" class="st7" d="M268.7,387c0.4,0,0.8-0.1,1.3-0.2v1.6c-0.5,0.2-1.2,0.3-1.9,0.3c-0.8,0-1.4-0.2-1.8-0.6
				c-0.4-0.4-0.6-1.1-0.6-1.9v-3.7h-1v-0.9l1.1-0.7l0.6-1.6h1.3v1.6h2.1v1.6h-2.1v3.7c0,0.3,0.1,0.5,0.2,0.7S268.4,387,268.7,387z"
				/>
			<path id="XMLID_1729_" class="st7" d="M280.5,386.2c0,0.8-0.3,1.4-0.8,1.8s-1.4,0.6-2.4,0.6c-0.6,0-1,0-1.4-0.1
				c-0.4-0.1-0.8-0.2-1.1-0.3v-1.7c0.4,0.2,0.8,0.3,1.3,0.5s0.9,0.2,1.3,0.2c0.8,0,1.1-0.2,1.1-0.7c0-0.2-0.1-0.3-0.2-0.4
				c-0.1-0.1-0.3-0.2-0.5-0.3c-0.2-0.1-0.6-0.3-1-0.5c-0.6-0.2-1-0.5-1.3-0.7s-0.5-0.5-0.6-0.7c-0.1-0.3-0.2-0.6-0.2-1
				c0-0.7,0.3-1.2,0.8-1.6c0.5-0.4,1.3-0.6,2.2-0.6c0.9,0,1.8,0.2,2.7,0.6l-0.6,1.5c-0.4-0.2-0.7-0.3-1.1-0.4s-0.7-0.2-1-0.2
				c-0.6,0-0.9,0.2-0.9,0.5c0,0.2,0.1,0.3,0.3,0.5s0.6,0.3,1.3,0.6c0.6,0.2,1,0.5,1.3,0.7s0.5,0.5,0.6,0.7S280.5,385.8,280.5,386.2z
				"/>
			<path id="XMLID_1725_" class="st7" d="M285.6,388.6c-1.2,0-2.2-0.3-2.9-1s-1-1.6-1-2.9c0-1.3,0.3-2.3,1-3c0.6-0.7,1.5-1,2.7-1
				c1.1,0,1.9,0.3,2.5,0.9s0.9,1.5,0.9,2.5v1h-4.9c0,0.6,0.2,1.1,0.5,1.4s0.8,0.5,1.4,0.5c0.5,0,0.9,0,1.3-0.1s0.8-0.2,1.3-0.5v1.6
				c-0.4,0.2-0.8,0.3-1.2,0.4C286.7,388.6,286.2,388.6,285.6,388.6z M284.1,379.3c-0.1,0-0.3,0.1-0.4,0.2c-0.1,0.1-0.2,0.3-0.3,0.5
				h-1c0.1-0.7,0.2-1.2,0.6-1.6s0.8-0.6,1.3-0.6c0.2,0,0.4,0,0.6,0.1c0.2,0.1,0.4,0.2,0.5,0.2c0.2,0.1,0.3,0.2,0.5,0.2
				s0.3,0.1,0.5,0.1c0.1,0,0.3-0.1,0.4-0.2s0.2-0.3,0.3-0.5h1c-0.1,0.7-0.2,1.2-0.6,1.6s-0.8,0.6-1.3,0.6c-0.2,0-0.4,0-0.6-0.1
				c-0.2-0.1-0.4-0.2-0.5-0.2c-0.2-0.1-0.3-0.2-0.5-0.2C284.5,379.3,284.3,379.3,284.1,379.3z M285.3,382.2c-0.4,0-0.8,0.1-1,0.4
				c-0.3,0.3-0.4,0.7-0.4,1.2h2.9c0-0.5-0.1-0.9-0.4-1.2C286.1,382.3,285.8,382.2,285.3,382.2z"/>
			<path id="XMLID_1723_" class="st7" d="M296.1,384.3l0.9-1.2l2.1-2.3h2.4l-3,3.3l3.2,4.3h-2.4l-2.2-3.1l-0.9,0.7v2.4h-2.1v-10.6
				h2.1v4.7L296.1,384.3L296.1,384.3z"/>
			<path id="XMLID_1721_" class="st7" d="M309.8,388.5h-2.1V384c0-1.1-0.4-1.7-1.2-1.7c-0.6,0-1,0.2-1.3,0.6s-0.4,1-0.4,1.9v3.6
				h-2.1v-10.6h2.1v2.2c0,0.2,0,0.6,0,1.2l0,0.6h0.1c0.5-0.7,1.2-1.1,2.2-1.1c0.9,0,1.6,0.2,2,0.7s0.7,1.2,0.7,2.1V388.5z"/>
			<path id="XMLID_1717_" class="st7" d="M318.9,384.7c0,1.2-0.3,2.2-1,2.9s-1.6,1.1-2.7,1.1c-0.7,0-1.4-0.2-1.9-0.5
				c-0.6-0.3-1-0.8-1.3-1.4s-0.5-1.3-0.5-2.1c0-1.2,0.3-2.2,1-2.9s1.6-1,2.7-1c0.7,0,1.4,0.2,1.9,0.5s1,0.8,1.3,1.4
				S318.9,383.9,318.9,384.7z M316.7,380c-0.7-0.4-1.2-0.8-1.6-1.2c-0.4,0.4-0.9,0.8-1.6,1.2h-1.4v-0.2c0.9-0.9,1.4-1.5,1.8-2.1h2.4
				c0.1,0.2,0.4,0.6,0.7,1c0.3,0.4,0.7,0.8,1,1.1v0.2H316.7z M313.6,384.7c0,0.8,0.1,1.3,0.4,1.7c0.2,0.4,0.7,0.6,1.2,0.6
				c0.6,0,1-0.2,1.2-0.6c0.2-0.4,0.4-1,0.4-1.7c0-0.8-0.1-1.3-0.4-1.7s-0.6-0.6-1.2-0.6c-0.6,0-1,0.2-1.2,0.6
				C313.7,383.3,313.6,383.9,313.6,384.7z"/>
			<path id="XMLID_1715_" class="st7" d="M327.7,388.5h-2.1V384c0-0.6-0.1-1-0.3-1.2c-0.2-0.3-0.5-0.4-0.9-0.4c-0.6,0-1,0.2-1.3,0.6
				c-0.3,0.4-0.4,1-0.4,1.9v3.6h-2.1v-7.6h1.6l0.3,1h0.1c0.2-0.4,0.6-0.6,1-0.8c0.4-0.2,0.9-0.3,1.4-0.3c0.9,0,1.6,0.2,2,0.7
				c0.5,0.5,0.7,1.2,0.7,2.1V388.5z"/>
			<path id="XMLID_1712_" class="st7" d="M336.5,388.5c0,1.1-0.3,1.9-1,2.5c-0.6,0.6-1.6,0.9-2.9,0.9c-1.1,0-2.1-0.2-2.9-0.5v-1.7
				c0.9,0.4,1.9,0.6,3,0.6c1.1,0,1.6-0.6,1.6-1.7v-0.2l0.1-0.9h-0.1c-0.5,0.8-1.2,1.1-2.2,1.1c-0.9,0-1.6-0.4-2.1-1.1
				c-0.5-0.7-0.8-1.7-0.8-2.9c0-1.3,0.3-2.2,0.8-2.9c0.5-0.7,1.2-1,2.2-1c0.9,0,1.7,0.4,2.2,1.1h0.1l0.2-1h1.8V388.5z M333,387
				c0.6,0,1-0.2,1.2-0.5c0.2-0.3,0.4-0.8,0.4-1.6v-0.3c0-0.8-0.1-1.4-0.4-1.8c-0.3-0.4-0.7-0.5-1.2-0.5c-1,0-1.5,0.8-1.5,2.3
				c0,0.8,0.1,1.3,0.4,1.7C332.1,386.8,332.5,387,333,387z"/>
			<path id="XMLID_1709_" class="st7" d="M248.4,405.3c0,1.1-0.3,1.9-1,2.5c-0.6,0.6-1.6,0.9-2.9,0.9c-1.1,0-2.1-0.2-2.9-0.5v-1.7
				c0.9,0.4,1.9,0.6,3,0.6c1.1,0,1.6-0.6,1.6-1.7v-0.2l0.1-0.9h-0.1c-0.5,0.8-1.2,1.1-2.2,1.1c-0.9,0-1.6-0.4-2.1-1.1
				s-0.8-1.7-0.8-2.9c0-1.3,0.3-2.2,0.8-2.9c0.5-0.7,1.2-1,2.2-1c0.9,0,1.7,0.4,2.2,1.1h0.1l0.2-1h1.8V405.3z M244.9,403.8
				c0.6,0,1-0.2,1.2-0.5c0.2-0.3,0.4-0.8,0.4-1.6v-0.3c0-0.8-0.1-1.4-0.4-1.8c-0.3-0.4-0.7-0.5-1.2-0.5c-1,0-1.5,0.8-1.5,2.3
				c0,0.8,0.1,1.3,0.4,1.7S244.4,403.8,244.9,403.8z"/>
			<path id="XMLID_1706_" class="st7" d="M250.5,395.7c0-0.7,0.4-1,1.1-1s1.1,0.3,1.1,1c0,0.3-0.1,0.6-0.3,0.8
				c-0.2,0.2-0.5,0.3-0.9,0.3C250.9,396.7,250.5,396.4,250.5,395.7z M252.7,405.3h-2.1v-7.6h2.1V405.3z"/>
			<path id="XMLID_1701_" class="st7" d="M261.8,401.5c0,1.2-0.3,2.2-1,2.9s-1.6,1.1-2.7,1.1c-0.7,0-1.4-0.2-1.9-0.5
				c-0.6-0.3-1-0.8-1.3-1.4s-0.5-1.3-0.5-2.1c0-1.2,0.3-2.2,1-2.9s1.6-1,2.7-1c0.7,0,1.4,0.2,1.9,0.5s1,0.8,1.3,1.4
				S261.8,400.7,261.8,401.5z M260.6,396.8h-1.1c-0.5-0.3-1-0.7-1.4-1.1c-0.5,0.5-1,0.8-1.4,1.1h-1.1v-0.2c0.5-0.6,1-1.2,1.5-1.9
				h2.2c0.2,0.4,0.5,0.7,0.8,1.1c0.3,0.4,0.5,0.7,0.7,0.8V396.8z M256.5,401.5c0,0.8,0.1,1.3,0.4,1.7s0.7,0.6,1.2,0.6
				c0.6,0,1-0.2,1.2-0.6c0.2-0.4,0.4-1,0.4-1.7c0-0.8-0.1-1.3-0.4-1.7s-0.6-0.6-1.2-0.6c-0.6,0-1,0.2-1.2,0.6
				C256.7,400.1,256.5,400.7,256.5,401.5z M260,395.3c0.4-0.4,0.7-0.9,0.9-1.4h1.6v0.1c-0.3,0.4-0.8,0.9-1.6,1.4h-1V395.3z"/>
			<path id="XMLID_1699_" class="st7" d="M270.6,405.3h-2.1v-4.5c0-0.6-0.1-1-0.3-1.2c-0.2-0.3-0.5-0.4-0.9-0.4
				c-0.6,0-1,0.2-1.3,0.6c-0.3,0.4-0.4,1-0.4,1.9v3.6h-2.1v-7.6h1.6l0.3,1h0.1c0.2-0.4,0.6-0.6,1-0.8c0.4-0.2,0.9-0.3,1.4-0.3
				c0.9,0,1.6,0.2,2,0.7c0.5,0.5,0.7,1.2,0.7,2.1V405.3z"/>
			<path id="XMLID_1696_" class="st7" d="M279.4,405.3c0,1.1-0.3,1.9-1,2.5c-0.6,0.6-1.6,0.9-2.9,0.9c-1.1,0-2.1-0.2-2.9-0.5v-1.7
				c0.9,0.4,1.9,0.6,3,0.6c1.1,0,1.6-0.6,1.6-1.7v-0.2l0.1-0.9h-0.1c-0.5,0.8-1.2,1.1-2.2,1.1c-0.9,0-1.6-0.4-2.1-1.1
				s-0.8-1.7-0.8-2.9c0-1.3,0.3-2.2,0.8-2.9c0.5-0.7,1.2-1,2.2-1c0.9,0,1.7,0.4,2.2,1.1h0.1l0.2-1h1.8V405.3z M275.9,403.8
				c0.6,0,1-0.2,1.2-0.5c0.2-0.3,0.4-0.8,0.4-1.6v-0.3c0-0.8-0.1-1.4-0.4-1.8c-0.3-0.4-0.7-0.5-1.2-0.5c-1,0-1.5,0.8-1.5,2.3
				c0,0.8,0.1,1.3,0.4,1.7S275.4,403.8,275.9,403.8z"/>
			<path id="XMLID_1694_" class="st7" d="M292.3,405.3h-2.1v-4.5c0-0.6-0.1-1-0.3-1.2c-0.2-0.3-0.5-0.4-0.9-0.4
				c-0.6,0-1,0.2-1.3,0.6c-0.3,0.4-0.4,1-0.4,1.9v3.6h-2.1v-7.6h1.6l0.3,1h0.1c0.2-0.4,0.6-0.6,1-0.8c0.4-0.2,0.9-0.3,1.4-0.3
				c0.9,0,1.6,0.2,2,0.7c0.5,0.5,0.7,1.2,0.7,2.1V405.3z"/>
			<path id="XMLID_1692_" class="st7" d="M301.5,405.3h-2.1v-4.5c0-1.1-0.4-1.7-1.2-1.7c-0.6,0-1,0.2-1.3,0.6s-0.4,1-0.4,1.9v3.6
				h-2.1v-10.6h2.1v2.2c0,0.2,0,0.6,0,1.2l0,0.6h0.1c0.5-0.7,1.2-1.1,2.2-1.1c0.9,0,1.6,0.2,2,0.7s0.7,1.2,0.7,2.1V405.3z"/>
			<path id="XMLID_1690_" class="st7" d="M309.1,405.3l-0.3-1h-0.1c-0.2,0.4-0.5,0.6-0.9,0.8s-0.9,0.3-1.4,0.3c-0.9,0-1.6-0.2-2-0.7
				c-0.5-0.5-0.7-1.2-0.7-2.1v-5h2.1v4.5c0,0.6,0.1,1,0.3,1.2c0.2,0.3,0.5,0.4,0.9,0.4c0.6,0,1-0.2,1.3-0.6c0.3-0.4,0.4-1,0.4-1.9
				v-3.6h2.1v0.8c0.3-0.1,0.6-0.3,0.8-0.7c0.2-0.3,0.3-0.8,0.3-1.3h2.1l0.1,0.2c-0.1,0.7-0.3,1.3-0.6,1.6s-0.6,0.7-1,0.9
				c-0.4,0.2-0.9,0.4-1.6,0.5v5.6H309.1z"/>
			<path id="XMLID_1688_" class="st7" d="M248.8,422.1h-2.1v-4.5c0-1.1-0.4-1.7-1.2-1.7c-0.6,0-1,0.2-1.3,0.6s-0.4,1-0.4,1.9v3.6
				h-2.1v-10.6h2.1v2.2c0,0.2,0,0.6,0,1.2l0,0.6h0.1c0.5-0.7,1.2-1.1,2.2-1.1c0.9,0,1.6,0.2,2,0.7s0.7,1.2,0.7,2.1V422.1z"/>
			<path id="XMLID_1685_" class="st7" d="M251.7,413.6c-0.3-0.2-0.7-0.5-1.3-1c-0.6-0.4-1-0.8-1.3-1.1v-0.1h2.3
				c0.3,0.5,0.8,1.1,1.6,2.1v0.2H251.7z M253,422.1h-2.1v-7.6h2.1V422.1z"/>
			<path id="XMLID_1683_" class="st7" d="M262.3,422.1h-2.1v-4.5c0-0.6-0.1-1-0.3-1.2c-0.2-0.3-0.5-0.4-0.9-0.4
				c-0.6,0-1,0.2-1.3,0.6c-0.3,0.4-0.4,1-0.4,1.9v3.6h-2.1v-7.6h1.6l0.3,1h0.1c0.2-0.4,0.6-0.6,1-0.8c0.4-0.2,0.9-0.3,1.4-0.3
				c0.9,0,1.6,0.2,2,0.7c0.5,0.5,0.7,1.2,0.7,2.1V422.1z"/>
			<path id="XMLID_1681_" class="st7" d="M271.5,422.1h-2.1v-4.5c0-1.1-0.4-1.7-1.2-1.7c-0.6,0-1,0.2-1.3,0.6s-0.4,1-0.4,1.9v3.6
				h-2.1v-10.6h2.1v2.2c0,0.2,0,0.6,0,1.2l0,0.6h0.1c0.5-0.7,1.2-1.1,2.2-1.1c0.9,0,1.6,0.2,2,0.7s0.7,1.2,0.7,2.1V422.1z"/>
			<path id="XMLID_1678_" class="st7" d="M279.7,422.2c-0.9,0-1.6-0.3-2.1-1c-0.5-0.7-0.8-1.7-0.8-2.9c0-1.2,0.3-2.2,0.8-2.9
				s1.2-1.1,2.1-1.1c0.5,0,0.9,0.1,1.3,0.3s0.7,0.5,1,0.8h0.1l0.2-1h1.8v11h-2.1v-3.2c0-0.3,0-0.7,0.1-1.1h-0.1
				c-0.2,0.4-0.5,0.6-0.9,0.8S280.2,422.2,279.7,422.2z M280.4,420.6c0.5,0,0.9-0.2,1.2-0.5c0.2-0.3,0.4-0.8,0.4-1.6v-0.3
				c0-0.8-0.1-1.4-0.4-1.8s-0.7-0.5-1.2-0.5c-1,0-1.5,0.8-1.5,2.3c0,0.8,0.1,1.3,0.4,1.7S279.9,420.6,280.4,420.6z"/>
			<path id="XMLID_1676_" class="st7" d="M291.5,422.1l-0.3-1h-0.1c-0.2,0.4-0.5,0.6-1,0.8c-0.4,0.2-0.9,0.3-1.4,0.3
				c-0.9,0-1.6-0.2-2-0.7c-0.5-0.5-0.7-1.2-0.7-2.1v-5h2.1v4.5c0,0.6,0.1,1,0.3,1.2c0.2,0.3,0.5,0.4,0.9,0.4c0.6,0,1-0.2,1.3-0.6
				c0.3-0.4,0.4-1,0.4-1.9v-3.6h2.1v7.6H291.5z"/>
			<path id="XMLID_1672_" class="st7" d="M300.2,422.1l-0.4-1h-0.1c-0.4,0.4-0.7,0.7-1.1,0.9c-0.4,0.2-0.9,0.3-1.5,0.3
				c-0.7,0-1.3-0.2-1.7-0.6s-0.6-1-0.6-1.8c0-0.8,0.3-1.4,0.9-1.8c0.6-0.4,1.4-0.6,2.6-0.6l1.3,0V417c0-0.8-0.4-1.2-1.2-1.2
				c-0.6,0-1.3,0.2-2.2,0.6l-0.7-1.4c0.9-0.5,1.9-0.7,2.9-0.7c1,0,1.8,0.2,2.4,0.7s0.8,1.1,0.8,2v5.1H300.2z M299.6,418.5l-0.8,0
				c-0.6,0-1.1,0.1-1.4,0.3s-0.4,0.5-0.4,0.9c0,0.6,0.3,0.9,1,0.9c0.5,0,0.9-0.1,1.2-0.4s0.4-0.6,0.4-1.1V418.5z M300.2,411.9
				c0,0.7-0.4,1.2-1.1,1.3l-0.1,0.5h-1.2l-0.2-1c0.3-0.1,0.6-0.1,0.7-0.3c0.1-0.1,0.2-0.3,0.2-0.4c0-0.1,0-0.3-0.1-0.3
				s-0.2-0.1-0.4-0.1c-0.3,0-0.6,0.1-1,0.2v-1.1c0.1,0,0.3-0.1,0.6-0.1c0.2,0,0.5,0,0.6,0c0.6,0,1.1,0.1,1.4,0.4
				C300,411.1,300.2,411.5,300.2,411.9z"/>
			<path id="XMLID_1670_" class="st7" d="M310.8,422.1h-2.1v-4.5c0-0.6-0.1-1-0.3-1.2c-0.2-0.3-0.5-0.4-0.9-0.4
				c-0.6,0-1,0.2-1.3,0.6c-0.3,0.4-0.4,1-0.4,1.9v3.6h-2.1v-7.6h1.6l0.3,1h0.1c0.2-0.4,0.6-0.6,1-0.8c0.4-0.2,0.9-0.3,1.4-0.3
				c0.9,0,1.6,0.2,2,0.7c0.5,0.5,0.7,1.2,0.7,2.1V422.1z"/>
			<path id="XMLID_1667_" class="st7" d="M319.6,422.1c0,1.1-0.3,1.9-1,2.5c-0.6,0.6-1.6,0.9-2.9,0.9c-1.1,0-2.1-0.2-2.9-0.5v-1.7
				c0.9,0.4,1.9,0.6,3,0.6c1.1,0,1.6-0.6,1.6-1.7V422l0.1-0.9h-0.1c-0.5,0.8-1.2,1.1-2.2,1.1c-0.9,0-1.6-0.4-2.1-1.1
				c-0.5-0.7-0.8-1.7-0.8-2.9c0-1.3,0.3-2.2,0.8-2.9c0.5-0.7,1.2-1,2.2-1c0.9,0,1.7,0.4,2.2,1.1h0.1l0.2-1h1.8V422.1z M316.1,420.6
				c0.6,0,1-0.2,1.2-0.5c0.2-0.3,0.4-0.8,0.4-1.6v-0.3c0-0.8-0.1-1.4-0.4-1.8c-0.3-0.4-0.7-0.5-1.2-0.5c-1,0-1.5,0.8-1.5,2.3
				c0,0.8,0.1,1.3,0.4,1.7C315.2,420.4,315.6,420.6,316.1,420.6z"/>
			<path id="XMLID_1665_" class="st7" d="M244.8,439c-2.4,0-3.6-1.3-3.6-3.9c0-1.3,0.3-2.3,1-3c0.6-0.7,1.6-1,2.8-1
				c0.9,0,1.7,0.2,2.4,0.5l-0.6,1.6c-0.3-0.1-0.6-0.2-0.9-0.3c-0.3-0.1-0.6-0.1-0.8-0.1c-1.1,0-1.6,0.8-1.6,2.3
				c0,1.5,0.5,2.2,1.6,2.2c0.4,0,0.8-0.1,1.1-0.2c0.3-0.1,0.7-0.3,1-0.5v1.8c-0.3,0.2-0.7,0.4-1,0.4S245.4,439,244.8,439z"/>
			<path id="XMLID_1661_" class="st7" d="M253.8,438.9l-0.4-1h-0.1c-0.4,0.4-0.7,0.7-1.1,0.9c-0.4,0.2-0.9,0.3-1.5,0.3
				c-0.7,0-1.3-0.2-1.7-0.6s-0.6-1-0.6-1.8c0-0.8,0.3-1.4,0.9-1.8c0.6-0.4,1.4-0.6,2.6-0.6l1.3,0v-0.3c0-0.8-0.4-1.2-1.2-1.2
				c-0.6,0-1.3,0.2-2.2,0.6l-0.7-1.4c0.9-0.5,1.9-0.7,2.9-0.7c1,0,1.8,0.2,2.4,0.7s0.8,1.1,0.8,2v5.1H253.8z M253.2,435.3l-0.8,0
				c-0.6,0-1.1,0.1-1.4,0.3s-0.4,0.5-0.4,0.9c0,0.6,0.3,0.9,1,0.9c0.5,0,0.9-0.1,1.2-0.4s0.4-0.6,0.4-1.1V435.3z M250.9,430.4v-0.2
				c0.8-0.9,1.3-1.6,1.6-2.1h2.3v0.1c-0.2,0.2-0.6,0.6-1.2,1.1c-0.6,0.5-1,0.8-1.3,1H250.9z"/>
			<path id="XMLID_1658_" class="st7" d="M264.3,435.1c0,1.2-0.3,2.2-1,2.9s-1.6,1.1-2.7,1.1c-0.7,0-1.4-0.2-1.9-0.5
				c-0.6-0.3-1-0.8-1.3-1.4s-0.5-1.3-0.5-2.1c0-1.2,0.3-2.2,1-2.9s1.6-1,2.7-1c0.7,0,1.4,0.2,1.9,0.5s1,0.8,1.3,1.4
				S264.3,434.3,264.3,435.1z M259.1,435.1c0,0.8,0.1,1.3,0.4,1.7s0.7,0.6,1.2,0.6c0.6,0,1-0.2,1.2-0.6c0.2-0.4,0.4-1,0.4-1.7
				c0-0.8-0.1-1.3-0.4-1.7s-0.6-0.6-1.2-0.6c-0.6,0-1,0.2-1.2,0.6C259.2,433.7,259.1,434.3,259.1,435.1z"/>
			<path id="XMLID_1656_" class="st7" d="M272.9,437.4c0.4,0,0.8-0.1,1.3-0.2v1.6c-0.5,0.2-1.2,0.3-1.9,0.3c-0.8,0-1.4-0.2-1.8-0.6
				c-0.4-0.4-0.6-1.1-0.6-1.9v-3.7h-1v-0.9l1.1-0.7l0.6-1.6h1.3v1.6h2.1v1.6H272v3.7c0,0.3,0.1,0.5,0.2,0.7S272.6,437.4,272.9,437.4
				z"/>
			<path id="XMLID_1654_" class="st7" d="M280,431.1c0.3,0,0.5,0,0.7,0.1l-0.2,2c-0.2,0-0.4-0.1-0.6-0.1c-0.7,0-1.2,0.2-1.6,0.5
				s-0.6,0.8-0.6,1.4v3.9h-2.1v-7.6h1.6l0.3,1.3h0.1c0.2-0.4,0.6-0.8,1-1C279.1,431.2,279.6,431.1,280,431.1z"/>
			<path id="XMLID_1650_" class="st7" d="M285.5,439c-1.2,0-2.2-0.3-2.9-1s-1-1.6-1-2.9c0-1.3,0.3-2.3,1-3c0.6-0.7,1.5-1,2.7-1
				c1.1,0,1.9,0.3,2.5,0.9s0.9,1.5,0.9,2.5v1h-4.9c0,0.6,0.2,1.1,0.5,1.4s0.8,0.5,1.4,0.5c0.5,0,0.9,0,1.3-0.1s0.8-0.2,1.3-0.5v1.6
				c-0.4,0.2-0.8,0.3-1.2,0.4C286.6,439,286.1,439,285.5,439z M286.8,430.4c-0.7-0.4-1.2-0.8-1.6-1.2c-0.4,0.4-0.9,0.8-1.6,1.2h-1.4
				v-0.2c0.9-0.9,1.4-1.5,1.8-2.1h2.4c0.1,0.2,0.4,0.6,0.7,1c0.3,0.4,0.7,0.8,1,1.1v0.2H286.8z M285.2,432.6c-0.4,0-0.8,0.1-1,0.4
				c-0.3,0.3-0.4,0.7-0.4,1.2h2.9c0-0.5-0.1-0.9-0.4-1.2C286,432.7,285.6,432.6,285.2,432.6z"/>
			<path id="XMLID_1648_" class="st7" d="M297.3,438.9h-2.1v-4.5c0-0.6-0.1-1-0.3-1.2c-0.2-0.3-0.5-0.4-0.9-0.4
				c-0.6,0-1,0.2-1.3,0.6c-0.3,0.4-0.4,1-0.4,1.9v3.6h-2.1v-7.6h1.6l0.3,1h0.1c0.2-0.4,0.6-0.6,1-0.8c0.4-0.2,0.9-0.3,1.4-0.3
				c0.9,0,1.6,0.2,2,0.7c0.5,0.5,0.7,1.2,0.7,2.1V438.9z"/>
			<path id="XMLID_1646_" class="st7" d="M309.9,438.9h-2.1v-4.5c0-0.6-0.1-1-0.3-1.2c-0.2-0.3-0.5-0.4-0.9-0.4
				c-0.5,0-0.9,0.2-1.2,0.6s-0.4,1-0.4,1.9v3.6h-2.1v-7.6h1.6l0.3,1h0.1c0.2-0.4,0.5-0.6,0.9-0.8c0.4-0.2,0.8-0.3,1.3-0.3
				c1.1,0,1.9,0.4,2.3,1.1h0.2c0.2-0.4,0.5-0.6,0.9-0.8c0.4-0.2,0.8-0.3,1.3-0.3c0.9,0,1.5,0.2,2,0.7c0.4,0.4,0.7,1.2,0.7,2.1v5
				h-2.1v-4.5c0-0.6-0.1-1-0.3-1.2c-0.2-0.3-0.5-0.4-0.9-0.4c-0.5,0-0.9,0.2-1.1,0.5c-0.3,0.4-0.4,0.9-0.4,1.7V438.9z"/>
			<path id="XMLID_1642_" class="st7" d="M321.7,438.9l-0.4-1h-0.1c-0.4,0.4-0.7,0.7-1.1,0.9c-0.4,0.2-0.9,0.3-1.5,0.3
				c-0.7,0-1.3-0.2-1.7-0.6c-0.4-0.4-0.6-1-0.6-1.8c0-0.8,0.3-1.4,0.9-1.8c0.6-0.4,1.4-0.6,2.6-0.6l1.3,0v-0.3
				c0-0.8-0.4-1.2-1.2-1.2c-0.6,0-1.3,0.2-2.2,0.6l-0.7-1.4c0.9-0.5,1.9-0.7,2.9-0.7c1,0,1.8,0.2,2.4,0.7s0.8,1.1,0.8,2v5.1H321.7z
				 M321.1,435.3l-0.8,0c-0.6,0-1.1,0.1-1.4,0.3s-0.4,0.5-0.4,0.9c0,0.6,0.3,0.9,1,0.9c0.5,0,0.9-0.1,1.2-0.4
				c0.3-0.3,0.4-0.6,0.4-1.1V435.3z M318.6,440.8c0-0.7,0.4-1,1.1-1s1.1,0.3,1.1,1c0,0.3-0.1,0.6-0.3,0.8s-0.5,0.3-0.8,0.3
				C319,441.8,318.6,441.5,318.6,440.8z"/>
			<path id="XMLID_1640_" class="st7" d="M332.4,438.9h-2.1v-4.5c0-0.6-0.1-1-0.3-1.2c-0.2-0.3-0.5-0.4-0.9-0.4
				c-0.6,0-1,0.2-1.3,0.6c-0.3,0.4-0.4,1-0.4,1.9v3.6h-2.1v-7.6h1.6l0.3,1h0.1c0.2-0.4,0.6-0.6,1-0.8c0.4-0.2,0.9-0.3,1.4-0.3
				c0.9,0,1.6,0.2,2,0.7c0.5,0.5,0.7,1.2,0.7,2.1V438.9z"/>
			<path id="XMLID_1637_" class="st7" d="M341.2,438.9c0,1.1-0.3,1.9-1,2.5c-0.6,0.6-1.6,0.9-2.9,0.9c-1.1,0-2.1-0.2-2.9-0.5v-1.7
				c0.9,0.4,1.9,0.6,3,0.6c1.1,0,1.6-0.6,1.6-1.7v-0.2l0.1-0.9h-0.1c-0.5,0.8-1.2,1.1-2.2,1.1c-0.9,0-1.6-0.4-2.1-1.1
				c-0.5-0.7-0.8-1.7-0.8-2.9c0-1.3,0.3-2.2,0.8-2.9c0.5-0.7,1.2-1,2.2-1c0.9,0,1.7,0.4,2.2,1.1h0.1l0.2-1h1.8V438.9z M337.7,437.4
				c0.6,0,1-0.2,1.2-0.5c0.2-0.3,0.4-0.8,0.4-1.6v-0.3c0-0.8-0.1-1.4-0.4-1.8c-0.3-0.4-0.7-0.5-1.2-0.5c-1,0-1.5,0.8-1.5,2.3
				c0,0.8,0.1,1.3,0.4,1.7C336.8,437.2,337.2,437.4,337.7,437.4z"/>
			<path id="XMLID_1634_" class="st7" d="M344.2,435.6v-0.5c0-0.4,0.1-0.8,0.3-1.1s0.5-0.7,1-1c0.5-0.3,0.8-0.6,0.9-0.8
				c0.2-0.2,0.2-0.5,0.2-0.7c0-0.3-0.1-0.5-0.3-0.7s-0.5-0.2-0.9-0.2c-0.7,0-1.5,0.2-2.3,0.7l-0.7-1.5c1-0.6,2.1-0.9,3.2-0.9
				c0.9,0,1.7,0.2,2.2,0.7c0.6,0.5,0.8,1.1,0.8,1.8c0,0.5-0.1,0.9-0.3,1.3s-0.7,0.8-1.3,1.2c-0.4,0.3-0.7,0.6-0.8,0.7
				c-0.1,0.2-0.2,0.4-0.2,0.7v0.4H344.2z M343.9,437.9c0-0.4,0.1-0.7,0.3-0.9s0.5-0.3,0.9-0.3c0.4,0,0.7,0.1,0.9,0.3
				c0.2,0.2,0.3,0.5,0.3,0.9c0,0.4-0.1,0.6-0.3,0.9c-0.2,0.2-0.5,0.3-0.9,0.3c-0.4,0-0.7-0.1-0.9-0.3
				C344,438.6,343.9,438.3,343.9,437.9z"/>
		</g>
	</g>
	<rect x="362" y="107.7" class="st1" width="54.3" height="369.9"/>
	<g id="XMLID_17_">
		<path id="XMLID_18_" class="st7" d="M73.1,162.5h-2.7l-4.3-7.6H66c0.1,1.3,0.1,2.3,0.1,2.9v4.7h-1.9v-10h2.7l4.3,7.5h0
			c-0.1-1.3-0.1-2.2-0.1-2.8v-4.7h1.9V162.5z"/>
		<path id="XMLID_22_" class="st7" d="M78.9,162.6c-1.2,0-2.2-0.3-2.9-1s-1-1.6-1-2.9c0-1.3,0.3-2.3,1-3c0.6-0.7,1.5-1,2.7-1
			c1.1,0,1.9,0.3,2.5,0.9s0.9,1.5,0.9,2.5v1h-4.9c0,0.6,0.2,1.1,0.5,1.4s0.8,0.5,1.4,0.5c0.5,0,0.9,0,1.3-0.1s0.8-0.2,1.3-0.5v1.6
			c-0.4,0.2-0.8,0.3-1.2,0.4C80,162.6,79.5,162.6,78.9,162.6z M81.1,154H80c-0.5-0.3-1-0.7-1.4-1.1c-0.5,0.5-1,0.8-1.4,1.1H76v-0.2
			c0.5-0.6,1-1.2,1.5-1.9h2.2c0.2,0.4,0.5,0.7,0.8,1.1c0.3,0.4,0.5,0.7,0.7,0.8V154z M78.6,156.2c-0.4,0-0.8,0.1-1,0.4
			c-0.3,0.3-0.4,0.7-0.4,1.2H80c0-0.5-0.1-0.9-0.4-1.2C79.4,156.3,79,156.2,78.6,156.2z M80.5,152.5c0.4-0.4,0.7-0.9,0.9-1.4h1.6
			v0.1c-0.3,0.4-0.8,0.9-1.6,1.4h-1V152.5z"/>
		<path id="XMLID_30_" class="st7" d="M89.1,162.5l-0.3-1h-0.1c-0.2,0.4-0.5,0.6-1,0.8c-0.4,0.2-0.9,0.3-1.4,0.3
			c-0.9,0-1.6-0.2-2-0.7c-0.5-0.5-0.7-1.2-0.7-2.1v-5h2.1v4.5c0,0.6,0.1,1,0.3,1.2c0.2,0.3,0.5,0.4,0.9,0.4c0.6,0,1-0.2,1.3-0.6
			c0.3-0.4,0.4-1,0.4-1.9v-3.6h2.1v7.6H89.1z"/>
		<path id="XMLID_34_" class="st7" d="M99.7,160.9c0.4,0,0.8-0.1,1.3-0.2v1.6c-0.5,0.2-1.2,0.3-1.9,0.3c-0.8,0-1.4-0.2-1.8-0.6
			c-0.4-0.4-0.6-1.1-0.6-1.9v-3.7h-1v-0.9l1.1-0.7l0.6-1.6h1.3v1.6h2.1v1.6h-2.1v3.7c0,0.3,0.1,0.5,0.2,0.7S99.5,160.9,99.7,160.9z"
			/>
		<path id="XMLID_38_" class="st7" d="M109.7,162.5h-2.1V158c0-1.1-0.4-1.7-1.2-1.7c-0.6,0-1,0.2-1.3,0.6s-0.4,1-0.4,1.9v3.6h-2.1
			v-10.6h2.1v2.2c0,0.2,0,0.6,0,1.2l0,0.6h0.1c0.5-0.7,1.2-1.1,2.2-1.1c0.9,0,1.6,0.2,2,0.7s0.7,1.2,0.7,2.1V162.5z"/>
		<path id="XMLID_40_" class="st7" d="M118.7,158.6c0,1.2-0.3,2.2-1,2.9s-1.6,1.1-2.7,1.1c-0.7,0-1.4-0.2-1.9-0.5
			c-0.6-0.3-1-0.8-1.3-1.4s-0.5-1.3-0.5-2.1c0-1.2,0.3-2.2,1-2.9s1.6-1,2.7-1c0.7,0,1.4,0.2,1.9,0.5s1,0.8,1.3,1.4
			S118.7,157.8,118.7,158.6z M116.6,154c-0.7-0.4-1.2-0.8-1.6-1.2c-0.4,0.4-0.9,0.8-1.6,1.2h-1.4v-0.2c0.9-0.9,1.4-1.5,1.8-2.1h2.4
			c0.1,0.2,0.4,0.6,0.7,1c0.3,0.4,0.7,0.8,1,1.1v0.2H116.6z M113.5,158.6c0,0.8,0.1,1.3,0.4,1.7s0.7,0.6,1.2,0.6
			c0.6,0,1-0.2,1.2-0.6c0.2-0.4,0.4-1,0.4-1.7c0-0.8-0.1-1.3-0.4-1.7s-0.6-0.6-1.2-0.6c-0.6,0-1,0.2-1.2,0.6
			C113.6,157.3,113.5,157.9,113.5,158.6z"/>
		<path id="XMLID_44_" class="st7" d="M127.5,162.5h-2.1V158c0-0.6-0.1-1-0.3-1.2c-0.2-0.3-0.5-0.4-0.9-0.4c-0.6,0-1,0.2-1.3,0.6
			c-0.3,0.4-0.4,1-0.4,1.9v3.6h-2.1v-7.6h1.6l0.3,1h0.1c0.2-0.4,0.6-0.6,1-0.8c0.4-0.2,0.9-0.3,1.4-0.3c0.9,0,1.6,0.2,2,0.7
			c0.5,0.5,0.7,1.2,0.7,2.1V162.5z"/>
		<path id="XMLID_46_" class="st7" d="M136.4,162.5c0,1.1-0.3,1.9-1,2.5c-0.6,0.6-1.6,0.9-2.9,0.9c-1.1,0-2.1-0.2-2.9-0.5v-1.7
			c0.9,0.4,1.9,0.6,3,0.6c1.1,0,1.6-0.6,1.6-1.7v-0.2l0.1-0.9h-0.1c-0.5,0.8-1.2,1.1-2.2,1.1c-0.9,0-1.6-0.4-2.1-1.1
			s-0.8-1.7-0.8-2.9c0-1.3,0.3-2.2,0.8-2.9c0.5-0.7,1.2-1,2.2-1c0.9,0,1.7,0.4,2.2,1.1h0.1l0.2-1h1.8V162.5z M132.8,161
			c0.6,0,1-0.2,1.2-0.5c0.2-0.3,0.4-0.8,0.4-1.6v-0.3c0-0.8-0.1-1.4-0.4-1.8c-0.3-0.4-0.7-0.5-1.2-0.5c-1,0-1.5,0.8-1.5,2.3
			c0,0.8,0.1,1.3,0.4,1.7S132.3,161,132.8,161z"/>
		<path id="XMLID_49_" class="st7" d="M145.4,160.9c0.4,0,0.8-0.1,1.3-0.2v1.6c-0.5,0.2-1.2,0.3-1.9,0.3c-0.8,0-1.4-0.2-1.8-0.6
			c-0.4-0.4-0.6-1.1-0.6-1.9v-3.7h-1v-0.9l1.1-0.7l0.6-1.6h1.3v1.6h2.1v1.6h-2.1v3.7c0,0.3,0.1,0.5,0.2,0.7S145.1,160.9,145.4,160.9
			z"/>
		<path id="XMLID_51_" class="st7" d="M148.2,152.8c0-0.7,0.4-1,1.1-1s1.1,0.3,1.1,1c0,0.3-0.1,0.6-0.3,0.8
			c-0.2,0.2-0.5,0.3-0.9,0.3C148.5,153.9,148.2,153.5,148.2,152.8z M150.3,162.5h-2.1v-7.6h2.1V162.5z"/>
		<path id="XMLID_55_" class="st7" d="M159.6,162.5h-2.1V158c0-0.6-0.1-1-0.3-1.2c-0.2-0.3-0.5-0.4-0.9-0.4c-0.6,0-1,0.2-1.3,0.6
			c-0.3,0.4-0.4,1-0.4,1.9v3.6h-2.1v-7.6h1.6l0.3,1h0.1c0.2-0.4,0.6-0.6,1-0.8c0.4-0.2,0.9-0.3,1.4-0.3c0.9,0,1.6,0.2,2,0.7
			c0.5,0.5,0.7,1.2,0.7,2.1V162.5z"/>
		<path id="XMLID_57_" class="st7" d="M168.6,160.9c0.4,0,0.8-0.1,1.3-0.2v1.6c-0.5,0.2-1.2,0.3-1.9,0.3c-0.8,0-1.4-0.2-1.8-0.6
			c-0.4-0.4-0.6-1.1-0.6-1.9v-3.7h-1v-0.9l1.1-0.7l0.6-1.6h1.3v1.6h2.1v1.6h-2.1v3.7c0,0.3,0.1,0.5,0.2,0.7S168.3,160.9,168.6,160.9
			z"/>
		<path id="XMLID_59_" class="st7" d="M178.5,162.5h-2.1V158c0-1.1-0.4-1.7-1.2-1.7c-0.6,0-1,0.2-1.3,0.6s-0.4,1-0.4,1.9v3.6h-2.1
			v-10.6h2.1v2.2c0,0.2,0,0.6,0,1.2l0,0.6h0.1c0.5-0.7,1.2-1.1,2.2-1.1c0.9,0,1.6,0.2,2,0.7s0.7,1.2,0.7,2.1V162.5z"/>
		<path id="XMLID_61_" class="st7" d="M184.1,162.6c-1.2,0-2.2-0.3-2.9-1s-1-1.6-1-2.9c0-1.3,0.3-2.3,1-3c0.6-0.7,1.5-1,2.7-1
			c1.1,0,1.9,0.3,2.5,0.9s0.9,1.5,0.9,2.5v1h-4.9c0,0.6,0.2,1.1,0.5,1.4s0.8,0.5,1.4,0.5c0.5,0,0.9,0,1.3-0.1s0.8-0.2,1.3-0.5v1.6
			c-0.4,0.2-0.8,0.3-1.2,0.4C185.2,162.6,184.7,162.6,184.1,162.6z M183.8,156.2c-0.4,0-0.8,0.1-1,0.4c-0.3,0.3-0.4,0.7-0.4,1.2h2.9
			c0-0.5-0.1-0.9-0.4-1.2C184.6,156.3,184.2,156.2,183.8,156.2z M185.6,152.3c0,0.7-0.4,1.2-1.1,1.3l-0.1,0.5h-1.2l-0.2-1
			c0.3-0.1,0.6-0.1,0.7-0.3c0.1-0.1,0.2-0.3,0.2-0.4c0-0.1,0-0.3-0.1-0.3s-0.2-0.1-0.4-0.1c-0.3,0-0.6,0.1-1,0.2V151
			c0.1,0,0.3-0.1,0.6-0.1c0.2,0,0.5,0,0.6,0c0.6,0,1.1,0.1,1.4,0.4C185.5,151.5,185.6,151.8,185.6,152.3z"/>
		<path id="XMLID_65_" class="st7" d="M195.8,160.9c0.4,0,0.8-0.1,1.3-0.2v1.6c-0.5,0.2-1.2,0.3-1.9,0.3c-0.8,0-1.4-0.2-1.8-0.6
			c-0.4-0.4-0.6-1.1-0.6-1.9v-3.7h-1v-0.9l1.1-0.7l0.6-1.6h1.3v1.6h2.1v1.6h-2.1v3.7c0,0.3,0.1,0.5,0.2,0.7S195.5,160.9,195.8,160.9
			z"/>
		<path id="XMLID_67_" class="st7" d="M198.5,154v-0.2c0.8-0.9,1.3-1.6,1.6-2.1h2.3v0.1c-0.2,0.2-0.6,0.6-1.2,1.1
			c-0.6,0.5-1,0.8-1.3,1H198.5z M200.7,162.5h-2.1v-7.6h2.1V162.5z"/>
		<path id="XMLID_70_" class="st7" d="M209.9,162.5h-2.1V158c0-0.6-0.1-1-0.3-1.2c-0.2-0.3-0.5-0.4-0.9-0.4c-0.6,0-1,0.2-1.3,0.6
			c-0.3,0.4-0.4,1-0.4,1.9v3.6h-2.1v-7.6h1.6l0.3,1h0.1c0.2-0.4,0.6-0.6,1-0.8c0.4-0.2,0.9-0.3,1.4-0.3c0.9,0,1.6,0.2,2,0.7
			c0.5,0.5,0.7,1.2,0.7,2.1V162.5z"/>
		<path id="XMLID_72_" class="st7" d="M218.2,162.6c-0.9,0-1.6-0.3-2.1-1s-0.8-1.7-0.8-2.9c0-1.3,0.3-2.2,0.8-2.9
			c0.5-0.7,1.2-1,2.2-1c1,0,1.7,0.4,2.2,1.1h0.1c-0.1-0.6-0.2-1.1-0.2-1.5v-2.4h2.1v10.6h-1.6l-0.4-1h-0.1
			C219.8,162.2,219.1,162.6,218.2,162.6z M218.9,160.9c0.5,0,0.9-0.2,1.2-0.5s0.4-0.8,0.4-1.6v-0.2c0-0.8-0.1-1.4-0.4-1.8
			s-0.7-0.5-1.2-0.5c-0.5,0-0.8,0.2-1.1,0.6c-0.3,0.4-0.4,1-0.4,1.7s0.1,1.3,0.4,1.7C218,160.8,218.4,160.9,218.9,160.9z"/>
		<path id="XMLID_75_" class="st7" d="M230,162.5l-0.3-1h-0.1c-0.2,0.4-0.5,0.6-1,0.8c-0.4,0.2-0.9,0.3-1.4,0.3
			c-0.9,0-1.6-0.2-2-0.7c-0.5-0.5-0.7-1.2-0.7-2.1v-5h2.1v4.5c0,0.6,0.1,1,0.3,1.2c0.2,0.3,0.5,0.4,0.9,0.4c0.6,0,1-0.2,1.3-0.6
			c0.3-0.4,0.4-1,0.4-1.9v-3.6h2.1v7.6H230z M226.9,164.4c0-0.7,0.4-1,1.1-1s1.1,0.3,1.1,1c0,0.3-0.1,0.6-0.3,0.8s-0.5,0.3-0.8,0.3
			C227.3,165.4,226.9,165.1,226.9,164.4z"/>
		<path id="XMLID_78_" class="st7" d="M240.8,162.5h-2.1V158c0-0.6-0.1-1-0.3-1.2c-0.2-0.3-0.5-0.4-0.9-0.4c-0.6,0-1,0.2-1.3,0.6
			c-0.3,0.4-0.4,1-0.4,1.9v3.6h-2.1v-7.6h1.6l0.3,1h0.1c0.2-0.4,0.6-0.6,1-0.8c0.4-0.2,0.9-0.3,1.4-0.3c0.9,0,1.6,0.2,2,0.7
			c0.5,0.5,0.7,1.2,0.7,2.1V162.5z"/>
		<path id="XMLID_82_" class="st7" d="M249.7,162.5c0,1.1-0.3,1.9-1,2.5c-0.6,0.6-1.6,0.9-2.9,0.9c-1.1,0-2.1-0.2-2.9-0.5v-1.7
			c0.9,0.4,1.9,0.6,3,0.6c1.1,0,1.6-0.6,1.6-1.7v-0.2l0.1-0.9h-0.1c-0.5,0.8-1.2,1.1-2.2,1.1c-0.9,0-1.6-0.4-2.1-1.1
			s-0.8-1.7-0.8-2.9c0-1.3,0.3-2.2,0.8-2.9c0.5-0.7,1.2-1,2.2-1c0.9,0,1.7,0.4,2.2,1.1h0.1l0.2-1h1.8V162.5z M246.2,161
			c0.6,0,1-0.2,1.2-0.5c0.2-0.3,0.4-0.8,0.4-1.6v-0.3c0-0.8-0.1-1.4-0.4-1.8c-0.3-0.4-0.7-0.5-1.2-0.5c-1,0-1.5,0.8-1.5,2.3
			c0,0.8,0.1,1.3,0.4,1.7S245.6,161,246.2,161z"/>
		<path id="XMLID_96_" class="st7" d="M259.7,154.7c0.9,0,1.6,0.4,2.1,1.1c0.5,0.7,0.8,1.7,0.8,2.9c0,1.3-0.3,2.2-0.8,2.9
			s-1.2,1-2.1,1c-0.9,0-1.6-0.3-2.1-1h-0.1l-0.3,0.8h-1.6v-10.6h2.1v2.5c0,0.3,0,0.8-0.1,1.5h0.1
			C258.1,155.1,258.8,154.7,259.7,154.7z M259.1,156.3c-0.5,0-0.9,0.2-1.1,0.5c-0.2,0.3-0.4,0.8-0.4,1.6v0.2c0,0.8,0.1,1.4,0.4,1.8
			s0.6,0.5,1.2,0.5c0.4,0,0.8-0.2,1-0.6c0.3-0.4,0.4-1,0.4-1.7s-0.1-1.3-0.4-1.7C259.9,156.5,259.5,156.3,259.1,156.3z"/>
		<path id="XMLID_99_" class="st7" d="M264.2,164.4c0-0.7,0.4-1,1.1-1s1.1,0.3,1.1,1c0,0.3-0.1,0.6-0.3,0.8s-0.5,0.3-0.8,0.3
			C264.6,165.4,264.2,165.1,264.2,164.4z M264.3,152.8c0-0.7,0.4-1,1.1-1s1.1,0.3,1.1,1c0,0.3-0.1,0.6-0.3,0.8
			c-0.2,0.2-0.5,0.3-0.9,0.3C264.6,153.9,264.3,153.5,264.3,152.8z M266.4,162.5h-2.1v-7.6h2.1V162.5z"/>
		<path id="XMLID_103_" class="st7" d="M66.5,179.4c-0.9,0-1.6-0.3-2.1-1c-0.5-0.7-0.8-1.6-0.8-2.7c0-1.2,0.3-2.1,0.8-2.8
			c0.5-0.7,1.2-1,2.2-1c1,0,1.7,0.4,2.2,1.1h0.1c-0.1-0.6-0.2-1.1-0.2-1.6v-0.3h-2.2v-1.4h2.2v-1.1h2.1v1.1h1.1v1.4h-1.1v8.2h-1.6
			l-0.4-1h-0.1C68.1,179,67.4,179.4,66.5,179.4z M67.2,177.7c0.5,0,0.9-0.1,1.2-0.4c0.3-0.3,0.4-0.8,0.4-1.4v-0.2
			c0-0.7-0.1-1.3-0.4-1.6c-0.3-0.3-0.7-0.5-1.2-0.5c-0.5,0-0.8,0.2-1.1,0.5c-0.3,0.4-0.4,0.9-0.4,1.6c0,0.7,0.1,1.2,0.4,1.5
			S66.7,177.7,67.2,177.7z"/>
		<path id="XMLID_106_" class="st7" d="M78,179.3l-0.4-1h-0.1c-0.4,0.4-0.7,0.7-1.1,0.9c-0.4,0.2-0.9,0.3-1.5,0.3
			c-0.7,0-1.3-0.2-1.7-0.6s-0.6-1-0.6-1.8c0-0.8,0.3-1.4,0.9-1.8c0.6-0.4,1.4-0.6,2.6-0.6l1.3,0v-0.3c0-0.8-0.4-1.2-1.2-1.2
			c-0.6,0-1.3,0.2-2.2,0.6l-0.7-1.4c0.9-0.5,1.9-0.7,2.9-0.7c1,0,1.8,0.2,2.4,0.7s0.8,1.1,0.8,2v5.1H78z M77.4,175.7l-0.8,0
			c-0.6,0-1.1,0.1-1.4,0.3s-0.4,0.5-0.4,0.9c0,0.6,0.3,0.9,1,0.9c0.5,0,0.9-0.1,1.2-0.4s0.4-0.6,0.4-1.1V175.7z M75,170.8v-0.2
			c0.8-0.9,1.3-1.6,1.6-2.1H79v0.1c-0.2,0.2-0.6,0.6-1.2,1.1c-0.6,0.5-1,0.8-1.3,1H75z"/>
		<path id="XMLID_110_" class="st7" d="M88.6,179.3h-2.1v-4.5c0-0.6-0.1-1-0.3-1.2c-0.2-0.3-0.5-0.4-0.9-0.4c-0.6,0-1,0.2-1.3,0.6
			c-0.3,0.4-0.4,1-0.4,1.9v3.6h-2.1v-7.6h1.6l0.3,1h0.1c0.2-0.4,0.6-0.6,1-0.8c0.4-0.2,0.9-0.3,1.4-0.3c0.9,0,1.6,0.2,2,0.7
			c0.5,0.5,0.7,1.2,0.7,2.1V179.3z"/>
		<path id="XMLID_112_" class="st7" d="M97.8,179.3h-2.1v-4.5c0-1.1-0.4-1.7-1.2-1.7c-0.6,0-1,0.2-1.3,0.6s-0.4,1-0.4,1.9v3.6h-2.1
			v-10.6h2.1v2.2c0,0.2,0,0.6,0,1.2l0,0.6h0.1c0.5-0.7,1.2-1.1,2.2-1.1c0.9,0,1.6,0.2,2,0.7s0.7,1.2,0.7,2.1V179.3z"/>
		<path id="XMLID_114_" class="st7" d="M106.7,179.4c-2.4,0-3.6-1.3-3.6-3.9c0-1.3,0.3-2.3,1-3c0.6-0.7,1.6-1,2.8-1
			c0.9,0,1.7,0.2,2.4,0.5l-0.6,1.6c-0.3-0.1-0.6-0.2-0.9-0.3c-0.3-0.1-0.6-0.1-0.8-0.1c-1.1,0-1.6,0.8-1.6,2.3
			c0,1.5,0.5,2.2,1.6,2.2c0.4,0,0.8-0.1,1.1-0.2c0.3-0.1,0.7-0.3,1-0.5v1.8c-0.3,0.2-0.7,0.4-1,0.4S107.2,179.4,106.7,179.4z"/>
		<path id="XMLID_116_" class="st7" d="M115.7,179.3l-0.4-1h-0.1c-0.4,0.4-0.7,0.7-1.1,0.9c-0.4,0.2-0.9,0.3-1.5,0.3
			c-0.7,0-1.3-0.2-1.7-0.6s-0.6-1-0.6-1.8c0-0.8,0.3-1.4,0.9-1.8c0.6-0.4,1.4-0.6,2.6-0.6l1.3,0v-0.3c0-0.8-0.4-1.2-1.2-1.2
			c-0.6,0-1.3,0.2-2.2,0.6l-0.7-1.4c0.9-0.5,1.9-0.7,2.9-0.7c1,0,1.8,0.2,2.4,0.7s0.8,1.1,0.8,2v5.1H115.7z M116.4,168.5
			c-0.1,0.7-0.3,1.3-0.7,1.7s-1,0.6-1.8,0.6c-0.8,0-1.3-0.2-1.8-0.6s-0.7-1-0.7-1.7h1c0,0.4,0.2,0.7,0.4,0.9c0.3,0.2,0.6,0.3,1,0.3
			s0.7-0.1,1-0.3s0.4-0.5,0.5-0.8H116.4z M115.1,175.7l-0.8,0c-0.6,0-1.1,0.1-1.4,0.3s-0.4,0.5-0.4,0.9c0,0.6,0.3,0.9,1,0.9
			c0.5,0,0.9-0.1,1.2-0.4s0.4-0.6,0.4-1.1V175.7z M113.2,168.8c0.3-0.5,0.6-0.9,0.8-1.4h1.5v0.1c-0.4,0.5-0.9,1-1.4,1.4h-0.9V168.8z
			"/>
		<path id="XMLID_121_" class="st7" d="M123.5,179.4c-0.9,0-1.6-0.3-2.1-1h-0.1c0.1,0.6,0.1,1,0.1,1.1v3.1h-2.1v-11h1.7l0.3,1h0.1
			c0.5-0.8,1.2-1.1,2.2-1.1c0.9,0,1.6,0.3,2.1,1s0.8,1.7,0.8,2.9c0,0.8-0.1,1.5-0.4,2.1s-0.6,1.1-1,1.4S124.1,179.4,123.5,179.4z
			 M122.9,173.1c-0.5,0-0.9,0.2-1.1,0.5c-0.2,0.3-0.4,0.8-0.4,1.6v0.2c0,0.8,0.1,1.4,0.4,1.8s0.6,0.5,1.2,0.5c0.9,0,1.4-0.8,1.4-2.3
			c0-0.8-0.1-1.3-0.3-1.7C123.7,173.3,123.3,173.1,122.9,173.1z"/>
		<path id="XMLID_124_" class="st7" d="M135,177.7c0.4,0,0.8-0.1,1.3-0.2v1.6c-0.5,0.2-1.2,0.3-1.9,0.3c-0.8,0-1.4-0.2-1.8-0.6
			c-0.4-0.4-0.6-1.1-0.6-1.9v-3.7h-1v-0.9l1.1-0.7l0.6-1.6h1.3v1.6h2.1v1.6h-2.1v3.7c0,0.3,0.1,0.5,0.2,0.7S134.7,177.7,135,177.7z"
			/>
		<path id="XMLID_126_" class="st7" d="M144.9,179.3h-2.1v-4.5c0-1.1-0.4-1.7-1.2-1.7c-0.6,0-1,0.2-1.3,0.6s-0.4,1-0.4,1.9v3.6h-2.1
			v-10.6h2.1v2.2c0,0.2,0,0.6,0,1.2l0,0.6h0.1c0.5-0.7,1.2-1.1,2.2-1.1c0.9,0,1.6,0.2,2,0.7s0.7,1.2,0.7,2.1V179.3z"/>
		<path id="XMLID_128_" class="st7" d="M147.8,170.8c-0.3-0.2-0.7-0.5-1.3-1c-0.6-0.4-1-0.8-1.3-1.1v-0.1h2.3
			c0.3,0.5,0.8,1.1,1.6,2.1v0.2H147.8z M149.1,179.3H147v-7.6h2.1V179.3z"/>
		<path id="XMLID_131_" class="st7" d="M159.1,179.4c-0.9,0-1.6-0.3-2.1-1h-0.1c0.1,0.6,0.1,1,0.1,1.1v3.1H155v-11h1.7l0.3,1h0.1
			c0.5-0.8,1.2-1.1,2.2-1.1c0.9,0,1.6,0.3,2.1,1s0.8,1.7,0.8,2.9c0,0.8-0.1,1.5-0.4,2.1s-0.6,1.1-1,1.4S159.7,179.4,159.1,179.4z
			 M158.5,173.1c-0.5,0-0.9,0.2-1.1,0.5c-0.2,0.3-0.4,0.8-0.4,1.6v0.2c0,0.8,0.1,1.4,0.4,1.8s0.6,0.5,1.2,0.5c0.9,0,1.4-0.8,1.4-2.3
			c0-0.8-0.1-1.3-0.3-1.7C159.4,173.3,159,173.1,158.5,173.1z"/>
		<path id="XMLID_134_" class="st7" d="M170.9,179.3h-2.1v-4.5c0-1.1-0.4-1.7-1.2-1.7c-0.6,0-1,0.2-1.3,0.6s-0.4,1-0.4,1.9v3.6h-2.1
			v-10.6h2.1v2.2c0,0.2,0,0.6,0,1.2l0,0.6h0.1c0.5-0.7,1.2-1.1,2.2-1.1c0.9,0,1.6,0.2,2,0.7s0.7,1.2,0.7,2.1V179.3z"/>
		<path id="XMLID_136_" class="st7" d="M177.9,179.3l-0.4-1h-0.1c-0.4,0.4-0.7,0.7-1.1,0.9c-0.4,0.2-0.9,0.3-1.5,0.3
			c-0.7,0-1.3-0.2-1.7-0.6s-0.6-1-0.6-1.8c0-0.8,0.3-1.4,0.9-1.8c0.6-0.4,1.4-0.6,2.6-0.6l1.3,0v-0.3c0-0.8-0.4-1.2-1.2-1.2
			c-0.6,0-1.3,0.2-2.2,0.6l-0.7-1.4c0.9-0.5,1.9-0.7,2.9-0.7c1,0,1.8,0.2,2.4,0.7s0.8,1.1,0.8,2v5.1H177.9z M177.3,175.7l-0.8,0
			c-0.6,0-1.1,0.1-1.4,0.3s-0.4,0.5-0.4,0.9c0,0.6,0.3,0.9,1,0.9c0.5,0,0.9-0.1,1.2-0.4s0.4-0.6,0.4-1.1V175.7z M177.9,169.1
			c0,0.7-0.4,1.2-1.1,1.3l-0.1,0.5h-1.2l-0.2-1c0.3-0.1,0.6-0.1,0.7-0.3c0.1-0.1,0.2-0.3,0.2-0.4c0-0.1,0-0.3-0.1-0.3
			s-0.2-0.1-0.4-0.1c-0.3,0-0.6,0.1-1,0.2v-1.1c0.1,0,0.3-0.1,0.6-0.1c0.2,0,0.5,0,0.6,0c0.6,0,1.1,0.1,1.4,0.4
			C177.7,168.3,177.9,168.6,177.9,169.1z"/>
		<path id="XMLID_140_" class="st7" d="M181.4,169.6c0-0.7,0.4-1,1.1-1s1.1,0.3,1.1,1c0,0.3-0.1,0.6-0.3,0.8
			c-0.2,0.2-0.5,0.3-0.9,0.3C181.8,170.7,181.4,170.3,181.4,169.6z M183.6,179.3h-2.1v-7.6h2.1V179.3z"/>
		<path id="XMLID_143_" class="st7" d="M191.5,179.3h-2.1v-10.6h2.1V179.3z"/>
		<path id="XMLID_145_" class="st7" d="M198.5,179.3l-0.4-1H198c-0.4,0.4-0.7,0.7-1.1,0.9c-0.4,0.2-0.9,0.3-1.5,0.3
			c-0.7,0-1.3-0.2-1.7-0.6s-0.6-1-0.6-1.8c0-0.8,0.3-1.4,0.9-1.8c0.6-0.4,1.4-0.6,2.6-0.6l1.3,0v-0.3c0-0.8-0.4-1.2-1.2-1.2
			c-0.6,0-1.3,0.2-2.2,0.6l-0.7-1.4c0.9-0.5,1.9-0.7,2.9-0.7c1,0,1.8,0.2,2.4,0.7s0.8,1.1,0.8,2v5.1H198.5z M196.8,170.8
			c-0.3-0.2-0.7-0.5-1.3-1c-0.6-0.4-1-0.8-1.3-1.1v-0.1h2.3c0.3,0.5,0.8,1.1,1.6,2.1v0.2H196.8z M197.9,175.7l-0.8,0
			c-0.6,0-1.1,0.1-1.4,0.3s-0.4,0.5-0.4,0.9c0,0.6,0.3,0.9,1,0.9c0.5,0,0.9-0.1,1.2-0.4s0.4-0.6,0.4-1.1V175.7z"/>
		<path id="XMLID_149_" class="st7" d="M208.9,179.3h-2.1v-4.5c0-0.6-0.1-1-0.3-1.2c-0.2-0.3-0.5-0.4-0.9-0.4
			c-0.5,0-0.9,0.2-1.2,0.6s-0.4,1-0.4,1.9v3.6h-2.1v-7.6h1.6l0.3,1h0.1c0.2-0.4,0.5-0.6,0.9-0.8c0.4-0.2,0.8-0.3,1.3-0.3
			c1.1,0,1.9,0.4,2.3,1.1h0.2c0.2-0.4,0.5-0.6,0.9-0.8s0.8-0.3,1.4-0.3c0.9,0,1.5,0.2,2,0.7c0.4,0.4,0.7,1.2,0.7,2.1v5h-2.1v-4.5
			c0-0.6-0.1-1-0.3-1.2c-0.2-0.3-0.5-0.4-0.9-0.4c-0.5,0-0.9,0.2-1.1,0.5s-0.4,0.9-0.4,1.7V179.3z"/>
		<path id="XMLID_151_" class="st7" d="M224.8,177c0,0.8-0.3,1.4-0.8,1.8s-1.4,0.6-2.4,0.6c-0.6,0-1,0-1.4-0.1
			c-0.4-0.1-0.8-0.2-1.1-0.3v-1.7c0.4,0.2,0.8,0.3,1.3,0.5s0.9,0.2,1.3,0.2c0.8,0,1.1-0.2,1.1-0.7c0-0.2-0.1-0.3-0.2-0.4
			c-0.1-0.1-0.3-0.2-0.5-0.3c-0.2-0.1-0.6-0.3-1-0.5c-0.6-0.2-1-0.5-1.3-0.7s-0.5-0.5-0.6-0.7c-0.1-0.3-0.2-0.6-0.2-1
			c0-0.7,0.3-1.2,0.8-1.6c0.5-0.4,1.3-0.6,2.2-0.6c0.9,0,1.8,0.2,2.7,0.6l-0.6,1.5c-0.4-0.2-0.7-0.3-1.1-0.4s-0.7-0.2-1-0.2
			c-0.6,0-0.9,0.2-0.9,0.5c0,0.2,0.1,0.3,0.3,0.5s0.6,0.3,1.3,0.6c0.6,0.2,1,0.5,1.3,0.7s0.5,0.5,0.6,0.7S224.8,176.6,224.8,177z"/>
		<path id="XMLID_153_" class="st7" d="M231.3,179.3l-0.4-1h-0.1c-0.4,0.4-0.7,0.7-1.1,0.9c-0.4,0.2-0.9,0.3-1.5,0.3
			c-0.7,0-1.3-0.2-1.7-0.6s-0.6-1-0.6-1.8c0-0.8,0.3-1.4,0.9-1.8c0.6-0.4,1.4-0.6,2.6-0.6l1.3,0v-0.3c0-0.8-0.4-1.2-1.2-1.2
			c-0.6,0-1.3,0.2-2.2,0.6l-0.7-1.4c0.9-0.5,1.9-0.7,2.9-0.7c1,0,1.8,0.2,2.4,0.7s0.8,1.1,0.8,2v5.1H231.3z M230.7,175.7l-0.8,0
			c-0.6,0-1.1,0.1-1.4,0.3s-0.4,0.5-0.4,0.9c0,0.6,0.3,0.9,1,0.9c0.5,0,0.9-0.1,1.2-0.4s0.4-0.6,0.4-1.1V175.7z"/>
		<path id="XMLID_156_" class="st7" d="M241.9,175.4c0,1.2-0.3,2.2-1,2.9s-1.6,1.1-2.7,1.1c-0.7,0-1.4-0.2-1.9-0.5
			c-0.6-0.3-1-0.8-1.3-1.4s-0.5-1.3-0.5-2.1c0-1.2,0.3-2.2,1-2.9s1.6-1,2.7-1c0.7,0,1.4,0.2,1.9,0.5s1,0.8,1.3,1.4
			S241.9,174.6,241.9,175.4z M236.6,175.4c0,0.8,0.1,1.3,0.4,1.7s0.7,0.6,1.2,0.6c0.6,0,1-0.2,1.2-0.6c0.2-0.4,0.4-1,0.4-1.7
			c0-0.8-0.1-1.3-0.4-1.7s-0.6-0.6-1.2-0.6c-0.6,0-1,0.2-1.2,0.6C236.7,174.1,236.6,174.7,236.6,175.4z"/>
		<path id="XMLID_159_" class="st7" d="M244.4,175.9v-0.5c0-0.4,0.1-0.8,0.3-1.1s0.5-0.7,1-1c0.5-0.3,0.8-0.6,0.9-0.8
			s0.2-0.5,0.2-0.7c0-0.3-0.1-0.5-0.3-0.7s-0.5-0.2-0.9-0.2c-0.7,0-1.5,0.2-2.3,0.7l-0.7-1.5c1-0.6,2.1-0.9,3.2-0.9
			c0.9,0,1.7,0.2,2.2,0.7s0.8,1.1,0.8,1.8c0,0.5-0.1,0.9-0.3,1.3s-0.7,0.8-1.3,1.2c-0.4,0.3-0.7,0.6-0.8,0.7s-0.2,0.4-0.2,0.7v0.4
			H244.4z M244.1,178.3c0-0.4,0.1-0.7,0.3-0.9s0.5-0.3,0.9-0.3c0.4,0,0.7,0.1,0.9,0.3s0.3,0.5,0.3,0.9c0,0.4-0.1,0.6-0.3,0.9
			c-0.2,0.2-0.5,0.3-0.9,0.3c-0.4,0-0.7-0.1-0.9-0.3C244.3,178.9,244.1,178.7,244.1,178.3z"/>
	</g>
</g>
</svg>
