<?xml version="1.0" encoding="utf-8"?>
<!-- Generator: Adobe Illustrator 19.0.0, SVG Export Plug-In . SVG Version: 6.00 Build 0)  -->
<svg version="1.1" id="Layer_1" xmlns="http://www.w3.org/2000/svg" xmlns:xlink="http://www.w3.org/1999/xlink" x="0px" y="0px"
	 viewBox="0 0 575 261.4" style="enable-background:new 0 0 575 261.4;" xml:space="preserve">
<style type="text/css">
	.st0{fill:#FFFFFF;stroke:#F2673A;stroke-width:3;stroke-miterlimit:10;}
	.st1{fill:#FFFFFF;stroke:#F2673A;stroke-width:2;stroke-miterlimit:10;}
	.st2{fill:#FFFFFF;stroke:#F2673A;stroke-miterlimit:10;}
	.st3{fill:none;stroke:#F2673A;stroke-width:2;stroke-linecap:round;stroke-linejoin:round;stroke-miterlimit:10;}
	.st4{fill:#FFFFFF;stroke:#F2673A;stroke-width:1.8254;stroke-linecap:round;stroke-linejoin:round;stroke-miterlimit:10;}
	.st5{fill:#F2673A;}
	.st6{fill:none;stroke:#F2673A;stroke-width:1.9267;stroke-miterlimit:10;}
	.st7{fill:none;stroke:#F2673A;stroke-width:1.0536;stroke-miterlimit:10;}
	.st8{fill:#49C2C6;}
	.st9{fill:#FFFFFF;}
	.st10{fill:#EDEDED;}
	.st11{fill:#C9C7C8;}
</style>
<g id="XMLID_211_">
	<path id="XMLID_204_" class="st0" d="M29,43.3l0.8,3v117.8l100-1.9v-115v0.2l-0.6-3.6c0-23.4-22.3-42.3-50-42.3
		C51.4,1.5,29,20,29,43.3"/>
	<path id="XMLID_203_" class="st1" d="M41.3,94.6h-0.9c-7.3,0-12.1-5.1-12.1-12.5v-1.1c0-7.4,4.8-14.4,12.1-14.4h0.9"/>
	<path id="XMLID_202_" class="st1" d="M132.3,76.6c0-5-4-9-9-9h-9.1c-5,0-9,4-9,9v10.1c0,5,4,9,9,9h9.1c5,0,9-4,9-9V76.6z"/>
	<polyline id="XMLID_201_" class="st2" points="63.8,113.6 63.8,145.1 94.8,145.1 94.8,113.6 	"/>
	<path id="XMLID_200_" class="st3" d="M78.9,124c-4.8-0.5-33.6-3.6-35.6-30.2V66.6v-1h14V40.7l9.2,24.9h62.8"/>
	<path id="XMLID_222_" class="st4" d="M114.3,65.2l0.8,28.6c-3.2,26.6-32.6,29.5-37.4,29.9c0,0-18.6-0.4-29.1-13.4"/>
	<path id="XMLID_199_" class="st5" d="M65.3,81.5c0,1.9-1.6,3.5-3.5,3.5l0,0c-1.9,0-3.5-1.6-3.5-3.5v-5c0-1.9,1.6-3.5,3.5-3.5l0,0
		c1.9,0,3.5,1.6,3.5,3.5V81.5z"/>
	<path id="XMLID_198_" class="st5" d="M102.3,81.5c0,1.9-1.6,3.5-3.5,3.5l0,0c-1.9,0-3.5-1.6-3.5-3.5v-5c0-1.9,1.6-3.5,3.5-3.5l0,0
		c1.9,0,3.5,1.6,3.5,3.5V81.5z"/>
	<path id="XMLID_197_" class="st1" d="M63.8,59.6h-7.1c-0.4,0-0.8-0.3-0.8-0.5l0,0c0-0.2,0.3-0.5,0.8-0.5h7.1c0.4,0,0.8,0.3,0.8,0.5
		l0,0C64.6,59.4,64.3,59.6,63.8,59.6z"/>
	<path id="XMLID_196_" class="st5" d="M98.4,131.6H80.6h-5.2H58.2c-32.9,8-36.4,38-36.4,38h53.6h5.2h54.1
		C134.8,169.6,131.3,139.6,98.4,131.6z"/>
	<path id="XMLID_195_" class="st1" d="M100.9,59.6h-7.1c-0.4,0-0.8,0-0.8,0l0,0c0,0,0.3,0,0.8,0H100.9c0.4,0,0.8,0,0.8,0l0,0
		C101.7,59.6,101.3,59.6,100.9,59.6z"/>
	<polygon id="XMLID_194_" class="st1" points="80.1,73 73.1,93.6 87.4,93.6 	"/>
	<path id="XMLID_215_" class="st6" d="M93.9,89.4c0,7.7-6.2,13.9-13.7,13.9c-7.6,0-13.7-6.2-13.7-13.9"/>
	<path id="XMLID_214_" class="st7" d="M100,75.3c0,0,1.5,3.2,4.6,0"/>
	<path id="XMLID_213_" class="st7" d="M54.4,75.3c0,0,1.5,3.2,4.6,0"/>
	<rect id="XMLID_193_" x="23.3" y="169.6" class="st5" width="113" height="91"/>
</g>
<path id="XMLID_210_" class="st8" d="M550,48H208.3c-13.8,0-25,11.2-25,25v102.6l-36.8,51.6h61.7H228h322c13.8,0,25-11.2,25-25V72.9
	C575,59.1,563.8,48,550,48z"/>
<g id="XMLID_205_">
	<path id="XMLID_209_" class="st9" d="M245.7,107h-3V85.7h-7.5v-2.7h17.9v2.7h-7.4V107z"/>
	<path id="XMLID_216_" class="st9" d="M268.6,107V95.5c0-1.5-0.3-2.5-1-3.3c-0.6-0.7-1.7-1.1-3.1-1.1c-1.8,0-3.2,0.5-4,1.5
		c-0.8,1-1.3,2.7-1.3,5v9.3h-2.9V81.5h2.9V89c0,1-0.1,1.8-0.2,2.5h0.2c0.5-0.9,1.3-1.6,2.3-2c1-0.5,2.1-0.7,3.3-0.7
		c2.2,0,3.8,0.5,4.9,1.6c1.1,1,1.7,2.7,1.7,5V107H268.6z"/>
	<path id="XMLID_218_" class="st9" d="M288.2,107l-0.6-2.6h-0.1c-0.9,1.1-1.8,1.9-2.7,2.3c-0.9,0.4-2,0.6-3.4,0.6
		c-1.8,0-3.2-0.5-4.2-1.4c-1-0.9-1.5-2.2-1.5-3.9c0-3.6,2.9-5.6,8.6-5.7l3-0.1v-1.1c0-1.4-0.3-2.4-0.9-3c-0.6-0.6-1.5-1-2.8-1
		c-0.9,0-1.8,0.1-2.7,0.4c-0.8,0.3-1.6,0.6-2.4,0.9l-0.9-2.2c0.9-0.5,1.9-0.9,3-1.1c1.1-0.3,2.1-0.4,3.2-0.4c2.2,0,3.8,0.5,4.8,1.4
		c1.1,1,1.6,2.5,1.6,4.6V107H288.2z M282.1,104.9c1.6,0,2.9-0.4,3.9-1.3c0.9-0.9,1.4-2.2,1.4-3.8v-1.6l-2.7,0.1
		c-2.1,0.1-3.6,0.4-4.5,1c-0.9,0.6-1.4,1.5-1.4,2.7c0,0.9,0.3,1.7,0.9,2.2C280.3,104.7,281.1,104.9,282.1,104.9z"/>
	<path id="XMLID_221_" class="st9" d="M308.1,107V95.5c0-1.5-0.3-2.5-1-3.3c-0.6-0.7-1.7-1.1-3.1-1.1c-1.8,0-3.2,0.5-4,1.5
		c-0.8,1-1.3,2.7-1.3,5v9.3h-2.9V89h2.4l0.4,2.5h0.2c0.6-0.9,1.3-1.6,2.3-2.1c1-0.5,2.1-0.7,3.3-0.7c2.2,0,3.8,0.5,4.9,1.6
		s1.6,2.7,1.6,5V107H308.1z"/>
	<path id="XMLID_224_" class="st9" d="M328.8,107V95.5c0-1.5-0.3-2.5-1-3.3c-0.6-0.7-1.7-1.1-3.1-1.1c-1.8,0-3.2,0.5-4,1.5
		c-0.8,1-1.3,2.7-1.3,5v9.3h-2.9V81.5h2.9V89c0,1-0.1,1.8-0.2,2.5h0.2c0.5-0.9,1.3-1.6,2.3-2c1-0.5,2.1-0.7,3.3-0.7
		c2.2,0,3.8,0.5,4.9,1.6c1.1,1,1.7,2.7,1.7,5V107H328.8z"/>
	<path id="XMLID_226_" class="st9" d="M352,104.9c0.4,0,0.8,0,1.3-0.1s0.9-0.2,1.2-0.3v2.3c-0.3,0.1-0.7,0.2-1.3,0.4
		c-0.6,0.1-1.2,0.2-1.7,0.2c-3.5,0-5.3-1.8-5.3-5.5V91.3h-2.5v-1.4l2.6-1.2l1.2-3.8h1.8V89h5.2v2.3h-5.2v10.4c0,1,0.2,1.8,0.7,2.4
		C350.4,104.6,351.1,104.9,352,104.9z"/>
	<path id="XMLID_228_" class="st9" d="M373.7,98c0,2.9-0.7,5.2-2.2,6.9c-1.5,1.6-3.5,2.5-6.2,2.5c-1.6,0-3.1-0.4-4.3-1.1
		c-1.3-0.8-2.2-1.8-2.9-3.3c-0.7-1.4-1-3.1-1-4.9c0-2.9,0.7-5.2,2.2-6.8c1.5-1.6,3.5-2.4,6.2-2.4c2.5,0,4.5,0.8,6,2.5
		C373,92.9,373.7,95.1,373.7,98z M360.1,98c0,2.3,0.4,4,1.3,5.1c0.9,1.2,2.2,1.8,3.9,1.8c1.7,0,3-0.6,3.9-1.8
		c0.9-1.2,1.3-2.9,1.3-5.1c0-2.3-0.4-4-1.4-5.1c-0.9-1.1-2.2-1.7-4-1.7C361.9,91.2,360.1,93.4,360.1,98z"/>
	<path id="XMLID_231_" class="st9" d="M389.5,107l-0.6-2.6h-0.1c-0.9,1.1-1.8,1.9-2.7,2.3c-0.9,0.4-2,0.6-3.4,0.6
		c-1.8,0-3.2-0.5-4.2-1.4c-1-0.9-1.5-2.2-1.5-3.9c0-3.6,2.9-5.6,8.6-5.7l3-0.1v-1.1c0-1.4-0.3-2.4-0.9-3c-0.6-0.6-1.5-1-2.8-1
		c-0.9,0-1.8,0.1-2.7,0.4c-0.8,0.3-1.6,0.6-2.4,0.9l-0.9-2.2c0.9-0.5,1.9-0.9,3-1.1s2.1-0.4,3.2-0.4c2.2,0,3.8,0.5,4.8,1.4
		c1.1,1,1.6,2.5,1.6,4.6V107H389.5z M383.4,104.9c1.6,0,2.9-0.4,3.9-1.3c0.9-0.9,1.4-2.2,1.4-3.8v-1.6l-2.7,0.1
		c-2.1,0.1-3.6,0.4-4.5,1c-0.9,0.6-1.4,1.5-1.4,2.7c0,0.9,0.3,1.7,0.9,2.2C381.6,104.7,382.4,104.9,383.4,104.9z M382.7,86.3
		c0.4-0.5,0.9-1.3,1.6-2.2c0.6-1,1.2-1.9,1.6-2.7h3.6v0.3c-0.5,0.7-1.2,1.6-2.2,2.6s-1.9,1.9-2.6,2.4h-1.9V86.3z"/>
	<path id="XMLID_235_" class="st9" d="M409.4,107V95.5c0-1.5-0.3-2.5-1-3.3c-0.6-0.7-1.7-1.1-3.1-1.1c-1.8,0-3.2,0.5-4,1.5
		c-0.8,1-1.3,2.7-1.3,5v9.3h-2.9V89h2.4l0.4,2.5h0.2c0.6-0.9,1.3-1.6,2.3-2.1c1-0.5,2.1-0.7,3.3-0.7c2.2,0,3.8,0.5,4.9,1.6
		c1.1,1.1,1.6,2.7,1.6,5V107H409.4z"/>
	<path id="XMLID_237_" class="st9" d="M432.6,104.9c0.4,0,0.8,0,1.3-0.1s0.9-0.2,1.2-0.3v2.3c-0.3,0.1-0.7,0.2-1.3,0.4
		c-0.6,0.1-1.2,0.2-1.7,0.2c-3.5,0-5.3-1.8-5.3-5.5V91.3h-2.5v-1.4l2.6-1.2l1.2-3.8h1.8V89h5.2v2.3h-5.2v10.4c0,1,0.2,1.8,0.7,2.4
		C431,104.6,431.7,104.9,432.6,104.9z"/>
	<path id="XMLID_239_" class="st9" d="M447.1,88.7c0.8,0,1.5,0.1,2.1,0.2l-0.4,2.7c-0.7-0.2-1.3-0.2-1.9-0.2c-0.9,0-1.8,0.3-2.6,0.8
		c-0.8,0.5-1.4,1.2-1.9,2.2c-0.5,0.9-0.7,1.9-0.7,3.1v9.6h-2.9V89h2.4l0.3,3.3h0.1c0.7-1.2,1.5-2.1,2.4-2.7
		C444.9,89,446,88.7,447.1,88.7z"/>
	<path id="XMLID_241_" class="st9" d="M455.3,89.1v11.5c0,1.5,0.3,2.5,1,3.2c0.6,0.7,1.7,1.1,3,1.1c1.8,0,3.2-0.5,4-1.5
		s1.3-2.7,1.3-5v-9.3h3v2c0.9-0.1,1.5-0.6,1.9-1.3c0.4-0.7,0.6-1.9,0.6-3.5h3.1l0.2,0.4c-0.3,2.1-1,3.6-2,4.7c-1,1-2.3,1.6-3.9,1.8
		V107h-2.4l-0.4-2.4h-0.1c-0.5,0.9-1.3,1.5-2.3,2c-1,0.5-2.1,0.7-3.4,0.7c-2.2,0-3.8-0.5-4.9-1.6c-1.1-1-1.7-2.7-1.7-5V89.1H455.3z
		 M457.7,111c0-0.7,0.2-1.1,0.5-1.4c0.3-0.3,0.8-0.5,1.2-0.5c0.5,0,0.9,0.2,1.2,0.5c0.3,0.3,0.5,0.8,0.5,1.4c0,0.6-0.2,1-0.5,1.4
		c-0.3,0.3-0.7,0.5-1.3,0.5c-0.5,0-0.9-0.2-1.3-0.5C457.9,112.1,457.7,111.6,457.7,111z"/>
	<path id="XMLID_244_" class="st9" d="M482.3,107.3c-2.6,0-4.6-0.8-6-2.4c-1.4-1.6-2.2-3.9-2.2-6.8c0-3,0.7-5.3,2.2-7
		c1.5-1.6,3.5-2.4,6.2-2.4c0.9,0,1.7,0.1,2.6,0.3c0.9,0.2,1.6,0.4,2.1,0.7l-0.9,2.5c-1.5-0.6-2.8-0.9-3.9-0.9c-1.8,0-3.1,0.6-4,1.7
		c-0.9,1.1-1.3,2.8-1.3,5.1c0,2.2,0.4,3.8,1.3,5c0.9,1.2,2.1,1.7,3.8,1.7c1.6,0,3.1-0.3,4.7-1v2.6
		C485.7,107,484.2,107.3,482.3,107.3z"/>
	<path id="XMLID_246_" class="st9" d="M243.7,144.4c0.4,0,0.8,0,1.3-0.1c0.5-0.1,0.9-0.2,1.2-0.3v2.3c-0.3,0.1-0.7,0.2-1.3,0.4
		c-0.6,0.1-1.2,0.2-1.7,0.2c-3.5,0-5.3-1.8-5.3-5.5v-10.5h-2.5v-1.4l2.6-1.2l1.2-3.8h1.8v4.1h5.2v2.3h-5.2v10.4c0,1,0.2,1.8,0.7,2.4
		C242.2,144.2,242.9,144.4,243.7,144.4z"/>
	<path id="XMLID_248_" class="st9" d="M252.6,128.5v11.6c0,1.5,0.3,2.5,1,3.2c0.6,0.7,1.7,1.1,3,1.1c1.8,0,3.2-0.5,4-1.5
		c0.8-1,1.3-2.7,1.3-5v-9.4h3v18h-2.4l-0.4-2.4h-0.1c-0.5,0.9-1.3,1.5-2.3,2c-1,0.5-2.1,0.7-3.4,0.7c-2.2,0-3.8-0.5-4.9-1.6
		c-1.1-1-1.6-2.7-1.6-5v-11.8H252.6z"/>
	<path id="XMLID_250_" class="st9" d="M267.7,128.5h3.2l3.9,10.2c0.8,2.2,1.3,3.9,1.5,4.9h0.1c0.1-0.4,0.3-1.2,0.7-2.3
		c0.3-1.1,0.6-2,0.9-2.7l3.6-10.2h3.2L277,149c-0.8,2-1.6,3.4-2.7,4.3c-1,0.9-2.3,1.3-3.8,1.3c-0.8,0-1.6-0.1-2.4-0.3v-2.3
		c0.5,0.1,1.2,0.2,2,0.2c0.9,0,1.7-0.3,2.4-0.8c0.7-0.5,1.2-1.3,1.6-2.4l0.9-2.4L267.7,128.5z"/>
	<path id="XMLID_252_" class="st9" d="M295.3,146.8c-2.7,0-4.8-0.8-6.3-2.4c-1.5-1.6-2.3-3.9-2.3-6.7c0-2.9,0.7-5.2,2.1-6.9
		c1.4-1.7,3.4-2.6,5.8-2.6c2.3,0,4.1,0.7,5.4,2.2c1.3,1.5,2,3.4,2,5.9v1.8h-12.3c0.1,2,0.6,3.6,1.6,4.6c1,1.1,2.4,1.6,4.2,1.6
		c1,0,1.9-0.1,2.7-0.3c0.9-0.2,1.9-0.5,3-1v2.6c-1,0.4-1.9,0.7-2.8,0.9C297.5,146.8,296.4,146.8,295.3,146.8z M299.6,126.2h-1.6
		c-1.2-0.8-2.4-1.7-3.5-2.7c-1.2,1.1-2.4,2-3.5,2.7h-1.7v-0.4c0.6-0.6,1.2-1.3,1.8-2.1c0.6-0.7,1.2-1.5,1.8-2.2h3.1
		c0.8,1.1,2,2.6,3.6,4.3V126.2z M294.5,130.6c-1.4,0-2.5,0.5-3.3,1.4c-0.8,0.9-1.3,2.2-1.5,3.8h9.1c0-1.7-0.4-3-1.2-3.8
		C297,131.1,295.9,130.6,294.5,130.6z M298.3,122.6c0.8-1,1.5-2.1,2.1-3.3h2.9v0.3c-0.9,1.2-2,2.3-3.3,3.4h-1.7V122.6z"/>
	<path id="XMLID_257_" class="st9" d="M318.8,146.5V135c0-1.5-0.3-2.5-1-3.3c-0.6-0.7-1.7-1.1-3.1-1.1c-1.8,0-3.2,0.5-4,1.5
		c-0.8,1-1.3,2.7-1.3,5v9.3h-2.9v-18h2.4l0.4,2.5h0.2c0.6-0.9,1.3-1.6,2.3-2.1c1-0.5,2.1-0.7,3.3-0.7c2.2,0,3.8,0.5,4.9,1.6
		c1.1,1.1,1.6,2.7,1.6,5v11.7H318.8z"/>
	<path id="XMLID_259_" class="st9" d="M339.9,146.5l-6.8-18h3.2l3.8,10.6c0.8,2.1,1.2,3.7,1.4,4.8h0.1c0-0.1,0.1-0.3,0.1-0.5
		c0-0.2,0.1-0.4,0.2-0.6c0.1-0.2,0.5-1.4,1.2-3.7l3.8-10.6h3.1l-6.8,18H339.9z"/>
	<path id="XMLID_261_" class="st9" d="M364,146.5l-0.6-2.6h-0.1c-0.9,1.1-1.8,1.9-2.7,2.3c-0.9,0.4-2,0.6-3.4,0.6
		c-1.8,0-3.2-0.5-4.2-1.4c-1-0.9-1.5-2.2-1.5-3.9c0-3.6,2.9-5.6,8.6-5.7l3-0.1v-1.1c0-1.4-0.3-2.4-0.9-3c-0.6-0.6-1.5-1-2.8-1
		c-0.9,0-1.8,0.1-2.7,0.4c-0.8,0.3-1.6,0.6-2.4,0.9l-0.9-2.2c0.9-0.5,1.9-0.9,3-1.1c1.1-0.3,2.1-0.4,3.2-0.4c2.2,0,3.8,0.5,4.8,1.4
		c1.1,1,1.6,2.5,1.6,4.6v12.2H364z M361.3,126.2h-2c-0.8-0.7-1.7-1.5-2.7-2.5c-1-1-1.7-1.9-2.1-2.5v-0.3h3.5
		c0.3,0.7,0.8,1.6,1.5,2.6c0.6,1,1.2,1.8,1.7,2.4V126.2z M358,144.5c1.6,0,2.9-0.4,3.9-1.3c0.9-0.9,1.4-2.2,1.4-3.8v-1.6l-2.7,0.1
		c-2.1,0.1-3.6,0.4-4.5,1c-0.9,0.6-1.4,1.5-1.4,2.7c0,0.9,0.3,1.7,0.9,2.2C356.1,144.2,356.9,144.5,358,144.5z"/>
	<path id="XMLID_265_" class="st9" d="M386.8,146.8c-2.3,0-4.1-0.8-5.4-2.5c-1.3-1.6-1.9-3.9-1.9-6.8c0-2.9,0.7-5.2,2-6.9
		c1.3-1.7,3.1-2.5,5.4-2.5c2.5,0,4.3,0.9,5.6,2.8h0.1l0.4-2.5h2.3v26h-2.9v-7.7c0-1.2,0.1-2.1,0.2-2.8h-0.2
		C391.1,145.9,389.3,146.8,386.8,146.8z M387.3,144.4c1.8,0,3-0.5,3.8-1.4c0.8-1,1.2-2.5,1.3-4.8v-0.6c0-2.5-0.4-4.3-1.2-5.3
		c-0.8-1.1-2.1-1.6-3.9-1.6c-1.5,0-2.7,0.6-3.5,1.8c-0.8,1.2-1.2,2.9-1.2,5.2c0,2.2,0.4,3.9,1.2,5
		C384.5,143.8,385.7,144.4,387.3,144.4z"/>
	<path id="XMLID_268_" class="st9" d="M403.9,128.5v11.6c0,1.5,0.3,2.5,1,3.2c0.6,0.7,1.7,1.1,3,1.1c1.8,0,3.2-0.5,4-1.5
		s1.3-2.7,1.3-5v-9.4h3v18h-2.4l-0.4-2.4h-0.1c-0.5,0.9-1.3,1.5-2.3,2c-1,0.5-2.1,0.7-3.4,0.7c-2.2,0-3.8-0.5-4.9-1.6
		c-1.1-1-1.6-2.7-1.6-5v-11.8H403.9z"/>
	<path id="XMLID_270_" class="st9" d="M419,128.5h3.2l3.9,10.2c0.8,2.2,1.3,3.9,1.5,4.9h0.1c0.1-0.4,0.3-1.2,0.7-2.3
		c0.3-1.1,0.6-2,0.9-2.7l3.6-10.2h3.2l-7.7,20.5c-0.8,2-1.6,3.4-2.7,4.3c-1,0.9-2.3,1.3-3.8,1.3c-0.8,0-1.6-0.1-2.4-0.3v-2.3
		c0.5,0.1,1.2,0.2,2,0.2c0.9,0,1.7-0.3,2.4-0.8c0.7-0.5,1.2-1.3,1.6-2.4l0.9-2.4L419,128.5z"/>
	<path id="XMLID_272_" class="st9" d="M453.6,144.4c0.4,0,0.8,0,1.3-0.1s0.9-0.2,1.2-0.3v2.3c-0.3,0.1-0.7,0.2-1.3,0.4
		c-0.6,0.1-1.2,0.2-1.7,0.2c-3.5,0-5.3-1.8-5.3-5.5v-10.5h-2.5v-1.4l2.6-1.2l1.2-3.8h1.8v4.1h5.2v2.3h-5.2v10.4c0,1,0.2,1.8,0.7,2.4
		C452,144.2,452.7,144.4,453.6,144.4z"/>
	<path id="XMLID_274_" class="st9" d="M468,128.2c0.8,0,1.5,0.1,2.1,0.2l-0.4,2.7c-0.7-0.2-1.3-0.2-1.9-0.2c-0.9,0-1.8,0.3-2.6,0.8
		c-0.8,0.5-1.4,1.2-1.9,2.2c-0.5,0.9-0.7,1.9-0.7,3.1v9.6h-2.9v-18h2.4l0.3,3.3h0.1c0.7-1.2,1.5-2.1,2.4-2.7
		C465.9,128.5,466.9,128.2,468,128.2z"/>
	<path id="XMLID_276_" class="st9" d="M476.7,126.2h-2c-0.8-0.7-1.7-1.5-2.7-2.5c-1-1-1.7-1.9-2.1-2.5v-0.3h3.5
		c0.3,0.7,0.8,1.6,1.5,2.6c0.6,1,1.2,1.8,1.7,2.4V126.2z M476.4,146.5h-2.9v-18h2.9V146.5z"/>
	<path id="XMLID_279_" class="st9" d="M494.4,146.5V135c0-1.5-0.3-2.5-1-3.3c-0.6-0.7-1.7-1.1-3.1-1.1c-1.8,0-3.2,0.5-4,1.5
		c-0.8,1-1.3,2.7-1.3,5v9.3h-2.9v-18h2.4l0.4,2.5h0.2c0.6-0.9,1.3-1.6,2.3-2.1c1-0.5,2.1-0.7,3.3-0.7c2.2,0,3.8,0.5,4.9,1.6
		c1.1,1.1,1.6,2.7,1.6,5v11.7H494.4z"/>
	<path id="XMLID_281_" class="st9" d="M515.1,146.5V135c0-1.5-0.3-2.5-1-3.3c-0.6-0.7-1.7-1.1-3.1-1.1c-1.8,0-3.2,0.5-4,1.5
		c-0.8,1-1.3,2.7-1.3,5v9.3h-2.9v-25.5h2.9v7.5c0,1-0.1,1.8-0.2,2.5h0.2c0.5-0.9,1.3-1.6,2.3-2c1-0.5,2.1-0.7,3.3-0.7
		c2.2,0,3.8,0.5,4.9,1.6c1.1,1,1.7,2.7,1.7,5v11.7H515.1z"/>
	<path id="XMLID_283_" class="st9" d="M244.1,186.4c-2.3,0-4.1-0.8-5.4-2.4c-1.3-1.6-1.9-3.9-1.9-6.8c0-3,0.6-5.2,1.9-6.9
		c1.3-1.6,3.1-2.4,5.4-2.4c2.4,0,4.3,0.9,5.6,2.7h0.2c0-0.2-0.1-0.5-0.1-1.1c-0.1-0.6-0.1-1.1-0.1-1.6v-2h-7.1v-2.2h7.1v-3h2.9v3
		h2.6v2.2h-2.6V186h-2.4l-0.4-2.4h-0.1C248.4,185.5,246.5,186.4,244.1,186.4z M244.6,183.9c1.8,0,3.1-0.5,3.9-1.4
		c0.8-1,1.2-2.5,1.2-4.8v-0.6c0-2.5-0.4-4.3-1.2-5.3c-0.8-1-2.1-1.6-3.9-1.6c-1.5,0-2.7,0.6-3.5,1.8c-0.8,1.2-1.2,2.9-1.2,5.2
		c0,2.1,0.4,3.8,1.2,5C241.8,183.3,243,183.9,244.6,183.9z"/>
	<path id="XMLID_286_" class="st9" d="M261.2,168.1v11.5c0,1.5,0.3,2.5,1,3.2c0.6,0.7,1.7,1.1,3,1.1c1.8,0,3.2-0.5,4-1.5
		s1.3-2.7,1.3-5v-9.3h3v2c0.9-0.1,1.5-0.6,1.9-1.3c0.4-0.7,0.6-1.9,0.6-3.5h3.1l0.2,0.4c-0.3,2.1-1,3.6-2,4.7c-1,1-2.3,1.6-3.9,1.8
		V186H271l-0.4-2.4h-0.1c-0.5,0.9-1.3,1.5-2.3,2c-1,0.5-2.1,0.7-3.4,0.7c-2.2,0-3.8-0.5-4.9-1.6c-1.1-1-1.7-2.7-1.7-5v-11.7H261.2z"
		/>
	<path id="XMLID_288_" class="st9" d="M292.1,186l-0.6-2.6h-0.1c-0.9,1.1-1.8,1.9-2.7,2.3c-0.9,0.4-2,0.6-3.4,0.6
		c-1.8,0-3.2-0.5-4.2-1.4c-1-0.9-1.5-2.2-1.5-3.9c0-3.6,2.9-5.6,8.6-5.7l3-0.1v-1.1c0-1.4-0.3-2.4-0.9-3c-0.6-0.6-1.5-1-2.8-1
		c-0.9,0-1.8,0.1-2.7,0.4c-0.8,0.3-1.6,0.6-2.4,0.9l-0.9-2.2c0.9-0.5,1.9-0.9,3-1.1c1.1-0.3,2.1-0.4,3.2-0.4c2.2,0,3.8,0.5,4.8,1.4
		c1.1,1,1.6,2.5,1.6,4.6V186H292.1z M286,184c1.6,0,2.9-0.4,3.9-1.3c0.9-0.9,1.4-2.2,1.4-3.8v-1.6l-2.7,0.1c-2.1,0.1-3.6,0.4-4.5,1
		c-0.9,0.6-1.4,1.5-1.4,2.7c0,0.9,0.3,1.7,0.9,2.2C284.2,183.7,285,184,286,184z"/>
	<path id="XMLID_291_" class="st9" d="M316.9,167.7c0.8,0,1.5,0.1,2.1,0.2l-0.4,2.7c-0.7-0.2-1.3-0.2-1.9-0.2
		c-0.9,0-1.8,0.3-2.6,0.8c-0.8,0.5-1.4,1.2-1.9,2.2c-0.5,0.9-0.7,1.9-0.7,3.1v9.6h-2.9v-18h2.4l0.3,3.3h0.1c0.7-1.2,1.5-2.1,2.4-2.7
		C314.8,168,315.8,167.7,316.9,167.7z"/>
	<path id="XMLID_293_" class="st9" d="M333.1,186l-0.6-2.6h-0.1c-0.9,1.1-1.8,1.9-2.7,2.3c-0.9,0.4-2,0.6-3.4,0.6
		c-1.8,0-3.2-0.5-4.2-1.4c-1-0.9-1.5-2.2-1.5-3.9c0-3.6,2.9-5.6,8.6-5.7l3-0.1v-1.1c0-1.4-0.3-2.4-0.9-3c-0.6-0.6-1.5-1-2.8-1
		c-0.9,0-1.8,0.1-2.7,0.4c-0.8,0.3-1.6,0.6-2.4,0.9l-0.9-2.2c0.9-0.5,1.9-0.9,3-1.1c1.1-0.3,2.1-0.4,3.2-0.4c2.2,0,3.8,0.5,4.8,1.4
		c1.1,1,1.6,2.5,1.6,4.6V186H333.1z M327,184c1.6,0,2.9-0.4,3.9-1.3c0.9-0.9,1.4-2.2,1.4-3.8v-1.6l-2.7,0.1c-2.1,0.1-3.6,0.4-4.5,1
		c-0.9,0.6-1.4,1.5-1.4,2.7c0,0.9,0.3,1.7,0.9,2.2C325.2,183.7,326,184,327,184z"/>
	<path id="XMLID_296_" class="st9" d="M355.8,186.4c-2.3,0-4.1-0.8-5.4-2.5c-1.3-1.6-1.9-3.9-1.9-6.8c0-2.9,0.7-5.2,2-6.9
		c1.3-1.7,3.1-2.5,5.4-2.5c2.5,0,4.3,0.9,5.6,2.8h0.1l0.4-2.5h2.3v26h-2.9v-7.7c0-1.2,0.1-2.1,0.2-2.8h-0.2
		C360.2,185.5,358.3,186.4,355.8,186.4z M356.4,183.9c1.8,0,3-0.5,3.8-1.4c0.8-1,1.2-2.5,1.3-4.8v-0.6c0-2.5-0.4-4.3-1.2-5.3
		c-0.8-1.1-2.1-1.6-3.9-1.6c-1.5,0-2.7,0.6-3.5,1.8c-0.8,1.2-1.2,2.9-1.2,5.2c0,2.2,0.4,3.9,1.2,5
		C353.6,183.3,354.8,183.9,356.4,183.9z"/>
	<path id="XMLID_299_" class="st9" d="M372.9,168.1v11.6c0,1.5,0.3,2.5,1,3.2c0.6,0.7,1.7,1.1,3,1.1c1.8,0,3.2-0.5,4-1.5
		s1.3-2.7,1.3-5v-9.4h3v18h-2.4l-0.4-2.4h-0.1c-0.5,0.9-1.3,1.5-2.3,2c-1,0.5-2.1,0.7-3.4,0.7c-2.2,0-3.8-0.5-4.9-1.6
		c-1.1-1-1.6-2.7-1.6-5v-11.8H372.9z"/>
	<path id="XMLID_301_" class="st9" d="M388,168.1h3.2l3.9,10.2c0.8,2.2,1.3,3.9,1.5,4.9h0.1c0.1-0.4,0.3-1.2,0.7-2.3
		c0.3-1.1,0.6-2,0.9-2.7l3.6-10.2h3.2l-7.7,20.5c-0.8,2-1.6,3.4-2.7,4.3c-1,0.9-2.3,1.3-3.8,1.3c-0.8,0-1.6-0.1-2.4-0.3v-2.3
		c0.5,0.1,1.2,0.2,2,0.2c0.9,0,1.7-0.3,2.4-0.8c0.7-0.5,1.2-1.3,1.6-2.4l0.9-2.4L388,168.1z"/>
	<path id="XMLID_303_" class="st9" d="M415.6,186.4c-2.7,0-4.8-0.8-6.3-2.4c-1.5-1.6-2.3-3.9-2.3-6.7c0-2.9,0.7-5.2,2.1-6.9
		c1.4-1.7,3.4-2.6,5.8-2.6c2.3,0,4.1,0.7,5.4,2.2c1.3,1.5,2,3.4,2,5.9v1.8H410c0.1,2,0.6,3.6,1.6,4.6c1,1.1,2.4,1.6,4.2,1.6
		c1,0,1.9-0.1,2.7-0.3c0.9-0.2,1.9-0.5,3-1v2.6c-1,0.4-1.9,0.7-2.8,0.9C417.8,186.3,416.8,186.4,415.6,186.4z M419.9,165.7h-1.6
		c-1.2-0.8-2.4-1.7-3.5-2.7c-1.2,1.1-2.4,2-3.5,2.7h-1.7v-0.4c0.6-0.6,1.2-1.3,1.8-2.1c0.6-0.7,1.2-1.5,1.8-2.2h3.1
		c0.8,1.1,2,2.6,3.6,4.3V165.7z M414.8,170.1c-1.4,0-2.5,0.5-3.3,1.4c-0.8,0.9-1.3,2.2-1.5,3.8h9.1c0-1.7-0.4-3-1.2-3.8
		C417.3,170.6,416.2,170.1,414.8,170.1z M418.6,162.1c0.8-1,1.5-2.1,2.1-3.3h2.9v0.3c-0.9,1.2-2,2.3-3.3,3.4h-1.7V162.1z"/>
	<path id="XMLID_308_" class="st9" d="M432.8,184c0.4,0,0.8,0,1.3-0.1s0.9-0.2,1.2-0.3v2.3c-0.3,0.1-0.7,0.2-1.3,0.4
		c-0.6,0.1-1.2,0.2-1.7,0.2c-3.5,0-5.3-1.8-5.3-5.5v-10.5h-2.5V169l2.6-1.2l1.2-3.8h1.8v4.1h5.2v2.3H430v10.4c0,1,0.2,1.8,0.7,2.4
		C431.3,183.7,431.9,184,432.8,184z"/>
	<path id="XMLID_310_" class="st9" d="M454,186.4c-2.3,0-4.1-0.8-5.4-2.4c-1.3-1.6-1.9-3.9-1.9-6.8c0-3,0.6-5.2,1.9-6.9
		c1.3-1.6,3.1-2.4,5.4-2.4c2.4,0,4.3,0.9,5.6,2.7h0.2c0-0.2-0.1-0.5-0.1-1.1c-0.1-0.6-0.1-1.1-0.1-1.6v-2h-7.1v-2.2h7.1v-3h2.9v3
		h2.6v2.2h-2.6V186h-2.4l-0.4-2.4h-0.1C458.3,185.5,456.4,186.4,454,186.4z M454.5,183.9c1.8,0,3.1-0.5,3.9-1.4
		c0.8-1,1.2-2.5,1.2-4.8v-0.6c0-2.5-0.4-4.3-1.2-5.3c-0.8-1-2.1-1.6-3.9-1.6c-1.5,0-2.7,0.6-3.5,1.8c-0.8,1.2-1.2,2.9-1.2,5.2
		c0,2.1,0.4,3.8,1.2,5C451.7,183.3,452.9,183.9,454.5,183.9z"/>
	<path id="XMLID_313_" class="st9" d="M468,190.1c0-0.7,0.2-1.1,0.5-1.4c0.3-0.3,0.8-0.5,1.2-0.5c0.5,0,0.9,0.2,1.2,0.5
		c0.3,0.3,0.5,0.8,0.5,1.4c0,0.6-0.2,1-0.5,1.4c-0.3,0.3-0.7,0.5-1.3,0.5c-0.5,0-0.9-0.2-1.3-0.5C468.2,191.1,468,190.7,468,190.1z
		 M468.1,163.2c0-0.7,0.2-1.1,0.5-1.4c0.3-0.3,0.7-0.4,1.2-0.4c0.5,0,0.9,0.1,1.2,0.4c0.3,0.3,0.5,0.8,0.5,1.4
		c0,0.6-0.2,1.1-0.5,1.4c-0.3,0.3-0.7,0.5-1.2,0.5c-0.5,0-0.9-0.2-1.2-0.5C468.2,164.3,468.1,163.9,468.1,163.2z M471.2,186h-2.9
		v-18h2.9V186z"/>
	<path id="XMLID_317_" class="st9" d="M489.2,186v-11.5c0-1.5-0.3-2.5-1-3.3c-0.6-0.7-1.7-1.1-3.1-1.1c-1.8,0-3.2,0.5-4,1.5
		c-0.8,1-1.3,2.7-1.3,5v9.3h-2.9v-18h2.4l0.4,2.5h0.2c0.6-0.9,1.3-1.6,2.3-2.1c1-0.5,2.1-0.7,3.3-0.7c2.2,0,3.8,0.5,4.9,1.6
		c1.1,1.1,1.6,2.7,1.6,5V186H489.2z"/>
	<path id="XMLID_319_" class="st9" d="M509.9,186v-11.5c0-1.5-0.3-2.5-1-3.3c-0.6-0.7-1.7-1.1-3.1-1.1c-1.8,0-3.2,0.5-4,1.5
		c-0.8,1-1.3,2.7-1.3,5v9.3h-2.9v-25.5h2.9v7.5c0,1-0.1,1.8-0.2,2.5h0.2c0.5-0.9,1.3-1.6,2.3-2c1-0.5,2.1-0.7,3.3-0.7
		c2.2,0,3.8,0.5,4.9,1.6c1.1,1,1.7,2.7,1.7,5V186H509.9z"/>
</g>
<path id="XMLID_207_" class="st10" d="M159.1,247.2H0V161c0-2.8,2.2-5,5-5h149.1c2.8,0,5,2.2,5,5V247.2z"/>
<path id="XMLID_206_" class="st11" d="M152.1,261.4H7c-3.9,0-7-3.1-7-7v-7.2h159.1v7.2C159.1,258.3,155.9,261.4,152.1,261.4z"/>
</svg>
