<!-- Generator: Adobe Illustrator 19.0.0, SVG Export Plug-In  -->
<svg version="1.1"
	 xmlns="http://www.w3.org/2000/svg" xmlns:xlink="http://www.w3.org/1999/xlink" xmlns:a="http://ns.adobe.com/AdobeSVGViewerExtensions/3.0/"
	 x="0px" y="0px" width="120.8px" height="120.8px" viewBox="0 0 120.8 120.8" style="enable-background:new 0 0 120.8 120.8;"
	 xml:space="preserve">
<style type="text/css">
	.st0{fill:#086A87;}
	.st1{fill:#F99700;}
	.st2{fill:#F45722;}
	.st3{fill:#EDEDED;}
	.st4{fill:none;stroke:#FFFFFF;stroke-width:5;stroke-miterlimit:10;}
	.st5{fill:#F9CF00;}
</style>
<defs>
</defs>
<g>
	<circle class="st0" cx="60.4" cy="60.4" r="60.4"/>
	<rect x="49.9" y="78.2" class="st1" width="25.7" height="18.5"/>
	<path class="st2" d="M100.4,83.7H20.4c-2.4,0-4.5-2-4.5-4.5v-50c0-2.4,2-4.5,4.5-4.5h79.9c2.4,0,4.5,2,4.5,4.5v50
		C104.8,81.7,102.8,83.7,100.4,83.7z"/>
	<rect x="22.1" y="30.4" class="st3" width="76.5" height="47.8"/>
	<rect x="48.5" y="91.1" class="st2" width="27.3" height="5.1"/>
	<path class="st4" d="M60.4,16.8c-7.8,0-14.1,6.3-14.1,14.1v20.8h28.3V30.9C74.6,23.1,68.2,16.8,60.4,16.8z"/>
	<rect x="37.3" y="35.4" class="st2" width="46.2" height="30.3"/>
	<rect x="70.3" y="35.4" class="st1" width="13.2" height="30.3"/>
	<rect x="44.5" y="41.4" class="st5" width="15.9" height="11.7"/>
	<circle class="st5" cx="52.4" cy="53.1" r="8"/>
</g>
</svg>