<?xml version="1.0" encoding="utf-8"?>
<!-- Generator: Adobe Illustrator 19.0.0, SVG Export Plug-In . SVG Version: 6.00 Build 0)  -->
<svg version="1.1" id="Layer_1" xmlns="http://www.w3.org/2000/svg" xmlns:xlink="http://www.w3.org/1999/xlink" x="0px" y="0px"
	 viewBox="0 0 326.7 181.5" style="enable-background:new 0 0 326.7 181.5;" xml:space="preserve">
<style type="text/css">
	.st0{fill:#F8981D;}
	.st1{fill:#FFFFFF;}
</style>
<rect id="XMLID_3_" x="49.9" y="163.2" class="st0" width="237.5" height="17.3"/>
<circle class="st0" cx="287.4" cy="142.2" r="39.3"/>
<circle class="st0" cx="237.3" cy="90.7" r="79.5"/>
<circle class="st0" cx="57" cy="123.9" r="57"/>
<circle class="st0" cx="146.6" cy="90.7" r="90.7"/>
<g id="XMLID_206_">
	<path id="XMLID_207_" class="st1" d="M75.8,55.6l0-0.2c0.4-0.9,1-2,1.8-3.3h0.9c-0.6,1.5-1.1,2.7-1.4,3.4H75.8z M78.4,55.6
		l-0.1-0.2c0.4-0.8,1-1.9,1.9-3.3h0.9c-0.7,1.6-1.1,2.7-1.4,3.4H78.4z"/>
	<path id="XMLID_211_" class="st1" d="M83.3,62.2H82l1.9-8.9h-2.7l0.2-1.1h6.7l-0.2,1.1h-2.7L83.3,62.2z"/>
	<path id="XMLID_213_" class="st1" d="M94.2,57.5c0,0.9-0.2,1.7-0.5,2.4c-0.3,0.8-0.8,1.3-1.3,1.8c-0.6,0.4-1.2,0.6-1.9,0.6
		c-0.9,0-1.6-0.3-2.1-0.8s-0.7-1.2-0.7-2.1c0-0.9,0.2-1.7,0.5-2.5s0.8-1.4,1.3-1.8c0.6-0.4,1.2-0.6,1.9-0.6c0.9,0,1.6,0.3,2.1,0.8
		C93.9,55.9,94.2,56.6,94.2,57.5z M92.9,57.4c0-0.5-0.1-0.9-0.4-1.3c-0.3-0.3-0.6-0.5-1.1-0.5c-0.5,0-0.9,0.2-1.3,0.5
		s-0.7,0.8-0.9,1.4c-0.2,0.6-0.3,1.2-0.3,2c0,0.6,0.1,1,0.4,1.3c0.3,0.3,0.7,0.5,1.2,0.5c0.5,0,0.9-0.2,1.2-0.5
		c0.4-0.3,0.7-0.8,0.9-1.4C92.8,58.8,92.9,58.1,92.9,57.4z M93.8,53.7H93c-0.3-0.2-0.6-0.6-1.1-1.3c-0.6,0.5-1.1,0.9-1.6,1.3h-0.8
		v-0.2c1.1-1,1.7-1.7,2-2.1h1.2c0.2,0.4,0.5,1,0.9,1.6l0.3,0.5V53.7z"/>
	<path id="XMLID_217_" class="st1" d="M96.4,62.2h-1.2l1.6-7.5H98L96.4,62.2z M97.1,52.8c0-0.3,0.1-0.5,0.2-0.6
		c0.2-0.2,0.4-0.3,0.6-0.3c0.4,0,0.6,0.2,0.6,0.6c0,0.3-0.1,0.5-0.2,0.7c-0.2,0.2-0.3,0.3-0.6,0.3c-0.2,0-0.4-0.1-0.5-0.2
		C97.2,53.2,97.1,53,97.1,52.8z"/>
	<path id="XMLID_220_" class="st1" d="M107.1,60c0,0.7-0.3,1.3-0.8,1.7c-0.5,0.4-1.2,0.6-2.1,0.6c-0.8,0-1.5-0.2-2.1-0.5v-1.1
		c0.3,0.2,0.6,0.3,1,0.4c0.4,0.1,0.7,0.2,1.1,0.2c0.6,0,1-0.1,1.3-0.3c0.3-0.2,0.4-0.5,0.4-0.9c0-0.3-0.1-0.5-0.2-0.6
		c-0.2-0.2-0.5-0.4-1-0.7c-0.6-0.3-1-0.7-1.2-1c-0.2-0.3-0.4-0.7-0.4-1.1c0-0.6,0.2-1.2,0.7-1.5c0.5-0.4,1.1-0.6,1.9-0.6
		c0.8,0,1.5,0.2,2.3,0.5l-0.4,1c-0.2-0.1-0.5-0.2-0.8-0.3c-0.3-0.1-0.7-0.1-1.1-0.1c-0.4,0-0.7,0.1-1,0.3c-0.2,0.2-0.4,0.4-0.4,0.7
		c0,0.3,0.1,0.5,0.2,0.6c0.2,0.2,0.5,0.4,1,0.7c0.5,0.3,0.9,0.6,1.1,0.7c0.2,0.2,0.3,0.4,0.4,0.6C107.1,59.5,107.1,59.7,107.1,60z"
		/>
	<path id="XMLID_222_" class="st1" d="M111.5,62.3c-0.8,0-1.5-0.3-2-0.7c-0.5-0.5-0.7-1.2-0.7-2.1c0-0.9,0.2-1.7,0.5-2.5
		c0.3-0.8,0.8-1.4,1.4-1.8c0.6-0.4,1.2-0.7,1.9-0.7c0.7,0,1.2,0.2,1.6,0.5c0.4,0.3,0.5,0.7,0.5,1.3c0,0.8-0.4,1.5-1.1,1.9
		c-0.8,0.5-1.8,0.7-3.2,0.7h-0.2l0,0.5c0,0.6,0.1,1,0.4,1.4c0.3,0.3,0.7,0.5,1.3,0.5c0.4,0,0.7,0,1-0.2c0.3-0.1,0.7-0.2,1-0.4v1.1
		c-0.5,0.2-0.8,0.4-1.2,0.4C112.2,62.3,111.9,62.3,111.5,62.3z M113.6,53.7c-0.2,0-0.4,0-0.5-0.1c-0.2-0.1-0.3-0.2-0.5-0.3
		c-0.2-0.1-0.3-0.2-0.5-0.3c-0.2-0.1-0.3-0.1-0.5-0.1c-0.2,0-0.4,0.1-0.5,0.2s-0.2,0.3-0.3,0.6h-0.7c0.3-1.2,0.8-1.8,1.6-1.8
		c0.2,0,0.4,0,0.6,0.1c0.2,0.1,0.4,0.2,0.5,0.3s0.3,0.2,0.5,0.3c0.1,0.1,0.3,0.1,0.4,0.1c0.2,0,0.3-0.1,0.5-0.2
		c0.1-0.1,0.2-0.3,0.3-0.6h0.7C114.9,53.1,114.4,53.7,113.6,53.7z M112.5,55.6c-0.5,0-0.9,0.2-1.3,0.7c-0.4,0.4-0.7,1-0.9,1.7h0.1
		c1,0,1.8-0.1,2.3-0.4s0.8-0.6,0.8-1.2c0-0.2-0.1-0.4-0.2-0.6S112.8,55.6,112.5,55.6z"/>
	<path id="XMLID_226_" class="st1" d="M121.5,58.3l-1.6-3.6h1.2l1.2,2.8l2.2-2.8h1.4l-3.1,3.7l1.7,3.8h-1.3l-1.3-2.9l-2.3,2.9h-1.4
		L121.5,58.3z"/>
	<path id="XMLID_228_" class="st1" d="M128.7,62.3c-0.8,0-1.5-0.3-2-0.7c-0.5-0.5-0.7-1.2-0.7-2.1c0-0.9,0.2-1.7,0.5-2.5
		c0.3-0.8,0.8-1.4,1.4-1.8c0.6-0.4,1.2-0.7,1.9-0.7c0.7,0,1.2,0.2,1.6,0.5c0.4,0.3,0.5,0.7,0.5,1.3c0,0.8-0.4,1.5-1.1,1.9
		c-0.8,0.5-1.8,0.7-3.2,0.7h-0.2l0,0.5c0,0.6,0.1,1,0.4,1.4c0.3,0.3,0.7,0.5,1.3,0.5c0.4,0,0.7,0,1-0.2c0.3-0.1,0.7-0.2,1-0.4v1.1
		c-0.5,0.2-0.8,0.4-1.2,0.4C129.5,62.3,129.1,62.3,128.7,62.3z M129.7,55.6c-0.5,0-0.9,0.2-1.3,0.7c-0.4,0.4-0.7,1-0.9,1.7h0.1
		c1,0,1.8-0.1,2.3-0.4s0.8-0.6,0.8-1.2c0-0.2-0.1-0.4-0.2-0.6S130.1,55.6,129.7,55.6z"/>
	<path id="XMLID_231_" class="st1" d="M137.7,54.6c0.5,0,0.9,0.1,1.2,0.4c0.3,0.3,0.4,0.7,0.5,1.2h0.1c0.8-1.1,1.6-1.7,2.6-1.7
		c0.6,0,1,0.2,1.3,0.5c0.3,0.3,0.5,0.8,0.5,1.4c0,0.4,0,0.8-0.2,1.2l-1,4.6h-1.2l1-4.7c0.1-0.4,0.1-0.8,0.1-1c0-0.3-0.1-0.5-0.2-0.7
		c-0.2-0.2-0.4-0.3-0.7-0.3c-0.4,0-0.7,0.1-1.1,0.4c-0.3,0.3-0.7,0.6-0.9,1.1c-0.3,0.5-0.5,1.1-0.6,1.7l-0.7,3.4h-1.2l1-4.7
		c0.1-0.4,0.1-0.7,0.1-0.9c0-0.7-0.3-1-0.9-1c-0.4,0-0.7,0.1-1.1,0.4s-0.7,0.7-0.9,1.2c-0.3,0.5-0.5,1.1-0.6,1.8l-0.7,3.2h-1.2
		l1.6-7.5h1l-0.2,1.4h0.1c0.3-0.4,0.6-0.7,0.8-0.9c0.2-0.2,0.5-0.3,0.7-0.5C137.1,54.6,137.4,54.6,137.7,54.6z"/>
	<path id="XMLID_233_" class="st1" d="M151,61.3c0.3,0,0.6-0.1,1-0.2v0.9c-0.1,0.1-0.3,0.1-0.5,0.2c-0.2,0-0.4,0.1-0.6,0.1
		c-0.6,0-1-0.1-1.3-0.4s-0.5-0.7-0.5-1.2c0-0.3,0-0.6,0.1-1l0.9-4.1h-1.2l0.1-0.6l1.3-0.5l0.9-1.6h0.7l-0.4,1.7h1.9l-0.2,0.9h-1.9
		l-0.9,4.1c-0.1,0.4-0.1,0.6-0.1,0.8c0,0.2,0.1,0.4,0.2,0.6C150.5,61.3,150.7,61.3,151,61.3z"/>
	<path id="XMLID_235_" class="st1" d="M159.1,62.2h-1.2l1-4.7c0.1-0.4,0.1-0.7,0.1-0.9c0-0.7-0.3-1-1-1c-0.4,0-0.8,0.1-1.2,0.4
		c-0.4,0.3-0.7,0.7-1,1.2c-0.3,0.5-0.5,1.1-0.6,1.8l-0.7,3.2h-1.2l2.3-10.6h1.2l-0.6,2.8c-0.1,0.3-0.1,0.6-0.2,0.9
		c-0.1,0.3-0.2,0.6-0.2,0.9h0.1c0.4-0.5,0.8-0.9,1.2-1.2c0.4-0.2,0.8-0.4,1.3-0.4c0.6,0,1.1,0.2,1.4,0.5c0.3,0.3,0.5,0.8,0.5,1.4
		c0,0.3,0,0.6-0.2,1.1L159.1,62.2z"/>
	<path id="XMLID_237_" class="st1" d="M164.4,62.3c-0.8,0-1.5-0.3-2-0.7c-0.5-0.5-0.7-1.2-0.7-2.1c0-0.9,0.2-1.7,0.5-2.5
		c0.3-0.8,0.8-1.4,1.4-1.8c0.6-0.4,1.2-0.7,1.9-0.7c0.7,0,1.2,0.2,1.6,0.5c0.4,0.3,0.5,0.7,0.5,1.3c0,0.8-0.4,1.5-1.1,1.9
		c-0.8,0.5-1.8,0.7-3.2,0.7h-0.2l0,0.5c0,0.6,0.1,1,0.4,1.4c0.3,0.3,0.7,0.5,1.3,0.5c0.4,0,0.7,0,1-0.2c0.3-0.1,0.7-0.2,1-0.4v1.1
		c-0.5,0.2-0.8,0.4-1.2,0.4C165.1,62.3,164.8,62.3,164.4,62.3z M165.3,55.6c-0.5,0-0.9,0.2-1.3,0.7c-0.4,0.4-0.7,1-0.9,1.7h0.1
		c1,0,1.8-0.1,2.3-0.4s0.8-0.6,0.8-1.2c0-0.2-0.1-0.4-0.2-0.6S165.7,55.6,165.3,55.6z M167.7,53.7h-0.8c-0.3-0.2-0.6-0.6-1.1-1.3
		c-0.6,0.5-1.1,0.9-1.6,1.3h-0.8v-0.2c1.1-1,1.7-1.7,2-2.1h1.2c0.2,0.4,0.5,1,0.9,1.6l0.3,0.5V53.7z"/>
	<path id="XMLID_241_" class="st1" d="M173.3,54.6c0.5,0,0.9,0.1,1.2,0.4c0.3,0.3,0.4,0.7,0.5,1.2h0.1c0.8-1.1,1.6-1.7,2.6-1.7
		c0.6,0,1,0.2,1.3,0.5c0.3,0.3,0.5,0.8,0.5,1.4c0,0.4,0,0.8-0.2,1.2l-1,4.6h-1.2l1-4.7c0.1-0.4,0.1-0.8,0.1-1c0-0.3-0.1-0.5-0.2-0.7
		c-0.2-0.2-0.4-0.3-0.7-0.3c-0.4,0-0.7,0.1-1.1,0.4c-0.3,0.3-0.7,0.6-0.9,1.1c-0.3,0.5-0.5,1.1-0.6,1.7l-0.7,3.4h-1.2l1-4.7
		c0.1-0.4,0.1-0.7,0.1-0.9c0-0.7-0.3-1-0.9-1c-0.4,0-0.7,0.1-1.1,0.4s-0.7,0.7-0.9,1.2c-0.3,0.5-0.5,1.1-0.6,1.8l-0.7,3.2h-1.2
		l1.6-7.5h1l-0.2,1.4h0.1c0.3-0.4,0.6-0.7,0.8-0.9c0.2-0.2,0.5-0.3,0.7-0.5C172.7,54.6,173,54.6,173.3,54.6z"/>
	<path id="XMLID_243_" class="st1" d="M186.4,61.3c0.5-1.1,0.9-2,1.2-2.4l2.2-4.1h1.3l-4.1,7.5h-1.6l-0.9-7.5h1.2l0.4,4.2
		c0,0.4,0.1,0.9,0.1,1.4C186.3,60.7,186.3,61.1,186.4,61.3L186.4,61.3z"/>
	<path id="XMLID_245_" class="st1" d="M193.1,62.3c-0.6,0-1.1-0.2-1.5-0.7s-0.5-1.1-0.5-1.9c0-0.9,0.2-1.8,0.5-2.6
		c0.3-0.8,0.8-1.4,1.3-1.9s1.2-0.7,1.9-0.7c0.4,0,0.8,0.1,1.1,0.3c0.3,0.2,0.6,0.5,0.8,1h0.1l0.4-1.2h0.9l-1.6,7.5h-1l0.2-1.4h-0.1
		C194.9,61.8,194,62.3,193.1,62.3z M193.5,61.3c0.4,0,0.9-0.2,1.3-0.6c0.4-0.4,0.8-0.9,1-1.6c0.3-0.7,0.4-1.3,0.4-2
		c0-0.4-0.1-0.8-0.4-1.1c-0.2-0.3-0.6-0.4-1-0.4c-0.5,0-0.9,0.2-1.3,0.6c-0.4,0.4-0.7,0.9-0.9,1.6s-0.3,1.3-0.3,2.1
		c0,0.5,0.1,0.9,0.3,1.1S193.1,61.3,193.5,61.3z M196.1,53.7h-0.8c-0.3-0.3-0.6-0.7-0.9-1.1s-0.5-0.8-0.6-1v-0.1h1.3
		c0.2,0.6,0.5,1.3,1,2.1V53.7z"/>
	<path id="XMLID_249_" class="st1" d="M200,62.2h-1.2l1.6-7.5h1.2L200,62.2z M200.7,52.8c0-0.3,0.1-0.5,0.2-0.6
		c0.2-0.2,0.4-0.3,0.6-0.3c0.4,0,0.6,0.2,0.6,0.6c0,0.3-0.1,0.5-0.2,0.7c-0.2,0.2-0.3,0.3-0.6,0.3c-0.2,0-0.4-0.1-0.5-0.2
		C200.7,53.2,200.7,53,200.7,52.8z"/>
	<path id="XMLID_252_" class="st1" d="M209.1,62.3c-0.9,0-1.6-0.2-2.1-0.7s-0.7-1.2-0.7-2.1c0-0.9,0.2-1.8,0.5-2.5
		c0.3-0.8,0.8-1.4,1.4-1.8s1.3-0.6,2-0.6c0.7,0,1.3,0.1,1.9,0.4l-0.3,1c-0.5-0.2-1-0.4-1.5-0.4c-0.5,0-1,0.2-1.4,0.5
		c-0.4,0.3-0.7,0.8-1,1.4s-0.3,1.3-0.3,2c0,0.6,0.1,1,0.4,1.3c0.3,0.3,0.7,0.5,1.2,0.5c0.3,0,0.6,0,0.9-0.1s0.6-0.2,0.9-0.3v1
		C210.4,62.2,209.8,62.3,209.1,62.3z"/>
	<path id="XMLID_254_" class="st1" d="M215.1,54.7l-1,4.7c-0.1,0.4-0.1,0.7-0.1,0.9c0,0.7,0.3,1,1,1c0.4,0,0.8-0.1,1.2-0.4
		c0.4-0.3,0.7-0.7,1-1.2c0.3-0.5,0.5-1.1,0.7-1.8l0.7-3.2h1.2l-0.2,0.9c0.4-0.1,0.7-0.3,0.9-0.6c0.2-0.3,0.4-0.8,0.5-1.4h1.3
		l0.1,0.2c-0.2,0.7-0.5,1.3-1,1.8c-0.5,0.5-1.2,0.8-2,0.9l-1.2,5.8h-1l0.2-1.4h-0.1c-0.4,0.5-0.8,0.9-1.2,1.2
		c-0.4,0.2-0.8,0.4-1.3,0.4c-0.6,0-1.1-0.2-1.4-0.5c-0.3-0.3-0.5-0.8-0.5-1.4c0-0.3,0-0.7,0.2-1.2l1-4.6H215.1z M218.8,51.8
		c0,0.4-0.1,0.7-0.4,0.9c-0.3,0.2-0.6,0.4-1,0.5l-0.2,0.7h-0.8l0.1-1.2c0.4-0.1,0.7-0.2,0.9-0.3c0.2-0.1,0.3-0.3,0.3-0.5
		c0-0.2-0.1-0.3-0.2-0.4c-0.1-0.1-0.3-0.1-0.6-0.1c-0.2,0-0.4,0-0.7,0.1v-0.7c0.2-0.1,0.5-0.1,0.8-0.1c0.5,0,0.9,0.1,1.2,0.3
		S218.8,51.5,218.8,51.8z"/>
	<path id="XMLID_257_" class="st1" d="M223.4,62.3c-0.6,0-1.1-0.2-1.5-0.7s-0.5-1.1-0.5-1.9c0-0.9,0.2-1.8,0.5-2.6
		c0.3-0.8,0.8-1.4,1.3-1.9s1.2-0.7,1.9-0.7c0.4,0,0.8,0.1,1.1,0.3c0.3,0.2,0.6,0.5,0.8,1h0.1l0.4-1.2h0.9l-1.6,7.5h-1l0.2-1.4h-0.1
		C225.2,61.8,224.3,62.3,223.4,62.3z M223.8,61.3c0.4,0,0.9-0.2,1.3-0.6c0.4-0.4,0.8-0.9,1-1.6c0.3-0.7,0.4-1.3,0.4-2
		c0-0.4-0.1-0.8-0.4-1.1c-0.2-0.3-0.6-0.4-1-0.4c-0.5,0-0.9,0.2-1.3,0.6c-0.4,0.4-0.7,0.9-0.9,1.6s-0.3,1.3-0.3,2.1
		c0,0.5,0.1,0.9,0.3,1.1S223.4,61.3,223.8,61.3z"/>
	<path id="XMLID_260_" class="st1" d="M238.5,62.2h-1.2l1-4.7c0.1-0.4,0.1-0.7,0.1-0.9c0-0.7-0.3-1-1-1c-0.4,0-0.8,0.1-1.2,0.4
		c-0.4,0.3-0.7,0.7-1,1.2c-0.3,0.5-0.5,1.1-0.6,1.8l-0.7,3.2h-1.2l2.3-10.6h1.2l-0.6,2.8c-0.1,0.3-0.1,0.6-0.2,0.9
		c-0.1,0.3-0.2,0.6-0.2,0.9h0.1c0.4-0.5,0.8-0.9,1.2-1.2c0.4-0.2,0.8-0.4,1.3-0.4c0.6,0,1.1,0.2,1.4,0.5c0.3,0.3,0.5,0.8,0.5,1.4
		c0,0.3,0,0.6-0.2,1.1L238.5,62.2z"/>
	<path id="XMLID_262_" class="st1" d="M243.1,62.3c-0.6,0-1.1-0.2-1.5-0.7s-0.5-1.1-0.5-1.9c0-0.9,0.2-1.8,0.5-2.6
		c0.3-0.8,0.8-1.4,1.3-1.9s1.2-0.7,1.9-0.7c0.4,0,0.8,0.1,1.1,0.3c0.3,0.2,0.6,0.5,0.8,1h0.1l0.4-1.2h0.9l-1.6,7.5h-1l0.2-1.4h-0.1
		C244.9,61.8,244,62.3,243.1,62.3z M243.5,61.3c0.4,0,0.9-0.2,1.3-0.6c0.4-0.4,0.8-0.9,1-1.6c0.3-0.7,0.4-1.3,0.4-2
		c0-0.4-0.1-0.8-0.4-1.1c-0.2-0.3-0.6-0.4-1-0.4c-0.5,0-0.9,0.2-1.3,0.6c-0.4,0.4-0.7,0.9-0.9,1.6s-0.3,1.3-0.3,2.1
		c0,0.5,0.1,0.9,0.3,1.1S243.1,61.3,243.5,61.3z M246.1,53.7h-0.8c-0.3-0.3-0.6-0.7-0.9-1.1s-0.5-0.8-0.6-1v-0.1h1.3
		c0.2,0.6,0.5,1.3,1,2.1V53.7z"/>
	<path id="XMLID_266_" class="st1" d="M254.5,62.2h-1.2l1-4.7c0.1-0.5,0.1-0.8,0.1-1c0-0.3-0.1-0.5-0.2-0.7
		c-0.2-0.2-0.4-0.3-0.8-0.3c-0.4,0-0.8,0.1-1.1,0.4c-0.4,0.3-0.7,0.7-1,1.2c-0.3,0.5-0.5,1.1-0.6,1.8l-0.7,3.2h-1.2l1.6-7.5h1
		l-0.2,1.4h0.1c0.3-0.4,0.6-0.7,0.8-0.9c0.2-0.2,0.5-0.4,0.8-0.5c0.3-0.1,0.6-0.2,0.9-0.2c0.6,0,1,0.2,1.4,0.5
		c0.3,0.3,0.5,0.8,0.5,1.4c0,0.4,0,0.8-0.2,1.2L254.5,62.2z"/>
	<path id="XMLID_268_" class="st1" d="M259.1,65.6c-0.9,0-1.6-0.2-2.3-0.5v-1.1c0.3,0.2,0.6,0.3,1.1,0.4s0.8,0.2,1.1,0.2
		c0.6,0,1.1-0.1,1.4-0.4c0.4-0.3,0.6-0.8,0.8-1.4l0.3-1.4l0.1-0.5h-0.1c-0.4,0.5-0.8,0.9-1.2,1.2c-0.4,0.2-0.8,0.4-1.2,0.4
		c-0.6,0-1.1-0.2-1.5-0.7s-0.5-1.1-0.5-1.9c0-1,0.2-1.9,0.5-2.7c0.3-0.8,0.8-1.4,1.3-1.9c0.6-0.4,1.2-0.7,1.9-0.7
		c0.9,0,1.5,0.4,1.9,1.3h0.1l0.5-1.2h0.9l-1.7,7.9c-0.2,1-0.6,1.7-1.1,2.2C260.8,65.3,260,65.6,259.1,65.6z M259.6,61.3
		c0.4,0,0.8-0.2,1.3-0.6s0.8-1,1-1.6c0.3-0.7,0.4-1.3,0.4-2c0-1-0.5-1.5-1.4-1.5c-0.5,0-0.9,0.2-1.3,0.6c-0.4,0.4-0.7,0.9-0.9,1.6
		c-0.2,0.7-0.3,1.4-0.3,2.1C258.4,60.8,258.8,61.3,259.6,61.3z"/>
	<path id="XMLID_271_" class="st1" d="M81.1,79h-1.2l1-4.7c0.1-0.5,0.1-0.8,0.1-1c0-0.3-0.1-0.5-0.2-0.7c-0.2-0.2-0.4-0.3-0.8-0.3
		c-0.4,0-0.8,0.1-1.1,0.4c-0.4,0.3-0.7,0.7-1,1.2c-0.3,0.5-0.5,1.1-0.6,1.8L76.5,79h-1.2l1.6-7.5h1l-0.2,1.4h0.1
		c0.3-0.4,0.6-0.7,0.8-0.9c0.2-0.2,0.5-0.4,0.8-0.5c0.3-0.1,0.6-0.2,0.9-0.2c0.6,0,1,0.2,1.4,0.5c0.3,0.3,0.5,0.8,0.5,1.4
		c0,0.4,0,0.8-0.2,1.2L81.1,79z"/>
	<path id="XMLID_273_" class="st1" d="M86.2,71.5l-1,4.7c-0.1,0.4-0.1,0.7-0.1,0.9c0,0.7,0.3,1,1,1c0.4,0,0.8-0.1,1.2-0.4
		c0.4-0.3,0.7-0.7,1-1.2c0.3-0.5,0.5-1.1,0.7-1.8l0.7-3.2h1.2l-0.2,0.9c0.4-0.1,0.7-0.3,0.9-0.6c0.2-0.3,0.4-0.8,0.5-1.4h1.3
		l0.1,0.2c-0.2,0.7-0.5,1.3-1,1.8c-0.5,0.5-1.2,0.8-2,0.9L89.1,79h-1l0.2-1.4h-0.1c-0.4,0.5-0.8,0.9-1.2,1.2
		c-0.4,0.2-0.8,0.4-1.3,0.4c-0.6,0-1.1-0.2-1.4-0.5c-0.3-0.3-0.5-0.8-0.5-1.4c0-0.3,0-0.7,0.2-1.2l1-4.6H86.2z M89.1,70.5
		c-0.2,0-0.4,0-0.5-0.1c-0.2-0.1-0.3-0.2-0.5-0.3c-0.2-0.1-0.3-0.2-0.5-0.3c-0.2-0.1-0.3-0.1-0.5-0.1c-0.2,0-0.4,0.1-0.5,0.2
		s-0.2,0.3-0.3,0.6h-0.7c0.3-1.2,0.8-1.8,1.6-1.8c0.2,0,0.4,0,0.6,0.1c0.2,0.1,0.3,0.2,0.5,0.3s0.3,0.2,0.5,0.3
		c0.1,0.1,0.3,0.1,0.4,0.1c0.2,0,0.3-0.1,0.5-0.2c0.1-0.1,0.2-0.3,0.3-0.6h0.7C90.4,69.9,89.9,70.5,89.1,70.5z"/>
	<path id="XMLID_276_" class="st1" d="M94.5,79.1c-0.6,0-1.1-0.2-1.5-0.7s-0.5-1.1-0.5-1.9c0-0.9,0.2-1.8,0.5-2.6
		c0.3-0.8,0.8-1.4,1.3-1.9s1.2-0.7,1.9-0.7c0.4,0,0.8,0.1,1.1,0.3c0.3,0.2,0.6,0.5,0.8,1h0.1l0.4-1.2h0.9L97.9,79h-1l0.2-1.4H97
		C96.2,78.6,95.4,79.1,94.5,79.1z M94.9,78.1c0.4,0,0.9-0.2,1.3-0.6c0.4-0.4,0.8-0.9,1-1.6c0.3-0.7,0.4-1.3,0.4-2
		c0-0.4-0.1-0.8-0.4-1.1c-0.2-0.3-0.6-0.4-1-0.4c-0.5,0-0.9,0.2-1.3,0.6c-0.4,0.4-0.7,0.9-0.9,1.6s-0.3,1.3-0.3,2.1
		c0,0.5,0.1,0.9,0.3,1.1S94.5,78.1,94.9,78.1z"/>
	<path id="XMLID_279_" class="st1" d="M108.6,71.4c0.3,0,0.6,0,0.8,0.1l-0.3,1.1c-0.3-0.1-0.5-0.1-0.7-0.1c-0.4,0-0.8,0.1-1.2,0.4
		c-0.4,0.3-0.7,0.6-0.9,1.1c-0.3,0.5-0.5,1-0.6,1.6L105,79h-1.2l1.6-7.5h1l-0.2,1.4h0.1c0.3-0.4,0.6-0.8,0.8-0.9s0.4-0.3,0.7-0.4
		C108,71.4,108.3,71.4,108.6,71.4z"/>
	<path id="XMLID_281_" class="st1" d="M116.2,74.3c0,0.9-0.2,1.7-0.5,2.4c-0.3,0.8-0.8,1.3-1.3,1.8c-0.6,0.4-1.2,0.6-1.9,0.6
		c-0.9,0-1.6-0.3-2.1-0.8s-0.7-1.2-0.7-2.1c0-0.9,0.2-1.7,0.5-2.5s0.8-1.4,1.3-1.8c0.6-0.4,1.2-0.6,1.9-0.6c0.9,0,1.6,0.3,2.1,0.8
		C115.9,72.7,116.2,73.4,116.2,74.3z M111.7,69.2c-0.4-0.3-0.8-0.8-1.2-1.4l0-0.2h1c0.2,0.5,0.5,1,0.8,1.4v0.2H111.7z M114.9,74.2
		c0-0.5-0.1-0.9-0.4-1.3c-0.3-0.3-0.6-0.5-1.1-0.5c-0.5,0-0.9,0.2-1.3,0.5s-0.7,0.8-0.9,1.4c-0.2,0.6-0.3,1.2-0.3,2
		c0,0.6,0.1,1,0.4,1.3c0.3,0.3,0.7,0.5,1.2,0.5c0.5,0,0.9-0.2,1.2-0.5c0.4-0.3,0.7-0.8,0.9-1.4C114.8,75.6,114.9,74.9,114.9,74.2z
		 M115.1,70.5c-0.4-0.3-0.8-0.6-1.3-1.1c-0.6,0.5-1.2,0.9-1.8,1.1h-0.6l0.1-0.2c0.8-0.7,1.4-1.3,1.8-1.8h1.3
		c0.1,0.2,0.2,0.5,0.4,0.9c0.2,0.3,0.4,0.7,0.6,0.9l0,0.2H115.1z"/>
	<path id="XMLID_286_" class="st1" d="M118.4,79h-1.2l1.6-7.5h1.2L118.4,79z M119.1,69.6c0-0.3,0.1-0.5,0.2-0.6
		c0.2-0.2,0.4-0.3,0.6-0.3c0.4,0,0.6,0.2,0.6,0.6c0,0.3-0.1,0.5-0.2,0.7c-0.2,0.2-0.3,0.3-0.6,0.3c-0.2,0-0.4-0.1-0.5-0.2
		C119.2,70,119.1,69.8,119.1,69.6z"/>
	<path id="XMLID_289_" class="st1" d="M129.4,71.4c0.5,0,0.9,0.1,1.2,0.4c0.3,0.3,0.4,0.7,0.5,1.2h0.1c0.8-1.1,1.6-1.7,2.6-1.7
		c0.6,0,1,0.2,1.3,0.5c0.3,0.3,0.5,0.8,0.5,1.4c0,0.4,0,0.8-0.2,1.2l-1,4.6h-1.2l1-4.7c0.1-0.4,0.1-0.8,0.1-1c0-0.3-0.1-0.5-0.2-0.7
		c-0.2-0.2-0.4-0.3-0.7-0.3c-0.4,0-0.7,0.1-1.1,0.4c-0.3,0.3-0.7,0.6-0.9,1.1c-0.3,0.5-0.5,1.1-0.6,1.7L130,79h-1.2l1-4.7
		c0.1-0.4,0.1-0.7,0.1-0.9c0-0.7-0.3-1-0.9-1c-0.4,0-0.7,0.1-1.1,0.4c-0.4,0.3-0.7,0.7-0.9,1.2c-0.3,0.5-0.5,1.1-0.6,1.8l-0.7,3.2
		h-1.2l1.6-7.5h1l-0.2,1.4h0.1c0.3-0.4,0.6-0.7,0.8-0.9c0.2-0.2,0.5-0.3,0.7-0.5C128.8,71.4,129.1,71.4,129.4,71.4z"/>
	<path id="XMLID_291_" class="st1" d="M140.7,71.4c1,0,1.7,0.3,2.2,1c0.4-0.2,0.6-0.4,0.8-0.7c0.2-0.3,0.4-0.8,0.4-1.3h1.3l0.1,0.2
		c-0.2,0.6-0.4,1.2-0.8,1.6c-0.4,0.4-0.9,0.7-1.5,1c0.2,0.4,0.2,0.8,0.2,1.3c0,0.9-0.2,1.7-0.5,2.4c-0.3,0.8-0.8,1.3-1.3,1.8
		c-0.6,0.4-1.2,0.6-1.9,0.6c-0.9,0-1.6-0.3-2.1-0.8s-0.7-1.2-0.7-2.1c0-0.9,0.2-1.7,0.5-2.5s0.8-1.4,1.3-1.8
		C139.4,71.6,140,71.4,140.7,71.4z M142.3,74.2c0-0.5-0.1-0.9-0.4-1.3c-0.3-0.3-0.6-0.5-1.1-0.5c-0.5,0-0.9,0.2-1.3,0.5
		s-0.7,0.8-0.9,1.4c-0.2,0.6-0.3,1.2-0.3,2c0,0.6,0.1,1,0.4,1.3c0.3,0.3,0.7,0.5,1.2,0.5c0.5,0,0.9-0.2,1.2-0.5
		c0.4-0.3,0.7-0.8,0.9-1.4C142.2,75.6,142.3,74.9,142.3,74.2z M140.3,70.3c0.2-0.3,0.5-0.6,0.8-1c0.3-0.4,0.6-0.8,0.8-1.1h1.4v0.1
		c-0.2,0.3-0.6,0.6-1,1.1c-0.5,0.4-0.9,0.8-1.2,1h-0.8V70.3z"/>
	<path id="XMLID_295_" class="st1" d="M145.9,79h-1.2l1.6-7.5h1.2L145.9,79z M146.6,69.6c0-0.3,0.1-0.5,0.2-0.6
		c0.2-0.2,0.4-0.3,0.6-0.3c0.4,0,0.6,0.2,0.6,0.6c0,0.3-0.1,0.5-0.2,0.7c-0.2,0.2-0.3,0.3-0.6,0.3c-0.2,0-0.4-0.1-0.5-0.2
		C146.6,70,146.6,69.8,146.6,69.6z"/>
	<path id="XMLID_298_" class="st1" d="M154.2,79.1c-0.6,0-1.1-0.2-1.5-0.7s-0.5-1.1-0.5-1.9c0-0.9,0.2-1.8,0.5-2.6s0.8-1.5,1.3-1.9
		c0.6-0.5,1.2-0.7,1.9-0.7c0.4,0,0.8,0.1,1.1,0.3c0.3,0.2,0.6,0.5,0.8,1h0.1l0.5-1.2h0.9l-2.3,10.9h-1.2l0.7-3.2
		c0.1-0.5,0.2-1,0.4-1.6h-0.1c-0.4,0.5-0.8,0.9-1.2,1.2C155.1,79,154.7,79.1,154.2,79.1z M154.6,78.1c0.4,0,0.8-0.2,1.3-0.6
		c0.4-0.4,0.8-0.9,1-1.6s0.4-1.3,0.4-2c0-0.5-0.1-0.8-0.4-1.1c-0.2-0.3-0.6-0.4-1-0.4c-0.4,0-0.9,0.2-1.2,0.6s-0.7,0.9-0.9,1.5
		c-0.2,0.7-0.4,1.4-0.4,2.1C153.4,77.6,153.8,78.1,154.6,78.1z"/>
	<path id="XMLID_301_" class="st1" d="M161.5,71.5h1.2l-1,4.7c-0.1,0.4-0.1,0.7-0.1,0.9c0,0.6,0.3,1,1,1c0.4,0,0.8-0.1,1.2-0.4
		c0.4-0.3,0.7-0.7,1-1.2c0.3-0.5,0.5-1.1,0.7-1.8l0.7-3.2h1.2l-1.6,7.5h-1l0.2-1.4h-0.1c-0.4,0.5-0.8,0.9-1.2,1.2
		c-0.4,0.2-0.8,0.4-1.3,0.4c-0.6,0-1-0.2-1.4-0.5c-0.3-0.3-0.5-0.8-0.5-1.4c0-0.3,0-0.7,0.2-1.2L161.5,71.5z"/>
	<path id="XMLID_303_" class="st1" d="M168.4,71.5h1.2l0.5,3.7c0,0.3,0.1,0.8,0.1,1.3c0,0.5,0.1,1,0.1,1.5h0
		c0.1-0.3,0.3-0.7,0.5-1.2s0.4-0.9,0.6-1.2l2.2-4.1h1.3l-4.8,8.8c-0.4,0.8-0.8,1.3-1.3,1.6s-0.9,0.5-1.5,0.5c-0.4,0-0.7,0-1-0.1v-1
		c0.3,0.1,0.6,0.1,0.9,0.1c0.4,0,0.7-0.1,1-0.4c0.3-0.2,0.5-0.6,0.8-1l0.5-0.9L168.4,71.5z"/>
	<path id="XMLID_305_" class="st1" d="M177.7,79.1c-0.8,0-1.5-0.3-2-0.7c-0.5-0.5-0.7-1.2-0.7-2.1c0-0.9,0.2-1.7,0.5-2.5
		c0.3-0.8,0.8-1.4,1.4-1.8c0.6-0.4,1.2-0.7,1.9-0.7c0.7,0,1.2,0.2,1.6,0.5c0.4,0.3,0.5,0.7,0.5,1.3c0,0.8-0.4,1.5-1.1,1.9
		c-0.8,0.5-1.8,0.7-3.2,0.7h-0.2l0,0.5c0,0.6,0.1,1,0.4,1.4c0.3,0.3,0.7,0.5,1.3,0.5c0.4,0,0.7,0,1-0.2c0.3-0.1,0.7-0.2,1-0.4v1.1
		c-0.5,0.2-0.8,0.4-1.2,0.4C178.4,79.1,178,79.1,177.7,79.1z M178.6,72.4c-0.5,0-0.9,0.2-1.3,0.7c-0.4,0.4-0.7,1-0.9,1.7h0.1
		c1,0,1.8-0.1,2.3-0.4s0.8-0.6,0.8-1.2c0-0.2-0.1-0.4-0.2-0.6S179,72.4,178.6,72.4z M180.4,70.5c-0.4-0.3-0.8-0.6-1.3-1.1
		c-0.6,0.5-1.2,0.9-1.8,1.1h-0.6l0.1-0.2c0.8-0.7,1.4-1.3,1.8-1.8h1.3c0.1,0.2,0.2,0.5,0.4,0.9c0.2,0.3,0.4,0.7,0.6,0.9l0,0.2H180.4
		z M180.6,69.2V69c0.6-0.6,1-1.1,1.2-1.4h1.2v0.2c-0.2,0.2-0.5,0.4-0.8,0.7c-0.3,0.3-0.6,0.5-1,0.7H180.6z"/>
	<path id="XMLID_310_" class="st1" d="M184,78.1c0.3,0,0.6-0.1,1-0.2v0.9c-0.1,0.1-0.3,0.1-0.5,0.2c-0.2,0-0.4,0.1-0.6,0.1
		c-0.6,0-1-0.1-1.3-0.4S182,78,182,77.5c0-0.3,0-0.6,0.1-1l0.9-4.1h-1.2l0.1-0.6l1.3-0.5l0.9-1.6h0.7l-0.4,1.7h1.9l-0.2,0.9h-1.9
		l-0.9,4.1c-0.1,0.4-0.1,0.6-0.1,0.8c0,0.2,0.1,0.4,0.2,0.6C183.6,78.1,183.8,78.1,184,78.1z"/>
	<path id="XMLID_312_" class="st1" d="M193.8,71.4c0.4,0,0.8,0.1,1.1,0.3c0.3,0.2,0.6,0.5,0.8,0.9h0.1l0.1-0.6
		c0-0.2,0.1-0.7,0.3-1.5h-2.5l0.2-0.9h2.5l0.2-1.3h1.2l-0.3,1.3h1l-0.2,0.9h-1l-1.8,8.5h-1l0.2-1.4h-0.1c-0.5,0.6-0.9,0.9-1.3,1.2
		c-0.4,0.2-0.8,0.3-1.2,0.3c-0.6,0-1.1-0.2-1.5-0.7s-0.5-1.1-0.5-1.9c0-1,0.2-1.8,0.5-2.6c0.3-0.8,0.7-1.4,1.3-1.9
		C192.5,71.6,193.1,71.4,193.8,71.4z M192.7,78.1c0.4,0,0.8-0.2,1.3-0.6c0.4-0.4,0.8-1,1-1.6c0.3-0.6,0.4-1.3,0.4-2
		c0-0.5-0.1-0.9-0.4-1.1c-0.2-0.3-0.6-0.4-1-0.4s-0.9,0.2-1.3,0.6c-0.4,0.4-0.7,0.9-0.9,1.6c-0.2,0.7-0.3,1.4-0.3,2.1
		C191.5,77.6,191.9,78.1,192.7,78.1z"/>
	<path id="XMLID_315_" class="st1" d="M197.6,80.8c0-0.3,0.1-0.5,0.2-0.6c0.2-0.2,0.4-0.3,0.6-0.3c0.2,0,0.4,0.1,0.5,0.2
		s0.2,0.3,0.2,0.5c0,0.3-0.1,0.5-0.2,0.7c-0.2,0.2-0.3,0.3-0.6,0.3c-0.2,0-0.3-0.1-0.5-0.2S197.6,81,197.6,80.8z M199.3,79H198
		l1.6-7.5h1.2L199.3,79z M200,69.6c0-0.3,0.1-0.5,0.2-0.6c0.2-0.2,0.4-0.3,0.6-0.3c0.4,0,0.6,0.2,0.6,0.6c0,0.3-0.1,0.5-0.2,0.7
		c-0.2,0.2-0.3,0.3-0.6,0.3c-0.2,0-0.4-0.1-0.5-0.2C200,70,200,69.8,200,69.6z"/>
	<path id="XMLID_319_" class="st1" d="M207.4,79h-1.2l1-4.7c0.1-0.5,0.1-0.8,0.1-1c0-0.3-0.1-0.5-0.2-0.7c-0.2-0.2-0.4-0.3-0.8-0.3
		c-0.4,0-0.8,0.1-1.1,0.4c-0.4,0.3-0.7,0.7-1,1.2c-0.3,0.5-0.5,1.1-0.6,1.8l-0.7,3.2h-1.2l1.6-7.5h1l-0.2,1.4h0.1
		c0.3-0.4,0.6-0.7,0.8-0.9c0.2-0.2,0.5-0.4,0.8-0.5c0.3-0.1,0.6-0.2,0.9-0.2c0.6,0,1,0.2,1.4,0.5c0.3,0.3,0.5,0.8,0.5,1.4
		c0,0.4,0,0.8-0.2,1.2L207.4,79z"/>
	<path id="XMLID_504_" class="st1" d="M215.5,79h-1.2l1-4.7c0.1-0.4,0.1-0.7,0.1-0.9c0-0.7-0.3-1-1-1c-0.4,0-0.8,0.1-1.2,0.4
		c-0.4,0.3-0.7,0.7-1,1.2c-0.3,0.5-0.5,1.1-0.6,1.8L211,79h-1.2l2.3-10.6h1.2l-0.6,2.8c-0.1,0.3-0.1,0.6-0.2,0.9
		c-0.1,0.3-0.2,0.6-0.2,0.9h0.1c0.4-0.5,0.8-0.9,1.2-1.2c0.4-0.2,0.8-0.4,1.3-0.4c0.6,0,1.1,0.2,1.4,0.5c0.3,0.3,0.5,0.8,0.5,1.4
		c0,0.3,0,0.6-0.2,1.1L215.5,79z"/>
	<path id="XMLID_506_" class="st1" d="M217.7,78.5c0-0.3,0.1-0.6,0.3-0.8c0.2-0.2,0.5-0.3,0.8-0.3c0.2,0,0.4,0.1,0.5,0.2
		c0.1,0.1,0.2,0.3,0.2,0.6c0,0.3-0.1,0.6-0.3,0.8s-0.4,0.3-0.8,0.3c-0.2,0-0.4-0.1-0.5-0.2C217.8,78.9,217.7,78.7,217.7,78.5z"/>
	<path id="XMLID_508_" class="st1" d="M230.1,77.2l4.4-8.2h1.9l-2.1,10h-1.3l1.3-5.9c0.3-1.3,0.5-2.2,0.7-2.8h0l-4.8,8.8h-1
		l-1.1-8.8h-0.1c-0.1,0.7-0.2,1.6-0.5,2.8l-1.3,6h-1.2l2.1-10h1.8L230.1,77.2L230.1,77.2z"/>
	<path id="XMLID_510_" class="st1" d="M238.1,79h-1.2l1.6-7.5h1.2L238.1,79z M239.9,70.5h-0.8c-0.3-0.3-0.6-0.7-0.9-1.1
		s-0.5-0.8-0.6-1v-0.1h1.3c0.2,0.6,0.5,1.3,1,2.1V70.5z"/>
	<path id="XMLID_513_" class="st1" d="M246.3,79H245l1-4.7c0.1-0.5,0.1-0.8,0.1-1c0-0.3-0.1-0.5-0.2-0.7c-0.2-0.2-0.4-0.3-0.8-0.3
		c-0.4,0-0.8,0.1-1.1,0.4c-0.4,0.3-0.7,0.7-1,1.2c-0.3,0.5-0.5,1.1-0.6,1.8l-0.7,3.2h-1.2l1.6-7.5h1l-0.2,1.4h0.1
		c0.3-0.4,0.6-0.7,0.8-0.9c0.2-0.2,0.5-0.4,0.8-0.5c0.3-0.1,0.6-0.2,0.9-0.2c0.6,0,1,0.2,1.4,0.5c0.3,0.3,0.5,0.8,0.5,1.4
		c0,0.4,0,0.8-0.2,1.2L246.3,79z"/>
	<path id="XMLID_515_" class="st1" d="M254.4,79h-1.2l1-4.7c0.1-0.4,0.1-0.7,0.1-0.9c0-0.7-0.3-1-1-1c-0.4,0-0.8,0.1-1.2,0.4
		c-0.4,0.3-0.7,0.7-1,1.2c-0.3,0.5-0.5,1.1-0.6,1.8l-0.7,3.2h-1.2l2.3-10.6h1.2l-0.6,2.8c-0.1,0.3-0.1,0.6-0.2,0.9
		c-0.1,0.3-0.2,0.6-0.2,0.9h0.1c0.4-0.5,0.8-0.9,1.2-1.2c0.4-0.2,0.8-0.4,1.3-0.4c0.6,0,1.1,0.2,1.4,0.5c0.3,0.3,0.5,0.8,0.5,1.4
		c0,0.3,0,0.6-0.2,1.1L254.4,79z"/>
	<path id="XMLID_517_" class="st1" d="M263.4,79.1c-0.9,0-1.6-0.2-2.1-0.7s-0.7-1.2-0.7-2.1c0-0.9,0.2-1.8,0.5-2.5
		c0.3-0.8,0.8-1.4,1.4-1.8s1.3-0.6,2-0.6c0.7,0,1.3,0.1,1.9,0.4l-0.3,1c-0.5-0.2-1-0.4-1.5-0.4c-0.5,0-1,0.2-1.4,0.5
		c-0.4,0.3-0.7,0.8-1,1.4s-0.3,1.3-0.3,2c0,0.6,0.1,1,0.4,1.3c0.3,0.3,0.7,0.5,1.2,0.5c0.3,0,0.6,0,0.9-0.1s0.6-0.2,0.9-0.3v1
		C264.7,79,264.1,79.1,263.4,79.1z"/>
	<path id="XMLID_519_" class="st1" d="M273.5,74.3c0,0.9-0.2,1.7-0.5,2.4c-0.3,0.8-0.8,1.3-1.3,1.8c-0.6,0.4-1.2,0.6-1.9,0.6
		c-0.9,0-1.6-0.3-2.1-0.8s-0.7-1.2-0.7-2.1c0-0.9,0.2-1.7,0.5-2.5s0.8-1.4,1.3-1.8c0.6-0.4,1.2-0.6,1.9-0.6c0.9,0,1.6,0.3,2.1,0.8
		C273.2,72.7,273.5,73.4,273.5,74.3z M272.2,74.2c0-0.5-0.1-0.9-0.4-1.3c-0.3-0.3-0.6-0.5-1.1-0.5c-0.5,0-0.9,0.2-1.3,0.5
		s-0.7,0.8-0.9,1.4c-0.2,0.6-0.3,1.2-0.3,2c0,0.6,0.1,1,0.4,1.3c0.3,0.3,0.7,0.5,1.2,0.5c0.5,0,0.9-0.2,1.2-0.5
		c0.4-0.3,0.7-0.8,0.9-1.4C272.1,75.6,272.2,74.9,272.2,74.2z M270.3,70.3c0.2-0.3,0.5-0.6,0.8-1c0.3-0.4,0.6-0.8,0.8-1.1h1.4v0.1
		c-0.2,0.3-0.6,0.6-1,1.1c-0.5,0.4-0.9,0.8-1.2,1h-0.8V70.3z"/>
	<path id="XMLID_523_" class="st1" d="M81.1,95.8h-1.2l1-4.7c0.1-0.5,0.1-0.8,0.1-1c0-0.3-0.1-0.5-0.2-0.7c-0.2-0.2-0.4-0.3-0.8-0.3
		c-0.4,0-0.8,0.1-1.1,0.4c-0.4,0.3-0.7,0.7-1,1.2c-0.3,0.5-0.5,1.1-0.6,1.8l-0.7,3.2h-1.2l1.6-7.5h1l-0.2,1.4h0.1
		c0.3-0.4,0.6-0.7,0.8-0.9c0.2-0.2,0.5-0.4,0.8-0.5c0.3-0.1,0.6-0.2,0.9-0.2c0.6,0,1,0.2,1.4,0.5c0.3,0.3,0.5,0.8,0.5,1.4
		c0,0.4,0,0.8-0.2,1.2L81.1,95.8z"/>
	<path id="XMLID_525_" class="st1" d="M86.4,95.9c-0.8,0-1.5-0.3-2-0.7c-0.5-0.5-0.7-1.2-0.7-2.1c0-0.9,0.2-1.7,0.5-2.5
		c0.3-0.8,0.8-1.4,1.4-1.8c0.6-0.4,1.2-0.7,1.9-0.7c0.7,0,1.2,0.2,1.6,0.5c0.4,0.3,0.5,0.7,0.5,1.3c0,0.8-0.4,1.5-1.1,1.9
		c-0.8,0.5-1.8,0.7-3.2,0.7H85l0,0.5c0,0.6,0.1,1,0.4,1.4c0.3,0.3,0.7,0.5,1.3,0.5c0.4,0,0.7,0,1-0.2c0.3-0.1,0.7-0.2,1-0.4v1.1
		c-0.5,0.2-0.8,0.4-1.2,0.4C87.2,95.9,86.8,95.9,86.4,95.9z M87.4,89.2c-0.5,0-0.9,0.2-1.3,0.7c-0.4,0.4-0.7,1-0.9,1.7h0.1
		c1,0,1.8-0.1,2.3-0.4s0.8-0.6,0.8-1.2c0-0.2-0.1-0.4-0.2-0.6S87.7,89.2,87.4,89.2z M89.7,87.3h-0.8c-0.3-0.2-0.6-0.6-1.1-1.3
		c-0.6,0.5-1.1,0.9-1.6,1.3h-0.8v-0.2c1.1-1,1.7-1.7,2-2.1h1.2c0.2,0.4,0.5,1,0.9,1.6l0.3,0.5V87.3z"/>
	<path id="XMLID_529_" class="st1" d="M96.2,95.8H95l1-4.7c0.1-0.5,0.1-0.8,0.1-1c0-0.3-0.1-0.5-0.2-0.7c-0.2-0.2-0.4-0.3-0.8-0.3
		c-0.4,0-0.8,0.1-1.1,0.4c-0.4,0.3-0.7,0.7-1,1.2c-0.3,0.5-0.5,1.1-0.6,1.8l-0.7,3.2h-1.2l1.6-7.5h1l-0.2,1.4h0.1
		c0.3-0.4,0.6-0.7,0.8-0.9c0.2-0.2,0.5-0.4,0.8-0.5c0.3-0.1,0.6-0.2,0.9-0.2c0.6,0,1,0.2,1.4,0.5c0.3,0.3,0.5,0.8,0.5,1.4
		c0,0.4,0,0.8-0.2,1.2L96.2,95.8z"/>
	<path id="XMLID_531_" class="st1" d="M107.9,95.8h-1.2l1-4.7c0.1-0.4,0.1-0.7,0.1-0.9c0-0.7-0.3-1-1-1c-0.4,0-0.8,0.1-1.2,0.4
		c-0.4,0.3-0.7,0.7-1,1.2c-0.3,0.5-0.5,1.1-0.6,1.8l-0.7,3.2h-1.2l2.3-10.6h1.2l-0.6,2.8c-0.1,0.3-0.1,0.6-0.2,0.9
		c-0.1,0.3-0.2,0.6-0.2,0.9h0.1c0.4-0.5,0.8-0.9,1.2-1.2c0.4-0.2,0.8-0.4,1.3-0.4c0.6,0,1.1,0.2,1.4,0.5c0.3,0.3,0.5,0.8,0.5,1.4
		c0,0.3,0,0.6-0.2,1.1L107.9,95.8z"/>
	<path id="XMLID_533_" class="st1" d="M117.1,91.1c0,0.9-0.2,1.7-0.5,2.4c-0.3,0.8-0.8,1.3-1.3,1.8c-0.6,0.4-1.2,0.6-1.9,0.6
		c-0.9,0-1.6-0.3-2.1-0.8s-0.7-1.2-0.7-2.1c0-0.9,0.2-1.7,0.5-2.5s0.8-1.4,1.3-1.8c0.6-0.4,1.2-0.6,1.9-0.6c0.9,0,1.6,0.3,2.1,0.8
		C116.8,89.5,117.1,90.2,117.1,91.1z M115.8,91c0-0.5-0.1-0.9-0.4-1.3c-0.3-0.3-0.6-0.5-1.1-0.5c-0.5,0-0.9,0.2-1.3,0.5
		s-0.7,0.8-0.9,1.4c-0.2,0.6-0.3,1.2-0.3,2c0,0.6,0.1,1,0.4,1.3c0.3,0.3,0.7,0.5,1.2,0.5c0.5,0,0.9-0.2,1.2-0.5
		c0.4-0.3,0.7-0.8,0.9-1.4C115.7,92.4,115.8,91.7,115.8,91z M116.4,85.4c0,0.4-0.1,0.7-0.4,0.9c-0.3,0.2-0.6,0.4-1,0.5l-0.2,0.7H114
		l0.1-1.2c0.4-0.1,0.7-0.2,0.9-0.3c0.2-0.1,0.3-0.3,0.3-0.5c0-0.2-0.1-0.3-0.2-0.4c-0.1-0.1-0.3-0.1-0.6-0.1c-0.2,0-0.4,0-0.7,0.1
		v-0.7c0.2-0.1,0.5-0.1,0.8-0.1c0.5,0,0.9,0.1,1.2,0.3S116.4,85.1,116.4,85.4z"/>
	<path id="XMLID_537_" class="st1" d="M119.4,95.8h-1.2l1.6-7.5h1.2L119.4,95.8z M120,86.4c0-0.3,0.1-0.5,0.2-0.6
		c0.2-0.2,0.4-0.3,0.6-0.3c0.4,0,0.6,0.2,0.6,0.6c0,0.3-0.1,0.5-0.2,0.7c-0.2,0.2-0.3,0.3-0.6,0.3c-0.2,0-0.4-0.1-0.5-0.2
		C120.1,86.8,120,86.6,120,86.4z"/>
	<path id="XMLID_540_" class="st1" d="M125.7,88.3h1.2l0.5,3.7c0,0.3,0.1,0.8,0.1,1.3c0,0.5,0.1,1,0.1,1.5h0
		c0.1-0.3,0.3-0.7,0.5-1.2c0.2-0.5,0.4-0.9,0.6-1.2l2.2-4.1h1.3l-4.8,8.8c-0.4,0.8-0.8,1.3-1.3,1.6s-0.9,0.5-1.5,0.5
		c-0.4,0-0.7,0-1-0.1v-1c0.3,0.1,0.6,0.1,0.9,0.1c0.4,0,0.7-0.1,1-0.4c0.3-0.2,0.5-0.6,0.8-1l0.5-0.9L125.7,88.3z M128.4,87.1
		c0.2-0.3,0.5-0.6,0.8-1c0.3-0.4,0.6-0.8,0.8-1.1h1.4v0.1c-0.2,0.3-0.6,0.6-1,1.1c-0.5,0.4-0.9,0.8-1.2,1h-0.8V87.1z"/>
	<path id="XMLID_543_" class="st1" d="M141,88.3h1.5l-3.2,3.2l2,4.3h-1.4l-1.6-3.5l-1,0.8l-0.6,2.7h-1.3l2.3-10.6h1.2
		c-0.4,1.9-0.7,3.3-0.9,4.3c-0.2,1-0.4,1.8-0.6,2.4h0L141,88.3z"/>
	<path id="XMLID_545_" class="st1" d="M143.7,95.8h-1.2l1.6-7.5h1.2L143.7,95.8z M144.4,86.4c0-0.3,0.1-0.5,0.2-0.6
		c0.2-0.2,0.4-0.3,0.6-0.3c0.4,0,0.6,0.2,0.6,0.6c0,0.3-0.1,0.5-0.2,0.7c-0.2,0.2-0.3,0.3-0.6,0.3c-0.2,0-0.4-0.1-0.5-0.2
		C144.5,86.8,144.4,86.6,144.4,86.4z"/>
	<path id="XMLID_548_" class="st1" d="M149.1,95.9c-0.8,0-1.5-0.3-2-0.7c-0.5-0.5-0.7-1.2-0.7-2.1c0-0.9,0.2-1.7,0.5-2.5
		c0.3-0.8,0.8-1.4,1.4-1.8c0.6-0.4,1.2-0.7,1.9-0.7c0.7,0,1.2,0.2,1.6,0.5c0.4,0.3,0.5,0.7,0.5,1.3c0,0.8-0.4,1.5-1.1,1.9
		c-0.8,0.5-1.8,0.7-3.2,0.7h-0.2l0,0.5c0,0.6,0.1,1,0.4,1.4c0.3,0.3,0.7,0.5,1.3,0.5c0.4,0,0.7,0,1-0.2c0.3-0.1,0.7-0.2,1-0.4v1.1
		c-0.5,0.2-0.8,0.4-1.2,0.4C149.8,95.9,149.5,95.9,149.1,95.9z M150.1,89.2c-0.5,0-0.9,0.2-1.3,0.7c-0.4,0.4-0.7,1-0.9,1.7h0.1
		c1,0,1.8-0.1,2.3-0.4s0.8-0.6,0.8-1.2c0-0.2-0.1-0.4-0.2-0.6S150.4,89.2,150.1,89.2z M151.8,87.3c-0.4-0.3-0.8-0.6-1.3-1.1
		c-0.6,0.5-1.2,0.9-1.8,1.1h-0.6l0.1-0.2c0.8-0.7,1.4-1.3,1.8-1.8h1.3c0.1,0.2,0.2,0.5,0.4,0.9c0.2,0.3,0.4,0.7,0.6,0.9l0,0.2H151.8
		z M152,86v-0.2c0.6-0.6,1-1.1,1.2-1.4h1.2v0.2c-0.2,0.2-0.5,0.4-0.8,0.7c-0.3,0.3-0.6,0.5-1,0.7H152z"/>
	<path id="XMLID_553_" class="st1" d="M158.9,95.8h-1.2l1-4.7c0.1-0.5,0.1-0.8,0.1-1c0-0.3-0.1-0.5-0.2-0.7
		c-0.2-0.2-0.4-0.3-0.8-0.3c-0.4,0-0.8,0.1-1.1,0.4c-0.4,0.3-0.7,0.7-1,1.2c-0.3,0.5-0.5,1.1-0.6,1.8l-0.7,3.2h-1.2l1.6-7.5h1
		l-0.2,1.4h0.1c0.3-0.4,0.6-0.7,0.8-0.9c0.2-0.2,0.5-0.4,0.8-0.5c0.3-0.1,0.6-0.2,0.9-0.2c0.6,0,1,0.2,1.4,0.5
		c0.3,0.3,0.5,0.8,0.5,1.4c0,0.4,0,0.8-0.2,1.2L158.9,95.8z"/>
	<path id="XMLID_555_" class="st1" d="M170.6,95.8h-1.2l1-4.7c0.1-0.5,0.1-0.8,0.1-1c0-0.3-0.1-0.5-0.2-0.7
		c-0.2-0.2-0.4-0.3-0.8-0.3c-0.4,0-0.8,0.1-1.1,0.4c-0.4,0.3-0.7,0.7-1,1.2c-0.3,0.5-0.5,1.1-0.6,1.8l-0.7,3.2h-1.2l1.6-7.5h1
		l-0.2,1.4h0.1c0.3-0.4,0.6-0.7,0.8-0.9c0.2-0.2,0.5-0.4,0.8-0.5c0.3-0.1,0.6-0.2,0.9-0.2c0.6,0,1,0.2,1.4,0.5
		c0.3,0.3,0.5,0.8,0.5,1.4c0,0.4,0,0.8-0.2,1.2L170.6,95.8z"/>
	<path id="XMLID_557_" class="st1" d="M178.7,95.8h-1.2l1-4.7c0.1-0.4,0.1-0.7,0.1-0.9c0-0.7-0.3-1-1-1c-0.4,0-0.8,0.1-1.2,0.4
		c-0.4,0.3-0.7,0.7-1,1.2c-0.3,0.5-0.5,1.1-0.6,1.8l-0.7,3.2h-1.2l2.3-10.6h1.2l-0.6,2.8c-0.1,0.3-0.1,0.6-0.2,0.9
		c-0.1,0.3-0.2,0.6-0.2,0.9h0.1c0.4-0.5,0.8-0.9,1.2-1.2c0.4-0.2,0.8-0.4,1.3-0.4c0.6,0,1.1,0.2,1.4,0.5c0.3,0.3,0.5,0.8,0.5,1.4
		c0,0.3,0,0.6-0.2,1.1L178.7,95.8z"/>
	<path id="XMLID_559_" class="st1" d="M183.8,88.3l-1,4.7c-0.1,0.4-0.1,0.7-0.1,0.9c0,0.7,0.3,1,1,1c0.4,0,0.8-0.1,1.2-0.4
		c0.4-0.3,0.7-0.7,1-1.2c0.3-0.5,0.5-1.1,0.7-1.8l0.7-3.2h1.2l-0.2,0.9c0.4-0.1,0.7-0.3,0.9-0.6c0.2-0.3,0.4-0.8,0.5-1.4h1.3
		l0.1,0.2c-0.2,0.7-0.5,1.3-1,1.8c-0.5,0.5-1.2,0.8-2,0.9l-1.2,5.8h-1l0.2-1.4h-0.1c-0.4,0.5-0.8,0.9-1.2,1.2
		c-0.4,0.2-0.8,0.4-1.3,0.4c-0.6,0-1.1-0.2-1.4-0.5c-0.3-0.3-0.5-0.8-0.5-1.4c0-0.3,0-0.7,0.2-1.2l1-4.6H183.8z M186.7,87.3
		c-0.2,0-0.4,0-0.5-0.1c-0.2-0.1-0.3-0.2-0.5-0.3c-0.2-0.1-0.3-0.2-0.5-0.3c-0.2-0.1-0.3-0.1-0.5-0.1c-0.2,0-0.4,0.1-0.5,0.2
		s-0.2,0.3-0.3,0.6h-0.7c0.3-1.2,0.8-1.8,1.6-1.8c0.2,0,0.4,0,0.6,0.1c0.2,0.1,0.3,0.2,0.5,0.3s0.3,0.2,0.5,0.3
		c0.1,0.1,0.3,0.1,0.4,0.1c0.2,0,0.3-0.1,0.5-0.2c0.1-0.1,0.2-0.3,0.3-0.6h0.7C188,86.7,187.5,87.3,186.7,87.3z"/>
	<path id="XMLID_562_" class="st1" d="M195.6,95.8h-1.2l1-4.7c0.1-0.5,0.1-0.8,0.1-1c0-0.3-0.1-0.5-0.2-0.7
		c-0.2-0.2-0.4-0.3-0.8-0.3c-0.4,0-0.8,0.1-1.1,0.4c-0.4,0.3-0.7,0.7-1,1.2c-0.3,0.5-0.5,1.1-0.6,1.8l-0.7,3.2h-1.2l1.6-7.5h1
		l-0.2,1.4h0.1c0.3-0.4,0.6-0.7,0.8-0.9c0.2-0.2,0.5-0.4,0.8-0.5c0.3-0.1,0.6-0.2,0.9-0.2c0.6,0,1,0.2,1.4,0.5
		c0.3,0.3,0.5,0.8,0.5,1.4c0,0.4,0,0.8-0.2,1.2L195.6,95.8z"/>
	<path id="XMLID_564_" class="st1" d="M200.1,99.2c-0.9,0-1.6-0.2-2.3-0.5v-1.1c0.3,0.2,0.6,0.3,1.1,0.4s0.8,0.2,1.1,0.2
		c0.6,0,1.1-0.1,1.4-0.4c0.4-0.3,0.6-0.8,0.8-1.4l0.3-1.4l0.1-0.5h-0.1c-0.4,0.5-0.8,0.9-1.2,1.2c-0.4,0.2-0.8,0.4-1.2,0.4
		c-0.6,0-1.1-0.2-1.5-0.7s-0.5-1.1-0.5-1.9c0-1,0.2-1.9,0.5-2.7c0.3-0.8,0.8-1.4,1.3-1.9c0.6-0.4,1.2-0.7,1.9-0.7
		c0.9,0,1.5,0.4,1.9,1.3h0.1l0.5-1.2h0.9l-1.7,7.9c-0.2,1-0.6,1.7-1.1,2.2C201.8,98.9,201.1,99.2,200.1,99.2z M200.6,94.9
		c0.4,0,0.8-0.2,1.3-0.6s0.8-1,1-1.6c0.3-0.7,0.4-1.3,0.4-2c0-1-0.5-1.5-1.4-1.5c-0.5,0-0.9,0.2-1.3,0.6c-0.4,0.4-0.7,0.9-0.9,1.6
		c-0.2,0.7-0.3,1.4-0.3,2.1C199.4,94.4,199.8,94.9,200.6,94.9z"/>
	<path id="XMLID_567_" class="st1" d="M215.4,95.8h-1.2l1-4.7c0.1-0.5,0.1-0.8,0.1-1c0-0.3-0.1-0.5-0.2-0.7
		c-0.2-0.2-0.4-0.3-0.8-0.3c-0.4,0-0.8,0.1-1.1,0.4c-0.4,0.3-0.7,0.7-1,1.2c-0.3,0.5-0.5,1.1-0.6,1.8l-0.7,3.2h-1.2l1.6-7.5h1
		l-0.2,1.4h0.1c0.3-0.4,0.6-0.7,0.8-0.9c0.2-0.2,0.5-0.4,0.8-0.5c0.3-0.1,0.6-0.2,0.9-0.2c0.6,0,1,0.2,1.4,0.5
		c0.3,0.3,0.5,0.8,0.5,1.4c0,0.4,0,0.8-0.2,1.2L215.4,95.8z"/>
	<path id="XMLID_569_" class="st1" d="M220,99.2c-0.9,0-1.6-0.2-2.3-0.5v-1.1c0.3,0.2,0.6,0.3,1.1,0.4s0.8,0.2,1.1,0.2
		c0.6,0,1.1-0.1,1.4-0.4c0.4-0.3,0.6-0.8,0.8-1.4l0.3-1.4l0.1-0.5h-0.1c-0.4,0.5-0.8,0.9-1.2,1.2c-0.4,0.2-0.8,0.4-1.2,0.4
		c-0.6,0-1.1-0.2-1.5-0.7s-0.5-1.1-0.5-1.9c0-1,0.2-1.9,0.5-2.7c0.3-0.8,0.8-1.4,1.3-1.9c0.6-0.4,1.2-0.7,1.9-0.7
		c0.9,0,1.5,0.4,1.9,1.3h0.1l0.5-1.2h0.9l-1.7,7.9c-0.2,1-0.6,1.7-1.1,2.2C221.7,98.9,220.9,99.2,220,99.2z M220.5,94.9
		c0.4,0,0.8-0.2,1.3-0.6s0.8-1,1-1.6c0.3-0.7,0.4-1.3,0.4-2c0-1-0.5-1.5-1.4-1.5c-0.5,0-0.9,0.2-1.3,0.6c-0.4,0.4-0.7,0.9-0.9,1.6
		c-0.2,0.7-0.3,1.4-0.3,2.1C219.3,94.4,219.7,94.9,220.5,94.9z"/>
	<path id="XMLID_572_" class="st1" d="M228.6,88.3l-1,4.7c-0.1,0.4-0.1,0.7-0.1,0.9c0,0.7,0.3,1,1,1c0.4,0,0.8-0.1,1.2-0.4
		c0.4-0.3,0.7-0.7,1-1.2c0.3-0.5,0.5-1.1,0.7-1.8l0.7-3.2h1.2l-0.2,0.9c0.4-0.1,0.7-0.3,0.9-0.6c0.2-0.3,0.4-0.8,0.5-1.4h1.3
		l0.1,0.2c-0.2,0.7-0.5,1.3-1,1.8c-0.5,0.5-1.2,0.8-2,0.9l-1.2,5.8h-1l0.2-1.4h-0.1c-0.4,0.5-0.8,0.9-1.2,1.2
		c-0.4,0.2-0.8,0.4-1.3,0.4c-0.6,0-1.1-0.2-1.4-0.5c-0.3-0.3-0.5-0.8-0.5-1.4c0-0.3,0-0.7,0.2-1.2l1-4.6H228.6z"/>
	<path id="XMLID_574_" class="st1" d="M238.7,88.2c1,0,1.7,0.3,2.2,1c0.4-0.2,0.6-0.4,0.8-0.7c0.2-0.3,0.4-0.8,0.4-1.3h1.3l0.1,0.2
		c-0.2,0.6-0.4,1.2-0.8,1.6c-0.4,0.4-0.9,0.7-1.5,1c0.2,0.4,0.2,0.8,0.2,1.3c0,0.9-0.2,1.7-0.5,2.4c-0.3,0.8-0.8,1.3-1.3,1.8
		c-0.6,0.4-1.2,0.6-1.9,0.6c-0.9,0-1.6-0.3-2.1-0.8s-0.7-1.2-0.7-2.1c0-0.9,0.2-1.7,0.5-2.5s0.8-1.4,1.3-1.8
		C237.3,88.4,238,88.2,238.7,88.2z M240.2,91c0-0.5-0.1-0.9-0.4-1.3c-0.3-0.3-0.6-0.5-1.1-0.5c-0.5,0-0.9,0.2-1.3,0.5
		s-0.7,0.8-0.9,1.4c-0.2,0.6-0.3,1.2-0.3,2c0,0.6,0.1,1,0.4,1.3c0.3,0.3,0.7,0.5,1.2,0.5c0.5,0,0.9-0.2,1.2-0.5
		c0.4-0.3,0.7-0.8,0.9-1.4C240.1,92.4,240.2,91.7,240.2,91z M239.6,87.3h-0.8c-0.3-0.3-0.6-0.7-0.9-1.1s-0.5-0.8-0.6-1v-0.1h1.3
		c0.2,0.6,0.5,1.3,1,2.1V87.3z"/>
	<path id="XMLID_578_" class="st1" d="M243.8,95.8h-1.2l1.6-7.5h1.2L243.8,95.8z M244.5,86.4c0-0.3,0.1-0.5,0.2-0.6
		c0.2-0.2,0.4-0.3,0.6-0.3c0.4,0,0.6,0.2,0.6,0.6c0,0.3-0.1,0.5-0.2,0.7c-0.2,0.2-0.3,0.3-0.6,0.3c-0.2,0-0.4-0.1-0.5-0.2
		C244.6,86.8,244.5,86.6,244.5,86.4z"/>
	<path id="XMLID_581_" class="st1" d="M253.7,88.2c0.4,0,0.8,0.1,1.1,0.3c0.3,0.2,0.6,0.5,0.8,0.9h0.1l0.1-0.6
		c0-0.2,0.1-0.7,0.3-1.5h-2.5l0.2-0.9h2.5l0.2-1.3h1.2l-0.3,1.3h1l-0.2,0.9h-1l-1.8,8.5h-1l0.2-1.4h-0.1c-0.5,0.6-0.9,0.9-1.3,1.2
		c-0.4,0.2-0.8,0.3-1.2,0.3c-0.6,0-1.1-0.2-1.5-0.7s-0.5-1.1-0.5-1.9c0-1,0.2-1.8,0.5-2.6c0.3-0.8,0.7-1.4,1.3-1.9
		C252.4,88.4,253,88.2,253.7,88.2z M252.6,94.9c0.4,0,0.8-0.2,1.3-0.6c0.4-0.4,0.8-1,1-1.6c0.3-0.6,0.4-1.3,0.4-2
		c0-0.5-0.1-0.9-0.4-1.1c-0.2-0.3-0.6-0.4-1-0.4s-0.9,0.2-1.3,0.6c-0.4,0.4-0.7,0.9-0.9,1.6c-0.2,0.7-0.3,1.4-0.3,2.1
		C251.4,94.4,251.8,94.9,252.6,94.9z"/>
	<path id="XMLID_584_" class="st1" d="M260.2,95.9c-0.6,0-1.1-0.2-1.5-0.7s-0.5-1.1-0.5-1.9c0-0.9,0.2-1.8,0.5-2.6
		c0.3-0.8,0.8-1.4,1.3-1.9s1.2-0.7,1.9-0.7c0.4,0,0.8,0.1,1.1,0.3c0.3,0.2,0.6,0.5,0.8,1h0.1l0.4-1.2h0.9l-1.6,7.5h-1l0.2-1.4h-0.1
		C262,95.4,261.1,95.9,260.2,95.9z M260.6,94.9c0.4,0,0.9-0.2,1.3-0.6c0.4-0.4,0.8-0.9,1-1.6c0.3-0.7,0.4-1.3,0.4-2
		c0-0.4-0.1-0.8-0.4-1.1c-0.2-0.3-0.6-0.4-1-0.4c-0.5,0-0.9,0.2-1.3,0.6c-0.4,0.4-0.7,0.9-0.9,1.6s-0.3,1.3-0.3,2.1
		c0,0.5,0.1,0.9,0.3,1.1S260.3,94.9,260.6,94.9z M263.4,87.3c-0.2,0-0.4,0-0.5-0.1c-0.2-0.1-0.3-0.2-0.5-0.3
		c-0.2-0.1-0.3-0.2-0.5-0.3c-0.2-0.1-0.3-0.1-0.5-0.1c-0.2,0-0.4,0.1-0.5,0.2s-0.2,0.3-0.3,0.6h-0.7c0.3-1.2,0.8-1.8,1.6-1.8
		c0.2,0,0.4,0,0.6,0.1c0.2,0.1,0.4,0.2,0.5,0.3s0.3,0.2,0.5,0.3c0.1,0.1,0.3,0.1,0.4,0.1c0.2,0,0.3-0.1,0.5-0.2
		c0.1-0.1,0.2-0.3,0.3-0.6h0.7C264.7,86.7,264.2,87.3,263.4,87.3z"/>
	<path id="XMLID_588_" class="st1" d="M80.2,105c0.5,0,0.9,0.1,1.2,0.4c0.3,0.3,0.4,0.7,0.5,1.2H82c0.8-1.1,1.6-1.7,2.6-1.7
		c0.6,0,1,0.2,1.3,0.5c0.3,0.3,0.5,0.8,0.5,1.4c0,0.4,0,0.8-0.2,1.2l-1,4.6H84l1-4.7c0.1-0.4,0.1-0.8,0.1-1c0-0.3-0.1-0.5-0.2-0.7
		c-0.2-0.2-0.4-0.3-0.7-0.3c-0.4,0-0.7,0.1-1.1,0.4c-0.3,0.3-0.7,0.6-0.9,1.1c-0.3,0.5-0.5,1.1-0.6,1.7l-0.7,3.4h-1.2l1-4.7
		c0.1-0.4,0.1-0.7,0.1-0.9c0-0.7-0.3-1-0.9-1c-0.4,0-0.7,0.1-1.1,0.4s-0.7,0.7-0.9,1.2c-0.3,0.5-0.5,1.1-0.6,1.8l-0.7,3.2h-1.2
		l1.6-7.5h1l-0.2,1.4h0.1c0.3-0.4,0.6-0.7,0.8-0.9c0.2-0.2,0.5-0.3,0.7-0.5C79.6,105,79.9,105,80.2,105z"/>
	<path id="XMLID_590_" class="st1" d="M89.1,105.1h1.2l-1,4.7c-0.1,0.4-0.1,0.7-0.1,0.9c0,0.6,0.3,1,1,1c0.4,0,0.8-0.1,1.2-0.4
		c0.4-0.3,0.7-0.7,1-1.2c0.3-0.5,0.5-1.1,0.7-1.8l0.7-3.2h1.2l-1.6,7.5h-1l0.2-1.4h-0.1c-0.4,0.5-0.8,0.9-1.2,1.2
		c-0.4,0.2-0.8,0.4-1.3,0.4c-0.6,0-1-0.2-1.4-0.5c-0.3-0.3-0.5-0.8-0.5-1.4c0-0.3,0-0.7,0.2-1.2L89.1,105.1z"/>
	<path id="XMLID_592_" class="st1" d="M98,112.7c-0.6,0-1.1-0.2-1.5-0.7s-0.5-1.1-0.5-1.9c0-0.9,0.2-1.8,0.5-2.6
		c0.3-0.8,0.8-1.4,1.3-1.9s1.2-0.7,1.9-0.7c0.4,0,0.8,0.1,1.1,0.3c0.3,0.2,0.6,0.5,0.8,1h0.1l0.4-1.2h0.9l-1.6,7.5h-1l0.2-1.4h-0.1
		C99.7,112.2,98.9,112.7,98,112.7z M98.4,111.7c0.4,0,0.9-0.2,1.3-0.6c0.4-0.4,0.8-0.9,1-1.6c0.3-0.7,0.4-1.3,0.4-2
		c0-0.4-0.1-0.8-0.4-1.1c-0.2-0.3-0.6-0.4-1-0.4c-0.5,0-0.9,0.2-1.3,0.6c-0.4,0.4-0.7,0.9-0.9,1.6s-0.3,1.3-0.3,2.1
		c0,0.5,0.1,0.9,0.3,1.1S98,111.7,98.4,111.7z"/>
	<path id="XMLID_595_" class="st1" d="M113,112.6h-1.2l1-4.7c0.1-0.4,0.1-0.7,0.1-0.9c0-0.7-0.3-1-1-1c-0.4,0-0.8,0.1-1.2,0.4
		c-0.4,0.3-0.7,0.7-1,1.2c-0.3,0.5-0.5,1.1-0.6,1.8l-0.7,3.2h-1.2l2.3-10.6h1.2l-0.6,2.8c-0.1,0.3-0.1,0.6-0.2,0.9
		c-0.1,0.3-0.2,0.6-0.2,0.9h0.1c0.4-0.5,0.8-0.9,1.2-1.2c0.4-0.2,0.8-0.4,1.3-0.4c0.6,0,1.1,0.2,1.4,0.5c0.3,0.3,0.5,0.8,0.5,1.4
		c0,0.3,0,0.6-0.2,1.1L113,112.6z"/>
	<path id="XMLID_597_" class="st1" d="M117.7,112.7c-0.6,0-1.1-0.2-1.5-0.7s-0.5-1.1-0.5-1.9c0-0.9,0.2-1.8,0.5-2.6
		c0.3-0.8,0.8-1.4,1.3-1.9s1.2-0.7,1.9-0.7c0.4,0,0.8,0.1,1.1,0.3c0.3,0.2,0.6,0.5,0.8,1h0.1l0.4-1.2h0.9l-1.6,7.5h-1l0.2-1.4h-0.1
		C119.4,112.2,118.6,112.7,117.7,112.7z M118.1,111.7c0.4,0,0.9-0.2,1.3-0.6c0.4-0.4,0.8-0.9,1-1.6c0.3-0.7,0.4-1.3,0.4-2
		c0-0.4-0.1-0.8-0.4-1.1c-0.2-0.3-0.6-0.4-1-0.4c-0.5,0-0.9,0.2-1.3,0.6c-0.4,0.4-0.7,0.9-0.9,1.6s-0.3,1.3-0.3,2.1
		c0,0.5,0.1,0.9,0.3,1.1S117.7,111.7,118.1,111.7z M120.6,104.1h-0.8c-0.3-0.3-0.6-0.7-0.9-1.1s-0.5-0.8-0.6-1v-0.1h1.3
		c0.2,0.6,0.5,1.3,1,2.1V104.1z"/>
	<path id="XMLID_601_" class="st1" d="M129.1,112.6h-1.2l1-4.7c0.1-0.5,0.1-0.8,0.1-1c0-0.3-0.1-0.5-0.2-0.7
		c-0.2-0.2-0.4-0.3-0.8-0.3c-0.4,0-0.8,0.1-1.1,0.4c-0.4,0.3-0.7,0.7-1,1.2c-0.3,0.5-0.5,1.1-0.6,1.8l-0.7,3.2h-1.2l1.6-7.5h1
		l-0.2,1.4h0.1c0.3-0.4,0.6-0.7,0.8-0.9c0.2-0.2,0.5-0.4,0.8-0.5c0.3-0.1,0.6-0.2,0.9-0.2c0.6,0,1,0.2,1.4,0.5
		c0.3,0.3,0.5,0.8,0.5,1.4c0,0.4,0,0.8-0.2,1.2L129.1,112.6z"/>
	<path id="XMLID_603_" class="st1" d="M133.6,116c-0.9,0-1.6-0.2-2.3-0.5v-1.1c0.3,0.2,0.6,0.3,1.1,0.4s0.8,0.2,1.1,0.2
		c0.6,0,1.1-0.1,1.4-0.4c0.4-0.3,0.6-0.8,0.8-1.4l0.3-1.4l0.1-0.5h-0.1c-0.4,0.5-0.8,0.9-1.2,1.2c-0.4,0.2-0.8,0.4-1.2,0.4
		c-0.6,0-1.1-0.2-1.5-0.7s-0.5-1.1-0.5-1.9c0-1,0.2-1.9,0.5-2.7c0.3-0.8,0.8-1.4,1.3-1.9c0.6-0.4,1.2-0.7,1.9-0.7
		c0.9,0,1.5,0.4,1.9,1.3h0.1l0.5-1.2h0.9L137,113c-0.2,1-0.6,1.7-1.1,2.2C135.3,115.7,134.6,116,133.6,116z M134.1,111.7
		c0.4,0,0.8-0.2,1.3-0.6s0.8-1,1-1.6c0.3-0.7,0.4-1.3,0.4-2c0-1-0.5-1.5-1.4-1.5c-0.5,0-0.9,0.2-1.3,0.6c-0.4,0.4-0.7,0.9-0.9,1.6
		c-0.2,0.7-0.3,1.4-0.3,2.1C133,111.2,133.4,111.7,134.1,111.7z"/>
	<path id="XMLID_606_" class="st1" d="M145.5,111.7c0.3,0,0.6-0.1,1-0.2v0.9c-0.1,0.1-0.3,0.1-0.5,0.2c-0.2,0-0.4,0.1-0.6,0.1
		c-0.6,0-1-0.1-1.3-0.4s-0.5-0.7-0.5-1.2c0-0.3,0-0.6,0.1-1l0.9-4.1h-1.2l0.1-0.6l1.3-0.5l0.9-1.6h0.7l-0.4,1.7h1.9l-0.2,0.9h-1.9
		l-0.9,4.1c-0.1,0.4-0.1,0.6-0.1,0.8c0,0.2,0.1,0.4,0.2,0.6C145.1,111.7,145.3,111.7,145.5,111.7z"/>
	<path id="XMLID_608_" class="st1" d="M152.6,105c0.3,0,0.6,0,0.8,0.1l-0.3,1.1c-0.3-0.1-0.5-0.1-0.7-0.1c-0.4,0-0.8,0.1-1.2,0.4
		c-0.4,0.3-0.7,0.6-0.9,1.1c-0.3,0.5-0.5,1-0.6,1.6l-0.7,3.4h-1.2l1.6-7.5h1l-0.2,1.4h0.1c0.3-0.4,0.6-0.8,0.8-0.9s0.4-0.3,0.7-0.4
		C152.1,105,152.3,105,152.6,105z"/>
	<path id="XMLID_610_" class="st1" d="M156.7,112.7c-0.8,0-1.5-0.3-2-0.7c-0.5-0.5-0.7-1.2-0.7-2.1c0-0.9,0.2-1.7,0.5-2.5
		c0.3-0.8,0.8-1.4,1.4-1.8c0.6-0.4,1.2-0.7,1.9-0.7c0.7,0,1.2,0.2,1.6,0.5c0.4,0.3,0.5,0.7,0.5,1.3c0,0.8-0.4,1.5-1.1,1.9
		c-0.8,0.5-1.8,0.7-3.2,0.7h-0.2l0,0.5c0,0.6,0.1,1,0.4,1.4c0.3,0.3,0.7,0.5,1.3,0.5c0.4,0,0.7,0,1-0.2c0.3-0.1,0.7-0.2,1-0.4v1.1
		c-0.5,0.2-0.8,0.4-1.2,0.4C157.5,112.7,157.1,112.7,156.7,112.7z M157.7,106c-0.5,0-0.9,0.2-1.3,0.7c-0.4,0.4-0.7,1-0.9,1.7h0.1
		c1,0,1.8-0.1,2.3-0.4s0.8-0.6,0.8-1.2c0-0.2-0.1-0.4-0.2-0.6S158,106,157.7,106z M160,104.1h-0.8c-0.3-0.2-0.6-0.6-1.1-1.3
		c-0.6,0.5-1.1,0.9-1.6,1.3h-0.8v-0.2c1.1-1,1.7-1.7,2-2.1h1.2c0.2,0.4,0.5,1,0.9,1.6l0.3,0.5V104.1z"/>
	<path id="XMLID_614_" class="st1" d="M166.5,112.6h-1.2l1-4.7c0.1-0.5,0.1-0.8,0.1-1c0-0.3-0.1-0.5-0.2-0.7
		c-0.2-0.2-0.4-0.3-0.8-0.3c-0.4,0-0.8,0.1-1.1,0.4c-0.4,0.3-0.7,0.7-1,1.2c-0.3,0.5-0.5,1.1-0.6,1.8l-0.7,3.2h-1.2l1.6-7.5h1
		l-0.2,1.4h0.1c0.3-0.4,0.6-0.7,0.8-0.9c0.2-0.2,0.5-0.4,0.8-0.5c0.3-0.1,0.6-0.2,0.9-0.2c0.6,0,1,0.2,1.4,0.5
		c0.3,0.3,0.5,0.8,0.5,1.4c0,0.4,0,0.8-0.2,1.2L166.5,112.6z"/>
	<path id="XMLID_616_" class="st1" d="M174.8,111.7c0.3,0,0.6-0.1,1-0.2v0.9c-0.1,0.1-0.3,0.1-0.5,0.2c-0.2,0-0.4,0.1-0.6,0.1
		c-0.6,0-1-0.1-1.3-0.4s-0.5-0.7-0.5-1.2c0-0.3,0-0.6,0.1-1l0.9-4.1h-1.2l0.1-0.6l1.3-0.5l0.9-1.6h0.7l-0.4,1.7h1.9L177,106h-1.9
		l-0.9,4.1c-0.1,0.4-0.1,0.6-0.1,0.8c0,0.2,0.1,0.4,0.2,0.6C174.4,111.7,174.6,111.7,174.8,111.7z"/>
	<path id="XMLID_618_" class="st1" d="M181.9,105c0.3,0,0.6,0,0.8,0.1l-0.3,1.1c-0.3-0.1-0.5-0.1-0.7-0.1c-0.4,0-0.8,0.1-1.2,0.4
		c-0.4,0.3-0.7,0.6-0.9,1.1c-0.3,0.5-0.5,1-0.6,1.6l-0.7,3.4h-1.2l1.6-7.5h1l-0.2,1.4h0.1c0.3-0.4,0.6-0.8,0.8-0.9s0.4-0.3,0.7-0.4
		C181.4,105,181.6,105,181.9,105z"/>
	<path id="XMLID_620_" class="st1" d="M185,112.7c-0.6,0-1.1-0.2-1.5-0.7s-0.5-1.1-0.5-1.9c0-0.9,0.2-1.8,0.5-2.6
		c0.3-0.8,0.8-1.4,1.3-1.9s1.2-0.7,1.9-0.7c0.4,0,0.8,0.1,1.1,0.3c0.3,0.2,0.6,0.5,0.8,1h0.1l0.4-1.2h0.9l-1.6,7.5h-1l0.2-1.4h-0.1
		C186.7,112.2,185.9,112.7,185,112.7z M185.4,111.7c0.4,0,0.9-0.2,1.3-0.6c0.4-0.4,0.8-0.9,1-1.6c0.3-0.7,0.4-1.3,0.4-2
		c0-0.4-0.1-0.8-0.4-1.1c-0.2-0.3-0.6-0.4-1-0.4c-0.5,0-0.9,0.2-1.3,0.6c-0.4,0.4-0.7,0.9-0.9,1.6s-0.3,1.3-0.3,2.1
		c0,0.5,0.1,0.9,0.3,1.1S185,111.7,185.4,111.7z"/>
	<path id="XMLID_623_" class="st1" d="M196.4,112.6h-1.2l1-4.7c0.1-0.5,0.1-0.8,0.1-1c0-0.3-0.1-0.5-0.2-0.7
		c-0.2-0.2-0.4-0.3-0.8-0.3c-0.4,0-0.8,0.1-1.1,0.4c-0.4,0.3-0.7,0.7-1,1.2c-0.3,0.5-0.5,1.1-0.6,1.8l-0.7,3.2h-1.2l1.6-7.5h1
		l-0.2,1.4h0.1c0.3-0.4,0.6-0.7,0.8-0.9c0.2-0.2,0.5-0.4,0.8-0.5c0.3-0.1,0.6-0.2,0.9-0.2c0.6,0,1,0.2,1.4,0.5
		c0.3,0.3,0.5,0.8,0.5,1.4c0,0.4,0,0.8-0.2,1.2L196.4,112.6z"/>
	<path id="XMLID_625_" class="st1" d="M200.9,116c-0.9,0-1.6-0.2-2.3-0.5v-1.1c0.3,0.2,0.6,0.3,1.1,0.4s0.8,0.2,1.1,0.2
		c0.6,0,1.1-0.1,1.4-0.4c0.4-0.3,0.6-0.8,0.8-1.4l0.3-1.4l0.1-0.5h-0.1c-0.4,0.5-0.8,0.9-1.2,1.2c-0.4,0.2-0.8,0.4-1.2,0.4
		c-0.6,0-1.1-0.2-1.5-0.7s-0.5-1.1-0.5-1.9c0-1,0.2-1.9,0.5-2.7c0.3-0.8,0.8-1.4,1.3-1.9c0.6-0.4,1.2-0.7,1.9-0.7
		c0.9,0,1.5,0.4,1.9,1.3h0.1l0.5-1.2h0.9l-1.7,7.9c-0.2,1-0.6,1.7-1.1,2.2C202.6,115.7,201.9,116,200.9,116z M201.5,111.7
		c0.4,0,0.8-0.2,1.3-0.6s0.8-1,1-1.6c0.3-0.7,0.4-1.3,0.4-2c0-1-0.5-1.5-1.4-1.5c-0.5,0-0.9,0.2-1.3,0.6c-0.4,0.4-0.7,0.9-0.9,1.6
		c-0.2,0.7-0.3,1.4-0.3,2.1C200.3,111.2,200.7,111.7,201.5,111.7z"/>
	<path id="XMLID_628_" class="st1" d="M216.3,112.6H215l1-4.7c0.1-0.5,0.1-0.8,0.1-1c0-0.3-0.1-0.5-0.2-0.7
		c-0.2-0.2-0.4-0.3-0.8-0.3c-0.4,0-0.8,0.1-1.1,0.4c-0.4,0.3-0.7,0.7-1,1.2c-0.3,0.5-0.5,1.1-0.6,1.8l-0.7,3.2h-1.2l1.6-7.5h1
		l-0.2,1.4h0.1c0.3-0.4,0.6-0.7,0.8-0.9c0.2-0.2,0.5-0.4,0.8-0.5c0.3-0.1,0.6-0.2,0.9-0.2c0.6,0,1,0.2,1.4,0.5
		c0.3,0.3,0.5,0.8,0.5,1.4c0,0.4,0,0.8-0.2,1.2L216.3,112.6z"/>
	<path id="XMLID_630_" class="st1" d="M220.9,112.7c-0.6,0-1.1-0.2-1.5-0.7s-0.5-1.1-0.5-1.9c0-0.9,0.2-1.8,0.5-2.6
		c0.3-0.8,0.8-1.4,1.3-1.9s1.2-0.7,1.9-0.7c0.4,0,0.8,0.1,1.1,0.3c0.3,0.2,0.6,0.5,0.8,1h0.1l0.4-1.2h0.9l-1.6,7.5h-1l0.2-1.4h-0.1
		C222.6,112.2,221.8,112.7,220.9,112.7z M221.3,111.7c0.4,0,0.9-0.2,1.3-0.6c0.4-0.4,0.8-0.9,1-1.6c0.3-0.7,0.4-1.3,0.4-2
		c0-0.4-0.1-0.8-0.4-1.1c-0.2-0.3-0.6-0.4-1-0.4c-0.5,0-0.9,0.2-1.3,0.6c-0.4,0.4-0.7,0.9-0.9,1.6s-0.3,1.3-0.3,2.1
		c0,0.5,0.1,0.9,0.3,1.1S220.9,111.7,221.3,111.7z M223.8,104.1h-0.8c-0.3-0.3-0.6-0.7-0.9-1.1s-0.5-0.8-0.6-1v-0.1h1.3
		c0.2,0.6,0.5,1.3,1,2.1V104.1z"/>
	<path id="XMLID_634_" class="st1" d="M226.8,105.1h1.2l0.5,3.7c0,0.3,0.1,0.8,0.1,1.3c0,0.5,0.1,1,0.1,1.5h0
		c0.1-0.3,0.3-0.7,0.5-1.2s0.4-0.9,0.6-1.2l2.2-4.1h1.3l-4.8,8.8c-0.4,0.8-0.8,1.3-1.3,1.6s-0.9,0.5-1.5,0.5c-0.4,0-0.7,0-1-0.1v-1
		c0.3,0.1,0.6,0.1,0.9,0.1c0.4,0,0.7-0.1,1-0.4c0.3-0.2,0.5-0.6,0.8-1l0.5-0.9L226.8,105.1z"/>
	<path id="XMLID_636_" class="st1" d="M241.5,105c0.3,0,0.6,0,0.8,0.1l-0.3,1.1c-0.3-0.1-0.5-0.1-0.7-0.1c-0.4,0-0.8,0.1-1.2,0.4
		c-0.4,0.3-0.7,0.6-0.9,1.1c-0.3,0.5-0.5,1-0.6,1.6l-0.7,3.4h-1.2l1.6-7.5h1l-0.2,1.4h0.1c0.3-0.4,0.6-0.8,0.8-0.9s0.4-0.3,0.7-0.4
		C241,105,241.2,105,241.5,105z"/>
	<path id="XMLID_638_" class="st1" d="M249.1,107.9c0,0.9-0.2,1.7-0.5,2.4c-0.3,0.8-0.8,1.3-1.3,1.8c-0.6,0.4-1.2,0.6-1.9,0.6
		c-0.9,0-1.6-0.3-2.1-0.8s-0.7-1.2-0.7-2.1c0-0.9,0.2-1.7,0.5-2.5s0.8-1.4,1.3-1.8c0.6-0.4,1.2-0.6,1.9-0.6c0.9,0,1.6,0.3,2.1,0.8
		C248.9,106.3,249.1,107,249.1,107.9z M244.6,102.8c-0.4-0.3-0.8-0.8-1.2-1.4l0-0.2h1c0.2,0.5,0.5,1,0.8,1.4v0.2H244.6z
		 M247.8,107.8c0-0.5-0.1-0.9-0.4-1.3c-0.3-0.3-0.6-0.5-1.1-0.5c-0.5,0-0.9,0.2-1.3,0.5s-0.7,0.8-0.9,1.4c-0.2,0.6-0.3,1.2-0.3,2
		c0,0.6,0.1,1,0.4,1.3c0.3,0.3,0.7,0.5,1.2,0.5c0.5,0,0.9-0.2,1.2-0.5c0.4-0.3,0.7-0.8,0.9-1.4C247.7,109.2,247.8,108.5,247.8,107.8
		z M248.1,104.1c-0.4-0.3-0.8-0.6-1.3-1.1c-0.6,0.5-1.2,0.9-1.8,1.1h-0.6l0.1-0.2c0.8-0.7,1.4-1.3,1.8-1.8h1.3
		c0.1,0.2,0.2,0.5,0.4,0.9c0.2,0.3,0.4,0.7,0.6,0.9l0,0.2H248.1z"/>
	<path id="XMLID_643_" class="st1" d="M251.4,112.6h-1.2l1.6-7.5h1.2L251.4,112.6z M252.1,103.2c0-0.3,0.1-0.5,0.2-0.6
		c0.2-0.2,0.4-0.3,0.6-0.3c0.4,0,0.6,0.2,0.6,0.6c0,0.3-0.1,0.5-0.2,0.7c-0.2,0.2-0.3,0.3-0.6,0.3c-0.2,0-0.4-0.1-0.5-0.2
		C252.1,103.6,252.1,103.4,252.1,103.2z"/>
	<path id="XMLID_646_" class="st1" d="M80.8,121.9h1.5l-3.2,3.2l2,4.3h-1.4l-1.6-3.5l-1,0.8l-0.6,2.7h-1.3l2.3-10.6h1.2
		c-0.4,1.9-0.7,3.3-0.9,4.3c-0.2,1-0.4,1.8-0.6,2.4h0L80.8,121.9z"/>
	<path id="XMLID_648_" class="st1" d="M88,129.4h-1.2l1-4.7c0.1-0.4,0.1-0.7,0.1-0.9c0-0.7-0.3-1-1-1c-0.4,0-0.8,0.1-1.2,0.4
		c-0.4,0.3-0.7,0.7-1,1.2c-0.3,0.5-0.5,1.1-0.6,1.8l-0.7,3.2h-1.2l2.3-10.6h1.2l-0.6,2.8c-0.1,0.3-0.1,0.6-0.2,0.9
		c-0.1,0.3-0.2,0.6-0.2,0.9h0.1c0.4-0.5,0.8-0.9,1.2-1.2c0.4-0.2,0.8-0.4,1.3-0.4c0.6,0,1.1,0.2,1.4,0.5c0.3,0.3,0.5,0.8,0.5,1.4
		c0,0.3,0,0.6-0.2,1.1L88,129.4z"/>
	<path id="XMLID_650_" class="st1" d="M97.2,124.7c0,0.9-0.2,1.7-0.5,2.4c-0.3,0.8-0.8,1.3-1.3,1.8c-0.6,0.4-1.2,0.6-1.9,0.6
		c-0.9,0-1.6-0.3-2.1-0.8s-0.7-1.2-0.7-2.1c0-0.9,0.2-1.7,0.5-2.5s0.8-1.4,1.3-1.8c0.6-0.4,1.2-0.6,1.9-0.6c0.9,0,1.6,0.3,2.1,0.8
		C96.9,123.1,97.2,123.8,97.2,124.7z M95.9,124.6c0-0.5-0.1-0.9-0.4-1.3c-0.3-0.3-0.6-0.5-1.1-0.5c-0.5,0-0.9,0.2-1.3,0.5
		s-0.7,0.8-0.9,1.4c-0.2,0.6-0.3,1.2-0.3,2c0,0.6,0.1,1,0.4,1.3c0.3,0.3,0.7,0.5,1.2,0.5c0.5,0,0.9-0.2,1.2-0.5
		c0.4-0.3,0.7-0.8,0.9-1.4C95.8,126,95.9,125.3,95.9,124.6z M96.8,120.9h-0.8c-0.3-0.2-0.6-0.6-1.1-1.3c-0.6,0.5-1.1,0.9-1.6,1.3
		h-0.8v-0.2c1.1-1,1.7-1.7,2-2.1h1.2c0.2,0.4,0.5,1,0.9,1.6l0.3,0.5V120.9z"/>
	<path id="XMLID_654_" class="st1" d="M104,129.4h-1.2l1-4.7c0.1-0.5,0.1-0.8,0.1-1c0-0.3-0.1-0.5-0.2-0.7c-0.2-0.2-0.4-0.3-0.8-0.3
		c-0.4,0-0.8,0.1-1.1,0.4c-0.4,0.3-0.7,0.7-1,1.2c-0.3,0.5-0.5,1.1-0.6,1.8l-0.7,3.2h-1.2l1.6-7.5h1l-0.2,1.4h0.1
		c0.3-0.4,0.6-0.7,0.8-0.9c0.2-0.2,0.5-0.4,0.8-0.5c0.3-0.1,0.6-0.2,0.9-0.2c0.6,0,1,0.2,1.4,0.5c0.3,0.3,0.5,0.8,0.5,1.4
		c0,0.4,0,0.8-0.2,1.2L104,129.4z"/>
	<path id="XMLID_656_" class="st1" d="M108.5,132.8c-0.9,0-1.6-0.2-2.3-0.5v-1.1c0.3,0.2,0.6,0.3,1.1,0.4s0.8,0.2,1.1,0.2
		c0.6,0,1.1-0.1,1.4-0.4c0.4-0.3,0.6-0.8,0.8-1.4l0.3-1.4l0.1-0.5h-0.1c-0.4,0.5-0.8,0.9-1.2,1.2c-0.4,0.2-0.8,0.4-1.2,0.4
		c-0.6,0-1.1-0.2-1.5-0.7s-0.5-1.1-0.5-1.9c0-1,0.2-1.9,0.5-2.7c0.3-0.8,0.8-1.4,1.3-1.9c0.6-0.4,1.2-0.7,1.9-0.7
		c0.9,0,1.5,0.4,1.9,1.3h0.1l0.5-1.2h0.9l-1.7,7.9c-0.2,1-0.6,1.7-1.1,2.2C110.2,132.5,109.5,132.8,108.5,132.8z M109.1,128.5
		c0.4,0,0.8-0.2,1.3-0.6c0.4-0.4,0.8-1,1-1.6c0.3-0.7,0.4-1.3,0.4-2c0-1-0.5-1.5-1.4-1.5c-0.5,0-0.9,0.2-1.3,0.6
		c-0.4,0.4-0.7,0.9-0.9,1.6c-0.2,0.7-0.3,1.4-0.3,2.1C107.9,128,108.3,128.5,109.1,128.5z"/>
	<path id="XMLID_659_" class="st1" d="M123.9,129.4h-1.2l1-4.7c0.1-0.5,0.1-0.8,0.1-1c0-0.3-0.1-0.5-0.2-0.7
		c-0.2-0.2-0.4-0.3-0.8-0.3c-0.4,0-0.8,0.1-1.1,0.4c-0.4,0.3-0.7,0.7-1,1.2c-0.3,0.5-0.5,1.1-0.6,1.8l-0.7,3.2h-1.2l1.6-7.5h1
		l-0.2,1.4h0.1c0.3-0.4,0.6-0.7,0.8-0.9c0.2-0.2,0.5-0.4,0.8-0.5c0.3-0.1,0.6-0.2,0.9-0.2c0.6,0,1,0.2,1.4,0.5
		c0.3,0.3,0.5,0.8,0.5,1.4c0,0.4,0,0.8-0.2,1.2L123.9,129.4z"/>
	<path id="XMLID_661_" class="st1" d="M132,129.4h-1.2l1-4.7c0.1-0.4,0.1-0.7,0.1-0.9c0-0.7-0.3-1-1-1c-0.4,0-0.8,0.1-1.2,0.4
		c-0.4,0.3-0.7,0.7-1,1.2c-0.3,0.5-0.5,1.1-0.6,1.8l-0.7,3.2h-1.2l2.3-10.6h1.2l-0.6,2.8c-0.1,0.3-0.1,0.6-0.2,0.9
		c-0.1,0.3-0.2,0.6-0.2,0.9h0.1c0.4-0.5,0.8-0.9,1.2-1.2c0.4-0.2,0.8-0.4,1.3-0.4c0.6,0,1.1,0.2,1.4,0.5c0.3,0.3,0.5,0.8,0.5,1.4
		c0,0.3,0,0.6-0.2,1.1L132,129.4z"/>
	<path id="XMLID_663_" class="st1" d="M135.5,129.4h-1.2l1.6-7.5h1.2L135.5,129.4z M138.6,119c0,0.4-0.1,0.7-0.4,0.9
		c-0.3,0.2-0.6,0.4-1,0.5l-0.2,0.7h-0.8l0.1-1.2c0.4-0.1,0.7-0.2,0.9-0.3c0.2-0.1,0.3-0.3,0.3-0.5c0-0.2-0.1-0.3-0.2-0.4
		c-0.1-0.1-0.3-0.1-0.6-0.1c-0.2,0-0.4,0-0.7,0.1V118c0.2-0.1,0.5-0.1,0.8-0.1c0.5,0,0.9,0.1,1.2,0.3S138.6,118.7,138.6,119z"/>
	<path id="XMLID_666_" class="st1" d="M138.6,128.9c0-0.3,0.1-0.6,0.3-0.8c0.2-0.2,0.5-0.3,0.8-0.3c0.2,0,0.4,0.1,0.5,0.2
		c0.1,0.1,0.2,0.3,0.2,0.6c0,0.3-0.1,0.6-0.3,0.8s-0.4,0.3-0.8,0.3c-0.2,0-0.4-0.1-0.5-0.2C138.6,129.3,138.6,129.1,138.6,128.9z
		 M139.3,126.6c0.1-0.6,0.3-1.1,0.5-1.5s0.6-0.8,1.1-1.2c0.5-0.4,0.9-0.7,1.1-0.9c0.2-0.2,0.3-0.4,0.4-0.6c0.1-0.2,0.2-0.5,0.2-0.8
		c0-0.4-0.1-0.7-0.3-0.9c-0.2-0.2-0.6-0.3-1-0.3c-0.4,0-0.7,0.1-1,0.2c-0.3,0.1-0.7,0.3-1,0.4l-0.4-0.9c0.4-0.2,0.8-0.4,1.3-0.5
		c0.5-0.1,0.9-0.2,1.3-0.2c0.8,0,1.4,0.2,1.8,0.6c0.4,0.4,0.6,0.9,0.6,1.6c0,0.6-0.1,1.1-0.4,1.5c-0.3,0.5-0.8,1-1.6,1.5
		c-0.6,0.4-1,0.8-1.1,1c-0.2,0.2-0.3,0.6-0.4,1H139.3z"/>
	<path id="XMLID_669_" class="st1" d="M147.7,129.4l2.1-10h1.2l-1.9,8.9h3.8l-0.2,1.1H147.7z"/>
	<path id="XMLID_671_" class="st1" d="M156.6,129.5c-0.6,0-1.1-0.2-1.5-0.7s-0.5-1.1-0.5-1.9c0-0.9,0.2-1.8,0.5-2.6
		c0.3-0.8,0.8-1.4,1.3-1.9s1.2-0.7,1.9-0.7c0.4,0,0.8,0.1,1.1,0.3c0.3,0.2,0.6,0.5,0.8,1h0.1l0.4-1.2h0.9l-1.6,7.5h-1l0.2-1.4h-0.1
		C158.3,129,157.5,129.5,156.6,129.5z M157,128.5c0.4,0,0.9-0.2,1.3-0.6c0.4-0.4,0.8-0.9,1-1.6c0.3-0.7,0.4-1.3,0.4-2
		c0-0.4-0.1-0.8-0.4-1.1c-0.2-0.3-0.6-0.4-1-0.4c-0.5,0-0.9,0.2-1.3,0.6c-0.4,0.4-0.7,0.9-0.9,1.6s-0.3,1.3-0.3,2.1
		c0,0.5,0.1,0.9,0.3,1.1C156.3,128.4,156.6,128.5,157,128.5z M159.5,120.9h-0.8c-0.3-0.3-0.6-0.7-0.9-1.1s-0.5-0.8-0.6-1v-0.1h1.3
		c0.2,0.6,0.5,1.3,1,2.1V120.9z"/>
	<path id="XMLID_675_" class="st1" d="M167.1,121.8c0.5,0,0.9,0.1,1.2,0.4c0.3,0.3,0.4,0.7,0.5,1.2h0.1c0.8-1.1,1.6-1.7,2.6-1.7
		c0.6,0,1,0.2,1.3,0.5c0.3,0.3,0.5,0.8,0.5,1.4c0,0.4,0,0.8-0.2,1.2l-1,4.6h-1.2l1-4.7c0.1-0.4,0.1-0.8,0.1-1c0-0.3-0.1-0.5-0.2-0.7
		c-0.2-0.2-0.4-0.3-0.7-0.3c-0.4,0-0.7,0.1-1.1,0.4c-0.3,0.3-0.7,0.6-0.9,1.1c-0.3,0.5-0.5,1.1-0.6,1.7l-0.7,3.4h-1.2l1-4.7
		c0.1-0.4,0.1-0.7,0.1-0.9c0-0.7-0.3-1-0.9-1c-0.4,0-0.7,0.1-1.1,0.4s-0.7,0.7-0.9,1.2c-0.3,0.5-0.5,1.1-0.6,1.8l-0.7,3.2h-1.2
		l1.6-7.5h1l-0.2,1.4h0.1c0.3-0.4,0.6-0.7,0.8-0.9c0.2-0.2,0.5-0.3,0.7-0.5C166.5,121.8,166.8,121.8,167.1,121.8z"/>
	<path id="XMLID_677_" class="st1" d="M182.8,127.2c0,0.7-0.3,1.3-0.8,1.7c-0.5,0.4-1.2,0.6-2.1,0.6c-0.8,0-1.5-0.2-2.1-0.5v-1.1
		c0.3,0.2,0.6,0.3,1,0.4c0.4,0.1,0.7,0.2,1.1,0.2c0.6,0,1-0.1,1.3-0.3c0.3-0.2,0.4-0.5,0.4-0.9c0-0.3-0.1-0.5-0.2-0.6
		c-0.2-0.2-0.5-0.4-1-0.7c-0.6-0.3-1-0.7-1.2-1c-0.2-0.3-0.4-0.7-0.4-1.1c0-0.6,0.2-1.2,0.7-1.5c0.5-0.4,1.1-0.6,1.9-0.6
		c0.8,0,1.5,0.2,2.3,0.5l-0.4,1c-0.2-0.1-0.5-0.2-0.8-0.3c-0.3-0.1-0.7-0.1-1.1-0.1c-0.4,0-0.7,0.1-1,0.3c-0.2,0.2-0.4,0.4-0.4,0.7
		c0,0.3,0.1,0.5,0.2,0.6c0.2,0.2,0.5,0.4,1,0.7c0.5,0.3,0.9,0.6,1.1,0.7c0.2,0.2,0.3,0.4,0.4,0.6
		C182.7,126.7,182.8,126.9,182.8,127.2z"/>
	<path id="XMLID_679_" class="st1" d="M186.4,129.5c-0.6,0-1.1-0.2-1.5-0.7s-0.5-1.1-0.5-1.9c0-0.9,0.2-1.8,0.5-2.6
		c0.3-0.8,0.8-1.4,1.3-1.9s1.2-0.7,1.9-0.7c0.4,0,0.8,0.1,1.1,0.3c0.3,0.2,0.6,0.5,0.8,1h0.1l0.4-1.2h0.9l-1.6,7.5h-1l0.2-1.4H189
		C188.2,129,187.4,129.5,186.4,129.5z M186.9,128.5c0.4,0,0.9-0.2,1.3-0.6c0.4-0.4,0.8-0.9,1-1.6c0.3-0.7,0.4-1.3,0.4-2
		c0-0.4-0.1-0.8-0.4-1.1c-0.2-0.3-0.6-0.4-1-0.4c-0.5,0-0.9,0.2-1.3,0.6c-0.4,0.4-0.7,0.9-0.9,1.6s-0.3,1.3-0.3,2.1
		c0,0.5,0.1,0.9,0.3,1.1C186.2,128.4,186.5,128.5,186.9,128.5z"/>
	<path id="XMLID_682_" class="st1" d="M198.9,124.7c0,0.9-0.2,1.7-0.5,2.4c-0.3,0.8-0.8,1.3-1.3,1.8c-0.6,0.4-1.2,0.6-1.9,0.6
		c-0.9,0-1.6-0.3-2.1-0.8s-0.7-1.2-0.7-2.1c0-0.9,0.2-1.7,0.5-2.5s0.8-1.4,1.3-1.8c0.6-0.4,1.2-0.6,1.9-0.6c0.9,0,1.6,0.3,2.1,0.8
		C198.7,123.1,198.9,123.8,198.9,124.7z M197.7,124.6c0-0.5-0.1-0.9-0.4-1.3c-0.3-0.3-0.6-0.5-1.1-0.5c-0.5,0-0.9,0.2-1.3,0.5
		s-0.7,0.8-0.9,1.4c-0.2,0.6-0.3,1.2-0.3,2c0,0.6,0.1,1,0.4,1.3c0.3,0.3,0.7,0.5,1.2,0.5c0.5,0,0.9-0.2,1.2-0.5
		c0.4-0.3,0.7-0.8,0.9-1.4C197.6,126,197.7,125.3,197.7,124.6z"/>
	<path id="XMLID_685_" class="st1" d="M209.4,129.4h-1.2l1-4.7c0.1-0.5,0.1-0.8,0.1-1c0-0.3-0.1-0.5-0.2-0.7
		c-0.2-0.2-0.4-0.3-0.8-0.3c-0.4,0-0.8,0.1-1.1,0.4c-0.4,0.3-0.7,0.7-1,1.2c-0.3,0.5-0.5,1.1-0.6,1.8l-0.7,3.2h-1.2l1.6-7.5h1
		l-0.2,1.4h0.1c0.3-0.4,0.6-0.7,0.8-0.9c0.2-0.2,0.5-0.4,0.8-0.5c0.3-0.1,0.6-0.2,0.9-0.2c0.6,0,1,0.2,1.4,0.5
		c0.3,0.3,0.5,0.8,0.5,1.4c0,0.4,0,0.8-0.2,1.2L209.4,129.4z"/>
	<path id="XMLID_687_" class="st1" d="M217.5,129.4h-1.2l1-4.7c0.1-0.4,0.1-0.7,0.1-0.9c0-0.7-0.3-1-1-1c-0.4,0-0.8,0.1-1.2,0.4
		c-0.4,0.3-0.7,0.7-1,1.2c-0.3,0.5-0.5,1.1-0.6,1.8l-0.7,3.2h-1.2l2.3-10.6h1.2l-0.6,2.8c-0.1,0.3-0.1,0.6-0.2,0.9
		c-0.1,0.3-0.2,0.6-0.2,0.9h0.1c0.4-0.5,0.8-0.9,1.2-1.2c0.4-0.2,0.8-0.4,1.3-0.4c0.6,0,1.1,0.2,1.4,0.5c0.3,0.3,0.5,0.8,0.5,1.4
		c0,0.3,0,0.6-0.2,1.1L217.5,129.4z"/>
	<path id="XMLID_689_" class="st1" d="M222.1,129.5c-0.6,0-1.1-0.2-1.5-0.7s-0.5-1.1-0.5-1.9c0-0.9,0.2-1.8,0.5-2.6
		c0.3-0.8,0.8-1.4,1.3-1.9s1.2-0.7,1.9-0.7c0.4,0,0.8,0.1,1.1,0.3c0.3,0.2,0.6,0.5,0.8,1h0.1l0.4-1.2h0.9l-1.6,7.5h-1l0.2-1.4h-0.1
		C223.9,129,223,129.5,222.1,129.5z M222.5,128.5c0.4,0,0.9-0.2,1.3-0.6c0.4-0.4,0.8-0.9,1-1.6c0.3-0.7,0.4-1.3,0.4-2
		c0-0.4-0.1-0.8-0.4-1.1c-0.2-0.3-0.6-0.4-1-0.4c-0.5,0-0.9,0.2-1.3,0.6c-0.4,0.4-0.7,0.9-0.9,1.6s-0.3,1.3-0.3,2.1
		c0,0.5,0.1,0.9,0.3,1.1C221.9,128.4,222.2,128.5,222.5,128.5z M221.6,131.2c0-0.3,0.1-0.5,0.2-0.6c0.2-0.2,0.4-0.3,0.6-0.3
		c0.2,0,0.4,0.1,0.5,0.2s0.2,0.3,0.2,0.5c0,0.3-0.1,0.5-0.2,0.7c-0.2,0.2-0.3,0.3-0.6,0.3c-0.2,0-0.3-0.1-0.5-0.2
		S221.6,131.4,221.6,131.2z M226.4,120.9h-0.8c-0.3-0.2-0.6-0.6-1.1-1.3c-0.6,0.5-1.1,0.9-1.6,1.3H222v-0.2c1.1-1,1.7-1.7,2-2.1h1.2
		c0.2,0.4,0.5,1,0.9,1.6l0.3,0.5V120.9z"/>
	<path id="XMLID_694_" class="st1" d="M233.6,129.4h-1.2l1-4.7c0.1-0.5,0.1-0.8,0.1-1c0-0.3-0.1-0.5-0.2-0.7
		c-0.2-0.2-0.4-0.3-0.8-0.3c-0.4,0-0.8,0.1-1.1,0.4c-0.4,0.3-0.7,0.7-1,1.2c-0.3,0.5-0.5,1.1-0.6,1.8l-0.7,3.2h-1.2l1.6-7.5h1
		l-0.2,1.4h0.1c0.3-0.4,0.6-0.7,0.8-0.9c0.2-0.2,0.5-0.4,0.8-0.5c0.3-0.1,0.6-0.2,0.9-0.2c0.6,0,1,0.2,1.4,0.5
		c0.3,0.3,0.5,0.8,0.5,1.4c0,0.4,0,0.8-0.2,1.2L233.6,129.4z"/>
	<path id="XMLID_696_" class="st1" d="M242.9,129.5c-0.4,0-0.8-0.1-1.2-0.3s-0.6-0.5-0.8-1h-0.1l-0.5,1.1h-0.9l2.3-10.6h1.2
		l-0.5,2.5c-0.1,0.4-0.2,0.8-0.3,1.3s-0.2,0.7-0.2,0.8h0.1c0.5-0.6,0.9-1,1.3-1.2c0.4-0.2,0.8-0.3,1.2-0.3c0.6,0,1.2,0.2,1.5,0.7
		c0.4,0.4,0.5,1.1,0.5,1.9c0,0.9-0.2,1.8-0.5,2.6c-0.3,0.8-0.7,1.4-1.3,1.9C244.2,129.3,243.6,129.5,242.9,129.5z M244.1,122.8
		c-0.4,0-0.9,0.2-1.3,0.6c-0.4,0.4-0.8,1-1,1.6c-0.3,0.6-0.4,1.3-0.4,2c0,0.5,0.1,0.8,0.4,1.1c0.2,0.3,0.6,0.4,1.1,0.4
		c0.4,0,0.9-0.2,1.2-0.6c0.4-0.4,0.7-0.9,0.9-1.6c0.2-0.7,0.3-1.4,0.3-2.1C245.3,123.3,244.9,122.8,244.1,122.8z"/>
	<path id="XMLID_699_" class="st1" d="M248.9,129.4h-1.2l1.6-7.5h1.2L248.9,129.4z M249.5,120c0-0.3,0.1-0.5,0.2-0.6
		c0.2-0.2,0.4-0.3,0.6-0.3c0.4,0,0.6,0.2,0.6,0.6c0,0.3-0.1,0.5-0.2,0.7c-0.2,0.2-0.3,0.3-0.6,0.3c-0.2,0-0.4-0.1-0.5-0.2
		C249.6,120.4,249.5,120.2,249.5,120z"/>
	<path id="XMLID_702_" class="st1" d="M254.2,129.5c-0.8,0-1.5-0.3-2-0.7c-0.5-0.5-0.7-1.2-0.7-2.1c0-0.9,0.2-1.7,0.5-2.5
		c0.3-0.8,0.8-1.4,1.4-1.8c0.6-0.4,1.2-0.7,1.9-0.7c0.7,0,1.2,0.2,1.6,0.5c0.4,0.3,0.5,0.7,0.5,1.3c0,0.8-0.4,1.5-1.1,1.9
		c-0.8,0.5-1.8,0.7-3.2,0.7h-0.2l0,0.5c0,0.6,0.1,1,0.4,1.4c0.3,0.3,0.7,0.5,1.3,0.5c0.4,0,0.7,0,1-0.2c0.3-0.1,0.7-0.2,1-0.4v1.1
		c-0.5,0.2-0.8,0.4-1.2,0.4C255,129.5,254.6,129.5,254.2,129.5z M255.2,122.8c-0.5,0-0.9,0.2-1.3,0.7c-0.4,0.4-0.7,1-0.9,1.7h0.1
		c1,0,1.8-0.1,2.3-0.4s0.8-0.6,0.8-1.2c0-0.2-0.1-0.4-0.2-0.6C255.8,122.9,255.5,122.8,255.2,122.8z M256.9,120.9
		c-0.4-0.3-0.8-0.6-1.3-1.1c-0.6,0.5-1.2,0.9-1.8,1.1h-0.6l0.1-0.2c0.8-0.7,1.4-1.3,1.8-1.8h1.3c0.1,0.2,0.2,0.5,0.4,0.9
		c0.2,0.3,0.4,0.7,0.6,0.9l0,0.2H256.9z M257.1,119.6v-0.2c0.6-0.6,1-1.1,1.2-1.4h1.2v0.2c-0.2,0.2-0.5,0.4-0.8,0.7
		c-0.3,0.3-0.6,0.5-1,0.7H257.1z"/>
	<path id="XMLID_707_" class="st1" d="M260.6,128.5c0.3,0,0.6-0.1,1-0.2v0.9c-0.1,0.1-0.3,0.1-0.5,0.2c-0.2,0-0.4,0.1-0.6,0.1
		c-0.6,0-1-0.1-1.3-0.4s-0.5-0.7-0.5-1.2c0-0.3,0-0.6,0.1-1l0.9-4.1h-1.2l0.1-0.6l1.3-0.5l0.9-1.6h0.7l-0.4,1.7h1.9l-0.2,0.9h-1.9
		l-0.9,4.1c-0.1,0.4-0.1,0.6-0.1,0.8c0,0.2,0.1,0.4,0.2,0.6C260.1,128.5,260.3,128.5,260.6,128.5z"/>
	<path id="XMLID_709_" class="st1" d="M79.2,138.6c0.4,0,0.8,0.1,1.1,0.3c0.3,0.2,0.6,0.5,0.8,0.9h0.1l0.1-0.6
		c0-0.2,0.1-0.7,0.3-1.5h-2.5l0.2-0.9h2.5l0.2-1.3h1.2l-0.3,1.3h1l-0.2,0.9h-1l-1.8,8.5h-1l0.2-1.4h-0.1c-0.5,0.6-0.9,0.9-1.3,1.2
		c-0.4,0.2-0.8,0.3-1.2,0.3c-0.6,0-1.1-0.2-1.5-0.7s-0.5-1.1-0.5-1.9c0-1,0.2-1.8,0.5-2.6c0.3-0.8,0.7-1.4,1.3-1.9
		C77.9,138.8,78.5,138.6,79.2,138.6z M78,145.3c0.4,0,0.8-0.2,1.3-0.6c0.4-0.4,0.8-1,1-1.6c0.3-0.6,0.4-1.3,0.4-2
		c0-0.5-0.1-0.9-0.4-1.1c-0.2-0.3-0.6-0.4-1-0.4s-0.9,0.2-1.3,0.6c-0.4,0.4-0.7,0.9-0.9,1.6c-0.2,0.7-0.3,1.4-0.3,2.1
		C76.8,144.8,77.2,145.3,78,145.3z"/>
	<path id="XMLID_712_" class="st1" d="M86.2,138.7l-1,4.7c-0.1,0.4-0.1,0.7-0.1,0.9c0,0.7,0.3,1,1,1c0.4,0,0.8-0.1,1.2-0.4
		c0.4-0.3,0.7-0.7,1-1.2c0.3-0.5,0.5-1.1,0.7-1.8l0.7-3.2h1.2l-0.2,0.9c0.4-0.1,0.7-0.3,0.9-0.6c0.2-0.3,0.4-0.8,0.5-1.4h1.3
		l0.1,0.2c-0.2,0.7-0.5,1.3-1,1.8c-0.5,0.5-1.2,0.8-2,0.9l-1.2,5.8h-1l0.2-1.4h-0.1c-0.4,0.5-0.8,0.9-1.2,1.2
		c-0.4,0.2-0.8,0.4-1.3,0.4c-0.6,0-1.1-0.2-1.4-0.5c-0.3-0.3-0.5-0.8-0.5-1.4c0-0.3,0-0.7,0.2-1.2l1-4.6H86.2z"/>
	<path id="XMLID_714_" class="st1" d="M96.2,138.6c1,0,1.7,0.3,2.2,1c0.4-0.2,0.6-0.4,0.8-0.7c0.2-0.3,0.4-0.8,0.4-1.3h1.3l0.1,0.2
		c-0.2,0.6-0.4,1.2-0.8,1.6c-0.4,0.4-0.9,0.7-1.5,1c0.2,0.4,0.2,0.8,0.2,1.3c0,0.9-0.2,1.7-0.5,2.4c-0.3,0.8-0.8,1.3-1.3,1.8
		c-0.6,0.4-1.2,0.6-1.9,0.6c-0.9,0-1.6-0.3-2.1-0.8s-0.7-1.2-0.7-2.1c0-0.9,0.2-1.7,0.5-2.5s0.8-1.4,1.3-1.8
		C94.9,138.8,95.5,138.6,96.2,138.6z M97.7,141.4c0-0.5-0.1-0.9-0.4-1.3c-0.3-0.3-0.6-0.5-1.1-0.5c-0.5,0-0.9,0.2-1.3,0.5
		s-0.7,0.8-0.9,1.4c-0.2,0.6-0.3,1.2-0.3,2c0,0.6,0.1,1,0.4,1.3c0.3,0.3,0.7,0.5,1.2,0.5c0.5,0,0.9-0.2,1.2-0.5
		c0.4-0.3,0.7-0.8,0.9-1.4C97.6,142.8,97.7,142.1,97.7,141.4z M94.1,148c0-0.3,0.1-0.5,0.2-0.6c0.2-0.2,0.4-0.3,0.6-0.3
		c0.2,0,0.4,0.1,0.5,0.2s0.2,0.3,0.2,0.5c0,0.3-0.1,0.5-0.2,0.7c-0.2,0.2-0.3,0.3-0.6,0.3c-0.2,0-0.3-0.1-0.5-0.2
		S94.1,148.2,94.1,148z"/>
	<path id="XMLID_718_" class="st1" d="M103.2,146.3c-0.9,0-1.6-0.2-2.1-0.7s-0.7-1.2-0.7-2.1c0-0.9,0.2-1.8,0.5-2.5
		c0.3-0.8,0.8-1.4,1.4-1.8s1.3-0.6,2-0.6c0.7,0,1.3,0.1,1.9,0.4l-0.3,1c-0.5-0.2-1-0.4-1.5-0.4c-0.5,0-1,0.2-1.4,0.5
		c-0.4,0.3-0.7,0.8-1,1.4s-0.3,1.3-0.3,2c0,0.6,0.1,1,0.4,1.3c0.3,0.3,0.7,0.5,1.2,0.5c0.3,0,0.6,0,0.9-0.1s0.6-0.2,0.9-0.3v1
		C104.5,146.2,103.9,146.3,103.2,146.3z"/>
	<path id="XMLID_720_" class="st1" d="M113.2,146.3c-0.9,0-1.6-0.2-2.1-0.7s-0.7-1.2-0.7-2.1c0-0.9,0.2-1.8,0.5-2.5
		c0.3-0.8,0.8-1.4,1.4-1.8s1.3-0.6,2-0.6c0.7,0,1.3,0.1,1.9,0.4l-0.3,1c-0.5-0.2-1-0.4-1.5-0.4c-0.5,0-1,0.2-1.4,0.5
		c-0.4,0.3-0.7,0.8-1,1.4s-0.3,1.3-0.3,2c0,0.6,0.1,1,0.4,1.3c0.3,0.3,0.7,0.5,1.2,0.5c0.3,0,0.6,0,0.9-0.1s0.6-0.2,0.9-0.3v1
		C114.5,146.2,113.9,146.3,113.2,146.3z"/>
	<path id="XMLID_722_" class="st1" d="M119.2,138.7l-1,4.7c-0.1,0.4-0.1,0.7-0.1,0.9c0,0.7,0.3,1,1,1c0.4,0,0.8-0.1,1.2-0.4
		c0.4-0.3,0.7-0.7,1-1.2c0.3-0.5,0.5-1.1,0.7-1.8l0.7-3.2h1.2l-0.2,0.9c0.4-0.1,0.7-0.3,0.9-0.6c0.2-0.3,0.4-0.8,0.5-1.4h1.3
		l0.1,0.2c-0.2,0.7-0.5,1.3-1,1.8c-0.5,0.5-1.2,0.8-2,0.9l-1.2,5.8h-1l0.2-1.4h-0.1c-0.4,0.5-0.8,0.9-1.2,1.2
		c-0.4,0.2-0.8,0.4-1.3,0.4c-0.6,0-1.1-0.2-1.4-0.5c-0.3-0.3-0.5-0.8-0.5-1.4c0-0.3,0-0.7,0.2-1.2l1-4.6H119.2z M122.9,135.8
		c0,0.4-0.1,0.7-0.4,0.9c-0.3,0.2-0.6,0.4-1,0.5l-0.2,0.7h-0.8l0.1-1.2c0.4-0.1,0.7-0.2,0.9-0.3c0.2-0.1,0.3-0.3,0.3-0.5
		c0-0.2-0.1-0.3-0.2-0.4c-0.1-0.1-0.3-0.1-0.6-0.1c-0.2,0-0.4,0-0.7,0.1v-0.7c0.2-0.1,0.5-0.1,0.8-0.1c0.5,0,0.9,0.1,1.2,0.3
		S122.9,135.5,122.9,135.8z"/>
	<path id="XMLID_725_" class="st1" d="M127.5,146.3c-0.6,0-1.1-0.2-1.5-0.7s-0.5-1.1-0.5-1.9c0-0.9,0.2-1.8,0.5-2.6
		c0.3-0.8,0.8-1.4,1.3-1.9s1.2-0.7,1.9-0.7c0.4,0,0.8,0.1,1.1,0.3c0.3,0.2,0.6,0.5,0.8,1h0.1l0.4-1.2h0.9l-1.6,7.5h-1l0.2-1.4h-0.1
		C129.3,145.8,128.4,146.3,127.5,146.3z M127.9,145.3c0.4,0,0.9-0.2,1.3-0.6c0.4-0.4,0.8-0.9,1-1.6c0.3-0.7,0.4-1.3,0.4-2
		c0-0.4-0.1-0.8-0.4-1.1c-0.2-0.3-0.6-0.4-1-0.4c-0.5,0-0.9,0.2-1.3,0.6c-0.4,0.4-0.7,0.9-0.9,1.6s-0.3,1.3-0.3,2.1
		c0,0.5,0.1,0.9,0.3,1.1S127.6,145.3,127.9,145.3z"/>
	<path id="XMLID_728_" class="st1" d="M142.6,146.2h-1.2l1-4.7c0.1-0.4,0.1-0.7,0.1-0.9c0-0.7-0.3-1-1-1c-0.4,0-0.8,0.1-1.2,0.4
		c-0.4,0.3-0.7,0.7-1,1.2c-0.3,0.5-0.5,1.1-0.6,1.8l-0.7,3.2h-1.2l2.3-10.6h1.2l-0.6,2.8c-0.1,0.3-0.1,0.6-0.2,0.9
		c-0.1,0.3-0.2,0.6-0.2,0.9h0.1c0.4-0.5,0.8-0.9,1.2-1.2c0.4-0.2,0.8-0.4,1.3-0.4c0.6,0,1.1,0.2,1.4,0.5c0.3,0.3,0.5,0.8,0.5,1.4
		c0,0.3,0,0.6-0.2,1.1L142.6,146.2z"/>
	<path id="XMLID_730_" class="st1" d="M147.2,146.3c-0.6,0-1.1-0.2-1.5-0.7s-0.5-1.1-0.5-1.9c0-0.9,0.2-1.8,0.5-2.6
		c0.3-0.8,0.8-1.4,1.3-1.9s1.2-0.7,1.9-0.7c0.4,0,0.8,0.1,1.1,0.3c0.3,0.2,0.6,0.5,0.8,1h0.1l0.4-1.2h0.9l-1.6,7.5h-1l0.2-1.4h-0.1
		C149,145.8,148.1,146.3,147.2,146.3z M147.6,145.3c0.4,0,0.9-0.2,1.3-0.6c0.4-0.4,0.8-0.9,1-1.6c0.3-0.7,0.4-1.3,0.4-2
		c0-0.4-0.1-0.8-0.4-1.1c-0.2-0.3-0.6-0.4-1-0.4c-0.5,0-0.9,0.2-1.3,0.6c-0.4,0.4-0.7,0.9-0.9,1.6s-0.3,1.3-0.3,2.1
		c0,0.5,0.1,0.9,0.3,1.1S147.2,145.3,147.6,145.3z M150.2,137.7h-0.8c-0.3-0.3-0.6-0.7-0.9-1.1s-0.5-0.8-0.6-1v-0.1h1.3
		c0.2,0.6,0.5,1.3,1,2.1V137.7z"/>
	<path id="XMLID_734_" class="st1" d="M158.6,146.2h-1.2l1-4.7c0.1-0.5,0.1-0.8,0.1-1c0-0.3-0.1-0.5-0.2-0.7
		c-0.2-0.2-0.4-0.3-0.8-0.3c-0.4,0-0.8,0.1-1.1,0.4c-0.4,0.3-0.7,0.7-1,1.2c-0.3,0.5-0.5,1.1-0.6,1.8l-0.7,3.2h-1.2l1.6-7.5h1
		l-0.2,1.4h0.1c0.3-0.4,0.6-0.7,0.8-0.9c0.2-0.2,0.5-0.4,0.8-0.5c0.3-0.1,0.6-0.2,0.9-0.2c0.6,0,1,0.2,1.4,0.5
		c0.3,0.3,0.5,0.8,0.5,1.4c0,0.4,0,0.8-0.2,1.2L158.6,146.2z"/>
	<path id="XMLID_736_" class="st1" d="M163.2,149.6c-0.9,0-1.6-0.2-2.3-0.5v-1.1c0.3,0.2,0.6,0.3,1.1,0.4s0.8,0.2,1.1,0.2
		c0.6,0,1.1-0.1,1.4-0.4c0.4-0.3,0.6-0.8,0.8-1.4l0.3-1.4l0.1-0.5h-0.1c-0.4,0.5-0.8,0.9-1.2,1.2c-0.4,0.2-0.8,0.4-1.2,0.4
		c-0.6,0-1.1-0.2-1.5-0.7s-0.5-1.1-0.5-1.9c0-1,0.2-1.9,0.5-2.7c0.3-0.8,0.8-1.4,1.3-1.9c0.6-0.4,1.2-0.7,1.9-0.7
		c0.9,0,1.5,0.4,1.9,1.3h0.1l0.5-1.2h0.9l-1.7,7.9c-0.2,1-0.6,1.7-1.1,2.2C164.9,149.3,164.1,149.6,163.2,149.6z M163.7,145.3
		c0.4,0,0.8-0.2,1.3-0.6s0.8-1,1-1.6c0.3-0.7,0.4-1.3,0.4-2c0-1-0.5-1.5-1.4-1.5c-0.5,0-0.9,0.2-1.3,0.6c-0.4,0.4-0.7,0.9-0.9,1.6
		c-0.2,0.7-0.3,1.4-0.3,2.1C162.5,144.8,162.9,145.3,163.7,145.3z"/>
	<path id="XMLID_739_" class="st1" d="M174.2,138.7h1.2l-1,4.7c-0.1,0.4-0.1,0.7-0.1,0.9c0,0.6,0.3,1,1,1c0.4,0,0.8-0.1,1.2-0.4
		c0.4-0.3,0.7-0.7,1-1.2c0.3-0.5,0.5-1.1,0.7-1.8l0.7-3.2h1.2l-1.6,7.5h-1l0.2-1.4h-0.1c-0.4,0.5-0.8,0.9-1.2,1.2
		c-0.4,0.2-0.8,0.4-1.3,0.4c-0.6,0-1-0.2-1.4-0.5c-0.3-0.3-0.5-0.8-0.5-1.4c0-0.3,0-0.7,0.2-1.2L174.2,138.7z"/>
	<path id="XMLID_741_" class="st1" d="M181.1,138.7h1.2l0.5,3.7c0,0.3,0.1,0.8,0.1,1.3c0,0.5,0.1,1,0.1,1.5h0
		c0.1-0.3,0.3-0.7,0.5-1.2s0.4-0.9,0.6-1.2l2.2-4.1h1.3l-4.8,8.8c-0.4,0.8-0.8,1.3-1.3,1.6s-0.9,0.5-1.5,0.5c-0.4,0-0.7,0-1-0.1v-1
		c0.3,0.1,0.6,0.1,0.9,0.1c0.4,0,0.7-0.1,1-0.4c0.3-0.2,0.5-0.6,0.8-1l0.5-0.9L181.1,138.7z"/>
	<path id="XMLID_743_" class="st1" d="M193.4,145.3c0.3,0,0.6-0.1,1-0.2v0.9c-0.1,0.1-0.3,0.1-0.5,0.2c-0.2,0-0.4,0.1-0.6,0.1
		c-0.6,0-1-0.1-1.3-0.4s-0.5-0.7-0.5-1.2c0-0.3,0-0.6,0.1-1l0.9-4.1h-1.2l0.1-0.6l1.3-0.5l0.9-1.6h0.7l-0.4,1.7h1.9l-0.2,0.9h-1.9
		l-0.9,4.1c-0.1,0.4-0.1,0.6-0.1,0.8c0,0.2,0.1,0.4,0.2,0.6C192.9,145.3,193.1,145.3,193.4,145.3z"/>
	<path id="XMLID_745_" class="st1" d="M196.9,146.2h-1.2l1.6-7.5h1.2L196.9,146.2z M197.4,137.5c0.2-0.3,0.5-0.6,0.8-1
		c0.3-0.4,0.6-0.8,0.8-1.1h1.4v0.1c-0.2,0.3-0.6,0.6-1,1.1c-0.5,0.4-0.9,0.8-1.2,1h-0.8V137.5z"/>
	<path id="XMLID_748_" class="st1" d="M205,146.2h-1.2l1-4.7c0.1-0.5,0.1-0.8,0.1-1c0-0.3-0.1-0.5-0.2-0.7c-0.2-0.2-0.4-0.3-0.8-0.3
		c-0.4,0-0.8,0.1-1.1,0.4c-0.4,0.3-0.7,0.7-1,1.2c-0.3,0.5-0.5,1.1-0.6,1.8l-0.7,3.2h-1.2l1.6-7.5h1l-0.2,1.4h0.1
		c0.3-0.4,0.6-0.7,0.8-0.9c0.2-0.2,0.5-0.4,0.8-0.5c0.3-0.1,0.6-0.2,0.9-0.2c0.6,0,1,0.2,1.4,0.5c0.3,0.3,0.5,0.8,0.5,1.4
		c0,0.4,0,0.8-0.2,1.2L205,146.2z"/>
	<path id="XMLID_750_" class="st1" d="M208,145.7c0-0.3,0.1-0.6,0.3-0.8c0.2-0.2,0.5-0.3,0.8-0.3c0.2,0,0.4,0.1,0.5,0.2
		c0.1,0.1,0.2,0.3,0.2,0.6c0,0.3-0.1,0.6-0.3,0.8s-0.4,0.3-0.8,0.3c-0.2,0-0.4-0.1-0.5-0.2C208.1,146.1,208,145.9,208,145.7z
		 M208.7,143.4c0.1-0.6,0.3-1.1,0.5-1.5s0.6-0.8,1.1-1.2c0.5-0.4,0.9-0.7,1.1-0.9c0.2-0.2,0.3-0.4,0.4-0.6c0.1-0.2,0.2-0.5,0.2-0.8
		c0-0.4-0.1-0.7-0.3-0.9c-0.2-0.2-0.6-0.3-1-0.3c-0.4,0-0.7,0.1-1,0.2c-0.3,0.1-0.7,0.3-1,0.4l-0.4-0.9c0.4-0.2,0.8-0.4,1.3-0.5
		c0.5-0.1,0.9-0.2,1.3-0.2c0.8,0,1.4,0.2,1.8,0.6c0.4,0.4,0.6,0.9,0.6,1.6c0,0.6-0.1,1.1-0.4,1.5c-0.3,0.5-0.8,1-1.6,1.5
		c-0.6,0.4-1,0.8-1.1,1c-0.2,0.2-0.3,0.6-0.4,1H208.7z"/>
	<path id="XMLID_753_" class="st1" d="M216.6,136.2l0.1,0.2c-0.2,0.4-0.4,0.9-0.8,1.5c-0.3,0.6-0.7,1.2-1.1,1.8h-0.9
		c0.6-1.4,1.1-2.5,1.4-3.4H216.6z M219.1,136.2l0.1,0.2c-0.4,0.9-1,2-1.9,3.3h-0.9c0.2-0.5,0.5-1.2,0.8-1.9s0.5-1.2,0.6-1.5H219.1z"
		/>
</g>
</svg>
