<?xml version="1.0" encoding="utf-8"?>
<!-- Generator: Adobe Illustrator 19.0.0, SVG Export Plug-In . SVG Version: 6.00 Build 0)  -->
<svg version="1.1" id="Layer_1" xmlns="http://www.w3.org/2000/svg" xmlns:xlink="http://www.w3.org/1999/xlink" x="0px" y="0px"
	 viewBox="0 0 160.8 168.1" style="enable-background:new 0 0 160.8 168.1;" xml:space="preserve">
<style type="text/css">
	.st0{fill:#EE2425;}
	.st1{fill:#CE6346;}
	.st2{fill:#E88B6B;}
	.st3{fill:#5F7FBF;}
</style>
<rect id="XMLID_106_" x="0.2" y="0" class="st0" width="160.7" height="168.1"/>
<rect x="3.7" y="52.2" class="st1" width="24.5" height="59.1"/>
<circle class="st2" cx="43.9" cy="99.3" r="26"/>
<circle class="st2" cx="63.4" cy="137" r="28.6"/>
<polygon id="XMLID_67_" class="st2" points="143,84.1 119.1,84.1 73.1,123.7 45.2,114.9 35.6,74.6 22.2,113.6 36,145.2 60.6,143.4 
	72.4,135.6 88.6,150.6 "/>
<path class="st2" d="M75.8,119.9c0,0,20.6-31.1,46-31.1c25.4,0-3.4,13.2-3.4,13.2l-4.7,15.3L92,136.7L75.8,119.9z"/>
<path class="st2" d="M114.9,78.8h-9.8c-2.3,0-4.2-1.9-4.2-4.2l0,0c0-2.3,1.9-4.2,4.2-4.2h9.8c2.3,0,4.2,1.9,4.2,4.2l0,0
	C119.1,76.9,117.2,78.8,114.9,78.8z"/>
<path class="st2" d="M118.9,84.2L118.9,84.2c-2.4,1.2-5.5-0.2-6.9-3l-7.3-15.1c-1.4-2.8-0.5-6.1,2-7.2l0,0c2.4-1.2,5.5,0.2,6.9,3
	l7.3,15.1C122.3,79.8,121.4,83,118.9,84.2z"/>
<path class="st2" d="M125.5,81.1L125.5,81.1c-2.4,1.2-5.5-0.2-6.9-3L111.3,63c-1.4-2.8-0.5-6.1,2-7.2l0,0c2.4-1.2,5.5,0.2,6.9,3
	l7.3,15.1C128.8,76.6,127.9,79.9,125.5,81.1z"/>
<path class="st2" d="M132,77.9L132,77.9c-2.4,1.2-5.5-0.2-6.9-3l-7.3-15.1c-1.4-2.8-0.5-6.1,2-7.2h0c2.4-1.2,5.5,0.2,6.9,3l7.3,15.1
	C135.3,73.4,134.4,76.7,132,77.9z"/>
<path class="st2" d="M138.5,74.7L138.5,74.7c-2.4,1.2-5.5-0.2-6.9-3l-7.3-15.1c-1.4-2.8-0.5-6.1,2-7.2l0,0c2.4-1.2,5.5,0.2,6.9,3
	l7.3,15.1C141.9,70.3,141,73.5,138.5,74.7z"/>
<path class="st2" d="M133.2,91h-14.6c-6.7,0-12.2-5.5-12.2-12.2l0,0c0-6.7,5.5-12.2,12.2-12.2h14.6c6.7,0,12.2,5.5,12.2,12.2l0,0
	C145.4,85.5,139.9,91,133.2,91z"/>
<rect x="0" y="73.2" class="st3" width="35.9" height="94.9"/>
<circle class="st1" cx="17.8" cy="75.2" r="14.1"/>
<path class="st2" d="M20.9,77.1L20.9,77.1C9.4,77.1,0,67.7,0,56.1V45.5c0-11.5,9.4-20.9,20.9-20.9l0,0c11.5,0,20.9,9.4,20.9,20.9
	v10.7C41.9,67.7,32.5,77.1,20.9,77.1z"/>
<path class="st1" d="M29.5,53.8h-6.8c-1.1,0-2-0.9-2-2l0,0c0-1.1,0.9-2,2-2h6.8c1.1,0,2,0.9,2,2l0,0C31.5,52.8,30.6,53.8,29.5,53.8z
	"/>
</svg>
