<?xml version="1.0" encoding="utf-8"?>
<!-- Generator: Adobe Illustrator 19.0.0, SVG Export Plug-In . SVG Version: 6.00 Build 0)  -->
<svg version="1.1" id="Layer_1" xmlns="http://www.w3.org/2000/svg" xmlns:xlink="http://www.w3.org/1999/xlink" x="0px" y="0px"
	 viewBox="0 0 261.9 269" style="enable-background:new 0 0 261.9 269;" xml:space="preserve">
<style type="text/css">
	.st0{fill:#B5B6B6;}
	.st1{fill:#E88B6B;}
	.st2{fill:#9E9094;}
	.st3{fill:#010101;}
	.st4{fill:#E0B546;}
	.st5{fill:#C89B39;}
	.st6{fill:#D9D4CA;}
	.st7{fill:#FFFFFF;}
	.st8{fill:#332F64;}
	.st9{fill:#252556;}
</style>
<g id="XMLID_52_">
	<rect id="XMLID_115_" x="1" y="0" class="st0" width="260.9" height="269"/>
	<rect id="XMLID_114_" y="173.9" class="st1" width="212.9" height="40.6"/>
	<rect id="XMLID_113_" x="186.6" y="136.4" class="st2" width="16.1" height="132.6"/>
	<rect id="XMLID_112_" x="123.6" y="140" class="st3" width="16.1" height="128.9"/>
	<path id="XMLID_111_" class="st1" d="M207.5,233.1h30.2c7.7,0,14-6.3,14-14v-28.4c0-7.7-6.3-14-14-14h-30.2c-7.7,0-14,6.3-14,14
		v28.4C193.5,226.8,199.8,233.1,207.5,233.1z"/>
	<rect id="XMLID_110_" x="166.3" y="128" class="st4" width="57.7" height="14"/>
	<polygon id="XMLID_50_" class="st4" points="197.6,62.1 131.7,62.1 166.3,128.1 197.6,128.1 	"/>
	<polygon id="XMLID_49_" class="st5" points="191.6,62.1 256.8,62.1 222.3,128.1 191.6,128.1 	"/>
	<circle id="XMLID_107_" class="st6" cx="133.5" cy="133.9" r="29.7"/>
	<rect id="XMLID_106_" x="103.8" y="45" class="st7" width="59.4" height="88.9"/>
	<rect id="XMLID_105_" x="133.5" y="45" class="st6" width="29.7" height="88.9"/>
	<rect id="XMLID_104_" x="119.2" y="158.4" class="st8" width="24.9" height="63.8"/>
	<path id="XMLID_103_" class="st8" d="M146,172.1h-27.4c-2.7,0-4.9-2.2-4.9-4.9v-6.3c0-2.7,2.2-4.9,4.9-4.9H146
		c2.7,0,4.9,2.2,4.9,4.9v6.3C150.9,169.8,148.7,172.1,146,172.1z"/>
	<path id="XMLID_102_" class="st1" d="M213,204.4h-5.7c-2.5,0-4.5-2-4.5-4.5v-35c0-2.5,2-4.5,4.5-4.5h5.7c2.5,0,4.5,2,4.5,4.5v35
		C217.5,202.4,215.5,204.4,213,204.4z"/>
	<rect id="XMLID_101_" x="16.5" y="102" class="st8" width="76.6" height="76"/>
	<rect id="XMLID_100_" x="16.5" y="102" class="st9" width="76.6" height="47.6"/>
	<path id="XMLID_99_" class="st9" d="M72.7,169.6H27.2c-1.9,0-3.4-1.5-3.4-3.4v-4.3c0-1.9,1.5-3.4,3.4-3.4h45.4
		c1.9,0,3.4,1.5,3.4,3.4v4.3C76.1,168.1,74.6,169.6,72.7,169.6z"/>
	<rect id="XMLID_98_" x="48.6" y="164" class="st7" width="11.2" height="104.9"/>
	<circle id="XMLID_58_" class="st7" cx="54.2" cy="163.3" r="5.6"/>
	<circle id="XMLID_56_" class="st9" cx="84.9" cy="163.9" r="4.6"/>
	<path id="XMLID_55_" class="st9" d="M125.8,214.6h-1.7c-0.7,0-1.3-0.6-1.3-1.3v-45.8c0-0.7,0.6-1.3,1.3-1.3h1.7
		c0.7,0,1.3,0.6,1.3,1.3v45.8C127.2,214,126.6,214.6,125.8,214.6z"/>
	<rect id="XMLID_54_" x="164.5" y="124.4" class="st5" width="64.4" height="6.5"/>
</g>
</svg>
