<!-- Generator: Adobe Illustrator 19.0.0, SVG Export Plug-In  -->
<svg version="1.1"
	 xmlns="http://www.w3.org/2000/svg" xmlns:xlink="http://www.w3.org/1999/xlink" xmlns:a="http://ns.adobe.com/AdobeSVGViewerExtensions/3.0/"
	 x="0px" y="0px" width="203px" height="203px" viewBox="0 0 203 203" style="enable-background:new 0 0 203 203;"
	 xml:space="preserve">
<style type="text/css">
	.st0{fill:#BDD231;stroke:#16113F;stroke-width:3;stroke-miterlimit:10;}
	.st1{fill:#E0E0E0;stroke:#15103F;stroke-width:3;stroke-miterlimit:10;}
	.st2{fill:#44BB8B;stroke:#16113F;stroke-width:3;stroke-miterlimit:10;}
	.st3{fill:#FFFFFF;}
	.st4{fill:#F8951D;stroke:#16113F;stroke-width:3;stroke-linecap:round;stroke-linejoin:round;stroke-miterlimit:10;}
</style>
<defs>
</defs>
<g>
	<rect x="1.5" y="1.5" class="st0" width="200" height="200"/>
	<rect x="101.5" y="101.5" class="st1" width="100" height="100"/>
	<rect x="1.5" y="1.5" class="st2" width="200" height="100"/>
	<g>
		<path class="st3" d="M39.6,32.7h3.6c1.6,0,2.8,0.2,3.5,0.7s1.1,1.2,1.1,2.2c0,0.7-0.2,1.2-0.5,1.7S46.6,38,46,38.1v0.1
			c0.7,0.2,1.2,0.5,1.6,0.9c0.3,0.4,0.5,1,0.5,1.8c0,1-0.4,1.9-1.1,2.4c-0.8,0.6-1.8,0.9-3.1,0.9h-4.3V32.7z M42,37.3h1.4
			c0.7,0,1.1-0.1,1.4-0.3s0.4-0.5,0.4-1c0-0.4-0.2-0.8-0.5-0.9c-0.3-0.2-0.8-0.3-1.5-0.3H42V37.3z M42,39.2v3h1.6
			c0.7,0,1.2-0.1,1.5-0.4c0.3-0.3,0.5-0.6,0.5-1.2c0-0.9-0.7-1.4-2-1.4H42z"/>
		<path class="st3" d="M55.1,35.3c0.3,0,0.6,0,0.8,0.1l-0.2,2.2c-0.2-0.1-0.4-0.1-0.7-0.1c-0.8,0-1.4,0.2-1.8,0.6s-0.6,0.9-0.6,1.6
			v4.4h-2.4v-8.7H52l0.4,1.5h0.1c0.3-0.5,0.6-0.9,1.1-1.2C54,35.4,54.5,35.3,55.1,35.3z"/>
		<path class="st3" d="M62.8,44.2L62.4,43h-0.1c-0.4,0.5-0.8,0.9-1.2,1.1s-1,0.3-1.7,0.3c-0.8,0-1.5-0.2-2-0.7
			c-0.5-0.5-0.7-1.2-0.7-2c0-0.9,0.3-1.6,1-2.1c0.6-0.4,1.6-0.7,2.9-0.7l1.5,0v-0.4c0-0.9-0.5-1.3-1.4-1.3c-0.7,0-1.5,0.2-2.5,0.6
			L57.5,36c1-0.5,2.1-0.8,3.3-0.8c1.2,0,2.1,0.3,2.7,0.8c0.6,0.5,0.9,1.3,0.9,2.3v5.8H62.8z M62.1,40.1l-0.9,0
			c-0.7,0-1.2,0.1-1.5,0.4c-0.3,0.2-0.5,0.6-0.5,1c0,0.7,0.4,1,1.2,1c0.6,0,1-0.2,1.3-0.5c0.3-0.3,0.5-0.7,0.5-1.3V40.1z"/>
		<path class="st3" d="M75,44.2h-2.4v-5.1c0-0.6-0.1-1.1-0.3-1.4c-0.2-0.3-0.6-0.5-1.1-0.5c-0.7,0-1.1,0.2-1.4,0.7s-0.4,1.2-0.4,2.2
			v4.1h-2.4v-8.7h1.8l0.3,1.1h0.1c0.3-0.4,0.6-0.7,1.1-1c0.5-0.2,1-0.3,1.6-0.3c1,0,1.8,0.3,2.3,0.8c0.5,0.6,0.8,1.3,0.8,2.4V44.2z"
			/>
		<path class="st3" d="M80.2,44.3c-1,0-1.8-0.4-2.4-1.2s-0.9-1.9-0.9-3.3c0-1.4,0.3-2.5,0.9-3.3c0.6-0.8,1.4-1.2,2.5-1.2
			c1.1,0,1.9,0.4,2.5,1.3h0.1c-0.1-0.7-0.2-1.2-0.2-1.7V32h2.4v12.2h-1.8L82.8,43h-0.1C82.2,43.9,81.3,44.3,80.2,44.3z M81.1,42.4
			c0.6,0,1.1-0.2,1.3-0.5c0.3-0.4,0.4-1,0.5-1.8v-0.3c0-0.9-0.1-1.6-0.4-2s-0.8-0.6-1.4-0.6c-0.5,0-0.9,0.2-1.2,0.7
			c-0.3,0.5-0.4,1.1-0.4,2s0.1,1.5,0.4,1.9S80.5,42.4,81.1,42.4z"/>
		<path class="st3" d="M102.1,44.2H99l-5-8.6h-0.1c0.1,1.5,0.1,2.6,0.1,3.3v5.4h-2.2V32.7H95l5,8.6h0.1c-0.1-1.5-0.1-2.5-0.1-3.1
			v-5.4h2.2V44.2z"/>
		<path class="st3" d="M108.7,44.3c-1.4,0-2.5-0.4-3.3-1.2c-0.8-0.8-1.2-1.9-1.2-3.3c0-1.5,0.4-2.6,1.1-3.4c0.7-0.8,1.7-1.2,3-1.2
			c1.2,0,2.2,0.4,2.9,1.1s1,1.7,1,2.9v1.2h-5.6c0,0.7,0.2,1.2,0.6,1.6c0.4,0.4,0.9,0.6,1.6,0.6c0.5,0,1-0.1,1.5-0.2s1-0.3,1.5-0.5
			v1.8c-0.4,0.2-0.9,0.4-1.3,0.5S109.4,44.3,108.7,44.3z M108.4,37c-0.5,0-0.9,0.2-1.2,0.5s-0.5,0.8-0.5,1.4h3.3
			c0-0.6-0.2-1-0.5-1.4S108.9,37,108.4,37z"/>
		<path class="st3" d="M121.2,44.2l-0.7-3.1l-0.9-3.9h-0.1l-1.6,6.9h-2.6l-2.5-8.7h2.4l1,3.9c0.1,0.5,0.3,1.4,0.5,2.9h0.1
			c0-0.4,0.1-1,0.3-1.9l0.1-0.7l1.1-4.2h2.6l1,4.2c0.1,0.3,0.1,0.7,0.2,1.3s0.1,1,0.2,1.3h0.1c0.1-0.5,0.1-1,0.2-1.6
			c0.1-0.6,0.2-1,0.3-1.3l1-3.9h2.3l-2.5,8.7H121.2z"/>
		<path class="st3" d="M135.6,37.4l2.4-4.7h2.6l-3.8,7v4.4h-2.4v-4.4l-3.8-7.1h2.6L135.6,37.4z"/>
		<path class="st3" d="M149.4,39.8c0,1.4-0.4,2.5-1.1,3.3c-0.8,0.8-1.8,1.2-3.1,1.2c-0.8,0-1.6-0.2-2.2-0.6s-1.1-0.9-1.5-1.6
			s-0.5-1.5-0.5-2.4c0-1.4,0.4-2.5,1.1-3.3c0.7-0.8,1.8-1.2,3.1-1.2c0.8,0,1.6,0.2,2.2,0.5c0.6,0.4,1.1,0.9,1.5,1.6
			C149.3,38.1,149.4,38.9,149.4,39.8z M143.4,39.8c0,0.9,0.1,1.5,0.4,2c0.3,0.4,0.7,0.7,1.4,0.7c0.6,0,1.1-0.2,1.4-0.7
			c0.3-0.4,0.4-1.1,0.4-2c0-0.9-0.1-1.5-0.4-1.9c-0.3-0.4-0.7-0.6-1.4-0.6c-0.6,0-1.1,0.2-1.4,0.6S143.4,38.9,143.4,39.8z"/>
		<path class="st3" d="M157.6,44.2l-0.3-1.1h-0.1c-0.3,0.4-0.6,0.7-1.1,0.9c-0.5,0.2-1,0.3-1.6,0.3c-1,0-1.8-0.3-2.3-0.8
			c-0.5-0.5-0.8-1.3-0.8-2.4v-5.7h2.4v5.1c0,0.6,0.1,1.1,0.3,1.4c0.2,0.3,0.6,0.5,1.1,0.5c0.7,0,1.1-0.2,1.4-0.7s0.4-1.2,0.4-2.2
			v-4.1h2.4v8.7H157.6z"/>
		<path class="st3" d="M38.4,60.3c0,1-0.4,1.8-1.1,2.4c-0.7,0.6-1.7,0.9-3,0.9c-1.4,0-2.4-0.2-3.1-0.5v-1.4c0.5,0.2,1,0.4,1.6,0.5
			c0.6,0.1,1.1,0.2,1.6,0.2c0.9,0,1.5-0.2,1.9-0.5s0.6-0.8,0.6-1.4c0-0.4-0.1-0.7-0.2-0.9c-0.2-0.2-0.4-0.5-0.8-0.7
			c-0.4-0.2-0.9-0.5-1.7-0.7c-1.1-0.4-1.8-0.8-2.3-1.4s-0.7-1.2-0.7-2c0-0.9,0.3-1.6,1-2.1c0.7-0.5,1.6-0.8,2.6-0.8
			c1.1,0,2.2,0.2,3.1,0.6l-0.4,1.2c-1-0.4-1.9-0.6-2.7-0.6c-0.7,0-1.2,0.1-1.6,0.4c-0.4,0.3-0.6,0.7-0.6,1.2c0,0.4,0.1,0.7,0.2,0.9
			c0.1,0.2,0.4,0.5,0.7,0.7s0.9,0.4,1.6,0.7c0.8,0.3,1.5,0.6,1.9,0.9c0.4,0.3,0.7,0.6,0.9,1S38.4,59.8,38.4,60.3z"/>
		<path class="st3" d="M43.4,62.4c0.2,0,0.4,0,0.6-0.1c0.2,0,0.4-0.1,0.6-0.1v1.1c-0.1,0.1-0.3,0.1-0.6,0.2s-0.6,0.1-0.8,0.1
			c-1.7,0-2.5-0.9-2.5-2.6v-5h-1.2v-0.7l1.2-0.6l0.6-1.8H42v2h2.5v1.1H42v5c0,0.5,0.1,0.9,0.4,1.1S42.9,62.4,43.4,62.4z"/>
		<path class="st3" d="M49.9,63.5c-1.3,0-2.3-0.4-3-1.2c-0.7-0.8-1.1-1.9-1.1-3.2c0-1.4,0.3-2.5,1-3.3c0.7-0.8,1.6-1.2,2.8-1.2
			c1.1,0,1.9,0.3,2.6,1s1,1.6,1,2.8v0.9h-5.9c0,1,0.3,1.7,0.7,2.2c0.5,0.5,1.1,0.8,2,0.8c0.5,0,0.9,0,1.3-0.1
			c0.4-0.1,0.9-0.2,1.4-0.5V63c-0.5,0.2-0.9,0.3-1.3,0.4C51,63.5,50.5,63.5,49.9,63.5z M49.6,55.8c-0.7,0-1.2,0.2-1.6,0.6
			c-0.4,0.4-0.6,1-0.7,1.8h4.4c0-0.8-0.2-1.4-0.6-1.8C50.7,56,50.2,55.8,49.6,55.8z"/>
		<path class="st3" d="M59.4,63.5c-1.2,0-2-0.4-2.7-1.2h-0.1l0,0.3c0,0.4,0.1,0.8,0.1,1.1v3.5h-1.4V54.8h1.2l0.2,1.2h0.1
			c0.3-0.5,0.7-0.8,1.2-1c0.4-0.2,0.9-0.3,1.5-0.3c1.1,0,2,0.4,2.6,1.2s0.9,1.9,0.9,3.3c0,1.4-0.3,2.5-0.9,3.3
			C61.3,63.1,60.5,63.5,59.4,63.5z M59.1,55.8c-0.8,0-1.5,0.2-1.8,0.7c-0.4,0.5-0.6,1.2-0.6,2.3v0.3c0,1.2,0.2,2,0.6,2.5
			c0.4,0.5,1,0.8,1.9,0.8c0.7,0,1.3-0.3,1.7-0.9c0.4-0.6,0.6-1.4,0.6-2.4c0-1-0.2-1.8-0.6-2.4S59.9,55.8,59.1,55.8z"/>
		<path class="st3" d="M78.2,51.9v7.4c0,1.3-0.4,2.3-1.2,3.1c-0.8,0.7-1.9,1.1-3.3,1.1c-1.4,0-2.5-0.4-3.2-1.1
			c-0.8-0.8-1.1-1.8-1.1-3.1v-7.4h1.4v7.4c0,0.9,0.2,1.7,0.7,2.2c0.5,0.5,1.2,0.8,2.2,0.8c0.9,0,1.7-0.3,2.2-0.8
			c0.5-0.5,0.8-1.2,0.8-2.2v-7.4H78.2z"/>
		<path class="st3" d="M85.1,63.5c-1.2,0-2-0.4-2.7-1.2h-0.1l0,0.3c0,0.4,0.1,0.8,0.1,1.1v3.5H81V54.8h1.2l0.2,1.2h0.1
			c0.3-0.5,0.7-0.8,1.2-1c0.4-0.2,0.9-0.3,1.5-0.3c1.1,0,2,0.4,2.6,1.2s0.9,1.9,0.9,3.3c0,1.4-0.3,2.5-0.9,3.3
			C87,63.1,86.2,63.5,85.1,63.5z M84.8,55.8c-0.8,0-1.5,0.2-1.8,0.7c-0.4,0.5-0.6,1.2-0.6,2.3v0.3c0,1.2,0.2,2,0.6,2.5
			c0.4,0.5,1,0.8,1.9,0.8c0.7,0,1.3-0.3,1.7-0.9c0.4-0.6,0.6-1.4,0.6-2.4c0-1-0.2-1.8-0.6-2.4S85.6,55.8,84.8,55.8z"/>
		<path class="st3" d="M98.2,57.6l3-5.6h1.5l-3.8,7v4.4h-1.4V59l-3.8-7.1h1.6L98.2,57.6z"/>
		<path class="st3" d="M111.1,59.1c0,1.4-0.4,2.5-1.1,3.3c-0.7,0.8-1.7,1.2-2.9,1.2c-0.8,0-1.5-0.2-2.1-0.5
			c-0.6-0.4-1.1-0.9-1.4-1.6c-0.3-0.7-0.5-1.5-0.5-2.4c0-1.4,0.3-2.5,1-3.3c0.7-0.8,1.7-1.2,2.9-1.2c1.2,0,2.2,0.4,2.9,1.2
			C110.8,56.6,111.1,57.7,111.1,59.1z M104.6,59.1c0,1.1,0.2,1.9,0.6,2.5c0.4,0.6,1.1,0.8,1.9,0.8c0.8,0,1.4-0.3,1.9-0.8
			c0.4-0.6,0.6-1.4,0.6-2.5s-0.2-1.9-0.6-2.4c-0.4-0.5-1.1-0.8-1.9-0.8C105.5,55.8,104.6,56.9,104.6,59.1z"/>
		<path class="st3" d="M114.7,54.8v5.5c0,0.7,0.2,1.2,0.5,1.5s0.8,0.5,1.4,0.5c0.9,0,1.5-0.2,1.9-0.7c0.4-0.5,0.6-1.3,0.6-2.4v-4.5
			h1.4v8.6h-1.2l-0.2-1.1h-0.1c-0.3,0.4-0.6,0.7-1.1,1c-0.5,0.2-1,0.3-1.6,0.3c-1,0-1.8-0.2-2.3-0.7c-0.5-0.5-0.8-1.3-0.8-2.4v-5.6
			H114.7z"/>
		<path class="st3" d="M127.2,54.6c0.4,0,0.7,0,1,0.1l-0.2,1.3c-0.3-0.1-0.6-0.1-0.9-0.1c-0.5,0-0.9,0.1-1.3,0.4s-0.7,0.6-0.9,1
			c-0.2,0.4-0.3,0.9-0.3,1.5v4.6h-1.4v-8.6h1.2l0.2,1.6h0.1c0.3-0.6,0.7-1,1.2-1.3C126.2,54.8,126.7,54.6,127.2,54.6z"/>
		<path class="st3" d="M140.7,60.3c0,1-0.4,1.8-1.1,2.4c-0.7,0.6-1.7,0.9-3,0.9c-1.4,0-2.4-0.2-3.1-0.5v-1.4c0.5,0.2,1,0.4,1.6,0.5
			c0.6,0.1,1.1,0.2,1.6,0.2c0.9,0,1.5-0.2,1.9-0.5s0.6-0.8,0.6-1.4c0-0.4-0.1-0.7-0.2-0.9c-0.2-0.2-0.4-0.5-0.8-0.7
			c-0.4-0.2-0.9-0.5-1.7-0.7c-1.1-0.4-1.8-0.8-2.3-1.4s-0.7-1.2-0.7-2c0-0.9,0.3-1.6,1-2.1c0.7-0.5,1.6-0.8,2.6-0.8
			c1.1,0,2.2,0.2,3.1,0.6l-0.4,1.2c-1-0.4-1.9-0.6-2.7-0.6c-0.7,0-1.2,0.1-1.6,0.4c-0.4,0.3-0.6,0.7-0.6,1.2c0,0.4,0.1,0.7,0.2,0.9
			c0.1,0.2,0.4,0.5,0.7,0.7s0.9,0.4,1.6,0.7c0.8,0.3,1.5,0.6,1.9,0.9c0.4,0.3,0.7,0.6,0.9,1S140.7,59.8,140.7,60.3z"/>
		<path class="st3" d="M145.6,62.4c0.2,0,0.4,0,0.6-0.1c0.2,0,0.4-0.1,0.6-0.1v1.1c-0.1,0.1-0.3,0.1-0.6,0.2s-0.6,0.1-0.8,0.1
			c-1.7,0-2.5-0.9-2.5-2.6v-5h-1.2v-0.7l1.2-0.6l0.6-1.8h0.8v2h2.5v1.1h-2.5v5c0,0.5,0.1,0.9,0.4,1.1S145.2,62.4,145.6,62.4z"/>
		<path class="st3" d="M147.2,54.8h1.5l1.9,4.9c0.4,1.1,0.6,1.8,0.7,2.3h0.1c0-0.2,0.2-0.6,0.3-1.1c0.2-0.5,0.3-1,0.4-1.3l1.7-4.9
			h1.5l-3.7,9.8c-0.4,0.9-0.8,1.6-1.3,2c-0.5,0.4-1.1,0.6-1.8,0.6c-0.4,0-0.8,0-1.2-0.1V66c0.3,0.1,0.6,0.1,0.9,0.1
			c0.4,0,0.8-0.1,1.1-0.4c0.3-0.2,0.6-0.6,0.8-1.1l0.4-1.1L147.2,54.8z"/>
		<path class="st3" d="M158.1,63.4h-1.4V51.2h1.4V63.4z"/>
		<path class="st3" d="M164.5,63.5c-1.3,0-2.3-0.4-3-1.2c-0.7-0.8-1.1-1.9-1.1-3.2c0-1.4,0.3-2.5,1-3.3c0.7-0.8,1.6-1.2,2.8-1.2
			c1.1,0,1.9,0.3,2.6,1s1,1.6,1,2.8v0.9h-5.9c0,1,0.3,1.7,0.7,2.2c0.5,0.5,1.1,0.8,2,0.8c0.5,0,0.9,0,1.3-0.1
			c0.4-0.1,0.9-0.2,1.4-0.5V63c-0.5,0.2-0.9,0.3-1.3,0.4C165.5,63.5,165,63.5,164.5,63.5z M164.1,55.8c-0.7,0-1.2,0.2-1.6,0.6
			c-0.4,0.4-0.6,1-0.7,1.8h4.4c0-0.8-0.2-1.4-0.6-1.8C165.3,56,164.8,55.8,164.1,55.8z"/>
		<path class="st3" d="M17.9,82.6l-1.5-4.8c-0.1-0.4-0.3-1.2-0.6-2.3h-0.1c-0.2,1-0.4,1.8-0.6,2.3l-1.5,4.8h-1.6L9.7,74h1.5
			c0.5,2.1,1,3.7,1.2,4.8c0.3,1.1,0.5,1.9,0.5,2.3H13l0.1-0.5c0.2-0.7,0.3-1.4,0.5-1.8l1.5-4.8h1.5l1.5,4.8c0.1,0.2,0.1,0.4,0.2,0.6
			c0.1,0.2,0.1,0.4,0.2,0.6c0.1,0.2,0.1,0.4,0.1,0.6c0,0.2,0.1,0.4,0.1,0.5h0.1c0-0.4,0.2-1.2,0.6-2.5l1.2-4.6h1.4l-2.4,8.6H17.9z"
			/>
		<path class="st3" d="M23.4,71.7c0-0.3,0.1-0.5,0.2-0.7s0.4-0.2,0.6-0.2c0.2,0,0.4,0.1,0.6,0.2s0.2,0.4,0.2,0.7
			c0,0.3-0.1,0.5-0.2,0.7c-0.2,0.1-0.4,0.2-0.6,0.2c-0.2,0-0.4-0.1-0.6-0.2C23.5,72.2,23.4,72,23.4,71.7z M24.9,82.6h-1.4V74h1.4
			V82.6z"/>
		<path class="st3" d="M30.5,81.6c0.2,0,0.4,0,0.6-0.1c0.2,0,0.4-0.1,0.6-0.1v1.1c-0.1,0.1-0.3,0.1-0.6,0.2s-0.6,0.1-0.8,0.1
			c-1.7,0-2.5-0.9-2.5-2.6v-5h-1.2v-0.7l1.2-0.6l0.6-1.8h0.8v2h2.5v1.1h-2.5v5c0,0.5,0.1,0.9,0.4,1.1S30.1,81.6,30.5,81.6z"/>
		<path class="st3" d="M39.2,82.6v-5.5c0-0.7-0.2-1.2-0.5-1.6C38.5,75.2,38,75,37.3,75c-0.9,0-1.5,0.2-1.9,0.7s-0.6,1.3-0.6,2.4v4.4
			h-1.4V70.4h1.4V74c0,0.5,0,0.9-0.1,1.2h0.1c0.3-0.4,0.6-0.7,1.1-1s1-0.4,1.6-0.4c1,0,1.8,0.3,2.4,0.7c0.5,0.5,0.8,1.3,0.8,2.4v5.6
			H39.2z"/>
		<path class="st3" d="M56.8,76.7c0,1.9-0.5,3.3-1.5,4.3c-1,1-2.5,1.5-4.4,1.5h-3.2V71.1h3.5c1.8,0,3.2,0.5,4.1,1.5
			S56.8,75,56.8,76.7z M55.3,76.8c0-1.5-0.4-2.6-1.1-3.3c-0.7-0.7-1.8-1.1-3.2-1.1h-1.9v9h1.6C53.7,81.3,55.3,79.8,55.3,76.8z"/>
		<path class="st3" d="M62.8,82.7c-1.3,0-2.3-0.4-3-1.2c-0.7-0.8-1.1-1.8-1.1-3.2c0-1.4,0.3-2.5,1-3.3c0.7-0.8,1.6-1.2,2.8-1.2
			c1.1,0,1.9,0.3,2.6,1s1,1.6,1,2.8v0.9h-5.9c0,1,0.3,1.7,0.7,2.2c0.5,0.5,1.1,0.8,2,0.8c0.5,0,0.9,0,1.3-0.1
			c0.4-0.1,0.9-0.2,1.4-0.5v1.2c-0.5,0.2-0.9,0.3-1.3,0.4C63.8,82.7,63.3,82.7,62.8,82.7z M62.4,75c-0.7,0-1.2,0.2-1.6,0.6
			c-0.4,0.4-0.6,1-0.7,1.8h4.4c0-0.8-0.2-1.4-0.6-1.8C63.6,75.2,63.1,75,62.4,75z"/>
		<path class="st3" d="M73.4,82.6l-0.3-1.2h-0.1c-0.4,0.5-0.9,0.9-1.3,1.1c-0.4,0.2-1,0.3-1.6,0.3c-0.8,0-1.5-0.2-2-0.7
			c-0.5-0.4-0.7-1.1-0.7-1.9c0-1.7,1.4-2.7,4.1-2.7l1.5-0.1v-0.5c0-0.7-0.1-1.1-0.4-1.4c-0.3-0.3-0.7-0.5-1.4-0.5
			c-0.5,0-0.9,0.1-1.3,0.2c-0.4,0.1-0.8,0.3-1.1,0.5l-0.4-1.1c0.4-0.2,0.9-0.4,1.4-0.5c0.5-0.1,1-0.2,1.5-0.2c1,0,1.8,0.2,2.3,0.7
			c0.5,0.5,0.8,1.2,0.8,2.2v5.8H73.4z M70.5,81.6c0.8,0,1.4-0.2,1.9-0.6c0.5-0.4,0.7-1,0.7-1.8v-0.8l-1.3,0.1c-1,0-1.7,0.2-2.2,0.5
			c-0.5,0.3-0.7,0.7-0.7,1.3c0,0.4,0.1,0.8,0.4,1C69.7,81.5,70,81.6,70.5,81.6z"/>
		<path class="st3" d="M78.5,82.6h-1.4V70.4h1.4V82.6z"/>
		<path class="st3" d="M86.8,80.2c0,0.8-0.3,1.4-0.9,1.9c-0.6,0.4-1.4,0.7-2.5,0.7c-1.1,0-2-0.2-2.7-0.5v-1.3
			c0.9,0.5,1.9,0.7,2.7,0.7c0.7,0,1.2-0.1,1.5-0.3c0.3-0.2,0.5-0.5,0.5-0.9c0-0.3-0.2-0.6-0.5-0.9s-0.9-0.5-1.7-0.8
			c-0.8-0.3-1.4-0.6-1.7-0.8c-0.3-0.2-0.6-0.5-0.7-0.7c-0.2-0.3-0.2-0.6-0.2-1c0-0.7,0.3-1.3,0.9-1.7s1.4-0.6,2.4-0.6
			c1,0,1.9,0.2,2.7,0.6l-0.5,1.1c-0.9-0.4-1.7-0.5-2.4-0.5c-0.6,0-1,0.1-1.3,0.3C82.2,75.4,82,75.7,82,76c0,0.3,0.1,0.6,0.4,0.8
			c0.3,0.2,0.9,0.5,1.8,0.9c0.7,0.3,1.2,0.5,1.6,0.7c0.3,0.2,0.6,0.5,0.8,0.8C86.7,79.5,86.8,79.8,86.8,80.2z"/>
		<path class="st3" d="M101.9,71.1v7.4c0,1.3-0.4,2.3-1.2,3.1c-0.8,0.7-1.9,1.1-3.3,1.1c-1.4,0-2.5-0.4-3.2-1.1
			c-0.8-0.8-1.1-1.8-1.1-3.1v-7.4h1.4v7.4c0,0.9,0.2,1.7,0.7,2.2c0.5,0.5,1.2,0.8,2.2,0.8c0.9,0,1.7-0.3,2.2-0.8
			c0.5-0.5,0.8-1.2,0.8-2.2v-7.4H101.9z"/>
		<path class="st3" d="M108.8,82.7c-1.2,0-2-0.4-2.7-1.2h-0.1l0,0.3c0,0.4,0.1,0.8,0.1,1.1v3.5h-1.4V74h1.2l0.2,1.2h0.1
			c0.3-0.5,0.7-0.8,1.2-1c0.4-0.2,0.9-0.3,1.5-0.3c1.1,0,2,0.4,2.6,1.2s0.9,1.9,0.9,3.3c0,1.4-0.3,2.5-0.9,3.3
			C110.8,82.3,109.9,82.7,108.8,82.7z M108.6,75c-0.8,0-1.5,0.2-1.8,0.7c-0.4,0.5-0.6,1.2-0.6,2.3v0.3c0,1.2,0.2,2,0.6,2.5
			c0.4,0.5,1,0.8,1.9,0.8c0.7,0,1.3-0.3,1.7-0.9c0.4-0.6,0.6-1.4,0.6-2.4c0-1-0.2-1.8-0.6-2.4S109.3,75,108.6,75z"/>
		<path class="st3" d="M121.6,81.6c0.2,0,0.4,0,0.6-0.1c0.2,0,0.4-0.1,0.6-0.1v1.1c-0.1,0.1-0.3,0.1-0.6,0.2s-0.6,0.1-0.8,0.1
			c-1.7,0-2.5-0.9-2.5-2.6v-5h-1.2v-0.7l1.2-0.6l0.6-1.8h0.8v2h2.5v1.1h-2.5v5c0,0.5,0.1,0.9,0.4,1.1S121.2,81.6,121.6,81.6z"/>
		<path class="st3" d="M132,78.3c0,1.4-0.4,2.5-1.1,3.3c-0.7,0.8-1.7,1.2-2.9,1.2c-0.8,0-1.5-0.2-2.1-0.5c-0.6-0.4-1.1-0.9-1.4-1.6
			c-0.3-0.7-0.5-1.5-0.5-2.4c0-1.4,0.3-2.5,1-3.3c0.7-0.8,1.7-1.2,2.9-1.2c1.2,0,2.2,0.4,2.9,1.2C131.6,75.8,132,76.9,132,78.3z
			 M125.5,78.3c0,1.1,0.2,1.9,0.6,2.5c0.4,0.6,1.1,0.8,1.9,0.8c0.8,0,1.4-0.3,1.9-0.8c0.4-0.6,0.6-1.4,0.6-2.5s-0.2-1.9-0.6-2.4
			c-0.4-0.5-1.1-0.8-1.9-0.8C126.3,75,125.5,76.1,125.5,78.3z"/>
		<path class="st3" d="M141.6,71c1,0,1.9,0.2,2.5,0.7s0.9,1.2,0.9,2c0,0.6-0.2,1.1-0.5,1.5s-0.9,0.9-1.7,1.3c0.9,0.4,1.6,0.9,2,1.4
			c0.4,0.5,0.6,1,0.6,1.7c0,0.9-0.3,1.7-1,2.3c-0.7,0.6-1.6,0.8-2.7,0.8c-1.2,0-2.2-0.3-2.8-0.8s-1-1.3-1-2.3c0-1.3,0.8-2.3,2.4-3.1
			c-0.7-0.4-1.2-0.8-1.5-1.3s-0.5-1-0.5-1.6c0-0.8,0.3-1.5,0.9-2S140.5,71,141.6,71z M139.2,79.7c0,0.6,0.2,1.1,0.6,1.4
			s1,0.5,1.8,0.5c0.7,0,1.3-0.2,1.8-0.5s0.6-0.8,0.6-1.5c0-0.5-0.2-0.9-0.6-1.3s-1.1-0.8-2-1.1c-0.8,0.3-1.3,0.7-1.6,1.1
			C139.3,78.7,139.2,79.1,139.2,79.7z M141.6,72.1c-0.6,0-1.1,0.1-1.5,0.4c-0.4,0.3-0.5,0.7-0.5,1.2c0,0.3,0.1,0.6,0.2,0.9
			s0.3,0.5,0.6,0.7c0.3,0.2,0.7,0.4,1.3,0.7c0.7-0.3,1.2-0.6,1.5-1c0.3-0.4,0.4-0.8,0.4-1.2c0-0.5-0.2-0.9-0.6-1.2
			S142.2,72.1,141.6,72.1z"/>
		<path class="st3" d="M154.5,76.8c0,2-0.3,3.5-0.9,4.4s-1.6,1.5-2.9,1.5c-1.2,0-2.2-0.5-2.8-1.5c-0.6-1-1-2.5-1-4.4
			c0-2,0.3-3.5,0.9-4.4c0.6-1,1.6-1.4,2.9-1.4c1.2,0,2.2,0.5,2.8,1.5S154.5,74.9,154.5,76.8z M148.3,76.8c0,1.7,0.2,2.9,0.6,3.6
			s1,1.1,1.8,1.1c0.8,0,1.4-0.4,1.8-1.1c0.4-0.8,0.6-1.9,0.6-3.6c0-1.6-0.2-2.8-0.6-3.5c-0.4-0.8-1-1.1-1.8-1.1s-1.4,0.4-1.8,1.1
			C148.5,74,148.3,75.2,148.3,76.8z"/>
		<path class="st3" d="M160.8,74.6c0,1.2-0.2,2.1-0.6,2.7c-0.4,0.6-1,0.9-1.8,0.9c-0.7,0-1.3-0.3-1.7-0.9c-0.4-0.6-0.6-1.5-0.6-2.7
			c0-1.2,0.2-2.1,0.6-2.7s1-0.9,1.7-0.9c0.8,0,1.4,0.3,1.8,0.9S160.8,73.4,160.8,74.6z M157.3,74.6c0,0.9,0.1,1.5,0.3,1.9
			c0.2,0.4,0.5,0.7,0.9,0.7c0.8,0,1.2-0.9,1.2-2.6c0-1.7-0.4-2.6-1.2-2.6c-0.4,0-0.7,0.2-0.9,0.6S157.3,73.7,157.3,74.6z
			 M165.7,71.1l-6.3,11.4h-1.2l6.3-11.4H165.7z M167.8,79.1c0,1.2-0.2,2.1-0.6,2.7c-0.4,0.6-1,0.9-1.8,0.9c-0.7,0-1.3-0.3-1.7-0.9
			c-0.4-0.6-0.6-1.5-0.6-2.7c0-1.2,0.2-2.1,0.6-2.7s1-0.9,1.7-0.9s1.4,0.3,1.8,0.9S167.8,78,167.8,79.1z M164.2,79.1
			c0,0.9,0.1,1.5,0.3,1.9c0.2,0.4,0.5,0.6,0.9,0.6c0.4,0,0.7-0.2,0.9-0.6c0.2-0.4,0.3-1.1,0.3-1.9c0-1.7-0.4-2.6-1.2-2.6
			c-0.4,0-0.7,0.2-0.9,0.6C164.3,77.6,164.2,78.3,164.2,79.1z"/>
		<path class="st3" d="M181.6,78.3c0,1.4-0.4,2.5-1.1,3.3c-0.7,0.8-1.7,1.2-2.9,1.2c-0.8,0-1.5-0.2-2.1-0.5
			c-0.6-0.4-1.1-0.9-1.4-1.6c-0.3-0.7-0.5-1.5-0.5-2.4c0-1.4,0.3-2.5,1-3.3c0.7-0.8,1.7-1.2,2.9-1.2c1.2,0,2.2,0.4,2.9,1.2
			C181.2,75.8,181.6,76.9,181.6,78.3z M175.1,78.3c0,1.1,0.2,1.9,0.6,2.5c0.4,0.6,1.1,0.8,1.9,0.8c0.8,0,1.4-0.3,1.9-0.8
			c0.4-0.6,0.6-1.4,0.6-2.5s-0.2-1.9-0.6-2.4c-0.4-0.5-1.1-0.8-1.9-0.8C175.9,75,175.1,76.1,175.1,78.3z"/>
		<path class="st3" d="M187.7,75.1h-2.2v7.5h-1.4v-7.5h-1.5v-0.7l1.5-0.5v-0.5c0-1,0.2-1.8,0.7-2.3c0.5-0.5,1.2-0.8,2.1-0.8
			c0.5,0,1.1,0.1,1.7,0.3l-0.4,1.1c-0.5-0.2-0.9-0.2-1.3-0.2c-0.5,0-0.8,0.2-1.1,0.5s-0.3,0.8-0.3,1.5V74h2.2V75.1z"/>
		<path class="st3" d="M193.3,75.1h-2.2v7.5h-1.4v-7.5h-1.5v-0.7l1.5-0.5v-0.5c0-1,0.2-1.8,0.7-2.3c0.5-0.5,1.2-0.8,2.1-0.8
			c0.5,0,1.1,0.1,1.7,0.3l-0.4,1.1c-0.5-0.2-0.9-0.2-1.3-0.2c-0.5,0-0.8,0.2-1.1,0.5s-0.3,0.8-0.3,1.5V74h2.2V75.1z"/>
	</g>
	<g>
		<g>
			<path d="M122.5,137.8h-1.8v-8.6h4.9v1.5h-3.1v2.2h2.9v1.5h-2.9V137.8z"/>
			<path d="M131.3,137.8l-0.3-0.9h0c-0.3,0.4-0.6,0.6-0.9,0.8s-0.7,0.2-1.2,0.2c-0.6,0-1.1-0.2-1.5-0.5s-0.5-0.9-0.5-1.5
				c0-0.7,0.2-1.2,0.7-1.5s1.2-0.5,2.2-0.5l1.1,0v-0.3c0-0.7-0.3-1-1-1c-0.5,0-1.1,0.2-1.8,0.5l-0.6-1.2c0.8-0.4,1.6-0.6,2.5-0.6
				c0.9,0,1.6,0.2,2,0.6s0.7,1,0.7,1.7v4.4H131.3z M130.8,134.8l-0.7,0c-0.5,0-0.9,0.1-1.2,0.3s-0.4,0.4-0.4,0.8
				c0,0.5,0.3,0.8,0.9,0.8c0.4,0,0.7-0.1,1-0.4s0.4-0.6,0.4-0.9V134.8z"/>
			<path d="M138.9,135.9c0,0.7-0.2,1.2-0.7,1.5s-1.2,0.5-2.1,0.5c-0.5,0-0.9,0-1.2-0.1s-0.7-0.2-0.9-0.3v-1.5
				c0.3,0.2,0.7,0.3,1.1,0.4s0.8,0.2,1.1,0.2c0.6,0,1-0.2,1-0.6c0-0.1,0-0.3-0.1-0.3s-0.2-0.2-0.4-0.3s-0.5-0.2-0.8-0.4
				c-0.5-0.2-0.9-0.4-1.1-0.6s-0.4-0.4-0.5-0.6s-0.2-0.5-0.2-0.9c0-0.6,0.2-1,0.7-1.4s1.1-0.5,1.9-0.5c0.8,0,1.6,0.2,2.3,0.5
				l-0.5,1.3c-0.3-0.1-0.6-0.3-0.9-0.3s-0.6-0.1-0.9-0.1c-0.5,0-0.8,0.1-0.8,0.4c0,0.2,0.1,0.3,0.3,0.4s0.5,0.3,1.1,0.5
				c0.5,0.2,0.9,0.4,1.1,0.6s0.4,0.4,0.5,0.6S138.9,135.6,138.9,135.9z"/>
			<path d="M146.4,137.8h-1.8V134c0-0.9-0.4-1.4-1.1-1.4c-0.5,0-0.9,0.2-1.1,0.5s-0.3,0.9-0.3,1.7v3.1h-1.8v-9.1h1.8v1.9
				c0,0.1,0,0.5,0,1l0,0.5h0.1c0.4-0.6,1-1,1.9-1c0.8,0,1.4,0.2,1.8,0.6s0.6,1,0.6,1.8V137.8z"/>
			<path d="M148.1,129.6c0-0.6,0.3-0.9,1-0.9s1,0.3,1,0.9c0,0.3-0.1,0.5-0.2,0.6s-0.4,0.2-0.7,0.2
				C148.5,130.5,148.1,130.2,148.1,129.6z M150,137.8h-1.8v-6.6h1.8V137.8z"/>
			<path d="M157.8,134.6c0,1.1-0.3,1.9-0.8,2.5s-1.3,0.9-2.3,0.9c-0.6,0-1.2-0.1-1.7-0.4s-0.8-0.7-1.1-1.2s-0.4-1.1-0.4-1.8
				c0-1.1,0.3-1.9,0.8-2.5s1.3-0.9,2.4-0.9c0.6,0,1.2,0.1,1.7,0.4s0.8,0.7,1.1,1.2S157.8,133.9,157.8,134.6z M153.3,134.6
				c0,0.6,0.1,1.1,0.3,1.5s0.6,0.5,1,0.5c0.5,0,0.8-0.2,1-0.5s0.3-0.8,0.3-1.5c0-0.6-0.1-1.1-0.3-1.5s-0.6-0.5-1-0.5
				c-0.5,0-0.8,0.2-1,0.5S153.3,133.9,153.3,134.6z"/>
			<path d="M165.4,137.8h-1.8V134c0-0.5-0.1-0.8-0.3-1.1s-0.4-0.4-0.8-0.4c-0.5,0-0.9,0.2-1.1,0.5s-0.3,0.9-0.3,1.7v3.1h-1.8v-6.6
				h1.4l0.2,0.8h0.1c0.2-0.3,0.5-0.6,0.8-0.7s0.7-0.2,1.2-0.2c0.8,0,1.3,0.2,1.7,0.6s0.6,1,0.6,1.8V137.8z"/>
			<path d="M124,152.2h-1.8v-7.1h-2.3v-1.5h6.5v1.5H124V152.2z"/>
			<path d="M133.5,152.2h-1.8v-3.8c0-0.9-0.4-1.4-1.1-1.4c-0.5,0-0.9,0.2-1.1,0.5s-0.3,0.9-0.3,1.7v3.1h-1.8v-9.1h1.8v1.9
				c0,0.1,0,0.5,0,1l0,0.5h0.1c0.4-0.6,1-1,1.9-1c0.8,0,1.4,0.2,1.8,0.6s0.6,1,0.6,1.8V152.2z"/>
			<path d="M139,145.6c0.2,0,0.4,0,0.6,0.1l-0.1,1.7c-0.1,0-0.3-0.1-0.5-0.1c-0.6,0-1,0.1-1.3,0.4s-0.5,0.7-0.5,1.2v3.3h-1.8v-6.6
				h1.4l0.3,1.1h0.1c0.2-0.4,0.5-0.7,0.8-0.9S138.6,145.6,139,145.6z"/>
			<path d="M146.7,149c0,1.1-0.3,1.9-0.8,2.5s-1.3,0.9-2.3,0.9c-0.6,0-1.2-0.1-1.7-0.4s-0.8-0.7-1.1-1.2s-0.4-1.1-0.4-1.8
				c0-1.1,0.3-1.9,0.8-2.5s1.3-0.9,2.4-0.9c0.6,0,1.2,0.1,1.7,0.4s0.8,0.7,1.1,1.2S146.7,148.3,146.7,149z M142.1,149
				c0,0.6,0.1,1.1,0.3,1.5s0.6,0.5,1,0.5c0.5,0,0.8-0.2,1-0.5s0.3-0.8,0.3-1.5c0-0.6-0.1-1.1-0.3-1.5s-0.6-0.5-1-0.5
				c-0.5,0-0.8,0.2-1,0.5S142.1,148.3,142.1,149z"/>
			<path d="M152.8,152.2l-0.2-0.8h-0.1c-0.2,0.3-0.5,0.5-0.8,0.7s-0.8,0.2-1.2,0.2c-0.8,0-1.3-0.2-1.7-0.6s-0.6-1-0.6-1.8v-4.3h1.8
				v3.8c0,0.5,0.1,0.8,0.3,1.1s0.4,0.4,0.8,0.4c0.5,0,0.9-0.2,1.1-0.5s0.3-0.9,0.3-1.7v-3.1h1.8v6.6H152.8z"/>
			<path d="M161.7,152.3c0,0.9-0.3,1.7-0.8,2.1s-1.4,0.7-2.5,0.7c-1,0-1.8-0.1-2.4-0.4v-1.4c0.8,0.3,1.6,0.5,2.6,0.5
				c0.9,0,1.4-0.5,1.4-1.5v-0.1l0.1-0.8H160c-0.4,0.6-1,1-1.9,1c-0.8,0-1.4-0.3-1.8-0.9s-0.6-1.4-0.6-2.5c0-1.1,0.2-1.9,0.7-2.5
				s1.1-0.9,1.8-0.9c0.8,0,1.4,0.3,1.9,1h0l0.1-0.8h1.5V152.3z M158.7,151c0.5,0,0.8-0.1,1-0.4s0.3-0.7,0.3-1.3V149
				c0-0.7-0.1-1.2-0.3-1.5s-0.6-0.5-1-0.5c-0.8,0-1.3,0.7-1.3,2c0,0.7,0.1,1.1,0.3,1.5S158.3,151,158.7,151z"/>
			<path d="M169.7,152.2h-1.8v-3.8c0-0.9-0.4-1.4-1.1-1.4c-0.5,0-0.9,0.2-1.1,0.5s-0.3,0.9-0.3,1.7v3.1h-1.8v-9.1h1.8v1.9
				c0,0.1,0,0.5,0,1l0,0.5h0.1c0.4-0.6,1-1,1.9-1c0.8,0,1.4,0.2,1.8,0.6s0.6,1,0.6,1.8V152.2z"/>
			<path d="M177.5,149c0,1.1-0.3,1.9-0.8,2.5s-1.3,0.9-2.3,0.9c-0.6,0-1.2-0.1-1.7-0.4s-0.8-0.7-1.1-1.2s-0.4-1.1-0.4-1.8
				c0-1.1,0.3-1.9,0.8-2.5s1.3-0.9,2.4-0.9c0.6,0,1.2,0.1,1.7,0.4s0.8,0.7,1.1,1.2S177.5,148.3,177.5,149z M172.9,149
				c0,0.6,0.1,1.1,0.3,1.5s0.6,0.5,1,0.5c0.5,0,0.8-0.2,1-0.5s0.3-0.8,0.3-1.5c0-0.6-0.1-1.1-0.3-1.5s-0.6-0.5-1-0.5
				c-0.5,0-0.8,0.2-1,0.5S172.9,148.3,172.9,149z"/>
			<path d="M183.6,152.2l-0.2-0.8h-0.1c-0.2,0.3-0.5,0.5-0.8,0.7s-0.8,0.2-1.2,0.2c-0.8,0-1.3-0.2-1.7-0.6s-0.6-1-0.6-1.8v-4.3h1.8
				v3.8c0,0.5,0.1,0.8,0.3,1.1s0.4,0.4,0.8,0.4c0.5,0,0.9-0.2,1.1-0.5s0.3-0.9,0.3-1.7v-3.1h1.8v6.6H183.6z"/>
			<path d="M189.6,150.9c0.3,0,0.7-0.1,1.1-0.2v1.3c-0.4,0.2-1,0.3-1.6,0.3c-0.7,0-1.2-0.2-1.6-0.5s-0.5-0.9-0.5-1.6V147h-0.9v-0.8
				l1-0.6l0.5-1.4h1.1v1.4h1.8v1.3h-1.8v3.2c0,0.3,0.1,0.4,0.2,0.6S189.3,150.9,189.6,150.9z"/>
			<path d="M123.3,165.3c0.3,0,0.7-0.1,1.1-0.2v1.3c-0.4,0.2-1,0.3-1.6,0.3c-0.7,0-1.2-0.2-1.6-0.5s-0.5-0.9-0.5-1.6v-3.2h-0.9v-0.8
				l1-0.6l0.5-1.4h1.1v1.4h1.8v1.3h-1.8v3.2c0,0.3,0.1,0.4,0.2,0.6S123.1,165.3,123.3,165.3z"/>
			<path d="M131.8,166.6H130v-3.8c0-0.9-0.4-1.4-1.1-1.4c-0.5,0-0.9,0.2-1.1,0.5c-0.2,0.3-0.3,0.9-0.3,1.7v3.1h-1.8v-9.1h1.8v1.9
				c0,0.1,0,0.5,0,1l0,0.5h0.1c0.4-0.6,1-1,1.9-1c0.8,0,1.4,0.2,1.8,0.6s0.6,1,0.6,1.8V166.6z"/>
			<path d="M136.6,166.8c-1.1,0-1.9-0.3-2.5-0.9s-0.9-1.4-0.9-2.5c0-1.1,0.3-1.9,0.8-2.5s1.3-0.9,2.3-0.9c0.9,0,1.6,0.3,2.2,0.8
				s0.8,1.3,0.8,2.2v0.9H135c0,0.5,0.2,0.9,0.5,1.2s0.7,0.4,1.2,0.4c0.4,0,0.8,0,1.1-0.1s0.7-0.2,1.1-0.4v1.4
				c-0.3,0.2-0.6,0.3-1,0.3S137.1,166.8,136.6,166.8z M136.3,161.2c-0.4,0-0.7,0.1-0.9,0.4s-0.3,0.6-0.4,1h2.5c0-0.4-0.1-0.8-0.3-1
				S136.7,161.2,136.3,161.2z"/>
			<path d="M151.1,162.3c0,1.4-0.4,2.5-1.2,3.2s-2,1.1-3.5,1.1H144v-8.6h2.7c1.4,0,2.5,0.4,3.3,1.1S151.1,161,151.1,162.3z
				 M149.2,162.3c0-1.8-0.8-2.8-2.4-2.8h-1v5.6h0.8C148.3,165.1,149.2,164.2,149.2,162.3z"/>
			<path d="M155.7,166.8c-1.1,0-1.9-0.3-2.5-0.9s-0.9-1.4-0.9-2.5c0-1.1,0.3-1.9,0.8-2.5s1.3-0.9,2.3-0.9c0.9,0,1.6,0.3,2.2,0.8
				s0.8,1.3,0.8,2.2v0.9h-4.2c0,0.5,0.2,0.9,0.5,1.2s0.7,0.4,1.2,0.4c0.4,0,0.8,0,1.1-0.1s0.7-0.2,1.1-0.4v1.4
				c-0.3,0.2-0.6,0.3-1,0.3S156.2,166.8,155.7,166.8z M155.4,161.2c-0.4,0-0.7,0.1-0.9,0.4s-0.3,0.6-0.4,1h2.5c0-0.4-0.1-0.8-0.3-1
				S155.8,161.2,155.4,161.2z"/>
			<path d="M162.5,166.8c-2,0-3.1-1.1-3.1-3.4c0-1.1,0.3-2,0.8-2.6s1.3-0.9,2.4-0.9c0.8,0,1.4,0.1,2,0.4l-0.5,1.4
				c-0.3-0.1-0.5-0.2-0.8-0.3s-0.5-0.1-0.7-0.1c-0.9,0-1.4,0.7-1.4,2c0,1.3,0.5,1.9,1.4,1.9c0.3,0,0.7,0,1-0.1s0.6-0.2,0.9-0.4v1.5
				c-0.3,0.2-0.6,0.3-0.9,0.4S162.9,166.8,162.5,166.8z"/>
			<path d="M170.1,166.6l-0.3-0.9h0c-0.3,0.4-0.6,0.6-0.9,0.8s-0.7,0.2-1.2,0.2c-0.6,0-1.1-0.2-1.5-0.5s-0.5-0.9-0.5-1.5
				c0-0.7,0.2-1.2,0.7-1.5s1.2-0.5,2.2-0.5l1.1,0v-0.3c0-0.7-0.3-1-1-1c-0.5,0-1.1,0.2-1.8,0.5l-0.6-1.2c0.8-0.4,1.6-0.6,2.5-0.6
				c0.9,0,1.6,0.2,2,0.6s0.7,1,0.7,1.7v4.4H170.1z M169.6,163.6l-0.7,0c-0.5,0-0.9,0.1-1.2,0.3s-0.4,0.4-0.4,0.8
				c0,0.5,0.3,0.8,0.9,0.8c0.4,0,0.7-0.1,1-0.4s0.4-0.6,0.4-0.9V163.6z"/>
			<path d="M175.3,166.8c-0.8,0-1.4-0.3-1.8-0.9s-0.7-1.4-0.7-2.5c0-1.1,0.2-1.9,0.7-2.5s1.1-0.9,1.8-0.9c0.8,0,1.5,0.3,1.9,1h0.1
				c-0.1-0.5-0.1-0.9-0.1-1.3v-2.1h1.8v9.1h-1.4l-0.3-0.8h-0.1C176.8,166.4,176.1,166.8,175.3,166.8z M175.9,165.3
				c0.5,0,0.8-0.1,1-0.4s0.3-0.7,0.3-1.4v-0.2c0-0.7-0.1-1.2-0.3-1.5s-0.6-0.5-1.1-0.5c-0.4,0-0.7,0.2-0.9,0.5s-0.3,0.8-0.3,1.5
				s0.1,1.1,0.3,1.5S175.5,165.3,175.9,165.3z"/>
			<path d="M183.8,166.8c-1.1,0-1.9-0.3-2.5-0.9s-0.9-1.4-0.9-2.5c0-1.1,0.3-1.9,0.8-2.5s1.3-0.9,2.3-0.9c0.9,0,1.6,0.3,2.2,0.8
				s0.8,1.3,0.8,2.2v0.9h-4.2c0,0.5,0.2,0.9,0.5,1.2s0.7,0.4,1.2,0.4c0.4,0,0.8,0,1.1-0.1s0.7-0.2,1.1-0.4v1.4
				c-0.3,0.2-0.6,0.3-1,0.3S184.3,166.8,183.8,166.8z M183.5,161.2c-0.4,0-0.7,0.1-0.9,0.4s-0.3,0.6-0.4,1h2.5c0-0.4-0.1-0.8-0.3-1
				S183.9,161.2,183.5,161.2z"/>
			<path d="M192.5,164.7c0,0.7-0.2,1.2-0.7,1.5s-1.2,0.5-2.1,0.5c-0.5,0-0.9,0-1.2-0.1s-0.7-0.2-0.9-0.3v-1.5
				c0.3,0.2,0.7,0.3,1.1,0.4s0.8,0.2,1.1,0.2c0.6,0,1-0.2,1-0.6c0-0.1,0-0.3-0.1-0.3s-0.2-0.2-0.4-0.3s-0.5-0.2-0.8-0.4
				c-0.5-0.2-0.9-0.4-1.1-0.6s-0.4-0.4-0.5-0.6s-0.2-0.5-0.2-0.9c0-0.6,0.2-1,0.7-1.4s1.1-0.5,1.9-0.5c0.8,0,1.6,0.2,2.3,0.5
				l-0.5,1.3c-0.3-0.1-0.6-0.3-0.9-0.3s-0.6-0.1-0.9-0.1c-0.5,0-0.8,0.1-0.8,0.4c0,0.2,0.1,0.3,0.3,0.4s0.5,0.3,1.1,0.5
				c0.5,0.2,0.9,0.4,1.1,0.6s0.4,0.4,0.5,0.6S192.5,164.4,192.5,164.7z"/>
		</g>
	</g>
</g>
<g>
	<path class="st3" d="M78.9,23.2h-1.8v-5l0-0.8l0-0.9c-0.3,0.3-0.5,0.5-0.6,0.6l-1,0.8l-0.9-1.1l2.8-2.2h1.5V23.2z"/>
	<path class="st3" d="M85.7,23.2h-1.8v-5l0-0.8l0-0.9c-0.3,0.3-0.5,0.5-0.6,0.6l-1,0.8l-0.9-1.1l2.8-2.2h1.5V23.2z"/>
	<path class="st3" d="M96.3,21.2c0,0.7-0.2,1.2-0.7,1.5s-1.2,0.5-2.1,0.5c-0.5,0-0.9,0-1.2-0.1s-0.7-0.2-0.9-0.3v-1.5
		c0.3,0.2,0.7,0.3,1.1,0.4s0.8,0.2,1.1,0.2c0.6,0,1-0.2,1-0.6c0-0.1,0-0.3-0.1-0.3s-0.2-0.2-0.4-0.3s-0.5-0.2-0.8-0.4
		c-0.5-0.2-0.9-0.4-1.1-0.6s-0.4-0.4-0.5-0.6s-0.2-0.5-0.2-0.9c0-0.6,0.2-1,0.7-1.4s1.1-0.5,1.9-0.5c0.8,0,1.6,0.2,2.3,0.5l-0.5,1.3
		c-0.3-0.1-0.6-0.3-0.9-0.3s-0.6-0.1-0.9-0.1c-0.5,0-0.8,0.1-0.8,0.4c0,0.2,0.1,0.3,0.3,0.4s0.5,0.3,1.1,0.5
		c0.5,0.2,0.9,0.4,1.1,0.6s0.4,0.4,0.5,0.6S96.3,20.9,96.3,21.2z"/>
	<path class="st3" d="M100.4,21.9c0.3,0,0.7-0.1,1.1-0.2V23c-0.4,0.2-1,0.3-1.6,0.3c-0.7,0-1.2-0.2-1.6-0.5s-0.5-0.9-0.5-1.6V18H97
		v-0.8l1-0.6l0.5-1.4h1.1v1.4h1.8V18h-1.8v3.2c0,0.3,0.1,0.4,0.2,0.6S100.2,21.9,100.4,21.9z"/>
	<path class="st3" d="M106.5,16.5c0.2,0,0.4,0,0.6,0.1l-0.1,1.7c-0.1,0-0.3-0.1-0.5-0.1c-0.6,0-1,0.1-1.3,0.4s-0.5,0.7-0.5,1.2v3.3
		h-1.8v-6.6h1.4l0.3,1.1h0.1c0.2-0.4,0.5-0.7,0.8-0.9S106.1,16.5,106.5,16.5z"/>
	<path class="st3" d="M111.2,23.3c-1.1,0-1.9-0.3-2.5-0.9s-0.9-1.4-0.9-2.5c0-1.1,0.3-1.9,0.8-2.5s1.3-0.9,2.3-0.9
		c0.9,0,1.6,0.3,2.2,0.8s0.8,1.3,0.8,2.2v0.9h-4.2c0,0.5,0.2,0.9,0.5,1.2s0.7,0.4,1.2,0.4c0.4,0,0.8,0,1.1-0.1s0.7-0.2,1.1-0.4v1.4
		c-0.3,0.2-0.6,0.3-1,0.3S111.7,23.3,111.2,23.3z M110.9,17.8c-0.4,0-0.7,0.1-0.9,0.4s-0.3,0.6-0.4,1h2.5c0-0.4-0.1-0.8-0.3-1
		S111.3,17.8,110.9,17.8z"/>
	<path class="st3" d="M118.2,23.3c-1.1,0-1.9-0.3-2.5-0.9s-0.9-1.4-0.9-2.5c0-1.1,0.3-1.9,0.8-2.5s1.3-0.9,2.3-0.9
		c0.9,0,1.6,0.3,2.2,0.8s0.8,1.3,0.8,2.2v0.9h-4.2c0,0.5,0.2,0.9,0.5,1.2s0.7,0.4,1.2,0.4c0.4,0,0.8,0,1.1-0.1s0.7-0.2,1.1-0.4v1.4
		c-0.3,0.2-0.6,0.3-1,0.3S118.8,23.3,118.2,23.3z M118,17.8c-0.4,0-0.7,0.1-0.9,0.4s-0.3,0.6-0.4,1h2.5c0-0.4-0.1-0.8-0.3-1
		S118.4,17.8,118,17.8z"/>
	<path class="st3" d="M125.1,21.9c0.3,0,0.7-0.1,1.1-0.2V23c-0.4,0.2-1,0.3-1.6,0.3c-0.7,0-1.2-0.2-1.6-0.5s-0.5-0.9-0.5-1.6V18
		h-0.9v-0.8l1-0.6l0.5-1.4h1.1v1.4h1.8V18h-1.8v3.2c0,0.3,0.1,0.4,0.2,0.6S124.9,21.9,125.1,21.9z"/>
</g>
<polygon class="st4" points="55.1,123 61.7,114.7 64.6,124.9 74,119.7 72.7,130.4 83.3,129.1 78.2,138.5 88.4,141.4 80.1,148 
	88.4,154.7 78.2,157.6 83.3,166.9 72.7,165.7 74,176.3 64.6,171.1 61.7,181.4 55.1,173 48.4,181.4 45.5,171.1 36.2,176.3 
	37.4,165.7 26.8,166.9 32,157.6 21.7,154.7 30.1,148 21.7,141.4 32,138.5 26.8,129.1 37.4,130.4 36.2,119.7 45.5,124.9 48.4,114.7 
	"/>
<g>
	<path d="M41.5,143.3c0-3.3,2.7-5.6,5.7-5.6c3,0,5.7,2.3,5.7,5.6c0,3.3-2.7,5.6-5.7,5.6C44.2,148.9,41.5,146.5,41.5,143.3z
		 M49.5,143.3c0-1.4-1.1-2.4-2.3-2.4c-1.2,0-2.3,0.9-2.3,2.4c0,1.4,1.1,2.4,2.3,2.4C48.5,145.7,49.5,144.7,49.5,143.3z M58.9,138
		h3.9l-11.7,20h-3.9L58.9,138z M57.1,152.8c0-3.3,2.7-5.6,5.7-5.6c3,0,5.7,2.3,5.7,5.6s-2.7,5.6-5.7,5.6
		C59.8,158.4,57.1,156,57.1,152.8z M65.1,152.8c0-1.4-1.1-2.4-2.3-2.4c-1.2,0-2.3,0.9-2.3,2.4c0,1.4,1.1,2.4,2.3,2.4
		C64.1,155.2,65.1,154.2,65.1,152.8z"/>
</g>
<polygon points="119.6,174.1 128.3,179.1 119.6,184.1 "/>
</svg>