<!-- Generator: Adobe Illustrator 19.0.0, SVG Export Plug-In  -->
<svg version="1.1"
	 xmlns="http://www.w3.org/2000/svg" xmlns:xlink="http://www.w3.org/1999/xlink" xmlns:a="http://ns.adobe.com/AdobeSVGViewerExtensions/3.0/"
	 x="0px" y="0px" width="203px" height="203px" viewBox="0 0 203 203" style="enable-background:new 0 0 203 203;"
	 xml:space="preserve">
<style type="text/css">
	.st0{fill:#E0E0E0;stroke:#15103F;stroke-width:3;stroke-miterlimit:10;}
	.st1{fill:#EE2361;stroke:#15103F;stroke-width:3;stroke-miterlimit:10;}
	.st2{fill:#FFFFFF;}
</style>
<defs>
</defs>
<rect x="1.5" y="1.5" class="st0" width="200" height="200"/>
<rect x="1.5" y="1.5" class="st1" width="200" height="100"/>
<g>
	<path class="st2" d="M60.5,21.4c0,0.8-0.3,1.4-0.8,1.8s-1.3,0.7-2.3,0.7c-0.9,0-1.7-0.2-2.4-0.5v-1.7c0.6,0.3,1.1,0.4,1.5,0.5
		s0.8,0.2,1.1,0.2c0.4,0,0.7-0.1,0.9-0.2s0.3-0.4,0.3-0.7c0-0.2,0-0.3-0.1-0.4s-0.2-0.3-0.4-0.4s-0.6-0.3-1.1-0.6
		c-0.5-0.2-0.9-0.5-1.2-0.7s-0.5-0.5-0.6-0.8S55,17.9,55,17.5c0-0.8,0.3-1.4,0.8-1.8c0.5-0.4,1.2-0.7,2.1-0.7c0.4,0,0.9,0.1,1.3,0.2
		s0.8,0.3,1.3,0.4l-0.6,1.4c-0.5-0.2-0.8-0.3-1.1-0.4s-0.6-0.1-0.9-0.1c-0.3,0-0.6,0.1-0.8,0.2s-0.3,0.4-0.3,0.6
		c0,0.2,0,0.3,0.1,0.4s0.2,0.2,0.4,0.3s0.5,0.3,1.2,0.6c0.8,0.4,1.3,0.8,1.6,1.2S60.5,20.8,60.5,21.4z"/>
	<path class="st2" d="M64.7,22.5c0.3,0,0.7-0.1,1.1-0.2v1.3c-0.4,0.2-1,0.3-1.6,0.3c-0.7,0-1.2-0.2-1.6-0.5s-0.5-0.9-0.5-1.6v-3.2
		h-0.9v-0.8l1-0.6l0.5-1.4h1.1v1.4h1.8v1.3h-1.8v3.2c0,0.3,0.1,0.4,0.2,0.6C64.2,22.4,64.4,22.5,64.7,22.5z"/>
	<path class="st2" d="M70.8,17.1c0.2,0,0.4,0,0.6,0.1l-0.1,1.7c-0.1,0-0.3-0.1-0.5-0.1c-0.6,0-1,0.1-1.3,0.4s-0.5,0.7-0.5,1.2v3.3
		h-1.8v-6.6h1.4l0.3,1.1h0.1c0.2-0.4,0.5-0.7,0.8-0.9S70.4,17.1,70.8,17.1z"/>
	<path class="st2" d="M76.6,23.8l-0.3-0.9h0c-0.3,0.4-0.6,0.6-0.9,0.8s-0.7,0.2-1.2,0.2c-0.6,0-1.1-0.2-1.5-0.5S72,22.5,72,21.8
		c0-0.7,0.2-1.2,0.7-1.5s1.2-0.5,2.2-0.5l1.1,0v-0.3c0-0.7-0.3-1-1-1c-0.5,0-1.1,0.2-1.8,0.5l-0.6-1.2c0.8-0.4,1.6-0.6,2.5-0.6
		c0.9,0,1.6,0.2,2,0.6s0.7,1,0.7,1.7v4.4H76.6z M76.1,20.7l-0.7,0c-0.5,0-0.9,0.1-1.2,0.3s-0.4,0.4-0.4,0.8c0,0.5,0.3,0.8,0.9,0.8
		c0.4,0,0.7-0.1,1-0.4s0.4-0.6,0.4-0.9V20.7z"/>
	<path class="st2" d="M85.1,23.8l-0.5-2.3l-0.7-2.9h-0.1l-1.2,5.2h-1.9l-1.9-6.6h1.8l0.8,2.9c0.1,0.3,0.2,1.1,0.4,2.2h0
		c0-0.3,0.1-0.8,0.2-1.4l0.1-0.5l0.8-3.1h2l0.8,3.1c0,0.2,0.1,0.5,0.2,0.9s0.1,0.7,0.1,1h0c0-0.3,0.1-0.7,0.2-1.2s0.1-0.8,0.2-1
		l0.8-2.9h1.8L87,23.8H85.1z"/>
	<path class="st2" d="M93.6,17.1c0.8,0,1.4,0.3,1.8,0.9s0.7,1.4,0.7,2.5c0,1.1-0.2,1.9-0.7,2.5s-1.1,0.9-1.8,0.9
		c-0.8,0-1.4-0.3-1.8-0.8h-0.1l-0.3,0.7H90v-9.1h1.8v2.1c0,0.3,0,0.7-0.1,1.3h0.1C92.2,17.4,92.8,17.1,93.6,17.1z M93,18.5
		c-0.4,0-0.8,0.1-1,0.4s-0.3,0.7-0.3,1.3v0.2c0,0.7,0.1,1.2,0.3,1.5s0.5,0.5,1,0.5c0.4,0,0.7-0.2,0.9-0.5s0.3-0.8,0.3-1.5
		s-0.1-1.1-0.3-1.4S93.4,18.5,93,18.5z"/>
	<path class="st2" d="M100.5,23.9c-1.1,0-1.9-0.3-2.5-0.9s-0.9-1.4-0.9-2.5c0-1.1,0.3-1.9,0.8-2.5s1.3-0.9,2.3-0.9
		c0.9,0,1.6,0.3,2.2,0.8s0.8,1.3,0.8,2.2V21H99c0,0.5,0.2,0.9,0.5,1.2s0.7,0.4,1.2,0.4c0.4,0,0.8,0,1.1-0.1s0.7-0.2,1.1-0.4v1.4
		c-0.3,0.2-0.6,0.3-1,0.3S101,23.9,100.5,23.9z M100.3,18.4c-0.4,0-0.7,0.1-0.9,0.4s-0.3,0.6-0.4,1h2.5c0-0.4-0.1-0.8-0.3-1
		S100.6,18.4,100.3,18.4z"/>
	<path class="st2" d="M108.3,17.1c0.2,0,0.4,0,0.6,0.1l-0.1,1.7c-0.1,0-0.3-0.1-0.5-0.1c-0.6,0-1,0.1-1.3,0.4s-0.5,0.7-0.5,1.2v3.3
		h-1.8v-6.6h1.4l0.3,1.1h0.1c0.2-0.4,0.5-0.7,0.8-0.9S107.9,17.1,108.3,17.1z"/>
	<path class="st2" d="M113.8,17.1c0.2,0,0.4,0,0.6,0.1l-0.1,1.7c-0.1,0-0.3-0.1-0.5-0.1c-0.6,0-1,0.1-1.3,0.4s-0.5,0.7-0.5,1.2v3.3
		h-1.8v-6.6h1.4l0.3,1.1h0.1c0.2-0.4,0.5-0.7,0.8-0.9S113.3,17.1,113.8,17.1z"/>
	<path class="st2" d="M114.6,17.2h2l1.2,3.7c0.1,0.3,0.2,0.7,0.2,1.1h0c0-0.4,0.1-0.8,0.3-1.1l1.2-3.7h1.9l-2.8,7.4
		c-0.3,0.7-0.6,1.2-1.1,1.5s-1,0.5-1.6,0.5c-0.3,0-0.6,0-0.9-0.1v-1.4c0.2,0.1,0.4,0.1,0.7,0.1c0.3,0,0.6-0.1,0.8-0.3
		s0.4-0.5,0.6-0.9l0.1-0.3L114.6,17.2z"/>
	<path class="st2" d="M121.9,22.9c0-0.3,0.1-0.6,0.3-0.7s0.4-0.3,0.8-0.3c0.3,0,0.6,0.1,0.8,0.3s0.3,0.4,0.3,0.7
		c0,0.3-0.1,0.6-0.3,0.7s-0.4,0.3-0.8,0.3c-0.3,0-0.6-0.1-0.8-0.3S121.9,23.3,121.9,22.9z"/>
	<path class="st2" d="M131.6,23.8h-1.8V20c0-0.5-0.1-0.8-0.3-1.1s-0.4-0.4-0.8-0.4c-0.5,0-0.9,0.2-1.1,0.5s-0.3,0.9-0.3,1.7v3.1
		h-1.8v-6.6h1.4l0.2,0.8h0.1c0.2-0.3,0.5-0.6,0.8-0.7c0.3-0.2,0.7-0.2,1.2-0.2c0.8,0,1.3,0.2,1.7,0.6s0.6,1,0.6,1.8V23.8z"/>
	<path class="st2" d="M136.4,23.9c-1.1,0-1.9-0.3-2.5-0.9s-0.9-1.4-0.9-2.5c0-1.1,0.3-1.9,0.8-2.5s1.3-0.9,2.3-0.9
		c0.9,0,1.6,0.3,2.2,0.8s0.8,1.3,0.8,2.2V21h-4.2c0,0.5,0.2,0.9,0.5,1.2s0.7,0.4,1.2,0.4c0.4,0,0.8,0,1.1-0.1s0.7-0.2,1.1-0.4v1.4
		c-0.3,0.2-0.6,0.3-1,0.3S136.9,23.9,136.4,23.9z M136.2,18.4c-0.4,0-0.7,0.1-0.9,0.4s-0.3,0.6-0.4,1h2.5c0-0.4-0.1-0.8-0.3-1
		S136.5,18.4,136.2,18.4z"/>
	<path class="st2" d="M143.3,22.5c0.3,0,0.7-0.1,1.1-0.2v1.3c-0.4,0.2-1,0.3-1.6,0.3c-0.7,0-1.2-0.2-1.6-0.5s-0.5-0.9-0.5-1.6v-3.2
		h-0.9v-0.8l1-0.6l0.5-1.4h1.1v1.4h1.8v1.3h-1.8v3.2c0,0.3,0.1,0.4,0.2,0.6S143.1,22.5,143.3,22.5z"/>
</g>
<g>
	<path class="st2" d="M23.3,48.3c0,1-0.4,1.8-1.1,2.4s-1.8,0.9-3.1,0.9c-1.2,0-2.3-0.2-3.2-0.7v-2.3c0.8,0.3,1.4,0.6,2,0.7
		c0.5,0.1,1,0.2,1.5,0.2c0.5,0,0.9-0.1,1.2-0.3c0.3-0.2,0.4-0.5,0.4-0.9c0-0.2-0.1-0.4-0.2-0.6s-0.3-0.3-0.6-0.5s-0.7-0.4-1.5-0.8
		c-0.7-0.3-1.2-0.6-1.6-0.9c-0.3-0.3-0.6-0.7-0.8-1.1c-0.2-0.4-0.3-0.9-0.3-1.4c0-1,0.3-1.8,1-2.4c0.7-0.6,1.6-0.9,2.8-0.9
		c0.6,0,1.2,0.1,1.7,0.2s1.1,0.3,1.7,0.6l-0.8,1.9c-0.6-0.3-1.1-0.4-1.5-0.5s-0.8-0.1-1.2-0.1c-0.5,0-0.8,0.1-1.1,0.3
		c-0.2,0.2-0.4,0.5-0.4,0.8c0,0.2,0,0.4,0.1,0.6c0.1,0.2,0.3,0.3,0.5,0.5c0.2,0.1,0.7,0.4,1.5,0.8c1.1,0.5,1.8,1,2.2,1.5
		C23.1,47,23.3,47.6,23.3,48.3z"/>
	<path class="st2" d="M30,51.7c-1,0-1.8-0.4-2.4-1.1h-0.1c0.1,0.7,0.1,1.2,0.1,1.3v3.5h-2.4V42.8h1.9l0.3,1.1h0.1
		c0.6-0.9,1.4-1.3,2.5-1.3c1,0,1.8,0.4,2.4,1.2c0.6,0.8,0.9,1.9,0.9,3.3c0,0.9-0.1,1.7-0.4,2.4s-0.7,1.2-1.2,1.6
		C31.2,51.5,30.6,51.7,30,51.7z M29.3,44.5c-0.6,0-1,0.2-1.3,0.5c-0.3,0.4-0.4,1-0.4,1.8v0.3c0,0.9,0.1,1.6,0.4,2
		c0.3,0.4,0.7,0.6,1.3,0.6c1.1,0,1.6-0.9,1.6-2.6c0-0.9-0.1-1.5-0.4-1.9C30.2,44.7,29.8,44.5,29.3,44.5z"/>
	<path class="st2" d="M39.2,51.7c-1.4,0-2.5-0.4-3.3-1.2c-0.8-0.8-1.2-1.9-1.2-3.3c0-1.5,0.4-2.6,1.1-3.4c0.7-0.8,1.7-1.2,3-1.2
		c1.2,0,2.2,0.4,2.9,1.1s1,1.7,1,2.9v1.2h-5.6c0,0.7,0.2,1.2,0.6,1.6s0.9,0.6,1.6,0.6c0.5,0,1-0.1,1.5-0.2s1-0.3,1.5-0.5V51
		c-0.4,0.2-0.9,0.4-1.3,0.5C40.5,51.6,39.9,51.7,39.2,51.7z M38.9,44.3c-0.5,0-0.9,0.2-1.2,0.5c-0.3,0.3-0.5,0.8-0.5,1.4h3.3
		c0-0.6-0.2-1-0.5-1.4S39.4,44.3,38.9,44.3z"/>
	<path class="st2" d="M48.3,51.7c-2.7,0-4.1-1.5-4.1-4.5c0-1.5,0.4-2.6,1.1-3.4c0.7-0.8,1.8-1.2,3.2-1.2c1,0,1.9,0.2,2.7,0.6
		L50.5,45c-0.4-0.2-0.7-0.3-1-0.4c-0.3-0.1-0.6-0.1-1-0.1c-1.2,0-1.9,0.9-1.9,2.6c0,1.7,0.6,2.6,1.9,2.6c0.5,0,0.9-0.1,1.3-0.2
		s0.8-0.3,1.2-0.6v2c-0.4,0.2-0.8,0.4-1.2,0.5C49.4,51.6,48.9,51.7,48.3,51.7z"/>
	<path class="st2" d="M52.9,40.5c0-0.8,0.4-1.2,1.3-1.2c0.9,0,1.3,0.4,1.3,1.2c0,0.4-0.1,0.7-0.3,0.9c-0.2,0.2-0.5,0.3-1,0.3
		C53.3,41.7,52.9,41.3,52.9,40.5z M55.4,51.5H53v-8.7h2.4V51.5z"/>
	<path class="st2" d="M63.4,51.5l-0.5-1.2h-0.1c-0.4,0.5-0.8,0.9-1.2,1.1c-0.4,0.2-1,0.3-1.7,0.3c-0.8,0-1.5-0.2-2-0.7
		c-0.5-0.5-0.7-1.2-0.7-2c0-0.9,0.3-1.6,1-2.1s1.6-0.7,2.9-0.7l1.5,0v-0.4c0-0.9-0.5-1.3-1.4-1.3c-0.7,0-1.5,0.2-2.5,0.6l-0.8-1.6
		c1-0.5,2.1-0.8,3.3-0.8c1.2,0,2.1,0.3,2.7,0.8c0.6,0.5,0.9,1.3,0.9,2.3v5.8H63.4z M62.7,47.5l-0.9,0c-0.7,0-1.2,0.1-1.5,0.4
		c-0.3,0.2-0.5,0.6-0.5,1c0,0.7,0.4,1,1.2,1c0.6,0,1-0.2,1.3-0.5c0.3-0.3,0.5-0.7,0.5-1.3V47.5z"/>
	<path class="st2" d="M69.9,51.5h-2.4V39.3h2.4V51.5z"/>
	<path class="st2" d="M84.6,43.6c0,1.2-0.4,2.2-1.2,2.8c-0.8,0.7-1.9,1-3.3,1h-1v4.1h-2.4V40.1h3.6c1.4,0,2.4,0.3,3.2,0.9
		C84.3,41.6,84.6,42.5,84.6,43.6z M79.2,45.5H80c0.7,0,1.3-0.1,1.7-0.4c0.4-0.3,0.6-0.7,0.6-1.3c0-0.6-0.2-1-0.5-1.3
		c-0.3-0.3-0.8-0.4-1.5-0.4h-1.1V45.5z"/>
	<path class="st2" d="M92.8,51.5l-0.3-1.1h-0.1c-0.3,0.4-0.6,0.7-1.1,0.9s-1,0.3-1.6,0.3c-1,0-1.8-0.3-2.3-0.8
		c-0.5-0.5-0.8-1.3-0.8-2.4v-5.7h2.4v5.1c0,0.6,0.1,1.1,0.3,1.4c0.2,0.3,0.6,0.5,1.1,0.5c0.7,0,1.1-0.2,1.4-0.7s0.4-1.2,0.4-2.2
		v-4.1h2.4v8.7H92.8z"/>
	<path class="st2" d="M102,42.6c0.3,0,0.6,0,0.8,0.1l-0.2,2.2c-0.2-0.1-0.4-0.1-0.7-0.1c-0.8,0-1.4,0.2-1.8,0.6
		c-0.4,0.4-0.6,0.9-0.6,1.6v4.4h-2.4v-8.7h1.8l0.4,1.5h0.1c0.3-0.5,0.6-0.9,1.1-1.2S101.5,42.6,102,42.6z"/>
	<path class="st2" d="M107.8,51.7c-2.7,0-4.1-1.5-4.1-4.5c0-1.5,0.4-2.6,1.1-3.4c0.7-0.8,1.8-1.2,3.2-1.2c1,0,1.9,0.2,2.7,0.6
		L110,45c-0.4-0.2-0.7-0.3-1-0.4c-0.3-0.1-0.6-0.1-1-0.1c-1.2,0-1.9,0.9-1.9,2.6c0,1.7,0.6,2.6,1.9,2.6c0.5,0,0.9-0.1,1.3-0.2
		s0.8-0.3,1.2-0.6v2c-0.4,0.2-0.8,0.4-1.2,0.5C108.9,51.6,108.4,51.7,107.8,51.7z"/>
	<path class="st2" d="M120.5,51.5h-2.4v-5.1c0-1.3-0.5-1.9-1.4-1.9c-0.7,0-1.1,0.2-1.4,0.7s-0.4,1.2-0.4,2.2v4.1h-2.4V39.3h2.4v2.5
		c0,0.2,0,0.6-0.1,1.4l-0.1,0.7h0.1c0.5-0.9,1.4-1.3,2.5-1.3c1,0,1.8,0.3,2.3,0.8s0.8,1.3,0.8,2.4V51.5z"/>
	<path class="st2" d="M128.5,51.5l-0.5-1.2H128c-0.4,0.5-0.8,0.9-1.2,1.1c-0.4,0.2-1,0.3-1.7,0.3c-0.8,0-1.5-0.2-2-0.7
		c-0.5-0.5-0.7-1.2-0.7-2c0-0.9,0.3-1.6,1-2.1s1.6-0.7,2.9-0.7l1.5,0v-0.4c0-0.9-0.5-1.3-1.4-1.3c-0.7,0-1.5,0.2-2.5,0.6l-0.8-1.6
		c1-0.5,2.1-0.8,3.3-0.8c1.2,0,2.1,0.3,2.7,0.8s0.9,1.3,0.9,2.3v5.8H128.5z M127.8,47.5l-0.9,0c-0.7,0-1.2,0.1-1.5,0.4
		c-0.3,0.2-0.5,0.6-0.5,1c0,0.7,0.4,1,1.2,1c0.6,0,1-0.2,1.3-0.5c0.3-0.3,0.5-0.7,0.5-1.3V47.5z"/>
	<path class="st2" d="M138.7,48.9c0,0.9-0.3,1.6-0.9,2c-0.6,0.5-1.6,0.7-2.8,0.7c-0.6,0-1.2,0-1.6-0.1c-0.4-0.1-0.9-0.2-1.3-0.4v-2
		c0.4,0.2,0.9,0.4,1.5,0.5s1,0.2,1.5,0.2c0.9,0,1.3-0.3,1.3-0.8c0-0.2-0.1-0.3-0.2-0.5c-0.1-0.1-0.3-0.3-0.6-0.4s-0.7-0.3-1.1-0.5
		c-0.7-0.3-1.2-0.5-1.5-0.8c-0.3-0.2-0.5-0.5-0.7-0.8c-0.1-0.3-0.2-0.7-0.2-1.1c0-0.8,0.3-1.4,0.9-1.8s1.5-0.6,2.6-0.6
		c1.1,0,2.1,0.2,3.1,0.7l-0.7,1.7c-0.4-0.2-0.8-0.3-1.2-0.5c-0.4-0.1-0.8-0.2-1.2-0.2c-0.7,0-1.1,0.2-1.1,0.6c0,0.2,0.1,0.4,0.3,0.6
		s0.7,0.4,1.5,0.7c0.7,0.3,1.2,0.5,1.5,0.8c0.3,0.2,0.6,0.5,0.7,0.8C138.7,48.1,138.7,48.5,138.7,48.9z"/>
	<path class="st2" d="M144.5,51.7c-1.4,0-2.5-0.4-3.3-1.2c-0.8-0.8-1.2-1.9-1.2-3.3c0-1.5,0.4-2.6,1.1-3.4c0.7-0.8,1.7-1.2,3-1.2
		c1.2,0,2.2,0.4,2.9,1.1s1,1.7,1,2.9v1.2h-5.6c0,0.7,0.2,1.2,0.6,1.6s0.9,0.6,1.6,0.6c0.5,0,1-0.1,1.5-0.2s1-0.3,1.5-0.5V51
		c-0.4,0.2-0.9,0.4-1.3,0.5C145.8,51.6,145.2,51.7,144.5,51.7z M144.2,44.3c-0.5,0-0.9,0.2-1.2,0.5c-0.3,0.3-0.5,0.8-0.5,1.4h3.3
		c0-0.6-0.2-1-0.5-1.4S144.7,44.3,144.2,44.3z"/>
	<path class="st2" d="M161.1,48.3c0,1-0.4,1.8-1.1,2.4s-1.8,0.9-3.1,0.9c-1.2,0-2.3-0.2-3.2-0.7v-2.3c0.8,0.3,1.4,0.6,2,0.7
		c0.5,0.1,1,0.2,1.5,0.2c0.5,0,0.9-0.1,1.2-0.3c0.3-0.2,0.4-0.5,0.4-0.9c0-0.2-0.1-0.4-0.2-0.6s-0.3-0.3-0.6-0.5s-0.7-0.4-1.5-0.8
		c-0.7-0.3-1.2-0.6-1.6-0.9c-0.3-0.3-0.6-0.7-0.8-1.1c-0.2-0.4-0.3-0.9-0.3-1.4c0-1,0.3-1.8,1-2.4c0.7-0.6,1.6-0.9,2.8-0.9
		c0.6,0,1.2,0.1,1.7,0.2s1.1,0.3,1.7,0.6l-0.8,1.9c-0.6-0.3-1.1-0.4-1.5-0.5s-0.8-0.1-1.2-0.1c-0.5,0-0.8,0.1-1.1,0.3
		c-0.2,0.2-0.4,0.5-0.4,0.8c0,0.2,0,0.4,0.1,0.6c0.1,0.2,0.3,0.3,0.5,0.5c0.2,0.1,0.7,0.4,1.5,0.8c1.1,0.5,1.8,1,2.2,1.5
		C160.9,47,161.1,47.6,161.1,48.3z"/>
	<path class="st2" d="M168.6,51.5l-0.5-1.2H168c-0.4,0.5-0.8,0.9-1.2,1.1c-0.4,0.2-1,0.3-1.7,0.3c-0.8,0-1.5-0.2-2-0.7
		c-0.5-0.5-0.7-1.2-0.7-2c0-0.9,0.3-1.6,1-2.1s1.6-0.7,2.9-0.7l1.5,0v-0.4c0-0.9-0.5-1.3-1.4-1.3c-0.7,0-1.5,0.2-2.5,0.6l-0.8-1.6
		c1-0.5,2.1-0.8,3.3-0.8c1.2,0,2.1,0.3,2.7,0.8s0.9,1.3,0.9,2.3v5.8H168.6z M167.9,47.5l-0.9,0c-0.7,0-1.2,0.1-1.5,0.4
		c-0.3,0.2-0.5,0.6-0.5,1c0,0.7,0.4,1,1.2,1c0.6,0,1-0.2,1.3-0.5c0.3-0.3,0.5-0.7,0.5-1.3V47.5z"/>
	<path class="st2" d="M175.1,51.5h-2.4V39.3h2.4V51.5z"/>
	<path class="st2" d="M181.5,51.7c-1.4,0-2.5-0.4-3.3-1.2c-0.8-0.8-1.2-1.9-1.2-3.3c0-1.5,0.4-2.6,1.1-3.4c0.7-0.8,1.7-1.2,3-1.2
		c1.2,0,2.2,0.4,2.9,1.1s1,1.7,1,2.9v1.2h-5.6c0,0.7,0.2,1.2,0.6,1.6s0.9,0.6,1.6,0.6c0.5,0,1-0.1,1.5-0.2s1-0.3,1.5-0.5V51
		c-0.4,0.2-0.9,0.4-1.3,0.5C182.8,51.6,182.2,51.7,181.5,51.7z M181.2,44.3c-0.5,0-0.9,0.2-1.2,0.5c-0.3,0.3-0.5,0.8-0.5,1.4h3.3
		c0-0.6-0.2-1-0.5-1.4S181.7,44.3,181.2,44.3z"/>
	<path class="st2" d="M28.9,67.6c0,1-0.4,1.8-1.1,2.4s-1.7,0.9-3,0.9c-1.4,0-2.4-0.2-3.1-0.5v-1.4c0.5,0.2,1,0.4,1.6,0.5
		c0.6,0.1,1.1,0.2,1.6,0.2c0.9,0,1.5-0.2,1.9-0.5c0.4-0.3,0.6-0.8,0.6-1.4c0-0.4-0.1-0.7-0.2-0.9s-0.4-0.5-0.8-0.7s-0.9-0.5-1.7-0.7
		c-1.1-0.4-1.8-0.8-2.3-1.4s-0.7-1.2-0.7-2c0-0.9,0.3-1.6,1-2.1c0.7-0.5,1.6-0.8,2.6-0.8c1.1,0,2.2,0.2,3.1,0.6L28.2,61
		c-1-0.4-1.9-0.6-2.7-0.6c-0.7,0-1.2,0.1-1.6,0.4s-0.6,0.7-0.6,1.2c0,0.4,0.1,0.7,0.2,0.9s0.4,0.5,0.7,0.7c0.3,0.2,0.8,0.4,1.6,0.7
		c0.8,0.3,1.5,0.6,1.9,0.9c0.4,0.3,0.7,0.6,0.9,1C28.8,66.7,28.9,67.1,28.9,67.6z"/>
	<path class="st2" d="M36.3,70.7L36,69.5H36c-0.4,0.5-0.9,0.9-1.3,1.1c-0.4,0.2-1,0.3-1.6,0.3c-0.8,0-1.5-0.2-2-0.7
		c-0.5-0.4-0.7-1.1-0.7-1.9c0-1.7,1.4-2.7,4.1-2.7l1.5-0.1V65c0-0.7-0.1-1.1-0.4-1.4s-0.7-0.5-1.4-0.5c-0.5,0-0.9,0.1-1.3,0.2
		c-0.4,0.1-0.8,0.3-1.1,0.5l-0.4-1.1c0.4-0.2,0.9-0.4,1.4-0.5c0.5-0.1,1-0.2,1.5-0.2c1,0,1.8,0.2,2.3,0.7c0.5,0.5,0.8,1.2,0.8,2.2
		v5.8H36.3z M33.4,69.7c0.8,0,1.4-0.2,1.9-0.6c0.5-0.4,0.7-1,0.7-1.8v-0.8l-1.3,0.1c-1,0-1.7,0.2-2.2,0.5c-0.5,0.3-0.7,0.7-0.7,1.3
		c0,0.4,0.1,0.8,0.4,1S32.9,69.7,33.4,69.7z"/>
	<path class="st2" d="M41.9,70.7l-3.3-8.6h1.5l1.8,5.1c0.4,1,0.6,1.8,0.7,2.3h0.1c0-0.1,0-0.1,0.1-0.2s0.1-0.2,0.1-0.3
		s0.2-0.7,0.6-1.8l1.8-5.1h1.5l-3.3,8.6H41.9z"/>
	<path class="st2" d="M48,59.8c0-0.3,0.1-0.5,0.2-0.7c0.2-0.1,0.4-0.2,0.6-0.2c0.2,0,0.4,0.1,0.6,0.2s0.2,0.4,0.2,0.7
		c0,0.3-0.1,0.5-0.2,0.7s-0.4,0.2-0.6,0.2c-0.2,0-0.4-0.1-0.6-0.2C48.1,60.3,48,60.1,48,59.8z M49.5,70.7h-1.4v-8.6h1.4V70.7z"/>
	<path class="st2" d="M58.1,70.7v-5.5c0-0.7-0.2-1.2-0.5-1.6c-0.3-0.3-0.8-0.5-1.5-0.5c-0.9,0-1.5,0.2-1.9,0.7s-0.6,1.3-0.6,2.4v4.4
		h-1.4v-8.6h1.1l0.2,1.2h0.1c0.3-0.4,0.6-0.7,1.1-1c0.5-0.2,1-0.3,1.6-0.3c1.1,0,1.8,0.3,2.3,0.8c0.5,0.5,0.8,1.3,0.8,2.4v5.6H58.1z
		"/>
	<path class="st2" d="M67.8,70.6l0-1.1h-0.1c-0.6,0.9-1.5,1.3-2.7,1.3c-1.1,0-2-0.4-2.6-1.2c-0.6-0.8-0.9-1.9-0.9-3.3
		c0-1.4,0.3-2.5,0.9-3.3c0.6-0.8,1.5-1.2,2.6-1.2c1.2,0,2.1,0.4,2.7,1.3h0.1l0.2-1.1h1.1v8.7c0,1.2-0.3,2.2-0.9,2.8
		c-0.6,0.6-1.6,0.9-2.9,0.9c-1.3,0-2.3-0.2-3.1-0.5v-1.3c0.8,0.4,1.9,0.7,3.2,0.7c0.7,0,1.3-0.2,1.7-0.6c0.4-0.4,0.6-1,0.6-1.8V70.6
		z M65.4,69.7c0.9,0,1.5-0.2,1.9-0.7c0.4-0.5,0.6-1.2,0.6-2.2v-0.3c0-1.1-0.2-2-0.6-2.5c-0.4-0.5-1-0.8-1.9-0.8
		c-0.7,0-1.3,0.3-1.7,0.9c-0.4,0.6-0.6,1.4-0.6,2.4c0,1.1,0.2,1.9,0.6,2.4C64,69.4,64.6,69.7,65.4,69.7z"/>
	<path class="st2" d="M77.5,68.3c0,0.8-0.3,1.4-0.9,1.9c-0.6,0.4-1.4,0.7-2.5,0.7c-1.1,0-2-0.2-2.7-0.5V69c0.9,0.5,1.9,0.7,2.7,0.7
		c0.7,0,1.2-0.1,1.5-0.3c0.3-0.2,0.5-0.5,0.5-0.9c0-0.3-0.2-0.6-0.5-0.9c-0.3-0.2-0.9-0.5-1.7-0.8c-0.8-0.3-1.4-0.6-1.7-0.8
		s-0.6-0.5-0.7-0.7c-0.2-0.3-0.2-0.6-0.2-1c0-0.7,0.3-1.3,0.9-1.7c0.6-0.4,1.4-0.6,2.4-0.6c1,0,1.9,0.2,2.7,0.6l-0.5,1.1
		c-0.9-0.4-1.7-0.5-2.4-0.5c-0.6,0-1,0.1-1.3,0.3c-0.3,0.2-0.5,0.4-0.5,0.8c0,0.3,0.1,0.6,0.4,0.8c0.3,0.2,0.9,0.5,1.8,0.9
		c0.7,0.3,1.2,0.5,1.6,0.7c0.3,0.2,0.6,0.5,0.8,0.8C77.5,67.6,77.5,67.9,77.5,68.3z"/>
	<path class="st2" d="M92.7,59.3v7.4c0,1.3-0.4,2.3-1.2,3.1c-0.8,0.7-1.9,1.1-3.3,1.1c-1.4,0-2.5-0.4-3.2-1.1
		c-0.8-0.8-1.1-1.8-1.1-3.1v-7.4h1.4v7.4c0,0.9,0.2,1.7,0.7,2.2c0.5,0.5,1.2,0.8,2.2,0.8c0.9,0,1.7-0.3,2.2-0.8s0.8-1.2,0.8-2.2
		v-7.4H92.7z"/>
	<path class="st2" d="M99.5,70.9c-1.2,0-2-0.4-2.7-1.2h-0.1l0,0.3c0,0.4,0.1,0.8,0.1,1.1v3.5h-1.4V62.1h1.2l0.2,1.2h0.1
		c0.3-0.5,0.7-0.8,1.2-1S99,62,99.6,62c1.1,0,2,0.4,2.6,1.2s0.9,1.9,0.9,3.3c0,1.4-0.3,2.5-0.9,3.3C101.5,70.5,100.7,70.9,99.5,70.9
		z M99.3,63.1c-0.8,0-1.5,0.2-1.8,0.7c-0.4,0.5-0.6,1.2-0.6,2.3v0.3c0,1.2,0.2,2,0.6,2.5c0.4,0.5,1,0.8,1.9,0.8
		c0.7,0,1.3-0.3,1.7-0.9c0.4-0.6,0.6-1.4,0.6-2.4c0-1-0.2-1.8-0.6-2.4C100.6,63.4,100,63.1,99.3,63.1z"/>
	<path class="st2" d="M112.3,69.7c0.2,0,0.4,0,0.6-0.1c0.2,0,0.4-0.1,0.6-0.1v1.1c-0.1,0.1-0.3,0.1-0.6,0.2s-0.6,0.1-0.8,0.1
		c-1.7,0-2.5-0.9-2.5-2.6v-5h-1.2v-0.7l1.2-0.6l0.6-1.8h0.8v2h2.5v1.1H111v5c0,0.5,0.1,0.9,0.4,1.1
		C111.6,69.6,111.9,69.7,112.3,69.7z"/>
	<path class="st2" d="M122.7,66.4c0,1.4-0.4,2.5-1.1,3.3c-0.7,0.8-1.7,1.2-2.9,1.2c-0.8,0-1.5-0.2-2.1-0.5c-0.6-0.4-1.1-0.9-1.4-1.6
		c-0.3-0.7-0.5-1.5-0.5-2.4c0-1.4,0.3-2.5,1-3.3c0.7-0.8,1.7-1.2,2.9-1.2c1.2,0,2.2,0.4,2.9,1.2S122.7,65,122.7,66.4z M116.2,66.4
		c0,1.1,0.2,1.9,0.6,2.5c0.4,0.6,1.1,0.8,1.9,0.8c0.8,0,1.4-0.3,1.9-0.8c0.4-0.6,0.6-1.4,0.6-2.5s-0.2-1.9-0.6-2.4s-1.1-0.8-1.9-0.8
		C117.1,63.1,116.2,64.2,116.2,66.4z"/>
	<path class="st2" d="M129.9,70.7l4.7-10.1h-6.2v-1.3h7.7v1.1l-4.6,10.3H129.9z"/>
	<path class="st2" d="M145.2,65c0,2-0.3,3.5-0.9,4.4c-0.6,1-1.6,1.5-2.9,1.5c-1.2,0-2.2-0.5-2.8-1.5s-1-2.5-1-4.4
		c0-2,0.3-3.5,0.9-4.4s1.6-1.4,2.9-1.4c1.2,0,2.2,0.5,2.8,1.5S145.2,63.1,145.2,65z M139.1,65c0,1.7,0.2,2.9,0.6,3.6
		c0.4,0.7,1,1.1,1.8,1.1c0.8,0,1.4-0.4,1.8-1.1c0.4-0.8,0.6-1.9,0.6-3.6c0-1.6-0.2-2.8-0.6-3.5c-0.4-0.8-1-1.1-1.8-1.1
		c-0.8,0-1.4,0.4-1.8,1.1C139.3,62.2,139.1,63.3,139.1,65z"/>
	<path class="st2" d="M151.5,62.7c0,1.2-0.2,2.1-0.6,2.7c-0.4,0.6-1,0.9-1.8,0.9c-0.7,0-1.3-0.3-1.7-0.9c-0.4-0.6-0.6-1.5-0.6-2.7
		c0-1.2,0.2-2.1,0.6-2.7s1-0.9,1.7-0.9c0.8,0,1.4,0.3,1.8,0.9C151.3,60.7,151.5,61.5,151.5,62.7z M148,62.7c0,0.9,0.1,1.5,0.3,1.9
		c0.2,0.4,0.5,0.7,0.9,0.7c0.8,0,1.2-0.9,1.2-2.6c0-1.7-0.4-2.6-1.2-2.6c-0.4,0-0.7,0.2-0.9,0.6C148.1,61.2,148,61.8,148,62.7z
		 M156.5,59.3l-6.3,11.4h-1.2l6.3-11.4H156.5z M158.5,67.3c0,1.2-0.2,2.1-0.6,2.7c-0.4,0.6-1,0.9-1.8,0.9c-0.7,0-1.3-0.3-1.7-0.9
		c-0.4-0.6-0.6-1.5-0.6-2.7c0-1.2,0.2-2.1,0.6-2.7c0.4-0.6,1-0.9,1.7-0.9s1.4,0.3,1.8,0.9C158.3,65.2,158.5,66.1,158.5,67.3z
		 M155,67.3c0,0.9,0.1,1.5,0.3,1.9c0.2,0.4,0.5,0.6,0.9,0.6c0.4,0,0.7-0.2,0.9-0.6c0.2-0.4,0.3-1.1,0.3-1.9c0-1.7-0.4-2.6-1.2-2.6
		c-0.4,0-0.7,0.2-0.9,0.6C155.1,65.8,155,66.4,155,67.3z"/>
	<path class="st2" d="M172.3,66.4c0,1.4-0.4,2.5-1.1,3.3c-0.7,0.8-1.7,1.2-2.9,1.2c-0.8,0-1.5-0.2-2.1-0.5c-0.6-0.4-1.1-0.9-1.4-1.6
		c-0.3-0.7-0.5-1.5-0.5-2.4c0-1.4,0.3-2.5,1-3.3c0.7-0.8,1.7-1.2,2.9-1.2c1.2,0,2.2,0.4,2.9,1.2S172.3,65,172.3,66.4z M165.8,66.4
		c0,1.1,0.2,1.9,0.6,2.5c0.4,0.6,1.1,0.8,1.9,0.8c0.8,0,1.4-0.3,1.9-0.8c0.4-0.6,0.6-1.4,0.6-2.5s-0.2-1.9-0.6-2.4s-1.1-0.8-1.9-0.8
		C166.6,63.1,165.8,64.2,165.8,66.4z"/>
	<path class="st2" d="M178.5,63.2h-2.2v7.5h-1.4v-7.5h-1.5v-0.7l1.5-0.5v-0.5c0-1,0.2-1.8,0.7-2.3c0.5-0.5,1.2-0.8,2.1-0.8
		c0.5,0,1.1,0.1,1.7,0.3l-0.4,1.1c-0.5-0.2-0.9-0.2-1.3-0.2c-0.5,0-0.8,0.2-1.1,0.5c-0.2,0.3-0.3,0.8-0.3,1.5v0.6h2.2V63.2z"/>
	<path class="st2" d="M184,63.2h-2.2v7.5h-1.4v-7.5h-1.5v-0.7l1.5-0.5v-0.5c0-1,0.2-1.8,0.7-2.3c0.5-0.5,1.2-0.8,2.1-0.8
		c0.5,0,1.1,0.1,1.7,0.3l-0.4,1.1c-0.5-0.2-0.9-0.2-1.3-0.2c-0.5,0-0.8,0.2-1.1,0.5c-0.2,0.3-0.3,0.8-0.3,1.5v0.6h2.2V63.2z"/>
</g>
<g>
	<g>
		<path d="M26.9,144.9h-1.8v-7.1h-2.3v-1.5h6.5v1.5h-2.3V144.9z"/>
		<path d="M36.4,144.9h-1.8v-3.8c0-0.9-0.4-1.4-1.1-1.4c-0.5,0-0.9,0.2-1.1,0.5s-0.3,0.9-0.3,1.7v3.1h-1.8v-9.1h1.8v1.9
			c0,0.1,0,0.5,0,1l0,0.5h0.1c0.4-0.6,1-1,1.9-1c0.8,0,1.4,0.2,1.8,0.6s0.6,1,0.6,1.8V144.9z"/>
		<path d="M38.2,136.7c0-0.6,0.3-0.9,1-0.9s1,0.3,1,0.9c0,0.3-0.1,0.5-0.2,0.6s-0.4,0.2-0.7,0.2C38.5,137.5,38.2,137.2,38.2,136.7z
			 M40,144.9h-1.8v-6.6H40V144.9z"/>
		<path d="M48,144.9h-1.8v-3.8c0-0.5-0.1-0.8-0.3-1.1s-0.4-0.4-0.8-0.4c-0.5,0-0.9,0.2-1.1,0.5s-0.3,0.9-0.3,1.7v3.1h-1.8v-6.6h1.4
			l0.2,0.8h0.1c0.2-0.3,0.5-0.6,0.8-0.7s0.7-0.2,1.2-0.2c0.8,0,1.3,0.2,1.7,0.6s0.6,1,0.6,1.8V144.9z"/>
		<path d="M55.5,144.9c0,0.9-0.3,1.7-0.8,2.1s-1.4,0.7-2.5,0.7c-1,0-1.8-0.1-2.4-0.4V146c0.8,0.3,1.6,0.5,2.6,0.5
			c0.9,0,1.4-0.5,1.4-1.5v-0.1l0.1-0.8h-0.1c-0.4,0.6-1,1-1.9,1c-0.8,0-1.4-0.3-1.8-0.9s-0.6-1.4-0.6-2.5c0-1.1,0.2-1.9,0.7-2.5
			s1.1-0.9,1.8-0.9c0.8,0,1.4,0.3,1.9,1h0l0.1-0.8h1.5V144.9z M52.5,143.6c0.5,0,0.8-0.1,1-0.4s0.3-0.7,0.3-1.3v-0.2
			c0-0.7-0.1-1.2-0.3-1.5s-0.6-0.5-1-0.5c-0.8,0-1.3,0.7-1.3,2c0,0.7,0.1,1.1,0.3,1.5S52.1,143.6,52.5,143.6z"/>
		<path d="M62,142.9c0,0.7-0.2,1.2-0.7,1.5s-1.2,0.5-2.1,0.5c-0.5,0-0.9,0-1.2-0.1s-0.7-0.2-0.9-0.3v-1.5c0.3,0.2,0.7,0.3,1.1,0.4
			s0.8,0.2,1.1,0.2c0.6,0,1-0.2,1-0.6c0-0.1,0-0.3-0.1-0.3s-0.2-0.2-0.4-0.3s-0.5-0.2-0.8-0.4c-0.5-0.2-0.9-0.4-1.1-0.6
			s-0.4-0.4-0.5-0.6S57,140.4,57,140c0-0.6,0.2-1,0.7-1.4s1.1-0.5,1.9-0.5c0.8,0,1.6,0.2,2.3,0.5l-0.5,1.3c-0.3-0.1-0.6-0.3-0.9-0.3
			s-0.6-0.1-0.9-0.1c-0.5,0-0.8,0.1-0.8,0.4c0,0.2,0.1,0.3,0.3,0.4s0.5,0.3,1.1,0.5c0.5,0.2,0.9,0.4,1.1,0.6s0.4,0.4,0.5,0.6
			S62,142.6,62,142.9z"/>
		<path d="M69.2,143.6c0.3,0,0.7-0.1,1.1-0.2v1.3c-0.4,0.2-1,0.3-1.6,0.3c-0.7,0-1.2-0.2-1.6-0.5s-0.5-0.9-0.5-1.6v-3.2h-0.9v-0.8
			l1-0.6l0.5-1.4h1.1v1.4h1.8v1.3h-1.8v3.2c0,0.3,0.1,0.4,0.2,0.6S69,143.6,69.2,143.6z"/>
		<path d="M77.6,141.6c0,1.1-0.3,1.9-0.8,2.5s-1.3,0.9-2.3,0.9c-0.6,0-1.2-0.1-1.7-0.4s-0.8-0.7-1.1-1.2s-0.4-1.1-0.4-1.8
			c0-1.1,0.3-1.9,0.8-2.5s1.3-0.9,2.4-0.9c0.6,0,1.2,0.1,1.7,0.4s0.8,0.7,1.1,1.2S77.6,140.9,77.6,141.6z M73.1,141.6
			c0,0.6,0.1,1.1,0.3,1.5s0.6,0.5,1,0.5c0.5,0,0.8-0.2,1-0.5s0.3-0.8,0.3-1.5c0-0.6-0.1-1.1-0.3-1.5s-0.6-0.5-1-0.5
			c-0.5,0-0.8,0.2-1,0.5S73.1,141,73.1,141.6z"/>
		<path d="M82.4,144.9v-8.6h1.8v7.1h3.5v1.5H82.4z"/>
		<path d="M95,141.6c0,1.1-0.3,1.9-0.8,2.5s-1.3,0.9-2.3,0.9c-0.6,0-1.2-0.1-1.7-0.4s-0.8-0.7-1.1-1.2s-0.4-1.1-0.4-1.8
			c0-1.1,0.3-1.9,0.8-2.5s1.3-0.9,2.4-0.9c0.6,0,1.2,0.1,1.7,0.4s0.8,0.7,1.1,1.2S95,140.9,95,141.6z M90.4,141.6
			c0,0.6,0.1,1.1,0.3,1.5s0.6,0.5,1,0.5c0.5,0,0.8-0.2,1-0.5s0.3-0.8,0.3-1.5c0-0.6-0.1-1.1-0.3-1.5s-0.6-0.5-1-0.5
			c-0.5,0-0.8,0.2-1,0.5S90.4,141,90.4,141.6z"/>
		<path d="M102.4,141.6c0,1.1-0.3,1.9-0.8,2.5s-1.3,0.9-2.3,0.9c-0.6,0-1.2-0.1-1.7-0.4s-0.8-0.7-1.1-1.2s-0.4-1.1-0.4-1.8
			c0-1.1,0.3-1.9,0.8-2.5s1.3-0.9,2.4-0.9c0.6,0,1.2,0.1,1.7,0.4s0.8,0.7,1.1,1.2S102.4,140.9,102.4,141.6z M97.9,141.6
			c0,0.6,0.1,1.1,0.3,1.5s0.6,0.5,1,0.5c0.5,0,0.8-0.2,1-0.5s0.3-0.8,0.3-1.5c0-0.6-0.1-1.1-0.3-1.5s-0.6-0.5-1-0.5
			c-0.5,0-0.8,0.2-1,0.5S97.9,141,97.9,141.6z"/>
		<path d="M105.6,141.3l0.8-1l1.8-2h2l-2.6,2.8l2.8,3.7h-2.1l-1.9-2.7l-0.8,0.6v2h-1.8v-9.1h1.8v4.1L105.6,141.3L105.6,141.3z"/>
		<path d="M122.4,140.6c0,1.4-0.4,2.5-1.1,3.3s-1.7,1.1-3,1.1s-2.3-0.4-3-1.1s-1.1-1.9-1.1-3.3s0.4-2.5,1.1-3.3s1.7-1.1,3-1.1
			s2.3,0.4,3,1.1S122.4,139.2,122.4,140.6z M116.1,140.6c0,1,0.2,1.7,0.5,2.2s0.9,0.7,1.6,0.7c1.4,0,2.2-1,2.2-2.9
			c0-1.9-0.7-2.9-2.2-2.9c-0.7,0-1.3,0.2-1.6,0.7S116.1,139.6,116.1,140.6z"/>
		<path d="M128.6,144.9l-0.2-0.8h-0.1c-0.2,0.3-0.5,0.5-0.8,0.7s-0.8,0.2-1.2,0.2c-0.8,0-1.3-0.2-1.7-0.6s-0.6-1-0.6-1.8v-4.3h1.8
			v3.8c0,0.5,0.1,0.8,0.3,1.1s0.4,0.4,0.8,0.4c0.5,0,0.9-0.2,1.1-0.5c0.2-0.3,0.3-0.9,0.3-1.7v-3.1h1.8v6.6H128.6z"/>
		<path d="M134.6,143.6c0.3,0,0.7-0.1,1.1-0.2v1.3c-0.4,0.2-1,0.3-1.6,0.3c-0.7,0-1.2-0.2-1.6-0.5s-0.5-0.9-0.5-1.6v-3.2h-0.9v-0.8
			l1-0.6l0.5-1.4h1.1v1.4h1.8v1.3h-1.8v3.2c0,0.3,0.1,0.4,0.2,0.6S134.4,143.6,134.6,143.6z"/>
		<path d="M27,154.1h-1.5v5.2h-1.8v-5.2h-1v-0.9l1-0.5v-0.5c0-0.7,0.2-1.3,0.6-1.6s1-0.5,1.8-0.5c0.6,0,1.2,0.1,1.6,0.3l-0.5,1.3
			c-0.4-0.1-0.7-0.2-1-0.2c-0.3,0-0.4,0.1-0.6,0.2s-0.2,0.3-0.2,0.6v0.4H27V154.1z"/>
		<path d="M34,156c0,1.1-0.3,1.9-0.8,2.5s-1.3,0.9-2.3,0.9c-0.6,0-1.2-0.1-1.7-0.4s-0.8-0.7-1.1-1.2s-0.4-1.1-0.4-1.8
			c0-1.1,0.3-1.9,0.8-2.5s1.3-0.9,2.4-0.9c0.6,0,1.2,0.1,1.7,0.4s0.8,0.7,1.1,1.2S34,155.3,34,156z M29.5,156c0,0.6,0.1,1.1,0.3,1.5
			s0.6,0.5,1,0.5c0.5,0,0.8-0.2,1-0.5s0.3-0.8,0.3-1.5c0-0.6-0.1-1.1-0.3-1.5s-0.6-0.5-1-0.5c-0.5,0-0.8,0.2-1,0.5
			S29.5,155.4,29.5,156z"/>
		<path d="M39.2,152.6c0.2,0,0.4,0,0.6,0.1l-0.1,1.7c-0.1,0-0.3-0.1-0.5-0.1c-0.6,0-1,0.1-1.3,0.4s-0.5,0.7-0.5,1.2v3.3h-1.8v-6.6
			h1.4l0.3,1.1h0.1c0.2-0.4,0.5-0.7,0.8-0.9S38.7,152.6,39.2,152.6z"/>
		<path d="M49.4,159.3l-0.5-2.3l-0.7-2.9h-0.1l-1.2,5.2h-1.9l-1.9-6.6H45l0.8,2.9c0.1,0.3,0.2,1.1,0.4,2.2h0c0-0.3,0.1-0.8,0.2-1.4
			l0.1-0.5l0.8-3.1h2l0.8,3.1c0,0.2,0.1,0.5,0.2,0.9s0.1,0.7,0.1,1h0c0-0.3,0.1-0.7,0.2-1.2s0.1-0.8,0.2-1l0.8-2.9h1.8l-1.9,6.6
			H49.4z"/>
		<path d="M60.4,159.3h-1.8v-3.8c0-0.9-0.4-1.4-1.1-1.4c-0.5,0-0.9,0.2-1.1,0.5s-0.3,0.9-0.3,1.7v3.1h-1.8v-9.1h1.8v1.9
			c0,0.1,0,0.5,0,1l0,0.5h0.1c0.4-0.6,1-1,1.9-1c0.8,0,1.4,0.2,1.8,0.6s0.6,1,0.6,1.8V159.3z"/>
		<path d="M65.2,159.4c-1.1,0-1.9-0.3-2.5-0.9s-0.9-1.4-0.9-2.5c0-1.1,0.3-1.9,0.8-2.5s1.3-0.9,2.3-0.9c0.9,0,1.6,0.3,2.2,0.8
			s0.8,1.3,0.8,2.2v0.9h-4.2c0,0.5,0.2,0.9,0.5,1.2c0.3,0.3,0.7,0.4,1.2,0.4c0.4,0,0.8,0,1.1-0.1s0.7-0.2,1.1-0.4v1.4
			c-0.3,0.2-0.6,0.3-1,0.3S65.7,159.4,65.2,159.4z M64.9,153.9c-0.4,0-0.7,0.1-0.9,0.4c-0.2,0.2-0.3,0.6-0.4,1h2.5
			c0-0.4-0.1-0.8-0.3-1S65.3,153.9,64.9,153.9z"/>
		<path d="M75.4,159.3h-1.8v-3.8c0-0.5-0.1-0.8-0.3-1.1s-0.4-0.4-0.8-0.4c-0.5,0-0.9,0.2-1.1,0.5s-0.3,0.9-0.3,1.7v3.1h-1.8v-6.6
			h1.4l0.2,0.8H71c0.2-0.3,0.5-0.6,0.8-0.7s0.7-0.2,1.2-0.2c0.8,0,1.3,0.2,1.7,0.6s0.6,1,0.6,1.8V159.3z"/>
		<path d="M85.5,156.9c0,0.8-0.3,1.4-0.8,1.8s-1.3,0.7-2.3,0.7c-0.9,0-1.7-0.2-2.4-0.5v-1.7c0.6,0.3,1.1,0.4,1.5,0.5
			s0.8,0.2,1.1,0.2c0.4,0,0.7-0.1,0.9-0.2s0.3-0.4,0.3-0.7c0-0.2,0-0.3-0.1-0.4s-0.2-0.3-0.4-0.4s-0.6-0.3-1.1-0.6
			c-0.5-0.2-0.9-0.5-1.2-0.7s-0.5-0.5-0.6-0.8S80,153.4,80,153c0-0.8,0.3-1.4,0.8-1.8s1.2-0.7,2.1-0.7c0.4,0,0.9,0.1,1.3,0.2
			s0.8,0.3,1.3,0.4l-0.6,1.4c-0.5-0.2-0.8-0.3-1.1-0.4s-0.6-0.1-0.9-0.1c-0.3,0-0.6,0.1-0.8,0.2s-0.3,0.4-0.3,0.6
			c0,0.2,0,0.3,0.1,0.4s0.2,0.2,0.4,0.3s0.5,0.3,1.2,0.6c0.8,0.4,1.3,0.8,1.6,1.2S85.5,156.4,85.5,156.9z"/>
		<path d="M93,159.3h-1.8v-3.8c0-0.9-0.4-1.4-1.1-1.4c-0.5,0-0.9,0.2-1.1,0.5s-0.3,0.9-0.3,1.7v3.1h-1.8v-9.1h1.8v1.9
			c0,0.1,0,0.5,0,1l0,0.5h0.1c0.4-0.6,1-1,1.9-1c0.8,0,1.4,0.2,1.8,0.6s0.6,1,0.6,1.8V159.3z"/>
		<path d="M100.8,156c0,1.1-0.3,1.9-0.8,2.5s-1.3,0.9-2.3,0.9c-0.6,0-1.2-0.1-1.7-0.4s-0.8-0.7-1.1-1.2s-0.4-1.1-0.4-1.8
			c0-1.1,0.3-1.9,0.8-2.5s1.3-0.9,2.4-0.9c0.6,0,1.2,0.1,1.7,0.4s0.8,0.7,1.1,1.2S100.8,155.3,100.8,156z M96.2,156
			c0,0.6,0.1,1.1,0.3,1.5s0.6,0.5,1,0.5c0.5,0,0.8-0.2,1-0.5s0.3-0.8,0.3-1.5c0-0.6-0.1-1.1-0.3-1.5s-0.6-0.5-1-0.5
			c-0.5,0-0.8,0.2-1,0.5S96.2,155.4,96.2,156z"/>
		<path d="M105.8,159.4c-0.8,0-1.4-0.3-1.8-0.8h-0.1c0.1,0.5,0.1,0.9,0.1,0.9v2.7h-1.8v-9.4h1.5l0.3,0.8h0.1c0.4-0.6,1-1,1.9-1
			c0.8,0,1.4,0.3,1.8,0.9s0.7,1.4,0.7,2.5c0,0.7-0.1,1.3-0.3,1.8s-0.5,0.9-0.9,1.2S106.4,159.4,105.8,159.4z M105.3,154.1
			c-0.4,0-0.8,0.1-1,0.4s-0.3,0.7-0.3,1.3v0.2c0,0.7,0.1,1.2,0.3,1.5s0.5,0.5,1,0.5c0.8,0,1.2-0.7,1.2-2c0-0.6-0.1-1.1-0.3-1.5
			S105.7,154.1,105.3,154.1z"/>
		<path d="M113.4,159.4c-0.8,0-1.4-0.3-1.8-0.8h-0.1c0.1,0.5,0.1,0.9,0.1,0.9v2.7h-1.8v-9.4h1.5l0.3,0.8h0.1c0.4-0.6,1-1,1.9-1
			c0.8,0,1.4,0.3,1.8,0.9s0.7,1.4,0.7,2.5c0,0.7-0.1,1.3-0.3,1.8s-0.5,0.9-0.9,1.2S113.9,159.4,113.4,159.4z M112.9,154.1
			c-0.4,0-0.8,0.1-1,0.4s-0.3,0.7-0.3,1.3v0.2c0,0.7,0.1,1.2,0.3,1.5s0.5,0.5,1,0.5c0.8,0,1.2-0.7,1.2-2c0-0.6-0.1-1.1-0.3-1.5
			S113.3,154.1,112.9,154.1z"/>
		<path d="M117.4,151.1c0-0.6,0.3-0.9,1-0.9s1,0.3,1,0.9c0,0.3-0.1,0.5-0.2,0.6s-0.4,0.2-0.7,0.2
			C117.7,151.9,117.4,151.6,117.4,151.1z M119.2,159.3h-1.8v-6.6h1.8V159.3z"/>
		<path d="M127.1,159.3h-1.8v-3.8c0-0.5-0.1-0.8-0.3-1.1s-0.4-0.4-0.8-0.4c-0.5,0-0.9,0.2-1.1,0.5s-0.3,0.9-0.3,1.7v3.1h-1.8v-6.6
			h1.4l0.2,0.8h0.1c0.2-0.3,0.5-0.6,0.8-0.7s0.7-0.2,1.2-0.2c0.8,0,1.3,0.2,1.7,0.6s0.6,1,0.6,1.8V159.3z"/>
		<path d="M134.7,159.3c0,0.9-0.3,1.7-0.8,2.1s-1.4,0.7-2.5,0.7c-1,0-1.8-0.1-2.4-0.4v-1.4c0.8,0.3,1.6,0.5,2.6,0.5
			c0.9,0,1.4-0.5,1.4-1.5v-0.1l0.1-0.8h-0.1c-0.4,0.6-1,1-1.9,1c-0.8,0-1.4-0.3-1.8-0.9s-0.6-1.4-0.6-2.5c0-1.1,0.2-1.9,0.7-2.5
			s1.1-0.9,1.8-0.9c0.8,0,1.4,0.3,1.9,1h0l0.1-0.8h1.5V159.3z M131.7,158c0.5,0,0.8-0.1,1-0.4s0.3-0.7,0.3-1.3V156
			c0-0.7-0.1-1.2-0.3-1.5s-0.6-0.5-1-0.5c-0.8,0-1.3,0.7-1.3,2c0,0.7,0.1,1.1,0.3,1.5S131.2,158,131.7,158z"/>
		<path d="M147.6,155c0,1.4-0.4,2.5-1.1,3.3s-1.7,1.1-3,1.1s-2.3-0.4-3-1.1s-1.1-1.9-1.1-3.3s0.4-2.5,1.1-3.3s1.7-1.1,3-1.1
			s2.3,0.4,3,1.1S147.6,153.6,147.6,155z M141.4,155c0,1,0.2,1.7,0.5,2.2s0.9,0.7,1.6,0.7c1.4,0,2.2-1,2.2-2.9
			c0-1.9-0.7-2.9-2.2-2.9c-0.7,0-1.3,0.2-1.6,0.7S141.4,154,141.4,155z"/>
		<path d="M155.3,159.3h-1.8v-3.8c0-0.5-0.1-0.8-0.3-1.1s-0.4-0.4-0.8-0.4c-0.5,0-0.9,0.2-1.1,0.5s-0.3,0.9-0.3,1.7v3.1h-1.8v-6.6
			h1.4l0.2,0.8h0.1c0.2-0.3,0.5-0.6,0.8-0.7s0.7-0.2,1.2-0.2c0.8,0,1.3,0.2,1.7,0.6s0.6,1,0.6,1.8V159.3z"/>
		<path d="M158.9,159.3h-1.8v-9.1h1.8V159.3z"/>
		<path d="M160.7,151.1c0-0.6,0.3-0.9,1-0.9s1,0.3,1,0.9c0,0.3-0.1,0.5-0.2,0.6s-0.4,0.2-0.7,0.2C161,151.9,160.7,151.6,160.7,151.1
			z M162.6,159.3h-1.8v-6.6h1.8V159.3z"/>
		<path d="M170.5,159.3h-1.8v-3.8c0-0.5-0.1-0.8-0.3-1.1s-0.4-0.4-0.8-0.4c-0.5,0-0.9,0.2-1.1,0.5s-0.3,0.9-0.3,1.7v3.1h-1.8v-6.6
			h1.4l0.2,0.8h0.1c0.2-0.3,0.5-0.6,0.8-0.7s0.7-0.2,1.2-0.2c0.8,0,1.3,0.2,1.7,0.6s0.6,1,0.6,1.8V159.3z"/>
		<path d="M175.3,159.4c-1.1,0-1.9-0.3-2.5-0.9s-0.9-1.4-0.9-2.5c0-1.1,0.3-1.9,0.8-2.5s1.3-0.9,2.3-0.9c0.9,0,1.6,0.3,2.2,0.8
			s0.8,1.3,0.8,2.2v0.9h-4.2c0,0.5,0.2,0.9,0.5,1.2s0.7,0.4,1.2,0.4c0.4,0,0.8,0,1.1-0.1s0.7-0.2,1.1-0.4v1.4
			c-0.3,0.2-0.6,0.3-1,0.3S175.8,159.4,175.3,159.4z M175.1,153.9c-0.4,0-0.7,0.1-0.9,0.4s-0.3,0.6-0.4,1h2.5c0-0.4-0.1-0.8-0.3-1
			S175.4,153.9,175.1,153.9z"/>
	</g>
</g>
<polygon points="183.3,151.2 191.9,156.2 183.3,161.2 "/>
</svg>