<!-- Generator: Adobe Illustrator 19.0.0, SVG Export Plug-In  -->
<svg version="1.1"
	 xmlns="http://www.w3.org/2000/svg" xmlns:xlink="http://www.w3.org/1999/xlink" xmlns:a="http://ns.adobe.com/AdobeSVGViewerExtensions/3.0/"
	 x="0px" y="0px" width="203px" height="203px" viewBox="0 0 203 203" style="enable-background:new 0 0 203 203;"
	 xml:space="preserve">
<style type="text/css">
	.st0{fill:#30B5BA;stroke:#16113F;stroke-width:3;stroke-miterlimit:10;}
	.st1{fill:#F8951D;stroke:#16113F;stroke-width:3;stroke-miterlimit:10;}
	.st2{fill:#FFFFFF;}
	.st3{fill:#E0E0E0;stroke:#15103F;stroke-width:3;stroke-miterlimit:10;}
	.st4{fill:#F8951D;stroke:#16113F;stroke-width:3;stroke-linecap:round;stroke-linejoin:round;stroke-miterlimit:10;}
</style>
<defs>
</defs>
<rect x="1.5" y="1.5" class="st0" width="200" height="200"/>
<rect x="1.5" y="1.5" class="st1" width="200" height="100"/>
<g>
	<path class="st2" d="M83,23.8v-8.6h1.8v7.1h3.5v1.5H83z"/>
	<path class="st2" d="M93.8,23.8l-0.3-0.9h0c-0.3,0.4-0.6,0.6-0.9,0.8s-0.7,0.2-1.2,0.2c-0.6,0-1.1-0.2-1.5-0.5s-0.5-0.9-0.5-1.5
		c0-0.7,0.2-1.2,0.7-1.5s1.2-0.5,2.2-0.5l1.1,0v-0.3c0-0.7-0.3-1-1-1c-0.5,0-1.1,0.2-1.8,0.5l-0.6-1.2c0.8-0.4,1.6-0.6,2.5-0.6
		c0.9,0,1.6,0.2,2,0.6s0.7,1,0.7,1.7v4.4H93.8z M93.3,20.7l-0.7,0c-0.5,0-0.9,0.1-1.2,0.3S91,21.5,91,21.8c0,0.5,0.3,0.8,0.9,0.8
		c0.4,0,0.7-0.1,1-0.4s0.4-0.6,0.4-0.9V20.7z"/>
	<path class="st2" d="M101.4,23.8h-5.2v-1.1l3-4.1h-2.9v-1.4h4.9v1.2l-3,4h3.1V23.8z"/>
	<path class="st2" d="M106.9,23.8l-0.3-0.9h0c-0.3,0.4-0.6,0.6-0.9,0.8s-0.7,0.2-1.2,0.2c-0.6,0-1.1-0.2-1.5-0.5s-0.5-0.9-0.5-1.5
		c0-0.7,0.2-1.2,0.7-1.5s1.2-0.5,2.2-0.5l1.1,0v-0.3c0-0.7-0.3-1-1-1c-0.5,0-1.1,0.2-1.8,0.5l-0.6-1.2c0.8-0.4,1.6-0.6,2.5-0.6
		c0.9,0,1.6,0.2,2,0.6s0.7,1,0.7,1.7v4.4H106.9z M106.4,20.7l-0.7,0c-0.5,0-0.9,0.1-1.2,0.3s-0.4,0.4-0.4,0.8c0,0.5,0.3,0.8,0.9,0.8
		c0.4,0,0.7-0.1,1-0.4s0.4-0.6,0.4-0.9V20.7z"/>
	<path class="st2" d="M112.1,23.9c-0.8,0-1.4-0.3-1.8-0.9s-0.7-1.4-0.7-2.5c0-1.1,0.2-1.9,0.7-2.5s1.1-0.9,1.8-0.9
		c0.8,0,1.5,0.3,1.9,1h0.1c-0.1-0.5-0.1-0.9-0.1-1.3v-2.1h1.8v9.1h-1.4l-0.3-0.8h-0.1C113.5,23.6,112.9,23.9,112.1,23.9z
		 M112.7,22.5c0.5,0,0.8-0.1,1-0.4s0.3-0.7,0.3-1.4v-0.2c0-0.7-0.1-1.2-0.3-1.5s-0.6-0.5-1.1-0.5c-0.4,0-0.7,0.2-0.9,0.5
		s-0.3,0.8-0.3,1.5s0.1,1.1,0.3,1.5S112.3,22.5,112.7,22.5z"/>
	<path class="st2" d="M121.7,23.8l-0.3-0.9h0c-0.3,0.4-0.6,0.6-0.9,0.8s-0.7,0.2-1.2,0.2c-0.6,0-1.1-0.2-1.5-0.5s-0.5-0.9-0.5-1.5
		c0-0.7,0.2-1.2,0.7-1.5s1.2-0.5,2.2-0.5l1.1,0v-0.3c0-0.7-0.3-1-1-1c-0.5,0-1.1,0.2-1.8,0.5l-0.6-1.2c0.8-0.4,1.6-0.6,2.5-0.6
		c0.9,0,1.6,0.2,2,0.6s0.7,1,0.7,1.7v4.4H121.7z M121.2,20.7l-0.7,0c-0.5,0-0.9,0.1-1.2,0.3s-0.4,0.4-0.4,0.8c0,0.5,0.3,0.8,0.9,0.8
		c0.4,0,0.7-0.1,1-0.4s0.4-0.6,0.4-0.9V20.7z"/>
</g>
<g>
	<path class="st2" d="M33.1,50.4V37.6h2.7v10.5H41v2.2H33.1z"/>
	<path class="st2" d="M51,50.4l-0.9-3h-4.7l-0.9,3h-2.9l4.5-12.8h3.3L54,50.4H51z M49.5,45.1c-0.9-2.8-1.3-4.3-1.4-4.7
		c-0.1-0.4-0.2-0.6-0.2-0.9c-0.2,0.7-0.7,2.6-1.7,5.5H49.5z"/>
	<path class="st2" d="M63.9,50.4h-9.5v-1.8l6.1-8.8h-6v-2.2h9.2v1.7l-6.1,8.8h6.3V50.4z"/>
	<path class="st2" d="M73.7,50.4l-0.9-3h-4.7l-0.9,3h-2.9l4.5-12.8h3.3l4.5,12.8H73.7z M72.2,45.1c-0.9-2.8-1.3-4.3-1.4-4.7
		c-0.1-0.4-0.2-0.6-0.2-0.9c-0.2,0.7-0.7,2.6-1.7,5.5H72.2z"/>
	<path class="st2" d="M88.8,43.9c0,2.1-0.6,3.7-1.8,4.8c-1.2,1.1-2.9,1.7-5.2,1.7h-3.6V37.6h4c2.1,0,3.7,0.5,4.9,1.6
		C88.3,40.3,88.8,41.9,88.8,43.9z M86,43.9c0-2.7-1.2-4.1-3.6-4.1H81v8.3h1.2C84.7,48.1,86,46.7,86,43.9z"/>
	<path class="st2" d="M99.1,50.4l-0.9-3h-4.7l-0.9,3h-2.9l4.5-12.8h3.3l4.5,12.8H99.1z M97.6,45.1c-0.9-2.8-1.3-4.3-1.4-4.7
		c-0.1-0.4-0.2-0.6-0.2-0.9c-0.2,0.7-0.7,2.6-1.6,5.5H97.6z"/>
	<path class="st2" d="M113.7,39.7c-1,0-1.8,0.4-2.4,1.1c-0.6,0.8-0.8,1.8-0.8,3.2c0,2.8,1.1,4.3,3.2,4.3c0.9,0,2-0.2,3.3-0.7v2.3
		c-1,0.4-2.2,0.7-3.5,0.7c-1.9,0-3.3-0.6-4.3-1.7s-1.5-2.7-1.5-4.8c0-1.3,0.2-2.5,0.7-3.5c0.5-1,1.2-1.8,2.1-2.3
		c0.9-0.5,2-0.8,3.2-0.8c1.2,0,2.5,0.3,3.7,0.9l-0.9,2.2c-0.5-0.2-1-0.4-1.4-0.6S114.2,39.7,113.7,39.7z"/>
	<path class="st2" d="M128.5,50.4h-2.7v-5.7c0-1.4-0.5-2.1-1.6-2.1c-0.7,0-1.3,0.3-1.6,0.8s-0.5,1.3-0.5,2.5v4.6h-2.7V36.8h2.7v2.8
		c0,0.2,0,0.7-0.1,1.5l-0.1,0.8h0.1c0.6-1,1.5-1.4,2.8-1.4c1.1,0,2,0.3,2.6,0.9c0.6,0.6,0.9,1.5,0.9,2.7V50.4z"/>
	<path class="st2" d="M131.1,38.1c0-0.9,0.5-1.3,1.4-1.3s1.4,0.4,1.4,1.3c0,0.4-0.1,0.7-0.4,1c-0.2,0.2-0.6,0.3-1.1,0.3
		C131.6,39.4,131.1,38.9,131.1,38.1z M133.9,50.4h-2.7v-9.8h2.7V50.4z"/>
	<path class="st2" d="M145.7,50.4H143v-5.7c0-0.7-0.1-1.2-0.4-1.6c-0.3-0.4-0.6-0.5-1.2-0.5c-0.7,0-1.3,0.2-1.6,0.7
		c-0.3,0.5-0.5,1.3-0.5,2.5v4.6h-2.7v-9.8h2l0.4,1.2h0.1c0.3-0.5,0.7-0.8,1.2-1.1c0.5-0.2,1.1-0.4,1.8-0.4c1.1,0,2,0.3,2.6,0.9
		c0.6,0.6,0.9,1.5,0.9,2.7V50.4z"/>
	<path class="st2" d="M152.8,50.5c-1.6,0-2.8-0.4-3.7-1.3s-1.3-2.1-1.3-3.7c0-1.6,0.4-2.9,1.2-3.8c0.8-0.9,1.9-1.3,3.4-1.3
		c1.4,0,2.5,0.4,3.2,1.2c0.8,0.8,1.2,1.9,1.2,3.3v1.3h-6.3c0,0.8,0.3,1.3,0.7,1.8s1,0.6,1.8,0.6c0.6,0,1.1-0.1,1.7-0.2
		c0.5-0.1,1.1-0.3,1.6-0.6v2.1c-0.5,0.2-1,0.4-1.5,0.5C154.2,50.5,153.6,50.5,152.8,50.5z M152.5,42.3c-0.6,0-1,0.2-1.3,0.5
		c-0.3,0.4-0.5,0.9-0.6,1.5h3.7c0-0.7-0.2-1.2-0.5-1.5C153.5,42.5,153,42.3,152.5,42.3z"/>
	<path class="st2" d="M165.8,47.5c0,1-0.3,1.8-1,2.3c-0.7,0.5-1.7,0.8-3.1,0.8c-0.7,0-1.3,0-1.8-0.1c-0.5-0.1-1-0.2-1.4-0.4v-2.2
		c0.5,0.2,1.1,0.4,1.7,0.6c0.6,0.2,1.2,0.2,1.6,0.2c1,0,1.4-0.3,1.4-0.8c0-0.2-0.1-0.4-0.2-0.5c-0.1-0.1-0.3-0.3-0.7-0.4
		s-0.7-0.4-1.3-0.6c-0.8-0.3-1.3-0.6-1.7-0.9s-0.6-0.6-0.8-0.9c-0.2-0.3-0.2-0.8-0.2-1.3c0-0.9,0.3-1.5,1-2c0.7-0.5,1.6-0.7,2.9-0.7
		c1.2,0,2.3,0.3,3.4,0.8l-0.8,1.9c-0.5-0.2-0.9-0.4-1.4-0.5c-0.4-0.1-0.9-0.2-1.3-0.2c-0.8,0-1.2,0.2-1.2,0.6c0,0.2,0.1,0.4,0.4,0.6
		c0.3,0.2,0.8,0.4,1.7,0.8c0.8,0.3,1.3,0.6,1.7,0.9c0.4,0.3,0.6,0.6,0.8,0.9C165.7,46.6,165.8,47,165.8,47.5z"/>
	<path class="st2" d="M172.3,50.5c-1.6,0-2.8-0.4-3.7-1.3s-1.3-2.1-1.3-3.7c0-1.6,0.4-2.9,1.2-3.8c0.8-0.9,1.9-1.3,3.4-1.3
		c1.4,0,2.5,0.4,3.2,1.2c0.8,0.8,1.2,1.9,1.2,3.3v1.3H170c0,0.8,0.3,1.3,0.7,1.8s1,0.6,1.8,0.6c0.6,0,1.1-0.1,1.7-0.2
		c0.5-0.1,1.1-0.3,1.6-0.6v2.1c-0.5,0.2-1,0.4-1.5,0.5C173.7,50.5,173.1,50.5,172.3,50.5z M171.9,42.3c-0.6,0-1,0.2-1.3,0.5
		c-0.3,0.4-0.5,0.9-0.6,1.5h3.7c0-0.7-0.2-1.2-0.5-1.5C172.9,42.5,172.5,42.3,171.9,42.3z"/>
	<path class="st2" d="M56.4,71.8h-3.4l-5.6-9.7h-0.1c0.1,1.7,0.2,2.9,0.2,3.6v6H45V59h3.4l5.5,9.6H54c-0.1-1.7-0.1-2.8-0.1-3.5v-6
		h2.4V71.8z"/>
	<path class="st2" d="M63.8,72c-1.6,0-2.8-0.4-3.7-1.3s-1.3-2.1-1.3-3.7c0-1.6,0.4-2.9,1.2-3.8c0.8-0.9,1.9-1.3,3.4-1.3
		c1.4,0,2.5,0.4,3.2,1.2c0.8,0.8,1.2,1.9,1.2,3.3v1.3h-6.3c0,0.8,0.3,1.3,0.7,1.8s1,0.6,1.8,0.6c0.6,0,1.1-0.1,1.7-0.2
		c0.5-0.1,1.1-0.3,1.6-0.6v2.1c-0.5,0.2-1,0.4-1.5,0.5C65.2,71.9,64.5,72,63.8,72z M63.4,63.8c-0.6,0-1,0.2-1.3,0.5
		c-0.3,0.4-0.5,0.9-0.6,1.5h3.7c0-0.7-0.2-1.2-0.5-1.5C64.4,63.9,64,63.8,63.4,63.8z"/>
	<path class="st2" d="M77.8,71.8L77,68.4l-1-4.3h-0.1l-1.8,7.7h-2.9l-2.8-9.8h2.7l1.1,4.3c0.1,0.5,0.3,1.6,0.5,3.2h0.1
		c0-0.4,0.1-1.1,0.3-2.1l0.1-0.7l1.2-4.7h2.9l1.1,4.7c0.1,0.3,0.2,0.8,0.3,1.4c0.1,0.6,0.2,1.1,0.2,1.4h0.1c0.1-0.5,0.2-1.1,0.3-1.8
		s0.2-1.1,0.3-1.4l1.2-4.3h2.6l-2.8,9.8H77.8z"/>
	<path class="st2" d="M93.9,64.3l2.7-5.3h2.9l-4.2,7.8v5h-2.7v-4.9L88.3,59h2.9L93.9,64.3z"/>
	<path class="st2" d="M104.8,72c-1.6,0-2.8-0.4-3.7-1.3s-1.3-2.1-1.3-3.7c0-1.6,0.4-2.9,1.2-3.8c0.8-0.9,1.9-1.3,3.4-1.3
		c1.4,0,2.5,0.4,3.2,1.2c0.8,0.8,1.2,1.9,1.2,3.3v1.3h-6.3c0,0.8,0.3,1.3,0.7,1.8c0.4,0.4,1,0.6,1.8,0.6c0.6,0,1.1-0.1,1.7-0.2
		s1.1-0.3,1.6-0.6v2.1c-0.5,0.2-1,0.4-1.5,0.5C106.2,71.9,105.6,72,104.8,72z M104.4,63.8c-0.6,0-1,0.2-1.3,0.5
		c-0.3,0.4-0.5,0.9-0.5,1.5h3.7c0-0.7-0.2-1.2-0.5-1.5C105.5,63.9,105,63.8,104.4,63.8z"/>
	<path class="st2" d="M117.2,71.8l-0.5-1.3h-0.1c-0.4,0.6-0.9,1-1.4,1.2c-0.5,0.2-1.1,0.3-1.9,0.3c-0.9,0-1.7-0.3-2.2-0.8
		c-0.5-0.5-0.8-1.3-0.8-2.3c0-1,0.4-1.8,1.1-2.3c0.7-0.5,1.8-0.8,3.3-0.8l1.7-0.1v-0.4c0-1-0.5-1.5-1.5-1.5c-0.8,0-1.7,0.2-2.7,0.7
		l-0.9-1.8c1.1-0.6,2.4-0.9,3.7-0.9c1.3,0,2.3,0.3,3,0.9c0.7,0.6,1,1.4,1,2.6v6.5H117.2z M116.4,67.3l-1,0c-0.8,0-1.4,0.2-1.7,0.4
		c-0.4,0.3-0.6,0.6-0.6,1.2c0,0.8,0.4,1.1,1.3,1.1c0.6,0,1.1-0.2,1.5-0.5c0.4-0.4,0.6-0.8,0.6-1.4V67.3z"/>
	<path class="st2" d="M127.2,61.9c0.4,0,0.7,0,0.9,0.1l-0.2,2.5c-0.2-0.1-0.5-0.1-0.8-0.1c-0.8,0-1.5,0.2-2,0.7s-0.7,1-0.7,1.8v5
		h-2.7v-9.8h2l0.4,1.6h0.1c0.3-0.5,0.7-1,1.2-1.3C126,62,126.6,61.9,127.2,61.9z"/>
	<path class="st2" d="M142.3,68.3c0,1.2-0.4,2.1-1.2,2.7c-0.8,0.7-2,1-3.5,1c-1.4,0-2.6-0.3-3.6-0.8v-2.5c0.9,0.4,1.6,0.7,2.2,0.8
		s1.1,0.2,1.6,0.2c0.6,0,1-0.1,1.4-0.3c0.3-0.2,0.5-0.6,0.5-1c0-0.3-0.1-0.5-0.2-0.7c-0.1-0.2-0.3-0.4-0.6-0.6
		c-0.3-0.2-0.8-0.5-1.7-0.9c-0.8-0.4-1.4-0.7-1.8-1.1c-0.4-0.3-0.7-0.7-0.9-1.2c-0.2-0.4-0.3-1-0.3-1.6c0-1.1,0.4-2,1.1-2.7
		c0.8-0.6,1.8-1,3.2-1c0.7,0,1.3,0.1,1.9,0.2c0.6,0.2,1.2,0.4,1.9,0.7l-0.9,2.1c-0.7-0.3-1.2-0.5-1.7-0.6s-0.9-0.2-1.3-0.2
		c-0.5,0-0.9,0.1-1.2,0.4c-0.3,0.2-0.4,0.5-0.4,0.9c0,0.2,0.1,0.4,0.2,0.6c0.1,0.2,0.3,0.3,0.5,0.5s0.8,0.5,1.7,0.9
		c1.2,0.6,2,1.1,2.5,1.7S142.3,67.4,142.3,68.3z"/>
	<path class="st2" d="M150.6,71.8l-0.5-1.3H150c-0.4,0.6-0.9,1-1.4,1.2c-0.5,0.2-1.1,0.3-1.9,0.3c-0.9,0-1.7-0.3-2.2-0.8
		c-0.5-0.5-0.8-1.3-0.8-2.3c0-1,0.4-1.8,1.1-2.3c0.7-0.5,1.8-0.8,3.3-0.8l1.7-0.1v-0.4c0-1-0.5-1.5-1.5-1.5c-0.8,0-1.7,0.2-2.7,0.7
		l-0.9-1.8c1.1-0.6,2.4-0.9,3.7-0.9c1.3,0,2.3,0.3,3,0.9c0.7,0.6,1,1.4,1,2.6v6.5H150.6z M149.8,67.3l-1,0c-0.8,0-1.4,0.2-1.7,0.4
		c-0.4,0.3-0.6,0.6-0.6,1.2c0,0.8,0.4,1.1,1.3,1.1c0.6,0,1.1-0.2,1.5-0.5c0.4-0.4,0.6-0.8,0.6-1.4V67.3z"/>
	<path class="st2" d="M157.8,71.8h-2.7V58.2h2.7V71.8z"/>
	<path class="st2" d="M165,72c-1.6,0-2.8-0.4-3.7-1.3S160,68.6,160,67c0-1.6,0.4-2.9,1.2-3.8c0.8-0.9,1.9-1.3,3.4-1.3
		c1.4,0,2.5,0.4,3.2,1.2c0.8,0.8,1.2,1.9,1.2,3.3v1.3h-6.3c0,0.8,0.3,1.3,0.7,1.8c0.4,0.4,1,0.6,1.8,0.6c0.6,0,1.1-0.1,1.7-0.2
		s1.1-0.3,1.6-0.6v2.1c-0.5,0.2-1,0.4-1.5,0.5C166.4,71.9,165.8,72,165,72z M164.7,63.8c-0.6,0-1,0.2-1.3,0.5
		c-0.3,0.4-0.5,0.9-0.5,1.5h3.7c0-0.7-0.2-1.2-0.5-1.5C165.7,63.9,165.2,63.8,164.7,63.8z"/>
</g>
<rect x="101.5" y="101.5" class="st3" width="100" height="100"/>
<g>
	<path d="M114.8,141.8c0-0.6,0.3-0.9,1-0.9s1,0.3,1,0.9c0,0.3-0.1,0.5-0.2,0.6s-0.4,0.2-0.7,0.2
		C115.1,142.7,114.8,142.4,114.8,141.8z M116.7,150h-1.8v-6.6h1.8V150z"/>
	<path d="M122.1,150.1c-0.8,0-1.4-0.3-1.8-0.8h-0.1c0.1,0.5,0.1,0.9,0.1,0.9v2.7h-1.8v-9.4h1.5l0.3,0.8h0.1c0.4-0.6,1-1,1.9-1
		c0.8,0,1.4,0.3,1.8,0.9s0.7,1.4,0.7,2.5c0,0.7-0.1,1.3-0.3,1.8s-0.5,0.9-0.9,1.2S122.6,150.1,122.1,150.1z M121.6,144.8
		c-0.4,0-0.8,0.1-1,0.4s-0.3,0.7-0.3,1.3v0.2c0,0.7,0.1,1.2,0.3,1.5s0.5,0.5,1,0.5c0.8,0,1.2-0.7,1.2-2c0-0.6-0.1-1.1-0.3-1.5
		S122,144.8,121.6,144.8z"/>
	<path d="M129.8,143.4c0.2,0,0.4,0,0.6,0.1l-0.1,1.7c-0.1,0-0.3-0.1-0.5-0.1c-0.6,0-1,0.1-1.3,0.4s-0.5,0.7-0.5,1.2v3.3h-1.8v-6.6
		h1.4l0.3,1.1h0.1c0.2-0.4,0.5-0.7,0.8-0.9S129.4,143.4,129.8,143.4z"/>
	<path d="M131.5,141.8c0-0.6,0.3-0.9,1-0.9s1,0.3,1,0.9c0,0.3-0.1,0.5-0.2,0.6s-0.4,0.2-0.7,0.2
		C131.8,142.7,131.5,142.4,131.5,141.8z M133.4,150h-1.8v-6.6h1.8V150z"/>
	<path d="M137.9,150.1c-2,0-3.1-1.1-3.1-3.4c0-1.1,0.3-2,0.8-2.6s1.3-0.9,2.4-0.9c0.8,0,1.4,0.1,2,0.4l-0.5,1.4
		c-0.3-0.1-0.5-0.2-0.8-0.3s-0.5-0.1-0.7-0.1c-0.9,0-1.4,0.7-1.4,2c0,1.3,0.5,1.9,1.4,1.9c0.3,0,0.7,0,1-0.1s0.6-0.2,0.9-0.4v1.5
		c-0.3,0.2-0.6,0.3-0.9,0.4S138.3,150.1,137.9,150.1z"/>
	<path d="M144.4,150.1c-1.1,0-1.9-0.3-2.5-0.9s-0.9-1.4-0.9-2.5c0-1.1,0.3-1.9,0.8-2.5s1.3-0.9,2.3-0.9c0.9,0,1.6,0.3,2.2,0.8
		s0.8,1.3,0.8,2.2v0.9h-4.2c0,0.5,0.2,0.9,0.5,1.2s0.7,0.4,1.2,0.4c0.4,0,0.8,0,1.1-0.1s0.7-0.2,1.1-0.4v1.4c-0.3,0.2-0.6,0.3-1,0.3
		S144.9,150.1,144.4,150.1z M144.1,144.6c-0.4,0-0.7,0.1-0.9,0.4s-0.3,0.6-0.4,1h2.5c0-0.4-0.1-0.8-0.3-1S144.5,144.6,144.1,144.6z"
		/>
	<path d="M157.7,144.1c0,0.9-0.3,1.6-0.9,2.1s-1.4,0.7-2.5,0.7h-0.8v3h-1.8v-8.6h2.7c1,0,1.8,0.2,2.4,0.7S157.7,143.2,157.7,144.1z
		 M153.6,145.5h0.6c0.6,0,1-0.1,1.3-0.3s0.4-0.5,0.4-1c0-0.4-0.1-0.7-0.3-0.9s-0.6-0.3-1.1-0.3h-0.8V145.5z"/>
	<path d="M159.1,141.8c0-0.6,0.3-0.9,1-0.9s1,0.3,1,0.9c0,0.3-0.1,0.5-0.2,0.6s-0.4,0.2-0.7,0.2
		C159.4,142.7,159.1,142.4,159.1,141.8z M160.9,150h-1.8v-6.6h1.8V150z"/>
	<path d="M165.5,150.1c-2,0-3.1-1.1-3.1-3.4c0-1.1,0.3-2,0.8-2.6s1.3-0.9,2.4-0.9c0.8,0,1.4,0.1,2,0.4l-0.5,1.4
		c-0.3-0.1-0.5-0.2-0.8-0.3s-0.5-0.1-0.7-0.1c-0.9,0-1.4,0.7-1.4,2c0,1.3,0.5,1.9,1.4,1.9c0.3,0,0.7,0,1-0.1s0.6-0.2,0.9-0.4v1.5
		c-0.3,0.2-0.6,0.3-0.9,0.4S165.9,150.1,165.5,150.1z"/>
	<path d="M170.7,146.5l0.8-1l1.8-2h2l-2.6,2.8l2.8,3.7h-2.1l-1.9-2.7l-0.8,0.6v2H169v-9.1h1.8v4.1L170.7,146.5L170.7,146.5z"/>
	<path d="M181,148.1c0,0.7-0.2,1.2-0.7,1.5s-1.2,0.5-2.1,0.5c-0.5,0-0.9,0-1.2-0.1s-0.7-0.2-0.9-0.3v-1.5c0.3,0.2,0.7,0.3,1.1,0.4
		s0.8,0.2,1.1,0.2c0.6,0,1-0.2,1-0.6c0-0.1,0-0.3-0.1-0.3s-0.2-0.2-0.4-0.3s-0.5-0.2-0.8-0.4c-0.5-0.2-0.9-0.4-1.1-0.6
		s-0.4-0.4-0.5-0.6s-0.2-0.5-0.2-0.9c0-0.6,0.2-1,0.7-1.4s1.1-0.5,1.9-0.5c0.8,0,1.6,0.2,2.3,0.5l-0.5,1.3c-0.3-0.1-0.6-0.3-0.9-0.3
		s-0.6-0.1-0.9-0.1c-0.5,0-0.8,0.1-0.8,0.4c0,0.2,0.1,0.3,0.3,0.4s0.5,0.3,1.1,0.5c0.5,0.2,0.9,0.4,1.1,0.6s0.4,0.4,0.5,0.6
		S181,147.8,181,148.1z"/>
	<path d="M182.1,149.2c0-0.3,0.1-0.6,0.3-0.7s0.4-0.3,0.8-0.3c0.3,0,0.6,0.1,0.8,0.3s0.3,0.4,0.3,0.7c0,0.3-0.1,0.6-0.3,0.7
		s-0.4,0.3-0.8,0.3c-0.3,0-0.6-0.1-0.8-0.3S182.1,149.5,182.1,149.2z M183.9,147.2h-1.4l-0.3-5.7h2L183.9,147.2z"/>
</g>
<polygon class="st4" points="52.4,124.2 59,115.8 62,126.1 71.3,120.9 70.1,131.5 80.7,130.3 75.5,139.6 85.8,142.5 77.4,149.2 
	85.8,155.8 75.5,158.7 80.7,168.1 70.1,166.9 71.3,177.5 62,172.3 59,182.5 52.4,174.2 45.8,182.5 42.8,172.3 33.5,177.5 
	34.7,166.9 24.1,168.1 29.3,158.7 19,155.8 27.4,149.2 19,142.5 29.3,139.6 24.1,130.3 34.7,131.5 33.5,120.9 42.8,126.1 
	45.8,115.8 "/>
<g>
	<path d="M38.9,144.4c0-3.3,2.7-5.6,5.7-5.6c3,0,5.7,2.3,5.7,5.6c0,3.3-2.7,5.6-5.7,5.6C41.6,150,38.9,147.7,38.9,144.4z
		 M46.9,144.4c0-1.4-1.1-2.4-2.3-2.4s-2.3,0.9-2.3,2.4c0,1.4,1.1,2.4,2.3,2.4S46.9,145.9,46.9,144.4z M56.3,139.1h3.9l-11.7,20h-3.9
		L56.3,139.1z M54.5,153.9c0-3.3,2.7-5.6,5.7-5.6c3,0,5.7,2.3,5.7,5.6c0,3.3-2.7,5.6-5.7,5.6C57.2,159.5,54.5,157.2,54.5,153.9z
		 M62.5,153.9c0-1.4-1.1-2.4-2.3-2.4c-1.2,0-2.3,0.9-2.3,2.4c0,1.4,1.1,2.4,2.3,2.4C61.4,156.3,62.5,155.4,62.5,153.9z"/>
</g>
<polygon points="118.6,161.2 127.3,166.2 118.6,171.2 "/>
</svg>