<!-- Generator: Adobe Illustrator 19.0.0, SVG Export Plug-In  -->
<svg version="1.1"
	 xmlns="http://www.w3.org/2000/svg" xmlns:xlink="http://www.w3.org/1999/xlink" xmlns:a="http://ns.adobe.com/AdobeSVGViewerExtensions/3.0/"
	 x="0px" y="0px" width="747.7px" height="71.3px" viewBox="0 0 747.7 71.3" style="enable-background:new 0 0 747.7 71.3;"
	 xml:space="preserve">
<style type="text/css">
	.st0{fill:none;stroke:#15103F;stroke-width:3;stroke-miterlimit:10;}
	.st1{fill:#15103F;}
</style>
<defs>
</defs>
<line class="st0" x1="0" y1="16" x2="747.7" y2="16"/>
<circle class="st1" cx="83.3" cy="16.7" r="16.7"/>
<circle class="st1" cx="377.3" cy="16.7" r="16.7"/>
<circle class="st1" cx="678.7" cy="16.7" r="16.7"/>
<g>
	<path d="M74.6,54h-4.9v-8.6h4.9v1.5h-3.1v1.9h2.9v1.5h-2.9v2.2h3.1V54z"/>
	<path d="M82.3,54h-1.8v-3.8c0-0.5-0.1-0.8-0.3-1.1s-0.4-0.4-0.8-0.4c-0.5,0-0.9,0.2-1.1,0.5s-0.3,0.9-0.3,1.7V54h-1.8v-6.6h1.4
		l0.2,0.8H78c0.2-0.3,0.5-0.6,0.8-0.7s0.7-0.2,1.2-0.2c0.8,0,1.3,0.2,1.7,0.6s0.6,1,0.6,1.8V54z"/>
	<path d="M86.3,54.1c-0.8,0-1.4-0.3-1.8-0.9s-0.7-1.4-0.7-2.5c0-1.1,0.2-1.9,0.7-2.5s1.1-0.9,1.8-0.9c0.8,0,1.5,0.3,1.9,1h0.1
		c-0.1-0.5-0.1-0.9-0.1-1.3v-2.1h1.8V54h-1.4l-0.3-0.8h-0.1C87.7,53.8,87.1,54.1,86.3,54.1z M86.9,52.7c0.5,0,0.8-0.1,1-0.4
		s0.3-0.7,0.3-1.4v-0.2c0-0.7-0.1-1.2-0.3-1.5s-0.6-0.5-1.1-0.5c-0.4,0-0.7,0.2-0.9,0.5s-0.3,0.8-0.3,1.5s0.1,1.1,0.3,1.5
		S86.5,52.7,86.9,52.7z"/>
	<path d="M96.3,52c0,0.7-0.2,1.2-0.7,1.5s-1.2,0.5-2.1,0.5c-0.5,0-0.9,0-1.2-0.1s-0.7-0.2-0.9-0.3v-1.5c0.3,0.2,0.7,0.3,1.1,0.4
		s0.8,0.2,1.1,0.2c0.6,0,1-0.2,1-0.6c0-0.1,0-0.3-0.1-0.3s-0.2-0.2-0.4-0.3s-0.5-0.2-0.8-0.4c-0.5-0.2-0.9-0.4-1.1-0.6
		s-0.4-0.4-0.5-0.6s-0.2-0.5-0.2-0.9c0-0.6,0.2-1,0.7-1.4s1.1-0.5,1.9-0.5c0.8,0,1.6,0.2,2.3,0.5l-0.5,1.3c-0.3-0.1-0.6-0.3-0.9-0.3
		s-0.6-0.1-0.9-0.1c-0.5,0-0.8,0.1-0.8,0.4c0,0.2,0.1,0.3,0.3,0.4s0.5,0.3,1.1,0.5c0.5,0.2,0.9,0.4,1.1,0.6s0.4,0.4,0.5,0.6
		S96.3,51.7,96.3,52z"/>
	<path d="M71.5,68.4h-1.8v-8.6h4.9v1.5h-3.1v2.2h2.9V65h-2.9V68.4z"/>
	<path d="M79.1,68.5c-1.1,0-1.9-0.3-2.5-0.9s-0.9-1.4-0.9-2.5c0-1.1,0.3-1.9,0.8-2.5s1.3-0.9,2.3-0.9c0.9,0,1.6,0.3,2.2,0.8
		s0.8,1.3,0.8,2.2v0.9h-4.2c0,0.5,0.2,0.9,0.5,1.2s0.7,0.4,1.2,0.4c0.4,0,0.8,0,1.1-0.1s0.7-0.2,1.1-0.4V68c-0.3,0.2-0.6,0.3-1,0.3
		S79.6,68.5,79.1,68.5z M78.9,63c-0.4,0-0.7,0.1-0.9,0.4s-0.3,0.6-0.4,1h2.5c0-0.4-0.1-0.8-0.3-1S79.2,63,78.9,63z"/>
	<path d="M86.9,61.7c0.8,0,1.4,0.3,1.8,0.9s0.7,1.4,0.7,2.5c0,1.1-0.2,1.9-0.7,2.5s-1.1,0.9-1.8,0.9c-0.8,0-1.4-0.3-1.8-0.8h-0.1
		l-0.3,0.7h-1.4v-9.1H85v2.1c0,0.3,0,0.7-0.1,1.3H85C85.5,62,86.1,61.7,86.9,61.7z M86.3,63.1c-0.4,0-0.8,0.1-1,0.4S85,64.3,85,64.9
		v0.2c0,0.7,0.1,1.2,0.3,1.5s0.5,0.5,1,0.5c0.4,0,0.7-0.2,0.9-0.5s0.3-0.8,0.3-1.5s-0.1-1.1-0.3-1.5S86.7,63.1,86.3,63.1z"/>
	<path d="M94.5,61.7c0.2,0,0.4,0,0.6,0.1L95,63.4c-0.1,0-0.3-0.1-0.5-0.1c-0.6,0-1,0.1-1.3,0.4c-0.3,0.3-0.5,0.7-0.5,1.2v3.3h-1.8
		v-6.6h1.4l0.3,1.1h0.1c0.2-0.4,0.5-0.7,0.8-0.9S94.1,61.7,94.5,61.7z"/>
	<path d="M100.9,68.4l-0.2-0.8h-0.1c-0.2,0.3-0.5,0.5-0.8,0.7s-0.8,0.2-1.2,0.2c-0.8,0-1.3-0.2-1.7-0.6s-0.6-1-0.6-1.8v-4.3H98v3.8
		c0,0.5,0.1,0.8,0.3,1.1s0.4,0.4,0.8,0.4c0.5,0,0.9-0.2,1.1-0.5s0.3-0.9,0.3-1.7v-3.1h1.8v6.6H100.9z"/>
	<path d="M108.3,68.4l-0.3-0.9h0c-0.3,0.4-0.6,0.6-0.9,0.8s-0.7,0.2-1.2,0.2c-0.6,0-1.1-0.2-1.5-0.5s-0.5-0.9-0.5-1.5
		c0-0.7,0.2-1.2,0.7-1.5s1.2-0.5,2.2-0.5l1.1,0V64c0-0.7-0.3-1-1-1c-0.5,0-1.1,0.2-1.8,0.5l-0.6-1.2c0.8-0.4,1.6-0.6,2.5-0.6
		c0.9,0,1.6,0.2,2,0.6s0.7,1,0.7,1.7v4.4H108.3z M107.8,65.4l-0.7,0c-0.5,0-0.9,0.1-1.2,0.3s-0.4,0.4-0.4,0.8c0,0.5,0.3,0.8,0.9,0.8
		c0.4,0,0.7-0.1,1-0.4s0.4-0.6,0.4-0.9V65.4z"/>
	<path d="M115.1,61.7c0.2,0,0.4,0,0.6,0.1l-0.1,1.7c-0.1,0-0.3-0.1-0.5-0.1c-0.6,0-1,0.1-1.3,0.4c-0.3,0.3-0.5,0.7-0.5,1.2v3.3h-1.8
		v-6.6h1.4l0.3,1.1h0.1c0.2-0.4,0.5-0.7,0.8-0.9S114.7,61.7,115.1,61.7z"/>
	<path d="M115.9,61.8h2l1.2,3.7c0.1,0.3,0.2,0.7,0.2,1.1h0c0-0.4,0.1-0.8,0.3-1.1l1.2-3.7h1.9l-2.8,7.4c-0.3,0.7-0.6,1.2-1.1,1.5
		s-1,0.5-1.6,0.5c-0.3,0-0.6,0-0.9-0.1v-1.4c0.2,0.1,0.4,0.1,0.7,0.1c0.3,0,0.6-0.1,0.8-0.3s0.4-0.5,0.6-0.9l0.1-0.3L115.9,61.8z"/>
	<path d="M132.5,66.6h-1v1.8h-1.8v-1.8h-3.7v-1.3l3.8-5.5h1.7v5.4h1V66.6z M129.7,65.2v-1.5c0-0.2,0-0.6,0-1.1s0-0.7,0-0.8h0
		c-0.1,0.3-0.3,0.6-0.5,0.9l-1.6,2.4H129.7z"/>
</g>
<g>
	<path d="M366.7,52h-4.9v-8.6h4.9v1.5h-3.1v1.9h2.9v1.5h-2.9v2.2h3.1V52z"/>
	<path d="M374.4,52h-1.8v-3.8c0-0.5-0.1-0.8-0.3-1.1s-0.4-0.4-0.8-0.4c-0.5,0-0.9,0.2-1.1,0.5s-0.3,0.9-0.3,1.7V52h-1.8v-6.6h1.4
		l0.2,0.8h0.1c0.2-0.3,0.5-0.6,0.8-0.7s0.7-0.2,1.2-0.2c0.8,0,1.3,0.2,1.7,0.6s0.6,1,0.6,1.8V52z"/>
	<path d="M378.3,52.1c-0.8,0-1.4-0.3-1.8-0.9s-0.7-1.4-0.7-2.5c0-1.1,0.2-1.9,0.7-2.5s1.1-0.9,1.8-0.9c0.8,0,1.5,0.3,1.9,1h0.1
		c-0.1-0.5-0.1-0.9-0.1-1.3v-2.1h1.8V52h-1.4l-0.3-0.8h-0.1C379.8,51.8,379.2,52.1,378.3,52.1z M379,50.7c0.5,0,0.8-0.1,1-0.4
		s0.3-0.7,0.3-1.4v-0.2c0-0.7-0.1-1.2-0.3-1.5s-0.6-0.5-1.1-0.5c-0.4,0-0.7,0.2-0.9,0.5s-0.3,0.8-0.3,1.5s0.1,1.1,0.3,1.5
		S378.6,50.7,379,50.7z"/>
	<path d="M388.4,50.1c0,0.7-0.2,1.2-0.7,1.5s-1.2,0.5-2.1,0.5c-0.5,0-0.9,0-1.2-0.1s-0.7-0.2-0.9-0.3v-1.5c0.3,0.2,0.7,0.3,1.1,0.4
		s0.8,0.2,1.1,0.2c0.6,0,1-0.2,1-0.6c0-0.1,0-0.3-0.1-0.3s-0.2-0.2-0.4-0.3s-0.5-0.2-0.8-0.4c-0.5-0.2-0.9-0.4-1.1-0.6
		s-0.4-0.4-0.5-0.6s-0.2-0.5-0.2-0.9c0-0.6,0.2-1,0.7-1.4s1.1-0.5,1.9-0.5c0.8,0,1.6,0.2,2.3,0.5l-0.5,1.3c-0.3-0.1-0.6-0.3-0.9-0.3
		s-0.6-0.1-0.9-0.1c-0.5,0-0.8,0.1-0.8,0.4c0,0.2,0.1,0.3,0.3,0.4s0.5,0.3,1.1,0.5c0.5,0.2,0.9,0.4,1.1,0.6s0.4,0.4,0.5,0.6
		S388.4,49.8,388.4,50.1z"/>
	<path d="M363.6,66.4h-1.8v-8.6h4.9v1.5h-3.1v2.2h2.9V63h-2.9V66.4z"/>
	<path d="M371.2,66.5c-1.1,0-1.9-0.3-2.5-0.9s-0.9-1.4-0.9-2.5c0-1.1,0.3-1.9,0.8-2.5s1.3-0.9,2.3-0.9c0.9,0,1.6,0.3,2.2,0.8
		s0.8,1.3,0.8,2.2v0.9h-4.2c0,0.5,0.2,0.9,0.5,1.2s0.7,0.4,1.2,0.4c0.4,0,0.8,0,1.1-0.1s0.7-0.2,1.1-0.4v1.4c-0.3,0.2-0.6,0.3-1,0.3
		S371.7,66.5,371.2,66.5z M371,61c-0.4,0-0.7,0.1-0.9,0.4s-0.3,0.6-0.4,1h2.5c0-0.4-0.1-0.8-0.3-1S371.3,61,371,61z"/>
	<path d="M379,59.7c0.8,0,1.4,0.3,1.8,0.9s0.7,1.4,0.7,2.5c0,1.1-0.2,1.9-0.7,2.5s-1.1,0.9-1.8,0.9c-0.8,0-1.4-0.3-1.8-0.8H377
		l-0.3,0.7h-1.4v-9.1h1.8v2.1c0,0.3,0,0.7-0.1,1.3h0.1C377.5,60.1,378.2,59.7,379,59.7z M378.4,61.2c-0.4,0-0.8,0.1-1,0.4
		s-0.3,0.7-0.3,1.3v0.2c0,0.7,0.1,1.2,0.3,1.5s0.5,0.5,1,0.5c0.4,0,0.7-0.2,0.9-0.5s0.3-0.8,0.3-1.5s-0.1-1.1-0.3-1.5
		S378.8,61.2,378.4,61.2z"/>
	<path d="M386.6,59.7c0.2,0,0.4,0,0.6,0.1l-0.1,1.7c-0.1,0-0.3-0.1-0.5-0.1c-0.6,0-1,0.1-1.3,0.4s-0.5,0.7-0.5,1.2v3.3h-1.8v-6.6
		h1.4l0.3,1.1h0.1c0.2-0.4,0.5-0.7,0.8-0.9S386.2,59.7,386.6,59.7z"/>
	<path d="M393,66.4l-0.2-0.8h-0.1c-0.2,0.3-0.5,0.5-0.8,0.7s-0.8,0.2-1.2,0.2c-0.8,0-1.3-0.2-1.7-0.6s-0.6-1-0.6-1.8v-4.3h1.8v3.8
		c0,0.5,0.1,0.8,0.3,1.1s0.4,0.4,0.8,0.4c0.5,0,0.9-0.2,1.1-0.5s0.3-0.9,0.3-1.7v-3.1h1.8v6.6H393z"/>
	<path d="M400.4,66.4l-0.3-0.9h0c-0.3,0.4-0.6,0.6-0.9,0.8s-0.7,0.2-1.2,0.2c-0.6,0-1.1-0.2-1.5-0.5s-0.5-0.9-0.5-1.5
		c0-0.7,0.2-1.2,0.7-1.5s1.2-0.5,2.2-0.5l1.1,0v-0.3c0-0.7-0.3-1-1-1c-0.5,0-1.1,0.2-1.8,0.5l-0.6-1.2c0.8-0.4,1.6-0.6,2.5-0.6
		c0.9,0,1.6,0.2,2,0.6s0.7,1,0.7,1.7v4.4H400.4z M399.9,63.4l-0.7,0c-0.5,0-0.9,0.1-1.2,0.3s-0.4,0.4-0.4,0.8c0,0.5,0.3,0.8,0.9,0.8
		c0.4,0,0.7-0.1,1-0.4s0.4-0.6,0.4-0.9V63.4z"/>
	<path d="M407.2,59.7c0.2,0,0.4,0,0.6,0.1l-0.1,1.7c-0.1,0-0.3-0.1-0.5-0.1c-0.6,0-1,0.1-1.3,0.4s-0.5,0.7-0.5,1.2v3.3h-1.8v-6.6
		h1.4l0.3,1.1h0.1c0.2-0.4,0.5-0.7,0.8-0.9S406.8,59.7,407.2,59.7z"/>
	<path d="M408,59.9h2l1.2,3.7c0.1,0.3,0.2,0.7,0.2,1.1h0c0-0.4,0.1-0.8,0.3-1.1l1.2-3.7h1.9l-2.8,7.4c-0.3,0.7-0.6,1.2-1.1,1.5
		s-1,0.5-1.6,0.5c-0.3,0-0.6,0-0.9-0.1v-1.4c0.2,0.1,0.4,0.1,0.7,0.1c0.3,0,0.6-0.1,0.8-0.3s0.4-0.5,0.6-0.9l0.1-0.3L408,59.9z"/>
	<path d="M419.3,66.4l3.2-7h-4.2v-1.5h6.1V59l-3.2,7.4H419.3z"/>
</g>
<g>
	<path d="M668.9,50.9H664v-8.6h4.9v1.5h-3.1v1.9h2.9v1.5h-2.9v2.2h3.1V50.9z"/>
	<path d="M676.6,50.9h-1.8v-3.8c0-0.5-0.1-0.8-0.3-1.1s-0.4-0.4-0.8-0.4c-0.5,0-0.9,0.2-1.1,0.5s-0.3,0.9-0.3,1.7v3.1h-1.8v-6.6h1.4
		l0.2,0.8h0.1c0.2-0.3,0.5-0.6,0.8-0.7s0.7-0.2,1.2-0.2c0.8,0,1.3,0.2,1.7,0.6s0.6,1,0.6,1.8V50.9z"/>
	<path d="M680.5,51c-0.8,0-1.4-0.3-1.8-0.9s-0.7-1.4-0.7-2.5c0-1.1,0.2-1.9,0.7-2.5s1.1-0.9,1.8-0.9c0.8,0,1.5,0.3,1.9,1h0.1
		c-0.1-0.5-0.1-0.9-0.1-1.3v-2.1h1.8v9.1h-1.4l-0.3-0.8h-0.1C682,50.7,681.4,51,680.5,51z M681.1,49.6c0.5,0,0.8-0.1,1-0.4
		s0.3-0.7,0.3-1.4v-0.2c0-0.7-0.1-1.2-0.3-1.5s-0.6-0.5-1.1-0.5c-0.4,0-0.7,0.2-0.9,0.5s-0.3,0.8-0.3,1.5s0.1,1.1,0.3,1.5
		S680.7,49.6,681.1,49.6z"/>
	<path d="M690.6,49c0,0.7-0.2,1.2-0.7,1.5s-1.2,0.5-2.1,0.5c-0.5,0-0.9,0-1.2-0.1s-0.7-0.2-0.9-0.3v-1.5c0.3,0.2,0.7,0.3,1.1,0.4
		s0.8,0.2,1.1,0.2c0.6,0,1-0.2,1-0.6c0-0.1,0-0.3-0.1-0.3s-0.2-0.2-0.4-0.3s-0.5-0.2-0.8-0.4c-0.5-0.2-0.9-0.4-1.1-0.6
		s-0.4-0.4-0.5-0.6s-0.2-0.5-0.2-0.9c0-0.6,0.2-1,0.7-1.4s1.1-0.5,1.9-0.5c0.8,0,1.6,0.2,2.3,0.5L690,46c-0.3-0.1-0.6-0.3-0.9-0.3
		s-0.6-0.1-0.9-0.1c-0.5,0-0.8,0.1-0.8,0.4c0,0.2,0.1,0.3,0.3,0.4s0.5,0.3,1.1,0.5c0.5,0.2,0.9,0.4,1.1,0.6s0.4,0.4,0.5,0.6
		S690.6,48.6,690.6,49z"/>
	<path d="M665.8,65.3H664v-8.6h4.9v1.5h-3.1v2.2h2.9v1.5h-2.9V65.3z"/>
	<path d="M673.4,65.4c-1.1,0-1.9-0.3-2.5-0.9c-0.6-0.6-0.9-1.4-0.9-2.5c0-1.1,0.3-1.9,0.8-2.5s1.3-0.9,2.3-0.9
		c0.9,0,1.6,0.3,2.2,0.8s0.8,1.3,0.8,2.2v0.9h-4.2c0,0.5,0.2,0.9,0.5,1.2s0.7,0.4,1.2,0.4c0.4,0,0.8,0,1.1-0.1
		c0.4-0.1,0.7-0.2,1.1-0.4V65c-0.3,0.2-0.6,0.3-1,0.3S673.9,65.4,673.4,65.4z M673.1,59.9c-0.4,0-0.7,0.1-0.9,0.4s-0.3,0.6-0.4,1
		h2.5c0-0.4-0.1-0.8-0.3-1S673.5,59.9,673.1,59.9z"/>
	<path d="M681.2,58.6c0.8,0,1.4,0.3,1.8,0.9s0.7,1.4,0.7,2.5c0,1.1-0.2,1.9-0.7,2.5c-0.5,0.6-1.1,0.9-1.8,0.9
		c-0.8,0-1.4-0.3-1.8-0.8h-0.1l-0.3,0.7h-1.4v-9.1h1.8v2.1c0,0.3,0,0.7-0.1,1.3h0.1C679.7,59,680.3,58.6,681.2,58.6z M680.6,60.1
		c-0.4,0-0.8,0.1-1,0.4s-0.3,0.7-0.3,1.3V62c0,0.7,0.1,1.2,0.3,1.5s0.5,0.5,1,0.5c0.4,0,0.7-0.2,0.9-0.5s0.3-0.8,0.3-1.5
		s-0.1-1.1-0.3-1.5S681,60.1,680.6,60.1z"/>
	<path d="M688.8,58.6c0.2,0,0.4,0,0.6,0.1l-0.1,1.7c-0.1,0-0.3-0.1-0.5-0.1c-0.6,0-1,0.1-1.3,0.4s-0.5,0.7-0.5,1.2v3.3h-1.8v-6.6
		h1.4l0.3,1.1h0.1c0.2-0.4,0.5-0.7,0.8-0.9S688.4,58.6,688.8,58.6z"/>
	<path d="M695.2,65.3l-0.2-0.8h-0.1c-0.2,0.3-0.5,0.5-0.8,0.7s-0.8,0.2-1.2,0.2c-0.8,0-1.3-0.2-1.7-0.6s-0.6-1-0.6-1.8v-4.3h1.8v3.8
		c0,0.5,0.1,0.8,0.3,1.1s0.4,0.4,0.8,0.4c0.5,0,0.9-0.2,1.1-0.5s0.3-0.9,0.3-1.7v-3.1h1.8v6.6H695.2z"/>
	<path d="M702.6,65.3l-0.3-0.9h0c-0.3,0.4-0.6,0.6-0.9,0.8s-0.7,0.2-1.2,0.2c-0.6,0-1.1-0.2-1.5-0.5S698,64,698,63.3
		c0-0.7,0.2-1.2,0.7-1.5s1.2-0.5,2.2-0.5l1.1,0v-0.3c0-0.7-0.3-1-1-1c-0.5,0-1.1,0.2-1.8,0.5l-0.6-1.2c0.8-0.4,1.6-0.6,2.5-0.6
		c0.9,0,1.6,0.2,2,0.6s0.7,1,0.7,1.7v4.4H702.6z M702.1,62.3l-0.7,0c-0.5,0-0.9,0.1-1.2,0.3s-0.4,0.4-0.4,0.8c0,0.5,0.3,0.8,0.9,0.8
		c0.4,0,0.7-0.1,1-0.4s0.4-0.6,0.4-0.9V62.3z"/>
	<path d="M709.4,58.6c0.2,0,0.4,0,0.6,0.1l-0.1,1.7c-0.1,0-0.3-0.1-0.5-0.1c-0.6,0-1,0.1-1.3,0.4s-0.5,0.7-0.5,1.2v3.3h-1.8v-6.6
		h1.4l0.3,1.1h0.1c0.2-0.4,0.5-0.7,0.8-0.9S708.9,58.6,709.4,58.6z"/>
	<path d="M710.2,58.8h2l1.2,3.7c0.1,0.3,0.2,0.7,0.2,1.1h0c0-0.4,0.1-0.8,0.3-1.1l1.2-3.7h1.9l-2.8,7.4c-0.3,0.7-0.6,1.2-1.1,1.5
		s-1,0.5-1.6,0.5c-0.3,0-0.6,0-0.9-0.1v-1.4c0.2,0.1,0.4,0.1,0.7,0.1c0.3,0,0.6-0.1,0.8-0.3s0.4-0.5,0.6-0.9l0.1-0.3L710.2,58.8z"/>
	<path d="M725.1,65.3h-1.8v-5l0-0.8l0-0.9c-0.3,0.3-0.5,0.5-0.6,0.6l-1,0.8l-0.9-1.1l2.8-2.2h1.5V65.3z"/>
	<path d="M733.7,63.5h-1v1.8h-1.8v-1.8h-3.7v-1.3l3.8-5.5h1.7v5.4h1V63.5z M730.9,62.1v-1.5c0-0.2,0-0.6,0-1.1s0-0.7,0-0.8h0
		c-0.1,0.3-0.3,0.6-0.5,0.9l-1.6,2.4H730.9z"/>
</g>
</svg>