<!-- Generator: Adobe Illustrator 19.1.0, SVG Export Plug-In  -->
<svg version="1.1"
	 xmlns="http://www.w3.org/2000/svg" xmlns:xlink="http://www.w3.org/1999/xlink" xmlns:a="http://ns.adobe.com/AdobeSVGViewerExtensions/3.0/"
	 x="0px" y="0px" width="102px" height="126.4px" viewBox="0 0 102 126.4"
	 style="overflow:scroll;enable-background:new 0 0 102 126.4;" xml:space="preserve">
<style type="text/css">
	.st0{fill:#FFFFFF;stroke:#ED6A4A;stroke-width:1.2481;stroke-miterlimit:10;}
	.st1{fill:#086A87;}
	.st2{fill:#ED6A4A;}
	.st3{fill:#FF6633;stroke:#FF6633;stroke-width:1.2481;stroke-linecap:round;stroke-linejoin:round;stroke-miterlimit:10;}
	.st4{fill:#33CCCC;stroke:#33CCCC;stroke-width:1.2481;stroke-miterlimit:10;}
	.st5{fill:none;stroke:#E3E3E3;stroke-width:1.2481;stroke-linecap:round;stroke-linejoin:round;stroke-miterlimit:10;}
	.st6{fill:none;stroke:#FFFFFF;stroke-width:1.2481;stroke-linecap:round;stroke-linejoin:round;stroke-miterlimit:10;}
	.st7{fill:none;stroke:#FFFFFF;stroke-width:3.2153;stroke-linecap:round;stroke-linejoin:round;stroke-miterlimit:10;}
</style>
<defs>
</defs>
<g>
	<g>
		<rect x="30.7" y="57.5" class="st0" width="27.9" height="40.4"/>
		<path class="st1" d="M27.8,17.9H64v12.4l6.4,6.1V23.5h0C70.3,10.5,59.3,0,45.7,0C32.1,0,21,10.5,21,23.5h0v14.4l6.8-6.7V17.9z"/>
		<path class="st0" d="M70.4,36.4L64,30.3V17.9H27.8v13.2L21,37.9v12.6h0c0,0,0,0.1,0,0.1c0,13,11.1,23.6,24.7,23.6
			c13.6,0,24.7-10.6,24.7-23.6c0,0,0-0.1,0-0.1h0V36.4z"/>
		<polygon class="st2" points="46.8,33.8 46.8,51.3 37.2,51.3 		"/>
		<circle class="st2" cx="58.8" cy="38.7" r="2.8"/>
		<path class="st0" d="M40.5,56.3c0,0,15.8,2.8,16.9-11.6"/>
		<circle class="st2" cx="32.1" cy="39.4" r="2.8"/>
		<g>
			<path class="st3" d="M0.6,113.3h27v-31C11.9,86.1,1,96,0.6,113.3z"/>
			<path class="st4" d="M44,80.5c-5.8,0-11.3,0.6-16.3,1.8v31h34V82.6C56.2,81.2,50.2,80.5,44,80.5z"/>
			<path class="st3" d="M61.7,82.6v30.7h27C88.4,96.4,77.2,86.6,61.7,82.6z"/>
		</g>
		<line class="st5" x1="75.6" y1="113.3" x2="75.6" y2="104.1"/>
		<line class="st5" x1="14.1" y1="104.4" x2="14.1" y2="113.6"/>
		<polyline class="st6" points="36.5,81.1 46.3,90.9 46.3,112.7 		"/>
		<line class="st6" x1="46.3" y1="90.9" x2="53.6" y2="81.1"/>
	</g>
	<circle class="st1" cx="79" cy="103.5" r="23"/>
	<polyline class="st7" points="67.9,107.9 76,116.1 94.6,96.7 	"/>
</g>
</svg>