<!-- Generator: Adobe Illustrator 19.1.0, SVG Export Plug-In  -->
<svg version="1.1"
	 xmlns="http://www.w3.org/2000/svg" xmlns:xlink="http://www.w3.org/1999/xlink" xmlns:a="http://ns.adobe.com/AdobeSVGViewerExtensions/3.0/"
	 x="0px" y="0px" width="334.6px" height="530.7px" viewBox="0 0 334.6 530.7"
	 style="overflow:scroll;enable-background:new 0 0 334.6 530.7;" xml:space="preserve">
<style type="text/css">
	.st0{fill:none;stroke:#ED6A4A;stroke-width:5.8709;stroke-miterlimit:10;}
	.st1{fill:#33CCCC;stroke:#33CCCC;stroke-width:1.994;stroke-miterlimit:10;}
	.st2{fill:#FF6633;}
	.st3{fill:#9D9FA0;}
	.st4{fill:#E3E3E3;}
	.st5{fill:#FFFFFF;}
	.st6{fill:#086A87;}
</style>
<defs>
</defs>
<path class="st0" d="M164.4,2.9c-35.3,0-64,28.6-64,64v91.3h128V66.9C228.4,31.6,199.7,2.9,164.4,2.9z"/>
<rect x="1" y="123" class="st1" width="332.7" height="144.1"/>
<rect x="0" y="267.6" class="st2" width="334.6" height="102.9"/>
<rect x="0" y="368.6" class="st3" width="334.6" height="75.9"/>
<rect x="0" y="438" class="st4" width="334.6" height="56.5"/>
<rect x="0" y="491.6" class="st3" width="334.6" height="39.1"/>
<g>
	<path class="st5" d="M61.9,204.1c0,2.7-0.8,4.8-2.3,6.2s-3.8,2.2-6.7,2.2h-4.6V196h5.2c2.7,0,4.8,0.7,6.2,2.1
		S61.9,201.5,61.9,204.1z M58.2,204.2c0-3.5-1.6-5.3-4.7-5.3h-1.9v10.7h1.5C56.6,209.6,58.2,207.8,58.2,204.2z"/>
	<path class="st5" d="M64.8,196.7c0-1.1,0.6-1.7,1.9-1.7c1.2,0,1.9,0.6,1.9,1.7c0,0.5-0.2,0.9-0.5,1.2c-0.3,0.3-0.8,0.4-1.4,0.4
		C65.5,198.3,64.8,197.8,64.8,196.7z M68.4,212.5H65v-12.6h3.4V212.5z"/>
	<path class="st5" d="M79,199.7c0.5,0,0.8,0,1.2,0.1l-0.3,3.2c-0.3-0.1-0.6-0.1-1-0.1c-1.1,0-1.9,0.3-2.6,0.8
		c-0.6,0.6-0.9,1.3-0.9,2.4v6.4H72v-12.6h2.6l0.5,2.1h0.2c0.4-0.7,0.9-1.3,1.6-1.7C77.5,199.9,78.2,199.7,79,199.7z"/>
	<path class="st5" d="M87.9,212.7c-2,0-3.6-0.6-4.7-1.7c-1.1-1.1-1.7-2.7-1.7-4.7c0-2.1,0.5-3.7,1.6-4.9c1.1-1.1,2.5-1.7,4.4-1.7
		c1.8,0,3.2,0.5,4.1,1.5s1.5,2.4,1.5,4.2v1.7h-8.1c0,1,0.3,1.7,0.9,2.3c0.5,0.5,1.3,0.8,2.3,0.8c0.8,0,1.5-0.1,2.1-0.2
		s1.4-0.4,2.1-0.8v2.7c-0.6,0.3-1.2,0.5-1.9,0.7C89.7,212.6,88.9,212.7,87.9,212.7z M87.4,202.1c-0.7,0-1.3,0.2-1.7,0.7
		c-0.4,0.5-0.6,1.1-0.7,2h4.8c0-0.8-0.2-1.5-0.7-2C88.7,202.3,88.1,202.1,87.4,202.1z"/>
	<path class="st5" d="M100.9,212.7c-3.9,0-5.9-2.1-5.9-6.4c0-2.1,0.5-3.8,1.6-4.9c1.1-1.1,2.6-1.7,4.6-1.7c1.5,0,2.8,0.3,3.9,0.9
		l-1,2.7c-0.5-0.2-1-0.4-1.5-0.5c-0.5-0.1-0.9-0.2-1.4-0.2c-1.8,0-2.7,1.3-2.7,3.8c0,2.5,0.9,3.7,2.7,3.7c0.7,0,1.3-0.1,1.8-0.3
		s1.1-0.5,1.7-0.8v2.9c-0.6,0.4-1.1,0.6-1.7,0.7C102.5,212.6,101.8,212.7,100.9,212.7z"/>
	<path class="st5" d="M112.9,209.9c0.6,0,1.3-0.1,2.2-0.4v2.5c-0.9,0.4-1.9,0.6-3.1,0.6c-1.4,0-2.4-0.3-3-1
		c-0.6-0.7-0.9-1.7-0.9-3.1v-6.1h-1.6V201l1.9-1.1l1-2.7h2.2v2.7h3.5v2.6h-3.5v6.1c0,0.5,0.1,0.8,0.4,1.1
		C112.1,209.8,112.5,209.9,112.9,209.9z"/>
	<path class="st5" d="M134.8,212.5h-3.4v-7.3c0-0.9-0.2-1.6-0.5-2s-0.8-0.7-1.4-0.7c-0.9,0-1.5,0.3-1.9,1c-0.4,0.6-0.6,1.7-0.6,3.2
		v5.9h-3.4v-12.6h2.6l0.5,1.6h0.2c0.3-0.6,0.8-1,1.5-1.4c0.6-0.3,1.4-0.5,2.2-0.5c1.9,0,3.2,0.6,3.8,1.8h0.3c0.3-0.6,0.8-1,1.5-1.4
		c0.7-0.3,1.4-0.5,2.2-0.5c1.4,0,2.5,0.4,3.2,1.1c0.7,0.7,1.1,1.9,1.1,3.5v8.2h-3.4v-7.3c0-0.9-0.2-1.6-0.5-2s-0.8-0.7-1.4-0.7
		c-0.8,0-1.5,0.3-1.9,0.9c-0.4,0.6-0.6,1.5-0.6,2.9V212.5z"/>
	<path class="st5" d="M151.9,212.7c-2,0-3.6-0.6-4.7-1.7c-1.1-1.1-1.7-2.7-1.7-4.7c0-2.1,0.5-3.7,1.6-4.9c1.1-1.1,2.5-1.7,4.4-1.7
		c1.8,0,3.2,0.5,4.1,1.5s1.5,2.4,1.5,4.2v1.7h-8.1c0,1,0.3,1.7,0.9,2.3c0.5,0.5,1.3,0.8,2.3,0.8c0.8,0,1.5-0.1,2.1-0.2
		s1.4-0.4,2.1-0.8v2.7c-0.6,0.3-1.2,0.5-1.9,0.7C153.7,212.6,152.8,212.7,151.9,212.7z M151.4,202.1c-0.7,0-1.3,0.2-1.7,0.7
		c-0.4,0.5-0.6,1.1-0.7,2h4.8c0-0.8-0.2-1.5-0.7-2C152.7,202.3,152.1,202.1,151.4,202.1z"/>
	<path class="st5" d="M166.8,199.7c0.5,0,0.8,0,1.2,0.1l-0.3,3.2c-0.3-0.1-0.6-0.1-1-0.1c-1.1,0-1.9,0.3-2.6,0.8
		c-0.6,0.6-0.9,1.3-0.9,2.4v6.4h-3.4v-12.6h2.6l0.5,2.1h0.2c0.4-0.7,0.9-1.3,1.6-1.7C165.3,199.9,166,199.7,166.8,199.7z"/>
	<path class="st5" d="M175.1,212.7c-3.9,0-5.9-2.1-5.9-6.4c0-2.1,0.5-3.8,1.6-4.9c1.1-1.1,2.6-1.7,4.6-1.7c1.5,0,2.8,0.3,3.9,0.9
		l-1,2.7c-0.5-0.2-1-0.4-1.5-0.5c-0.5-0.1-0.9-0.2-1.4-0.2c-1.8,0-2.7,1.3-2.7,3.8c0,2.5,0.9,3.7,2.7,3.7c0.7,0,1.3-0.1,1.8-0.3
		s1.1-0.5,1.7-0.8v2.9c-0.6,0.4-1.1,0.6-1.7,0.7C176.7,212.6,175.9,212.7,175.1,212.7z"/>
	<path class="st5" d="M193.4,212.5H190v-7.3c0-1.8-0.7-2.7-2-2.7c-1,0-1.7,0.3-2.1,1s-0.6,1.7-0.6,3.2v5.9h-3.4V195h3.4v3.6
		c0,0.3,0,0.9-0.1,2l-0.1,1h0.2c0.8-1.2,2-1.8,3.6-1.8c1.5,0,2.6,0.4,3.4,1.2c0.8,0.8,1.1,1.9,1.1,3.4V212.5z"/>
	<path class="st5" d="M204.9,212.5l-0.7-1.7h-0.1c-0.6,0.7-1.2,1.2-1.8,1.5c-0.6,0.3-1.4,0.4-2.4,0.4c-1.2,0-2.2-0.3-2.8-1
		c-0.7-0.7-1-1.7-1-2.9c0-1.3,0.5-2.3,1.4-2.9s2.3-1,4.2-1l2.2-0.1v-0.6c0-1.3-0.7-1.9-2-1.9c-1,0-2.2,0.3-3.5,0.9l-1.1-2.3
		c1.4-0.8,3-1.1,4.8-1.1c1.7,0,3,0.4,3.9,1.1c0.9,0.7,1.3,1.8,1.3,3.3v8.4H204.9z M203.9,206.6l-1.3,0c-1,0-1.7,0.2-2.2,0.5
		c-0.5,0.3-0.7,0.8-0.7,1.5c0,1,0.6,1.4,1.7,1.4c0.8,0,1.4-0.2,1.9-0.7c0.5-0.5,0.7-1.1,0.7-1.8V206.6z"/>
	<path class="st5" d="M222.4,212.5H219v-7.3c0-0.9-0.2-1.6-0.5-2c-0.3-0.5-0.8-0.7-1.5-0.7c-1,0-1.7,0.3-2.1,1
		c-0.4,0.6-0.6,1.7-0.6,3.2v5.9h-3.4v-12.6h2.6l0.5,1.6h0.2c0.4-0.6,0.9-1.1,1.6-1.4c0.7-0.3,1.4-0.5,2.3-0.5c1.5,0,2.6,0.4,3.3,1.2
		c0.8,0.8,1.1,1.9,1.1,3.4V212.5z"/>
	<path class="st5" d="M231.2,209.9c0.6,0,1.3-0.1,2.2-0.4v2.5c-0.9,0.4-1.9,0.6-3.1,0.6c-1.4,0-2.4-0.3-3-1
		c-0.6-0.7-0.9-1.7-0.9-3.1v-6.1h-1.6V201l1.9-1.1l1-2.7h2.2v2.7h3.5v2.6h-3.5v6.1c0,0.5,0.1,0.8,0.4,1.1
		C230.4,209.8,230.8,209.9,231.2,209.9z"/>
	<path class="st5" d="M251.9,199.7c0,1-0.3,1.9-0.9,2.6c-0.6,0.7-1.5,1.2-2.6,1.5v0.1c1.3,0.2,2.3,0.6,3,1.2c0.7,0.6,1,1.5,1,2.6
		c0,1.6-0.6,2.8-1.7,3.7c-1.1,0.9-2.8,1.3-4.9,1.3c-1.8,0-3.4-0.3-4.7-0.9v-3c0.6,0.3,1.3,0.6,2.1,0.8s1.5,0.3,2.3,0.3
		c1.1,0,2-0.2,2.5-0.6c0.5-0.4,0.8-1,0.8-1.9c0-0.8-0.3-1.3-0.9-1.6c-0.6-0.3-1.6-0.5-3-0.5h-1.2v-2.7h1.3c1.3,0,2.2-0.2,2.8-0.5
		c0.6-0.3,0.9-0.9,0.9-1.7c0-1.2-0.8-1.9-2.3-1.9c-0.5,0-1.1,0.1-1.6,0.3c-0.6,0.2-1.2,0.5-1.9,0.9l-1.6-2.4
		c1.5-1.1,3.3-1.6,5.4-1.6c1.7,0,3,0.3,4,1C251.4,197.5,251.9,198.5,251.9,199.7z"/>
	<path class="st5" d="M265.6,203c0,3.2-0.7,5.6-2,7.2c-1.4,1.6-3.4,2.4-6.2,2.4c-1,0-1.7-0.1-2.2-0.2v-2.8c0.6,0.2,1.3,0.2,2,0.2
		c1.2,0,2.1-0.2,2.9-0.5c0.7-0.3,1.3-0.9,1.7-1.6c0.4-0.7,0.6-1.7,0.7-3h-0.1c-0.4,0.7-0.9,1.2-1.5,1.5c-0.6,0.3-1.3,0.4-2.1,0.4
		c-1.4,0-2.6-0.5-3.4-1.4c-0.8-0.9-1.2-2.2-1.2-3.8c0-1.8,0.5-3.1,1.5-4.2c1-1,2.4-1.5,4.1-1.5c1.2,0,2.3,0.3,3.2,0.9
		c0.9,0.6,1.6,1.4,2.1,2.5C265.3,200.3,265.6,201.5,265.6,203z M259.6,198.6c-0.7,0-1.3,0.2-1.7,0.7s-0.6,1.2-0.6,2.1
		c0,0.8,0.2,1.4,0.6,1.9c0.4,0.5,0.9,0.7,1.7,0.7c0.7,0,1.3-0.2,1.8-0.7c0.5-0.5,0.8-1,0.8-1.6c0-0.9-0.2-1.6-0.7-2.3
		C261,198.9,260.4,198.6,259.6,198.6z"/>
	<path class="st5" d="M274.9,200.9c0,1.7-0.3,3-1,3.9c-0.7,0.9-1.6,1.3-2.9,1.3c-1.2,0-2.2-0.4-2.9-1.3c-0.7-0.9-1-2.2-1-3.8
		c0-3.4,1.3-5.1,3.9-5.1c1.3,0,2.2,0.4,2.9,1.3C274.6,198,274.9,199.3,274.9,200.9z M269.9,201c0,1,0.1,1.7,0.3,2.1s0.4,0.7,0.8,0.7
		c0.7,0,1.1-0.9,1.1-2.8c0-1.9-0.4-2.8-1.1-2.8c-0.4,0-0.6,0.2-0.8,0.7C270,199.3,269.9,200,269.9,201z M282.6,196l-9.1,16.4h-2.7
		l9.1-16.4H282.6z M286.4,207.5c0,1.7-0.3,3-1,3.9c-0.7,0.9-1.6,1.3-2.9,1.3c-1.2,0-2.2-0.4-2.9-1.3c-0.7-0.9-1-2.2-1-3.8
		c0-3.4,1.3-5.1,3.9-5.1c1.3,0,2.2,0.4,2.9,1.3C286.1,204.6,286.4,205.8,286.4,207.5z M281.4,207.5c0,1,0.1,1.7,0.3,2.1
		s0.4,0.7,0.8,0.7c0.7,0,1.1-0.9,1.1-2.8c0-1.9-0.4-2.8-1.1-2.8c-0.4,0-0.6,0.2-0.8,0.7C281.5,205.9,281.4,206.6,281.4,207.5z"/>
</g>
<g>
	<path class="st6" d="M130.8,471.8l-1.2-3.9h-6l-1.2,3.9h-3.8l5.8-16.5h4.3l5.8,16.5H130.8z M128.8,465c-1.1-3.5-1.7-5.5-1.9-6
		c-0.1-0.5-0.2-0.8-0.3-1.1c-0.2,1-1,3.3-2.1,7.1H128.8z"/>
	<path class="st6" d="M143.2,472c-1.5,0-2.6-0.5-3.5-1.6h-0.2c0.1,1,0.2,1.7,0.2,1.8v5.1h-3.4v-18.1h2.8l0.5,1.6h0.2
		c0.8-1.2,2-1.9,3.6-1.9c1.5,0,2.6,0.6,3.5,1.7c0.8,1.1,1.3,2.7,1.3,4.8c0,1.3-0.2,2.5-0.6,3.5s-1,1.7-1.7,2.3
		C145.1,471.8,144.2,472,143.2,472z M142.2,461.8c-0.8,0-1.5,0.3-1.9,0.8c-0.4,0.5-0.6,1.4-0.6,2.6v0.4c0,1.3,0.2,2.3,0.6,2.9
		c0.4,0.6,1,0.9,1.9,0.9c1.5,0,2.3-1.3,2.3-3.8c0-1.2-0.2-2.2-0.6-2.8C143.6,462.1,143,461.8,142.2,461.8z"/>
	<path class="st6" d="M157.8,472c-1.5,0-2.6-0.5-3.5-1.6h-0.2c0.1,1,0.2,1.7,0.2,1.8v5.1h-3.4v-18.1h2.8l0.5,1.6h0.2
		c0.8-1.2,2-1.9,3.6-1.9c1.5,0,2.6,0.6,3.5,1.7c0.8,1.1,1.3,2.7,1.3,4.8c0,1.3-0.2,2.5-0.6,3.5s-1,1.7-1.7,2.3
		C159.6,471.8,158.8,472,157.8,472z M156.8,461.8c-0.8,0-1.5,0.3-1.9,0.8c-0.4,0.5-0.6,1.4-0.6,2.6v0.4c0,1.3,0.2,2.3,0.6,2.9
		c0.4,0.6,1,0.9,1.9,0.9c1.5,0,2.3-1.3,2.3-3.8c0-1.2-0.2-2.2-0.6-2.8C158.2,462.1,157.6,461.8,156.8,461.8z"/>
	<path class="st6" d="M179.1,471.8h-3.5v-9.5l0-1.6l0.1-1.7c-0.6,0.6-1,1-1.2,1.1l-1.9,1.5l-1.7-2.1l5.3-4.2h2.9V471.8z"/>
	<path class="st6" d="M189.7,461.3c1.6,0,2.9,0.4,3.8,1.3c0.9,0.9,1.4,2.1,1.4,3.7c0,1.8-0.6,3.2-1.7,4.2c-1.1,1-2.7,1.5-4.9,1.5
		c-1.8,0-3.3-0.3-4.4-0.9v-3c0.6,0.3,1.3,0.6,2.1,0.8s1.5,0.3,2.2,0.3c2.1,0,3.2-0.9,3.2-2.6c0-1.7-1.1-2.5-3.3-2.5
		c-0.4,0-0.8,0-1.3,0.1c-0.5,0.1-0.9,0.2-1.2,0.3l-1.4-0.7l0.6-8.4h8.9v2.9h-5.9l-0.3,3.2l0.4-0.1
		C188.4,461.4,189,461.3,189.7,461.3z"/>
	<path class="st6" d="M204.5,460.3c0,1.7-0.3,3-1,3.9c-0.7,0.9-1.6,1.3-2.9,1.3c-1.2,0-2.2-0.4-2.9-1.3c-0.7-0.9-1-2.2-1-3.8
		c0-3.4,1.3-5.1,3.9-5.1c1.3,0,2.2,0.4,2.9,1.3C204.1,457.4,204.5,458.6,204.5,460.3z M199.5,460.3c0,1,0.1,1.7,0.3,2.1
		s0.4,0.7,0.8,0.7c0.7,0,1.1-0.9,1.1-2.8c0-1.9-0.4-2.8-1.1-2.8c-0.4,0-0.6,0.2-0.8,0.7C199.6,458.6,199.5,459.4,199.5,460.3z
		 M212.2,455.4l-9.1,16.4h-2.7l9.1-16.4H212.2z M216,466.8c0,1.7-0.3,3-1,3.9c-0.7,0.9-1.6,1.3-2.9,1.3c-1.2,0-2.2-0.4-2.9-1.3
		c-0.7-0.9-1-2.2-1-3.8c0-3.4,1.3-5.1,3.9-5.1c1.3,0,2.2,0.4,2.9,1.3C215.6,463.9,216,465.2,216,466.8z M211,466.9
		c0,1,0.1,1.7,0.3,2.1s0.4,0.7,0.8,0.7c0.7,0,1.1-0.9,1.1-2.8c0-1.9-0.4-2.8-1.1-2.8c-0.4,0-0.6,0.2-0.8,0.7
		C211.1,465.2,211,465.9,211,466.9z"/>
</g>
<g>
	<g>
		<path class="st5" d="M91,415.1h-3.4v-16.4H97v2.9h-6v4.2h5.6v2.8H91V415.1z"/>
		<path class="st5" d="M107.9,415.1l-0.7-1.7h-0.1c-0.6,0.7-1.2,1.2-1.8,1.5c-0.6,0.3-1.4,0.4-2.4,0.4c-1.2,0-2.2-0.3-2.8-1
			s-1-1.7-1-2.9c0-1.3,0.5-2.3,1.4-2.9s2.3-1,4.2-1l2.2-0.1v-0.6c0-1.3-0.7-1.9-2-1.9c-1,0-2.2,0.3-3.5,0.9l-1.1-2.3
			c1.4-0.8,3-1.1,4.8-1.1c1.7,0,3,0.4,3.9,1.1c0.9,0.7,1.3,1.8,1.3,3.3v8.4H107.9z M106.9,409.3l-1.3,0c-1,0-1.7,0.2-2.2,0.5
			c-0.5,0.3-0.7,0.8-0.7,1.5c0,1,0.6,1.4,1.7,1.4c0.8,0,1.4-0.2,1.9-0.7s0.7-1.1,0.7-1.8V409.3z"/>
		<path class="st5" d="M118.9,415.4c-3.9,0-5.9-2.1-5.9-6.4c0-2.1,0.5-3.8,1.6-4.9c1.1-1.1,2.6-1.7,4.6-1.7c1.5,0,2.8,0.3,3.9,0.9
			l-1,2.7c-0.5-0.2-1-0.4-1.5-0.5c-0.5-0.1-0.9-0.2-1.4-0.2c-1.8,0-2.7,1.3-2.7,3.8c0,2.5,0.9,3.7,2.7,3.7c0.7,0,1.3-0.1,1.8-0.3
			s1.1-0.5,1.7-0.8v2.9c-0.6,0.4-1.1,0.6-1.7,0.7S119.8,415.4,118.9,415.4z"/>
		<path class="st5" d="M131.4,415.4c-2,0-3.6-0.6-4.7-1.7c-1.1-1.1-1.7-2.7-1.7-4.7c0-2.1,0.5-3.7,1.6-4.9s2.5-1.7,4.4-1.7
			c1.8,0,3.2,0.5,4.1,1.5s1.5,2.4,1.5,4.2v1.7h-8.1c0,1,0.3,1.7,0.9,2.3s1.3,0.8,2.3,0.8c0.8,0,1.5-0.1,2.1-0.2s1.4-0.4,2.1-0.8v2.7
			c-0.6,0.3-1.2,0.5-1.9,0.7C133.2,415.3,132.3,415.4,131.4,415.4z M130.9,404.8c-0.7,0-1.3,0.2-1.7,0.7c-0.4,0.5-0.6,1.1-0.7,2h4.8
			c0-0.8-0.2-1.5-0.7-2C132.2,405,131.6,404.8,130.9,404.8z"/>
		<path class="st5" d="M146.2,402.4c1.5,0,2.6,0.6,3.5,1.7c0.8,1.2,1.3,2.7,1.3,4.8c0,2.1-0.4,3.7-1.3,4.8s-2,1.7-3.5,1.7
			c-1.5,0-2.6-0.5-3.5-1.6h-0.2l-0.6,1.4h-2.6v-17.5h3.4v4.1c0,0.5,0,1.3-0.1,2.5h0.1C143.5,403,144.7,402.4,146.2,402.4z
			 M145.1,405.1c-0.8,0-1.5,0.3-1.9,0.8c-0.4,0.5-0.6,1.4-0.6,2.6v0.4c0,1.3,0.2,2.3,0.6,2.9s1,0.9,1.9,0.9c0.7,0,1.3-0.3,1.7-1
			s0.6-1.6,0.6-2.8c0-1.2-0.2-2.2-0.6-2.8C146.4,405.4,145.9,405.1,145.1,405.1z"/>
		<path class="st5" d="M165.2,408.8c0,2-0.5,3.6-1.6,4.8s-2.6,1.7-4.5,1.7c-1.2,0-2.3-0.3-3.2-0.8c-0.9-0.5-1.6-1.3-2.1-2.3
			s-0.7-2.1-0.7-3.5c0-2.1,0.5-3.6,1.6-4.8c1.1-1.1,2.6-1.7,4.5-1.7c1.2,0,2.3,0.3,3.2,0.8c0.9,0.5,1.6,1.3,2.1,2.3
			S165.2,407.5,165.2,408.8z M156.5,408.8c0,1.2,0.2,2.2,0.6,2.8s1.1,1,2,1c0.9,0,1.6-0.3,2-0.9s0.6-1.6,0.6-2.8
			c0-1.2-0.2-2.2-0.6-2.8s-1.1-0.9-2-0.9c-0.9,0-1.6,0.3-2,0.9C156.7,406.7,156.5,407.6,156.5,408.8z"/>
		<path class="st5" d="M179.5,408.8c0,2-0.5,3.6-1.6,4.8s-2.6,1.7-4.5,1.7c-1.2,0-2.3-0.3-3.2-0.8c-0.9-0.5-1.6-1.3-2.1-2.3
			s-0.7-2.1-0.7-3.5c0-2.1,0.5-3.6,1.6-4.8c1.1-1.1,2.6-1.7,4.5-1.7c1.2,0,2.3,0.3,3.2,0.8c0.9,0.5,1.6,1.3,2.1,2.3
			S179.5,407.5,179.5,408.8z M170.8,408.8c0,1.2,0.2,2.2,0.6,2.8s1.1,1,2,1c0.9,0,1.6-0.3,2-0.9s0.6-1.6,0.6-2.8
			c0-1.2-0.2-2.2-0.6-2.8s-1.1-0.9-2-0.9c-0.9,0-1.6,0.3-2,0.9C171,406.7,170.8,407.6,170.8,408.8z"/>
		<path class="st5" d="M185.6,408.3l1.5-1.9l3.5-3.8h3.9l-5,5.4l5.3,7.1h-4l-3.6-5.1l-1.5,1.2v3.9h-3.4v-17.5h3.4v7.8L185.6,408.3
			L185.6,408.3z"/>
		<path class="st5" d="M210.2,415.1h-3.5v-9.5l0-1.6l0.1-1.7c-0.6,0.6-1,1-1.2,1.1l-1.9,1.5l-1.7-2.1l5.3-4.2h2.9V415.1z"/>
		<path class="st5" d="M216.4,415.1l6.2-13.5h-8.1v-2.9h11.8v2.2l-6.2,14.2H216.4z"/>
		<path class="st5" d="M235.5,403.6c0,1.7-0.3,3-1,3.9c-0.7,0.9-1.6,1.3-2.9,1.3c-1.2,0-2.2-0.4-2.9-1.3c-0.7-0.9-1-2.2-1-3.8
			c0-3.4,1.3-5.1,3.9-5.1c1.3,0,2.2,0.4,2.9,1.3C235.2,400.7,235.5,402,235.5,403.6z M230.6,403.6c0,1,0.1,1.7,0.3,2.1
			s0.4,0.7,0.8,0.7c0.7,0,1.1-0.9,1.1-2.8c0-1.9-0.4-2.8-1.1-2.8c-0.4,0-0.6,0.2-0.8,0.7C230.7,402,230.6,402.7,230.6,403.6z
			 M243.3,398.7l-9.1,16.4h-2.7l9.1-16.4H243.3z M247,410.2c0,1.7-0.3,3-1,3.9c-0.7,0.9-1.6,1.3-2.9,1.3c-1.2,0-2.2-0.4-2.9-1.3
			c-0.7-0.9-1-2.2-1-3.8c0-3.4,1.3-5.1,3.9-5.1c1.3,0,2.2,0.4,2.9,1.3C246.7,407.3,247,408.5,247,410.2z M242.1,410.2
			c0,1,0.1,1.7,0.3,2.1s0.4,0.7,0.8,0.7c0.7,0,1.1-0.9,1.1-2.8c0-1.9-0.4-2.8-1.1-2.8c-0.4,0-0.6,0.2-0.8,0.7
			C242.2,408.5,242.1,409.3,242.1,410.2z"/>
	</g>
</g>
<g>
	<g>
		<path class="st5" d="M92.5,500.7h5.1c2.3,0,4,0.3,5.1,1c1.1,0.7,1.6,1.7,1.6,3.2c0,1-0.2,1.8-0.7,2.4s-1.1,1-1.8,1.1v0.1
			c1,0.2,1.8,0.7,2.3,1.3s0.7,1.5,0.7,2.5c0,1.5-0.5,2.7-1.6,3.5c-1.1,0.8-2.6,1.3-4.4,1.3h-6.1V500.7z M96,507.2h2
			c0.9,0,1.6-0.1,2-0.4c0.4-0.3,0.6-0.8,0.6-1.4c0-0.6-0.2-1.1-0.7-1.4s-1.2-0.4-2.2-0.4H96V507.2z M96,510v4.3h2.3
			c1,0,1.7-0.2,2.1-0.6c0.5-0.4,0.7-0.9,0.7-1.7c0-1.4-1-2-2.9-2H96z"/>
		<path class="st5" d="M111.1,517.2h-3.4v-17.5h3.4V517.2z"/>
		<path class="st5" d="M126.1,510.9c0,2-0.5,3.6-1.6,4.8c-1.1,1.2-2.6,1.7-4.5,1.7c-1.2,0-2.3-0.3-3.2-0.8s-1.6-1.3-2.1-2.3
			s-0.7-2.1-0.7-3.5c0-2.1,0.5-3.6,1.6-4.8c1.1-1.1,2.6-1.7,4.5-1.7c1.2,0,2.3,0.3,3.2,0.8c0.9,0.5,1.6,1.3,2.1,2.3
			S126.1,509.5,126.1,510.9z M117.4,510.9c0,1.2,0.2,2.2,0.6,2.8c0.4,0.6,1.1,1,2,1c0.9,0,1.6-0.3,2-0.9c0.4-0.6,0.6-1.6,0.6-2.8
			c0-1.2-0.2-2.2-0.6-2.8s-1.1-0.9-2-0.9c-0.9,0-1.6,0.3-2,0.9S117.4,509.6,117.4,510.9z"/>
		<path class="st5" d="M139.9,517.2c0,1.8-0.5,3.2-1.6,4.1c-1.1,0.9-2.6,1.4-4.7,1.4c-1.8,0-3.4-0.2-4.7-0.7v-2.7
			c1.5,0.6,3.2,1,4.9,1c1.8,0,2.6-1,2.6-2.9v-0.2l0.1-1.5h-0.1c-0.8,1.2-2,1.9-3.6,1.9c-1.5,0-2.7-0.6-3.5-1.7
			c-0.8-1.2-1.2-2.7-1.2-4.7c0-2.1,0.4-3.7,1.3-4.8c0.9-1.2,2-1.7,3.5-1.7c1.5,0,2.8,0.6,3.6,1.8h0.1l0.3-1.6h2.9V517.2z
			 M134.1,514.7c0.9,0,1.6-0.3,2-0.8c0.4-0.5,0.6-1.4,0.6-2.6v-0.4c0-1.3-0.2-2.3-0.6-2.9s-1.1-0.9-2-0.9c-1.6,0-2.4,1.3-2.4,3.8
			c0,1.3,0.2,2.2,0.6,2.8C132.7,514.4,133.3,514.7,134.1,514.7z"/>
		<path class="st5" d="M158.2,513.4c0,1.3-0.4,2.3-1.3,2.9c-0.9,0.7-2.2,1-4,1c-0.9,0-1.7-0.1-2.3-0.2c-0.6-0.1-1.2-0.3-1.8-0.5
			v-2.8c0.6,0.3,1.4,0.6,2.2,0.8c0.8,0.2,1.5,0.3,2.1,0.3c1.2,0,1.9-0.4,1.9-1.1c0-0.3-0.1-0.5-0.2-0.7c-0.2-0.2-0.4-0.4-0.9-0.6
			c-0.4-0.2-0.9-0.5-1.6-0.7c-1-0.4-1.7-0.8-2.1-1.1c-0.5-0.3-0.8-0.7-1-1.2c-0.2-0.4-0.3-1-0.3-1.6c0-1.1,0.4-2,1.3-2.6
			c0.9-0.6,2.1-0.9,3.7-0.9c1.5,0,3,0.3,4.4,1l-1,2.5c-0.6-0.3-1.2-0.5-1.8-0.7c-0.5-0.2-1.1-0.3-1.7-0.3c-1,0-1.5,0.3-1.5,0.8
			c0,0.3,0.2,0.6,0.5,0.8s1,0.6,2.1,1c1,0.4,1.7,0.8,2.2,1.1c0.5,0.3,0.8,0.7,1,1.2C158.1,512.3,158.2,512.8,158.2,513.4z"/>
		<path class="st5" d="M172.5,517.2h-3.4v-7.3c0-1.8-0.7-2.7-2-2.7c-1,0-1.7,0.3-2.1,1c-0.4,0.7-0.6,1.7-0.6,3.2v5.9h-3.4v-17.5h3.4
			v3.6c0,0.3,0,0.9-0.1,2l-0.1,1h0.2c0.8-1.2,2-1.8,3.6-1.8c1.5,0,2.6,0.4,3.4,1.2c0.8,0.8,1.1,1.9,1.1,3.4V517.2z"/>
		<path class="st5" d="M187.4,510.9c0,2-0.5,3.6-1.6,4.8c-1.1,1.2-2.6,1.7-4.5,1.7c-1.2,0-2.3-0.3-3.2-0.8s-1.6-1.3-2.1-2.3
			s-0.7-2.1-0.7-3.5c0-2.1,0.5-3.6,1.6-4.8c1.1-1.1,2.6-1.7,4.5-1.7c1.2,0,2.3,0.3,3.2,0.8c0.9,0.5,1.6,1.3,2.1,2.3
			S187.4,509.5,187.4,510.9z M178.7,510.9c0,1.2,0.2,2.2,0.6,2.8c0.4,0.6,1.1,1,2,1c0.9,0,1.6-0.3,2-0.9c0.4-0.6,0.6-1.6,0.6-2.8
			c0-1.2-0.2-2.2-0.6-2.8s-1.1-0.9-2-0.9c-0.9,0-1.6,0.3-2,0.9S178.7,509.6,178.7,510.9z"/>
		<path class="st5" d="M197.2,517.4c-1.5,0-2.6-0.5-3.5-1.6h-0.2c0.1,1,0.2,1.7,0.2,1.8v5.1h-3.4v-18.1h2.8l0.5,1.6h0.2
			c0.8-1.2,2-1.9,3.6-1.9c1.5,0,2.6,0.6,3.5,1.7c0.8,1.1,1.3,2.7,1.3,4.8c0,1.3-0.2,2.5-0.6,3.5s-1,1.7-1.7,2.3
			C199,517.1,198.1,517.4,197.2,517.4z M196.1,507.1c-0.8,0-1.5,0.3-1.9,0.8c-0.4,0.5-0.6,1.4-0.6,2.6v0.4c0,1.3,0.2,2.3,0.6,2.9
			c0.4,0.6,1,0.9,1.9,0.9c1.5,0,2.3-1.3,2.3-3.8c0-1.2-0.2-2.2-0.6-2.8C197.5,507.4,196.9,507.1,196.1,507.1z"/>
		<path class="st5" d="M209.8,510.2c0-3.2,0.7-5.7,2.1-7.3c1.4-1.6,3.4-2.4,6.2-2.4c0.9,0,1.7,0.1,2.2,0.2v2.8
			c-0.7-0.1-1.3-0.2-2-0.2c-1.2,0-2.2,0.2-2.9,0.5s-1.3,0.9-1.7,1.6c-0.4,0.7-0.6,1.7-0.7,3h0.1c0.7-1.3,1.9-1.9,3.6-1.9
			c1.5,0,2.6,0.5,3.4,1.4c0.8,0.9,1.2,2.2,1.2,3.8c0,1.8-0.5,3.1-1.5,4.2c-1,1-2.4,1.5-4.1,1.5c-1.2,0-2.3-0.3-3.2-0.8
			c-0.9-0.6-1.6-1.4-2.1-2.5C210,513,209.8,511.7,209.8,510.2z M215.7,514.6c0.7,0,1.3-0.2,1.7-0.7c0.4-0.5,0.6-1.2,0.6-2.1
			c0-0.8-0.2-1.4-0.6-1.9s-0.9-0.7-1.7-0.7c-0.7,0-1.3,0.2-1.8,0.7c-0.5,0.5-0.7,1-0.7,1.6c0,0.9,0.2,1.6,0.7,2.3
			C214.4,514.3,215,514.6,215.7,514.6z"/>
		<path class="st5" d="M230.7,505.6c0,1.7-0.3,3-1,3.9c-0.7,0.9-1.6,1.3-2.9,1.3c-1.2,0-2.2-0.4-2.9-1.3s-1-2.2-1-3.8
			c0-3.4,1.3-5.1,3.9-5.1c1.3,0,2.2,0.4,2.9,1.3C230.3,502.7,230.7,504,230.7,505.6z M225.7,505.7c0,1,0.1,1.7,0.3,2.1
			c0.2,0.5,0.4,0.7,0.8,0.7c0.7,0,1.1-0.9,1.1-2.8c0-1.9-0.4-2.8-1.1-2.8c-0.4,0-0.6,0.2-0.8,0.7C225.8,504,225.7,504.7,225.7,505.7
			z M238.4,500.7l-9.1,16.4h-2.7l9.1-16.4H238.4z M242.2,512.2c0,1.7-0.3,3-1,3.9c-0.7,0.9-1.6,1.3-2.9,1.3c-1.2,0-2.2-0.4-2.9-1.3
			c-0.7-0.9-1-2.2-1-3.8c0-3.4,1.3-5.1,3.9-5.1c1.3,0,2.2,0.4,2.9,1.3C241.8,509.3,242.2,510.5,242.2,512.2z M237.2,512.2
			c0,1,0.1,1.7,0.3,2.1c0.2,0.5,0.4,0.7,0.8,0.7c0.7,0,1.1-0.9,1.1-2.8c0-1.9-0.4-2.8-1.1-2.8c-0.4,0-0.6,0.2-0.8,0.7
			C237.3,510.6,237.2,511.3,237.2,512.2z"/>
	</g>
</g>
<g>
	<g>
		<path class="st5" d="M91.2,314.4c0,2.7-0.7,4.8-2,6.3c-1.3,1.5-3.3,2.2-5.8,2.2s-4.4-0.7-5.8-2.2c-1.3-1.5-2-3.6-2-6.3
			c0-2.7,0.7-4.8,2-6.3c1.4-1.4,3.3-2.2,5.8-2.2c2.5,0,4.5,0.7,5.8,2.2C90.5,309.6,91.2,311.7,91.2,314.4z M79.2,314.4
			c0,1.8,0.3,3.2,1,4.1s1.7,1.4,3.1,1.4c2.8,0,4.2-1.8,4.2-5.5c0-3.7-1.4-5.5-4.1-5.5c-1.4,0-2.4,0.5-3.1,1.4
			C79.5,311.2,79.2,312.6,79.2,314.4z"/>
		<path class="st5" d="M105.9,322.7h-3.4v-7.3c0-0.9-0.2-1.6-0.5-2c-0.3-0.5-0.8-0.7-1.5-0.7c-1,0-1.7,0.3-2.1,1
			c-0.4,0.6-0.6,1.7-0.6,3.2v5.9h-3.4v-12.6h2.6l0.5,1.6h0.2c0.4-0.6,0.9-1.1,1.6-1.4c0.7-0.3,1.4-0.5,2.3-0.5
			c1.5,0,2.6,0.4,3.3,1.2c0.8,0.8,1.1,1.9,1.1,3.4V322.7z"/>
		<path class="st5" d="M112.8,322.7h-3.4v-17.5h3.4V322.7z"/>
		<path class="st5" d="M116.3,306.9c0-1.1,0.6-1.7,1.9-1.7c1.2,0,1.9,0.6,1.9,1.7c0,0.5-0.2,0.9-0.5,1.2c-0.3,0.3-0.8,0.4-1.4,0.4
			C116.9,308.5,116.3,308,116.3,306.9z M119.8,322.7h-3.4v-12.6h3.4V322.7z"/>
		<path class="st5" d="M135,322.7h-3.4v-7.3c0-0.9-0.2-1.6-0.5-2c-0.3-0.5-0.8-0.7-1.5-0.7c-1,0-1.7,0.3-2.1,1
			c-0.4,0.6-0.6,1.7-0.6,3.2v5.9h-3.4v-12.6h2.6l0.5,1.6h0.2c0.4-0.6,0.9-1.1,1.6-1.4c0.7-0.3,1.4-0.5,2.3-0.5
			c1.5,0,2.6,0.4,3.3,1.2c0.8,0.8,1.1,1.9,1.1,3.4V322.7z"/>
		<path class="st5" d="M144.2,322.9c-2,0-3.6-0.6-4.7-1.7c-1.1-1.1-1.7-2.7-1.7-4.7c0-2.1,0.5-3.7,1.6-4.9c1.1-1.1,2.5-1.7,4.4-1.7
			c1.8,0,3.2,0.5,4.1,1.5s1.5,2.4,1.5,4.2v1.7h-8.1c0,1,0.3,1.7,0.9,2.3s1.3,0.8,2.3,0.8c0.8,0,1.5-0.1,2.1-0.2s1.4-0.4,2.1-0.8v2.7
			c-0.6,0.3-1.2,0.5-1.9,0.7C146,322.8,145.2,322.9,144.2,322.9z M143.8,312.3c-0.7,0-1.3,0.2-1.7,0.7c-0.4,0.5-0.6,1.1-0.7,2h4.8
			c0-0.8-0.2-1.5-0.7-2C145.1,312.5,144.5,312.3,143.8,312.3z"/>
		<path class="st5" d="M169.4,322.7h-3.4v-7.3c0-0.9-0.2-1.6-0.5-2s-0.8-0.7-1.4-0.7c-0.9,0-1.5,0.3-1.9,1c-0.4,0.6-0.6,1.7-0.6,3.2
			v5.9h-3.4v-12.6h2.6l0.5,1.6h0.2c0.3-0.6,0.8-1,1.5-1.4c0.6-0.3,1.4-0.5,2.2-0.5c1.9,0,3.2,0.6,3.8,1.8h0.3c0.3-0.6,0.8-1,1.5-1.4
			c0.7-0.3,1.4-0.5,2.2-0.5c1.4,0,2.5,0.4,3.2,1.1c0.7,0.7,1.1,1.9,1.1,3.5v8.2h-3.4v-7.3c0-0.9-0.2-1.6-0.5-2s-0.8-0.7-1.4-0.7
			c-0.8,0-1.5,0.3-1.9,0.9c-0.4,0.6-0.6,1.5-0.6,2.9V322.7z"/>
		<path class="st5" d="M188.7,322.7L188,321h-0.1c-0.6,0.7-1.2,1.2-1.8,1.5c-0.6,0.3-1.4,0.4-2.4,0.4c-1.2,0-2.2-0.3-2.8-1
			c-0.7-0.7-1-1.7-1-2.9c0-1.3,0.5-2.3,1.4-2.9s2.3-1,4.2-1l2.2-0.1v-0.6c0-1.3-0.7-1.9-2-1.9c-1,0-2.2,0.3-3.5,0.9L181,311
			c1.4-0.8,3-1.1,4.8-1.1c1.7,0,3,0.4,3.9,1.1c0.9,0.7,1.3,1.8,1.3,3.3v8.4H188.7z M187.7,316.8l-1.3,0c-1,0-1.7,0.2-2.2,0.5
			c-0.5,0.3-0.7,0.8-0.7,1.5c0,1,0.6,1.4,1.7,1.4c0.8,0,1.4-0.2,1.9-0.7c0.5-0.5,0.7-1.1,0.7-1.8V316.8z"/>
		<path class="st5" d="M198,322.7h-3.4v-17.5h3.4V322.7z"/>
		<path class="st5" d="M205,322.7h-3.4v-17.5h3.4V322.7z"/>
		<path class="st5" d="M225.2,322.7h-11.5v-2.4l4.1-4.2c1.2-1.3,2-2.1,2.4-2.6c0.4-0.5,0.6-0.9,0.8-1.3c0.2-0.4,0.2-0.8,0.2-1.3
			c0-0.7-0.2-1.1-0.5-1.5c-0.4-0.3-0.8-0.5-1.5-0.5c-0.6,0-1.3,0.1-1.9,0.4c-0.6,0.3-1.2,0.7-1.9,1.2l-1.9-2.2
			c0.8-0.7,1.5-1.2,2-1.5c0.5-0.3,1.1-0.5,1.7-0.7s1.3-0.2,2.1-0.2c1,0,1.9,0.2,2.7,0.6c0.8,0.4,1.4,0.9,1.8,1.6
			c0.4,0.7,0.7,1.4,0.7,2.3c0,0.8-0.1,1.5-0.4,2.1c-0.3,0.7-0.7,1.3-1.2,2c-0.6,0.7-1.5,1.7-2.9,3l-2.1,2v0.2h7.2V322.7z"/>
		<path class="st5" d="M237.7,309.9c0,1-0.3,1.9-0.9,2.6c-0.6,0.7-1.5,1.2-2.6,1.5v0.1c1.3,0.2,2.3,0.6,3,1.2c0.7,0.6,1,1.5,1,2.6
			c0,1.6-0.6,2.8-1.7,3.7s-2.8,1.3-4.9,1.3c-1.8,0-3.4-0.3-4.7-0.9v-3c0.6,0.3,1.3,0.6,2.1,0.8s1.5,0.3,2.3,0.3c1.1,0,2-0.2,2.5-0.6
			c0.5-0.4,0.8-1,0.8-1.9c0-0.8-0.3-1.3-0.9-1.6s-1.6-0.5-3-0.5h-1.2v-2.7h1.3c1.3,0,2.2-0.2,2.8-0.5c0.6-0.3,0.9-0.9,0.9-1.7
			c0-1.2-0.8-1.9-2.3-1.9c-0.5,0-1.1,0.1-1.6,0.3c-0.6,0.2-1.2,0.5-1.9,0.9l-1.6-2.4c1.5-1.1,3.3-1.6,5.4-1.6c1.7,0,3,0.3,4,1
			C237.2,307.7,237.7,308.7,237.7,309.9z"/>
		<path class="st5" d="M247.6,311.1c0,1.7-0.3,3-1,3.9c-0.7,0.9-1.6,1.3-2.9,1.3c-1.2,0-2.2-0.4-2.9-1.3c-0.7-0.9-1-2.2-1-3.8
			c0-3.4,1.3-5.1,3.9-5.1c1.3,0,2.2,0.4,2.9,1.3C247.3,308.2,247.6,309.5,247.6,311.1z M242.7,311.2c0,1,0.1,1.7,0.3,2.1
			s0.4,0.7,0.8,0.7c0.7,0,1.1-0.9,1.1-2.8c0-1.9-0.4-2.8-1.1-2.8c-0.4,0-0.6,0.2-0.8,0.7C242.7,309.5,242.7,310.2,242.7,311.2z
			 M255.4,306.2l-9.1,16.4h-2.7l9.1-16.4H255.4z M259.1,317.7c0,1.7-0.3,3-1,3.9c-0.7,0.9-1.6,1.3-2.9,1.3c-1.2,0-2.2-0.4-2.9-1.3
			c-0.7-0.9-1-2.2-1-3.8c0-3.4,1.3-5.1,3.9-5.1c1.3,0,2.2,0.4,2.9,1.3C258.8,314.8,259.1,316.1,259.1,317.7z M254.2,317.7
			c0,1,0.1,1.7,0.3,2.1s0.4,0.7,0.8,0.7c0.7,0,1.1-0.9,1.1-2.8c0-1.9-0.4-2.8-1.1-2.8c-0.4,0-0.6,0.2-0.8,0.7
			C254.2,316.1,254.2,316.8,254.2,317.7z"/>
	</g>
</g>
</svg>