<!-- Generator: Adobe Illustrator 19.1.0, SVG Export Plug-In  -->
<svg version="1.1"
	 xmlns="http://www.w3.org/2000/svg" xmlns:xlink="http://www.w3.org/1999/xlink" xmlns:a="http://ns.adobe.com/AdobeSVGViewerExtensions/3.0/"
	 x="0px" y="0px" width="105px" height="85.6px" viewBox="0 0 105 85.6"
	 style="overflow:scroll;enable-background:new 0 0 105 85.6;" xml:space="preserve">
<style type="text/css">
	.st0{fill:#086A87;}
	.st1{fill:#E3E3E3;stroke:#E3E3E3;stroke-width:0.6645;stroke-miterlimit:10;}
	.st2{fill:#FFFFFF;}
	.st3{fill:#E3E3E3;stroke:#E3E3E3;stroke-width:0.7027;stroke-miterlimit:10;}
	.st4{fill:#33CBCB;}
	.st5{fill:#086B86;}
	.st6{fill:#FF6633;}
	.st7{fill:none;stroke:#FF6633;stroke-width:0.7027;stroke-miterlimit:10;}
	.st8{fill:none;}
</style>
<defs>
</defs>
<g>
	<rect x="33.9" class="st0" width="51.1" height="85.6"/>
	<g>
		<rect x="10.3" y="18.9" class="st1" width="84.1" height="20.5"/>
		<path class="st2" d="M33.6,33c-1.2-1.2-3.1-1.2-4.3,0L13.2,49.2l4.3,4.3l16.2-16.2C34.8,36.1,34.8,34.2,33.6,33"/>
		<path class="st3" d="M33.6,33c-1.2-1.2-3.1-1.2-4.3,0L13.2,49.2l4.3,4.3l16.2-16.2C34.8,36.1,34.8,34.2,33.6,33z"/>
		<path class="st4" d="M1.6,60.8c-1.2,1.2-1.2,3.1,0,4.3c1.2,1.2,3.1,1.2,4.3,0l11.6-11.6l-4.3-4.3L1.6,60.8z"/>
		<path class="st0" d="M1.6,60.8c-1.2,1.2-1.2,3.1,0,4.3c1.2,1.2,3.1,1.2,4.3,0l11.6-11.6l-4.3-4.3L1.6,60.8z"/>
		<path class="st5" d="M44.4,46c-6.6,6.6-17.4,6.6-24,0c-6.6-6.6-6.6-17.4,0-24c6.6-6.6,17.4-6.6,24,0C51,28.6,51,39.4,44.4,46"/>
		<circle class="st6" cx="32.4" cy="34" r="16.9"/>
		<path class="st2" d="M41.7,43.3c-5.2,5.2-13.5,5.2-18.7,0c-5.2-5.2-5.2-13.5,0-18.7c5.2-5.2,13.5-5.2,18.7,0
			C46.9,29.8,46.9,38.2,41.7,43.3"/>
		<circle class="st7" cx="32.4" cy="34" r="13.2"/>
		<rect y="10.4" class="st8" width="105" height="50.3"/>
		<polygon class="st6" points="77,25 87.9,25 82.4,33.3 		"/>
	</g>
</g>
</svg>