<!-- Generator: Adobe Illustrator 19.1.0, SVG Export Plug-In  -->
<svg version="1.1"
	 xmlns="http://www.w3.org/2000/svg" xmlns:xlink="http://www.w3.org/1999/xlink" xmlns:a="http://ns.adobe.com/AdobeSVGViewerExtensions/3.0/"
	 x="0px" y="0px" width="232px" height="161.6px" viewBox="0 0 232 161.6"
	 style="overflow:scroll;enable-background:new 0 0 232 161.6;" xml:space="preserve">
<style type="text/css">
	.st0{fill:#086A87;}
	.st1{fill:#FFFFFF;stroke:#ED6A4A;stroke-width:1.3374;stroke-miterlimit:10;}
	.st2{fill:#086A87;stroke:#086A87;stroke-width:0.6687;stroke-linecap:round;stroke-linejoin:round;stroke-miterlimit:10;}
	.st3{fill:#33CCCC;stroke:#33CCCC;stroke-width:0.6687;stroke-miterlimit:10;}
</style>
<defs>
</defs>
<g>
	<g>
		<path class="st0" d="M33.9,98.2h-4.6l-7.5-13h-0.1c0.1,2.3,0.2,3.9,0.2,4.9v8.1h-3.2V81.1h4.6l7.4,12.8h0.1
			c-0.1-2.2-0.2-3.8-0.2-4.7v-8.1h3.3V98.2z"/>
		<path class="st0" d="M50,98.2h-3.6v-7.7c0-1.9-0.7-2.8-2.1-2.8c-1,0-1.7,0.3-2.2,1s-0.7,1.8-0.7,3.3v6.2H38V80h3.6v3.7
			c0,0.3,0,1-0.1,2l-0.1,1.1h0.2c0.8-1.3,2.1-1.9,3.8-1.9c1.5,0,2.7,0.4,3.5,1.2s1.2,2,1.2,3.6V98.2z"/>
		<path class="st0" d="M63,98.2l-0.5-1.7h-0.2c-0.4,0.6-0.9,1.1-1.6,1.4s-1.5,0.5-2.4,0.5c-1.5,0-2.7-0.4-3.5-1.2s-1.2-2-1.2-3.6
			v-8.5h3.6v7.7c0,0.9,0.2,1.7,0.5,2.1s0.9,0.7,1.6,0.7c1,0,1.7-0.3,2.2-1s0.7-1.8,0.7-3.3v-6.2h3.6v1.4c0.6-0.2,1-0.5,1.3-1.1
			s0.5-1.3,0.5-2.2H71l0.2,0.3c-0.3,1.2-0.6,2.2-1,2.8s-1,1.2-1.7,1.6s-1.6,0.7-2.7,0.8v9.6H63z M57.8,82.4c-0.2,0-0.5,0.1-0.7,0.3
			s-0.4,0.5-0.5,0.9h-1.7c0.1-1.1,0.4-2,1-2.7s1.3-1,2.2-1c0.3,0,0.6,0.1,0.9,0.2s0.6,0.3,0.9,0.4s0.6,0.3,0.9,0.4s0.6,0.2,0.9,0.2
			c0.2,0,0.5-0.1,0.7-0.3s0.4-0.5,0.5-0.9h1.7c-0.1,1.1-0.4,2-1,2.7s-1.3,1-2.2,1c-0.3,0-0.6-0.1-0.9-0.2s-0.6-0.3-0.9-0.4
			s-0.6-0.3-0.9-0.4S58.1,82.4,57.8,82.4z"/>
		<path class="st0" d="M84.1,98.2h-3.6v-7.7c0-0.9-0.2-1.7-0.5-2.1s-0.9-0.7-1.6-0.7c-1,0-1.7,0.3-2.2,1s-0.7,1.8-0.7,3.3v6.2H72
			V85.1h2.7l0.5,1.7h0.2c0.4-0.6,0.9-1.1,1.6-1.4s1.5-0.5,2.4-0.5c1.5,0,2.7,0.4,3.5,1.2s1.2,2,1.2,3.6V98.2z"/>
		<path class="st0" d="M99.2,98.2c0,1.9-0.5,3.3-1.6,4.3s-2.7,1.5-4.9,1.5c-1.9,0-3.5-0.3-4.9-0.8v-2.9c1.6,0.7,3.3,1,5.1,1
			c1.8,0,2.8-1,2.8-3v-0.3l0.1-1.6h-0.1c-0.8,1.3-2.1,1.9-3.7,1.9c-1.6,0-2.8-0.6-3.7-1.8s-1.3-2.9-1.3-4.9c0-2.1,0.4-3.8,1.3-5
			s2.1-1.8,3.7-1.8c1.6,0,2.9,0.6,3.8,1.9h0.1l0.3-1.7h3V98.2z M93.2,95.6c1,0,1.6-0.3,2.1-0.8s0.6-1.4,0.6-2.7v-0.4
			c0-1.4-0.2-2.4-0.7-3s-1.1-0.9-2.1-0.9c-1.7,0-2.5,1.3-2.5,4c0,1.3,0.2,2.3,0.6,2.9S92.3,95.6,93.2,95.6z"/>
		<path class="st0" d="M113.3,98.4c-1.5,0-2.8-0.6-3.6-1.7s-1.3-2.7-1.3-4.7c0-2,0.4-3.6,1.3-4.8s2.1-1.7,3.7-1.7
			c1.7,0,2.9,0.6,3.8,1.9h0.1c-0.2-1-0.3-1.9-0.3-2.7v-0.6h-3.7v-2.3h3.7V80h3.6v1.9h1.8v2.3h-1.8v14h-2.7l-0.7-1.7H117
			C116.2,97.8,115,98.4,113.3,98.4z M114.6,95.6c0.9,0,1.6-0.2,2-0.7s0.7-1.3,0.7-2.5v-0.3c0-1.3-0.2-2.2-0.7-2.7s-1.1-0.8-2.1-0.8
			c-0.8,0-1.4,0.3-1.9,0.9s-0.7,1.5-0.7,2.7c0,1.2,0.2,2,0.7,2.6S113.7,95.6,114.6,95.6z"/>
		<path class="st0" d="M124.6,81.7c0-1.2,0.6-1.7,1.9-1.7s1.9,0.6,1.9,1.7c0,0.6-0.2,1-0.5,1.3s-0.8,0.5-1.5,0.5
			C125.2,83.5,124.6,82.9,124.6,81.7z M128.3,98.2h-3.6V85.1h3.6V98.2z"/>
		<path class="st0" d="M134.2,81.4h-1.8c-1.3-0.9-2.2-1.7-2.7-2.4v-0.2h2.8c0.4,0.9,1,1.7,1.6,2.4V81.4z M138,98.4
			c-2.1,0-3.8-0.6-4.9-1.7s-1.8-2.8-1.8-4.9c0-2.2,0.5-3.9,1.6-5.1s2.6-1.8,4.6-1.8c1.9,0,3.3,0.5,4.3,1.6s1.5,2.5,1.5,4.4v1.7h-8.4
			c0,1,0.3,1.8,0.9,2.4s1.4,0.9,2.4,0.9c0.8,0,1.5-0.1,2.2-0.2s1.4-0.4,2.2-0.8v2.8c-0.6,0.3-1.3,0.5-2,0.7S139,98.4,138,98.4z
			 M133.2,83.3c0.9-1,1.7-2.1,2.5-3.3h3.7c0.4,0.6,0.8,1.2,1.3,1.8s0.9,1.1,1.2,1.5v0.3H140c-0.8-0.5-1.6-1.2-2.5-1.9
			c-0.8,0.8-1.7,1.4-2.5,1.9h-1.9V83.3z M137.5,87.4c-0.8,0-1.4,0.2-1.8,0.7s-0.7,1.2-0.7,2h5c0-0.9-0.2-1.6-0.7-2
			S138.2,87.4,137.5,87.4z"/>
		<path class="st0" d="M155.5,98.2l-0.5-1.7h-0.2c-0.4,0.6-0.9,1.1-1.6,1.4s-1.5,0.5-2.4,0.5c-1.5,0-2.7-0.4-3.5-1.2s-1.2-2-1.2-3.6
			v-8.5h3.6v7.7c0,0.9,0.2,1.7,0.5,2.1s0.9,0.7,1.6,0.7c1,0,1.7-0.3,2.2-1s0.7-1.8,0.7-3.3v-6.2h3.6v13.1H155.5z"/>
		<path class="st0" d="M166.4,85.1h3.9l2.5,7.4c0.2,0.6,0.4,1.4,0.4,2.3h0.1c0.1-0.8,0.3-1.6,0.5-2.3l2.4-7.4h3.8l-5.5,14.8
			c-0.5,1.4-1.2,2.4-2.2,3.1s-2,1-3.3,1c-0.6,0-1.2-0.1-1.8-0.2v-2.8c0.4,0.1,0.9,0.2,1.4,0.2c0.6,0,1.2-0.2,1.7-0.6s0.8-1,1.1-1.8
			l0.2-0.6L166.4,85.1z"/>
		<path class="st0" d="M187.8,98.4c-2.1,0-3.8-0.6-4.9-1.7s-1.8-2.8-1.8-4.9c0-2.2,0.5-3.9,1.6-5.1s2.6-1.8,4.6-1.8
			c1.9,0,3.3,0.5,4.3,1.6s1.5,2.5,1.5,4.4v1.7h-8.4c0,1,0.3,1.8,0.9,2.4s1.4,0.9,2.4,0.9c0.8,0,1.5-0.1,2.2-0.2s1.4-0.4,2.2-0.8v2.8
			c-0.6,0.3-1.3,0.5-2,0.7S188.8,98.4,187.8,98.4z M190.1,83.7c-1.2-0.7-2.1-1.4-2.7-2.1c-0.6,0.6-1.5,1.3-2.7,2.1h-2.4v-0.3
			c1.5-1.5,2.5-2.7,3-3.5h4.2c0.2,0.4,0.7,1,1.3,1.7s1.2,1.3,1.7,1.9v0.3H190.1z M187.3,87.4c-0.8,0-1.4,0.2-1.8,0.7s-0.7,1.2-0.7,2
			h5c0-0.9-0.2-1.6-0.7-2S188.1,87.4,187.3,87.4z"/>
		<path class="st0" d="M205.4,98.2l-0.5-1.7h-0.2c-0.4,0.6-0.9,1.1-1.6,1.4s-1.5,0.5-2.4,0.5c-1.5,0-2.7-0.4-3.5-1.2s-1.2-2-1.2-3.6
			v-8.5h3.6v7.7c0,0.9,0.2,1.7,0.5,2.1s0.9,0.7,1.6,0.7c1,0,1.7-0.3,2.2-1s0.7-1.8,0.7-3.3v-6.2h3.6v13.1H205.4z"/>
		<path class="st0" d="M9.6,124.4c0.6,0,1.4-0.1,2.3-0.4v2.7c-0.9,0.4-2,0.6-3.3,0.6c-1.4,0-2.5-0.4-3.1-1.1s-1-1.8-1-3.3v-6.3H2.7
			v-1.5l2-1.2l1-2.8H8v2.8h3.7v2.7H8v6.3c0,0.5,0.1,0.9,0.4,1.1S9.1,124.4,9.6,124.4z"/>
		<path class="st0" d="M26.6,127H23v-7.7c0-1.9-0.7-2.8-2.1-2.8c-1,0-1.7,0.3-2.2,1s-0.7,1.8-0.7,3.3v6.2h-3.6v-18.2h3.6v3.7
			c0,0.3,0,1-0.1,2l-0.1,1.1h0.2c0.8-1.3,2.1-1.9,3.8-1.9c1.5,0,2.7,0.4,3.5,1.2s1.2,2,1.2,3.6V127z"/>
		<path class="st0" d="M30.1,112.5v-0.3c1.3-1.6,2.3-2.7,2.8-3.5h4v0.2c-0.4,0.4-1.1,1-2.1,1.8s-1.7,1.4-2.3,1.8H30.1z M33.8,127
			h-3.6v-13.1h3.6V127z"/>
		<path class="st0" d="M42.9,127.2c-4.1,0-6.1-2.2-6.1-6.7c0-2.2,0.6-3.9,1.7-5.1s2.7-1.8,4.8-1.8c1.5,0,2.9,0.3,4.1,0.9l-1.1,2.8
			c-0.6-0.2-1.1-0.4-1.6-0.6s-1-0.2-1.5-0.2c-1.9,0-2.8,1.3-2.8,4c0,2.6,0.9,3.8,2.8,3.8c0.7,0,1.3-0.1,1.9-0.3s1.2-0.5,1.8-0.9v3.1
			c-0.6,0.4-1.2,0.6-1.8,0.8S43.8,127.2,42.9,127.2z"/>
		<path class="st0" d="M62,127h-3.6v-7.7c0-1.9-0.7-2.8-2.1-2.8c-1,0-1.7,0.3-2.2,1s-0.7,1.8-0.7,3.3v6.2h-3.6v-18.2h3.6v3.7
			c0,0.3,0,1-0.1,2l-0.1,1.1h0.2c0.8-1.3,2.1-1.9,3.8-1.9c1.5,0,2.7,0.4,3.5,1.2s1.2,2,1.2,3.6V127z"/>
		<path class="st0" d="M75.4,119.9l1.6-2l3.7-4h4l-5.2,5.7l5.5,7.4h-4.1l-3.8-5.3l-1.5,1.2v4.1h-3.6v-18.2h3.6v8.1L75.4,119.9
			L75.4,119.9z"/>
		<path class="st0" d="M98.9,127h-3.6v-7.7c0-1.9-0.7-2.8-2.1-2.8c-1,0-1.7,0.3-2.2,1s-0.7,1.8-0.7,3.3v6.2h-3.6v-18.2h3.6v3.7
			c0,0.3,0,1-0.1,2l-0.1,1.1h0.2c0.8-1.3,2.1-1.9,3.8-1.9c1.5,0,2.7,0.4,3.5,1.2s1.2,2,1.2,3.6V127z"/>
		<path class="st0" d="M102.4,110.5c0-1.2,0.6-1.7,1.9-1.7s1.9,0.6,1.9,1.7c0,0.6-0.2,1-0.5,1.3s-0.8,0.5-1.5,0.5
			C103.1,112.3,102.4,111.7,102.4,110.5z M106.2,127h-3.6v-13.1h3.6V127z"/>
		<path class="st0" d="M127.9,127h-3.6v-7.7c0-0.9-0.2-1.7-0.5-2.1s-0.8-0.7-1.5-0.7c-0.9,0-1.6,0.3-2,1s-0.6,1.8-0.6,3.3v6.2h-3.6
			v-13.1h2.7l0.5,1.7h0.2c0.4-0.6,0.9-1.1,1.5-1.4s1.4-0.5,2.3-0.5c2,0,3.3,0.6,4,1.9h0.3c0.4-0.6,0.9-1.1,1.6-1.4s1.5-0.5,2.3-0.5
			c1.5,0,2.6,0.4,3.4,1.1s1.1,2,1.1,3.7v8.5h-3.6v-7.7c0-0.9-0.2-1.7-0.5-2.1s-0.8-0.7-1.5-0.7c-0.9,0-1.5,0.3-2,0.9s-0.7,1.6-0.7,3
			V127z"/>
		<path class="st0" d="M149,127l-0.5-1.7h-0.2c-0.4,0.6-0.9,1.1-1.6,1.4s-1.5,0.5-2.4,0.5c-1.5,0-2.7-0.4-3.5-1.2s-1.2-2-1.2-3.6
			v-8.5h3.6v7.7c0,0.9,0.2,1.7,0.5,2.1s0.9,0.7,1.6,0.7c1,0,1.7-0.3,2.2-1s0.7-1.8,0.7-3.3v-6.2h3.6V127H149z"/>
		<path class="st0" d="M163.8,127l-0.7-1.8H163c-0.6,0.8-1.2,1.3-1.9,1.6s-1.5,0.4-2.5,0.4c-1.3,0-2.2-0.4-3-1.1s-1.1-1.7-1.1-3.1
			c0-1.4,0.5-2.4,1.5-3.1s2.4-1,4.4-1.1l2.3-0.1v-0.6c0-1.3-0.7-2-2-2c-1,0-2.3,0.3-3.7,0.9l-1.2-2.4c1.5-0.8,3.2-1.2,5-1.2
			c1.8,0,3.1,0.4,4,1.1s1.4,1.9,1.4,3.5v8.7H163.8z M162.8,120.9l-1.4,0c-1,0-1.8,0.2-2.3,0.6s-0.8,0.9-0.8,1.6c0,1,0.6,1.5,1.7,1.5
			c0.8,0,1.5-0.2,2-0.7s0.7-1.1,0.7-1.9V120.9z"/>
		<path class="st0" d="M185.4,123.1c0,1.3-0.5,2.4-1.4,3.1s-2.3,1.1-4.2,1.1c-1,0-1.8-0.1-2.4-0.2s-1.3-0.3-1.9-0.6v-3
			c0.7,0.3,1.4,0.6,2.2,0.8s1.6,0.3,2.2,0.3c1.3,0,1.9-0.4,1.9-1.1c0-0.3-0.1-0.5-0.3-0.7s-0.5-0.4-0.9-0.6s-1-0.5-1.7-0.8
			c-1-0.4-1.7-0.8-2.2-1.2s-0.8-0.8-1-1.2s-0.3-1-0.3-1.7c0-1.2,0.5-2.1,1.4-2.7s2.2-1,3.8-1c1.6,0,3.1,0.3,4.6,1l-1.1,2.6
			c-0.7-0.3-1.3-0.5-1.8-0.7s-1.2-0.3-1.7-0.3c-1.1,0-1.6,0.3-1.6,0.9c0,0.3,0.2,0.6,0.5,0.8s1.1,0.6,2.2,1c1,0.4,1.8,0.8,2.3,1.2
			s0.8,0.8,1.1,1.2S185.4,122.5,185.4,123.1z"/>
		<path class="st0" d="M196.5,127l-0.7-1.8h-0.1c-0.6,0.8-1.2,1.3-1.9,1.6s-1.5,0.4-2.5,0.4c-1.3,0-2.2-0.4-3-1.1s-1.1-1.7-1.1-3.1
			c0-1.4,0.5-2.4,1.5-3.1s2.4-1,4.4-1.1l2.3-0.1v-0.6c0-1.3-0.7-2-2-2c-1,0-2.3,0.3-3.7,0.9l-1.2-2.4c1.5-0.8,3.2-1.2,5-1.2
			c1.8,0,3.1,0.4,4,1.1s1.4,1.9,1.4,3.5v8.7H196.5z M197.7,108.5c-0.1,1.2-0.5,2.2-1.3,2.9s-1.8,1.1-3,1.1c-1.3,0-2.3-0.3-3-1
			s-1.1-1.7-1.2-3h1.8c0.1,0.7,0.3,1.2,0.8,1.5s1,0.5,1.7,0.5s1.3-0.2,1.7-0.6s0.7-0.8,0.8-1.4H197.7z M195.4,120.9l-1.4,0
			c-1,0-1.8,0.2-2.3,0.6s-0.8,0.9-0.8,1.6c0,1,0.6,1.5,1.7,1.5c0.8,0,1.5-0.2,2-0.7s0.7-1.1,0.7-1.9V120.9z M192.3,109.1
			c0.5-0.8,1-1.6,1.4-2.4h2.6v0.2c-0.7,0.9-1.5,1.7-2.4,2.4h-1.5V109.1z"/>
		<path class="st0" d="M214.4,127h-3.6v-7.7c0-0.9-0.2-1.7-0.5-2.1s-0.8-0.7-1.5-0.7c-0.9,0-1.6,0.3-2,1s-0.6,1.8-0.6,3.3v6.2h-3.6
			v-13.1h2.7l0.5,1.7h0.2c0.4-0.6,0.9-1.1,1.5-1.4s1.4-0.5,2.3-0.5c2,0,3.3,0.6,4,1.9h0.3c0.4-0.6,0.9-1.1,1.6-1.4s1.5-0.5,2.3-0.5
			c1.5,0,2.6,0.4,3.4,1.1s1.1,2,1.1,3.7v8.5H219v-7.7c0-0.9-0.2-1.7-0.5-2.1s-0.8-0.7-1.5-0.7c-0.9,0-1.5,0.3-2,0.9s-0.7,1.6-0.7,3
			V127z"/>
		<path class="st0" d="M4.9,156c-1.5,0-2.8-0.6-3.6-1.8s-1.3-2.8-1.3-5c0-2.1,0.4-3.8,1.3-5s2.1-1.8,3.7-1.8c0.8,0,1.6,0.2,2.2,0.5
			s1.2,0.8,1.6,1.5h0.1l0.3-1.7h3v18.9H8.7v-5.5c0-0.5,0.1-1.1,0.2-2H8.7c-0.4,0.6-0.9,1.1-1.5,1.4S5.8,156,4.9,156z M6.2,153.2
			c0.9,0,1.6-0.3,2-0.8s0.7-1.4,0.7-2.7v-0.4c0-1.4-0.2-2.4-0.7-3s-1.1-0.9-2.1-0.9c-1.7,0-2.5,1.3-2.5,4c0,1.3,0.2,2.3,0.6,2.9
			S5.3,153.2,6.2,153.2z"/>
		<path class="st0" d="M25.3,155.8l-0.5-1.7h-0.2c-0.4,0.6-0.9,1.1-1.6,1.4s-1.5,0.5-2.4,0.5c-1.5,0-2.7-0.4-3.5-1.2s-1.2-2-1.2-3.6
			v-8.5h3.6v7.7c0,0.9,0.2,1.7,0.5,2.1s0.9,0.7,1.6,0.7c1,0,1.7-0.3,2.2-1s0.7-1.8,0.7-3.3v-6.2H28v13.1H25.3z"/>
		<path class="st0" d="M40.1,155.8l-0.7-1.8h-0.1c-0.6,0.8-1.2,1.3-1.9,1.6S36,156,34.9,156c-1.3,0-2.2-0.4-3-1.1s-1.1-1.7-1.1-3.1
			c0-1.4,0.5-2.4,1.5-3.1s2.4-1,4.4-1.1l2.3-0.1v-0.6c0-1.3-0.7-2-2-2c-1,0-2.3,0.3-3.7,0.9l-1.2-2.4c1.5-0.8,3.2-1.2,5-1.2
			c1.8,0,3.1,0.4,4,1.1s1.4,1.9,1.4,3.5v8.7H40.1z M39,149.7l-1.4,0c-1,0-1.8,0.2-2.3,0.6s-0.8,0.9-0.8,1.6c0,1,0.6,1.5,1.7,1.5
			c0.8,0,1.5-0.2,2-0.7s0.7-1.1,0.7-1.9V149.7z"/>
		<path class="st0" d="M58,153.2c0.6,0,1.4-0.1,2.3-0.4v2.7c-0.9,0.4-2,0.6-3.3,0.6c-1.4,0-2.5-0.4-3.1-1.1s-1-1.8-1-3.3v-6.3h-1.7
			v-1.5l2-1.2l1-2.8h2.3v2.8h3.7v2.7h-3.7v6.3c0,0.5,0.1,0.9,0.4,1.1S57.5,153.2,58,153.2z"/>
		<path class="st0" d="M75,155.8h-3.6v-7.7c0-1.9-0.7-2.8-2.1-2.8c-1,0-1.7,0.3-2.2,1s-0.7,1.8-0.7,3.3v6.2h-3.6v-18.2h3.6v3.7
			c0,0.3,0,1-0.1,2l-0.1,1.1h0.2c0.8-1.3,2.1-1.9,3.8-1.9c1.5,0,2.7,0.4,3.5,1.2s1.2,2,1.2,3.6V155.8z"/>
		<path class="st0" d="M78.5,139.3c0-1.2,0.6-1.7,1.9-1.7s1.9,0.6,1.9,1.7c0,0.6-0.2,1-0.5,1.3s-0.8,0.5-1.5,0.5
			C79.2,141.1,78.5,140.5,78.5,139.3z M82.3,155.8h-3.6v-13.1h3.6V155.8z"/>
		<path class="st0" d="M91.9,156c-2.1,0-3.8-0.6-4.9-1.7s-1.8-2.8-1.8-4.9c0-2.2,0.5-3.9,1.6-5.1s2.6-1.8,4.6-1.8
			c1.9,0,3.3,0.5,4.3,1.6s1.5,2.5,1.5,4.4v1.7h-8.4c0,1,0.3,1.8,0.9,2.4s1.4,0.9,2.4,0.9c0.8,0,1.5-0.1,2.2-0.2s1.4-0.4,2.2-0.8v2.8
			c-0.6,0.3-1.3,0.5-2,0.7S93,156,91.9,156z M95.8,141.3h-1.9c-0.9-0.6-1.7-1.2-2.5-1.9c-0.9,0.8-1.7,1.4-2.5,1.9H87v-0.3
			c0.9-1,1.7-2.1,2.5-3.3h3.7c0.4,0.6,0.9,1.2,1.4,1.9s0.9,1.1,1.1,1.4V141.3z M91.4,145c-0.8,0-1.4,0.2-1.8,0.7s-0.7,1.2-0.7,2h5
			c0-0.9-0.2-1.6-0.7-2S92.2,145,91.4,145z M94.7,138.7c0.7-0.7,1.2-1.5,1.6-2.4h2.8v0.2c-0.5,0.7-1.4,1.5-2.7,2.4h-1.8V138.7z"/>
		<path class="st0" d="M105.7,153.2c0.6,0,1.4-0.1,2.3-0.4v2.7c-0.9,0.4-2,0.6-3.3,0.6c-1.4,0-2.5-0.4-3.1-1.1s-1-1.8-1-3.3v-6.3
			h-1.7v-1.5l2-1.2l1-2.8h2.3v2.8h3.7v2.7h-3.7v6.3c0,0.5,0.1,0.9,0.4,1.1S105.2,153.2,105.7,153.2z"/>
		<path class="st0" d="M124.1,142.5c1.5,0,2.8,0.6,3.6,1.8s1.3,2.9,1.3,5c0,2.2-0.5,3.8-1.4,5s-2.1,1.8-3.7,1.8
			c-1.5,0-2.7-0.6-3.6-1.7h-0.2l-0.6,1.4h-2.7v-18.2h3.6v4.2c0,0.5,0,1.4-0.1,2.6h0.1C121.2,143.1,122.5,142.5,124.1,142.5z
			 M123,145.3c-0.9,0-1.5,0.3-1.9,0.8s-0.6,1.4-0.6,2.7v0.4c0,1.4,0.2,2.4,0.6,3s1.1,0.9,2,0.9c0.7,0,1.3-0.3,1.8-1s0.7-1.7,0.7-2.9
			s-0.2-2.3-0.7-2.9S123.7,145.3,123,145.3z"/>
		<path class="st0" d="M131.8,159.1c0-1.2,0.6-1.8,1.9-1.8s1.9,0.6,1.9,1.8c0,0.6-0.2,1-0.5,1.3s-0.8,0.5-1.5,0.5
			C132.5,160.8,131.8,160.3,131.8,159.1z M131.9,139.3c0-1.2,0.6-1.7,1.9-1.7s1.9,0.6,1.9,1.7c0,0.6-0.2,1-0.5,1.3s-0.8,0.5-1.5,0.5
			C132.5,141.1,131.9,140.5,131.9,139.3z M135.6,155.8H132v-13.1h3.6V155.8z"/>
		<path class="st0" d="M149.7,156c-1.5,0-2.7-0.6-3.6-1.8s-1.3-2.9-1.3-5c0-2.1,0.4-3.8,1.3-5s2.1-1.8,3.7-1.8
			c1.6,0,2.9,0.6,3.8,1.9h0.1c-0.2-1-0.3-1.8-0.3-2.6v-4.2h3.6v18.2h-2.7l-0.7-1.7h-0.2C152.6,155.4,151.4,156,149.7,156z
			 M151,153.2c0.9,0,1.6-0.3,2-0.8s0.7-1.4,0.7-2.7v-0.4c0-1.4-0.2-2.4-0.7-3s-1.1-0.9-2.1-0.9c-0.8,0-1.4,0.3-1.9,1
			s-0.7,1.7-0.7,2.9s0.2,2.3,0.7,2.9S150.2,153.2,151,153.2z"/>
		<path class="st0" d="M160.6,139.3c0-1.2,0.6-1.7,1.9-1.7s1.9,0.6,1.9,1.7c0,0.6-0.2,1-0.5,1.3s-0.8,0.5-1.5,0.5
			C161.3,141.1,160.6,140.5,160.6,139.3z M164.3,155.8h-3.6v-13.1h3.6V155.8z"/>
		<path class="st0" d="M178.5,156c-1.5,0-2.8-0.6-3.6-1.7s-1.3-2.7-1.3-4.7c0-2,0.4-3.6,1.3-4.8s2.1-1.7,3.7-1.7
			c1.7,0,2.9,0.6,3.8,1.9h0.1c-0.2-1-0.3-1.9-0.3-2.7v-0.6h-3.7v-2.3h3.7v-1.9h3.6v1.9h1.8v2.3h-1.8v14H183l-0.7-1.7h-0.2
			C181.4,155.4,180.1,156,178.5,156z M179.7,153.2c0.9,0,1.6-0.2,2-0.7s0.7-1.3,0.7-2.5v-0.3c0-1.3-0.2-2.2-0.7-2.7
			s-1.1-0.8-2.1-0.8c-0.8,0-1.4,0.3-1.9,0.9s-0.7,1.5-0.7,2.7c0,1.2,0.2,2,0.7,2.6S178.9,153.2,179.7,153.2z"/>
		<path class="st0" d="M201.8,149.2c0,2.1-0.6,3.8-1.7,5s-2.7,1.8-4.7,1.8c-1.3,0-2.4-0.3-3.3-0.8s-1.7-1.3-2.2-2.4
			s-0.8-2.2-0.8-3.6c0-2.1,0.6-3.8,1.7-5s2.7-1.8,4.7-1.8c1.3,0,2.4,0.3,3.3,0.8s1.7,1.3,2.2,2.4S201.8,147.9,201.8,149.2z
			 M198.2,141.3c-1.2-0.7-2.1-1.4-2.7-2.1c-0.6,0.6-1.5,1.3-2.7,2.1h-2.4v-0.3c1.5-1.5,2.5-2.7,3-3.5h4.2c0.2,0.4,0.7,1,1.3,1.7
			s1.2,1.3,1.7,1.9v0.3H198.2z M192.8,149.2c0,1.3,0.2,2.3,0.6,2.9s1.1,1,2.1,1c1,0,1.6-0.3,2.1-1s0.6-1.6,0.6-2.9
			c0-1.3-0.2-2.3-0.6-2.9s-1.1-1-2.1-1c-1,0-1.6,0.3-2.1,1S192.8,147.9,192.8,149.2z M193.5,159.1c0-1.2,0.6-1.8,1.9-1.8
			s1.9,0.6,1.9,1.8c0,0.6-0.2,1-0.5,1.3s-0.8,0.5-1.5,0.5C194.1,160.8,193.5,160.3,193.5,159.1z"/>
		<path class="st0" d="M216.9,155.8h-3.6v-7.7c0-0.9-0.2-1.7-0.5-2.1s-0.9-0.7-1.6-0.7c-1,0-1.7,0.3-2.2,1s-0.7,1.8-0.7,3.3v6.2
			h-3.6v-13.1h2.7l0.5,1.7h0.2c0.4-0.6,0.9-1.1,1.6-1.4s1.5-0.5,2.4-0.5c1.5,0,2.7,0.4,3.5,1.2s1.2,2,1.2,3.6V155.8z"/>
		<path class="st0" d="M232,155.8c0,1.9-0.5,3.3-1.6,4.3s-2.7,1.5-4.9,1.5c-1.9,0-3.5-0.3-4.9-0.8v-2.9c1.6,0.7,3.3,1,5.1,1
			c1.8,0,2.8-1,2.8-3v-0.3l0.1-1.6h-0.1c-0.8,1.3-2.1,1.9-3.7,1.9c-1.6,0-2.8-0.6-3.7-1.8s-1.3-2.9-1.3-4.9c0-2.1,0.4-3.8,1.3-5
			s2.1-1.8,3.7-1.8c1.6,0,2.9,0.6,3.8,1.9h0.1l0.3-1.7h3V155.8z M226,153.2c1,0,1.6-0.3,2.1-0.8s0.6-1.4,0.6-2.7v-0.4
			c0-1.4-0.2-2.4-0.7-3s-1.1-0.9-2.1-0.9c-1.7,0-2.5,1.3-2.5,4c0,1.3,0.2,2.3,0.6,2.9S225.1,153.2,226,153.2z"/>
	</g>
</g>
<g>
	<path class="st1" d="M111.8,38.3L111.8,38.3c-2.4,0-4.4-2-4.4-4.4V5.1c0-2.4,2-4.4,4.4-4.4h0c2.4,0,4.4,2,4.4,4.4v28.9
		C116.2,36.3,114.2,38.3,111.8,38.3z"/>
	<path class="st1" d="M90.2,21.3h44.3v31.5c0,2.9-2.3,5.2-5.2,5.2h-21.8c0,0-8.2-1.9-9.4-9.6h-7.9V21.3z"/>
	<rect x="78.9" y="19.7" class="st2" width="13.4" height="38.4"/>
	<path class="st1" d="M113.8,23.7v-1c0-1.8,1.4-3.2,3.2-3.2h17.5c1.8,0,3.2,1.4,3.2,3.2v1c0,1.8-1.4,3.2-3.2,3.2H117
		C115.3,26.9,113.8,25.5,113.8,23.7z"/>
	<path class="st1" d="M113.8,31.1v-1c0-1.8,1.4-3.2,3.2-3.2h17.5c1.8,0,3.2,1.4,3.2,3.2v1c0,1.8-1.4,3.2-3.2,3.2H117
		C115.3,34.3,113.8,32.9,113.8,31.1z"/>
	<path class="st1" d="M113.8,38.6v-1c0-1.8,1.4-3.2,3.2-3.2h17.5c1.8,0,3.2,1.4,3.2,3.2v1c0,1.8-1.4,3.2-3.2,3.2H117
		C115.3,41.8,113.8,40.3,113.8,38.6z"/>
	<path class="st1" d="M113.8,46v-1c0-1.8,1.4-3.2,3.2-3.2h17.5c1.8,0,3.2,1.4,3.2,3.2v1c0,1.8-1.4,3.2-3.2,3.2H117
		C115.3,49.2,113.8,47.8,113.8,46z"/>
	<rect x="78.8" y="49.2" class="st3" width="13.5" height="8.8"/>
</g>
</svg>