<!-- Generator: Adobe Illustrator 19.1.0, SVG Export Plug-In  -->
<svg version="1.1"
	 xmlns="http://www.w3.org/2000/svg" xmlns:xlink="http://www.w3.org/1999/xlink" xmlns:a="http://ns.adobe.com/AdobeSVGViewerExtensions/3.0/"
	 x="0px" y="0px" width="334.7px" height="536.2px" viewBox="0 0 334.7 536.2"
	 style="overflow:scroll;enable-background:new 0 0 334.7 536.2;" xml:space="preserve">
<style type="text/css">
	.st0{fill:none;stroke:#ED6A4A;stroke-width:5.8709;stroke-miterlimit:10;}
	.st1{fill:#33CCCC;stroke:#33CCCC;stroke-width:1.994;stroke-miterlimit:10;}
	.st2{fill:#FF6633;}
	.st3{fill:#9D9FA0;}
	.st4{fill:#E3E3E3;}
	.st5{fill:#086A87;}
	.st6{fill:#FFFFFF;}
</style>
<defs>
</defs>
<path class="st0" d="M177,2.9c-35.3,0-64,28.6-64,64v91.3h128V66.9C240.9,31.6,212.3,2.9,177,2.9z"/>
<rect x="1" y="123" class="st1" width="332.7" height="144.1"/>
<rect x="0" y="267.6" class="st2" width="334.6" height="102.9"/>
<rect x="0" y="370" class="st3" width="334.6" height="75.9"/>
<rect x="0" y="445.9" class="st4" width="334.6" height="56.5"/>
<rect x="0" y="497.1" class="st3" width="334.6" height="39.1"/>
<g>
	<path class="st5" d="M91.9,464.5v2.1c0.6-0.2,1-0.6,1.2-1.1c0.3-0.6,0.4-1.2,0.4-2h3.4l0.2,0.2c-0.2,1.2-0.6,2-1,2.7
		s-0.9,1.1-1.6,1.5c-0.7,0.4-1.5,0.7-2.6,0.8v6.4c0,1.2-0.3,2.3-0.8,3.2s-1.3,1.6-2.4,2.1c-1,0.5-2.2,0.7-3.6,0.7
		c-2.1,0-3.8-0.5-4.9-1.6s-1.8-2.6-1.8-4.4v-10.6h3.5v10.3c0,1.2,0.3,2,0.8,2.6c0.5,0.5,1.4,0.8,2.5,0.8c1.1,0,2-0.3,2.5-0.9
		c0.5-0.6,0.8-1.4,0.8-2.6v-10.3H91.9z M83.4,463.2v-0.3c1.3-1.5,2.2-2.6,2.6-3.4h3.8v0.2c-0.4,0.4-1.1,1-2,1.7
		c-0.9,0.8-1.7,1.3-2.2,1.7H83.4z"/>
	<path class="st5" d="M110.3,480.9h-3.4v-7.3c0-0.9-0.2-1.6-0.5-2c-0.3-0.5-0.8-0.7-1.5-0.7c-1,0-1.7,0.3-2.1,1
		c-0.4,0.6-0.6,1.7-0.6,3.2v5.9h-3.4v-12.6h2.6l0.5,1.6h0.2c0.4-0.6,0.9-1.1,1.6-1.4s1.4-0.5,2.3-0.5c1.5,0,2.6,0.4,3.3,1.2
		c0.8,0.8,1.1,1.9,1.1,3.4V480.9z"/>
	<path class="st5" d="M124.7,480.9c0,1.8-0.5,3.2-1.6,4.1c-1.1,0.9-2.6,1.4-4.7,1.4c-1.8,0-3.4-0.2-4.7-0.7v-2.7
		c1.5,0.6,3.2,1,4.9,1c1.8,0,2.6-1,2.6-2.9v-0.2l0.1-1.5h-0.1c-0.8,1.2-2,1.9-3.6,1.9c-1.5,0-2.7-0.6-3.5-1.7
		c-0.8-1.2-1.2-2.7-1.2-4.7c0-2.1,0.4-3.7,1.3-4.8c0.9-1.1,2-1.7,3.5-1.7c1.5,0,2.8,0.6,3.6,1.8h0.1l0.3-1.6h2.9V480.9z M119,478.4
		c0.9,0,1.6-0.3,2-0.8c0.4-0.5,0.6-1.4,0.6-2.6v-0.4c0-1.3-0.2-2.3-0.6-2.9s-1.1-0.9-2-0.9c-1.6,0-2.4,1.3-2.4,3.8
		c0,1.3,0.2,2.2,0.6,2.8C117.5,478.1,118.1,478.4,119,478.4z"/>
	<path class="st5" d="M138.3,481.1c-1.5,0-2.6-0.6-3.5-1.7c-0.8-1.1-1.3-2.7-1.3-4.8c0-2.1,0.4-3.7,1.3-4.8c0.9-1.1,2-1.7,3.5-1.7
		c1.6,0,2.8,0.6,3.6,1.8h0.1c-0.2-0.9-0.3-1.8-0.3-2.5v-4h3.4v17.5h-2.6l-0.7-1.6h-0.1C141.1,480.5,139.9,481.1,138.3,481.1z
		 M139.5,478.4c0.9,0,1.5-0.3,1.9-0.8c0.4-0.5,0.6-1.4,0.7-2.6v-0.4c0-1.3-0.2-2.3-0.6-2.9s-1.1-0.9-2-0.9c-0.8,0-1.4,0.3-1.8,1
		s-0.6,1.6-0.6,2.8c0,1.2,0.2,2.2,0.6,2.8C138.1,478.1,138.7,478.4,139.5,478.4z"/>
	<path class="st5" d="M157.8,480.9l-0.5-1.6h-0.2c-0.4,0.6-0.9,1-1.6,1.4s-1.4,0.5-2.3,0.5c-1.5,0-2.6-0.4-3.3-1.2
		c-0.7-0.8-1.1-1.9-1.1-3.4v-8.2h3.4v7.3c0,0.9,0.2,1.6,0.5,2c0.3,0.5,0.8,0.7,1.5,0.7c1,0,1.7-0.3,2.1-1c0.4-0.6,0.6-1.7,0.6-3.2
		v-5.9h3.4v12.6H157.8z M152.7,484c0-1.1,0.6-1.7,1.9-1.7c1.2,0,1.9,0.6,1.9,1.7c0,0.5-0.2,0.9-0.5,1.2c-0.3,0.3-0.8,0.4-1.4,0.4
		C153.3,485.7,152.7,485.2,152.7,484z"/>
	<path class="st5" d="M175.6,480.9h-3.4v-7.3c0-0.9-0.2-1.6-0.5-2c-0.3-0.5-0.8-0.7-1.5-0.7c-1,0-1.7,0.3-2.1,1
		c-0.4,0.6-0.6,1.7-0.6,3.2v5.9H164v-12.6h2.6l0.5,1.6h0.2c0.4-0.6,0.9-1.1,1.6-1.4s1.4-0.5,2.3-0.5c1.5,0,2.6,0.4,3.3,1.2
		c0.8,0.8,1.1,1.9,1.1,3.4V480.9z"/>
	<path class="st5" d="M190.1,480.9c0,1.8-0.5,3.2-1.6,4.1c-1.1,0.9-2.6,1.4-4.7,1.4c-1.8,0-3.4-0.2-4.7-0.7v-2.7
		c1.5,0.6,3.2,1,4.9,1c1.8,0,2.6-1,2.6-2.9v-0.2l0.1-1.5h-0.1c-0.8,1.2-2,1.9-3.6,1.9c-1.5,0-2.7-0.6-3.5-1.7
		c-0.8-1.2-1.2-2.7-1.2-4.7c0-2.1,0.4-3.7,1.3-4.8c0.9-1.1,2-1.7,3.5-1.7c1.5,0,2.8,0.6,3.6,1.8h0.1l0.3-1.6h2.9V480.9z
		 M184.3,478.4c0.9,0,1.6-0.3,2-0.8c0.4-0.5,0.6-1.4,0.6-2.6v-0.4c0-1.3-0.2-2.3-0.6-2.9s-1.1-0.9-2-0.9c-1.6,0-2.4,1.3-2.4,3.8
		c0,1.3,0.2,2.2,0.6,2.8C182.8,478.1,183.4,478.4,184.3,478.4z"/>
	<path class="st5" d="M207.3,480.9h-3.5v-9.5l0-1.6l0.1-1.7c-0.6,0.6-1,1-1.2,1.1l-1.9,1.5l-1.7-2.1l5.3-4.2h2.9V480.9z"/>
	<path class="st5" d="M217.9,470.4c1.6,0,2.9,0.4,3.8,1.3c0.9,0.9,1.4,2.1,1.4,3.7c0,1.8-0.6,3.2-1.7,4.2c-1.1,1-2.7,1.5-4.9,1.5
		c-1.8,0-3.3-0.3-4.4-0.9v-3c0.6,0.3,1.3,0.6,2.1,0.8s1.5,0.3,2.2,0.3c2.1,0,3.2-0.9,3.2-2.6c0-1.7-1.1-2.5-3.3-2.5
		c-0.4,0-0.8,0-1.3,0.1c-0.5,0.1-0.9,0.2-1.2,0.3l-1.4-0.7l0.6-8.4h8.9v2.9h-5.9l-0.3,3.2l0.4-0.1
		C216.6,470.4,217.2,470.4,217.9,470.4z"/>
	<path class="st5" d="M232.6,469.4c0,1.7-0.3,3-1,3.9c-0.7,0.9-1.6,1.3-2.9,1.3c-1.2,0-2.2-0.4-2.9-1.3c-0.7-0.9-1-2.2-1-3.8
		c0-3.4,1.3-5.1,3.9-5.1c1.3,0,2.2,0.4,2.9,1.3C232.3,466.4,232.6,467.7,232.6,469.4z M227.7,469.4c0,1,0.1,1.7,0.3,2.1
		s0.4,0.7,0.8,0.7c0.7,0,1.1-0.9,1.1-2.8c0-1.9-0.4-2.8-1.1-2.8c-0.4,0-0.6,0.2-0.8,0.7C227.7,467.7,227.7,468.4,227.7,469.4z
		 M240.4,464.5l-9.1,16.4h-2.7l9.1-16.4H240.4z M244.1,475.9c0,1.7-0.3,3-1,3.9c-0.7,0.9-1.6,1.3-2.9,1.3c-1.2,0-2.2-0.4-2.9-1.3
		c-0.7-0.9-1-2.2-1-3.8c0-3.4,1.3-5.1,3.9-5.1c1.3,0,2.2,0.4,2.9,1.3C243.8,473,244.1,474.3,244.1,475.9z M239.2,475.9
		c0,1,0.1,1.7,0.3,2.1s0.4,0.7,0.8,0.7c0.7,0,1.1-0.9,1.1-2.8c0-1.9-0.4-2.8-1.1-2.8c-0.4,0-0.6,0.2-0.8,0.7
		C239.2,474.3,239.2,475,239.2,475.9z"/>
</g>
<g>
	<g>
		<path class="st6" d="M79.7,413.7h-3.4v-16.4h9.4v2.9h-6v4.2h5.6v2.8h-5.6V413.7z"/>
		<path class="st6" d="M96.6,413.7L96,412h-0.1c-0.6,0.7-1.2,1.2-1.8,1.5c-0.6,0.3-1.4,0.4-2.4,0.4c-1.2,0-2.2-0.3-2.8-1
			s-1-1.7-1-2.9c0-1.3,0.5-2.3,1.4-2.9s2.3-1,4.2-1l2.2-0.1v-0.6c0-1.3-0.7-1.9-2-1.9c-1,0-2.2,0.3-3.5,0.9L89,402
			c1.4-0.8,3-1.1,4.8-1.1c1.7,0,3,0.4,3.9,1.1c0.9,0.7,1.3,1.8,1.3,3.3v8.4H96.6z M95.6,407.9l-1.3,0c-1,0-1.7,0.2-2.2,0.5
			c-0.5,0.3-0.7,0.8-0.7,1.5c0,1,0.6,1.4,1.7,1.4c0.8,0,1.4-0.2,1.9-0.7s0.7-1.1,0.7-1.8V407.9z"/>
		<path class="st6" d="M107.6,413.9c-3.9,0-5.9-2.1-5.9-6.4c0-2.1,0.5-3.8,1.6-4.9c1.1-1.1,2.6-1.7,4.6-1.7c1.5,0,2.8,0.3,3.9,0.9
			l-1,2.7c-0.5-0.2-1-0.4-1.5-0.5c-0.5-0.1-0.9-0.2-1.4-0.2c-1.8,0-2.7,1.3-2.7,3.8c0,2.5,0.9,3.7,2.7,3.7c0.7,0,1.3-0.1,1.8-0.3
			s1.1-0.5,1.7-0.8v2.9c-0.6,0.4-1.1,0.6-1.7,0.7C109.2,413.9,108.5,413.9,107.6,413.9z"/>
		<path class="st6" d="M120,413.9c-2,0-3.6-0.6-4.7-1.7c-1.1-1.1-1.7-2.7-1.7-4.7c0-2.1,0.5-3.7,1.6-4.9s2.5-1.7,4.4-1.7
			c1.8,0,3.2,0.5,4.1,1.5s1.5,2.4,1.5,4.2v1.7h-8.1c0,1,0.3,1.7,0.9,2.3s1.3,0.8,2.3,0.8c0.8,0,1.5-0.1,2.1-0.2s1.4-0.4,2.1-0.8v2.7
			c-0.6,0.3-1.2,0.5-1.9,0.7C121.9,413.9,121,413.9,120,413.9z M119.6,403.3c-0.7,0-1.3,0.2-1.7,0.7c-0.4,0.5-0.6,1.1-0.7,2h4.8
			c0-0.8-0.2-1.5-0.7-2C120.9,403.6,120.3,403.3,119.6,403.3z"/>
		<path class="st6" d="M134.9,400.9c1.5,0,2.6,0.6,3.5,1.7c0.8,1.2,1.3,2.7,1.3,4.8c0,2.1-0.4,3.7-1.3,4.8s-2,1.7-3.5,1.7
			c-1.5,0-2.6-0.5-3.5-1.6h-0.2l-0.6,1.4H128v-17.5h3.4v4.1c0,0.5,0,1.3-0.1,2.5h0.1C132.2,401.5,133.4,400.9,134.9,400.9z
			 M133.8,403.7c-0.8,0-1.5,0.3-1.9,0.8c-0.4,0.5-0.6,1.4-0.6,2.6v0.4c0,1.3,0.2,2.3,0.6,2.9s1,0.9,1.9,0.9c0.7,0,1.3-0.3,1.7-1
			s0.6-1.6,0.6-2.8c0-1.2-0.2-2.2-0.6-2.8C135.1,404,134.6,403.7,133.8,403.7z"/>
		<path class="st6" d="M153.9,407.4c0,2-0.5,3.6-1.6,4.8s-2.6,1.7-4.5,1.7c-1.2,0-2.3-0.3-3.2-0.8c-0.9-0.5-1.6-1.3-2.1-2.3
			s-0.7-2.1-0.7-3.5c0-2.1,0.5-3.6,1.6-4.8c1.1-1.1,2.6-1.7,4.5-1.7c1.2,0,2.3,0.3,3.2,0.8c0.9,0.5,1.6,1.3,2.1,2.3
			S153.9,406.1,153.9,407.4z M145.2,407.4c0,1.2,0.2,2.2,0.6,2.8c0.4,0.6,1.1,1,2,1c0.9,0,1.6-0.3,2-0.9s0.6-1.6,0.6-2.8
			c0-1.2-0.2-2.2-0.6-2.8s-1.1-0.9-2-0.9c-0.9,0-1.6,0.3-2,0.9C145.4,405.2,145.2,406.2,145.2,407.4z"/>
		<path class="st6" d="M168.2,407.4c0,2-0.5,3.6-1.6,4.8s-2.6,1.7-4.5,1.7c-1.2,0-2.3-0.3-3.2-0.8c-0.9-0.5-1.6-1.3-2.1-2.3
			s-0.7-2.1-0.7-3.5c0-2.1,0.5-3.6,1.6-4.8c1.1-1.1,2.6-1.7,4.5-1.7c1.2,0,2.3,0.3,3.2,0.8c0.9,0.5,1.6,1.3,2.1,2.3
			S168.2,406.1,168.2,407.4z M159.5,407.4c0,1.2,0.2,2.2,0.6,2.8c0.4,0.6,1.1,1,2,1c0.9,0,1.6-0.3,2-0.9s0.6-1.6,0.6-2.8
			c0-1.2-0.2-2.2-0.6-2.8s-1.1-0.9-2-0.9c-0.9,0-1.6,0.3-2,0.9C159.7,405.2,159.5,406.2,159.5,407.4z"/>
		<path class="st6" d="M174.3,406.9l1.5-1.9l3.5-3.8h3.9l-5,5.4l5.3,7.1h-4l-3.6-5.1l-1.5,1.2v3.9H171v-17.5h3.4v7.8L174.3,406.9
			L174.3,406.9z"/>
		<path class="st6" d="M198.9,413.7h-3.5v-9.5l0-1.6l0.1-1.7c-0.6,0.6-1,1-1.2,1.1l-1.9,1.5l-1.7-2.1l5.3-4.2h2.9V413.7z"/>
		<path class="st6" d="M205.1,413.7l6.2-13.5h-8.1v-2.9H215v2.2l-6.2,14.2H205.1z"/>
		<path class="st6" d="M224.2,402.2c0,1.7-0.3,3-1,3.9c-0.7,0.9-1.6,1.3-2.9,1.3c-1.2,0-2.2-0.4-2.9-1.3c-0.7-0.9-1-2.2-1-3.8
			c0-3.4,1.3-5.1,3.9-5.1c1.3,0,2.2,0.4,2.9,1.3C223.9,399.3,224.2,400.5,224.2,402.2z M219.3,402.2c0,1,0.1,1.7,0.3,2.1
			s0.4,0.7,0.8,0.7c0.7,0,1.1-0.9,1.1-2.8c0-1.9-0.4-2.8-1.1-2.8c-0.4,0-0.6,0.2-0.8,0.7C219.3,400.5,219.3,401.3,219.3,402.2z
			 M232,397.3l-9.1,16.4h-2.7l9.1-16.4H232z M235.7,408.7c0,1.7-0.3,3-1,3.9c-0.7,0.9-1.6,1.3-2.9,1.3c-1.2,0-2.2-0.4-2.9-1.3
			c-0.7-0.9-1-2.2-1-3.8c0-3.4,1.3-5.1,3.9-5.1c1.3,0,2.2,0.4,2.9,1.3C235.4,405.8,235.7,407.1,235.7,408.7z M230.8,408.8
			c0,1,0.1,1.7,0.3,2.1s0.4,0.7,0.8,0.7c0.7,0,1.1-0.9,1.1-2.8c0-1.9-0.4-2.8-1.1-2.8c-0.4,0-0.6,0.2-0.8,0.7
			C230.8,407.1,230.8,407.8,230.8,408.8z"/>
	</g>
</g>
<g>
	<g>
		<path class="st6" d="M81.5,508.3h5.1c2.3,0,4,0.3,5.1,1c1.1,0.7,1.6,1.7,1.6,3.2c0,1-0.2,1.8-0.7,2.4s-1.1,1-1.8,1.1v0.1
			c1,0.2,1.8,0.7,2.3,1.3s0.7,1.5,0.7,2.5c0,1.5-0.5,2.7-1.6,3.5s-2.6,1.3-4.4,1.3h-6.1V508.3z M85,514.8h2c0.9,0,1.6-0.1,2-0.4
			c0.4-0.3,0.6-0.8,0.6-1.4c0-0.6-0.2-1.1-0.7-1.4s-1.2-0.4-2.2-0.4H85V514.8z M85,517.5v4.3h2.3c1,0,1.7-0.2,2.1-0.6
			c0.5-0.4,0.7-0.9,0.7-1.7c0-1.4-1-2-2.9-2H85z"/>
		<path class="st6" d="M100.1,524.7h-3.4v-17.5h3.4V524.7z"/>
		<path class="st6" d="M115.1,518.4c0,2-0.5,3.6-1.6,4.8s-2.6,1.7-4.5,1.7c-1.2,0-2.3-0.3-3.2-0.8c-0.9-0.5-1.6-1.3-2.1-2.3
			s-0.7-2.1-0.7-3.5c0-2.1,0.5-3.6,1.6-4.8c1.1-1.1,2.6-1.7,4.5-1.7c1.2,0,2.3,0.3,3.2,0.8c0.9,0.5,1.6,1.3,2.1,2.3
			S115.1,517.1,115.1,518.4z M106.5,518.4c0,1.2,0.2,2.2,0.6,2.8c0.4,0.6,1.1,1,2,1c0.9,0,1.6-0.3,2-0.9s0.6-1.6,0.6-2.8
			c0-1.2-0.2-2.2-0.6-2.8s-1.1-0.9-2-0.9c-0.9,0-1.6,0.3-2,0.9C106.7,516.2,106.5,517.1,106.5,518.4z"/>
		<path class="st6" d="M128.9,524.7c0,1.8-0.5,3.2-1.6,4.1c-1.1,0.9-2.6,1.4-4.7,1.4c-1.8,0-3.4-0.2-4.7-0.7v-2.7
			c1.5,0.6,3.2,1,4.9,1c1.8,0,2.6-1,2.6-2.9v-0.2l0.1-1.5h-0.1c-0.8,1.2-2,1.9-3.6,1.9c-1.5,0-2.7-0.6-3.5-1.7
			c-0.8-1.2-1.2-2.7-1.2-4.7c0-2.1,0.4-3.7,1.3-4.8s2-1.7,3.5-1.7c1.5,0,2.8,0.6,3.6,1.8h0.1l0.3-1.6h2.9V524.7z M123.2,522.2
			c0.9,0,1.6-0.3,2-0.8c0.4-0.5,0.6-1.4,0.6-2.6v-0.4c0-1.3-0.2-2.3-0.6-2.9s-1.1-0.9-2-0.9c-1.6,0-2.4,1.3-2.4,3.8
			c0,1.3,0.2,2.2,0.6,2.8S122.3,522.2,123.2,522.2z"/>
		<path class="st6" d="M147.3,520.9c0,1.3-0.4,2.3-1.3,2.9s-2.2,1-4,1c-0.9,0-1.7-0.1-2.3-0.2c-0.6-0.1-1.2-0.3-1.8-0.5v-2.8
			c0.6,0.3,1.4,0.6,2.2,0.8s1.5,0.3,2.1,0.3c1.2,0,1.9-0.4,1.9-1.1c0-0.3-0.1-0.5-0.2-0.7c-0.2-0.2-0.4-0.4-0.9-0.6
			c-0.4-0.2-0.9-0.5-1.6-0.7c-1-0.4-1.7-0.8-2.1-1.1c-0.5-0.3-0.8-0.7-1-1.2c-0.2-0.4-0.3-1-0.3-1.6c0-1.1,0.4-2,1.3-2.6
			s2.1-0.9,3.7-0.9c1.5,0,3,0.3,4.4,1l-1,2.5c-0.6-0.3-1.2-0.5-1.8-0.7c-0.5-0.2-1.1-0.3-1.7-0.3c-1,0-1.5,0.3-1.5,0.8
			c0,0.3,0.2,0.6,0.5,0.8s1,0.6,2.1,1c1,0.4,1.7,0.8,2.2,1.1c0.5,0.3,0.8,0.7,1,1.2C147.2,519.8,147.3,520.3,147.3,520.9z"/>
		<path class="st6" d="M161.5,524.7h-3.4v-7.3c0-1.8-0.7-2.7-2-2.7c-1,0-1.7,0.3-2.1,1s-0.6,1.7-0.6,3.2v5.9h-3.4v-17.5h3.4v3.6
			c0,0.3,0,0.9-0.1,2l-0.1,1h0.2c0.8-1.2,2-1.8,3.6-1.8c1.5,0,2.6,0.4,3.4,1.2c0.8,0.8,1.1,1.9,1.1,3.4V524.7z"/>
		<path class="st6" d="M176.5,518.4c0,2-0.5,3.6-1.6,4.8s-2.6,1.7-4.5,1.7c-1.2,0-2.3-0.3-3.2-0.8c-0.9-0.5-1.6-1.3-2.1-2.3
			s-0.7-2.1-0.7-3.5c0-2.1,0.5-3.6,1.6-4.8c1.1-1.1,2.6-1.7,4.5-1.7c1.2,0,2.3,0.3,3.2,0.8c0.9,0.5,1.6,1.3,2.1,2.3
			S176.5,517.1,176.5,518.4z M167.8,518.4c0,1.2,0.2,2.2,0.6,2.8c0.4,0.6,1.1,1,2,1c0.9,0,1.6-0.3,2-0.9s0.6-1.6,0.6-2.8
			c0-1.2-0.2-2.2-0.6-2.8s-1.1-0.9-2-0.9c-0.9,0-1.6,0.3-2,0.9C168,516.2,167.8,517.1,167.8,518.4z"/>
		<path class="st6" d="M186.2,524.9c-1.5,0-2.6-0.5-3.5-1.6h-0.2c0.1,1,0.2,1.7,0.2,1.8v5.1h-3.4v-18.1h2.8l0.5,1.6h0.2
			c0.8-1.2,2-1.9,3.6-1.9c1.5,0,2.6,0.6,3.5,1.7c0.8,1.1,1.3,2.7,1.3,4.8c0,1.3-0.2,2.5-0.6,3.5s-1,1.7-1.7,2.3
			C188,524.6,187.2,524.9,186.2,524.9z M185.2,514.6c-0.8,0-1.5,0.3-1.9,0.8c-0.4,0.5-0.6,1.4-0.6,2.6v0.4c0,1.3,0.2,2.3,0.6,2.9
			s1,0.9,1.9,0.9c1.5,0,2.3-1.3,2.3-3.8c0-1.2-0.2-2.2-0.6-2.8C186.6,514.9,186,514.6,185.2,514.6z"/>
		<path class="st6" d="M198.8,517.7c0-3.2,0.7-5.7,2.1-7.3c1.4-1.6,3.4-2.4,6.2-2.4c0.9,0,1.7,0.1,2.2,0.2v2.8
			c-0.7-0.1-1.3-0.2-2-0.2c-1.2,0-2.2,0.2-2.9,0.5s-1.3,0.9-1.7,1.6c-0.4,0.7-0.6,1.7-0.7,3h0.1c0.7-1.3,1.9-1.9,3.6-1.9
			c1.5,0,2.6,0.5,3.4,1.4c0.8,0.9,1.2,2.2,1.2,3.8c0,1.8-0.5,3.1-1.5,4.2c-1,1-2.4,1.5-4.1,1.5c-1.2,0-2.3-0.3-3.2-0.8
			c-0.9-0.6-1.6-1.4-2.1-2.5C199.1,520.5,198.8,519.2,198.8,517.7z M204.8,522.1c0.7,0,1.3-0.2,1.7-0.7c0.4-0.5,0.6-1.2,0.6-2.1
			c0-0.8-0.2-1.4-0.6-1.9c-0.4-0.5-0.9-0.7-1.7-0.7c-0.7,0-1.3,0.2-1.8,0.7c-0.5,0.5-0.7,1-0.7,1.6c0,0.9,0.2,1.6,0.7,2.3
			C203.5,521.8,204,522.1,204.8,522.1z"/>
		<path class="st6" d="M219.7,513.1c0,1.7-0.3,3-1,3.9c-0.7,0.9-1.6,1.3-2.9,1.3c-1.2,0-2.2-0.4-2.9-1.3c-0.7-0.9-1-2.2-1-3.8
			c0-3.4,1.3-5.1,3.9-5.1c1.3,0,2.2,0.4,2.9,1.3C219.3,510.2,219.7,511.5,219.7,513.1z M214.7,513.2c0,1,0.1,1.7,0.3,2.1
			s0.4,0.7,0.8,0.7c0.7,0,1.1-0.9,1.1-2.8c0-1.9-0.4-2.8-1.1-2.8c-0.4,0-0.6,0.2-0.8,0.7C214.8,511.5,214.7,512.2,214.7,513.2z
			 M227.4,508.3l-9.1,16.4h-2.7l9.1-16.4H227.4z M231.2,519.7c0,1.7-0.3,3-1,3.9c-0.7,0.9-1.6,1.3-2.9,1.3c-1.2,0-2.2-0.4-2.9-1.3
			c-0.7-0.9-1-2.2-1-3.8c0-3.4,1.3-5.1,3.9-5.1c1.3,0,2.2,0.4,2.9,1.3C230.8,516.8,231.2,518.1,231.2,519.7z M226.2,519.7
			c0,1,0.1,1.7,0.3,2.1s0.4,0.7,0.8,0.7c0.7,0,1.1-0.9,1.1-2.8c0-1.9-0.4-2.8-1.1-2.8c-0.4,0-0.6,0.2-0.8,0.7
			C226.3,518.1,226.2,518.8,226.2,519.7z"/>
	</g>
</g>
<g>
	<g>
		<path class="st6" d="M43.9,298.7l-4-12.9h-0.1c0.1,2.6,0.2,4.4,0.2,5.2v7.6H37v-16.4h4.7l3.9,12.6h0.1l4.1-12.6h4.7v16.4h-3.2
			v-7.8c0-0.4,0-0.8,0-1.3c0-0.5,0.1-1.8,0.2-3.8h-0.1l-4.2,12.9H43.9z"/>
		<path class="st6" d="M66.3,298.7l-0.7-1.7h-0.1c-0.6,0.7-1.2,1.2-1.8,1.5c-0.6,0.3-1.4,0.4-2.4,0.4c-1.2,0-2.2-0.3-2.8-1
			s-1-1.7-1-2.9c0-1.3,0.5-2.3,1.4-2.9s2.3-1,4.2-1l2.2-0.1v-0.6c0-1.3-0.7-1.9-2-1.9c-1,0-2.2,0.3-3.5,0.9l-1.1-2.3
			c1.4-0.8,3-1.1,4.8-1.1c1.7,0,3,0.4,3.9,1.1c0.9,0.7,1.3,1.8,1.3,3.3v8.4H66.3z M65.3,292.8l-1.3,0c-1,0-1.7,0.2-2.2,0.5
			c-0.5,0.3-0.7,0.8-0.7,1.5c0,1,0.6,1.4,1.7,1.4c0.8,0,1.4-0.2,1.9-0.7s0.7-1.1,0.7-1.8V292.8z M61.3,301.8c0-1.1,0.6-1.7,1.9-1.7
			c1.2,0,1.9,0.6,1.9,1.7c0,0.5-0.2,0.9-0.5,1.2c-0.3,0.3-0.8,0.4-1.4,0.4C61.9,303.5,61.3,302.9,61.3,301.8z"/>
		<path class="st6" d="M83.9,298.7h-3.4v-7.3c0-0.9-0.2-1.6-0.5-2c-0.3-0.5-0.8-0.7-1.5-0.7c-1,0-1.7,0.3-2.1,1
			c-0.4,0.6-0.6,1.7-0.6,3.2v5.9h-3.4v-12.6h2.6l0.5,1.6h0.2c0.4-0.6,0.9-1.1,1.6-1.4s1.4-0.5,2.3-0.5c1.5,0,2.6,0.4,3.3,1.2
			c0.8,0.8,1.1,1.9,1.1,3.4V298.7z"/>
		<path class="st6" d="M98.4,298.7c0,1.8-0.5,3.2-1.6,4.1c-1.1,0.9-2.6,1.4-4.7,1.4c-1.8,0-3.4-0.2-4.7-0.7v-2.7
			c1.5,0.6,3.2,1,4.9,1c1.8,0,2.6-1,2.6-2.9v-0.2L95,297h-0.1c-0.8,1.2-2,1.9-3.6,1.9c-1.5,0-2.7-0.6-3.5-1.7
			c-0.8-1.2-1.2-2.7-1.2-4.7c0-2.1,0.4-3.7,1.3-4.8c0.9-1.1,2-1.7,3.5-1.7c1.5,0,2.8,0.6,3.6,1.8h0.1l0.3-1.6h2.9V298.7z
			 M92.6,296.2c0.9,0,1.6-0.3,2-0.8c0.4-0.5,0.6-1.4,0.6-2.6v-0.4c0-1.3-0.2-2.3-0.6-2.9s-1.1-0.9-2-0.9c-1.6,0-2.4,1.3-2.4,3.8
			c0,1.3,0.2,2.2,0.6,2.8C91.1,295.9,91.7,296.2,92.6,296.2z"/>
		<path class="st6" d="M119.2,298.7h-3.4v-7.3c0-0.9-0.2-1.6-0.5-2s-0.8-0.7-1.4-0.7c-0.9,0-1.5,0.3-1.9,1c-0.4,0.6-0.6,1.7-0.6,3.2
			v5.9h-3.4v-12.6h2.6l0.5,1.6h0.2c0.3-0.6,0.8-1,1.5-1.4c0.6-0.3,1.4-0.5,2.2-0.5c1.9,0,3.2,0.6,3.8,1.8h0.3c0.3-0.6,0.8-1,1.5-1.4
			s1.4-0.5,2.2-0.5c1.4,0,2.5,0.4,3.2,1.1c0.7,0.7,1.1,1.9,1.1,3.5v8.2h-3.4v-7.3c0-0.9-0.2-1.6-0.5-2s-0.8-0.7-1.4-0.7
			c-0.8,0-1.5,0.3-1.9,0.9c-0.4,0.6-0.6,1.5-0.6,2.9V298.7z"/>
		<path class="st6" d="M139.4,298.7l-0.5-1.6h-0.2c-0.4,0.6-0.9,1-1.6,1.4s-1.4,0.5-2.3,0.5c-1.5,0-2.6-0.4-3.3-1.2
			c-0.7-0.8-1.1-1.9-1.1-3.4v-8.2h3.4v7.3c0,0.9,0.2,1.6,0.5,2c0.3,0.5,0.8,0.7,1.5,0.7c1,0,1.7-0.3,2.1-1c0.4-0.6,0.6-1.7,0.6-3.2
			v-5.9h3.4v12.6H139.4z"/>
		<path class="st6" d="M153.6,298.7l-0.7-1.7h-0.1c-0.6,0.7-1.2,1.2-1.8,1.5c-0.6,0.3-1.4,0.4-2.4,0.4c-1.2,0-2.2-0.3-2.8-1
			s-1-1.7-1-2.9c0-1.3,0.5-2.3,1.4-2.9s2.3-1,4.2-1l2.2-0.1v-0.6c0-1.3-0.7-1.9-2-1.9c-1,0-2.2,0.3-3.5,0.9L146,287
			c1.4-0.8,3-1.1,4.8-1.1c1.7,0,3,0.4,3.9,1.1c0.9,0.7,1.3,1.8,1.3,3.3v8.4H153.6z M152.6,292.8l-1.3,0c-1,0-1.7,0.2-2.2,0.5
			c-0.5,0.3-0.7,0.8-0.7,1.5c0,1,0.6,1.4,1.7,1.4c0.8,0,1.4-0.2,1.9-0.7s0.7-1.1,0.7-1.8V292.8z"/>
		<path class="st6" d="M174.2,294.9c0,1.3-0.4,2.3-1.3,2.9c-0.9,0.7-2.2,1-4,1c-0.9,0-1.7-0.1-2.3-0.2c-0.6-0.1-1.2-0.3-1.8-0.5
			v-2.8c0.6,0.3,1.4,0.6,2.2,0.8s1.5,0.3,2.1,0.3c1.2,0,1.9-0.4,1.9-1.1c0-0.3-0.1-0.5-0.2-0.7c-0.2-0.2-0.4-0.4-0.9-0.6
			c-0.4-0.2-0.9-0.5-1.6-0.7c-1-0.4-1.7-0.8-2.1-1.1c-0.5-0.3-0.8-0.7-1-1.2s-0.3-1-0.3-1.6c0-1.1,0.4-2,1.3-2.6s2.1-0.9,3.7-0.9
			c1.5,0,3,0.3,4.4,1l-1,2.5c-0.6-0.3-1.2-0.5-1.8-0.7c-0.5-0.2-1.1-0.3-1.7-0.3c-1,0-1.5,0.3-1.5,0.8c0,0.3,0.2,0.6,0.5,0.8
			s1,0.6,2.1,1c1,0.4,1.7,0.8,2.2,1.1c0.5,0.3,0.8,0.7,1,1.2C174.1,293.8,174.2,294.3,174.2,294.9z"/>
		<path class="st6" d="M184.9,298.7l-0.7-1.7h-0.1c-0.6,0.7-1.2,1.2-1.8,1.5c-0.6,0.3-1.4,0.4-2.4,0.4c-1.2,0-2.2-0.3-2.8-1
			c-0.7-0.7-1-1.7-1-2.9c0-1.3,0.5-2.3,1.4-2.9s2.3-1,4.2-1l2.2-0.1v-0.6c0-1.3-0.7-1.9-2-1.9c-1,0-2.2,0.3-3.5,0.9l-1.1-2.3
			c1.4-0.8,3-1.1,4.8-1.1c1.7,0,3,0.4,3.9,1.1c0.9,0.7,1.3,1.8,1.3,3.3v8.4H184.9z M186.1,280.9c-0.1,1.2-0.5,2.1-1.2,2.8
			s-1.7,1-2.9,1c-1.2,0-2.2-0.3-2.9-1c-0.7-0.6-1.1-1.6-1.1-2.8h1.7c0.1,0.7,0.3,1.1,0.7,1.4s1,0.5,1.6,0.5c0.7,0,1.2-0.2,1.6-0.5
			s0.7-0.8,0.7-1.4H186.1z M183.9,292.8l-1.3,0c-1,0-1.7,0.2-2.2,0.5c-0.5,0.3-0.7,0.8-0.7,1.5c0,1,0.6,1.4,1.7,1.4
			c0.8,0,1.4-0.2,1.9-0.7c0.5-0.5,0.7-1.1,0.7-1.8V292.8z M180.9,281.5c0.5-0.8,1-1.5,1.3-2.3h2.5v0.2c-0.7,0.8-1.5,1.6-2.3,2.3
			h-1.5V281.5z"/>
		<path class="st6" d="M202,298.7h-3.4v-7.3c0-0.9-0.2-1.6-0.5-2s-0.8-0.7-1.4-0.7c-0.9,0-1.5,0.3-1.9,1c-0.4,0.6-0.6,1.7-0.6,3.2
			v5.9h-3.4v-12.6h2.6l0.5,1.6h0.2c0.3-0.6,0.8-1,1.5-1.4c0.6-0.3,1.4-0.5,2.2-0.5c1.9,0,3.2,0.6,3.8,1.8h0.3c0.3-0.6,0.8-1,1.5-1.4
			c0.7-0.3,1.4-0.5,2.2-0.5c1.4,0,2.5,0.4,3.2,1.1c0.7,0.7,1.1,1.9,1.1,3.5v8.2h-3.4v-7.3c0-0.9-0.2-1.6-0.5-2s-0.8-0.7-1.4-0.7
			c-0.8,0-1.5,0.3-1.9,0.9c-0.4,0.6-0.6,1.5-0.6,2.9V298.7z"/>
		<path class="st6" d="M42,323.8c0.6,0,1.3-0.1,2.2-0.4v2.5c-0.9,0.4-1.9,0.6-3.1,0.6c-1.4,0-2.4-0.3-3-1c-0.6-0.7-0.9-1.7-0.9-3.1
			v-6.1h-1.6v-1.4l1.9-1.1l1-2.7h2.2v2.7H44v2.6h-3.5v6.1c0,0.5,0.1,0.8,0.4,1.1C41.2,323.6,41.5,323.8,42,323.8z"/>
		<path class="st6" d="M58.1,320c0,2-0.5,3.6-1.6,4.8s-2.6,1.7-4.5,1.7c-1.2,0-2.3-0.3-3.2-0.8c-0.9-0.5-1.6-1.3-2.1-2.3
			s-0.7-2.1-0.7-3.5c0-2.1,0.5-3.6,1.6-4.8c1.1-1.1,2.6-1.7,4.5-1.7c1.2,0,2.3,0.3,3.2,0.8c0.9,0.5,1.6,1.3,2.1,2.3
			S58.1,318.6,58.1,320z M56.1,312.3h-1.8c-0.8-0.6-1.6-1.2-2.4-1.9c-0.9,0.8-1.6,1.4-2.4,1.9h-1.8V312c0.8-1,1.6-2,2.4-3.1h3.5
			c0.4,0.6,0.8,1.2,1.4,1.8c0.5,0.6,0.9,1.1,1.1,1.3V312.3z M49.4,320c0,1.2,0.2,2.2,0.6,2.8c0.4,0.6,1.1,1,2,1c0.9,0,1.6-0.3,2-0.9
			s0.6-1.6,0.6-2.8c0-1.2-0.2-2.2-0.6-2.8s-1.1-0.9-2-0.9c-0.9,0-1.6,0.3-2,0.9C49.6,317.8,49.4,318.7,49.4,320z M58.4,307.9
			c0,0.9-0.5,1.4-1.4,1.6l-0.1,0.7h-1.4l-0.1-1.3c0.4,0,0.7-0.1,1-0.2s0.4-0.3,0.4-0.5c0-0.2-0.1-0.3-0.2-0.4s-0.4-0.2-0.7-0.2
			c-0.3,0-0.5,0-0.8,0.1v-1.4c0.2,0,0.5-0.1,1-0.1c0.7,0,1.3,0.1,1.7,0.4C58.1,306.9,58.4,307.3,58.4,307.9z"/>
		<path class="st6" d="M72.5,326.3h-3.4v-7.3c0-0.9-0.2-1.6-0.5-2c-0.3-0.5-0.8-0.7-1.5-0.7c-1,0-1.7,0.3-2.1,1
			c-0.4,0.6-0.6,1.7-0.6,3.2v5.9h-3.4v-12.6h2.6l0.5,1.6h0.2c0.4-0.6,0.9-1.1,1.6-1.4c0.7-0.3,1.4-0.5,2.3-0.5
			c1.5,0,2.6,0.4,3.3,1.2c0.8,0.8,1.1,1.9,1.1,3.4V326.3z"/>
		<path class="st6" d="M87,326.3c0,1.8-0.5,3.2-1.6,4.1c-1.1,0.9-2.6,1.4-4.7,1.4c-1.8,0-3.4-0.2-4.7-0.7v-2.7c1.5,0.6,3.2,1,4.9,1
			c1.8,0,2.6-1,2.6-2.9v-0.2l0.1-1.5h-0.1c-0.8,1.2-2,1.9-3.6,1.9c-1.5,0-2.7-0.6-3.5-1.7c-0.8-1.2-1.2-2.7-1.2-4.7
			c0-2.1,0.4-3.7,1.3-4.8s2-1.7,3.5-1.7c1.5,0,2.8,0.6,3.6,1.8h0.1l0.3-1.6H87V326.3z M81.2,323.8c0.9,0,1.6-0.3,2-0.8
			c0.4-0.5,0.6-1.4,0.6-2.6V320c0-1.3-0.2-2.3-0.6-2.9s-1.1-0.9-2-0.9c-1.6,0-2.4,1.3-2.4,3.8c0,1.3,0.2,2.2,0.6,2.8
			S80.4,323.8,81.2,323.8z"/>
		<path class="st6" d="M108.1,326.3h-3.4v-7.3c0-1.8-0.7-2.7-2-2.7c-1,0-1.7,0.3-2.1,1s-0.6,1.7-0.6,3.2v5.9h-3.4v-17.5h3.4v3.6
			c0,0.3,0,0.9-0.1,2l-0.1,1h0.2c0.8-1.2,2-1.8,3.6-1.8c1.5,0,2.6,0.4,3.4,1.2c0.8,0.8,1.1,1.9,1.1,3.4V326.3z"/>
		<path class="st6" d="M123.1,320c0,2-0.5,3.6-1.6,4.8s-2.6,1.7-4.5,1.7c-1.2,0-2.3-0.3-3.2-0.8c-0.9-0.5-1.6-1.3-2.1-2.3
			s-0.7-2.1-0.7-3.5c0-2.1,0.5-3.6,1.6-4.8c1.1-1.1,2.6-1.7,4.5-1.7c0.8,0,1.6,0.1,2.4,0.4c0.7,0.3,1.4,0.6,1.9,1.2
			c1.1-0.3,1.7-1.4,1.7-3.2h3.4l0.2,0.2c-0.2,1-0.5,1.8-0.8,2.4s-0.8,1.1-1.3,1.5c-0.5,0.4-1.2,0.7-2,0.9
			C122.9,317.8,123.1,318.8,123.1,320z M114.4,320c0,1.2,0.2,2.2,0.6,2.8c0.4,0.6,1.1,1,2,1c0.9,0,1.6-0.3,2-0.9s0.6-1.6,0.6-2.8
			c0-1.2-0.2-2.2-0.6-2.8s-1.1-0.9-2-0.9c-0.9,0-1.6,0.3-2,0.9C114.6,317.8,114.4,318.7,114.4,320z M115.2,329.4
			c0-1.1,0.6-1.7,1.9-1.7c1.2,0,1.9,0.6,1.9,1.7c0,0.5-0.2,0.9-0.5,1.2c-0.3,0.3-0.8,0.4-1.4,0.4
			C115.8,331.1,115.2,330.5,115.2,329.4z"/>
		<path class="st6" d="M134.2,326.5c-1.5,0-2.6-0.5-3.5-1.6h-0.2c0.1,1,0.2,1.7,0.2,1.8v5.1h-3.4v-18.1h2.8l0.5,1.6h0.2
			c0.8-1.2,2-1.9,3.6-1.9c1.5,0,2.6,0.6,3.5,1.7c0.8,1.1,1.3,2.7,1.3,4.8c0,1.3-0.2,2.5-0.6,3.5s-1,1.7-1.7,2.3
			C136,326.2,135.2,326.5,134.2,326.5z M133.2,316.2c-0.8,0-1.5,0.3-1.9,0.8c-0.4,0.5-0.6,1.4-0.6,2.6v0.4c0,1.3,0.2,2.3,0.6,2.9
			c0.4,0.6,1,0.9,1.9,0.9c1.5,0,2.3-1.3,2.3-3.8c0-1.2-0.2-2.2-0.6-2.8C134.6,316.5,134,316.2,133.2,316.2z"/>
		<path class="st6" d="M153.1,323.8c0.6,0,1.3-0.1,2.2-0.4v2.5c-0.9,0.4-1.9,0.6-3.1,0.6c-1.4,0-2.4-0.3-3-1
			c-0.6-0.7-0.9-1.7-0.9-3.1v-6.1h-1.6v-1.4l1.9-1.1l1-2.7h2.2v2.7h3.5v2.6h-3.5v6.1c0,0.5,0.1,0.8,0.4,1.1
			C152.3,323.6,152.7,323.8,153.1,323.8z"/>
		<path class="st6" d="M164.8,313.5c0.5,0,0.8,0,1.2,0.1l-0.3,3.2c-0.3-0.1-0.6-0.1-1-0.1c-1.1,0-1.9,0.3-2.6,0.8
			c-0.6,0.6-0.9,1.3-0.9,2.4v6.4h-3.4v-12.6h2.6l0.5,2.1h0.2c0.4-0.7,0.9-1.3,1.6-1.7S164,313.5,164.8,313.5z"/>
		<path class="st6" d="M177.1,326.3l-0.5-1.6h-0.2c-0.4,0.6-0.9,1-1.5,1.3c-0.7,0.3-1.4,0.5-2.3,0.5c-1.5,0-2.6-0.4-3.3-1.2
			c-0.7-0.8-1.1-1.9-1.1-3.4v-8.2h3.4v7.3c0,0.9,0.2,1.6,0.5,2c0.3,0.5,0.8,0.7,1.5,0.7c1,0,1.7-0.3,2.1-1c0.4-0.6,0.6-1.7,0.6-3.2
			v-5.9h3.4v1.3c0.5-0.2,0.9-0.5,1.2-1.1c0.3-0.5,0.4-1.3,0.4-2.1h3.4l0.2,0.2c-0.2,1.2-0.6,2.1-1,2.7s-0.9,1.1-1.6,1.5
			c-0.7,0.4-1.6,0.7-2.6,0.8v9.2H177.1z M172,329.4c0-1.1,0.6-1.7,1.9-1.7c1.2,0,1.9,0.6,1.9,1.7c0,0.5-0.2,0.9-0.5,1.2
			c-0.3,0.3-0.8,0.4-1.4,0.4C172.7,331.1,172,330.5,172,329.4z"/>
		<path class="st6" d="M190.8,326.5c-3.9,0-5.9-2.1-5.9-6.4c0-2.1,0.5-3.8,1.6-4.9c1.1-1.1,2.6-1.7,4.6-1.7c1.5,0,2.8,0.3,3.9,0.9
			l-1,2.7c-0.5-0.2-1-0.4-1.5-0.5c-0.5-0.1-0.9-0.2-1.4-0.2c-1.8,0-2.7,1.3-2.7,3.8c0,2.5,0.9,3.7,2.7,3.7c0.7,0,1.3-0.1,1.8-0.3
			s1.1-0.5,1.7-0.8v2.9c-0.6,0.4-1.1,0.6-1.7,0.7S191.7,326.5,190.8,326.5z"/>
		<path class="st6" d="M42,351.4c0.6,0,1.3-0.1,2.2-0.4v2.5c-0.9,0.4-1.9,0.6-3.1,0.6c-1.4,0-2.4-0.3-3-1c-0.6-0.7-0.9-1.7-0.9-3.1
			v-6.1h-1.6v-1.4l1.9-1.1l1-2.7h2.2v2.7H44v2.6h-3.5v6.1c0,0.5,0.1,0.8,0.4,1.1C41.2,351.2,41.5,351.4,42,351.4z"/>
		<path class="st6" d="M55.6,353.9l-0.5-1.6h-0.2c-0.4,0.6-0.9,1-1.6,1.4s-1.4,0.5-2.3,0.5c-1.5,0-2.6-0.4-3.3-1.2
			c-0.7-0.8-1.1-1.9-1.1-3.4v-8.2H50v7.3c0,0.9,0.2,1.6,0.5,2c0.3,0.5,0.8,0.7,1.5,0.7c1,0,1.7-0.3,2.1-1c0.4-0.6,0.6-1.7,0.6-3.2
			v-5.9h3.4v12.6H55.6z"/>
		<path class="st6" d="M60,341.3h3.8l2.4,7.1c0.2,0.6,0.3,1.3,0.4,2.2h0.1c0.1-0.8,0.2-1.5,0.5-2.2l2.3-7.1h3.7l-5.3,14.2
			c-0.5,1.3-1.2,2.3-2.1,2.9c-0.9,0.7-2,1-3.2,1c-0.6,0-1.2-0.1-1.7-0.2v-2.7c0.4,0.1,0.9,0.1,1.3,0.1c0.6,0,1.1-0.2,1.6-0.6
			c0.5-0.4,0.8-0.9,1.1-1.7l0.2-0.6L60,341.3z"/>
		<path class="st6" d="M80.6,354.1c-2,0-3.6-0.6-4.7-1.7c-1.1-1.1-1.7-2.7-1.7-4.7c0-2.1,0.5-3.7,1.6-4.9c1.1-1.1,2.5-1.7,4.4-1.7
			c1.8,0,3.2,0.5,4.1,1.5s1.5,2.4,1.5,4.2v1.7h-8.1c0,1,0.3,1.7,0.9,2.3s1.3,0.8,2.3,0.8c0.8,0,1.5-0.1,2.1-0.2s1.4-0.4,2.1-0.8v2.7
			c-0.6,0.3-1.2,0.5-1.9,0.7C82.4,354,81.5,354.1,80.6,354.1z M84.2,339.9h-1.8c-0.8-0.6-1.6-1.2-2.4-1.9c-0.9,0.8-1.6,1.4-2.4,1.9
			h-1.8v-0.3c0.8-1,1.6-2,2.4-3.1h3.5c0.4,0.6,0.8,1.2,1.4,1.8c0.5,0.6,0.9,1.1,1.1,1.3V339.9z M80.1,343.5c-0.7,0-1.3,0.2-1.7,0.7
			c-0.4,0.5-0.6,1.1-0.7,2h4.8c0-0.8-0.2-1.5-0.7-2C81.4,343.7,80.8,343.5,80.1,343.5z M83.2,337.4c0.6-0.7,1.2-1.4,1.5-2.3h2.7v0.2
			c-0.5,0.7-1.4,1.4-2.5,2.3h-1.7V337.4z"/>
		<path class="st6" d="M100.1,353.9h-3.4v-7.3c0-0.9-0.2-1.6-0.5-2c-0.3-0.5-0.8-0.7-1.5-0.7c-1,0-1.7,0.3-2.1,1
			c-0.4,0.6-0.6,1.7-0.6,3.2v5.9h-3.4v-12.6h2.6l0.5,1.6h0.2c0.4-0.6,0.9-1.1,1.6-1.4s1.4-0.5,2.3-0.5c1.5,0,2.6,0.4,3.3,1.2
			c0.8,0.8,1.1,1.9,1.1,3.4V353.9z"/>
	</g>
</g>
<g>
	<g>
		<path class="st6" d="M256.5,195.6c0,1-0.3,1.9-0.9,2.6s-1.5,1.2-2.6,1.5v0.1c1.3,0.2,2.3,0.6,3,1.2c0.7,0.6,1,1.5,1,2.6
			c0,1.6-0.6,2.8-1.7,3.7s-2.8,1.3-4.9,1.3c-1.8,0-3.4-0.3-4.7-0.9v-3c0.6,0.3,1.3,0.6,2.1,0.8s1.5,0.3,2.3,0.3c1.1,0,2-0.2,2.5-0.6
			c0.5-0.4,0.8-1,0.8-1.9c0-0.8-0.3-1.3-0.9-1.6s-1.6-0.5-3-0.5h-1.2v-2.7h1.3c1.3,0,2.2-0.2,2.8-0.5c0.6-0.3,0.9-0.9,0.9-1.7
			c0-1.2-0.8-1.9-2.3-1.9c-0.5,0-1.1,0.1-1.6,0.3c-0.6,0.2-1.2,0.5-1.9,0.9l-1.6-2.4c1.5-1.1,3.3-1.6,5.4-1.6c1.7,0,3,0.3,4,1
			C256,193.4,256.5,194.4,256.5,195.6z"/>
		<path class="st6" d="M270.3,198.9c0,3.2-0.7,5.6-2,7.2c-1.4,1.6-3.4,2.4-6.2,2.4c-1,0-1.7-0.1-2.2-0.2v-2.8c0.6,0.2,1.3,0.2,2,0.2
			c1.2,0,2.1-0.2,2.9-0.5s1.3-0.9,1.7-1.6c0.4-0.7,0.6-1.7,0.7-3h-0.1c-0.4,0.7-0.9,1.2-1.5,1.5s-1.3,0.4-2.1,0.4
			c-1.4,0-2.6-0.5-3.4-1.4s-1.2-2.2-1.2-3.8c0-1.8,0.5-3.2,1.5-4.2c1-1,2.4-1.5,4.1-1.5c1.2,0,2.3,0.3,3.2,0.9
			c0.9,0.6,1.6,1.4,2.1,2.5S270.3,197.4,270.3,198.9z M264.3,194.5c-0.7,0-1.3,0.2-1.7,0.7s-0.6,1.2-0.6,2.1c0,0.8,0.2,1.4,0.6,1.9
			c0.4,0.5,0.9,0.7,1.7,0.7c0.7,0,1.3-0.2,1.8-0.7c0.5-0.5,0.8-1,0.8-1.6c0-0.9-0.2-1.6-0.7-2.3C265.6,194.8,265,194.5,264.3,194.5z
			"/>
		<path class="st6" d="M279.6,196.8c0,1.7-0.3,3-1,3.9c-0.7,0.9-1.6,1.3-2.9,1.3c-1.2,0-2.2-0.4-2.9-1.3c-0.7-0.9-1-2.2-1-3.8
			c0-3.4,1.3-5.1,3.9-5.1c1.3,0,2.2,0.4,2.9,1.3C279.3,193.9,279.6,195.2,279.6,196.8z M274.6,196.8c0,1,0.1,1.7,0.3,2.1
			c0.2,0.5,0.4,0.7,0.8,0.7c0.7,0,1.1-0.9,1.1-2.8c0-1.9-0.4-2.8-1.1-2.8c-0.4,0-0.6,0.2-0.8,0.7
			C274.7,195.2,274.6,195.9,274.6,196.8z M287.3,191.9l-9.1,16.4h-2.7l9.1-16.4H287.3z M291.1,203.4c0,1.7-0.3,3-1,3.9
			c-0.7,0.9-1.6,1.3-2.9,1.3c-1.2,0-2.2-0.4-2.9-1.3c-0.7-0.9-1-2.2-1-3.8c0-3.4,1.3-5.1,3.9-5.1c1.3,0,2.2,0.4,2.9,1.3
			C290.8,200.5,291.1,201.7,291.1,203.4z M286.1,203.4c0,1,0.1,1.7,0.3,2.1c0.2,0.5,0.4,0.7,0.8,0.7c0.7,0,1.1-0.9,1.1-2.8
			c0-1.9-0.4-2.8-1.1-2.8c-0.4,0-0.6,0.2-0.8,0.7C286.2,201.7,286.1,202.4,286.1,203.4z"/>
	</g>
</g>
<g>
	<g>
		<path class="st6" d="M260.6,318.7h-11.5v-2.4l4.1-4.2c1.2-1.3,2-2.1,2.4-2.6c0.4-0.5,0.6-0.9,0.8-1.3c0.2-0.4,0.2-0.8,0.2-1.3
			c0-0.7-0.2-1.1-0.5-1.5c-0.4-0.3-0.8-0.5-1.5-0.5c-0.6,0-1.3,0.1-1.9,0.4s-1.2,0.7-1.9,1.2l-1.9-2.2c0.8-0.7,1.5-1.2,2-1.5
			s1.1-0.5,1.7-0.7s1.3-0.2,2.1-0.2c1,0,1.9,0.2,2.7,0.6c0.8,0.4,1.4,0.9,1.8,1.6s0.7,1.4,0.7,2.3c0,0.8-0.1,1.5-0.4,2.1
			c-0.3,0.7-0.7,1.3-1.2,2c-0.6,0.7-1.5,1.7-2.9,3l-2.1,2v0.2h7.2V318.7z"/>
		<path class="st6" d="M273.1,305.9c0,1-0.3,1.9-0.9,2.6s-1.5,1.2-2.6,1.5v0.1c1.3,0.2,2.3,0.6,3,1.2c0.7,0.6,1,1.5,1,2.6
			c0,1.6-0.6,2.8-1.7,3.7s-2.8,1.3-4.9,1.3c-1.8,0-3.4-0.3-4.7-0.9v-3c0.6,0.3,1.3,0.6,2.1,0.8s1.5,0.3,2.3,0.3c1.1,0,2-0.2,2.5-0.6
			c0.5-0.4,0.8-1,0.8-1.9c0-0.8-0.3-1.3-0.9-1.6s-1.6-0.5-3-0.5h-1.2v-2.7h1.3c1.3,0,2.2-0.2,2.8-0.5c0.6-0.3,0.9-0.9,0.9-1.7
			c0-1.2-0.8-1.9-2.3-1.9c-0.5,0-1.1,0.1-1.6,0.3c-0.6,0.2-1.2,0.5-1.9,0.9l-1.6-2.4c1.5-1.1,3.3-1.6,5.4-1.6c1.7,0,3,0.3,4,1
			C272.6,303.7,273.1,304.7,273.1,305.9z"/>
		<path class="st6" d="M283,307.1c0,1.7-0.3,3-1,3.9c-0.7,0.9-1.6,1.3-2.9,1.3c-1.2,0-2.2-0.4-2.9-1.3c-0.7-0.9-1-2.2-1-3.8
			c0-3.4,1.3-5.1,3.9-5.1c1.3,0,2.2,0.4,2.9,1.3C282.6,304.2,283,305.5,283,307.1z M278,307.2c0,1,0.1,1.7,0.3,2.1
			c0.2,0.5,0.4,0.7,0.8,0.7c0.7,0,1.1-0.9,1.1-2.8c0-1.9-0.4-2.8-1.1-2.8c-0.4,0-0.6,0.2-0.8,0.7C278.1,305.5,278,306.2,278,307.2z
			 M290.7,302.2l-9.1,16.4h-2.7l9.1-16.4H290.7z M294.5,313.7c0,1.7-0.3,3-1,3.9c-0.7,0.9-1.6,1.3-2.9,1.3c-1.2,0-2.2-0.4-2.9-1.3
			c-0.7-0.9-1-2.2-1-3.8c0-3.4,1.3-5.1,3.9-5.1c1.3,0,2.2,0.4,2.9,1.3C294.1,310.8,294.5,312.1,294.5,313.7z M289.5,313.7
			c0,1,0.1,1.7,0.3,2.1c0.2,0.5,0.4,0.7,0.8,0.7c0.7,0,1.1-0.9,1.1-2.8c0-1.9-0.4-2.8-1.1-2.8c-0.4,0-0.6,0.2-0.8,0.7
			C289.6,312.1,289.5,312.8,289.5,313.7z"/>
	</g>
</g>
<g>
	<path class="st6" d="M35.9,198.8h1.5v-6.9h5.2c2.7,0,4.8,0.7,6.2,2.1c1.5,1.4,2.2,3.4,2.2,5.9c0,2.7-0.8,4.8-2.3,6.2
		c-1.5,1.4-3.8,2.2-6.7,2.2h-4.6v-6.7h-1.5V198.8z M47.5,200.1c0-1.7-0.4-3.1-1.2-3.9s-2-1.3-3.5-1.3H41v4h2.7v2.9H41v3.8h1.5
		C45.8,205.5,47.5,203.7,47.5,200.1z"/>
	<path class="st6" d="M54.1,192.5c0-1.1,0.6-1.7,1.9-1.7s1.9,0.6,1.9,1.7c0,0.5-0.2,0.9-0.5,1.2c-0.3,0.3-0.8,0.4-1.4,0.4
		C54.7,194.2,54.1,193.7,54.1,192.5z M57.7,208.3h-3.4v-12.6h3.4V208.3z"/>
	<path class="st6" d="M66.9,208.6c-2,0-3.6-0.6-4.7-1.7c-1.1-1.1-1.7-2.7-1.7-4.7c0-2.1,0.5-3.7,1.6-4.9c1.1-1.1,2.5-1.7,4.4-1.7
		c1.8,0,3.2,0.5,4.1,1.5s1.5,2.4,1.5,4.2v1.7H64c0,1,0.3,1.7,0.9,2.3s1.3,0.8,2.3,0.8c0.8,0,1.5-0.1,2.1-0.2s1.4-0.4,2.1-0.8v2.7
		c-0.6,0.3-1.2,0.5-1.9,0.7C68.8,208.5,67.9,208.6,66.9,208.6z M70.6,194.4h-1.8c-0.8-0.6-1.6-1.2-2.4-1.9c-0.9,0.8-1.6,1.4-2.4,1.9
		h-1.8v-0.3c0.8-1,1.6-2,2.4-3.1h3.5c0.4,0.6,0.8,1.2,1.4,1.8c0.5,0.6,0.9,1.1,1.1,1.3V194.4z M66.5,198c-0.7,0-1.3,0.2-1.7,0.7
		c-0.4,0.5-0.6,1.1-0.7,2h4.8c0-0.8-0.2-1.5-0.7-2C67.8,198.2,67.2,198,66.5,198z M72.9,190c0,0.9-0.5,1.4-1.4,1.6l-0.1,0.7H70
		l-0.1-1.3c0.4,0,0.7-0.1,1-0.2s0.4-0.3,0.4-0.5c0-0.2-0.1-0.3-0.2-0.4c-0.1-0.1-0.4-0.2-0.7-0.2c-0.3,0-0.5,0-0.8,0.1v-1.4
		c0.2,0,0.5-0.1,1-0.1c0.7,0,1.3,0.1,1.7,0.4C72.7,189,72.9,189.4,72.9,190z"/>
	<path class="st6" d="M86.1,208.3h-3.4V201c0-0.9-0.2-1.6-0.5-2c-0.3-0.5-0.8-0.7-1.4-0.7c-0.9,0-1.5,0.3-1.9,1
		c-0.4,0.6-0.6,1.7-0.6,3.2v5.9h-3.4v-12.6h2.6l0.5,1.6h0.2c0.3-0.6,0.8-1,1.5-1.4c0.6-0.3,1.4-0.5,2.2-0.5c1.9,0,3.2,0.6,3.8,1.8
		h0.3c0.3-0.6,0.8-1,1.5-1.4c0.7-0.3,1.4-0.5,2.2-0.5c1.4,0,2.5,0.4,3.2,1.1c0.7,0.7,1.1,1.9,1.1,3.5v8.2h-3.4V201
		c0-0.9-0.2-1.6-0.5-2c-0.3-0.5-0.8-0.7-1.4-0.7c-0.8,0-1.5,0.3-1.9,0.9c-0.4,0.6-0.6,1.5-0.6,2.9V208.3z"/>
	<path class="st6" d="M110.4,195.5c1.5,0,2.6,0.6,3.5,1.7c0.8,1.2,1.3,2.7,1.3,4.8c0,2.1-0.4,3.7-1.3,4.8c-0.9,1.1-2,1.7-3.5,1.7
		c-1.5,0-2.6-0.5-3.5-1.6h-0.2l-0.6,1.4h-2.6v-17.5h3.4v4.1c0,0.5,0,1.3-0.1,2.5h0.1C107.6,196.2,108.8,195.5,110.4,195.5z
		 M109.3,198.3c-0.8,0-1.5,0.3-1.9,0.8s-0.6,1.4-0.6,2.6v0.4c0,1.3,0.2,2.3,0.6,2.9c0.4,0.6,1,0.9,1.9,0.9c0.7,0,1.3-0.3,1.7-1
		c0.4-0.6,0.6-1.6,0.6-2.8c0-1.2-0.2-2.2-0.6-2.8C110.6,198.6,110,198.3,109.3,198.3z"/>
	<path class="st6" d="M125.9,208.3l-0.7-1.7h-0.1c-0.6,0.7-1.2,1.2-1.8,1.5c-0.6,0.3-1.4,0.4-2.4,0.4c-1.2,0-2.2-0.3-2.8-1
		c-0.7-0.7-1-1.7-1-2.9c0-1.3,0.5-2.3,1.4-2.9c0.9-0.6,2.3-1,4.2-1l2.2-0.1V200c0-1.3-0.7-1.9-2-1.9c-1,0-2.2,0.3-3.5,0.9l-1.1-2.3
		c1.4-0.8,3-1.1,4.8-1.1c1.7,0,3,0.4,3.9,1.1c0.9,0.7,1.3,1.8,1.3,3.3v8.4H125.9z M124.9,202.5l-1.3,0c-1,0-1.7,0.2-2.2,0.5
		s-0.7,0.8-0.7,1.5c0,1,0.6,1.4,1.7,1.4c0.8,0,1.4-0.2,1.9-0.7c0.5-0.5,0.7-1.1,0.7-1.8V202.5z M121.1,194.4v-0.3
		c1.3-1.5,2.2-2.6,2.6-3.4h3.8v0.2c-0.4,0.4-1.1,1-2,1.7c-0.9,0.8-1.7,1.3-2.2,1.7H121.1z"/>
	<path class="st6" d="M143.4,208.3H140V201c0-0.9-0.2-1.6-0.5-2s-0.8-0.7-1.5-0.7c-1,0-1.7,0.3-2.1,1c-0.4,0.6-0.6,1.7-0.6,3.2v5.9
		h-3.4v-12.6h2.6l0.5,1.6h0.2c0.4-0.6,0.9-1.1,1.6-1.4c0.7-0.3,1.4-0.5,2.3-0.5c1.5,0,2.6,0.4,3.3,1.2s1.1,1.9,1.1,3.4V208.3z"/>
	<path class="st6" d="M164.5,208.3h-3.4V201c0-1.8-0.7-2.7-2-2.7c-1,0-1.7,0.3-2.1,1s-0.6,1.7-0.6,3.2v5.9h-3.4v-17.5h3.4v3.6
		c0,0.3,0,0.9-0.1,2l-0.1,1h0.2c0.8-1.2,2-1.8,3.6-1.8c1.5,0,2.6,0.4,3.4,1.2c0.8,0.8,1.1,1.9,1.1,3.4V208.3z"/>
	<path class="st6" d="M176,208.3l-0.7-1.7h-0.1c-0.6,0.7-1.2,1.2-1.8,1.5c-0.6,0.3-1.4,0.4-2.4,0.4c-1.2,0-2.2-0.3-2.8-1
		c-0.7-0.7-1-1.7-1-2.9c0-1.3,0.5-2.3,1.4-2.9c0.9-0.6,2.3-1,4.2-1l2.2-0.1V200c0-1.3-0.7-1.9-2-1.9c-1,0-2.2,0.3-3.5,0.9l-1.1-2.3
		c1.4-0.8,3-1.1,4.8-1.1c1.7,0,3,0.4,3.9,1.1c0.9,0.7,1.3,1.8,1.3,3.3v8.4H176z M173.2,194.4c-0.5-0.3-1.2-0.9-2.1-1.6
		s-1.6-1.4-2.1-1.8v-0.2h3.8c0.5,0.8,1.4,1.9,2.6,3.4v0.3H173.2z M175,202.5l-1.3,0c-1,0-1.7,0.2-2.2,0.5s-0.7,0.8-0.7,1.5
		c0,1,0.6,1.4,1.7,1.4c0.8,0,1.4-0.2,1.9-0.7c0.5-0.5,0.7-1.1,0.7-1.8V202.5z"/>
	<path class="st6" d="M193.5,208.3h-3.4V201c0-0.9-0.2-1.6-0.5-2s-0.8-0.7-1.5-0.7c-1,0-1.7,0.3-2.1,1c-0.4,0.6-0.6,1.7-0.6,3.2v5.9
		H182v-12.6h2.6l0.5,1.6h0.2c0.4-0.6,0.9-1.1,1.6-1.4c0.7-0.3,1.4-0.5,2.3-0.5c1.5,0,2.6,0.4,3.3,1.2s1.1,1.9,1.1,3.4V208.3z"/>
	<path class="st6" d="M208,208.4c0,1.8-0.5,3.2-1.6,4.1c-1.1,0.9-2.6,1.4-4.7,1.4c-1.8,0-3.4-0.2-4.7-0.7v-2.7c1.5,0.6,3.2,1,4.9,1
		c1.8,0,2.6-1,2.6-2.9v-0.2l0.1-1.5h-0.1c-0.8,1.2-2,1.9-3.6,1.9c-1.5,0-2.7-0.6-3.5-1.7c-0.8-1.2-1.2-2.7-1.2-4.7
		c0-2.1,0.4-3.7,1.3-4.8c0.9-1.1,2-1.7,3.5-1.7c1.5,0,2.8,0.6,3.6,1.8h0.1l0.3-1.6h2.9V208.4z M202.3,205.9c0.9,0,1.6-0.3,2-0.8
		c0.4-0.5,0.6-1.4,0.6-2.6v-0.4c0-1.3-0.2-2.3-0.6-2.9c-0.4-0.6-1.1-0.9-2-0.9c-1.6,0-2.4,1.3-2.4,3.8c0,1.3,0.2,2.2,0.6,2.8
		C200.8,205.6,201.4,205.9,202.3,205.9z"/>
	<path class="st6" d="M42.5,233.4c0.6,0,1.3-0.1,2.2-0.4v2.5c-0.9,0.4-1.9,0.6-3.1,0.6c-1.4,0-2.4-0.3-3-1c-0.6-0.7-0.9-1.7-0.9-3.1
		v-6.1h-1.6v-1.4l1.9-1.1l1-2.7H41v2.7h3.5v2.6H41v6.1c0,0.5,0.1,0.8,0.4,1.1C41.7,233.3,42.1,233.4,42.5,233.4z"/>
	<path class="st6" d="M54.2,223.1c0.5,0,0.8,0,1.2,0.1l-0.3,3.2c-0.3-0.1-0.6-0.1-1-0.1c-1.1,0-1.9,0.3-2.6,0.8
		c-0.6,0.6-0.9,1.3-0.9,2.4v6.4h-3.4v-12.6h2.6l0.5,2.1h0.2c0.4-0.7,0.9-1.3,1.6-1.7C52.7,223.4,53.4,223.1,54.2,223.1z"/>
	<path class="st6" d="M66.5,235.9l-0.5-1.6h-0.2c-0.4,0.6-0.9,1-1.5,1.3c-0.7,0.3-1.4,0.5-2.3,0.5c-1.5,0-2.6-0.4-3.3-1.2
		s-1.1-1.9-1.1-3.4v-8.2H61v7.3c0,0.9,0.2,1.6,0.5,2s0.8,0.7,1.5,0.7c1,0,1.7-0.3,2.1-1c0.4-0.6,0.6-1.7,0.6-3.2v-5.9h3.4v1.3
		c0.5-0.2,0.9-0.5,1.2-1.1c0.3-0.5,0.4-1.3,0.4-2.1h3.4l0.2,0.2c-0.2,1.2-0.6,2.1-1,2.7s-0.9,1.1-1.6,1.5c-0.7,0.4-1.6,0.7-2.6,0.8
		v9.2H66.5z M61.4,239.1c0-1.1,0.6-1.7,1.9-1.7s1.9,0.6,1.9,1.7c0,0.5-0.2,0.9-0.5,1.2c-0.3,0.3-0.8,0.4-1.4,0.4
		C62,240.8,61.4,240.2,61.4,239.1z"/>
	<path class="st6" d="M80.2,236.2c-3.9,0-5.9-2.1-5.9-6.4c0-2.1,0.5-3.8,1.6-4.9s2.6-1.7,4.6-1.7c1.5,0,2.8,0.3,3.9,0.9l-1,2.7
		c-0.5-0.2-1-0.4-1.5-0.5s-0.9-0.2-1.4-0.2c-1.8,0-2.7,1.3-2.7,3.8c0,2.5,0.9,3.7,2.7,3.7c0.7,0,1.3-0.1,1.8-0.3s1.1-0.5,1.7-0.8
		v2.9c-0.6,0.4-1.1,0.6-1.7,0.7C81.8,236.1,81.1,236.2,80.2,236.2z"/>
	<path class="st6" d="M98.2,233.4c0.6,0,1.3-0.1,2.2-0.4v2.5c-0.9,0.4-1.9,0.6-3.1,0.6c-1.4,0-2.4-0.3-3-1c-0.6-0.7-0.9-1.7-0.9-3.1
		v-6.1h-1.6v-1.4l1.9-1.1l1-2.7h2.2v2.7h3.5v2.6h-3.5v6.1c0,0.5,0.1,0.8,0.4,1.1C97.4,233.3,97.8,233.4,98.2,233.4z"/>
	<path class="st6" d="M102.8,220.1c0-1.1,0.6-1.7,1.9-1.7s1.9,0.6,1.9,1.7c0,0.5-0.2,0.9-0.5,1.2c-0.3,0.3-0.8,0.4-1.4,0.4
		C103.4,221.8,102.8,221.3,102.8,220.1z M106.3,235.9h-3.4v-12.6h3.4V235.9z"/>
	<path class="st6" d="M115.6,236.2c-2,0-3.6-0.6-4.7-1.7c-1.1-1.1-1.7-2.7-1.7-4.7c0-2.1,0.5-3.7,1.6-4.9c1.1-1.1,2.5-1.7,4.4-1.7
		c1.8,0,3.2,0.5,4.1,1.5s1.5,2.4,1.5,4.2v1.7h-8.1c0,1,0.3,1.7,0.9,2.3s1.3,0.8,2.3,0.8c0.8,0,1.5-0.1,2.1-0.2s1.4-0.4,2.1-0.8v2.7
		c-0.6,0.3-1.2,0.5-1.9,0.7C117.4,236.1,116.6,236.2,115.6,236.2z M119.3,222h-1.8c-0.8-0.6-1.6-1.2-2.4-1.9
		c-0.9,0.8-1.6,1.4-2.4,1.9h-1.8v-0.3c0.8-1,1.6-2,2.4-3.1h3.5c0.4,0.6,0.8,1.2,1.4,1.8c0.5,0.6,0.9,1.1,1.1,1.3V222z M115.1,225.6
		c-0.7,0-1.3,0.2-1.7,0.7c-0.4,0.5-0.6,1.1-0.7,2h4.8c0-0.8-0.2-1.5-0.7-2C116.4,225.8,115.8,225.6,115.1,225.6z M118.3,219.5
		c0.6-0.7,1.2-1.4,1.5-2.3h2.7v0.2c-0.5,0.7-1.4,1.4-2.5,2.3h-1.7V219.5z"/>
	<path class="st6" d="M130.4,236.2c-1.5,0-2.6-0.5-3.5-1.6h-0.2c0.1,1,0.2,1.7,0.2,1.8v5.1h-3.4v-18.1h2.8l0.5,1.6h0.2
		c0.8-1.2,2-1.9,3.6-1.9c1.5,0,2.6,0.6,3.5,1.7s1.3,2.7,1.3,4.8c0,1.3-0.2,2.5-0.6,3.5c-0.4,1-1,1.7-1.7,2.3
		C132.2,235.9,131.4,236.2,130.4,236.2z M129.4,225.9c-0.8,0-1.5,0.3-1.9,0.8s-0.6,1.4-0.6,2.6v0.4c0,1.3,0.2,2.3,0.6,2.9
		c0.4,0.6,1,0.9,1.9,0.9c1.5,0,2.3-1.3,2.3-3.8c0-1.2-0.2-2.2-0.6-2.8C130.8,226.2,130.2,225.9,129.4,225.9z"/>
</g>
</svg>