<!-- Generator: Adobe Illustrator 19.1.0, SVG Export Plug-In  -->
<svg version="1.1"
	 xmlns="http://www.w3.org/2000/svg" xmlns:xlink="http://www.w3.org/1999/xlink" xmlns:a="http://ns.adobe.com/AdobeSVGViewerExtensions/3.0/"
	 x="0px" y="0px" width="218.1px" height="168px" viewBox="0 0 218.1 168"
	 style="overflow:scroll;enable-background:new 0 0 218.1 168;" xml:space="preserve">
<style type="text/css">
	.st0{fill:#FF6633;}
	.st1{fill:#FFFFFF;}
</style>
<defs>
</defs>
<g>
	<path class="st0" d="M10.4,0h197.3c5.7,0,10.4,3.5,10.4,7.7v116.8v12.1V168l-38-23.7H10.4c-5.7,0-10.4-3.5-10.4-7.7V7.7
		C0,3.5,4.7,0,10.4,0"/>
	<g>
		<path class="st1" d="M71.9,106.3v-7.4H59.3v-2.4l12.1-17.3h4V96h3.8v2.9h-3.8v7.4H71.9z M71.9,96v-9.1c0-1.4,0-2.8,0.1-4.3h-0.1
			c-0.8,1.6-1.5,2.8-2.3,4L63,95.9V96H71.9z"/>
		<path class="st1" d="M100,92.4c0,9.2-3.4,14.3-9.4,14.3c-5.3,0-8.9-5-9-14c0-9.1,3.9-14.1,9.4-14.1C96.8,78.7,100,83.8,100,92.4z
			 M85.3,92.8c0,7.1,2.2,11.1,5.5,11.1c3.8,0,5.6-4.4,5.6-11.3c0-6.7-1.7-11.1-5.5-11.1C87.6,81.5,85.3,85.4,85.3,92.8z"/>
		<path class="st1" d="M115.6,86.8c0,5.7-3,8.6-6.5,8.6c-3.4,0-6.3-2.7-6.4-8.2c0-5.4,3-8.5,6.6-8.5
			C113.1,78.7,115.6,81.6,115.6,86.8z M105.7,87c-0.1,3.5,1.2,6.1,3.5,6.1c2.4,0,3.5-2.6,3.5-6.2c0-3.3-1-6.1-3.5-6.1
			C106.9,80.9,105.7,83.6,105.7,87z M108.9,106.7l16-28.1h2.3l-16,28.1H108.9z M133.3,98c0,5.7-3,8.6-6.5,8.6
			c-3.4,0-6.3-2.7-6.4-8.1c0-5.5,3-8.5,6.6-8.5C130.9,89.9,133.3,92.8,133.3,98z M123.4,98.3c0,3.5,1.3,6.1,3.6,6.1
			c2.4,0,3.5-2.6,3.5-6.2c0-3.3-1-6.1-3.5-6.1C124.6,92.1,123.4,94.8,123.4,98.3z"/>
	</g>
	<g>
		<path class="st1" d="M57.9,36.7c0,2.9-0.5,5.4-1.6,7.4c-1,2-2.6,3.4-4.6,4.4l6,6.7H51l-4.6-5.6H46c-3.8,0-6.8-1.1-8.8-3.3
			c-2.1-2.2-3.1-5.4-3.1-9.6s1-7.3,3.1-9.5c2.1-2.2,5-3.3,8.9-3.3c3.8,0,6.8,1.1,8.8,3.3C56.9,29.4,57.9,32.6,57.9,36.7z M39.7,36.7
			c0,2.8,0.5,4.9,1.6,6.3s2.6,2.1,4.8,2.1c4.2,0,6.4-2.8,6.4-8.4c0-5.6-2.1-8.5-6.3-8.5c-2.1,0-3.7,0.7-4.8,2.1S39.7,33.9,39.7,36.7
			z"/>
		<path class="st1" d="M76.3,49.3l-0.7-2.4h-0.3c-0.6,0.9-1.4,1.6-2.4,2.1c-1,0.5-2.2,0.7-3.5,0.7c-2.2,0-3.9-0.6-5.1-1.8
			c-1.1-1.2-1.7-2.9-1.7-5.2V30.1h5.2v11.2c0,1.4,0.2,2.4,0.7,3.1s1.3,1,2.3,1c1.5,0,2.5-0.5,3.2-1.5c0.7-1,1-2.6,1-4.9v-9h5.2v19.1
			H76.3z"/>
		<path class="st1" d="M103.1,39.7c0,3.1-0.8,5.6-2.5,7.3s-3.9,2.6-6.9,2.6c-1.8,0-3.5-0.4-4.9-1.2c-1.4-0.8-2.5-2-3.2-3.5
			c-0.8-1.5-1.1-3.3-1.1-5.3c0-3.1,0.8-5.6,2.4-7.3c1.6-1.7,3.9-2.6,6.9-2.6c1.8,0,3.5,0.4,4.9,1.2c1.4,0.8,2.5,1.9,3.2,3.4
			C102.8,35.9,103.1,37.7,103.1,39.7z M100.1,28h-2.8c-1.3-0.9-2.5-1.8-3.6-2.8c-1.3,1.2-2.5,2.1-3.6,2.8h-2.8v-0.5
			c1.3-1.5,2.5-3.1,3.7-4.8h5.4c0.6,0.9,1.3,1.8,2.1,2.8c0.8,1,1.3,1.6,1.6,2V28z M89.9,39.7c0,1.9,0.3,3.3,0.9,4.3
			c0.6,1,1.6,1.5,3,1.5c1.4,0,2.4-0.5,3-1.4c0.6-1,0.9-2.4,0.9-4.3c0-1.9-0.3-3.3-0.9-4.3s-1.6-1.4-3-1.4c-1.4,0-2.4,0.5-3,1.4
			S89.9,37.8,89.9,39.7z M98.6,24.3c1-1,1.8-2.2,2.4-3.4h4.1v0.4c-0.8,1-2.1,2.2-3.9,3.5h-2.6V24.3z"/>
		<path class="st1" d="M115.2,49.6c-6,0-8.9-3.3-8.9-9.8c0-3.3,0.8-5.7,2.4-7.5s3.9-2.6,7-2.6c2.2,0,4.2,0.4,6,1.3l-1.5,4
			c-0.8-0.3-1.6-0.6-2.3-0.8c-0.7-0.2-1.4-0.3-2.1-0.3c-2.7,0-4.1,1.9-4.1,5.8c0,3.7,1.4,5.6,4.1,5.6c1,0,1.9-0.1,2.8-0.4
			c0.9-0.3,1.7-0.7,2.6-1.3v4.5c-0.8,0.5-1.7,0.9-2.6,1.1S116.5,49.6,115.2,49.6z"/>
		<path class="st1" d="M142.7,45.5c0.9,0,2-0.2,3.3-0.6v3.9c-1.3,0.6-2.9,0.9-4.8,0.9c-2.1,0-3.6-0.5-4.6-1.6
			c-1-1.1-1.4-2.6-1.4-4.8v-9.2h-2.5v-2.2l2.9-1.7l1.5-4h3.3v4.1h5.4v3.9h-5.4v9.2c0,0.7,0.2,1.3,0.6,1.6
			C141.4,45.3,142,45.5,142.7,45.5z"/>
		<path class="st1" d="M158.5,49.6c-3.1,0-5.5-0.9-7.2-2.6c-1.7-1.7-2.6-4.1-2.6-7.2c0-3.2,0.8-5.7,2.4-7.4s3.8-2.6,6.7-2.6
			c2.7,0,4.8,0.8,6.3,2.3c1.5,1.5,2.3,3.7,2.3,6.4V41h-12.3c0.1,1.5,0.5,2.6,1.3,3.5c0.8,0.8,2,1.3,3.5,1.3c1.2,0,2.2-0.1,3.3-0.4
			s2.1-0.6,3.2-1.1v4c-0.9,0.5-1.9,0.8-2.9,1S160,49.6,158.5,49.6z M164.1,28h-2.8c-1.3-0.9-2.5-1.8-3.6-2.8
			c-1.3,1.2-2.5,2.1-3.6,2.8h-2.8v-0.5c1.3-1.5,2.5-3.1,3.7-4.8h5.4c0.6,0.9,1.3,1.8,2.1,2.8c0.8,1,1.3,1.6,1.6,2V28z M157.7,33.5
			c-1.1,0-2,0.4-2.6,1.1c-0.6,0.7-1,1.7-1.1,3h7.3c0-1.3-0.4-2.3-1-3C159.7,33.8,158.8,33.5,157.7,33.5z M162.6,24.3
			c1-1,1.8-2.2,2.4-3.4h4.1v0.4c-0.8,1-2.1,2.2-3.9,3.5h-2.6V24.3z"/>
	</g>
</g>
</svg>