<!-- Generator: Adobe Illustrator 19.1.0, SVG Export Plug-In  -->
<svg version="1.1"
	 xmlns="http://www.w3.org/2000/svg" xmlns:xlink="http://www.w3.org/1999/xlink" xmlns:a="http://ns.adobe.com/AdobeSVGViewerExtensions/3.0/"
	 x="0px" y="0px" width="232.7px" height="276.1px" viewBox="0 0 232.7 276.1"
	 style="overflow:scroll;enable-background:new 0 0 232.7 276.1;" xml:space="preserve">
<style type="text/css">
	.st0{fill:none;stroke:#33CCCC;stroke-width:4.9002;stroke-linecap:round;stroke-linejoin:round;stroke-miterlimit:10;}
	.st1{fill:#FF6633;}
	.st2{fill:#086A87;}
</style>
<defs>
</defs>
<rect x="2.5" y="2.5" class="st0" width="227.8" height="271.2"/>
<g>
	<path class="st1" d="M112.8,220.2v-10.2c-13.3-1.8-19.6-11.5-20.5-19.6l11.9-2.9c0.6,6,4.6,11.6,13.4,11.6c6.2,0,9.8-3,9.8-7.2
		c0-3.3-2.4-5.7-7.2-6.8l-8.8-1.9c-10.3-2.3-16.7-8.8-16.7-18c0-10.1,7.8-17.6,18.1-19.2v-10.2h9.8v10.5c11,2,15.8,9.7,17.1,16.1
		l-11.8,3.3c-0.6-3.3-3.1-8.9-10.9-8.9c-6.1,0-9.5,3.5-9.5,7.5c0,3,2.1,5.5,6.6,6.4l8.7,2c12,2.7,17.5,9.8,17.5,18.5
		c0,8.8-6.3,16.9-17.8,18.7v10.3H112.8z"/>
</g>
<g>
	<path class="st2" d="M47.4,60.3L45,52.2H32.5L30,60.3h-7.8l12.1-34.4h8.9l12.1,34.4H47.4z M43.2,46.1c-2.3-7.4-3.6-11.6-3.9-12.5
		c-0.3-1-0.5-1.7-0.6-2.3c-0.5,2-2,6.9-4.4,14.8H43.2z"/>
	<path class="st2" d="M65.3,60.3l-10-26.2h7.5l5.1,14.9c0.5,1.6,0.9,3.4,1,5.4H69c0.1-1.8,0.4-3.6,1.1-5.4l5-14.9h7.5l-10,26.2H65.3
		z"/>
	<path class="st2" d="M98.2,60.8c-4.2,0-7.5-1.2-9.9-3.5c-2.4-2.3-3.6-5.6-3.6-9.9c0-4.4,1.1-7.8,3.3-10.2c2.2-2.4,5.2-3.6,9.1-3.6
		c3.7,0,6.6,1.1,8.6,3.2s3.1,5,3.1,8.7V49H92c0.1,2,0.7,3.6,1.8,4.8s2.7,1.7,4.7,1.7c1.6,0,3.1-0.2,4.5-0.5s2.9-0.9,4.4-1.6V59
		c-1.3,0.6-2.6,1.1-4,1.4C102,60.7,100.2,60.8,98.2,60.8z M97.2,38.7c-1.5,0-2.7,0.5-3.6,1.4c-0.9,1-1.4,2.3-1.5,4.1h10
		c0-1.8-0.5-3.1-1.4-4.1S98.7,38.7,97.2,38.7z"/>
	<path class="st2" d="M129.3,33.7c1,0,1.8,0.1,2.4,0.2l-0.5,6.7c-0.6-0.2-1.3-0.2-2.1-0.2c-2.3,0-4.1,0.6-5.3,1.8
		c-1.3,1.2-1.9,2.8-1.9,4.9v13.3h-7.1V34.1h5.4l1.1,4.4h0.4c0.8-1.5,1.9-2.7,3.3-3.6S127.7,33.7,129.3,33.7z"/>
	<path class="st2" d="M152.7,60.3l-1.4-3.6h-0.2c-1.2,1.5-2.4,2.6-3.7,3.2c-1.3,0.6-2.9,0.9-5,0.9c-2.5,0-4.5-0.7-5.9-2.2
		c-1.4-1.4-2.2-3.5-2.2-6.1c0-2.8,1-4.8,2.9-6.2s4.9-2.1,8.8-2.2l4.5-0.1v-1.1c0-2.7-1.4-4-4.1-4c-2.1,0-4.6,0.6-7.4,1.9l-2.4-4.8
		c3-1.6,6.4-2.4,10-2.4c3.5,0,6.2,0.8,8.1,2.3s2.8,3.9,2.8,7v17.5H152.7z M150.6,48.2l-2.8,0.1c-2.1,0.1-3.6,0.4-4.6,1.1
		c-1,0.7-1.5,1.7-1.5,3.1c0,2,1.2,3,3.5,3c1.7,0,3-0.5,4-1.4c1-1,1.5-2.2,1.5-3.8V48.2z"/>
	<path class="st2" d="M187.9,60.4c0,3.8-1.1,6.6-3.3,8.6c-2.2,1.9-5.5,2.9-9.8,2.9c-3.8,0-7.1-0.5-9.8-1.5v-5.7
		c3.2,1.3,6.6,2,10.2,2c3.7,0,5.5-2,5.5-6v-0.5l0.2-3.2h-0.2c-1.7,2.6-4.1,3.9-7.4,3.9c-3.1,0-5.6-1.2-7.3-3.6
		c-1.7-2.4-2.6-5.7-2.6-9.9c0-4.3,0.9-7.6,2.7-10c1.8-2.4,4.3-3.6,7.4-3.6c3.2,0,5.8,1.3,7.6,3.8h0.2l0.6-3.4h6V60.4z M175.9,55.2
		c1.9,0,3.3-0.6,4.1-1.7c0.8-1.1,1.2-2.9,1.2-5.4v-0.9c0-2.8-0.4-4.8-1.3-6s-2.3-1.8-4.2-1.8c-3.4,0-5,2.6-5,7.9
		c0,2.6,0.4,4.6,1.3,5.9C172.8,54.6,174.1,55.2,175.9,55.2z"/>
	<path class="st2" d="M207.2,60.8c-4.2,0-7.5-1.2-9.9-3.5s-3.6-5.6-3.6-9.9c0-4.4,1.1-7.8,3.3-10.2s5.2-3.6,9.1-3.6
		c3.7,0,6.6,1.1,8.6,3.2s3.1,5,3.1,8.7V49H201c0.1,2,0.7,3.6,1.8,4.8s2.7,1.7,4.7,1.7c1.6,0,3.1-0.2,4.5-0.5s2.9-0.9,4.4-1.6V59
		c-1.3,0.6-2.6,1.1-4,1.4S209.3,60.8,207.2,60.8z M206.2,38.7c-1.5,0-2.7,0.5-3.6,1.4s-1.4,2.3-1.5,4.1h10c0-1.8-0.5-3.1-1.4-4.1
		S207.8,38.7,206.2,38.7z"/>
	<path class="st2" d="M44.2,101.3c0,2.7-0.9,4.7-2.8,6.1c-1.9,1.4-4.7,2.1-8.4,2.1c-1.9,0-3.5-0.1-4.9-0.4c-1.3-0.3-2.6-0.6-3.8-1.1
		v-5.9c1.3,0.6,2.8,1.1,4.5,1.6s3.1,0.6,4.4,0.6c2.6,0,3.9-0.8,3.9-2.3c0-0.6-0.2-1-0.5-1.4c-0.3-0.4-0.9-0.8-1.8-1.2s-2-1-3.4-1.6
		c-2-0.8-3.5-1.6-4.4-2.3c-0.9-0.7-1.6-1.5-2.1-2.5c-0.4-0.9-0.6-2.1-0.6-3.4c0-2.3,0.9-4.1,2.7-5.4s4.4-1.9,7.7-1.9
		c3.2,0,6.2,0.7,9.2,2.1l-2.2,5.2c-1.3-0.6-2.5-1-3.7-1.4c-1.1-0.4-2.3-0.5-3.5-0.5c-2.1,0-3.2,0.6-3.2,1.7c0,0.6,0.3,1.2,1,1.7
		c0.7,0.5,2.2,1.2,4.5,2.1c2,0.8,3.5,1.6,4.5,2.3c1,0.7,1.7,1.5,2.1,2.5C44,98.9,44.2,100,44.2,101.3z"/>
	<path class="st2" d="M64.2,109.5c-3.1,0-5.5-1.1-7.2-3.4h-0.4c0.2,2.2,0.4,3.5,0.4,3.8v10.6h-7.1V82.9h5.8l1,3.4h0.3
		c1.7-2.6,4.1-3.9,7.4-3.9c3.1,0,5.5,1.2,7.3,3.6c1.7,2.4,2.6,5.7,2.6,10c0,2.8-0.4,5.2-1.2,7.3s-2,3.6-3.5,4.7
		C68,109,66.2,109.5,64.2,109.5z M62.1,88.1c-1.8,0-3.1,0.5-3.9,1.6c-0.8,1.1-1.2,2.9-1.3,5.4v0.8c0,2.8,0.4,4.8,1.3,6
		c0.8,1.2,2.2,1.8,4,1.8c3.2,0,4.8-2.6,4.8-7.9c0-2.6-0.4-4.5-1.2-5.8C65,88.7,63.7,88.1,62.1,88.1z"/>
	<path class="st2" d="M92,109.5c-4.2,0-7.5-1.2-9.9-3.5c-2.4-2.3-3.6-5.6-3.6-9.9c0-4.4,1.1-7.8,3.3-10.2c2.2-2.4,5.2-3.6,9.1-3.6
		c3.7,0,6.6,1.1,8.6,3.2s3.1,5,3.1,8.7v3.5H85.8c0.1,2,0.7,3.6,1.8,4.8s2.7,1.7,4.7,1.7c1.6,0,3.1-0.2,4.5-0.5s2.9-0.9,4.4-1.6v5.5
		c-1.3,0.6-2.6,1.1-4,1.4C95.8,109.4,94.1,109.5,92,109.5z M91,87.5c-1.5,0-2.7,0.5-3.6,1.4c-0.9,1-1.4,2.3-1.5,4.1h10
		c0-1.8-0.5-3.1-1.4-4.1S92.5,87.5,91,87.5z"/>
	<path class="st2" d="M132.7,109.1h-7.1V93.8c0-1.9-0.3-3.3-1-4.3c-0.7-0.9-1.7-1.4-3.2-1.4c-2,0-3.4,0.7-4.3,2s-1.3,3.6-1.3,6.6
		v12.3h-7.1V82.9h5.5l1,3.4h0.4c0.8-1.3,1.9-2.2,3.3-2.9c1.4-0.6,3-1,4.8-1c3,0,5.4,0.8,6.9,2.5c1.6,1.6,2.4,4,2.4,7.1V109.1z"/>
	<path class="st2" d="M148.3,109.5c-3.1,0-5.5-1.2-7.3-3.6s-2.6-5.7-2.6-9.9c0-4.3,0.9-7.6,2.7-10c1.8-2.4,4.3-3.6,7.4-3.6
		c3.3,0,5.8,1.3,7.5,3.8h0.2c-0.4-2-0.5-3.7-0.5-5.2v-8.4h7.2v36.5h-5.5l-1.4-3.4h-0.3C154.2,108.3,151.7,109.5,148.3,109.5z
		 M150.9,103.8c1.8,0,3.2-0.5,4-1.6c0.9-1.1,1.3-2.9,1.4-5.4v-0.8c0-2.8-0.4-4.8-1.3-6s-2.3-1.8-4.2-1.8c-1.6,0-2.8,0.7-3.7,2
		c-0.9,1.4-1.3,3.3-1.3,5.9s0.4,4.5,1.3,5.8S149.2,103.8,150.9,103.8z"/>
</g>
</svg>