<!-- Generator: Adobe Illustrator 19.1.0, SVG Export Plug-In  -->
<svg version="1.1"
	 xmlns="http://www.w3.org/2000/svg" xmlns:xlink="http://www.w3.org/1999/xlink" xmlns:a="http://ns.adobe.com/AdobeSVGViewerExtensions/3.0/"
	 x="0px" y="0px" width="345.7px" height="222.2px" viewBox="0 0 345.7 222.2"
	 style="overflow:scroll;enable-background:new 0 0 345.7 222.2;" xml:space="preserve">
<style type="text/css">
	.st0{fill:#086A87;stroke:#086A87;stroke-width:2.1193;stroke-linecap:round;stroke-linejoin:round;stroke-miterlimit:10;}
	.st1{fill:#33CCCC;stroke:#33CCCC;stroke-width:2.0842;stroke-miterlimit:10;}
	.st2{fill:#FF6633;}
	.st3{fill:#FFFFFF;}
</style>
<defs>
</defs>
<path class="st0" d="M129.2,153.5H70.1c-5.1,0-9.3-4.2-9.3-9.3V30.5c0-5.1,4.2-9.3,9.3-9.3h59.1c5.1,0,9.3,4.2,9.3,9.3v113.7
	C138.6,149.3,134.4,153.5,129.2,153.5z"/>
<circle class="st1" cx="99.3" cy="137.8" r="6.2"/>
<rect x="69.8" y="32.8" class="st1" width="58.9" height="90.7"/>
<circle class="st2" cx="234.9" cy="110.8" r="110.8"/>
<g>
	<g>
		<path class="st2" d="M15.3,193.8c4.2,0,7.6,1.2,10,3.5c2.5,2.4,3.7,5.6,3.7,9.7c0,4.9-1.5,8.6-4.5,11.2c-3,2.6-7.3,3.9-12.9,3.9
			c-4.8,0-8.8-0.8-11.7-2.4v-8c1.6,0.8,3.4,1.5,5.5,2c2.1,0.5,4.1,0.8,5.9,0.8c5.6,0,8.4-2.3,8.4-6.9c0-4.4-2.9-6.6-8.7-6.6
			c-1.1,0-2.2,0.1-3.5,0.3c-1.3,0.2-2.3,0.4-3.1,0.7l-3.7-2l1.6-22.2h23.6v7.8H10.6l-0.8,8.5l1-0.2C12,193.9,13.5,193.8,15.3,193.8z
			"/>
		<path class="st2" d="M64.8,221.6H34.3v-6.4l10.9-11c3.2-3.3,5.3-5.6,6.3-6.9c1-1.3,1.7-2.5,2.1-3.6c0.4-1.1,0.7-2.2,0.7-3.4
			c0-1.7-0.5-3-1.4-3.9c-1-0.9-2.2-1.3-3.9-1.3c-1.7,0-3.3,0.4-4.9,1.2c-1.6,0.8-3.2,1.9-5,3.3l-5-5.9c2.1-1.8,3.9-3.1,5.3-3.9
			c1.4-0.8,2.9-1.3,4.6-1.7c1.7-0.4,3.5-0.6,5.6-0.6c2.7,0,5.1,0.5,7.2,1.5c2.1,1,3.7,2.4,4.9,4.2c1.2,1.8,1.7,3.8,1.7,6.1
			c0,2-0.4,3.9-1.1,5.6c-0.7,1.8-1.8,3.6-3.3,5.4c-1.5,1.8-4.1,4.5-7.8,7.9l-5.6,5.3v0.4h19V221.6z"/>
		<path class="st2" d="M89.3,191.1c0,4.6-0.9,8-2.7,10.3c-1.8,2.3-4.4,3.4-7.8,3.4c-3.3,0-5.8-1.2-7.6-3.5
			c-1.8-2.4-2.7-5.8-2.7-10.2c0-9.1,3.4-13.6,10.3-13.6c3.4,0,5.9,1.2,7.7,3.5C88.4,183.3,89.3,186.7,89.3,191.1z M76.1,191.1
			c0,2.5,0.2,4.4,0.7,5.6c0.4,1.2,1.2,1.9,2.2,1.9c1.9,0,2.9-2.5,2.9-7.5c0-5-1-7.4-2.9-7.4c-1,0-1.7,0.6-2.2,1.8
			C76.4,186.7,76.1,188.6,76.1,191.1z M109.8,178.1l-24.1,43.5h-7.1l24.1-43.5H109.8z M119.8,208.4c0,4.5-0.9,8-2.7,10.3
			c-1.8,2.3-4.4,3.4-7.8,3.4c-3.3,0-5.8-1.2-7.6-3.5c-1.8-2.4-2.7-5.7-2.7-10.2c0-9.1,3.4-13.6,10.3-13.6c3.4,0,5.9,1.2,7.7,3.5
			C118.9,200.7,119.8,204.1,119.8,208.4z M106.6,208.5c0,2.5,0.2,4.4,0.7,5.6c0.4,1.2,1.2,1.9,2.2,1.9c1.9,0,2.9-2.5,2.9-7.5
			c0-5-1-7.4-2.9-7.4c-1,0-1.7,0.6-2.2,1.8C106.8,204.1,106.6,206,106.6,208.5z"/>
	</g>
</g>
<g>
	<path class="st3" d="M173.5,97.9L168,80h-0.1c0.2,3.6,0.3,6.1,0.3,7.3v10.6h-4.3V75h6.6l5.4,17.5h0.1l5.7-17.5h6.6v22.8h-4.5V87.1
		c0-0.5,0-1.1,0-1.8c0-0.7,0.1-2.4,0.2-5.3h-0.1l-5.9,17.9H173.5z"/>
	<path class="st3" d="M206,97.9l-0.6-2.2h-0.3c-0.5,0.8-1.2,1.4-2.2,1.9s-2,0.7-3.2,0.7c-2.1,0-3.6-0.5-4.6-1.6
		c-1-1.1-1.6-2.7-1.6-4.7V80.4h4.8v10.2c0,1.3,0.2,2.2,0.7,2.8c0.4,0.6,1.2,0.9,2.1,0.9c1.3,0,2.3-0.4,2.9-1.3s0.9-2.4,0.9-4.4v-8.2
		h4.8v17.5H206z"/>
	<path class="st3" d="M225.8,97.9l-0.9-2.4h-0.1c-0.8,1-1.6,1.7-2.5,2.1c-0.8,0.4-2,0.6-3.3,0.6c-1.7,0-3-0.5-4-1.4
		c-1-1-1.4-2.3-1.4-4.1c0-1.9,0.6-3.2,1.9-4.1c1.3-0.9,3.3-1.4,5.9-1.5l3-0.1v-0.8c0-1.8-0.9-2.7-2.7-2.7c-1.4,0-3,0.4-4.9,1.3
		l-1.6-3.2c2-1.1,4.2-1.6,6.7-1.6c2.3,0,4.1,0.5,5.4,1.5c1.3,1,1.9,2.6,1.9,4.7v11.6H225.8z M224.3,89.8l-1.8,0.1
		c-1.4,0-2.4,0.3-3.1,0.8c-0.7,0.5-1,1.2-1,2.1c0,1.3,0.8,2,2.3,2c1.1,0,2-0.3,2.6-1c0.7-0.6,1-1.5,1-2.5V89.8z"/>
	<path class="st3" d="M254.5,92.7c0,1.8-0.6,3.2-1.9,4.1c-1.2,0.9-3.1,1.4-5.6,1.4c-1.3,0-2.4-0.1-3.3-0.3c-0.9-0.2-1.7-0.4-2.5-0.8
		v-3.9c0.9,0.4,1.9,0.8,3,1s2.1,0.4,2.9,0.4c1.7,0,2.6-0.5,2.6-1.5c0-0.4-0.1-0.7-0.3-0.9c-0.2-0.2-0.6-0.5-1.2-0.8s-1.3-0.6-2.3-1
		c-1.3-0.6-2.3-1.1-3-1.6c-0.6-0.5-1.1-1-1.4-1.6c-0.3-0.6-0.4-1.4-0.4-2.3c0-1.6,0.6-2.8,1.8-3.6c1.2-0.8,2.9-1.3,5.1-1.3
		c2.1,0,4.2,0.5,6.1,1.4l-1.4,3.4c-0.9-0.4-1.7-0.7-2.5-0.9c-0.8-0.2-1.5-0.4-2.3-0.4c-1.4,0-2.1,0.4-2.1,1.1c0,0.4,0.2,0.8,0.7,1.1
		s1.4,0.8,3,1.4c1.4,0.6,2.4,1.1,3,1.5c0.6,0.5,1.1,1,1.4,1.7C254.3,91.1,254.5,91.8,254.5,92.7z"/>
	<path class="st3" d="M269.3,97.9l-0.9-2.4h-0.1c-0.8,1-1.6,1.7-2.5,2.1c-0.8,0.4-2,0.6-3.3,0.6c-1.7,0-3-0.5-4-1.4
		c-1-1-1.4-2.3-1.4-4.1c0-1.9,0.6-3.2,1.9-4.1c1.3-0.9,3.3-1.4,5.9-1.5l3-0.1v-0.8c0-1.8-0.9-2.7-2.7-2.7c-1.4,0-3,0.4-4.9,1.3
		l-1.6-3.2c2-1.1,4.2-1.6,6.7-1.6c2.3,0,4.1,0.5,5.4,1.5c1.3,1,1.9,2.6,1.9,4.7v11.6H269.3z M271,73.2c-0.1,1.6-0.7,2.9-1.7,3.9
		s-2.4,1.4-4,1.4c-1.7,0-3.1-0.4-4-1.3c-1-0.9-1.5-2.2-1.6-3.9h2.3c0.1,0.9,0.4,1.6,1,2c0.6,0.4,1.4,0.6,2.3,0.6
		c0.9,0,1.7-0.2,2.3-0.7c0.6-0.5,0.9-1.1,1-1.9H271z M267.9,89.8l-1.8,0.1c-1.4,0-2.4,0.3-3.1,0.8c-0.7,0.5-1,1.2-1,2.1
		c0,1.3,0.8,2,2.3,2c1.1,0,2-0.3,2.6-1c0.7-0.6,1-1.5,1-2.5V89.8z M263.8,74c0.7-1.1,1.3-2.1,1.8-3.1h3.5v0.3c-1,1.1-2,2.2-3.2,3.2
		h-2V74z"/>
	<path class="st3" d="M293.2,97.9h-4.8V87.7c0-1.3-0.2-2.2-0.6-2.8c-0.4-0.6-1.1-0.9-2-0.9c-1.2,0-2.1,0.4-2.7,1.3
		c-0.6,0.9-0.8,2.4-0.8,4.4v8.2h-4.8V80.4h3.6l0.6,2.2h0.3c0.5-0.8,1.1-1.4,2-1.9c0.9-0.5,1.9-0.7,3-0.7c2.6,0,4.4,0.9,5.3,2.6h0.4
		c0.5-0.8,1.2-1.4,2.1-1.9c0.9-0.4,1.9-0.7,3.1-0.7c2,0,3.5,0.5,4.5,1.5s1.5,2.6,1.5,4.9v11.4h-4.8V87.7c0-1.3-0.2-2.2-0.6-2.8
		c-0.4-0.6-1.1-0.9-2-0.9c-1.2,0-2,0.4-2.6,1.3c-0.6,0.8-0.9,2.2-0.9,4V97.9z"/>
	<path class="st3" d="M145.3,132.8c0.8,0,1.8-0.2,3-0.5v3.5c-1.2,0.5-2.6,0.8-4.4,0.8c-1.9,0-3.3-0.5-4.2-1.4
		c-0.9-1-1.3-2.4-1.3-4.3v-8.4h-2.3v-2l2.6-1.6l1.4-3.7h3v3.7h4.9v3.6h-4.9v8.4c0,0.7,0.2,1.2,0.6,1.5
		C144.2,132.6,144.7,132.8,145.3,132.8z"/>
	<path class="st3" d="M161.6,118.5c0.6,0,1.2,0,1.6,0.1l-0.4,4.5c-0.4-0.1-0.9-0.2-1.4-0.2c-1.5,0-2.7,0.4-3.6,1.2
		c-0.8,0.8-1.3,1.9-1.3,3.3v8.9h-4.8v-17.5h3.6l0.7,2.9h0.2c0.5-1,1.3-1.8,2.2-2.4C159.5,118.8,160.5,118.5,161.6,118.5z"/>
	<path class="st3" d="M173.9,136.6c-2.8,0-5-0.8-6.6-2.3c-1.6-1.6-2.4-3.8-2.4-6.6c0-2.9,0.7-5.2,2.2-6.8c1.5-1.6,3.5-2.4,6.1-2.4
		c2.5,0,4.4,0.7,5.8,2.1s2.1,3.3,2.1,5.8v2.3h-11.3c0.1,1.4,0.5,2.4,1.2,3.2c0.8,0.8,1.8,1.1,3.2,1.1c1.1,0,2-0.1,3-0.3
		s1.9-0.6,2.9-1v3.7c-0.8,0.4-1.7,0.7-2.7,0.9C176.5,136.5,175.3,136.6,173.9,136.6z M177,116.9c-1.6-1-2.9-1.9-3.7-2.8
		c-0.8,0.8-2,1.8-3.6,2.8h-3.2v-0.4c2-2,3.3-3.5,4-4.7h5.6c0.3,0.5,0.9,1.3,1.7,2.2c0.8,0.9,1.6,1.8,2.3,2.5v0.4H177z M173.3,121.9
		c-1,0-1.8,0.3-2.4,1c-0.6,0.6-0.9,1.5-1,2.7h6.7c0-1.2-0.3-2.1-0.9-2.7S174.3,121.9,173.3,121.9z"/>
	<path class="st3" d="M201.1,136.3h-4.8v-10.2c0-1.3-0.2-2.2-0.7-2.8c-0.4-0.6-1.2-0.9-2.1-0.9c-1.3,0-2.3,0.4-2.9,1.3
		s-0.9,2.4-0.9,4.4v8.2h-4.8v-17.5h3.6l0.6,2.2h0.3c0.5-0.8,1.3-1.5,2.2-1.9c0.9-0.4,2-0.6,3.2-0.6c2,0,3.6,0.5,4.6,1.6
		c1.1,1.1,1.6,2.7,1.6,4.8V136.3z"/>
	<path class="st3" d="M219.8,136.6c-2.1,0-3.7-0.8-4.8-2.4s-1.8-3.8-1.8-6.6c0-2.9,0.6-5.1,1.8-6.7c1.2-1.6,2.8-2.4,4.9-2.4
		c2.2,0,3.9,0.9,5,2.6h0.2c-0.2-1.3-0.4-2.5-0.4-3.5V112h4.8v24.3h-3.7L225,134h-0.2C223.7,135.7,222,136.6,219.8,136.6z
		 M221.5,132.8c1.2,0,2.1-0.4,2.7-1.1c0.6-0.7,0.9-1.9,0.9-3.6v-0.5c0-1.9-0.3-3.2-0.9-4s-1.5-1.2-2.8-1.2c-1.1,0-1.9,0.5-2.5,1.4
		c-0.6,0.9-0.9,2.2-0.9,3.9s0.3,3,0.9,3.9S220.4,132.8,221.5,132.8z"/>
	<path class="st3" d="M234.3,114.3c0-1.6,0.9-2.3,2.6-2.3c1.7,0,2.6,0.8,2.6,2.3c0,0.7-0.2,1.3-0.6,1.7c-0.4,0.4-1.1,0.6-1.9,0.6
		C235.2,116.6,234.3,115.9,234.3,114.3z M239.3,136.3h-4.8v-17.5h4.8V136.3z"/>
	<path class="st3" d="M258.2,136.6c-2.1,0-3.7-0.8-4.8-2.3c-1.2-1.5-1.8-3.6-1.8-6.3c0-2.7,0.6-4.8,1.8-6.4c1.2-1.5,2.8-2.3,4.9-2.3
		c2.2,0,3.9,0.9,5,2.6h0.2c-0.2-1.4-0.4-2.6-0.4-3.6v-0.8h-4.9v-3.1h4.9V112h4.8v2.5h2.4v3.1h-2.4v18.7h-3.7l-0.9-2.3h-0.2
		C262,135.7,260.4,136.6,258.2,136.6z M259.8,132.8c1.2,0,2.1-0.3,2.7-1c0.6-0.7,0.9-1.7,0.9-3.3v-0.4c0-1.7-0.3-2.9-0.9-3.7
		c-0.6-0.7-1.5-1.1-2.8-1.1c-1.1,0-1.9,0.4-2.5,1.2c-0.6,0.8-0.9,2-0.9,3.6c0,1.6,0.3,2.7,0.9,3.5S258.7,132.8,259.8,132.8z"/>
	<path class="st3" d="M289.3,127.5c0,2.8-0.8,5.1-2.3,6.7c-1.5,1.6-3.6,2.4-6.3,2.4c-1.7,0-3.2-0.4-4.4-1.1s-2.3-1.8-3-3.2
		s-1-3-1-4.8c0-2.9,0.7-5.1,2.2-6.7c1.5-1.6,3.6-2.4,6.3-2.4c1.7,0,3.2,0.4,4.4,1.1c1.3,0.7,2.3,1.8,3,3.1
		C288.9,124.1,289.3,125.7,289.3,127.5z M284.4,116.9c-1.6-1-2.9-1.9-3.7-2.8c-0.8,0.8-2,1.8-3.6,2.8H274v-0.4c2-2,3.3-3.5,4-4.7
		h5.6c0.3,0.5,0.9,1.3,1.7,2.2c0.8,0.9,1.6,1.8,2.3,2.5v0.4H284.4z M277.2,127.5c0,1.7,0.3,3,0.9,3.9c0.6,0.9,1.5,1.3,2.8,1.3
		c1.3,0,2.2-0.4,2.7-1.3c0.6-0.9,0.8-2.2,0.8-3.9c0-1.7-0.3-3-0.8-3.9c-0.6-0.9-1.5-1.3-2.8-1.3c-1.3,0-2.2,0.4-2.8,1.3
		S277.2,125.8,277.2,127.5z M278.2,140.7c0-1.6,0.9-2.3,2.6-2.3c1.7,0,2.6,0.8,2.6,2.3c0,0.7-0.2,1.3-0.7,1.7s-1.1,0.6-1.9,0.6
		C279,143,278.2,142.2,278.2,140.7z"/>
	<path class="st3" d="M309.3,136.3h-4.8v-10.2c0-1.3-0.2-2.2-0.7-2.8c-0.4-0.6-1.2-0.9-2.1-0.9c-1.3,0-2.3,0.4-2.9,1.3
		s-0.9,2.4-0.9,4.4v8.2h-4.8v-17.5h3.6l0.6,2.2h0.3c0.5-0.8,1.3-1.5,2.2-1.9c0.9-0.4,2-0.6,3.2-0.6c2,0,3.6,0.5,4.6,1.6
		c1.1,1.1,1.6,2.7,1.6,4.8V136.3z"/>
	<path class="st3" d="M329.5,136.3c0,2.5-0.7,4.4-2.2,5.7c-1.5,1.3-3.6,1.9-6.5,1.9c-2.6,0-4.7-0.3-6.5-1v-3.8
		c2.1,0.9,4.4,1.3,6.8,1.3c2.4,0,3.7-1.3,3.7-4v-0.3l0.1-2.1h-0.1c-1.1,1.7-2.8,2.6-5,2.6c-2.1,0-3.7-0.8-4.9-2.4
		c-1.2-1.6-1.7-3.8-1.7-6.6c0-2.9,0.6-5.1,1.8-6.7c1.2-1.6,2.8-2.4,4.9-2.4c2.1,0,3.8,0.9,5.1,2.6h0.1l0.4-2.2h4V136.3z
		 M321.5,132.9c1.3,0,2.2-0.4,2.8-1.1c0.6-0.7,0.8-1.9,0.8-3.6v-0.6c0-1.9-0.3-3.2-0.9-4c-0.6-0.8-1.5-1.2-2.8-1.2
		c-2.2,0-3.4,1.8-3.4,5.3c0,1.8,0.3,3.1,0.8,3.9C319.4,132.4,320.3,132.9,321.5,132.9z"/>
</g>
</svg>