<!-- Generator: Adobe Illustrator 19.1.0, SVG Export Plug-In  -->
<svg version="1.1"
	 xmlns="http://www.w3.org/2000/svg" xmlns:xlink="http://www.w3.org/1999/xlink" xmlns:a="http://ns.adobe.com/AdobeSVGViewerExtensions/3.0/"
	 x="0px" y="0px" width="167.4px" height="99.6px" viewBox="0 0 167.4 99.6"
	 style="overflow:scroll;enable-background:new 0 0 167.4 99.6;" xml:space="preserve">
<style type="text/css">
	.st0{fill:#FF6633;}
	.st1{fill:#086A87;}
</style>
<defs>
</defs>
<g>
	<path class="st0" d="M27.7,0c3.5,0,6.3,0.8,8.4,2.4c2.1,1.6,3.2,3.7,3.2,6.4c0,1.9-0.5,3.5-1.5,5c-1,1.5-2.7,2.8-5,3.9
		c2.7,1.5,4.7,3,5.9,4.6c1.2,1.6,1.8,3.3,1.8,5.2c0,3-1.2,5.4-3.5,7.2c-2.3,1.8-5.4,2.7-9.2,2.7c-4,0-7.1-0.8-9.4-2.5
		c-2.3-1.7-3.4-4.1-3.4-7.2c0-2.1,0.6-3.9,1.7-5.5c1.1-1.6,2.9-3,5.3-4.3c-2.1-1.3-3.6-2.7-4.5-4.2c-0.9-1.5-1.4-3.1-1.4-4.9
		c0-2.6,1.1-4.7,3.2-6.3C21.4,0.9,24.2,0,27.7,0z M22,27.2c0,1.4,0.5,2.5,1.5,3.3s2.4,1.2,4.1,1.2c1.9,0,3.3-0.4,4.3-1.2
		c0.9-0.8,1.4-1.9,1.4-3.2c0-1.1-0.5-2.2-1.4-3.1c-0.9-1-2.5-2-4.6-3.1C23.8,22.7,22,24.8,22,27.2z M27.7,5.7c-1.3,0-2.4,0.3-3.2,1
		s-1.2,1.6-1.2,2.7c0,1,0.3,1.9,1,2.7s1.8,1.6,3.5,2.4c1.6-0.8,2.8-1.5,3.4-2.3s1-1.7,1-2.8c0-1.1-0.4-2-1.2-2.7
		C30,6,29,5.7,27.7,5.7z"/>
	<path class="st0" d="M56.9,0c3.5,0,6.3,0.8,8.4,2.4c2.1,1.6,3.2,3.7,3.2,6.4c0,1.9-0.5,3.5-1.5,5c-1,1.5-2.7,2.8-5,3.9
		c2.7,1.5,4.7,3,5.9,4.6c1.2,1.6,1.8,3.3,1.8,5.2c0,3-1.2,5.4-3.5,7.2c-2.3,1.8-5.4,2.7-9.2,2.7c-4,0-7.1-0.8-9.4-2.5
		c-2.3-1.7-3.4-4.1-3.4-7.2c0-2.1,0.6-3.9,1.7-5.5c1.1-1.6,2.9-3,5.3-4.3c-2.1-1.3-3.6-2.7-4.5-4.2c-0.9-1.5-1.4-3.1-1.4-4.9
		c0-2.6,1.1-4.7,3.2-6.3C50.6,0.9,53.4,0,56.9,0z M51.2,27.2c0,1.4,0.5,2.5,1.5,3.3s2.4,1.2,4.1,1.2c1.9,0,3.3-0.4,4.3-1.2
		c0.9-0.8,1.4-1.9,1.4-3.2c0-1.1-0.5-2.2-1.4-3.1c-0.9-1-2.5-2-4.6-3.1C53,22.7,51.2,24.8,51.2,27.2z M56.8,5.7
		c-1.3,0-2.4,0.3-3.2,1s-1.2,1.6-1.2,2.7c0,1,0.3,1.9,1,2.7s1.8,1.6,3.5,2.4c1.6-0.8,2.8-1.5,3.4-2.3s1-1.7,1-2.8
		c0-1.1-0.4-2-1.2-2.7C59.2,6,58.1,5.7,56.8,5.7z"/>
	<path class="st0" d="M74.4,33.4c0-1.4,0.4-2.4,1.1-3.2c0.7-0.7,1.8-1.1,3.3-1.1c1.4,0,2.4,0.4,3.2,1.1s1.1,1.8,1.1,3.1
		c0,1.3-0.4,2.3-1.1,3.1c-0.8,0.8-1.8,1.1-3.2,1.1c-1.4,0-2.5-0.4-3.2-1.1C74.7,35.8,74.4,34.7,74.4,33.4z"/>
	<path class="st0" d="M101.3,13.7c3.5,0,6.3,1,8.4,3c2.1,2,3.1,4.7,3.1,8.1c0,4.1-1.3,7.2-3.8,9.4c-2.5,2.2-6.1,3.3-10.8,3.3
		c-4.1,0-7.3-0.7-9.8-2v-6.7c1.3,0.7,2.8,1.3,4.6,1.7s3.4,0.7,5,0.7c4.7,0,7-1.9,7-5.8c0-3.7-2.4-5.5-7.3-5.5
		c-0.9,0-1.9,0.1-2.9,0.3c-1.1,0.2-1.9,0.4-2.6,0.6l-3.1-1.6l1.4-18.6h19.7V7h-13l-0.7,7.1l0.9-0.2C98.5,13.8,99.8,13.7,101.3,13.7z
		"/>
	<path class="st0" d="M134,11.4c0,3.8-0.7,6.7-2.2,8.6c-1.5,1.9-3.6,2.9-6.5,2.9c-2.7,0-4.9-1-6.4-3s-2.2-4.8-2.2-8.5
		c0-7.6,2.9-11.4,8.6-11.4c2.8,0,5,1,6.5,2.9C133.3,4.9,134,7.7,134,11.4z M123,11.4c0,2.1,0.2,3.7,0.6,4.7s1,1.6,1.8,1.6
		c1.6,0,2.4-2.1,2.4-6.3c0-4.2-0.8-6.2-2.4-6.2c-0.8,0-1.4,0.5-1.8,1.5C123.2,7.8,123,9.3,123,11.4z M151.2,0.5L131,36.9h-6
		l20.2-36.4H151.2z M159.5,25.9c0,3.8-0.7,6.7-2.2,8.6c-1.5,1.9-3.6,2.9-6.5,2.9c-2.7,0-4.9-1-6.4-3c-1.5-2-2.2-4.8-2.2-8.5
		c0-7.6,2.9-11.4,8.6-11.4c2.8,0,5,1,6.5,2.9C158.8,19.5,159.5,22.3,159.5,25.9z M148.5,26c0,2.1,0.2,3.7,0.6,4.7s1,1.6,1.8,1.6
		c1.6,0,2.4-2.1,2.4-6.3c0-4.2-0.8-6.2-2.4-6.2c-0.8,0-1.4,0.5-1.8,1.5C148.7,22.3,148.5,23.9,148.5,26z"/>
	<path class="st1" d="M24.3,66c-4.1,0-6.1-2.2-6.1-6.7c0-2.2,0.6-3.9,1.7-5.1s2.7-1.8,4.8-1.8c1.5,0,2.9,0.3,4.1,0.9L27.6,56
		c-0.6-0.2-1.1-0.4-1.6-0.6s-1-0.2-1.5-0.2c-1.9,0-2.8,1.3-2.8,4c0,2.6,0.9,3.8,2.8,3.8c0.7,0,1.3-0.1,1.9-0.3s1.2-0.5,1.8-0.9V65
		c-0.6,0.4-1.2,0.6-1.8,0.8S25.2,66,24.3,66z"/>
	<path class="st1" d="M43.2,59.2c0,2.1-0.6,3.8-1.7,5S38.8,66,36.8,66c-1.3,0-2.4-0.3-3.3-0.8s-1.7-1.3-2.2-2.4s-0.8-2.2-0.8-3.6
		c0-2.1,0.6-3.8,1.7-5s2.7-1.8,4.7-1.8c1.3,0,2.4,0.3,3.3,0.8s1.7,1.3,2.2,2.4S43.2,57.8,43.2,59.2z M34.1,59.2
		c0,1.3,0.2,2.3,0.6,2.9s1.1,1,2.1,1c1,0,1.6-0.3,2.1-1s0.6-1.6,0.6-2.9c0-1.3-0.2-2.3-0.6-2.9s-1.1-1-2.1-1c-1,0-1.6,0.3-2.1,1
		S34.1,57.8,34.1,59.2z M34.9,51.2v-0.3c1.3-1.6,2.3-2.7,2.8-3.5h4v0.2c-0.4,0.4-1.1,1-2.1,1.8s-1.7,1.4-2.3,1.8H34.9z"/>
	<path class="st1" d="M57.9,63.1c0.6,0,1.4-0.1,2.3-0.4v2.7c-0.9,0.4-2,0.6-3.3,0.6c-1.4,0-2.5-0.4-3.1-1.1s-1-1.8-1-3.3v-6.3H51
		v-1.5l2-1.2l1-2.8h2.3v2.8H60v2.7h-3.7v6.3c0,0.5,0.1,0.9,0.4,1.1S57.4,63.1,57.9,63.1z"/>
	<path class="st1" d="M74.9,65.7h-3.6v-7.7c0-1.9-0.7-2.8-2.1-2.8c-1,0-1.7,0.3-2.2,1s-0.7,1.8-0.7,3.3v6.2h-3.6V47.5h3.6v3.7
		c0,0.3,0,1-0.1,2l-0.1,1.1h0.2c0.8-1.3,2.1-1.9,3.8-1.9c1.5,0,2.7,0.4,3.5,1.2s1.2,2,1.2,3.6V65.7z"/>
	<path class="st1" d="M84.5,66c-2.1,0-3.8-0.6-4.9-1.7s-1.8-2.8-1.8-4.9c0-2.2,0.5-3.9,1.6-5.1s2.6-1.8,4.6-1.8
		c1.9,0,3.3,0.5,4.3,1.6s1.5,2.5,1.5,4.4v1.7h-8.4c0,1,0.3,1.8,0.9,2.4s1.4,0.9,2.4,0.9c0.8,0,1.5-0.1,2.2-0.2s1.4-0.4,2.2-0.8V65
		c-0.6,0.3-1.3,0.5-2,0.7S85.5,66,84.5,66z M88.3,51.2h-1.9c-0.9-0.6-1.7-1.2-2.5-1.9c-0.9,0.8-1.7,1.4-2.5,1.9h-1.9v-0.3
		c0.9-1,1.7-2.1,2.5-3.3h3.7c0.4,0.6,0.9,1.2,1.4,1.9s0.9,1.1,1.1,1.4V51.2z M84,54.9c-0.8,0-1.4,0.2-1.8,0.7s-0.7,1.2-0.7,2h5
		c0-0.9-0.2-1.6-0.7-2S84.7,54.9,84,54.9z M90.7,46.6c0,0.9-0.5,1.4-1.5,1.6l-0.1,0.7h-1.5l-0.1-1.4c0.4,0,0.8-0.1,1-0.2
		s0.4-0.3,0.4-0.5c0-0.2-0.1-0.3-0.2-0.4s-0.4-0.2-0.7-0.2c-0.3,0-0.6,0-0.8,0.1v-1.5c0.2,0,0.5-0.1,1.1-0.1c0.7,0,1.3,0.1,1.8,0.4
		S90.7,46,90.7,46.6z"/>
	<path class="st1" d="M110.7,65.7h-3.6v-7.7c0-0.9-0.2-1.7-0.5-2.1s-0.8-0.7-1.5-0.7c-0.9,0-1.6,0.3-2,1s-0.6,1.8-0.6,3.3v6.2H99
		V52.6h2.7l0.5,1.7h0.2c0.4-0.6,0.9-1.1,1.5-1.4s1.4-0.5,2.3-0.5c2,0,3.3,0.6,4,1.9h0.3c0.4-0.6,0.9-1.1,1.6-1.4s1.5-0.5,2.3-0.5
		c1.5,0,2.6,0.4,3.4,1.1s1.1,2,1.1,3.7v8.5h-3.6v-7.7c0-0.9-0.2-1.7-0.5-2.1s-0.8-0.7-1.5-0.7c-0.9,0-1.5,0.3-2,0.9s-0.7,1.6-0.7,3
		V65.7z"/>
	<path class="st1" d="M131.8,65.7l-0.5-1.7h-0.2c-0.4,0.6-0.9,1.1-1.6,1.4S128,66,127.1,66c-1.5,0-2.7-0.4-3.5-1.2s-1.2-2-1.2-3.6
		v-8.5h3.6v7.7c0,0.9,0.2,1.7,0.5,2.1s0.9,0.7,1.6,0.7c1,0,1.7-0.3,2.2-1s0.7-1.8,0.7-3.3v-6.2h3.6v13.1H131.8z"/>
	<path class="st1" d="M146.6,65.7l-0.7-1.8h-0.1c-0.6,0.8-1.2,1.3-1.9,1.6s-1.5,0.4-2.5,0.4c-1.3,0-2.2-0.4-3-1.1s-1.1-1.7-1.1-3.1
		c0-1.4,0.5-2.4,1.5-3.1s2.4-1,4.4-1.1l2.3-0.1V57c0-1.3-0.7-2-2-2c-1,0-2.3,0.3-3.7,0.9l-1.2-2.4c1.5-0.8,3.2-1.2,5-1.2
		c1.8,0,3.1,0.4,4,1.1s1.4,1.9,1.4,3.5v8.7H146.6z M145.6,59.7l-1.4,0c-1,0-1.8,0.2-2.3,0.6s-0.8,0.9-0.8,1.6c0,1,0.6,1.5,1.7,1.5
		c0.8,0,1.5-0.2,2-0.7s0.7-1.1,0.7-1.9V59.7z"/>
	<path class="st1" d="M9.9,90.6c0,1.3-0.5,2.4-1.4,3.1s-2.3,1.1-4.2,1.1c-1,0-1.8-0.1-2.4-0.2S0.6,94.3,0,94v-3
		c0.7,0.3,1.4,0.6,2.2,0.8s1.6,0.3,2.2,0.3c1.3,0,1.9-0.4,1.9-1.1c0-0.3-0.1-0.5-0.3-0.7S5.7,90,5.3,89.7s-1-0.5-1.7-0.8
		c-1-0.4-1.7-0.8-2.2-1.2s-0.8-0.8-1-1.2S0,85.5,0,84.8c0-1.2,0.5-2.1,1.4-2.7s2.2-1,3.8-1c1.6,0,3.1,0.3,4.6,1l-1.1,2.6
		c-0.7-0.3-1.3-0.5-1.8-0.7s-1.2-0.3-1.7-0.3c-1.1,0-1.6,0.3-1.6,0.9c0,0.3,0.2,0.6,0.5,0.8s1.1,0.6,2.2,1c1,0.4,1.8,0.8,2.3,1.2
		s0.8,0.8,1.1,1.2S9.9,90,9.9,90.6z"/>
	<path class="st1" d="M21,94.5l-0.7-1.8h-0.1c-0.6,0.8-1.2,1.3-1.9,1.6s-1.5,0.4-2.5,0.4c-1.3,0-2.2-0.4-3-1.1s-1.1-1.7-1.1-3.1
		c0-1.4,0.5-2.4,1.5-3.1s2.4-1,4.4-1.1l2.3-0.1v-0.6c0-1.3-0.7-2-2-2c-1,0-2.3,0.3-3.7,0.9l-1.2-2.4c1.5-0.8,3.2-1.2,5-1.2
		c1.8,0,3.1,0.4,4,1.1s1.4,1.9,1.4,3.5v8.7H21z M22.3,76c-0.1,1.2-0.5,2.2-1.3,2.9S19.3,80,18,80c-1.3,0-2.3-0.3-3-1s-1.1-1.7-1.2-3
		h1.8c0.1,0.7,0.3,1.2,0.8,1.5s1,0.5,1.7,0.5s1.3-0.2,1.7-0.6s0.7-0.8,0.8-1.4H22.3z M20,88.5l-1.4,0c-1,0-1.8,0.2-2.3,0.6
		s-0.8,0.9-0.8,1.6c0,1,0.6,1.5,1.7,1.5c0.8,0,1.5-0.2,2-0.7s0.7-1.1,0.7-1.9V88.5z M16.9,76.6c0.5-0.8,1-1.6,1.4-2.4h2.6v0.2
		c-0.7,0.9-1.5,1.7-2.4,2.4h-1.5V76.6z"/>
	<path class="st1" d="M39,94.5h-3.6v-7.7c0-0.9-0.2-1.7-0.5-2.1S34.1,84,33.4,84c-0.9,0-1.6,0.3-2,1s-0.6,1.8-0.6,3.3v6.2h-3.6V81.4
		H30l0.5,1.7h0.2c0.4-0.6,0.9-1.1,1.5-1.4s1.4-0.5,2.3-0.5c2,0,3.3,0.6,4,1.9h0.3c0.4-0.6,0.9-1.1,1.6-1.4s1.5-0.5,2.3-0.5
		c1.5,0,2.6,0.4,3.4,1.1s1.1,2,1.1,3.7v8.5h-3.6v-7.7c0-0.9-0.2-1.7-0.5-2.1S42.2,84,41.6,84c-0.9,0-1.5,0.3-2,0.9S39,86.6,39,88
		V94.5z"/>
	<path class="st1" d="M68.9,88c0,2.1-0.6,3.8-1.7,5s-2.7,1.8-4.7,1.8c-1.3,0-2.4-0.3-3.3-0.8s-1.7-1.3-2.2-2.4s-0.8-2.2-0.8-3.6
		c0-2.1,0.6-3.8,1.7-5s2.7-1.8,4.7-1.8c0.9,0,1.7,0.1,2.5,0.4s1.4,0.7,2,1.2c1.2-0.4,1.7-1.5,1.7-3.3h3.5l0.2,0.3
		c-0.2,1-0.5,1.9-0.8,2.5s-0.8,1.1-1.3,1.5s-1.2,0.7-2.1,0.9C68.7,85.7,68.9,86.8,68.9,88z M59.9,88c0,1.3,0.2,2.3,0.6,2.9
		s1.1,1,2.1,1c1,0,1.6-0.3,2.1-1s0.6-1.6,0.6-2.9c0-1.3-0.2-2.3-0.6-2.9s-1.1-1-2.1-1c-1,0-1.6,0.3-2.1,1S59.9,86.7,59.9,88z
		 M65.7,77.1c0,1.2-0.6,2-1.9,2.3l-0.1,0.8h-2l-0.3-1.7c0.6-0.1,1-0.2,1.2-0.4s0.3-0.4,0.3-0.7c0-0.3-0.1-0.4-0.2-0.6
		s-0.4-0.2-0.6-0.2c-0.5,0-1.1,0.1-1.6,0.3v-2c0.2-0.1,0.6-0.1,1-0.2s0.8-0.1,1.1-0.1c1.1,0,1.9,0.2,2.5,0.7S65.7,76.3,65.7,77.1z"
		/>
	<path class="st1" d="M91.3,94.5h-3.6v-7.7c0-0.9-0.2-1.7-0.5-2.1S86.4,84,85.7,84c-0.9,0-1.6,0.3-2,1s-0.6,1.8-0.6,3.3v6.2h-3.6
		V81.4h2.7l0.5,1.7H83c0.4-0.6,0.9-1.1,1.5-1.4s1.4-0.5,2.3-0.5c2,0,3.3,0.6,4,1.9h0.3c0.4-0.6,0.9-1.1,1.6-1.4s1.5-0.5,2.3-0.5
		c1.5,0,2.6,0.4,3.4,1.1s1.1,2,1.1,3.7v8.5h-3.6v-7.7c0-0.9-0.2-1.7-0.5-2.1S94.6,84,93.9,84c-0.9,0-1.5,0.3-2,0.9s-0.7,1.6-0.7,3
		V94.5z"/>
	<path class="st1" d="M115,88c0,2.1-0.6,3.8-1.7,5s-2.7,1.8-4.7,1.8c-1.3,0-2.4-0.3-3.3-0.8s-1.7-1.3-2.2-2.4s-0.8-2.2-0.8-3.6
		c0-2.1,0.6-3.8,1.7-5s2.7-1.8,4.7-1.8c1.3,0,2.4,0.3,3.3,0.8s1.7,1.3,2.2,2.4S115,86.6,115,88z M106,88c0,1.3,0.2,2.3,0.6,2.9
		s1.1,1,2.1,1c1,0,1.6-0.3,2.1-1s0.6-1.6,0.6-2.9c0-1.3-0.2-2.3-0.6-2.9s-1.1-1-2.1-1c-1,0-1.6,0.3-2.1,1S106,86.7,106,88z
		 M106.7,97.8c0-1.2,0.6-1.8,1.9-1.8s1.9,0.6,1.9,1.8c0,0.6-0.2,1-0.5,1.3s-0.8,0.5-1.5,0.5C107.4,99.6,106.7,99,106.7,97.8z"/>
	<path class="st1" d="M117.8,78c0-1.2,0.6-1.7,1.9-1.7s1.9,0.6,1.9,1.7c0,0.6-0.2,1-0.5,1.3s-0.8,0.5-1.5,0.5
		C118.5,79.8,117.8,79.2,117.8,78z M121.6,94.5H118V81.4h3.6V94.5z"/>
	<path class="st1" d="M143.6,94.5h-3.6v-7.7c0-0.9-0.2-1.7-0.5-2.1S138.7,84,138,84c-1,0-1.7,0.3-2.2,1s-0.7,1.8-0.7,3.3v6.2h-3.6
		V81.4h2.7l0.5,1.7h0.2c0.4-0.6,0.9-1.1,1.6-1.4s1.5-0.5,2.4-0.5c1.5,0,2.7,0.4,3.5,1.2s1.2,2,1.2,3.6V94.5z"/>
	<path class="st1" d="M159.2,88c0,2.1-0.6,3.8-1.7,5s-2.7,1.8-4.7,1.8c-1.3,0-2.4-0.3-3.3-0.8s-1.7-1.3-2.2-2.4s-0.8-2.2-0.8-3.6
		c0-2.1,0.6-3.8,1.7-5s2.7-1.8,4.7-1.8c0.9,0,1.7,0.1,2.5,0.4s1.4,0.7,2,1.2c1.2-0.4,1.7-1.5,1.7-3.3h3.5l0.2,0.3
		c-0.2,1-0.5,1.9-0.8,2.5s-0.8,1.1-1.3,1.5s-1.2,0.7-2.1,0.9C159,85.7,159.2,86.8,159.2,88z M150.2,88c0,1.3,0.2,2.3,0.6,2.9
		s1.1,1,2.1,1c1,0,1.6-0.3,2.1-1s0.6-1.6,0.6-2.9c0-1.3-0.2-2.3-0.6-2.9s-1.1-1-2.1-1c-1,0-1.6,0.3-2.1,1S150.2,86.7,150.2,88z"/>
	<path class="st1" d="M163.5,78c0-1.2,0.6-1.7,1.9-1.7s1.9,0.6,1.9,1.7c0,0.6-0.2,1-0.5,1.3s-0.8,0.5-1.5,0.5
		C164.1,79.8,163.5,79.2,163.5,78z M167.2,94.5h-3.6V81.4h3.6V94.5z"/>
</g>
</svg>