<!-- Generator: Adobe Illustrator 19.1.0, SVG Export Plug-In  -->
<svg version="1.1"
	 xmlns="http://www.w3.org/2000/svg" xmlns:xlink="http://www.w3.org/1999/xlink" xmlns:a="http://ns.adobe.com/AdobeSVGViewerExtensions/3.0/"
	 x="0px" y="0px" width="305.8px" height="217.5px" viewBox="0 0 305.8 217.5"
	 style="overflow:scroll;enable-background:new 0 0 305.8 217.5;" xml:space="preserve">
<style type="text/css">
	.st0{fill:#33CCCC;stroke:#33CCCC;stroke-width:2.9989;stroke-miterlimit:10;}
	.st1{fill:#FFFFFF;}
</style>
<defs>
</defs>
<g>
	<path class="st0" d="M289.8,1.5H15.9C8,1.5,1.5,5.9,1.5,11.3v148.4v15.4v39.8l52.8-30.1h235.5c7.9,0,14.4-4.4,14.4-9.8V11.3
		C304.3,5.9,297.8,1.5,289.8,1.5"/>
	<g>
		<g>
			<path class="st1" d="M102,122.3c0-12.6,4.9-18.9,14.7-18.9c1.7,0,3,0.1,4,0.4v3.4c-1.1-0.4-2.4-0.5-3.9-0.5c-3.4,0-6,1-7.9,3.1
				c-1.8,2.1-2.8,5.4-3,9.9h0.3c1.6-2.5,4.2-3.8,7.6-3.8c2.9,0,5.2,0.9,6.9,2.6c1.7,1.8,2.5,4.1,2.5,7.1c0,3.3-0.9,6-2.8,7.9
				c-1.8,1.9-4.3,2.9-7.5,2.9c-2.2,0-4.1-0.6-5.8-1.7c-1.7-1.1-2.9-2.8-3.8-4.9C102.4,127.8,102,125.2,102,122.3z M112.9,133.2
				c2,0,3.6-0.7,4.7-2c1.1-1.3,1.7-3.2,1.7-5.5c0-2.1-0.5-3.8-1.6-4.9c-1.1-1.2-2.6-1.7-4.6-1.7c-1.3,0-2.5,0.3-3.5,0.8
				c-1.1,0.5-1.9,1.3-2.6,2.2c-0.6,0.9-1,1.9-1,2.9c0,1.5,0.3,2.8,0.9,4.1c0.6,1.3,1.4,2.3,2.4,3
				C110.4,132.8,111.6,133.2,112.9,133.2z"/>
			<path class="st1" d="M148.9,119.9c0,5.6-0.9,9.8-2.7,12.5c-1.8,2.7-4.5,4.1-8.1,4.1c-3.5,0-6.1-1.4-8-4.2
				c-1.8-2.8-2.7-6.9-2.7-12.4c0-5.6,0.9-9.8,2.6-12.5c1.7-2.7,4.4-4.1,8.1-4.1c3.5,0,6.2,1.4,8,4.2
				C148,110.4,148.9,114.5,148.9,119.9z M131.5,119.9c0,4.7,0.5,8,1.6,10.1c1.1,2.1,2.8,3.1,5.1,3.1c2.4,0,4.1-1.1,5.1-3.2
				c1.1-2.1,1.6-5.5,1.6-10c0-4.5-0.5-7.9-1.6-10c-1.1-2.1-2.8-3.2-5.1-3.2c-2.4,0-4.1,1-5.1,3.1C132,111.9,131.5,115.3,131.5,119.9
				z"/>
			<path class="st1" d="M166.7,113.4c0,3.4-0.6,5.9-1.7,7.6c-1.2,1.7-2.8,2.6-5.1,2.6c-2.1,0-3.7-0.9-4.9-2.6
				c-1.2-1.8-1.7-4.3-1.7-7.5c0-3.4,0.6-5.9,1.7-7.6c1.1-1.7,2.8-2.5,4.9-2.5c2.2,0,3.8,0.9,5,2.6
				C166.1,107.7,166.7,110.2,166.7,113.4z M156.6,113.4c0,2.4,0.3,4.3,0.8,5.5c0.5,1.2,1.4,1.8,2.5,1.8c2.3,0,3.5-2.4,3.5-7.3
				c0-4.8-1.2-7.3-3.5-7.3c-1.1,0-2,0.6-2.5,1.8S156.6,111,156.6,113.4z M180.5,103.8l-17.9,32.2h-3.5l17.9-32.2H180.5z
				 M186.4,126.4c0,3.3-0.6,5.9-1.7,7.6s-2.8,2.6-5,2.6c-2.1,0-3.7-0.9-4.9-2.6c-1.2-1.8-1.7-4.3-1.7-7.5c0-3.4,0.6-5.9,1.7-7.6
				c1.1-1.7,2.8-2.5,4.9-2.5c2.2,0,3.8,0.9,5,2.6C185.8,120.6,186.4,123.1,186.4,126.4z M176.4,126.4c0,2.5,0.3,4.3,0.8,5.5
				c0.5,1.2,1.4,1.8,2.5,1.8c1.2,0,2.1-0.6,2.6-1.8c0.6-1.2,0.8-3,0.8-5.5c0-4.8-1.2-7.2-3.5-7.2c-1.1,0-2,0.6-2.5,1.8
				C176.6,122.1,176.4,123.9,176.4,126.4z"/>
		</g>
	</g>
	<g>
		<g>
			<path class="st1" d="M20.2,53.6h3V40.1h10.1c5.3,0,9.3,1.4,12.3,4.2s4.4,6.7,4.4,11.6c0,5.3-1.5,9.4-4.5,12.2
				c-3,2.8-7.4,4.2-13.1,4.2h-9.1V59.2h-3V53.6z M42.8,56.1c0-3.4-0.8-6-2.3-7.7c-1.5-1.8-3.8-2.6-6.9-2.6H30v7.9h5.2v5.6H30v7.5
				h2.9C39.5,66.7,42.8,63.2,42.8,56.1z"/>
			<path class="st1" d="M55.8,78.6c0-2.2,1.2-3.3,3.7-3.3c2.4,0,3.7,1.1,3.7,3.3c0,1-0.3,1.9-0.9,2.4s-1.5,0.9-2.7,0.9
				C57,81.8,55.8,80.8,55.8,78.6z M55.8,41.4c0-2.2,1.2-3.3,3.7-3.3c2.4,0,3.7,1.1,3.7,3.3c0,1-0.3,1.9-0.9,2.4
				c-0.6,0.6-1.5,0.9-2.7,0.9C57,44.7,55.8,43.6,55.8,41.4z M62.8,72.4h-6.7V47.7h6.7V72.4z"/>
			<path class="st1" d="M85.5,72.4L84.2,69H84c-1.1,1.4-2.3,2.4-3.5,3c-1.2,0.6-2.8,0.8-4.7,0.8c-2.4,0-4.2-0.7-5.6-2
				c-1.4-1.4-2-3.3-2-5.8c0-2.6,0.9-4.5,2.7-5.8s4.6-1.9,8.3-2.1l4.3-0.1v-1.1c0-2.5-1.3-3.7-3.8-3.7c-2,0-4.3,0.6-6.9,1.8l-2.2-4.5
				c2.8-1.5,6-2.2,9.4-2.2c3.3,0,5.8,0.7,7.6,2.2c1.8,1.4,2.6,3.6,2.6,6.6v16.4H85.5z M83.5,61L80.9,61c-2,0.1-3.4,0.4-4.4,1.1
				c-1,0.6-1.4,1.6-1.4,3c0,1.9,1.1,2.8,3.3,2.8c1.6,0,2.8-0.4,3.7-1.3s1.4-2.1,1.4-3.6V61z"/>
			<path class="st1" d="M122.4,72.8c-2.9,0-5.2-1-6.8-3.2h-0.4c0.2,2.1,0.4,3.2,0.4,3.6v10h-6.7V47.7h5.5l0.9,3.2h0.3
				c1.6-2.4,3.9-3.7,7-3.7c2.9,0,5.2,1.1,6.8,3.4c1.6,2.2,2.5,5.4,2.5,9.4c0,2.6-0.4,4.9-1.2,6.9s-1.9,3.4-3.3,4.4
				C126,72.3,124.3,72.8,122.4,72.8z M120.4,52.6c-1.7,0-2.9,0.5-3.6,1.5s-1.2,2.7-1.2,5.1V60c0,2.6,0.4,4.5,1.2,5.7
				c0.8,1.1,2,1.7,3.7,1.7c3,0,4.5-2.5,4.5-7.5c0-2.4-0.4-4.2-1.1-5.5C123.2,53.2,122,52.6,120.4,52.6z"/>
			<path class="st1" d="M160.2,72.4h-6.7V58c0-3.6-1.3-5.3-4-5.3c-1.9,0-3.2,0.6-4.1,1.9c-0.8,1.3-1.3,3.4-1.3,6.2v11.6h-6.7V38.1
				h6.7v7c0,0.5-0.1,1.8-0.2,3.8l-0.2,2h0.4c1.5-2.4,3.9-3.6,7.1-3.6c2.9,0,5.1,0.8,6.6,2.3c1.5,1.6,2.2,3.8,2.2,6.7V72.4z"/>
			<path class="st1" d="M184.5,72.4l-0.9-3.2h-0.4c-0.7,1.1-1.7,2-3,2.6c-1.3,0.6-2.8,0.9-4.5,0.9c-2.9,0-5.1-0.8-6.5-2.3
				c-1.5-1.6-2.2-3.8-2.2-6.7V47.7h6.7v14.4c0,1.8,0.3,3.1,0.9,4c0.6,0.9,1.6,1.3,3,1.3c1.9,0,3.2-0.6,4.1-1.9
				c0.8-1.3,1.3-3.3,1.3-6.2V47.7h6.7v2.6c1-0.3,1.9-1,2.4-2.1s0.9-2.5,0.9-4.2h6.6l0.3,0.5c-0.5,2.3-1.1,4.1-1.9,5.3
				c-0.8,1.2-1.9,2.2-3.2,3c-1.3,0.7-3.1,1.3-5.1,1.6v18H184.5z"/>
			<path class="st1" d="M223.8,60c0,4-1.1,7.1-3.2,9.4c-2.1,2.3-5.1,3.4-8.8,3.4c-2.4,0-4.5-0.5-6.3-1.6s-3.2-2.5-4.2-4.5
				c-1-1.9-1.5-4.2-1.5-6.8c0-4,1.1-7.2,3.2-9.4c2.1-2.2,5.1-3.3,8.9-3.3c1.6,0,3.2,0.3,4.7,0.8c1.5,0.5,2.7,1.3,3.8,2.3
				c2.2-0.7,3.3-2.8,3.3-6.3h6.6l0.3,0.5c-0.4,2-0.9,3.5-1.6,4.7c-0.6,1.2-1.5,2.1-2.5,2.9s-2.3,1.4-3.9,1.8
				C223.4,55.7,223.8,57.7,223.8,60z M206.7,60c0,2.4,0.4,4.3,1.2,5.5c0.8,1.2,2.1,1.9,3.9,1.9c1.8,0,3.1-0.6,3.9-1.9
				c0.8-1.2,1.2-3.1,1.2-5.5c0-2.4-0.4-4.3-1.2-5.5s-2.1-1.8-3.9-1.8c-1.8,0-3.1,0.6-3.9,1.8C207.1,55.7,206.7,57.5,206.7,60z"/>
			<path class="st1" d="M254.8,72.4h-6.7V58c0-1.8-0.3-3.1-0.9-4c-0.6-0.9-1.6-1.3-3-1.3c-1.9,0-3.2,0.6-4.1,1.9
				c-0.8,1.3-1.3,3.3-1.3,6.2v11.6H232V47.7h5.1l0.9,3.2h0.4c0.7-1.2,1.8-2.1,3.1-2.7c1.3-0.6,2.8-0.9,4.5-0.9c2.9,0,5,0.8,6.5,2.3
				s2.2,3.8,2.2,6.7V72.4z"/>
			<path class="st1" d="M283.3,72.4c0,3.5-1,6.2-3.1,8.1c-2.1,1.8-5.1,2.7-9.2,2.7c-3.6,0-6.7-0.5-9.2-1.5v-5.4
				c3,1.3,6.2,1.9,9.6,1.9c3.5,0,5.2-1.9,5.2-5.6v-0.5l0.2-3h-0.2c-1.6,2.4-3.9,3.6-7,3.6c-3,0-5.2-1.1-6.9-3.4
				c-1.6-2.3-2.4-5.4-2.4-9.3c0-4,0.8-7.2,2.5-9.4c1.7-2.3,4-3.4,7-3.4c3,0,5.4,1.2,7.1,3.6h0.2l0.6-3.2h5.7V72.4z M271.9,67.5
				c1.8,0,3.1-0.5,3.9-1.6c0.8-1,1.2-2.7,1.2-5v-0.8c0-2.6-0.4-4.5-1.2-5.7c-0.8-1.2-2.1-1.7-3.9-1.7c-3.2,0-4.7,2.5-4.7,7.5
				c0,2.5,0.4,4.3,1.2,5.5S270.3,67.5,271.9,67.5z"/>
		</g>
	</g>
</g>
</svg>