<!-- Generator: Adobe Illustrator 19.1.0, SVG Export Plug-In  -->
<svg version="1.1"
	 xmlns="http://www.w3.org/2000/svg" xmlns:xlink="http://www.w3.org/1999/xlink" xmlns:a="http://ns.adobe.com/AdobeSVGViewerExtensions/3.0/"
	 x="0px" y="0px" width="206.8px" height="218.1px" viewBox="0 0 206.8 218.1"
	 style="overflow:scroll;enable-background:new 0 0 206.8 218.1;" xml:space="preserve">
<style type="text/css">
	.st0{fill:#33CCCC;stroke:#33CCCC;stroke-width:2.9989;stroke-miterlimit:10;}
	.st1{fill:#FFFFFF;}
</style>
<defs>
</defs>
<path class="st0" d="M195.6,1.5H11.2c-5.3,0-9.7,4.4-9.7,9.8v148.4v15.4v39.8L37,184.8h158.5c5.3,0,9.7-4.4,9.7-9.8V11.3
	C205.3,5.9,200.9,1.5,195.6,1.5"/>
<g>
	<g>
		<path class="st1" d="M38.4,72.1V39.9h6.8v26.6h13.1v5.6H38.4z"/>
		<path class="st1" d="M85.7,59.8c0,4-1.1,7.1-3.2,9.4c-2.1,2.3-5.1,3.4-8.8,3.4c-2.4,0-4.5-0.5-6.3-1.6c-1.8-1-3.2-2.5-4.2-4.5
			c-1-1.9-1.5-4.2-1.5-6.8c0-4,1.1-7.2,3.2-9.4c2.1-2.2,5.1-3.4,8.9-3.4c2.4,0,4.5,0.5,6.3,1.5s3.2,2.5,4.2,4.4S85.7,57.2,85.7,59.8
			z M68.7,59.8c0,2.4,0.4,4.3,1.2,5.5c0.8,1.2,2.1,1.9,3.9,1.9c1.8,0,3.1-0.6,3.9-1.9c0.8-1.2,1.2-3.1,1.2-5.5
			c0-2.4-0.4-4.3-1.2-5.5s-2.1-1.8-3.9-1.8c-1.8,0-3.1,0.6-3.9,1.8C69.1,55.5,68.7,57.3,68.7,59.8z"/>
		<path class="st1" d="M101.3,72.6c-7.7,0-11.5-4.2-11.5-12.6c0-4.2,1-7.4,3.1-9.6c2.1-2.2,5.1-3.3,9-3.3c2.9,0,5.4,0.6,7.7,1.7
			l-2,5.2c-1.1-0.4-2-0.8-3-1c-0.9-0.3-1.8-0.4-2.7-0.4c-3.5,0-5.2,2.5-5.2,7.5c0,4.8,1.7,7.2,5.2,7.2c1.3,0,2.5-0.2,3.6-0.5
			s2.2-0.9,3.3-1.6v5.8c-1.1,0.7-2.2,1.2-3.3,1.4C104.4,72.4,103,72.6,101.3,72.6z"/>
		<path class="st1" d="M130.2,72.1l-1.3-3.4h-0.2c-1.1,1.4-2.3,2.4-3.5,3c-1.2,0.6-2.8,0.8-4.7,0.8c-2.4,0-4.2-0.7-5.6-2
			c-1.4-1.4-2-3.3-2-5.8c0-2.6,0.9-4.5,2.7-5.8c1.8-1.2,4.6-1.9,8.3-2.1l4.3-0.1v-1.1c0-2.5-1.3-3.7-3.8-3.7c-2,0-4.3,0.6-6.9,1.8
			l-2.2-4.5c2.8-1.5,6-2.2,9.4-2.2c3.3,0,5.8,0.7,7.6,2.2c1.8,1.4,2.6,3.6,2.6,6.6v16.4H130.2z M128.2,60.7l-2.6,0.1
			c-2,0.1-3.4,0.4-4.4,1.1c-1,0.6-1.4,1.6-1.4,3c0,1.9,1.1,2.8,3.3,2.8c1.6,0,2.8-0.4,3.7-1.3c0.9-0.9,1.4-2.1,1.4-3.6V60.7z"/>
		<path class="st1" d="M148.5,72.1h-6.7V37.8h6.7V72.1z"/>
	</g>
</g>
<g>
	<g>
		<path class="st1" d="M38,107.3c0-12.6,4.9-18.9,14.7-18.9c1.7,0,3,0.1,4,0.4v3.4c-1.1-0.4-2.4-0.5-3.9-0.5c-3.4,0-6,1-7.9,3.1
			c-1.8,2.1-2.8,5.4-3,9.9h0.3c1.6-2.5,4.2-3.8,7.6-3.8c2.9,0,5.2,0.9,6.9,2.6s2.5,4.1,2.5,7.1c0,3.3-0.9,6-2.8,7.9
			s-4.3,2.9-7.5,2.9c-2.2,0-4.1-0.6-5.8-1.7c-1.7-1.1-2.9-2.8-3.8-4.9C38.4,112.8,38,110.2,38,107.3z M48.9,118.2c2,0,3.6-0.7,4.7-2
			c1.1-1.3,1.7-3.2,1.7-5.5c0-2.1-0.5-3.8-1.6-4.9c-1.1-1.2-2.6-1.7-4.6-1.7c-1.3,0-2.5,0.3-3.5,0.8c-1.1,0.5-1.9,1.3-2.6,2.2
			s-1,1.9-1,2.9c0,1.5,0.3,2.8,0.9,4.1c0.6,1.3,1.4,2.3,2.4,3C46.4,117.8,47.6,118.2,48.9,118.2z"/>
		<path class="st1" d="M84.9,104.9c0,5.6-0.9,9.8-2.7,12.5c-1.8,2.7-4.5,4.1-8.1,4.1c-3.5,0-6.1-1.4-8-4.2s-2.7-6.9-2.7-12.4
			c0-5.6,0.9-9.8,2.6-12.5s4.4-4.1,8.1-4.1c3.5,0,6.2,1.4,8,4.2C84,95.4,84.9,99.5,84.9,104.9z M67.5,104.9c0,4.7,0.5,8,1.6,10.1
			c1.1,2.1,2.8,3.1,5.1,3.1c2.4,0,4.1-1.1,5.1-3.2c1.1-2.1,1.6-5.5,1.6-10c0-4.5-0.5-7.9-1.6-10c-1.1-2.1-2.8-3.2-5.1-3.2
			c-2.4,0-4.1,1-5.1,3.1C68,96.9,67.5,100.3,67.5,104.9z"/>
		<path class="st1" d="M102.7,98.4c0,3.4-0.6,5.9-1.7,7.6c-1.2,1.7-2.8,2.6-5.1,2.6c-2.1,0-3.7-0.9-4.9-2.6
			c-1.2-1.8-1.7-4.3-1.7-7.5c0-3.4,0.6-5.9,1.7-7.6c1.1-1.7,2.8-2.5,4.9-2.5c2.2,0,3.8,0.9,5,2.6S102.7,95.2,102.7,98.4z M92.6,98.4
			c0,2.4,0.3,4.3,0.8,5.5s1.4,1.8,2.5,1.8c2.3,0,3.5-2.4,3.5-7.3c0-4.8-1.2-7.3-3.5-7.3c-1.1,0-2,0.6-2.5,1.8S92.6,96,92.6,98.4z
			 M116.5,88.8l-17.9,32.2h-3.5l17.9-32.2H116.5z M122.4,111.4c0,3.3-0.6,5.9-1.7,7.6s-2.8,2.6-5,2.6c-2.1,0-3.7-0.9-4.9-2.6
			c-1.2-1.8-1.7-4.3-1.7-7.5c0-3.4,0.6-5.9,1.7-7.6c1.1-1.7,2.8-2.5,4.9-2.5c2.2,0,3.8,0.9,5,2.6
			C121.8,105.6,122.4,108.1,122.4,111.4z M112.4,111.4c0,2.5,0.3,4.3,0.8,5.5c0.5,1.2,1.4,1.8,2.5,1.8c1.2,0,2.1-0.6,2.6-1.8
			c0.6-1.2,0.8-3,0.8-5.5c0-4.8-1.2-7.2-3.5-7.2c-1.1,0-2,0.6-2.5,1.8C112.6,107.1,112.4,108.9,112.4,111.4z"/>
	</g>
</g>
</svg>