<!-- Generator: Adobe Illustrator 19.1.0, SVG Export Plug-In  -->
<svg version="1.1"
	 xmlns="http://www.w3.org/2000/svg" xmlns:xlink="http://www.w3.org/1999/xlink" xmlns:a="http://ns.adobe.com/AdobeSVGViewerExtensions/3.0/"
	 x="0px" y="0px" width="364.5px" height="530.8px" viewBox="0 0 364.5 530.8"
	 style="overflow:scroll;enable-background:new 0 0 364.5 530.8;" xml:space="preserve">
<style type="text/css">
	.st0{fill:none;stroke:#ED6A4A;stroke-width:8.5039;stroke-miterlimit:10;}
	.st1{fill:#FF6633;}
	.st2{fill:#9D9FA0;}
	.st3{fill:#E3E3E3;}
	.st4{fill:none;stroke:#086A87;stroke-width:2.6109;stroke-linecap:round;stroke-linejoin:round;stroke-miterlimit:10;}
	.st5{fill:#086A87;}
	.st6{fill:none;stroke:#086A87;stroke-width:1.9998;stroke-linecap:round;stroke-linejoin:round;stroke-miterlimit:10;}
	.st7{fill:#33CCCC;}
	.st8{fill:#33CCCC;stroke:#FFFFFF;stroke-width:2.1754;stroke-linecap:round;stroke-linejoin:round;stroke-miterlimit:10;}
	.st9{fill:#33CCCC;stroke:#FFFFFF;stroke-width:2.1409;stroke-linecap:round;stroke-linejoin:round;stroke-miterlimit:10;}
	.st10{fill:#FFFFFF;}
</style>
<defs>
</defs>
<path class="st0" d="M190.5,4.3c-51.2,0-92.7,41.5-92.7,92.7v132.2h185.3V96.9C283.2,45.7,241.7,4.3,190.5,4.3z"/>
<polygon class="st1" points="49.4,116.7 49.4,241.9 47.5,241.9 47.5,365.1 364.5,365.1 364.5,261.4 364.5,241.9 364.5,116.7 "/>
<rect y="364.6" class="st2" width="124.7" height="166.2"/>
<rect x="249.5" y="364.6" class="st2" width="115" height="166.2"/>
<rect x="124.7" y="364.6" class="st3" width="124.7" height="166.2"/>
<g>
	<g>
		<path class="st4" d="M289.8,447.7h31c5.1,0,9.2-4.1,9.2-9.2v-42.6c0-5.1-4.1-9.2-9.2-9.2H282c-1.8,0-3.3,1.5-3.3,3.3v54.3
			c0,1.8,1.5,3.3,3.3,3.3h0.4"/>
		<line class="st4" x1="278.6" y1="436.2" x2="330.1" y2="436.2"/>
		<polygon class="st4" points="286.1,440.4 282.4,440.4 282.4,455.1 286.1,452.1 289.8,455.1 289.8,440.4 		"/>
		<rect x="291.1" y="394.6" class="st4" width="32.7" height="12.6"/>
		<line class="st4" x1="278.6" y1="440.4" x2="320.2" y2="440.4"/>
		<line class="st4" x1="284.2" y1="386.8" x2="284.2" y2="436.2"/>
	</g>
	<g>
		<g>
			<path class="st5" d="M299.7,487.6h-10.3v-2.2l3.7-3.7c1.1-1.1,1.8-1.9,2.1-2.3c0.3-0.4,0.6-0.8,0.7-1.2s0.2-0.8,0.2-1.1
				c0-0.6-0.2-1-0.5-1.3c-0.3-0.3-0.8-0.4-1.3-0.4c-0.6,0-1.1,0.1-1.7,0.4s-1.1,0.6-1.7,1.1l-1.7-2c0.7-0.6,1.3-1.1,1.8-1.3
				c0.5-0.3,1-0.5,1.6-0.6s1.2-0.2,1.9-0.2c0.9,0,1.7,0.2,2.4,0.5c0.7,0.3,1.3,0.8,1.6,1.4c0.4,0.6,0.6,1.3,0.6,2.1
				c0,0.7-0.1,1.3-0.4,1.9c-0.2,0.6-0.6,1.2-1.1,1.8c-0.5,0.6-1.4,1.5-2.6,2.7l-1.9,1.8v0.1h6.4V487.6z"/>
			<path class="st5" d="M308,477.2c0,1.5-0.3,2.7-0.9,3.5c-0.6,0.8-1.5,1.2-2.6,1.2c-1.1,0-2-0.4-2.6-1.2c-0.6-0.8-0.9-1.9-0.9-3.4
				c0-3.1,1.2-4.6,3.5-4.6c1.1,0,2,0.4,2.6,1.2C307.7,474.6,308,475.8,308,477.2z M303.5,477.3c0,0.9,0.1,1.5,0.2,1.9
				c0.2,0.4,0.4,0.6,0.7,0.6c0.6,0,1-0.8,1-2.5c0-1.7-0.3-2.5-1-2.5c-0.3,0-0.6,0.2-0.7,0.6C303.6,475.8,303.5,476.4,303.5,477.3z
				 M314.9,472.8l-8.2,14.7h-2.4l8.2-14.7H314.9z M318.3,483.1c0,1.5-0.3,2.7-0.9,3.5c-0.6,0.8-1.5,1.2-2.6,1.2
				c-1.1,0-2-0.4-2.6-1.2c-0.6-0.8-0.9-1.9-0.9-3.4c0-3.1,1.2-4.6,3.5-4.6c1.1,0,2,0.4,2.6,1.2C318,480.5,318.3,481.6,318.3,483.1z
				 M313.8,483.1c0,0.9,0.1,1.5,0.2,1.9s0.4,0.6,0.7,0.6c0.6,0,1-0.8,1-2.5c0-1.7-0.3-2.5-1-2.5c-0.3,0-0.6,0.2-0.7,0.6
				S313.8,482.3,313.8,483.1z"/>
		</g>
	</g>
	<g>
		<g>
			<path class="st5" d="M290.5,507c0,1.2-0.4,2.1-1.3,2.8s-2,1-3.6,1c-1.6,0-2.9-0.2-3.7-0.6v-1.6c0.6,0.2,1.2,0.4,1.9,0.6
				c0.7,0.1,1.3,0.2,1.9,0.2c1,0,1.8-0.2,2.3-0.6c0.5-0.4,0.8-0.9,0.8-1.6c0-0.5-0.1-0.8-0.3-1.1c-0.2-0.3-0.5-0.6-0.9-0.8
				c-0.4-0.3-1.1-0.5-2-0.9c-1.3-0.5-2.2-1-2.7-1.6c-0.5-0.6-0.8-1.4-0.8-2.4c0-1.1,0.4-1.9,1.2-2.5c0.8-0.6,1.8-0.9,3.1-0.9
				c1.4,0,2.6,0.3,3.7,0.8l-0.5,1.5c-1.2-0.5-2.2-0.7-3.2-0.7c-0.8,0-1.4,0.2-1.9,0.5c-0.5,0.3-0.7,0.8-0.7,1.5
				c0,0.4,0.1,0.8,0.3,1.1c0.2,0.3,0.5,0.6,0.9,0.8c0.4,0.2,1,0.5,1.9,0.8c1,0.4,1.8,0.7,2.3,1.1c0.5,0.3,0.9,0.8,1.1,1.2
				C290.3,505.9,290.5,506.4,290.5,507z"/>
			<path class="st5" d="M299.3,510.7l-0.3-1.4h-0.1c-0.5,0.6-1,1.1-1.5,1.3c-0.5,0.2-1.1,0.3-1.9,0.3c-1,0-1.8-0.3-2.4-0.8
				c-0.6-0.5-0.9-1.3-0.9-2.2c0-2.1,1.6-3.1,4.9-3.2l1.7-0.1v-0.6c0-0.8-0.2-1.3-0.5-1.7s-0.9-0.6-1.6-0.6c-0.5,0-1,0.1-1.5,0.2
				c-0.5,0.2-0.9,0.3-1.3,0.5l-0.5-1.3c0.5-0.3,1.1-0.5,1.7-0.6c0.6-0.2,1.2-0.2,1.8-0.2c1.2,0,2.1,0.3,2.7,0.8
				c0.6,0.5,0.9,1.4,0.9,2.6v6.9H299.3z M295.8,509.5c0.9,0,1.7-0.3,2.2-0.8c0.5-0.5,0.8-1.2,0.8-2.1v-0.9l-1.5,0.1
				c-1.2,0-2,0.2-2.6,0.6c-0.5,0.3-0.8,0.8-0.8,1.5c0,0.5,0.2,0.9,0.5,1.2C294.8,509.4,295.2,509.5,295.8,509.5z M295.4,498.9
				c0.2-0.3,0.5-0.7,0.9-1.3c0.4-0.5,0.7-1.1,0.9-1.5h2v0.2c-0.3,0.4-0.7,0.9-1.3,1.5c-0.6,0.6-1.1,1.1-1.4,1.4h-1.1V498.9z"/>
			<path class="st5" d="M307.7,510.8c-1.5,0-2.6-0.5-3.4-1.3c-0.8-0.9-1.2-2.2-1.2-3.9c0-1.7,0.4-3,1.2-3.9c0.8-0.9,2-1.4,3.5-1.4
				c0.5,0,1,0.1,1.5,0.2c0.5,0.1,0.9,0.2,1.2,0.4l-0.5,1.4c-0.9-0.3-1.6-0.5-2.2-0.5c-1,0-1.8,0.3-2.3,1c-0.5,0.6-0.7,1.6-0.7,2.9
				c0,1.2,0.2,2.2,0.7,2.8c0.5,0.7,1.2,1,2.2,1c0.9,0,1.8-0.2,2.6-0.6v1.5C309.6,510.7,308.8,510.8,307.7,510.8z"/>
			<path class="st5" d="M319.7,510.7v-6.5c0-0.8-0.2-1.4-0.6-1.9c-0.4-0.4-0.9-0.6-1.7-0.6c-1,0-1.8,0.3-2.3,0.9
				c-0.5,0.6-0.7,1.5-0.7,2.8v5.3h-1.7v-14.4h1.7v4.2c0,0.6,0,1-0.1,1.4h0.1c0.3-0.5,0.7-0.9,1.3-1.2c0.6-0.3,1.2-0.4,1.9-0.4
				c1.2,0,2.2,0.3,2.8,0.9c0.6,0.6,0.9,1.5,0.9,2.8v6.6H319.7z"/>
		</g>
	</g>
</g>
<g>
	<path class="st6" d="M219.6,425.1h-65.7c-1.8,0-3.4-1.5-3.4-3.4l0,0c0-1.8,1.5-3.4,3.4-3.4h65.7c1.8,0,3.4,1.5,3.4,3.4l0,0
		C222.9,423.6,221.4,425.1,219.6,425.1z"/>
	<g>
		<polygon class="st6" points="173.5,441.7 165.6,441.7 163.6,432.9 172.6,432.9 		"/>
		<polygon class="st6" points="185,441.7 176.5,441.7 175.5,432.9 185,432.9 		"/>
		<polygon class="st6" points="174.3,453.8 167.8,453.8 165.9,445 173.1,445 		"/>
		<polygon class="st6" points="185,453.6 177.3,453.6 176.4,445 185,445 		"/>
		<polygon class="st6" points="200,441.7 207.9,441.7 209.8,432.9 200.8,432.9 		"/>
		<polygon class="st6" points="188.5,441.7 197,441.7 197.9,432.9 188.5,432.9 		"/>
		<polygon class="st6" points="199.1,453.8 205.6,453.8 207.6,445 200.3,445 		"/>
		<polygon class="st6" points="188.5,453.6 196.1,453.6 197,445 188.5,445 		"/>
	</g>
	<path class="st6" d="M186.7,425.3H155l8.2,30.6c0,0,0.8,4.4,4.9,5.4h18.7h18.7c4.1-1.1,4.9-5.4,4.9-5.4l8.2-30.6H186.7z"/>
	<path class="st6" d="M160.6,418.4l-9.5-24.7c-1.6-4,0.4-8.5,4.4-10.1l0,0c4-1.6,8.5,0.4,10.1,4.4l7.3,17.9"/>
	<circle class="st6" cx="176.9" cy="411.4" r="6.8"/>
	<path class="st6" d="M186.8,397.8c0,0-6.2-2.8-8.8,4.3C178.1,402,184.7,403.9,186.8,397.8z"/>
	<line class="st6" x1="177.2" y1="398.6" x2="177.4" y2="407.5"/>
	<path class="st6" d="M175.2,407.3c0,0,1.6,1,4.1-0.2"/>
	<rect x="193.5" y="408.6" class="st6" width="12.1" height="9.8"/>
	<polygon class="st6" points="204.2,404.2 200.8,404.2 198.4,404.2 194.9,404.2 193.5,408.5 198.4,408.5 200.8,408.5 205.6,408.5 	
		"/>
	<polyline class="st6" points="193.5,417.6 205.6,412.3 205.6,417 	"/>
	<rect x="194.8" y="401.6" class="st6" width="9.6" height="3"/>
	<polyline class="st6" points="196.4,441.8 193.2,441.8 193.2,433.2 	"/>
	<polyline class="st6" points="201.3,441.4 205.4,441.4 205.4,433.2 	"/>
	<polyline class="st6" points="184.2,396.7 184.2,384.4 190.5,384.4 190.5,418.5 184.2,418.5 184.2,401.3 	"/>
	<line class="st6" x1="165.9" y1="432.9" x2="169.6" y2="441.6"/>
	<line class="st6" x1="214.4" y1="414.3" x2="212.8" y2="418.4"/>
	<path class="st6" d="M205.6,410.8c0,2.5,2,4.5,4.5,4.5c1.3,0,2.5-0.6,3.3-1.5c0.9,0.6,2,1,3.2,1c3.1,0,5.6-2.5,5.6-5.6
		c0-1.2-0.4-2.4-1.1-3.3c0.4-0.4,0.7-0.9,0.9-1.4c0.7-2.2-0.4-4.5-2.6-5.2c-0.5-0.2-1.1-0.2-1.6-0.2c0.6-2.1-0.5-4.4-2.6-5.1
		c-0.1,0-0.3-0.1-0.4-0.1c0-0.1,0-0.3,0-0.4c0-3.4-2.8-6.2-6.2-6.2c-2.7,0-5,1.7-5.8,4.2c-0.5-0.1-1.1-0.2-1.6-0.2
		c-3.5,0-6.4,2.9-6.4,6.4c0,1.3,0.4,2.6,1.1,3.6"/>
	<g>
		<g>
			<path class="st5" d="M173.9,487.6h-3.1V479l0-1.4l0.1-1.5c-0.5,0.5-0.9,0.9-1.1,1l-1.7,1.4l-1.5-1.9l4.7-3.8h2.6V487.6z"/>
			<path class="st5" d="M188.2,480.2c0,2.6-0.4,4.5-1.3,5.7c-0.8,1.2-2.1,1.9-3.9,1.9c-1.7,0-3-0.6-3.8-1.9s-1.3-3.2-1.3-5.6
				c0-2.6,0.4-4.5,1.3-5.7c0.8-1.2,2.1-1.8,3.9-1.8c1.7,0,3,0.6,3.9,1.9C187.8,475.8,188.2,477.7,188.2,480.2z M181,480.2
				c0,1.8,0.2,3.1,0.5,3.9s0.8,1.2,1.6,1.2c0.7,0,1.2-0.4,1.6-1.2s0.5-2.1,0.5-3.9c0-1.8-0.2-3.1-0.5-3.9c-0.3-0.8-0.8-1.2-1.6-1.2
				c-0.7,0-1.3,0.4-1.6,1.2S181,478.4,181,480.2z"/>
			<path class="st5" d="M196.6,477.2c0,1.5-0.3,2.7-0.9,3.5c-0.6,0.8-1.5,1.2-2.6,1.2c-1.1,0-2-0.4-2.6-1.2
				c-0.6-0.8-0.9-1.9-0.9-3.4c0-3.1,1.2-4.6,3.5-4.6c1.1,0,2,0.4,2.6,1.2C196.3,474.6,196.6,475.8,196.6,477.2z M192.2,477.3
				c0,0.9,0.1,1.5,0.2,1.9c0.2,0.4,0.4,0.6,0.7,0.6c0.6,0,1-0.8,1-2.5c0-1.7-0.3-2.5-1-2.5c-0.3,0-0.6,0.2-0.7,0.6
				C192.2,475.8,192.2,476.4,192.2,477.3z M203.6,472.8l-8.2,14.7H193l8.2-14.7H203.6z M206.9,483.1c0,1.5-0.3,2.7-0.9,3.5
				c-0.6,0.8-1.5,1.2-2.6,1.2c-1.1,0-2-0.4-2.6-1.2c-0.6-0.8-0.9-1.9-0.9-3.4c0-3.1,1.2-4.6,3.5-4.6c1.1,0,2,0.4,2.6,1.2
				C206.6,480.5,206.9,481.6,206.9,483.1z M202.5,483.1c0,0.9,0.1,1.5,0.2,1.9s0.4,0.6,0.7,0.6c0.6,0,1-0.8,1-2.5
				c0-1.7-0.3-2.5-1-2.5c-0.3,0-0.6,0.2-0.7,0.6S202.5,482.3,202.5,483.1z"/>
		</g>
	</g>
	<g>
		<g>
			<path class="st5" d="M159.1,509.2h-1.7v-12.1h-4.2v-1.5h10.2v1.5h-4.2V509.2z"/>
			<path class="st5" d="M170.7,509.2l-0.3-1.4h-0.1c-0.5,0.6-1,1.1-1.5,1.3c-0.5,0.2-1.1,0.3-1.9,0.3c-1,0-1.8-0.3-2.4-0.8
				c-0.6-0.5-0.9-1.3-0.9-2.2c0-2.1,1.6-3.1,4.9-3.2l1.7-0.1v-0.6c0-0.8-0.2-1.3-0.5-1.7s-0.9-0.6-1.6-0.6c-0.5,0-1,0.1-1.5,0.2
				c-0.5,0.2-0.9,0.3-1.3,0.5l-0.5-1.3c0.5-0.3,1.1-0.5,1.7-0.6c0.6-0.2,1.2-0.2,1.8-0.2c1.2,0,2.1,0.3,2.7,0.8
				c0.6,0.5,0.9,1.4,0.9,2.6v6.9H170.7z M167.3,508c0.9,0,1.7-0.3,2.2-0.8c0.5-0.5,0.8-1.2,0.8-2.1v-0.9l-1.5,0.1
				c-1.2,0-2,0.2-2.6,0.6c-0.5,0.3-0.8,0.8-0.8,1.5c0,0.5,0.2,0.9,0.5,1.2C166.2,507.9,166.7,508,167.3,508z M166.5,511.5
				c0-0.4,0.1-0.6,0.3-0.8c0.2-0.2,0.4-0.3,0.7-0.3c0.3,0,0.5,0.1,0.7,0.3c0.2,0.2,0.3,0.4,0.3,0.8c0,0.3-0.1,0.6-0.3,0.8
				c-0.2,0.2-0.4,0.3-0.7,0.3c-0.3,0-0.5-0.1-0.7-0.3C166.6,512.1,166.5,511.8,166.5,511.5z"/>
			<path class="st5" d="M179.9,509.4c-1.4,0-2.4-0.5-3.2-1.5h-0.1l0,0.4c0,0.5,0.1,0.9,0.1,1.3v4.2h-1.7V499h1.4l0.2,1.4h0.1
				c0.4-0.6,0.9-1,1.4-1.2s1.1-0.4,1.8-0.4c1.3,0,2.4,0.5,3.1,1.4c0.7,0.9,1.1,2.2,1.1,3.9c0,1.7-0.4,3-1.1,3.9
				C182.3,508.9,181.2,509.4,179.9,509.4z M179.6,500.2c-1,0-1.7,0.3-2.2,0.9c-0.4,0.6-0.7,1.5-0.7,2.7v0.3c0,1.4,0.2,2.4,0.7,3
				c0.5,0.6,1.2,0.9,2.2,0.9c0.9,0,1.5-0.3,2-1c0.5-0.7,0.7-1.7,0.7-2.9c0-1.2-0.2-2.2-0.7-2.9C181.2,500.5,180.5,500.2,179.6,500.2
				z"/>
			<path class="st5" d="M198.6,509.2v-6.5c0-0.8-0.2-1.4-0.6-1.9c-0.4-0.4-0.9-0.6-1.7-0.6c-1,0-1.8,0.3-2.3,0.9
				c-0.5,0.6-0.7,1.5-0.7,2.8v5.3h-1.7v-14.4h1.7v4.2c0,0.6,0,1-0.1,1.4h0.1c0.3-0.5,0.7-0.9,1.3-1.2c0.6-0.3,1.2-0.4,1.9-0.4
				c1.2,0,2.2,0.3,2.8,0.9c0.6,0.6,0.9,1.5,0.9,2.8v6.6H198.6z"/>
			<path class="st5" d="M212.3,504.1c0,1.7-0.4,3-1.3,3.9c-0.8,0.9-2,1.4-3.5,1.4c-0.9,0-1.7-0.2-2.4-0.6c-0.7-0.4-1.3-1-1.6-1.9
				c-0.4-0.8-0.6-1.7-0.6-2.8c0-1.7,0.4-2.9,1.2-3.9c0.8-0.9,2-1.4,3.5-1.4c1.4,0,2.6,0.5,3.4,1.4
				C211.9,501.2,212.3,502.4,212.3,504.1z M204.6,504.1c0,1.3,0.3,2.3,0.8,2.9c0.5,0.7,1.2,1,2.2,1c1,0,1.7-0.3,2.2-1
				c0.5-0.7,0.8-1.6,0.8-2.9c0-1.3-0.3-2.2-0.8-2.9c-0.5-0.6-1.3-1-2.2-1C205.6,500.2,204.6,501.5,204.6,504.1z M206.3,497.4
				c0.2-0.3,0.5-0.7,0.9-1.3c0.4-0.5,0.7-1.1,0.9-1.5h2v0.2c-0.3,0.4-0.7,0.9-1.3,1.5c-0.6,0.6-1.1,1.1-1.4,1.4h-1.1V497.4z"/>
			<path class="st5" d="M221.2,509.2l-0.3-1.4h-0.1c-0.5,0.6-1,1.1-1.5,1.3c-0.5,0.2-1.1,0.3-1.9,0.3c-1,0-1.8-0.3-2.4-0.8
				c-0.6-0.5-0.9-1.3-0.9-2.2c0-2.1,1.6-3.1,4.9-3.2l1.7-0.1v-0.6c0-0.8-0.2-1.3-0.5-1.7s-0.9-0.6-1.6-0.6c-0.5,0-1,0.1-1.5,0.2
				c-0.5,0.2-0.9,0.3-1.3,0.5l-0.5-1.3c0.5-0.3,1.1-0.5,1.7-0.6c0.6-0.2,1.2-0.2,1.8-0.2c1.2,0,2.1,0.3,2.7,0.8
				c0.6,0.5,0.9,1.4,0.9,2.6v6.9H221.2z M217.8,508c0.9,0,1.7-0.3,2.2-0.8c0.5-0.5,0.8-1.2,0.8-2.1v-0.9l-1.5,0.1
				c-1.2,0-2,0.2-2.6,0.6c-0.5,0.3-0.8,0.8-0.8,1.5c0,0.5,0.2,0.9,0.5,1.2C216.8,507.9,217.2,508,217.8,508z"/>
		</g>
	</g>
</g>
<g>
	<rect x="33.2" y="381.6" class="st6" width="57.6" height="83"/>
	<path class="st6" d="M39.5,437.2L39.5,437.2c-1.4,0-2.6-1.2-2.6-2.6l0,0c0-1.4,1.2-2.6,2.6-2.6l0,0c1.4,0,2.6,1.2,2.6,2.6l0,0
		C42.1,436.1,41,437.2,39.5,437.2z"/>
	<path class="st6" d="M47.2,437.2L47.2,437.2c-1.4,0-2.6-1.2-2.6-2.6l0,0c0-1.4,1.2-2.6,2.6-2.6l0,0c1.4,0,2.6,1.2,2.6,2.6l0,0
		C49.8,436.1,48.6,437.2,47.2,437.2z"/>
	<path class="st6" d="M54.8,437.2L54.8,437.2c-1.4,0-2.6-1.2-2.6-2.6l0,0c0-1.4,1.2-2.6,2.6-2.6l0,0c1.4,0,2.6,1.2,2.6,2.6l0,0
		C57.4,436.1,56.2,437.2,54.8,437.2z"/>
	<path class="st6" d="M62.4,437.2L62.4,437.2c-1.4,0-2.6-1.2-2.6-2.6l0,0c0-1.4,1.2-2.6,2.6-2.6l0,0c1.4,0,2.6,1.2,2.6,2.6l0,0
		C65,436.1,63.9,437.2,62.4,437.2z"/>
	<path class="st6" d="M70.1,437.2L70.1,437.2c-1.4,0-2.6-1.2-2.6-2.6l0,0c0-1.4,1.2-2.6,2.6-2.6l0,0c1.4,0,2.6,1.2,2.6,2.6l0,0
		C72.7,436.1,71.5,437.2,70.1,437.2z"/>
	<path class="st6" d="M77.7,437.2L77.7,437.2c-1.4,0-2.6-1.2-2.6-2.6l0,0c0-1.4,1.2-2.6,2.6-2.6l0,0c1.4,0,2.6,1.2,2.6,2.6l0,0
		C80.3,436.1,79.1,437.2,77.7,437.2z"/>
	<path class="st6" d="M85.4,437.2L85.4,437.2c-1.4,0-2.6-1.2-2.6-2.6l0,0c0-1.4,1.2-2.6,2.6-2.6l0,0c1.4,0,2.6,1.2,2.6,2.6l0,0
		C87.9,436.1,86.8,437.2,85.4,437.2z"/>
	<g>
		<g>
			<path class="st5" d="M51.9,491.2h-3.1v-8.5l0-1.4l0.1-1.5c-0.5,0.5-0.9,0.9-1.1,1l-1.7,1.4l-1.5-1.9l4.7-3.8h2.6V491.2z"/>
			<path class="st5" d="M61.3,481.8c1.4,0,2.6,0.4,3.4,1.2c0.8,0.8,1.3,1.9,1.3,3.3c0,1.6-0.5,2.9-1.5,3.8c-1,0.9-2.5,1.3-4.4,1.3
				c-1.6,0-3-0.3-4-0.8v-2.7c0.5,0.3,1.1,0.5,1.9,0.7c0.7,0.2,1.4,0.3,2,0.3c1.9,0,2.8-0.8,2.8-2.3c0-1.5-1-2.2-3-2.2
				c-0.4,0-0.7,0-1.2,0.1s-0.8,0.1-1,0.2l-1.2-0.7l0.6-7.5h8v2.6h-5.3l-0.3,2.9l0.4-0.1C60.2,481.9,60.7,481.8,61.3,481.8z"/>
			<path class="st5" d="M74.6,480.9c0,1.5-0.3,2.7-0.9,3.5c-0.6,0.8-1.5,1.2-2.6,1.2c-1.1,0-2-0.4-2.6-1.2c-0.6-0.8-0.9-1.9-0.9-3.4
				c0-3.1,1.2-4.6,3.5-4.6c1.1,0,2,0.4,2.6,1.2C74.3,478.3,74.6,479.4,74.6,480.9z M70.1,480.9c0,0.9,0.1,1.5,0.2,1.9
				c0.2,0.4,0.4,0.6,0.7,0.6c0.6,0,1-0.8,1-2.5c0-1.7-0.3-2.5-1-2.5c-0.3,0-0.6,0.2-0.7,0.6C70.2,479.4,70.1,480,70.1,480.9z
				 M81.5,476.5l-8.2,14.7h-2.4l8.2-14.7H81.5z M84.9,486.8c0,1.5-0.3,2.7-0.9,3.5c-0.6,0.8-1.5,1.2-2.6,1.2c-1.1,0-2-0.4-2.6-1.2
				c-0.6-0.8-0.9-1.9-0.9-3.4c0-3.1,1.2-4.6,3.5-4.6c1.1,0,2,0.4,2.6,1.2C84.6,484.1,84.9,485.3,84.9,486.8z M80.4,486.8
				c0,0.9,0.1,1.5,0.2,1.9s0.4,0.6,0.7,0.6c0.6,0,1-0.8,1-2.5c0-1.7-0.3-2.5-1-2.5c-0.3,0-0.6,0.2-0.7,0.6S80.4,485.9,80.4,486.8z"
				/>
		</g>
	</g>
	<g>
		<g>
			<path class="st5" d="M50.1,495.7h1.9l3.3,9.4c0.4,1.2,0.7,2.3,0.9,3.2c0.2-0.8,0.5-1.9,0.9-3.3l3.3-9.4h2l-5.3,14.7h-1.9
				L50.1,495.7z"/>
			<path class="st5" d="M68.7,510.6c-1.7,0-3-0.5-3.9-1.5c-0.9-1-1.4-2.4-1.4-4.1c0-1.8,0.4-3.2,1.3-4.2c0.9-1.1,2.1-1.6,3.6-1.6
				c1.4,0,2.5,0.4,3.3,1.3c0.8,0.9,1.2,2.1,1.2,3.6v1.1h-7.6c0,1.3,0.4,2.2,1,2.9c0.6,0.7,1.5,1,2.6,1c0.6,0,1.2-0.1,1.7-0.2
				c0.5-0.1,1.2-0.3,1.9-0.6v1.6c-0.6,0.3-1.2,0.4-1.7,0.6S69.5,510.6,68.7,510.6z M68.3,500.6c-0.9,0-1.6,0.3-2.1,0.8
				c-0.5,0.6-0.8,1.3-0.9,2.3H71c0-1-0.3-1.8-0.7-2.4C69.8,500.9,69.1,500.6,68.3,500.6z M67,497.7c0.3-0.3,0.6-0.8,1-1.4
				c0.4-0.6,0.7-1.2,1-1.7h2.2v0.2c-0.3,0.4-0.8,1-1.4,1.6s-1.1,1.1-1.6,1.5H67V497.7z"/>
		</g>
	</g>
</g>
<rect x="1" y="116.7" class="st7" width="188.3" height="248.4"/>
<g>
	<path class="st8" d="M303.8,252.5h-71.9c-4.9,0-8.9-4-8.9-8.9v-55.9c0-4.9,4-8.9,8.9-8.9h83.9c4.9,0,8.9,4,8.9,8.9v30.2"/>
	<path class="st8" d="M303.8,263.7h-81.3c-3.5,0-6.4-5-6.4-11.2h87.7"/>
	<path class="st3" d="M303.8,244.1h-67.2c-2.8,0-5-2.3-5-5v-46.7c0-2.8,2.3-5,5-5h74.5c2.8,0,5,2.3,5,5v25.6"/>
	<path class="st8" d="M333.7,277.9h-24.9c-2.8,0-5-2.3-5-5v-49.9c0-2.8,2.3-5,5-5h24.9c2.8,0,5,2.3,5,5v49.9
		C338.7,275.6,336.4,277.9,333.7,277.9z"/>
	<circle class="st8" cx="321.2" cy="269.9" r="3.2"/>
	<rect x="309.3" y="225.1" class="st3" width="23.9" height="34.8"/>
</g>
<path class="st9" d="M138,284.3L115.4,204c0,0,14.3-8.3,8.6-26.5h-6.3l-4.6-25.2h-8.3v13.2c0,5.4-4.4,9.8-9.8,9.8
	c-5.4,0-9.8-4.4-9.8-9.8v-13.2H77l-4.6,25.2H67c0,0-2,21.9,8.6,26.5l-23.2,80.3H138z"/>
<g>
	<g>
		<path class="st10" d="M85.7,316.8h-11v-2.3l3.9-4c1.2-1.2,1.9-2,2.3-2.5s0.6-0.9,0.8-1.3c0.2-0.4,0.2-0.8,0.2-1.2
			c0-0.6-0.2-1.1-0.5-1.4c-0.3-0.3-0.8-0.5-1.4-0.5c-0.6,0-1.2,0.1-1.8,0.4c-0.6,0.3-1.2,0.7-1.8,1.2l-1.8-2.1
			c0.8-0.7,1.4-1.1,1.9-1.4s1.1-0.5,1.7-0.6s1.3-0.2,2-0.2c1,0,1.8,0.2,2.6,0.5s1.3,0.9,1.7,1.5s0.6,1.4,0.6,2.2
			c0,0.7-0.1,1.4-0.4,2c-0.3,0.6-0.6,1.3-1.2,1.9c-0.5,0.7-1.5,1.6-2.8,2.8l-2,1.9v0.2h6.8V316.8z"/>
		<path class="st10" d="M88.8,316.8l5.9-12.9H87v-2.8h11.2v2.1l-5.9,13.6H88.8z"/>
		<path class="st10" d="M107.1,305.8c0,1.6-0.3,2.9-1,3.7c-0.6,0.8-1.6,1.2-2.8,1.2c-1.2,0-2.1-0.4-2.7-1.3c-0.6-0.8-1-2.1-1-3.7
			c0-3.3,1.2-4.9,3.7-4.9c1.2,0,2.1,0.4,2.8,1.3C106.8,303,107.1,304.2,107.1,305.8z M102.3,305.8c0,0.9,0.1,1.6,0.2,2
			c0.2,0.4,0.4,0.7,0.8,0.7c0.7,0,1-0.9,1-2.7c0-1.8-0.3-2.7-1-2.7c-0.4,0-0.6,0.2-0.8,0.7C102.4,304.3,102.3,304.9,102.3,305.8z
			 M114.5,301.1l-8.7,15.7h-2.6l8.7-15.7H114.5z M118.1,312.1c0,1.6-0.3,2.9-1,3.7c-0.6,0.8-1.6,1.2-2.8,1.2c-1.2,0-2.1-0.4-2.7-1.3
			c-0.6-0.8-1-2.1-1-3.7c0-3.3,1.2-4.9,3.7-4.9c1.2,0,2.1,0.4,2.8,1.3C117.7,309.3,118.1,310.5,118.1,312.1z M113.3,312.1
			c0,0.9,0.1,1.6,0.2,2c0.2,0.4,0.4,0.7,0.8,0.7c0.7,0,1-0.9,1-2.7c0-1.8-0.3-2.7-1-2.7c-0.4,0-0.6,0.2-0.8,0.7
			S113.3,311.2,113.3,312.1z"/>
		<path class="st10" d="M68.2,335.3c0,2-0.4,3.6-1.2,5c-0.8,1.3-1.9,2.2-3.4,2.7l3.8,3.9h-2.8l-3-3.5l-0.5,0c-2.3,0-4.1-0.7-5.4-2.1
			c-1.3-1.4-1.9-3.4-1.9-6c0-2.6,0.6-4.5,1.9-5.9s3-2.1,5.4-2.1c2.3,0,4,0.7,5.3,2.1C67.5,330.8,68.2,332.8,68.2,335.3z M55.8,335.3
			c0,2.1,0.4,3.7,1.3,4.7c0.9,1.1,2.2,1.6,3.8,1.6c1.7,0,3-0.5,3.8-1.6c0.9-1.1,1.3-2.7,1.3-4.8c0-2.1-0.4-3.7-1.3-4.7
			c-0.9-1.1-2.1-1.6-3.8-1.6c-1.7,0-3,0.5-3.9,1.6C56.2,331.7,55.8,333.2,55.8,335.3z"/>
		<path class="st10" d="M73.2,331.4v7.6c0,1,0.2,1.7,0.6,2.1s1.1,0.7,2,0.7c1.2,0,2.1-0.3,2.6-1s0.8-1.8,0.8-3.2v-6.1h1.9v11.8h-1.6
			l-0.3-1.6h-0.1c-0.4,0.6-0.8,1-1.5,1.3c-0.6,0.3-1.4,0.5-2.2,0.5c-1.4,0-2.5-0.3-3.2-1s-1.1-1.8-1.1-3.3v-7.7H73.2z"/>
		<path class="st10" d="M86.7,327.8h-1.1c-0.9-0.7-1.6-1.4-2.2-2.2v-0.2h1.9c0.4,0.8,0.9,1.6,1.4,2.2V327.8z M92.2,343.2l-0.4-1.7
			h-0.1c-0.6,0.7-1.2,1.2-1.8,1.5s-1.3,0.4-2.2,0.4c-1.2,0-2.1-0.3-2.7-0.9c-0.7-0.6-1-1.5-1-2.6c0-2.4,1.9-3.6,5.6-3.8l2-0.1v-0.7
			c0-0.9-0.2-1.6-0.6-2c-0.4-0.4-1-0.6-1.9-0.6c-0.6,0-1.2,0.1-1.8,0.3c-0.6,0.2-1.1,0.4-1.6,0.6l-0.6-1.4c0.6-0.3,1.2-0.6,1.9-0.7
			c0.7-0.2,1.4-0.3,2.1-0.3c1.4,0,2.5,0.3,3.2,0.9c0.7,0.6,1,1.6,1,3v8H92.2z M92.6,329.9h-1.1c-0.7-0.5-1.4-1.1-2.3-1.8
			c-0.8,0.7-1.5,1.3-2.3,1.8h-1.1v-0.2l0.6-0.7c0.8-0.9,1.4-1.6,1.8-2.2h2c0.4,0.6,1.2,1.6,2.3,2.8V329.9z M88.2,341.8
			c1.1,0,1.9-0.3,2.5-0.9c0.6-0.6,0.9-1.4,0.9-2.5v-1.1l-1.7,0.1c-1.4,0.1-2.3,0.3-3,0.6s-0.9,1-0.9,1.8c0,0.6,0.2,1.1,0.6,1.4
			C87,341.7,87.5,341.8,88.2,341.8z"/>
		<path class="st10" d="M105.3,343.2v-7.5c0-1-0.2-1.7-0.6-2.1c-0.4-0.5-1.1-0.7-2-0.7c-1.2,0-2.1,0.3-2.6,1s-0.8,1.8-0.8,3.3v6.1
			h-1.9v-11.8h1.6l0.3,1.6h0.1c0.4-0.6,0.9-1,1.5-1.3c0.7-0.3,1.4-0.5,2.2-0.5c1.4,0,2.5,0.4,3.2,1.1c0.7,0.7,1.1,1.8,1.1,3.3v7.7
			H105.3z"/>
		<path class="st10" d="M123.8,343.2l-0.4-1.7h-0.1c-0.6,0.7-1.2,1.2-1.8,1.5s-1.3,0.4-2.2,0.4c-1.2,0-2.1-0.3-2.7-0.9
			c-0.7-0.6-1-1.5-1-2.6c0-2.4,1.9-3.6,5.6-3.8l2-0.1v-0.7c0-0.9-0.2-1.6-0.6-2c-0.4-0.4-1-0.6-1.9-0.6c-0.6,0-1.2,0.1-1.8,0.3
			c-0.6,0.2-1.1,0.4-1.6,0.6l-0.6-1.4c0.6-0.3,1.2-0.6,1.9-0.7c0.7-0.2,1.4-0.3,2.1-0.3c1.4,0,2.5,0.3,3.2,0.9c0.7,0.6,1,1.6,1,3v8
			H123.8z M119.8,341.8c1.1,0,1.9-0.3,2.5-0.9c0.6-0.6,0.9-1.4,0.9-2.5v-1.1l-1.7,0.1c-1.4,0.1-2.3,0.3-3,0.6s-0.9,1-0.9,1.8
			c0,0.6,0.2,1.1,0.6,1.4C118.6,341.7,119.1,341.8,119.8,341.8z M119.3,329.6c0.3-0.3,0.6-0.8,1-1.5c0.4-0.6,0.8-1.2,1.1-1.8h2.3
			v0.2c-0.3,0.5-0.8,1-1.5,1.7s-1.2,1.2-1.7,1.6h-1.3V329.6z"/>
		<path class="st10" d="M139.1,337.2c0,1.9-0.5,3.4-1.5,4.5c-1,1.1-2.3,1.6-4,1.6c-1.1,0-2-0.2-2.8-0.7c-0.8-0.5-1.5-1.2-1.9-2.1
			c-0.4-0.9-0.7-2-0.7-3.2c0-1.9,0.5-3.4,1.4-4.5c1-1.1,2.3-1.6,4-1.6c1.7,0,3,0.5,4,1.6S139.1,335.4,139.1,337.2z M130.2,337.2
			c0,1.5,0.3,2.6,0.9,3.4s1.4,1.2,2.6,1.2c1.1,0,2-0.4,2.6-1.2s0.9-1.9,0.9-3.4s-0.3-2.6-0.9-3.3c-0.6-0.7-1.5-1.1-2.6-1.1
			C131.3,332.8,130.2,334.3,130.2,337.2z"/>
	</g>
</g>
<path class="st10" d="M267.9,316.7H257v-2.3l3.9-4c1.2-1.2,1.9-2,2.3-2.5c0.4-0.5,0.6-0.9,0.8-1.3c0.2-0.4,0.2-0.8,0.2-1.2
	c0-0.6-0.2-1.1-0.5-1.4s-0.8-0.5-1.4-0.5c-0.6,0-1.2,0.1-1.8,0.4c-0.6,0.3-1.2,0.7-1.8,1.2l-1.8-2.1c0.8-0.7,1.4-1.1,1.9-1.4
	s1.1-0.5,1.7-0.6c0.6-0.1,1.3-0.2,2-0.2c1,0,1.8,0.2,2.6,0.5c0.7,0.4,1.3,0.9,1.7,1.5c0.4,0.6,0.6,1.4,0.6,2.2c0,0.7-0.1,1.4-0.4,2
	c-0.3,0.6-0.6,1.3-1.2,1.9s-1.5,1.6-2.8,2.8l-2,1.9v0.1h6.8V316.7z"/>
<path class="st10" d="M271.1,316.7l5.9-12.8h-7.7v-2.8h11.2v2.1l-5.9,13.5H271.1z"/>
<path class="st10" d="M289.2,305.8c0,1.6-0.3,2.9-0.9,3.7s-1.6,1.2-2.8,1.2c-1.2,0-2.1-0.4-2.7-1.3c-0.6-0.8-1-2.1-1-3.7
	c0-3.3,1.2-4.9,3.7-4.9c1.2,0,2.1,0.4,2.8,1.3S289.2,304.2,289.2,305.8z M284.5,305.8c0,0.9,0.1,1.6,0.2,2s0.4,0.7,0.8,0.7
	c0.7,0,1-0.9,1-2.7c0-1.8-0.3-2.7-1-2.7c-0.4,0-0.6,0.2-0.8,0.7S284.5,304.9,284.5,305.8z M296.5,301.1l-8.7,15.6h-2.6l8.7-15.6
	H296.5z M300.1,312c0,1.6-0.3,2.9-0.9,3.7c-0.6,0.8-1.6,1.2-2.8,1.2c-1.2,0-2.1-0.4-2.7-1.3s-1-2.1-1-3.6c0-3.3,1.2-4.9,3.7-4.9
	c1.2,0,2.1,0.4,2.8,1.3C299.8,309.2,300.1,310.4,300.1,312z M295.4,312c0,0.9,0.1,1.6,0.2,2c0.2,0.4,0.4,0.7,0.8,0.7
	c0.7,0,1-0.9,1-2.7c0-1.8-0.3-2.7-1-2.7c-0.4,0-0.6,0.2-0.8,0.7C295.5,310.5,295.4,311.1,295.4,312z"/>
<g>
	<path class="st10" d="M204.7,342.9h-2v-14h-4.9v-1.7h11.8v1.7h-4.9V342.9z"/>
	<path class="st10" d="M219.8,342.9v-7.5c0-1-0.2-1.7-0.6-2.1c-0.4-0.5-1.1-0.7-2-0.7c-1.2,0-2.1,0.3-2.6,1
		c-0.6,0.7-0.8,1.8-0.8,3.3v6.1h-1.9v-16.7h1.9v4.9c0,0.6,0,1.2-0.1,1.7h0.1c0.4-0.6,0.8-1,1.5-1.3s1.4-0.5,2.2-0.5
		c1.4,0,2.5,0.3,3.2,1c0.7,0.7,1.1,1.8,1.1,3.3v7.7H219.8z"/>
	<path class="st10" d="M225.2,327.9c0-0.4,0.1-0.7,0.3-0.9c0.2-0.2,0.5-0.3,0.8-0.3c0.3,0,0.6,0.1,0.8,0.3s0.3,0.5,0.3,0.9
		c0,0.4-0.1,0.7-0.3,0.9s-0.5,0.3-0.8,0.3c-0.3,0-0.6-0.1-0.8-0.3C225.3,328.6,225.2,328.3,225.2,327.9z M227.3,342.9h-1.9v-11.8
		h1.9V342.9z"/>
	<path class="st10" d="M236,343.1c-1.8,0-3.2-0.5-4.2-1.6c-1-1.1-1.5-2.5-1.5-4.4c0-1.9,0.5-3.4,1.4-4.5c0.9-1.1,2.2-1.7,3.8-1.7
		c1.5,0,2.7,0.5,3.5,1.4c0.9,1,1.3,2.3,1.3,3.9v1.2h-8.1c0,1.3,0.4,2.4,1,3.1s1.6,1,2.7,1c0.6,0,1.2-0.1,1.8-0.2
		c0.6-0.1,1.2-0.3,2-0.6v1.7c-0.7,0.3-1.3,0.5-1.8,0.6S236.8,343.1,236,343.1z M238.9,329.6h-1.1c-0.8-0.5-1.6-1.1-2.3-1.8
		c-0.8,0.7-1.6,1.3-2.3,1.8h-1.1v-0.3c0.4-0.4,0.8-0.9,1.2-1.3c0.4-0.5,0.8-1,1.2-1.5h2c0.5,0.7,1.3,1.7,2.3,2.8V329.6z
		 M235.5,332.5c-0.9,0-1.7,0.3-2.2,0.9s-0.9,1.4-1,2.5h6c0-1.1-0.3-1.9-0.8-2.5S236.4,332.5,235.5,332.5z M238,327.2
		c0.5-0.7,1-1.4,1.4-2.2h1.9v0.2c-0.6,0.8-1.3,1.5-2.2,2.2H238V327.2z"/>
	<path class="st10" d="M247.4,341.5c0.3,0,0.5,0,0.9-0.1s0.6-0.1,0.8-0.2v1.5c-0.2,0.1-0.5,0.2-0.8,0.2c-0.4,0.1-0.8,0.1-1.1,0.1
		c-2.3,0-3.5-1.2-3.5-3.6v-6.9h-1.7v-0.9l1.7-0.8l0.8-2.5h1.1v2.7h3.4v1.5h-3.4v6.8c0,0.7,0.2,1.2,0.5,1.6
		C246.3,341.3,246.8,341.5,247.4,341.5z"/>
	<path class="st10" d="M262.6,330.9c1.6,0,2.8,0.5,3.6,1.6c0.8,1.1,1.3,2.6,1.3,4.5c0,1.9-0.4,3.5-1.3,4.5c-0.9,1.1-2.1,1.6-3.6,1.6
		c-0.8,0-1.5-0.1-2.1-0.4s-1.1-0.7-1.5-1.3h-0.2c-0.2,0.9-0.4,1.4-0.4,1.5h-1.4v-16.7h1.9v4.1c0,0.8,0,1.6-0.1,2.4h0.1
		C259.8,331.5,261,330.9,262.6,330.9z M262.3,332.5c-1.2,0-2,0.3-2.6,1s-0.8,1.8-0.8,3.4v0.1c0,1.6,0.3,2.8,0.8,3.5
		c0.5,0.7,1.4,1,2.6,1c1.1,0,1.8-0.4,2.4-1.2c0.5-0.8,0.8-1.9,0.8-3.4c0-1.5-0.3-2.6-0.8-3.4S263.4,332.5,262.3,332.5z"/>
	<path class="st10" d="M270.4,345.5c0-0.4,0.1-0.7,0.3-0.9c0.2-0.2,0.5-0.3,0.8-0.3c0.3,0,0.6,0.1,0.8,0.3c0.2,0.2,0.3,0.5,0.3,0.9
		c0,0.4-0.1,0.7-0.3,0.9c-0.2,0.2-0.5,0.3-0.8,0.3c-0.3,0-0.6-0.1-0.8-0.3C270.5,346.2,270.4,345.9,270.4,345.5z M270.4,327.9
		c0-0.4,0.1-0.7,0.3-0.9c0.2-0.2,0.5-0.3,0.8-0.3c0.3,0,0.6,0.1,0.8,0.3s0.3,0.5,0.3,0.9c0,0.4-0.1,0.7-0.3,0.9s-0.5,0.3-0.8,0.3
		c-0.3,0-0.6-0.1-0.8-0.3C270.6,328.6,270.4,328.3,270.4,327.9z M272.5,342.9h-1.9v-11.8h1.9V342.9z"/>
	<path class="st10" d="M286.2,343.1c-1.5,0-2.7-0.5-3.6-1.6s-1.3-2.5-1.3-4.5c0-1.9,0.4-3.4,1.3-4.5c0.8-1.1,2-1.6,3.6-1.6
		c1.6,0,2.8,0.6,3.7,1.7h0.1c0-0.1,0-0.3-0.1-0.7s-0.1-0.7-0.1-1v-1.3h-4.7v-1.5h4.7v-2h1.9v2h1.7v1.5h-1.7v13.3h-1.6l-0.3-1.6h-0.1
		C289,342.5,287.8,343.1,286.2,343.1z M286.5,341.5c1.2,0,2-0.3,2.6-1c0.5-0.6,0.8-1.7,0.8-3.1v-0.4c0-1.6-0.3-2.8-0.8-3.5
		s-1.4-1-2.6-1c-1,0-1.8,0.4-2.3,1.1c-0.5,0.8-0.8,1.9-0.8,3.4c0,1.4,0.3,2.5,0.8,3.3C284.6,341.1,285.4,341.5,286.5,341.5z"/>
	<path class="st10" d="M295.4,327.9c0-0.4,0.1-0.7,0.3-0.9c0.2-0.2,0.5-0.3,0.8-0.3c0.3,0,0.6,0.1,0.8,0.3s0.3,0.5,0.3,0.9
		c0,0.4-0.1,0.7-0.3,0.9s-0.5,0.3-0.8,0.3c-0.3,0-0.6-0.1-0.8-0.3C295.5,328.6,295.4,328.3,295.4,327.9z M297.5,342.9h-1.9v-11.8
		h1.9V342.9z"/>
	<path class="st10" d="M306.3,343.1c-1.8,0-3.2-0.5-4.2-1.6c-1-1.1-1.5-2.5-1.5-4.4c0-1.9,0.5-3.4,1.4-4.5c0.9-1.1,2.2-1.7,3.8-1.7
		c1.5,0,2.7,0.5,3.5,1.4c0.9,1,1.3,2.3,1.3,3.9v1.2h-8.1c0,1.3,0.4,2.4,1,3.1s1.6,1,2.7,1c0.6,0,1.2-0.1,1.8-0.2
		c0.6-0.1,1.2-0.3,2-0.6v1.7c-0.7,0.3-1.3,0.5-1.8,0.6S307,343.1,306.3,343.1z M302,329.3c0.9-1,1.5-1.7,1.9-2.1
		c0.4-0.5,0.6-0.8,0.8-1.1h2c0.4,0.7,1.3,1.8,2.8,3.3v0.2h-1.4c-0.6-0.4-1.4-1-2.4-2c-0.9,0.9-1.7,1.6-2.4,2H302V329.3z
		 M305.8,332.5c-0.9,0-1.7,0.3-2.2,0.9s-0.9,1.4-1,2.5h6c0-1.1-0.3-1.9-0.8-2.5S306.7,332.5,305.8,332.5z M304.6,345.5
		c0-0.4,0.1-0.7,0.3-0.9c0.2-0.2,0.5-0.3,0.8-0.3c0.3,0,0.6,0.1,0.8,0.3c0.2,0.2,0.3,0.5,0.3,0.9c0,0.4-0.1,0.7-0.3,0.9
		c-0.2,0.2-0.5,0.3-0.8,0.3c-0.3,0-0.6-0.1-0.8-0.3C304.7,346.2,304.6,345.9,304.6,345.5z"/>
	<path class="st10" d="M321.7,342.9v-7.5c0-1-0.2-1.7-0.6-2.1c-0.4-0.5-1.1-0.7-2-0.7c-1.2,0-2.1,0.3-2.6,1
		c-0.5,0.7-0.8,1.8-0.8,3.3v6.1h-1.9v-11.8h1.6l0.3,1.6h0.1c0.4-0.6,0.9-1,1.5-1.3c0.7-0.3,1.4-0.5,2.2-0.5c1.4,0,2.5,0.4,3.2,1.1
		s1.1,1.8,1.1,3.3v7.7H321.7z"/>
	<path class="st10" d="M336.9,341.5c0.3,0,0.5,0,0.9-0.1s0.6-0.1,0.8-0.2v1.5c-0.2,0.1-0.5,0.2-0.8,0.2c-0.4,0.1-0.8,0.1-1.1,0.1
		c-2.3,0-3.5-1.2-3.5-3.6v-6.9h-1.7v-0.9l1.7-0.8l0.8-2.5h1.1v2.7h3.4v1.5h-3.4v6.8c0,0.7,0.2,1.2,0.5,1.6
		C335.9,341.3,336.3,341.5,336.9,341.5z"/>
	<path class="st10" d="M342.7,331.1v7.6c0,1,0.2,1.7,0.6,2.1c0.4,0.5,1.1,0.7,2,0.7c1.2,0,2.1-0.3,2.6-1s0.8-1.8,0.8-3.3v-6.1h1.9
		v1.3c0.6-0.1,1-0.4,1.3-0.8c0.3-0.5,0.4-1.2,0.4-2.3h2.1l0.2,0.2c-0.2,1.4-0.7,2.4-1.3,3.1c-0.6,0.7-1.5,1.1-2.6,1.2v9.1h-1.6
		l-0.3-1.6h-0.1c-0.4,0.6-0.9,1-1.5,1.3s-1.4,0.5-2.2,0.5c-1.4,0-2.5-0.3-3.2-1s-1.1-1.8-1.1-3.3v-7.7H342.7z M348.2,326.8
		c0,1-0.6,1.6-1.8,1.9l-0.1,1.2h-1.2l-0.2-1.9c0.5-0.1,1-0.2,1.3-0.4s0.5-0.4,0.5-0.8c0-0.6-0.5-0.9-1.4-0.9c-0.4,0-0.7,0-1.1,0.1
		V325c0.3-0.1,0.7-0.1,1.2-0.1C347.3,324.8,348.2,325.5,348.2,326.8z"/>
</g>
</svg>