<!-- Generator: Adobe Illustrator 19.1.0, SVG Export Plug-In  -->
<svg version="1.1"
	 xmlns="http://www.w3.org/2000/svg" xmlns:xlink="http://www.w3.org/1999/xlink" xmlns:a="http://ns.adobe.com/AdobeSVGViewerExtensions/3.0/"
	 x="0px" y="0px" width="195.1px" height="164.8px" viewBox="0 0 195.1 164.8"
	 style="overflow:scroll;enable-background:new 0 0 195.1 164.8;" xml:space="preserve">
<style type="text/css">
	.st0{fill:#086A87;}
	.st1{fill:#FFFFFF;stroke:#ED6A4A;stroke-width:1.3374;stroke-miterlimit:10;}
	.st2{fill:#086A87;stroke:#086A87;stroke-width:0.6687;stroke-linecap:round;stroke-linejoin:round;stroke-miterlimit:10;}
	.st3{fill:#33CCCC;stroke:#33CCCC;stroke-width:0.6687;stroke-miterlimit:10;}
</style>
<defs>
</defs>
<g>
	<g>
		<path class="st0" d="M16.3,101.4h-4.6l-7.5-13H4.1c0.1,2.3,0.2,3.9,0.2,4.9v8.1H1.1V84.3h4.6l7.4,12.8h0.1
			c-0.1-2.2-0.2-3.8-0.2-4.7v-8.1h3.3V101.4z"/>
		<path class="st0" d="M32.4,101.4h-3.6v-7.7c0-1.9-0.7-2.8-2.1-2.8c-1,0-1.7,0.3-2.2,1s-0.7,1.8-0.7,3.3v6.2h-3.6V83.2h3.6v3.7
			c0,0.3,0,1-0.1,2L23.7,90h0.2c0.8-1.3,2.1-1.9,3.8-1.9c1.5,0,2.7,0.4,3.5,1.2s1.2,2,1.2,3.6V101.4z"/>
		<path class="st0" d="M45.4,101.4l-0.5-1.7h-0.2c-0.4,0.6-0.9,1.1-1.6,1.4s-1.5,0.5-2.4,0.5c-1.5,0-2.7-0.4-3.5-1.2s-1.2-2-1.2-3.6
			v-8.5h3.6V96c0,0.9,0.2,1.7,0.5,2.1s0.9,0.7,1.6,0.7c1,0,1.7-0.3,2.2-1s0.7-1.8,0.7-3.3v-6.2h3.6v1.4c0.6-0.2,1-0.5,1.3-1.1
			s0.5-1.3,0.5-2.2h3.5l0.2,0.3c-0.3,1.2-0.6,2.2-1,2.8s-1,1.2-1.7,1.6s-1.6,0.7-2.7,0.8v9.6H45.4z M40.2,85.6
			c-0.2,0-0.5,0.1-0.7,0.3s-0.4,0.5-0.5,0.9h-1.7c0.1-1.1,0.4-2,1-2.7s1.3-1,2.2-1c0.3,0,0.6,0.1,0.9,0.2s0.6,0.3,0.9,0.4
			s0.6,0.3,0.9,0.4s0.6,0.2,0.9,0.2c0.2,0,0.5-0.1,0.7-0.3s0.4-0.5,0.5-0.9h1.7c-0.1,1.1-0.4,2-1,2.7s-1.3,1-2.2,1
			c-0.3,0-0.6-0.1-0.9-0.2s-0.6-0.3-0.9-0.4S41.3,86,41,85.8S40.4,85.6,40.2,85.6z"/>
		<path class="st0" d="M66.4,101.4h-3.6v-7.7c0-0.9-0.2-1.7-0.5-2.1s-0.9-0.7-1.6-0.7c-1,0-1.7,0.3-2.2,1s-0.7,1.8-0.7,3.3v6.2h-3.6
			V88.3H57l0.5,1.7h0.2c0.4-0.6,0.9-1.1,1.6-1.4s1.5-0.5,2.4-0.5c1.5,0,2.7,0.4,3.5,1.2s1.2,2,1.2,3.6V101.4z"/>
		<path class="st0" d="M81.5,101.4c0,1.9-0.5,3.3-1.6,4.3s-2.7,1.5-4.9,1.5c-1.9,0-3.5-0.3-4.9-0.8v-2.9c1.6,0.7,3.3,1,5.1,1
			c1.8,0,2.8-1,2.8-3v-0.3l0.1-1.6H78c-0.8,1.3-2.1,1.9-3.7,1.9c-1.6,0-2.8-0.6-3.7-1.8s-1.3-2.9-1.3-4.9c0-2.1,0.4-3.8,1.3-5
			s2.1-1.8,3.7-1.8c1.6,0,2.9,0.6,3.8,1.9h0.1l0.3-1.7h3V101.4z M75.5,98.9c1,0,1.6-0.3,2.1-0.8s0.6-1.4,0.6-2.7v-0.4
			c0-1.4-0.2-2.4-0.7-3S76.4,91,75.5,91c-1.7,0-2.5,1.3-2.5,4c0,1.3,0.2,2.3,0.6,2.9S74.6,98.9,75.5,98.9z"/>
		<path class="st0" d="M95.7,101.7c-1.5,0-2.8-0.6-3.6-1.7s-1.3-2.7-1.3-4.7c0-2,0.4-3.6,1.3-4.8s2.1-1.7,3.7-1.7
			c1.7,0,2.9,0.6,3.8,1.9h0.1c-0.2-1-0.3-1.9-0.3-2.7v-0.6h-3.7v-2.3h3.7v-1.9h3.6v1.9h1.8v2.3H103v14h-2.7l-0.7-1.7h-0.2
			C98.6,101,97.3,101.7,95.7,101.7z M96.9,98.8c0.9,0,1.6-0.2,2-0.7s0.7-1.3,0.7-2.5v-0.3c0-1.3-0.2-2.2-0.7-2.7s-1.1-0.8-2.1-0.8
			c-0.8,0-1.4,0.3-1.9,0.9s-0.7,1.5-0.7,2.7c0,1.2,0.2,2,0.7,2.6S96.1,98.8,96.9,98.8z"/>
		<path class="st0" d="M106.9,84.9c0-1.2,0.6-1.7,1.9-1.7s1.9,0.6,1.9,1.7c0,0.6-0.2,1-0.5,1.3s-0.8,0.5-1.5,0.5
			C107.6,86.7,106.9,86.1,106.9,84.9z M110.7,101.4h-3.6V88.3h3.6V101.4z"/>
		<path class="st0" d="M116.6,84.6h-1.8c-1.3-0.9-2.2-1.7-2.7-2.4v-0.2h2.8c0.4,0.9,1,1.7,1.6,2.4V84.6z M120.3,101.7
			c-2.1,0-3.8-0.6-4.9-1.7s-1.8-2.8-1.8-4.9c0-2.2,0.5-3.9,1.6-5.1s2.6-1.8,4.6-1.8c1.9,0,3.3,0.5,4.3,1.6s1.5,2.5,1.5,4.4v1.7h-8.4
			c0,1,0.3,1.8,0.9,2.4s1.4,0.9,2.4,0.9c0.8,0,1.5-0.1,2.2-0.2s1.4-0.4,2.2-0.8v2.8c-0.6,0.3-1.3,0.5-2,0.7S121.4,101.7,120.3,101.7
			z M115.6,86.6c0.9-1,1.7-2.1,2.5-3.3h3.7c0.4,0.6,0.8,1.2,1.3,1.8s0.9,1.1,1.2,1.5v0.3h-1.9c-0.8-0.5-1.6-1.2-2.5-1.9
			c-0.8,0.8-1.7,1.4-2.5,1.9h-1.9V86.6z M119.8,90.6c-0.8,0-1.4,0.2-1.8,0.7s-0.7,1.2-0.7,2h5c0-0.9-0.2-1.6-0.7-2
			S120.6,90.6,119.8,90.6z"/>
		<path class="st0" d="M137.9,101.4l-0.5-1.7h-0.2c-0.4,0.6-0.9,1.1-1.6,1.4s-1.5,0.5-2.4,0.5c-1.5,0-2.7-0.4-3.5-1.2
			s-1.2-2-1.2-3.6v-8.5h3.6V96c0,0.9,0.2,1.7,0.5,2.1s0.9,0.7,1.6,0.7c1,0,1.7-0.3,2.2-1s0.7-1.8,0.7-3.3v-6.2h3.6v13.1H137.9z"/>
		<path class="st0" d="M148.7,88.3h3.9l2.5,7.4c0.2,0.6,0.4,1.4,0.4,2.3h0.1c0.1-0.8,0.3-1.6,0.5-2.3l2.4-7.4h3.8l-5.5,14.8
			c-0.5,1.4-1.2,2.4-2.2,3.1s-2,1-3.3,1c-0.6,0-1.2-0.1-1.8-0.2v-2.8c0.4,0.1,0.9,0.2,1.4,0.2c0.6,0,1.2-0.2,1.7-0.6s0.8-1,1.1-1.8
			l0.2-0.6L148.7,88.3z"/>
		<path class="st0" d="M170.2,101.7c-2.1,0-3.8-0.6-4.9-1.7s-1.8-2.8-1.8-4.9c0-2.2,0.5-3.9,1.6-5.1s2.6-1.8,4.6-1.8
			c1.9,0,3.3,0.5,4.3,1.6s1.5,2.5,1.5,4.4v1.7h-8.4c0,1,0.3,1.8,0.9,2.4s1.4,0.9,2.4,0.9c0.8,0,1.5-0.1,2.2-0.2s1.4-0.4,2.2-0.8v2.8
			c-0.6,0.3-1.3,0.5-2,0.7S171.2,101.7,170.2,101.7z M172.5,86.9c-1.2-0.7-2.1-1.4-2.7-2.1c-0.6,0.6-1.5,1.3-2.7,2.1h-2.4v-0.3
			c1.5-1.5,2.5-2.7,3-3.5h4.2c0.2,0.4,0.7,1,1.3,1.7s1.2,1.3,1.7,1.9v0.3H172.5z M169.7,90.6c-0.8,0-1.4,0.2-1.8,0.7s-0.7,1.2-0.7,2
			h5c0-0.9-0.2-1.6-0.7-2S170.4,90.6,169.7,90.6z"/>
		<path class="st0" d="M187.7,101.4l-0.5-1.7H187c-0.4,0.6-0.9,1.1-1.6,1.4s-1.5,0.5-2.4,0.5c-1.5,0-2.7-0.4-3.5-1.2s-1.2-2-1.2-3.6
			v-8.5h3.6V96c0,0.9,0.2,1.7,0.5,2.1s0.9,0.7,1.6,0.7c1,0,1.7-0.3,2.2-1s0.7-1.8,0.7-3.3v-6.2h3.6v13.1H187.7z"/>
		<path class="st0" d="M12.6,127.6c0.6,0,1.4-0.1,2.3-0.4v2.7c-0.9,0.4-2,0.6-3.3,0.6c-1.4,0-2.5-0.4-3.1-1.1s-1-1.8-1-3.3v-6.3H5.7
			v-1.5l2-1.2l1-2.8H11v2.8h3.7v2.7H11v6.3c0,0.5,0.1,0.9,0.4,1.1S12.1,127.6,12.6,127.6z"/>
		<path class="st0" d="M29.5,130.2H26v-7.7c0-1.9-0.7-2.8-2.1-2.8c-1,0-1.7,0.3-2.2,1s-0.7,1.8-0.7,3.3v6.2h-3.6V112H21v3.7
			c0,0.3,0,1-0.1,2l-0.1,1.1H21c0.8-1.3,2.1-1.9,3.8-1.9c1.5,0,2.7,0.4,3.5,1.2s1.2,2,1.2,3.6V130.2z"/>
		<path class="st0" d="M33,115.7v-0.3c1.3-1.6,2.3-2.7,2.8-3.5h4v0.2c-0.4,0.4-1.1,1-2.1,1.8s-1.7,1.4-2.3,1.8H33z M36.8,130.2h-3.6
			v-13.1h3.6V130.2z"/>
		<path class="st0" d="M45.9,130.5c-4.1,0-6.1-2.2-6.1-6.7c0-2.2,0.6-3.9,1.7-5.1s2.7-1.8,4.8-1.8c1.5,0,2.9,0.3,4.1,0.9l-1.1,2.8
			c-0.6-0.2-1.1-0.4-1.6-0.6s-1-0.2-1.5-0.2c-1.9,0-2.8,1.3-2.8,4c0,2.6,0.9,3.8,2.8,3.8c0.7,0,1.3-0.1,1.9-0.3s1.2-0.5,1.8-0.9v3.1
			c-0.6,0.4-1.2,0.6-1.8,0.8S46.8,130.5,45.9,130.5z"/>
		<path class="st0" d="M65,130.2h-3.6v-7.7c0-1.9-0.7-2.8-2.1-2.8c-1,0-1.7,0.3-2.2,1s-0.7,1.8-0.7,3.3v6.2h-3.6V112h3.6v3.7
			c0,0.3,0,1-0.1,2l-0.1,1.1h0.2c0.8-1.3,2.1-1.9,3.8-1.9c1.5,0,2.7,0.4,3.5,1.2s1.2,2,1.2,3.6V130.2z"/>
		<path class="st0" d="M78.3,123.1l1.6-2l3.7-4h4l-5.2,5.7l5.5,7.4h-4.1l-3.8-5.3l-1.5,1.2v4.1h-3.6V112h3.6v8.1L78.3,123.1
			L78.3,123.1z"/>
		<path class="st0" d="M101.9,130.2h-3.6v-7.7c0-1.9-0.7-2.8-2.1-2.8c-1,0-1.7,0.3-2.2,1s-0.7,1.8-0.7,3.3v6.2h-3.6V112h3.6v3.7
			c0,0.3,0,1-0.1,2l-0.1,1.1h0.2c0.8-1.3,2.1-1.9,3.8-1.9c1.5,0,2.7,0.4,3.5,1.2s1.2,2,1.2,3.6V130.2z"/>
		<path class="st0" d="M105.4,113.7c0-1.2,0.6-1.7,1.9-1.7s1.9,0.6,1.9,1.7c0,0.6-0.2,1-0.5,1.3s-0.8,0.5-1.5,0.5
			C106,115.5,105.4,114.9,105.4,113.7z M109.1,130.2h-3.6v-13.1h3.6V130.2z"/>
		<path class="st0" d="M130.8,130.2h-3.6v-7.7c0-0.9-0.2-1.7-0.5-2.1s-0.8-0.7-1.5-0.7c-0.9,0-1.6,0.3-2,1s-0.6,1.8-0.6,3.3v6.2
			h-3.6v-13.1h2.7l0.5,1.7h0.2c0.4-0.6,0.9-1.1,1.5-1.4s1.4-0.5,2.3-0.5c2,0,3.3,0.6,4,1.9h0.3c0.4-0.6,0.9-1.1,1.6-1.4
			s1.5-0.5,2.3-0.5c1.5,0,2.6,0.4,3.4,1.1s1.1,2,1.1,3.7v8.5h-3.6v-7.7c0-0.9-0.2-1.7-0.5-2.1s-0.8-0.7-1.5-0.7
			c-0.9,0-1.5,0.3-2,0.9s-0.7,1.6-0.7,3V130.2z"/>
		<path class="st0" d="M152,130.2l-0.5-1.7h-0.2c-0.4,0.6-0.9,1.1-1.6,1.4s-1.5,0.5-2.4,0.5c-1.5,0-2.7-0.4-3.5-1.2s-1.2-2-1.2-3.6
			v-8.5h3.6v7.7c0,0.9,0.2,1.7,0.5,2.1s0.9,0.7,1.6,0.7c1,0,1.7-0.3,2.2-1s0.7-1.8,0.7-3.3v-6.2h3.6v13.1H152z"/>
		<path class="st0" d="M166.8,130.2l-0.7-1.8H166c-0.6,0.8-1.2,1.3-1.9,1.6s-1.5,0.4-2.5,0.4c-1.3,0-2.2-0.4-3-1.1s-1.1-1.7-1.1-3.1
			c0-1.4,0.5-2.4,1.5-3.1s2.4-1,4.4-1.1l2.3-0.1v-0.6c0-1.3-0.7-2-2-2c-1,0-2.3,0.3-3.7,0.9l-1.2-2.4c1.5-0.8,3.2-1.2,5-1.2
			c1.8,0,3.1,0.4,4,1.1s1.4,1.9,1.4,3.5v8.7H166.8z M165.7,124.1l-1.4,0c-1,0-1.8,0.2-2.3,0.6s-0.8,0.9-0.8,1.6c0,1,0.6,1.5,1.7,1.5
			c0.8,0,1.5-0.2,2-0.7s0.7-1.1,0.7-1.9V124.1z"/>
		<path class="st0" d="M9.9,155.1c0,1.3-0.5,2.4-1.4,3.1s-2.3,1.1-4.2,1.1c-1,0-1.8-0.1-2.4-0.2s-1.3-0.3-1.9-0.6v-3
			c0.7,0.3,1.4,0.6,2.2,0.8s1.6,0.3,2.2,0.3c1.3,0,1.9-0.4,1.9-1.1c0-0.3-0.1-0.5-0.3-0.7s-0.5-0.4-0.9-0.6s-1-0.5-1.7-0.8
			c-1-0.4-1.7-0.8-2.2-1.2s-0.8-0.8-1-1.2S0,150,0,149.3c0-1.2,0.5-2.1,1.4-2.7s2.2-1,3.8-1c1.6,0,3.1,0.3,4.6,1l-1.1,2.6
			c-0.7-0.3-1.3-0.5-1.8-0.7s-1.2-0.3-1.7-0.3c-1.1,0-1.6,0.3-1.6,0.9c0,0.3,0.2,0.6,0.5,0.8s1.1,0.6,2.2,1c1,0.4,1.8,0.8,2.3,1.2
			s0.8,0.8,1.1,1.2S9.9,154.5,9.9,155.1z"/>
		<path class="st0" d="M21,159l-0.7-1.8h-0.1c-0.6,0.8-1.2,1.3-1.9,1.6s-1.5,0.4-2.5,0.4c-1.3,0-2.2-0.4-3-1.1s-1.1-1.7-1.1-3.1
			c0-1.4,0.5-2.4,1.5-3.1s2.4-1,4.4-1.1l2.3-0.1v-0.6c0-1.3-0.7-2-2-2c-1,0-2.3,0.3-3.7,0.9l-1.2-2.4c1.5-0.8,3.2-1.2,5-1.2
			c1.8,0,3.1,0.4,4,1.1s1.4,1.9,1.4,3.5v8.7H21z M22.3,140.5c-0.1,1.2-0.5,2.2-1.3,2.9s-1.8,1.1-3,1.1c-1.3,0-2.3-0.3-3-1
			s-1.1-1.7-1.2-3h1.8c0.1,0.7,0.3,1.2,0.8,1.5s1,0.5,1.7,0.5s1.3-0.2,1.7-0.6s0.7-0.8,0.8-1.4H22.3z M20,152.9l-1.4,0
			c-1,0-1.8,0.2-2.3,0.6s-0.8,0.9-0.8,1.6c0,1,0.6,1.5,1.7,1.5c0.8,0,1.5-0.2,2-0.7s0.7-1.1,0.7-1.9V152.9z M16.9,141.1
			c0.5-0.8,1-1.6,1.4-2.4h2.6v0.2c-0.7,0.9-1.5,1.7-2.4,2.4h-1.5V141.1z"/>
		<path class="st0" d="M39,159h-3.6v-7.7c0-0.9-0.2-1.7-0.5-2.1s-0.8-0.7-1.5-0.7c-0.9,0-1.6,0.3-2,1s-0.6,1.8-0.6,3.3v6.2h-3.6
			v-13.1H30l0.5,1.7h0.2c0.4-0.6,0.9-1.1,1.5-1.4s1.4-0.5,2.3-0.5c2,0,3.3,0.6,4,1.9h0.3c0.4-0.6,0.9-1.1,1.6-1.4s1.5-0.5,2.3-0.5
			c1.5,0,2.6,0.4,3.4,1.1s1.1,2,1.1,3.7v8.5h-3.6v-7.7c0-0.9-0.2-1.7-0.5-2.1s-0.8-0.7-1.5-0.7c-0.9,0-1.5,0.3-2,0.9s-0.7,1.6-0.7,3
			V159z"/>
		<path class="st0" d="M61.2,159.3c-1.5,0-2.8-0.6-3.6-1.8s-1.3-2.8-1.3-5c0-2.1,0.4-3.8,1.3-5s2.1-1.8,3.7-1.8
			c0.8,0,1.6,0.2,2.2,0.5s1.2,0.8,1.6,1.5h0.1l0.3-1.7h3v18.9h-3.6v-5.5c0-0.5,0.1-1.1,0.2-2h-0.2c-0.4,0.6-0.9,1.1-1.5,1.4
			S62,159.3,61.2,159.3z M62.4,156.5c0.9,0,1.6-0.3,2-0.8s0.7-1.4,0.7-2.7v-0.4c0-1.4-0.2-2.4-0.7-3s-1.1-0.9-2.1-0.9
			c-1.7,0-2.5,1.3-2.5,4c0,1.3,0.2,2.3,0.6,2.9S61.6,156.5,62.4,156.5z"/>
		<path class="st0" d="M81.5,159l-0.5-1.7h-0.2c-0.4,0.6-0.9,1.1-1.6,1.4s-1.5,0.5-2.4,0.5c-1.5,0-2.7-0.4-3.5-1.2s-1.2-2-1.2-3.6
			v-8.5h3.6v7.7c0,0.9,0.2,1.7,0.5,2.1s0.9,0.7,1.6,0.7c1,0,1.7-0.3,2.2-1s0.7-1.8,0.7-3.3v-6.2h3.6V159H81.5z"/>
		<path class="st0" d="M96.3,159l-0.7-1.8h-0.1c-0.6,0.8-1.2,1.3-1.9,1.6s-1.5,0.4-2.5,0.4c-1.3,0-2.2-0.4-3-1.1s-1.1-1.7-1.1-3.1
			c0-1.4,0.5-2.4,1.5-3.1s2.4-1,4.4-1.1l2.3-0.1v-0.6c0-1.3-0.7-2-2-2c-1,0-2.3,0.3-3.7,0.9l-1.2-2.4c1.5-0.8,3.2-1.2,5-1.2
			c1.8,0,3.1,0.4,4,1.1s1.4,1.9,1.4,3.5v8.7H96.3z M95.3,152.9l-1.4,0c-1,0-1.8,0.2-2.3,0.6s-0.8,0.9-0.8,1.6c0,1,0.6,1.5,1.7,1.5
			c0.8,0,1.5-0.2,2-0.7s0.7-1.1,0.7-1.9V152.9z"/>
		<path class="st0" d="M112.9,159.3c-1.5,0-2.7-0.6-3.6-1.8s-1.3-2.9-1.3-5c0-2.1,0.4-3.8,1.3-5s2.1-1.8,3.7-1.8
			c1.6,0,2.9,0.6,3.8,1.9h0.1c-0.2-1-0.3-1.8-0.3-2.6v-4.2h3.6V159h-2.7l-0.7-1.7h-0.2C115.8,158.6,114.5,159.3,112.9,159.3z
			 M114.1,156.4c0.9,0,1.6-0.3,2-0.8s0.7-1.4,0.7-2.7v-0.4c0-1.4-0.2-2.4-0.7-3s-1.1-0.9-2.1-0.9c-0.8,0-1.4,0.3-1.9,1
			s-0.7,1.7-0.7,2.9s0.2,2.3,0.7,2.9S113.3,156.4,114.1,156.4z"/>
		<path class="st0" d="M123.8,142.5c0-1.2,0.6-1.7,1.9-1.7s1.9,0.6,1.9,1.7c0,0.6-0.2,1-0.5,1.3s-0.8,0.5-1.5,0.5
			C124.4,144.3,123.8,143.7,123.8,142.5z M127.5,159h-3.6v-13.1h3.6V159z"/>
		<path class="st0" d="M141.6,159.3c-1.5,0-2.8-0.6-3.6-1.7s-1.3-2.7-1.3-4.7c0-2,0.4-3.6,1.3-4.8s2.1-1.7,3.7-1.7
			c1.7,0,2.9,0.6,3.8,1.9h0.1c-0.2-1-0.3-1.9-0.3-2.7V145h-3.7v-2.3h3.7v-1.9h3.6v1.9h1.8v2.3h-1.8v14h-2.7l-0.7-1.7h-0.2
			C144.5,158.6,143.3,159.3,141.6,159.3z M142.9,156.4c0.9,0,1.6-0.2,2-0.7s0.7-1.3,0.7-2.5v-0.3c0-1.3-0.2-2.2-0.7-2.7
			s-1.1-0.8-2.1-0.8c-0.8,0-1.4,0.3-1.9,0.9s-0.7,1.5-0.7,2.7c0,1.2,0.2,2,0.7,2.6S142,156.4,142.9,156.4z"/>
		<path class="st0" d="M164.9,152.4c0,2.1-0.6,3.8-1.7,5s-2.7,1.8-4.7,1.8c-1.3,0-2.4-0.3-3.3-0.8s-1.7-1.3-2.2-2.4
			s-0.8-2.2-0.8-3.6c0-2.1,0.6-3.8,1.7-5s2.7-1.8,4.7-1.8c1.3,0,2.4,0.3,3.3,0.8s1.7,1.3,2.2,2.4S164.9,151.1,164.9,152.4z
			 M161.3,144.5c-1.2-0.7-2.1-1.4-2.7-2.1c-0.6,0.6-1.5,1.3-2.7,2.1h-2.4v-0.3c1.5-1.5,2.5-2.7,3-3.5h4.2c0.2,0.4,0.7,1,1.3,1.7
			s1.2,1.3,1.7,1.9v0.3H161.3z M155.9,152.4c0,1.3,0.2,2.3,0.6,2.9s1.1,1,2.1,1c1,0,1.6-0.3,2.1-1s0.6-1.6,0.6-2.9
			c0-1.3-0.2-2.3-0.6-2.9s-1.1-1-2.1-1c-1,0-1.6,0.3-2.1,1S155.9,151.1,155.9,152.4z M156.6,162.3c0-1.2,0.6-1.8,1.9-1.8
			s1.9,0.6,1.9,1.8c0,0.6-0.2,1-0.5,1.3s-0.8,0.5-1.5,0.5C157.3,164.1,156.6,163.5,156.6,162.3z"/>
		<path class="st0" d="M180,159h-3.6v-7.7c0-0.9-0.2-1.7-0.5-2.1s-0.9-0.7-1.6-0.7c-1,0-1.7,0.3-2.2,1s-0.7,1.8-0.7,3.3v6.2h-3.6
			v-13.1h2.7l0.5,1.7h0.2c0.4-0.6,0.9-1.1,1.6-1.4s1.5-0.5,2.4-0.5c1.5,0,2.7,0.4,3.5,1.2s1.2,2,1.2,3.6V159z"/>
		<path class="st0" d="M195.1,159c0,1.9-0.5,3.3-1.6,4.3s-2.7,1.5-4.9,1.5c-1.9,0-3.5-0.3-4.9-0.8v-2.9c1.6,0.7,3.3,1,5.1,1
			c1.8,0,2.8-1,2.8-3v-0.3l0.1-1.6h-0.1c-0.8,1.3-2.1,1.9-3.7,1.9c-1.6,0-2.8-0.6-3.7-1.8s-1.3-2.9-1.3-4.9c0-2.1,0.4-3.8,1.3-5
			s2.1-1.8,3.7-1.8c1.6,0,2.9,0.6,3.8,1.9h0.1l0.3-1.7h3V159z M189.1,156.5c1,0,1.6-0.3,2.1-0.8s0.6-1.4,0.6-2.7v-0.4
			c0-1.4-0.2-2.4-0.7-3s-1.1-0.9-2.1-0.9c-1.7,0-2.5,1.3-2.5,4c0,1.3,0.2,2.3,0.6,2.9S188.2,156.5,189.1,156.5z"/>
	</g>
</g>
<g>
	<path class="st1" d="M97.4,38.3L97.4,38.3c-2.4,0-4.4-2-4.4-4.4V5.1c0-2.4,2-4.4,4.4-4.4h0c2.4,0,4.4,2,4.4,4.4v28.9
		C101.8,36.3,99.8,38.3,97.4,38.3z"/>
	<path class="st1" d="M75.8,21.3H120v31.5c0,2.9-2.3,5.2-5.2,5.2H93c0,0-8.2-1.9-9.4-9.6h-7.9V21.3z"/>
	<rect x="64.5" y="19.7" class="st2" width="13.4" height="38.4"/>
	<path class="st1" d="M99.4,23.7v-1c0-1.8,1.4-3.2,3.2-3.2h17.5c1.8,0,3.2,1.4,3.2,3.2v1c0,1.8-1.4,3.2-3.2,3.2h-17.5
		C100.9,26.9,99.4,25.5,99.4,23.7z"/>
	<path class="st1" d="M99.4,31.1v-1c0-1.8,1.4-3.2,3.2-3.2h17.5c1.8,0,3.2,1.4,3.2,3.2v1c0,1.8-1.4,3.2-3.2,3.2h-17.5
		C100.9,34.3,99.4,32.9,99.4,31.1z"/>
	<path class="st1" d="M99.4,38.6v-1c0-1.8,1.4-3.2,3.2-3.2h17.5c1.8,0,3.2,1.4,3.2,3.2v1c0,1.8-1.4,3.2-3.2,3.2h-17.5
		C100.9,41.8,99.4,40.3,99.4,38.6z"/>
	<path class="st1" d="M99.4,46v-1c0-1.8,1.4-3.2,3.2-3.2h17.5c1.8,0,3.2,1.4,3.2,3.2v1c0,1.8-1.4,3.2-3.2,3.2h-17.5
		C100.9,49.2,99.4,47.8,99.4,46z"/>
	<rect x="64.4" y="49.2" class="st3" width="13.5" height="8.8"/>
</g>
</svg>