<!-- Generator: Adobe Illustrator 19.1.0, SVG Export Plug-In  -->
<svg version="1.1"
	 xmlns="http://www.w3.org/2000/svg" xmlns:xlink="http://www.w3.org/1999/xlink" xmlns:a="http://ns.adobe.com/AdobeSVGViewerExtensions/3.0/"
	 x="0px" y="0px" width="780.1px" height="379.3px" viewBox="0 0 780.1 379.3"
	 style="overflow:scroll;enable-background:new 0 0 780.1 379.3;" xml:space="preserve">
<style type="text/css">
	.st0{fill:#E3E3E3;stroke:#E3E3E3;stroke-width:2.0919;stroke-miterlimit:10;}
	.st1{fill:#9D9FA0;}
	.st2{fill:#ED6A4A;}
	.st3{fill:#086A87;stroke:#086A87;stroke-width:1.81;stroke-linecap:round;stroke-linejoin:round;stroke-miterlimit:10;}
	.st4{fill:#33CCCC;}
	.st5{fill:#FFFFFF;}
	.st6{fill:none;stroke:#ED6A4A;stroke-width:7.4568;stroke-miterlimit:10;}
	.st7{fill:#FF6633;}
	.st8{fill:#086A87;stroke:#086A87;stroke-width:2.3031;stroke-linecap:round;stroke-linejoin:round;stroke-miterlimit:10;}
	.st9{fill:#FFFFFF;stroke:#ED6A4A;stroke-width:2.3031;stroke-miterlimit:10;}
	.st10{fill:none;stroke:#ED6A4A;stroke-width:7.3184;stroke-miterlimit:10;}
	.st11{fill:#086A87;stroke:#086A87;stroke-width:2.2793;stroke-linecap:round;stroke-linejoin:round;stroke-miterlimit:10;}
	.st12{fill:#E3E3E3;stroke:#FFFFFF;stroke-width:4;stroke-miterlimit:10;}
</style>
<defs>
</defs>
<rect x="3.7" y="103.9" class="st0" width="277.6" height="271.2"/>
<rect x="281.3" y="304.5" class="st1" width="295.2" height="35.9"/>
<rect x="281.3" y="250.7" class="st2" width="272.9" height="35.9"/>
<rect x="281.3" y="196.9" class="st3" width="382.4" height="35.9"/>
<rect x="281.3" y="143.2" class="st4" width="346.6" height="35.9"/>
<g>
	<g>
		<path class="st5" d="M313.2,163.9c0,1.3-0.5,2.3-1.4,3s-2.2,1.1-3.9,1.1c-1.5,0-2.9-0.3-4-0.9v-2.8c1,0.4,1.8,0.7,2.4,0.9
			c0.7,0.2,1.3,0.3,1.8,0.3c0.7,0,1.2-0.1,1.5-0.4c0.4-0.3,0.5-0.6,0.5-1.1c0-0.3-0.1-0.5-0.2-0.7s-0.4-0.4-0.7-0.6s-0.9-0.5-1.9-1
			c-0.9-0.4-1.5-0.8-2-1.2c-0.4-0.4-0.8-0.8-1-1.3c-0.3-0.5-0.4-1.1-0.4-1.8c0-1.3,0.4-2.3,1.3-3c0.9-0.7,2-1.1,3.5-1.1
			c0.7,0,1.5,0.1,2.1,0.3s1.4,0.4,2.1,0.7l-1,2.4c-0.8-0.3-1.4-0.5-1.9-0.7s-1-0.2-1.5-0.2c-0.6,0-1,0.1-1.3,0.4
			c-0.3,0.3-0.5,0.6-0.5,1c0,0.3,0.1,0.5,0.2,0.7c0.1,0.2,0.3,0.4,0.6,0.6c0.3,0.2,0.9,0.5,1.9,1c1.3,0.6,2.2,1.3,2.7,1.9
			C313,162.2,313.2,163,313.2,163.9z"/>
		<path class="st5" d="M320.5,168.1c-1.8,0-3.1-0.5-4.1-1.5c-1-1-1.5-2.3-1.5-4.1c0-1.8,0.5-3.2,1.4-4.2c0.9-1,2.2-1.5,3.8-1.5
			c1.5,0,2.7,0.4,3.6,1.3s1.3,2.1,1.3,3.6v1.4h-7c0,0.8,0.3,1.5,0.8,2s1.1,0.7,2,0.7c0.7,0,1.3-0.1,1.9-0.2s1.2-0.4,1.8-0.7v2.3
			c-0.5,0.3-1.1,0.5-1.7,0.6C322.1,168,321.4,168.1,320.5,168.1z M320.1,158.9c-0.6,0-1.1,0.2-1.5,0.6c-0.4,0.4-0.6,1-0.6,1.7h4.2
			c0-0.7-0.2-1.3-0.6-1.7S320.7,158.9,320.1,158.9z"/>
		<path class="st5" d="M332,165.7c0.5,0,1.1-0.1,1.9-0.3v2.2c-0.7,0.3-1.7,0.5-2.7,0.5c-1.2,0-2.1-0.3-2.6-0.9
			c-0.5-0.6-0.8-1.5-0.8-2.7v-5.3h-1.4V158l1.6-1l0.9-2.3h1.9v2.3h3.1v2.2h-3.1v5.3c0,0.4,0.1,0.7,0.4,0.9
			C331.3,165.6,331.6,165.7,332,165.7z"/>
		<path class="st5" d="M343,167.9l-0.6-1.5h-0.1c-0.5,0.6-1,1.1-1.5,1.3c-0.5,0.2-1.2,0.4-2.1,0.4c-1,0-1.9-0.3-2.5-0.9
			c-0.6-0.6-0.9-1.5-0.9-2.6c0-1.2,0.4-2,1.2-2.6s2-0.9,3.7-0.9l1.9-0.1v-0.5c0-1.1-0.6-1.7-1.7-1.7c-0.9,0-1.9,0.3-3.1,0.8l-1-2
			c1.3-0.7,2.6-1,4.2-1c1.5,0,2.6,0.3,3.4,1s1.2,1.6,1.2,2.9v7.3H343z M342.1,162.8l-1.2,0c-0.9,0-1.5,0.2-1.9,0.5
			c-0.4,0.3-0.6,0.7-0.6,1.3c0,0.8,0.5,1.3,1.4,1.3c0.7,0,1.2-0.2,1.7-0.6c0.4-0.4,0.6-0.9,0.6-1.6V162.8z"/>
		<path class="st5" d="M358.2,167.9h-3v-6.4c0-1.6-0.6-2.4-1.8-2.4c-0.8,0-1.4,0.3-1.8,0.8s-0.6,1.5-0.6,2.8v5.1h-3v-15.2h3v3.1
			c0,0.2,0,0.8-0.1,1.7l-0.1,0.9h0.2c0.7-1.1,1.7-1.6,3.2-1.6c1.3,0,2.3,0.3,2.9,1s1,1.7,1,3V167.9z"/>
		<path class="st5" d="M369,167.9l-0.4-1.4h-0.2c-0.3,0.5-0.8,0.9-1.4,1.2s-1.3,0.4-2,0.4c-1.3,0-2.2-0.3-2.9-1c-0.7-0.7-1-1.7-1-3
			V157h3v6.4c0,0.8,0.1,1.4,0.4,1.8c0.3,0.4,0.7,0.6,1.3,0.6c0.8,0,1.4-0.3,1.8-0.8s0.6-1.5,0.6-2.8V157h3v10.9H369z"/>
		<path class="st5" d="M384.5,167.9h-3v-6.4c0-0.8-0.1-1.4-0.4-1.8c-0.3-0.4-0.7-0.6-1.3-0.6c-0.8,0-1.4,0.3-1.8,0.8
			s-0.6,1.5-0.6,2.8v5.1h-3V157h2.3l0.4,1.4h0.2c0.3-0.5,0.8-0.9,1.4-1.2c0.6-0.3,1.2-0.4,2-0.4c1.3,0,2.2,0.3,2.9,1
			c0.7,0.7,1,1.7,1,3V167.9z"/>
		<path class="st5" d="M400.4,164.7c0,1.1-0.4,2-1.2,2.6c-0.8,0.6-1.9,0.9-3.5,0.9c-0.8,0-1.5-0.1-2-0.2c-0.6-0.1-1.1-0.3-1.6-0.5
			V165c0.6,0.3,1.2,0.5,1.9,0.7s1.3,0.3,1.8,0.3c1.1,0,1.6-0.3,1.6-0.9c0-0.2-0.1-0.4-0.2-0.6c-0.1-0.1-0.4-0.3-0.7-0.5
			s-0.8-0.4-1.4-0.6c-0.8-0.4-1.5-0.7-1.9-1c-0.4-0.3-0.7-0.6-0.9-1c-0.2-0.4-0.3-0.9-0.3-1.4c0-1,0.4-1.7,1.1-2.3s1.8-0.8,3.2-0.8
			c1.3,0,2.6,0.3,3.8,0.9l-0.9,2.1c-0.5-0.2-1.1-0.4-1.5-0.6c-0.5-0.1-1-0.2-1.5-0.2c-0.9,0-1.3,0.2-1.3,0.7c0,0.3,0.1,0.5,0.4,0.7
			s0.9,0.5,1.9,0.9c0.9,0.3,1.5,0.7,1.9,1c0.4,0.3,0.7,0.6,0.9,1C400.3,163.7,400.4,164.1,400.4,164.7z"/>
		<path class="st5" d="M407.6,168.1c-1.8,0-3.1-0.5-4.1-1.5c-1-1-1.5-2.3-1.5-4.1c0-1.8,0.5-3.2,1.4-4.2c0.9-1,2.2-1.5,3.8-1.5
			c1.5,0,2.7,0.4,3.6,1.3s1.3,2.1,1.3,3.6v1.4h-7c0,0.8,0.3,1.5,0.8,2s1.1,0.7,2,0.7c0.7,0,1.3-0.1,1.9-0.2s1.2-0.4,1.8-0.7v2.3
			c-0.5,0.3-1.1,0.5-1.7,0.6C409.2,168,408.5,168.1,407.6,168.1z M407.2,158.9c-0.6,0-1.1,0.2-1.5,0.6c-0.4,0.4-0.6,1-0.6,1.7h4.2
			c0-0.7-0.2-1.3-0.6-1.7S407.9,158.9,407.2,158.9z"/>
		<path class="st5" d="M417.4,162l1.3-1.7l3.1-3.3h3.4l-4.3,4.7l4.6,6.2h-3.4l-3.1-4.4l-1.3,1v3.4h-3v-15.2h3v6.8L417.4,162
			L417.4,162z"/>
		<path class="st5" d="M433.9,167.9l-0.6-1.5h-0.1c-0.5,0.6-1,1.1-1.5,1.3c-0.5,0.2-1.2,0.4-2.1,0.4c-1,0-1.9-0.3-2.5-0.9
			c-0.6-0.6-0.9-1.5-0.9-2.6c0-1.2,0.4-2,1.2-2.6s2-0.9,3.7-0.9l1.9-0.1v-0.5c0-1.1-0.6-1.7-1.7-1.7c-0.9,0-1.9,0.3-3.1,0.8l-1-2
			c1.3-0.7,2.6-1,4.2-1c1.5,0,2.6,0.3,3.4,1s1.2,1.6,1.2,2.9v7.3H433.9z M433,162.8l-1.2,0c-0.9,0-1.5,0.2-1.9,0.5
			c-0.4,0.3-0.6,0.7-0.6,1.3c0,0.8,0.5,1.3,1.4,1.3c0.7,0,1.2-0.2,1.7-0.6c0.4-0.4,0.6-0.9,0.6-1.6V162.8z"/>
		<path class="st5" d="M442,167.9h-3v-15.2h3V167.9z"/>
		<path class="st5" d="M445,154.2c0-1,0.5-1.5,1.6-1.5s1.6,0.5,1.6,1.5c0,0.5-0.1,0.8-0.4,1.1c-0.3,0.3-0.7,0.4-1.2,0.4
			C445.5,155.6,445,155.1,445,154.2z M448.1,167.9h-3V157h3V167.9z"/>
		<path class="st5" d="M496.2,156.8c0,0.9-0.3,1.7-0.8,2.3c-0.5,0.6-1.3,1.1-2.3,1.3v0.1c1.2,0.1,2,0.5,2.6,1
			c0.6,0.6,0.9,1.3,0.9,2.3c0,1.4-0.5,2.4-1.5,3.2s-2.4,1.1-4.3,1.1c-1.5,0-2.9-0.3-4.1-0.8v-2.6c0.6,0.3,1.2,0.5,1.8,0.7
			s1.3,0.3,2,0.3c1,0,1.7-0.2,2.2-0.5c0.5-0.3,0.7-0.9,0.7-1.6c0-0.7-0.3-1.1-0.8-1.4s-1.4-0.4-2.6-0.4H489v-2.3h1.1
			c1.1,0,1.9-0.1,2.4-0.4c0.5-0.3,0.8-0.8,0.8-1.5c0-1.1-0.7-1.6-2-1.6c-0.5,0-0.9,0.1-1.4,0.2c-0.5,0.2-1,0.4-1.6,0.8l-1.4-2.1
			c1.3-0.9,2.9-1.4,4.7-1.4c1.5,0,2.6,0.3,3.5,0.9C495.8,154.9,496.2,155.8,496.2,156.8z"/>
		<path class="st5" d="M503.4,158.8c1.4,0,2.5,0.4,3.3,1.2c0.8,0.8,1.2,1.8,1.2,3.2c0,1.6-0.5,2.8-1.5,3.7c-1,0.9-2.4,1.3-4.2,1.3
			c-1.6,0-2.9-0.3-3.8-0.8v-2.6c0.5,0.3,1.1,0.5,1.8,0.7s1.3,0.3,1.9,0.3c1.8,0,2.8-0.8,2.8-2.3c0-1.4-1-2.2-2.9-2.2
			c-0.3,0-0.7,0-1.1,0.1c-0.4,0.1-0.8,0.1-1,0.2l-1.2-0.6l0.5-7.3h7.7v2.6h-5.1l-0.3,2.8l0.3-0.1
			C502.4,158.8,502.9,158.8,503.4,158.8z"/>
		<path class="st5" d="M516.3,157.9c0,1.5-0.3,2.6-0.9,3.4c-0.6,0.8-1.4,1.1-2.5,1.1c-1.1,0-1.9-0.4-2.5-1.2s-0.9-1.9-0.9-3.3
			c0-3,1.1-4.5,3.4-4.5c1.1,0,1.9,0.4,2.5,1.2C516,155.3,516.3,156.5,516.3,157.9z M512,157.9c0,0.8,0.1,1.4,0.2,1.9
			s0.4,0.6,0.7,0.6c0.6,0,0.9-0.8,0.9-2.5c0-1.6-0.3-2.4-0.9-2.4c-0.3,0-0.6,0.2-0.7,0.6S512,157.1,512,157.9z M523,153.6l-7.9,14.3
			h-2.3l7.9-14.3H523z M526.3,163.6c0,1.5-0.3,2.6-0.9,3.4c-0.6,0.8-1.4,1.1-2.5,1.1c-1.1,0-1.9-0.4-2.5-1.2s-0.9-1.9-0.9-3.3
			c0-3,1.1-4.5,3.4-4.5c1.1,0,1.9,0.4,2.5,1.2C526,161.1,526.3,162.2,526.3,163.6z M522,163.6c0,0.8,0.1,1.4,0.2,1.9
			s0.4,0.6,0.7,0.6c0.6,0,0.9-0.8,0.9-2.5c0-1.6-0.3-2.4-0.9-2.4c-0.3,0-0.6,0.2-0.7,0.6S522,162.8,522,163.6z"/>
	</g>
</g>
<g>
	<g>
		<path class="st5" d="M313.2,218.6c0,1.3-0.5,2.3-1.4,3s-2.2,1.1-3.9,1.1c-1.5,0-2.9-0.3-4-0.9v-2.8c1,0.4,1.8,0.7,2.4,0.9
			c0.7,0.2,1.3,0.3,1.8,0.3c0.7,0,1.2-0.1,1.5-0.4c0.4-0.3,0.5-0.6,0.5-1.1c0-0.3-0.1-0.5-0.2-0.7s-0.4-0.4-0.7-0.6s-0.9-0.5-1.9-1
			c-0.9-0.4-1.5-0.8-2-1.2c-0.4-0.4-0.8-0.8-1-1.3c-0.3-0.5-0.4-1.1-0.4-1.8c0-1.3,0.4-2.3,1.3-3c0.9-0.7,2-1.1,3.5-1.1
			c0.7,0,1.5,0.1,2.1,0.3s1.4,0.4,2.1,0.7l-1,2.4c-0.8-0.3-1.4-0.5-1.9-0.7s-1-0.2-1.5-0.2c-0.6,0-1,0.1-1.3,0.4
			c-0.3,0.3-0.5,0.6-0.5,1c0,0.3,0.1,0.5,0.2,0.7c0.1,0.2,0.3,0.4,0.6,0.6c0.3,0.2,0.9,0.5,1.9,1c1.3,0.6,2.2,1.3,2.7,1.9
			C313,216.9,313.2,217.7,313.2,218.6z"/>
		<path class="st5" d="M320.5,222.8c-1.8,0-3.1-0.5-4.1-1.5c-1-1-1.5-2.3-1.5-4.1c0-1.8,0.5-3.2,1.4-4.2c0.9-1,2.2-1.5,3.8-1.5
			c1.5,0,2.7,0.4,3.6,1.3s1.3,2.1,1.3,3.6v1.4h-7c0,0.8,0.3,1.5,0.8,2s1.1,0.7,2,0.7c0.7,0,1.3-0.1,1.9-0.2s1.2-0.4,1.8-0.7v2.3
			c-0.5,0.3-1.1,0.5-1.7,0.6C322.1,222.7,321.4,222.8,320.5,222.8z M320.1,213.6c-0.6,0-1.1,0.2-1.5,0.6c-0.4,0.4-0.6,1-0.6,1.7h4.2
			c0-0.7-0.2-1.3-0.6-1.7S320.7,213.6,320.1,213.6z"/>
		<path class="st5" d="M333.4,211.5c1.3,0,2.3,0.5,3,1.5c0.7,1,1.1,2.4,1.1,4.1c0,1.8-0.4,3.2-1.1,4.2s-1.8,1.5-3.1,1.5
			c-1.3,0-2.3-0.5-3-1.4h-0.2l-0.5,1.2h-2.3v-15.2h3v3.5c0,0.4,0,1.2-0.1,2.2h0.1C331,212,332.1,211.5,333.4,211.5z M332.5,213.9
			c-0.7,0-1.3,0.2-1.6,0.7c-0.3,0.5-0.5,1.2-0.5,2.2v0.3c0,1.2,0.2,2,0.5,2.5c0.3,0.5,0.9,0.8,1.7,0.8c0.6,0,1.1-0.3,1.5-0.8
			s0.5-1.4,0.5-2.5s-0.2-1.9-0.5-2.4C333.6,214.1,333.1,213.9,332.5,213.9z"/>
		<path class="st5" d="M347.8,222.6l-0.4-1.4h-0.2c-0.3,0.5-0.8,0.9-1.4,1.2s-1.3,0.4-2,0.4c-1.3,0-2.2-0.3-2.9-1
			c-0.7-0.7-1-1.7-1-3v-7.1h3v6.4c0,0.8,0.1,1.4,0.4,1.8c0.3,0.4,0.7,0.6,1.3,0.6c0.8,0,1.4-0.3,1.8-0.8s0.6-1.5,0.6-2.8v-5.1h3
			v10.9H347.8z"/>
		<path class="st5" d="M356.2,222.6h-3v-15.2h3V222.6z"/>
		<path class="st5" d="M366.2,222.6l-0.6-1.5h-0.1c-0.5,0.6-1,1.1-1.5,1.3c-0.5,0.2-1.2,0.4-2.1,0.4c-1,0-1.9-0.3-2.5-0.9
			c-0.6-0.6-0.9-1.5-0.9-2.6c0-1.2,0.4-2,1.2-2.6s2-0.9,3.7-0.9l1.9-0.1v-0.5c0-1.1-0.6-1.7-1.7-1.7c-0.9,0-1.9,0.3-3.1,0.8l-1-2
			c1.3-0.7,2.6-1,4.2-1c1.5,0,2.6,0.3,3.4,1s1.2,1.6,1.2,2.9v7.3H366.2z M365.3,217.6l-1.2,0c-0.9,0-1.5,0.2-1.9,0.5
			c-0.4,0.3-0.6,0.7-0.6,1.3c0,0.8,0.5,1.3,1.4,1.3c0.7,0,1.2-0.2,1.7-0.6c0.4-0.4,0.6-0.9,0.6-1.6V217.6z"/>
		<path class="st5" d="M381.4,222.6h-3v-6.4c0-0.8-0.1-1.4-0.4-1.8c-0.3-0.4-0.7-0.6-1.3-0.6c-0.8,0-1.4,0.3-1.8,0.8
			s-0.6,1.5-0.6,2.8v5.1h-3v-10.9h2.3l0.4,1.4h0.2c0.3-0.5,0.8-0.9,1.4-1.2c0.6-0.3,1.2-0.4,2-0.4c1.3,0,2.2,0.3,2.9,1
			c0.7,0.7,1,1.7,1,3V222.6z"/>
		<path class="st5" d="M397.3,219.4c0,1.1-0.4,2-1.2,2.6c-0.8,0.6-1.9,0.9-3.5,0.9c-0.8,0-1.5-0.1-2-0.2c-0.6-0.1-1.1-0.3-1.6-0.5
			v-2.5c0.6,0.3,1.2,0.5,1.9,0.7s1.3,0.3,1.8,0.3c1.1,0,1.6-0.3,1.6-0.9c0-0.2-0.1-0.4-0.2-0.6c-0.1-0.1-0.4-0.3-0.7-0.5
			s-0.8-0.4-1.4-0.6c-0.8-0.4-1.5-0.7-1.9-1c-0.4-0.3-0.7-0.6-0.9-1c-0.2-0.4-0.3-0.9-0.3-1.4c0-1,0.4-1.7,1.1-2.3s1.8-0.8,3.2-0.8
			c1.3,0,2.6,0.3,3.8,0.9l-0.9,2.1c-0.5-0.2-1.1-0.4-1.5-0.6c-0.5-0.1-1-0.2-1.5-0.2c-0.9,0-1.3,0.2-1.3,0.7c0,0.3,0.1,0.5,0.4,0.7
			s0.9,0.5,1.9,0.9c0.9,0.3,1.5,0.7,1.9,1c0.4,0.3,0.7,0.6,0.9,1C397.2,218.4,397.3,218.8,397.3,219.4z"/>
		<path class="st5" d="M404.6,222.8c-1.8,0-3.1-0.5-4.1-1.5c-1-1-1.5-2.3-1.5-4.1c0-1.8,0.5-3.2,1.4-4.2c0.9-1,2.2-1.5,3.8-1.5
			c1.5,0,2.7,0.4,3.6,1.3s1.3,2.1,1.3,3.6v1.4h-7c0,0.8,0.3,1.5,0.8,2s1.1,0.7,2,0.7c0.7,0,1.3-0.1,1.9-0.2s1.2-0.4,1.8-0.7v2.3
			c-0.5,0.3-1.1,0.5-1.7,0.6C406.2,222.7,405.4,222.8,404.6,222.8z M404.2,213.6c-0.6,0-1.1,0.2-1.5,0.6c-0.4,0.4-0.6,1-0.6,1.7h4.2
			c0-0.7-0.2-1.3-0.6-1.7S404.8,213.6,404.2,213.6z"/>
		<path class="st5" d="M414.3,216.7l1.3-1.7l3.1-3.3h3.4l-4.3,4.7l4.6,6.2h-3.4l-3.1-4.4l-1.3,1v3.4h-3v-15.2h3v6.8L414.3,216.7
			L414.3,216.7z"/>
		<path class="st5" d="M430.8,222.6l-0.6-1.5h-0.1c-0.5,0.6-1,1.1-1.5,1.3c-0.5,0.2-1.2,0.4-2.1,0.4c-1,0-1.9-0.3-2.5-0.9
			c-0.6-0.6-0.9-1.5-0.9-2.6c0-1.2,0.4-2,1.2-2.6s2-0.9,3.7-0.9l1.9-0.1v-0.5c0-1.1-0.6-1.7-1.7-1.7c-0.9,0-1.9,0.3-3.1,0.8l-1-2
			c1.3-0.7,2.6-1,4.2-1c1.5,0,2.6,0.3,3.4,1s1.2,1.6,1.2,2.9v7.3H430.8z M429.9,217.6l-1.2,0c-0.9,0-1.5,0.2-1.9,0.5
			c-0.4,0.3-0.6,0.7-0.6,1.3c0,0.8,0.5,1.3,1.4,1.3c0.7,0,1.2-0.2,1.7-0.6c0.4-0.4,0.6-0.9,0.6-1.6V217.6z"/>
		<path class="st5" d="M438.9,222.6h-3v-15.2h3V222.6z"/>
		<path class="st5" d="M441.9,208.9c0-1,0.5-1.5,1.6-1.5c1.1,0,1.6,0.5,1.6,1.5c0,0.5-0.1,0.8-0.4,1.1c-0.3,0.3-0.7,0.4-1.2,0.4
			C442.5,210.3,441.9,209.8,441.9,208.9z M445,222.6h-3v-10.9h3V222.6z"/>
		<path class="st5" d="M493.2,211.5c0,0.9-0.3,1.7-0.8,2.3c-0.5,0.6-1.3,1.1-2.3,1.3v0.1c1.2,0.1,2,0.5,2.6,1
			c0.6,0.6,0.9,1.3,0.9,2.3c0,1.4-0.5,2.4-1.5,3.2s-2.4,1.1-4.3,1.1c-1.5,0-2.9-0.3-4.1-0.8v-2.6c0.6,0.3,1.2,0.5,1.8,0.7
			s1.3,0.3,2,0.3c1,0,1.7-0.2,2.2-0.5c0.5-0.3,0.7-0.9,0.7-1.6c0-0.7-0.3-1.1-0.8-1.4s-1.4-0.4-2.6-0.4h-1.1v-2.3h1.1
			c1.1,0,1.9-0.1,2.4-0.4c0.5-0.3,0.8-0.8,0.8-1.5c0-1.1-0.7-1.6-2-1.6c-0.5,0-0.9,0.1-1.4,0.2c-0.5,0.2-1,0.4-1.6,0.8l-1.4-2.1
			c1.3-0.9,2.9-1.4,4.7-1.4c1.5,0,2.6,0.3,3.5,0.9C492.7,209.6,493.2,210.5,493.2,211.5z"/>
		<path class="st5" d="M495.1,216.5c0-2.8,0.6-4.9,1.8-6.3c1.2-1.4,3-2.1,5.4-2.1c0.8,0,1.5,0,1.9,0.1v2.4c-0.6-0.1-1.2-0.2-1.7-0.2
			c-1,0-1.9,0.2-2.5,0.5s-1.1,0.8-1.5,1.4c-0.3,0.6-0.5,1.5-0.6,2.6h0.1c0.6-1.1,1.7-1.7,3.1-1.7c1.3,0,2.3,0.4,3,1.2
			s1.1,1.9,1.1,3.3c0,1.5-0.4,2.7-1.3,3.6s-2.1,1.3-3.6,1.3c-1.1,0-2-0.2-2.8-0.7c-0.8-0.5-1.4-1.2-1.8-2.1
			C495.3,219,495.1,217.9,495.1,216.5z M500.2,220.4c0.6,0,1.1-0.2,1.5-0.6c0.3-0.4,0.5-1,0.5-1.9c0-0.7-0.2-1.2-0.5-1.6
			s-0.8-0.6-1.5-0.6c-0.6,0-1.1,0.2-1.6,0.6c-0.4,0.4-0.6,0.9-0.6,1.4c0,0.8,0.2,1.4,0.6,2C499.1,220.1,499.6,220.4,500.2,220.4z"/>
		<path class="st5" d="M507,221.2c0-0.5,0.1-1,0.4-1.2s0.7-0.4,1.3-0.4c0.5,0,1,0.1,1.3,0.4c0.3,0.3,0.4,0.7,0.4,1.2
			c0,0.5-0.1,0.9-0.4,1.2c-0.3,0.3-0.7,0.4-1.3,0.4c-0.5,0-1-0.1-1.3-0.4C507.1,222.2,507,221.7,507,221.2z"/>
		<path class="st5" d="M517.5,213.5c1.4,0,2.5,0.4,3.3,1.2c0.8,0.8,1.2,1.8,1.2,3.2c0,1.6-0.5,2.8-1.5,3.7c-1,0.9-2.4,1.3-4.2,1.3
			c-1.6,0-2.9-0.3-3.8-0.8v-2.6c0.5,0.3,1.1,0.5,1.8,0.7s1.3,0.3,1.9,0.3c1.8,0,2.8-0.8,2.8-2.3c0-1.4-1-2.2-2.9-2.2
			c-0.3,0-0.7,0-1.1,0.1c-0.4,0.1-0.8,0.1-1,0.2l-1.2-0.6l0.5-7.3h7.7v2.6H516l-0.3,2.8l0.3-0.1
			C516.4,213.5,516.9,213.5,517.5,213.5z"/>
		<path class="st5" d="M530.4,212.6c0,1.5-0.3,2.6-0.9,3.4c-0.6,0.8-1.4,1.1-2.5,1.1c-1.1,0-1.9-0.4-2.5-1.2s-0.9-1.9-0.9-3.3
			c0-3,1.1-4.5,3.4-4.5c1.1,0,1.9,0.4,2.5,1.2C530.1,210.1,530.4,211.2,530.4,212.6z M526,212.6c0,0.8,0.1,1.4,0.2,1.9
			s0.4,0.6,0.7,0.6c0.6,0,0.9-0.8,0.9-2.5c0-1.6-0.3-2.4-0.9-2.4c-0.3,0-0.6,0.2-0.7,0.6S526,211.8,526,212.6z M537.1,208.3
			l-7.9,14.3h-2.3l7.9-14.3H537.1z M540.4,218.3c0,1.5-0.3,2.6-0.9,3.4c-0.6,0.8-1.4,1.1-2.5,1.1c-1.1,0-1.9-0.4-2.5-1.2
			s-0.9-1.9-0.9-3.3c0-3,1.1-4.5,3.4-4.5c1.1,0,1.9,0.4,2.5,1.2C540.1,215.8,540.4,216.9,540.4,218.3z M536,218.3
			c0,0.8,0.1,1.4,0.2,1.9s0.4,0.6,0.7,0.6c0.6,0,0.9-0.8,0.9-2.5c0-1.6-0.3-2.4-0.9-2.4c-0.3,0-0.6,0.2-0.7,0.6S536,217.5,536,218.3
			z"/>
	</g>
</g>
<g>
	<g>
		<path class="st5" d="M313.2,271.7c0,1.3-0.5,2.3-1.4,3s-2.2,1.1-3.9,1.1c-1.5,0-2.9-0.3-4-0.9v-2.8c1,0.4,1.8,0.7,2.4,0.9
			c0.7,0.2,1.3,0.3,1.8,0.3c0.7,0,1.2-0.1,1.5-0.4c0.4-0.3,0.5-0.6,0.5-1.1c0-0.3-0.1-0.5-0.2-0.7s-0.4-0.4-0.7-0.6s-0.9-0.5-1.9-1
			c-0.9-0.4-1.5-0.8-2-1.2c-0.4-0.4-0.8-0.8-1-1.3c-0.3-0.5-0.4-1.1-0.4-1.8c0-1.3,0.4-2.3,1.3-3c0.9-0.7,2-1.1,3.5-1.1
			c0.7,0,1.5,0.1,2.1,0.3s1.4,0.4,2.1,0.7l-1,2.4c-0.8-0.3-1.4-0.5-1.9-0.7s-1-0.2-1.5-0.2c-0.6,0-1,0.1-1.3,0.4
			c-0.3,0.3-0.5,0.6-0.5,1c0,0.3,0.1,0.5,0.2,0.7c0.1,0.2,0.3,0.4,0.6,0.6c0.3,0.2,0.9,0.5,1.9,1c1.3,0.6,2.2,1.3,2.7,1.9
			C313,270,313.2,270.8,313.2,271.7z"/>
		<path class="st5" d="M320.5,275.9c-1.8,0-3.1-0.5-4.1-1.5c-1-1-1.5-2.3-1.5-4.1c0-1.8,0.5-3.2,1.4-4.2c0.9-1,2.2-1.5,3.8-1.5
			c1.5,0,2.7,0.4,3.6,1.3s1.3,2.1,1.3,3.6v1.4h-7c0,0.8,0.3,1.5,0.8,2s1.1,0.7,2,0.7c0.7,0,1.3-0.1,1.9-0.2s1.2-0.4,1.8-0.7v2.3
			c-0.5,0.3-1.1,0.5-1.7,0.6C322.1,275.8,321.4,275.9,320.5,275.9z M320.1,266.7c-0.6,0-1.1,0.2-1.5,0.6c-0.4,0.4-0.6,1-0.6,1.7h4.2
			c0-0.7-0.2-1.3-0.6-1.7S320.7,266.7,320.1,266.7z"/>
		<path class="st5" d="M337.1,275.7h-3v-6.4c0-0.8-0.1-1.4-0.4-1.8s-0.7-0.6-1.2-0.6c-0.8,0-1.3,0.3-1.7,0.8
			c-0.3,0.6-0.5,1.5-0.5,2.8v5.1h-3v-10.9h2.3l0.4,1.4h0.2c0.3-0.5,0.7-0.9,1.3-1.2c0.6-0.3,1.2-0.4,1.9-0.4c1.6,0,2.7,0.5,3.3,1.6
			h0.3c0.3-0.5,0.7-0.9,1.3-1.2c0.6-0.3,1.2-0.4,1.9-0.4c1.2,0,2.2,0.3,2.8,1s1,1.7,1,3.1v7.1h-3v-6.4c0-0.8-0.1-1.4-0.4-1.8
			s-0.7-0.6-1.2-0.6c-0.7,0-1.3,0.3-1.6,0.8s-0.5,1.3-0.5,2.5V275.7z"/>
		<path class="st5" d="M346.9,261.9c0-1,0.5-1.5,1.6-1.5c1.1,0,1.6,0.5,1.6,1.5c0,0.5-0.1,0.8-0.4,1.1c-0.3,0.3-0.7,0.4-1.2,0.4
			C347.4,263.4,346.9,262.9,346.9,261.9z M350,275.7h-3v-10.9h3V275.7z"/>
		<path class="st5" d="M363.2,275.7h-3v-6.4c0-0.8-0.1-1.4-0.4-1.8c-0.3-0.4-0.7-0.6-1.3-0.6c-0.8,0-1.4,0.3-1.8,0.8
			s-0.6,1.5-0.6,2.8v5.1h-3v-10.9h2.3l0.4,1.4h0.2c0.3-0.5,0.8-0.9,1.4-1.2c0.6-0.3,1.2-0.4,2-0.4c1.3,0,2.2,0.3,2.9,1
			c0.7,0.7,1,1.7,1,3V275.7z"/>
		<path class="st5" d="M375.8,275.7c0,1.6-0.5,2.8-1.4,3.6c-0.9,0.8-2.3,1.2-4.1,1.2c-1.6,0-3-0.2-4.1-0.6v-2.4
			c1.3,0.6,2.7,0.8,4.3,0.8c1.5,0,2.3-0.8,2.3-2.5v-0.2l0.1-1.3h-0.1c-0.7,1.1-1.7,1.6-3.1,1.6c-1.3,0-2.3-0.5-3-1.5
			c-0.7-1-1.1-2.4-1.1-4.1c0-1.8,0.4-3.2,1.1-4.2c0.7-1,1.8-1.5,3.1-1.5c1.3,0,2.4,0.5,3.2,1.6h0.1l0.2-1.4h2.5V275.7z M370.8,273.5
			c0.8,0,1.4-0.2,1.7-0.7c0.3-0.5,0.5-1.2,0.5-2.2v-0.4c0-1.2-0.2-2-0.5-2.5s-0.9-0.8-1.7-0.8c-1.4,0-2.1,1.1-2.1,3.3
			c0,1.1,0.2,1.9,0.5,2.5C369.5,273.2,370,273.5,370.8,273.5z"/>
		<path class="st5" d="M388.5,275.7c0,1.6-0.5,2.8-1.4,3.6c-0.9,0.8-2.3,1.2-4.1,1.2c-1.6,0-3-0.2-4.1-0.6v-2.4
			c1.3,0.6,2.7,0.8,4.3,0.8c1.5,0,2.3-0.8,2.3-2.5v-0.2l0.1-1.3h-0.1c-0.7,1.1-1.7,1.6-3.1,1.6c-1.3,0-2.3-0.5-3-1.5
			c-0.7-1-1.1-2.4-1.1-4.1c0-1.8,0.4-3.2,1.1-4.2c0.7-1,1.8-1.5,3.1-1.5c1.3,0,2.4,0.5,3.2,1.6h0.1l0.2-1.4h2.5V275.7z M383.4,273.5
			c0.8,0,1.4-0.2,1.7-0.7c0.3-0.5,0.5-1.2,0.5-2.2v-0.4c0-1.2-0.2-2-0.5-2.5s-0.9-0.8-1.7-0.8c-1.4,0-2.1,1.1-2.1,3.3
			c0,1.1,0.2,1.9,0.5,2.5C382.2,273.2,382.7,273.5,383.4,273.5z"/>
		<path class="st5" d="M399.3,275.7l-0.4-1.4h-0.2c-0.3,0.5-0.8,0.9-1.4,1.2s-1.3,0.4-2,0.4c-1.3,0-2.2-0.3-2.9-1
			c-0.7-0.7-1-1.7-1-3v-7.1h3v6.4c0,0.8,0.1,1.4,0.4,1.8c0.3,0.4,0.7,0.6,1.3,0.6c0.8,0,1.4-0.3,1.8-0.8s0.6-1.5,0.6-2.8v-5.1h3
			v10.9H399.3z"/>
		<path class="st5" d="M417.5,272.4c0,1.1-0.4,2-1.2,2.6c-0.8,0.6-1.9,0.9-3.5,0.9c-0.8,0-1.5-0.1-2-0.2c-0.6-0.1-1.1-0.3-1.6-0.5
			v-2.5c0.6,0.3,1.2,0.5,1.9,0.7s1.3,0.3,1.8,0.3c1.1,0,1.6-0.3,1.6-0.9c0-0.2-0.1-0.4-0.2-0.6c-0.1-0.1-0.4-0.3-0.7-0.5
			s-0.8-0.4-1.4-0.6c-0.8-0.4-1.5-0.7-1.9-1c-0.4-0.3-0.7-0.6-0.9-1c-0.2-0.4-0.3-0.9-0.3-1.4c0-1,0.4-1.7,1.1-2.3s1.8-0.8,3.2-0.8
			c1.3,0,2.6,0.3,3.8,0.9l-0.9,2.1c-0.5-0.2-1.1-0.4-1.5-0.6c-0.5-0.1-1-0.2-1.5-0.2c-0.9,0-1.3,0.2-1.3,0.7c0,0.3,0.1,0.5,0.4,0.7
			s0.9,0.5,1.9,0.9c0.9,0.3,1.5,0.7,1.9,1c0.4,0.3,0.7,0.6,0.9,1C417.4,271.4,417.5,271.9,417.5,272.4z"/>
		<path class="st5" d="M424.8,275.9c-1.8,0-3.1-0.5-4.1-1.5c-1-1-1.5-2.3-1.5-4.1c0-1.8,0.5-3.2,1.4-4.2c0.9-1,2.2-1.5,3.8-1.5
			c1.5,0,2.7,0.4,3.6,1.3s1.3,2.1,1.3,3.6v1.4h-7c0,0.8,0.3,1.5,0.8,2s1.1,0.7,2,0.7c0.7,0,1.3-0.1,1.9-0.2s1.2-0.4,1.8-0.7v2.3
			c-0.5,0.3-1.1,0.5-1.7,0.6C426.4,275.8,425.6,275.9,424.8,275.9z M424.4,266.7c-0.6,0-1.1,0.2-1.5,0.6c-0.4,0.4-0.6,1-0.6,1.7h4.2
			c0-0.7-0.2-1.3-0.6-1.7S425,266.7,424.4,266.7z"/>
		<path class="st5" d="M434.5,269.7l1.3-1.7l3.1-3.3h3.4l-4.3,4.7l4.6,6.2h-3.4l-3.1-4.4l-1.3,1v3.4h-3v-15.2h3v6.8L434.5,269.7
			L434.5,269.7z"/>
		<path class="st5" d="M451,275.7l-0.6-1.5h-0.1c-0.5,0.6-1,1.1-1.5,1.3c-0.5,0.2-1.2,0.4-2.1,0.4c-1,0-1.9-0.3-2.5-0.9
			c-0.6-0.6-0.9-1.5-0.9-2.6c0-1.2,0.4-2,1.2-2.6c0.8-0.6,2-0.9,3.7-0.9l1.9-0.1v-0.5c0-1.1-0.6-1.7-1.7-1.7c-0.9,0-1.9,0.3-3.1,0.8
			l-1-2c1.3-0.7,2.6-1,4.2-1c1.5,0,2.6,0.3,3.4,1s1.2,1.6,1.2,2.9v7.3H451z M450.1,270.6l-1.2,0c-0.9,0-1.5,0.2-1.9,0.5
			c-0.4,0.3-0.6,0.7-0.6,1.3c0,0.8,0.5,1.3,1.4,1.3c0.7,0,1.2-0.2,1.7-0.6c0.4-0.4,0.6-0.9,0.6-1.6V270.6z"/>
		<path class="st5" d="M459.1,275.7h-3v-15.2h3V275.7z"/>
		<path class="st5" d="M462.1,261.9c0-1,0.5-1.5,1.6-1.5s1.6,0.5,1.6,1.5c0,0.5-0.1,0.8-0.4,1.1s-0.7,0.4-1.2,0.4
			C462.7,263.4,462.1,262.9,462.1,261.9z M465.2,275.7h-3v-10.9h3V275.7z"/>
		<path class="st5" d="M490.6,275.7h-3v-8.3l0-1.4l0-1.5c-0.5,0.5-0.8,0.8-1,1l-1.6,1.3l-1.5-1.8l4.6-3.7h2.5V275.7z"/>
		<path class="st5" d="M502.1,275.7h-3v-8.3l0-1.4l0-1.5c-0.5,0.5-0.8,0.8-1,1l-1.6,1.3L495,265l4.6-3.7h2.5V275.7z"/>
		<path class="st5" d="M506.4,274.3c0-0.5,0.1-1,0.4-1.2s0.7-0.4,1.3-0.4c0.5,0,1,0.1,1.3,0.4s0.4,0.7,0.4,1.2
			c0,0.5-0.1,0.9-0.4,1.2s-0.7,0.4-1.3,0.4c-0.5,0-1-0.1-1.3-0.4S506.4,274.8,506.4,274.3z"/>
		<path class="st5" d="M517,266.5c1.4,0,2.5,0.4,3.3,1.2s1.2,1.8,1.2,3.2c0,1.6-0.5,2.8-1.5,3.7s-2.4,1.3-4.2,1.3
			c-1.6,0-2.9-0.3-3.8-0.8v-2.6c0.5,0.3,1.1,0.5,1.8,0.7s1.3,0.3,1.9,0.3c1.8,0,2.8-0.8,2.8-2.3c0-1.4-1-2.2-2.9-2.2
			c-0.3,0-0.7,0-1.1,0.1s-0.8,0.1-1,0.2l-1.2-0.6l0.5-7.3h7.7v2.6h-5.1l-0.3,2.8l0.3-0.1C515.9,266.6,516.4,266.5,517,266.5z"/>
		<path class="st5" d="M529.8,265.6c0,1.5-0.3,2.6-0.9,3.4s-1.4,1.1-2.5,1.1c-1.1,0-1.9-0.4-2.5-1.2s-0.9-1.9-0.9-3.3
			c0-3,1.1-4.5,3.4-4.5c1.1,0,1.9,0.4,2.5,1.2S529.8,264.2,529.8,265.6z M525.5,265.7c0,0.8,0.1,1.4,0.2,1.9s0.4,0.6,0.7,0.6
			c0.6,0,0.9-0.8,0.9-2.5c0-1.6-0.3-2.4-0.9-2.4c-0.3,0-0.6,0.2-0.7,0.6S525.5,264.8,525.5,265.7z M536.5,261.4l-7.9,14.3h-2.3
			l7.9-14.3H536.5z M539.8,271.3c0,1.5-0.3,2.6-0.9,3.4s-1.4,1.1-2.5,1.1c-1.1,0-1.9-0.4-2.5-1.2s-0.9-1.9-0.9-3.3
			c0-3,1.1-4.5,3.4-4.5c1.1,0,1.9,0.4,2.5,1.2S539.8,269.9,539.8,271.3z M535.5,271.4c0,0.8,0.1,1.4,0.2,1.9s0.4,0.6,0.7,0.6
			c0.6,0,0.9-0.8,0.9-2.5c0-1.6-0.3-2.4-0.9-2.4c-0.3,0-0.6,0.2-0.7,0.6S535.5,270.5,535.5,271.4z"/>
	</g>
</g>
<g>
	<g>
		<path class="st5" d="M313.2,324.2c0,1.3-0.5,2.3-1.4,3s-2.2,1.1-3.9,1.1c-1.5,0-2.9-0.3-4-0.9v-2.8c1,0.4,1.8,0.7,2.4,0.9
			s1.3,0.3,1.8,0.3c0.7,0,1.2-0.1,1.5-0.4s0.5-0.6,0.5-1.1c0-0.3-0.1-0.5-0.2-0.7s-0.4-0.4-0.7-0.6s-0.9-0.5-1.9-1
			c-0.9-0.4-1.5-0.8-2-1.2s-0.8-0.8-1-1.3s-0.4-1.1-0.4-1.8c0-1.3,0.4-2.3,1.3-3s2-1.1,3.5-1.1c0.7,0,1.5,0.1,2.1,0.3
			s1.4,0.4,2.1,0.7l-1,2.4c-0.8-0.3-1.4-0.5-1.9-0.7s-1-0.2-1.5-0.2c-0.6,0-1,0.1-1.3,0.4s-0.5,0.6-0.5,1c0,0.3,0.1,0.5,0.2,0.7
			s0.3,0.4,0.6,0.6s0.9,0.5,1.9,1c1.3,0.6,2.2,1.3,2.7,1.9S313.2,323.2,313.2,324.2z"/>
		<path class="st5" d="M320.5,328.3c-1.8,0-3.1-0.5-4.1-1.5s-1.5-2.3-1.5-4.1c0-1.8,0.5-3.2,1.4-4.2s2.2-1.5,3.8-1.5
			c1.5,0,2.7,0.4,3.6,1.3s1.3,2.1,1.3,3.6v1.4h-7c0,0.8,0.3,1.5,0.8,2s1.1,0.7,2,0.7c0.7,0,1.3-0.1,1.9-0.2s1.2-0.4,1.8-0.7v2.3
			c-0.5,0.3-1.1,0.5-1.7,0.6S321.4,328.3,320.5,328.3z M320.1,319.1c-0.6,0-1.1,0.2-1.5,0.6s-0.6,1-0.6,1.7h4.2
			c0-0.7-0.2-1.3-0.6-1.7S320.7,319.1,320.1,319.1z"/>
		<path class="st5" d="M332,325.9c0.5,0,1.1-0.1,1.9-0.3v2.2c-0.7,0.3-1.7,0.5-2.7,0.5c-1.2,0-2.1-0.3-2.6-0.9s-0.8-1.5-0.8-2.7
			v-5.3h-1.4v-1.3l1.6-1l0.9-2.3h1.9v2.3h3.1v2.2h-3.1v5.3c0,0.4,0.1,0.7,0.4,0.9S331.6,325.9,332,325.9z"/>
		<path class="st5" d="M335.9,314.4c0-1,0.5-1.5,1.6-1.5s1.6,0.5,1.6,1.5c0,0.5-0.1,0.8-0.4,1.1s-0.7,0.4-1.2,0.4
			C336.5,315.8,335.9,315.4,335.9,314.4z M339,328.1h-3v-10.9h3V328.1z"/>
		<path class="st5" d="M349.1,328.1l-0.6-1.5h-0.1c-0.5,0.6-1,1.1-1.5,1.3s-1.2,0.4-2.1,0.4c-1,0-1.9-0.3-2.5-0.9s-0.9-1.5-0.9-2.6
			c0-1.2,0.4-2,1.2-2.6s2-0.9,3.7-0.9l1.9-0.1v-0.5c0-1.1-0.6-1.7-1.7-1.7c-0.9,0-1.9,0.3-3.1,0.8l-1-2c1.3-0.7,2.6-1,4.2-1
			c1.5,0,2.6,0.3,3.4,1s1.2,1.6,1.2,2.9v7.3H349.1z M348.2,323.1l-1.2,0c-0.9,0-1.5,0.2-1.9,0.5s-0.6,0.7-0.6,1.3
			c0,0.8,0.5,1.3,1.4,1.3c0.7,0,1.2-0.2,1.7-0.6s0.6-0.9,0.6-1.6V323.1z"/>
		<path class="st5" d="M360.2,328.3c-1.3,0-2.3-0.5-3-1.4h-0.2c0.1,0.9,0.2,1.4,0.2,1.6v4.4h-3v-15.7h2.4l0.4,1.4h0.1
			c0.7-1.1,1.7-1.6,3.1-1.6c1.3,0,2.3,0.5,3,1.5s1.1,2.4,1.1,4.2c0,1.2-0.2,2.2-0.5,3s-0.8,1.5-1.5,2S361.1,328.3,360.2,328.3z
			 M359.4,319.4c-0.7,0-1.3,0.2-1.6,0.7s-0.5,1.2-0.5,2.2v0.3c0,1.2,0.2,2,0.5,2.5s0.9,0.8,1.7,0.8c1.3,0,2-1.1,2-3.3
			c0-1.1-0.2-1.9-0.5-2.4S360.1,319.4,359.4,319.4z"/>
		<path class="st5" d="M382.2,328.1h-3v-6.4c0-1.6-0.6-2.4-1.8-2.4c-0.8,0-1.4,0.3-1.8,0.8s-0.6,1.5-0.6,2.8v5.1h-3v-15.2h3v3.1
			c0,0.2,0,0.8-0.1,1.7l-0.1,0.9h0.2c0.7-1.1,1.7-1.6,3.2-1.6c1.3,0,2.3,0.3,2.9,1s1,1.7,1,3V328.1z"/>
		<path class="st5" d="M392.2,328.1l-0.6-1.5h-0.1c-0.5,0.6-1,1.1-1.5,1.3s-1.2,0.4-2.1,0.4c-1,0-1.9-0.3-2.5-0.9s-0.9-1.5-0.9-2.6
			c0-1.2,0.4-2,1.2-2.6s2-0.9,3.7-0.9l1.9-0.1v-0.5c0-1.1-0.6-1.7-1.7-1.7c-0.9,0-1.9,0.3-3.1,0.8l-1-2c1.3-0.7,2.6-1,4.2-1
			c1.5,0,2.6,0.3,3.4,1s1.2,1.6,1.2,2.9v7.3H392.2z M391.3,323.1l-1.2,0c-0.9,0-1.5,0.2-1.9,0.5s-0.6,0.7-0.6,1.3
			c0,0.8,0.5,1.3,1.4,1.3c0.7,0,1.2-0.2,1.7-0.6s0.6-0.9,0.6-1.6V323.1z"/>
		<path class="st5" d="M403.4,317c0.4,0,0.7,0,1,0.1l-0.2,2.8c-0.2-0.1-0.5-0.1-0.9-0.1c-1,0-1.7,0.2-2.2,0.7s-0.8,1.2-0.8,2.1v5.6
			h-3v-10.9h2.3l0.4,1.8h0.1c0.3-0.6,0.8-1.1,1.4-1.5S402.7,317,403.4,317z"/>
		<path class="st5" d="M406.3,314.4c0-1,0.5-1.5,1.6-1.5s1.6,0.5,1.6,1.5c0,0.5-0.1,0.8-0.4,1.1s-0.7,0.4-1.2,0.4
			C406.8,315.8,406.3,315.4,406.3,314.4z M409.4,328.1h-3v-10.9h3V328.1z"/>
		<path class="st5" d="M497.1,328.1h-3v-8.3l0-1.4l0-1.5c-0.5,0.5-0.8,0.8-1,1l-1.6,1.3l-1.5-1.8l4.6-3.7h2.5V328.1z"/>
		<path class="st5" d="M502.5,328.1l5.4-11.7h-7v-2.5h10.2v1.9l-5.4,12.4H502.5z"/>
		<path class="st5" d="M519.1,318.1c0,1.5-0.3,2.6-0.9,3.4c-0.6,0.8-1.4,1.1-2.5,1.1c-1.1,0-1.9-0.4-2.5-1.2s-0.9-1.9-0.9-3.3
			c0-3,1.1-4.5,3.4-4.5c1.1,0,1.9,0.4,2.5,1.2C518.8,315.6,519.1,316.7,519.1,318.1z M514.8,318.1c0,0.8,0.1,1.4,0.2,1.9
			s0.4,0.6,0.7,0.6c0.6,0,0.9-0.8,0.9-2.5c0-1.6-0.3-2.4-0.9-2.4c-0.3,0-0.6,0.2-0.7,0.6S514.8,317.3,514.8,318.1z M525.9,313.8
			l-7.9,14.3h-2.3l7.9-14.3H525.9z M529.1,323.8c0,1.5-0.3,2.6-0.9,3.4c-0.6,0.8-1.4,1.1-2.5,1.1c-1.1,0-1.9-0.4-2.5-1.2
			s-0.9-1.9-0.9-3.3c0-3,1.1-4.5,3.4-4.5c1.1,0,1.9,0.4,2.5,1.2C528.8,321.3,529.1,322.4,529.1,323.8z M524.8,323.8
			c0,0.8,0.1,1.4,0.2,1.9s0.4,0.6,0.7,0.6c0.6,0,0.9-0.8,0.9-2.5c0-1.6-0.3-2.4-0.9-2.4c-0.3,0-0.6,0.2-0.7,0.6
			S524.8,323,524.8,323.8z"/>
	</g>
</g>
<rect x="3.7" y="113.1" class="st6" width="771.4" height="262.1"/>
<g>
	<line class="st4" x1="47.3" y1="176.4" x2="56.3" y2="185.3"/>
	<line class="st4" x1="56.3" y1="176.4" x2="47.3" y2="185.3"/>
</g>
<polygon class="st7" points="706.5,373.3 706.5,307.5 775,307.5 "/>
<circle class="st8" cx="154.8" cy="246.5" r="74.8"/>
<circle class="st9" cx="154.8" cy="246.5" r="61.1"/>
<polyline class="st9" points="154.8,206.6 154.8,246.5 183.6,246.5 "/>
<line class="st10" x1="281.3" y1="113.1" x2="281.3" y2="379.3"/>
<rect x="1.3" y="36.1" class="st11" width="777.6" height="83"/>
<path class="st12" d="M144.5,52.9h-3.1c-5.7,0-10.3-4.6-10.3-10.3V12.3c0-5.7,4.6-10.3,10.3-10.3h3.1c5.7,0,10.3,4.6,10.3,10.3v30.4
	C154.8,48.3,150.1,52.9,144.5,52.9z"/>
<path class="st12" d="M659.1,52.9H656c-5.7,0-10.3-4.6-10.3-10.3V12.3C645.7,6.6,650.3,2,656,2h3.1c5.7,0,10.3,4.6,10.3,10.3v30.4
	C669.4,48.3,664.8,52.9,659.1,52.9z"/>
<rect x="141.1" y="161.1" class="st8" width="28" height="14.4"/>
<rect x="134.1" y="145" class="st8" width="41.3" height="16.1"/>
<rect x="154.8" y="145" class="st4" width="8.7" height="16.1"/>
<rect x="162.3" y="145" class="st5" width="4.4" height="16.1"/>
<g>
	<g>
		<path class="st5" d="M114.3,95.7h-5V76.3h-6.4v-4.2h17.8v4.2h-6.4V95.7z"/>
		<path class="st5" d="M126.8,72.5h-2.4c-1.8-1.3-3-2.4-3.7-3.3v-0.3h3.9c0.6,1.2,1.3,2.3,2.2,3.2V72.5z M135.4,95.7l-1-2.4h-0.1
			c-0.8,1-1.7,1.8-2.6,2.2c-0.9,0.4-2,0.6-3.4,0.6c-1.7,0-3.1-0.5-4.1-1.5c-1-1-1.5-2.4-1.5-4.2c0-1.9,0.7-3.3,2-4.2
			s3.4-1.4,6.1-1.5l3.1-0.1v-0.8c0-1.8-0.9-2.7-2.8-2.7c-1.4,0-3.1,0.4-5.1,1.3l-1.6-3.3c2.1-1.1,4.4-1.6,6.9-1.6
			c2.4,0,4.3,0.5,5.6,1.6s1.9,2.7,1.9,4.8v12H135.4z M125.3,75.2c1.2-1.4,2.4-2.9,3.5-4.5h5.1c0.5,0.8,1.1,1.6,1.8,2.5
			s1.2,1.6,1.7,2v0.4h-2.6c-1-0.7-2.2-1.6-3.4-2.7c-1.1,1-2.3,1.9-3.4,2.7h-2.6V75.2z M134,87.3l-1.9,0.1c-1.4,0-2.5,0.3-3.2,0.8
			s-1,1.2-1,2.2c0,1.4,0.8,2.1,2.4,2.1c1.1,0,2-0.3,2.7-1c0.7-0.7,1-1.5,1-2.6V87.3z"/>
		<path class="st5" d="M160.5,95.7h-4.9V85.1c0-1.3-0.2-2.3-0.7-2.9s-1.2-1-2.2-1c-1.4,0-2.4,0.5-3,1.4c-0.6,0.9-0.9,2.4-0.9,4.6
			v8.5h-4.9v-18h3.8l0.7,2.3h0.3c0.5-0.9,1.3-1.5,2.3-2c1-0.4,2.1-0.7,3.3-0.7c2.1,0,3.7,0.6,4.8,1.7c1.1,1.1,1.6,2.8,1.6,4.9V95.7z
			"/>
		<path class="st5" d="M186.7,90.3c0,1.8-0.6,3.3-1.9,4.2c-1.3,1-3.2,1.5-5.8,1.5c-1.3,0-2.4-0.1-3.4-0.3c-0.9-0.2-1.8-0.4-2.6-0.8
			v-4.1c0.9,0.4,1.9,0.8,3.1,1.1s2.2,0.4,3,0.4c1.8,0,2.7-0.5,2.7-1.5c0-0.4-0.1-0.7-0.4-0.9c-0.2-0.2-0.6-0.5-1.2-0.8
			c-0.6-0.3-1.4-0.7-2.3-1.1c-1.4-0.6-2.4-1.1-3.1-1.6c-0.7-0.5-1.1-1.1-1.4-1.7c-0.3-0.6-0.4-1.4-0.4-2.4c0-1.6,0.6-2.8,1.9-3.7
			c1.2-0.9,3-1.3,5.3-1.3c2.2,0,4.3,0.5,6.3,1.4l-1.5,3.5c-0.9-0.4-1.7-0.7-2.5-1s-1.6-0.4-2.4-0.4c-1.5,0-2.2,0.4-2.2,1.2
			c0,0.4,0.2,0.8,0.7,1.1s1.5,0.8,3.1,1.4c1.4,0.6,2.4,1.1,3.1,1.6s1.1,1.1,1.5,1.7S186.7,89.4,186.7,90.3z"/>
		<path class="st5" d="M206.9,86.6c0,2.9-0.8,5.2-2.3,6.9s-3.7,2.5-6.5,2.5c-1.7,0-3.3-0.4-4.6-1.1c-1.3-0.8-2.3-1.8-3-3.3
			s-1.1-3.1-1.1-5c0-2.9,0.8-5.2,2.3-6.9s3.7-2.4,6.5-2.4c1.7,0,3.3,0.4,4.6,1.1s2.3,1.8,3,3.2S206.9,84.7,206.9,86.6z M204.1,75.7
			h-2.6c-1.2-0.8-2.3-1.7-3.4-2.7c-1.2,1.1-2.4,2-3.4,2.7h-2.6v-0.4c1.2-1.4,2.4-2.9,3.5-4.5h5.1c0.6,0.8,1.2,1.7,1.9,2.6
			c0.7,0.9,1.2,1.5,1.5,1.9V75.7z M194.5,86.6c0,1.8,0.3,3.1,0.9,4c0.6,0.9,1.5,1.4,2.9,1.4c1.3,0,2.3-0.5,2.8-1.4
			c0.6-0.9,0.9-2.3,0.9-4.1c0-1.8-0.3-3.1-0.9-4s-1.5-1.3-2.9-1.3c-1.3,0-2.3,0.4-2.8,1.3C194.8,83.5,194.5,84.8,194.5,86.6z
			 M202.7,72.1c0.9-1,1.7-2.1,2.2-3.2h3.9v0.3c-0.7,1-1.9,2.1-3.7,3.3h-2.4V72.1z"/>
		<path class="st5" d="M235.7,95.7h-4.9V85.1c0-1.3-0.2-2.3-0.7-2.9c-0.4-0.6-1.1-1-2.1-1c-1.3,0-2.2,0.5-2.7,1.4s-0.9,2.4-0.9,4.6
			v8.5h-4.9v-18h3.8l0.7,2.3h0.3c0.5-0.8,1.2-1.5,2.1-1.9c0.9-0.5,2-0.7,3.1-0.7c2.7,0,4.5,0.9,5.5,2.6h0.4c0.5-0.8,1.2-1.5,2.1-1.9
			c0.9-0.5,2-0.7,3.2-0.7c2,0,3.6,0.5,4.6,1.6c1,1,1.6,2.7,1.6,5v11.7H242V85.1c0-1.3-0.2-2.3-0.7-2.9c-0.4-0.6-1.1-1-2.1-1
			c-1.2,0-2.1,0.4-2.7,1.3c-0.6,0.9-0.9,2.2-0.9,4.1V95.7z"/>
		<path class="st5" d="M264.7,95.7l-0.7-2.3h-0.3c-0.5,0.8-1.3,1.5-2.2,1.9c-1,0.5-2.1,0.7-3.3,0.7c-2.1,0-3.7-0.6-4.8-1.7
			c-1.1-1.1-1.6-2.8-1.6-4.9V77.6h4.9v10.5c0,1.3,0.2,2.3,0.7,2.9c0.5,0.7,1.2,1,2.2,1c1.4,0,2.4-0.5,3-1.4c0.6-0.9,0.9-2.4,0.9-4.6
			v-8.5h4.9v18H264.7z"/>
		<path class="st5" d="M285.1,95.7l-1-2.4H284c-0.8,1-1.7,1.8-2.6,2.2c-0.9,0.4-2,0.6-3.4,0.6c-1.7,0-3.1-0.5-4.1-1.5
			s-1.5-2.4-1.5-4.2c0-1.9,0.7-3.3,2-4.2c1.3-0.9,3.4-1.4,6.1-1.5l3.1-0.1v-0.8c0-1.8-0.9-2.7-2.8-2.7c-1.4,0-3.1,0.4-5.1,1.3
			l-1.6-3.3c2.1-1.1,4.4-1.6,6.9-1.6c2.4,0,4.3,0.5,5.6,1.6s1.9,2.7,1.9,4.8v12H285.1z M283.6,87.3l-1.9,0.1c-1.4,0-2.5,0.3-3.2,0.8
			s-1,1.2-1,2.2c0,1.4,0.8,2.1,2.4,2.1c1.1,0,2-0.3,2.7-1s1-1.5,1-2.6V87.3z"/>
		<path class="st5" d="M314.7,90.3c0,1.8-0.6,3.3-1.9,4.2S309.6,96,307,96c-1.3,0-2.4-0.1-3.4-0.3c-0.9-0.2-1.8-0.4-2.6-0.8v-4.1
			c0.9,0.4,1.9,0.8,3.1,1.1c1.1,0.3,2.2,0.4,3,0.4c1.8,0,2.7-0.5,2.7-1.5c0-0.4-0.1-0.7-0.4-0.9c-0.2-0.2-0.6-0.5-1.2-0.8
			c-0.6-0.3-1.4-0.7-2.3-1.1c-1.4-0.6-2.4-1.1-3.1-1.6c-0.7-0.5-1.1-1.1-1.4-1.7c-0.3-0.6-0.4-1.4-0.4-2.4c0-1.6,0.6-2.8,1.9-3.7
			c1.2-0.9,3-1.3,5.3-1.3c2.2,0,4.3,0.5,6.3,1.4l-1.5,3.5c-0.9-0.4-1.7-0.7-2.5-1s-1.6-0.4-2.4-0.4c-1.5,0-2.2,0.4-2.2,1.2
			c0,0.4,0.2,0.8,0.7,1.1c0.5,0.3,1.5,0.8,3.1,1.4c1.4,0.6,2.4,1.1,3.1,1.6s1.1,1.1,1.5,1.7S314.7,89.4,314.7,90.3z"/>
		<path class="st5" d="M330,95.7l-1-2.4h-0.1c-0.8,1-1.7,1.8-2.6,2.2c-0.9,0.4-2,0.6-3.4,0.6c-1.7,0-3.1-0.5-4.1-1.5
			s-1.5-2.4-1.5-4.2c0-1.9,0.7-3.3,2-4.2c1.3-0.9,3.4-1.4,6.1-1.5l3.1-0.1v-0.8c0-1.8-0.9-2.7-2.8-2.7c-1.4,0-3.1,0.4-5.1,1.3
			l-1.6-3.3c2.1-1.1,4.4-1.6,6.9-1.6c2.4,0,4.3,0.5,5.6,1.6s1.9,2.7,1.9,4.8v12H330z M331.8,70.2c-0.1,1.7-0.7,3-1.7,4
			c-1,1-2.4,1.5-4.1,1.5c-1.8,0-3.2-0.5-4.2-1.4s-1.5-2.3-1.6-4.1h2.4c0.1,0.9,0.4,1.6,1.1,2.1c0.6,0.4,1.4,0.7,2.3,0.7
			s1.7-0.3,2.3-0.8s1-1.2,1.1-2H331.8z M328.6,87.3l-1.9,0.1c-1.4,0-2.5,0.3-3.2,0.8s-1,1.2-1,2.2c0,1.4,0.8,2.1,2.4,2.1
			c1.1,0,2-0.3,2.7-1s1-1.5,1-2.6V87.3z M324.3,71c0.8-1.1,1.4-2.2,1.9-3.2h3.6v0.3c-1,1.2-2.1,2.3-3.3,3.3h-2.1V71z"/>
		<path class="st5" d="M354.6,95.7h-4.9V85.1c0-1.3-0.2-2.3-0.7-2.9c-0.4-0.6-1.1-1-2.1-1c-1.3,0-2.2,0.5-2.7,1.4s-0.9,2.4-0.9,4.6
			v8.5h-4.9v-18h3.8l0.7,2.3h0.3c0.5-0.8,1.2-1.5,2.1-1.9c0.9-0.5,2-0.7,3.1-0.7c2.7,0,4.5,0.9,5.5,2.6h0.4c0.5-0.8,1.2-1.5,2.1-1.9
			c0.9-0.5,2-0.7,3.2-0.7c2,0,3.6,0.5,4.6,1.6c1,1,1.6,2.7,1.6,5v11.7h-4.9V85.1c0-1.3-0.2-2.3-0.7-2.9c-0.4-0.6-1.1-1-2.1-1
			c-1.2,0-2.1,0.4-2.7,1.3c-0.6,0.9-0.9,2.2-0.9,4.1V95.7z"/>
		<path class="st5" d="M385.2,96c-2.1,0-3.8-0.8-5-2.5s-1.8-3.9-1.8-6.8c0-2.9,0.6-5.2,1.8-6.9s2.9-2.5,5.1-2.5c1.1,0,2.1,0.2,3,0.6
			s1.6,1.1,2.2,2h0.1l0.4-2.3h4.2v25.9h-4.9V96c0-0.7,0.1-1.6,0.2-2.7h-0.2c-0.5,0.9-1.2,1.5-2.1,2S386.3,96,385.2,96z M386.9,92.1
			c1.2,0,2.2-0.4,2.7-1.1c0.6-0.7,0.9-2,1-3.7v-0.6c0-1.9-0.3-3.3-0.9-4.2c-0.6-0.8-1.6-1.3-2.9-1.3c-2.3,0-3.5,1.8-3.5,5.4
			c0,1.8,0.3,3.2,0.9,4S385.7,92.1,386.9,92.1z"/>
		<path class="st5" d="M413.1,95.7l-0.7-2.3h-0.3c-0.5,0.8-1.3,1.5-2.2,1.9c-1,0.5-2.1,0.7-3.3,0.7c-2.1,0-3.7-0.6-4.8-1.7
			c-1.1-1.1-1.6-2.8-1.6-4.9V77.6h4.9v10.5c0,1.3,0.2,2.3,0.7,2.9c0.5,0.7,1.2,1,2.2,1c1.4,0,2.4-0.5,3-1.4c0.6-0.9,0.9-2.4,0.9-4.6
			v-8.5h4.9v18H413.1z"/>
		<path class="st5" d="M433.5,95.7l-1-2.4h-0.1c-0.8,1-1.7,1.8-2.6,2.2c-0.9,0.4-2,0.6-3.4,0.6c-1.7,0-3.1-0.5-4.1-1.5
			s-1.5-2.4-1.5-4.2c0-1.9,0.7-3.3,2-4.2c1.3-0.9,3.4-1.4,6.1-1.5l3.1-0.1v-0.8c0-1.8-0.9-2.7-2.8-2.7c-1.4,0-3.1,0.4-5.1,1.3
			l-1.6-3.3c2.1-1.1,4.4-1.6,6.9-1.6c2.4,0,4.3,0.5,5.6,1.6s1.9,2.7,1.9,4.8v12H433.5z M432,87.3l-1.9,0.1c-1.4,0-2.5,0.3-3.2,0.8
			s-1,1.2-1,2.2c0,1.4,0.8,2.1,2.4,2.1c1.1,0,2-0.3,2.7-1s1-1.5,1-2.6V87.3z"/>
		<path class="st5" d="M458.1,92.1c0.9,0,1.9-0.2,3.1-0.6v3.7c-1.2,0.5-2.7,0.8-4.5,0.8c-2,0-3.4-0.5-4.3-1.5s-1.3-2.5-1.3-4.5v-8.7
			h-2.4v-2.1l2.7-1.6l1.4-3.8h3.1v3.8h5v3.7h-5V90c0,0.7,0.2,1.2,0.6,1.5S457.5,92.1,458.1,92.1z"/>
		<path class="st5" d="M481.5,95.7h-4.9V85.1c0-2.6-1-3.9-2.9-3.9c-1.4,0-2.4,0.5-3,1.4s-0.9,2.4-0.9,4.5v8.5h-4.9V70.6h4.9v5.1
			c0,0.4,0,1.3-0.1,2.8l-0.1,1.5h0.3c1.1-1.8,2.8-2.6,5.2-2.6c2.1,0,3.7,0.6,4.8,1.7s1.6,2.8,1.6,4.9V95.7z"/>
		<path class="st5" d="M486.4,73c0-1.6,0.9-2.4,2.7-2.4s2.7,0.8,2.7,2.4c0,0.8-0.2,1.4-0.7,1.8c-0.4,0.4-1.1,0.6-2,0.6
			C487.2,75.4,486.4,74.6,486.4,73z M491.5,95.7h-4.9v-18h4.9V95.7z"/>
		<path class="st5" d="M504.8,96c-2.9,0-5.2-0.8-6.8-2.4s-2.4-3.9-2.4-6.8c0-3,0.8-5.4,2.3-7c1.5-1.6,3.6-2.5,6.3-2.5
			c2.5,0,4.5,0.7,5.9,2.2s2.1,3.5,2.1,6v2.4h-11.6c0.1,1.4,0.5,2.5,1.2,3.3s1.9,1.2,3.3,1.2c1.1,0,2.1-0.1,3.1-0.3s2-0.6,3-1.1v3.8
			c-0.9,0.4-1.8,0.7-2.8,1C507.4,95.9,506.2,96,504.8,96z M510.1,75.7h-2.6c-1.2-0.8-2.3-1.7-3.4-2.7c-1.2,1.1-2.4,2-3.4,2.7H498
			v-0.4c1.2-1.4,2.4-2.9,3.5-4.5h5.1c0.6,0.8,1.2,1.7,1.9,2.6c0.7,0.9,1.2,1.5,1.5,1.9V75.7z M504.1,80.8c-1,0-1.9,0.3-2.4,1
			c-0.6,0.7-0.9,1.6-1,2.8h6.9c0-1.2-0.3-2.2-1-2.8C506,81.1,505.1,80.8,504.1,80.8z M508.6,72.1c0.9-1,1.7-2.1,2.2-3.2h3.9v0.3
			c-0.7,1-1.9,2.1-3.7,3.3h-2.4V72.1z"/>
		<path class="st5" d="M523.7,92.1c0.9,0,1.9-0.2,3.1-0.6v3.7c-1.2,0.5-2.7,0.8-4.5,0.8c-2,0-3.4-0.5-4.3-1.5s-1.3-2.5-1.3-4.5v-8.7
			h-2.4v-2.1l2.7-1.6l1.4-3.8h3.1v3.8h5v3.7h-5V90c0,0.7,0.2,1.2,0.6,1.5S523.1,92.1,523.7,92.1z"/>
		<path class="st5" d="M549,77.3c2.1,0,3.8,0.8,5,2.5c1.2,1.7,1.8,3.9,1.8,6.8c0,3-0.6,5.3-1.9,6.9c-1.2,1.6-2.9,2.4-5.1,2.4
			c-2.1,0-3.8-0.8-5-2.3h-0.3l-0.8,2H539V70.6h4.9v5.8c0,0.7-0.1,1.9-0.2,3.6h0.2C545.1,78.2,546.8,77.3,549,77.3z M547.5,81.2
			c-1.2,0-2.1,0.4-2.7,1.1c-0.6,0.7-0.8,2-0.9,3.7v0.5c0,1.9,0.3,3.3,0.9,4.2s1.5,1.3,2.7,1.3c1,0,1.8-0.5,2.4-1.4
			c0.6-0.9,0.9-2.3,0.9-4.1s-0.3-3.1-0.9-4C549.3,81.7,548.5,81.2,547.5,81.2z"/>
		<path class="st5" d="M559.7,100.2c0-1.6,0.9-2.4,2.7-2.4s2.7,0.8,2.7,2.4c0,0.8-0.2,1.4-0.7,1.8s-1.1,0.6-2,0.6
			C560.6,102.6,559.7,101.8,559.7,100.2z M559.7,73c0-1.6,0.9-2.4,2.7-2.4s2.7,0.8,2.7,2.4c0,0.8-0.2,1.4-0.7,1.8
			c-0.4,0.4-1.1,0.6-2,0.6C560.6,75.4,559.7,74.6,559.7,73z M564.8,95.7h-4.9v-18h4.9V95.7z"/>
		<path class="st5" d="M584.3,96c-2.1,0-3.8-0.8-5-2.5c-1.2-1.6-1.8-3.9-1.8-6.8c0-3,0.6-5.3,1.8-6.9c1.2-1.6,2.9-2.5,5.1-2.5
			c2.3,0,4,0.9,5.2,2.6h0.2c-0.2-1.3-0.4-2.5-0.4-3.6v-5.8h4.9v25.1h-3.8l-1-2.3h-0.2C588.2,95.1,586.5,96,584.3,96z M586,92.1
			c1.3,0,2.2-0.4,2.8-1.1s0.9-2,1-3.7v-0.5c0-1.9-0.3-3.3-0.9-4.2c-0.6-0.8-1.6-1.3-2.9-1.3c-1.1,0-1.9,0.5-2.6,1.4
			c-0.6,0.9-0.9,2.3-0.9,4.1s0.3,3.1,0.9,4C584,91.6,584.8,92.1,586,92.1z"/>
		<path class="st5" d="M599.2,73c0-1.6,0.9-2.4,2.7-2.4s2.7,0.8,2.7,2.4c0,0.8-0.2,1.4-0.7,1.8c-0.4,0.4-1.1,0.6-2,0.6
			C600.1,75.4,599.2,74.6,599.2,73z M604.3,95.7h-4.9v-18h4.9V95.7z"/>
		<path class="st5" d="M623.8,96c-2.1,0-3.8-0.8-5-2.4s-1.8-3.7-1.8-6.4c0-2.8,0.6-5,1.9-6.5s2.9-2.3,5.1-2.3c2.3,0,4,0.9,5.2,2.6
			h0.2c-0.2-1.4-0.4-2.7-0.4-3.7v-0.8h-5.1v-3.2h5.1v-2.6h4.9v2.6h2.5v3.2h-2.5v19.3H630l-1-2.3h-0.2C627.8,95.1,626.1,96,623.8,96z
			 M625.5,92.1c1.3,0,2.2-0.3,2.8-1c0.6-0.7,0.9-1.8,1-3.4v-0.5c0-1.8-0.3-3-0.9-3.8c-0.6-0.8-1.6-1.1-2.9-1.1
			c-1.1,0-1.9,0.4-2.6,1.3c-0.6,0.8-0.9,2.1-0.9,3.7c0,1.6,0.3,2.8,0.9,3.6S624.4,92.1,625.5,92.1z"/>
		<path class="st5" d="M655.9,86.6c0,2.9-0.8,5.2-2.3,6.9s-3.7,2.5-6.5,2.5c-1.7,0-3.3-0.4-4.6-1.1c-1.3-0.8-2.3-1.8-3-3.3
			s-1.1-3.1-1.1-5c0-2.9,0.8-5.2,2.3-6.9s3.7-2.4,6.5-2.4c1.7,0,3.3,0.4,4.6,1.1s2.3,1.8,3,3.2S655.9,84.7,655.9,86.6z M650.8,75.7
			c-1.7-1-2.9-1.9-3.8-2.8c-0.8,0.9-2.1,1.8-3.7,2.8h-3.3v-0.4c2-2,3.4-3.6,4.1-4.9h5.8c0.3,0.6,0.9,1.3,1.7,2.3
			c0.8,1,1.6,1.8,2.4,2.6v0.4H650.8z M643.4,86.6c0,1.8,0.3,3.1,0.9,4c0.6,0.9,1.5,1.4,2.9,1.4c1.3,0,2.3-0.5,2.8-1.4
			c0.6-0.9,0.9-2.3,0.9-4.1c0-1.8-0.3-3.1-0.9-4s-1.5-1.3-2.9-1.3c-1.3,0-2.3,0.4-2.8,1.3C643.7,83.5,643.4,84.8,643.4,86.6z
			 M644.4,100.2c0-1.6,0.9-2.4,2.7-2.4s2.7,0.8,2.7,2.4c0,0.8-0.2,1.4-0.7,1.8s-1.1,0.6-2,0.6C645.3,102.6,644.4,101.8,644.4,100.2z
			"/>
		<path class="st5" d="M676.6,95.7h-4.9V85.1c0-1.3-0.2-2.3-0.7-2.9s-1.2-1-2.2-1c-1.4,0-2.4,0.5-3,1.4c-0.6,0.9-0.9,2.4-0.9,4.6
			v8.5h-4.9v-18h3.8l0.7,2.3h0.3c0.5-0.9,1.3-1.5,2.3-2c1-0.4,2.1-0.7,3.3-0.7c2.1,0,3.7,0.6,4.8,1.7c1.1,1.1,1.6,2.8,1.6,4.9V95.7z
			"/>
		<path class="st5" d="M697.4,95.7c0,2.6-0.8,4.6-2.3,5.9c-1.5,1.3-3.8,2-6.7,2c-2.6,0-4.9-0.4-6.7-1.1v-3.9c2.2,0.9,4.5,1.4,7,1.4
			c2.5,0,3.8-1.4,3.8-4.1v-0.4l0.1-2.2h-0.1c-1.1,1.8-2.9,2.7-5.1,2.7c-2.2,0-3.8-0.8-5-2.5s-1.8-3.9-1.8-6.8c0-3,0.6-5.3,1.8-6.9
			c1.2-1.6,2.9-2.5,5.1-2.5c2.2,0,4,0.9,5.2,2.6h0.1l0.4-2.3h4.2V95.7z M689.1,92.1c1.3,0,2.3-0.4,2.8-1.1c0.6-0.8,0.9-2,0.9-3.7
			v-0.6c0-1.9-0.3-3.3-0.9-4.1c-0.6-0.8-1.6-1.3-2.9-1.3c-2.3,0-3.5,1.8-3.5,5.4c0,1.8,0.3,3.2,0.9,4S687.9,92.1,689.1,92.1z"/>
	</g>
</g>
</svg>