<!-- Generator: Adobe Illustrator 19.1.0, SVG Export Plug-In  -->
<svg version="1.1"
	 xmlns="http://www.w3.org/2000/svg" xmlns:xlink="http://www.w3.org/1999/xlink" xmlns:a="http://ns.adobe.com/AdobeSVGViewerExtensions/3.0/"
	 x="0px" y="0px" width="185.8px" height="156.5px" viewBox="0 0 185.8 156.5"
	 style="overflow:scroll;enable-background:new 0 0 185.8 156.5;" xml:space="preserve">
<style type="text/css">
	.st0{fill:#086A87;}
	.st1{fill:#FFFFFF;stroke:#ED6A4A;stroke-width:1.3374;stroke-miterlimit:10;}
	.st2{fill:#086A87;stroke:#086A87;stroke-width:0.6687;stroke-linecap:round;stroke-linejoin:round;stroke-miterlimit:10;}
	.st3{fill:#33CCCC;stroke:#33CCCC;stroke-width:0.6687;stroke-miterlimit:10;}
</style>
<defs>
</defs>
<g>
	<g>
		<path class="st0" d="M5.2,93.1H1.6V76h9.8v3H5.2v4.4H11v3H5.2V93.1z"/>
		<path class="st0" d="M22.8,93.1l-0.7-1.8H22c-0.6,0.8-1.2,1.3-1.9,1.6s-1.5,0.4-2.5,0.4c-1.3,0-2.2-0.4-3-1.1s-1.1-1.7-1.1-3.1
			c0-1.4,0.5-2.4,1.5-3.1s2.4-1,4.4-1.1l2.3-0.1v-0.6c0-1.3-0.7-2-2-2c-1,0-2.3,0.3-3.7,0.9l-1.2-2.4c1.5-0.8,3.2-1.2,5-1.2
			c1.8,0,3.1,0.4,4,1.1s1.4,1.9,1.4,3.5v8.7H22.8z M21.8,87.1l-1.4,0c-1,0-1.8,0.2-2.3,0.6s-0.8,0.9-0.8,1.6c0,1,0.6,1.5,1.7,1.5
			c0.8,0,1.5-0.2,2-0.7s0.7-1.1,0.7-1.9V87.1z"/>
		<path class="st0" d="M32.1,93.1l-5-13.1h3.7l2.5,7.5c0.3,0.8,0.4,1.7,0.5,2.7H34c0-0.9,0.2-1.8,0.5-2.7L37,80h3.7l-5,13.1H32.1z"
			/>
		<path class="st0" d="M54.6,86.6c0,2.1-0.6,3.8-1.7,5s-2.7,1.8-4.7,1.8c-1.3,0-2.4-0.3-3.3-0.8s-1.7-1.3-2.2-2.4s-0.8-2.2-0.8-3.6
			c0-2.1,0.6-3.8,1.7-5s2.7-1.8,4.7-1.8c1.3,0,2.4,0.3,3.3,0.8s1.7,1.3,2.2,2.4S54.6,85.2,54.6,86.6z M45.5,86.6
			c0,1.3,0.2,2.3,0.6,2.9s1.1,1,2.1,1c1,0,1.6-0.3,2.1-1s0.6-1.6,0.6-2.9c0-1.3-0.2-2.3-0.6-2.9s-1.1-1-2.1-1c-1,0-1.6,0.3-2.1,1
			S45.5,85.3,45.5,86.6z"/>
		<path class="st0" d="M64.8,79.8c0.5,0,0.9,0,1.2,0.1l-0.3,3.4c-0.3-0.1-0.6-0.1-1.1-0.1c-1.1,0-2,0.3-2.7,0.9s-1,1.4-1,2.5v6.7
			h-3.6V80h2.7l0.5,2.2h0.2c0.4-0.7,1-1.3,1.6-1.8S64,79.8,64.8,79.8z"/>
		<path class="st0" d="M68.3,76.6c0-1.2,0.6-1.7,1.9-1.7s1.9,0.6,1.9,1.7c0,0.6-0.2,1-0.5,1.3s-0.8,0.5-1.5,0.5
			C68.9,78.4,68.3,77.8,68.3,76.6z M72,93.1h-3.6V80H72V93.1z"/>
		<path class="st0" d="M81.2,90.5c0.6,0,1.4-0.1,2.3-0.4v2.7c-0.9,0.4-2,0.6-3.3,0.6c-1.4,0-2.5-0.4-3.1-1.1s-1-1.8-1-3.3v-6.3h-1.7
			v-1.5l2-1.2l1-2.8h2.3V80h3.7v2.7h-3.7V89c0,0.5,0.1,0.9,0.4,1.1S80.8,90.5,81.2,90.5z"/>
		<path class="st0" d="M92.1,93.4c-2.1,0-3.8-0.6-4.9-1.7s-1.8-2.8-1.8-4.9c0-2.2,0.5-3.9,1.6-5.1s2.6-1.8,4.6-1.8
			c1.9,0,3.3,0.5,4.3,1.6s1.5,2.5,1.5,4.4v1.7H89c0,1,0.3,1.8,0.9,2.4s1.4,0.9,2.4,0.9c0.8,0,1.5-0.1,2.2-0.2s1.4-0.4,2.2-0.8v2.8
			c-0.6,0.3-1.3,0.5-2,0.7S93.1,93.4,92.1,93.4z M91.6,82.3c-0.8,0-1.4,0.2-1.8,0.7s-0.7,1.2-0.7,2h5c0-0.9-0.2-1.6-0.7-2
			S92.3,82.3,91.6,82.3z"/>
		<path class="st0" d="M112.1,90.5c0.6,0,1.4-0.1,2.3-0.4v2.7c-0.9,0.4-2,0.6-3.3,0.6c-1.4,0-2.5-0.4-3.1-1.1s-1-1.8-1-3.3v-6.3
			h-1.7v-1.5l2-1.2l1-2.8h2.3V80h3.7v2.7h-3.7V89c0,0.5,0.1,0.9,0.4,1.1S111.6,90.5,112.1,90.5z"/>
		<path class="st0" d="M129.1,93.1h-3.6v-7.7c0-1.9-0.7-2.8-2.1-2.8c-1,0-1.7,0.3-2.2,1s-0.7,1.8-0.7,3.3v6.2H117V74.9h3.6v3.7
			c0,0.3,0,1-0.1,2l-0.1,1.1h0.2c0.8-1.3,2.1-1.9,3.8-1.9c1.5,0,2.7,0.4,3.5,1.2s1.2,2,1.2,3.6V93.1z"/>
		<path class="st0" d="M132.6,76.6c0-1.2,0.6-1.7,1.9-1.7s1.9,0.6,1.9,1.7c0,0.6-0.2,1-0.5,1.3s-0.8,0.5-1.5,0.5
			C133.2,78.4,132.6,77.8,132.6,76.6z M136.3,93.1h-3.6V80h3.6V93.1z"/>
		<path class="st0" d="M152.2,93.1h-3.6v-7.7c0-0.9-0.2-1.7-0.5-2.1s-0.9-0.7-1.6-0.7c-1,0-1.7,0.3-2.2,1s-0.7,1.8-0.7,3.3v6.2h-3.6
			V80h2.7l0.5,1.7h0.2c0.4-0.6,0.9-1.1,1.6-1.4s1.5-0.5,2.4-0.5c1.5,0,2.7,0.4,3.5,1.2s1.2,2,1.2,3.6V93.1z"/>
		<path class="st0" d="M167.3,93.2c0,1.9-0.5,3.3-1.6,4.3s-2.7,1.5-4.9,1.5c-1.9,0-3.5-0.3-4.9-0.8v-2.9c1.6,0.7,3.3,1,5.1,1
			c1.8,0,2.8-1,2.8-3V93l0.1-1.6h-0.1c-0.8,1.3-2.1,1.9-3.7,1.9c-1.6,0-2.8-0.6-3.7-1.8s-1.3-2.9-1.3-4.9c0-2.1,0.4-3.8,1.3-5
			s2.1-1.8,3.7-1.8c1.6,0,2.9,0.6,3.8,1.9h0.1l0.3-1.7h3V93.2z M161.3,90.6c1,0,1.6-0.3,2.1-0.8s0.6-1.4,0.6-2.7v-0.4
			c0-1.4-0.2-2.4-0.7-3s-1.1-0.9-2.1-0.9c-1.7,0-2.5,1.3-2.5,4c0,1.3,0.2,2.3,0.6,2.9S160.4,90.6,161.3,90.6z"/>
		<path class="st0" d="M180.2,89.2c0,1.3-0.5,2.4-1.4,3.1s-2.3,1.1-4.2,1.1c-1,0-1.8-0.1-2.4-0.2s-1.3-0.3-1.9-0.6v-3
			c0.7,0.3,1.4,0.6,2.2,0.8s1.6,0.3,2.2,0.3c1.3,0,1.9-0.4,1.9-1.1c0-0.3-0.1-0.5-0.3-0.7s-0.5-0.4-0.9-0.6s-1-0.5-1.7-0.8
			c-1-0.4-1.7-0.8-2.2-1.2s-0.8-0.8-1-1.2s-0.3-1-0.3-1.7c0-1.2,0.5-2.1,1.4-2.7s2.2-1,3.8-1c1.6,0,3.1,0.3,4.6,1l-1.1,2.6
			c-0.7-0.3-1.3-0.5-1.8-0.7s-1.2-0.3-1.7-0.3c-1.1,0-1.6,0.3-1.6,0.9c0,0.3,0.2,0.6,0.5,0.8s1.1,0.6,2.2,1c1,0.4,1.8,0.8,2.3,1.2
			s0.8,0.8,1.1,1.2S180.2,88.6,180.2,89.2z"/>
		<path class="st0" d="M9.6,121.9L9,120.1H8.9c-0.6,0.8-1.2,1.3-1.9,1.6s-1.5,0.4-2.5,0.4c-1.3,0-2.2-0.4-3-1.1s-1.1-1.7-1.1-3.1
			c0-1.4,0.5-2.4,1.5-3.1s2.4-1,4.4-1.1l2.3-0.1v-0.6c0-1.3-0.7-2-2-2c-1,0-2.3,0.3-3.7,0.9l-1.2-2.4c1.5-0.8,3.2-1.2,5-1.2
			c1.8,0,3.1,0.4,4,1.1s1.4,1.9,1.4,3.5v8.7H9.6z M8.6,115.9l-1.4,0c-1,0-1.8,0.2-2.3,0.6s-0.8,0.9-0.8,1.6c0,1,0.6,1.5,1.7,1.5
			c0.8,0,1.5-0.2,2-0.7s0.7-1.1,0.7-1.9V115.9z"/>
		<path class="st0" d="M23.1,108.6c1.5,0,2.8,0.6,3.6,1.8s1.3,2.9,1.3,5c0,2.2-0.5,3.8-1.4,5s-2.1,1.8-3.7,1.8
			c-1.5,0-2.7-0.6-3.6-1.7h-0.2l-0.6,1.4h-2.7v-18.2h3.6v4.2c0,0.5,0,1.4-0.1,2.6h0.1C20.2,109.2,21.5,108.6,23.1,108.6z M22,111.4
			c-0.9,0-1.5,0.3-1.9,0.8s-0.6,1.4-0.6,2.7v0.4c0,1.4,0.2,2.4,0.6,3s1.1,0.9,2,0.9c0.7,0,1.3-0.3,1.8-1s0.7-1.7,0.7-2.9
			s-0.2-2.3-0.7-2.9S22.7,111.4,22,111.4z"/>
		<path class="st0" d="M42.9,115.4c0,2.1-0.6,3.8-1.7,5s-2.7,1.8-4.7,1.8c-1.3,0-2.4-0.3-3.3-0.8S31.5,120,31,119s-0.8-2.2-0.8-3.6
			c0-2.1,0.6-3.8,1.7-5s2.7-1.8,4.7-1.8c1.3,0,2.4,0.3,3.3,0.8s1.7,1.3,2.2,2.4S42.9,114,42.9,115.4z M33.9,115.4
			c0,1.3,0.2,2.3,0.6,2.9s1.1,1,2.1,1c1,0,1.6-0.3,2.1-1s0.6-1.6,0.6-2.9c0-1.3-0.2-2.3-0.6-2.9s-1.1-1-2.1-1c-1,0-1.6,0.3-2.1,1
			S33.9,114.1,33.9,115.4z"/>
		<path class="st0" d="M55.1,121.9l-0.5-1.7h-0.2c-0.4,0.6-0.9,1.1-1.6,1.4s-1.5,0.5-2.4,0.5c-1.5,0-2.7-0.4-3.5-1.2s-1.2-2-1.2-3.6
			v-8.5h3.6v7.7c0,0.9,0.2,1.7,0.5,2.1s0.9,0.7,1.6,0.7c1,0,1.7-0.3,2.2-1s0.7-1.8,0.7-3.3v-6.2h3.6v13.1H55.1z"/>
		<path class="st0" d="M67.2,119.3c0.6,0,1.4-0.1,2.3-0.4v2.7c-0.9,0.4-2,0.6-3.3,0.6c-1.4,0-2.5-0.4-3.1-1.1s-1-1.8-1-3.3v-6.3
			h-1.7V110l2-1.2l1-2.8h2.3v2.8h3.7v2.7h-3.7v6.3c0,0.5,0.1,0.9,0.4,1.1S66.7,119.3,67.2,119.3z"/>
		<path class="st0" d="M87.4,118c0,1.3-0.5,2.4-1.4,3.1s-2.3,1.1-4.2,1.1c-1,0-1.8-0.1-2.4-0.2s-1.3-0.3-1.9-0.6v-3
			c0.7,0.3,1.4,0.6,2.2,0.8s1.6,0.3,2.2,0.3c1.3,0,1.9-0.4,1.9-1.1c0-0.3-0.1-0.5-0.3-0.7s-0.5-0.4-0.9-0.6s-1-0.5-1.7-0.8
			c-1-0.4-1.7-0.8-2.2-1.2s-0.8-0.8-1-1.2s-0.3-1-0.3-1.7c0-1.2,0.5-2.1,1.4-2.7s2.2-1,3.8-1c1.6,0,3.1,0.3,4.6,1l-1.1,2.6
			c-0.7-0.3-1.3-0.5-1.8-0.7s-1.2-0.3-1.7-0.3c-1.1,0-1.6,0.3-1.6,0.9c0,0.3,0.2,0.6,0.5,0.8s1.1,0.6,2.2,1c1,0.4,1.8,0.8,2.3,1.2
			s0.8,0.8,1.1,1.2S87.4,117.4,87.4,118z"/>
		<path class="st0" d="M102.3,121.9h-3.6v-7.7c0-1.9-0.7-2.8-2.1-2.8c-1,0-1.7,0.3-2.2,1s-0.7,1.8-0.7,3.3v6.2h-3.6v-18.2h3.6v3.7
			c0,0.3,0,1-0.1,2l-0.1,1.1h0.2c0.8-1.3,2.1-1.9,3.8-1.9c1.5,0,2.7,0.4,3.5,1.2s1.2,2,1.2,3.6V121.9z"/>
		<path class="st0" d="M117.9,115.4c0,2.1-0.6,3.8-1.7,5s-2.7,1.8-4.7,1.8c-1.3,0-2.4-0.3-3.3-0.8s-1.7-1.3-2.2-2.4
			s-0.8-2.2-0.8-3.6c0-2.1,0.6-3.8,1.7-5s2.7-1.8,4.7-1.8c1.3,0,2.4,0.3,3.3,0.8s1.7,1.3,2.2,2.4S117.9,114,117.9,115.4z
			 M108.8,115.4c0,1.3,0.2,2.3,0.6,2.9s1.1,1,2.1,1c1,0,1.6-0.3,2.1-1s0.6-1.6,0.6-2.9c0-1.3-0.2-2.3-0.6-2.9s-1.1-1-2.1-1
			c-1,0-1.6,0.3-2.1,1S108.8,114.1,108.8,115.4z"/>
		<path class="st0" d="M128.1,122.2c-1.5,0-2.7-0.6-3.6-1.7h-0.2c0.1,1.1,0.2,1.7,0.2,1.9v5.3h-3.6v-18.9h2.9l0.5,1.7h0.2
			c0.8-1.3,2.1-1.9,3.7-1.9c1.5,0,2.8,0.6,3.6,1.8s1.3,2.9,1.3,5c0,1.4-0.2,2.6-0.6,3.6s-1,1.8-1.8,2.4S129.1,122.2,128.1,122.2z
			 M127,111.4c-0.9,0-1.5,0.3-1.9,0.8s-0.6,1.4-0.6,2.7v0.4c0,1.4,0.2,2.4,0.6,3s1.1,0.9,2,0.9c1.6,0,2.4-1.3,2.4-4
			c0-1.3-0.2-2.3-0.6-2.9S127.8,111.4,127,111.4z"/>
		<path class="st0" d="M143.2,122.2c-1.5,0-2.7-0.6-3.6-1.7h-0.2c0.1,1.1,0.2,1.7,0.2,1.9v5.3H136v-18.9h2.9l0.5,1.7h0.2
			c0.8-1.3,2.1-1.9,3.7-1.9c1.5,0,2.8,0.6,3.6,1.8s1.3,2.9,1.3,5c0,1.4-0.2,2.6-0.6,3.6s-1,1.8-1.8,2.4S144.3,122.2,143.2,122.2z
			 M142.2,111.4c-0.9,0-1.5,0.3-1.9,0.8s-0.6,1.4-0.6,2.7v0.4c0,1.4,0.2,2.4,0.6,3s1.1,0.9,2,0.9c1.6,0,2.4-1.3,2.4-4
			c0-1.3-0.2-2.3-0.6-2.9S143,111.4,142.2,111.4z"/>
		<path class="st0" d="M151.1,105.4c0-1.2,0.6-1.7,1.9-1.7s1.9,0.6,1.9,1.7c0,0.6-0.2,1-0.5,1.3s-0.8,0.5-1.5,0.5
			C151.7,107.2,151.1,106.6,151.1,105.4z M154.8,121.9h-3.6v-13.1h3.6V121.9z"/>
		<path class="st0" d="M170.6,121.9h-3.6v-7.7c0-0.9-0.2-1.7-0.5-2.1s-0.9-0.7-1.6-0.7c-1,0-1.7,0.3-2.2,1s-0.7,1.8-0.7,3.3v6.2
			h-3.6v-13.1h2.7l0.5,1.7h0.2c0.4-0.6,0.9-1.1,1.6-1.4s1.5-0.5,2.4-0.5c1.5,0,2.7,0.4,3.5,1.2s1.2,2,1.2,3.6V121.9z"/>
		<path class="st0" d="M185.8,122c0,1.9-0.5,3.3-1.6,4.3s-2.7,1.5-4.9,1.5c-1.9,0-3.5-0.3-4.9-0.8v-2.9c1.6,0.7,3.3,1,5.1,1
			c1.8,0,2.8-1,2.8-3v-0.3l0.1-1.6h-0.1c-0.8,1.3-2.1,1.9-3.7,1.9c-1.6,0-2.8-0.6-3.7-1.8s-1.3-2.9-1.3-4.9c0-2.1,0.4-3.8,1.3-5
			s2.1-1.8,3.7-1.8c1.6,0,2.9,0.6,3.8,1.9h0.1l0.3-1.7h3V122z M179.8,119.4c1,0,1.6-0.3,2.1-0.8s0.6-1.4,0.6-2.7v-0.4
			c0-1.4-0.2-2.4-0.7-3s-1.1-0.9-2.1-0.9c-1.7,0-2.5,1.3-2.5,4c0,1.3,0.2,2.3,0.6,2.9S178.9,119.4,179.8,119.4z"/>
		<path class="st0" d="M6.8,148.1c0.6,0,1.4-0.1,2.3-0.4v2.7c-0.9,0.4-2,0.6-3.3,0.6c-1.4,0-2.5-0.4-3.1-1.1s-1-1.8-1-3.3v-6.3H0
			v-1.5l2-1.2l1-2.8h2.3v2.8H9v2.7H5.3v6.3c0,0.5,0.1,0.9,0.4,1.1S6.4,148.1,6.8,148.1z"/>
		<path class="st0" d="M23.8,150.7h-3.6v-7.7c0-1.9-0.7-2.8-2.1-2.8c-1,0-1.7,0.3-2.2,1s-0.7,1.8-0.7,3.3v6.2h-3.6v-18.2h3.6v3.7
			c0,0.3,0,1-0.1,2l-0.1,1.1h0.2c0.8-1.3,2.1-1.9,3.8-1.9c1.5,0,2.7,0.4,3.5,1.2s1.2,2,1.2,3.6V150.7z"/>
		<path class="st0" d="M34.8,137.4c0.5,0,0.9,0,1.2,0.1l-0.3,3.4c-0.3-0.1-0.6-0.1-1.1-0.1c-1.1,0-2,0.3-2.7,0.9s-1,1.4-1,2.5v6.7
			h-3.6v-13.1h2.7l0.5,2.2h0.2c0.4-0.7,1-1.3,1.6-1.8S34,137.4,34.8,137.4z"/>
		<path class="st0" d="M50.1,144.2c0,2.1-0.6,3.8-1.7,5s-2.7,1.8-4.7,1.8c-1.3,0-2.4-0.3-3.3-0.8s-1.7-1.3-2.2-2.4s-0.8-2.2-0.8-3.6
			c0-2.1,0.6-3.8,1.7-5s2.7-1.8,4.7-1.8c1.3,0,2.4,0.3,3.3,0.8s1.7,1.3,2.2,2.4S50.1,142.8,50.1,144.2z M41,144.2
			c0,1.3,0.2,2.3,0.6,2.9s1.1,1,2.1,1c1,0,1.6-0.3,2.1-1s0.6-1.6,0.6-2.9c0-1.3-0.2-2.3-0.6-2.9s-1.1-1-2.1-1c-1,0-1.6,0.3-2.1,1
			S41,142.9,41,144.2z"/>
		<path class="st0" d="M62.3,150.7l-0.5-1.7h-0.2c-0.4,0.6-0.9,1.1-1.6,1.4s-1.5,0.5-2.4,0.5c-1.5,0-2.7-0.4-3.5-1.2s-1.2-2-1.2-3.6
			v-8.5h3.6v7.7c0,0.9,0.2,1.7,0.5,2.1s0.9,0.7,1.6,0.7c1,0,1.7-0.3,2.2-1s0.7-1.8,0.7-3.3v-6.2h3.6v13.1H62.3z"/>
		<path class="st0" d="M80.3,150.8c0,1.9-0.5,3.3-1.6,4.3s-2.7,1.5-4.9,1.5c-1.9,0-3.5-0.3-4.9-0.8v-2.9c1.6,0.7,3.3,1,5.1,1
			c1.8,0,2.8-1,2.8-3v-0.3l0.1-1.6h-0.1c-0.8,1.3-2.1,1.9-3.7,1.9c-1.6,0-2.8-0.6-3.7-1.8s-1.3-2.9-1.3-4.9c0-2.1,0.4-3.8,1.3-5
			s2.1-1.8,3.7-1.8c1.6,0,2.9,0.6,3.8,1.9h0.1l0.3-1.7h3V150.8z M74.2,148.2c1,0,1.6-0.3,2.1-0.8s0.6-1.4,0.6-2.7v-0.4
			c0-1.4-0.2-2.4-0.7-3s-1.1-0.9-2.1-0.9c-1.7,0-2.5,1.3-2.5,4c0,1.3,0.2,2.3,0.6,2.9S73.4,148.2,74.2,148.2z"/>
		<path class="st0" d="M96.1,150.7h-3.6v-7.7c0-1.9-0.7-2.8-2.1-2.8c-1,0-1.7,0.3-2.2,1s-0.7,1.8-0.7,3.3v6.2H84v-18.2h3.6v3.7
			c0,0.3,0,1-0.1,2l-0.1,1.1h0.2c0.8-1.3,2.1-1.9,3.8-1.9c1.5,0,2.7,0.4,3.5,1.2s1.2,2,1.2,3.6V150.7z"/>
		<path class="st0" d="M117.7,150.7h-3.6v-7.7c0-0.9-0.2-1.7-0.5-2.1s-0.8-0.7-1.5-0.7c-0.9,0-1.6,0.3-2,1s-0.6,1.8-0.6,3.3v6.2H106
			v-13.1h2.7l0.5,1.7h0.2c0.4-0.6,0.9-1.1,1.5-1.4s1.4-0.5,2.3-0.5c2,0,3.3,0.6,4,1.9h0.3c0.4-0.6,0.9-1.1,1.6-1.4s1.5-0.5,2.3-0.5
			c1.5,0,2.6,0.4,3.4,1.1s1.1,2,1.1,3.7v8.5h-3.6v-7.7c0-0.9-0.2-1.7-0.5-2.1s-0.8-0.7-1.5-0.7c-0.9,0-1.5,0.3-2,0.9s-0.7,1.6-0.7,3
			V150.7z"/>
		<path class="st0" d="M141.5,144.2c0,2.1-0.6,3.8-1.7,5s-2.7,1.8-4.7,1.8c-1.3,0-2.4-0.3-3.3-0.8s-1.7-1.3-2.2-2.4
			s-0.8-2.2-0.8-3.6c0-2.1,0.6-3.8,1.7-5s2.7-1.8,4.7-1.8c1.3,0,2.4,0.3,3.3,0.8s1.7,1.3,2.2,2.4S141.5,142.8,141.5,144.2z
			 M132.4,144.2c0,1.3,0.2,2.3,0.6,2.9s1.1,1,2.1,1c1,0,1.6-0.3,2.1-1s0.6-1.6,0.6-2.9c0-1.3-0.2-2.3-0.6-2.9s-1.1-1-2.1-1
			c-1,0-1.6,0.3-2.1,1S132.4,142.9,132.4,144.2z"/>
		<path class="st0" d="M151.7,137.4c1.5,0,2.8,0.6,3.6,1.8s1.3,2.9,1.3,5c0,2.2-0.5,3.8-1.4,5s-2.1,1.8-3.7,1.8
			c-1.5,0-2.7-0.6-3.6-1.7h-0.2l-0.6,1.4h-2.7v-18.2h3.6v4.2c0,0.5,0,1.4-0.1,2.6h0.1C148.8,138,150.1,137.4,151.7,137.4z
			 M150.6,140.2c-0.9,0-1.5,0.3-1.9,0.8s-0.6,1.4-0.6,2.7v0.4c0,1.4,0.2,2.4,0.6,3s1.1,0.9,2,0.9c0.7,0,1.3-0.3,1.8-1
			s0.7-1.7,0.7-2.9s-0.2-2.3-0.7-2.9S151.3,140.2,150.6,140.2z"/>
		<path class="st0" d="M159.5,134.2c0-1.2,0.6-1.7,1.9-1.7s1.9,0.6,1.9,1.7c0,0.6-0.2,1-0.5,1.3s-0.8,0.5-1.5,0.5
			C160.1,136,159.5,135.4,159.5,134.2z M163.2,150.7h-3.6v-13.1h3.6V150.7z"/>
		<path class="st0" d="M170.5,150.7h-3.6v-18.2h3.6V150.7z"/>
		<path class="st0" d="M180.2,151c-2.1,0-3.8-0.6-4.9-1.7s-1.8-2.8-1.8-4.9c0-2.2,0.5-3.9,1.6-5.1s2.6-1.8,4.6-1.8
			c1.9,0,3.3,0.5,4.3,1.6s1.5,2.5,1.5,4.4v1.7h-8.4c0,1,0.3,1.8,0.9,2.4s1.4,0.9,2.4,0.9c0.8,0,1.5-0.1,2.2-0.2s1.4-0.4,2.2-0.8v2.8
			c-0.6,0.3-1.3,0.5-2,0.7S181.2,151,180.2,151z M179.7,139.9c-0.8,0-1.4,0.2-1.8,0.7s-0.7,1.2-0.7,2h5c0-0.9-0.2-1.6-0.7-2
			S180.5,139.9,179.7,139.9z"/>
	</g>
</g>
<g>
	<path class="st1" d="M100.2,38.3L100.2,38.3c-2.4,0-4.4-2-4.4-4.4V5.1c0-2.4,2-4.4,4.4-4.4h0c2.4,0,4.4,2,4.4,4.4v28.9
		C104.6,36.3,102.6,38.3,100.2,38.3z"/>
	<path class="st1" d="M78.6,21.3h44.3v31.5c0,2.9-2.3,5.2-5.2,5.2H95.8c0,0-8.2-1.9-9.4-9.6h-7.9V21.3z"/>
	<rect x="67.3" y="19.7" class="st2" width="13.4" height="38.4"/>
	<path class="st1" d="M102.2,23.7v-1c0-1.8,1.4-3.2,3.2-3.2h17.5c1.8,0,3.2,1.4,3.2,3.2v1c0,1.8-1.4,3.2-3.2,3.2h-17.5
		C103.7,26.9,102.2,25.5,102.2,23.7z"/>
	<path class="st1" d="M102.2,31.1v-1c0-1.8,1.4-3.2,3.2-3.2h17.5c1.8,0,3.2,1.4,3.2,3.2v1c0,1.8-1.4,3.2-3.2,3.2h-17.5
		C103.7,34.3,102.2,32.9,102.2,31.1z"/>
	<path class="st1" d="M102.2,38.6v-1c0-1.8,1.4-3.2,3.2-3.2h17.5c1.8,0,3.2,1.4,3.2,3.2v1c0,1.8-1.4,3.2-3.2,3.2h-17.5
		C103.7,41.8,102.2,40.3,102.2,38.6z"/>
	<path class="st1" d="M102.2,46v-1c0-1.8,1.4-3.2,3.2-3.2h17.5c1.8,0,3.2,1.4,3.2,3.2v1c0,1.8-1.4,3.2-3.2,3.2h-17.5
		C103.7,49.2,102.2,47.8,102.2,46z"/>
	<rect x="67.2" y="49.2" class="st3" width="13.5" height="8.8"/>
</g>
</svg>