<!-- Generator: Adobe Illustrator 19.1.0, SVG Export Plug-In  -->
<svg version="1.1"
	 xmlns="http://www.w3.org/2000/svg" xmlns:xlink="http://www.w3.org/1999/xlink" xmlns:a="http://ns.adobe.com/AdobeSVGViewerExtensions/3.0/"
	 x="0px" y="0px" width="289.1px" height="185.8px" viewBox="0 0 289.1 185.8"
	 style="overflow:scroll;enable-background:new 0 0 289.1 185.8;" xml:space="preserve">
<style type="text/css">
	.st0{fill:#086A87;stroke:#086A87;stroke-width:2.1193;stroke-linecap:round;stroke-linejoin:round;stroke-miterlimit:10;}
	.st1{fill:#33CCCC;stroke:#33CCCC;stroke-width:2.0842;stroke-miterlimit:10;}
	.st2{fill:#FF6633;}
	.st3{fill:#FFFFFF;}
</style>
<defs>
</defs>
<path class="st0" d="M106.6,128.4H60.2c-5.1,0-9.3-4.2-9.3-9.3V27c0-5.1,4.2-9.3,9.3-9.3h46.4c5.1,0,9.3,4.2,9.3,9.3v92
	C115.9,124.2,111.7,128.4,106.6,128.4z"/>
<circle class="st1" cx="83" cy="115.3" r="5.2"/>
<rect x="58.4" y="27.4" class="st1" width="49.2" height="75.8"/>
<circle class="st2" cx="196.4" cy="92.7" r="92.7"/>
<g>
	<path class="st3" d="M156.6,75.4h-4.8V65.2c0-1.3-0.2-2.2-0.6-2.8c-0.4-0.6-1.1-0.9-2-0.9c-1.2,0-2.1,0.4-2.7,1.3
		c-0.6,0.9-0.8,2.4-0.8,4.4v8.2h-4.8V57.9h3.6l0.6,2.2h0.3c0.5-0.8,1.1-1.4,2-1.9c0.9-0.5,1.9-0.7,3-0.7c2.6,0,4.4,0.9,5.3,2.6h0.4
		c0.5-0.8,1.2-1.4,2.1-1.9c0.9-0.4,1.9-0.7,3.1-0.7c2,0,3.5,0.5,4.5,1.5s1.5,2.6,1.5,4.9v11.4h-4.8V65.2c0-1.3-0.2-2.2-0.6-2.8
		c-0.4-0.6-1.1-0.9-2-0.9c-1.2,0-2,0.4-2.6,1.3c-0.6,0.8-0.9,2.2-0.9,4V75.4z"/>
	<path class="st3" d="M188.2,66.6c0,2.8-0.8,5.1-2.3,6.7c-1.5,1.6-3.6,2.4-6.3,2.4c-1.7,0-3.2-0.4-4.4-1.1s-2.3-1.8-3-3.2
		s-1-3-1-4.8c0-2.9,0.7-5.1,2.2-6.7c1.5-1.6,3.6-2.4,6.3-2.4c1.7,0,3.2,0.4,4.4,1.1c1.3,0.7,2.3,1.8,3,3.1
		C187.9,63.2,188.2,64.8,188.2,66.6z M176.1,66.6c0,1.7,0.3,3,0.9,3.9c0.6,0.9,1.5,1.3,2.8,1.3c1.3,0,2.2-0.4,2.7-1.3
		c0.6-0.9,0.8-2.2,0.8-3.9c0-1.7-0.3-3-0.8-3.9c-0.6-0.9-1.5-1.3-2.8-1.3c-1.3,0-2.2,0.4-2.8,1.3S176.1,64.9,176.1,66.6z"/>
	<path class="st3" d="M201.9,57.6c2.1,0,3.7,0.8,4.8,2.4c1.2,1.6,1.8,3.8,1.8,6.6c0,2.9-0.6,5.1-1.8,6.7c-1.2,1.6-2.8,2.4-4.9,2.4
		c-2.1,0-3.7-0.7-4.8-2.2h-0.3l-0.8,1.9h-3.6V51.1h4.8v5.7c0,0.7-0.1,1.9-0.2,3.5h0.2C198,58.4,199.7,57.6,201.9,57.6z M200.3,61.4
		c-1.2,0-2,0.4-2.6,1.1c-0.5,0.7-0.8,1.9-0.8,3.6v0.5c0,1.9,0.3,3.2,0.8,4c0.6,0.8,1.4,1.2,2.6,1.2c1,0,1.8-0.5,2.3-1.4
		c0.6-0.9,0.9-2.2,0.9-3.9s-0.3-3-0.9-3.9C202.2,61.8,201.4,61.4,200.3,61.4z"/>
	<path class="st3" d="M212.2,53.4c0-1.6,0.9-2.3,2.6-2.3c1.7,0,2.6,0.8,2.6,2.3c0,0.7-0.2,1.3-0.6,1.7c-0.4,0.4-1.1,0.6-1.9,0.6
		C213.1,55.7,212.2,54.9,212.2,53.4z M217.2,75.4h-4.8V57.9h4.8V75.4z"/>
	<path class="st3" d="M226.9,75.4h-4.8V51.1h4.8V75.4z"/>
	<path class="st3" d="M239.8,75.7c-2.8,0-5-0.8-6.6-2.3c-1.6-1.6-2.4-3.8-2.4-6.6c0-2.9,0.7-5.2,2.2-6.8c1.5-1.6,3.5-2.4,6.1-2.4
		c2.5,0,4.4,0.7,5.8,2.1s2.1,3.3,2.1,5.8v2.3h-11.3c0.1,1.4,0.5,2.4,1.2,3.2c0.8,0.8,1.8,1.1,3.2,1.1c1.1,0,2-0.1,3-0.3
		s1.9-0.6,2.9-1v3.7c-0.8,0.4-1.7,0.7-2.7,0.9C242.4,75.6,241.2,75.7,239.8,75.7z M239.2,61c-1,0-1.8,0.3-2.4,1
		c-0.6,0.6-0.9,1.5-1,2.7h6.7c0-1.2-0.3-2.1-0.9-2.7S240.2,61,239.2,61z"/>
	<path class="st3" d="M133.9,108.6c0,1.8-0.6,3.2-1.9,4.1c-1.2,0.9-3.1,1.4-5.6,1.4c-1.3,0-2.4-0.1-3.3-0.3
		c-0.9-0.2-1.7-0.4-2.5-0.8v-3.9c0.9,0.4,1.9,0.8,3,1s2.1,0.4,2.9,0.4c1.7,0,2.6-0.5,2.6-1.5c0-0.4-0.1-0.7-0.3-0.9
		c-0.2-0.2-0.6-0.5-1.2-0.8s-1.3-0.6-2.3-1c-1.3-0.6-2.3-1.1-3-1.6c-0.6-0.5-1.1-1-1.4-1.6c-0.3-0.6-0.4-1.4-0.4-2.3
		c0-1.6,0.6-2.8,1.8-3.6c1.2-0.8,2.9-1.3,5.1-1.3c2.1,0,4.2,0.5,6.1,1.4l-1.4,3.4c-0.9-0.4-1.7-0.7-2.5-0.9
		c-0.8-0.2-1.5-0.4-2.3-0.4c-1.4,0-2.1,0.4-2.1,1.1c0,0.4,0.2,0.8,0.7,1.1s1.4,0.8,3,1.4c1.4,0.6,2.4,1.1,3,1.5
		c0.6,0.5,1.1,1,1.4,1.7C133.8,107,133.9,107.7,133.9,108.6z"/>
	<path class="st3" d="M153.8,113.8H149v-10.2c0-2.5-0.9-3.8-2.8-3.8c-1.3,0-2.3,0.5-2.9,1.4s-0.9,2.4-0.9,4.4v8.2h-4.8V89.5h4.8v5
		c0,0.4,0,1.3-0.1,2.7l-0.1,1.4h0.3c1.1-1.7,2.8-2.6,5.1-2.6c2.1,0,3.6,0.6,4.7,1.7c1.1,1.1,1.6,2.7,1.6,4.8V113.8z"/>
	<path class="st3" d="M174.5,105c0,2.8-0.8,5.1-2.3,6.7c-1.5,1.6-3.6,2.4-6.3,2.4c-1.7,0-3.2-0.4-4.4-1.1s-2.3-1.8-3-3.2s-1-3-1-4.8
		c0-2.9,0.7-5.1,2.2-6.7c1.5-1.6,3.6-2.4,6.3-2.4c1.7,0,3.2,0.4,4.4,1.1c1.3,0.7,2.3,1.8,3,3.1C174.2,101.6,174.5,103.2,174.5,105z
		 M162.5,105c0,1.7,0.3,3,0.9,3.9c0.6,0.9,1.5,1.3,2.8,1.3c1.3,0,2.2-0.4,2.7-1.3c0.6-0.9,0.8-2.2,0.8-3.9c0-1.7-0.3-3-0.8-3.9
		c-0.6-0.9-1.5-1.3-2.8-1.3c-1.3,0-2.2,0.4-2.8,1.3S162.5,103.3,162.5,105z"/>
	<path class="st3" d="M188.1,114.1c-2.1,0-3.7-0.7-4.8-2.2H183c0.2,1.5,0.3,2.3,0.3,2.5v7.1h-4.8V96.3h3.9l0.7,2.3h0.2
		c1.1-1.7,2.8-2.6,5-2.6c2.1,0,3.7,0.8,4.8,2.4c1.2,1.6,1.8,3.8,1.8,6.6c0,1.9-0.3,3.5-0.8,4.9s-1.3,2.4-2.3,3.1
		C190.6,113.7,189.4,114.1,188.1,114.1z M186.7,99.8c-1.2,0-2,0.4-2.6,1.1c-0.5,0.7-0.8,1.9-0.8,3.6v0.5c0,1.9,0.3,3.2,0.8,4
		c0.6,0.8,1.4,1.2,2.6,1.2c2.1,0,3.2-1.8,3.2-5.3c0-1.7-0.3-3-0.8-3.9C188.6,100.2,187.8,99.8,186.7,99.8z"/>
	<path class="st3" d="M208.3,114.1c-2.1,0-3.7-0.7-4.8-2.2h-0.3c0.2,1.5,0.3,2.3,0.3,2.5v7.1h-4.8V96.3h3.9l0.7,2.3h0.2
		c1.1-1.7,2.8-2.6,5-2.6c2.1,0,3.7,0.8,4.8,2.4c1.2,1.6,1.8,3.8,1.8,6.6c0,1.9-0.3,3.5-0.8,4.9s-1.3,2.4-2.3,3.1
		C210.9,113.7,209.7,114.1,208.3,114.1z M206.9,99.8c-1.2,0-2,0.4-2.6,1.1c-0.5,0.7-0.8,1.9-0.8,3.6v0.5c0,1.9,0.3,3.2,0.8,4
		c0.6,0.8,1.4,1.2,2.6,1.2c2.1,0,3.2-1.8,3.2-5.3c0-1.7-0.3-3-0.8-3.9C208.9,100.2,208,99.8,206.9,99.8z"/>
	<path class="st3" d="M218.8,91.8c0-1.6,0.9-2.3,2.6-2.3c1.7,0,2.6,0.8,2.6,2.3c0,0.7-0.2,1.3-0.6,1.7c-0.4,0.4-1.1,0.6-1.9,0.6
		C219.6,94.1,218.8,93.3,218.8,91.8z M223.8,113.8H219V96.3h4.8V113.8z"/>
	<path class="st3" d="M244.9,113.8h-4.8v-10.2c0-1.3-0.2-2.2-0.7-2.8c-0.4-0.6-1.2-0.9-2.1-0.9c-1.3,0-2.3,0.4-2.9,1.3
		s-0.9,2.4-0.9,4.4v8.2h-4.8V96.3h3.6l0.6,2.2h0.3c0.5-0.8,1.3-1.5,2.2-1.9c0.9-0.4,2-0.6,3.2-0.6c2,0,3.6,0.5,4.6,1.6
		c1.1,1.1,1.6,2.7,1.6,4.8V113.8z"/>
	<path class="st3" d="M265,113.8c0,2.5-0.7,4.4-2.2,5.7c-1.5,1.3-3.6,1.9-6.5,1.9c-2.6,0-4.7-0.3-6.5-1v-3.8
		c2.1,0.9,4.4,1.3,6.8,1.3c2.4,0,3.7-1.3,3.7-4v-0.3l0.1-2.1h-0.1c-1.1,1.7-2.8,2.6-5,2.6c-2.1,0-3.7-0.8-4.9-2.4
		c-1.2-1.6-1.7-3.8-1.7-6.6c0-2.9,0.6-5.1,1.8-6.7c1.2-1.6,2.8-2.4,4.9-2.4c2.1,0,3.8,0.9,5.1,2.6h0.1l0.4-2.2h4V113.8z M257,110.3
		c1.3,0,2.2-0.4,2.8-1.1c0.6-0.7,0.8-1.9,0.8-3.6v-0.6c0-1.9-0.3-3.2-0.9-4c-0.6-0.8-1.5-1.2-2.8-1.2c-2.2,0-3.4,1.8-3.4,5.3
		c0,1.8,0.3,3.1,0.8,3.9C255,109.9,255.8,110.3,257,110.3z"/>
</g>
<g>
	<g>
		<path class="st2" d="M12.8,162.1c3.5,0,6.3,1,8.4,3c2.1,2,3.1,4.7,3.1,8.1c0,4.1-1.3,7.2-3.8,9.4c-2.5,2.2-6.1,3.3-10.8,3.3
			c-4.1,0-7.3-0.7-9.8-2v-6.6c1.3,0.7,2.8,1.3,4.6,1.7s3.4,0.7,5,0.7c4.7,0,7-1.9,7-5.8c0-3.7-2.4-5.5-7.3-5.5
			c-0.9,0-1.9,0.1-2.9,0.3c-1.1,0.2-1.9,0.4-2.6,0.6l-3.1-1.6l1.4-18.6h19.7v6.5h-13l-0.7,7.1l0.9-0.2
			C10.1,162.2,11.3,162.1,12.8,162.1z"/>
		<path class="st2" d="M54.2,185.3H28.7V180l9.1-9.2c2.7-2.8,4.5-4.7,5.3-5.8c0.8-1.1,1.4-2.1,1.8-3c0.4-0.9,0.5-1.9,0.5-2.8
			c0-1.5-0.4-2.5-1.2-3.3c-0.8-0.7-1.9-1.1-3.2-1.1c-1.4,0-2.8,0.3-4.1,1c-1.3,0.6-2.7,1.6-4.2,2.8l-4.2-5c1.8-1.5,3.3-2.6,4.5-3.2
			c1.2-0.6,2.5-1.1,3.9-1.5c1.4-0.3,3-0.5,4.7-0.5c2.3,0,4.3,0.4,6,1.2c1.7,0.8,3.1,2,4.1,3.5c1,1.5,1.4,3.2,1.4,5.1
			c0,1.7-0.3,3.2-0.9,4.7c-0.6,1.5-1.5,3-2.7,4.5c-1.2,1.5-3.4,3.7-6.5,6.6l-4.7,4.4v0.3h15.9V185.3z"/>
		<path class="st2" d="M74.7,159.8c0,3.8-0.7,6.7-2.2,8.6c-1.5,1.9-3.6,2.9-6.5,2.9c-2.7,0-4.9-1-6.4-3c-1.5-2-2.2-4.8-2.2-8.5
			c0-7.6,2.9-11.4,8.6-11.4c2.8,0,5,1,6.5,3C74,153.3,74.7,156.1,74.7,159.8z M63.7,159.8c0,2.1,0.2,3.7,0.6,4.7
			c0.4,1,1,1.6,1.8,1.6c1.6,0,2.4-2.1,2.4-6.3c0-4.2-0.8-6.2-2.4-6.2c-0.8,0-1.4,0.5-1.8,1.5C63.9,156.2,63.7,157.7,63.7,159.8z
			 M91.8,148.9l-20.2,36.4h-6l20.2-36.4H91.8z M100.2,174.3c0,3.8-0.7,6.7-2.2,8.6c-1.5,1.9-3.6,2.9-6.5,2.9c-2.7,0-4.9-1-6.4-3
			c-1.5-2-2.2-4.8-2.2-8.5c0-7.6,2.9-11.4,8.6-11.4c2.8,0,5,1,6.5,3C99.5,167.9,100.2,170.7,100.2,174.3z M89.2,174.4
			c0,2.1,0.2,3.7,0.6,4.7c0.4,1,1,1.6,1.8,1.6c1.6,0,2.4-2.1,2.4-6.3c0-4.2-0.8-6.2-2.4-6.2c-0.8,0-1.4,0.5-1.8,1.5
			C89.4,170.7,89.2,172.3,89.2,174.4z"/>
	</g>
</g>
</svg>