<!-- Generator: Adobe Illustrator 19.1.0, SVG Export Plug-In  -->
<svg version="1.1"
	 xmlns="http://www.w3.org/2000/svg" xmlns:xlink="http://www.w3.org/1999/xlink" xmlns:a="http://ns.adobe.com/AdobeSVGViewerExtensions/3.0/"
	 x="0px" y="0px" width="780.1px" height="379.3px" viewBox="0 0 780.1 379.3"
	 style="overflow:scroll;enable-background:new 0 0 780.1 379.3;" xml:space="preserve">
<style type="text/css">
	.st0{fill:#E3E3E3;stroke:#E3E3E3;stroke-width:2.0919;stroke-miterlimit:10;}
	.st1{fill:#9D9FA0;}
	.st2{fill:#ED6A4A;}
	.st3{fill:#086A87;stroke:#086A87;stroke-width:1.81;stroke-linecap:round;stroke-linejoin:round;stroke-miterlimit:10;}
	.st4{fill:#33CCCC;}
	.st5{fill:#FFFFFF;}
	.st6{fill:none;stroke:#ED6A4A;stroke-width:7.4568;stroke-miterlimit:10;}
	.st7{fill:#FF6633;}
	.st8{fill:#086A87;stroke:#086A87;stroke-width:2.3031;stroke-linecap:round;stroke-linejoin:round;stroke-miterlimit:10;}
	.st9{fill:#FFFFFF;stroke:#ED6A4A;stroke-width:2.3031;stroke-miterlimit:10;}
	.st10{fill:none;stroke:#ED6A4A;stroke-width:7.3184;stroke-miterlimit:10;}
	.st11{fill:#086A87;stroke:#086A87;stroke-width:2.2793;stroke-linecap:round;stroke-linejoin:round;stroke-miterlimit:10;}
	.st12{fill:#E3E3E3;stroke:#FFFFFF;stroke-width:4;stroke-miterlimit:10;}
</style>
<defs>
</defs>
<rect x="3.7" y="103.9" class="st0" width="277.6" height="271.2"/>
<rect x="281.3" y="304.5" class="st1" width="346.6" height="35.9"/>
<rect x="281.3" y="250.7" class="st2" width="346.6" height="35.9"/>
<rect x="281.3" y="196.9" class="st3" width="382.4" height="35.9"/>
<rect x="281.3" y="143.2" class="st4" width="346.6" height="35.9"/>
<g>
	<g>
		<path class="st5" d="M310.8,168.9l-3.4-11.2h-0.1c0.1,2.3,0.2,3.8,0.2,4.6v6.6h-2.7v-14.3h4.1l3.4,10.9h0.1l3.6-10.9h4.1v14.3
			h-2.8v-6.8c0-0.3,0-0.7,0-1.1s0.1-1.5,0.1-3.3h-0.1l-3.7,11.2H310.8z"/>
		<path class="st5" d="M333.3,163.4c0,1.8-0.5,3.2-1.4,4.2s-2.2,1.5-3.9,1.5c-1,0-2-0.2-2.8-0.7s-1.4-1.1-1.8-2s-0.6-1.9-0.6-3
			c0-1.8,0.5-3.2,1.4-4.2c0.9-1,2.2-1.5,3.9-1.5c1,0,2,0.2,2.8,0.7s1.4,1.1,1.8,2S333.3,162.3,333.3,163.4z M331.7,156.8h-1.4
			c-0.9-0.5-1.7-1-2.3-1.5c-0.5,0.5-1.3,1-2.3,1.5h-1.4v-0.3c1.1-1.1,1.9-1.9,2.3-2.5h2.7c0.3,0.4,0.7,0.9,1.1,1.3
			c0.4,0.4,0.8,0.8,1.2,1.2V156.8z M329.5,153.4c-0.3,0-0.6,0-0.8-0.1c-0.3-0.1-0.5-0.2-0.7-0.3c-0.2-0.1-0.4-0.2-0.7-0.3
			s-0.4-0.1-0.6-0.1c-0.3,0-0.5,0.1-0.6,0.2c-0.1,0.1-0.2,0.4-0.3,0.7h-1.2c0.1-0.7,0.3-1.3,0.7-1.7c0.4-0.4,0.9-0.6,1.5-0.6
			c0.3,0,0.6,0,0.9,0.1s0.5,0.2,0.7,0.3c0.2,0.1,0.4,0.2,0.6,0.3c0.2,0.1,0.4,0.1,0.6,0.1c0.3,0,0.5-0.1,0.6-0.2
			c0.1-0.1,0.2-0.4,0.3-0.6h1.2c-0.1,0.7-0.3,1.3-0.7,1.7S330.1,153.4,329.5,153.4z M325.8,163.4c0,1.1,0.2,1.9,0.5,2.5
			c0.4,0.6,0.9,0.8,1.7,0.8c0.8,0,1.4-0.3,1.7-0.8c0.3-0.6,0.5-1.4,0.5-2.5c0-1.1-0.2-1.9-0.5-2.4s-0.9-0.8-1.7-0.8
			c-0.8,0-1.4,0.3-1.7,0.8S325.8,162.3,325.8,163.4z"/>
		<path class="st5" d="M335.7,155.2c0-1,0.5-1.5,1.6-1.5c1.1,0,1.6,0.5,1.6,1.5c0,0.5-0.1,0.8-0.4,1.1c-0.3,0.3-0.7,0.4-1.2,0.4
			C336.2,156.6,335.7,156.1,335.7,155.2z M338.8,168.9h-3V158h3V168.9z"/>
		<path class="st5" d="M350.1,168.9h-3v-15.2h3V168.9z"/>
		<path class="st5" d="M354.9,154.9h-1.5c-1.1-0.8-1.8-1.4-2.2-2v-0.2h2.4c0.4,0.7,0.8,1.4,1.3,2V154.9z M360.1,168.9l-0.6-1.5h-0.1
			c-0.5,0.6-1,1.1-1.5,1.3c-0.5,0.2-1.2,0.4-2.1,0.4c-1,0-1.9-0.3-2.5-0.9c-0.6-0.6-0.9-1.5-0.9-2.6c0-1.2,0.4-2,1.2-2.6
			s2-0.9,3.7-0.9l1.9-0.1v-0.5c0-1.1-0.6-1.7-1.7-1.7c-0.9,0-1.9,0.3-3.1,0.8l-1-2c1.3-0.7,2.6-1,4.2-1c1.5,0,2.6,0.3,3.4,1
			s1.2,1.6,1.2,2.9v7.3H360.1z M354,156.5c0.7-0.8,1.4-1.8,2.1-2.7h3.1c0.3,0.5,0.7,1,1.1,1.5s0.7,0.9,1,1.2v0.3h-1.6
			c-0.6-0.4-1.3-1-2.1-1.6c-0.7,0.6-1.4,1.2-2.1,1.6H354V156.5z M359.2,163.8l-1.2,0c-0.9,0-1.5,0.2-1.9,0.5
			c-0.4,0.3-0.6,0.7-0.6,1.3c0,0.8,0.5,1.3,1.4,1.3c0.7,0,1.2-0.2,1.7-0.6c0.4-0.4,0.6-0.9,0.6-1.6V163.8z"/>
		<path class="st5" d="M375.3,168.9h-3v-6.4c0-0.8-0.1-1.4-0.4-1.8c-0.3-0.4-0.7-0.6-1.3-0.6c-0.8,0-1.4,0.3-1.8,0.8
			s-0.6,1.5-0.6,2.8v5.1h-3V158h2.3l0.4,1.4h0.2c0.3-0.5,0.8-0.9,1.4-1.2c0.6-0.3,1.2-0.4,2-0.4c1.3,0,2.2,0.3,2.9,1
			c0.7,0.7,1,1.7,1,3V168.9z"/>
		<path class="st5" d="M393.4,168.9h-3v-6.4c0-0.8-0.1-1.4-0.4-1.8s-0.7-0.6-1.2-0.6c-0.8,0-1.3,0.3-1.7,0.8
			c-0.3,0.6-0.5,1.5-0.5,2.8v5.1h-3V158h2.3l0.4,1.4h0.2c0.3-0.5,0.7-0.9,1.3-1.2c0.6-0.3,1.2-0.4,1.9-0.4c1.6,0,2.7,0.5,3.3,1.6
			h0.3c0.3-0.5,0.7-0.9,1.3-1.2c0.6-0.3,1.2-0.4,1.9-0.4c1.2,0,2.2,0.3,2.8,1s1,1.7,1,3.1v7.1h-3v-6.4c0-0.8-0.1-1.4-0.4-1.8
			s-0.7-0.6-1.2-0.6c-0.7,0-1.3,0.3-1.6,0.8s-0.5,1.3-0.5,2.5V168.9z"/>
		<path class="st5" d="M413.2,163.4c0,1.8-0.5,3.2-1.4,4.2s-2.2,1.5-3.9,1.5c-1,0-2-0.2-2.8-0.7s-1.4-1.1-1.8-2s-0.6-1.9-0.6-3
			c0-1.8,0.5-3.2,1.4-4.2c0.9-1,2.2-1.5,3.9-1.5c1,0,2,0.2,2.8,0.7s1.4,1.1,1.8,2S413.2,162.3,413.2,163.4z M410.1,156.8
			c-1-0.6-1.8-1.2-2.3-1.7c-0.5,0.5-1.3,1.1-2.2,1.7h-2v-0.3c1.2-1.2,2.1-2.2,2.5-2.9h3.5c0.2,0.3,0.6,0.8,1,1.4s1,1.1,1.5,1.6v0.3
			H410.1z M405.6,163.4c0,1.1,0.2,1.9,0.5,2.5c0.4,0.6,0.9,0.8,1.7,0.8c0.8,0,1.4-0.3,1.7-0.8c0.3-0.6,0.5-1.4,0.5-2.5
			c0-1.1-0.2-1.9-0.5-2.4s-0.9-0.8-1.7-0.8c-0.8,0-1.4,0.3-1.7,0.8S405.6,162.3,405.6,163.4z M406.2,171.6c0-1,0.5-1.5,1.6-1.5
			c1.1,0,1.6,0.5,1.6,1.5c0,0.5-0.1,0.8-0.4,1.1s-0.7,0.4-1.2,0.4C406.8,173.1,406.2,172.6,406.2,171.6z"/>
		<path class="st5" d="M420.2,166.7c0.5,0,1.1-0.1,1.9-0.3v2.2c-0.7,0.3-1.7,0.5-2.7,0.5c-1.2,0-2.1-0.3-2.6-0.9
			c-0.5-0.6-0.8-1.5-0.8-2.7v-5.3h-1.4V159l1.6-1l0.9-2.3h1.9v2.3h3.1v2.2h-3.1v5.3c0,0.4,0.1,0.7,0.4,0.9
			C419.5,166.6,419.8,166.7,420.2,166.7z"/>
		<path class="st5" d="M439.6,168.9h-3v-6.4c0-0.8-0.1-1.4-0.4-1.8c-0.3-0.4-0.7-0.6-1.3-0.6c-0.8,0-1.4,0.3-1.8,0.8
			s-0.6,1.5-0.6,2.8v5.1h-3V158h2.3l0.4,1.4h0.2c0.3-0.5,0.8-0.9,1.4-1.2c0.6-0.3,1.2-0.4,2-0.4c1.3,0,2.2,0.3,2.9,1
			c0.7,0.7,1,1.7,1,3V168.9z"/>
		<path class="st5" d="M449.6,168.9l-0.6-1.5h-0.1c-0.5,0.6-1,1.1-1.5,1.3s-1.2,0.4-2.1,0.4c-1,0-1.9-0.3-2.5-0.9
			c-0.6-0.6-0.9-1.5-0.9-2.6c0-1.2,0.4-2,1.2-2.6s2-0.9,3.7-0.9l1.9-0.1v-0.5c0-1.1-0.6-1.7-1.7-1.7c-0.9,0-1.9,0.3-3.1,0.8l-1-2
			c1.3-0.7,2.6-1,4.2-1c1.5,0,2.6,0.3,3.4,1s1.2,1.6,1.2,2.9v7.3H449.6z M451.1,153.5c-0.1,1-0.5,1.8-1.2,2.4s-1.6,0.9-2.7,0.9
			c-1.1,0-2-0.3-2.7-0.9s-1-1.4-1.1-2.4h1.7c0,0.3,0.1,0.5,0.3,0.7s0.4,0.3,0.6,0.4s0.7,0.1,1.2,0.1c1.3,0,2.1-0.4,2.2-1.2H451.1z
			 M448.7,163.8l-1.2,0c-0.9,0-1.5,0.2-1.9,0.5s-0.6,0.7-0.6,1.3c0,0.8,0.5,1.3,1.4,1.3c0.7,0,1.2-0.2,1.7-0.6s0.6-0.9,0.6-1.6
			V163.8z"/>
		<path class="st5" d="M464.5,168.9h-3v-6.4c0-0.8-0.1-1.4-0.4-1.8s-0.7-0.6-1.2-0.6c-0.8,0-1.3,0.3-1.7,0.8s-0.5,1.5-0.5,2.8v5.1
			h-3V158h2.3l0.4,1.4h0.2c0.3-0.5,0.7-0.9,1.3-1.2s1.2-0.4,1.9-0.4c1.6,0,2.7,0.5,3.3,1.6h0.3c0.3-0.5,0.7-0.9,1.3-1.2
			s1.2-0.4,1.9-0.4c1.2,0,2.2,0.3,2.8,1s1,1.7,1,3.1v7.1h-3v-6.4c0-0.8-0.1-1.4-0.4-1.8s-0.7-0.6-1.2-0.6c-0.7,0-1.3,0.3-1.6,0.8
			s-0.5,1.3-0.5,2.5V168.9z"/>
		<path class="st5" d="M514.2,157.8c0,0.9-0.3,1.7-0.8,2.3s-1.3,1.1-2.3,1.3v0.1c1.2,0.1,2,0.5,2.6,1s0.9,1.3,0.9,2.3
			c0,1.4-0.5,2.4-1.5,3.2s-2.4,1.1-4.3,1.1c-1.5,0-2.9-0.3-4.1-0.8v-2.6c0.6,0.3,1.2,0.5,1.8,0.7s1.3,0.3,2,0.3c1,0,1.7-0.2,2.2-0.5
			s0.7-0.9,0.7-1.6c0-0.7-0.3-1.1-0.8-1.4s-1.4-0.4-2.6-0.4h-1.1v-2.3h1.1c1.1,0,1.9-0.1,2.4-0.4s0.8-0.8,0.8-1.5
			c0-1.1-0.7-1.6-2-1.6c-0.5,0-0.9,0.1-1.4,0.2s-1,0.4-1.6,0.8l-1.4-2.1c1.3-0.9,2.9-1.4,4.7-1.4c1.5,0,2.6,0.3,3.5,0.9
			S514.2,156.8,514.2,157.8z"/>
		<path class="st5" d="M521.4,159.8c1.4,0,2.5,0.4,3.3,1.2s1.2,1.8,1.2,3.2c0,1.6-0.5,2.8-1.5,3.7s-2.4,1.3-4.2,1.3
			c-1.6,0-2.9-0.3-3.8-0.8v-2.6c0.5,0.3,1.1,0.5,1.8,0.7s1.3,0.3,1.9,0.3c1.8,0,2.8-0.8,2.8-2.3c0-1.4-1-2.2-2.9-2.2
			c-0.3,0-0.7,0-1.1,0.1s-0.8,0.1-1,0.2l-1.2-0.6l0.5-7.3h7.7v2.6h-5.1l-0.3,2.8l0.3-0.1C520.3,159.8,520.8,159.8,521.4,159.8z"/>
		<path class="st5" d="M534.2,158.9c0,1.5-0.3,2.6-0.9,3.4s-1.4,1.1-2.5,1.1c-1.1,0-1.9-0.4-2.5-1.2s-0.9-1.9-0.9-3.3
			c0-3,1.1-4.5,3.4-4.5c1.1,0,1.9,0.4,2.5,1.2S534.2,157.5,534.2,158.9z M529.9,158.9c0,0.8,0.1,1.4,0.2,1.9s0.4,0.6,0.7,0.6
			c0.6,0,0.9-0.8,0.9-2.5c0-1.6-0.3-2.4-0.9-2.4c-0.3,0-0.6,0.2-0.7,0.6S529.9,158.1,529.9,158.9z M541,154.6l-7.9,14.3h-2.3
			l7.9-14.3H541z M544.2,164.6c0,1.5-0.3,2.6-0.9,3.4s-1.4,1.1-2.5,1.1c-1.1,0-1.9-0.4-2.5-1.2s-0.9-1.9-0.9-3.3
			c0-3,1.1-4.5,3.4-4.5c1.1,0,1.9,0.4,2.5,1.2S544.2,163.2,544.2,164.6z M539.9,164.6c0,0.8,0.1,1.4,0.2,1.9s0.4,0.6,0.7,0.6
			c0.6,0,0.9-0.8,0.9-2.5c0-1.6-0.3-2.4-0.9-2.4c-0.3,0-0.6,0.2-0.7,0.6S539.9,163.8,539.9,164.6z"/>
	</g>
</g>
<g>
	<g>
		<path class="st5" d="M310.8,221.6l-3.4-11.2h-0.1c0.1,2.3,0.2,3.8,0.2,4.6v6.6h-2.7v-14.3h4.1l3.4,10.9h0.1l3.6-10.9h4.1v14.3
			h-2.8v-6.8c0-0.3,0-0.7,0-1.1s0.1-1.5,0.1-3.3h-0.1l-3.7,11.2H310.8z"/>
		<path class="st5" d="M333.3,216.1c0,1.8-0.5,3.2-1.4,4.2s-2.2,1.5-3.9,1.5c-1,0-2-0.2-2.8-0.7s-1.4-1.1-1.8-2s-0.6-1.9-0.6-3
			c0-1.8,0.5-3.2,1.4-4.2s2.2-1.5,3.9-1.5c1,0,2,0.2,2.8,0.7s1.4,1.1,1.8,2S333.3,215,333.3,216.1z M331.7,209.5h-1.4
			c-0.9-0.5-1.7-1-2.3-1.5c-0.5,0.5-1.3,1-2.3,1.5h-1.4v-0.3c1.1-1.1,1.9-1.9,2.3-2.5h2.7c0.3,0.4,0.7,0.9,1.1,1.3s0.8,0.8,1.2,1.2
			V209.5z M329.5,206.1c-0.3,0-0.6,0-0.8-0.1s-0.5-0.2-0.7-0.3s-0.4-0.2-0.7-0.3s-0.4-0.1-0.6-0.1c-0.3,0-0.5,0.1-0.6,0.2
			s-0.2,0.4-0.3,0.7h-1.2c0.1-0.7,0.3-1.3,0.7-1.7s0.9-0.6,1.5-0.6c0.3,0,0.6,0,0.9,0.1s0.5,0.2,0.7,0.3s0.4,0.2,0.6,0.3
			s0.4,0.1,0.6,0.1c0.3,0,0.5-0.1,0.6-0.2s0.2-0.4,0.3-0.6h1.2c-0.1,0.7-0.3,1.3-0.7,1.7S330.1,206.1,329.5,206.1z M325.8,216.1
			c0,1.1,0.2,1.9,0.5,2.5s0.9,0.8,1.7,0.8c0.8,0,1.4-0.3,1.7-0.8s0.5-1.4,0.5-2.5c0-1.1-0.2-1.9-0.5-2.4s-0.9-0.8-1.7-0.8
			c-0.8,0-1.4,0.3-1.7,0.8S325.8,215,325.8,216.1z"/>
		<path class="st5" d="M335.7,207.9c0-1,0.5-1.5,1.6-1.5s1.6,0.5,1.6,1.5c0,0.5-0.1,0.8-0.4,1.1s-0.7,0.4-1.2,0.4
			C336.2,209.3,335.7,208.8,335.7,207.9z M338.8,221.6h-3v-10.9h3V221.6z"/>
		<path class="st5" d="M350.1,221.6h-3v-15.2h3V221.6z"/>
		<path class="st5" d="M354.9,207.6h-1.5c-1.1-0.8-1.8-1.4-2.2-2v-0.2h2.4c0.4,0.7,0.8,1.4,1.3,2V207.6z M360.1,221.6l-0.6-1.5h-0.1
			c-0.5,0.6-1,1.1-1.5,1.3s-1.2,0.4-2.1,0.4c-1,0-1.9-0.3-2.5-0.9s-0.9-1.5-0.9-2.6c0-1.2,0.4-2,1.2-2.6s2-0.9,3.7-0.9l1.9-0.1v-0.5
			c0-1.1-0.6-1.7-1.7-1.7c-0.9,0-1.9,0.3-3.1,0.8l-1-2c1.3-0.7,2.6-1,4.2-1c1.5,0,2.6,0.3,3.4,1s1.2,1.6,1.2,2.9v7.3H360.1z
			 M354,209.2c0.7-0.8,1.4-1.8,2.1-2.7h3.1c0.3,0.5,0.7,1,1.1,1.5s0.7,0.9,1,1.2v0.3h-1.6c-0.6-0.4-1.3-1-2.1-1.6
			c-0.7,0.6-1.4,1.2-2.1,1.6H354V209.2z M359.2,216.6l-1.2,0c-0.9,0-1.5,0.2-1.9,0.5s-0.6,0.7-0.6,1.3c0,0.8,0.5,1.3,1.4,1.3
			c0.7,0,1.2-0.2,1.7-0.6s0.6-0.9,0.6-1.6V216.6z"/>
		<path class="st5" d="M375.3,221.6h-3v-6.4c0-0.8-0.1-1.4-0.4-1.8s-0.7-0.6-1.3-0.6c-0.8,0-1.4,0.3-1.8,0.8s-0.6,1.5-0.6,2.8v5.1
			h-3v-10.9h2.3l0.4,1.4h0.2c0.3-0.5,0.8-0.9,1.4-1.2s1.2-0.4,2-0.4c1.3,0,2.2,0.3,2.9,1s1,1.7,1,3V221.6z"/>
		<path class="st5" d="M393.4,221.6h-3v-6.4c0-0.8-0.1-1.4-0.4-1.8s-0.7-0.6-1.2-0.6c-0.8,0-1.3,0.3-1.7,0.8s-0.5,1.5-0.5,2.8v5.1
			h-3v-10.9h2.3l0.4,1.4h0.2c0.3-0.5,0.7-0.9,1.3-1.2s1.2-0.4,1.9-0.4c1.6,0,2.7,0.5,3.3,1.6h0.3c0.3-0.5,0.7-0.9,1.3-1.2
			s1.2-0.4,1.9-0.4c1.2,0,2.2,0.3,2.8,1s1,1.7,1,3.1v7.1h-3v-6.4c0-0.8-0.1-1.4-0.4-1.8s-0.7-0.6-1.2-0.6c-0.7,0-1.3,0.3-1.6,0.8
			s-0.5,1.3-0.5,2.5V221.6z"/>
		<path class="st5" d="M413.2,216.1c0,1.8-0.5,3.2-1.4,4.2s-2.2,1.5-3.9,1.5c-1,0-2-0.2-2.8-0.7s-1.4-1.1-1.8-2s-0.6-1.9-0.6-3
			c0-1.8,0.5-3.2,1.4-4.2s2.2-1.5,3.9-1.5c1,0,2,0.2,2.8,0.7s1.4,1.1,1.8,2S413.2,215,413.2,216.1z M410.1,209.5
			c-1-0.6-1.8-1.2-2.3-1.7c-0.5,0.5-1.3,1.1-2.2,1.7h-2v-0.3c1.2-1.2,2.1-2.2,2.5-2.9h3.5c0.2,0.3,0.6,0.8,1,1.4s1,1.1,1.5,1.6v0.3
			H410.1z M405.6,216.1c0,1.1,0.2,1.9,0.5,2.5s0.9,0.8,1.7,0.8c0.8,0,1.4-0.3,1.7-0.8s0.5-1.4,0.5-2.5c0-1.1-0.2-1.9-0.5-2.4
			s-0.9-0.8-1.7-0.8c-0.8,0-1.4,0.3-1.7,0.8S405.6,215,405.6,216.1z M406.2,224.4c0-1,0.5-1.5,1.6-1.5s1.6,0.5,1.6,1.5
			c0,0.5-0.1,0.8-0.4,1.1s-0.7,0.4-1.2,0.4C406.8,225.8,406.2,225.3,406.2,224.4z"/>
		<path class="st5" d="M420.2,219.4c0.5,0,1.1-0.1,1.9-0.3v2.2c-0.7,0.3-1.7,0.5-2.7,0.5c-1.2,0-2.1-0.3-2.6-0.9s-0.8-1.5-0.8-2.7
			v-5.3h-1.4v-1.3l1.6-1l0.9-2.3h1.9v2.3h3.1v2.2h-3.1v5.3c0,0.4,0.1,0.7,0.4,0.9S419.8,219.4,420.2,219.4z"/>
		<path class="st5" d="M434.1,219.4c0.5,0,1.1-0.1,1.9-0.3v2.2c-0.7,0.3-1.7,0.5-2.7,0.5c-1.2,0-2.1-0.3-2.6-0.9s-0.8-1.5-0.8-2.7
			v-5.3h-1.4v-1.3l1.6-1l0.9-2.3h1.9v2.3h3.1v2.2h-3.1v5.3c0,0.4,0.1,0.7,0.4,0.9S433.7,219.4,434.1,219.4z"/>
		<path class="st5" d="M448.3,221.6h-3v-6.4c0-1.6-0.6-2.4-1.8-2.4c-0.8,0-1.4,0.3-1.8,0.8s-0.6,1.5-0.6,2.8v5.1h-3v-15.2h3v3.1
			c0,0.2,0,0.8-0.1,1.7l-0.1,0.9h0.2c0.7-1.1,1.7-1.6,3.2-1.6c1.3,0,2.3,0.3,2.9,1s1,1.7,1,3V221.6z"/>
		<path class="st5" d="M458.3,221.6l-0.6-1.5h-0.1c-0.5,0.6-1,1.1-1.5,1.3s-1.2,0.4-2.1,0.4c-1,0-1.9-0.3-2.5-0.9s-0.9-1.5-0.9-2.6
			c0-1.2,0.4-2,1.2-2.6s2-0.9,3.7-0.9l1.9-0.1v-0.5c0-1.1-0.6-1.7-1.7-1.7c-0.9,0-1.9,0.3-3.1,0.8l-1-2c1.3-0.7,2.6-1,4.2-1
			c1.5,0,2.6,0.3,3.4,1s1.2,1.6,1.2,2.9v7.3H458.3z M457.4,216.6l-1.2,0c-0.9,0-1.5,0.2-1.9,0.5s-0.6,0.7-0.6,1.3
			c0,0.8,0.5,1.3,1.4,1.3c0.7,0,1.2-0.2,1.7-0.6s0.6-0.9,0.6-1.6V216.6z M454.1,209.5v-0.3c1.1-1.3,1.9-2.3,2.3-2.9h3.3v0.2
			c-0.3,0.3-0.9,0.8-1.7,1.5s-1.5,1.2-1.9,1.5H454.1z"/>
		<path class="st5" d="M473.5,221.6h-3v-6.4c0-0.8-0.1-1.4-0.4-1.8s-0.7-0.6-1.3-0.6c-0.8,0-1.4,0.3-1.8,0.8s-0.6,1.5-0.6,2.8v5.1
			h-3v-10.9h2.3l0.4,1.4h0.2c0.3-0.5,0.8-0.9,1.4-1.2s1.2-0.4,2-0.4c1.3,0,2.2,0.3,2.9,1s1,1.7,1,3V221.6z"/>
		<path class="st5" d="M486.1,221.6c0,1.6-0.5,2.8-1.4,3.6s-2.3,1.2-4.1,1.2c-1.6,0-3-0.2-4.1-0.6v-2.4c1.3,0.6,2.7,0.8,4.3,0.8
			c1.5,0,2.3-0.8,2.3-2.5v-0.2l0.1-1.3h-0.1c-0.7,1.1-1.7,1.6-3.1,1.6c-1.3,0-2.3-0.5-3-1.5s-1.1-2.4-1.1-4.1c0-1.8,0.4-3.2,1.1-4.2
			s1.8-1.5,3.1-1.5c1.3,0,2.4,0.5,3.2,1.6h0.1l0.2-1.4h2.5V221.6z M481.1,219.5c0.8,0,1.4-0.2,1.7-0.7s0.5-1.2,0.5-2.2v-0.4
			c0-1.2-0.2-2-0.5-2.5s-0.9-0.8-1.7-0.8c-1.4,0-2.1,1.1-2.1,3.3c0,1.1,0.2,1.9,0.5,2.5S480.3,219.5,481.1,219.5z"/>
		<path class="st5" d="M513.5,210.5c0,0.9-0.3,1.7-0.8,2.3s-1.3,1.1-2.3,1.3v0.1c1.2,0.1,2,0.5,2.6,1s0.9,1.3,0.9,2.3
			c0,1.4-0.5,2.4-1.5,3.2c-1,0.8-2.4,1.1-4.3,1.1c-1.5,0-2.9-0.3-4.1-0.8v-2.6c0.6,0.3,1.2,0.5,1.8,0.7s1.3,0.3,2,0.3
			c1,0,1.7-0.2,2.2-0.5s0.7-0.9,0.7-1.6c0-0.7-0.3-1.1-0.8-1.4s-1.4-0.4-2.6-0.4h-1.1v-2.3h1.1c1.1,0,1.9-0.1,2.4-0.4
			s0.8-0.8,0.8-1.5c0-1.1-0.7-1.6-2-1.6c-0.5,0-0.9,0.1-1.4,0.2s-1,0.4-1.6,0.8l-1.4-2.1c1.3-0.9,2.9-1.4,4.7-1.4
			c1.5,0,2.6,0.3,3.5,0.9C513,208.6,513.5,209.5,513.5,210.5z"/>
		<path class="st5" d="M515.4,215.5c0-2.8,0.6-4.9,1.8-6.3s3-2.1,5.4-2.1c0.8,0,1.5,0,1.9,0.1v2.4c-0.6-0.1-1.2-0.2-1.7-0.2
			c-1,0-1.9,0.2-2.5,0.5s-1.1,0.8-1.5,1.4s-0.5,1.5-0.6,2.6h0.1c0.6-1.1,1.7-1.7,3.1-1.7c1.3,0,2.3,0.4,3,1.2s1.1,1.9,1.1,3.3
			c0,1.5-0.4,2.7-1.3,3.6s-2.1,1.3-3.6,1.3c-1.1,0-2-0.2-2.8-0.7s-1.4-1.2-1.8-2.1S515.4,216.9,515.4,215.5z M520.5,219.4
			c0.6,0,1.1-0.2,1.5-0.6s0.5-1,0.5-1.9c0-0.7-0.2-1.2-0.5-1.6s-0.8-0.6-1.5-0.6c-0.6,0-1.1,0.2-1.6,0.6s-0.6,0.9-0.6,1.4
			c0,0.8,0.2,1.4,0.6,2S519.9,219.4,520.5,219.4z"/>
		<path class="st5" d="M527.2,220.2c0-0.5,0.1-1,0.4-1.2s0.7-0.4,1.3-0.4c0.5,0,1,0.1,1.3,0.4s0.4,0.7,0.4,1.2
			c0,0.5-0.1,0.9-0.4,1.2s-0.7,0.4-1.3,0.4c-0.5,0-1-0.1-1.3-0.4S527.2,220.7,527.2,220.2z"/>
		<path class="st5" d="M537.8,212.5c1.4,0,2.5,0.4,3.3,1.2s1.2,1.8,1.2,3.2c0,1.6-0.5,2.8-1.5,3.7s-2.4,1.3-4.2,1.3
			c-1.6,0-2.9-0.3-3.8-0.8v-2.6c0.5,0.3,1.1,0.5,1.8,0.7s1.3,0.3,1.9,0.3c1.8,0,2.8-0.8,2.8-2.3c0-1.4-1-2.2-2.9-2.2
			c-0.3,0-0.7,0-1.1,0.1s-0.8,0.1-1,0.2l-1.2-0.6l0.5-7.3h7.7v2.6h-5.1l-0.3,2.8l0.3-0.1C536.7,212.5,537.2,212.5,537.8,212.5z"/>
		<path class="st5" d="M550.6,211.6c0,1.5-0.3,2.6-0.9,3.4s-1.4,1.1-2.5,1.1c-1.1,0-1.9-0.4-2.5-1.2s-0.9-1.9-0.9-3.3
			c0-3,1.1-4.5,3.4-4.5c1.1,0,1.9,0.4,2.5,1.2S550.6,210.2,550.6,211.6z M546.3,211.6c0,0.8,0.1,1.4,0.2,1.9s0.4,0.6,0.7,0.6
			c0.6,0,0.9-0.8,0.9-2.5c0-1.6-0.3-2.4-0.9-2.4c-0.3,0-0.6,0.2-0.7,0.6S546.3,210.8,546.3,211.6z M557.4,207.3l-7.9,14.3h-2.3
			l7.9-14.3H557.4z M560.6,217.3c0,1.5-0.3,2.6-0.9,3.4s-1.4,1.1-2.5,1.1c-1.1,0-1.9-0.4-2.5-1.2s-0.9-1.9-0.9-3.3
			c0-3,1.1-4.5,3.4-4.5c1.1,0,1.9,0.4,2.5,1.2S560.6,215.9,560.6,217.3z M556.3,217.3c0,0.8,0.1,1.4,0.2,1.9s0.4,0.6,0.7,0.6
			c0.6,0,0.9-0.8,0.9-2.5c0-1.6-0.3-2.4-0.9-2.4c-0.3,0-0.6,0.2-0.7,0.6S556.3,216.5,556.3,217.3z"/>
	</g>
</g>
<g>
	<g>
		<path class="st5" d="M310.8,276.7l-3.4-11.2h-0.1c0.1,2.3,0.2,3.8,0.2,4.6v6.6h-2.7v-14.3h4.1l3.4,10.9h0.1l3.6-10.9h4.1v14.3
			h-2.8v-6.8c0-0.3,0-0.7,0-1.1s0.1-1.5,0.1-3.3h-0.1l-3.7,11.2H310.8z"/>
		<path class="st5" d="M333.3,271.2c0,1.8-0.5,3.2-1.4,4.2s-2.2,1.5-3.9,1.5c-1,0-2-0.2-2.8-0.7s-1.4-1.1-1.8-2s-0.6-1.9-0.6-3
			c0-1.8,0.5-3.2,1.4-4.2c0.9-1,2.2-1.5,3.9-1.5c1,0,2,0.2,2.8,0.7s1.4,1.1,1.8,2S333.3,270,333.3,271.2z M331.7,264.5h-1.4
			c-0.9-0.5-1.7-1-2.3-1.5c-0.5,0.5-1.3,1-2.3,1.5h-1.4v-0.3c1.1-1.1,1.9-1.9,2.3-2.5h2.7c0.3,0.4,0.7,0.9,1.1,1.3
			c0.4,0.4,0.8,0.8,1.2,1.2V264.5z M329.5,261.2c-0.3,0-0.6,0-0.8-0.1c-0.3-0.1-0.5-0.2-0.7-0.3c-0.2-0.1-0.4-0.2-0.7-0.3
			s-0.4-0.1-0.6-0.1c-0.3,0-0.5,0.1-0.6,0.2c-0.1,0.1-0.2,0.4-0.3,0.7h-1.2c0.1-0.7,0.3-1.3,0.7-1.7c0.4-0.4,0.9-0.6,1.5-0.6
			c0.3,0,0.6,0,0.9,0.1s0.5,0.2,0.7,0.3c0.2,0.1,0.4,0.2,0.6,0.3c0.2,0.1,0.4,0.1,0.6,0.1c0.3,0,0.5-0.1,0.6-0.2
			c0.1-0.1,0.2-0.4,0.3-0.6h1.2c-0.1,0.7-0.3,1.3-0.7,1.7S330.1,261.2,329.5,261.2z M325.8,271.2c0,1.1,0.2,1.9,0.5,2.5
			c0.4,0.6,0.9,0.8,1.7,0.8c0.8,0,1.4-0.3,1.7-0.8c0.3-0.6,0.5-1.4,0.5-2.5c0-1.1-0.2-1.9-0.5-2.4s-0.9-0.8-1.7-0.8
			c-0.8,0-1.4,0.3-1.7,0.8S325.8,270.1,325.8,271.2z"/>
		<path class="st5" d="M335.7,262.9c0-1,0.5-1.5,1.6-1.5c1.1,0,1.6,0.5,1.6,1.5c0,0.5-0.1,0.8-0.4,1.1c-0.3,0.3-0.7,0.4-1.2,0.4
			C336.2,264.4,335.7,263.9,335.7,262.9z M338.8,276.7h-3v-10.9h3V276.7z"/>
		<path class="st5" d="M350.1,276.7h-3v-15.2h3V276.7z"/>
		<path class="st5" d="M354.9,262.6h-1.5c-1.1-0.8-1.8-1.4-2.2-2v-0.2h2.4c0.4,0.7,0.8,1.4,1.3,2V262.6z M360.1,276.7l-0.6-1.5h-0.1
			c-0.5,0.6-1,1.1-1.5,1.3c-0.5,0.2-1.2,0.4-2.1,0.4c-1,0-1.9-0.3-2.5-0.9c-0.6-0.6-0.9-1.5-0.9-2.6c0-1.2,0.4-2,1.2-2.6
			s2-0.9,3.7-0.9l1.9-0.1v-0.5c0-1.1-0.6-1.7-1.7-1.7c-0.9,0-1.9,0.3-3.1,0.8l-1-2c1.3-0.7,2.6-1,4.2-1c1.5,0,2.6,0.3,3.4,1
			s1.2,1.6,1.2,2.9v7.3H360.1z M354,264.3c0.7-0.8,1.4-1.8,2.1-2.7h3.1c0.3,0.5,0.7,1,1.1,1.5s0.7,0.9,1,1.2v0.3h-1.6
			c-0.6-0.4-1.3-1-2.1-1.6c-0.7,0.6-1.4,1.2-2.1,1.6H354V264.3z M359.2,271.6l-1.2,0c-0.9,0-1.5,0.2-1.9,0.5
			c-0.4,0.3-0.6,0.7-0.6,1.3c0,0.8,0.5,1.3,1.4,1.3c0.7,0,1.2-0.2,1.7-0.6c0.4-0.4,0.6-0.9,0.6-1.6V271.6z"/>
		<path class="st5" d="M375.3,276.7h-3v-6.4c0-0.8-0.1-1.4-0.4-1.8c-0.3-0.4-0.7-0.6-1.3-0.6c-0.8,0-1.4,0.3-1.8,0.8
			s-0.6,1.5-0.6,2.8v5.1h-3v-10.9h2.3l0.4,1.4h0.2c0.3-0.5,0.8-0.9,1.4-1.2c0.6-0.3,1.2-0.4,2-0.4c1.3,0,2.2,0.3,2.9,1
			c0.7,0.7,1,1.7,1,3V276.7z"/>
		<path class="st5" d="M393.4,276.7h-3v-6.4c0-0.8-0.1-1.4-0.4-1.8s-0.7-0.6-1.2-0.6c-0.8,0-1.3,0.3-1.7,0.8
			c-0.3,0.6-0.5,1.5-0.5,2.8v5.1h-3v-10.9h2.3l0.4,1.4h0.2c0.3-0.5,0.7-0.9,1.3-1.2c0.6-0.3,1.2-0.4,1.9-0.4c1.6,0,2.7,0.5,3.3,1.6
			h0.3c0.3-0.5,0.7-0.9,1.3-1.2c0.6-0.3,1.2-0.4,1.9-0.4c1.2,0,2.2,0.3,2.8,1s1,1.7,1,3.1v7.1h-3v-6.4c0-0.8-0.1-1.4-0.4-1.8
			s-0.7-0.6-1.2-0.6c-0.7,0-1.3,0.3-1.6,0.8s-0.5,1.3-0.5,2.5V276.7z"/>
		<path class="st5" d="M413.2,271.2c0,1.8-0.5,3.2-1.4,4.2s-2.2,1.5-3.9,1.5c-1,0-2-0.2-2.8-0.7s-1.4-1.1-1.8-2s-0.6-1.9-0.6-3
			c0-1.8,0.5-3.2,1.4-4.2c0.9-1,2.2-1.5,3.9-1.5c1,0,2,0.2,2.8,0.7s1.4,1.1,1.8,2S413.2,270,413.2,271.2z M410.1,264.5
			c-1-0.6-1.8-1.2-2.3-1.7c-0.5,0.5-1.3,1.1-2.2,1.7h-2v-0.3c1.2-1.2,2.1-2.2,2.5-2.9h3.5c0.2,0.3,0.6,0.8,1,1.4s1,1.1,1.5,1.6v0.3
			H410.1z M405.6,271.2c0,1.1,0.2,1.9,0.5,2.5c0.4,0.6,0.9,0.8,1.7,0.8c0.8,0,1.4-0.3,1.7-0.8c0.3-0.6,0.5-1.4,0.5-2.5
			c0-1.1-0.2-1.9-0.5-2.4s-0.9-0.8-1.7-0.8c-0.8,0-1.4,0.3-1.7,0.8S405.6,270.1,405.6,271.2z M406.2,279.4c0-1,0.5-1.5,1.6-1.5
			c1.1,0,1.6,0.5,1.6,1.5c0,0.5-0.1,0.8-0.4,1.1s-0.7,0.4-1.2,0.4C406.8,280.9,406.2,280.4,406.2,279.4z"/>
		<path class="st5" d="M420.2,274.5c0.5,0,1.1-0.1,1.9-0.3v2.2c-0.7,0.3-1.7,0.5-2.7,0.5c-1.2,0-2.1-0.3-2.6-0.9
			c-0.5-0.6-0.8-1.5-0.8-2.7V268h-1.4v-1.3l1.6-1l0.9-2.3h1.9v2.3h3.1v2.2h-3.1v5.3c0,0.4,0.1,0.7,0.4,0.9
			C419.5,274.4,419.8,274.5,420.2,274.5z"/>
		<path class="st5" d="M434.1,274.5c0.5,0,1.1-0.1,1.9-0.3v2.2c-0.7,0.3-1.7,0.5-2.7,0.5c-1.2,0-2.1-0.3-2.6-0.9
			c-0.5-0.6-0.8-1.5-0.8-2.7V268h-1.4v-1.3l1.6-1l0.9-2.3h1.9v2.3h3.1v2.2h-3.1v5.3c0,0.4,0.1,0.7,0.4,0.9
			C433.4,274.4,433.7,274.5,434.1,274.5z"/>
		<path class="st5" d="M445.9,276.7l-0.4-1.4h-0.2c-0.3,0.5-0.8,0.9-1.4,1.2s-1.3,0.4-2,0.4c-1.3,0-2.2-0.3-2.9-1
			c-0.7-0.7-1-1.7-1-3v-7.1h3v6.4c0,0.8,0.1,1.4,0.4,1.8c0.3,0.4,0.7,0.6,1.3,0.6c0.8,0,1.4-0.3,1.8-0.8s0.6-1.5,0.6-2.8v-5.1h3
			v10.9H445.9z"/>
		<path class="st5" d="M453,262.6h-1.5c-1.1-0.8-1.8-1.4-2.2-2v-0.2h2.4c0.4,0.7,0.8,1.4,1.3,2V262.6z M458.3,276.7l-0.6-1.5h-0.1
			c-0.5,0.6-1,1.1-1.5,1.3s-1.2,0.4-2.1,0.4c-1,0-1.9-0.3-2.5-0.9s-0.9-1.5-0.9-2.6c0-1.2,0.4-2,1.2-2.6s2-0.9,3.7-0.9l1.9-0.1v-0.5
			c0-1.1-0.6-1.7-1.7-1.7c-0.9,0-1.9,0.3-3.1,0.8l-1-2c1.3-0.7,2.6-1,4.2-1c1.5,0,2.6,0.3,3.4,1s1.2,1.6,1.2,2.9v7.3H458.3z
			 M452.2,264.3c0.7-0.8,1.4-1.8,2.1-2.7h3.1c0.3,0.5,0.7,1,1.1,1.5s0.7,0.9,1,1.2v0.3h-1.6c-0.6-0.4-1.3-1-2.1-1.6
			c-0.7,0.6-1.4,1.2-2.1,1.6h-1.6V264.3z M457.4,271.6l-1.2,0c-0.9,0-1.5,0.2-1.9,0.5s-0.6,0.7-0.6,1.3c0,0.8,0.5,1.3,1.4,1.3
			c0.7,0,1.2-0.2,1.7-0.6s0.6-0.9,0.6-1.6V271.6z"/>
		<path class="st5" d="M473.5,276.7h-3v-6.4c0-0.8-0.1-1.4-0.4-1.8s-0.7-0.6-1.3-0.6c-0.8,0-1.4,0.3-1.8,0.8s-0.6,1.5-0.6,2.8v5.1
			h-3v-10.9h2.3l0.4,1.4h0.2c0.3-0.5,0.8-0.9,1.4-1.2s1.2-0.4,2-0.4c1.3,0,2.2,0.3,2.9,1s1,1.7,1,3V276.7z"/>
		<path class="st5" d="M509.2,276.7h-3v-8.3l0-1.4l0-1.5c-0.5,0.5-0.8,0.8-1,1l-1.6,1.3l-1.5-1.8l4.6-3.7h2.5V276.7z"/>
		<path class="st5" d="M520.7,276.7h-3v-8.3l0-1.4l0-1.5c-0.5,0.5-0.8,0.8-1,1l-1.6,1.3l-1.5-1.8l4.6-3.7h2.5V276.7z"/>
		<path class="st5" d="M525,275.3c0-0.5,0.1-1,0.4-1.2s0.7-0.4,1.3-0.4c0.5,0,1,0.1,1.3,0.4s0.4,0.7,0.4,1.2c0,0.5-0.1,0.9-0.4,1.2
			s-0.7,0.4-1.3,0.4c-0.5,0-1-0.1-1.3-0.4S525,275.8,525,275.3z"/>
		<path class="st5" d="M535.5,267.5c1.4,0,2.5,0.4,3.3,1.2s1.2,1.8,1.2,3.2c0,1.6-0.5,2.8-1.5,3.7s-2.4,1.3-4.2,1.3
			c-1.6,0-2.9-0.3-3.8-0.8v-2.6c0.5,0.3,1.1,0.5,1.8,0.7s1.3,0.3,1.9,0.3c1.8,0,2.8-0.8,2.8-2.3c0-1.4-1-2.2-2.9-2.2
			c-0.3,0-0.7,0-1.1,0.1s-0.8,0.1-1,0.2l-1.2-0.6l0.5-7.3h7.7v2.6H534l-0.3,2.8l0.3-0.1C534.5,267.6,535,267.5,535.5,267.5z"/>
		<path class="st5" d="M548.4,266.6c0,1.5-0.3,2.6-0.9,3.4s-1.4,1.1-2.5,1.1c-1.1,0-1.9-0.4-2.5-1.2s-0.9-1.9-0.9-3.3
			c0-3,1.1-4.5,3.4-4.5c1.1,0,1.9,0.4,2.5,1.2S548.4,265.2,548.4,266.6z M544.1,266.7c0,0.8,0.1,1.4,0.2,1.9s0.4,0.6,0.7,0.6
			c0.6,0,0.9-0.8,0.9-2.5c0-1.6-0.3-2.4-0.9-2.4c-0.3,0-0.6,0.2-0.7,0.6S544.1,265.8,544.1,266.7z M555.1,262.4l-7.9,14.3h-2.3
			l7.9-14.3H555.1z M558.4,272.3c0,1.5-0.3,2.6-0.9,3.4s-1.4,1.1-2.5,1.1c-1.1,0-1.9-0.4-2.5-1.2s-0.9-1.9-0.9-3.3
			c0-3,1.1-4.5,3.4-4.5c1.1,0,1.9,0.4,2.5,1.2S558.4,270.9,558.4,272.3z M554.1,272.4c0,0.8,0.1,1.4,0.2,1.9s0.4,0.6,0.7,0.6
			c0.6,0,0.9-0.8,0.9-2.5c0-1.6-0.3-2.4-0.9-2.4c-0.3,0-0.6,0.2-0.7,0.6S554.1,271.5,554.1,272.4z"/>
	</g>
</g>
<g>
	<g>
		<path class="st5" d="M310.8,329.1l-3.4-11.2h-0.1c0.1,2.3,0.2,3.8,0.2,4.6v6.6h-2.7v-14.3h4.1l3.4,10.9h0.1l3.6-10.9h4.1v14.3
			h-2.8v-6.8c0-0.3,0-0.7,0-1.1s0.1-1.5,0.1-3.3h-0.1l-3.7,11.2H310.8z"/>
		<path class="st5" d="M333.3,323.6c0,1.8-0.5,3.2-1.4,4.2s-2.2,1.5-3.9,1.5c-1,0-2-0.2-2.8-0.7s-1.4-1.1-1.8-2s-0.6-1.9-0.6-3
			c0-1.8,0.5-3.2,1.4-4.2c0.9-1,2.2-1.5,3.9-1.5c1,0,2,0.2,2.8,0.7s1.4,1.1,1.8,2S333.3,322.5,333.3,323.6z M331.7,317h-1.4
			c-0.9-0.5-1.7-1-2.3-1.5c-0.5,0.5-1.3,1-2.3,1.5h-1.4v-0.3c1.1-1.1,1.9-1.9,2.3-2.5h2.7c0.3,0.4,0.7,0.9,1.1,1.3
			c0.4,0.4,0.8,0.8,1.2,1.2V317z M329.5,313.6c-0.3,0-0.6,0-0.8-0.1c-0.3-0.1-0.5-0.2-0.7-0.3c-0.2-0.1-0.4-0.2-0.7-0.3
			s-0.4-0.1-0.6-0.1c-0.3,0-0.5,0.1-0.6,0.2c-0.1,0.1-0.2,0.4-0.3,0.7h-1.2c0.1-0.7,0.3-1.3,0.7-1.7c0.4-0.4,0.9-0.6,1.5-0.6
			c0.3,0,0.6,0,0.9,0.1s0.5,0.2,0.7,0.3c0.2,0.1,0.4,0.2,0.6,0.3c0.2,0.1,0.4,0.1,0.6,0.1c0.3,0,0.5-0.1,0.6-0.2
			c0.1-0.1,0.2-0.4,0.3-0.6h1.2c-0.1,0.7-0.3,1.3-0.7,1.7S330.1,313.6,329.5,313.6z M325.8,323.6c0,1.1,0.2,1.9,0.5,2.5
			c0.4,0.6,0.9,0.8,1.7,0.8c0.8,0,1.4-0.3,1.7-0.8c0.3-0.6,0.5-1.4,0.5-2.5c0-1.1-0.2-1.9-0.5-2.4s-0.9-0.8-1.7-0.8
			c-0.8,0-1.4,0.3-1.7,0.8S325.8,322.6,325.8,323.6z"/>
		<path class="st5" d="M335.7,315.4c0-1,0.5-1.5,1.6-1.5c1.1,0,1.6,0.5,1.6,1.5c0,0.5-0.1,0.8-0.4,1.1c-0.3,0.3-0.7,0.4-1.2,0.4
			C336.2,316.8,335.7,316.4,335.7,315.4z M338.8,329.1h-3v-10.9h3V329.1z"/>
		<path class="st5" d="M357.2,329.1h-3v-6.4c0-0.8-0.1-1.4-0.4-1.8c-0.3-0.4-0.7-0.6-1.3-0.6c-0.8,0-1.4,0.3-1.8,0.8
			s-0.6,1.5-0.6,2.8v5.1h-3v-10.9h2.3l0.4,1.4h0.2c0.3-0.5,0.8-0.9,1.4-1.2c0.6-0.3,1.2-0.4,2-0.4c1.3,0,2.2,0.3,2.9,1
			c0.7,0.7,1,1.7,1,3V329.1z"/>
		<path class="st5" d="M369.8,329.1c0,1.6-0.5,2.8-1.4,3.6c-0.9,0.8-2.3,1.2-4.1,1.2c-1.6,0-3-0.2-4.1-0.6v-2.4
			c1.3,0.6,2.7,0.8,4.3,0.8c1.5,0,2.3-0.8,2.3-2.5V329l0.1-1.3h-0.1c-0.7,1.1-1.7,1.6-3.1,1.6c-1.3,0-2.3-0.5-3-1.5
			c-0.7-1-1.1-2.4-1.1-4.1c0-1.8,0.4-3.2,1.1-4.2c0.7-1,1.8-1.5,3.1-1.5c1.3,0,2.4,0.5,3.2,1.6h0.1l0.2-1.4h2.5V329.1z M364.7,327
			c0.8,0,1.4-0.2,1.7-0.7c0.3-0.5,0.5-1.2,0.5-2.2v-0.4c0-1.2-0.2-2-0.5-2.5s-0.9-0.8-1.7-0.8c-1.4,0-2.1,1.1-2.1,3.3
			c0,1.1,0.2,1.9,0.5,2.5C363.5,326.7,364,327,364.7,327z"/>
		<path class="st5" d="M379.8,329.1l-0.6-1.5h-0.1c-0.5,0.6-1,1.1-1.5,1.3c-0.5,0.2-1.2,0.4-2.1,0.4c-1,0-1.9-0.3-2.5-0.9
			c-0.6-0.6-0.9-1.5-0.9-2.6c0-1.2,0.4-2,1.2-2.6s2-0.9,3.7-0.9l1.9-0.1v-0.5c0-1.1-0.6-1.7-1.7-1.7c-0.9,0-1.9,0.3-3.1,0.8l-1-2
			c1.3-0.7,2.6-1,4.2-1c1.5,0,2.6,0.3,3.4,1s1.2,1.6,1.2,2.9v7.3H379.8z M377.3,317c-0.4-0.3-1-0.8-1.8-1.4
			c-0.8-0.6-1.4-1.2-1.9-1.6v-0.2h3.3c0.4,0.7,1.2,1.6,2.3,2.9v0.3H377.3z M378.9,324.1l-1.2,0c-0.9,0-1.5,0.2-1.9,0.5
			c-0.4,0.3-0.6,0.7-0.6,1.3c0,0.8,0.5,1.3,1.4,1.3c0.7,0,1.2-0.2,1.7-0.6c0.4-0.4,0.6-0.9,0.6-1.6V324.1z"/>
		<path class="st5" d="M383.4,318.2h3.3l2.1,6.1c0.2,0.5,0.3,1.2,0.4,1.9h0.1c0.1-0.7,0.2-1.3,0.4-1.9l2-6.1h3.2l-4.6,12.3
			c-0.4,1.1-1,2-1.8,2.6c-0.8,0.6-1.7,0.8-2.7,0.8c-0.5,0-1-0.1-1.5-0.2v-2.4c0.4,0.1,0.7,0.1,1.2,0.1c0.5,0,1-0.2,1.4-0.5
			c0.4-0.3,0.7-0.8,0.9-1.5l0.2-0.5L383.4,318.2z"/>
		<path class="st5" d="M512.1,329.1h-3v-8.3l0-1.4l0-1.5c-0.5,0.5-0.8,0.8-1,1l-1.6,1.3l-1.5-1.8l4.6-3.7h2.5V329.1z"/>
		<path class="st5" d="M517.5,329.1l5.4-11.7h-7v-2.5h10.2v1.9l-5.4,12.4H517.5z"/>
		<path class="st5" d="M534.2,319.1c0,1.5-0.3,2.6-0.9,3.4s-1.4,1.1-2.5,1.1c-1.1,0-1.9-0.4-2.5-1.2s-0.9-1.9-0.9-3.3
			c0-3,1.1-4.5,3.4-4.5c1.1,0,1.9,0.4,2.5,1.2S534.2,317.7,534.2,319.1z M529.8,319.1c0,0.8,0.1,1.4,0.2,1.9s0.4,0.6,0.7,0.6
			c0.6,0,0.9-0.8,0.9-2.5c0-1.6-0.3-2.4-0.9-2.4c-0.3,0-0.6,0.2-0.7,0.6S529.8,318.3,529.8,319.1z M540.9,314.8l-7.9,14.3h-2.3
			l7.9-14.3H540.9z M544.2,324.8c0,1.5-0.3,2.6-0.9,3.4s-1.4,1.1-2.5,1.1c-1.1,0-1.9-0.4-2.5-1.2s-0.9-1.9-0.9-3.3
			c0-3,1.1-4.5,3.4-4.5c1.1,0,1.9,0.4,2.5,1.2S544.2,323.4,544.2,324.8z M539.8,324.8c0,0.8,0.1,1.4,0.2,1.9s0.4,0.6,0.7,0.6
			c0.6,0,0.9-0.8,0.9-2.5c0-1.6-0.3-2.4-0.9-2.4c-0.3,0-0.6,0.2-0.7,0.6S539.8,324,539.8,324.8z"/>
	</g>
</g>
<rect x="3.7" y="113.1" class="st6" width="771.4" height="262.1"/>
<g>
	<line class="st4" x1="47.3" y1="176.4" x2="56.3" y2="185.3"/>
	<line class="st4" x1="56.3" y1="176.4" x2="47.3" y2="185.3"/>
</g>
<polygon class="st7" points="706.5,373.3 706.5,307.5 775,307.5 "/>
<circle class="st8" cx="154.8" cy="246.5" r="74.8"/>
<circle class="st9" cx="154.8" cy="246.5" r="61.1"/>
<polyline class="st9" points="154.8,206.6 154.8,246.5 183.6,246.5 "/>
<line class="st10" x1="281.3" y1="113.1" x2="281.3" y2="379.3"/>
<rect x="1.3" y="36.1" class="st11" width="777.6" height="83"/>
<g>
	<g>
		<path class="st5" d="M83.7,94.3h-5V74.9h-6.4v-4.2h17.8v4.2h-6.4V94.3z"/>
		<path class="st5" d="M96.2,71.2h-2.4c-1.8-1.3-3-2.4-3.7-3.3v-0.3H94c0.6,1.2,1.3,2.3,2.2,3.2V71.2z M104.8,94.3l-1-2.4h-0.1
			c-0.8,1-1.7,1.8-2.6,2.2c-0.9,0.4-2,0.6-3.4,0.6c-1.7,0-3.1-0.5-4.1-1.5s-1.5-2.4-1.5-4.2c0-1.9,0.7-3.3,2-4.2s3.4-1.4,6.1-1.5
			l3.1-0.1v-0.8c0-1.8-0.9-2.7-2.8-2.7c-1.4,0-3.1,0.4-5.1,1.3l-1.6-3.3c2.1-1.1,4.4-1.6,6.9-1.6c2.4,0,4.3,0.5,5.6,1.6
			s1.9,2.7,1.9,4.8v12H104.8z M94.8,73.9c1.2-1.4,2.4-2.9,3.5-4.5h5.1c0.5,0.8,1.1,1.6,1.8,2.5s1.2,1.6,1.7,2v0.4h-2.6
			c-1-0.7-2.2-1.6-3.4-2.7c-1.1,1-2.3,1.9-3.4,2.7h-2.6V73.9z M103.4,86l-1.9,0.1c-1.4,0-2.5,0.3-3.2,0.8c-0.7,0.5-1,1.2-1,2.2
			c0,1.4,0.8,2.1,2.4,2.1c1.1,0,2-0.3,2.7-1s1-1.5,1-2.6V86z"/>
		<path class="st5" d="M129.9,94.3H125V83.8c0-1.3-0.2-2.3-0.7-2.9c-0.5-0.6-1.2-1-2.2-1c-1.4,0-2.4,0.5-3,1.4
			c-0.6,0.9-0.9,2.4-0.9,4.6v8.5h-4.9v-18h3.8l0.7,2.3h0.3c0.5-0.9,1.3-1.5,2.3-2c1-0.4,2.1-0.7,3.3-0.7c2.1,0,3.7,0.6,4.8,1.7
			c1.1,1.1,1.6,2.8,1.6,4.9V94.3z"/>
		<path class="st5" d="M156.1,89c0,1.8-0.6,3.3-1.9,4.2s-3.2,1.5-5.8,1.5c-1.3,0-2.4-0.1-3.4-0.3c-0.9-0.2-1.8-0.4-2.6-0.8v-4.1
			c0.9,0.4,1.9,0.8,3.1,1.1s2.2,0.4,3,0.4c1.8,0,2.7-0.5,2.7-1.5c0-0.4-0.1-0.7-0.4-0.9c-0.2-0.2-0.6-0.5-1.2-0.8
			c-0.6-0.3-1.4-0.7-2.3-1.1c-1.4-0.6-2.4-1.1-3.1-1.6s-1.1-1.1-1.4-1.7s-0.4-1.4-0.4-2.4c0-1.6,0.6-2.8,1.9-3.7
			c1.2-0.9,3-1.3,5.3-1.3c2.2,0,4.3,0.5,6.3,1.4l-1.5,3.5c-0.9-0.4-1.7-0.7-2.5-1c-0.8-0.2-1.6-0.4-2.4-0.4c-1.5,0-2.2,0.4-2.2,1.2
			c0,0.4,0.2,0.8,0.7,1.1s1.5,0.8,3.1,1.4c1.4,0.6,2.4,1.1,3.1,1.6c0.7,0.5,1.1,1.1,1.5,1.7C156,87.3,156.1,88.1,156.1,89z"/>
		<path class="st5" d="M176.3,85.3c0,2.9-0.8,5.2-2.3,6.9s-3.7,2.5-6.5,2.5c-1.7,0-3.3-0.4-4.6-1.1c-1.3-0.8-2.3-1.8-3-3.3
			s-1.1-3.1-1.1-5c0-2.9,0.8-5.2,2.3-6.9c1.5-1.6,3.7-2.4,6.5-2.4c1.7,0,3.3,0.4,4.6,1.1s2.3,1.8,3,3.2S176.3,83.4,176.3,85.3z
			 M173.5,74.3h-2.6c-1.2-0.8-2.3-1.7-3.4-2.7c-1.2,1.1-2.4,2-3.4,2.7h-2.6v-0.4c1.2-1.4,2.4-2.9,3.5-4.5h5.1
			c0.6,0.8,1.2,1.7,1.9,2.6c0.7,0.9,1.2,1.5,1.5,1.9V74.3z M163.9,85.3c0,1.8,0.3,3.1,0.9,4s1.5,1.4,2.9,1.4c1.3,0,2.3-0.5,2.8-1.4
			c0.6-0.9,0.9-2.3,0.9-4.1c0-1.8-0.3-3.1-0.9-4s-1.5-1.3-2.9-1.3c-1.3,0-2.3,0.4-2.8,1.3C164.2,82.1,163.9,83.5,163.9,85.3z
			 M172.1,70.7c0.9-1,1.7-2.1,2.2-3.2h3.9v0.3c-0.7,1-1.9,2.1-3.7,3.3h-2.4V70.7z"/>
		<path class="st5" d="M196.3,94.6c-5.6,0-8.4-3.1-8.4-9.2c0-3.1,0.8-5.4,2.3-7s3.7-2.4,6.6-2.4c2.1,0,4,0.4,5.6,1.2l-1.5,3.8
			c-0.8-0.3-1.5-0.6-2.2-0.8s-1.3-0.3-2-0.3c-2.6,0-3.8,1.8-3.8,5.4c0,3.5,1.3,5.3,3.8,5.3c0.9,0,1.8-0.1,2.6-0.4s1.6-0.6,2.4-1.2
			v4.2c-0.8,0.5-1.6,0.9-2.4,1S197.5,94.6,196.3,94.6z"/>
		<path class="st5" d="M218.7,94.3L218,92h-0.3c-0.5,0.8-1.3,1.5-2.2,1.9c-1,0.5-2.1,0.7-3.3,0.7c-2.1,0-3.7-0.6-4.8-1.7
			c-1.1-1.1-1.6-2.8-1.6-4.9V76.3h4.9v10.5c0,1.3,0.2,2.3,0.7,2.9c0.5,0.7,1.2,1,2.2,1c1.4,0,2.4-0.5,3-1.4c0.6-0.9,0.9-2.4,0.9-4.6
			v-8.5h4.9v18H218.7z M218.2,70.3c0,1.7-0.9,2.7-2.6,3.2l-0.2,1.1h-2.8l-0.4-2.4c0.8-0.1,1.4-0.3,1.6-0.6c0.3-0.3,0.4-0.6,0.4-1
			c0-0.3-0.1-0.6-0.3-0.8s-0.5-0.3-0.9-0.3c-0.7,0-1.4,0.1-2.2,0.4v-2.7c0.3-0.1,0.8-0.2,1.3-0.3c0.6-0.1,1.1-0.1,1.5-0.1
			c1.5,0,2.6,0.3,3.4,0.9C217.8,68.4,218.2,69.2,218.2,70.3z"/>
		<path class="st5" d="M239.1,94.3l-1-2.4H238c-0.8,1-1.7,1.8-2.6,2.2c-0.9,0.4-2,0.6-3.4,0.6c-1.7,0-3.1-0.5-4.1-1.5
			s-1.5-2.4-1.5-4.2c0-1.9,0.7-3.3,2-4.2c1.3-0.9,3.4-1.4,6.1-1.5l3.1-0.1v-0.8c0-1.8-0.9-2.7-2.8-2.7c-1.4,0-3.1,0.4-5.1,1.3
			l-1.6-3.3c2.1-1.1,4.4-1.6,6.9-1.6c2.4,0,4.3,0.5,5.6,1.6s1.9,2.7,1.9,4.8v12H239.1z M237.6,86l-1.9,0.1c-1.4,0-2.5,0.3-3.2,0.8
			s-1,1.2-1,2.2c0,1.4,0.8,2.1,2.4,2.1c1.1,0,2-0.3,2.7-1s1-1.5,1-2.6V86z"/>
		<path class="st5" d="M260.4,94.3l-6.9-18h5.1l3.5,10.3c0.4,1.1,0.6,2.3,0.7,3.7h0.1c0.1-1.2,0.3-2.4,0.7-3.7l3.5-10.3h5.1l-6.9,18
			H260.4z"/>
		<path class="st5" d="M274.7,71.6c0-1.6,0.9-2.4,2.7-2.4s2.7,0.8,2.7,2.4c0,0.8-0.2,1.4-0.7,1.8c-0.4,0.4-1.1,0.6-2,0.6
			C275.6,74.1,274.7,73.2,274.7,71.6z M279.8,94.3h-4.9v-18h4.9V94.3z"/>
		<path class="st5" d="M293.1,94.6c-2.9,0-5.2-0.8-6.8-2.4s-2.4-3.9-2.4-6.8c0-3,0.8-5.4,2.3-7c1.5-1.6,3.6-2.5,6.3-2.5
			c2.5,0,4.5,0.7,5.9,2.2s2.1,3.5,2.1,6v2.4h-11.6c0.1,1.4,0.5,2.5,1.2,3.3s1.9,1.2,3.3,1.2c1.1,0,2.1-0.1,3.1-0.3s2-0.6,3-1.1v3.8
			c-0.9,0.4-1.8,0.7-2.8,1C295.7,94.5,294.5,94.6,293.1,94.6z M295.9,74.3c-1.7-1-2.9-1.9-3.8-2.8c-0.8,0.9-2.1,1.8-3.7,2.8h-3.3
			v-0.4c2-2,3.4-3.6,4.1-4.9h5.8c0.3,0.6,0.9,1.3,1.7,2.3c0.8,1,1.6,1.8,2.4,2.6v0.4H295.9z M292.4,79.4c-1,0-1.9,0.3-2.4,1
			c-0.6,0.7-0.9,1.6-1,2.8h6.9c0-1.2-0.3-2.2-1-2.8C294.3,79.8,293.5,79.4,292.4,79.4z M289.5,98.8c0-1.6,0.9-2.4,2.7-2.4
			s2.7,0.8,2.7,2.4c0,0.8-0.2,1.4-0.7,1.8s-1.1,0.6-2,0.6C290.3,101.2,289.5,100.4,289.5,98.8z"/>
		<path class="st5" d="M311.8,94.6c-5.6,0-8.4-3.1-8.4-9.2c0-3.1,0.8-5.4,2.3-7s3.7-2.4,6.6-2.4c2.1,0,4,0.4,5.6,1.2l-1.5,3.8
			c-0.8-0.3-1.5-0.6-2.2-0.8s-1.3-0.3-2-0.3c-2.6,0-3.8,1.8-3.8,5.4c0,3.5,1.3,5.3,3.8,5.3c0.9,0,1.8-0.1,2.6-0.4s1.6-0.6,2.4-1.2
			v4.2c-0.8,0.5-1.6,0.9-2.4,1S313,94.6,311.8,94.6z"/>
		<path class="st5" d="M346.1,94.3h-4.9V83.8c0-1.3-0.2-2.3-0.7-2.9c-0.4-0.6-1.1-1-2.1-1c-1.3,0-2.2,0.5-2.7,1.4s-0.9,2.4-0.9,4.6
			v8.5H330v-18h3.8l0.7,2.3h0.3c0.5-0.8,1.2-1.5,2.1-1.9c0.9-0.5,2-0.7,3.1-0.7c2.7,0,4.5,0.9,5.5,2.6h0.4c0.5-0.8,1.2-1.5,2.1-1.9
			c0.9-0.5,2-0.7,3.2-0.7c2,0,3.6,0.5,4.6,1.6c1,1,1.6,2.7,1.6,5v11.7h-4.9V83.8c0-1.3-0.2-2.3-0.7-2.9c-0.4-0.6-1.1-1-2.1-1
			c-1.2,0-2.1,0.4-2.7,1.3c-0.6,0.9-0.9,2.2-0.9,4.1V94.3z"/>
		<path class="st5" d="M375.2,94.3l-0.7-2.3h-0.3c-0.5,0.8-1.3,1.5-2.2,1.9c-1,0.5-2.1,0.7-3.3,0.7c-2.1,0-3.7-0.6-4.8-1.7
			c-1.1-1.1-1.6-2.8-1.6-4.9V76.3h4.9v10.5c0,1.3,0.2,2.3,0.7,2.9c0.5,0.7,1.2,1,2.2,1c1.4,0,2.4-0.5,3-1.4c0.6-0.9,0.9-2.4,0.9-4.6
			v-8.5h4.9v18H375.2z"/>
		<path class="st5" d="M395.5,94.3l-1-2.4h-0.1c-0.8,1-1.7,1.8-2.6,2.2c-0.9,0.4-2,0.6-3.4,0.6c-1.7,0-3.1-0.5-4.1-1.5
			s-1.5-2.4-1.5-4.2c0-1.9,0.7-3.3,2-4.2c1.3-0.9,3.4-1.4,6.1-1.5l3.1-0.1v-0.8c0-1.8-0.9-2.7-2.8-2.7c-1.4,0-3.1,0.4-5.1,1.3
			l-1.6-3.3c2.1-1.1,4.4-1.6,6.9-1.6c2.4,0,4.3,0.5,5.6,1.6s1.9,2.7,1.9,4.8v12H395.5z M394.1,86l-1.9,0.1c-1.4,0-2.5,0.3-3.2,0.8
			s-1,1.2-1,2.2c0,1.4,0.8,2.1,2.4,2.1c1.1,0,2-0.3,2.7-1s1-1.5,1-2.6V86z"/>
		<path class="st5" d="M425.2,89c0,1.8-0.6,3.3-1.9,4.2s-3.2,1.5-5.8,1.5c-1.3,0-2.4-0.1-3.4-0.3c-0.9-0.2-1.8-0.4-2.6-0.8v-4.1
			c0.9,0.4,1.9,0.8,3.1,1.1c1.1,0.3,2.2,0.4,3,0.4c1.8,0,2.7-0.5,2.7-1.5c0-0.4-0.1-0.7-0.4-0.9c-0.2-0.2-0.6-0.5-1.2-0.8
			c-0.6-0.3-1.4-0.7-2.3-1.1c-1.4-0.6-2.4-1.1-3.1-1.6c-0.7-0.5-1.1-1.1-1.4-1.7c-0.3-0.6-0.4-1.4-0.4-2.4c0-1.6,0.6-2.8,1.9-3.7
			c1.2-0.9,3-1.3,5.3-1.3c2.2,0,4.3,0.5,6.3,1.4l-1.5,3.5c-0.9-0.4-1.7-0.7-2.5-1s-1.6-0.4-2.4-0.4c-1.5,0-2.2,0.4-2.2,1.2
			c0,0.4,0.2,0.8,0.7,1.1c0.5,0.3,1.5,0.8,3.1,1.4c1.4,0.6,2.4,1.1,3.1,1.6s1.1,1.1,1.5,1.7S425.2,88.1,425.2,89z"/>
		<path class="st5" d="M440.5,94.3l-1-2.4h-0.1c-0.8,1-1.7,1.8-2.6,2.2c-0.9,0.4-2,0.6-3.4,0.6c-1.7,0-3.1-0.5-4.1-1.5
			s-1.5-2.4-1.5-4.2c0-1.9,0.7-3.3,2-4.2c1.3-0.9,3.4-1.4,6.1-1.5l3.1-0.1v-0.8c0-1.8-0.9-2.7-2.8-2.7c-1.4,0-3.1,0.4-5.1,1.3
			l-1.6-3.3c2.1-1.1,4.4-1.6,6.9-1.6c2.4,0,4.3,0.5,5.6,1.6s1.9,2.7,1.9,4.8v12H440.5z M442.2,68.9c-0.1,1.7-0.7,3-1.7,4
			c-1,1-2.4,1.5-4.1,1.5c-1.8,0-3.2-0.5-4.2-1.4s-1.5-2.3-1.6-4.1h2.4c0.1,0.9,0.4,1.6,1.1,2.1c0.6,0.4,1.4,0.7,2.3,0.7
			s1.7-0.3,2.3-0.8s1-1.2,1.1-2H442.2z M439,86l-1.9,0.1c-1.4,0-2.5,0.3-3.2,0.8s-1,1.2-1,2.2c0,1.4,0.8,2.1,2.4,2.1
			c1.1,0,2-0.3,2.7-1s1-1.5,1-2.6V86z M434.8,69.7c0.8-1.1,1.4-2.2,1.9-3.2h3.6v0.3c-1,1.2-2.1,2.3-3.3,3.3h-2.1V69.7z"/>
		<path class="st5" d="M465.1,94.3h-4.9V83.8c0-1.3-0.2-2.3-0.7-2.9c-0.4-0.6-1.1-1-2.1-1c-1.3,0-2.2,0.5-2.7,1.4s-0.9,2.4-0.9,4.6
			v8.5h-4.9v-18h3.8l0.7,2.3h0.3c0.5-0.8,1.2-1.5,2.1-1.9c0.9-0.5,2-0.7,3.1-0.7c2.7,0,4.5,0.9,5.5,2.6h0.4c0.5-0.8,1.2-1.5,2.1-1.9
			c0.9-0.5,2-0.7,3.2-0.7c2,0,3.6,0.5,4.6,1.6c1,1,1.6,2.7,1.6,5v11.7h-4.9V83.8c0-1.3-0.2-2.3-0.7-2.9c-0.4-0.6-1.1-1-2.1-1
			c-1.2,0-2.1,0.4-2.7,1.3c-0.6,0.9-0.9,2.2-0.9,4.1V94.3z"/>
		<path class="st5" d="M495.6,94.6c-2.1,0-3.8-0.8-5-2.5s-1.8-3.9-1.8-6.8c0-2.9,0.6-5.2,1.8-6.9s2.9-2.5,5.1-2.5
			c1.1,0,2.1,0.2,3,0.6s1.6,1.1,2.2,2h0.1l0.4-2.3h4.2v25.9h-4.9v-7.6c0-0.7,0.1-1.6,0.2-2.7h-0.2c-0.5,0.9-1.2,1.5-2.1,2
			S496.8,94.6,495.6,94.6z M497.4,90.8c1.2,0,2.2-0.4,2.7-1.1c0.6-0.7,0.9-2,1-3.7v-0.6c0-1.9-0.3-3.3-0.9-4.2
			c-0.6-0.8-1.6-1.3-2.9-1.3c-2.3,0-3.5,1.8-3.5,5.4c0,1.8,0.3,3.2,0.9,4S496.2,90.8,497.4,90.8z"/>
		<path class="st5" d="M523.6,94.3l-0.7-2.3h-0.3c-0.5,0.8-1.3,1.5-2.2,1.9c-1,0.5-2.1,0.7-3.3,0.7c-2.1,0-3.7-0.6-4.8-1.7
			c-1.1-1.1-1.6-2.8-1.6-4.9V76.3h4.9v10.5c0,1.3,0.2,2.3,0.7,2.9c0.5,0.7,1.2,1,2.2,1c1.4,0,2.4-0.5,3-1.4c0.6-0.9,0.9-2.4,0.9-4.6
			v-8.5h4.9v18H523.6z"/>
		<path class="st5" d="M543.9,94.3l-1-2.4h-0.1c-0.8,1-1.7,1.8-2.6,2.2c-0.9,0.4-2,0.6-3.4,0.6c-1.7,0-3.1-0.5-4.1-1.5
			s-1.5-2.4-1.5-4.2c0-1.9,0.7-3.3,2-4.2c1.3-0.9,3.4-1.4,6.1-1.5l3.1-0.1v-0.8c0-1.8-0.9-2.7-2.8-2.7c-1.4,0-3.1,0.4-5.1,1.3
			l-1.6-3.3c2.1-1.1,4.4-1.6,6.9-1.6c2.4,0,4.3,0.5,5.6,1.6s1.9,2.7,1.9,4.8v12H543.9z M542.5,86l-1.9,0.1c-1.4,0-2.5,0.3-3.2,0.8
			s-1,1.2-1,2.2c0,1.4,0.8,2.1,2.4,2.1c1.1,0,2-0.3,2.7-1s1-1.5,1-2.6V86z"/>
		<path class="st5" d="M566.7,94.6c-2.1,0-3.8-0.8-5-2.5c-1.2-1.6-1.8-3.9-1.8-6.8c0-3,0.6-5.3,1.8-6.9c1.2-1.6,2.9-2.5,5.1-2.5
			c2.3,0,4,0.9,5.2,2.6h0.2c-0.2-1.3-0.4-2.5-0.4-3.6v-5.8h4.9v25.1H573l-1-2.3h-0.2C570.7,93.7,569,94.6,566.7,94.6z M568.4,90.7
			c1.3,0,2.2-0.4,2.8-1.1s0.9-2,1-3.7v-0.5c0-1.9-0.3-3.3-0.9-4.2c-0.6-0.8-1.6-1.3-2.9-1.3c-1.1,0-1.9,0.5-2.6,1.4
			c-0.6,0.9-0.9,2.3-0.9,4.1s0.3,3.1,0.9,4C566.4,90.3,567.3,90.7,568.4,90.7z"/>
		<path class="st5" d="M581.7,71.6c0-1.6,0.9-2.4,2.7-2.4s2.7,0.8,2.7,2.4c0,0.8-0.2,1.4-0.7,1.8c-0.4,0.4-1.1,0.6-2,0.6
			C582.6,74.1,581.7,73.2,581.7,71.6z M586.8,94.3h-4.9v-18h4.9V94.3z"/>
		<path class="st5" d="M606.2,94.6c-2.1,0-3.8-0.8-5-2.4s-1.8-3.7-1.8-6.4c0-2.8,0.6-5,1.9-6.5s2.9-2.3,5.1-2.3c2.3,0,4,0.9,5.2,2.6
			h0.2c-0.2-1.4-0.4-2.7-0.4-3.7V75h-5.1v-3.2h5.1v-2.6h4.9v2.6h2.5V75h-2.5v19.3h-3.8l-1-2.3h-0.2
			C610.2,93.7,608.5,94.6,606.2,94.6z M608,90.7c1.3,0,2.2-0.3,2.8-1c0.6-0.7,0.9-1.8,1-3.4v-0.5c0-1.8-0.3-3-0.9-3.8
			c-0.6-0.8-1.6-1.1-2.9-1.1c-1.1,0-1.9,0.4-2.6,1.3c-0.6,0.8-0.9,2.1-0.9,3.7c0,1.6,0.3,2.8,0.9,3.6S606.8,90.7,608,90.7z"/>
		<path class="st5" d="M638.3,85.3c0,2.9-0.8,5.2-2.3,6.9s-3.7,2.5-6.5,2.5c-1.7,0-3.3-0.4-4.6-1.1c-1.3-0.8-2.3-1.8-3-3.3
			s-1.1-3.1-1.1-5c0-2.9,0.8-5.2,2.3-6.9s3.7-2.4,6.5-2.4c1.7,0,3.3,0.4,4.6,1.1s2.3,1.8,3,3.2S638.3,83.4,638.3,85.3z M633.3,74.3
			c-1.7-1-2.9-1.9-3.8-2.8c-0.8,0.9-2.1,1.8-3.7,2.8h-3.3v-0.4c2-2,3.4-3.6,4.1-4.9h5.8c0.3,0.6,0.9,1.3,1.7,2.3
			c0.8,1,1.6,1.8,2.4,2.6v0.4H633.3z M625.9,85.3c0,1.8,0.3,3.1,0.9,4c0.6,0.9,1.5,1.4,2.9,1.4c1.3,0,2.3-0.5,2.8-1.4
			c0.6-0.9,0.9-2.3,0.9-4.1c0-1.8-0.3-3.1-0.9-4s-1.5-1.3-2.9-1.3c-1.3,0-2.3,0.4-2.8,1.3C626.1,82.1,625.9,83.5,625.9,85.3z
			 M626.9,98.8c0-1.6,0.9-2.4,2.7-2.4s2.7,0.8,2.7,2.4c0,0.8-0.2,1.4-0.7,1.8s-1.1,0.6-2,0.6C627.8,101.2,626.9,100.4,626.9,98.8z"
			/>
		<path class="st5" d="M659,94.3h-4.9V83.8c0-1.3-0.2-2.3-0.7-2.9s-1.2-1-2.2-1c-1.4,0-2.4,0.5-3,1.4c-0.6,0.9-0.9,2.4-0.9,4.6v8.5
			h-4.9v-18h3.8l0.7,2.3h0.3c0.5-0.9,1.3-1.5,2.3-2c1-0.4,2.1-0.7,3.3-0.7c2.1,0,3.7,0.6,4.8,1.7c1.1,1.1,1.6,2.8,1.6,4.9V94.3z"/>
		<path class="st5" d="M679.8,94.3c0,2.6-0.8,4.6-2.3,5.9c-1.5,1.3-3.8,2-6.7,2c-2.6,0-4.9-0.4-6.7-1.1v-3.9c2.2,0.9,4.5,1.4,7,1.4
			c2.5,0,3.8-1.4,3.8-4.1v-0.4L675,92h-0.1c-1.1,1.8-2.9,2.7-5.1,2.7c-2.2,0-3.8-0.8-5-2.5s-1.8-3.9-1.8-6.8c0-3,0.6-5.3,1.8-6.9
			c1.2-1.6,2.9-2.5,5.1-2.5c2.2,0,4,0.9,5.2,2.6h0.1l0.4-2.3h4.2V94.3z M671.5,90.8c1.3,0,2.3-0.4,2.8-1.1c0.6-0.8,0.9-2,0.9-3.7
			v-0.6c0-1.9-0.3-3.3-0.9-4.1c-0.6-0.8-1.6-1.3-2.9-1.3c-2.3,0-3.5,1.8-3.5,5.4c0,1.8,0.3,3.2,0.9,4S670.3,90.8,671.5,90.8z"/>
	</g>
</g>
<path class="st12" d="M144.5,52.9h-3.1c-5.7,0-10.3-4.6-10.3-10.3V12.3c0-5.7,4.6-10.3,10.3-10.3h3.1c5.7,0,10.3,4.6,10.3,10.3v30.4
	C154.8,48.3,150.1,52.9,144.5,52.9z"/>
<path class="st12" d="M659.1,52.9H656c-5.7,0-10.3-4.6-10.3-10.3V12.3C645.7,6.6,650.3,2,656,2h3.1c5.7,0,10.3,4.6,10.3,10.3v30.4
	C669.4,48.3,664.8,52.9,659.1,52.9z"/>
<rect x="141.1" y="161.1" class="st8" width="28" height="14.4"/>
<rect x="134.1" y="145" class="st8" width="41.3" height="16.1"/>
<rect x="154.8" y="145" class="st4" width="8.7" height="16.1"/>
<rect x="162.3" y="145" class="st5" width="4.4" height="16.1"/>
</svg>