<!-- Generator: Adobe Illustrator 19.1.0, SVG Export Plug-In  -->
<svg version="1.1"
	 xmlns="http://www.w3.org/2000/svg" xmlns:xlink="http://www.w3.org/1999/xlink" xmlns:a="http://ns.adobe.com/AdobeSVGViewerExtensions/3.0/"
	 x="0px" y="0px" width="527.4px" height="331.8px" viewBox="0 0 527.4 331.8"
	 style="overflow:scroll;enable-background:new 0 0 527.4 331.8;" xml:space="preserve">
<style type="text/css">
	.st0{fill:#086A87;stroke:#086A87;stroke-width:1.7438;stroke-linecap:round;stroke-linejoin:round;stroke-miterlimit:10;}
	.st1{fill:#33CCCC;stroke:#33CCCC;stroke-width:2.9989;stroke-miterlimit:10;}
	.st2{fill:#9D9FA0;}
	.st3{fill:#086A87;stroke:#086A87;stroke-width:0.7602;stroke-linecap:round;stroke-linejoin:round;stroke-miterlimit:10;}
	.st4{fill:#ED6A4A;}
	.st5{fill:none;stroke:#33CCCC;stroke-width:2.3652;stroke-linecap:round;stroke-linejoin:round;stroke-miterlimit:10;}
	.st6{fill:none;stroke:#33CCCC;stroke-width:2.3217;stroke-linecap:round;stroke-linejoin:round;stroke-miterlimit:10;}
	.st7{fill:#086A87;}
</style>
<defs>
</defs>
<rect x="64.4" y="33.8" class="st0" width="51.2" height="251"/>
<rect x="198.4" y="217.1" class="st1" width="51.2" height="67.7"/>
<rect x="265.5" y="217.2" class="st2" width="51.2" height="69.5"/>
<rect x="332.5" y="237.3" class="st3" width="51.2" height="47.7"/>
<rect x="399.5" y="261.2" class="st4" width="51.2" height="24"/>
<rect x="131.4" y="140.3" class="st4" width="51.2" height="146.4"/>
<line class="st5" x1="1.2" y1="286.7" x2="526.2" y2="286.7"/>
<line class="st6" x1="30.9" y1="317.8" x2="30.9" y2="1.2"/>
<g>
	<path class="st7" d="M73.8,304.7c0,1.9-0.5,3.4-1.6,4.4c-1.1,1-2.6,1.5-4.7,1.5h-3.3V299h3.6c1.9,0,3.3,0.5,4.4,1.5
		C73.3,301.5,73.8,302.9,73.8,304.7z M71.2,304.7c0-2.5-1.1-3.7-3.3-3.7h-1.3v7.5h1C70.1,308.5,71.2,307.2,71.2,304.7z"/>
	<path class="st7" d="M82.2,310.5l-0.3-1.1h-0.1c-0.3,0.4-0.6,0.7-1.1,0.9c-0.5,0.2-1,0.3-1.6,0.3c-1,0-1.8-0.3-2.3-0.8
		c-0.5-0.6-0.8-1.4-0.8-2.4v-5.7h2.4v5.2c0,0.6,0.1,1.1,0.3,1.4c0.2,0.3,0.6,0.5,1.1,0.5c0.7,0,1.2-0.2,1.5-0.7
		c0.3-0.4,0.4-1.2,0.4-2.2v-4.1h2.4v0.9c0.4-0.1,0.7-0.4,0.9-0.8c0.2-0.4,0.3-0.9,0.3-1.5h2.4l0.1,0.2c-0.2,0.8-0.4,1.5-0.7,1.9
		c-0.3,0.4-0.7,0.8-1.1,1.1s-1.1,0.5-1.8,0.6v6.4H82.2z"/>
	<path class="st7" d="M96.3,306.1c0,1.4-0.4,2.6-1.1,3.4c-0.8,0.8-1.8,1.2-3.2,1.2c-0.8,0-1.6-0.2-2.2-0.6s-1.1-0.9-1.5-1.6
		c-0.3-0.7-0.5-1.5-0.5-2.4c0-1.4,0.4-2.6,1.1-3.4s1.8-1.2,3.2-1.2c0.6,0,1.1,0.1,1.7,0.3c0.5,0.2,1,0.5,1.3,0.8
		c0.8-0.2,1.2-1,1.2-2.2h2.4l0.1,0.2c-0.1,0.7-0.3,1.3-0.6,1.7s-0.5,0.8-0.9,1c-0.4,0.3-0.8,0.5-1.4,0.6
		C96.1,304.6,96.3,305.3,96.3,306.1z M90.2,306.1c0,0.9,0.1,1.5,0.4,2c0.3,0.4,0.8,0.7,1.4,0.7c0.6,0,1.1-0.2,1.4-0.7s0.4-1.1,0.4-2
		c0-0.9-0.1-1.5-0.4-2s-0.7-0.7-1.4-0.7c-0.6,0-1.1,0.2-1.4,0.7C90.3,304.6,90.2,305.2,90.2,306.1z M90.6,300.7v-0.2
		c0.9-1.1,1.5-1.8,1.9-2.4h2.7v0.2c-0.3,0.3-0.7,0.7-1.4,1.2c-0.7,0.5-1.2,0.9-1.6,1.2H90.6z"/>
	<path class="st7" d="M99.1,299.4c0-0.8,0.4-1.2,1.3-1.2s1.3,0.4,1.3,1.2c0,0.4-0.1,0.7-0.3,0.9c-0.2,0.2-0.5,0.3-1,0.3
		C99.6,300.6,99.1,300.2,99.1,299.4z M101.6,310.5h-2.4v-8.8h2.4V310.5z"/>
	<path class="st7" d="M66.9,331.8v-1.7c-2.2-0.3-3.3-1.9-3.5-3.3l2-0.5c0.1,1,0.8,2,2.3,2c1.1,0,1.7-0.5,1.7-1.2
		c0-0.5-0.4-1-1.2-1.1l-1.5-0.3c-1.7-0.4-2.8-1.5-2.8-3c0-1.7,1.3-3,3.1-3.2v-1.7h1.6v1.8c1.9,0.3,2.7,1.6,2.9,2.7l-2,0.6
		c-0.1-0.6-0.5-1.5-1.8-1.5c-1,0-1.6,0.6-1.6,1.3c0,0.5,0.4,0.9,1.1,1.1l1.5,0.3c2,0.5,3,1.7,3,3.1c0,1.5-1.1,2.9-3,3.2v1.7H66.9z"
		/>
	<path class="st7" d="M79.1,329.9h-2.4v-6.7l0-1.1l0-1.2c-0.4,0.4-0.7,0.7-0.8,0.8l-1.3,1.1l-1.2-1.5l3.7-3h2V329.9z"/>
	<path class="st7" d="M90.3,324.2c0,2-0.3,3.5-1,4.5c-0.7,1-1.7,1.5-3,1.5c-1.3,0-2.3-0.5-3-1.5s-1-2.5-1-4.4c0-2,0.3-3.5,1-4.5
		c0.7-1,1.7-1.4,3-1.4c1.3,0,2.3,0.5,3,1.5C89.9,320.7,90.3,322.2,90.3,324.2z M84.6,324.2c0,1.4,0.1,2.4,0.4,3
		c0.2,0.6,0.7,0.9,1.2,0.9c0.6,0,1-0.3,1.2-0.9c0.3-0.6,0.4-1.6,0.4-3c0-1.4-0.1-2.4-0.4-3c-0.3-0.6-0.7-0.9-1.2-0.9
		c-0.6,0-1,0.3-1.2,0.9C84.8,321.7,84.6,322.7,84.6,324.2z"/>
	<path class="st7" d="M99.5,324.2c0,2-0.3,3.5-1,4.5c-0.7,1-1.7,1.5-3,1.5c-1.3,0-2.3-0.5-3-1.5c-0.7-1-1-2.5-1-4.4
		c0-2,0.3-3.5,1-4.5c0.7-1,1.7-1.4,3-1.4c1.3,0,2.3,0.5,3,1.5C99.2,320.7,99.5,322.2,99.5,324.2z M93.9,324.2c0,1.4,0.1,2.4,0.4,3
		c0.2,0.6,0.7,0.9,1.2,0.9c0.6,0,1-0.3,1.2-0.9s0.4-1.6,0.4-3c0-1.4-0.1-2.4-0.4-3c-0.3-0.6-0.7-0.9-1.2-0.9c-0.6,0-1,0.3-1.2,0.9
		C94,321.7,93.9,322.7,93.9,324.2z"/>
</g>
<g>
	<path class="st7" d="M135.9,312.4v-1.7c-2.2-0.3-3.3-1.9-3.5-3.3l2-0.5c0.1,1,0.8,2,2.3,2c1.1,0,1.7-0.5,1.7-1.2
		c0-0.5-0.4-1-1.2-1.1l-1.5-0.3c-1.7-0.4-2.8-1.5-2.8-3c0-1.7,1.3-3,3.1-3.2v-1.7h1.6v1.8c1.9,0.3,2.7,1.6,2.9,2.7l-2,0.6
		c-0.1-0.6-0.5-1.5-1.8-1.5c-1,0-1.6,0.6-1.6,1.3c0,0.5,0.4,0.9,1.1,1.1l1.5,0.3c2,0.5,3,1.7,3,3.1c0,1.5-1.1,2.9-3,3.2v1.7H135.9z"
		/>
	<path class="st7" d="M148.1,310.5h-2.4v-6.7l0-1.1l0-1.2c-0.4,0.4-0.7,0.7-0.8,0.8l-1.3,1.1l-1.2-1.5l3.7-3h2V310.5z"/>
	<path class="st7" d="M159.3,304.8c0,2-0.3,3.5-1,4.5c-0.7,1-1.7,1.5-3,1.5c-1.3,0-2.3-0.5-3-1.5s-1-2.5-1-4.4c0-2,0.3-3.5,1-4.5
		c0.7-1,1.7-1.4,3-1.4c1.3,0,2.3,0.5,3,1.5C158.9,301.3,159.3,302.8,159.3,304.8z M153.6,304.8c0,1.4,0.1,2.4,0.4,3
		c0.2,0.6,0.7,0.9,1.2,0.9c0.6,0,1-0.3,1.2-0.9s0.4-1.6,0.4-3c0-1.4-0.1-2.4-0.4-3c-0.3-0.6-0.7-0.9-1.2-0.9c-0.6,0-1,0.3-1.2,0.9
		C153.8,302.3,153.6,303.4,153.6,304.8z"/>
	<path class="st7" d="M166.6,310.5h-2.4v-6.7l0-1.1l0-1.2c-0.4,0.4-0.7,0.7-0.8,0.8l-1.3,1.1l-1.2-1.5l3.7-3h2V310.5z"/>
	<path class="st7" d="M169.6,307.2v-2h4.2v2H169.6z"/>
	<path class="st7" d="M135.9,331.8v-1.7c-2.2-0.3-3.3-1.9-3.5-3.3l2-0.5c0.1,1,0.8,2,2.3,2c1.1,0,1.7-0.5,1.7-1.2
		c0-0.5-0.4-1-1.2-1.1l-1.5-0.3c-1.7-0.4-2.8-1.5-2.8-3c0-1.7,1.3-3,3.1-3.2v-1.7h1.6v1.8c1.9,0.3,2.7,1.6,2.9,2.7l-2,0.6
		c-0.1-0.6-0.5-1.5-1.8-1.5c-1,0-1.6,0.6-1.6,1.3c0,0.5,0.4,0.9,1.1,1.1l1.5,0.3c2,0.5,3,1.7,3,3.1c0,1.5-1.1,2.9-3,3.2v1.7H135.9z"
		/>
	<path class="st7" d="M150.1,329.9h-8.1v-1.7l2.9-2.9c0.9-0.9,1.4-1.5,1.7-1.8c0.3-0.3,0.5-0.7,0.6-0.9c0.1-0.3,0.2-0.6,0.2-0.9
		c0-0.5-0.1-0.8-0.4-1s-0.6-0.3-1-0.3c-0.4,0-0.9,0.1-1.3,0.3c-0.4,0.2-0.9,0.5-1.3,0.9l-1.3-1.6c0.6-0.5,1-0.8,1.4-1
		s0.8-0.4,1.2-0.5c0.4-0.1,0.9-0.2,1.5-0.2c0.7,0,1.4,0.1,1.9,0.4c0.6,0.3,1,0.6,1.3,1.1c0.3,0.5,0.5,1,0.5,1.6c0,0.5-0.1,1-0.3,1.5
		s-0.5,0.9-0.9,1.4c-0.4,0.5-1.1,1.2-2.1,2.1l-1.5,1.4v0.1h5V329.9z"/>
	<path class="st7" d="M155.5,322.5c1.1,0,2,0.3,2.7,0.9c0.7,0.6,1,1.5,1,2.6c0,1.3-0.4,2.3-1.2,3c-0.8,0.7-1.9,1-3.4,1
		c-1.3,0-2.3-0.2-3.1-0.6v-2.1c0.4,0.2,0.9,0.4,1.5,0.5c0.6,0.1,1.1,0.2,1.6,0.2c1.5,0,2.2-0.6,2.2-1.8c0-1.2-0.8-1.7-2.3-1.7
		c-0.3,0-0.6,0-0.9,0.1s-0.6,0.1-0.8,0.2l-1-0.5l0.4-5.9h6.3v2.1h-4.1l-0.2,2.3l0.3-0.1C154.6,322.6,155,322.5,155.5,322.5z"/>
	<path class="st7" d="M168.5,324.2c0,2-0.3,3.5-1,4.5c-0.7,1-1.7,1.5-3,1.5c-1.3,0-2.3-0.5-3-1.5c-0.7-1-1-2.5-1-4.4
		c0-2,0.3-3.5,1-4.5c0.7-1,1.7-1.4,3-1.4c1.3,0,2.3,0.5,3,1.5C168.2,320.7,168.5,322.2,168.5,324.2z M162.9,324.2
		c0,1.4,0.1,2.4,0.4,3c0.2,0.6,0.7,0.9,1.2,0.9c0.6,0,1-0.3,1.2-0.9s0.4-1.6,0.4-3c0-1.4-0.1-2.4-0.4-3c-0.3-0.6-0.7-0.9-1.2-0.9
		c-0.6,0-1,0.3-1.2,0.9C163,321.7,162.9,322.7,162.9,324.2z"/>
</g>
<g>
	<path class="st7" d="M203.9,312.4v-1.7c-2.2-0.3-3.3-1.9-3.5-3.3l2-0.5c0.1,1,0.8,2,2.3,2c1.1,0,1.7-0.5,1.7-1.2
		c0-0.5-0.4-1-1.2-1.1l-1.5-0.3c-1.7-0.4-2.8-1.5-2.8-3c0-1.7,1.3-3,3.1-3.2v-1.7h1.6v1.8c1.9,0.3,2.7,1.6,2.9,2.7l-2,0.6
		c-0.1-0.6-0.5-1.5-1.8-1.5c-1,0-1.6,0.6-1.6,1.3c0,0.5,0.4,0.9,1.1,1.1l1.5,0.3c2,0.5,3,1.7,3,3.1c0,1.5-1.1,2.9-3,3.2v1.7H203.9z"
		/>
	<path class="st7" d="M218.1,310.5H210v-1.7l2.9-2.9c0.9-0.9,1.4-1.5,1.7-1.8c0.3-0.3,0.5-0.7,0.6-0.9c0.1-0.3,0.2-0.6,0.2-0.9
		c0-0.5-0.1-0.8-0.4-1c-0.3-0.2-0.6-0.3-1-0.3c-0.4,0-0.9,0.1-1.3,0.3c-0.4,0.2-0.9,0.5-1.3,0.9l-1.3-1.6c0.6-0.5,1-0.8,1.4-1
		c0.4-0.2,0.8-0.4,1.2-0.5c0.4-0.1,0.9-0.2,1.5-0.2c0.7,0,1.4,0.1,1.9,0.4c0.6,0.3,1,0.6,1.3,1.1c0.3,0.5,0.5,1,0.5,1.6
		c0,0.5-0.1,1-0.3,1.5s-0.5,0.9-0.9,1.4c-0.4,0.5-1.1,1.2-2.1,2.1l-1.5,1.4v0.1h5V310.5z"/>
	<path class="st7" d="M223.5,303.2c1.1,0,2,0.3,2.7,0.9c0.7,0.6,1,1.5,1,2.6c0,1.3-0.4,2.3-1.2,3c-0.8,0.7-1.9,1-3.4,1
		c-1.3,0-2.3-0.2-3.1-0.6V308c0.4,0.2,0.9,0.4,1.5,0.5c0.6,0.1,1.1,0.2,1.6,0.2c1.5,0,2.2-0.6,2.2-1.8c0-1.2-0.8-1.7-2.3-1.7
		c-0.3,0-0.6,0-0.9,0.1c-0.3,0.1-0.6,0.1-0.8,0.2l-1-0.5l0.4-5.9h6.3v2.1h-4.1l-0.2,2.3l0.3-0.1C222.6,303.2,223,303.2,223.5,303.2z
		"/>
	<path class="st7" d="M234.5,310.5h-2.4v-6.7l0-1.1l0-1.2c-0.4,0.4-0.7,0.7-0.8,0.8l-1.3,1.1l-1.2-1.5l3.7-3h2V310.5z"/>
	<path class="st7" d="M237.6,307.2v-2h4.2v2H237.6z"/>
	<path class="st7" d="M203.9,331.8v-1.7c-2.2-0.3-3.3-1.9-3.5-3.3l2-0.5c0.1,1,0.8,2,2.3,2c1.1,0,1.7-0.5,1.7-1.2
		c0-0.5-0.4-1-1.2-1.1l-1.5-0.3c-1.7-0.4-2.8-1.5-2.8-3c0-1.7,1.3-3,3.1-3.2v-1.7h1.6v1.8c1.9,0.3,2.7,1.6,2.9,2.7l-2,0.6
		c-0.1-0.6-0.5-1.5-1.8-1.5c-1,0-1.6,0.6-1.6,1.3c0,0.5,0.4,0.9,1.1,1.1l1.5,0.3c2,0.5,3,1.7,3,3.1c0,1.5-1.1,2.9-3,3.2v1.7H203.9z"
		/>
	<path class="st7" d="M217.7,321c0,0.7-0.2,1.3-0.7,1.8s-1,0.9-1.8,1v0c0.9,0.1,1.6,0.4,2.1,0.8c0.5,0.4,0.7,1.1,0.7,1.8
		c0,1.1-0.4,2-1.2,2.6c-0.8,0.6-2,0.9-3.4,0.9c-1.3,0-2.4-0.2-3.3-0.6v-2.1c0.4,0.2,0.9,0.4,1.5,0.6c0.5,0.1,1.1,0.2,1.6,0.2
		c0.8,0,1.4-0.1,1.8-0.4s0.6-0.7,0.6-1.3c0-0.5-0.2-0.9-0.7-1.2s-1.1-0.3-2.1-0.3h-0.9v-1.9h0.9c0.9,0,1.5-0.1,2-0.4
		c0.4-0.2,0.6-0.6,0.6-1.2c0-0.9-0.5-1.3-1.6-1.3c-0.4,0-0.8,0.1-1.2,0.2c-0.4,0.1-0.8,0.3-1.3,0.7l-1.1-1.7
		c1.1-0.8,2.3-1.1,3.8-1.1c1.2,0,2.1,0.2,2.8,0.7C217.3,319.4,217.7,320.1,217.7,321z"/>
	<path class="st7" d="M223.5,322.5c1.1,0,2,0.3,2.7,0.9c0.7,0.6,1,1.5,1,2.6c0,1.3-0.4,2.3-1.2,3c-0.8,0.7-1.9,1-3.4,1
		c-1.3,0-2.3-0.2-3.1-0.6v-2.1c0.4,0.2,0.9,0.4,1.5,0.5c0.6,0.1,1.1,0.2,1.6,0.2c1.5,0,2.2-0.6,2.2-1.8c0-1.2-0.8-1.7-2.3-1.7
		c-0.3,0-0.6,0-0.9,0.1c-0.3,0.1-0.6,0.1-0.8,0.2l-1-0.5l0.4-5.9h6.3v2.1h-4.1l-0.2,2.3l0.3-0.1C222.6,322.6,223,322.5,223.5,322.5z
		"/>
	<path class="st7" d="M236.5,324.2c0,2-0.3,3.5-1,4.5s-1.7,1.5-3,1.5c-1.3,0-2.3-0.5-3-1.5s-1-2.5-1-4.4c0-2,0.3-3.5,1-4.5
		c0.7-1,1.7-1.4,3-1.4c1.3,0,2.3,0.5,3,1.5C236.2,320.7,236.5,322.2,236.5,324.2z M230.9,324.2c0,1.4,0.1,2.4,0.4,3
		c0.2,0.6,0.7,0.9,1.2,0.9c0.6,0,1-0.3,1.2-0.9s0.4-1.6,0.4-3c0-1.4-0.1-2.4-0.4-3c-0.3-0.6-0.7-0.9-1.2-0.9c-0.6,0-1,0.3-1.2,0.9
		C231,321.7,230.9,322.7,230.9,324.2z"/>
</g>
<g>
	<path class="st7" d="M272.9,312.4v-1.7c-2.2-0.3-3.3-1.9-3.5-3.3l2-0.5c0.1,1,0.8,2,2.3,2c1.1,0,1.7-0.5,1.7-1.2
		c0-0.5-0.4-1-1.2-1.1l-1.5-0.3c-1.7-0.4-2.8-1.5-2.8-3c0-1.7,1.3-3,3.1-3.2v-1.7h1.6v1.8c1.9,0.3,2.7,1.6,2.9,2.7l-2,0.6
		c-0.1-0.6-0.5-1.5-1.8-1.5c-1,0-1.6,0.6-1.6,1.3c0,0.5,0.4,0.9,1.1,1.1l1.5,0.3c2,0.5,3,1.7,3,3.1c0,1.5-1.1,2.9-3,3.2v1.7H272.9z"
		/>
	<path class="st7" d="M286.6,301.6c0,0.7-0.2,1.3-0.7,1.8s-1,0.9-1.8,1v0c0.9,0.1,1.6,0.4,2.1,0.8c0.5,0.4,0.7,1.1,0.7,1.8
		c0,1.1-0.4,2-1.2,2.6c-0.8,0.6-2,0.9-3.4,0.9c-1.3,0-2.4-0.2-3.3-0.6V308c0.4,0.2,0.9,0.4,1.5,0.6c0.5,0.1,1.1,0.2,1.6,0.2
		c0.8,0,1.4-0.1,1.8-0.4s0.6-0.7,0.6-1.3c0-0.5-0.2-0.9-0.7-1.2c-0.4-0.2-1.1-0.3-2.1-0.3h-0.9v-1.9h0.9c0.9,0,1.5-0.1,2-0.4
		s0.6-0.6,0.6-1.2c0-0.9-0.5-1.3-1.6-1.3c-0.4,0-0.8,0.1-1.2,0.2c-0.4,0.1-0.8,0.3-1.3,0.7L279,300c1.1-0.8,2.3-1.1,3.8-1.1
		c1.2,0,2.1,0.2,2.8,0.7C286.3,300,286.6,300.7,286.6,301.6z"/>
	<path class="st7" d="M292.5,303.2c1.1,0,2,0.3,2.7,0.9c0.7,0.6,1,1.5,1,2.6c0,1.3-0.4,2.3-1.2,3c-0.8,0.7-1.9,1-3.4,1
		c-1.3,0-2.3-0.2-3.1-0.6V308c0.4,0.2,0.9,0.4,1.5,0.5c0.6,0.1,1.1,0.2,1.6,0.2c1.5,0,2.2-0.6,2.2-1.8c0-1.2-0.8-1.7-2.3-1.7
		c-0.3,0-0.6,0-0.9,0.1s-0.6,0.1-0.8,0.2l-1-0.5l0.4-5.9h6.3v2.1h-4.1l-0.2,2.3l0.3-0.1C291.6,303.2,292,303.2,292.5,303.2z"/>
	<path class="st7" d="M303.5,310.5h-2.4v-6.7l0-1.1l0-1.2c-0.4,0.4-0.7,0.7-0.8,0.8l-1.3,1.1l-1.2-1.5l3.7-3h2V310.5z"/>
	<path class="st7" d="M306.6,307.2v-2h4.2v2H306.6z"/>
	<path class="st7" d="M272.9,331.8v-1.7c-2.2-0.3-3.3-1.9-3.5-3.3l2-0.5c0.1,1,0.8,2,2.3,2c1.1,0,1.7-0.5,1.7-1.2
		c0-0.5-0.4-1-1.2-1.1l-1.5-0.3c-1.7-0.4-2.8-1.5-2.8-3c0-1.7,1.3-3,3.1-3.2v-1.7h1.6v1.8c1.9,0.3,2.7,1.6,2.9,2.7l-2,0.6
		c-0.1-0.6-0.5-1.5-1.8-1.5c-1,0-1.6,0.6-1.6,1.3c0,0.5,0.4,0.9,1.1,1.1l1.5,0.3c2,0.5,3,1.7,3,3.1c0,1.5-1.1,2.9-3,3.2v1.7H272.9z"
		/>
	<path class="st7" d="M283.2,322.5c1.1,0,2,0.3,2.7,0.9c0.7,0.6,1,1.5,1,2.6c0,1.3-0.4,2.3-1.2,3c-0.8,0.7-1.9,1-3.4,1
		c-1.3,0-2.3-0.2-3.1-0.6v-2.1c0.4,0.2,0.9,0.4,1.5,0.5c0.6,0.1,1.1,0.2,1.6,0.2c1.5,0,2.2-0.6,2.2-1.8c0-1.2-0.8-1.7-2.3-1.7
		c-0.3,0-0.6,0-0.9,0.1s-0.6,0.1-0.8,0.2l-1-0.5l0.4-5.9h6.3v2.1H282l-0.2,2.3l0.3-0.1C282.4,322.6,282.8,322.5,283.2,322.5z"/>
	<path class="st7" d="M296.3,324.2c0,2-0.3,3.5-1,4.5c-0.7,1-1.7,1.5-3,1.5c-1.3,0-2.3-0.5-3-1.5c-0.7-1-1-2.5-1-4.4
		c0-2,0.3-3.5,1-4.5c0.7-1,1.7-1.4,3-1.4c1.3,0,2.3,0.5,3,1.5C295.9,320.7,296.3,322.2,296.3,324.2z M290.6,324.2
		c0,1.4,0.1,2.4,0.4,3c0.2,0.6,0.7,0.9,1.2,0.9c0.6,0,1-0.3,1.2-0.9s0.4-1.6,0.4-3c0-1.4-0.1-2.4-0.4-3c-0.3-0.6-0.7-0.9-1.2-0.9
		c-0.6,0-1,0.3-1.2,0.9C290.8,321.7,290.6,322.7,290.6,324.2z"/>
	<path class="st7" d="M305.5,324.2c0,2-0.3,3.5-1,4.5c-0.7,1-1.7,1.5-3,1.5c-1.3,0-2.3-0.5-3-1.5s-1-2.5-1-4.4c0-2,0.3-3.5,1-4.5
		c0.7-1,1.7-1.4,3-1.4c1.3,0,2.3,0.5,3,1.5C305.2,320.7,305.5,322.2,305.5,324.2z M299.9,324.2c0,1.4,0.1,2.4,0.4,3
		c0.2,0.6,0.7,0.9,1.2,0.9c0.6,0,1-0.3,1.2-0.9s0.4-1.6,0.4-3c0-1.4-0.1-2.4-0.4-3c-0.3-0.6-0.7-0.9-1.2-0.9c-0.6,0-1,0.3-1.2,0.9
		C300,321.7,299.9,322.7,299.9,324.2z"/>
</g>
<g>
	<path class="st7" d="M339.9,312.4v-1.7c-2.2-0.3-3.3-1.9-3.5-3.3l2-0.5c0.1,1,0.8,2,2.3,2c1.1,0,1.7-0.5,1.7-1.2
		c0-0.5-0.4-1-1.2-1.1l-1.5-0.3c-1.7-0.4-2.8-1.5-2.8-3c0-1.7,1.3-3,3.1-3.2v-1.7h1.6v1.8c1.9,0.3,2.7,1.6,2.9,2.7l-2,0.6
		c-0.1-0.6-0.5-1.5-1.8-1.5c-1,0-1.6,0.6-1.6,1.3c0,0.5,0.4,0.9,1.1,1.1l1.5,0.3c2,0.5,3,1.7,3,3.1c0,1.5-1.1,2.9-3,3.2v1.7H339.9z"
		/>
	<path class="st7" d="M350.2,303.2c1.1,0,2,0.3,2.7,0.9c0.7,0.6,1,1.5,1,2.6c0,1.3-0.4,2.3-1.2,3c-0.8,0.7-1.9,1-3.4,1
		c-1.3,0-2.3-0.2-3.1-0.6V308c0.4,0.2,0.9,0.4,1.5,0.5c0.6,0.1,1.1,0.2,1.6,0.2c1.5,0,2.2-0.6,2.2-1.8c0-1.2-0.8-1.7-2.3-1.7
		c-0.3,0-0.6,0-0.9,0.1s-0.6,0.1-0.8,0.2l-1-0.5l0.4-5.9h6.3v2.1H349l-0.2,2.3l0.3-0.1C349.4,303.2,349.7,303.2,350.2,303.2z"/>
	<path class="st7" d="M363.3,304.8c0,2-0.3,3.5-1,4.5c-0.7,1-1.7,1.5-3,1.5c-1.3,0-2.3-0.5-3-1.5c-0.7-1-1-2.5-1-4.4
		c0-2,0.3-3.5,1-4.5c0.7-1,1.7-1.4,3-1.4c1.3,0,2.3,0.5,3,1.5C362.9,301.3,363.3,302.8,363.3,304.8z M357.6,304.8
		c0,1.4,0.1,2.4,0.4,3c0.2,0.6,0.7,0.9,1.2,0.9c0.6,0,1-0.3,1.2-0.9s0.4-1.6,0.4-3c0-1.4-0.1-2.4-0.4-3c-0.3-0.6-0.7-0.9-1.2-0.9
		c-0.6,0-1,0.3-1.2,0.9C357.7,302.3,357.6,303.4,357.6,304.8z"/>
	<path class="st7" d="M370.5,310.5h-2.4v-6.7l0-1.1l0-1.2c-0.4,0.4-0.7,0.7-0.8,0.8l-1.3,1.1l-1.2-1.5l3.7-3h2V310.5z"/>
	<path class="st7" d="M373.6,307.2v-2h4.2v2H373.6z"/>
	<path class="st7" d="M339.9,331.8v-1.7c-2.2-0.3-3.3-1.9-3.5-3.3l2-0.5c0.1,1,0.8,2,2.3,2c1.1,0,1.7-0.5,1.7-1.2
		c0-0.5-0.4-1-1.2-1.1l-1.5-0.3c-1.7-0.4-2.8-1.5-2.8-3c0-1.7,1.3-3,3.1-3.2v-1.7h1.6v1.8c1.9,0.3,2.7,1.6,2.9,2.7l-2,0.6
		c-0.1-0.6-0.5-1.5-1.8-1.5c-1,0-1.6,0.6-1.6,1.3c0,0.5,0.4,0.9,1.1,1.1l1.5,0.3c2,0.5,3,1.7,3,3.1c0,1.5-1.1,2.9-3,3.2v1.7H339.9z"
		/>
	<path class="st7" d="M352.1,329.9h-2.4v-6.7l0-1.1l0-1.2c-0.4,0.4-0.7,0.7-0.8,0.8l-1.3,1.1l-1.2-1.5l3.7-3h2V329.9z"/>
	<path class="st7" d="M363.3,324.2c0,2-0.3,3.5-1,4.5c-0.7,1-1.7,1.5-3,1.5c-1.3,0-2.3-0.5-3-1.5c-0.7-1-1-2.5-1-4.4
		c0-2,0.3-3.5,1-4.5c0.7-1,1.7-1.4,3-1.4c1.3,0,2.3,0.5,3,1.5C362.9,320.7,363.3,322.2,363.3,324.2z M357.6,324.2
		c0,1.4,0.1,2.4,0.4,3c0.2,0.6,0.7,0.9,1.2,0.9c0.6,0,1-0.3,1.2-0.9s0.4-1.6,0.4-3c0-1.4-0.1-2.4-0.4-3c-0.3-0.6-0.7-0.9-1.2-0.9
		c-0.6,0-1,0.3-1.2,0.9C357.7,321.7,357.6,322.7,357.6,324.2z"/>
	<path class="st7" d="M372.5,324.2c0,2-0.3,3.5-1,4.5c-0.7,1-1.7,1.5-3,1.5c-1.3,0-2.3-0.5-3-1.5s-1-2.5-1-4.4c0-2,0.3-3.5,1-4.5
		c0.7-1,1.7-1.4,3-1.4c1.3,0,2.3,0.5,3,1.5C372.2,320.7,372.5,322.2,372.5,324.2z M366.9,324.2c0,1.4,0.1,2.4,0.4,3
		c0.2,0.6,0.7,0.9,1.2,0.9c0.6,0,1-0.3,1.2-0.9s0.4-1.6,0.4-3c0-1.4-0.1-2.4-0.4-3c-0.3-0.6-0.7-0.9-1.2-0.9c-0.6,0-1,0.3-1.2,0.9
		C367,321.7,366.9,322.7,366.9,324.2z"/>
	<path class="st7" d="M381.7,324.2c0,2-0.3,3.5-1,4.5c-0.7,1-1.7,1.5-3,1.5c-1.3,0-2.3-0.5-3-1.5c-0.7-1-1-2.5-1-4.4
		c0-2,0.3-3.5,1-4.5c0.7-1,1.7-1.4,3-1.4c1.3,0,2.3,0.5,3,1.5C381.4,320.7,381.7,322.2,381.7,324.2z M376.1,324.2
		c0,1.4,0.1,2.4,0.4,3c0.2,0.6,0.7,0.9,1.2,0.9c0.6,0,1-0.3,1.2-0.9s0.4-1.6,0.4-3c0-1.4-0.1-2.4-0.4-3c-0.3-0.6-0.7-0.9-1.2-0.9
		c-0.6,0-1,0.3-1.2,0.9C376.2,321.7,376.1,322.7,376.1,324.2z"/>
</g>
<g>
	<path class="st7" d="M408.6,310.5h-2.4V301h-3.1v-2h8.7v2h-3.1V310.5z"/>
	<path class="st7" d="M417.9,301.5c0.3,0,0.6,0,0.8,0.1l-0.2,2.3c-0.2-0.1-0.4-0.1-0.7-0.1c-0.8,0-1.4,0.2-1.8,0.6s-0.6,0.9-0.6,1.7
		v4.5H413v-8.8h1.8l0.4,1.5h0.1c0.3-0.5,0.6-0.9,1.1-1.2S417.3,301.5,417.9,301.5z"/>
	<path class="st7" d="M424.1,310.7c-1.4,0-2.5-0.4-3.3-1.2c-0.8-0.8-1.2-1.9-1.2-3.3c0-1.5,0.4-2.6,1.1-3.4c0.7-0.8,1.8-1.2,3.1-1.2
		c1.2,0,2.2,0.4,2.9,1.1s1,1.7,1,2.9v1.2H422c0,0.7,0.2,1.2,0.6,1.6c0.4,0.4,0.9,0.6,1.6,0.6c0.5,0,1-0.1,1.5-0.2
		c0.5-0.1,1-0.3,1.5-0.5v1.9c-0.4,0.2-0.9,0.4-1.3,0.5S424.8,310.7,424.1,310.7z M425.7,300.7c-0.8-0.5-1.4-1-1.8-1.4
		c-0.4,0.4-1,0.9-1.8,1.4h-1.6v-0.2c1-1,1.7-1.8,2-2.4h2.8c0.2,0.3,0.4,0.6,0.8,1.1c0.4,0.5,0.8,0.9,1.2,1.3v0.2H425.7z
		 M423.8,303.3c-0.5,0-0.9,0.2-1.2,0.5s-0.5,0.8-0.5,1.4h3.4c0-0.6-0.2-1.1-0.5-1.4C424.7,303.4,424.3,303.3,423.8,303.3z"/>
	<path class="st7" d="M437.8,310.5h-2.4v-5.2c0-0.6-0.1-1.1-0.3-1.4s-0.6-0.5-1.1-0.5c-0.7,0-1.2,0.2-1.5,0.7
		c-0.3,0.4-0.4,1.2-0.4,2.2v4.1h-2.4v-8.8h1.8l0.3,1.1h0.1c0.3-0.4,0.6-0.7,1.1-1c0.5-0.2,1-0.3,1.6-0.3c1,0,1.8,0.3,2.3,0.8
		c0.5,0.6,0.8,1.4,0.8,2.4V310.5z"/>
	<path class="st7" d="M406.9,331.8v-1.7c-2.2-0.3-3.3-1.9-3.5-3.3l2-0.5c0.1,1,0.8,2,2.3,2c1,0,1.7-0.5,1.7-1.2c0-0.5-0.4-1-1.2-1.1
		l-1.5-0.3c-1.7-0.4-2.8-1.5-2.8-3c0-1.7,1.3-3,3.1-3.2v-1.7h1.6v1.8c1.9,0.3,2.7,1.6,2.9,2.7l-2,0.6c-0.1-0.6-0.5-1.5-1.8-1.5
		c-1,0-1.6,0.6-1.6,1.3c0,0.5,0.4,0.9,1.1,1.1l1.5,0.3c2,0.5,3,1.7,3,3.1c0,1.5-1.1,2.9-3,3.2v1.7H406.9z"/>
	<path class="st7" d="M419,329.9h-2.4v-6.7l0-1.1l0-1.2c-0.4,0.4-0.7,0.7-0.8,0.8l-1.3,1.1l-1.2-1.5l3.7-3h2V329.9z"/>
	<path class="st7" d="M430.2,324.2c0,2-0.3,3.5-1,4.5c-0.7,1-1.7,1.5-3,1.5c-1.3,0-2.3-0.5-3-1.5c-0.7-1-1-2.5-1-4.4
		c0-2,0.3-3.5,1-4.5c0.7-1,1.7-1.4,3-1.4c1.3,0,2.3,0.5,3,1.5C429.9,320.7,430.2,322.2,430.2,324.2z M424.6,324.2
		c0,1.4,0.1,2.4,0.4,3c0.2,0.6,0.7,0.9,1.2,0.9c0.6,0,1-0.3,1.2-0.9c0.3-0.6,0.4-1.6,0.4-3c0-1.4-0.1-2.4-0.4-3s-0.7-0.9-1.2-0.9
		c-0.6,0-1,0.3-1.2,0.9S424.6,322.7,424.6,324.2z"/>
	<path class="st7" d="M439.5,324.2c0,2-0.3,3.5-1,4.5c-0.7,1-1.7,1.5-3,1.5c-1.3,0-2.3-0.5-3-1.5c-0.7-1-1-2.5-1-4.4
		c0-2,0.3-3.5,1-4.5s1.7-1.4,3-1.4c1.3,0,2.3,0.5,3,1.5C439.1,320.7,439.5,322.2,439.5,324.2z M433.8,324.2c0,1.4,0.1,2.4,0.4,3
		c0.2,0.6,0.7,0.9,1.2,0.9c0.6,0,1-0.3,1.2-0.9c0.3-0.6,0.4-1.6,0.4-3c0-1.4-0.1-2.4-0.4-3c-0.3-0.6-0.7-0.9-1.2-0.9
		c-0.6,0-1,0.3-1.2,0.9S433.8,322.7,433.8,324.2z"/>
	<path class="st7" d="M448.7,324.2c0,2-0.3,3.5-1,4.5c-0.7,1-1.7,1.5-3,1.5c-1.3,0-2.3-0.5-3-1.5s-1-2.5-1-4.4c0-2,0.3-3.5,1-4.5
		s1.7-1.4,3-1.4c1.3,0,2.3,0.5,3,1.5C448.4,320.7,448.7,322.2,448.7,324.2z M443.1,324.2c0,1.4,0.1,2.4,0.4,3
		c0.2,0.6,0.7,0.9,1.2,0.9c0.6,0,1-0.3,1.2-0.9c0.3-0.6,0.4-1.6,0.4-3c0-1.4-0.1-2.4-0.4-3c-0.3-0.6-0.7-0.9-1.2-0.9
		c-0.6,0-1,0.3-1.2,0.9S443.1,322.7,443.1,324.2z"/>
</g>
</svg>