<!-- Generator: Adobe Illustrator 19.1.0, SVG Export Plug-In  -->
<svg version="1.1"
	 xmlns="http://www.w3.org/2000/svg" xmlns:xlink="http://www.w3.org/1999/xlink" xmlns:a="http://ns.adobe.com/AdobeSVGViewerExtensions/3.0/"
	 x="0px" y="0px" width="206.8px" height="218.1px" viewBox="0 0 206.8 218.1"
	 style="overflow:scroll;enable-background:new 0 0 206.8 218.1;" xml:space="preserve">
<style type="text/css">
	.st0{fill:#33CCCC;stroke:#33CCCC;stroke-width:2.9989;stroke-miterlimit:10;}
	.st1{fill:#FFFFFF;}
</style>
<defs>
</defs>
<g>
	<path class="st0" d="M195.6,1.5H11.2c-5.3,0-9.7,4.4-9.7,9.8v148.4v15.4v39.8L37,184.8h158.5c5.3,0,9.7-4.4,9.7-9.8V11.3
		C205.3,5.9,200.9,1.5,195.6,1.5"/>
	<g>
		<g>
			<path class="st1" d="M38,107.3c0-12.6,4.9-18.9,14.7-18.9c1.7,0,3,0.1,4,0.4v3.4c-1.1-0.4-2.4-0.5-3.9-0.5c-3.4,0-6,1-7.9,3.1
				c-1.8,2.1-2.8,5.4-3,9.9h0.3c1.6-2.5,4.2-3.8,7.6-3.8c2.9,0,5.2,0.9,6.9,2.6c1.7,1.8,2.5,4.1,2.5,7.1c0,3.3-0.9,6-2.8,7.9
				c-1.8,1.9-4.3,2.9-7.5,2.9c-2.2,0-4.1-0.6-5.8-1.7c-1.7-1.1-2.9-2.8-3.8-4.9C38.4,112.8,38,110.2,38,107.3z M48.9,118.2
				c2,0,3.6-0.7,4.7-2c1.1-1.3,1.7-3.2,1.7-5.5c0-2.1-0.5-3.8-1.6-4.9c-1.1-1.2-2.6-1.7-4.6-1.7c-1.3,0-2.5,0.3-3.5,0.8
				c-1.1,0.5-1.9,1.3-2.6,2.2c-0.6,0.9-1,1.9-1,2.9c0,1.5,0.3,2.8,0.9,4.1c0.6,1.3,1.4,2.3,2.4,3C46.4,117.8,47.6,118.2,48.9,118.2z
				"/>
			<path class="st1" d="M84.9,104.9c0,5.6-0.9,9.8-2.7,12.5c-1.8,2.7-4.5,4.1-8.1,4.1c-3.5,0-6.1-1.4-8-4.2
				c-1.8-2.8-2.7-6.9-2.7-12.4c0-5.6,0.9-9.8,2.6-12.5c1.7-2.7,4.4-4.1,8.1-4.1c3.5,0,6.2,1.4,8,4.2C84,95.4,84.9,99.5,84.9,104.9z
				 M67.5,104.9c0,4.7,0.5,8,1.6,10.1c1.1,2.1,2.8,3.1,5.1,3.1c2.4,0,4.1-1.1,5.1-3.2c1.1-2.1,1.6-5.5,1.6-10c0-4.5-0.5-7.9-1.6-10
				c-1.1-2.1-2.8-3.2-5.1-3.2c-2.4,0-4.1,1-5.1,3.1C68,96.9,67.5,100.3,67.5,104.9z"/>
			<path class="st1" d="M102.7,98.4c0,3.4-0.6,5.9-1.7,7.6c-1.2,1.7-2.8,2.6-5.1,2.6c-2.1,0-3.7-0.9-4.9-2.6
				c-1.2-1.8-1.7-4.3-1.7-7.5c0-3.4,0.6-5.9,1.7-7.6c1.1-1.7,2.8-2.5,4.9-2.5c2.2,0,3.8,0.9,5,2.6C102.1,92.7,102.7,95.2,102.7,98.4
				z M92.6,98.4c0,2.4,0.3,4.3,0.8,5.5c0.5,1.2,1.4,1.8,2.5,1.8c2.3,0,3.5-2.4,3.5-7.3c0-4.8-1.2-7.3-3.5-7.3c-1.1,0-2,0.6-2.5,1.8
				S92.6,96,92.6,98.4z M116.5,88.8l-17.9,32.2h-3.5l17.9-32.2H116.5z M122.4,111.4c0,3.3-0.6,5.9-1.7,7.6s-2.8,2.6-5,2.6
				c-2.1,0-3.7-0.9-4.9-2.6c-1.2-1.8-1.7-4.3-1.7-7.5c0-3.4,0.6-5.9,1.7-7.6c1.1-1.7,2.8-2.5,4.9-2.5c2.2,0,3.8,0.9,5,2.6
				C121.8,105.6,122.4,108.1,122.4,111.4z M112.4,111.4c0,2.5,0.3,4.3,0.8,5.5c0.5,1.2,1.4,1.8,2.5,1.8c1.2,0,2.1-0.6,2.6-1.8
				c0.6-1.2,0.8-3,0.8-5.5c0-4.8-1.2-7.2-3.5-7.2c-1.1,0-2,0.6-2.5,1.8C112.6,107.1,112.4,108.9,112.4,111.4z"/>
		</g>
	</g>
	<g>
		<path class="st1" d="M31,62.6V25.1h7.3v30.6h16.7v7H31z"/>
		<path class="st1" d="M85.6,49.6c0,8-5.9,13.8-13.7,13.8s-13.7-5.8-13.7-13.8c0-8.1,5.9-13.8,13.7-13.8S85.6,41.6,85.6,49.6z
			 M78.5,49.6c0-4.9-3.2-7.4-6.6-7.4c-3.4,0-6.6,2.5-6.6,7.4c0,4.9,3.2,7.4,6.6,7.4C75.4,57,78.5,54.5,78.5,49.6z"/>
		<path class="st1" d="M106,47.5l10.7,15.1H108l-6.9-10l-2.9,3.1v6.9h-7V24.3h7v22l9-9.7h9.2L106,47.5z"/>
		<path class="st1" d="M126.3,47.6l6.4-1c1.5-0.2,2-1,2-1.9c0-1.9-1.4-3.4-4.4-3.4c-3.1,0-4.8,2-5,4.2l-6.3-1.3
			c0.4-4.1,4.2-8.6,11.2-8.6c8.3,0,11.3,4.7,11.3,9.9v12.8c0,1.4,0.2,3.2,0.3,4.1h-6.5c-0.2-0.7-0.3-2.1-0.3-3.1
			c-1.3,2.1-3.8,3.9-7.7,3.9c-5.6,0-9-3.8-9-7.8C118.5,50.9,122,48.3,126.3,47.6z M134.7,52.1v-1.2l-5.9,0.9
			c-1.8,0.3-3.2,1.3-3.2,3.3c0,1.5,1.1,3,3.4,3C132,58.1,134.7,56.7,134.7,52.1z"/>
		<path class="st1" d="M148.7,62.6V24.3h7v38.4H148.7z"/>
	</g>
</g>
</svg>