<!-- Generator: Adobe Illustrator 19.0.0, SVG Export Plug-In  -->
<svg version="1.1"
	 xmlns="http://www.w3.org/2000/svg" xmlns:xlink="http://www.w3.org/1999/xlink" xmlns:a="http://ns.adobe.com/AdobeSVGViewerExtensions/3.0/"
	 x="0px" y="0px" width="803px" height="603px" viewBox="0 0 803 603" style="enable-background:new 0 0 803 603;"
	 xml:space="preserve">
<style type="text/css">
	.st0{fill:#118E9B;stroke:#16113F;stroke-width:3;stroke-miterlimit:10;}
	.st1{fill:#FFFFFF;}
	.st2{fill:none;stroke:#15103F;stroke-width:3;stroke-miterlimit:10;}
	.st3{fill:#E0E0E0;stroke:#15103F;stroke-width:3;stroke-miterlimit:10;}
</style>
<defs>
</defs>
<rect x="1.5" y="1.5" class="st0" width="800" height="600"/>
<g>
	<path class="st1" d="M282.1,84.9l8-15.8h8.7l-12.7,23.4v14.9H278V92.8l-12.7-23.6h8.8L282.1,84.9z"/>
	<path class="st1" d="M328.3,92.7c0,4.8-1.3,8.5-3.8,11.2s-6,4-10.5,4c-2.8,0-5.3-0.6-7.4-1.8c-2.1-1.2-3.8-3-4.9-5.3
		c-1.2-2.3-1.7-5-1.7-8.1c0-4.8,1.2-8.5,3.7-11.2c2.5-2.7,6-4,10.5-4c2.8,0,5.3,0.6,7.4,1.8s3.8,3,4.9,5.3
		C327.7,87,328.3,89.6,328.3,92.7z M308,92.7c0,2.9,0.5,5.1,1.4,6.6c1,1.5,2.5,2.2,4.6,2.2c2.1,0,3.7-0.7,4.6-2.2
		c0.9-1.5,1.4-3.7,1.4-6.6c0-2.9-0.5-5.1-1.4-6.5c-0.9-1.4-2.5-2.2-4.6-2.2c-2.1,0-3.7,0.7-4.6,2.2S308,89.8,308,92.7z"/>
	<path class="st1" d="M355.6,107.4l-1.1-3.7h-0.4c-0.9,1.4-2.1,2.4-3.6,3.2c-1.6,0.7-3.4,1.1-5.4,1.1c-3.4,0-6-0.9-7.8-2.8
		c-1.7-1.8-2.6-4.5-2.6-7.9V78.1h8v17.1c0,2.1,0.4,3.7,1.1,4.8c0.8,1.1,1.9,1.6,3.6,1.6c2.2,0,3.8-0.7,4.8-2.2c1-1.5,1.5-4,1.5-7.4
		V78.1h8v29.3H355.6z"/>
	<path class="st1" d="M386.5,77.6c1.1,0,2,0.1,2.7,0.2l-0.6,7.5c-0.6-0.2-1.4-0.3-2.4-0.3c-2.5,0-4.5,0.7-6,2
		c-1.4,1.3-2.1,3.1-2.1,5.5v14.9h-8V78.1h6l1.2,4.9h0.4c0.9-1.6,2.1-3,3.7-4C383,78.1,384.7,77.6,386.5,77.6z"/>
	<path class="st1" d="M433.1,107.4h-26.8v-5.6l9.6-9.7c2.8-2.9,4.7-4.9,5.6-6.1s1.5-2.2,1.9-3.1c0.4-1,0.6-2,0.6-3
		c0-1.5-0.4-2.7-1.3-3.4c-0.8-0.8-2-1.1-3.4-1.1c-1.5,0-2.9,0.3-4.3,1c-1.4,0.7-2.9,1.7-4.4,2.9l-4.4-5.2c1.9-1.6,3.4-2.7,4.7-3.4
		s2.6-1.2,4.1-1.5c1.5-0.4,3.1-0.5,4.9-0.5c2.4,0,4.5,0.4,6.3,1.3c1.8,0.9,3.3,2.1,4.3,3.7s1.5,3.4,1.5,5.4c0,1.8-0.3,3.4-0.9,5
		c-0.6,1.5-1.6,3.1-2.9,4.8c-1.3,1.6-3.6,3.9-6.9,6.9l-4.9,4.6v0.4h16.7V107.4z"/>
	<path class="st1" d="M463.6,88.3c0,6.7-1.1,11.6-3.3,14.8c-2.2,3.2-5.6,4.8-10.1,4.8c-4.4,0-7.7-1.7-10-5
		c-2.2-3.3-3.4-8.2-3.4-14.7c0-6.8,1.1-11.7,3.3-14.9c2.2-3.2,5.5-4.8,10.1-4.8c4.4,0,7.8,1.7,10,5S463.6,81.8,463.6,88.3z
		 M444.9,88.3c0,4.7,0.4,8.1,1.2,10.1c0.8,2,2.2,3.1,4.1,3.1c1.9,0,3.2-1,4.1-3.1c0.8-2.1,1.3-5.4,1.3-10.1c0-4.7-0.4-8.1-1.3-10.1
		c-0.8-2.1-2.2-3.1-4.1-3.1c-1.9,0-3.3,1-4.1,3.1C445.3,80.2,444.9,83.6,444.9,88.3z"/>
	<path class="st1" d="M487.7,107.4h-8.1V85.2l0.1-3.6l0.1-4c-1.3,1.3-2.3,2.2-2.8,2.6l-4.4,3.5l-3.9-4.9l12.3-9.8h6.7V107.4z"/>
	<path class="st1" d="M498.1,91.1c0-7.6,1.6-13.2,4.8-16.9c3.2-3.7,8-5.6,14.4-5.6c2.2,0,3.9,0.1,5.1,0.4v6.5
		c-1.6-0.3-3.1-0.5-4.6-0.5c-2.8,0-5,0.4-6.8,1.3c-1.8,0.8-3.1,2.1-3.9,3.7c-0.9,1.6-1.4,4-1.5,7h0.3c1.7-3,4.5-4.5,8.3-4.5
		c3.4,0,6.1,1.1,8,3.2c1.9,2.1,2.9,5.1,2.9,8.9c0,4.1-1.2,7.3-3.5,9.7c-2.3,2.4-5.5,3.6-9.6,3.6c-2.8,0-5.3-0.7-7.4-2
		c-2.1-1.3-3.7-3.2-4.9-5.7S498.1,94.7,498.1,91.1z M511.9,101.5c1.7,0,3.1-0.6,4-1.7c0.9-1.2,1.4-2.8,1.4-5c0-1.9-0.4-3.3-1.3-4.4
		c-0.9-1.1-2.2-1.6-3.9-1.6c-1.6,0-3,0.5-4.2,1.6c-1.2,1.1-1.7,2.3-1.7,3.7c0,2.1,0.5,3.8,1.6,5.3
		C508.9,100.7,510.3,101.5,511.9,101.5z"/>
	<path class="st1" d="M170.6,161.1c0,3.5-1.2,6.2-3.7,8.2c-2.5,2-5.9,3-10.4,3c-4.1,0-7.7-0.8-10.8-2.3v-7.5c2.6,1.2,4.8,2,6.6,2.4
		c1.8,0.5,3.4,0.7,4.9,0.7c1.8,0,3.1-0.3,4.1-1c1-0.7,1.4-1.7,1.4-3c0-0.8-0.2-1.4-0.6-2c-0.4-0.6-1-1.1-1.8-1.7s-2.5-1.4-5-2.6
		c-2.3-1.1-4.1-2.2-5.3-3.2c-1.2-1-2.1-2.2-2.8-3.5s-1-2.9-1-4.7c0-3.4,1.1-6,3.4-8c2.3-1.9,5.5-2.9,9.5-2.9c2,0,3.9,0.2,5.7,0.7
		c1.8,0.5,3.7,1.1,5.7,2l-2.6,6.3c-2-0.8-3.7-1.4-5.1-1.8c-1.3-0.3-2.6-0.5-3.9-0.5c-1.5,0-2.7,0.4-3.5,1.1s-1.2,1.6-1.2,2.8
		c0,0.7,0.2,1.3,0.5,1.9c0.3,0.5,0.9,1,1.6,1.5c0.7,0.5,2.4,1.4,5.1,2.7c3.6,1.7,6,3.4,7.4,5.1C169.9,156.5,170.6,158.6,170.6,161.1
		z"/>
	<path class="st1" d="M203.9,171.8h-8v-17.1c0-4.2-1.6-6.3-4.7-6.3c-2.2,0-3.8,0.8-4.8,2.3s-1.5,4-1.5,7.4v13.8h-8V131h8v8.3
		c0,0.6-0.1,2.2-0.2,4.6l-0.2,2.4h0.4c1.8-2.9,4.6-4.3,8.5-4.3c3.4,0,6,0.9,7.8,2.8c1.8,1.9,2.7,4.5,2.7,8V171.8z"/>
	<path class="st1" d="M238.7,157.1c0,4.8-1.3,8.5-3.8,11.2s-6,4-10.5,4c-2.8,0-5.3-0.6-7.4-1.8c-2.1-1.2-3.8-3-4.9-5.3
		c-1.2-2.3-1.7-5-1.7-8.1c0-4.8,1.2-8.5,3.7-11.2c2.5-2.7,6-4,10.5-4c2.8,0,5.3,0.6,7.4,1.8s3.8,3,4.9,5.3
		C238.2,151.3,238.7,154,238.7,157.1z M218.5,157.1c0,2.9,0.5,5.1,1.4,6.6c1,1.5,2.5,2.2,4.6,2.2c2.1,0,3.7-0.7,4.6-2.2
		c0.9-1.5,1.4-3.7,1.4-6.6c0-2.9-0.5-5.1-1.4-6.5c-0.9-1.4-2.5-2.2-4.6-2.2c-2.1,0-3.7,0.7-4.6,2.2S218.5,154.1,218.5,157.1z"/>
	<path class="st1" d="M261.4,172.3c-3.4,0-6.1-1.2-8.1-3.7h-0.4c0.3,2.4,0.4,3.9,0.4,4.2v11.9h-8v-42.2h6.5l1.1,3.8h0.4
		c1.9-2.9,4.6-4.3,8.3-4.3c3.5,0,6.2,1.3,8.1,4s2.9,6.4,2.9,11.1c0,3.1-0.5,5.8-1.4,8.1c-0.9,2.3-2.2,4.1-3.9,5.3
		C265.7,171.7,263.7,172.3,261.4,172.3z M259.1,148.3c-2,0-3.4,0.6-4.3,1.8c-0.9,1.2-1.4,3.2-1.4,6v0.9c0,3.1,0.5,5.4,1.4,6.8
		c0.9,1.4,2.4,2,4.4,2c3.6,0,5.4-3,5.4-8.9c0-2.9-0.4-5-1.3-6.5C262.3,149,261,148.3,259.1,148.3z"/>
	<path class="st1" d="M295.4,172.3c-3.4,0-6.1-1.2-8.1-3.7h-0.4c0.3,2.4,0.4,3.9,0.4,4.2v11.9h-8v-42.2h6.5l1.1,3.8h0.4
		c1.9-2.9,4.6-4.3,8.3-4.3c3.5,0,6.2,1.3,8.1,4s2.9,6.4,2.9,11.1c0,3.1-0.5,5.8-1.4,8.1c-0.9,2.3-2.2,4.1-3.9,5.3
		C299.6,171.7,297.6,172.3,295.4,172.3z M293,148.3c-2,0-3.4,0.6-4.3,1.8c-0.9,1.2-1.4,3.2-1.4,6v0.9c0,3.1,0.5,5.4,1.4,6.8
		c0.9,1.4,2.4,2,4.4,2c3.6,0,5.4-3,5.4-8.9c0-2.9-0.4-5-1.3-6.5C296.3,149,294.9,148.3,293,148.3z"/>
	<path class="st1" d="M312.9,134.9c0-2.6,1.4-3.9,4.3-3.9c2.9,0,4.3,1.3,4.3,3.9c0,1.2-0.4,2.2-1.1,2.9c-0.7,0.7-1.8,1-3.3,1
		C314.3,138.8,312.9,137.5,312.9,134.9z M321.2,171.8h-8v-29.3h8V171.8z"/>
	<path class="st1" d="M356.6,171.8h-8v-17.1c0-2.1-0.4-3.7-1.1-4.8c-0.8-1.1-1.9-1.6-3.6-1.6c-2.2,0-3.8,0.7-4.8,2.2
		c-1,1.5-1.5,4-1.5,7.4v13.8h-8v-29.3h6.1l1.1,3.7h0.4c0.9-1.4,2.1-2.5,3.7-3.2c1.6-0.7,3.3-1.1,5.3-1.1c3.4,0,6,0.9,7.8,2.8
		c1.8,1.8,2.6,4.5,2.6,8V171.8z"/>
	<path class="st1" d="M390.4,171.8c0,4.2-1.2,7.4-3.7,9.6c-2.5,2.2-6.1,3.3-11,3.3c-4.3,0-7.9-0.6-10.9-1.7v-6.4
		c3.5,1.5,7.3,2.3,11.4,2.3c4.1,0,6.2-2.2,6.2-6.7v-0.6l0.2-3.6h-0.2c-1.9,2.9-4.6,4.3-8.3,4.3c-3.5,0-6.2-1.4-8.2-4.1
		c-1.9-2.7-2.9-6.4-2.9-11.1c0-4.8,1-8.5,3-11.2s4.8-4,8.3-4c3.6,0,6.4,1.4,8.5,4.3h0.2l0.7-3.7h6.8V171.8z M377,166
		c2.1,0,3.7-0.6,4.6-1.8c0.9-1.2,1.4-3.2,1.4-6v-1c0-3.1-0.5-5.4-1.5-6.7c-1-1.4-2.5-2.1-4.7-2.1c-3.8,0-5.6,3-5.6,8.9
		c0,2.9,0.5,5.1,1.4,6.6C373.5,165.3,375,166,377,166z"/>
	<path class="st1" d="M429.6,139.7c-3.1,0-5.4,1.1-7.1,3.4s-2.5,5.5-2.5,9.6c0,8.5,3.2,12.8,9.6,12.8c2.7,0,5.9-0.7,9.8-2v6.8
		c-3.1,1.3-6.7,2-10.5,2c-5.6,0-9.8-1.7-12.8-5.1s-4.4-8.2-4.4-14.5c0-4,0.7-7.5,2.2-10.5c1.4-3,3.5-5.3,6.2-6.9
		c2.7-1.6,5.9-2.4,9.5-2.4c3.7,0,7.5,0.9,11.2,2.7l-2.6,6.6c-1.4-0.7-2.9-1.3-4.3-1.8C432.4,139.9,431,139.7,429.6,139.7z"/>
	<path class="st1" d="M465.5,171.8l-1.5-4h-0.2c-1.3,1.7-2.7,2.9-4.2,3.5c-1.4,0.7-3.3,1-5.6,1c-2.8,0-5-0.8-6.6-2.4
		c-1.6-1.6-2.4-3.9-2.4-6.9c0-3.1,1.1-5.4,3.3-6.9c2.2-1.5,5.5-2.3,9.8-2.4l5.1-0.2v-1.3c0-3-1.5-4.5-4.6-4.5
		c-2.3,0-5.1,0.7-8.2,2.1l-2.6-5.4c3.4-1.8,7.1-2.6,11.2-2.6c3.9,0,6.9,0.9,9,2.6s3.1,4.3,3.1,7.8v19.5H465.5z M463.1,158.2
		l-3.1,0.1c-2.3,0.1-4,0.5-5.2,1.3c-1.1,0.8-1.7,1.9-1.7,3.5c0,2.3,1.3,3.4,3.9,3.4c1.9,0,3.3-0.5,4.4-1.6c1.1-1.1,1.7-2.5,1.7-4.2
		V158.2z"/>
	<path class="st1" d="M487.2,171.8h-8V131h8V171.8z"/>
	<path class="st1" d="M508.9,172.3c-4.7,0-8.4-1.3-11-3.9c-2.7-2.6-4-6.3-4-11.1c0-4.9,1.2-8.7,3.7-11.4c2.5-2.7,5.8-4,10.2-4
		c4.1,0,7.4,1.2,9.7,3.5c2.3,2.4,3.5,5.6,3.5,9.8v3.9h-18.9c0.1,2.3,0.8,4,2,5.3s3,1.9,5.3,1.9c1.8,0,3.4-0.2,5-0.5
		c1.6-0.4,3.2-1,4.9-1.8v6.2c-1.4,0.7-2.9,1.2-4.5,1.6C513.1,172.1,511.2,172.3,508.9,172.3z M507.8,147.6c-1.7,0-3,0.5-4,1.6
		c-1,1.1-1.5,2.6-1.6,4.6h11.2c0-2-0.5-3.5-1.5-4.6C510.8,148.1,509.4,147.6,507.8,147.6z"/>
	<path class="st1" d="M554.3,171.8h-8v-17.1c0-2.1-0.4-3.7-1.1-4.8c-0.8-1.1-1.9-1.6-3.6-1.6c-2.2,0-3.8,0.7-4.8,2.2
		c-1,1.5-1.5,4-1.5,7.4v13.8h-8v-29.3h6.1l1.1,3.7h0.4c0.9-1.4,2.1-2.5,3.7-3.2c1.6-0.7,3.3-1.1,5.3-1.1c3.4,0,6,0.9,7.8,2.8
		c1.8,1.8,2.6,4.5,2.6,8V171.8z"/>
	<path class="st1" d="M571.8,172.3c-3.4,0-6.1-1.3-8.1-4c-2-2.7-2.9-6.4-2.9-11.1c0-4.8,1-8.5,3-11.2s4.8-4,8.3-4
		c3.7,0,6.5,1.4,8.4,4.3h0.3c-0.4-2.2-0.6-4.1-0.6-5.8V131h8v40.7H582l-1.5-3.8h-0.3C578.3,170.8,575.5,172.3,571.8,172.3z
		 M574.6,165.9c2,0,3.5-0.6,4.5-1.8c1-1.2,1.5-3.2,1.6-6v-0.9c0-3.1-0.5-5.4-1.5-6.8c-1-1.4-2.5-2-4.7-2c-1.8,0-3.2,0.8-4.2,2.3
		c-1,1.5-1.5,3.7-1.5,6.6c0,2.9,0.5,5,1.5,6.5S572.8,165.9,574.6,165.9z"/>
	<path class="st1" d="M615.1,171.8l-1.5-4h-0.2c-1.3,1.7-2.7,2.9-4.2,3.5c-1.4,0.7-3.3,1-5.6,1c-2.8,0-5-0.8-6.6-2.4
		c-1.6-1.6-2.4-3.9-2.4-6.9c0-3.1,1.1-5.4,3.3-6.9c2.2-1.5,5.5-2.3,9.8-2.4l5.1-0.2v-1.3c0-3-1.5-4.5-4.6-4.5
		c-2.3,0-5.1,0.7-8.2,2.1l-2.6-5.4c3.4-1.8,7.1-2.6,11.2-2.6c3.9,0,6.9,0.9,9,2.6s3.1,4.3,3.1,7.8v19.5H615.1z M612.7,158.2
		l-3.1,0.1c-2.3,0.1-4,0.5-5.2,1.3c-1.1,0.8-1.7,1.9-1.7,3.5c0,2.3,1.3,3.4,3.9,3.4c1.9,0,3.3-0.5,4.4-1.6c1.1-1.1,1.7-2.5,1.7-4.2
		V158.2z"/>
	<path class="st1" d="M645.2,141.9c1.1,0,2,0.1,2.7,0.2l-0.6,7.5c-0.6-0.2-1.4-0.3-2.4-0.3c-2.5,0-4.5,0.7-6,2
		c-1.4,1.3-2.1,3.1-2.1,5.5v14.9h-8v-29.3h6l1.2,4.9h0.4c0.9-1.6,2.1-3,3.7-4C641.7,142.4,643.4,141.9,645.2,141.9z"/>
</g>
<g>
	<path class="st2" d="M387,252.5c-21.1,0-38.2,17.1-38.2,38.2v103.6h76.3V290.6C425.1,269.6,408,252.5,387,252.5z"/>
	<path class="st2" d="M425.1,252.5c-21.1,0-38.2,17.1-38.2,38.2v103.6h76.3V290.6C463.3,269.6,446.2,252.5,425.1,252.5z"/>
	<rect x="324.2" y="323.4" class="st3" width="117.3" height="172.2"/>
	<rect x="443.2" y="323.4" class="st3" width="44.3" height="172.2"/>
</g>
</svg>