<svg id="Layer_1" data-name="Layer 1" xmlns="http://www.w3.org/2000/svg" viewBox="0 0 1600 508.1"><defs><style>.cls-1{font-size:115.41px;fill:#8c8c8c;font-family:CircularStd-Bold, Circular Std;font-weight:700;}.cls-2{letter-spacing:0em;}.cls-3{letter-spacing:0.01em;}.cls-4{letter-spacing:-0.08em;}.cls-5{letter-spacing:0em;}.cls-6{letter-spacing:0em;}.cls-7{letter-spacing:-0.02em;}.cls-8{fill:#fff;}.cls-9{fill:#3cc;}</style></defs><title>Artboard 12 copy 3</title><text class="cls-1" transform="translate(307.44 256.35)"><tspan class="cls-2">T</tspan><tspan x="71.78" y="0">he Uber vs G</tspan><tspan class="cls-3" x="754.28" y="0">r</tspan><tspan x="800.1" y="0">ab </tspan><tspan x="88.98" y="127.42">vs </tspan><tspan class="cls-4" x="233.58" y="127.42">T</tspan><tspan class="cls-5" x="295.21" y="127.42">axis b</tspan><tspan class="cls-6" x="602.88" y="127.42">a</tspan><tspan x="664.73" y="127.42">t</tspan><tspan class="cls-7" x="707.78" y="127.42">t</tspan><tspan class="cls-5" x="748.4" y="127.42">le </tspan></text><rect class="cls-8" x="-39.98" y="-45.81" width="1796.67" height="2588.25"/><path class="cls-9" d="M474.14,508.09s-46.55,1.82-72.22-46.49c-30.9-58.18-78.72-35.44-78.72-35.44-21.53-102.65-112.48-87.82-112.48-87.82-5.94-43.16-47.32-42.26-47.32-42.26,12.51-117.29-91-124.57-91-124.57S-11.68,147.78-3.46,0H802.9V508.1H1135"/><path class="cls-9" d="M1123.53,508.09s46.39,1.82,72-46.49c30.79-58.18,78.44-35.44,78.44-35.44C1295.39,323.51,1386,338.34,1386,338.34c5.92-43.16,47.16-42.26,47.16-42.26-12.47-117.29,90.66-124.57,90.66-124.57s83.8-23.73,75.6-171.51H795.93V508.1H465"/><path class="cls-8" d="M242,168.13v24.3H229.39V127.91h24.12c12.74,0,21.2,8.46,21.2,20.11s-8.46,20.11-21.2,20.11Zm10-10.83c6.28,0,10.1-3.64,10.1-9.19,0-5.73-3.82-9.28-10.1-9.28H242V157.3Z"/><path class="cls-8" d="M320.94,179.6c-2.27,7.73-9.37,14.2-20.38,14.2-12.29,0-23.11-8.83-23.11-23.93,0-14.29,10.56-23.57,22-23.57,13.83,0,22.11,8.83,22.11,23.21,0,1.73-.18,3.55-.18,3.73h-32c.27,5.92,5.28,10.19,11.28,10.19,5.64,0,8.74-2.82,10.19-6.83Zm-11.28-14.65c-.18-4.46-3.09-8.83-10-8.83a9.69,9.69,0,0,0-10,8.83Z"/><path class="cls-8" d="M331.13,209.72V147.65h11.74v5.46c2-3.46,7-6.46,13.74-6.46,13.1,0,20.66,10,20.66,23.3,0,13.56-8.46,23.57-21.11,23.57-6.19,0-10.74-2.46-12.92-5.46v21.66Zm23.11-52.24c-6.19,0-11.19,4.64-11.19,12.56s5,12.65,11.19,12.65,11.1-4.64,11.1-12.65S360.43,157.48,354.25,157.48Z"/><path class="cls-8" d="M427,179.6c-2.27,7.73-9.37,14.2-20.38,14.2-12.29,0-23.11-8.83-23.11-23.93,0-14.29,10.56-23.57,22-23.57,13.83,0,22.11,8.83,22.11,23.21,0,1.73-.18,3.55-.18,3.73h-32c.27,5.92,5.28,10.19,11.28,10.19,5.64,0,8.74-2.82,10.19-6.83Zm-11.28-14.65c-.18-4.46-3.09-8.83-10-8.83a9.69,9.69,0,0,0-10,8.83Z"/><path class="cls-8" d="M464.45,159.67a18.19,18.19,0,0,0-3.64-.36c-6.19,0-11.56,3-11.56,12.65v20.48h-12.1V147.65h11.74v6.64c2.73-5.92,8.92-7,12.74-7a27.61,27.61,0,0,1,2.82.18Z"/><path class="cls-8" d="M483.92,166.67l11-1.64c2.55-.36,3.37-1.64,3.37-3.19,0-3.19-2.46-5.82-7.55-5.82-5.28,0-8.19,3.37-8.55,7.28L471.45,161c.73-7,7.19-14.74,19.2-14.74,14.2,0,19.48,8,19.48,17v22a50.15,50.15,0,0,0,.55,7.1h-11.1a30.32,30.32,0,0,1-.46-5.37c-2.27,3.55-6.55,6.64-13.2,6.64-9.56,0-15.38-6.46-15.38-13.47C470.54,172.22,476.46,167.76,483.92,166.67Zm14.38,7.64v-2l-10.1,1.55c-3.09.46-5.55,2.18-5.55,5.64,0,2.64,1.91,5.19,5.82,5.19C493.56,184.69,498.3,182.23,498.3,174.32Z"/><path class="cls-8" d="M534.42,192.43h-12.1V147.65h11.74v5.55c2.73-4.64,8.1-6.73,12.92-6.73,11.1,0,16.2,7.92,16.2,17.75v28.21h-12.1V166.31c0-5-2.46-8.92-8.28-8.92-5.28,0-8.37,4.09-8.37,9.28Z"/><path class="cls-8" d="M583.2,192c.82,4.91,4.73,8.46,10.47,8.46,7.64,0,11.92-3.82,11.92-12.47v-3.28c-1.82,2.91-6,5.73-12.47,5.73-11.92,0-20.84-9.19-20.84-21.75,0-11.83,8.55-21.84,20.84-21.84,7.1,0,11.19,3.09,12.74,6.1v-5.28h11.65v40c0,12.29-6.64,23.48-23.48,23.48-12.29,0-20.48-7.64-21.75-16.2Zm22.57-23.3c0-6.92-4.73-11.28-10.56-11.28-6,0-10.74,4.37-10.74,11.28s4.46,11.38,10.74,11.38S605.77,175.59,605.77,168.67Z"/><path class="cls-8" d="M640,166.67,651,165c2.55-.36,3.37-1.64,3.37-3.19,0-3.19-2.46-5.82-7.55-5.82-5.28,0-8.19,3.37-8.55,7.28L627.51,161c.73-7,7.19-14.74,19.2-14.74,14.2,0,19.48,8,19.48,17v22a50.15,50.15,0,0,0,.55,7.1h-11.1a30.32,30.32,0,0,1-.46-5.37c-2.27,3.55-6.55,6.64-13.2,6.64-9.56,0-15.38-6.46-15.38-13.47C626.6,172.22,632.52,167.76,640,166.67Zm14.38,7.64v-2l-10.1,1.55c-3.09.46-5.55,2.18-5.55,5.64,0,2.64,1.91,5.19,5.82,5.19C649.63,184.69,654.36,182.23,654.36,174.32Z"/><path class="cls-8" d="M690.49,192.43h-12.1V147.65h11.74v5.55c2.73-4.64,8.1-6.73,12.92-6.73,11.1,0,16.2,7.92,16.2,17.75v28.21h-12.1V166.31c0-5-2.46-8.92-8.28-8.92-5.28,0-8.37,4.09-8.37,9.28Z"/><path class="cls-8" d="M782,139.83v52.6H769.38v-52.6H749V127.91h53.42v11.92Z"/><path class="cls-8" d="M813.24,166.67l11-1.64c2.55-.36,3.37-1.64,3.37-3.19,0-3.19-2.46-5.82-7.55-5.82-5.28,0-8.19,3.37-8.55,7.28L800.78,161c.73-7,7.19-14.74,19.2-14.74,14.2,0,19.47,8,19.47,17v22a50.14,50.14,0,0,0,.55,7.1H828.9a30.32,30.32,0,0,1-.46-5.37c-2.27,3.55-6.55,6.64-13.2,6.64-9.56,0-15.38-6.46-15.38-13.47C799.87,172.22,805.78,167.76,813.24,166.67Zm14.38,7.64v-2l-10.1,1.55c-3.09.46-5.55,2.18-5.55,5.64,0,2.64,1.91,5.19,5.82,5.19C822.89,184.69,827.62,182.23,827.62,174.32Z"/><path class="cls-8" d="M878.94,159.67a18.19,18.19,0,0,0-3.64-.36c-6.19,0-11.56,3-11.56,12.65v20.48h-12.1V147.65h11.74v6.64c2.73-5.92,8.92-7,12.74-7a27.61,27.61,0,0,1,2.82.18Z"/><path class="cls-8" d="M893.5,125.45A7.46,7.46,0,1,1,886,133,7.46,7.46,0,0,1,893.5,125.45Zm-6,67V147.65h12.1v44.77Z"/><path class="cls-8" d="M927,142.74v4.91h10.1V158H927v34.4H914.8V158h-7.46V147.65h7.46v-5.1c0-10.1,6.37-16.65,16.29-16.65a17.59,17.59,0,0,1,6,.91V137a13.51,13.51,0,0,0-3.82-.46C930.54,136.55,927,137.73,927,142.74Z"/><path class="cls-8" d="M995.42,139.83v52.6H982.77v-52.6H962.39V127.91h53.42v11.92Z"/><path class="cls-8" d="M1055.21,179.6c-2.27,7.73-9.37,14.2-20.38,14.2-12.29,0-23.11-8.83-23.11-23.93,0-14.29,10.56-23.57,22-23.57,13.83,0,22.11,8.83,22.11,23.21,0,1.73-.18,3.55-.18,3.73h-32c.27,5.92,5.28,10.19,11.28,10.19,5.64,0,8.74-2.82,10.19-6.83Zm-11.28-14.65c-.18-4.46-3.09-8.83-10-8.83a9.69,9.69,0,0,0-10,8.83Z"/><path class="cls-8" d="M1092.7,159.67a18.19,18.19,0,0,0-3.64-.36c-6.19,0-11.56,3-11.56,12.65v20.48h-12.1V147.65h11.74v6.64c2.73-5.92,8.92-7,12.74-7a27.61,27.61,0,0,1,2.82.18Z"/><path class="cls-8" d="M1140.93,179.6c-2.27,7.73-9.37,14.2-20.38,14.2-12.29,0-23.11-8.83-23.11-23.93,0-14.29,10.56-23.57,22-23.57,13.83,0,22.11,8.83,22.11,23.21,0,1.73-.18,3.55-.18,3.73h-32c.27,5.92,5.28,10.19,11.28,10.19,5.64,0,8.74-2.82,10.19-6.83Zm-11.28-14.65c-.18-4.46-3.09-8.83-10-8.83a9.69,9.69,0,0,0-10,8.83Z"/><path class="cls-8" d="M1163.22,192.43h-12.1V147.65h11.74v5.55c2.73-4.64,8.1-6.73,12.92-6.73,11.1,0,16.2,7.92,16.2,17.75v28.21h-12.1V166.31c0-5-2.46-8.92-8.28-8.92-5.28,0-8.37,4.09-8.37,9.28Z"/><path class="cls-8" d="M1246.94,184.33c0,3,.18,6.28.36,8.1h-11.56a31,31,0,0,1-.45-5.19c-2,3.55-6.55,6.28-12.56,6.28-12.74,0-21.84-10-21.84-23.57,0-13.1,8.83-23.39,21.48-23.39,7.74,0,11.38,3.19,12.65,5.55V126.54h11.92Zm-22.75-1.64c6.19,0,11-4.73,11-12.83s-4.82-12.47-11-12.47-11.1,4.55-11.1,12.56S1217.82,182.69,1224.19,182.69Z"/><path class="cls-8" d="M1270.42,166.67l11-1.64c2.55-.36,3.37-1.64,3.37-3.19,0-3.19-2.46-5.82-7.55-5.82-5.28,0-8.19,3.37-8.55,7.28L1258,161c.73-7,7.19-14.74,19.2-14.74,14.2,0,19.48,8,19.48,17v22a50.15,50.15,0,0,0,.55,7.1h-11.1a30.32,30.32,0,0,1-.46-5.37c-2.27,3.55-6.55,6.64-13.2,6.64-9.56,0-15.38-6.46-15.38-13.47C1257,172.22,1263,167.76,1270.42,166.67Zm14.38,7.64v-2l-10.1,1.55c-3.09.46-5.55,2.18-5.55,5.64,0,2.64,1.91,5.19,5.82,5.19C1280.07,184.69,1284.8,182.23,1284.8,174.32Z"/><path class="cls-8" d="M1320.92,192.43h-12.1V126.54h12.1v24.84c2.91-3.46,7.83-4.91,12.1-4.91,11.38,0,16.65,7.92,16.65,17.75v28.21h-12.1V166.31c0-5-2.46-8.92-8.28-8.92-5.1,0-8.1,3.82-8.37,8.74Z"/><path class="cls-8" d="M498.62,299.74c0,3,.18,6.28.36,8.1H487.42a31,31,0,0,1-.46-5.19c-2,3.55-6.55,6.28-12.56,6.28-12.74,0-21.84-10-21.84-23.57,0-13.1,8.83-23.39,21.48-23.39,7.74,0,11.38,3.19,12.65,5.55V242h11.92Zm-22.75-1.64c6.19,0,11-4.73,11-12.83s-4.82-12.47-11-12.47-11.1,4.55-11.1,12.56S469.5,298.11,475.87,298.11Z"/><path class="cls-8" d="M517.72,240.86a7.46,7.46,0,1,1-7.46,7.55A7.46,7.46,0,0,1,517.72,240.86Zm-6,67V263.07h12.1v44.77Z"/><path class="cls-8" d="M598.53,293.1H572.32L567,307.84H553.67l24.75-64.52H593l24.57,64.52H603.9Zm-22-11.47h17.84l-8.92-24.39Z"/><path class="cls-8" d="M631.47,293.1c.27,3.55,2.91,6.83,8.19,6.83,4,0,5.92-2.09,5.92-4.46,0-2-1.37-3.64-4.82-4.37l-5.92-1.36c-8.65-1.91-12.56-7.1-12.56-13.38,0-8,7.1-14.65,16.74-14.65,12.74,0,17,8.1,17.56,12.92l-10.1,2.27c-.36-2.64-2.27-6-7.37-6-3.19,0-5.73,1.91-5.73,4.46,0,2.18,1.64,3.55,4.1,4l6.37,1.37c8.83,1.82,13.29,7.19,13.29,13.74,0,7.28-5.64,14.74-17.38,14.74-13.47,0-18.11-8.74-18.66-13.83Z"/><path class="cls-8" d="M672.88,240.86a7.46,7.46,0,1,1-7.46,7.55A7.46,7.46,0,0,1,672.88,240.86Zm-6,67V263.07H679v44.77Z"/><path class="cls-8" d="M702.54,282.09l11-1.64c2.55-.36,3.37-1.64,3.37-3.19,0-3.19-2.46-5.82-7.55-5.82-5.28,0-8.19,3.37-8.55,7.28l-10.74-2.28c.73-7,7.19-14.74,19.2-14.74,14.2,0,19.47,8,19.47,17v22a50.14,50.14,0,0,0,.55,7.1h-11.1a30.32,30.32,0,0,1-.46-5.37c-2.27,3.55-6.55,6.64-13.2,6.64-9.56,0-15.38-6.46-15.38-13.47C689.16,287.64,695.08,283.18,702.54,282.09Zm14.38,7.64v-2l-10.1,1.55c-3.09.46-5.55,2.18-5.55,5.64,0,2.64,1.91,5.19,5.82,5.19C712.19,300.11,716.92,297.65,716.92,289.73Z"/><path class="cls-8" d="M791.45,255.24v52.6H778.8v-52.6H758.41V243.32h53.42v11.92Z"/><path class="cls-8" d="M851.24,295c-2.27,7.73-9.37,14.2-20.38,14.2-12.29,0-23.11-8.83-23.11-23.93,0-14.29,10.56-23.57,22-23.57,13.83,0,22.11,8.83,22.11,23.21,0,1.73-.18,3.55-.18,3.73h-32c.27,5.92,5.28,10.19,11.28,10.19,5.64,0,8.74-2.82,10.19-6.83ZM840,280.36c-.18-4.46-3.09-8.83-10-8.83a9.69,9.69,0,0,0-10,8.83Z"/><path class="cls-8" d="M873.53,307.84h-12.1V263.07h11.74v5.55c2.73-4.64,8.1-6.73,12.92-6.73,11.1,0,16.2,7.92,16.2,17.75v28.21h-12.1V281.72c0-5-2.46-8.92-8.28-8.92-5.28,0-8.37,4.09-8.37,9.28Z"/><path class="cls-8" d="M922.31,307.39c.82,4.91,4.73,8.46,10.47,8.46,7.64,0,11.92-3.82,11.92-12.47v-3.28c-1.82,2.91-6,5.73-12.47,5.73-11.92,0-20.84-9.19-20.84-21.75,0-11.83,8.55-21.84,20.84-21.84,7.1,0,11.19,3.09,12.74,6.1v-5.28h11.65v40c0,12.29-6.64,23.48-23.48,23.48-12.29,0-20.48-7.64-21.75-16.2Zm22.57-23.3c0-6.92-4.73-11.28-10.56-11.28-6,0-10.74,4.37-10.74,11.28s4.46,11.38,10.74,11.38S944.87,291,944.87,284.09Z"/><path class="cls-8" d="M976.63,307.39c.82,4.91,4.73,8.46,10.47,8.46,7.64,0,11.92-3.82,11.92-12.47v-3.28c-1.82,2.91-6,5.73-12.47,5.73-11.92,0-20.84-9.19-20.84-21.75,0-11.83,8.55-21.84,20.84-21.84,7.1,0,11.19,3.09,12.74,6.1v-5.28h11.65v40c0,12.29-6.64,23.48-23.48,23.48-12.29,0-20.48-7.64-21.75-16.2Zm22.57-23.3c0-6.92-4.73-11.28-10.56-11.28-6,0-10.74,4.37-10.74,11.28s4.46,11.38,10.74,11.38S999.2,291,999.2,284.09Z"/><path class="cls-8" d="M1033.42,282.09l11-1.64c2.55-.36,3.37-1.64,3.37-3.19,0-3.19-2.46-5.82-7.55-5.82-5.28,0-8.19,3.37-8.55,7.28l-10.74-2.28c.73-7,7.19-14.74,19.2-14.74,14.2,0,19.48,8,19.48,17v22a50.15,50.15,0,0,0,.55,7.1h-11.1a30.32,30.32,0,0,1-.46-5.37c-2.27,3.55-6.55,6.64-13.2,6.64-9.56,0-15.38-6.46-15.38-13.47C1020,287.64,1026,283.18,1033.42,282.09Zm14.38,7.64v-2l-10.1,1.55c-3.09.46-5.55,2.18-5.55,5.64,0,2.64,1.91,5.19,5.82,5.19C1043.06,300.11,1047.79,297.65,1047.79,289.73Z"/><path class="cls-8" d="M1099.12,275.08a18.19,18.19,0,0,0-3.64-.36c-6.19,0-11.56,3-11.56,12.65v20.48h-12.1V263.07h11.74v6.64c2.73-5.92,8.92-7,12.74-7a27.61,27.61,0,0,1,2.82.18Z"/><path class="cls-8" d="M1118.59,282.09l11-1.64c2.55-.36,3.37-1.64,3.37-3.19,0-3.19-2.46-5.82-7.55-5.82-5.28,0-8.19,3.37-8.55,7.28l-10.74-2.28c.73-7,7.19-14.74,19.2-14.74,14.2,0,19.47,8,19.47,17v22a50.14,50.14,0,0,0,.55,7.1h-11.1a30.32,30.32,0,0,1-.46-5.37c-2.27,3.55-6.55,6.64-13.2,6.64-9.56,0-15.38-6.46-15.38-13.47C1105.21,287.64,1111.13,283.18,1118.59,282.09Zm14.38,7.64v-2l-10.1,1.55c-3.09.46-5.55,2.18-5.55,5.64,0,2.64,1.91,5.19,5.82,5.19C1128.23,300.11,1133,297.65,1133,289.73Z"/><path class="cls-8" d="M480.77,376.91c-.32-1.81-1.81-4.64-6-4.64-3.11,0-5.15,2-5.15,4.17,0,1.81,1.16,3.25,3.57,3.71l4.59.88c6,1.16,9.18,5.06,9.18,9.7,0,5.06-4.22,10.16-11.87,10.16-8.72,0-12.57-5.61-13.08-10.3L468,389c.28,3.25,2.55,6.17,7.19,6.17,3.43,0,5.33-1.72,5.33-4,0-1.9-1.44-3.39-4-3.9l-4.59-.93c-5.24-1.07-8.63-4.45-8.63-9.42,0-5.84,5.24-10.3,11.46-10.3,8,0,11,4.82,11.78,8.54Z"/><path class="cls-8" d="M494.91,366.06a3.8,3.8,0,1,1-3.8,3.85A3.8,3.8,0,0,1,494.91,366.06Zm-3.06,34.14V377.37H498V400.2Z"/><path class="cls-8" d="M510,387.07l5.61-.84c1.3-.19,1.72-.83,1.72-1.62,0-1.62-1.25-3-3.85-3a4.05,4.05,0,0,0-4.36,3.71l-5.47-1.16c.37-3.57,3.66-7.51,9.79-7.51,7.24,0,9.93,4.08,9.93,8.67v11.23a25.56,25.56,0,0,0,.28,3.62H518a15.46,15.46,0,0,1-.23-2.74,7.63,7.63,0,0,1-6.73,3.39c-4.87,0-7.84-3.29-7.84-6.87C503.21,389.9,506.23,387.63,510,387.07Zm7.33,3.9v-1l-5.15.79c-1.58.23-2.83,1.11-2.83,2.88a2.68,2.68,0,0,0,3,2.64C515,396.25,517.36,395,517.36,391Z"/><path class="cls-8" d="M529.61,409V377.37h6v2.78c1-1.76,3.57-3.29,7-3.29,6.68,0,10.53,5.1,10.53,11.88s-4.31,12-10.76,12c-3.15,0-5.47-1.25-6.59-2.78v11Zm11.78-26.63c-3.15,0-5.71,2.37-5.71,6.4s2.55,6.45,5.71,6.45,5.66-2.37,5.66-6.45S544.54,382.38,541.39,382.38Z"/><path class="cls-8" d="M563.42,387.07l5.61-.84c1.3-.19,1.72-.83,1.72-1.62,0-1.62-1.25-3-3.85-3a4.05,4.05,0,0,0-4.36,3.71l-5.47-1.16c.37-3.57,3.66-7.51,9.79-7.51,7.24,0,9.93,4.08,9.93,8.67v11.23a25.56,25.56,0,0,0,.28,3.62H571.4a15.46,15.46,0,0,1-.23-2.74,7.63,7.63,0,0,1-6.73,3.39c-4.87,0-7.84-3.29-7.84-6.87C556.6,389.9,559.61,387.63,563.42,387.07Zm7.33,3.9v-1l-5.15.79c-1.58.23-2.83,1.11-2.83,2.88a2.68,2.68,0,0,0,3,2.64C568.33,396.25,570.75,395,570.75,391Z"/><path class="cls-8" d="M595.79,409.2l5.38-11.87-9.69-19.95h6.91l6.08,13.36,5.61-13.36h6.59L602.33,409.2Z"/><path class="cls-8" d="M625.15,387.07l5.61-.84c1.3-.19,1.72-.83,1.72-1.62,0-1.62-1.25-3-3.85-3a4.05,4.05,0,0,0-4.36,3.71l-5.47-1.16c.37-3.57,3.66-7.51,9.79-7.51,7.24,0,9.93,4.08,9.93,8.67v11.23a25.56,25.56,0,0,0,.28,3.62h-5.66a15.46,15.46,0,0,1-.23-2.74,7.63,7.63,0,0,1-6.73,3.39c-4.87,0-7.84-3.29-7.84-6.87C618.33,389.9,621.34,387.63,625.15,387.07Zm7.33,3.9v-1l-5.15.79c-1.58.23-2.83,1.11-2.83,2.88a2.68,2.68,0,0,0,3,2.64C630.07,396.25,632.48,395,632.48,391Z"/><path class="cls-8" d="M650.89,400.2h-6.17V377.37h6v2.83a7.58,7.58,0,0,1,6.59-3.43c5.66,0,8.26,4,8.26,9V400.2h-6.17V386.88c0-2.55-1.25-4.55-4.22-4.55-2.69,0-4.27,2.09-4.27,4.73Z"/><path class="cls-8" d="M675.75,400a5.11,5.11,0,0,0,5.33,4.31c3.9,0,6.08-1.95,6.08-6.36v-1.67c-.93,1.48-3.06,2.92-6.35,2.92-6.08,0-10.62-4.68-10.62-11.09,0-6,4.36-11.13,10.62-11.13,3.62,0,5.71,1.58,6.49,3.11v-2.69h5.94v20.36c0,6.26-3.39,12-12,12-6.26,0-10.44-3.9-11.09-8.26Zm11.5-11.87c0-3.53-2.41-5.75-5.38-5.75a5.39,5.39,0,0,0-5.47,5.75c0,3.57,2.27,5.8,5.47,5.8S687.25,391.61,687.25,388.09Z"/><path class="cls-8" d="M716.38,387.07l5.61-.84c1.3-.19,1.72-.83,1.72-1.62,0-1.62-1.25-3-3.85-3a4.05,4.05,0,0,0-4.36,3.71L710,384.19c.37-3.57,3.66-7.51,9.79-7.51,7.24,0,9.93,4.08,9.93,8.67v11.23a25.56,25.56,0,0,0,.28,3.62h-5.66a15.46,15.46,0,0,1-.23-2.74,7.63,7.63,0,0,1-6.73,3.39c-4.87,0-7.84-3.29-7.84-6.87C709.56,389.9,712.57,387.63,716.38,387.07Zm7.33,3.9v-1l-5.15.79c-1.58.23-2.83,1.11-2.83,2.88a2.68,2.68,0,0,0,3,2.64C721.29,396.25,723.71,395,723.71,391Z"/><path class="cls-8" d="M748.94,387l9.32,13.22H750.7l-6-8.72-2.55,2.69v6h-6.17V366.61h6.17v19.25l7.89-8.49h8.07Z"/><path class="cls-8" d="M766.75,387.07l5.61-.84c1.3-.19,1.72-.83,1.72-1.62,0-1.62-1.25-3-3.85-3a4.05,4.05,0,0,0-4.36,3.71l-5.47-1.16c.37-3.57,3.66-7.51,9.79-7.51,7.24,0,9.93,4.08,9.93,8.67v11.23a25.56,25.56,0,0,0,.28,3.62h-5.66a15.46,15.46,0,0,1-.23-2.74,7.63,7.63,0,0,1-6.73,3.39c-4.87,0-7.84-3.29-7.84-6.87C759.93,389.9,762.94,387.63,766.75,387.07Zm7.33,3.9v-1l-5.15.79c-1.58.23-2.83,1.11-2.83,2.88a2.68,2.68,0,0,0,3,2.64C771.66,396.25,774.08,395,774.08,391Z"/><path class="cls-8" d="M792.49,400.2h-6.17V377.37h6v2.83a7.58,7.58,0,0,1,6.59-3.43c5.66,0,8.26,4,8.26,9V400.2H801V386.88c0-2.55-1.25-4.55-4.22-4.55-2.69,0-4.27,2.09-4.27,4.73Z"/><path class="cls-8" d="M824.86,400.2V377.37h5.89v2.78c1.25-2.23,4.17-3.43,6.68-3.43,3.11,0,5.61,1.34,6.77,3.8a7.93,7.93,0,0,1,7.24-3.8c4.22,0,8.26,2.55,8.26,8.67v14.8h-6V386.65c0-2.46-1.21-4.31-4-4.31a4.19,4.19,0,0,0-4.22,4.5V400.2h-6.12V386.65c0-2.46-1.25-4.31-4-4.31a4.18,4.18,0,0,0-4.27,4.5V400.2Z"/><path class="cls-8" d="M886.41,393.66c-1.16,3.94-4.78,7.24-10.39,7.24-6.26,0-11.78-4.5-11.78-12.2,0-7.28,5.38-12,11.23-12,7.05,0,11.27,4.5,11.27,11.83,0,.88-.09,1.81-.09,1.9H870.31a5.56,5.56,0,0,0,5.75,5.2,5,5,0,0,0,5.2-3.48Zm-5.75-7.47c-.09-2.27-1.58-4.5-5.1-4.5a4.94,4.94,0,0,0-5.1,4.5Z"/><path class="cls-8" d="M891.6,400.2V377.37h5.89v2.78c1.25-2.23,4.17-3.43,6.68-3.43,3.11,0,5.61,1.34,6.77,3.8a7.93,7.93,0,0,1,7.24-3.8c4.22,0,8.26,2.55,8.26,8.67v14.8h-6V386.65c0-2.46-1.21-4.31-4-4.31a4.19,4.19,0,0,0-4.22,4.5V400.2h-6.12V386.65c0-2.46-1.25-4.31-4-4.31a4.18,4.18,0,0,0-4.27,4.5V400.2Z"/><path class="cls-8" d="M953.15,393.66c-1.16,3.94-4.78,7.24-10.39,7.24-6.26,0-11.78-4.5-11.78-12.2,0-7.28,5.38-12,11.23-12,7.05,0,11.27,4.5,11.27,11.83,0,.88-.09,1.81-.09,1.9H937.05a5.56,5.56,0,0,0,5.75,5.2,5,5,0,0,0,5.2-3.48Zm-5.75-7.47c-.09-2.27-1.58-4.5-5.1-4.5a4.94,4.94,0,0,0-5.1,4.5Z"/><path class="cls-8" d="M964.51,400.2h-6.17V377.37h6v2.83a7.58,7.58,0,0,1,6.59-3.43c5.66,0,8.26,4,8.26,9V400.2H973V386.88c0-2.55-1.25-4.55-4.22-4.55-2.69,0-4.27,2.09-4.27,4.73Z"/><path class="cls-8" d="M990.86,387.07l5.61-.84c1.3-.19,1.72-.83,1.72-1.62,0-1.62-1.25-3-3.85-3a4.05,4.05,0,0,0-4.36,3.71l-5.47-1.16c.37-3.57,3.66-7.51,9.79-7.51,7.24,0,9.93,4.08,9.93,8.67v11.23a25.56,25.56,0,0,0,.28,3.62h-5.66a15.46,15.46,0,0,1-.23-2.74,7.63,7.63,0,0,1-6.73,3.39c-4.87,0-7.84-3.29-7.84-6.87C984,389.9,987.05,387.63,990.86,387.07Zm7.33,3.9v-1l-5.15.79c-1.58.23-2.83,1.11-2.83,2.88a2.68,2.68,0,0,0,3,2.64C995.77,396.25,998.18,395,998.18,391Z"/><path class="cls-8" d="M1016.6,400.2h-6.17V377.37h6v2.83a7.58,7.58,0,0,1,6.59-3.43c5.66,0,8.26,4,8.26,9V400.2h-6.17V386.88c0-2.55-1.25-4.55-4.22-4.55-2.69,0-4.27,2.09-4.27,4.73Z"/><path class="cls-8" d="M1041.46,400a5.11,5.11,0,0,0,5.33,4.31c3.9,0,6.08-1.95,6.08-6.36v-1.67c-.93,1.48-3.06,2.92-6.35,2.92-6.08,0-10.62-4.68-10.62-11.09,0-6,4.36-11.13,10.62-11.13,3.62,0,5.71,1.58,6.49,3.11v-2.69h5.94v20.36c0,6.26-3.39,12-12,12-6.26,0-10.44-3.9-11.09-8.26Zm11.5-11.87c0-3.53-2.41-5.75-5.38-5.75a5.39,5.39,0,0,0-5.47,5.75c0,3.57,2.27,5.8,5.47,5.8S1053,391.61,1053,388.09Z"/><path class="cls-8" d="M1078.19,387l9.32,13.22H1080l-6-8.72-2.55,2.69v6h-6.17V366.61h6.17v19.25l7.89-8.49h8.07Z"/><path class="cls-8" d="M1096,387.07l5.61-.84c1.3-.19,1.72-.83,1.72-1.62,0-1.62-1.25-3-3.85-3a4.05,4.05,0,0,0-4.36,3.71l-5.47-1.16c.37-3.57,3.66-7.51,9.79-7.51,7.24,0,9.93,4.08,9.93,8.67v11.23a25.56,25.56,0,0,0,.28,3.62H1104a15.46,15.46,0,0,1-.23-2.74,7.63,7.63,0,0,1-6.73,3.39c-4.87,0-7.84-3.29-7.84-6.87C1089.18,389.9,1092.2,387.63,1096,387.07Zm7.33,3.9v-1l-5.15.79c-1.58.23-2.83,1.11-2.83,2.88a2.68,2.68,0,0,0,3,2.64C1100.92,396.25,1103.33,395,1103.33,391Z"/><path class="cls-8" d="M1121.74,400.2h-6.17V377.37h6v2.83a7.58,7.58,0,0,1,6.59-3.43c5.66,0,8.26,4,8.26,9V400.2h-6.17V386.88c0-2.55-1.25-4.55-4.22-4.55-2.69,0-4.27,2.09-4.27,4.73Z"/><path class="cls-8" d="M429.63,460.22V428.58h6v2.78c1-1.76,3.57-3.29,7-3.29,6.68,0,10.53,5.1,10.53,11.88s-4.31,12-10.76,12c-3.15,0-5.47-1.25-6.59-2.78v11Zm11.78-26.63c-3.15,0-5.71,2.37-5.71,6.4s2.55,6.45,5.71,6.45,5.66-2.37,5.66-6.45S444.57,433.59,441.42,433.59Z"/><path class="cls-8" d="M478.47,444.86c-1.16,3.94-4.78,7.24-10.39,7.24-6.26,0-11.78-4.5-11.78-12.2,0-7.28,5.38-12,11.23-12,7.05,0,11.27,4.5,11.27,11.83,0,.88-.09,1.81-.09,1.9H462.38a5.56,5.56,0,0,0,5.75,5.2,5,5,0,0,0,5.2-3.48Zm-5.75-7.47c-.09-2.27-1.58-4.5-5.1-4.5a4.94,4.94,0,0,0-5.1,4.5Z"/><path class="cls-8" d="M483.67,460.22V428.58h6v2.78c1-1.76,3.57-3.29,7-3.29,6.68,0,10.53,5.1,10.53,11.88s-4.31,12-10.76,12c-3.15,0-5.47-1.25-6.59-2.78v11Zm11.78-26.63c-3.15,0-5.71,2.37-5.71,6.4s2.55,6.45,5.71,6.45,5.66-2.37,5.66-6.45S498.6,433.59,495.45,433.59Z"/><path class="cls-8" d="M532.51,444.86c-1.16,3.94-4.78,7.24-10.39,7.24-6.26,0-11.78-4.5-11.78-12.2,0-7.28,5.38-12,11.23-12,7.05,0,11.27,4.5,11.27,11.83,0,.88-.09,1.81-.09,1.9H516.41a5.56,5.56,0,0,0,5.75,5.2,5,5,0,0,0,5.2-3.48Zm-5.75-7.47c-.09-2.27-1.58-4.5-5.1-4.5a4.94,4.94,0,0,0-5.1,4.5Z"/><path class="cls-8" d="M551.62,434.71a9.25,9.25,0,0,0-1.86-.19c-3.15,0-5.89,1.53-5.89,6.45V451.4H537.7V428.58h6V432c1.39-3,4.55-3.57,6.49-3.57a13.91,13.91,0,0,1,1.44.09Z"/><path class="cls-8" d="M561.54,438.28l5.61-.83c1.3-.19,1.72-.84,1.72-1.62,0-1.62-1.25-3-3.85-3a4.05,4.05,0,0,0-4.36,3.71l-5.47-1.16c.37-3.57,3.66-7.52,9.79-7.52,7.24,0,9.93,4.08,9.93,8.67v11.23a25.55,25.55,0,0,0,.28,3.62h-5.66a15.45,15.45,0,0,1-.23-2.74,7.63,7.63,0,0,1-6.73,3.39c-4.87,0-7.84-3.29-7.84-6.87C554.72,441.11,557.74,438.83,561.54,438.28Zm7.33,3.9v-1l-5.15.79c-1.58.23-2.83,1.11-2.83,2.88a2.68,2.68,0,0,0,3,2.64C566.46,447.46,568.87,446.21,568.87,442.17Z"/><path class="cls-8" d="M587.28,451.4h-6.17V428.58h6v2.83a7.58,7.58,0,0,1,6.59-3.43c5.66,0,8.26,4,8.26,9V451.4h-6.17V438.09c0-2.55-1.25-4.54-4.22-4.54-2.69,0-4.27,2.09-4.27,4.73Z"/><path class="cls-8" d="M612.14,451.17a5.11,5.11,0,0,0,5.33,4.31c3.9,0,6.08-1.95,6.08-6.35v-1.67c-.93,1.48-3.06,2.92-6.35,2.92-6.08,0-10.62-4.69-10.62-11.09,0-6,4.36-11.13,10.62-11.13,3.62,0,5.71,1.58,6.49,3.11v-2.69h5.94v20.36c0,6.26-3.39,12-12,12-6.26,0-10.44-3.9-11.09-8.26Zm11.5-11.87c0-3.53-2.41-5.75-5.38-5.75a5.39,5.39,0,0,0-5.47,5.75c0,3.57,2.27,5.8,5.47,5.8S623.64,442.82,623.64,439.3Z"/><path class="cls-8" d="M641.08,438.28l5.61-.83c1.3-.19,1.72-.84,1.72-1.62,0-1.62-1.25-3-3.85-3a4.05,4.05,0,0,0-4.36,3.71l-5.47-1.16c.37-3.57,3.66-7.52,9.79-7.52,7.24,0,9.93,4.08,9.93,8.67v11.23a25.55,25.55,0,0,0,.28,3.62h-5.66a15.45,15.45,0,0,1-.23-2.74,7.63,7.63,0,0,1-6.73,3.39c-4.87,0-7.84-3.29-7.84-6.87C634.26,441.11,637.28,438.83,641.08,438.28Zm7.33,3.9v-1l-5.15.79c-1.58.23-2.83,1.11-2.83,2.88a2.68,2.68,0,0,0,3,2.64C646,447.46,648.41,446.21,648.41,442.17Z"/><path class="cls-8" d="M666.82,451.4h-6.17V428.58h6v2.83a7.58,7.58,0,0,1,6.59-3.43c5.66,0,8.26,4,8.26,9V451.4h-6.17V438.09c0-2.55-1.25-4.54-4.22-4.54-2.69,0-4.27,2.09-4.27,4.73Z"/><path class="cls-8" d="M691.5,443.8c2.88,0,4.59,2.32,4.59,5.33,0,6.82-4.73,9.69-8.16,10.11v-3a5.69,5.69,0,0,0,4.41-5,2.41,2.41,0,0,1-1.21.28,3.7,3.7,0,0,1-3.85-3.85A4,4,0,0,1,691.5,443.8Z"/><path class="cls-8" d="M713.8,439.76V418.52h6.4V439.3c0,4.31,2.41,6.59,6.22,6.59s6.26-2.27,6.26-6.59V418.52h6.4v21.24c0,8.07-5.61,12.39-12.66,12.39S713.8,447.83,713.8,439.76Z"/><path class="cls-8" d="M745.81,451.4V417.82h6.08v13.27c1-1.62,3.53-3.11,6.91-3.11,6.68,0,10.53,5.15,10.53,11.92S765.06,452,758.56,452a7.73,7.73,0,0,1-6.77-3.34v2.78ZM757.5,433.5c-3.11,0-5.71,2.27-5.71,6.45s2.6,6.49,5.71,6.49,5.66-2.32,5.66-6.49S760.65,433.5,757.5,433.5Z"/><path class="cls-8" d="M794.65,444.86c-1.16,3.94-4.78,7.24-10.39,7.24-6.26,0-11.78-4.5-11.78-12.2,0-7.28,5.38-12,11.23-12,7.05,0,11.27,4.5,11.27,11.83,0,.88-.09,1.81-.09,1.9H778.55a5.56,5.56,0,0,0,5.75,5.2,5,5,0,0,0,5.2-3.48Zm-5.75-7.47c-.09-2.27-1.58-4.5-5.1-4.5a4.94,4.94,0,0,0-5.1,4.5Z"/><path class="cls-8" d="M813.76,434.71a9.25,9.25,0,0,0-1.86-.19c-3.15,0-5.89,1.53-5.89,6.45V451.4h-6.17V428.58h6V432c1.39-3,4.55-3.57,6.49-3.57a13.91,13.91,0,0,1,1.44.09Z"/><path class="cls-8" d="M818.11,443.8c2.88,0,4.59,2.32,4.59,5.33,0,6.82-4.73,9.69-8.16,10.11v-3a5.69,5.69,0,0,0,4.41-5,2.41,2.41,0,0,1-1.21.28,3.7,3.7,0,0,1-3.85-3.85A4,4,0,0,1,818.11,443.8Z"/><path class="cls-8" d="M865.33,451.4l-.42-3.76c-1.48,2.23-4.73,4.45-9.69,4.45-8.86,0-16.42-6.49-16.42-17.12s7.93-17.16,16.84-17.16c8.63,0,13.41,5.06,15,10.11l-6.12,2.18a8.78,8.78,0,0,0-8.91-6.31c-5,0-10.34,3.39-10.34,11.18,0,7.42,4.87,11.27,10.39,11.27,6.08,0,8.44-4.08,8.81-6.4H854.11v-5.57h16.42V451.4Z"/><path class="cls-8" d="M890.42,434.71a9.25,9.25,0,0,0-1.86-.19c-3.15,0-5.89,1.53-5.89,6.45V451.4h-6.17V428.58h6V432c1.39-3,4.55-3.57,6.49-3.57a13.91,13.91,0,0,1,1.44.09Z"/><path class="cls-8" d="M900.35,438.28l5.61-.83c1.3-.19,1.72-.84,1.72-1.62,0-1.62-1.25-3-3.85-3a4.05,4.05,0,0,0-4.36,3.71L894,435.4c.37-3.57,3.66-7.52,9.79-7.52,7.24,0,9.93,4.08,9.93,8.67v11.23a25.55,25.55,0,0,0,.28,3.62h-5.66a15.45,15.45,0,0,1-.23-2.74,7.63,7.63,0,0,1-6.73,3.39c-4.87,0-7.84-3.29-7.84-6.87C893.53,441.11,896.54,438.83,900.35,438.28Zm7.33,3.9v-1l-5.15.79c-1.58.23-2.83,1.11-2.83,2.88a2.68,2.68,0,0,0,3,2.64C905.26,447.46,907.67,446.21,907.67,442.17Z"/><path class="cls-8" d="M919.92,451.4V417.82H926v13.27c1-1.62,3.53-3.11,6.91-3.11,6.68,0,10.53,5.15,10.53,11.92S939.17,452,932.67,452a7.73,7.73,0,0,1-6.77-3.34v2.78Zm11.69-17.91c-3.11,0-5.71,2.27-5.71,6.45s2.6,6.49,5.71,6.49,5.66-2.32,5.66-6.49S934.76,433.5,931.61,433.5Z"/><path class="cls-8" d="M965.18,438.28l5.61-.83c1.3-.19,1.72-.84,1.72-1.62,0-1.62-1.25-3-3.85-3a4.05,4.05,0,0,0-4.36,3.71l-5.47-1.16c.37-3.57,3.66-7.52,9.79-7.52,7.24,0,9.93,4.08,9.93,8.67v11.23a25.55,25.55,0,0,0,.28,3.62h-5.66a15.45,15.45,0,0,1-.23-2.74,7.63,7.63,0,0,1-6.73,3.39c-4.87,0-7.84-3.29-7.84-6.87C958.37,441.11,961.38,438.83,965.18,438.28Zm7.33,3.9v-1l-5.15.79c-1.58.23-2.83,1.11-2.83,2.88a2.68,2.68,0,0,0,3,2.64C970.1,447.46,972.51,446.21,972.51,442.17Z"/><path class="cls-8" d="M992.22,428.58h4.59v5.47h-4.59v9.56c0,2,.93,2.64,2.69,2.64a8.89,8.89,0,0,0,1.9-.19v5.1a9.16,9.16,0,0,1-3.48.56c-4.45,0-7.24-2.64-7.24-7.05V434.06H982v-5.47h1.16a3.29,3.29,0,0,0,3.53-3.62v-3.2h5.57Z"/><path class="cls-8" d="M1007.62,438.28l5.61-.83c1.3-.19,1.72-.84,1.72-1.62,0-1.62-1.25-3-3.85-3a4.05,4.05,0,0,0-4.36,3.71l-5.47-1.16c.37-3.57,3.66-7.52,9.79-7.52,7.24,0,9.93,4.08,9.93,8.67v11.23a25.55,25.55,0,0,0,.28,3.62h-5.66a15.45,15.45,0,0,1-.23-2.74,7.63,7.63,0,0,1-6.73,3.39c-4.87,0-7.84-3.29-7.84-6.87C1000.8,441.11,1003.82,438.83,1007.62,438.28Zm7.33,3.9v-1l-5.15.79c-1.58.23-2.83,1.11-2.83,2.88a2.68,2.68,0,0,0,3,2.64C1012.54,447.46,1015,446.21,1015,442.17Z"/><path class="cls-8" d="M1041.62,448.95c-1.25,2.13-3.9,3.06-6.31,3.06-5.52,0-8.67-4-8.67-9V428.58h6.17v13.17c0,2.55,1.3,4.59,4.17,4.59s4.31-1.86,4.31-4.5V428.58h6.17v18.69a37.54,37.54,0,0,0,.23,4.13h-5.89A15.61,15.61,0,0,1,1041.62,448.95Z"/><path class="cls-8" d="M1079.79,424.59V451.4h-6.45V424.59H1063v-6.08h27.23v6.08Z"/><path class="cls-8" d="M1095.7,438.28l5.61-.83c1.3-.19,1.72-.84,1.72-1.62,0-1.62-1.25-3-3.85-3a4.05,4.05,0,0,0-4.36,3.71l-5.47-1.16c.37-3.57,3.66-7.52,9.79-7.52,7.24,0,9.93,4.08,9.93,8.67v11.23a25.55,25.55,0,0,0,.28,3.62h-5.66a15.45,15.45,0,0,1-.23-2.74,7.63,7.63,0,0,1-6.73,3.39c-4.87,0-7.84-3.29-7.84-6.87C1088.88,441.11,1091.89,438.83,1095.7,438.28Zm7.33,3.9v-1l-5.15.79c-1.58.23-2.83,1.11-2.83,2.88a2.68,2.68,0,0,0,3,2.64C1100.61,447.46,1103,446.21,1103,442.17Z"/><path class="cls-8" d="M1120.65,439.95l-8.12-11.36h7.33c.79,1.25,3.76,5.52,4.55,6.77l4.5-6.77h7l-8,11.18,8.26,11.64H1129l-4.78-7c-.83,1.25-3.9,5.75-4.69,7h-7Z"/><path class="cls-8" d="M1143,417.26a3.8,3.8,0,1,1-3.8,3.85A3.8,3.8,0,0,1,1143,417.26Zm-3.06,34.14V428.58h6.17V451.4Z"/><path class="cls-8" d="M1158.17,441.38a12,12,0,0,1-.19-1.9,8.12,8.12,0,0,1,3.66-6.73l2.23-1.67a4.39,4.39,0,0,0,2-3.66c0-2.13-1.53-4.18-4.64-4.18-3.29,0-4.73,2.64-4.73,5.24a4.82,4.82,0,0,0,.19,1.48l-5.84-.23a7.78,7.78,0,0,1-.23-2.09c0-5,3.76-9.83,10.62-9.83,7.19,0,10.95,4.55,10.95,9.23,0,3.66-1.86,6.26-4.59,8.21l-1.9,1.34a5.3,5.3,0,0,0-2.5,4.5v.28Zm2.6,3a3.72,3.72,0,0,1,3.71,3.71,3.68,3.68,0,0,1-3.71,3.67,3.64,3.64,0,0,1-3.66-3.67A3.68,3.68,0,0,1,1160.77,444.4Z"/></svg>
