<!-- Generator: Adobe Illustrator 19.0.0, SVG Export Plug-In  -->
<svg version="1.1"
	 xmlns="http://www.w3.org/2000/svg" xmlns:xlink="http://www.w3.org/1999/xlink" xmlns:a="http://ns.adobe.com/AdobeSVGViewerExtensions/3.0/"
	 x="0px" y="0px" width="172px" height="99.6px" viewBox="0 0 172 99.6" style="enable-background:new 0 0 172 99.6;"
	 xml:space="preserve">
<style type="text/css">
	.st0{fill:#FF6633;}
	.st1{fill:#F99700;}
	.st2{fill:#FFFFFF;}
	.st3{opacity:0.35;fill:#DADFE0;}
	.st4{opacity:0.35;fill:#F4F4F4;}
</style>
<defs>
</defs>
<g>
	<path class="st0" d="M158,99.6H14c-7.7,0-14-6.3-14-14V14C0,6.3,6.3,0,14,0h144c7.7,0,14,6.3,14,14v71.6
		C172,93.3,165.7,99.6,158,99.6z"/>
	<path class="st1" d="M29.7,74.9H13.4c-2.5,0-4.5-2-4.5-4.5v-8.8c0-2.5,2-4.5,4.5-4.5h16.3c2.5,0,4.5,2,4.5,4.5v8.8
		C34.2,72.9,32.2,74.9,29.7,74.9z"/>
	<rect x="8.9" y="82.5" class="st2" width="11.4" height="2.7"/>
	<rect x="24.9" y="82.5" class="st2" width="11.4" height="2.7"/>
	<rect x="40.9" y="82.5" class="st2" width="11.4" height="2.7"/>
	<rect x="56.9" y="82.5" class="st2" width="11.4" height="2.7"/>
	<polygon class="st3" points="120.1,0 70,99.6 88.3,99.6 138.8,0 	"/>
	<polygon class="st4" points="147.3,0 97.3,99.6 115.6,99.6 166,0 	"/>
</g>
</svg>