<!-- Generator: Adobe Illustrator 19.0.0, SVG Export Plug-In  -->
<svg version="1.1"
	 xmlns="http://www.w3.org/2000/svg" xmlns:xlink="http://www.w3.org/1999/xlink" xmlns:a="http://ns.adobe.com/AdobeSVGViewerExtensions/3.0/"
	 x="0px" y="0px" width="80.3px" height="118.7px" viewBox="0 0 80.3 118.7" style="enable-background:new 0 0 80.3 118.7;"
	 xml:space="preserve">
<style type="text/css">
	.st0{fill:#FFFFFF;stroke:#FF6633;stroke-width:3;stroke-miterlimit:10;}
	.st1{fill:#FFFFFF;stroke:#FF6633;stroke-width:2;stroke-miterlimit:10;}
	.st2{fill:#FFFFFF;stroke:#FF6633;stroke-miterlimit:10;}
	.st3{fill:none;stroke:#FF6633;stroke-width:2;stroke-linecap:round;stroke-linejoin:round;stroke-miterlimit:10;}
	.st4{fill:#FFFFFF;stroke:#FF6633;stroke-width:1.8254;stroke-linecap:round;stroke-linejoin:round;stroke-miterlimit:10;}
	.st5{fill:#FF6633;}
	.st6{fill:none;stroke:#FF6633;stroke-width:1.9267;stroke-miterlimit:10;}
	.st7{fill:none;stroke:#FF6633;stroke-width:1.0536;stroke-miterlimit:10;}
</style>
<defs>
</defs>
<path class="st0" d="M3.9,31.3l0.3,2.1v83.8l72-1.4V34v0.2l-0.6-2.6c0-16.6-16.1-30.1-35.8-30.1C20,1.5,3.9,14.7,3.9,31.3"/>
<path class="st1" d="M11.7,68h0.5c-5.2,0-8.5-3.9-8.5-9.1v-0.8C3.7,52.8,7,47,12.2,47h-0.5"/>
<path class="st1" d="M77.7,55.8c0-4.3-3.5-7.8-7.8-7.8h-4.4c-4.3,0-7.8,3.5-7.8,7.8v4.4c0,4.3,3.5,7.8,7.8,7.8h4.4
	c4.3,0,7.8-3.5,7.8-7.8V55.8z"/>
<polyline class="st2" points="29.2,82 29.2,103.5 51.2,103.5 51.2,82 "/>
<path class="st3" d="M38.9,88.5c-3.4-0.3-24.2-2.5-25.2-21.4V47.8V47h10V29.4L30.8,47h43.9"/>
<path class="st4" d="M64.8,46.8l0.5,20.4C63,86,42.1,88.1,38.7,88.4c0,0-13.2-0.3-20.7-9.5"/>
<path class="st5" d="M29.7,58.4c0,1.4-1.1,2.5-2.5,2.5l0,0c-1.4,0-2.5-1.1-2.5-2.5v-3.6c0-1.4,1.1-2.5,2.5-2.5l0,0
	c1.4,0,2.5,1.1,2.5,2.5V58.4z"/>
<path class="st5" d="M55.7,58.4c0,1.4-1.1,2.5-2.5,2.5l0,0c-1.4,0-2.5-1.1-2.5-2.5v-3.6c0-1.4,1.1-2.5,2.5-2.5l0,0
	c1.4,0,2.5,1.1,2.5,2.5V58.4z"/>
<path class="st1" d="M28.9,42h-5.1c-0.3,0-0.6,0-0.6,0l0,0c0,0,0.2,0,0.6,0H28.9c0.3,0,0.6,0,0.6,0l0,0C29.5,42,29.2,42,28.9,42z"/>
<path class="st5" d="M54.5,95H41.8h-3.7H25.9C2.5,100.3,0,118,0,118h38.1h3.7h38.5C80.3,118,77.9,100.3,54.5,95z"/>
<path class="st1" d="M55.3,42h-5.1c-0.3,0-0.6,0-0.6,0l0,0c0,0,0.2,0,0.6,0H55.3c0.3,0,0.6,0,0.6,0l0,0C55.8,42,55.6,42,55.3,42z"/>
<polygon class="st1" points="40.5,52.3 35.5,67 45.7,67 "/>
<path class="st6" d="M50.3,64c0,5.4-4.4,9.9-9.8,9.9c-5.4,0-9.8-4.4-9.8-9.9"/>
<path class="st7" d="M54.6,54c0,0,1,2.3,3.3,0"/>
<path class="st7" d="M22.2,54c0,0,1,2.3,3.3,0"/>
</svg>