<!-- Generator: Adobe Illustrator 19.0.0, SVG Export Plug-In  -->
<svg version="1.1"
	 xmlns="http://www.w3.org/2000/svg" xmlns:xlink="http://www.w3.org/1999/xlink" xmlns:a="http://ns.adobe.com/AdobeSVGViewerExtensions/3.0/"
	 x="0px" y="0px" width="124.2px" height="120.8px" viewBox="0 0 124.2 120.8" style="enable-background:new 0 0 124.2 120.8;"
	 xml:space="preserve">
<style type="text/css">
	.st0{fill:#086A87;}
	.st1{fill:#F45722;}
	.st2{fill:#EDEDED;}
	.st3{fill:#838A8C;}
	.st4{fill:#FF6633;}
	.st5{fill:#8FD7E8;}
	.st6{fill:#F9CF00;}
	.st7{fill:#F99700;}
	.st8{fill:#FAFFFF;}
</style>
<defs>
</defs>
<g>
	<circle class="st0" cx="63.8" cy="60.4" r="60.4"/>
	<rect x="51.6" y="75.3" class="st1" width="25.7" height="18.5"/>
	<path class="st1" d="M102.1,80.9H22.1c-2.4,0-4.5-2-4.5-4.5v-50c0-2.4,2-4.5,4.5-4.5h79.9c2.4,0,4.5,2,4.5,4.5v50
		C106.5,78.9,104.5,80.9,102.1,80.9z"/>
	<rect x="23.8" y="27.6" class="st2" width="76.5" height="47.8"/>
	<path class="st3" d="M53.5,50.1c0,0-1.7,10.6,5.8,9.9c0,0,5.6-1.1,5.6-7.2L53.5,50.1z"/>
	<path class="st3" d="M74,50.1c0,0,1.7,10.6-5.8,9.9c0,0-5.6-1.1-5.6-7.2L74,50.1z"/>
	<rect x="47.4" y="89" class="st1" width="34.8" height="5.1"/>
	<ellipse class="st4" cx="64.8" cy="49.7" rx="22" ry="5.4"/>
	<path class="st4" d="M73.6,47.7H53.5c0,0-0.2-3.3,0.6-6.6c0.5-2.2,1.5-4.5,3.3-5.8c1.3-1,3.2-0.8,4.3,0.3l0,0
		c1.1,1.1,2.8,1.2,4,0.3l1.3-1c0.8-0.6,1.9-0.7,2.8-0.1c1.4,0.9,3.5,2.8,4.1,6.2C74.3,42.9,74.3,45,73.6,47.7z"/>
	<path class="st5" d="M73.6,47.7H53.5c0,0-0.2-3.3,0.6-6.6H74C74.3,42.9,74.3,45,73.6,47.7z"/>
	<circle class="st6" cx="19.6" cy="74.3" r="19.6"/>
	<circle class="st7" cx="19.6" cy="70.2" r="19.6"/>
	<g>
		<path class="st8" d="M27.2,74.1c0,1.6-0.6,2.9-1.8,3.9c-1.2,1-2.8,1.6-4.9,1.8v3.1h-2.1v-3.1c-2.5-0.1-4.6-0.5-6.5-1.3v-4
			c0.9,0.4,1.9,0.8,3.2,1.2c1.2,0.3,2.4,0.5,3.3,0.6v-4.7l-1-0.4c-2-0.8-3.4-1.7-4.3-2.6c-0.8-0.9-1.3-2.1-1.3-3.4
			c0-1.5,0.6-2.7,1.7-3.6c1.2-0.9,2.8-1.5,4.8-1.7v-2.3h2.1v2.3c2.3,0.1,4.4,0.6,6.3,1.4l-1.4,3.6c-1.6-0.6-3.2-1-4.9-1.2V68
			c2,0.8,3.4,1.4,4.2,2c0.8,0.6,1.5,1.2,1.8,1.8C27,72.5,27.2,73.2,27.2,74.1z M16.5,65.1c0,0.4,0.2,0.8,0.5,1.1s0.8,0.6,1.5,0.9
			v-3.6C17.2,63.7,16.5,64.3,16.5,65.1z M22.6,74.4c0-0.4-0.2-0.8-0.5-1.1c-0.3-0.3-0.9-0.6-1.6-0.9v3.8
			C21.9,75.9,22.6,75.3,22.6,74.4z"/>
	</g>
</g>
</svg>