<!-- Generator: Adobe Illustrator 19.0.0, SVG Export Plug-In  -->
<svg version="1.1"
	 xmlns="http://www.w3.org/2000/svg" xmlns:xlink="http://www.w3.org/1999/xlink" xmlns:a="http://ns.adobe.com/AdobeSVGViewerExtensions/3.0/"
	 x="0px" y="0px" width="169.7px" height="120.8px" viewBox="0 0 169.7 120.8" style="enable-background:new 0 0 169.7 120.8;"
	 xml:space="preserve">
<style type="text/css">
	.st0{fill:#F45722;}
	.st1{fill:#086A87;}
	.st2{fill:#FFFFFF;}
	.st3{fill:#0B4451;}
	.st4{fill:#A6D9F5;}
	.st5{fill:#F99700;}
</style>
<defs>
</defs>
<g>
	<circle class="st0" cx="66.3" cy="60.4" r="60.4"/>
	<rect y="37.4" class="st1" width="120.5" height="37.6"/>
	<g>
		<path class="st2" d="M20.1,48.3l-0.7,6l6.1-1.7l0.5,4.1l-5.6,0.4l3.7,4.9l-3.7,2l-2.6-5.1L15.7,64l-3.9-2l3.6-4.9l-5.5-0.4
			l0.6-4.1l6,1.7l-0.7-6H20.1z"/>
	</g>
	<g>
		<path class="st2" d="M41.3,48.3l-0.7,6l6.1-1.7l0.5,4.1l-5.6,0.4l3.7,4.9l-3.7,2L39,58.9L36.8,64l-3.9-2l3.6-4.9L31,56.7l0.6-4.1
			l6,1.7l-0.7-6H41.3z"/>
	</g>
	<g>
		<path class="st2" d="M62.4,48.3l-0.7,6l6.1-1.7l0.5,4.1l-5.6,0.4l3.7,4.9l-3.7,2l-2.6-5.1L57.9,64L54,62l3.6-4.9l-5.5-0.4l0.6-4.1
			l6,1.7l-0.7-6H62.4z"/>
	</g>
	<g>
		<path class="st2" d="M83.5,48.3l-0.7,6l6.1-1.7l0.5,4.1l-5.6,0.4l3.7,4.9l-3.7,2l-2.6-5.1L79,64l-3.9-2l3.6-4.9l-5.5-0.4l0.6-4.1
			l6,1.7l-0.7-6H83.5z"/>
	</g>
	<g>
		<path class="st2" d="M104.6,48.3l-0.7,6l6.1-1.7l0.5,4.1l-5.6,0.4l3.7,4.9l-3.7,2l-2.6-5.1l-2.2,5.1l-3.9-2l3.6-4.9l-5.5-0.4
			l0.6-4.1l6,1.7l-0.7-6H104.6z"/>
	</g>
	<rect y="75" class="st3" width="120.5" height="8.5"/>
	<rect x="120.5" y="37.4" class="st4" width="49.2" height="37.6"/>
	<rect x="120.5" y="75" class="st3" width="49.2" height="8.5"/>
	
		<rect x="135.4" y="81.9" transform="matrix(0.7071 0.7071 -0.7071 0.7071 105.4258 -82.2376)" class="st5" width="33.2" height="8.5"/>
	<polygon class="st5" points="131.7,66.9 131.7,95.6 157.1,66.9 	"/>
</g>
</svg>