<!-- Generator: Adobe Illustrator 19.0.0, SVG Export Plug-In  -->
<svg version="1.1"
	 xmlns="http://www.w3.org/2000/svg" xmlns:xlink="http://www.w3.org/1999/xlink" xmlns:a="http://ns.adobe.com/AdobeSVGViewerExtensions/3.0/"
	 x="0px" y="0px" width="156.8px" height="48.2px" viewBox="0 0 156.8 48.2" style="enable-background:new 0 0 156.8 48.2;"
	 xml:space="preserve">
<style type="text/css">
	.st0{fill:#FFFFFF;}
</style>
<defs>
</defs>
<g>
	<path class="st0" d="M0,2.8C0,1.2,1.3,0,2.9,0c1.5,0,2.9,1.2,2.9,2.8c0,1.7-1.3,2.9-2.9,2.9C1.3,5.7,0,4.5,0,2.8z"/>
	<rect y="11.1" class="st0" width="5.8" height="23.7"/>
	<path class="st0" d="M63.2,0c-1.5,0-2.8,1.2-2.8,2.8c0,1.7,1.3,2.8,2.8,2.8c1.5,0,2.8-1.1,2.8-2.8C66.1,1.2,64.8,0,63.2,0z"/>
	<rect x="60.3" y="11.1" class="st0" width="5.8" height="24.3"/>
	<g>
		<path class="st0" d="M25.2,44.3l-2.3-4.2H24l1.4,2.5c0.2,0.3,0.4,0.9,0.4,0.9s0.2-0.5,0.4-0.9l1.4-2.5h1l-2.2,4.2v2h-1V44.3z"/>
		<path class="st0" d="M27.9,44.3c0-1.1,0.9-2,2.1-2c1.2,0,2,0.9,2,2c0,1.1-0.9,2-2,2C28.8,46.3,27.9,45.5,27.9,44.3z M31,44.3
			c0-0.7-0.4-1.2-1.1-1.2c-0.7,0-1.1,0.5-1.1,1.2c0,0.7,0.4,1.2,1.1,1.2C30.6,45.5,31,45,31,44.3z"/>
		<path class="st0" d="M32.9,44.7v-2.3h0.9v2.2c0,0.5,0.3,0.9,0.8,0.9c0.6,0,1-0.4,1-1v-2.1h0.9v3.8h-0.9l0-0.7
			c-0.2,0.5-0.7,0.8-1.3,0.8C33.5,46.3,32.9,45.7,32.9,44.7z"/>
		<path class="st0" d="M37.7,42.4h0.9l0,0.7c0.3-0.6,0.7-0.8,1.1-0.8c0.3,0,0.5,0.1,0.6,0.2L40,43.3c-0.1-0.1-0.3-0.1-0.5-0.1
			c-0.5,0-0.9,0.3-0.9,1.2v1.9h-0.9V42.4z"/>
		<path class="st0" d="M42.9,44.3c0-1.1,0.9-2,2.1-2c1.2,0,2,0.9,2,2c0,1.1-0.9,2-2,2C43.8,46.3,42.9,45.5,42.9,44.3z M46.1,44.3
			c0-0.7-0.4-1.2-1.1-1.2c-0.7,0-1.1,0.5-1.1,1.2c0,0.7,0.4,1.2,1.1,1.2C45.7,45.5,46.1,45,46.1,44.3z"/>
		<path class="st0" d="M48,42.4h0.9l0,0.7c0.2-0.5,0.7-0.8,1.3-0.8c0.8,0,1.4,0.6,1.4,1.6v2.3h-0.9V44c0-0.5-0.3-0.9-0.8-0.9
			c-0.6,0-1,0.4-1,1v2.1H48V42.4z"/>
		<path class="st0" d="M54.7,45.5c0.5,0,0.9-0.2,1.1-0.4l0.5,0.6c-0.4,0.4-0.8,0.6-1.6,0.6c-1.3,0-2.1-0.8-2.1-2c0-1.1,0.9-2,2-2
			c1.3,0,2,1,2,2.3h-3.1C53.6,45.2,54,45.5,54.7,45.5z M55.6,44c-0.1-0.5-0.4-0.9-1-0.9c-0.6,0-1,0.3-1.1,0.9H55.6z"/>
		<path class="st0" d="M59.2,45.5l0.6-0.4c0.2,0.3,0.6,0.5,1,0.5c0.5,0,0.7-0.2,0.7-0.4c0-0.3-0.3-0.4-0.9-0.5
			c-0.6-0.2-1.1-0.4-1.1-1.2c0-0.8,0.6-1.1,1.4-1.1c0.6,0,1,0.3,1.3,0.6l-0.5,0.5c-0.2-0.2-0.4-0.4-0.8-0.4c-0.3,0-0.5,0.1-0.5,0.4
			c0,0.3,0.2,0.4,0.8,0.5c0.6,0.2,1.3,0.4,1.3,1.2c0,0.7-0.4,1.2-1.5,1.2C60.1,46.3,59.5,45.9,59.2,45.5z"/>
		<path class="st0" d="M63.5,44.9v-1.8h-0.6v-0.8h0.6v-2h0.9v2h1v0.8h-1V45c0,0.4,0.1,0.6,0.4,0.6c0.2,0,0.4-0.1,0.5-0.2l0.4,0.6
			c-0.2,0.2-0.5,0.4-1,0.4C64,46.3,63.5,46,63.5,44.9z"/>
		<path class="st0" d="M66.2,44.3c0-1.1,0.9-2,2.1-2c1.2,0,2,0.9,2,2c0,1.1-0.9,2-2,2C67.1,46.3,66.2,45.5,66.2,44.3z M69.4,44.3
			c0-0.7-0.4-1.2-1.1-1.2c-0.7,0-1.1,0.5-1.1,1.2c0,0.7,0.4,1.2,1.1,1.2C69,45.5,69.4,45,69.4,44.3z"/>
		<path class="st0" d="M71.3,42.4h0.9l0,0.7c0.2-0.5,0.7-0.8,1.4-0.8c1,0,1.8,0.8,1.8,2c0,1.2-0.8,2-1.8,2c-0.6,0-1.1-0.3-1.3-0.7
			v2.6h-0.9V42.4z M74.4,44.3c0-0.7-0.4-1.2-1.1-1.2c-0.7,0-1.1,0.5-1.1,1.2c0,0.7,0.4,1.2,1.1,1.2C74,45.5,74.4,45,74.4,44.3z"/>
		<path class="st0" d="M78,45.5l0.6-0.4c0.2,0.3,0.6,0.5,1,0.5c0.5,0,0.7-0.2,0.7-0.4c0-0.3-0.3-0.4-0.9-0.5
			c-0.6-0.2-1.1-0.4-1.1-1.2c0-0.8,0.6-1.1,1.4-1.1c0.6,0,1,0.3,1.3,0.6l-0.5,0.5c-0.2-0.2-0.4-0.4-0.8-0.4c-0.3,0-0.5,0.1-0.5,0.4
			c0,0.3,0.2,0.4,0.8,0.5c0.6,0.2,1.3,0.4,1.3,1.2c0,0.7-0.4,1.2-1.5,1.2C78.9,46.3,78.3,45.9,78,45.5z"/>
		<path class="st0" d="M82.1,39.7H83v3.4c0.2-0.5,0.7-0.8,1.3-0.8c0.8,0,1.4,0.6,1.4,1.6v2.3h-0.9V44c0-0.5-0.3-0.9-0.8-0.9
			c-0.6,0-1,0.4-1,1v2.1h-0.9V39.7z"/>
		<path class="st0" d="M86.7,44.3c0-1.1,0.9-2,2.1-2c1.2,0,2,0.9,2,2c0,1.1-0.9,2-2,2C87.6,46.3,86.7,45.5,86.7,44.3z M89.8,44.3
			c0-0.7-0.4-1.2-1.1-1.2c-0.7,0-1.1,0.5-1.1,1.2c0,0.7,0.4,1.2,1.1,1.2C89.4,45.5,89.8,45,89.8,44.3z"/>
		<path class="st0" d="M91.7,42.4h0.9l0,0.7c0.2-0.5,0.7-0.8,1.4-0.8c1,0,1.8,0.8,1.8,2c0,1.2-0.8,2-1.8,2c-0.6,0-1.1-0.3-1.3-0.7
			v2.6h-0.9V42.4z M94.8,44.3c0-0.7-0.4-1.2-1.1-1.2c-0.7,0-1.1,0.5-1.1,1.2c0,0.7,0.4,1.2,1.1,1.2C94.4,45.5,94.8,45,94.8,44.3z"/>
		<path class="st0" d="M96.7,42.4h0.9l0,0.7c0.2-0.5,0.7-0.8,1.4-0.8c1,0,1.8,0.8,1.8,2c0,1.2-0.8,2-1.8,2c-0.6,0-1.1-0.3-1.3-0.7
			v2.6h-0.9V42.4z M99.8,44.3c0-0.7-0.4-1.2-1.1-1.2c-0.7,0-1.1,0.5-1.1,1.2c0,0.7,0.4,1.2,1.1,1.2C99.4,45.5,99.8,45,99.8,44.3z"/>
		<path class="st0" d="M101.6,40.9c0-0.3,0.3-0.6,0.6-0.6c0.3,0,0.6,0.3,0.6,0.6c0,0.4-0.3,0.6-0.6,0.6
			C101.9,41.5,101.6,41.3,101.6,40.9z M101.8,42.4h0.9v3.8h-0.9V42.4z"/>
		<path class="st0" d="M103.9,42.4h0.9l0,0.7c0.2-0.5,0.7-0.8,1.3-0.8c0.8,0,1.4,0.6,1.4,1.6v2.3h-0.9V44c0-0.5-0.3-0.9-0.8-0.9
			c-0.6,0-1,0.4-1,1v2.1h-0.9V42.4z"/>
		<path class="st0" d="M112.1,42.4v0.7h-0.7c0.1,0.2,0.2,0.4,0.2,0.6c0,0.8-0.6,1.4-1.5,1.4c-0.3,0-0.6-0.1-0.8-0.2
			c-0.1,0.1-0.2,0.2-0.2,0.3c0,0.2,0.1,0.3,0.4,0.3l1,0.1c1.1,0.1,1.6,0.5,1.6,1.2c0,0.8-0.7,1.4-2.1,1.4c-1.3,0-2-0.5-2-1.3
			c0-0.5,0.3-0.8,0.8-0.9c-0.3-0.2-0.5-0.4-0.5-0.7c0-0.3,0.2-0.6,0.5-0.7c-0.2-0.2-0.4-0.6-0.4-0.9c0-0.8,0.6-1.4,1.6-1.4
			c0.2,0,0.4,0,0.6,0.1H112.1z M109,46.9c0,0.4,0.3,0.7,1.1,0.7c0.8,0,1.1-0.2,1.1-0.6c0-0.3-0.2-0.4-0.9-0.5l-1.1-0.1
			C109.1,46.5,109,46.7,109,46.9z M110.9,43.7c0-0.4-0.3-0.7-0.7-0.7c-0.5,0-0.7,0.3-0.7,0.7c0,0.4,0.3,0.7,0.7,0.7
			C110.6,44.4,110.9,44.1,110.9,43.7z"/>
		<path class="st0" d="M114.8,44.3c0-1.2,0.8-2,1.8-2c0.7,0,1.1,0.3,1.3,0.7v-3.4h0.9v6.5h-0.9l0-0.7c-0.2,0.5-0.7,0.8-1.3,0.8
			C115.6,46.3,114.8,45.5,114.8,44.3z M118,44.3c0-0.7-0.4-1.2-1.1-1.2c-0.7,0-1.1,0.5-1.1,1.2c0,0.7,0.4,1.2,1.1,1.2
			C117.5,45.5,118,45,118,44.3z"/>
		<path class="st0" d="M122,45.5c0.5,0,0.9-0.2,1.1-0.4l0.5,0.6c-0.4,0.4-0.8,0.6-1.6,0.6c-1.3,0-2.1-0.8-2.1-2c0-1.1,0.9-2,2-2
			c1.3,0,2,1,2,2.3h-3.1C120.9,45.2,121.3,45.5,122,45.5z M122.9,44c-0.1-0.5-0.4-0.9-1-0.9c-0.6,0-1,0.3-1.1,0.9H122.9z"/>
		<path class="st0" d="M124.4,45.5l0.6-0.4c0.2,0.3,0.6,0.5,1,0.5c0.5,0,0.7-0.2,0.7-0.4c0-0.3-0.3-0.4-0.9-0.5
			c-0.6-0.2-1.1-0.4-1.1-1.2c0-0.8,0.6-1.1,1.4-1.1c0.6,0,1,0.3,1.3,0.6l-0.5,0.5c-0.2-0.2-0.4-0.4-0.8-0.4c-0.3,0-0.5,0.1-0.5,0.4
			c0,0.3,0.2,0.4,0.8,0.5c0.6,0.2,1.3,0.4,1.3,1.2c0,0.7-0.4,1.2-1.5,1.2C125.2,46.3,124.6,45.9,124.4,45.5z"/>
		<path class="st0" d="M128.7,44.9v-1.8h-0.6v-0.8h0.6v-2h0.9v2h1v0.8h-1V45c0,0.4,0.1,0.6,0.4,0.6c0.2,0,0.4-0.1,0.5-0.2l0.4,0.6
			c-0.2,0.2-0.5,0.4-1,0.4C129.1,46.3,128.7,46,128.7,44.9z"/>
		<path class="st0" d="M131.4,40.9c0-0.3,0.3-0.6,0.6-0.6c0.3,0,0.6,0.3,0.6,0.6c0,0.4-0.3,0.6-0.6,0.6
			C131.7,41.5,131.4,41.3,131.4,40.9z M131.6,42.4h0.9v3.8h-0.9V42.4z"/>
		<path class="st0" d="M133.7,42.4h0.9l0,0.7c0.2-0.5,0.7-0.8,1.3-0.8c0.8,0,1.4,0.6,1.4,1.6v2.3h-0.9V44c0-0.5-0.3-0.9-0.8-0.9
			c-0.6,0-1,0.4-1,1v2.1h-0.9V42.4z"/>
		<path class="st0" d="M140,43.1c-0.5,0-0.8,0.2-1,0.5l-0.5-0.5c0.3-0.4,0.8-0.7,1.6-0.7c0.9,0,1.6,0.5,1.6,1.6v2.2h-0.9l0-0.5
			c-0.3,0.4-0.6,0.6-1.2,0.6c-0.8,0-1.4-0.4-1.4-1.2c0-0.8,0.6-1.1,1.5-1.1h1C140.7,43.4,140.5,43.1,140,43.1z M139.8,44.6
			c-0.4,0-0.7,0.1-0.7,0.5c0,0.3,0.3,0.5,0.7,0.5c0.5,0,0.9-0.3,0.9-0.7v-0.3H139.8z"/>
		<path class="st0" d="M143,44.9v-1.8h-0.6v-0.8h0.6v-2h0.9v2h1v0.8h-1V45c0,0.4,0.1,0.6,0.4,0.6c0.2,0,0.4-0.1,0.5-0.2l0.4,0.6
			c-0.2,0.2-0.5,0.4-1,0.4C143.5,46.3,143,46,143,44.9z"/>
		<path class="st0" d="M145.8,40.9c0-0.3,0.3-0.6,0.6-0.6s0.6,0.3,0.6,0.6c0,0.4-0.3,0.6-0.6,0.6S145.8,41.3,145.8,40.9z M146,42.4
			h0.9v3.8H146V42.4z"/>
		<path class="st0" d="M147.9,44.3c0-1.1,0.9-2,2.1-2c1.2,0,2,0.9,2,2c0,1.1-0.9,2-2,2C148.8,46.3,147.9,45.5,147.9,44.3z M151,44.3
			c0-0.7-0.4-1.2-1.1-1.2c-0.7,0-1.1,0.5-1.1,1.2c0,0.7,0.4,1.2,1.1,1.2C150.6,45.5,151,45,151,44.3z"/>
		<path class="st0" d="M153,42.4h0.9l0,0.7c0.2-0.5,0.7-0.8,1.3-0.8c0.8,0,1.4,0.6,1.4,1.6v2.3h-0.9V44c0-0.5-0.3-0.9-0.8-0.9
			c-0.6,0-1,0.4-1,1v2.1H153V42.4z"/>
	</g>
	<path class="st0" d="M155.2,18.2c2.1-2.3,2.1-5.9-0.2-8.2c-2.2-2.2-5.8-2.3-8.2-0.2l0,0l-1.3,1.3l-2.8,2.8l2.7,2.7l0.1,0.1l2.8-2.8
		l1.3-1.3c0.8-0.8,2-0.8,2.8,0c0.8,0.8,0.8,2,0,2.8l-1.3,1.3l2.8,2.8l0,0l0,0L155.2,18.2L155.2,18.2z"/>
	<polygon class="st0" points="153.9,19.6 151.1,16.8 150.2,15.8 149.3,14.9 148.4,14 145.6,16.8 148.4,19.5 148.5,19.6 151.2,22.3 
		139.4,34 131.1,25.7 142.9,14 145.6,11.2 142.9,8.5 140.1,11.2 128.4,23 125.6,25.7 128.4,28.5 136.7,36.8 139.4,39.5 142.2,36.8 
		153.9,25.1 156.7,22.3 153.9,19.6 	"/>
	<polygon class="st0" points="142.9,14 145.6,16.8 145.6,16.7 	"/>
	<polygon class="st0" points="151.1,16.8 153.9,19.6 153.9,19.6 153.9,19.5 	"/>
	<line class="st0" x1="46.2" y1="35.1" x2="40.5" y2="35.1"/>
	<path class="st0" d="M83.5,30.5c-4,0-7.2-3.2-7.2-7.3c0-4,3.2-7.3,7.2-7.3c2.3,0,4.4,1.1,5.7,2.7l4.3-3.5c-2.3-2.9-6-4.8-10-4.8
		c-7.1,0-12.8,5.7-12.8,12.8s5.7,12.8,12.8,12.8c4,0,7.5-1.8,9.8-4.6L89,27.9C87.7,29.5,85.7,30.5,83.5,30.5z"/>
	<polygon class="st0" points="17.1,14.5 17.1,14.5 17.1,11.4 17.1,11.7 	"/>
	<path class="st0" d="M24.3,10.8c-0.1,0-0.2,0-0.3,0c-0.1,0-0.2,0-0.2,0c-2.1,0-3.9,0.5-5.3,1.4c-0.5,0.3-1,0.6-1.4,0.9v-1.8l0-0.2
		h-5.8v35.1H17v-3.1v-9.4c2.1,1.5,4.6,2.3,7.3,2.3c7,0,12.6-5.7,12.6-12.6C36.9,16.5,31.2,10.8,24.3,10.8z M24.3,30.6
		c-4,0-7.2-3.2-7.2-7.2c0-4,3.2-7.2,7.2-7.2c4,0,7.2,3.2,7.2,7.2C31.4,27.4,28.2,30.6,24.3,30.6z"/>
	<path class="st0" d="M54.6,11.3c-4.5-1.2-7.2,0.6-8.6,2.2v-2.4h-5.9v7.4h0v16.9H46V24.1c0-5.4,2.4-7.5,5.8-7.5
		c1.3,0,2.3,0.3,3.2,0.8l2-5.3C56.3,11.8,55.6,11.4,54.6,11.3z"/>
	<path class="st0" d="M102.6,26.2C102.6,26.2,102.6,26.2,102.6,26.2C102.5,26.2,102.5,26.2,102.6,26.2L102.6,26.2z"/>
	<path class="st0" d="M102.5,26.1C102.5,26.1,102.5,26.2,102.5,26.1C102.5,26.2,102.5,26.1,102.5,26.1L102.5,26.1z"/>
	<path class="st0" d="M121.7,26.1c0.2-0.9,0.3-1.9,0.3-2.9c0-0.5,0-1.1-0.1-1.6c0-0.4-0.1-0.8-0.2-1.3c-1.3-5.7-6.4-9.9-12.5-9.9
		c-6.1,0-11.2,4.2-12.5,9.9c-0.2,0.9-0.3,1.9-0.3,2.9c0,0.2,0,0.3,0,0.4c0,0,0,0,0,0c0,0.2,0,0.4,0,0.6c0.1,1.7,0.4,3.3,1,4.7
		c0.7,1.6,1.6,2.9,2.8,4c1.2,1.1,2.6,2,4.2,2.6c1.6,0.6,3.4,0.9,5.2,0.9c1.9,0,3.8-0.4,5.5-1.1c1.8-0.7,3.4-2,4.8-3.8l-4.4-3.3
		c-0.8,0.9-1.7,1.7-2.7,2.4c-1,0.6-2.3,0.9-3.8,0.9c-1.7,0-3.2-0.5-4.4-1.5c-1.1-0.9-1.8-2.2-2.1-3.9c0,0,0,0,0-0.1c0,0,0,0,0,0h0
		H121.7z M104.4,17.1c1.1-1,2.5-1.6,4.3-1.6c1.9,0,3.4,0.5,4.5,1.5c1.1,1,1.6,2.4,1.7,4.2h-12.5C102.7,19.5,103.4,18.1,104.4,17.1z"
		/>
</g>
</svg>