<!-- Generator: Adobe Illustrator 19.0.0, SVG Export Plug-In  -->
<svg version="1.1"
	 xmlns="http://www.w3.org/2000/svg" xmlns:xlink="http://www.w3.org/1999/xlink" xmlns:a="http://ns.adobe.com/AdobeSVGViewerExtensions/3.0/"
	 x="0px" y="0px" width="80.9px" height="69.8px" viewBox="0 0 80.9 69.8" style="enable-background:new 0 0 80.9 69.8;"
	 xml:space="preserve">
<style type="text/css">
	.st0{fill:#D1D9DB;}
	.st1{fill:#FF6633;}
</style>
<defs>
</defs>
<path class="st0" d="M14,57.2h52.9c7.7,0,14-6.3,14-14V14c0-7.7-6.3-14-14-14L14,0C6.3,0,0,6.3,0,14l0,29.2C0,50.9,6.3,57.2,14,57.2
	z"/>
<polygon class="st0" points="0.3,69.8 0.3,36.9 26.6,41.8 "/>
<polygon class="st1" points="57.9,15.9 55.6,20.5 50.6,21.2 54.2,24.8 53.4,29.8 57.9,27.4 62.4,29.8 61.6,24.8 65.2,21.2 
	60.2,20.5 "/>
<polygon class="st1" points="37.7,15.9 35.4,20.5 30.4,21.2 34,24.8 33.2,29.8 37.7,27.4 42.2,29.8 41.4,24.8 45,21.2 40,20.5 "/>
<polygon class="st1" points="47.8,29.9 45.5,34.5 40.5,35.2 44.1,38.8 43.3,43.9 47.8,41.5 52.3,43.9 51.5,38.8 55.1,35.2 
	50.1,34.5 "/>
<polygon class="st1" points="27.6,29.9 25.4,34.5 20.3,35.2 24,38.8 23.1,43.9 27.6,41.5 32.2,43.9 31.3,38.8 35,35.2 29.9,34.5 "/>
<polygon class="st1" points="17.5,15.9 15.3,20.5 10.2,21.2 13.9,24.8 13,29.8 17.5,27.4 22.1,29.8 21.2,24.8 24.9,21.2 19.8,20.5 
	"/>
</svg>