<?xml version="1.0" encoding="utf-8"?>
<!-- Generator: Adobe Illustrator 19.0.0, SVG Export Plug-In . SVG Version: 6.00 Build 0)  -->
<svg version="1.1" id="Layer_1" xmlns="http://www.w3.org/2000/svg" xmlns:xlink="http://www.w3.org/1999/xlink" x="0px" y="0px"
	 viewBox="0 0 281 68" style="enable-background:new 0 0 281 68;" xml:space="preserve">
<style type="text/css">
	.st0{fill:#0C6B88;}
	.st1{fill:#FFFFFF;}
	.st2{fill:#F2673A;}
	.st3{fill:none;stroke:#FFFFFF;stroke-miterlimit:10;stroke-dasharray:3.132;}
	.st4{fill:#49C2C6;}
	.st5{fill:#2BBAB6;}
	.st6{fill:none;stroke:#49C2C6;stroke-width:2;stroke-linecap:round;stroke-linejoin:round;stroke-miterlimit:10;}
	.st7{fill:none;stroke:#FFFFFF;stroke-width:2;stroke-linecap:round;stroke-linejoin:round;stroke-miterlimit:10;}
	.st8{fill:none;stroke:#F2673A;stroke-width:2;stroke-miterlimit:10;}
	.st9{fill:#FFFFFF;stroke:#FFFFFF;stroke-width:0.7;stroke-miterlimit:10;}
	.st10{fill:none;stroke:#FFFFFF;stroke-width:2.2793;stroke-linecap:round;stroke-linejoin:round;stroke-miterlimit:10;}
	.st11{fill:none;stroke:#FFFFFF;stroke-width:2;stroke-miterlimit:10;}
</style>
<rect id="XMLID_100_" x="-1985" y="620" class="st0" width="1202" height="632"/>
<circle id="XMLID_3_" class="st0" cx="-1520.7" cy="972.6" r="4.3"/>
<g id="XMLID_31_">
	<g id="XMLID_4_">
		<path id="XMLID_98_" class="st1" d="M-1699.9,904.6h-17.9V835h-22.9v-14.9h63.8V835h-22.9V904.6z"/>
		<path id="XMLID_96_" class="st1" d="M-1605.7,904.6h-17.6v-37.7c0-9.3-3.5-14-10.4-14c-4.9,0-8.5,1.7-10.7,5s-3.3,8.8-3.3,16.3
			v30.4h-17.6v-89.9h17.6V833c0,1.4-0.1,4.8-0.4,10.1l-0.4,5.2h0.9c3.9-6.3,10.2-9.5,18.7-9.5c7.6,0,13.4,2,17.3,6.1
			c3.9,4.1,5.9,9.9,5.9,17.6V904.6z"/>
		<path id="XMLID_93_" class="st1" d="M-1558.3,905.8c-10.4,0-18.5-2.9-24.4-8.6c-5.9-5.7-8.8-13.9-8.8-24.4
			c0-10.8,2.7-19.2,8.1-25.1c5.4-5.9,12.9-8.9,22.5-8.9c9.1,0,16.2,2.6,21.3,7.8c5.1,5.2,7.6,12.4,7.6,21.6v8.6h-41.7
			c0.2,5,1.7,8.9,4.5,11.7c2.8,2.8,6.7,4.2,11.7,4.2c3.9,0,7.6-0.4,11-1.2c3.5-0.8,7.1-2.1,10.9-3.9v13.6c-3.1,1.5-6.4,2.7-9.9,3.4
			C-1548.9,905.4-1553.2,905.8-1558.3,905.8z M-1560.8,851.3c-3.7,0-6.7,1.2-8.8,3.6c-2.1,2.4-3.3,5.7-3.6,10.1h24.7
			c-0.1-4.4-1.2-7.7-3.4-10.1C-1554,852.5-1557,851.3-1560.8,851.3z"/>
		<path id="XMLID_91_" class="st1" d="M-1416.2,904.6h-17.9v-36.5h-33.5v36.5h-17.9v-84.5h17.9v33.1h33.5v-33.1h17.9V904.6z"/>
		<path id="XMLID_88_" class="st1" d="M-1397,823.3c0-5.7,3.2-8.6,9.6-8.6c6.4,0,9.6,2.9,9.6,8.6c0,2.7-0.8,4.9-2.4,6.4
			c-1.6,1.5-4,2.3-7.2,2.3C-1393.8,831.9-1397,829.1-1397,823.3z M-1378.6,904.6h-17.6V840h17.6V904.6z"/>
		<path id="XMLID_86_" class="st1" d="M-1315,885.4c0,6.6-2.3,11.7-6.9,15.1c-4.6,3.5-11.5,5.2-20.7,5.2c-4.7,0-8.7-0.3-12-1
			c-3.3-0.6-6.4-1.6-9.3-2.8v-14.6c3.3,1.5,7,2.8,11.1,3.9c4.1,1,7.7,1.6,10.8,1.6c6.4,0,9.6-1.8,9.6-5.5c0-1.4-0.4-2.5-1.3-3.4
			c-0.8-0.9-2.3-1.8-4.4-2.9c-2.1-1.1-4.9-2.4-8.3-3.8c-5-2.1-8.6-4-11-5.8c-2.3-1.8-4-3.8-5.1-6.1c-1.1-2.3-1.6-5.1-1.6-8.5
			c0-5.7,2.2-10.2,6.7-13.3c4.5-3.1,10.8-4.7,18.9-4.7c7.8,0,15.4,1.7,22.7,5.1l-5.3,12.7c-3.2-1.4-6.3-2.5-9.1-3.4
			c-2.8-0.9-5.7-1.3-8.6-1.3c-5.2,0-7.8,1.4-7.8,4.2c0,1.6,0.8,2.9,2.5,4.1c1.7,1.2,5.3,2.9,11,5.1c5,2,8.7,4,11.1,5.7
			c2.3,1.8,4.1,3.8,5.2,6.1C-1315.6,879.5-1315,882.2-1315,885.4z"/>
		<path id="XMLID_84_" class="st1" d="M-1274,891.7c3.1,0,6.8-0.7,11.1-2v13.1c-4.4,2-9.8,2.9-16.2,2.9c-7.1,0-12.2-1.8-15.4-5.3
			c-3.2-3.6-4.8-8.9-4.8-16v-31.2h-8.4v-7.5l9.7-5.9l5.1-13.6h11.3V840h18.1v13.2h-18.1v31.2c0,2.5,0.7,4.4,2.1,5.5
			C-1278.2,891.1-1276.4,891.7-1274,891.7z"/>
		<path id="XMLID_81_" class="st1" d="M-1191.2,872.2c0,10.5-2.8,18.7-8.3,24.7c-5.5,5.9-13.3,8.9-23.2,8.9
			c-6.2,0-11.7-1.4-16.4-4.1c-4.7-2.7-8.4-6.6-10.9-11.7c-2.5-5.1-3.8-11-3.8-17.8c0-10.6,2.8-18.8,8.3-24.6
			c5.5-5.9,13.3-8.8,23.2-8.8c6.2,0,11.7,1.3,16.4,4c4.7,2.7,8.4,6.6,10.9,11.6C-1192.4,859.5-1191.2,865.4-1191.2,872.2z
			 M-1235.8,872.2c0,6.4,1.1,11.2,3.2,14.5c2.1,3.3,5.5,4.9,10.3,4.9c4.7,0,8.1-1.6,10.1-4.9c2.1-3.3,3.1-8.1,3.1-14.5
			c0-6.4-1-11.2-3.1-14.4c-2.1-3.2-5.5-4.8-10.2-4.8c-4.7,0-8.1,1.6-10.2,4.8C-1234.8,860.9-1235.8,865.7-1235.8,872.2z"/>
		<path id="XMLID_79_" class="st1" d="M-1140.5,838.8c2.4,0,4.4,0.2,6,0.5l-1.3,16.5c-1.4-0.4-3.2-0.6-5.2-0.6
			c-5.6,0-10,1.4-13.1,4.3c-3.1,2.9-4.7,6.9-4.7,12.1v32.9h-17.6V840h13.4l2.6,10.9h0.9c2-3.6,4.7-6.5,8.1-8.8
			C-1148.2,839.9-1144.5,838.8-1140.5,838.8z"/>
		<path id="XMLID_77_" class="st1" d="M-1132.1,840h19.3l12.2,36.4c1,3.2,1.8,6.9,2.1,11.2h0.3c0.4-4,1.3-7.7,2.5-11.2l12-36.4h18.9
			l-27.3,72.9c-2.5,6.7-6.1,11.8-10.7,15.1c-4.6,3.4-10.1,5-16.3,5c-3,0-6-0.3-9-1v-14c2.1,0.5,4.4,0.8,6.9,0.8c3.1,0,5.8-1,8.2-2.9
			c2.3-1.9,4.2-4.8,5.5-8.6l1-3.2L-1132.1,840z"/>
		<path id="XMLID_74_" class="st1" d="M-1675.1,990.9c0,10.5-2.8,18.7-8.3,24.7c-5.5,5.9-13.3,8.9-23.2,8.9
			c-6.2,0-11.7-1.4-16.4-4.1c-4.7-2.7-8.4-6.6-10.9-11.7c-2.5-5.1-3.8-11-3.8-17.8c0-10.6,2.8-18.8,8.3-24.6s13.3-8.8,23.2-8.8
			c6.2,0,11.7,1.3,16.4,4c4.7,2.7,8.4,6.6,10.9,11.6C-1676.4,978.2-1675.1,984.1-1675.1,990.9z M-1719.8,990.9
			c0,6.4,1.1,11.2,3.2,14.5c2.1,3.3,5.5,4.9,10.3,4.9c4.7,0,8.1-1.6,10.1-4.9c2.1-3.3,3.1-8.1,3.1-14.5c0-6.4-1-11.2-3.1-14.4
			c-2.1-3.2-5.5-4.8-10.2-4.8c-4.7,0-8.1,1.6-10.2,4.8C-1718.8,979.7-1719.8,984.5-1719.8,990.9z"/>
		<path id="XMLID_22_" class="st1" d="M-1624.9,972h-15.3v51.4h-17.6V972h-9.7v-8.5l9.7-4.7V954c0-7.4,1.8-12.7,5.4-16.1
			c3.6-3.4,9.4-5.1,17.4-5.1c6.1,0,11.5,0.9,16.2,2.7l-4.5,12.9c-3.5-1.1-6.8-1.7-9.8-1.7c-2.5,0-4.3,0.7-5.4,2.2
			c-1.1,1.5-1.7,3.4-1.7,5.7v4h15.3V972z"/>
		<path id="XMLID_20_" class="st2" d="M-1546.7,952.5c-6.7,0-12,2.5-15.7,7.6c-3.7,5.1-5.5,12.1-5.5,21.2c0,18.8,7.1,28.3,21.2,28.3
			c5.9,0,13.1-1.5,21.6-4.5v15c-6.9,2.9-14.7,4.3-23.2,4.3c-12.3,0-21.7-3.7-28.2-11.2c-6.5-7.5-9.8-18.2-9.8-32.1
			c0-8.8,1.6-16.5,4.8-23.1c3.2-6.6,7.8-11.7,13.8-15.2c6-3.5,13-5.3,21.1-5.3c8.2,0,16.5,2,24.7,6l-5.8,14.6
			c-3.2-1.5-6.3-2.8-9.5-3.9C-1540.5,953.1-1543.6,952.5-1546.7,952.5z"/>
		<path id="XMLID_18_" class="st2" d="M-1449.8,990.9c0,10.5-2.8,18.7-8.3,24.7c-5.5,5.9-13.3,8.9-23.2,8.9
			c-6.2,0-11.7-1.4-16.4-4.1c-4.7-2.7-8.4-6.6-10.9-11.7s-3.8-11-3.8-17.8c0-10.6,2.8-18.8,8.3-24.6c5.5-5.9,13.3-8.8,23.2-8.8
			c6.2,0,11.7,1.3,16.4,4c4.7,2.7,8.4,6.6,10.9,11.6C-1451.1,978.2-1449.8,984.1-1449.8,990.9z M-1494.5,990.9
			c0,6.4,1.1,11.2,3.2,14.5c2.1,3.3,5.5,4.9,10.3,4.9c4.7,0,8.1-1.6,10.1-4.9c2.1-3.3,3.1-8.1,3.1-14.5c0-6.4-1-11.2-3.1-14.4
			c-2.1-3.2-5.5-4.8-10.2-4.8c-4.7,0-8.1,1.6-10.2,4.8C-1493.5,979.7-1494.5,984.5-1494.5,990.9z"/>
		<path id="XMLID_15_" class="st2" d="M-1389.5,1023.3l-2.4-8.3h-0.9c-1.9,3-4.6,5.3-8,7c-3.5,1.6-7.4,2.5-11.9,2.5
			c-7.6,0-13.3-2-17.2-6.1c-3.9-4.1-5.8-9.9-5.8-17.5v-42.1h17.6v37.7c0,4.7,0.8,8.2,2.5,10.5c1.7,2.3,4.3,3.5,7.9,3.5
			c4.9,0,8.5-1.6,10.7-4.9c2.2-3.3,3.3-8.8,3.3-16.4v-30.4h17.6v64.6H-1389.5z"/>
		<path id="XMLID_62_" class="st2" d="M-1322,1024.5c-7.6,0-13.5-2.8-17.9-8.3h-0.9c0.6,5.4,0.9,8.5,0.9,9.4v26.2h-17.6v-93.1h14.3
			l2.5,8.4h0.8c4.1-6.4,10.2-9.6,18.3-9.6c7.6,0,13.6,2.9,17.9,8.8c4.3,5.9,6.5,14.1,6.5,24.6c0,6.9-1,12.9-3,18
			c-2,5.1-4.9,9-8.6,11.6C-1312.5,1023.2-1316.9,1024.5-1322,1024.5z M-1327.2,971.6c-4.4,0-7.5,1.3-9.5,4c-2,2.7-3,7.1-3.1,13.3
			v1.9c0,6.9,1,11.9,3.1,14.9c2.1,3,5.3,4.5,9.8,4.5c7.9,0,11.9-6.5,11.9-19.5c0-6.4-1-11.1-2.9-14.3
			C-1319.9,973.2-1323,971.6-1327.2,971.6z"/>
		<path id="XMLID_11_" class="st2" d="M-1223.8,990.9c0,10.5-2.8,18.7-8.3,24.7c-5.5,5.9-13.3,8.9-23.2,8.9
			c-6.2,0-11.7-1.4-16.4-4.1c-4.7-2.7-8.4-6.6-10.9-11.7c-2.5-5.1-3.8-11-3.8-17.8c0-10.6,2.8-18.8,8.3-24.6s13.3-8.8,23.2-8.8
			c6.2,0,11.7,1.3,16.4,4c4.7,2.7,8.4,6.6,10.9,11.6C-1225.1,978.2-1223.8,984.1-1223.8,990.9z M-1268.5,990.9
			c0,6.4,1.1,11.2,3.2,14.5c2.1,3.3,5.5,4.9,10.3,4.9c4.7,0,8.1-1.6,10.1-4.9c2.1-3.3,3.1-8.1,3.1-14.5c0-6.4-1-11.2-3.1-14.4
			c-2.1-3.2-5.5-4.8-10.2-4.8c-4.7,0-8.1,1.6-10.2,4.8C-1267.5,979.7-1268.5,984.5-1268.5,990.9z"/>
		<path id="XMLID_6_" class="st2" d="M-1149.6,1023.3h-17.6v-37.7c0-4.7-0.8-8.2-2.5-10.5c-1.7-2.3-4.3-3.5-7.9-3.5
			c-4.9,0-8.5,1.6-10.7,4.9c-2.2,3.3-3.3,8.8-3.3,16.4v30.4h-17.6v-64.6h13.5l2.4,8.3h1c2-3.1,4.7-5.5,8.1-7.1
			c3.4-1.6,7.4-2.4,11.8-2.4c7.5,0,13.2,2,17.1,6.1s5.8,9.9,5.8,17.6V1023.3z"/>
		<path id="XMLID_55_" class="st2" d="M-1086.4,1004.2c0,6.6-2.3,11.7-6.9,15.1c-4.6,3.5-11.5,5.2-20.7,5.2c-4.7,0-8.7-0.3-12-1
			c-3.3-0.6-6.4-1.6-9.3-2.8v-14.6c3.3,1.5,7,2.8,11.1,3.9c4.1,1,7.7,1.6,10.8,1.6c6.4,0,9.6-1.8,9.6-5.5c0-1.4-0.4-2.5-1.3-3.4
			c-0.8-0.9-2.3-1.8-4.4-2.9c-2.1-1.1-4.9-2.4-8.3-3.8c-5-2.1-8.6-4-11-5.8c-2.3-1.8-4-3.8-5.1-6.1c-1.1-2.3-1.6-5.1-1.6-8.5
			c0-5.7,2.2-10.2,6.7-13.3c4.5-3.1,10.8-4.7,18.9-4.7c7.8,0,15.4,1.7,22.7,5.1l-5.3,12.7c-3.2-1.4-6.3-2.5-9.1-3.4
			c-2.8-0.9-5.7-1.3-8.6-1.3c-5.2,0-7.8,1.4-7.8,4.2c0,1.6,0.8,2.9,2.5,4.1c1.7,1.2,5.3,2.9,11,5.1c5,2,8.7,4,11.1,5.7
			c2.3,1.8,4.1,3.8,5.2,6.1C-1086.9,998.2-1086.4,1001-1086.4,1004.2z"/>
	</g>
	<rect id="XMLID_2_" x="-1821.5" y="771.5" class="st3" width="876" height="330"/>
</g>
<g id="XMLID_45_">
	<path id="XMLID_169_" class="st2" d="M-233.7-344.4c0-2.9,2.4-5,5.1-5c2.7,0,5.1,2.1,5.1,5c0,3-2.4,5.1-5.1,5.1
		C-231.4-339.3-233.7-341.3-233.7-344.4z"/>
	<rect id="XMLID_168_" x="-233.7" y="-329.7" class="st0" width="10.2" height="42"/>
	<path id="XMLID_394_" class="st0" d="M-121.7-348.2c-2.7,0-5,2.1-5,5c0,3,2.3,5,5,5c2.7,0,5-2,5-5
		C-116.6-346.1-119-348.2-121.7-348.2z M-126.8-328.6v42h10.2v-42H-126.8z"/>
	<g id="XMLID_237_">
		<g id="XMLID_744_">
			<path id="XMLID_820_" class="st0" d="M-189-270.5l-4.1-7.5h1.9l2.5,4.5c0.3,0.6,0.7,1.6,0.7,1.6s0.3-1,0.7-1.6l2.4-4.5h1.8
				l-4,7.4v3.6h-1.7V-270.5z"/>
			<path id="XMLID_817_" class="st0" d="M-184.4-270.4c0-2,1.6-3.5,3.6-3.5c2.1,0,3.6,1.5,3.6,3.5c0,2-1.6,3.5-3.6,3.5
				C-182.8-266.9-184.4-268.4-184.4-270.4z M-178.8-270.4c0-1.2-0.8-2.1-2-2.1c-1.2,0-2,0.9-2,2.1c0,1.2,0.8,2.1,2,2.1
				C-179.5-268.3-178.8-269.2-178.8-270.4z"/>
			<path id="XMLID_815_" class="st0" d="M-175.4-269.8v-4h1.6v3.9c0,1,0.4,1.5,1.4,1.5c1.1,0,1.7-0.7,1.7-1.8v-3.7h1.6v6.8h-1.6
				l0-1.2c-0.4,0.9-1.2,1.4-2.3,1.4C-174.4-266.9-175.4-268-175.4-269.8z"/>
			<path id="XMLID_813_" class="st0" d="M-167-273.8h1.6l0,1.3c0.4-1.1,1.2-1.4,2-1.4c0.5,0,0.8,0.1,1.1,0.3l-0.5,1.5
				c-0.3-0.1-0.5-0.2-0.9-0.2c-1,0-1.6,0.6-1.6,2.1v3.3h-1.6V-273.8z"/>
			<path id="XMLID_810_" class="st0" d="M-157.7-270.4c0-2,1.6-3.5,3.6-3.5c2.1,0,3.6,1.5,3.6,3.5c0,2-1.6,3.5-3.6,3.5
				C-156.1-266.9-157.7-268.4-157.7-270.4z M-152.1-270.4c0-1.2-0.8-2.1-2-2.1c-1.2,0-2,0.9-2,2.1c0,1.2,0.8,2.1,2,2.1
				C-152.8-268.3-152.1-269.2-152.1-270.4z"/>
			<path id="XMLID_808_" class="st0" d="M-148.7-273.8h1.6l0,1.3c0.4-0.9,1.3-1.4,2.3-1.4c1.5,0,2.5,1.1,2.5,2.9v4h-1.6v-3.9
				c0-1-0.5-1.5-1.4-1.5c-1.1,0-1.8,0.6-1.8,1.7v3.7h-1.6V-273.8z"/>
			<path id="XMLID_805_" class="st0" d="M-136.8-268.3c0.9,0,1.5-0.4,1.9-0.7l0.9,1c-0.6,0.6-1.5,1.1-2.8,1.1
				c-2.3,0-3.8-1.5-3.8-3.5c0-2,1.6-3.5,3.6-3.5c2.3,0,3.6,1.7,3.5,4.1h-5.4C-138.8-268.9-138.1-268.3-136.8-268.3z M-135.2-271
				c-0.1-0.9-0.7-1.6-1.8-1.6c-1,0-1.8,0.6-2,1.6H-135.2z"/>
			<path id="XMLID_803_" class="st0" d="M-128.8-268.3l1.1-0.8c0.4,0.6,1,0.9,1.8,0.9c0.8,0,1.2-0.3,1.2-0.7c0-0.5-0.5-0.6-1.6-0.9
				c-1-0.3-2-0.7-2-2.1c0-1.3,1.1-2,2.4-2c1.1,0,1.8,0.4,2.3,1l-0.9,0.9c-0.3-0.4-0.8-0.7-1.4-0.7c-0.6,0-0.9,0.2-0.9,0.6
				c0,0.5,0.4,0.6,1.5,0.9c1.1,0.3,2.2,0.7,2.2,2.1c0,1.2-0.7,2.1-2.6,2.1C-127.3-266.9-128.3-267.6-128.8-268.3z"/>
			<path id="XMLID_801_" class="st0" d="M-121.2-269.4v-3.1h-1v-1.4h1v-3.5h1.6v3.5h1.8v1.4h-1.8v3.1c0,0.8,0.3,1,0.7,1
				c0.4,0,0.6-0.2,0.8-0.3l0.8,1.1c-0.3,0.3-0.9,0.6-1.7,0.6C-120.3-266.9-121.2-267.5-121.2-269.4z"/>
			<path id="XMLID_798_" class="st0" d="M-116.4-270.4c0-2,1.6-3.5,3.6-3.5c2.1,0,3.6,1.5,3.6,3.5c0,2-1.6,3.5-3.6,3.5
				C-114.8-266.9-116.4-268.4-116.4-270.4z M-110.8-270.4c0-1.2-0.8-2.1-2-2.1c-1.2,0-2,0.9-2,2.1c0,1.2,0.8,2.1,2,2.1
				C-111.5-268.3-110.8-269.2-110.8-270.4z"/>
			<path id="XMLID_795_" class="st0" d="M-107.4-273.8h1.6l0,1.3c0.4-0.8,1.2-1.4,2.4-1.4c1.7,0,3.1,1.5,3.1,3.5
				c0,2-1.4,3.5-3.2,3.5c-1.1,0-1.9-0.5-2.3-1.3v4.6h-1.6V-273.8z M-101.9-270.5c0-1.2-0.7-2.1-1.9-2.1c-1.2,0-2,0.8-2,2.1
				c0,1.3,0.8,2.1,2,2.1C-102.7-268.4-101.9-269.2-101.9-270.5z"/>
			<path id="XMLID_793_" class="st0" d="M-95.5-268.3l1.1-0.8c0.4,0.6,1,0.9,1.8,0.9c0.8,0,1.2-0.3,1.2-0.7c0-0.5-0.5-0.6-1.6-0.9
				c-1-0.3-2-0.7-2-2.1c0-1.3,1.1-2,2.4-2c1.1,0,1.8,0.4,2.3,1l-0.9,0.9c-0.3-0.4-0.8-0.7-1.4-0.7c-0.6,0-0.9,0.2-0.9,0.6
				c0,0.5,0.4,0.6,1.5,0.9c1.1,0.3,2.2,0.7,2.2,2.1c0,1.2-0.7,2.1-2.6,2.1C-94-266.9-95-267.6-95.5-268.3z"/>
			<path id="XMLID_791_" class="st0" d="M-88.2-278.7h1.6v6c0.4-0.8,1.2-1.3,2.3-1.3c1.5,0,2.5,1.1,2.5,2.9v4h-1.6v-3.9
				c0-1-0.4-1.5-1.4-1.5c-1.1,0-1.8,0.6-1.8,1.7v3.7h-1.6V-278.7z"/>
			<path id="XMLID_788_" class="st0" d="M-80.1-270.4c0-2,1.6-3.5,3.6-3.5c2.1,0,3.6,1.5,3.6,3.5c0,2-1.6,3.5-3.6,3.5
				C-78.5-266.9-80.1-268.4-80.1-270.4z M-74.5-270.4c0-1.2-0.8-2.1-2-2.1c-1.2,0-2,0.9-2,2.1c0,1.2,0.8,2.1,2,2.1
				C-75.3-268.3-74.5-269.2-74.5-270.4z"/>
			<path id="XMLID_785_" class="st0" d="M-71.1-273.8h1.6l0,1.3c0.4-0.8,1.2-1.4,2.4-1.4c1.7,0,3.1,1.5,3.1,3.5c0,2-1.4,3.5-3.2,3.5
				c-1.1,0-1.9-0.5-2.3-1.3v4.6h-1.6V-273.8z M-65.7-270.5c0-1.2-0.7-2.1-1.9-2.1c-1.2,0-2,0.8-2,2.1c0,1.3,0.8,2.1,2,2.1
				C-66.4-268.4-65.7-269.2-65.7-270.5z"/>
			<path id="XMLID_782_" class="st0" d="M-62.3-273.8h1.6l0,1.3c0.4-0.8,1.2-1.4,2.4-1.4c1.7,0,3.1,1.5,3.1,3.5c0,2-1.4,3.5-3.2,3.5
				c-1.1,0-1.9-0.5-2.3-1.3v4.6h-1.6V-273.8z M-56.8-270.5c0-1.2-0.7-2.1-1.9-2.1c-1.2,0-2,0.8-2,2.1c0,1.3,0.8,2.1,2,2.1
				C-57.6-268.4-56.8-269.2-56.8-270.5z"/>
			<path id="XMLID_779_" class="st0" d="M-53.6-276.4c0-0.6,0.5-1.1,1.1-1.1c0.6,0,1.1,0.5,1.1,1.1c0,0.6-0.5,1.1-1.1,1.1
				C-53.1-275.4-53.6-275.8-53.6-276.4z M-53.4-273.8h1.6v6.8h-1.6V-273.8z"/>
			<path id="XMLID_777_" class="st0" d="M-49.6-273.8h1.6l0,1.3c0.4-0.9,1.3-1.4,2.3-1.4c1.5,0,2.5,1.1,2.5,2.9v4h-1.6v-3.9
				c0-1-0.5-1.5-1.4-1.5c-1.1,0-1.8,0.6-1.8,1.7v3.7h-1.6V-273.8z"/>
			<path id="XMLID_773_" class="st0" d="M-35-273.8v1.2h-1.2c0.3,0.3,0.4,0.7,0.4,1.1c0,1.4-1.1,2.5-2.7,2.5c-0.5,0-1-0.1-1.4-0.3
				c-0.2,0.1-0.4,0.3-0.4,0.6c0,0.4,0.3,0.5,0.8,0.6l1.7,0.1c1.9,0.1,2.9,0.8,2.9,2.2c0,1.4-1.2,2.4-3.7,2.4c-2.3,0-3.5-0.9-3.5-2.2
				c0-0.8,0.6-1.3,1.4-1.6c-0.6-0.3-0.9-0.7-0.9-1.3c0-0.6,0.3-1,0.9-1.3c-0.4-0.4-0.7-1-0.7-1.6c0-1.4,1.1-2.4,2.8-2.4
				c0.4,0,0.7,0,1,0.1H-35z M-40.5-265.9c0,0.7,0.6,1.2,1.9,1.2c1.4,0,2-0.4,2-1.1c0-0.6-0.3-0.8-1.5-0.9l-1.9-0.1
				C-40.3-266.6-40.5-266.3-40.5-265.9z M-37.2-271.5c0-0.7-0.5-1.2-1.3-1.2c-0.8,0-1.3,0.5-1.3,1.2c0,0.8,0.5,1.3,1.3,1.3
				C-37.7-270.3-37.2-270.8-37.2-271.5z"/>
			<path id="XMLID_770_" class="st0" d="M-30.2-270.5c0-2,1.4-3.5,3.1-3.5c1.2,0,1.9,0.5,2.3,1.3v-6h1.6v11.6h-1.6l0-1.2
				c-0.4,0.8-1.2,1.4-2.4,1.4C-28.8-266.9-30.2-268.4-30.2-270.5z M-24.7-270.5c0-1.2-0.8-2.1-2-2.1c-1.2,0-1.9,0.8-1.9,2.1
				c0,1.3,0.7,2.1,1.9,2.1C-25.5-268.4-24.7-269.2-24.7-270.5z"/>
			<path id="XMLID_767_" class="st0" d="M-17.6-268.3c0.9,0,1.5-0.4,1.9-0.7l0.9,1c-0.6,0.6-1.5,1.1-2.8,1.1c-2.3,0-3.8-1.5-3.8-3.5
				c0-2,1.6-3.5,3.6-3.5c2.3,0,3.6,1.7,3.5,4.1h-5.4C-19.6-268.9-18.8-268.3-17.6-268.3z M-16-271c-0.1-0.9-0.7-1.6-1.8-1.6
				c-1,0-1.8,0.6-2,1.6H-16z"/>
			<path id="XMLID_765_" class="st0" d="M-13.3-268.3l1.1-0.8c0.4,0.6,1,0.9,1.8,0.9c0.8,0,1.2-0.3,1.2-0.7c0-0.5-0.5-0.6-1.6-0.9
				c-1-0.3-2-0.7-2-2.1c0-1.3,1.1-2,2.4-2c1.1,0,1.8,0.4,2.3,1L-9-272c-0.3-0.4-0.8-0.7-1.4-0.7c-0.6,0-0.9,0.2-0.9,0.6
				c0,0.5,0.4,0.6,1.5,0.9c1.1,0.3,2.2,0.7,2.2,2.1c0,1.2-0.7,2.1-2.6,2.1C-11.8-266.9-12.8-267.6-13.3-268.3z"/>
			<path id="XMLID_763_" class="st0" d="M-5.7-269.4v-3.1h-1v-1.4h1v-3.5h1.6v3.5h1.8v1.4h-1.8v3.1c0,0.8,0.3,1,0.7,1
				c0.4,0,0.6-0.2,0.8-0.3l0.8,1.1c-0.3,0.3-0.9,0.6-1.7,0.6C-4.9-266.9-5.7-267.5-5.7-269.4z"/>
			<path id="XMLID_760_" class="st0" d="M-0.8-276.4c0-0.6,0.5-1.1,1.1-1.1c0.6,0,1.1,0.5,1.1,1.1c0,0.6-0.5,1.1-1.1,1.1
				C-0.3-275.4-0.8-275.8-0.8-276.4z M-0.5-273.8h1.6v6.8h-1.6V-273.8z"/>
			<path id="XMLID_758_" class="st0" d="M3.2-273.8h1.6l0,1.3c0.4-0.9,1.3-1.4,2.3-1.4c1.5,0,2.5,1.1,2.5,2.9v4H8v-3.9
				c0-1-0.4-1.5-1.4-1.5c-1.1,0-1.8,0.6-1.8,1.7v3.7H3.2V-273.8z"/>
			<path id="XMLID_755_" class="st0" d="M14.3-272.6c-0.9,0-1.4,0.4-1.8,0.8l-0.9-0.9c0.6-0.7,1.4-1.2,2.8-1.2
				c1.6,0,2.8,0.9,2.8,2.9v4h-1.6l0-1c-0.5,0.7-1.1,1.1-2.1,1.1c-1.3,0-2.4-0.6-2.4-2.1c0-1.4,1.1-2,2.7-2h1.8
				C15.7-272.2,15.2-272.6,14.3-272.6z M13.9-270c-0.7,0-1.2,0.3-1.2,0.9c0,0.6,0.5,0.9,1.3,0.9c0.9,0,1.6-0.5,1.6-1.2v-0.5H13.9z"
				/>
			<path id="XMLID_753_" class="st0" d="M19.7-269.4v-3.1h-1v-1.4h1v-3.5h1.6v3.5h1.8v1.4h-1.8v3.1c0,0.8,0.3,1,0.7,1
				c0.4,0,0.6-0.2,0.8-0.3l0.8,1.1c-0.3,0.3-0.9,0.6-1.7,0.6C20.6-266.9,19.7-267.5,19.7-269.4z"/>
			<path id="XMLID_750_" class="st0" d="M24.7-276.4c0-0.6,0.5-1.1,1.1-1.1s1.1,0.5,1.1,1.1c0,0.6-0.5,1.1-1.1,1.1
				S24.7-275.8,24.7-276.4z M24.9-273.8h1.6v6.8h-1.6V-273.8z"/>
			<path id="XMLID_747_" class="st0" d="M28.3-270.4c0-2,1.6-3.5,3.6-3.5c2.1,0,3.6,1.5,3.6,3.5c0,2-1.6,3.5-3.6,3.5
				C29.9-266.9,28.3-268.4,28.3-270.4z M33.9-270.4c0-1.2-0.8-2.1-2-2.1c-1.2,0-2,0.9-2,2.1c0,1.2,0.8,2.1,2,2.1
				C33.2-268.3,33.9-269.2,33.9-270.4z"/>
			<path id="XMLID_745_" class="st0" d="M37.3-273.8H39l0,1.3c0.4-0.9,1.3-1.4,2.3-1.4c1.5,0,2.5,1.1,2.5,2.9v4h-1.6v-3.9
				c0-1-0.4-1.5-1.4-1.5c-1.1,0-1.8,0.6-1.8,1.7v3.7h-1.6V-273.8z"/>
		</g>
	</g>
	<path id="XMLID_229_" class="st0" d="M39.1-314.8l-4.9-4.9l0,0l-1.7-1.7l-1.6-1.6l-1.7-1.7l-4.6-4.6l-0.3-0.3l-4.9-4.9l-4.9,4.9
		l-20.8,20.8l-4.9,4.9l4.9,4.9l14.7,14.7l4.9,4.9l4.9-4.9L39.1-305l4.9-4.9L39.1-314.8z M13.4-289.1l-14.7-14.7l20.8-20.8l4.8,4.8
		l0.1,0.1l4.9,4.9l0.1,0.1l4.8,4.8L13.4-289.1z"/>
	<path id="XMLID_227_" class="st2" d="M39.1-314.8l2.3-2.3l0,0c3.8-4.1,3.7-10.5-0.3-14.5c-4-4-10.4-4.1-14.5-0.3l0,0l-7.2,7.2
		l4.9,4.9l7.2-7.2c1.3-1.3,3.5-1.3,4.9,0c1.3,1.3,1.3,3.5,0,4.9l-2.3,2.3L39.1-314.8"/>
	<line id="XMLID_60_" class="st1" x1="-151.9" y1="-287.1" x2="-162" y2="-287.1"/>
	<path id="XMLID_196_" class="st0" d="M-85.8-295.3c-7.1,0-12.8-5.8-12.8-12.9c0-7.1,5.8-12.9,12.8-12.9c4.1,0,7.7,1.9,10.1,4.9
		l7.7-6.1c-4.2-5.2-10.6-8.6-17.8-8.6c-12.5,0-22.7,10.2-22.7,22.7c0,12.5,10.2,22.7,22.7,22.7c7,0,13.3-3.2,17.4-8.2l-7.6-6.3
		C-78.3-297.1-81.9-295.3-85.8-295.3z"/>
	<polygon id="XMLID_58_" class="st1" points="-203.4,-323.7 -203.4,-323.7 -203.4,-329.2 -203.4,-328.7 	"/>
	<path id="XMLID_184_" class="st0" d="M-190.6-329.7c-0.2,0-0.3,0-0.5,0c-0.1,0-0.3,0-0.4,0c-3.7,0-6.8,0.9-9.3,2.5
		c-0.9,0.5-1.7,1-2.5,1.5v-3.1l0-0.4h-10.2v61.7h10.2v-5.4v-16.5c3.6,2.6,8,4.1,12.8,4.1c12.3,0,22.2-10,22.2-22.2
		C-168.3-319.7-178.3-329.7-190.6-329.7z M-190.6-294.9c-7,0-12.6-5.6-12.6-12.6c0-7,5.6-12.6,12.6-12.6s12.6,5.6,12.6,12.6
		C-178-300.5-183.6-294.9-190.6-294.9z"/>
	<path id="XMLID_50_" class="st0" d="M-137.2-328.3c-7.7-2.1-12.4,1.1-14.8,3.8v-4.1h-10.1v12.8h0v29.2h10.1v-19.6
		c0-9.4,4.1-12.9,10.1-12.9c2.3,0,3.9,0.6,5.5,1.4l3.4-9.1C-134.2-327.5-135.6-328.1-137.2-328.3z"/>
	<path id="XMLID_49_" class="st1" d="M-52-302.9c0,0,0-0.1-0.1-0.1C-52-303-52-303-52-302.9L-52-302.9z"/>
	<path id="XMLID_48_" class="st1" d="M-52-303.1C-52-303.1-52-303.1-52-303.1C-52-303.1-52-303.1-52-303.1L-52-303.1z"/>
	<path id="XMLID_111_" class="st0" d="M-18.1-303.1c0.4-1.6,0.6-3.3,0.6-5.1c0-1-0.1-1.9-0.2-2.8c-0.1-0.8-0.2-1.5-0.4-2.2
		c-2.3-10.1-11.3-17.6-22.1-17.6s-19.8,7.5-22.1,17.6c-0.4,1.6-0.6,3.3-0.6,5.1c0,0.3,0,0.5,0,0.8l0,0c0,0.3,0,0.7,0,1
		c0.1,3,0.7,5.8,1.8,8.3c1.2,2.8,2.9,5.2,5,7.2c2.1,2,4.6,3.5,7.5,4.6c2.9,1.1,5.9,1.6,9.2,1.6c3.4,0,6.7-0.7,9.8-2
		c3.1-1.3,5.9-3.5,8.5-6.7l-7.7-5.8c-1.4,1.7-3,3.1-4.8,4.2c-1.8,1.1-4.1,1.7-6.8,1.7c-3.1,0-5.7-0.9-7.8-2.7c-2-1.7-3.2-4-3.7-6.9
		c0,0,0-0.1,0-0.1c0,0,0,0,0,0h0H-18.1z M-48.6-319.2c1.9-1.9,4.5-2.8,7.7-2.8c3.4,0,6.1,0.9,8,2.7c1.9,1.8,2.9,4.3,3,7.5h-22.1
		C-51.7-314.8-50.5-317.3-48.6-319.2z"/>
</g>
<rect id="XMLID_242_" x="-1822" y="-338" class="st0" width="1202" height="632"/>
<g id="XMLID_258_">
	<g id="XMLID_179_">
		<path id="XMLID_240_" class="st1" d="M-1493.4-208.7c-6.8,0-12.1,2.6-15.8,7.7c-3.7,5.1-5.6,12.2-5.6,21.4
			c0,19,6.5,28.5,20.7,28.5c6,0,13.1-1.5,21.1-4.5v15.2c-7,2.9-14.1,4.4-22.8,4.4c-12.4,0-21.5-3.8-28.1-11.3
			c-6.6-7.5-9.7-18.3-9.7-32.4c0-8.9,1.7-16.6,4.9-23.3c3.2-6.7,7.9-11.8,13.9-15.3c6-3.6,13.1-5.3,21.3-5.3c8.3,0,16.6,2,25,6
			l-5.8,14.7c-3.2-1.5-6.4-2.8-9.6-4C-1487.1-208.2-1490.3-208.7-1493.4-208.7z"/>
		<path id="XMLID_236_" class="st1" d="M-1395.7-170c0,10.6-2.8,18.9-8.4,24.9c-5.6,6-13.4,9-23.4,9c-6.3,0-11.8-1.4-16.6-4.1
			c-4.8-2.7-8.5-6.7-11-11.8s-3.8-11.1-3.8-18c0-10.6,2.8-18.9,8.3-24.8c5.6-5.9,13.4-8.9,23.4-8.9c6.3,0,11.8,1.4,16.6,4.1
			c4.8,2.7,8.5,6.6,11,11.7C-1397-182.8-1395.7-176.9-1395.7-170z M-1440.8-170c0,6.5,1.1,11.3,3.2,14.6c2.1,3.3,5.6,5,10.3,5
			c4.7,0,8.2-1.6,10.2-4.9c2.1-3.3,3.1-8.2,3.1-14.7c0-6.5-1-11.3-3.1-14.5c-2.1-3.2-5.5-4.8-10.3-4.8c-4.7,0-8.2,1.6-10.3,4.8
			C-1439.7-181.4-1440.8-176.5-1440.8-170z"/>
		<path id="XMLID_234_" class="st1" d="M-1334.9-136l-2.4-9h-0.9c-1.9,2-4.6,5-8.1,6.7c-3.5,1.7-7.5,2.3-11.9,2.3
			c-7.7,0-14.7-2.1-18.6-6.2c-3.9-4.1-7.1-10.1-7.1-17.8v-43h18v38.6c0,4.7,2,8.2,3.7,10.6c1.7,2.4,4.9,3.5,8.6,3.5
			c5,0,8.4-1.7,10.6-5s3.1-8.8,3.1-16.5V-203h18v67H-1334.9z"/>
		<path id="XMLID_231_" class="st1" d="M-1266.8-136.4c-7.7,0-13.7-1.6-18-8.6h-0.9c0.6,7,0.7,9.1,0.7,10v27h-19v-95h15.9l2.5,8h0.8
			c4.2-6,10.3-9.2,18.5-9.2c7.7,0,13.7,3.2,18.1,9.2s6.5,14.3,6.5,24.9c0,7-1,13.1-3.1,18.2c-2,5.1-4.9,8.9-8.7,11.6
			S-1261.7-136.4-1266.8-136.4z M-1272-189.5c-4.4,0-7.7,1.4-9.7,4.1c-2,2.7-3.3,7.2-3.3,13.4v1.9c0,7,1.2,12,3.2,15
			s5.4,4.5,9.9,4.5c8,0,12-6.6,12-19.7c0-6.4-1-11.2-2.9-14.4C-1264.8-187.9-1267.8-189.5-1272-189.5z"/>
		<path id="XMLID_226_" class="st1" d="M-1167.8-170c0,10.6-2.8,18.9-8.4,24.9c-5.6,6-13.4,9-23.4,9c-6.3,0-11.8-1.4-16.6-4.1
			s-8.5-6.7-11-11.8c-2.6-5.1-3.8-11.1-3.8-18c0-10.6,2.8-18.9,8.3-24.8c5.6-5.9,13.4-8.9,23.4-8.9c6.3,0,11.8,1.4,16.6,4.1
			c4.8,2.7,8.5,6.6,11,11.7C-1169.1-182.8-1167.8-176.9-1167.8-170z M-1212.8-170c0,6.5,1.1,11.3,3.2,14.6c2.1,3.3,5.6,5,10.3,5
			c4.7,0,8.2-1.6,10.2-4.9c2.1-3.3,3.1-8.2,3.1-14.7c0-6.5-1-11.3-3.1-14.5c-2.1-3.2-5.5-4.8-10.3-4.8c-4.7,0-8.2,1.6-10.3,4.8
			C-1211.8-181.4-1212.8-176.5-1212.8-170z"/>
		<path id="XMLID_224_" class="st1" d="M-1095-136h-17v-39.4c0-4.7-0.2-8.2-1.9-10.6c-1.7-2.4-4-3.5-7.7-3.5c-5,0-8.7,1.7-11,5
			s-3.5,8.8-3.5,16.5v32h-18v-67h14.5l2.4,8h1c2-2,4.7-5.1,8.2-6.7c3.5-1.6,7.4-2.2,11.9-2.2c7.6,0,12.3,2.2,16.2,6.3
			c3.9,4.1,4.9,10.1,4.9,17.9V-136z"/>
		<path id="XMLID_221_" class="st1" d="M-1075.4-219.3c0-5.8,3.2-8.7,9.7-8.7c6.5,0,9.7,2.9,9.7,8.7c0,2.8-0.8,4.9-2.4,6.4
			c-1.6,1.5-4,2.3-7.3,2.3C-1072.2-210.6-1075.4-213.5-1075.4-219.3z M-1058-136h-18v-67h18V-136z"/>
		<path id="XMLID_192_" class="st1" d="M-979-136h-18v-39.4c0-4.7-0.2-8.2-1.9-10.6c-1.7-2.4-4-3.5-7.7-3.5c-5,0-9.2,1.7-11.4,5
			s-4,8.8-4,16.5v32h-18v-67h15.4l2.4,8h1c2-2,4.7-5.1,8.2-6.7c3.5-1.6,7.4-2.2,11.9-2.2c7.6,0,12.9,2.2,16.8,6.3
			c3.9,4.1,5.4,10.1,5.4,17.9V-136z"/>
		<path id="XMLID_188_" class="st1" d="M-904-137.2c0,9.4-2.1,16.5-7.6,21.3c-5.5,4.8-13.9,7.3-24.7,7.3c-9.5,0-16.7-1.3-24.7-3.8
			v-14.2c9,3.3,16.3,5,25.4,5c9.1,0,13.6-4.9,13.6-14.8v-1.3l1.9-8.2h-0.5c-4.2,6-10.3,9.7-18.5,9.7c-7.8,0-13.9-3-18.2-9
			c-4.3-6-6.4-14.2-6.4-24.6c0-10.7,2.2-19,6.7-25c4.4-6,10.6-9.4,18.4-9.4c8,0,14.3,3.1,18.9,9.1h0.5l1.5-8h13.8V-137.2z
			 M-932.8-150.1c4.8,0,7.4-1.4,9.5-4.1c2.1-2.7,2.3-7.2,2.3-13.3v-2.2c0-7-0.3-12-2.4-15c-2.2-3.1-5.2-4.6-10-4.6
			c-8.4,0-12.3,6.6-12.3,19.7c0,6.5,1.1,11.4,3.2,14.6C-940.5-151.7-937.1-150.1-932.8-150.1z"/>
		<path id="XMLID_186_" class="st4" d="M-1389,168h-56V14.4l1.4-25.1l1.3-27.4c-9.3,9.3-15.5,15.3-19.1,18.2l-30.2,24.4l-26.8-33.2
			l85.1-67.3h44.4V168z"/>
		<path id="XMLID_182_" class="st4" d="M-1131,35.1c0,46.1-7.6,80.2-22.7,102.4c-15.1,22.1-38.4,33.2-69.8,33.2
			c-30.5,0-53.4-11.4-68.9-34.3c-15.5-22.9-23.2-56.6-23.2-101.3c0-46.6,7.5-80.9,22.6-103c15-22.1,38.2-33.1,69.5-33.1
			c30.4,0,53.5,11.6,69.1,34.7C-1138.8-43.2-1131-9.4-1131,35.1z M-1260.1,35.1c0,32.4,2.8,55.6,8.4,69.6c5.6,14,15,21,28.3,21
			c13,0,22.4-7.1,28.2-21.3s8.7-37.3,8.7-69.3c0-32.4-2.9-55.6-8.8-69.8c-5.8-14.1-15.2-21.2-28.1-21.2c-13.1,0-22.5,7.1-28.2,21.2
			C-1257.3-20.5-1260.1,2.7-1260.1,35.1z"/>
		<path id="XMLID_180_" class="st4" d="M-966,168h-56V14.4l1.3-25.1l1.3-27.4c-9.3,9.3-15.5,15.3-19.1,18.2l-30.2,24.4l-26.9-33.2
			l85.1-67.3h44.6V168z"/>
	</g>
	<circle id="XMLID_178_" class="st2" cx="-1565" cy="-21.7" r="10.8"/>
	<circle id="XMLID_176_" class="st2" cx="-1562.4" cy="-48.8" r="10.8"/>
	<circle id="XMLID_174_" class="st0" cx="-1562.4" cy="-48.8" r="7.1"/>
	<circle id="XMLID_173_" class="st0" cx="-1565" cy="-21.7" r="7.1"/>
	<path id="XMLID_172_" class="st2" d="M-1520.4-15.3l-39.3-26l-7.8,2l38.4,25.4c0.6,0.4,1.2,0.7,1.9,1
		C-1525-12.1-1522.3-12.4-1520.4-15.3z"/>
	<path id="XMLID_171_" class="st2" d="M-1521.9-41.5l-44.5,9l6.8,4.8l46.3-9.4c-0.7-3.5-3.6-4.5-6.2-4.6
		C-1520.3-41.7-1521.1-41.6-1521.9-41.5z"/>
	<polygon id="XMLID_122_" class="st1" points="-1518,-28.8 -1491.2,4.5 -1463.4,-17.6 	"/>
	<polygon id="XMLID_103_" class="st5" points="-1518.1,-29.4 -1480.8,-41.7 -1463.4,-17.6 	"/>
	<rect id="XMLID_72_" x="-1626.5" y="-263.5" class="st3" width="811" height="483"/>
</g>
<g id="XMLID_2261_">
	<polygon id="XMLID_2348_" class="st6" points="268,-62.2 268,-73 279.9,-73 	"/>
	<rect id="XMLID_2347_" x="232" y="-120" class="st7" width="49" height="14"/>
	<path id="XMLID_2346_" class="st7" d="M247-118.9c0,1.1-0.9,1.9-1.9,1.9h-0.2c-1.1,0-1.9-0.9-1.9-1.9v-5.2c0-1.1,0.9-1.9,1.9-1.9
		h0.2c1.1,0,1.9,0.9,1.9,1.9V-118.9z"/>
	<path id="XMLID_2345_" class="st7" d="M270-118.9c0,1.1-0.9,1.9-1.9,1.9h-0.2c-1.1,0-1.9-0.9-1.9-1.9v-5.2c0-1.1,0.9-1.9,1.9-1.9
		h0.2c1.1,0,1.9,0.9,1.9,1.9V-118.9z"/>
	<rect id="XMLID_2344_" x="232" y="-106" class="st8" width="49" height="44"/>
</g>
<circle id="XMLID_3342_" class="st2" cx="9.4" cy="-106.3" r="8.4"/>
<g id="XMLID_3339_">
	<path id="XMLID_3340_" class="st1" d="M10-102H8v-5.1l0.2-0.8l0.1-0.9c-0.3,0.3-0.5,0.5-0.6,0.6l-1,0.8l-0.9-1.2l2.8-2.3H10V-102z"
		/>
</g>
<g id="XMLID_3190_">
	<path id="XMLID_3191_" class="st9" d="M34.7-100.7h-1.4v-10.2h-3.6v-1.3h8.6v1.3h-3.5V-100.7z"/>
	<path id="XMLID_3193_" class="st9" d="M45.7-100.7v-5.5c0-0.7-0.2-1.2-0.5-1.6c-0.3-0.3-0.8-0.5-1.5-0.5c-0.9,0-1.5,0.2-1.9,0.7
		c-0.4,0.5-0.6,1.3-0.6,2.4v4.4h-1.4v-12.2h1.4v3.6c0,0.5,0,0.9-0.1,1.2h0.1c0.3-0.4,0.6-0.7,1.1-1s1-0.4,1.6-0.4
		c1,0,1.8,0.2,2.4,0.7c0.5,0.5,0.8,1.3,0.8,2.4v5.6H45.7z"/>
	<path id="XMLID_3195_" class="st9" d="M53.4-100.6c-1.3,0-2.3-0.4-3-1.2c-0.7-0.8-1.1-1.9-1.1-3.2c0-1.4,0.3-2.5,1-3.3
		c0.7-0.8,1.6-1.2,2.8-1.2c1.1,0,1.9,0.3,2.6,1s1,1.6,1,2.8v0.9h-5.9c0,1,0.3,1.7,0.7,2.2c0.5,0.5,1.1,0.8,2,0.8
		c0.5,0,0.9,0,1.3-0.1c0.4-0.1,0.9-0.2,1.4-0.5v1.2c-0.5,0.2-0.9,0.3-1.3,0.4C54.4-100.6,53.9-100.6,53.4-100.6z M53-108.3
		c-0.7,0-1.2,0.2-1.6,0.6c-0.4,0.4-0.6,1-0.7,1.8h4.4c0-0.8-0.2-1.4-0.6-1.8C54.2-108.1,53.7-108.3,53-108.3z"/>
	<path id="XMLID_3198_" class="st9" d="M68.5-103.1c0,0.8-0.3,1.4-0.9,1.9c-0.6,0.4-1.4,0.7-2.5,0.7c-1.1,0-2-0.2-2.7-0.5v-1.3
		c0.9,0.5,1.9,0.7,2.7,0.7c0.7,0,1.2-0.1,1.5-0.3c0.3-0.2,0.5-0.5,0.5-0.9c0-0.3-0.2-0.6-0.5-0.9c-0.3-0.2-0.9-0.5-1.7-0.8
		c-0.8-0.3-1.4-0.6-1.7-0.8c-0.3-0.2-0.6-0.5-0.7-0.7c-0.2-0.3-0.2-0.6-0.2-1c0-0.7,0.3-1.3,0.9-1.7c0.6-0.4,1.4-0.6,2.4-0.6
		c1,0,1.9,0.2,2.7,0.6l-0.5,1.1c-0.9-0.4-1.7-0.5-2.4-0.5c-0.6,0-1,0.1-1.3,0.3c-0.3,0.2-0.5,0.4-0.5,0.8c0,0.3,0.1,0.6,0.4,0.8
		c0.3,0.2,0.9,0.5,1.8,0.9c0.7,0.3,1.2,0.5,1.6,0.7c0.3,0.2,0.6,0.5,0.8,0.8C68.4-103.8,68.5-103.5,68.5-103.1z"/>
	<path id="XMLID_3200_" class="st9" d="M73.4-101.7c0.2,0,0.4,0,0.6-0.1c0.2,0,0.4-0.1,0.6-0.1v1.1c-0.1,0.1-0.3,0.1-0.6,0.2
		s-0.6,0.1-0.8,0.1c-1.7,0-2.5-0.9-2.5-2.6v-5h-1.2v-0.7l1.2-0.6l0.6-1.8h0.8v2h2.5v1.1h-2.5v5c0,0.5,0.1,0.9,0.4,1.1
		C72.7-101.8,73-101.7,73.4-101.7z"/>
	<path id="XMLID_3202_" class="st9" d="M81.6-100.7l-0.3-1.2h-0.1c-0.4,0.5-0.9,0.9-1.3,1.1c-0.4,0.2-1,0.3-1.6,0.3
		c-0.8,0-1.5-0.2-2-0.7c-0.5-0.4-0.7-1.1-0.7-1.9c0-1.7,1.4-2.7,4.1-2.7l1.5-0.1v-0.5c0-0.7-0.1-1.1-0.4-1.4
		c-0.3-0.3-0.7-0.5-1.4-0.5c-0.5,0-0.9,0.1-1.3,0.2c-0.4,0.1-0.8,0.3-1.1,0.5l-0.4-1.1c0.4-0.2,0.9-0.4,1.4-0.5
		c0.5-0.1,1-0.2,1.5-0.2c1,0,1.8,0.2,2.3,0.7c0.5,0.5,0.8,1.2,0.8,2.2v5.8H81.6z M78.7-101.7c0.8,0,1.4-0.2,1.9-0.6
		c0.5-0.4,0.7-1,0.7-1.8v-0.8l-1.3,0.1c-1,0-1.7,0.2-2.2,0.5c-0.5,0.3-0.7,0.7-0.7,1.3c0,0.4,0.1,0.8,0.4,1
		C77.9-101.8,78.2-101.7,78.7-101.7z"/>
	<path id="XMLID_3205_" class="st9" d="M89.3-109.5c0.4,0,0.7,0,1,0.1l-0.2,1.3c-0.3-0.1-0.6-0.1-0.9-0.1c-0.5,0-0.9,0.1-1.3,0.4
		c-0.4,0.3-0.7,0.6-0.9,1c-0.2,0.4-0.3,0.9-0.3,1.5v4.6h-1.4v-8.6h1.2l0.2,1.6h0.1c0.3-0.6,0.7-1,1.2-1.3
		C88.3-109.3,88.8-109.5,89.3-109.5z"/>
	<path id="XMLID_3207_" class="st9" d="M94.8-101.7c0.2,0,0.4,0,0.6-0.1c0.2,0,0.4-0.1,0.6-0.1v1.1c-0.1,0.1-0.3,0.1-0.6,0.2
		s-0.6,0.1-0.8,0.1c-1.7,0-2.5-0.9-2.5-2.6v-5h-1.2v-0.7l1.2-0.6l0.6-1.8h0.8v2h2.5v1.1h-2.5v5c0,0.5,0.1,0.9,0.4,1.1
		C94-101.8,94.4-101.7,94.8-101.7z"/>
	<path id="XMLID_3209_" class="st9" d="M99.3-102.6l0.1,0.2c-0.3,1.1-0.7,2.4-1.4,3.7h-1c0.3-1.3,0.6-2.6,0.8-3.9H99.3z"/>
	<path id="XMLID_3211_" class="st9" d="M117.1-100.7v-5.5c0-1.4-0.6-2-1.7-2c-0.8,0-1.4,0.2-1.8,0.7c-0.4,0.5-0.6,1.2-0.6,2.1v4.7
		h-1.4v-5.5c0-0.7-0.1-1.2-0.4-1.5c-0.3-0.3-0.7-0.5-1.3-0.5c-0.8,0-1.4,0.2-1.7,0.7s-0.6,1.3-0.6,2.4v4.4h-1.4v-8.6h1.1l0.2,1.2
		h0.1c0.2-0.4,0.6-0.7,1-1s0.9-0.4,1.5-0.4c1.3,0,2.2,0.5,2.6,1.4h0.1c0.3-0.5,0.7-0.8,1.1-1.1s1-0.4,1.6-0.4c1,0,1.7,0.3,2.2,0.8
		c0.5,0.5,0.7,1.3,0.7,2.4v5.6H117.1z"/>
	<path id="XMLID_3213_" class="st9" d="M121-111.6c0-0.3,0.1-0.5,0.2-0.7c0.2-0.1,0.4-0.2,0.6-0.2c0.2,0,0.4,0.1,0.6,0.2
		s0.2,0.4,0.2,0.7c0,0.3-0.1,0.5-0.2,0.7c-0.2,0.1-0.4,0.2-0.6,0.2c-0.2,0-0.4-0.1-0.6-0.2C121.1-111.1,121-111.3,121-111.6z
		 M122.5-100.7h-1.4v-8.6h1.4V-100.7z"/>
	<path id="XMLID_3216_" class="st9" d="M128.3-100.6c-1.1,0-2-0.4-2.6-1.2c-0.6-0.8-0.9-1.9-0.9-3.3c0-1.4,0.3-2.5,0.9-3.3
		c0.6-0.8,1.5-1.2,2.6-1.2c1.2,0,2,0.4,2.7,1.3h0.1c0-0.1,0-0.3-0.1-0.6c0-0.3,0-0.5,0-0.6v-3.4h1.4v12.2h-1.1l-0.2-1.1h-0.1
		C130.3-101,129.4-100.6,128.3-100.6z M128.5-101.7c0.9,0,1.5-0.2,1.9-0.7c0.4-0.5,0.6-1.2,0.6-2.3v-0.3c0-1.2-0.2-2-0.6-2.6
		s-1-0.8-1.9-0.8c-0.7,0-1.3,0.3-1.7,0.9c-0.4,0.6-0.6,1.4-0.6,2.5c0,1.1,0.2,1.9,0.6,2.4C127.2-102,127.7-101.7,128.5-101.7z"/>
	<path id="XMLID_3219_" class="st9" d="M138.1-100.6c-1.1,0-2-0.4-2.6-1.2c-0.6-0.8-0.9-1.9-0.9-3.3c0-1.4,0.3-2.5,0.9-3.3
		c0.6-0.8,1.5-1.2,2.6-1.2c1.2,0,2,0.4,2.7,1.3h0.1c0-0.1,0-0.3-0.1-0.6c0-0.3,0-0.5,0-0.6v-3.4h1.4v12.2h-1.1l-0.2-1.1h-0.1
		C140.2-101,139.3-100.6,138.1-100.6z M138.3-101.7c0.9,0,1.5-0.2,1.9-0.7c0.4-0.5,0.6-1.2,0.6-2.3v-0.3c0-1.2-0.2-2-0.6-2.6
		s-1-0.8-1.9-0.8c-0.7,0-1.3,0.3-1.7,0.9c-0.4,0.6-0.6,1.4-0.6,2.5c0,1.1,0.2,1.9,0.6,2.4C137-102,137.6-101.7,138.3-101.7z"/>
	<path id="XMLID_3222_" class="st9" d="M146.3-100.7h-1.4v-12.2h1.4V-100.7z"/>
	<path id="XMLID_3224_" class="st9" d="M152.7-100.6c-1.3,0-2.3-0.4-3-1.2c-0.7-0.8-1.1-1.9-1.1-3.2c0-1.4,0.3-2.5,1-3.3
		c0.7-0.8,1.6-1.2,2.8-1.2c1.1,0,1.9,0.3,2.6,1s1,1.6,1,2.8v0.9H150c0,1,0.3,1.7,0.7,2.2c0.5,0.5,1.1,0.8,2,0.8c0.5,0,0.9,0,1.3-0.1
		c0.4-0.1,0.9-0.2,1.4-0.5v1.2c-0.5,0.2-0.9,0.3-1.3,0.4C153.7-100.6,153.3-100.6,152.7-100.6z M152.3-108.3c-0.7,0-1.2,0.2-1.6,0.6
		c-0.4,0.4-0.6,1-0.7,1.8h4.4c0-0.8-0.2-1.4-0.6-1.8C153.5-108.1,153-108.3,152.3-108.3z"/>
	<path id="XMLID_3227_" class="st9" d="M167.5-100.7l-0.3-1.2h-0.1c-0.4,0.5-0.9,0.9-1.3,1.1c-0.4,0.2-1,0.3-1.6,0.3
		c-0.8,0-1.5-0.2-2-0.7c-0.5-0.4-0.7-1.1-0.7-1.9c0-1.7,1.4-2.7,4.1-2.7l1.5-0.1v-0.5c0-0.7-0.1-1.1-0.4-1.4
		c-0.3-0.3-0.7-0.5-1.4-0.5c-0.5,0-0.9,0.1-1.3,0.2c-0.4,0.1-0.8,0.3-1.1,0.5l-0.4-1.1c0.4-0.2,0.9-0.4,1.4-0.5
		c0.5-0.1,1-0.2,1.5-0.2c1,0,1.8,0.2,2.3,0.7c0.5,0.5,0.8,1.2,0.8,2.2v5.8H167.5z M164.6-101.7c0.8,0,1.4-0.2,1.9-0.6
		c0.5-0.4,0.7-1,0.7-1.8v-0.8l-1.3,0.1c-1,0-1.7,0.2-2.2,0.5c-0.5,0.3-0.7,0.7-0.7,1.3c0,0.4,0.1,0.8,0.4,1
		C163.7-101.8,164.1-101.7,164.6-101.7z"/>
	<path id="XMLID_3230_" class="st9" d="M177-100.7v-5.5c0-0.7-0.2-1.2-0.5-1.6c-0.3-0.3-0.8-0.5-1.5-0.5c-0.9,0-1.5,0.2-1.9,0.7
		c-0.4,0.5-0.6,1.3-0.6,2.4v4.4h-1.4v-8.6h1.1l0.2,1.2h0.1c0.3-0.4,0.6-0.7,1.1-1c0.5-0.2,1-0.3,1.6-0.3c1.1,0,1.8,0.3,2.3,0.8
		c0.5,0.5,0.8,1.3,0.8,2.4v5.6H177z"/>
	<path id="XMLID_3232_" class="st9" d="M184.1-100.6c-1.1,0-2-0.4-2.6-1.2c-0.6-0.8-0.9-1.9-0.9-3.3c0-1.4,0.3-2.5,0.9-3.3
		c0.6-0.8,1.5-1.2,2.6-1.2c1.2,0,2,0.4,2.7,1.3h0.1c0-0.1,0-0.3-0.1-0.6c0-0.3,0-0.5,0-0.6v-3.4h1.4v12.2h-1.1l-0.2-1.1h-0.1
		C186.2-101,185.3-100.6,184.1-100.6z M184.3-101.7c0.9,0,1.5-0.2,1.9-0.7c0.4-0.5,0.6-1.2,0.6-2.3v-0.3c0-1.2-0.2-2-0.6-2.6
		s-1-0.8-1.9-0.8c-0.7,0-1.3,0.3-1.7,0.9c-0.4,0.6-0.6,1.4-0.6,2.5c0,1.1,0.2,1.9,0.6,2.4C183-102,183.6-101.7,184.3-101.7z"/>
	<path id="XMLID_3235_" class="st9" d="M34.6-83.7c-1.3,0-2.3-0.4-3-1.2c-0.7-0.8-1.1-1.9-1.1-3.2c0-1.4,0.3-2.5,1-3.3
		c0.7-0.8,1.6-1.2,2.8-1.2c1.1,0,1.9,0.3,2.6,1s1,1.6,1,2.8v0.9h-5.9c0,1,0.3,1.7,0.7,2.2c0.5,0.5,1.1,0.8,2,0.8
		c0.5,0,0.9,0,1.3-0.1c0.4-0.1,0.9-0.2,1.4-0.5v1.2c-0.5,0.2-0.9,0.3-1.3,0.4C35.6-83.7,35.1-83.7,34.6-83.7z M34.2-91.4
		c-0.7,0-1.2,0.2-1.6,0.6c-0.4,0.4-0.6,1-0.7,1.8h4.4c0-0.8-0.2-1.4-0.6-1.8C35.4-91.2,34.9-91.4,34.2-91.4z"/>
	<path id="XMLID_3238_" class="st9" d="M45.8-83.8v-5.5c0-0.7-0.2-1.2-0.5-1.6c-0.3-0.3-0.8-0.5-1.5-0.5c-0.9,0-1.5,0.2-1.9,0.7
		c-0.4,0.5-0.6,1.3-0.6,2.4v4.4h-1.4v-8.6h1.1l0.2,1.2h0.1c0.3-0.4,0.6-0.7,1.1-1c0.5-0.2,1-0.3,1.6-0.3c1.1,0,1.8,0.3,2.3,0.8
		c0.5,0.5,0.8,1.3,0.8,2.4v5.6H45.8z"/>
	<path id="XMLID_3240_" class="st9" d="M52.9-83.7c-1.1,0-2-0.4-2.6-1.2c-0.6-0.8-0.9-1.9-0.9-3.3c0-1.4,0.3-2.5,0.9-3.3
		c0.6-0.8,1.5-1.2,2.6-1.2c1.2,0,2,0.4,2.7,1.3h0.1c0-0.1,0-0.3-0.1-0.6c0-0.3,0-0.5,0-0.6V-96H57v12.2h-1.1L55.6-85h-0.1
		C55-84.1,54.1-83.7,52.9-83.7z M53.1-84.8c0.9,0,1.5-0.2,1.9-0.7c0.4-0.5,0.6-1.2,0.6-2.3v-0.3c0-1.2-0.2-2-0.6-2.6s-1-0.8-1.9-0.8
		c-0.7,0-1.3,0.3-1.7,0.9c-0.4,0.6-0.6,1.4-0.6,2.5c0,1.1,0.2,1.9,0.6,2.4C51.8-85.1,52.4-84.8,53.1-84.8z"/>
	<path id="XMLID_3243_" class="st9" d="M71.3-88.1c0,1.4-0.4,2.5-1.1,3.3c-0.7,0.8-1.7,1.2-2.9,1.2c-0.8,0-1.5-0.2-2.1-0.5
		c-0.6-0.4-1.1-0.9-1.4-1.6c-0.3-0.7-0.5-1.5-0.5-2.4c0-1.4,0.3-2.5,1-3.3c0.7-0.8,1.7-1.2,2.9-1.2c1.2,0,2.2,0.4,2.9,1.2
		C70.9-90.6,71.3-89.5,71.3-88.1z M64.8-88.1c0,1.1,0.2,1.9,0.6,2.5c0.4,0.6,1.1,0.8,1.9,0.8c0.8,0,1.4-0.3,1.9-0.8
		c0.4-0.6,0.6-1.4,0.6-2.5s-0.2-1.9-0.6-2.4c-0.4-0.5-1.1-0.8-1.9-0.8C65.6-91.4,64.8-90.3,64.8-88.1z"/>
	<path id="XMLID_3246_" class="st9" d="M77.5-91.3h-2.2v7.5h-1.4v-7.5h-1.5V-92l1.5-0.5V-93c0-1,0.2-1.8,0.7-2.3
		c0.5-0.5,1.2-0.8,2.1-0.8c0.5,0,1.1,0.1,1.7,0.3L78-94.7c-0.5-0.2-0.9-0.2-1.3-0.2c-0.5,0-0.8,0.2-1.1,0.5
		c-0.2,0.3-0.3,0.8-0.3,1.5v0.6h2.2V-91.3z"/>
	<path id="XMLID_3248_" class="st9" d="M86.1-84.8c0.2,0,0.4,0,0.6-0.1c0.2,0,0.4-0.1,0.6-0.1v1.1c-0.1,0.1-0.3,0.1-0.6,0.2
		s-0.6,0.1-0.8,0.1c-1.7,0-2.5-0.9-2.5-2.6v-5h-1.2V-92l1.2-0.6l0.6-1.8h0.8v2h2.5v1.1h-2.5v5c0,0.5,0.1,0.9,0.4,1.1
		C85.3-85,85.6-84.8,86.1-84.8z"/>
	<path id="XMLID_3250_" class="st9" d="M94.8-83.8v-5.5c0-0.7-0.2-1.2-0.5-1.6c-0.3-0.3-0.8-0.5-1.5-0.5c-0.9,0-1.5,0.2-1.9,0.7
		c-0.4,0.5-0.6,1.3-0.6,2.4v4.4H89V-96h1.4v3.6c0,0.5,0,0.9-0.1,1.2h0.1c0.3-0.4,0.6-0.7,1.1-1s1-0.4,1.6-0.4c1,0,1.8,0.2,2.4,0.7
		c0.5,0.5,0.8,1.3,0.8,2.4v5.6H94.8z"/>
	<path id="XMLID_3252_" class="st9" d="M102.5-83.7c-1.3,0-2.3-0.4-3-1.2c-0.7-0.8-1.1-1.9-1.1-3.2c0-1.4,0.3-2.5,1-3.3
		c0.7-0.8,1.6-1.2,2.8-1.2c1.1,0,1.9,0.3,2.6,1s1,1.6,1,2.8v0.9h-5.9c0,1,0.3,1.7,0.7,2.2c0.5,0.5,1.1,0.8,2,0.8
		c0.5,0,0.9,0,1.3-0.1c0.4-0.1,0.9-0.2,1.4-0.5v1.2c-0.5,0.2-0.9,0.3-1.3,0.4C103.6-83.7,103.1-83.7,102.5-83.7z M102.1-91.4
		c-0.7,0-1.2,0.2-1.6,0.6c-0.4,0.4-0.6,1-0.7,1.8h4.4c0-0.8-0.2-1.4-0.6-1.8C103.3-91.2,102.8-91.4,102.1-91.4z"/>
	<path id="XMLID_3255_" class="st9" d="M122.9-83.8v-5.5c0-1.4-0.6-2-1.7-2c-0.8,0-1.4,0.2-1.8,0.7c-0.4,0.5-0.6,1.2-0.6,2.1v4.7
		h-1.4v-5.5c0-0.7-0.1-1.2-0.4-1.5c-0.3-0.3-0.7-0.5-1.3-0.5c-0.8,0-1.4,0.2-1.7,0.7s-0.6,1.3-0.6,2.4v4.4H112v-8.6h1.1l0.2,1.2h0.1
		c0.2-0.4,0.6-0.7,1-1s0.9-0.4,1.5-0.4c1.3,0,2.2,0.5,2.6,1.4h0.1c0.3-0.5,0.7-0.8,1.1-1.1s1-0.4,1.6-0.4c1,0,1.7,0.3,2.2,0.8
		c0.5,0.5,0.7,1.3,0.7,2.4v5.6H122.9z"/>
	<path id="XMLID_3257_" class="st9" d="M134.4-88.1c0,1.4-0.4,2.5-1.1,3.3c-0.7,0.8-1.7,1.2-2.9,1.2c-0.8,0-1.5-0.2-2.1-0.5
		c-0.6-0.4-1.1-0.9-1.4-1.6c-0.3-0.7-0.5-1.5-0.5-2.4c0-1.4,0.3-2.5,1-3.3c0.7-0.8,1.7-1.2,2.9-1.2c1.2,0,2.2,0.4,2.9,1.2
		C134.1-90.6,134.4-89.5,134.4-88.1z M128-88.1c0,1.1,0.2,1.9,0.6,2.5c0.4,0.6,1.1,0.8,1.9,0.8c0.8,0,1.4-0.3,1.9-0.8
		c0.4-0.6,0.6-1.4,0.6-2.5s-0.2-1.9-0.6-2.4c-0.4-0.5-1.1-0.8-1.9-0.8C128.8-91.4,128-90.3,128-88.1z"/>
	<path id="XMLID_3260_" class="st9" d="M142.5-83.8v-5.5c0-0.7-0.2-1.2-0.5-1.6c-0.3-0.3-0.8-0.5-1.5-0.5c-0.9,0-1.5,0.2-1.9,0.7
		c-0.4,0.5-0.6,1.3-0.6,2.4v4.4h-1.4v-8.6h1.1l0.2,1.2h0.1c0.3-0.4,0.6-0.7,1.1-1c0.5-0.2,1-0.3,1.6-0.3c1.1,0,1.8,0.3,2.3,0.8
		c0.5,0.5,0.8,1.3,0.8,2.4v5.6H142.5z"/>
	<path id="XMLID_3262_" class="st9" d="M149.4-84.8c0.2,0,0.4,0,0.6-0.1c0.2,0,0.4-0.1,0.6-0.1v1.1c-0.1,0.1-0.3,0.1-0.6,0.2
		s-0.6,0.1-0.8,0.1c-1.7,0-2.5-0.9-2.5-2.6v-5h-1.2V-92l1.2-0.6l0.6-1.8h0.8v2h2.5v1.1h-2.5v5c0,0.5,0.1,0.9,0.4,1.1
		C148.7-85,149-84.8,149.4-84.8z"/>
	<path id="XMLID_3264_" class="st9" d="M158.2-83.8v-5.5c0-0.7-0.2-1.2-0.5-1.6c-0.3-0.3-0.8-0.5-1.5-0.5c-0.9,0-1.5,0.2-1.9,0.7
		c-0.4,0.5-0.6,1.3-0.6,2.4v4.4h-1.4V-96h1.4v3.6c0,0.5,0,0.9-0.1,1.2h0.1c0.3-0.4,0.6-0.7,1.1-1s1-0.4,1.6-0.4c1,0,1.8,0.2,2.4,0.7
		c0.5,0.5,0.8,1.3,0.8,2.4v5.6H158.2z"/>
	<path id="XMLID_3266_" class="st9" d="M162-84.7c0-0.3,0.1-0.6,0.3-0.8c0.2-0.2,0.4-0.3,0.7-0.3c0.3,0,0.6,0.1,0.7,0.3
		c0.2,0.2,0.3,0.4,0.3,0.8c0,0.3-0.1,0.6-0.3,0.8c-0.2,0.2-0.4,0.3-0.7,0.3c-0.3,0-0.5-0.1-0.7-0.3S162-84.4,162-84.7z"/>
</g>
<g id="XMLID_2336_">
	<rect id="XMLID_2341_" x="238" y="28" class="st7" width="39" height="39"/>
	<rect id="XMLID_2340_" x="233" y="20" class="st7" width="47" height="8"/>
	<rect id="XMLID_2339_" x="253" y="20" class="st8" width="8" height="47"/>
	<path id="XMLID_2338_" class="st10" d="M255.7,17c0,0-12.9,0.5-16.4-1.9c-3.5-2.4-4.4-7.2-2-10.7c2.4-3.5,7.2-4.4,10.7-2
		C251.5,4.9,255.7,17,255.7,17z"/>
	<path id="XMLID_2337_" class="st10" d="M256.6,17c0,0,12.9,0.5,16.4-1.9c3.5-2.4,4.4-7.2,2-10.7c-2.4-3.5-7.2-4.4-10.7-2
		C260.8,4.9,256.6,17,256.6,17z"/>
</g>
<circle id="XMLID_3338_" class="st2" cx="8.4" cy="16.5" r="8.4"/>
<g id="XMLID_3322_">
	<path id="XMLID_3323_" class="st1" d="M11,20H5v-1l2-2.2c0.6-0.7,1-1.1,1.2-1.4s0.3-0.5,0.4-0.7s0.1-0.4,0.1-0.7
		c0-0.3-0.1-0.6-0.3-0.8S7.9,13,7.6,13c-0.3,0-0.7,0.1-1,0.2s-0.6,0.4-1,0.7l-1-1.2c0.4-0.4,0.8-0.6,1-0.8s0.6-0.3,0.9-0.3
		s0.7-0.1,1.1-0.1c0.5,0,1,0.1,1.4,0.3s0.7,0.5,1,0.8s0.3,0.8,0.3,1.2c0,0.4-0.1,0.8-0.2,1.1S9.9,15.7,9.6,16s-0.8,0.9-1.5,1.6
		l-1.1,1V19h4V20z"/>
</g>
<g id="XMLID_2222_">
	<g id="XMLID_1064_">
		<path id="XMLID_1145_" class="st9" d="M39.3,15.2c0,1.9-0.5,3.3-1.5,4.3c-1,1-2.5,1.5-4.4,1.5h-3.2V9.6h3.5c1.8,0,3.2,0.5,4.1,1.5
			C38.8,12,39.3,13.4,39.3,15.2z M37.8,15.2c0-1.5-0.4-2.6-1.1-3.3c-0.7-0.7-1.8-1.1-3.2-1.1h-1.9v9h1.6
			C36.2,19.8,37.8,18.3,37.8,15.2z"/>
		<path id="XMLID_1143_" class="st9" d="M42.9,12.4V18c0,0.7,0.2,1.2,0.5,1.5c0.3,0.3,0.8,0.5,1.4,0.5c0.9,0,1.5-0.2,1.9-0.7
			c0.4-0.5,0.6-1.3,0.6-2.4v-4.5h1.4V21h-1.2l-0.2-1.1h-0.1c-0.3,0.4-0.6,0.7-1.1,1s-1,0.3-1.6,0.3c-1,0-1.8-0.2-2.3-0.7
			c-0.5-0.5-0.8-1.3-0.8-2.4v-5.6H42.9z"/>
		<path id="XMLID_1141_" class="st9" d="M55.5,12.3c0.4,0,0.7,0,1,0.1l-0.2,1.3c-0.3-0.1-0.6-0.1-0.9-0.1c-0.5,0-0.9,0.1-1.3,0.4
			c-0.4,0.3-0.7,0.6-0.9,1c-0.2,0.4-0.3,0.9-0.3,1.5V21h-1.4v-8.6h1.2l0.2,1.6h0.1c0.3-0.6,0.7-1,1.2-1.3
			C54.5,12.4,55,12.3,55.5,12.3z"/>
		<path id="XMLID_1138_" class="st9" d="M58,10.1c0-0.3,0.1-0.5,0.2-0.7c0.2-0.1,0.4-0.2,0.6-0.2c0.2,0,0.4,0.1,0.6,0.2
			s0.2,0.4,0.2,0.7c0,0.3-0.1,0.5-0.2,0.7C59.2,10.9,59,11,58.8,11c-0.2,0-0.4-0.1-0.6-0.2C58.1,10.7,58,10.4,58,10.1z M59.5,21
			h-1.4v-8.6h1.4V21z"/>
		<path id="XMLID_1136_" class="st9" d="M68.1,21v-5.5c0-0.7-0.2-1.2-0.5-1.6c-0.3-0.3-0.8-0.5-1.5-0.5c-0.9,0-1.5,0.2-1.9,0.7
			c-0.4,0.5-0.6,1.3-0.6,2.4V21h-1.4v-8.6h1.1l0.2,1.2h0.1c0.3-0.4,0.6-0.7,1.1-1c0.5-0.2,1-0.3,1.6-0.3c1.1,0,1.8,0.3,2.3,0.8
			c0.5,0.5,0.8,1.3,0.8,2.4V21H68.1z"/>
		<path id="XMLID_1133_" class="st9" d="M77.8,20.9l0-1.1h-0.1c-0.6,0.9-1.5,1.3-2.7,1.3c-1.1,0-2-0.4-2.6-1.2
			c-0.6-0.8-0.9-1.9-0.9-3.3c0-1.4,0.3-2.5,0.9-3.3c0.6-0.8,1.5-1.2,2.6-1.2c1.2,0,2.1,0.4,2.7,1.3h0.1l0.2-1.1h1.1v8.7
			c0,1.2-0.3,2.2-0.9,2.8c-0.6,0.6-1.6,0.9-2.9,0.9c-1.3,0-2.3-0.2-3.1-0.5V23c0.8,0.4,1.9,0.7,3.2,0.7c0.7,0,1.3-0.2,1.7-0.6
			c0.4-0.4,0.6-1,0.6-1.8V20.9z M75.4,20c0.9,0,1.5-0.2,1.9-0.7c0.4-0.5,0.6-1.2,0.6-2.2v-0.3c0-1.1-0.2-2-0.6-2.5
			c-0.4-0.5-1-0.8-1.9-0.8c-0.7,0-1.3,0.3-1.7,0.9c-0.4,0.6-0.6,1.4-0.6,2.4c0,1.1,0.2,1.9,0.6,2.4C74.1,19.8,74.6,20,75.4,20z"/>
		<path id="XMLID_1131_" class="st9" d="M92,21v-5.5c0-0.7-0.2-1.2-0.5-1.6c-0.3-0.3-0.8-0.5-1.5-0.5c-0.9,0-1.5,0.2-1.9,0.7
			c-0.4,0.5-0.6,1.3-0.6,2.4V21h-1.4v-8.6h1.1l0.2,1.2h0.1c0.3-0.4,0.6-0.7,1.1-1c0.5-0.2,1-0.3,1.6-0.3c1.1,0,1.8,0.3,2.3,0.8
			c0.5,0.5,0.8,1.3,0.8,2.4V21H92z"/>
		<path id="XMLID_1128_" class="st9" d="M99.7,21.2c-1.3,0-2.3-0.4-3-1.2c-0.7-0.8-1.1-1.9-1.1-3.2c0-1.4,0.3-2.5,1-3.3
			c0.7-0.8,1.6-1.2,2.8-1.2c1.1,0,1.9,0.3,2.6,1s1,1.6,1,2.8V17H97c0,1,0.3,1.7,0.7,2.2c0.5,0.5,1.1,0.8,2,0.8c0.5,0,0.9,0,1.3-0.1
			c0.4-0.1,0.9-0.2,1.4-0.5v1.2c-0.5,0.2-0.9,0.3-1.3,0.4C100.7,21.1,100.2,21.2,99.7,21.2z M99.3,13.4c-0.7,0-1.2,0.2-1.6,0.6
			c-0.4,0.4-0.6,1-0.7,1.8h4.4c0-0.8-0.2-1.4-0.6-1.8C100.5,13.6,100,13.4,99.3,13.4z"/>
		<path id="XMLID_1126_" class="st9" d="M111.9,21l-1.5-4.8c-0.1-0.4-0.3-1.2-0.6-2.3h-0.1c-0.2,1-0.4,1.8-0.6,2.3l-1.5,4.8h-1.6
			l-2.4-8.6h1.5c0.5,2.1,1,3.7,1.2,4.8c0.3,1.1,0.5,1.9,0.5,2.3h0.1l0.1-0.5c0.2-0.7,0.3-1.4,0.5-1.8l1.5-4.8h1.5l1.5,4.8
			c0.1,0.2,0.1,0.4,0.2,0.6c0.1,0.2,0.1,0.4,0.2,0.6c0.1,0.2,0.1,0.4,0.1,0.6c0,0.2,0.1,0.4,0.1,0.5h0.1c0-0.4,0.2-1.2,0.6-2.5
			l1.2-4.6h1.4l-2.4,8.6H111.9z"/>
		<path id="XMLID_1123_" class="st9" d="M125.7,21.2c-1.2,0-2-0.4-2.7-1.2h-0.1l0,0.3c0,0.4,0.1,0.8,0.1,1.1v3.5h-1.4V12.4h1.2
			l0.2,1.2h0.1c0.3-0.5,0.7-0.8,1.2-1c0.4-0.2,0.9-0.3,1.5-0.3c1.1,0,2,0.4,2.6,1.2s0.9,1.9,0.9,3.3c0,1.4-0.3,2.5-0.9,3.3
			C127.7,20.8,126.8,21.2,125.7,21.2z M125.4,13.5c-0.8,0-1.5,0.2-1.8,0.7c-0.4,0.5-0.6,1.2-0.6,2.3v0.3c0,1.2,0.2,2,0.6,2.5
			c0.4,0.5,1,0.8,1.9,0.8c0.7,0,1.3-0.3,1.7-0.9c0.4-0.6,0.6-1.4,0.6-2.4c0-1-0.2-1.8-0.6-2.4C126.8,13.7,126.2,13.5,125.4,13.5z"/>
		<path id="XMLID_1121_" class="st9" d="M135.5,12.3c0.4,0,0.7,0,1,0.1l-0.2,1.3c-0.3-0.1-0.6-0.1-0.9-0.1c-0.5,0-0.9,0.1-1.3,0.4
			c-0.4,0.3-0.7,0.6-0.9,1c-0.2,0.4-0.3,0.9-0.3,1.5V21h-1.4v-8.6h1.2l0.2,1.6h0.1c0.3-0.6,0.7-1,1.2-1.3
			C134.4,12.4,134.9,12.3,135.5,12.3z"/>
		<path id="XMLID_1118_" class="st9" d="M145.4,16.7c0,1.4-0.4,2.5-1.1,3.3c-0.7,0.8-1.7,1.2-2.9,1.2c-0.8,0-1.5-0.2-2.1-0.5
			c-0.6-0.4-1.1-0.9-1.4-1.6c-0.3-0.7-0.5-1.5-0.5-2.4c0-1.4,0.3-2.5,1-3.3c0.7-0.8,1.7-1.2,2.9-1.2c1.2,0,2.2,0.4,2.9,1.2
			C145,14.3,145.4,15.4,145.4,16.7z M138.9,16.7c0,1.1,0.2,1.9,0.6,2.5c0.4,0.6,1.1,0.8,1.9,0.8c0.8,0,1.4-0.3,1.9-0.8
			c0.4-0.6,0.6-1.4,0.6-2.5s-0.2-1.9-0.6-2.4c-0.4-0.5-1.1-0.8-1.9-0.8C139.7,13.5,138.9,14.6,138.9,16.7z"/>
		<path id="XMLID_1115_" class="st9" d="M150.6,21.2c-1.1,0-2-0.4-2.6-1.2c-0.6-0.8-0.9-1.9-0.9-3.3c0-1.4,0.3-2.5,0.9-3.3
			c0.6-0.8,1.5-1.2,2.6-1.2c1.2,0,2,0.4,2.7,1.3h0.1c0-0.1,0-0.3-0.1-0.6c0-0.3,0-0.5,0-0.6V8.9h1.4V21h-1.1l-0.2-1.1h-0.1
			C152.7,20.7,151.8,21.2,150.6,21.2z M150.9,20c0.9,0,1.5-0.2,1.9-0.7c0.4-0.5,0.6-1.2,0.6-2.3v-0.3c0-1.2-0.2-2-0.6-2.6
			s-1-0.8-1.9-0.8c-0.7,0-1.3,0.3-1.7,0.9c-0.4,0.6-0.6,1.4-0.6,2.5c0,1.1,0.2,1.9,0.6,2.4C149.5,19.7,150.1,20,150.9,20z"/>
		<path id="XMLID_1113_" class="st9" d="M158.8,12.4V18c0,0.7,0.2,1.2,0.5,1.5c0.3,0.3,0.8,0.5,1.4,0.5c0.9,0,1.5-0.2,1.9-0.7
			c0.4-0.5,0.6-1.3,0.6-2.4v-4.5h1.4V21h-1.2l-0.2-1.1h-0.1c-0.3,0.4-0.6,0.7-1.1,1s-1,0.3-1.6,0.3c-1,0-1.8-0.2-2.3-0.7
			c-0.5-0.5-0.8-1.3-0.8-2.4v-5.6H158.8z"/>
		<path id="XMLID_1111_" class="st9" d="M170.8,21.2c-1.2,0-2.2-0.4-2.9-1.1s-1-1.8-1-3.3c0-1.4,0.3-2.5,1-3.3
			c0.7-0.8,1.7-1.2,3-1.2c0.4,0,0.8,0,1.2,0.1c0.4,0.1,0.7,0.2,1,0.3l-0.4,1.2c-0.7-0.3-1.3-0.4-1.9-0.4c-0.9,0-1.5,0.3-1.9,0.8
			c-0.4,0.5-0.6,1.4-0.6,2.4c0,1,0.2,1.8,0.6,2.4c0.4,0.5,1,0.8,1.8,0.8c0.8,0,1.5-0.2,2.2-0.5v1.3C172.4,21,171.6,21.2,170.8,21.2z
			"/>
		<path id="XMLID_1109_" class="st9" d="M177.9,20c0.2,0,0.4,0,0.6-0.1c0.2,0,0.4-0.1,0.6-0.1v1.1c-0.1,0.1-0.3,0.1-0.6,0.2
			s-0.6,0.1-0.8,0.1c-1.7,0-2.5-0.9-2.5-2.6v-5h-1.2v-0.7l1.2-0.6l0.6-1.8h0.8v2h2.5v1.1h-2.5v5c0,0.5,0.1,0.9,0.4,1.1
			C177.1,19.9,177.4,20,177.9,20z"/>
		<path id="XMLID_1107_" class="st9" d="M186.4,18.7c0,0.8-0.3,1.4-0.9,1.9c-0.6,0.4-1.4,0.7-2.5,0.7c-1.1,0-2-0.2-2.7-0.5v-1.3
			c0.9,0.5,1.9,0.7,2.7,0.7c0.7,0,1.2-0.1,1.5-0.3c0.3-0.2,0.5-0.5,0.5-0.9c0-0.3-0.2-0.6-0.5-0.9c-0.3-0.2-0.9-0.5-1.7-0.8
			c-0.8-0.3-1.4-0.6-1.7-0.8c-0.3-0.2-0.6-0.5-0.7-0.7c-0.2-0.3-0.2-0.6-0.2-1c0-0.7,0.3-1.3,0.9-1.7c0.6-0.4,1.4-0.6,2.4-0.6
			c1,0,1.9,0.2,2.7,0.6l-0.5,1.1c-0.9-0.4-1.7-0.5-2.4-0.5c-0.6,0-1,0.1-1.3,0.3c-0.3,0.2-0.5,0.4-0.5,0.8c0,0.3,0.1,0.6,0.4,0.8
			c0.3,0.2,0.9,0.5,1.8,0.9c0.7,0.3,1.2,0.5,1.6,0.7c0.3,0.2,0.6,0.5,0.8,0.8C186.3,17.9,186.4,18.3,186.4,18.7z"/>
		<path id="XMLID_1104_" class="st9" d="M37.4,33.6c0,1.4-0.4,2.5-1.1,3.3c-0.7,0.8-1.7,1.2-2.9,1.2c-0.8,0-1.5-0.2-2.1-0.5
			c-0.6-0.4-1.1-0.9-1.4-1.6c-0.3-0.7-0.5-1.5-0.5-2.4c0-1.4,0.3-2.5,1-3.3c0.7-0.8,1.7-1.2,2.9-1.2c1.2,0,2.2,0.4,2.9,1.2
			C37,31.2,37.4,32.2,37.4,33.6z M30.9,33.6c0,1.1,0.2,1.9,0.6,2.5c0.4,0.6,1.1,0.8,1.9,0.8c0.8,0,1.4-0.3,1.9-0.8
			c0.4-0.6,0.6-1.4,0.6-2.5s-0.2-1.9-0.6-2.4c-0.4-0.5-1.1-0.8-1.9-0.8C31.7,30.4,30.9,31.4,30.9,33.6z"/>
		<path id="XMLID_1102_" class="st9" d="M43.6,29.2c0.4,0,0.7,0,1,0.1l-0.2,1.3c-0.3-0.1-0.6-0.1-0.9-0.1c-0.5,0-0.9,0.1-1.3,0.4
			c-0.4,0.3-0.7,0.6-0.9,1c-0.2,0.4-0.3,0.9-0.3,1.5v4.6h-1.4v-8.6h1.2l0.2,1.6H41c0.3-0.6,0.7-1,1.2-1.3
			C42.6,29.3,43.1,29.2,43.6,29.2z"/>
		<path id="XMLID_1100_" class="st9" d="M56,35.5c0,0.8-0.3,1.4-0.9,1.9c-0.6,0.4-1.4,0.7-2.5,0.7c-1.1,0-2-0.2-2.7-0.5v-1.3
			c0.9,0.5,1.9,0.7,2.7,0.7c0.7,0,1.2-0.1,1.5-0.3c0.3-0.2,0.5-0.5,0.5-0.9c0-0.3-0.2-0.6-0.5-0.9c-0.3-0.2-0.9-0.5-1.7-0.8
			c-0.8-0.3-1.4-0.6-1.7-0.8c-0.3-0.2-0.6-0.5-0.7-0.7c-0.2-0.3-0.2-0.6-0.2-1c0-0.7,0.3-1.3,0.9-1.7c0.6-0.4,1.4-0.6,2.4-0.6
			c1,0,1.9,0.2,2.7,0.6l-0.5,1.1c-0.9-0.4-1.7-0.5-2.4-0.5c-0.6,0-1,0.1-1.3,0.3c-0.3,0.2-0.5,0.4-0.5,0.8c0,0.3,0.1,0.6,0.4,0.8
			c0.3,0.2,0.9,0.5,1.8,0.9c0.7,0.3,1.2,0.5,1.6,0.7c0.3,0.2,0.6,0.5,0.8,0.8C55.9,34.8,56,35.1,56,35.5z"/>
		<path id="XMLID_1097_" class="st9" d="M61.7,38.1c-1.3,0-2.3-0.4-3-1.2c-0.7-0.8-1.1-1.9-1.1-3.2c0-1.4,0.3-2.5,1-3.3
			c0.7-0.8,1.6-1.2,2.8-1.2c1.1,0,1.9,0.3,2.6,1s1,1.6,1,2.8v0.9H59c0,1,0.3,1.7,0.7,2.2c0.5,0.5,1.1,0.8,2,0.8c0.5,0,0.9,0,1.3-0.1
			c0.4-0.1,0.9-0.2,1.4-0.5v1.2c-0.5,0.2-0.9,0.3-1.3,0.4C62.7,38,62.3,38.1,61.7,38.1z M61.3,30.3c-0.7,0-1.2,0.2-1.6,0.6
			c-0.4,0.4-0.6,1-0.7,1.8h4.4c0-0.8-0.2-1.4-0.6-1.8C62.5,30.5,62,30.3,61.3,30.3z"/>
		<path id="XMLID_1095_" class="st9" d="M71.1,29.2c0.4,0,0.7,0,1,0.1l-0.2,1.3c-0.3-0.1-0.6-0.1-0.9-0.1c-0.5,0-0.9,0.1-1.3,0.4
			c-0.4,0.3-0.7,0.6-0.9,1c-0.2,0.4-0.3,0.9-0.3,1.5v4.6h-1.4v-8.6h1.2l0.2,1.6h0.1c0.3-0.6,0.7-1,1.2-1.3
			C70,29.3,70.5,29.2,71.1,29.2z"/>
		<path id="XMLID_1093_" class="st9" d="M75.6,37.9l-3.3-8.6h1.5l1.8,5.1c0.4,1,0.6,1.8,0.7,2.3h0.1c0-0.1,0-0.1,0.1-0.2
			s0.1-0.2,0.1-0.3s0.2-0.7,0.6-1.8l1.8-5.1h1.5l-3.3,8.6H75.6z"/>
		<path id="XMLID_1090_" class="st9" d="M81.7,27c0-0.3,0.1-0.5,0.2-0.7c0.2-0.1,0.4-0.2,0.6-0.2c0.2,0,0.4,0.1,0.6,0.2
			s0.2,0.4,0.2,0.7c0,0.3-0.1,0.5-0.2,0.7c-0.2,0.1-0.4,0.2-0.6,0.2c-0.2,0-0.4-0.1-0.6-0.2C81.8,27.5,81.7,27.3,81.7,27z
			 M83.2,37.9h-1.4v-8.6h1.4V37.9z"/>
		<path id="XMLID_1088_" class="st9" d="M89.4,38.1c-1.2,0-2.2-0.4-2.9-1.1s-1-1.8-1-3.3c0-1.4,0.3-2.5,1-3.3c0.7-0.8,1.7-1.2,3-1.2
			c0.4,0,0.8,0,1.2,0.1c0.4,0.1,0.7,0.2,1,0.3l-0.4,1.2c-0.7-0.3-1.3-0.4-1.9-0.4c-0.9,0-1.5,0.3-1.9,0.8c-0.4,0.5-0.6,1.4-0.6,2.4
			c0,1,0.2,1.8,0.6,2.4c0.4,0.5,1,0.8,1.8,0.8c0.8,0,1.5-0.2,2.2-0.5v1.3C91,37.9,90.2,38.1,89.4,38.1z"/>
		<path id="XMLID_1085_" class="st9" d="M97.2,38.1c-1.3,0-2.3-0.4-3-1.2c-0.7-0.8-1.1-1.9-1.1-3.2c0-1.4,0.3-2.5,1-3.3
			c0.7-0.8,1.6-1.2,2.8-1.2c1.1,0,1.9,0.3,2.6,1s1,1.6,1,2.8v0.9h-5.9c0,1,0.3,1.7,0.7,2.2c0.5,0.5,1.1,0.8,2,0.8
			c0.5,0,0.9,0,1.3-0.1c0.4-0.1,0.9-0.2,1.4-0.5v1.2c-0.5,0.2-0.9,0.3-1.3,0.4C98.3,38,97.8,38.1,97.2,38.1z M96.9,30.3
			c-0.7,0-1.2,0.2-1.6,0.6c-0.4,0.4-0.6,1-0.7,1.8H99c0-0.8-0.2-1.4-0.6-1.8C98.1,30.5,97.6,30.3,96.9,30.3z"/>
		<path id="XMLID_1083_" class="st9" d="M108.2,37.9h-1.4V25.8h1.4V37.9z"/>
		<path id="XMLID_1080_" class="st9" d="M116.2,37.9l-0.3-1.2h-0.1c-0.4,0.5-0.9,0.9-1.3,1.1c-0.4,0.2-1,0.3-1.6,0.3
			c-0.8,0-1.5-0.2-2-0.7c-0.5-0.4-0.7-1.1-0.7-1.9c0-1.7,1.4-2.7,4.1-2.7l1.5-0.1v-0.5c0-0.7-0.1-1.1-0.4-1.4
			c-0.3-0.3-0.7-0.5-1.4-0.5c-0.5,0-0.9,0.1-1.3,0.2c-0.4,0.1-0.8,0.3-1.1,0.5l-0.4-1.1c0.4-0.2,0.9-0.4,1.4-0.5
			c0.5-0.1,1-0.2,1.5-0.2c1,0,1.8,0.2,2.3,0.7c0.5,0.5,0.8,1.2,0.8,2.2v5.8H116.2z M113.3,36.9c0.8,0,1.4-0.2,1.9-0.6
			c0.5-0.4,0.7-1,0.7-1.8v-0.8l-1.3,0.1c-1,0-1.7,0.2-2.2,0.5c-0.5,0.3-0.7,0.7-0.7,1.3c0,0.4,0.1,0.8,0.4,1
			C112.4,36.8,112.8,36.9,113.3,36.9z"/>
		<path id="XMLID_1078_" class="st9" d="M121.2,29.3v5.5c0,0.7,0.2,1.2,0.5,1.5c0.3,0.3,0.8,0.5,1.4,0.5c0.9,0,1.5-0.2,1.9-0.7
			c0.4-0.5,0.6-1.3,0.6-2.4v-4.5h1.4v8.6h-1.2l-0.2-1.1h-0.1c-0.3,0.4-0.6,0.7-1.1,1s-1,0.3-1.6,0.3c-1,0-1.8-0.2-2.3-0.7
			c-0.5-0.5-0.8-1.3-0.8-2.4v-5.6H121.2z"/>
		<path id="XMLID_1076_" class="st9" d="M135.6,37.9v-5.5c0-0.7-0.2-1.2-0.5-1.6c-0.3-0.3-0.8-0.5-1.5-0.5c-0.9,0-1.5,0.2-1.9,0.7
			c-0.4,0.5-0.6,1.3-0.6,2.4v4.4h-1.4v-8.6h1.1l0.2,1.2h0.1c0.3-0.4,0.6-0.7,1.1-1c0.5-0.2,1-0.3,1.6-0.3c1.1,0,1.8,0.3,2.3,0.8
			c0.5,0.5,0.8,1.3,0.8,2.4v5.6H135.6z"/>
		<path id="XMLID_1074_" class="st9" d="M143.1,38.1c-1.2,0-2.2-0.4-2.9-1.1s-1-1.8-1-3.3c0-1.4,0.3-2.5,1-3.3
			c0.7-0.8,1.7-1.2,3-1.2c0.4,0,0.8,0,1.2,0.1c0.4,0.1,0.7,0.2,1,0.3l-0.4,1.2c-0.7-0.3-1.3-0.4-1.9-0.4c-0.9,0-1.5,0.3-1.9,0.8
			c-0.4,0.5-0.6,1.4-0.6,2.4c0,1,0.2,1.8,0.6,2.4c0.4,0.5,1,0.8,1.8,0.8c0.8,0,1.5-0.2,2.2-0.5v1.3C144.7,37.9,144,38.1,143.1,38.1z
			"/>
		<path id="XMLID_1072_" class="st9" d="M153.2,37.9v-5.5c0-0.7-0.2-1.2-0.5-1.6c-0.3-0.3-0.8-0.5-1.5-0.5c-0.9,0-1.5,0.2-1.9,0.7
			c-0.4,0.5-0.6,1.3-0.6,2.4v4.4h-1.4V25.8h1.4v3.6c0,0.5,0,0.9-0.1,1.2h0.1c0.3-0.4,0.6-0.7,1.1-1s1-0.4,1.6-0.4
			c1,0,1.8,0.2,2.4,0.7c0.5,0.5,0.8,1.3,0.8,2.4v5.6H153.2z"/>
		<path id="XMLID_1069_" class="st9" d="M160.9,38.1c-1.3,0-2.3-0.4-3-1.2c-0.7-0.8-1.1-1.9-1.1-3.2c0-1.4,0.3-2.5,1-3.3
			c0.7-0.8,1.6-1.2,2.8-1.2c1.1,0,1.9,0.3,2.6,1s1,1.6,1,2.8v0.9h-5.9c0,1,0.3,1.7,0.7,2.2c0.5,0.5,1.1,0.8,2,0.8
			c0.5,0,0.9,0,1.3-0.1c0.4-0.1,0.9-0.2,1.4-0.5v1.2c-0.5,0.2-0.9,0.3-1.3,0.4C161.9,38,161.4,38.1,160.9,38.1z M160.5,30.3
			c-0.7,0-1.2,0.2-1.6,0.6c-0.4,0.4-0.6,1-0.7,1.8h4.4c0-0.8-0.2-1.4-0.6-1.8C161.7,30.5,161.2,30.3,160.5,30.3z"/>
		<path id="XMLID_1067_" class="st9" d="M171.8,35.5c0,0.8-0.3,1.4-0.9,1.9c-0.6,0.4-1.4,0.7-2.5,0.7c-1.1,0-2-0.2-2.7-0.5v-1.3
			c0.9,0.5,1.9,0.7,2.7,0.7c0.7,0,1.2-0.1,1.5-0.3c0.3-0.2,0.5-0.5,0.5-0.9c0-0.3-0.2-0.6-0.5-0.9c-0.3-0.2-0.9-0.5-1.7-0.8
			c-0.8-0.3-1.4-0.6-1.7-0.8c-0.3-0.2-0.6-0.5-0.7-0.7c-0.2-0.3-0.2-0.6-0.2-1c0-0.7,0.3-1.3,0.9-1.7c0.6-0.4,1.4-0.6,2.4-0.6
			c1,0,1.9,0.2,2.7,0.6l-0.5,1.1c-0.9-0.4-1.7-0.5-2.4-0.5c-0.6,0-1,0.1-1.3,0.3c-0.3,0.2-0.5,0.4-0.5,0.8c0,0.3,0.1,0.6,0.4,0.8
			c0.3,0.2,0.9,0.5,1.8,0.9c0.7,0.3,1.2,0.5,1.6,0.7c0.3,0.2,0.6,0.5,0.8,0.8C171.8,34.8,171.8,35.1,171.8,35.5z"/>
		<path id="XMLID_1065_" class="st9" d="M173.7,37c0-0.3,0.1-0.6,0.3-0.8c0.2-0.2,0.4-0.3,0.7-0.3c0.3,0,0.6,0.1,0.7,0.3
			c0.2,0.2,0.3,0.4,0.3,0.8c0,0.3-0.1,0.6-0.3,0.8c-0.2,0.2-0.4,0.3-0.7,0.3c-0.3,0-0.5-0.1-0.7-0.3S173.7,37.4,173.7,37z"/>
	</g>
</g>
<circle id="XMLID_3337_" class="st2" cx="-61.6" cy="108" r="8.4"/>
<g id="XMLID_3319_">
	<path id="XMLID_3320_" class="st1" d="M-59.6,105.9c0,0.5,0.1,1-0.2,1.4s-1.1,0.6-1.1,0.8v0c0,0.1,1,0.3,1.3,0.6s0.4,0.8,0.4,1.4
		c0,0.8-0.4,1.5-1,1.9s-1.3,0.7-2.4,0.7c-0.9,0-2.3-0.2-2.3-0.5v-1.5c0,0.2,0.5,0.3,0.9,0.4s0.7,0.2,1.1,0.2c0.6,0,1-0.1,1.3-0.3
		s0.4-0.5,0.4-1c0-0.4-0.2-0.6-0.5-0.8s-0.9-0.2-1.6-0.2H-64v-1h0.7c0.7,0,1.1-0.4,1.5-0.5s0.5-0.6,0.5-1c0-0.6-0.4-1-1.2-1
		c-0.3,0-0.6,0-0.9,0.1s-0.6,0.2-1,0.5l-0.8-1.3c0.8-0.6,1.7-0.8,2.8-0.8c0.9,0,1.6,0.2,2.1,0.5S-59.6,105.2-59.6,105.9z"/>
</g>
<g id="XMLID_2342_">
	<path id="XMLID_2360_" class="st7" d="M182.3,121.6"/>
	<path id="XMLID_2359_" class="st7" d="M169.9,133c0,0-2.5-13.6,9.5-21.1"/>
	<path id="XMLID_2358_" class="st7" d="M176.6,122.1"/>
	<path id="XMLID_2357_" class="st7" d="M177.4,119.5"/>
	<path id="XMLID_2356_" class="st7" d="M170.9,103.7c0,0,7.4-0.2,11.8,6.4C182.7,110.1,182.8,98,170.9,103.7z"/>
	<path id="XMLID_2355_" class="st7" d="M169.2,114.2c0,0,5.2-5.2,12.9-3.4C182.2,110.8,174,102,169.2,114.2z"/>
	<path id="XMLID_2354_" class="st7" d="M196.2,114.3c0,0-5.2-5.2-13-3.4C183.2,110.9,191.4,102,196.2,114.3z"/>
	<path id="XMLID_2353_" class="st7" d="M190.2,123.2c0,0,0-1-0.4-2.4c-0.1-0.5-0.3-1.2-0.6-1.8c-0.2-0.5-0.4-1-0.7-1.6
		c-1-1.9-2.7-4-5.4-5.6C183.1,111.8,195.1,111,190.2,123.2z"/>
	<path id="XMLID_2352_" class="st7" d="M176.5,133.1c0,0-4.2-11.7,6.6-19.9"/>
	<circle id="XMLID_2351_" class="st8" cx="199.4" cy="120.7" r="3.2"/>
	<polyline id="XMLID_2350_" class="st11" points="175.6,135.4 182.2,127 187.2,131.2 192.5,125.9 204.8,135.4 	"/>
	<rect id="XMLID_2349_" x="158" y="88" class="st8" width="53" height="64"/>
	<rect id="XMLID_2343_" x="165" y="94" class="st8" width="40" height="42"/>
</g>
<g id="XMLID_568_">
	<g id="XMLID_493_">
		<path id="XMLID_512_" class="st1" d="M-29.8,113.3h-1.5l-2.2-7.5c-0.3-1.1-0.5-1.9-0.6-2.3c-0.1,0.6-0.3,1.4-0.5,2.3l-2.2,7.4
			h-1.5l-3-11.4h1.5l1.8,7c0.2,0.9,0.4,1.8,0.5,2.7c0.1-0.9,0.3-1.8,0.6-2.8l2-6.9h1.5l2.1,6.9c0.3,0.9,0.5,1.8,0.6,2.8
			c0.1-0.7,0.3-1.6,0.6-2.7l1.8-7h1.5L-29.8,113.3z"/>
		<path id="XMLID_509_" class="st1" d="M-21.7,113.4c-1.3,0-2.3-0.4-3-1.2c-0.7-0.8-1.1-1.9-1.1-3.2c0-1.4,0.3-2.5,1-3.3
			c0.7-0.8,1.6-1.2,2.8-1.2c1.1,0,1.9,0.3,2.6,1s1,1.6,1,2.8v0.9h-5.9c0,1,0.3,1.7,0.7,2.2c0.5,0.5,1.1,0.8,2,0.8
			c0.5,0,0.9,0,1.3-0.1c0.4-0.1,0.9-0.2,1.4-0.5v1.2c-0.5,0.2-0.9,0.3-1.3,0.4C-20.6,113.4-21.1,113.4-21.7,113.4z M-22.1,105.7
			c-0.7,0-1.2,0.2-1.6,0.6c-0.4,0.4-0.6,1-0.7,1.8h4.4c0-0.8-0.2-1.4-0.6-1.8C-20.9,105.9-21.4,105.7-22.1,105.7z"/>
		<path id="XMLID_506_" class="st1" d="M-12.7,113.4c-1.3,0-2.3-0.4-3-1.2c-0.7-0.8-1.1-1.9-1.1-3.2c0-1.4,0.3-2.5,1-3.3
			c0.7-0.8,1.6-1.2,2.8-1.2c1.1,0,1.9,0.3,2.6,1s1,1.6,1,2.8v0.9h-5.9c0,1,0.3,1.7,0.7,2.2c0.5,0.5,1.1,0.8,2,0.8
			c0.5,0,0.9,0,1.3-0.1c0.4-0.1,0.9-0.2,1.4-0.5v1.2c-0.5,0.2-0.9,0.3-1.3,0.4C-11.6,113.4-12.1,113.4-12.7,113.4z M-13,105.7
			c-0.7,0-1.2,0.2-1.6,0.6c-0.4,0.4-0.6,1-0.7,1.8h4.4c0-0.8-0.2-1.4-0.6-1.8C-11.9,105.9-12.4,105.7-13,105.7z"/>
		<path id="XMLID_504_" class="st1" d="M-5.9,108.9l0.5-0.6l0.5-0.7l2.7-2.9h1.6l-3.5,3.7l3.7,4.9H-2l-3-4l-1,0.9v3.1h-1.4v-12.2
			h1.4v6.4V108.9L-5.9,108.9z"/>
		<path id="XMLID_501_" class="st1" d="M4.7,113.4c-1.3,0-2.3-0.4-3-1.2c-0.7-0.8-1.1-1.9-1.1-3.2c0-1.4,0.3-2.5,1-3.3
			c0.7-0.8,1.6-1.2,2.8-1.2c1.1,0,1.9,0.3,2.6,1s1,1.6,1,2.8v0.9H2.1c0,1,0.3,1.7,0.7,2.2c0.5,0.5,1.1,0.8,2,0.8
			c0.5,0,0.9,0,1.3-0.1c0.4-0.1,0.9-0.2,1.4-0.5v1.2c-0.5,0.2-0.9,0.3-1.3,0.4C5.8,113.4,5.3,113.4,4.7,113.4z M4.4,105.7
			c-0.7,0-1.2,0.2-1.6,0.6c-0.4,0.4-0.6,1-0.7,1.8h4.4c0-0.8-0.2-1.4-0.6-1.8C5.6,105.9,5,105.7,4.4,105.7z"/>
		<path id="XMLID_499_" class="st1" d="M16,113.3v-5.5c0-0.7-0.2-1.2-0.5-1.6c-0.3-0.3-0.8-0.5-1.5-0.5c-0.9,0-1.5,0.2-1.9,0.7
			c-0.4,0.5-0.6,1.3-0.6,2.4v4.4h-1.4v-8.6h1.1l0.2,1.2h0.1c0.3-0.4,0.6-0.7,1.1-1c0.5-0.2,1-0.3,1.6-0.3c1.1,0,1.8,0.3,2.3,0.8
			c0.5,0.5,0.8,1.3,0.8,2.4v5.6H16z"/>
		<path id="XMLID_496_" class="st1" d="M23,113.4c-1.1,0-2-0.4-2.6-1.2c-0.6-0.8-0.9-1.9-0.9-3.3c0-1.4,0.3-2.5,0.9-3.3
			c0.6-0.8,1.5-1.2,2.6-1.2c1.2,0,2,0.4,2.7,1.3h0.1c0-0.1,0-0.3-0.1-0.6c0-0.3,0-0.5,0-0.6v-3.4h1.4v12.2H26l-0.2-1.1h-0.1
			C25.1,113,24.2,113.4,23,113.4z M23.3,112.3c0.9,0,1.5-0.2,1.9-0.7c0.4-0.5,0.6-1.2,0.6-2.3V109c0-1.2-0.2-2-0.6-2.6
			s-1-0.8-1.9-0.8c-0.7,0-1.3,0.3-1.7,0.9c-0.4,0.6-0.6,1.4-0.6,2.5c0,1.1,0.2,1.9,0.6,2.4C22,112,22.5,112.3,23.3,112.3z"/>
		<path id="XMLID_494_" class="st1" d="M35.4,110.9c0,0.8-0.3,1.4-0.9,1.9c-0.6,0.4-1.4,0.7-2.5,0.7c-1.1,0-2-0.2-2.7-0.5v-1.3
			c0.9,0.5,1.9,0.7,2.7,0.7c0.7,0,1.2-0.1,1.5-0.3c0.3-0.2,0.5-0.5,0.5-0.9c0-0.3-0.2-0.6-0.5-0.9c-0.3-0.2-0.9-0.5-1.7-0.8
			c-0.8-0.3-1.4-0.6-1.7-0.8c-0.3-0.2-0.6-0.5-0.7-0.7c-0.2-0.3-0.2-0.6-0.2-1c0-0.7,0.3-1.3,0.9-1.7c0.6-0.4,1.4-0.6,2.4-0.6
			c1,0,1.9,0.2,2.7,0.6l-0.5,1.1c-0.9-0.4-1.7-0.5-2.4-0.5c-0.6,0-1,0.1-1.3,0.3c-0.3,0.2-0.5,0.4-0.5,0.8c0,0.3,0.1,0.6,0.4,0.8
			c0.3,0.2,0.9,0.5,1.8,0.9c0.7,0.3,1.2,0.5,1.6,0.7c0.3,0.2,0.6,0.5,0.8,0.8C35.4,110.2,35.4,110.5,35.4,110.9z"/>
	</g>
</g>
</svg>
