<!-- Generator: Adobe Illustrator 19.0.0, SVG Export Plug-In  -->
<svg version="1.1"
	 xmlns="http://www.w3.org/2000/svg" xmlns:xlink="http://www.w3.org/1999/xlink" xmlns:a="http://ns.adobe.com/AdobeSVGViewerExtensions/3.0/"
	 x="0px" y="0px" width="85.7px" height="122.2px" viewBox="0 0 85.7 122.2" style="enable-background:new 0 0 85.7 122.2;"
	 xml:space="preserve">
<style type="text/css">
	.st0{fill:#086A87;}
	.st1{fill:#FF6633;}
	.st2{fill:none;stroke:#086A87;stroke-width:2;stroke-linecap:round;stroke-linejoin:round;stroke-miterlimit:10;}
</style>
<defs>
</defs>
<g>
	<path class="st0" d="M3.6,82H7v4.4c-0.6,0.2-1.1,0.3-1.6,0.4s-1,0.1-1.5,0.1c-1.3,0-2.3-0.4-3-1.1s-1-1.9-1-3.3
		c0-1.4,0.4-2.5,1.2-3.2s1.9-1.2,3.3-1.2c0.9,0,1.7,0.2,2.5,0.5l-0.6,1.5c-0.6-0.3-1.3-0.5-2-0.5c-0.8,0-1.4,0.3-1.9,0.8
		s-0.7,1.2-0.7,2.1c0,0.9,0.2,1.6,0.6,2.1s0.9,0.7,1.7,0.7c0.4,0,0.8,0,1.2-0.1v-1.8H3.6V82z"/>
	<path class="st0" d="M8.9,78.6c0-0.6,0.3-0.9,1-0.9s1,0.3,1,0.9c0,0.3-0.1,0.5-0.2,0.6s-0.4,0.2-0.7,0.2
		C9.2,79.5,8.9,79.2,8.9,78.6z M10.7,86.8H8.9v-6.6h1.8V86.8z"/>
	<path class="st0" d="M16.2,81.6h-1.5v5.2h-1.8v-5.2h-1v-0.9l1-0.5v-0.5c0-0.7,0.2-1.3,0.6-1.6s1-0.5,1.8-0.5c0.6,0,1.2,0.1,1.6,0.3
		l-0.5,1.3c-0.4-0.1-0.7-0.2-1-0.2c-0.3,0-0.4,0.1-0.6,0.2s-0.2,0.3-0.2,0.6v0.4h1.5V81.6z"/>
	<path class="st0" d="M20,85.5c0.3,0,0.7-0.1,1.1-0.2v1.3c-0.4,0.2-1,0.3-1.6,0.3c-0.7,0-1.2-0.2-1.6-0.5s-0.5-0.9-0.5-1.6v-3.2
		h-0.9v-0.8l1-0.6l0.5-1.4h1.1v1.4h1.8v1.3h-1.8v3.2c0,0.3,0.1,0.4,0.2,0.6S19.8,85.5,20,85.5z"/>
	<path class="st0" d="M33.6,86.8h-2.2l-0.7-0.7c-0.7,0.5-1.6,0.8-2.5,0.8c-1,0-1.7-0.2-2.3-0.7s-0.8-1-0.8-1.8c0-0.5,0.1-1,0.4-1.4
		s0.6-0.7,1.2-1.1c-0.3-0.3-0.5-0.7-0.6-1s-0.2-0.6-0.2-1c0-0.6,0.2-1.1,0.7-1.4s1.1-0.5,1.8-0.5c0.7,0,1.3,0.2,1.7,0.5
		s0.7,0.8,0.7,1.4c0,0.5-0.1,0.9-0.4,1.3S29.6,82,29,82.4l1.7,1.6c0.3-0.5,0.5-1,0.7-1.8h1.9c-0.1,0.5-0.3,1-0.6,1.5
		s-0.5,0.9-0.8,1.3L33.6,86.8z M27,84.3c0,0.3,0.1,0.6,0.4,0.8s0.6,0.3,1,0.3c0.5,0,0.9-0.1,1.3-0.4l-1.9-1.9
		c-0.2,0.2-0.4,0.4-0.5,0.5S27,84.1,27,84.3z M29.1,80.2c0-0.2-0.1-0.4-0.2-0.5s-0.3-0.2-0.5-0.2c-0.3,0-0.5,0.1-0.6,0.2
		s-0.2,0.3-0.2,0.5c0,0.3,0.2,0.7,0.6,1.1c0.3-0.2,0.6-0.4,0.8-0.6S29.1,80.4,29.1,80.2z"/>
	<path class="st0" d="M41.1,82h3.4v4.4c-0.6,0.2-1.1,0.3-1.6,0.4s-1,0.1-1.5,0.1c-1.3,0-2.3-0.4-3-1.1s-1-1.9-1-3.3
		c0-1.4,0.4-2.5,1.2-3.2s1.9-1.2,3.3-1.2c0.9,0,1.7,0.2,2.5,0.5l-0.6,1.5c-0.6-0.3-1.3-0.5-2-0.5c-0.8,0-1.4,0.3-1.9,0.8
		s-0.7,1.2-0.7,2.1c0,0.9,0.2,1.6,0.6,2.1s0.9,0.7,1.7,0.7c0.4,0,0.8,0,1.2-0.1v-1.8h-1.6V82z"/>
	<path class="st0" d="M50.5,86.8l-0.3-0.9h0c-0.3,0.4-0.6,0.6-0.9,0.8s-0.7,0.2-1.2,0.2c-0.6,0-1.1-0.2-1.5-0.5s-0.5-0.9-0.5-1.5
		c0-0.7,0.2-1.2,0.7-1.5s1.2-0.5,2.2-0.5l1.1,0v-0.3c0-0.7-0.3-1-1-1c-0.5,0-1.1,0.2-1.8,0.5l-0.6-1.2c0.8-0.4,1.6-0.6,2.5-0.6
		c0.9,0,1.6,0.2,2,0.6s0.7,1,0.7,1.7v4.4H50.5z M50,83.8l-0.7,0c-0.5,0-0.9,0.1-1.2,0.3s-0.4,0.4-0.4,0.8c0,0.5,0.3,0.8,0.9,0.8
		c0.4,0,0.7-0.1,1-0.4s0.4-0.6,0.4-0.9V83.8z"/>
	<path class="st0" d="M55.7,86.9c-0.8,0-1.4-0.3-1.8-0.9s-0.7-1.4-0.7-2.5c0-1.1,0.2-1.9,0.7-2.5s1.1-0.9,1.8-0.9
		c0.8,0,1.5,0.3,1.9,1h0.1c-0.1-0.5-0.1-0.9-0.1-1.3v-2.1h1.8v9.1H58L57.6,86h-0.1C57.1,86.6,56.5,86.9,55.7,86.9z M56.3,85.5
		c0.5,0,0.8-0.1,1-0.4s0.3-0.7,0.3-1.4v-0.2c0-0.7-0.1-1.2-0.3-1.5s-0.6-0.5-1.1-0.5c-0.4,0-0.7,0.2-0.9,0.5S55,82.9,55,83.6
		s0.1,1.1,0.3,1.5S55.9,85.5,56.3,85.5z"/>
	<path class="st0" d="M66.9,86.8c0,0.9-0.3,1.7-0.8,2.1s-1.4,0.7-2.5,0.7c-1,0-1.8-0.1-2.4-0.4v-1.4c0.8,0.3,1.6,0.5,2.6,0.5
		c0.9,0,1.4-0.5,1.4-1.5v-0.1l0.1-0.8h-0.1c-0.4,0.6-1,1-1.9,1c-0.8,0-1.4-0.3-1.8-0.9s-0.6-1.4-0.6-2.5c0-1.1,0.2-1.9,0.7-2.5
		s1.1-0.9,1.8-0.9c0.8,0,1.4,0.3,1.9,1h0l0.1-0.8h1.5V86.8z M63.9,85.5c0.5,0,0.8-0.1,1-0.4s0.3-0.7,0.3-1.3v-0.2
		c0-0.7-0.1-1.2-0.3-1.5s-0.6-0.5-1-0.5c-0.8,0-1.3,0.7-1.3,2c0,0.7,0.1,1.1,0.3,1.5S63.5,85.5,63.9,85.5z"/>
	<path class="st0" d="M71.8,86.9c-1.1,0-1.9-0.3-2.5-0.9s-0.9-1.4-0.9-2.5c0-1.1,0.3-1.9,0.8-2.5s1.3-0.9,2.3-0.9
		c0.9,0,1.6,0.3,2.2,0.8s0.8,1.3,0.8,2.2V84h-4.2c0,0.5,0.2,0.9,0.5,1.2s0.7,0.4,1.2,0.4c0.4,0,0.8,0,1.1-0.1s0.7-0.2,1.1-0.4v1.4
		c-0.3,0.2-0.6,0.3-1,0.3S72.3,86.9,71.8,86.9z M71.5,81.4c-0.4,0-0.7,0.1-0.9,0.4s-0.3,0.6-0.4,1h2.5c0-0.4-0.1-0.8-0.3-1
		S71.9,81.4,71.5,81.4z"/>
	<path class="st0" d="M78.7,85.5c0.3,0,0.7-0.1,1.1-0.2v1.3c-0.4,0.2-1,0.3-1.6,0.3c-0.7,0-1.2-0.2-1.6-0.5s-0.5-0.9-0.5-1.6v-3.2
		h-0.9v-0.8l1-0.6l0.5-1.4h1.1v1.4h1.8v1.3h-1.8v3.2c0,0.3,0.1,0.4,0.2,0.6S78.4,85.5,78.7,85.5z"/>
	<path class="st0" d="M85.7,84.9c0,0.7-0.2,1.2-0.7,1.5s-1.2,0.5-2.1,0.5c-0.5,0-0.9,0-1.2-0.1s-0.7-0.2-0.9-0.3v-1.5
		c0.3,0.2,0.7,0.3,1.1,0.4s0.8,0.2,1.1,0.2c0.6,0,1-0.2,1-0.6c0-0.1,0-0.3-0.1-0.3s-0.2-0.2-0.4-0.3s-0.5-0.2-0.8-0.4
		c-0.5-0.2-0.9-0.4-1.1-0.6s-0.4-0.4-0.5-0.6s-0.2-0.5-0.2-0.9c0-0.6,0.2-1,0.7-1.4s1.1-0.5,1.9-0.5c0.8,0,1.6,0.2,2.3,0.5l-0.5,1.3
		c-0.3-0.1-0.6-0.3-0.9-0.3s-0.6-0.1-0.9-0.1c-0.5,0-0.8,0.1-0.8,0.4c0,0.2,0.1,0.3,0.3,0.4s0.5,0.3,1.1,0.5
		c0.5,0.2,0.9,0.4,1.1,0.6s0.4,0.4,0.5,0.6S85.7,84.5,85.7,84.9z"/>
</g>
<g>
	<g>
		<path class="st1" d="M27.1,118.9h-1.7v3h-2.9v-3h-6.1v-2.1l6.3-9.2h2.8v9h1.7V118.9z M22.4,116.6v-2.4c0-0.4,0-1,0-1.8
			c0-0.8,0.1-1.2,0.1-1.3h-0.1c-0.2,0.5-0.5,1.1-0.9,1.6l-2.6,4H22.4z"/>
		<path class="st1" d="M28.6,120.5c0-0.5,0.1-1,0.4-1.2s0.7-0.4,1.3-0.4c0.5,0,1,0.1,1.3,0.4c0.3,0.3,0.4,0.7,0.4,1.2
			c0,0.5-0.1,0.9-0.4,1.2c-0.3,0.3-0.7,0.4-1.3,0.4c-0.5,0-1-0.1-1.3-0.4C28.7,121.4,28.6,121,28.6,120.5z"/>
		<path class="st1" d="M43.9,113.7c0,2.8-0.6,4.9-1.8,6.3c-1.2,1.4-3,2.1-5.4,2.1c-0.8,0-1.5,0-1.9-0.1v-2.4
			c0.5,0.1,1.1,0.2,1.7,0.2c1,0,1.8-0.1,2.5-0.4c0.7-0.3,1.1-0.8,1.5-1.4c0.3-0.6,0.5-1.5,0.6-2.6h-0.1c-0.4,0.6-0.8,1-1.3,1.3
			c-0.5,0.2-1.1,0.4-1.9,0.4c-1.2,0-2.2-0.4-2.9-1.2c-0.7-0.8-1.1-1.9-1.1-3.3c0-1.5,0.4-2.7,1.3-3.6s2.1-1.3,3.5-1.3
			c1.1,0,2,0.2,2.8,0.7s1.4,1.2,1.8,2.2C43.6,111.3,43.9,112.4,43.9,113.7z M38.7,109.9c-0.6,0-1.1,0.2-1.5,0.6s-0.5,1-0.5,1.9
			c0,0.7,0.2,1.2,0.5,1.6c0.3,0.4,0.8,0.6,1.5,0.6c0.6,0,1.1-0.2,1.6-0.6c0.4-0.4,0.7-0.9,0.7-1.4c0-0.8-0.2-1.4-0.6-2
			C39.8,110.2,39.3,109.9,38.7,109.9z"/>
		<path class="st1" d="M55.7,118.9h-1.7v3H51v-3h-6.1v-2.1l6.3-9.2h2.8v9h1.7V118.9z M51,116.6v-2.4c0-0.4,0-1,0-1.8
			c0-0.8,0.1-1.2,0.1-1.3H51c-0.2,0.5-0.5,1.1-0.9,1.6l-2.6,4H51z"/>
		<path class="st1" d="M63.4,111.9c0,1.5-0.3,2.6-0.9,3.4c-0.6,0.8-1.4,1.1-2.5,1.1c-1.1,0-1.9-0.4-2.5-1.2s-0.9-1.9-0.9-3.3
			c0-3,1.1-4.5,3.4-4.5c1.1,0,1.9,0.4,2.5,1.2C63.1,109.4,63.4,110.5,63.4,111.9z M59.1,111.9c0,0.8,0.1,1.4,0.2,1.9
			s0.4,0.6,0.7,0.6c0.6,0,0.9-0.8,0.9-2.5c0-1.6-0.3-2.4-0.9-2.4c-0.3,0-0.6,0.2-0.7,0.6S59.1,111.1,59.1,111.9z M70.1,107.6
			l-7.9,14.3h-2.3l7.9-14.3H70.1z M73.4,117.6c0,1.5-0.3,2.6-0.9,3.4c-0.6,0.8-1.4,1.1-2.5,1.1c-1.1,0-1.9-0.4-2.5-1.2
			s-0.9-1.9-0.9-3.3c0-3,1.1-4.5,3.4-4.5c1.1,0,1.9,0.4,2.5,1.2C73.1,115.1,73.4,116.2,73.4,117.6z M69.1,117.6
			c0,0.8,0.1,1.4,0.2,1.9s0.4,0.6,0.7,0.6c0.6,0,0.9-0.8,0.9-2.5c0-1.6-0.3-2.4-0.9-2.4c-0.3,0-0.6,0.2-0.7,0.6
			S69.1,116.8,69.1,117.6z"/>
	</g>
</g>
<g>
	<rect x="15" y="22" class="st2" width="45" height="36.1"/>
	<rect x="10.5" y="13" class="st2" width="54" height="9"/>
	<rect x="33" y="12.9" class="st2" width="9" height="45.3"/>
	<path class="st2" d="M19,10c0-5,4-9,9-9s9,4,9,9"/>
	<path class="st2" d="M37,10c0-5,4-9,9-9s9,4,9,9"/>
</g>
</svg>