<!-- Generator: Adobe Illustrator 19.0.0, SVG Export Plug-In  -->
<svg version="1.1"
	 xmlns="http://www.w3.org/2000/svg" xmlns:xlink="http://www.w3.org/1999/xlink" xmlns:a="http://ns.adobe.com/AdobeSVGViewerExtensions/3.0/"
	 x="0px" y="0px" width="56.8px" height="120.2px" viewBox="0 0 56.8 120.2" style="enable-background:new 0 0 56.8 120.2;"
	 xml:space="preserve">
<style type="text/css">
	.st0{fill:#086A87;}
	.st1{fill:#FF6633;}
	.st2{fill:none;stroke:#086A87;stroke-width:1.5569;stroke-linecap:round;stroke-linejoin:round;stroke-miterlimit:10;}
	.st3{fill:#FFFFFF;stroke:#086A87;stroke-width:1.5569;stroke-linecap:round;stroke-linejoin:round;stroke-miterlimit:10;}
	.st4{fill:none;stroke:#086A87;stroke-width:2;stroke-linecap:round;stroke-linejoin:round;stroke-miterlimit:10;}
</style>
<defs>
</defs>
<g>
	<g>
		<path class="st0" d="M10,89.3l-1.8,0l0.1-7.1l-2.3,0l0-1.5l6.5,0.1l0,1.5l-2.3,0L10,89.3z"/>
		<path class="st0" d="M16.9,82.8c0.2,0,0.4,0,0.6,0.1l-0.2,1.7c-0.1,0-0.3-0.1-0.5-0.1c-0.6,0-1,0.1-1.3,0.4S15,85.6,15,86.1l0,3.3
			l-1.8,0l0.1-6.6l1.4,0l0.2,1.1l0.1,0c0.2-0.4,0.5-0.7,0.8-0.9S16.5,82.8,16.9,82.8z"/>
		<path class="st0" d="M22.7,89.5l-0.3-0.9l0,0c-0.3,0.4-0.6,0.6-0.9,0.8c-0.3,0.1-0.7,0.2-1.2,0.2c-0.6,0-1.1-0.2-1.5-0.6
			c-0.4-0.4-0.5-0.9-0.5-1.5c0-0.7,0.3-1.2,0.7-1.5c0.5-0.3,1.2-0.5,2.2-0.5l1.1,0l0-0.3c0-0.7-0.3-1-1-1c-0.5,0-1.1,0.1-1.9,0.5
			l-0.6-1.2c0.8-0.4,1.6-0.6,2.5-0.6c0.9,0,1.6,0.2,2,0.6c0.5,0.4,0.7,1,0.7,1.8l-0.1,4.4L22.7,89.5z M22.2,86.5l-0.7,0
			c-0.5,0-0.9,0.1-1.2,0.3s-0.4,0.4-0.4,0.8c0,0.5,0.3,0.8,0.9,0.8c0.4,0,0.7-0.1,1-0.3s0.4-0.5,0.4-0.9L22.2,86.5z"/>
		<path class="st0" d="M27.3,89.6L24.9,83l1.9,0l1.2,3.7c0.1,0.4,0.2,0.9,0.2,1.3l0,0c0-0.4,0.1-0.9,0.3-1.3l1.3-3.7l1.9,0l-2.6,6.5
			L27.3,89.6z"/>
		<path class="st0" d="M35.6,89.8c-1.1,0-1.9-0.3-2.5-0.9c-0.6-0.6-0.9-1.4-0.9-2.5c0-1.1,0.3-1.9,0.9-2.5c0.6-0.6,1.3-0.9,2.3-0.9
			c0.9,0,1.6,0.3,2.2,0.8s0.8,1.3,0.7,2.2l0,0.9L34,86.8c0,0.5,0.2,0.9,0.4,1.2s0.7,0.4,1.2,0.4c0.4,0,0.8,0,1.1-0.1
			c0.4-0.1,0.7-0.2,1.1-0.4l0,1.4c-0.3,0.2-0.6,0.3-1,0.3C36.5,89.8,36.1,89.8,35.6,89.8z M35.4,84.3c-0.4,0-0.7,0.1-0.9,0.3
			c-0.2,0.2-0.3,0.6-0.4,1l2.5,0c0-0.4-0.1-0.8-0.3-1C36.1,84.4,35.8,84.3,35.4,84.3z"/>
		<path class="st0" d="M41.5,89.8l-1.8,0l0.1-9.1l1.8,0L41.5,89.8z"/>
	</g>
</g>
<g>
	<path class="st1" d="M10.1,111.8c0,2.8-0.6,4.9-1.8,6.3c-1.2,1.4-3,2.1-5.4,2.1c-0.8,0-1.5,0-1.9-0.1v-2.4c0.5,0.1,1.1,0.2,1.7,0.2
		c1,0,1.8-0.1,2.5-0.4c0.7-0.3,1.1-0.8,1.5-1.4c0.3-0.6,0.5-1.5,0.6-2.6H7.2c-0.4,0.6-0.8,1-1.3,1.3C5.4,114.9,4.8,115,4,115
		c-1.2,0-2.2-0.4-2.9-1.2C0.4,113,0,111.9,0,110.5c0-1.5,0.4-2.7,1.3-3.6s2.1-1.3,3.5-1.3c1.1,0,2,0.2,2.8,0.7s1.4,1.2,1.8,2.2
		C9.9,109.4,10.1,110.5,10.1,111.8z M4.9,108c-0.6,0-1.1,0.2-1.5,0.6s-0.5,1-0.5,1.9c0,0.7,0.2,1.2,0.5,1.6c0.3,0.4,0.8,0.6,1.5,0.6
		c0.6,0,1.1-0.2,1.6-0.6c0.4-0.4,0.7-0.9,0.7-1.4c0-0.8-0.2-1.4-0.6-2C6.1,108.2,5.5,108,4.9,108z"/>
	<path class="st1" d="M11.9,118.6c0-0.5,0.1-1,0.4-1.2s0.7-0.4,1.3-0.4c0.5,0,1,0.1,1.3,0.4c0.3,0.3,0.4,0.7,0.4,1.2
		c0,0.5-0.1,0.9-0.4,1.2c-0.3,0.3-0.7,0.4-1.3,0.4c-0.5,0-1-0.1-1.3-0.4C12.1,119.5,11.9,119.1,11.9,118.6z"/>
	<path class="st1" d="M27.3,120h-10v-2.1l3.6-3.6c1.1-1.1,1.8-1.8,2.1-2.3c0.3-0.4,0.6-0.8,0.7-1.2c0.1-0.4,0.2-0.7,0.2-1.1
		c0-0.6-0.2-1-0.5-1.3c-0.3-0.3-0.7-0.4-1.3-0.4c-0.6,0-1.1,0.1-1.6,0.4c-0.5,0.3-1.1,0.6-1.6,1.1l-1.6-1.9c0.7-0.6,1.3-1,1.7-1.3
		c0.5-0.2,1-0.4,1.5-0.6s1.2-0.2,1.8-0.2c0.9,0,1.7,0.2,2.4,0.5s1.2,0.8,1.6,1.4c0.4,0.6,0.6,1.3,0.6,2c0,0.7-0.1,1.3-0.3,1.9
		c-0.2,0.6-0.6,1.2-1.1,1.8c-0.5,0.6-1.3,1.5-2.6,2.6l-1.8,1.7v0.1h6.2V120z"/>
	<path class="st1" d="M38.2,108.9c0,0.9-0.3,1.7-0.8,2.3c-0.5,0.6-1.3,1.1-2.3,1.3v0.1c1.2,0.1,2,0.5,2.6,1c0.6,0.6,0.9,1.3,0.9,2.3
		c0,1.4-0.5,2.4-1.5,3.2s-2.4,1.1-4.3,1.1c-1.5,0-2.9-0.3-4.1-0.8v-2.6c0.6,0.3,1.2,0.5,1.8,0.7s1.3,0.3,2,0.3c1,0,1.7-0.2,2.2-0.5
		c0.5-0.3,0.7-0.9,0.7-1.6c0-0.7-0.3-1.1-0.8-1.4s-1.4-0.4-2.6-0.4h-1.1v-2.3H32c1.1,0,1.9-0.1,2.4-0.4c0.5-0.3,0.8-0.8,0.8-1.5
		c0-1.1-0.7-1.6-2-1.6c-0.5,0-0.9,0.1-1.4,0.2c-0.5,0.2-1,0.4-1.6,0.8l-1.4-2.1c1.3-0.9,2.9-1.4,4.7-1.4c1.5,0,2.6,0.3,3.5,0.9
		C37.7,107,38.2,107.8,38.2,108.9z"/>
	<path class="st1" d="M46.8,110c0,1.5-0.3,2.6-0.9,3.4c-0.6,0.8-1.4,1.1-2.5,1.1c-1.1,0-1.9-0.4-2.5-1.2S40,111.4,40,110
		c0-3,1.1-4.5,3.4-4.5c1.1,0,1.9,0.4,2.5,1.2C46.5,107.4,46.8,108.5,46.8,110z M42.4,110c0,0.8,0.1,1.4,0.2,1.9s0.4,0.6,0.7,0.6
		c0.6,0,0.9-0.8,0.9-2.5c0-1.6-0.3-2.4-0.9-2.4c-0.3,0-0.6,0.2-0.7,0.6S42.4,109.2,42.4,110z M53.5,105.7L45.6,120h-2.3l7.9-14.3
		H53.5z M56.8,115.7c0,1.5-0.3,2.6-0.9,3.4c-0.6,0.8-1.4,1.1-2.5,1.1c-1.1,0-1.9-0.4-2.5-1.2s-0.9-1.9-0.9-3.3c0-3,1.1-4.5,3.4-4.5
		c1.1,0,1.9,0.4,2.5,1.2C56.5,113.1,56.8,114.2,56.8,115.7z M52.4,115.7c0,0.8,0.1,1.4,0.2,1.9s0.4,0.6,0.7,0.6
		c0.6,0,0.9-0.8,0.9-2.5c0-1.6-0.3-2.4-0.9-2.4c-0.3,0-0.6,0.2-0.7,0.6S52.4,114.9,52.4,115.7z"/>
</g>
<g>
	<circle class="st2" cx="18.8" cy="60.4" r="3.7"/>
	<circle class="st2" cx="35" cy="60.4" r="3.7"/>
	<rect x="17.6" y="5.8" class="st2" width="4.3" height="37.9"/>
	<rect x="32.8" y="5.8" class="st2" width="4.3" height="37.9"/>
	<path class="st3" d="M37.2,57.2H15.8c-3.1,0-5.6-2.5-5.6-5.6V19.5c0-3.1,2.5-5.6,5.6-5.6h21.4c3.1,0,5.6,2.5,5.6,5.6v32.1
		C42.8,54.7,40.3,57.2,37.2,57.2z"/>
	<line class="st4" x1="10.1" y1="20.1" x2="42.1" y2="20.1"/>
	<line class="st4" x1="10.1" y1="27.1" x2="34.1" y2="27.1"/>
	<line class="st4" x1="10.1" y1="31.1" x2="34.1" y2="31.1"/>
	<line class="st4" x1="10.1" y1="35.1" x2="34.1" y2="35.1"/>
	<line class="st4" x1="10.1" y1="39.1" x2="34.1" y2="39.1"/>
	<line class="st4" x1="10.1" y1="43.1" x2="34.1" y2="43.1"/>
	<path class="st2" d="M40.3,5.8H12.7c-1.4,0-2.5-1.1-2.5-2.5v0c0-1.4,1.1-2.5,2.5-2.5h27.6c1.4,0,2.5,1.1,2.5,2.5v0
		C42.8,4.7,41.7,5.8,40.3,5.8z"/>
</g>
</svg>