<!-- Generator: Adobe Illustrator 19.0.0, SVG Export Plug-In  -->
<svg version="1.1"
	 xmlns="http://www.w3.org/2000/svg" xmlns:xlink="http://www.w3.org/1999/xlink" xmlns:a="http://ns.adobe.com/AdobeSVGViewerExtensions/3.0/"
	 x="0px" y="0px" width="632.6px" height="179.2px" viewBox="0 0 632.6 179.2" style="enable-background:new 0 0 632.6 179.2;"
	 xml:space="preserve">
<style type="text/css">
	.st0{fill:none;stroke:#086A87;stroke-miterlimit:10;stroke-dasharray:3.132;}
	.st1{fill:#086A87;}
	.st2{fill:#33CCCC;}
	.st3{fill:#FFFFFF;}
</style>
<defs>
</defs>
<line class="st0" x1="632.6" y1="29.2" x2="24.4" y2="29.2"/>
<circle class="st1" cx="11.2" cy="40.9" r="6.8"/>
<circle class="st1" cx="6.8" cy="24.5" r="6.8"/>
<circle class="st2" cx="6.8" cy="24.5" r="4.4"/>
<circle class="st2" cx="11.2" cy="40.9" r="4.4"/>
<path class="st1" d="M38.7,34.7L10,28.2l-4.1,2.9l28.1,6.3c0.4,0.1,0.9,0.1,1.3,0.1C36.7,37.6,38.2,36.9,38.7,34.7z"/>
<path class="st1" d="M32,19.8L8,34.9l5,1.3L38,20.4c-1.2-1.9-3.1-1.9-4.6-1.3C32.9,19.3,32.4,19.5,32,19.8z"/>
<g>
	<g>
		<path class="st3" d="M73.7,1.3v11.8c0,1.4-0.3,2.5-0.9,3.6c-0.6,1-1.5,1.8-2.6,2.3c-1.1,0.5-2.5,0.8-4.1,0.8
			c-2.4,0-4.2-0.6-5.5-1.8c-1.3-1.2-2-2.9-2-4.9V1.3h3.9v11.2c0,1.4,0.3,2.4,0.9,3.1c0.6,0.7,1.5,1,2.8,1c1.3,0,2.2-0.3,2.8-1
			s0.9-1.7,0.9-3.1V1.3H73.7z"/>
		<path class="st3" d="M90.8,19.6H87v-8.2c0-1-0.2-1.8-0.5-2.3c-0.4-0.5-0.9-0.8-1.7-0.8c-1.1,0-1.8,0.4-2.3,1.1
			c-0.5,0.7-0.7,1.9-0.7,3.5v6.6h-3.8v-14h2.9l0.5,1.8h0.2c0.4-0.7,1-1.2,1.8-1.5c0.7-0.3,1.6-0.5,2.5-0.5c1.6,0,2.9,0.4,3.7,1.3
			c0.8,0.9,1.3,2.1,1.3,3.8V19.6z"/>
		<path class="st3" d="M101.1,19.9c-2.3,0-4-0.6-5.3-1.9c-1.3-1.2-1.9-3-1.9-5.3c0-2.3,0.6-4.2,1.8-5.4s2.8-1.9,4.9-1.9
			c2,0,3.5,0.6,4.6,1.7c1.1,1.1,1.7,2.7,1.7,4.7v1.9h-9c0,1.1,0.4,1.9,1,2.5s1.4,0.9,2.5,0.9c0.8,0,1.6-0.1,2.4-0.3
			c0.8-0.2,1.5-0.5,2.4-0.8v3c-0.7,0.3-1.4,0.6-2.1,0.7C103.1,19.8,102.2,19.9,101.1,19.9z M100.5,8.1c-0.8,0-1.4,0.3-1.9,0.8
			c-0.5,0.5-0.7,1.2-0.8,2.2h5.4c0-0.9-0.3-1.7-0.7-2.2C102,8.3,101.3,8.1,100.5,8.1z"/>
		<path class="st3" d="M112.5,12.5L108,5.6h4.3l2.7,4.5l2.7-4.5h4.3l-4.6,6.8l4.8,7.1H118l-2.9-4.8l-3,4.8h-4.3L112.5,12.5z"/>
		<path class="st3" d="M132.1,19.9c-1.6,0-2.9-0.6-3.9-1.8h-0.2c0.1,1.2,0.2,1.8,0.2,2v5.7h-3.8V5.6h3.1l0.5,1.8h0.2
			c0.9-1.4,2.2-2.1,4-2.1c1.7,0,2.9,0.6,3.9,1.9c0.9,1.3,1.4,3,1.4,5.3c0,1.5-0.2,2.8-0.7,3.9c-0.4,1.1-1.1,1.9-1.9,2.5
			C134.2,19.6,133.2,19.9,132.1,19.9z M131,8.4c-0.9,0-1.6,0.3-2.1,0.9c-0.4,0.6-0.7,1.5-0.7,2.9v0.4c0,1.5,0.2,2.6,0.7,3.2
			c0.4,0.7,1.2,1,2.1,1c1.7,0,2.6-1.4,2.6-4.2c0-1.4-0.2-2.4-0.6-3.1C132.6,8.8,131.9,8.4,131,8.4z"/>
		<path class="st3" d="M147,19.9c-2.3,0-4-0.6-5.3-1.9c-1.3-1.2-1.9-3-1.9-5.3c0-2.3,0.6-4.2,1.8-5.4s2.8-1.9,4.9-1.9
			c2,0,3.5,0.6,4.6,1.7c1.1,1.1,1.7,2.7,1.7,4.7v1.9h-9c0,1.1,0.4,1.9,1,2.5s1.4,0.9,2.5,0.9c0.8,0,1.6-0.1,2.4-0.3
			c0.8-0.2,1.5-0.5,2.4-0.8v3c-0.7,0.3-1.4,0.6-2.1,0.7C149,19.8,148.1,19.9,147,19.9z M146.5,8.1c-0.8,0-1.4,0.3-1.9,0.8
			c-0.5,0.5-0.7,1.2-0.8,2.2h5.4c0-0.9-0.3-1.7-0.7-2.2C147.9,8.3,147.3,8.1,146.5,8.1z"/>
		<path class="st3" d="M161.5,19.9c-4.4,0-6.5-2.4-6.5-7.2c0-2.4,0.6-4.2,1.8-5.4c1.2-1.3,2.9-1.9,5.1-1.9c1.6,0,3.1,0.3,4.4,1
			l-1.1,3c-0.6-0.2-1.2-0.4-1.7-0.6s-1-0.2-1.6-0.2c-2,0-3,1.4-3,4.2c0,2.7,1,4.1,3,4.1c0.7,0,1.4-0.1,2-0.3s1.3-0.5,1.9-0.9v3.3
			c-0.6,0.4-1.2,0.7-1.9,0.8C163.2,19.8,162.4,19.9,161.5,19.9z"/>
		<path class="st3" d="M174.9,16.8c0.7,0,1.5-0.1,2.4-0.4v2.8c-1,0.4-2.1,0.6-3.5,0.6c-1.5,0-2.6-0.4-3.3-1.2c-0.7-0.8-1-1.9-1-3.5
			V8.5h-1.8V6.9l2.1-1.3l1.1-3h2.4v3h3.9v2.9h-3.9v6.7c0,0.5,0.2,0.9,0.5,1.2C174,16.7,174.4,16.8,174.9,16.8z"/>
		<path class="st3" d="M186.4,19.9c-2.3,0-4-0.6-5.3-1.9c-1.3-1.2-1.9-3-1.9-5.3c0-2.3,0.6-4.2,1.8-5.4s2.8-1.9,4.9-1.9
			c2,0,3.5,0.6,4.6,1.7c1.1,1.1,1.7,2.7,1.7,4.7v1.9h-9c0,1.1,0.4,1.9,1,2.5s1.4,0.9,2.5,0.9c0.8,0,1.6-0.1,2.4-0.3
			c0.8-0.2,1.5-0.5,2.4-0.8v3c-0.7,0.3-1.4,0.6-2.1,0.7C188.4,19.8,187.5,19.9,186.4,19.9z M185.9,8.1c-0.8,0-1.4,0.3-1.9,0.8
			c-0.5,0.5-0.7,1.2-0.8,2.2h5.4c0-0.9-0.3-1.7-0.7-2.2C187.3,8.3,186.7,8.1,185.9,8.1z"/>
		<path class="st3" d="M199.7,19.9c-1.6,0-2.9-0.6-3.9-1.9c-0.9-1.3-1.4-3-1.4-5.3c0-2.3,0.5-4.1,1.4-5.4c1-1.3,2.3-1.9,3.9-1.9
			c1.8,0,3.1,0.7,4,2.1h0.1c-0.2-1-0.3-2-0.3-2.8V0.1h3.8v19.5h-2.9l-0.7-1.8h-0.2C202.8,19.2,201.4,19.9,199.7,19.9z M201,16.8
			c1,0,1.7-0.3,2.1-0.9c0.5-0.6,0.7-1.5,0.7-2.9v-0.4c0-1.5-0.2-2.6-0.7-3.2c-0.5-0.7-1.2-1-2.3-1c-0.9,0-1.5,0.4-2,1.1
			c-0.5,0.7-0.7,1.8-0.7,3.1c0,1.4,0.2,2.4,0.7,3.1C199.4,16.5,200.1,16.8,201,16.8z"/>
		<path class="st3" d="M225.9,5.4c1.7,0,2.9,0.6,3.9,1.9c0.9,1.3,1.4,3.1,1.4,5.3c0,2.3-0.5,4.1-1.4,5.4c-1,1.3-2.3,1.9-3.9,1.9
			c-1.6,0-2.9-0.6-3.9-1.8h-0.3l-0.6,1.5h-2.9V0.1h3.8v4.5c0,0.6,0,1.5-0.1,2.8h0.1C222.8,6,224.1,5.4,225.9,5.4z M224.7,8.4
			c-0.9,0-1.6,0.3-2.1,0.9c-0.4,0.6-0.7,1.5-0.7,2.9v0.4c0,1.5,0.2,2.6,0.7,3.2c0.4,0.7,1.2,1,2.1,1c0.8,0,1.4-0.4,1.9-1.1
			c0.5-0.7,0.7-1.8,0.7-3.1s-0.2-2.4-0.7-3.1C226.1,8.8,225.5,8.4,224.7,8.4z"/>
		<path class="st3" d="M240.6,19.9c-2.3,0-4-0.6-5.3-1.9c-1.3-1.2-1.9-3-1.9-5.3c0-2.3,0.6-4.2,1.8-5.4s2.8-1.9,4.9-1.9
			c2,0,3.5,0.6,4.6,1.7c1.1,1.1,1.7,2.7,1.7,4.7v1.9h-9c0,1.1,0.4,1.9,1,2.5s1.4,0.9,2.5,0.9c0.8,0,1.6-0.1,2.4-0.3
			c0.8-0.2,1.5-0.5,2.4-0.8v3c-0.7,0.3-1.4,0.6-2.1,0.7C242.7,19.8,241.7,19.9,240.6,19.9z M240.1,8.1c-0.8,0-1.4,0.3-1.9,0.8
			c-0.5,0.5-0.7,1.2-0.8,2.2h5.4c0-0.9-0.3-1.7-0.7-2.2C241.6,8.3,240.9,8.1,240.1,8.1z"/>
		<path class="st3" d="M262.4,19.6h-3.8v-8.2c0-1-0.2-1.8-0.5-2.3c-0.4-0.5-0.9-0.8-1.7-0.8c-1.1,0-1.8,0.4-2.3,1.1
			c-0.5,0.7-0.7,1.9-0.7,3.5v6.6h-3.8v-14h2.9l0.5,1.8h0.2c0.4-0.7,1-1.2,1.8-1.5c0.7-0.3,1.6-0.5,2.5-0.5c1.6,0,2.9,0.4,3.7,1.3
			c0.8,0.9,1.3,2.1,1.3,3.8V19.6z"/>
		<path class="st3" d="M272.6,19.9c-2.3,0-4-0.6-5.3-1.9c-1.3-1.2-1.9-3-1.9-5.3c0-2.3,0.6-4.2,1.8-5.4s2.8-1.9,4.9-1.9
			c2,0,3.5,0.6,4.6,1.7c1.1,1.1,1.7,2.7,1.7,4.7v1.9h-9c0,1.1,0.4,1.9,1,2.5s1.4,0.9,2.5,0.9c0.8,0,1.6-0.1,2.4-0.3
			c0.8-0.2,1.5-0.5,2.4-0.8v3c-0.7,0.3-1.4,0.6-2.1,0.7C274.6,19.8,273.7,19.9,272.6,19.9z M272.1,8.1c-0.8,0-1.4,0.3-1.9,0.8
			c-0.5,0.5-0.7,1.2-0.8,2.2h5.4c0-0.9-0.3-1.7-0.7-2.2C273.5,8.3,272.9,8.1,272.1,8.1z"/>
		<path class="st3" d="M289.2,8.5h-3.3v11.1H282V8.5h-2.1V6.6l2.1-1v-1c0-1.6,0.4-2.8,1.2-3.5c0.8-0.7,2-1.1,3.8-1.1
			c1.3,0,2.5,0.2,3.5,0.6l-1,2.8C288.8,3.1,288,3,287.4,3c-0.5,0-0.9,0.2-1.2,0.5c-0.2,0.3-0.4,0.7-0.4,1.2v0.9h3.3V8.5z"/>
		<path class="st3" d="M291.2,2c0-1.2,0.7-1.9,2.1-1.9c1.4,0,2.1,0.6,2.1,1.9c0,0.6-0.2,1.1-0.5,1.4c-0.3,0.3-0.9,0.5-1.6,0.5
			C291.9,3.9,291.2,3.3,291.2,2z M295.2,19.6h-3.8v-14h3.8V19.6z"/>
		<path class="st3" d="M305.1,16.8c0.7,0,1.5-0.1,2.4-0.4v2.8c-1,0.4-2.1,0.6-3.5,0.6c-1.5,0-2.6-0.4-3.3-1.2c-0.7-0.8-1-1.9-1-3.5
			V8.5h-1.8V6.9l2.1-1.3l1.1-3h2.4v3h3.9v2.9h-3.9v6.7c0,0.5,0.2,0.9,0.5,1.2C304.2,16.7,304.6,16.8,305.1,16.8z"/>
		<path class="st3" d="M320,15.5c0,1.4-0.5,2.5-1.5,3.3c-1,0.8-2.5,1.1-4.5,1.1c-1,0-1.9-0.1-2.6-0.2c-0.7-0.1-1.4-0.3-2-0.6v-3.2
			c0.7,0.3,1.5,0.6,2.4,0.8c0.9,0.2,1.7,0.3,2.3,0.3c1.4,0,2.1-0.4,2.1-1.2c0-0.3-0.1-0.5-0.3-0.7c-0.2-0.2-0.5-0.4-1-0.6
			c-0.5-0.2-1.1-0.5-1.8-0.8c-1.1-0.5-1.9-0.9-2.4-1.3s-0.9-0.8-1.1-1.3s-0.3-1.1-0.3-1.8c0-1.2,0.5-2.2,1.4-2.9c1-0.7,2.3-1,4.1-1
			c1.7,0,3.3,0.4,4.9,1.1l-1.2,2.8c-0.7-0.3-1.4-0.5-2-0.7c-0.6-0.2-1.2-0.3-1.9-0.3c-1.1,0-1.7,0.3-1.7,0.9c0,0.3,0.2,0.6,0.5,0.9
			c0.4,0.3,1.2,0.6,2.4,1.1c1.1,0.4,1.9,0.9,2.4,1.2c0.5,0.4,0.9,0.8,1.1,1.3C319.9,14.2,320,14.8,320,15.5z"/>
		<path class="st3" d="M342.4,12.6c0,2.3-0.6,4.1-1.8,5.3s-2.9,1.9-5,1.9c-1.3,0-2.5-0.3-3.6-0.9c-1-0.6-1.8-1.4-2.4-2.5
			c-0.6-1.1-0.8-2.4-0.8-3.9c0-2.3,0.6-4.1,1.8-5.3c1.2-1.3,2.9-1.9,5-1.9c1.3,0,2.5,0.3,3.6,0.9c1,0.6,1.8,1.4,2.4,2.5
			C342.1,9.8,342.4,11.1,342.4,12.6z M332.7,12.6c0,1.4,0.2,2.4,0.7,3.1c0.5,0.7,1.2,1.1,2.2,1.1c1,0,1.7-0.4,2.2-1.1
			c0.4-0.7,0.7-1.8,0.7-3.1c0-1.4-0.2-2.4-0.7-3.1s-1.2-1-2.2-1c-1,0-1.8,0.3-2.2,1C332.9,10.2,332.7,11.2,332.7,12.6z"/>
		<path class="st3" d="M353.3,8.5H350v11.1h-3.8V8.5h-2.1V6.6l2.1-1v-1c0-1.6,0.4-2.8,1.2-3.5c0.8-0.7,2-1.1,3.8-1.1
			c1.3,0,2.5,0.2,3.5,0.6l-1,2.8c-0.8-0.2-1.5-0.4-2.1-0.4c-0.5,0-0.9,0.2-1.2,0.5c-0.2,0.3-0.4,0.7-0.4,1.2v0.9h3.3V8.5z"/>
		<path class="st3" d="M367.8,19.9c-4.4,0-6.5-2.4-6.5-7.2c0-2.4,0.6-4.2,1.8-5.4c1.2-1.3,2.9-1.9,5.1-1.9c1.6,0,3.1,0.3,4.4,1
			l-1.1,3c-0.6-0.2-1.2-0.4-1.7-0.6c-0.5-0.2-1-0.2-1.6-0.2c-2,0-3,1.4-3,4.2c0,2.7,1,4.1,3,4.1c0.7,0,1.4-0.1,2-0.3
			c0.6-0.2,1.3-0.5,1.9-0.9v3.3c-0.6,0.4-1.2,0.7-1.9,0.8C369.6,19.8,368.8,19.9,367.8,19.9z"/>
		<path class="st3" d="M388,12.6c0,2.3-0.6,4.1-1.8,5.3s-2.9,1.9-5,1.9c-1.3,0-2.5-0.3-3.6-0.9c-1-0.6-1.8-1.4-2.4-2.5
			c-0.6-1.1-0.8-2.4-0.8-3.9c0-2.3,0.6-4.1,1.8-5.3c1.2-1.3,2.9-1.9,5-1.9c1.3,0,2.5,0.3,3.6,0.9c1,0.6,1.8,1.4,2.4,2.5
			C387.7,9.8,388,11.1,388,12.6z M378.3,12.6c0,1.4,0.2,2.4,0.7,3.1c0.5,0.7,1.2,1.1,2.2,1.1c1,0,1.7-0.4,2.2-1.1
			c0.4-0.7,0.7-1.8,0.7-3.1c0-1.4-0.2-2.4-0.7-3.1s-1.2-1-2.2-1c-1,0-1.8,0.3-2.2,1C378.6,10.2,378.3,11.2,378.3,12.6z"/>
		<path class="st3" d="M401.1,19.6l-0.5-1.8h-0.2c-0.4,0.7-1,1.2-1.7,1.5s-1.6,0.5-2.6,0.5c-1.6,0-2.9-0.4-3.7-1.3
			c-0.8-0.9-1.3-2.1-1.3-3.8V5.6h3.8v8.2c0,1,0.2,1.8,0.5,2.3c0.4,0.5,0.9,0.8,1.7,0.8c1.1,0,1.8-0.4,2.3-1.1
			c0.5-0.7,0.7-1.9,0.7-3.5V5.6h3.8v14H401.1z"/>
		<path class="st3" d="M415.7,19.9c-1.6,0-2.9-0.6-3.9-1.8h-0.2c0.1,1.2,0.2,1.8,0.2,2v5.7H408V5.6h3.1l0.5,1.8h0.2
			c0.9-1.4,2.2-2.1,4-2.1c1.7,0,2.9,0.6,3.9,1.9c0.9,1.3,1.4,3,1.4,5.3c0,1.5-0.2,2.8-0.7,3.9c-0.4,1.1-1.1,1.9-1.9,2.5
			C417.7,19.6,416.8,19.9,415.7,19.9z M414.6,8.4c-0.9,0-1.6,0.3-2.1,0.9c-0.4,0.6-0.7,1.5-0.7,2.9v0.4c0,1.5,0.2,2.6,0.7,3.2
			c0.4,0.7,1.2,1,2.1,1c1.7,0,2.6-1.4,2.6-4.2c0-1.4-0.2-2.4-0.6-3.1C416.1,8.8,415.5,8.4,414.6,8.4z"/>
		<path class="st3" d="M436.9,12.6c0,2.3-0.6,4.1-1.8,5.3s-2.9,1.9-5,1.9c-1.3,0-2.5-0.3-3.6-0.9c-1-0.6-1.8-1.4-2.4-2.5
			c-0.6-1.1-0.8-2.4-0.8-3.9c0-2.3,0.6-4.1,1.8-5.3c1.2-1.3,2.9-1.9,5-1.9c1.3,0,2.5,0.3,3.6,0.9c1,0.6,1.8,1.4,2.4,2.5
			C436.6,9.8,436.9,11.1,436.9,12.6z M427.3,12.6c0,1.4,0.2,2.4,0.7,3.1c0.5,0.7,1.2,1.1,2.2,1.1c1,0,1.7-0.4,2.2-1.1
			c0.4-0.7,0.7-1.8,0.7-3.1c0-1.4-0.2-2.4-0.7-3.1s-1.2-1-2.2-1c-1,0-1.8,0.3-2.2,1C427.5,10.2,427.3,11.2,427.3,12.6z"/>
		<path class="st3" d="M453,19.6h-3.8v-8.2c0-1-0.2-1.8-0.5-2.3c-0.4-0.5-0.9-0.8-1.7-0.8c-1.1,0-1.8,0.4-2.3,1.1
			c-0.5,0.7-0.7,1.9-0.7,3.5v6.6h-3.8v-14h2.9l0.5,1.8h0.2c0.4-0.7,1-1.2,1.8-1.5c0.7-0.3,1.6-0.5,2.5-0.5c1.6,0,2.9,0.4,3.7,1.3
			c0.8,0.9,1.3,2.1,1.3,3.8V19.6z"/>
		<path class="st3" d="M456.8,2c0-1.2,0.7-1.9,2.1-1.9c1.4,0,2.1,0.6,2.1,1.9c0,0.6-0.2,1.1-0.5,1.4c-0.3,0.3-0.9,0.5-1.6,0.5
			C457.4,3.9,456.8,3.3,456.8,2z M460.7,19.6h-3.8v-14h3.8V19.6z"/>
		<path class="st3" d="M477.6,19.6h-3.8v-8.2c0-1-0.2-1.8-0.5-2.3c-0.4-0.5-0.9-0.8-1.7-0.8c-1.1,0-1.8,0.4-2.3,1.1
			c-0.5,0.7-0.7,1.9-0.7,3.5v6.6h-3.8v-14h2.9l0.5,1.8h0.2c0.4-0.7,1-1.2,1.8-1.5c0.7-0.3,1.6-0.5,2.5-0.5c1.6,0,2.9,0.4,3.7,1.3
			c0.8,0.9,1.3,2.1,1.3,3.8V19.6z"/>
		<path class="st3" d="M493.8,19.6c0,2-0.6,3.5-1.8,4.6s-2.9,1.6-5.2,1.6c-2,0-3.8-0.3-5.2-0.8v-3.1c1.7,0.7,3.5,1.1,5.5,1.1
			c2,0,2.9-1.1,2.9-3.2v-0.3l0.1-1.7H490c-0.9,1.4-2.2,2.1-4,2.1c-1.7,0-3-0.6-3.9-1.9c-0.9-1.3-1.4-3.1-1.4-5.3
			c0-2.3,0.5-4.1,1.4-5.4s2.3-1.9,3.9-1.9c1.7,0,3.1,0.7,4.1,2.1h0.1l0.3-1.8h3.2V19.6z M487.4,16.9c1,0,1.8-0.3,2.2-0.9
			c0.4-0.6,0.7-1.5,0.7-2.9v-0.5c0-1.5-0.2-2.6-0.7-3.2s-1.2-1-2.2-1c-1.8,0-2.7,1.4-2.7,4.2c0,1.4,0.2,2.4,0.7,3.1
			C485.7,16.5,486.4,16.9,487.4,16.9z"/>
	</g>
</g>
<g>
	<g>
		<path class="st1" d="M219.9,71.4h-1.2v-9.3h5.2v1h-4v3.3h3.8v1h-3.8V71.4z"/>
		<path class="st1" d="M228.2,71.5c-1,0-1.9-0.3-2.5-0.9c-0.6-0.6-0.9-1.5-0.9-2.6c0-1.1,0.3-2,0.8-2.7c0.6-0.7,1.3-1,2.2-1
			c0.9,0,1.6,0.3,2.1,0.8c0.5,0.6,0.8,1.3,0.8,2.3v0.7h-4.8c0,0.8,0.2,1.4,0.6,1.8s0.9,0.6,1.6,0.6c0.4,0,0.7,0,1.1-0.1
			c0.3-0.1,0.7-0.2,1.2-0.4v1c-0.4,0.2-0.7,0.3-1.1,0.3C229.1,71.5,228.7,71.5,228.2,71.5z M228,65.3c-0.5,0-1,0.2-1.3,0.5
			s-0.5,0.8-0.6,1.5h3.5c0-0.7-0.2-1.1-0.5-1.5C228.9,65.4,228.5,65.3,228,65.3z"/>
		<path class="st1" d="M241.5,71.4v-4.5c0-1.1-0.5-1.7-1.4-1.7c-0.6,0-1.1,0.2-1.4,0.6s-0.5,1-0.5,1.7v3.8H237v-4.5
			c0-0.6-0.1-1-0.3-1.2s-0.6-0.4-1.1-0.4c-0.6,0-1.1,0.2-1.4,0.6c-0.3,0.4-0.4,1-0.4,1.9v3.6h-1.1v-7h0.9l0.2,1h0.1
			c0.2-0.3,0.5-0.6,0.8-0.8c0.4-0.2,0.8-0.3,1.2-0.3c1.1,0,1.8,0.4,2.1,1.2h0.1c0.2-0.4,0.5-0.7,0.9-0.9c0.4-0.2,0.8-0.3,1.3-0.3
			c0.8,0,1.4,0.2,1.8,0.6s0.6,1.1,0.6,1.9v4.5H241.5z"/>
		<path class="st1" d="M249.1,71.4l-0.2-1h-0.1c-0.3,0.4-0.7,0.7-1,0.9c-0.3,0.2-0.8,0.2-1.3,0.2c-0.7,0-1.2-0.2-1.6-0.5
			s-0.6-0.9-0.6-1.5c0-1.4,1.1-2.2,3.3-2.2l1.2,0v-0.4c0-0.5-0.1-0.9-0.3-1.2c-0.2-0.3-0.6-0.4-1.1-0.4c-0.4,0-0.7,0.1-1,0.2
			s-0.6,0.2-0.9,0.4l-0.3-0.9c0.4-0.2,0.7-0.3,1.1-0.4s0.8-0.2,1.2-0.2c0.8,0,1.5,0.2,1.9,0.6s0.6,1,0.6,1.8v4.7H249.1z M246.7,70.6
			c0.6,0,1.1-0.2,1.5-0.5c0.4-0.3,0.5-0.8,0.5-1.5V68l-1,0c-0.8,0-1.4,0.2-1.7,0.4s-0.5,0.6-0.5,1.1c0,0.4,0.1,0.6,0.3,0.8
			C246,70.5,246.3,70.6,246.7,70.6z"/>
		<path class="st1" d="M253.2,71.4h-1.1v-9.9h1.1V71.4z"/>
		<path class="st1" d="M258.4,71.5c-1,0-1.9-0.3-2.5-0.9c-0.6-0.6-0.9-1.5-0.9-2.6c0-1.1,0.3-2,0.8-2.7c0.6-0.7,1.3-1,2.2-1
			c0.9,0,1.6,0.3,2.1,0.8c0.5,0.6,0.8,1.3,0.8,2.3v0.7h-4.8c0,0.8,0.2,1.4,0.6,1.8s0.9,0.6,1.6,0.6c0.4,0,0.7,0,1.1-0.1
			c0.3-0.1,0.7-0.2,1.2-0.4v1c-0.4,0.2-0.7,0.3-1.1,0.3C259.2,71.5,258.8,71.5,258.4,71.5z M258.1,65.3c-0.5,0-1,0.2-1.3,0.5
			s-0.5,0.8-0.6,1.5h3.5c0-0.7-0.2-1.1-0.5-1.5C259,65.4,258.6,65.3,258.1,65.3z"/>
		<path class="st1" d="M268.9,71.5c-1,0-1.8-0.3-2.3-0.9c-0.6-0.6-0.8-1.5-0.8-2.6c0-1.2,0.3-2.1,0.8-2.7c0.6-0.6,1.4-0.9,2.4-0.9
			c0.3,0,0.7,0,1,0.1c0.3,0.1,0.6,0.2,0.8,0.3l-0.3,1c-0.6-0.2-1.1-0.3-1.5-0.3c-0.7,0-1.2,0.2-1.6,0.7c-0.3,0.4-0.5,1.1-0.5,2
			c0,0.8,0.2,1.5,0.5,1.9c0.3,0.4,0.8,0.7,1.5,0.7c0.6,0,1.2-0.1,1.8-0.4v1C270.2,71.4,269.6,71.5,268.9,71.5z"/>
		<path class="st1" d="M278.4,67.9c0,1.1-0.3,2-0.9,2.7s-1.4,1-2.4,1c-0.6,0-1.2-0.1-1.7-0.4c-0.5-0.3-0.9-0.7-1.1-1.3
			c-0.3-0.6-0.4-1.2-0.4-1.9c0-1.1,0.3-2,0.9-2.6c0.6-0.6,1.4-0.9,2.4-0.9c1,0,1.8,0.3,2.3,1C278.1,65.9,278.4,66.8,278.4,67.9z
			 M273.1,67.9c0,0.9,0.2,1.5,0.5,2c0.3,0.5,0.9,0.7,1.5,0.7c0.7,0,1.2-0.2,1.5-0.7c0.3-0.5,0.5-1.1,0.5-2s-0.2-1.5-0.5-2
			c-0.3-0.4-0.9-0.7-1.5-0.7C273.8,65.3,273.1,66.2,273.1,67.9z"/>
		<path class="st1" d="M281.3,64.4v4.5c0,0.6,0.1,1,0.4,1.3c0.3,0.3,0.6,0.4,1.2,0.4c0.7,0,1.2-0.2,1.6-0.6s0.5-1,0.5-1.9v-3.6h1.1
			v7h-0.9l-0.2-0.9h-0.1c-0.2,0.3-0.5,0.6-0.9,0.8s-0.8,0.3-1.3,0.3c-0.8,0-1.5-0.2-1.9-0.6c-0.4-0.4-0.6-1-0.6-1.9v-4.6H281.3z"/>
		<path class="st1" d="M291.6,71.5c-0.9,0-1.7-0.3-2.2-1h-0.1l0,0.3c0,0.3,0.1,0.6,0.1,0.9v2.9h-1.1V64.4h0.9l0.2,1h0.1
			c0.3-0.4,0.6-0.7,0.9-0.8s0.8-0.3,1.2-0.3c0.9,0,1.6,0.3,2.1,0.9c0.5,0.6,0.8,1.5,0.8,2.7c0,1.1-0.3,2-0.8,2.7
			S292.5,71.5,291.6,71.5z M291.4,65.3c-0.7,0-1.2,0.2-1.5,0.6s-0.5,1-0.5,1.8v0.2c0,0.9,0.2,1.6,0.5,2c0.3,0.4,0.8,0.6,1.5,0.6
			c0.6,0,1-0.2,1.4-0.7s0.5-1.1,0.5-2c0-0.9-0.2-1.5-0.5-2C292.4,65.5,292,65.3,291.4,65.3z"/>
		<path class="st1" d="M302.3,67.9c0,1.1-0.3,2-0.9,2.7s-1.4,1-2.4,1c-0.6,0-1.2-0.1-1.7-0.4c-0.5-0.3-0.9-0.7-1.1-1.3
			c-0.3-0.6-0.4-1.2-0.4-1.9c0-1.1,0.3-2,0.9-2.6c0.6-0.6,1.4-0.9,2.4-0.9c1,0,1.8,0.3,2.3,1C302,65.9,302.3,66.8,302.3,67.9z
			 M297,67.9c0,0.9,0.2,1.5,0.5,2c0.3,0.5,0.9,0.7,1.5,0.7c0.7,0,1.2-0.2,1.5-0.7c0.3-0.5,0.5-1.1,0.5-2s-0.2-1.5-0.5-2
			c-0.3-0.4-0.9-0.7-1.5-0.7C297.7,65.3,297,66.2,297,67.9z"/>
		<path class="st1" d="M308.9,71.4V67c0-0.6-0.1-1-0.4-1.3c-0.3-0.3-0.6-0.4-1.2-0.4c-0.7,0-1.2,0.2-1.6,0.6c-0.3,0.4-0.5,1-0.5,1.9
			v3.6h-1.1v-7h0.9l0.2,1h0.1c0.2-0.3,0.5-0.6,0.9-0.8c0.4-0.2,0.8-0.3,1.3-0.3c0.9,0,1.5,0.2,1.9,0.6s0.6,1.1,0.6,1.9v4.5H308.9z"
			/>
		<path class="st1" d="M315.1,71.5c-1,0-1.9-0.3-2.5-0.9c-0.6-0.6-0.9-1.5-0.9-2.6c0-1.1,0.3-2,0.8-2.7c0.6-0.7,1.3-1,2.2-1
			c0.9,0,1.6,0.3,2.1,0.8c0.5,0.6,0.8,1.3,0.8,2.3v0.7h-4.8c0,0.8,0.2,1.4,0.6,1.8s0.9,0.6,1.6,0.6c0.4,0,0.7,0,1.1-0.1
			c0.3-0.1,0.7-0.2,1.2-0.4v1c-0.4,0.2-0.7,0.3-1.1,0.3C316,71.5,315.6,71.5,315.1,71.5z M314.8,65.3c-0.5,0-1,0.2-1.3,0.5
			s-0.5,0.8-0.6,1.5h3.5c0-0.7-0.2-1.1-0.5-1.5C315.8,65.4,315.4,65.3,314.8,65.3z"/>
		<path class="st1" d="M322.7,64.3c0.3,0,0.6,0,0.8,0.1l-0.1,1.1c-0.3-0.1-0.5-0.1-0.8-0.1c-0.4,0-0.7,0.1-1,0.3s-0.6,0.5-0.7,0.8
			c-0.2,0.4-0.3,0.8-0.3,1.2v3.7h-1.1v-7h0.9l0.1,1.3h0.1c0.3-0.5,0.6-0.8,0.9-1C321.9,64.4,322.3,64.3,322.7,64.3z"/>
		<path class="st1" d="M329.4,69.5c0,0.7-0.2,1.2-0.7,1.5c-0.5,0.4-1.2,0.5-2,0.5c-0.9,0-1.6-0.1-2.2-0.4v-1
			c0.8,0.4,1.5,0.6,2.2,0.6c0.6,0,1-0.1,1.3-0.3c0.3-0.2,0.4-0.4,0.4-0.7c0-0.3-0.1-0.5-0.4-0.7s-0.7-0.4-1.3-0.7
			c-0.7-0.3-1.1-0.5-1.4-0.7c-0.3-0.2-0.5-0.4-0.6-0.6s-0.2-0.5-0.2-0.8c0-0.6,0.2-1,0.7-1.4s1.1-0.5,1.9-0.5c0.8,0,1.5,0.2,2.2,0.5
			l-0.4,0.9c-0.7-0.3-1.3-0.4-1.9-0.4c-0.5,0-0.8,0.1-1.1,0.2c-0.2,0.2-0.4,0.4-0.4,0.6c0,0.3,0.1,0.5,0.3,0.6
			c0.2,0.2,0.7,0.4,1.5,0.7c0.6,0.2,1,0.4,1.3,0.6s0.5,0.4,0.6,0.6S329.4,69.2,329.4,69.5z"/>
		<path class="st1" d="M222.8,95.5l-0.2-1h-0.1c-0.3,0.4-0.7,0.7-1,0.9s-0.8,0.2-1.3,0.2c-0.7,0-1.2-0.2-1.6-0.5
			c-0.4-0.4-0.6-0.9-0.6-1.5c0-1.4,1.1-2.2,3.3-2.2l1.2,0v-0.4c0-0.5-0.1-0.9-0.3-1.2s-0.6-0.4-1.1-0.4c-0.4,0-0.7,0.1-1,0.2
			c-0.3,0.1-0.6,0.2-0.9,0.4l-0.3-0.9c0.4-0.2,0.7-0.3,1.1-0.4c0.4-0.1,0.8-0.2,1.2-0.2c0.8,0,1.5,0.2,1.9,0.6s0.6,1,0.6,1.8v4.7
			H222.8z M220.5,94.7c0.6,0,1.1-0.2,1.5-0.5s0.5-0.8,0.5-1.5v-0.6l-1,0c-0.8,0-1.4,0.2-1.7,0.4s-0.5,0.6-0.5,1.1
			c0,0.4,0.1,0.6,0.3,0.8C219.8,94.6,220.1,94.7,220.5,94.7z"/>
		<path class="st1" d="M229.1,88.4c0.3,0,0.6,0,0.8,0.1l-0.1,1.1c-0.3-0.1-0.5-0.1-0.8-0.1c-0.4,0-0.7,0.1-1,0.3s-0.6,0.5-0.7,0.8
			s-0.3,0.8-0.3,1.2v3.7h-1.1v-7h0.9l0.1,1.3h0.1c0.3-0.5,0.6-0.8,0.9-1C228.2,88.5,228.6,88.4,229.1,88.4z"/>
		<path class="st1" d="M234,95.7c-1,0-1.9-0.3-2.5-0.9s-0.9-1.5-0.9-2.6c0-1.1,0.3-2,0.8-2.7s1.3-1,2.2-1c0.9,0,1.6,0.3,2.1,0.8
			c0.5,0.6,0.8,1.3,0.8,2.3v0.7h-4.8c0,0.8,0.2,1.4,0.6,1.8s0.9,0.6,1.6,0.6c0.4,0,0.7,0,1.1-0.1s0.7-0.2,1.2-0.4v1
			c-0.4,0.2-0.7,0.3-1.1,0.3S234.5,95.7,234,95.7z M233.7,89.4c-0.5,0-1,0.2-1.3,0.5s-0.5,0.8-0.6,1.5h3.5c0-0.7-0.2-1.1-0.5-1.5
			C234.7,89.5,234.3,89.4,233.7,89.4z"/>
		<path class="st1" d="M259.8,95.5h-12V93l4.3-4.3c1.3-1.3,2.1-2.2,2.5-2.7s0.7-1,0.8-1.4s0.3-0.9,0.3-1.3c0-0.7-0.2-1.2-0.6-1.5
			s-0.9-0.5-1.5-0.5c-0.7,0-1.3,0.2-1.9,0.5s-1.3,0.7-2,1.3l-2-2.3c0.8-0.7,1.5-1.2,2.1-1.5s1.2-0.5,1.8-0.7s1.4-0.2,2.2-0.2
			c1.1,0,2,0.2,2.8,0.6c0.8,0.4,1.5,0.9,1.9,1.6s0.7,1.5,0.7,2.4c0,0.8-0.1,1.5-0.4,2.2s-0.7,1.4-1.3,2.1s-1.6,1.8-3.1,3.1l-2.2,2.1
			v0.2h7.5V95.5z"/>
		<path class="st1" d="M273.5,87c0,3-0.5,5.2-1.5,6.6s-2.5,2.2-4.5,2.2c-2,0-3.5-0.7-4.5-2.2s-1.5-3.7-1.5-6.6c0-3,0.5-5.3,1.5-6.7
			s2.5-2.2,4.5-2.2c2,0,3.5,0.8,4.5,2.3S273.5,84.1,273.5,87z M265.1,87c0,2.1,0.2,3.6,0.5,4.5s1,1.4,1.8,1.4c0.8,0,1.5-0.5,1.8-1.4
			s0.6-2.4,0.6-4.5c0-2.1-0.2-3.6-0.6-4.5s-1-1.4-1.8-1.4c-0.9,0-1.5,0.5-1.8,1.4S265.1,84.9,265.1,87z"/>
		<path class="st1" d="M283.2,83.5c0,1.8-0.3,3.1-1,4s-1.7,1.4-3.1,1.4c-1.3,0-2.3-0.5-3-1.4s-1.1-2.3-1.1-4c0-3.6,1.3-5.4,4-5.4
			c1.3,0,2.3,0.5,3,1.4S283.2,81.8,283.2,83.5z M278,83.5c0,1,0.1,1.7,0.3,2.2s0.5,0.7,0.8,0.7c0.8,0,1.1-1,1.1-3
			c0-2-0.4-2.9-1.1-2.9c-0.4,0-0.7,0.2-0.8,0.7S278,82.5,278,83.5z M291.3,78.4l-9.5,17.1H279l9.5-17.1H291.3z M295.2,90.3
			c0,1.8-0.3,3.1-1,4s-1.7,1.4-3.1,1.4c-1.3,0-2.3-0.5-3-1.4s-1.1-2.3-1.1-4c0-3.6,1.3-5.4,4-5.4c1.3,0,2.3,0.5,3,1.4
			S295.2,88.6,295.2,90.3z M290,90.4c0,1,0.1,1.7,0.3,2.2s0.5,0.7,0.8,0.7c0.8,0,1.1-1,1.1-3c0-2-0.4-2.9-1.1-2.9
			c-0.4,0-0.7,0.2-0.8,0.7S290,89.4,290,90.4z"/>
		<path class="st1" d="M227.4,111.6v-4.5c0-1.1-0.5-1.7-1.4-1.7c-0.6,0-1.1,0.2-1.4,0.6s-0.5,1-0.5,1.7v3.8H223v-4.5
			c0-0.5-0.1-1-0.3-1.2s-0.6-0.4-1.1-0.4c-0.6,0-1.1,0.2-1.4,0.6c-0.3,0.4-0.4,1-0.4,1.9v3.6h-1.1v-7h0.9l0.2,1h0.1
			c0.2-0.3,0.5-0.6,0.8-0.8c0.4-0.2,0.8-0.3,1.2-0.3c1.1,0,1.8,0.4,2.1,1.2h0.1c0.2-0.4,0.5-0.7,0.9-0.9c0.4-0.2,0.8-0.3,1.3-0.3
			c0.8,0,1.4,0.2,1.8,0.6s0.6,1.1,0.6,1.9v4.5H227.4z"/>
		<path class="st1" d="M236.7,108.1c0,1.1-0.3,2-0.9,2.7c-0.6,0.6-1.4,1-2.4,1c-0.6,0-1.2-0.1-1.7-0.4s-0.9-0.7-1.1-1.3
			c-0.3-0.6-0.4-1.2-0.4-1.9c0-1.1,0.3-2,0.9-2.6c0.6-0.6,1.4-0.9,2.4-0.9c1,0,1.8,0.3,2.3,1C236.4,106.1,236.7,107,236.7,108.1z
			 M231.5,108.1c0,0.9,0.2,1.5,0.5,2s0.9,0.7,1.5,0.7c0.7,0,1.2-0.2,1.5-0.7s0.5-1.1,0.5-2c0-0.9-0.2-1.5-0.5-2
			c-0.3-0.4-0.9-0.7-1.5-0.7C232.1,105.5,231.5,106.4,231.5,108.1z"/>
		<path class="st1" d="M241.8,104.5c0.3,0,0.6,0,0.8,0.1l-0.1,1.1c-0.3-0.1-0.5-0.1-0.8-0.1c-0.4,0-0.7,0.1-1,0.3s-0.6,0.5-0.7,0.8
			s-0.3,0.8-0.3,1.2v3.7h-1.1v-7h0.9l0.1,1.3h0.1c0.3-0.5,0.6-0.8,0.9-1C241,104.7,241.4,104.5,241.8,104.5z"/>
		<path class="st1" d="M246.8,111.8c-1,0-1.9-0.3-2.5-0.9s-0.9-1.5-0.9-2.6c0-1.1,0.3-2,0.8-2.7s1.3-1,2.2-1c0.9,0,1.6,0.3,2.1,0.8
			c0.5,0.6,0.8,1.3,0.8,2.3v0.7h-4.8c0,0.8,0.2,1.4,0.6,1.8s0.9,0.6,1.6,0.6c0.4,0,0.7,0,1.1-0.1s0.7-0.2,1.2-0.4v1
			c-0.4,0.2-0.7,0.3-1.1,0.3S247.2,111.8,246.8,111.8z M246.5,105.5c-0.5,0-1,0.2-1.3,0.5s-0.5,0.8-0.6,1.5h3.5
			c0-0.7-0.2-1.1-0.5-1.5C247.4,105.6,247,105.5,246.5,105.5z"/>
		<path class="st1" d="M255.6,111.6h-1.1v-9.9h1.1V111.6z"/>
		<path class="st1" d="M257.8,102.8c0-0.3,0.1-0.4,0.2-0.6s0.3-0.2,0.5-0.2c0.2,0,0.3,0.1,0.5,0.2c0.1,0.1,0.2,0.3,0.2,0.6
			c0,0.3-0.1,0.4-0.2,0.6c-0.1,0.1-0.3,0.2-0.5,0.2c-0.2,0-0.4-0.1-0.5-0.2S257.8,103,257.8,102.8z M259,111.6h-1.1v-7h1.1V111.6z"
			/>
		<path class="st1" d="M262.3,108l0.4-0.5l0.4-0.5l2.2-2.4h1.3l-2.8,3l3,4h-1.4l-2.4-3.3l-0.8,0.7v2.6h-1.1v-9.9h1.1v5.2V108
			L262.3,108z"/>
		<path class="st1" d="M271,111.8c-1,0-1.9-0.3-2.5-0.9s-0.9-1.5-0.9-2.6c0-1.1,0.3-2,0.8-2.7s1.3-1,2.2-1c0.9,0,1.6,0.3,2.1,0.8
			c0.5,0.6,0.8,1.3,0.8,2.3v0.7h-4.8c0,0.8,0.2,1.4,0.6,1.8s0.9,0.6,1.6,0.6c0.4,0,0.7,0,1.1-0.1s0.7-0.2,1.2-0.4v1
			c-0.4,0.2-0.7,0.3-1.1,0.3S271.4,111.8,271,111.8z M270.7,105.5c-0.5,0-1,0.2-1.3,0.5s-0.5,0.8-0.6,1.5h3.5c0-0.7-0.2-1.1-0.5-1.5
			C271.6,105.6,271.2,105.5,270.7,105.5z"/>
		<path class="st1" d="M276.5,111.6h-1.1v-9.9h1.1V111.6z"/>
		<path class="st1" d="M277.6,104.7h1.2l1.5,4c0.3,0.9,0.5,1.5,0.6,1.9h0.1c0-0.2,0.1-0.4,0.3-0.9c0.1-0.4,0.3-0.8,0.3-1l1.4-4h1.2
			l-3,7.9c-0.3,0.8-0.6,1.3-1,1.7c-0.4,0.3-0.9,0.5-1.5,0.5c-0.3,0-0.6,0-0.9-0.1v-0.9c0.2,0.1,0.5,0.1,0.8,0.1
			c0.4,0,0.7-0.1,0.9-0.3s0.5-0.5,0.6-0.9l0.4-0.9L277.6,104.7z"/>
		<path class="st1" d="M220.9,126.9c0.1,0,0.3,0,0.5,0c0.2,0,0.3-0.1,0.5-0.1v0.9c-0.1,0-0.3,0.1-0.5,0.1c-0.2,0-0.4,0.1-0.7,0.1
			c-1.4,0-2-0.7-2-2.2v-4.1h-1v-0.5l1-0.5l0.5-1.5h0.7v1.6h2v0.9h-2v4c0,0.4,0.1,0.7,0.3,0.9S220.5,126.9,220.9,126.9z"/>
		<path class="st1" d="M229.3,124.2c0,1.1-0.3,2-0.9,2.7c-0.6,0.6-1.4,1-2.4,1c-0.6,0-1.2-0.1-1.7-0.4s-0.9-0.7-1.1-1.3
			c-0.3-0.6-0.4-1.2-0.4-1.9c0-1.1,0.3-2,0.9-2.6c0.6-0.6,1.4-0.9,2.4-0.9c1,0,1.8,0.3,2.3,1C229,122.3,229.3,123.1,229.3,124.2z
			 M224,124.2c0,0.9,0.2,1.5,0.5,2s0.9,0.7,1.5,0.7c0.7,0,1.2-0.2,1.5-0.7s0.5-1.1,0.5-2c0-0.9-0.2-1.5-0.5-2
			c-0.3-0.4-0.9-0.7-1.5-0.7C224.7,121.6,224,122.5,224,124.2z"/>
		<path class="st1" d="M237.7,120.6c0.3,0,0.6,0,0.8,0.1l-0.1,1.1c-0.3-0.1-0.5-0.1-0.8-0.1c-0.4,0-0.7,0.1-1,0.3s-0.6,0.5-0.7,0.8
			s-0.3,0.8-0.3,1.2v3.7h-1.1v-7h0.9l0.1,1.3h0.1c0.3-0.5,0.6-0.8,0.9-1C236.9,120.8,237.3,120.6,237.7,120.6z"/>
		<path class="st1" d="M242.7,127.9c-1,0-1.9-0.3-2.5-0.9s-0.9-1.5-0.9-2.6c0-1.1,0.3-2,0.8-2.7s1.3-1,2.2-1c0.9,0,1.6,0.3,2.1,0.8
			c0.5,0.6,0.8,1.3,0.8,2.3v0.7h-4.8c0,0.8,0.2,1.4,0.6,1.8s0.9,0.6,1.6,0.6c0.4,0,0.7,0,1.1-0.1s0.7-0.2,1.2-0.4v1
			c-0.4,0.2-0.7,0.3-1.1,0.3S243.1,127.9,242.7,127.9z M242.4,121.6c-0.5,0-1,0.2-1.3,0.5s-0.5,0.8-0.6,1.5h3.5
			c0-0.7-0.2-1.1-0.5-1.5C243.3,121.7,242.9,121.6,242.4,121.6z"/>
		<path class="st1" d="M249.8,127.9c-1,0-1.8-0.3-2.3-0.9c-0.6-0.6-0.8-1.5-0.8-2.7c0-1.2,0.3-2.1,0.8-2.7c0.6-0.6,1.4-0.9,2.4-0.9
			c0.3,0,0.7,0,1,0.1c0.3,0.1,0.6,0.2,0.8,0.3l-0.3,1c-0.6-0.2-1.1-0.3-1.5-0.3c-0.7,0-1.2,0.2-1.6,0.7s-0.5,1.1-0.5,2
			c0,0.8,0.2,1.5,0.5,1.9s0.8,0.7,1.5,0.7c0.6,0,1.2-0.1,1.8-0.4v1C251.1,127.7,250.5,127.9,249.8,127.9z"/>
		<path class="st1" d="M256.2,127.9c-1,0-1.9-0.3-2.5-0.9s-0.9-1.5-0.9-2.6c0-1.1,0.3-2,0.8-2.7s1.3-1,2.2-1c0.9,0,1.6,0.3,2.1,0.8
			c0.5,0.6,0.8,1.3,0.8,2.3v0.7h-4.8c0,0.8,0.2,1.4,0.6,1.8s0.9,0.6,1.6,0.6c0.4,0,0.7,0,1.1-0.1s0.7-0.2,1.2-0.4v1
			c-0.4,0.2-0.7,0.3-1.1,0.3S256.7,127.9,256.2,127.9z M256,121.6c-0.5,0-1,0.2-1.3,0.5s-0.5,0.8-0.6,1.5h3.5c0-0.7-0.2-1.1-0.5-1.5
			C256.9,121.7,256.5,121.6,256,121.6z"/>
		<path class="st1" d="M260.5,118.9c0-0.3,0.1-0.4,0.2-0.6s0.3-0.2,0.5-0.2c0.2,0,0.3,0.1,0.5,0.2c0.1,0.1,0.2,0.3,0.2,0.6
			c0,0.3-0.1,0.4-0.2,0.6c-0.1,0.1-0.3,0.2-0.5,0.2c-0.2,0-0.4-0.1-0.5-0.2S260.5,119.1,260.5,118.9z M261.7,127.7h-1.1v-7h1.1
			V127.7z"/>
		<path class="st1" d="M265.5,127.7l-2.6-7h1.2l1.5,4.1c0.3,0.8,0.5,1.4,0.6,1.8h0.1c0-0.1,0-0.1,0-0.2c0-0.1,0-0.1,0.1-0.2
			c0-0.1,0.2-0.6,0.5-1.4l1.5-4.1h1.2l-2.6,7H265.5z"/>
		<path class="st1" d="M273.5,127.9c-1,0-1.9-0.3-2.5-0.9s-0.9-1.5-0.9-2.6c0-1.1,0.3-2,0.8-2.7s1.3-1,2.2-1c0.9,0,1.6,0.3,2.1,0.8
			c0.5,0.6,0.8,1.3,0.8,2.3v0.7h-4.8c0,0.8,0.2,1.4,0.6,1.8s0.9,0.6,1.6,0.6c0.4,0,0.7,0,1.1-0.1s0.7-0.2,1.2-0.4v1
			c-0.4,0.2-0.7,0.3-1.1,0.3S274,127.9,273.5,127.9z M273.2,121.6c-0.5,0-1,0.2-1.3,0.5s-0.5,0.8-0.6,1.5h3.5c0-0.7-0.2-1.1-0.5-1.5
			C274.2,121.7,273.8,121.6,273.2,121.6z"/>
		<path class="st1" d="M284.2,127.9c-1,0-1.9-0.3-2.5-0.9s-0.9-1.5-0.9-2.6c0-1.1,0.3-2,0.8-2.7s1.3-1,2.2-1c0.9,0,1.6,0.3,2.1,0.8
			c0.5,0.6,0.8,1.3,0.8,2.3v0.7h-4.8c0,0.8,0.2,1.4,0.6,1.8s0.9,0.6,1.6,0.6c0.4,0,0.7,0,1.1-0.1s0.7-0.2,1.2-0.4v1
			c-0.4,0.2-0.7,0.3-1.1,0.3S284.7,127.9,284.2,127.9z M283.9,121.6c-0.5,0-1,0.2-1.3,0.5s-0.5,0.8-0.6,1.5h3.5
			c0-0.7-0.2-1.1-0.5-1.5C284.9,121.7,284.5,121.6,283.9,121.6z"/>
		<path class="st1" d="M297.5,127.7v-4.5c0-1.1-0.5-1.7-1.4-1.7c-0.6,0-1.1,0.2-1.4,0.6s-0.5,1-0.5,1.7v3.8H293v-4.5
			c0-0.5-0.1-1-0.3-1.2s-0.6-0.4-1.1-0.4c-0.6,0-1.1,0.2-1.4,0.6c-0.3,0.4-0.4,1-0.4,1.9v3.6h-1.1v-7h0.9l0.2,1h0.1
			c0.2-0.3,0.5-0.6,0.8-0.8c0.4-0.2,0.8-0.3,1.2-0.3c1.1,0,1.8,0.4,2.1,1.2h0.1c0.2-0.4,0.5-0.7,0.9-0.9c0.4-0.2,0.8-0.3,1.3-0.3
			c0.8,0,1.4,0.2,1.8,0.6s0.6,1.1,0.6,1.9v4.5H297.5z"/>
		<path class="st1" d="M306.8,124.2c0,1.1-0.3,2-0.9,2.7c-0.6,0.6-1.4,1-2.4,1c-0.6,0-1.2-0.1-1.7-0.4s-0.9-0.7-1.1-1.3
			c-0.3-0.6-0.4-1.2-0.4-1.9c0-1.1,0.3-2,0.9-2.6c0.6-0.6,1.4-0.9,2.4-0.9c1,0,1.8,0.3,2.3,1C306.5,122.3,306.8,123.1,306.8,124.2z
			 M301.5,124.2c0,0.9,0.2,1.5,0.5,2s0.9,0.7,1.5,0.7c0.7,0,1.2-0.2,1.5-0.7s0.5-1.1,0.5-2c0-0.9-0.2-1.5-0.5-2
			c-0.3-0.4-0.9-0.7-1.5-0.7C302.2,121.6,301.5,122.5,301.5,124.2z"/>
		<path class="st1" d="M310.9,126.9c0.1,0,0.3,0,0.5,0c0.2,0,0.3-0.1,0.5-0.1v0.9c-0.1,0-0.3,0.1-0.5,0.1c-0.2,0-0.4,0.1-0.7,0.1
			c-1.4,0-2-0.7-2-2.2v-4.1h-1v-0.5l1-0.5l0.5-1.5h0.7v1.6h2v0.9h-2v4c0,0.4,0.1,0.7,0.3,0.9S310.6,126.9,310.9,126.9z"/>
		<path class="st1" d="M313.2,118.9c0-0.3,0.1-0.4,0.2-0.6s0.3-0.2,0.5-0.2c0.2,0,0.3,0.1,0.5,0.2c0.1,0.1,0.2,0.3,0.2,0.6
			c0,0.3-0.1,0.4-0.2,0.6c-0.1,0.1-0.3,0.2-0.5,0.2c-0.2,0-0.4-0.1-0.5-0.2S313.2,119.1,313.2,118.9z M314.5,127.7h-1.1v-7h1.1
			V127.7z"/>
		<path class="st1" d="M322.7,124.2c0,1.1-0.3,2-0.9,2.7c-0.6,0.6-1.4,1-2.4,1c-0.6,0-1.2-0.1-1.7-0.4s-0.9-0.7-1.1-1.3
			c-0.3-0.6-0.4-1.2-0.4-1.9c0-1.1,0.3-2,0.9-2.6c0.6-0.6,1.4-0.9,2.4-0.9c1,0,1.8,0.3,2.3,1C322.4,122.3,322.7,123.1,322.7,124.2z
			 M317.5,124.2c0,0.9,0.2,1.5,0.5,2s0.9,0.7,1.5,0.7c0.7,0,1.2-0.2,1.5-0.7s0.5-1.1,0.5-2c0-0.9-0.2-1.5-0.5-2
			c-0.3-0.4-0.9-0.7-1.5-0.7C318.1,121.6,317.5,122.5,317.5,124.2z"/>
		<path class="st1" d="M329.3,127.7v-4.5c0-0.6-0.1-1-0.4-1.3s-0.6-0.4-1.2-0.4c-0.7,0-1.2,0.2-1.6,0.6c-0.3,0.4-0.5,1-0.5,1.9v3.6
			h-1.1v-7h0.9l0.2,1h0.1c0.2-0.3,0.5-0.6,0.9-0.8c0.4-0.2,0.8-0.3,1.3-0.3c0.9,0,1.5,0.2,1.9,0.6s0.6,1.1,0.6,1.9v4.5H329.3z"/>
		<path class="st1" d="M336.9,127.7l-0.2-1h-0.1c-0.3,0.4-0.7,0.7-1,0.9s-0.8,0.2-1.3,0.2c-0.7,0-1.2-0.2-1.6-0.5
			c-0.4-0.4-0.6-0.9-0.6-1.5c0-1.4,1.1-2.2,3.3-2.2l1.2,0v-0.4c0-0.5-0.1-0.9-0.3-1.2s-0.6-0.4-1.1-0.4c-0.4,0-0.7,0.1-1,0.2
			c-0.3,0.1-0.6,0.2-0.9,0.4l-0.3-0.9c0.4-0.2,0.7-0.3,1.1-0.4c0.4-0.1,0.8-0.2,1.2-0.2c0.8,0,1.5,0.2,1.9,0.6s0.6,1,0.6,1.8v4.7
			H336.9z M334.5,126.9c0.6,0,1.1-0.2,1.5-0.5s0.5-0.8,0.5-1.5v-0.6l-1,0c-0.8,0-1.4,0.2-1.7,0.4s-0.5,0.6-0.5,1.1
			c0,0.4,0.1,0.6,0.3,0.8C333.8,126.8,334.1,126.9,334.5,126.9z"/>
		<path class="st1" d="M341,127.7h-1.1v-9.9h1.1V127.7z"/>
		<path class="st1" d="M223.1,141.9c0,0.7-0.2,1.2-0.7,1.5s-1.2,0.5-2,0.5c-0.9,0-1.6-0.1-2.2-0.4v-1c0.8,0.4,1.5,0.6,2.2,0.6
			c0.6,0,1-0.1,1.3-0.3c0.3-0.2,0.4-0.4,0.4-0.8c0-0.3-0.1-0.5-0.4-0.7c-0.3-0.2-0.7-0.4-1.3-0.7c-0.7-0.3-1.1-0.5-1.4-0.7
			s-0.5-0.4-0.6-0.6s-0.2-0.5-0.2-0.8c0-0.6,0.2-1,0.7-1.4s1.1-0.5,1.9-0.5c0.8,0,1.5,0.2,2.2,0.5l-0.4,0.9
			c-0.7-0.3-1.3-0.4-1.9-0.4c-0.5,0-0.8,0.1-1.1,0.2s-0.4,0.4-0.4,0.6c0,0.3,0.1,0.5,0.3,0.6s0.7,0.4,1.5,0.7c0.6,0.2,1,0.4,1.3,0.6
			s0.5,0.4,0.6,0.6C223,141.3,223.1,141.6,223.1,141.9z"/>
		<path class="st1" d="M229.1,143.8l-0.2-1h-0.1c-0.3,0.4-0.7,0.7-1,0.9s-0.8,0.2-1.3,0.2c-0.7,0-1.2-0.2-1.6-0.5
			c-0.4-0.4-0.6-0.9-0.6-1.5c0-1.4,1.1-2.2,3.3-2.2l1.2,0v-0.4c0-0.5-0.1-0.9-0.3-1.2s-0.6-0.4-1.1-0.4c-0.4,0-0.7,0.1-1,0.2
			c-0.3,0.1-0.6,0.2-0.9,0.4l-0.3-0.9c0.4-0.2,0.7-0.3,1.1-0.4c0.4-0.1,0.8-0.2,1.2-0.2c0.8,0,1.5,0.2,1.9,0.6s0.6,1,0.6,1.8v4.7
			H229.1z M226.7,143.1c0.6,0,1.1-0.2,1.5-0.5s0.5-0.8,0.5-1.5v-0.6l-1,0c-0.8,0-1.4,0.2-1.7,0.4s-0.5,0.6-0.5,1.1
			c0,0.4,0.1,0.6,0.3,0.8C226,143,226.3,143.1,226.7,143.1z"/>
		<path class="st1" d="M234.4,143c0.1,0,0.3,0,0.5,0c0.2,0,0.3-0.1,0.5-0.1v0.9c-0.1,0-0.3,0.1-0.5,0.1c-0.2,0-0.4,0.1-0.7,0.1
			c-1.4,0-2-0.7-2-2.2v-4.1h-1v-0.5l1-0.5l0.5-1.5h0.7v1.6h2v0.9h-2v4c0,0.4,0.1,0.7,0.3,0.9S234,143,234.4,143z"/>
		<path class="st1" d="M236.6,135c0-0.3,0.1-0.4,0.2-0.6s0.3-0.2,0.5-0.2c0.2,0,0.3,0.1,0.5,0.2c0.1,0.1,0.2,0.3,0.2,0.6
			c0,0.3-0.1,0.4-0.2,0.6c-0.1,0.1-0.3,0.2-0.5,0.2c-0.2,0-0.4-0.1-0.5-0.2S236.6,135.2,236.6,135z M237.9,143.8h-1.1v-7h1.1V143.8z
			"/>
		<path class="st1" d="M244.6,141.9c0,0.7-0.2,1.2-0.7,1.5s-1.2,0.5-2,0.5c-0.9,0-1.6-0.1-2.2-0.4v-1c0.8,0.4,1.5,0.6,2.2,0.6
			c0.6,0,1-0.1,1.3-0.3c0.3-0.2,0.4-0.4,0.4-0.8c0-0.3-0.1-0.5-0.4-0.7c-0.3-0.2-0.7-0.4-1.3-0.7c-0.7-0.3-1.1-0.5-1.4-0.7
			s-0.5-0.4-0.6-0.6s-0.2-0.5-0.2-0.8c0-0.6,0.2-1,0.7-1.4s1.1-0.5,1.9-0.5c0.8,0,1.5,0.2,2.2,0.5l-0.4,0.9
			c-0.7-0.3-1.3-0.4-1.9-0.4c-0.5,0-0.8,0.1-1.1,0.2s-0.4,0.4-0.4,0.6c0,0.3,0.1,0.5,0.3,0.6s0.7,0.4,1.5,0.7c0.6,0.2,1,0.4,1.3,0.6
			s0.5,0.4,0.6,0.6C244.6,141.3,244.6,141.6,244.6,141.9z"/>
		<path class="st1" d="M249.5,137.8h-1.8v6.1h-1.1v-6.1h-1.2v-0.5l1.2-0.4v-0.4c0-0.8,0.2-1.5,0.6-1.9c0.4-0.4,0.9-0.6,1.7-0.6
			c0.4,0,0.9,0.1,1.4,0.2l-0.3,0.9c-0.4-0.1-0.7-0.2-1-0.2c-0.4,0-0.7,0.1-0.9,0.4c-0.2,0.3-0.3,0.7-0.3,1.2v0.5h1.8V137.8z"/>
		<path class="st1" d="M255.1,143.8l-0.2-1h-0.1c-0.3,0.4-0.7,0.7-1,0.9s-0.8,0.2-1.3,0.2c-0.7,0-1.2-0.2-1.6-0.5
			c-0.4-0.4-0.6-0.9-0.6-1.5c0-1.4,1.1-2.2,3.3-2.2l1.2,0v-0.4c0-0.5-0.1-0.9-0.3-1.2s-0.6-0.4-1.1-0.4c-0.4,0-0.7,0.1-1,0.2
			c-0.3,0.1-0.6,0.2-0.9,0.4l-0.3-0.9c0.4-0.2,0.7-0.3,1.1-0.4c0.4-0.1,0.8-0.2,1.2-0.2c0.8,0,1.5,0.2,1.9,0.6s0.6,1,0.6,1.8v4.7
			H255.1z M252.7,143.1c0.6,0,1.1-0.2,1.5-0.5s0.5-0.8,0.5-1.5v-0.6l-1,0c-0.8,0-1.4,0.2-1.7,0.4s-0.5,0.6-0.5,1.1
			c0,0.4,0.1,0.6,0.3,0.8C252,143,252.3,143.1,252.7,143.1z"/>
		<path class="st1" d="M260.9,144c-1,0-1.8-0.3-2.3-0.9c-0.6-0.6-0.8-1.5-0.8-2.7c0-1.2,0.3-2.1,0.8-2.7c0.6-0.6,1.4-0.9,2.4-0.9
			c0.3,0,0.7,0,1,0.1c0.3,0.1,0.6,0.2,0.8,0.3l-0.3,1c-0.6-0.2-1.1-0.3-1.5-0.3c-0.7,0-1.2,0.2-1.6,0.7s-0.5,1.1-0.5,2
			c0,0.8,0.2,1.5,0.5,1.9s0.8,0.7,1.5,0.7c0.6,0,1.2-0.1,1.8-0.4v1C262.2,143.8,261.6,144,260.9,144z"/>
		<path class="st1" d="M266.7,143c0.1,0,0.3,0,0.5,0c0.2,0,0.3-0.1,0.5-0.1v0.9c-0.1,0-0.3,0.1-0.5,0.1c-0.2,0-0.4,0.1-0.7,0.1
			c-1.4,0-2-0.7-2-2.2v-4.1h-1v-0.5l1-0.5l0.5-1.5h0.7v1.6h2v0.9h-2v4c0,0.4,0.1,0.7,0.3,0.9S266.3,143,266.7,143z"/>
		<path class="st1" d="M268.9,135c0-0.3,0.1-0.4,0.2-0.6s0.3-0.2,0.5-0.2c0.2,0,0.3,0.1,0.5,0.2c0.1,0.1,0.2,0.3,0.2,0.6
			c0,0.3-0.1,0.4-0.2,0.6c-0.1,0.1-0.3,0.2-0.5,0.2c-0.2,0-0.4-0.1-0.5-0.2S268.9,135.2,268.9,135z M270.2,143.8H269v-7h1.1V143.8z"
			/>
		<path class="st1" d="M278.4,140.3c0,1.1-0.3,2-0.9,2.7c-0.6,0.6-1.4,1-2.4,1c-0.6,0-1.2-0.1-1.7-0.4s-0.9-0.7-1.1-1.3
			c-0.3-0.6-0.4-1.2-0.4-1.9c0-1.1,0.3-2,0.9-2.6c0.6-0.6,1.4-0.9,2.4-0.9c1,0,1.8,0.3,2.3,1C278.1,138.4,278.4,139.2,278.4,140.3z
			 M273.2,140.3c0,0.9,0.2,1.5,0.5,2s0.9,0.7,1.5,0.7c0.7,0,1.2-0.2,1.5-0.7s0.5-1.1,0.5-2c0-0.9-0.2-1.5-0.5-2
			c-0.3-0.4-0.9-0.7-1.5-0.7C273.8,137.7,273.2,138.6,273.2,140.3z"/>
		<path class="st1" d="M285,143.8v-4.5c0-0.6-0.1-1-0.4-1.3s-0.6-0.4-1.2-0.4c-0.7,0-1.2,0.2-1.6,0.6c-0.3,0.4-0.5,1-0.5,1.9v3.6
			h-1.1v-7h0.9l0.2,1h0.1c0.2-0.3,0.5-0.6,0.9-0.8c0.4-0.2,0.8-0.3,1.3-0.3c0.9,0,1.5,0.2,1.9,0.6s0.6,1.1,0.6,1.9v4.5H285z"/>
		<path class="st1" d="M294.9,137.8h-1.8v6.1H292v-6.1h-1.2v-0.5l1.2-0.4v-0.4c0-0.8,0.2-1.5,0.6-1.9c0.4-0.4,0.9-0.6,1.7-0.6
			c0.4,0,0.9,0.1,1.4,0.2l-0.3,0.9c-0.4-0.1-0.7-0.2-1-0.2c-0.4,0-0.7,0.1-0.9,0.4c-0.2,0.3-0.3,0.7-0.3,1.2v0.5h1.8V137.8z"/>
		<path class="st1" d="M299.4,136.7c0.3,0,0.6,0,0.8,0.1l-0.1,1.1c-0.3-0.1-0.5-0.1-0.8-0.1c-0.4,0-0.7,0.1-1,0.3s-0.6,0.5-0.7,0.8
			s-0.3,0.8-0.3,1.2v3.7h-1.1v-7h0.9l0.1,1.3h0.1c0.3-0.5,0.6-0.8,0.9-1C298.5,136.9,298.9,136.7,299.4,136.7z"/>
		<path class="st1" d="M307.4,140.3c0,1.1-0.3,2-0.9,2.7c-0.6,0.6-1.4,1-2.4,1c-0.6,0-1.2-0.1-1.7-0.4s-0.9-0.7-1.1-1.3
			c-0.3-0.6-0.4-1.2-0.4-1.9c0-1.1,0.3-2,0.9-2.6c0.6-0.6,1.4-0.9,2.4-0.9c1,0,1.8,0.3,2.3,1C307.1,138.4,307.4,139.2,307.4,140.3z
			 M302.2,140.3c0,0.9,0.2,1.5,0.5,2s0.9,0.7,1.5,0.7c0.7,0,1.2-0.2,1.5-0.7s0.5-1.1,0.5-2c0-0.9-0.2-1.5-0.5-2
			c-0.3-0.4-0.9-0.7-1.5-0.7C302.8,137.7,302.2,138.6,302.2,140.3z"/>
		<path class="st1" d="M318.1,143.8v-4.5c0-1.1-0.5-1.7-1.4-1.7c-0.6,0-1.1,0.2-1.4,0.6s-0.5,1-0.5,1.7v3.8h-1.1v-4.5
			c0-0.5-0.1-1-0.3-1.2s-0.6-0.4-1.1-0.4c-0.6,0-1.1,0.2-1.4,0.6c-0.3,0.4-0.4,1-0.4,1.9v3.6h-1.1v-7h0.9l0.2,1h0.1
			c0.2-0.3,0.5-0.6,0.8-0.8c0.4-0.2,0.8-0.3,1.2-0.3c1.1,0,1.8,0.4,2.1,1.2h0.1c0.2-0.4,0.5-0.7,0.9-0.9c0.4-0.2,0.8-0.3,1.3-0.3
			c0.8,0,1.4,0.2,1.8,0.6s0.6,1.1,0.6,1.9v4.5H318.1z"/>
		<path class="st1" d="M219.6,153v4.5c0,0.6,0.1,1,0.4,1.3c0.3,0.3,0.6,0.4,1.2,0.4c0.7,0,1.2-0.2,1.6-0.6c0.3-0.4,0.5-1,0.5-1.9
			V153h1.1v7h-0.9l-0.2-0.9h-0.1c-0.2,0.3-0.5,0.6-0.9,0.8c-0.4,0.2-0.8,0.3-1.3,0.3c-0.8,0-1.5-0.2-1.9-0.6c-0.4-0.4-0.6-1-0.6-1.9
			V153H219.6z"/>
		<path class="st1" d="M231.1,158c0,0.7-0.2,1.2-0.7,1.5s-1.2,0.5-2,0.5c-0.9,0-1.6-0.1-2.2-0.4v-1c0.8,0.4,1.5,0.6,2.2,0.6
			c0.6,0,1-0.1,1.3-0.3c0.3-0.2,0.4-0.4,0.4-0.8c0-0.3-0.1-0.5-0.4-0.7c-0.3-0.2-0.7-0.4-1.3-0.7c-0.7-0.3-1.1-0.5-1.4-0.7
			s-0.5-0.4-0.6-0.6s-0.2-0.5-0.2-0.8c0-0.6,0.2-1,0.7-1.4s1.1-0.5,1.9-0.5c0.8,0,1.5,0.2,2.2,0.5l-0.4,0.9
			c-0.7-0.3-1.3-0.4-1.9-0.4c-0.5,0-0.8,0.1-1.1,0.2s-0.4,0.4-0.4,0.6c0,0.3,0.1,0.5,0.3,0.6s0.7,0.4,1.5,0.7c0.6,0.2,1,0.4,1.3,0.6
			s0.5,0.4,0.6,0.6C231,157.4,231.1,157.7,231.1,158z"/>
		<path class="st1" d="M232.7,151.1c0-0.3,0.1-0.4,0.2-0.6s0.3-0.2,0.5-0.2c0.2,0,0.3,0.1,0.5,0.2c0.1,0.1,0.2,0.3,0.2,0.6
			c0,0.3-0.1,0.4-0.2,0.6c-0.1,0.1-0.3,0.2-0.5,0.2c-0.2,0-0.4-0.1-0.5-0.2S232.7,151.3,232.7,151.1z M233.9,160h-1.1v-7h1.1V160z"
			/>
		<path class="st1" d="M240.9,160v-4.5c0-0.6-0.1-1-0.4-1.3s-0.6-0.4-1.2-0.4c-0.7,0-1.2,0.2-1.6,0.6c-0.3,0.4-0.5,1-0.5,1.9v3.6
			h-1.1v-7h0.9l0.2,1h0.1c0.2-0.3,0.5-0.6,0.9-0.8c0.4-0.2,0.8-0.3,1.3-0.3c0.9,0,1.5,0.2,1.9,0.6s0.6,1.1,0.6,1.9v4.5H240.9z"/>
		<path class="st1" d="M248.8,159.9l0-0.9h-0.1c-0.5,0.7-1.2,1-2.2,1c-0.9,0-1.6-0.3-2.1-0.9c-0.5-0.6-0.8-1.5-0.8-2.7
			c0-1.1,0.3-2,0.8-2.7c0.5-0.6,1.2-1,2.1-1c0.9,0,1.7,0.4,2.2,1.1h0.1l0.2-0.9h0.9v7.1c0,1-0.3,1.8-0.8,2.3
			c-0.5,0.5-1.3,0.8-2.4,0.8c-1,0-1.9-0.1-2.5-0.4v-1.1c0.7,0.4,1.5,0.5,2.6,0.5c0.6,0,1.1-0.2,1.4-0.5s0.5-0.8,0.5-1.4V159.9z
			 M246.8,159.1c0.7,0,1.2-0.2,1.5-0.6s0.5-1,0.5-1.8v-0.3c0-0.9-0.2-1.6-0.5-2c-0.3-0.4-0.8-0.6-1.6-0.6c-0.6,0-1,0.2-1.4,0.7
			c-0.3,0.5-0.5,1.1-0.5,2c0,0.9,0.2,1.5,0.5,2C245.7,158.9,246.2,159.1,246.8,159.1z"/>
		<path class="st1" d="M258.3,160.1c-1,0-1.8-0.3-2.3-0.9c-0.6-0.6-0.8-1.5-0.8-2.7c0-1.2,0.3-2.1,0.8-2.7c0.6-0.6,1.4-0.9,2.4-0.9
			c0.3,0,0.7,0,1,0.1c0.3,0.1,0.6,0.2,0.8,0.3l-0.3,1c-0.6-0.2-1.1-0.3-1.5-0.3c-0.7,0-1.2,0.2-1.6,0.7s-0.5,1.1-0.5,2
			c0,0.8,0.2,1.5,0.5,1.9s0.8,0.7,1.5,0.7c0.6,0,1.2-0.1,1.8-0.4v1C259.7,160,259.1,160.1,258.3,160.1z"/>
		<path class="st1" d="M267.8,156.5c0,1.1-0.3,2-0.9,2.7c-0.6,0.6-1.4,1-2.4,1c-0.6,0-1.2-0.1-1.7-0.4s-0.9-0.7-1.1-1.3
			c-0.3-0.6-0.4-1.2-0.4-1.9c0-1.1,0.3-2,0.9-2.6c0.6-0.6,1.4-0.9,2.4-0.9c1,0,1.8,0.3,2.3,1C267.6,154.5,267.8,155.3,267.8,156.5z
			 M262.6,156.5c0,0.9,0.2,1.5,0.5,2s0.9,0.7,1.5,0.7c0.7,0,1.2-0.2,1.5-0.7s0.5-1.1,0.5-2c0-0.9-0.2-1.5-0.5-2
			c-0.3-0.4-0.9-0.7-1.5-0.7C263.3,153.8,262.6,154.7,262.6,156.5z"/>
		<path class="st1" d="M270.7,153v4.5c0,0.6,0.1,1,0.4,1.3c0.3,0.3,0.6,0.4,1.2,0.4c0.7,0,1.2-0.2,1.6-0.6c0.3-0.4,0.5-1,0.5-1.9
			V153h1.1v7h-0.9l-0.2-0.9h-0.1c-0.2,0.3-0.5,0.6-0.9,0.8c-0.4,0.2-0.8,0.3-1.3,0.3c-0.8,0-1.5-0.2-1.9-0.6c-0.4-0.4-0.6-1-0.6-1.9
			V153H270.7z"/>
		<path class="st1" d="M281,160.1c-0.9,0-1.7-0.3-2.2-1h-0.1l0,0.3c0,0.3,0.1,0.6,0.1,0.9v2.9h-1.1V153h0.9l0.2,1h0.1
			c0.3-0.4,0.6-0.7,0.9-0.8s0.8-0.3,1.2-0.3c0.9,0,1.6,0.3,2.1,0.9c0.5,0.6,0.8,1.5,0.8,2.7c0,1.1-0.3,2-0.8,2.7
			C282.6,159.8,281.9,160.1,281,160.1z M280.8,153.8c-0.7,0-1.2,0.2-1.5,0.6c-0.3,0.4-0.5,1-0.5,1.8v0.2c0,0.9,0.2,1.6,0.5,2
			s0.8,0.6,1.5,0.6c0.6,0,1-0.2,1.4-0.7c0.3-0.5,0.5-1.1,0.5-2c0-0.9-0.2-1.5-0.5-2C281.9,154,281.4,153.8,280.8,153.8z"/>
		<path class="st1" d="M291.7,156.5c0,1.1-0.3,2-0.9,2.7c-0.6,0.6-1.4,1-2.4,1c-0.6,0-1.2-0.1-1.7-0.4s-0.9-0.7-1.1-1.3
			c-0.3-0.6-0.4-1.2-0.4-1.9c0-1.1,0.3-2,0.9-2.6c0.6-0.6,1.4-0.9,2.4-0.9c1,0,1.8,0.3,2.3,1C291.5,154.5,291.7,155.3,291.7,156.5z
			 M286.5,156.5c0,0.9,0.2,1.5,0.5,2s0.9,0.7,1.5,0.7c0.7,0,1.2-0.2,1.5-0.7s0.5-1.1,0.5-2c0-0.9-0.2-1.5-0.5-2
			c-0.3-0.4-0.9-0.7-1.5-0.7C287.2,153.8,286.5,154.7,286.5,156.5z"/>
		<path class="st1" d="M298.3,160v-4.5c0-0.6-0.1-1-0.4-1.3s-0.6-0.4-1.2-0.4c-0.7,0-1.2,0.2-1.6,0.6c-0.3,0.4-0.5,1-0.5,1.9v3.6
			h-1.1v-7h0.9l0.2,1h0.1c0.2-0.3,0.5-0.6,0.9-0.8c0.4-0.2,0.8-0.3,1.3-0.3c0.9,0,1.5,0.2,1.9,0.6s0.6,1.1,0.6,1.9v4.5H298.3z"/>
		<path class="st1" d="M306.1,158c0,0.7-0.2,1.2-0.7,1.5s-1.2,0.5-2,0.5c-0.9,0-1.6-0.1-2.2-0.4v-1c0.8,0.4,1.5,0.6,2.2,0.6
			c0.6,0,1-0.1,1.3-0.3c0.3-0.2,0.4-0.4,0.4-0.8c0-0.3-0.1-0.5-0.4-0.7c-0.3-0.2-0.7-0.4-1.3-0.7c-0.7-0.3-1.1-0.5-1.4-0.7
			s-0.5-0.4-0.6-0.6s-0.2-0.5-0.2-0.8c0-0.6,0.2-1,0.7-1.4s1.1-0.5,1.9-0.5c0.8,0,1.5,0.2,2.2,0.5l-0.4,0.9
			c-0.7-0.3-1.3-0.4-1.9-0.4c-0.5,0-0.8,0.1-1.1,0.2s-0.4,0.4-0.4,0.6c0,0.3,0.1,0.5,0.3,0.6s0.7,0.4,1.5,0.7c0.6,0.2,1,0.4,1.3,0.6
			s0.5,0.4,0.6,0.6C306.1,157.4,306.1,157.7,306.1,158z"/>
	</g>
</g>
<g>
	<path class="st1" d="M54.7,94.4h-5.6V79.1l0.1-2.5l0.1-2.7c-0.9,0.9-1.6,1.5-1.9,1.8l-3,2.4l-2.7-3.4l8.5-6.8h4.6V94.4z"/>
	<path class="st1" d="M72.8,69c0-1.8,1-2.7,3-2.7c2,0,3,0.9,3,2.7c0,0.9-0.3,1.5-0.8,2c-0.5,0.5-1.2,0.7-2.2,0.7
		C73.8,71.7,72.8,70.8,72.8,69z M78.5,94.4H73V74.2h5.5V94.4z"/>
	<path class="st1" d="M103,94.4h-5.5V82.6c0-1.5-0.3-2.6-0.8-3.3c-0.5-0.7-1.3-1.1-2.5-1.1c-1.5,0-2.7,0.5-3.3,1.5
		c-0.7,1-1,2.7-1,5.1v9.5h-5.5V74.2h4.2l0.7,2.6h0.3c0.6-1,1.5-1.7,2.5-2.2c1.1-0.5,2.3-0.7,3.7-0.7c2.3,0,4.1,0.6,5.3,1.9
		c1.2,1.3,1.8,3.1,1.8,5.5V94.4z"/>
	<path class="st1" d="M126.5,77.5c2.6,0,4.6,0.7,6.1,2.1c1.5,1.4,2.3,3.4,2.3,5.9c0,3-0.9,5.2-2.7,6.8c-1.8,1.6-4.4,2.4-7.8,2.4
		c-2.9,0-5.3-0.5-7.1-1.4v-4.8c1,0.5,2.1,0.9,3.3,1.2c1.3,0.3,2.5,0.5,3.6,0.5c3.4,0,5.1-1.4,5.1-4.2c0-2.7-1.8-4-5.3-4
		c-0.6,0-1.3,0.1-2.1,0.2c-0.8,0.1-1.4,0.3-1.9,0.4l-2.2-1.2l1-13.5H133v4.7h-9.4l-0.5,5.2l0.6-0.1
		C124.5,77.6,125.4,77.5,126.5,77.5z"/>
	<path class="st1" d="M44.5,114.6c-1.3,0-2.3-0.4-3.1-1.2c-0.7-0.8-1.1-2-1.1-3.5c0-1.5,0.4-2.7,1.1-3.5c0.7-0.8,1.8-1.2,3.2-1.2
		c0.4,0,0.9,0,1.3,0.1c0.4,0.1,0.8,0.2,1.1,0.4l-0.5,1.2c-0.8-0.3-1.4-0.4-2-0.4c-0.9,0-1.6,0.3-2,0.9c-0.4,0.6-0.7,1.4-0.7,2.6
		c0,1.1,0.2,1.9,0.7,2.5c0.4,0.6,1.1,0.9,1.9,0.9c0.8,0,1.6-0.2,2.4-0.5v1.3C46.2,114.5,45.4,114.6,44.5,114.6z"/>
	<path class="st1" d="M56.9,109.9c0,1.5-0.4,2.7-1.1,3.5s-1.8,1.3-3.1,1.3c-0.8,0-1.6-0.2-2.2-0.6c-0.6-0.4-1.1-0.9-1.5-1.7
		s-0.5-1.6-0.5-2.5c0-1.5,0.4-2.6,1.1-3.5c0.7-0.8,1.8-1.2,3.1-1.2c1.3,0,2.3,0.4,3.1,1.3C56.5,107.3,56.9,108.5,56.9,109.9z
		 M50,109.9c0,1.1,0.2,2,0.7,2.6c0.5,0.6,1.1,0.9,2,0.9c0.9,0,1.5-0.3,2-0.9c0.5-0.6,0.7-1.5,0.7-2.6s-0.2-2-0.7-2.6
		c-0.5-0.6-1.1-0.9-2-0.9C50.9,106.5,50,107.6,50,109.9z"/>
	<path class="st1" d="M65.5,114.5v-5.8c0-0.7-0.2-1.3-0.5-1.7c-0.3-0.4-0.8-0.5-1.5-0.5c-0.9,0-1.6,0.3-2,0.8
		c-0.4,0.5-0.6,1.4-0.6,2.5v4.7h-1.5v-9.1h1.2l0.2,1.2h0.1c0.3-0.4,0.7-0.8,1.2-1c0.5-0.2,1.1-0.4,1.7-0.4c1.1,0,1.9,0.3,2.5,0.8
		s0.8,1.4,0.8,2.5v5.9H65.5z"/>
	<path class="st1" d="M75.7,112c0,0.9-0.3,1.5-1,2c-0.6,0.5-1.5,0.7-2.7,0.7c-1.2,0-2.2-0.2-2.9-0.6v-1.4c1,0.5,2,0.7,2.9,0.7
		c0.8,0,1.3-0.1,1.6-0.4s0.5-0.6,0.5-1c0-0.4-0.2-0.7-0.5-0.9c-0.3-0.2-0.9-0.5-1.8-0.9c-0.9-0.3-1.5-0.6-1.8-0.9
		c-0.3-0.2-0.6-0.5-0.8-0.8c-0.2-0.3-0.2-0.7-0.2-1.1c0-0.7,0.3-1.3,0.9-1.8s1.4-0.6,2.5-0.6c1,0,2,0.2,2.9,0.6L75,107
		c-0.9-0.4-1.8-0.6-2.5-0.6c-0.6,0-1.1,0.1-1.4,0.3c-0.3,0.2-0.5,0.5-0.5,0.8c0,0.3,0.1,0.6,0.4,0.8c0.3,0.2,0.9,0.5,1.9,0.9
		c0.8,0.3,1.3,0.5,1.7,0.8c0.4,0.2,0.6,0.5,0.8,0.8S75.7,111.5,75.7,112z"/>
	<path class="st1" d="M79.3,105.4v5.9c0,0.7,0.2,1.3,0.5,1.6c0.3,0.4,0.8,0.5,1.5,0.5c0.9,0,1.6-0.3,2-0.8s0.6-1.4,0.6-2.5v-4.7h1.5
		v9.1h-1.2l-0.2-1.2H84c-0.3,0.4-0.7,0.8-1.2,1s-1.1,0.4-1.7,0.4c-1.1,0-1.9-0.3-2.5-0.8c-0.6-0.5-0.8-1.4-0.8-2.5v-6H79.3z"/>
	<path class="st1" d="M100,114.5v-5.9c0-1.4-0.6-2.2-1.9-2.2c-0.8,0-1.5,0.2-1.9,0.7s-0.6,1.2-0.6,2.3v5h-1.5v-5.9
		c0-0.7-0.2-1.3-0.5-1.6c-0.3-0.4-0.8-0.5-1.4-0.5c-0.8,0-1.5,0.3-1.8,0.8c-0.4,0.5-0.6,1.4-0.6,2.5v4.7h-1.5v-9.1h1.2l0.2,1.2h0.1
		c0.3-0.4,0.6-0.8,1.1-1c0.5-0.2,1-0.4,1.6-0.4c1.4,0,2.4,0.5,2.8,1.5h0.1c0.3-0.5,0.7-0.9,1.2-1.1c0.5-0.3,1.1-0.4,1.7-0.4
		c1,0,1.8,0.3,2.3,0.8c0.5,0.5,0.8,1.4,0.8,2.5v5.9H100z"/>
	<path class="st1" d="M108.2,114.6c-1.4,0-2.4-0.4-3.2-1.2c-0.8-0.8-1.2-2-1.2-3.4c0-1.5,0.4-2.6,1.1-3.5c0.7-0.9,1.7-1.3,2.9-1.3
		c1.1,0,2.1,0.4,2.7,1.1c0.7,0.7,1,1.7,1,3v0.9h-6.2c0,1,0.3,1.8,0.8,2.4s1.2,0.8,2.1,0.8c0.5,0,0.9,0,1.4-0.1
		c0.4-0.1,0.9-0.3,1.5-0.5v1.3c-0.5,0.2-1,0.4-1.4,0.5S108.8,114.6,108.2,114.6z M107.8,106.4c-0.7,0-1.3,0.2-1.7,0.7
		s-0.7,1.1-0.7,1.9h4.6c0-0.9-0.2-1.5-0.6-1.9S108.5,106.4,107.8,106.4z"/>
	<path class="st1" d="M118.2,105.2c0.4,0,0.8,0,1.1,0.1l-0.2,1.4c-0.3-0.1-0.7-0.1-1-0.1c-0.5,0-0.9,0.1-1.3,0.4
		c-0.4,0.3-0.7,0.6-1,1.1c-0.2,0.5-0.3,1-0.3,1.6v4.9h-1.5v-9.1h1.2l0.2,1.7h0.1c0.3-0.6,0.8-1.1,1.2-1.4S117.6,105.2,118.2,105.2z"
		/>
	<path class="st1" d="M126.9,112c0,0.9-0.3,1.5-1,2c-0.6,0.5-1.5,0.7-2.7,0.7c-1.2,0-2.2-0.2-2.9-0.6v-1.4c1,0.5,2,0.7,2.9,0.7
		c0.8,0,1.3-0.1,1.6-0.4s0.5-0.6,0.5-1c0-0.4-0.2-0.7-0.5-0.9c-0.3-0.2-0.9-0.5-1.8-0.9c-0.9-0.3-1.5-0.6-1.8-0.9
		c-0.3-0.2-0.6-0.5-0.8-0.8c-0.2-0.3-0.2-0.7-0.2-1.1c0-0.7,0.3-1.3,0.9-1.8s1.4-0.6,2.5-0.6c1,0,2,0.2,2.9,0.6l-0.5,1.2
		c-0.9-0.4-1.8-0.6-2.5-0.6c-0.6,0-1.1,0.1-1.4,0.3c-0.3,0.2-0.5,0.5-0.5,0.8c0,0.3,0.1,0.6,0.4,0.8c0.3,0.2,0.9,0.5,1.9,0.9
		c0.8,0.3,1.3,0.5,1.7,0.8c0.4,0.2,0.6,0.5,0.8,0.8S126.9,111.5,126.9,112z"/>
	<path class="st1" d="M43.7,124.5h-1.8v6.1h-1.1v-6.1h-1.2V124l1.2-0.4v-0.4c0-0.8,0.2-1.5,0.6-1.9c0.4-0.4,0.9-0.6,1.7-0.6
		c0.4,0,0.9,0.1,1.4,0.2l-0.3,0.9c-0.4-0.1-0.7-0.2-1-0.2c-0.4,0-0.7,0.1-0.9,0.4s-0.3,0.7-0.3,1.2v0.5h1.8V124.5z"/>
	<path class="st1" d="M47.9,130.7c-1,0-1.9-0.3-2.5-0.9c-0.6-0.6-0.9-1.5-0.9-2.6c0-1.1,0.3-2,0.8-2.7c0.6-0.7,1.3-1,2.2-1
		c0.9,0,1.6,0.3,2.1,0.8c0.5,0.6,0.8,1.3,0.8,2.3v0.7h-4.8c0,0.8,0.2,1.4,0.6,1.8s0.9,0.6,1.6,0.6c0.4,0,0.7,0,1.1-0.1
		c0.3-0.1,0.7-0.2,1.2-0.4v1c-0.4,0.2-0.7,0.3-1.1,0.3S48.4,130.7,47.9,130.7z M47.6,124.4c-0.5,0-1,0.2-1.3,0.5s-0.5,0.8-0.6,1.5
		h3.5c0-0.7-0.2-1.1-0.5-1.5S48.2,124.4,47.6,124.4z"/>
	<path class="st1" d="M55.3,130.7c-1,0-1.9-0.3-2.5-0.9c-0.6-0.6-0.9-1.5-0.9-2.6c0-1.1,0.3-2,0.8-2.7c0.6-0.7,1.3-1,2.2-1
		c0.9,0,1.6,0.3,2.1,0.8c0.5,0.6,0.8,1.3,0.8,2.3v0.7h-4.8c0,0.8,0.2,1.4,0.6,1.8s0.9,0.6,1.6,0.6c0.4,0,0.7,0,1.1-0.1
		c0.3-0.1,0.7-0.2,1.2-0.4v1c-0.4,0.2-0.7,0.3-1.1,0.3C56.1,130.7,55.7,130.7,55.3,130.7z M55,124.4c-0.5,0-1,0.2-1.3,0.5
		s-0.5,0.8-0.6,1.5h3.5c0-0.7-0.2-1.1-0.5-1.5S55.5,124.4,55,124.4z"/>
	<path class="st1" d="M60.8,130.6h-1.1v-9.9h1.1V130.6z"/>
	<path class="st1" d="M70.7,130.6l-0.2-1h-0.1c-0.3,0.4-0.7,0.7-1,0.9c-0.3,0.2-0.8,0.2-1.3,0.2c-0.7,0-1.2-0.2-1.6-0.5
		s-0.6-0.9-0.6-1.5c0-1.4,1.1-2.2,3.3-2.2l1.2,0V126c0-0.5-0.1-0.9-0.3-1.2c-0.2-0.3-0.6-0.4-1.1-0.4c-0.4,0-0.7,0.1-1,0.2
		c-0.3,0.1-0.6,0.2-0.9,0.4l-0.3-0.9c0.4-0.2,0.7-0.3,1.1-0.4s0.8-0.2,1.2-0.2c0.8,0,1.5,0.2,1.9,0.6s0.6,1,0.6,1.8v4.7H70.7z
		 M68.3,129.8c0.6,0,1.1-0.2,1.5-0.5c0.4-0.3,0.5-0.8,0.5-1.5v-0.6l-1,0c-0.8,0-1.4,0.2-1.7,0.4c-0.4,0.2-0.5,0.6-0.5,1.1
		c0,0.4,0.1,0.6,0.3,0.8C67.6,129.7,67.9,129.8,68.3,129.8z"/>
	<path class="st1" d="M81.6,128.7c0,0.7-0.2,1.2-0.7,1.5c-0.5,0.4-1.2,0.5-2.1,0.5c-0.9,0-1.6-0.1-2.2-0.4v-1
		c0.8,0.4,1.5,0.6,2.2,0.6c0.6,0,1-0.1,1.3-0.3s0.4-0.4,0.4-0.7c0-0.3-0.1-0.5-0.4-0.7c-0.3-0.2-0.7-0.4-1.3-0.7
		c-0.7-0.3-1.1-0.5-1.4-0.7c-0.3-0.2-0.5-0.4-0.6-0.6c-0.1-0.2-0.2-0.5-0.2-0.8c0-0.6,0.2-1,0.7-1.4c0.5-0.3,1.1-0.5,1.9-0.5
		c0.8,0,1.5,0.2,2.2,0.5l-0.4,0.9c-0.7-0.3-1.3-0.4-1.9-0.4c-0.5,0-0.8,0.1-1.1,0.2c-0.2,0.2-0.4,0.4-0.4,0.6c0,0.3,0.1,0.5,0.3,0.6
		c0.2,0.2,0.7,0.4,1.5,0.7c0.6,0.2,1,0.4,1.3,0.6c0.3,0.2,0.5,0.4,0.6,0.6C81.5,128.1,81.6,128.3,81.6,128.7z"/>
	<path class="st1" d="M86.2,130.7c-1,0-1.9-0.3-2.5-0.9c-0.6-0.6-0.9-1.5-0.9-2.6c0-1.1,0.3-2,0.8-2.7c0.6-0.7,1.3-1,2.2-1
		c0.9,0,1.6,0.3,2.1,0.8c0.5,0.6,0.8,1.3,0.8,2.3v0.7H84c0,0.8,0.2,1.4,0.6,1.8s0.9,0.6,1.6,0.6c0.4,0,0.7,0,1.1-0.1
		c0.3-0.1,0.7-0.2,1.2-0.4v1c-0.4,0.2-0.7,0.3-1.1,0.3S86.7,130.7,86.2,130.7z M85.9,124.4c-0.5,0-1,0.2-1.3,0.5s-0.5,0.8-0.6,1.5
		h3.5c0-0.7-0.2-1.1-0.5-1.5S86.5,124.4,85.9,124.4z"/>
	<path class="st1" d="M95.3,130.6v-4.5c0-0.6-0.1-1-0.4-1.3c-0.3-0.3-0.6-0.4-1.2-0.4c-0.7,0-1.2,0.2-1.6,0.6
		c-0.3,0.4-0.5,1-0.5,1.9v3.6h-1.1v-7h0.9l0.2,1h0.1c0.2-0.3,0.5-0.6,0.9-0.8c0.4-0.2,0.8-0.3,1.3-0.3c0.9,0,1.5,0.2,1.9,0.6
		c0.4,0.4,0.6,1.1,0.6,1.9v4.5H95.3z"/>
	<path class="st1" d="M103.2,128.7c0,0.7-0.2,1.2-0.7,1.5c-0.5,0.4-1.2,0.5-2.1,0.5c-0.9,0-1.6-0.1-2.2-0.4v-1
		c0.8,0.4,1.5,0.6,2.2,0.6c0.6,0,1-0.1,1.3-0.3s0.4-0.4,0.4-0.7c0-0.3-0.1-0.5-0.4-0.7c-0.3-0.2-0.7-0.4-1.3-0.7
		c-0.7-0.3-1.1-0.5-1.4-0.7c-0.3-0.2-0.5-0.4-0.6-0.6c-0.1-0.2-0.2-0.5-0.2-0.8c0-0.6,0.2-1,0.7-1.4c0.5-0.3,1.1-0.5,1.9-0.5
		c0.8,0,1.5,0.2,2.2,0.5l-0.4,0.9c-0.7-0.3-1.3-0.4-1.9-0.4c-0.5,0-0.8,0.1-1.1,0.2c-0.2,0.2-0.4,0.4-0.4,0.6c0,0.3,0.1,0.5,0.3,0.6
		c0.2,0.2,0.7,0.4,1.5,0.7c0.6,0.2,1,0.4,1.3,0.6c0.3,0.2,0.5,0.4,0.6,0.6C103.1,128.1,103.2,128.3,103.2,128.7z"/>
	<path class="st1" d="M107.8,130.7c-1,0-1.9-0.3-2.5-0.9c-0.6-0.6-0.9-1.5-0.9-2.6c0-1.1,0.3-2,0.8-2.7c0.6-0.7,1.3-1,2.2-1
		c0.9,0,1.6,0.3,2.1,0.8c0.5,0.6,0.8,1.3,0.8,2.3v0.7h-4.8c0,0.8,0.2,1.4,0.6,1.8s0.9,0.6,1.6,0.6c0.4,0,0.7,0,1.1-0.1
		c0.3-0.1,0.7-0.2,1.2-0.4v1c-0.4,0.2-0.7,0.3-1.1,0.3S108.3,130.7,107.8,130.7z M107.5,124.4c-0.5,0-1,0.2-1.3,0.5
		s-0.5,0.8-0.6,1.5h3.5c0-0.7-0.2-1.1-0.5-1.5S108.1,124.4,107.5,124.4z"/>
	<path class="st1" d="M121.6,127.1c0,1.1-0.3,2-0.9,2.7c-0.6,0.6-1.4,1-2.4,1c-0.6,0-1.2-0.1-1.7-0.4c-0.5-0.3-0.9-0.7-1.1-1.3
		s-0.4-1.2-0.4-1.9c0-1.1,0.3-2,0.9-2.6c0.6-0.6,1.4-0.9,2.4-0.9c1,0,1.8,0.3,2.3,1C121.3,125.1,121.6,126,121.6,127.1z
		 M116.3,127.1c0,0.9,0.2,1.5,0.5,2c0.3,0.5,0.9,0.7,1.5,0.7c0.7,0,1.2-0.2,1.5-0.7c0.3-0.5,0.5-1.1,0.5-2s-0.2-1.5-0.5-2
		c-0.3-0.4-0.9-0.7-1.5-0.7C117,124.5,116.3,125.3,116.3,127.1z"/>
	<path class="st1" d="M126.6,124.5h-1.8v6.1h-1.1v-6.1h-1.2V124l1.2-0.4v-0.4c0-0.8,0.2-1.5,0.6-1.9c0.4-0.4,0.9-0.6,1.7-0.6
		c0.4,0,0.9,0.1,1.4,0.2l-0.3,0.9c-0.4-0.1-0.7-0.2-1-0.2c-0.4,0-0.7,0.1-0.9,0.4c-0.2,0.3-0.3,0.7-0.3,1.2v0.5h1.8V124.5z"/>
	<path class="st1" d="M132.8,130.6l-2.6-7h1.2l1.5,4.1c0.3,0.8,0.5,1.4,0.6,1.8h0.1c0-0.1,0-0.1,0-0.2c0-0.1,0-0.1,0.1-0.2
		c0-0.1,0.2-0.6,0.5-1.4l1.5-4.1h1.2l-2.6,7H132.8z"/>
	<path class="st1" d="M137.8,121.7c0-0.3,0.1-0.4,0.2-0.6c0.1-0.1,0.3-0.2,0.5-0.2c0.2,0,0.3,0.1,0.5,0.2c0.1,0.1,0.2,0.3,0.2,0.6
		c0,0.2-0.1,0.4-0.2,0.6c-0.1,0.1-0.3,0.2-0.5,0.2c-0.2,0-0.4-0.1-0.5-0.2C137.8,122.2,137.8,122,137.8,121.7z M139,130.6h-1.1v-7
		h1.1V130.6z"/>
	<path class="st1" d="M144,130.7c-1,0-1.8-0.3-2.3-0.9c-0.6-0.6-0.8-1.5-0.8-2.6c0-1.2,0.3-2.1,0.8-2.7c0.6-0.6,1.4-0.9,2.4-0.9
		c0.3,0,0.7,0,1,0.1c0.3,0.1,0.6,0.2,0.8,0.3l-0.3,1c-0.6-0.2-1.1-0.3-1.5-0.3c-0.7,0-1.2,0.2-1.6,0.7c-0.3,0.4-0.5,1.1-0.5,2
		c0,0.8,0.2,1.5,0.5,1.9c0.3,0.4,0.8,0.7,1.5,0.7c0.6,0,1.2-0.1,1.8-0.4v1C145.3,130.6,144.7,130.7,144,130.7z"/>
	<path class="st1" d="M149.8,129.8c0.1,0,0.3,0,0.5,0c0.2,0,0.3-0.1,0.5-0.1v0.9c-0.1,0-0.3,0.1-0.5,0.1c-0.2,0-0.4,0.1-0.7,0.1
		c-1.4,0-2-0.7-2-2.2v-4.1h-1V124l1-0.5l0.5-1.5h0.7v1.6h2v0.9h-2v4c0,0.4,0.1,0.7,0.3,0.9C149.2,129.7,149.4,129.8,149.8,129.8z"/>
	<path class="st1" d="M158.2,127.1c0,1.1-0.3,2-0.9,2.7c-0.6,0.6-1.4,1-2.4,1c-0.6,0-1.2-0.1-1.7-0.4c-0.5-0.3-0.9-0.7-1.1-1.3
		s-0.4-1.2-0.4-1.9c0-1.1,0.3-2,0.9-2.6c0.6-0.6,1.4-0.9,2.4-0.9c1,0,1.8,0.3,2.3,1C157.9,125.1,158.2,126,158.2,127.1z
		 M152.9,127.1c0,0.9,0.2,1.5,0.5,2c0.3,0.5,0.9,0.7,1.5,0.7c0.7,0,1.2-0.2,1.5-0.7c0.3-0.5,0.5-1.1,0.5-2s-0.2-1.5-0.5-2
		c-0.3-0.4-0.9-0.7-1.5-0.7C153.6,124.5,152.9,125.3,152.9,127.1z"/>
	<path class="st1" d="M163.3,123.5c0.3,0,0.6,0,0.8,0.1l-0.1,1.1c-0.3-0.1-0.5-0.1-0.8-0.1c-0.4,0-0.7,0.1-1,0.3
		c-0.3,0.2-0.6,0.5-0.7,0.8c-0.2,0.4-0.3,0.8-0.3,1.2v3.7H160v-7h0.9l0.1,1.3h0.1c0.3-0.5,0.6-0.8,0.9-1
		C162.4,123.6,162.8,123.5,163.3,123.5z"/>
	<path class="st1" d="M164.3,123.6h1.2l1.5,4c0.3,0.9,0.5,1.5,0.6,1.9h0.1c0-0.2,0.1-0.4,0.3-0.9c0.1-0.4,0.2-0.8,0.3-1l1.4-4h1.2
		l-3,7.9c-0.3,0.8-0.6,1.3-1,1.7c-0.4,0.3-0.9,0.5-1.5,0.5c-0.3,0-0.6,0-0.9-0.1v-0.9c0.2,0.1,0.5,0.1,0.8,0.1
		c0.4,0,0.7-0.1,0.9-0.3c0.3-0.2,0.5-0.5,0.6-0.9l0.4-0.9L164.3,123.6z"/>
	<path class="st1" d="M46.2,146.7l-1.2-3.9c-0.1-0.3-0.3-0.9-0.5-1.8h-0.1c-0.2,0.8-0.3,1.4-0.5,1.9l-1.3,3.9h-1.3l-1.9-7h1.2
		c0.4,1.7,0.8,3,1,3.9c0.2,0.9,0.4,1.5,0.4,1.9h0.1l0.1-0.4c0.1-0.6,0.3-1.1,0.4-1.5l1.2-3.9h1.2l1.2,3.9c0,0.1,0.1,0.3,0.1,0.5
		c0,0.2,0.1,0.3,0.1,0.5c0,0.2,0.1,0.3,0.1,0.5c0,0.2,0.1,0.3,0.1,0.4h0.1c0-0.3,0.2-1,0.5-2.1l1-3.7h1.2l-1.9,7H46.2z"/>
	<path class="st1" d="M55.5,146.7v-4.5c0-0.6-0.1-1-0.4-1.3c-0.3-0.3-0.6-0.4-1.2-0.4c-0.7,0-1.2,0.2-1.6,0.6
		c-0.3,0.4-0.5,1-0.5,1.9v3.6h-1.1v-9.9h1.1v2.9c0,0.4,0,0.7-0.1,1h0.1c0.2-0.3,0.5-0.6,0.9-0.8s0.8-0.3,1.3-0.3
		c0.8,0,1.5,0.2,1.9,0.6c0.4,0.4,0.6,1.1,0.6,1.9v4.5H55.5z"/>
	<path class="st1" d="M61.7,146.8c-1,0-1.9-0.3-2.5-0.9c-0.6-0.6-0.9-1.5-0.9-2.6c0-1.1,0.3-2,0.8-2.7c0.6-0.7,1.3-1,2.2-1
		c0.9,0,1.6,0.3,2.1,0.8c0.5,0.6,0.8,1.3,0.8,2.3v0.7h-4.8c0,0.8,0.2,1.4,0.6,1.8s0.9,0.6,1.6,0.6c0.4,0,0.7,0,1.1-0.1
		c0.3-0.1,0.7-0.2,1.2-0.4v1c-0.4,0.2-0.7,0.3-1.1,0.3C62.6,146.8,62.2,146.8,61.7,146.8z M61.4,140.5c-0.5,0-1,0.2-1.3,0.5
		s-0.5,0.8-0.6,1.5h3.5c0-0.7-0.2-1.1-0.5-1.5S62,140.5,61.4,140.5z"/>
	<path class="st1" d="M70.8,146.7v-4.5c0-0.6-0.1-1-0.4-1.3c-0.3-0.3-0.6-0.4-1.2-0.4c-0.7,0-1.2,0.2-1.6,0.6
		c-0.3,0.4-0.5,1-0.5,1.9v3.6h-1.1v-7H67l0.2,1h0.1c0.2-0.3,0.5-0.6,0.9-0.8c0.4-0.2,0.8-0.3,1.3-0.3c0.9,0,1.5,0.2,1.9,0.6
		s0.6,1.1,0.6,1.9v4.5H70.8z"/>
	<path class="st1" d="M78.6,139.7v4.5c0,0.6,0.1,1,0.4,1.3c0.3,0.3,0.6,0.4,1.2,0.4c0.7,0,1.2-0.2,1.6-0.6s0.5-1,0.5-1.9v-3.6h1.1v7
		h-0.9l-0.2-0.9h-0.1c-0.2,0.3-0.5,0.6-0.9,0.8s-0.8,0.3-1.3,0.3c-0.8,0-1.5-0.2-1.9-0.6c-0.4-0.4-0.6-1-0.6-1.9v-4.6H78.6z"/>
	<path class="st1" d="M90.1,144.8c0,0.7-0.2,1.2-0.7,1.5c-0.5,0.4-1.2,0.5-2.1,0.5c-0.9,0-1.6-0.1-2.2-0.4v-1
		c0.8,0.4,1.5,0.6,2.2,0.6c0.6,0,1-0.1,1.3-0.3c0.3-0.2,0.4-0.4,0.4-0.7c0-0.3-0.1-0.5-0.4-0.7c-0.3-0.2-0.7-0.4-1.3-0.7
		c-0.7-0.3-1.1-0.5-1.4-0.7c-0.3-0.2-0.5-0.4-0.6-0.6c-0.1-0.2-0.2-0.5-0.2-0.8c0-0.6,0.2-1,0.7-1.4s1.1-0.5,1.9-0.5
		c0.8,0,1.5,0.2,2.2,0.5l-0.4,0.9c-0.7-0.3-1.3-0.4-1.9-0.4c-0.5,0-0.8,0.1-1.1,0.2c-0.2,0.2-0.4,0.4-0.4,0.6c0,0.3,0.1,0.5,0.3,0.6
		c0.2,0.2,0.7,0.4,1.5,0.7c0.6,0.2,1,0.4,1.3,0.6c0.3,0.2,0.5,0.4,0.6,0.6S90.1,144.4,90.1,144.8z"/>
	<path class="st1" d="M91.7,137.8c0-0.3,0.1-0.4,0.2-0.6c0.1-0.1,0.3-0.2,0.5-0.2c0.2,0,0.3,0.1,0.5,0.2c0.1,0.1,0.2,0.3,0.2,0.6
		c0,0.2-0.1,0.4-0.2,0.6c-0.1,0.1-0.3,0.2-0.5,0.2c-0.2,0-0.4-0.1-0.5-0.2C91.7,138.3,91.7,138.1,91.7,137.8z M92.9,146.7h-1.1v-7
		h1.1V146.7z"/>
	<path class="st1" d="M99.8,146.7v-4.5c0-0.6-0.1-1-0.4-1.3c-0.3-0.3-0.6-0.4-1.2-0.4c-0.7,0-1.2,0.2-1.6,0.6
		c-0.3,0.4-0.5,1-0.5,1.9v3.6h-1.1v-7H96l0.2,1h0.1c0.2-0.3,0.5-0.6,0.9-0.8c0.4-0.2,0.8-0.3,1.3-0.3c0.9,0,1.5,0.2,1.9,0.6
		c0.4,0.4,0.6,1.1,0.6,1.9v4.5H99.8z"/>
	<path class="st1" d="M107.8,146.6l0-0.9h-0.1c-0.5,0.7-1.2,1-2.2,1c-0.9,0-1.6-0.3-2.1-0.9c-0.5-0.6-0.8-1.5-0.8-2.7
		c0-1.1,0.3-2,0.8-2.7c0.5-0.6,1.2-1,2.1-1c0.9,0,1.7,0.4,2.2,1.1h0.1l0.2-0.9h0.9v7.1c0,1-0.3,1.8-0.8,2.3
		c-0.5,0.5-1.3,0.8-2.4,0.8c-1,0-1.9-0.1-2.5-0.4v-1.1c0.7,0.4,1.5,0.5,2.6,0.5c0.6,0,1.1-0.2,1.4-0.5c0.3-0.3,0.5-0.8,0.5-1.4
		V146.6z M105.8,145.9c0.7,0,1.2-0.2,1.5-0.6c0.3-0.4,0.5-1,0.5-1.8v-0.3c0-0.9-0.2-1.6-0.5-2s-0.8-0.6-1.6-0.6
		c-0.6,0-1,0.2-1.4,0.7c-0.3,0.5-0.5,1.1-0.5,2c0,0.9,0.2,1.5,0.5,2C104.7,145.7,105.2,145.9,105.8,145.9z"/>
	<path class="st1" d="M117.3,146.8c-1,0-1.8-0.3-2.3-0.9c-0.6-0.6-0.8-1.5-0.8-2.6c0-1.2,0.3-2.1,0.8-2.7c0.6-0.6,1.4-0.9,2.4-0.9
		c0.3,0,0.7,0,1,0.1c0.3,0.1,0.6,0.2,0.8,0.3l-0.3,1c-0.6-0.2-1.1-0.3-1.5-0.3c-0.7,0-1.2,0.2-1.6,0.7c-0.3,0.4-0.5,1.1-0.5,2
		c0,0.8,0.2,1.5,0.5,1.9c0.3,0.4,0.8,0.7,1.5,0.7c0.6,0,1.2-0.1,1.8-0.4v1C118.6,146.7,118,146.8,117.3,146.8z"/>
	<path class="st1" d="M126.8,143.2c0,1.1-0.3,2-0.9,2.7s-1.4,1-2.4,1c-0.6,0-1.2-0.1-1.7-0.4c-0.5-0.3-0.9-0.7-1.1-1.3
		c-0.3-0.6-0.4-1.2-0.4-1.9c0-1.1,0.3-2,0.9-2.6c0.6-0.6,1.4-0.9,2.4-0.9c1,0,1.8,0.3,2.3,1C126.5,141.2,126.8,142.1,126.8,143.2z
		 M121.5,143.2c0,0.9,0.2,1.5,0.5,2c0.3,0.5,0.9,0.7,1.5,0.7c0.7,0,1.2-0.2,1.5-0.7c0.3-0.5,0.5-1.1,0.5-2s-0.2-1.5-0.5-2
		c-0.3-0.4-0.9-0.7-1.5-0.7C122.2,140.6,121.5,141.4,121.5,143.2z"/>
	<path class="st1" d="M129.7,139.7v4.5c0,0.6,0.1,1,0.4,1.3c0.3,0.3,0.6,0.4,1.2,0.4c0.7,0,1.2-0.2,1.6-0.6c0.3-0.4,0.5-1,0.5-1.9
		v-3.6h1.1v7h-0.9l-0.2-0.9h-0.1c-0.2,0.3-0.5,0.6-0.9,0.8s-0.8,0.3-1.3,0.3c-0.8,0-1.5-0.2-1.9-0.6c-0.4-0.4-0.6-1-0.6-1.9v-4.6
		H129.7z"/>
	<path class="st1" d="M140,146.8c-0.9,0-1.7-0.3-2.2-1h-0.1l0,0.3c0,0.3,0.1,0.6,0.1,0.9v2.9h-1.1v-10.1h0.9l0.2,1h0.1
		c0.3-0.4,0.6-0.7,0.9-0.8s0.8-0.3,1.2-0.3c0.9,0,1.6,0.3,2.1,0.9c0.5,0.6,0.8,1.5,0.8,2.7c0,1.1-0.3,2-0.8,2.7
		C141.6,146.5,140.9,146.8,140,146.8z M139.8,140.6c-0.7,0-1.2,0.2-1.5,0.6c-0.3,0.4-0.5,1-0.5,1.8v0.2c0,0.9,0.2,1.6,0.5,2
		c0.3,0.4,0.8,0.6,1.5,0.6c0.6,0,1-0.2,1.4-0.7c0.3-0.5,0.5-1.1,0.5-2c0-0.9-0.2-1.5-0.5-2C140.8,140.8,140.4,140.6,139.8,140.6z"/>
	<path class="st1" d="M150.7,143.2c0,1.1-0.3,2-0.9,2.7c-0.6,0.6-1.4,1-2.4,1c-0.6,0-1.2-0.1-1.7-0.4c-0.5-0.3-0.9-0.7-1.1-1.3
		s-0.4-1.2-0.4-1.9c0-1.1,0.3-2,0.9-2.6c0.6-0.6,1.4-0.9,2.4-0.9c1,0,1.8,0.3,2.3,1C150.4,141.2,150.7,142.1,150.7,143.2z
		 M145.4,143.2c0,0.9,0.2,1.5,0.5,2c0.3,0.5,0.9,0.7,1.5,0.7c0.7,0,1.2-0.2,1.5-0.7c0.3-0.5,0.5-1.1,0.5-2s-0.2-1.5-0.5-2
		c-0.3-0.4-0.9-0.7-1.5-0.7C146.1,140.6,145.4,141.4,145.4,143.2z"/>
	<path class="st1" d="M157.3,146.7v-4.5c0-0.6-0.1-1-0.4-1.3c-0.3-0.3-0.6-0.4-1.2-0.4c-0.7,0-1.2,0.2-1.6,0.6
		c-0.3,0.4-0.5,1-0.5,1.9v3.6h-1.1v-7h0.9l0.2,1h0.1c0.2-0.3,0.5-0.6,0.9-0.8c0.4-0.2,0.8-0.3,1.3-0.3c0.9,0,1.5,0.2,1.9,0.6
		s0.6,1.1,0.6,1.9v4.5H157.3z"/>
	<path class="st1" d="M165.1,144.8c0,0.7-0.2,1.2-0.7,1.5c-0.5,0.4-1.2,0.5-2.1,0.5c-0.9,0-1.6-0.1-2.2-0.4v-1
		c0.8,0.4,1.5,0.6,2.2,0.6c0.6,0,1-0.1,1.3-0.3c0.3-0.2,0.4-0.4,0.4-0.7c0-0.3-0.1-0.5-0.4-0.7c-0.3-0.2-0.7-0.4-1.3-0.7
		c-0.7-0.3-1.1-0.5-1.4-0.7c-0.3-0.2-0.5-0.4-0.6-0.6c-0.1-0.2-0.2-0.5-0.2-0.8c0-0.6,0.2-1,0.7-1.4s1.1-0.5,1.9-0.5
		c0.8,0,1.5,0.2,2.2,0.5l-0.4,0.9c-0.7-0.3-1.3-0.4-1.9-0.4c-0.5,0-0.8,0.1-1.1,0.2c-0.2,0.2-0.4,0.4-0.4,0.6c0,0.3,0.1,0.5,0.3,0.6
		c0.2,0.2,0.7,0.4,1.5,0.7c0.6,0.2,1,0.4,1.3,0.6c0.3,0.2,0.5,0.4,0.6,0.6S165.1,144.4,165.1,144.8z"/>
</g>
<g>
	<g>
		<path class="st1" d="M388.1,71.4h-1.4l-5-7.7h-0.1l0,0.5c0.1,0.8,0.1,1.4,0.1,2v5.2h-1.1v-9.3h1.4l0.3,0.5l3,4.7l1.6,2.5h0.1
			c0-0.1,0-0.5-0.1-1.1c0-0.6,0-1.1,0-1.4v-5.2h1.1V71.4z"/>
		<path class="st1" d="M393.5,71.5c-1,0-1.9-0.3-2.5-0.9c-0.6-0.6-0.9-1.5-0.9-2.6c0-1.1,0.3-2,0.8-2.7c0.6-0.7,1.3-1,2.2-1
			c0.9,0,1.6,0.3,2.1,0.8c0.5,0.6,0.8,1.3,0.8,2.3v0.7h-4.8c0,0.8,0.2,1.4,0.6,1.8s0.9,0.6,1.6,0.6c0.4,0,0.7,0,1.1-0.1
			c0.3-0.1,0.7-0.2,1.2-0.4v1c-0.4,0.2-0.7,0.3-1.1,0.3C394.3,71.5,393.9,71.5,393.5,71.5z M393.2,65.3c-0.5,0-1,0.2-1.3,0.5
			s-0.5,0.8-0.6,1.5h3.5c0-0.7-0.2-1.1-0.5-1.5S393.7,65.3,393.2,65.3z"/>
		<path class="st1" d="M402.1,71.4l-0.2-1h-0.1c-0.3,0.4-0.7,0.7-1,0.9c-0.3,0.2-0.8,0.2-1.3,0.2c-0.7,0-1.2-0.2-1.6-0.5
			s-0.6-0.9-0.6-1.5c0-1.4,1.1-2.2,3.3-2.2l1.2,0v-0.4c0-0.5-0.1-0.9-0.3-1.2c-0.2-0.3-0.6-0.4-1.1-0.4c-0.4,0-0.7,0.1-1,0.2
			c-0.3,0.1-0.6,0.2-0.9,0.4l-0.3-0.9c0.4-0.2,0.7-0.3,1.1-0.4s0.8-0.2,1.2-0.2c0.8,0,1.5,0.2,1.9,0.6s0.6,1,0.6,1.8v4.7H402.1z
			 M399.8,70.6c0.6,0,1.1-0.2,1.5-0.5c0.4-0.3,0.5-0.8,0.5-1.5V68l-1,0c-0.8,0-1.4,0.2-1.7,0.4c-0.4,0.2-0.5,0.6-0.5,1.1
			c0,0.4,0.1,0.6,0.3,0.8C399.1,70.5,399.4,70.6,399.8,70.6z"/>
		<path class="st1" d="M408.4,64.3c0.3,0,0.6,0,0.8,0.1l-0.1,1.1c-0.3-0.1-0.5-0.1-0.8-0.1c-0.4,0-0.7,0.1-1,0.3
			c-0.3,0.2-0.6,0.5-0.7,0.8c-0.2,0.4-0.3,0.8-0.3,1.2v3.7h-1.1v-7h0.9l0.1,1.3h0.1c0.3-0.5,0.6-0.8,0.9-1S407.9,64.3,408.4,64.3z"
			/>
		<path class="st1" d="M411.6,71.4h-1.1v-9.9h1.1V71.4z"/>
		<path class="st1" d="M412.7,64.4h1.2l1.5,4c0.3,0.9,0.5,1.5,0.6,1.9h0.1c0-0.2,0.1-0.4,0.3-0.9c0.1-0.4,0.2-0.8,0.3-1l1.4-4h1.2
			l-3,7.9c-0.3,0.8-0.6,1.3-1,1.7s-0.9,0.5-1.5,0.5c-0.3,0-0.6,0-0.9-0.1v-0.9c0.2,0.1,0.5,0.1,0.8,0.1c0.4,0,0.7-0.1,0.9-0.3
			c0.3-0.2,0.5-0.5,0.6-0.9l0.4-0.9L412.7,64.4z"/>
		<path class="st1" d="M428.6,71.4V67c0-0.6-0.1-1-0.4-1.3c-0.3-0.3-0.6-0.4-1.2-0.4c-0.7,0-1.2,0.2-1.6,0.6c-0.3,0.4-0.5,1-0.5,1.9
			v3.6h-1.1v-9.9h1.1v2.9c0,0.4,0,0.7-0.1,1h0.1c0.2-0.3,0.5-0.6,0.9-0.8s0.8-0.3,1.3-0.3c0.8,0,1.5,0.2,1.9,0.6
			c0.4,0.4,0.6,1.1,0.6,1.9v4.5H428.6z"/>
		<path class="st1" d="M436.2,71.4l-0.2-1h-0.1c-0.3,0.4-0.7,0.7-1,0.9c-0.3,0.2-0.8,0.2-1.3,0.2c-0.7,0-1.2-0.2-1.6-0.5
			c-0.4-0.4-0.6-0.9-0.6-1.5c0-1.4,1.1-2.2,3.3-2.2l1.2,0v-0.4c0-0.5-0.1-0.9-0.3-1.2c-0.2-0.3-0.6-0.4-1.1-0.4
			c-0.4,0-0.7,0.1-1,0.2c-0.3,0.1-0.6,0.2-0.9,0.4l-0.3-0.9c0.4-0.2,0.7-0.3,1.1-0.4c0.4-0.1,0.8-0.2,1.2-0.2c0.8,0,1.5,0.2,1.9,0.6
			c0.4,0.4,0.6,1,0.6,1.8v4.7H436.2z M433.8,70.6c0.6,0,1.1-0.2,1.5-0.5c0.4-0.3,0.5-0.8,0.5-1.5V68l-1,0c-0.8,0-1.4,0.2-1.7,0.4
			c-0.4,0.2-0.5,0.6-0.5,1.1c0,0.4,0.1,0.6,0.3,0.8C433.1,70.5,433.4,70.6,433.8,70.6z"/>
		<path class="st1" d="M440.3,71.4h-1.1v-9.9h1.1V71.4z"/>
		<path class="st1" d="M445.7,65.3H444v6.1h-1.1v-6.1h-1.2v-0.5l1.2-0.4V64c0-0.8,0.2-1.5,0.6-1.9c0.4-0.4,0.9-0.6,1.7-0.6
			c0.4,0,0.9,0.1,1.4,0.2l-0.3,0.9c-0.4-0.1-0.7-0.2-1-0.2c-0.4,0-0.7,0.1-0.9,0.4c-0.2,0.3-0.3,0.7-0.3,1.2v0.5h1.8V65.3z"/>
		<path class="st1" d="M456.4,67.9c0,1.1-0.3,2-0.9,2.7c-0.6,0.6-1.4,1-2.4,1c-0.6,0-1.2-0.1-1.7-0.4c-0.5-0.3-0.9-0.7-1.1-1.3
			s-0.4-1.2-0.4-1.9c0-1.1,0.3-2,0.9-2.6c0.6-0.6,1.4-0.9,2.4-0.9c1,0,1.8,0.3,2.3,1C456.1,65.9,456.4,66.8,456.4,67.9z M451.2,67.9
			c0,0.9,0.2,1.5,0.5,2c0.3,0.5,0.9,0.7,1.5,0.7c0.7,0,1.2-0.2,1.5-0.7c0.3-0.5,0.5-1.1,0.5-2s-0.2-1.5-0.5-2
			c-0.3-0.4-0.9-0.7-1.5-0.7C451.8,65.3,451.2,66.2,451.2,67.9z"/>
		<path class="st1" d="M461.5,65.3h-1.8v6.1h-1.1v-6.1h-1.2v-0.5l1.2-0.4V64c0-0.8,0.2-1.5,0.6-1.9c0.4-0.4,0.9-0.6,1.7-0.6
			c0.4,0,0.9,0.1,1.4,0.2l-0.3,0.9c-0.4-0.1-0.7-0.2-1-0.2c-0.4,0-0.7,0.1-0.9,0.4c-0.2,0.3-0.3,0.7-0.3,1.2v0.5h1.8V65.3z"/>
		<path class="st1" d="M468.4,70.6c0.1,0,0.3,0,0.5,0s0.3-0.1,0.5-0.1v0.9c-0.1,0-0.3,0.1-0.5,0.1c-0.2,0-0.4,0.1-0.7,0.1
			c-1.4,0-2-0.7-2-2.2v-4.1h-1v-0.5l1-0.5l0.5-1.5h0.7v1.6h2v0.9h-2v4c0,0.4,0.1,0.7,0.3,0.9C467.8,70.5,468.1,70.6,468.4,70.6z"/>
		<path class="st1" d="M475.5,71.4V67c0-0.6-0.1-1-0.4-1.3c-0.3-0.3-0.6-0.4-1.2-0.4c-0.7,0-1.2,0.2-1.6,0.6c-0.3,0.4-0.5,1-0.5,1.9
			v3.6h-1.1v-9.9h1.1v2.9c0,0.4,0,0.7-0.1,1h0.1c0.2-0.3,0.5-0.6,0.9-0.8s0.8-0.3,1.3-0.3c0.8,0,1.5,0.2,1.9,0.6
			c0.4,0.4,0.6,1.1,0.6,1.9v4.5H475.5z"/>
		<path class="st1" d="M481.8,71.5c-1,0-1.9-0.3-2.5-0.9c-0.6-0.6-0.9-1.5-0.9-2.6c0-1.1,0.3-2,0.8-2.7c0.6-0.7,1.3-1,2.2-1
			c0.9,0,1.6,0.3,2.1,0.8c0.5,0.6,0.8,1.3,0.8,2.3v0.7h-4.8c0,0.8,0.2,1.4,0.6,1.8s0.9,0.6,1.6,0.6c0.4,0,0.7,0,1.1-0.1
			c0.3-0.1,0.7-0.2,1.2-0.4v1c-0.4,0.2-0.7,0.3-1.1,0.3S482.2,71.5,481.8,71.5z M481.5,65.3c-0.5,0-1,0.2-1.3,0.5s-0.5,0.8-0.6,1.5
			h3.5c0-0.7-0.2-1.1-0.5-1.5S482,65.3,481.5,65.3z"/>
		<path class="st1" d="M389.4,95.5h-3.6v-9.9l0-1.6l0.1-1.8c-0.6,0.6-1,1-1.3,1.2l-2,1.6l-1.7-2.2l5.5-4.4h3V95.5z"/>
		<path class="st1" d="M400.1,78.2c1.6,0,3,0.4,4,1.1s1.5,1.8,1.5,3c0,0.9-0.2,1.7-0.7,2.3s-1.3,1.3-2.3,1.8
			c1.3,0.7,2.2,1.4,2.8,2.2s0.8,1.6,0.8,2.5c0,1.4-0.6,2.5-1.7,3.4s-2.6,1.3-4.3,1.3c-1.9,0-3.3-0.4-4.4-1.2s-1.6-1.9-1.6-3.4
			c0-1,0.3-1.8,0.8-2.6s1.4-1.4,2.5-2c-1-0.6-1.7-1.3-2.1-2s-0.6-1.5-0.6-2.3c0-1.2,0.5-2.2,1.5-3S398.5,78.2,400.1,78.2z M397.4,91
			c0,0.7,0.2,1.2,0.7,1.6s1.1,0.6,1.9,0.6c0.9,0,1.6-0.2,2-0.6s0.7-0.9,0.7-1.5c0-0.5-0.2-1-0.7-1.5s-1.2-0.9-2.2-1.5
			C398.3,88.8,397.4,89.8,397.4,91z M400.1,80.8c-0.6,0-1.1,0.2-1.5,0.5S398,82,398,82.6c0,0.5,0.2,0.9,0.5,1.3s0.8,0.8,1.6,1.1
			c0.8-0.4,1.3-0.7,1.6-1.1s0.5-0.8,0.5-1.3c0-0.5-0.2-1-0.6-1.3S400.7,80.8,400.1,80.8z"/>
		<path class="st1" d="M407.7,90.6v-2.9h6.3v2.9H407.7z"/>
		<path class="st1" d="M426.9,82.2c0,1.1-0.3,2-1,2.7s-1.6,1.3-2.7,1.5v0.1c1.4,0.2,2.4,0.6,3.1,1.3s1.1,1.6,1.1,2.7
			c0,1.6-0.6,2.9-1.8,3.8s-2.9,1.4-5.1,1.4c-1.9,0-3.5-0.3-4.9-0.9v-3.1c0.7,0.3,1.4,0.6,2.2,0.8s1.6,0.3,2.4,0.3
			c1.2,0,2.1-0.2,2.6-0.6s0.9-1.1,0.9-2c0-0.8-0.3-1.4-1-1.7s-1.7-0.5-3.1-0.5h-1.3v-2.8h1.3c1.3,0,2.3-0.2,2.9-0.5s0.9-0.9,0.9-1.8
			c0-1.3-0.8-1.9-2.4-1.9c-0.6,0-1.1,0.1-1.7,0.3s-1.2,0.5-1.9,1l-1.7-2.5c1.6-1.1,3.4-1.7,5.6-1.7c1.8,0,3.2,0.4,4.2,1.1
			S426.9,80.9,426.9,82.2z"/>
		<path class="st1" d="M441.7,92h-2.1v3.6h-3.5V92h-7.3v-2.5l7.5-11.1h3.3v10.8h2.1V92z M436.1,89.2v-2.9c0-0.5,0-1.2,0.1-2.1
			s0.1-1.5,0.1-1.6h-0.1c-0.3,0.6-0.6,1.3-1,1.9l-3.1,4.7H436.1z"/>
		<path class="st1" d="M384.9,111.6l-0.2-1h-0.1c-0.3,0.4-0.7,0.7-1,0.9c-0.3,0.2-0.8,0.2-1.3,0.2c-0.7,0-1.2-0.2-1.6-0.5
			c-0.4-0.4-0.6-0.9-0.6-1.5c0-1.4,1.1-2.2,3.3-2.2l1.2,0V107c0-0.5-0.1-0.9-0.3-1.2c-0.2-0.3-0.6-0.4-1.1-0.4c-0.4,0-0.7,0.1-1,0.2
			c-0.3,0.1-0.6,0.2-0.9,0.4l-0.3-0.9c0.4-0.2,0.7-0.3,1.1-0.4c0.4-0.1,0.8-0.2,1.2-0.2c0.8,0,1.5,0.2,1.9,0.6
			c0.4,0.4,0.6,1,0.6,1.8v4.7H384.9z M382.6,110.8c0.6,0,1.1-0.2,1.5-0.5c0.4-0.3,0.5-0.8,0.5-1.5v-0.6l-1,0c-0.8,0-1.4,0.2-1.7,0.4
			c-0.4,0.2-0.5,0.6-0.5,1.1c0,0.4,0.1,0.6,0.3,0.8C381.9,110.7,382.2,110.8,382.6,110.8z"/>
		<path class="st1" d="M392.6,111.6l0-0.9h-0.1c-0.5,0.7-1.2,1-2.2,1c-0.9,0-1.6-0.3-2.1-0.9c-0.5-0.6-0.8-1.5-0.8-2.7
			c0-1.1,0.3-2,0.8-2.7c0.5-0.6,1.2-1,2.1-1c0.9,0,1.7,0.4,2.2,1.1h0.1l0.2-0.9h0.9v7.1c0,1-0.3,1.8-0.8,2.3
			c-0.5,0.5-1.3,0.8-2.4,0.8c-1,0-1.9-0.1-2.5-0.4v-1.1c0.7,0.4,1.5,0.5,2.6,0.5c0.6,0,1.1-0.2,1.4-0.5c0.3-0.3,0.5-0.8,0.5-1.4
			V111.6z M390.6,110.8c0.7,0,1.2-0.2,1.5-0.6c0.3-0.4,0.5-1,0.5-1.8v-0.3c0-0.9-0.2-1.6-0.5-2c-0.3-0.4-0.8-0.6-1.6-0.6
			c-0.6,0-1,0.2-1.4,0.7c-0.3,0.5-0.5,1.1-0.5,2c0,0.9,0.2,1.5,0.5,2C389.5,110.6,389.9,110.8,390.6,110.8z"/>
		<path class="st1" d="M398.9,111.8c-1,0-1.9-0.3-2.5-0.9c-0.6-0.6-0.9-1.5-0.9-2.6c0-1.1,0.3-2,0.8-2.7c0.6-0.7,1.3-1,2.2-1
			c0.9,0,1.6,0.3,2.1,0.8c0.5,0.6,0.8,1.3,0.8,2.3v0.7h-4.8c0,0.8,0.2,1.4,0.6,1.8s0.9,0.6,1.6,0.6c0.4,0,0.7,0,1.1-0.1
			c0.3-0.1,0.7-0.2,1.2-0.4v1c-0.4,0.2-0.7,0.3-1.1,0.3S399.3,111.8,398.9,111.8z M398.6,105.5c-0.5,0-1,0.2-1.3,0.5
			s-0.5,0.8-0.6,1.5h3.5c0-0.7-0.2-1.1-0.5-1.5S399.1,105.5,398.6,105.5z"/>
		<path class="st1" d="M411.3,111.6l0-0.9h-0.1c-0.5,0.7-1.2,1-2.2,1c-0.9,0-1.6-0.3-2.1-0.9c-0.5-0.6-0.8-1.5-0.8-2.7
			c0-1.1,0.3-2,0.8-2.7c0.5-0.6,1.2-1,2.1-1c0.9,0,1.7,0.4,2.2,1.1h0.1l0.2-0.9h0.9v7.1c0,1-0.3,1.8-0.8,2.3
			c-0.5,0.5-1.3,0.8-2.4,0.8c-1,0-1.9-0.1-2.5-0.4v-1.1c0.7,0.4,1.5,0.5,2.6,0.5c0.6,0,1.1-0.2,1.4-0.5c0.3-0.3,0.5-0.8,0.5-1.4
			V111.6z M409.3,110.8c0.7,0,1.2-0.2,1.5-0.6c0.3-0.4,0.5-1,0.5-1.8v-0.3c0-0.9-0.2-1.6-0.5-2s-0.8-0.6-1.6-0.6
			c-0.6,0-1,0.2-1.4,0.7c-0.3,0.5-0.5,1.1-0.5,2c0,0.9,0.2,1.5,0.5,2C408.2,110.6,408.7,110.8,409.3,110.8z"/>
		<path class="st1" d="M417.9,104.5c0.3,0,0.6,0,0.8,0.1l-0.1,1.1c-0.3-0.1-0.5-0.1-0.8-0.1c-0.4,0-0.7,0.1-1,0.3
			c-0.3,0.2-0.6,0.5-0.7,0.8c-0.2,0.4-0.3,0.8-0.3,1.2v3.7h-1.1v-7h0.9l0.1,1.3h0.1c0.3-0.5,0.6-0.8,0.9-1S417.4,104.5,417.9,104.5z
			"/>
		<path class="st1" d="M425.9,108.1c0,1.1-0.3,2-0.9,2.7c-0.6,0.6-1.4,1-2.4,1c-0.6,0-1.2-0.1-1.7-0.4c-0.5-0.3-0.9-0.7-1.1-1.3
			s-0.4-1.2-0.4-1.9c0-1.1,0.3-2,0.9-2.6c0.6-0.6,1.4-0.9,2.4-0.9c1,0,1.8,0.3,2.3,1C425.6,106.1,425.9,107,425.9,108.1z
			 M420.7,108.1c0,0.9,0.2,1.5,0.5,2c0.3,0.5,0.9,0.7,1.5,0.7c0.7,0,1.2-0.2,1.5-0.7c0.3-0.5,0.5-1.1,0.5-2s-0.2-1.5-0.5-2
			c-0.3-0.4-0.9-0.7-1.5-0.7C421.3,105.5,420.7,106.4,420.7,108.1z"/>
		<path class="st1" d="M428.8,104.7v4.5c0,0.6,0.1,1,0.4,1.3c0.3,0.3,0.6,0.4,1.2,0.4c0.7,0,1.2-0.2,1.6-0.6s0.5-1,0.5-1.9v-3.6h1.1
			v7h-0.9l-0.2-0.9h-0.1c-0.2,0.3-0.5,0.6-0.9,0.8s-0.8,0.3-1.3,0.3c-0.8,0-1.5-0.2-1.9-0.6c-0.4-0.4-0.6-1-0.6-1.9v-4.6H428.8z"/>
		<path class="st1" d="M439.1,111.8c-0.9,0-1.7-0.3-2.2-1h-0.1l0,0.3c0,0.3,0.1,0.6,0.1,0.9v2.9h-1.1v-10.1h0.9l0.2,1h0.1
			c0.3-0.4,0.6-0.7,0.9-0.8s0.8-0.3,1.2-0.3c0.9,0,1.6,0.3,2.1,0.9c0.5,0.6,0.8,1.5,0.8,2.7c0,1.1-0.3,2-0.8,2.7
			S440,111.8,439.1,111.8z M438.9,105.5c-0.7,0-1.2,0.2-1.5,0.6c-0.3,0.4-0.5,1-0.5,1.8v0.2c0,0.9,0.2,1.6,0.5,2
			c0.3,0.4,0.8,0.6,1.5,0.6c0.6,0,1-0.2,1.4-0.7c0.3-0.5,0.5-1.1,0.5-2c0-0.9-0.2-1.5-0.5-2C439.9,105.7,439.5,105.5,438.9,105.5z"
			/>
		<path class="st1" d="M448.2,104.7v4.5c0,0.6,0.1,1,0.4,1.3c0.3,0.3,0.6,0.4,1.2,0.4c0.7,0,1.2-0.2,1.6-0.6s0.5-1,0.5-1.9v-3.6h1.1
			v7H452l-0.2-0.9h-0.1c-0.2,0.3-0.5,0.6-0.9,0.8s-0.8,0.3-1.3,0.3c-0.8,0-1.5-0.2-1.9-0.6c-0.4-0.4-0.6-1-0.6-1.9v-4.6H448.2z"/>
		<path class="st1" d="M459.7,109.7c0,0.7-0.2,1.2-0.7,1.5c-0.5,0.4-1.2,0.5-2.1,0.5c-0.9,0-1.6-0.1-2.2-0.4v-1
			c0.8,0.4,1.5,0.6,2.2,0.6c0.6,0,1-0.1,1.3-0.3c0.3-0.2,0.4-0.4,0.4-0.7c0-0.3-0.1-0.5-0.4-0.7c-0.3-0.2-0.7-0.4-1.3-0.7
			c-0.7-0.3-1.1-0.5-1.4-0.7c-0.3-0.2-0.5-0.4-0.6-0.6c-0.1-0.2-0.2-0.5-0.2-0.8c0-0.6,0.2-1,0.7-1.4s1.1-0.5,1.9-0.5
			c0.8,0,1.5,0.2,2.2,0.5l-0.4,0.9c-0.7-0.3-1.3-0.4-1.9-0.4c-0.5,0-0.8,0.1-1.1,0.2c-0.2,0.2-0.4,0.4-0.4,0.6
			c0,0.3,0.1,0.5,0.3,0.6c0.2,0.2,0.7,0.4,1.5,0.7c0.6,0.2,1,0.4,1.3,0.6c0.3,0.2,0.5,0.4,0.6,0.6S459.7,109.4,459.7,109.7z"/>
		<path class="st1" d="M461.3,102.8c0-0.3,0.1-0.4,0.2-0.6c0.1-0.1,0.3-0.2,0.5-0.2c0.2,0,0.3,0.1,0.5,0.2c0.1,0.1,0.2,0.3,0.2,0.6
			c0,0.2-0.1,0.4-0.2,0.6c-0.1,0.1-0.3,0.2-0.5,0.2c-0.2,0-0.4-0.1-0.5-0.2C461.4,103.2,461.3,103,461.3,102.8z M462.5,111.6h-1.1
			v-7h1.1V111.6z"/>
		<path class="st1" d="M469.5,111.6v-4.5c0-0.6-0.1-1-0.4-1.3c-0.3-0.3-0.6-0.4-1.2-0.4c-0.7,0-1.2,0.2-1.6,0.6
			c-0.3,0.4-0.5,1-0.5,1.9v3.6h-1.1v-7h0.9l0.2,1h0.1c0.2-0.3,0.5-0.6,0.9-0.8c0.4-0.2,0.8-0.3,1.3-0.3c0.9,0,1.5,0.2,1.9,0.6
			c0.4,0.4,0.6,1.1,0.6,1.9v4.5H469.5z"/>
		<path class="st1" d="M477.4,111.6l0-0.9h-0.1c-0.5,0.7-1.2,1-2.2,1c-0.9,0-1.6-0.3-2.1-0.9c-0.5-0.6-0.8-1.5-0.8-2.7
			c0-1.1,0.3-2,0.8-2.7c0.5-0.6,1.2-1,2.1-1c0.9,0,1.7,0.4,2.2,1.1h0.1l0.2-0.9h0.9v7.1c0,1-0.3,1.8-0.8,2.3
			c-0.5,0.5-1.3,0.8-2.4,0.8c-1,0-1.9-0.1-2.5-0.4v-1.1c0.7,0.4,1.5,0.5,2.6,0.5c0.6,0,1.1-0.2,1.4-0.5c0.3-0.3,0.5-0.8,0.5-1.4
			V111.6z M475.4,110.8c0.7,0,1.2-0.2,1.5-0.6c0.3-0.4,0.5-1,0.5-1.8v-0.3c0-0.9-0.2-1.6-0.5-2s-0.8-0.6-1.6-0.6
			c-0.6,0-1,0.2-1.4,0.7c-0.3,0.5-0.5,1.1-0.5,2c0,0.9,0.2,1.5,0.5,2C474.4,110.6,474.8,110.8,475.4,110.8z"/>
		<path class="st1" d="M383.4,127.9c-1,0-1.8-0.3-2.3-0.9c-0.6-0.6-0.8-1.5-0.8-2.6c0-1.2,0.3-2.1,0.8-2.7c0.6-0.6,1.4-0.9,2.4-0.9
			c0.3,0,0.7,0,1,0.1c0.3,0.1,0.6,0.2,0.8,0.3l-0.3,1c-0.6-0.2-1.1-0.3-1.5-0.3c-0.7,0-1.2,0.2-1.6,0.7c-0.3,0.4-0.5,1.1-0.5,2
			c0,0.8,0.2,1.5,0.5,1.9c0.3,0.4,0.8,0.7,1.5,0.7c0.6,0,1.2-0.1,1.8-0.4v1C384.7,127.7,384.1,127.9,383.4,127.9z"/>
		<path class="st1" d="M392.9,124.2c0,1.1-0.3,2-0.9,2.7s-1.4,1-2.4,1c-0.6,0-1.2-0.1-1.7-0.4c-0.5-0.3-0.9-0.7-1.1-1.3
			c-0.3-0.6-0.4-1.2-0.4-1.9c0-1.1,0.3-2,0.9-2.6c0.6-0.6,1.4-0.9,2.4-0.9c1,0,1.8,0.3,2.3,1C392.6,122.3,392.9,123.1,392.9,124.2z
			 M387.6,124.2c0,0.9,0.2,1.5,0.5,2c0.3,0.5,0.9,0.7,1.5,0.7c0.7,0,1.2-0.2,1.5-0.7c0.3-0.5,0.5-1.1,0.5-2s-0.2-1.5-0.5-2
			c-0.3-0.4-0.9-0.7-1.5-0.7C388.3,121.6,387.6,122.5,387.6,124.2z"/>
		<path class="st1" d="M395.8,120.8v4.5c0,0.6,0.1,1,0.4,1.3c0.3,0.3,0.6,0.4,1.2,0.4c0.7,0,1.2-0.2,1.6-0.6c0.3-0.4,0.5-1,0.5-1.9
			v-3.6h1.1v7h-0.9l-0.2-0.9h-0.1c-0.2,0.3-0.5,0.6-0.9,0.8s-0.8,0.3-1.3,0.3c-0.8,0-1.5-0.2-1.9-0.6c-0.4-0.4-0.6-1-0.6-1.9v-4.6
			H395.8z"/>
		<path class="st1" d="M406.1,127.9c-0.9,0-1.7-0.3-2.2-1h-0.1l0,0.3c0,0.3,0.1,0.6,0.1,0.9v2.9h-1.1v-10.1h0.9l0.2,1h0.1
			c0.3-0.4,0.6-0.7,0.9-0.8s0.8-0.3,1.2-0.3c0.9,0,1.6,0.3,2.1,0.9c0.5,0.6,0.8,1.5,0.8,2.7c0,1.1-0.3,2-0.8,2.7
			C407.7,127.5,407,127.9,406.1,127.9z M405.9,121.6c-0.7,0-1.2,0.2-1.5,0.6c-0.3,0.4-0.5,1-0.5,1.8v0.2c0,0.9,0.2,1.6,0.5,2
			c0.3,0.4,0.8,0.6,1.5,0.6c0.6,0,1-0.2,1.4-0.7c0.3-0.5,0.5-1.1,0.5-2c0-0.9-0.2-1.5-0.5-2C406.9,121.8,406.5,121.6,405.9,121.6z"
			/>
		<path class="st1" d="M416.8,124.2c0,1.1-0.3,2-0.9,2.7c-0.6,0.6-1.4,1-2.4,1c-0.6,0-1.2-0.1-1.7-0.4c-0.5-0.3-0.9-0.7-1.1-1.3
			s-0.4-1.2-0.4-1.9c0-1.1,0.3-2,0.9-2.6c0.6-0.6,1.4-0.9,2.4-0.9c1,0,1.8,0.3,2.3,1C416.5,122.3,416.8,123.1,416.8,124.2z
			 M411.5,124.2c0,0.9,0.2,1.5,0.5,2c0.3,0.5,0.9,0.7,1.5,0.7c0.7,0,1.2-0.2,1.5-0.7c0.3-0.5,0.5-1.1,0.5-2s-0.2-1.5-0.5-2
			c-0.3-0.4-0.9-0.7-1.5-0.7C412.2,121.6,411.5,122.5,411.5,124.2z"/>
		<path class="st1" d="M423.4,127.7v-4.5c0-0.6-0.1-1-0.4-1.3c-0.3-0.3-0.6-0.4-1.2-0.4c-0.7,0-1.2,0.2-1.6,0.6
			c-0.3,0.4-0.5,1-0.5,1.9v3.6h-1.1v-7h0.9l0.2,1h0.1c0.2-0.3,0.5-0.6,0.9-0.8c0.4-0.2,0.8-0.3,1.3-0.3c0.9,0,1.5,0.2,1.9,0.6
			s0.6,1.1,0.6,1.9v4.5H423.4z"/>
		<path class="st1" d="M431.2,125.8c0,0.7-0.2,1.2-0.7,1.5c-0.5,0.4-1.2,0.5-2.1,0.5c-0.9,0-1.6-0.1-2.2-0.4v-1
			c0.8,0.4,1.5,0.6,2.2,0.6c0.6,0,1-0.1,1.3-0.3c0.3-0.2,0.4-0.4,0.4-0.7c0-0.3-0.1-0.5-0.4-0.7c-0.3-0.2-0.7-0.4-1.3-0.7
			c-0.7-0.3-1.1-0.5-1.4-0.7c-0.3-0.2-0.5-0.4-0.6-0.6c-0.1-0.2-0.2-0.5-0.2-0.8c0-0.6,0.2-1,0.7-1.4s1.1-0.5,1.9-0.5
			c0.8,0,1.5,0.2,2.2,0.5l-0.4,0.9c-0.7-0.3-1.3-0.4-1.9-0.4c-0.5,0-0.8,0.1-1.1,0.2c-0.2,0.2-0.4,0.4-0.4,0.6
			c0,0.3,0.1,0.5,0.3,0.6c0.2,0.2,0.7,0.4,1.5,0.7c0.6,0.2,1,0.4,1.3,0.6c0.3,0.2,0.5,0.4,0.6,0.6S431.2,125.5,431.2,125.8z"/>
		<path class="st1" d="M439.5,121.7h-1.8v6.1h-1.1v-6.1h-1.2v-0.5l1.2-0.4v-0.4c0-0.8,0.2-1.5,0.6-1.9c0.4-0.4,0.9-0.6,1.7-0.6
			c0.4,0,0.9,0.1,1.4,0.2l-0.3,0.9c-0.4-0.1-0.7-0.2-1-0.2c-0.4,0-0.7,0.1-0.9,0.4s-0.3,0.7-0.3,1.2v0.5h1.8V121.7z"/>
		<path class="st1" d="M443.7,127.9c-1,0-1.9-0.3-2.5-0.9c-0.6-0.6-0.9-1.5-0.9-2.6c0-1.1,0.3-2,0.8-2.7c0.6-0.7,1.3-1,2.2-1
			c0.9,0,1.6,0.3,2.1,0.8c0.5,0.6,0.8,1.3,0.8,2.3v0.7h-4.8c0,0.8,0.2,1.4,0.6,1.8s0.9,0.6,1.6,0.6c0.4,0,0.7,0,1.1-0.1
			c0.3-0.1,0.7-0.2,1.2-0.4v1c-0.4,0.2-0.7,0.3-1.1,0.3S444.2,127.9,443.7,127.9z M443.4,121.6c-0.5,0-1,0.2-1.3,0.5
			s-0.5,0.8-0.6,1.5h3.5c0-0.7-0.2-1.1-0.5-1.5S443.9,121.6,443.4,121.6z"/>
		<path class="st1" d="M451,127.9c-1,0-1.9-0.3-2.5-0.9c-0.6-0.6-0.9-1.5-0.9-2.6c0-1.1,0.3-2,0.8-2.7c0.6-0.7,1.3-1,2.2-1
			c0.9,0,1.6,0.3,2.1,0.8c0.5,0.6,0.8,1.3,0.8,2.3v0.7h-4.8c0,0.8,0.2,1.4,0.6,1.8s0.9,0.6,1.6,0.6c0.4,0,0.7,0,1.1-0.1
			c0.3-0.1,0.7-0.2,1.2-0.4v1c-0.4,0.2-0.7,0.3-1.1,0.3C451.9,127.8,451.5,127.9,451,127.9z M450.7,121.6c-0.5,0-1,0.2-1.3,0.5
			s-0.5,0.8-0.6,1.5h3.5c0-0.7-0.2-1.1-0.5-1.5S451.3,121.6,450.7,121.6z"/>
		<path class="st1" d="M456.5,127.7h-1.1v-9.9h1.1V127.7z"/>
		<path class="st1" d="M384.9,143.8l-0.2-1h-0.1c-0.3,0.4-0.7,0.7-1,0.9c-0.3,0.2-0.8,0.2-1.3,0.2c-0.7,0-1.2-0.2-1.6-0.5
			c-0.4-0.4-0.6-0.9-0.6-1.5c0-1.4,1.1-2.2,3.3-2.2l1.2,0v-0.4c0-0.5-0.1-0.9-0.3-1.2c-0.2-0.3-0.6-0.4-1.1-0.4
			c-0.4,0-0.7,0.1-1,0.2c-0.3,0.1-0.6,0.2-0.9,0.4l-0.3-0.9c0.4-0.2,0.7-0.3,1.1-0.4c0.4-0.1,0.8-0.2,1.2-0.2c0.8,0,1.5,0.2,1.9,0.6
			c0.4,0.4,0.6,1,0.6,1.8v4.7H384.9z M382.6,143.1c0.6,0,1.1-0.2,1.5-0.5c0.4-0.3,0.5-0.8,0.5-1.5v-0.6l-1,0c-0.8,0-1.4,0.2-1.7,0.4
			c-0.4,0.2-0.5,0.6-0.5,1.1c0,0.4,0.1,0.6,0.3,0.8C381.9,143,382.2,143.1,382.6,143.1z"/>
		<path class="st1" d="M395.8,141.9c0,0.7-0.2,1.2-0.7,1.5c-0.5,0.4-1.2,0.5-2.1,0.5c-0.9,0-1.6-0.1-2.2-0.4v-1
			c0.8,0.4,1.5,0.6,2.2,0.6c0.6,0,1-0.1,1.3-0.3c0.3-0.2,0.4-0.4,0.4-0.7c0-0.3-0.1-0.5-0.4-0.7c-0.3-0.2-0.7-0.4-1.3-0.7
			c-0.7-0.3-1.1-0.5-1.4-0.7c-0.3-0.2-0.5-0.4-0.6-0.6c-0.1-0.2-0.2-0.5-0.2-0.8c0-0.6,0.2-1,0.7-1.4s1.1-0.5,1.9-0.5
			c0.8,0,1.5,0.2,2.2,0.5l-0.4,0.9c-0.7-0.3-1.3-0.4-1.9-0.4c-0.5,0-0.8,0.1-1.1,0.2c-0.2,0.2-0.4,0.4-0.4,0.6
			c0,0.3,0.1,0.5,0.3,0.6c0.2,0.2,0.7,0.4,1.5,0.7c0.6,0.2,1,0.4,1.3,0.6c0.3,0.2,0.5,0.4,0.6,0.6S395.8,141.6,395.8,141.9z"/>
		<path class="st1" d="M400.5,144c-1,0-1.9-0.3-2.5-0.9c-0.6-0.6-0.9-1.5-0.9-2.6c0-1.1,0.3-2,0.8-2.7c0.6-0.7,1.3-1,2.2-1
			c0.9,0,1.6,0.3,2.1,0.8c0.5,0.6,0.8,1.3,0.8,2.3v0.7h-4.8c0,0.8,0.2,1.4,0.6,1.8s0.9,0.6,1.6,0.6c0.4,0,0.7,0,1.1-0.1
			c0.3-0.1,0.7-0.2,1.2-0.4v1c-0.4,0.2-0.7,0.3-1.1,0.3C401.3,143.9,400.9,144,400.5,144z M400.2,137.7c-0.5,0-1,0.2-1.3,0.5
			s-0.5,0.8-0.6,1.5h3.5c0-0.7-0.2-1.1-0.5-1.5S400.7,137.7,400.2,137.7z"/>
		<path class="st1" d="M409.6,143.8v-4.5c0-0.6-0.1-1-0.4-1.3c-0.3-0.3-0.6-0.4-1.2-0.4c-0.7,0-1.2,0.2-1.6,0.6
			c-0.3,0.4-0.5,1-0.5,1.9v3.6h-1.1v-7h0.9l0.2,1h0.1c0.2-0.3,0.5-0.6,0.9-0.8c0.4-0.2,0.8-0.3,1.3-0.3c0.9,0,1.5,0.2,1.9,0.6
			s0.6,1.1,0.6,1.9v4.5H409.6z"/>
		<path class="st1" d="M417.4,141.9c0,0.7-0.2,1.2-0.7,1.5c-0.5,0.4-1.2,0.5-2.1,0.5c-0.9,0-1.6-0.1-2.2-0.4v-1
			c0.8,0.4,1.5,0.6,2.2,0.6c0.6,0,1-0.1,1.3-0.3c0.3-0.2,0.4-0.4,0.4-0.7c0-0.3-0.1-0.5-0.4-0.7c-0.3-0.2-0.7-0.4-1.3-0.7
			c-0.7-0.3-1.1-0.5-1.4-0.7c-0.3-0.2-0.5-0.4-0.6-0.6c-0.1-0.2-0.2-0.5-0.2-0.8c0-0.6,0.2-1,0.7-1.4s1.1-0.5,1.9-0.5
			c0.8,0,1.5,0.2,2.2,0.5l-0.4,0.9c-0.7-0.3-1.3-0.4-1.9-0.4c-0.5,0-0.8,0.1-1.1,0.2c-0.2,0.2-0.4,0.4-0.4,0.6
			c0,0.3,0.1,0.5,0.3,0.6c0.2,0.2,0.7,0.4,1.5,0.7c0.6,0.2,1,0.4,1.3,0.6c0.3,0.2,0.5,0.4,0.6,0.6S417.4,141.6,417.4,141.9z"/>
		<path class="st1" d="M422.1,144c-1,0-1.9-0.3-2.5-0.9c-0.6-0.6-0.9-1.5-0.9-2.6c0-1.1,0.3-2,0.8-2.7c0.6-0.7,1.3-1,2.2-1
			c0.9,0,1.6,0.3,2.1,0.8c0.5,0.6,0.8,1.3,0.8,2.3v0.7h-4.8c0,0.8,0.2,1.4,0.6,1.8s0.9,0.6,1.6,0.6c0.4,0,0.7,0,1.1-0.1
			c0.3-0.1,0.7-0.2,1.2-0.4v1c-0.4,0.2-0.7,0.3-1.1,0.3C422.9,143.9,422.5,144,422.1,144z M421.8,137.7c-0.5,0-1,0.2-1.3,0.5
			s-0.5,0.8-0.6,1.5h3.5c0-0.7-0.2-1.1-0.5-1.5S422.3,137.7,421.8,137.7z"/>
		<path class="st1" d="M435.9,140.3c0,1.1-0.3,2-0.9,2.7s-1.4,1-2.4,1c-0.6,0-1.2-0.1-1.7-0.4c-0.5-0.3-0.9-0.7-1.1-1.3
			c-0.3-0.6-0.4-1.2-0.4-1.9c0-1.1,0.3-2,0.9-2.6c0.6-0.6,1.4-0.9,2.4-0.9c1,0,1.8,0.3,2.3,1C435.6,138.4,435.9,139.2,435.9,140.3z
			 M430.6,140.3c0,0.9,0.2,1.5,0.5,2c0.3,0.5,0.9,0.7,1.5,0.7c0.7,0,1.2-0.2,1.5-0.7c0.3-0.5,0.5-1.1,0.5-2s-0.2-1.5-0.5-2
			c-0.3-0.4-0.9-0.7-1.5-0.7C431.3,137.7,430.6,138.6,430.6,140.3z"/>
		<path class="st1" d="M440.9,137.8h-1.8v6.1H438v-6.1h-1.2v-0.5l1.2-0.4v-0.4c0-0.8,0.2-1.5,0.6-1.9c0.4-0.4,0.9-0.6,1.7-0.6
			c0.4,0,0.9,0.1,1.4,0.2l-0.3,0.9c-0.4-0.1-0.7-0.2-1-0.2c-0.4,0-0.7,0.1-0.9,0.4s-0.3,0.7-0.3,1.2v0.5h1.8V137.8z"/>
		<path class="st1" d="M383.9,152.9c0.3,0,0.6,0,0.8,0.1l-0.1,1.1c-0.3-0.1-0.5-0.1-0.8-0.1c-0.4,0-0.7,0.1-1,0.3
			c-0.3,0.2-0.6,0.5-0.7,0.8c-0.2,0.4-0.3,0.8-0.3,1.2v3.7h-1.1v-7h0.9l0.1,1.3h0.1c0.3-0.5,0.6-0.8,0.9-1S383.4,152.9,383.9,152.9z
			"/>
		<path class="st1" d="M388.8,160.1c-1,0-1.9-0.3-2.5-0.9c-0.6-0.6-0.9-1.5-0.9-2.6c0-1.1,0.3-2,0.8-2.7c0.6-0.7,1.3-1,2.2-1
			c0.9,0,1.6,0.3,2.1,0.8c0.5,0.6,0.8,1.3,0.8,2.3v0.7h-4.8c0,0.8,0.2,1.4,0.6,1.8s0.9,0.6,1.6,0.6c0.4,0,0.7,0,1.1-0.1
			c0.3-0.1,0.7-0.2,1.2-0.4v1c-0.4,0.2-0.7,0.3-1.1,0.3C389.7,160,389.3,160.1,388.8,160.1z M388.5,153.8c-0.5,0-1,0.2-1.3,0.5
			s-0.5,0.8-0.6,1.5h3.5c0-0.7-0.2-1.1-0.5-1.5S389.1,153.8,388.5,153.8z"/>
		<path class="st1" d="M397.7,158c0,0.7-0.2,1.2-0.7,1.5c-0.5,0.4-1.2,0.5-2.1,0.5c-0.9,0-1.6-0.1-2.2-0.4v-1
			c0.8,0.4,1.5,0.6,2.2,0.6c0.6,0,1-0.1,1.3-0.3c0.3-0.2,0.4-0.4,0.4-0.7c0-0.3-0.1-0.5-0.4-0.7c-0.3-0.2-0.7-0.4-1.3-0.7
			c-0.7-0.3-1.1-0.5-1.4-0.7c-0.3-0.2-0.5-0.4-0.6-0.6c-0.1-0.2-0.2-0.5-0.2-0.8c0-0.6,0.2-1,0.7-1.4s1.1-0.5,1.9-0.5
			c0.8,0,1.5,0.2,2.2,0.5l-0.4,0.9c-0.7-0.3-1.3-0.4-1.9-0.4c-0.5,0-0.8,0.1-1.1,0.2c-0.2,0.2-0.4,0.4-0.4,0.6
			c0,0.3,0.1,0.5,0.3,0.6c0.2,0.2,0.7,0.4,1.5,0.7c0.6,0.2,1,0.4,1.3,0.6c0.3,0.2,0.5,0.4,0.6,0.6S397.7,157.7,397.7,158z"/>
		<path class="st1" d="M402.7,160.1c-0.9,0-1.7-0.3-2.2-1h-0.1l0,0.3c0,0.3,0.1,0.6,0.1,0.9v2.9h-1.1V153h0.9l0.2,1h0.1
			c0.3-0.4,0.6-0.7,0.9-0.8s0.8-0.3,1.2-0.3c0.9,0,1.6,0.3,2.1,0.9c0.5,0.6,0.8,1.5,0.8,2.7c0,1.1-0.3,2-0.8,2.7
			C404.3,159.8,403.6,160.1,402.7,160.1z M402.5,153.8c-0.7,0-1.2,0.2-1.5,0.6c-0.3,0.4-0.5,1-0.5,1.8v0.2c0,0.9,0.2,1.6,0.5,2
			c0.3,0.4,0.8,0.6,1.5,0.6c0.6,0,1-0.2,1.4-0.7c0.3-0.5,0.5-1.1,0.5-2c0-0.9-0.2-1.5-0.5-2C403.6,154,403.1,153.8,402.5,153.8z"/>
		<path class="st1" d="M413.5,156.5c0,1.1-0.3,2-0.9,2.7c-0.6,0.6-1.4,1-2.4,1c-0.6,0-1.2-0.1-1.7-0.4c-0.5-0.3-0.9-0.7-1.1-1.3
			s-0.4-1.2-0.4-1.9c0-1.1,0.3-2,0.9-2.6c0.6-0.6,1.4-0.9,2.4-0.9c1,0,1.8,0.3,2.3,1C413.2,154.5,413.5,155.3,413.5,156.5z
			 M408.2,156.5c0,0.9,0.2,1.5,0.5,2c0.3,0.5,0.9,0.7,1.5,0.7c0.7,0,1.2-0.2,1.5-0.7c0.3-0.5,0.5-1.1,0.5-2s-0.2-1.5-0.5-2
			c-0.3-0.4-0.9-0.7-1.5-0.7C408.9,153.8,408.2,154.7,408.2,156.5z"/>
		<path class="st1" d="M420,160v-4.5c0-0.6-0.1-1-0.4-1.3c-0.3-0.3-0.6-0.4-1.2-0.4c-0.7,0-1.2,0.2-1.6,0.6c-0.3,0.4-0.5,1-0.5,1.9
			v3.6h-1.1v-7h0.9l0.2,1h0.1c0.2-0.3,0.5-0.6,0.9-0.8c0.4-0.2,0.8-0.3,1.3-0.3c0.9,0,1.5,0.2,1.9,0.6s0.6,1.1,0.6,1.9v4.5H420z"/>
		<path class="st1" d="M427.9,158c0,0.7-0.2,1.2-0.7,1.5c-0.5,0.4-1.2,0.5-2.1,0.5c-0.9,0-1.6-0.1-2.2-0.4v-1
			c0.8,0.4,1.5,0.6,2.2,0.6c0.6,0,1-0.1,1.3-0.3c0.3-0.2,0.4-0.4,0.4-0.7c0-0.3-0.1-0.5-0.4-0.7c-0.3-0.2-0.7-0.4-1.3-0.7
			c-0.7-0.3-1.1-0.5-1.4-0.7c-0.3-0.2-0.5-0.4-0.6-0.6c-0.1-0.2-0.2-0.5-0.2-0.8c0-0.6,0.2-1,0.7-1.4s1.1-0.5,1.9-0.5
			c0.8,0,1.5,0.2,2.2,0.5l-0.4,0.9c-0.7-0.3-1.3-0.4-1.9-0.4c-0.5,0-0.8,0.1-1.1,0.2c-0.2,0.2-0.4,0.4-0.4,0.6
			c0,0.3,0.1,0.5,0.3,0.6c0.2,0.2,0.7,0.4,1.5,0.7c0.6,0.2,1,0.4,1.3,0.6c0.3,0.2,0.5,0.4,0.6,0.6S427.9,157.7,427.9,158z"/>
		<path class="st1" d="M429.5,151.1c0-0.3,0.1-0.4,0.2-0.6c0.1-0.1,0.3-0.2,0.5-0.2c0.2,0,0.3,0.1,0.5,0.2c0.1,0.1,0.2,0.3,0.2,0.6
			c0,0.2-0.1,0.4-0.2,0.6c-0.1,0.1-0.3,0.2-0.5,0.2c-0.2,0-0.4-0.1-0.5-0.2C429.5,151.5,429.5,151.3,429.5,151.1z M430.7,160h-1.1
			v-7h1.1V160z"/>
		<path class="st1" d="M436.2,152.9c0.9,0,1.6,0.3,2.1,0.9c0.5,0.6,0.7,1.5,0.7,2.6c0,1.2-0.3,2-0.8,2.7c-0.5,0.6-1.2,0.9-2.1,0.9
			c-0.5,0-0.9-0.1-1.3-0.3s-0.7-0.4-0.9-0.8h-0.1c-0.1,0.5-0.2,0.8-0.2,0.9h-0.8v-9.9h1.1v2.4c0,0.5,0,1-0.1,1.4h0.1
			C434.5,153.2,435.2,152.9,436.2,152.9z M436,153.8c-0.7,0-1.2,0.2-1.5,0.6s-0.5,1.1-0.5,2v0.1c0,1,0.2,1.6,0.5,2
			c0.3,0.4,0.8,0.6,1.5,0.6c0.6,0,1.1-0.2,1.4-0.7c0.3-0.5,0.5-1.1,0.5-2c0-0.9-0.2-1.5-0.5-2C437.1,154,436.6,153.8,436,153.8z"/>
		<path class="st1" d="M440.8,151.1c0-0.3,0.1-0.4,0.2-0.6c0.1-0.1,0.3-0.2,0.5-0.2c0.2,0,0.3,0.1,0.5,0.2c0.1,0.1,0.2,0.3,0.2,0.6
			c0,0.2-0.1,0.4-0.2,0.6c-0.1,0.1-0.3,0.2-0.5,0.2c-0.2,0-0.4-0.1-0.5-0.2C440.9,151.5,440.8,151.3,440.8,151.1z M442,160h-1.1v-7
			h1.1V160z"/>
		<path class="st1" d="M445.4,160h-1.1v-9.9h1.1V160z"/>
		<path class="st1" d="M447.5,151.1c0-0.3,0.1-0.4,0.2-0.6c0.1-0.1,0.3-0.2,0.5-0.2c0.2,0,0.3,0.1,0.5,0.2c0.1,0.1,0.2,0.3,0.2,0.6
			c0,0.2-0.1,0.4-0.2,0.6c-0.1,0.1-0.3,0.2-0.5,0.2c-0.2,0-0.4-0.1-0.5-0.2C447.6,151.5,447.5,151.3,447.5,151.1z M448.7,160h-1.1
			v-7h1.1V160z"/>
		<path class="st1" d="M453.3,159.1c0.1,0,0.3,0,0.5,0s0.3-0.1,0.5-0.1v0.9c-0.1,0-0.3,0.1-0.5,0.1c-0.2,0-0.4,0.1-0.7,0.1
			c-1.4,0-2-0.7-2-2.2v-4.1h-1v-0.5l1-0.5l0.5-1.5h0.7v1.6h2v0.9h-2v4c0,0.4,0.1,0.7,0.3,0.9C452.7,159,452.9,159.1,453.3,159.1z"/>
		<path class="st1" d="M454.5,153h1.2l1.5,4c0.3,0.9,0.5,1.5,0.6,1.9h0.1c0-0.2,0.1-0.4,0.3-0.9c0.1-0.4,0.2-0.8,0.3-1l1.4-4h1.2
			l-3,7.9c-0.3,0.8-0.6,1.3-1,1.7c-0.4,0.3-0.9,0.5-1.5,0.5c-0.3,0-0.6,0-0.9-0.1v-0.9c0.2,0.1,0.5,0.1,0.8,0.1
			c0.4,0,0.7-0.1,0.9-0.3c0.3-0.2,0.5-0.5,0.6-0.9l0.4-0.9L454.5,153z"/>
		<path class="st1" d="M383.8,170h-1.8v6.1h-1.1V170h-1.2v-0.5l1.2-0.4v-0.4c0-0.8,0.2-1.5,0.6-1.9c0.4-0.4,0.9-0.6,1.7-0.6
			c0.4,0,0.9,0.1,1.4,0.2l-0.3,0.9c-0.4-0.1-0.7-0.2-1-0.2c-0.4,0-0.7,0.1-0.9,0.4s-0.3,0.7-0.3,1.2v0.5h1.8V170z"/>
		<path class="st1" d="M388.3,169c0.3,0,0.6,0,0.8,0.1l-0.1,1.1c-0.3-0.1-0.5-0.1-0.8-0.1c-0.4,0-0.7,0.1-1,0.3
			c-0.3,0.2-0.6,0.5-0.7,0.8c-0.2,0.4-0.3,0.8-0.3,1.2v3.7h-1.1v-7h0.9l0.1,1.3h0.1c0.3-0.5,0.6-0.8,0.9-1
			C387.5,169.1,387.9,169,388.3,169z"/>
		<path class="st1" d="M396.4,172.6c0,1.1-0.3,2-0.9,2.7s-1.4,1-2.4,1c-0.6,0-1.2-0.1-1.7-0.4c-0.5-0.3-0.9-0.7-1.1-1.3
			c-0.3-0.6-0.4-1.2-0.4-1.9c0-1.1,0.3-2,0.9-2.6c0.6-0.6,1.4-0.9,2.4-0.9c1,0,1.8,0.3,2.3,1C396.1,170.6,396.4,171.5,396.4,172.6z
			 M391.1,172.6c0,0.9,0.2,1.5,0.5,2c0.3,0.5,0.9,0.7,1.5,0.7c0.7,0,1.2-0.2,1.5-0.7c0.3-0.5,0.5-1.1,0.5-2s-0.2-1.5-0.5-2
			c-0.3-0.4-0.9-0.7-1.5-0.7C391.8,169.9,391.1,170.8,391.1,172.6z"/>
		<path class="st1" d="M407.1,176.1v-4.5c0-1.1-0.5-1.7-1.4-1.7c-0.6,0-1.1,0.2-1.4,0.6s-0.5,1-0.5,1.7v3.8h-1.1v-4.5
			c0-0.6-0.1-1-0.3-1.2c-0.2-0.3-0.6-0.4-1.1-0.4c-0.6,0-1.1,0.2-1.4,0.6c-0.3,0.4-0.4,1-0.4,1.9v3.6h-1.1v-7h0.9l0.2,1h0.1
			c0.2-0.3,0.5-0.6,0.8-0.8c0.4-0.2,0.8-0.3,1.2-0.3c1.1,0,1.8,0.4,2.1,1.2h0.1c0.2-0.4,0.5-0.7,0.9-0.9c0.4-0.2,0.8-0.3,1.3-0.3
			c0.8,0,1.4,0.2,1.8,0.6c0.4,0.4,0.6,1.1,0.6,1.9v4.5H407.1z"/>
		<path class="st1" d="M416.5,176.2c-1,0-1.8-0.3-2.3-0.9c-0.6-0.6-0.8-1.5-0.8-2.6c0-1.2,0.3-2.1,0.8-2.7c0.6-0.6,1.4-0.9,2.4-0.9
			c0.3,0,0.7,0,1,0.1c0.3,0.1,0.6,0.2,0.8,0.3l-0.3,1c-0.6-0.2-1.1-0.3-1.5-0.3c-0.7,0-1.2,0.2-1.6,0.7c-0.3,0.4-0.5,1.1-0.5,2
			c0,0.8,0.2,1.5,0.5,1.9c0.3,0.4,0.8,0.7,1.5,0.7c0.6,0,1.2-0.1,1.8-0.4v1C417.8,176.1,417.2,176.2,416.5,176.2z"/>
		<path class="st1" d="M426,172.6c0,1.1-0.3,2-0.9,2.7c-0.6,0.6-1.4,1-2.4,1c-0.6,0-1.2-0.1-1.7-0.4c-0.5-0.3-0.9-0.7-1.1-1.3
			s-0.4-1.2-0.4-1.9c0-1.1,0.3-2,0.9-2.6c0.6-0.6,1.4-0.9,2.4-0.9c1,0,1.8,0.3,2.3,1C425.7,170.6,426,171.5,426,172.6z M420.8,172.6
			c0,0.9,0.2,1.5,0.5,2c0.3,0.5,0.9,0.7,1.5,0.7c0.7,0,1.2-0.2,1.5-0.7c0.3-0.5,0.5-1.1,0.5-2s-0.2-1.5-0.5-2
			c-0.3-0.4-0.9-0.7-1.5-0.7C421.4,169.9,420.8,170.8,420.8,172.6z"/>
		<path class="st1" d="M428.9,169.1v4.5c0,0.6,0.1,1,0.4,1.3c0.3,0.3,0.6,0.4,1.2,0.4c0.7,0,1.2-0.2,1.6-0.6s0.5-1,0.5-1.9v-3.6h1.1
			v7h-0.9l-0.2-0.9h-0.1c-0.2,0.3-0.5,0.6-0.9,0.8s-0.8,0.3-1.3,0.3c-0.8,0-1.5-0.2-1.9-0.6c-0.4-0.4-0.6-1-0.6-1.9v-4.6H428.9z"/>
		<path class="st1" d="M439.2,176.2c-0.9,0-1.7-0.3-2.2-1h-0.1l0,0.3c0,0.3,0.1,0.6,0.1,0.9v2.9h-1.1v-10.1h0.9l0.2,1h0.1
			c0.3-0.4,0.6-0.7,0.9-0.8s0.8-0.3,1.2-0.3c0.9,0,1.6,0.3,2.1,0.9c0.5,0.6,0.8,1.5,0.8,2.7c0,1.1-0.3,2-0.8,2.7
			S440.1,176.2,439.2,176.2z M439,169.9c-0.7,0-1.2,0.2-1.5,0.6c-0.3,0.4-0.5,1-0.5,1.8v0.2c0,0.9,0.2,1.6,0.5,2
			c0.3,0.4,0.8,0.6,1.5,0.6c0.6,0,1-0.2,1.4-0.7c0.3-0.5,0.5-1.1,0.5-2c0-0.9-0.2-1.5-0.5-2C440,170.1,439.6,169.9,439,169.9z"/>
		<path class="st1" d="M449.9,172.6c0,1.1-0.3,2-0.9,2.7s-1.4,1-2.4,1c-0.6,0-1.2-0.1-1.7-0.4c-0.5-0.3-0.9-0.7-1.1-1.3
			c-0.3-0.6-0.4-1.2-0.4-1.9c0-1.1,0.3-2,0.9-2.6c0.6-0.6,1.4-0.9,2.4-0.9c1,0,1.8,0.3,2.3,1C449.6,170.6,449.9,171.5,449.9,172.6z
			 M444.7,172.6c0,0.9,0.2,1.5,0.5,2c0.3,0.5,0.9,0.7,1.5,0.7c0.7,0,1.2-0.2,1.5-0.7c0.3-0.5,0.5-1.1,0.5-2s-0.2-1.5-0.5-2
			c-0.3-0.4-0.9-0.7-1.5-0.7C445.3,169.9,444.7,170.8,444.7,172.6z"/>
		<path class="st1" d="M456.5,176.1v-4.5c0-0.6-0.1-1-0.4-1.3c-0.3-0.3-0.6-0.4-1.2-0.4c-0.7,0-1.2,0.2-1.6,0.6
			c-0.3,0.4-0.5,1-0.5,1.9v3.6h-1.1v-7h0.9l0.2,1h0.1c0.2-0.3,0.5-0.6,0.9-0.8c0.4-0.2,0.8-0.3,1.3-0.3c0.9,0,1.5,0.2,1.9,0.6
			c0.4,0.4,0.6,1.1,0.6,1.9v4.5H456.5z"/>
		<path class="st1" d="M459.7,167.2c0-0.3,0.1-0.4,0.2-0.6c0.1-0.1,0.3-0.2,0.5-0.2c0.2,0,0.3,0.1,0.5,0.2c0.1,0.1,0.2,0.3,0.2,0.6
			c0,0.2-0.1,0.4-0.2,0.6c-0.1,0.1-0.3,0.2-0.5,0.2c-0.2,0-0.4-0.1-0.5-0.2C459.7,167.6,459.7,167.5,459.7,167.2z M460.9,176.1h-1.1
			v-7h1.1V176.1z"/>
		<path class="st1" d="M467.9,176.1v-4.5c0-0.6-0.1-1-0.4-1.3c-0.3-0.3-0.6-0.4-1.2-0.4c-0.7,0-1.2,0.2-1.6,0.6
			c-0.3,0.4-0.5,1-0.5,1.9v3.6h-1.1v-7h0.9l0.2,1h0.1c0.2-0.3,0.5-0.6,0.9-0.8c0.4-0.2,0.8-0.3,1.3-0.3c0.9,0,1.5,0.2,1.9,0.6
			c0.4,0.4,0.6,1.1,0.6,1.9v4.5H467.9z"/>
		<path class="st1" d="M475.8,176l0-0.9h-0.1c-0.5,0.7-1.2,1-2.2,1c-0.9,0-1.6-0.3-2.1-0.9c-0.5-0.6-0.8-1.5-0.8-2.7
			c0-1.1,0.3-2,0.8-2.7c0.5-0.6,1.2-1,2.1-1c0.9,0,1.7,0.4,2.2,1.1h0.1l0.2-0.9h0.9v7.1c0,1-0.3,1.8-0.8,2.3
			c-0.5,0.5-1.3,0.8-2.4,0.8c-1,0-1.9-0.1-2.5-0.4v-1.1c0.7,0.4,1.5,0.5,2.6,0.5c0.6,0,1.1-0.2,1.4-0.5c0.3-0.3,0.5-0.8,0.5-1.4V176
			z M473.8,175.3c0.7,0,1.2-0.2,1.5-0.6c0.3-0.4,0.5-1,0.5-1.8v-0.3c0-0.9-0.2-1.6-0.5-2s-0.8-0.6-1.6-0.6c-0.6,0-1,0.2-1.4,0.7
			c-0.3,0.5-0.5,1.1-0.5,2c0,0.9,0.2,1.5,0.5,2C472.7,175,473.2,175.3,473.8,175.3z"/>
	</g>
</g>
</svg>