<!-- Generator: Adobe Illustrator 19.0.0, SVG Export Plug-In  -->
<svg version="1.1"
	 xmlns="http://www.w3.org/2000/svg" xmlns:xlink="http://www.w3.org/1999/xlink" xmlns:a="http://ns.adobe.com/AdobeSVGViewerExtensions/3.0/"
	 x="0px" y="0px" width="194px" height="303.5px" viewBox="0 0 194 303.5" style="enable-background:new 0 0 194 303.5;"
	 xml:space="preserve">
<style type="text/css">
	.st0{fill:#086A87;}
	.st1{fill:#FF6633;}
	.st2{fill:#FFFFFF;}
	.st3{fill:#55514F;stroke:#FFFFFF;stroke-width:2;stroke-miterlimit:10;stroke-dasharray:3;}
</style>
<defs>
</defs>
<circle class="st0" cx="6.5" cy="185.9" r="6.5"/>
<path class="st1" d="M100.1,4.8L43.3,61.6c-3.1,3.1-4.8,7.2-4.8,11.5v213.6c0,9,7.3,16.3,16.3,16.3h113.6c9,0,16.3-7.3,16.3-16.3
	V73.1c0-4.3-1.7-8.5-4.8-11.5L123.1,4.8C116.8-1.6,106.5-1.6,100.1,4.8z"/>
<circle class="st2" cx="111.6" cy="18.3" r="4.6"/>
<line class="st3" x1="54" y1="181.5" x2="194" y2="181.5"/>
<circle class="st0" cx="8.1" cy="169.5" r="6.5"/>
<circle class="st2" cx="8.1" cy="169.5" r="4.3"/>
<circle class="st2" cx="6.5" cy="185.9" r="4.3"/>
<path class="st0" d="M33.4,189.7L9.7,174L5,175.3l23.2,15.3c0.4,0.2,0.7,0.4,1.2,0.6C30.7,191.7,32.2,191.5,33.4,189.7z"/>
<path class="st0" d="M32.5,174l-26.9,5.5l4.1,2.9l27.9-5.7c-0.4-2.1-2.1-2.7-3.7-2.8C33.5,173.8,33,173.9,32.5,174z"/>
<g>
	<path class="st2" d="M87,245.5H59v-5.4l9.9-10c2.9-3,4.9-5.1,5.8-6.3c0.9-1.2,1.6-2.2,1.9-3.2c0.4-1,0.6-2,0.6-3.1
		c0-1.6-0.4-2.8-1.3-3.5c-0.9-0.8-2-1.2-3.5-1.2c-1.5,0-3,0.4-4.5,1.1s-2.9,1.7-4.5,3l-4.5-5.4c1.9-1.7,3.6-2.8,4.8-3.5
		c1.3-0.7,2.7-1.2,4.2-1.6c1.5-0.4,3.2-0.6,5.1-0.6c2.5,0,4.7,0.5,6.5,1.4c1.9,0.9,3.4,2.2,4.4,3.8c1,1.6,1.6,3.5,1.6,5.6
		c0,1.8-0.3,3.5-1,5.1s-1.6,3.2-3,4.9c-1.3,1.7-3.9,4.1-7.3,7.2l-5.3,4.8v0h18V245.5z"/>
	<path class="st2" d="M105,220.7c3.8,0,6.9,1.1,9.1,3.2c2.3,2.1,3.4,5.1,3.4,8.8c0,4.4-1.4,7.8-4.1,10.2c-2.7,2.4-6.7,3.6-11.8,3.6
		c-4.4,0-7.7-0.7-10.7-2.1v-7.2c2,0.8,3.2,1.4,5.1,1.9c1.9,0.5,3.7,0.7,5.4,0.7c5.1,0,7.7-2.1,7.7-6.3c0-4-2.6-6-7.9-6
		c-1,0-2,0.1-3.2,0.3c-1.2,0.2-2.1,0.4-2.8,0.6l-3.3-1.7l1.5-20.1H115v7h-14.2l-0.7,7.8l0.9-0.2C102,220.8,103.4,220.7,105,220.7z"
		/>
	<path class="st2" d="M140.6,218.2c0,4.1-0.8,7.3-2.4,9.3c-1.6,2.1-4,3.1-7.1,3.1c-3,0-5.3-1.1-6.9-3.2c-1.6-2.1-2.4-5.2-2.4-9.3
		c0-8.2,3.1-12.4,9.3-12.4c3,0,5.4,1.1,7,3.2C139.8,211.2,140.6,214.2,140.6,218.2z M128.6,218.3c0,2.3,0.2,4,0.6,5.1
		c0.4,1.1,1.1,1.7,2,1.7c1.7,0,2.6-2.3,2.6-6.8c0-4.5-0.9-6.8-2.6-6.8c-0.9,0-1.6,0.6-2,1.7C128.8,214.3,128.6,216,128.6,218.3z
		 M159.2,206.5l-21.9,39h-6.5l21.9-39H159.2z M168.3,234c0,4.1-0.8,7.2-2.4,9.3c-1.6,2.1-4,3.1-7.1,3.1c-3,0-5.3-1.1-6.9-3.2
		c-1.6-2.1-2.4-5.2-2.4-9.2c0-8.2,3.1-12.4,9.3-12.4c3,0,5.4,1.1,7,3.2C167.5,227,168.3,230,168.3,234z M156.3,234
		c0,2.3,0.2,4,0.6,5.1c0.4,1.1,1.1,1.7,2,1.7c1.7,0,2.6-2.3,2.6-6.8c0-4.5-0.9-6.8-2.6-6.8c-0.9,0-1.6,0.6-2,1.7
		S156.3,231.8,156.3,234z"/>
</g>
<g>
	<path class="st2" d="M70.9,73c0,1.6-0.4,2.9-1.2,3.8c-0.8,0.9-2,1.3-3.5,1.3c-1.5,0-2.7-0.4-3.5-1.3c-0.8-0.9-1.2-2.1-1.2-3.8
		s0.4-2.9,1.2-3.8s2-1.3,3.5-1.3s2.7,0.4,3.5,1.3C70.5,70.1,70.9,71.4,70.9,73z M63.7,73c0,1.1,0.2,1.9,0.6,2.5
		c0.4,0.6,1,0.8,1.9,0.8c1.7,0,2.5-1.1,2.5-3.3c0-2.2-0.8-3.3-2.5-3.3c-0.8,0-1.5,0.3-1.9,0.8C63.9,71.1,63.7,71.9,63.7,73z"/>
	<path class="st2" d="M80,77.5h-2v-3.9c0-0.5-0.2-1-0.4-1.2c-0.2-0.3-0.6-0.4-1-0.4c-0.6,0-1,0.2-1.2,0.6c-0.3,0.4-0.4,1-0.4,1.9
		v3.1h-2v-7h1.4l0.3,1h0.1c0.2,0,0.5-0.7,0.9-0.9c0.4-0.2,0.9-0.3,1.4-0.3c0.9,0,1.7,0.2,2.1,0.7c0.5,0.5,0.8,1.1,0.8,2V77.5z"/>
	<path class="st2" d="M90.3,77.5l-0.4-1h-0.1c-0.3,1-0.7,1-1.1,1.1S87.9,78,87.3,78c-0.7,0-1.3-0.2-1.7-0.6c-0.4-0.4-0.6-1-0.6-1.7
		c0-0.8,0.3-1.4,0.8-1.8s1.6-0.6,2.7-0.6l1.5,0v-0.3c0-0.8-0.6-1.1-1.3-1.1c-0.6,0-1.4,0.2-2.2,0.5l-0.7-1.4
		c0.9-0.5,1.8-0.7,2.9-0.7c1,0,1.9,0.2,2.5,0.7c0.5,0.4,0.9,1.1,0.9,2v4.6H90.3z M90,74.5l-1,0c-0.6,0-1.1,0.1-1.4,0.3
		c-0.3,0.2-0.5,0.5-0.5,0.9c0,0.6,0.3,0.9,1,0.9c0.5,0,1-0.1,1.3-0.4c0.3-0.3,0.6-0.6,0.6-1.1V74.5z"/>
	<path class="st2" d="M95.6,77.5l-2.9-7h2.2l1.5,4.4c0.1,0.5,0.2,0.6,0.3,1.6h0.1c0-1,0.1-1.1,0.3-1.6l1.5-4.4h2.2l-2.9,7H95.6z"/>
	<path class="st2" d="M105.1,78.1c-1.2,0-2.2-0.3-2.8-1c-0.7-0.7-1-1.6-1-2.8c0-1.3,0.3-2.2,0.9-2.9c0.6-0.7,1.5-1,2.6-1
		c1.1,0,1.8,0.3,2.4,0.9c0.6,0.6,0.8,1.4,0.8,2.5v0.8h-4.7c0,1,0.2,1.1,0.5,1.5s0.8,0.5,1.4,0.5c0.5,0,1,0,1.4-0.1s0.4-0.2,1.4-0.4
		v1.6c-1,0.2-0.9,0.3-1.3,0.4S105.7,78.1,105.1,78.1z M104.8,71.7c-0.4,0-0.8,0.2-1,0.5s-0.4,0.3-0.4,1.3h2.9c0-1-0.1-1-0.4-1.3
		C105.6,72,105.2,71.7,104.8,71.7z"/>
	<path class="st2" d="M114.1,70.3c0.3,0,0.5,0,0.7,0.1l-0.2,1.9c-0.2,0-0.4-0.1-0.6-0.1c-0.7,0-1.1,0.2-1.5,0.5
		c-0.4,0.3-0.5,0.8-0.5,1.4v3.4h-2v-7h1.4l0.3,1h0.1c0.2,0,0.6-0.7,0.9-0.9S113.6,70.3,114.1,70.3z"/>
	<path class="st2" d="M120.8,77.5l-0.4-1h-0.1c-0.3,1-0.7,1-1.1,1.1c-0.4,0.2-0.8,0.4-1.4,0.4c-0.7,0-1.3-0.2-1.7-0.6
		c-0.4-0.4-0.6-1-0.6-1.7c0-0.8,0.3-1.4,0.8-1.8s1.3-0.6,2.4-0.6l1.2,0v-0.3c0-0.8-0.3-1.1-1.1-1.1c-0.6,0-1.3,0.2-2.1,0.5l-0.7-1.4
		c0.9-0.5,1.8-0.7,2.9-0.7c1,0,1.7,0.2,2.2,0.7c0.5,0.4,0.7,1.1,0.7,2v4.6H120.8z M120,74.5l-0.7,0c-0.6,0-1,0.1-1.3,0.3
		c-0.3,0.2-0.4,0.5-0.4,0.9c0,0.6,0.3,0.9,1,0.9c0.5,0,0.8-0.1,1-0.4c0.3-0.3,0.3-0.6,0.3-1.1V74.5z"/>
	<path class="st2" d="M131,78c0,1.1-0.3,1.9-1,2.5s-1.8,0.8-3,0.8c-1.1,0-2-0.1-3-0.4v-1.6c1,0.4,2.1,0.6,3.2,0.6
		c1.1,0,1.8-0.6,1.8-1.7v-0.1l0-1.4h-0.1c-0.5,1-1.2,1.4-2.1,1.4c-0.9,0-1.6-0.2-2.1-0.9c-0.5-0.7-0.7-1.6-0.7-2.8
		c0-1.2,0.3-2.2,0.8-2.9c0.5-0.7,1.2-1,2.1-1c0.9,0,1.7,0.2,2.2,1.2h0.1l0.2-1h1.8V78z M127.5,76.5c0.6,0,0.9-0.2,1.2-0.5
		c0.2-0.3,0.3-0.8,0.3-1.5v-0.2c0-0.8-0.1-1.4-0.3-1.7c-0.2-0.4-0.6-0.5-1.2-0.5c-1,0-1.4,0.8-1.4,2.3c0,0.8,0.1,1.3,0.4,1.7
		C126.6,76.3,127,76.5,127.5,76.5z"/>
	<path class="st2" d="M136.5,78.1c-1.2,0-2.2-0.3-2.8-1c-0.7-0.7-1-1.6-1-2.8c0-1.3,0.3-2.2,0.9-2.9c0.6-0.7,1.5-1,2.6-1
		c1.1,0,2.1,0.3,2.7,0.9c0.6,0.6,1.1,1.4,1.1,2.5v0.8h-5.2c0,1,0.2,1.1,0.5,1.5c0.3,0.3,0.8,0.5,1.4,0.5c0.5,0,0.8,0,1.2-0.1
		s1.2-0.2,1.2-0.4v1.6c0,0.2-0.6,0.3-1.1,0.4S137.1,78.1,136.5,78.1z M136.2,71.7c-0.4,0-0.8,0.2-1,0.5s-0.4,0.3-0.4,1.3h2.9
		c0-1-0.1-1-0.4-1.3C137,72,136.7,71.7,136.2,71.7z"/>
	<path class="st2" d="M143.3,76.5c-0.2,0.9-0.6,2-1.2,3h-1.5c0.3-1,0.5-2,0.7-3h1.9L143.3,76.5z"/>
	<path class="st2" d="M61.7,84.8c0-0.7,0.4-1,1.1-1s1.1,0.3,1.1,1c0,0.3-0.1,0.6-0.3,0.7c-0.2,0.2-0.5,0.3-0.8,0.3
		C62.1,85.8,61.7,85.5,61.7,84.8z M64,94.5h-2v-8h2V94.5z"/>
	<path class="st2" d="M70.1,94.5c-0.9,0-1.6,0-2.1-1h-0.1c0.1,1,0,1,0,1.1v2.9h-2v-11h1.7l0.3,1h0.1c0.5,0,1.2-1,2.1-1
		c0.9,0,1.6,0.4,2.1,1.1c0.5,0.7,0.8,1.7,0.8,2.9c0,0.8-0.1,1.5-0.4,2.1s-0.6,1.1-1,1.4C71.2,94.3,70.7,94.5,70.1,94.5z M69.5,88.3
		c-0.5,0-0.9,0.2-1.2,0.5S68,89.6,68,90.3v0.2c0,0.8,0.2,1.4,0.4,1.7s0.6,0.5,1.2,0.5c0.9,0,1.4-0.8,1.4-2.3c0-0.7-0.1-1.3-0.3-1.7
		C70.4,88.5,70,88.3,69.5,88.3z"/>
	<path class="st2" d="M79,86.6c0.3,0,0.5,0,0.7,0.1l-0.2,1.9c-0.2,0-0.4-0.1-0.6-0.1c-0.7,0-1.1,0.2-1.5,0.5
		c-0.4,0.3-0.5,0.8-0.5,1.4v4h-2v-8h1.3l0.3,2h0.1c0.2-1,0.6-1,0.9-1.3S78.5,86.6,79,86.6z"/>
	<path class="st2" d="M80.9,84.8c0-0.7,0.4-1,1.1-1c0.7,0,1.1,0.3,1.1,1c0,0.3-0.1,0.6-0.3,0.7c-0.2,0.2-0.5,0.3-0.8,0.3
		C81.3,85.8,80.9,85.5,80.9,84.8z M83,94.5h-2v-8h2V94.5z"/>
	<path class="st2" d="M88.3,94.5c-2.4,0-3.5-1.3-3.5-3.9c0-1.3,0.3-2.3,1-2.9s1.6-1,2.7-1c0.9,0,1.7,0.2,2.4,0.5l-0.6,1.6
		c-0.3-0.1-0.6-0.2-0.9-0.3c-0.3-0.1-0.6-0.1-0.8-0.1c-1.1,0-1.6,0.8-1.6,2.3c0,1.5,0.5,2.2,1.6,2.2c0.4,0,0.9-0.1,1.3-0.2
		c0.3-0.1,0.2-0.3,1.2-0.5v1.8c-1,0.2-0.9,0.4-1.2,0.4S88.8,94.5,88.3,94.5z"/>
	<path class="st2" d="M95.8,94.5c-1.2,0-2.2-0.3-2.8-1c-0.7-0.7-1-1.6-1-2.8c0-1.3,0.3-2.2,0.9-2.9c0.6-0.7,1.5-1,2.6-1
		c1.1,0,2,0.3,2.6,0.9c0.6,0.6,0.9,1.4,0.9,2.5v1.4h-5c0,0,0.2,0.8,0.5,1.2s0.8,0.4,1.4,0.4c0.5,0,0.7-0.1,1.1-0.2s1-0.3,1-0.5v1.6
		c0,0.2-0.5,0.3-0.9,0.4S96.4,94.5,95.8,94.5z M95.5,88.1c-0.4,0-0.8,0-1,0.3s-0.4,1.1-0.4,1.1h2.9c0,0-0.1-0.8-0.4-1.1
		C96.3,88.1,95.9,88.1,95.5,88.1z"/>
	<path class="st2" d="M107.2,94.5c-2.3,0-3.5-1.3-3.5-3.9c0-1.3,0.3-2.3,1-2.9s1.6-1,2.7-1c0.9,0,1.7,0.2,2.3,0.5l-0.6,1.6
		c-0.3-0.1-0.6-0.2-0.9-0.3c-0.3-0.1-0.6-0.1-0.8-0.1c-1.1,0-1.6,0.8-1.6,2.3c0,1.5,0.5,2.2,1.6,2.2c0.4,0,1-0.1,1.3-0.2
		c0.3-0.1,0.3-0.3,1.3-0.5v1.8c-1,0.2-0.9,0.4-1.3,0.4S107.7,94.5,107.2,94.5z"/>
	<path class="st2" d="M116.6,94.5l-0.3-1h-0.1c-0.2,0-0.5,0.6-0.9,0.7c-0.4,0.2-0.9,0.3-1.4,0.3c-0.9,0-1.7-0.3-2.1-0.7
		c-0.5-0.5-0.8-1.2-0.8-2.1v-5.2h2v4.7c0,0.5,0.2,1,0.4,1.2c0.2,0.3,0.6,0.4,1,0.4c0.6,0,1-0.2,1.2-0.6c0.3-0.4,0.4-1,0.4-1.9v-3.8
		h2v8H116.6z"/>
	<path class="st2" d="M125.6,92.1c0,0.8-0.3,1.4-0.8,1.8s-1.3,0.6-2.4,0.6c-0.5,0-1,0-1.4-0.1c-0.4-0.1-1-0.2-1-0.3v-1.7
		c0,0.2,0.8,0.3,1.2,0.5c0.5,0.1,0.9,0.2,1.2,0.2c0.7,0,1.1-0.2,1.1-0.6c0-0.2-0.1-0.3-0.2-0.4c-0.1-0.1-0.3-0.2-0.5-0.3
		s-0.6-0.3-1-0.4c-0.6-0.2-1-0.5-1.3-0.7s-0.5-0.4-0.6-0.7c-0.1-0.3-0.2-0.6-0.2-1c0-0.7,0.3-1.2,0.8-1.6c0.5-0.4,1.3-0.6,2.2-0.6
		c0.9,0,1.8,0.2,2.7,0.6l-0.6,1.5c-0.4-0.2-0.7-0.3-1.1-0.4s-0.7-0.2-1-0.2c-0.6,0-0.9,0.2-0.9,0.5c0,0.2,0.1,0.3,0.3,0.5
		c0.2,0.1,0.6,0.3,1.3,0.6c0.6,0.2,1,0.5,1.3,0.7s0.5,0.4,0.6,0.7C125.5,91.4,125.6,91.7,125.6,92.1z"/>
	<path class="st2" d="M130.5,92.8c0.4,0,0.4-0.1,1.4-0.2v1.5c-1,0.2-1.3,0.3-2,0.3c-0.8,0-1.7-0.2-2.1-0.6c-0.4-0.4-0.9-1-0.9-1.9
		v-3.5h-1v-1.1l1.4-0.5l0.8-1.4h1.8v1h2v2h-2V92c0,0.3-0.1,0.5,0.1,0.6C130.2,92.7,130.3,92.8,130.5,92.8z"/>
	<path class="st2" d="M140.1,90.5c0,1.2-0.3,2.2-1,2.9c-0.6,0.7-1.6,1-2.7,1c-0.7,0-1.4-0.2-1.9-0.5s-1-0.8-1.3-1.4
		c-0.3-0.6-0.4-1.3-0.4-2.1c0-1.2,0.3-2.2,1-2.9c0.6-0.7,1.5-1,2.7-1c0.7,0,1.4,0.2,1.9,0.5c0.6,0.3,1,0.8,1.3,1.4
		C139.9,89.1,140.1,89.7,140.1,90.5z M134.8,90.5c0,0.7,0.1,1.3,0.4,1.7c0.2,0.4,0.6,0.6,1.2,0.6c0.5,0,0.9-0.2,1.2-0.6
		s0.4-0.9,0.4-1.7c0-0.7-0.1-1.3-0.4-1.7c-0.2-0.4-0.6-0.6-1.2-0.6c-0.5,0-0.9,0.2-1.2,0.6C135,89.2,134.8,89.8,134.8,90.5z"/>
	<path class="st2" d="M149,94.5h-3v-4.6c0-0.5,0.2-1,0-1.2c-0.2-0.3-0.3-0.4-0.7-0.4c-0.5,0-0.8,0.2-1,0.6c-0.2,0.4-0.2,1-0.2,1.9
		v3.7h-2v-8h1.4l0.3,1h0.1c0.2,0,0.5-0.5,0.9-0.7c0.4-0.2,0.8-0.4,1.3-0.4c1.1,0,1.9,1,2.3,1h0.2c0.2,0,0.5-0.5,0.9-0.7
		c0.4-0.2,0.8-0.2,1.3-0.2c0.9,0,1.4,0.2,1.8,0.7s0.5,1.2,0.5,2.1v5.1h-2v-4.6c0-0.5,0-1-0.2-1.2c-0.2-0.3-0.4-0.4-0.8-0.4
		c-0.5,0-0.6,0.2-0.9,0.5c-0.3,0.4-0.1,0.9-0.1,1.7V94.5z"/>
	<path class="st2" d="M158.8,94.5c-1.2,0-2.2-0.3-2.8-1c-0.7-0.7-1-1.6-1-2.8c0-1.3,0.3-2.2,0.9-2.9c0.6-0.7,1.5-1,2.6-1
		c1.1,0,2,0.3,2.6,0.9c0.6,0.6,1,1.4,1,2.5v1.4h-5c0,0,0.2,0.8,0.5,1.2c0.3,0.3,0.8,0.4,1.4,0.4c0.5,0,0.7-0.1,1.1-0.2
		c0.4-0.1,1.1-0.3,1.1-0.5v1.6c0,0.2-0.5,0.3-0.9,0.4S159.3,94.5,158.8,94.5z M158.5,88.1c-0.4,0-0.8,0-1,0.3s-0.4,1.1-0.4,1.1h2.9
		c0,0-0.1-0.8-0.4-1.1C159.2,88.1,158.9,88.1,158.5,88.1z"/>
	<path class="st2" d="M167.7,86.6c0.3,0,0.5,0,0.7,0.1l-0.2,1.9c-0.2,0-0.4-0.1-0.6-0.1c-0.7,0-1,0.2-1.3,0.5
		c-0.4,0.3-0.3,0.8-0.3,1.4v4h-2v-8h1.1l0.3,2h0.1c0.2-1,0.6-1,0.9-1.3S167.3,86.6,167.7,86.6z"/>
	<path class="st2" d="M175.1,92.1c0,0.8-0.3,1.4-0.8,1.8c-0.5,0.4-1.3,0.6-2.4,0.6c-0.5,0-1.2,0-1.6-0.1c-0.4-0.1-0.3-0.2-1.3-0.3
		v-1.7c1,0.2,1,0.3,1.5,0.5s1,0.2,1.4,0.2c0.7,0,1.2-0.2,1.2-0.6c0-0.2,0-0.3-0.1-0.4c-0.1-0.1-0.3-0.2-0.5-0.3s-0.6-0.3-1-0.4
		c-0.6-0.2-1-0.5-1.3-0.7s-0.5-0.4-0.6-0.7c-0.1-0.3-0.2-0.6-0.2-1c0-0.7,0.3-1.2,0.8-1.6c0.5-0.4,1.3-0.6,2.2-0.6
		c0.9,0,1.8,0.2,2.7,0.6l-0.6,1.5c-0.4-0.2-0.7-0.3-1.1-0.4s-0.7-0.2-1-0.2c-0.6,0-0.9,0.2-0.9,0.5c0,0.2,0.1,0.3,0.3,0.5
		c0.2,0.1,0.6,0.3,1.3,0.6c0.6,0.2,1,0.5,1.3,0.7c0.3,0.2,0.5,0.4,0.6,0.7S175.1,91.7,175.1,92.1z"/>
	<path class="st2" d="M67,108.4c0,0.8-0.3,1.4-0.8,1.8c-0.5,0.4-1.3,0.6-2.4,0.6c-0.5,0-1.2,0-1.6-0.1c-0.4-0.1-0.3-0.2-1.3-0.3
		v-1.7c1,0.2,1,0.3,1.5,0.5s1,0.2,1.4,0.2c0.7,0,1.2-0.2,1.2-0.6c0-0.2,0-0.3-0.1-0.4c-0.1-0.1-0.3-0.2-0.5-0.3s-0.6-0.3-1-0.4
		c-0.6-0.2-1-0.5-1.3-0.7s-0.5-0.4-0.6-0.7c-0.1-0.3-0.2-0.6-0.2-1c0-0.7,0.3-1.2,0.8-1.6c0.5-0.4,1.3-0.6,2.2-0.6
		c0.9,0,1.8,0.2,2.7,0.6l-0.6,1.5c-0.4-0.2-0.7-0.3-1.1-0.4c-0.3-0.1-0.7-0.2-1-0.2c-0.6,0-0.9,0.2-0.9,0.5c0,0.2,0.1,0.3,0.3,0.5
		c0.2,0.1,0.6,0.3,1.3,0.6c0.6,0.2,1,0.5,1.3,0.7c0.3,0.2,0.5,0.4,0.6,0.7C67,107.7,67,108.1,67,108.4z"/>
	<path class="st2" d="M73.4,110.5l-0.4-1H73c-0.3,1-0.7,0.8-1.1,1c-0.4,0.2-0.8,0.3-1.4,0.3c-0.7,0-1.3-0.2-1.7-0.6
		c-0.4-0.4-0.6-1-0.6-1.8c0-0.8,0.3-1.4,0.8-1.8c0.6-0.4,1.5-0.6,2.6-0.6l1.4,0v-0.3c0-0.8-0.5-1.1-1.2-1.1c-0.6,0-1.3,0.2-2.2,0.5
		l-0.7-1.4c0.9-0.5,1.8-0.7,2.9-0.7c1,0,1.8,0.2,2.4,0.7c0.5,0.4,0.9,1.1,0.9,2v4.9H73.4z M73,107.2l-0.9,0c-0.6,0-1.1,0.1-1.4,0.3
		c-0.3,0.2-0.5,0.5-0.5,0.9c0,0.6,0.3,0.9,1,0.9c0.5,0,0.9-0.1,1.2-0.4c0.3-0.3,0.5-0.6,0.5-1.1V107.2z"/>
	<path class="st2" d="M78.8,110.5l-2.9-7h2.2l1.5,3.9c0.1,0.5,0.2,1.1,0.3,1.1h0.1c0,0,0.1-0.6,0.3-1.1l1.5-3.9h2.2l-2.9,7H78.8z"/>
	<path class="st2" d="M88.3,110.8c-1.2,0-2.2-0.3-2.8-1c-0.7-0.7-1-1.6-1-2.8c0-1.3,0.3-2.2,0.9-2.9c0.6-0.7,1.5-1,2.6-1
		c1.1,0,1.7,0.3,2.3,0.9c0.6,0.6,0.7,1.4,0.7,2.5v1.1h-4.5c0,1,0.2,1,0.5,1.3c0.3,0.3,0.8,0.5,1.4,0.5c0.5,0,0.9-0.1,1.3-0.2
		c0.4-0.1,1.3-0.3,1.3-0.5v1.6c0,0.2-0.8,0.3-1.2,0.4C89.4,110.8,88.9,110.8,88.3,110.8z M88,104.5c-0.4,0-0.8,0.4-1,0.6
		s-0.4,0.4-0.4,1.4h2.9c0-1-0.1-1.1-0.4-1.4C88.8,104.8,88.4,104.5,88,104.5z"/>
	<path class="st2" d="M102,110.5l-0.3-1h-0.1c-0.2,1-0.5,0.7-0.9,0.9c-0.4,0.2-0.9,0.3-1.4,0.3c-0.9,0-1.4-0.2-1.8-0.7
		c-0.5-0.5-0.5-1.1-0.5-2v-4.6h2v4c0,0.5-0.1,1,0.1,1.2c0.2,0.3,0.4,0.4,0.8,0.4c0.6,0,1.2-0.2,1.4-0.6c0.3-0.4,0.6-1,0.6-1.9v-3.2
		h2v7H102z"/>
	<path class="st2" d="M109.9,110.6c-0.9,0-1.6-0.1-2.1-1.1h-0.1c0.1,1,0.3,1.3,0.3,1.4v3.6h-2v-11h1.4l0.3,1h0.1
		c0.5-1,1.2-1.3,2.1-1.3c0.9,0,1.6,0.2,2.1,0.9c0.5,0.7,0.8,1.6,0.8,2.8c0,0.8-0.1,1.5-0.4,2.1s-0.6,0.9-1,1.3
		C111,110.6,110.5,110.6,109.9,110.6z M109.3,104.6c-0.5,0-0.8,0.2-1,0.5s-0.3,0.8-0.3,1.5v0.2c0,0.8,0,1.4,0.3,1.7s0.6,0.5,1.1,0.5
		c0.9,0,1.4-0.8,1.4-2.3c0-0.7-0.1-1.3-0.4-1.7C110.1,104.8,109.7,104.6,109.3,104.6z"/>
	<path class="st2" d="M64.8,125.5c0.4,0,1.2-0.1,1.2-0.2v1.5c0,0.2-1,0.3-1.7,0.3c-0.8,0-1.4-0.2-1.7-0.6c-0.4-0.4-0.5-1-0.5-1.9
		v-3.2h-1v-1.3l1.2-0.9l0.6-1.8H64v2h2v2h-2v3.2c0,0.3,0.1,0.5,0.2,0.6C64.4,125.5,64.5,125.5,64.8,125.5z"/>
	<path class="st2" d="M74.6,123.2c0,1.2-0.3,2.2-1,2.9c-0.6,0.7-1.6,1-2.7,1c-0.7,0-1.4-0.2-1.9-0.5s-1-0.8-1.3-1.4
		c-0.3-0.6-0.4-1.3-0.4-2.1c0-1.2,0.3-2.2,1-2.9c0.6-0.7,1.5-1,2.7-1c0.7,0,1.4,0.2,1.9,0.5c0.6,0.3,1,0.8,1.3,1.4
		C74.5,121.8,74.6,122.5,74.6,123.2z M69.4,123.2c0,0.7,0.1,1.3,0.4,1.7c0.2,0.4,0.6,0.6,1.2,0.6c0.5,0,0.9-0.2,1.2-0.6
		s0.4-0.9,0.4-1.7c0-0.7-0.1-1.3-0.4-1.7c-0.2-0.4-0.6-0.6-1.2-0.6c-0.5,0-0.9,0.2-1.2,0.6C69.5,121.9,69.4,122.5,69.4,123.2z"/>
	<path class="st2" d="M86,127.5h-7v-1.9l2.7-2.5c0.7-0.8,1.3-1.3,1.5-1.6c0.2-0.3,0.4-0.6,0.5-0.8c0.1-0.2,0.2-0.5,0.2-0.8
		c0-0.4-0.1-0.7-0.3-0.9s-0.5-0.3-0.9-0.3c-0.4,0-0.8,0.1-1.1,0.3c-0.4,0.2-0.7,0.4-1.1,0.7l-1.1-1.3c0.5-0.4,0.9-0.7,1.2-0.9
		c0.3-0.2,0.7-0.3,1-0.4c0.4-0.1,0.8-0.1,1.3-0.1c0.6,0,1.2,0.1,1.6,0.3s0.8,0.5,1.1,0.9c0.3,0.4,0.4,0.9,0.4,1.4
		c0,0.5-0.1,0.9-0.2,1.3c-0.2,0.4-0.4,0.8-0.7,1.2c-0.3,0.4-0.9,1-1.8,1.8l-1.3,1.2v0.3h4V127.5z"/>
	<path class="st2" d="M90.9,120.7c1,0,1.7,0.3,2.3,0.8s0.8,1.3,0.8,2.2c0,1.1-0.3,2-1,2.5s-1.9,0.9-3.1,0.9c-1.1,0-1.9-0.2-2.9-0.5
		v-1.8c1,0.2,1,0.3,1.5,0.5s1,0.2,1.5,0.2c1.3,0,2-0.5,2-1.6c0-1-0.6-1.5-1.9-1.5c-0.2,0-0.5,0-0.8,0.1s-0.5,0.1-0.7,0.2l-0.8-0.3
		l0.4-4.9h5v1h-3.1l-0.2,2.2l0.2,0.1C90.2,120.7,90.5,120.7,90.9,120.7z"/>
	<path class="st2" d="M99.8,120.1c0,1-0.2,1.8-0.6,2.3c-0.4,0.5-1,0.8-1.8,0.8c-0.7,0-1.3-0.3-1.7-0.8c-0.4-0.5-0.6-1.3-0.6-2.3
		c0-2.1,0.8-3.1,2.3-3.1c0.8,0,1.3,0.3,1.8,0.8C99.6,118.4,99.8,119.1,99.8,120.1z M96.8,120.1c0,0.6,0.1,1,0.2,1.3
		c0.1,0.3,0.3,0.4,0.5,0.4c0.4,0,0.6-0.6,0.6-1.7c0-1.1-0.2-1.7-0.6-1.7c-0.2,0-0.4,0.1-0.5,0.4C96.8,119.1,96.8,119.5,96.8,120.1z
		 M104.4,117.5l-5.5,10h-1.6l5.5-10H104.4z M106.7,124.1c0,1-0.2,1.8-0.6,2.3c-0.4,0.5-1,0.8-1.8,0.8c-0.7,0-1.3-0.3-1.7-0.8
		c-0.4-0.5-0.6-1.3-0.6-2.3c0-2.1,0.8-3.1,2.3-3.1c0.8,0,1.3,0.3,1.8,0.8C106.5,122.3,106.7,123.1,106.7,124.1z M103.7,124.1
		c0,0.6,0.1,1,0.2,1.3c0.1,0.3,0.3,0.4,0.5,0.4c0.4,0,0.6-0.6,0.6-1.7c0-1.1-0.2-1.7-0.6-1.7c-0.2,0-0.4,0.1-0.5,0.4
		C103.8,123.1,103.7,123.5,103.7,124.1z"/>
	<path class="st2" d="M116,119.4c0.9,0,1.6,0.3,2.1,1c0.5,0.7,0.8,1.6,0.8,2.9c0,1.2-0.3,2.2-0.8,2.9c-0.5,0.7-1.2,1.2-2.1,1.2
		c-0.9,0-1.6-0.8-2.1-0.8h-0.1l-0.3,1H112v-11h2v2.5c0,0.3-0.1,0.5-0.2,1.5h0.1C114.3,119.5,115,119.4,116,119.4z M115.3,121
		c-0.5,0-0.8,0.2-1.1,0.5s-0.3,0.8-0.3,1.5v0.2c0,0.8,0.1,1.4,0.3,1.7s0.6,0.5,1.1,0.5c0.4,0,0.7-0.2,1-0.6c0.3-0.4,0.4-1,0.4-1.7
		c0-0.7-0.1-1.3-0.4-1.7C116.1,121.2,115.8,121,115.3,121z"/>
	<path class="st2" d="M119.3,119.5h2.3l1.4,4.5c0.1,0.4,0.2,0.5,0.2,1.5h0c0-1,0.1-1.1,0.3-1.5l1.4-4.5h2.2L124,128
		c-0.3,0.8-0.7,1.4-1.3,1.8s-1.1,0.6-1.8,0.6c-0.4,0-1,0-1-0.1v-1.6c0,0.1,0.4,0.1,0.7,0.1c0.4,0,0.6-0.1,0.9-0.3
		c0.3-0.2,0.5-0.6,0.6-1l0.1-0.4L119.3,119.5z"/>
	<path class="st2" d="M137.2,127.5l-0.3-1h-0.1c-0.2,0-0.5,0.4-0.9,0.6s-0.9,0.2-1.4,0.2c-0.9,0-1.5-0.3-1.9-0.8
		c-0.5-0.5-0.6-1.2-0.6-2.1v-4.9h2v4.4c0,0.5,0.1,1,0.3,1.2c0.2,0.3,0.5,0.4,0.9,0.4c0.6,0,1.1-0.2,1.4-0.6c0.3-0.4,0.5-1,0.5-1.9
		v-3.5h2v8H137.2z"/>
	<path class="st2" d="M146.2,124.8c0,0.8-0.3,1.4-0.8,1.8c-0.5,0.4-1.3,0.6-2.4,0.6c-0.5,0-0.8,0-1.2-0.1c-0.4-0.1-0.9-0.2-0.9-0.3
		V125c0,0.2,0.6,0.3,1.1,0.5s0.8,0.2,1.2,0.2c0.7,0,1.1-0.2,1.1-0.6c0-0.2-0.1-0.3-0.2-0.4c-0.1-0.1-0.3-0.2-0.5-0.3s-0.6-0.3-1-0.4
		c-0.6-0.2-1-0.5-1.3-0.7c-0.3-0.2-0.5-0.4-0.6-0.7c-0.1-0.3-0.2-0.6-0.2-1c0-0.7,0.3-1.2,0.8-1.6c0.5-0.4,1.3-0.6,2.2-0.6
		c0.9,0,1.8,0.2,2.7,0.6l-0.6,1.5c-0.4-0.2-0.7-0.3-1.1-0.4s-0.7-0.2-1-0.2c-0.6,0-0.9,0.2-0.9,0.5c0,0.2,0.1,0.3,0.3,0.5
		c0.2,0.1,0.6,0.3,1.3,0.6c0.6,0.2,1,0.5,1.3,0.7c0.3,0.2,0.5,0.4,0.6,0.7C146.2,124.1,146.2,124.4,146.2,124.8z"/>
	<path class="st2" d="M147.7,117.5c0-0.7,0.4-1,1.1-1c0.7,0,1.1,0.3,1.1,1c0,0.3-0.1,0.6-0.3,0.7c-0.2,0.2-0.5,0.3-0.8,0.3
		C148.1,118.5,147.7,118.2,147.7,117.5z M150,127.5h-2v-8h2V127.5z"/>
	<path class="st2" d="M159,127.5h-2v-4.9c0-0.5-0.1-1-0.3-1.2c-0.2-0.3-0.5-0.4-0.9-0.4c-0.6,0-1.1,0.2-1.3,0.6
		c-0.3,0.4-0.5,1-0.5,1.9v4h-2v-8h1.7l0.3,1h0.1c0.2,0,0.5-0.7,0.9-0.9c0.4-0.2,0.9-0.3,1.4-0.3c0.9,0,1.5,0.2,2,0.7
		c0.5,0.5,0.7,1.2,0.7,2.1V127.5z"/>
	<path class="st2" d="M168,127c0,1.1-0.4,1.9-1.1,2.5s-1.7,0.8-3,0.8c-1.1,0-2-0.1-3-0.4v-1.6c1,0.4,2.1,0.6,3.2,0.6
		c1.1,0,1.8-0.6,1.8-1.7V127l-0.2-0.5h-0.1c-0.5,0-1.2,0.9-2.1,0.9c-0.9,0-1.6-0.5-2.1-1.2c-0.5-0.7-0.7-1.7-0.7-2.9
		c0-1.2,0.3-2.2,0.8-2.9c0.5-0.7,1.2-1,2.1-1c0.9,0,1.7,0.1,2.2,1.1h0.1l0.2-1h2V127z M164.3,125.6c0.6,0,1-0.2,1.3-0.5
		c0.2-0.3,0.4-0.8,0.4-1.5v-0.2c0-0.8-0.2-1.4-0.5-1.7c-0.2-0.4-0.7-0.5-1.2-0.5c-1,0-1.5,0.8-1.5,2.3c0,0.8,0.1,1.3,0.4,1.7
		C163.4,125.4,163.8,125.6,164.3,125.6z"/>
	<path class="st2" d="M64.8,143.5c-2.4,0-3.5-1.3-3.5-3.9c0-1.3,0.3-2.3,1-2.9c0.6-0.7,1.6-1,2.7-1c0.9,0,1.7,0.2,2.4,0.5l-0.6,1.6
		c-0.3-0.1-0.6-0.2-0.9-0.3c-0.3-0.1-0.6-0.1-0.8-0.1c-1.1,0-1.6,0.8-1.6,2.3c0,1.5,0.5,2.2,1.6,2.2c0.4,0,0.7-0.1,1-0.2
		c0.3-0.1,0.9-0.3,0.9-0.5v1.8c0,0.2-0.6,0.4-0.9,0.4S65.4,143.5,64.8,143.5z"/>
	<path class="st2" d="M75.7,139.6c0,1.2-0.3,2.2-1,2.9c-0.6,0.7-1.6,1-2.7,1c-0.7,0-1.4-0.2-1.9-0.5s-1-0.8-1.3-1.4
		c-0.3-0.6-0.4-1.3-0.4-2.1c0-1.2,0.3-2.2,1-2.9c0.6-0.7,1.5-1,2.7-1c0.7,0,1.4,0.2,1.9,0.5c0.6,0.3,1,0.8,1.3,1.4
		C75.6,138.1,75.7,138.8,75.7,139.6z M70.5,139.6c0,0.7,0.1,1.3,0.4,1.7c0.2,0.4,0.6,0.6,1.2,0.6c0.5,0,0.9-0.2,1.2-0.6
		s0.4-0.9,0.4-1.7c0-0.7-0.1-1.3-0.4-1.7c-0.2-0.4-0.6-0.6-1.2-0.6c-0.5,0-0.9,0.2-1.2,0.6C70.6,138.3,70.5,138.9,70.5,139.6z"/>
	<path class="st2" d="M82.8,143.5l-0.3-1h-0.1c-0.2,0-0.5,0.6-0.9,0.8s-0.9,0.3-1.4,0.3c-0.9,0-1.8-0.2-2.2-0.7
		c-0.5-0.5-0.9-1.2-0.9-2.1v-5.3h2v4.8c0,0.5,0.3,1,0.5,1.2c0.2,0.3,0.6,0.4,1,0.4c0.6,0,0.9-0.2,1.1-0.6c0.3-0.4,0.3-1,0.3-1.9
		v-3.9h2v8H82.8z"/>
	<path class="st2" d="M90.7,143.5c-0.9,0-1.6,0-2.1-1h-0.1c0.1,1,0.5,1.1,0.5,1.2v2.8h-2v-11h1.2l0.3,1h0.1c0.5,0,1.2-1,2.1-1
		c0.9,0,1.6,0.4,2.1,1.1c0.5,0.7,0.8,1.7,0.8,2.9c0,0.8-0.1,1.5-0.4,2.1s-0.6,1-1,1.4C91.8,143.3,91.3,143.5,90.7,143.5z
		 M90.1,137.3c-0.5,0-0.7,0.2-0.9,0.5c-0.2,0.3-0.2,0.8-0.2,1.5v0.2c0,0.8-0.1,1.4,0.2,1.7s0.5,0.5,1.1,0.5c0.9,0,1.3-0.8,1.3-2.3
		c0-0.7-0.1-1.3-0.4-1.7C90.9,137.5,90.6,137.3,90.1,137.3z"/>
	<path class="st2" d="M102.1,139.6c0,1.2-0.3,2.2-1,2.9c-0.6,0.7-1.6,1-2.7,1c-0.7,0-1.4-0.2-1.9-0.5s-1-0.8-1.3-1.4
		c-0.3-0.6-0.4-1.3-0.4-2.1c0-1.2,0.3-2.2,1-2.9c0.6-0.7,1.5-1,2.7-1c0.7,0,1.4,0.2,1.9,0.5c0.6,0.3,1,0.8,1.3,1.4
		C102,138.1,102.1,138.8,102.1,139.6z M96.9,139.6c0,0.7,0.1,1.3,0.4,1.7c0.2,0.4,0.6,0.6,1.2,0.6c0.5,0,0.9-0.2,1.2-0.6
		s0.4-0.9,0.4-1.7c0-0.7-0.1-1.3-0.4-1.7c-0.2-0.4-0.6-0.6-1.2-0.6c-0.5,0-0.9,0.2-1.2,0.6C97,138.3,96.9,138.9,96.9,139.6z"/>
	<path class="st2" d="M111,143.5h-2V139c0-0.5-0.2-1-0.4-1.2c-0.2-0.3-0.6-0.4-1-0.4c-0.6,0-1,0.2-1.2,0.6c-0.3,0.4-0.4,1-0.4,1.9
		v3.7h-2v-8h1.5l0.3,1h0.1c0.2,0,0.5-0.5,0.9-0.7c0.4-0.2,0.9-0.2,1.4-0.2c0.9,0,1.6,0.3,2.1,0.8c0.5,0.5,0.8,1.2,0.8,2.1V143.5z"/>
	<path class="st2" d="M118.2,141.1c0,0.8-0.3,1.4-0.8,1.8c-0.5,0.4-1.3,0.6-2.4,0.6c-0.5,0-0.8,0-1.2-0.1c-0.4-0.1-0.8-0.2-0.8-0.3
		v-1.7c0,0.2,0.6,0.3,1.1,0.5s0.8,0.2,1.1,0.2c0.7,0,1.1-0.2,1.1-0.6c0-0.2-0.1-0.3-0.2-0.4c-0.1-0.1-0.3-0.2-0.5-0.3
		c-0.2-0.1-0.6-0.3-1-0.4c-0.6-0.2-1-0.5-1.3-0.7c-0.3-0.2-0.5-0.4-0.6-0.7c-0.1-0.3-0.2-0.6-0.2-1c0-0.7,0.3-1.2,0.8-1.6
		c0.5-0.4,1.3-0.6,2.2-0.6c0.9,0,1.8,0.2,2.7,0.6l-0.6,1.5c-0.4-0.2-0.7-0.3-1.1-0.4s-0.7-0.2-1-0.2c-0.6,0-0.9,0.2-0.9,0.5
		c0,0.2,0.1,0.3,0.3,0.5c0.2,0.1,0.6,0.3,1.3,0.6c0.6,0.2,1,0.5,1.3,0.7c0.3,0.2,0.5,0.4,0.6,0.7
		C118.1,140.5,118.2,140.8,118.2,141.1z"/>
	<path class="st2" d="M119.5,142.4c0-0.4,0.1-0.7,0.3-0.9c0.2-0.2,0.5-0.3,0.9-0.3c0.4,0,0.7,0.1,0.9,0.3c0.2,0.2,0.3,0.5,0.3,0.9
		c0,0.4-0.1,0.6-0.3,0.8c-0.2,0.2-0.5,0.3-0.9,0.3c-0.4,0-0.7-0.1-0.9-0.3S119.5,142.8,119.5,142.4z"/>
</g>
</svg>