<?xml version="1.0" encoding="utf-8"?>
<!-- Generator: Adobe Illustrator 19.0.0, SVG Export Plug-In . SVG Version: 6.00 Build 0)  -->
<svg version="1.1" id="Layer_1" xmlns="http://www.w3.org/2000/svg" xmlns:xlink="http://www.w3.org/1999/xlink" x="0px" y="0px"
	 viewBox="0 0 281 66" style="enable-background:new 0 0 281 66;" xml:space="preserve">
<style type="text/css">
	.st0{fill:#0C6B88;}
	.st1{fill:#FFFFFF;}
	.st2{fill:#F2673A;}
	.st3{fill:none;stroke:#FFFFFF;stroke-miterlimit:10;stroke-dasharray:3.132;}
	.st4{fill:#49C2C6;}
	.st5{fill:#2BBAB6;}
	.st6{fill:none;stroke:#49C2C6;stroke-width:2;stroke-linecap:round;stroke-linejoin:round;stroke-miterlimit:10;}
	.st7{fill:none;stroke:#FFFFFF;stroke-width:2;stroke-linecap:round;stroke-linejoin:round;stroke-miterlimit:10;}
	.st8{fill:none;stroke:#F2673A;stroke-width:2;stroke-miterlimit:10;}
	.st9{fill:#FFFFFF;stroke:#FFFFFF;stroke-width:0.8;stroke-miterlimit:10;}
</style>
<rect id="XMLID_100_" x="-1986" y="617" class="st0" width="1202" height="632"/>
<circle id="XMLID_3_" class="st0" cx="-1521.7" cy="969.6" r="4.3"/>
<g id="XMLID_31_">
	<g id="XMLID_4_">
		<path id="XMLID_98_" class="st1" d="M-1700.9,901.6h-17.9V832h-22.9v-14.9h63.8V832h-22.9V901.6z"/>
		<path id="XMLID_96_" class="st1" d="M-1606.7,901.6h-17.6v-37.7c0-9.3-3.5-14-10.4-14c-4.9,0-8.5,1.7-10.7,5s-3.3,8.8-3.3,16.3
			v30.4h-17.6v-89.9h17.6V830c0,1.4-0.1,4.8-0.4,10.1l-0.4,5.2h0.9c3.9-6.3,10.2-9.5,18.7-9.5c7.6,0,13.4,2,17.3,6.1
			c3.9,4.1,5.9,9.9,5.9,17.6V901.6z"/>
		<path id="XMLID_93_" class="st1" d="M-1559.3,902.8c-10.4,0-18.5-2.9-24.4-8.6c-5.9-5.7-8.8-13.9-8.8-24.4
			c0-10.8,2.7-19.2,8.1-25.1c5.4-5.9,12.9-8.9,22.5-8.9c9.1,0,16.2,2.6,21.3,7.8c5.1,5.2,7.6,12.4,7.6,21.6v8.6h-41.7
			c0.2,5,1.7,8.9,4.5,11.7c2.8,2.8,6.7,4.2,11.7,4.2c3.9,0,7.6-0.4,11-1.2c3.5-0.8,7.1-2.1,10.9-3.9v13.6c-3.1,1.5-6.4,2.7-9.9,3.4
			C-1549.9,902.4-1554.2,902.8-1559.3,902.8z M-1561.8,848.3c-3.7,0-6.7,1.2-8.8,3.6c-2.1,2.4-3.3,5.7-3.6,10.1h24.7
			c-0.1-4.4-1.2-7.7-3.4-10.1C-1555,849.5-1558,848.3-1561.8,848.3z"/>
		<path id="XMLID_91_" class="st1" d="M-1417.2,901.6h-17.9v-36.5h-33.5v36.5h-17.9v-84.5h17.9v33.1h33.5v-33.1h17.9V901.6z"/>
		<path id="XMLID_88_" class="st1" d="M-1398,820.3c0-5.7,3.2-8.6,9.6-8.6c6.4,0,9.6,2.9,9.6,8.6c0,2.7-0.8,4.9-2.4,6.4
			c-1.6,1.5-4,2.3-7.2,2.3C-1394.8,828.9-1398,826.1-1398,820.3z M-1379.6,901.6h-17.6V837h17.6V901.6z"/>
		<path id="XMLID_86_" class="st1" d="M-1316,882.4c0,6.6-2.3,11.7-6.9,15.1c-4.6,3.5-11.5,5.2-20.7,5.2c-4.7,0-8.7-0.3-12-1
			c-3.3-0.6-6.4-1.6-9.3-2.8v-14.6c3.3,1.5,7,2.8,11.1,3.9c4.1,1,7.7,1.6,10.8,1.6c6.4,0,9.6-1.8,9.6-5.5c0-1.4-0.4-2.5-1.3-3.4
			c-0.8-0.9-2.3-1.8-4.4-2.9c-2.1-1.1-4.9-2.4-8.3-3.8c-5-2.1-8.6-4-11-5.8c-2.3-1.8-4-3.8-5.1-6.1c-1.1-2.3-1.6-5.1-1.6-8.5
			c0-5.7,2.2-10.2,6.7-13.3c4.5-3.1,10.8-4.7,18.9-4.7c7.8,0,15.4,1.7,22.7,5.1l-5.3,12.7c-3.2-1.4-6.3-2.5-9.1-3.4
			c-2.8-0.9-5.7-1.3-8.6-1.3c-5.2,0-7.8,1.4-7.8,4.2c0,1.6,0.8,2.9,2.5,4.1c1.7,1.2,5.3,2.9,11,5.1c5,2,8.7,4,11.1,5.7
			c2.3,1.8,4.1,3.8,5.2,6.1C-1316.6,876.5-1316,879.2-1316,882.4z"/>
		<path id="XMLID_84_" class="st1" d="M-1275,888.7c3.1,0,6.8-0.7,11.1-2v13.1c-4.4,2-9.8,2.9-16.2,2.9c-7.1,0-12.2-1.8-15.4-5.3
			c-3.2-3.6-4.8-8.9-4.8-16v-31.2h-8.4v-7.5l9.7-5.9l5.1-13.6h11.3V837h18.1v13.2h-18.1v31.2c0,2.5,0.7,4.4,2.1,5.5
			C-1279.2,888.1-1277.4,888.7-1275,888.7z"/>
		<path id="XMLID_81_" class="st1" d="M-1192.2,869.2c0,10.5-2.8,18.7-8.3,24.7c-5.5,5.9-13.3,8.9-23.2,8.9
			c-6.2,0-11.7-1.4-16.4-4.1c-4.7-2.7-8.4-6.6-10.9-11.7c-2.5-5.1-3.8-11-3.8-17.8c0-10.6,2.8-18.8,8.3-24.6
			c5.5-5.9,13.3-8.8,23.2-8.8c6.2,0,11.7,1.3,16.4,4c4.7,2.7,8.4,6.6,10.9,11.6C-1193.4,856.5-1192.2,862.4-1192.2,869.2z
			 M-1236.8,869.2c0,6.4,1.1,11.2,3.2,14.5c2.1,3.3,5.5,4.9,10.3,4.9c4.7,0,8.1-1.6,10.1-4.9c2.1-3.3,3.1-8.1,3.1-14.5
			c0-6.4-1-11.2-3.1-14.4c-2.1-3.2-5.5-4.8-10.2-4.8c-4.7,0-8.1,1.6-10.2,4.8C-1235.8,857.9-1236.8,862.7-1236.8,869.2z"/>
		<path id="XMLID_79_" class="st1" d="M-1141.5,835.8c2.4,0,4.4,0.2,6,0.5l-1.3,16.5c-1.4-0.4-3.2-0.6-5.2-0.6
			c-5.6,0-10,1.4-13.1,4.3c-3.1,2.9-4.7,6.9-4.7,12.1v32.9h-17.6V837h13.4l2.6,10.9h0.9c2-3.6,4.7-6.5,8.1-8.8
			C-1149.2,836.9-1145.5,835.8-1141.5,835.8z"/>
		<path id="XMLID_77_" class="st1" d="M-1133.1,837h19.3l12.2,36.4c1,3.2,1.8,6.9,2.1,11.2h0.3c0.4-4,1.3-7.7,2.5-11.2l12-36.4h18.9
			l-27.3,72.9c-2.5,6.7-6.1,11.8-10.7,15.1c-4.6,3.4-10.1,5-16.3,5c-3,0-6-0.3-9-1v-14c2.1,0.5,4.4,0.8,6.9,0.8c3.1,0,5.8-1,8.2-2.9
			c2.3-1.9,4.2-4.8,5.5-8.6l1-3.2L-1133.1,837z"/>
		<path id="XMLID_74_" class="st1" d="M-1676.1,987.9c0,10.5-2.8,18.7-8.3,24.7c-5.5,5.9-13.3,8.9-23.2,8.9
			c-6.2,0-11.7-1.4-16.4-4.1c-4.7-2.7-8.4-6.6-10.9-11.7c-2.5-5.1-3.8-11-3.8-17.8c0-10.6,2.8-18.8,8.3-24.6
			c5.5-5.9,13.3-8.8,23.2-8.8c6.2,0,11.7,1.3,16.4,4c4.7,2.7,8.4,6.6,10.9,11.6C-1677.4,975.2-1676.1,981.1-1676.1,987.9z
			 M-1720.8,987.9c0,6.4,1.1,11.2,3.2,14.5c2.1,3.3,5.5,4.9,10.3,4.9c4.7,0,8.1-1.6,10.1-4.9c2.1-3.3,3.1-8.1,3.1-14.5
			c0-6.4-1-11.2-3.1-14.4c-2.1-3.2-5.5-4.8-10.2-4.8c-4.7,0-8.1,1.6-10.2,4.8C-1719.8,976.7-1720.8,981.5-1720.8,987.9z"/>
		<path id="XMLID_22_" class="st1" d="M-1625.9,969h-15.3v51.4h-17.6V969h-9.7v-8.5l9.7-4.7V951c0-7.4,1.8-12.7,5.4-16.1
			c3.6-3.4,9.4-5.1,17.4-5.1c6.1,0,11.5,0.9,16.2,2.7l-4.5,12.9c-3.5-1.1-6.8-1.7-9.8-1.7c-2.5,0-4.3,0.7-5.4,2.2
			c-1.1,1.5-1.7,3.4-1.7,5.7v4h15.3V969z"/>
		<path id="XMLID_20_" class="st2" d="M-1547.7,949.5c-6.7,0-12,2.5-15.7,7.6c-3.7,5.1-5.5,12.1-5.5,21.2c0,18.8,7.1,28.3,21.2,28.3
			c5.9,0,13.1-1.5,21.6-4.5v15c-6.9,2.9-14.7,4.3-23.2,4.3c-12.3,0-21.7-3.7-28.2-11.2c-6.5-7.5-9.8-18.2-9.8-32.1
			c0-8.8,1.6-16.5,4.8-23.1c3.2-6.6,7.8-11.7,13.8-15.2c6-3.5,13-5.3,21.1-5.3c8.2,0,16.5,2,24.7,6l-5.8,14.6
			c-3.2-1.5-6.3-2.8-9.5-3.9C-1541.5,950.1-1544.6,949.5-1547.7,949.5z"/>
		<path id="XMLID_18_" class="st2" d="M-1450.8,987.9c0,10.5-2.8,18.7-8.3,24.7c-5.5,5.9-13.3,8.9-23.2,8.9
			c-6.2,0-11.7-1.4-16.4-4.1c-4.7-2.7-8.4-6.6-10.9-11.7s-3.8-11-3.8-17.8c0-10.6,2.8-18.8,8.3-24.6c5.5-5.9,13.3-8.8,23.2-8.8
			c6.2,0,11.7,1.3,16.4,4c4.7,2.7,8.4,6.6,10.9,11.6C-1452.1,975.2-1450.8,981.1-1450.8,987.9z M-1495.5,987.9
			c0,6.4,1.1,11.2,3.2,14.5c2.1,3.3,5.5,4.9,10.3,4.9c4.7,0,8.1-1.6,10.1-4.9c2.1-3.3,3.1-8.1,3.1-14.5c0-6.4-1-11.2-3.1-14.4
			c-2.1-3.2-5.5-4.8-10.2-4.8c-4.7,0-8.1,1.6-10.2,4.8C-1494.5,976.7-1495.5,981.5-1495.5,987.9z"/>
		<path id="XMLID_15_" class="st2" d="M-1390.5,1020.3l-2.4-8.3h-0.9c-1.9,3-4.6,5.3-8,7c-3.5,1.6-7.4,2.5-11.9,2.5
			c-7.6,0-13.3-2-17.2-6.1c-3.9-4.1-5.8-9.9-5.8-17.5v-42.1h17.6v37.7c0,4.7,0.8,8.2,2.5,10.5c1.7,2.3,4.3,3.5,7.9,3.5
			c4.9,0,8.5-1.6,10.7-4.9c2.2-3.3,3.3-8.8,3.3-16.4v-30.4h17.6v64.6H-1390.5z"/>
		<path id="XMLID_62_" class="st2" d="M-1323,1021.5c-7.6,0-13.5-2.8-17.9-8.3h-0.9c0.6,5.4,0.9,8.5,0.9,9.4v26.2h-17.6v-93.1h14.3
			l2.5,8.4h0.8c4.1-6.4,10.2-9.6,18.3-9.6c7.6,0,13.6,2.9,17.9,8.8c4.3,5.9,6.5,14.1,6.5,24.6c0,6.9-1,12.9-3,18
			c-2,5.1-4.9,9-8.6,11.6C-1313.5,1020.2-1317.9,1021.5-1323,1021.5z M-1328.2,968.6c-4.4,0-7.5,1.3-9.5,4c-2,2.7-3,7.1-3.1,13.3
			v1.9c0,6.9,1,11.9,3.1,14.9c2.1,3,5.3,4.5,9.8,4.5c7.9,0,11.9-6.5,11.9-19.5c0-6.4-1-11.1-2.9-14.3
			C-1320.9,970.2-1324,968.6-1328.2,968.6z"/>
		<path id="XMLID_11_" class="st2" d="M-1224.8,987.9c0,10.5-2.8,18.7-8.3,24.7c-5.5,5.9-13.3,8.9-23.2,8.9
			c-6.2,0-11.7-1.4-16.4-4.1c-4.7-2.7-8.4-6.6-10.9-11.7c-2.5-5.1-3.8-11-3.8-17.8c0-10.6,2.8-18.8,8.3-24.6
			c5.5-5.9,13.3-8.8,23.2-8.8c6.2,0,11.7,1.3,16.4,4c4.7,2.7,8.4,6.6,10.9,11.6C-1226.1,975.2-1224.8,981.1-1224.8,987.9z
			 M-1269.5,987.9c0,6.4,1.1,11.2,3.2,14.5c2.1,3.3,5.5,4.9,10.3,4.9c4.7,0,8.1-1.6,10.1-4.9c2.1-3.3,3.1-8.1,3.1-14.5
			c0-6.4-1-11.2-3.1-14.4c-2.1-3.2-5.5-4.8-10.2-4.8c-4.7,0-8.1,1.6-10.2,4.8C-1268.5,976.7-1269.5,981.5-1269.5,987.9z"/>
		<path id="XMLID_6_" class="st2" d="M-1150.6,1020.3h-17.6v-37.7c0-4.7-0.8-8.2-2.5-10.5c-1.7-2.3-4.3-3.5-7.9-3.5
			c-4.9,0-8.5,1.6-10.7,4.9c-2.2,3.3-3.3,8.8-3.3,16.4v30.4h-17.6v-64.6h13.5l2.4,8.3h1c2-3.1,4.7-5.5,8.1-7.1
			c3.4-1.6,7.4-2.4,11.8-2.4c7.5,0,13.2,2,17.1,6.1s5.8,9.9,5.8,17.6V1020.3z"/>
		<path id="XMLID_55_" class="st2" d="M-1087.4,1001.2c0,6.6-2.3,11.7-6.9,15.1c-4.6,3.5-11.5,5.2-20.7,5.2c-4.7,0-8.7-0.3-12-1
			c-3.3-0.6-6.4-1.6-9.3-2.8v-14.6c3.3,1.5,7,2.8,11.1,3.9c4.1,1,7.7,1.6,10.8,1.6c6.4,0,9.6-1.8,9.6-5.5c0-1.4-0.4-2.5-1.3-3.4
			c-0.8-0.9-2.3-1.8-4.4-2.9c-2.1-1.1-4.9-2.4-8.3-3.8c-5-2.1-8.6-4-11-5.8c-2.3-1.8-4-3.8-5.1-6.1c-1.1-2.3-1.6-5.1-1.6-8.5
			c0-5.7,2.2-10.2,6.7-13.3c4.5-3.1,10.8-4.7,18.9-4.7c7.8,0,15.4,1.7,22.7,5.1l-5.3,12.7c-3.2-1.4-6.3-2.5-9.1-3.4
			c-2.8-0.9-5.7-1.3-8.6-1.3c-5.2,0-7.8,1.4-7.8,4.2c0,1.6,0.8,2.9,2.5,4.1c1.7,1.2,5.3,2.9,11,5.1c5,2,8.7,4,11.1,5.7
			c2.3,1.8,4.1,3.8,5.2,6.1C-1087.9,995.2-1087.4,998-1087.4,1001.2z"/>
	</g>
	<rect id="XMLID_2_" x="-1822.5" y="768.5" class="st3" width="876" height="330"/>
</g>
<g id="XMLID_45_">
	<path id="XMLID_169_" class="st2" d="M-234.7-347.4c0-2.9,2.4-5,5.1-5c2.7,0,5.1,2.1,5.1,5c0,3-2.4,5.1-5.1,5.1
		C-232.4-342.3-234.7-344.3-234.7-347.4z"/>
	<rect id="XMLID_168_" x="-234.7" y="-332.7" class="st0" width="10.2" height="42"/>
	<path id="XMLID_394_" class="st0" d="M-122.7-351.2c-2.7,0-5,2.1-5,5c0,3,2.3,5,5,5c2.7,0,5-2,5-5
		C-117.6-349.1-120-351.2-122.7-351.2z M-127.8-331.6v42h10.2v-42H-127.8z"/>
	<g id="XMLID_237_">
		<g id="XMLID_744_">
			<path id="XMLID_820_" class="st0" d="M-190-273.5l-4.1-7.5h1.9l2.5,4.5c0.3,0.6,0.7,1.6,0.7,1.6s0.3-1,0.7-1.6l2.4-4.5h1.8
				l-4,7.4v3.6h-1.7V-273.5z"/>
			<path id="XMLID_817_" class="st0" d="M-185.4-273.4c0-2,1.6-3.5,3.6-3.5c2.1,0,3.6,1.5,3.6,3.5c0,2-1.6,3.5-3.6,3.5
				C-183.8-269.9-185.4-271.4-185.4-273.4z M-179.8-273.4c0-1.2-0.8-2.1-2-2.1c-1.2,0-2,0.9-2,2.1c0,1.2,0.8,2.1,2,2.1
				C-180.5-271.3-179.8-272.2-179.8-273.4z"/>
			<path id="XMLID_815_" class="st0" d="M-176.4-272.8v-4h1.6v3.9c0,1,0.4,1.5,1.4,1.5c1.1,0,1.7-0.7,1.7-1.8v-3.7h1.6v6.8h-1.6
				l0-1.2c-0.4,0.9-1.2,1.4-2.3,1.4C-175.4-269.9-176.4-271-176.4-272.8z"/>
			<path id="XMLID_813_" class="st0" d="M-168-276.8h1.6l0,1.3c0.4-1.1,1.2-1.4,2-1.4c0.5,0,0.8,0.1,1.1,0.3l-0.5,1.5
				c-0.3-0.1-0.5-0.2-0.9-0.2c-1,0-1.6,0.6-1.6,2.1v3.3h-1.6V-276.8z"/>
			<path id="XMLID_810_" class="st0" d="M-158.7-273.4c0-2,1.6-3.5,3.6-3.5c2.1,0,3.6,1.5,3.6,3.5c0,2-1.6,3.5-3.6,3.5
				C-157.1-269.9-158.7-271.4-158.7-273.4z M-153.1-273.4c0-1.2-0.8-2.1-2-2.1c-1.2,0-2,0.9-2,2.1c0,1.2,0.8,2.1,2,2.1
				C-153.8-271.3-153.1-272.2-153.1-273.4z"/>
			<path id="XMLID_808_" class="st0" d="M-149.7-276.8h1.6l0,1.3c0.4-0.9,1.3-1.4,2.3-1.4c1.5,0,2.5,1.1,2.5,2.9v4h-1.6v-3.9
				c0-1-0.5-1.5-1.4-1.5c-1.1,0-1.8,0.6-1.8,1.7v3.7h-1.6V-276.8z"/>
			<path id="XMLID_805_" class="st0" d="M-137.8-271.3c0.9,0,1.5-0.4,1.9-0.7l0.9,1c-0.6,0.6-1.5,1.1-2.8,1.1
				c-2.3,0-3.8-1.5-3.8-3.5c0-2,1.6-3.5,3.6-3.5c2.3,0,3.6,1.7,3.5,4.1h-5.4C-139.8-271.9-139.1-271.3-137.8-271.3z M-136.2-274
				c-0.1-0.9-0.7-1.6-1.8-1.6c-1,0-1.8,0.6-2,1.6H-136.2z"/>
			<path id="XMLID_803_" class="st0" d="M-129.8-271.3l1.1-0.8c0.4,0.6,1,0.9,1.8,0.9c0.8,0,1.2-0.3,1.2-0.7c0-0.5-0.5-0.6-1.6-0.9
				c-1-0.3-2-0.7-2-2.1c0-1.3,1.1-2,2.4-2c1.1,0,1.8,0.4,2.3,1l-0.9,0.9c-0.3-0.4-0.8-0.7-1.4-0.7c-0.6,0-0.9,0.2-0.9,0.6
				c0,0.5,0.4,0.6,1.5,0.9c1.1,0.3,2.2,0.7,2.2,2.1c0,1.2-0.7,2.1-2.6,2.1C-128.3-269.9-129.3-270.6-129.8-271.3z"/>
			<path id="XMLID_801_" class="st0" d="M-122.2-272.4v-3.1h-1v-1.4h1v-3.5h1.6v3.5h1.8v1.4h-1.8v3.1c0,0.8,0.3,1,0.7,1
				c0.4,0,0.6-0.2,0.8-0.3l0.8,1.1c-0.3,0.3-0.9,0.6-1.7,0.6C-121.3-269.9-122.2-270.6-122.2-272.4z"/>
			<path id="XMLID_798_" class="st0" d="M-117.4-273.4c0-2,1.6-3.5,3.6-3.5c2.1,0,3.6,1.5,3.6,3.5c0,2-1.6,3.5-3.6,3.5
				C-115.8-269.9-117.4-271.4-117.4-273.4z M-111.8-273.4c0-1.2-0.8-2.1-2-2.1c-1.2,0-2,0.9-2,2.1c0,1.2,0.8,2.1,2,2.1
				C-112.5-271.3-111.8-272.2-111.8-273.4z"/>
			<path id="XMLID_795_" class="st0" d="M-108.4-276.8h1.6l0,1.3c0.4-0.8,1.2-1.4,2.4-1.4c1.7,0,3.1,1.5,3.1,3.5
				c0,2-1.4,3.5-3.2,3.5c-1.1,0-1.9-0.5-2.3-1.3v4.6h-1.6V-276.8z M-102.9-273.5c0-1.2-0.7-2.1-1.9-2.1c-1.2,0-2,0.8-2,2.1
				c0,1.3,0.8,2.1,2,2.1C-103.7-271.4-102.9-272.2-102.9-273.5z"/>
			<path id="XMLID_793_" class="st0" d="M-96.5-271.3l1.1-0.8c0.4,0.6,1,0.9,1.8,0.9c0.8,0,1.2-0.3,1.2-0.7c0-0.5-0.5-0.6-1.6-0.9
				c-1-0.3-2-0.7-2-2.1c0-1.3,1.1-2,2.4-2c1.1,0,1.8,0.4,2.3,1l-0.9,0.9c-0.3-0.4-0.8-0.7-1.4-0.7c-0.6,0-0.9,0.2-0.9,0.6
				c0,0.5,0.4,0.6,1.5,0.9c1.1,0.3,2.2,0.7,2.2,2.1c0,1.2-0.7,2.1-2.6,2.1C-95-269.9-96-270.6-96.5-271.3z"/>
			<path id="XMLID_791_" class="st0" d="M-89.2-281.7h1.6v6c0.4-0.8,1.2-1.3,2.3-1.3c1.5,0,2.5,1.1,2.5,2.9v4h-1.6v-3.9
				c0-1-0.4-1.5-1.4-1.5c-1.1,0-1.8,0.6-1.8,1.7v3.7h-1.6V-281.7z"/>
			<path id="XMLID_788_" class="st0" d="M-81.1-273.4c0-2,1.6-3.5,3.6-3.5c2.1,0,3.6,1.5,3.6,3.5c0,2-1.6,3.5-3.6,3.5
				C-79.5-269.9-81.1-271.4-81.1-273.4z M-75.5-273.4c0-1.2-0.8-2.1-2-2.1c-1.2,0-2,0.9-2,2.1c0,1.2,0.8,2.1,2,2.1
				C-76.3-271.3-75.5-272.2-75.5-273.4z"/>
			<path id="XMLID_785_" class="st0" d="M-72.1-276.8h1.6l0,1.3c0.4-0.8,1.2-1.4,2.4-1.4c1.7,0,3.1,1.5,3.1,3.5c0,2-1.4,3.5-3.2,3.5
				c-1.1,0-1.9-0.5-2.3-1.3v4.6h-1.6V-276.8z M-66.7-273.5c0-1.2-0.7-2.1-1.9-2.1c-1.2,0-2,0.8-2,2.1c0,1.3,0.8,2.1,2,2.1
				C-67.4-271.4-66.7-272.2-66.7-273.5z"/>
			<path id="XMLID_782_" class="st0" d="M-63.3-276.8h1.6l0,1.3c0.4-0.8,1.2-1.4,2.4-1.4c1.7,0,3.1,1.5,3.1,3.5c0,2-1.4,3.5-3.2,3.5
				c-1.1,0-1.9-0.5-2.3-1.3v4.6h-1.6V-276.8z M-57.8-273.5c0-1.2-0.7-2.1-1.9-2.1c-1.2,0-2,0.8-2,2.1c0,1.3,0.8,2.1,2,2.1
				C-58.6-271.4-57.8-272.2-57.8-273.5z"/>
			<path id="XMLID_779_" class="st0" d="M-54.6-279.4c0-0.6,0.5-1.1,1.1-1.1c0.6,0,1.1,0.5,1.1,1.1c0,0.6-0.5,1.1-1.1,1.1
				C-54.1-278.4-54.6-278.8-54.6-279.4z M-54.4-276.8h1.6v6.8h-1.6V-276.8z"/>
			<path id="XMLID_777_" class="st0" d="M-50.6-276.8h1.6l0,1.3c0.4-0.9,1.3-1.4,2.3-1.4c1.5,0,2.5,1.1,2.5,2.9v4h-1.6v-3.9
				c0-1-0.5-1.5-1.4-1.5c-1.1,0-1.8,0.6-1.8,1.7v3.7h-1.6V-276.8z"/>
			<path id="XMLID_773_" class="st0" d="M-36-276.8v1.2h-1.2c0.3,0.3,0.4,0.7,0.4,1.1c0,1.4-1.1,2.5-2.7,2.5c-0.5,0-1-0.1-1.4-0.3
				c-0.2,0.1-0.4,0.3-0.4,0.6c0,0.4,0.3,0.5,0.8,0.6l1.7,0.1c1.9,0.1,2.9,0.8,2.9,2.2c0,1.4-1.2,2.4-3.7,2.4c-2.3,0-3.5-0.9-3.5-2.2
				c0-0.8,0.6-1.3,1.4-1.6c-0.6-0.3-0.9-0.7-0.9-1.3c0-0.6,0.3-1,0.9-1.3c-0.4-0.4-0.7-1-0.7-1.6c0-1.4,1.1-2.4,2.8-2.4
				c0.4,0,0.7,0,1,0.1H-36z M-41.5-268.9c0,0.7,0.6,1.2,1.9,1.2c1.4,0,2-0.4,2-1.1c0-0.6-0.3-0.8-1.5-0.9l-1.9-0.1
				C-41.3-269.6-41.5-269.3-41.5-268.9z M-38.2-274.5c0-0.7-0.5-1.2-1.3-1.2c-0.8,0-1.3,0.5-1.3,1.2c0,0.8,0.5,1.3,1.3,1.3
				C-38.7-273.3-38.2-273.8-38.2-274.5z"/>
			<path id="XMLID_770_" class="st0" d="M-31.2-273.5c0-2,1.4-3.5,3.1-3.5c1.2,0,1.9,0.5,2.3,1.3v-6h1.6v11.6h-1.6l0-1.2
				c-0.4,0.8-1.2,1.4-2.4,1.4C-29.8-269.9-31.2-271.4-31.2-273.5z M-25.7-273.5c0-1.2-0.8-2.1-2-2.1c-1.2,0-1.9,0.8-1.9,2.1
				c0,1.3,0.7,2.1,1.9,2.1C-26.5-271.4-25.7-272.2-25.7-273.5z"/>
			<path id="XMLID_767_" class="st0" d="M-18.6-271.3c0.9,0,1.5-0.4,1.9-0.7l0.9,1c-0.6,0.6-1.5,1.1-2.8,1.1c-2.3,0-3.8-1.5-3.8-3.5
				c0-2,1.6-3.5,3.6-3.5c2.3,0,3.6,1.7,3.5,4.1h-5.4C-20.6-271.9-19.8-271.3-18.6-271.3z M-17-274c-0.1-0.9-0.7-1.6-1.8-1.6
				c-1,0-1.8,0.6-2,1.6H-17z"/>
			<path id="XMLID_765_" class="st0" d="M-14.3-271.3l1.1-0.8c0.4,0.6,1,0.9,1.8,0.9c0.8,0,1.2-0.3,1.2-0.7c0-0.5-0.5-0.6-1.6-0.9
				c-1-0.3-2-0.7-2-2.1c0-1.3,1.1-2,2.4-2c1.1,0,1.8,0.4,2.3,1L-10-275c-0.3-0.4-0.8-0.7-1.4-0.7c-0.6,0-0.9,0.2-0.9,0.6
				c0,0.5,0.4,0.6,1.5,0.9c1.1,0.3,2.2,0.7,2.2,2.1c0,1.2-0.7,2.1-2.6,2.1C-12.8-269.9-13.8-270.6-14.3-271.3z"/>
			<path id="XMLID_763_" class="st0" d="M-6.7-272.4v-3.1h-1v-1.4h1v-3.5h1.6v3.5h1.8v1.4h-1.8v3.1c0,0.8,0.3,1,0.7,1
				c0.4,0,0.6-0.2,0.8-0.3l0.8,1.1c-0.3,0.3-0.9,0.6-1.7,0.6C-5.9-269.9-6.7-270.6-6.7-272.4z"/>
			<path id="XMLID_760_" class="st0" d="M-1.8-279.4c0-0.6,0.5-1.1,1.1-1.1c0.6,0,1.1,0.5,1.1,1.1c0,0.6-0.5,1.1-1.1,1.1
				C-1.3-278.4-1.8-278.8-1.8-279.4z M-1.5-276.8h1.6v6.8h-1.6V-276.8z"/>
			<path id="XMLID_758_" class="st0" d="M2.2-276.8h1.6l0,1.3c0.4-0.9,1.3-1.4,2.3-1.4c1.5,0,2.5,1.1,2.5,2.9v4H7v-3.9
				c0-1-0.4-1.5-1.4-1.5c-1.1,0-1.8,0.6-1.8,1.7v3.7H2.2V-276.8z"/>
			<path id="XMLID_755_" class="st0" d="M13.3-275.6c-0.9,0-1.4,0.4-1.8,0.8l-0.9-0.9c0.6-0.7,1.4-1.2,2.8-1.2
				c1.6,0,2.8,0.9,2.8,2.9v4h-1.6l0-1c-0.5,0.7-1.1,1.1-2.1,1.1c-1.3,0-2.4-0.6-2.4-2.1c0-1.4,1.1-2,2.7-2h1.8
				C14.7-275.2,14.2-275.6,13.3-275.6z M12.9-273c-0.7,0-1.2,0.3-1.2,0.9c0,0.6,0.5,0.9,1.3,0.9c0.9,0,1.6-0.5,1.6-1.2v-0.5H12.9z"
				/>
			<path id="XMLID_753_" class="st0" d="M18.7-272.4v-3.1h-1v-1.4h1v-3.5h1.6v3.5h1.8v1.4h-1.8v3.1c0,0.8,0.3,1,0.7,1
				c0.4,0,0.6-0.2,0.8-0.3l0.8,1.1c-0.3,0.3-0.9,0.6-1.7,0.6C19.6-269.9,18.7-270.6,18.7-272.4z"/>
			<path id="XMLID_750_" class="st0" d="M23.7-279.4c0-0.6,0.5-1.1,1.1-1.1s1.1,0.5,1.1,1.1c0,0.6-0.5,1.1-1.1,1.1
				S23.7-278.8,23.7-279.4z M23.9-276.8h1.6v6.8h-1.6V-276.8z"/>
			<path id="XMLID_747_" class="st0" d="M27.3-273.4c0-2,1.6-3.5,3.6-3.5c2.1,0,3.6,1.5,3.6,3.5c0,2-1.6,3.5-3.6,3.5
				C28.9-269.9,27.3-271.4,27.3-273.4z M32.9-273.4c0-1.2-0.8-2.1-2-2.1c-1.2,0-2,0.9-2,2.1c0,1.2,0.8,2.1,2,2.1
				C32.2-271.3,32.9-272.2,32.9-273.4z"/>
			<path id="XMLID_745_" class="st0" d="M36.3-276.8H38l0,1.3c0.4-0.9,1.3-1.4,2.3-1.4c1.5,0,2.5,1.1,2.5,2.9v4h-1.6v-3.9
				c0-1-0.4-1.5-1.4-1.5c-1.1,0-1.8,0.6-1.8,1.7v3.7h-1.6V-276.8z"/>
		</g>
	</g>
	<path id="XMLID_229_" class="st0" d="M38.1-317.8l-4.9-4.9l0,0l-1.7-1.7l-1.6-1.6l-1.7-1.7l-4.6-4.6l-0.3-0.3l-4.9-4.9l-4.9,4.9
		l-20.8,20.8l-4.9,4.9l4.9,4.9l14.7,14.7l4.9,4.9l4.9-4.9L38.1-308l4.9-4.9L38.1-317.8z M12.4-292.1l-14.7-14.7l20.8-20.8l4.8,4.8
		l0.1,0.1l4.9,4.9l0.1,0.1l4.8,4.8L12.4-292.1z"/>
	<path id="XMLID_227_" class="st2" d="M38.1-317.8l2.3-2.3l0,0c3.8-4.1,3.7-10.5-0.3-14.5c-4-4-10.4-4.1-14.5-0.3l0,0l-7.2,7.2
		l4.9,4.9l7.2-7.2c1.3-1.3,3.5-1.3,4.9,0c1.3,1.3,1.3,3.5,0,4.9l-2.3,2.3L38.1-317.8"/>
	<line id="XMLID_60_" class="st1" x1="-152.9" y1="-290.1" x2="-163" y2="-290.1"/>
	<path id="XMLID_196_" class="st0" d="M-86.8-298.3c-7.1,0-12.8-5.8-12.8-12.9c0-7.1,5.8-12.9,12.8-12.9c4.1,0,7.7,1.9,10.1,4.9
		l7.7-6.1c-4.2-5.2-10.6-8.6-17.8-8.6c-12.5,0-22.7,10.2-22.7,22.7c0,12.5,10.2,22.7,22.7,22.7c7,0,13.3-3.2,17.4-8.2l-7.6-6.3
		C-79.3-300.1-82.9-298.3-86.8-298.3z"/>
	<polygon id="XMLID_58_" class="st1" points="-204.4,-326.7 -204.4,-326.7 -204.4,-332.2 -204.4,-331.7 	"/>
	<path id="XMLID_184_" class="st0" d="M-191.6-332.7c-0.2,0-0.3,0-0.5,0c-0.1,0-0.3,0-0.4,0c-3.7,0-6.8,0.9-9.3,2.5
		c-0.9,0.5-1.7,1-2.5,1.5v-3.1l0-0.4h-10.2v61.7h10.2v-5.4v-16.5c3.6,2.6,8,4.1,12.8,4.1c12.3,0,22.2-10,22.2-22.2
		C-169.3-322.7-179.3-332.7-191.6-332.7z M-191.6-297.9c-7,0-12.6-5.6-12.6-12.6c0-7,5.6-12.6,12.6-12.6s12.6,5.6,12.6,12.6
		C-179-303.5-184.6-297.9-191.6-297.9z"/>
	<path id="XMLID_50_" class="st0" d="M-138.2-331.3c-7.7-2.1-12.4,1.1-14.8,3.8v-4.1h-10.1v12.8h0v29.2h10.1v-19.6
		c0-9.4,4.1-12.9,10.1-12.9c2.3,0,3.9,0.6,5.5,1.4l3.4-9.1C-135.2-330.5-136.6-331.1-138.2-331.3z"/>
	<path id="XMLID_49_" class="st1" d="M-53-305.9c0,0,0-0.1-0.1-0.1C-53-306-53-306-53-305.9L-53-305.9z"/>
	<path id="XMLID_48_" class="st1" d="M-53-306.1C-53-306.1-53-306.1-53-306.1C-53-306.1-53-306.1-53-306.1L-53-306.1z"/>
	<path id="XMLID_111_" class="st0" d="M-19.1-306.1c0.4-1.6,0.6-3.3,0.6-5.1c0-1-0.1-1.9-0.2-2.8c-0.1-0.8-0.2-1.5-0.4-2.2
		c-2.3-10.1-11.3-17.6-22.1-17.6s-19.8,7.5-22.1,17.6c-0.4,1.6-0.6,3.3-0.6,5.1c0,0.3,0,0.5,0,0.8l0,0c0,0.3,0,0.7,0,1
		c0.1,3,0.7,5.8,1.8,8.3c1.2,2.8,2.9,5.2,5,7.2c2.1,2,4.6,3.5,7.5,4.6c2.9,1.1,5.9,1.6,9.2,1.6c3.4,0,6.7-0.7,9.8-2
		c3.1-1.3,5.9-3.5,8.5-6.7l-7.7-5.8c-1.4,1.7-3,3.1-4.8,4.2c-1.8,1.1-4.1,1.7-6.8,1.7c-3.1,0-5.7-0.9-7.8-2.7c-2-1.7-3.2-4-3.7-6.9
		c0,0,0-0.1,0-0.1c0,0,0,0,0,0h0H-19.1z M-49.6-322.2c1.9-1.9,4.5-2.8,7.7-2.8c3.4,0,6.1,0.9,8,2.7c1.9,1.8,2.9,4.3,3,7.5h-22.1
		C-52.7-317.8-51.5-320.3-49.6-322.2z"/>
</g>
<rect id="XMLID_242_" x="-1823" y="-341" class="st0" width="1202" height="632"/>
<g id="XMLID_258_">
	<g id="XMLID_179_">
		<path id="XMLID_240_" class="st1" d="M-1494.4-211.7c-6.8,0-12.1,2.6-15.8,7.7c-3.7,5.1-5.6,12.2-5.6,21.4
			c0,19,6.5,28.5,20.7,28.5c6,0,13.1-1.5,21.1-4.5v15.2c-7,2.9-14.1,4.4-22.8,4.4c-12.4,0-21.5-3.8-28.1-11.3s-9.7-18.3-9.7-32.4
			c0-8.9,1.7-16.6,4.9-23.3c3.2-6.7,7.9-11.8,13.9-15.3c6-3.6,13.1-5.3,21.3-5.3c8.3,0,16.6,2,25,6l-5.8,14.7
			c-3.2-1.5-6.4-2.8-9.6-4C-1488.1-211.2-1491.3-211.7-1494.4-211.7z"/>
		<path id="XMLID_236_" class="st1" d="M-1396.7-173c0,10.6-2.8,18.9-8.4,24.9c-5.6,6-13.4,9-23.4,9c-6.3,0-11.8-1.4-16.6-4.1
			c-4.8-2.7-8.5-6.7-11-11.8s-3.8-11.1-3.8-18c0-10.6,2.8-18.9,8.3-24.8c5.6-5.9,13.4-8.9,23.4-8.9c6.3,0,11.8,1.4,16.6,4.1
			c4.8,2.7,8.5,6.6,11,11.7C-1398-185.8-1396.7-179.9-1396.7-173z M-1441.8-173c0,6.5,1.1,11.3,3.2,14.6c2.1,3.3,5.6,5,10.3,5
			c4.7,0,8.2-1.6,10.2-4.9c2.1-3.3,3.1-8.2,3.1-14.7c0-6.5-1-11.3-3.1-14.5c-2.1-3.2-5.5-4.8-10.3-4.8c-4.7,0-8.2,1.6-10.3,4.8
			S-1441.8-179.5-1441.8-173z"/>
		<path id="XMLID_234_" class="st1" d="M-1335.9-139l-2.4-9h-0.9c-1.9,2-4.6,5-8.1,6.7c-3.5,1.7-7.5,2.3-11.9,2.3
			c-7.7,0-14.7-2.1-18.6-6.2c-3.9-4.1-7.1-10.1-7.1-17.8v-43h18v38.6c0,4.7,2,8.2,3.7,10.6c1.7,2.4,4.9,3.5,8.6,3.5
			c5,0,8.4-1.7,10.6-5s3.1-8.8,3.1-16.5V-206h18v67H-1335.9z"/>
		<path id="XMLID_231_" class="st1" d="M-1267.8-139.4c-7.7,0-13.7-1.6-18-8.6h-0.9c0.6,7,0.7,9.1,0.7,10v27h-19v-95h15.9l2.5,8h0.8
			c4.2-6,10.3-9.2,18.5-9.2c7.7,0,13.7,3.2,18.1,9.2s6.5,14.3,6.5,24.9c0,7-1,13.1-3.1,18.2c-2,5.1-4.9,8.9-8.7,11.6
			S-1262.7-139.4-1267.8-139.4z M-1273-192.5c-4.4,0-7.7,1.4-9.7,4.1c-2,2.7-3.3,7.2-3.3,13.4v1.9c0,7,1.2,12,3.2,15
			s5.4,4.5,9.9,4.5c8,0,12-6.6,12-19.7c0-6.4-1-11.2-2.9-14.4C-1265.8-190.9-1268.8-192.5-1273-192.5z"/>
		<path id="XMLID_226_" class="st1" d="M-1168.8-173c0,10.6-2.8,18.9-8.4,24.9c-5.6,6-13.4,9-23.4,9c-6.3,0-11.8-1.4-16.6-4.1
			s-8.5-6.7-11-11.8c-2.6-5.1-3.8-11.1-3.8-18c0-10.6,2.8-18.9,8.3-24.8c5.6-5.9,13.4-8.9,23.4-8.9c6.3,0,11.8,1.4,16.6,4.1
			c4.8,2.7,8.5,6.6,11,11.7C-1170.1-185.8-1168.8-179.9-1168.8-173z M-1213.8-173c0,6.5,1.1,11.3,3.2,14.6c2.1,3.3,5.6,5,10.3,5
			c4.7,0,8.2-1.6,10.2-4.9c2.1-3.3,3.1-8.2,3.1-14.7c0-6.5-1-11.3-3.1-14.5c-2.1-3.2-5.5-4.8-10.3-4.8c-4.7,0-8.2,1.6-10.3,4.8
			S-1213.8-179.5-1213.8-173z"/>
		<path id="XMLID_224_" class="st1" d="M-1096-139h-17v-39.4c0-4.7-0.2-8.2-1.9-10.6c-1.7-2.4-4-3.5-7.7-3.5c-5,0-8.7,1.7-11,5
			s-3.5,8.8-3.5,16.5v32h-18v-67h14.5l2.4,8h1c2-2,4.7-5.1,8.2-6.7c3.5-1.6,7.4-2.2,11.9-2.2c7.6,0,12.3,2.2,16.2,6.3
			c3.9,4.1,4.9,10.1,4.9,17.9V-139z"/>
		<path id="XMLID_221_" class="st1" d="M-1076.4-222.3c0-5.8,3.2-8.7,9.7-8.7c6.5,0,9.7,2.9,9.7,8.7c0,2.8-0.8,4.9-2.4,6.4
			c-1.6,1.5-4,2.3-7.3,2.3C-1073.2-213.6-1076.4-216.5-1076.4-222.3z M-1059-139h-18v-67h18V-139z"/>
		<path id="XMLID_192_" class="st1" d="M-980-139h-18v-39.4c0-4.7-0.2-8.2-1.9-10.6c-1.7-2.4-4-3.5-7.7-3.5c-5,0-9.2,1.7-11.4,5
			s-4,8.8-4,16.5v32h-18v-67h15.4l2.4,8h1c2-2,4.7-5.1,8.2-6.7c3.5-1.6,7.4-2.2,11.9-2.2c7.6,0,12.9,2.2,16.8,6.3
			c3.9,4.1,5.4,10.1,5.4,17.9V-139z"/>
		<path id="XMLID_188_" class="st1" d="M-905-140.2c0,9.4-2.1,16.5-7.6,21.3c-5.5,4.8-13.9,7.3-24.7,7.3c-9.5,0-16.7-1.3-24.7-3.8
			v-14.2c9,3.3,16.3,5,25.4,5c9.1,0,13.6-4.9,13.6-14.8v-1.3l1.9-8.2h-0.5c-4.2,6-10.3,9.7-18.5,9.7c-7.8,0-13.9-3-18.2-9
			c-4.3-6-6.4-14.2-6.4-24.6c0-10.7,2.2-19,6.7-25c4.4-6,10.6-9.4,18.4-9.4c8,0,14.3,3.1,18.9,9.1h0.5l1.5-8h13.8V-140.2z
			 M-933.8-153.1c4.8,0,7.4-1.4,9.5-4.1c2.1-2.7,2.3-7.2,2.3-13.3v-2.2c0-7-0.3-12-2.4-15c-2.2-3.1-5.2-4.6-10-4.6
			c-8.4,0-12.3,6.6-12.3,19.7c0,6.5,1.1,11.4,3.2,14.6C-941.5-154.7-938.1-153.1-933.8-153.1z"/>
		<path id="XMLID_186_" class="st4" d="M-1390,165h-56V11.4l1.4-25.1l1.3-27.4c-9.3,9.3-15.5,15.3-19.1,18.2l-30.2,24.4l-26.8-33.2
			l85.1-67.3h44.4V165z"/>
		<path id="XMLID_182_" class="st4" d="M-1132,32.1c0,46.1-7.6,80.2-22.7,102.4c-15.1,22.1-38.4,33.2-69.8,33.2
			c-30.5,0-53.4-11.4-68.9-34.3c-15.5-22.9-23.2-56.6-23.2-101.3c0-46.6,7.5-80.9,22.6-103c15-22.1,38.2-33.1,69.5-33.1
			c30.4,0,53.5,11.6,69.1,34.7C-1139.8-46.2-1132-12.4-1132,32.1z M-1261.1,32.1c0,32.4,2.8,55.6,8.4,69.6c5.6,14,15,21,28.3,21
			c13,0,22.4-7.1,28.2-21.3s8.7-37.3,8.7-69.3c0-32.4-2.9-55.6-8.8-69.8c-5.8-14.1-15.2-21.2-28.1-21.2c-13.1,0-22.5,7.1-28.2,21.2
			C-1258.3-23.5-1261.1-0.3-1261.1,32.1z"/>
		<path id="XMLID_180_" class="st4" d="M-967,165h-56V11.4l1.3-25.1l1.3-27.4c-9.3,9.3-15.5,15.3-19.1,18.2l-30.2,24.4l-26.9-33.2
			l85.1-67.3h44.6V165z"/>
	</g>
	<circle id="XMLID_178_" class="st2" cx="-1566" cy="-24.7" r="10.8"/>
	<circle id="XMLID_176_" class="st2" cx="-1563.4" cy="-51.8" r="10.8"/>
	<circle id="XMLID_174_" class="st0" cx="-1563.4" cy="-51.8" r="7.1"/>
	<circle id="XMLID_173_" class="st0" cx="-1566" cy="-24.7" r="7.1"/>
	<path id="XMLID_172_" class="st2" d="M-1521.4-18.3l-39.3-26l-7.8,2l38.4,25.4c0.6,0.4,1.2,0.7,1.9,1
		C-1526-15.1-1523.3-15.4-1521.4-18.3z"/>
	<path id="XMLID_171_" class="st2" d="M-1522.9-44.5l-44.5,9l6.8,4.8l46.3-9.4c-0.7-3.5-3.6-4.5-6.2-4.6
		C-1521.3-44.7-1522.1-44.6-1522.9-44.5z"/>
	<polygon id="XMLID_122_" class="st1" points="-1519,-31.8 -1492.2,1.5 -1464.4,-20.6 	"/>
	<polygon id="XMLID_103_" class="st5" points="-1519.1,-32.4 -1481.8,-44.7 -1464.4,-20.6 	"/>
	<rect id="XMLID_72_" x="-1627.5" y="-266.5" class="st3" width="811" height="483"/>
</g>
<g id="XMLID_2261_">
	<polygon id="XMLID_2348_" class="st6" points="267,64.8 267,54 278.9,54 	"/>
	<rect id="XMLID_2347_" x="231" y="7" class="st7" width="49" height="14"/>
	<path id="XMLID_2346_" class="st7" d="M246,8.1c0,1.1-0.9,1.9-1.9,1.9h-0.2c-1.1,0-1.9-0.9-1.9-1.9V2.9c0-1.1,0.9-1.9,1.9-1.9h0.2
		c1.1,0,1.9,0.9,1.9,1.9V8.1z"/>
	<path id="XMLID_2345_" class="st7" d="M269,8.1c0,1.1-0.9,1.9-1.9,1.9h-0.2c-1.1,0-1.9-0.9-1.9-1.9V2.9c0-1.1,0.9-1.9,1.9-1.9h0.2
		c1.1,0,1.9,0.9,1.9,1.9V8.1z"/>
	<rect id="XMLID_2344_" x="231" y="21" class="st8" width="49" height="44"/>
</g>
<circle id="XMLID_3342_" class="st2" cx="8.4" cy="20.7" r="8.4"/>
<g id="XMLID_3339_">
	<path id="XMLID_3340_" class="st1" d="M9,25H7v-5.1l0.2-0.8l0.1-0.9c-0.3,0.3-0.5,0.5-0.6,0.6l-1,0.8l-0.9-1.2L7.7,16H9V25z"/>
</g>
<g id="XMLID_3190_">
	<path id="XMLID_3191_" class="st9" d="M33.7,26.3h-1.4V16.1h-3.6v-1.3h8.6v1.3h-3.5V26.3z"/>
	<path id="XMLID_3193_" class="st9" d="M44.7,26.3v-5.5c0-0.7-0.2-1.2-0.5-1.6c-0.3-0.3-0.8-0.5-1.5-0.5c-0.9,0-1.5,0.2-1.9,0.7
		c-0.4,0.5-0.6,1.3-0.6,2.4v4.4h-1.4V14.1h1.4v3.6c0,0.5,0,0.9-0.1,1.2h0.1c0.3-0.4,0.6-0.7,1.1-1s1-0.4,1.6-0.4
		c1,0,1.8,0.2,2.4,0.7c0.5,0.5,0.8,1.3,0.8,2.4v5.6H44.7z"/>
	<path id="XMLID_3195_" class="st9" d="M52.4,26.4c-1.3,0-2.3-0.4-3-1.2c-0.7-0.8-1.1-1.9-1.1-3.2c0-1.4,0.3-2.5,1-3.3
		c0.7-0.8,1.6-1.2,2.8-1.2c1.1,0,1.9,0.3,2.6,1s1,1.6,1,2.8v0.9h-5.9c0,1,0.3,1.7,0.7,2.2c0.5,0.5,1.1,0.8,2,0.8
		c0.5,0,0.9,0,1.3-0.1c0.4-0.1,0.9-0.2,1.4-0.5v1.2c-0.5,0.2-0.9,0.3-1.3,0.4C53.4,26.4,52.9,26.4,52.4,26.4z M52,18.7
		c-0.7,0-1.2,0.2-1.6,0.6c-0.4,0.4-0.6,1-0.7,1.8h4.4c0-0.8-0.2-1.4-0.6-1.8C53.2,18.9,52.7,18.7,52,18.7z"/>
	<path id="XMLID_3198_" class="st9" d="M67.5,23.9c0,0.8-0.3,1.4-0.9,1.9c-0.6,0.4-1.4,0.7-2.5,0.7c-1.1,0-2-0.2-2.7-0.5v-1.3
		c0.9,0.5,1.9,0.7,2.7,0.7c0.7,0,1.2-0.1,1.5-0.3c0.3-0.2,0.5-0.5,0.5-0.9c0-0.3-0.2-0.6-0.5-0.9c-0.3-0.2-0.9-0.5-1.7-0.8
		c-0.8-0.3-1.4-0.6-1.7-0.8c-0.3-0.2-0.6-0.5-0.7-0.7c-0.2-0.3-0.2-0.6-0.2-1c0-0.7,0.3-1.3,0.9-1.7c0.6-0.4,1.4-0.6,2.4-0.6
		c1,0,1.9,0.2,2.7,0.6l-0.5,1.1c-0.9-0.4-1.7-0.5-2.4-0.5c-0.6,0-1,0.1-1.3,0.3c-0.3,0.2-0.5,0.4-0.5,0.8c0,0.3,0.1,0.6,0.4,0.8
		c0.3,0.2,0.9,0.5,1.8,0.9c0.7,0.3,1.2,0.5,1.6,0.7c0.3,0.2,0.6,0.5,0.8,0.8C67.4,23.2,67.5,23.5,67.5,23.9z"/>
	<path id="XMLID_3200_" class="st9" d="M72.4,25.3c0.2,0,0.4,0,0.6-0.1c0.2,0,0.4-0.1,0.6-0.1v1.1c-0.1,0.1-0.3,0.1-0.6,0.2
		s-0.6,0.1-0.8,0.1c-1.7,0-2.5-0.9-2.5-2.6v-5h-1.2v-0.7l1.2-0.6l0.6-1.8h0.8v2h2.5v1.1h-2.5v5c0,0.5,0.1,0.9,0.4,1.1
		C71.7,25.2,72,25.3,72.4,25.3z"/>
	<path id="XMLID_3202_" class="st9" d="M80.6,26.3l-0.3-1.2h-0.1c-0.4,0.5-0.9,0.9-1.3,1.1c-0.4,0.2-1,0.3-1.6,0.3
		c-0.8,0-1.5-0.2-2-0.7c-0.5-0.4-0.7-1.1-0.7-1.9c0-1.7,1.4-2.7,4.1-2.7l1.5-0.1v-0.5c0-0.7-0.1-1.1-0.4-1.4
		c-0.3-0.3-0.7-0.5-1.4-0.5c-0.5,0-0.9,0.1-1.3,0.2c-0.4,0.1-0.8,0.3-1.1,0.5l-0.4-1.1c0.4-0.2,0.9-0.4,1.4-0.5
		c0.5-0.1,1-0.2,1.5-0.2c1,0,1.8,0.2,2.3,0.7c0.5,0.5,0.8,1.2,0.8,2.2v5.8H80.6z M77.7,25.3c0.8,0,1.4-0.2,1.9-0.6
		c0.5-0.4,0.7-1,0.7-1.8v-0.8L79,22.1c-1,0-1.7,0.2-2.2,0.5c-0.5,0.3-0.7,0.7-0.7,1.3c0,0.4,0.1,0.8,0.4,1
		C76.9,25.2,77.2,25.3,77.7,25.3z"/>
	<path id="XMLID_3205_" class="st9" d="M88.3,17.5c0.4,0,0.7,0,1,0.1l-0.2,1.3c-0.3-0.1-0.6-0.1-0.9-0.1c-0.5,0-0.9,0.1-1.3,0.4
		c-0.4,0.3-0.7,0.6-0.9,1c-0.2,0.4-0.3,0.9-0.3,1.5v4.6h-1.4v-8.6h1.2l0.2,1.6h0.1c0.3-0.6,0.7-1,1.2-1.3
		C87.3,17.7,87.8,17.5,88.3,17.5z"/>
	<path id="XMLID_3207_" class="st9" d="M93.8,25.3c0.2,0,0.4,0,0.6-0.1c0.2,0,0.4-0.1,0.6-0.1v1.1c-0.1,0.1-0.3,0.1-0.6,0.2
		s-0.6,0.1-0.8,0.1c-1.7,0-2.5-0.9-2.5-2.6v-5h-1.2v-0.7l1.2-0.6l0.6-1.8h0.8v2h2.5v1.1h-2.5v5c0,0.5,0.1,0.9,0.4,1.1
		C93,25.2,93.4,25.3,93.8,25.3z"/>
	<path id="XMLID_3209_" class="st9" d="M98.3,24.4l0.1,0.2c-0.3,1.1-0.7,2.4-1.4,3.7h-1c0.3-1.3,0.6-2.6,0.8-3.9H98.3z"/>
	<path id="XMLID_3211_" class="st9" d="M116.1,26.3v-5.5c0-1.4-0.6-2-1.7-2c-0.8,0-1.4,0.2-1.8,0.7c-0.4,0.5-0.6,1.2-0.6,2.1v4.7
		h-1.4v-5.5c0-0.7-0.1-1.2-0.4-1.5c-0.3-0.3-0.7-0.5-1.3-0.5c-0.8,0-1.4,0.2-1.7,0.7s-0.6,1.3-0.6,2.4v4.4h-1.4v-8.6h1.1l0.2,1.2
		h0.1c0.2-0.4,0.6-0.7,1-1s0.9-0.4,1.5-0.4c1.3,0,2.2,0.5,2.6,1.4h0.1c0.3-0.5,0.7-0.8,1.1-1.1s1-0.4,1.6-0.4c1,0,1.7,0.3,2.2,0.8
		c0.5,0.5,0.7,1.3,0.7,2.4v5.6H116.1z"/>
	<path id="XMLID_3213_" class="st9" d="M120,15.4c0-0.3,0.1-0.5,0.2-0.7c0.2-0.1,0.4-0.2,0.6-0.2c0.2,0,0.4,0.1,0.6,0.2
		s0.2,0.4,0.2,0.7c0,0.3-0.1,0.5-0.2,0.7c-0.2,0.1-0.4,0.2-0.6,0.2c-0.2,0-0.4-0.1-0.6-0.2C120.1,15.9,120,15.7,120,15.4z
		 M121.5,26.3h-1.4v-8.6h1.4V26.3z"/>
	<path id="XMLID_3216_" class="st9" d="M127.3,26.4c-1.1,0-2-0.4-2.6-1.2c-0.6-0.8-0.9-1.9-0.9-3.3c0-1.4,0.3-2.5,0.9-3.3
		c0.6-0.8,1.5-1.2,2.6-1.2c1.2,0,2,0.4,2.7,1.3h0.1c0-0.1,0-0.3-0.1-0.6c0-0.3,0-0.5,0-0.6v-3.4h1.4v12.2h-1.1l-0.2-1.1h-0.1
		C129.3,26,128.4,26.4,127.3,26.4z M127.5,25.3c0.9,0,1.5-0.2,1.9-0.7c0.4-0.5,0.6-1.2,0.6-2.3V22c0-1.2-0.2-2-0.6-2.6
		s-1-0.8-1.9-0.8c-0.7,0-1.3,0.3-1.7,0.9c-0.4,0.6-0.6,1.4-0.6,2.5c0,1.1,0.2,1.9,0.6,2.4C126.2,25,126.7,25.3,127.5,25.3z"/>
	<path id="XMLID_3219_" class="st9" d="M137.1,26.4c-1.1,0-2-0.4-2.6-1.2c-0.6-0.8-0.9-1.9-0.9-3.3c0-1.4,0.3-2.5,0.9-3.3
		c0.6-0.8,1.5-1.2,2.6-1.2c1.2,0,2,0.4,2.7,1.3h0.1c0-0.1,0-0.3-0.1-0.6c0-0.3,0-0.5,0-0.6v-3.4h1.4v12.2h-1.1l-0.2-1.1h-0.1
		C139.2,26,138.3,26.4,137.1,26.4z M137.3,25.3c0.9,0,1.5-0.2,1.9-0.7c0.4-0.5,0.6-1.2,0.6-2.3V22c0-1.2-0.2-2-0.6-2.6
		s-1-0.8-1.9-0.8c-0.7,0-1.3,0.3-1.7,0.9c-0.4,0.6-0.6,1.4-0.6,2.5c0,1.1,0.2,1.9,0.6,2.4C136,25,136.6,25.3,137.3,25.3z"/>
	<path id="XMLID_3222_" class="st9" d="M145.3,26.3h-1.4V14.1h1.4V26.3z"/>
	<path id="XMLID_3224_" class="st9" d="M151.7,26.4c-1.3,0-2.3-0.4-3-1.2c-0.7-0.8-1.1-1.9-1.1-3.2c0-1.4,0.3-2.5,1-3.3
		c0.7-0.8,1.6-1.2,2.8-1.2c1.1,0,1.9,0.3,2.6,1s1,1.6,1,2.8v0.9H149c0,1,0.3,1.7,0.7,2.2c0.5,0.5,1.1,0.8,2,0.8c0.5,0,0.9,0,1.3-0.1
		c0.4-0.1,0.9-0.2,1.4-0.5v1.2c-0.5,0.2-0.9,0.3-1.3,0.4C152.7,26.4,152.3,26.4,151.7,26.4z M151.3,18.7c-0.7,0-1.2,0.2-1.6,0.6
		c-0.4,0.4-0.6,1-0.7,1.8h4.4c0-0.8-0.2-1.4-0.6-1.8C152.5,18.9,152,18.7,151.3,18.7z"/>
	<path id="XMLID_3227_" class="st9" d="M166.5,26.3l-0.3-1.2h-0.1c-0.4,0.5-0.9,0.9-1.3,1.1c-0.4,0.2-1,0.3-1.6,0.3
		c-0.8,0-1.5-0.2-2-0.7c-0.5-0.4-0.7-1.1-0.7-1.9c0-1.7,1.4-2.7,4.1-2.7l1.5-0.1v-0.5c0-0.7-0.1-1.1-0.4-1.4
		c-0.3-0.3-0.7-0.5-1.4-0.5c-0.5,0-0.9,0.1-1.3,0.2c-0.4,0.1-0.8,0.3-1.1,0.5l-0.4-1.1c0.4-0.2,0.9-0.4,1.4-0.5
		c0.5-0.1,1-0.2,1.5-0.2c1,0,1.8,0.2,2.3,0.7c0.5,0.5,0.8,1.2,0.8,2.2v5.8H166.5z M163.6,25.3c0.8,0,1.4-0.2,1.9-0.6
		c0.5-0.4,0.7-1,0.7-1.8v-0.8l-1.3,0.1c-1,0-1.7,0.2-2.2,0.5c-0.5,0.3-0.7,0.7-0.7,1.3c0,0.4,0.1,0.8,0.4,1
		C162.7,25.2,163.1,25.3,163.6,25.3z"/>
	<path id="XMLID_3230_" class="st9" d="M176,26.3v-5.5c0-0.7-0.2-1.2-0.5-1.6c-0.3-0.3-0.8-0.5-1.5-0.5c-0.9,0-1.5,0.2-1.9,0.7
		c-0.4,0.5-0.6,1.3-0.6,2.4v4.4h-1.4v-8.6h1.1l0.2,1.2h0.1c0.3-0.4,0.6-0.7,1.1-1c0.5-0.2,1-0.3,1.6-0.3c1.1,0,1.8,0.3,2.3,0.8
		c0.5,0.5,0.8,1.3,0.8,2.4v5.6H176z"/>
	<path id="XMLID_3232_" class="st9" d="M183.1,26.4c-1.1,0-2-0.4-2.6-1.2c-0.6-0.8-0.9-1.9-0.9-3.3c0-1.4,0.3-2.5,0.9-3.3
		c0.6-0.8,1.5-1.2,2.6-1.2c1.2,0,2,0.4,2.7,1.3h0.1c0-0.1,0-0.3-0.1-0.6c0-0.3,0-0.5,0-0.6v-3.4h1.4v12.2h-1.1l-0.2-1.1h-0.1
		C185.2,26,184.3,26.4,183.1,26.4z M183.3,25.3c0.9,0,1.5-0.2,1.9-0.7c0.4-0.5,0.6-1.2,0.6-2.3V22c0-1.2-0.2-2-0.6-2.6
		s-1-0.8-1.9-0.8c-0.7,0-1.3,0.3-1.7,0.9c-0.4,0.6-0.6,1.4-0.6,2.5c0,1.1,0.2,1.9,0.6,2.4C182,25,182.6,25.3,183.3,25.3z"/>
	<path id="XMLID_3235_" class="st9" d="M33.6,43.3c-1.3,0-2.3-0.4-3-1.2c-0.7-0.8-1.1-1.9-1.1-3.2c0-1.4,0.3-2.5,1-3.3
		c0.7-0.8,1.6-1.2,2.8-1.2c1.1,0,1.9,0.3,2.6,1s1,1.6,1,2.8v0.9h-5.9c0,1,0.3,1.7,0.7,2.2c0.5,0.5,1.1,0.8,2,0.8
		c0.5,0,0.9,0,1.3-0.1c0.4-0.1,0.9-0.2,1.4-0.5v1.2c-0.5,0.2-0.9,0.3-1.3,0.4C34.6,43.3,34.1,43.3,33.6,43.3z M33.2,35.6
		c-0.7,0-1.2,0.2-1.6,0.6c-0.4,0.4-0.6,1-0.7,1.8h4.4c0-0.8-0.2-1.4-0.6-1.8C34.4,35.8,33.9,35.6,33.2,35.6z"/>
	<path id="XMLID_3238_" class="st9" d="M44.8,43.2v-5.5c0-0.7-0.2-1.2-0.5-1.6c-0.3-0.3-0.8-0.5-1.5-0.5c-0.9,0-1.5,0.2-1.9,0.7
		c-0.4,0.5-0.6,1.3-0.6,2.4v4.4h-1.4v-8.6h1.1l0.2,1.2h0.1c0.3-0.4,0.6-0.7,1.1-1c0.5-0.2,1-0.3,1.6-0.3c1.1,0,1.8,0.3,2.3,0.8
		c0.5,0.5,0.8,1.3,0.8,2.4v5.6H44.8z"/>
	<path id="XMLID_3240_" class="st9" d="M51.9,43.3c-1.1,0-2-0.4-2.6-1.2c-0.6-0.8-0.9-1.9-0.9-3.3c0-1.4,0.3-2.5,0.9-3.3
		c0.6-0.8,1.5-1.2,2.6-1.2c1.2,0,2,0.4,2.7,1.3h0.1c0-0.1,0-0.3-0.1-0.6c0-0.3,0-0.5,0-0.6V31H56v12.2h-1.1L54.6,42h-0.1
		C54,42.9,53.1,43.3,51.9,43.3z M52.1,42.2c0.9,0,1.5-0.2,1.9-0.7c0.4-0.5,0.6-1.2,0.6-2.3v-0.3c0-1.2-0.2-2-0.6-2.6s-1-0.8-1.9-0.8
		c-0.7,0-1.3,0.3-1.7,0.9c-0.4,0.6-0.6,1.4-0.6,2.5c0,1.1,0.2,1.9,0.6,2.4C50.8,41.9,51.4,42.2,52.1,42.2z"/>
	<path id="XMLID_3243_" class="st9" d="M70.3,38.9c0,1.4-0.4,2.5-1.1,3.3c-0.7,0.8-1.7,1.2-2.9,1.2c-0.8,0-1.5-0.2-2.1-0.5
		c-0.6-0.4-1.1-0.9-1.4-1.6c-0.3-0.7-0.5-1.5-0.5-2.4c0-1.4,0.3-2.5,1-3.3c0.7-0.8,1.7-1.2,2.9-1.2c1.2,0,2.2,0.4,2.9,1.2
		C69.9,36.4,70.3,37.5,70.3,38.9z M63.8,38.9c0,1.1,0.2,1.9,0.6,2.5c0.4,0.6,1.1,0.8,1.9,0.8c0.8,0,1.4-0.3,1.9-0.8
		c0.4-0.6,0.6-1.4,0.6-2.5s-0.2-1.9-0.6-2.4c-0.4-0.5-1.1-0.8-1.9-0.8C64.6,35.6,63.8,36.7,63.8,38.9z"/>
	<path id="XMLID_3246_" class="st9" d="M76.5,35.7h-2.2v7.5h-1.4v-7.5h-1.5V35l1.5-0.5V34c0-1,0.2-1.8,0.7-2.3
		c0.5-0.5,1.2-0.8,2.1-0.8c0.5,0,1.1,0.1,1.7,0.3L77,32.3c-0.5-0.2-0.9-0.2-1.3-0.2c-0.5,0-0.8,0.2-1.1,0.5
		c-0.2,0.3-0.3,0.8-0.3,1.5v0.6h2.2V35.7z"/>
	<path id="XMLID_3248_" class="st9" d="M85.1,42.2c0.2,0,0.4,0,0.6-0.1c0.2,0,0.4-0.1,0.6-0.1v1.1c-0.1,0.1-0.3,0.1-0.6,0.2
		s-0.6,0.1-0.8,0.1c-1.7,0-2.5-0.9-2.5-2.6v-5h-1.2V35l1.2-0.6l0.6-1.8h0.8v2h2.5v1.1h-2.5v5c0,0.5,0.1,0.9,0.4,1.1
		C84.3,42,84.6,42.2,85.1,42.2z"/>
	<path id="XMLID_3250_" class="st9" d="M93.8,43.2v-5.5c0-0.7-0.2-1.2-0.5-1.6c-0.3-0.3-0.8-0.5-1.5-0.5c-0.9,0-1.5,0.2-1.9,0.7
		c-0.4,0.5-0.6,1.3-0.6,2.4v4.4H88V31h1.4v3.6c0,0.5,0,0.9-0.1,1.2h0.1c0.3-0.4,0.6-0.7,1.1-1s1-0.4,1.6-0.4c1,0,1.8,0.2,2.4,0.7
		c0.5,0.5,0.8,1.3,0.8,2.4v5.6H93.8z"/>
	<path id="XMLID_3252_" class="st9" d="M101.5,43.3c-1.3,0-2.3-0.4-3-1.2c-0.7-0.8-1.1-1.9-1.1-3.2c0-1.4,0.3-2.5,1-3.3
		c0.7-0.8,1.6-1.2,2.8-1.2c1.1,0,1.9,0.3,2.6,1s1,1.6,1,2.8v0.9h-5.9c0,1,0.3,1.7,0.7,2.2c0.5,0.5,1.1,0.8,2,0.8
		c0.5,0,0.9,0,1.3-0.1c0.4-0.1,0.9-0.2,1.4-0.5v1.2c-0.5,0.2-0.9,0.3-1.3,0.4C102.6,43.3,102.1,43.3,101.5,43.3z M101.1,35.6
		c-0.7,0-1.2,0.2-1.6,0.6c-0.4,0.4-0.6,1-0.7,1.8h4.4c0-0.8-0.2-1.4-0.6-1.8C102.3,35.8,101.8,35.6,101.1,35.6z"/>
	<path id="XMLID_3255_" class="st9" d="M121.9,43.2v-5.5c0-1.4-0.6-2-1.7-2c-0.8,0-1.4,0.2-1.8,0.7c-0.4,0.5-0.6,1.2-0.6,2.1v4.7
		h-1.4v-5.5c0-0.7-0.1-1.2-0.4-1.5c-0.3-0.3-0.7-0.5-1.3-0.5c-0.8,0-1.4,0.2-1.7,0.7s-0.6,1.3-0.6,2.4v4.4H111v-8.6h1.1l0.2,1.2h0.1
		c0.2-0.4,0.6-0.7,1-1s0.9-0.4,1.5-0.4c1.3,0,2.2,0.5,2.6,1.4h0.1c0.3-0.5,0.7-0.8,1.1-1.1s1-0.4,1.6-0.4c1,0,1.7,0.3,2.2,0.8
		c0.5,0.5,0.7,1.3,0.7,2.4v5.6H121.9z"/>
	<path id="XMLID_3257_" class="st9" d="M133.4,38.9c0,1.4-0.4,2.5-1.1,3.3c-0.7,0.8-1.7,1.2-2.9,1.2c-0.8,0-1.5-0.2-2.1-0.5
		c-0.6-0.4-1.1-0.9-1.4-1.6c-0.3-0.7-0.5-1.5-0.5-2.4c0-1.4,0.3-2.5,1-3.3c0.7-0.8,1.7-1.2,2.9-1.2c1.2,0,2.2,0.4,2.9,1.2
		C133.1,36.4,133.4,37.5,133.4,38.9z M127,38.9c0,1.1,0.2,1.9,0.6,2.5c0.4,0.6,1.1,0.8,1.9,0.8c0.8,0,1.4-0.3,1.9-0.8
		c0.4-0.6,0.6-1.4,0.6-2.5s-0.2-1.9-0.6-2.4c-0.4-0.5-1.1-0.8-1.9-0.8C127.8,35.6,127,36.7,127,38.9z"/>
	<path id="XMLID_3260_" class="st9" d="M141.5,43.2v-5.5c0-0.7-0.2-1.2-0.5-1.6c-0.3-0.3-0.8-0.5-1.5-0.5c-0.9,0-1.5,0.2-1.9,0.7
		c-0.4,0.5-0.6,1.3-0.6,2.4v4.4h-1.4v-8.6h1.1l0.2,1.2h0.1c0.3-0.4,0.6-0.7,1.1-1c0.5-0.2,1-0.3,1.6-0.3c1.1,0,1.8,0.3,2.3,0.8
		c0.5,0.5,0.8,1.3,0.8,2.4v5.6H141.5z"/>
	<path id="XMLID_3262_" class="st9" d="M148.4,42.2c0.2,0,0.4,0,0.6-0.1c0.2,0,0.4-0.1,0.6-0.1v1.1c-0.1,0.1-0.3,0.1-0.6,0.2
		s-0.6,0.1-0.8,0.1c-1.7,0-2.5-0.9-2.5-2.6v-5h-1.2V35l1.2-0.6l0.6-1.8h0.8v2h2.5v1.1h-2.5v5c0,0.5,0.1,0.9,0.4,1.1
		C147.7,42,148,42.2,148.4,42.2z"/>
	<path id="XMLID_3264_" class="st9" d="M157.2,43.2v-5.5c0-0.7-0.2-1.2-0.5-1.6c-0.3-0.3-0.8-0.5-1.5-0.5c-0.9,0-1.5,0.2-1.9,0.7
		c-0.4,0.5-0.6,1.3-0.6,2.4v4.4h-1.4V31h1.4v3.6c0,0.5,0,0.9-0.1,1.2h0.1c0.3-0.4,0.6-0.7,1.1-1s1-0.4,1.6-0.4c1,0,1.8,0.2,2.4,0.7
		c0.5,0.5,0.8,1.3,0.8,2.4v5.6H157.2z"/>
	<path id="XMLID_3266_" class="st9" d="M161,42.3c0-0.3,0.1-0.6,0.3-0.8c0.2-0.2,0.4-0.3,0.7-0.3c0.3,0,0.6,0.1,0.7,0.3
		c0.2,0.2,0.3,0.4,0.3,0.8c0,0.3-0.1,0.6-0.3,0.8c-0.2,0.2-0.4,0.3-0.7,0.3c-0.3,0-0.5-0.1-0.7-0.3S161,42.6,161,42.3z"/>
</g>
</svg>
