<?xml version="1.0" encoding="utf-8"?>
<!-- Generator: Adobe Illustrator 19.0.0, SVG Export Plug-In . SVG Version: 6.00 Build 0)  -->
<svg version="1.1" id="Layer_1" xmlns="http://www.w3.org/2000/svg" xmlns:xlink="http://www.w3.org/1999/xlink" x="0px" y="0px"
	 viewBox="0 0 85.8 91" style="enable-background:new 0 0 85.8 91;" xml:space="preserve">
<style type="text/css">
	.st0{fill:none;stroke:#FFFFFF;stroke-width:1.1629;stroke-miterlimit:10;}
	.st1{fill:none;stroke:#FFFFFF;stroke-width:1.1629;stroke-linecap:round;stroke-linejoin:round;stroke-miterlimit:10;}
	.st2{fill:none;stroke:#FFFFFF;stroke-miterlimit:10;}
	.st3{fill:none;stroke:#FFFFFF;stroke-width:1.1581;stroke-miterlimit:10;}
	.st4{fill:#FFFFFF;}
</style>
<rect id="XMLID_361_" x="31.7" y="0.6" class="st0" width="21.5" height="11.5"/>
<polygon id="XMLID_9_" class="st1" points="42.5,2.4 43.4,5.2 46.2,5.1 43.9,6.8 44.8,9.5 42.5,7.8 40.2,9.5 41.1,6.8 38.8,5.1 
	41.6,5.2 "/>
<polyline id="XMLID_8_" class="st2" points="22.4,44 22.4,43.7 22.4,28.5 64.4,28.5 64.4,44 "/>
<polyline id="XMLID_7_" class="st2" points="64.4,72 64.4,90.5 47.2,90.5 47,90.5 39,90.5 22.4,90.5 22.4,72.1 22.4,72 "/>
<rect id="XMLID_357_" x="22.6" y="28.4" class="st3" width="42" height="8.4"/>
<polyline id="XMLID_6_" class="st2" points="39.4,44 39.4,43.7 39.4,37.5 47.4,37.5 47.4,44 "/>
<polyline id="XMLID_5_" class="st2" points="47.4,72 47.4,90.5 39.4,90.5 39.4,72.1 39.4,72 "/>
<path id="XMLID_354_" class="st0" d="M38.4,17.4c1.9,1.9,4.2,10.9,4.2,10.9s-9.1-2.4-10.9-4.2c-1.9-1.9-1.9-4.9,0-6.7
	C33.5,15.6,36.5,15.6,38.4,17.4z"/>
<path id="XMLID_353_" class="st0" d="M47.5,17.4c-1.9,1.9-4.2,10.9-4.2,10.9s9.1-2.4,10.9-4.2c1.9-1.9,1.9-4.9,0-6.7
	C52.4,15.6,49.4,15.6,47.5,17.4z"/>
<path id="XMLID_4_" class="st2" d="M17,10.5c0,0-1.6,14.3,19.4,16.4c0,0-14-4.4-14-16.4H17z"/>
<path id="XMLID_3_" class="st2" d="M69.3,10.5c0,0,1.6,14.3-19.4,16.4c0,0,14-4.4,14-16.4H69.3z"/>
<g id="XMLID_123_">
	<path id="XMLID_124_" class="st4" d="M2.1,52.1H1.2v-2.5l0-0.4l0-0.4C1.1,49,1,49.1,0.9,49.1l-0.5,0.4L0,49l1.4-1.1h0.7V52.1z"/>
	<path id="XMLID_129_" class="st4" d="M6.3,50c0,0.7-0.1,1.3-0.4,1.7s-0.6,0.5-1.1,0.5c-0.5,0-0.9-0.2-1.1-0.6S3.3,50.7,3.3,50
		c0-0.8,0.1-1.3,0.4-1.7s0.6-0.5,1.1-0.5c0.5,0,0.9,0.2,1.1,0.6S6.3,49.3,6.3,50z M4.2,50c0,0.5,0,0.9,0.1,1.1s0.2,0.3,0.5,0.3
		c0.2,0,0.4-0.1,0.5-0.3s0.1-0.6,0.1-1.1c0-0.5,0-0.9-0.1-1.1S5,48.5,4.8,48.5c-0.2,0-0.4,0.1-0.5,0.3S4.2,49.5,4.2,50z"/>
	<path id="XMLID_140_" class="st4" d="M12.1,52.1h-0.9v-1.8H9.5v1.8H8.6v-4.3h0.9v1.7h1.7v-1.7h0.9V52.1z"/>
	<path id="XMLID_142_" class="st4" d="M15.2,52.1L15,51.7h0c-0.2,0.2-0.3,0.3-0.5,0.4s-0.4,0.1-0.6,0.1c-0.3,0-0.6-0.1-0.7-0.3
		s-0.3-0.4-0.3-0.8c0-0.3,0.1-0.6,0.4-0.8s0.6-0.3,1.1-0.3l0.6,0V50c0-0.3-0.2-0.5-0.5-0.5c-0.3,0-0.6,0.1-0.9,0.2l-0.3-0.6
		c0.4-0.2,0.8-0.3,1.3-0.3c0.4,0,0.8,0.1,1,0.3s0.4,0.5,0.4,0.9v2.2H15.2z M14.9,50.6l-0.3,0c-0.3,0-0.5,0.1-0.6,0.1
		s-0.2,0.2-0.2,0.4c0,0.3,0.1,0.4,0.4,0.4c0.2,0,0.4-0.1,0.5-0.2s0.2-0.3,0.2-0.5V50.6z"/>
	<path id="XMLID_145_" class="st4" d="M17.8,52.2c-0.4,0-0.7-0.1-0.9-0.4s-0.3-0.7-0.3-1.2c0-0.5,0.1-1,0.3-1.3s0.5-0.4,0.9-0.4
		c0.4,0,0.7,0.2,0.9,0.5h0c0-0.2-0.1-0.5-0.1-0.7v-1h0.9v4.6h-0.7l-0.2-0.4h0C18.5,52,18.2,52.2,17.8,52.2z M18.1,51.5
		c0.2,0,0.4-0.1,0.5-0.2s0.2-0.4,0.2-0.7v-0.1c0-0.4-0.1-0.6-0.2-0.8s-0.3-0.2-0.5-0.2c-0.2,0-0.4,0.1-0.5,0.3s-0.2,0.4-0.2,0.7
		s0.1,0.6,0.2,0.7S17.9,51.5,18.1,51.5z"/>
	<path id="XMLID_148_" class="st4" d="M20.5,48c0-0.3,0.2-0.4,0.5-0.4s0.5,0.1,0.5,0.4c0,0.1,0,0.2-0.1,0.3s-0.2,0.1-0.4,0.1
		C20.7,48.5,20.5,48.3,20.5,48z M21.4,52.1h-0.9v-3.3h0.9V52.1z"/>
	<path id="XMLID_151_" class="st4" d="M24.5,52.1l-0.2-0.4h0c-0.2,0.2-0.3,0.3-0.5,0.4s-0.4,0.1-0.6,0.1c-0.3,0-0.6-0.1-0.7-0.3
		s-0.3-0.4-0.3-0.8c0-0.3,0.1-0.6,0.4-0.8s0.6-0.3,1.1-0.3l0.6,0V50c0-0.3-0.2-0.5-0.5-0.5c-0.3,0-0.6,0.1-0.9,0.2l-0.3-0.6
		c0.4-0.2,0.8-0.3,1.3-0.3c0.4,0,0.8,0.1,1,0.3s0.4,0.5,0.4,0.9v2.2H24.5z M24.2,50.6l-0.3,0c-0.3,0-0.5,0.1-0.6,0.1
		s-0.2,0.2-0.2,0.4c0,0.3,0.1,0.4,0.4,0.4c0.2,0,0.4-0.1,0.5-0.2s0.2-0.3,0.2-0.5V50.6z"/>
	<path id="XMLID_154_" class="st4" d="M29,52.1h-0.9v-1.9c0-0.5-0.2-0.7-0.5-0.7c-0.3,0-0.4,0.1-0.5,0.3s-0.2,0.4-0.2,0.8v1.5H26
		v-4.6h0.9v0.9c0,0.1,0,0.2,0,0.5l0,0.3h0c0.2-0.3,0.5-0.5,0.9-0.5c0.4,0,0.7,0.1,0.9,0.3S29,49.6,29,50V52.1z"/>
	<path id="XMLID_156_" class="st4" d="M32.5,52.2c-0.4,0-0.7-0.1-0.9-0.4s-0.3-0.7-0.3-1.2c0-0.5,0.1-1,0.3-1.3s0.5-0.4,0.9-0.4
		c0.4,0,0.7,0.2,0.9,0.5h0c0-0.2-0.1-0.5-0.1-0.7v-1h0.9v4.6h-0.7l-0.2-0.4h0C33.3,52,33,52.2,32.5,52.2z M32.9,51.5
		c0.2,0,0.4-0.1,0.5-0.2s0.2-0.4,0.2-0.7v-0.1c0-0.4-0.1-0.6-0.2-0.8s-0.3-0.2-0.5-0.2c-0.2,0-0.4,0.1-0.5,0.3s-0.2,0.4-0.2,0.7
		s0.1,0.6,0.2,0.7S32.6,51.5,32.9,51.5z"/>
	<path id="XMLID_159_" class="st4" d="M37.4,52.1l-0.2-0.4h0c-0.2,0.2-0.3,0.3-0.5,0.4s-0.4,0.1-0.6,0.1c-0.3,0-0.6-0.1-0.7-0.3
		s-0.3-0.4-0.3-0.8c0-0.3,0.1-0.6,0.4-0.8s0.6-0.3,1.1-0.3l0.6,0V50c0-0.3-0.2-0.5-0.5-0.5c-0.3,0-0.6,0.1-0.9,0.2l-0.3-0.6
		c0.4-0.2,0.8-0.3,1.3-0.3c0.4,0,0.8,0.1,1,0.3S38,49.6,38,50v2.2H37.4z M37.1,50.6l-0.3,0c-0.3,0-0.5,0.1-0.6,0.1S36,51,36,51.2
		c0,0.3,0.1,0.4,0.4,0.4c0.2,0,0.4-0.1,0.5-0.2s0.2-0.3,0.2-0.5V50.6z"/>
	<path id="XMLID_162_" class="st4" d="M40.8,48.8c0.1,0,0.2,0,0.3,0L41,49.7c-0.1,0-0.2,0-0.3,0c-0.3,0-0.5,0.1-0.7,0.2
		s-0.2,0.4-0.2,0.6v1.7h-0.9v-3.3h0.7l0.1,0.6h0c0.1-0.2,0.2-0.3,0.4-0.4S40.5,48.8,40.8,48.8z"/>
	<path id="XMLID_164_" class="st4" d="M41.6,48c0-0.3,0.2-0.4,0.5-0.4s0.5,0.1,0.5,0.4c0,0.1,0,0.2-0.1,0.3s-0.2,0.1-0.4,0.1
		C41.8,48.5,41.6,48.3,41.6,48z M42.5,52.1h-0.9v-3.3h0.9V52.1z"/>
	<path id="XMLID_167_" class="st4" d="M47.6,47.9h0.9L47,52.1h-1l-1.5-4.3h0.9l0.8,2.5c0,0.2,0.1,0.3,0.1,0.5s0.1,0.3,0.1,0.4
		c0-0.2,0.1-0.5,0.2-0.9L47.6,47.9z"/>
	<path id="XMLID_169_" class="st4" d="M48.9,48c0-0.3,0.2-0.4,0.5-0.4s0.5,0.1,0.5,0.4c0,0.1,0,0.2-0.1,0.3s-0.2,0.1-0.4,0.1
		C49.1,48.5,48.9,48.3,48.9,48z M49.8,52.1h-0.9v-3.3h0.9V52.1z"/>
	<path id="XMLID_172_" class="st4" d="M52.3,52.2c-0.5,0-0.9-0.1-1.2-0.4s-0.4-0.7-0.4-1.2c0-0.5,0.1-1,0.4-1.3s0.7-0.4,1.1-0.4
		c0.5,0,0.8,0.1,1.1,0.4s0.4,0.6,0.4,1.1v0.4h-2.1c0,0.3,0.1,0.5,0.2,0.6s0.3,0.2,0.6,0.2c0.2,0,0.4,0,0.6-0.1s0.4-0.1,0.6-0.2V52
		c-0.2,0.1-0.3,0.1-0.5,0.2S52.5,52.2,52.3,52.2z M52.1,49.4c-0.2,0-0.3,0.1-0.4,0.2s-0.2,0.3-0.2,0.5h1.3c0-0.2-0.1-0.4-0.2-0.5
		S52.3,49.4,52.1,49.4z"/>
	<path id="XMLID_175_" class="st4" d="M55.7,51.5c0.2,0,0.3,0,0.6-0.1v0.7c-0.2,0.1-0.5,0.1-0.8,0.1c-0.4,0-0.6-0.1-0.8-0.3
		s-0.2-0.5-0.2-0.8v-1.6H54v-0.4l0.5-0.3l0.3-0.7h0.6v0.7h0.9v0.7h-0.9v1.6c0,0.1,0,0.2,0.1,0.3S55.6,51.5,55.7,51.5z"/>
	<path id="XMLID_177_" class="st4" d="M59.9,52.1H59v-1.9c0-0.2,0-0.4-0.1-0.5s-0.2-0.2-0.4-0.2c-0.3,0-0.4,0.1-0.5,0.3
		s-0.2,0.4-0.2,0.8v1.5h-0.9v-3.3h0.7l0.1,0.4h0c0.1-0.2,0.2-0.3,0.4-0.4s0.4-0.1,0.6-0.1c0.4,0,0.7,0.1,0.9,0.3s0.3,0.5,0.3,0.9
		V52.1z"/>
	<path id="XMLID_179_" class="st4" d="M62.9,52.1l-0.2-0.4h0c-0.2,0.2-0.3,0.3-0.5,0.4s-0.4,0.1-0.6,0.1c-0.3,0-0.6-0.1-0.7-0.3
		s-0.3-0.4-0.3-0.8c0-0.3,0.1-0.6,0.4-0.8s0.6-0.3,1.1-0.3l0.6,0V50c0-0.3-0.2-0.5-0.5-0.5c-0.3,0-0.6,0.1-0.9,0.2l-0.3-0.6
		c0.4-0.2,0.8-0.3,1.3-0.3c0.4,0,0.8,0.1,1,0.3s0.4,0.5,0.4,0.9v2.2H62.9z M62.7,50.6l-0.3,0c-0.3,0-0.5,0.1-0.6,0.1
		s-0.2,0.2-0.2,0.4c0,0.3,0.1,0.4,0.4,0.4c0.2,0,0.4-0.1,0.5-0.2s0.2-0.3,0.2-0.5V50.6z"/>
	<path id="XMLID_182_" class="st4" d="M67.4,52.1h-0.9v-1.9c0-0.2,0-0.4-0.1-0.5s-0.2-0.2-0.4-0.2c-0.2,0-0.4,0.1-0.5,0.3
		s-0.2,0.4-0.2,0.8v1.5h-0.9v-3.3h0.7l0.1,0.4h0c0.1-0.2,0.2-0.3,0.4-0.4s0.4-0.1,0.6-0.1c0.5,0,0.8,0.2,1,0.5h0.1
		c0.1-0.2,0.2-0.3,0.4-0.4s0.4-0.1,0.6-0.1c0.4,0,0.7,0.1,0.8,0.3s0.3,0.5,0.3,0.9v2.1h-0.9v-1.9c0-0.2,0-0.4-0.1-0.5
		s-0.2-0.2-0.4-0.2c-0.2,0-0.4,0.1-0.5,0.2s-0.2,0.4-0.2,0.7V52.1z"/>
	<path id="XMLID_184_" class="st4" d="M71.5,48.9h1l0.6,1.8c0.1,0.2,0.1,0.3,0.1,0.6h0c0-0.2,0.1-0.4,0.1-0.6l0.6-1.8h1l-1.4,3.7
		c-0.1,0.3-0.3,0.6-0.5,0.8s-0.5,0.3-0.8,0.3c-0.2,0-0.3,0-0.5,0v-0.7c0.1,0,0.2,0,0.4,0c0.2,0,0.3,0,0.4-0.1s0.2-0.2,0.3-0.4
		l0.1-0.2L71.5,48.9z"/>
	<path id="XMLID_186_" class="st4" d="M77.4,52.1l-0.2-0.4h0c-0.2,0.2-0.3,0.3-0.5,0.4s-0.4,0.1-0.6,0.1c-0.3,0-0.6-0.1-0.7-0.3
		s-0.3-0.4-0.3-0.8c0-0.3,0.1-0.6,0.4-0.8s0.6-0.3,1.1-0.3l0.6,0V50c0-0.3-0.2-0.5-0.5-0.5c-0.3,0-0.6,0.1-0.9,0.2l-0.3-0.6
		c0.4-0.2,0.8-0.3,1.3-0.3c0.4,0,0.8,0.1,1,0.3s0.4,0.5,0.4,0.9v2.2H77.4z M77.2,50.6l-0.3,0c-0.3,0-0.5,0.1-0.6,0.1S76,51,76,51.2
		c0,0.3,0.1,0.4,0.4,0.4c0.2,0,0.4-0.1,0.5-0.2s0.2-0.3,0.2-0.5V50.6z"/>
	<path id="XMLID_189_" class="st4" d="M82,52.1h-0.9v-1.9c0-0.2,0-0.4-0.1-0.5s-0.2-0.2-0.4-0.2c-0.3,0-0.4,0.1-0.5,0.3
		s-0.2,0.4-0.2,0.8v1.5H79v-3.3h0.7l0.1,0.4h0c0.1-0.2,0.2-0.3,0.4-0.4s0.4-0.1,0.6-0.1c0.4,0,0.7,0.1,0.9,0.3S82,49.6,82,50V52.1z"
		/>
	<path id="XMLID_191_" class="st4" d="M85.8,52.2c0,0.5-0.1,0.8-0.4,1.1s-0.7,0.4-1.2,0.4c-0.5,0-0.9-0.1-1.2-0.2v-0.7
		c0.4,0.2,0.8,0.3,1.3,0.3c0.5,0,0.7-0.2,0.7-0.7v-0.1l0-0.4h0c-0.2,0.3-0.5,0.5-0.9,0.5c-0.4,0-0.7-0.2-0.9-0.5s-0.3-0.7-0.3-1.2
		c0-0.5,0.1-1,0.3-1.3s0.5-0.4,0.9-0.4c0.4,0,0.7,0.2,0.9,0.5h0l0.1-0.4h0.8V52.2z M84.3,51.5c0.2,0,0.4-0.1,0.5-0.2
		s0.2-0.4,0.2-0.7v-0.1c0-0.3-0.1-0.6-0.2-0.8s-0.3-0.2-0.5-0.2c-0.4,0-0.6,0.3-0.6,1c0,0.3,0.1,0.6,0.2,0.7S84.1,51.5,84.3,51.5z"
		/>
	<path id="XMLID_194_" class="st4" d="M9.4,59.3H8.5v-3.5H7.4v-0.8h3.2v0.8H9.4V59.3z"/>
	<path id="XMLID_196_" class="st4" d="M11.1,55.2c0-0.3,0.2-0.4,0.5-0.4s0.5,0.1,0.5,0.4c0,0.1,0,0.2-0.1,0.3s-0.2,0.1-0.4,0.1
		C11.3,55.7,11.1,55.5,11.1,55.2z M12.1,59.3h-0.9v-3.3h0.9V59.3z"/>
	<path id="XMLID_199_" class="st4" d="M14,59.4c-0.4,0-0.7-0.1-0.9-0.4s-0.3-0.7-0.3-1.2c0-0.5,0.1-1,0.3-1.3s0.5-0.4,0.9-0.4
		c0.4,0,0.7,0.2,0.9,0.5h0c0-0.2-0.1-0.5-0.1-0.7v-1h0.9v4.6h-0.7L15,58.9h0C14.8,59.2,14.5,59.4,14,59.4z M14.4,58.7
		c0.2,0,0.4-0.1,0.5-0.2s0.2-0.4,0.2-0.7v-0.1c0-0.4-0.1-0.6-0.2-0.8s-0.3-0.2-0.5-0.2c-0.2,0-0.4,0.1-0.5,0.3s-0.2,0.4-0.2,0.7
		s0.1,0.6,0.2,0.7S14.2,58.7,14.4,58.7z"/>
	<path id="XMLID_202_" class="st4" d="M18.9,59.3l-0.2-0.4h0c-0.2,0.2-0.3,0.3-0.5,0.4s-0.4,0.1-0.6,0.1c-0.3,0-0.6-0.1-0.7-0.3
		s-0.3-0.4-0.3-0.8c0-0.3,0.1-0.6,0.4-0.8s0.6-0.3,1.1-0.3l0.6,0v-0.1c0-0.3-0.2-0.5-0.5-0.5c-0.3,0-0.6,0.1-0.9,0.2l-0.3-0.6
		c0.4-0.2,0.8-0.3,1.3-0.3c0.4,0,0.8,0.1,1,0.3s0.4,0.5,0.4,0.9v2.2H18.9z M18.6,57.8l-0.3,0c-0.3,0-0.5,0.1-0.6,0.1
		s-0.2,0.2-0.2,0.4c0,0.3,0.1,0.4,0.4,0.4c0.2,0,0.4-0.1,0.5-0.2s0.2-0.3,0.2-0.5V57.8z"/>
	<path id="XMLID_205_" class="st4" d="M21.3,57.6l0.4-0.5l0.9-1h1l-1.3,1.4l1.4,1.9h-1L21.7,58l-0.4,0.3v1h-0.9v-4.6h0.9v2
		L21.3,57.6L21.3,57.6z"/>
	<path id="XMLID_207_" class="st4" d="M27.6,55.8c-0.3,0-0.6,0.1-0.8,0.4s-0.3,0.6-0.3,1.1c0,1,0.4,1.4,1.1,1.4
		c0.3,0,0.7-0.1,1.1-0.2v0.8c-0.4,0.1-0.7,0.2-1.2,0.2c-0.6,0-1.1-0.2-1.4-0.6s-0.5-0.9-0.5-1.6c0-0.4,0.1-0.8,0.2-1.2
		s0.4-0.6,0.7-0.8s0.7-0.3,1.1-0.3c0.4,0,0.8,0.1,1.3,0.3L28.6,56c-0.2-0.1-0.3-0.1-0.5-0.2S27.8,55.8,27.6,55.8z"/>
	<path id="XMLID_209_" class="st4" d="M32.5,57.7c0,0.5-0.1,1-0.4,1.3s-0.7,0.5-1.2,0.5c-0.3,0-0.6-0.1-0.8-0.2s-0.4-0.3-0.6-0.6
		s-0.2-0.6-0.2-0.9c0-0.5,0.1-1,0.4-1.2s0.7-0.4,1.2-0.4c0.3,0,0.6,0.1,0.8,0.2s0.4,0.3,0.6,0.6S32.5,57.4,32.5,57.7z M30.2,57.7
		c0,0.3,0.1,0.6,0.2,0.7s0.3,0.2,0.5,0.2c0.2,0,0.4-0.1,0.5-0.2s0.2-0.4,0.2-0.7c0-0.3-0.1-0.6-0.2-0.7s-0.3-0.2-0.5-0.2
		c-0.2,0-0.4,0.1-0.5,0.2S30.2,57.4,30.2,57.7z"/>
	<path id="XMLID_212_" class="st4" d="M34.6,59.4c-1,0-1.5-0.6-1.5-1.7c0-0.6,0.1-1,0.4-1.3s0.7-0.4,1.2-0.4c0.4,0,0.7,0.1,1,0.2
		l-0.3,0.7c-0.1-0.1-0.3-0.1-0.4-0.1s-0.2-0.1-0.4-0.1c-0.5,0-0.7,0.3-0.7,1c0,0.6,0.2,1,0.7,1c0.2,0,0.3,0,0.5-0.1s0.3-0.1,0.4-0.2
		v0.8c-0.1,0.1-0.3,0.2-0.4,0.2S34.8,59.4,34.6,59.4z"/>
	<path id="XMLID_214_" class="st4" d="M39.3,57.7c0,0.5-0.1,1-0.4,1.3s-0.7,0.5-1.2,0.5c-0.3,0-0.6-0.1-0.8-0.2s-0.4-0.3-0.6-0.6
		s-0.2-0.6-0.2-0.9c0-0.5,0.1-1,0.4-1.2s0.7-0.4,1.2-0.4c0.3,0,0.6,0.1,0.8,0.2s0.4,0.3,0.6,0.6S39.3,57.4,39.3,57.7z M37,57.7
		c0,0.3,0.1,0.6,0.2,0.7s0.3,0.2,0.5,0.2c0.2,0,0.4-0.1,0.5-0.2s0.2-0.4,0.2-0.7c0-0.3-0.1-0.6-0.2-0.7s-0.3-0.2-0.5-0.2
		c-0.2,0-0.4,0.1-0.5,0.2S37,57.4,37,57.7z"/>
	<path id="XMLID_217_" class="st4" d="M40.9,57.6l0.4-0.5l0.9-1h1l-1.3,1.4l1.4,1.9h-1L41.3,58l-0.4,0.3v1H40v-4.6h0.9v2L40.9,57.6
		L40.9,57.6z"/>
	<path id="XMLID_219_" class="st4" d="M49,57.2c0,0.7-0.2,1.2-0.6,1.6s-1,0.6-1.7,0.6h-1.2v-4.3h1.3c0.7,0,1.2,0.2,1.6,0.6
		S49,56.5,49,57.2z M48,57.2c0-0.9-0.4-1.4-1.2-1.4h-0.5v2.8h0.4C47.6,58.6,48,58.1,48,57.2z"/>
	<path id="XMLID_222_" class="st4" d="M49.7,55.2c0-0.3,0.2-0.4,0.5-0.4s0.5,0.1,0.5,0.4c0,0.1,0,0.2-0.1,0.3s-0.2,0.1-0.4,0.1
		C49.9,55.7,49.7,55.5,49.7,55.2z M50.7,59.3h-0.9v-3.3h0.9V59.3z"/>
	<path id="XMLID_225_" class="st4" d="M53,58.7c0.2,0,0.3,0,0.6-0.1v0.7c-0.2,0.1-0.5,0.1-0.8,0.1c-0.4,0-0.6-0.1-0.8-0.3
		s-0.2-0.5-0.2-0.8v-1.6h-0.4v-0.4l0.5-0.3l0.3-0.7h0.6v0.7h0.9v0.7h-0.9v1.6c0,0.1,0,0.2,0.1,0.3S52.9,58.7,53,58.7z"/>
	<path id="XMLID_227_" class="st4" d="M55.7,59.4c-0.5,0-0.9-0.1-1.2-0.4S54,58.3,54,57.7c0-0.5,0.1-1,0.4-1.3s0.7-0.4,1.1-0.4
		c0.5,0,0.8,0.1,1.1,0.4S57,57,57,57.5v0.4h-2.1c0,0.3,0.1,0.5,0.2,0.6s0.3,0.2,0.6,0.2c0.2,0,0.4,0,0.6-0.1s0.4-0.1,0.6-0.2v0.7
		c-0.2,0.1-0.3,0.1-0.5,0.2S55.9,59.4,55.7,59.4z M55.6,56.6c-0.2,0-0.3,0.1-0.4,0.2s-0.2,0.3-0.2,0.5h1.3c0-0.2-0.1-0.4-0.2-0.5
		S55.7,56.6,55.6,56.6z"/>
	<path id="XMLID_230_" class="st4" d="M59.6,56c0.1,0,0.2,0,0.3,0l-0.1,0.8c-0.1,0-0.2,0-0.3,0c-0.3,0-0.5,0.1-0.7,0.2
		s-0.2,0.4-0.2,0.6v1.7h-0.9v-3.3h0.7l0.1,0.6h0c0.1-0.2,0.2-0.3,0.4-0.4S59.4,56,59.6,56z"/>
	<path id="XMLID_232_" class="st4" d="M62.5,59.3l-0.2-0.4h0c-0.2,0.2-0.3,0.3-0.5,0.4s-0.4,0.1-0.6,0.1c-0.3,0-0.6-0.1-0.7-0.3
		s-0.3-0.4-0.3-0.8c0-0.3,0.1-0.6,0.4-0.8s0.6-0.3,1.1-0.3l0.6,0v-0.1c0-0.3-0.2-0.5-0.5-0.5c-0.3,0-0.6,0.1-0.9,0.2l-0.3-0.6
		c0.4-0.2,0.8-0.3,1.3-0.3c0.4,0,0.8,0.1,1,0.3s0.4,0.5,0.4,0.9v2.2H62.5z M62.2,57.8l-0.3,0c-0.3,0-0.5,0.1-0.6,0.1
		s-0.2,0.2-0.2,0.4c0,0.3,0.1,0.4,0.4,0.4c0.2,0,0.4-0.1,0.5-0.2s0.2-0.3,0.2-0.5V57.8z"/>
	<path id="XMLID_235_" class="st4" d="M65.8,59.4c-0.4,0-0.7-0.1-0.9-0.4h0c0,0.3,0,0.4,0,0.5v1.3H64v-4.7h0.7l0.1,0.4h0
		c0.2-0.3,0.5-0.5,0.9-0.5c0.4,0,0.7,0.1,0.9,0.4s0.3,0.7,0.3,1.2c0,0.3-0.1,0.7-0.2,0.9s-0.2,0.5-0.4,0.6S66.1,59.4,65.8,59.4z
		 M65.6,56.7c-0.2,0-0.4,0.1-0.5,0.2s-0.2,0.4-0.2,0.7v0.1c0,0.4,0.1,0.6,0.2,0.8s0.3,0.2,0.5,0.2c0.4,0,0.6-0.3,0.6-1
		c0-0.3,0-0.6-0.1-0.7S65.8,56.7,65.6,56.7z"/>
	<path id="XMLID_238_" class="st4" d="M68.7,57.6l0.4-0.5l0.9-1h1l-1.3,1.4l1.4,1.9h-1L69.1,58l-0.4,0.3v1h-0.9v-4.6h0.9v2
		L68.7,57.6L68.7,57.6z"/>
	<path id="XMLID_240_" class="st4" d="M73.6,59.3l-0.2-0.4h0c-0.2,0.2-0.3,0.3-0.5,0.4s-0.4,0.1-0.6,0.1c-0.3,0-0.6-0.1-0.7-0.3
		s-0.3-0.4-0.3-0.8c0-0.3,0.1-0.6,0.4-0.8s0.6-0.3,1.1-0.3l0.6,0v-0.1c0-0.3-0.2-0.5-0.5-0.5c-0.3,0-0.6,0.1-0.9,0.2l-0.3-0.6
		c0.4-0.2,0.8-0.3,1.3-0.3c0.4,0,0.8,0.1,1,0.3s0.4,0.5,0.4,0.9v2.2H73.6z M73.4,57.8l-0.3,0c-0.3,0-0.5,0.1-0.6,0.1
		s-0.2,0.2-0.2,0.4c0,0.3,0.1,0.4,0.4,0.4c0.2,0,0.4-0.1,0.5-0.2s0.2-0.3,0.2-0.5V57.8z"/>
	<path id="XMLID_243_" class="st4" d="M78.2,59.3h-0.9v-1.9c0-0.2,0-0.4-0.1-0.5s-0.2-0.2-0.4-0.2c-0.3,0-0.4,0.1-0.5,0.3
		s-0.2,0.4-0.2,0.8v1.5h-0.9v-3.3h0.7l0.1,0.4h0c0.1-0.2,0.2-0.3,0.4-0.4S76.8,56,77,56c0.4,0,0.7,0.1,0.9,0.3s0.3,0.5,0.3,0.9V59.3
		z"/>
	<path id="XMLID_245_" class="st4" d="M11.1,66.6c-0.4,0-0.7-0.1-0.9-0.4s-0.3-0.7-0.3-1.2c0-0.5,0.1-1,0.3-1.3s0.5-0.4,0.9-0.4
		c0.4,0,0.7,0.2,0.9,0.5h0c0-0.2-0.1-0.5-0.1-0.7v-1h0.9v4.6h-0.7L12,66.1h0C11.8,66.4,11.5,66.6,11.1,66.6z M11.4,65.9
		c0.2,0,0.4-0.1,0.5-0.2S12,65.3,12,65v-0.1c0-0.4-0.1-0.6-0.2-0.8s-0.3-0.2-0.5-0.2c-0.2,0-0.4,0.1-0.5,0.3s-0.2,0.4-0.2,0.7
		s0.1,0.6,0.2,0.7S11.2,65.9,11.4,65.9z"/>
	<path id="XMLID_248_" class="st4" d="M13.8,62.4c0-0.3,0.2-0.4,0.5-0.4s0.5,0.1,0.5,0.4c0,0.1,0,0.2-0.1,0.3s-0.2,0.1-0.4,0.1
		C13.9,62.9,13.8,62.7,13.8,62.4z M14.7,66.5h-0.9v-3.3h0.9V66.5z"/>
	<path id="XMLID_251_" class="st4" d="M21.1,66.5h-1.2l-1.9-3.2h0c0,0.6,0.1,1,0.1,1.2v2h-0.8v-4.3h1.1l1.9,3.2h0c0-0.6,0-1,0-1.2
		v-2h0.8V66.5z"/>
	<path id="XMLID_253_" class="st4" d="M23.6,66.6c-0.5,0-0.9-0.1-1.2-0.4s-0.4-0.7-0.4-1.2c0-0.5,0.1-1,0.4-1.3s0.7-0.4,1.1-0.4
		c0.5,0,0.8,0.1,1.1,0.4s0.4,0.6,0.4,1.1v0.4h-2.1c0,0.3,0.1,0.5,0.2,0.6s0.3,0.2,0.6,0.2c0.2,0,0.4,0,0.6-0.1s0.4-0.1,0.6-0.2v0.7
		c-0.2,0.1-0.3,0.1-0.5,0.2S23.8,66.6,23.6,66.6z M23.4,63.8c-0.2,0-0.3,0.1-0.4,0.2s-0.2,0.3-0.2,0.5h1.3c0-0.2-0.1-0.4-0.2-0.5
		S23.6,63.8,23.4,63.8z"/>
	<path id="XMLID_256_" class="st4" d="M28.5,66.6c0,0.5-0.1,0.8-0.4,1.1S27.4,68,26.8,68c-0.5,0-0.9-0.1-1.2-0.2v-0.7
		c0.4,0.2,0.8,0.3,1.3,0.3c0.5,0,0.7-0.2,0.7-0.7v-0.1l0-0.4h0c-0.2,0.3-0.5,0.5-0.9,0.5c-0.4,0-0.7-0.2-0.9-0.5s-0.3-0.7-0.3-1.2
		c0-0.5,0.1-1,0.3-1.3s0.5-0.4,0.9-0.4c0.4,0,0.7,0.2,0.9,0.5h0l0.1-0.4h0.8V66.6z M27,65.9c0.2,0,0.4-0.1,0.5-0.2s0.2-0.4,0.2-0.7
		v-0.1c0-0.3-0.1-0.6-0.2-0.8s-0.3-0.2-0.5-0.2c-0.4,0-0.6,0.3-0.6,1c0,0.3,0.1,0.6,0.2,0.7S26.8,65.9,27,65.9z"/>
	<path id="XMLID_259_" class="st4" d="M31.5,66.5l-0.2-0.4h0c-0.2,0.2-0.3,0.3-0.5,0.4s-0.4,0.1-0.6,0.1c-0.3,0-0.6-0.1-0.7-0.3
		s-0.3-0.4-0.3-0.8c0-0.3,0.1-0.6,0.4-0.8s0.6-0.3,1.1-0.3l0.6,0v-0.1c0-0.3-0.2-0.5-0.5-0.5c-0.3,0-0.6,0.1-0.9,0.2l-0.3-0.6
		c0.4-0.2,0.8-0.3,1.3-0.3c0.4,0,0.8,0.1,1,0.3s0.4,0.5,0.4,0.9v2.2H31.5z M31.2,65l-0.3,0c-0.3,0-0.5,0.1-0.6,0.1s-0.2,0.2-0.2,0.4
		c0,0.3,0.1,0.4,0.4,0.4c0.2,0,0.4-0.1,0.5-0.2s0.2-0.3,0.2-0.5V65z"/>
	<path id="XMLID_262_" class="st4" d="M34.9,63.2c0.1,0,0.2,0,0.3,0l-0.1,0.8c-0.1,0-0.2,0-0.3,0c-0.3,0-0.5,0.1-0.7,0.2
		s-0.2,0.4-0.2,0.6v1.7H33v-3.3h0.7l0.1,0.6h0c0.1-0.2,0.2-0.3,0.4-0.4S34.7,63.2,34.9,63.2z"/>
	<path id="XMLID_264_" class="st4" d="M37.8,66.5l-0.2-0.4h0c-0.2,0.2-0.3,0.3-0.5,0.4s-0.4,0.1-0.6,0.1c-0.3,0-0.6-0.1-0.7-0.3
		s-0.3-0.4-0.3-0.8c0-0.3,0.1-0.6,0.4-0.8s0.6-0.3,1.1-0.3l0.6,0v-0.1c0-0.3-0.2-0.5-0.5-0.5c-0.3,0-0.6,0.1-0.9,0.2l-0.3-0.6
		c0.4-0.2,0.8-0.3,1.3-0.3c0.4,0,0.8,0.1,1,0.3s0.4,0.5,0.4,0.9v2.2H37.8z M37.5,65l-0.3,0c-0.3,0-0.5,0.1-0.6,0.1s-0.2,0.2-0.2,0.4
		c0,0.3,0.1,0.4,0.4,0.4c0.2,0,0.4-0.1,0.5-0.2s0.2-0.3,0.2-0.5V65z"/>
	<path id="XMLID_267_" class="st4" d="M39,65.3v-0.7h1.6v0.7H39z"/>
	<path id="XMLID_269_" class="st4" d="M44.3,66.5h-0.9v-1.9c0-0.2,0-0.4-0.1-0.5s-0.2-0.2-0.4-0.2c-0.3,0-0.4,0.1-0.5,0.3
		s-0.2,0.4-0.2,0.8v1.5h-0.9v-3.3h0.7l0.1,0.4h0c0.1-0.2,0.2-0.3,0.4-0.4s0.4-0.1,0.6-0.1c0.4,0,0.7,0.1,0.9,0.3s0.3,0.5,0.3,0.9
		V66.5z"/>
	<path id="XMLID_271_" class="st4" d="M46.7,66.6c-0.5,0-0.9-0.1-1.2-0.4S45,65.5,45,64.9c0-0.5,0.1-1,0.4-1.3s0.7-0.4,1.1-0.4
		c0.5,0,0.8,0.1,1.1,0.4s0.4,0.6,0.4,1.1v0.4h-2.1c0,0.3,0.1,0.5,0.2,0.6s0.3,0.2,0.6,0.2c0.2,0,0.4,0,0.6-0.1s0.4-0.1,0.6-0.2v0.7
		c-0.2,0.1-0.3,0.1-0.5,0.2S46.9,66.6,46.7,66.6z M46.6,63.8c-0.2,0-0.3,0.1-0.4,0.2s-0.2,0.3-0.2,0.5h1.3c0-0.2-0.1-0.4-0.2-0.5
		S46.8,63.8,46.6,63.8z"/>
	<path id="XMLID_274_" class="st4" d="M51.6,66.6c0,0.5-0.1,0.8-0.4,1.1S50.5,68,50,68c-0.5,0-0.9-0.1-1.2-0.2v-0.7
		c0.4,0.2,0.8,0.3,1.3,0.3c0.5,0,0.7-0.2,0.7-0.7v-0.1l0-0.4h0c-0.2,0.3-0.5,0.5-0.9,0.5c-0.4,0-0.7-0.2-0.9-0.5s-0.3-0.7-0.3-1.2
		c0-0.5,0.1-1,0.3-1.3s0.5-0.4,0.9-0.4c0.4,0,0.7,0.2,0.9,0.5h0l0.1-0.4h0.8V66.6z M50.1,65.9c0.2,0,0.4-0.1,0.5-0.2
		s0.2-0.4,0.2-0.7v-0.1c0-0.3-0.1-0.6-0.2-0.8s-0.3-0.2-0.5-0.2c-0.4,0-0.6,0.3-0.6,1c0,0.3,0.1,0.6,0.2,0.7S49.9,65.9,50.1,65.9z"
		/>
	<path id="XMLID_277_" class="st4" d="M54.6,66.5l-0.2-0.4h0c-0.2,0.2-0.3,0.3-0.5,0.4s-0.4,0.1-0.6,0.1c-0.3,0-0.6-0.1-0.7-0.3
		s-0.3-0.4-0.3-0.8c0-0.3,0.1-0.6,0.4-0.8s0.6-0.3,1.1-0.3l0.6,0v-0.1c0-0.3-0.2-0.5-0.5-0.5c-0.3,0-0.6,0.1-0.9,0.2l-0.3-0.6
		c0.4-0.2,0.8-0.3,1.3-0.3c0.4,0,0.8,0.1,1,0.3s0.4,0.5,0.4,0.9v2.2H54.6z M54.4,65L54,65c-0.3,0-0.5,0.1-0.6,0.1s-0.2,0.2-0.2,0.4
		c0,0.3,0.1,0.4,0.4,0.4c0.2,0,0.4-0.1,0.5-0.2s0.2-0.3,0.2-0.5V65z"/>
	<path id="XMLID_280_" class="st4" d="M58,63.2c0.1,0,0.2,0,0.3,0l-0.1,0.8c-0.1,0-0.2,0-0.3,0c-0.3,0-0.5,0.1-0.7,0.2
		s-0.2,0.4-0.2,0.6v1.7h-0.9v-3.3h0.7l0.1,0.6h0c0.1-0.2,0.2-0.3,0.4-0.4S57.8,63.2,58,63.2z"/>
	<path id="XMLID_282_" class="st4" d="M60.9,66.5l-0.2-0.4h0c-0.2,0.2-0.3,0.3-0.5,0.4s-0.4,0.1-0.6,0.1c-0.3,0-0.6-0.1-0.7-0.3
		s-0.3-0.4-0.3-0.8c0-0.3,0.1-0.6,0.4-0.8s0.6-0.3,1.1-0.3l0.6,0v-0.1c0-0.3-0.2-0.5-0.5-0.5c-0.3,0-0.6,0.1-0.9,0.2l-0.3-0.6
		c0.4-0.2,0.8-0.3,1.3-0.3c0.4,0,0.8,0.1,1,0.3s0.4,0.5,0.4,0.9v2.2H60.9z M60.7,65l-0.3,0c-0.3,0-0.5,0.1-0.6,0.1s-0.2,0.2-0.2,0.4
		c0,0.3,0.1,0.4,0.4,0.4c0.2,0,0.4-0.1,0.5-0.2s0.2-0.3,0.2-0.5V65z"/>
	<path id="XMLID_285_" class="st4" d="M64.1,66.5v-4.3H65v3.5h1.7v0.8H64.1z"/>
	<path id="XMLID_287_" class="st4" d="M69.5,66.5l-0.2-0.4h0c-0.2,0.2-0.3,0.3-0.5,0.4s-0.4,0.1-0.6,0.1c-0.3,0-0.6-0.1-0.7-0.3
		s-0.3-0.4-0.3-0.8c0-0.3,0.1-0.6,0.4-0.8s0.6-0.3,1.1-0.3l0.6,0v-0.1c0-0.3-0.2-0.5-0.5-0.5c-0.3,0-0.6,0.1-0.9,0.2l-0.3-0.6
		c0.4-0.2,0.8-0.3,1.3-0.3c0.4,0,0.8,0.1,1,0.3s0.4,0.5,0.4,0.9v2.2H69.5z M69.2,65l-0.3,0c-0.3,0-0.5,0.1-0.6,0.1s-0.2,0.2-0.2,0.4
		c0,0.3,0.1,0.4,0.4,0.4c0.2,0,0.4-0.1,0.5-0.2s0.2-0.3,0.2-0.5V65z"/>
	<path id="XMLID_290_" class="st4" d="M71,62.4c0-0.3,0.2-0.4,0.5-0.4s0.5,0.1,0.5,0.4c0,0.1,0,0.2-0.1,0.3s-0.2,0.1-0.4,0.1
		C71.2,62.9,71,62.7,71,62.4z M71.9,66.5H71v-3.3h0.9V66.5z"/>
	<path id="XMLID_293_" class="st4" d="M75.9,66.5H75v-1.9c0-0.2,0-0.4-0.1-0.5s-0.2-0.2-0.4-0.2c-0.3,0-0.4,0.1-0.5,0.3
		s-0.2,0.4-0.2,0.8v1.5h-0.9v-3.3h0.7l0.1,0.4h0c0.1-0.2,0.2-0.3,0.4-0.4s0.4-0.1,0.6-0.1c0.4,0,0.7,0.1,0.9,0.3s0.3,0.5,0.3,0.9
		V66.5z"/>
</g>
</svg>
