<!-- Generator: Adobe Illustrator 19.1.0, SVG Export Plug-In  -->
<svg version="1.1"
	 xmlns="http://www.w3.org/2000/svg" xmlns:xlink="http://www.w3.org/1999/xlink" xmlns:a="http://ns.adobe.com/AdobeSVGViewerExtensions/3.0/"
	 x="0px" y="0px" width="64.3px" height="62.4px" viewBox="0 0 64.3 62.4"
	 style="overflow:scroll;enable-background:new 0 0 64.3 62.4;" xml:space="preserve">
<style type="text/css">
	.st0{fill:#086A87;}
	.st1{fill:none;stroke:#086A87;stroke-width:2.0528;stroke-miterlimit:10;}
</style>
<defs>
</defs>
<g>
	<path class="st0" d="M32.1,31.7c0,3.7-1,6.7-3,8.8s-4.7,3.2-8.2,3.2c-2.2,0-4.1-0.5-5.8-1.4c-1.7-1-3-2.3-3.9-4.2s-1.4-3.9-1.4-6.3
		c0-3.7,1-6.7,2.9-8.7c2-2.1,4.7-3.1,8.2-3.1c2.2,0,4.1,0.5,5.8,1.4s3,2.3,3.9,4.1S32.1,29.3,32.1,31.7z M16.2,31.7
		c0,2.3,0.4,4,1.1,5.1c0.7,1.2,2,1.7,3.6,1.7c1.7,0,2.9-0.6,3.6-1.7c0.7-1.2,1.1-2.9,1.1-5.2c0-2.3-0.4-4-1.1-5.1s-1.9-1.7-3.6-1.7
		c-1.7,0-2.9,0.6-3.6,1.7C16.6,27.7,16.2,29.4,16.2,31.7z"/>
	<path class="st0" d="M50,19.8c0.8,0,1.6,0.1,2.1,0.2l-0.5,5.9c-0.5-0.1-1.1-0.2-1.8-0.2c-2,0-3.6,0.5-4.7,1.5
		c-1.1,1-1.7,2.5-1.7,4.3v11.7h-6.3V20.3H42l0.9,3.9h0.3c0.7-1.3,1.7-2.3,2.9-3.1C47.3,20.2,48.6,19.8,50,19.8z"/>
</g>
<g>
	<line class="st1" x1="64.3" y1="52.8" x2="0" y2="52.8"/>
	<line class="st1" x1="0" y1="1" x2="64.3" y2="1"/>
</g>
<g>
	<line class="st1" x1="64.3" y1="61.3" x2="0" y2="61.3"/>
	<line class="st1" x1="0" y1="9.5" x2="64.3" y2="9.5"/>
</g>
</svg>