<!-- Generator: Adobe Illustrator 19.1.0, SVG Export Plug-In  -->
<svg version="1.1"
	 xmlns="http://www.w3.org/2000/svg" xmlns:xlink="http://www.w3.org/1999/xlink" xmlns:a="http://ns.adobe.com/AdobeSVGViewerExtensions/3.0/"
	 x="0px" y="0px" width="191px" height="150.1px" viewBox="0 0 191 150.1"
	 style="overflow:scroll;enable-background:new 0 0 191 150.1;" xml:space="preserve">
<style type="text/css">
	.st0{fill:#FFFFFF;stroke:#ED6A4A;stroke-width:1.5403;stroke-miterlimit:10;}
	.st1{fill:#E3E3E3;stroke:#E3E3E3;stroke-width:1.5403;stroke-miterlimit:10;}
	.st2{fill:#ED6A4A;}
	.st3{fill:#FF6633;stroke:#FF6633;stroke-width:1.5403;stroke-linecap:round;stroke-linejoin:round;stroke-miterlimit:10;}
	.st4{fill:#33CCCC;stroke:#33CCCC;stroke-width:1.5403;stroke-miterlimit:10;}
	.st5{fill:none;stroke:#E3E3E3;stroke-width:1.5403;stroke-linecap:round;stroke-linejoin:round;stroke-miterlimit:10;}
	.st6{fill:none;stroke:#FFFFFF;stroke-width:1.5403;stroke-linecap:round;stroke-linejoin:round;stroke-miterlimit:10;}
	.st7{fill:#FF6633;stroke:#FF6633;stroke-width:1.5403;stroke-miterlimit:10;}
</style>
<defs>
</defs>
<g>
	<g>
		<rect x="118.6" y="71.7" class="st0" width="34.4" height="49.9"/>
		<path class="st1" d="M115,22.9h44.7v15.3l7.8,7.6v-16h0c-0.1-16-13.7-29-30.5-29c-16.8,0-30.4,13-30.5,29h0v17.8l8.4-8.3V22.9z"/>
		<path class="st0" d="M167.6,45.7l-7.8-7.6V22.9H115v16.3l-8.4,8.3v15.6h0c0,0,0,0.1,0,0.1c0,16.1,13.6,29.1,30.5,29.1
			c16.8,0,30.5-13,30.5-29.1c0,0,0-0.1,0-0.1h0V45.7z"/>
		<polygon class="st2" points="138.5,42.4 138.5,64 126.7,64 		"/>
		<circle class="st2" cx="153.3" cy="48.5" r="3.5"/>
		<path class="st0" d="M130.6,70.2c0,0,19.5,3.5,20.9-14.3"/>
		<circle class="st2" cx="120.3" cy="49.4" r="3.5"/>
		<g>
			<path class="st3" d="M81.5,140.5h33.4v-38.2C95.5,107,82,119.2,81.5,140.5z"/>
			<path class="st4" d="M135,100.1c-7.2,0-13.9,0.7-20.1,2.2v38.2h42v-37.9C150.1,101,142.7,100.1,135,100.1z"/>
			<path class="st3" d="M156.9,102.7v37.9h33.4C189.8,119.7,176,107.6,156.9,102.7z"/>
		</g>
		<line class="st5" x1="174" y1="129.2" x2="174" y2="140.5"/>
		<line class="st5" x1="98.1" y1="129.6" x2="98.1" y2="140.9"/>
		<polyline class="st6" points="125.7,100.8 137.8,112.9 137.8,139.9 		"/>
		<line class="st6" x1="137.8" y1="112.9" x2="146.9" y2="100.8"/>
	</g>
	<g>
		<rect x="37.9" y="71.7" class="st0" width="34.4" height="49.9"/>
		<path class="st1" d="M34.3,22.9H79v15.3l7.8,7.6v-16h0c-0.1-16-13.7-29-30.5-29c-16.8,0-30.4,13-30.5,29h0v17.8l8.4-8.3V22.9z"/>
		<path class="st0" d="M86.9,45.7L79,38.2V22.9H34.3v16.3l-8.4,8.3v15.6h0c0,0,0,0.1,0,0.1c0,16.1,13.6,29.1,30.5,29.1
			c16.8,0,30.5-13,30.5-29.1c0,0,0-0.1,0-0.1h0V45.7z"/>
		<polygon class="st2" points="57.8,42.4 57.8,64 46,64 		"/>
		<circle class="st2" cx="72.6" cy="48.5" r="3.5"/>
		<path class="st0" d="M49.9,70.2c0,0,19.5,3.5,20.9-14.3"/>
		<circle class="st2" cx="39.6" cy="49.4" r="3.5"/>
		<g>
			<path class="st7" d="M0.8,140.5h33.4v-38.2C14.8,107,1.3,119.2,0.8,140.5z"/>
			<path class="st4" d="M54.3,100.1c-7.2,0-13.9,0.7-20.1,2.2v38.2h42v-37.9C69.4,101,62,100.1,54.3,100.1z"/>
			<path class="st3" d="M72.7,101.4v37.9h33.4C105.6,118.4,91.8,106.3,72.7,101.4z"/>
		</g>
		<line class="st0" x1="93.3" y1="129.2" x2="93.3" y2="140.5"/>
		<line class="st5" x1="17.4" y1="129.6" x2="17.4" y2="140.9"/>
		<polyline class="st6" points="45,100.8 57.2,112.9 57.2,139.9 		"/>
		<line class="st6" x1="57.2" y1="112.9" x2="66.2" y2="100.8"/>
	</g>
	<g>
		<rect x="76.2" y="80.1" class="st0" width="34.4" height="49.9"/>
		<path class="st1" d="M72.6,31.3h44.7v15.3l7.8,7.6v-16h0c-0.1-16-13.7-29-30.5-29c-16.8,0-30.4,13-30.5,29h0V56l8.4-8.3V31.3z"/>
		<path class="st0" d="M125.1,54.1l-7.8-7.6V31.3H72.6v16.3L64.2,56v15.6h0c0,0,0,0.1,0,0.1c0,16.1,13.6,29.1,30.5,29.1
			c16.8,0,30.5-13,30.5-29.1c0,0,0-0.1,0-0.1h0V54.1z"/>
		<polygon class="st2" points="96.1,50.9 96.1,72.5 84.2,72.5 		"/>
		<circle class="st2" cx="110.9" cy="56.9" r="3.5"/>
		<path class="st0" d="M88.2,78.7c0,0,19.5,3.5,20.9-14.3"/>
		<circle class="st2" cx="77.9" cy="57.8" r="3.5"/>
		<g>
			<path class="st3" d="M39.1,149h33.4v-38.2C53,115.4,39.6,127.6,39.1,149z"/>
			<path class="st4" d="M92.6,108.6c-7.2,0-13.9,0.7-20.1,2.2V149h42v-37.9C107.7,109.4,100.3,108.6,92.6,108.6z"/>
			<path class="st3" d="M114.4,111.1V149h33.4C147.3,128.2,133.6,116,114.4,111.1z"/>
		</g>
		<line class="st5" x1="131.6" y1="137.7" x2="131.6" y2="149"/>
		<line class="st5" x1="55.7" y1="138" x2="55.7" y2="149.4"/>
		<polyline class="st6" points="83.3,109.3 95.4,121.4 95.4,148.3 		"/>
		<line class="st6" x1="95.4" y1="121.4" x2="104.5" y2="109.3"/>
	</g>
</g>
</svg>