<?xml version="1.0" encoding="utf-8"?>
<!-- Generator: Adobe Illustrator 19.1.0, SVG Export Plug-In . SVG Version: 6.00 Build 0)  -->
<svg version="1.1" id="Layer_1" xmlns="http://www.w3.org/2000/svg" xmlns:xlink="http://www.w3.org/1999/xlink" x="0px" y="0px"
	 viewBox="0 0 1020.2 616.6" style="enable-background:new 0 0 1020.2 616.6;" xml:space="preserve">
<style type="text/css">
	.st0{fill:#0C6B88;stroke:#0C6B88;stroke-width:1.6552;stroke-linecap:round;stroke-linejoin:round;stroke-miterlimit:10;}
	.st1{fill:#49C2C6;stroke:#49C2C6;stroke-width:2.4912;stroke-miterlimit:10;}
	.st2{fill:#FFFFFF;}
	.st3{fill:none;stroke:#F2673A;stroke-width:2.4912;stroke-linecap:round;stroke-linejoin:round;stroke-miterlimit:10;}
	.st4{fill:#E3E3E3;stroke:#E3E3E3;stroke-width:2.4912;stroke-miterlimit:10;}
	.st5{fill:#0C6B88;stroke:#0C6B88;stroke-width:1.688;stroke-linecap:round;stroke-linejoin:round;stroke-miterlimit:10;}
	.st6{fill:#E3E3E3;stroke:#E3E3E3;stroke-width:2.0134;stroke-miterlimit:10;}
	.st7{fill:#49C2C6;}
	.st8{fill:#F2673A;}
	.st9{fill:#E3E3E3;stroke:#E3E3E3;stroke-width:2.0168;stroke-miterlimit:10;}
	.st10{fill:none;stroke:#49C2C6;stroke-miterlimit:10;}
	.st11{fill:#E3E3E3;stroke:#E3E3E3;stroke-width:1.7954;stroke-miterlimit:10;}
	.st12{fill:#E3E3E3;stroke:#E3E3E3;stroke-width:0.3287;stroke-miterlimit:10;}
	.st13{fill:#E3E3E3;stroke:#E3E3E3;stroke-width:0.1419;stroke-miterlimit:10;}
	.st14{fill:#E3E3E3;stroke:#E3E3E3;stroke-width:1.3743;stroke-miterlimit:10;}
	.st15{fill:#F2673A;stroke:#F2673A;stroke-width:3.2068;stroke-miterlimit:10;}
	.st16{fill:#49C2C6;stroke:#49C2C6;stroke-width:2.7946;stroke-miterlimit:10;}
	.st17{fill:#E3E3E3;stroke:#E3E3E3;stroke-width:2.7946;stroke-miterlimit:10;}
	.st18{fill:none;stroke:#E3E3E3;stroke-width:1.1825;stroke-miterlimit:10;}
	.st19{fill:#E3E3E3;stroke:#E3E3E3;stroke-width:1.1825;stroke-linecap:round;stroke-linejoin:round;stroke-miterlimit:10;}
	.st20{fill:#49C2C6;stroke:#49C2C6;stroke-width:1.1825;stroke-linecap:round;stroke-linejoin:round;stroke-miterlimit:10;}
	.st21{fill:#F2673A;stroke:#F2673A;stroke-width:1.1825;stroke-miterlimit:10;}
	.st22{fill:#0D6C88;}
	.st23{fill:none;stroke:#F2673A;stroke-width:1.1825;stroke-linecap:round;stroke-linejoin:round;stroke-miterlimit:10;}
	.st24{fill:none;stroke:#EB6B4B;stroke-width:2.1757;stroke-miterlimit:10;}
	.st25{fill:#CBCACC;stroke:#CBCACC;stroke-width:2.3677;stroke-miterlimit:10;}
	.st26{fill:#E3E3E3;stroke:#E3E3E3;stroke-width:2.1757;stroke-miterlimit:10;}
	.st27{fill:none;stroke:#49C2C6;stroke-width:0.9706;stroke-miterlimit:10;}
	.st28{fill:#49C2C6;stroke:#189995;stroke-width:1.1276;stroke-linecap:round;stroke-linejoin:round;stroke-miterlimit:10;}
	.st29{fill:#49C2C6;stroke:#189995;stroke-width:1.1672;stroke-linecap:round;stroke-linejoin:round;stroke-miterlimit:10;}
</style>
<rect x="0.8" y="0.8" class="st0" width="1018.6" height="614.9"/>
<g>
	<path class="st1" d="M800.4,555.1H670.9c-3.6,0-6.5-2.9-6.5-6.5V368.1c0-3.6,2.9-6.5,6.5-6.5h129.4c3.6,0,6.5,2.9,6.5,6.5v180.5
		C806.9,552.2,803.9,555.1,800.4,555.1z"/>
	<rect x="680.6" y="372" class="st2" width="109.6" height="158.5"/>
	<line class="st3" x1="717.3" y1="417.9" x2="768" y2="417.9"/>
	<line class="st3" x1="717.3" y1="428.4" x2="779.2" y2="428.4"/>
	<line class="st3" x1="717.3" y1="437.9" x2="768" y2="437.9"/>
	<line class="st3" x1="717.3" y1="448.4" x2="779.2" y2="448.4"/>
	<line class="st3" x1="717.3" y1="458" x2="768" y2="458"/>
	<line class="st3" x1="717.3" y1="468.5" x2="779.2" y2="468.5"/>
	<line class="st3" x1="717.3" y1="478" x2="768" y2="478"/>
	<line class="st3" x1="717.3" y1="488.5" x2="779.2" y2="488.5"/>
	<rect x="695.2" y="415.6" class="st4" width="13.9" height="12.8"/>
	<rect x="695.2" y="436.8" class="st4" width="13.9" height="12.8"/>
	<rect x="695.2" y="458" class="st4" width="13.9" height="12.8"/>
	<rect x="695.2" y="479.1" class="st4" width="13.9" height="12.8"/>
	<path class="st5" d="M763.9,361.6h-12.7v-3.8h0c-0.3-8.4-7.2-15.1-15.7-15.1c-8.5,0-15.4,6.7-15.7,15.1h0v3.8h-12.2
		c-4.8,0-8.8,3.9-8.8,8.8v5.8c0,1,0.2,2,0.5,2.9h73c0.3-0.9,0.5-1.9,0.5-2.9v-5.8C772.6,365.6,768.7,361.6,763.9,361.6z
		 M730.2,357.8c0-2.9,2.3-5.2,5.2-5.2c2.9,0,5.2,2.3,5.2,5.2v3.8h-10.4V357.8z"/>
</g>
<rect x="430.3" y="365.4" class="st6" width="16.4" height="54.4"/>
<rect x="455.5" y="353.7" class="st7" width="16.4" height="66.7"/>
<rect x="480.7" y="385.9" class="st8" width="16.4" height="34.6"/>
<rect x="505.9" y="343.3" class="st9" width="16.4" height="76.5"/>
<rect x="400.4" y="342.7" class="st7" width="16.4" height="77.2"/>
<line class="st10" x1="380.1" y1="420.5" x2="634.6" y2="420.5"/>
<path class="st2" d="M114.8,152.7l-12.7-45h-0.3c0.5,9.2,0.7,15.3,0.7,18.3v26.7h-10V95.3h15.2l12.5,43.9h0.2l13.2-43.9h15.2v57.4
	h-10.4v-27.2c0-1.3,0-2.8,0.1-4.4c0-1.7,0.2-6.1,0.5-13.3h-0.3l-13.6,45H114.8z"/>
<path class="st2" d="M197.9,130.6c0,7.1-1.7,12.7-5.2,16.8c-3.5,4-8.3,6-14.5,6c-3.9,0-7.3-0.9-10.2-2.8c-3-1.8-5.2-4.5-6.8-8
	c-1.6-3.5-2.4-7.5-2.4-12.1c0-7.2,1.7-12.7,5.2-16.7c3.4-4,8.3-6,14.5-6c3.9,0,7.3,0.9,10.2,2.7c3,1.8,5.2,4.5,6.8,7.9
	C197.1,122,197.9,126,197.9,130.6z M170,130.6c0,4.3,0.7,7.6,2,9.9c1.3,2.2,3.4,3.3,6.4,3.3c2.9,0,5-1.1,6.3-3.3
	c1.3-2.2,1.9-5.5,1.9-9.9c0-4.3-0.6-7.6-1.9-9.8c-1.3-2.2-3.4-3.3-6.4-3.3c-2.9,0-5.1,1.1-6.4,3.2C170.7,123,170,126.3,170,130.6z"
	/>
<path class="st2" d="M229.4,107.9c4.8,0,8.5,2,11.2,6.1c2.7,4,4,9.6,4,16.6c0,7.3-1.4,12.9-4.2,16.8c-2.8,4-6.6,6-11.3,6
	c-4.7,0-8.5-1.9-11.2-5.6h-0.8l-1.8,4.8H207V91.6h11v14.2c0,1.8-0.1,4.7-0.4,8.7h0.4C220.6,110.1,224.4,107.9,229.4,107.9z
	 M225.9,117.5c-2.7,0-4.7,0.9-6,2.7c-1.3,1.8-1.9,4.8-1.9,9v1.3c0,4.7,0.6,8.1,1.9,10.1c1.3,2,3.3,3.1,6.1,3.1
	c2.3,0,4.1-1.1,5.4-3.4c1.3-2.3,2-5.6,2-9.9c0-4.3-0.7-7.6-2-9.7C230.1,118.6,228.2,117.5,225.9,117.5z"/>
<path class="st2" d="M253.3,97.4c0-3.9,2-5.9,6-5.9c4,0,6,2,6,5.9c0,1.9-0.5,3.3-1.5,4.3c-1,1-2.5,1.6-4.5,1.6
	C255.3,103.3,253.3,101.4,253.3,97.4z M264.8,152.7h-11v-43.9h11V152.7z"/>
<path class="st2" d="M287.3,152.7h-11V91.6h11V152.7z"/>
<path class="st2" d="M317.1,153.5c-6.5,0-11.6-1.9-15.2-5.9c-3.7-3.9-5.5-9.4-5.5-16.6c0-7.4,1.7-13,5.1-17.1c3.4-4,8.1-6,14-6
	c5.7,0,10.1,1.8,13.3,5.3c3.2,3.5,4.8,8.4,4.8,14.6v5.8h-26c0.1,3.4,1,6.1,2.8,8c1.7,1.9,4.2,2.9,7.3,2.9c2.4,0,4.7-0.3,6.9-0.8
	c2.2-0.5,4.4-1.4,6.8-2.6v9.3c-1.9,1-4,1.8-6.2,2.3C323,153.2,320.3,153.5,317.1,153.5z M315.6,116.5c-2.3,0-4.2,0.8-5.5,2.4
	c-1.3,1.6-2.1,3.9-2.3,6.9h15.4c0-3-0.8-5.2-2.1-6.9C319.8,117.3,317.9,116.5,315.6,116.5z"/>
<path class="st2" d="M123.6,220.7c0,5.2-1.7,9.3-5.1,12.3c-3.4,3-8.2,4.5-14.3,4.5c-5.6,0-10.6-1.2-14.9-3.5v-11.3
	c3.6,1.7,6.6,2.9,9,3.7c2.5,0.7,4.7,1.1,6.8,1.1c2.5,0,4.3-0.5,5.6-1.5c1.3-1,2-2.5,2-4.6c0-1.1-0.3-2.1-0.9-3
	c-0.6-0.9-1.4-1.7-2.5-2.5c-1.1-0.8-3.4-2.1-6.8-3.9c-3.2-1.6-5.6-3.2-7.3-4.8c-1.6-1.5-2.9-3.3-3.9-5.3c-1-2-1.4-4.4-1.4-7.1
	c0-5.1,1.6-9.1,4.7-12c3.2-2.9,7.5-4.4,13.1-4.4c2.7,0,5.4,0.4,7.8,1.1c2.5,0.7,5.1,1.7,7.8,3l-3.6,9.5c-2.8-1.3-5.1-2.1-7-2.6
	c-1.8-0.5-3.7-0.7-5.4-0.7c-2.1,0-3.7,0.5-4.9,1.6c-1.1,1.1-1.7,2.5-1.7,4.2c0,1.1,0.2,2,0.7,2.8c0.5,0.8,1.2,1.6,2.2,2.3
	c1,0.7,3.4,2.1,7.1,4c4.9,2.6,8.3,5.1,10.1,7.7C122.6,213.8,123.6,217,123.6,220.7z"/>
<path class="st2" d="M169.5,236.7h-11V211c0-6.3-2.2-9.5-6.5-9.5c-3.1,0-5.3,1.1-6.7,3.4c-1.4,2.3-2.1,6-2.1,11.1v20.7h-11v-61.1h11
	V188c0,1-0.1,3.2-0.3,6.8l-0.3,3.5h0.6c2.5-4.3,6.4-6.4,11.7-6.4c4.7,0,8.3,1.4,10.8,4.2c2.5,2.8,3.7,6.8,3.7,11.9V236.7z"/>
<path class="st2" d="M217.5,214.7c0,7.1-1.7,12.7-5.2,16.8c-3.5,4-8.3,6-14.5,6c-3.9,0-7.3-0.9-10.2-2.8c-3-1.8-5.2-4.5-6.8-8
	c-1.6-3.5-2.4-7.5-2.4-12.1c0-7.2,1.7-12.7,5.2-16.7c3.4-4,8.3-6,14.5-6c3.9,0,7.3,0.9,10.2,2.7c3,1.8,5.2,4.5,6.8,7.9
	C216.7,206,217.5,210.1,217.5,214.7z M189.6,214.7c0,4.3,0.7,7.6,2,9.9c1.3,2.2,3.4,3.3,6.4,3.3c2.9,0,5-1.1,6.3-3.3
	c1.3-2.2,1.9-5.5,1.9-9.9c0-4.3-0.6-7.6-1.9-9.8c-1.3-2.2-3.4-3.3-6.4-3.3c-2.9,0-5.1,1.1-6.4,3.2
	C190.3,207,189.6,210.3,189.6,214.7z"/>
<path class="st2" d="M248.8,237.5c-4.7,0-8.5-1.9-11.2-5.6H237c0.4,3.7,0.6,5.8,0.6,6.4V256h-11v-63.2h8.9l1.6,5.7h0.5
	c2.6-4.3,6.4-6.5,11.4-6.5c4.8,0,8.5,2,11.2,6c2.7,4,4,9.6,4,16.7c0,4.7-0.6,8.8-1.9,12.2c-1.3,3.5-3.1,6.1-5.4,7.9
	C254.6,236.6,251.9,237.5,248.8,237.5z M245.5,201.5c-2.7,0-4.7,0.9-6,2.7c-1.3,1.8-1.9,4.8-1.9,9v1.3c0,4.7,0.6,8.1,1.9,10.1
	c1.3,2,3.3,3.1,6.1,3.1c4.9,0,7.4-4.4,7.4-13.3c0-4.3-0.6-7.6-1.8-9.7C250,202.6,248.1,201.5,245.5,201.5z"/>
<path class="st2" d="M295.5,237.5c-4.7,0-8.5-1.9-11.2-5.6h-0.6c0.4,3.7,0.6,5.8,0.6,6.4V256h-11v-63.2h9l1.6,5.7h0.5
	c2.6-4.3,6.4-6.5,11.4-6.5c4.8,0,8.5,2,11.2,6c2.7,4,4,9.6,4,16.7c0,4.7-0.6,8.8-1.9,12.2c-1.3,3.5-3.1,6.1-5.4,7.9
	C301.4,236.6,298.7,237.5,295.5,237.5z M292.3,201.5c-2.7,0-4.7,0.9-6,2.7c-1.3,1.8-1.9,4.8-1.9,9v1.3c0,4.7,0.6,8.1,1.9,10.1
	c1.3,2,3.3,3.1,6.1,3.1c4.9,0,7.4-4.4,7.4-13.3c0-4.3-0.6-7.6-1.8-9.7C296.8,202.6,294.9,201.5,292.3,201.5z"/>
<path class="st2" d="M319.7,181.4c0-3.9,2-5.9,6-5.9c4,0,6,2,6,5.9c0,1.9-0.5,3.3-1.5,4.3c-1,1-2.5,1.6-4.5,1.6
	C321.7,187.3,319.7,185.4,319.7,181.4z M331.1,236.7h-11v-43.9h11V236.7z"/>
<path class="st2" d="M379.9,236.7h-11V211c0-3.2-0.5-5.5-1.6-7.1c-1-1.6-2.7-2.4-4.9-2.4c-3.1,0-5.3,1.1-6.7,3.4
	c-1.4,2.2-2.1,5.9-2.1,11.1v20.7h-11v-43.9h8.4l1.5,5.6h0.6c1.2-2.1,2.9-3.7,5.1-4.8c2.2-1.1,4.6-1.6,7.3-1.6
	c4.7,0,8.3,1.4,10.7,4.1c2.4,2.8,3.6,6.7,3.6,12V236.7z"/>
<path class="st2" d="M426.5,236.8c0,6.3-1.7,11.1-5.1,14.4c-3.4,3.3-8.4,4.9-15.1,4.9c-5.9,0-10.9-0.9-15.1-2.6v-9.6
	c4.9,2.3,10.1,3.4,15.7,3.4c5.7,0,8.5-3.3,8.5-10v-0.9l0.3-5.4h-0.3c-2.6,4.3-6.4,6.5-11.4,6.5c-4.8,0-8.6-2-11.2-6.1
	c-2.7-4.1-4-9.6-4-16.6c0-7.2,1.4-12.8,4.1-16.8c2.8-4,6.6-6,11.4-6c5,0,8.9,2.1,11.7,6.4h0.3l0.9-5.6h9.3V236.8z M408,228.1
	c3,0,5.1-0.9,6.4-2.8c1.3-1.8,1.9-4.8,1.9-9v-1.5c0-4.7-0.7-8.1-2-10.1c-1.3-2.1-3.5-3.1-6.4-3.1c-5.2,0-7.8,4.4-7.8,13.3
	c0,4.4,0.6,7.7,1.9,9.9C403.3,227,405.3,228.1,408,228.1z"/>
<path class="st7" d="M88.7,266.7c0-2.1,1.1-3.2,3.3-3.2c2.2,0,3.3,1.1,3.3,3.2c0,1-0.3,1.8-0.8,2.4c-0.5,0.6-1.4,0.8-2.5,0.8
	C89.8,270,88.7,268.9,88.7,266.7z M95,297h-6v-24h6V297z"/>
<path class="st7" d="M121.7,297h-6v-14c0-1.7-0.3-3-0.8-3.9c-0.6-0.9-1.5-1.3-2.7-1.3c-1.7,0-2.9,0.6-3.7,1.8
	c-0.8,1.2-1.1,3.3-1.1,6.1V297h-6v-24h4.6l0.8,3.1h0.3c0.7-1.2,1.6-2,2.8-2.6c1.2-0.6,2.5-0.9,4-0.9c2.6,0,4.5,0.8,5.8,2.3
	c1.3,1.5,2,3.7,2,6.5V297z"/>
<path class="st7" d="M155.9,288.3c0,2.8-0.9,5.1-2.8,6.7c-1.9,1.6-4.5,2.5-7.8,2.5c-3.1,0-5.8-0.6-8.2-1.9v-6.2
	c1.9,0.9,3.6,1.6,4.9,2c1.3,0.4,2.6,0.6,3.7,0.6c1.3,0,2.4-0.3,3.1-0.8c0.7-0.6,1.1-1.4,1.1-2.5c0-0.6-0.2-1.2-0.5-1.6
	c-0.3-0.5-0.8-0.9-1.4-1.4c-0.6-0.4-1.9-1.2-3.7-2.1c-1.8-0.9-3.1-1.8-4-2.6c-0.9-0.8-1.6-1.8-2.1-2.9c-0.5-1.1-0.8-2.4-0.8-3.9
	c0-2.8,0.9-5,2.6-6.6c1.7-1.6,4.1-2.4,7.2-2.4c1.5,0,2.9,0.2,4.3,0.6c1.4,0.4,2.8,0.9,4.3,1.6l-2,5.2c-1.5-0.7-2.8-1.2-3.8-1.4
	c-1-0.3-2-0.4-3-0.4c-1.2,0-2,0.3-2.7,0.9c-0.6,0.6-0.9,1.4-0.9,2.3c0,0.6,0.1,1.1,0.4,1.5c0.3,0.4,0.6,0.9,1.2,1.3
	c0.5,0.4,1.8,1.1,3.9,2.2c2.7,1.4,4.6,2.8,5.6,4.2C155.4,284.5,155.9,286.2,155.9,288.3z"/>
<path class="st7" d="M180.7,284.9c0,3.9-0.9,7-2.8,9.2c-1.9,2.2-4.5,3.3-7.9,3.3c-2.1,0-4-0.5-5.6-1.5c-1.6-1-2.9-2.5-3.7-4.4
	c-0.9-1.9-1.3-4.1-1.3-6.6c0-3.9,0.9-7,2.8-9.2c1.9-2.2,4.5-3.3,7.9-3.3c2.1,0,4,0.5,5.6,1.5c1.6,1,2.9,2.4,3.7,4.3
	C180.3,280.2,180.7,282.4,180.7,284.9z M165.5,284.9c0,2.4,0.4,4.2,1.1,5.4c0.7,1.2,1.9,1.8,3.5,1.8c1.6,0,2.8-0.6,3.5-1.8
	c0.7-1.2,1.1-3,1.1-5.4c0-2.4-0.4-4.2-1.1-5.4c-0.7-1.2-1.9-1.8-3.5-1.8c-1.6,0-2.8,0.6-3.5,1.8
	C165.8,280.8,165.5,282.5,165.5,284.9z"/>
<path class="st7" d="M201.4,297l-0.8-3.1h-0.3c-0.6,1.1-1.6,2-2.7,2.6c-1.2,0.6-2.5,0.9-4.1,0.9c-2.6,0-4.6-0.8-5.9-2.3
	c-1.3-1.5-2-3.7-2-6.5V273h6v14c0,1.7,0.3,3,0.8,3.9c0.6,0.9,1.5,1.3,2.7,1.3c1.7,0,2.9-0.6,3.7-1.8c0.8-1.2,1.1-3.3,1.1-6.1V273h6
	v24H201.4z"/>
<path class="st7" d="M221.6,292.2c1.1,0,2.3-0.3,3.8-0.8v4.9c-1.5,0.7-3.3,1.1-5.5,1.1c-2.4,0-4.2-0.7-5.3-2c-1.1-1.3-1.6-3.3-1.6-6
	v-11.6h-2.9v-2.8l3.3-2.2l1.7-5.1h3.9v5.1h6.2v4.9H219v11.6c0,0.9,0.2,1.6,0.7,2.1C220.2,292,220.8,292.2,221.6,292.2z"/>
<path class="st7" d="M250.3,297h-6v-14c0-3.5-1.2-5.2-3.6-5.2c-1.7,0-2.9,0.6-3.7,1.9c-0.8,1.2-1.1,3.3-1.1,6.1V297h-6v-33.4h6v6.8
	c0,0.5,0,1.8-0.1,3.7l-0.1,1.9h0.3c1.3-2.4,3.5-3.5,6.4-3.5c2.6,0,4.6,0.8,5.9,2.3c1.3,1.5,2,3.7,2,6.5V297z"/>
<path class="st7" d="M273.1,297h-16.6v-31.4h16.6v5.5h-10.5v6.9h9.8v5.5h-9.8v8.1h10.5V297z"/>
<path class="st7" d="M292.7,297l-1.2-3.3h-0.2c-1,1.4-2.1,2.4-3.1,2.9c-1.1,0.5-2.5,0.8-4.2,0.8c-2.1,0-3.8-0.7-5-2
	c-1.2-1.3-1.8-3.2-1.8-5.6c0-2.6,0.8-4.4,2.5-5.6c1.6-1.2,4.1-1.9,7.4-2l3.8-0.1V281c0-2.4-1.1-3.7-3.4-3.7c-1.8,0-3.8,0.6-6.2,1.7
	l-2-4.4c2.5-1.4,5.4-2.2,8.5-2.2c3,0,5.2,0.7,6.8,2.1c1.6,1.4,2.4,3.5,2.4,6.4v16H292.7z M290.9,285.9l-2.3,0.1
	c-1.8,0.1-3.1,0.4-3.9,1c-0.9,0.6-1.3,1.6-1.3,2.9c0,1.8,1,2.8,2.9,2.8c1.4,0,2.5-0.4,3.3-1.3c0.8-0.9,1.3-2,1.3-3.5V285.9z"/>
<path class="st7" d="M318.5,289.9c0,2.5-0.8,4.3-2.4,5.6c-1.6,1.3-3.9,1.9-7.1,1.9c-1.6,0-3-0.1-4.1-0.4c-1.1-0.2-2.2-0.6-3.2-1
	v-5.4c1.1,0.6,2.4,1.1,3.8,1.4c1.4,0.4,2.6,0.6,3.7,0.6c2.2,0,3.3-0.7,3.3-2.1c0-0.5-0.1-0.9-0.4-1.3c-0.3-0.3-0.8-0.7-1.5-1.1
	c-0.7-0.4-1.7-0.9-2.8-1.4c-1.7-0.8-2.9-1.5-3.7-2.1c-0.8-0.7-1.4-1.4-1.7-2.3c-0.4-0.9-0.5-1.9-0.5-3.1c0-2.1,0.8-3.8,2.3-5
	c1.5-1.2,3.7-1.8,6.5-1.8c2.7,0,5.2,0.6,7.8,1.9l-1.8,4.7c-1.1-0.5-2.1-0.9-3.1-1.3c-1-0.3-1.9-0.5-2.9-0.5c-1.8,0-2.7,0.5-2.7,1.6
	c0,0.6,0.3,1.1,0.9,1.5c0.6,0.4,1.8,1.1,3.8,1.9c1.7,0.8,3,1.5,3.8,2.1c0.8,0.7,1.4,1.4,1.8,2.3
	C318.3,287.6,318.5,288.7,318.5,289.9z"/>
<path class="st7" d="M332.5,292.2c1.1,0,2.3-0.3,3.8-0.8v4.9c-1.5,0.7-3.3,1.1-5.5,1.1c-2.4,0-4.2-0.7-5.3-2c-1.1-1.3-1.6-3.3-1.6-6
	v-11.6H321v-2.8l3.3-2.2l1.7-5.1h3.9v5.1h6.2v4.9h-6.2v11.6c0,0.9,0.2,1.6,0.7,2.1C331.1,292,331.7,292.2,332.5,292.2z"/>
<path class="st7" d="M369.4,297l-2.1-7.5h-10.5l-2.1,7.5h-6.6l10.2-31.6h7.5L376,297H369.4z M365.9,283.9c-1.9-6.8-3-10.6-3.3-11.5
	c-0.2-0.9-0.4-1.6-0.5-2.1c-0.4,1.8-1.7,6.4-3.7,13.6H365.9z"/>
<path class="st7" d="M394.6,289.9c0,2.5-0.8,4.3-2.4,5.6c-1.6,1.3-3.9,1.9-7.1,1.9c-1.6,0-3-0.1-4.1-0.4c-1.1-0.2-2.2-0.6-3.2-1
	v-5.4c1.1,0.6,2.4,1.1,3.8,1.4c1.4,0.4,2.6,0.6,3.7,0.6c2.2,0,3.3-0.7,3.3-2.1c0-0.5-0.1-0.9-0.4-1.3c-0.3-0.3-0.8-0.7-1.5-1.1
	c-0.7-0.4-1.7-0.9-2.8-1.4c-1.7-0.8-2.9-1.5-3.7-2.1c-0.8-0.7-1.4-1.4-1.7-2.3c-0.4-0.9-0.5-1.9-0.5-3.1c0-2.1,0.8-3.8,2.3-5
	c1.5-1.2,3.7-1.8,6.5-1.8c2.7,0,5.2,0.6,7.8,1.9l-1.8,4.7c-1.1-0.5-2.1-0.9-3.1-1.3c-1-0.3-1.9-0.5-2.9-0.5c-1.8,0-2.7,0.5-2.7,1.6
	c0,0.6,0.3,1.1,0.9,1.5c0.6,0.4,1.8,1.1,3.8,1.9c1.7,0.8,3,1.5,3.8,2.1c0.8,0.7,1.4,1.4,1.8,2.3
	C394.4,287.6,394.6,288.7,394.6,289.9z"/>
<path class="st7" d="M399,266.7c0-2.1,1.1-3.2,3.3-3.2c2.2,0,3.3,1.1,3.3,3.2c0,1-0.3,1.8-0.8,2.4c-0.5,0.6-1.4,0.8-2.5,0.8
	C400.1,270,399,268.9,399,266.7z M405.3,297h-6v-24h6V297z"/>
<path class="st7" d="M425.7,297l-1.2-3.3h-0.2c-1,1.4-2.1,2.4-3.1,2.9c-1.1,0.5-2.5,0.8-4.2,0.8c-2.1,0-3.8-0.7-5-2
	c-1.2-1.3-1.8-3.2-1.8-5.6c0-2.6,0.8-4.4,2.5-5.6c1.6-1.2,4.1-1.9,7.4-2l3.8-0.1V281c0-2.4-1.1-3.7-3.4-3.7c-1.8,0-3.8,0.6-6.2,1.7
	l-2-4.4c2.5-1.4,5.4-2.2,8.5-2.2c3,0,5.2,0.7,6.8,2.1c1.6,1.4,2.4,3.5,2.4,6.4v16H425.7z M423.9,285.9l-2.3,0.1
	c-1.8,0.1-3.1,0.4-3.9,1c-0.9,0.6-1.3,1.6-1.3,2.9c0,1.8,1,2.8,2.9,2.8c1.4,0,2.5-0.4,3.3-1.3c0.8-0.9,1.3-2,1.3-3.5V285.9z"/>
<path class="st7" d="M88.7,321.5c0-2.1,1.1-3.2,3.3-3.2c2.2,0,3.3,1.1,3.3,3.2c0,1-0.3,1.8-0.8,2.4c-0.5,0.6-1.4,0.8-2.5,0.8
	C89.8,324.7,88.7,323.6,88.7,321.5z M95,351.7h-6v-24h6V351.7z"/>
<path class="st7" d="M121.7,351.7h-6v-14c0-1.7-0.3-3-0.8-3.9c-0.6-0.9-1.5-1.3-2.7-1.3c-1.7,0-2.9,0.6-3.7,1.8
	c-0.8,1.2-1.1,3.3-1.1,6.1v11.3h-6v-24h4.6l0.8,3.1h0.3c0.7-1.2,1.6-2,2.8-2.6c1.2-0.6,2.5-0.9,4-0.9c2.6,0,4.5,0.8,5.8,2.3
	c1.3,1.5,2,3.7,2,6.5V351.7z"/>
<path class="st7" d="M157,351.7h-20.2v-4.6l7.3-8c2.1-2.4,3.5-4.1,4.2-5c0.7-0.9,1.1-1.8,1.4-2.6c0.3-0.8,0.4-1.6,0.4-2.5
	c0-1.3-0.3-2.2-1-2.8c-0.6-0.6-1.5-0.9-2.6-0.9c-1.1,0-2.2,0.3-3.3,0.8c-1.1,0.6-2.2,1.4-3.3,2.4l-3.3-4.3c1.4-1.3,2.6-2.2,3.5-2.8
	c0.9-0.5,2-1,3.1-1.3c1.1-0.3,2.3-0.4,3.7-0.4c1.8,0,3.4,0.4,4.8,1.1c1.4,0.7,2.5,1.7,3.2,3c0.8,1.3,1.1,2.8,1.1,4.4
	c0,1.4-0.2,2.8-0.7,4.1s-1.2,2.6-2.2,3.9c-1,1.3-2.7,3.2-5.2,5.7l-3.7,3.8v0.3H157V351.7z"/>
<path class="st7" d="M180,336c0,5.5-0.8,9.6-2.5,12.2c-1.7,2.6-4.2,4-7.6,4c-3.3,0-5.8-1.4-7.5-4.1c-1.7-2.7-2.5-6.7-2.5-12.1
	c0-5.5,0.8-9.6,2.5-12.3c1.6-2.6,4.2-3.9,7.6-3.9c3.3,0,5.9,1.4,7.6,4.1C179.2,326.7,180,330.7,180,336z M165.9,336
	c0,3.9,0.3,6.6,0.9,8.3c0.6,1.7,1.6,2.5,3.1,2.5c1.4,0,2.4-0.8,3.1-2.5c0.6-1.7,0.9-4.4,0.9-8.3c0-3.9-0.3-6.6-1-8.3
	c-0.6-1.7-1.7-2.5-3.1-2.5c-1.4,0-2.5,0.8-3.1,2.5C166.2,329.4,165.9,332.1,165.9,336z"/>
<path class="st7" d="M198.2,351.7h-6.1v-18.2l0.1-3l0.1-3.3c-1,1.1-1.7,1.8-2.1,2.2l-3.3,2.9l-2.9-4l9.3-8.1h5V351.7z"/>
<path class="st7" d="M216.8,331.6c2.8,0,5,0.9,6.7,2.6c1.7,1.7,2.5,4,2.5,7c0,3.5-1,6.2-3,8.1c-2,1.9-4.8,2.8-8.5,2.8
	c-3.2,0-5.8-0.6-7.8-1.7v-5.7c1,0.6,2.3,1.1,3.6,1.5c1.4,0.4,2.7,0.6,3.9,0.6c3.7,0,5.6-1.7,5.6-5c0-3.2-1.9-4.8-5.8-4.8
	c-0.7,0-1.5,0.1-2.3,0.2c-0.8,0.2-1.5,0.3-2.1,0.5l-2.4-1.4l1.1-16h15.7v5.6h-10.3l-0.5,6.2l0.7-0.2
	C214.6,331.7,215.6,331.6,216.8,331.6z"/>
<path class="st8" d="M657.9,498h-94.2c-3.6,0-6.5-2.9-6.5-6.5V323.8c0-3.6,2.9-6.5,6.5-6.5h94.2c3.6,0,6.5,2.9,6.5,6.5v167.6
	C664.4,495,661.5,498,657.9,498z"/>
<path class="st11" d="M617.4,327H609c-0.9,0-1.6-0.7-1.6-1.6l0,0c0-0.9,0.7-1.6,1.6-1.6h8.4c0.9,0,1.6,0.7,1.6,1.6l0,0
	C619,326.3,618.3,327,617.4,327z"/>
<circle class="st12" cx="610.8" cy="486.6" r="6"/>
<circle class="st13" cx="599.6" cy="325.4" r="2.6"/>
<path class="st8" d="M817,161.9c0,0-1.9,9.7-11.5,11.1c9.7,1.4,11.5,11.1,11.5,11.1s1.9-9.7,11.5-11.1
	C818.8,171.7,817,161.9,817,161.9"/>
<path class="st8" d="M803,188.4c0,0-4.6,23.9-28.3,27.4c23.7,3.5,28.3,27.4,28.3,27.4s4.6-23.9,28.3-27.4
	C807.6,212.3,803,188.4,803,188.4 M803,195.8c0.8,1.9,1.9,4.1,3.3,6.3c4.1,6.4,9.7,11.1,16.3,13.8c-6.7,2.7-12.2,7.3-16.3,13.8
	c-1.4,2.2-2.5,4.3-3.3,6.3c-0.8-1.9-1.9-4.1-3.3-6.3c-4.1-6.4-9.7-11.1-16.3-13.8c6.7-2.7,12.2-7.3,16.3-13.8
	C801.1,199.8,802.2,197.7,803,195.8"/>
<path class="st14" d="M776.4,196.3c-1.1-2.3-3.1-5.2-6.6-6.8c3.5-1.6,5.5-4.6,6.6-6.8c1.1,2.3,3.1,5.2,6.6,6.8
	C779.5,191.2,777.5,194.1,776.4,196.3z"/>
<path class="st15" d="M855.6,257.7c-1.1,0-2.3,0.1-3.4,0.2V288l26.4-18.1C873.6,262.6,865.2,257.7,855.6,257.7z"/>
<path class="st16" d="M883.2,289c0.1-1.1,0.2-2.3,0.2-3.5c0-5.8-1.8-11.2-4.8-15.6L852.3,288v1H883.2z"/>
<path class="st17" d="M852.3,289V258c-13.8,1.7-24.4,13.4-24.4,27.6c0,15.4,12.5,27.8,27.8,27.8c14.2,0,25.9-10.6,27.6-24.3H852.3z"
	/>
<path class="st16" d="M854.3,356.9V329c-1.3,0-2.6,0.1-3.9,0.3c-13.5,1.9-23.9,13.5-23.9,27.5c0,15.4,12.5,27.8,27.8,27.8
	c7.1,0,13.5-2.6,18.4-7l0,0L854.3,356.9z"/>
<path class="st17" d="M882.1,356.9c0-15.4-12.5-27.8-27.8-27.8v27.8l18.4,20.8l0,0C878.5,372.6,882.1,365.1,882.1,356.9z"/>
<g>
	<path class="st18" d="M856.8,411.6c0-2.9,2.3-5.2,5.2-5.2c2.9,0,5.2,2.3,5.2,5.2c0,2.9-2.3,5.2-5.2,5.2v3.8"/>
	<polygon class="st18" points="840.4,433.7 862,420.5 883.6,433.7 	"/>
	<path class="st18" d="M875.9,411.6c0-2.9,2.3-5.2,5.2-5.2c2.9,0,5.2,2.3,5.2,5.2c0,2.9-2.3,5.2-5.2,5.2v3.8"/>
	<polygon class="st18" points="859.5,433.7 881.1,420.5 902.7,433.7 	"/>
	<path class="st18" d="M895,411.6c0-2.9,2.3-5.2,5.2-5.2c2.9,0,5.2,2.3,5.2,5.2c0,2.9-2.3,5.2-5.2,5.2v3.8"/>
	<polygon class="st18" points="878.6,433.7 900.2,420.5 921.8,433.7 	"/>
	<path class="st18" d="M822.4,532.2V421.1c0-3.8,3.1-6.9,6.9-6.9h100.8c3.8,0,6.9,3.1,6.9,6.9v111.1"/>
	<path class="st19" d="M840.1,447.4c0,0-1.2,12.7,5,15.4l-13.5,46.7h49.8l-13.1-46.7c0,0,8.3-4.8,5-15.4H840.1z"/>
	<polygon class="st19" points="843,447.4 845.7,432.8 850.5,432.8 850.5,447.4 	"/>
	<polygon class="st19" points="869.4,447.4 866.7,432.8 861.9,432.8 861.9,447.4 	"/>
	<path class="st20" d="M862.2,447.4c0,0-1.2,12.7,5,15.4l-13.5,46.7h49.8l-13.1-46.7c0,0,8.3-4.8,5-15.4H862.2z"/>
	<polygon class="st20" points="865.3,447.4 868,432.8 872.9,432.8 872.9,447.4 	"/>
	<polygon class="st20" points="891.8,447.4 889.1,432.8 884.2,432.8 884.2,447.4 	"/>
	<path class="st21" d="M883.8,447.4c0,0-1.2,12.7,5,15.4l-13.5,46.7h49.8L912,462.9c0,0,8.3-4.8,5-15.4H883.8z"/>
	<polygon class="st22" points="886.9,447.4 889.6,432.8 894.4,432.8 894.4,447.4 	"/>
	<polygon class="st21" points="886.9,447.4 889.6,432.8 894.4,432.8 894.4,447.4 	"/>
	<polygon class="st22" points="913.3,447.4 910.6,432.8 905.8,432.8 905.8,447.4 	"/>
	<polygon class="st21" points="913.3,447.4 910.6,432.8 905.8,432.8 905.8,447.4 	"/>
	<line class="st23" x1="923.9" y1="532.2" x2="950" y2="532.2"/>
	<line class="st23" x1="807.3" y1="532.2" x2="833.4" y2="532.2"/>
</g>
<path class="st24" d="M670,255.2v-33.1l0.1-10.4h0c0.6-15.3,13.6-27.4,29.5-27.4c16,0,28.9,12.1,29.5,27.4h0l-0.1,10.2v33.3"/>
<path class="st25" d="M773.6,391.8h-148V230.4h148V391.8z"/>
<rect x="625.2" y="353.3" class="st26" width="148.7" height="42"/>
<polyline class="st27" points="757.8,290.4 788.1,290.4 814,251.6 831.3,251.6 853.5,216.7 905,216.7 933.4,169.6 "/>
<polygon class="st7" points="927.4,167.6 937.5,175.2 938,164.1 "/>
<path class="st28" d="M573.6,150.3h-30.9c-16.8,0-30.6,13.8-30.6,30.6v0c0,16.8,13.8,30.6,30.6,30.6h23.8l12.7,15.1v-15.6
	c14.2-2.6,25.1-15.1,25.1-30.1v0C604.2,164.1,590.4,150.3,573.6,150.3z"/>
<path class="st29" d="M521.9,556.9h-32c-17.4,0-31.7-14.2-31.7-31.7l0,0c0-17.4,14.2-31.7,31.7-31.7h24.6l13.1-15.6v16.2
	c14.7,2.7,25.9,15.7,25.9,31.1l0,0C553.6,542.7,539.3,556.9,521.9,556.9z"/>
<g>
	<path class="st2" d="M102.5,408.8h-2.1L97.2,398c-0.5-1.6-0.7-2.7-0.8-3.2c-0.1,0.9-0.4,2-0.8,3.3l-3.1,10.7h-2.1l-4.3-16.4h2.2
		l2.5,10c0.3,1.3,0.6,2.6,0.8,3.9c0.2-1.2,0.5-2.6,0.9-4l2.9-9.9h2.1l3,10c0.4,1.3,0.7,2.6,0.9,4c0.1-1,0.4-2.3,0.8-3.9l2.5-10h2.2
		L102.5,408.8z"/>
	<path class="st2" d="M114.1,409c-1.8,0-3.3-0.6-4.4-1.7c-1.1-1.1-1.6-2.7-1.6-4.6c0-2,0.5-3.6,1.5-4.7c1-1.2,2.3-1.8,4-1.8
		c1.5,0,2.8,0.5,3.7,1.5c0.9,1,1.4,2.4,1.4,4.1v1.2h-8.4c0,1.4,0.4,2.5,1.1,3.2c0.7,0.7,1.6,1.1,2.9,1.1c0.7,0,1.3-0.1,1.9-0.2
		c0.6-0.1,1.3-0.3,2.1-0.7v1.8c-0.7,0.3-1.3,0.5-1.9,0.6C115.7,409,115,409,114.1,409z M113.6,397.9c-1,0-1.7,0.3-2.3,0.9
		c-0.6,0.6-0.9,1.5-1,2.6h6.3c0-1.2-0.3-2-0.8-2.6C115.3,398.2,114.6,397.9,113.6,397.9z"/>
	<path class="st2" d="M135.5,408.8l-0.4-1.8H135c-0.6,0.8-1.2,1.3-1.8,1.6c-0.6,0.3-1.4,0.4-2.3,0.4c-1.2,0-2.2-0.3-2.9-1
		c-0.7-0.6-1-1.5-1-2.7c0-2.5,2-3.8,5.9-3.9l2.1-0.1v-0.7c0-0.9-0.2-1.6-0.6-2.1c-0.4-0.4-1.1-0.7-1.9-0.7c-0.7,0-1.3,0.1-1.8,0.3
		c-0.6,0.2-1.1,0.4-1.6,0.7l-0.6-1.5c0.6-0.3,1.3-0.6,2-0.8c0.7-0.2,1.5-0.3,2.2-0.3c1.5,0,2.6,0.3,3.3,1c0.7,0.7,1.1,1.7,1.1,3.1
		v8.4H135.5z M131.3,407.4c1.1,0,2-0.3,2.7-0.9c0.6-0.6,1-1.5,1-2.6v-1.1l-1.8,0.1c-1.4,0.1-2.4,0.3-3.1,0.7c-0.6,0.4-1,1-1,1.9
		c0,0.6,0.2,1.1,0.6,1.5C130,407.2,130.6,407.4,131.3,407.4z"/>
	<path class="st2" d="M148.8,405.4c0,1.2-0.4,2-1.3,2.7c-0.9,0.6-2.1,0.9-3.6,0.9c-1.6,0-2.9-0.3-3.9-0.8v-1.8c1.4,0.7,2.7,1,3.9,1
		c1,0,1.8-0.2,2.2-0.5c0.5-0.3,0.7-0.8,0.7-1.3c0-0.5-0.2-0.9-0.7-1.2c-0.4-0.3-1.2-0.7-2.4-1.2c-1.2-0.4-2-0.8-2.4-1.2
		c-0.5-0.3-0.8-0.7-1-1.1c-0.2-0.4-0.3-0.9-0.3-1.4c0-1,0.4-1.8,1.2-2.4c0.8-0.6,2-0.9,3.4-0.9c1.4,0,2.7,0.3,3.9,0.8l-0.7,1.6
		c-1.3-0.5-2.4-0.8-3.4-0.8c-0.8,0-1.5,0.1-1.9,0.4c-0.4,0.3-0.7,0.6-0.7,1.1c0,0.4,0.2,0.8,0.6,1.1c0.4,0.3,1.2,0.7,2.6,1.2
		c1,0.4,1.8,0.7,2.3,1.1c0.5,0.3,0.9,0.7,1.1,1.1C148.7,404.3,148.8,404.8,148.8,405.4z"/>
	<path class="st2" d="M153.8,402.4l0.7-0.9l0.8-0.9l3.9-4.2h2.4l-5,5.3l5.3,7.1h-2.4l-4.3-5.8l-1.4,1.2v4.5h-2v-17.5h2v9.1V402.4
		L153.8,402.4z"/>
	<path class="st2" d="M169.1,409c-1.8,0-3.3-0.6-4.4-1.7c-1.1-1.1-1.6-2.7-1.6-4.6c0-2,0.5-3.6,1.5-4.7c1-1.2,2.3-1.8,4-1.8
		c1.5,0,2.8,0.5,3.7,1.5c0.9,1,1.4,2.4,1.4,4.1v1.2h-8.4c0,1.4,0.4,2.5,1.1,3.2c0.7,0.7,1.6,1.1,2.9,1.1c0.7,0,1.3-0.1,1.9-0.2
		c0.6-0.1,1.3-0.3,2.1-0.7v1.8c-0.7,0.3-1.3,0.5-1.9,0.6C170.6,409,169.9,409,169.1,409z M168.6,397.9c-1,0-1.7,0.3-2.3,0.9
		c-0.6,0.6-0.9,1.5-1,2.6h6.3c0-1.2-0.3-2-0.8-2.6C170.2,398.2,169.5,397.9,168.6,397.9z"/>
	<path class="st2" d="M181.2,409c-1.6,0-2.8-0.6-3.7-1.7c-0.9-1.1-1.3-2.7-1.3-4.7c0-2,0.4-3.6,1.3-4.7c0.9-1.1,2.1-1.7,3.7-1.7
		c1.7,0,2.9,0.6,3.8,1.8h0.1c0-0.1-0.1-0.5-0.1-0.9c0-0.5-0.1-0.8-0.1-0.9v-4.9h2v17.5h-1.6l-0.3-1.7H185
		C184.1,408.4,182.9,409,181.2,409z M181.5,407.3c1.2,0,2.1-0.3,2.7-1c0.6-0.7,0.8-1.8,0.8-3.3v-0.4c0-1.7-0.3-2.9-0.9-3.7
		c-0.6-0.7-1.5-1.1-2.7-1.1c-1,0-1.8,0.4-2.4,1.2c-0.6,0.8-0.9,2-0.9,3.5c0,1.5,0.3,2.7,0.8,3.5C179.6,407,180.4,407.3,181.5,407.3z
		"/>
	<path class="st2" d="M203.1,408.8h-2v-11.5c0-1,0-2,0.1-2.8c-0.2,0.2-0.4,0.4-0.7,0.6c-0.8,0.6-1.6,1.3-2.5,2.1l-1.1-1.4l4.4-3.4
		h1.7V408.8z"/>
	<path class="st2" d="M220.1,400.6c0,2.9-0.5,5-1.4,6.4c-0.9,1.4-2.3,2.1-4.1,2.1c-1.8,0-3.1-0.7-4.1-2.2c-0.9-1.4-1.4-3.5-1.4-6.3
		c0-2.9,0.4-5,1.3-6.4c0.9-1.4,2.3-2.1,4.1-2.1c1.8,0,3.1,0.7,4.1,2.2S220.1,397.8,220.1,400.6z M211.3,400.6c0,2.4,0.3,4.1,0.8,5.2
		c0.5,1.1,1.4,1.6,2.6,1.6c1.2,0,2.1-0.5,2.6-1.6c0.5-1.1,0.8-2.8,0.8-5.1c0-2.3-0.3-4-0.8-5.1c-0.5-1.1-1.4-1.6-2.6-1.6
		c-1.2,0-2.1,0.5-2.6,1.6C211.5,396.5,211.3,398.2,211.3,400.6z"/>
	<path class="st2" d="M233.3,400.6c0,2.9-0.5,5-1.4,6.4c-0.9,1.4-2.3,2.1-4.1,2.1c-1.8,0-3.1-0.7-4.1-2.2c-0.9-1.4-1.4-3.5-1.4-6.3
		c0-2.9,0.4-5,1.3-6.4c0.9-1.4,2.3-2.1,4.1-2.1c1.8,0,3.1,0.7,4.1,2.2S233.3,397.8,233.3,400.6z M224.4,400.6c0,2.4,0.3,4.1,0.8,5.2
		c0.5,1.1,1.4,1.6,2.6,1.6c1.2,0,2.1-0.5,2.6-1.6c0.5-1.1,0.8-2.8,0.8-5.1c0-2.3-0.3-4-0.8-5.1c-0.5-1.1-1.4-1.6-2.6-1.6
		c-1.2,0-2.1,0.5-2.6,1.6C224.7,396.5,224.4,398.2,224.4,400.6z"/>
	<path class="st2" d="M246.5,400.6c0,2.9-0.5,5-1.4,6.4c-0.9,1.4-2.3,2.1-4.1,2.1c-1.8,0-3.1-0.7-4.1-2.2c-0.9-1.4-1.4-3.5-1.4-6.3
		c0-2.9,0.4-5,1.3-6.4c0.9-1.4,2.3-2.1,4.1-2.1c1.8,0,3.1,0.7,4.1,2.2C246,395.7,246.5,397.8,246.5,400.6z M237.6,400.6
		c0,2.4,0.3,4.1,0.8,5.2c0.5,1.1,1.4,1.6,2.6,1.6c1.2,0,2.1-0.5,2.6-1.6c0.5-1.1,0.8-2.8,0.8-5.1c0-2.3-0.3-4-0.8-5.1
		c-0.5-1.1-1.4-1.6-2.6-1.6c-1.2,0-2.1,0.5-2.6,1.6C237.8,396.5,237.6,398.2,237.6,400.6z"/>
	<path class="st2" d="M261.3,409c-1.7,0-2.9-0.6-3.8-1.8h-0.1l0,0.5c0.1,0.6,0.1,1.1,0.1,1.6v5.1h-2v-17.9h1.7l0.3,1.7h0.1
		c0.5-0.7,1-1.2,1.7-1.5c0.6-0.3,1.4-0.4,2.2-0.4c1.6,0,2.8,0.6,3.7,1.7c0.9,1.1,1.3,2.7,1.3,4.7c0,2-0.4,3.6-1.3,4.7
		C264.2,408.5,263,409,261.3,409z M261,397.9c-1.2,0-2.1,0.3-2.6,1c-0.5,0.7-0.8,1.8-0.8,3.2v0.4c0,1.7,0.3,2.9,0.8,3.6
		c0.6,0.7,1.5,1.1,2.7,1.1c1,0,1.8-0.4,2.4-1.3c0.6-0.8,0.9-2,0.9-3.5c0-1.5-0.3-2.7-0.9-3.5C262.9,398.3,262.1,397.9,261,397.9z"/>
	<path class="st2" d="M274.9,409c-1.8,0-3.3-0.6-4.4-1.7c-1.1-1.1-1.6-2.7-1.6-4.6c0-2,0.5-3.6,1.5-4.7c1-1.2,2.3-1.8,4-1.8
		c1.5,0,2.8,0.5,3.7,1.5c0.9,1,1.4,2.4,1.4,4.1v1.2h-8.4c0,1.4,0.4,2.5,1.1,3.2s1.6,1.1,2.9,1.1c0.7,0,1.3-0.1,1.9-0.2
		c0.6-0.1,1.3-0.3,2.1-0.7v1.8c-0.7,0.3-1.3,0.5-1.9,0.6C276.4,409,275.7,409,274.9,409z M274.4,397.9c-1,0-1.7,0.3-2.3,0.9
		c-0.6,0.6-0.9,1.5-1,2.6h6.3c0-1.2-0.3-2-0.8-2.6C276.1,398.2,275.3,397.9,274.4,397.9z"/>
	<path class="st2" d="M293.3,402.6c0,2-0.5,3.6-1.5,4.7c-1,1.1-2.4,1.7-4.2,1.7c-1.1,0-2.1-0.3-3-0.8c-0.9-0.5-1.5-1.3-2-2.2
		c-0.5-1-0.7-2.1-0.7-3.4c0-2,0.5-3.6,1.5-4.7c1-1.1,2.4-1.7,4.2-1.7c1.7,0,3.1,0.6,4.1,1.7C292.8,399.1,293.3,400.6,293.3,402.6z
		 M284,402.6c0,1.5,0.3,2.7,0.9,3.5c0.6,0.8,1.5,1.2,2.7,1.2c1.2,0,2.1-0.4,2.7-1.2c0.6-0.8,0.9-2,0.9-3.5s-0.3-2.7-0.9-3.5
		c-0.6-0.8-1.5-1.2-2.7-1.2C285.2,397.9,284,399.5,284,402.6z"/>
	<path class="st2" d="M302.4,409c-1.7,0-2.9-0.6-3.8-1.8h-0.1l0,0.5c0.1,0.6,0.1,1.1,0.1,1.6v5.1h-2v-17.9h1.7l0.3,1.7h0.1
		c0.5-0.7,1-1.2,1.7-1.5c0.6-0.3,1.4-0.4,2.2-0.4c1.6,0,2.8,0.6,3.7,1.7c0.9,1.1,1.3,2.7,1.3,4.7c0,2-0.4,3.6-1.3,4.7
		C305.2,408.5,304,409,302.4,409z M302,397.9c-1.2,0-2.1,0.3-2.6,1c-0.5,0.7-0.8,1.8-0.8,3.2v0.4c0,1.7,0.3,2.9,0.8,3.6
		c0.6,0.7,1.5,1.1,2.7,1.1c1,0,1.8-0.4,2.4-1.3c0.6-0.8,0.9-2,0.9-3.5c0-1.5-0.3-2.7-0.9-3.5C303.9,398.3,303.1,397.9,302,397.9z"/>
	<path class="st2" d="M312.7,408.8h-2v-17.5h2V408.8z"/>
	<path class="st2" d="M321.9,409c-1.8,0-3.3-0.6-4.4-1.7c-1.1-1.1-1.6-2.7-1.6-4.6c0-2,0.5-3.6,1.5-4.7c1-1.2,2.3-1.8,4-1.8
		c1.5,0,2.8,0.5,3.7,1.5c0.9,1,1.4,2.4,1.4,4.1v1.2H318c0,1.4,0.4,2.5,1.1,3.2c0.7,0.7,1.6,1.1,2.9,1.1c0.7,0,1.3-0.1,1.9-0.2
		c0.6-0.1,1.3-0.3,2.1-0.7v1.8c-0.7,0.3-1.3,0.5-1.9,0.6C323.4,409,322.7,409,321.9,409z M321.4,397.9c-1,0-1.7,0.3-2.3,0.9
		c-0.6,0.6-0.9,1.5-1,2.6h6.3c0-1.2-0.3-2-0.8-2.6C323,398.2,322.3,397.9,321.4,397.9z"/>
	<path class="st2" d="M93.4,425.6h-3.1v10.8h-2v-10.8h-2.2v-0.9l2.2-0.7v-0.7c0-1.5,0.3-2.6,1-3.4c0.7-0.7,1.7-1.1,3-1.1
		c0.8,0,1.6,0.1,2.4,0.4l-0.5,1.6c-0.7-0.2-1.3-0.3-1.8-0.3c-0.7,0-1.2,0.2-1.5,0.7c-0.3,0.4-0.5,1.2-0.5,2.1v0.8h3.1V425.6z"/>
	<path class="st2" d="M101.4,423.8c0.5,0,1,0,1.4,0.1l-0.2,1.9c-0.5-0.1-0.9-0.2-1.3-0.2c-0.7,0-1.3,0.2-1.8,0.5
		c-0.6,0.4-1,0.9-1.3,1.5c-0.3,0.6-0.5,1.3-0.5,2.1v6.6h-2v-12.3h1.7l0.2,2.3h0.1c0.5-0.8,1-1.4,1.7-1.9
		C99.9,424,100.6,423.8,101.4,423.8z"/>
	<path class="st2" d="M115.6,430.2c0,2-0.5,3.6-1.5,4.7c-1,1.1-2.4,1.7-4.2,1.7c-1.1,0-2.1-0.3-3-0.8c-0.9-0.5-1.5-1.3-2-2.2
		c-0.5-1-0.7-2.1-0.7-3.4c0-2,0.5-3.6,1.5-4.7c1-1.1,2.4-1.7,4.2-1.7c1.7,0,3.1,0.6,4.1,1.7C115.1,426.7,115.6,428.2,115.6,430.2z
		 M106.3,430.2c0,1.5,0.3,2.7,0.9,3.5c0.6,0.8,1.5,1.2,2.7,1.2c1.2,0,2.1-0.4,2.7-1.2c0.6-0.8,0.9-2,0.9-3.5c0-1.5-0.3-2.7-0.9-3.5
		c-0.6-0.8-1.5-1.2-2.7-1.2C107.5,425.5,106.3,427.1,106.3,430.2z"/>
	<path class="st2" d="M134.5,436.4v-7.9c0-1.9-0.8-2.9-2.5-2.9c-1.1,0-2,0.3-2.5,1c-0.5,0.7-0.8,1.7-0.8,3.1v6.8h-2v-7.9
		c0-1-0.2-1.7-0.6-2.2c-0.4-0.5-1-0.7-1.9-0.7c-1.1,0-2,0.3-2.5,1c-0.5,0.7-0.8,1.8-0.8,3.4v6.4h-2v-12.3h1.6l0.3,1.7h0.1
		c0.4-0.6,0.8-1.1,1.5-1.4c0.6-0.3,1.4-0.5,2.2-0.5c1.9,0,3.2,0.7,3.8,2.1h0.1c0.4-0.7,0.9-1.2,1.6-1.5c0.7-0.4,1.5-0.5,2.3-0.5
		c1.4,0,2.4,0.4,3.1,1.1c0.7,0.7,1,1.9,1,3.4v8H134.5z"/>
	<path class="st2" d="M150.4,435c0.3,0,0.6,0,0.9-0.1c0.4-0.1,0.6-0.1,0.8-0.2v1.5c-0.2,0.1-0.5,0.2-0.9,0.2
		c-0.4,0.1-0.8,0.1-1.2,0.1c-2.4,0-3.6-1.3-3.6-3.8v-7.2h-1.7v-1l1.8-0.8l0.8-2.6h1.2v2.8h3.6v1.6h-3.6v7.1c0,0.7,0.2,1.3,0.5,1.6
		C149.4,434.8,149.8,435,150.4,435z"/>
	<path class="st2" d="M163,436.4v-7.9c0-1-0.2-1.8-0.7-2.2c-0.4-0.5-1.1-0.7-2.1-0.7c-1.3,0-2.2,0.3-2.7,1c-0.6,0.7-0.9,1.8-0.9,3.4
		v6.4h-2v-17.5h2v5.1c0,0.7,0,1.3-0.1,1.7h0.1c0.4-0.6,0.9-1.1,1.6-1.4c0.7-0.3,1.4-0.5,2.3-0.5c1.5,0,2.6,0.4,3.4,1.1
		c0.8,0.7,1.1,1.9,1.1,3.4v8H163z"/>
	<path class="st2" d="M174.1,436.6c-1.8,0-3.3-0.6-4.4-1.7c-1.1-1.1-1.6-2.7-1.6-4.6c0-2,0.5-3.6,1.5-4.7c1-1.2,2.3-1.8,4-1.8
		c1.5,0,2.8,0.5,3.7,1.5c0.9,1,1.4,2.4,1.4,4.1v1.2h-8.4c0,1.4,0.4,2.5,1.1,3.2s1.6,1.1,2.9,1.1c0.7,0,1.3-0.1,1.9-0.2
		c0.6-0.1,1.3-0.3,2.1-0.7v1.8c-0.7,0.3-1.3,0.5-1.9,0.6C175.6,436.6,174.9,436.6,174.1,436.6z M173.6,425.5c-1,0-1.7,0.3-2.3,0.9
		c-0.6,0.6-0.9,1.5-1,2.6h6.3c0-1.2-0.3-2-0.8-2.6C175.2,425.8,174.5,425.5,173.6,425.5z"/>
	<path class="st2" d="M198.4,436.4l-2-5.1h-6.5l-2,5.1h-2.1l6.4-16.5h1.9l6.4,16.5H198.4z M195.8,429.5l-1.8-5l-0.8-2.5
		c-0.2,0.9-0.5,1.7-0.7,2.5l-1.9,5H195.8z"/>
	<path class="st2" d="M210.5,433c0,1.2-0.4,2-1.3,2.7c-0.9,0.6-2.1,0.9-3.6,0.9c-1.6,0-2.9-0.3-3.9-0.8V434c1.4,0.7,2.7,1,3.9,1
		c1,0,1.8-0.2,2.2-0.5c0.5-0.3,0.7-0.8,0.7-1.3c0-0.5-0.2-0.9-0.7-1.2c-0.4-0.3-1.2-0.7-2.4-1.2c-1.2-0.4-2-0.8-2.4-1.2
		c-0.5-0.3-0.8-0.7-1-1.1c-0.2-0.4-0.3-0.9-0.3-1.4c0-1,0.4-1.8,1.2-2.4c0.8-0.6,2-0.9,3.4-0.9c1.4,0,2.7,0.3,3.9,0.8l-0.7,1.6
		c-1.3-0.5-2.4-0.8-3.4-0.8c-0.8,0-1.5,0.1-1.9,0.4c-0.4,0.3-0.7,0.6-0.7,1.1c0,0.4,0.2,0.8,0.6,1.1c0.4,0.3,1.2,0.7,2.6,1.2
		c1,0.4,1.8,0.7,2.3,1.1c0.5,0.3,0.9,0.7,1.1,1.1C210.4,431.9,210.5,432.4,210.5,433z"/>
	<path class="st2" d="M213.3,420.7c0-0.4,0.1-0.8,0.3-1c0.2-0.2,0.5-0.3,0.8-0.3c0.3,0,0.6,0.1,0.8,0.3c0.2,0.2,0.4,0.5,0.4,1
		c0,0.4-0.1,0.8-0.4,1c-0.2,0.2-0.5,0.3-0.8,0.3c-0.3,0-0.6-0.1-0.8-0.3C213.5,421.5,213.3,421.2,213.3,420.7z M215.5,436.4h-2
		v-12.3h2V436.4z"/>
	<path class="st2" d="M227,436.4l-0.4-1.8h-0.1c-0.6,0.8-1.2,1.3-1.8,1.6c-0.6,0.3-1.4,0.4-2.3,0.4c-1.2,0-2.2-0.3-2.9-1
		c-0.7-0.6-1-1.5-1-2.7c0-2.5,2-3.8,5.9-3.9l2.1-0.1v-0.7c0-0.9-0.2-1.6-0.6-2.1c-0.4-0.4-1.1-0.7-1.9-0.7c-0.7,0-1.3,0.1-1.8,0.3
		c-0.6,0.2-1.1,0.4-1.6,0.7l-0.6-1.5c0.6-0.3,1.3-0.6,2-0.8c0.7-0.2,1.5-0.3,2.2-0.3c1.5,0,2.6,0.3,3.3,1c0.7,0.7,1.1,1.7,1.1,3.1
		v8.4H227z M222.9,435c1.1,0,2-0.3,2.7-0.9c0.6-0.6,1-1.5,1-2.6v-1.1l-1.8,0.1c-1.4,0.1-2.4,0.3-3.1,0.7c-0.6,0.4-1,1-1,1.9
		c0,0.6,0.2,1.1,0.6,1.5C221.6,434.8,222.2,435,222.9,435z"/>
	<path class="st2" d="M244.1,423.8c0.5,0,1,0,1.4,0.1l-0.2,1.9c-0.5-0.1-0.9-0.2-1.3-0.2c-0.7,0-1.3,0.2-1.8,0.5
		c-0.6,0.4-1,0.9-1.3,1.5c-0.3,0.6-0.5,1.3-0.5,2.1v6.6h-2v-12.3h1.7l0.2,2.3h0.1c0.5-0.8,1-1.4,1.7-1.9
		C242.6,424,243.3,423.8,244.1,423.8z"/>
	<path class="st2" d="M252.8,436.6c-1.8,0-3.3-0.6-4.4-1.7c-1.1-1.1-1.6-2.7-1.6-4.6c0-2,0.5-3.6,1.5-4.7c1-1.2,2.3-1.8,4-1.8
		c1.5,0,2.8,0.5,3.7,1.5c0.9,1,1.4,2.4,1.4,4.1v1.2H249c0,1.4,0.4,2.5,1.1,3.2c0.7,0.7,1.6,1.1,2.9,1.1c0.7,0,1.3-0.1,1.9-0.2
		c0.6-0.1,1.3-0.3,2.1-0.7v1.8c-0.7,0.3-1.3,0.5-1.9,0.6C254.4,436.6,253.6,436.6,252.8,436.6z M252.3,425.5c-1,0-1.7,0.3-2.3,0.9
		c-0.6,0.6-0.9,1.5-1,2.6h6.3c0-1.2-0.3-2-0.8-2.6C254,425.8,253.3,425.5,252.3,425.5z"/>
	<path class="st2" d="M268.8,436.3l0.1-1.5h-0.1c-0.8,1.2-2.1,1.9-3.8,1.9c-1.6,0-2.8-0.6-3.7-1.7c-0.9-1.1-1.3-2.7-1.3-4.7
		c0-2,0.5-3.5,1.4-4.7c0.9-1.1,2.1-1.7,3.7-1.7c1.7,0,3,0.6,3.9,1.9h0.1l0.3-1.6h1.6v12.5c0,1.8-0.4,3.1-1.3,4
		c-0.9,0.9-2.3,1.3-4.2,1.3c-1.8,0-3.3-0.3-4.4-0.8v-1.9c1.2,0.6,2.7,1,4.5,1c1,0,1.9-0.3,2.5-0.9c0.6-0.6,0.9-1.5,0.9-2.5V436.3z
		 M265.3,435c1.2,0,2.1-0.3,2.7-1c0.6-0.7,0.8-1.7,0.8-3.2v-0.5c0-1.6-0.3-2.8-0.9-3.6c-0.6-0.7-1.5-1.1-2.8-1.1
		c-1,0-1.8,0.4-2.4,1.2c-0.6,0.8-0.8,2-0.8,3.5c0,1.5,0.3,2.7,0.8,3.5S264.2,435,265.3,435z"/>
	<path class="st2" d="M274.5,420.7c0-0.4,0.1-0.8,0.3-1c0.2-0.2,0.5-0.3,0.8-0.3c0.3,0,0.6,0.1,0.8,0.3c0.2,0.2,0.4,0.5,0.4,1
		c0,0.4-0.1,0.8-0.4,1c-0.2,0.2-0.5,0.3-0.8,0.3c-0.3,0-0.6-0.1-0.8-0.3C274.7,421.5,274.5,421.2,274.5,420.7z M276.7,436.4h-2
		v-12.3h2V436.4z"/>
	<path class="st2" d="M291.3,430.2c0,2-0.5,3.6-1.5,4.7c-1,1.1-2.4,1.7-4.2,1.7c-1.1,0-2.1-0.3-3-0.8c-0.9-0.5-1.5-1.3-2-2.2
		c-0.5-1-0.7-2.1-0.7-3.4c0-2,0.5-3.6,1.5-4.7c1-1.1,2.4-1.7,4.2-1.7c1.7,0,3.1,0.6,4.1,1.7C290.8,426.7,291.3,428.2,291.3,430.2z
		 M282,430.2c0,1.5,0.3,2.7,0.9,3.5c0.6,0.8,1.5,1.2,2.7,1.2c1.2,0,2.1-0.4,2.7-1.2c0.6-0.8,0.9-2,0.9-3.5c0-1.5-0.3-2.7-0.9-3.5
		c-0.6-0.8-1.5-1.2-2.7-1.2C283.2,425.5,282,427.1,282,430.2z"/>
	<path class="st2" d="M303,436.4v-7.9c0-1-0.2-1.8-0.7-2.2c-0.4-0.5-1.1-0.7-2.1-0.7c-1.3,0-2.2,0.4-2.8,1.1
		c-0.6,0.7-0.9,1.8-0.9,3.4v6.4h-2v-12.3h1.6l0.3,1.7h0.1c0.4-0.6,0.9-1.1,1.6-1.4c0.7-0.3,1.4-0.5,2.3-0.5c1.5,0,2.6,0.4,3.4,1.1
		c0.7,0.7,1.1,1.9,1.1,3.4v8H303z"/>
	<path class="st2" d="M93.4,453.2h-3.1V464h-2v-10.8h-2.2v-0.9l2.2-0.7v-0.7c0-1.5,0.3-2.6,1-3.4c0.7-0.7,1.7-1.1,3-1.1
		c0.8,0,1.6,0.1,2.4,0.4l-0.5,1.6c-0.7-0.2-1.3-0.3-1.8-0.3c-0.7,0-1.2,0.2-1.5,0.7c-0.3,0.4-0.5,1.2-0.5,2.1v0.8h3.1V453.2z"/>
	<path class="st2" d="M106.4,457.8c0,2-0.5,3.6-1.5,4.7c-1,1.1-2.4,1.7-4.2,1.7c-1.1,0-2.1-0.3-3-0.8c-0.9-0.5-1.5-1.3-2-2.2
		c-0.5-1-0.7-2.1-0.7-3.4c0-2,0.5-3.6,1.5-4.7c1-1.1,2.4-1.7,4.2-1.7c1.7,0,3.1,0.6,4.1,1.7C105.9,454.3,106.4,455.8,106.4,457.8z
		 M97.1,457.8c0,1.5,0.3,2.7,0.9,3.5c0.6,0.8,1.5,1.2,2.7,1.2c1.2,0,2.1-0.4,2.7-1.2c0.6-0.8,0.9-2,0.9-3.5c0-1.5-0.3-2.7-0.9-3.5
		c-0.6-0.8-1.5-1.2-2.7-1.2C98.2,453.1,97.1,454.7,97.1,457.8z"/>
	<path class="st2" d="M115.3,451.4c0.5,0,1,0,1.4,0.1l-0.2,1.9c-0.5-0.1-0.9-0.2-1.3-0.2c-0.7,0-1.3,0.2-1.8,0.5
		c-0.6,0.4-1,0.9-1.3,1.5c-0.3,0.6-0.5,1.3-0.5,2.1v6.6h-2v-12.3h1.7l0.2,2.3h0.1c0.5-0.8,1-1.4,1.7-1.9
		C113.9,451.6,114.6,451.4,115.3,451.4z"/>
	<path class="st2" d="M129.2,462.6c0.3,0,0.6,0,0.9-0.1c0.4-0.1,0.6-0.1,0.8-0.2v1.5c-0.2,0.1-0.5,0.2-0.9,0.2
		c-0.4,0.1-0.8,0.1-1.2,0.1c-2.4,0-3.6-1.3-3.6-3.8v-7.2h-1.7v-1l1.8-0.8l0.8-2.6h1.2v2.8h3.6v1.6h-3.6v7.1c0,0.7,0.2,1.3,0.5,1.6
		C128.1,462.4,128.6,462.6,129.2,462.6z"/>
	<path class="st2" d="M141.7,464v-7.9c0-1-0.2-1.8-0.7-2.2c-0.4-0.5-1.1-0.7-2.1-0.7c-1.3,0-2.2,0.3-2.7,1c-0.6,0.7-0.9,1.8-0.9,3.4
		v6.4h-2v-17.5h2v5.1c0,0.7,0,1.3-0.1,1.7h0.1c0.4-0.6,0.9-1.1,1.6-1.4c0.7-0.3,1.4-0.5,2.3-0.5c1.5,0,2.6,0.4,3.4,1.1
		c0.8,0.7,1.1,1.9,1.1,3.4v8H141.7z"/>
	<path class="st2" d="M152.8,464.2c-1.8,0-3.3-0.6-4.4-1.7c-1.1-1.1-1.6-2.7-1.6-4.6c0-2,0.5-3.6,1.5-4.7c1-1.2,2.3-1.8,4-1.8
		c1.5,0,2.8,0.5,3.7,1.5c0.9,1,1.4,2.4,1.4,4.1v1.2H149c0,1.4,0.4,2.5,1.1,3.2c0.7,0.7,1.6,1.1,2.9,1.1c0.7,0,1.3-0.1,1.9-0.2
		c0.6-0.1,1.3-0.3,2.1-0.7v1.8c-0.7,0.3-1.3,0.5-1.9,0.6C154.3,464.2,153.6,464.2,152.8,464.2z M152.3,453.1c-1,0-1.7,0.3-2.3,0.9
		c-0.6,0.6-0.9,1.5-1,2.6h6.3c0-1.2-0.3-2-0.8-2.6C154,453.4,153.2,453.1,152.3,453.1z"/>
	<path class="st2" d="M160.4,448.3c0-0.4,0.1-0.8,0.3-1c0.2-0.2,0.5-0.3,0.8-0.3c0.3,0,0.6,0.1,0.8,0.3c0.2,0.2,0.4,0.5,0.4,1
		c0,0.4-0.1,0.8-0.4,1c-0.2,0.2-0.5,0.3-0.8,0.3c-0.3,0-0.6-0.1-0.8-0.3C160.5,449.1,160.4,448.8,160.4,448.3z M162.5,464h-2v-12.3
		h2V464z"/>
	<path class="st2" d="M172.2,451.4c0.5,0,1,0,1.4,0.1l-0.2,1.9c-0.5-0.1-0.9-0.2-1.3-0.2c-0.7,0-1.3,0.2-1.8,0.5
		c-0.6,0.4-1,0.9-1.3,1.5c-0.3,0.6-0.5,1.3-0.5,2.1v6.6h-2v-12.3h1.7l0.2,2.3h0.1c0.5-0.8,1-1.4,1.7-1.9
		C170.7,451.6,171.4,451.4,172.2,451.4z"/>
	<path class="st2" d="M184.6,464l-4.7-12.3h2.2l2.6,7.3c0.5,1.5,0.8,2.5,1,3.3h0.1c0-0.1,0.1-0.2,0.1-0.3c0-0.1,0.1-0.3,0.1-0.4
		c0-0.1,0.3-1,0.8-2.5l2.6-7.3h2.2L187,464H184.6z"/>
	<path class="st2" d="M193.5,448.3c0-0.4,0.1-0.8,0.3-1c0.2-0.2,0.5-0.3,0.8-0.3c0.3,0,0.6,0.1,0.8,0.3c0.2,0.2,0.4,0.5,0.4,1
		c0,0.4-0.1,0.8-0.4,1c-0.2,0.2-0.5,0.3-0.8,0.3c-0.3,0-0.6-0.1-0.8-0.3C193.6,449.1,193.5,448.8,193.5,448.3z M195.6,464h-2v-12.3
		h2V464z"/>
	<path class="st2" d="M204.8,464.2c-1.8,0-3.3-0.6-4.4-1.7c-1.1-1.1-1.6-2.7-1.6-4.6c0-2,0.5-3.6,1.5-4.7c1-1.2,2.3-1.8,4-1.8
		c1.5,0,2.8,0.5,3.7,1.5c0.9,1,1.4,2.4,1.4,4.1v1.2h-8.4c0,1.4,0.4,2.5,1.1,3.2s1.6,1.1,2.9,1.1c0.7,0,1.3-0.1,1.9-0.2
		c0.6-0.1,1.3-0.3,2.1-0.7v1.8c-0.7,0.3-1.3,0.5-1.9,0.6C206.3,464.2,205.6,464.2,204.8,464.2z M204.3,453.1c-1,0-1.7,0.3-2.3,0.9
		c-0.6,0.6-0.9,1.5-1,2.6h6.3c0-1.2-0.3-2-0.8-2.6C206,453.4,205.2,453.1,204.3,453.1z"/>
	<path class="st2" d="M222.4,464l-2.1-6.9c-0.2-0.6-0.5-1.7-0.9-3.3h-0.1c-0.3,1.5-0.6,2.6-0.8,3.3l-2.2,6.9H214l-3.4-12.3h2.1
		c0.8,3,1.4,5.3,1.8,6.9c0.4,1.6,0.6,2.7,0.7,3.3h0.1l0.2-0.7c0.2-1.1,0.5-1.9,0.7-2.6l2.2-7h2.2l2.1,7c0.1,0.3,0.2,0.5,0.2,0.8
		c0.1,0.3,0.2,0.6,0.2,0.9c0.1,0.3,0.1,0.6,0.2,0.8c0.1,0.3,0.1,0.5,0.1,0.7h0.1c0.1-0.6,0.3-1.8,0.8-3.7l1.7-6.6h2.1l-3.4,12.3
		H222.4z"/>
	<path class="st2" d="M238.4,460.6c0,1.2-0.4,2-1.3,2.7c-0.9,0.6-2.1,0.9-3.6,0.9c-1.6,0-2.9-0.3-3.9-0.8v-1.8c1.4,0.7,2.7,1,3.9,1
		c1,0,1.8-0.2,2.2-0.5c0.5-0.3,0.7-0.8,0.7-1.3c0-0.5-0.2-0.9-0.7-1.2c-0.4-0.3-1.2-0.7-2.4-1.2c-1.2-0.4-2-0.8-2.4-1.2
		c-0.5-0.3-0.8-0.7-1-1.1c-0.2-0.4-0.3-0.9-0.3-1.4c0-1,0.4-1.8,1.2-2.4c0.8-0.6,2-0.9,3.4-0.9c1.4,0,2.7,0.3,3.9,0.8l-0.7,1.6
		c-1.3-0.5-2.4-0.8-3.4-0.8c-0.8,0-1.5,0.1-1.9,0.4c-0.4,0.3-0.7,0.6-0.7,1.1c0,0.4,0.2,0.8,0.6,1.1c0.4,0.3,1.2,0.7,2.6,1.2
		c1,0.4,1.8,0.7,2.3,1.1c0.5,0.3,0.9,0.7,1.1,1.1C238.3,459.5,238.4,460,238.4,460.6z"/>
	<path class="st2" d="M258.1,457.8c0,2-0.5,3.6-1.5,4.7c-1,1.1-2.4,1.7-4.2,1.7c-1.1,0-2.1-0.3-3-0.8c-0.9-0.5-1.5-1.3-2-2.2
		c-0.5-1-0.7-2.1-0.7-3.4c0-2,0.5-3.6,1.5-4.7c1-1.1,2.4-1.7,4.2-1.7c1.7,0,3.1,0.6,4.1,1.7C257.6,454.3,258.1,455.8,258.1,457.8z
		 M248.8,457.8c0,1.5,0.3,2.7,0.9,3.5c0.6,0.8,1.5,1.2,2.7,1.2c1.2,0,2.1-0.4,2.7-1.2c0.6-0.8,0.9-2,0.9-3.5c0-1.5-0.3-2.7-0.9-3.5
		c-0.6-0.8-1.5-1.2-2.7-1.2C250,453.1,248.8,454.7,248.8,457.8z"/>
	<path class="st2" d="M269.7,464v-7.9c0-1-0.2-1.8-0.7-2.2c-0.4-0.5-1.1-0.7-2.1-0.7c-1.3,0-2.2,0.4-2.8,1.1
		c-0.6,0.7-0.9,1.8-0.9,3.4v6.4h-2v-12.3h1.6l0.3,1.7h0.1c0.4-0.6,0.9-1.1,1.6-1.4c0.7-0.3,1.4-0.5,2.3-0.5c1.5,0,2.6,0.4,3.4,1.1
		c0.7,0.7,1.1,1.9,1.1,3.4v8H269.7z"/>
	<path class="st2" d="M297.2,464v-7.9c0-1.9-0.8-2.9-2.5-2.9c-1.1,0-2,0.3-2.5,1c-0.5,0.7-0.8,1.7-0.8,3.1v6.8h-2v-7.9
		c0-1-0.2-1.7-0.6-2.2c-0.4-0.5-1-0.7-1.9-0.7c-1.1,0-2,0.3-2.5,1c-0.5,0.7-0.8,1.8-0.8,3.4v6.4h-2v-12.3h1.6l0.3,1.7h0.1
		c0.4-0.6,0.8-1.1,1.5-1.4c0.6-0.3,1.4-0.5,2.2-0.5c1.9,0,3.2,0.7,3.8,2.1h0.1c0.4-0.7,0.9-1.2,1.6-1.5c0.7-0.4,1.5-0.5,2.3-0.5
		c1.4,0,2.4,0.4,3.1,1.1c0.7,0.7,1,1.9,1,3.4v8H297.2z"/>
	<path class="st2" d="M313.7,457.8c0,2-0.5,3.6-1.5,4.7c-1,1.1-2.4,1.7-4.2,1.7c-1.1,0-2.1-0.3-3-0.8c-0.9-0.5-1.5-1.3-2-2.2
		c-0.5-1-0.7-2.1-0.7-3.4c0-2,0.5-3.6,1.5-4.7c1-1.1,2.4-1.7,4.2-1.7c1.7,0,3.1,0.6,4.1,1.7C313.2,454.3,313.7,455.8,313.7,457.8z
		 M304.4,457.8c0,1.5,0.3,2.7,0.9,3.5c0.6,0.8,1.5,1.2,2.7,1.2c1.2,0,2.1-0.4,2.7-1.2c0.6-0.8,0.9-2,0.9-3.5c0-1.5-0.3-2.7-0.9-3.5
		c-0.6-0.8-1.5-1.2-2.7-1.2C305.6,453.1,304.4,454.7,304.4,457.8z"/>
	<path class="st2" d="M322.7,451.5c1.6,0,2.9,0.6,3.8,1.7c0.9,1.1,1.3,2.7,1.3,4.7c0,2-0.4,3.6-1.3,4.7c-0.9,1.1-2.1,1.7-3.7,1.7
		c-0.8,0-1.6-0.1-2.2-0.4c-0.7-0.3-1.2-0.7-1.6-1.3h-0.2c-0.2,0.9-0.4,1.4-0.4,1.6h-1.4v-17.5h2v4.2c0,0.8,0,1.7-0.1,2.5h0.1
		C319.7,452.1,321,451.5,322.7,451.5z M322.4,453.1c-1.2,0-2.1,0.4-2.7,1.1c-0.5,0.7-0.8,1.9-0.8,3.6v0.1c0,1.7,0.3,2.9,0.8,3.6
		c0.6,0.7,1.5,1.1,2.7,1.1c1.1,0,1.9-0.4,2.5-1.2c0.5-0.8,0.8-2,0.8-3.5c0-1.6-0.3-2.7-0.8-3.5C324.4,453.5,323.5,453.1,322.4,453.1
		z"/>
	<path class="st2" d="M330.9,448.3c0-0.4,0.1-0.8,0.3-1c0.2-0.2,0.5-0.3,0.8-0.3c0.3,0,0.6,0.1,0.8,0.3c0.2,0.2,0.4,0.5,0.4,1
		c0,0.4-0.1,0.8-0.4,1c-0.2,0.2-0.5,0.3-0.8,0.3c-0.3,0-0.6-0.1-0.8-0.3C331,449.1,330.9,448.8,330.9,448.3z M333.1,464h-2v-12.3h2
		V464z"/>
	<path class="st2" d="M339,464h-2v-17.5h2V464z"/>
	<path class="st2" d="M348.1,464.2c-1.8,0-3.3-0.6-4.4-1.7c-1.1-1.1-1.6-2.7-1.6-4.6c0-2,0.5-3.6,1.5-4.7c1-1.2,2.3-1.8,4-1.8
		c1.5,0,2.8,0.5,3.7,1.5c0.9,1,1.4,2.4,1.4,4.1v1.2h-8.4c0,1.4,0.4,2.5,1.1,3.2c0.7,0.7,1.6,1.1,2.9,1.1c0.7,0,1.3-0.1,1.9-0.2
		c0.6-0.1,1.3-0.3,2.1-0.7v1.8c-0.7,0.3-1.3,0.5-1.9,0.6C349.7,464.2,349,464.2,348.1,464.2z M347.6,453.1c-1,0-1.7,0.3-2.3,0.9
		c-0.6,0.6-0.9,1.5-1,2.6h6.3c0-1.2-0.3-2-0.8-2.6C349.3,453.4,348.6,453.1,347.6,453.1z"/>
	<path class="st2" d="M369.9,460.6c0,1.2-0.4,2-1.3,2.7c-0.9,0.6-2.1,0.9-3.6,0.9c-1.6,0-2.9-0.3-3.9-0.8v-1.8c1.4,0.7,2.7,1,3.9,1
		c1,0,1.8-0.2,2.2-0.5c0.5-0.3,0.7-0.8,0.7-1.3c0-0.5-0.2-0.9-0.7-1.2c-0.4-0.3-1.2-0.7-2.4-1.2c-1.2-0.4-2-0.8-2.4-1.2
		c-0.5-0.3-0.8-0.7-1-1.1c-0.2-0.4-0.3-0.9-0.3-1.4c0-1,0.4-1.8,1.2-2.4c0.8-0.6,2-0.9,3.4-0.9c1.4,0,2.7,0.3,3.9,0.8l-0.7,1.6
		c-1.3-0.5-2.4-0.8-3.4-0.8c-0.8,0-1.5,0.1-1.9,0.4c-0.4,0.3-0.7,0.6-0.7,1.1c0,0.4,0.2,0.8,0.6,1.1c0.4,0.3,1.2,0.7,2.6,1.2
		c1,0.4,1.8,0.7,2.3,1.1c0.5,0.3,0.9,0.7,1.1,1.1C369.8,459.5,369.9,460,369.9,460.6z"/>
	<path class="st2" d="M381.3,464v-7.9c0-1-0.2-1.8-0.7-2.2c-0.4-0.5-1.1-0.7-2.1-0.7c-1.3,0-2.2,0.3-2.7,1c-0.6,0.7-0.9,1.8-0.9,3.4
		v6.4h-2v-17.5h2v5.1c0,0.7,0,1.3-0.1,1.7h0.1c0.4-0.6,0.9-1.1,1.6-1.4c0.7-0.3,1.4-0.5,2.3-0.5c1.5,0,2.6,0.4,3.4,1.1
		c0.8,0.7,1.1,1.9,1.1,3.4v8H381.3z"/>
	<path class="st2" d="M397.8,457.8c0,2-0.5,3.6-1.5,4.7c-1,1.1-2.4,1.7-4.2,1.7c-1.1,0-2.1-0.3-3-0.8c-0.9-0.5-1.5-1.3-2-2.2
		c-0.5-1-0.7-2.1-0.7-3.4c0-2,0.5-3.6,1.5-4.7c1-1.1,2.4-1.7,4.2-1.7c1.7,0,3.1,0.6,4.1,1.7C397.3,454.3,397.8,455.8,397.8,457.8z
		 M388.5,457.8c0,1.5,0.3,2.7,0.9,3.5c0.6,0.8,1.5,1.2,2.7,1.2c1.2,0,2.1-0.4,2.7-1.2c0.6-0.8,0.9-2,0.9-3.5c0-1.5-0.3-2.7-0.9-3.5
		c-0.6-0.8-1.5-1.2-2.7-1.2C389.7,453.1,388.5,454.7,388.5,457.8z"/>
	<path class="st2" d="M406.8,464.2c-1.7,0-2.9-0.6-3.8-1.8h-0.1l0,0.5c0.1,0.6,0.1,1.1,0.1,1.6v5.1h-2v-17.9h1.7l0.3,1.7h0.1
		c0.5-0.7,1-1.2,1.7-1.5c0.6-0.3,1.4-0.4,2.2-0.4c1.6,0,2.8,0.6,3.7,1.7c0.9,1.1,1.3,2.7,1.3,4.7c0,2-0.4,3.6-1.3,4.7
		C409.7,463.7,408.4,464.2,406.8,464.2z M406.5,453.1c-1.2,0-2.1,0.3-2.6,1c-0.5,0.7-0.8,1.8-0.8,3.2v0.4c0,1.7,0.3,2.9,0.8,3.6
		c0.6,0.7,1.5,1.1,2.7,1.1c1,0,1.8-0.4,2.4-1.3c0.6-0.8,0.9-2,0.9-3.5c0-1.5-0.3-2.7-0.9-3.5C408.4,453.5,407.6,453.1,406.5,453.1z"
		/>
	<path class="st2" d="M421,464.2c-1.7,0-2.9-0.6-3.8-1.8H417l0,0.5c0.1,0.6,0.1,1.1,0.1,1.6v5.1h-2v-17.9h1.7l0.3,1.7h0.1
		c0.5-0.7,1-1.2,1.7-1.5c0.6-0.3,1.4-0.4,2.2-0.4c1.6,0,2.8,0.6,3.7,1.7c0.9,1.1,1.3,2.7,1.3,4.7c0,2-0.4,3.6-1.3,4.7
		C423.8,463.7,422.6,464.2,421,464.2z M420.6,453.1c-1.2,0-2.1,0.3-2.6,1c-0.5,0.7-0.8,1.8-0.8,3.2v0.4c0,1.7,0.3,2.9,0.8,3.6
		c0.6,0.7,1.5,1.1,2.7,1.1c1,0,1.8-0.4,2.4-1.3c0.6-0.8,0.9-2,0.9-3.5c0-1.5-0.3-2.7-0.9-3.5C422.5,453.5,421.7,453.1,420.6,453.1z"
		/>
	<path class="st2" d="M429.1,448.3c0-0.4,0.1-0.8,0.3-1c0.2-0.2,0.5-0.3,0.8-0.3c0.3,0,0.6,0.1,0.8,0.3c0.2,0.2,0.4,0.5,0.4,1
		c0,0.4-0.1,0.8-0.4,1c-0.2,0.2-0.5,0.3-0.8,0.3c-0.3,0-0.6-0.1-0.8-0.3C429.3,449.1,429.1,448.8,429.1,448.3z M431.3,464h-2v-12.3
		h2V464z"/>
	<path class="st2" d="M443.6,464v-7.9c0-1-0.2-1.8-0.7-2.2c-0.4-0.5-1.1-0.7-2.1-0.7c-1.3,0-2.2,0.4-2.8,1.1
		c-0.6,0.7-0.9,1.8-0.9,3.4v6.4h-2v-12.3h1.6l0.3,1.7h0.1c0.4-0.6,0.9-1.1,1.6-1.4c0.7-0.3,1.4-0.5,2.3-0.5c1.5,0,2.6,0.4,3.4,1.1
		c0.7,0.7,1.1,1.9,1.1,3.4v8H443.6z"/>
	<path class="st2" d="M457.7,463.9l0.1-1.5h-0.1c-0.8,1.2-2.1,1.9-3.8,1.9c-1.6,0-2.8-0.6-3.7-1.7c-0.9-1.1-1.3-2.7-1.3-4.7
		c0-2,0.5-3.5,1.4-4.7c0.9-1.1,2.1-1.7,3.7-1.7c1.7,0,3,0.6,3.9,1.9h0.1l0.3-1.6h1.6v12.5c0,1.8-0.4,3.1-1.3,4
		c-0.9,0.9-2.3,1.3-4.2,1.3c-1.8,0-3.3-0.3-4.4-0.8v-1.9c1.2,0.6,2.7,1,4.5,1c1,0,1.9-0.3,2.5-0.9c0.6-0.6,0.9-1.5,0.9-2.5V463.9z
		 M454.1,462.6c1.2,0,2.1-0.3,2.7-1c0.6-0.7,0.8-1.7,0.8-3.2v-0.5c0-1.6-0.3-2.8-0.9-3.6c-0.6-0.7-1.5-1.1-2.8-1.1
		c-1,0-1.8,0.4-2.4,1.2c-0.6,0.8-0.8,2-0.8,3.5c0,1.5,0.3,2.7,0.8,3.5C452.2,462.2,453,462.6,454.1,462.6z"/>
	<path class="st2" d="M463.3,462.7c0-0.5,0.1-0.9,0.4-1.1c0.2-0.3,0.6-0.4,1-0.4c0.5,0,0.8,0.1,1.1,0.4c0.3,0.3,0.4,0.6,0.4,1.1
		c0,0.5-0.1,0.9-0.4,1.2c-0.3,0.3-0.6,0.4-1.1,0.4c-0.4,0-0.8-0.1-1-0.4C463.4,463.6,463.3,463.2,463.3,462.7z"/>
</g>
</svg>
