<!-- Generator: Adobe Illustrator 19.0.0, SVG Export Plug-In  -->
<svg version="1.1"
	 xmlns="http://www.w3.org/2000/svg" xmlns:xlink="http://www.w3.org/1999/xlink" xmlns:a="http://ns.adobe.com/AdobeSVGViewerExtensions/3.0/"
	 x="0px" y="0px" width="69px" height="30px" viewBox="0 0 69 30" style="enable-background:new 0 0 69 30;" xml:space="preserve">
<style type="text/css">
	.st0{fill:#FFFFFF;stroke:#086A87;stroke-width:2;stroke-miterlimit:10;}
	.st1{fill:#086A87;}
</style>
<defs>
</defs>
<rect x="1" y="1" class="st0" width="67" height="28"/>
<g>
	<g>
		<path class="st1" d="M28.8,19.5h-6.5v-1.4l2.3-2.4c0.7-0.7,1.1-1.2,1.4-1.5c0.2-0.3,0.4-0.5,0.5-0.8s0.1-0.5,0.1-0.7
			c0-0.4-0.1-0.6-0.3-0.8c-0.2-0.2-0.5-0.3-0.8-0.3c-0.4,0-0.7,0.1-1,0.2c-0.3,0.2-0.7,0.4-1.1,0.7l-1.1-1.3
			c0.5-0.4,0.8-0.7,1.1-0.8c0.3-0.2,0.6-0.3,1-0.4c0.4-0.1,0.8-0.1,1.2-0.1c0.6,0,1.1,0.1,1.5,0.3s0.8,0.5,1,0.9
			c0.2,0.4,0.4,0.8,0.4,1.3c0,0.4-0.1,0.8-0.2,1.2c-0.1,0.4-0.4,0.8-0.7,1.2c-0.3,0.4-0.9,1-1.7,1.7l-1.2,1.1v0.1h4V19.5z"/>
		<path class="st1" d="M36.2,14.9c0,1.6-0.3,2.8-0.8,3.6c-0.5,0.8-1.3,1.2-2.5,1.2c-1.1,0-1.9-0.4-2.4-1.2c-0.5-0.8-0.8-2-0.8-3.6
			c0-1.6,0.3-2.8,0.8-3.6c0.5-0.8,1.3-1.2,2.4-1.2c1.1,0,1.9,0.4,2.4,1.2C35.9,12.1,36.2,13.3,36.2,14.9z M31.7,14.9
			c0,1.1,0.1,2,0.3,2.4c0.2,0.5,0.5,0.7,1,0.7c0.5,0,0.8-0.2,1-0.7s0.3-1.3,0.3-2.4c0-1.1-0.1-2-0.3-2.5c-0.2-0.5-0.5-0.7-1-0.7
			c-0.5,0-0.8,0.2-1,0.7C31.8,12.9,31.7,13.7,31.7,14.9z"/>
		<path class="st1" d="M42,19.5h-2v-5.4l0-0.9l0-1c-0.3,0.3-0.6,0.5-0.7,0.6l-1.1,0.9l-0.9-1.2l3-2.4H42V19.5z"/>
		<path class="st1" d="M51.3,17.6h-1.1v1.9h-1.9v-1.9h-4v-1.4l4.1-6h1.8v5.8h1.1V17.6z M48.3,16.1v-1.6c0-0.3,0-0.6,0-1.1
			c0-0.5,0-0.8,0.1-0.9h-0.1c-0.2,0.3-0.3,0.7-0.6,1L46,16.1H48.3z"/>
	</g>
</g>
</svg>