<!-- Generator: Adobe Illustrator 19.0.0, SVG Export Plug-In  -->
<svg version="1.1"
	 xmlns="http://www.w3.org/2000/svg" xmlns:xlink="http://www.w3.org/1999/xlink" xmlns:a="http://ns.adobe.com/AdobeSVGViewerExtensions/3.0/"
	 x="0px" y="0px" width="128.4px" height="142.5px" viewBox="0 0 128.4 142.5" style="enable-background:new 0 0 128.4 142.5;"
	 xml:space="preserve">
<style type="text/css">
	.st0{fill:#FFFFFF;stroke:#FF6633;stroke-width:2;stroke-miterlimit:10;}
	.st1{fill:#086A87;}
	.st2{fill:#33CCCC;}
	.st3{fill:#44403E;stroke:#086A87;stroke-width:3;stroke-linecap:round;stroke-linejoin:round;stroke-miterlimit:10;}
	.st4{fill:#FF6633;}
	.st5{fill:#FFFFFF;}
	.st6{fill:#FF6633;stroke:#FFFFFF;stroke-width:2;stroke-miterlimit:10;stroke-dasharray:3.132;}
</style>
<defs>
</defs>
<path class="st0" d="M46,27.2c0-0.3-0.1-0.5-0.1-0.8c-0.4-6.3-10-5.7-10,0.6v33.1v30c0,0-3,12.5,8,16v35.4h42v-24"/>
<path class="st1" d="M104,115.7c0,1.6-1.3,2.8-2.8,2.8H58.8c-1.6,0-2.8-1.3-2.8-2.8V36.3c0-1.6,1.3-2.8,2.8-2.8h42.3
	c1.6,0,2.8,1.3,2.8,2.8V115.7z"/>
<ellipse class="st2" cx="79.5" cy="106.5" rx="4.4" ry="4.6"/>
<rect x="63" y="43.5" class="st2" width="33" height="49"/>
<g>
	<line class="st3" x1="84.5" y1="1.5" x2="84.5" y2="15.5"/>
	<line class="st3" x1="103.9" y1="4.4" x2="98.2" y2="17.2"/>
	<line class="st3" x1="117.3" y1="14.2" x2="106.7" y2="23.7"/>
	<line class="st3" x1="125.4" y1="28.7" x2="111.9" y2="33"/>
	<line class="st3" x1="126.9" y1="45.2" x2="112.8" y2="43.7"/>
</g>
<path class="st0" d="M117,66.5c0,2.8-2.2,5-5,5H90c-2.8,0-5-2.2-5-5l0,0c0-2.8,2.2-5,5-5h22C114.8,61.5,117,63.7,117,66.5L117,66.5z
	"/>
<path class="st0" d="M117,76.5c0,2.8-2.2,5-5,5H90c-2.8,0-5-2.2-5-5l0,0c0-2.8,2.2-5,5-5h22C114.8,71.5,117,73.7,117,76.5L117,76.5z
	"/>
<path class="st0" d="M117,86.5c0,2.8-2.2,5-5,5H90c-2.8,0-5-2.2-5-5l0,0c0-2.8,2.2-5,5-5h22C114.8,81.5,117,83.7,117,86.5L117,86.5z
	"/>
<path class="st0" d="M117,96.5c0,2.8-2.2,5-5,5H90c-2.8,0-5-2.2-5-5l0,0c0-2.8,2.2-5,5-5h22C114.8,91.5,117,93.7,117,96.5L117,96.5z
	"/>
<path class="st0" d="M58,33c0-7.7-5.8-13.5-13.5-13.5h-29C7.8,19.5,1,25.3,1,33v29c0,7.7,6.8,14.5,14.5,14.5h29c2,0,3.6-0.7,5.3-1.4
	l8.2,8.2V62.1c0,0,0-0.1,0-0.1V33z"/>
<g>
	<circle class="st4" cx="10.6" cy="34.4" r="3.2"/>
	<path class="st4" d="M46.8,38.5h-9.5c-0.5,0-1,0.2-1.4,0.5L18,56.9c-0.8,0.8-0.8,2,0,2.7l9.5,9.5c0.8,0.8,2,0.8,2.7,0l18.1-17.9
		c0.4-0.4,0.7-0.9,0.7-1.4v-9.5C49,39.3,47.9,38.5,46.8,38.5z"/>
	<circle class="st5" cx="41.7" cy="45.3" r="2.3"/>
	<line class="st6" x1="19.8" y1="41.9" x2="46.9" y2="69"/>
	<circle class="st4" cx="16.9" cy="29.2" r="3.2"/>
	<circle class="st5" cx="16.9" cy="29.2" r="2.1"/>
	<circle class="st5" cx="10.6" cy="34.4" r="2.1"/>
	<path class="st4" d="M18.7,45.2l-2.8-13.8l-2.1-1.2l2.7,13.5c0,0.2,0.1,0.4,0.2,0.6C17,44.9,17.6,45.4,18.7,45.2z"/>
	<path class="st4" d="M23.9,39.4l-11.4-7.5l0.4,2.4l11.8,7.8c0.6-0.9,0.2-1.7-0.3-2.3C24.3,39.7,24.1,39.5,23.9,39.4z"/>
</g>
</svg>