<!-- Generator: Adobe Illustrator 19.0.0, SVG Export Plug-In  -->
<svg version="1.1"
	 xmlns="http://www.w3.org/2000/svg" xmlns:xlink="http://www.w3.org/1999/xlink" xmlns:a="http://ns.adobe.com/AdobeSVGViewerExtensions/3.0/"
	 x="0px" y="0px" width="85.5px" height="126.5px" viewBox="0 0 85.5 126.5"
	 style="overflow:scroll;enable-background:new 0 0 85.5 126.5;" xml:space="preserve">
<style type="text/css">
	.st0{fill:#036A95;}
	.st1{fill:#FF6633;}
	.st2{fill:none;stroke:#086A87;stroke-width:2;stroke-linecap:round;stroke-linejoin:round;stroke-miterlimit:10;}
</style>
<defs>
</defs>
<g id="XMLID_58_">
	<path id="XMLID_87_" class="st0" d="M0,87.7v-6c0.2-0.3,0.3-0.6,0.5-0.8s0.4-0.4,0.6-0.5c0.2-0.1,0.4-0.2,0.6-0.3
		C1.9,80,2.1,80,2.3,79.9s0.3-0.1,0.4-0.1s0.2,0,0.3,0h0.1c0.4,0,0.7,0.1,1,0.1s0.5,0.2,0.8,0.3c0.2,0.1,0.4,0.3,0.5,0.5
		c0.1,0.2,0.3,0.3,0.4,0.5s0.2,0.4,0.2,0.5s0.1,0.3,0.1,0.5c0,0.1,0,0.3,0,0.4s0,0.2,0,0.2v4.9H5v-4.9c0-0.3,0-0.6-0.1-0.8
		c-0.1-0.2-0.2-0.4-0.3-0.5c-0.1-0.1-0.3-0.2-0.4-0.3c-0.2-0.1-0.3-0.1-0.5-0.2C3.5,81,3.4,81,3.3,81c-0.1,0-0.2,0-0.2,0
		c-0.2,0-0.4,0-0.6,0.1S2.1,81.2,2,81.3c-0.1,0.1-0.2,0.2-0.3,0.3c-0.1,0.1-0.2,0.2-0.2,0.3c-0.1,0.3-0.2,0.6-0.2,0.9v4.9H0z"/>
	<path id="XMLID_85_" class="st0" d="M6.2,77.8v1.1H1.8v-1.1H6.2z"/>
	<path id="XMLID_83_" class="st0" d="M11.5,79.8c0.2,0,0.4,0.1,0.6,0.1c0.2,0.1,0.5,0.2,0.7,0.3s0.5,0.3,0.7,0.5
		c0.2,0.2,0.4,0.5,0.5,0.8s0.2,0.8,0.2,1.2v4.9h-1.2v-2.2c-0.1-0.2-0.1-0.3-0.2-0.4c-0.1-0.1-0.2-0.2-0.3-0.3
		c-0.1-0.1-0.3-0.1-0.4-0.2s-0.3-0.1-0.5-0.1c-0.1,0-0.3,0-0.4,0c-0.1,0-0.2,0-0.3,0.1v-1.2c0.2-0.1,0.4-0.1,0.7-0.1
		c0.6,0,1.1,0.1,1.5,0.4v-0.8c0-0.4-0.1-0.7-0.3-1c-0.1-0.1-0.1-0.2-0.2-0.4s-0.2-0.2-0.3-0.3s-0.3-0.2-0.5-0.2
		C11.4,81,11.2,81,11,81c-0.4,0-0.7,0.1-1,0.2c-0.1,0.1-0.2,0.1-0.3,0.2c-0.1,0.1-0.2,0.2-0.3,0.3c-0.1,0.1-0.2,0.3-0.2,0.5
		s-0.1,0.4-0.1,0.6H7.9v-0.1c0-0.1,0-0.2,0-0.4s0.1-0.4,0.1-0.6c0.1-0.2,0.2-0.5,0.3-0.7c0.1-0.2,0.3-0.5,0.5-0.7
		c0.2-0.2,0.5-0.4,0.9-0.5s0.8-0.2,1.3-0.2h0.1C11.2,79.8,11.3,79.8,11.5,79.8z"/>
	<path id="XMLID_81_" class="st0" d="M16,87.7v-6c0.2-0.3,0.3-0.6,0.5-0.8s0.4-0.4,0.6-0.5c0.2-0.1,0.4-0.2,0.6-0.3
		c0.2-0.1,0.4-0.1,0.5-0.2s0.3-0.1,0.4-0.1c0.1,0,0.2,0,0.3,0H19c0.4,0,0.7,0.1,1,0.1c0.3,0.1,0.5,0.2,0.8,0.3
		c0.2,0.1,0.4,0.3,0.5,0.5s0.3,0.3,0.4,0.5c0.1,0.2,0.2,0.4,0.2,0.5c0.1,0.2,0.1,0.3,0.1,0.5s0,0.3,0,0.4c0,0.1,0,0.2,0,0.2v4.9H21
		v-4.9c0-0.3,0-0.6-0.1-0.8c-0.1-0.2-0.2-0.4-0.3-0.5c-0.1-0.1-0.3-0.2-0.4-0.3s-0.3-0.1-0.5-0.2c-0.1,0-0.3-0.1-0.4-0.1
		s-0.2,0-0.2,0c-0.2,0-0.4,0-0.6,0.1c-0.2,0.1-0.3,0.1-0.5,0.2s-0.2,0.2-0.3,0.3s-0.2,0.2-0.2,0.3c-0.1,0.3-0.2,0.6-0.2,0.9v4.9H16z
		"/>
	<path id="XMLID_79_" class="st0" d="M28.5,81.9L28,81.6c-0.1-0.1-0.3-0.2-0.4-0.2c-0.2-0.1-0.3-0.1-0.5-0.2s-0.3-0.1-0.4-0.1
		c-0.1,0-0.2,0-0.3,0c-0.2,0-0.4,0-0.5,0c-0.2,0-0.3,0.1-0.4,0.2c-0.1,0.1-0.2,0.2-0.3,0.4S25,81.9,25,82.2s0.1,0.4,0.2,0.6
		s0.3,0.2,0.5,0.3c0.2,0.1,0.4,0.1,0.7,0.2c0.3,0,0.5,0.1,0.8,0.1c0.3,0,0.5,0.1,0.7,0.3c0.2,0.1,0.5,0.3,0.6,0.5s0.3,0.4,0.4,0.7
		s0.2,0.5,0.2,0.8c0,0.4-0.1,0.8-0.2,1.1s-0.3,0.5-0.6,0.7s-0.5,0.3-0.9,0.4s-0.7,0.1-1.1,0.1c-0.5,0-1-0.1-1.4-0.2
		c-0.4-0.1-0.7-0.3-0.9-0.4c-0.3-0.2-0.5-0.4-0.7-0.6l0.8-0.8c0.1,0.1,0.2,0.2,0.4,0.3c0.2,0.1,0.3,0.2,0.5,0.3s0.4,0.1,0.6,0.2
		s0.5,0.1,0.7,0.1c0.2,0,0.5,0,0.7-0.1s0.4-0.1,0.5-0.3s0.2-0.2,0.3-0.4s0.1-0.3,0.1-0.5c0-0.2,0-0.3-0.1-0.5
		c-0.1-0.1-0.1-0.2-0.2-0.3s-0.2-0.1-0.3-0.1s-0.2,0-0.2-0.1c0,0-0.1,0-0.2,0c-0.1,0-0.3,0-0.5-0.1s-0.4-0.1-0.5-0.1
		s-0.3-0.1-0.4-0.1c-0.1,0-0.1,0-0.2-0.1c-0.1,0-0.2-0.1-0.4-0.1c-0.1-0.1-0.3-0.1-0.4-0.2s-0.3-0.2-0.4-0.4
		c-0.1-0.2-0.2-0.3-0.3-0.5c-0.1-0.2-0.1-0.5-0.1-0.7c0-0.4,0.1-0.8,0.2-1.1c0.2-0.3,0.3-0.5,0.6-0.7c0.2-0.2,0.5-0.3,0.8-0.4
		s0.6-0.1,0.9-0.1c0.3,0,0.6,0,0.9,0.1s0.5,0.2,0.7,0.2c0.2,0.1,0.4,0.2,0.6,0.3l0.6,0.4L28.5,81.9z"/>
	<path id="XMLID_77_" class="st0" d="M35.2,81.9l-0.5-0.3c-0.1-0.1-0.3-0.2-0.4-0.2s-0.3-0.1-0.5-0.2s-0.3-0.1-0.4-0.1s-0.2,0-0.3,0
		c-0.2,0-0.4,0-0.5,0s-0.3,0.1-0.4,0.2s-0.2,0.2-0.3,0.4c-0.1,0.1-0.1,0.3-0.1,0.6s0.1,0.4,0.2,0.6c0.1,0.1,0.3,0.2,0.5,0.3
		c0.2,0.1,0.4,0.1,0.7,0.2s0.5,0.1,0.8,0.1s0.5,0.1,0.7,0.3c0.2,0.1,0.5,0.3,0.6,0.5s0.3,0.4,0.4,0.7s0.2,0.5,0.2,0.8
		c0,0.4-0.1,0.8-0.2,1.1s-0.3,0.5-0.6,0.7c-0.3,0.2-0.5,0.3-0.9,0.4c-0.3,0.1-0.7,0.1-1.1,0.1c-0.5,0-1-0.1-1.4-0.2
		c-0.4-0.1-0.7-0.3-0.9-0.4c-0.3-0.2-0.5-0.4-0.7-0.6l0.8-0.8c0.1,0.1,0.2,0.2,0.4,0.3s0.3,0.2,0.5,0.3s0.4,0.1,0.6,0.2
		s0.5,0.1,0.7,0.1c0.2,0,0.5,0,0.7-0.1s0.4-0.1,0.5-0.3s0.2-0.2,0.3-0.4s0.1-0.3,0.1-0.5c0-0.2,0-0.3-0.1-0.5s-0.1-0.2-0.2-0.3
		c-0.1-0.1-0.2-0.1-0.3-0.1s-0.2,0-0.2-0.1c0,0-0.1,0-0.2,0c-0.1,0-0.3,0-0.5-0.1s-0.4-0.1-0.5-0.1s-0.3-0.1-0.4-0.1
		c-0.1,0-0.1,0-0.2-0.1s-0.2-0.1-0.4-0.1c-0.1-0.1-0.3-0.1-0.4-0.2c-0.1-0.1-0.3-0.2-0.4-0.4c-0.1-0.2-0.2-0.3-0.3-0.5
		c-0.1-0.2-0.1-0.5-0.1-0.7c0-0.4,0.1-0.8,0.2-1.1s0.3-0.5,0.6-0.7s0.5-0.3,0.8-0.4s0.6-0.1,0.9-0.1c0.3,0,0.6,0,0.9,0.1
		c0.3,0.1,0.5,0.2,0.7,0.2c0.2,0.1,0.4,0.2,0.6,0.3l0.6,0.4L35.2,81.9z"/>
	<path id="XMLID_75_" class="st0" d="M43.5,79.9v4.9v0.1c0,0.1,0,0.2,0,0.4s-0.1,0.4-0.1,0.6s-0.2,0.5-0.3,0.7s-0.3,0.4-0.5,0.6
		s-0.5,0.3-0.8,0.5c-0.3,0.1-0.7,0.2-1.1,0.2h-0.3c-0.3,0-0.6-0.1-0.9-0.2c-0.1,0-0.2-0.1-0.3-0.1c-0.1-0.1-0.2-0.1-0.3-0.2
		s-0.2-0.2-0.2-0.3c-0.1-0.1-0.1-0.2-0.1-0.4v1.1h-1.2v-7.9h1.2v4.9c0,0,0,0.1,0,0.2s0,0.2,0.1,0.4s0.1,0.3,0.2,0.5s0.2,0.3,0.3,0.5
		c0.1,0.1,0.3,0.3,0.5,0.3c0.2,0.1,0.5,0.1,0.8,0.1c0,0,0.1,0,0.2,0c0.1,0,0.2,0,0.4-0.1c0.1,0,0.3-0.1,0.4-0.2
		c0.2-0.1,0.3-0.2,0.4-0.3s0.2-0.3,0.3-0.6c0.1-0.2,0.1-0.5,0.1-0.8v-4.9H43.5z"/>
	<path id="XMLID_71_" class="st0" d="M50.8,79.9v5.3c0,0.4-0.1,0.8-0.2,1.1s-0.3,0.6-0.5,0.8c-0.2,0.2-0.4,0.4-0.6,0.5
		s-0.4,0.2-0.7,0.2c-0.2,0.1-0.4,0.1-0.5,0.1c-0.2,0-0.3,0-0.3,0c-0.5,0-0.8-0.1-1.2-0.2s-0.6-0.3-0.8-0.5c-0.2-0.2-0.4-0.4-0.5-0.6
		c-0.1-0.2-0.2-0.4-0.3-0.6c-0.1-0.2-0.1-0.4-0.1-0.5c0-0.2,0-0.3,0-0.3c0-0.3,0-0.5,0.1-0.7s0.2-0.4,0.3-0.6s0.2-0.3,0.4-0.5
		s0.3-0.3,0.4-0.4c0.1-0.1,0.2-0.2,0.3-0.4s0.1-0.2,0.1-0.4c0,0,0-0.1,0-0.1c0,0,0-0.1,0-0.1c0-0.2,0-0.3-0.1-0.5
		c-0.1-0.1-0.1-0.2-0.2-0.3s-0.2-0.1-0.3-0.2c-0.1,0-0.2-0.1-0.3-0.1s-0.2,0-0.3,0c-0.1,0-0.2,0-0.2,0h-0.1v-1.1h0.7
		c0.3,0,0.6,0,0.8,0.1s0.4,0.2,0.6,0.3s0.3,0.3,0.4,0.5c0.1,0.2,0.2,0.3,0.2,0.5c0,0.2,0.1,0.3,0.1,0.5c0,0.1,0,0.3,0,0.3
		c0,0,0,0,0,0.1c0,0,0,0,0,0v0c0,0.1-0.1,0.3-0.1,0.4s-0.1,0.3-0.2,0.4c-0.1,0.1-0.2,0.3-0.3,0.4c-0.2,0.3-0.4,0.5-0.5,0.7
		s-0.2,0.4-0.3,0.5c-0.1,0.1-0.1,0.3-0.1,0.3c0,0.1,0,0.1,0,0.2c0,0.3,0,0.5,0.1,0.7c0.1,0.2,0.2,0.3,0.3,0.5s0.2,0.2,0.4,0.3
		c0.1,0.1,0.2,0.1,0.4,0.1s0.2,0,0.3,0.1c0.1,0,0.1,0,0.2,0c0.2,0,0.5,0,0.6-0.1c0.2-0.1,0.3-0.2,0.4-0.3c0.1-0.1,0.2-0.2,0.3-0.4
		s0.1-0.3,0.2-0.4c0-0.1,0.1-0.2,0.1-0.3c0-0.1,0-0.2,0-0.2v-5.3H50.8z"/>
	<path id="XMLID_69_" class="st0" d="M51.3,77.8v1.1H48v-1.5h-0.6v-1.1h1.2c0.1,0,0.2,0,0.3,0.1c0.1,0,0.1,0.1,0.2,0.2
		s0.1,0.2,0.1,0.3v1H51.3z"/>
	<path id="XMLID_67_" class="st0" d="M54.3,79.8c0,0,0.1,0,0.2,0c0.1,0,0.3,0,0.4,0.1c0.2,0,0.3,0.1,0.5,0.2
		c0.2,0.1,0.3,0.2,0.5,0.4s0.3,0.4,0.4,0.7s0.1,0.6,0.1,1v5.6h-1.2v-5.6c0-0.2,0-0.4-0.1-0.6c0-0.1-0.1-0.1-0.1-0.2
		s-0.1-0.1-0.2-0.2c-0.1-0.1-0.1-0.1-0.2-0.1s-0.2,0-0.3,0c-0.2,0-0.4,0-0.5,0.1c-0.1,0-0.2,0.1-0.3,0.2s-0.2,0.1-0.2,0.2
		s-0.1,0.1-0.1,0.1l-0.8-0.8c0.1-0.2,0.3-0.3,0.5-0.4c0.2-0.1,0.4-0.2,0.6-0.3S54,79.8,54.3,79.8z"/>
	<path id="XMLID_65_" class="st0" d="M59.5,79.9h2.3v5.7c0,0.4,0,0.7-0.1,1s-0.2,0.5-0.4,0.6c-0.1,0.2-0.3,0.3-0.5,0.4
		c-0.2,0.1-0.3,0.2-0.5,0.2s-0.3,0.1-0.4,0.1c-0.1,0-0.2,0-0.2,0c-0.3,0-0.6,0-0.9-0.1s-0.4-0.2-0.6-0.3c-0.2-0.1-0.3-0.3-0.5-0.4
		l0.8-0.8c0,0,0.1,0.1,0.1,0.1c0.1,0.1,0.1,0.1,0.2,0.2c0.1,0.1,0.2,0.1,0.3,0.2c0.1,0,0.3,0.1,0.5,0.1c0.1,0,0.2,0,0.3-0.1
		c0.1,0,0.2-0.1,0.2-0.1c0.1-0.1,0.1-0.1,0.2-0.2s0.1-0.1,0.1-0.2c0.1-0.2,0.1-0.4,0.1-0.6V81h-1.1V79.9z"/>
	<path id="XMLID_63_" class="st0" d="M64.8,79.9v4.9c0,0.3,0,0.6,0.1,0.8c0.1,0.2,0.2,0.4,0.3,0.6s0.3,0.3,0.4,0.3
		c0.2,0.1,0.3,0.1,0.4,0.2c0.1,0,0.3,0.1,0.4,0.1c0.1,0,0.2,0,0.2,0c0.3,0,0.6,0,0.8-0.1c0.2-0.1,0.4-0.2,0.5-0.3
		c0.1-0.1,0.2-0.3,0.3-0.5s0.1-0.3,0.2-0.5s0.1-0.3,0.1-0.4s0-0.2,0-0.2v-4.9h1.2v7.9h-1.2v-1.1c0,0.1,0,0.3-0.1,0.4
		c-0.1,0.1-0.1,0.2-0.2,0.3s-0.2,0.2-0.3,0.2s-0.2,0.1-0.3,0.1c-0.3,0.1-0.6,0.2-0.9,0.2h-0.3c-0.4,0-0.8-0.1-1.1-0.2
		c-0.3-0.1-0.6-0.3-0.8-0.5s-0.4-0.4-0.5-0.6s-0.2-0.5-0.3-0.7s-0.1-0.4-0.1-0.6s0-0.3,0-0.4v-0.1v-4.9H64.8z"/>
	<path id="XMLID_61_" class="st0" d="M77.8,85c0,0.5-0.2,1-0.4,1.4c-0.1,0.2-0.2,0.3-0.4,0.5c-0.2,0.2-0.3,0.3-0.5,0.5
		s-0.5,0.2-0.8,0.3c-0.3,0.1-0.6,0.1-1,0.1c-0.4,0-0.7,0-1-0.1c-0.3-0.1-0.5-0.2-0.8-0.3s-0.4-0.3-0.5-0.5c-0.1-0.2-0.3-0.3-0.4-0.5
		c-0.2-0.4-0.4-0.9-0.4-1.4v-1.6h2.2v1.1h-1V85c0,0.2,0,0.4,0.1,0.6s0.1,0.3,0.2,0.4c0.1,0.1,0.2,0.2,0.3,0.3
		c0.1,0.1,0.2,0.2,0.3,0.2c0.3,0.1,0.6,0.2,1,0.2c0.4,0,0.7-0.1,1-0.2c0.1-0.1,0.2-0.1,0.3-0.2c0.1-0.1,0.2-0.2,0.3-0.3
		c0.1-0.1,0.2-0.3,0.2-0.4s0.1-0.4,0.1-0.6v-2.4c0-0.2,0-0.4-0.1-0.5s-0.1-0.3-0.2-0.4c-0.1-0.1-0.2-0.2-0.3-0.3
		c-0.1-0.1-0.2-0.1-0.3-0.2c-0.3-0.1-0.6-0.2-1-0.2h-0.1c-0.1,0-0.2,0-0.4,0c-0.2,0-0.3,0.1-0.5,0.2c-0.2,0.1-0.3,0.2-0.5,0.4
		c-0.2,0.2-0.3,0.4-0.4,0.6h-1.2c0-0.1,0.1-0.3,0.1-0.5c0.1-0.2,0.1-0.3,0.2-0.5s0.2-0.3,0.4-0.5c0.1-0.2,0.3-0.3,0.5-0.4
		s0.5-0.2,0.7-0.3s0.6-0.1,1-0.1c0.4,0,0.7,0,1,0.1c0.3,0.1,0.5,0.2,0.8,0.3s0.4,0.3,0.5,0.5c0.2,0.2,0.3,0.3,0.4,0.5
		c0.2,0.4,0.4,0.9,0.4,1.4V85z"/>
	<path id="XMLID_59_" class="st0" d="M79.4,87.7v-6c0.2-0.3,0.3-0.6,0.5-0.8s0.4-0.4,0.6-0.5c0.2-0.1,0.4-0.2,0.6-0.3
		c0.2-0.1,0.4-0.1,0.5-0.2s0.3-0.1,0.4-0.1c0.1,0,0.2,0,0.3,0h0.1c0.4,0,0.7,0.1,1,0.1c0.3,0.1,0.5,0.2,0.8,0.3
		c0.2,0.1,0.4,0.3,0.5,0.5s0.3,0.3,0.4,0.5c0.1,0.2,0.2,0.4,0.2,0.5c0.1,0.2,0.1,0.3,0.1,0.5s0,0.3,0,0.4c0,0.1,0,0.2,0,0.2v4.9
		h-1.2v-4.9c0-0.3,0-0.6-0.1-0.8c-0.1-0.2-0.2-0.4-0.3-0.5c-0.1-0.1-0.3-0.2-0.4-0.3s-0.3-0.1-0.5-0.2c-0.1,0-0.3-0.1-0.4-0.1
		s-0.2,0-0.2,0c-0.2,0-0.4,0-0.6,0.1c-0.2,0.1-0.3,0.1-0.5,0.2s-0.2,0.2-0.3,0.3s-0.2,0.2-0.2,0.3c-0.1,0.3-0.2,0.6-0.2,0.9v4.9
		H79.4z"/>
</g>
<g id="XMLID_23_">
	<g id="XMLID_25_">
		<path id="XMLID_40_" class="st1" d="M17.2,126.4l5.4-12h-6.8v-2h10v1.5l-5.4,12.5H17.2z"/>
		<path id="XMLID_38_" class="st1" d="M27.6,124.9c0-0.5,0.1-1,0.4-1.2s0.7-0.4,1.3-0.4c0.5,0,1,0.1,1.3,0.4
			c0.3,0.3,0.4,0.7,0.4,1.2c0,0.5-0.1,0.9-0.4,1.2c-0.3,0.3-0.7,0.4-1.3,0.4c-0.5,0-1-0.1-1.3-0.4C27.7,125.8,27.6,125.4,27.6,124.9
			z"/>
		<path id="XMLID_35_" class="st1" d="M42.8,123.4h-1v3h-3v-3h-6v-2.2l6-8.8h3v9h1V123.4z M38.8,121.4v-2.8c0-0.4-0.1-1-0.1-1.8
			c0-0.8,0-1.4,0-1.4h-0.1c-0.2,1-0.5,1.3-0.9,1.8l-2.6,4.2H38.8z"/>
		<path id="XMLID_32_" class="st1" d="M54.8,123.4h-2v3h-3v-3h-6v-2.2l6.4-8.8h2.6v9h2V123.4z M49.8,121.4v-2.8c0-0.4,0.1-1,0.2-1.8
			c0-0.8,0.2-1.4,0.2-1.4H50c-0.2,1-0.5,1.3-0.9,1.8l-2.6,4.2H49.8z"/>
		<path id="XMLID_26_" class="st1" d="M62.4,116.2c0,1.5-0.3,2.6-0.9,3.4c-0.6,0.8-1.4,1.1-2.5,1.1c-1.1,0-1.9-0.4-2.5-1.2
			s-0.9-1.9-0.9-3.3c0-3,1.1-4.5,3.4-4.5c1.1,0,1.9,0.4,2.5,1.2C62.1,113.7,62.4,114.8,62.4,116.2z M58.1,116.3
			c0,0.8,0.1,1.4,0.2,1.9s0.4,0.6,0.7,0.6c0.6,0,0.9-0.8,0.9-2.5c0-1.6-0.3-2.4-0.9-2.4c-0.3,0-0.6,0.2-0.7,0.6
			S58.1,115.4,58.1,116.3z M69.1,112.4l-7.9,14h-2.3l7.9-14H69.1z M72.4,121.9c0,1.5-0.3,2.6-0.9,3.4c-0.6,0.8-1.4,1.1-2.5,1.1
			c-1.1,0-1.9-0.4-2.5-1.2s-0.9-1.9-0.9-3.3c0-3,1.1-4.5,3.4-4.5c1.1,0,1.9,0.4,2.5,1.2C72.1,119.4,72.4,120.5,72.4,121.9z
			 M68.1,122c0,0.8,0.1,1.4,0.2,1.9s0.4,0.6,0.7,0.6c0.6,0,0.9-0.8,0.9-2.5c0-1.6-0.3-2.4-0.9-2.4c-0.3,0-0.6,0.2-0.7,0.6
			S68.1,121.1,68.1,122z"/>
	</g>
</g>
<g id="XMLID_15_">
	<path id="XMLID_22_" class="st2" d="M24.5,20.9c0-8.6,7-15.5,15.5-15.5s15.5,7,15.5,15.5"/>
	<rect id="XMLID_21_" x="21.8" y="21.4" class="st2" width="37" height="3"/>
	<path id="XMLID_20_" class="st2" d="M36.1,6c0-2.8,2.2-5,5-5c2.8,0,5,2.2,5,5"/>
	<path id="XMLID_19_" class="st2" d="M47,24.5c0,3.6-2.9,6.5-6.5,6.5S34,28.1,34,24.5"/>
	<path id="XMLID_18_" class="st2" d="M26.2,57.2"/>
	<path id="XMLID_17_" class="st2" d="M13.8,57.4v-30h10v29.8V27.4h-10v29c0,5.3,4.2,9.9,9.5,10.3c5.5,0.4,10.3-3.8,10.7-9.1
		c0-0.5,0.1-1.1,0.2-1.6L38.9,31"/>
	<line id="XMLID_16_" class="st2" x1="24.2" y1="57.2" x2="34" y2="26.2"/>
</g>
</svg>