<!-- Generator: Adobe Illustrator 19.0.0, SVG Export Plug-In  -->
<svg version="1.1"
	 xmlns="http://www.w3.org/2000/svg" xmlns:xlink="http://www.w3.org/1999/xlink" xmlns:a="http://ns.adobe.com/AdobeSVGViewerExtensions/3.0/"
	 x="0px" y="0px" width="281px" height="66px" viewBox="0 0 281 66" style="enable-background:new 0 0 281 66;"
	 xml:space="preserve">
<style type="text/css">
	.st0{fill:none;stroke:#33CCCC;stroke-width:2;stroke-linecap:round;stroke-linejoin:round;stroke-miterlimit:10;}
	.st1{fill:none;stroke:#FFFFFF;stroke-width:2;stroke-linecap:round;stroke-linejoin:round;stroke-miterlimit:10;}
	.st2{fill:none;stroke:#FF6633;stroke-width:2;stroke-miterlimit:10;}
	.st3{fill:#FF6633;}
	.st4{fill:#FFFFFF;}
	.st5{fill:#FFFFFF;stroke:#FFFFFF;stroke-width:0.6;stroke-miterlimit:10;}
</style>
<defs>
</defs>
<g id="XMLID_77_">
	<polygon id="XMLID_82_" class="st0" points="267,65 267,54 278.9,54 	"/>
	<rect id="XMLID_81_" x="231" y="7" class="st1" width="49" height="14"/>
	<path id="XMLID_80_" class="st1" d="M246,8.1c0,1.1-0.9,1.9-1.9,1.9h-0.2c-1.1,0-1.9-0.9-1.9-1.9V2.9c0-1.1,0.9-1.9,1.9-1.9h0.2
		c1.1,0,1.9,0.9,1.9,1.9V8.1z"/>
	<path id="XMLID_79_" class="st1" d="M269,8.1c0,1.1-0.9,1.9-1.9,1.9h-0.2c-1.1,0-1.9-0.9-1.9-1.9V2.9c0-1.1,0.9-1.9,1.9-1.9h0.2
		c1.1,0,1.9,0.9,1.9,1.9V8.1z"/>
	<rect id="XMLID_78_" x="231" y="21" class="st2" width="49" height="44"/>
</g>
<circle id="XMLID_76_" class="st3" cx="8.4" cy="20.8" r="8.4"/>
<g id="XMLID_73_">
	<path id="XMLID_74_" class="st4" d="M9,25H7v-4.9l0.2-0.8l0.1-0.9C7,18.7,6.9,18.9,6.8,19l-1,0.8l-0.9-1.3L7.7,16H9V25z"/>
</g>
<g id="XMLID_15_">
	<path id="XMLID_70_" class="st5" d="M38.6,21.6c0,1.9-0.5,3.3-1.5,4.3c-1,1-2.5,1.5-4.4,1.5h-3.1v-5h-1.2v-1.3h1.2V16H33
		c1.8,0,3.2,0.5,4.1,1.5C38.1,18.4,38.6,19.8,38.6,21.6z M37.1,21.6c0-1.5-0.4-2.6-1.1-3.3c-0.7-0.7-1.8-1.1-3.2-1.1H31v3.9h2.9v1.3
		H31v3.8h1.4C35.6,26.2,37.1,24.6,37.1,21.6z"/>
	<path id="XMLID_65_" class="st5" d="M42.3,16.2h-0.8c-0.6-0.5-1.2-1-1.6-1.6v-0.2h1.4c0.3,0.6,0.6,1.1,1,1.6V16.2z M46.3,27.4
		L46,26.2h-0.1c-0.4,0.5-0.9,0.9-1.3,1.1s-1,0.3-1.6,0.3c-0.8,0-1.5-0.2-2-0.7c-0.5-0.4-0.7-1.1-0.7-1.9c0-1.7,1.4-2.7,4.1-2.7
		l1.5-0.1v-0.5c0-0.7-0.1-1.1-0.4-1.4c-0.3-0.3-0.7-0.5-1.4-0.5c-0.5,0-0.9,0.1-1.3,0.2c-0.4,0.1-0.8,0.3-1.1,0.5l-0.4-1.1
		c0.4-0.2,0.9-0.4,1.4-0.5c0.5-0.1,1-0.2,1.5-0.2c1,0,1.8,0.2,2.3,0.7c0.5,0.5,0.8,1.2,0.8,2.2v5.8H46.3z M46.5,17.7h-0.8
		c-0.5-0.3-1.1-0.8-1.6-1.3c-0.6,0.5-1.1,0.9-1.6,1.3h-0.8v-0.2l0.4-0.5c0.6-0.7,1-1.2,1.3-1.6h1.5c0.3,0.5,0.9,1.1,1.7,2V17.7z
		 M43.4,26.4c0.8,0,1.4-0.2,1.9-0.6c0.5-0.4,0.7-1,0.7-1.8v-0.8l-1.3,0.1c-1,0-1.7,0.2-2.2,0.5C42,24,41.8,24.4,41.8,25
		c0,0.4,0.1,0.8,0.4,1C42.5,26.3,42.9,26.4,43.4,26.4z"/>
	<path id="XMLID_63_" class="st5" d="M51.3,18.8v5.5c0,0.7,0.2,1.2,0.5,1.5s0.8,0.5,1.4,0.5c0.9,0,1.5-0.2,1.9-0.7
		c0.4-0.5,0.6-1.3,0.6-2.4v-4.5h1.4v8.6H56l-0.2-1.1h-0.1c-0.3,0.4-0.6,0.7-1.1,1s-1,0.3-1.6,0.3c-1,0-1.8-0.2-2.3-0.7
		c-0.5-0.5-0.8-1.3-0.8-2.4v-5.6H51.3z"/>
	<path id="XMLID_61_" class="st5" d="M61.4,25.5l0.1,0.2c-0.3,1.1-0.7,2.4-1.4,3.7h-1c0.3-1.3,0.6-2.6,0.8-3.9H61.4z"/>
	<path id="XMLID_58_" class="st5" d="M74,27.3l0-1.1H74c-0.6,0.9-1.5,1.3-2.7,1.3c-1.1,0-2-0.4-2.6-1.2s-0.9-1.9-0.9-3.3
		c0-1.4,0.3-2.5,0.9-3.3s1.5-1.2,2.6-1.2c1.2,0,2.1,0.4,2.7,1.3h0.1l0.2-1.1h1.1v8.7c0,1.2-0.3,2.2-0.9,2.8
		c-0.6,0.6-1.6,0.9-2.9,0.9c-1.3,0-2.3-0.2-3.1-0.5v-1.3c0.8,0.4,1.9,0.7,3.2,0.7c0.7,0,1.3-0.2,1.7-0.6c0.4-0.4,0.6-1,0.6-1.8V27.3
		z M71.6,26.4c0.9,0,1.5-0.2,1.9-0.7c0.4-0.5,0.6-1.2,0.6-2.2v-0.3c0-1.1-0.2-2-0.6-2.5c-0.4-0.5-1-0.8-1.9-0.8
		c-0.7,0-1.3,0.3-1.7,0.9s-0.6,1.4-0.6,2.4c0,1.1,0.2,1.9,0.6,2.4C70.2,26.1,70.8,26.4,71.6,26.4z"/>
	<path id="XMLID_55_" class="st5" d="M78,16.5c0-0.3,0.1-0.5,0.2-0.7s0.4-0.2,0.6-0.2c0.2,0,0.4,0.1,0.6,0.2s0.2,0.4,0.2,0.7
		c0,0.3-0.1,0.5-0.2,0.7c-0.2,0.1-0.4,0.2-0.6,0.2c-0.2,0-0.4-0.1-0.6-0.2C78.1,17,78,16.8,78,16.5z M79.5,27.4h-1.4v-8.6h1.4V27.4z
		"/>
	<path id="XMLID_52_" class="st5" d="M83.6,18.8v5.5c0,0.7,0.2,1.2,0.5,1.5s0.8,0.5,1.4,0.5c0.9,0,1.5-0.2,1.9-0.7
		c0.4-0.5,0.6-1.3,0.6-2.4v-4.5h1.4v0.9c0.4-0.1,0.7-0.3,0.9-0.6c0.2-0.3,0.3-0.9,0.3-1.7h1.5l0.1,0.2c-0.2,1-0.5,1.7-0.9,2.2
		s-1.1,0.8-1.9,0.9v6.6h-1.2l-0.2-1.1H88c-0.3,0.4-0.6,0.7-1.1,1s-1,0.3-1.6,0.3c-1,0-1.8-0.2-2.4-0.7c-0.5-0.5-0.8-1.3-0.8-2.4
		v-5.6H83.6z M87.1,17.7c-0.2,0-0.4,0-0.7-0.1c-0.2-0.1-0.4-0.2-0.6-0.3c-0.2-0.1-0.4-0.2-0.6-0.3c-0.2-0.1-0.4-0.1-0.6-0.1
		c-0.3,0-0.4,0.1-0.6,0.2c-0.1,0.2-0.2,0.4-0.3,0.7h-0.8c0.1-0.6,0.2-1.1,0.5-1.5c0.3-0.4,0.7-0.5,1.2-0.5c0.2,0,0.5,0,0.7,0.1
		c0.2,0.1,0.4,0.2,0.6,0.3c0.2,0.1,0.4,0.2,0.6,0.3c0.2,0.1,0.4,0.1,0.5,0.1c0.3,0,0.4-0.1,0.6-0.2c0.1-0.2,0.2-0.4,0.3-0.7h0.8
		c-0.1,0.6-0.2,1.1-0.5,1.5C88,17.5,87.6,17.7,87.1,17.7z"/>
	<path id="XMLID_49_" class="st5" d="M98.3,27.4l-0.3-1.2H98c-0.4,0.5-0.9,0.9-1.3,1.1s-1,0.3-1.6,0.3c-0.8,0-1.5-0.2-2-0.7
		c-0.5-0.4-0.7-1.1-0.7-1.9c0-1.7,1.4-2.7,4.1-2.7l1.5-0.1v-0.5c0-0.7-0.1-1.1-0.4-1.4c-0.3-0.3-0.7-0.5-1.4-0.5
		c-0.5,0-0.9,0.1-1.3,0.2c-0.4,0.1-0.8,0.3-1.1,0.5l-0.4-1.1c0.4-0.2,0.9-0.4,1.4-0.5c0.5-0.1,1-0.2,1.5-0.2c1,0,1.8,0.2,2.3,0.7
		c0.5,0.5,0.8,1.2,0.8,2.2v5.8H98.3z M95.4,26.4c0.8,0,1.4-0.2,1.9-0.6c0.5-0.4,0.7-1,0.7-1.8v-0.8l-1.3,0.1c-1,0-1.7,0.2-2.2,0.5
		c-0.5,0.3-0.7,0.7-0.7,1.3c0,0.4,0.1,0.8,0.4,1C94.6,26.3,94.9,26.4,95.4,26.4z"/>
	<path id="XMLID_47_" class="st5" d="M108.1,27.4l-3.3-8.6h1.5l1.8,5.1c0.4,1,0.6,1.8,0.7,2.3h0.1c0-0.1,0-0.1,0.1-0.2
		s0.1-0.2,0.1-0.3s0.2-0.7,0.6-1.8l1.8-5.1h1.5l-3.3,8.6H108.1z"/>
	<path id="XMLID_43_" class="st5" d="M119.6,27.4l-0.3-1.2h-0.1c-0.4,0.5-0.9,0.9-1.3,1.1s-1,0.3-1.6,0.3c-0.8,0-1.5-0.2-2-0.7
		c-0.5-0.4-0.7-1.1-0.7-1.9c0-1.7,1.4-2.7,4.1-2.7l1.5-0.1v-0.5c0-0.7-0.1-1.1-0.4-1.4c-0.3-0.3-0.7-0.5-1.4-0.5
		c-0.5,0-0.9,0.1-1.3,0.2c-0.4,0.1-0.8,0.3-1.1,0.5l-0.4-1.1c0.4-0.2,0.9-0.4,1.4-0.5c0.5-0.1,1-0.2,1.5-0.2c1,0,1.8,0.2,2.3,0.7
		c0.5,0.5,0.8,1.2,0.8,2.2v5.8H119.6z M118.3,17.7h-0.9c-0.4-0.3-0.8-0.7-1.3-1.2c-0.5-0.5-0.8-0.9-1-1.2v-0.2h1.7
		c0.2,0.3,0.4,0.8,0.7,1.2s0.6,0.9,0.8,1.1V17.7z M116.7,26.4c0.8,0,1.4-0.2,1.9-0.6c0.5-0.4,0.7-1,0.7-1.8v-0.8l-1.3,0.1
		c-1,0-1.7,0.2-2.2,0.5c-0.5,0.3-0.7,0.7-0.7,1.3c0,0.4,0.1,0.8,0.4,1C115.8,26.3,116.2,26.4,116.7,26.4z"/>
	<path id="XMLID_41_" class="st5" d="M130.9,27.5c-1.2,0-2.2-0.4-2.9-1.1s-1-1.8-1-3.3c0-1.4,0.3-2.5,1-3.3c0.7-0.8,1.7-1.2,3-1.2
		c0.4,0,0.8,0,1.2,0.1s0.7,0.2,1,0.3l-0.4,1.2c-0.7-0.3-1.3-0.4-1.9-0.4c-0.9,0-1.5,0.3-1.9,0.8c-0.4,0.5-0.6,1.4-0.6,2.4
		c0,1,0.2,1.8,0.6,2.4c0.4,0.5,1,0.8,1.8,0.8c0.8,0,1.5-0.2,2.2-0.5v1.3C132.5,27.4,131.7,27.5,130.9,27.5z"/>
	<path id="XMLID_39_" class="st5" d="M136.4,18.8v5.5c0,0.7,0.2,1.2,0.5,1.5s0.8,0.5,1.4,0.5c0.9,0,1.5-0.2,1.9-0.7
		c0.4-0.5,0.6-1.3,0.6-2.4v-4.5h1.4v8.6h-1.2l-0.2-1.1h-0.1c-0.3,0.4-0.6,0.7-1.1,1s-1,0.3-1.6,0.3c-1,0-1.8-0.2-2.3-0.7
		c-0.5-0.5-0.8-1.3-0.8-2.4v-5.6H136.4z"/>
	<path id="XMLID_34_" class="st5" d="M152.4,23.1c0,1.4-0.4,2.5-1.1,3.3c-0.7,0.8-1.7,1.2-2.9,1.2c-0.8,0-1.5-0.2-2.1-0.5
		c-0.6-0.4-1.1-0.9-1.4-1.6c-0.3-0.7-0.5-1.5-0.5-2.4c0-1.4,0.3-2.5,1-3.3c0.7-0.8,1.7-1.2,2.9-1.2c1.2,0,2.2,0.4,2.9,1.2
		C152.1,20.6,152.4,21.7,152.4,23.1z M146,23.1c0,1.1,0.2,1.9,0.6,2.5c0.4,0.6,1.1,0.8,1.9,0.8c0.8,0,1.4-0.3,1.9-0.8
		c0.4-0.6,0.6-1.4,0.6-2.5s-0.2-1.9-0.6-2.4c-0.4-0.5-1.1-0.8-1.9-0.8C146.8,19.8,146,20.9,146,23.1z M150.9,17.7h-0.8
		c-0.6-0.4-1.1-0.8-1.6-1.3c-0.6,0.5-1.1,1-1.6,1.3H146v-0.2c0.3-0.3,0.6-0.6,0.9-1s0.6-0.7,0.8-1.1h1.5c0.4,0.5,0.9,1.2,1.7,2V17.7
		z M150.3,16c0.4-0.5,0.7-1,1-1.6h1.4v0.2c-0.4,0.6-1,1.1-1.6,1.6h-0.8V16z"/>
	<path id="XMLID_31_" class="st5" d="M154.6,16.5c0-0.3,0.1-0.5,0.2-0.7s0.4-0.2,0.6-0.2c0.2,0,0.4,0.1,0.6,0.2s0.2,0.4,0.2,0.7
		c0,0.3-0.1,0.5-0.2,0.7c-0.2,0.1-0.4,0.2-0.6,0.2c-0.2,0-0.4-0.1-0.6-0.2C154.6,17,154.6,16.8,154.6,16.5z M156.1,27.4h-1.4v-8.6
		h1.4V27.4z"/>
	<path id="XMLID_29_" class="st5" d="M165.8,26.4c0.2,0,0.4,0,0.6-0.1c0.2,0,0.4-0.1,0.6-0.1v1.1c-0.1,0.1-0.3,0.1-0.6,0.2
		s-0.6,0.1-0.8,0.1c-1.7,0-2.5-0.9-2.5-2.6v-5h-1.2v-0.7l1.2-0.6l0.6-1.8h0.8v2h2.5v1.1h-2.5v5c0,0.5,0.1,0.9,0.4,1.1
		S165.4,26.4,165.8,26.4z"/>
	<path id="XMLID_27_" class="st5" d="M174.6,27.4v-5.5c0-0.7-0.2-1.2-0.5-1.6c-0.3-0.3-0.8-0.5-1.5-0.5c-0.9,0-1.5,0.2-1.9,0.7
		s-0.6,1.3-0.6,2.4v4.4h-1.4V15.2h1.4v3.6c0,0.5,0,0.9-0.1,1.2h0.1c0.3-0.4,0.6-0.7,1.1-1s1-0.4,1.6-0.4c1,0,1.8,0.2,2.4,0.7
		c0.5,0.5,0.8,1.3,0.8,2.4v5.6H174.6z"/>
	<path id="XMLID_23_" class="st5" d="M183.9,27.4l-0.3-1.2h-0.1c-0.4,0.5-0.9,0.9-1.3,1.1s-1,0.3-1.6,0.3c-0.8,0-1.5-0.2-2-0.7
		c-0.5-0.4-0.7-1.1-0.7-1.9c0-1.7,1.4-2.7,4.1-2.7l1.5-0.1v-0.5c0-0.7-0.1-1.1-0.4-1.4c-0.3-0.3-0.7-0.5-1.4-0.5
		c-0.5,0-0.9,0.1-1.3,0.2c-0.4,0.1-0.8,0.3-1.1,0.5l-0.4-1.1c0.4-0.2,0.9-0.4,1.4-0.5c0.5-0.1,1-0.2,1.5-0.2c1,0,1.8,0.2,2.3,0.7
		c0.5,0.5,0.8,1.2,0.8,2.2v5.8H183.9z M181,26.4c0.8,0,1.4-0.2,1.9-0.6c0.5-0.4,0.7-1,0.7-1.8v-0.8l-1.3,0.1c-1,0-1.7,0.2-2.2,0.5
		c-0.5,0.3-0.7,0.7-0.7,1.3c0,0.4,0.1,0.8,0.4,1C180.1,26.3,180.5,26.4,181,26.4z M180.7,17.5c0.2-0.3,0.4-0.6,0.8-1.1
		s0.6-0.9,0.8-1.3h1.7v0.2c-0.2,0.3-0.6,0.8-1.1,1.3c-0.5,0.5-0.9,0.9-1.2,1.1h-0.9V17.5z"/>
	<path id="XMLID_21_" class="st5" d="M193.4,27.4v-5.5c0-0.7-0.2-1.2-0.5-1.6c-0.3-0.3-0.8-0.5-1.5-0.5c-0.9,0-1.5,0.2-1.9,0.7
		c-0.4,0.5-0.6,1.3-0.6,2.4v4.4h-1.4v-8.6h1.1l0.2,1.2h0.1c0.3-0.4,0.6-0.7,1.1-1c0.5-0.2,1-0.3,1.6-0.3c1.1,0,1.8,0.3,2.3,0.8
		c0.5,0.5,0.8,1.3,0.8,2.4v5.6H193.4z"/>
	<path id="XMLID_18_" class="st5" d="M203.2,27.3l0-1.1h-0.1c-0.6,0.9-1.5,1.3-2.7,1.3c-1.1,0-2-0.4-2.6-1.2s-0.9-1.9-0.9-3.3
		c0-1.4,0.3-2.5,0.9-3.3s1.5-1.2,2.6-1.2c1.2,0,2.1,0.4,2.7,1.3h0.1l0.2-1.1h1.1v8.7c0,1.2-0.3,2.2-0.9,2.8
		c-0.6,0.6-1.6,0.9-2.9,0.9c-1.3,0-2.3-0.2-3.1-0.5v-1.3c0.8,0.4,1.9,0.7,3.2,0.7c0.7,0,1.3-0.2,1.7-0.6c0.4-0.4,0.6-1,0.6-1.8V27.3
		z M200.8,26.4c0.9,0,1.5-0.2,1.9-0.7c0.4-0.5,0.6-1.2,0.6-2.2v-0.3c0-1.1-0.2-2-0.6-2.5c-0.4-0.5-1-0.8-1.9-0.8
		c-0.7,0-1.3,0.3-1.7,0.9s-0.6,1.4-0.6,2.4c0,1.1,0.2,1.9,0.6,2.4C199.4,26.1,200,26.4,200.8,26.4z"/>
	<path id="XMLID_16_" class="st5" d="M207.1,26.5c0-0.3,0.1-0.6,0.3-0.8c0.2-0.2,0.4-0.3,0.7-0.3c0.3,0,0.6,0.1,0.7,0.3
		c0.2,0.2,0.3,0.4,0.3,0.8c0,0.3-0.1,0.6-0.3,0.8s-0.4,0.3-0.7,0.3c-0.3,0-0.5-0.1-0.7-0.3S207.1,26.9,207.1,26.5z"/>
</g>
</svg>