<!-- Generator: Adobe Illustrator 19.0.0, SVG Export Plug-In  -->
<svg version="1.1"
	 xmlns="http://www.w3.org/2000/svg" xmlns:xlink="http://www.w3.org/1999/xlink" xmlns:a="http://ns.adobe.com/AdobeSVGViewerExtensions/3.0/"
	 x="0px" y="0px" width="76px" height="125.2px" viewBox="0 0 76 125.2"
	 style="overflow:scroll;enable-background:new 0 0 76 125.2;" xml:space="preserve">
<style type="text/css">
	.st0{fill:#036A95;}
	.st1{fill:#FF6633;}
	.st2{fill:none;stroke:#086A87;stroke-width:2;stroke-linecap:round;stroke-linejoin:round;stroke-miterlimit:10;}
</style>
<defs>
</defs>
<g id="XMLID_61_">
	<path id="XMLID_118_" class="st0" d="M16.5,65.5h1.2v2h2.6c0.1,0,0.3-0.1,0.4-0.1c0.1-0.1,0.2-0.2,0.3-0.3s0.2-0.3,0.2-0.5v-1h1.2
		v1.1c0,0.1,0,0.2,0,0.3s-0.1,0.2-0.1,0.4c-0.1,0.1-0.1,0.3-0.2,0.4c-0.1,0.1-0.2,0.3-0.3,0.4c0.2,0.1,0.3,0.3,0.4,0.5
		c0.1,0.2,0.2,0.4,0.3,0.6c0.1,0.2,0.1,0.5,0.1,0.8v3.4h-1.2V70c0-0.1,0-0.3-0.1-0.4c0-0.1-0.1-0.2-0.1-0.3S21.1,69.1,21,69
		s-0.2-0.2-0.3-0.3c-0.1-0.1-0.2-0.1-0.4-0.1h-2.6v4.8h-1.2V65.5z"/>
	<path id="XMLID_116_" class="st0" d="M25.6,65.5v4.9c0,0.3,0,0.6,0.1,0.8c0.1,0.2,0.2,0.4,0.3,0.6s0.3,0.3,0.4,0.3
		c0.2,0.1,0.3,0.1,0.4,0.2c0.1,0,0.3,0.1,0.4,0.1c0.1,0,0.2,0,0.2,0c0.3,0,0.6,0,0.8-0.1c0.2-0.1,0.4-0.2,0.5-0.3
		c0.1-0.1,0.2-0.3,0.3-0.5s0.1-0.3,0.2-0.5s0.1-0.3,0.1-0.4s0-0.2,0-0.2v-4.9h1.2v7.9h-1.2v-1.1c0,0.1,0,0.3-0.1,0.4
		c-0.1,0.1-0.1,0.2-0.2,0.3s-0.2,0.2-0.3,0.2s-0.2,0.1-0.3,0.1c-0.3,0.1-0.6,0.2-0.9,0.2h-0.3c-0.4,0-0.8-0.1-1.1-0.2
		c-0.3-0.1-0.6-0.3-0.8-0.5s-0.4-0.4-0.5-0.6s-0.2-0.5-0.3-0.7s-0.1-0.4-0.1-0.6s0-0.3,0-0.4v-0.1v-4.9H25.6z"/>
	<path id="XMLID_114_" class="st0" d="M28.7,62.9v0.6h2.9v1.1h-3.5c-0.1,0-0.2,0-0.3-0.1c-0.1-0.1-0.1-0.1-0.2-0.2
		c0-0.1-0.1-0.2-0.1-0.3v-1.2H28.7z"/>
	<path id="XMLID_112_" class="st0" d="M34,65.5h2.3v5.7c0,0.4,0,0.7-0.1,1s-0.2,0.5-0.4,0.6s-0.3,0.3-0.5,0.4
		c-0.2,0.1-0.3,0.2-0.5,0.2c-0.2,0-0.3,0.1-0.4,0.1s-0.2,0-0.2,0c-0.3,0-0.6,0-0.9-0.1c-0.2-0.1-0.4-0.2-0.6-0.3
		c-0.2-0.1-0.3-0.3-0.5-0.4l0.8-0.8c0,0,0.1,0.1,0.1,0.1s0.1,0.1,0.2,0.2s0.2,0.1,0.3,0.2c0.1,0,0.3,0.1,0.5,0.1
		c0.1,0,0.2,0,0.3-0.1s0.2-0.1,0.2-0.1c0.1-0.1,0.1-0.1,0.2-0.2s0.1-0.1,0.1-0.2c0.1-0.2,0.1-0.4,0.1-0.6v-4.6H34V65.5z"/>
	<path id="XMLID_110_" class="st0" d="M44.5,65.4c0,0,0,0.1-0.1,0.1c0,0.1-0.1,0.1-0.2,0.2s-0.1,0.1-0.2,0.2
		c-0.1,0.1-0.2,0.2-0.2,0.2s-0.2,0.1-0.2,0.2c-0.1,0.1-0.1,0.1-0.2,0.1c0.2,0.2,0.3,0.4,0.4,0.6s0.2,0.4,0.2,0.6S44,68,44,68.2
		s0,0.3,0,0.3v0.1v4.8h-1.2v-2.3c0-0.2-0.1-0.4-0.2-0.6c-0.1-0.2-0.2-0.3-0.4-0.4s-0.3-0.2-0.5-0.2s-0.3-0.1-0.5-0.1
		c-0.2,0-0.3,0-0.5-0.1c0,0-0.1,0-0.1,0s-0.2,0-0.3,0c-0.1,0-0.2,0.1-0.4,0.1c-0.1,0.1-0.3,0.1-0.4,0.2c-0.1,0.1-0.2,0.2-0.3,0.4
		S39.1,70.8,39,71c0,0,0,0.1,0,0.1s0,0.1,0,0.1c0,0.2,0,0.3,0.1,0.4c0.1,0.1,0.2,0.2,0.3,0.3c0.1,0.1,0.3,0.1,0.4,0.2
		s0.3,0.1,0.5,0.1c0.2,0,0.3,0,0.4,0c0.1,0,0.2,0,0.3,0h0.1v1.1h-1.3c-0.3,0-0.5-0.1-0.8-0.2s-0.5-0.3-0.6-0.5S38.1,72.3,38,72
		s-0.2-0.5-0.2-0.8c0-0.3,0.1-0.6,0.2-0.9s0.3-0.6,0.7-0.9c0.2-0.2,0.4-0.3,0.6-0.4s0.4-0.2,0.6-0.3c0.2-0.1,0.4-0.1,0.6-0.1
		c0.2,0,0.4,0,0.5,0c0.3,0,0.5,0,0.8,0.1c0.2,0.1,0.4,0.1,0.6,0.2c0.2,0.1,0.4,0.2,0.6,0.2v-0.5c0-0.2,0-0.5-0.1-0.6
		c-0.1-0.2-0.1-0.3-0.2-0.5s-0.2-0.3-0.3-0.3c-0.1-0.1-0.2-0.2-0.3-0.2c-0.3-0.1-0.6-0.2-1-0.2c-0.3,0-0.6,0.1-0.8,0.2
		s-0.4,0.3-0.5,0.4c-0.1,0.2-0.3,0.3-0.3,0.5c-0.1,0.2-0.1,0.3-0.2,0.5h-1.2c0-0.4,0.1-0.8,0.3-1.1s0.3-0.6,0.5-0.8s0.4-0.4,0.6-0.5
		c0.2-0.1,0.5-0.2,0.7-0.3c0.2-0.1,0.4-0.1,0.6-0.1s0.3,0,0.4,0H41c0.4,0,0.7,0.1,1.1,0.2c0.2,0,0.4-0.1,0.6-0.2
		c0.2-0.1,0.3-0.2,0.5-0.3c0.2-0.1,0.3-0.3,0.4-0.6L44,65c0,0,0.1,0.1,0.1,0.1c0,0,0.1,0.1,0.1,0.1S44.4,65.3,44.5,65.4
		C44.4,65.4,44.4,65.4,44.5,65.4z"/>
	<path id="XMLID_108_" class="st0" d="M44.1,62.7v1.9h-4.8v-1.1h2v-0.8h1.1v0.8H43v-0.8H44.1z"/>
	<path id="XMLID_106_" class="st0" d="M52.4,70.7c0,0.5-0.2,1-0.4,1.4c-0.1,0.2-0.2,0.3-0.4,0.5c-0.2,0.2-0.3,0.3-0.5,0.5
		c-0.2,0.1-0.5,0.2-0.8,0.3c-0.3,0.1-0.6,0.1-1,0.1c-0.4,0-0.7,0-1-0.1c-0.3-0.1-0.5-0.2-0.8-0.3c-0.2-0.1-0.4-0.3-0.5-0.5
		c-0.1-0.2-0.3-0.3-0.4-0.5c-0.2-0.4-0.4-0.9-0.4-1.4v-1.6h2.2v1.1h-1v0.5c0,0.2,0,0.4,0.1,0.6c0.1,0.2,0.1,0.3,0.2,0.4
		s0.2,0.2,0.3,0.3s0.2,0.2,0.3,0.2c0.3,0.1,0.6,0.2,1,0.2c0.4,0,0.7-0.1,1-0.2c0.1-0.1,0.2-0.1,0.3-0.2s0.2-0.2,0.3-0.3
		s0.2-0.3,0.2-0.4c0.1-0.2,0.1-0.4,0.1-0.6v-2.4c0-0.2,0-0.4-0.1-0.5c-0.1-0.2-0.1-0.3-0.2-0.4s-0.2-0.2-0.3-0.3s-0.2-0.1-0.3-0.2
		c-0.3-0.1-0.6-0.2-1-0.2h-0.1c-0.1,0-0.2,0-0.4,0c-0.2,0-0.3,0.1-0.5,0.2S48,67,47.8,67.2c-0.2,0.2-0.3,0.4-0.4,0.6h-1.2
		c0-0.1,0.1-0.3,0.1-0.5c0.1-0.2,0.1-0.3,0.2-0.5s0.2-0.3,0.4-0.5s0.3-0.3,0.5-0.4s0.5-0.2,0.7-0.3c0.3-0.1,0.6-0.1,1-0.1
		c0.4,0,0.7,0,1,0.1c0.3,0.1,0.5,0.2,0.8,0.3c0.2,0.1,0.4,0.3,0.5,0.5c0.2,0.2,0.3,0.3,0.4,0.5c0.2,0.4,0.4,0.9,0.4,1.4V70.7z"/>
	<path id="XMLID_104_" class="st0" d="M59,72.4h1.1l-0.8,2.9h-1.1L59,72.4z"/>
	<path id="XMLID_102_" class="st0" d="M16.8,79.7c0.3,0.1,0.6,0.3,0.9,0.5c0.2,0.2,0.4,0.4,0.5,0.7s0.2,0.5,0.3,0.7s0.1,0.4,0.1,0.6
		c0,0.2,0,0.3,0,0.3v4.9h-1.2v-4.9c0-0.3,0-0.6-0.1-0.8c-0.1-0.2-0.2-0.4-0.3-0.5c-0.1-0.1-0.3-0.2-0.4-0.3s-0.3-0.1-0.4-0.2
		c-0.1,0-0.3-0.1-0.4-0.1c-0.1,0-0.2,0-0.2,0c-0.2,0-0.4,0-0.6,0.1s-0.3,0.1-0.5,0.2c-0.1,0.1-0.2,0.2-0.3,0.3s-0.2,0.2-0.2,0.3
		c-0.1,0.3-0.2,0.6-0.2,0.9v4.9h-1.9v-1.1h0.7v-4.9c0.2-0.3,0.3-0.6,0.5-0.8c0.2-0.2,0.4-0.4,0.6-0.5c0.2-0.1,0.4-0.2,0.6-0.3
		c0.2-0.1,0.4-0.1,0.5-0.2s0.3-0.1,0.4-0.1s0.2,0,0.3,0h0.1C16,79.5,16.4,79.6,16.8,79.7z"/>
	<path id="XMLID_100_" class="st0" d="M21.6,79.5c0,0,0.1,0,0.2,0c0.1,0,0.3,0,0.4,0.1c0.2,0,0.3,0.1,0.5,0.2
		c0.2,0.1,0.3,0.2,0.5,0.4s0.3,0.4,0.4,0.7s0.1,0.6,0.1,1v5.6h-1.2v-5.6c0-0.2,0-0.4-0.1-0.6c0-0.1-0.1-0.1-0.1-0.2
		s-0.1-0.1-0.2-0.2c-0.1-0.1-0.1-0.1-0.2-0.1s-0.2,0-0.3,0c-0.2,0-0.4,0-0.5,0.1c-0.1,0-0.2,0.1-0.3,0.2S20.6,81,20.6,81
		s-0.1,0.1-0.1,0.1l-0.8-0.8c0.1-0.2,0.3-0.3,0.5-0.4c0.2-0.1,0.4-0.2,0.6-0.3S21.3,79.5,21.6,79.5z"/>
	<path id="XMLID_98_" class="st0" d="M33,79.5v5.9c0,0.4-0.1,0.7-0.3,1c-0.1,0.1-0.2,0.3-0.3,0.4c-0.1,0.1-0.2,0.2-0.4,0.3
		c-0.2,0.1-0.3,0.2-0.5,0.2s-0.4,0.1-0.7,0.1c-0.2,0-0.4,0-0.5-0.1c-0.2-0.1-0.3-0.1-0.4-0.2s-0.2-0.2-0.3-0.4s-0.1-0.3-0.1-0.5
		c0,0.2,0,0.4-0.1,0.5s-0.2,0.3-0.3,0.4s-0.3,0.2-0.4,0.2c-0.2,0.1-0.4,0.1-0.5,0.1c-0.3,0-0.5,0-0.7-0.1s-0.4-0.1-0.5-0.2
		c-0.2-0.1-0.3-0.2-0.4-0.3c-0.1-0.1-0.2-0.2-0.3-0.4c-0.2-0.3-0.3-0.6-0.3-1v-5.9h1.2V85c0,0.3,0,0.6,0.1,0.8s0.2,0.3,0.3,0.4
		c0.1,0.1,0.2,0.1,0.3,0.2s0.2,0,0.2,0H28c0.2,0,0.4-0.1,0.5-0.2s0.2-0.2,0.3-0.4c0.1-0.1,0.1-0.3,0.1-0.4s0-0.2,0-0.3V85v-5.5h1V85
		v0.1c0,0.1,0,0.2,0,0.3s0.1,0.3,0.1,0.4c0.1,0.1,0.2,0.3,0.3,0.4c0.1,0.1,0.3,0.2,0.5,0.2h0.1c0.1,0,0.1,0,0.2,0s0.2-0.1,0.3-0.2
		c0.1-0.1,0.2-0.2,0.3-0.4s0.1-0.5,0.1-0.8v-5.5H33z"/>
	<path id="XMLID_96_" class="st0" d="M40.8,79.5v5.7c0,0.3,0,0.6-0.1,0.9c-0.1,0.2-0.2,0.4-0.4,0.6c-0.2,0.2-0.3,0.3-0.5,0.4
		c-0.2,0.1-0.4,0.2-0.5,0.2c-0.2,0.1-0.3,0.1-0.5,0.1c-0.1,0-0.2,0-0.3,0H37c-0.4,0-0.7,0-1-0.1c-0.3-0.1-0.5-0.2-0.7-0.3
		c-0.2-0.1-0.3-0.3-0.4-0.4c-0.1-0.2-0.2-0.3-0.2-0.5s-0.1-0.3-0.1-0.4s0-0.2,0-0.3c0-0.3,0.1-0.6,0.2-0.8c0.1-0.2,0.2-0.4,0.4-0.5
		s0.3-0.2,0.4-0.3c0.1-0.1,0.2-0.1,0.2-0.1c-0.2,0-0.3-0.1-0.4-0.1c-0.1-0.1-0.2-0.1-0.3-0.2s-0.2-0.2-0.2-0.3s-0.1-0.2-0.2-0.3
		c-0.1-0.2-0.2-0.5-0.2-0.8c0-0.3,0-0.5,0.1-0.8c0.1-0.2,0.1-0.4,0.2-0.6s0.2-0.3,0.3-0.4c0.1-0.1,0.2-0.2,0.4-0.3
		c0.3-0.2,0.6-0.3,1-0.3h1.6v1.1H37c-0.2,0-0.3,0-0.5,0.1s-0.2,0.1-0.3,0.1S36,80.9,35.9,81s-0.1,0.1-0.2,0.2
		c-0.1,0.2-0.2,0.4-0.2,0.6c0,0.2,0,0.4,0.1,0.5c0.1,0.1,0.1,0.2,0.2,0.3c0.1,0.1,0.2,0.2,0.3,0.2s0.2,0.1,0.3,0.1
		c0.1,0,0.2,0,0.3,0s0.1,0,0.1,0h0.9v1.1H37c-0.2,0-0.4,0-0.5,0.1c-0.1,0-0.3,0.1-0.4,0.2c-0.1,0.1-0.2,0.1-0.2,0.2
		s-0.1,0.2-0.1,0.2c0,0.1,0,0.1,0,0.2c0,0.1,0,0.1,0,0.1c0,0.2,0,0.4,0.1,0.5c0.1,0.1,0.1,0.2,0.2,0.3c0.1,0.1,0.2,0.2,0.3,0.2
		s0.2,0.1,0.3,0.1c0.1,0,0.2,0,0.3,0c0.1,0,0.1,0,0.2,0h0h1.4c0.3,0,0.5-0.1,0.7-0.2c0.2-0.1,0.3-0.2,0.4-0.4
		c0.1-0.2,0.2-0.3,0.2-0.6v-5.7H40.8z"/>
	<path id="XMLID_94_" class="st0" d="M44,79.5v4.9c0,0.3,0,0.6,0.1,0.8c0.1,0.2,0.2,0.4,0.3,0.6s0.3,0.3,0.4,0.3
		c0.2,0.1,0.3,0.1,0.4,0.2c0.1,0,0.3,0.1,0.4,0.1c0.1,0,0.2,0,0.2,0c0.3,0,0.6,0,0.8-0.1c0.2-0.1,0.4-0.2,0.5-0.3
		c0.1-0.1,0.2-0.3,0.3-0.5s0.1-0.3,0.2-0.5s0.1-0.3,0.1-0.4s0-0.2,0-0.2v-4.9h1.2v7.9h-1.2v-1.1c0,0.1,0,0.3-0.1,0.4
		c-0.1,0.1-0.1,0.2-0.2,0.3s-0.2,0.2-0.3,0.2s-0.2,0.1-0.3,0.1c-0.3,0.1-0.6,0.2-0.9,0.2h-0.3c-0.4,0-0.8-0.1-1.1-0.2
		c-0.3-0.1-0.6-0.3-0.8-0.5s-0.4-0.4-0.5-0.6S43,85.7,43,85.5s-0.1-0.4-0.1-0.6s0-0.3,0-0.4v-0.1v-4.9H44z"/>
	<path id="XMLID_92_" class="st0" d="M56.6,80.3c0.2,0.2,0.3,0.4,0.4,0.6c0.1,0.2,0.1,0.5,0.2,0.8v5.7h-1.2v-5.3
		c0-0.3-0.1-0.6-0.2-0.8c-0.1-0.2-0.3-0.4-0.5-0.5L54,81.6l-1.3-0.8c-0.2,0.1-0.4,0.3-0.5,0.5c-0.1,0.2-0.2,0.5-0.2,0.8v2.8
		c0,0.3,0.1,0.5,0.2,0.7c0,0.1,0.1,0.2,0.2,0.2c0.1,0.1,0.1,0.2,0.2,0.2c0.1,0.1,0.2,0.1,0.3,0.2s0.3,0.1,0.4,0.1h0.9v1.1h-1.6
		c-0.3,0-0.6-0.1-0.9-0.3c-0.1-0.1-0.2-0.2-0.3-0.3c-0.1-0.1-0.2-0.2-0.3-0.4s-0.2-0.4-0.2-0.6s-0.1-0.5-0.1-0.8v-3.4
		c0.1-0.5,0.2-1,0.5-1.4s0.7-0.7,1.2-0.8l1.4,0.8l1.4-0.8C55.9,79.6,56.2,79.9,56.6,80.3z"/>
	<path id="XMLID_90_" class="st0" d="M63.5,81.5L63,81.2c-0.1-0.1-0.3-0.2-0.4-0.2c-0.2-0.1-0.3-0.1-0.5-0.2s-0.3-0.1-0.4-0.1
		c-0.1,0-0.2,0-0.3,0c-0.2,0-0.4,0-0.5,0c-0.2,0-0.3,0.1-0.4,0.2c-0.1,0.1-0.2,0.2-0.3,0.4s-0.1,0.3-0.1,0.6s0.1,0.4,0.2,0.6
		s0.3,0.2,0.5,0.3c0.2,0.1,0.4,0.1,0.7,0.2c0.3,0,0.5,0.1,0.8,0.1c0.3,0,0.5,0.1,0.7,0.3c0.2,0.1,0.5,0.3,0.6,0.5s0.3,0.4,0.4,0.7
		s0.2,0.5,0.2,0.8c0,0.4-0.1,0.8-0.2,1.1s-0.3,0.5-0.6,0.7s-0.5,0.3-0.9,0.4s-0.7,0.1-1.1,0.1c-0.5,0-1-0.1-1.4-0.2
		c-0.4-0.1-0.7-0.3-0.9-0.4c-0.3-0.2-0.5-0.4-0.7-0.6l0.8-0.8c0.1,0.1,0.2,0.2,0.4,0.3c0.2,0.1,0.3,0.2,0.5,0.3s0.4,0.1,0.6,0.2
		s0.5,0.1,0.7,0.1c0.2,0,0.5,0,0.7-0.1s0.4-0.1,0.5-0.3s0.2-0.2,0.3-0.4s0.1-0.3,0.1-0.5c0-0.2,0-0.3-0.1-0.5
		c-0.1-0.1-0.1-0.2-0.2-0.3s-0.2-0.1-0.3-0.1s-0.2,0-0.2-0.1c0,0-0.1,0-0.2,0c-0.1,0-0.3,0-0.5-0.1S61.1,84,60.9,84
		s-0.3-0.1-0.4-0.1c-0.1,0-0.1,0-0.2-0.1c-0.1,0-0.2-0.1-0.4-0.1c-0.1-0.1-0.3-0.1-0.4-0.2s-0.3-0.2-0.4-0.4
		c-0.1-0.2-0.2-0.3-0.3-0.5c-0.1-0.2-0.1-0.5-0.1-0.7c0-0.4,0.1-0.8,0.2-1.1c0.2-0.3,0.3-0.5,0.6-0.7c0.2-0.2,0.5-0.3,0.8-0.4
		s0.6-0.1,0.9-0.1c0.3,0,0.6,0,0.9,0.1s0.5,0.2,0.7,0.2c0.2,0.1,0.4,0.2,0.6,0.3l0.6,0.4L63.5,81.5z"/>
	<path id="XMLID_88_" class="st0" d="M61.2,78.5v-1.2c0-0.1,0-0.2,0.1-0.3c0-0.1,0.1-0.1,0.2-0.2s0.2-0.1,0.3-0.1h2.6V78h-2v0.6
		H61.2z"/>
	<path id="XMLID_86_" class="st0" d="M5.2,101.4v-4.9c0-0.3-0.1-0.6-0.3-0.9c-0.1-0.1-0.1-0.2-0.2-0.3c-0.1-0.1-0.2-0.2-0.4-0.3
		c-0.1-0.1-0.3-0.2-0.5-0.2c-0.2-0.1-0.4-0.1-0.7-0.1s-0.5,0-0.7,0.1c-0.2,0.1-0.4,0.1-0.5,0.2s-0.3,0.2-0.4,0.3
		c-0.1,0.1-0.2,0.2-0.2,0.3c-0.2,0.3-0.2,0.6-0.3,0.9V99c0,0.2,0.1,0.3,0.1,0.5c0,0.1,0.1,0.3,0.2,0.4s0.2,0.2,0.3,0.3
		c0.2,0.1,0.3,0.2,0.5,0.2c0.1,0,0.3,0,0.4-0.1c0.1-0.1,0.2-0.1,0.3-0.2l0.8,0.8c-0.1,0.1-0.2,0.2-0.4,0.3c-0.1,0.1-0.3,0.1-0.5,0.2
		s-0.4,0.1-0.6,0.1c-0.1,0-0.1,0-0.2,0c-0.1,0-0.2,0-0.2,0c-0.3-0.1-0.5-0.2-0.8-0.3c-0.2-0.2-0.4-0.3-0.6-0.6s-0.3-0.5-0.3-0.7
		S0,99.3,0,99v-2.6c0-0.5,0.1-0.9,0.3-1.2c0.1-0.3,0.3-0.6,0.5-0.8C1,94.2,1.2,94,1.5,93.9c0.2-0.1,0.5-0.2,0.7-0.3
		c0.2-0.1,0.4-0.1,0.6-0.1c0.2,0,0.3,0,0.4,0h0.1h0.1c0.1,0,0.2,0,0.4,0c0.2,0,0.4,0.1,0.6,0.1c0.2,0.1,0.4,0.2,0.7,0.3
		s0.4,0.3,0.6,0.5c0.2,0.2,0.4,0.5,0.5,0.8c0.1,0.3,0.2,0.7,0.3,1.2v4.9H5.2z"/>
	<path id="XMLID_84_" class="st0" d="M9.5,93.5v4.9c0,0.3,0,0.6,0.1,0.8c0.1,0.2,0.2,0.4,0.3,0.6c0.1,0.1,0.3,0.3,0.4,0.3
		s0.3,0.1,0.4,0.2c0.1,0,0.3,0.1,0.4,0.1c0.1,0,0.2,0,0.2,0c0.3,0,0.6,0,0.8-0.1s0.4-0.2,0.5-0.3c0.1-0.1,0.2-0.3,0.3-0.5
		c0.1-0.2,0.1-0.3,0.2-0.5s0.1-0.3,0.1-0.4s0-0.2,0-0.2v-4.9h1.2v7.9h-1.2v-1.1c0,0.1,0,0.3-0.1,0.4c-0.1,0.1-0.1,0.2-0.2,0.3
		s-0.2,0.2-0.3,0.2s-0.2,0.1-0.3,0.1c-0.3,0.1-0.6,0.2-0.9,0.2h-0.3c-0.4,0-0.8-0.1-1.1-0.2c-0.3-0.1-0.6-0.3-0.8-0.5
		c-0.2-0.2-0.4-0.4-0.5-0.6s-0.2-0.5-0.3-0.7c-0.1-0.2-0.1-0.4-0.1-0.6s0-0.3,0-0.4v-0.1v-4.9H9.5z"/>
	<path id="XMLID_82_" class="st0" d="M22.1,94.3c0.2,0.2,0.3,0.4,0.4,0.6s0.1,0.5,0.2,0.8v5.7h-1.2v-5.3c0-0.3-0.1-0.6-0.2-0.8
		c-0.1-0.2-0.3-0.4-0.5-0.5l-1.3,0.8l-1.3-0.8c-0.2,0.1-0.4,0.3-0.5,0.5c-0.1,0.2-0.2,0.5-0.2,0.8v2.8c0,0.3,0.1,0.5,0.2,0.7
		c0,0.1,0.1,0.2,0.2,0.2c0.1,0.1,0.1,0.2,0.2,0.2s0.2,0.1,0.3,0.2c0.1,0,0.3,0.1,0.4,0.1h0.9v1.1h-1.6c-0.3,0-0.6-0.1-0.9-0.3
		c-0.1-0.1-0.2-0.2-0.3-0.3c-0.1-0.1-0.2-0.2-0.3-0.4c-0.1-0.2-0.2-0.4-0.2-0.6s-0.1-0.5-0.1-0.8v-3.4c0.1-0.5,0.2-1,0.5-1.4
		c0.3-0.4,0.7-0.7,1.2-0.8l1.4,0.8l1.4-0.8C21.4,93.6,21.8,93.9,22.1,94.3z"/>
	<path id="XMLID_80_" class="st0" d="M29,95.5l-0.5-0.3c-0.1-0.1-0.3-0.2-0.4-0.2s-0.3-0.1-0.5-0.2s-0.3-0.1-0.4-0.1s-0.2,0-0.3,0
		c-0.2,0-0.4,0-0.5,0s-0.3,0.1-0.4,0.2s-0.2,0.2-0.3,0.4c-0.1,0.1-0.1,0.3-0.1,0.6s0.1,0.4,0.2,0.6c0.1,0.1,0.3,0.2,0.5,0.3
		c0.2,0.1,0.4,0.1,0.7,0.2s0.5,0.1,0.8,0.1s0.5,0.1,0.7,0.3c0.2,0.1,0.5,0.3,0.6,0.5s0.3,0.4,0.4,0.7s0.2,0.5,0.2,0.8
		c0,0.4-0.1,0.8-0.2,1.1s-0.3,0.5-0.6,0.7c-0.3,0.2-0.5,0.3-0.9,0.4c-0.3,0.1-0.7,0.1-1.1,0.1c-0.5,0-1-0.1-1.4-0.2
		c-0.4-0.1-0.7-0.3-0.9-0.4c-0.3-0.2-0.5-0.4-0.7-0.6l0.8-0.8c0.1,0.1,0.2,0.2,0.4,0.3s0.3,0.2,0.5,0.3s0.4,0.1,0.6,0.2
		s0.5,0.1,0.7,0.1c0.2,0,0.5,0,0.7-0.1s0.4-0.1,0.5-0.3s0.2-0.2,0.3-0.4s0.1-0.3,0.1-0.5c0-0.2,0-0.3-0.1-0.5s-0.1-0.2-0.2-0.3
		c-0.1-0.1-0.2-0.1-0.3-0.1s-0.2,0-0.2-0.1c0,0-0.1,0-0.2,0c-0.1,0-0.3,0-0.5-0.1S26.6,98,26.4,98s-0.3-0.1-0.4-0.1
		c-0.1,0-0.1,0-0.2-0.1s-0.2-0.1-0.4-0.1c-0.1-0.1-0.3-0.1-0.4-0.2c-0.1-0.1-0.3-0.2-0.4-0.4c-0.1-0.2-0.2-0.3-0.3-0.5
		c-0.1-0.2-0.1-0.5-0.1-0.7c0-0.4,0.1-0.8,0.2-1.1s0.3-0.5,0.6-0.7s0.5-0.3,0.8-0.4s0.6-0.1,0.9-0.1c0.3,0,0.6,0,0.9,0.1
		c0.3,0.1,0.5,0.2,0.7,0.2c0.2,0.1,0.4,0.2,0.6,0.3l0.6,0.4L29,95.5z"/>
	<path id="XMLID_78_" class="st0" d="M28.8,90.8v1.8h-4.4v-1.1h3.3v-0.7H28.8z"/>
	<path id="XMLID_74_" class="st0" d="M42.9,101.4l-1.3-1.5c-0.1,0.1-0.2,0.2-0.3,0.3c-0.1,0.1-0.2,0.2-0.3,0.3s-0.2,0.2-0.3,0.3
		c-0.1,0.1-0.2,0.2-0.4,0.2c-0.1,0.1-0.2,0.1-0.4,0.2s-0.2,0.1-0.4,0.2c-0.1,0-0.3,0.1-0.4,0.1c-0.1,0-0.3,0-0.4,0.1
		c0,0-0.1,0-0.1,0s-0.1,0-0.1,0c-0.2,0-0.5,0-0.7-0.1c-0.2-0.1-0.3-0.1-0.4-0.2s-0.3-0.2-0.4-0.3s-0.2-0.2-0.3-0.3
		c-0.1-0.1-0.2-0.3-0.3-0.4c-0.1-0.3-0.2-0.6-0.3-0.9c0,0,0-0.1,0-0.1s0-0.1,0-0.1c0-0.1,0-0.3,0-0.4s0.1-0.3,0.1-0.4
		c0.1-0.2,0.1-0.3,0.2-0.5s0.2-0.3,0.3-0.4s0.2-0.3,0.3-0.4c0.1-0.1,0.2-0.2,0.4-0.4c0.1-0.1,0.3-0.2,0.4-0.4s0.3-0.2,0.4-0.3
		c-0.1-0.1-0.2-0.3-0.3-0.4c-0.1-0.1-0.2-0.3-0.3-0.4c-0.1-0.1-0.1-0.3-0.2-0.4s-0.1-0.3-0.1-0.5c0-0.2,0-0.5,0.1-0.7
		c0.1-0.2,0.2-0.5,0.3-0.6c0.1-0.1,0.2-0.2,0.3-0.3s0.2-0.1,0.3-0.2c0.1-0.1,0.2-0.1,0.3-0.1s0.2-0.1,0.4-0.1s0.3,0,0.4,0
		c0.1,0,0.2,0,0.4,0.1s0.2,0.1,0.3,0.2c0.1,0.1,0.2,0.1,0.3,0.2c0.1,0.1,0.2,0.2,0.2,0.3c0.1,0.1,0.1,0.2,0.2,0.3
		c0.1,0.2,0.2,0.4,0.2,0.7c0,0.2,0,0.5-0.1,0.7c0,0.1-0.1,0.2-0.1,0.3s-0.1,0.2-0.2,0.3c-0.1,0.2-0.2,0.4-0.4,0.5
		c-0.1,0.1-0.2,0.2-0.3,0.2c-0.1,0.1-0.2,0.2-0.3,0.2l1.9,2.1l1-1.1l0.9,0.6l-1.1,1.3c0.3,0.4,0.6,0.7,1,1.1s0.6,0.8,1,1.1H42.9z
		 M38.7,97.1l-0.3,0.3c-0.2,0.2-0.4,0.3-0.6,0.5c-0.1,0.1-0.2,0.2-0.2,0.3s-0.1,0.2-0.2,0.3c-0.1,0.1-0.1,0.2-0.1,0.3s0,0.2,0,0.4
		c0,0.4,0.2,0.7,0.5,1c0.3,0.3,0.6,0.4,1,0.3c0.2,0,0.4-0.1,0.6-0.1c0.2-0.1,0.4-0.2,0.6-0.3c0.2-0.1,0.4-0.3,0.6-0.5
		c0.2-0.2,0.4-0.3,0.5-0.5l-2-2.2L38.7,97.1z M39.9,94.1c0-0.2-0.1-0.4-0.3-0.5c-0.2-0.1-0.3-0.2-0.5-0.2c-0.2,0-0.4,0.1-0.5,0.3
		c-0.1,0.2-0.2,0.4-0.2,0.6c0,0.1,0,0.2,0.1,0.3c0,0.1,0.1,0.2,0.2,0.3c0.1,0.1,0.1,0.2,0.2,0.3c0.1,0.1,0.1,0.2,0.2,0.3
		c0.1-0.1,0.2-0.2,0.3-0.3c0.1-0.1,0.2-0.2,0.3-0.3C39.8,94.7,39.9,94.4,39.9,94.1L39.9,94.1z"/>
	<path id="XMLID_72_" class="st0" d="M51.7,101.4h-1.2v-7.9h1.2V101.4z"/>
	<path id="XMLID_68_" class="st0" d="M53.6,101.4v-6c0.2-0.3,0.3-0.6,0.5-0.8s0.4-0.4,0.6-0.5c0.2-0.1,0.4-0.2,0.6-0.3
		c0.2-0.1,0.4-0.1,0.5-0.2s0.3-0.1,0.4-0.1s0.2,0,0.3,0h0.1c0.4,0,0.7,0.1,1,0.1s0.5,0.2,0.8,0.3c0.2,0.1,0.4,0.3,0.5,0.5
		c0.1,0.2,0.3,0.3,0.4,0.5s0.2,0.4,0.2,0.5s0.1,0.3,0.1,0.5c0,0.1,0,0.3,0,0.4s0,0.2,0,0.2v4.9h-1.2v-4.9c0-0.3,0-0.6-0.1-0.8
		c-0.1-0.2-0.2-0.4-0.3-0.5c-0.1-0.1-0.3-0.2-0.4-0.3c-0.2-0.1-0.3-0.1-0.5-0.2c-0.1,0-0.3-0.1-0.4-0.1c-0.1,0-0.2,0-0.2,0
		c-0.2,0-0.4,0-0.6,0.1s-0.3,0.1-0.5,0.2c-0.1,0.1-0.2,0.2-0.3,0.3c-0.1,0.1-0.2,0.2-0.2,0.3c-0.1,0.3-0.2,0.6-0.2,0.9v4.9H53.6z"/>
	<path id="XMLID_66_" class="st0" d="M67.8,93.5v4.9v0.1c0,0.1,0,0.2,0,0.4s-0.1,0.4-0.1,0.6s-0.2,0.5-0.3,0.7s-0.3,0.4-0.5,0.6
		s-0.5,0.3-0.8,0.5c-0.3,0.1-0.7,0.2-1.1,0.2h-0.3c-0.3,0-0.6-0.1-0.9-0.2c-0.1,0-0.2-0.1-0.3-0.1c-0.1-0.1-0.2-0.1-0.3-0.2
		s-0.2-0.2-0.2-0.3c-0.1-0.1-0.1-0.2-0.1-0.4v1.1h-1.2v-7.9h1.2v4.9c0,0,0,0.1,0,0.2s0,0.2,0.1,0.4s0.1,0.3,0.2,0.5s0.2,0.3,0.3,0.5
		c0.1,0.1,0.3,0.3,0.5,0.3c0.2,0.1,0.5,0.1,0.8,0.1c0,0,0.1,0,0.2,0c0.1,0,0.2,0,0.4-0.1c0.1,0,0.3-0.1,0.4-0.2
		c0.2-0.1,0.3-0.2,0.4-0.3s0.2-0.3,0.3-0.6c0.1-0.2,0.1-0.5,0.1-0.8v-4.9H67.8z"/>
	<path id="XMLID_64_" class="st0" d="M76,93.4c0,0,0,0.1-0.1,0.1s-0.1,0.1-0.2,0.2s-0.1,0.1-0.2,0.2s-0.2,0.2-0.2,0.2
		s-0.2,0.1-0.2,0.2c-0.1,0.1-0.1,0.1-0.2,0.1c0.2,0.2,0.3,0.4,0.4,0.6c0.1,0.2,0.2,0.4,0.2,0.6s0.1,0.4,0.1,0.5c0,0.2,0,0.3,0,0.3
		v0.1v4.8h-1.2v-2.3c0-0.2-0.1-0.4-0.2-0.6c-0.1-0.2-0.2-0.3-0.4-0.4s-0.3-0.2-0.5-0.2c-0.2-0.1-0.3-0.1-0.5-0.1
		c-0.2,0-0.3,0-0.5-0.1c0,0-0.1,0-0.1,0s-0.2,0-0.3,0c-0.1,0-0.2,0.1-0.4,0.1c-0.1,0.1-0.3,0.1-0.4,0.2s-0.2,0.2-0.3,0.4
		c-0.1,0.1-0.2,0.3-0.2,0.5c0,0,0,0.1,0,0.1s0,0.1,0,0.1c0,0.2,0,0.3,0.1,0.4s0.2,0.2,0.3,0.3s0.3,0.1,0.4,0.2
		c0.2,0,0.3,0.1,0.5,0.1s0.3,0,0.4,0c0.1,0,0.2,0,0.3,0h0.1v1.1h-1.3c-0.3,0-0.5-0.1-0.8-0.2s-0.5-0.3-0.6-0.5
		c-0.2-0.2-0.3-0.4-0.4-0.7c-0.1-0.3-0.2-0.5-0.2-0.8c0-0.3,0.1-0.6,0.2-0.9s0.3-0.6,0.7-0.9c0.2-0.2,0.4-0.3,0.6-0.4
		s0.4-0.2,0.6-0.3c0.2-0.1,0.4-0.1,0.6-0.1s0.4,0,0.5,0c0.3,0,0.5,0,0.8,0.1c0.2,0.1,0.4,0.1,0.6,0.2c0.2,0.1,0.4,0.2,0.6,0.2v-0.5
		c0-0.2,0-0.5-0.1-0.6s-0.1-0.3-0.2-0.5c-0.1-0.1-0.2-0.3-0.3-0.3c-0.1-0.1-0.2-0.2-0.3-0.2c-0.3-0.1-0.6-0.2-1-0.2
		c-0.3,0-0.6,0.1-0.8,0.2s-0.4,0.3-0.5,0.4c-0.1,0.2-0.3,0.3-0.3,0.5c-0.1,0.2-0.1,0.3-0.2,0.5h-1.2c0-0.4,0.1-0.8,0.3-1.1
		s0.3-0.6,0.5-0.8s0.4-0.4,0.6-0.5s0.5-0.2,0.7-0.3c0.2-0.1,0.4-0.1,0.6-0.1s0.3,0,0.4,0h0.1c0.4,0,0.7,0.1,1.1,0.2
		c0.2,0,0.4-0.1,0.6-0.2c0.2-0.1,0.3-0.2,0.5-0.3s0.3-0.3,0.4-0.6l0.4,0.4c0,0,0.1,0.1,0.1,0.1s0.1,0.1,0.1,0.1
		C75.9,93.3,75.9,93.3,76,93.4C76,93.4,76,93.4,76,93.4z"/>
	<path id="XMLID_62_" class="st0" d="M72.9,92.5v-1.2c0-0.1,0-0.2,0.1-0.3c0-0.1,0.1-0.1,0.2-0.2c0.1-0.1,0.2-0.1,0.3-0.1H76V92h-2
		v0.6H72.9z"/>
</g>
<g id="XMLID_28_">
	<g id="XMLID_30_">
		<path id="XMLID_43_" class="st1" d="M10.7,118.8c0-2.8,0.6-4.9,1.8-6.3c1.2-1.4,3-2.1,5.4-2.1c0.8,0,1.9,0,1.9,0.1v2.4
			c-1-0.1-1.2-0.2-1.7-0.2c-1,0-1.9,0.2-2.5,0.5s-1.1,0.6-1.5,1.2c-0.3,0.6-0.5,1.5-0.6,2.5h0.1c0.6-1,1.7-1.5,3.1-1.5
			c1.3,0,2.3,0.5,3,1.3s1.1,1.9,1.1,3.4c0,1.5-0.4,2.7-1.3,3.6s-2.1,1.3-3.6,1.3c-1.1,0-2-0.2-2.8-0.7c-0.8-0.5-1.4-1.2-1.8-2.1
			C10.9,121.3,10.7,120.1,10.7,118.8z M15.9,122.7c0.6,0,1.1-0.2,1.5-0.6c0.3-0.4,0.5-1,0.5-1.9c0-0.7-0.2-1.2-0.5-1.6
			s-0.8-0.6-1.5-0.6c-0.6,0-1.1,0.2-1.6,0.6c-0.4,0.4-0.6,0.9-0.6,1.4c0,0.8,0.2,1.4,0.6,2C14.7,122.4,15.3,122.7,15.9,122.7z"/>
		<path id="XMLID_41_" class="st1" d="M22.6,123.5c0-0.5,0.1-1,0.4-1.2s0.7-0.4,1.3-0.4c0.5,0,1,0.1,1.3,0.4
			c0.3,0.3,0.4,0.7,0.4,1.2c0,0.5-0.1,0.9-0.4,1.2c-0.3,0.3-0.7,0.4-1.3,0.4c-0.5,0-1-0.1-1.3-0.4C22.8,124.4,22.6,124,22.6,123.5z"
			/>
		<path id="XMLID_39_" class="st1" d="M33.2,115.8c1.4,0,2.5,0.4,3.3,1.2c0.8,0.8,1.2,1.8,1.2,3.2c0,1.6-0.5,2.8-1.5,3.7
			c-1,0.9-2.6,1.3-4.4,1.3c-1.6,0-3-0.3-4-0.8v-2.6c1,0.3,1.3,0.5,2,0.7s1.4,0.3,2,0.3c1.8,0,2.8-0.8,2.8-2.3c0-1.4-0.9-2.2-2.8-2.2
			c-0.3,0-0.7,0-1.1,0.1c-0.4,0.1-0.8,0.1-1,0.2l-1.2-0.5L29,111h7.8v2h-5.2l-0.3,2.9l0.3,0C32.1,115.8,32.6,115.8,33.2,115.8z"/>
		<path id="XMLID_37_" class="st1" d="M48.8,113.8c0,0.9-0.2,1.7-0.8,2.3c-0.5,0.6-1.2,1.1-2.2,1.3v0.1c1,0.1,2,0.5,2.6,1
			c0.6,0.6,0.9,1.3,0.9,2.3c0,1.4-0.5,2.4-1.5,3.2s-2.2,1.1-4,1.1c-1.5,0-2.9-0.3-3.9-0.8v-2.6c0,0.3,0.9,0.5,1.6,0.7
			s1.2,0.3,1.9,0.3c1,0,1.7-0.2,2.2-0.5c0.5-0.3,0.7-0.9,0.7-1.6c0-0.7-0.3-1-0.8-1.3s-1.4-0.3-2.6-0.3h-0.8v-3h0.9
			c1.1,0,1.9,0.1,2.4-0.2c0.5-0.3,0.8-0.7,0.8-1.4c0-1.1-0.7-1.6-2-1.6c-0.5,0-0.9,0.1-1.4,0.3c-0.5,0.2-1,0.4-1.6,0.8l-1.4-2.1
			c1.3-0.9,2.9-1.4,4.7-1.4c1.5,0,2.6,0.3,3.5,0.9C48.4,111.9,48.8,112.7,48.8,113.8z"/>
		<path id="XMLID_31_" class="st1" d="M57.4,114.9c0,1.5-0.3,2.6-0.9,3.4c-0.6,0.8-1.4,1.1-2.5,1.1c-1.1,0-1.9-0.4-2.5-1.2
			s-0.9-1.9-0.9-3.3c0-3,1.1-4.5,3.4-4.5c1.1,0,1.9,0.4,2.5,1.2C57.1,112.3,57.4,113.4,57.4,114.9z M53.1,114.9
			c0,0.8,0.1,1.4,0.2,1.9s0.4,0.6,0.7,0.6c0.6,0,0.9-0.8,0.9-2.5c0-1.6-0.3-2.4-0.9-2.4c-0.3,0-0.6,0.2-0.7,0.6
			S53.1,114.1,53.1,114.9z M64.2,111l-7.9,14h-2.3l7.9-14H64.2z M67.4,120.6c0,1.5-0.3,2.6-0.9,3.4c-0.6,0.8-1.4,1.1-2.5,1.1
			c-1.1,0-1.9-0.4-2.5-1.2s-0.9-1.9-0.9-3.3c0-3,1.1-4.5,3.4-4.5c1.1,0,1.9,0.4,2.5,1.2C67.1,118,67.4,119.1,67.4,120.6z
			 M63.1,120.6c0,0.8,0.1,1.4,0.2,1.9s0.4,0.6,0.7,0.6c0.6,0,0.9-0.8,0.9-2.5c0-1.6-0.3-2.4-0.9-2.4c-0.3,0-0.6,0.2-0.7,0.6
			S63.1,119.8,63.1,120.6z"/>
	</g>
</g>
<g id="XMLID_15_">
	<rect id="XMLID_27_" x="8.8" y="1" class="st2" width="54" height="54"/>
	<polygon id="XMLID_26_" class="st2" points="28.8,20.2 41.9,27.8 28.8,35.3 	"/>
	<rect id="XMLID_25_" x="8.8" y="1" class="st2" width="9" height="54"/>
	<rect id="XMLID_24_" x="53.8" y="1" class="st2" width="9" height="54"/>
	<rect id="XMLID_23_" x="8.8" y="10" class="st2" width="9" height="9"/>
	<rect id="XMLID_22_" x="8.8" y="19" class="st2" width="9" height="9"/>
	<rect id="XMLID_21_" x="8.8" y="28" class="st2" width="9" height="9"/>
	<rect id="XMLID_20_" x="8.8" y="37" class="st2" width="9" height="9"/>
	<rect id="XMLID_19_" x="53.8" y="10" class="st2" width="9" height="9"/>
	<rect id="XMLID_18_" x="53.8" y="19" class="st2" width="9" height="9"/>
	<rect id="XMLID_17_" x="53.8" y="28" class="st2" width="9" height="9"/>
	<rect id="XMLID_16_" x="53.8" y="37" class="st2" width="9" height="9"/>
</g>
</svg>