<!-- Generator: Adobe Illustrator 19.0.0, SVG Export Plug-In  -->
<svg version="1.1"
	 xmlns="http://www.w3.org/2000/svg" xmlns:xlink="http://www.w3.org/1999/xlink" xmlns:a="http://ns.adobe.com/AdobeSVGViewerExtensions/3.0/"
	 x="0px" y="0px" width="67.7px" height="123px" viewBox="0 0 67.7 123"
	 style="overflow:scroll;enable-background:new 0 0 67.7 123;" xml:space="preserve">
<style type="text/css">
	.st0{fill:#036A95;}
	.st1{fill:none;stroke:#086A87;stroke-width:2;stroke-linecap:round;stroke-linejoin:round;stroke-miterlimit:10;}
	.st2{fill:#FF6633;}
</style>
<defs>
</defs>
<g id="XMLID_54_">
	<path id="XMLID_65_" class="st0" d="M16.7,84.4h-1.2v-7.9h1.2V84.4z M19.2,84.4H18v-7.9h1.2V84.4z"/>
	<path id="XMLID_63_" class="st0" d="M28.4,73.7v8.8c0,0.4-0.1,0.7-0.3,1c-0.1,0.1-0.2,0.3-0.3,0.4c-0.1,0.1-0.2,0.2-0.4,0.3
		c-0.2,0.1-0.3,0.2-0.5,0.2s-0.4,0.1-0.7,0.1c-0.2,0-0.4,0-0.5-0.1c-0.2-0.1-0.3-0.1-0.4-0.2s-0.2-0.2-0.3-0.4s-0.1-0.3-0.1-0.5
		c0,0.2,0,0.4-0.1,0.5s-0.2,0.3-0.3,0.4s-0.3,0.2-0.4,0.2c-0.2,0.1-0.4,0.1-0.5,0.1c-0.3,0-0.5,0-0.7-0.1s-0.4-0.1-0.5-0.2
		c-0.2-0.1-0.3-0.2-0.4-0.3c-0.1-0.1-0.2-0.2-0.3-0.4c-0.2-0.3-0.3-0.6-0.3-1v-5.9h1.2V82c0,0.3,0,0.6,0.1,0.8
		c0.1,0.2,0.2,0.3,0.3,0.4c0.1,0.1,0.2,0.1,0.3,0.2s0.2,0,0.2,0h0.1c0.2,0,0.4-0.1,0.5-0.2s0.2-0.2,0.3-0.4s0.1-0.3,0.1-0.4
		s0-0.2,0-0.3V82v-5.5h1V82v0.1c0,0.1,0,0.2,0,0.3c0,0.1,0.1,0.3,0.1,0.4s0.2,0.3,0.3,0.4s0.3,0.2,0.5,0.2h0.1c0.1,0,0.1,0,0.2,0
		s0.2-0.1,0.3-0.2c0.1-0.1,0.2-0.2,0.3-0.4s0.1-0.5,0.1-0.8v-8.3H28.4z"/>
	<path id="XMLID_61_" class="st0" d="M34.8,78.1c0.3,0.1,0.5,0.2,0.6,0.3s0.2,0.4,0.2,0.6v2.8c0,0.4-0.1,0.8-0.2,1.1
		s-0.3,0.6-0.5,0.8c-0.2,0.2-0.4,0.4-0.6,0.5s-0.4,0.2-0.7,0.2c-0.2,0.1-0.4,0.1-0.5,0.1c-0.2,0-0.3,0-0.3,0c-0.5,0-0.8-0.1-1.2-0.2
		c-0.3-0.1-0.6-0.3-0.8-0.5c-0.2-0.2-0.4-0.4-0.5-0.6c-0.1-0.2-0.2-0.4-0.3-0.6c-0.1-0.2-0.1-0.4-0.1-0.5c0-0.2,0-0.3,0-0.3
		c0-0.3,0-0.5,0.1-0.7c0.1-0.2,0.2-0.4,0.3-0.6c0.1-0.2,0.2-0.3,0.4-0.5s0.3-0.3,0.4-0.4s0.2-0.2,0.3-0.4c0.1-0.1,0.1-0.2,0.1-0.4
		c0,0,0-0.1,0-0.1s0-0.1,0-0.1c0-0.2,0-0.3-0.1-0.5c-0.1-0.1-0.1-0.2-0.2-0.3s-0.2-0.1-0.3-0.2c-0.1,0-0.2-0.1-0.3-0.1s-0.2,0-0.3,0
		c-0.1,0-0.2,0-0.2,0h-0.1v-1.1h0.7c0.3,0,0.6,0,0.8,0.1s0.4,0.2,0.6,0.3s0.3,0.3,0.4,0.5c0.1,0.2,0.2,0.3,0.2,0.5
		c0,0.2,0.1,0.3,0.1,0.5c0,0.1,0,0.3,0,0.3c0,0,0,0,0,0.1c0,0,0,0,0,0v0c0,0.1-0.1,0.3-0.1,0.4c-0.1,0.1-0.1,0.3-0.2,0.4
		c-0.1,0.1-0.2,0.3-0.3,0.4c-0.2,0.3-0.4,0.5-0.5,0.7c-0.1,0.2-0.2,0.4-0.3,0.5c-0.1,0.1-0.1,0.3-0.1,0.3c0,0.1,0,0.1,0,0.2
		c0,0.3,0,0.5,0.1,0.7c0.1,0.2,0.2,0.3,0.3,0.5s0.2,0.2,0.4,0.3c0.1,0.1,0.2,0.1,0.4,0.1s0.2,0,0.3,0.1s0.1,0,0.2,0
		c0.2,0,0.4,0,0.6-0.1s0.3-0.2,0.4-0.3c0.1-0.1,0.2-0.2,0.3-0.4s0.1-0.3,0.2-0.4c0-0.1,0.1-0.2,0.1-0.3c0-0.1,0-0.2,0-0.2v-2.5
		c0-0.5-0.3-0.7-1-0.7h-0.4v-0.9h0.4c0.3,0,0.6-0.1,0.8-0.2c0.2-0.2,0.3-0.4,0.3-0.7v-0.2h1.2V77C35.7,77.6,35.4,77.9,34.8,78.1z"/>
	<path id="XMLID_59_" class="st0" d="M33.8,73.9v0.6h2.9v1.1h-3.5c-0.1,0-0.2,0-0.3-0.1c-0.1-0.1-0.1-0.1-0.2-0.2
		c0-0.1-0.1-0.2-0.1-0.3v-1.2H33.8z"/>
	<path id="XMLID_57_" class="st0" d="M35.9,70.3v2.2h-1.1v-2.2H35.9z"/>
	<path id="XMLID_55_" class="st0" d="M39.7,76.5v4.9c0,0.3,0,0.6,0.1,0.8c0.1,0.2,0.2,0.4,0.3,0.6s0.3,0.3,0.4,0.3
		c0.2,0.1,0.3,0.1,0.4,0.2c0.1,0,0.3,0.1,0.4,0.1c0.1,0,0.2,0,0.2,0c0.3,0,0.6,0,0.8-0.1c0.2-0.1,0.4-0.2,0.5-0.3
		c0.1-0.1,0.2-0.3,0.3-0.5s0.1-0.3,0.2-0.5s0.1-0.3,0.1-0.4s0-0.2,0-0.2v-4.9h1.2v7.9h-1.2v-1.1c0,0.1,0,0.3-0.1,0.4
		c-0.1,0.1-0.1,0.2-0.2,0.3s-0.2,0.2-0.3,0.2s-0.2,0.1-0.3,0.1c-0.3,0.1-0.6,0.2-0.9,0.2h-0.3c-0.4,0-0.8-0.1-1.1-0.2
		c-0.3-0.1-0.6-0.3-0.8-0.5s-0.4-0.4-0.5-0.6s-0.2-0.5-0.3-0.7s-0.1-0.4-0.1-0.6s0-0.3,0-0.4v-0.1v-4.9H39.7z"/>
</g>
<path id="XMLID_53_" class="st1" d="M46.9,58l-9.6-34.5c0,0,6.1-3.5,3.7-11.5h-2.7l-2-11H33v5.7c0,2.3-2.2,4.2-4.5,4.2S24,9,24,6.7
	V1h-3.3l-2,11h-2.3c0,0-0.9,9.5,3.7,11.5L10.3,58H46.9z"/>
<g id="XMLID_15_">
	<g id="XMLID_17_">
		<path id="XMLID_34_" class="st2" d="M7,123H4v-8.6l0-1.4l0.1-1.5c-0.5,0.5-0.8,0.8-1,1l-1.6,1.3l-1.5-2l4.6-3.8H7V123z"/>
		<path id="XMLID_32_" class="st2" d="M16.3,113.5c1.4,0,2.5,0.4,3.3,1.2c0.8,0.8,1.2,1.8,1.2,3.2c0,1.6-0.5,2.8-1.5,3.7
			c-1,0.9-2.5,1.3-4.3,1.3c-1.6,0-2.9-0.3-3.9-0.8v-2.6c1,0.3,1.2,0.5,1.9,0.7s1.4,0.3,2,0.3c1.8,0,2.8-0.8,2.8-2.3
			c0-1.4-0.9-2.2-2.8-2.2c-0.3,0-0.7,0-1.1,0.1c-0.4,0.1-0.8,0.1-1,0.2l-1.2-0.8l0.5-7.4h8v3h-5.3l-0.3,2.8l0.3-0.1
			C15.2,113.6,15.7,113.5,16.3,113.5z"/>
		<path id="XMLID_29_" class="st2" d="M22.8,121.2c0-0.5,0.1-1,0.4-1.2s0.7-0.4,1.3-0.4c0.5,0,1,0.1,1.3,0.4
			c0.3,0.3,0.4,0.7,0.4,1.2c0,0.5-0.1,0.9-0.4,1.2c-0.3,0.3-0.7,0.4-1.3,0.4c-0.5,0-1-0.1-1.3-0.4C23,122.2,22.8,121.7,22.8,121.2z"
			/>
		<path id="XMLID_26_" class="st2" d="M38.1,115.5c0,2.5-0.4,4.3-1.2,5.5c-0.8,1.2-2.1,1.8-3.8,1.8c-1.6,0-2.9-0.6-3.7-1.9
			c-0.8-1.2-1.3-3.1-1.3-5.5c0-2.5,0.4-4.4,1.2-5.6c0.8-1.2,2.1-1.8,3.8-1.8c1.6,0,2.9,0.6,3.7,1.9
			C37.7,111.2,38.1,113.1,38.1,115.5z M31.1,115.5c0,1.8,0.2,3,0.5,3.8s0.8,1.1,1.5,1.1c0.7,0,1.2-0.4,1.5-1.2s0.5-2,0.5-3.8
			c0-1.8-0.2-3-0.5-3.8c-0.3-0.8-0.8-1.1-1.5-1.1c-0.7,0-1.2,0.4-1.5,1.1C31.3,112.5,31.1,113.7,31.1,115.5z"/>
		<path id="XMLID_24_" class="st2" d="M41,123l5.4-12H39v-3h11v2.2L44.2,123H41z"/>
		<path id="XMLID_18_" class="st2" d="M57.7,112.6c0,1.5-0.3,2.6-0.9,3.4c-0.6,0.8-1.4,1.1-2.5,1.1c-1.1,0-1.9-0.4-2.5-1.2
			s-0.9-1.9-0.9-3.3c0-3,1.1-4.5,3.4-4.5c1.1,0,1.9,0.4,2.5,1.2C57.4,110.1,57.7,111.2,57.7,112.6z M53.3,112.6
			c0,0.8,0.1,1.4,0.2,1.9s0.4,0.6,0.7,0.6c0.6,0,0.9-0.8,0.9-2.5c0-1.6-0.3-2.4-0.9-2.4c-0.3,0-0.6,0.2-0.7,0.6
			S53.3,111.8,53.3,112.6z M64.4,108l-7.9,15h-2.3l7.9-15H64.4z M67.7,118.3c0,1.5-0.3,2.6-0.9,3.4c-0.6,0.8-1.4,1.1-2.5,1.1
			c-1.1,0-1.9-0.4-2.5-1.2s-0.9-1.9-0.9-3.3c0-3,1.1-4.5,3.4-4.5c1.1,0,1.9,0.4,2.5,1.2C67.4,115.8,67.7,116.9,67.7,118.3z
			 M63.3,118.3c0,0.8,0.1,1.4,0.2,1.9s0.4,0.6,0.7,0.6c0.6,0,0.9-0.8,0.9-2.5c0-1.6-0.3-2.4-0.9-2.4c-0.3,0-0.6,0.2-0.7,0.6
			S63.3,117.5,63.3,118.3z"/>
	</g>
</g>
</svg>