<!-- Generator: Adobe Illustrator 19.0.0, SVG Export Plug-In  -->
<svg version="1.1"
	 xmlns="http://www.w3.org/2000/svg" xmlns:xlink="http://www.w3.org/1999/xlink" xmlns:a="http://ns.adobe.com/AdobeSVGViewerExtensions/3.0/"
	 x="0px" y="0px" width="67.7px" height="123.2px" viewBox="0 0 67.7 123.2" style="enable-background:new 0 0 67.7 123.2;"
	 xml:space="preserve">
<style type="text/css">
	.st0{fill:#086A87;stroke:#086A87;stroke-width:0.6;stroke-miterlimit:10;}
	.st1{fill:#FF6633;}
	.st2{fill:none;stroke:#086A87;stroke-width:2;stroke-linecap:round;stroke-linejoin:round;stroke-miterlimit:10;}
</style>
<defs>
</defs>
<g id="XMLID_57_">
	<g id="XMLID_59_">
		<path id="XMLID_68_" class="st0" d="M29,88.6h-1.3l-3-4.1l-0.9,0.8v3.3h-1.1v-8.6h1.1v4.2l0.7-0.8l3.1-3.4h1.3l-3.4,3.7L29,88.6z"
			/>
		<path id="XMLID_66_" class="st0" d="M34.4,88.6v-4.1c0-0.5-0.1-0.9-0.3-1.2S33.4,83,33,83c-0.7,0-1.1,0.2-1.4,0.5s-0.5,1-0.5,1.8
			v3.3H30v-9.1h1.1v2.7c0,0.4,0,0.7-0.1,0.9h0.1c0.2-0.3,0.5-0.6,0.8-0.7s0.7-0.3,1.2-0.3c0.8,0,1.4,0.2,1.8,0.6s0.6,1,0.6,1.8v4.2
			H34.4z"/>
		<path id="XMLID_62_" class="st0" d="M41.4,88.6l-0.2-0.9h0c-0.3,0.4-0.6,0.7-1,0.8s-0.7,0.2-1.2,0.2c-0.6,0-1.1-0.2-1.5-0.5
			S37,87.5,37,86.8c0-1.3,1-2,3.1-2.1l1.1,0v-0.4c0-0.5-0.1-0.8-0.3-1.1s-0.5-0.3-1-0.3c-0.3,0-0.7,0.1-1,0.2s-0.6,0.2-0.9,0.3
			l-0.3-0.8c0.3-0.2,0.7-0.3,1.1-0.4s0.8-0.1,1.1-0.1c0.8,0,1.4,0.2,1.7,0.5s0.6,0.9,0.6,1.6v4.4H41.4z M39.2,87.9
			c0.6,0,1.1-0.2,1.4-0.5s0.5-0.8,0.5-1.4v-0.6l-0.9,0c-0.7,0-1.3,0.1-1.6,0.4s-0.5,0.5-0.5,1c0,0.3,0.1,0.6,0.3,0.8
			S38.9,87.9,39.2,87.9z M39,81.2c0.1-0.2,0.3-0.5,0.6-0.8s0.4-0.7,0.6-1h1.3v0.1c-0.2,0.3-0.4,0.6-0.8,0.9s-0.7,0.7-0.9,0.9H39
			V81.2z"/>
		<path id="XMLID_60_" class="st0" d="M46.7,88.7c-0.9,0-1.6-0.3-2.2-0.9s-0.8-1.4-0.8-2.4c0-1.1,0.3-1.9,0.8-2.5s1.3-0.9,2.2-0.9
			c0.3,0,0.6,0,0.9,0.1s0.6,0.1,0.8,0.2l-0.3,0.9c-0.5-0.2-1-0.3-1.4-0.3c-0.6,0-1.1,0.2-1.4,0.6s-0.5,1-0.5,1.8
			c0,0.8,0.2,1.4,0.5,1.8s0.8,0.6,1.4,0.6c0.6,0,1.1-0.1,1.7-0.4v0.9C48,88.6,47.4,88.7,46.7,88.7z"/>
	</g>
</g>
<g id="XMLID_20_">
	<g id="XMLID_22_">
		<path id="XMLID_38_" class="st1" d="M6.6,123h-3v-8.4l0.3-1.4l0.2-1.5c-0.5,0.5-0.8,0.8-1,1l-1.6,1.3L0,112.5l4.6-3.5h2V123z"/>
		<path id="XMLID_36_" class="st1" d="M20.6,123h-10v-2.2l3.8-3.6c1.1-1.1,1.9-1.8,2.2-2.3c0.3-0.4,0.6-0.8,0.8-1.2
			c0.1-0.4,0.2-0.7,0.2-1.1c0-0.6-0.1-1-0.5-1.3c-0.3-0.3-0.7-0.4-1.3-0.4c-0.6,0-1.1,0.1-1.6,0.4c-0.5,0.3-1.1,0.6-1.6,1.1
			l-1.6-1.9c0.7-0.6,1.3-1,1.7-1.3c0.5-0.2,1-0.4,1.5-0.6s1.2-0.2,1.8-0.2c0.9,0,1.7,0.2,2.4,0.5s1.2,0.8,1.6,1.4
			c0.4,0.6,0.6,1.3,0.6,2c0,0.7-0.1,1.3-0.3,1.9c-0.2,0.6-0.6,1.2-1.1,1.8c-0.5,0.6-1.4,1.5-2.7,2.6l-1.9,1.7V120h6V123z"/>
		<path id="XMLID_34_" class="st1" d="M22.8,121.5c0-0.5,0.1-1,0.4-1.2s0.7-0.4,1.3-0.4c0.5,0,1,0.1,1.3,0.4
			c0.3,0.3,0.4,0.7,0.4,1.2c0,0.5-0.1,0.9-0.4,1.2c-0.3,0.3-0.7,0.4-1.3,0.4c-0.5,0-1-0.1-1.3-0.4C23,122.4,22.8,122,22.8,121.5z"/>
		<path id="XMLID_32_" class="st1" d="M35.6,123h-3v-8.4l0-1.4l0.1-1.5c-0.5,0.5-0.8,0.8-1,1l-1.6,1.3l-1.5-1.6l4.6-3.5h2.4V123z"/>
		<path id="XMLID_29_" class="st1" d="M39.5,116.8c0-2.8,0.6-4.9,1.8-6.3c1.2-1.4,3-2.1,5.4-2.1c0.8,0,1.9,0,1.9,0.1v2.4
			c-1-0.1-1.2-0.2-1.7-0.2c-1,0-1.9,0.2-2.5,0.5s-1.1,0.6-1.5,1.2c-0.3,0.6-0.5,1.5-0.6,2.5h0.1c0.6-1,1.7-1.5,3.1-1.5
			c1.3,0,2.3,0.5,3,1.3s1.1,1.9,1.1,3.4c0,1.5-0.4,2.7-1.3,3.6s-2.1,1.3-3.6,1.3c-1.1,0-2-0.2-2.8-0.7c-0.8-0.5-1.4-1.2-1.8-2.1
			C39.8,119.3,39.5,118.1,39.5,116.8z M44.7,120.7c0.6,0,1.1-0.2,1.5-0.6c0.3-0.4,0.5-1,0.5-1.9c0-0.7-0.2-1.2-0.5-1.6
			s-0.8-0.6-1.5-0.6c-0.6,0-1.1,0.2-1.6,0.6c-0.4,0.4-0.6,0.9-0.6,1.4c0,0.8,0.2,1.4,0.6,2C43.6,120.4,44.1,120.7,44.7,120.7z"/>
		<path id="XMLID_23_" class="st1" d="M57.7,112.9c0,1.5-0.3,2.6-0.9,3.4c-0.6,0.8-1.4,1.1-2.5,1.1c-1.1,0-1.9-0.4-2.5-1.2
			s-0.9-1.9-0.9-3.3c0-3,1.1-4.5,3.4-4.5c1.1,0,1.9,0.4,2.5,1.2C57.4,110.3,57.7,111.4,57.7,112.9z M53.4,112.9
			c0,0.8,0.1,1.4,0.2,1.9s0.4,0.6,0.7,0.6c0.6,0,0.9-0.8,0.9-2.5c0-1.6-0.3-2.4-0.9-2.4c-0.3,0-0.6,0.2-0.7,0.6
			S53.4,112.1,53.4,112.9z M64.4,109l-7.9,14h-2.3l7.9-14H64.4z M67.7,118.6c0,1.5-0.3,2.6-0.9,3.4c-0.6,0.8-1.4,1.1-2.5,1.1
			c-1.1,0-1.9-0.4-2.5-1.2s-0.9-1.9-0.9-3.3c0-3,1.1-4.5,3.4-4.5c1.1,0,1.9,0.4,2.5,1.2C67.4,116,67.7,117.1,67.7,118.6z
			 M63.4,118.6c0,0.8,0.1,1.4,0.2,1.9s0.4,0.6,0.7,0.6c0.6,0,0.9-0.8,0.9-2.5c0-1.6-0.3-2.4-0.9-2.4c-0.3,0-0.6,0.2-0.7,0.6
			S63.4,117.8,63.4,118.6z"/>
	</g>
</g>
<g id="XMLID_15_">
	<path id="XMLID_19_" class="st2" d="M31.7,18.9l0-4.8l-4,0c-0.1-0.4-0.2-0.8-0.3-1.2l3.5-2l-2.4-4.1l-3.5,2
		c-0.3-0.3-0.6-0.6-0.9-0.9l2-3.5L22.1,2l-1.7,3.5c-0.4-0.1-0.8-0.2-0.8-0.3V1h-5v4.1c-1,0.1-0.8,0.1-1.1,0.2l-2-3.5L7.3,4.1
		l1.9,3.5C8.8,7.9,8.5,8.1,8.2,8.4L4.8,6.3l-2.5,4.1l3.4,2.1c-0.1,0.4-0.3,0.8-0.4,1.2l-4-0.1l-0.1,4.8l4,0.1
		c0.1,0.4,0.2,0.8,0.3,1.2L2,21.6l2.3,4.2l3.5-1.9c0.3,0.3,0.6,0.6,0.9,0.9l-2,3.4l4.1,2.5l2-3.4c0.4,0.1,0.8,0.3,1.2,0.3l-0.1,4
		l4.8,0.1l0.1-4c0.4-0.1,0.8-0.2,1.2-0.3l1.9,3.5l4.2-2.3L24,25.1c0.3-0.3,0.6-0.6,0.9-0.9l3.4,2l2.4-4.1l-3.4-2
		c0.1-0.4,0.2-0.8,0.3-1.2L31.7,18.9z"/>
	<path id="XMLID_18_" class="st2" d="M61.3,43.6l0-4.8l-4,0c-0.1-0.4-0.2-0.8-0.3-1.2l3.5-2l-2.4-4.1l-3.5,2
		c-0.3-0.3-0.6-0.6-0.9-0.9l2-3.5l-4.1-2.4l-2,3.5c-0.4-0.1-1.2-0.2-1.2-0.3V26h-5v3.8c-1,0.1-0.5,0.1-0.8,0.2L41,26.5l-4.2,2.3
		l1.9,3.5c-0.3,0.3-0.6,0.6-0.9,0.9L34.4,31l-2.5,4.1l3.4,2.1c-0.1,0.4-0.3,0.8-0.4,1.2l-4-0.1L30.8,43l4,0.1
		c0.1,0.4,0.2,0.8,0.3,1.2l-3.5,1.9l2.3,4.2l3.5-1.9c0.3,0.3,0.6,0.6,0.9,0.9l-2,3.4l4.1,2.5l2-3.4c0.4,0.1,0.8,0.3,1.2,0.3l-0.1,4
		l4.8,0.1l0.1-4c0.4-0.1,0.8-0.2,1.2-0.3l1.9,3.5l4.2-2.3l-1.9-3.5c0.3-0.3,0.6-0.6,0.9-0.9l3.4,2l2.4-4.1l-3.4-2
		c0.1-0.4,0.2-0.8,0.3-1.2L61.3,43.6z"/>
	<circle id="XMLID_17_" class="st2" cx="16" cy="16.7" r="5.3"/>
	<circle id="XMLID_16_" class="st2" cx="46" cy="40.7" r="5.3"/>
</g>
</svg>