<!-- Generator: Adobe Illustrator 19.0.0, SVG Export Plug-In  -->
<svg version="1.1"
	 xmlns="http://www.w3.org/2000/svg" xmlns:xlink="http://www.w3.org/1999/xlink" xmlns:a="http://ns.adobe.com/AdobeSVGViewerExtensions/3.0/"
	 x="0px" y="0px" width="476.7px" height="115px" viewBox="0 0 476.7 115"
	 style="overflow:scroll;enable-background:new 0 0 476.7 115;" xml:space="preserve">
<style type="text/css">
	.st0{fill:none;stroke:#33CCCC;stroke-width:5;stroke-linecap:round;stroke-linejoin:round;stroke-miterlimit:10;}
	.st1{fill:#33CCCC;stroke:#33CCCC;stroke-width:5;stroke-linecap:round;stroke-linejoin:round;stroke-miterlimit:10;}
	.st2{fill:#33CBCC;}
</style>
<defs>
</defs>
<rect id="XMLID_142_" x="75.2" y="2.5" class="st0" width="324" height="91"/>
<polyline id="XMLID_141_" class="st0" points="93.2,93 93.2,112.5 2.5,112.5 31.3,83.6 7.7,48.5 75.7,48.5 "/>
<polygon id="XMLID_140_" class="st1" points="76.7,94.8 92.2,110.2 92.2,95 "/>
<polyline id="XMLID_139_" class="st0" points="383.2,93 383.2,112.5 474.2,112.5 445.4,83.6 469,48.5 400.7,48.5 "/>
<polygon id="XMLID_138_" class="st1" points="399.7,94.8 384.2,110.2 384.2,95 "/>
<g id="XMLID_15_">
	<g id="XMLID_17_">
		<path id="XMLID_76_" class="st2" d="M90.9,43.8c0.5,0.1,0.9,0.4,1.2,0.7s0.4,0.7,0.5,1.2v5.5c0,0.9-0.1,1.6-0.4,2.2
			s-0.6,1.1-1,1.5s-0.8,0.7-1.3,0.9s-0.9,0.4-1.3,0.5s-0.8,0.2-1.1,0.2s-0.5,0-0.6,0c-0.9,0-1.7-0.1-2.3-0.4s-1.2-0.6-1.6-0.9
			s-0.7-0.8-1-1.2s-0.4-0.9-0.5-1.3s-0.2-0.8-0.2-1.1s0-0.5,0-0.6c0-0.5,0.1-1,0.2-1.4s0.3-0.8,0.6-1.1s0.5-0.6,0.7-0.9
			s0.5-0.5,0.7-0.8s0.4-0.5,0.6-0.7s0.3-0.5,0.3-0.7c0-0.1,0-0.1,0-0.2s0-0.1,0-0.2c0-0.4-0.1-0.7-0.2-0.9s-0.3-0.5-0.5-0.6
			s-0.4-0.3-0.6-0.4S82.8,43,82.6,43s-0.4-0.1-0.6-0.1s-0.3,0-0.4,0h-0.2v-2.2h1.4c0.6,0,1.2,0.1,1.6,0.3s0.8,0.4,1.1,0.7
			s0.5,0.6,0.7,0.9s0.3,0.7,0.4,1s0.2,0.6,0.2,0.9s0,0.5,0,0.7c0,0,0,0.1,0,0.1s0,0.1,0,0.1v0.1c0,0.3-0.1,0.6-0.2,0.8
			s-0.2,0.5-0.4,0.7c-0.2,0.3-0.3,0.5-0.5,0.7c-0.4,0.5-0.8,1-1,1.4s-0.4,0.7-0.6,1s-0.2,0.5-0.2,0.7s0,0.3,0,0.3
			c0,0.5,0.1,1,0.2,1.4s0.3,0.7,0.5,0.9s0.4,0.4,0.7,0.5s0.5,0.2,0.7,0.3s0.4,0.1,0.6,0.1s0.3,0,0.4,0c0.5,0,0.9-0.1,1.2-0.2
			s0.6-0.3,0.9-0.5s0.4-0.5,0.6-0.7s0.3-0.5,0.3-0.7s0.1-0.4,0.2-0.6s0-0.3,0-0.4v-5c0-1-0.7-1.5-2.1-1.5h-0.8v-1.8h0.8
			c0.7,0,1.2-0.2,1.6-0.5s0.5-0.8,0.5-1.3v-0.4h2.3v0.9C92.6,42.8,92,43.5,90.9,43.8z"/>
		<path id="XMLID_74_" class="st2" d="M91.8,34.3v4.5h-2.2v-4.5H91.8z"/>
		<path id="XMLID_72_" class="st2" d="M102.1,40.6c0.1,0,0.3,0,0.6,0c0.3,0,0.6,0.1,1,0.2s0.8,0.3,1.2,0.5c0.4,0.2,0.8,0.6,1.1,1
			c0.3,0.4,0.6,0.9,0.8,1.5c0.2,0.6,0.3,1.3,0.3,2.2v5.2c0,1-0.3,1.9-0.7,2.7c-0.2,0.3-0.4,0.7-0.6,1c-0.3,0.3-0.6,0.6-0.9,0.9
			c-0.4,0.2-0.8,0.4-1.3,0.6c-0.5,0.2-1.1,0.2-1.7,0.2c-0.7,0-1.3-0.1-1.8-0.2c-0.5-0.2-0.9-0.4-1.3-0.6c-0.4-0.3-0.7-0.6-0.9-0.9
			c-0.3-0.3-0.5-0.7-0.6-1c0.1-0.1,0.2-0.1,0.4-0.2s0.4-0.2,0.6-0.3c0.2-0.1,0.4-0.2,0.6-0.3c0.2-0.1,0.3-0.2,0.4-0.2
			c0.2,0.4,0.4,0.8,0.7,1c0.3,0.2,0.6,0.4,0.9,0.5c0.4,0.1,0.7,0.2,1.1,0.2c0.5-0.1,1-0.2,1.5-0.5c0.2-0.1,0.4-0.2,0.5-0.4
			s0.3-0.3,0.5-0.6c0.1-0.2,0.2-0.5,0.3-0.7c0.1-0.3,0.1-0.6,0.1-1V46c0-0.6-0.2-1.1-0.4-1.6c-0.1-0.2-0.2-0.4-0.4-0.6
			c-0.1-0.2-0.3-0.4-0.5-0.5c-0.2-0.1-0.4-0.3-0.7-0.4c-0.3-0.1-0.6-0.1-1-0.1c-0.5,0-0.9,0-1.3,0.1s-0.7,0.2-0.9,0.4
			s-0.5,0.4-0.7,0.8c-0.2,0.3-0.4,0.7-0.5,1.1h-2.4c0.1-0.7,0.2-1.4,0.5-2c0.3-0.6,0.6-1.1,1.1-1.5c0.5-0.4,1.1-0.7,1.8-1
			c0.7-0.2,1.5-0.4,2.5-0.4H102.1L102.1,40.6z"/>
		<path id="XMLID_70_" class="st2" d="M113,40.7h4.6V52c0,0.8-0.1,1.4-0.3,1.9s-0.4,1-0.7,1.3c-0.3,0.3-0.6,0.6-1,0.8
			c-0.3,0.2-0.7,0.3-1,0.4c-0.3,0.1-0.6,0.1-0.8,0.2c-0.2,0-0.4,0-0.4,0c-0.7,0-1.3-0.1-1.7-0.3c-0.5-0.2-0.9-0.4-1.2-0.6
			c-0.4-0.3-0.7-0.5-1-0.8l1.6-1.5c0,0,0.1,0.1,0.2,0.2c0.1,0.1,0.3,0.2,0.4,0.3c0.2,0.1,0.4,0.2,0.7,0.3c0.3,0.1,0.6,0.1,0.9,0.1
			c0.2,0,0.4,0,0.6-0.1c0.2-0.1,0.3-0.2,0.5-0.3s0.2-0.2,0.3-0.4s0.2-0.3,0.2-0.4c0.1-0.4,0.2-0.8,0.2-1.2v-9.1H113V40.7z"/>
		<path id="XMLID_68_" class="st2" d="M123.6,56.4h-2.4V40.7h2.4V56.4z"/>
		<path id="XMLID_66_" class="st2" d="M132.2,40.6c0.1,0,0.3,0,0.6,0s0.6,0.1,1,0.2s0.8,0.3,1.2,0.5s0.8,0.6,1.1,1s0.6,0.9,0.8,1.5
			s0.3,1.3,0.3,2.2v5.2c0,1-0.3,1.9-0.7,2.7c-0.2,0.3-0.4,0.7-0.6,1s-0.6,0.6-0.9,0.9s-0.8,0.4-1.3,0.6s-1.1,0.2-1.7,0.2
			c-0.7,0-1.3-0.1-1.8-0.2s-0.9-0.4-1.3-0.6s-0.7-0.6-0.9-0.9s-0.5-0.7-0.6-1c0.1-0.1,0.2-0.1,0.4-0.2s0.4-0.2,0.6-0.3
			s0.4-0.2,0.6-0.3s0.3-0.2,0.4-0.2c0.2,0.4,0.4,0.8,0.7,1s0.6,0.4,0.9,0.5c0.4,0.1,0.7,0.2,1.1,0.2c0.5-0.1,1-0.2,1.5-0.5
			c0.2-0.1,0.4-0.2,0.5-0.4s0.3-0.3,0.5-0.6s0.2-0.5,0.3-0.7s0.1-0.6,0.1-1V46c0-0.6-0.2-1.1-0.4-1.6c-0.1-0.2-0.2-0.4-0.4-0.6
			s-0.3-0.4-0.5-0.5s-0.4-0.3-0.7-0.4s-0.6-0.1-1-0.1c-0.5,0-0.9,0-1.3,0.1s-0.7,0.2-0.9,0.4s-0.5,0.4-0.7,0.8s-0.4,0.7-0.5,1.1
			h-2.4c0.1-0.7,0.2-1.4,0.5-2s0.6-1.1,1.1-1.5s1.1-0.7,1.8-1s1.5-0.4,2.5-0.4H132.2L132.2,40.6z"/>
		<path id="XMLID_64_" class="st2" d="M149,41c0.7,0.3,1.3,0.6,1.7,1s0.8,0.8,1.1,1.3s0.5,0.9,0.6,1.4s0.2,0.9,0.2,1.2s0,0.6,0,0.8
			v0.1v9.6h-2.3v-4.6c0-0.4-0.1-0.8-0.3-1.1s-0.5-0.6-0.8-0.8s-0.6-0.4-1-0.5s-0.7-0.2-1-0.2s-0.7-0.1-1.1-0.1c0,0-0.1,0-0.3,0
			s-0.4,0-0.6,0.1s-0.5,0.1-0.8,0.2s-0.5,0.3-0.8,0.4s-0.5,0.4-0.7,0.7s-0.3,0.7-0.4,1.1c0,0.1,0,0.3,0,0.4c0,0.3,0.1,0.6,0.2,0.8
			s0.4,0.4,0.6,0.6s0.5,0.3,0.9,0.4s0.6,0.2,0.9,0.2s0.6,0.1,0.8,0.1s0.5,0,0.6,0h0.2v2.2h-2.6c-0.5,0-1.1-0.1-1.5-0.4
			s-0.9-0.6-1.3-1s-0.6-0.9-0.8-1.4s-0.3-1.1-0.3-1.7c0-0.6,0.1-1.2,0.4-1.8s0.7-1.2,1.3-1.7c0.4-0.3,0.7-0.6,1.1-0.8
			s0.8-0.4,1.1-0.5s0.8-0.2,1.1-0.3s0.7-0.1,1.1-0.1c0.5,0,1,0.1,1.5,0.2s0.9,0.2,1.2,0.3c0.4,0.1,0.8,0.3,1.1,0.5v-0.9
			c0-0.5-0.1-0.9-0.2-1.3s-0.3-0.7-0.4-1s-0.4-0.5-0.6-0.7s-0.5-0.3-0.7-0.5c-0.6-0.3-1.2-0.4-1.9-0.5c-0.6,0-1.2,0.1-1.6,0.3
			s-0.8,0.5-1.1,0.8s-0.5,0.7-0.7,1s-0.3,0.7-0.3,0.9h-2.5c0.1-0.9,0.2-1.6,0.5-2.2s0.6-1.1,1-1.5s0.8-0.7,1.3-1s0.9-0.4,1.3-0.5
			s0.8-0.2,1.1-0.2s0.6,0,0.7,0h0.1C147.5,40.6,148.3,40.7,149,41z"/>
		<path id="XMLID_62_" class="st2" d="M158.4,40.6c0.1,0,0.2,0,0.4,0c0.2,0,0.5,0.1,0.8,0.1c0.3,0.1,0.6,0.2,1,0.4
			c0.3,0.2,0.7,0.4,0.9,0.8c0.3,0.3,0.5,0.8,0.7,1.3s0.3,1.2,0.3,1.9v11.2h-2.3V45.2c0-0.4-0.1-0.8-0.2-1.1
			c-0.1-0.1-0.1-0.3-0.2-0.4s-0.2-0.3-0.3-0.4c-0.1-0.1-0.3-0.2-0.4-0.3c-0.2-0.1-0.4-0.1-0.6-0.1c-0.4,0-0.7,0-1,0.1
			c-0.3,0.1-0.5,0.2-0.7,0.3s-0.3,0.2-0.4,0.3s-0.2,0.2-0.2,0.2l-1.6-1.7c0.3-0.3,0.6-0.6,1-0.8c0.3-0.2,0.7-0.4,1.2-0.6
			S157.7,40.6,158.4,40.6z"/>
		<path id="XMLID_60_" class="st2" d="M176.5,56.4v-9.8c0-0.6-0.1-1.1-0.3-1.6c-0.2-0.4-0.4-0.8-0.6-1c-0.3-0.3-0.5-0.5-0.9-0.6
			c-0.3-0.2-0.6-0.3-0.9-0.3c-0.3-0.1-0.5-0.1-0.7-0.1c-0.2,0-0.3,0-0.4,0c-0.6,0-1.1,0.1-1.5,0.3c-0.4,0.2-0.8,0.4-1,0.7
			c-0.3,0.3-0.5,0.5-0.6,0.9c-0.2,0.3-0.3,0.6-0.3,0.9s-0.1,0.5-0.1,0.7s0,0.3,0,0.4v9.8h-2.3V40.7h2.3v2.2c0-0.3,0.1-0.5,0.2-0.8
			s0.3-0.4,0.4-0.6s0.4-0.3,0.6-0.4c0.2-0.1,0.4-0.2,0.7-0.3c0.5-0.2,1.1-0.3,1.8-0.3h0.5c0.9,0,1.6,0.1,2.3,0.4
			c0.6,0.2,1.1,0.5,1.5,0.9s0.7,0.8,1,1.3c0.2,0.5,0.4,0.9,0.5,1.3s0.2,0.8,0.2,1.2s0,0.6,0,0.8v0.2v9.8H176.5z"/>
		<path id="XMLID_58_" class="st2" d="M178,35.2v3.6h-8.8v-2.2h6.6v-1.4H178z"/>
		<path id="XMLID_56_" class="st2" d="M179.3,28.3v4.5h-2.2v-4.5H179.3z"/>
		<path id="XMLID_54_" class="st2" d="M186.9,56.4h-2.4V40.7h2.4V56.4z"/>
		<path id="XMLID_52_" class="st2" d="M190.9,40.6h2.3v4h5.2c0.3,0,0.5-0.1,0.8-0.3c0.2-0.1,0.4-0.3,0.6-0.6s0.4-0.6,0.5-1.1v-2.1
			h2.3v2.3c0,0.1,0,0.3-0.1,0.6s-0.1,0.5-0.3,0.8s-0.3,0.5-0.4,0.8c-0.2,0.3-0.4,0.5-0.6,0.7c0.3,0.3,0.6,0.6,0.8,1
			c0.2,0.3,0.4,0.7,0.6,1.2c0.2,0.5,0.3,1,0.3,1.6v6.8h-2.3v-6.8c0-0.3-0.1-0.5-0.1-0.7c-0.1-0.2-0.1-0.4-0.2-0.7
			c-0.1-0.2-0.2-0.5-0.4-0.7c-0.2-0.2-0.3-0.4-0.6-0.5c-0.2-0.1-0.5-0.2-0.8-0.2h-5.2v9.5h-2.3V40.6z"/>
		<path id="XMLID_50_" class="st2" d="M218.9,40.7v9.8v0.2c0,0.2,0,0.4,0,0.8s-0.1,0.8-0.2,1.2c-0.1,0.4-0.3,0.9-0.5,1.4
			s-0.6,0.9-1,1.3c-0.4,0.4-0.9,0.7-1.6,0.9c-0.6,0.2-1.4,0.4-2.3,0.4h-0.5c-0.7,0-1.3-0.2-1.8-0.4c-0.2-0.1-0.4-0.2-0.7-0.3
			c-0.2-0.1-0.4-0.3-0.6-0.4s-0.3-0.4-0.4-0.6s-0.2-0.5-0.2-0.8v2.2h-2.3V40.7h2.3v9.8c0,0,0,0.2,0,0.4s0.1,0.5,0.1,0.8
			s0.2,0.6,0.3,0.9c0.2,0.3,0.4,0.6,0.6,0.9c0.3,0.3,0.6,0.5,1,0.7c0.4,0.2,0.9,0.3,1.5,0.3c0.1,0,0.2,0,0.4,0
			c0.2,0,0.5-0.1,0.7-0.1c0.3-0.1,0.6-0.2,0.9-0.3c0.3-0.2,0.6-0.4,0.9-0.7c0.3-0.3,0.5-0.7,0.6-1.1c0.2-0.5,0.3-1,0.3-1.7v-9.8
			H218.9z"/>
		<path id="XMLID_48_" class="st2" d="M225,40.6c0.1,0,0.2,0,0.4,0c0.2,0,0.5,0.1,0.8,0.1c0.3,0.1,0.6,0.2,1,0.4
			c0.3,0.2,0.7,0.4,0.9,0.8c0.3,0.3,0.5,0.8,0.7,1.3s0.3,1.2,0.3,1.9v11.2h-2.3V45.2c0-0.4-0.1-0.8-0.2-1.1
			c-0.1-0.1-0.1-0.3-0.2-0.4s-0.2-0.3-0.3-0.4c-0.1-0.1-0.3-0.2-0.4-0.3c-0.2-0.1-0.4-0.1-0.6-0.1c-0.4,0-0.7,0-1,0.1
			c-0.3,0.1-0.5,0.2-0.7,0.3s-0.3,0.2-0.4,0.3s-0.2,0.2-0.2,0.2l-1.6-1.7c0.3-0.3,0.6-0.6,1-0.8c0.3-0.2,0.7-0.4,1.2-0.6
			S224.3,40.6,225,40.6z"/>
		<path id="XMLID_45_" class="st2" d="M234.8,42.1v1.2h4.1v2.2h-5.3c-0.3,0-0.4-0.1-0.6-0.2s-0.2-0.2-0.3-0.4
			c-0.1-0.2-0.1-0.3-0.1-0.5v-2.3H234.8z M234.8,51.6v1.2h4.1V55h-5.3c-0.3,0-0.4-0.1-0.6-0.2s-0.2-0.2-0.3-0.4
			c-0.1-0.2-0.1-0.3-0.1-0.5v-2.3H234.8z"/>
		<path id="XMLID_42_" class="st2" d="M244.3,56.4h-2.4V40.7h2.4V56.4z M249.2,56.4h-2.4V40.7h2.4V56.4z"/>
		<path id="XMLID_40_" class="st2" d="M253,56.4v-12c0.3-0.6,0.7-1.1,1.1-1.5s0.8-0.8,1.2-1s0.8-0.5,1.2-0.7s0.8-0.3,1.1-0.4
			s0.6-0.1,0.9-0.2s0.4,0,0.6,0h0.1c0.8,0,1.4,0.1,2,0.3s1.1,0.4,1.5,0.7s0.8,0.6,1.1,0.9s0.5,0.7,0.7,1.1s0.3,0.7,0.5,1.1
			s0.2,0.7,0.2,1s0.1,0.5,0.1,0.7s0,0.3,0,0.4v9.7H263v-9.7c0-0.6-0.1-1.1-0.3-1.6s-0.4-0.8-0.7-1.1s-0.6-0.5-0.9-0.6
			s-0.6-0.3-0.9-0.3s-0.5-0.1-0.7-0.1s-0.3,0-0.4,0c-0.5,0-0.9,0.1-1.3,0.2s-0.7,0.2-0.9,0.4s-0.5,0.4-0.7,0.6s-0.3,0.5-0.4,0.7
			c-0.3,0.5-0.4,1.2-0.5,1.9v9.7H253z"/>
		<path id="XMLID_38_" class="st2" d="M264.6,34.3v4.5h-2.2v-4.5H264.6z"/>
		<path id="XMLID_36_" class="st2" d="M270.1,56.4v-12c0.3-0.6,0.7-1.1,1.1-1.5s0.8-0.8,1.2-1c0.4-0.3,0.8-0.5,1.2-0.7
			s0.8-0.3,1.1-0.4s0.6-0.1,0.9-0.2c0.3,0,0.4,0,0.6,0h0.1c0.8,0,1.4,0.1,2,0.3c0.6,0.2,1.1,0.4,1.5,0.7c0.4,0.3,0.8,0.6,1.1,0.9
			c0.3,0.3,0.5,0.7,0.7,1.1c0.2,0.4,0.3,0.7,0.5,1.1c0.1,0.4,0.2,0.7,0.2,1c0.1,0.3,0.1,0.5,0.1,0.7c0,0.2,0,0.3,0,0.4v9.7h-2.3
			v-9.7c0-0.6-0.1-1.1-0.3-1.6c-0.2-0.4-0.4-0.8-0.7-1.1s-0.6-0.5-0.9-0.6c-0.3-0.1-0.6-0.3-0.9-0.3c-0.3-0.1-0.5-0.1-0.7-0.1
			c-0.2,0-0.3,0-0.4,0c-0.5,0-0.9,0.1-1.3,0.2c-0.4,0.1-0.7,0.2-0.9,0.4c-0.3,0.2-0.5,0.4-0.7,0.6c-0.2,0.2-0.3,0.5-0.4,0.7
			c-0.3,0.5-0.4,1.2-0.5,1.9v9.7H270.1z"/>
		<path id="XMLID_34_" class="st2" d="M288.6,40.6c0.1,0,0.2,0,0.4,0s0.5,0.1,0.8,0.1s0.6,0.2,1,0.4s0.7,0.4,0.9,0.8
			s0.5,0.8,0.7,1.3s0.3,1.2,0.3,1.9v11.2h-2.3V45.2c0-0.4-0.1-0.8-0.2-1.1c-0.1-0.1-0.1-0.3-0.2-0.4s-0.2-0.3-0.3-0.4
			s-0.3-0.2-0.4-0.3s-0.4-0.1-0.6-0.1c-0.4,0-0.7,0-1,0.1s-0.5,0.2-0.7,0.3s-0.3,0.2-0.4,0.3s-0.2,0.2-0.2,0.2l-1.6-1.7
			c0.3-0.3,0.6-0.6,1-0.8c0.3-0.2,0.7-0.4,1.2-0.6S287.9,40.6,288.6,40.6z"/>
		<path id="XMLID_32_" class="st2" d="M305.7,44.7l-1-0.6c-0.2-0.2-0.5-0.3-0.8-0.4s-0.6-0.3-0.9-0.4s-0.6-0.2-0.9-0.2
			s-0.5-0.1-0.7-0.1c-0.4,0-0.7,0-1.1,0.1s-0.6,0.2-0.9,0.4s-0.5,0.4-0.6,0.7s-0.2,0.7-0.2,1.2s0.1,0.9,0.4,1.1s0.6,0.5,1,0.6
			s0.9,0.3,1.4,0.3s1,0.2,1.6,0.2s1,0.3,1.5,0.5s0.9,0.6,1.3,1s0.7,0.8,0.9,1.3s0.3,1,0.3,1.6c0,0.8-0.1,1.5-0.4,2.1
			s-0.7,1.1-1.2,1.5s-1.1,0.7-1.8,0.9s-1.4,0.3-2.2,0.3c-1.1,0-2-0.1-2.7-0.4s-1.4-0.5-1.9-0.8c-0.6-0.3-1.1-0.7-1.4-1.2l1.6-1.5
			c0.2,0.2,0.4,0.4,0.7,0.6s0.7,0.4,1.1,0.5s0.8,0.3,1.3,0.4s0.9,0.1,1.4,0.1c0.5,0,0.9-0.1,1.3-0.2s0.7-0.3,1-0.5s0.5-0.5,0.6-0.8
			s0.2-0.6,0.2-1c0-0.4-0.1-0.7-0.2-0.9s-0.3-0.4-0.4-0.6s-0.3-0.2-0.5-0.3S303.1,50,303,50c0,0-0.2,0-0.5-0.1s-0.6-0.1-0.9-0.2
			s-0.7-0.1-1.1-0.2s-0.6-0.1-0.8-0.1c-0.1,0-0.3-0.1-0.5-0.1s-0.5-0.2-0.7-0.3s-0.5-0.3-0.8-0.5s-0.5-0.5-0.7-0.8s-0.4-0.7-0.5-1.1
			s-0.2-0.9-0.2-1.5c0-0.8,0.2-1.6,0.5-2.2s0.7-1.1,1.2-1.4s1-0.6,1.7-0.8s1.2-0.2,1.9-0.2c0.6,0,1.2,0.1,1.8,0.2s1,0.3,1.4,0.5
			c0.5,0.2,0.9,0.4,1.2,0.7l1.2,0.8L305.7,44.7z"/>
		<path id="XMLID_30_" class="st2" d="M310.3,40.6h2.3v4h5.2c0.3,0,0.5-0.1,0.8-0.3c0.2-0.1,0.4-0.3,0.6-0.6s0.4-0.6,0.5-1.1v-2.1
			h2.3v2.3c0,0.1,0,0.3-0.1,0.6s-0.1,0.5-0.3,0.8s-0.3,0.5-0.4,0.8s-0.4,0.5-0.6,0.7c0.3,0.3,0.6,0.6,0.8,1c0.2,0.3,0.4,0.7,0.6,1.2
			s0.3,1,0.3,1.6v6.8H320v-6.8c0-0.3-0.1-0.5-0.1-0.7s-0.1-0.4-0.2-0.7s-0.2-0.5-0.4-0.7s-0.3-0.4-0.6-0.5s-0.5-0.2-0.8-0.2h-5.2
			v9.5h-2.3V40.6z"/>
		<path id="XMLID_28_" class="st2" d="M328.4,40.6c0.1,0,0.2,0,0.4,0c0.2,0,0.5,0.1,0.8,0.1c0.3,0.1,0.6,0.2,1,0.4
			c0.3,0.2,0.7,0.4,0.9,0.8c0.3,0.3,0.5,0.8,0.7,1.3s0.3,1.2,0.3,1.9v11.2h-2.3V45.2c0-0.4-0.1-0.8-0.2-1.1
			c-0.1-0.1-0.1-0.3-0.2-0.4s-0.2-0.3-0.3-0.4c-0.1-0.1-0.3-0.2-0.4-0.3c-0.2-0.1-0.4-0.1-0.6-0.1c-0.4,0-0.7,0-1,0.1
			c-0.3,0.1-0.5,0.2-0.7,0.3s-0.3,0.2-0.4,0.3s-0.2,0.2-0.2,0.2l-1.6-1.7c0.3-0.3,0.6-0.6,1-0.8c0.3-0.2,0.7-0.4,1.2-0.6
			S327.7,40.6,328.4,40.6z"/>
		<path id="XMLID_26_" class="st2" d="M345.3,41c0.7,0.3,1.3,0.6,1.7,1s0.8,0.8,1.1,1.3c0.3,0.5,0.5,0.9,0.6,1.4s0.2,0.9,0.2,1.2
			s0,0.6,0,0.8v0.1v9.6h-2.3v-9.6c0-0.5-0.1-0.9-0.2-1.3c-0.1-0.4-0.3-0.7-0.4-1c-0.2-0.3-0.4-0.5-0.6-0.7c-0.2-0.2-0.5-0.3-0.7-0.5
			c-0.6-0.3-1.2-0.4-1.9-0.5c-0.5,0-0.9,0.1-1.2,0.2c-0.3,0.1-0.7,0.3-0.9,0.4s-0.5,0.4-0.7,0.6c-0.2,0.2-0.3,0.5-0.5,0.7
			c-0.3,0.6-0.5,1.2-0.5,1.9v1.6c0.9-0.5,1.9-0.8,3-0.8c0.5,0,1,0.1,1.4,0.2v2.4c-0.2-0.1-0.4-0.2-0.7-0.2c-0.2,0-0.5,0-0.8,0
			c-0.7,0-1.4,0.2-1.9,0.5c-0.3,0.2-0.5,0.4-0.7,0.7c-0.2,0.3-0.3,0.5-0.4,0.9v4.3h-2.3v-9.7c0-1,0.1-1.8,0.4-2.5
			c0.3-0.7,0.6-1.2,1-1.7s0.8-0.8,1.3-1.1c0.5-0.3,0.9-0.5,1.4-0.6c0.4-0.1,0.8-0.2,1.2-0.2c0.4,0,0.6,0,0.8,0h0.1
			C343.8,40.6,344.6,40.7,345.3,41z"/>
		<path id="XMLID_24_" class="st2" d="M349.1,57.6v4c0,0.3-0.1,0.5-0.3,0.7c-0.2,0.2-0.4,0.3-0.7,0.3h-3c-0.3,0-0.5-0.1-0.7-0.3
			c-0.2-0.2-0.3-0.4-0.3-0.7v-2.1h-1v-1.9h1.8c0.3,0,0.5,0.1,0.7,0.3c0.1,0.1,0.2,0.2,0.2,0.3s0.1,0.2,0.1,0.4v2.1h1.2v-3.1H349.1z"
			/>
		<path id="XMLID_22_" class="st2" d="M365.9,34.9v16.2c-0.1,1.1-0.4,2-0.8,2.8c-0.2,0.4-0.4,0.7-0.7,1s-0.7,0.6-1.1,0.9
			s-0.9,0.5-1.5,0.6s-1.2,0.2-2,0.2c-0.8,0-1.4-0.1-2-0.2s-1.1-0.4-1.5-0.6s-0.8-0.6-1.1-0.9s-0.5-0.7-0.7-1
			c-0.5-0.8-0.7-1.8-0.8-2.8V40.8h2.3v10.3c0,0.4,0.1,0.8,0.2,1.1s0.3,0.6,0.4,0.8s0.4,0.4,0.6,0.6s0.5,0.3,0.7,0.4
			c0.6,0.2,1.2,0.4,1.9,0.4c0.7,0,1.3-0.2,1.9-0.4c0.2-0.1,0.5-0.2,0.7-0.4s0.4-0.4,0.6-0.6s0.3-0.5,0.4-0.8s0.2-0.7,0.2-1.1V34.9
			H365.9z"/>
		<path id="XMLID_20_" class="st2" d="M381.9,51c-0.1,1.1-0.4,2-0.8,2.8c-0.2,0.4-0.4,0.7-0.7,1s-0.7,0.6-1.1,0.9s-0.9,0.5-1.5,0.6
			s-1.2,0.2-2,0.2c-0.8,0-1.4-0.1-2-0.2s-1.1-0.4-1.5-0.6s-0.8-0.6-1.1-0.9s-0.5-0.7-0.7-1c-0.5-0.8-0.7-1.8-0.8-2.8v-3.2h4.4V50
			h-2.1v1c0,0.4,0.1,0.8,0.2,1.1s0.3,0.6,0.4,0.9s0.4,0.4,0.6,0.6s0.5,0.3,0.7,0.4c0.6,0.3,1.2,0.4,1.9,0.4c0.7,0,1.3-0.2,1.9-0.4
			c0.2-0.1,0.5-0.2,0.7-0.4s0.4-0.4,0.6-0.6s0.3-0.5,0.4-0.9s0.2-0.7,0.2-1.1v-4.8c0-0.4-0.1-0.8-0.2-1.1s-0.3-0.6-0.4-0.8
			s-0.4-0.4-0.6-0.6s-0.5-0.3-0.7-0.4c-0.6-0.2-1.2-0.4-1.9-0.4h-0.2c-0.2,0-0.4,0-0.7,0.1s-0.7,0.2-1,0.3s-0.7,0.4-1,0.7
			s-0.6,0.7-0.7,1.2h-2.3c0.1-0.3,0.1-0.6,0.3-0.9s0.3-0.7,0.5-1s0.5-0.7,0.8-1s0.7-0.6,1.1-0.9s0.9-0.5,1.5-0.6s1.2-0.2,1.9-0.2
			c0.7,0,1.4,0.1,2,0.2s1.1,0.4,1.5,0.6s0.8,0.6,1.1,0.9s0.6,0.7,0.7,1c0.5,0.8,0.7,1.8,0.8,2.8V51z"/>
		<path id="XMLID_18_" class="st2" d="M387.1,40.7h4.6V52c0,0.8-0.1,1.4-0.3,1.9s-0.4,1-0.7,1.3c-0.3,0.3-0.6,0.6-1,0.8
			c-0.3,0.2-0.7,0.3-1,0.4c-0.3,0.1-0.6,0.1-0.8,0.2c-0.2,0-0.4,0-0.4,0c-0.7,0-1.3-0.1-1.7-0.3c-0.5-0.2-0.9-0.4-1.2-0.6
			c-0.4-0.3-0.7-0.5-1-0.8l1.6-1.5c0,0,0.1,0.1,0.2,0.2c0.1,0.1,0.3,0.2,0.4,0.3c0.2,0.1,0.4,0.2,0.7,0.3c0.3,0.1,0.6,0.1,0.9,0.1
			c0.2,0,0.4,0,0.6-0.1c0.2-0.1,0.3-0.2,0.5-0.3s0.2-0.2,0.3-0.4s0.2-0.3,0.2-0.4c0.1-0.4,0.2-0.8,0.2-1.2v-9.1h-2.2V40.7z"/>
	</g>
</g>
</svg>