<!-- Generator: Adobe Illustrator 19.0.0, SVG Export Plug-In  -->
<svg version="1.1"
	 xmlns="http://www.w3.org/2000/svg" xmlns:xlink="http://www.w3.org/1999/xlink" xmlns:a="http://ns.adobe.com/AdobeSVGViewerExtensions/3.0/"
	 x="0px" y="0px" width="71.3px" height="124.1px" viewBox="0 0 71.3 124.1" style="enable-background:new 0 0 71.3 124.1;"
	 xml:space="preserve">
<style type="text/css">
	.st0{fill:#086A87;stroke:#086A87;stroke-width:0.6;stroke-miterlimit:10;}
	.st1{fill:none;stroke:#086A87;stroke-width:2;stroke-linecap:round;stroke-linejoin:round;stroke-miterlimit:10;}
	.st2{fill:none;stroke:#086A87;stroke-width:1.5569;stroke-linecap:round;stroke-linejoin:round;stroke-miterlimit:10;}
	.st3{fill:#FF6633;}
</style>
<defs>
</defs>
<g id="XMLID_38_">
	<g id="XMLID_40_">
		<path id="XMLID_80_" class="st0" d="M10.7,69.2c-0.9,0-1.6,0.3-2.2,0.9s-0.8,1.5-0.8,2.5c0,1.1,0.3,2,0.8,2.6s1.2,0.9,2.2,0.9
			c0.6,0,1.3-0.1,2.1-0.3v0.9c-0.4,0.1-0.7,0.2-1,0.3s-0.7,0.1-1.2,0.1c-1.3,0-2.2-0.4-2.9-1.2s-1-1.9-1-3.3c0-0.9,0.2-1.7,0.5-2.3
			s0.8-1.2,1.4-1.5s1.4-0.5,2.2-0.5c0.9,0,1.7,0.2,2.4,0.5l-0.4,0.9C12,69.4,11.3,69.2,10.7,69.2z"/>
		<path id="XMLID_76_" class="st0" d="M20.1,73.7c0,1.1-0.3,1.9-0.8,2.5s-1.3,0.9-2.2,0.9c-0.6,0-1.1-0.1-1.5-0.4s-0.8-0.7-1-1.2
			s-0.4-1.1-0.4-1.8c0-1,0.3-1.9,0.8-2.4s1.3-0.9,2.2-0.9c0.9,0,1.6,0.3,2.2,0.9S20.1,72.7,20.1,73.7z M15.1,69.6
			c0.5-0.5,0.8-0.9,1-1.2s0.3-0.5,0.4-0.6h1.1c0.2,0.4,0.7,1,1.5,1.8v0.1h-0.7c-0.4-0.2-0.8-0.6-1.3-1.1c-0.5,0.5-0.9,0.9-1.3,1.1
			h-0.7V69.6z M15.2,73.7c0,0.8,0.2,1.4,0.5,1.8s0.8,0.6,1.4,0.6c0.6,0,1.1-0.2,1.4-0.6s0.5-1,0.5-1.8s-0.2-1.4-0.5-1.8
			s-0.8-0.6-1.4-0.6C15.8,71.3,15.2,72.1,15.2,73.7z"/>
		<path id="XMLID_74_" class="st0" d="M26.1,77v-4.1c0-0.5-0.1-0.9-0.3-1.2s-0.6-0.4-1.1-0.4c-0.7,0-1.1,0.2-1.4,0.5s-0.4,1-0.4,1.8
			V77h-1.1v-6.4h0.8l0.2,0.9h0.1c0.2-0.3,0.5-0.6,0.8-0.7s0.8-0.3,1.2-0.3c0.8,0,1.4,0.2,1.8,0.6s0.6,1,0.6,1.8V77H26.1z"/>
		<path id="XMLID_71_" class="st0" d="M33.5,76.9l0-0.8h0c-0.4,0.6-1.1,1-2,1c-0.8,0-1.5-0.3-1.9-0.9s-0.7-1.4-0.7-2.5
			c0-1,0.2-1.9,0.7-2.4s1.1-0.9,1.9-0.9c0.9,0,1.5,0.3,2,1h0.1l0.1-0.9h0.8v6.5c0,0.9-0.2,1.6-0.7,2.1s-1.2,0.7-2.2,0.7
			c-0.9,0-1.7-0.1-2.3-0.4v-1c0.6,0.3,1.4,0.5,2.4,0.5c0.5,0,1-0.2,1.3-0.5s0.5-0.8,0.5-1.3V76.9z M31.6,76.2c0.6,0,1.1-0.2,1.4-0.5
			s0.4-0.9,0.4-1.7v-0.3c0-0.9-0.1-1.5-0.4-1.9s-0.8-0.6-1.4-0.6c-0.5,0-1,0.2-1.3,0.6s-0.4,1-0.4,1.8c0,0.8,0.1,1.4,0.4,1.8
			S31,76.2,31.6,76.2z"/>
		<path id="XMLID_69_" class="st0" d="M44,77v-4.1c0-0.5-0.1-0.9-0.3-1.2s-0.6-0.4-1.1-0.4c-0.7,0-1.1,0.2-1.4,0.5s-0.4,1-0.4,1.8
			V77h-1.1v-6.4h0.8l0.2,0.9h0.1c0.2-0.3,0.5-0.6,0.8-0.7s0.8-0.3,1.2-0.3c0.8,0,1.4,0.2,1.8,0.6s0.6,1,0.6,1.8V77H44z"/>
		<path id="XMLID_66_" class="st0" d="M51.4,76.9l0-0.8h0c-0.4,0.6-1.1,1-2,1c-0.8,0-1.5-0.3-1.9-0.9s-0.7-1.4-0.7-2.5
			c0-1,0.2-1.9,0.7-2.4s1.1-0.9,1.9-0.9c0.9,0,1.5,0.3,2,1h0.1l0.1-0.9h0.8v6.5c0,0.9-0.2,1.6-0.7,2.1s-1.2,0.7-2.2,0.7
			c-0.9,0-1.7-0.1-2.3-0.4v-1c0.6,0.3,1.4,0.5,2.4,0.5c0.5,0,1-0.2,1.3-0.5s0.5-0.8,0.5-1.3V76.9z M49.5,76.2c0.6,0,1.1-0.2,1.4-0.5
			s0.4-0.9,0.4-1.7v-0.3c0-0.9-0.1-1.5-0.4-1.9s-0.8-0.6-1.4-0.6c-0.5,0-1,0.2-1.3,0.6s-0.4,1-0.4,1.8c0,0.8,0.1,1.4,0.4,1.8
			S49,76.2,49.5,76.2z"/>
		<path id="XMLID_64_" class="st0" d="M58.8,77v-4.1c0-0.5-0.1-0.9-0.3-1.2s-0.6-0.4-1.1-0.4c-0.7,0-1.1,0.2-1.4,0.5s-0.5,1-0.5,1.8
			V77h-1.1v-9.1h1.1v2.7c0,0.4,0,0.7-0.1,0.9h0.1c0.2-0.3,0.5-0.6,0.8-0.7s0.7-0.3,1.2-0.3c0.8,0,1.4,0.2,1.8,0.6s0.6,1,0.6,1.8V77
			H58.8z"/>
		<path id="XMLID_59_" class="st0" d="M64.6,77.1c-1,0-1.7-0.3-2.3-0.9s-0.8-1.4-0.8-2.4c0-1,0.3-1.9,0.8-2.5s1.2-0.9,2.1-0.9
			c0.8,0,1.5,0.3,1.9,0.8s0.7,1.2,0.7,2.1V74h-4.4c0,0.7,0.2,1.3,0.6,1.7s0.8,0.6,1.5,0.6c0.3,0,0.7,0,1-0.1s0.7-0.2,1.1-0.4v0.9
			c-0.4,0.2-0.7,0.3-1,0.3S65,77.1,64.6,77.1z M62.3,69.6c0.5-0.5,0.8-0.9,1-1.2s0.3-0.5,0.4-0.6h1.1c0.2,0.4,0.7,1,1.5,1.8v0.1
			h-0.7c-0.4-0.2-0.8-0.6-1.3-1.1c-0.5,0.5-0.9,0.9-1.3,1.1h-0.7V69.6z M64.3,71.3c-0.5,0-0.9,0.2-1.2,0.5s-0.5,0.8-0.5,1.4h3.3
			c0-0.6-0.1-1.1-0.4-1.4S64.8,71.3,64.3,71.3z M63.7,78.4c0-0.2,0.1-0.4,0.2-0.5s0.3-0.2,0.4-0.2c0.2,0,0.3,0.1,0.4,0.2
			s0.2,0.3,0.2,0.5c0,0.2-0.1,0.4-0.2,0.5s-0.3,0.2-0.4,0.2c-0.2,0-0.3-0.1-0.5-0.2S63.7,78.6,63.7,78.4z"/>
		<path id="XMLID_56_" class="st0" d="M9.2,91.5c-0.8,0-1.5-0.3-1.9-0.9s-0.7-1.4-0.7-2.4c0-1.1,0.2-1.9,0.7-2.5s1.1-0.9,1.9-0.9
			c0.9,0,1.5,0.3,2,0.9h0.1c0-0.1,0-0.2,0-0.4s0-0.4,0-0.6v-0.7H8.6v-0.8h2.6v-1.1h1.1v1.1h0.9v0.8h-0.9v7.3h-0.9l-0.2-0.9h0
			C10.7,91.2,10.1,91.5,9.2,91.5z M9.4,90.6c0.6,0,1.1-0.2,1.4-0.5s0.4-0.9,0.4-1.7v-0.2c0-0.9-0.1-1.5-0.4-1.9s-0.8-0.6-1.4-0.6
			c-0.5,0-1,0.2-1.3,0.6c-0.3,0.4-0.4,1-0.4,1.8c0,0.8,0.1,1.4,0.4,1.8C8.3,90.4,8.8,90.6,9.4,90.6z"/>
		<path id="XMLID_53_" class="st0" d="M14.2,83.2c0-0.2,0.1-0.4,0.2-0.5s0.3-0.2,0.4-0.2c0.2,0,0.3,0.1,0.4,0.2s0.2,0.3,0.2,0.5
			c0,0.2-0.1,0.4-0.2,0.5s-0.3,0.2-0.4,0.2c-0.2,0-0.3-0.1-0.4-0.2S14.2,83.4,14.2,83.2z M15.4,91.4h-1.1v-6.4h1.1V91.4z"/>
		<path id="XMLID_48_" class="st0" d="M20.1,91.5c-1,0-1.7-0.3-2.3-0.9S17,89.2,17,88.2c0-1,0.3-1.9,0.8-2.5s1.2-0.9,2.1-0.9
			c0.8,0,1.5,0.3,1.9,0.8s0.7,1.2,0.7,2.1v0.6h-4.4c0,0.7,0.2,1.3,0.6,1.7s0.8,0.6,1.5,0.6c0.3,0,0.7,0,1-0.1s0.7-0.2,1.1-0.4v0.9
			c-0.4,0.2-0.7,0.3-1,0.3S20.6,91.5,20.1,91.5z M17.8,84c0.5-0.5,0.8-0.9,1-1.2s0.3-0.5,0.4-0.6h1.1c0.2,0.4,0.7,1,1.5,1.8v0.1
			h-0.7c-0.4-0.2-0.8-0.6-1.3-1.1c-0.5,0.5-0.9,0.9-1.3,1.1h-0.7V84z M19.9,85.7c-0.5,0-0.9,0.2-1.2,0.5s-0.5,0.8-0.5,1.4h3.3
			c0-0.6-0.1-1.1-0.4-1.4S20.4,85.7,19.9,85.7z M19.2,92.8c0-0.2,0.1-0.4,0.2-0.5s0.3-0.2,0.4-0.2c0.2,0,0.3,0.1,0.4,0.2
			s0.2,0.3,0.2,0.5c0,0.2-0.1,0.4-0.2,0.5s-0.3,0.2-0.4,0.2c-0.2,0-0.3-0.1-0.5-0.2S19.2,93,19.2,92.8z"/>
		<path id="XMLID_46_" class="st0" d="M28.5,91.4v-4.1c0-0.5-0.1-0.9-0.3-1.2s-0.6-0.4-1.1-0.4c-0.7,0-1.1,0.2-1.4,0.5
			s-0.4,1-0.4,1.8v3.3h-1.1v-6.4H25l0.2,0.9h0.1c0.2-0.3,0.5-0.6,0.8-0.7s0.8-0.3,1.2-0.3c0.8,0,1.4,0.2,1.8,0.6s0.6,1,0.6,1.8v4.2
			H28.5z"/>
		<path id="XMLID_44_" class="st0" d="M36.9,90.6c0.1,0,0.3,0,0.5,0s0.3-0.1,0.4-0.1v0.8c-0.1,0-0.2,0.1-0.5,0.1s-0.4,0.1-0.6,0.1
			c-1.3,0-1.9-0.7-1.9-2v-3.7h-0.9v-0.5l0.9-0.4l0.4-1.4h0.6v1.5h1.9v0.8h-1.9v3.7c0,0.4,0.1,0.7,0.3,0.9S36.5,90.6,36.9,90.6z"/>
		<path id="XMLID_41_" class="st0" d="M40,84.9v4.1c0,0.5,0.1,0.9,0.3,1.2s0.6,0.4,1.1,0.4c0.7,0,1.1-0.2,1.4-0.6s0.5-1,0.5-1.8
			v-3.3h1.1v0.7c0.3-0.1,0.5-0.2,0.7-0.5s0.2-0.7,0.2-1.3h1.1l0.1,0.1c-0.1,0.7-0.4,1.3-0.7,1.7s-0.8,0.6-1.4,0.7v5h-0.9l-0.2-0.8
			h-0.1c-0.2,0.3-0.5,0.5-0.8,0.7s-0.7,0.3-1.2,0.3c-0.8,0-1.4-0.2-1.8-0.6S39,90,39,89.1v-4.2H40z M43,82.6c0,0.5-0.3,0.9-1,1
			L42,84.3h-0.7l-0.1-1c0.3-0.1,0.5-0.1,0.7-0.2s0.3-0.2,0.3-0.4c0-0.3-0.3-0.5-0.8-0.5c-0.2,0-0.4,0-0.6,0v-0.6
			c0.1,0,0.4-0.1,0.7-0.1C42.5,81.5,43,81.9,43,82.6z"/>
	</g>
</g>
<g id="XMLID_31_">
	<path id="XMLID_37_" class="st1" d="M50.3,48H4.6c-2,0-3.6-2-3.6-6h49.3"/>
	<path id="XMLID_36_" class="st1" d="M50.3,37H12.6c-1.6,0-3.2-0.8-3.2-2.4V8.3C9.3,6.7,11,5,12.6,5h42c1.6,0,2.8,1.7,2.8,3.3V23"/>
	<path id="XMLID_35_" class="st1" d="M50.3,42H9.9c-2.8,0-4.6-2.1-4.6-4.8V5.7C5.3,2.9,7.2,1,9.9,1h47.2c2.8,0,5.1,1.9,5.1,4.7V23"
		/>
	<path id="XMLID_34_" class="st1" d="M70.3,54.2c0,1.6-1.3,2.8-2.8,2.8H53.1c-1.6,0-2.8-1.3-2.8-2.8V25.8c0-1.6,1.3-2.8,2.8-2.8
		h14.3c1.6,0,2.8,1.3,2.8,2.8V54.2z"/>
	<circle id="XMLID_33_" class="st2" cx="60.2" cy="52" r="1.8"/>
	<rect id="XMLID_32_" x="53.3" y="27" class="st1" width="14" height="19"/>
</g>
<g id="XMLID_15_">
	<path id="XMLID_29_" class="st3" d="M14.3,124h-3v-8.4l0.3-1.4l0.2-1.5c-0.5,0.5-0.8,0.8-1,1l-1.6,1.3l-1.4-1.6l4.6-3.5h2V124z"/>
	<path id="XMLID_26_" class="st3" d="M28.7,116.7c0,2.5-0.4,4.3-1.2,5.5c-0.8,1.2-2.1,1.8-3.8,1.8c-1.6,0-2.9-0.6-3.7-1.9
		c-0.8-1.2-1.3-3.1-1.3-5.5c0-2.5,0.4-4.4,1.2-5.6c0.8-1.2,2.1-1.8,3.8-1.8c1.6,0,2.9,0.6,3.7,1.9C28.2,112.5,28.7,114.3,28.7,116.7
		z M21.7,116.7c0,1.8,0.2,3,0.5,3.8s0.8,1.1,1.5,1.1c0.7,0,1.2-0.4,1.5-1.2s0.5-2,0.5-3.8c0-1.8-0.2-3-0.5-3.8
		c-0.3-0.8-0.8-1.1-1.5-1.1c-0.7,0-1.2,0.4-1.5,1.1C21.8,113.7,21.7,115,21.7,116.7z"/>
	<path id="XMLID_24_" class="st3" d="M30.5,122.5c0-0.5,0.1-1,0.4-1.2s0.7-0.4,1.3-0.4c0.5,0,1,0.1,1.3,0.4c0.3,0.3,0.4,0.7,0.4,1.2
		c0,0.5-0.1,0.9-0.4,1.2c-0.3,0.3-0.7,0.4-1.3,0.4c-0.5,0-1-0.1-1.3-0.4C30.7,123.4,30.5,123,30.5,122.5z"/>
	<path id="XMLID_22_" class="st3" d="M43.3,124h-3v-8.4l0-1.4l0.1-1.5c-0.5,0.5-0.8,0.8-1,1l-1.6,1.3l-1.5-1.6l4.6-3.5h2.4V124z"/>
	<path id="XMLID_16_" class="st3" d="M53.9,113.9c0,1.5-0.3,2.6-0.9,3.4c-0.6,0.8-1.4,1.1-2.5,1.1c-1.1,0-1.9-0.4-2.5-1.2
		s-0.9-1.9-0.9-3.3c0-3,1.1-4.5,3.4-4.5c1.1,0,1.9,0.4,2.5,1.2C53.6,111.3,53.9,112.4,53.9,113.9z M49.6,113.9
		c0,0.8,0.1,1.4,0.2,1.9s0.4,0.6,0.7,0.6c0.6,0,0.9-0.8,0.9-2.5c0-1.6-0.3-2.4-0.9-2.4c-0.3,0-0.6,0.2-0.7,0.6
		S49.6,113.1,49.6,113.9z M60.7,110l-7.9,14h-2.3l7.9-14H60.7z M63.9,119.6c0,1.5-0.3,2.6-0.9,3.4c-0.6,0.8-1.4,1.1-2.5,1.1
		c-1.1,0-1.9-0.4-2.5-1.2s-0.9-1.9-0.9-3.3c0-3,1.1-4.5,3.4-4.5c1.1,0,1.9,0.4,2.5,1.2C63.6,117,63.9,118.1,63.9,119.6z M59.6,119.6
		c0,0.8,0.1,1.4,0.2,1.9s0.4,0.6,0.7,0.6c0.6,0,0.9-0.8,0.9-2.5c0-1.6-0.3-2.4-0.9-2.4c-0.3,0-0.6,0.2-0.7,0.6
		S59.6,118.8,59.6,119.6z"/>
</g>
</svg>