<!-- Generator: Adobe Illustrator 19.0.0, SVG Export Plug-In  -->
<svg version="1.1"
	 xmlns="http://www.w3.org/2000/svg" xmlns:xlink="http://www.w3.org/1999/xlink" xmlns:a="http://ns.adobe.com/AdobeSVGViewerExtensions/3.0/"
	 x="0px" y="0px" width="74.4px" height="124.1px" viewBox="0 0 74.4 124.1" style="enable-background:new 0 0 74.4 124.1;"
	 xml:space="preserve">
<style type="text/css">
	.st0{fill:#086A87;stroke:#086A87;stroke-width:0.6;stroke-miterlimit:10;}
	.st1{fill:none;stroke:#086A87;stroke-width:2;stroke-linecap:round;stroke-linejoin:round;stroke-miterlimit:10;}
	.st2{fill:none;stroke:#086A87;stroke-width:1.5569;stroke-linecap:round;stroke-linejoin:round;stroke-miterlimit:10;}
	.st3{fill:#FF6633;}
</style>
<defs>
</defs>
<g id="XMLID_45_">
	<path id="XMLID_93_" class="st0" d="M14.1,73.8c0,1.4-0.4,2.5-1.2,3.2s-1.9,1.1-3.3,1.1H7.3v-3.8H6.4v-0.9h0.9v-3.9h2.6
		c1.3,0,2.4,0.4,3.1,1.1S14.1,72.5,14.1,73.8z M13,73.9c0-1.1-0.3-1.9-0.8-2.5s-1.4-0.8-2.4-0.8H8.4v2.9h2.1v0.9H8.4v2.8h1.1
		C11.8,77.3,13,76.1,13,73.9z"/>
	<path id="XMLID_88_" class="st0" d="M17.1,69.8h-0.6c-0.5-0.4-0.9-0.8-1.2-1.2v-0.1h1c0.2,0.5,0.5,0.9,0.7,1.2V69.8z M21.4,75
		c0,1.1-0.3,1.9-0.8,2.5s-1.3,0.9-2.2,0.9c-0.6,0-1.1-0.1-1.5-0.4s-0.8-0.7-1-1.2s-0.4-1.1-0.4-1.8c0-1,0.3-1.9,0.8-2.4
		s1.3-0.9,2.2-0.9c0.9,0,1.6,0.3,2.2,0.9S21.4,73.9,21.4,75z M16.6,75c0,0.8,0.2,1.4,0.5,1.8s0.8,0.6,1.4,0.6c0.6,0,1.1-0.2,1.4-0.6
		s0.5-1,0.5-1.8s-0.2-1.4-0.5-1.8s-0.8-0.6-1.4-0.6C17.2,72.5,16.6,73.3,16.6,75z M20.3,70.9h-0.6c-0.4-0.3-0.8-0.6-1.2-1
		c-0.4,0.4-0.8,0.7-1.2,1h-0.6v-0.1l0.3-0.4c0.4-0.5,0.8-0.9,1-1.2H19c0.2,0.3,0.7,0.9,1.3,1.5V70.9z"/>
	<path id="XMLID_85_" class="st0" d="M30.5,78.1l0-0.8h0c-0.4,0.6-1.1,1-2,1c-0.8,0-1.5-0.3-1.9-0.9S25.9,76,25.9,75
		c0-1,0.2-1.9,0.7-2.4s1.1-0.9,1.9-0.9c0.9,0,1.5,0.3,2,1h0.1l0.1-0.9h0.8v6.5c0,0.9-0.2,1.6-0.7,2.1s-1.2,0.7-2.2,0.7
		c-0.9,0-1.7-0.1-2.3-0.4v-1c0.6,0.3,1.4,0.5,2.4,0.5c0.5,0,1-0.2,1.3-0.5s0.5-0.8,0.5-1.3V78.1z M28.7,77.4c0.6,0,1.1-0.2,1.4-0.5
		s0.4-0.9,0.4-1.7V75c0-0.9-0.1-1.5-0.4-1.9s-0.8-0.6-1.4-0.6c-0.5,0-1,0.2-1.3,0.6S27,74.2,27,75c0,0.8,0.1,1.4,0.4,1.8
		S28.1,77.4,28.7,77.4z"/>
	<path id="XMLID_82_" class="st0" d="M33.5,70c0-0.2,0.1-0.4,0.2-0.5s0.3-0.2,0.4-0.2c0.2,0,0.3,0.1,0.4,0.2s0.2,0.3,0.2,0.5
		c0,0.2-0.1,0.4-0.2,0.5s-0.3,0.2-0.4,0.2c-0.2,0-0.3-0.1-0.4-0.2S33.5,70.2,33.5,70z M34.7,78.2h-1.1v-6.4h1.1V78.2z"/>
	<path id="XMLID_79_" class="st0" d="M40.7,78.2l-0.2-0.9h0c-0.3,0.4-0.6,0.7-1,0.8s-0.7,0.2-1.2,0.2c-0.6,0-1.1-0.2-1.5-0.5
		s-0.5-0.8-0.5-1.4c0-1.3,1-2,3.1-2.1l1.1,0v-0.4c0-0.5-0.1-0.8-0.3-1.1s-0.5-0.3-1-0.3c-0.3,0-0.7,0.1-1,0.2s-0.6,0.2-0.9,0.3
		l-0.3-0.8c0.3-0.2,0.7-0.3,1.1-0.4s0.8-0.1,1.1-0.1c0.8,0,1.4,0.2,1.7,0.5s0.6,0.9,0.6,1.6v4.4H40.7z M38.5,77.5
		c0.6,0,1.1-0.2,1.4-0.5s0.5-0.8,0.5-1.4V75l-0.9,0c-0.7,0-1.3,0.1-1.6,0.4s-0.5,0.5-0.5,1c0,0.3,0.1,0.6,0.3,0.8
		S38.1,77.5,38.5,77.5z"/>
	<path id="XMLID_76_" class="st0" d="M48.8,78.3c-0.8,0-1.5-0.3-1.9-0.9S46.2,76,46.2,75c0-1.1,0.2-1.9,0.7-2.5s1.1-0.9,2-0.9
		c0.9,0,1.5,0.3,2,0.9h0.1c0-0.1,0-0.2,0-0.5s0-0.4,0-0.5v-2.6h1.1v9.1H51l-0.2-0.9h0C50.4,78,49.7,78.3,48.8,78.3z M49,77.4
		c0.6,0,1.1-0.2,1.4-0.5s0.4-0.9,0.4-1.7V75c0-0.9-0.1-1.5-0.4-1.9s-0.8-0.6-1.4-0.6c-0.5,0-1,0.2-1.3,0.6s-0.4,1-0.4,1.8
		c0,0.8,0.1,1.4,0.4,1.8S48.5,77.4,49,77.4z"/>
	<path id="XMLID_73_" class="st0" d="M54.9,71.8v4.1c0,0.5,0.1,0.9,0.3,1.2s0.6,0.4,1.1,0.4c0.7,0,1.1-0.2,1.4-0.6s0.5-1,0.5-1.8
		v-3.4h1.1v6.4h-0.9l-0.2-0.8h-0.1c-0.2,0.3-0.5,0.5-0.8,0.7s-0.8,0.3-1.2,0.3c-0.8,0-1.4-0.2-1.7-0.6s-0.6-1-0.6-1.8v-4.2H54.9z
		 M55.8,79.6c0-0.2,0.1-0.4,0.2-0.5s0.3-0.2,0.4-0.2c0.2,0,0.3,0.1,0.4,0.2s0.2,0.3,0.2,0.5c0,0.2-0.1,0.4-0.2,0.5s-0.3,0.2-0.4,0.2
		c-0.2,0-0.3-0.1-0.5-0.2S55.8,79.8,55.8,79.6z"/>
	<path id="XMLID_71_" class="st0" d="M65.7,78.2v-4.1c0-0.5-0.1-0.9-0.3-1.2s-0.6-0.4-1.1-0.4c-0.7,0-1.1,0.2-1.4,0.5
		s-0.4,1-0.4,1.8v3.3h-1.1v-6.4h0.8l0.2,0.9h0.1c0.2-0.3,0.5-0.6,0.8-0.7s0.8-0.3,1.2-0.3c0.8,0,1.4,0.2,1.8,0.6s0.6,1,0.6,1.8v4.2
		H65.7z"/>
	<path id="XMLID_68_" class="st0" d="M73.1,78.1l0-0.8h0c-0.4,0.6-1.1,1-2,1c-0.8,0-1.5-0.3-1.9-0.9S68.4,76,68.4,75
		c0-1,0.2-1.9,0.7-2.4s1.1-0.9,1.9-0.9c0.9,0,1.5,0.3,2,1h0.1l0.1-0.9h0.8v6.5c0,0.9-0.2,1.6-0.7,2.1s-1.2,0.7-2.2,0.7
		c-0.9,0-1.7-0.1-2.3-0.4v-1c0.6,0.3,1.4,0.5,2.4,0.5c0.5,0,1-0.2,1.3-0.5s0.5-0.8,0.5-1.3V78.1z M71.2,77.4c0.6,0,1.1-0.2,1.4-0.5
		s0.4-0.9,0.4-1.7V75c0-0.9-0.1-1.5-0.4-1.9s-0.8-0.6-1.4-0.6c-0.5,0-1,0.2-1.3,0.6s-0.4,1-0.4,1.8c0,0.8,0.1,1.4,0.4,1.8
		S70.7,77.4,71.2,77.4z"/>
	<path id="XMLID_64_" class="st0" d="M6.7,90.4c0-0.5,0.1-1,0.4-1.3s0.7-0.8,1.5-1.2C8.3,87.5,8,87.2,7.9,87s-0.2-0.4-0.3-0.6
		S7.5,86,7.5,85.8c0-0.6,0.2-1,0.6-1.4s0.9-0.5,1.6-0.5c0.6,0,1.2,0.2,1.5,0.5s0.6,0.8,0.6,1.4c0,0.4-0.1,0.8-0.4,1.2
		s-0.7,0.7-1.3,1.1l2.3,2.2c0.4-0.4,0.6-1.1,0.8-1.9h1.1c-0.3,1.1-0.7,2-1.2,2.6l1.8,1.7h-1.4l-1-1c-0.4,0.4-0.9,0.7-1.4,0.9
		s-1,0.3-1.6,0.3c-0.8,0-1.5-0.2-2-0.6S6.7,91.1,6.7,90.4z M9.4,91.8c0.9,0,1.6-0.3,2.2-0.9l-2.5-2.4c-0.5,0.3-0.9,0.6-1.1,0.9
		S7.8,90,7.8,90.3c0,0.4,0.2,0.8,0.5,1.1S9,91.8,9.4,91.8z M8.5,85.7c0,0.3,0.1,0.5,0.2,0.8s0.4,0.5,0.7,0.8c0.5-0.3,0.8-0.5,1-0.8
		s0.3-0.5,0.3-0.8c0-0.3-0.1-0.5-0.3-0.7s-0.5-0.3-0.8-0.3c-0.3,0-0.6,0.1-0.8,0.3S8.5,85.5,8.5,85.7z"/>
	<path id="XMLID_62_" class="st0" d="M19.1,92.6V84h1.1v7.6H24v1H19.1z"/>
	<path id="XMLID_58_" class="st0" d="M29.3,92.6L29,91.7h0c-0.3,0.4-0.6,0.7-1,0.8s-0.7,0.2-1.2,0.2c-0.6,0-1.1-0.2-1.5-0.5
		s-0.5-0.8-0.5-1.4c0-1.3,1-2,3.1-2.1l1.1,0v-0.4c0-0.5-0.1-0.8-0.3-1.1s-0.5-0.3-1-0.3c-0.3,0-0.7,0.1-1,0.2s-0.6,0.2-0.9,0.3
		l-0.3-0.8c0.3-0.2,0.7-0.3,1.1-0.4s0.8-0.1,1.1-0.1c0.8,0,1.4,0.2,1.7,0.5s0.6,0.9,0.6,1.6v4.4H29.3z M28.3,85.3h-0.7
		c-0.3-0.2-0.6-0.5-1-0.9s-0.6-0.7-0.7-0.9v-0.1h1.3c0.1,0.3,0.3,0.6,0.5,0.9s0.4,0.6,0.6,0.9V85.3z M27.1,91.9
		c0.6,0,1.1-0.2,1.4-0.5S29,90.6,29,90v-0.6l-0.9,0c-0.7,0-1.3,0.1-1.6,0.4s-0.5,0.5-0.5,1c0,0.3,0.1,0.6,0.3,0.8
		S26.7,91.9,27.1,91.9z"/>
	<path id="XMLID_56_" class="st0" d="M40.2,92.6v-4.1c0-1-0.4-1.5-1.3-1.5c-0.6,0-1,0.2-1.3,0.5s-0.4,0.9-0.4,1.6v3.6h-1v-4.1
		c0-0.5-0.1-0.9-0.3-1.1s-0.5-0.4-1-0.4c-0.6,0-1,0.2-1.3,0.5s-0.4,1-0.4,1.8v3.3H32v-6.4h0.8L33,87h0.1c0.2-0.3,0.4-0.6,0.8-0.7
		S34.6,86,35,86c1,0,1.7,0.4,2,1.1H37c0.2-0.3,0.5-0.6,0.8-0.8s0.8-0.3,1.2-0.3c0.7,0,1.3,0.2,1.6,0.6s0.5,1,0.5,1.8v4.2H40.2z"/>
	<path id="XMLID_54_" class="st0" d="M47.8,92.6l-2.4-6.4h1.1l1.4,3.8c0.3,0.8,0.4,1.3,0.5,1.7h0c0-0.1,0-0.1,0-0.2s0-0.1,0.1-0.2
		s0.2-0.5,0.4-1.3l1.4-3.8h1.1L49,92.6H47.8z"/>
	<path id="XMLID_52_" class="st0" d="M53.4,86.2v4.1c0,0.5,0.1,0.9,0.3,1.2s0.6,0.4,1.1,0.4c0.7,0,1.1-0.2,1.4-0.6s0.5-1,0.5-1.8
		v-3.3h1.1v0.7c0.3-0.1,0.5-0.2,0.7-0.5s0.2-0.7,0.2-1.3h1.1l0.1,0.1c-0.1,0.7-0.4,1.3-0.7,1.7s-0.8,0.6-1.4,0.7v5H57l-0.2-0.8h-0.1
		c-0.2,0.3-0.5,0.5-0.8,0.7s-0.7,0.3-1.2,0.3c-0.8,0-1.4-0.2-1.8-0.6s-0.6-1-0.6-1.8v-4.2H53.4z"/>
	<path id="XMLID_48_" class="st0" d="M66.1,89.4c0,1.1-0.3,1.9-0.8,2.5s-1.3,0.9-2.2,0.9c-0.6,0-1.1-0.1-1.5-0.4s-0.8-0.7-1-1.2
		s-0.4-1.1-0.4-1.8c0-1,0.3-1.9,0.8-2.4s1.3-0.9,2.2-0.9c0.4,0,0.8,0.1,1.2,0.2s0.7,0.3,0.9,0.6c0.2-0.1,0.4-0.2,0.5-0.3
		s0.2-0.3,0.3-0.5s0.1-0.5,0.1-0.9h1.1l0.1,0.1c-0.1,0.6-0.3,1.1-0.6,1.5s-0.6,0.6-1,0.7C66,88,66.1,88.7,66.1,89.4z M61.3,89.4
		c0,0.8,0.2,1.5,0.5,1.9s0.8,0.6,1.4,0.6c0.7,0,1.1-0.2,1.4-0.6s0.4-1,0.4-1.8c0-0.8-0.2-1.4-0.5-1.8s-0.8-0.6-1.4-0.6
		s-1.1,0.2-1.4,0.6S61.3,88.6,61.3,89.4z M63.9,85.3h-0.7c-0.3-0.2-0.6-0.5-1-0.9s-0.6-0.7-0.7-0.9v-0.1h1.3
		c0.1,0.3,0.3,0.6,0.5,0.9s0.4,0.6,0.6,0.9V85.3z"/>
	<path id="XMLID_46_" class="st0" d="M72.3,92.6v-4.1c0-0.5-0.1-0.9-0.3-1.2s-0.6-0.4-1.1-0.4c-0.7,0-1.1,0.2-1.4,0.5
		s-0.4,1-0.4,1.8v3.3h-1.1v-6.4h0.8l0.2,0.9H69c0.2-0.3,0.5-0.6,0.8-0.7S70.6,86,71,86c0.8,0,1.4,0.2,1.8,0.6s0.6,1,0.6,1.8v4.2
		H72.3z"/>
</g>
<g id="XMLID_34_">
	<path id="XMLID_44_" class="st1" d="M10.3,17V6.7c0-3.3,2.3-5.7,5.6-5.7h42.4c3.4,0,6,2.4,6,5.7V17"/>
	<rect id="XMLID_43_" x="14.3" y="25" class="st1" width="44" height="6"/>
	<path id="XMLID_42_" class="st1" d="M14.3,25v-3c0-2.7-1.9-4.9-4.5-5.4c-0.3,0-0.7-0.1-1-0.1c-3,0-5.5,2.4-5.5,5.4v8.8V44"/>
	<path id="XMLID_41_" class="st1" d="M58.3,25v-2.8c0-3,2.3-5.4,5.3-5.4c0.3,0,0.8,0,1.2,0.1c2.5,0.5,4.6,2.7,4.6,5.3V31"/>
	<circle id="XMLID_40_" class="st2" cx="28" cy="12.7" r="2.1"/>
	<circle id="XMLID_39_" class="st2" cx="46.2" cy="12.7" r="2.1"/>
	<path id="XMLID_38_" class="st1" d="M9.5,44l-2.3,5.7c0,0,0,0,0,0.1c-0.2,1.8,2,2.7,3.3,1.5l7.8-7.3H9.5z"/>
	<path id="XMLID_37_" class="st1" d="M63,44l2.3,5.7c0,0,0,0,0,0.1c0.2,1.8-2,2.7-3.3,1.5L54.2,44H63z"/>
	<rect id="XMLID_36_" x="14.3" y="25" class="st1" width="44" height="6"/>
	<rect id="XMLID_35_" x="3.3" y="31" class="st1" width="66" height="13"/>
</g>
<g id="XMLID_15_">
	<path id="XMLID_32_" class="st3" d="M7.3,124h-3v-8.4l-0.1-1.4l0-1.5c-0.5,0.5-0.9,0.8-1.1,1l-1.7,1.3L0,113.5l4.6-3.5h2.7V124z"/>
	<path id="XMLID_29_" class="st3" d="M11,117.8c0-2.8,0.6-4.9,1.8-6.3c1.2-1.4,3.1-2.1,5.5-2.1c0.8,0,1,0,2,0.1v2.4
		c-1-0.1-1.3-0.2-1.8-0.2c-1,0-1.9,0.2-2.6,0.5s-1.2,0.6-1.5,1.3c-0.3,0.6-0.5,1.5-0.6,2.5h0.1c0.6-1,1.7-1.5,3.1-1.5
		c1.3,0,2.3,0.5,3,1.3s1.1,1.9,1.1,3.4c0,1.5-0.4,2.7-1.3,3.6s-2.1,1.3-3.6,1.3c-1.1,0-2-0.2-2.8-0.7c-0.8-0.5-1.4-1.2-1.8-2.1
		C11.2,120.3,11,119.1,11,117.8z M16.1,121.7c0.6,0,1.1-0.2,1.5-0.6c0.3-0.4,0.5-1,0.5-1.9c0-0.7-0.2-1.2-0.5-1.6s-0.8-0.6-1.5-0.6
		c-0.6,0-1.1,0.2-1.6,0.6c-0.4,0.4-0.6,0.9-0.6,1.4c0,0.8,0.2,1.4,0.6,2C15,121.4,15.5,121.7,16.1,121.7z"/>
	<path id="XMLID_27_" class="st3" d="M22.8,122.5c0-0.5,0.1-1,0.4-1.2s0.7-0.4,1.3-0.4c0.5,0,1,0.1,1.3,0.4c0.3,0.3,0.4,0.7,0.4,1.2
		c0,0.5-0.1,0.9-0.4,1.2c-0.3,0.3-0.7,0.4-1.3,0.4c-0.5,0-1-0.1-1.3-0.4C23,123.4,22.8,123,22.8,122.5z"/>
	<path id="XMLID_25_" class="st3" d="M35.3,124h-3v-8.4l0.2-1.4l0.1-1.5c-0.5,0.5-0.8,0.8-1,1l-1.6,1.3l-1.4-1.6l4.6-3.5h2.1V124z"
		/>
	<path id="XMLID_22_" class="st3" d="M39.5,117.8c0-2.8,0.6-4.9,1.8-6.3c1.2-1.4,2.8-2.1,5.2-2.1c0.8,0,1.8,0,1.8,0.1v2.4
		c0-0.1-1-0.2-1.6-0.2c-1,0-1.8,0.2-2.5,0.5s-1.1,0.6-1.4,1.3c-0.3,0.6-0.5,1.5-0.5,2.5h0.1c0.6-1,1.7-1.5,3.1-1.5
		c1.3,0,2.3,0.5,3,1.3s1.1,1.9,1.1,3.4c0,1.5-0.4,2.7-1.3,3.6s-2.1,1.3-3.6,1.3c-1.1,0-2-0.2-2.8-0.7c-0.8-0.5-1.4-1.2-1.8-2.1
		C39.7,120.3,39.5,119.1,39.5,117.8z M44.7,121.7c0.6,0,1.1-0.2,1.5-0.6c0.3-0.4,0.5-1,0.5-1.9c0-0.7-0.2-1.2-0.5-1.6
		s-0.8-0.6-1.5-0.6c-0.6,0-1.1,0.2-1.6,0.6c-0.4,0.4-0.6,0.9-0.6,1.4c0,0.8,0.2,1.4,0.6,2C43.5,121.4,44.1,121.7,44.7,121.7z"/>
	<path id="XMLID_16_" class="st3" d="M57.7,113.9c0,1.5-0.3,2.6-0.9,3.4c-0.6,0.8-1.4,1.1-2.5,1.1c-1.1,0-1.9-0.4-2.5-1.2
		s-0.9-1.9-0.9-3.3c0-3,1.1-4.5,3.4-4.5c1.1,0,1.9,0.4,2.5,1.2C57.4,111.3,57.7,112.4,57.7,113.9z M53.3,113.9
		c0,0.8,0.1,1.4,0.2,1.9s0.4,0.6,0.7,0.6c0.6,0,0.9-0.8,0.9-2.5c0-1.6-0.3-2.4-0.9-2.4c-0.3,0-0.6,0.2-0.7,0.6
		S53.3,113.1,53.3,113.9z M64.4,110l-7.9,14h-2.3l7.9-14H64.4z M67.7,119.6c0,1.5-0.3,2.6-0.9,3.4c-0.6,0.8-1.4,1.1-2.5,1.1
		c-1.1,0-1.9-0.4-2.5-1.2s-0.9-1.9-0.9-3.3c0-3,1.1-4.5,3.4-4.5c1.1,0,1.9,0.4,2.5,1.2C67.4,117,67.7,118.1,67.7,119.6z M63.3,119.6
		c0,0.8,0.1,1.4,0.2,1.9s0.4,0.6,0.7,0.6c0.6,0,0.9-0.8,0.9-2.5c0-1.6-0.3-2.4-0.9-2.4c-0.3,0-0.6,0.2-0.7,0.6
		S63.3,118.8,63.3,119.6z"/>
</g>
</svg>