<!-- Generator: Adobe Illustrator 19.0.0, SVG Export Plug-In  -->
<svg version="1.1"
	 xmlns="http://www.w3.org/2000/svg" xmlns:xlink="http://www.w3.org/1999/xlink" xmlns:a="http://ns.adobe.com/AdobeSVGViewerExtensions/3.0/"
	 x="0px" y="0px" width="261px" height="73.5px" viewBox="0 0 261 73.5" style="enable-background:new 0 0 261 73.5;"
	 xml:space="preserve">
<style type="text/css">
	.st0{fill:none;stroke:#33CCCC;stroke-width:2;stroke-linecap:round;stroke-linejoin:round;stroke-miterlimit:10;}
	.st1{fill:none;stroke:#FFFFFF;stroke-width:2;stroke-linecap:round;stroke-linejoin:round;stroke-miterlimit:10;}
	.st2{fill:none;stroke:#FF6633;stroke-width:2;stroke-miterlimit:10;}
	.st3{fill:#FF6633;}
	.st4{fill:#FFFFFF;}
</style>
<defs>
</defs>
<polygon class="st0" points="247,72.5 247,61.5 258.9,61.5 "/>
<rect x="211" y="14.5" class="st1" width="49" height="14"/>
<path class="st1" d="M226,15.6c0,1.1-0.9,1.9-1.9,1.9h-0.2c-1.1,0-1.9-0.9-1.9-1.9v-5.2c0-1.1,0.9-1.9,1.9-1.9h0.2
	c1.1,0,1.9,0.9,1.9,1.9V15.6z"/>
<path class="st1" d="M249,15.6c0,1.1-0.9,1.9-1.9,1.9h-0.2c-1.1,0-1.9-0.9-1.9-1.9v-5.2c0-1.1,0.9-1.9,1.9-1.9h0.2
	c1.1,0,1.9,0.9,1.9,1.9V15.6z"/>
<rect x="211" y="28.5" class="st2" width="49" height="44"/>
<circle class="st3" cx="8.4" cy="8.4" r="8.4"/>
<g>
	<path class="st4" d="M30,13.5h-2v-10h-3v-2h8v2h-3V13.5z"/>
	<path class="st4" d="M43,13.5h-2V8.3c0-1.3-0.6-1.9-1.5-1.9c-0.7,0-1.4,0.2-1.7,0.7S37,8.2,37,9.3v4.3h-2v-12h2v2.2
		c0,0.2,0.2,0.5,0.2,1.2l0.2,0.6h0.1c0.5-1,1.4-1.2,2.5-1.2c1,0,1.8,0.3,2.3,0.9C42.8,5.8,43,6.6,43,7.7V13.5z"/>
	<path class="st4" d="M49.5,13.5c-1.4,0-2.5-0.4-3.3-1.2c-0.8-0.8-1.2-1.9-1.2-3.3c0-1.5,0.4-2.6,1.1-3.4c0.7-0.8,1.7-1.2,3-1.2
		c1.2,0,2.2,0.4,2.8,1.1s1,1.7,1,2.9v1.1h-5.6c0,1,0.2,1.2,0.6,1.6c0.4,0.4,0.9,0.6,1.6,0.6c0.5,0,1.2,0,1.7-0.2s0.7-0.3,1.7-0.5
		v1.8c-1,0.2-1.1,0.4-1.5,0.5S50.2,13.5,49.5,13.5z M49.2,6.2c-0.5,0-0.9-0.1-1.2,0.2s-0.5,1.1-0.5,1.1h3.3c0,0-0.2-0.8-0.5-1.1
		S49.7,6.2,49.2,6.2z"/>
	<path class="st4" d="M65.3,10.8c0,0.9-0.3,1.6-0.9,2s-1.6,0.7-2.8,0.7c-0.6,0-1,0-1.5-0.1S59,13.2,59,13v-2c0,0.2,0.8,0.4,1.3,0.5
		s1,0.2,1.4,0.2c0.9,0,1.3-0.3,1.3-0.8c0-0.2-0.1-0.3-0.2-0.5s-0.3-0.3-0.6-0.4S61.5,9.9,61,9.7c-0.7-0.3-1.2-0.5-1.5-0.8
		c-0.3-0.2-0.5-0.5-0.7-0.8c-0.1-0.3-0.2-0.7-0.2-1.1c0-0.8,0.3-1.4,0.9-1.8c0.6-0.4,1.5-0.6,2.6-0.6c1.1,0,2.1,0.2,3.1,0.7
		l-0.7,1.7c-0.4-0.2-0.8-0.3-1.2-0.5c-0.4-0.1-0.8-0.2-1.2-0.2c-0.7,0-1.1,0.2-1.1,0.6c0,0.2,0.1,0.4,0.3,0.6s0.7,0.4,1.5,0.7
		c0.7,0.3,1.2,0.5,1.5,0.8c0.3,0.2,0.6,0.5,0.7,0.8S65.3,10.3,65.3,10.8z"/>
	<path class="st4" d="M70.7,11.6c0.4,0,1.3-0.1,1.3-0.3v1.8c0,0.3-1.2,0.4-2,0.4c-1,0-1.8-0.2-2.2-0.7c-0.4-0.5-0.8-1.2-0.8-2.2V6.5
		h-1V5.4l1.4-0.9l0.8-2H70v2h2v2h-2v4.1c0,0.3-0.1,0.6,0.1,0.8C70.3,11.5,70.3,11.6,70.7,11.6z"/>
	<path class="st4" d="M79.6,13.5l-0.5-1h-0.1c-0.4,0-0.8,0.7-1.2,0.9s-1,0.2-1.7,0.2c-0.8,0-1.5-0.3-2-0.8c-0.5-0.5-0.7-1.2-0.7-2.1
		c0-0.9,0.3-1.6,1-2.1c0.6-0.4,1.7-0.7,3-0.7L79,7.9V7.6c0-0.9-0.5-1.3-1.4-1.3c-0.7,0-1.5,0.2-2.5,0.6l-0.8-1.6
		c1-0.5,2.1-0.8,3.3-0.8c1.2,0,1.9,0.3,2.6,0.8C80.8,5.7,81,6.5,81,7.6v6H79.6z M79,9.3l-1,0c-0.7,0-1.2,0.1-1.6,0.4
		c-0.3,0.2-0.5,0.6-0.5,1c0,0.7,0.4,1,1.2,1c0.6,0,1-0.2,1.4-0.5C78.8,11,79,10.6,79,10V9.3z"/>
	<path class="st4" d="M88.6,4.5c0.3,0,0.6,0,0.8,0.1l-0.2,2.2c-0.2-0.1-0.4-0.1-0.7-0.1c-0.8,0-1.4,0.2-1.8,0.6S86,8.2,86,8.9v4.6
		h-2v-9h1.5l0.4,2H86c0.3-1,0.6-1.1,1.1-1.4C87.6,4.8,88.1,4.5,88.6,4.5z"/>
	<path class="st4" d="M94.6,11.6c0.4,0,1.4-0.1,1.4-0.3v1.8c0,0.3-1.2,0.4-2.1,0.4c-1,0-1.7-0.2-2.2-0.7c-0.4-0.5-0.7-1.2-0.7-2.2
		V6.5h-1V5.4l1.4-0.9l0.7-2H94v2h2v2h-2v4.1c0,0.3-0.1,0.6,0.1,0.8C94.2,11.5,94.3,11.6,94.6,11.6z"/>
	<path class="st4" d="M100.3,11.7c-0.3,1.1-0.7,1.8-1.4,3.8h-1.7c0.3-1,0.6-3,0.8-4h2.2L100.3,11.7z"/>
	<path class="st4" d="M114,13.5h-2V8.3c0-0.6-0.1-1.1-0.3-1.4c-0.2-0.3-0.5-0.5-1-0.5c-0.6,0-1.1,0.2-1.3,0.7
		c-0.3,0.4-0.4,1.2-0.4,2.2v4.3h-2v-9h1.5l0.3,1h0.1c0.2,0,0.6-0.6,1-0.8s1-0.4,1.5-0.4c1.3,0,2.2,0.2,2.7,1.2h0.2
		c0.2,0,0.6-0.6,1-0.8c0.5-0.2,1-0.3,1.5-0.3c1,0,1.8,0.3,2.3,0.8s0.8,1.4,0.8,2.5v5.9h-2V8.3c0-0.6-0.3-1.1-0.5-1.4
		c-0.2-0.3-0.7-0.5-1.1-0.5c-0.6,0-1.3,0.2-1.6,0.6c-0.3,0.4-0.7,1.1-0.7,2V13.5z"/>
	<path class="st4" d="M122.3,2.4c0-0.8,0.4-1.2,1.3-1.2s1.3,0.4,1.3,1.2c0,0.4-0.1,0.7-0.3,0.9c-0.2,0.2-0.5,0.3-1,0.3
		C122.7,3.6,122.3,3.2,122.3,2.4z M125,13.5h-3v-9h3V13.5z"/>
	<path class="st4" d="M130,13.7c-1,0-1.8-0.5-2.4-1.3s-0.9-1.9-0.9-3.3c0-1.4,0.3-2.6,0.9-3.4c0.6-0.8,1.4-1.3,2.5-1.3
		c1.1,0,1.9,0.2,2.5,1.2h0.1c-0.1,0-0.7-1-0.7-1.5V1.5h3v12h-1.9l-0.5-1h-0.1C132,13.5,131.1,13.7,130,13.7z M130.9,11.6
		c0.6,0,1.2-0.2,1.5-0.5c0.3-0.4,0.6-1,0.6-1.8V9c0-0.9-0.3-1.6-0.6-2s-0.8-0.6-1.5-0.6c-0.5,0-1,0.2-1.3,0.7
		c-0.3,0.5-0.5,1.1-0.5,2s0.1,1.5,0.4,1.9S130.3,11.6,130.9,11.6z"/>
	<path class="st4" d="M140.1,13.7c-1,0-1.8-0.5-2.4-1.3s-0.9-1.9-0.9-3.3c0-1.4,0.3-2.6,0.9-3.4c0.6-0.8,1.4-1.3,2.5-1.3
		c1.1,0,1.9,0.2,2.5,1.2h0.1c-0.1,0,0.2-1,0.2-1.5V1.5h2v12h-1.8l-0.5-1h-0.1C142.1,13.5,141.3,13.7,140.1,13.7z M141,11.6
		c0.6,0,1.2-0.2,1.4-0.5c0.3-0.4,0.6-1,0.6-1.8V9c0-0.9-0.3-1.6-0.5-2s-0.8-0.6-1.5-0.6c-0.5,0-1,0.2-1.3,0.7
		c-0.3,0.5-0.5,1.1-0.5,2s0.1,1.5,0.4,1.9S140.4,11.6,141,11.6z"/>
	<path class="st4" d="M150,13.5h-2v-12h2V13.5z"/>
	<path class="st4" d="M156.3,13.5c-1.4,0-2.5-0.4-3.3-1.2c-0.8-0.8-1.2-1.9-1.2-3.3c0-1.5,0.4-2.6,1.1-3.4c0.7-0.8,1.7-1.2,3-1.2
		c1.2,0,2.2,0.4,2.9,1.1s1.1,1.7,1.1,2.9v1.1h-5.7c0,1,0.2,1.2,0.6,1.6c0.4,0.4,0.9,0.6,1.6,0.6c0.5,0,0.8,0,1.3-0.2
		s1.3-0.3,1.3-0.5v1.8c0,0.2-0.7,0.4-1.1,0.5S157,13.5,156.3,13.5z M156,6.2c-0.5,0-0.9-0.1-1.2,0.2s-0.5,1.1-0.5,1.1h3.3
		c0,0-0.2-0.8-0.5-1.1S156.5,6.2,156,6.2z"/>
	<path class="st4" d="M171.5,13.5l-0.5-1H171c-0.4,0-0.8,0.7-1.2,0.9s-1,0.2-1.7,0.2c-0.8,0-1.5-0.3-2-0.8c-0.5-0.5-0.7-1.2-0.7-2.1
		c0-0.9,0.3-1.6,1-2.1c0.6-0.4,1.7-0.7,3-0.7l1.6-0.1V7.6c0-0.9-0.5-1.3-1.4-1.3c-0.7,0-1.6,0.2-2.5,0.6l-0.8-1.6
		c1-0.5,2.1-0.8,3.3-0.8c1.2,0,2,0.3,2.6,0.8c0.6,0.5,0.8,1.3,0.8,2.3v6H171.5z M171,9.3l-1,0c-0.7,0-1.2,0.1-1.6,0.4
		c-0.3,0.2-0.5,0.6-0.5,1c0,0.7,0.4,1,1.1,1c0.6,0,1.1-0.2,1.4-0.5c0.3-0.3,0.6-0.7,0.6-1.3V9.3z"/>
	<path class="st4" d="M184,13.5h-3V8.3c0-0.6,0.1-1.1-0.2-1.4c-0.2-0.3-0.5-0.5-1-0.5c-0.7,0-1.1,0.2-1.4,0.7S178,8.2,178,9.3v4.3
		h-2v-9h1.5l0.3,1h0.1c0.3,0,0.6-0.6,1.1-0.8c0.5-0.2,1-0.3,1.6-0.3c1,0,1.9,0.3,2.5,0.9c0.5,0.5,0.9,1.4,0.9,2.4V13.5z"/>
	<path class="st4" d="M188.9,13.7c-1,0-1.8-0.5-2.4-1.3s-0.9-1.9-0.9-3.3c0-1.4,0.3-2.6,0.9-3.4c0.6-0.8,1.4-1.3,2.5-1.3
		c1.1,0,1.9,0.2,2.5,1.2h0.1c-0.1,0-0.6-1-0.6-1.5V1.5h3v12h-2l-0.5-1h-0.1C190.9,13.5,190.1,13.7,188.9,13.7z M189.8,11.6
		c0.6,0,1.3-0.2,1.5-0.5c0.3-0.4,0.7-1,0.7-1.8V9c0-0.9-0.4-1.6-0.6-2s-0.9-0.6-1.5-0.6c-0.5,0-1,0.2-1.3,0.7
		c-0.3,0.5-0.5,1.1-0.5,2s0.1,1.5,0.4,1.9S189.2,11.6,189.8,11.6z"/>
	<path class="st4" d="M29.7,30.4c-1.4,0-2.5-0.4-3.3-1.2c-0.8-0.8-1.2-1.9-1.2-3.3c0-1.5,0.4-2.6,1.1-3.4c0.7-0.8,1.7-1.2,3-1.2
		c1.2,0,2,0.4,2.7,1.1s0.9,1.7,0.9,2.9v1.2h-5.3c0,1,0.2,1.2,0.6,1.6c0.4,0.4,0.9,0.6,1.6,0.6c0.5,0,1.1-0.1,1.6-0.2S32,28.2,33,28
		v1.8c-1,0.2-1,0.4-1.4,0.5S30.4,30.4,29.7,30.4z M29.4,23.1c-0.5,0-0.9,0-1.2,0.3s-0.5,1.2-0.5,1.2h3.3c0,0-0.2-0.9-0.5-1.2
		S29.9,23.1,29.4,23.1z"/>
	<path class="st4" d="M43,30.5h-2v-5.4c0-0.6-0.2-1.1-0.4-1.4c-0.2-0.3-0.6-0.5-1.1-0.5c-0.7,0-1,0.2-1.3,0.7S38,25.1,38,26.1v4.4
		h-3v-9h2.1l0.3,1h0.1c0.3,0,0.6-0.7,1.1-0.9c0.5-0.2,1-0.3,1.6-0.3c1,0,1.6,0.3,2.2,0.8c0.5,0.5,0.6,1.4,0.6,2.4V30.5z"/>
	<path class="st4" d="M48.5,30.6c-1,0-1.8-0.5-2.4-1.3s-0.9-2-0.9-3.4c0-1.4,0.3-2.6,0.9-3.4c0.6-0.8,1.4-1.3,2.5-1.3
		c1.1,0,1.9,0.2,2.5,1.2h0.1c-0.1-1-0.2-1.1-0.2-1.6v-2.4h2v12h-1.4l-0.5-1H51C50.4,29.5,49.6,30.6,48.5,30.6z M49.3,28.5
		c0.6,0,1-0.2,1.3-0.5c0.3-0.4,0.4-1,0.4-1.8v-0.3c0-0.9-0.1-1.6-0.4-2s-0.7-0.6-1.4-0.6c-0.5,0-0.9,0.2-1.2,0.7
		c-0.3,0.5-0.4,1.1-0.4,2s0.2,1.5,0.5,1.9S48.8,28.5,49.3,28.5z"/>
	<path class="st4" d="M68,25.9c0,1.4-0.4,2.5-1.1,3.3c-0.8,0.8-1.8,1.2-3.1,1.2c-0.8,0-1.6-0.2-2.2-0.6S60.4,29,60,28.3
		s-0.5-1.5-0.5-2.4c0-1.4,0.4-2.5,1.1-3.3c0.7-0.8,1.8-1.2,3.1-1.2c0.8,0,1.6,0.2,2.2,0.5c0.6,0.4,1.1,0.9,1.5,1.6
		C67.8,24.2,68,25,68,25.9z M61.9,25.9c0,0.9,0.1,1.5,0.4,2c0.3,0.4,0.7,0.7,1.4,0.7c0.6,0,1.1-0.2,1.4-0.7c0.3-0.4,0.4-1.1,0.4-2
		c0-0.9-0.1-1.5-0.4-1.9c-0.3-0.4-0.7-0.6-1.4-0.6c-0.6,0-1.1,0.2-1.4,0.6S61.9,25,61.9,25.9z"/>
	<path class="st4" d="M75,23.5h-2v7h-3v-7h-1v-1.4l1-0.6v-0.6c0-1,0.4-1.7,0.9-2.2c0.5-0.5,1.4-0.7,2.4-0.7c0.8,0,1.6,0.1,2.2,0.4
		L75,20.1c-0.5-0.2-0.9-0.2-1.3-0.2c-0.3,0-0.4,0.1-0.6,0.3C72.9,20.4,73,20.7,73,21v0.6h2V23.5z"/>
	<path class="st4" d="M83.7,28.5c0.4,0,1.3-0.1,1.3-0.3V30c0,0.3-1.1,0.4-2,0.4c-1,0-1.3-0.2-1.7-0.7c-0.4-0.5-0.3-1.2-0.3-2.2v-4
		h-2v-1.2l1.5-0.9l0.9-1.9H83v2h2v2h-2v4c0,0.3-0.1,0.6,0.1,0.8C83.3,28.4,83.4,28.5,83.7,28.5z"/>
	<path class="st4" d="M95,30.5h-2v-5.4c0-1.3-0.5-1.9-1.5-1.9c-0.7,0-1,0.2-1.3,0.7S90,25.1,90,26.1v4.4h-3v-12h3v2.1
		c0,0.2-0.2,0.6-0.2,1.3l-0.2,0.6h0.1c0.5-1,1.4-1.2,2.5-1.2c1,0,1.7,0.3,2.2,0.9c0.5,0.6,0.6,1.4,0.6,2.4V30.5z"/>
	<path class="st4" d="M101.7,30.4c-1.4,0-2.5-0.4-3.3-1.2c-0.8-0.8-1.2-1.9-1.2-3.3c0-1.5,0.4-2.6,1.1-3.4c0.7-0.8,1.7-1.2,3-1.2
		c1.2,0,2.1,0.4,2.8,1.1s0.9,1.7,0.9,2.9v1.2h-5.4c0,1,0.2,1.2,0.6,1.6c0.4,0.4,0.9,0.6,1.6,0.6c0.5,0,1.1-0.1,1.6-0.2
		s0.6-0.3,1.6-0.5v1.8c-1,0.2-1,0.4-1.5,0.5S102.4,30.4,101.7,30.4z M101.4,23.1c-0.5,0-0.9,0-1.2,0.3s-0.5,1.2-0.5,1.2h3.3
		c0,0-0.2-0.9-0.5-1.2S101.9,23.1,101.4,23.1z"/>
	<path class="st4" d="M119,30.5h-2v-5.4c0-0.6-0.2-1.1-0.4-1.4c-0.2-0.3-0.6-0.5-1-0.5c-0.6,0-0.9,0.2-1.2,0.7
		c-0.3,0.4-0.3,1.2-0.3,2.2v4.4h-3v-9h2.2l0.3,1h0.1c0.2,0,0.6-0.7,1-0.9s1-0.4,1.5-0.4c1.3,0,2.2,0.3,2.7,1.3h0.2
		c0.2,0,0.6-0.7,1-0.9c0.5-0.2,1-0.3,1.5-0.3c1,0,1.9,0.3,2.4,0.8s1,1.3,1,2.5v6h-3v-5.4c0-0.6,0-1.1-0.2-1.4
		c-0.2-0.3-0.5-0.5-0.9-0.5c-0.6,0-1.1,0.2-1.4,0.6c-0.3,0.4-0.5,1.1-0.5,2V30.5z"/>
	<path class="st4" d="M135,25.9c0,1.4-0.4,2.5-1.1,3.3c-0.8,0.8-1.8,1.2-3.1,1.2c-0.8,0-1.6-0.2-2.2-0.6s-1.1-0.9-1.5-1.6
		s-0.5-1.5-0.5-2.4c0-1.4,0.4-2.5,1.1-3.3c0.7-0.8,1.8-1.2,3.1-1.2c0.8,0,1.6,0.2,2.2,0.5c0.6,0.4,1.1,0.9,1.5,1.6
		C134.8,24.2,135,25,135,25.9z M129,25.9c0,0.9,0.1,1.5,0.4,2c0.3,0.4,0.7,0.7,1.4,0.7c0.6,0,1.1-0.2,1.4-0.7c0.3-0.4,0.4-1.1,0.4-2
		c0-0.9-0.1-1.5-0.4-1.9c-0.3-0.4-0.7-0.6-1.4-0.6c-0.6,0-1.1,0.2-1.4,0.6S129,25,129,25.9z"/>
	<path class="st4" d="M145,30.5h-2v-5.4c0-0.6-0.3-1.1-0.5-1.4c-0.2-0.3-0.7-0.5-1.2-0.5c-0.7,0-1.4,0.2-1.7,0.7s-0.7,1.2-0.7,2.2
		v4.4h-2v-9h1.8l0.3,1h0.1c0.3,0,0.6-0.7,1.1-0.9c0.5-0.2,1-0.3,1.6-0.3c1,0,1.8,0.3,2.3,0.8c0.5,0.5,0.8,1.4,0.8,2.4V30.5z"/>
	<path class="st4" d="M151.3,28.5c0.4,0,0.7-0.1,1.7-0.3V30c-1,0.3-1.5,0.4-2.4,0.4c-1,0-1.6-0.2-2-0.7c-0.4-0.5-0.6-1.2-0.6-2.2v-4
		h-1v-1.2l1.1-0.9l0.5-1.9h1.4v2h3v2h-3v4c0,0.3,0.2,0.6,0.4,0.8C150.6,28.4,151,28.5,151.3,28.5z"/>
	<path class="st4" d="M162,30.5h-2v-5.4c0-1.3-0.4-1.9-1.3-1.9c-0.7,0-1,0.2-1.3,0.7s-0.3,1.2-0.3,2.2v4.4h-3v-12h3v2.1
		c0,0.2-0.1,0.6-0.1,1.3l-0.1,0.6h0.1c0.5-1,1.4-1.2,2.5-1.2c1,0,1.6,0.3,2.1,0.9c0.5,0.6,0.5,1.4,0.5,2.4V30.5z"/>
	<path class="st4" d="M164.6,29.1c0-0.4,0.1-0.8,0.4-1c0.2-0.2,0.6-0.3,1-0.3c0.4,0,0.8,0.1,1,0.3c0.2,0.2,0.4,0.6,0.4,1
		c0,0.4-0.1,0.7-0.4,1s-0.6,0.4-1,0.4c-0.4,0-0.8-0.1-1-0.3S164.6,29.6,164.6,29.1z"/>
</g>
<g>
	<path class="st4" d="M9,12.5H7V7.6l0.2-0.8l0.1-0.9C7,6.2,6.9,6.4,6.8,6.5l-1,0.8L4.9,6l2.8-2.4H9V12.5z"/>
</g>
</svg>