<!-- Generator: Adobe Illustrator 19.0.0, SVG Export Plug-In  -->
<svg version="1.1"
	 xmlns="http://www.w3.org/2000/svg" xmlns:xlink="http://www.w3.org/1999/xlink" xmlns:a="http://ns.adobe.com/AdobeSVGViewerExtensions/3.0/"
	 x="0px" y="0px" width="281px" height="66px" viewBox="0 0 281 66" style="overflow:scroll;enable-background:new 0 0 281 66;"
	 xml:space="preserve">
<style type="text/css">
	.st0{fill:none;stroke:#33CCCC;stroke-width:2;stroke-linecap:round;stroke-linejoin:round;stroke-miterlimit:10;}
	.st1{fill:none;stroke:#FFFFFF;stroke-width:2;stroke-linecap:round;stroke-linejoin:round;stroke-miterlimit:10;}
	.st2{fill:none;stroke:#FF6633;stroke-width:2;stroke-miterlimit:10;}
	.st3{fill:#FF6633;}
	.st4{fill:#FFFFFF;}
	.st5{fill:#FFFFFF;stroke:#FFFFFF;stroke-width:0.3;stroke-miterlimit:10;}
</style>
<defs>
</defs>
<g id="XMLID_88_">
	<polygon id="XMLID_93_" class="st0" points="267,65 267,54 278.9,54 	"/>
	<rect id="XMLID_92_" x="231" y="7" class="st1" width="49" height="14"/>
	<path id="XMLID_91_" class="st1" d="M246,8.1c0,1.1-0.9,1.9-1.9,1.9h-0.2c-1.1,0-1.9-0.9-1.9-1.9V2.9c0-1.1,0.9-1.9,1.9-1.9h0.2
		c1.1,0,1.9,0.9,1.9,1.9V8.1z"/>
	<path id="XMLID_90_" class="st1" d="M269,8.1c0,1.1-0.9,1.9-1.9,1.9h-0.2c-1.1,0-1.9-0.9-1.9-1.9V2.9c0-1.1,0.9-1.9,1.9-1.9h0.2
		c1.1,0,1.9,0.9,1.9,1.9V8.1z"/>
	<rect id="XMLID_89_" x="231" y="21" class="st2" width="49" height="44"/>
</g>
<circle id="XMLID_87_" class="st3" cx="8.4" cy="20.8" r="8.4"/>
<g id="XMLID_84_">
	<path id="XMLID_85_" class="st4" d="M9,25H7v-4.9l0.2-0.8l0.1-0.9C7,18.7,6.9,18.9,6.8,19l-1,0.8l-0.9-1.3L7.7,16H9V25z"/>
</g>
<g id="XMLID_15_">
	<path id="XMLID_82_" class="st5" d="M35.8,25.8V20c0-0.4-0.1-0.7-0.2-0.9s-0.2-0.5-0.4-0.6s-0.3-0.3-0.5-0.4s-0.4-0.2-0.5-0.2
		s-0.3-0.1-0.4-0.1s-0.2,0-0.2,0c-0.4,0-0.7,0.1-0.9,0.2s-0.5,0.2-0.6,0.4s-0.3,0.3-0.4,0.5s-0.2,0.4-0.2,0.5s-0.1,0.3-0.1,0.4
		s0,0.2,0,0.2v5.9h-1.4v-9.4h1.4v1.3c0-0.2,0-0.3,0.1-0.5s0.2-0.2,0.3-0.3s0.2-0.2,0.4-0.2s0.3-0.1,0.4-0.2c0.3-0.1,0.7-0.2,1.1-0.2
		h0.3c0.5,0,1,0.1,1.4,0.2s0.7,0.3,0.9,0.6s0.4,0.5,0.6,0.8s0.3,0.5,0.3,0.8s0.1,0.5,0.1,0.7s0,0.4,0,0.5V20v5.9H35.8z"/>
	<path id="XMLID_80_" class="st5" d="M36.1,28.1h-0.7v-1.3h1.3c0.2,0,0.3,0.1,0.5,0.2c0.1,0.1,0.2,0.3,0.2,0.5v2.8h-1.3V28.1z"/>
	<path id="XMLID_78_" class="st5" d="M40.1,25.8v-7.2c0.2-0.4,0.4-0.7,0.6-0.9s0.5-0.5,0.7-0.6c0.2-0.2,0.5-0.3,0.7-0.4
		s0.5-0.2,0.7-0.2s0.4-0.1,0.5-0.1c0.2,0,0.3,0,0.3,0h0.1c0.5,0,0.9,0.1,1.2,0.2c0.3,0.1,0.6,0.2,0.9,0.4c0.3,0.2,0.5,0.3,0.7,0.5
		c0.2,0.2,0.3,0.4,0.4,0.6c0.1,0.2,0.2,0.4,0.3,0.6c0.1,0.2,0.1,0.4,0.1,0.6c0,0.2,0.1,0.3,0.1,0.4c0,0.1,0,0.2,0,0.2v5.8h-1.4V20
		c0-0.4-0.1-0.7-0.2-0.9c-0.1-0.3-0.2-0.5-0.4-0.6S45.2,18.1,45,18c-0.2-0.1-0.4-0.2-0.5-0.2c-0.2,0-0.3-0.1-0.4-0.1
		c-0.1,0-0.2,0-0.2,0c-0.3,0-0.5,0-0.8,0.1c-0.2,0.1-0.4,0.1-0.6,0.3c-0.2,0.1-0.3,0.2-0.4,0.4c-0.1,0.1-0.2,0.3-0.3,0.4
		c-0.2,0.3-0.3,0.7-0.3,1.1v5.8H40.1z"/>
	<path id="XMLID_76_" class="st5" d="M61.4,28.2h-1.4v-8.4c0-0.1,0-0.2,0-0.4c0-0.2,0-0.3-0.1-0.5c0-0.2-0.1-0.3-0.2-0.5
		c-0.1-0.2-0.2-0.3-0.3-0.4L58,19.4L56.7,18c-0.1,0.1-0.2,0.2-0.3,0.4c-0.1,0.2-0.1,0.4-0.2,0.5c0,0.2-0.1,0.4-0.1,0.5s0,0.3,0,0.3
		v0.1h-1.4c0-0.6,0.1-1,0.2-1.4c0.1-0.4,0.2-0.7,0.4-1c0.2-0.3,0.3-0.5,0.5-0.6c0.2-0.1,0.4-0.2,0.6-0.3c0.2-0.1,0.3-0.1,0.4-0.1
		c0.1,0,0.2,0,0.2,0l0.9,0.9l0.1,0.1c0.2-0.2,0.4-0.4,0.6-0.6c0.1-0.1,0.2-0.2,0.3-0.3s0.1-0.1,0.1-0.1c0,0,0.1,0,0.2,0
		s0.3,0,0.4,0.1c0.2,0.1,0.4,0.2,0.5,0.3s0.4,0.3,0.5,0.6s0.3,0.6,0.4,0.9s0.2,0.8,0.2,1.4v0.2V28.2z"/>
	<path id="XMLID_74_" class="st5" d="M76,17.3c0.2,0.2,0.3,0.5,0.4,0.8c0.1,0.3,0.2,0.6,0.2,0.9v6.8h-1.4v-6.3c0-0.4-0.1-0.7-0.2-1
		c-0.1-0.3-0.3-0.5-0.6-0.7l-1.5,1l-1.5-1c-0.2,0.2-0.4,0.4-0.6,0.7c-0.1,0.3-0.2,0.6-0.2,1v3.4c0,0.3,0.1,0.6,0.2,0.8
		c0.1,0.1,0.1,0.2,0.2,0.3c0.1,0.1,0.2,0.2,0.3,0.3c0.1,0.1,0.2,0.1,0.4,0.2c0.2,0,0.3,0.1,0.5,0.1h1v1.3h-1.9
		c-0.4,0-0.8-0.1-1.1-0.3c-0.1-0.1-0.3-0.2-0.4-0.3c-0.1-0.1-0.2-0.3-0.3-0.5c-0.1-0.2-0.2-0.4-0.2-0.7s-0.1-0.6-0.1-0.9V19
		c0.1-0.6,0.3-1.2,0.7-1.7c0.4-0.5,0.8-0.8,1.4-1l1.7,1l1.7-1C75.1,16.5,75.6,16.9,76,17.3z"/>
	<path id="XMLID_72_" class="st5" d="M77.2,14v1.3h-3.9v-1.8h-0.7v-1.3H74c0.1,0,0.2,0,0.3,0.1c0.1,0,0.2,0.1,0.2,0.2
		c0.1,0.1,0.1,0.2,0.1,0.3V14H77.2z"/>
	<path id="XMLID_70_" class="st5" d="M80.9,16.4v5.9c0,0.4,0.1,0.7,0.2,1s0.2,0.5,0.4,0.7s0.3,0.3,0.5,0.4s0.4,0.2,0.5,0.2
		s0.3,0.1,0.4,0.1s0.2,0,0.2,0c0.4,0,0.7-0.1,0.9-0.2s0.5-0.3,0.6-0.4s0.3-0.4,0.4-0.5s0.2-0.4,0.2-0.6s0.1-0.3,0.1-0.5s0-0.2,0-0.2
		v-5.9h1.4v9.4h-1.4v-1.3c0,0.2-0.1,0.3-0.1,0.5s-0.2,0.2-0.3,0.3s-0.2,0.2-0.4,0.3s-0.3,0.1-0.4,0.2c-0.3,0.1-0.7,0.2-1.1,0.2h-0.3
		c-0.5,0-1-0.1-1.4-0.2s-0.7-0.3-0.9-0.6s-0.4-0.5-0.6-0.8s-0.2-0.6-0.3-0.8s-0.1-0.5-0.1-0.7s0-0.4,0-0.5v-0.1v-5.9H80.9z"/>
	<path id="XMLID_68_" class="st5" d="M90.6,25.8h-1.4v-9.4h1.4V25.8z"/>
	<path id="XMLID_66_" class="st5" d="M98.9,25.8v-5.9c0-0.4-0.1-0.8-0.3-1.1c-0.1-0.1-0.2-0.3-0.3-0.4s-0.3-0.2-0.4-0.3
		s-0.4-0.2-0.6-0.2s-0.5-0.1-0.8-0.1s-0.6,0-0.8,0.1s-0.4,0.1-0.6,0.2s-0.3,0.2-0.4,0.3s-0.2,0.3-0.3,0.4c-0.2,0.3-0.3,0.7-0.3,1.1
		V23c0,0.2,0.1,0.4,0.1,0.6c0.1,0.2,0.1,0.3,0.2,0.5s0.2,0.3,0.4,0.4c0.2,0.1,0.4,0.2,0.6,0.2c0.2,0,0.3,0,0.5-0.1s0.2-0.2,0.3-0.2
		l0.9,0.9c-0.1,0.1-0.3,0.3-0.5,0.4c-0.2,0.1-0.3,0.2-0.5,0.3S95.6,26,95.4,26c-0.1,0-0.2,0-0.3,0s-0.2,0-0.3,0
		c-0.3-0.1-0.6-0.2-0.9-0.4s-0.5-0.4-0.7-0.7s-0.3-0.5-0.4-0.9s-0.1-0.6-0.1-1v-3.1c0.1-0.6,0.2-1,0.3-1.4s0.4-0.7,0.6-1
		s0.5-0.5,0.8-0.6s0.5-0.3,0.8-0.3s0.5-0.1,0.7-0.1s0.4,0,0.5,0h0.1h0.1c0.1,0,0.3,0,0.5,0s0.4,0.1,0.7,0.1s0.5,0.2,0.8,0.3
		s0.5,0.4,0.8,0.6s0.4,0.6,0.6,1s0.3,0.9,0.4,1.4v5.9H98.9z"/>
	<path id="XMLID_64_" class="st5" d="M100.6,13v2.3h-5.8V14h2.4v-1h1.3v1h0.8v-1H100.6z"/>
	<path id="XMLID_62_" class="st5" d="M110.5,22.6c-0.1,0.6-0.2,1.2-0.5,1.7c-0.1,0.2-0.3,0.4-0.4,0.6s-0.4,0.4-0.7,0.5
		s-0.6,0.3-0.9,0.4s-0.7,0.1-1.2,0.1c-0.5,0-0.8,0-1.2-0.1s-0.6-0.2-0.9-0.4s-0.5-0.3-0.7-0.5s-0.3-0.4-0.4-0.6
		c-0.3-0.5-0.4-1.1-0.5-1.7v-1.9h2.6V22h-1.2v0.6c0,0.3,0,0.5,0.1,0.7s0.2,0.4,0.3,0.5s0.2,0.3,0.4,0.4s0.3,0.2,0.4,0.2
		c0.3,0.2,0.7,0.2,1.1,0.3c0.4,0,0.8-0.1,1.1-0.3c0.1-0.1,0.3-0.1,0.4-0.2s0.3-0.2,0.4-0.4s0.2-0.3,0.3-0.5s0.1-0.4,0.1-0.7v-2.9
		c0-0.2,0-0.5-0.1-0.7s-0.2-0.4-0.3-0.5s-0.2-0.3-0.4-0.4s-0.3-0.2-0.4-0.2c-0.3-0.1-0.7-0.2-1.1-0.2h-0.1c-0.1,0-0.2,0-0.4,0
		s-0.4,0.1-0.6,0.2s-0.4,0.2-0.6,0.4s-0.3,0.4-0.4,0.7h-1.4c0-0.2,0.1-0.3,0.2-0.5s0.2-0.4,0.3-0.6s0.3-0.4,0.5-0.6s0.4-0.4,0.7-0.5
		s0.6-0.3,0.9-0.4s0.7-0.1,1.2-0.1c0.4,0,0.8,0,1.2,0.1s0.6,0.2,0.9,0.4s0.5,0.3,0.7,0.5s0.3,0.4,0.4,0.6c0.3,0.5,0.4,1.1,0.5,1.7
		V22.6z"/>
	<path id="XMLID_60_" class="st5" d="M113.8,16.4v5.9c0,0.4,0.1,0.7,0.2,1s0.2,0.5,0.4,0.7s0.3,0.3,0.5,0.4s0.4,0.2,0.5,0.2
		s0.3,0.1,0.4,0.1s0.2,0,0.2,0c0.4,0,0.7-0.1,0.9-0.2s0.5-0.3,0.6-0.4s0.3-0.4,0.4-0.5s0.2-0.4,0.2-0.6s0.1-0.3,0.1-0.5s0-0.2,0-0.2
		v-5.9h1.4v9.4h-1.4v-1.3c0,0.2-0.1,0.3-0.1,0.5s-0.2,0.2-0.3,0.3s-0.2,0.2-0.4,0.3s-0.3,0.1-0.4,0.2c-0.3,0.1-0.7,0.2-1.1,0.2h-0.3
		c-0.5,0-1-0.1-1.4-0.2s-0.7-0.3-0.9-0.6s-0.4-0.5-0.6-0.8s-0.2-0.6-0.3-0.8s-0.1-0.5-0.1-0.7s0-0.4,0-0.5v-0.1v-5.9H113.8z"/>
	<path id="XMLID_58_" class="st5" d="M29.9,45.8v-7.2c0.2-0.4,0.4-0.7,0.6-0.9s0.5-0.5,0.7-0.6s0.5-0.3,0.7-0.4s0.5-0.2,0.7-0.2
		s0.4-0.1,0.5-0.1s0.3,0,0.3,0h0.1c0.5,0,0.9,0.1,1.2,0.2s0.6,0.2,0.9,0.4s0.5,0.3,0.7,0.5s0.3,0.4,0.4,0.6s0.2,0.4,0.3,0.6
		s0.1,0.4,0.1,0.6s0.1,0.3,0.1,0.4s0,0.2,0,0.2v5.8h-1.4V40c0-0.4-0.1-0.7-0.2-0.9s-0.2-0.5-0.4-0.6S35,38.1,34.8,38
		s-0.4-0.2-0.5-0.2s-0.3-0.1-0.4-0.1s-0.2,0-0.2,0c-0.3,0-0.5,0-0.8,0.1s-0.4,0.1-0.6,0.3s-0.3,0.2-0.4,0.4s-0.2,0.3-0.3,0.4
		c-0.2,0.3-0.3,0.7-0.3,1.1v5.8H29.9z"/>
	<path id="XMLID_56_" class="st5" d="M44.4,36.6c0.4,0.2,0.8,0.4,1,0.6s0.5,0.5,0.6,0.8s0.3,0.6,0.4,0.8s0.1,0.5,0.1,0.7
		s0,0.4,0,0.5v0.1v5.7h-1.4v-2.8c0-0.3-0.1-0.5-0.2-0.7s-0.3-0.3-0.5-0.5s-0.4-0.2-0.6-0.3s-0.4-0.1-0.6-0.1s-0.4-0.1-0.6-0.1
		c0,0-0.1,0-0.2,0s-0.2,0-0.4,0.1s-0.3,0.1-0.5,0.1s-0.3,0.2-0.5,0.3s-0.3,0.3-0.4,0.4s-0.2,0.4-0.3,0.7c0,0.1,0,0.2,0,0.2
		c0,0.2,0,0.4,0.1,0.5s0.2,0.3,0.4,0.4s0.3,0.2,0.5,0.2s0.4,0.1,0.6,0.1s0.4,0,0.5,0.1s0.3,0,0.4,0h0.1v1.3h-1.6
		c-0.3,0-0.6-0.1-0.9-0.2s-0.5-0.3-0.8-0.6s-0.4-0.5-0.5-0.8s-0.2-0.7-0.2-1c0-0.3,0.1-0.7,0.2-1.1s0.4-0.7,0.8-1
		c0.2-0.2,0.4-0.4,0.7-0.5s0.5-0.2,0.7-0.3s0.5-0.1,0.7-0.2s0.4-0.1,0.7-0.1c0.3,0,0.6,0,0.9,0.1s0.5,0.1,0.7,0.2
		c0.2,0.1,0.5,0.2,0.7,0.3v-0.5c0-0.3,0-0.6-0.1-0.8s-0.2-0.4-0.3-0.6s-0.2-0.3-0.4-0.4S44.1,38.1,44,38c-0.3-0.2-0.7-0.3-1.1-0.3
		c-0.4,0-0.7,0.1-1,0.2s-0.5,0.3-0.7,0.5s-0.3,0.4-0.4,0.6s-0.2,0.4-0.2,0.6h-1.5c0-0.5,0.1-1,0.3-1.3s0.4-0.7,0.6-0.9
		s0.5-0.4,0.8-0.6s0.5-0.2,0.8-0.3s0.5-0.1,0.7-0.1s0.3,0,0.4,0h0.1C43.5,36.4,43.9,36.4,44.4,36.6z"/>
	<path id="XMLID_54_" class="st5" d="M50,36.4c0,0,0.1,0,0.3,0c0.1,0,0.3,0,0.5,0.1c0.2,0,0.4,0.1,0.6,0.2c0.2,0.1,0.4,0.3,0.6,0.5
		c0.2,0.2,0.3,0.5,0.4,0.8s0.2,0.7,0.2,1.2v6.7h-1.4v-6.7c0-0.3-0.1-0.5-0.1-0.7c0-0.1-0.1-0.2-0.1-0.3S50.7,38,50.6,38
		c-0.1-0.1-0.2-0.1-0.3-0.2c-0.1,0-0.2-0.1-0.4-0.1c-0.2,0-0.4,0-0.6,0.1C49.2,37.9,49.1,38,49,38s-0.2,0.1-0.3,0.2
		s-0.1,0.1-0.1,0.1l-1-1c0.2-0.2,0.3-0.4,0.6-0.5c0.2-0.1,0.4-0.2,0.7-0.4S49.6,36.4,50,36.4z"/>
	<path id="XMLID_52_" class="st5" d="M56.2,36.4h2.7v6.8c0,0.5-0.1,0.8-0.2,1.1s-0.3,0.6-0.4,0.8c-0.2,0.2-0.4,0.4-0.6,0.5
		c-0.2,0.1-0.4,0.2-0.6,0.3c-0.2,0.1-0.4,0.1-0.5,0.1c-0.1,0-0.2,0-0.3,0c-0.4,0-0.8-0.1-1-0.2c-0.3-0.1-0.5-0.2-0.7-0.4
		c-0.2-0.2-0.4-0.3-0.6-0.5L55,44c0,0,0.1,0.1,0.1,0.1c0.1,0.1,0.2,0.1,0.3,0.2c0.1,0.1,0.2,0.1,0.4,0.2c0.2,0.1,0.4,0.1,0.6,0.1
		c0.1,0,0.3,0,0.4-0.1c0.1,0,0.2-0.1,0.3-0.2s0.1-0.1,0.2-0.2s0.1-0.2,0.1-0.3c0.1-0.2,0.1-0.5,0.1-0.7v-5.5h-1.3V36.4z"/>
	<path id="XMLID_50_" class="st5" d="M62.5,45.8h-1.4v-9.4h1.4V45.8z"/>
	<path id="XMLID_48_" class="st5" d="M70.8,45.8v-5.9c0-0.4-0.1-0.8-0.3-1.1c-0.1-0.1-0.2-0.3-0.3-0.4c-0.1-0.1-0.3-0.2-0.4-0.3
		c-0.2-0.1-0.4-0.2-0.6-0.2c-0.2-0.1-0.5-0.1-0.8-0.1s-0.6,0-0.8,0.1c-0.2,0.1-0.4,0.1-0.6,0.2s-0.3,0.2-0.4,0.3
		c-0.1,0.1-0.2,0.3-0.3,0.4c-0.2,0.3-0.3,0.7-0.3,1.1V43c0,0.2,0.1,0.4,0.1,0.6c0.1,0.2,0.1,0.3,0.2,0.5c0.1,0.2,0.2,0.3,0.4,0.4
		c0.2,0.1,0.4,0.2,0.6,0.2c0.2,0,0.3,0,0.5-0.1c0.1-0.1,0.2-0.2,0.3-0.2l0.9,0.9c-0.1,0.1-0.3,0.3-0.5,0.4c-0.2,0.1-0.3,0.2-0.5,0.3
		c-0.2,0.1-0.5,0.1-0.7,0.1c-0.1,0-0.2,0-0.3,0c-0.1,0-0.2,0-0.3,0c-0.3-0.1-0.6-0.2-0.9-0.4s-0.5-0.4-0.7-0.7
		c-0.2-0.3-0.3-0.5-0.4-0.9c-0.1-0.3-0.1-0.6-0.1-1v-3.1c0.1-0.6,0.2-1,0.3-1.4s0.4-0.7,0.6-1c0.2-0.3,0.5-0.5,0.8-0.6
		c0.3-0.2,0.5-0.3,0.8-0.3c0.3-0.1,0.5-0.1,0.7-0.1c0.2,0,0.4,0,0.5,0h0.1h0.1c0.1,0,0.3,0,0.5,0c0.2,0,0.4,0.1,0.7,0.1
		c0.3,0.1,0.5,0.2,0.8,0.3c0.3,0.2,0.5,0.4,0.8,0.6c0.2,0.3,0.4,0.6,0.6,1s0.3,0.9,0.4,1.4v5.9H70.8z"/>
	<path id="XMLID_46_" class="st5" d="M72.5,33v2.3h-5.8V34h2.4v-1h1.3v1h0.8v-1H72.5z"/>
	<path id="XMLID_44_" class="st5" d="M82.4,42.6c-0.1,0.6-0.2,1.2-0.5,1.7c-0.1,0.2-0.3,0.4-0.4,0.6c-0.2,0.2-0.4,0.4-0.7,0.5
		c-0.3,0.2-0.6,0.3-0.9,0.4S79.2,46,78.7,46c-0.5,0-0.8,0-1.2-0.1s-0.6-0.2-0.9-0.4c-0.3-0.2-0.5-0.3-0.7-0.5
		c-0.2-0.2-0.3-0.4-0.4-0.6c-0.3-0.5-0.4-1.1-0.5-1.7v-1.9h2.6V42h-1.2v0.6c0,0.3,0,0.5,0.1,0.7c0.1,0.2,0.2,0.4,0.3,0.5
		c0.1,0.1,0.2,0.3,0.4,0.4c0.1,0.1,0.3,0.2,0.4,0.2c0.3,0.2,0.7,0.2,1.1,0.3c0.4,0,0.8-0.1,1.1-0.3c0.1-0.1,0.3-0.1,0.4-0.2
		c0.1-0.1,0.3-0.2,0.4-0.4c0.1-0.1,0.2-0.3,0.3-0.5c0.1-0.2,0.1-0.4,0.1-0.7v-2.9c0-0.2,0-0.5-0.1-0.7c-0.1-0.2-0.2-0.4-0.3-0.5
		c-0.1-0.1-0.2-0.3-0.4-0.4c-0.1-0.1-0.3-0.2-0.4-0.2c-0.3-0.1-0.7-0.2-1.1-0.2h-0.1c-0.1,0-0.2,0-0.4,0s-0.4,0.1-0.6,0.2
		c-0.2,0.1-0.4,0.2-0.6,0.4s-0.3,0.4-0.4,0.7h-1.4c0-0.2,0.1-0.3,0.2-0.5s0.2-0.4,0.3-0.6s0.3-0.4,0.5-0.6c0.2-0.2,0.4-0.4,0.7-0.5
		s0.6-0.3,0.9-0.4c0.3-0.1,0.7-0.1,1.2-0.1c0.4,0,0.8,0,1.2,0.1s0.6,0.2,0.9,0.4c0.3,0.2,0.5,0.3,0.7,0.5c0.2,0.2,0.3,0.4,0.4,0.6
		c0.3,0.5,0.4,1.1,0.5,1.7V42.6z"/>
	<path id="XMLID_42_" class="st5" d="M85.7,36.4v5.9c0,0.4,0.1,0.7,0.2,1s0.2,0.5,0.4,0.7s0.3,0.3,0.5,0.4s0.4,0.2,0.5,0.2
		s0.3,0.1,0.4,0.1s0.2,0,0.2,0c0.4,0,0.7-0.1,0.9-0.2s0.5-0.3,0.6-0.4s0.3-0.4,0.4-0.5s0.2-0.4,0.2-0.6s0.1-0.3,0.1-0.5s0-0.2,0-0.2
		v-5.9h1.4v9.4h-1.4v-1.3c0,0.2-0.1,0.3-0.1,0.5s-0.2,0.2-0.3,0.3s-0.2,0.2-0.4,0.3s-0.3,0.1-0.4,0.2c-0.3,0.1-0.7,0.2-1.1,0.2h-0.3
		c-0.5,0-1-0.1-1.4-0.2s-0.7-0.3-0.9-0.6s-0.4-0.5-0.6-0.8s-0.2-0.6-0.3-0.8s-0.1-0.5-0.1-0.7s0-0.4,0-0.5v-0.1v-5.9H85.7z"/>
	<path id="XMLID_39_" class="st5" d="M95.4,45.8h-1.4v-9.4h1.4V45.8z M98.3,45.8h-1.4v-9.4h1.4V45.8z"/>
	<path id="XMLID_37_" class="st5" d="M105.4,36.6c0.4,0.2,0.8,0.4,1,0.6s0.5,0.5,0.6,0.8s0.3,0.6,0.4,0.8s0.1,0.5,0.1,0.7
		s0,0.4,0,0.5v0.1v5.7h-1.4v-2.8c0-0.3-0.1-0.5-0.2-0.7s-0.3-0.3-0.5-0.5s-0.4-0.2-0.6-0.3s-0.4-0.1-0.6-0.1s-0.4-0.1-0.6-0.1
		c0,0-0.1,0-0.2,0s-0.2,0-0.4,0.1s-0.3,0.1-0.5,0.1s-0.3,0.2-0.5,0.3s-0.3,0.3-0.4,0.4s-0.2,0.4-0.3,0.7c0,0.1,0,0.2,0,0.2
		c0,0.2,0,0.4,0.1,0.5s0.2,0.3,0.4,0.4s0.3,0.2,0.5,0.2s0.4,0.1,0.6,0.1s0.4,0,0.5,0.1s0.3,0,0.4,0h0.1v1.3h-1.6
		c-0.3,0-0.6-0.1-0.9-0.2s-0.5-0.3-0.8-0.6s-0.4-0.5-0.5-0.8s-0.2-0.7-0.2-1c0-0.3,0.1-0.7,0.2-1.1s0.4-0.7,0.8-1
		c0.2-0.2,0.4-0.4,0.7-0.5s0.5-0.2,0.7-0.3s0.5-0.1,0.7-0.2s0.4-0.1,0.7-0.1c0.3,0,0.6,0,0.9,0.1s0.5,0.1,0.7,0.2
		c0.2,0.1,0.5,0.2,0.7,0.3v-0.5c0-0.3,0-0.6-0.1-0.8s-0.2-0.4-0.3-0.6s-0.2-0.3-0.4-0.4s-0.3-0.2-0.4-0.3c-0.3-0.2-0.7-0.3-1.1-0.3
		c-0.4,0-0.7,0.1-1,0.2s-0.5,0.3-0.7,0.5s-0.3,0.4-0.4,0.6s-0.2,0.4-0.2,0.6h-1.5c0-0.5,0.1-1,0.3-1.3s0.4-0.7,0.6-0.9
		s0.5-0.4,0.8-0.6s0.5-0.2,0.8-0.3s0.5-0.1,0.7-0.1s0.3,0,0.4,0h0.1C104.5,36.4,105,36.4,105.4,36.6z"/>
	<path id="XMLID_34_" class="st5" d="M110.6,37.2v0.7h2.5v1.3h-3.2c-0.2,0-0.3,0-0.4-0.1s-0.1-0.1-0.2-0.2c0-0.1-0.1-0.2-0.1-0.3
		v-1.4H110.6z M110.6,43v0.7h2.5V45h-3.2c-0.2,0-0.3,0-0.4-0.1s-0.1-0.1-0.2-0.2c0-0.1-0.1-0.2-0.1-0.3V43H110.6z"/>
	<path id="XMLID_32_" class="st5" d="M122.3,33v9.7c-0.1,0.6-0.2,1.2-0.5,1.7c-0.1,0.2-0.3,0.4-0.4,0.6s-0.4,0.4-0.7,0.5
		s-0.6,0.3-0.9,0.4S119,46,118.6,46c-0.5,0-0.8,0-1.2-0.1s-0.6-0.2-0.9-0.4s-0.5-0.3-0.7-0.5s-0.3-0.4-0.4-0.6
		c-0.3-0.5-0.4-1.1-0.5-1.7v-6.2h1.4v6.2c0,0.3,0,0.5,0.1,0.7s0.2,0.4,0.3,0.5s0.2,0.3,0.4,0.4s0.3,0.2,0.4,0.2
		c0.3,0.1,0.7,0.2,1.1,0.2c0.4,0,0.8-0.1,1.1-0.2c0.1-0.1,0.3-0.1,0.4-0.2s0.3-0.2,0.4-0.4s0.2-0.3,0.3-0.5s0.1-0.4,0.1-0.7V33
		H122.3z"/>
	<path id="XMLID_30_" class="st5" d="M129.4,36.6c0.4,0.2,0.8,0.4,1,0.6s0.5,0.5,0.6,0.8s0.3,0.6,0.4,0.8s0.1,0.5,0.1,0.7
		s0,0.4,0,0.5v0.1v5.7h-1.4v-2.8c0-0.3-0.1-0.5-0.2-0.7s-0.3-0.3-0.5-0.5s-0.4-0.2-0.6-0.3s-0.4-0.1-0.6-0.1s-0.4-0.1-0.6-0.1
		c0,0-0.1,0-0.2,0s-0.2,0-0.4,0.1s-0.3,0.1-0.5,0.1s-0.3,0.2-0.5,0.3s-0.3,0.3-0.4,0.4s-0.2,0.4-0.3,0.7c0,0.1,0,0.2,0,0.2
		c0,0.2,0,0.4,0.1,0.5s0.2,0.3,0.4,0.4s0.3,0.2,0.5,0.2s0.4,0.1,0.6,0.1s0.4,0,0.5,0.1s0.3,0,0.4,0h0.1v1.3h-1.6
		c-0.3,0-0.6-0.1-0.9-0.2s-0.5-0.3-0.8-0.6s-0.4-0.5-0.5-0.8s-0.2-0.7-0.2-1c0-0.3,0.1-0.7,0.2-1.1s0.4-0.7,0.8-1
		c0.2-0.2,0.4-0.4,0.7-0.5s0.5-0.2,0.7-0.3s0.5-0.1,0.7-0.2s0.4-0.1,0.7-0.1c0.3,0,0.6,0,0.9,0.1s0.5,0.1,0.7,0.2
		c0.2,0.1,0.5,0.2,0.7,0.3v-0.5c0-0.3,0-0.6-0.1-0.8s-0.2-0.4-0.3-0.6s-0.2-0.3-0.4-0.4s-0.3-0.2-0.4-0.3c-0.3-0.2-0.7-0.3-1.1-0.3
		c-0.4,0-0.7,0.1-1,0.2s-0.5,0.3-0.7,0.5s-0.3,0.4-0.4,0.6s-0.2,0.4-0.2,0.6h-1.5c0-0.5,0.1-1,0.3-1.3s0.4-0.7,0.6-0.9
		s0.5-0.4,0.8-0.6s0.5-0.2,0.8-0.3s0.5-0.1,0.7-0.1s0.3,0,0.4,0h0.1C128.5,36.4,129,36.4,129.4,36.6z"/>
	<path id="XMLID_28_" class="st5" d="M135,36.4c0,0,0.1,0,0.3,0s0.3,0,0.5,0.1s0.4,0.1,0.6,0.2s0.4,0.3,0.6,0.5s0.3,0.5,0.4,0.8
		s0.2,0.7,0.2,1.2v6.7h-1.4v-6.7c0-0.3-0.1-0.5-0.1-0.7c0-0.1-0.1-0.2-0.1-0.3s-0.1-0.2-0.2-0.2s-0.2-0.1-0.3-0.2s-0.2-0.1-0.4-0.1
		c-0.2,0-0.4,0-0.6,0.1S134.1,38,134,38s-0.2,0.1-0.3,0.2s-0.1,0.1-0.1,0.1l-1-1c0.2-0.2,0.3-0.4,0.6-0.5c0.2-0.1,0.4-0.2,0.7-0.4
		S134.6,36.4,135,36.4z"/>
	<path id="XMLID_26_" class="st5" d="M147.1,36.4v6.8c0,0.4-0.1,0.7-0.2,1c-0.1,0.3-0.3,0.5-0.4,0.7c-0.2,0.2-0.4,0.4-0.6,0.5
		c-0.2,0.1-0.4,0.2-0.6,0.3c-0.2,0.1-0.4,0.1-0.6,0.1c-0.2,0-0.3,0-0.4,0h-1.8c-0.5,0-0.9,0-1.2-0.1c-0.3-0.1-0.6-0.2-0.8-0.4
		c-0.2-0.2-0.4-0.3-0.5-0.5s-0.2-0.4-0.3-0.6c-0.1-0.2-0.1-0.4-0.1-0.5c0-0.2,0-0.3,0-0.4c0-0.4,0.1-0.7,0.2-0.9
		c0.1-0.3,0.3-0.5,0.5-0.6c0.2-0.2,0.3-0.3,0.5-0.4c0.2-0.1,0.2-0.1,0.3-0.1c-0.2,0-0.4-0.1-0.5-0.2c-0.1-0.1-0.3-0.2-0.4-0.3
		s-0.2-0.2-0.3-0.3c-0.1-0.1-0.1-0.2-0.2-0.4c-0.1-0.3-0.2-0.6-0.2-1c0-0.3,0-0.6,0.1-0.9c0.1-0.3,0.2-0.5,0.3-0.7
		c0.1-0.2,0.2-0.4,0.4-0.5c0.1-0.1,0.3-0.2,0.4-0.3c0.3-0.2,0.7-0.3,1.2-0.3h1.9v1.3h-1.1c-0.2,0-0.4,0-0.6,0.1s-0.3,0.1-0.4,0.2
		s-0.2,0.1-0.3,0.2s-0.1,0.2-0.2,0.3c-0.1,0.2-0.2,0.4-0.2,0.7c0,0.2,0,0.4,0.1,0.6c0.1,0.2,0.2,0.3,0.3,0.4
		c0.1,0.1,0.2,0.2,0.4,0.2c0.1,0.1,0.3,0.1,0.4,0.1s0.2,0,0.3,0s0.1,0,0.2,0h1.1v1.3h-1.1c-0.2,0-0.5,0-0.6,0.1
		c-0.2,0.1-0.3,0.1-0.4,0.2c-0.1,0.1-0.2,0.2-0.3,0.3s-0.1,0.2-0.1,0.3c0,0.1,0,0.2-0.1,0.2c0,0.1,0,0.1,0,0.1c0,0.2,0,0.4,0.1,0.6
		c0.1,0.2,0.1,0.3,0.2,0.4c0.1,0.1,0.2,0.2,0.3,0.2s0.2,0.1,0.4,0.1c0.1,0,0.2,0,0.3,0c0.1,0,0.2,0,0.2,0h0h1.7
		c0.3,0,0.6-0.1,0.8-0.2c0.2-0.1,0.3-0.3,0.4-0.5c0.1-0.2,0.2-0.4,0.2-0.7v-6.8H147.1z"/>
	<path id="XMLID_24_" class="st5" d="M151,45.8h-1.4v-9.4h1.4V45.8z"/>
	<path id="XMLID_22_" class="st5" d="M159.3,45.8v-5.9c0-0.4-0.1-0.8-0.3-1.1c-0.1-0.1-0.2-0.3-0.3-0.4c-0.1-0.1-0.3-0.2-0.4-0.3
		c-0.2-0.1-0.4-0.2-0.6-0.2c-0.2-0.1-0.5-0.1-0.8-0.1s-0.6,0-0.8,0.1c-0.2,0.1-0.4,0.1-0.6,0.2s-0.3,0.2-0.4,0.3
		c-0.1,0.1-0.2,0.3-0.3,0.4c-0.2,0.3-0.3,0.7-0.3,1.1V43c0,0.2,0.1,0.4,0.1,0.6c0.1,0.2,0.1,0.3,0.2,0.5c0.1,0.2,0.2,0.3,0.4,0.4
		c0.2,0.1,0.4,0.2,0.6,0.2c0.2,0,0.3,0,0.5-0.1c0.1-0.1,0.2-0.2,0.3-0.2l0.9,0.9c-0.1,0.1-0.3,0.3-0.5,0.4c-0.2,0.1-0.3,0.2-0.5,0.3
		c-0.2,0.1-0.5,0.1-0.7,0.1c-0.1,0-0.2,0-0.3,0c-0.1,0-0.2,0-0.3,0c-0.3-0.1-0.6-0.2-0.9-0.4s-0.5-0.4-0.7-0.7
		c-0.2-0.3-0.3-0.5-0.4-0.9c-0.1-0.3-0.1-0.6-0.1-1v-3.1c0.1-0.6,0.2-1,0.3-1.4s0.4-0.7,0.6-1c0.2-0.3,0.5-0.5,0.8-0.6
		c0.3-0.2,0.5-0.3,0.8-0.3c0.3-0.1,0.5-0.1,0.7-0.1c0.2,0,0.4,0,0.5,0h0.1h0.1c0.1,0,0.3,0,0.5,0c0.2,0,0.4,0.1,0.7,0.1
		c0.3,0.1,0.5,0.2,0.8,0.3c0.3,0.2,0.5,0.4,0.8,0.6c0.2,0.3,0.4,0.6,0.6,1s0.3,0.9,0.4,1.4v5.9H159.3z"/>
	<path id="XMLID_20_" class="st5" d="M161,33v2.3h-5.8V34h2.4v-1h1.3v1h0.8v-1H161z"/>
	<path id="XMLID_18_" class="st5" d="M170.9,42.6c-0.1,0.6-0.2,1.2-0.5,1.7c-0.1,0.2-0.3,0.4-0.4,0.6c-0.2,0.2-0.4,0.4-0.7,0.5
		c-0.3,0.2-0.6,0.3-0.9,0.4s-0.7,0.1-1.2,0.1c-0.5,0-0.8,0-1.2-0.1s-0.6-0.2-0.9-0.4c-0.3-0.2-0.5-0.3-0.7-0.5
		c-0.2-0.2-0.3-0.4-0.4-0.6c-0.3-0.5-0.4-1.1-0.5-1.7v-1.9h2.6V42h-1.2v0.6c0,0.3,0,0.5,0.1,0.7c0.1,0.2,0.2,0.4,0.3,0.5
		c0.1,0.1,0.2,0.3,0.4,0.4c0.1,0.1,0.3,0.2,0.4,0.2c0.3,0.2,0.7,0.2,1.1,0.3c0.4,0,0.8-0.1,1.1-0.3c0.1-0.1,0.3-0.1,0.4-0.2
		c0.1-0.1,0.3-0.2,0.4-0.4c0.1-0.1,0.2-0.3,0.3-0.5c0.1-0.2,0.1-0.4,0.1-0.7v-2.9c0-0.2,0-0.5-0.1-0.7c-0.1-0.2-0.2-0.4-0.3-0.5
		c-0.1-0.1-0.2-0.3-0.4-0.4c-0.1-0.1-0.3-0.2-0.4-0.2c-0.3-0.1-0.7-0.2-1.1-0.2h-0.1c-0.1,0-0.2,0-0.4,0s-0.4,0.1-0.6,0.2
		c-0.2,0.1-0.4,0.2-0.6,0.4s-0.3,0.4-0.4,0.7h-1.4c0-0.2,0.1-0.3,0.2-0.5s0.2-0.4,0.3-0.6s0.3-0.4,0.5-0.6c0.2-0.2,0.4-0.4,0.7-0.5
		s0.6-0.3,0.9-0.4c0.3-0.1,0.7-0.1,1.2-0.1c0.4,0,0.8,0,1.2,0.1s0.6,0.2,0.9,0.4c0.3,0.2,0.5,0.3,0.7,0.5c0.2,0.2,0.3,0.4,0.4,0.6
		c0.3,0.5,0.4,1.1,0.5,1.7V42.6z"/>
	<path id="XMLID_16_" class="st5" d="M174.2,36.4v5.9c0,0.4,0.1,0.7,0.2,1c0.1,0.3,0.2,0.5,0.4,0.7c0.2,0.2,0.3,0.3,0.5,0.4
		c0.2,0.1,0.4,0.2,0.5,0.2c0.2,0,0.3,0.1,0.4,0.1c0.1,0,0.2,0,0.2,0c0.4,0,0.7-0.1,0.9-0.2c0.3-0.1,0.5-0.3,0.6-0.4
		c0.2-0.2,0.3-0.4,0.4-0.5c0.1-0.2,0.2-0.4,0.2-0.6s0.1-0.3,0.1-0.5s0-0.2,0-0.2v-5.9h1.4v9.4h-1.4v-1.3c0,0.2-0.1,0.3-0.1,0.5
		s-0.2,0.2-0.3,0.3s-0.2,0.2-0.4,0.3s-0.3,0.1-0.4,0.2c-0.3,0.1-0.7,0.2-1.1,0.2h-0.3c-0.5,0-1-0.1-1.4-0.2
		c-0.4-0.1-0.7-0.3-0.9-0.6c-0.2-0.2-0.4-0.5-0.6-0.8s-0.2-0.6-0.3-0.8c-0.1-0.3-0.1-0.5-0.1-0.7s0-0.4,0-0.5v-0.1v-5.9H174.2z"/>
</g>
</svg>