<!-- Generator: Adobe Illustrator 19.0.0, SVG Export Plug-In  -->
<svg version="1.1"
	 xmlns="http://www.w3.org/2000/svg" xmlns:xlink="http://www.w3.org/1999/xlink" xmlns:a="http://ns.adobe.com/AdobeSVGViewerExtensions/3.0/"
	 x="0px" y="0px" width="217.9px" height="67.3px" viewBox="0 0 217.9 67.3" style="enable-background:new 0 0 217.9 67.3;"
	 xml:space="preserve">
<style type="text/css">
	.st0{fill:#F2673A;}
	.st1{fill:#0C6B88;}
	.st2{fill:#FFFFFF;}
</style>
<defs>
</defs>
<g id="XMLID_34_">
	<path id="XMLID_353_" class="st0" d="M0,3.9C0,1.7,1.9,0,4,0c2.1,0,4,1.7,4,3.9c0,2.4-1.8,4-4,4C1.9,7.9,0,6.3,0,3.9z"/>
	<rect id="XMLID_350_" y="15.5" class="st1" width="8" height="33"/>
	<path id="XMLID_342_" class="st1" d="M87.8,0.9c-2.1,0-4,1.7-4,3.9c0,2.4,1.8,4,4,4c2.1,0,4-1.6,4-4C91.8,2.6,90,0.9,87.8,0.9z
		 M83.9,16.3v33h8v-33H83.9z"/>
	<g id="XMLID_103_">
		<g id="XMLID_105_">
			<path id="XMLID_263_" class="st1" d="M35.1,61.8L31.8,56h1.5l1.9,3.5c0.3,0.5,0.5,1.2,0.5,1.2s0.3-0.8,0.5-1.2l1.9-3.5h1.4
				l-3.1,5.8v2.8h-1.3V61.8z"/>
			<path id="XMLID_260_" class="st1" d="M38.7,61.9c0-1.6,1.3-2.8,2.9-2.8c1.6,0,2.8,1.2,2.8,2.8c0,1.6-1.2,2.8-2.8,2.8
				C40,64.7,38.7,63.5,38.7,61.9z M43.1,61.9c0-1-0.6-1.7-1.5-1.7c-0.9,0-1.5,0.7-1.5,1.7c0,1,0.6,1.7,1.5,1.7
				C42.5,63.6,43.1,62.9,43.1,61.9z"/>
			<path id="XMLID_258_" class="st1" d="M45.7,62.4v-3.2H47v3c0,0.8,0.4,1.2,1.1,1.2c0.8,0,1.3-0.5,1.3-1.4v-2.9h1.3v5.3h-1.3l0-1
				c-0.3,0.7-1,1.1-1.8,1.1C46.5,64.7,45.7,63.8,45.7,62.4z"/>
			<path id="XMLID_256_" class="st1" d="M52.3,59.3h1.3l0,1c0.4-0.8,1-1.1,1.5-1.1c0.4,0,0.6,0.1,0.9,0.2l-0.4,1.1
				c-0.2-0.1-0.4-0.2-0.7-0.2c-0.8,0-1.3,0.4-1.3,1.6v2.6h-1.3V59.3z"/>
			<path id="XMLID_253_" class="st1" d="M59.6,61.9c0-1.6,1.3-2.8,2.9-2.8c1.6,0,2.8,1.2,2.8,2.8c0,1.6-1.2,2.8-2.8,2.8
				C60.9,64.7,59.6,63.5,59.6,61.9z M64,61.9c0-1-0.6-1.7-1.5-1.7c-0.9,0-1.5,0.7-1.5,1.7c0,1,0.6,1.7,1.5,1.7
				C63.4,63.6,64,62.9,64,61.9z"/>
			<path id="XMLID_251_" class="st1" d="M66.7,59.3H68l0,1c0.3-0.7,1-1.1,1.8-1.1c1.2,0,2,0.8,2,2.3v3.1h-1.3v-3
				c0-0.8-0.4-1.2-1.1-1.2c-0.8,0-1.4,0.5-1.4,1.4v2.9h-1.3V59.3z"/>
			<path id="XMLID_248_" class="st1" d="M76,63.6c0.7,0,1.2-0.3,1.5-0.6l0.7,0.8c-0.5,0.5-1.2,0.9-2.2,0.9c-1.8,0-3-1.2-3-2.8
				c0-1.6,1.2-2.8,2.8-2.8c1.8,0,2.8,1.3,2.7,3.2h-4.3C74.4,63.1,75,63.6,76,63.6z M77.3,61.5c-0.1-0.7-0.6-1.2-1.4-1.2
				c-0.8,0-1.4,0.5-1.5,1.2H77.3z"/>
			<path id="XMLID_246_" class="st1" d="M82.3,63.6l0.9-0.6c0.3,0.5,0.8,0.7,1.4,0.7c0.6,0,0.9-0.2,0.9-0.6c0-0.4-0.4-0.5-1.3-0.7
				c-0.8-0.2-1.6-0.6-1.6-1.6c0-1.1,0.8-1.6,1.9-1.6c0.8,0,1.4,0.4,1.8,0.8l-0.7,0.7c-0.3-0.3-0.6-0.5-1.1-0.5
				c-0.5,0-0.7,0.2-0.7,0.5c0,0.4,0.3,0.5,1.2,0.7c0.8,0.2,1.7,0.5,1.7,1.7c0,0.9-0.6,1.7-2.1,1.7C83.5,64.7,82.7,64.1,82.3,63.6z"
				/>
			<path id="XMLID_244_" class="st1" d="M88.2,62.8v-2.4h-0.8v-1.1h0.8v-2.8h1.3v2.8h1.4v1.1h-1.4v2.5c0,0.6,0.2,0.8,0.5,0.8
				c0.3,0,0.5-0.1,0.6-0.3l0.6,0.9c-0.3,0.3-0.7,0.5-1.4,0.5C88.9,64.7,88.2,64.2,88.2,62.8z"/>
			<path id="XMLID_241_" class="st1" d="M92,61.9c0-1.6,1.3-2.8,2.9-2.8c1.6,0,2.8,1.2,2.8,2.8c0,1.6-1.2,2.8-2.8,2.8
				C93.3,64.7,92,63.5,92,61.9z M96.4,61.9c0-1-0.6-1.7-1.5-1.7c-0.9,0-1.5,0.7-1.5,1.7c0,1,0.6,1.7,1.5,1.7
				C95.8,63.6,96.4,62.9,96.4,61.9z"/>
			<path id="XMLID_237_" class="st1" d="M99.1,59.3h1.3l0,1c0.3-0.7,1-1.1,1.9-1.1c1.4,0,2.5,1.1,2.5,2.7c0,1.6-1.1,2.8-2.5,2.8
				c-0.9,0-1.5-0.4-1.8-1v3.6h-1.3V59.3z M103.3,61.9c0-1-0.6-1.6-1.5-1.6c-0.9,0-1.5,0.7-1.5,1.6c0,1,0.6,1.7,1.5,1.7
				C102.8,63.5,103.3,62.9,103.3,61.9z"/>
			<path id="XMLID_232_" class="st1" d="M108.4,63.6l0.9-0.6c0.3,0.5,0.8,0.7,1.4,0.7c0.6,0,0.9-0.2,0.9-0.6c0-0.4-0.4-0.5-1.3-0.7
				c-0.8-0.2-1.6-0.6-1.6-1.6c0-1.1,0.8-1.6,1.9-1.6c0.8,0,1.4,0.4,1.8,0.8l-0.7,0.7c-0.3-0.3-0.6-0.5-1.1-0.5
				c-0.5,0-0.7,0.2-0.7,0.5c0,0.4,0.3,0.5,1.2,0.7c0.8,0.2,1.7,0.5,1.7,1.7c0,0.9-0.6,1.7-2.1,1.7C109.6,64.7,108.8,64.1,108.4,63.6
				z"/>
			<path id="XMLID_230_" class="st1" d="M114.1,55.5h1.3v4.7c0.3-0.7,1-1,1.8-1c1.2,0,2,0.8,2,2.3v3.1h-1.3v-3
				c0-0.8-0.4-1.2-1.1-1.2c-0.8,0-1.4,0.5-1.4,1.4v2.9h-1.3V55.5z"/>
			<path id="XMLID_149_" class="st1" d="M120.4,61.9c0-1.6,1.3-2.8,2.9-2.8c1.6,0,2.8,1.2,2.8,2.8c0,1.6-1.2,2.8-2.8,2.8
				C121.7,64.7,120.4,63.5,120.4,61.9z M124.8,61.9c0-1-0.6-1.7-1.5-1.7c-0.9,0-1.5,0.7-1.5,1.7c0,1,0.6,1.7,1.5,1.7
				C124.2,63.6,124.8,62.9,124.8,61.9z"/>
			<path id="XMLID_146_" class="st1" d="M127.5,59.3h1.3l0,1c0.3-0.7,1-1.1,1.9-1.1c1.4,0,2.5,1.1,2.5,2.7c0,1.6-1.1,2.8-2.5,2.8
				c-0.9,0-1.5-0.4-1.8-1v3.6h-1.3V59.3z M131.7,61.9c0-1-0.6-1.6-1.5-1.6c-0.9,0-1.5,0.7-1.5,1.6c0,1,0.6,1.7,1.5,1.7
				C131.2,63.5,131.7,62.9,131.7,61.9z"/>
			<path id="XMLID_143_" class="st1" d="M134.4,59.3h1.3l0,1c0.3-0.7,1-1.1,1.9-1.1c1.4,0,2.5,1.1,2.5,2.7c0,1.6-1.1,2.8-2.5,2.8
				c-0.9,0-1.5-0.4-1.8-1v3.6h-1.3V59.3z M138.7,61.9c0-1-0.6-1.6-1.5-1.6c-0.9,0-1.5,0.7-1.5,1.6c0,1,0.6,1.7,1.5,1.7
				C138.1,63.5,138.7,62.9,138.7,61.9z"/>
			<path id="XMLID_140_" class="st1" d="M141.2,57.2c0-0.5,0.4-0.8,0.8-0.8c0.5,0,0.8,0.4,0.8,0.8c0,0.5-0.4,0.8-0.8,0.8
				C141.6,58,141.2,57.7,141.2,57.2z M141.4,59.3h1.3v5.3h-1.3V59.3z"/>
			<path id="XMLID_138_" class="st1" d="M144.3,59.3h1.3l0,1c0.3-0.7,1-1.1,1.8-1.1c1.2,0,2,0.8,2,2.3v3.1h-1.3v-3
				c0-0.8-0.4-1.2-1.1-1.2c-0.8,0-1.4,0.5-1.4,1.4v2.9h-1.3V59.3z"/>
			<path id="XMLID_134_" class="st1" d="M155.8,59.3v0.9h-0.9c0.2,0.2,0.3,0.5,0.3,0.9c0,1.1-0.9,1.9-2.1,1.9
				c-0.4,0-0.8-0.1-1.1-0.2c-0.2,0.1-0.3,0.3-0.3,0.5c0,0.3,0.2,0.4,0.6,0.5l1.3,0.1c1.5,0.1,2.3,0.7,2.3,1.7c0,1.1-0.9,1.9-2.9,1.9
				c-1.8,0-2.8-0.7-2.8-1.7c0-0.6,0.5-1,1.1-1.3c-0.5-0.2-0.7-0.6-0.7-1c0-0.5,0.3-0.8,0.7-1c-0.3-0.3-0.5-0.8-0.5-1.3
				c0-1.1,0.9-1.9,2.2-1.9c0.3,0,0.5,0,0.8,0.1H155.8z M151.5,65.5c0,0.6,0.5,0.9,1.5,0.9c1.1,0,1.6-0.3,1.6-0.9
				c0-0.4-0.3-0.6-1.2-0.7l-1.5-0.1C151.6,64.9,151.5,65.1,151.5,65.5z M154.1,61c0-0.6-0.4-0.9-1-0.9c-0.7,0-1,0.4-1,0.9
				c0,0.6,0.4,1,1,1C153.7,62,154.1,61.6,154.1,61z"/>
			<path id="XMLID_131_" class="st1" d="M159.5,61.9c0-1.6,1.1-2.7,2.5-2.7c0.9,0,1.5,0.4,1.8,1v-4.7h1.3v9.1h-1.3l0-1
				c-0.3,0.6-1,1.1-1.9,1.1C160.7,64.7,159.5,63.5,159.5,61.9z M163.9,61.9c0-1-0.6-1.6-1.5-1.6c-0.9,0-1.5,0.7-1.5,1.6
				c0,1,0.6,1.7,1.5,1.7C163.3,63.5,163.9,62.9,163.9,61.9z"/>
			<path id="XMLID_128_" class="st1" d="M169.4,63.6c0.7,0,1.2-0.3,1.5-0.6l0.7,0.8c-0.5,0.5-1.2,0.9-2.2,0.9c-1.8,0-3-1.2-3-2.8
				c0-1.6,1.2-2.8,2.8-2.8c1.8,0,2.8,1.3,2.7,3.2h-4.3C167.9,63.1,168.5,63.6,169.4,63.6z M170.7,61.5c-0.1-0.7-0.6-1.2-1.4-1.2
				c-0.8,0-1.4,0.5-1.5,1.2H170.7z"/>
			<path id="XMLID_126_" class="st1" d="M172.8,63.6l0.9-0.6c0.3,0.5,0.8,0.7,1.4,0.7c0.6,0,0.9-0.2,0.9-0.6c0-0.4-0.4-0.5-1.3-0.7
				c-0.8-0.2-1.6-0.6-1.6-1.6c0-1.1,0.8-1.6,1.9-1.6c0.8,0,1.4,0.4,1.8,0.8l-0.7,0.7c-0.3-0.3-0.6-0.5-1.1-0.5
				c-0.5,0-0.7,0.2-0.7,0.5c0,0.4,0.3,0.5,1.2,0.7c0.8,0.2,1.7,0.5,1.7,1.7c0,0.9-0.6,1.7-2.1,1.7C174,64.7,173.2,64.1,172.8,63.6z"
				/>
			<path id="XMLID_124_" class="st1" d="M178.8,62.8v-2.4H178v-1.1h0.8v-2.8h1.3v2.8h1.4v1.1H180v2.5c0,0.6,0.2,0.8,0.5,0.8
				c0.3,0,0.5-0.1,0.6-0.3l0.6,0.9c-0.3,0.3-0.7,0.5-1.4,0.5C179.4,64.7,178.8,64.2,178.8,62.8z"/>
			<path id="XMLID_121_" class="st1" d="M182.6,57.2c0-0.5,0.4-0.8,0.8-0.8c0.5,0,0.8,0.4,0.8,0.8c0,0.5-0.4,0.8-0.8,0.8
				C183,58,182.6,57.7,182.6,57.2z M182.8,59.3h1.3v5.3h-1.3V59.3z"/>
			<path id="XMLID_119_" class="st1" d="M185.8,59.3h1.3l0,1c0.3-0.7,1-1.1,1.8-1.1c1.2,0,2,0.8,2,2.3v3.1h-1.3v-3
				c0-0.8-0.4-1.2-1.1-1.2c-0.8,0-1.4,0.5-1.4,1.4v2.9h-1.3V59.3z"/>
			<path id="XMLID_116_" class="st1" d="M194.5,60.2c-0.7,0-1.1,0.3-1.4,0.6l-0.7-0.7c0.5-0.6,1.1-0.9,2.2-0.9
				c1.3,0,2.2,0.7,2.2,2.3v3.1h-1.3l0-0.8c-0.4,0.6-0.9,0.9-1.7,0.9c-1,0-1.9-0.5-1.9-1.7c0-1.1,0.9-1.6,2.1-1.6h1.4
				C195.5,60.6,195.2,60.2,194.5,60.2z M194.2,62.3c-0.6,0-0.9,0.2-0.9,0.7c0,0.5,0.4,0.7,1,0.7c0.7,0,1.3-0.4,1.3-0.9v-0.4H194.2z"
				/>
			<path id="XMLID_114_" class="st1" d="M198.7,62.8v-2.4h-0.8v-1.1h0.8v-2.8h1.3v2.8h1.4v1.1H200v2.5c0,0.6,0.2,0.8,0.5,0.8
				c0.3,0,0.5-0.1,0.6-0.3l0.6,0.9c-0.3,0.3-0.7,0.5-1.4,0.5C199.4,64.7,198.7,64.2,198.7,62.8z"/>
			<path id="XMLID_111_" class="st1" d="M202.6,57.2c0-0.5,0.4-0.8,0.8-0.8c0.5,0,0.8,0.4,0.8,0.8c0,0.5-0.4,0.8-0.8,0.8
				C203,58,202.6,57.7,202.6,57.2z M202.8,59.3h1.3v5.3h-1.3V59.3z"/>
			<path id="XMLID_108_" class="st1" d="M205.5,61.9c0-1.6,1.3-2.8,2.9-2.8c1.6,0,2.8,1.2,2.8,2.8c0,1.6-1.2,2.8-2.8,2.8
				C206.7,64.7,205.5,63.5,205.5,61.9z M209.9,61.9c0-1-0.6-1.7-1.5-1.7c-0.9,0-1.5,0.7-1.5,1.7c0,1,0.6,1.7,1.5,1.7
				C209.3,63.6,209.9,62.9,209.9,61.9z"/>
			<path id="XMLID_106_" class="st1" d="M212.5,59.3h1.3l0,1c0.3-0.7,1-1.1,1.8-1.1c1.2,0,2,0.8,2,2.3v3.1h-1.3v-3
				c0-0.8-0.4-1.2-1.1-1.2c-0.8,0-1.4,0.5-1.4,1.4v2.9h-1.3V59.3z"/>
		</g>
	</g>
	<path id="XMLID_95_" class="st1" d="M213.9,27.2l-3.9-3.9l0,0l-1.3-1.3l-1.2-1.2l-1.3-1.3l-3.6-3.6l-0.2-0.2l-3.8-3.8l-3.8,3.8
		l-16.3,16.3l-3.8,3.8l3.8,3.8l11.6,11.6l3.8,3.8l3.8-3.8l16.3-16.3l3.8-3.8L213.9,27.2z M193.7,47.3l-11.6-11.6l16.3-16.3l3.8,3.8
		l0.1,0.1l3.8,3.8l0.1,0.1L210,31L193.7,47.3z"/>
	<path id="XMLID_93_" class="st0" d="M213.9,27.1l1.8-1.8l0,0c3-3.2,2.9-8.2-0.2-11.3c-3.1-3.1-8.1-3.2-11.3-0.2l0,0l-5.6,5.6
		l3.9,3.9l5.6-5.6c1.1-1.1,2.8-1.1,3.8,0c1.1,1.1,1.1,2.8,0,3.8l-1.8,1.8L213.9,27.1"/>
	<line id="XMLID_92_" class="st2" x1="64.2" y1="48.8" x2="56.3" y2="48.8"/>
	<path id="XMLID_86_" class="st1" d="M115.9,42.4c-5.6,0-10.1-4.5-10.1-10.1c0-5.6,4.5-10.1,10.1-10.1c3.2,0,6,1.5,7.9,3.8l6-4.8
		c-3.3-4.1-8.3-6.7-13.9-6.7c-9.8,0-17.8,8-17.8,17.8s8,17.8,17.8,17.8c5.5,0,10.4-2.5,13.7-6.4l-5.9-4.9
		C121.8,41,119.1,42.4,115.9,42.4z"/>
	<polygon id="XMLID_85_" class="st2" points="23.8,20.2 23.8,20.2 23.8,15.9 23.8,16.2 	"/>
	<path id="XMLID_77_" class="st1" d="M33.9,15.4c-0.1,0-0.3,0-0.4,0c-0.1,0-0.2,0-0.3,0c-2.9,0-5.3,0.7-7.3,2
		c-0.7,0.4-1.3,0.8-2,1.2v-2.4l0-0.3h-8v48.4h8V60V47.1c2.8,2,6.3,3.2,10,3.2c9.6,0,17.4-7.8,17.4-17.4S43.5,15.4,33.9,15.4z
		 M33.9,42.7c-5.4,0-9.9-4.4-9.9-9.9s4.4-9.9,9.9-9.9s9.9,4.4,9.9,9.9S39.3,42.7,33.9,42.7z"/>
	<path id="XMLID_74_" class="st1" d="M75.7,16.5c-6-1.7-9.7,0.8-11.6,3v-3.2h-7.9v10h0v22.9H64V33.9c0-7.4,3.2-10.1,7.9-10.1
		c1.8,0,3.1,0.5,4.3,1.1l2.7-7.1C78,17.2,77,16.7,75.7,16.5z"/>
	<path id="XMLID_69_" class="st2" d="M142.5,36.4C142.5,36.4,142.5,36.4,142.5,36.4C142.5,36.4,142.5,36.4,142.5,36.4L142.5,36.4z"
		/>
	<path id="XMLID_64_" class="st2" d="M142.5,36.3C142.5,36.3,142.5,36.3,142.5,36.3C142.5,36.3,142.5,36.3,142.5,36.3L142.5,36.3z"
		/>
	<path id="XMLID_35_" class="st1" d="M169.1,36.3c0.3-1.3,0.5-2.6,0.5-4c0-0.8-0.1-1.5-0.1-2.2c-0.1-0.6-0.2-1.2-0.3-1.8
		c-1.8-7.9-8.9-13.8-17.3-13.8s-15.5,5.9-17.3,13.8c-0.3,1.3-0.5,2.6-0.5,4c0,0.2,0,0.4,0,0.6l0,0c0,0.3,0,0.5,0,0.8
		c0.1,2.4,0.5,4.6,1.4,6.5c1,2.2,2.3,4.1,3.9,5.6c1.6,1.6,3.6,2.8,5.9,3.6c2.3,0.8,4.7,1.3,7.2,1.3c2.7,0,5.2-0.5,7.7-1.6
		c2.4-1,4.7-2.8,6.6-5.2l-6.1-4.6c-1.1,1.3-2.3,2.4-3.8,3.3c-1.4,0.9-3.2,1.3-5.3,1.3c-2.4,0-4.4-0.7-6.1-2.1
		c-1.6-1.3-2.5-3.1-2.9-5.4c0,0,0-0.1,0-0.1c0,0,0,0,0,0h0H169.1z M145.1,23.7c1.5-1.5,3.5-2.2,6-2.2c2.7,0,4.8,0.7,6.3,2.2
		c1.5,1.4,2.3,3.4,2.3,5.9h-17.4C142.7,27.1,143.6,25.2,145.1,23.7z"/>
</g>
</svg>