<!-- Generator: Adobe Illustrator 19.0.0, SVG Export Plug-In  -->
<svg version="1.1"
	 xmlns="http://www.w3.org/2000/svg" xmlns:xlink="http://www.w3.org/1999/xlink" xmlns:a="http://ns.adobe.com/AdobeSVGViewerExtensions/3.0/"
	 x="0px" y="0px" width="318.3px" height="259.2px" viewBox="0 0 318.3 259.2" style="enable-background:new 0 0 318.3 259.2;"
	 xml:space="preserve">
<style type="text/css">
	.st0{fill:none;}
	.st1{fill:#086A87;}
	.st2{fill:none;stroke:#33CCCC;stroke-miterlimit:10;}
	.st3{fill:#33CCCC;}
</style>
<defs>
</defs>
<path class="st0" d="M297,247.8"/>
<g>
	<g>
		<path class="st1" d="M6,7.1H0V6.4l2.1-1.9c0.6-0.6,1-1,1.2-1.2C3.5,3.2,3.6,3,3.7,2.8c0.1-0.2,0.1-0.4,0.1-0.6
			c0-0.3-0.1-0.5-0.2-0.7C3.5,1.4,3.3,1.3,3,1.3c-0.3,0-0.6,0.1-0.8,0.2S1.6,1.8,1.3,2.1l-0.9-1c0.4-0.3,0.7-0.5,0.9-0.7
			c0.2-0.1,0.5-0.2,0.8-0.3S2.8,0,3.1,0C3.6,0,4,0.1,4.3,0.3C4.7,0.4,5,0.7,5.2,1c0.2,0.3,0.3,0.7,0.3,1c0,0.3-0.1,0.7-0.2,1
			C5.2,3.3,5,3.6,4.7,3.9C4.5,4.2,3.8,4.6,3.2,5.2L2,6.1v0h4V7.1z"/>
		<path class="st1" d="M11.3,1.8c0,0.5,0,0.9-0.3,1.2c-0.3,0.3-1,0.5-1,0.7v0c0,0.1,0.9,0.3,1.2,0.5c0.3,0.3,0.4,0.7,0.4,1.2
			c0,0.7-0.3,1.3-0.8,1.7c-0.5,0.4-1.5,0.6-2.4,0.6C7.5,7.6,7,7.5,6,7.2V5.9C7,6,6.8,6.1,7.1,6.2s0.8,0.1,1.1,0.1
			c0.5,0,0.9-0.1,1.2-0.3s0.4-0.5,0.4-0.8c0-0.3-0.1-0.7-0.4-0.8C9.2,4.3,8.7,4.1,8.1,4.1H8v-1h0.1c0.6,0,1-0.1,1.3-0.2
			c0.3-0.1,0.4-0.4,0.4-0.8c0-0.6-0.4-0.8-1.1-0.8c-0.2,0-0.5,0-0.7,0.1C7.7,1.5,7.4,1.6,7.1,1.8L6.4,0.7C7.1,0.2,7.9,0,8.8,0
			c0.8,0,1.4,0.2,1.8,0.5C11.1,0.8,11.3,1.2,11.3,1.8z"/>
		<path class="st1" d="M12.5,6.8c0-0.3,0.1-0.5,0.2-0.6c0.2-0.1,0.4-0.2,0.7-0.2c0.3,0,0.5,0.1,0.7,0.2c0.2,0.1,0.2,0.4,0.2,0.6
			c0,0.3-0.1,0.5-0.2,0.6c-0.2,0.2-0.4,0.2-0.6,0.2c-0.3,0-0.5-0.1-0.7-0.2C12.6,7.3,12.5,7.1,12.5,6.8z"/>
		<path class="st1" d="M21,6.1h-1v1h-2v-1h-3V4.9l3.3-4.8H20v5h1V6.1z M18,5.1V3.5c0-0.2,0.1-0.4,0.1-0.8c0-0.4,0.1-0.6,0.2-0.6h0
			c-0.1,0-0.3,0.6-0.5,0.9l-1.4,2.1H18z"/>
		<path class="st1" d="M22,7.1l2.8-6H21v-1h5v1l-2.4,6H22z"/>
		<path class="st1" d="M30.6,2.3c0,0.8-0.2,1.4-0.5,1.8c-0.3,0.4-0.7,0.6-1.3,0.6c-0.6,0-1-0.2-1.3-0.6s-0.5-1-0.5-1.7
			c0-1.5,0.6-2.3,1.7-2.3c0.6,0,1,0.2,1.3,0.6C30.5,1,30.6,1.6,30.6,2.3z M28.4,2.3c0,0.4,0,0.7,0.1,1c0.1,0.2,0.2,0.3,0.4,0.3
			c0.3,0,0.5-0.4,0.5-1.3c0-0.8-0.2-1.3-0.5-1.3c-0.2,0-0.3,0.1-0.4,0.3C28.4,1.6,28.4,1.9,28.4,2.3z M34.1,0.1l-4.1,7h-1.2l4.1-7
			H34.1z M35.8,5.3c0,0.8-0.2,1.4-0.5,1.7S34.6,7.6,34,7.6c-0.6,0-1-0.2-1.3-0.6s-0.5-1-0.5-1.7C32.3,3.7,32.9,3,34,3
			c0.6,0,1,0.2,1.3,0.6C35.6,4,35.8,4.5,35.8,5.3z M33.5,5.3c0,0.4,0,0.7,0.1,1c0.1,0.2,0.2,0.3,0.4,0.3c0.3,0,0.5-0.4,0.5-1.3
			C34.5,4.4,34.4,4,34,4c-0.2,0-0.3,0.1-0.4,0.3C33.6,4.5,33.5,4.9,33.5,5.3z"/>
	</g>
</g>
<g>
	<g>
		<path class="st1" d="M66,6.1h-1v1h-2v-1h-3V4.9l3.5-4.8H65v5h1V6.1z M63,5.1V3.5c0-0.2,0.2-0.4,0.3-0.8c0-0.4,0.3-0.6,0.3-0.6h0
			c-0.1,0-0.3,0.6-0.5,0.9l-1.4,2.1H63z"/>
		<path class="st1" d="M67.2,7.1l2.8-6h-4v-1h6v1l-3.2,6H67.2z"/>
		<path class="st1" d="M72.6,6.8c0-0.3,0.1-0.5,0.2-0.6C73,6,73.2,5.9,73.5,5.9c0.3,0,0.5,0.1,0.7,0.2c0.2,0.1,0.2,0.4,0.2,0.6
			c0,0.3-0.1,0.5-0.2,0.6c-0.2,0.2-0.4,0.2-0.6,0.2c-0.3,0-0.5-0.1-0.7-0.2C72.7,7.3,72.6,7.1,72.6,6.8z"/>
		<path class="st1" d="M75.3,4.4c0-1.5,0.3-2.6,0.9-3.3C76.9,0.4,77.8,0,79,0c0.4,0,1,0,1,0.1v1.3c0-0.1-0.6-0.1-0.9-0.1
			c-0.5,0-1,0.1-1.3,0.2c-0.3,0.2-0.6,0.2-0.8,0.5c-0.2,0.3-0.3,1.1-0.3,1.1h0.1c0.3,0,0.9-0.6,1.6-0.6c0.7,0,1.2,0.3,1.6,0.7
			c0.4,0.4,0.6,1,0.6,1.8c0,0.8-0.2,1.4-0.7,1.9c-0.4,0.5-1.1,0.7-1.9,0.7c-0.5,0-1-0.1-1.4-0.4c-0.4-0.3-0.7-0.6-0.9-1.1
			C75.4,5.6,75.3,5.1,75.3,4.4z M78,6.4c0.3,0,0.6-0.1,0.8-0.3c0.2-0.2,0.3-0.5,0.3-1c0-0.4-0.1-0.6-0.3-0.9C78.6,4,78.4,3.9,78,3.9
			c-0.3,0-0.6,0.1-0.8,0.3s-0.3,0.4-0.3,0.7c0,0.4,0.1,0.7,0.3,1C77.4,6.2,77.7,6.4,78,6.4z"/>
		<path class="st1" d="M84.7,2.3c0,0.8-0.2,1.4-0.5,1.8C84,4.5,83.5,4.7,83,4.7c-0.6,0-1-0.2-1.3-0.6s-0.5-1-0.5-1.7
			C81.2,0.8,81.8,0,83,0c0.6,0,1,0.2,1.3,0.6C84.6,1,84.7,1.6,84.7,2.3z M82.5,2.3c0,0.4,0,0.7,0.1,1c0.1,0.2,0.2,0.3,0.4,0.3
			c0.3,0,0.5-0.4,0.5-1.3c0-0.8-0.2-1.3-0.5-1.3c-0.2,0-0.3,0.1-0.4,0.3C82.5,1.6,82.5,1.9,82.5,2.3z M88.2,0.1l-4.1,7h-1.2l4.1-7
			H88.2z M89.9,5.3c0,0.8-0.2,1.4-0.5,1.7s-0.7,0.6-1.3,0.6c-0.6,0-1-0.2-1.3-0.6s-0.5-1-0.5-1.7C86.4,3.7,87,3,88.1,3
			c0.6,0,1,0.2,1.3,0.6C89.8,4,89.9,4.5,89.9,5.3z M87.7,5.3c0,0.4,0,0.7,0.1,1c0.1,0.2,0.2,0.3,0.4,0.3c0.3,0,0.5-0.4,0.5-1.3
			c0-0.8-0.2-1.3-0.5-1.3c-0.2,0-0.3,0.1-0.4,0.3C87.7,4.5,87.7,4.9,87.7,5.3z"/>
	</g>
</g>
<g>
	<g>
		<path class="st1" d="M119,7.1h-2V3.2l0-0.7l0-0.8c-0.3,0.3-0.4,0.4-0.5,0.5L115.6,3L114.9,2l2.4-1.9h1.8V7.1z"/>
		<path class="st1" d="M123.1,0c0.7,0,1.3,0.2,1.7,0.5c0.4,0.3,0.7,0.8,0.7,1.3c0,0.4-0.1,0.7-0.3,1c-0.2,0.3-0.5,0.6-1,0.8
			c0.6,0.3,1,0.6,1.2,0.9c0.2,0.3,0.4,0.7,0.4,1.1c0,0.6-0.2,1.1-0.7,1.5c-0.5,0.4-1.1,0.6-1.9,0.6c-0.8,0-1.4-0.2-1.9-0.5
			s-0.7-0.8-0.7-1.5c0-0.4,0.1-0.8,0.3-1.1c0.2-0.3,0.6-0.6,1.1-0.9c-0.4-0.3-0.7-0.6-0.9-0.9c-0.2-0.3-0.3-0.6-0.3-1
			c0-0.5,0.2-1,0.7-1.3C121.9,0.2,122.4,0,123.1,0z M122,5.5c0,0.3,0.1,0.5,0.3,0.7c0.2,0.2,0.5,0.2,0.8,0.2c0.4,0,0.7-0.1,0.9-0.3
			c0.2-0.2,0.3-0.4,0.3-0.7c0-0.2-0.1-0.4-0.3-0.6c-0.2-0.2-0.5-0.4-0.9-0.6C122.4,4.6,122,5,122,5.5z M123.1,1.2
			c-0.3,0-0.5,0.1-0.6,0.2c-0.2,0.1-0.2,0.3-0.2,0.6c0,0.2,0.1,0.4,0.2,0.5c0.1,0.2,0.4,0.3,0.7,0.5c0.3-0.2,0.6-0.3,0.7-0.5
			s0.2-0.3,0.2-0.6c0-0.2-0.1-0.4-0.3-0.6S123.4,1.2,123.1,1.2z"/>
		<path class="st1" d="M126.7,6.8c0-0.3,0.1-0.5,0.2-0.6c0.2-0.1,0.4-0.2,0.7-0.2c0.3,0,0.5,0.1,0.7,0.2c0.2,0.1,0.2,0.4,0.2,0.6
			c0,0.3-0.1,0.5-0.2,0.6s-0.4,0.2-0.6,0.2c-0.3,0-0.5-0.1-0.7-0.2C126.8,7.3,126.7,7.1,126.7,6.8z"/>
		<path class="st1" d="M133,7.1h-1V3.2l-0.1-0.7l0-0.8c-0.3,0.3-0.5,0.4-0.6,0.5L130.5,3L129.7,2l2.4-1.9h0.9V7.1z"/>
		<path class="st1" d="M138.1,2.8c0.7,0,1.3,0.2,1.7,0.6c0.4,0.4,0.6,1,0.6,1.7c0,0.8-0.3,1.5-0.8,1.9c-0.5,0.4-1,0.7-1.9,0.7
			c-0.8,0-1.8-0.1-1.8-0.4V5.9c0,0.1,0.3,0.3,0.7,0.3c0.4,0.1,0.6,0.1,0.9,0.1c1,0,1.4-0.4,1.4-1.2c0-0.7-0.5-1.1-1.5-1.1
			c-0.2,0-0.4,0-0.6,0.1s-0.4,0.1-0.5,0.1l-0.6-0.3l0.3-3.8h4.1v1h-2.7l-0.1,1.6l0.2,0C137.6,2.7,137.8,2.8,138.1,2.8z"/>
		<path class="st1" d="M144.8,2.3c0,0.8-0.2,1.4-0.5,1.8c-0.3,0.4-0.7,0.6-1.3,0.6c-0.6,0-1-0.2-1.3-0.6c-0.3-0.4-0.5-1-0.5-1.7
			c0-1.5,0.6-2.3,1.7-2.3c0.6,0,1,0.2,1.3,0.6C144.6,1,144.8,1.6,144.8,2.3z M142.5,2.3c0,0.4,0,0.7,0.1,1c0.1,0.2,0.2,0.3,0.4,0.3
			c0.3,0,0.5-0.4,0.5-1.3c0-0.8-0.2-1.3-0.5-1.3c-0.2,0-0.3,0.1-0.4,0.3C142.6,1.6,142.5,1.9,142.5,2.3z M148.3,0.1l-4.1,7h-1.2
			l4.1-7H148.3z M150,5.3c0,0.8-0.2,1.4-0.5,1.7s-0.7,0.6-1.3,0.6c-0.6,0-1-0.2-1.3-0.6c-0.3-0.4-0.5-1-0.5-1.7
			c0-1.5,0.6-2.3,1.7-2.3c0.6,0,1,0.2,1.3,0.6S150,4.5,150,5.3z M147.7,5.3c0,0.4,0,0.7,0.1,1c0.1,0.2,0.2,0.3,0.4,0.3
			c0.3,0,0.5-0.4,0.5-1.3c0-0.8-0.2-1.3-0.5-1.3c-0.2,0-0.3,0.1-0.4,0.3C147.8,4.5,147.7,4.9,147.7,5.3z"/>
	</g>
</g>
<g>
	<g>
		<path class="st1" d="M174.7,4.4c0-1.5,0.3-2.6,0.9-3.3c0.6-0.7,1.4-1.1,2.6-1.1c0.4,0,0.8,0,0.8,0.1v1.3c0-0.1-0.4-0.1-0.7-0.1
			c-0.5,0-0.9,0.1-1.2,0.2s-0.5,0.2-0.7,0.5c-0.2,0.3-0.2,1.1-0.3,1.1h0.1c0.3,0,0.9-0.6,1.6-0.6c0.7,0,1.2,0.3,1.6,0.7
			c0.4,0.4,0.6,1,0.6,1.8c0,0.8-0.2,1.4-0.7,1.9c-0.4,0.5-1.1,0.7-1.9,0.7c-0.5,0-1-0.1-1.4-0.4s-0.7-0.6-0.9-1.1
			C174.8,5.6,174.7,5.1,174.7,4.4z M177.3,6.4c0.3,0,0.6-0.1,0.8-0.3c0.2-0.2,0.3-0.5,0.3-1c0-0.4-0.1-0.6-0.3-0.9
			c-0.2-0.2-0.4-0.3-0.8-0.3c-0.3,0-0.6,0.1-0.8,0.3c-0.2,0.2-0.3,0.4-0.3,0.7c0,0.4,0.1,0.7,0.3,1C176.8,6.2,177,6.4,177.3,6.4z"/>
		<path class="st1" d="M180.8,6.8c0-0.3,0.1-0.5,0.2-0.6c0.2-0.1,0.4-0.2,0.7-0.2c0.3,0,0.5,0.1,0.7,0.2c0.2,0.1,0.2,0.4,0.2,0.6
			c0,0.3-0.1,0.5-0.2,0.6s-0.4,0.2-0.6,0.2c-0.3,0-0.5-0.1-0.7-0.2C180.9,7.3,180.8,7.1,180.8,6.8z"/>
		<path class="st1" d="M183.6,4.4c0-1.5,0.3-2.6,0.9-3.3c0.6-0.7,1.4-1.1,2.6-1.1c0.4,0,0.9,0,0.9,0.1v1.3c0-0.1-0.5-0.1-0.8-0.1
			c-0.5,0-0.9,0.1-1.2,0.2c-0.3,0.2-0.6,0.2-0.7,0.5c-0.2,0.3-0.2,1.1-0.3,1.1h0.1c0.3,0,0.9-0.6,1.6-0.6c0.7,0,1.2,0.3,1.6,0.7
			c0.4,0.4,0.6,1,0.6,1.8c0,0.8-0.2,1.4-0.7,1.9c-0.4,0.5-1.1,0.7-1.9,0.7c-0.5,0-1-0.1-1.4-0.4s-0.7-0.6-0.9-1.1
			C183.7,5.6,183.6,5.1,183.6,4.4z M186.2,6.4c0.3,0,0.6-0.1,0.8-0.3c0.2-0.2,0.3-0.5,0.3-1c0-0.4-0.1-0.6-0.3-0.9
			c-0.2-0.2-0.4-0.3-0.8-0.3c-0.3,0-0.6,0.1-0.8,0.3c-0.2,0.2-0.3,0.4-0.3,0.7c0,0.4,0.1,0.7,0.3,1C185.6,6.2,185.9,6.4,186.2,6.4z"
			/>
		<path class="st1" d="M195,7.1h-5V6.4l1.6-1.9c0.6-0.6,0.8-1,1-1.2c0.2-0.2,0.2-0.4,0.3-0.6c0.1-0.2,0.1-0.4,0.1-0.6
			c0-0.3-0.1-0.5-0.3-0.7c-0.2-0.1-0.4-0.2-0.7-0.2c-0.3,0-0.6,0.1-0.8,0.2s-0.6,0.3-0.8,0.6l-0.9-1c0.4-0.3,0.7-0.5,0.9-0.7
			s0.5-0.2,0.8-0.3s0.6-0.1,1-0.1c0.5,0,0.9,0.1,1.2,0.3c0.4,0.2,0.6,0.4,0.8,0.7c0.2,0.3,0.3,0.7,0.3,1c0,0.3-0.1,0.7-0.2,1
			c-0.1,0.3-0.3,0.6-0.6,0.9c-0.3,0.3-0.9,0.8-1.6,1.3L191,6.1v0h4V7.1z"/>
		<path class="st1" d="M198.9,2.3c0,0.8-0.2,1.4-0.5,1.8c-0.3,0.4-0.7,0.6-1.3,0.6c-0.6,0-1-0.2-1.3-0.6c-0.3-0.4-0.5-1-0.5-1.7
			c0-1.5,0.6-2.3,1.7-2.3c0.6,0,1,0.2,1.3,0.6S198.9,1.6,198.9,2.3z M196.7,2.3c0,0.4,0,0.7,0.1,1c0.1,0.2,0.2,0.3,0.4,0.3
			c0.3,0,0.5-0.4,0.5-1.3c0-0.8-0.2-1.3-0.5-1.3c-0.2,0-0.3,0.1-0.4,0.3C196.7,1.6,196.7,1.9,196.7,2.3z M202.4,0.1l-4.1,7h-1.2
			l4.1-7H202.4z M204.1,5.3c0,0.8-0.2,1.4-0.5,1.7s-0.7,0.6-1.3,0.6c-0.6,0-1-0.2-1.3-0.6s-0.5-1-0.5-1.7c0-1.5,0.6-2.3,1.7-2.3
			c0.6,0,1,0.2,1.3,0.6C203.9,4,204.1,4.5,204.1,5.3z M201.9,5.3c0,0.4,0,0.7,0.1,1c0.1,0.2,0.2,0.3,0.4,0.3c0.3,0,0.5-0.4,0.5-1.3
			c0-0.8-0.2-1.3-0.5-1.3c-0.2,0-0.3,0.1-0.4,0.3C201.9,4.5,201.9,4.9,201.9,5.3z"/>
	</g>
</g>
<g>
	<g>
		<path class="st1" d="M237,7.1h-5V6.4l1.8-1.9c0.6-0.6,0.9-1,1-1.2c0.2-0.2,0.3-0.4,0.3-0.6c0.1-0.2,0.1-0.4,0.1-0.6
			c0-0.3-0.1-0.5-0.3-0.7c-0.2-0.1-0.4-0.2-0.7-0.2c-0.3,0-0.6,0.1-0.8,0.2c-0.3,0.1-0.6,0.3-0.8,0.6l-0.9-1
			c0.4-0.3,0.7-0.5,0.9-0.7c0.2-0.1,0.5-0.2,0.8-0.3c0.3-0.1,0.6-0.1,1-0.1c0.5,0,0.9,0.1,1.2,0.3c0.4,0.2,0.6,0.4,0.8,0.7
			c0.2,0.3,0.3,0.7,0.3,1c0,0.3-0.1,0.7-0.2,1c-0.1,0.3-0.3,0.6-0.6,0.9c-0.3,0.3-0.6,0.8-1.2,1.3L234,6.1v0h3V7.1z"/>
		<path class="st1" d="M237.9,6.8c0-0.3,0.1-0.5,0.2-0.6c0.2-0.1,0.4-0.2,0.7-0.2c0.3,0,0.5,0.1,0.7,0.2c0.2,0.1,0.2,0.4,0.2,0.6
			c0,0.3-0.1,0.5-0.2,0.6s-0.4,0.2-0.6,0.2c-0.3,0-0.5-0.1-0.7-0.2C238,7.3,237.9,7.1,237.9,6.8z"/>
		<path class="st1" d="M245.9,3.3c0,1.5-0.3,2.5-0.9,3.3s-1.6,1.1-2.9,1.1c-0.4,0-1.1,0-1.1-0.1V6.3c0,0.1,0.7,0.1,1,0.1
			c0.5,0,1-0.1,1.3-0.2s0.6-0.4,0.8-0.7c0.2-0.3,0.3-0.3,0.3-1.3h-0.1c-0.2,0-0.4,0.5-0.7,0.7c-0.3,0.1-0.6,0.2-1,0.2
			c-0.6,0-1.2-0.2-1.5-0.6c-0.4-0.4-0.6-1-0.6-1.7c0-0.8,0.2-1.4,0.7-1.9c0.5-0.5,1.1-0.7,1.8-0.7c0.5,0,1,0.1,1.4,0.4
			s0.7,0.6,0.9,1.1C245.7,2,245.9,2.6,245.9,3.3z M243.2,1.3c-0.3,0-0.6,0.1-0.8,0.3c-0.2,0.2-0.3,0.5-0.3,1c0,0.4,0.1,0.6,0.2,0.9
			s0.4,0.3,0.8,0.3c0.3,0,0.6-0.1,0.8-0.3c0.2-0.2,0.3-0.4,0.3-0.7c0-0.4-0.1-0.7-0.3-1C243.8,1.4,243.5,1.3,243.2,1.3z"/>
		<path class="st1" d="M251.5,1.8c0,0.5-0.1,0.9-0.4,1.2c-0.3,0.3-1.1,0.5-1.1,0.7v0c1,0.1,1,0.3,1.3,0.5c0.3,0.3,0.4,0.7,0.4,1.2
			c0,0.7-0.3,1.3-0.8,1.7s-1.1,0.6-2,0.6c-0.8,0-2-0.1-2-0.4V5.9c0,0.1,0.4,0.3,0.8,0.4s0.6,0.1,0.9,0.1c0.5,0,0.9-0.1,1.1-0.3
			c0.2-0.2,0.3-0.5,0.3-0.8c0-0.3-0.2-0.7-0.4-0.8c-0.3-0.1-0.7-0.3-1.4-0.3H248v-1h0.3c0.6,0,1-0.1,1.3-0.2
			c0.3-0.1,0.4-0.4,0.4-0.8c0-0.6-0.4-0.8-1.1-0.8c-0.2,0-0.5,0-0.7,0.1c-0.3,0.1-0.5,0.2-0.8,0.4l-0.7-1.1c0.7-0.5,1.5-0.7,2.4-0.7
			c0.8,0,1.4,0.2,1.8,0.5C251.3,0.8,251.5,1.2,251.5,1.8z"/>
		<path class="st1" d="M256,2.3c0,0.8-0.2,1.4-0.5,1.8c-0.3,0.4-0.7,0.6-1.3,0.6c-0.6,0-1-0.2-1.3-0.6c-0.3-0.4-0.5-1-0.5-1.7
			c0-1.5,0.6-2.3,1.7-2.3c0.6,0,1,0.2,1.3,0.6C255.8,1,256,1.6,256,2.3z M253.8,2.3c0,0.4,0,0.7,0.1,1c0.1,0.2,0.2,0.3,0.4,0.3
			c0.3,0,0.5-0.4,0.5-1.3c0-0.8-0.2-1.3-0.5-1.3c-0.2,0-0.3,0.1-0.4,0.3C253.8,1.6,253.8,1.9,253.8,2.3z M259.5,0.1l-4.1,7h-1.2
			l4.1-7H259.5z M261.2,5.3c0,0.8-0.2,1.4-0.5,1.7s-0.7,0.6-1.3,0.6c-0.6,0-1-0.2-1.3-0.6c-0.3-0.4-0.5-1-0.5-1.7
			c0-1.5,0.6-2.3,1.7-2.3c0.6,0,1,0.2,1.3,0.6S261.2,4.5,261.2,5.3z M258.9,5.3c0,0.4,0,0.7,0.1,1c0.1,0.2,0.2,0.3,0.4,0.3
			c0.3,0,0.5-0.4,0.5-1.3c0-0.8-0.2-1.3-0.5-1.3c-0.2,0-0.3,0.1-0.4,0.3C259,4.5,258.9,4.9,258.9,5.3z"/>
	</g>
</g>
<g>
	<g>
		<path class="st1" d="M293,7.1h-2V3.2l0.1-0.7l0.1-0.8c-0.3,0.3-0.4,0.4-0.5,0.5L289.8,3L289.1,2l2.4-1.9h1.5V7.1z"/>
		<path class="st1" d="M295,6.8c0-0.3,0.1-0.5,0.2-0.6c0.2-0.1,0.4-0.2,0.7-0.2c0.3,0,0.5,0.1,0.7,0.2c0.2,0.1,0.2,0.4,0.2,0.6
			c0,0.3-0.1,0.5-0.2,0.6c-0.2,0.2-0.4,0.2-0.6,0.2c-0.3,0-0.5-0.1-0.7-0.2C295.1,7.3,295,7.1,295,6.8z"/>
		<path class="st1" d="M303,7.1h-5V6.4l1.8-1.9c0.6-0.6,0.9-1,1-1.2c0.2-0.2,0.3-0.4,0.3-0.6c0.1-0.2,0.1-0.4,0.1-0.6
			c0-0.3-0.1-0.5-0.3-0.7c-0.2-0.1-0.4-0.2-0.7-0.2c-0.3,0-0.6,0.1-0.8,0.2c-0.3,0.1-0.6,0.3-0.8,0.6l-0.9-1
			c0.4-0.3,0.7-0.5,0.9-0.7c0.2-0.1,0.5-0.2,0.8-0.3c0.3-0.1,0.6-0.1,1-0.1c0.5,0,0.9,0.1,1.2,0.3c0.4,0.2,0.6,0.4,0.8,0.7
			c0.2,0.3,0.3,0.7,0.3,1c0,0.3-0.1,0.7-0.2,1c-0.1,0.3-0.3,0.6-0.6,0.9c-0.3,0.3-0.6,0.8-1.2,1.3L300,6.1v0h3V7.1z"/>
		<path class="st1" d="M308.6,1.8c0,0.5-0.1,0.9-0.4,1.2c-0.3,0.3-0.2,0.5-1.2,0.7v0c1,0.1,1.1,0.3,1.4,0.5c0.3,0.3,0.5,0.7,0.5,1.2
			c0,0.7-0.3,1.3-0.8,1.7S307,7.6,306,7.6c-0.8,0-2-0.1-2-0.4V5.9c0,0.1,0.5,0.3,0.8,0.4c0.3,0.1,0.6,0.1,1,0.1
			c0.5,0,0.9-0.1,1.1-0.3s0.4-0.5,0.4-0.8c0-0.3-0.2-0.7-0.4-0.8c-0.3-0.1-0.7-0.3-1.4-0.3H305v-1h0.4c0.6,0,1-0.1,1.3-0.2
			c0.3-0.1,0.4-0.4,0.4-0.8c0-0.6-0.4-0.8-1.1-0.8c-0.2,0-0.5,0-0.7,0.1c-0.3,0.1-0.5,0.2-0.8,0.4l-0.7-1.1c0.7-0.5,1.5-0.7,2.4-0.7
			c0.8,0,1.4,0.2,1.8,0.5C308.4,0.8,308.6,1.2,308.6,1.8z"/>
		<path class="st1" d="M313.1,2.3c0,0.8-0.2,1.4-0.5,1.8c-0.3,0.4-0.7,0.6-1.3,0.6c-0.6,0-1-0.2-1.3-0.6s-0.5-1-0.5-1.7
			c0-1.5,0.6-2.3,1.7-2.3c0.6,0,1,0.2,1.3,0.6C312.9,1,313.1,1.6,313.1,2.3z M310.8,2.3c0,0.4,0,0.7,0.1,1c0.1,0.2,0.2,0.3,0.4,0.3
			c0.3,0,0.5-0.4,0.5-1.3c0-0.8-0.2-1.3-0.5-1.3c-0.2,0-0.3,0.1-0.4,0.3C310.9,1.6,310.8,1.9,310.8,2.3z M316.6,0.1l-4.1,7h-1.2
			l4.1-7H316.6z M318.3,5.3c0,0.8-0.2,1.4-0.5,1.7c-0.3,0.4-0.7,0.6-1.3,0.6c-0.6,0-1-0.2-1.3-0.6s-0.5-1-0.5-1.7
			c0-1.5,0.6-2.3,1.7-2.3c0.6,0,1,0.2,1.3,0.6S318.3,4.5,318.3,5.3z M316,5.3c0,0.4,0,0.7,0.1,1c0.1,0.2,0.2,0.3,0.4,0.3
			c0.3,0,0.5-0.4,0.5-1.3c0-0.8-0.2-1.3-0.5-1.3c-0.2,0-0.3,0.1-0.4,0.3C316.1,4.5,316,4.9,316,5.3z"/>
	</g>
</g>
<g>
	<g>
		<path class="st1" d="M12,246.1h-1v-4.7l-0.1-0.7l0-0.8c-0.3,0.3-0.5,0.4-0.6,0.5l-0.9,0.7l-0.8-1.1l2.4-2h1V246.1z"/>
		<path class="st1" d="M16.9,238.2c0.7,0,1.3,0.2,1.7,0.5c0.4,0.3,0.7,0.8,0.7,1.3c0,0.4-0.1,0.7-0.3,1c-0.2,0.3-0.5,0.6-1,0.8
			c0.6,0.3,1,0.6,1.2,0.9c0.2,0.3,0.4,0.7,0.4,1.1c0,0.6-0.2,1.1-0.7,1.5s-1.1,0.6-1.9,0.6c-0.8,0-1.4-0.2-1.9-0.5
			c-0.5-0.3-0.7-0.8-0.7-1.5c0-0.4,0.1-0.8,0.3-1.1c0.2-0.3,0.6-0.6,1.1-0.9c-0.4-0.3-0.7-0.6-0.9-0.9c-0.2-0.3-0.3-0.6-0.3-1
			c0-0.5,0.2-1,0.7-1.3C15.6,238.4,16.2,238.2,16.9,238.2z M15.8,243.8c0,0.3,0.1,0.5,0.3,0.7s0.5,0.2,0.8,0.2
			c0.4,0,0.7-0.1,0.9-0.3c0.2-0.2,0.3-0.4,0.3-0.7c0-0.2-0.1-0.4-0.3-0.6s-0.5-0.4-0.9-0.6C16.1,242.8,15.8,243.3,15.8,243.8z
			 M16.9,239.4c-0.3,0-0.5,0.1-0.6,0.2c-0.2,0.1-0.2,0.3-0.2,0.6c0,0.2,0.1,0.4,0.2,0.5c0.1,0.2,0.4,0.3,0.7,0.5
			c0.3-0.2,0.6-0.3,0.7-0.5s0.2-0.3,0.2-0.6c0-0.2-0.1-0.4-0.3-0.6S17.2,239.4,16.9,239.4z"/>
		<path class="st1" d="M20,243.1v-1h3v1H20z"/>
		<path class="st1" d="M29,246.1h-5v-1.5l1.7-1.9c0.6-0.6,0.8-1,1-1.2c0.2-0.2,0.2-0.4,0.3-0.6c0.1-0.2,0.1-0.4,0.1-0.6
			c0-0.3-0.1-0.5-0.3-0.7c-0.2-0.1-0.4-0.2-0.7-0.2c-0.3,0-0.6,0.1-0.8,0.2c-0.3,0.1-0.6,0.3-0.8,0.6l-0.9-1
			c0.4-0.3,0.7-0.5,0.9-0.7c0.2-0.1,0.5-0.2,0.8-0.3c0.3-0.1,0.6-0.1,1-0.1c0.5,0,0.9,0.1,1.2,0.3c0.4,0.2,0.6,0.4,0.8,0.7
			c0.2,0.3,0.3,0.7,0.3,1c0,0.3-0.1,0.7-0.2,1c-0.1,0.3-0.3,0.6-0.6,0.9c-0.3,0.3-0.5,0.8-1.1,1.3l-0.8,0.9v-0.2h3V246.1z"/>
		<path class="st1" d="M35,244.1h-1v2h-1v-2h-4v-1l3.6-5H34v5h1V244.1z M33,243.1v-1.4c0-0.2-0.2-0.5-0.2-0.9c0-0.4-0.2-0.7-0.2-0.7
			h0c-0.1,0-0.3,0.6-0.5,0.9l-1.4,2.1H33z"/>
	</g>
</g>
<g>
	<g>
		<path class="st1" d="M10.5,255.2l1.5-3.1h1.7l-2.8,4.1v2.9h-1v-2.8l-2.7-4.2H9L10.5,255.2z"/>
		<path class="st1" d="M16.9,259.2c-0.9,0-1.6-0.3-2.1-0.8s-0.8-1.2-0.8-2.1c0-0.9,0.2-1.7,0.7-2.2c0.5-0.5,1.1-0.8,2-0.8
			c0.8,0,1.3,0.2,1.8,0.7c0.4,0.5,0.6,1.1,0.6,1.9v1.2h-3.4c0,0,0.1,0.6,0.4,0.8c0.2,0.2,0.6,0.3,1,0.3c0.3,0,0.7-0.1,1-0.2
			c0.3-0.1,1-0.2,1-0.4v1.2c0,0.1-0.6,0.2-0.9,0.3S17.4,259.2,16.9,259.2z M16.7,254.4c-0.3,0-0.6,0.3-0.8,0.6
			c-0.2,0.2-0.3,0.1-0.3,1.1h2.2c0-1-0.1-0.9-0.3-1.1C17.3,254.8,17,254.4,16.7,254.4z"/>
		<path class="st1" d="M24.1,259.1l-0.3-1h0c-0.3,1-0.5,0.7-0.8,0.8c-0.3,0.1-0.6,0.2-1.1,0.2c-0.5,0-1-0.1-1.3-0.4
			c-0.3-0.3-0.5-0.7-0.5-1.3c0-0.6,0.2-1,0.6-1.3c0.4-0.3,1.2-0.4,2.1-0.5l1.2,0v-0.2c0-0.6-0.5-0.9-1.1-0.9c-0.5,0-1.1,0.1-1.7,0.4
			l-0.6-1c0.7-0.3,1.4-0.5,2.1-0.5c0.8,0,1.3,0.2,1.7,0.5c0.4,0.3,0.5,0.8,0.5,1.5v3.8H24.1z M23.6,256.5l-0.6,0
			c-0.4,0-0.8,0.1-1,0.2c-0.2,0.1-0.3,0.4-0.3,0.7c0,0.4,0.3,0.7,0.8,0.7c0.4,0,0.6-0.1,0.9-0.3c0.2-0.2,0.3-0.5,0.3-0.8V256.5z"/>
		<path class="st1" d="M29.9,253.3c0.2,0,0.4,0,0.5,0l-0.1,1.4c-0.1,0-0.3-0.1-0.5-0.1c-0.5,0-1,0.1-1.3,0.4s-0.6,0.6-0.6,1.1v2.9
			h-1v-6h0.9l0.2,1h0.1c0.2,0,0.4-0.4,0.7-0.6C29.2,253.3,29.6,253.3,29.9,253.3z"/>
		<path class="st1" d="M35.4,257.4c0,0.6-0.2,1-0.6,1.3c-0.4,0.3-1,0.5-1.8,0.5c-0.4,0-0.8,0-1.1-0.1c-0.3-0.1-0.9-0.1-0.9-0.2v-1.3
			c0,0.1,0.7,0.2,1,0.3c0.4,0.1,0.7,0.1,1,0.1c0.6,0,0.9-0.2,0.9-0.5c0-0.1,0-0.2-0.1-0.3c-0.1-0.1-0.2-0.2-0.4-0.3
			c-0.2-0.1-0.4-0.2-0.7-0.3c-0.4-0.2-0.8-0.4-1-0.5c-0.2-0.2-0.4-0.3-0.4-0.5c-0.1-0.2-0.1-0.4-0.1-0.7c0-0.5,0.2-0.9,0.6-1.2
			c0.4-0.3,0.9-0.4,1.7-0.4c0.7,0,1.3,0.1,2,0.4l-0.5,1.1c-0.3-0.1-0.5-0.2-0.8-0.3s-0.5-0.1-0.8-0.1c-0.5,0-0.7,0.1-0.7,0.4
			c0,0.1,0.1,0.3,0.2,0.4c0.1,0.1,0.5,0.3,1,0.5c0.4,0.2,0.8,0.3,1,0.5c0.2,0.2,0.4,0.3,0.5,0.5C35.4,256.9,35.4,257.1,35.4,257.4z"
			/>
	</g>
</g>
<g>
	<g>
		<path class="st1" d="M65.8,255.2l1.5-3.1H69l-2,4.1v2.9h-2v-2.8l-2.5-4.2h1.7L65.8,255.2z"/>
		<path class="st1" d="M72.1,259.2c-0.9,0-1.6-0.3-2.1-0.8s-0.8-1.2-0.8-2.1c0-0.9,0.2-1.7,0.7-2.2c0.5-0.5,1.1-0.8,2-0.8
			c0.8,0,1.2,0.2,1.7,0.7c0.4,0.5,0.5,1.1,0.5,1.9v1.2h-3.2c0,0,0.1,0.6,0.4,0.8c0.2,0.2,0.6,0.3,1,0.3c0.3,0,0.6-0.1,0.9-0.2
			c0.3-0.1,0.9-0.2,0.9-0.4v1.2c0,0.1-0.5,0.2-0.8,0.3C72.9,259.2,72.6,259.2,72.1,259.2z M71.9,254.4c-0.3,0-0.6,0.3-0.8,0.6
			c-0.2,0.2-0.3,0.1-0.3,1.1H73c0-1-0.1-0.9-0.3-1.1C72.5,254.8,72.2,254.4,71.9,254.4z"/>
		<path class="st1" d="M79.3,259.1l-0.3-1h0c-0.3,1-0.5,0.7-0.8,0.8c-0.3,0.1-0.6,0.2-1.1,0.2c-0.5,0-1-0.1-1.3-0.4
			c-0.3-0.3-0.5-0.7-0.5-1.3c0-0.6,0.2-1,0.6-1.3c0.4-0.3,1.1-0.4,2-0.5l1.1,0v-0.2c0-0.6-0.4-0.9-1-0.9c-0.5,0-1,0.1-1.6,0.4
			l-0.5-1c0.7-0.3,1.4-0.5,2.2-0.5c0.8,0,1.2,0.2,1.6,0.5c0.4,0.3,0.4,0.8,0.4,1.5v3.8H79.3z M78.8,256.5l-0.6,0
			c-0.4,0-0.8,0.1-1,0.2c-0.2,0.1-0.3,0.4-0.3,0.7c0,0.4,0.3,0.7,0.8,0.7c0.4,0,0.6-0.1,0.9-0.3c0.2-0.2,0.3-0.5,0.3-0.8V256.5z"/>
		<path class="st1" d="M85.1,253.3c0.2,0,0.4,0,0.5,0l-0.1,1.4c-0.1,0-0.3-0.1-0.5-0.1c-0.5,0-0.6,0.1-0.9,0.4s-0.2,0.6-0.2,1.1v2.9
			h-2v-6h1.1l0.2,1h0.1c0.2,0,0.4-0.4,0.7-0.6C84.4,253.3,84.8,253.3,85.1,253.3z"/>
		<path class="st1" d="M90.6,257.4c0,0.6-0.2,1-0.6,1.3c-0.4,0.3-1,0.5-1.8,0.5c-0.4,0-0.9,0-1.2-0.1c-0.3-0.1,0-0.1-1-0.2v-1.3
			c1,0.1,0.8,0.2,1.1,0.3c0.4,0.1,0.8,0.1,1,0.1c0.6,0,0.9-0.2,0.9-0.5c0-0.1,0-0.2-0.1-0.3s-0.2-0.2-0.4-0.3
			c-0.2-0.1-0.4-0.2-0.7-0.3c-0.4-0.2-0.8-0.4-1-0.5c-0.2-0.2-0.4-0.3-0.4-0.5c-0.1-0.2-0.1-0.4-0.1-0.7c0-0.5,0.2-0.9,0.6-1.2
			c0.4-0.3,0.9-0.4,1.7-0.4c0.7,0,1.3,0.1,2,0.4l-0.5,1.1c-0.3-0.1-0.5-0.2-0.8-0.3s-0.5-0.1-0.8-0.1c-0.5,0-0.7,0.1-0.7,0.4
			c0,0.1,0.1,0.3,0.2,0.4c0.1,0.1,0.5,0.3,1,0.5c0.4,0.2,0.8,0.3,1,0.5c0.2,0.2,0.4,0.3,0.5,0.5C90.6,256.9,90.6,257.1,90.6,257.4z"
			/>
	</g>
</g>
<g>
	<g>
		<path class="st1" d="M121,255.2l1.5-3.1h1.7l-2.2,4.1v2.9h-2v-2.8l-2.3-4.2h1.7L121,255.2z"/>
		<path class="st1" d="M127.3,259.2c-0.9,0-1.6-0.3-2.1-0.8s-0.8-1.2-0.8-2.1c0-0.9,0.2-1.7,0.7-2.2c0.5-0.5,1.1-0.8,2-0.8
			c0.8,0,1.6,0.2,2,0.7c0.4,0.5,0.8,1.1,0.8,1.9v1.2h-4c0,0,0.1,0.6,0.4,0.8s0.6,0.3,1,0.3c0.3,0,0.5-0.1,0.8-0.2
			c0.3-0.1,0.8-0.2,0.8-0.4v1.2c0,0.1-0.4,0.2-0.7,0.3S127.8,259.2,127.3,259.2z M127.1,254.4c-0.3,0-0.6,0.3-0.8,0.6
			c-0.2,0.2-0.3,0.1-0.3,1.1h2.2c0-1-0.1-0.9-0.3-1.1C127.7,254.8,127.4,254.4,127.1,254.4z"/>
		<path class="st1" d="M134.5,259.1l-0.3-1h0c-0.3,1-0.5,0.7-0.8,0.8c-0.3,0.1-0.6,0.2-1.1,0.2c-0.5,0-1-0.1-1.3-0.4
			c-0.3-0.3-0.5-0.7-0.5-1.3c0-0.6,0.2-1,0.6-1.3c0.4-0.3,1-0.4,1.9-0.5l1,0v-0.2c0-0.6-0.3-0.9-0.9-0.9c-0.5,0-1,0.1-1.6,0.4
			l-0.5-1c0.7-0.3,1.4-0.5,2.2-0.5c0.8,0,1.6,0.2,2,0.5c0.4,0.3,0.8,0.8,0.8,1.5v3.8H134.5z M134.1,256.5l-0.6,0
			c-0.4,0-0.8,0.1-1,0.2c-0.2,0.1-0.3,0.4-0.3,0.7c0,0.4,0.3,0.7,0.8,0.7c0.4,0,0.6-0.1,0.9-0.3c0.2-0.2,0.3-0.5,0.3-0.8V256.5z"/>
		<path class="st1" d="M140.3,253.3c0.2,0,0.4,0,0.5,0l-0.1,1.4c-0.1,0-0.3-0.1-0.5-0.1c-0.5,0-0.7,0.1-1,0.4s-0.3,0.6-0.3,1.1v2.9
			h-2v-6h1.3l0.2,1h0.1c0.2,0,0.4-0.4,0.7-0.6C139.7,253.3,140,253.3,140.3,253.3z"/>
		<path class="st1" d="M145.8,257.4c0,0.6-0.2,1-0.6,1.3c-0.4,0.3-1,0.5-1.8,0.5c-0.4,0-0.5,0-0.8-0.1c-0.3-0.1-0.6-0.1-0.6-0.2
			v-1.3c0,0.1,0.4,0.2,0.7,0.3c0.4,0.1,0.6,0.1,0.8,0.1c0.6,0,0.8-0.2,0.8-0.5c0-0.1-0.1-0.2-0.1-0.3c-0.1-0.1-0.2-0.2-0.4-0.3
			c-0.2-0.1-0.4-0.2-0.7-0.3c-0.4-0.2-0.8-0.4-1-0.5c-0.2-0.2-0.4-0.3-0.4-0.5c-0.1-0.2-0.1-0.4-0.1-0.7c0-0.5,0.2-0.9,0.6-1.2
			s0.9-0.4,1.7-0.4c0.7,0,1.3,0.1,2,0.4l-0.5,1.1c-0.3-0.1-0.5-0.2-0.8-0.3s-0.5-0.1-0.8-0.1c-0.5,0-0.7,0.1-0.7,0.4
			c0,0.1,0.1,0.3,0.2,0.4c0.1,0.1,0.5,0.3,1,0.5c0.4,0.2,0.8,0.3,1,0.5c0.2,0.2,0.4,0.3,0.5,0.5
			C145.8,256.9,145.8,257.1,145.8,257.4z"/>
	</g>
</g>
<g>
	<g>
		<path class="st1" d="M176.2,255.2l1.5-3.1h1.7l-2.4,4.1v2.9h-2v-2.8l-2-4.2h1.7L176.2,255.2z"/>
		<path class="st1" d="M182.6,259.2c-0.9,0-1.6-0.3-2.1-0.8c-0.5-0.5-0.8-1.2-0.8-2.1c0-0.9,0.2-1.7,0.7-2.2c0.5-0.5,1.1-0.8,2-0.8
			c0.8,0,1.5,0.2,1.9,0.7c0.4,0.5,0.7,1.1,0.7,1.9v1.2h-3.8c0,0,0.1,0.6,0.4,0.8s0.6,0.3,1,0.3c0.3,0,0.9-0.1,1.2-0.2
			c0.3-0.1,0.2-0.2,1.2-0.4v1.2c-1,0.1-0.8,0.2-1.1,0.3C183.6,259.2,183,259.2,182.6,259.2z M182.3,254.4c-0.3,0-0.6,0.3-0.8,0.6
			c-0.2,0.2-0.3,0.1-0.3,1.1h2.2c0-1-0.1-0.9-0.3-1.1C182.9,254.8,182.7,254.4,182.3,254.4z"/>
		<path class="st1" d="M189.7,259.1l-0.3-1h0c-0.3,1-0.5,0.7-0.8,0.8c-0.3,0.1-0.6,0.2-1.1,0.2c-0.5,0-1-0.1-1.3-0.4
			c-0.3-0.3-0.5-0.7-0.5-1.3c0-0.6,0.2-1,0.6-1.3c0.4-0.3,0.9-0.4,1.8-0.5l0.9,0v-0.2c0-0.6-0.2-0.9-0.7-0.9c-0.5,0-0.9,0.1-1.5,0.4
			l-0.5-1c0.7-0.3,1.4-0.5,2.2-0.5c0.8,0,1.5,0.2,1.9,0.5c0.4,0.3,0.7,0.8,0.7,1.5v3.8H189.7z M189.3,256.5l-0.6,0
			c-0.4,0-0.8,0.1-1,0.2c-0.2,0.1-0.3,0.4-0.3,0.7c0,0.4,0.3,0.7,0.8,0.7c0.4,0,0.6-0.1,0.9-0.3c0.2-0.2,0.3-0.5,0.3-0.8V256.5z"/>
		<path class="st1" d="M195.6,253.3c0.2,0,0.4,0,0.5,0l-0.1,1.4c-0.1,0-0.3-0.1-0.5-0.1c-0.5,0-0.8,0.1-1.1,0.4s-0.4,0.6-0.4,1.1
			v2.9h-2v-6h1.6l0.2,1h0.1c0.2,0,0.4-0.4,0.7-0.6S195.2,253.3,195.6,253.3z"/>
		<path class="st1" d="M201.1,257.4c0,0.6-0.2,1-0.6,1.3c-0.4,0.3-1,0.5-1.8,0.5c-0.4,0-0.6,0-0.9-0.1c-0.3-0.1-0.7-0.1-0.7-0.2
			v-1.3c0,0.1,0.5,0.2,0.9,0.3c0.4,0.1,0.6,0.1,0.9,0.1c0.6,0,0.8-0.2,0.8-0.5c0-0.1-0.1-0.2-0.1-0.3s-0.2-0.2-0.4-0.3
			c-0.2-0.1-0.4-0.2-0.7-0.3c-0.4-0.2-0.8-0.4-1-0.5c-0.2-0.2-0.4-0.3-0.4-0.5c-0.1-0.2-0.1-0.4-0.1-0.7c0-0.5,0.2-0.9,0.6-1.2
			c0.4-0.3,0.9-0.4,1.7-0.4c0.7,0,1.3,0.1,2,0.4l-0.5,1.1c-0.3-0.1-0.5-0.2-0.8-0.3c-0.2-0.1-0.5-0.1-0.8-0.1
			c-0.5,0-0.7,0.1-0.7,0.4c0,0.1,0.1,0.3,0.2,0.4c0.1,0.1,0.5,0.3,1,0.5c0.4,0.2,0.8,0.3,1,0.5c0.2,0.2,0.4,0.3,0.5,0.5
			C201,256.9,201.1,257.1,201.1,257.4z"/>
	</g>
</g>
<g>
	<g>
		<path class="st1" d="M289.3,255.2l1.5-3.1h1.7l-2.6,4.1v2.9h-1v-2.8l-2.9-4.2h1.7L289.3,255.2z"/>
		<path class="st1" d="M295.7,259.2c-0.9,0-1.6-0.3-2.1-0.8s-0.8-1.2-0.8-2.1c0-0.9,0.2-1.7,0.7-2.2c0.5-0.5,1.1-0.8,2-0.8
			c0.8,0,1.4,0.2,1.9,0.7c0.4,0.5,0.7,1.1,0.7,1.9v1.2h-3.7c0,0,0.1,0.6,0.4,0.8s0.6,0.3,1,0.3c0.3,0,0.8-0.1,1.1-0.2
			c0.3-0.1,0.1-0.2,1.1-0.4v1.2c-1,0.1-0.7,0.2-1,0.3S296.1,259.2,295.7,259.2z M295.5,254.4c-0.3,0-0.6,0.3-0.8,0.6
			c-0.2,0.2-0.3,0.1-0.3,1.1h2.2c0-1-0.1-0.9-0.3-1.1C296.1,254.8,295.8,254.4,295.5,254.4z"/>
		<path class="st1" d="M302.9,259.1l-0.3-1h0c-0.3,1-0.5,0.7-0.8,0.8c-0.3,0.1-0.6,0.2-1.1,0.2c-0.5,0-1-0.1-1.3-0.4
			c-0.3-0.3-0.5-0.7-0.5-1.3c0-0.6,0.2-1,0.6-1.3c0.4-0.3,0.9-0.4,1.7-0.5l0.8,0v-0.2c0-0.6-0.1-0.9-0.7-0.9c-0.5,0-0.9,0.1-1.5,0.4
			l-0.5-1c0.7-0.3,1.4-0.5,2.2-0.5c0.8,0,1.4,0.2,1.8,0.5c0.4,0.3,0.7,0.8,0.7,1.5v3.8H302.9z M302.4,256.5l-0.6,0
			c-0.4,0-0.8,0.1-1,0.2c-0.2,0.1-0.3,0.4-0.3,0.7c0,0.4,0.3,0.7,0.8,0.7c0.4,0,0.6-0.1,0.9-0.3c0.2-0.2,0.3-0.5,0.3-0.8V256.5z"/>
		<path class="st1" d="M308.7,253.3c0.2,0,0.4,0,0.5,0l-0.1,1.4c-0.1,0-0.3-0.1-0.5-0.1c-0.5,0-0.9,0.1-1.2,0.4s-0.4,0.6-0.4,1.1
			v2.9h-1v-6h0.7l0.2,1h0.1c0.2,0,0.4-0.4,0.7-0.6C308,253.3,308.3,253.3,308.7,253.3z"/>
		<path class="st1" d="M314.2,257.4c0,0.6-0.2,1-0.6,1.3c-0.4,0.3-1,0.5-1.8,0.5c-0.4,0-0.7,0-1-0.1c-0.3-0.1-0.8-0.1-0.8-0.2v-1.3
			c0,0.1,0.6,0.2,0.9,0.3c0.4,0.1,0.7,0.1,0.9,0.1c0.6,0,0.8-0.2,0.8-0.5c0-0.1,0-0.2-0.1-0.3c-0.1-0.1-0.2-0.2-0.4-0.3
			c-0.2-0.1-0.4-0.2-0.7-0.3c-0.4-0.2-0.8-0.4-1-0.5c-0.2-0.2-0.4-0.3-0.4-0.5c-0.1-0.2-0.1-0.4-0.1-0.7c0-0.5,0.2-0.9,0.6-1.2
			s0.9-0.4,1.7-0.4c0.7,0,1.3,0.1,2,0.4l-0.5,1.1c-0.3-0.1-0.5-0.2-0.8-0.3s-0.5-0.1-0.8-0.1c-0.5,0-0.7,0.1-0.7,0.4
			c0,0.1,0.1,0.3,0.2,0.4c0.1,0.1,0.5,0.3,1,0.5c0.4,0.2,0.8,0.3,1,0.5c0.2,0.2,0.4,0.3,0.5,0.5
			C314.1,256.9,314.2,257.1,314.2,257.4z"/>
	</g>
</g>
<g>
	<g>
		<path class="st1" d="M231.4,255.2l1.5-3.1h1.7l-2.6,4.1v2.9h-1v-2.8l-2.8-4.2h1.7L231.4,255.2z"/>
		<path class="st1" d="M237.8,259.2c-0.9,0-1.6-0.3-2.1-0.8s-0.8-1.2-0.8-2.1c0-0.9,0.2-1.7,0.7-2.2c0.5-0.5,1.1-0.8,2-0.8
			c0.8,0,1.4,0.2,1.8,0.7c0.4,0.5,0.6,1.1,0.6,1.9v1.2h-3.6c0,0,0.1,0.6,0.4,0.8c0.2,0.2,0.6,0.3,1,0.3c0.3,0,0.8-0.1,1.1-0.2
			c0.3-0.1,0.1-0.2,1.1-0.4v1.2c-1,0.1-0.7,0.2-1,0.3S238.2,259.2,237.8,259.2z M237.6,254.4c-0.3,0-0.6,0.3-0.8,0.6
			c-0.2,0.2-0.3,0.1-0.3,1.1h2.2c0-1-0.1-0.9-0.3-1.1C238.1,254.8,237.9,254.4,237.6,254.4z"/>
		<path class="st1" d="M244.9,259.1l-0.3-1h0c-0.3,1-0.5,0.7-0.8,0.8c-0.3,0.1-0.6,0.2-1.1,0.2c-0.5,0-1-0.1-1.3-0.4
			c-0.3-0.3-0.5-0.7-0.5-1.3c0-0.6,0.2-1,0.6-1.3c0.4-0.3,0.8-0.4,1.7-0.5l0.7,0v-0.2c0-0.6-0.1-0.9-0.6-0.9c-0.5,0-0.9,0.1-1.5,0.4
			l-0.5-1c0.7-0.3,1.4-0.5,2.2-0.5c0.8,0,1.4,0.2,1.8,0.5c0.4,0.3,0.6,0.8,0.6,1.5v3.8H244.9z M244.5,256.5l-0.6,0
			c-0.4,0-0.8,0.1-1,0.2c-0.2,0.1-0.3,0.4-0.3,0.7c0,0.4,0.3,0.7,0.8,0.7c0.4,0,0.6-0.1,0.9-0.3c0.2-0.2,0.3-0.5,0.3-0.8V256.5z"/>
		<path class="st1" d="M250.8,253.3c0.2,0,0.4,0,0.5,0l-0.1,1.4c-0.1,0-0.3-0.1-0.5-0.1c-0.5,0-1,0.1-1.2,0.4s-0.5,0.6-0.5,1.1v2.9
			h-1v-6h0.8l0.2,1h0.1c0.2,0,0.4-0.4,0.7-0.6C250.1,253.3,250.4,253.3,250.8,253.3z"/>
		<path class="st1" d="M256.3,257.4c0,0.6-0.2,1-0.6,1.3c-0.4,0.3-1,0.5-1.8,0.5c-0.4,0-0.8,0-1-0.1c-0.3-0.1-0.8-0.1-0.8-0.2v-1.3
			c0,0.1,0.6,0.2,1,0.3c0.4,0.1,0.7,0.1,0.9,0.1c0.6,0,0.8-0.2,0.8-0.5c0-0.1,0-0.2-0.1-0.3c-0.1-0.1-0.2-0.2-0.4-0.3
			c-0.2-0.1-0.4-0.2-0.7-0.3c-0.4-0.2-0.8-0.4-1-0.5c-0.2-0.2-0.4-0.3-0.4-0.5c-0.1-0.2-0.1-0.4-0.1-0.7c0-0.5,0.2-0.9,0.6-1.2
			s0.9-0.4,1.7-0.4c0.7,0,1.3,0.1,2,0.4l-0.5,1.1c-0.3-0.1-0.5-0.2-0.8-0.3s-0.5-0.1-0.8-0.1c-0.5,0-0.7,0.1-0.7,0.4
			c0,0.1,0.1,0.3,0.2,0.4c0.1,0.1,0.5,0.3,1,0.5c0.4,0.2,0.8,0.3,1,0.5c0.2,0.2,0.4,0.3,0.5,0.5
			C256.2,256.9,256.3,257.1,256.3,257.4z"/>
	</g>
</g>
<g>
	<g>
		<path class="st1" d="M71,246.1h-5v-1.5l1.6-1.9c0.6-0.6,0.8-1,1-1.2c0.2-0.2,0.2-0.4,0.3-0.6c0.1-0.2,0.1-0.4,0.1-0.6
			c0-0.3-0.1-0.5-0.3-0.7c-0.2-0.1-0.4-0.2-0.7-0.2c-0.3,0-0.6,0.1-0.8,0.2c-0.3,0.1-0.6,0.3-0.8,0.6l-0.9-1
			c0.4-0.3,0.7-0.5,0.9-0.7c0.2-0.1,0.5-0.2,0.8-0.3c0.3-0.1,0.6-0.1,1-0.1c0.5,0,0.9,0.1,1.2,0.3c0.4,0.2,0.6,0.4,0.8,0.7
			c0.2,0.3,0.3,0.7,0.3,1c0,0.3-0.1,0.7-0.2,1c-0.1,0.3-0.3,0.6-0.6,0.9c-0.3,0.3-0.9,0.8-1.6,1.3l-1.2,0.9v-0.2h4V246.1z"/>
		<path class="st1" d="M74.2,241c0.7,0,1.3,0.2,1.7,0.6c0.4,0.4,0.6,1,0.6,1.7c0,0.8-0.3,1.5-0.8,1.9c-0.5,0.4-1,0.7-2,0.7
			c-0.8,0-1.8-0.1-1.8-0.4v-1.4c0,0.1,0.4,0.3,0.7,0.3c0.4,0.1,0.6,0.1,0.9,0.1c1,0,1.4-0.4,1.4-1.2c0-0.7-0.5-1.1-1.5-1.1
			c-0.2,0-0.4,0-0.6,0.1s-0.4,0.1-0.5,0.1l-0.6-0.4l0.3-3.9h4v2h-2.6l-0.1,1.2l0.2-0.1C73.6,241.1,73.9,241,74.2,241z"/>
		<path class="st1" d="M77,243.1v-1h3v1H77z"/>
		<path class="st1" d="M85.6,240c0,0.5-0.2,0.9-0.4,1.2s-0.2,0.5-1.2,0.7v0c1,0.1,1.1,0.3,1.4,0.5c0.3,0.3,0.5,0.7,0.5,1.2
			c0,0.7-0.3,1.3-0.8,1.7s-1.1,0.6-2.1,0.6c-0.8,0-2-0.1-2-0.4v-1.3c0,0.1,0.5,0.3,0.8,0.4c0.3,0.1,0.6,0.1,1,0.1
			c0.5,0,0.9-0.1,1.1-0.3s0.4-0.5,0.4-0.8c0-0.3-0.2-0.8-0.4-1c-0.3-0.1-0.7-0.4-1.4-0.4H82v-1h0.4c0.6,0,1,0,1.3-0.1
			c0.3-0.1,0.4-0.4,0.4-0.7c0-0.6-0.4-0.8-1.1-0.8c-0.2,0-0.5,0.1-0.7,0.1c-0.3,0.1-0.5,0.2-0.8,0.4l-0.7-1.1
			c0.7-0.5,1.5-0.7,2.4-0.7c0.8,0,1.4,0.2,1.8,0.5C85.4,239,85.6,239.4,85.6,240z"/>
		<path class="st1" d="M92,244.1h-1v2h-1v-2h-4v-1l3.7-5H91v5h1V244.1z M90,243.1v-1.4c0-0.2-0.2-0.5-0.2-0.9c0-0.4-0.2-0.7-0.2-0.7
			h0c-0.1,0-0.3,0.6-0.5,0.9l-1.4,2.1H90z"/>
	</g>
</g>
<g>
	<g>
		<path class="st1" d="M123.8,240c0,0.5-0.2,0.9-0.5,1.2s-0.3,0.5-1.3,0.7v0c1,0.1,1.1,0.3,1.4,0.5c0.3,0.3,0.5,0.7,0.5,1.2
			c0,0.7-0.2,1.3-0.8,1.7s-1.2,0.6-2.1,0.6c-0.8,0-2.1-0.1-2.1-0.4v-1.3c0,0.1,0.5,0.3,0.9,0.4s0.6,0.1,1,0.1c0.5,0,0.9-0.1,1.1-0.3
			s0.4-0.5,0.4-0.8c0-0.3-0.1-0.8-0.4-1c-0.3-0.1-0.7-0.4-1.4-0.4H120v-1h0.6c0.6,0,1,0,1.3-0.1c0.3-0.1,0.4-0.4,0.4-0.7
			c0-0.6-0.4-0.8-1.1-0.8c-0.2,0-0.5,0.1-0.7,0.1c-0.3,0.1-0.5,0.2-0.8,0.4l-0.7-1.1c0.7-0.5,1.5-0.7,2.4-0.7c0.8,0,1.4,0.2,1.8,0.5
			C123.5,239,123.8,239.4,123.8,240z"/>
		<path class="st1" d="M127.5,241c0.7,0,1.3,0.2,1.7,0.6c0.4,0.4,0.6,1,0.6,1.7c0,0.8-0.3,1.5-0.8,1.9c-0.5,0.4-1.2,0.7-2.1,0.7
			c-0.8,0-1.9-0.1-1.9-0.4v-1.4c0,0.1,0.5,0.3,0.9,0.3c0.4,0.1,0.7,0.1,1,0.1c1,0,1.4-0.4,1.4-1.2c0-0.7-0.5-1.1-1.5-1.1
			c-0.2,0-0.4,0-0.6,0.1s-0.4,0.1-0.5,0.1L125,242l0.3-3.9h3.7v2h-2.3l-0.1,1.2l0.2-0.1C126.9,241.1,127.2,241,127.5,241z"/>
		<path class="st1" d="M131,243.1v-1h2v1H131z"/>
		<path class="st1" d="M139,244.1L139,244.1v2h-2v-2h-3v-1l3.1-5h1.9v5l0,0V244.1z M137,243.1v-1.4c0-0.2,0-0.5,0-0.9
			c0-0.4,0-0.7,0-0.7h0c-0.1,0-0.3,0.6-0.5,0.9l-1.4,2.1H137z"/>
		<path class="st1" d="M145,244.1h-1v2h-1v-2h-3v-1l3-5h1v5h1V244.1z M143,243.1v-1.4c0-0.2,0-0.5,0-0.9c0-0.4,0-0.7,0-0.7h0
			c-0.1,0-0.3,0.6-0.5,0.9l-1.4,2.1H143z"/>
	</g>
</g>
<g>
	<g>
		<path class="st1" d="M179,244.1L179,244.1v2h-2v-2h-3v-1l3.1-5h1.9v5l0,0V244.1z M177,243.1v-1.4c0-0.2,0-0.5,0-0.9
			c0-0.4,0-0.7,0-0.7h0c-0.1,0-0.3,0.6-0.5,0.9l-1.4,2.1H177z"/>
		<path class="st1" d="M182.7,241c0.7,0,1.3,0.2,1.7,0.6c0.4,0.4,0.6,1,0.6,1.7c0,0.8-0.3,1.5-0.8,1.9c-0.5,0.4-1.3,0.7-2.2,0.7
			c-0.8,0-1.1-0.1-2.1-0.4v-1.4c0,0.1,0.6,0.3,1,0.3c0.4,0.1,0.7,0.1,1,0.1c1,0,1.4-0.4,1.4-1.2c0-0.7-0.5-1.1-1.5-1.1
			c-0.2,0-0.4,0-0.6,0.1s-0.4,0.1-0.5,0.1l-0.6-0.4l0.3-3.9h4.5v2h-3.1l-0.1,1.2l0.2-0.1C182.2,241.1,182.4,241,182.7,241z"/>
		<path class="st1" d="M186,243.1v-1h3v1H186z"/>
		<path class="st1" d="M192,241c0.7,0,1.3,0.2,1.7,0.6c0.4,0.4,0.6,1,0.6,1.7c0,0.8-0.3,1.5-0.8,1.9c-0.5,0.4-1.4,0.7-2.4,0.7
			c-0.8,0-1.2-0.1-2.2-0.4v-1.4c1,0.1,0.8,0.3,1.1,0.3c0.4,0.1,0.8,0.1,1.1,0.1c1,0,1.5-0.4,1.5-1.2c0-0.7-0.5-1.1-1.5-1.1
			c-0.2,0-0.4,0-0.6,0.1c-0.2,0-0.4,0.1-0.5,0.1l-0.6-0.4l0.3-3.9h4.2v2h-2.8l-0.1,1.2l0.2-0.1C191.4,241.1,191.7,241,192,241z"/>
		<path class="st1" d="M201,244.1h-1v2h-2v-2h-3v-1l3.2-5h1.8v5h1V244.1z M198,243.1v-1.4c0-0.2,0.1-0.5,0.1-0.9
			c0-0.4,0.1-0.7,0.1-0.7h0c-0.1,0-0.3,0.6-0.5,0.9l-1.4,2.1H198z"/>
	</g>
</g>
<g>
	<g>
		<path class="st1" d="M232,241c0.7,0,1.3,0.2,1.7,0.6c0.4,0.4,0.6,1,0.6,1.7c0,0.8-0.3,1.5-0.8,1.9c-0.5,0.4-1.4,0.7-2.4,0.7
			c-0.8,0-1.2-0.1-2.2-0.4v-1.4c1,0.1,0.8,0.3,1.1,0.3c0.4,0.1,0.8,0.1,1.1,0.1c1,0,1.5-0.4,1.5-1.2c0-0.7-0.5-1.1-1.5-1.1
			c-0.2,0-0.4,0-0.6,0.1c-0.2,0-0.4,0.1-0.5,0.1l-0.6-0.4l0.3-3.9h4.2v2h-2.8l-0.1,1.2l0.2-0.1C231.4,241.1,231.7,241,232,241z"/>
		<path class="st1" d="M237.9,241c0.7,0,1.3,0.2,1.7,0.6c0.4,0.4,0.6,1,0.6,1.7c0,0.8-0.3,1.5-0.8,1.9c-0.5,0.4-1.4,0.7-2.3,0.7
			c-0.8,0-1.2-0.1-2.2-0.4v-1.4c1,0.1,0.7,0.3,1.1,0.3c0.4,0.1,0.8,0.1,1.1,0.1c1,0,1.5-0.4,1.5-1.2c0-0.7-0.5-1.1-1.5-1.1
			c-0.2,0-0.4,0-0.6,0.1c-0.2,0-0.4,0.1-0.5,0.1l-0.6-0.4l0.3-3.9h4.3v2h-2.9l-0.1,1.2l0.2-0.1C237.4,241.1,237.6,241,237.9,241z"/>
		<path class="st1" d="M241,243.1v-1h3v1H241z"/>
		<path class="st1" d="M244.5,242.6c0-1.5,0.3-2.6,0.9-3.3c0.6-0.7,1.5-1.1,2.7-1.1c0.4,0,0.9,0,0.9,0.1v1.3c0-0.1-0.5-0.1-0.8-0.1
			c-0.5,0-0.9,0.1-1.3,0.2c-0.3,0.2-0.6,0.6-0.7,0.9c-0.2,0.3-0.2,0.5-0.3,1.5h0.1c0.3-1,0.9-1,1.6-1c0.7,0,1.2,0.1,1.6,0.5
			c0.4,0.4,0.6,0.9,0.6,1.7c0,0.8-0.2,1.4-0.7,1.9c-0.4,0.5-1.1,0.7-1.9,0.7c-0.5,0-1-0.1-1.4-0.4s-0.7-0.6-0.9-1.1
			C244.6,243.9,244.5,243.3,244.5,242.6z M247.1,244.6c0.3,0,0.6-0.1,0.8-0.3c0.2-0.2,0.3-0.5,0.3-1c0-0.4-0.1-0.6-0.3-0.9
			c-0.2-0.2-0.4-0.3-0.8-0.3c-0.3,0-0.6,0.1-0.8,0.3s-0.3,0.4-0.3,0.7c0,0.4,0.1,0.7,0.3,1C246.5,244.5,246.8,244.6,247.1,244.6z"/>
		<path class="st1" d="M256,244.1h-1v2h-2v-2h-3v-1l3.5-5h1.5v5h1V244.1z M253,243.1v-1.4c0-0.2,0.2-0.5,0.2-0.9
			c0-0.4,0.2-0.7,0.2-0.7h0c-0.1,0-0.3,0.6-0.5,0.9l-1.4,2.1H253z"/>
	</g>
</g>
<g>
	<g>
		<path class="st1" d="M291.8,242.6c0-1.5,0.3-2.6,0.9-3.3c0.6-0.7,1.8-1.1,3-1.1c0.4,0,0.2,0,1.2,0.1v1.3c-1-0.1-0.8-0.1-1.1-0.1
			c-0.5,0-1.1,0.1-1.4,0.2c-0.3,0.2-0.7,0.6-0.8,0.9c-0.2,0.3-0.3,0.5-0.4,1.5h0.1c0.3-1,0.9-1,1.6-1c0.7,0,1.2,0.1,1.6,0.5
			c0.4,0.4,0.6,0.9,0.6,1.7c0,0.8-0.2,1.4-0.7,1.9c-0.4,0.5-1.1,0.7-1.9,0.7c-0.5,0-1-0.1-1.4-0.4s-0.7-0.6-0.9-1.1
			C291.9,243.9,291.8,243.3,291.8,242.6z M294.5,244.6c0.3,0,0.6-0.1,0.8-0.3c0.2-0.2,0.3-0.5,0.3-1c0-0.4-0.1-0.6-0.3-0.9
			c-0.2-0.2-0.4-0.3-0.8-0.3c-0.3,0-0.6,0.1-0.8,0.3s-0.3,0.4-0.3,0.7c0,0.4,0.1,0.7,0.3,1C293.9,244.5,294.1,244.6,294.5,244.6z"/>
		<path class="st1" d="M300.5,241c0.7,0,1.3,0.2,1.7,0.6c0.4,0.4,0.6,1,0.6,1.7c0,0.8-0.3,1.5-0.8,1.9c-0.5,0.4-1.2,0.7-2.1,0.7
			c-0.8,0-1.9-0.1-1.9-0.4v-1.4c0,0.1,0.5,0.3,0.9,0.3c0.4,0.1,0.7,0.1,1,0.1c1,0,1.4-0.4,1.4-1.2c0-0.7-0.5-1.1-1.5-1.1
			c-0.2,0-0.4,0-0.6,0.1s-0.4,0.1-0.5,0.1L298,242l0.3-3.9h3.7v2h-2.3l-0.1,1.2l0.2-0.1C299.9,241.1,300.2,241,300.5,241z"/>
		<path class="st1" d="M306,243.1h-2v-2h2v-2h1v2h2v2h-2v1h-1V243.1z"/>
	</g>
</g>
<rect x="9.5" y="20.6" class="st2" width="24" height="207"/>
<rect x="64.5" y="20.6" class="st2" width="24" height="207"/>
<rect x="120.5" y="20.6" class="st2" width="23" height="207"/>
<rect x="175.5" y="20.6" class="st2" width="24" height="207"/>
<rect x="230.5" y="20.6" class="st2" width="24" height="207"/>
<rect x="285.5" y="20.6" class="st2" width="24" height="207"/>
<rect x="10" y="186.1" class="st3" width="23" height="41"/>
<rect x="65" y="129.1" class="st3" width="24" height="98"/>
<rect x="120" y="192.1" class="st3" width="24" height="35"/>
<rect x="175" y="212.1" class="st3" width="24" height="15"/>
<rect x="231" y="220.1" class="st3" width="23" height="7"/>
<rect x="286" y="220.1" class="st3" width="23" height="7"/>
</svg>