<?xml version="1.0" encoding="utf-8"?>
<!-- Generator: Adobe Illustrator 19.0.0, SVG Export Plug-In . SVG Version: 6.00 Build 0)  -->
<svg version="1.1" id="Layer_1" xmlns="http://www.w3.org/2000/svg" xmlns:xlink="http://www.w3.org/1999/xlink" x="0px" y="0px"
	 viewBox="0 0 282 66" style="enable-background:new 0 0 282 66;" xml:space="preserve">
<style type="text/css">
	.st0{fill:#0C6B88;}
	.st1{fill:#FFFFFF;}
	.st2{fill:#F2673A;}
	.st3{fill:none;stroke:#FFFFFF;stroke-miterlimit:10;stroke-dasharray:3.132;}
	.st4{fill:#49C2C6;}
	.st5{fill:#2BBAB6;}
	.st6{fill:none;stroke:#49C2C6;stroke-width:2;stroke-linecap:round;stroke-linejoin:round;stroke-miterlimit:10;}
	.st7{fill:none;stroke:#FFFFFF;stroke-width:2;stroke-linecap:round;stroke-linejoin:round;stroke-miterlimit:10;}
	.st8{fill:none;stroke:#F2673A;stroke-width:2;stroke-miterlimit:10;}
	.st9{fill:#FFFFFF;stroke:#FFFFFF;stroke-width:0.7;stroke-miterlimit:10;}
	.st10{fill:none;stroke:#FFFFFF;stroke-width:2.2793;stroke-linecap:round;stroke-linejoin:round;stroke-miterlimit:10;}
	.st11{fill:none;stroke:#FFFFFF;stroke-width:2;stroke-miterlimit:10;}
</style>
<rect id="XMLID_100_" x="-1915" y="533" class="st0" width="1202" height="632"/>
<circle id="XMLID_3_" class="st0" cx="-1450.7" cy="885.6" r="4.3"/>
<g id="XMLID_31_">
	<g id="XMLID_4_">
		<path id="XMLID_98_" class="st1" d="M-1629.9,817.6h-17.9V748h-22.9v-14.9h63.8V748h-22.9V817.6z"/>
		<path id="XMLID_96_" class="st1" d="M-1535.7,817.6h-17.6v-37.7c0-9.3-3.5-14-10.4-14c-4.9,0-8.5,1.7-10.7,5s-3.3,8.8-3.3,16.3
			v30.4h-17.6v-89.9h17.6V746c0,1.4-0.1,4.8-0.4,10.1l-0.4,5.2h0.9c3.9-6.3,10.2-9.5,18.7-9.5c7.6,0,13.4,2,17.3,6.1
			c3.9,4.1,5.9,9.9,5.9,17.6V817.6z"/>
		<path id="XMLID_93_" class="st1" d="M-1488.3,818.8c-10.4,0-18.5-2.9-24.4-8.6c-5.9-5.7-8.8-13.9-8.8-24.4
			c0-10.8,2.7-19.2,8.1-25.1c5.4-5.9,12.9-8.9,22.5-8.9c9.1,0,16.2,2.6,21.3,7.8c5.1,5.2,7.6,12.4,7.6,21.6v8.6h-41.7
			c0.2,5,1.7,8.9,4.5,11.7c2.8,2.8,6.7,4.2,11.7,4.2c3.9,0,7.6-0.4,11-1.2c3.5-0.8,7.1-2.1,10.9-3.9v13.6c-3.1,1.5-6.4,2.7-9.9,3.4
			C-1478.9,818.4-1483.2,818.8-1488.3,818.8z M-1490.8,764.3c-3.7,0-6.7,1.2-8.8,3.6c-2.1,2.4-3.3,5.7-3.6,10.1h24.7
			c-0.1-4.4-1.2-7.7-3.4-10.1C-1484,765.5-1487,764.3-1490.8,764.3z"/>
		<path id="XMLID_91_" class="st1" d="M-1346.2,817.6h-17.9v-36.5h-33.5v36.5h-17.9v-84.5h17.9v33.1h33.5v-33.1h17.9V817.6z"/>
		<path id="XMLID_88_" class="st1" d="M-1327,736.3c0-5.7,3.2-8.6,9.6-8.6c6.4,0,9.6,2.9,9.6,8.6c0,2.7-0.8,4.9-2.4,6.4
			c-1.6,1.5-4,2.3-7.2,2.3C-1323.8,744.9-1327,742.1-1327,736.3z M-1308.6,817.6h-17.6V753h17.6V817.6z"/>
		<path id="XMLID_86_" class="st1" d="M-1245,798.4c0,6.6-2.3,11.7-6.9,15.1c-4.6,3.5-11.5,5.2-20.7,5.2c-4.7,0-8.7-0.3-12-1
			c-3.3-0.6-6.4-1.6-9.3-2.8v-14.6c3.3,1.5,7,2.8,11.1,3.9c4.1,1,7.7,1.6,10.8,1.6c6.4,0,9.6-1.8,9.6-5.5c0-1.4-0.4-2.5-1.3-3.4
			c-0.8-0.9-2.3-1.8-4.4-2.9c-2.1-1.1-4.9-2.4-8.3-3.8c-5-2.1-8.6-4-11-5.8c-2.3-1.8-4-3.8-5.1-6.1c-1.1-2.3-1.6-5.1-1.6-8.5
			c0-5.7,2.2-10.2,6.7-13.3c4.5-3.1,10.8-4.7,18.9-4.7c7.8,0,15.4,1.7,22.7,5.1l-5.3,12.7c-3.2-1.4-6.3-2.5-9.1-3.4
			c-2.8-0.9-5.7-1.3-8.6-1.3c-5.2,0-7.8,1.4-7.8,4.2c0,1.6,0.8,2.9,2.5,4.1c1.7,1.2,5.3,2.9,11,5.1c5,2,8.7,4,11.1,5.7
			c2.3,1.8,4.1,3.8,5.2,6.1C-1245.6,792.5-1245,795.2-1245,798.4z"/>
		<path id="XMLID_84_" class="st1" d="M-1204,804.7c3.1,0,6.8-0.7,11.1-2v13.1c-4.4,2-9.8,2.9-16.2,2.9c-7.1,0-12.2-1.8-15.4-5.3
			c-3.2-3.6-4.8-8.9-4.8-16v-31.2h-8.4v-7.5l9.7-5.9l5.1-13.6h11.3V753h18.1v13.2h-18.1v31.2c0,2.5,0.7,4.4,2.1,5.5
			C-1208.2,804.1-1206.4,804.7-1204,804.7z"/>
		<path id="XMLID_81_" class="st1" d="M-1121.2,785.2c0,10.5-2.8,18.7-8.3,24.7c-5.5,5.9-13.3,8.9-23.2,8.9
			c-6.2,0-11.7-1.4-16.4-4.1c-4.7-2.7-8.4-6.6-10.9-11.7c-2.5-5.1-3.8-11-3.8-17.8c0-10.6,2.8-18.8,8.3-24.6
			c5.5-5.9,13.3-8.8,23.2-8.8c6.2,0,11.7,1.3,16.4,4c4.7,2.7,8.4,6.6,10.9,11.6C-1122.4,772.5-1121.2,778.4-1121.2,785.2z
			 M-1165.8,785.2c0,6.4,1.1,11.2,3.2,14.5c2.1,3.3,5.5,4.9,10.3,4.9c4.7,0,8.1-1.6,10.1-4.9c2.1-3.3,3.1-8.1,3.1-14.5
			c0-6.4-1-11.2-3.1-14.4c-2.1-3.2-5.5-4.8-10.2-4.8c-4.7,0-8.1,1.6-10.2,4.8C-1164.8,773.9-1165.8,778.7-1165.8,785.2z"/>
		<path id="XMLID_79_" class="st1" d="M-1070.5,751.8c2.4,0,4.4,0.2,6,0.5l-1.3,16.5c-1.4-0.4-3.2-0.6-5.2-0.6
			c-5.6,0-10,1.4-13.1,4.3c-3.1,2.9-4.7,6.9-4.7,12.1v32.9h-17.6V753h13.4l2.6,10.9h0.9c2-3.6,4.7-6.5,8.1-8.8
			C-1078.2,752.9-1074.5,751.8-1070.5,751.8z"/>
		<path id="XMLID_77_" class="st1" d="M-1062.1,753h19.3l12.2,36.4c1,3.2,1.8,6.9,2.1,11.2h0.3c0.4-4,1.3-7.7,2.5-11.2l12-36.4h18.9
			l-27.3,72.9c-2.5,6.7-6.1,11.8-10.7,15.1c-4.6,3.4-10.1,5-16.3,5c-3,0-6-0.3-9-1v-14c2.1,0.5,4.4,0.8,6.9,0.8c3.1,0,5.8-1,8.2-2.9
			c2.3-1.9,4.2-4.8,5.5-8.6l1-3.2L-1062.1,753z"/>
		<path id="XMLID_74_" class="st1" d="M-1605.1,903.9c0,10.5-2.8,18.7-8.3,24.7c-5.5,5.9-13.3,8.9-23.2,8.9
			c-6.2,0-11.7-1.4-16.4-4.1c-4.7-2.7-8.4-6.6-10.9-11.7c-2.5-5.1-3.8-11-3.8-17.8c0-10.6,2.8-18.8,8.3-24.6
			c5.5-5.9,13.3-8.8,23.2-8.8c6.2,0,11.7,1.3,16.4,4c4.7,2.7,8.4,6.6,10.9,11.6C-1606.4,891.2-1605.1,897.1-1605.1,903.9z
			 M-1649.8,903.9c0,6.4,1.1,11.2,3.2,14.5c2.1,3.3,5.5,4.9,10.3,4.9c4.7,0,8.1-1.6,10.1-4.9c2.1-3.3,3.1-8.1,3.1-14.5
			c0-6.4-1-11.2-3.1-14.4c-2.1-3.2-5.5-4.8-10.2-4.8c-4.7,0-8.1,1.6-10.2,4.8C-1648.8,892.7-1649.8,897.5-1649.8,903.9z"/>
		<path id="XMLID_22_" class="st1" d="M-1554.9,885h-15.3v51.4h-17.6V885h-9.7v-8.5l9.7-4.7V867c0-7.4,1.8-12.7,5.4-16.1
			c3.6-3.4,9.4-5.1,17.4-5.1c6.1,0,11.5,0.9,16.2,2.7l-4.5,12.9c-3.5-1.1-6.8-1.7-9.8-1.7c-2.5,0-4.3,0.7-5.4,2.2
			c-1.1,1.5-1.7,3.4-1.7,5.7v4h15.3V885z"/>
		<path id="XMLID_20_" class="st2" d="M-1476.7,865.5c-6.7,0-12,2.5-15.7,7.6c-3.7,5.1-5.5,12.1-5.5,21.2c0,18.8,7.1,28.3,21.2,28.3
			c5.9,0,13.1-1.5,21.6-4.5v15c-6.9,2.9-14.7,4.3-23.2,4.3c-12.3,0-21.7-3.7-28.2-11.2c-6.5-7.5-9.8-18.2-9.8-32.1
			c0-8.8,1.6-16.5,4.8-23.1c3.2-6.6,7.8-11.7,13.8-15.2c6-3.5,13-5.3,21.1-5.3c8.2,0,16.5,2,24.7,6l-5.8,14.6
			c-3.2-1.5-6.3-2.8-9.5-3.9C-1470.5,866.1-1473.6,865.5-1476.7,865.5z"/>
		<path id="XMLID_18_" class="st2" d="M-1379.8,903.9c0,10.5-2.8,18.7-8.3,24.7c-5.5,5.9-13.3,8.9-23.2,8.9
			c-6.2,0-11.7-1.4-16.4-4.1c-4.7-2.7-8.4-6.6-10.9-11.7s-3.8-11-3.8-17.8c0-10.6,2.8-18.8,8.3-24.6c5.5-5.9,13.3-8.8,23.2-8.8
			c6.2,0,11.7,1.3,16.4,4c4.7,2.7,8.4,6.6,10.9,11.6C-1381.1,891.2-1379.8,897.1-1379.8,903.9z M-1424.5,903.9
			c0,6.4,1.1,11.2,3.2,14.5c2.1,3.3,5.5,4.9,10.3,4.9c4.7,0,8.1-1.6,10.1-4.9c2.1-3.3,3.1-8.1,3.1-14.5c0-6.4-1-11.2-3.1-14.4
			c-2.1-3.2-5.5-4.8-10.2-4.8c-4.7,0-8.1,1.6-10.2,4.8C-1423.5,892.7-1424.5,897.5-1424.5,903.9z"/>
		<path id="XMLID_15_" class="st2" d="M-1319.5,936.3l-2.4-8.3h-0.9c-1.9,3-4.6,5.3-8,7c-3.5,1.6-7.4,2.5-11.9,2.5
			c-7.6,0-13.3-2-17.2-6.1c-3.9-4.1-5.8-9.9-5.8-17.5v-42.1h17.6v37.7c0,4.7,0.8,8.2,2.5,10.5c1.7,2.3,4.3,3.5,7.9,3.5
			c4.9,0,8.5-1.6,10.7-4.9c2.2-3.3,3.3-8.8,3.3-16.4v-30.4h17.6v64.6H-1319.5z"/>
		<path id="XMLID_62_" class="st2" d="M-1252,937.5c-7.6,0-13.5-2.8-17.9-8.3h-0.9c0.6,5.4,0.9,8.5,0.9,9.4v26.2h-17.6v-93.1h14.3
			l2.5,8.4h0.8c4.1-6.4,10.2-9.6,18.3-9.6c7.6,0,13.6,2.9,17.9,8.8c4.3,5.9,6.5,14.1,6.5,24.6c0,6.9-1,12.9-3,18
			c-2,5.1-4.9,9-8.6,11.6C-1242.5,936.2-1246.9,937.5-1252,937.5z M-1257.2,884.6c-4.4,0-7.5,1.3-9.5,4c-2,2.7-3,7.1-3.1,13.3v1.9
			c0,6.9,1,11.9,3.1,14.9c2.1,3,5.3,4.5,9.8,4.5c7.9,0,11.9-6.5,11.9-19.5c0-6.4-1-11.1-2.9-14.3
			C-1249.9,886.2-1253,884.6-1257.2,884.6z"/>
		<path id="XMLID_11_" class="st2" d="M-1153.8,903.9c0,10.5-2.8,18.7-8.3,24.7c-5.5,5.9-13.3,8.9-23.2,8.9
			c-6.2,0-11.7-1.4-16.4-4.1c-4.7-2.7-8.4-6.6-10.9-11.7c-2.5-5.1-3.8-11-3.8-17.8c0-10.6,2.8-18.8,8.3-24.6
			c5.5-5.9,13.3-8.8,23.2-8.8c6.2,0,11.7,1.3,16.4,4c4.7,2.7,8.4,6.6,10.9,11.6C-1155.1,891.2-1153.8,897.1-1153.8,903.9z
			 M-1198.5,903.9c0,6.4,1.1,11.2,3.2,14.5c2.1,3.3,5.5,4.9,10.3,4.9c4.7,0,8.1-1.6,10.1-4.9c2.1-3.3,3.1-8.1,3.1-14.5
			c0-6.4-1-11.2-3.1-14.4c-2.1-3.2-5.5-4.8-10.2-4.8c-4.7,0-8.1,1.6-10.2,4.8C-1197.5,892.7-1198.5,897.5-1198.5,903.9z"/>
		<path id="XMLID_6_" class="st2" d="M-1079.6,936.3h-17.6v-37.7c0-4.7-0.8-8.2-2.5-10.5c-1.7-2.3-4.3-3.5-7.9-3.5
			c-4.9,0-8.5,1.6-10.7,4.9c-2.2,3.3-3.3,8.8-3.3,16.4v30.4h-17.6v-64.6h13.5l2.4,8.3h1c2-3.1,4.7-5.5,8.1-7.1
			c3.4-1.6,7.4-2.4,11.8-2.4c7.5,0,13.2,2,17.1,6.1s5.8,9.9,5.8,17.6V936.3z"/>
		<path id="XMLID_55_" class="st2" d="M-1016.4,917.2c0,6.6-2.3,11.7-6.9,15.1c-4.6,3.5-11.5,5.2-20.7,5.2c-4.7,0-8.7-0.3-12-1
			c-3.3-0.6-6.4-1.6-9.3-2.8v-14.6c3.3,1.5,7,2.8,11.1,3.9c4.1,1,7.7,1.6,10.8,1.6c6.4,0,9.6-1.8,9.6-5.5c0-1.4-0.4-2.5-1.3-3.4
			c-0.8-0.9-2.3-1.8-4.4-2.9c-2.1-1.1-4.9-2.4-8.3-3.8c-5-2.1-8.6-4-11-5.8c-2.3-1.8-4-3.8-5.1-6.1c-1.1-2.3-1.6-5.1-1.6-8.5
			c0-5.7,2.2-10.2,6.7-13.3c4.5-3.1,10.8-4.7,18.9-4.7c7.8,0,15.4,1.7,22.7,5.1l-5.3,12.7c-3.2-1.4-6.3-2.5-9.1-3.4
			c-2.8-0.9-5.7-1.3-8.6-1.3c-5.2,0-7.8,1.4-7.8,4.2c0,1.6,0.8,2.9,2.5,4.1c1.7,1.2,5.3,2.9,11,5.1c5,2,8.7,4,11.1,5.7
			c2.3,1.8,4.1,3.8,5.2,6.1S-1016.4,914-1016.4,917.2z"/>
	</g>
	<rect id="XMLID_2_" x="-1751.5" y="684.5" class="st3" width="876" height="330"/>
</g>
<g id="XMLID_45_">
	<path id="XMLID_169_" class="st2" d="M-163.7-431.4c0-2.9,2.4-5,5.1-5c2.7,0,5.1,2.1,5.1,5c0,3-2.4,5.1-5.1,5.1
		C-161.4-426.3-163.7-428.3-163.7-431.4z"/>
	<rect id="XMLID_168_" x="-163.7" y="-416.7" class="st0" width="10.2" height="42"/>
	<path id="XMLID_394_" class="st0" d="M-51.7-435.2c-2.7,0-5,2.1-5,5c0,3,2.3,5,5,5c2.7,0,5-2,5-5C-46.6-433.1-49-435.2-51.7-435.2z
		 M-56.8-415.6v42h10.2v-42H-56.8z"/>
	<g id="XMLID_237_">
		<g id="XMLID_744_">
			<path id="XMLID_820_" class="st0" d="M-119-357.5l-4.1-7.5h1.9l2.5,4.5c0.3,0.6,0.7,1.6,0.7,1.6s0.3-1,0.7-1.6l2.4-4.5h1.8
				l-4,7.4v3.6h-1.7V-357.5z"/>
			<path id="XMLID_817_" class="st0" d="M-114.4-357.4c0-2,1.6-3.5,3.6-3.5c2.1,0,3.6,1.5,3.6,3.5c0,2-1.6,3.5-3.6,3.5
				C-112.8-353.9-114.4-355.4-114.4-357.4z M-108.8-357.4c0-1.2-0.8-2.1-2-2.1c-1.2,0-2,0.9-2,2.1c0,1.2,0.8,2.1,2,2.1
				C-109.5-355.3-108.8-356.2-108.8-357.4z"/>
			<path id="XMLID_815_" class="st0" d="M-105.4-356.8v-4h1.6v3.9c0,1,0.4,1.5,1.4,1.5c1.1,0,1.7-0.7,1.7-1.8v-3.7h1.6v6.8h-1.6
				l0-1.2c-0.4,0.9-1.2,1.4-2.3,1.4C-104.4-353.9-105.4-355-105.4-356.8z"/>
			<path id="XMLID_813_" class="st0" d="M-97-360.8h1.6l0,1.3c0.4-1.1,1.2-1.4,2-1.4c0.5,0,0.8,0.1,1.1,0.3l-0.5,1.5
				c-0.3-0.1-0.5-0.2-0.9-0.2c-1,0-1.6,0.6-1.6,2.1v3.3H-97V-360.8z"/>
			<path id="XMLID_810_" class="st0" d="M-87.7-357.4c0-2,1.6-3.5,3.6-3.5c2.1,0,3.6,1.5,3.6,3.5c0,2-1.6,3.5-3.6,3.5
				C-86.1-353.9-87.7-355.4-87.7-357.4z M-82.1-357.4c0-1.2-0.8-2.1-2-2.1c-1.2,0-2,0.9-2,2.1c0,1.2,0.8,2.1,2,2.1
				C-82.8-355.3-82.1-356.2-82.1-357.4z"/>
			<path id="XMLID_808_" class="st0" d="M-78.7-360.8h1.6l0,1.3c0.4-0.9,1.3-1.4,2.3-1.4c1.5,0,2.5,1.1,2.5,2.9v4h-1.6v-3.9
				c0-1-0.5-1.5-1.4-1.5c-1.1,0-1.8,0.6-1.8,1.7v3.7h-1.6V-360.8z"/>
			<path id="XMLID_805_" class="st0" d="M-66.8-355.3c0.9,0,1.5-0.4,1.9-0.7l0.9,1c-0.6,0.6-1.5,1.1-2.8,1.1c-2.3,0-3.8-1.5-3.8-3.5
				c0-2,1.6-3.5,3.6-3.5c2.3,0,3.6,1.7,3.5,4.1H-69C-68.8-355.9-68.1-355.3-66.8-355.3z M-65.2-358c-0.1-0.9-0.7-1.6-1.8-1.6
				c-1,0-1.8,0.6-2,1.6H-65.2z"/>
			<path id="XMLID_803_" class="st0" d="M-58.8-355.3l1.1-0.8c0.4,0.6,1,0.9,1.8,0.9c0.8,0,1.2-0.3,1.2-0.7c0-0.5-0.5-0.6-1.6-0.9
				c-1-0.3-2-0.7-2-2.1c0-1.3,1.1-2,2.4-2c1.1,0,1.8,0.4,2.3,1l-0.9,0.9c-0.3-0.4-0.8-0.7-1.4-0.7c-0.6,0-0.9,0.2-0.9,0.6
				c0,0.5,0.4,0.6,1.5,0.9c1.1,0.3,2.2,0.7,2.2,2.1c0,1.2-0.7,2.1-2.6,2.1C-57.3-353.9-58.3-354.6-58.8-355.3z"/>
			<path id="XMLID_801_" class="st0" d="M-51.2-356.4v-3.1h-1v-1.4h1v-3.5h1.6v3.5h1.8v1.4h-1.8v3.1c0,0.8,0.3,1,0.7,1
				c0.4,0,0.6-0.2,0.8-0.3l0.8,1.1c-0.3,0.3-0.9,0.6-1.7,0.6C-50.3-353.9-51.2-354.6-51.2-356.4z"/>
			<path id="XMLID_798_" class="st0" d="M-46.4-357.4c0-2,1.6-3.5,3.6-3.5c2.1,0,3.6,1.5,3.6,3.5c0,2-1.6,3.5-3.6,3.5
				C-44.8-353.9-46.4-355.4-46.4-357.4z M-40.8-357.4c0-1.2-0.8-2.1-2-2.1c-1.2,0-2,0.9-2,2.1c0,1.2,0.8,2.1,2,2.1
				C-41.5-355.3-40.8-356.2-40.8-357.4z"/>
			<path id="XMLID_795_" class="st0" d="M-37.4-360.8h1.6l0,1.3c0.4-0.8,1.2-1.4,2.4-1.4c1.7,0,3.1,1.5,3.1,3.5c0,2-1.4,3.5-3.2,3.5
				c-1.1,0-1.9-0.5-2.3-1.3v4.6h-1.6V-360.8z M-31.9-357.5c0-1.2-0.7-2.1-1.9-2.1c-1.2,0-2,0.8-2,2.1c0,1.3,0.8,2.1,2,2.1
				C-32.7-355.4-31.9-356.2-31.9-357.5z"/>
			<path id="XMLID_793_" class="st0" d="M-25.5-355.3l1.1-0.8c0.4,0.6,1,0.9,1.8,0.9c0.8,0,1.2-0.3,1.2-0.7c0-0.5-0.5-0.6-1.6-0.9
				c-1-0.3-2-0.7-2-2.1c0-1.3,1.1-2,2.4-2c1.1,0,1.8,0.4,2.3,1l-0.9,0.9c-0.3-0.4-0.8-0.7-1.4-0.7c-0.6,0-0.9,0.2-0.9,0.6
				c0,0.5,0.4,0.6,1.5,0.9c1.1,0.3,2.2,0.7,2.2,2.1c0,1.2-0.7,2.1-2.6,2.1C-24-353.9-25-354.6-25.5-355.3z"/>
			<path id="XMLID_791_" class="st0" d="M-18.2-365.7h1.6v6c0.4-0.8,1.2-1.3,2.3-1.3c1.5,0,2.5,1.1,2.5,2.9v4h-1.6v-3.9
				c0-1-0.4-1.5-1.4-1.5c-1.1,0-1.8,0.6-1.8,1.7v3.7h-1.6V-365.7z"/>
			<path id="XMLID_788_" class="st0" d="M-10.1-357.4c0-2,1.6-3.5,3.6-3.5c2.1,0,3.6,1.5,3.6,3.5c0,2-1.6,3.5-3.6,3.5
				C-8.5-353.9-10.1-355.4-10.1-357.4z M-4.5-357.4c0-1.2-0.8-2.1-2-2.1c-1.2,0-2,0.9-2,2.1c0,1.2,0.8,2.1,2,2.1
				C-5.3-355.3-4.5-356.2-4.5-357.4z"/>
			<path id="XMLID_785_" class="st0" d="M-1.1-360.8h1.6l0,1.3c0.4-0.8,1.2-1.4,2.4-1.4c1.7,0,3.1,1.5,3.1,3.5c0,2-1.4,3.5-3.2,3.5
				c-1.1,0-1.9-0.5-2.3-1.3v4.6h-1.6V-360.8z M4.3-357.5c0-1.2-0.7-2.1-1.9-2.1c-1.2,0-2,0.8-2,2.1c0,1.3,0.8,2.1,2,2.1
				C3.6-355.4,4.3-356.2,4.3-357.5z"/>
			<path id="XMLID_782_" class="st0" d="M7.7-360.8h1.6l0,1.3c0.4-0.8,1.2-1.4,2.4-1.4c1.7,0,3.1,1.5,3.1,3.5c0,2-1.4,3.5-3.2,3.5
				c-1.1,0-1.9-0.5-2.3-1.3v4.6H7.7V-360.8z M13.2-357.5c0-1.2-0.7-2.1-1.9-2.1c-1.2,0-2,0.8-2,2.1c0,1.3,0.8,2.1,2,2.1
				C12.4-355.4,13.2-356.2,13.2-357.5z"/>
			<path id="XMLID_779_" class="st0" d="M16.4-363.4c0-0.6,0.5-1.1,1.1-1.1c0.6,0,1.1,0.5,1.1,1.1c0,0.6-0.5,1.1-1.1,1.1
				C16.9-362.4,16.4-362.8,16.4-363.4z M16.6-360.8h1.6v6.8h-1.6V-360.8z"/>
			<path id="XMLID_777_" class="st0" d="M20.4-360.8H22l0,1.3c0.4-0.9,1.3-1.4,2.3-1.4c1.5,0,2.5,1.1,2.5,2.9v4h-1.6v-3.9
				c0-1-0.5-1.5-1.4-1.5c-1.1,0-1.8,0.6-1.8,1.7v3.7h-1.6V-360.8z"/>
			<path id="XMLID_773_" class="st0" d="M35-360.8v1.2h-1.2c0.3,0.3,0.4,0.7,0.4,1.1c0,1.4-1.1,2.5-2.7,2.5c-0.5,0-1-0.1-1.4-0.3
				c-0.2,0.1-0.4,0.3-0.4,0.6c0,0.4,0.3,0.5,0.8,0.6l1.7,0.1c1.9,0.1,2.9,0.8,2.9,2.2c0,1.4-1.2,2.4-3.7,2.4c-2.3,0-3.5-0.9-3.5-2.2
				c0-0.8,0.6-1.3,1.4-1.6c-0.6-0.3-0.9-0.7-0.9-1.3c0-0.6,0.3-1,0.9-1.3c-0.4-0.4-0.7-1-0.7-1.6c0-1.4,1.1-2.4,2.8-2.4
				c0.4,0,0.7,0,1,0.1H35z M29.5-352.9c0,0.7,0.6,1.2,1.9,1.2c1.4,0,2-0.4,2-1.1c0-0.6-0.3-0.8-1.5-0.9l-1.9-0.1
				C29.7-353.6,29.5-353.3,29.5-352.9z M32.8-358.5c0-0.7-0.5-1.2-1.3-1.2c-0.8,0-1.3,0.5-1.3,1.2c0,0.8,0.5,1.3,1.3,1.3
				C32.3-357.3,32.8-357.8,32.8-358.5z"/>
			<path id="XMLID_770_" class="st0" d="M39.8-357.5c0-2,1.4-3.5,3.1-3.5c1.2,0,1.9,0.5,2.3,1.3v-6h1.6v11.6h-1.6l0-1.2
				c-0.4,0.8-1.2,1.4-2.4,1.4C41.2-353.9,39.8-355.4,39.8-357.5z M45.3-357.5c0-1.2-0.8-2.1-2-2.1c-1.2,0-1.9,0.8-1.9,2.1
				c0,1.3,0.7,2.1,1.9,2.1C44.5-355.4,45.3-356.2,45.3-357.5z"/>
			<path id="XMLID_767_" class="st0" d="M52.4-355.3c0.9,0,1.5-0.4,1.9-0.7l0.9,1c-0.6,0.6-1.5,1.1-2.8,1.1c-2.3,0-3.8-1.5-3.8-3.5
				c0-2,1.6-3.5,3.6-3.5c2.3,0,3.6,1.7,3.5,4.1h-5.4C50.4-355.9,51.2-355.3,52.4-355.3z M54-358c-0.1-0.9-0.7-1.6-1.8-1.6
				c-1,0-1.8,0.6-2,1.6H54z"/>
			<path id="XMLID_765_" class="st0" d="M56.7-355.3l1.1-0.8c0.4,0.6,1,0.9,1.8,0.9c0.8,0,1.2-0.3,1.2-0.7c0-0.5-0.5-0.6-1.6-0.9
				c-1-0.3-2-0.7-2-2.1c0-1.3,1.1-2,2.4-2c1.1,0,1.8,0.4,2.3,1L61-359c-0.3-0.4-0.8-0.7-1.4-0.7c-0.6,0-0.9,0.2-0.9,0.6
				c0,0.5,0.4,0.6,1.5,0.9c1.1,0.3,2.2,0.7,2.2,2.1c0,1.2-0.7,2.1-2.6,2.1C58.2-353.9,57.2-354.6,56.7-355.3z"/>
			<path id="XMLID_763_" class="st0" d="M64.3-356.4v-3.1h-1v-1.4h1v-3.5h1.6v3.5h1.8v1.4h-1.8v3.1c0,0.8,0.3,1,0.7,1
				c0.4,0,0.6-0.2,0.8-0.3l0.8,1.1c-0.3,0.3-0.9,0.6-1.7,0.6C65.1-353.9,64.3-354.6,64.3-356.4z"/>
			<path id="XMLID_760_" class="st0" d="M69.2-363.4c0-0.6,0.5-1.1,1.1-1.1c0.6,0,1.1,0.5,1.1,1.1c0,0.6-0.5,1.1-1.1,1.1
				C69.7-362.4,69.2-362.8,69.2-363.4z M69.5-360.8h1.6v6.8h-1.6V-360.8z"/>
			<path id="XMLID_758_" class="st0" d="M73.2-360.8h1.6l0,1.3c0.4-0.9,1.3-1.4,2.3-1.4c1.5,0,2.5,1.1,2.5,2.9v4H78v-3.9
				c0-1-0.4-1.5-1.4-1.5c-1.1,0-1.8,0.6-1.8,1.7v3.7h-1.6V-360.8z"/>
			<path id="XMLID_755_" class="st0" d="M84.3-359.6c-0.9,0-1.4,0.4-1.8,0.8l-0.9-0.9c0.6-0.7,1.4-1.2,2.8-1.2
				c1.6,0,2.8,0.9,2.8,2.9v4h-1.6l0-1c-0.5,0.7-1.1,1.1-2.1,1.1c-1.3,0-2.4-0.6-2.4-2.1c0-1.4,1.1-2,2.7-2h1.8
				C85.7-359.2,85.2-359.6,84.3-359.6z M83.9-357c-0.7,0-1.2,0.3-1.2,0.9c0,0.6,0.5,0.9,1.3,0.9c0.9,0,1.6-0.5,1.6-1.2v-0.5H83.9z"
				/>
			<path id="XMLID_753_" class="st0" d="M89.7-356.4v-3.1h-1v-1.4h1v-3.5h1.6v3.5h1.8v1.4h-1.8v3.1c0,0.8,0.3,1,0.7,1
				c0.4,0,0.6-0.2,0.8-0.3l0.8,1.1c-0.3,0.3-0.9,0.6-1.7,0.6C90.6-353.9,89.7-354.6,89.7-356.4z"/>
			<path id="XMLID_750_" class="st0" d="M94.7-363.4c0-0.6,0.5-1.1,1.1-1.1c0.6,0,1.1,0.5,1.1,1.1c0,0.6-0.5,1.1-1.1,1.1
				C95.2-362.4,94.7-362.8,94.7-363.4z M94.9-360.8h1.6v6.8h-1.6V-360.8z"/>
			<path id="XMLID_747_" class="st0" d="M98.3-357.4c0-2,1.6-3.5,3.6-3.5c2.1,0,3.6,1.5,3.6,3.5c0,2-1.6,3.5-3.6,3.5
				C99.9-353.9,98.3-355.4,98.3-357.4z M103.9-357.4c0-1.2-0.8-2.1-2-2.1c-1.2,0-2,0.9-2,2.1c0,1.2,0.8,2.1,2,2.1
				C103.2-355.3,103.9-356.2,103.9-357.4z"/>
			<path id="XMLID_745_" class="st0" d="M107.3-360.8h1.6l0,1.3c0.4-0.9,1.3-1.4,2.3-1.4c1.5,0,2.5,1.1,2.5,2.9v4h-1.6v-3.9
				c0-1-0.4-1.5-1.4-1.5c-1.1,0-1.8,0.6-1.8,1.7v3.7h-1.6V-360.8z"/>
		</g>
	</g>
	<path id="XMLID_229_" class="st0" d="M109.1-401.8l-4.9-4.9l0,0l-1.7-1.7l-1.6-1.6l-1.7-1.7l-4.6-4.6l-0.3-0.3l-4.9-4.9l-4.9,4.9
		l-20.8,20.8l-4.9,4.9l4.9,4.9l14.7,14.7l4.9,4.9l4.9-4.9l20.8-20.8l4.9-4.9L109.1-401.8z M83.4-376.1l-14.7-14.7l20.8-20.8l4.8,4.8
		l0.1,0.1l4.9,4.9l0.1,0.1l4.8,4.8L83.4-376.1z"/>
	<path id="XMLID_227_" class="st2" d="M109.1-401.8l2.3-2.3l0,0c3.8-4.1,3.7-10.5-0.3-14.5c-4-4-10.4-4.1-14.5-0.3l0,0l-7.2,7.2
		l4.9,4.9l7.2-7.2c1.3-1.3,3.5-1.3,4.9,0c1.3,1.3,1.3,3.5,0,4.9l-2.3,2.3L109.1-401.8"/>
	<line id="XMLID_60_" class="st1" x1="-81.9" y1="-374.1" x2="-92" y2="-374.1"/>
	<path id="XMLID_196_" class="st0" d="M-15.8-382.3c-7.1,0-12.8-5.8-12.8-12.9c0-7.1,5.8-12.9,12.8-12.9c4.1,0,7.7,1.9,10.1,4.9
		l7.7-6.1c-4.2-5.2-10.6-8.6-17.8-8.6c-12.5,0-22.7,10.2-22.7,22.7c0,12.5,10.2,22.7,22.7,22.7c7,0,13.3-3.2,17.4-8.2l-7.6-6.3
		C-8.3-384.1-11.9-382.3-15.8-382.3z"/>
	<polygon id="XMLID_58_" class="st1" points="-133.4,-410.7 -133.4,-410.7 -133.4,-416.2 -133.4,-415.7 	"/>
	<path id="XMLID_184_" class="st0" d="M-120.6-416.7c-0.2,0-0.3,0-0.5,0c-0.1,0-0.3,0-0.4,0c-3.7,0-6.8,0.9-9.3,2.5
		c-0.9,0.5-1.7,1-2.5,1.5v-3.1l0-0.4h-10.2v61.7h10.2v-5.4v-16.5c3.6,2.6,8,4.1,12.8,4.1c12.3,0,22.2-10,22.2-22.2
		C-98.3-406.7-108.3-416.7-120.6-416.7z M-120.6-381.9c-7,0-12.6-5.6-12.6-12.6c0-7,5.6-12.6,12.6-12.6c7,0,12.6,5.6,12.6,12.6
		C-108-387.5-113.6-381.9-120.6-381.9z"/>
	<path id="XMLID_50_" class="st0" d="M-67.2-415.3c-7.7-2.1-12.4,1.1-14.8,3.8v-4.1h-10.1v12.8h0v29.2H-82v-19.6
		c0-9.4,4.1-12.9,10.1-12.9c2.3,0,3.9,0.6,5.5,1.4l3.4-9.1C-64.2-414.5-65.6-415.1-67.2-415.3z"/>
	<path id="XMLID_49_" class="st1" d="M18-389.9c0,0,0-0.1-0.1-0.1C18-390,18-390,18-389.9L18-389.9z"/>
	<path id="XMLID_48_" class="st1" d="M18-390.1C18-390.1,18-390.1,18-390.1C18-390.1,18-390.1,18-390.1L18-390.1z"/>
	<path id="XMLID_111_" class="st0" d="M51.9-390.1c0.4-1.6,0.6-3.3,0.6-5.1c0-1-0.1-1.9-0.2-2.8c-0.1-0.8-0.2-1.5-0.4-2.2
		c-2.3-10.1-11.3-17.6-22.1-17.6S10-410.4,7.7-400.3c-0.4,1.6-0.6,3.3-0.6,5.1c0,0.3,0,0.5,0,0.8l0,0c0,0.3,0,0.7,0,1
		c0.1,3,0.7,5.8,1.8,8.3c1.2,2.8,2.9,5.2,5,7.2c2.1,2,4.6,3.5,7.5,4.6c2.9,1.1,5.9,1.6,9.2,1.6c3.4,0,6.7-0.7,9.8-2
		c3.1-1.3,5.9-3.5,8.5-6.7l-7.7-5.8c-1.4,1.7-3,3.1-4.8,4.2c-1.8,1.1-4.1,1.7-6.8,1.7c-3.1,0-5.7-0.9-7.8-2.7c-2-1.7-3.2-4-3.7-6.9
		c0,0,0-0.1,0-0.1c0,0,0,0,0,0h0H51.9z M21.4-406.2c1.9-1.9,4.5-2.8,7.7-2.8c3.4,0,6.1,0.9,8,2.7c1.9,1.8,2.9,4.3,3,7.5H17.9
		C18.3-401.8,19.5-404.3,21.4-406.2z"/>
</g>
<rect id="XMLID_242_" x="-1752" y="-425" class="st0" width="1202" height="632"/>
<g id="XMLID_258_">
	<g id="XMLID_179_">
		<path id="XMLID_240_" class="st1" d="M-1423.4-295.7c-6.8,0-12.1,2.6-15.8,7.7c-3.7,5.1-5.6,12.2-5.6,21.4
			c0,19,6.5,28.5,20.7,28.5c6,0,13.1-1.5,21.1-4.5v15.2c-7,2.9-14.1,4.4-22.8,4.4c-12.4,0-21.5-3.8-28.1-11.3s-9.7-18.3-9.7-32.4
			c0-8.9,1.7-16.6,4.9-23.3c3.2-6.7,7.9-11.8,13.9-15.3c6-3.6,13.1-5.3,21.3-5.3c8.3,0,16.6,2,25,6l-5.8,14.7
			c-3.2-1.5-6.4-2.8-9.6-4C-1417.1-295.2-1420.3-295.7-1423.4-295.7z"/>
		<path id="XMLID_236_" class="st1" d="M-1325.7-257c0,10.6-2.8,18.9-8.4,24.9c-5.6,6-13.4,9-23.4,9c-6.3,0-11.8-1.4-16.6-4.1
			c-4.8-2.7-8.5-6.7-11-11.8s-3.8-11.1-3.8-18c0-10.6,2.8-18.9,8.3-24.8c5.6-5.9,13.4-8.9,23.4-8.9c6.3,0,11.8,1.4,16.6,4.1
			c4.8,2.7,8.5,6.6,11,11.7C-1327-269.8-1325.7-263.9-1325.7-257z M-1370.8-257c0,6.5,1.1,11.3,3.2,14.6c2.1,3.3,5.6,5,10.3,5
			c4.7,0,8.2-1.6,10.2-4.9c2.1-3.3,3.1-8.2,3.1-14.7c0-6.5-1-11.3-3.1-14.5c-2.1-3.2-5.5-4.8-10.3-4.8c-4.7,0-8.2,1.6-10.3,4.8
			C-1369.7-268.4-1370.8-263.5-1370.8-257z"/>
		<path id="XMLID_234_" class="st1" d="M-1264.9-223l-2.4-9h-0.9c-1.9,2-4.6,5-8.1,6.7c-3.5,1.7-7.5,2.3-11.9,2.3
			c-7.7,0-14.7-2.1-18.6-6.2c-3.9-4.1-7.1-10.1-7.1-17.8v-43h18v38.6c0,4.7,2,8.2,3.7,10.6c1.7,2.4,4.9,3.5,8.6,3.5
			c5,0,8.4-1.7,10.6-5s3.1-8.8,3.1-16.5V-290h18v67H-1264.9z"/>
		<path id="XMLID_231_" class="st1" d="M-1196.8-223.4c-7.7,0-13.7-1.6-18-8.6h-0.9c0.6,7,0.7,9.1,0.7,10v27h-19v-95h15.9l2.5,8h0.8
			c4.2-6,10.3-9.2,18.5-9.2c7.7,0,13.7,3.2,18.1,9.2s6.5,14.3,6.5,24.9c0,7-1,13.1-3.1,18.2c-2,5.1-4.9,8.9-8.7,11.6
			S-1191.7-223.4-1196.8-223.4z M-1202-276.5c-4.4,0-7.7,1.4-9.7,4.1c-2,2.7-3.3,7.2-3.3,13.4v1.9c0,7,1.2,12,3.2,15
			s5.4,4.5,9.9,4.5c8,0,12-6.6,12-19.7c0-6.4-1-11.2-2.9-14.4S-1197.8-276.5-1202-276.5z"/>
		<path id="XMLID_226_" class="st1" d="M-1097.8-257c0,10.6-2.8,18.9-8.4,24.9c-5.6,6-13.4,9-23.4,9c-6.3,0-11.8-1.4-16.6-4.1
			s-8.5-6.7-11-11.8c-2.6-5.1-3.8-11.1-3.8-18c0-10.6,2.8-18.9,8.3-24.8c5.6-5.9,13.4-8.9,23.4-8.9c6.3,0,11.8,1.4,16.6,4.1
			c4.8,2.7,8.5,6.6,11,11.7C-1099.1-269.8-1097.8-263.9-1097.8-257z M-1142.8-257c0,6.5,1.1,11.3,3.2,14.6c2.1,3.3,5.6,5,10.3,5
			c4.7,0,8.2-1.6,10.2-4.9c2.1-3.3,3.1-8.2,3.1-14.7c0-6.5-1-11.3-3.1-14.5c-2.1-3.2-5.5-4.8-10.3-4.8c-4.7,0-8.2,1.6-10.3,4.8
			C-1141.8-268.4-1142.8-263.5-1142.8-257z"/>
		<path id="XMLID_224_" class="st1" d="M-1025-223h-17v-39.4c0-4.7-0.2-8.2-1.9-10.6c-1.7-2.4-4-3.5-7.7-3.5c-5,0-8.7,1.7-11,5
			c-2.2,3.3-3.5,8.8-3.5,16.5v32h-18v-67h14.5l2.4,8h1c2-2,4.7-5.1,8.2-6.7c3.5-1.6,7.4-2.2,11.9-2.2c7.6,0,12.3,2.2,16.2,6.3
			c3.9,4.1,4.9,10.1,4.9,17.9V-223z"/>
		<path id="XMLID_221_" class="st1" d="M-1005.4-306.3c0-5.8,3.2-8.7,9.7-8.7c6.5,0,9.7,2.9,9.7,8.7c0,2.8-0.8,4.9-2.4,6.4
			c-1.6,1.5-4,2.3-7.3,2.3C-1002.2-297.6-1005.4-300.5-1005.4-306.3z M-988-223h-18v-67h18V-223z"/>
		<path id="XMLID_192_" class="st1" d="M-909-223h-18v-39.4c0-4.7-0.2-8.2-1.9-10.6c-1.7-2.4-4-3.5-7.7-3.5c-5,0-9.2,1.7-11.4,5
			c-2.2,3.3-4,8.8-4,16.5v32h-18v-67h15.4l2.4,8h1c2-2,4.7-5.1,8.2-6.7c3.5-1.6,7.4-2.2,11.9-2.2c7.6,0,12.9,2.2,16.8,6.3
			c3.9,4.1,5.4,10.1,5.4,17.9V-223z"/>
		<path id="XMLID_188_" class="st1" d="M-834-224.2c0,9.4-2.1,16.5-7.6,21.3c-5.5,4.8-13.9,7.3-24.7,7.3c-9.5,0-16.7-1.3-24.7-3.8
			v-14.2c9,3.3,16.3,5,25.4,5c9.1,0,13.6-4.9,13.6-14.8v-1.3l1.9-8.2h-0.5c-4.2,6-10.3,9.7-18.5,9.7c-7.8,0-13.9-3-18.2-9
			c-4.3-6-6.4-14.2-6.4-24.6c0-10.7,2.2-19,6.7-25c4.4-6,10.6-9.4,18.4-9.4c8,0,14.3,3.1,18.9,9.1h0.5l1.5-8h13.8V-224.2z
			 M-862.8-237.1c4.8,0,7.4-1.4,9.5-4.1c2.1-2.7,2.3-7.2,2.3-13.3v-2.2c0-7-0.3-12-2.4-15c-2.2-3.1-5.2-4.6-10-4.6
			c-8.4,0-12.3,6.6-12.3,19.7c0,6.5,1.1,11.4,3.2,14.6C-870.5-238.7-867.1-237.1-862.8-237.1z"/>
		<path id="XMLID_186_" class="st4" d="M-1319,81h-56V-72.6l1.4-25.1l1.3-27.4c-9.3,9.3-15.5,15.3-19.1,18.2l-30.2,24.4l-26.8-33.2
			l85.1-67.3h44.4V81z"/>
		<path id="XMLID_182_" class="st4" d="M-1061-51.9c0,46.1-7.6,80.2-22.7,102.4c-15.1,22.1-38.4,33.2-69.8,33.2
			c-30.5,0-53.4-11.4-68.9-34.3c-15.5-22.9-23.2-56.6-23.2-101.3c0-46.6,7.5-80.9,22.6-103c15-22.1,38.2-33.1,69.5-33.1
			c30.4,0,53.5,11.6,69.1,34.7C-1068.8-130.2-1061-96.4-1061-51.9z M-1190.1-51.9c0,32.4,2.8,55.6,8.4,69.6c5.6,14,15,21,28.3,21
			c13,0,22.4-7.1,28.2-21.3s8.7-37.3,8.7-69.3c0-32.4-2.9-55.6-8.8-69.8c-5.8-14.1-15.2-21.2-28.1-21.2c-13.1,0-22.5,7.1-28.2,21.2
			C-1187.3-107.5-1190.1-84.3-1190.1-51.9z"/>
		<path id="XMLID_180_" class="st4" d="M-896,81h-56V-72.6l1.3-25.1l1.3-27.4c-9.3,9.3-15.5,15.3-19.1,18.2l-30.2,24.4l-26.9-33.2
			l85.1-67.3h44.6V81z"/>
	</g>
	<circle id="XMLID_178_" class="st2" cx="-1495" cy="-108.7" r="10.8"/>
	<circle id="XMLID_176_" class="st2" cx="-1492.4" cy="-135.8" r="10.8"/>
	<circle id="XMLID_174_" class="st0" cx="-1492.4" cy="-135.8" r="7.1"/>
	<circle id="XMLID_173_" class="st0" cx="-1495" cy="-108.7" r="7.1"/>
	<path id="XMLID_172_" class="st2" d="M-1450.4-102.3l-39.3-26l-7.8,2l38.4,25.4c0.6,0.4,1.2,0.7,1.9,1
		C-1455-99.1-1452.3-99.4-1450.4-102.3z"/>
	<path id="XMLID_171_" class="st2" d="M-1451.9-128.5l-44.5,9l6.8,4.8l46.3-9.4c-0.7-3.5-3.6-4.5-6.2-4.6
		C-1450.3-128.7-1451.1-128.6-1451.9-128.5z"/>
	<polygon id="XMLID_122_" class="st1" points="-1448,-115.8 -1421.2,-82.5 -1393.4,-104.6 	"/>
	<polygon id="XMLID_103_" class="st5" points="-1448.1,-116.4 -1410.8,-128.7 -1393.4,-104.6 	"/>
	<rect id="XMLID_72_" x="-1556.5" y="-350.5" class="st3" width="811" height="483"/>
</g>
<g id="XMLID_2261_">
	<polygon id="XMLID_2348_" class="st6" points="338,-149.2 338,-160 349.9,-160 	"/>
	<rect id="XMLID_2347_" x="302" y="-207" class="st7" width="49" height="14"/>
	<path id="XMLID_2346_" class="st7" d="M317-205.9c0,1.1-0.9,1.9-1.9,1.9h-0.2c-1.1,0-1.9-0.9-1.9-1.9v-5.2c0-1.1,0.9-1.9,1.9-1.9
		h0.2c1.1,0,1.9,0.9,1.9,1.9V-205.9z"/>
	<path id="XMLID_2345_" class="st7" d="M340-205.9c0,1.1-0.9,1.9-1.9,1.9h-0.2c-1.1,0-1.9-0.9-1.9-1.9v-5.2c0-1.1,0.9-1.9,1.9-1.9
		h0.2c1.1,0,1.9,0.9,1.9,1.9V-205.9z"/>
	<rect id="XMLID_2344_" x="302" y="-193" class="st8" width="49" height="44"/>
</g>
<circle id="XMLID_3342_" class="st2" cx="79.4" cy="-193.3" r="8.4"/>
<g id="XMLID_3339_">
	<path id="XMLID_3340_" class="st1" d="M80-189h-2v-5.1l0.2-0.8l0.1-0.9c-0.3,0.3-0.5,0.5-0.6,0.6l-1,0.8l-0.9-1.2l2.8-2.3H80V-189z
		"/>
</g>
<g id="XMLID_3190_">
	<path id="XMLID_3191_" class="st9" d="M104.7-187.7h-1.4v-10.2h-3.6v-1.3h8.6v1.3h-3.5V-187.7z"/>
	<path id="XMLID_3193_" class="st9" d="M115.7-187.7v-5.5c0-0.7-0.2-1.2-0.5-1.6c-0.3-0.3-0.8-0.5-1.5-0.5c-0.9,0-1.5,0.2-1.9,0.7
		c-0.4,0.5-0.6,1.3-0.6,2.4v4.4h-1.4v-12.2h1.4v3.6c0,0.5,0,0.9-0.1,1.2h0.1c0.3-0.4,0.6-0.7,1.1-1s1-0.4,1.6-0.4
		c1,0,1.8,0.2,2.4,0.7c0.5,0.5,0.8,1.3,0.8,2.4v5.6H115.7z"/>
	<path id="XMLID_3195_" class="st9" d="M123.4-187.6c-1.3,0-2.3-0.4-3-1.2c-0.7-0.8-1.1-1.9-1.1-3.2c0-1.4,0.3-2.5,1-3.3
		c0.7-0.8,1.6-1.2,2.8-1.2c1.1,0,1.9,0.3,2.6,1s1,1.6,1,2.8v0.9h-5.9c0,1,0.3,1.7,0.7,2.2c0.5,0.5,1.1,0.8,2,0.8
		c0.5,0,0.9,0,1.3-0.1c0.4-0.1,0.9-0.2,1.4-0.5v1.2c-0.5,0.2-0.9,0.3-1.3,0.4C124.4-187.6,123.9-187.6,123.4-187.6z M123-195.3
		c-0.7,0-1.2,0.2-1.6,0.6c-0.4,0.4-0.6,1-0.7,1.8h4.4c0-0.8-0.2-1.4-0.6-1.8C124.2-195.1,123.7-195.3,123-195.3z"/>
	<path id="XMLID_3198_" class="st9" d="M138.5-190.1c0,0.8-0.3,1.4-0.9,1.9c-0.6,0.4-1.4,0.7-2.5,0.7c-1.1,0-2-0.2-2.7-0.5v-1.3
		c0.9,0.5,1.9,0.7,2.7,0.7c0.7,0,1.2-0.1,1.5-0.3c0.3-0.2,0.5-0.5,0.5-0.9c0-0.3-0.2-0.6-0.5-0.9c-0.3-0.2-0.9-0.5-1.7-0.8
		c-0.8-0.3-1.4-0.6-1.7-0.8c-0.3-0.2-0.6-0.5-0.7-0.7c-0.2-0.3-0.2-0.6-0.2-1c0-0.7,0.3-1.3,0.9-1.7c0.6-0.4,1.4-0.6,2.4-0.6
		c1,0,1.9,0.2,2.7,0.6l-0.5,1.1c-0.9-0.4-1.7-0.5-2.4-0.5c-0.6,0-1,0.1-1.3,0.3c-0.3,0.2-0.5,0.4-0.5,0.8c0,0.3,0.1,0.6,0.4,0.8
		c0.3,0.2,0.9,0.5,1.8,0.9c0.7,0.3,1.2,0.5,1.6,0.7c0.3,0.2,0.6,0.5,0.8,0.8C138.4-190.8,138.5-190.5,138.5-190.1z"/>
	<path id="XMLID_3200_" class="st9" d="M143.4-188.7c0.2,0,0.4,0,0.6-0.1c0.2,0,0.4-0.1,0.6-0.1v1.1c-0.1,0.1-0.3,0.1-0.6,0.2
		s-0.6,0.1-0.8,0.1c-1.7,0-2.5-0.9-2.5-2.6v-5h-1.2v-0.7l1.2-0.6l0.6-1.8h0.8v2h2.5v1.1h-2.5v5c0,0.5,0.1,0.9,0.4,1.1
		C142.7-188.8,143-188.7,143.4-188.7z"/>
	<path id="XMLID_3202_" class="st9" d="M151.6-187.7l-0.3-1.2h-0.1c-0.4,0.5-0.9,0.9-1.3,1.1c-0.4,0.2-1,0.3-1.6,0.3
		c-0.8,0-1.5-0.2-2-0.7c-0.5-0.4-0.7-1.1-0.7-1.9c0-1.7,1.4-2.7,4.1-2.7l1.5-0.1v-0.5c0-0.7-0.1-1.1-0.4-1.4
		c-0.3-0.3-0.7-0.5-1.4-0.5c-0.5,0-0.9,0.1-1.3,0.2c-0.4,0.1-0.8,0.3-1.1,0.5l-0.4-1.1c0.4-0.2,0.9-0.4,1.4-0.5
		c0.5-0.1,1-0.2,1.5-0.2c1,0,1.8,0.2,2.3,0.7c0.5,0.5,0.8,1.2,0.8,2.2v5.8H151.6z M148.7-188.7c0.8,0,1.4-0.2,1.9-0.6
		c0.5-0.4,0.7-1,0.7-1.8v-0.8l-1.3,0.1c-1,0-1.7,0.2-2.2,0.5c-0.5,0.3-0.7,0.7-0.7,1.3c0,0.4,0.1,0.8,0.4,1
		C147.9-188.8,148.2-188.7,148.7-188.7z"/>
	<path id="XMLID_3205_" class="st9" d="M159.3-196.5c0.4,0,0.7,0,1,0.1l-0.2,1.3c-0.3-0.1-0.6-0.1-0.9-0.1c-0.5,0-0.9,0.1-1.3,0.4
		c-0.4,0.3-0.7,0.6-0.9,1c-0.2,0.4-0.3,0.9-0.3,1.5v4.6h-1.4v-8.6h1.2l0.2,1.6h0.1c0.3-0.6,0.7-1,1.2-1.3
		C158.3-196.3,158.8-196.5,159.3-196.5z"/>
	<path id="XMLID_3207_" class="st9" d="M164.8-188.7c0.2,0,0.4,0,0.6-0.1c0.2,0,0.4-0.1,0.6-0.1v1.1c-0.1,0.1-0.3,0.1-0.6,0.2
		s-0.6,0.1-0.8,0.1c-1.7,0-2.5-0.9-2.5-2.6v-5h-1.2v-0.7l1.2-0.6l0.6-1.8h0.8v2h2.5v1.1h-2.5v5c0,0.5,0.1,0.9,0.4,1.1
		C164-188.8,164.4-188.7,164.8-188.7z"/>
	<path id="XMLID_3209_" class="st9" d="M169.3-189.6l0.1,0.2c-0.3,1.1-0.7,2.4-1.4,3.7h-1c0.3-1.3,0.6-2.6,0.8-3.9H169.3z"/>
	<path id="XMLID_3211_" class="st9" d="M187.1-187.7v-5.5c0-1.4-0.6-2-1.7-2c-0.8,0-1.4,0.2-1.8,0.7c-0.4,0.5-0.6,1.2-0.6,2.1v4.7
		h-1.4v-5.5c0-0.7-0.1-1.2-0.4-1.5c-0.3-0.3-0.7-0.5-1.3-0.5c-0.8,0-1.4,0.2-1.7,0.7s-0.6,1.3-0.6,2.4v4.4h-1.4v-8.6h1.1l0.2,1.2
		h0.1c0.2-0.4,0.6-0.7,1-1s0.9-0.4,1.5-0.4c1.3,0,2.2,0.5,2.6,1.4h0.1c0.3-0.5,0.7-0.8,1.1-1.1s1-0.4,1.6-0.4c1,0,1.7,0.3,2.2,0.8
		c0.5,0.5,0.7,1.3,0.7,2.4v5.6H187.1z"/>
	<path id="XMLID_3213_" class="st9" d="M191-198.6c0-0.3,0.1-0.5,0.2-0.7c0.2-0.1,0.4-0.2,0.6-0.2c0.2,0,0.4,0.1,0.6,0.2
		s0.2,0.4,0.2,0.7c0,0.3-0.1,0.5-0.2,0.7c-0.2,0.1-0.4,0.2-0.6,0.2c-0.2,0-0.4-0.1-0.6-0.2C191.1-198.1,191-198.3,191-198.6z
		 M192.5-187.7h-1.4v-8.6h1.4V-187.7z"/>
	<path id="XMLID_3216_" class="st9" d="M198.3-187.6c-1.1,0-2-0.4-2.6-1.2c-0.6-0.8-0.9-1.9-0.9-3.3c0-1.4,0.3-2.5,0.9-3.3
		c0.6-0.8,1.5-1.2,2.6-1.2c1.2,0,2,0.4,2.7,1.3h0.1c0-0.1,0-0.3-0.1-0.6c0-0.3,0-0.5,0-0.6v-3.4h1.4v12.2h-1.1l-0.2-1.1h-0.1
		C200.3-188,199.4-187.6,198.3-187.6z M198.5-188.7c0.9,0,1.5-0.2,1.9-0.7c0.4-0.5,0.6-1.2,0.6-2.3v-0.3c0-1.2-0.2-2-0.6-2.6
		s-1-0.8-1.9-0.8c-0.7,0-1.3,0.3-1.7,0.9c-0.4,0.6-0.6,1.4-0.6,2.5c0,1.1,0.2,1.9,0.6,2.4C197.2-189,197.7-188.7,198.5-188.7z"/>
	<path id="XMLID_3219_" class="st9" d="M208.1-187.6c-1.1,0-2-0.4-2.6-1.2c-0.6-0.8-0.9-1.9-0.9-3.3c0-1.4,0.3-2.5,0.9-3.3
		c0.6-0.8,1.5-1.2,2.6-1.2c1.2,0,2,0.4,2.7,1.3h0.1c0-0.1,0-0.3-0.1-0.6c0-0.3,0-0.5,0-0.6v-3.4h1.4v12.2h-1.1l-0.2-1.1h-0.1
		C210.2-188,209.3-187.6,208.1-187.6z M208.3-188.7c0.9,0,1.5-0.2,1.9-0.7c0.4-0.5,0.6-1.2,0.6-2.3v-0.3c0-1.2-0.2-2-0.6-2.6
		s-1-0.8-1.9-0.8c-0.7,0-1.3,0.3-1.7,0.9c-0.4,0.6-0.6,1.4-0.6,2.5c0,1.1,0.2,1.9,0.6,2.4C207-189,207.6-188.7,208.3-188.7z"/>
	<path id="XMLID_3222_" class="st9" d="M216.3-187.7h-1.4v-12.2h1.4V-187.7z"/>
	<path id="XMLID_3224_" class="st9" d="M222.7-187.6c-1.3,0-2.3-0.4-3-1.2c-0.7-0.8-1.1-1.9-1.1-3.2c0-1.4,0.3-2.5,1-3.3
		c0.7-0.8,1.6-1.2,2.8-1.2c1.1,0,1.9,0.3,2.6,1s1,1.6,1,2.8v0.9H220c0,1,0.3,1.7,0.7,2.2c0.5,0.5,1.1,0.8,2,0.8c0.5,0,0.9,0,1.3-0.1
		c0.4-0.1,0.9-0.2,1.4-0.5v1.2c-0.5,0.2-0.9,0.3-1.3,0.4C223.7-187.6,223.3-187.6,222.7-187.6z M222.3-195.3c-0.7,0-1.2,0.2-1.6,0.6
		c-0.4,0.4-0.6,1-0.7,1.8h4.4c0-0.8-0.2-1.4-0.6-1.8C223.5-195.1,223-195.3,222.3-195.3z"/>
	<path id="XMLID_3227_" class="st9" d="M237.5-187.7l-0.3-1.2h-0.1c-0.4,0.5-0.9,0.9-1.3,1.1c-0.4,0.2-1,0.3-1.6,0.3
		c-0.8,0-1.5-0.2-2-0.7c-0.5-0.4-0.7-1.1-0.7-1.9c0-1.7,1.4-2.7,4.1-2.7l1.5-0.1v-0.5c0-0.7-0.1-1.1-0.4-1.4
		c-0.3-0.3-0.7-0.5-1.4-0.5c-0.5,0-0.9,0.1-1.3,0.2c-0.4,0.1-0.8,0.3-1.1,0.5l-0.4-1.1c0.4-0.2,0.9-0.4,1.4-0.5
		c0.5-0.1,1-0.2,1.5-0.2c1,0,1.8,0.2,2.3,0.7c0.5,0.5,0.8,1.2,0.8,2.2v5.8H237.5z M234.6-188.7c0.8,0,1.4-0.2,1.9-0.6
		c0.5-0.4,0.7-1,0.7-1.8v-0.8l-1.3,0.1c-1,0-1.7,0.2-2.2,0.5c-0.5,0.3-0.7,0.7-0.7,1.3c0,0.4,0.1,0.8,0.4,1
		C233.7-188.8,234.1-188.7,234.6-188.7z"/>
	<path id="XMLID_3230_" class="st9" d="M247-187.7v-5.5c0-0.7-0.2-1.2-0.5-1.6c-0.3-0.3-0.8-0.5-1.5-0.5c-0.9,0-1.5,0.2-1.9,0.7
		c-0.4,0.5-0.6,1.3-0.6,2.4v4.4h-1.4v-8.6h1.1l0.2,1.2h0.1c0.3-0.4,0.6-0.7,1.1-1c0.5-0.2,1-0.3,1.6-0.3c1.1,0,1.8,0.3,2.3,0.8
		c0.5,0.5,0.8,1.3,0.8,2.4v5.6H247z"/>
	<path id="XMLID_3232_" class="st9" d="M254.1-187.6c-1.1,0-2-0.4-2.6-1.2c-0.6-0.8-0.9-1.9-0.9-3.3c0-1.4,0.3-2.5,0.9-3.3
		c0.6-0.8,1.5-1.2,2.6-1.2c1.2,0,2,0.4,2.7,1.3h0.1c0-0.1,0-0.3-0.1-0.6c0-0.3,0-0.5,0-0.6v-3.4h1.4v12.2h-1.1l-0.2-1.1h-0.1
		C256.2-188,255.3-187.6,254.1-187.6z M254.3-188.7c0.9,0,1.5-0.2,1.9-0.7c0.4-0.5,0.6-1.2,0.6-2.3v-0.3c0-1.2-0.2-2-0.6-2.6
		s-1-0.8-1.9-0.8c-0.7,0-1.3,0.3-1.7,0.9c-0.4,0.6-0.6,1.4-0.6,2.5c0,1.1,0.2,1.9,0.6,2.4C253-189,253.6-188.7,254.3-188.7z"/>
	<path id="XMLID_3235_" class="st9" d="M104.6-170.7c-1.3,0-2.3-0.4-3-1.2c-0.7-0.8-1.1-1.9-1.1-3.2c0-1.4,0.3-2.5,1-3.3
		c0.7-0.8,1.6-1.2,2.8-1.2c1.1,0,1.9,0.3,2.6,1s1,1.6,1,2.8v0.9h-5.9c0,1,0.3,1.7,0.7,2.2c0.5,0.5,1.1,0.8,2,0.8
		c0.5,0,0.9,0,1.3-0.1c0.4-0.1,0.9-0.2,1.4-0.5v1.2c-0.5,0.2-0.9,0.3-1.3,0.4C105.6-170.7,105.1-170.7,104.6-170.7z M104.2-178.4
		c-0.7,0-1.2,0.2-1.6,0.6c-0.4,0.4-0.6,1-0.7,1.8h4.4c0-0.8-0.2-1.4-0.6-1.8C105.4-178.2,104.9-178.4,104.2-178.4z"/>
	<path id="XMLID_3238_" class="st9" d="M115.8-170.8v-5.5c0-0.7-0.2-1.2-0.5-1.6c-0.3-0.3-0.8-0.5-1.5-0.5c-0.9,0-1.5,0.2-1.9,0.7
		c-0.4,0.5-0.6,1.3-0.6,2.4v4.4h-1.4v-8.6h1.1l0.2,1.2h0.1c0.3-0.4,0.6-0.7,1.1-1c0.5-0.2,1-0.3,1.6-0.3c1.1,0,1.8,0.3,2.3,0.8
		c0.5,0.5,0.8,1.3,0.8,2.4v5.6H115.8z"/>
	<path id="XMLID_3240_" class="st9" d="M122.9-170.7c-1.1,0-2-0.4-2.6-1.2c-0.6-0.8-0.9-1.9-0.9-3.3c0-1.4,0.3-2.5,0.9-3.3
		c0.6-0.8,1.5-1.2,2.6-1.2c1.2,0,2,0.4,2.7,1.3h0.1c0-0.1,0-0.3-0.1-0.6c0-0.3,0-0.5,0-0.6v-3.4h1.4v12.2h-1.1l-0.2-1.1h-0.1
		C125-171.1,124.1-170.7,122.9-170.7z M123.1-171.8c0.9,0,1.5-0.2,1.9-0.7c0.4-0.5,0.6-1.2,0.6-2.3v-0.3c0-1.2-0.2-2-0.6-2.6
		s-1-0.8-1.9-0.8c-0.7,0-1.3,0.3-1.7,0.9c-0.4,0.6-0.6,1.4-0.6,2.5c0,1.1,0.2,1.9,0.6,2.4C121.8-172.1,122.4-171.8,123.1-171.8z"/>
	<path id="XMLID_3243_" class="st9" d="M141.3-175.1c0,1.4-0.4,2.5-1.1,3.3c-0.7,0.8-1.7,1.2-2.9,1.2c-0.8,0-1.5-0.2-2.1-0.5
		c-0.6-0.4-1.1-0.9-1.4-1.6c-0.3-0.7-0.5-1.5-0.5-2.4c0-1.4,0.3-2.5,1-3.3c0.7-0.8,1.7-1.2,2.9-1.2c1.2,0,2.2,0.4,2.9,1.2
		C140.9-177.6,141.3-176.5,141.3-175.1z M134.8-175.1c0,1.1,0.2,1.9,0.6,2.5c0.4,0.6,1.1,0.8,1.9,0.8c0.8,0,1.4-0.3,1.9-0.8
		c0.4-0.6,0.6-1.4,0.6-2.5s-0.2-1.9-0.6-2.4c-0.4-0.5-1.1-0.8-1.9-0.8C135.6-178.4,134.8-177.3,134.8-175.1z"/>
	<path id="XMLID_3246_" class="st9" d="M147.5-178.3h-2.2v7.5h-1.4v-7.5h-1.5v-0.7l1.5-0.5v-0.5c0-1,0.2-1.8,0.7-2.3
		c0.5-0.5,1.2-0.8,2.1-0.8c0.5,0,1.1,0.1,1.7,0.3l-0.4,1.1c-0.5-0.2-0.9-0.2-1.3-0.2c-0.5,0-0.8,0.2-1.1,0.5
		c-0.2,0.3-0.3,0.8-0.3,1.5v0.6h2.2V-178.3z"/>
	<path id="XMLID_3248_" class="st9" d="M156.1-171.8c0.2,0,0.4,0,0.6-0.1c0.2,0,0.4-0.1,0.6-0.1v1.1c-0.1,0.1-0.3,0.1-0.6,0.2
		s-0.6,0.1-0.8,0.1c-1.7,0-2.5-0.9-2.5-2.6v-5h-1.2v-0.7l1.2-0.6l0.6-1.8h0.8v2h2.5v1.1h-2.5v5c0,0.5,0.1,0.9,0.4,1.1
		C155.3-172,155.6-171.8,156.1-171.8z"/>
	<path id="XMLID_3250_" class="st9" d="M164.8-170.8v-5.5c0-0.7-0.2-1.2-0.5-1.6c-0.3-0.3-0.8-0.5-1.5-0.5c-0.9,0-1.5,0.2-1.9,0.7
		c-0.4,0.5-0.6,1.3-0.6,2.4v4.4H159V-183h1.4v3.6c0,0.5,0,0.9-0.1,1.2h0.1c0.3-0.4,0.6-0.7,1.1-1s1-0.4,1.6-0.4c1,0,1.8,0.2,2.4,0.7
		c0.5,0.5,0.8,1.3,0.8,2.4v5.6H164.8z"/>
	<path id="XMLID_3252_" class="st9" d="M172.5-170.7c-1.3,0-2.3-0.4-3-1.2c-0.7-0.8-1.1-1.9-1.1-3.2c0-1.4,0.3-2.5,1-3.3
		c0.7-0.8,1.6-1.2,2.8-1.2c1.1,0,1.9,0.3,2.6,1s1,1.6,1,2.8v0.9h-5.9c0,1,0.3,1.7,0.7,2.2c0.5,0.5,1.1,0.8,2,0.8
		c0.5,0,0.9,0,1.3-0.1c0.4-0.1,0.9-0.2,1.4-0.5v1.2c-0.5,0.2-0.9,0.3-1.3,0.4C173.6-170.7,173.1-170.7,172.5-170.7z M172.1-178.4
		c-0.7,0-1.2,0.2-1.6,0.6c-0.4,0.4-0.6,1-0.7,1.8h4.4c0-0.8-0.2-1.4-0.6-1.8C173.3-178.2,172.8-178.4,172.1-178.4z"/>
	<path id="XMLID_3255_" class="st9" d="M192.9-170.8v-5.5c0-1.4-0.6-2-1.7-2c-0.8,0-1.4,0.2-1.8,0.7c-0.4,0.5-0.6,1.2-0.6,2.1v4.7
		h-1.4v-5.5c0-0.7-0.1-1.2-0.4-1.5c-0.3-0.3-0.7-0.5-1.3-0.5c-0.8,0-1.4,0.2-1.7,0.7s-0.6,1.3-0.6,2.4v4.4H182v-8.6h1.1l0.2,1.2h0.1
		c0.2-0.4,0.6-0.7,1-1s0.9-0.4,1.5-0.4c1.3,0,2.2,0.5,2.6,1.4h0.1c0.3-0.5,0.7-0.8,1.1-1.1s1-0.4,1.6-0.4c1,0,1.7,0.3,2.2,0.8
		c0.5,0.5,0.7,1.3,0.7,2.4v5.6H192.9z"/>
	<path id="XMLID_3257_" class="st9" d="M204.4-175.1c0,1.4-0.4,2.5-1.1,3.3c-0.7,0.8-1.7,1.2-2.9,1.2c-0.8,0-1.5-0.2-2.1-0.5
		c-0.6-0.4-1.1-0.9-1.4-1.6c-0.3-0.7-0.5-1.5-0.5-2.4c0-1.4,0.3-2.5,1-3.3c0.7-0.8,1.7-1.2,2.9-1.2c1.2,0,2.2,0.4,2.9,1.2
		C204.1-177.6,204.4-176.5,204.4-175.1z M198-175.1c0,1.1,0.2,1.9,0.6,2.5c0.4,0.6,1.1,0.8,1.9,0.8c0.8,0,1.4-0.3,1.9-0.8
		c0.4-0.6,0.6-1.4,0.6-2.5s-0.2-1.9-0.6-2.4c-0.4-0.5-1.1-0.8-1.9-0.8C198.8-178.4,198-177.3,198-175.1z"/>
	<path id="XMLID_3260_" class="st9" d="M212.5-170.8v-5.5c0-0.7-0.2-1.2-0.5-1.6c-0.3-0.3-0.8-0.5-1.5-0.5c-0.9,0-1.5,0.2-1.9,0.7
		c-0.4,0.5-0.6,1.3-0.6,2.4v4.4h-1.4v-8.6h1.1l0.2,1.2h0.1c0.3-0.4,0.6-0.7,1.1-1c0.5-0.2,1-0.3,1.6-0.3c1.1,0,1.8,0.3,2.3,0.8
		c0.5,0.5,0.8,1.3,0.8,2.4v5.6H212.5z"/>
	<path id="XMLID_3262_" class="st9" d="M219.4-171.8c0.2,0,0.4,0,0.6-0.1c0.2,0,0.4-0.1,0.6-0.1v1.1c-0.1,0.1-0.3,0.1-0.6,0.2
		s-0.6,0.1-0.8,0.1c-1.7,0-2.5-0.9-2.5-2.6v-5h-1.2v-0.7l1.2-0.6l0.6-1.8h0.8v2h2.5v1.1h-2.5v5c0,0.5,0.1,0.9,0.4,1.1
		C218.7-172,219-171.8,219.4-171.8z"/>
	<path id="XMLID_3264_" class="st9" d="M228.2-170.8v-5.5c0-0.7-0.2-1.2-0.5-1.6c-0.3-0.3-0.8-0.5-1.5-0.5c-0.9,0-1.5,0.2-1.9,0.7
		c-0.4,0.5-0.6,1.3-0.6,2.4v4.4h-1.4V-183h1.4v3.6c0,0.5,0,0.9-0.1,1.2h0.1c0.3-0.4,0.6-0.7,1.1-1s1-0.4,1.6-0.4
		c1,0,1.8,0.2,2.4,0.7c0.5,0.5,0.8,1.3,0.8,2.4v5.6H228.2z"/>
	<path id="XMLID_3266_" class="st9" d="M232-171.7c0-0.3,0.1-0.6,0.3-0.8c0.2-0.2,0.4-0.3,0.7-0.3c0.3,0,0.6,0.1,0.7,0.3
		c0.2,0.2,0.3,0.4,0.3,0.8c0,0.3-0.1,0.6-0.3,0.8c-0.2,0.2-0.4,0.3-0.7,0.3c-0.3,0-0.5-0.1-0.7-0.3S232-171.4,232-171.7z"/>
</g>
<g id="XMLID_2336_">
	<rect id="XMLID_2341_" x="308" y="-59" class="st7" width="39" height="39"/>
	<rect id="XMLID_2340_" x="303" y="-67" class="st7" width="47" height="8"/>
	<rect id="XMLID_2339_" x="323" y="-67" class="st8" width="8" height="47"/>
	<path id="XMLID_2338_" class="st10" d="M325.7-70c0,0-12.9,0.5-16.4-1.9c-3.5-2.4-4.4-7.2-2-10.7c2.4-3.5,7.2-4.4,10.7-2
		C321.5-82.1,325.7-70,325.7-70z"/>
	<path id="XMLID_2337_" class="st10" d="M326.6-70c0,0,12.9,0.5,16.4-1.9c3.5-2.4,4.4-7.2,2-10.7c-2.4-3.5-7.2-4.4-10.7-2
		C330.8-82.1,326.6-70,326.6-70z"/>
</g>
<circle id="XMLID_3338_" class="st2" cx="78.4" cy="-70.5" r="8.4"/>
<g id="XMLID_3322_">
	<path id="XMLID_3323_" class="st1" d="M81-67h-6v-1l2-2.2c0.6-0.7,1-1.1,1.2-1.4s0.3-0.5,0.4-0.7s0.1-0.4,0.1-0.7
		c0-0.3-0.1-0.6-0.3-0.8S77.9-74,77.6-74c-0.3,0-0.7,0.1-1,0.2s-0.6,0.4-1,0.7l-1-1.2c0.4-0.4,0.8-0.6,1-0.8s0.6-0.3,0.9-0.3
		s0.7-0.1,1.1-0.1c0.5,0,1,0.1,1.4,0.3s0.7,0.5,1,0.8s0.3,0.8,0.3,1.2c0,0.4-0.1,0.8-0.2,1.1s-0.4,0.7-0.6,1.1s-0.8,0.9-1.5,1.6
		l-1.1,1v0.4h4V-67z"/>
</g>
<g id="XMLID_2222_">
	<g id="XMLID_1064_">
		<path id="XMLID_1145_" class="st9" d="M109.3-71.8c0,1.9-0.5,3.3-1.5,4.3c-1,1-2.5,1.5-4.4,1.5h-3.2v-11.4h3.5
			c1.8,0,3.2,0.5,4.1,1.5C108.8-75,109.3-73.6,109.3-71.8z M107.8-71.8c0-1.5-0.4-2.6-1.1-3.3c-0.7-0.7-1.8-1.1-3.2-1.1h-1.9v9h1.6
			C106.2-67.2,107.8-68.7,107.8-71.8z"/>
		<path id="XMLID_1143_" class="st9" d="M112.9-74.6v5.5c0,0.7,0.2,1.2,0.5,1.5c0.3,0.3,0.8,0.5,1.4,0.5c0.9,0,1.5-0.2,1.9-0.7
			c0.4-0.5,0.6-1.3,0.6-2.4v-4.5h1.4v8.6h-1.2l-0.2-1.1h-0.1c-0.3,0.4-0.6,0.7-1.1,1s-1,0.3-1.6,0.3c-1,0-1.8-0.2-2.3-0.7
			c-0.5-0.5-0.8-1.3-0.8-2.4v-5.6H112.9z"/>
		<path id="XMLID_1141_" class="st9" d="M125.5-74.7c0.4,0,0.7,0,1,0.1l-0.2,1.3c-0.3-0.1-0.6-0.1-0.9-0.1c-0.5,0-0.9,0.1-1.3,0.4
			c-0.4,0.3-0.7,0.6-0.9,1c-0.2,0.4-0.3,0.9-0.3,1.5v4.6h-1.4v-8.6h1.2l0.2,1.6h0.1c0.3-0.6,0.7-1,1.2-1.3
			C124.5-74.6,125-74.7,125.5-74.7z"/>
		<path id="XMLID_1138_" class="st9" d="M128-76.9c0-0.3,0.1-0.5,0.2-0.7c0.2-0.1,0.4-0.2,0.6-0.2c0.2,0,0.4,0.1,0.6,0.2
			s0.2,0.4,0.2,0.7c0,0.3-0.1,0.5-0.2,0.7c-0.2,0.1-0.4,0.2-0.6,0.2c-0.2,0-0.4-0.1-0.6-0.2C128.1-76.3,128-76.6,128-76.9z
			 M129.5-66h-1.4v-8.6h1.4V-66z"/>
		<path id="XMLID_1136_" class="st9" d="M138.1-66v-5.5c0-0.7-0.2-1.2-0.5-1.6c-0.3-0.3-0.8-0.5-1.5-0.5c-0.9,0-1.5,0.2-1.9,0.7
			c-0.4,0.5-0.6,1.3-0.6,2.4v4.4h-1.4v-8.6h1.1l0.2,1.2h0.1c0.3-0.4,0.6-0.7,1.1-1c0.5-0.2,1-0.3,1.6-0.3c1.1,0,1.8,0.3,2.3,0.8
			c0.5,0.5,0.8,1.3,0.8,2.4v5.6H138.1z"/>
		<path id="XMLID_1133_" class="st9" d="M147.8-66.1l0-1.1h-0.1c-0.6,0.9-1.5,1.3-2.7,1.3c-1.1,0-2-0.4-2.6-1.2
			c-0.6-0.8-0.9-1.9-0.9-3.3c0-1.4,0.3-2.5,0.9-3.3c0.6-0.8,1.5-1.2,2.6-1.2c1.2,0,2.1,0.4,2.7,1.3h0.1l0.2-1.1h1.1v8.7
			c0,1.2-0.3,2.2-0.9,2.8c-0.6,0.6-1.6,0.9-2.9,0.9c-1.3,0-2.3-0.2-3.1-0.5V-64c0.8,0.4,1.9,0.7,3.2,0.7c0.7,0,1.3-0.2,1.7-0.6
			c0.4-0.4,0.6-1,0.6-1.8V-66.1z M145.4-67c0.9,0,1.5-0.2,1.9-0.7c0.4-0.5,0.6-1.2,0.6-2.2v-0.3c0-1.1-0.2-2-0.6-2.5
			c-0.4-0.5-1-0.8-1.9-0.8c-0.7,0-1.3,0.3-1.7,0.9c-0.4,0.6-0.6,1.4-0.6,2.4c0,1.1,0.2,1.9,0.6,2.4C144.1-67.2,144.6-67,145.4-67z"
			/>
		<path id="XMLID_1131_" class="st9" d="M162-66v-5.5c0-0.7-0.2-1.2-0.5-1.6c-0.3-0.3-0.8-0.5-1.5-0.5c-0.9,0-1.5,0.2-1.9,0.7
			c-0.4,0.5-0.6,1.3-0.6,2.4v4.4h-1.4v-8.6h1.1l0.2,1.2h0.1c0.3-0.4,0.6-0.7,1.1-1c0.5-0.2,1-0.3,1.6-0.3c1.1,0,1.8,0.3,2.3,0.8
			c0.5,0.5,0.8,1.3,0.8,2.4v5.6H162z"/>
		<path id="XMLID_1128_" class="st9" d="M169.7-65.8c-1.3,0-2.3-0.4-3-1.2c-0.7-0.8-1.1-1.9-1.1-3.2c0-1.4,0.3-2.5,1-3.3
			c0.7-0.8,1.6-1.2,2.8-1.2c1.1,0,1.9,0.3,2.6,1s1,1.6,1,2.8v0.9H167c0,1,0.3,1.7,0.7,2.2c0.5,0.5,1.1,0.8,2,0.8
			c0.5,0,0.9,0,1.3-0.1c0.4-0.1,0.9-0.2,1.4-0.5v1.2c-0.5,0.2-0.9,0.3-1.3,0.4C170.7-65.9,170.2-65.8,169.7-65.8z M169.3-73.6
			c-0.7,0-1.2,0.2-1.6,0.6c-0.4,0.4-0.6,1-0.7,1.8h4.4c0-0.8-0.2-1.4-0.6-1.8C170.5-73.4,170-73.6,169.3-73.6z"/>
		<path id="XMLID_1126_" class="st9" d="M181.9-66l-1.5-4.8c-0.1-0.4-0.3-1.2-0.6-2.3h-0.1c-0.2,1-0.4,1.8-0.6,2.3l-1.5,4.8h-1.6
			l-2.4-8.6h1.5c0.5,2.1,1,3.7,1.2,4.8c0.3,1.1,0.5,1.9,0.5,2.3h0.1l0.1-0.5c0.2-0.7,0.3-1.4,0.5-1.8l1.5-4.8h1.5l1.5,4.8
			c0.1,0.2,0.1,0.4,0.2,0.6c0.1,0.2,0.1,0.4,0.2,0.6c0.1,0.2,0.1,0.4,0.1,0.6c0,0.2,0.1,0.4,0.1,0.5h0.1c0-0.4,0.2-1.2,0.6-2.5
			l1.2-4.6h1.4l-2.4,8.6H181.9z"/>
		<path id="XMLID_1123_" class="st9" d="M195.7-65.8c-1.2,0-2-0.4-2.7-1.2h-0.1l0,0.3c0,0.4,0.1,0.8,0.1,1.1v3.5h-1.4v-12.4h1.2
			l0.2,1.2h0.1c0.3-0.5,0.7-0.8,1.2-1c0.4-0.2,0.9-0.3,1.5-0.3c1.1,0,2,0.4,2.6,1.2s0.9,1.9,0.9,3.3c0,1.4-0.3,2.5-0.9,3.3
			C197.7-66.2,196.8-65.8,195.7-65.8z M195.4-73.5c-0.8,0-1.5,0.2-1.8,0.7c-0.4,0.5-0.6,1.2-0.6,2.3v0.3c0,1.2,0.2,2,0.6,2.5
			c0.4,0.5,1,0.8,1.9,0.8c0.7,0,1.3-0.3,1.7-0.9c0.4-0.6,0.6-1.4,0.6-2.4c0-1-0.2-1.8-0.6-2.4C196.8-73.3,196.2-73.5,195.4-73.5z"/>
		<path id="XMLID_1121_" class="st9" d="M205.5-74.7c0.4,0,0.7,0,1,0.1l-0.2,1.3c-0.3-0.1-0.6-0.1-0.9-0.1c-0.5,0-0.9,0.1-1.3,0.4
			c-0.4,0.3-0.7,0.6-0.9,1c-0.2,0.4-0.3,0.9-0.3,1.5v4.6h-1.4v-8.6h1.2l0.2,1.6h0.1c0.3-0.6,0.7-1,1.2-1.3
			C204.4-74.6,204.9-74.7,205.5-74.7z"/>
		<path id="XMLID_1118_" class="st9" d="M215.4-70.3c0,1.4-0.4,2.5-1.1,3.3c-0.7,0.8-1.7,1.2-2.9,1.2c-0.8,0-1.5-0.2-2.1-0.5
			c-0.6-0.4-1.1-0.9-1.4-1.6c-0.3-0.7-0.5-1.5-0.5-2.4c0-1.4,0.3-2.5,1-3.3c0.7-0.8,1.7-1.2,2.9-1.2c1.2,0,2.2,0.4,2.9,1.2
			C215-72.7,215.4-71.6,215.4-70.3z M208.9-70.3c0,1.1,0.2,1.9,0.6,2.5c0.4,0.6,1.1,0.8,1.9,0.8c0.8,0,1.4-0.3,1.9-0.8
			c0.4-0.6,0.6-1.4,0.6-2.5s-0.2-1.9-0.6-2.4c-0.4-0.5-1.1-0.8-1.9-0.8C209.7-73.5,208.9-72.4,208.9-70.3z"/>
		<path id="XMLID_1115_" class="st9" d="M220.6-65.8c-1.1,0-2-0.4-2.6-1.2c-0.6-0.8-0.9-1.9-0.9-3.3c0-1.4,0.3-2.5,0.9-3.3
			c0.6-0.8,1.5-1.2,2.6-1.2c1.2,0,2,0.4,2.7,1.3h0.1c0-0.1,0-0.3-0.1-0.6c0-0.3,0-0.5,0-0.6v-3.4h1.4V-66h-1.1l-0.2-1.1h-0.1
			C222.7-66.3,221.8-65.8,220.6-65.8z M220.9-67c0.9,0,1.5-0.2,1.9-0.7c0.4-0.5,0.6-1.2,0.6-2.3v-0.3c0-1.2-0.2-2-0.6-2.6
			s-1-0.8-1.9-0.8c-0.7,0-1.3,0.3-1.7,0.9c-0.4,0.6-0.6,1.4-0.6,2.5c0,1.1,0.2,1.9,0.6,2.4C219.5-67.3,220.1-67,220.9-67z"/>
		<path id="XMLID_1113_" class="st9" d="M228.8-74.6v5.5c0,0.7,0.2,1.2,0.5,1.5c0.3,0.3,0.8,0.5,1.4,0.5c0.9,0,1.5-0.2,1.9-0.7
			c0.4-0.5,0.6-1.3,0.6-2.4v-4.5h1.4v8.6h-1.2l-0.2-1.1h-0.1c-0.3,0.4-0.6,0.7-1.1,1s-1,0.3-1.6,0.3c-1,0-1.8-0.2-2.3-0.7
			c-0.5-0.5-0.8-1.3-0.8-2.4v-5.6H228.8z"/>
		<path id="XMLID_1111_" class="st9" d="M240.8-65.8c-1.2,0-2.2-0.4-2.9-1.1s-1-1.8-1-3.3c0-1.4,0.3-2.5,1-3.3
			c0.7-0.8,1.7-1.2,3-1.2c0.4,0,0.8,0,1.2,0.1c0.4,0.1,0.7,0.2,1,0.3l-0.4,1.2c-0.7-0.3-1.3-0.4-1.9-0.4c-0.9,0-1.5,0.3-1.9,0.8
			c-0.4,0.5-0.6,1.4-0.6,2.4c0,1,0.2,1.8,0.6,2.4c0.4,0.5,1,0.8,1.8,0.8c0.8,0,1.5-0.2,2.2-0.5v1.3C242.4-66,241.6-65.8,240.8-65.8z
			"/>
		<path id="XMLID_1109_" class="st9" d="M247.9-67c0.2,0,0.4,0,0.6-0.1c0.2,0,0.4-0.1,0.6-0.1v1.1c-0.1,0.1-0.3,0.1-0.6,0.2
			s-0.6,0.1-0.8,0.1c-1.7,0-2.5-0.9-2.5-2.6v-5h-1.2v-0.7l1.2-0.6l0.6-1.8h0.8v2h2.5v1.1h-2.5v5c0,0.5,0.1,0.9,0.4,1.1
			C247.1-67.1,247.4-67,247.9-67z"/>
		<path id="XMLID_1107_" class="st9" d="M256.4-68.3c0,0.8-0.3,1.4-0.9,1.9c-0.6,0.4-1.4,0.7-2.5,0.7c-1.1,0-2-0.2-2.7-0.5v-1.3
			c0.9,0.5,1.9,0.7,2.7,0.7c0.7,0,1.2-0.1,1.5-0.3c0.3-0.2,0.5-0.5,0.5-0.9c0-0.3-0.2-0.6-0.5-0.9c-0.3-0.2-0.9-0.5-1.7-0.8
			c-0.8-0.3-1.4-0.6-1.7-0.8c-0.3-0.2-0.6-0.5-0.7-0.7c-0.2-0.3-0.2-0.6-0.2-1c0-0.7,0.3-1.3,0.9-1.7c0.6-0.4,1.4-0.6,2.4-0.6
			c1,0,1.9,0.2,2.7,0.6l-0.5,1.1c-0.9-0.4-1.7-0.5-2.4-0.5c-0.6,0-1,0.1-1.3,0.3c-0.3,0.2-0.5,0.4-0.5,0.8c0,0.3,0.1,0.6,0.4,0.8
			c0.3,0.2,0.9,0.5,1.8,0.9c0.7,0.3,1.2,0.5,1.6,0.7c0.3,0.2,0.6,0.5,0.8,0.8C256.3-69.1,256.4-68.7,256.4-68.3z"/>
		<path id="XMLID_1104_" class="st9" d="M107.4-53.4c0,1.4-0.4,2.5-1.1,3.3c-0.7,0.8-1.7,1.2-2.9,1.2c-0.8,0-1.5-0.2-2.1-0.5
			c-0.6-0.4-1.1-0.9-1.4-1.6c-0.3-0.7-0.5-1.5-0.5-2.4c0-1.4,0.3-2.5,1-3.3c0.7-0.8,1.7-1.2,2.9-1.2c1.2,0,2.2,0.4,2.9,1.2
			C107-55.8,107.4-54.8,107.4-53.4z M100.9-53.4c0,1.1,0.2,1.9,0.6,2.5c0.4,0.6,1.1,0.8,1.9,0.8c0.8,0,1.4-0.3,1.9-0.8
			c0.4-0.6,0.6-1.4,0.6-2.5s-0.2-1.9-0.6-2.4c-0.4-0.5-1.1-0.8-1.9-0.8C101.7-56.6,100.9-55.6,100.9-53.4z"/>
		<path id="XMLID_1102_" class="st9" d="M113.6-57.8c0.4,0,0.7,0,1,0.1l-0.2,1.3c-0.3-0.1-0.6-0.1-0.9-0.1c-0.5,0-0.9,0.1-1.3,0.4
			c-0.4,0.3-0.7,0.6-0.9,1c-0.2,0.4-0.3,0.9-0.3,1.5v4.6h-1.4v-8.6h1.2l0.2,1.6h0.1c0.3-0.6,0.7-1,1.2-1.3
			C112.6-57.7,113.1-57.8,113.6-57.8z"/>
		<path id="XMLID_1100_" class="st9" d="M126-51.5c0,0.8-0.3,1.4-0.9,1.9c-0.6,0.4-1.4,0.7-2.5,0.7c-1.1,0-2-0.2-2.7-0.5v-1.3
			c0.9,0.5,1.9,0.7,2.7,0.7c0.7,0,1.2-0.1,1.5-0.3c0.3-0.2,0.5-0.5,0.5-0.9c0-0.3-0.2-0.6-0.5-0.9c-0.3-0.2-0.9-0.5-1.7-0.8
			c-0.8-0.3-1.4-0.6-1.7-0.8c-0.3-0.2-0.6-0.5-0.7-0.7c-0.2-0.3-0.2-0.6-0.2-1c0-0.7,0.3-1.3,0.9-1.7c0.6-0.4,1.4-0.6,2.4-0.6
			c1,0,1.9,0.2,2.7,0.6l-0.5,1.1c-0.9-0.4-1.7-0.5-2.4-0.5c-0.6,0-1,0.1-1.3,0.3c-0.3,0.2-0.5,0.4-0.5,0.8c0,0.3,0.1,0.6,0.4,0.8
			c0.3,0.2,0.9,0.5,1.8,0.9c0.7,0.3,1.2,0.5,1.6,0.7c0.3,0.2,0.6,0.5,0.8,0.8C125.9-52.2,126-51.9,126-51.5z"/>
		<path id="XMLID_1097_" class="st9" d="M131.7-48.9c-1.3,0-2.3-0.4-3-1.2c-0.7-0.8-1.1-1.9-1.1-3.2c0-1.4,0.3-2.5,1-3.3
			c0.7-0.8,1.6-1.2,2.8-1.2c1.1,0,1.9,0.3,2.6,1s1,1.6,1,2.8v0.9H129c0,1,0.3,1.7,0.7,2.2c0.5,0.5,1.1,0.8,2,0.8
			c0.5,0,0.9,0,1.3-0.1c0.4-0.1,0.9-0.2,1.4-0.5v1.2c-0.5,0.2-0.9,0.3-1.3,0.4C132.7-49,132.3-48.9,131.7-48.9z M131.3-56.7
			c-0.7,0-1.2,0.2-1.6,0.6c-0.4,0.4-0.6,1-0.7,1.8h4.4c0-0.8-0.2-1.4-0.6-1.8C132.5-56.5,132-56.7,131.3-56.7z"/>
		<path id="XMLID_1095_" class="st9" d="M141.1-57.8c0.4,0,0.7,0,1,0.1l-0.2,1.3c-0.3-0.1-0.6-0.1-0.9-0.1c-0.5,0-0.9,0.1-1.3,0.4
			c-0.4,0.3-0.7,0.6-0.9,1c-0.2,0.4-0.3,0.9-0.3,1.5v4.6h-1.4v-8.6h1.2l0.2,1.6h0.1c0.3-0.6,0.7-1,1.2-1.3
			C140-57.7,140.5-57.8,141.1-57.8z"/>
		<path id="XMLID_1093_" class="st9" d="M145.6-49.1l-3.3-8.6h1.5l1.8,5.1c0.4,1,0.6,1.8,0.7,2.3h0.1c0-0.1,0-0.1,0.1-0.2
			s0.1-0.2,0.1-0.3s0.2-0.7,0.6-1.8l1.8-5.1h1.5l-3.3,8.6H145.6z"/>
		<path id="XMLID_1090_" class="st9" d="M151.7-60c0-0.3,0.1-0.5,0.2-0.7c0.2-0.1,0.4-0.2,0.6-0.2c0.2,0,0.4,0.1,0.6,0.2
			s0.2,0.4,0.2,0.7c0,0.3-0.1,0.5-0.2,0.7c-0.2,0.1-0.4,0.2-0.6,0.2c-0.2,0-0.4-0.1-0.6-0.2C151.8-59.5,151.7-59.7,151.7-60z
			 M153.2-49.1h-1.4v-8.6h1.4V-49.1z"/>
		<path id="XMLID_1088_" class="st9" d="M159.4-48.9c-1.2,0-2.2-0.4-2.9-1.1s-1-1.8-1-3.3c0-1.4,0.3-2.5,1-3.3
			c0.7-0.8,1.7-1.2,3-1.2c0.4,0,0.8,0,1.2,0.1c0.4,0.1,0.7,0.2,1,0.3l-0.4,1.2c-0.7-0.3-1.3-0.4-1.9-0.4c-0.9,0-1.5,0.3-1.9,0.8
			c-0.4,0.5-0.6,1.4-0.6,2.4c0,1,0.2,1.8,0.6,2.4c0.4,0.5,1,0.8,1.8,0.8c0.8,0,1.5-0.2,2.2-0.5v1.3C161-49.1,160.2-48.9,159.4-48.9z
			"/>
		<path id="XMLID_1085_" class="st9" d="M167.2-48.9c-1.3,0-2.3-0.4-3-1.2c-0.7-0.8-1.1-1.9-1.1-3.2c0-1.4,0.3-2.5,1-3.3
			c0.7-0.8,1.6-1.2,2.8-1.2c1.1,0,1.9,0.3,2.6,1s1,1.6,1,2.8v0.9h-5.9c0,1,0.3,1.7,0.7,2.2c0.5,0.5,1.1,0.8,2,0.8
			c0.5,0,0.9,0,1.3-0.1c0.4-0.1,0.9-0.2,1.4-0.5v1.2c-0.5,0.2-0.9,0.3-1.3,0.4C168.3-49,167.8-48.9,167.2-48.9z M166.9-56.7
			c-0.7,0-1.2,0.2-1.6,0.6c-0.4,0.4-0.6,1-0.7,1.8h4.4c0-0.8-0.2-1.4-0.6-1.8C168.1-56.5,167.6-56.7,166.9-56.7z"/>
		<path id="XMLID_1083_" class="st9" d="M178.2-49.1h-1.4v-12.2h1.4V-49.1z"/>
		<path id="XMLID_1080_" class="st9" d="M186.2-49.1l-0.3-1.2h-0.1c-0.4,0.5-0.9,0.9-1.3,1.1c-0.4,0.2-1,0.3-1.6,0.3
			c-0.8,0-1.5-0.2-2-0.7c-0.5-0.4-0.7-1.1-0.7-1.9c0-1.7,1.4-2.7,4.1-2.7l1.5-0.1v-0.5c0-0.7-0.1-1.1-0.4-1.4
			c-0.3-0.3-0.7-0.5-1.4-0.5c-0.5,0-0.9,0.1-1.3,0.2c-0.4,0.1-0.8,0.3-1.1,0.5l-0.4-1.1c0.4-0.2,0.9-0.4,1.4-0.5
			c0.5-0.1,1-0.2,1.5-0.2c1,0,1.8,0.2,2.3,0.7c0.5,0.5,0.8,1.2,0.8,2.2v5.8H186.2z M183.3-50.1c0.8,0,1.4-0.2,1.9-0.6
			c0.5-0.4,0.7-1,0.7-1.8v-0.8l-1.3,0.1c-1,0-1.7,0.2-2.2,0.5c-0.5,0.3-0.7,0.7-0.7,1.3c0,0.4,0.1,0.8,0.4,1
			C182.4-50.2,182.8-50.1,183.3-50.1z"/>
		<path id="XMLID_1078_" class="st9" d="M191.2-57.7v5.5c0,0.7,0.2,1.2,0.5,1.5c0.3,0.3,0.8,0.5,1.4,0.5c0.9,0,1.5-0.2,1.9-0.7
			c0.4-0.5,0.6-1.3,0.6-2.4v-4.5h1.4v8.6h-1.2l-0.2-1.1h-0.1c-0.3,0.4-0.6,0.7-1.1,1s-1,0.3-1.6,0.3c-1,0-1.8-0.2-2.3-0.7
			c-0.5-0.5-0.8-1.3-0.8-2.4v-5.6H191.2z"/>
		<path id="XMLID_1076_" class="st9" d="M205.6-49.1v-5.5c0-0.7-0.2-1.2-0.5-1.6c-0.3-0.3-0.8-0.5-1.5-0.5c-0.9,0-1.5,0.2-1.9,0.7
			c-0.4,0.5-0.6,1.3-0.6,2.4v4.4h-1.4v-8.6h1.1l0.2,1.2h0.1c0.3-0.4,0.6-0.7,1.1-1c0.5-0.2,1-0.3,1.6-0.3c1.1,0,1.8,0.3,2.3,0.8
			c0.5,0.5,0.8,1.3,0.8,2.4v5.6H205.6z"/>
		<path id="XMLID_1074_" class="st9" d="M213.1-48.9c-1.2,0-2.2-0.4-2.9-1.1s-1-1.8-1-3.3c0-1.4,0.3-2.5,1-3.3
			c0.7-0.8,1.7-1.2,3-1.2c0.4,0,0.8,0,1.2,0.1c0.4,0.1,0.7,0.2,1,0.3l-0.4,1.2c-0.7-0.3-1.3-0.4-1.9-0.4c-0.9,0-1.5,0.3-1.9,0.8
			c-0.4,0.5-0.6,1.4-0.6,2.4c0,1,0.2,1.8,0.6,2.4c0.4,0.5,1,0.8,1.8,0.8c0.8,0,1.5-0.2,2.2-0.5v1.3C214.7-49.1,214-48.9,213.1-48.9z
			"/>
		<path id="XMLID_1072_" class="st9" d="M223.2-49.1v-5.5c0-0.7-0.2-1.2-0.5-1.6c-0.3-0.3-0.8-0.5-1.5-0.5c-0.9,0-1.5,0.2-1.9,0.7
			c-0.4,0.5-0.6,1.3-0.6,2.4v4.4h-1.4v-12.2h1.4v3.6c0,0.5,0,0.9-0.1,1.2h0.1c0.3-0.4,0.6-0.7,1.1-1s1-0.4,1.6-0.4
			c1,0,1.8,0.2,2.4,0.7c0.5,0.5,0.8,1.3,0.8,2.4v5.6H223.2z"/>
		<path id="XMLID_1069_" class="st9" d="M230.9-48.9c-1.3,0-2.3-0.4-3-1.2c-0.7-0.8-1.1-1.9-1.1-3.2c0-1.4,0.3-2.5,1-3.3
			c0.7-0.8,1.6-1.2,2.8-1.2c1.1,0,1.9,0.3,2.6,1s1,1.6,1,2.8v0.9h-5.9c0,1,0.3,1.7,0.7,2.2c0.5,0.5,1.1,0.8,2,0.8
			c0.5,0,0.9,0,1.3-0.1c0.4-0.1,0.9-0.2,1.4-0.5v1.2c-0.5,0.2-0.9,0.3-1.3,0.4C231.9-49,231.4-48.9,230.9-48.9z M230.5-56.7
			c-0.7,0-1.2,0.2-1.6,0.6c-0.4,0.4-0.6,1-0.7,1.8h4.4c0-0.8-0.2-1.4-0.6-1.8C231.7-56.5,231.2-56.7,230.5-56.7z"/>
		<path id="XMLID_1067_" class="st9" d="M241.8-51.5c0,0.8-0.3,1.4-0.9,1.9c-0.6,0.4-1.4,0.7-2.5,0.7c-1.1,0-2-0.2-2.7-0.5v-1.3
			c0.9,0.5,1.9,0.7,2.7,0.7c0.7,0,1.2-0.1,1.5-0.3c0.3-0.2,0.5-0.5,0.5-0.9c0-0.3-0.2-0.6-0.5-0.9c-0.3-0.2-0.9-0.5-1.7-0.8
			c-0.8-0.3-1.4-0.6-1.7-0.8c-0.3-0.2-0.6-0.5-0.7-0.7c-0.2-0.3-0.2-0.6-0.2-1c0-0.7,0.3-1.3,0.9-1.7c0.6-0.4,1.4-0.6,2.4-0.6
			c1,0,1.9,0.2,2.7,0.6l-0.5,1.1c-0.9-0.4-1.7-0.5-2.4-0.5c-0.6,0-1,0.1-1.3,0.3c-0.3,0.2-0.5,0.4-0.5,0.8c0,0.3,0.1,0.6,0.4,0.8
			c0.3,0.2,0.9,0.5,1.8,0.9c0.7,0.3,1.2,0.5,1.6,0.7c0.3,0.2,0.6,0.5,0.8,0.8C241.8-52.2,241.8-51.9,241.8-51.5z"/>
		<path id="XMLID_1065_" class="st9" d="M243.7-50c0-0.3,0.1-0.6,0.3-0.8c0.2-0.2,0.4-0.3,0.7-0.3c0.3,0,0.6,0.1,0.7,0.3
			c0.2,0.2,0.3,0.4,0.3,0.8c0,0.3-0.1,0.6-0.3,0.8c-0.2,0.2-0.4,0.3-0.7,0.3c-0.3,0-0.5-0.1-0.7-0.3S243.7-49.6,243.7-50z"/>
	</g>
</g>
<circle id="XMLID_3337_" class="st2" cx="8.4" cy="21" r="8.4"/>
<g id="XMLID_3319_">
	<path id="XMLID_3320_" class="st1" d="M10.4,18.9c0,0.5,0.1,1-0.2,1.4S9,20.9,9,21v0c0,0.1,1,0.3,1.3,0.6s0.4,0.8,0.4,1.4
		c0,0.8-0.4,1.5-1,1.9s-1.3,0.7-2.4,0.7c-0.9,0-2.3-0.2-2.3-0.5v-1.5c0,0.2,0.5,0.3,0.9,0.4s0.7,0.2,1.1,0.2c0.6,0,1-0.1,1.3-0.3
		s0.4-0.5,0.4-1c0-0.4-0.2-0.6-0.5-0.8S7.4,22,6.7,22H6v-1h0.7c0.7,0,1.1-0.4,1.5-0.5s0.5-0.6,0.5-1c0-0.6-0.4-1-1.2-1
		c-0.3,0-0.6,0-0.9,0.1s-0.6,0.2-1,0.5l-0.8-1.3c0.8-0.6,1.7-0.8,2.8-0.8c0.9,0,1.6,0.2,2.1,0.5S10.4,18.2,10.4,18.9z"/>
</g>
<g id="XMLID_2342_">
	<path id="XMLID_2360_" class="st7" d="M252.3,34.6"/>
	<path id="XMLID_2359_" class="st7" d="M239.9,46c0,0-2.5-13.6,9.5-21.1"/>
	<path id="XMLID_2358_" class="st7" d="M246.6,35.1"/>
	<path id="XMLID_2357_" class="st7" d="M247.4,32.5"/>
	<path id="XMLID_2356_" class="st7" d="M240.9,16.7c0,0,7.4-0.2,11.8,6.4C252.7,23.1,252.8,11,240.9,16.7z"/>
	<path id="XMLID_2355_" class="st7" d="M239.2,27.2c0,0,5.2-5.2,12.9-3.4C252.2,23.8,244,15,239.2,27.2z"/>
	<path id="XMLID_2354_" class="st7" d="M266.2,27.3c0,0-5.2-5.2-13-3.4C253.2,23.9,261.4,15,266.2,27.3z"/>
	<path id="XMLID_2353_" class="st7" d="M260.2,36.2c0,0,0-1-0.4-2.4c-0.1-0.5-0.3-1.2-0.6-1.8c-0.2-0.5-0.4-1-0.7-1.6
		c-1-1.9-2.7-4-5.4-5.6C253.1,24.8,265.1,24,260.2,36.2z"/>
	<path id="XMLID_2352_" class="st7" d="M246.5,46.1c0,0-4.2-11.7,6.6-19.9"/>
	<circle id="XMLID_2351_" class="st8" cx="269.4" cy="33.7" r="3.2"/>
	<polyline id="XMLID_2350_" class="st11" points="245.6,48.4 252.2,40 257.2,44.2 262.5,38.9 274.8,48.4 	"/>
	<rect id="XMLID_2349_" x="228" y="1" class="st8" width="53" height="64"/>
	<rect id="XMLID_2343_" x="235" y="7" class="st8" width="40" height="42"/>
</g>
<g id="XMLID_568_">
	<g id="XMLID_519_">
		<path id="XMLID_538_" class="st9" d="M40.2,26.3h-1.5l-2.2-7.5c-0.3-1.1-0.5-1.9-0.6-2.3c-0.1,0.6-0.3,1.4-0.5,2.3l-2.2,7.4h-1.5
			l-3-11.4h1.5l1.8,7c0.2,0.9,0.4,1.8,0.5,2.7c0.1-0.9,0.3-1.8,0.6-2.8l2-6.9h1.5l2.1,6.9c0.3,0.9,0.5,1.8,0.6,2.8
			c0.1-0.7,0.3-1.6,0.6-2.7l1.8-7h1.5L40.2,26.3z"/>
		<path id="XMLID_535_" class="st9" d="M48.3,26.4c-1.3,0-2.3-0.4-3-1.2c-0.7-0.8-1.1-1.9-1.1-3.2c0-1.4,0.3-2.5,1-3.3
			c0.7-0.8,1.6-1.2,2.8-1.2c1.1,0,1.9,0.3,2.6,1s1,1.6,1,2.8v0.9h-5.9c0,1,0.3,1.7,0.7,2.2c0.5,0.5,1.1,0.8,2,0.8
			c0.5,0,0.9,0,1.3-0.1c0.4-0.1,0.9-0.2,1.4-0.5v1.2c-0.5,0.2-0.9,0.3-1.3,0.4C49.4,26.4,48.9,26.4,48.3,26.4z M47.9,18.7
			c-0.7,0-1.2,0.2-1.6,0.6c-0.4,0.4-0.6,1-0.7,1.8H50c0-0.8-0.2-1.4-0.6-1.8C49.1,18.9,48.6,18.7,47.9,18.7z"/>
		<path id="XMLID_532_" class="st9" d="M57.3,26.4c-1.3,0-2.3-0.4-3-1.2c-0.7-0.8-1.1-1.9-1.1-3.2c0-1.4,0.3-2.5,1-3.3
			c0.7-0.8,1.6-1.2,2.8-1.2c1.1,0,1.9,0.3,2.6,1s1,1.6,1,2.8v0.9h-5.9c0,1,0.3,1.7,0.7,2.2c0.5,0.5,1.1,0.8,2,0.8
			c0.5,0,0.9,0,1.3-0.1c0.4-0.1,0.9-0.2,1.4-0.5v1.2c-0.5,0.2-0.9,0.3-1.3,0.4C58.4,26.4,57.9,26.4,57.3,26.4z M57,18.7
			c-0.7,0-1.2,0.2-1.6,0.6c-0.4,0.4-0.6,1-0.7,1.8h4.4c0-0.8-0.2-1.4-0.6-1.8C58.1,18.9,57.6,18.7,57,18.7z"/>
		<path id="XMLID_530_" class="st9" d="M64.1,21.9l0.5-0.6l0.5-0.7l2.7-2.9h1.6L66,21.4l3.7,4.9H68l-3-4l-1,0.9v3.1h-1.4V14.1h1.4
			v6.4V21.9L64.1,21.9z"/>
		<path id="XMLID_527_" class="st9" d="M74.7,26.4c-1.3,0-2.3-0.4-3-1.2c-0.7-0.8-1.1-1.9-1.1-3.2c0-1.4,0.3-2.5,1-3.3
			c0.7-0.8,1.6-1.2,2.8-1.2c1.1,0,1.9,0.3,2.6,1s1,1.6,1,2.8v0.9h-5.9c0,1,0.3,1.7,0.7,2.2c0.5,0.5,1.1,0.8,2,0.8
			c0.5,0,0.9,0,1.3-0.1c0.4-0.1,0.9-0.2,1.4-0.5v1.2c-0.5,0.2-0.9,0.3-1.3,0.4C75.8,26.4,75.3,26.4,74.7,26.4z M74.4,18.7
			c-0.7,0-1.2,0.2-1.6,0.6c-0.4,0.4-0.6,1-0.7,1.8h4.4c0-0.8-0.2-1.4-0.6-1.8C75.6,18.9,75,18.7,74.4,18.7z"/>
		<path id="XMLID_525_" class="st9" d="M86,26.3v-5.5c0-0.7-0.2-1.2-0.5-1.6c-0.3-0.3-0.8-0.5-1.5-0.5c-0.9,0-1.5,0.2-1.9,0.7
			c-0.4,0.5-0.6,1.3-0.6,2.4v4.4h-1.4v-8.6h1.1l0.2,1.2h0.1c0.3-0.4,0.6-0.7,1.1-1c0.5-0.2,1-0.3,1.6-0.3c1.1,0,1.8,0.3,2.3,0.8
			c0.5,0.5,0.8,1.3,0.8,2.4v5.6H86z"/>
		<path id="XMLID_522_" class="st9" d="M93,26.4c-1.1,0-2-0.4-2.6-1.2c-0.6-0.8-0.9-1.9-0.9-3.3c0-1.4,0.3-2.5,0.9-3.3
			c0.6-0.8,1.5-1.2,2.6-1.2c1.2,0,2,0.4,2.7,1.3h0.1c0-0.1,0-0.3-0.1-0.6c0-0.3,0-0.5,0-0.6v-3.4h1.4v12.2H96l-0.2-1.1h-0.1
			C95.1,26,94.2,26.4,93,26.4z M93.3,25.3c0.9,0,1.5-0.2,1.9-0.7c0.4-0.5,0.6-1.2,0.6-2.3V22c0-1.2-0.2-2-0.6-2.6s-1-0.8-1.9-0.8
			c-0.7,0-1.3,0.3-1.7,0.9C91.2,20.1,91,21,91,22c0,1.1,0.2,1.9,0.6,2.4C92,25,92.5,25.3,93.3,25.3z"/>
		<path id="XMLID_520_" class="st9" d="M105.4,23.9c0,0.8-0.3,1.4-0.9,1.9c-0.6,0.4-1.4,0.7-2.5,0.7c-1.1,0-2-0.2-2.7-0.5v-1.3
			c0.9,0.5,1.9,0.7,2.7,0.7c0.7,0,1.2-0.1,1.5-0.3c0.3-0.2,0.5-0.5,0.5-0.9c0-0.3-0.2-0.6-0.5-0.9c-0.3-0.2-0.9-0.5-1.7-0.8
			c-0.8-0.3-1.4-0.6-1.7-0.8c-0.3-0.2-0.6-0.5-0.7-0.7c-0.2-0.3-0.2-0.6-0.2-1c0-0.7,0.3-1.3,0.9-1.7c0.6-0.4,1.4-0.6,2.4-0.6
			c1,0,1.9,0.2,2.7,0.6l-0.5,1.1c-0.9-0.4-1.7-0.5-2.4-0.5c-0.6,0-1,0.1-1.3,0.3c-0.3,0.2-0.5,0.4-0.5,0.8c0,0.3,0.1,0.6,0.4,0.8
			c0.3,0.2,0.9,0.5,1.8,0.9c0.7,0.3,1.2,0.5,1.6,0.7c0.3,0.2,0.6,0.5,0.8,0.8C105.4,23.2,105.4,23.5,105.4,23.9z"/>
	</g>
</g>
</svg>
