<!-- Generator: Adobe Illustrator 19.0.0, SVG Export Plug-In  -->
<svg version="1.1"
	 xmlns="http://www.w3.org/2000/svg" xmlns:xlink="http://www.w3.org/1999/xlink" xmlns:a="http://ns.adobe.com/AdobeSVGViewerExtensions/3.0/"
	 x="0px" y="0px" width="550.9px" height="274px" viewBox="0 0 550.9 274" style="enable-background:new 0 0 550.9 274;"
	 xml:space="preserve">
<style type="text/css">
	.st0{fill:#D1D1D1;}
	.st1{fill:#9EA6A8;}
	.st2{fill:#FFFFFF;}
	.st3{fill:#FF6633;}
	.st4{fill:#AAA5A3;}
	.st5{fill:none;stroke:#D1D1D1;stroke-miterlimit:10;}
	.st6{fill:#33CCCC;}
	.st7{fill:#258986;}
	.st8{fill:none;stroke:#FF6633;stroke-width:0.5;stroke-miterlimit:10;}
	.st9{fill:#9E9E9E;stroke:#FF6633;stroke-width:0.5;stroke-miterlimit:10;}
	.st10{fill:none;stroke:#FF6633;stroke-width:2;stroke-miterlimit:10;stroke-dasharray:3.132;}
</style>
<defs>
</defs>
<g>
	<path class="st0" d="M502.8,262h-388c-7.7,0-14-6.3-14-14V14c0-7.7,6.3-14,14-14h388c7.7,0,14,6.3,14,14v234
		C516.8,255.7,510.5,262,502.8,262z"/>
	<rect x="119.1" y="26" class="st1" width="377.6" height="236"/>
	<rect x="132" y="59" class="st2" width="352.3" height="173.3"/>
	<path class="st0" d="M70.9,246L70.9,246c0,15.4,12.6,28,28,28h420c15.4,0,28-12.6,28-28v0H70.9z"/>
	<rect x="132" y="31.7" class="st0" width="352.3" height="13.7"/>
	<rect x="132" y="45.3" class="st2" width="351.5" height="13.7"/>
	<circle class="st3" cx="142.8" cy="38.5" r="3.3"/>
	<circle class="st3" cx="153.6" cy="38.5" r="3.3"/>
	<circle class="st3" cx="164.4" cy="38.5" r="3.3"/>
</g>
<circle class="st2" cx="355.1" cy="189.6" r="2.9"/>
<path class="st4" d="M373.3,260.7H262.7c-4,0-7.4-3.3-7.4-7.4l0,0c0-4,3.3-7.4,7.4-7.4h110.6c4,0,7.4,3.3,7.4,7.4l0,0
	C380.7,257.4,377.4,260.7,373.3,260.7z"/>
<rect x="189.8" y="49.9" class="st5" width="176.5" height="19"/>
<rect x="366.3" y="49.9" class="st3" width="35.5" height="19"/>
<g>
	<path class="st1" d="M195.6,53c0-0.7,0.4-1.1,1.1-1.1c0.7,0,1.1,0.4,1.1,1.1c0,0.3-0.1,0.6-0.3,0.8c-0.2,0.2-0.5,0.3-0.8,0.3
		C196,54.1,195.6,53.7,195.6,53z M197.8,63.3h-2.1v-8.2h2.1V63.3z"/>
	<path class="st1" d="M204.1,63.4c-0.9,0-1.6-0.3-2.1-1h-0.1c0.1,0.7,0.1,1.1,0.1,1.2v3.3h-2.1V55.1h1.7l0.3,1.1h0.1
		c0.5-0.8,1.2-1.2,2.1-1.2c0.9,0,1.6,0.4,2.1,1.1s0.8,1.8,0.8,3.1c0,0.9-0.1,1.6-0.4,2.3s-0.6,1.1-1,1.5
		C205.2,63.3,204.7,63.4,204.1,63.4z M203.5,56.7c-0.5,0-0.9,0.2-1.1,0.5s-0.4,0.9-0.4,1.7v0.2c0,0.9,0.1,1.5,0.4,1.9
		c0.2,0.4,0.6,0.6,1.1,0.6c0.9,0,1.4-0.8,1.4-2.5c0-0.8-0.1-1.4-0.3-1.8C204.3,56.9,203.9,56.7,203.5,56.7z"/>
	<path class="st1" d="M212.9,55c0.3,0,0.5,0,0.7,0.1l-0.2,2.1c-0.2,0-0.4-0.1-0.6-0.1c-0.7,0-1.2,0.2-1.5,0.5
		c-0.4,0.4-0.5,0.9-0.5,1.5v4.2h-2.1v-8.2h1.6l0.3,1.4h0.1c0.2-0.5,0.5-0.8,0.9-1.1S212.4,55,212.9,55z"/>
	<path class="st1" d="M214.8,53c0-0.7,0.4-1.1,1.1-1.1c0.7,0,1.1,0.4,1.1,1.1c0,0.3-0.1,0.6-0.3,0.8c-0.2,0.2-0.5,0.3-0.8,0.3
		C215.2,54.1,214.8,53.7,214.8,53z M217,63.3h-2.1v-8.2h2.1V63.3z"/>
	<path class="st1" d="M222.2,63.4c-2.3,0-3.5-1.4-3.5-4.2c0-1.4,0.3-2.5,1-3.2c0.6-0.7,1.6-1.1,2.7-1.1c0.9,0,1.7,0.2,2.3,0.6
		l-0.6,1.7c-0.3-0.1-0.6-0.3-0.9-0.3c-0.3-0.1-0.6-0.1-0.8-0.1c-1.1,0-1.6,0.8-1.6,2.5c0,1.6,0.5,2.4,1.6,2.4c0.4,0,0.8-0.1,1.1-0.2
		c0.3-0.1,0.7-0.3,1-0.5v1.9c-0.3,0.2-0.7,0.4-1,0.5C223.1,63.4,222.7,63.4,222.2,63.4z"/>
	<path class="st1" d="M229.6,63.4c-1.2,0-2.2-0.4-2.8-1.1s-1-1.8-1-3.1c0-1.4,0.3-2.4,0.9-3.2s1.5-1.1,2.6-1.1c1.1,0,1.9,0.3,2.5,1
		c0.6,0.7,0.9,1.6,0.9,2.7v1.1h-4.9c0,0.6,0.2,1.1,0.5,1.5c0.3,0.4,0.8,0.5,1.4,0.5c0.5,0,0.9-0.1,1.3-0.2c0.4-0.1,0.8-0.3,1.3-0.5
		v1.7c-0.4,0.2-0.7,0.3-1.2,0.4C230.7,63.4,230.2,63.4,229.6,63.4z M229.3,56.5c-0.4,0-0.8,0.2-1,0.5c-0.2,0.3-0.4,0.7-0.4,1.3h2.9
		c0-0.6-0.1-1-0.4-1.3C230.1,56.7,229.8,56.5,229.3,56.5z"/>
	<path class="st1" d="M234.1,62.2c0-0.4,0.1-0.7,0.3-0.9s0.5-0.3,0.9-0.3c0.4,0,0.7,0.1,0.9,0.3c0.2,0.2,0.3,0.5,0.3,0.9
		c0,0.4-0.1,0.7-0.3,0.9c-0.2,0.2-0.5,0.3-0.9,0.3c-0.4,0-0.7-0.1-0.9-0.3C234.2,63,234.1,62.6,234.1,62.2z"/>
	<path class="st1" d="M245,63.3H243v-4.8c0-0.6-0.1-1-0.3-1.3c-0.2-0.3-0.5-0.4-0.9-0.4c-0.5,0-0.9,0.2-1.1,0.6
		c-0.2,0.4-0.4,1.1-0.4,2.1v3.9h-2.1v-8.2h1.6l0.3,1h0.1c0.2-0.4,0.5-0.7,0.9-0.9c0.4-0.2,0.8-0.3,1.3-0.3c1.1,0,1.9,0.4,2.3,1.2
		h0.2c0.2-0.4,0.5-0.7,0.9-0.9s0.8-0.3,1.3-0.3c0.9,0,1.5,0.2,1.9,0.7c0.4,0.5,0.7,1.2,0.7,2.3v5.3h-2.1v-4.8c0-0.6-0.1-1-0.3-1.3
		c-0.2-0.3-0.5-0.4-0.9-0.4c-0.5,0-0.9,0.2-1.1,0.6c-0.2,0.4-0.4,1-0.4,1.9V63.3z"/>
	<path class="st1" d="M250.7,55.1h2.2l1.4,4.6c0.1,0.4,0.2,0.9,0.2,1.4h0c0-0.5,0.1-1,0.3-1.4l1.4-4.6h2.2l-3.2,9.2
		c-0.3,0.9-0.7,1.5-1.2,1.9s-1.2,0.6-1.9,0.6c-0.4,0-0.7,0-1-0.1V65c0.2,0.1,0.5,0.1,0.8,0.1c0.4,0,0.7-0.1,1-0.4
		c0.3-0.2,0.5-0.6,0.6-1.1l0.1-0.4L250.7,55.1z"/>
</g>
<rect x="202.7" y="94.7" class="st5" width="280.8" height="137.6"/>
<rect x="132" y="43.1" class="st6" width="352.3" height="51.6"/>
<rect x="211" y="58.5" class="st2" width="134.1" height="20.7"/>
<rect x="341.9" y="58.5" class="st7" width="37" height="20.7"/>
<rect x="211.3" y="107.4" class="st6" width="131.8" height="12.9"/>
<rect x="211.3" y="124.3" class="st6" width="71.9" height="3.5"/>
<rect x="211.3" y="129.9" class="st6" width="71.9" height="3.5"/>
<rect x="211" y="139.4" class="st6" width="47.6" height="58.3"/>
<rect x="262.6" y="139.4" class="st6" width="47.6" height="58.3"/>
<rect x="318.4" y="123.7" class="st6" width="71.9" height="3.5"/>
<rect x="318.4" y="129.3" class="st6" width="71.9" height="3.5"/>
<rect x="318" y="138.8" class="st6" width="47.6" height="58.3"/>
<rect x="369.6" y="138.8" class="st6" width="47.6" height="58.3"/>
<g>
	<g>
		<path class="st8" d="M188.2,141.4v-4c0-4.3-3.5-7.7-7.7-7.7c-4.3,0-7.7,3.5-7.7,7.7v4H188.2z"/>
		<path class="st8" d="M182.7,131.6v-2.9c0-1.3-1-2.3-2.3-2.3c-1.3,0-2.3,1-2.3,2.3v2.9"/>
		<path class="st8" d="M183.4,131.6v-2.8c0-1.7-1.3-3-3-3c-1.7,0-3,1.3-3,3v2.8"/>
		<rect x="182.4" y="131.6" class="st8" width="1.4" height="2.8"/>
		<rect x="177" y="131.6" class="st8" width="1.4" height="2.8"/>
		<line class="st8" x1="172.7" y1="140.3" x2="188.1" y2="140.3"/>
	</g>
	<g>
		<g>
			
				<ellipse transform="matrix(0.7071 0.7071 -0.7071 0.7071 184.1766 -75.6587)" class="st8" cx="183.4" cy="184.5" rx="4.7" ry="5.2"/>
			<path class="st8" d="M172.9,195.1L172.9,195.1c-0.3-0.3-0.3-0.8,0-1.1l2.7-2.7c0.3-0.3,0.8-0.3,1.1,0l0,0c0.3,0.3,0.3,0.8,0,1.1
				l-2.7,2.7C173.7,195.4,173.2,195.4,172.9,195.1z"/>
			<path class="st8" d="M178.5,185c0,0,0,4.4-2.3,6.7"/>
			<path class="st8" d="M182.9,189.5c0,0-4.4,0-6.7,2.3"/>
		</g>
		<path class="st8" d="M183.1,194.7c-0.4,0.4-0.9,0.6-1.4,0.5c-0.4,0-0.8-0.2-1.1-0.5c-0.3-0.3-0.5-0.7-0.5-1.1c0-0.5,0.1-1,0.5-1.4
			c0.4-0.4,0.9-0.6,1.4-0.5c0.4,0,0.8,0.2,1.1,0.5c0.3,0.3,0.5,0.7,0.5,1.1C183.7,193.8,183.5,194.3,183.1,194.7z"/>
		<path class="st8" d="M181.5,193.1c-0.4,0.4-0.9,0.6-1.4,0.5c0-0.5,0.1-1,0.5-1.4c0.4-0.4,0.9-0.6,1.4-0.5
			C182.1,192.2,181.9,192.7,181.5,193.1z"/>
		<path class="st8" d="M183.1,194.7c-0.4,0.4-0.9,0.6-1.4,0.5c-0.1-0.5,0.1-1.1,0.5-1.5c0.4-0.4,0.9-0.6,1.5-0.5
			C183.7,193.8,183.5,194.3,183.1,194.7z"/>
		<line class="st8" x1="174.6" y1="192.3" x2="176.3" y2="192.8"/>
		<line class="st8" x1="173.6" y1="193.2" x2="175.4" y2="193.7"/>
		<polyline class="st8" points="183.8,180.5 184.1,180.8 184.9,181.6 185.6,182.4 186.4,183.2 187.2,184 187.4,184.2 		"/>
		<polyline class="st8" points="182.6,180.7 183.4,181.5 184.2,182.3 184.9,183.1 185.7,183.9 186.5,184.7 187.2,185.4 		"/>
		<polyline class="st8" points="181.6,181.2 182.7,182.2 183.5,183 184.2,183.8 185,184.6 185.8,185.4 186.8,186.3 		"/>
		<polyline class="st8" points="180.8,181.8 181.9,182.9 182.8,183.8 183.5,184.5 184.3,185.3 185.1,186.1 186.1,187.1 		"/>
		<polyline class="st8" points="180.2,182.6 181.2,183.6 182.1,184.5 182.8,185.2 183.6,186 184.4,186.8 185.4,187.8 		"/>
		<polyline class="st8" points="179.7,183.5 180.5,184.3 181.4,185.2 182.1,185.9 182.9,186.7 183.7,187.5 184.4,188.2 		"/>
		<polyline class="st8" points="179.5,184.7 179.8,185 180.7,185.9 181.4,186.6 182.2,187.4 183,188.2 183.3,188.5 		"/>
		
			<ellipse transform="matrix(0.7071 0.7071 -0.7071 0.7071 184.1985 -75.6671)" class="st8" cx="183.4" cy="184.5" rx="3.9" ry="4.3"/>
		<polyline class="st8" points="180.5,187.5 181.4,186.6 182.1,185.9 182.8,185.2 183.5,184.5 184.2,183.8 184.9,183.1 185.6,182.4 
			186.4,181.6 		"/>
		<polyline class="st8" points="181.4,188.2 182.2,187.4 182.9,186.7 183.6,186 184.3,185.3 185,184.6 185.7,183.9 186.4,183.2 
			187.1,182.5 		"/>
		<polyline class="st8" points="182.7,188.5 183,188.2 183.7,187.5 184.4,186.8 185.1,186.1 185.8,185.4 186.5,184.7 187.2,184 
			187.4,183.8 		"/>
		<polyline class="st8" points="179.5,185.4 179.8,185 180.5,184.3 181.2,183.6 181.9,182.9 182.7,182.2 183.4,181.5 184.1,180.8 
			184.3,180.6 		"/>
		<polyline class="st8" points="179.9,186.7 180.7,185.9 181.4,185.2 182.1,184.5 182.8,183.8 183.5,183 184.2,182.3 184.9,181.6 
			185.6,181 		"/>
	</g>
	<g>
		<path class="st8" d="M161.7,137.3c0,1.7-1.3,1.5-1.3,1.5h-4.8c-1.1,0-2.1-0.4-2.9-1.2l-3.8-3.7v5.2h-1.2l-0.7-5.4
			c-0.7-4.7,2.3-5.1,2.3-5.1l6.3,7.5l0,0l1.7-0.8L161.7,137.3z"/>
		<line class="st8" x1="148.8" y1="133.9" x2="147" y2="133.9"/>
	</g>
	<g>
		<path class="st8" d="M158.4,112.5h-12.6c-0.5,0-1-0.8-1-1.7h13.6"/>
		<path class="st8" d="M158.4,109.5h-10.4c-0.4,0-0.8-0.3-0.8-0.8v-7.3c0-0.4,0.3-0.8,0.8-0.8h11.6c0.4,0,0.8,0.3,0.8,0.8v4"/>
		<path class="st8" d="M158.4,110.8h-11.2c-0.8,0-1.4-0.6-1.4-1.4v-8.7c0-0.8,0.6-1.4,1.4-1.4h13c0.8,0,1.4,0.6,1.4,1.4v4.7"/>
		<path class="st8" d="M163,114.7h-3.9c-0.4,0-0.7-0.3-0.7-0.7v-7.8c0-0.4,0.3-0.7,0.7-0.7h3.9c0.4,0,0.7,0.3,0.7,0.7v7.8
			C163.8,114.4,163.4,114.7,163,114.7z"/>
		<circle class="st8" cx="161.1" cy="113.5" r="0.5"/>
		<rect x="159.2" y="106.5" class="st8" width="3.7" height="5.4"/>
	</g>
	<g>
		<polyline class="st8" points="156.1,157.7 156.1,153.3 151.8,153.3 151.8,157.5 		"/>
		<polyline class="st8" points="155.7,164.6 156.1,164.6 156.1,168.5 151.8,168.5 151.8,164.6 151.9,164.6 		"/>
		<circle class="st8" cx="153.8" cy="161.1" r="4.1"/>
		<circle class="st8" cx="153.8" cy="161.1" r="3"/>
		<rect x="157.6" y="162.3" transform="matrix(0.9191 0.3939 -0.3939 0.9191 76.8986 -49.1325)" class="st8" width="1" height="1"/>
		
			<rect x="157.6" y="158.9" transform="matrix(-0.9191 0.394 -0.394 -0.9191 366.1551 243.5985)" class="st8" width="1" height="1"/>
		<polyline class="st8" points="153.8,159.1 153.8,161.1 155.7,161.1 		"/>
		<circle class="st9" cx="153.8" cy="161.1" r="0.7"/>
		<line class="st8" x1="151.8" y1="156" x2="155.8" y2="156"/>
		<line class="st8" x1="151.8" y1="154.7" x2="155.8" y2="154.7"/>
		<line class="st8" x1="151.9" y1="167.3" x2="155.9" y2="167.3"/>
		<line class="st8" x1="151.9" y1="166" x2="155.9" y2="166"/>
	</g>
	<g>
		<circle class="st8" cx="179.2" cy="161.9" r="6.5"/>
		<circle class="st8" cx="179.2" cy="161.9" r="4.9"/>
		<polyline class="st8" points="183,153.9 185.8,153.4 188.1,155.8 188.1,158.1 184.9,158.7 		"/>
		<line class="st8" x1="183.2" y1="154" x2="188.1" y2="158.1"/>
		<polyline class="st8" points="185.8,153.4 185.6,156 188.1,155.8 		"/>
		<line class="st8" x1="183" y1="153.9" x2="183" y2="156.5"/>
		<line class="st8" x1="183.7" y1="157.1" x2="184.4" y2="155"/>
		<line class="st8" x1="184.1" y1="157.5" x2="185.6" y2="156"/>
		<line class="st8" x1="184.5" y1="158.1" x2="186.9" y2="157.1"/>
	</g>
	<g>
		<path class="st8" d="M147,210.6v-2.7c0-0.9,0.7-1.7,1.7-1.7h11.7c0.9,0,1.7,0.7,1.7,1.7v2.8"/>
		<rect x="148.3" y="212.8" class="st8" width="12" height="1.7"/>
		<path class="st8" d="M148.2,212.8v-0.7c0-0.7-0.5-1.4-1.2-1.5c-0.1,0-0.2,0-0.3,0c-0.8,0-1.5,0.7-1.5,1.5v2.4v3.7"/>
		<path class="st8" d="M160.2,212.8v-0.7c0-0.8,0.7-1.5,1.5-1.5c0.1,0,0.2,0,0.3,0c0.7,0.1,1.2,0.7,1.2,1.5v2.4"/>
		<circle class="st8" cx="152" cy="209.5" r="0.6"/>
		<circle class="st8" cx="157" cy="209.5" r="0.6"/>
		<path class="st8" d="M146.9,218.2l-0.6,1.6c0,0,0,0,0,0c-0.1,0.5,0.5,0.8,0.9,0.4l2.1-2H146.9z"/>
		<path class="st8" d="M161.6,218.2l0.6,1.6c0,0,0,0,0,0c0.1,0.5-0.5,0.8-0.9,0.4l-2.1-2H161.6z"/>
		<rect x="148.2" y="212.8" class="st8" width="12" height="1.7"/>
		<rect x="145.3" y="214.5" class="st8" width="18" height="3.7"/>
	</g>
	<g>
		<path class="st8" d="M177.7,222.2h-0.2c-1.2,0-2.3-1-2.3-2.3v-4.9c0-1.2,1-2.3,2.3-2.3h0.2c1.2,0,2.3,1,2.3,2.3v4.9
			C179.9,221.2,178.9,222.2,177.7,222.2z"/>
		<path class="st8" d="M184.2,222.2h-5.6c-1.1,0-2-0.9-2-2v-0.2c0-1.1,0.9-2,2-2h5.6c1.1,0,2,0.9,2,2v0.2
			C186.1,221.3,185.2,222.2,184.2,222.2z"/>
		<rect x="175.3" y="215.3" class="st8" width="4.6" height="0.9"/>
		<line class="st8" x1="178.9" y1="212.6" x2="178.9" y2="209.2"/>
		<line class="st8" x1="176.1" y1="212.6" x2="176.1" y2="207.4"/>
		
			<ellipse transform="matrix(0.7412 -0.6713 0.6713 0.7412 -93.7009 172.9687)" class="st8" cx="177.5" cy="208" rx="0.9" ry="1.9"/>
		<ellipse class="st8" cx="178.3" cy="220.2" rx="1.1" ry="1.4"/>
	</g>
	<g>
		<g>
			<path class="st8" d="M159.4,191c0.5-0.7,1-1.5,1.2-2.4c0.1-0.5,0.2-1,0.2-1.5c0-0.5-0.1-1-0.2-1.5c-0.2-1-0.7-1.8-1.3-2.6
				c-0.2-0.2-0.4-0.4-0.6-0.6c-0.2-0.2-0.4-0.3-0.6-0.5c-0.4-0.3-0.8-0.5-1.3-0.7c-0.7-0.3-1.6-0.5-2.4-0.5c-0.2,0-0.5,0-0.7,0
				c-0.3,0-0.5,0.1-0.8,0.1c-0.3,0.1-0.6,0.2-0.8,0.3c-2,0.8-3.5,2.5-3.9,4.7c-0.1,0.4-0.1,0.8-0.1,1.3c0,0.5,0.1,1,0.2,1.5
				c0.7,2.8,3.2,4.8,6.2,4.8c1,0,1.9-0.2,2.7-0.6"/>
			<polygon class="st8" points="154.4,185.7 154.4,187.7 155.8,187.7 			"/>
			<circle class="st9" cx="152.5" cy="186.7" r="0.8"/>
			<circle class="st9" cx="157.1" cy="186.7" r="0.8"/>
			<path class="st8" d="M153.2,181.6"/>
			<path class="st8" d="M157.2,179.7c0.1,0.7-0.1,1.3-0.6,1.9c-0.8,0.9-2,1.2-3.1,0.8"/>
			<path class="st8" d="M148.3,188.6c-0.2,0.2-0.5,0.2-0.8,0.2c-0.9,0-1.6-0.7-1.6-1.6c0-0.9,0.7-1.6,1.6-1.6c0.3,0,0.5,0.1,0.8,0.2
				"/>
			<line class="st8" x1="146.5" y1="186.9" x2="147.4" y2="186.9"/>
			<line class="st8" x1="147" y1="186.9" x2="147" y2="187.7"/>
			<path class="st8" d="M160.6,185.6c0.2-0.1,0.4-0.1,0.6-0.1c0.9,0,1.6,0.7,1.6,1.6c0,0.9-0.7,1.6-1.6,1.6c-0.2,0-0.4,0-0.6-0.1"/>
			<line class="st8" x1="162.1" y1="186.7" x2="161.2" y2="186.7"/>
			<line class="st8" x1="161.6" y1="186.8" x2="161.6" y2="187.6"/>
		</g>
		<path class="st8" d="M161.1,194.6L161.1,194.6c-0.6,0.6-1.5,0.6-2.1,0.1l-1.7-1.7c-0.6-0.6-0.6-1.5,0-2l0.1-0.1
			c0.6-0.6,1.5-0.6,2,0l1.7,1.7C161.6,193.2,161.6,194.1,161.1,194.6z"/>
		<path class="st8" d="M157.7,189.6L157.7,189.6l-0.3-0.2c-0.2-0.2-0.5-0.2-0.7,0l-0.2,0.2l-0.4-0.4c-0.1-0.1-0.4-0.1-0.5,0
			c-0.1,0.1-0.1,0.4,0,0.5l0.4,0.4l-0.2,0.2c-0.2,0.2-0.2,0.5,0,0.7l0.2,0.2l-0.1,0.1c-0.1,0.1-0.1,0.3,0,0.5c0.1,0.1,0.3,0.1,0.5,0
			l0.4-0.4l0.9-0.9l0.4-0.4c0.1-0.1,0.1-0.3,0-0.5S157.9,189.5,157.7,189.6z"/>
		<line class="st8" x1="159.3" y1="190.8" x2="158.3" y2="191.8"/>
		<line class="st8" x1="159.7" y1="191.3" x2="158.7" y2="192.4"/>
		<line class="st8" x1="160.1" y1="191.8" x2="159.1" y2="192.9"/>
	</g>
	<path class="st8" d="M185.5,115l-2.7-9.5c0,0,1.7-1,1-3.1h-0.7l-0.5-3h-1v1.6c0,0.6-0.5,1.2-1.2,1.2c-0.6,0-1.2-0.5-1.2-1.2v-1.6
		h-1l-0.5,3h-0.6c0,0-0.2,2.6,1,3.1l-2.7,9.5H185.5z"/>
</g>
<g>
	<line class="st10" x1="247.4" y1="68.9" x2="3.3" y2="68.9"/>
	<circle class="st3" cx="7.7" cy="68.9" r="7.3"/>
</g>
<g>
	<polyline class="st10" points="381.3,127.7 543.5,127.7 543.5,160.1 	"/>
	<circle class="st3" cx="543.5" cy="160.1" r="7.3"/>
</g>
<g>
	<line class="st10" x1="142.6" y1="163.5" x2="2.9" y2="163.5"/>
	<circle class="st3" cx="7.3" cy="163.5" r="7.3"/>
</g>
</svg>