<!-- Generator: Adobe Illustrator 19.0.0, SVG Export Plug-In  -->
<svg version="1.1"
	 xmlns="http://www.w3.org/2000/svg" xmlns:xlink="http://www.w3.org/1999/xlink" xmlns:a="http://ns.adobe.com/AdobeSVGViewerExtensions/3.0/"
	 x="0px" y="0px" width="236.3px" height="230.5px" viewBox="0 0 236.3 230.5" style="enable-background:new 0 0 236.3 230.5;"
	 xml:space="preserve">
<style type="text/css">
	.st0{fill:#E3E3E3;stroke:#E3E3E3;stroke-width:0.9456;stroke-miterlimit:10;}
	.st1{fill:#3F3F3F;}
	.st2{fill:#33CCCC;}
	.st3{fill:none;stroke:#33CCCC;stroke-width:1.4;stroke-miterlimit:10;}
	.st4{fill:none;stroke:#33CCCC;stroke-width:0.7108;stroke-miterlimit:10;}
</style>
<defs>
</defs>
<rect x="0.5" y="0.5" class="st0" width="235.4" height="229.5"/>
<g>
	<g>
		<path class="st1" d="M88.6,136.2c0,2.3-0.5,4.1-1.6,5.4c-1.1,1.3-2.5,2-4.5,2c-1.9,0-3.4-0.6-4.5-1.9c-1.1-1.3-1.6-3.1-1.6-5.4
			c0-2.3,0.5-4.1,1.6-5.4c1.1-1.3,2.6-1.9,4.5-1.9c1.9,0,3.4,0.6,4.4,1.9C88.1,132.1,88.6,133.9,88.6,136.2z M78.2,136.2
			c0,1.9,0.4,3.3,1.1,4.3c0.7,1,1.8,1.5,3.2,1.5c1.4,0,2.5-0.5,3.2-1.5c0.7-1,1.1-2.4,1.1-4.3c0-1.9-0.4-3.3-1.1-4.3
			c-0.7-1-1.8-1.5-3.2-1.5c-1.4,0-2.5,0.5-3.2,1.5C78.6,132.9,78.2,134.4,78.2,136.2z"/>
		<path class="st1" d="M93.4,143.4l-3.7-10.7h1.7l2.1,6.3c0.4,1.3,0.7,2.2,0.8,2.8h0.1c0-0.1,0-0.2,0.1-0.3c0-0.1,0.1-0.2,0.1-0.4
			s0.3-0.9,0.7-2.2l2.1-6.3H99l-3.7,10.7H93.4z"/>
		<path class="st1" d="M104.8,143.6c-1.5,0-2.6-0.5-3.5-1.5c-0.8-1-1.3-2.3-1.3-4c0-1.7,0.4-3.1,1.2-4.1c0.8-1,1.8-1.5,3.2-1.5
			c1.2,0,2.2,0.4,3,1.3c0.7,0.9,1.1,2,1.1,3.5v1.1h-6.8c0,1.2,0.3,2.1,0.9,2.8s1.3,0.9,2.3,0.9c0.5,0,1-0.1,1.5-0.2
			c0.5-0.1,1-0.3,1.7-0.6v1.5c-0.5,0.3-1.1,0.4-1.5,0.5C106,143.5,105.5,143.6,104.8,143.6z M104.4,133.9c-0.8,0-1.4,0.3-1.8,0.8
			c-0.4,0.5-0.7,1.3-0.8,2.3h5c0-1-0.2-1.8-0.6-2.3C105.7,134.2,105.2,133.9,104.4,133.9z"/>
		<path class="st1" d="M115.6,132.5c0.4,0,0.8,0,1.2,0.1l-0.2,1.6c-0.4-0.1-0.7-0.1-1.1-0.1c-0.5,0-1,0.2-1.4,0.5
			c-0.4,0.3-0.8,0.7-1,1.3s-0.4,1.2-0.4,1.8v5.7H111v-10.7h1.3l0.2,2h0.1c0.4-0.7,0.8-1.2,1.3-1.6S115,132.5,115.6,132.5z"/>
		<path class="st2" d="M133.8,143.4h-4.4v-12l0-2l0.1-2.2c-0.7,0.7-1.2,1.2-1.5,1.4l-2.4,1.9l-2.1-2.6l6.7-5.3h3.6V143.4z"/>
		<path class="st2" d="M147.1,130.2c2,0,3.6,0.6,4.8,1.7c1.2,1.1,1.8,2.7,1.8,4.6c0,2.3-0.7,4.1-2.1,5.3c-1.4,1.2-3.5,1.9-6.1,1.9
			c-2.3,0-4.2-0.4-5.6-1.1v-3.8c0.7,0.4,1.6,0.7,2.6,1c1,0.3,1.9,0.4,2.8,0.4c2.7,0,4-1.1,4-3.3c0-2.1-1.4-3.1-4.1-3.1
			c-0.5,0-1.1,0-1.7,0.1c-0.6,0.1-1.1,0.2-1.5,0.3l-1.7-0.9l0.8-10.5h11.2v3.7h-7.4l-0.4,4.1l0.5-0.1
			C145.5,130.2,146.2,130.2,147.1,130.2z"/>
		<path class="st2" d="M170.5,133c0,3.6-0.6,6.3-1.8,8c-1.2,1.7-3,2.6-5.5,2.6c-2.4,0-4.2-0.9-5.4-2.7c-1.2-1.8-1.8-4.4-1.8-7.9
			c0-3.7,0.6-6.3,1.8-8.1c1.2-1.7,3-2.6,5.5-2.6c2.4,0,4.2,0.9,5.4,2.7C169.9,126.9,170.5,129.6,170.5,133z M160.3,133
			c0,2.5,0.2,4.4,0.7,5.5c0.4,1.1,1.2,1.6,2.2,1.6c1,0,1.8-0.6,2.2-1.7s0.7-2.9,0.7-5.4c0-2.5-0.2-4.4-0.7-5.5
			c-0.5-1.1-1.2-1.7-2.2-1.7c-1,0-1.8,0.6-2.2,1.7C160.6,128.7,160.3,130.5,160.3,133z"/>
		<path class="st1" d="M72.5,164.4v-6.9c0-1.7-0.7-2.5-2-2.5c-0.9,0-1.6,0.3-2,0.9c-0.4,0.6-0.6,1.5-0.6,2.7v5.9h-1.6v-6.9
			c0-0.8-0.2-1.5-0.5-1.9s-0.8-0.6-1.5-0.6c-0.9,0-1.6,0.3-2,0.9s-0.6,1.6-0.6,3v5.6H60v-10.7h1.3l0.2,1.5h0.1
			c0.3-0.5,0.7-0.9,1.2-1.2c0.5-0.3,1.1-0.4,1.7-0.4c1.5,0,2.5,0.6,3,1.8h0.1c0.3-0.6,0.7-1,1.3-1.3c0.5-0.3,1.2-0.5,1.9-0.5
			c1.1,0,1.9,0.3,2.5,0.9c0.6,0.6,0.8,1.6,0.8,3v7H72.5z"/>
		<path class="st1" d="M81.4,164.6c-1.5,0-2.6-0.5-3.5-1.5c-0.8-1-1.3-2.3-1.3-4c0-1.7,0.4-3.1,1.2-4.1c0.8-1,1.8-1.5,3.2-1.5
			c1.2,0,2.2,0.4,3,1.3c0.7,0.9,1.1,2,1.1,3.5v1.1h-6.8c0,1.2,0.3,2.1,0.9,2.8s1.3,0.9,2.3,0.9c0.5,0,1-0.1,1.5-0.2
			c0.5-0.1,1-0.3,1.7-0.6v1.5c-0.5,0.3-1.1,0.4-1.5,0.5C82.6,164.5,82,164.6,81.4,164.6z M81,154.9c-0.8,0-1.4,0.3-1.8,0.8
			c-0.4,0.5-0.7,1.3-0.8,2.3h5c0-1-0.2-1.8-0.6-2.3C82.3,155.2,81.7,154.9,81,154.9z"/>
		<path class="st1" d="M92.1,153.5c0.4,0,0.8,0,1.2,0.1l-0.2,1.6c-0.4-0.1-0.7-0.1-1.1-0.1c-0.5,0-1,0.2-1.4,0.5
			c-0.4,0.3-0.8,0.7-1,1.3s-0.4,1.2-0.4,1.8v5.7h-1.6v-10.7h1.3l0.2,2h0.1c0.4-0.7,0.8-1.2,1.3-1.6S91.5,153.5,92.1,153.5z"/>
		<path class="st1" d="M98.9,164.6c-1.4,0-2.5-0.5-3.3-1.4c-0.8-0.9-1.2-2.3-1.2-4.1c0-1.8,0.4-3.2,1.2-4.2c0.8-1,1.9-1.5,3.4-1.5
			c0.5,0,1,0.1,1.4,0.2c0.5,0.1,0.9,0.2,1.2,0.4l-0.5,1.5c-0.8-0.3-1.5-0.5-2.1-0.5c-1,0-1.7,0.3-2.2,1c-0.5,0.7-0.7,1.7-0.7,3
			c0,1.3,0.2,2.3,0.7,3c0.5,0.7,1.2,1,2.1,1c0.9,0,1.7-0.2,2.6-0.6v1.6C100.8,164.4,99.9,164.6,98.9,164.6z"/>
		<path class="st1" d="M110.5,164.4v-6.9c0-0.9-0.2-1.5-0.5-1.9c-0.4-0.4-0.9-0.6-1.7-0.6c-1,0-1.7,0.3-2.2,0.9
			c-0.5,0.6-0.7,1.6-0.7,3v5.5h-1.6v-15.2h1.6v4.5c0,0.6,0,1.1-0.1,1.5h0.1c0.3-0.5,0.7-0.9,1.2-1.2s1.1-0.4,1.8-0.4
			c1.2,0,2.1,0.3,2.7,0.9s0.9,1.6,0.9,3v7H110.5z"/>
		<path class="st1" d="M121.2,164.4l-0.3-1.5h-0.1c-0.5,0.7-1,1.1-1.5,1.4c-0.5,0.2-1.1,0.4-1.8,0.4c-1,0-1.7-0.3-2.3-0.8
			c-0.6-0.6-0.8-1.3-0.8-2.3c0-2.2,1.6-3.3,4.7-3.4l1.7-0.1v-0.6c0-0.8-0.2-1.4-0.5-1.8c-0.3-0.4-0.8-0.6-1.6-0.6
			c-0.5,0-1,0.1-1.5,0.3c-0.5,0.2-0.9,0.4-1.3,0.6l-0.5-1.3c0.5-0.3,1-0.5,1.6-0.7c0.6-0.2,1.2-0.2,1.7-0.2c1.2,0,2.1,0.3,2.7,0.9
			s0.9,1.5,0.9,2.7v7.3H121.2z M117.9,163.2c0.9,0,1.6-0.3,2.1-0.8c0.5-0.5,0.8-1.3,0.8-2.3v-1l-1.5,0.1c-1.1,0-2,0.2-2.5,0.6
			c-0.5,0.3-0.8,0.9-0.8,1.6c0,0.6,0.2,1,0.5,1.3S117.3,163.2,117.9,163.2z"/>
		<path class="st1" d="M132.2,164.4v-6.9c0-0.9-0.2-1.5-0.5-1.9c-0.4-0.4-0.9-0.6-1.7-0.6c-1,0-1.7,0.3-2.2,0.9
			c-0.5,0.6-0.7,1.6-0.7,3v5.6h-1.6v-10.7h1.3l0.2,1.5h0.1c0.3-0.5,0.7-0.9,1.3-1.2c0.6-0.3,1.2-0.4,1.8-0.4c1.2,0,2.1,0.3,2.7,1
			c0.6,0.6,0.9,1.6,0.9,3v7H132.2z"/>
		<path class="st1" d="M140.1,163.2c0.2,0,0.5,0,0.7-0.1s0.5-0.1,0.6-0.2v1.3c-0.1,0.1-0.4,0.1-0.7,0.2c-0.3,0.1-0.6,0.1-1,0.1
			c-1.9,0-2.9-1.1-2.9-3.3V155h-1.4v-0.8l1.4-0.7l0.6-2.3h1v2.5h2.8v1.4h-2.8v6.2c0,0.6,0.1,1.1,0.4,1.4
			C139.3,163,139.6,163.2,140.1,163.2z"/>
		<path class="st1" d="M149.9,161.4c0,1-0.3,1.8-1,2.3c-0.7,0.6-1.7,0.8-2.9,0.8c-1.3,0-2.3-0.2-3.1-0.7v-1.6
			c1.1,0.6,2.1,0.9,3.1,0.9c0.8,0,1.4-0.1,1.8-0.4c0.4-0.3,0.6-0.7,0.6-1.2c0-0.4-0.2-0.8-0.5-1.1c-0.4-0.3-1-0.6-1.9-1
			c-0.9-0.4-1.6-0.7-2-1c-0.4-0.3-0.7-0.6-0.8-0.9c-0.2-0.3-0.3-0.8-0.3-1.3c0-0.9,0.3-1.6,1-2.1c0.7-0.5,1.6-0.8,2.7-0.8
			c1.1,0,2.2,0.2,3.1,0.7l-0.5,1.4c-1-0.5-1.9-0.7-2.7-0.7c-0.7,0-1.2,0.1-1.5,0.3c-0.3,0.2-0.5,0.5-0.5,1c0,0.4,0.1,0.7,0.4,1
			s1,0.6,2.1,1.1c0.8,0.3,1.4,0.6,1.8,0.9c0.4,0.3,0.7,0.6,0.9,1C149.8,160.5,149.9,160.9,149.9,161.4z"/>
		<path class="st1" d="M163.1,164.4l-0.3-1.5h-0.1c-0.5,0.7-1,1.1-1.5,1.4c-0.5,0.2-1.1,0.4-1.8,0.4c-1,0-1.7-0.3-2.3-0.8
			c-0.6-0.6-0.8-1.3-0.8-2.3c0-2.2,1.6-3.3,4.7-3.4l1.7-0.1v-0.6c0-0.8-0.2-1.4-0.5-1.8c-0.3-0.4-0.8-0.6-1.6-0.6
			c-0.5,0-1,0.1-1.5,0.3c-0.5,0.2-0.9,0.4-1.3,0.6l-0.5-1.3c0.5-0.3,1-0.5,1.6-0.7c0.6-0.2,1.2-0.2,1.7-0.2c1.2,0,2.1,0.3,2.7,0.9
			s0.9,1.5,0.9,2.7v7.3H163.1z M159.8,163.2c0.9,0,1.6-0.3,2.1-0.8c0.5-0.5,0.8-1.3,0.8-2.3v-1l-1.5,0.1c-1.1,0-2,0.2-2.5,0.6
			c-0.5,0.3-0.8,0.9-0.8,1.6c0,0.6,0.2,1,0.5,1.3S159.2,163.2,159.8,163.2z"/>
		<path class="st1" d="M174.1,164.4v-6.9c0-0.9-0.2-1.5-0.5-1.9c-0.4-0.4-0.9-0.6-1.7-0.6c-1,0-1.7,0.3-2.2,0.9
			c-0.5,0.6-0.7,1.6-0.7,3v5.6h-1.6v-10.7h1.3l0.2,1.5h0.1c0.3-0.5,0.7-0.9,1.3-1.2s1.2-0.4,1.8-0.4c1.2,0,2.1,0.3,2.7,1
			c0.6,0.6,0.9,1.6,0.9,3v7H174.1z"/>
		<path class="st1" d="M182.2,164.6c-1.3,0-2.3-0.5-3-1.4c-0.7-1-1.1-2.3-1.1-4.1c0-1.8,0.4-3.1,1.1-4.1s1.7-1.5,3-1.5
			c1.3,0,2.3,0.5,3.1,1.6h0.1c0-0.1,0-0.4-0.1-0.8c0-0.4,0-0.7,0-0.8v-4.3h1.6v15.2h-1.3l-0.2-1.4h-0.1
			C184.6,164,183.6,164.6,182.2,164.6z M182.5,163.1c1,0,1.7-0.3,2.1-0.9c0.5-0.6,0.7-1.5,0.7-2.9v-0.3c0-1.5-0.2-2.6-0.7-3.2
			s-1.2-1-2.2-1c-0.8,0-1.5,0.4-1.9,1.1c-0.5,0.7-0.7,1.7-0.7,3.1c0,1.3,0.2,2.3,0.7,3C181,162.8,181.6,163.1,182.5,163.1z"/>
		<path class="st1" d="M61.9,174.5c0.4,0,0.8,0,1.2,0.1l-0.2,1.6c-0.4-0.1-0.7-0.1-1.1-0.1c-0.5,0-1,0.2-1.4,0.5
			c-0.4,0.3-0.8,0.7-1,1.3s-0.4,1.2-0.4,1.8v5.7h-1.6v-10.7h1.3l0.2,2h0.1c0.4-0.7,0.8-1.2,1.3-1.6S61.2,174.5,61.9,174.5z"/>
		<path class="st1" d="M70.8,185.4l-0.3-1.5h-0.1c-0.5,0.7-1,1.1-1.5,1.4c-0.5,0.2-1.1,0.4-1.8,0.4c-1,0-1.7-0.3-2.3-0.8
			c-0.6-0.6-0.8-1.3-0.8-2.3c0-2.2,1.6-3.3,4.7-3.4l1.7-0.1v-0.6c0-0.8-0.2-1.4-0.5-1.8c-0.3-0.4-0.8-0.6-1.6-0.6
			c-0.5,0-1,0.1-1.5,0.3c-0.5,0.2-0.9,0.4-1.3,0.6l-0.5-1.3c0.5-0.3,1-0.5,1.6-0.7c0.6-0.2,1.2-0.2,1.7-0.2c1.2,0,2.1,0.3,2.7,0.9
			s0.9,1.5,0.9,2.7v7.3H70.8z M67.4,184.2c0.9,0,1.6-0.3,2.1-0.8c0.5-0.5,0.8-1.3,0.8-2.3v-1l-1.5,0.1c-1.1,0-2,0.2-2.5,0.6
			c-0.5,0.3-0.8,0.9-0.8,1.6c0,0.6,0.2,1,0.5,1.3S66.9,184.2,67.4,184.2z"/>
		<path class="st1" d="M79.7,185.6c-1.3,0-2.3-0.5-3.1-1.6h-0.1l0,0.4c0,0.5,0.1,1,0.1,1.4v4.4H75v-15.5h1.3l0.2,1.5h0.1
			c0.4-0.6,0.8-1,1.3-1.3s1.1-0.4,1.7-0.4c1.3,0,2.3,0.5,3,1.5s1.1,2.3,1.1,4.1c0,1.8-0.4,3.1-1.1,4.1
			C81.9,185.1,80.9,185.6,79.7,185.6z M79.4,176c-1,0-1.7,0.3-2.1,0.9s-0.7,1.5-0.7,2.8v0.3c0,1.5,0.2,2.5,0.7,3.1
			c0.4,0.6,1.2,1,2.2,1c0.8,0,1.5-0.4,1.9-1.1c0.5-0.7,0.7-1.7,0.7-3c0-1.3-0.2-2.3-0.7-3C80.9,176.3,80.2,176,79.4,176z"/>
		<path class="st1" d="M86.2,171.8c0-0.4,0.1-0.7,0.3-0.8c0.2-0.2,0.4-0.3,0.7-0.3c0.3,0,0.5,0.1,0.7,0.3s0.3,0.5,0.3,0.8
			c0,0.4-0.1,0.7-0.3,0.8s-0.4,0.3-0.7,0.3c-0.3,0-0.5-0.1-0.7-0.3C86.3,172.4,86.2,172.2,86.2,171.8z M87.9,185.4h-1.6v-10.7h1.6
			V185.4z"/>
		<path class="st1" d="M94.5,185.6c-1.3,0-2.3-0.5-3-1.4c-0.7-1-1.1-2.3-1.1-4.1c0-1.8,0.4-3.1,1.1-4.1s1.7-1.5,3-1.5
			c1.3,0,2.3,0.5,3.1,1.6h0.1c0-0.1,0-0.4-0.1-0.8c0-0.4,0-0.7,0-0.8v-4.3h1.6v15.2h-1.3l-0.2-1.4h-0.1
			C96.9,185,95.9,185.6,94.5,185.6z M94.8,184.1c1,0,1.7-0.3,2.1-0.9c0.5-0.6,0.7-1.5,0.7-2.9v-0.3c0-1.5-0.2-2.6-0.7-3.2
			s-1.2-1-2.2-1c-0.8,0-1.5,0.4-1.9,1.1c-0.5,0.7-0.7,1.7-0.7,3.1c0,1.3,0.2,2.3,0.7,3C93.3,183.8,93.9,184.1,94.8,184.1z"/>
		<path class="st1" d="M104,185.4h-1.6v-15.2h1.6V185.4z"/>
		<path class="st1" d="M105.5,174.7h1.7l2.1,6.1c0.4,1.3,0.7,2.3,0.8,2.9h0.1c0.1-0.2,0.2-0.7,0.4-1.4c0.2-0.7,0.4-1.2,0.5-1.6
			l2-6.1h1.7l-4.2,12.2c-0.4,1.2-0.9,2-1.5,2.5c-0.6,0.5-1.3,0.8-2.1,0.8c-0.4,0-0.9-0.1-1.3-0.2v-1.4c0.3,0.1,0.7,0.1,1.1,0.1
			c0.5,0,1-0.2,1.3-0.5c0.4-0.3,0.7-0.8,0.9-1.4l0.5-1.4L105.5,174.7z"/>
		<path class="st1" d="M127.8,185.3l0.1-1.3h-0.1c-0.7,1.1-1.7,1.6-3.1,1.6c-1.3,0-2.3-0.5-3-1.5c-0.7-1-1.1-2.3-1.1-4.1
			c0-1.7,0.4-3.1,1.1-4.1c0.7-1,1.7-1.5,3-1.5c1.3,0,2.4,0.5,3.1,1.6h0.1l0.2-1.4h1.3v10.9c0,1.5-0.4,2.7-1.1,3.5
			c-0.7,0.8-1.8,1.2-3.3,1.2c-1.4,0-2.6-0.2-3.5-0.7v-1.6c1,0.6,2.2,0.8,3.6,0.8c0.8,0,1.5-0.3,2-0.8c0.5-0.5,0.7-1.3,0.7-2.2V185.3
			z M125,184.2c1,0,1.7-0.3,2.2-0.9c0.5-0.6,0.7-1.5,0.7-2.8v-0.4c0-1.4-0.2-2.5-0.7-3.1c-0.5-0.7-1.2-1-2.2-1
			c-0.8,0-1.5,0.4-1.9,1.1c-0.5,0.7-0.7,1.7-0.7,3.1c0,1.3,0.2,2.3,0.7,3S124.1,184.2,125,184.2z"/>
		<path class="st1" d="M137.1,174.5c0.4,0,0.8,0,1.2,0.1l-0.2,1.6c-0.4-0.1-0.7-0.1-1.1-0.1c-0.5,0-1,0.2-1.4,0.5
			c-0.4,0.3-0.8,0.7-1,1.3s-0.4,1.2-0.4,1.8v5.7h-1.6v-10.7h1.3l0.2,2h0.1c0.4-0.7,0.8-1.2,1.3-1.6S136.5,174.5,137.1,174.5z"/>
		<path class="st1" d="M148.5,180c0,1.8-0.4,3.1-1.2,4.1c-0.8,1-1.9,1.5-3.4,1.5c-0.9,0-1.7-0.2-2.4-0.7c-0.7-0.5-1.2-1.1-1.6-1.9
			c-0.4-0.8-0.6-1.8-0.6-2.9c0-1.7,0.4-3.1,1.2-4.1s1.9-1.5,3.4-1.5c1.4,0,2.5,0.5,3.3,1.5S148.5,178.3,148.5,180z M141.1,180
			c0,1.3,0.2,2.4,0.7,3.1c0.5,0.7,1.2,1,2.2,1c0.9,0,1.7-0.4,2.1-1c0.5-0.7,0.7-1.7,0.7-3.1s-0.2-2.4-0.7-3c-0.5-0.7-1.2-1-2.2-1
			C142,176,141.1,177.3,141.1,180z"/>
		<path class="st1" d="M158.9,185.4l-1.7-6c-0.2-0.5-0.4-1.4-0.7-2.8h-0.1c-0.3,1.3-0.5,2.2-0.7,2.9l-1.8,6h-1.8l-2.7-10.7h1.7
			c0.6,2.6,1.1,4.6,1.4,6c0.3,1.4,0.5,2.3,0.6,2.9h0.1l0.1-0.6c0.2-0.9,0.4-1.7,0.5-2.3l1.8-6h1.8l1.7,6c0.1,0.2,0.1,0.5,0.2,0.7
			c0.1,0.3,0.1,0.5,0.2,0.8c0.1,0.3,0.1,0.5,0.2,0.7s0.1,0.5,0.1,0.6h0.1c0.1-0.5,0.3-1.6,0.7-3.2l1.4-5.7h1.7l-2.7,10.7H158.9z"/>
		<path class="st1" d="M165.2,171.8c0-0.4,0.1-0.7,0.3-0.8c0.2-0.2,0.4-0.3,0.7-0.3c0.3,0,0.5,0.1,0.7,0.3s0.3,0.5,0.3,0.8
			c0,0.4-0.1,0.7-0.3,0.8s-0.4,0.3-0.7,0.3c-0.3,0-0.5-0.1-0.7-0.3C165.3,172.4,165.2,172.2,165.2,171.8z M167,185.4h-1.6v-10.7h1.6
			V185.4z"/>
		<path class="st1" d="M176.8,185.4v-6.9c0-0.9-0.2-1.5-0.5-1.9c-0.4-0.4-0.9-0.6-1.7-0.6c-1,0-1.7,0.3-2.2,0.9
			c-0.5,0.6-0.7,1.6-0.7,3v5.6h-1.6v-10.7h1.3l0.2,1.5h0.1c0.3-0.5,0.7-0.9,1.3-1.2s1.2-0.4,1.8-0.4c1.2,0,2.1,0.3,2.7,1
			c0.6,0.6,0.9,1.6,0.9,3v7H176.8z"/>
		<path class="st1" d="M188,185.3l0.1-1.3H188c-0.7,1.1-1.7,1.6-3.1,1.6c-1.3,0-2.3-0.5-3-1.5c-0.7-1-1.1-2.3-1.1-4.1
			c0-1.7,0.4-3.1,1.1-4.1c0.7-1,1.7-1.5,3-1.5c1.3,0,2.4,0.5,3.1,1.6h0.1l0.2-1.4h1.3v10.9c0,1.5-0.4,2.7-1.1,3.5
			c-0.7,0.8-1.8,1.2-3.3,1.2c-1.4,0-2.6-0.2-3.5-0.7v-1.6c1,0.6,2.2,0.8,3.6,0.8c0.8,0,1.5-0.3,2-0.8c0.5-0.5,0.7-1.3,0.7-2.2V185.3
			z M185.2,184.2c1,0,1.7-0.3,2.2-0.9c0.5-0.6,0.7-1.5,0.7-2.8v-0.4c0-1.4-0.2-2.5-0.7-3.1c-0.5-0.7-1.2-1-2.2-1
			c-0.8,0-1.5,0.4-1.9,1.1c-0.5,0.7-0.7,1.7-0.7,3.1c0,1.3,0.2,2.3,0.7,3S184.3,184.2,185.2,184.2z"/>
	</g>
</g>
<g>
	<rect x="107" y="57.4" class="st3" width="40" height="38.7"/>
	<rect x="111.8" y="71.5" class="st3" width="12.9" height="24.6"/>
	<circle class="st3" cx="120.8" cy="81.5" r="1.8"/>
	<polygon class="st3" points="157.2,57.4 148.7,46 135.5,45.9 135.5,45.9 127.8,45.9 120.1,45.9 120.1,45.9 107,46 98.4,57.4 
		127.8,57.3 	"/>
	<path class="st4" d="M104.9,59.3c0,1.8-1.5,3.3-3.3,3.3s-3.3-1.5-3.3-3.3v-1.9h6.5V59.3z"/>
	<path class="st4" d="M111.5,59.3c0,1.8-1.5,3.3-3.3,3.3s-3.3-1.5-3.3-3.3v-1.9h6.5V59.3z"/>
	<path class="st4" d="M118,59.3c0,1.8-1.5,3.3-3.3,3.3c-1.8,0-3.3-1.5-3.3-3.3v-1.9h6.5V59.3z"/>
	<path class="st4" d="M124.5,59.3c0,1.8-1.5,3.3-3.3,3.3s-3.3-1.5-3.3-3.3v-1.9h6.5V59.3z"/>
	<path class="st4" d="M131.1,59.3c0,1.8-1.5,3.3-3.3,3.3c-1.8,0-3.3-1.5-3.3-3.3v-1.9h6.5V59.3z"/>
	<path class="st4" d="M137.6,59.3c0,1.8-1.5,3.3-3.3,3.3c-1.8,0-3.3-1.5-3.3-3.3v-1.9h6.5V59.3z"/>
	<path class="st4" d="M144.1,59.3c0,1.8-1.5,3.3-3.3,3.3c-1.8,0-3.3-1.5-3.3-3.3v-1.9h6.5V59.3z"/>
	<path class="st4" d="M150.7,59.3c0,1.8-1.5,3.3-3.3,3.3c-1.8,0-3.3-1.5-3.3-3.3v-1.9h6.5V59.3z"/>
	<path class="st4" d="M157.2,59.3c0,1.8-1.5,3.3-3.3,3.3c-1.8,0-3.3-1.5-3.3-3.3v-1.9h6.5V59.3z"/>
</g>
</svg>