<!-- Generator: Adobe Illustrator 19.0.0, SVG Export Plug-In  -->
<svg version="1.1"
	 xmlns="http://www.w3.org/2000/svg" xmlns:xlink="http://www.w3.org/1999/xlink" xmlns:a="http://ns.adobe.com/AdobeSVGViewerExtensions/3.0/"
	 x="0px" y="0px" width="950px" height="518.8px" viewBox="0 0 950 518.8" style="enable-background:new 0 0 950 518.8;"
	 xml:space="preserve">
<style type="text/css">
	.st0{fill:#33CCCC;}
	.st1{fill:#FFFFFF;stroke:#FF6633;stroke-miterlimit:10;}
	.st2{fill:none;stroke:#FF6633;stroke-miterlimit:10;}
	.st3{fill:#33CCCC;stroke:#33CCCC;stroke-miterlimit:10;}
	.st4{fill:#FF6633;}
	.st5{fill:#FFFFFF;}
	.st6{fill:#086A87;}
	.st7{fill:#086A87;stroke:#086A87;stroke-linecap:round;stroke-linejoin:round;stroke-miterlimit:10;}
	.st8{fill:#FFFFFF;stroke:#FF6633;stroke-width:1.5;stroke-linecap:round;stroke-linejoin:round;stroke-miterlimit:10;}
	.st9{fill:#086A87;stroke:#086A87;stroke-width:1.5;stroke-linecap:round;stroke-linejoin:round;stroke-miterlimit:10;}
	.st10{fill:#CBCACC;}
	.st11{fill:none;stroke:#E6E6E6;stroke-width:1.5;stroke-miterlimit:10;}
	.st12{fill:#E6E6E6;}
</style>
<defs>
</defs>
<rect class="st0" width="950" height="518.8"/>
<rect x="416.9" y="248.4" class="st1" width="75.7" height="88.8"/>
<path class="st2" d="M427.7,260.5V254c0-10.2,8.3-18.5,18.5-18.5c10.2,0,18.5,8.3,18.5,18.5v6.6"/>
<path class="st2" d="M442.6,254c0-10.2,8.3-18.5,18.5-18.5c10.2,0,18.5,8.3,18.5,18.5"/>
<circle class="st3" cx="506.7" cy="274" r="2.7"/>
<path class="st4" d="M523.5,230.3c0,0-1.1,5.7-6.6,6.5c5.5,0.8,6.6,6.5,6.6,6.5s1.1-5.7,6.6-6.5C524.6,236,523.5,230.3,523.5,230.3z
	"/>
<g>
	<path class="st5" d="M515.6,275.7c-1.2-3.6-4.7-11.6-13.7-14c9-2.5,12.5-10.4,13.7-14c1.2,3.6,4.7,11.6,13.7,14
		C520.3,264.1,516.8,272.1,515.6,275.7z"/>
	<g>
		<path class="st4" d="M515.6,249.1c1.5,3.8,4.9,9.9,12.1,12.5c-7.2,2.6-10.6,8.8-12.1,12.5c-1.5-3.8-4.9-9.9-12.1-12.5
			C510.7,259.1,514.1,252.9,515.6,249.1 M515.6,245.7c0,0-2.6,13.9-16.1,15.9c13.5,2,16.1,15.9,16.1,15.9s2.6-13.9,16.1-15.9
			C518.2,259.7,515.6,245.7,515.6,245.7L515.6,245.7z"/>
	</g>
</g>
<g>
	<path class="st6" d="M505.5,253.4c-0.6-1.4-1.8-3.4-4.1-4.3c2.3-1,3.6-3,4.1-4.3c0.6,1.4,1.8,3.4,4.1,4.3
		C507.3,250,506.1,252,505.5,253.4z"/>
	<g>
		<path class="st6" d="M505.5,245.9c0.7,1.2,1.6,2.3,3,3.2c-1.4,0.8-2.4,2-3,3.2c-0.7-1.2-1.6-2.3-3-3.2
			C503.8,248.2,504.8,247,505.5,245.9 M505.5,243.1c0,0-1,5.2-6,5.9c5,0.7,6,5.9,6,5.9s1-5.2,6-5.9
			C506.4,248.3,505.5,243.1,505.5,243.1L505.5,243.1z"/>
	</g>
</g>
<circle class="st4" cx="427.7" cy="261.7" r="2.5"/>
<circle class="st4" cx="464.8" cy="261.7" r="2.5"/>
<rect x="474.5" y="248.4" class="st7" width="18.2" height="88.8"/>
<g>
	<path class="st8" d="M556.4,382.6c0,0-1.9,5.5-9.7,5.5c0,0-14,3.7-12.6,20.8v43.9h55.9v-70.3H556.4z"/>
	<rect x="556.4" y="345.8" class="st8" width="36.2" height="36.8"/>
	<path class="st8" d="M536.6,351c0,0,0.3,16,19.8,19c0,0,17.8-2.3,20-20.8l2.2-19.6h0c0-10.3-10-18.7-22.2-18.7s-22.2,8.4-22.2,18.7
		h0l2.5,22.3"/>
	<polygon class="st4" points="549.3,341.5 549.3,350.2 544.8,350.2 	"/>
	<path class="st9" d="M569.2,328.3c-0.9,6.2-0.6,16.8,10.9,21v18.3c0,0,0.7,13.4,9.1,15.1c8.4,1.7,9.7,12.1,9.7,21.2
		c0,9.1,0,49.1,0,49.1h27.2v-44.7c0,0-0.8-19.1-18.2-21.1c-5.4-0.6-8.8-6.2-6.8-11.2c0-0.1,0.1-0.2,0.1-0.3
		c3.3-7.7,18.7-41.2-9-50.3c-4.1-1.4-7.3-4.6-8.5-8.8c-1.7-5.8-7.2-13.1-24.4-13.1c-28.6,0-25.1,26.4-25.1,26.4s10.4,20,32.7-2.5
		C567.8,326.2,569.4,327,569.2,328.3z"/>
	<path class="st4" d="M560.4,344c0-1.8-1.5-3.3-3.3-3.3s-3.3,1.5-3.3,3.3H560.4z"/>
	<path class="st4" d="M544.8,344c0-1.8-1.5-3.3-3.3-3.3c-1.8,0-3.3,1.5-3.3,3.3H544.8z"/>
	<path class="st8" d="M560.8,346.4c0,0,1.6,11.8-12.6,10.3"/>
	<circle class="st8" cx="580.1" cy="340.5" r="5.1"/>
	<line class="st8" x1="583.8" y1="383.6" x2="583.8" y2="442.3"/>
	<line class="st8" x1="580.1" y1="383.6" x2="580.1" y2="442.3"/>
	<line class="st8" x1="576.4" y1="383.6" x2="576.4" y2="442.3"/>
	<line class="st8" x1="572.7" y1="383.6" x2="572.7" y2="442.3"/>
	<line class="st8" x1="569" y1="383.6" x2="569" y2="442.3"/>
	<line class="st8" x1="565.3" y1="383.6" x2="565.3" y2="442.3"/>
	<line class="st8" x1="561.6" y1="383.6" x2="561.6" y2="442.3"/>
	<line class="st8" x1="557.9" y1="383.6" x2="557.9" y2="442.3"/>
	<line class="st8" x1="554.2" y1="386.4" x2="554.2" y2="442.3"/>
	<line class="st8" x1="550.5" y1="388.2" x2="550.5" y2="442.3"/>
	<line class="st8" x1="546.8" y1="388.2" x2="546.8" y2="442.3"/>
	<path class="st8" d="M601.8,452.9v-51.1c0,0-1.8-19.2-13.5-19.2v59.6h-47.2c0,0-19.5-13.8-30.2,10.6H601.8z"/>
	<circle class="st8" cx="504.7" cy="362" r="7.3"/>
	<path class="st10" d="M393.4,454h153.4c3,0,5.5-2.4,5.5-5.5v-4.4H387.9v4.4C387.9,451.6,390.4,454,393.4,454z"/>
	<line class="st11" x1="511" y1="444.2" x2="511" y2="454"/>
	<path class="st12" d="M395.9,444.9h119.3c4.8,0,8.7-3.9,8.7-8.7v-74.3c0-4.8-3.9-8.7-8.7-8.7H395.9c-4.8,0-8.7,3.9-8.7,8.7v74.3
		C387.2,441,391.1,444.9,395.9,444.9z"/>
</g>
</svg>