<!-- Generator: Adobe Illustrator 19.0.0, SVG Export Plug-In  -->
<svg version="1.1"
	 xmlns="http://www.w3.org/2000/svg" xmlns:xlink="http://www.w3.org/1999/xlink" xmlns:a="http://ns.adobe.com/AdobeSVGViewerExtensions/3.0/"
	 x="0px" y="0px" width="96px" height="89.6px" viewBox="0 0 96 89.6" style="enable-background:new 0 0 96 89.6;"
	 xml:space="preserve">
<style type="text/css">
	.st0{fill:#FFFFFF;}
	.st1{fill:#33CCCC;}
	.st2{fill:#086A87;}
	.st3{fill:#FFFEFF;stroke:#086A87;stroke-width:5;stroke-miterlimit:10;}
</style>
<defs>
</defs>
<g>
	<rect class="st0" width="68.2" height="89.6"/>
	<rect x="7.7" y="19.9" class="st1" width="55" height="4.1"/>
	<rect x="7.7" y="29.1" class="st1" width="55" height="4.1"/>
	<rect x="7.7" y="38.2" class="st1" width="55" height="4.1"/>
	<rect x="7.7" y="47.3" class="st1" width="55" height="4.1"/>
	<rect x="7.7" y="56.5" class="st1" width="55" height="4.1"/>
	<rect x="7.7" y="65.6" class="st1" width="55" height="4.1"/>
	<path class="st2" d="M95,86L95,86c-1.3,1.3-3.3,1.3-4.6,0L57.9,53.5c-1.3-1.3-1.3-3.3,0-4.6l0,0c1.3-1.3,3.3-1.3,4.6,0L95,81.4
		C96.3,82.7,96.3,84.8,95,86z"/>
	<circle class="st3" cx="62.3" cy="53.2" r="18.6"/>
</g>
</svg>