<?xml version="1.0" encoding="utf-8"?>
<!-- Generator: Adobe Illustrator 19.0.0, SVG Export Plug-In . SVG Version: 6.00 Build 0)  -->
<svg version="1.1" id="Layer_1" xmlns="http://www.w3.org/2000/svg" xmlns:xlink="http://www.w3.org/1999/xlink" x="0px" y="0px"
	 viewBox="0 0 591.4 276.1" style="enable-background:new 0 0 591.4 276.1;" xml:space="preserve">
<style type="text/css">
	.st0{fill:#FFFFFF;stroke:#F16839;stroke-width:3;stroke-miterlimit:10;}
	.st1{fill:#FFFFFF;stroke:#F16839;stroke-width:2;stroke-miterlimit:10;}
	.st2{fill:#FFFFFF;stroke:#F16839;stroke-miterlimit:10;}
	.st3{fill:none;stroke:#F16839;stroke-width:2;stroke-linecap:round;stroke-linejoin:round;stroke-miterlimit:10;}
	.st4{fill:#FFFFFF;stroke:#F16839;stroke-width:1.8254;stroke-linecap:round;stroke-linejoin:round;stroke-miterlimit:10;}
	.st5{fill:#F16839;}
	.st6{fill:none;stroke:#F16839;stroke-width:1.9267;stroke-miterlimit:10;}
	.st7{fill:none;stroke:#F16839;stroke-width:1.0536;stroke-miterlimit:10;}
	.st8{fill:#4AC2C4;}
	.st9{fill:#FFFFFF;}
	.st10{fill:#ECECEC;}
	.st11{fill:#C8C6C7;}
</style>
<g id="XMLID_661_">
	<path id="XMLID_154_" class="st0" d="M37.3,51.6l0.2,3v117.8l100-1.9v-115v0.2l-0.1-3.6c0-23.4-22.3-42.3-50-42.3
		C59.7,9.8,37.3,28.2,37.3,51.6"/>
	<path id="XMLID_153_" class="st1" d="M49,102.9h0.2c-7.3,0-13.2-5.1-13.2-12.5v-1.1c0-7.4,5.8-14.4,13.2-14.4H49"/>
	<path id="XMLID_152_" class="st1" d="M140,84.9c0-5-4-9-9-9H122c-5,0-9,4-9,9v10.1c0,5,4,9,9,9h9.1c5,0,9-4,9-9V84.9z"/>
	<polyline id="XMLID_151_" class="st2" points="71.5,121.9 71.5,153.4 102.5,153.4 102.5,121.9 	"/>
	<path id="XMLID_148_" class="st3" d="M86.6,132.2C81.8,131.7,53,128.6,51,102V74.9v-1h14V49l10.2,24.9H137"/>
	<path id="XMLID_672_" class="st4" d="M123,73.4l0.8,28.6c-3.2,26.6-32.6,29.5-37.4,29.9c0,0-18.6-0.4-29.1-13.4"/>
	<path id="XMLID_145_" class="st5" d="M73,89.8c0,1.9-1.6,3.5-3.5,3.5l0,0c-1.9,0-3.5-1.6-3.5-3.5v-5c0-1.9,1.6-3.5,3.5-3.5l0,0
		c1.9,0,3.5,1.6,3.5,3.5V89.8z"/>
	<path id="XMLID_142_" class="st5" d="M110,89.8c0,1.9-1.6,3.5-3.5,3.5l0,0c-1.9,0-3.5-1.6-3.5-3.5v-5c0-1.9,1.6-3.5,3.5-3.5l0,0
		c1.9,0,3.5,1.6,3.5,3.5V89.8z"/>
	<path id="XMLID_87_" class="st1" d="M72.6,67.9h-7.1c-0.4,0-0.8-0.3-0.8-0.5l0,0c0-0.2,0.3-0.5,0.8-0.5h7.1c0.4,0,0.8,0.3,0.8,0.5
		l0,0C73.4,67.6,73.1,67.9,72.6,67.9z"/>
	<path id="XMLID_3_" class="st5" d="M107.2,139.9H89.4h-5.2H67c-32.9,8-36.4,38-36.4,38h53.6h5.2h54.1
		C143.5,177.9,140.1,147.9,107.2,139.9z"/>
	<path id="XMLID_85_" class="st1" d="M109.7,67.9h-7.1c-0.4,0-0.8,0-0.8,0l0,0c0,0,0.3,0,0.8,0H109.7c0.4,0,0.8,0,0.8,0l0,0
		C110.4,67.9,110.1,67.9,109.7,67.9z"/>
	<polygon id="XMLID_2_" class="st1" points="88.9,81.2 81.9,101.9 96.2,101.9 	"/>
	<path id="XMLID_665_" class="st6" d="M102.7,97.7c0,7.7-6.2,13.9-13.7,13.9c-7.6,0-13.7-6.2-13.7-13.9"/>
	<path id="XMLID_664_" class="st7" d="M108.7,83.5c0,0,1.5,3.2,4.6,0"/>
	<path id="XMLID_663_" class="st7" d="M63.2,83.5c0,0,1.5,3.2,4.6,0"/>
	<rect id="XMLID_83_" x="31" y="177.9" class="st5" width="113" height="91"/>
</g>
<path id="XMLID_649_" class="st8" d="M558.8,56.2H217.1c-13.8,0-25,11.2-25,25v102.6l-36.8,51.6h61.7h19.6h322c13.8,0,25-11.2,25-25
	V81.2C583.8,67.4,572.6,56.2,558.8,56.2z"/>
<g id="XMLID_43_">
	<path id="XMLID_44_" class="st9" d="M229.5,131.2v-16.9c0.5-0.8,0.9-1.5,1.5-2.1s1.1-1.1,1.7-1.5c0.6-0.4,1.1-0.7,1.7-0.9
		c0.6-0.2,1.1-0.4,1.5-0.5c0.5-0.1,0.9-0.2,1.2-0.2s0.6,0,0.8,0h0.2c1.1,0,2,0.2,2.8,0.4s1.5,0.6,2.1,0.9s1.1,0.8,1.5,1.3
		s0.8,1,1,1.5s0.5,1,0.6,1.5s0.3,0.9,0.3,1.3c0.1,0.4,0.1,0.7,0.1,1c0,0.3,0,0.5,0,0.5v13.6h-3.3v-13.6c0-0.9-0.1-1.6-0.4-2.2
		c-0.2-0.6-0.5-1.1-0.9-1.5c-0.4-0.4-0.8-0.7-1.2-0.9s-0.9-0.4-1.3-0.5c-0.4-0.1-0.7-0.2-1-0.2s-0.5,0-0.6,0c-0.7,0-1.3,0.1-1.8,0.2
		s-0.9,0.3-1.3,0.6s-0.7,0.5-0.9,0.8s-0.5,0.6-0.6,1c-0.4,0.8-0.6,1.6-0.7,2.6v13.6H229.5z"/>
	<path id="XMLID_46_" class="st9" d="M254.1,109.1c0.1,0,0.3,0,0.6,0c0.3,0,0.7,0.1,1.1,0.2s0.9,0.3,1.4,0.6s0.9,0.6,1.3,1.1
		s0.7,1.1,1,1.8s0.4,1.6,0.4,2.7v15.7h-3.3v-15.7c0-0.6-0.1-1.1-0.3-1.6c-0.1-0.2-0.2-0.4-0.3-0.6s-0.3-0.4-0.5-0.5
		s-0.4-0.3-0.6-0.4c-0.2-0.1-0.5-0.1-0.8-0.1c-0.5,0-1,0.1-1.4,0.2s-0.7,0.3-0.9,0.4s-0.4,0.3-0.6,0.5c-0.1,0.2-0.2,0.3-0.3,0.3
		l-2.3-2.4c0.4-0.4,0.8-0.8,1.3-1.2c0.5-0.3,1-0.6,1.7-0.8S253.1,109.1,254.1,109.1z"/>
	<path id="XMLID_48_" class="st9" d="M276.8,114.9l-1.4-0.9c-0.3-0.2-0.7-0.4-1.1-0.6c-0.4-0.2-0.9-0.4-1.3-0.5s-0.8-0.3-1.2-0.3
		s-0.7-0.1-0.9-0.1c-0.5,0-1,0-1.5,0.1c-0.5,0.1-0.9,0.3-1.2,0.5c-0.4,0.2-0.6,0.6-0.9,1c-0.2,0.4-0.3,1-0.3,1.6s0.2,1.2,0.5,1.6
		c0.4,0.4,0.8,0.7,1.4,0.9s1.2,0.4,2,0.5s1.4,0.2,2.2,0.3s1.4,0.4,2.1,0.7s1.3,0.8,1.8,1.3s0.9,1.1,1.2,1.8s0.5,1.4,0.5,2.2
		c0,1.1-0.2,2.1-0.6,3c-0.4,0.8-1,1.5-1.7,2.1c-0.7,0.5-1.5,0.9-2.5,1.2s-2,0.4-3,0.4c-1.5,0-2.8-0.2-3.8-0.5
		c-1.1-0.3-1.9-0.7-2.6-1.1c-0.8-0.5-1.5-1-2-1.6l2.2-2.1c0.3,0.3,0.6,0.5,1,0.8s0.9,0.5,1.5,0.7s1.1,0.4,1.8,0.5s1.3,0.2,2,0.2
		c0.7,0,1.3-0.1,1.9-0.3c0.6-0.2,1-0.4,1.4-0.7s0.7-0.7,0.9-1.1s0.3-0.9,0.3-1.4c0-0.5-0.1-1-0.3-1.3c-0.2-0.3-0.4-0.6-0.6-0.8
		s-0.5-0.3-0.7-0.4c-0.2-0.1-0.4-0.1-0.6-0.2c-0.1,0-0.3-0.1-0.7-0.1c-0.4-0.1-0.8-0.1-1.3-0.2s-1-0.2-1.5-0.2s-0.9-0.2-1.1-0.2
		c-0.2,0-0.4-0.1-0.7-0.2c-0.3-0.1-0.6-0.2-1-0.4s-0.7-0.4-1.1-0.7c-0.4-0.3-0.7-0.6-1-1.1c-0.3-0.4-0.6-0.9-0.7-1.5
		c-0.2-0.6-0.3-1.3-0.3-2.1c0-1.2,0.2-2.2,0.6-3c0.4-0.8,1-1.5,1.7-2s1.5-0.9,2.3-1.1s1.7-0.3,2.6-0.3c0.9,0,1.7,0.1,2.5,0.3
		s1.4,0.4,1.9,0.7c0.6,0.3,1.2,0.6,1.7,0.9l1.7,1.1L276.8,114.9z"/>
	<path id="XMLID_50_" class="st9" d="M295,113.6c0.7,0.2,1.3,0.5,1.7,1s0.6,1,0.7,1.7v7.7c0,1.2-0.2,2.3-0.5,3.1
		c-0.3,0.9-0.8,1.6-1.3,2.1s-1.1,1-1.8,1.3s-1.2,0.5-1.8,0.7c-0.6,0.1-1.1,0.2-1.5,0.3s-0.7,0.1-0.8,0.1c-1.3,0-2.4-0.2-3.3-0.5
		s-1.6-0.8-2.2-1.3c-0.6-0.5-1-1.1-1.4-1.7c-0.3-0.6-0.6-1.2-0.7-1.8s-0.2-1.1-0.3-1.5s-0.1-0.7-0.1-0.9c0-0.7,0.1-1.4,0.3-1.9
		s0.5-1.1,0.8-1.6c0.3-0.5,0.7-0.9,1-1.3s0.7-0.7,1-1.1s0.6-0.7,0.8-1s0.4-0.7,0.4-1c0-0.1,0-0.2,0-0.3c0-0.1,0-0.2,0-0.2
		c0-0.5-0.1-0.9-0.2-1.3c-0.2-0.3-0.4-0.6-0.6-0.9s-0.6-0.4-0.9-0.6s-0.6-0.2-1-0.3s-0.6-0.1-0.9-0.1c-0.3,0-0.5,0-0.6,0h-0.2v-3.1
		h1.9c0.9,0,1.6,0.1,2.3,0.4s1.2,0.6,1.6,0.9s0.8,0.8,1,1.3s0.4,1,0.6,1.4c0.1,0.5,0.2,0.9,0.2,1.3s0.1,0.7,0.1,1c0,0.1,0,0.1,0,0.2
		s0,0.1,0,0.1v0.1c0,0.4-0.1,0.8-0.3,1.2s-0.3,0.7-0.5,1c-0.2,0.4-0.5,0.7-0.7,1c-0.6,0.7-1.1,1.3-1.5,1.9c-0.3,0.6-0.6,1-0.8,1.4
		s-0.3,0.7-0.3,1c0,0.2-0.1,0.4-0.1,0.5c0,0.8,0.1,1.4,0.3,1.9c0.2,0.5,0.4,0.9,0.7,1.3s0.6,0.6,1,0.8c0.4,0.2,0.7,0.3,1,0.4
		s0.6,0.1,0.9,0.1s0.4,0,0.5,0c0.7,0,1.3-0.1,1.7-0.3c0.5-0.2,0.9-0.5,1.2-0.8c0.3-0.3,0.6-0.6,0.8-1c0.2-0.4,0.4-0.7,0.5-1
		s0.2-0.6,0.2-0.9c0-0.3,0.1-0.4,0.1-0.5v-7c0-1.4-1-2.1-2.9-2.1h-1.1v-2.5h1.1c1,0,1.7-0.2,2.2-0.6c0.5-0.4,0.7-1.1,0.7-1.9v-0.6
		h3.3v1.3C297.4,112.1,296.6,113.2,295,113.6z"/>
	<path id="XMLID_52_" class="st9" d="M291.5,99.8c0.5,0,1,0.1,1.5,0.3s0.9,0.5,1.2,0.8c0.3,0.3,0.6,0.8,0.8,1.2s0.3,1,0.3,1.5
		s-0.1,1-0.3,1.5s-0.5,0.9-0.8,1.2c-0.3,0.3-0.8,0.6-1.2,0.8c-0.5,0.2-1,0.3-1.5,0.3s-1-0.1-1.5-0.3c-0.5-0.2-0.9-0.5-1.2-0.8
		c-0.3-0.3-0.6-0.8-0.8-1.2s-0.3-1-0.3-1.5s0.1-1,0.3-1.5s0.5-0.9,0.8-1.2c0.3-0.3,0.8-0.6,1.2-0.8S291,99.8,291.5,99.8z
		 M291.5,104.9c0.4,0,0.7-0.1,0.9-0.4s0.4-0.5,0.4-0.9s-0.1-0.7-0.4-0.9s-0.6-0.4-0.9-0.4s-0.7,0.1-0.9,0.4s-0.4,0.5-0.4,0.9
		s0.1,0.7,0.4,0.9S291.2,104.9,291.5,104.9z M305.4,109.1c0.1,0,0.3,0,0.6,0s0.7,0.1,1.1,0.2s0.9,0.3,1.4,0.6
		c0.5,0.3,0.9,0.6,1.3,1.1s0.7,1.1,1,1.8c0.3,0.7,0.4,1.6,0.4,2.7v15.7H308v-15.7c0-0.6-0.1-1.1-0.3-1.6c-0.1-0.2-0.2-0.4-0.3-0.6
		s-0.3-0.4-0.5-0.5s-0.4-0.3-0.6-0.4c-0.2-0.1-0.5-0.1-0.8-0.1c-0.5,0-1,0.1-1.4,0.2s-0.7,0.3-0.9,0.4s-0.4,0.3-0.6,0.5
		c-0.1,0.2-0.2,0.3-0.3,0.3l-2.3-2.4c0.4-0.4,0.8-0.8,1.3-1.2c0.5-0.3,1-0.6,1.7-0.8S304.5,109.1,305.4,109.1z"/>
	<path id="XMLID_56_" class="st9" d="M328.1,114.9l-1.4-0.9c-0.3-0.2-0.7-0.4-1.1-0.6c-0.4-0.2-0.9-0.4-1.3-0.5s-0.8-0.3-1.2-0.3
		s-0.7-0.1-0.9-0.1c-0.5,0-1,0-1.5,0.1c-0.5,0.1-0.9,0.3-1.2,0.5c-0.4,0.2-0.6,0.6-0.9,1c-0.2,0.4-0.3,1-0.3,1.6s0.2,1.2,0.5,1.6
		c0.4,0.4,0.8,0.7,1.4,0.9s1.2,0.4,2,0.5s1.4,0.2,2.2,0.3s1.4,0.4,2.1,0.7s1.3,0.8,1.8,1.3s0.9,1.1,1.2,1.8s0.5,1.4,0.5,2.2
		c0,1.1-0.2,2.1-0.6,3c-0.4,0.8-1,1.5-1.7,2.1c-0.7,0.5-1.5,0.9-2.5,1.2s-2,0.4-3,0.4c-1.5,0-2.8-0.2-3.8-0.5
		c-1.1-0.3-1.9-0.7-2.6-1.1c-0.8-0.5-1.5-1-2-1.6l2.2-2.1c0.3,0.3,0.6,0.5,1,0.8s0.9,0.5,1.5,0.7s1.1,0.4,1.8,0.5s1.3,0.2,2,0.2
		c0.7,0,1.3-0.1,1.9-0.3c0.6-0.2,1-0.4,1.4-0.7s0.7-0.7,0.9-1.1s0.3-0.9,0.3-1.4c0-0.5-0.1-1-0.3-1.3c-0.2-0.3-0.4-0.6-0.6-0.8
		s-0.5-0.3-0.7-0.4c-0.2-0.1-0.4-0.1-0.6-0.2c-0.1,0-0.3-0.1-0.7-0.1c-0.4-0.1-0.8-0.1-1.3-0.2s-1-0.2-1.5-0.2s-0.9-0.2-1.1-0.2
		c-0.2,0-0.4-0.1-0.7-0.2c-0.3-0.1-0.6-0.2-1-0.4s-0.7-0.4-1.1-0.7c-0.4-0.3-0.7-0.6-1-1.1c-0.3-0.4-0.6-0.9-0.7-1.5
		c-0.2-0.6-0.3-1.3-0.3-2.1c0-1.2,0.2-2.2,0.6-3c0.4-0.8,1-1.5,1.7-2s1.5-0.9,2.3-1.1s1.7-0.3,2.6-0.3c0.9,0,1.7,0.1,2.5,0.3
		s1.4,0.4,1.9,0.7c0.6,0.3,1.2,0.6,1.7,0.9l1.7,1.1L328.1,114.9z"/>
	<path id="XMLID_58_" class="st9" d="M335.3,111.1v1.6h5.8v3.1h-7.4c-0.4,0-0.6-0.1-0.8-0.2c-0.2-0.1-0.3-0.3-0.4-0.5
		c-0.1-0.2-0.2-0.5-0.2-0.7v-3.3H335.3z M335.3,124.5v1.6h5.8v3.1h-7.4c-0.4,0-0.6-0.1-0.8-0.2c-0.2-0.1-0.3-0.3-0.4-0.5
		c-0.1-0.2-0.2-0.5-0.2-0.7v-3.3H335.3z"/>
	<path id="XMLID_61_" class="st9" d="M347.6,131.2h-3.3v-22h3.3V131.2z"/>
	<path id="XMLID_63_" class="st9" d="M354.7,109.2h6.4V125c0,1.1-0.1,1.9-0.4,2.7c-0.3,0.7-0.6,1.3-1,1.8s-0.8,0.9-1.3,1.1
		c-0.5,0.3-0.9,0.5-1.4,0.6s-0.8,0.2-1.1,0.2s-0.5,0-0.6,0c-0.9,0-1.8-0.1-2.4-0.4s-1.2-0.5-1.7-0.8c-0.5-0.4-1-0.8-1.3-1.2l2.2-2.2
		c0.1,0.1,0.2,0.2,0.3,0.3c0.2,0.2,0.4,0.3,0.6,0.5s0.6,0.3,0.9,0.4s0.8,0.2,1.3,0.2c0.3,0,0.6,0,0.8-0.1s0.5-0.2,0.6-0.4
		c0.2-0.2,0.3-0.3,0.5-0.5s0.2-0.4,0.3-0.6c0.2-0.5,0.3-1.1,0.3-1.7v-12.8h-3.1V109.2z"/>
	<path id="XMLID_65_" class="st9" d="M359.7,103.5v3.1h-12.3v-3.1H359.7z"/>
	<path id="XMLID_67_" class="st9" d="M368.2,109.2v13.7c0,0.9,0.1,1.7,0.4,2.3c0.2,0.6,0.5,1.2,0.9,1.6s0.8,0.7,1.2,0.9
		s0.9,0.4,1.3,0.5c0.4,0.1,0.7,0.2,1,0.2c0.3,0,0.5,0,0.6,0c0.8,0,1.6-0.1,2.2-0.4c0.6-0.3,1.1-0.6,1.5-1c0.4-0.4,0.7-0.8,0.9-1.3
		s0.4-0.9,0.5-1.3s0.2-0.8,0.2-1.1s0-0.5,0-0.5v-13.7h3.3v22h-3.3v-3.1c0,0.4-0.1,0.8-0.3,1.1c-0.2,0.3-0.4,0.6-0.6,0.8
		s-0.5,0.4-0.8,0.6s-0.6,0.3-0.9,0.4c-0.8,0.3-1.6,0.4-2.5,0.5h-0.8c-1.2,0-2.3-0.2-3.2-0.5c-0.9-0.3-1.6-0.8-2.2-1.3
		s-1-1.1-1.4-1.8c-0.3-0.7-0.6-1.3-0.7-1.9c-0.2-0.6-0.3-1.2-0.3-1.7s-0.1-0.9-0.1-1.1v-0.3v-13.7H368.2z"/>
	<path id="XMLID_69_" class="st9" d="M403.4,123.6c-0.1,1.5-0.5,2.8-1.2,4c-0.3,0.5-0.6,1-1,1.4c-0.4,0.5-0.9,0.9-1.5,1.3
		s-1.3,0.7-2.1,0.9c-0.8,0.2-1.7,0.3-2.8,0.3c-1.1,0-2-0.1-2.8-0.3c-0.8-0.2-1.5-0.5-2.1-0.9s-1.1-0.8-1.5-1.3c-0.4-0.5-0.8-1-1-1.4
		c-0.7-1.1-1-2.5-1.2-4v-4.5h6.2v3.1h-2.9v1.4c0,0.6,0.1,1.1,0.2,1.6s0.4,0.9,0.6,1.2c0.3,0.3,0.5,0.6,0.9,0.9s0.6,0.4,1,0.6
		c0.8,0.4,1.7,0.6,2.7,0.6c1,0,1.9-0.2,2.7-0.6c0.3-0.2,0.7-0.3,1-0.6s0.6-0.5,0.9-0.9c0.3-0.3,0.5-0.7,0.6-1.2s0.2-1,0.2-1.6v-6.7
		c0-0.6-0.1-1.1-0.2-1.5s-0.4-0.8-0.6-1.1s-0.5-0.6-0.9-0.8s-0.6-0.4-1-0.6c-0.8-0.3-1.7-0.5-2.7-0.6h-0.3c-0.2,0-0.6,0-1,0.1
		s-0.9,0.2-1.4,0.5s-1,0.6-1.4,1c-0.5,0.4-0.8,1-1,1.7h-3.3c0.1-0.4,0.2-0.8,0.4-1.3c0.2-0.5,0.4-1,0.7-1.4s0.6-1,1.1-1.4
		s0.9-0.9,1.5-1.2c0.6-0.4,1.3-0.7,2.1-0.9s1.7-0.3,2.7-0.3c1,0,2,0.1,2.8,0.3c0.8,0.2,1.5,0.5,2.1,0.9c0.6,0.4,1.1,0.8,1.5,1.3
		c0.4,0.5,0.8,1,1,1.4c0.7,1.1,1,2.5,1.2,3.9V123.6z"/>
	<path id="XMLID_71_" class="st9" d="M423.5,123.6c-0.1,1.5-0.5,2.8-1.2,4c-0.3,0.5-0.6,1-1,1.4c-0.4,0.5-0.9,0.9-1.5,1.3
		s-1.3,0.7-2.1,0.9c-0.8,0.2-1.7,0.3-2.8,0.3c-1.1,0-2-0.1-2.8-0.3c-0.8-0.2-1.5-0.5-2.1-0.9s-1.1-0.8-1.5-1.3c-0.4-0.5-0.8-1-1-1.4
		c-0.7-1.1-1-2.5-1.2-4v-4.5h6.2v3.1h-2.9v1.4c0,0.6,0.1,1.1,0.2,1.6s0.4,0.9,0.6,1.2c0.3,0.3,0.5,0.6,0.9,0.9s0.6,0.4,1,0.6
		c0.8,0.4,1.7,0.6,2.7,0.6c1,0,1.9-0.2,2.7-0.6c0.3-0.2,0.7-0.3,1-0.6s0.6-0.5,0.9-0.9c0.3-0.3,0.5-0.7,0.6-1.2s0.2-1,0.2-1.6v-6.7
		c0-0.6-0.1-1.1-0.2-1.5s-0.4-0.8-0.6-1.1s-0.5-0.6-0.9-0.8s-0.6-0.4-1-0.6c-0.8-0.3-1.7-0.5-2.7-0.6h-0.3c-0.2,0-0.6,0-1,0.1
		s-0.9,0.2-1.4,0.5s-1,0.6-1.4,1c-0.5,0.4-0.8,1-1,1.7h-3.3c0.1-0.4,0.2-0.8,0.4-1.3c0.2-0.5,0.4-1,0.7-1.4s0.6-1,1.1-1.4
		s0.9-0.9,1.5-1.2c0.6-0.4,1.3-0.7,2.1-0.9s1.7-0.3,2.7-0.3c1,0,2,0.1,2.8,0.3c0.8,0.2,1.5,0.5,2.1,0.9c0.6,0.4,1.1,0.8,1.5,1.3
		c0.4,0.5,0.8,1,1,1.4c0.7,1.1,1,2.5,1.2,3.9V123.6z"/>
	<path id="XMLID_73_" class="st9" d="M429.9,109.2v13.7c0,0.9,0.1,1.7,0.4,2.3c0.2,0.6,0.5,1.2,0.9,1.6s0.8,0.7,1.2,0.9
		s0.9,0.4,1.3,0.5c0.4,0.1,0.7,0.2,1,0.2c0.3,0,0.5,0,0.6,0c0.8,0,1.6-0.1,2.2-0.4c0.6-0.3,1.1-0.6,1.5-1c0.4-0.4,0.7-0.8,0.9-1.3
		s0.4-0.9,0.5-1.3s0.2-0.8,0.2-1.1s0-0.5,0-0.5v-13.7h3.3v22h-3.3v-3.1c0,0.4-0.1,0.8-0.3,1.1c-0.2,0.3-0.4,0.6-0.6,0.8
		s-0.5,0.4-0.8,0.6s-0.6,0.3-0.9,0.4c-0.8,0.3-1.6,0.4-2.5,0.5h-0.8c-1.2,0-2.3-0.2-3.2-0.5c-0.9-0.3-1.6-0.8-2.2-1.3
		s-1-1.1-1.4-1.8c-0.3-0.7-0.6-1.3-0.7-1.9c-0.2-0.6-0.3-1.2-0.3-1.7s-0.1-0.9-0.1-1.1v-0.3v-13.7H429.9z"/>
	<path id="XMLID_75_" class="st9" d="M450,95c0.5,0.2,1,0.5,1.4,0.8s0.7,0.7,1,1s0.5,0.7,0.6,1.1c0.4,0.9,0.6,1.8,0.7,2.9v30.4h-3.3
		v-30.4c0-0.3-0.1-0.6-0.2-0.9c-0.2-0.3-0.3-0.6-0.5-0.8c-0.2-0.3-0.5-0.5-0.7-0.8l-2.6,2.6l-3.2-4.2l2.1-1.9l1.4,2l1.6-2.3
		C448.8,94.6,449.4,94.7,450,95z"/>
	<path id="XMLID_77_" class="st9" d="M468.8,109.6c1,0.4,1.8,0.8,2.4,1.4s1.1,1.2,1.5,1.8s0.6,1.3,0.8,2c0.2,0.6,0.3,1.2,0.3,1.7
		s0.1,0.9,0.1,1.1v0.2v13.4h-3.3v-6.5c0-0.6-0.1-1.2-0.4-1.6c-0.3-0.4-0.6-0.8-1.1-1.1c-0.4-0.3-0.9-0.5-1.4-0.7
		c-0.5-0.2-1-0.3-1.4-0.3s-0.9-0.1-1.5-0.2c0,0-0.2,0-0.4,0s-0.5,0.1-0.8,0.1s-0.7,0.2-1.1,0.3c-0.4,0.1-0.7,0.4-1.1,0.6
		s-0.7,0.6-0.9,1c-0.3,0.4-0.5,0.9-0.6,1.5c0,0.2-0.1,0.4-0.1,0.5c0,0.5,0.1,0.9,0.3,1.2s0.5,0.6,0.9,0.8s0.8,0.4,1.2,0.5
		s0.9,0.2,1.3,0.3c0.4,0.1,0.8,0.1,1.2,0.1c0.4,0,0.6,0,0.8,0h0.3v3.1h-3.7c-0.8,0-1.5-0.2-2.2-0.5s-1.3-0.8-1.8-1.3
		c-0.5-0.6-0.9-1.2-1.2-2c-0.3-0.7-0.4-1.5-0.4-2.3c0-0.8,0.2-1.6,0.5-2.5s1-1.6,1.8-2.4c0.5-0.5,1-0.9,1.6-1.2
		c0.5-0.3,1.1-0.6,1.6-0.8c0.5-0.2,1.1-0.3,1.6-0.4s1-0.1,1.5-0.1c0.8,0,1.5,0.1,2.1,0.2c0.7,0.1,1.2,0.3,1.7,0.5
		c0.6,0.2,1.1,0.4,1.6,0.7v-1.3c0-0.7-0.1-1.3-0.2-1.8s-0.4-1-0.6-1.4s-0.5-0.7-0.9-1c-0.3-0.3-0.6-0.5-1-0.6
		c-0.8-0.4-1.7-0.6-2.7-0.7c-0.9,0-1.6,0.2-2.3,0.5s-1.1,0.7-1.5,1.2s-0.7,0.9-0.9,1.4s-0.4,0.9-0.5,1.3h-3.4
		c0.1-1.2,0.3-2.2,0.7-3.1s0.9-1.6,1.4-2.1c0.6-0.6,1.2-1,1.8-1.3s1.3-0.6,1.9-0.7s1.1-0.3,1.6-0.3s0.8-0.1,1-0.1h0.2
		C466.6,109.1,467.8,109.2,468.8,109.6z"/>
	<path id="XMLID_79_" class="st9" d="M480.7,109.2v13.7c0,0.9,0.1,1.7,0.4,2.3c0.2,0.6,0.5,1.2,0.9,1.6s0.8,0.7,1.2,0.9
		s0.9,0.4,1.3,0.5c0.4,0.1,0.7,0.2,1,0.2c0.3,0,0.5,0,0.6,0c0.8,0,1.6-0.1,2.2-0.4c0.6-0.3,1.1-0.6,1.5-1c0.4-0.4,0.7-0.8,0.9-1.3
		s0.4-0.9,0.5-1.3s0.2-0.8,0.2-1.1s0-0.5,0-0.5v-13.7h3.3v22h-3.3v-3.1c0,0.4-0.1,0.8-0.3,1.1c-0.2,0.3-0.4,0.6-0.6,0.8
		s-0.5,0.4-0.8,0.6s-0.6,0.3-0.9,0.4c-0.8,0.3-1.6,0.4-2.5,0.5h-0.8c-1.2,0-2.3-0.2-3.2-0.5c-0.9-0.3-1.6-0.8-2.2-1.3
		s-1-1.1-1.4-1.8c-0.3-0.7-0.6-1.3-0.7-1.9c-0.2-0.6-0.3-1.2-0.3-1.7s-0.1-0.9-0.1-1.1v-0.3v-13.7H480.7z"/>
	<path id="XMLID_81_" class="st9" d="M486.1,106.5v-3.3c0-0.3,0.1-0.5,0.2-0.7c0.1-0.2,0.2-0.4,0.4-0.5s0.5-0.2,0.8-0.2h7.2v3.1
		h-5.6v1.6H486.1z"/>
	<path id="XMLID_84_" class="st9" d="M232.5,177.2h-3.3v-22h3.3V177.2z M239.4,177.2h-3.3v-22h3.3V177.2z"/>
	<path id="XMLID_89_" class="st9" d="M254.6,155.6c1,0.4,1.8,0.8,2.4,1.4s1.1,1.2,1.5,1.8s0.6,1.3,0.8,2c0.2,0.6,0.3,1.2,0.3,1.7
		s0.1,0.9,0.1,1.1v0.2v13.4h-3.3v-6.5c0-0.6-0.1-1.2-0.4-1.6c-0.3-0.4-0.6-0.8-1.1-1.1c-0.4-0.3-0.9-0.5-1.4-0.7
		c-0.5-0.2-1-0.3-1.4-0.3s-0.9-0.1-1.5-0.2c0,0-0.2,0-0.4,0s-0.5,0.1-0.8,0.1s-0.7,0.2-1.1,0.3c-0.4,0.1-0.7,0.4-1.1,0.6
		s-0.7,0.6-0.9,1c-0.3,0.4-0.5,0.9-0.6,1.5c0,0.2-0.1,0.4-0.1,0.5c0,0.5,0.1,0.9,0.3,1.2s0.5,0.6,0.9,0.8s0.8,0.4,1.2,0.5
		s0.9,0.2,1.3,0.3s0.8,0.1,1.2,0.1c0.4,0,0.6,0,0.8,0h0.3v3.1H248c-0.8,0-1.5-0.2-2.2-0.5s-1.3-0.8-1.8-1.3c-0.5-0.6-0.9-1.2-1.2-2
		c-0.3-0.7-0.4-1.5-0.4-2.3c0-0.8,0.2-1.6,0.5-2.5s1-1.6,1.8-2.4c0.5-0.5,1-0.9,1.6-1.2c0.5-0.3,1.1-0.6,1.6-0.8
		c0.5-0.2,1.1-0.3,1.6-0.4s1-0.1,1.5-0.1c0.8,0,1.5,0.1,2.1,0.2c0.7,0.1,1.2,0.3,1.7,0.5c0.6,0.2,1.1,0.4,1.6,0.7v-1.3
		c0-0.7-0.1-1.3-0.2-1.8s-0.4-1-0.6-1.4s-0.5-0.7-0.9-1c-0.3-0.3-0.6-0.5-1-0.6c-0.8-0.4-1.7-0.6-2.7-0.7c-0.9,0-1.6,0.2-2.3,0.5
		s-1.1,0.7-1.5,1.2s-0.7,0.9-0.9,1.4s-0.4,0.9-0.5,1.3h-3.4c0.1-1.2,0.3-2.2,0.7-3.1s0.9-1.6,1.4-2.1c0.6-0.6,1.2-1,1.8-1.3
		s1.3-0.6,1.9-0.7s1.1-0.3,1.6-0.3s0.8-0.1,1-0.1h0.2C252.5,155.1,253.7,155.2,254.6,155.6z"/>
	<path id="XMLID_91_" class="st9" d="M265.5,157.1v1.6h5.8v3.1h-7.4c-0.4,0-0.6-0.1-0.8-0.2c-0.2-0.1-0.3-0.3-0.4-0.5
		c-0.1-0.2-0.2-0.5-0.2-0.7v-3.3H265.5z M265.5,170.5v1.6h5.8v3.1h-7.4c-0.4,0-0.6-0.1-0.8-0.2c-0.2-0.1-0.3-0.3-0.4-0.5
		c-0.1-0.2-0.2-0.5-0.2-0.7v-3.3H265.5z"/>
	<path id="XMLID_94_" class="st9" d="M277.5,177.2h-3.3v-22h3.3V177.2z M284.4,177.2H281v-22h3.3V177.2z"/>
	<path id="XMLID_97_" class="st9" d="M291.7,155.2v13.7c0,0.9,0.1,1.7,0.4,2.3c0.2,0.6,0.5,1.2,0.9,1.6s0.8,0.7,1.2,0.9
		s0.9,0.4,1.3,0.5c0.4,0.1,0.7,0.2,1,0.2c0.3,0,0.5,0,0.6,0c0.8,0,1.6-0.1,2.2-0.4s1.1-0.6,1.5-1c0.4-0.4,0.7-0.8,0.9-1.3
		s0.4-0.9,0.5-1.3s0.2-0.8,0.2-1.1s0-0.5,0-0.5v-13.7h3.3v22h-3.3v-3.1c0,0.4-0.1,0.8-0.3,1.1c-0.2,0.3-0.4,0.6-0.6,0.8
		s-0.5,0.4-0.8,0.6s-0.6,0.3-0.9,0.4c-0.8,0.3-1.6,0.4-2.5,0.5h-0.8c-1.2,0-2.3-0.2-3.2-0.5c-0.9-0.3-1.6-0.8-2.2-1.3
		s-1-1.1-1.4-1.8s-0.6-1.3-0.7-1.9c-0.2-0.6-0.3-1.2-0.3-1.7s-0.1-0.9-0.1-1.1v-0.3v-13.7H291.7z"/>
	<path id="XMLID_99_" class="st9" d="M316.6,155.1c0.2,0,0.5,0,0.9,0.1s0.9,0.1,1.4,0.3s1.1,0.4,1.7,0.7s1.1,0.8,1.6,1.3
		s0.9,1.3,1.2,2.1s0.5,1.9,0.5,3.1v7.3c-0.1,1.4-0.4,2.7-0.9,3.8c-0.2,0.5-0.5,0.9-0.9,1.4s-0.8,0.9-1.3,1.2
		c-0.5,0.3-1.1,0.6-1.8,0.8c-0.7,0.2-1.5,0.3-2.4,0.3c-0.9,0-1.8-0.1-2.5-0.3c-0.7-0.2-1.3-0.5-1.9-0.9s-1-0.8-1.3-1.2
		s-0.6-0.9-0.9-1.4c0.1-0.1,0.3-0.2,0.6-0.3c0.2-0.1,0.5-0.3,0.8-0.5s0.5-0.3,0.8-0.5c0.3-0.1,0.4-0.2,0.6-0.3
		c0.2,0.6,0.6,1.1,1,1.4c0.4,0.3,0.8,0.6,1.3,0.7c0.5,0.2,1,0.3,1.6,0.3c0.8-0.1,1.4-0.3,2.1-0.7c0.3-0.2,0.5-0.3,0.8-0.6
		s0.5-0.5,0.7-0.8s0.3-0.6,0.5-1s0.2-0.9,0.2-1.4v-7.3c-0.1-0.8-0.3-1.5-0.6-2.2c-0.1-0.3-0.3-0.5-0.5-0.8s-0.4-0.5-0.7-0.7
		s-0.6-0.4-1-0.5s-0.8-0.2-1.3-0.2c-0.7,0-1.3,0.1-1.8,0.2s-1,0.3-1.3,0.6s-0.7,0.6-1,1.1s-0.5,1-0.8,1.6h-3.3
		c0.1-1,0.3-1.9,0.7-2.7c0.4-0.8,0.9-1.5,1.5-2.1s1.5-1,2.5-1.4s2.1-0.5,3.5-0.5H316.6L316.6,155.1z"/>
	<path id="XMLID_101_" class="st9" d="M341.5,177.2v-13.7c0-0.9-0.1-1.6-0.4-2.2c-0.2-0.6-0.5-1.1-0.9-1.5s-0.8-0.7-1.2-0.9
		s-0.9-0.4-1.3-0.5s-0.7-0.2-1-0.2s-0.5,0-0.6,0c-0.8,0-1.6,0.1-2.2,0.4s-1.1,0.5-1.5,0.9s-0.7,0.8-0.9,1.2
		c-0.2,0.4-0.4,0.8-0.5,1.2s-0.2,0.7-0.2,1c0,0.3,0,0.4,0,0.5v13.7h-3.3v-22h3.3v3.1c0-0.4,0.1-0.7,0.3-1.1c0.2-0.3,0.4-0.6,0.6-0.8
		c0.2-0.2,0.5-0.4,0.8-0.6s0.6-0.3,0.9-0.4c0.8-0.2,1.6-0.4,2.5-0.4h0.8c1.2,0,2.3,0.2,3.2,0.5c0.9,0.3,1.6,0.8,2.2,1.3
		s1,1.1,1.4,1.8s0.6,1.3,0.7,1.9c0.2,0.6,0.3,1.2,0.3,1.7s0.1,0.9,0.1,1.1v0.3v13.7H341.5z"/>
	<path id="XMLID_103_" class="st9" d="M352.2,155.1c0.1,0,0.3,0,0.6,0c0.3,0,0.7,0.1,1.1,0.2s0.9,0.3,1.4,0.6s0.9,0.6,1.3,1.1
		s0.7,1.1,1,1.8s0.4,1.6,0.4,2.7v15.7h-3.3v-15.7c0-0.6-0.1-1.1-0.3-1.6c-0.1-0.2-0.2-0.4-0.3-0.6s-0.3-0.4-0.5-0.5
		s-0.4-0.3-0.6-0.4c-0.2-0.1-0.5-0.1-0.8-0.1c-0.5,0-1,0.1-1.4,0.2s-0.7,0.3-0.9,0.4s-0.4,0.3-0.6,0.5c-0.1,0.2-0.2,0.3-0.3,0.3
		l-2.3-2.4c0.4-0.4,0.8-0.8,1.3-1.2c0.5-0.3,1-0.6,1.7-0.8S351.2,155.1,352.2,155.1z"/>
	<path id="XMLID_105_" class="st9" d="M365.4,155.2h6.4V171c0,1.1-0.1,1.9-0.4,2.7c-0.3,0.7-0.6,1.3-1,1.8s-0.8,0.9-1.3,1.1
		c-0.5,0.3-0.9,0.5-1.4,0.6s-0.8,0.2-1.1,0.2s-0.5,0-0.6,0c-0.9,0-1.8-0.1-2.4-0.4s-1.2-0.5-1.7-0.8c-0.5-0.4-1-0.8-1.3-1.2l2.2-2.2
		c0.1,0.1,0.2,0.2,0.3,0.3c0.2,0.2,0.4,0.3,0.6,0.5s0.6,0.3,0.9,0.4s0.8,0.2,1.3,0.2c0.3,0,0.6,0,0.8-0.1s0.5-0.2,0.6-0.4
		s0.3-0.3,0.5-0.5s0.2-0.4,0.3-0.6c0.2-0.5,0.3-1.1,0.3-1.7v-12.8h-3.1V155.2z"/>
	<path id="XMLID_107_" class="st9" d="M375.6,177.2v-16.9c0.5-0.8,0.9-1.5,1.5-2.1s1.1-1.1,1.7-1.5c0.6-0.4,1.1-0.7,1.7-0.9
		c0.6-0.2,1.1-0.4,1.5-0.5c0.5-0.1,0.9-0.2,1.2-0.2s0.6,0,0.8,0h0.2c1.1,0,2,0.2,2.8,0.4s1.5,0.6,2.1,0.9s1.1,0.8,1.5,1.3
		s0.8,1,1,1.5s0.5,1,0.6,1.5s0.3,0.9,0.3,1.3c0.1,0.4,0.1,0.7,0.1,1c0,0.3,0,0.5,0,0.5v13.6h-3.3v-13.6c0-0.9-0.1-1.6-0.4-2.2
		c-0.2-0.6-0.5-1.1-0.9-1.5c-0.4-0.4-0.8-0.7-1.2-0.9s-0.9-0.4-1.3-0.5c-0.4-0.1-0.7-0.2-1-0.2s-0.5,0-0.6,0c-0.7,0-1.3,0.1-1.8,0.2
		s-0.9,0.3-1.3,0.6s-0.7,0.5-0.9,0.8s-0.5,0.6-0.6,1c-0.4,0.8-0.6,1.6-0.7,2.6v13.6H375.6z"/>
	<path id="XMLID_109_" class="st9" d="M400.2,155.1c0.1,0,0.3,0,0.6,0c0.3,0,0.7,0.1,1.1,0.2s0.9,0.3,1.4,0.6s0.9,0.6,1.3,1.1
		s0.7,1.1,1,1.8s0.4,1.6,0.4,2.7v15.7h-3.3v-15.7c0-0.6-0.1-1.1-0.3-1.6c-0.1-0.2-0.2-0.4-0.3-0.6s-0.3-0.4-0.5-0.5
		s-0.4-0.3-0.6-0.4c-0.2-0.1-0.5-0.1-0.8-0.1c-0.5,0-1,0.1-1.4,0.2s-0.7,0.3-0.9,0.4s-0.4,0.3-0.6,0.5c-0.1,0.2-0.2,0.3-0.3,0.3
		l-2.3-2.4c0.4-0.4,0.8-0.8,1.3-1.2c0.5-0.3,1-0.6,1.7-0.8S399.2,155.1,400.2,155.1z"/>
	<path id="XMLID_111_" class="st9" d="M422.9,160.9l-1.4-0.9c-0.3-0.2-0.7-0.4-1.1-0.6c-0.4-0.2-0.9-0.4-1.3-0.5s-0.8-0.3-1.2-0.3
		s-0.7-0.1-0.9-0.1c-0.5,0-1,0-1.5,0.1c-0.5,0.1-0.9,0.3-1.2,0.5c-0.4,0.2-0.6,0.6-0.9,1c-0.2,0.4-0.3,1-0.3,1.6s0.2,1.2,0.5,1.6
		c0.4,0.4,0.8,0.7,1.4,0.9s1.2,0.4,2,0.5s1.4,0.2,2.2,0.3s1.4,0.4,2.1,0.7s1.3,0.8,1.8,1.3s0.9,1.1,1.2,1.8s0.5,1.4,0.5,2.2
		c0,1.1-0.2,2.1-0.6,3s-1,1.5-1.7,2.1c-0.7,0.5-1.5,0.9-2.5,1.2s-2,0.4-3,0.4c-1.5,0-2.8-0.2-3.8-0.5c-1.1-0.3-1.9-0.7-2.6-1.1
		c-0.8-0.5-1.5-1-2-1.6l2.2-2.1c0.3,0.3,0.6,0.5,1,0.8s0.9,0.5,1.5,0.7s1.1,0.4,1.8,0.5s1.3,0.2,2,0.2c0.7,0,1.3-0.1,1.9-0.3
		c0.6-0.2,1-0.4,1.4-0.7s0.7-0.7,0.9-1.1s0.3-0.9,0.3-1.4c0-0.5-0.1-1-0.3-1.3c-0.2-0.3-0.4-0.6-0.6-0.8s-0.5-0.3-0.7-0.4
		c-0.2-0.1-0.4-0.1-0.6-0.2c-0.1,0-0.3-0.1-0.7-0.1c-0.4-0.1-0.8-0.1-1.3-0.2s-1-0.2-1.5-0.2s-0.9-0.2-1.1-0.2
		c-0.2,0-0.4-0.1-0.7-0.2c-0.3-0.1-0.6-0.2-1-0.4s-0.7-0.4-1.1-0.7c-0.4-0.3-0.7-0.6-1-1.1c-0.3-0.4-0.6-0.9-0.7-1.5
		c-0.2-0.6-0.3-1.3-0.3-2.1c0-1.2,0.2-2.2,0.6-3c0.4-0.8,1-1.5,1.7-2s1.5-0.9,2.3-1.1s1.7-0.3,2.6-0.3c0.9,0,1.7,0.1,2.5,0.3
		s1.4,0.4,1.9,0.7c0.6,0.3,1.2,0.6,1.7,0.9l1.7,1.1L422.9,160.9z"/>
	<path id="XMLID_113_" class="st9" d="M443.7,157.4c0.4,0.5,0.8,1.1,1,1.8s0.4,1.3,0.5,2.1v16h-3.3v-14.7c0-0.9-0.2-1.7-0.5-2.3
		c-0.3-0.7-0.8-1.2-1.3-1.5l-3.5,2.3l-3.5-2.3c-0.6,0.4-1,0.9-1.3,1.5c-0.3,0.7-0.5,1.4-0.5,2.3v7.9c0,0.7,0.2,1.4,0.5,1.9
		c0.1,0.2,0.3,0.5,0.5,0.7c0.2,0.2,0.4,0.4,0.6,0.6s0.6,0.3,0.9,0.4s0.8,0.2,1.2,0.2h2.4v3.1h-4.4c-0.9-0.1-1.8-0.3-2.5-0.8
		c-0.3-0.2-0.6-0.5-0.9-0.8c-0.3-0.3-0.6-0.7-0.8-1.1s-0.4-1-0.6-1.6c-0.1-0.6-0.2-1.3-0.2-2.1v-9.5c0.2-1.5,0.7-2.8,1.5-3.9
		s1.9-1.9,3.2-2.4l3.9,2.4l3.9-2.4C441.7,155.5,442.8,156.3,443.7,157.4z"/>
	<path id="XMLID_115_" class="st9" d="M438.6,147.9v1.6h8.2v3.1h-9.9c-0.4,0-0.6-0.1-0.8-0.2c-0.2-0.1-0.3-0.3-0.4-0.5
		c-0.1-0.2-0.2-0.5-0.2-0.7v-3.3H438.6z"/>
	<path id="XMLID_117_" class="st9" d="M463.3,177.2v-13.8c-0.1-0.9-0.3-1.8-0.7-2.5c-0.2-0.3-0.4-0.6-0.7-0.9s-0.6-0.6-1-0.8
		c-0.4-0.2-0.9-0.4-1.4-0.6c-0.5-0.1-1.1-0.2-1.8-0.2s-1.3,0.1-1.8,0.2c-0.5,0.1-1,0.3-1.4,0.6c-0.4,0.2-0.7,0.5-1,0.8
		s-0.5,0.6-0.7,0.9c-0.4,0.7-0.7,1.6-0.7,2.5v7.2c0.1,0.5,0.2,0.9,0.3,1.3c0.1,0.4,0.3,0.7,0.5,1.1s0.5,0.7,0.9,0.9
		c0.5,0.3,0.9,0.5,1.3,0.5c0.4,0,0.8-0.1,1.1-0.3s0.6-0.4,0.8-0.6l2.1,2.2c-0.3,0.3-0.7,0.6-1.1,0.9c-0.4,0.2-0.8,0.4-1.3,0.6
		s-1.1,0.3-1.7,0.3c-0.2,0-0.4,0-0.6,0c-0.2,0-0.4-0.1-0.6-0.1c-0.8-0.2-1.5-0.5-2.1-1s-1.1-1-1.5-1.6c-0.4-0.6-0.7-1.3-0.9-2
		c-0.2-0.7-0.3-1.5-0.3-2.2v-7.2c0.1-1.3,0.4-2.4,0.8-3.4c0.4-0.9,0.9-1.7,1.5-2.3s1.2-1.1,1.8-1.4s1.3-0.6,1.9-0.8
		c0.6-0.2,1.1-0.3,1.6-0.3c0.5,0,0.8-0.1,1.1-0.1h0.3h0.3c0.2,0,0.6,0,1.1,0.1c0.5,0,1,0.2,1.6,0.3c0.6,0.2,1.2,0.4,1.9,0.8
		s1.3,0.8,1.8,1.4s1,1.4,1.5,2.3c0.4,0.9,0.7,2,0.8,3.4v13.8H463.3z"/>
	<path id="XMLID_119_" class="st9" d="M488.6,154.9c0,0.1-0.1,0.2-0.2,0.3s-0.3,0.3-0.4,0.6s-0.4,0.4-0.6,0.6s-0.5,0.4-0.7,0.6
		s-0.4,0.4-0.6,0.5c-0.2,0.1-0.4,0.2-0.5,0.3c0.4,0.5,0.8,1.1,1,1.7s0.4,1.2,0.6,1.7s0.2,1,0.2,1.4s0.1,0.7,0.1,0.9v0.2v13.4h-3.3
		v-6.5c0-0.6-0.1-1.2-0.4-1.6c-0.3-0.4-0.6-0.8-1.1-1.1c-0.4-0.3-0.9-0.5-1.4-0.7c-0.5-0.2-1-0.3-1.4-0.3s-0.9-0.1-1.5-0.2
		c0,0-0.2,0-0.4,0s-0.5,0.1-0.8,0.1s-0.7,0.2-1.1,0.3c-0.4,0.1-0.8,0.4-1.1,0.6s-0.7,0.6-1,1c-0.3,0.4-0.5,0.9-0.6,1.5
		c0,0.1,0,0.2,0,0.3c0,0.1,0,0.2,0,0.3c0,0.5,0.1,0.9,0.3,1.2s0.5,0.6,0.9,0.8s0.8,0.4,1.2,0.5s0.9,0.2,1.3,0.3s0.8,0.1,1.2,0.1
		c0.4,0,0.6,0,0.8,0h0.3v3.1h-3.7c-0.8,0-1.5-0.2-2.2-0.5s-1.3-0.8-1.8-1.3c-0.5-0.6-0.9-1.2-1.2-2c-0.3-0.7-0.4-1.5-0.4-2.3
		c0-0.8,0.2-1.6,0.6-2.5s1-1.6,1.8-2.4c0.5-0.5,1-0.9,1.6-1.2c0.5-0.3,1.1-0.6,1.6-0.8c0.5-0.2,1.1-0.3,1.6-0.4s1-0.1,1.5-0.1
		c0.8,0,1.5,0.1,2.1,0.2c0.7,0.1,1.2,0.3,1.7,0.5c0.6,0.2,1.1,0.4,1.6,0.7v-1.3c0-0.7-0.1-1.3-0.2-1.8s-0.4-1-0.6-1.4
		s-0.5-0.7-0.9-1c-0.3-0.3-0.6-0.5-1-0.6c-0.8-0.4-1.7-0.6-2.7-0.7c-0.9,0-1.6,0.2-2.3,0.5s-1.1,0.7-1.5,1.2s-0.7,0.9-0.9,1.4
		s-0.4,0.9-0.5,1.3h-3.4c0.1-1.2,0.3-2.2,0.7-3.1s0.9-1.6,1.4-2.1c0.6-0.6,1.2-1,1.8-1.3s1.3-0.6,1.9-0.7s1.1-0.3,1.6-0.3
		s0.8-0.1,1-0.1h0.2c1,0,2.1,0.1,3.1,0.4c0.6-0.1,1.1-0.2,1.7-0.5c0.5-0.2,0.9-0.5,1.4-0.9c0.5-0.4,0.9-0.9,1.2-1.5l1.1,1.1
		c0.1,0.1,0.3,0.3,0.4,0.4s0.3,0.3,0.4,0.4s0.2,0.2,0.3,0.3S488.5,154.9,488.6,154.9z"/>
	<path id="XMLID_121_" class="st9" d="M486,149.5v3.1h-12.3v-3.1H486z"/>
	<path id="XMLID_123_" class="st9" d="M494.6,155.2v13.7c0,0.9,0.1,1.7,0.4,2.3c0.2,0.6,0.5,1.2,0.9,1.6s0.8,0.7,1.2,0.9
		s0.9,0.4,1.3,0.5c0.4,0.1,0.7,0.2,1,0.2c0.3,0,0.5,0,0.6,0c0.8,0,1.6-0.1,2.2-0.4s1.1-0.6,1.5-1c0.4-0.4,0.7-0.8,0.9-1.3
		s0.4-0.9,0.5-1.3s0.2-0.8,0.2-1.1s0-0.5,0-0.5v-13.7h3.3v22h-3.3v-3.1c0,0.4-0.1,0.8-0.3,1.1c-0.2,0.3-0.4,0.6-0.6,0.8
		s-0.5,0.4-0.8,0.6s-0.6,0.3-0.9,0.4c-0.8,0.3-1.6,0.4-2.5,0.5h-0.8c-1.2,0-2.3-0.2-3.2-0.5c-0.9-0.3-1.6-0.8-2.2-1.3
		s-1-1.1-1.4-1.8s-0.6-1.3-0.7-1.9c-0.2-0.6-0.3-1.2-0.3-1.7s-0.1-0.9-0.1-1.1v-0.3v-13.7H494.6z"/>
	<path id="XMLID_125_" class="st9" d="M514.2,177.2v-22.3c0-0.5,0.1-1,0.2-1.4c0.1-0.4,0.3-0.9,0.5-1.3c0.2-0.4,0.5-0.8,0.8-1.1
		s0.6-0.7,1-1s0.6-0.6,0.8-0.9s0.4-0.5,0.5-0.8s0.2-0.5,0.2-0.7s0.1-0.4,0.1-0.7c0-0.6-0.1-1-0.3-1.5c-0.2-0.4-0.4-0.8-0.8-1
		c-0.3-0.3-0.7-0.5-1.1-0.6s-0.9-0.2-1.3-0.2c-0.9,0-1.5,0.1-2,0.2c-0.5,0.2-0.8,0.3-1,0.5c-0.2,0.2-0.4,0.5-0.4,0.8h-2.8
		c0,0,0,0,0-0.1v-0.2c0-0.2,0-0.4,0.1-0.6s0.1-0.6,0.3-0.9s0.3-0.6,0.6-1s0.6-0.6,1.1-0.9s1-0.5,1.7-0.7c0.7-0.2,1.5-0.3,2.5-0.3
		c1,0,1.9,0.1,2.6,0.3c0.7,0.2,1.3,0.5,1.8,0.9s0.9,0.8,1.1,1.2c0.3,0.5,0.5,0.9,0.6,1.4s0.2,0.9,0.3,1.3s0.1,0.7,0.1,1v0.4
		c0,0.3,0,0.6-0.1,0.9s-0.2,0.7-0.3,1s-0.4,0.8-0.6,1.2c-0.3,0.4-0.6,0.9-1,1.4c-0.4,0.5-0.7,0.9-0.9,1.3c-0.2,0.4-0.4,0.7-0.5,1
		c-0.1,0.3-0.2,0.6-0.2,0.9v22.3H514.2z"/>
	<path id="XMLID_127_" class="st9" d="M530.9,155.1c0.5,0,1.1,0.2,1.7,0.3s1.3,0.4,1.9,0.8s1.3,0.9,1.8,1.5c0.6,0.6,1,1.4,1.4,2.4
		c0.4,1,0.5,2.1,0.5,3.5v13.6H535v-6.1c-0.2-0.4-0.4-0.8-0.6-1.2s-0.6-0.7-1-0.9c-0.4-0.2-0.8-0.4-1.2-0.5c-0.4-0.1-0.9-0.2-1.4-0.2
		c-0.4,0-0.7,0-1.1,0c-0.3,0-0.6,0.1-0.9,0.2v-3.4c0.6-0.2,1.3-0.2,2-0.2c1.5,0,3,0.4,4.2,1.1v-2.2c-0.1-1-0.3-1.9-0.8-2.7
		c-0.2-0.3-0.4-0.7-0.7-1c-0.3-0.3-0.6-0.6-0.9-0.9s-0.8-0.5-1.3-0.6s-1.1-0.2-1.7-0.2c-1,0.1-1.9,0.3-2.7,0.7
		c-0.3,0.2-0.7,0.4-1,0.6c-0.3,0.3-0.6,0.6-0.9,1s-0.5,0.8-0.6,1.4s-0.2,1.1-0.2,1.8H521v-0.2c0-0.2,0-0.6,0.1-1.1
		c0-0.5,0.2-1.1,0.3-1.7c0.2-0.6,0.5-1.3,0.8-2c0.4-0.7,0.9-1.3,1.5-1.8c0.6-0.6,1.4-1,2.4-1.4c1-0.4,2.1-0.5,3.5-0.5h0.2
		C530.1,155.1,530.4,155.1,530.9,155.1z"/>
</g>
<path id="XMLID_387_" class="st10" d="M167.9,255.5H8.8v-86.2c0-2.8,2.2-5,5-5h149.1c2.8,0,5,2.2,5,5V255.5z"/>
<path id="XMLID_386_" class="st11" d="M160.9,269.7H15.8c-3.9,0-7-3.1-7-7v-7.2h159.1v7.2C167.9,266.5,164.7,269.7,160.9,269.7z"/>
</svg>
