<?xml version="1.0" encoding="utf-8"?>
<!-- Generator: Adobe Illustrator 19.0.0, SVG Export Plug-In . SVG Version: 6.00 Build 0)  -->
<svg version="1.1" id="Layer_1" xmlns="http://www.w3.org/2000/svg" xmlns:xlink="http://www.w3.org/1999/xlink" x="0px" y="0px"
	 viewBox="0 0 602.5 377.8" style="enable-background:new 0 0 602.5 377.8;" xml:space="preserve">
<style type="text/css">
	.st0{fill:#49C2C6;}
	.st1{fill:#FFFFFF;stroke:#F2673A;stroke-width:3;stroke-miterlimit:10;}
	.st2{fill:#646463;}
	.st3{fill:#0C6B88;}
	.st4{fill:#F8981D;}
	.st5{fill:none;stroke:#F2673A;stroke-width:3;stroke-miterlimit:10;}
	.st6{fill:#F2673A;}
	.st7{fill:none;stroke:#F2673A;stroke-width:2.5586;stroke-miterlimit:10;}
	.st8{fill:none;stroke:#F2673A;stroke-width:2.1395;stroke-miterlimit:10;}
	.st9{fill:none;stroke:#F2673A;stroke-width:2;stroke-miterlimit:10;}
	.st10{fill:#FFFFFF;stroke:#F2673A;stroke-width:2.5586;stroke-miterlimit:10;}
	.st11{fill:#D8D9D8;}
	.st12{fill:#FFFFFF;stroke:#F2673A;stroke-width:2;stroke-miterlimit:10;}
	.st13{fill:none;stroke:#F2673A;stroke-width:2.0267;stroke-miterlimit:10;}
	.st14{fill:#FFFFFF;stroke:#F2673A;stroke-miterlimit:10;}
	.st15{fill:none;stroke:#F2673A;stroke-width:2;stroke-linecap:round;stroke-linejoin:round;stroke-miterlimit:10;}
	.st16{fill:#FFFFFF;stroke:#F2673A;stroke-width:1.8254;stroke-linecap:round;stroke-linejoin:round;stroke-miterlimit:10;}
	.st17{fill:none;stroke:#F2673A;stroke-width:1.9267;stroke-miterlimit:10;}
	.st18{fill:none;stroke:#F2673A;stroke-width:1.0536;stroke-miterlimit:10;}
	.st19{fill:#FFFFFF;}
	.st20{fill:none;stroke:#FFFFFF;stroke-width:5;stroke-miterlimit:10;}
	.st21{fill:#F15926;}
	.st22{opacity:0.3;fill:#A8AAAD;}
	.st23{opacity:0.35;fill:#DADFE0;}
	.st24{opacity:0.35;fill:#F4F4F4;}
	.st25{fill:#A6B0B3;}
	.st26{fill:none;stroke:#A6B0B3;stroke-miterlimit:10;}
</style>
<rect id="XMLID_1094_" class="st0" width="602.5" height="377.8"/>
<path id="XMLID_1093_" class="st1" d="M70.4,195.7H43.1c-6.5,0-11.7-5.3-11.7-11.7v-3.3c0-6.5,5.3-11.7,11.7-11.7h27.4
	c6.5,0,11.7,5.3,11.7,11.7v3.3C82.2,190.4,76.9,195.7,70.4,195.7z"/>
<rect id="XMLID_1092_" x="32.3" y="232.3" class="st1" width="60.9" height="145.5"/>
<path id="XMLID_762_" class="st2" d="M555.2,344.4h-474c-7.7,0-14-6.3-14-14V67.6c0-7.7,6.3-14,14-14h474c7.7,0,14,6.3,14,14v262.7
	C569.2,338.1,562.9,344.4,555.2,344.4z"/>
<path id="XMLID_761_" class="st3" d="M555.2,327.6h-474c-7.7,0-14-6.3-14-14V50.9c0-7.7,6.3-14,14-14h474c7.7,0,14,6.3,14,14v262.7
	C569.2,321.3,562.9,327.6,555.2,327.6z"/>
<path id="XMLID_760_" class="st4" d="M153.1,255.7h-45.9c-7.7,0-14-6.3-14-14v-23.8c0-7.7,6.3-14,14-14h45.9c7.7,0,14,6.3,14,14
	v23.8C167.1,249.4,160.8,255.7,153.1,255.7z"/>
<g id="XMLID_703_">
	<g id="XMLID_739_">
		<g id="XMLID_740_">
			<path id="XMLID_182_" class="st4" d="M473,264.6l0-0.2c0,0-2.9-21.8-30.6-25.8h-14.7h-4.5h-14.6c-27.7,4-30.6,26.1-30.6,26.1v10
				v20.6v32.4h95v-52.9l0,0V264.6z"/>
			<rect id="XMLID_181_" x="413.5" y="228" class="st1" width="24" height="24"/>
			<g id="XMLID_743_">
				<path id="XMLID_180_" class="st1" d="M410.5,204.6c0,4.6-3.8,8.4-8.4,8.4h-0.2c-4.6,0-8.4-3.8-8.4-8.4v-0.2
					c0-4.6,3.8-8.4,8.4-8.4h0.2c4.6,0,8.4,3.8,8.4,8.4V204.6z"/>
				<path id="XMLID_179_" class="st1" d="M460.5,204.6c0,4.6-3.8,8.4-8.4,8.4h-0.2c-4.6,0-8.4-3.8-8.4-8.4v-0.2
					c0-4.6,3.8-8.4,8.4-8.4h0.2c4.6,0,8.4,3.8,8.4,8.4V204.6z"/>
				<path id="XMLID_178_" class="st1" d="M428.3,241h-0.9c-12.9,0-22.9-11.8-22.9-25.7v-31.3c0-13.9,10-24.9,22.9-24.9h0.9
					c12.9,0,24.2,11,24.2,24.9v31.3C452.5,229.2,441.1,241,428.3,241z"/>
				<polygon id="XMLID_177_" class="st5" points="427.7,199.4 423.3,215 432.3,215 				"/>
				<ellipse id="XMLID_753_" class="st6" cx="418" cy="205.2" rx="2.1" ry="3.2"/>
				<ellipse id="XMLID_752_" class="st6" cx="437.1" cy="205.2" rx="2.1" ry="3.2"/>
				<polygon id="XMLID_176_" class="st6" points="412.5,194.5 423,194.5 423,197.5 412.1,197.5 				"/>
				<polygon id="XMLID_175_" class="st6" points="445.2,194.5 435,194.5 435,197.5 445.6,197.5 				"/>
				<path id="XMLID_749_" class="st7" d="M398.6,198.8"/>
				<path id="XMLID_748_" class="st7" d="M453,185.9c-11.1,0-17.1-7.6-17.1-7.6l2.9,7.6c-14.2,0-16.4-12.8-16.4-12.8L402,193"/>
				<path id="XMLID_747_" class="st7" d="M398.4,198.7"/>
				<path id="XMLID_746_" class="st8" d="M436.3,213.6c0,4.7-3.8,8.6-8.6,8.6s-8.6-3.8-8.6-8.6"/>
				<line id="XMLID_174_" class="st9" x1="416" y1="212.5" x2="419" y2="212.5"/>
				<line id="XMLID_173_" class="st9" x1="436" y1="212.5" x2="441" y2="212.5"/>
			</g>
			<polygon id="XMLID_742_" class="st10" points="411.7,234 425.5,253.2 415.7,262.7 406,242 			"/>
			<polygon id="XMLID_741_" class="st10" points="441.4,236.2 425.5,253.2 435.2,262.7 445,242 			"/>
		</g>
	</g>
	<g id="XMLID_721_">
		<g id="XMLID_724_">
			<g id="XMLID_725_">
				<g id="XMLID_726_">
					<path id="XMLID_172_" class="st11" d="M379,263.8l0.1-0.3c0,0-2.8-21.9-30.5-25.9h-14.7h-4.5h-14.6
						c-27.7,4-30.7,26.2-30.7,26.2v10v20.6v33.2h95v-53.7l0,0V263.8z"/>
					<path id="XMLID_171_" class="st1" d="M318.5,205.6c0,4.6-3.8,8.4-8.4,8.4h-0.2c-4.6,0-8.4-3.8-8.4-8.4v-0.2
						c0-4.6,3.8-8.4,8.4-8.4h0.2c4.6,0,8.4,3.8,8.4,8.4V205.6z"/>
					<path id="XMLID_170_" class="st1" d="M367.5,205.6c0,4.6-3.8,8.4-8.4,8.4h-0.2c-4.6,0-8.4-3.8-8.4-8.4v-0.2
						c0-4.6,3.8-8.4,8.4-8.4h0.2c4.6,0,8.4,3.8,8.4,8.4V205.6z"/>
					<path id="XMLID_169_" class="st1" d="M335.7,241h-0.9c-12.9,0-23.3-10.6-23.3-24.5v-31.3c0-13.9,10.4-25.2,23.3-25.2h0.9
						c12.9,0,23.8,11.3,23.8,25.2v31.3C359.5,230.4,348.6,241,335.7,241z"/>
					<polygon id="XMLID_168_" class="st1" points="335.2,200.4 330.7,216 339.8,216 					"/>
					<ellipse id="XMLID_733_" class="st6" cx="325.7" cy="203.5" rx="2.1" ry="3.2"/>
					<ellipse id="XMLID_732_" class="st6" cx="344.8" cy="204.1" rx="2.1" ry="3.2"/>
					<path id="XMLID_731_" class="st10" d="M306,200.1"/>
					<path id="XMLID_730_" class="st10" d="M305.8,199.9"/>
					<polyline id="XMLID_167_" class="st12" points="313,189.5 344.8,189.5 346.9,180 349,189.5 358,189.5 					"/>
					<path id="XMLID_728_" class="st13" d="M321.3,199c0-2.7,2.2-5,5-5s5,2.2,5,5"/>
					<path id="XMLID_727_" class="st13" d="M340.1,199c0-2.7,2.2-5,5-5c2.7,0,5,2.2,5,5"/>
				</g>
			</g>
		</g>
		<path id="XMLID_723_" class="st7" d="M325.5,214.2c0,5.4,4.3,9.7,9.7,9.7s9.7-4.3,9.7-9.7"/>
		<polygon id="XMLID_722_" class="st11" points="311.4,243.3 311.4,225.9 357.6,225.9 351.2,243.3 		"/>
	</g>
	<g id="XMLID_704_">
		<path id="XMLID_166_" class="st1" d="M475.5,204.5v3.7v66.1l56-1.1v-64.6v0.1l-0.3-2c0-13.1-12.7-23.7-28.4-23.7
			c-15.7,0-27.8,9.4-27.8,22.5"/>
		<path id="XMLID_165_" class="st12" d="M480,235.5h1c-4.2,0-8-3-8-7.2v-0.6c0-4.2,3.9-10.2,8-10.2h-1"/>
		<path id="XMLID_164_" class="st12" d="M531,227.5c0-3.9-3.1-7-7-7l0,0c-3.9,0-7,3.1-7,7v2c0,3.9,3.1,7,7,7l0,0c3.9,0,7-3.1,7-7
			V227.5z"/>
		<polyline id="XMLID_163_" class="st14" points="493.5,247.5 493.5,263 510.5,263 510.5,247.5 		"/>
		<path id="XMLID_162_" class="st15" d="M501.8,251c-2.7-0.3-18.8-1.3-20.8-16.2v-15.3v-2.1h9V205l5.8,12.5H531"/>
		<path id="XMLID_715_" class="st16" d="M522.8,218.8l0.4,16.1c-1.8,14.9-18.5,16.5-21.2,16.8c0,0-10.5-0.2-16.5-7.5"/>
		<path id="XMLID_161_" class="st6" d="M495,229c0,0.8-0.7,1.5-1.5,1.5l0,0c-0.8,0-1.5-0.7-1.5-1.5v-4c0-0.8,0.7-1.5,1.5-1.5l0,0
			c0.8,0,1.5,0.7,1.5,1.5V229z"/>
		<path id="XMLID_160_" class="st6" d="M514,229c0,0.8-0.7,1.5-1.5,1.5l0,0c-0.8,0-1.5-0.7-1.5-1.5v-4c0-0.8,0.7-1.5,1.5-1.5l0,0
			c0.8,0,1.5,0.7,1.5,1.5V229z"/>
		<path id="XMLID_159_" class="st12" d="M494.3,215.5h-4c-0.2,0-0.4-0.4-0.4-0.5l0,0c0-0.1,0.2-0.5,0.4-0.5h4c0.2,0,0.4,0.4,0.4,0.5
			l0,0C494.7,215.2,494.5,215.5,494.3,215.5z"/>
		<path id="XMLID_158_" class="st6" d="M513.8,255.5h-10h-3h-9.7c-18.6,5-20.6,21-20.6,21h30.3h3h30.6
			C534.4,276.5,532.5,260.5,513.8,255.5z"/>
		<path id="XMLID_157_" class="st12" d="M515.3,215.5h-4c-0.2,0-0.4,0-0.4,0l0,0c0,0,0.2,0,0.4,0H515.3c0.2,0,0.4,0,0.4,0l0,0
			C515.7,215.5,515.5,215.5,515.3,215.5z"/>
		<polygon id="XMLID_156_" class="st12" points="503.5,222.9 499.5,234.5 507.6,234.5 		"/>
		<path id="XMLID_708_" class="st17" d="M511.3,232.4c0,4.3-3.5,7.8-7.8,7.8c-4.3,0-7.8-3.5-7.8-7.8"/>
		<path id="XMLID_707_" class="st18" d="M514.7,224.5c0,0,0.8,1.8,2.6,0"/>
		<path id="XMLID_706_" class="st18" d="M488.9,224.5c0,0,0.8,1.8,2.6,0"/>
		<rect id="XMLID_155_" x="471" y="276.5" class="st6" width="64" height="51"/>
	</g>
</g>
<g id="XMLID_14_">
	<path id="XMLID_15_" class="st19" d="M108,77.4v12.7c0,1.1-0.2,2-0.5,2.7c-0.3,0.7-0.7,1.3-1.1,1.8c-0.5,0.5-1,0.9-1.5,1.1
		c-0.5,0.3-1.1,0.5-1.6,0.6c-0.5,0.1-0.9,0.2-1.3,0.2c-0.4,0-0.6,0-0.7,0c-1.1,0-2-0.1-2.8-0.4c-0.8-0.3-1.4-0.7-1.9-1.1
		c-0.5-0.5-0.9-1-1.2-1.5s-0.5-1.1-0.6-1.6c-0.1-0.5-0.2-0.9-0.2-1.3c0-0.4,0-0.6,0-0.7c0-0.6,0.1-1.2,0.3-1.7s0.4-0.9,0.7-1.3
		c0.3-0.4,0.6-0.8,0.9-1.1c0.3-0.3,0.6-0.6,0.9-0.9c0.3-0.3,0.5-0.6,0.7-0.9c0.2-0.3,0.3-0.6,0.4-0.9c0-0.1,0-0.2,0-0.2
		c0-0.1,0-0.1,0-0.2c0-0.4-0.1-0.8-0.2-1.1s-0.3-0.6-0.6-0.8s-0.5-0.4-0.8-0.5s-0.6-0.2-0.8-0.3c-0.3-0.1-0.5-0.1-0.8-0.1
		s-0.4,0-0.5,0h-0.2v-2.7h1.7c0.8,0,1.4,0.1,2,0.3c0.5,0.2,1,0.5,1.4,0.8c0.4,0.3,0.7,0.7,0.9,1.1s0.4,0.8,0.5,1.2
		c0.1,0.4,0.2,0.8,0.2,1.1c0,0.3,0,0.6,0,0.8c0,0.1,0,0.1,0,0.2c0,0,0,0.1,0,0.1v0.1c0,0.3-0.1,0.7-0.3,1s-0.3,0.6-0.5,0.9
		c-0.2,0.3-0.4,0.6-0.6,0.9c-0.5,0.6-1,1.2-1.3,1.6c-0.3,0.5-0.5,0.9-0.7,1.2c-0.1,0.3-0.2,0.6-0.3,0.8c0,0.2,0,0.3,0,0.4
		c0,0.6,0.1,1.2,0.3,1.6c0.2,0.4,0.4,0.8,0.6,1.1c0.3,0.3,0.5,0.5,0.8,0.7s0.6,0.3,0.9,0.3c0.3,0.1,0.5,0.1,0.7,0.1
		c0.2,0,0.3,0,0.4,0c0.6,0,1.1-0.1,1.5-0.3c0.4-0.2,0.8-0.4,1.1-0.7c0.3-0.3,0.5-0.6,0.7-0.9c0.2-0.3,0.3-0.6,0.4-0.9
		c0.1-0.3,0.2-0.5,0.2-0.8c0-0.2,0-0.4,0-0.4V77.4H108z"/>
	<path id="XMLID_17_" class="st19" d="M108.1,72.5v2.7h-7.9v-3.6h-1.4V69h2.8c0.2,0,0.4,0.1,0.6,0.2c0.2,0.1,0.3,0.2,0.4,0.4
		c0.1,0.2,0.2,0.4,0.2,0.7v2.3H108.1z"/>
	<path id="XMLID_19_" class="st19" d="M126.2,89.9c-0.1,1.3-0.4,2.4-1,3.4c-0.2,0.4-0.5,0.8-0.9,1.2c-0.4,0.4-0.8,0.8-1.3,1.1
		s-1.1,0.6-1.8,0.8c-0.7,0.2-1.5,0.3-2.4,0.3c-0.9,0-1.7-0.1-2.4-0.3c-0.7-0.2-1.3-0.5-1.8-0.8s-1-0.7-1.3-1.1
		c-0.4-0.4-0.7-0.8-0.9-1.2c-0.6-1-0.9-2.1-1-3.4V86h5.3v2.7h-2.5v1.2c0,0.5,0.1,1,0.2,1.4c0.1,0.4,0.3,0.7,0.5,1
		c0.2,0.3,0.5,0.5,0.7,0.7c0.3,0.2,0.6,0.4,0.8,0.5c0.7,0.3,1.4,0.5,2.3,0.5c0.9,0,1.6-0.2,2.3-0.5c0.3-0.1,0.6-0.3,0.8-0.5
		c0.3-0.2,0.5-0.4,0.7-0.7c0.2-0.3,0.4-0.6,0.5-1c0.1-0.4,0.2-0.9,0.2-1.4v-5.7c0-0.5-0.1-0.9-0.2-1.3c-0.1-0.4-0.3-0.7-0.5-1
		c-0.2-0.3-0.5-0.5-0.7-0.7c-0.3-0.2-0.6-0.3-0.8-0.5c-0.7-0.3-1.4-0.5-2.3-0.5h-0.2c-0.2,0-0.5,0-0.9,0.1s-0.8,0.2-1.2,0.4
		c-0.4,0.2-0.8,0.5-1.2,0.9c-0.4,0.4-0.7,0.9-0.9,1.5h-2.8c0.1-0.3,0.2-0.7,0.3-1.1c0.1-0.4,0.3-0.8,0.6-1.2s0.6-0.8,0.9-1.2
		c0.4-0.4,0.8-0.8,1.3-1.1c0.5-0.3,1.1-0.6,1.8-0.8c0.7-0.2,1.5-0.3,2.4-0.3c0.9,0,1.7,0.1,2.4,0.3c0.7,0.2,1.3,0.5,1.8,0.8
		s1,0.7,1.3,1.1c0.4,0.4,0.7,0.8,0.9,1.2c0.6,1,0.9,2.1,1,3.4V89.9z"/>
	<path id="XMLID_21_" class="st19" d="M143.7,77.4v11.8v0.2c0,0.2,0,0.5-0.1,1c0,0.4-0.1,0.9-0.3,1.5s-0.4,1.1-0.6,1.7
		c-0.3,0.6-0.7,1.1-1.2,1.5c-0.5,0.5-1.1,0.8-1.9,1.1c-0.7,0.3-1.7,0.5-2.7,0.5h-0.7c-0.8-0.1-1.5-0.2-2.2-0.4
		c-0.3-0.1-0.5-0.2-0.8-0.4c-0.3-0.1-0.5-0.3-0.7-0.5c-0.2-0.2-0.4-0.4-0.5-0.7c-0.1-0.3-0.2-0.6-0.2-0.9v2.7h-2.8v-19h2.8v11.8
		c0,0,0,0.2,0,0.5s0.1,0.6,0.2,0.9c0.1,0.4,0.2,0.7,0.4,1.1c0.2,0.4,0.4,0.8,0.8,1.1c0.3,0.3,0.7,0.6,1.3,0.8
		c0.5,0.2,1.1,0.3,1.9,0.3c0.1,0,0.2,0,0.5,0c0.3,0,0.6-0.1,0.9-0.2c0.3-0.1,0.7-0.2,1.1-0.4s0.7-0.5,1-0.8c0.3-0.4,0.6-0.8,0.8-1.4
		c0.2-0.5,0.3-1.2,0.3-2V77.4H143.7z"/>
	<path id="XMLID_23_" class="st19" d="M142.8,97.8v4.8c0,0.3-0.1,0.6-0.4,0.8c-0.2,0.2-0.5,0.4-0.8,0.4H138c-0.3,0-0.6-0.1-0.8-0.4
		c-0.2-0.2-0.3-0.5-0.3-0.8v-2.6h-1.1v-2.2h2.2c0.3,0,0.6,0.1,0.8,0.4c0.1,0.1,0.2,0.2,0.3,0.4s0.1,0.3,0.1,0.4v2.6h1.4v-3.7H142.8z
		"/>
	<path id="XMLID_25_" class="st19" d="M156.8,77.8c0.8,0.3,1.5,0.7,2.1,1.2s1,1,1.3,1.6s0.5,1.1,0.7,1.7s0.3,1,0.3,1.5
		c0,0.4,0.1,0.7,0.1,0.9v0.2v11.6h-2.8v-5.6c0-0.5-0.1-1-0.4-1.4c-0.2-0.4-0.6-0.7-0.9-0.9c-0.4-0.2-0.8-0.4-1.2-0.6
		c-0.4-0.1-0.8-0.2-1.2-0.3c-0.4-0.1-0.8-0.1-1.3-0.1c0,0-0.2,0-0.3,0c-0.2,0-0.4,0.1-0.7,0.1s-0.6,0.2-0.9,0.3
		c-0.3,0.1-0.6,0.3-0.9,0.5c-0.3,0.2-0.6,0.5-0.8,0.9c-0.2,0.4-0.4,0.8-0.5,1.3c0,0.2-0.1,0.3-0.1,0.5c0,0.4,0.1,0.7,0.3,1
		c0.2,0.3,0.5,0.5,0.8,0.7c0.3,0.2,0.7,0.3,1,0.5c0.4,0.1,0.8,0.2,1.1,0.3c0.4,0.1,0.7,0.1,1,0.1c0.3,0,0.5,0,0.7,0h0.2v2.7h-3.2
		c-0.7,0-1.3-0.1-1.9-0.4c-0.6-0.3-1.1-0.7-1.5-1.2c-0.4-0.5-0.8-1.1-1-1.7s-0.4-1.3-0.4-2c0-0.7,0.2-1.4,0.5-2.1
		c0.3-0.7,0.8-1.4,1.6-2.1c0.4-0.4,0.9-0.7,1.3-1c0.5-0.3,0.9-0.5,1.4-0.7c0.5-0.2,0.9-0.3,1.4-0.3c0.4-0.1,0.9-0.1,1.3-0.1
		c0.6,0,1.3,0.1,1.8,0.2c0.6,0.1,1.1,0.3,1.5,0.4c0.5,0.2,0.9,0.4,1.3,0.6v-1.1c0-0.6-0.1-1.1-0.2-1.6c-0.1-0.4-0.3-0.8-0.5-1.2
		c-0.2-0.3-0.5-0.6-0.7-0.8c-0.3-0.2-0.6-0.4-0.8-0.6c-0.7-0.3-1.4-0.5-2.3-0.6c-0.8,0-1.4,0.1-1.9,0.4c-0.5,0.3-1,0.6-1.3,1
		c-0.3,0.4-0.6,0.8-0.8,1.2c-0.2,0.4-0.3,0.8-0.4,1.1h-3c0.1-1,0.3-1.9,0.6-2.7c0.3-0.7,0.7-1.3,1.2-1.8c0.5-0.5,1-0.9,1.5-1.2
		c0.6-0.3,1.1-0.5,1.6-0.6c0.5-0.1,1-0.2,1.4-0.3c0.4,0,0.7-0.1,0.9-0.1h0.2C155,77.3,156,77.5,156.8,77.8z"/>
	<path id="XMLID_27_" class="st19" d="M177.1,96.4h-2.9v-19h2.9V96.4z"/>
	<path id="XMLID_29_" class="st19" d="M192.1,81.2c0.6,0.2,1.1,0.4,1.5,0.8c0.3,0.4,0.5,0.9,0.6,1.5v6.7c0,1.1-0.2,2-0.5,2.7
		c-0.3,0.7-0.7,1.3-1.1,1.8c-0.5,0.5-1,0.9-1.5,1.1c-0.5,0.3-1.1,0.5-1.6,0.6c-0.5,0.1-0.9,0.2-1.3,0.2c-0.4,0-0.6,0-0.7,0
		c-1.1,0-2-0.1-2.8-0.4c-0.8-0.3-1.4-0.7-1.9-1.1c-0.5-0.5-0.9-1-1.2-1.5c-0.3-0.5-0.5-1.1-0.6-1.6c-0.1-0.5-0.2-0.9-0.2-1.3
		c0-0.4,0-0.6,0-0.7c0-0.6,0.1-1.2,0.3-1.7s0.4-0.9,0.7-1.3c0.3-0.4,0.6-0.8,0.9-1.1c0.3-0.3,0.6-0.6,0.9-0.9
		c0.3-0.3,0.5-0.6,0.7-0.9c0.2-0.3,0.3-0.6,0.4-0.9c0-0.1,0-0.2,0-0.2c0-0.1,0-0.1,0-0.2c0-0.4-0.1-0.8-0.2-1.1
		c-0.1-0.3-0.3-0.6-0.6-0.8c-0.2-0.2-0.5-0.4-0.8-0.5c-0.3-0.1-0.6-0.2-0.8-0.3c-0.3-0.1-0.5-0.1-0.8-0.1s-0.4,0-0.5,0h-0.2v-2.7
		h1.7c0.8,0,1.4,0.1,2,0.3c0.5,0.2,1,0.5,1.4,0.8c0.4,0.3,0.7,0.7,0.9,1.1s0.4,0.8,0.5,1.2s0.2,0.8,0.2,1.1c0,0.3,0,0.6,0,0.8
		c0,0.1,0,0.1,0,0.2c0,0,0,0.1,0,0.1v0.1c0,0.3-0.1,0.7-0.3,1s-0.3,0.6-0.5,0.9c-0.2,0.3-0.4,0.6-0.6,0.9c-0.5,0.6-1,1.2-1.3,1.6
		c-0.3,0.5-0.5,0.9-0.7,1.2c-0.1,0.3-0.2,0.6-0.3,0.8c0,0.2,0,0.3,0,0.4c0,0.6,0.1,1.2,0.3,1.6c0.2,0.4,0.4,0.8,0.6,1.1
		c0.3,0.3,0.5,0.5,0.8,0.7s0.6,0.3,0.9,0.3c0.3,0.1,0.5,0.1,0.7,0.1c0.2,0,0.4,0,0.4,0c0.6,0,1.1-0.1,1.5-0.3
		c0.4-0.2,0.8-0.4,1.1-0.7c0.3-0.3,0.5-0.6,0.7-0.9c0.2-0.3,0.3-0.6,0.4-0.9c0.1-0.3,0.2-0.5,0.2-0.8c0-0.2,0-0.4,0-0.4v-6
		c0-1.2-0.8-1.8-2.5-1.8h-0.9v-2.2h0.9c0.8,0,1.5-0.2,1.9-0.6c0.4-0.4,0.6-0.9,0.6-1.6v-0.5h2.8v1.1C194.2,80,193.5,80.9,192.1,81.2
		z"/>
	<path id="XMLID_31_" class="st19" d="M193.1,72.5v2.7h-10.6v-2.7H193.1z"/>
	<path id="XMLID_33_" class="st19" d="M200.2,77.4h5.5v13.7c0,0.9-0.1,1.7-0.3,2.3s-0.5,1.2-0.9,1.6c-0.3,0.4-0.7,0.7-1.1,1
		c-0.4,0.2-0.8,0.4-1.2,0.5c-0.4,0.1-0.7,0.2-1,0.2c-0.3,0-0.5,0-0.5,0c-0.8,0-1.5-0.1-2.1-0.3c-0.6-0.2-1.1-0.4-1.5-0.7
		c-0.5-0.3-0.8-0.6-1.1-1l1.9-1.9c0.1,0.1,0.2,0.2,0.3,0.3c0.1,0.1,0.3,0.3,0.5,0.4c0.2,0.1,0.5,0.3,0.8,0.4
		c0.3,0.1,0.7,0.2,1.1,0.2c0.3,0,0.5,0,0.7-0.1c0.2-0.1,0.4-0.2,0.5-0.3c0.2-0.1,0.3-0.3,0.4-0.5c0.1-0.2,0.2-0.4,0.3-0.5
		c0.2-0.4,0.3-0.9,0.3-1.5v-11h-2.7V77.4z"/>
	<path id="XMLID_35_" class="st19" d="M218.6,77.8c0.8,0.3,1.5,0.7,2.1,1.2s1,1,1.3,1.6s0.5,1.1,0.7,1.7s0.3,1,0.3,1.5
		c0,0.4,0.1,0.7,0.1,0.9v0.2v11.6h-2.8v-5.6c0-0.5-0.1-1-0.4-1.4c-0.2-0.4-0.6-0.7-0.9-0.9c-0.4-0.2-0.8-0.4-1.2-0.6
		c-0.4-0.1-0.8-0.2-1.2-0.3c-0.4-0.1-0.8-0.1-1.3-0.1c0,0-0.2,0-0.3,0c-0.2,0-0.4,0.1-0.7,0.1s-0.6,0.2-0.9,0.3
		c-0.3,0.1-0.6,0.3-0.9,0.5c-0.3,0.2-0.6,0.5-0.8,0.9c-0.2,0.4-0.4,0.8-0.5,1.3c0,0.2-0.1,0.3-0.1,0.5c0,0.4,0.1,0.7,0.3,1
		c0.2,0.3,0.5,0.5,0.8,0.7c0.3,0.2,0.7,0.3,1,0.5c0.4,0.1,0.8,0.2,1.1,0.3c0.4,0.1,0.7,0.1,1,0.1c0.3,0,0.5,0,0.7,0h0.2v2.7h-3.2
		c-0.7,0-1.3-0.1-1.9-0.4c-0.6-0.3-1.1-0.7-1.5-1.2c-0.4-0.5-0.8-1.1-1-1.7s-0.4-1.3-0.4-2c0-0.7,0.2-1.4,0.5-2.1
		c0.3-0.7,0.8-1.4,1.6-2.1c0.4-0.4,0.9-0.7,1.3-1c0.5-0.3,0.9-0.5,1.4-0.7c0.5-0.2,0.9-0.3,1.4-0.3c0.4-0.1,0.9-0.1,1.3-0.1
		c0.6,0,1.3,0.1,1.8,0.2c0.6,0.1,1.1,0.3,1.5,0.4c0.5,0.2,0.9,0.4,1.3,0.6v-1.1c0-0.6-0.1-1.1-0.2-1.6c-0.1-0.4-0.3-0.8-0.5-1.2
		c-0.2-0.3-0.5-0.6-0.7-0.8c-0.3-0.2-0.6-0.4-0.8-0.6c-0.7-0.3-1.4-0.5-2.3-0.6c-0.8,0-1.4,0.1-1.9,0.4c-0.5,0.3-1,0.6-1.3,1
		c-0.3,0.4-0.6,0.8-0.8,1.2c-0.2,0.4-0.3,0.8-0.4,1.1h-3c0.1-1,0.3-1.9,0.6-2.7c0.3-0.7,0.7-1.3,1.2-1.8c0.5-0.5,1-0.9,1.5-1.2
		c0.6-0.3,1.1-0.5,1.6-0.6c0.5-0.1,1-0.2,1.4-0.3c0.4,0,0.7-0.1,0.9-0.1h0.2C216.8,77.3,217.8,77.5,218.6,77.8z"/>
	<path id="XMLID_37_" class="st19" d="M218.7,68.5c0.5,0,0.9,0.1,1.3,0.3s0.8,0.4,1.1,0.7s0.5,0.7,0.7,1.1c0.2,0.4,0.3,0.8,0.3,1.3
		c0,0.5-0.1,0.9-0.3,1.3s-0.4,0.8-0.7,1.1c-0.3,0.3-0.7,0.5-1.1,0.7c-0.4,0.2-0.8,0.3-1.3,0.3h-11v-2.7h7.7c0-0.1,0-0.2-0.1-0.3
		c0-0.1,0-0.2,0-0.3c0-0.4,0.1-0.9,0.3-1.3c0.2-0.4,0.4-0.8,0.7-1.1s0.7-0.5,1.1-0.7C217.8,68.6,218.3,68.5,218.7,68.5z M218.7,73
		c0.3,0,0.6-0.1,0.8-0.3c0.2-0.2,0.3-0.5,0.3-0.8s-0.1-0.6-0.3-0.8c-0.2-0.2-0.5-0.3-0.8-0.3s-0.6,0.1-0.8,0.3
		c-0.2,0.2-0.3,0.5-0.3,0.8s0.1,0.6,0.3,0.8C218.2,72.8,218.4,73,218.7,73z"/>
	<path id="XMLID_40_" class="st19" d="M226.1,96.4V81.9c0.4-0.7,0.8-1.3,1.3-1.8c0.5-0.5,0.9-0.9,1.4-1.3c0.5-0.3,1-0.6,1.5-0.8
		c0.5-0.2,0.9-0.3,1.3-0.4c0.4-0.1,0.8-0.2,1.1-0.2s0.5,0,0.7,0h0.2c0.9,0,1.7,0.1,2.4,0.4c0.7,0.2,1.3,0.5,1.8,0.8
		c0.5,0.3,1,0.7,1.3,1.1c0.4,0.4,0.7,0.8,0.9,1.3c0.2,0.4,0.4,0.9,0.5,1.3c0.1,0.4,0.2,0.8,0.3,1.2c0.1,0.3,0.1,0.6,0.1,0.9
		c0,0.2,0,0.4,0,0.5v11.8h-2.8V84.6c0-0.8-0.1-1.4-0.3-1.9c-0.2-0.5-0.5-0.9-0.8-1.3s-0.7-0.6-1.1-0.8c-0.4-0.2-0.7-0.3-1.1-0.4
		c-0.3-0.1-0.6-0.1-0.9-0.2c-0.3,0-0.4,0-0.5,0c-0.6,0-1.1,0.1-1.5,0.2c-0.4,0.1-0.8,0.3-1.1,0.5c-0.3,0.2-0.6,0.5-0.8,0.7
		c-0.2,0.3-0.4,0.5-0.5,0.8c-0.3,0.7-0.5,1.4-0.6,2.2v11.8H226.1z"/>
	<path id="XMLID_42_" class="st19" d="M266.6,96.4V84.5c-0.1-0.8-0.3-1.5-0.6-2.2c-0.2-0.3-0.3-0.5-0.6-0.8s-0.5-0.5-0.9-0.7
		c-0.3-0.2-0.7-0.4-1.2-0.5c-0.5-0.1-1-0.2-1.6-0.2c-0.6,0-1.1,0.1-1.6,0.2c-0.5,0.1-0.8,0.3-1.2,0.5c-0.3,0.2-0.6,0.4-0.9,0.7
		c-0.2,0.3-0.4,0.5-0.6,0.8c-0.4,0.6-0.6,1.4-0.6,2.2v6.2c0,0.4,0.1,0.8,0.3,1.1c0.1,0.3,0.3,0.6,0.4,1c0.2,0.3,0.4,0.6,0.7,0.8
		c0.4,0.3,0.8,0.4,1.1,0.4c0.3,0,0.6-0.1,0.9-0.2c0.3-0.2,0.5-0.3,0.7-0.5l1.8,1.9c-0.3,0.3-0.6,0.5-1,0.7c-0.3,0.2-0.7,0.4-1.1,0.5
		c-0.4,0.2-0.9,0.2-1.4,0.2c-0.2,0-0.3,0-0.5,0c-0.2,0-0.4-0.1-0.6-0.1c-0.7-0.2-1.3-0.4-1.8-0.8c-0.5-0.4-1-0.8-1.3-1.4
		c-0.4-0.5-0.6-1.1-0.8-1.7s-0.3-1.3-0.3-1.9v-6.2c0.1-1.1,0.3-2.1,0.7-2.9c0.4-0.8,0.8-1.5,1.3-2c0.5-0.5,1-0.9,1.6-1.2
		c0.6-0.3,1.1-0.5,1.6-0.7c0.5-0.1,1-0.2,1.4-0.3c0.4,0,0.7-0.1,0.9-0.1h0.2h0.2c0.2,0,0.5,0,0.9,0.1c0.4,0,0.9,0.1,1.4,0.3
		c0.5,0.1,1.1,0.4,1.6,0.7c0.6,0.3,1.1,0.7,1.6,1.2c0.5,0.5,0.9,1.2,1.3,2c0.4,0.8,0.6,1.8,0.7,2.9v11.9H266.6z"/>
	<path id="XMLID_44_" class="st19" d="M269.6,72.5v2.7h-7.9v-3.6h-1.4V69h2.8c0.2,0,0.4,0.1,0.6,0.2c0.2,0.1,0.3,0.2,0.4,0.4
		c0.1,0.2,0.2,0.4,0.2,0.7v2.3H269.6z"/>
	<path id="XMLID_46_" class="st19" d="M275.9,77.3c0.1,0,0.2,0,0.5,0c0.3,0,0.6,0.1,1,0.2s0.8,0.3,1.2,0.5c0.4,0.2,0.8,0.5,1.1,1
		s0.6,0.9,0.9,1.6s0.3,1.4,0.3,2.4v13.5h-2.8V82.9c0-0.5-0.1-1-0.3-1.4c-0.1-0.2-0.2-0.3-0.3-0.5c-0.1-0.2-0.2-0.3-0.4-0.4
		s-0.3-0.2-0.5-0.3c-0.2-0.1-0.4-0.1-0.7-0.1c-0.5,0-0.9,0.1-1.2,0.2c-0.3,0.1-0.6,0.2-0.8,0.4c-0.2,0.1-0.4,0.3-0.5,0.4
		c-0.1,0.1-0.2,0.2-0.3,0.3l-1.9-2c0.3-0.4,0.7-0.7,1.1-1c0.4-0.3,0.9-0.5,1.5-0.7C274.4,77.4,275.1,77.3,275.9,77.3z"/>
	<path id="XMLID_48_" class="st19" d="M287.6,77.4v11.8c0,0.8,0.1,1.5,0.3,2c0.2,0.5,0.5,1,0.8,1.4c0.3,0.4,0.7,0.6,1,0.8
		s0.7,0.3,1.1,0.4c0.3,0.1,0.6,0.1,0.9,0.2c0.3,0,0.4,0,0.5,0c0.7,0,1.3-0.1,1.9-0.3c0.5-0.2,0.9-0.5,1.3-0.8
		c0.3-0.3,0.6-0.7,0.8-1.1s0.3-0.8,0.4-1.1c0.1-0.4,0.1-0.7,0.2-0.9c0-0.3,0-0.4,0-0.5V77.4h2.8v19h-2.8v-2.7c0,0.4-0.1,0.7-0.2,0.9
		c-0.1,0.3-0.3,0.5-0.5,0.7c-0.2,0.2-0.5,0.4-0.7,0.5c-0.3,0.1-0.5,0.3-0.8,0.4c-0.6,0.2-1.4,0.4-2.2,0.4h-0.7c-1.1,0-2-0.2-2.7-0.5
		c-0.7-0.3-1.4-0.7-1.9-1.1c-0.5-0.5-0.9-1-1.2-1.5c-0.3-0.6-0.5-1.1-0.6-1.7s-0.2-1-0.3-1.5c0-0.4-0.1-0.8-0.1-1v-0.2V77.4H287.6z"
		/>
	<path id="XMLID_50_" class="st19" d="M313.8,77.8c0.8,0.3,1.5,0.7,2.1,1.2c0.5,0.5,1,1,1.3,1.6s0.5,1.1,0.7,1.7s0.3,1,0.3,1.5
		c0,0.4,0.1,0.7,0.1,0.9v0.2v11.6h-2.8V84.8c0-0.6-0.1-1.1-0.2-1.6c-0.1-0.4-0.3-0.8-0.5-1.2c-0.2-0.3-0.5-0.6-0.7-0.8
		s-0.6-0.4-0.8-0.6c-0.7-0.3-1.4-0.5-2.3-0.6c-0.6,0-1,0.1-1.5,0.2c-0.4,0.1-0.8,0.3-1.1,0.5s-0.6,0.5-0.8,0.8
		c-0.2,0.3-0.4,0.6-0.6,0.9c-0.4,0.7-0.6,1.5-0.7,2.4v1.9c1.1-0.6,2.3-1,3.6-1c0.6,0,1.2,0.1,1.7,0.2v2.9c-0.2-0.1-0.5-0.2-0.8-0.2
		s-0.6,0-0.9,0c-0.9,0-1.6,0.2-2.3,0.6c-0.3,0.2-0.6,0.5-0.8,0.8c-0.2,0.3-0.4,0.7-0.5,1.1v5.2h-2.8V84.6c0-1.2,0.2-2.2,0.5-3
		s0.7-1.5,1.2-2c0.5-0.5,1-1,1.6-1.3c0.6-0.3,1.1-0.5,1.7-0.7c0.5-0.2,1-0.2,1.5-0.3c0.4,0,0.7-0.1,0.9-0.1h0.2
		C311.9,77.3,312.9,77.5,313.8,77.8z"/>
	<path id="XMLID_52_" class="st19" d="M327.5,77.3c0.1,0,0.4,0,0.8,0.1c0.4,0,0.8,0.1,1.2,0.3s0.9,0.4,1.4,0.6
		c0.5,0.3,1,0.7,1.4,1.2c0.4,0.5,0.8,1.1,1,1.8c0.3,0.7,0.4,1.6,0.4,2.7v6.3c-0.1,1.2-0.3,2.3-0.8,3.2c-0.2,0.4-0.5,0.8-0.8,1.2
		c-0.3,0.4-0.7,0.7-1.1,1s-1,0.5-1.6,0.7c-0.6,0.2-1.3,0.3-2.1,0.3c-0.8,0-1.5-0.1-2.1-0.3c-0.6-0.2-1.1-0.4-1.6-0.8
		c-0.5-0.3-0.8-0.7-1.1-1.1s-0.6-0.8-0.7-1.2c0.1-0.1,0.3-0.2,0.5-0.3c0.2-0.1,0.4-0.3,0.7-0.4c0.2-0.1,0.5-0.3,0.7-0.4
		c0.2-0.1,0.4-0.2,0.5-0.3c0.2,0.5,0.5,0.9,0.8,1.2c0.4,0.3,0.7,0.5,1.1,0.6c0.4,0.2,0.9,0.2,1.3,0.2c0.7-0.1,1.3-0.3,1.8-0.6
		c0.2-0.1,0.4-0.3,0.7-0.5c0.2-0.2,0.4-0.4,0.6-0.7c0.2-0.3,0.3-0.6,0.4-0.9c0.1-0.3,0.2-0.7,0.2-1.2v-6.3c-0.1-0.7-0.2-1.3-0.5-1.9
		c-0.1-0.2-0.3-0.5-0.4-0.7s-0.4-0.4-0.6-0.6c-0.2-0.2-0.5-0.3-0.9-0.4c-0.3-0.1-0.7-0.2-1.2-0.2c-0.6,0-1.1,0.1-1.6,0.2
		c-0.4,0.1-0.8,0.3-1.1,0.5c-0.3,0.2-0.6,0.5-0.8,0.9c-0.2,0.4-0.5,0.8-0.7,1.4h-2.9c0.1-0.9,0.3-1.6,0.6-2.4s0.8-1.3,1.3-1.8
		c0.6-0.5,1.3-0.9,2.1-1.2c0.8-0.3,1.8-0.4,3-0.4H327.5L327.5,77.3z"/>
	<path id="XMLID_54_" class="st19" d="M339.8,77.3c0.1,0,0.2,0,0.5,0c0.3,0,0.6,0.1,1,0.2c0.4,0.1,0.8,0.3,1.2,0.5
		c0.4,0.2,0.8,0.5,1.1,1s0.6,0.9,0.9,1.6c0.2,0.6,0.3,1.4,0.3,2.4v13.5H342V82.9c0-0.5-0.1-1-0.3-1.4c-0.1-0.2-0.2-0.3-0.3-0.5
		c-0.1-0.2-0.2-0.3-0.4-0.4s-0.3-0.2-0.5-0.3c-0.2-0.1-0.4-0.1-0.7-0.1c-0.5,0-0.9,0.1-1.2,0.2c-0.3,0.1-0.6,0.2-0.8,0.4
		c-0.2,0.1-0.4,0.3-0.5,0.4c-0.1,0.1-0.2,0.2-0.3,0.3l-1.9-2c0.3-0.4,0.7-0.7,1.1-1c0.4-0.3,0.9-0.5,1.5-0.7
		C338.2,77.4,338.9,77.3,339.8,77.3z"/>
	<path id="XMLID_56_" class="st19" d="M363.4,77.4v11.8v0.2c0,0.2,0,0.5-0.1,1c0,0.4-0.1,0.9-0.3,1.5s-0.4,1.1-0.6,1.7
		s-0.7,1.1-1.2,1.5c-0.5,0.5-1.1,0.8-1.9,1.1c-0.7,0.3-1.7,0.5-2.7,0.5H356c-0.8-0.1-1.5-0.2-2.2-0.4c-0.3-0.1-0.5-0.2-0.8-0.4
		c-0.3-0.1-0.5-0.3-0.7-0.5c-0.2-0.2-0.4-0.4-0.5-0.7c-0.1-0.3-0.2-0.6-0.2-0.9v2.7h-2.8v-19h2.8v11.8c0,0,0,0.2,0,0.5
		s0.1,0.6,0.2,0.9c0.1,0.4,0.2,0.7,0.4,1.1s0.4,0.8,0.8,1.1c0.3,0.3,0.7,0.6,1.3,0.8c0.5,0.2,1.1,0.3,1.9,0.3c0.1,0,0.2,0,0.5,0
		c0.3,0,0.6-0.1,0.9-0.2s0.7-0.2,1.1-0.4s0.7-0.5,1-0.8c0.3-0.4,0.6-0.8,0.8-1.4c0.2-0.5,0.3-1.2,0.3-2V77.4H363.4z"/>
	<path id="XMLID_58_" class="st19" d="M368.5,65.2c0.5,0.2,0.8,0.4,1.2,0.7c0.3,0.3,0.6,0.6,0.8,0.9c0.2,0.3,0.4,0.6,0.6,1
		c0.3,0.8,0.5,1.6,0.6,2.5v26.2h-2.8V70.2c0-0.2-0.1-0.5-0.2-0.8c-0.1-0.3-0.3-0.5-0.4-0.7c-0.2-0.2-0.4-0.5-0.6-0.7l-2.3,2.3
		l-2.7-3.7l1.8-1.6l1.2,1.8l1.4-2C367.5,64.8,368,65,368.5,65.2z"/>
	<path id="XMLID_60_" class="st19" d="M389.8,77.4v11.8v0.2c0,0.2,0,0.5-0.1,1c0,0.4-0.1,0.9-0.3,1.5s-0.4,1.1-0.6,1.7
		s-0.7,1.1-1.2,1.5c-0.5,0.5-1.1,0.8-1.9,1.1c-0.7,0.3-1.7,0.5-2.7,0.5h-0.7c-0.8-0.1-1.5-0.2-2.2-0.4c-0.3-0.1-0.5-0.2-0.8-0.4
		c-0.3-0.1-0.5-0.3-0.7-0.5c-0.2-0.2-0.4-0.4-0.5-0.7c-0.1-0.3-0.2-0.6-0.2-0.9v2.7h-2.8v-19h2.8v11.8c0,0,0,0.2,0,0.5
		s0.1,0.6,0.2,0.9c0.1,0.4,0.2,0.7,0.4,1.1s0.4,0.8,0.8,1.1c0.3,0.3,0.7,0.6,1.3,0.8c0.5,0.2,1.1,0.3,1.9,0.3c0.1,0,0.2,0,0.5,0
		c0.3,0,0.6-0.1,0.9-0.2s0.7-0.2,1.1-0.4s0.7-0.5,1-0.8c0.3-0.4,0.6-0.8,0.8-1.4c0.2-0.5,0.3-1.2,0.3-2V77.4H389.8z"/>
	<path id="XMLID_62_" class="st19" d="M387.8,69.8v5.4h-2.7v-5.4H387.8z"/>
	<path id="XMLID_64_" class="st19" d="M408,70.5V90c-0.1,1.3-0.5,2.4-1,3.4c-0.2,0.4-0.5,0.8-0.9,1.2s-0.8,0.8-1.3,1.1
		c-0.5,0.3-1.1,0.6-1.8,0.8c-0.7,0.2-1.5,0.3-2.4,0.3c-0.9,0-1.7-0.1-2.4-0.3c-0.7-0.2-1.3-0.5-1.8-0.8s-1-0.7-1.3-1.1
		s-0.7-0.8-0.9-1.2c-0.6-1-0.9-2.1-1-3.4V77.5h2.8V90c0,0.5,0.1,1,0.2,1.3s0.3,0.7,0.5,1c0.2,0.3,0.5,0.5,0.7,0.7
		c0.3,0.2,0.6,0.4,0.8,0.5c0.7,0.3,1.4,0.5,2.3,0.5c0.9,0,1.6-0.2,2.3-0.5c0.3-0.1,0.6-0.3,0.8-0.5c0.3-0.2,0.5-0.4,0.7-0.7
		c0.2-0.3,0.4-0.6,0.5-1s0.2-0.8,0.2-1.3V70.5H408z"/>
	<path id="XMLID_66_" class="st19" d="M421.2,77.8c0.8,0.3,1.5,0.7,2.1,1.2c0.5,0.5,1,1,1.3,1.6s0.5,1.1,0.7,1.7s0.3,1,0.3,1.5
		c0,0.4,0.1,0.7,0.1,0.9v0.2v11.6h-2.8v-5.6c0-0.5-0.1-1-0.4-1.4c-0.2-0.4-0.6-0.7-0.9-0.9c-0.4-0.2-0.8-0.4-1.2-0.6
		c-0.4-0.1-0.8-0.2-1.2-0.3s-0.8-0.1-1.3-0.1c0,0-0.2,0-0.3,0c-0.2,0-0.4,0.1-0.7,0.1s-0.6,0.2-0.9,0.3c-0.3,0.1-0.6,0.3-0.9,0.5
		s-0.6,0.5-0.8,0.9c-0.2,0.4-0.4,0.8-0.5,1.3c0,0.2-0.1,0.3-0.1,0.5c0,0.4,0.1,0.7,0.3,1c0.2,0.3,0.5,0.5,0.8,0.7
		c0.3,0.2,0.7,0.3,1,0.5c0.4,0.1,0.8,0.2,1.1,0.3c0.4,0.1,0.7,0.1,1,0.1c0.3,0,0.5,0,0.7,0h0.2v2.7h-3.2c-0.7,0-1.3-0.1-1.9-0.4
		c-0.6-0.3-1.1-0.7-1.5-1.2c-0.4-0.5-0.8-1.1-1-1.7c-0.2-0.6-0.4-1.3-0.4-2c0-0.7,0.2-1.4,0.5-2.1c0.3-0.7,0.8-1.4,1.6-2.1
		c0.4-0.4,0.9-0.7,1.3-1c0.5-0.3,0.9-0.5,1.4-0.7s0.9-0.3,1.4-0.3c0.4-0.1,0.9-0.1,1.3-0.1c0.6,0,1.3,0.1,1.8,0.2
		c0.6,0.1,1.1,0.3,1.5,0.4c0.5,0.2,0.9,0.4,1.3,0.6v-1.1c0-0.6-0.1-1.1-0.2-1.6c-0.1-0.4-0.3-0.8-0.5-1.2c-0.2-0.3-0.5-0.6-0.7-0.8
		c-0.3-0.2-0.6-0.4-0.8-0.6c-0.7-0.3-1.4-0.5-2.3-0.6c-0.8,0-1.4,0.1-1.9,0.4c-0.5,0.3-1,0.6-1.3,1s-0.6,0.8-0.8,1.2
		c-0.2,0.4-0.3,0.8-0.4,1.1h-3c0.1-1,0.3-1.9,0.6-2.7c0.3-0.7,0.7-1.3,1.2-1.8c0.5-0.5,1-0.9,1.5-1.2c0.6-0.3,1.1-0.5,1.6-0.6
		c0.5-0.1,1-0.2,1.4-0.3c0.4,0,0.7-0.1,0.9-0.1h0.2C419.4,77.3,420.4,77.5,421.2,77.8z"/>
	<path id="XMLID_68_" class="st19" d="M443.3,89.9c-0.1,1.3-0.4,2.4-1,3.4c-0.2,0.4-0.5,0.8-0.9,1.2c-0.4,0.4-0.8,0.8-1.3,1.1
		s-1.1,0.6-1.8,0.8c-0.7,0.2-1.5,0.3-2.4,0.3c-0.9,0-1.7-0.1-2.4-0.3c-0.7-0.2-1.3-0.5-1.8-0.8c-0.5-0.3-1-0.7-1.3-1.1
		c-0.4-0.4-0.7-0.8-0.9-1.2c-0.6-1-0.9-2.1-1-3.4V86h5.3v2.7h-2.5v1.2c0,0.5,0.1,1,0.2,1.4c0.1,0.4,0.3,0.7,0.5,1
		c0.2,0.3,0.5,0.5,0.7,0.7c0.3,0.2,0.6,0.4,0.8,0.5c0.7,0.3,1.4,0.5,2.3,0.5c0.9,0,1.6-0.2,2.3-0.5c0.3-0.1,0.6-0.3,0.8-0.5
		c0.3-0.2,0.5-0.4,0.7-0.7c0.2-0.3,0.4-0.6,0.5-1c0.1-0.4,0.2-0.9,0.2-1.4v-5.7c0-0.5-0.1-0.9-0.2-1.3s-0.3-0.7-0.5-1
		c-0.2-0.3-0.5-0.5-0.7-0.7c-0.3-0.2-0.6-0.3-0.8-0.5c-0.7-0.3-1.4-0.5-2.3-0.5h-0.2c-0.2,0-0.5,0-0.9,0.1s-0.8,0.2-1.2,0.4
		s-0.8,0.5-1.2,0.9c-0.4,0.4-0.7,0.9-0.9,1.5h-2.8c0.1-0.3,0.2-0.7,0.3-1.1c0.1-0.4,0.3-0.8,0.6-1.2c0.2-0.4,0.6-0.8,0.9-1.2
		c0.4-0.4,0.8-0.8,1.3-1.1c0.5-0.3,1.1-0.6,1.8-0.8s1.5-0.3,2.4-0.3c0.9,0,1.7,0.1,2.4,0.3c0.7,0.2,1.3,0.5,1.8,0.8s1,0.7,1.3,1.1
		c0.4,0.4,0.7,0.8,0.9,1.2c0.6,1,0.9,2.1,1,3.4V89.9z"/>
	<path id="XMLID_70_" class="st19" d="M458.1,96.4V84.5c-0.1-0.8-0.3-1.5-0.6-2.2c-0.2-0.3-0.3-0.5-0.6-0.8
		c-0.2-0.3-0.5-0.5-0.9-0.7c-0.3-0.2-0.7-0.4-1.2-0.5c-0.5-0.1-1-0.2-1.6-0.2s-1.1,0.1-1.6,0.2c-0.5,0.1-0.8,0.3-1.2,0.5
		c-0.3,0.2-0.6,0.4-0.9,0.7c-0.2,0.3-0.4,0.5-0.6,0.8c-0.4,0.6-0.6,1.4-0.6,2.2v6.2c0,0.4,0.1,0.8,0.3,1.1c0.1,0.3,0.3,0.6,0.4,1
		s0.4,0.6,0.7,0.8c0.4,0.3,0.8,0.4,1.1,0.4c0.3,0,0.6-0.1,0.9-0.2c0.3-0.2,0.5-0.3,0.7-0.5l1.8,1.9c-0.3,0.3-0.6,0.5-1,0.7
		c-0.3,0.2-0.7,0.4-1.1,0.5c-0.4,0.2-0.9,0.2-1.4,0.2c-0.2,0-0.3,0-0.5,0s-0.4-0.1-0.6-0.1c-0.7-0.2-1.3-0.4-1.8-0.8
		c-0.5-0.4-1-0.8-1.3-1.4c-0.4-0.5-0.6-1.1-0.8-1.7c-0.2-0.6-0.3-1.3-0.3-1.9v-6.2c0.1-1.1,0.3-2.1,0.7-2.9s0.8-1.5,1.3-2
		c0.5-0.5,1-0.9,1.6-1.2c0.6-0.3,1.1-0.5,1.6-0.7c0.5-0.1,1-0.2,1.4-0.3c0.4,0,0.7-0.1,0.9-0.1h0.2h0.2c0.2,0,0.5,0,0.9,0.1
		c0.4,0,0.9,0.1,1.4,0.3c0.5,0.1,1.1,0.4,1.6,0.7c0.6,0.3,1.1,0.7,1.6,1.2c0.5,0.5,0.9,1.2,1.3,2c0.4,0.8,0.6,1.8,0.7,2.9v11.9
		H458.1z"/>
	<path id="XMLID_72_" class="st19" d="M476.2,77.9c0.8,0.4,1.5,0.8,2.1,1.3c0.5,0.5,1,1.1,1.3,1.7c0.3,0.6,0.5,1.2,0.7,1.7
		c0.1,0.5,0.2,1,0.3,1.4s0,0.6,0,0.7v11.8h-2.8V84.6c0-0.8-0.1-1.4-0.3-1.9c-0.2-0.5-0.5-0.9-0.8-1.3s-0.7-0.6-1-0.8
		c-0.4-0.2-0.7-0.3-1.1-0.4s-0.6-0.1-0.9-0.2c-0.3,0-0.4,0-0.5,0c-0.6,0-1.1,0.1-1.5,0.2c-0.4,0.1-0.8,0.3-1.1,0.5
		c-0.3,0.2-0.6,0.5-0.8,0.7c-0.2,0.3-0.4,0.5-0.5,0.8c-0.3,0.7-0.5,1.4-0.6,2.2v11.8H464v-2.7h1.8V81.9c0.4-0.7,0.8-1.3,1.3-1.8
		c0.5-0.5,0.9-0.9,1.4-1.3c0.5-0.3,1-0.6,1.5-0.8c0.5-0.2,0.9-0.3,1.3-0.4s0.8-0.2,1.1-0.2s0.5,0,0.7,0h0.2
		C474.3,77.3,475.4,77.5,476.2,77.9z"/>
	<path id="XMLID_74_" class="st19" d="M474.8,71.1v1.4h7.1v2.7h-8.5c-0.3,0-0.5-0.1-0.7-0.2c-0.2-0.1-0.3-0.3-0.4-0.4
		c-0.1-0.2-0.2-0.4-0.2-0.6v-2.8H474.8z"/>
	<path id="XMLID_76_" class="st19" d="M498.5,77.4v13.7c0,0.8-0.1,1.5-0.4,2.1c-0.2,0.6-0.5,1.1-0.9,1.5s-0.8,0.7-1.2,0.9
		c-0.4,0.2-0.9,0.4-1.3,0.5c-0.4,0.1-0.8,0.2-1.1,0.2c-0.3,0-0.6,0.1-0.7,0.1h-3.5c-0.9,0-1.7-0.1-2.4-0.3c-0.7-0.2-1.2-0.4-1.7-0.8
		c-0.4-0.3-0.8-0.7-1.1-1s-0.5-0.8-0.6-1.1s-0.2-0.7-0.3-1.1c0-0.3-0.1-0.6-0.1-0.8c0-0.8,0.1-1.4,0.4-1.9c0.3-0.5,0.6-0.9,0.9-1.2
		s0.7-0.6,1-0.7c0.3-0.2,0.5-0.2,0.6-0.3c-0.4-0.1-0.7-0.2-1-0.3s-0.5-0.3-0.8-0.6s-0.4-0.5-0.5-0.7s-0.3-0.5-0.4-0.7
		c-0.2-0.6-0.4-1.2-0.4-1.9c0-0.7,0.1-1.3,0.2-1.8c0.1-0.5,0.3-1,0.5-1.4c0.2-0.4,0.5-0.7,0.7-1c0.3-0.3,0.6-0.5,0.9-0.7
		c0.7-0.4,1.5-0.6,2.3-0.7h3.8v2.7h-2.3c-0.4,0-0.8,0-1.1,0.1c-0.3,0.1-0.6,0.2-0.8,0.3c-0.2,0.1-0.4,0.3-0.6,0.5
		c-0.2,0.2-0.3,0.3-0.4,0.5c-0.2,0.4-0.4,0.9-0.4,1.4c0,0.5,0.1,0.9,0.2,1.2c0.2,0.3,0.3,0.6,0.6,0.8c0.2,0.2,0.5,0.4,0.8,0.5
		c0.3,0.1,0.5,0.2,0.8,0.3c0.2,0.1,0.5,0.1,0.6,0.1s0.3,0,0.3,0h2.3v2.7h-2.3c-0.5,0-0.9,0.1-1.3,0.2c-0.3,0.1-0.6,0.3-0.9,0.4
		s-0.4,0.3-0.5,0.5s-0.2,0.4-0.3,0.6s-0.1,0.4-0.1,0.5c0,0.1,0,0.2,0,0.3c0,0.5,0.1,0.9,0.2,1.2c0.1,0.3,0.3,0.6,0.5,0.8
		c0.2,0.2,0.4,0.4,0.7,0.5c0.2,0.1,0.5,0.2,0.7,0.3c0.2,0.1,0.4,0.1,0.6,0.1s0.3,0,0.4,0h0.1h3.4c0.7,0,1.2-0.1,1.6-0.4
		c0.4-0.3,0.7-0.6,0.9-0.9c0.2-0.4,0.4-0.8,0.4-1.3V77.4H498.5z"/>
	<path id="XMLID_78_" class="st19" d="M96.2,134.8v-19.2c0-0.4,0.1-0.9,0.2-1.2s0.2-0.7,0.4-1.1c0.2-0.3,0.4-0.7,0.7-1
		c0.3-0.3,0.5-0.6,0.8-0.9c0.3-0.3,0.5-0.6,0.7-0.8s0.3-0.5,0.4-0.7c0.1-0.2,0.2-0.4,0.2-0.6s0-0.4,0-0.6c0-0.5-0.1-0.9-0.2-1.3
		c-0.2-0.4-0.4-0.7-0.7-0.9c-0.3-0.2-0.6-0.4-1-0.5c-0.4-0.1-0.7-0.2-1.1-0.2c-0.8,0-1.3,0.1-1.7,0.2c-0.4,0.1-0.7,0.3-0.9,0.5
		c-0.2,0.2-0.3,0.4-0.4,0.7h-2.4c0,0,0,0,0-0.1V107c0-0.1,0-0.3,0.1-0.6c0-0.2,0.1-0.5,0.2-0.8c0.1-0.3,0.3-0.6,0.5-0.8
		s0.6-0.6,1-0.8c0.4-0.2,0.9-0.4,1.5-0.6s1.3-0.2,2.2-0.2c0.9,0,1.6,0.1,2.3,0.3c0.6,0.2,1.1,0.4,1.5,0.8c0.4,0.3,0.7,0.7,1,1.1
		c0.2,0.4,0.4,0.8,0.5,1.2c0.1,0.4,0.2,0.8,0.2,1.1c0,0.3,0,0.6,0,0.8v0.3c0,0.3,0,0.5-0.1,0.8c0,0.3-0.1,0.6-0.3,0.9
		c-0.1,0.3-0.3,0.7-0.5,1c-0.2,0.4-0.5,0.8-0.9,1.2c-0.3,0.4-0.6,0.8-0.8,1.1c-0.2,0.3-0.3,0.6-0.4,0.9c-0.1,0.3-0.2,0.6-0.2,0.8
		v19.2H96.2z"/>
	<path id="XMLID_80_" class="st19" d="M106.4,115.8v11.8c0,0.8,0.1,1.5,0.3,2c0.2,0.5,0.5,1,0.8,1.4c0.3,0.4,0.7,0.6,1,0.8
		s0.7,0.3,1.1,0.4c0.3,0.1,0.6,0.1,0.9,0.2c0.3,0,0.4,0,0.5,0c0.7,0,1.3-0.1,1.9-0.3c0.5-0.2,0.9-0.5,1.3-0.8
		c0.3-0.3,0.6-0.7,0.8-1.1s0.3-0.8,0.4-1.1c0.1-0.4,0.1-0.7,0.2-0.9c0-0.3,0-0.4,0-0.5v-11.8h2.8v19h-2.8v-2.7
		c0,0.4-0.1,0.7-0.2,0.9c-0.1,0.3-0.3,0.5-0.5,0.7c-0.2,0.2-0.5,0.4-0.7,0.5c-0.3,0.1-0.5,0.3-0.8,0.4c-0.6,0.2-1.4,0.4-2.2,0.4
		h-0.7c-1.1,0-2-0.2-2.7-0.5c-0.7-0.3-1.4-0.7-1.9-1.1c-0.5-0.5-0.9-1-1.2-1.5c-0.3-0.6-0.5-1.1-0.6-1.7s-0.2-1-0.3-1.5
		c0-0.4-0.1-0.8-0.1-1v-0.2v-11.8H106.4z"/>
	<path id="XMLID_82_" class="st19" d="M122.1,134.8v-14.5c0.4-0.7,0.8-1.3,1.3-1.8c0.5-0.5,0.9-0.9,1.4-1.3c0.5-0.3,1-0.6,1.5-0.8
		c0.5-0.2,0.9-0.3,1.3-0.4c0.4-0.1,0.8-0.2,1.1-0.2s0.5,0,0.7,0h0.2c0.9,0,1.7,0.1,2.4,0.4c0.7,0.2,1.3,0.5,1.8,0.8
		c0.5,0.3,1,0.7,1.3,1.1c0.4,0.4,0.7,0.8,0.9,1.3c0.2,0.4,0.4,0.9,0.5,1.3c0.1,0.4,0.2,0.8,0.3,1.2c0.1,0.3,0.1,0.6,0.1,0.9
		c0,0.2,0,0.4,0,0.5v11.8h-2.8v-11.8c0-0.8-0.1-1.4-0.3-1.9c-0.2-0.5-0.5-0.9-0.8-1.3s-0.7-0.6-1.1-0.8c-0.4-0.2-0.7-0.3-1.1-0.4
		c-0.3-0.1-0.6-0.1-0.9-0.2c-0.3,0-0.4,0-0.5,0c-0.6,0-1.1,0.1-1.5,0.2c-0.4,0.1-0.8,0.3-1.1,0.5c-0.3,0.2-0.6,0.5-0.8,0.7
		c-0.2,0.3-0.4,0.5-0.5,0.8c-0.3,0.7-0.5,1.4-0.6,2.2v11.8H122.1z"/>
	<path id="XMLID_84_" class="st19" d="M143.3,115.7c0.1,0,0.2,0,0.5,0c0.3,0,0.6,0.1,1,0.2s0.8,0.3,1.2,0.5c0.4,0.2,0.8,0.5,1.1,1
		s0.6,0.9,0.9,1.6s0.3,1.4,0.3,2.4v13.5h-2.8v-13.5c0-0.5-0.1-1-0.3-1.4c-0.1-0.2-0.2-0.3-0.3-0.5c-0.1-0.2-0.2-0.3-0.4-0.4
		s-0.3-0.2-0.5-0.3c-0.2-0.1-0.4-0.1-0.7-0.1c-0.5,0-0.9,0.1-1.2,0.2c-0.3,0.1-0.6,0.2-0.8,0.4c-0.2,0.1-0.4,0.3-0.5,0.4
		c-0.1,0.1-0.2,0.2-0.3,0.3l-1.9-2c0.3-0.4,0.7-0.7,1.1-1c0.4-0.3,0.9-0.5,1.5-0.7C141.8,115.8,142.5,115.7,143.3,115.7z"/>
	<path id="XMLID_86_" class="st19" d="M162.9,120.7l-1.2-0.8c-0.3-0.2-0.6-0.4-1-0.5c-0.4-0.2-0.7-0.3-1.1-0.5
		c-0.4-0.1-0.7-0.2-1.1-0.3s-0.6-0.1-0.8-0.1c-0.4,0-0.9,0-1.3,0.1s-0.8,0.2-1.1,0.4c-0.3,0.2-0.6,0.5-0.7,0.8
		c-0.2,0.4-0.3,0.8-0.3,1.4s0.2,1,0.5,1.4c0.3,0.3,0.7,0.6,1.2,0.8c0.5,0.2,1.1,0.3,1.7,0.4c0.6,0.1,1.2,0.2,1.9,0.3
		s1.2,0.3,1.8,0.6c0.6,0.3,1.1,0.7,1.5,1.2c0.4,0.5,0.8,1,1.1,1.6c0.3,0.6,0.4,1.2,0.4,1.9c0,1-0.2,1.8-0.5,2.5
		c-0.4,0.7-0.8,1.3-1.4,1.8c-0.6,0.5-1.3,0.8-2.1,1c-0.8,0.2-1.7,0.3-2.6,0.3c-1.3,0-2.4-0.1-3.3-0.4c-0.9-0.3-1.7-0.6-2.3-1
		c-0.7-0.4-1.3-0.9-1.7-1.4l1.9-1.8c0.2,0.2,0.5,0.5,0.9,0.7c0.4,0.2,0.8,0.4,1.3,0.6c0.5,0.2,1,0.3,1.5,0.5
		c0.5,0.1,1.1,0.2,1.7,0.2c0.6,0,1.1-0.1,1.6-0.2c0.5-0.1,0.9-0.4,1.2-0.6c0.3-0.3,0.6-0.6,0.8-1c0.2-0.4,0.3-0.8,0.3-1.2
		c0-0.5-0.1-0.8-0.2-1.1c-0.2-0.3-0.3-0.5-0.5-0.7c-0.2-0.2-0.4-0.3-0.6-0.3c-0.2-0.1-0.4-0.1-0.5-0.1c0,0-0.2,0-0.6-0.1
		c-0.3-0.1-0.7-0.1-1.1-0.2c-0.4-0.1-0.8-0.1-1.3-0.2s-0.7-0.1-1-0.2c-0.1,0-0.3-0.1-0.6-0.1s-0.5-0.2-0.9-0.3
		c-0.3-0.1-0.6-0.3-1-0.6c-0.3-0.2-0.6-0.5-0.9-0.9c-0.3-0.4-0.5-0.8-0.6-1.3c-0.2-0.5-0.2-1.1-0.2-1.8c0-1,0.2-1.9,0.5-2.6
		c0.4-0.7,0.8-1.3,1.4-1.7c0.6-0.4,1.3-0.8,2-1c0.7-0.2,1.5-0.3,2.2-0.3c0.8,0,1.5,0.1,2.1,0.3c0.6,0.2,1.2,0.4,1.7,0.6
		c0.6,0.2,1,0.5,1.5,0.8l1.5,1L162.9,120.7z"/>
	<path id="XMLID_88_" class="st19" d="M179.1,134.8V123c0-0.7-0.1-1.4-0.3-1.9c-0.2-0.5-0.5-0.9-0.8-1.3s-0.7-0.6-1-0.8
		c-0.4-0.2-0.7-0.3-1.1-0.4c-0.3-0.1-0.6-0.1-0.9-0.1c-0.3,0-0.4,0-0.5,0c-0.7,0-1.4,0.1-1.9,0.3c-0.5,0.2-0.9,0.5-1.3,0.8
		c-0.3,0.3-0.6,0.7-0.8,1c-0.2,0.4-0.3,0.7-0.4,1.1c-0.1,0.3-0.1,0.6-0.2,0.9s0,0.4,0,0.4v11.8h-2.8v-19h2.8v2.7
		c0-0.3,0.1-0.6,0.2-0.9c0.1-0.3,0.3-0.5,0.5-0.7c0.2-0.2,0.5-0.4,0.7-0.5c0.3-0.1,0.5-0.2,0.8-0.3c0.6-0.2,1.4-0.3,2.2-0.4h0.7
		c1.1,0,2,0.1,2.7,0.4c0.7,0.3,1.4,0.7,1.9,1.1c0.5,0.5,0.9,1,1.2,1.5c0.3,0.6,0.5,1.1,0.6,1.6c0.1,0.5,0.2,1,0.3,1.4
		c0,0.4,0.1,0.8,0.1,1v0.2v11.8H179.1z"/>
	<path id="XMLID_90_" class="st19" d="M177,107.7c0.5,0,0.9,0.1,1.3,0.3c0.4,0.2,0.8,0.4,1.1,0.7c0.3,0.3,0.5,0.7,0.7,1.1
		c0.2,0.4,0.3,0.8,0.3,1.3c0,0.5-0.1,0.9-0.3,1.3c-0.2,0.4-0.4,0.8-0.7,1.1c-0.3,0.3-0.7,0.5-1.1,0.7s-0.8,0.3-1.3,0.3
		c-0.5,0-0.9-0.1-1.3-0.3c-0.4-0.2-0.8-0.4-1.1-0.7c-0.3-0.3-0.5-0.7-0.7-1.1c-0.2-0.4-0.3-0.8-0.3-1.3c0-0.5,0.1-0.9,0.3-1.3
		c0.2-0.4,0.4-0.8,0.7-1.1s0.7-0.5,1.1-0.7C176.1,107.8,176.5,107.7,177,107.7z M177,112.1c0.3,0,0.6-0.1,0.8-0.3
		c0.2-0.2,0.3-0.5,0.3-0.8c0-0.3-0.1-0.6-0.3-0.8c-0.2-0.2-0.5-0.3-0.8-0.3c-0.3,0-0.6,0.1-0.8,0.3c-0.2,0.2-0.3,0.5-0.3,0.8
		c0,0.3,0.1,0.6,0.3,0.8C176.4,112,176.7,112.1,177,112.1z M189,115.7c0.1,0,0.2,0,0.5,0c0.3,0,0.6,0.1,1,0.2s0.8,0.3,1.2,0.5
		c0.4,0.2,0.8,0.6,1.1,1c0.3,0.4,0.6,0.9,0.9,1.6s0.3,1.4,0.3,2.3v13.5h-2.8v-13.5c0-0.5-0.1-1-0.3-1.4c-0.1-0.2-0.2-0.3-0.3-0.5
		c-0.1-0.2-0.2-0.3-0.4-0.4s-0.3-0.2-0.5-0.3c-0.2-0.1-0.4-0.1-0.7-0.1c-0.5,0-0.9,0.1-1.2,0.2c-0.3,0.1-0.6,0.2-0.8,0.4
		c-0.2,0.1-0.4,0.3-0.5,0.4c-0.1,0.1-0.2,0.2-0.3,0.3l-1.9-2c0.3-0.4,0.7-0.7,1.1-1c0.4-0.3,0.9-0.5,1.5-0.7
		C187.4,115.8,188.1,115.7,189,115.7z"/>
	<path id="XMLID_94_" class="st19" d="M206,124.1c0.6,0.1,1.2,0.3,1.8,0.6s1.1,0.7,1.5,1.2c0.4,0.5,0.8,1,1.1,1.6
		c0.3,0.6,0.4,1.2,0.4,1.9c0,1-0.2,1.8-0.5,2.5c-0.4,0.7-0.8,1.3-1.4,1.8c-0.6,0.5-1.3,0.8-2.1,1c-0.8,0.2-1.7,0.3-2.6,0.3
		c-0.8,0-1.5-0.1-2.2-0.2s-1.3-0.3-1.8-0.5c-0.5-0.2-1-0.4-1.4-0.6c-0.4-0.2-0.7-0.4-1-0.6v-4.4h2.8v2.9c0.5,0.2,1.1,0.4,1.7,0.5
		c0.6,0.1,1.2,0.2,1.8,0.2c0.6,0,1.1-0.1,1.6-0.2c0.5-0.1,0.9-0.4,1.2-0.6c0.3-0.3,0.6-0.6,0.8-1c0.2-0.4,0.3-0.8,0.3-1.2
		c0-0.5-0.1-0.8-0.2-1.1c-0.2-0.3-0.3-0.5-0.5-0.7c-0.2-0.2-0.4-0.3-0.6-0.3c-0.2-0.1-0.4-0.1-0.5-0.1c0,0-0.2,0-0.6-0.1
		c-0.3-0.1-0.7-0.1-1.1-0.2c-0.4-0.1-0.8-0.1-1.3-0.2c-0.4-0.1-0.7-0.1-1-0.2c-0.1,0-0.3-0.1-0.6-0.2c-0.3-0.1-0.5-0.2-0.9-0.3
		s-0.6-0.3-1-0.6s-0.6-0.5-0.9-0.9c-0.3-0.4-0.5-0.8-0.6-1.3c-0.2-0.5-0.2-1.1-0.2-1.8c0-1,0.2-1.9,0.5-2.6c0.4-0.7,0.8-1.3,1.4-1.7
		c0.6-0.4,1.3-0.8,2-1s1.5-0.3,2.2-0.3c0.8,0,1.5,0.1,2.1,0.3c0.6,0.2,1.2,0.4,1.7,0.6c0.6,0.2,1,0.5,1.5,0.8l1.5,1l-1.6,2.4
		l-1.2-0.8c-0.3-0.2-0.6-0.4-1-0.5c-0.4-0.2-0.7-0.3-1.1-0.5c-0.4-0.1-0.7-0.2-1.1-0.3s-0.6-0.1-0.8-0.1c-0.4,0-0.9,0-1.3,0.1
		s-0.8,0.2-1.1,0.4c-0.3,0.2-0.6,0.5-0.7,0.8c-0.2,0.4-0.3,0.8-0.3,1.4c0,0.6,0.2,1,0.5,1.4c0.3,0.3,0.7,0.6,1.2,0.8
		s1.1,0.3,1.7,0.4S205.3,124,206,124.1z"/>
	<path id="XMLID_96_" class="st19" d="M206.3,139.3H205v-2.7h2.6c0.4,0,0.7,0.1,1,0.4c0.3,0.3,0.4,0.6,0.4,1v5.6h-2.7V139.3z"/>
	<path id="XMLID_98_" class="st19" d="M224,120.7l-1.2-0.8c-0.3-0.2-0.6-0.4-1-0.5c-0.4-0.2-0.7-0.3-1.1-0.5
		c-0.4-0.1-0.7-0.2-1.1-0.3s-0.6-0.1-0.8-0.1c-0.4,0-0.9,0-1.3,0.1s-0.8,0.2-1.1,0.4c-0.3,0.2-0.6,0.5-0.7,0.8
		c-0.2,0.4-0.3,0.8-0.3,1.4s0.2,1,0.5,1.4c0.3,0.3,0.7,0.6,1.2,0.8c0.5,0.2,1.1,0.3,1.7,0.4c0.6,0.1,1.2,0.2,1.9,0.3
		s1.2,0.3,1.8,0.6c0.6,0.3,1.1,0.7,1.5,1.2c0.4,0.5,0.8,1,1.1,1.6c0.3,0.6,0.4,1.2,0.4,1.9c0,1-0.2,1.8-0.5,2.5
		c-0.4,0.7-0.8,1.3-1.4,1.8c-0.6,0.5-1.3,0.8-2.1,1c-0.8,0.2-1.7,0.3-2.6,0.3c-1.3,0-2.4-0.1-3.3-0.4c-0.9-0.3-1.7-0.6-2.3-1
		c-0.7-0.4-1.3-0.9-1.7-1.4l1.9-1.8c0.2,0.2,0.5,0.5,0.9,0.7c0.4,0.2,0.8,0.4,1.3,0.6c0.5,0.2,1,0.3,1.5,0.5
		c0.5,0.1,1.1,0.2,1.7,0.2c0.6,0,1.1-0.1,1.6-0.2c0.5-0.1,0.9-0.4,1.2-0.6c0.3-0.3,0.6-0.6,0.8-1c0.2-0.4,0.3-0.8,0.3-1.2
		c0-0.5-0.1-0.8-0.2-1.1c-0.2-0.3-0.3-0.5-0.5-0.7c-0.2-0.2-0.4-0.3-0.6-0.3c-0.2-0.1-0.4-0.1-0.5-0.1c0,0-0.2,0-0.6-0.1
		c-0.3-0.1-0.7-0.1-1.1-0.2c-0.4-0.1-0.8-0.1-1.3-0.2s-0.7-0.1-1-0.2c-0.1,0-0.3-0.1-0.6-0.1s-0.5-0.2-0.9-0.3
		c-0.3-0.1-0.6-0.3-1-0.6c-0.3-0.2-0.6-0.5-0.9-0.9c-0.3-0.4-0.5-0.8-0.6-1.3c-0.2-0.5-0.2-1.1-0.2-1.8c0-1,0.2-1.9,0.5-2.6
		c0.4-0.7,0.8-1.3,1.4-1.7c0.6-0.4,1.3-0.8,2-1c0.7-0.2,1.5-0.3,2.2-0.3c0.8,0,1.5,0.1,2.1,0.3c0.6,0.2,1.2,0.4,1.7,0.6
		c0.6,0.2,1,0.5,1.5,0.8l1.5,1L224,120.7z"/>
	<path id="XMLID_100_" class="st19" d="M228.4,134.8v-14.5c0.4-0.7,0.8-1.3,1.3-1.8c0.5-0.5,0.9-0.9,1.4-1.3c0.5-0.3,1-0.6,1.5-0.8
		c0.5-0.2,0.9-0.3,1.3-0.4c0.4-0.1,0.8-0.2,1.1-0.2s0.5,0,0.7,0h0.2c0.9,0,1.7,0.1,2.4,0.4c0.7,0.2,1.3,0.5,1.8,0.8
		c0.5,0.3,1,0.7,1.3,1.1c0.4,0.4,0.7,0.8,0.9,1.3c0.2,0.4,0.4,0.9,0.5,1.3c0.1,0.4,0.2,0.8,0.3,1.2c0.1,0.3,0.1,0.6,0.1,0.9
		c0,0.2,0,0.4,0,0.5v11.8h-2.8v-11.8c0-0.8-0.1-1.4-0.3-1.9c-0.2-0.5-0.5-0.9-0.8-1.3s-0.7-0.6-1.1-0.8c-0.4-0.2-0.7-0.3-1.1-0.4
		c-0.3-0.1-0.6-0.1-0.9-0.2c-0.3,0-0.4,0-0.5,0c-0.6,0-1.1,0.1-1.5,0.2c-0.4,0.1-0.8,0.3-1.1,0.5c-0.3,0.2-0.6,0.5-0.8,0.7
		c-0.2,0.3-0.4,0.5-0.5,0.8c-0.3,0.7-0.5,1.4-0.6,2.2v11.8H228.4z"/>
	<path id="XMLID_102_" class="st19" d="M257.5,120.7l-1.2-0.8c-0.3-0.2-0.6-0.4-1-0.5c-0.4-0.2-0.7-0.3-1.1-0.5
		c-0.4-0.1-0.7-0.2-1.1-0.3s-0.6-0.1-0.8-0.1c-0.4,0-0.9,0-1.3,0.1s-0.8,0.2-1.1,0.4c-0.3,0.2-0.6,0.5-0.7,0.8
		c-0.2,0.4-0.3,0.8-0.3,1.4s0.2,1,0.5,1.4c0.3,0.3,0.7,0.6,1.2,0.8c0.5,0.2,1.1,0.3,1.7,0.4c0.6,0.1,1.2,0.2,1.9,0.3
		s1.2,0.3,1.8,0.6c0.6,0.3,1.1,0.7,1.5,1.2c0.4,0.5,0.8,1,1.1,1.6c0.3,0.6,0.4,1.2,0.4,1.9c0,1-0.2,1.8-0.5,2.5
		c-0.4,0.7-0.8,1.3-1.4,1.8c-0.6,0.5-1.3,0.8-2.1,1c-0.8,0.2-1.7,0.3-2.6,0.3c-1.3,0-2.4-0.1-3.3-0.4c-0.9-0.3-1.7-0.6-2.3-1
		c-0.7-0.4-1.3-0.9-1.7-1.4l1.9-1.8c0.2,0.2,0.5,0.5,0.9,0.7c0.4,0.2,0.8,0.4,1.3,0.6c0.5,0.2,1,0.3,1.5,0.5
		c0.5,0.1,1.1,0.2,1.7,0.2c0.6,0,1.1-0.1,1.6-0.2c0.5-0.1,0.9-0.4,1.2-0.6c0.3-0.3,0.6-0.6,0.8-1c0.2-0.4,0.3-0.8,0.3-1.2
		c0-0.5-0.1-0.8-0.2-1.1c-0.2-0.3-0.3-0.5-0.5-0.7c-0.2-0.2-0.4-0.3-0.6-0.3c-0.2-0.1-0.4-0.1-0.5-0.1c0,0-0.2,0-0.6-0.1
		c-0.3-0.1-0.7-0.1-1.1-0.2c-0.4-0.1-0.8-0.1-1.3-0.2s-0.7-0.1-1-0.2c-0.1,0-0.3-0.1-0.6-0.1s-0.5-0.2-0.9-0.3
		c-0.3-0.1-0.6-0.3-1-0.6c-0.3-0.2-0.6-0.5-0.9-0.9c-0.3-0.4-0.5-0.8-0.6-1.3c-0.2-0.5-0.2-1.1-0.2-1.8c0-1,0.2-1.9,0.5-2.6
		c0.4-0.7,0.8-1.3,1.4-1.7c0.6-0.4,1.3-0.8,2-1c0.7-0.2,1.5-0.3,2.2-0.3c0.8,0,1.5,0.1,2.1,0.3c0.6,0.2,1.2,0.4,1.7,0.6
		c0.6,0.2,1,0.5,1.5,0.8l1.5,1L257.5,120.7z"/>
	<path id="XMLID_104_" class="st19" d="M272.5,120.7l-1.2-0.8c-0.3-0.2-0.6-0.4-1-0.5c-0.4-0.2-0.7-0.3-1.1-0.5
		c-0.4-0.1-0.7-0.2-1.1-0.3s-0.6-0.1-0.8-0.1c-0.4,0-0.9,0-1.3,0.1s-0.8,0.2-1.1,0.4c-0.3,0.2-0.6,0.5-0.7,0.8
		c-0.2,0.4-0.3,0.8-0.3,1.4s0.2,1,0.5,1.4c0.3,0.3,0.7,0.6,1.2,0.8c0.5,0.2,1.1,0.3,1.7,0.4c0.6,0.1,1.2,0.2,1.9,0.3
		s1.2,0.3,1.8,0.6c0.6,0.3,1.1,0.7,1.5,1.2c0.4,0.5,0.8,1,1.1,1.6c0.3,0.6,0.4,1.2,0.4,1.9c0,1-0.2,1.8-0.5,2.5
		c-0.4,0.7-0.8,1.3-1.4,1.8c-0.6,0.5-1.3,0.8-2.1,1c-0.8,0.2-1.7,0.3-2.6,0.3c-1.3,0-2.4-0.1-3.3-0.4c-0.9-0.3-1.7-0.6-2.3-1
		c-0.7-0.4-1.3-0.9-1.7-1.4l1.9-1.8c0.2,0.2,0.5,0.5,0.9,0.7c0.4,0.2,0.8,0.4,1.3,0.6c0.5,0.2,1,0.3,1.5,0.5
		c0.5,0.1,1.1,0.2,1.7,0.2c0.6,0,1.1-0.1,1.6-0.2c0.5-0.1,0.9-0.4,1.2-0.6c0.3-0.3,0.6-0.6,0.8-1c0.2-0.4,0.3-0.8,0.3-1.2
		c0-0.5-0.1-0.8-0.2-1.1c-0.2-0.3-0.3-0.5-0.5-0.7c-0.2-0.2-0.4-0.3-0.6-0.3c-0.2-0.1-0.4-0.1-0.5-0.1c0,0-0.2,0-0.6-0.1
		c-0.3-0.1-0.7-0.1-1.1-0.2c-0.4-0.1-0.8-0.1-1.3-0.2s-0.7-0.1-1-0.2c-0.1,0-0.3-0.1-0.6-0.1s-0.5-0.2-0.9-0.3
		c-0.3-0.1-0.6-0.3-1-0.6c-0.3-0.2-0.6-0.5-0.9-0.9c-0.3-0.4-0.5-0.8-0.6-1.3c-0.2-0.5-0.2-1.1-0.2-1.8c0-1,0.2-1.9,0.5-2.6
		c0.4-0.7,0.8-1.3,1.4-1.7c0.6-0.4,1.3-0.8,2-1c0.7-0.2,1.5-0.3,2.2-0.3c0.8,0,1.5,0.1,2.1,0.3c0.6,0.2,1.2,0.4,1.7,0.6
		c0.6,0.2,1,0.5,1.5,0.8l1.5,1L272.5,120.7z"/>
	<path id="XMLID_106_" class="st19" d="M291.6,115.8v11.8v0.2c0,0.2,0,0.5-0.1,1c0,0.4-0.1,0.9-0.3,1.5s-0.4,1.1-0.6,1.7
		c-0.3,0.6-0.7,1.1-1.2,1.5c-0.5,0.5-1.1,0.8-1.9,1.1c-0.7,0.3-1.7,0.5-2.7,0.5h-0.7c-0.8-0.1-1.5-0.2-2.2-0.4
		c-0.3-0.1-0.5-0.2-0.8-0.4c-0.3-0.1-0.5-0.3-0.7-0.5c-0.2-0.2-0.4-0.4-0.5-0.7c-0.1-0.3-0.2-0.6-0.2-0.9v2.7h-2.8v-19h2.8v11.8
		c0,0,0,0.2,0,0.5c0,0.3,0.1,0.6,0.2,0.9c0.1,0.4,0.2,0.7,0.4,1.1c0.2,0.4,0.4,0.8,0.8,1.1c0.3,0.3,0.7,0.6,1.3,0.8
		c0.5,0.2,1.1,0.3,1.9,0.3c0.1,0,0.2,0,0.5,0c0.3,0,0.6-0.1,0.9-0.2c0.3-0.1,0.7-0.2,1.1-0.4s0.7-0.5,1-0.8c0.3-0.4,0.6-0.8,0.8-1.4
		c0.2-0.5,0.3-1.2,0.3-2v-11.8H291.6z"/>
	<path id="XMLID_108_" class="st19" d="M309.7,128.3c-0.1,1.3-0.4,2.4-1,3.4c-0.2,0.4-0.5,0.8-0.9,1.2c-0.4,0.4-0.8,0.8-1.3,1.1
		s-1.1,0.6-1.8,0.8c-0.7,0.2-1.5,0.3-2.4,0.3c-0.9,0-1.7-0.1-2.4-0.3c-0.7-0.2-1.3-0.5-1.8-0.8s-1-0.7-1.3-1.1
		c-0.4-0.4-0.7-0.8-0.9-1.2c-0.6-1-0.9-2.1-1-3.4v-3.8h5.3v2.7h-2.5v1.2c0,0.5,0.1,1,0.2,1.4c0.1,0.4,0.3,0.7,0.5,1
		c0.2,0.3,0.5,0.5,0.7,0.7c0.3,0.2,0.6,0.4,0.8,0.5c0.7,0.3,1.4,0.5,2.3,0.5c0.9,0,1.6-0.2,2.3-0.5c0.3-0.1,0.6-0.3,0.8-0.5
		c0.3-0.2,0.5-0.4,0.7-0.7c0.2-0.3,0.4-0.6,0.5-1c0.1-0.4,0.2-0.9,0.2-1.4v-5.7c0-0.5-0.1-0.9-0.2-1.3s-0.3-0.7-0.5-1
		c-0.2-0.3-0.5-0.5-0.7-0.7c-0.3-0.2-0.6-0.3-0.8-0.5c-0.7-0.3-1.4-0.5-2.3-0.5h-0.2c-0.2,0-0.5,0-0.9,0.1c-0.4,0.1-0.8,0.2-1.2,0.4
		c-0.4,0.2-0.8,0.5-1.2,0.9c-0.4,0.4-0.7,0.9-0.9,1.5H295c0.1-0.3,0.2-0.7,0.3-1.1c0.1-0.4,0.3-0.8,0.6-1.2s0.6-0.8,0.9-1.2
		c0.4-0.4,0.8-0.8,1.3-1.1c0.5-0.3,1.1-0.6,1.8-0.8c0.7-0.2,1.5-0.3,2.4-0.3c0.9,0,1.7,0.1,2.4,0.3c0.7,0.2,1.3,0.5,1.8,0.8
		s1,0.7,1.3,1.1c0.4,0.4,0.7,0.8,0.9,1.2c0.6,1,0.9,2.1,1,3.4V128.3z"/>
	<path id="XMLID_110_" class="st19" d="M327.1,128.3c-0.1,1.3-0.4,2.4-1,3.4c-0.2,0.4-0.5,0.8-0.9,1.2c-0.4,0.4-0.8,0.8-1.3,1.1
		s-1.1,0.6-1.8,0.8c-0.7,0.2-1.5,0.3-2.4,0.3c-0.9,0-1.7-0.1-2.4-0.3c-0.7-0.2-1.3-0.5-1.8-0.8c-0.5-0.3-1-0.7-1.3-1.1
		c-0.4-0.4-0.7-0.8-0.9-1.2c-0.6-1-0.9-2.1-1-3.4v-3.8h5.3v2.7H315v1.2c0,0.5,0.1,1,0.2,1.4c0.1,0.4,0.3,0.7,0.5,1
		c0.2,0.3,0.5,0.5,0.7,0.7c0.3,0.2,0.6,0.4,0.8,0.5c0.7,0.3,1.4,0.5,2.3,0.5c0.9,0,1.6-0.2,2.3-0.5c0.3-0.1,0.6-0.3,0.8-0.5
		c0.3-0.2,0.5-0.4,0.7-0.7c0.2-0.3,0.4-0.6,0.5-1c0.1-0.4,0.2-0.9,0.2-1.4v-5.7c0-0.5-0.1-0.9-0.2-1.3s-0.3-0.7-0.5-1
		c-0.2-0.3-0.5-0.5-0.7-0.7c-0.3-0.2-0.6-0.3-0.8-0.5c-0.7-0.3-1.4-0.5-2.3-0.5h-0.2c-0.2,0-0.5,0-0.9,0.1s-0.8,0.2-1.2,0.4
		s-0.8,0.5-1.2,0.9c-0.4,0.4-0.7,0.9-0.9,1.5h-2.8c0.1-0.3,0.2-0.7,0.3-1.1c0.1-0.4,0.3-0.8,0.6-1.2c0.2-0.4,0.6-0.8,0.9-1.2
		c0.4-0.4,0.8-0.8,1.3-1.1c0.5-0.3,1.1-0.6,1.8-0.8s1.5-0.3,2.4-0.3c0.9,0,1.7,0.1,2.4,0.3c0.7,0.2,1.3,0.5,1.8,0.8s1,0.7,1.3,1.1
		c0.4,0.4,0.7,0.8,0.9,1.2c0.6,1,0.9,2.1,1,3.4V128.3z"/>
	<path id="XMLID_112_" class="st19" d="M332.6,115.8v11.8c0,0.8,0.1,1.5,0.3,2c0.2,0.5,0.5,1,0.8,1.4c0.3,0.4,0.7,0.6,1,0.8
		c0.4,0.2,0.7,0.3,1.1,0.4c0.3,0.1,0.6,0.1,0.9,0.2c0.3,0,0.4,0,0.5,0c0.7,0,1.4-0.1,1.9-0.3c0.5-0.2,0.9-0.5,1.3-0.8
		c0.3-0.3,0.6-0.7,0.8-1.1c0.2-0.4,0.3-0.8,0.4-1.1c0.1-0.4,0.1-0.7,0.2-0.9c0-0.3,0-0.4,0-0.5v-11.8h2.8v19h-2.8v-2.7
		c0,0.4-0.1,0.7-0.2,0.9c-0.1,0.3-0.3,0.5-0.5,0.7c-0.2,0.2-0.5,0.4-0.7,0.5c-0.3,0.1-0.5,0.3-0.8,0.4c-0.6,0.2-1.4,0.4-2.2,0.4
		h-0.7c-1.1,0-2-0.2-2.7-0.5c-0.7-0.3-1.4-0.7-1.9-1.1c-0.5-0.5-0.9-1-1.2-1.5s-0.5-1.1-0.6-1.7s-0.2-1-0.3-1.5c0-0.4-0.1-0.8-0.1-1
		v-0.2v-11.8H332.6z"/>
	<path id="XMLID_114_" class="st19" d="M349.9,103.6c0.5,0.2,0.8,0.4,1.2,0.7c0.3,0.3,0.6,0.6,0.8,0.9c0.2,0.3,0.4,0.6,0.6,1
		c0.3,0.8,0.5,1.6,0.6,2.5v26.2h-2.8v-26.2c0-0.2-0.1-0.5-0.2-0.8c-0.1-0.3-0.3-0.5-0.4-0.7c-0.2-0.2-0.4-0.5-0.6-0.7l-2.3,2.3
		l-2.7-3.7l1.8-1.6l1.2,1.8l1.4-2C348.9,103.2,349.5,103.4,349.9,103.6z"/>
	<path id="XMLID_116_" class="st19" d="M366.1,116.2c0.8,0.3,1.5,0.7,2.1,1.2c0.5,0.5,1,1,1.3,1.6s0.5,1.1,0.7,1.7s0.3,1,0.3,1.5
		c0,0.4,0.1,0.7,0.1,0.9v0.2v11.6h-2.8v-5.6c0-0.5-0.1-1-0.4-1.4c-0.2-0.4-0.6-0.7-0.9-0.9c-0.4-0.2-0.8-0.4-1.2-0.6
		c-0.4-0.1-0.8-0.2-1.2-0.3s-0.8-0.1-1.3-0.1c0,0-0.2,0-0.3,0c-0.2,0-0.4,0.1-0.7,0.1s-0.6,0.2-0.9,0.3c-0.3,0.1-0.6,0.3-0.9,0.5
		s-0.6,0.5-0.8,0.9c-0.2,0.4-0.4,0.8-0.5,1.3c0,0.2-0.1,0.3-0.1,0.5c0,0.4,0.1,0.7,0.3,1c0.2,0.3,0.5,0.5,0.8,0.7
		c0.3,0.2,0.7,0.3,1,0.5c0.4,0.1,0.8,0.2,1.1,0.3c0.4,0.1,0.7,0.1,1,0.1c0.3,0,0.5,0,0.7,0h0.2v2.7h-3.2c-0.7,0-1.3-0.1-1.9-0.4
		c-0.6-0.3-1.1-0.7-1.5-1.2c-0.4-0.5-0.8-1.1-1-1.7c-0.2-0.6-0.4-1.3-0.4-2c0-0.7,0.2-1.4,0.5-2.1c0.3-0.7,0.8-1.4,1.6-2.1
		c0.4-0.4,0.9-0.7,1.3-1c0.5-0.3,0.9-0.5,1.4-0.7s0.9-0.3,1.4-0.3c0.4-0.1,0.9-0.1,1.3-0.1c0.6,0,1.3,0.1,1.8,0.2
		c0.6,0.1,1.1,0.3,1.5,0.4c0.5,0.2,0.9,0.4,1.3,0.6v-1.1c0-0.6-0.1-1.1-0.2-1.6c-0.1-0.4-0.3-0.8-0.5-1.2c-0.2-0.3-0.5-0.6-0.7-0.8
		c-0.3-0.2-0.6-0.4-0.8-0.6c-0.7-0.3-1.4-0.5-2.3-0.6c-0.8,0-1.4,0.1-1.9,0.4c-0.5,0.3-1,0.6-1.3,1s-0.6,0.8-0.8,1.2
		c-0.2,0.4-0.3,0.8-0.4,1.1h-3c0.1-1,0.3-1.9,0.6-2.7c0.3-0.7,0.7-1.3,1.2-1.8c0.5-0.5,1-0.9,1.5-1.2c0.6-0.3,1.1-0.5,1.6-0.6
		c0.5-0.1,1-0.2,1.4-0.3c0.4,0,0.7-0.1,0.9-0.1h0.2C364.3,115.7,365.3,115.9,366.1,116.2z"/>
	<path id="XMLID_118_" class="st19" d="M376.4,115.8v11.8c0,0.8,0.1,1.5,0.3,2c0.2,0.5,0.5,1,0.8,1.4c0.3,0.4,0.7,0.6,1,0.8
		c0.4,0.2,0.7,0.3,1.1,0.4c0.3,0.1,0.6,0.1,0.9,0.2c0.3,0,0.4,0,0.5,0c0.7,0,1.4-0.1,1.9-0.3c0.5-0.2,0.9-0.5,1.3-0.8
		c0.3-0.3,0.6-0.7,0.8-1.1c0.2-0.4,0.3-0.8,0.4-1.1c0.1-0.4,0.1-0.7,0.2-0.9c0-0.3,0-0.4,0-0.5v-11.8h2.8v19h-2.8v-2.7
		c0,0.4-0.1,0.7-0.2,0.9c-0.1,0.3-0.3,0.5-0.5,0.7c-0.2,0.2-0.5,0.4-0.7,0.5c-0.3,0.1-0.5,0.3-0.8,0.4c-0.6,0.2-1.4,0.4-2.2,0.4
		h-0.7c-1.1,0-2-0.2-2.7-0.5c-0.7-0.3-1.4-0.7-1.9-1.1c-0.5-0.5-0.9-1-1.2-1.5s-0.5-1.1-0.6-1.7s-0.2-1-0.3-1.5c0-0.4-0.1-0.8-0.1-1
		v-0.2v-11.8H376.4z"/>
	<path id="XMLID_120_" class="st19" d="M381.1,113.5v-2.8c0-0.2,0.1-0.4,0.2-0.6c0.1-0.2,0.2-0.3,0.4-0.4c0.2-0.1,0.4-0.2,0.7-0.2
		h6.2v2.7h-4.8v1.4H381.1z"/>
</g>
<path id="XMLID_701_" class="st20" d="M425.5,270c-6.6,0-11.9,5.3-11.9,11.9v17.5h23.8v-17.5C437.4,275.3,432.1,270,425.5,270z"/>
<rect id="XMLID_700_" x="406" y="285.6" class="st21" width="38.9" height="25.6"/>
<rect id="XMLID_699_" x="433.8" y="285.6" class="st3" width="11.1" height="25.6"/>
<polygon id="XMLID_698_" class="st1" points="389.8,328.3 406,308.4 433.8,308.3 444.5,299.4 455.6,299.4 432.7,325.3 412.2,322.5 
	409,328.3 "/>
<rect id="XMLID_697_" x="93.2" y="277.8" class="st19" width="33.2" height="7.8"/>
<rect id="XMLID_696_" x="139.9" y="277.8" class="st19" width="33.2" height="7.8"/>
<rect id="XMLID_695_" x="186.6" y="277.8" class="st19" width="33.2" height="7.8"/>
<rect id="XMLID_694_" x="233.3" y="277.8" class="st19" width="33.2" height="7.8"/>
<circle id="XMLID_693_" class="st19" cx="420.4" cy="293" r="2.9"/>
<polygon id="XMLID_692_" class="st19" points="414.3,304.8 420.5,294.1 426.6,304.8 "/>
<g id="XMLID_686_">
	<path id="XMLID_691_" class="st22" d="M315.6,191.4c0,0-3.2,20.1,11,18.9c0,0,10.6-2.1,10.6-13.7L315.6,191.4z"/>
	<path id="XMLID_690_" class="st22" d="M354.7,191.4c0,0,3.2,20.1-11,18.9c0,0-10.6-2.1-10.6-13.7L354.7,191.4z"/>
	<ellipse id="XMLID_689_" class="st6" cx="337.5" cy="188" rx="52.2" ry="12.9"/>
	<path id="XMLID_688_" class="st6" d="M358.3,183.2h-47.6c0,0-0.6-7.7,1.4-15.6c1.2-5.2,3.6-10.6,7.9-13.8c3.1-2.3,7.5-1.9,10.3,0.8
		l0.1,0.1c2.6,2.6,6.6,2.9,9.5,0.7l3.2-2.3c1.9-1.4,4.6-1.6,6.6-0.3c3.4,2.2,8.3,6.6,9.8,14.7C360.1,171.8,360,176.9,358.3,183.2z"
		/>
	<path id="XMLID_687_" class="st0" d="M358.3,183.2h-47.6c0,0-0.6-7.7,1.4-15.6h47.3C360.1,171.8,360,176.9,358.3,183.2z"/>
</g>
<polygon id="XMLID_685_" class="st23" points="417.7,36.9 271.7,327.6 325,327.6 472.3,36.9 "/>
<polygon id="XMLID_684_" class="st24" points="497.3,36.9 351.2,327.6 404.6,327.6 551.9,36.9 "/>
<rect id="XMLID_683_" x="353.2" y="243.3" class="st25" width="4.4" height="84.7"/>
<polyline id="XMLID_682_" class="st26" points="357.6,243.3 299.2,243.3 357.6,243.3 "/>
<circle id="XMLID_681_" class="st25" cx="326.8" cy="300.5" r="4.6"/>
<circle id="XMLID_680_" class="st25" cx="344.6" cy="300.5" r="4.6"/>
<circle id="XMLID_679_" class="st25" cx="326.8" cy="315.8" r="4.6"/>
<circle id="XMLID_678_" class="st25" cx="344.6" cy="315.8" r="4.6"/>
<path id="XMLID_650_" class="st1" d="M131.9,185.2H36.5c-2.3,0-4.1,1.9-4.1,4.1v0v21.6V264c0,0,54.2,1.9,46-53.1h27.8
	C136,210.9,131.9,185.2,131.9,185.2z"/>
</svg>
