<?xml version="1.0" encoding="utf-8"?>
<!-- Generator: Adobe Illustrator 19.0.0, SVG Export Plug-In . SVG Version: 6.00 Build 0)  -->
<svg version="1.1" id="Layer_1" xmlns="http://www.w3.org/2000/svg" xmlns:xlink="http://www.w3.org/1999/xlink" x="0px" y="0px"
	 viewBox="0 0 168.1 167.9" style="enable-background:new 0 0 168.1 167.9;" xml:space="preserve">
<style type="text/css">
	.st0{fill:#125B7C;}
	.st1{fill:#FFFFFF;}
	.st2{fill:#CD202B;}
	.st3{fill:#404040;}
</style>
<rect id="XMLID_5567_" x="0" y="0" class="st0" width="149.9" height="167"/>
<polygon id="XMLID_7693_" class="st1" points="148.8,167.7 148.8,148.7 168.1,167.9 "/>
<rect id="XMLID_4593_" x="0" y="107.1" class="st1" width="149.9" height="60.8"/>
<g id="XMLID_9180_">
	<circle id="XMLID_9181_" class="st2" cx="9.5" cy="118.7" r="4"/>
	<path id="XMLID_9182_" class="st2" d="M5.4,118.7h8.1v10.1C13.5,128.8,5.4,123.9,5.4,118.7z"/>
	<circle id="XMLID_2523_" class="st2" cx="17.5" cy="118.5" r="4"/>
	<path id="XMLID_2522_" class="st2" d="M21.6,118.5h-8.1v10.1C13.5,128.6,21.6,123.7,21.6,118.5z"/>
</g>
<g id="XMLID_9327_">
	<path id="XMLID_9328_" class="st1" d="M60.5,54.6c0,5.9-1.7,10.4-5,13.5s-8.2,4.7-14.5,4.7H30.9V37.1h11.2c5.8,0,10.4,1.5,13.6,4.6
		S60.5,49.1,60.5,54.6z M52.6,54.8c0-7.7-3.4-11.5-10.2-11.5h-4v23.2h3.2C49,66.6,52.6,62.7,52.6,54.8z"/>
	<path id="XMLID_9331_" class="st1" d="M81.2,72.8H65v-4.3l4.3-2V43.4l-4.3-2v-4.3h16.2v4.3l-4.3,2v23.1l4.3,2V72.8z"/>
	<path id="XMLID_9333_" class="st1" d="M98.4,51.8l7.4-14.7h8.2l-11.8,21.8v13.9h-7.5V59.2l-11.8-22H91L98.4,51.8z"/>
</g>
<g id="XMLID_26_">
	<g id="XMLID_1153_">
		<path id="XMLID_1271_" class="st3" d="M30.1,117.4c-0.8,0-1.4,0.3-1.9,0.9s-0.7,1.4-0.7,2.5c0,2.2,0.8,3.3,2.5,3.3
			c0.7,0,1.6-0.2,2.5-0.5v1.8c-0.8,0.3-1.7,0.5-2.7,0.5c-1.5,0-2.6-0.4-3.3-1.3c-0.8-0.9-1.2-2.1-1.2-3.8c0-1,0.2-1.9,0.6-2.7
			c0.4-0.8,0.9-1.4,1.6-1.8s1.5-0.6,2.5-0.6c1,0,1.9,0.2,2.9,0.7l-0.7,1.7c-0.4-0.2-0.7-0.3-1.1-0.5
			C30.8,117.4,30.4,117.4,30.1,117.4z"/>
		<path id="XMLID_1269_" class="st3" d="M38.8,117.9c0.3,0,0.5,0,0.7,0.1l-0.2,2c-0.2,0-0.4-0.1-0.6-0.1c-0.7,0-1.2,0.2-1.6,0.5
			c-0.4,0.3-0.6,0.8-0.6,1.4v3.9h-2.1v-7.6h1.6l0.3,1.3h0.1c0.2-0.4,0.6-0.8,1-1C37.9,118.1,38.4,117.9,38.8,117.9z"/>
		<path id="XMLID_1266_" class="st3" d="M45.7,125.7l-0.4-1h-0.1c-0.4,0.4-0.7,0.7-1.1,0.9c-0.4,0.2-0.9,0.3-1.5,0.3
			c-0.7,0-1.3-0.2-1.7-0.6c-0.4-0.4-0.6-1-0.6-1.8c0-0.8,0.3-1.4,0.9-1.8c0.6-0.4,1.4-0.6,2.6-0.6l1.3,0v-0.3c0-0.8-0.4-1.2-1.2-1.2
			c-0.6,0-1.3,0.2-2.2,0.6l-0.7-1.4c0.9-0.5,1.9-0.7,2.9-0.7c1,0,1.8,0.2,2.4,0.7s0.8,1.1,0.8,2v5.1H45.7z M45,122.2l-0.8,0
			c-0.6,0-1.1,0.1-1.4,0.3c-0.3,0.2-0.4,0.5-0.4,0.9c0,0.6,0.3,0.9,1,0.9c0.5,0,0.9-0.1,1.2-0.4c0.3-0.3,0.4-0.6,0.4-1.1V122.2z"/>
		<path id="XMLID_1264_" class="st3" d="M53.5,119.7h-1.8v6.1h-2.1v-6.1h-1.1v-1l1.1-0.6v-0.6c0-0.9,0.2-1.5,0.6-1.9
			c0.4-0.4,1.1-0.6,2.1-0.6c0.7,0,1.4,0.1,1.9,0.3l-0.5,1.5c-0.4-0.1-0.8-0.2-1.2-0.2c-0.3,0-0.5,0.1-0.6,0.3
			c-0.1,0.2-0.2,0.4-0.2,0.7v0.5h1.8V119.7z"/>
		<path id="XMLID_1262_" class="st3" d="M57.9,124.2c0.4,0,0.8-0.1,1.3-0.2v1.6c-0.5,0.2-1.2,0.3-1.9,0.3c-0.8,0-1.4-0.2-1.8-0.6
			c-0.4-0.4-0.6-1.1-0.6-1.9v-3.7h-1v-0.9l1.1-0.7l0.6-1.6H57v1.6h2.1v1.6H57v3.7c0,0.3,0.1,0.5,0.3,0.7
			C57.4,124.1,57.6,124.2,57.9,124.2z"/>
		<path id="XMLID_1259_" class="st3" d="M64.2,125.9c-1.2,0-2.2-0.3-2.9-1s-1-1.6-1-2.9c0-1.3,0.3-2.3,1-3c0.6-0.7,1.5-1,2.7-1
			c1.1,0,1.9,0.3,2.5,0.9s0.9,1.5,0.9,2.5v1h-4.9c0,0.6,0.2,1.1,0.5,1.4s0.8,0.5,1.4,0.5c0.5,0,0.9,0,1.3-0.1s0.8-0.2,1.3-0.5v1.6
			c-0.4,0.2-0.8,0.3-1.2,0.4S64.8,125.9,64.2,125.9z M63.9,119.4c-0.4,0-0.8,0.1-1,0.4c-0.3,0.3-0.4,0.7-0.4,1.2h2.9
			c0-0.5-0.1-0.9-0.4-1.2S64.4,119.4,63.9,119.4z"/>
		<path id="XMLID_1256_" class="st3" d="M71.4,125.9c-0.9,0-1.6-0.3-2.1-1c-0.5-0.7-0.8-1.7-0.8-2.9c0-1.3,0.3-2.2,0.8-2.9
			c0.5-0.7,1.2-1,2.2-1c1,0,1.7,0.4,2.2,1.1h0.1c-0.1-0.6-0.2-1.1-0.2-1.5v-2.4h2.1v10.6h-1.6l-0.4-1h-0.1
			C73.1,125.5,72.4,125.9,71.4,125.9z M72.2,124.2c0.5,0,0.9-0.2,1.2-0.5c0.2-0.3,0.4-0.8,0.4-1.6v-0.2c0-0.8-0.1-1.4-0.4-1.8
			c-0.3-0.4-0.7-0.5-1.2-0.5c-0.5,0-0.8,0.2-1.1,0.6c-0.3,0.4-0.4,1-0.4,1.7s0.1,1.3,0.4,1.7S71.7,124.2,72.2,124.2z"/>
		<path id="XMLID_1253_" class="st3" d="M85.7,125.9c-0.9,0-1.6-0.3-2.1-1h-0.1c0.1,0.6,0.1,1,0.1,1.1v3.1h-2.1v-11h1.7l0.3,1h0.1
			c0.5-0.8,1.2-1.1,2.2-1.1c0.9,0,1.6,0.3,2.1,1s0.8,1.7,0.8,2.9c0,0.8-0.1,1.5-0.4,2.1c-0.2,0.6-0.6,1.1-1,1.4
			S86.3,125.9,85.7,125.9z M85.1,119.6c-0.5,0-0.9,0.2-1.1,0.5c-0.2,0.3-0.4,0.8-0.4,1.6v0.2c0,0.8,0.1,1.4,0.4,1.8
			c0.2,0.4,0.6,0.5,1.2,0.5c0.9,0,1.4-0.8,1.4-2.3c0-0.8-0.1-1.3-0.3-1.7C86,119.8,85.6,119.6,85.1,119.6z"/>
		<path id="XMLID_1251_" class="st3" d="M94.6,117.9c0.3,0,0.5,0,0.7,0.1l-0.2,2c-0.2,0-0.4-0.1-0.6-0.1c-0.7,0-1.2,0.2-1.6,0.5
			c-0.4,0.3-0.6,0.8-0.6,1.4v3.9h-2.1v-7.6H92l0.3,1.3h0.1c0.2-0.4,0.6-0.8,1-1C93.7,118.1,94.2,117.9,94.6,117.9z"/>
		<path id="XMLID_1248_" class="st3" d="M103.5,121.9c0,1.2-0.3,2.2-1,2.9s-1.6,1.1-2.7,1.1c-0.7,0-1.4-0.2-1.9-0.5s-1-0.8-1.3-1.4
			s-0.5-1.3-0.5-2.1c0-1.2,0.3-2.2,1-2.9c0.7-0.7,1.6-1,2.7-1c0.7,0,1.4,0.2,1.9,0.5s1,0.8,1.3,1.4S103.5,121.1,103.5,121.9z
			 M98.3,121.9c0,0.8,0.1,1.3,0.4,1.7c0.2,0.4,0.7,0.6,1.2,0.6c0.6,0,1-0.2,1.2-0.6c0.2-0.4,0.4-1,0.4-1.7c0-0.8-0.1-1.3-0.4-1.7
			s-0.6-0.6-1.2-0.6c-0.6,0-1,0.2-1.2,0.6S98.3,121.1,98.3,121.9z"/>
		<path id="XMLID_1245_" class="st3" d="M107.7,125.9c-0.9,0-1.6-0.3-2.1-1c-0.5-0.7-0.8-1.7-0.8-2.9c0-1.3,0.3-2.2,0.8-2.9
			c0.5-0.7,1.2-1,2.2-1c1,0,1.7,0.4,2.2,1.1h0.1c-0.1-0.6-0.2-1.1-0.2-1.5v-2.4h2.1v10.6h-1.6l-0.4-1h-0.1
			C109.4,125.5,108.7,125.9,107.7,125.9z M108.4,124.2c0.5,0,0.9-0.2,1.2-0.5c0.2-0.3,0.4-0.8,0.4-1.6v-0.2c0-0.8-0.1-1.4-0.4-1.8
			c-0.3-0.4-0.7-0.5-1.2-0.5c-0.5,0-0.8,0.2-1.1,0.6c-0.3,0.4-0.4,1-0.4,1.7s0.1,1.3,0.4,1.7S107.9,124.2,108.4,124.2z"/>
		<path id="XMLID_1243_" class="st3" d="M119.5,125.7l-0.3-1h-0.1c-0.2,0.4-0.5,0.6-1,0.8s-0.9,0.3-1.4,0.3c-0.9,0-1.6-0.2-2-0.7
			s-0.7-1.2-0.7-2.1v-5h2.1v4.5c0,0.6,0.1,1,0.3,1.2s0.5,0.4,0.9,0.4c0.6,0,1-0.2,1.3-0.6s0.4-1,0.4-1.9v-3.6h2.1v7.6H119.5z"/>
		<path id="XMLID_1241_" class="st3" d="M126.4,125.9c-2.4,0-3.6-1.3-3.6-3.9c0-1.3,0.3-2.3,1-3s1.6-1,2.8-1c0.9,0,1.7,0.2,2.4,0.5
			l-0.6,1.6c-0.3-0.1-0.6-0.2-0.9-0.3c-0.3-0.1-0.6-0.1-0.8-0.1c-1.1,0-1.6,0.8-1.6,2.3c0,1.5,0.5,2.2,1.6,2.2
			c0.4,0,0.8-0.1,1.1-0.2s0.7-0.3,1-0.5v1.8c-0.3,0.2-0.7,0.4-1,0.4C127.4,125.8,127,125.9,126.4,125.9z"/>
		<path id="XMLID_1239_" class="st3" d="M133.7,124.2c0.4,0,0.8-0.1,1.3-0.2v1.6c-0.5,0.2-1.2,0.3-1.9,0.3c-0.8,0-1.4-0.2-1.8-0.6
			c-0.4-0.4-0.6-1.1-0.6-1.9v-3.7h-1v-0.9l1.1-0.7l0.6-1.6h1.3v1.6h2.1v1.6h-2.1v3.7c0,0.3,0.1,0.5,0.3,0.7
			C133.3,124.1,133.5,124.2,133.7,124.2z"/>
		<path id="XMLID_1237_" class="st3" d="M141.9,123.5c0,0.8-0.3,1.4-0.8,1.8c-0.5,0.4-1.4,0.6-2.4,0.6c-0.6,0-1,0-1.4-0.1
			c-0.4-0.1-0.8-0.2-1.1-0.3v-1.7c0.4,0.2,0.8,0.3,1.3,0.5c0.5,0.1,0.9,0.2,1.3,0.2c0.8,0,1.1-0.2,1.1-0.7c0-0.2-0.1-0.3-0.2-0.4
			c-0.1-0.1-0.3-0.2-0.5-0.3s-0.6-0.3-1-0.5c-0.6-0.2-1-0.5-1.3-0.7c-0.3-0.2-0.5-0.5-0.6-0.7c-0.1-0.3-0.2-0.6-0.2-1
			c0-0.7,0.3-1.2,0.8-1.6c0.5-0.4,1.3-0.6,2.2-0.6c0.9,0,1.8,0.2,2.7,0.6l-0.6,1.5c-0.4-0.2-0.7-0.3-1.1-0.4c-0.3-0.1-0.7-0.2-1-0.2
			c-0.6,0-0.9,0.2-0.9,0.5c0,0.2,0.1,0.3,0.3,0.5c0.2,0.1,0.6,0.3,1.3,0.6c0.6,0.2,1,0.5,1.3,0.7c0.3,0.2,0.5,0.5,0.6,0.7
			C141.9,122.8,141.9,123.1,141.9,123.5z"/>
		<path id="XMLID_1234_" class="st3" d="M26.8,136.6v3.5h-1.1v-8.6h2.4c1.1,0,1.8,0.2,2.4,0.6s0.8,1,0.8,1.8c0,1.1-0.6,1.9-1.7,2.3
			l2.3,3.8h-1.3l-2.1-3.5H26.8z M26.8,135.7h1.3c0.7,0,1.2-0.1,1.5-0.4s0.5-0.7,0.5-1.2s-0.2-0.9-0.5-1.2s-0.8-0.4-1.6-0.4h-1.2
			V135.7z"/>
		<path id="XMLID_1231_" class="st3" d="M35.8,140.3c-1,0-1.7-0.3-2.3-0.9s-0.8-1.4-0.8-2.4c0-1,0.3-1.9,0.8-2.5s1.2-0.9,2.1-0.9
			c0.8,0,1.5,0.3,1.9,0.8s0.7,1.2,0.7,2.1v0.6h-4.4c0,0.7,0.2,1.3,0.6,1.7s0.8,0.6,1.5,0.6c0.3,0,0.7,0,1-0.1s0.7-0.2,1.1-0.4v0.9
			c-0.4,0.2-0.7,0.3-1,0.3S36.2,140.3,35.8,140.3z M35.5,134.4c-0.5,0-0.9,0.2-1.2,0.5s-0.5,0.8-0.5,1.4h3.3c0-0.6-0.1-1.1-0.4-1.4
			S36,134.4,35.5,134.4z"/>
		<path id="XMLID_1229_" class="st3" d="M44,138.4c0,0.6-0.2,1.1-0.7,1.4s-1.1,0.5-1.9,0.5c-0.8,0-1.5-0.1-2-0.4v-1
			c0.7,0.3,1.4,0.5,2,0.5c0.5,0,0.9-0.1,1.2-0.3s0.4-0.4,0.4-0.7c0-0.3-0.1-0.5-0.3-0.6s-0.6-0.4-1.2-0.6c-0.6-0.2-1-0.4-1.3-0.6
			s-0.4-0.4-0.5-0.6s-0.2-0.5-0.2-0.8c0-0.5,0.2-0.9,0.6-1.2s1-0.5,1.8-0.5c0.7,0,1.4,0.1,2.1,0.4l-0.4,0.8
			c-0.7-0.3-1.2-0.4-1.8-0.4c-0.4,0-0.8,0.1-1,0.2s-0.3,0.3-0.3,0.6c0,0.2,0.1,0.4,0.3,0.6s0.7,0.4,1.4,0.6c0.5,0.2,0.9,0.4,1.2,0.6
			s0.4,0.4,0.6,0.6S44,138.1,44,138.4z"/>
		<path id="XMLID_1226_" class="st3" d="M48.3,140.3c-1,0-1.7-0.3-2.3-0.9s-0.8-1.4-0.8-2.4c0-1,0.3-1.9,0.8-2.5s1.2-0.9,2.1-0.9
			c0.8,0,1.5,0.3,1.9,0.8s0.7,1.2,0.7,2.1v0.6h-4.4c0,0.7,0.2,1.3,0.6,1.7s0.8,0.6,1.5,0.6c0.3,0,0.7,0,1-0.1s0.7-0.2,1.1-0.4v0.9
			c-0.4,0.2-0.7,0.3-1,0.3S48.7,140.3,48.3,140.3z M48,134.4c-0.5,0-0.9,0.2-1.2,0.5s-0.5,0.8-0.5,1.4h3.3c0-0.6-0.1-1.1-0.4-1.4
			S48.5,134.4,48,134.4z"/>
		<path id="XMLID_1224_" class="st3" d="M55.3,133.6c0.3,0,0.5,0,0.8,0.1l-0.1,1c-0.2-0.1-0.5-0.1-0.7-0.1c-0.3,0-0.7,0.1-0.9,0.3
			s-0.5,0.4-0.7,0.8s-0.2,0.7-0.2,1.1v3.4h-1.1v-6.4h0.9l0.1,1.2h0c0.2-0.4,0.5-0.7,0.9-1S54.9,133.6,55.3,133.6z"/>
		<path id="XMLID_1222_" class="st3" d="M58.7,140.1l-2.4-6.4h1.1l1.4,3.8c0.3,0.8,0.4,1.3,0.5,1.7h0c0-0.1,0-0.1,0-0.2
			s0-0.1,0.1-0.2s0.2-0.5,0.4-1.3l1.4-3.8h1.1l-2.4,6.4H58.7z"/>
		<path id="XMLID_1219_" class="st3" d="M66.1,140.3c-1,0-1.7-0.3-2.3-0.9S63,138,63,137c0-1,0.3-1.9,0.8-2.5s1.2-0.9,2.1-0.9
			c0.8,0,1.5,0.3,1.9,0.8s0.7,1.2,0.7,2.1v0.6h-4.4c0,0.7,0.2,1.3,0.6,1.7s0.8,0.6,1.5,0.6c0.3,0,0.7,0,1-0.1s0.7-0.2,1.1-0.4v0.9
			c-0.4,0.2-0.7,0.3-1,0.3S66.5,140.3,66.1,140.3z M65.9,134.4c-0.5,0-0.9,0.2-1.2,0.5s-0.5,0.8-0.5,1.4h3.3c0-0.6-0.1-1.1-0.4-1.4
			S66.3,134.4,65.9,134.4z"/>
		<path id="XMLID_1216_" class="st3" d="M72.4,140.3c-0.8,0-1.5-0.3-1.9-0.9s-0.7-1.4-0.7-2.5c0-1.1,0.2-1.9,0.7-2.5s1.1-0.9,2-0.9
			c0.9,0,1.5,0.3,2,0.9h0.1c0-0.1,0-0.2,0-0.5s0-0.4,0-0.5V131h1.1v9.1h-0.8l-0.2-0.9h0C74,139.9,73.3,140.3,72.4,140.3z
			 M72.6,139.4c0.6,0,1.1-0.2,1.4-0.5s0.4-0.9,0.4-1.7v-0.2c0-0.9-0.1-1.5-0.4-1.9s-0.8-0.6-1.4-0.6c-0.5,0-1,0.2-1.3,0.6
			s-0.4,1-0.4,1.8c0,0.8,0.1,1.4,0.4,1.8S72,139.4,72.6,139.4z"/>
		<path id="XMLID_1214_" class="st3" d="M83.6,134.5H82v5.6h-1.1v-5.6h-1.1V134l1.1-0.4v-0.4c0-0.8,0.2-1.4,0.5-1.8s0.9-0.6,1.6-0.6
			c0.4,0,0.8,0.1,1.2,0.2L84,132c-0.4-0.1-0.7-0.2-1-0.2c-0.4,0-0.6,0.1-0.8,0.4s-0.3,0.6-0.3,1.1v0.4h1.6V134.5z"/>
		<path id="XMLID_1211_" class="st3" d="M90.4,136.9c0,1.1-0.3,1.9-0.8,2.5s-1.3,0.9-2.2,0.9c-0.6,0-1.1-0.1-1.5-0.4s-0.8-0.7-1-1.2
			s-0.4-1.1-0.4-1.8c0-1,0.3-1.9,0.8-2.4s1.3-0.9,2.2-0.9c0.9,0,1.6,0.3,2.2,0.9S90.4,135.9,90.4,136.9z M85.5,136.9
			c0,0.8,0.2,1.4,0.5,1.8s0.8,0.6,1.4,0.6c0.6,0,1.1-0.2,1.4-0.6s0.5-1,0.5-1.8s-0.2-1.4-0.5-1.8s-0.8-0.6-1.4-0.6
			C86.1,134.5,85.5,135.3,85.5,136.9z"/>
		<path id="XMLID_1209_" class="st3" d="M95,133.6c0.3,0,0.5,0,0.8,0.1l-0.1,1c-0.2-0.1-0.5-0.1-0.7-0.1c-0.3,0-0.7,0.1-0.9,0.3
			s-0.5,0.4-0.7,0.8s-0.2,0.7-0.2,1.1v3.4H92v-6.4h0.9l0.1,1.2h0c0.2-0.4,0.5-0.7,0.9-1S94.6,133.6,95,133.6z"/>
		<path id="XMLID_1207_" class="st3" d="M104.3,138.4c0,0.6-0.2,1.1-0.7,1.4s-1.1,0.5-1.9,0.5c-0.8,0-1.5-0.1-2-0.4v-1
			c0.7,0.3,1.4,0.5,2,0.5c0.5,0,0.9-0.1,1.2-0.3s0.4-0.4,0.4-0.7c0-0.3-0.1-0.5-0.3-0.6s-0.6-0.4-1.2-0.6c-0.6-0.2-1-0.4-1.3-0.6
			s-0.4-0.4-0.5-0.6s-0.2-0.5-0.2-0.8c0-0.5,0.2-0.9,0.6-1.2s1-0.5,1.8-0.5c0.7,0,1.4,0.1,2.1,0.4l-0.4,0.8
			c-0.7-0.3-1.2-0.4-1.8-0.4c-0.4,0-0.8,0.1-1,0.2s-0.3,0.3-0.3,0.6c0,0.2,0.1,0.4,0.3,0.6s0.7,0.4,1.4,0.6c0.5,0.2,0.9,0.4,1.2,0.6
			s0.4,0.4,0.6,0.6S104.3,138.1,104.3,138.4z"/>
		<path id="XMLID_1204_" class="st3" d="M108.9,140.3c-0.9,0-1.5-0.3-2-0.9h-0.1l0,0.2c0,0.3,0,0.6,0,0.8v2.6h-1.1v-9.3h0.9l0.1,0.9
			h0c0.3-0.4,0.5-0.6,0.9-0.8s0.7-0.2,1.1-0.2c0.8,0,1.5,0.3,1.9,0.9s0.7,1.4,0.7,2.5c0,1.1-0.2,1.9-0.7,2.5
			S109.7,140.3,108.9,140.3z M108.7,134.5c-0.6,0-1.1,0.2-1.4,0.5s-0.4,0.9-0.4,1.7v0.2c0,0.9,0.1,1.5,0.4,1.9s0.8,0.6,1.4,0.6
			c0.5,0,1-0.2,1.3-0.7s0.5-1,0.5-1.8c0-0.8-0.2-1.4-0.5-1.8S109.3,134.5,108.7,134.5z"/>
		<path id="XMLID_1201_" class="st3" d="M116,140.3c-1,0-1.7-0.3-2.3-0.9s-0.8-1.4-0.8-2.4c0-1,0.3-1.9,0.8-2.5s1.2-0.9,2.1-0.9
			c0.8,0,1.5,0.3,1.9,0.8s0.7,1.2,0.7,2.1v0.6H114c0,0.7,0.2,1.3,0.6,1.7s0.8,0.6,1.5,0.6c0.3,0,0.7,0,1-0.1s0.7-0.2,1.1-0.4v0.9
			c-0.4,0.2-0.7,0.3-1,0.3S116.4,140.3,116,140.3z M115.7,134.4c-0.5,0-0.9,0.2-1.2,0.5s-0.5,0.8-0.5,1.4h3.3c0-0.6-0.1-1.1-0.4-1.4
			S116.2,134.4,115.7,134.4z"/>
		<path id="XMLID_1199_" class="st3" d="M122.6,140.3c-0.9,0-1.6-0.3-2.2-0.9s-0.8-1.4-0.8-2.4c0-1.1,0.3-1.9,0.8-2.5
			s1.3-0.9,2.2-0.9c0.3,0,0.6,0,0.9,0.1s0.6,0.1,0.8,0.2l-0.3,0.9c-0.5-0.2-1-0.3-1.4-0.3c-0.6,0-1.1,0.2-1.4,0.6s-0.5,1-0.5,1.8
			c0,0.8,0.2,1.4,0.5,1.8s0.8,0.6,1.4,0.6c0.6,0,1.1-0.1,1.7-0.4v0.9C123.8,140.1,123.2,140.3,122.6,140.3z"/>
		<path id="XMLID_1196_" class="st3" d="M125.7,132c0-0.2,0.1-0.4,0.2-0.5s0.3-0.2,0.4-0.2c0.2,0,0.3,0.1,0.4,0.2s0.2,0.3,0.2,0.5
			c0,0.2-0.1,0.4-0.2,0.5s-0.3,0.2-0.4,0.2c-0.2,0-0.3-0.1-0.4-0.2S125.7,132.2,125.7,132z M126.8,140.1h-1.1v-6.4h1.1V140.1z"/>
		<path id="XMLID_1193_" class="st3" d="M132.8,140.1l-0.2-0.9h0c-0.3,0.4-0.6,0.7-1,0.8s-0.7,0.2-1.2,0.2c-0.6,0-1.1-0.2-1.5-0.5
			s-0.5-0.8-0.5-1.4c0-1.3,1-2,3.1-2.1l1.1,0v-0.4c0-0.5-0.1-0.8-0.3-1.1s-0.5-0.3-1-0.3c-0.3,0-0.7,0.1-1,0.2s-0.6,0.2-0.9,0.3
			l-0.3-0.8c0.3-0.2,0.7-0.3,1.1-0.4s0.8-0.1,1.1-0.1c0.8,0,1.4,0.2,1.7,0.5s0.6,0.9,0.6,1.6v4.4H132.8z M130.7,139.4
			c0.6,0,1.1-0.2,1.4-0.5s0.5-0.8,0.5-1.4V137l-0.9,0c-0.7,0-1.3,0.1-1.6,0.4s-0.5,0.5-0.5,1c0,0.3,0.1,0.6,0.3,0.8
			S130.3,139.4,130.7,139.4z"/>
		<path id="XMLID_1191_" class="st3" d="M136.7,140.1h-1.1V131h1.1V140.1z"/>
		<path id="XMLID_1188_" class="st3" d="M29.6,154.5l-0.2-0.9h0c-0.3,0.4-0.6,0.7-1,0.8s-0.7,0.2-1.2,0.2c-0.6,0-1.1-0.2-1.5-0.5
			s-0.5-0.8-0.5-1.4c0-1.3,1-2,3.1-2.1l1.1,0v-0.4c0-0.5-0.1-0.8-0.3-1.1s-0.5-0.3-1-0.3c-0.3,0-0.7,0.1-1,0.2s-0.6,0.2-0.9,0.3
			l-0.3-0.8c0.3-0.2,0.7-0.3,1.1-0.4s0.8-0.1,1.1-0.1c0.8,0,1.4,0.2,1.7,0.5s0.6,0.9,0.6,1.6v4.4H29.6z M27.4,153.8
			c0.6,0,1.1-0.2,1.4-0.5s0.5-0.8,0.5-1.4v-0.6l-0.9,0c-0.7,0-1.3,0.1-1.6,0.4s-0.5,0.5-0.5,1c0,0.3,0.1,0.6,0.3,0.8
			S27,153.8,27.4,153.8z"/>
		<path id="XMLID_1186_" class="st3" d="M36.7,154.5v-4.1c0-0.5-0.1-0.9-0.3-1.2s-0.6-0.4-1.1-0.4c-0.7,0-1.1,0.2-1.4,0.5
			s-0.4,1-0.4,1.8v3.3h-1.1v-6.4h0.8l0.2,0.9h0.1c0.2-0.3,0.5-0.6,0.8-0.7s0.8-0.3,1.2-0.3c0.8,0,1.4,0.2,1.8,0.6s0.6,1,0.6,1.8v4.2
			H36.7z"/>
		<path id="XMLID_1183_" class="st3" d="M42,154.7c-0.8,0-1.5-0.3-1.9-0.9s-0.7-1.4-0.7-2.5c0-1.1,0.2-1.9,0.7-2.5s1.1-0.9,2-0.9
			c0.9,0,1.5,0.3,2,0.9h0.1c0-0.1,0-0.2,0-0.5s0-0.4,0-0.5v-2.6h1.1v9.1h-0.8l-0.2-0.9h0C43.6,154.3,42.9,154.7,42,154.7z
			 M42.2,153.8c0.6,0,1.1-0.2,1.4-0.5s0.4-0.9,0.4-1.7v-0.2c0-0.9-0.1-1.5-0.4-1.9s-0.8-0.6-1.4-0.6c-0.5,0-1,0.2-1.3,0.6
			s-0.4,1-0.4,1.8c0,0.8,0.1,1.4,0.4,1.8S41.6,153.8,42.2,153.8z"/>
		<path id="XMLID_1181_" class="st3" d="M52.8,154.7c-0.9,0-1.6-0.3-2.2-0.9s-0.8-1.4-0.8-2.4c0-1.1,0.3-1.9,0.8-2.5
			s1.3-0.9,2.2-0.9c0.3,0,0.6,0,0.9,0.1s0.6,0.1,0.8,0.2l-0.3,0.9c-0.5-0.2-1-0.3-1.4-0.3c-0.6,0-1.1,0.2-1.4,0.6s-0.5,1-0.5,1.8
			c0,0.8,0.2,1.4,0.5,1.8s0.8,0.6,1.4,0.6c0.6,0,1.1-0.1,1.7-0.4v0.9C54,154.5,53.5,154.7,52.8,154.7z"/>
		<path id="XMLID_1179_" class="st3" d="M57,154.5H56v-9.1H57V154.5z"/>
		<path id="XMLID_1176_" class="st3" d="M64.7,151.3c0,1.1-0.3,1.9-0.8,2.5s-1.3,0.9-2.2,0.9c-0.6,0-1.1-0.1-1.5-0.4s-0.8-0.7-1-1.2
			s-0.4-1.1-0.4-1.8c0-1,0.3-1.9,0.8-2.4s1.3-0.9,2.2-0.9c0.9,0,1.6,0.3,2.2,0.9S64.7,150.3,64.7,151.3z M59.8,151.3
			c0,0.8,0.2,1.4,0.5,1.8s0.8,0.6,1.4,0.6c0.6,0,1.1-0.2,1.4-0.6s0.5-1,0.5-1.8s-0.2-1.4-0.5-1.8s-0.8-0.6-1.4-0.6
			C60.4,148.9,59.8,149.7,59.8,151.3z"/>
		<path id="XMLID_1174_" class="st3" d="M70.5,152.8c0,0.6-0.2,1.1-0.7,1.4s-1.1,0.5-1.9,0.5c-0.8,0-1.5-0.1-2-0.4v-1
			c0.7,0.3,1.4,0.5,2,0.5c0.5,0,0.9-0.1,1.2-0.3s0.4-0.4,0.4-0.7c0-0.3-0.1-0.5-0.3-0.6s-0.6-0.4-1.2-0.6c-0.6-0.2-1-0.4-1.3-0.6
			s-0.4-0.4-0.5-0.6s-0.2-0.5-0.2-0.8c0-0.5,0.2-0.9,0.6-1.2s1-0.5,1.8-0.5c0.7,0,1.4,0.1,2.1,0.4l-0.4,0.8
			c-0.7-0.3-1.2-0.4-1.8-0.4c-0.4,0-0.8,0.1-1,0.2s-0.3,0.3-0.3,0.6c0,0.2,0.1,0.4,0.3,0.6s0.7,0.4,1.4,0.6c0.5,0.2,0.9,0.4,1.2,0.6
			s0.4,0.4,0.6,0.6S70.5,152.5,70.5,152.8z"/>
		<path id="XMLID_1171_" class="st3" d="M74.8,154.7c-1,0-1.7-0.3-2.3-0.9s-0.8-1.4-0.8-2.4c0-1,0.3-1.9,0.8-2.5s1.2-0.9,2.1-0.9
			c0.8,0,1.5,0.3,1.9,0.8s0.7,1.2,0.7,2.1v0.6h-4.4c0,0.7,0.2,1.3,0.6,1.7s0.8,0.6,1.5,0.6c0.3,0,0.7,0,1-0.1s0.7-0.2,1.1-0.4v0.9
			c-0.4,0.2-0.7,0.3-1,0.3S75.3,154.7,74.8,154.7z M74.6,148.8c-0.5,0-0.9,0.2-1.2,0.5s-0.5,0.8-0.5,1.4h3.3c0-0.6-0.1-1.1-0.4-1.4
			S75.1,148.8,74.6,148.8z"/>
		<path id="XMLID_1168_" class="st3" d="M85,154.7c-0.9,0-1.5-0.3-2-0.9H83l0,0.2c0,0.3,0,0.6,0,0.8v2.6H82v-9.3h0.9L83,149h0
			c0.3-0.4,0.5-0.6,0.9-0.8s0.7-0.2,1.1-0.2c0.8,0,1.5,0.3,1.9,0.9s0.7,1.4,0.7,2.5c0,1.1-0.2,1.9-0.7,2.5S85.9,154.7,85,154.7z
			 M84.8,148.9c-0.6,0-1.1,0.2-1.4,0.5s-0.4,0.9-0.4,1.7v0.2c0,0.9,0.1,1.5,0.4,1.9s0.8,0.6,1.4,0.6c0.5,0,1-0.2,1.3-0.7
			s0.5-1,0.5-1.8c0-0.8-0.2-1.4-0.5-1.8S85.4,148.9,84.8,148.9z"/>
		<path id="XMLID_1165_" class="st3" d="M92.1,154.7c-1,0-1.7-0.3-2.3-0.9s-0.8-1.4-0.8-2.4c0-1,0.3-1.9,0.8-2.5s1.2-0.9,2.1-0.9
			c0.8,0,1.5,0.3,1.9,0.8s0.7,1.2,0.7,2.1v0.6h-4.4c0,0.7,0.2,1.3,0.6,1.7s0.8,0.6,1.5,0.6c0.3,0,0.7,0,1-0.1s0.7-0.2,1.1-0.4v0.9
			c-0.4,0.2-0.7,0.3-1,0.3S92.5,154.7,92.1,154.7z M91.8,148.8c-0.5,0-0.9,0.2-1.2,0.5s-0.5,0.8-0.5,1.4h3.3c0-0.6-0.1-1.1-0.4-1.4
			S92.3,148.8,91.8,148.8z"/>
		<path id="XMLID_1162_" class="st3" d="M101.7,151.3c0,1.1-0.3,1.9-0.8,2.5s-1.3,0.9-2.2,0.9c-0.6,0-1.1-0.1-1.5-0.4
			s-0.8-0.7-1-1.2s-0.4-1.1-0.4-1.8c0-1,0.3-1.9,0.8-2.4s1.3-0.9,2.2-0.9c0.9,0,1.6,0.3,2.2,0.9S101.7,150.3,101.7,151.3z
			 M96.9,151.3c0,0.8,0.2,1.4,0.5,1.8s0.8,0.6,1.4,0.6c0.6,0,1.1-0.2,1.4-0.6s0.5-1,0.5-1.8s-0.2-1.4-0.5-1.8s-0.8-0.6-1.4-0.6
			C97.5,148.9,96.9,149.7,96.9,151.3z"/>
		<path id="XMLID_1159_" class="st3" d="M106.4,154.7c-0.9,0-1.5-0.3-2-0.9h-0.1l0,0.2c0,0.3,0,0.6,0,0.8v2.6h-1.1v-9.3h0.9l0.1,0.9
			h0c0.3-0.4,0.5-0.6,0.9-0.8s0.7-0.2,1.1-0.2c0.8,0,1.5,0.3,1.9,0.9s0.7,1.4,0.7,2.5c0,1.1-0.2,1.9-0.7,2.5
			S107.3,154.7,106.4,154.7z M106.3,148.9c-0.6,0-1.1,0.2-1.4,0.5s-0.4,0.9-0.4,1.7v0.2c0,0.9,0.1,1.5,0.4,1.9s0.8,0.6,1.4,0.6
			c0.5,0,1-0.2,1.3-0.7s0.5-1,0.5-1.8c0-0.8-0.2-1.4-0.5-1.8S106.8,148.9,106.3,148.9z"/>
		<path id="XMLID_1157_" class="st3" d="M111.8,154.5h-1.1v-9.1h1.1V154.5z"/>
		<path id="XMLID_1154_" class="st3" d="M116.6,154.7c-1,0-1.7-0.3-2.3-0.9s-0.8-1.4-0.8-2.4c0-1,0.3-1.9,0.8-2.5s1.2-0.9,2.1-0.9
			c0.8,0,1.5,0.3,1.9,0.8s0.7,1.2,0.7,2.1v0.6h-4.4c0,0.7,0.2,1.3,0.6,1.7s0.8,0.6,1.5,0.6c0.3,0,0.7,0,1-0.1s0.7-0.2,1.1-0.4v0.9
			c-0.4,0.2-0.7,0.3-1,0.3S117,154.7,116.6,154.7z M116.3,148.8c-0.5,0-0.9,0.2-1.2,0.5s-0.5,0.8-0.5,1.4h3.3c0-0.6-0.1-1.1-0.4-1.4
			S116.8,148.8,116.3,148.8z"/>
	</g>
</g>
</svg>
