<!-- Generator: Adobe Illustrator 19.0.0, SVG Export Plug-In  -->
<svg version="1.1"
	 xmlns="http://www.w3.org/2000/svg" xmlns:xlink="http://www.w3.org/1999/xlink" xmlns:a="http://ns.adobe.com/AdobeSVGViewerExtensions/3.0/"
	 x="0px" y="0px" width="169.2px" height="167px" viewBox="0 0 169.2 167" style="enable-background:new 0 0 169.2 167;"
	 xml:space="preserve">
<style type="text/css">
	.st0{fill:#0F5A7C;}
	.st1{fill:#FFFFFF;}
	.st2{fill:#3F3F3F;stroke:#3F3F3F;stroke-width:0.2;stroke-miterlimit:10;}
	.st3{fill:#CC0D29;}
	.st4{fill:#F4B23D;}
	.st5{fill:#FFE6BD;}
	.st6{fill:#D39C4A;}
	.st7{fill:none;stroke:#FFFFFF;stroke-miterlimit:10;}
	.st8{fill:#B71824;}
	.st9{fill:#E8626C;}
</style>
<defs>
</defs>
<rect id="XMLID_204_" class="st0" width="151.2" height="167"/>
<polygon id="XMLID_203_" class="st1" points="144.5,166.9 149.4,147 169.2,166.9 "/>
<rect id="XMLID_202_" y="106.1" class="st1" width="151.2" height="60.8"/>
<g id="XMLID_31_">
	<g id="XMLID_33_">
		<path id="XMLID_116_" class="st2" d="M37.6,115.6c-0.8,0-1.4,0.3-1.9,0.9c-0.4,0.6-0.7,1.4-0.7,2.5c0,2.2,0.8,3.3,2.5,3.3
			c0.7,0,1.6-0.2,2.5-0.5v1.8c-0.8,0.3-1.7,0.5-2.7,0.5c-1.5,0-2.6-0.4-3.3-1.3s-1.2-2.1-1.2-3.8c0-1,0.2-1.9,0.6-2.7
			c0.4-0.8,0.9-1.4,1.6-1.8c0.7-0.4,1.5-0.6,2.5-0.6c1,0,1.9,0.2,2.9,0.7l-0.7,1.7c-0.4-0.2-0.7-0.3-1.1-0.5
			C38.4,115.7,38,115.6,37.6,115.6z"/>
		<path id="XMLID_113_" class="st2" d="M47,124l-0.4-1h-0.1c-0.4,0.4-0.7,0.7-1.1,0.9c-0.4,0.2-0.9,0.3-1.5,0.3
			c-0.7,0-1.3-0.2-1.7-0.6c-0.4-0.4-0.6-1-0.6-1.8c0-0.8,0.3-1.4,0.9-1.8c0.6-0.4,1.4-0.6,2.6-0.6l1.3,0v-0.3c0-0.8-0.4-1.2-1.2-1.2
			c-0.6,0-1.3,0.2-2.2,0.6l-0.7-1.4c0.9-0.5,1.9-0.7,2.9-0.7c1,0,1.8,0.2,2.4,0.7c0.5,0.4,0.8,1.1,0.8,2v5.1H47z M46.4,120.4l-0.8,0
			c-0.6,0-1.1,0.1-1.4,0.3c-0.3,0.2-0.4,0.5-0.4,0.9c0,0.6,0.3,0.9,1,0.9c0.5,0,0.9-0.1,1.2-0.4c0.3-0.3,0.4-0.6,0.4-1.1V120.4z"/>
		<path id="XMLID_111_" class="st2" d="M57.6,124h-2.1v-4.5c0-0.6-0.1-1-0.3-1.2c-0.2-0.3-0.5-0.4-0.9-0.4c-0.6,0-1,0.2-1.3,0.6
			s-0.4,1-0.4,1.9v3.6h-2.1v-7.6h1.6l0.3,1h0.1c0.2-0.4,0.6-0.6,1-0.8c0.4-0.2,0.9-0.3,1.4-0.3c0.9,0,1.6,0.2,2,0.7
			c0.5,0.5,0.7,1.2,0.7,2.1V124z"/>
		<path id="XMLID_108_" class="st2" d="M62.2,124.1c-0.9,0-1.6-0.3-2.1-1s-0.8-1.7-0.8-2.9c0-1.3,0.3-2.2,0.8-2.9
			c0.5-0.7,1.2-1,2.2-1c1,0,1.7,0.4,2.2,1.1h0.1c-0.1-0.6-0.2-1.1-0.2-1.5v-2.4h2.1V124h-1.6l-0.4-1h-0.1
			C63.9,123.7,63.2,124.1,62.2,124.1z M62.9,122.4c0.5,0,0.9-0.2,1.2-0.5c0.2-0.3,0.4-0.8,0.4-1.6v-0.2c0-0.8-0.1-1.4-0.4-1.8
			c-0.3-0.4-0.7-0.5-1.2-0.5c-0.5,0-0.8,0.2-1.1,0.6c-0.3,0.4-0.4,1-0.4,1.7s0.1,1.3,0.4,1.7S62.5,122.4,62.9,122.4z"/>
		<path id="XMLID_106_" class="st2" d="M67.6,116.3h2.3l1.4,4.3c0.1,0.4,0.2,0.8,0.3,1.3h0c0.1-0.5,0.1-0.9,0.3-1.3l1.4-4.3h2.2
			l-3.2,8.6c-0.3,0.8-0.7,1.4-1.3,1.8c-0.5,0.4-1.2,0.6-1.9,0.6c-0.4,0-0.7,0-1.1-0.1v-1.7c0.3,0.1,0.5,0.1,0.8,0.1
			c0.4,0,0.7-0.1,1-0.3c0.3-0.2,0.5-0.6,0.6-1l0.1-0.4L67.6,116.3z"/>
		<path id="XMLID_103_" class="st2" d="M87.2,120.1c0,1.2-0.3,2.2-1,2.9c-0.7,0.7-1.6,1.1-2.7,1.1c-0.7,0-1.4-0.2-1.9-0.5
			s-1-0.8-1.3-1.4s-0.5-1.3-0.5-2.1c0-1.2,0.3-2.2,1-2.9c0.7-0.7,1.6-1,2.7-1c0.7,0,1.4,0.2,1.9,0.5c0.6,0.3,1,0.8,1.3,1.4
			C87,118.6,87.2,119.3,87.2,120.1z M81.9,120.1c0,0.8,0.1,1.3,0.4,1.7c0.2,0.4,0.7,0.6,1.2,0.6c0.6,0,1-0.2,1.2-0.6
			c0.2-0.4,0.4-1,0.4-1.7c0-0.8-0.1-1.3-0.4-1.7c-0.2-0.4-0.6-0.6-1.2-0.6c-0.6,0-1,0.2-1.2,0.6S81.9,119.4,81.9,120.1z"/>
		<path id="XMLID_101_" class="st2" d="M93.2,116.2c0.3,0,0.5,0,0.7,0.1l-0.2,2c-0.2,0-0.4-0.1-0.6-0.1c-0.7,0-1.2,0.2-1.6,0.5
			c-0.4,0.3-0.6,0.8-0.6,1.4v3.9h-2.1v-7.6h1.6l0.3,1.3h0.1c0.2-0.4,0.6-0.8,1-1C92.3,116.3,92.7,116.2,93.2,116.2z"/>
		<path id="XMLID_99_" class="st2" d="M102,124.1c-2.4,0-3.6-1.3-3.6-3.9c0-1.3,0.3-2.3,1-3c0.6-0.7,1.6-1,2.8-1
			c0.9,0,1.7,0.2,2.4,0.5l-0.6,1.6c-0.3-0.1-0.6-0.2-0.9-0.3c-0.3-0.1-0.6-0.1-0.8-0.1c-1.1,0-1.6,0.8-1.6,2.3
			c0,1.5,0.5,2.2,1.6,2.2c0.4,0,0.8-0.1,1.1-0.2c0.3-0.1,0.7-0.3,1-0.5v1.8c-0.3,0.2-0.7,0.4-1,0.4C103,124.1,102.5,124.1,102,124.1
			z"/>
		<path id="XMLID_96_" class="st2" d="M111,124l-0.4-1h-0.1c-0.4,0.4-0.7,0.7-1.1,0.9c-0.4,0.2-0.9,0.3-1.5,0.3
			c-0.7,0-1.3-0.2-1.7-0.6c-0.4-0.4-0.6-1-0.6-1.8c0-0.8,0.3-1.4,0.9-1.8c0.6-0.4,1.4-0.6,2.6-0.6l1.3,0v-0.3c0-0.8-0.4-1.2-1.2-1.2
			c-0.6,0-1.3,0.2-2.2,0.6l-0.7-1.4c0.9-0.5,1.9-0.7,2.9-0.7c1,0,1.8,0.2,2.4,0.7c0.5,0.4,0.8,1.1,0.8,2v5.1H111z M110.4,120.4
			l-0.8,0c-0.6,0-1.1,0.1-1.4,0.3c-0.3,0.2-0.4,0.5-0.4,0.9c0,0.6,0.3,0.9,1,0.9c0.5,0,0.9-0.1,1.2-0.4c0.3-0.3,0.4-0.6,0.4-1.1
			V120.4z"/>
		<path id="XMLID_94_" class="st2" d="M116.6,119.8l0.9-1.2l2.1-2.3h2.4l-3,3.3l3.2,4.3h-2.4l-2.2-3.1l-0.9,0.7v2.4h-2.1v-10.6h2.1
			v4.7L116.6,119.8L116.6,119.8z"/>
		<path id="XMLID_91_" class="st2" d="M126.6,124.1c-1.2,0-2.2-0.3-2.9-1c-0.7-0.7-1-1.6-1-2.9c0-1.3,0.3-2.3,1-3
			c0.6-0.7,1.5-1,2.7-1c1.1,0,1.9,0.3,2.5,0.9s0.9,1.5,0.9,2.5v1h-4.9c0,0.6,0.2,1.1,0.5,1.4c0.3,0.3,0.8,0.5,1.4,0.5
			c0.5,0,0.9,0,1.3-0.1s0.8-0.2,1.3-0.5v1.6c-0.4,0.2-0.8,0.3-1.2,0.4S127.2,124.1,126.6,124.1z M126.3,117.7c-0.4,0-0.8,0.1-1,0.4
			s-0.4,0.7-0.4,1.2h2.9c0-0.5-0.1-0.9-0.4-1.2S126.7,117.7,126.3,117.7z"/>
		<path id="XMLID_89_" class="st2" d="M136.7,121.7c0,0.8-0.3,1.4-0.8,1.8c-0.5,0.4-1.4,0.6-2.4,0.6c-0.6,0-1,0-1.4-0.1
			s-0.8-0.2-1.1-0.3v-1.7c0.4,0.2,0.8,0.3,1.3,0.5s0.9,0.2,1.3,0.2c0.8,0,1.1-0.2,1.1-0.7c0-0.2-0.1-0.3-0.2-0.4s-0.3-0.2-0.5-0.3
			s-0.6-0.3-1-0.5c-0.6-0.2-1-0.5-1.3-0.7c-0.3-0.2-0.5-0.5-0.6-0.7c-0.1-0.3-0.2-0.6-0.2-1c0-0.7,0.3-1.2,0.8-1.6
			c0.5-0.4,1.3-0.6,2.2-0.6c0.9,0,1.8,0.2,2.7,0.6l-0.6,1.5c-0.4-0.2-0.7-0.3-1.1-0.4c-0.3-0.1-0.7-0.2-1-0.2
			c-0.6,0-0.9,0.2-0.9,0.5c0,0.2,0.1,0.3,0.3,0.5s0.6,0.3,1.3,0.6c0.6,0.2,1,0.5,1.3,0.7c0.3,0.2,0.5,0.5,0.6,0.7
			S136.7,121.3,136.7,121.7z"/>
		<path id="XMLID_87_" class="st2" d="M42.1,140.5h-1.3L39,134c-0.3-1-0.4-1.6-0.5-1.9c-0.1,0.5-0.2,1.2-0.5,2l-1.9,6.4h-1.3
			l-2.6-9.8h1.3l1.5,6c0.2,0.8,0.4,1.6,0.5,2.3c0.1-0.7,0.3-1.5,0.5-2.4l1.7-5.9h1.3l1.8,6c0.2,0.8,0.4,1.6,0.5,2.4
			c0.1-0.6,0.2-1.4,0.5-2.4l1.5-6h1.3L42.1,140.5z"/>
		<path id="XMLID_84_" class="st2" d="M46,131.1c0-0.3,0.1-0.5,0.2-0.6s0.3-0.2,0.5-0.2c0.2,0,0.4,0.1,0.5,0.2
			c0.1,0.1,0.2,0.3,0.2,0.6c0,0.3-0.1,0.5-0.2,0.6c-0.1,0.1-0.3,0.2-0.5,0.2c-0.2,0-0.4-0.1-0.5-0.2C46.1,131.6,46,131.4,46,131.1z
			 M47.3,140.5h-1.2v-7.4h1.2V140.5z"/>
		<path id="XMLID_82_" class="st2" d="M54.4,138.4c0,0.7-0.3,1.2-0.8,1.6s-1.2,0.6-2.2,0.6c-1,0-1.7-0.2-2.3-0.5V139
			c0.8,0.4,1.6,0.6,2.3,0.6c0.6,0,1.1-0.1,1.3-0.3c0.3-0.2,0.4-0.5,0.4-0.8c0-0.3-0.1-0.5-0.4-0.7c-0.3-0.2-0.7-0.4-1.4-0.7
			c-0.7-0.3-1.2-0.5-1.5-0.7s-0.5-0.4-0.6-0.6c-0.1-0.2-0.2-0.5-0.2-0.9c0-0.6,0.2-1.1,0.7-1.4c0.5-0.3,1.2-0.5,2-0.5
			c0.8,0,1.6,0.2,2.4,0.5l-0.4,1c-0.7-0.3-1.4-0.5-2-0.5c-0.5,0-0.9,0.1-1.1,0.2s-0.4,0.4-0.4,0.7c0,0.3,0.1,0.5,0.3,0.7
			c0.2,0.2,0.7,0.4,1.6,0.7c0.6,0.2,1.1,0.4,1.4,0.6s0.5,0.4,0.6,0.7C54.4,137.8,54.4,138.1,54.4,138.4z"/>
		<path id="XMLID_80_" class="st2" d="M61.3,140.5v-4.7c0-0.6-0.1-1-0.4-1.3c-0.3-0.3-0.7-0.4-1.3-0.4c-0.7,0-1.3,0.2-1.6,0.6
			c-0.3,0.4-0.5,1.1-0.5,2.1v3.8h-1.2V130h1.2v3.1c0,0.4,0,0.7-0.1,1h0.1c0.2-0.4,0.5-0.6,0.9-0.8c0.4-0.2,0.9-0.3,1.4-0.3
			c0.9,0,1.6,0.2,2,0.6c0.5,0.4,0.7,1.1,0.7,2.1v4.8H61.3z"/>
		<path id="XMLID_77_" class="st2" d="M67.9,140.6c-1.1,0-2-0.3-2.6-1c-0.6-0.7-0.9-1.6-0.9-2.8c0-1.2,0.3-2.1,0.9-2.8
			c0.6-0.7,1.4-1.1,2.4-1.1c0.9,0,1.7,0.3,2.2,0.9c0.6,0.6,0.8,1.4,0.8,2.4v0.7h-5.1c0,0.8,0.2,1.5,0.6,1.9s1,0.7,1.7,0.7
			c0.4,0,0.8,0,1.1-0.1s0.8-0.2,1.2-0.4v1.1c-0.4,0.2-0.8,0.3-1.1,0.4C68.8,140.6,68.4,140.6,67.9,140.6z M67.6,134
			c-0.6,0-1,0.2-1.4,0.6s-0.5,0.9-0.6,1.6h3.8c0-0.7-0.2-1.2-0.5-1.6S68.1,134,67.6,134z"/>
		<path id="XMLID_75_" class="st2" d="M77.3,138.4c0,0.7-0.3,1.2-0.8,1.6s-1.2,0.6-2.2,0.6c-1,0-1.7-0.2-2.3-0.5V139
			c0.8,0.4,1.6,0.6,2.3,0.6c0.6,0,1.1-0.1,1.3-0.3c0.3-0.2,0.4-0.5,0.4-0.8c0-0.3-0.1-0.5-0.4-0.7c-0.3-0.2-0.7-0.4-1.4-0.7
			c-0.7-0.3-1.2-0.5-1.5-0.7s-0.5-0.4-0.6-0.6c-0.1-0.2-0.2-0.5-0.2-0.9c0-0.6,0.2-1.1,0.7-1.4c0.5-0.3,1.2-0.5,2-0.5
			c0.8,0,1.6,0.2,2.4,0.5l-0.4,1c-0.7-0.3-1.4-0.5-2-0.5c-0.5,0-0.9,0.1-1.1,0.2s-0.4,0.4-0.4,0.7c0,0.3,0.1,0.5,0.3,0.7
			c0.2,0.2,0.7,0.4,1.6,0.7c0.6,0.2,1.1,0.4,1.4,0.6s0.5,0.4,0.6,0.7C77.2,137.8,77.3,138.1,77.3,138.4z"/>
		<path id="XMLID_72_" class="st2" d="M89.1,136.8c0,1.2-0.3,2.1-0.9,2.8c-0.6,0.7-1.5,1-2.5,1c-0.7,0-1.3-0.2-1.8-0.5
			c-0.5-0.3-0.9-0.8-1.2-1.3c-0.3-0.6-0.4-1.3-0.4-2c0-1.2,0.3-2.1,0.9-2.8s1.4-1,2.5-1c1,0,1.9,0.3,2.5,1
			C88.8,134.7,89.1,135.6,89.1,136.8z M83.5,136.8c0,0.9,0.2,1.6,0.5,2.1s0.9,0.7,1.6,0.7c0.7,0,1.2-0.2,1.6-0.7
			c0.4-0.5,0.6-1.2,0.6-2.1s-0.2-1.6-0.6-2.1c-0.4-0.5-0.9-0.7-1.6-0.7C84.2,134,83.5,134.9,83.5,136.8z"/>
		<path id="XMLID_70_" class="st2" d="M94.4,134h-1.9v6.4h-1.2V134H90v-0.6l1.3-0.4v-0.4c0-0.9,0.2-1.6,0.6-2c0.4-0.4,1-0.7,1.8-0.7
			c0.5,0,0.9,0.1,1.4,0.2l-0.3,0.9c-0.4-0.1-0.8-0.2-1.1-0.2c-0.4,0-0.7,0.1-0.9,0.4c-0.2,0.3-0.3,0.7-0.3,1.3v0.5h1.9V134z"/>
		<path id="XMLID_67_" class="st2" d="M104.2,140.4l0-0.9h-0.1c-0.5,0.7-1.3,1.1-2.3,1.1c-1,0-1.7-0.3-2.2-1
			c-0.5-0.7-0.8-1.6-0.8-2.8c0-1.2,0.3-2.1,0.8-2.8c0.5-0.7,1.3-1,2.2-1c1,0,1.8,0.4,2.3,1.1h0.1l0.2-1h1v7.5c0,1.1-0.3,1.9-0.8,2.4
			s-1.4,0.8-2.5,0.8c-1.1,0-2-0.2-2.7-0.5v-1.1c0.7,0.4,1.6,0.6,2.7,0.6c0.6,0,1.1-0.2,1.5-0.6c0.4-0.4,0.5-0.9,0.5-1.5V140.4z
			 M102.1,139.6c0.7,0,1.3-0.2,1.6-0.6c0.3-0.4,0.5-1,0.5-1.9v-0.3c0-1-0.2-1.7-0.5-2.2c-0.3-0.4-0.9-0.7-1.6-0.7
			c-0.6,0-1.1,0.2-1.4,0.7c-0.3,0.5-0.5,1.2-0.5,2.1c0,0.9,0.2,1.6,0.5,2.1C101,139.4,101.5,139.6,102.1,139.6z"/>
		<path id="XMLID_64_" class="st2" d="M114.2,136.8c0,1.2-0.3,2.1-0.9,2.8c-0.6,0.7-1.5,1-2.5,1c-0.7,0-1.3-0.2-1.8-0.5
			s-0.9-0.8-1.2-1.3c-0.3-0.6-0.4-1.3-0.4-2c0-1.2,0.3-2.1,0.9-2.8c0.6-0.7,1.4-1,2.5-1c1,0,1.9,0.3,2.5,1
			C113.9,134.7,114.2,135.6,114.2,136.8z M108.6,136.8c0,0.9,0.2,1.6,0.5,2.1s0.9,0.7,1.6,0.7c0.7,0,1.2-0.2,1.6-0.7
			c0.4-0.5,0.6-1.2,0.6-2.1s-0.2-1.6-0.6-2.1c-0.4-0.5-0.9-0.7-1.6-0.7C109.3,134,108.6,134.9,108.6,136.8z"/>
		<path id="XMLID_61_" class="st2" d="M122.5,136.8c0,1.2-0.3,2.1-0.9,2.8c-0.6,0.7-1.5,1-2.5,1c-0.7,0-1.3-0.2-1.8-0.5
			c-0.5-0.3-0.9-0.8-1.2-1.3c-0.3-0.6-0.4-1.3-0.4-2c0-1.2,0.3-2.1,0.9-2.8c0.6-0.7,1.4-1,2.5-1c1,0,1.9,0.3,2.5,1
			C122.2,134.7,122.5,135.6,122.5,136.8z M116.9,136.8c0,0.9,0.2,1.6,0.5,2.1s0.9,0.7,1.6,0.7c0.7,0,1.2-0.2,1.6-0.7
			s0.6-1.2,0.6-2.1s-0.2-1.6-0.6-2.1c-0.4-0.5-0.9-0.7-1.6-0.7C117.7,134,116.9,134.9,116.9,136.8z"/>
		<path id="XMLID_58_" class="st2" d="M127,140.6c-1,0-1.7-0.3-2.2-1c-0.5-0.7-0.8-1.6-0.8-2.8c0-1.2,0.3-2.1,0.8-2.8s1.3-1,2.2-1
			c1,0,1.8,0.4,2.3,1.1h0.1c0-0.1,0-0.3-0.1-0.5c0-0.3,0-0.5,0-0.5V130h1.2v10.5h-1l-0.2-1h-0.1C128.8,140.2,128.1,140.6,127,140.6z
			 M127.2,139.6c0.7,0,1.3-0.2,1.6-0.6c0.3-0.4,0.5-1.1,0.5-2v-0.2c0-1-0.2-1.8-0.5-2.2c-0.3-0.4-0.9-0.7-1.6-0.7
			c-0.6,0-1.1,0.2-1.4,0.7c-0.3,0.5-0.5,1.2-0.5,2.1c0,0.9,0.2,1.6,0.5,2.1C126.1,139.4,126.6,139.6,127.2,139.6z"/>
		<path id="XMLID_56_" class="st2" d="M34.5,157h-1.2v-10.5h1.2V157z"/>
		<path id="XMLID_54_" class="st2" d="M38,149.6v4.8c0,0.6,0.1,1,0.4,1.3s0.7,0.4,1.2,0.4c0.8,0,1.3-0.2,1.7-0.6
			c0.3-0.4,0.5-1.1,0.5-2v-3.8H43v7.4h-1l-0.2-1h-0.1c-0.2,0.4-0.5,0.6-0.9,0.8s-0.9,0.3-1.4,0.3c-0.9,0-1.6-0.2-2-0.6
			s-0.7-1.1-0.7-2v-4.8H38z"/>
		<path id="XMLID_52_" class="st2" d="M48.3,157.1c-1.1,0-1.9-0.3-2.5-1c-0.6-0.7-0.9-1.6-0.9-2.8c0-1.2,0.3-2.2,0.9-2.9
			c0.6-0.7,1.5-1,2.6-1c0.4,0,0.7,0,1.1,0.1s0.6,0.2,0.9,0.3l-0.4,1c-0.6-0.2-1.2-0.3-1.6-0.3c-0.7,0-1.3,0.2-1.6,0.7
			c-0.4,0.5-0.5,1.2-0.5,2.1c0,0.9,0.2,1.6,0.5,2c0.4,0.5,0.9,0.7,1.6,0.7c0.6,0,1.3-0.1,1.9-0.4v1.1
			C49.7,157,49.1,157.1,48.3,157.1z"/>
		<path id="XMLID_50_" class="st2" d="M53.1,153.2l0.4-0.5l0.5-0.6l2.4-2.5h1.4l-3,3.2L58,157h-1.5l-2.6-3.4l-0.8,0.7v2.7H52v-10.5
			h1.2v5.5V153.2L53.1,153.2z"/>
		<path id="XMLID_47_" class="st2" d="M67.4,157l-0.2-1h-0.1c-0.4,0.5-0.7,0.8-1.1,0.9c-0.4,0.2-0.8,0.2-1.4,0.2
			c-0.7,0-1.3-0.2-1.7-0.6s-0.6-0.9-0.6-1.6c0-1.5,1.2-2.3,3.5-2.4l1.3,0v-0.4c0-0.6-0.1-1-0.4-1.2c-0.2-0.3-0.6-0.4-1.2-0.4
			c-0.4,0-0.8,0.1-1.1,0.2c-0.3,0.1-0.7,0.2-1,0.4l-0.4-0.9c0.4-0.2,0.8-0.4,1.2-0.5c0.4-0.1,0.9-0.2,1.3-0.2c0.9,0,1.6,0.2,2,0.6
			c0.4,0.4,0.7,1,0.7,1.9v5H67.4z M64.9,156.2c0.7,0,1.2-0.2,1.6-0.5s0.6-0.9,0.6-1.6v-0.7l-1.1,0c-0.8,0-1.5,0.2-1.9,0.4
			c-0.4,0.2-0.6,0.6-0.6,1.1c0,0.4,0.1,0.7,0.4,0.9C64.2,156.1,64.5,156.2,64.9,156.2z"/>
		<path id="XMLID_45_" class="st2" d="M75.6,157v-4.7c0-0.6-0.1-1-0.4-1.3c-0.3-0.3-0.7-0.4-1.3-0.4c-0.8,0-1.3,0.2-1.7,0.6
			s-0.5,1.1-0.5,2v3.8h-1.2v-7.4h1l0.2,1h0.1c0.2-0.4,0.5-0.6,1-0.8c0.4-0.2,0.9-0.3,1.4-0.3c0.9,0,1.6,0.2,2,0.7
			c0.4,0.4,0.7,1.1,0.7,2v4.8H75.6z"/>
		<path id="XMLID_42_" class="st2" d="M81.7,157.1c-1,0-1.7-0.3-2.2-1c-0.5-0.7-0.8-1.6-0.8-2.8c0-1.2,0.3-2.1,0.8-2.8
			c0.5-0.7,1.3-1,2.2-1c1,0,1.8,0.4,2.3,1.1h0.1c0-0.1,0-0.3-0.1-0.5c0-0.3,0-0.5,0-0.5v-2.9h1.2V157h-1l-0.2-1H84
			C83.5,156.8,82.7,157.1,81.7,157.1z M81.9,156.1c0.7,0,1.3-0.2,1.6-0.6c0.3-0.4,0.5-1.1,0.5-2v-0.2c0-1-0.2-1.8-0.5-2.2
			c-0.3-0.4-0.9-0.7-1.6-0.7c-0.6,0-1.1,0.2-1.4,0.7c-0.3,0.5-0.5,1.2-0.5,2.1c0,0.9,0.2,1.6,0.5,2.1
			C80.8,155.9,81.3,156.1,81.9,156.1z"/>
		<path id="XMLID_39_" class="st2" d="M90.3,160.3c-0.4,0-0.8-0.1-1.1-0.2v-1c0.3,0.1,0.6,0.1,0.9,0.1c0.3,0,0.6-0.1,0.8-0.3
			s0.2-0.5,0.2-0.9v-8.5h1.2v8.5c0,0.7-0.2,1.3-0.5,1.7S91,160.3,90.3,160.3z M91.1,147.6c0-0.3,0.1-0.5,0.2-0.6s0.3-0.2,0.5-0.2
			c0.2,0,0.4,0.1,0.5,0.2c0.1,0.1,0.2,0.3,0.2,0.6c0,0.3-0.1,0.5-0.2,0.6c-0.1,0.1-0.3,0.2-0.5,0.2c-0.2,0-0.4-0.1-0.5-0.2
			C91.1,148.1,91.1,147.9,91.1,147.6z"/>
		<path id="XMLID_36_" class="st2" d="M101.1,153.3c0,1.2-0.3,2.1-0.9,2.8s-1.5,1-2.5,1c-0.7,0-1.3-0.2-1.8-0.5
			c-0.5-0.3-0.9-0.8-1.2-1.3c-0.3-0.6-0.4-1.3-0.4-2c0-1.2,0.3-2.1,0.9-2.8s1.4-1,2.5-1c1,0,1.9,0.3,2.5,1S101.1,152.1,101.1,153.3z
			 M95.5,153.3c0,0.9,0.2,1.6,0.5,2.1s0.9,0.7,1.6,0.7c0.7,0,1.2-0.2,1.6-0.7s0.6-1.2,0.6-2.1c0-0.9-0.2-1.6-0.6-2.1
			c-0.4-0.5-0.9-0.7-1.6-0.7C96.3,150.5,95.5,151.4,95.5,153.3z"/>
		<path id="XMLID_34_" class="st2" d="M101.7,149.6h1.3l1.6,4.2c0.3,0.9,0.5,1.6,0.6,2h0.1c0-0.2,0.1-0.5,0.3-0.9
			c0.1-0.5,0.3-0.8,0.4-1.1l1.5-4.2h1.3l-3.2,8.4c-0.3,0.8-0.7,1.4-1.1,1.8c-0.4,0.4-1,0.5-1.6,0.5c-0.3,0-0.7,0-1-0.1v-1
			c0.2,0.1,0.5,0.1,0.8,0.1c0.4,0,0.7-0.1,1-0.3s0.5-0.5,0.7-1l0.4-1L101.7,149.6z"/>
	</g>
</g>
<g id="XMLID_26_">
	<circle id="XMLID_30_" class="st3" cx="12.5" cy="117.8" r="4"/>
	<path id="XMLID_29_" class="st3" d="M8.4,117.8h8.1v10.1C16.5,127.9,8.4,123,8.4,117.8z"/>
	<circle id="XMLID_28_" class="st3" cx="20.5" cy="117.7" r="4"/>
	<path id="XMLID_27_" class="st3" d="M24.6,117.7h-8.1v10.1C16.5,127.7,24.6,122.8,24.6,117.7z"/>
</g>
<g id="XMLID_15_">
	<circle id="XMLID_25_" class="st4" cx="48.5" cy="47.1" r="21.3"/>
	<path id="XMLID_24_" class="st5" d="M35.1,47.1h31.7l-15-23.8C51.8,23.2,35.1,27.6,35.1,47.1z"/>
	<rect id="XMLID_23_" x="35.1" y="47.1" class="st6" width="32" height="13.6"/>
	<circle id="XMLID_22_" class="st3" cx="47.5" cy="36.2" r="3"/>
	<path id="XMLID_21_" class="st7" d="M13.9,40.4c0,30.9,25,55.9,55.9,55.9c30.9,0,55.9-25,55.9-55.9"/>
	<rect id="XMLID_20_" x="35.1" y="51.5" class="st5" width="31.7" height="5.4"/>
	<circle id="XMLID_19_" class="st8" cx="96.3" cy="44.9" r="18.2"/>
	<circle id="XMLID_18_" class="st9" cx="96.3" cy="44.9" r="11.4"/>
	<circle id="XMLID_17_" class="st5" cx="96.3" cy="44.9" r="6.2"/>
	<path id="XMLID_16_" class="st1" d="M95.3,45.9L95.3,45.9c-0.7-0.7-0.7-1.9,0-2.6l27.5-27.5c0.7-0.7,1.9-0.7,2.6,0l0,0
		c0.7,0.7,0.7,1.9,0,2.6L97.9,45.9C97.2,46.7,96,46.7,95.3,45.9z"/>
</g>
</svg>