<!-- Generator: Adobe Illustrator 19.0.0, SVG Export Plug-In  -->
<svg version="1.1"
	 xmlns="http://www.w3.org/2000/svg" xmlns:xlink="http://www.w3.org/1999/xlink" xmlns:a="http://ns.adobe.com/AdobeSVGViewerExtensions/3.0/"
	 x="0px" y="0px" width="165.3px" height="167.3px" viewBox="0 0 165.3 167.3" style="enable-background:new 0 0 165.3 167.3;"
	 xml:space="preserve">
<style type="text/css">
	.st0{fill:#FFFFFF;}
	.st1{fill:#A0134D;}
	.st2{fill:#3F3F3F;stroke:#353535;stroke-width:0.2;stroke-miterlimit:10;}
	.st3{fill:#CC0D29;}
	.st4{fill:#E4E4E4;}
	.st5{fill:none;stroke:#FFFFFF;stroke-width:0.5;stroke-miterlimit:10;}
</style>
<defs>
</defs>
<polygon id="XMLID_151_" class="st0" points="19.2,167.3 19.2,147.5 0,167.3 "/>
<rect id="XMLID_150_" x="16.7" class="st1" width="148.7" height="167"/>
<rect id="XMLID_149_" x="16.7" y="106.5" class="st0" width="148.7" height="60.8"/>
<g id="XMLID_36_">
	<g id="XMLID_38_">
		<path id="XMLID_92_" class="st2" d="M55,116.9c-0.8,0-1.4,0.3-1.8,0.9c-0.4,0.6-0.6,1.4-0.6,2.5c0,2.2,0.8,3.3,2.5,3.3
			c0.7,0,1.5-0.2,2.5-0.5v1.7c-0.8,0.3-1.7,0.5-2.7,0.5c-1.4,0-2.5-0.4-3.3-1.3c-0.8-0.9-1.1-2.1-1.1-3.7c0-1,0.2-1.9,0.6-2.7
			s0.9-1.4,1.6-1.8s1.5-0.6,2.4-0.6c1,0,1.9,0.2,2.9,0.7l-0.7,1.7c-0.4-0.2-0.7-0.3-1.1-0.5C55.7,117,55.4,116.9,55,116.9z"/>
		<path id="XMLID_90_" class="st2" d="M61.5,125.1h-2v-10.5h2V125.1z"/>
		<path id="XMLID_87_" class="st2" d="M70.5,121.4c0,1.2-0.3,2.2-1,2.9c-0.6,0.7-1.5,1-2.7,1c-0.7,0-1.4-0.2-1.9-0.5
			c-0.6-0.3-1-0.8-1.3-1.4c-0.3-0.6-0.4-1.3-0.4-2.1c0-1.2,0.3-2.2,1-2.9c0.6-0.7,1.5-1,2.7-1c0.7,0,1.4,0.2,1.9,0.5
			c0.6,0.3,1,0.8,1.3,1.4S70.5,120.6,70.5,121.4z M65.3,121.4c0,0.7,0.1,1.3,0.4,1.7c0.2,0.4,0.6,0.6,1.2,0.6c0.5,0,0.9-0.2,1.2-0.6
			c0.2-0.4,0.4-0.9,0.4-1.7c0-0.7-0.1-1.3-0.4-1.7c-0.2-0.4-0.6-0.6-1.2-0.6c-0.5,0-0.9,0.2-1.2,0.6
			C65.4,120.1,65.3,120.6,65.3,121.4z"/>
		<path id="XMLID_85_" class="st2" d="M75.3,123.6c0.4,0,0.8-0.1,1.3-0.2v1.5c-0.5,0.2-1.1,0.3-1.9,0.3c-0.8,0-1.4-0.2-1.8-0.6
			c-0.4-0.4-0.6-1-0.6-1.9v-3.6h-1v-0.9l1.1-0.7l0.6-1.6h1.3v1.6h2.1v1.5h-2.1v3.6c0,0.3,0.1,0.5,0.2,0.6
			C74.9,123.6,75.1,123.6,75.3,123.6z"/>
		<path id="XMLID_83_" class="st2" d="M85.1,125.1h-2v-4.4c0-1.1-0.4-1.6-1.2-1.6c-0.6,0-1,0.2-1.2,0.6c-0.3,0.4-0.4,1-0.4,1.9v3.5
			h-2v-10.5h2v2.1c0,0.2,0,0.6,0,1.2l0,0.6h0.1c0.5-0.7,1.2-1.1,2.2-1.1c0.9,0,1.6,0.2,2,0.7c0.5,0.5,0.7,1.2,0.7,2V125.1z"/>
		<path id="XMLID_80_" class="st2" d="M90.6,125.3c-1.2,0-2.2-0.3-2.8-1c-0.7-0.7-1-1.6-1-2.8c0-1.3,0.3-2.2,0.9-2.9s1.5-1,2.6-1
			c1.1,0,1.9,0.3,2.5,0.9c0.6,0.6,0.9,1.4,0.9,2.5v1h-4.8c0,0.6,0.2,1,0.5,1.4s0.8,0.5,1.4,0.5c0.5,0,0.9,0,1.3-0.1
			c0.4-0.1,0.8-0.2,1.3-0.5v1.6c-0.4,0.2-0.7,0.3-1.1,0.4C91.7,125.2,91.2,125.3,90.6,125.3z M90.3,118.9c-0.4,0-0.8,0.1-1,0.4
			c-0.2,0.3-0.4,0.7-0.4,1.2h2.9c0-0.5-0.1-0.9-0.4-1.2C91.1,119.1,90.7,118.9,90.3,118.9z"/>
		<path id="XMLID_78_" class="st2" d="M100.6,122.9c0,0.8-0.3,1.4-0.8,1.8c-0.5,0.4-1.3,0.6-2.4,0.6c-0.5,0-1,0-1.4-0.1
			c-0.4-0.1-0.7-0.2-1.1-0.3v-1.7c0.4,0.2,0.8,0.3,1.3,0.5c0.5,0.1,0.9,0.2,1.3,0.2c0.7,0,1.1-0.2,1.1-0.6c0-0.2,0-0.3-0.1-0.4
			c-0.1-0.1-0.3-0.2-0.5-0.3c-0.2-0.1-0.6-0.3-1-0.4c-0.6-0.2-1-0.5-1.3-0.7c-0.3-0.2-0.5-0.4-0.6-0.7c-0.1-0.3-0.2-0.6-0.2-1
			c0-0.7,0.3-1.2,0.8-1.5s1.3-0.5,2.2-0.5c0.9,0,1.8,0.2,2.6,0.6l-0.6,1.5c-0.4-0.2-0.7-0.3-1.1-0.4c-0.3-0.1-0.7-0.2-1-0.2
			c-0.6,0-0.9,0.2-0.9,0.5c0,0.2,0.1,0.3,0.3,0.5c0.2,0.1,0.6,0.3,1.3,0.6c0.6,0.2,1,0.5,1.3,0.7s0.5,0.4,0.6,0.7
			C100.5,122.2,100.6,122.5,100.6,122.9z"/>
		<path id="XMLID_75_" class="st2" d="M56.2,139.5l-1-2.7h-3.4l-1,2.7h-1.1l3.3-8.6h1l3.3,8.6H56.2z M54.8,135.9l-1-2.6l-0.4-1.3
			c-0.1,0.5-0.2,0.9-0.4,1.3l-1,2.6H54.8z"/>
		<path id="XMLID_73_" class="st2" d="M59.4,139.5h-1.1v-9.1h1.1V139.5z"/>
		<path id="XMLID_71_" class="st2" d="M66.7,139.5l-1.1-3.6c-0.1-0.3-0.3-0.9-0.4-1.7h0c-0.2,0.8-0.3,1.3-0.4,1.7l-1.2,3.6h-1.2
			l-1.8-6.4h1.1c0.4,1.6,0.7,2.8,0.9,3.6s0.3,1.4,0.4,1.7h0l0.1-0.4c0.1-0.6,0.2-1,0.4-1.4l1.1-3.6h1.1l1.1,3.6
			c0,0.1,0.1,0.3,0.1,0.4s0.1,0.3,0.1,0.5s0.1,0.3,0.1,0.4s0.1,0.3,0.1,0.4h0.1c0-0.3,0.2-0.9,0.4-1.9l0.9-3.4h1.1l-1.8,6.4H66.7z"
			/>
		<path id="XMLID_68_" class="st2" d="M74.8,139.5l-0.2-0.9h0c-0.3,0.4-0.6,0.7-1,0.8s-0.7,0.2-1.2,0.2c-0.6,0-1.1-0.2-1.5-0.5
			s-0.5-0.8-0.5-1.4c0-1.3,1-2,3.1-2.1l1.1,0v-0.4c0-0.5-0.1-0.8-0.3-1.1s-0.5-0.3-1-0.3c-0.3,0-0.7,0.1-1,0.2s-0.6,0.2-0.9,0.3
			l-0.3-0.8c0.3-0.2,0.7-0.3,1.1-0.4s0.8-0.1,1.1-0.1c0.8,0,1.4,0.2,1.7,0.5s0.6,0.9,0.6,1.6v4.4H74.8z M72.6,138.8
			c0.6,0,1.1-0.2,1.4-0.5s0.5-0.8,0.5-1.4v-0.6l-0.9,0c-0.7,0-1.3,0.1-1.6,0.4s-0.5,0.5-0.5,1c0,0.3,0.1,0.6,0.3,0.8
			S72.3,138.8,72.6,138.8z"/>
		<path id="XMLID_66_" class="st2" d="M76.6,133.1h1.1l1.4,3.7c0.3,0.8,0.5,1.4,0.5,1.8h0c0-0.1,0.1-0.4,0.2-0.8s0.2-0.7,0.3-1
			l1.3-3.7h1.1l-2.8,7.3c-0.3,0.7-0.6,1.2-1,1.5s-0.8,0.5-1.4,0.5c-0.3,0-0.6,0-0.9-0.1v-0.8c0.2,0,0.4,0.1,0.7,0.1
			c0.3,0,0.6-0.1,0.9-0.3s0.4-0.5,0.6-0.9l0.3-0.9L76.6,133.1z"/>
		<path id="XMLID_64_" class="st2" d="M87.9,137.8c0,0.6-0.2,1.1-0.7,1.4s-1.1,0.5-1.9,0.5c-0.8,0-1.5-0.1-2-0.4v-1
			c0.7,0.3,1.4,0.5,2,0.5c0.5,0,0.9-0.1,1.2-0.3s0.4-0.4,0.4-0.7c0-0.3-0.1-0.5-0.3-0.6s-0.6-0.4-1.2-0.6c-0.6-0.2-1-0.4-1.3-0.6
			s-0.4-0.4-0.5-0.6s-0.2-0.5-0.2-0.8c0-0.5,0.2-0.9,0.6-1.2s1-0.5,1.8-0.5c0.7,0,1.4,0.1,2.1,0.4l-0.4,0.8
			c-0.7-0.3-1.2-0.4-1.8-0.4c-0.4,0-0.8,0.1-1,0.2s-0.3,0.3-0.3,0.6c0,0.2,0.1,0.4,0.3,0.6s0.7,0.4,1.4,0.6c0.5,0.2,0.9,0.4,1.2,0.6
			s0.4,0.4,0.6,0.6S87.9,137.5,87.9,137.8z"/>
		<path id="XMLID_61_" class="st2" d="M95.6,133c0.8,0,1.5,0.3,2,0.9s0.7,1.4,0.7,2.4c0,1.1-0.2,1.9-0.7,2.5s-1.1,0.9-2,0.9
			c-0.4,0-0.8-0.1-1.2-0.2s-0.6-0.4-0.8-0.7h-0.1c-0.1,0.5-0.2,0.7-0.2,0.8h-0.8v-9.1h1.1v2.2c0,0.4,0,0.9-0.1,1.3h0.1
			C94,133.3,94.7,133,95.6,133z M95.4,133.9c-0.6,0-1.1,0.2-1.4,0.6s-0.4,1-0.4,1.9v0c0,0.9,0.1,1.5,0.4,1.9s0.8,0.6,1.4,0.6
			c0.6,0,1-0.2,1.3-0.6s0.4-1,0.4-1.8c0-0.8-0.1-1.4-0.4-1.8S96,133.9,95.4,133.9z"/>
		<path id="XMLID_59_" class="st2" d="M98.8,133.1h1.1l1.4,3.7c0.3,0.8,0.5,1.4,0.5,1.8h0c0-0.1,0.1-0.4,0.2-0.8s0.2-0.7,0.3-1
			l1.3-3.7h1.1l-2.8,7.3c-0.3,0.7-0.6,1.2-1,1.5s-0.8,0.5-1.4,0.5c-0.3,0-0.6,0-0.9-0.1v-0.8c0.2,0,0.4,0.1,0.7,0.1
			c0.3,0,0.6-0.1,0.9-0.3s0.4-0.5,0.6-0.9l0.3-0.9L98.8,133.1z"/>
		<path id="XMLID_57_" class="st2" d="M49.6,147.5h1.1l1.4,3.7c0.3,0.8,0.5,1.4,0.5,1.8h0c0-0.1,0.1-0.4,0.2-0.8s0.2-0.7,0.3-1
			l1.3-3.7h1.1l-2.8,7.3c-0.3,0.7-0.6,1.2-1,1.5s-0.8,0.5-1.4,0.5c-0.3,0-0.6,0-0.9-0.1v-0.8c0.2,0,0.4,0.1,0.7,0.1
			c0.3,0,0.6-0.1,0.9-0.3s0.4-0.5,0.6-0.9l0.3-0.9L49.6,147.5z"/>
		<path id="XMLID_54_" class="st2" d="M62.3,150.7c0,1.1-0.3,1.9-0.8,2.5s-1.3,0.9-2.2,0.9c-0.6,0-1.1-0.1-1.5-0.4s-0.8-0.7-1-1.2
			s-0.4-1.1-0.4-1.8c0-1,0.3-1.9,0.8-2.4s1.3-0.9,2.2-0.9c0.9,0,1.6,0.3,2.2,0.9S62.3,149.7,62.3,150.7z M57.5,150.7
			c0,0.8,0.2,1.4,0.5,1.8s0.8,0.6,1.4,0.6c0.6,0,1.1-0.2,1.4-0.6s0.5-1,0.5-1.8s-0.2-1.4-0.5-1.8s-0.8-0.6-1.4-0.6
			C58.1,148.3,57.5,149.1,57.5,150.7z"/>
		<path id="XMLID_52_" class="st2" d="M65,147.5v4.1c0,0.5,0.1,0.9,0.3,1.2s0.6,0.4,1.1,0.4c0.7,0,1.1-0.2,1.4-0.6s0.5-1,0.5-1.8
			v-3.4h1.1v6.4h-0.9l-0.2-0.8h-0.1c-0.2,0.3-0.5,0.5-0.8,0.7s-0.8,0.3-1.2,0.3c-0.8,0-1.4-0.2-1.7-0.6s-0.6-1-0.6-1.8v-4.2H65z"/>
		<path id="XMLID_50_" class="st2" d="M74.4,147.4c0.3,0,0.5,0,0.8,0.1l-0.1,1c-0.2-0.1-0.5-0.1-0.7-0.1c-0.3,0-0.7,0.1-0.9,0.3
			s-0.5,0.4-0.7,0.8s-0.2,0.7-0.2,1.1v3.4h-1.1v-6.4h0.9l0.1,1.2h0c0.2-0.4,0.5-0.7,0.9-1S74,147.4,74.4,147.4z"/>
		<path id="XMLID_48_" class="st2" d="M83.7,152.2c0,0.6-0.2,1.1-0.7,1.4s-1.1,0.5-1.9,0.5c-0.8,0-1.5-0.1-2-0.4v-1
			c0.7,0.3,1.4,0.5,2,0.5c0.5,0,0.9-0.1,1.2-0.3s0.4-0.4,0.4-0.7c0-0.3-0.1-0.5-0.3-0.6s-0.6-0.4-1.2-0.6c-0.6-0.2-1-0.4-1.3-0.6
			s-0.4-0.4-0.5-0.6s-0.2-0.5-0.2-0.8c0-0.5,0.2-0.9,0.6-1.2s1-0.5,1.8-0.5c0.7,0,1.4,0.1,2.1,0.4l-0.4,0.8
			c-0.7-0.3-1.2-0.4-1.8-0.4c-0.4,0-0.8,0.1-1,0.2s-0.3,0.3-0.3,0.6c0,0.2,0.1,0.4,0.3,0.6s0.7,0.4,1.4,0.6c0.5,0.2,0.9,0.4,1.2,0.6
			s0.4,0.4,0.6,0.6S83.7,151.9,83.7,152.2z"/>
		<path id="XMLID_45_" class="st2" d="M85.2,145.8c0-0.2,0.1-0.4,0.2-0.5s0.3-0.2,0.4-0.2c0.2,0,0.3,0.1,0.4,0.2s0.2,0.3,0.2,0.5
			c0,0.2-0.1,0.4-0.2,0.5s-0.3,0.2-0.4,0.2c-0.2,0-0.3-0.1-0.4-0.2S85.2,146,85.2,145.8z M86.3,153.9h-1.1v-6.4h1.1V153.9z"/>
		<path id="XMLID_42_" class="st2" d="M90.6,154c-0.8,0-1.5-0.3-1.9-0.9s-0.7-1.4-0.7-2.5c0-1.1,0.2-1.9,0.7-2.5s1.1-0.9,2-0.9
			c0.9,0,1.5,0.3,2,0.9h0.1c0-0.1,0-0.2,0-0.5s0-0.4,0-0.5v-2.6h1.1v9.1h-0.8l-0.2-0.9h0C92.2,153.7,91.5,154,90.6,154z M90.8,153.2
			c0.6,0,1.1-0.2,1.4-0.5s0.4-0.9,0.4-1.7v-0.2c0-0.9-0.1-1.5-0.4-1.9s-0.8-0.6-1.4-0.6c-0.5,0-1,0.2-1.3,0.6s-0.4,1-0.4,1.8
			c0,0.8,0.1,1.4,0.4,1.8S90.2,153.2,90.8,153.2z"/>
		<path id="XMLID_39_" class="st2" d="M98.5,154c-1,0-1.7-0.3-2.3-0.9s-0.8-1.4-0.8-2.4c0-1,0.3-1.9,0.8-2.5s1.2-0.9,2.1-0.9
			c0.8,0,1.5,0.3,1.9,0.8s0.7,1.2,0.7,2.1v0.6h-4.4c0,0.7,0.2,1.3,0.6,1.7s0.8,0.6,1.5,0.6c0.3,0,0.7,0,1-0.1s0.7-0.2,1.1-0.4v0.9
			c-0.4,0.2-0.7,0.3-1,0.3S98.9,154,98.5,154z M98.2,148.2c-0.5,0-0.9,0.2-1.2,0.5s-0.5,0.8-0.5,1.4h3.3c0-0.6-0.1-1.1-0.4-1.4
			S98.7,148.2,98.2,148.2z"/>
	</g>
</g>
<g id="XMLID_31_">
	<circle id="XMLID_35_" class="st3" cx="30.2" cy="119.2" r="4"/>
	<path id="XMLID_34_" class="st3" d="M26.1,119.2h8.1v10.1C34.2,129.3,26.1,124.4,26.1,119.2z"/>
	<circle id="XMLID_33_" class="st3" cx="38.2" cy="119" r="4"/>
	<path id="XMLID_32_" class="st3" d="M42.2,119h-8.1v10.1C34.2,129.1,42.2,124.2,42.2,119z"/>
</g>
<g id="XMLID_15_">
	<g id="XMLID_16_">
		<path id="XMLID_30_" class="st4" d="M72.8,22.1l-10.2,1.8c-2.2,0-4,1.5-4,3.3v64.1c0,1.8,1.8,3.3,4,3.3h33.1V16.5H78.2L72.8,22.1"
			/>
		<path id="XMLID_29_" class="st4" d="M109.4,22.1l10.2,1.8c2.2,0,4,1.5,4,3.3v64.1c0,1.8-1.8,3.3-4,3.3H86.5V16.4h17.4L109.4,22.1"
			/>
		<line id="XMLID_28_" class="st5" x1="91.1" y1="94.5" x2="91.1" y2="30.1"/>
		<polygon id="XMLID_27_" class="st1" points="120.2,62.1 111.6,65 103.1,62.1 103.1,45.9 120.2,45.9 		"/>
		<line id="XMLID_26_" class="st5" x1="78.6" y1="16.5" x2="103.1" y2="16.5"/>
		
			<rect id="XMLID_25_" x="78.1" y="16.7" transform="matrix(0.7071 -0.7071 0.7071 0.7071 5.7218 65.5113)" class="st5" width="7.7" height="18.2"/>
		
			<rect id="XMLID_24_" x="96" y="17.1" transform="matrix(-0.7071 -0.7071 0.7071 -0.7071 152.15 114.646)" class="st5" width="7.7" height="17.5"/>
		<circle id="XMLID_23_" class="st1" cx="96.9" cy="42.5" r="1.3"/>
		<circle id="XMLID_22_" class="st1" cx="96.9" cy="50.1" r="1.3"/>
		<circle id="XMLID_21_" class="st1" cx="96.9" cy="57.6" r="1.3"/>
		<circle id="XMLID_20_" class="st1" cx="96.9" cy="65.2" r="1.3"/>
		<circle id="XMLID_19_" class="st1" cx="96.9" cy="72.8" r="1.3"/>
		<circle id="XMLID_18_" class="st1" cx="96.9" cy="80.4" r="1.3"/>
		<circle id="XMLID_17_" class="st1" cx="96.9" cy="88" r="1.3"/>
	</g>
</g>
</svg>