<!-- Generator: Adobe Illustrator 19.0.0, SVG Export Plug-In  -->
<svg version="1.1"
	 xmlns="http://www.w3.org/2000/svg" xmlns:xlink="http://www.w3.org/1999/xlink" xmlns:a="http://ns.adobe.com/AdobeSVGViewerExtensions/3.0/"
	 x="0px" y="0px" width="85px" height="121.9px" viewBox="0 0 85 121.9" style="enable-background:new 0 0 85 121.9;"
	 xml:space="preserve">
<style type="text/css">
	.st0{fill:#AFA89E;}
	.st1{fill:#D3AB5B;}
	.st2{fill:#E5E5DF;}
	.st3{fill:#AAA99B;}
	.st4{fill:#9B9B92;}
	.st5{clip-path:url(#XMLID_34_);fill:#323E95;}
	.st6{clip-path:url(#XMLID_34_);fill:#F4F4F4;}
	.st7{clip-path:url(#XMLID_34_);fill:#D80031;}
	.st8{fill:#D80031;}
	.st9{fill:#F7F5F5;}
	.st10{clip-path:url(#XMLID_35_);fill:#323E95;}
	.st11{clip-path:url(#XMLID_35_);fill:#F4F4F4;}
	.st12{clip-path:url(#XMLID_35_);fill:#D80031;}
</style>
<defs>
</defs>
<g id="XMLID_24_">
	<circle id="XMLID_33_" class="st0" cx="21" cy="42.7" r="13.9"/>
	<rect id="XMLID_32_" x="7" y="43" class="st0" width="27.9" height="53.5"/>
	<rect id="XMLID_31_" x="16.6" y="8.4" class="st0" width="8.9" height="54.8"/>
	<path id="XMLID_30_" class="st1" d="M23.9,7.3h-5c-1.5,0-2.7-1.2-2.7-2.7v-2c0-1.5,1.2-2.7,2.7-2.7h5c1.5,0,2.7,1.2,2.7,2.7v2
		C26.5,6.1,25.3,7.3,23.9,7.3z"/>
	<rect id="XMLID_29_" x="11.3" y="45.3" class="st2" width="23.7" height="37.1"/>
	<rect id="XMLID_28_" x="13.8" y="48.5" class="st3" width="18.7" height="29.4"/>
	<path id="XMLID_27_" class="st0" d="M31.7,99.4H10.2C8.5,99.4,7,98,7,96.2v-1.4c0-1.8,1.5-3.2,3.2-3.2h21.5c1.8,0,3.2,1.5,3.2,3.2
		v1.4C35,98,33.5,99.4,31.7,99.4z"/>
	<rect id="XMLID_26_" x="21.4" y="7.3" class="st4" width="4.1" height="22.9"/>
	<path id="XMLID_25_" class="st0" d="M26,10.7H16c-0.7,0-1.3-0.6-1.3-1.3V8.5c0-0.7,0.6-1.3,1.3-1.3h10c0.7,0,1.3,0.6,1.3,1.3v0.9
		C27.2,10.2,26.7,10.7,26,10.7z"/>
</g>
<g id="XMLID_18_">
	<g id="XMLID_19_">
		<defs>
			<rect id="XMLID_20_" x="23.6" y="69.7" width="61.4" height="35.8"/>
		</defs>
		<clipPath id="XMLID_34_">
			<use xlink:href="#XMLID_20_"  style="overflow:visible;"/>
		</clipPath>
		<rect id="XMLID_23_" x="23.6" y="69.7" class="st5" width="20.5" height="35.8"/>
		<rect id="XMLID_22_" x="44.1" y="69.7" class="st6" width="20.4" height="35.8"/>
		<rect id="XMLID_21_" x="64.5" y="69.7" class="st7" width="20.5" height="35.8"/>
	</g>
</g>
<circle id="XMLID_17_" class="st8" cx="16.6" cy="105.4" r="16.6"/>
<rect id="XMLID_16_" x="14.4" y="96.8" transform="matrix(0.7071 0.7071 -0.7071 0.7071 79.3703 19.1562)" class="st9" width="4.3" height="17.2"/>
<rect id="XMLID_15_" x="14.4" y="96.8" transform="matrix(-0.7071 0.7071 -0.7071 -0.7071 102.7908 168.1967)" class="st9" width="4.3" height="17.2"/>
</svg>