<!-- Generator: Adobe Illustrator 19.0.0, SVG Export Plug-In  -->
<svg version="1.1"
	 xmlns="http://www.w3.org/2000/svg" xmlns:xlink="http://www.w3.org/1999/xlink" xmlns:a="http://ns.adobe.com/AdobeSVGViewerExtensions/3.0/"
	 x="0px" y="0px" width="169.6px" height="167.1px" viewBox="0 0 169.6 167.1" style="enable-background:new 0 0 169.6 167.1;"
	 xml:space="preserve">
<style type="text/css">
	.st0{fill:#E59145;}
	.st1{fill:#FFFFFF;}
	.st2{fill:#3F3F3F;stroke:#3F3F3F;stroke-width:0.2;stroke-miterlimit:10;}
	.st3{fill:#CC0D29;}
	.st4{fill:#B0B4B5;}
</style>
<defs>
</defs>
<g id="XMLID_15_">
	<rect id="XMLID_140_" class="st0" width="151.7" height="167"/>
	<polygon id="XMLID_139_" class="st1" points="147.8,166.7 150,147.5 169.6,167.1 	"/>
	<rect id="XMLID_138_" y="111.1" class="st1" width="151.8" height="55.6"/>
	<g id="XMLID_29_">
		<g id="XMLID_31_">
			<path id="XMLID_83_" class="st2" d="M37,127.4c0,0.9-0.3,1.6-1,2.1s-1.6,0.8-2.7,0.8c-1.1,0-2-0.2-2.8-0.6v-2
				c0.7,0.3,1.2,0.5,1.7,0.6c0.5,0.1,0.9,0.2,1.3,0.2c0.5,0,0.8-0.1,1.1-0.3s0.4-0.4,0.4-0.8c0-0.2-0.1-0.4-0.2-0.5
				c-0.1-0.2-0.3-0.3-0.5-0.4c-0.2-0.1-0.6-0.4-1.3-0.7c-0.6-0.3-1.1-0.6-1.4-0.8c-0.3-0.3-0.5-0.6-0.7-0.9
				c-0.2-0.4-0.3-0.8-0.3-1.2c0-0.9,0.3-1.6,0.9-2.1c0.6-0.5,1.4-0.8,2.5-0.8c0.5,0,1,0.1,1.5,0.2s1,0.3,1.5,0.5l-0.7,1.6
				c-0.5-0.2-1-0.4-1.3-0.5c-0.3-0.1-0.7-0.1-1-0.1c-0.4,0-0.7,0.1-0.9,0.3c-0.2,0.2-0.3,0.4-0.3,0.7c0,0.2,0,0.3,0.1,0.5
				c0.1,0.1,0.2,0.3,0.4,0.4s0.6,0.4,1.3,0.7c0.9,0.4,1.6,0.9,1.9,1.3C36.9,126.2,37,126.8,37,127.4z"/>
			<path id="XMLID_81_" class="st2" d="M41.9,128.7c0.4,0,0.8-0.1,1.3-0.2v1.6c-0.5,0.2-1.2,0.3-1.9,0.3c-0.8,0-1.4-0.2-1.8-0.6
				c-0.4-0.4-0.6-1.1-0.6-1.9v-3.7h-1v-0.9l1.1-0.7l0.6-1.6H41v1.6h2.1v1.6H41v3.7c0,0.3,0.1,0.5,0.2,0.7
				C41.4,128.6,41.6,128.7,41.9,128.7z"/>
			<path id="XMLID_78_" class="st2" d="M49.6,130.2l-0.4-1h-0.1c-0.4,0.4-0.7,0.7-1.1,0.9s-0.9,0.3-1.5,0.3c-0.7,0-1.3-0.2-1.7-0.6
				c-0.4-0.4-0.6-1-0.6-1.8c0-0.8,0.3-1.4,0.9-1.8c0.6-0.4,1.4-0.6,2.6-0.6l1.3,0v-0.3c0-0.8-0.4-1.2-1.2-1.2
				c-0.6,0-1.3,0.2-2.2,0.6l-0.7-1.4c0.9-0.5,1.9-0.7,2.9-0.7c1,0,1.8,0.2,2.4,0.7c0.5,0.4,0.8,1.1,0.8,2v5.1H49.6z M49,126.6
				l-0.8,0c-0.6,0-1.1,0.1-1.4,0.3c-0.3,0.2-0.4,0.5-0.4,0.9c0,0.6,0.3,0.9,1,0.9c0.5,0,0.9-0.1,1.2-0.4c0.3-0.3,0.4-0.6,0.4-1.1
				V126.6z"/>
			<path id="XMLID_76_" class="st2" d="M56.4,128.7c0.4,0,0.8-0.1,1.3-0.2v1.6c-0.5,0.2-1.2,0.3-1.9,0.3c-0.8,0-1.4-0.2-1.8-0.6
				c-0.4-0.4-0.6-1.1-0.6-1.9v-3.7h-1v-0.9l1.1-0.7l0.6-1.6h1.3v1.6h2.1v1.6h-2.1v3.7c0,0.3,0.1,0.5,0.2,0.7
				C55.9,128.6,56.2,128.7,56.4,128.7z"/>
			<path id="XMLID_73_" class="st2" d="M59.2,120.6c0-0.7,0.4-1,1.1-1c0.8,0,1.1,0.3,1.1,1c0,0.3-0.1,0.6-0.3,0.8
				c-0.2,0.2-0.5,0.3-0.9,0.3C59.6,121.6,59.2,121.2,59.2,120.6z M61.4,130.2h-2.1v-7.6h2.1V130.2z"/>
			<path id="XMLID_70_" class="st2" d="M70.5,126.3c0,1.2-0.3,2.2-1,2.9c-0.7,0.7-1.6,1.1-2.7,1.1c-0.7,0-1.4-0.2-1.9-0.5
				s-1-0.8-1.3-1.4s-0.5-1.3-0.5-2.1c0-1.2,0.3-2.2,1-2.9c0.7-0.7,1.6-1,2.7-1c0.7,0,1.4,0.2,1.9,0.5c0.6,0.3,1,0.8,1.3,1.4
				C70.4,124.8,70.5,125.5,70.5,126.3z M65.2,126.3c0,0.8,0.1,1.3,0.4,1.7c0.2,0.4,0.7,0.6,1.2,0.6c0.6,0,1-0.2,1.2-0.6
				c0.2-0.4,0.4-1,0.4-1.7c0-0.8-0.1-1.3-0.4-1.7c-0.2-0.4-0.6-0.6-1.2-0.6c-0.6,0-1,0.2-1.2,0.6S65.2,125.6,65.2,126.3z"/>
			<path id="XMLID_68_" class="st2" d="M79.3,130.2h-2.1v-4.5c0-0.6-0.1-1-0.3-1.2c-0.2-0.3-0.5-0.4-0.9-0.4c-0.6,0-1,0.2-1.3,0.6
				s-0.4,1-0.4,1.9v3.6h-2.1v-7.6h1.6l0.3,1h0.1c0.2-0.4,0.6-0.6,1-0.8c0.4-0.2,0.9-0.3,1.4-0.3c0.9,0,1.6,0.2,2,0.7
				c0.5,0.5,0.7,1.2,0.7,2.1V130.2z"/>
			<path id="XMLID_65_" class="st2" d="M84.9,130.3c-1.2,0-2.2-0.3-2.9-1c-0.7-0.7-1-1.6-1-2.9c0-1.3,0.3-2.3,1-3
				c0.6-0.7,1.5-1,2.7-1c1.1,0,1.9,0.3,2.5,0.9s0.9,1.5,0.9,2.5v1h-4.9c0,0.6,0.2,1.1,0.5,1.4c0.3,0.3,0.8,0.5,1.4,0.5
				c0.5,0,0.9,0,1.3-0.1s0.8-0.2,1.3-0.5v1.6c-0.4,0.2-0.8,0.3-1.2,0.4C86,130.3,85.5,130.3,84.9,130.3z M84.6,123.9
				c-0.4,0-0.8,0.1-1,0.4c-0.3,0.3-0.4,0.7-0.4,1.2H86c0-0.5-0.1-0.9-0.4-1.2S85,123.9,84.6,123.9z"/>
			<path id="XMLID_63_" class="st2" d="M94,122.4c0.3,0,0.5,0,0.7,0.1l-0.2,2c-0.2,0-0.4-0.1-0.6-0.1c-0.7,0-1.2,0.2-1.6,0.5
				s-0.6,0.8-0.6,1.4v3.9h-2.1v-7.6h1.6l0.3,1.3h0.1c0.2-0.4,0.6-0.8,1-1C93.1,122.5,93.5,122.4,94,122.4z"/>
			<path id="XMLID_61_" class="st2" d="M95,122.5h2.3l1.4,4.3c0.1,0.4,0.2,0.8,0.3,1.3h0c0-0.5,0.1-0.9,0.3-1.3l1.4-4.3h2.2
				l-3.2,8.6c-0.3,0.8-0.7,1.4-1.3,1.8s-1.2,0.6-1.9,0.6c-0.4,0-0.7,0-1.1-0.1v-1.7c0.3,0.1,0.5,0.1,0.8,0.1c0.4,0,0.7-0.1,1-0.3
				s0.5-0.6,0.6-1l0.1-0.4L95,122.5z"/>
			<path id="XMLID_59_" class="st2" d="M36.8,144.1c0,0.9-0.3,1.5-0.9,2s-1.5,0.7-2.6,0.7c-1.2,0-2.1-0.2-2.7-0.5v-1.2
				c0.4,0.2,0.9,0.3,1.4,0.4c0.5,0.1,1,0.2,1.4,0.2c0.7,0,1.3-0.1,1.7-0.4s0.6-0.7,0.6-1.2c0-0.3-0.1-0.6-0.2-0.8
				c-0.1-0.2-0.4-0.4-0.7-0.6c-0.3-0.2-0.8-0.4-1.4-0.6c-0.9-0.3-1.6-0.7-1.9-1.2s-0.6-1-0.6-1.7c0-0.8,0.3-1.4,0.9-1.8
				c0.6-0.5,1.3-0.7,2.3-0.7c1,0,1.9,0.2,2.7,0.6l-0.4,1.1c-0.8-0.3-1.6-0.5-2.4-0.5c-0.6,0-1,0.1-1.4,0.4c-0.3,0.3-0.5,0.6-0.5,1.1
				c0,0.3,0.1,0.6,0.2,0.8c0.1,0.2,0.3,0.4,0.6,0.6c0.3,0.2,0.7,0.4,1.3,0.6c0.7,0.3,1.3,0.5,1.6,0.8s0.6,0.5,0.8,0.9
				C36.7,143.2,36.8,143.6,36.8,144.1z"/>
			<path id="XMLID_57_" class="st2" d="M39.7,139.3v4.8c0,0.6,0.1,1,0.4,1.3s0.7,0.4,1.2,0.4c0.8,0,1.3-0.2,1.7-0.6
				c0.3-0.4,0.5-1.1,0.5-2v-3.8h1.2v7.4h-1l-0.2-1h-0.1c-0.2,0.4-0.5,0.6-0.9,0.8s-0.9,0.3-1.4,0.3c-0.9,0-1.6-0.2-2-0.6
				s-0.7-1.1-0.7-2v-4.8H39.7z"/>
			<path id="XMLID_55_" class="st2" d="M50.1,146.8c-1.1,0-1.9-0.3-2.5-1c-0.6-0.7-0.9-1.6-0.9-2.8c0-1.2,0.3-2.2,0.9-2.9
				c0.6-0.7,1.5-1,2.6-1c0.4,0,0.7,0,1.1,0.1s0.6,0.2,0.9,0.3l-0.4,1c-0.6-0.2-1.2-0.3-1.6-0.3c-0.7,0-1.3,0.2-1.6,0.7
				c-0.4,0.5-0.5,1.2-0.5,2.1c0,0.9,0.2,1.6,0.5,2c0.4,0.5,0.9,0.7,1.6,0.7c0.6,0,1.3-0.1,1.9-0.4v1.1
				C51.5,146.7,50.8,146.8,50.1,146.8z"/>
			<path id="XMLID_53_" class="st2" d="M56.7,146.8c-1.1,0-1.9-0.3-2.5-1c-0.6-0.7-0.9-1.6-0.9-2.8c0-1.2,0.3-2.2,0.9-2.9
				c0.6-0.7,1.5-1,2.6-1c0.4,0,0.7,0,1.1,0.1s0.6,0.2,0.9,0.3l-0.4,1c-0.6-0.2-1.2-0.3-1.6-0.3c-0.7,0-1.3,0.2-1.6,0.7
				c-0.4,0.5-0.5,1.2-0.5,2.1c0,0.9,0.2,1.6,0.5,2c0.4,0.5,0.9,0.7,1.6,0.7c0.6,0,1.3-0.1,1.9-0.4v1.1
				C58.1,146.7,57.4,146.8,56.7,146.8z"/>
			<path id="XMLID_50_" class="st2" d="M63.5,146.8c-1.1,0-2-0.3-2.6-1c-0.6-0.7-0.9-1.6-0.9-2.8c0-1.2,0.3-2.1,0.9-2.8
				c0.6-0.7,1.4-1.1,2.4-1.1c0.9,0,1.7,0.3,2.2,0.9c0.6,0.6,0.8,1.4,0.8,2.4v0.7h-5.1c0,0.8,0.2,1.5,0.6,1.9c0.4,0.4,1,0.7,1.7,0.7
				c0.4,0,0.8,0,1.1-0.1c0.4-0.1,0.8-0.2,1.2-0.4v1.1c-0.4,0.2-0.8,0.3-1.1,0.4C64.4,146.8,63.9,146.8,63.5,146.8z M63.2,140.2
				c-0.6,0-1,0.2-1.4,0.6s-0.5,0.9-0.6,1.6h3.8c0-0.7-0.2-1.2-0.5-1.6C64.2,140.3,63.7,140.2,63.2,140.2z"/>
			<path id="XMLID_48_" class="st2" d="M72.9,144.7c0,0.7-0.3,1.2-0.8,1.6c-0.5,0.4-1.2,0.6-2.2,0.6c-1,0-1.7-0.2-2.3-0.5v-1.1
				c0.8,0.4,1.6,0.6,2.3,0.6c0.6,0,1.1-0.1,1.3-0.3c0.3-0.2,0.4-0.5,0.4-0.8c0-0.3-0.1-0.5-0.4-0.7c-0.3-0.2-0.7-0.4-1.4-0.7
				c-0.7-0.3-1.2-0.5-1.5-0.7s-0.5-0.4-0.6-0.6c-0.1-0.2-0.2-0.5-0.2-0.9c0-0.6,0.2-1.1,0.7-1.4c0.5-0.3,1.2-0.5,2-0.5
				c0.8,0,1.6,0.2,2.4,0.5l-0.4,1c-0.7-0.3-1.4-0.5-2-0.5c-0.5,0-0.9,0.1-1.1,0.2s-0.4,0.4-0.4,0.7c0,0.3,0.1,0.5,0.3,0.7
				s0.7,0.4,1.6,0.7c0.6,0.2,1.1,0.4,1.4,0.6c0.3,0.2,0.5,0.4,0.6,0.7C72.8,144,72.9,144.3,72.9,144.7z"/>
			<path id="XMLID_46_" class="st2" d="M79.5,144.7c0,0.7-0.3,1.2-0.8,1.6c-0.5,0.4-1.2,0.6-2.2,0.6c-1,0-1.7-0.2-2.3-0.5v-1.1
				c0.8,0.4,1.6,0.6,2.3,0.6c0.6,0,1.1-0.1,1.3-0.3c0.3-0.2,0.4-0.5,0.4-0.8c0-0.3-0.1-0.5-0.4-0.7c-0.3-0.2-0.7-0.4-1.4-0.7
				c-0.7-0.3-1.2-0.5-1.5-0.7s-0.5-0.4-0.6-0.6c-0.1-0.2-0.2-0.5-0.2-0.9c0-0.6,0.2-1.1,0.7-1.4c0.5-0.3,1.2-0.5,2-0.5
				c0.8,0,1.6,0.2,2.4,0.5l-0.4,1c-0.7-0.3-1.4-0.5-2-0.5c-0.5,0-0.9,0.1-1.1,0.2s-0.4,0.4-0.4,0.7c0,0.3,0.1,0.5,0.3,0.7
				s0.7,0.4,1.6,0.7c0.6,0.2,1.1,0.4,1.4,0.6c0.3,0.2,0.5,0.4,0.6,0.7C79.4,144,79.5,144.3,79.5,144.7z"/>
			<path id="XMLID_43_" class="st2" d="M89.4,146.7l-0.2-1h-0.1c-0.4,0.5-0.7,0.8-1.1,0.9c-0.4,0.2-0.8,0.2-1.4,0.2
				c-0.7,0-1.3-0.2-1.7-0.6s-0.6-0.9-0.6-1.6c0-1.5,1.2-2.3,3.5-2.4l1.3,0v-0.4c0-0.6-0.1-1-0.4-1.2c-0.2-0.3-0.6-0.4-1.2-0.4
				c-0.4,0-0.8,0.1-1.1,0.2c-0.3,0.1-0.7,0.2-1,0.4l-0.4-0.9c0.4-0.2,0.8-0.4,1.2-0.5c0.4-0.1,0.9-0.2,1.3-0.2c0.9,0,1.6,0.2,2,0.6
				c0.4,0.4,0.7,1,0.7,1.9v5H89.4z M86.9,145.9c0.7,0,1.2-0.2,1.6-0.5s0.6-0.9,0.6-1.6v-0.7l-1.1,0c-0.8,0-1.5,0.2-1.9,0.4
				c-0.4,0.2-0.6,0.6-0.6,1.1c0,0.4,0.1,0.7,0.4,0.9C86.1,145.8,86.5,145.9,86.9,145.9z"/>
			<path id="XMLID_41_" class="st2" d="M95,145.8c0.2,0,0.3,0,0.6,0c0.2,0,0.4-0.1,0.5-0.1v0.9c-0.1,0-0.3,0.1-0.5,0.1
				c-0.2,0-0.5,0.1-0.7,0.1c-1.4,0-2.2-0.8-2.2-2.3v-4.3h-1v-0.6l1.1-0.5l0.5-1.6h0.7v1.7H96v0.9h-2.1v4.3c0,0.4,0.1,0.8,0.3,1
				S94.7,145.8,95,145.8z"/>
			<path id="XMLID_39_" class="st2" d="M107.1,146.7l-1.3-4.2c-0.1-0.3-0.3-1-0.5-2h-0.1c-0.2,0.9-0.4,1.5-0.5,2l-1.3,4.1h-1.4
				l-2-7.4h1.3c0.5,1.8,0.8,3.2,1.1,4.1s0.4,1.6,0.4,2h0.1l0.1-0.4c0.1-0.6,0.3-1.2,0.4-1.6l1.3-4.2h1.3l1.3,4.2
				c0,0.2,0.1,0.3,0.1,0.5c0.1,0.2,0.1,0.4,0.1,0.5c0,0.2,0.1,0.3,0.1,0.5c0,0.2,0.1,0.3,0.1,0.4h0.1c0-0.3,0.2-1.1,0.5-2.2l1-3.9
				h1.2l-2,7.4H107.1z"/>
			<path id="XMLID_36_" class="st2" d="M118.3,143c0,1.2-0.3,2.1-0.9,2.8s-1.5,1-2.5,1c-0.7,0-1.3-0.2-1.8-0.5s-0.9-0.8-1.2-1.3
				c-0.3-0.6-0.4-1.3-0.4-2c0-1.2,0.3-2.1,0.9-2.8c0.6-0.7,1.4-1,2.5-1c1,0,1.9,0.3,2.5,1C118,140.9,118.3,141.8,118.3,143z
				 M112.8,143c0,0.9,0.2,1.6,0.5,2.1s0.9,0.7,1.6,0.7c0.7,0,1.2-0.2,1.6-0.7c0.4-0.5,0.6-1.2,0.6-2.1c0-0.9-0.2-1.6-0.6-2.1
				c-0.4-0.5-0.9-0.7-1.6-0.7C113.5,140.2,112.8,141.1,112.8,143z"/>
			<path id="XMLID_34_" class="st2" d="M123.7,139.2c0.3,0,0.6,0,0.9,0.1l-0.1,1.1c-0.3-0.1-0.5-0.1-0.8-0.1c-0.4,0-0.8,0.1-1.1,0.3
				c-0.3,0.2-0.6,0.5-0.8,0.9s-0.3,0.8-0.3,1.3v3.9h-1.2v-7.4h1l0.1,1.4h0.1c0.3-0.5,0.6-0.9,1-1.1
				C122.8,139.3,123.2,139.2,123.7,139.2z"/>
			<path id="XMLID_32_" class="st2" d="M127.1,142.9l0.4-0.5l0.5-0.6l2.4-2.5h1.4l-3,3.2l3.2,4.2h-1.5l-2.6-3.4l-0.8,0.7v2.7h-1.2
				v-10.5h1.2v5.5V142.9L127.1,142.9z"/>
		</g>
	</g>
	<g id="XMLID_24_">
		<circle id="XMLID_28_" class="st3" cx="12.3" cy="123.2" r="4"/>
		<path id="XMLID_27_" class="st3" d="M8.3,123.2h8.1v10.1C16.4,133.3,8.3,128.4,8.3,123.2z"/>
		<circle id="XMLID_26_" class="st3" cx="20.4" cy="123.1" r="4"/>
		<path id="XMLID_25_" class="st3" d="M24.4,123.1h-8.1v10.1C16.4,133.1,24.4,128.2,24.4,123.1z"/>
	</g>
	<g id="XMLID_16_">
		<path id="XMLID_23_" class="st4" d="M66,69.6L66,69.6c-3.4,0-6.1-2.8-6.1-6.1v-37c0-3.4,2.8-6.1,6.1-6.1l0,0
			c3.4,0,6.1,2.8,6.1,6.1v37C72.1,66.9,69.3,69.6,66,69.6z"/>
		<path id="XMLID_22_" class="st1" d="M56.4,52.3L56.4,52.3c-1,0-1.8-0.8-1.8-1.8V30.3c0-1,0.8-1.8,1.8-1.8l0,0c1,0,1.8,0.8,1.8,1.8
			v20.2C58.2,51.5,57.4,52.3,56.4,52.3z"/>
		<rect id="XMLID_21_" x="54.5" y="30.3" class="st1" width="5.3" height="13.2"/>
		<path id="XMLID_20_" class="st4" d="M66,102.2L66,102.2c-3.4,0-6.1-2.7-6.1-6.1V50.8c0-3.4,2.7-6.1,6.1-6.1l0,0
			c3.4,0,6.1,2.7,6.1,6.1V96C72.1,99.4,69.3,102.2,66,102.2z"/>
		<rect id="XMLID_19_" x="59.8" y="43.5" class="st1" width="12.3" height="17.6"/>
		<rect id="XMLID_18_" x="62" y="15.4" class="st4" width="8" height="11.5"/>
		<circle id="XMLID_17_" class="st4" cx="66" cy="16.9" r="4"/>
	</g>
</g>
</svg>