<!-- Generator: Adobe Illustrator 19.0.0, SVG Export Plug-In  -->
<svg version="1.1"
	 xmlns="http://www.w3.org/2000/svg" xmlns:xlink="http://www.w3.org/1999/xlink" xmlns:a="http://ns.adobe.com/AdobeSVGViewerExtensions/3.0/"
	 x="0px" y="0px" width="86.1px" height="86.2px" viewBox="0 0 86.1 86.2" style="enable-background:new 0 0 86.1 86.2;"
	 xml:space="preserve">
<style type="text/css">
	.st0{fill:#FFFFFF;}
	.st1{fill:#FF6633;}
</style>
<defs>
</defs>
<g>
	<path class="st0" d="M78.2,30.9l-7.7-7.7l0,0L68,20.6l-2.5-2.5l-2.6-2.6l-7.2-7.2l-0.4-0.4l-7.6-7.6L40,7.9L7.6,40.4L0,48l7.6,7.6
		l23,23l7.6,7.6l7.6-7.6l32.4-32.4l7.6-7.6L78.2,30.9z M38.2,70.9l-23-23l32.4-32.4l7.5,7.5l0.2,0.2l7.6,7.6l0.2,0.2l7.5,7.5
		L38.2,70.9z"/>
	<path class="st1" d="M78.2,30.9l3.6-3.6l0,0c5.9-6.4,5.8-16.3-0.4-22.5c-6.2-6.2-16.2-6.4-22.5-0.4l0,0L47.6,15.5l7.7,7.7L66.5,12
		c2.1-2.1,5.5-2.1,7.6,0c2.1,2.1,2.1,5.5,0,7.6l-3.6,3.6L78.2,30.9"/>
</g>
</svg>