<?xml version="1.0" encoding="utf-8"?>
<!-- Generator: Adobe Illustrator 19.0.0, SVG Export Plug-In . SVG Version: 6.00 Build 0)  -->
<svg version="1.1" id="Layer_1" xmlns="http://www.w3.org/2000/svg" xmlns:xlink="http://www.w3.org/1999/xlink" x="0px" y="0px"
	 viewBox="0 0 1031.1 189.2" style="enable-background:new 0 0 1031.1 189.2;" xml:space="preserve">
<style type="text/css">
	.st0{fill:#FFFFFF;}
	.st1{fill:#F2673A;}
</style>
<g id="XMLID_1_">
	<path id="XMLID_81_" class="st0" d="M608,155.8V78.5h15.3v77.3H608z"/>
	<path id="XMLID_83_" class="st0" d="M654.3,155.8h-14.5v-53.6h14.1v6.6c3.3-5.6,9.7-8.1,15.5-8.1c13.3,0,19.4,9.5,19.4,21.3v33.8
		h-14.5v-31.3c0-6-2.9-10.7-9.9-10.7c-6.3,0-10,4.9-10,11.1V155.8z"/>
	<path id="XMLID_85_" class="st0" d="M711.3,138.1c0.3,4.3,3.5,8.2,9.8,8.2c4.8,0,7.1-2.5,7.1-5.3c0-2.4-1.6-4.4-5.8-5.2l-7.1-1.6
		c-10.4-2.3-15-8.5-15-16c0-9.6,8.5-17.5,20.1-17.5c15.3,0,20.4,9.7,21,15.5l-12.1,2.7c-0.4-3.2-2.7-7.2-8.8-7.2
		c-3.8,0-6.9,2.3-6.9,5.3c0,2.6,2,4.3,4.9,4.8l7.6,1.6c10.6,2.2,15.9,8.6,15.9,16.5c0,8.7-6.8,17.7-20.8,17.7
		c-16.1,0-21.7-10.5-22.3-16.6L711.3,138.1z"/>
	<path id="XMLID_87_" class="st0" d="M760.9,75.6c5,0,8.9,4,8.9,9c0,4.8-3.9,8.8-8.9,8.8c-4.9,0-8.9-4-8.9-8.8
		C751.9,79.6,756,75.6,760.9,75.6z M753.7,155.8v-53.6h14.5v53.6H753.7z"/>
	<path id="XMLID_90_" class="st0" d="M792.9,155.2c1,5.9,5.7,10.1,12.5,10.1c9.2,0,14.3-4.6,14.3-14.9v-3.9
		c-2.2,3.5-7.2,6.9-14.9,6.9c-14.3,0-25-11-25-26c0-14.2,10.2-26.2,25-26.2c8.5,0,13.4,3.7,15.3,7.3v-6.3h14V150
		c0,14.7-8,28.1-28.1,28.1c-14.7,0-24.5-9.2-26-19.4L792.9,155.2z M820,127.3c0-8.3-5.7-13.5-12.6-13.5c-7.2,0-12.9,5.2-12.9,13.5
		c0,8.4,5.3,13.6,12.9,13.6C814.7,141,820,135.6,820,127.3z"/>
	<path id="XMLID_93_" class="st0" d="M863.2,155.8h-14.5V76.9h14.5v29.8c3.5-4.1,9.4-5.9,14.5-5.9c13.6,0,19.9,9.5,19.9,21.3v33.8
		h-14.5v-31.3c0-6-2.9-10.7-9.9-10.7c-6.1,0-9.7,4.6-10,10.5V155.8z"/>
	<path id="XMLID_95_" class="st0" d="M930.2,102.2H941V115h-10.8v22.5c0,4.7,2.2,6.2,6.3,6.2c1.7,0,3.7-0.2,4.5-0.4v12
		c-1.3,0.5-3.9,1.3-8.2,1.3c-10.5,0-17-6.2-17-16.6v-25h-9.7v-12.9h2.7c5.7,0,8.3-3.7,8.3-8.5v-7.5h13.1V102.2z"/>
	<path id="XMLID_97_" class="st0" d="M962.4,138.1c0.3,4.3,3.5,8.2,9.8,8.2c4.8,0,7.1-2.5,7.1-5.3c0-2.4-1.6-4.4-5.8-5.2l-7.1-1.6
		c-10.4-2.3-15-8.5-15-16c0-9.6,8.5-17.5,20.1-17.5c15.3,0,20.4,9.7,21,15.5l-12.1,2.7c-0.4-3.2-2.7-7.2-8.8-7.2
		c-3.8,0-6.9,2.3-6.9,5.3c0,2.6,2,4.3,4.9,4.8l7.6,1.6c10.6,2.2,15.9,8.6,15.9,16.5c0,8.7-6.8,17.7-20.8,17.7
		c-16.1,0-21.7-10.5-22.3-16.6L962.4,138.1z"/>
</g>
<g id="XMLID_148_">
	<line id="XMLID_249_" class="st0" x1="183.4" y1="139.4" x2="162.5" y2="139.4"/>
	<path id="XMLID_248_" class="st0" d="M77,63.9C77,63.9,77,63.8,77,63.9l0-11.3l0,0.9V63.9z"/>
	<path id="XMLID_247_" class="st0" d="M389.8,106.7c0-0.1-0.1-0.2-0.1-0.2C389.7,106.6,389.8,106.6,389.8,106.7L389.8,106.7z"/>
	<path id="XMLID_246_" class="st0" d="M389.7,106.4C389.7,106.4,389.7,106.4,389.7,106.4C389.7,106.4,389.7,106.4,389.7,106.4
		L389.7,106.4z"/>
	<path id="XMLID_245_" class="st1" d="M14.2,21c0-6,4.9-10.4,10.5-10.4c5.7,0,10.5,4.4,10.5,10.4c0,6.3-4.9,10.5-10.5,10.5
		C19.1,31.6,14.2,27.3,14.2,21z"/>
	<rect id="XMLID_244_" x="14.2" y="51.4" class="st0" width="21.1" height="86.9"/>
	<path id="XMLID_241_" class="st0" d="M245.7,13.1c-5.6,0-10.4,4.3-10.4,10.3c0,6.2,4.8,10.4,10.4,10.4c5.6,0,10.4-4.2,10.4-10.4
		C256.2,17.4,251.3,13.1,245.7,13.1z M235.2,53.6v86.9h21.1V53.6H235.2z"/>
	<g id="XMLID_163_">
		<path id="XMLID_239_" class="st0" d="M106.6,173.7l-8.6-15.4h3.9l5.1,9.3c0.7,1.3,1.4,3.3,1.4,3.3s0.7-2,1.4-3.3l4.9-9.3h3.6
			l-8.2,15.2v7.3h-3.5V173.7z"/>
		<path id="XMLID_236_" class="st0" d="M116.2,173.8c0-4.2,3.3-7.3,7.5-7.3c4.3,0,7.5,3.1,7.5,7.3c0,4.2-3.3,7.3-7.5,7.3
			C119.6,181.1,116.2,178,116.2,173.8z M127.8,173.8c0-2.6-1.6-4.3-4.1-4.3c-2.5,0-4.1,1.8-4.1,4.3c0,2.6,1.6,4.4,4.1,4.4
			C126.3,178.2,127.8,176.4,127.8,173.8z"/>
		<path id="XMLID_234_" class="st0" d="M134.7,175.2v-8.3h3.4v8c0,2,0.9,3.2,2.9,3.2c2.2,0,3.6-1.4,3.6-3.6v-7.6h3.4v13.9h-3.4
			l0.1-2.6c-0.9,1.8-2.6,2.9-4.7,2.9C136.8,181.1,134.7,179,134.7,175.2z"/>
		<path id="XMLID_232_" class="st0" d="M152.1,166.9h3.4l0,2.6c0.9-2.2,2.5-2.9,4.1-2.9c1,0,1.7,0.2,2.3,0.6l-1.1,3
			c-0.5-0.3-1.1-0.5-1.8-0.5c-2,0-3.4,1.2-3.4,4.3v6.8h-3.4V166.9z"/>
		<path id="XMLID_229_" class="st0" d="M171.4,173.8c0-4.2,3.3-7.3,7.5-7.3c4.3,0,7.5,3.1,7.5,7.3c0,4.2-3.3,7.3-7.5,7.3
			C174.7,181.1,171.4,178,171.4,173.8z M183,173.8c0-2.6-1.6-4.3-4.1-4.3c-2.5,0-4.1,1.8-4.1,4.3c0,2.6,1.6,4.4,4.1,4.4
			C181.4,178.2,183,176.4,183,173.8z"/>
		<path id="XMLID_227_" class="st0" d="M190,166.9h3.4l-0.1,2.6c0.9-1.8,2.6-2.9,4.7-2.9c3.1,0,5.2,2.2,5.2,6v8.3h-3.4v-8
			c0-2-0.9-3.2-2.9-3.2c-2.2,0-3.6,1.3-3.6,3.6v7.6H190V166.9z"/>
		<path id="XMLID_224_" class="st0" d="M214.4,178.3c1.8,0,3.2-0.7,4-1.5l2,2.1c-1.3,1.3-3.1,2.3-5.9,2.3c-4.8,0-7.9-3.1-7.9-7.3
			c0-4.2,3.3-7.3,7.4-7.3c4.8,0,7.4,3.5,7.2,8.4H210C210.4,177,211.9,178.3,214.4,178.3z M217.9,172.6c-0.3-1.9-1.5-3.3-3.8-3.3
			c-2.2,0-3.7,1.2-4.1,3.3H217.9z"/>
		<path id="XMLID_222_" class="st0" d="M231.1,178.2l2.3-1.6c0.9,1.2,2.2,1.8,3.8,1.8c1.7,0,2.5-0.6,2.5-1.5c0-1.1-1-1.3-3.4-2
			c-2.1-0.6-4.1-1.5-4.1-4.3c0-2.8,2.2-4.1,5-4.1c2.2,0,3.8,0.9,4.8,2.1l-2,1.9c-0.7-0.8-1.6-1.4-2.9-1.4c-1.3,0-2,0.5-2,1.3
			c0,1.1,0.9,1.3,3.1,1.9c2.2,0.6,4.6,1.4,4.6,4.4c0,2.4-1.5,4.4-5.4,4.4C234.2,181.1,232.1,179.7,231.1,178.2z"/>
		<path id="XMLID_220_" class="st0" d="M246.7,176.1v-6.4h-2.1v-2.8h2.1v-7.3h3.4v7.3h3.7v2.8h-3.7v6.5c0,1.6,0.5,2.1,1.4,2.1
			c0.8,0,1.3-0.4,1.7-0.7l1.6,2.3c-0.7,0.7-1.8,1.3-3.6,1.3C248.5,181.1,246.7,179.8,246.7,176.1z"/>
		<path id="XMLID_217_" class="st0" d="M256.7,173.8c0-4.2,3.3-7.3,7.5-7.3c4.3,0,7.5,3.1,7.5,7.3c0,4.2-3.3,7.3-7.5,7.3
			C260,181.1,256.7,178,256.7,173.8z M268.3,173.8c0-2.6-1.6-4.3-4.1-4.3c-2.5,0-4.1,1.8-4.1,4.3c0,2.6,1.6,4.4,4.1,4.4
			C266.7,178.2,268.3,176.4,268.3,173.8z"/>
		<path id="XMLID_214_" class="st0" d="M275.3,166.9h3.4l-0.1,2.6c0.9-1.7,2.6-2.9,4.9-2.9c3.6,0,6.5,3,6.5,7.2
			c0,4.2-2.9,7.3-6.5,7.3c-2.3,0-4-1.1-4.8-2.7v9.4h-3.4V166.9z M286.6,173.8c0-2.5-1.5-4.3-4-4.3c-2.5,0-4.1,1.7-4.1,4.3
			c0,2.6,1.6,4.4,4.1,4.4C285,178.2,286.6,176.4,286.6,173.8z"/>
		<path id="XMLID_212_" class="st0" d="M299.9,178.2l2.3-1.6c0.9,1.2,2.2,1.8,3.8,1.8c1.7,0,2.5-0.6,2.5-1.5c0-1.1-1-1.3-3.4-2
			c-2.1-0.6-4.1-1.5-4.1-4.3c0-2.8,2.2-4.1,5-4.1c2.2,0,3.8,0.9,4.8,2.1l-2,1.9c-0.7-0.8-1.6-1.4-2.9-1.4c-1.3,0-2,0.5-2,1.3
			c0,1.1,0.9,1.3,3.1,1.9c2.2,0.6,4.6,1.4,4.6,4.4c0,2.4-1.5,4.4-5.4,4.4C303,181.1,300.9,179.7,299.9,178.2z"/>
		<path id="XMLID_210_" class="st0" d="M315,156.8h3.4v12.5c0.9-1.7,2.6-2.8,4.7-2.8c3.1,0,5.2,2.2,5.2,6v8.3h-3.4v-8
			c0-2-0.9-3.2-2.9-3.2c-2.2,0-3.6,1.3-3.6,3.6v7.6H315V156.8z"/>
		<path id="XMLID_207_" class="st0" d="M331.6,173.8c0-4.2,3.3-7.3,7.5-7.3c4.3,0,7.5,3.1,7.5,7.3c0,4.2-3.3,7.3-7.5,7.3
			C334.9,181.1,331.6,178,331.6,173.8z M343.2,173.8c0-2.6-1.6-4.3-4.1-4.3c-2.5,0-4.1,1.8-4.1,4.3c0,2.6,1.6,4.4,4.1,4.4
			C341.6,178.2,343.2,176.4,343.2,173.8z"/>
		<path id="XMLID_204_" class="st0" d="M350.2,166.9h3.4l-0.1,2.6c0.9-1.7,2.6-2.9,4.9-2.9c3.6,0,6.5,3,6.5,7.2
			c0,4.2-2.9,7.3-6.5,7.3c-2.3,0-4-1.1-4.8-2.7v9.4h-3.4V166.9z M361.5,173.8c0-2.5-1.5-4.3-4-4.3c-2.5,0-4.1,1.7-4.1,4.3
			c0,2.6,1.6,4.4,4.1,4.4C359.9,178.2,361.5,176.4,361.5,173.8z"/>
		<path id="XMLID_201_" class="st0" d="M368.5,166.9h3.4l-0.1,2.6c0.9-1.7,2.6-2.9,4.9-2.9c3.6,0,6.5,3,6.5,7.2
			c0,4.2-2.9,7.3-6.5,7.3c-2.3,0-4-1.1-4.8-2.7v9.4h-3.4V166.9z M379.8,173.8c0-2.5-1.5-4.3-4-4.3c-2.5,0-4.1,1.7-4.1,4.3
			c0,2.6,1.6,4.4,4.1,4.4C378.2,178.2,379.8,176.4,379.8,173.8z"/>
		<path id="XMLID_198_" class="st0" d="M386.4,161.5c0-1.3,1-2.2,2.2-2.2c1.2,0,2.2,0.9,2.2,2.2c0,1.3-1,2.2-2.2,2.2
			C387.4,163.7,386.4,162.8,386.4,161.5z M386.9,166.9h3.4v13.9h-3.4V166.9z"/>
		<path id="XMLID_196_" class="st0" d="M394.6,166.9h3.4l-0.1,2.6c0.9-1.8,2.6-2.9,4.7-2.9c3.1,0,5.2,2.2,5.2,6v8.3h-3.4v-8
			c0-2-0.9-3.2-2.9-3.2c-2.2,0-3.6,1.3-3.6,3.6v7.6h-3.4V166.9z"/>
		<path id="XMLID_192_" class="st0" d="M424.9,166.9v2.5h-2.4c0.5,0.6,0.8,1.4,0.8,2.3c0,3-2.3,5.1-5.6,5.1c-1.1,0-2.1-0.2-2.9-0.6
			c-0.5,0.3-0.7,0.7-0.7,1.2c0,0.7,0.5,1.1,1.6,1.2l3.5,0.2c3.9,0.2,5.9,1.7,5.9,4.5c0,3-2.5,5.1-7.6,5.1c-4.7,0-7.3-1.8-7.3-4.6
			c0-1.7,1.2-2.8,3-3.3c-1.2-0.6-1.8-1.5-1.8-2.7c0-1.2,0.7-2.1,1.9-2.7c-0.9-0.9-1.4-2-1.4-3.3c0-2.9,2.4-5,5.8-5
			c0.8,0,1.4,0.1,2,0.3H424.9z M413.5,183.2c0,1.5,1.2,2.4,4,2.4c2.9,0,4.1-0.9,4.1-2.3c0-1.2-0.7-1.6-3.1-1.8l-3.9-0.3
			C413.9,181.7,413.5,182.4,413.5,183.2z M420.3,171.6c0-1.5-1-2.5-2.7-2.5c-1.7,0-2.7,1-2.7,2.5c0,1.6,1,2.6,2.7,2.6
			C419.3,174.2,420.3,173.1,420.3,171.6z"/>
		<path id="XMLID_189_" class="st0" d="M434.7,173.8c0-4.2,2.9-7.2,6.5-7.2c2.5,0,3.9,1.1,4.8,2.7v-12.5h3.4v24h-3.4l0.1-2.5
			c-0.9,1.7-2.6,2.8-4.9,2.8C437.7,181.1,434.7,178,434.7,173.8z M446.2,173.8c0-2.5-1.6-4.3-4.1-4.3c-2.4,0-4,1.7-4,4.3
			c0,2.6,1.5,4.4,4,4.4C444.6,178.2,446.2,176.4,446.2,173.8z"/>
		<path id="XMLID_186_" class="st0" d="M460.8,178.3c1.8,0,3.2-0.7,4-1.5l2,2.1c-1.3,1.3-3.1,2.3-5.9,2.3c-4.8,0-7.9-3.1-7.9-7.3
			c0-4.2,3.3-7.3,7.4-7.3c4.7,0,7.4,3.5,7.2,8.4h-11.2C456.8,177,458.3,178.3,460.8,178.3z M464.3,172.6c-0.3-1.9-1.5-3.3-3.8-3.3
			c-2.2,0-3.7,1.2-4.1,3.3H464.3z"/>
		<path id="XMLID_184_" class="st0" d="M469.8,178.2l2.3-1.6c0.9,1.2,2.2,1.8,3.8,1.8c1.7,0,2.5-0.6,2.5-1.5c0-1.1-1-1.3-3.4-2
			c-2.1-0.6-4.1-1.5-4.1-4.3c0-2.8,2.2-4.1,5-4.1c2.2,0,3.8,0.9,4.8,2.1l-2,1.9c-0.7-0.8-1.6-1.4-2.9-1.4c-1.3,0-2,0.5-2,1.3
			c0,1.1,0.9,1.3,3.1,1.9c2.2,0.6,4.6,1.4,4.6,4.4c0,2.4-1.5,4.4-5.4,4.4C472.8,181.1,470.7,179.7,469.8,178.2z"/>
		<path id="XMLID_182_" class="st0" d="M485.4,176.1v-6.4h-2.1v-2.8h2.1v-7.3h3.4v7.3h3.7v2.8h-3.7v6.5c0,1.6,0.5,2.1,1.4,2.1
			c0.8,0,1.3-0.4,1.7-0.7l1.6,2.3c-0.7,0.7-1.8,1.3-3.6,1.3C487.2,181.1,485.4,179.8,485.4,176.1z"/>
		<path id="XMLID_179_" class="st0" d="M495.6,161.5c0-1.3,1-2.2,2.2-2.2c1.2,0,2.2,0.9,2.2,2.2c0,1.3-1,2.2-2.2,2.2
			C496.6,163.7,495.6,162.8,495.6,161.5z M496.1,166.9h3.4v13.9h-3.4V166.9z"/>
		<path id="XMLID_177_" class="st0" d="M503.9,166.9h3.4l-0.1,2.6c0.9-1.8,2.6-2.9,4.7-2.9c3.1,0,5.2,2.2,5.2,6v8.3h-3.4v-8
			c0-2-0.9-3.2-2.9-3.2c-2.2,0-3.6,1.3-3.6,3.6v7.6h-3.4V166.9z"/>
		<path id="XMLID_174_" class="st0" d="M526.8,169.4c-1.8,0-2.9,0.8-3.7,1.7l-1.9-2c1.2-1.5,2.9-2.5,5.8-2.5c3.4,0,5.9,1.9,5.9,6
			v8.2h-3.4l0.1-2c-1,1.5-2.3,2.3-4.4,2.3c-2.8,0-5-1.3-5-4.4c0-2.9,2.3-4.2,5.5-4.2h3.8C529.6,170.3,528.6,169.4,526.8,169.4z
			 M526,174.8c-1.5,0-2.4,0.5-2.4,1.8c0,1.2,0.9,1.8,2.7,1.8c2,0,3.4-1,3.4-2.5v-1.1H526z"/>
		<path id="XMLID_172_" class="st0" d="M538,176.1v-6.4h-2.1v-2.8h2.1v-7.3h3.4v7.3h3.7v2.8h-3.7v6.5c0,1.6,0.5,2.1,1.4,2.1
			c0.8,0,1.3-0.4,1.7-0.7l1.6,2.3c-0.7,0.7-1.8,1.3-3.6,1.3C539.8,181.1,538,179.8,538,176.1z"/>
		<path id="XMLID_169_" class="st0" d="M548.2,161.5c0-1.3,1-2.2,2.2-2.2c1.2,0,2.2,0.9,2.2,2.2c0,1.3-1,2.2-2.2,2.2
			C549.3,163.7,548.2,162.8,548.2,161.5z M548.8,166.9h3.4v13.9h-3.4V166.9z"/>
		<path id="XMLID_166_" class="st0" d="M555.8,173.8c0-4.2,3.3-7.3,7.5-7.3c4.3,0,7.5,3.1,7.5,7.3c0,4.2-3.3,7.3-7.5,7.3
			C559.1,181.1,555.8,178,555.8,173.8z M567.4,173.8c0-2.6-1.6-4.3-4.1-4.3c-2.5,0-4.1,1.8-4.1,4.3c0,2.6,1.6,4.4,4.1,4.4
			C565.8,178.2,567.4,176.4,567.4,173.8z"/>
		<path id="XMLID_164_" class="st0" d="M574.4,166.9h3.4l-0.1,2.6c0.9-1.8,2.6-2.9,4.7-2.9c3.1,0,5.2,2.2,5.2,6v8.3h-3.4v-8
			c0-2-0.9-3.2-2.9-3.2c-2.2,0-3.6,1.3-3.6,3.6v7.6h-3.4V166.9z"/>
	</g>
	<path id="XMLID_160_" class="st0" d="M577.9,82.2l-10.2-10.2l0,0l-3.4-3.4l-3.3-3.3l-3.4-3.4l-9.6-9.6l-0.6-0.6l-10.1-10.1
		l-10.1,10.1l-43,43l-10.1,10.1l10.1,10.1l30.5,30.5l10.1,10.1l10.1-10.1l43-43L588,92.3L577.9,82.2z M524.9,135.3l-30.5-30.5l43-43
		l10,10l0.2,0.2l10.1,10.1l0.2,0.2l10,10L524.9,135.3z"/>
	<path id="XMLID_158_" class="st0" d="M319.8,122.5c-14.7,0-26.5-11.9-26.5-26.6c0-14.7,11.9-26.6,26.5-26.6c8.4,0,15.9,3.9,20.8,10
		l15.9-12.7c-8.6-10.8-21.8-17.7-36.7-17.7c-25.9,0-46.9,21-46.9,46.9s21,46.9,46.9,46.9c14.5,0,27.4-6.6,36-16.9l-15.6-13
		C335.4,118.8,328,122.5,319.8,122.5z"/>
	<path id="XMLID_155_" class="st0" d="M103.4,51.4c-0.4,0-0.7,0-1.1,0c-0.3,0-0.6,0-0.9,0c-7.7,0-14.1,1.9-19.3,5.2
		c-1.8,0.9-3.5,2-5.2,3.2v-6.4l0-0.9H55.9V180H77v-11.2v-34c7.5,5.3,16.6,8.4,26.4,8.4c25.4,0,45.9-20.6,45.9-45.9
		S128.8,51.4,103.4,51.4z M103.4,123.3c-14.4,0-26-11.6-26-26s11.6-26,26-26s26,11.6,26,26S117.8,123.3,103.4,123.3z"/>
	<path id="XMLID_154_" class="st0" d="M213.6,54.2c-15.9-4.4-25.6,2.2-30.6,7.9v-8.4h-20.9v26.4h0v60.4H183v-40.4
		c0-19.4,8.5-26.7,20.9-26.7c4.8,0,8.1,1.2,11.4,2.9l7-18.8C219.8,55.9,217,54.8,213.6,54.2z"/>
	<path id="XMLID_151_" class="st0" d="M459.8,106.4c0.8-3.4,1.2-6.9,1.2-10.5c0-2-0.1-4-0.4-5.9c-0.2-1.6-0.5-3.1-0.8-4.6
		C455,64.5,436.4,49,414.1,49c-22.3,0-40.9,15.5-45.7,36.4c-0.8,3.4-1.2,6.9-1.2,10.5c0,0.6,0.1,1.1,0.1,1.6l0,0
		c0,0.7,0.1,1.4,0.1,2.1c0.2,6.2,1.4,12,3.7,17.2c2.5,5.8,6,10.7,10.3,14.8c4.3,4.1,9.5,7.3,15.4,9.5c6,2.2,12.3,3.3,19,3.3
		c7.1,0,13.8-1.4,20.3-4.1c6.4-2.7,12.3-7.3,17.5-13.8l-16-12.1c-2.9,3.5-6.2,6.4-9.9,8.6c-3.8,2.3-8.5,3.4-14,3.4
		c-6.3,0-11.7-1.9-16.2-5.6c-4.1-3.5-6.7-8.2-7.6-14.2c0-0.1,0-0.2,0-0.2c0,0,0-0.1,0-0.1h0H459.8z M396.7,73.2
		c3.9-3.8,9.2-5.8,15.9-5.8c7.1,0,12.6,1.9,16.5,5.7c4,3.8,6,9,6.1,15.5h-45.7C390.4,82.1,392.8,77,396.7,73.2z"/>
	<path id="XMLID_149_" class="st1" d="M578,82.2l4.7-4.7l0,0c7.9-8.5,7.7-21.6-0.6-29.9c-8.2-8.2-21.4-8.4-29.9-0.6l0,0l-14.9,14.9
		l10.2,10.2l14.9-14.9c2.8-2.8,7.3-2.8,10.1,0c2.8,2.8,2.8,7.3,0,10.1l-4.8,4.8L578,82.2"/>
</g>
</svg>
