<?xml version="1.0" encoding="utf-8"?>
<!-- Generator: Adobe Illustrator 19.0.0, SVG Export Plug-In . SVG Version: 6.00 Build 0)  -->
<svg version="1.1" id="Layer_1" xmlns="http://www.w3.org/2000/svg" xmlns:xlink="http://www.w3.org/1999/xlink" x="0px" y="0px"
	 viewBox="0 0 848.8 498" style="enable-background:new 0 0 848.8 498;" xml:space="preserve">
<style type="text/css">
	.st0{fill:#4DC3C6;}
	.st1{fill:#45B7B8;}
	.st2{fill:none;}
	.st3{fill:none;stroke:#FFFFFF;stroke-width:2;stroke-miterlimit:10;}
	.st4{fill:#FFFFFF;}
	.st5{fill:#1597A2;}
	.st6{fill:#137B82;}
	.st7{fill:#169AA6;}
	.st8{fill:#1C4251;}
	.st9{fill:#1E99A7;}
	.st10{fill:none;stroke:#2E5873;stroke-width:0.4;stroke-miterlimit:10;}
	.st11{fill:#F2683A;}
	.st12{fill:#FEF6FA;}
	.st13{opacity:0.2;fill:#2E5873;}
	.st14{fill:#1BB5CC;}
	.st15{fill:#1594A2;}
	.st16{fill:#128A96;}
	.st17{fill:none;stroke:#1594A2;stroke-width:2;stroke-miterlimit:10;}
	.st18{fill:#EDF7F5;}
	.st19{fill:#1D94A2;}
	.st20{fill:#1CAFC4;}
	.st21{opacity:0.4;fill:none;stroke:#2E5873;stroke-width:0.4;stroke-miterlimit:10;}
</style>
<rect id="XMLID_34_" x="1" class="st0" width="847.8" height="498"/>
<polygon class="st1" points="417.2,195 207.5,0 0,0 0,132 "/>
<polygon class="st1" points="417.2,195 0,290 0,390 1,496 "/>
<g id="XMLID_14_">
	<polygon id="XMLID_15_" class="st2" points="848.8,173.9 413.7,195 848.8,264.8 	"/>
	<polygon id="XMLID_23_" class="st1" points="848.8,116.4 413.7,195 848.8,173.9 	"/>
	<polygon id="XMLID_25_" class="st1" points="413.7,195 848.8,309.2 848.8,264.8 	"/>
</g>
<path class="st3" d="M504.8,103.3c0,0,2.7,3.3-4.4,3.3s-16.3,0-16.3,0"/>
<line class="st3" x1="472.4" y1="105.9" x2="455.3" y2="105.9"/>
<path class="st3" d="M443.1,106.1c0,0-4.7,4.8-13.3,0.5"/>
<path class="st3" d="M361.6,106.1c0,0-9.1,8.4-17.6-1.3"/>
<path class="st3" d="M321.2,104c0,0,2.1,12.1-15.7,2.1"/>
<line class="st3" x1="293.3" y1="105.9" x2="276.2" y2="105.9"/>
<path class="st3" d="M263.7,106.4c0.1,2.8-14.3,3.6-14.2-1.9"/>
<circle class="st4" cx="367.6" cy="44.9" r="8.3"/>
<path class="st3" d="M540.1,104.1c0,0,4.6,3.1-1.1,3.1c-5.7,0.1-15.2,0-15.2,0s-1.8-0.5-1.8-3.1"/>
<g>
	<g>
		<path class="st3" d="M236.5,106.2V39.7h13.1v64.5L236.5,106.2z"/>
		<path class="st3" d="M276.2,105.9h-12.4V60h12.1v5.7c2.8-4.8,8.3-6.9,13.3-6.9c11.4,0,16.6,8.1,16.6,18.2v29h-12.4V79.1
			c0-5.1-2.5-9.2-8.5-9.2c-5.4,0-8.6,4.2-8.6,9.5v26.5H276.2z"/>
		<path class="st3" d="M325,90.8c0.3,3.6,3,7,8.4,7c4.1,0,6.1-2.1,6.1-4.6c0-2.1-1.4-3.7-5-4.5l-6.1-1.4c-8.9-2-12.9-7.3-12.9-13.7
			c0-8.2,7.3-15,17.2-15c13.1,0,17.5,8.3,18,13.3l-10.4,2.3c-0.4-2.7-2.3-6.2-7.6-6.2c-3.3,0-5.9,2-5.9,4.6c0,2.2,1.7,3.6,4.2,4.1
			l6.5,1.4c9.1,1.9,13.6,7.4,13.6,14.1c0,7.5-5.8,15.1-17.8,15.1c-13.8,0-18.6-9-19.2-14.2L325,90.8z"/>
		<path class="st3" d="M367.5,37.2c4.3,0,7.7,3.5,7.7,7.8c0,4.1-3.4,7.6-7.7,7.6c-4.2,0-7.7-3.5-7.7-7.6
			C359.9,40.6,363.3,37.2,367.5,37.2z M361.4,105.9V60h12.4v46L361.4,105.9L361.4,105.9z"/>
		<path class="st3" d="M395,105.5c0.8,5,4.9,8.7,10.7,8.7c7.8,0,12.2-3.9,12.2-12.8V98c-1.9,3-6.2,5.9-12.8,5.9
			c-12.2,0-21.4-9.4-21.4-22.3c0-12.1,8.8-22.4,21.4-22.4c7.3,0,11.5,3.2,13.1,6.3V60h12v41c0,12.6-6.8,24.1-24.1,24.1
			c-12.6,0-21-7.8-22.3-16.6L395,105.5z M418.2,81.6c0-7.1-4.9-11.6-10.8-11.6c-6.2,0-11,4.5-11,11.6c0,7.2,4.6,11.7,11,11.7
			C413.7,93.2,418.2,88.7,418.2,81.6z"/>
		<path class="st3" d="M455.3,105.9h-12.4V38.3h12.4v25.5c3-3.6,8-5,12.4-5c11.7,0,17.1,8.1,17.1,18.2v29h-12.4V79.1
			c0-5.1-2.5-9.2-8.5-9.2c-5.2,0-8.3,3.9-8.6,9V105.9z"/>
		<path class="st3" d="M512.7,60h9.2v11h-9.2v19.2c0,4,1.9,5.3,5.4,5.3c1.5,0,3.2-0.2,3.8-0.4v10.3c-1.1,0.5-3.4,1.1-7,1.1
			c-9,0-14.6-5.3-14.6-14.2V71H492V60h2.3c4.9,0,7.1-3.2,7.1-7.3v-6.4h11.2L512.7,60L512.7,60z"/>
	</g>
	<g>
		<path class="st3" d="M545.4,91.3c0.3,3.8,3.2,7.4,8.9,7.4c4.3,0,6.4-2.3,6.4-4.8c0-2.2-1.5-3.9-5.2-4.7l-6.4-1.5
			c-9.4-2.1-13.6-7.7-13.6-14.5c0-8.7,7.7-15.9,18.2-15.9c13.8,0,18.5,8.8,19,14l-11,2.5c-0.4-2.9-2.5-6.5-8-6.5
			c-3.5,0-6.2,2.1-6.2,4.8c0,2.4,1.8,3.8,4.4,4.3l6.9,1.5c9.6,2,14.4,7.8,14.4,14.9c0,7.9-6.1,16-18.8,16c-14.6,0-19.6-9.5-20.2-15
			L545.4,91.3z"/>
	</g>
</g>
<path class="st0" d="M542.9,105.3c0,0,0.1,1.5-0.7,2.1c-0.9,0.7,6.9,2.7,6.9,2.7l21.8,2.7l-2.8-5.6c0,0-1.8-1.2-1.9-2.9
	c-3.9-0.2-25.9-1.3-25.9-1.3L542.9,105.3z"/>
<path class="st0" d="M421.3,162.2h-31.2c-10.4,0-18.8-8.4-18.8-18.8V124c0-10.4,9.1-20.5,19.5-20.5l30.5,1.7
	c10.4,0,18.8,8.4,18.8,18.8v19.4C440.1,153.8,431.7,162.2,421.3,162.2z"/>
<path class="st3" d="M417.8,104.7c-2.5,10.7-30.5,16.9-44.1,1.5"/>
<path class="st1" d="M275.1,104v3.4c0,0-11.2,1.1-10.6,0c0.5-1.1,0.2-4.7,0.2-4.7L275.1,104z"/>
<polygon class="st0" points="443.7,105.2 449.4,107 443.7,108.9 "/>
<path class="st0" d="M521.8,107.1c-0.7-1.1-0.9-2.4-0.9-2.4l-13.8-1.2l-1.2-0.6c0,0,0.9,2,0,3c-0.7,0.8,10.2,2.8,10.2,2.8
	S522.4,108,521.8,107.1z"/>
<polygon class="st0" points="520.8,104.3 520.9,105.7 518.7,105.4 "/>
<path class="st0" d="M368.1,112.6h-1c-2.8,0-5-2.2-5-5v-1.1c0-2.8,2.2-5,5-5h1c2.8,0,5,2.2,5,5v1.1
	C373.1,110.4,370.9,112.6,368.1,112.6z"/>
<polygon class="st0" points="322,106.9 323.5,106.8 342.6,103 344.4,107.6 334.1,109.5 326.7,109.5 "/>
<polygon class="st0" points="454.5,102 454.5,107.3 450.3,107.3 443.7,105.2 443.7,102 "/>
<path class="st0" d="M339.2,103.4l-18.7-1.2c0,0,2.4,1.5,1.5,5C326.7,106.8,339.2,103.4,339.2,103.4z"/>
<polygon class="st0" points="473.2,104.8 484.1,107 484.1,104 "/>
<polygon class="st0" points="473.2,104.8 473.2,107.7 484.1,108.4 484.1,107 "/>
<polygon class="st1" points="294.2,102.1 294.3,107.6 304.6,107.8 304.7,99.6 "/>
<path class="st1" d="M237.4,101.5v7.5h11.3c0,0-0.2-6.3-0.2-6.8C248.5,101.5,237.4,101.5,237.4,101.5z"/>
<polygon class="st4" points="235.5,107.3 237.4,107.3 237.4,106.2 "/>
<rect x="175.1" y="182.1" class="st5" width="78.7" height="174.7"/>
<rect x="229.8" y="195.4" class="st6" width="11.3" height="10.4"/>
<rect x="229.8" y="211.4" class="st6" width="11.3" height="10.4"/>
<rect x="229.8" y="230.4" class="st6" width="11.3" height="10.4"/>
<rect x="229.8" y="247.4" class="st6" width="11.3" height="10.4"/>
<rect x="229.8" y="264.4" class="st6" width="11.3" height="10.4"/>
<rect x="229.8" y="280.4" class="st6" width="11.3" height="10.4"/>
<rect x="229.8" y="299.4" class="st6" width="11.3" height="10.4"/>
<rect x="229.8" y="316.4" class="st6" width="11.3" height="10.4"/>
<rect x="229.8" y="331.4" class="st6" width="11.3" height="10.4"/>
<rect x="213.8" y="195.4" class="st6" width="11.3" height="10.4"/>
<rect x="197.8" y="195.4" class="st6" width="11.3" height="10.4"/>
<rect x="213.8" y="211.4" class="st6" width="11.3" height="10.4"/>
<rect x="213.8" y="230.4" class="st6" width="11.3" height="10.4"/>
<rect x="213.8" y="247.4" class="st6" width="11.3" height="10.4"/>
<rect x="213.8" y="264.4" class="st6" width="11.3" height="10.4"/>
<rect x="213.8" y="280.4" class="st6" width="11.3" height="10.4"/>
<rect x="213.8" y="299.4" class="st6" width="11.3" height="10.4"/>
<rect x="213.8" y="316.4" class="st6" width="11.3" height="10.4"/>
<rect x="213.8" y="331.4" class="st6" width="11.3" height="10.4"/>
<rect x="197.8" y="299.4" class="st6" width="11.3" height="10.4"/>
<rect x="197.8" y="211.4" class="st6" width="11.3" height="83.4"/>
<rect x="197.8" y="316.4" class="st6" width="11.3" height="10.4"/>
<rect x="197.8" y="331.4" class="st6" width="11.3" height="10.4"/>
<path class="st7" d="M1.3,200.6h117.2h3.3c0,0,7.5,0,7.3,10.8c-0.2,13.3,0,32.3,0,32.3s1.3,9.4-7,9.4c-11.3,0-120.9,1.6-120.9,1.6
	V200.6z"/>
<rect x="120.2" y="200.6" class="st8" width="4.9" height="52"/>
<path class="st4" d="M129.2,214.6h6.9c0,0,5-5.2,11.2-5.2c6.2,0,40.8,0,44.7,0s6.9,4.9,0,5.2c-8.7,0.7-8.8,1-11.5,1.2
	c-2.8,0.2-6.7,5.3,0.8,6.1s23,0,25.8,0c3.8,0,6.2,4.3-0.7,4.8c-10,0.5-21.3,1-24.8,1.1c-3.5,0.1-5.7,5.2,0.2,5.4
	c5.8,0.2,27.6,0.3,32.6,0.7c5,0.3,6,7.1-0.6,7.1c-16,0.4-28.4,0-32.2,0c-3.8,0-6.2,6.4,0.3,6.6c6.5,0.2,20.2,0,24.3,0
	c4.2,0,6.7,5.3-0.3,5.2c-7,0-44.7,0.9-47.7,0.5c-3-0.4-6.2,1.8-2.3,5.6c6.2,0,16.2,0,16.2,0s5.4,1.3,4.2,7c-7.2,0.8-19,1.8-20.8,1.3
	s-2.7-1.7-5.3-4c-2.7-2.3-15.7-20.2-15.7-20.2l-5.3-0.2L129.2,214.6z"/>
<g>
	<path class="st7" d="M1.3,347.2h117.2h3.3c0,0,7.5,0,7.3-10.8c-0.2-13.3,0-32.3,0-32.3s1.3-9.4-7-9.4c-11.3,0-120.9-1.6-120.9-1.6
		L1.3,347.2z"/>
	<rect x="120.2" y="295.2" class="st8" width="4.9" height="52"/>
	<path class="st4" d="M129.2,333.2h6.9c0,0,5,5.2,11.2,5.2c6.2,0,40.8,0,44.7,0s6.9-4.9,0-5.2c-8.7-0.7-8.8-1-11.5-1.2
		c-2.8-0.2-6.7-5.3,0.8-6.1s23,0,25.8,0c3.8,0,6.2-4.3-0.7-4.8c-10-0.5-21.3-1-24.8-1.1c-3.5-0.1-5.7-5.2,0.2-5.4
		c5.8-0.2,27.6-0.3,32.6-0.7c5-0.3,6-7.1-0.6-7.1c-16-0.4-28.4,0-32.2,0c-3.8,0-6.2-6.4,0.3-6.6c6.5-0.2,20.2,0,24.3,0
		c4.2,0,6.7-5.3-0.3-5.2c-7,0-44.7-0.9-47.7-0.5c-3,0.4-6.2-1.8-2.3-5.6c6.2,0,16.2,0,16.2,0s5.4-1.3,4.2-7
		c-7.2-0.8-19-1.8-20.8-1.3s-2.7,1.7-5.3,4c-2.7,2.3-15.7,20.2-15.7,20.2l-5.3,0.2L129.2,333.2z"/>
</g>
<g>
	<g>
		<g>
			<polygon class="st9" points="377.8,193 418.4,193 424,193 424,163 377.8,163 			"/>
			<polygon class="st9" points="420.5,203.2 406.8,193 418.4,193 			"/>
		</g>
		<line class="st10" x1="416" y1="172.6" x2="384.9" y2="172.6"/>
		<line class="st10" x1="416" y1="176.3" x2="384.9" y2="176.3"/>
		<line class="st10" x1="415.7" y1="180.2" x2="384.6" y2="180.2"/>
		<line class="st10" x1="415.7" y1="183.8" x2="384.6" y2="183.8"/>
	</g>
	<g>
		<g>
			<polygon class="st11" points="398.4,191.4 350,191.4 343.4,191.4 343.4,155.7 398.4,155.7 			"/>
			<polygon class="st11" points="347.6,203.5 363.9,191.4 350,191.4 			"/>
		</g>
		<line class="st10" x1="352.9" y1="167.1" x2="389.9" y2="167.1"/>
		<line class="st10" x1="352.9" y1="171.6" x2="389.9" y2="171.6"/>
		<line class="st10" x1="353.3" y1="176.2" x2="390.3" y2="176.2"/>
		<line class="st10" x1="353.3" y1="180.4" x2="390.3" y2="180.4"/>
	</g>
</g>
<g>
	<g>
		<path class="st12" d="M337.5,340.5H314l-15,14.2v35.9c0,2.5,2,4.5,4.5,4.5h34c2.5,0,4.5-2,4.5-4.5V345
			C342,342.5,340,340.5,337.5,340.5z"/>
	</g>
	<line class="st10" x1="304.6" y1="359.3" x2="335.2" y2="359.3"/>
	<line class="st10" x1="317.5" y1="355.7" x2="335.2" y2="355.7"/>
	<line class="st10" x1="304.6" y1="362.9" x2="335.2" y2="362.9"/>
	<line class="st10" x1="304.9" y1="366.7" x2="335.5" y2="366.7"/>
	<line class="st10" x1="304.9" y1="370" x2="335.5" y2="370"/>
	<line class="st10" x1="304.6" y1="373.2" x2="335.2" y2="373.2"/>
	<line class="st10" x1="304.6" y1="376.9" x2="335.2" y2="376.9"/>
	<line class="st10" x1="304.9" y1="380.7" x2="335.5" y2="380.7"/>
	<line class="st10" x1="304.9" y1="384.2" x2="335.5" y2="384.2"/>
	<polygon class="st13" points="313.7,352.4 312.4,353.7 299,368.1 299,354.7 	"/>
	<path class="st14" d="M314,340.5c0,0,0,0.1,0,0.3c0,1,0.1,4.3,0,9.2c-0.1,4.4-4.1,4.7-4.1,4.7h-11L314,340.5z"/>
</g>
<g>
	<rect x="699.2" y="422.1" class="st15" width="57.5" height="41"/>
	<rect x="699" y="418.3" class="st16" width="14" height="44.8"/>
	<path class="st17" d="M723.2,423.1v-3.8c0,0,0.3-3,4.8-3.3s10.8,0,10.8,0s3.9-0.1,3.8,3.4c-0.2,5.1,0,3.6,0,3.6H723.2z"/>
	<circle class="st3" cx="732.5" cy="441.6" r="14.3"/>
	<circle class="st4" cx="732.8" cy="441.7" r="10.1"/>
</g>
<g>
	<g>
		<path class="st11" d="M617.7,133.1c0,0,33-28.2,38.8-33.5c1.7-1.9,4.2-1.5,5.7,0c6.3,6.5,40.3,32.5,40.3,32.5s0,27.1,0,28.3
			c0,1.2-83,4.8-83,4.8L617.7,133.1z"/>
		<polygon class="st18" points="626.4,104.6 693.4,104.6 693.4,173.6 626.4,176.3 		"/>
		<polygon class="st19" points="648.9,161.8 619.9,188.6 617.7,137.7 		"/>
		<path class="st20" d="M648.9,161.8l22-0.3l31.5,23c0,0,1.3,7.3-4,7.3c-10.5,0-70.9,0-72.5,0s-6.3,0.7-6-3.3
			C626.4,182.8,648.9,161.8,648.9,161.8z"/>
		<g>
			<line class="st21" x1="638.5" y1="113.9" x2="680.6" y2="113.9"/>
			<line class="st21" x1="638.5" y1="117.6" x2="680.6" y2="117.6"/>
			<line class="st21" x1="638.9" y1="121.4" x2="681" y2="121.4"/>
			<line class="st21" x1="638.9" y1="124.9" x2="681" y2="124.9"/>
			<line class="st21" x1="638.5" y1="127.9" x2="680.6" y2="127.9"/>
			<line class="st21" x1="638.5" y1="131.6" x2="680.6" y2="131.6"/>
			<line class="st21" x1="638.9" y1="135.4" x2="681" y2="135.4"/>
			<line class="st21" x1="638.9" y1="138.9" x2="681" y2="138.9"/>
			<line class="st21" x1="638.5" y1="141.9" x2="680.6" y2="141.9"/>
			<line class="st21" x1="638.5" y1="145.6" x2="680.6" y2="145.6"/>
			<line class="st21" x1="638.9" y1="149.4" x2="681" y2="149.4"/>
			<line class="st21" x1="638.9" y1="152.9" x2="681" y2="152.9"/>
		</g>
	</g>
	<polygon class="st9" points="670.9,161.6 702.4,134.6 702.4,184.6 	"/>
</g>
</svg>
