<?xml version="1.0" encoding="utf-8"?>
<!-- Generator: Adobe Illustrator 19.0.0, SVG Export Plug-In . SVG Version: 6.00 Build 0)  -->
<svg version="1.1" id="Layer_1" xmlns="http://www.w3.org/2000/svg" xmlns:xlink="http://www.w3.org/1999/xlink" x="0px" y="0px"
	 viewBox="0 0 282.4 271.5" style="enable-background:new 0 0 282.4 271.5;" xml:space="preserve">
<style type="text/css">
	.st0{fill:#799F6C;}
	.st1{fill:#E88B6B;}
	.st2{fill:#DCDBDB;}
	.st3{fill:#6B6C6C;}
	.st4{fill:#FFFFFF;}
	.st5{fill:#F4F0EF;}
	.st6{fill:#D2C754;}
	.st7{fill:#A5993C;}
</style>
<g>
	<rect x="0" y="0" class="st0" width="282.4" height="271.5"/>
	<circle class="st1" cx="135.6" cy="141.6" r="88.9"/>
	<rect x="75.9" y="84.8" class="st2" width="123.7" height="129.6"/>
	<rect x="123.1" y="58.4" class="st2" width="33.8" height="26.8"/>
	<circle class="st3" cx="139.5" cy="72.8" r="8.6"/>
	<rect x="95.1" y="84.8" class="st4" width="85.4" height="129.6"/>
	<rect x="99.9" y="90.3" class="st5" width="74.4" height="118.6"/>
	<rect x="180.4" y="132.6" class="st5" width="19.2" height="81.8"/>
	<rect x="75.9" y="132.6" class="st5" width="19.2" height="81.8"/>
	<rect x="112.8" y="42.8" class="st6" width="54.4" height="16.1"/>
	<rect x="112.8" y="50.9" class="st7" width="54.4" height="8.7"/>
	<rect x="167.2" y="50.9" class="st6" width="27.5" height="4.4"/>
	<circle class="st4" cx="200" cy="53" r="11.7"/>
	<polygon id="XMLID_180_" class="st4" points="109.2,208.9 140,88.9 152,88.9 121.6,208.9 	"/>
	<polygon id="XMLID_179_" class="st4" points="126.9,208.9 157.7,88.9 169.7,88.9 139.3,208.9 	"/>
	<rect x="112.8" y="118.1" class="st6" width="54.4" height="23.5"/>
</g>
</svg>
