<?xml version="1.0" encoding="utf-8"?>
<!-- Generator: Adobe Illustrator 19.0.0, SVG Export Plug-In . SVG Version: 6.00 Build 0)  -->
<svg version="1.1" id="Layer_1" xmlns="http://www.w3.org/2000/svg" xmlns:xlink="http://www.w3.org/1999/xlink" x="0px" y="0px"
	 viewBox="0 0 262.1 269.3" style="enable-background:new 0 0 262.1 269.3;" xml:space="preserve">
<style type="text/css">
	.st0{fill:#B6E2EB;}
	.st1{fill:#AA5926;}
	.st2{fill:#06948C;}
	.st3{fill:#58290E;}
	.st4{fill:#FFFFFF;}
	.st5{fill:#8E451F;}
	.st6{fill:#3EA0B7;}
	.st7{fill:#E0B358;}
	.st8{fill:#EB222D;}
	.st9{fill:#DDD9D4;}
	.st10{fill:none;}
</style>
<rect x="0.6" y="0" class="st0" width="261.5" height="267.7"/>
<path id="XMLID_79_" class="st1" d="M130.7,123.1c0,0,8.5,121.1-130.5,144.7v-65.2c0,0,99.8,16.5,111.1-79.8L130.7,123.1z"/>
<path id="XMLID_78_" class="st2" d="M196.8,111.8h-95.2c7.9-19,26.2-31.5,47.6-31.5S188.9,92.8,196.8,111.8z"/>
<path class="st2" d="M186.7,43l-74,60c-5.8-19.7,0.5-41,17.1-54.5C146.4,35.1,168.6,33.3,186.7,43z"/>
<path class="st2" d="M169.5,181.5l-67.3-67.3c18.6-7.4,40.9-3.7,56,11.4C173.3,140.6,177,162.9,169.5,181.5z"/>
<path id="XMLID_66_" class="st2" d="M18.1,114.8h95.2c-7.9-16-26.2-31.5-47.6-31.5S26,98.8,18.1,114.8z"/>
<path class="st2" d="M46.5,180.3l67.3-67.3c-18.6-7.4-40.9-3.7-56,11.4S39,161.8,46.5,180.3z"/>
<path class="st2" d="M45.8,48.1l67.3,67.3c7.4-18.6,3.7-40.9-11.4-56C86.7,44.3,64.4,40.6,45.8,48.1z"/>
<circle class="st3" cx="122.9" cy="99.4" r="17.3"/>
<circle class="st3" cx="111.1" cy="134.1" r="16.9"/>
<circle class="st3" cx="96.5" cy="110.5" r="9.9"/>
<circle class="st4" cx="183.6" cy="65.8" r="5.5"/>
<circle class="st4" cx="202.9" cy="61.8" r="11.7"/>
<circle class="st4" cx="220.8" cy="57.7" r="14.7"/>
<circle class="st4" cx="233" cy="67.9" r="7"/>
<rect x="191.1" y="68.6" class="st0" width="55" height="9.8"/>
<polygon id="XMLID_65_" class="st0" points="22,117.8 26.2,110.5 30.3,117.8 "/>
<polygon id="XMLID_64_" class="st0" points="30.1,117.8 34.3,110.5 38.5,117.8 "/>
<path class="st5" d="M38,229.5L38,229.5c-2.2,0.2-4.2-1.4-4.4-3.6l-2.1-21.4c-0.2-2.2,1.4-4.2,3.6-4.4l0,0c2.2-0.2,4.2,1.4,4.4,3.6
	l2.1,21.4C41.8,227.3,40.2,229.3,38,229.5z"/>
<path class="st5" d="M56.6,221.8L56.6,221.8c-2.1,0.6-4.4-0.6-5.1-2.7l-5.6-18.8c-0.6-2.1,0.6-4.4,2.7-5.1l0,0
	c2.1-0.6,4.4,0.6,5.1,2.7l5.6,18.8C59.9,218.9,58.7,221.2,56.6,221.8z"/>
<path class="st5" d="M70.1,211.9L70.1,211.9c-2.1,0.6-4.4-0.6-5.1-2.7l-4.8-15.9c-0.6-2.1,0.6-4.4,2.7-5.1l0,0
	c2.1-0.6,4.4,0.6,5.1,2.7l4.8,15.9C73.5,208.9,72.3,211.2,70.1,211.9z"/>
<path class="st5" d="M83,199.5L83,199.5c-2.1,0.6-4.4-0.6-5.1-2.7l-3-10c-0.6-2.1,0.6-4.4,2.7-5.1l0,0c2.1-0.6,4.4,0.6,5.1,2.7l3,10
	C86.3,196.5,85.1,198.8,83,199.5z"/>
<g id="XMLID_81_">
	<path id="XMLID_82_" class="st6" d="M177.7,202.6H0v66.7h137C137.5,240,154,214.9,177.7,202.6z"/>
	<path id="XMLID_84_" class="st6" d="M262.1,202.6H243c7.1,3.6,13.5,8.4,19.1,14.2V202.6z"/>
	<path id="XMLID_85_" class="st7" d="M210.4,194.7c-11.7,0-22.8,2.9-32.6,7.9H243C233.1,197.6,222.1,194.7,210.4,194.7z"/>
	<path id="XMLID_87_" class="st7" d="M262.1,216.8c-5.6-5.7-12-10.5-19.1-14.2h-65.2C154,214.9,137.5,240,137,269.3h125.1V216.8z"/>
</g>
<rect x="180.7" y="162.5" class="st4" width="63.7" height="36.3"/>
<rect x="188.2" y="170" class="st8" width="48.5" height="66.6"/>
<polygon class="st4" points="180.7,198.8 188.1,238 214.4,238 214.4,199.1 "/>
<polygon class="st8" points="186.4,193.7 193.8,232.8 220.1,232.8 220.1,193.9 "/>
<rect x="181.7" y="171.6" class="st4" width="6.5" height="32.4"/>
<polygon class="st4" points="244.3,198.8 236.9,238 210.6,238 210.6,199.1 "/>
<polygon class="st8" points="238.5,193.7 231.1,232.8 204.8,232.8 204.8,193.9 "/>
<rect x="236.7" y="171.6" class="st4" width="6.5" height="32.4"/>
<rect x="188.2" y="170" class="st9" width="48.5" height="15.9"/>
<line id="XMLID_22_" class="st10" x1="162.2" y1="104.8" x2="163.2" y2="104.8"/>
</svg>
