<?xml version="1.0" encoding="utf-8"?>
<!-- Generator: Adobe Illustrator 19.0.0, SVG Export Plug-In . SVG Version: 6.00 Build 0)  -->
<svg version="1.1" id="Layer_1" xmlns="http://www.w3.org/2000/svg" xmlns:xlink="http://www.w3.org/1999/xlink" x="0px" y="0px"
	 viewBox="0 0 600 251" style="enable-background:new 0 0 600 251;" xml:space="preserve">
<style type="text/css">
	.st0{fill:#0C6B88;}
	.st1{fill:none;stroke:#FFFFFF;stroke-miterlimit:10;stroke-dasharray:3.132;}
	.st2{fill:#FFFFFF;}
	.st3{fill:#F2673A;}
</style>
<rect id="XMLID_13227_" class="st0" width="600" height="251"/>
<rect id="XMLID_13224_" x="46.5" y="31.5" class="st1" width="508" height="187"/>
<g id="XMLID_13225_">
	<path id="XMLID_13226_" class="st2" d="M87.8,56.6h0.8v45.1c0,8.1-3.8,9.2-11.8,9.2H61.5l0.5-3.5h4.3V91.6
		c-0.9,0.5-1.8,0.6-2.8,0.6c-3.3,0-6.5-2.4-6.5-6.5c0-4.7,3.5-7.3,7.5-7.3c2.5,0,8.5,1.1,8.5,9.8v19.2h1.4c5.7,0,7.7-0.4,7.7-6.2V69
		c0-2.2,0-4.6-0.2-9.9L87.8,56.6z M67.4,85.1c0-2.3-1.4-3.8-3.3-3.8c-2.2,0-3.8,1.8-3.8,3.9c0,2.7,1.8,3.9,3.6,3.9
		c1.1,0,2.2-0.5,2.9-1.2C67.3,87.1,67.4,86.1,67.4,85.1z"/>
	<path id="XMLID_13234_" class="st2" d="M95.1,87.5c0-7.2,4.9-10.5,9.4-10.5c2.7,0,4.8,1,6.6,1.9c1.4,0.7,2.6,1.2,3.8,1.2
		c1.3,0,2.5-0.9,3.2-1.8l1.8,2.5c-2.1,2.8-4.2,3.7-6.5,3.7c-2.5,0-4.4-0.7-6.3-1.4c-1.7-0.6-3.4-1.2-5-1.2c-1.5,0-2.8,0.8-2.8,2.1
		c0,0.3,0.1,0.8,0.2,1.2c8.1,0.7,13.2,1.5,15.9,3.4c2.5,1.8,2.6,3.5,2.6,7.7v6.5c0,5.3-3.4,8.8-8.5,8.8c-4.2,0-7.3-2.7-7.3-6.7
		c0-4.2,3-6.9,6.7-6.9c0.9,0,1.8,0.2,2.6,0.5v-3.4c0-4.4-2.3-5.9-16.2-6.7C95.1,88,95.1,87.7,95.1,87.5z M109.2,100.8
		c-2.2,0-3.7,1.8-3.7,4c0,2.6,1.8,4,3.7,4c1.7,0,3.3-1.4,3.3-4.5c0-0.8-0.2-1.6-0.4-2.4C111.3,101.1,110.2,100.8,109.2,100.8z"/>
	<path id="XMLID_13237_" class="st2" d="M151.9,80.4c-2.1,8.7-8.1,13.2-15.4,13.2c-5.2,0-10.5-2.4-10.5-7.9c0-3.5,2.5-6.1,6.2-6.1
		c3.8,0,5.9,2.8,5.9,5.6c0,1.8-0.5,3.9-2.8,5.2v0.2c5.4,0.5,8.5-2.8,9.5-10.2H151.9z M151.9,98.4c-2.1,8.7-8.1,13.2-15.4,13.2
		c-5.2,0-10.5-2.4-10.5-7.9c0-3.5,2.5-6.1,6.2-6.1c3.8,0,5.9,2.8,5.9,5.6c0,1.8-0.5,3.9-2.8,5.2v0.2c5.4,0.5,8.5-2.8,9.5-10.2H151.9
		z M132.1,89.6c2.5-0.7,3-2.5,3-4.1c0-1.8-1.4-3-2.8-3c-2,0-3.2,1.4-3.2,3.1C129.1,87,129.8,88.8,132.1,89.6z M132.1,107.7
		c2.5-0.7,3-2.5,3-4.1c0-1.8-1.4-3-2.8-3c-2,0-3.2,1.4-3.2,3.1C129.1,105.1,129.8,106.9,132.1,107.7z"/>
	<path id="XMLID_13242_" class="st2" d="M154.6,83.4c3.8-3.4,7.5-5,12.3-5c6.8,0,13.3,3.5,13.3,11.3v13.2c0,5.3-3.4,8.8-8.5,8.8
		c-4.2,0-7.3-2.7-7.3-6.7c0-4.2,3-6.9,6.7-6.9c0.9,0,1.8,0.2,2.6,0.5v-8.1c0-5.1-2.7-8.5-7.5-8.5c-3.7,0-6.8,1.5-9.5,4.2L154.6,83.4
		z M171.4,100.8c-2.2,0-3.7,1.8-3.7,4c0,2.6,1.8,4,3.7,4c1.7,0,3.3-1.4,3.3-4.5c0-0.8-0.2-1.6-0.4-2.4
		C173.5,101.1,172.4,100.8,171.4,100.8z"/>
	<path id="XMLID_13245_" class="st2" d="M188.7,64.3c-1.7,7-7.1,10.9-13.7,10.9c-4.5,0-9.2-1.9-9.2-6.5c0-2.9,2.2-5.2,5.4-5.2
		c3.3,0,5.1,2.5,5.1,4.9c0,1.5-0.5,3.1-2,4.2v0.2c4.5,0.4,7.3-2.3,8.2-8.2H188.7z M171,71.7c1.9-0.5,2.5-2.1,2.5-3.4
		c0-1.5-1.2-2.6-2.4-2.6c-1.7,0-2.7,1.2-2.7,2.7C168.4,69.6,169.1,71.1,171,71.7z"/>
	<path id="XMLID_13248_" class="st2" d="M195.2,111c-0.3-2.6-1.8-5.5-3.5-8.6c-1.8-3.4-3.5-6.9-3.5-10.6c0-8.4,7-12.6,12.4-12.6
		c0.7,0,0.8,0.1,4.4,2.9h0.2c3.3-2.5,3.7-2.9,4.1-2.9c2.3,0,11.9,0.5,11.9,12V111h-6.5V90.4c0-7.3-3.8-7.9-4-7.9s-2.4,1.7-5.3,4.1
		H205c-3.3-2.5-5.2-4.1-5.4-4.1c-0.7,0-4.7,2.6-4.7,8.5c0,2.8,1,5.6,2,8.2c0.8,2.2,1.8,4.4,2.3,6.5h0.2c0.8-2,2.3-3.9,4.4-6.2
		c-3.2-0.8-5.1-2.7-5.1-5.8c0-3.9,3.2-6.1,6.5-6.1c3.5,0,6.6,2.4,6.6,6.5c0,3.3-2.3,6.2-4.5,8.9c-1.9,2.4-4.2,5-5.5,7.9H195.2z
		 M208.5,93.3c0-1.7-1.5-3.1-3.2-3.1c-2.4,0-3.5,1.8-3.5,3.2c0,2.9,2.5,3.8,4.1,3.8C206.1,97.2,208.5,95.3,208.5,93.3z"/>
	<path id="XMLID_13252_" class="st2" d="M212.1,60.6c6.9,0,11,4.9,11,10.7c0,1.6-0.4,3.2-1,4.7c-6.4-4.2-12.4-6.1-21.1-5.8
		C201.8,64.3,206.1,60.6,212.1,60.6z M220.6,72.4c-0.4-3.9-4.9-7.1-9.1-7.1c-2.8,0-5,0.8-6.3,2.7C210.7,68.4,215.6,69.6,220.6,72.4z
		"/>
	<path id="XMLID_13258_" class="st2" d="M256.5,91.6c0-6.4-4.2-10-9.8-10c-6.2,0-9.7,3.8-9.7,10.7c0,2.5,0.9,5.4,1.6,7.6h0.3
		c0.5-4.5,1.4-7.8,2.8-9.9c1.5-2.1,3.7-3,5.8-3c3.5,0,6.3,2.6,6.3,6.2c0,4-2.8,6.8-6.5,6.8c-0.9,0-1.8-0.2-2.8-0.5
		c-1.5,3.7-2.2,8.4-2.2,11.5h-6.5c-0.1-2.9-1.4-5.9-2.6-9c-1.4-3.3-2.8-6.6-2.8-10.2c0-8.5,7.1-13.3,16.6-13.3
		c11.6,0,16.1,5.5,16.1,13.1V111h-6.5V91.6z M244.1,94.3c0,1.8,1.8,2.8,3.2,2.8c1.7,0,3.7-1.1,3.7-3.7c0-1.8-1.3-3.5-3.2-3.5
		C245.6,89.9,244.1,91.8,244.1,94.3z"/>
	<path id="XMLID_13261_" class="st2" d="M268.3,83.4c3.8-3.4,7.5-5,12.3-5c6.8,0,13.3,3.5,13.3,11.3v13.2c0,5.3-3.4,8.8-8.5,8.8
		c-4.2,0-7.3-2.7-7.3-6.7c0-4.2,3-6.9,6.7-6.9c0.9,0,1.8,0.2,2.6,0.5v-8.1c0-5.1-2.7-8.5-7.5-8.5c-3.7,0-6.8,1.5-9.5,4.2L268.3,83.4
		z M285.2,100.8c-2.2,0-3.7,1.8-3.7,4c0,2.6,1.8,4,3.7,4c1.7,0,3.3-1.4,3.3-4.5c0-0.8-0.2-1.6-0.4-2.4
		C287.3,101.1,286.1,100.8,285.2,100.8z"/>
	<path id="XMLID_13264_" class="st2" d="M313.7,111V90.4c0-5.5-2.9-7.8-6.4-7.8c-2.3,0-4.5,1.1-6.6,2.8l-2.1-2.9
		c2.9-2.6,6.4-4.1,9.9-4.1c6.1,0,11.7,3.8,11.7,11.3V111H313.7z"/>
	<path id="XMLID_13266_" class="st2" d="M338,97.1v-5.9c-0.9,0.5-1.8,0.6-2.8,0.6c-3.3,0-6.6-2.2-6.6-6.2c0-4.5,3.5-7.1,7.5-7.1
		c2.5,0,8.5,1.1,8.5,9.8v10.5c3.6,1.5,7,3.9,10.1,6.7V91.5c0-2.2,0-4.6-0.2-9.9l5.9-2.5h0.8V111h-6.6c-2.3-3.3-6.2-6.8-9.9-8.3
		c0.1,0.4,0.1,0.8,0.1,1.2c0,2.9-2.2,7.9-8,7.9c-4.5,0-7.6-3.1-7.6-7.5c0-3.9,3.1-7.1,7.3-7.2C336.9,97,337.5,97,338,97.1z
		 M339.1,84.9c0-2.2-1.5-3.6-3.4-3.6c-2.2,0-3.8,1.7-3.8,3.8c0,2.6,1.8,3.8,3.7,3.8c1.1,0,2.2-0.5,2.9-1.2
		C338.9,86.8,339.1,86,339.1,84.9z M337,100.3c-2.2,0-4.2,1.7-4.2,4.6c0,2.1,1.2,3.4,2.7,3.4c2.2,0,3.2-2.3,3.2-4.6
		c0-1.2-0.1-2.2-0.6-3.2C337.6,100.3,337.3,100.3,337,100.3z"/>
	<path id="XMLID_13270_" class="st2" d="M378.5,98.8c1-0.5,2.2-0.8,3.4-0.8c3.7,0,6.2,2.7,6.2,6.5c0,4.2-3.2,7.2-7.4,7.2
		c-5.2,0-8.8-3.4-8.8-9.8v-9.7c0-3.6-0.1-7-0.2-10.6l5.5-2.5h1.2V98.8z M377.9,104.3c0,3,1.2,4.3,3.5,4.3c2.1,0,3.5-1.9,3.5-4.1
		c0-2.8-1.8-3.9-3.7-3.9c-1.2,0-2.2,0.5-2.9,1.3C378,102.6,377.9,103.5,377.9,104.3z"/>
	<path id="XMLID_13291_" class="st2" d="M423.9,56.6h0.8v45.1c0,8.1-3.8,9.2-11.8,9.2h-15.2l0.5-3.5h4.3V91.6
		c-0.9,0.5-1.8,0.6-2.8,0.6c-3.3,0-6.5-2.4-6.5-6.5c0-4.7,3.5-7.3,7.5-7.3c2.5,0,8.5,1.1,8.5,9.8v19.2h1.4c5.7,0,7.7-0.4,7.7-6.2V69
		c0-2.2,0-4.6-0.2-9.9L423.9,56.6z M403.6,85.1c0-2.3-1.4-3.8-3.3-3.8c-2.2,0-3.8,1.8-3.8,3.9c0,2.7,1.8,3.9,3.6,3.9
		c1.1,0,2.2-0.5,2.9-1.2C403.4,87.1,403.6,86.1,403.6,85.1z"/>
	<path id="XMLID_13294_" class="st2" d="M417.8,69.3c0.8-2.5,2.9-2.9,3.8-2.9c2.8,0,4.4,2,4.4,4.2c0,2.5-1.8,4.4-4.5,4.4
		c-3.4,0-4.5-2.9-7.6-4.6v3.2l-1.5,1.2c-4-2.8-5.9-5.5-5.9-8.2c0-3.8,2.2-7.2,6.7-7.2c4,0,7.9,3.3,9.8,3.3c1.2,0,1.8-0.8,2.5-2.5
		l1.9,1.8c-0.6,2.3-2.3,3.5-4.4,3.5c-2.4,0-5.8-1.8-9.2-1.8c-2.8,0-4.2,1.8-4.2,3.9c0,1.3,0.8,2.7,2.3,3.8l0.1-0.1V67l1.2-1.1
		C415.2,67.2,416.2,67.9,417.8,69.3z M421.7,73c1.2,0,2.1-1,2.1-2.2c0-1.1-0.8-2.2-2.1-2.2c-1.5,0-2.5,1.5-2.2,3.1
		C420.3,72.9,421.2,73,421.7,73z"/>
	<path id="XMLID_13297_" class="st2" d="M441.9,91.4c-0.9,0.3-1.9,0.5-2.8,0.5c-3.5,0-6.6-2.2-6.6-6.3c0-4.1,3-7.1,7.2-7.1
		c5.2,0,8.8,3.2,8.8,10.2v16.7c3-3.3,6.5-5.9,10.1-7.5v-6.3c0-2.2,0-4.6-0.2-9.9l5.9-2.5h0.8v16.8c0.5,0,1-0.1,1.5-0.1
		c4.5,0,7.5,3.1,7.5,7.5c0,4.7-3.2,8.4-8.1,8.4c-4.6,0-7.6-3-7.6-8.7c0-0.3,0-0.5,0.1-1.4c-4.5,2.5-8.2,6.5-10,9.4h-6.5V91.4z
		 M442.7,85.7c0-3-1.3-4.3-3.4-4.3c-2.2,0-3.5,1.9-3.5,4c0,2.6,1.8,3.8,3.7,3.8c1,0,2.1-0.3,2.8-1C442.6,87.4,442.7,86.5,442.7,85.7
		z M465,99.5c-0.2,0.8-0.4,2.2-0.4,3.5c0,2.5,0.6,5.2,2.8,5.2c2.3,0,2.9-2.5,2.9-4.4c0-2.3-1.5-4.5-3.9-4.5
		C466.2,99.4,465.7,99.4,465,99.5z"/>
	<path id="XMLID_13301_" class="st2" d="M488.8,97.1v-5.9c-0.9,0.5-1.8,0.6-2.8,0.6c-3.3,0-6.6-2.2-6.6-6.2c0-4.5,3.5-7.1,7.5-7.1
		c2.5,0,8.5,1.1,8.5,9.8v10.5c3.6,1.5,7,3.9,10.1,6.7V91.5c0-2.2,0-4.6-0.2-9.9l5.9-2.5h0.8V111h-6.6c-2.3-3.3-6.2-6.8-9.9-8.3
		c0.1,0.4,0.1,0.8,0.1,1.2c0,2.9-2.2,7.9-8,7.9c-4.5,0-7.6-3.1-7.6-7.5c0-3.9,3.1-7.1,7.3-7.2C487.7,97,488.2,97,488.8,97.1z
		 M489.8,84.9c0-2.2-1.5-3.6-3.4-3.6c-2.2,0-3.8,1.7-3.8,3.8c0,2.6,1.8,3.8,3.7,3.8c1.1,0,2.2-0.5,2.9-1.2
		C489.7,86.8,489.8,86,489.8,84.9z M487.8,100.3c-2.2,0-4.2,1.7-4.2,4.6c0,2.1,1.2,3.4,2.7,3.4c2.2,0,3.2-2.3,3.2-4.6
		c0-1.2-0.1-2.2-0.6-3.2C488.4,100.3,488.1,100.3,487.8,100.3z"/>
	<path id="XMLID_13305_" class="st2" d="M532.4,111V90.4c0-5.5-2.9-7.8-6.4-7.8c-2.3,0-4.5,1.1-6.6,2.8l-2.1-2.9
		c2.9-2.6,6.4-4.1,9.9-4.1c6.1,0,11.7,3.8,11.7,11.3V111H532.4z"/>
	<path id="XMLID_13343_" class="st2" d="M207.1,149.1v24c0,5.4-4,8.5-9,8.5c-4.9,0-8.6-3.2-8.6-8.4v-15.9c0-3.7-1.2-6.2-4.6-6.2
		c-2.1,0-4,0.9-4.9,3.2c0.8-0.3,1.5-0.5,2.3-0.5c2.9,0,5.2,2.2,5.2,5.6c0,3.3-2.7,5.8-5.9,5.8c-4.3,0-6.5-3.3-6.5-7.3
		c0-6.2,4.9-9.7,10.9-9.7c5.2,0,9.9,3.1,9.9,8.9v17.9c0,1.8,0.4,3.5,2.5,3.5c2,0,2.4-1.9,2.4-3.6v-13.6c0-2.2,0-4.6-0.2-9.9l5.8-2.5
		H207.1z M178.8,159.1c0,2,1.2,3.7,3.2,3.7c1.7,0,2.8-1.5,2.8-3.2c0-2-1.5-3.2-3.2-3.2c-0.8,0-1.8,0.3-2.5,0.8
		C178.8,158.1,178.8,158.5,178.8,159.1z"/>
	<path id="XMLID_13346_" class="st2" d="M216.3,153.6c3.8-3.4,8.2-5.2,12.9-5.2c6.8,0,13.2,3.5,13.2,11.3v10.9
		c0,8.9-5.5,11.1-13,11.1c-7.8,0-12.2-3.2-12.2-9.5v-5.9c0-5,3-9.2,8.5-9.2c4.9,0,6.7,3.5,6.7,6.2c0,4.5-2.8,6.8-5.9,6.8
		c-0.9,0-2-0.2-2.9-0.5v3.1c0,4.4,2.2,6.1,6.2,6.1c4.1,0,6.2-1.7,6.2-6.1v-12.1c0-5.1-2.5-8.5-7.4-8.5c-3.6,0-7.2,1.5-10,4.2
		L216.3,153.6z M225.8,167.7c2.1,0,3.4-1.6,3.4-3.8c0-2.3-1.1-4.1-3.4-4.1c-2,0-2.8,1.9-2.8,4.1c0,1,0.2,2,0.5,2.9
		C224.3,167.4,225.1,167.7,225.8,167.7z"/>
	<path id="XMLID_13349_" class="st2" d="M263.7,161.8c-3.4,0-6.8-2.2-6.8-6.3c0-3.7,2.9-7,7.5-7c2.4,0,8.5,0.9,8.5,9.5v15
		c0,6-0.5,8-5.5,8H263c-4.5-6.5-11.9-14.4-16.7-17.6l2.2-3.2c5.8,4,13,11.6,16.6,16.9c1.2-0.1,1.4-0.5,1.4-3.3v-12.6
		C265.6,161.6,264.7,161.8,263.7,161.8z M267.4,155.6c0-2.2-1.1-4.2-3.4-4.2c-2.2,0-3.6,1.7-3.6,3.9c0,2.5,1.9,3.7,3.9,3.7
		c0.9,0,1.8-0.3,2.5-0.9C267.2,157.3,267.4,156.4,267.4,155.6z"/>
	<path id="XMLID_13352_" class="st3" d="M308.2,161.6c0-6.4-4.2-10-9.8-10c-6.2,0-9.7,3.8-9.7,10.7c0,2.5,0.9,5.4,1.6,7.6h0.3
		c0.5-4.5,1.4-7.8,2.8-9.9s3.7-3,5.8-3c3.5,0,6.3,2.6,6.3,6.2c0,4-2.8,6.8-6.5,6.8c-0.9,0-1.8-0.2-2.8-0.5
		c-1.5,3.7-2.2,8.4-2.2,11.5h-6.5c-0.1-2.9-1.4-5.9-2.6-9c-1.4-3.3-2.8-6.6-2.8-10.2c0-8.5,7.1-13.3,16.6-13.3
		c11.6,0,16.1,5.5,16.1,13.1V181h-6.5V161.6z M295.8,164.3c0,1.8,1.8,2.8,3.2,2.8c1.7,0,3.7-1.1,3.7-3.7c0-1.8-1.3-3.5-3.2-3.5
		C297.3,159.9,295.8,161.8,295.8,164.3z"/>
	<path id="XMLID_13355_" class="st3" d="M313.7,184.2h0.4v8.5c0,6.2-2.5,6.5-7.6,6.5h-8.2l0.3-2.4h2.8v-3.8
		c-0.7,0.4-1.5,0.5-2.2,0.5c-2.5,0-4.6-1.6-4.6-4.5c0-2.7,2-5.1,5.2-5.1c1.7,0,5.2,0.8,5.2,5.5v7.2h0.8c2.8,0,4,0,4-3.7v-7.4
		L313.7,184.2z M302,189.1c0-1.2-0.7-2.6-2.3-2.6c-1.5,0-2.5,0.9-2.5,2.5c0,1.5,1.1,2.4,2.4,2.4c0.8,0,1.6-0.3,2.2-0.9
		C301.9,190.1,302,189.5,302,189.1z"/>
	<path id="XMLID_13358_" class="st3" d="M353.1,126.6h0.8v45.1c0,8.1-3.8,9.2-11.8,9.2h-15.2l0.5-3.5h4.3v-15.9
		c-0.9,0.5-1.8,0.6-2.8,0.6c-3.3,0-6.5-2.4-6.5-6.5c0-4.7,3.5-7.3,7.5-7.3c2.5,0,8.5,1.1,8.5,9.8v19.2h1.4c5.7,0,7.7-0.4,7.7-6.2
		V139c0-2.2,0-4.6-0.2-9.9L353.1,126.6z M332.8,155.1c0-2.3-1.4-3.8-3.3-3.8c-2.2,0-3.8,1.8-3.8,3.9c0,2.7,1.8,3.9,3.6,3.9
		c1.1,0,2.2-0.5,2.9-1.2C332.6,157.1,332.8,156.1,332.8,155.1z"/>
	<path id="XMLID_13361_" class="st3" d="M363.1,153.6c3.8-3.4,8.2-5.2,12.9-5.2c6.8,0,13.2,3.5,13.2,11.3v10.9
		c0,8.9-5.5,11.1-13,11.1c-7.8,0-12.2-3.2-12.2-9.5v-5.9c0-5,3-9.2,8.5-9.2c4.9,0,6.7,3.5,6.7,6.2c0,4.5-2.8,6.8-5.9,6.8
		c-0.9,0-2-0.2-2.9-0.5v3.1c0,4.4,2.2,6.1,6.2,6.1c4.1,0,6.2-1.7,6.2-6.1v-12.1c0-5.1-2.5-8.5-7.4-8.5c-3.6,0-7.2,1.5-10,4.2
		L363.1,153.6z M372.6,167.7c2.1,0,3.4-1.6,3.4-3.8c0-2.3-1.1-4.1-3.4-4.1c-2,0-2.8,1.9-2.8,4.1c0,1,0.2,2,0.5,2.9
		C371.1,167.4,371.8,167.7,372.6,167.7z"/>
	<path id="XMLID_13364_" class="st3" d="M410.5,161.8c-3.4,0-6.8-2.2-6.8-6.3c0-3.7,2.9-7,7.5-7c2.4,0,8.5,0.9,8.5,9.5v15
		c0,6-0.5,8-5.5,8h-4.5c-4.5-6.5-11.9-14.4-16.7-17.6l2.2-3.2c5.8,4,13,11.6,16.6,16.9c1.2-0.1,1.4-0.5,1.4-3.3v-12.6
		C412.3,161.6,411.4,161.8,410.5,161.8z M414.2,155.6c0-2.2-1.1-4.2-3.4-4.2c-2.2,0-3.6,1.7-3.6,3.9c0,2.5,1.9,3.7,3.9,3.7
		c0.9,0,1.8-0.3,2.5-0.9C414,157.3,414.2,156.4,414.2,155.6z"/>
</g>
</svg>
