<!-- Generator: Adobe Illustrator 19.0.0, SVG Export Plug-In  -->
<svg version="1.1"
	 xmlns="http://www.w3.org/2000/svg" xmlns:xlink="http://www.w3.org/1999/xlink" xmlns:a="http://ns.adobe.com/AdobeSVGViewerExtensions/3.0/"
	 x="0px" y="0px" width="600px" height="251px" viewBox="0 0 600 251" style="overflow:scroll;enable-background:new 0 0 600 251;"
	 xml:space="preserve">
<style type="text/css">
	.st0{fill:#086A87;}
	.st1{fill:#FFFFFF;}
	.st2{fill:#FF6633;}
	.st3{fill:none;stroke:#FFFFFF;stroke-miterlimit:10;stroke-dasharray:3.132;}
</style>
<defs>
</defs>
<rect id="XMLID_63_" class="st0" width="600" height="251"/>
<g id="XMLID_17_">
	<path id="XMLID_61_" class="st1" d="M125.3,115.4h-10.1V76h-13v-8.4h36.1V76h-13V115.4z"/>
	<path id="XMLID_59_" class="st1" d="M178.7,115.4h-10V94c0-5.3-2-7.9-5.9-7.9c-2.8,0-4.8,0.9-6.1,2.8s-1.9,5-1.9,9.2v17.2h-10V64.5
		h10v10.4c0,0.8-0.1,2.7-0.2,5.7l-0.2,2.9h0.5c2.2-3.6,5.8-5.4,10.6-5.4c4.3,0,7.6,1.2,9.8,3.5c2.2,2.3,3.3,5.6,3.3,9.9V115.4z"/>
	<path id="XMLID_56_" class="st1" d="M205.5,116c-5.9,0-10.5-1.6-13.8-4.9c-3.3-3.2-5-7.9-5-13.8c0-6.1,1.5-10.9,4.6-14.2
		c3.1-3.3,7.3-5,12.7-5c5.2,0,9.2,1.5,12.1,4.4s4.3,7,4.3,12.2v4.8h-23.6c0.1,2.8,0.9,5,2.5,6.6c1.6,1.6,3.8,2.4,6.6,2.4
		c2.2,0,4.3-0.2,6.2-0.7s4-1.2,6.2-2.2v7.7c-1.7,0.9-3.6,1.5-5.6,1.9C210.8,115.8,208.3,116,205.5,116z M204.1,85.2
		c-2.1,0-3.8,0.7-5,2c-1.2,1.3-1.9,3.2-2.1,5.7h14c0-2.5-0.7-4.4-1.9-5.7C207.9,85.9,206.2,85.2,204.1,85.2z"/>
	<path id="XMLID_54_" class="st1" d="M285.9,115.4h-10.1V94.7h-18.9v20.6h-10.1V67.6h10.1v18.7h18.9V67.6h10.1V115.4z"/>
	<path id="XMLID_51_" class="st1" d="M296.8,69.4c0-3.2,1.8-4.9,5.4-4.9c3.6,0,5.4,1.6,5.4,4.9c0,1.5-0.5,2.8-1.4,3.6
		c-0.9,0.9-2.3,1.3-4.1,1.3C298.6,74.3,296.8,72.6,296.8,69.4z M307.2,115.4h-10V78.8h10V115.4z"/>
	<path id="XMLID_49_" class="st1" d="M343.1,104.5c0,3.8-1.3,6.6-3.9,8.6c-2.6,2-6.5,2.9-11.7,2.9c-2.7,0-4.9-0.2-6.8-0.5
		c-1.9-0.4-3.6-0.9-5.3-1.6v-8.2c1.9,0.9,3.9,1.6,6.3,2.2c2.3,0.6,4.4,0.9,6.1,0.9c3.6,0,5.4-1,5.4-3.1c0-0.8-0.2-1.4-0.7-1.9
		c-0.5-0.5-1.3-1-2.5-1.7c-1.2-0.6-2.7-1.3-4.7-2.2c-2.8-1.2-4.9-2.3-6.2-3.3c-1.3-1-2.3-2.2-2.9-3.5c-0.6-1.3-0.9-2.9-0.9-4.8
		c0-3.2,1.3-5.8,3.8-7.5c2.5-1.8,6.1-2.7,10.7-2.7c4.4,0,8.7,1,12.9,2.9l-3,7.2c-1.8-0.8-3.5-1.4-5.1-1.9c-1.6-0.5-3.2-0.8-4.9-0.8
		c-2.9,0-4.4,0.8-4.4,2.4c0,0.9,0.5,1.7,1.4,2.3c0.9,0.7,3,1.6,6.2,2.9c2.9,1.2,5,2.2,6.3,3.2c1.3,1,2.3,2.2,2.9,3.5
		S343.1,102.7,343.1,104.5z"/>
	<path id="XMLID_47_" class="st1" d="M366.3,108.1c1.7,0,3.8-0.4,6.3-1.1v7.4c-2.5,1.1-5.5,1.7-9.2,1.7c-4,0-6.9-1-8.7-3
		c-1.8-2-2.7-5-2.7-9.1V86.3h-4.8v-4.2l5.5-3.3l2.9-7.7h6.4v7.8h10.2v7.5H362v17.6c0,1.4,0.4,2.5,1.2,3.1
		C364,107.8,365,108.1,366.3,108.1z"/>
	<path id="XMLID_44_" class="st1" d="M413.3,97c0,6-1.6,10.6-4.7,14c-3.1,3.4-7.5,5-13.1,5c-3.5,0-6.6-0.8-9.3-2.3
		c-2.7-1.5-4.7-3.7-6.2-6.6s-2.2-6.2-2.2-10.1c0-6,1.6-10.6,4.7-13.9c3.1-3.3,7.5-5,13.2-5c3.5,0,6.6,0.8,9.3,2.3
		c2.7,1.5,4.7,3.7,6.2,6.6C412.5,89.9,413.3,93.2,413.3,97z M388,97c0,3.6,0.6,6.4,1.8,8.2c1.2,1.9,3.1,2.8,5.8,2.8
		c2.7,0,4.6-0.9,5.7-2.8c1.2-1.8,1.8-4.6,1.8-8.2c0-3.6-0.6-6.3-1.8-8.1c-1.2-1.8-3.1-2.7-5.8-2.7c-2.7,0-4.6,0.9-5.8,2.7
		C388.6,90.7,388,93.4,388,97z"/>
	<path id="XMLID_42_" class="st1" d="M441.9,78.1c1.4,0,2.5,0.1,3.4,0.3l-0.8,9.4c-0.8-0.2-1.8-0.3-2.9-0.3c-3.2,0-5.7,0.8-7.4,2.5
		c-1.8,1.6-2.7,3.9-2.7,6.9v18.6h-10V78.8h7.6l1.5,6.2h0.5c1.1-2,2.7-3.7,4.6-5C437.5,78.8,439.6,78.1,441.9,78.1z"/>
	<path id="XMLID_40_" class="st1" d="M446.7,78.8h10.9l6.9,20.6c0.6,1.8,1,3.9,1.2,6.3h0.2c0.2-2.2,0.7-4.4,1.4-6.3l6.8-20.6h10.7
		l-15.5,41.3c-1.4,3.8-3.4,6.7-6.1,8.6c-2.6,1.9-5.7,2.8-9.2,2.8c-1.7,0-3.4-0.2-5.1-0.6V123c1.2,0.3,2.5,0.4,3.9,0.4
		c1.8,0,3.3-0.5,4.6-1.6c1.3-1.1,2.3-2.7,3.1-4.9l0.6-1.8L446.7,78.8z"/>
	<path id="XMLID_37_" class="st1" d="M139.3,164.2c0,6-1.6,10.6-4.7,14c-3.1,3.4-7.5,5-13.1,5c-3.5,0-6.6-0.8-9.3-2.3
		c-2.7-1.5-4.7-3.7-6.2-6.6s-2.2-6.2-2.2-10.1c0-6,1.6-10.6,4.7-13.9s7.5-5,13.2-5c3.5,0,6.6,0.8,9.3,2.3c2.7,1.5,4.7,3.7,6.2,6.6
		C138.6,157.1,139.3,160.4,139.3,164.2z M114,164.2c0,3.6,0.6,6.4,1.8,8.2c1.2,1.9,3.1,2.8,5.8,2.8c2.7,0,4.6-0.9,5.7-2.8
		c1.2-1.8,1.8-4.6,1.8-8.2c0-3.6-0.6-6.3-1.8-8.1c-1.2-1.8-3.1-2.7-5.8-2.7c-2.7,0-4.6,0.9-5.8,2.7C114.6,157.9,114,160.6,114,164.2
		z"/>
	<path id="XMLID_35_" class="st1" d="M167.8,153.5h-8.6v29.1h-10v-29.1h-5.5v-4.8l5.5-2.7v-2.7c0-4.2,1-7.2,3.1-9.1s5.3-2.9,9.8-2.9
		c3.4,0,6.5,0.5,9.2,1.5l-2.6,7.3c-2-0.6-3.9-0.9-5.6-0.9c-1.4,0-2.4,0.4-3.1,1.3c-0.6,0.8-0.9,1.9-0.9,3.2v2.3h8.6V153.5z"/>
	<path id="XMLID_33_" class="st2" d="M212,142.5c-3.8,0-6.8,1.4-8.9,4.3s-3.1,6.9-3.1,12c0,10.7,4,16,12,16c3.4,0,7.4-0.8,12.2-2.5
		v8.5c-3.9,1.6-8.3,2.5-13.2,2.5c-7,0-12.3-2.1-16-6.3c-3.7-4.2-5.5-10.3-5.5-18.2c0-5,0.9-9.3,2.7-13.1c1.8-3.7,4.4-6.6,7.8-8.6
		c3.4-2,7.4-3,11.9-3c4.6,0,9.3,1.1,14,3.4l-3.3,8.2c-1.8-0.9-3.6-1.6-5.4-2.2C215.5,142.8,213.8,142.5,212,142.5z"/>
	<path id="XMLID_30_" class="st2" d="M266.9,164.2c0,6-1.6,10.6-4.7,14c-3.1,3.4-7.5,5-13.1,5c-3.5,0-6.6-0.8-9.3-2.3
		c-2.7-1.5-4.7-3.7-6.2-6.6s-2.2-6.2-2.2-10.1c0-6,1.6-10.6,4.7-13.9s7.5-5,13.2-5c3.5,0,6.6,0.8,9.3,2.3c2.7,1.5,4.7,3.7,6.2,6.6
		C266.1,157.1,266.9,160.4,266.9,164.2z M241.6,164.2c0,3.6,0.6,6.4,1.8,8.2c1.2,1.9,3.1,2.8,5.8,2.8c2.7,0,4.6-0.9,5.7-2.8
		c1.2-1.8,1.8-4.6,1.8-8.2c0-3.6-0.6-6.3-1.8-8.1c-1.2-1.8-3.1-2.7-5.8-2.7c-2.7,0-4.6,0.9-5.8,2.7
		C242.2,157.9,241.6,160.6,241.6,164.2z"/>
	<path id="XMLID_28_" class="st2" d="M301,182.6l-1.3-4.7h-0.5c-1.1,1.7-2.6,3-4.5,3.9s-4.2,1.4-6.7,1.4c-4.3,0-7.5-1.2-9.7-3.5
		c-2.2-2.3-3.3-5.6-3.3-9.9V146h10v21.4c0,2.6,0.5,4.6,1.4,5.9c0.9,1.3,2.4,2,4.5,2c2.8,0,4.8-0.9,6.1-2.8c1.2-1.9,1.9-5,1.9-9.3
		V146h10v36.6H301z"/>
	<path id="XMLID_25_" class="st2" d="M339.2,183.2c-4.3,0-7.7-1.6-10.1-4.7h-0.5c0.3,3.1,0.5,4.8,0.5,5.3v14.8h-10V146h8.1l1.4,4.7
		h0.5c2.3-3.6,5.8-5.4,10.4-5.4c4.3,0,7.7,1.7,10.1,5c2.4,3.3,3.7,8,3.7,13.9c0,3.9-0.6,7.3-1.7,10.2c-1.1,2.9-2.8,5.1-4.9,6.6
		C344.6,182.5,342.1,183.2,339.2,183.2z M336.3,153.3c-2.5,0-4.3,0.8-5.4,2.3s-1.7,4-1.8,7.5v1.1c0,3.9,0.6,6.7,1.8,8.4
		c1.2,1.7,3,2.6,5.5,2.6c4.5,0,6.7-3.7,6.7-11.1c0-3.6-0.6-6.3-1.7-8.1C340.4,154.2,338.6,153.3,336.3,153.3z"/>
	<path id="XMLID_22_" class="st2" d="M394.8,164.2c0,6-1.6,10.6-4.7,14c-3.1,3.4-7.5,5-13.1,5c-3.5,0-6.6-0.8-9.3-2.3
		c-2.7-1.5-4.7-3.7-6.2-6.6s-2.2-6.2-2.2-10.1c0-6,1.6-10.6,4.7-13.9s7.5-5,13.2-5c3.5,0,6.6,0.8,9.3,2.3c2.7,1.5,4.7,3.7,6.2,6.6
		C394.1,157.1,394.8,160.4,394.8,164.2z M369.5,164.2c0,3.6,0.6,6.4,1.8,8.2c1.2,1.9,3.1,2.8,5.8,2.8c2.7,0,4.6-0.9,5.7-2.8
		c1.2-1.8,1.8-4.6,1.8-8.2c0-3.6-0.6-6.3-1.8-8.1c-1.2-1.8-3.1-2.7-5.8-2.7c-2.7,0-4.6,0.9-5.8,2.7
		C370.1,157.9,369.5,160.6,369.5,164.2z"/>
	<path id="XMLID_20_" class="st2" d="M436.8,182.6h-10v-21.4c0-2.6-0.5-4.6-1.4-5.9c-0.9-1.3-2.4-2-4.5-2c-2.8,0-4.8,0.9-6.1,2.8
		c-1.2,1.9-1.9,5-1.9,9.3v17.2h-10V146h7.6l1.3,4.7h0.6c1.1-1.8,2.6-3.1,4.6-4s4.2-1.4,6.7-1.4c4.3,0,7.5,1.2,9.7,3.5
		s3.3,5.6,3.3,10V182.6z"/>
	<path id="XMLID_18_" class="st2" d="M472.6,171.7c0,3.8-1.3,6.6-3.9,8.6c-2.6,2-6.5,2.9-11.7,2.9c-2.7,0-4.9-0.2-6.8-0.5
		c-1.9-0.4-3.6-0.9-5.3-1.6v-8.2c1.9,0.9,3.9,1.6,6.3,2.2c2.3,0.6,4.4,0.9,6.1,0.9c3.6,0,5.4-1,5.4-3.1c0-0.8-0.2-1.4-0.7-1.9
		c-0.5-0.5-1.3-1-2.5-1.7c-1.2-0.6-2.7-1.3-4.7-2.2c-2.8-1.2-4.9-2.3-6.2-3.3s-2.3-2.2-2.9-3.5c-0.6-1.3-0.9-2.9-0.9-4.8
		c0-3.3,1.3-5.8,3.8-7.5c2.5-1.8,6.1-2.7,10.7-2.7c4.4,0,8.7,1,12.9,2.9l-3,7.2c-1.8-0.8-3.5-1.4-5.1-1.9c-1.6-0.5-3.2-0.8-4.9-0.8
		c-2.9,0-4.4,0.8-4.4,2.4c0,0.9,0.5,1.7,1.4,2.3c0.9,0.7,3,1.6,6.2,2.9c2.9,1.2,5,2.2,6.3,3.2c1.3,1,2.3,2.2,2.9,3.5
		S472.6,169.9,472.6,171.7z"/>
</g>
<circle id="XMLID_16_" class="st0" cx="82.3" cy="166.8" r="4.3"/>
<rect id="XMLID_15_" x="44.5" y="37.5" class="st3" width="496" height="187"/>
</svg>