<!-- Generator: Adobe Illustrator 19.0.0, SVG Export Plug-In  -->
<svg version="1.1"
	 xmlns="http://www.w3.org/2000/svg" xmlns:xlink="http://www.w3.org/1999/xlink" xmlns:a="http://ns.adobe.com/AdobeSVGViewerExtensions/3.0/"
	 x="0px" y="0px" width="70px" height="30px" viewBox="0 0 70 30" style="enable-background:new 0 0 70 30;" xml:space="preserve">
<style type="text/css">
	.st0{fill:#FFFFFF;stroke:#086A87;stroke-width:2;stroke-miterlimit:10;}
	.st1{fill:#086A87;}
</style>
<defs>
</defs>
<rect x="1" y="1" class="st0" width="68" height="28"/>
<g>
	<g>
		<path class="st1" d="M22.6,18.3h-2v-5.4l0-0.9l0-1c-0.3,0.3-0.6,0.5-0.7,0.6l-1.1,0.9L18,11.4L21,9h1.6V18.3z"/>
		<path class="st1" d="M28.4,8.9c0.9,0,1.6,0.2,2.1,0.6c0.5,0.4,0.8,0.9,0.8,1.6c0,0.5-0.1,0.9-0.4,1.3c-0.3,0.4-0.7,0.7-1.3,1
			c0.7,0.4,1.2,0.8,1.5,1.2c0.3,0.4,0.5,0.8,0.5,1.3c0,0.8-0.3,1.4-0.9,1.8c-0.6,0.5-1.4,0.7-2.4,0.7c-1,0-1.8-0.2-2.4-0.6
			s-0.9-1-0.9-1.8c0-0.5,0.1-1,0.4-1.4c0.3-0.4,0.7-0.8,1.4-1.1c-0.5-0.3-0.9-0.7-1.1-1.1c-0.2-0.4-0.3-0.8-0.3-1.3
			c0-0.7,0.3-1.2,0.8-1.6S27.5,8.9,28.4,8.9z M26.9,15.8c0,0.4,0.1,0.6,0.4,0.9s0.6,0.3,1,0.3c0.5,0,0.9-0.1,1.1-0.3
			c0.2-0.2,0.4-0.5,0.4-0.8c0-0.3-0.1-0.5-0.4-0.8c-0.2-0.2-0.6-0.5-1.2-0.8C27.4,14.7,26.9,15.2,26.9,15.8z M28.3,10.3
			c-0.3,0-0.6,0.1-0.8,0.3c-0.2,0.2-0.3,0.4-0.3,0.7c0,0.3,0.1,0.5,0.2,0.7c0.2,0.2,0.5,0.4,0.9,0.6c0.4-0.2,0.7-0.4,0.9-0.6
			s0.2-0.4,0.2-0.7c0-0.3-0.1-0.5-0.3-0.7C28.9,10.4,28.7,10.3,28.3,10.3z"/>
		<path class="st1" d="M35.8,8.9c0.9,0,1.6,0.2,2.1,0.6c0.5,0.4,0.8,0.9,0.8,1.6c0,0.5-0.1,0.9-0.4,1.3c-0.3,0.4-0.7,0.7-1.3,1
			c0.7,0.4,1.2,0.8,1.5,1.2c0.3,0.4,0.5,0.8,0.5,1.3c0,0.8-0.3,1.4-0.9,1.8c-0.6,0.5-1.4,0.7-2.4,0.7c-1,0-1.8-0.2-2.4-0.6
			c-0.6-0.4-0.9-1-0.9-1.8c0-0.5,0.1-1,0.4-1.4c0.3-0.4,0.7-0.8,1.4-1.1c-0.5-0.3-0.9-0.7-1.1-1.1s-0.3-0.8-0.3-1.3
			c0-0.7,0.3-1.2,0.8-1.6C34.2,9.1,34.9,8.9,35.8,8.9z M34.3,15.8c0,0.4,0.1,0.6,0.4,0.9s0.6,0.3,1,0.3c0.5,0,0.9-0.1,1.1-0.3
			c0.2-0.2,0.4-0.5,0.4-0.8c0-0.3-0.1-0.5-0.4-0.8c-0.2-0.2-0.6-0.5-1.2-0.8C34.8,14.7,34.3,15.2,34.3,15.8z M35.8,10.3
			c-0.3,0-0.6,0.1-0.8,0.3c-0.2,0.2-0.3,0.4-0.3,0.7c0,0.3,0.1,0.5,0.2,0.7c0.2,0.2,0.5,0.4,0.9,0.6c0.4-0.2,0.7-0.4,0.9-0.6
			s0.2-0.4,0.2-0.7c0-0.3-0.1-0.5-0.3-0.7S36.1,10.3,35.8,10.3z"/>
		<path class="st1" d="M46.5,13.7c0,1.6-0.3,2.8-0.8,3.6c-0.5,0.8-1.3,1.2-2.5,1.2c-1.1,0-1.9-0.4-2.4-1.2c-0.5-0.8-0.8-2-0.8-3.6
			c0-1.6,0.3-2.8,0.8-3.6c0.5-0.8,1.3-1.2,2.4-1.2c1.1,0,1.9,0.4,2.4,1.2C46.2,10.9,46.5,12.1,46.5,13.7z M41.9,13.7
			c0,1.1,0.1,2,0.3,2.4c0.2,0.5,0.5,0.7,1,0.7c0.5,0,0.8-0.2,1-0.7s0.3-1.3,0.3-2.4c0-1.1-0.1-2-0.3-2.5c-0.2-0.5-0.5-0.7-1-0.7
			c-0.5,0-0.8,0.2-1,0.7C42,11.7,41.9,12.5,41.9,13.7z"/>
		<path class="st1" d="M52.9,16.2c0,0.7-0.3,1.3-0.8,1.7c-0.5,0.4-1.3,0.6-2.3,0.6c-0.5,0-1,0-1.3-0.1c-0.4-0.1-0.7-0.2-1-0.3v-1.6
			c0.4,0.2,0.8,0.3,1.2,0.4c0.5,0.1,0.8,0.2,1.2,0.2c0.7,0,1.1-0.2,1.1-0.6c0-0.2,0-0.3-0.1-0.4c-0.1-0.1-0.3-0.2-0.5-0.3
			c-0.2-0.1-0.5-0.3-0.9-0.4c-0.5-0.2-0.9-0.4-1.2-0.6c-0.3-0.2-0.4-0.4-0.6-0.7c-0.1-0.3-0.2-0.6-0.2-0.9c0-0.6,0.2-1.1,0.7-1.5
			c0.5-0.3,1.2-0.5,2.1-0.5c0.9,0,1.7,0.2,2.5,0.6L52.2,13c-0.4-0.2-0.7-0.3-1-0.4c-0.3-0.1-0.6-0.1-0.9-0.1c-0.6,0-0.9,0.2-0.9,0.5
			c0,0.2,0.1,0.3,0.3,0.5c0.2,0.1,0.6,0.3,1.2,0.6c0.6,0.2,1,0.4,1.2,0.6c0.3,0.2,0.4,0.4,0.6,0.7C52.8,15.6,52.9,15.9,52.9,16.2z"
			/>
	</g>
</g>
</svg>