<!-- Generator: Adobe Illustrator 19.0.0, SVG Export Plug-In  -->
<svg version="1.1"
	 xmlns="http://www.w3.org/2000/svg" xmlns:xlink="http://www.w3.org/1999/xlink" xmlns:a="http://ns.adobe.com/AdobeSVGViewerExtensions/3.0/"
	 x="0px" y="0px" width="600px" height="251px" viewBox="0 0 600 251" style="enable-background:new 0 0 600 251;"
	 xml:space="preserve">
<style type="text/css">
	.st0{fill:#086A87;}
	.st1{fill:none;stroke:#FFFFFF;stroke-miterlimit:10;stroke-dasharray:3.132;}
	.st2{fill:#FFFFFF;}
	.st3{fill:#FF6633;}
</style>
<defs>
</defs>
<rect id="XMLID_82_" class="st0" width="600" height="251"/>
<rect id="XMLID_81_" x="44.5" y="21.5" class="st1" width="496" height="208"/>
<g id="XMLID_15_">
	<path id="XMLID_79_" class="st2" d="M139.6,79V41.9h7.9v30.6h15.1V79H139.6z"/>
	<path id="XMLID_75_" class="st2" d="M168,86.1c0-2.5,1.4-3.8,4.2-3.8c2.8,0,4.2,1.3,4.2,3.8c0,1.2-0.4,2.1-1.1,2.8s-1.8,1-3.1,1
		C169.4,89.9,168,88.7,168,86.1z M168.1,43.3c0-2.5,1.4-3.8,4.2-3.8c2.8,0,4.2,1.3,4.2,3.8c0,1.2-0.4,2.1-1.1,2.8
		c-0.7,0.7-1.8,1-3.2,1C169.5,47.1,168.1,45.8,168.1,43.3z M176.1,79h-7.7V50.6h7.7V79z"/>
	<path id="XMLID_73_" class="st2" d="M195.8,79.5c-8.8,0-13.3-4.8-13.3-14.5c0-4.8,1.2-8.5,3.6-11.1c2.4-2.5,5.8-3.8,10.3-3.8
		c3.3,0,6.2,0.6,8.8,1.9l-2.3,6c-1.2-0.5-2.4-0.9-3.4-1.2c-1-0.3-2.1-0.5-3.1-0.5c-4,0-6,2.9-6,8.6c0,5.6,2,8.3,6,8.3
		c1.5,0,2.9-0.2,4.1-0.6c1.3-0.4,2.5-1,3.8-1.9v6.6c-1.3,0.8-2.5,1.3-3.8,1.7C199.3,79.4,197.7,79.5,195.8,79.5z"/>
	<path id="XMLID_71_" class="st2" d="M237.2,79h-7.7V62.4c0-4.1-1.5-6.1-4.6-6.1c-2.2,0-3.7,0.7-4.7,2.2s-1.4,3.9-1.4,7.2V79H211
		V39.5h7.7v8c0,0.6-0.1,2.1-0.2,4.4l-0.2,2.3h0.4c1.7-2.8,4.5-4.2,8.2-4.2c3.3,0,5.9,0.9,7.6,2.7c1.7,1.8,2.6,4.4,2.6,7.7V79z"/>
	<path id="XMLID_69_" class="st2" d="M278.5,70.6c0,2.9-1,5.1-3,6.7c-2,1.5-5,2.3-9.1,2.3c-2.1,0-3.8-0.1-5.3-0.4
		c-1.5-0.3-2.8-0.7-4.1-1.2v-6.4c1.4,0.7,3.1,1.2,4.9,1.7s3.4,0.7,4.8,0.7c2.8,0,4.2-0.8,4.2-2.4c0-0.6-0.2-1.1-0.6-1.5
		c-0.4-0.4-1-0.8-1.9-1.3s-2.1-1-3.7-1.7c-2.2-0.9-3.8-1.8-4.8-2.5c-1-0.8-1.8-1.7-2.2-2.7c-0.5-1-0.7-2.2-0.7-3.7
		c0-2.5,1-4.5,2.9-5.9c2-1.4,4.7-2.1,8.3-2.1c3.4,0,6.7,0.7,10,2.2l-2.3,5.6c-1.4-0.6-2.8-1.1-4-1.5c-1.2-0.4-2.5-0.6-3.8-0.6
		c-2.3,0-3.4,0.6-3.4,1.9c0,0.7,0.4,1.3,1.1,1.8s2.3,1.3,4.8,2.3c2.2,0.9,3.8,1.7,4.9,2.5c1,0.8,1.8,1.7,2.3,2.7
		C278.2,68,278.5,69.2,278.5,70.6z"/>
	<path id="XMLID_66_" class="st2" d="M304.6,79l-1-3.6h-0.5c-0.8,1.3-2,2.3-3.5,3c-1.5,0.7-3.2,1.1-5.2,1.1c-3.3,0-5.8-0.9-7.5-2.7
		c-1.7-1.8-2.5-4.4-2.5-7.7V50.6h7.7v16.6c0,2,0.4,3.6,1.1,4.6c0.7,1,1.9,1.5,3.5,1.5c2.2,0,3.7-0.7,4.7-2.2s1.4-3.8,1.4-7.2V50.6
		h7.7v3c1.2-0.4,2.1-1.2,2.8-2.4s1-2.8,1-4.8h7.6l0.4,0.6c-0.5,2.6-1.3,4.7-2.2,6.1s-2.1,2.6-3.7,3.4s-3.5,1.5-5.9,1.8V79H304.6z
		 M304,41.2c0,2.6-1.4,4.3-4.1,5l-0.3,1.8h-4.4l-0.6-3.7c1.3-0.2,2.1-0.5,2.6-1s0.7-1,0.7-1.6c0-0.5-0.2-1-0.5-1.2
		c-0.4-0.3-0.8-0.4-1.4-0.4c-1.1,0-2.3,0.2-3.5,0.6v-4.3c0.5-0.2,1.2-0.3,2.1-0.4c0.9-0.1,1.7-0.2,2.4-0.2c2.4,0,4.1,0.5,5.3,1.4
		C303.4,38.2,304,39.5,304,41.2z"/>
	<path id="XMLID_63_" class="st2" d="M353.1,79.5c-3.3,0-6-1.2-7.8-3.6h-0.4c0.3,2.4,0.4,3.7,0.4,4.1v11.5h-7.7V50.6h6.3l1.1,3.7
		h0.4c1.8-2.8,4.5-4.2,8-4.2c3.4,0,6,1.3,7.9,3.9c1.9,2.6,2.8,6.2,2.8,10.8c0,3-0.4,5.7-1.3,7.9s-2.2,3.9-3.8,5.1
		C357.3,78.9,355.3,79.5,353.1,79.5z M350.8,56.3c-1.9,0-3.3,0.6-4.2,1.8c-0.9,1.2-1.3,3.1-1.4,5.8v0.8c0,3,0.5,5.2,1.4,6.6
		c0.9,1.3,2.3,2,4.3,2c3.5,0,5.2-2.9,5.2-8.6c0-2.8-0.4-4.9-1.3-6.3C354,57,352.7,56.3,350.8,56.3z"/>
	<path id="XMLID_61_" class="st2" d="M396.7,79h-7.7V62.4c0-4.1-1.5-6.1-4.6-6.1c-2.2,0-3.7,0.7-4.7,2.2s-1.4,3.9-1.4,7.2V79h-7.7
		V39.5h7.7v8c0,0.6-0.1,2.1-0.2,4.4l-0.2,2.3h0.4c1.7-2.8,4.5-4.2,8.2-4.2c3.3,0,5.9,0.9,7.6,2.7c1.7,1.8,2.6,4.4,2.6,7.7V79z"/>
	<path id="XMLID_57_" class="st2" d="M422.7,79l-1.5-3.9H421c-1.3,1.6-2.6,2.8-4,3.4c-1.4,0.6-3.2,1-5.4,1c-2.7,0-4.9-0.8-6.4-2.3
		c-1.6-1.6-2.3-3.8-2.3-6.7c0-3,1.1-5.2,3.2-6.7c2.1-1.4,5.3-2.2,9.5-2.4l4.9-0.2v-1.2c0-2.9-1.5-4.3-4.4-4.3c-2.3,0-4.9,0.7-8,2.1
		l-2.6-5.2c3.3-1.7,6.9-2.6,10.9-2.6c3.8,0,6.7,0.8,8.8,2.5c2,1.7,3,4.2,3,7.6V79H422.7z M420.4,65.8l-3,0.1c-2.3,0.1-3.9,0.5-5,1.2
		c-1.1,0.7-1.7,1.9-1.7,3.4c0,2.2,1.3,3.3,3.8,3.3c1.8,0,3.2-0.5,4.3-1.5c1.1-1,1.6-2.4,1.6-4.1V65.8z M411.8,47.5v-0.7
		c2.9-3.4,4.9-5.9,6-7.6h8.7v0.5c-0.9,0.9-2.4,2.2-4.5,3.9c-2.1,1.7-3.8,3-5,3.9H411.8z"/>
	<path id="XMLID_55_" class="st2" d="M448,73.3c1.4,0,3-0.3,4.9-0.9v5.8c-1.9,0.9-4.3,1.3-7.1,1.3c-3.1,0-5.4-0.8-6.8-2.3
		c-1.4-1.6-2.1-3.9-2.1-7V56.4h-3.7v-3.3l4.3-2.6l2.2-6h5v6h7.9v5.8h-7.9v13.7c0,1.1,0.3,1.9,0.9,2.4C446.2,73.1,447,73.3,448,73.3z
		"/>
	<path id="XMLID_53_" class="st2" d="M201.1,135.7c1.4,0,3-0.3,4.9-0.9v5.8c-1.9,0.9-4.3,1.3-7.1,1.3c-3.1,0-5.4-0.8-6.8-2.3
		c-1.4-1.6-2.1-3.9-2.1-7v-13.7h-3.7v-3.3l4.3-2.6l2.2-6h5v6h7.9v5.8h-7.9v13.7c0,1.1,0.3,1.9,0.9,2.4
		C199.3,135.5,200.1,135.7,201.1,135.7z"/>
	<path id="XMLID_51_" class="st2" d="M227.6,112.5c1,0,1.9,0.1,2.6,0.2l-0.6,7.3c-0.6-0.2-1.4-0.3-2.3-0.3c-2.5,0-4.4,0.6-5.8,1.9
		c-1.4,1.3-2.1,3-2.1,5.3v14.4h-7.7V113h5.9l1.1,4.8h0.4c0.9-1.6,2.1-2.9,3.6-3.8C224.2,113,225.8,112.5,227.6,112.5z"/>
	<path id="XMLID_48_" class="st2" d="M235,105.7c0-2.5,1.4-3.8,4.2-3.8c2.8,0,4.2,1.3,4.2,3.8c0,1.2-0.4,2.1-1.1,2.8
		c-0.7,0.7-1.8,1-3.2,1C236.4,109.5,235,108.2,235,105.7z M243.1,141.4h-7.7V113h7.7V141.4z"/>
	<path id="XMLID_43_" class="st2" d="M264.1,141.9c-4.6,0-8.1-1.3-10.7-3.8c-2.6-2.5-3.9-6.1-3.9-10.7c0-4.8,1.2-8.4,3.6-11
		c2.4-2.6,5.7-3.9,9.9-3.9c4,0,7.1,1.1,9.4,3.4s3.4,5.4,3.4,9.5v3.8h-18.3c0.1,2.2,0.7,3.9,2,5.2c1.2,1.2,2.9,1.9,5.1,1.9
		c1.7,0,3.3-0.2,4.8-0.5s3.1-0.9,4.8-1.7v6c-1.4,0.7-2.8,1.2-4.3,1.5C268.2,141.7,266.3,141.9,264.1,141.9z M272.4,109.9h-4.1
		c-1.9-1.3-3.7-2.7-5.4-4.2c-1.9,1.7-3.7,3.1-5.4,4.2h-4.1v-0.7c1.9-2.2,3.7-4.6,5.5-7.1h8c0.9,1.3,1.9,2.7,3.1,4.2s2,2.4,2.4,3
		V109.9z M263,118c-1.6,0-2.9,0.5-3.9,1.6c-0.9,1-1.5,2.5-1.6,4.4h10.9c0-1.9-0.5-3.4-1.5-4.4S264.6,118,263,118z M277.5,100
		c0,1.9-1.1,3.1-3.2,3.5l-0.2,1.5h-3.2l-0.3-2.9c0.9,0,1.7-0.2,2.2-0.4c0.6-0.3,0.8-0.6,0.8-1.1c0-0.4-0.2-0.7-0.5-0.9
		c-0.3-0.3-0.8-0.4-1.6-0.4c-0.6,0-1.2,0.1-1.8,0.3v-3.2c0.4-0.1,1.2-0.2,2.3-0.2c1.6,0,2.9,0.3,3.8,0.9
		C277,97.6,277.5,98.6,277.5,100z"/>
	<path id="XMLID_41_" class="st2" d="M308.2,141.4h-7.7v-16.6c0-2-0.4-3.6-1.1-4.6c-0.7-1-1.9-1.5-3.5-1.5c-2.2,0-3.7,0.7-4.7,2.2
		s-1.4,3.8-1.4,7.2v13.4h-7.7V113h5.9l1,3.6h0.4c0.9-1.4,2.1-2.4,3.6-3.1c1.5-0.7,3.2-1.1,5.2-1.1c3.3,0,5.8,0.9,7.5,2.7
		c1.7,1.8,2.6,4.4,2.6,7.7V141.4z"/>
	<path id="XMLID_39_" class="st2" d="M341.2,141.9c-8.8,0-13.3-4.8-13.3-14.5c0-4.8,1.2-8.5,3.6-11.1c2.4-2.5,5.8-3.8,10.3-3.8
		c3.3,0,6.2,0.6,8.8,1.9l-2.3,6c-1.2-0.5-2.4-0.9-3.4-1.2c-1-0.3-2.1-0.5-3.1-0.5c-4,0-6,2.9-6,8.6c0,5.6,2,8.3,6,8.3
		c1.5,0,2.9-0.2,4.1-0.6c1.3-0.4,2.5-1,3.8-1.9v6.6c-1.3,0.8-2.5,1.3-3.8,1.7C344.7,141.8,343.1,141.9,341.2,141.9z"/>
	<path id="XMLID_36_" class="st2" d="M376.5,141.4l-1-3.6H375c-0.8,1.3-2,2.3-3.5,3.1s-3.3,1.1-5.2,1.1c-3.3,0-5.8-0.9-7.5-2.7
		c-1.7-1.8-2.5-4.4-2.5-7.7V113h7.7v16.6c0,2,0.4,3.6,1.1,4.6c0.7,1,1.9,1.5,3.5,1.5c2.2,0,3.7-0.7,4.7-2.2s1.4-3.8,1.4-7.2V113h7.7
		v28.4H376.5z M375.7,103.6c0,2.6-1.4,4.3-4.1,5l-0.3,1.8h-4.4l-0.6-3.7c1.3-0.2,2.1-0.5,2.6-1s0.7-1,0.7-1.6c0-0.5-0.2-1-0.5-1.2
		c-0.4-0.3-0.8-0.4-1.4-0.4c-1.1,0-2.3,0.2-3.5,0.6v-4.3c0.5-0.2,1.2-0.3,2.1-0.4c0.9-0.1,1.7-0.2,2.4-0.2c2.4,0,4.1,0.5,5.3,1.4
		C375.1,100.6,375.7,101.9,375.7,103.6z"/>
	<path id="XMLID_33_" class="st2" d="M408.6,141.4l-1.5-3.9h-0.2c-1.3,1.6-2.6,2.8-4,3.4c-1.4,0.6-3.2,1-5.4,1
		c-2.7,0-4.9-0.8-6.4-2.3c-1.6-1.6-2.3-3.8-2.3-6.7c0-3,1.1-5.2,3.2-6.7c2.1-1.4,5.3-2.2,9.5-2.4l4.9-0.2v-1.2
		c0-2.9-1.5-4.3-4.4-4.3c-2.3,0-4.9,0.7-8,2.1l-2.6-5.2c3.3-1.7,6.9-2.6,10.9-2.6c3.8,0,6.7,0.8,8.8,2.5c2,1.7,3,4.2,3,7.6v18.9
		H408.6z M406.3,128.2l-3,0.1c-2.3,0.1-3.9,0.5-5,1.2c-1.1,0.7-1.7,1.9-1.7,3.4c0,2.2,1.3,3.3,3.8,3.3c1.8,0,3.2-0.5,4.3-1.5
		c1.1-1,1.6-2.4,1.6-4.1V128.2z"/>
	<path id="XMLID_31_" class="st3" d="M202.9,172.7c-3,0-5.3,1.1-6.9,3.3c-1.6,2.2-2.4,5.3-2.4,9.3c0,8.3,3.1,12.4,9.3,12.4
		c2.6,0,5.8-0.7,9.5-2v6.6c-3,1.3-6.4,1.9-10.2,1.9c-5.4,0-9.5-1.6-12.4-4.9c-2.9-3.3-4.3-8-4.3-14.1c0-3.9,0.7-7.2,2.1-10.1
		c1.4-2.9,3.4-5.1,6.1-6.7c2.6-1.5,5.7-2.3,9.3-2.3c3.6,0,7.2,0.9,10.9,2.6l-2.5,6.4c-1.4-0.7-2.8-1.2-4.2-1.7
		C205.6,172.9,204.2,172.7,202.9,172.7z"/>
	<path id="XMLID_28_" class="st3" d="M245.4,189.6c0,4.6-1.2,8.2-3.7,10.8c-2.4,2.6-5.8,3.9-10.2,3.9c-2.7,0-5.1-0.6-7.2-1.8
		s-3.7-2.9-4.8-5.1s-1.7-4.8-1.7-7.8c0-4.6,1.2-8.2,3.6-10.8c2.4-2.6,5.8-3.9,10.2-3.9c2.7,0,5.1,0.6,7.2,1.8
		c2.1,1.2,3.7,2.9,4.8,5.1C244.9,184,245.4,186.6,245.4,189.6z M225.8,189.6c0,2.8,0.5,4.9,1.4,6.4c0.9,1.4,2.4,2.2,4.5,2.2
		c2.1,0,3.6-0.7,4.5-2.1c0.9-1.4,1.4-3.6,1.4-6.4c0-2.8-0.5-4.9-1.4-6.3c-0.9-1.4-2.4-2.1-4.5-2.1c-2.1,0-3.6,0.7-4.5,2.1
		S225.8,186.7,225.8,189.6z"/>
	<path id="XMLID_26_" class="st3" d="M271.9,203.8l-1-3.6h-0.4c-0.8,1.3-2,2.3-3.5,3.1s-3.3,1.1-5.2,1.1c-3.3,0-5.8-0.9-7.5-2.7
		c-1.7-1.8-2.5-4.4-2.5-7.7v-18.5h7.7V192c0,2,0.4,3.6,1.1,4.6c0.7,1,1.9,1.5,3.5,1.5c2.2,0,3.7-0.7,4.7-2.2s1.4-3.8,1.4-7.2v-13.4
		h7.7v28.4H271.9z"/>
	<path id="XMLID_23_" class="st3" d="M301.6,204.3c-3.3,0-6-1.2-7.8-3.6h-0.4c0.3,2.4,0.4,3.7,0.4,4.1v11.5H286v-40.9h6.3l1.1,3.7
		h0.4c1.8-2.8,4.5-4.2,8-4.2c3.4,0,6,1.3,7.9,3.9c1.9,2.6,2.8,6.2,2.8,10.8c0,3-0.4,5.7-1.3,7.9s-2.2,3.9-3.8,5.1
		C305.7,203.7,303.8,204.3,301.6,204.3z M299.3,181.1c-1.9,0-3.3,0.6-4.2,1.8c-0.9,1.2-1.3,3.1-1.4,5.8v0.8c0,3,0.5,5.2,1.4,6.6
		c0.9,1.3,2.3,2,4.3,2c3.5,0,5.2-2.9,5.2-8.6c0-2.8-0.4-4.9-1.3-6.3C302.5,181.8,301.1,181.1,299.3,181.1z"/>
	<path id="XMLID_20_" class="st3" d="M344.7,189.6c0,4.6-1.2,8.2-3.7,10.8c-2.4,2.6-5.8,3.9-10.2,3.9c-2.7,0-5.1-0.6-7.2-1.8
		s-3.7-2.9-4.8-5.1s-1.7-4.8-1.7-7.8c0-4.6,1.2-8.2,3.6-10.8c2.4-2.6,5.8-3.9,10.2-3.9c2.7,0,5.1,0.6,7.2,1.8
		c2.1,1.2,3.7,2.9,4.8,5.1C344.1,184,344.7,186.6,344.7,189.6z M325.1,189.6c0,2.8,0.5,4.9,1.4,6.4c0.9,1.4,2.4,2.2,4.5,2.2
		c2.1,0,3.6-0.7,4.5-2.1c0.9-1.4,1.4-3.6,1.4-6.4c0-2.8-0.5-4.9-1.4-6.3c-0.9-1.4-2.4-2.1-4.5-2.1c-2.1,0-3.6,0.7-4.5,2.1
		S325.1,186.7,325.1,189.6z"/>
	<path id="XMLID_18_" class="st3" d="M377.3,203.8h-7.7v-16.6c0-2-0.4-3.6-1.1-4.6c-0.7-1-1.9-1.5-3.5-1.5c-2.2,0-3.7,0.7-4.7,2.2
		s-1.4,3.8-1.4,7.2v13.4h-7.7v-28.4h5.9l1,3.6h0.4c0.9-1.4,2.1-2.4,3.6-3.1c1.5-0.7,3.2-1.1,5.2-1.1c3.3,0,5.8,0.9,7.5,2.7
		c1.7,1.8,2.6,4.4,2.6,7.7V203.8z"/>
	<path id="XMLID_16_" class="st3" d="M405.1,195.4c0,2.9-1,5.1-3,6.7c-2,1.5-5,2.3-9.1,2.3c-2.1,0-3.8-0.1-5.3-0.4
		c-1.5-0.3-2.8-0.7-4.1-1.2v-6.4c1.4,0.7,3.1,1.2,4.9,1.7s3.4,0.7,4.8,0.7c2.8,0,4.2-0.8,4.2-2.4c0-0.6-0.2-1.1-0.6-1.5
		c-0.4-0.4-1-0.8-1.9-1.3s-2.1-1-3.7-1.7c-2.2-0.9-3.8-1.8-4.8-2.5c-1-0.8-1.8-1.7-2.2-2.7c-0.5-1-0.7-2.2-0.7-3.7
		c0-2.5,1-4.5,2.9-5.9c2-1.4,4.7-2.1,8.3-2.1c3.4,0,6.7,0.7,10,2.2l-2.3,5.6c-1.4-0.6-2.8-1.1-4-1.5c-1.2-0.4-2.5-0.6-3.8-0.6
		c-2.3,0-3.4,0.6-3.4,1.9c0,0.7,0.4,1.3,1.1,1.8s2.3,1.3,4.8,2.3c2.2,0.9,3.8,1.7,4.9,2.5c1,0.8,1.8,1.7,2.3,2.7
		C404.8,192.8,405.1,194,405.1,195.4z"/>
</g>
</svg>