<?xml version="1.0" encoding="utf-8"?>
<!-- Generator: Adobe Illustrator 19.0.0, SVG Export Plug-In . SVG Version: 6.00 Build 0)  -->
<svg version="1.1" id="Layer_1" xmlns="http://www.w3.org/2000/svg" xmlns:xlink="http://www.w3.org/1999/xlink" x="0px" y="0px"
	 viewBox="0 0 169.6 167.1" style="enable-background:new 0 0 169.6 167.1;" xml:space="preserve">
<style type="text/css">
	.st0{fill:#E69144;}
	.st1{fill:#FFFFFF;}
	.st2{fill:#CD202B;}
	.st3{fill:#B1B4B5;}
	.st4{fill:#404040;}
</style>
<rect id="XMLID_1096_" x="0" y="0" class="st0" width="151.7" height="167"/>
<polygon id="XMLID_2330_" class="st1" points="147.8,166.7 150,147.5 169.6,167.1 "/>
<rect id="XMLID_1302_" x="0" y="106.1" class="st1" width="151.8" height="60.7"/>
<g id="XMLID_3683_">
	<circle id="XMLID_3684_" class="st2" cx="12.3" cy="120.2" r="4"/>
	<path id="XMLID_3685_" class="st2" d="M8.3,120.2h8.1v10.1C16.4,130.3,8.3,125.4,8.3,120.2z"/>
	<circle id="XMLID_165_" class="st2" cx="20.4" cy="120.1" r="4"/>
	<path id="XMLID_164_" class="st2" d="M24.4,120.1h-8.1v10.1C16.4,130.1,24.4,125.2,24.4,120.1z"/>
</g>
<g id="XMLID_1156_">
	<path id="XMLID_3913_" class="st3" d="M77,65.6L77,65.6c-3.4,0-6.1-2.8-6.1-6.1v-37c0-3.4,2.8-6.1,6.1-6.1l0,0
		c3.4,0,6.1,2.8,6.1,6.1v37C83.1,62.9,80.3,65.6,77,65.6z"/>
	<path id="XMLID_163_" class="st1" d="M67.4,48.3L67.4,48.3c-1,0-1.8-0.8-1.8-1.8V26.3c0-1,0.8-1.8,1.8-1.8l0,0c1,0,1.8,0.8,1.8,1.8
		v20.2C69.2,47.5,68.4,48.3,67.4,48.3z"/>
	<rect id="XMLID_162_" x="65.5" y="26.3" class="st1" width="5.3" height="13.2"/>
	<path id="XMLID_161_" class="st3" d="M77,98.2L77,98.2c-3.4,0-6.1-2.7-6.1-6.1V46.8c0-3.4,2.7-6.1,6.1-6.1l0,0
		c3.4,0,6.1,2.7,6.1,6.1V92C83.1,95.4,80.3,98.2,77,98.2z"/>
	<rect id="XMLID_1176_" x="70.8" y="39.5" class="st1" width="12.3" height="17.6"/>
	<rect id="XMLID_1172_" x="73" y="11.4" class="st3" width="8" height="11.5"/>
	<circle id="XMLID_3914_" class="st3" cx="77" cy="12.9" r="4"/>
</g>
<g id="XMLID_49_">
	<g id="XMLID_850_">
		<path id="XMLID_919_" class="st4" d="M42.2,125.1l-0.7-2.4h-3.6l-0.7,2.4h-2.3l3.5-10H41l3.5,10H42.2z M41,121
			c-0.7-2.2-1-3.4-1.1-3.7c-0.1-0.3-0.1-0.5-0.2-0.7c-0.2,0.6-0.6,2-1.3,4.3H41z"/>
		<path id="XMLID_917_" class="st4" d="M47.7,125.1h-2.1v-10.6h2.1V125.1z"/>
		<path id="XMLID_914_" class="st4" d="M54.8,125.1l-0.4-1h-0.1c-0.4,0.4-0.7,0.7-1.1,0.9s-0.9,0.3-1.5,0.3c-0.7,0-1.3-0.2-1.7-0.6
			c-0.4-0.4-0.6-1-0.6-1.8c0-0.8,0.3-1.4,0.9-1.8c0.6-0.4,1.4-0.6,2.6-0.6l1.3,0v-0.3c0-0.8-0.4-1.2-1.2-1.2c-0.6,0-1.3,0.2-2.2,0.6
			l-0.7-1.4c0.9-0.5,1.9-0.7,2.9-0.7c1,0,1.8,0.2,2.4,0.7c0.5,0.4,0.8,1.1,0.8,2v5.1H54.8z M54.1,121.6l-0.8,0
			c-0.6,0-1.1,0.1-1.4,0.3c-0.3,0.2-0.4,0.5-0.4,0.9c0,0.6,0.3,0.9,1,0.9c0.5,0,0.9-0.1,1.2-0.4c0.3-0.3,0.4-0.6,0.4-1.1V121.6z"/>
		<path id="XMLID_912_" class="st4" d="M61.6,123.6c0.4,0,0.8-0.1,1.3-0.2v1.6c-0.5,0.2-1.2,0.3-1.9,0.3c-0.8,0-1.4-0.2-1.8-0.6
			c-0.4-0.4-0.6-1.1-0.6-1.9v-3.7h-1v-0.9l1.1-0.7l0.6-1.6h1.3v1.6h2.1v1.6h-2.1v3.7c0,0.3,0.1,0.5,0.2,0.7
			C61.1,123.5,61.3,123.6,61.6,123.6z"/>
		<path id="XMLID_910_" class="st4" d="M72.1,125.1H70v-8.2h-2.7v-1.8h7.5v1.8h-2.7V125.1z"/>
		<path id="XMLID_908_" class="st4" d="M81.2,125.1l-0.3-1h-0.1c-0.2,0.4-0.5,0.6-1,0.8c-0.4,0.2-0.9,0.3-1.4,0.3
			c-0.9,0-1.6-0.2-2-0.7c-0.5-0.5-0.7-1.2-0.7-2.1v-5h2.1v4.5c0,0.6,0.1,1,0.3,1.2c0.2,0.3,0.5,0.4,0.9,0.4c0.6,0,1-0.2,1.3-0.6
			s0.4-1,0.4-1.9v-3.6h2.1v7.6H81.2z"/>
		<path id="XMLID_906_" class="st4" d="M87.1,125.1H85v-10.6h2.1V125.1z"/>
		<path id="XMLID_903_" class="st4" d="M89.2,115.5c0-0.7,0.4-1,1.1-1c0.8,0,1.1,0.3,1.1,1c0,0.3-0.1,0.6-0.3,0.8
			c-0.2,0.2-0.5,0.3-0.9,0.3C89.6,116.6,89.2,116.2,89.2,115.5z M91.4,125.1h-2.1v-7.6h2.1V125.1z"/>
		<path id="XMLID_901_" class="st4" d="M98.9,122.9c0,0.8-0.3,1.4-0.8,1.8s-1.4,0.6-2.4,0.6c-0.6,0-1,0-1.4-0.1
			c-0.4-0.1-0.8-0.2-1.1-0.3v-1.7c0.4,0.2,0.8,0.3,1.3,0.5s0.9,0.2,1.3,0.2c0.8,0,1.1-0.2,1.1-0.7c0-0.2-0.1-0.3-0.2-0.4
			c-0.1-0.1-0.3-0.2-0.5-0.3s-0.6-0.3-1-0.5c-0.6-0.2-1-0.5-1.3-0.7c-0.3-0.2-0.5-0.5-0.6-0.7c-0.1-0.3-0.2-0.6-0.2-1
			c0-0.7,0.3-1.2,0.8-1.6c0.5-0.4,1.3-0.6,2.2-0.6c0.9,0,1.8,0.2,2.7,0.6l-0.6,1.5c-0.4-0.2-0.7-0.3-1.1-0.4c-0.3-0.1-0.7-0.2-1-0.2
			c-0.6,0-0.9,0.2-0.9,0.5c0,0.2,0.1,0.3,0.3,0.5s0.6,0.3,1.3,0.6c0.6,0.2,1,0.5,1.3,0.7c0.3,0.2,0.5,0.5,0.6,0.7
			C98.8,122.2,98.9,122.5,98.9,122.9z"/>
		<path id="XMLID_899_" class="st4" d="M41.8,139c0,0.9-0.3,1.5-0.9,2s-1.5,0.7-2.6,0.7c-1.2,0-2.1-0.2-2.7-0.5v-1.2
			c0.4,0.2,0.9,0.3,1.4,0.4c0.5,0.1,1,0.2,1.4,0.2c0.7,0,1.3-0.1,1.7-0.4s0.6-0.7,0.6-1.2c0-0.3-0.1-0.6-0.2-0.8
			c-0.1-0.2-0.4-0.4-0.7-0.6c-0.3-0.2-0.8-0.4-1.4-0.6c-0.9-0.3-1.6-0.7-1.9-1.2s-0.6-1-0.6-1.7c0-0.8,0.3-1.4,0.9-1.8
			c0.6-0.5,1.3-0.7,2.3-0.7c1,0,1.9,0.2,2.7,0.6l-0.4,1.1c-0.8-0.3-1.6-0.5-2.4-0.5c-0.6,0-1,0.1-1.4,0.4c-0.3,0.3-0.5,0.6-0.5,1.1
			c0,0.3,0.1,0.6,0.2,0.8c0.1,0.2,0.3,0.4,0.6,0.6c0.3,0.2,0.7,0.4,1.3,0.6c0.7,0.3,1.3,0.5,1.6,0.8s0.6,0.5,0.8,0.9
			C41.7,138.2,41.8,138.6,41.8,139z"/>
		<path id="XMLID_897_" class="st4" d="M44.7,134.3v4.8c0,0.6,0.1,1,0.4,1.3s0.7,0.4,1.2,0.4c0.8,0,1.3-0.2,1.7-0.6
			c0.3-0.4,0.5-1.1,0.5-2v-3.8h1.2v7.4h-1l-0.2-1h-0.1c-0.2,0.4-0.5,0.6-0.9,0.8s-0.9,0.3-1.4,0.3c-0.9,0-1.6-0.2-2-0.6
			s-0.7-1.1-0.7-2v-4.8H44.7z"/>
		<path id="XMLID_895_" class="st4" d="M53.3,137.9l0.4-0.5l0.5-0.6l2.4-2.5H58l-3,3.2l3.2,4.2h-1.5l-2.6-3.4l-0.8,0.7v2.7h-1.2
			v-10.5h1.2v5.5V137.9L53.3,137.9z"/>
		<path id="XMLID_893_" class="st4" d="M64.3,139.6c0,0.7-0.3,1.2-0.8,1.6c-0.5,0.4-1.2,0.6-2.2,0.6c-1,0-1.7-0.2-2.3-0.5v-1.1
			c0.8,0.4,1.6,0.6,2.3,0.6c0.6,0,1.1-0.1,1.3-0.3c0.3-0.2,0.4-0.5,0.4-0.8c0-0.3-0.1-0.5-0.4-0.7c-0.3-0.2-0.7-0.4-1.4-0.7
			c-0.7-0.3-1.2-0.5-1.5-0.7s-0.5-0.4-0.6-0.6c-0.1-0.2-0.2-0.5-0.2-0.9c0-0.6,0.2-1.1,0.7-1.4c0.5-0.3,1.2-0.5,2-0.5
			c0.8,0,1.6,0.2,2.4,0.5l-0.4,1c-0.7-0.3-1.4-0.5-2-0.5c-0.5,0-0.9,0.1-1.1,0.2s-0.4,0.4-0.4,0.7c0,0.3,0.1,0.5,0.3,0.7
			c0.2,0.2,0.7,0.4,1.6,0.7c0.6,0.2,1.1,0.4,1.4,0.6c0.3,0.2,0.5,0.4,0.6,0.7C64.2,139,64.3,139.3,64.3,139.6z"/>
		<path id="XMLID_890_" class="st4" d="M69.2,141.8c-1.1,0-2-0.3-2.6-1s-0.9-1.6-0.9-2.8c0-1.2,0.3-2.1,0.9-2.8
			c0.6-0.7,1.4-1.1,2.4-1.1c0.9,0,1.7,0.3,2.2,0.9c0.6,0.6,0.8,1.4,0.8,2.4v0.7h-5.1c0,0.8,0.2,1.5,0.6,1.9s1,0.7,1.7,0.7
			c0.4,0,0.8,0,1.1-0.1s0.8-0.2,1.2-0.4v1.1c-0.4,0.2-0.8,0.3-1.1,0.4C70.1,141.8,69.7,141.8,69.2,141.8z M68.9,135.1
			c-0.6,0-1,0.2-1.4,0.6s-0.5,0.9-0.6,1.6h3.8c0-0.7-0.2-1.2-0.5-1.6S69.4,135.1,68.9,135.1z"/>
		<path id="XMLID_888_" class="st4" d="M78.6,139.6c0,0.7-0.3,1.2-0.8,1.6c-0.5,0.4-1.2,0.6-2.2,0.6c-1,0-1.7-0.2-2.3-0.5v-1.1
			c0.8,0.4,1.6,0.6,2.3,0.6c0.6,0,1.1-0.1,1.3-0.3c0.3-0.2,0.4-0.5,0.4-0.8c0-0.3-0.1-0.5-0.4-0.7c-0.3-0.2-0.7-0.4-1.4-0.7
			c-0.7-0.3-1.2-0.5-1.5-0.7s-0.5-0.4-0.6-0.6c-0.1-0.2-0.2-0.5-0.2-0.9c0-0.6,0.2-1.1,0.7-1.4c0.5-0.3,1.2-0.5,2-0.5
			c0.8,0,1.6,0.2,2.4,0.5l-0.4,1c-0.7-0.3-1.4-0.5-2-0.5c-0.5,0-0.9,0.1-1.1,0.2s-0.4,0.4-0.4,0.7c0,0.3,0.1,0.5,0.3,0.7
			s0.7,0.4,1.6,0.7c0.6,0.2,1.1,0.4,1.4,0.6c0.3,0.2,0.5,0.4,0.6,0.7C78.5,139,78.6,139.3,78.6,139.6z"/>
		<path id="XMLID_885_" class="st4" d="M86.6,141.8c-1,0-1.7-0.3-2.2-1c-0.5-0.7-0.8-1.6-0.8-2.8c0-1.2,0.3-2.1,0.8-2.8
			c0.5-0.7,1.3-1,2.2-1c1,0,1.8,0.4,2.3,1.1H89c0-0.1,0-0.3-0.1-0.5c0-0.3,0-0.5,0-0.5v-2.9h1.2v10.5h-1l-0.2-1h-0.1
			C88.4,141.4,87.6,141.8,86.6,141.8z M86.8,140.8c0.7,0,1.3-0.2,1.6-0.6c0.3-0.4,0.5-1.1,0.5-2V138c0-1-0.2-1.8-0.5-2.2
			c-0.3-0.4-0.9-0.7-1.6-0.7c-0.6,0-1.1,0.2-1.4,0.7c-0.3,0.5-0.5,1.2-0.5,2.1c0,0.9,0.2,1.6,0.5,2.1S86.2,140.8,86.8,140.8z"/>
		<path id="XMLID_882_" class="st4" d="M97,141.7l-0.2-1h-0.1c-0.4,0.5-0.7,0.8-1.1,0.9c-0.4,0.2-0.8,0.2-1.4,0.2
			c-0.7,0-1.3-0.2-1.7-0.6c-0.4-0.4-0.6-0.9-0.6-1.6c0-1.5,1.2-2.3,3.5-2.4l1.3,0v-0.4c0-0.6-0.1-1-0.4-1.2
			c-0.2-0.3-0.6-0.4-1.2-0.4c-0.4,0-0.8,0.1-1.1,0.2c-0.3,0.1-0.7,0.2-1,0.4l-0.4-0.9c0.4-0.2,0.8-0.4,1.2-0.5
			c0.4-0.1,0.9-0.2,1.3-0.2c0.9,0,1.6,0.2,2,0.6c0.4,0.4,0.7,1,0.7,1.9v5H97z M94.5,140.8c0.7,0,1.2-0.2,1.6-0.5s0.6-0.9,0.6-1.6
			v-0.7l-1.1,0c-0.8,0-1.5,0.2-1.9,0.4s-0.6,0.6-0.6,1.1c0,0.4,0.1,0.7,0.4,0.9C93.8,140.7,94.1,140.8,94.5,140.8z"/>
		<path id="XMLID_880_" class="st4" d="M101.4,141.7h-1.2v-10.5h1.2V141.7z"/>
		<path id="XMLID_877_" class="st4" d="M108.3,141.7l-0.2-1H108c-0.4,0.5-0.7,0.8-1.1,0.9c-0.4,0.2-0.8,0.2-1.4,0.2
			c-0.7,0-1.3-0.2-1.7-0.6s-0.6-0.9-0.6-1.6c0-1.5,1.2-2.3,3.5-2.4l1.3,0v-0.4c0-0.6-0.1-1-0.4-1.2c-0.2-0.3-0.6-0.4-1.2-0.4
			c-0.4,0-0.8,0.1-1.1,0.2c-0.3,0.1-0.7,0.2-1,0.4l-0.4-0.9c0.4-0.2,0.8-0.4,1.2-0.5c0.4-0.1,0.9-0.2,1.3-0.2c0.9,0,1.6,0.2,2,0.6
			c0.4,0.4,0.7,1,0.7,1.9v5H108.3z M105.8,140.8c0.7,0,1.2-0.2,1.6-0.5s0.6-0.9,0.6-1.6v-0.7l-1.1,0c-0.8,0-1.5,0.2-1.9,0.4
			c-0.4,0.2-0.6,0.6-0.6,1.1c0,0.4,0.1,0.7,0.4,0.9C105,140.7,105.4,140.8,105.8,140.8z"/>
		<path id="XMLID_875_" class="st4" d="M120.8,141.7v-4.8c0-1.2-0.5-1.7-1.5-1.7c-0.7,0-1.2,0.2-1.5,0.6c-0.3,0.4-0.5,1-0.5,1.8v4.1
			h-1.2v-4.8c0-0.6-0.1-1-0.4-1.3c-0.2-0.3-0.6-0.4-1.1-0.4c-0.7,0-1.2,0.2-1.5,0.6c-0.3,0.4-0.5,1.1-0.5,2v3.8h-1.2v-7.4h1l0.2,1
			h0.1c0.2-0.4,0.5-0.6,0.9-0.8c0.4-0.2,0.8-0.3,1.3-0.3c1.2,0,1.9,0.4,2.3,1.2h0.1c0.2-0.4,0.6-0.7,1-0.9c0.4-0.2,0.9-0.3,1.4-0.3
			c0.8,0,1.5,0.2,1.9,0.6c0.4,0.4,0.6,1.1,0.6,2.1v4.8H120.8z"/>
		<path id="XMLID_872_" class="st4" d="M39.5,158.3c-1,0-1.8-0.4-2.3-1.1h-0.1l0,0.3c0,0.3,0.1,0.7,0.1,0.9v3H36v-10.7h1l0.2,1h0.1
			c0.3-0.4,0.6-0.7,1-0.9c0.4-0.2,0.8-0.3,1.3-0.3c1,0,1.7,0.3,2.2,1c0.5,0.7,0.8,1.6,0.8,2.8c0,1.2-0.3,2.1-0.8,2.8
			C41.2,158,40.5,158.3,39.5,158.3z M39.3,151.7c-0.7,0-1.3,0.2-1.6,0.6c-0.3,0.4-0.5,1.1-0.5,1.9v0.2c0,1,0.2,1.7,0.5,2.2
			c0.3,0.4,0.9,0.7,1.6,0.7c0.6,0,1.1-0.3,1.4-0.8s0.5-1.2,0.5-2.1c0-0.9-0.2-1.6-0.5-2.1S40,151.7,39.3,151.7z"/>
		<path id="XMLID_869_" class="st4" d="M47.6,158.3c-1.1,0-2-0.3-2.6-1c-0.6-0.7-0.9-1.6-0.9-2.8c0-1.2,0.3-2.1,0.9-2.8
			c0.6-0.7,1.4-1.1,2.4-1.1c0.9,0,1.7,0.3,2.2,0.9c0.6,0.6,0.8,1.4,0.8,2.4v0.7h-5.1c0,0.8,0.2,1.5,0.6,1.9c0.4,0.4,1,0.7,1.7,0.7
			c0.4,0,0.8,0,1.1-0.1c0.4-0.1,0.8-0.2,1.2-0.4v1.1c-0.4,0.2-0.8,0.3-1.1,0.4C48.6,158.3,48.1,158.3,47.6,158.3z M47.3,151.7
			c-0.6,0-1,0.2-1.4,0.6s-0.5,0.9-0.6,1.6h3.8c0-0.7-0.2-1.2-0.5-1.6C48.3,151.8,47.9,151.7,47.3,151.7z"/>
		<path id="XMLID_867_" class="st4" d="M53.5,154.4l0.4-0.5l0.5-0.6l2.4-2.5h1.4l-3,3.2l3.2,4.2h-1.5l-2.6-3.4l-0.8,0.7v2.7h-1.2
			v-10.5h1.2v5.5V154.4L53.5,154.4z"/>
		<path id="XMLID_864_" class="st4" d="M62.6,158.3c-1.1,0-2-0.3-2.6-1c-0.6-0.7-0.9-1.6-0.9-2.8c0-1.2,0.3-2.1,0.9-2.8
			s1.4-1.1,2.4-1.1c0.9,0,1.7,0.3,2.2,0.9c0.6,0.6,0.8,1.4,0.8,2.4v0.7h-5.1c0,0.8,0.2,1.5,0.6,1.9s1,0.7,1.7,0.7
			c0.4,0,0.8,0,1.1-0.1c0.4-0.1,0.8-0.2,1.2-0.4v1.1c-0.4,0.2-0.8,0.3-1.1,0.4C63.5,158.3,63.1,158.3,62.6,158.3z M62.3,151.7
			c-0.6,0-1,0.2-1.4,0.6c-0.3,0.4-0.5,0.9-0.6,1.6h3.8c0-0.7-0.2-1.2-0.5-1.6C63.3,151.8,62.9,151.7,62.3,151.7z"/>
		<path id="XMLID_862_" class="st4" d="M70.7,150.7c0.3,0,0.6,0,0.9,0.1l-0.1,1.1c-0.3-0.1-0.5-0.1-0.8-0.1c-0.4,0-0.8,0.1-1.1,0.3
			s-0.6,0.5-0.8,0.9c-0.2,0.4-0.3,0.8-0.3,1.3v3.9h-1.2v-7.4h1l0.1,1.4h0.1c0.3-0.5,0.6-0.9,1-1.1C69.8,150.8,70.2,150.7,70.7,150.7
			z"/>
		<path id="XMLID_859_" class="st4" d="M72.1,161.5c-0.4,0-0.8-0.1-1.1-0.2v-1c0.3,0.1,0.6,0.1,0.9,0.1c0.3,0,0.6-0.1,0.8-0.3
			c0.2-0.2,0.2-0.5,0.2-0.9v-8.5h1.2v8.5c0,0.7-0.2,1.3-0.5,1.7C73.3,161.3,72.8,161.5,72.1,161.5z M72.8,148.8
			c0-0.3,0.1-0.5,0.2-0.6s0.3-0.2,0.5-0.2c0.2,0,0.4,0.1,0.5,0.2c0.1,0.1,0.2,0.3,0.2,0.6c0,0.3-0.1,0.5-0.2,0.6
			c-0.1,0.1-0.3,0.2-0.5,0.2c-0.2,0-0.4-0.1-0.5-0.2C72.9,149.3,72.8,149.1,72.8,148.8z"/>
		<path id="XMLID_856_" class="st4" d="M81,158.2l-0.2-1h-0.1c-0.4,0.5-0.7,0.8-1.1,0.9c-0.4,0.2-0.8,0.2-1.4,0.2
			c-0.7,0-1.3-0.2-1.7-0.6c-0.4-0.4-0.6-0.9-0.6-1.6c0-1.5,1.2-2.3,3.5-2.4l1.3,0v-0.4c0-0.6-0.1-1-0.4-1.2s-0.6-0.4-1.2-0.4
			c-0.4,0-0.8,0.1-1.1,0.2c-0.3,0.1-0.7,0.2-1,0.4l-0.4-0.9c0.4-0.2,0.8-0.4,1.2-0.5c0.4-0.1,0.9-0.2,1.3-0.2c0.9,0,1.6,0.2,2,0.6
			c0.4,0.4,0.7,1,0.7,1.9v5H81z M78.5,157.3c0.7,0,1.2-0.2,1.6-0.5c0.4-0.4,0.6-0.9,0.6-1.6v-0.7l-1.1,0c-0.8,0-1.5,0.2-1.9,0.4
			c-0.4,0.2-0.6,0.6-0.6,1.1c0,0.4,0.1,0.7,0.4,0.9S78.1,157.3,78.5,157.3z"/>
		<path id="XMLID_853_" class="st4" d="M88.8,158.2l-0.2-1h-0.1c-0.4,0.5-0.7,0.8-1.1,0.9c-0.4,0.2-0.8,0.2-1.4,0.2
			c-0.7,0-1.3-0.2-1.7-0.6c-0.4-0.4-0.6-0.9-0.6-1.6c0-1.5,1.2-2.3,3.5-2.4l1.3,0v-0.4c0-0.6-0.1-1-0.4-1.2
			c-0.2-0.3-0.6-0.4-1.2-0.4c-0.4,0-0.8,0.1-1.1,0.2c-0.3,0.1-0.7,0.2-1,0.4l-0.4-0.9c0.4-0.2,0.8-0.4,1.2-0.5
			c0.4-0.1,0.9-0.2,1.3-0.2c0.9,0,1.6,0.2,2,0.6c0.4,0.4,0.7,1,0.7,1.9v5H88.8z M86.3,157.3c0.7,0,1.2-0.2,1.6-0.5s0.6-0.9,0.6-1.6
			v-0.7l-1.1,0c-0.8,0-1.5,0.2-1.9,0.4c-0.4,0.2-0.6,0.6-0.6,1.1c0,0.4,0.1,0.7,0.4,0.9C85.5,157.2,85.8,157.3,86.3,157.3z"/>
		<path id="XMLID_851_" class="st4" d="M97,158.2v-4.7c0-0.6-0.1-1-0.4-1.3c-0.3-0.3-0.7-0.4-1.3-0.4c-0.8,0-1.3,0.2-1.7,0.6
			c-0.3,0.4-0.5,1.1-0.5,2v3.8h-1.2v-7.4h1l0.2,1h0.1c0.2-0.4,0.5-0.6,1-0.8s0.9-0.3,1.4-0.3c0.9,0,1.6,0.2,2,0.7
			c0.4,0.4,0.7,1.1,0.7,2v4.8H97z"/>
	</g>
</g>
</svg>
