<?xml version="1.0" encoding="utf-8"?>
<!-- Generator: Adobe Illustrator 19.0.0, SVG Export Plug-In . SVG Version: 6.00 Build 0)  -->
<svg version="1.1" id="Layer_1" xmlns="http://www.w3.org/2000/svg" xmlns:xlink="http://www.w3.org/1999/xlink" x="0px" y="0px"
	 viewBox="0 0 169 174.3" style="enable-background:new 0 0 169 174.3;" xml:space="preserve">
<style type="text/css">
	.st0{fill:#F15622;}
	.st1{fill:#010101;}
	.st2{fill:#FFFFFF;}
	.st3{fill:#EF8DB3;}
	.st4{fill:#CD202B;}
	.st5{fill:none;stroke:#F0D256;stroke-miterlimit:10;}
	.st6{fill:#750F28;}
	.st7{fill:#A01C33;}
	.st8{fill:#B77F2B;}
	.st9{fill:#F3B23E;}
	.st10{fill:#404040;}
</style>
<rect id="XMLID_3958_" x="0" y="0" class="st0" width="151.3" height="167"/>
<path id="XMLID_4186_" class="st1" d="M121.6,174.3"/>
<rect id="XMLID_3955_" x="0" y="112.2" class="st2" width="151.3" height="61.3"/>
<polygon id="XMLID_571_" class="st2" points="144.3,173.5 149.2,153.7 169,173.5 "/>
<line id="XMLID_4595_" class="st3" x1="87.1" y1="128.6" x2="89.1" y2="121.9"/>
<g id="XMLID_5486_">
	<circle id="XMLID_5487_" class="st4" cx="13.4" cy="124.7" r="4"/>
	<path id="XMLID_5488_" class="st4" d="M9.4,124.7h8.1v10.1C17.5,134.8,9.4,129.9,9.4,124.7z"/>
	<circle id="XMLID_573_" class="st4" cx="21.5" cy="124.5" r="4"/>
	<path id="XMLID_587_" class="st4" d="M25.5,124.5h-8.1v10.1C17.5,134.6,25.5,129.7,25.5,124.5z"/>
</g>
<g id="XMLID_572_">
	
		<rect id="XMLID_589_" x="45.4" y="21.2" transform="matrix(0.7071 0.7071 -0.7071 0.7071 61.1661 -39.5323)" class="st5" width="65.7" height="65.7"/>
	<rect id="XMLID_590_" x="47.5" y="26.6" class="st6" width="51.3" height="75.2"/>
	<path id="XMLID_591_" class="st7" d="M98.9,26.6H47.5l0,0c0-5.9,4.8-10.8,10.8-10.8h29.8C94.1,15.9,98.9,20.7,98.9,26.6L98.9,26.6z
		"/>
	<rect id="XMLID_592_" x="86" y="55.8" class="st8" width="28.2" height="50.9"/>
	<circle id="XMLID_5741_" class="st9" cx="100.1" cy="55.8" r="14.1"/>
	<circle id="XMLID_5742_" class="st8" cx="100.1" cy="55.8" r="10.9"/>
	<rect id="XMLID_593_" x="86" y="98.4" class="st9" width="28.2" height="3.4"/>
	<rect id="XMLID_594_" x="86" y="91.5" class="st9" width="28.2" height="3.4"/>
	<rect id="XMLID_602_" x="86" y="84.7" class="st9" width="28.2" height="3.4"/>
	<rect id="XMLID_1822_" x="86" y="77.9" class="st9" width="28.2" height="3.4"/>
	<rect id="XMLID_1821_" x="86" y="71" class="st9" width="28.2" height="3.4"/>
</g>
<g id="XMLID_49_">
	<path id="XMLID_50_" class="st10" d="M39.2,131.6l-0.7-2.4h-3.6l-0.7,2.4h-2.3l3.5-10h2.6l3.5,10H39.2z M38,127.4
		c-0.7-2.2-1-3.4-1.1-3.7c-0.1-0.3-0.1-0.5-0.2-0.7c-0.2,0.6-0.6,2-1.3,4.3H38z"/>
	<path id="XMLID_53_" class="st10" d="M49.4,131.6h-2.1v-4.5c0-0.6-0.1-1-0.3-1.2c-0.2-0.3-0.5-0.4-0.9-0.4c-0.5,0-0.9,0.2-1.2,0.6
		c-0.2,0.4-0.4,1-0.4,1.9v3.6h-2.1v-7.6h1.6l0.3,1h0.1c0.2-0.4,0.5-0.6,0.9-0.8s0.8-0.3,1.3-0.3c1.1,0,1.9,0.4,2.3,1.1h0.2
		c0.2-0.4,0.5-0.6,0.9-0.8c0.4-0.2,0.8-0.3,1.4-0.3c0.9,0,1.5,0.2,2,0.7s0.7,1.2,0.7,2.1v5h-2.1v-4.5c0-0.6-0.1-1-0.3-1.2
		c-0.2-0.3-0.5-0.4-0.9-0.4c-0.5,0-0.9,0.2-1.1,0.5c-0.3,0.4-0.4,0.9-0.4,1.7V131.6z"/>
	<path id="XMLID_55_" class="st10" d="M60.5,131.7c-0.9,0-1.6-0.3-2.1-1h-0.1c0.1,0.6,0.1,1,0.1,1.1v3.1h-2.1v-11H58l0.3,1h0.1
		c0.5-0.8,1.2-1.1,2.2-1.1c0.9,0,1.6,0.3,2.1,1s0.8,1.7,0.8,2.9c0,0.8-0.1,1.5-0.4,2.1s-0.6,1.1-1,1.4S61.1,131.7,60.5,131.7z
		 M59.9,125.5c-0.5,0-0.9,0.2-1.1,0.5c-0.2,0.3-0.4,0.8-0.4,1.6v0.2c0,0.8,0.1,1.4,0.4,1.8c0.2,0.4,0.6,0.5,1.2,0.5
		c0.9,0,1.4-0.8,1.4-2.3c0-0.8-0.1-1.3-0.3-1.7C60.8,125.6,60.4,125.5,59.9,125.5z"/>
	<path id="XMLID_58_" class="st10" d="M67.3,131.6h-2.1v-10.6h2.1V131.6z"/>
	<path id="XMLID_61_" class="st10" d="M76.4,127.7c0,1.2-0.3,2.2-1,2.9c-0.7,0.7-1.6,1.1-2.7,1.1c-0.7,0-1.4-0.2-1.9-0.5
		s-1-0.8-1.3-1.4s-0.5-1.3-0.5-2.1c0-1.2,0.3-2.2,1-2.9c0.7-0.7,1.6-1,2.7-1c0.7,0,1.4,0.2,1.9,0.5c0.6,0.3,1,0.8,1.3,1.4
		C76.2,126.2,76.4,126.9,76.4,127.7z M71.1,127.7c0,0.8,0.1,1.3,0.4,1.7c0.2,0.4,0.7,0.6,1.2,0.6c0.6,0,1-0.2,1.2-0.6
		c0.2-0.4,0.4-1,0.4-1.7c0-0.8-0.1-1.3-0.4-1.7c-0.2-0.4-0.6-0.6-1.2-0.6c-0.6,0-1,0.2-1.2,0.6S71.1,127,71.1,127.7z"/>
	<path id="XMLID_162_" class="st10" d="M82.3,131.7c-0.9,0-1.6-0.3-2.1-1h-0.1c0.1,0.6,0.1,1,0.1,1.1v3.1h-2.1v-11h1.7l0.3,1h0.1
		c0.5-0.8,1.2-1.1,2.2-1.1c0.9,0,1.6,0.3,2.1,1s0.8,1.7,0.8,2.9c0,0.8-0.1,1.5-0.4,2.1s-0.6,1.1-1,1.4S82.9,131.7,82.3,131.7z
		 M81.7,125.5c-0.5,0-0.9,0.2-1.1,0.5c-0.2,0.3-0.4,0.8-0.4,1.6v0.2c0,0.8,0.1,1.4,0.4,1.8c0.2,0.4,0.6,0.5,1.2,0.5
		c0.9,0,1.4-0.8,1.4-2.3c0-0.8-0.1-1.3-0.3-1.7C82.6,125.6,82.2,125.5,81.7,125.5z"/>
	<path id="XMLID_165_" class="st10" d="M95,131.6l-2.4-7.8h-0.1c0.1,1.6,0.1,2.7,0.1,3.2v4.6h-1.9v-10h2.9l2.4,7.6h0l2.5-7.6h2.9v10
		h-2v-4.7c0-0.2,0-0.5,0-0.8c0-0.3,0-1.1,0.1-2.3h-0.1l-2.6,7.8H95z"/>
	<path id="XMLID_168_" class="st10" d="M107.3,131.7c-1.2,0-2.2-0.3-2.9-1c-0.7-0.7-1-1.6-1-2.9c0-1.3,0.3-2.3,1-3
		c0.6-0.7,1.5-1,2.7-1c1.1,0,1.9,0.3,2.5,0.9s0.9,1.5,0.9,2.5v1h-4.9c0,0.6,0.2,1.1,0.5,1.4c0.3,0.3,0.8,0.5,1.4,0.5
		c0.5,0,0.9,0,1.3-0.1s0.8-0.2,1.3-0.5v1.6c-0.4,0.2-0.8,0.3-1.2,0.4S107.9,131.7,107.3,131.7z M107,125.3c-0.4,0-0.8,0.1-1,0.4
		s-0.4,0.7-0.4,1.2h2.9c0-0.5-0.1-0.9-0.4-1.2S107.4,125.3,107,125.3z"/>
	<path id="XMLID_171_" class="st10" d="M116.3,123.8c0.3,0,0.5,0,0.7,0.1l-0.2,2c-0.2,0-0.4-0.1-0.6-0.1c-0.7,0-1.2,0.2-1.6,0.5
		c-0.4,0.3-0.6,0.8-0.6,1.4v3.9h-2.1v-7.6h1.6l0.3,1.3h0.1c0.2-0.4,0.6-0.8,1-1C115.4,123.9,115.9,123.8,116.3,123.8z"/>
	<path id="XMLID_173_" class="st10" d="M123.2,131.6l-0.4-1h-0.1c-0.4,0.4-0.7,0.7-1.1,0.9c-0.4,0.2-0.9,0.3-1.5,0.3
		c-0.7,0-1.3-0.2-1.7-0.6c-0.4-0.4-0.6-1-0.6-1.8c0-0.8,0.3-1.4,0.9-1.8c0.6-0.4,1.4-0.6,2.6-0.6l1.3,0v-0.3c0-0.8-0.4-1.2-1.2-1.2
		c-0.6,0-1.3,0.2-2.2,0.6l-0.7-1.4c0.9-0.5,1.9-0.7,2.9-0.7c1,0,1.8,0.2,2.4,0.7c0.5,0.4,0.8,1.1,0.8,2v5.1H123.2z M122.5,128
		l-0.8,0c-0.6,0-1.1,0.1-1.4,0.3c-0.3,0.2-0.4,0.5-0.4,0.9c0,0.6,0.3,0.9,1,0.9c0.5,0,0.9-0.1,1.2-0.4c0.3-0.3,0.4-0.6,0.4-1.1V128z
		"/>
	<path id="XMLID_240_" class="st10" d="M133.8,131.6h-2.1v-4.5c0-1.1-0.4-1.7-1.2-1.7c-0.6,0-1,0.2-1.3,0.6s-0.4,1-0.4,1.9v3.6h-2.1
		v-10.6h2.1v2.2c0,0.2,0,0.6,0,1.2l0,0.6h0.1c0.5-0.7,1.2-1.1,2.2-1.1c0.9,0,1.6,0.2,2,0.7c0.5,0.5,0.7,1.2,0.7,2.1V131.6z"/>
	<path id="XMLID_242_" class="st10" d="M41.1,148.4h-1.5l-5.4-8.3h-0.1l0,0.6c0.1,0.8,0.1,1.5,0.1,2.2v5.6h-1.2v-10h1.5l0.3,0.5
		l3.3,5.1l1.7,2.7H40c0-0.1,0-0.5-0.1-1.2c0-0.7,0-1.2,0-1.5v-5.6h1.2V148.4z"/>
	<path id="XMLID_244_" class="st10" d="M48.3,148.4l-0.2-1.1H48c-0.4,0.5-0.7,0.8-1.1,1c-0.4,0.2-0.8,0.2-1.4,0.2
		c-0.7,0-1.3-0.2-1.7-0.6c-0.4-0.4-0.6-0.9-0.6-1.6c0-1.5,1.2-2.3,3.6-2.4l1.3,0v-0.4c0-0.6-0.1-1-0.4-1.3c-0.2-0.3-0.6-0.4-1.2-0.4
		c-0.4,0-0.8,0.1-1.1,0.2c-0.4,0.1-0.7,0.3-1,0.4l-0.4-0.9c0.4-0.2,0.8-0.4,1.2-0.5c0.4-0.1,0.9-0.2,1.3-0.2c0.9,0,1.6,0.2,2,0.6
		c0.4,0.4,0.7,1,0.7,1.9v5.1H48.3z M45.7,147.5c0.7,0,1.2-0.2,1.6-0.6c0.4-0.4,0.6-0.9,0.6-1.6v-0.7l-1.1,0c-0.9,0-1.5,0.2-1.9,0.4
		c-0.4,0.2-0.6,0.6-0.6,1.1c0,0.4,0.1,0.7,0.4,0.9C45,147.4,45.3,147.5,45.7,147.5z"/>
	<path id="XMLID_247_" class="st10" d="M56.4,146.3c0,0.7-0.3,1.2-0.8,1.6c-0.5,0.4-1.3,0.6-2.2,0.6c-1,0-1.8-0.2-2.4-0.5v-1.1
		c0.8,0.4,1.6,0.6,2.4,0.6c0.6,0,1.1-0.1,1.4-0.3c0.3-0.2,0.4-0.5,0.4-0.8c0-0.3-0.1-0.5-0.4-0.8c-0.3-0.2-0.8-0.4-1.4-0.7
		c-0.7-0.3-1.2-0.5-1.5-0.7c-0.3-0.2-0.5-0.4-0.6-0.7c-0.1-0.2-0.2-0.5-0.2-0.9c0-0.6,0.3-1.1,0.8-1.5s1.2-0.5,2.1-0.5
		c0.9,0,1.6,0.2,2.4,0.5l-0.4,1c-0.8-0.3-1.4-0.5-2.1-0.5c-0.5,0-0.9,0.1-1.2,0.2c-0.3,0.2-0.4,0.4-0.4,0.7c0,0.3,0.1,0.5,0.3,0.7
		c0.2,0.2,0.8,0.4,1.6,0.7c0.6,0.2,1.1,0.4,1.4,0.6c0.3,0.2,0.5,0.4,0.7,0.7C56.3,145.7,56.4,146,56.4,146.3z"/>
	<path id="XMLID_249_" class="st10" d="M58.1,138.8c0-0.3,0.1-0.5,0.2-0.6c0.1-0.1,0.3-0.2,0.5-0.2c0.2,0,0.4,0.1,0.5,0.2
		s0.2,0.3,0.2,0.6c0,0.3-0.1,0.5-0.2,0.6c-0.1,0.1-0.3,0.2-0.5,0.2c-0.2,0-0.4-0.1-0.5-0.2C58.2,139.3,58.1,139.1,58.1,138.8z
		 M59.4,148.4h-1.2v-7.5h1.2V148.4z"/>
	<path id="XMLID_252_" class="st10" d="M65.4,140.7c1,0,1.8,0.3,2.3,1c0.5,0.7,0.8,1.6,0.8,2.9c0,1.2-0.3,2.2-0.8,2.9s-1.3,1-2.3,1
		c-0.5,0-1-0.1-1.4-0.3c-0.4-0.2-0.7-0.5-1-0.8h-0.1c-0.1,0.5-0.2,0.9-0.3,1h-0.9v-10.6H63v2.6c0,0.5,0,1-0.1,1.5H63
		C63.5,141.1,64.3,140.7,65.4,140.7z M65.2,141.8c-0.8,0-1.3,0.2-1.6,0.6c-0.3,0.4-0.5,1.2-0.5,2.2v0.1c0,1,0.2,1.8,0.5,2.2
		c0.3,0.4,0.9,0.7,1.6,0.7c0.7,0,1.2-0.2,1.5-0.7c0.3-0.5,0.5-1.2,0.5-2.1c0-0.9-0.2-1.7-0.5-2.1C66.4,142,65.8,141.8,65.2,141.8z"
		/>
	<path id="XMLID_255_" class="st10" d="M74.2,138.4h2.9c1.3,0,2.3,0.2,2.9,0.6c0.6,0.4,0.9,1,0.9,1.9c0,0.6-0.2,1.1-0.5,1.5
		c-0.3,0.4-0.8,0.6-1.4,0.7v0.1c0.8,0.1,1.3,0.4,1.7,0.8c0.4,0.4,0.5,0.9,0.5,1.6c0,0.9-0.3,1.6-0.9,2.1c-0.6,0.5-1.5,0.8-2.6,0.8
		h-3.5V138.4z M75.5,142.6h1.8c0.8,0,1.4-0.1,1.7-0.4c0.4-0.3,0.5-0.7,0.5-1.3c0-0.5-0.2-0.9-0.6-1.2c-0.4-0.2-1-0.4-1.8-0.4h-1.7
		V142.6z M75.5,143.7v3.6h2c0.8,0,1.4-0.2,1.8-0.5c0.4-0.3,0.6-0.8,0.6-1.4c0-0.6-0.2-1-0.6-1.3c-0.4-0.3-1-0.4-1.8-0.4H75.5z"/>
	<path id="XMLID_259_" class="st10" d="M87.8,148.4l-0.2-1.1h-0.1c-0.4,0.5-0.7,0.8-1.1,1c-0.4,0.2-0.8,0.2-1.4,0.2
		c-0.7,0-1.3-0.2-1.7-0.6c-0.4-0.4-0.6-0.9-0.6-1.6c0-1.5,1.2-2.3,3.6-2.4l1.3,0v-0.4c0-0.6-0.1-1-0.4-1.3c-0.2-0.3-0.6-0.4-1.2-0.4
		c-0.4,0-0.8,0.1-1.1,0.2c-0.4,0.1-0.7,0.3-1,0.4l-0.4-0.9c0.4-0.2,0.8-0.4,1.2-0.5c0.4-0.1,0.9-0.2,1.3-0.2c0.9,0,1.6,0.2,2,0.6
		c0.4,0.4,0.7,1,0.7,1.9v5.1H87.8z M85.3,147.5c0.7,0,1.2-0.2,1.6-0.6c0.4-0.4,0.6-0.9,0.6-1.6v-0.7l-1.1,0c-0.9,0-1.5,0.2-1.9,0.4
		c-0.4,0.2-0.6,0.6-0.6,1.1c0,0.4,0.1,0.7,0.4,0.9C84.5,147.4,84.8,147.5,85.3,147.5z"/>
	<path id="XMLID_262_" class="st10" d="M90.9,138.8c0-0.3,0.1-0.5,0.2-0.6c0.1-0.1,0.3-0.2,0.5-0.2c0.2,0,0.4,0.1,0.5,0.2
		s0.2,0.3,0.2,0.6c0,0.3-0.1,0.5-0.2,0.6c-0.1,0.1-0.3,0.2-0.5,0.2c-0.2,0-0.4-0.1-0.5-0.2C91,139.3,90.9,139.1,90.9,138.8z
		 M92.2,148.4H91v-7.5h1.2V148.4z"/>
	<path id="XMLID_267_" class="st10" d="M95.8,144.5l0.4-0.5l0.5-0.6l2.4-2.5h1.4l-3,3.2l3.2,4.3h-1.5l-2.6-3.5l-0.9,0.7v2.8h-1.2
		v-10.6h1.2v5.6V144.5L95.8,144.5z"/>
	<path id="XMLID_269_" class="st10" d="M108.4,148.5c-1,0-1.7-0.3-2.3-1c-0.5-0.7-0.8-1.6-0.8-2.9c0-1.2,0.3-2.2,0.8-2.9
		c0.5-0.7,1.3-1,2.3-1c1,0,1.8,0.4,2.3,1.1h0.1c0-0.1,0-0.3-0.1-0.5c0-0.3,0-0.5,0-0.6v-3h1.2v10.6h-1l-0.2-1h-0.1
		C110.2,148.1,109.4,148.5,108.4,148.5z M108.6,147.5c0.7,0,1.3-0.2,1.6-0.6c0.3-0.4,0.5-1.1,0.5-2v-0.2c0-1-0.2-1.8-0.5-2.2
		s-0.9-0.7-1.6-0.7c-0.6,0-1.1,0.3-1.5,0.8c-0.3,0.5-0.5,1.2-0.5,2.2c0,0.9,0.2,1.6,0.5,2.1C107.5,147.3,108,147.5,108.6,147.5z"/>
	<path id="XMLID_272_" class="st10" d="M119,148.4l-0.2-1.1h-0.1c-0.4,0.5-0.7,0.8-1.1,1c-0.4,0.2-0.8,0.2-1.4,0.2
		c-0.7,0-1.3-0.2-1.7-0.6c-0.4-0.4-0.6-0.9-0.6-1.6c0-1.5,1.2-2.3,3.6-2.4l1.3,0v-0.4c0-0.6-0.1-1-0.4-1.3c-0.2-0.3-0.6-0.4-1.2-0.4
		c-0.4,0-0.8,0.1-1.1,0.2c-0.4,0.1-0.7,0.3-1,0.4l-0.4-0.9c0.4-0.2,0.8-0.4,1.2-0.5c0.4-0.1,0.9-0.2,1.3-0.2c0.9,0,1.6,0.2,2,0.6
		c0.4,0.4,0.7,1,0.7,1.9v5.1H119z M116.5,147.5c0.7,0,1.2-0.2,1.6-0.6c0.4-0.4,0.6-0.9,0.6-1.6v-0.7l-1.1,0c-0.9,0-1.5,0.2-1.9,0.4
		c-0.4,0.2-0.6,0.6-0.6,1.1c0,0.4,0.1,0.7,0.4,0.9C115.7,147.4,116,147.5,116.5,147.5z"/>
	<path id="XMLID_275_" class="st10" d="M127.3,148.4v-4.8c0-0.6-0.1-1.1-0.4-1.4c-0.3-0.3-0.7-0.4-1.3-0.4c-0.8,0-1.3,0.2-1.7,0.6
		c-0.3,0.4-0.5,1.1-0.5,2.1v3.9h-1.2v-7.5h1l0.2,1h0.1c0.2-0.4,0.6-0.7,1-0.9c0.4-0.2,0.9-0.3,1.4-0.3c0.9,0,1.6,0.2,2.1,0.7
		c0.4,0.4,0.7,1.1,0.7,2.1v4.9H127.3z"/>
	<path id="XMLID_277_" class="st10" d="M40.5,165.2H39l-3.5-4.8l-1,0.9v3.9h-1.3v-10h1.3v4.9l0.9-1l3.6-4h1.5l-4,4.4L40.5,165.2z"/>
	<path id="XMLID_279_" class="st10" d="M44.9,165.3c-1.1,0-2-0.3-2.6-1c-0.6-0.7-1-1.6-1-2.8c0-1.2,0.3-2.2,0.9-2.9
		c0.6-0.7,1.4-1.1,2.4-1.1c0.9,0,1.7,0.3,2.3,0.9s0.8,1.4,0.8,2.5v0.7h-5.1c0,0.9,0.2,1.5,0.6,1.9c0.4,0.4,1,0.7,1.7,0.7
		c0.4,0,0.8,0,1.1-0.1c0.4-0.1,0.8-0.2,1.3-0.4v1.1c-0.4,0.2-0.8,0.3-1.2,0.4C45.8,165.3,45.4,165.3,44.9,165.3z M44.6,158.5
		c-0.6,0-1.1,0.2-1.4,0.6c-0.3,0.4-0.5,0.9-0.6,1.6h3.8c0-0.7-0.2-1.2-0.5-1.6C45.6,158.7,45.1,158.5,44.6,158.5z"/>
	<path id="XMLID_282_" class="st10" d="M59.1,165.2v-4.8c0-1.2-0.5-1.8-1.5-1.8c-0.7,0-1.2,0.2-1.5,0.6c-0.3,0.4-0.5,1-0.5,1.9v4.1
		h-1.2v-4.8c0-0.6-0.1-1-0.4-1.3c-0.2-0.3-0.6-0.4-1.2-0.4c-0.7,0-1.2,0.2-1.5,0.6s-0.5,1.1-0.5,2.1v3.9h-1.2v-7.5h1l0.2,1h0.1
		c0.2-0.4,0.5-0.6,0.9-0.9s0.8-0.3,1.3-0.3c1.2,0,1.9,0.4,2.3,1.3h0.1c0.2-0.4,0.6-0.7,1-0.9s0.9-0.3,1.4-0.3c0.8,0,1.5,0.2,1.9,0.7
		c0.4,0.4,0.6,1.1,0.6,2.1v4.9H59.1z"/>
	<path id="XMLID_284_" class="st10" d="M67.3,165.2l-0.2-1.1H67c-0.4,0.5-0.7,0.8-1.1,1c-0.4,0.2-0.8,0.3-1.4,0.3
		c-0.7,0-1.3-0.2-1.7-0.6c-0.4-0.4-0.6-0.9-0.6-1.6c0-1.5,1.2-2.3,3.6-2.4l1.3,0v-0.4c0-0.6-0.1-1-0.4-1.3c-0.2-0.3-0.6-0.4-1.2-0.4
		c-0.4,0-0.8,0.1-1.1,0.2c-0.4,0.1-0.7,0.3-1,0.4l-0.4-0.9c0.4-0.2,0.8-0.4,1.2-0.5c0.4-0.1,0.9-0.2,1.3-0.2c0.9,0,1.6,0.2,2,0.6
		c0.4,0.4,0.7,1,0.7,1.9v5.1H67.3z M64.8,164.3c0.7,0,1.2-0.2,1.6-0.6c0.4-0.4,0.6-0.9,0.6-1.6v-0.7l-1.1,0c-0.9,0-1.5,0.2-1.9,0.4
		c-0.4,0.2-0.6,0.6-0.6,1.1c0,0.4,0.1,0.7,0.4,0.9C64,164.2,64.3,164.3,64.8,164.3z"/>
	<path id="XMLID_287_" class="st10" d="M71.7,161.3l0.4-0.5l0.5-0.6l2.4-2.5h1.4l-3,3.2l3.2,4.3h-1.5l-2.6-3.5l-0.9,0.7v2.8h-1.2
		v-10.6h1.2v5.6V161.3L71.7,161.3z"/>
	<path id="XMLID_289_" class="st10" d="M87.5,165.2v-4.8c0-1.2-0.5-1.8-1.5-1.8c-0.7,0-1.2,0.2-1.5,0.6c-0.3,0.4-0.5,1-0.5,1.9v4.1
		h-1.2v-4.8c0-0.6-0.1-1-0.4-1.3c-0.2-0.3-0.6-0.4-1.2-0.4c-0.7,0-1.2,0.2-1.5,0.6s-0.5,1.1-0.5,2.1v3.9H78v-7.5h1l0.2,1h0.1
		c0.2-0.4,0.5-0.6,0.9-0.9s0.8-0.3,1.3-0.3c1.2,0,1.9,0.4,2.3,1.3h0.1c0.2-0.4,0.6-0.7,1-0.9s0.9-0.3,1.4-0.3c0.8,0,1.5,0.2,1.9,0.7
		c0.4,0.4,0.6,1.1,0.6,2.1v4.9H87.5z"/>
	<path id="XMLID_291_" class="st10" d="M92.2,157.7v4.8c0,0.6,0.1,1.1,0.4,1.3c0.3,0.3,0.7,0.4,1.3,0.4c0.8,0,1.3-0.2,1.7-0.6
		c0.4-0.4,0.5-1.1,0.5-2.1v-3.9h1.2v7.5h-1l-0.2-1h-0.1c-0.2,0.4-0.5,0.6-1,0.8c-0.4,0.2-0.9,0.3-1.4,0.3c-0.9,0-1.6-0.2-2-0.6
		c-0.5-0.4-0.7-1.1-0.7-2.1v-4.9H92.2z"/>
	<path id="XMLID_304_" class="st10" d="M103.2,157.5c0.3,0,0.6,0,0.9,0.1l-0.2,1.1c-0.3-0.1-0.5-0.1-0.8-0.1c-0.4,0-0.8,0.1-1.1,0.3
		c-0.3,0.2-0.6,0.5-0.8,0.9c-0.2,0.4-0.3,0.8-0.3,1.3v4h-1.2v-7.5h1l0.1,1.4h0.1c0.3-0.5,0.6-0.9,1-1.1
		C102.4,157.7,102.8,157.5,103.2,157.5z"/>
	<path id="XMLID_306_" class="st10" d="M110,165.2l-0.2-1.1h-0.1c-0.4,0.5-0.7,0.8-1.1,1c-0.4,0.2-0.8,0.3-1.4,0.3
		c-0.7,0-1.3-0.2-1.7-0.6c-0.4-0.4-0.6-0.9-0.6-1.6c0-1.5,1.2-2.3,3.6-2.4l1.3,0v-0.4c0-0.6-0.1-1-0.4-1.3c-0.2-0.3-0.6-0.4-1.2-0.4
		c-0.4,0-0.8,0.1-1.1,0.2c-0.4,0.1-0.7,0.3-1,0.4l-0.4-0.9c0.4-0.2,0.8-0.4,1.2-0.5c0.4-0.1,0.9-0.2,1.3-0.2c0.9,0,1.6,0.2,2,0.6
		c0.4,0.4,0.7,1,0.7,1.9v5.1H110z M107.5,164.3c0.7,0,1.2-0.2,1.6-0.6c0.4-0.4,0.6-0.9,0.6-1.6v-0.7l-1.1,0c-0.9,0-1.5,0.2-1.9,0.4
		c-0.4,0.2-0.6,0.6-0.6,1.1c0,0.4,0.1,0.7,0.4,0.9C106.7,164.2,107,164.3,107.5,164.3z"/>
	<path id="XMLID_309_" class="st10" d="M118.4,165.2v-4.8c0-0.6-0.1-1.1-0.4-1.4c-0.3-0.3-0.7-0.4-1.3-0.4c-0.8,0-1.3,0.2-1.7,0.6
		c-0.3,0.4-0.5,1.1-0.5,2.1v3.9h-1.2v-7.5h1l0.2,1h0.1c0.2-0.4,0.6-0.7,1-0.9c0.4-0.2,0.9-0.3,1.4-0.3c0.9,0,1.6,0.2,2.1,0.7
		c0.4,0.4,0.7,1.1,0.7,2.1v4.9H118.4z"/>
</g>
</svg>
