<?xml version="1.0" encoding="utf-8"?>
<!-- Generator: Adobe Illustrator 19.0.0, SVG Export Plug-In . SVG Version: 6.00 Build 0)  -->
<svg version="1.1" id="Layer_1" xmlns="http://www.w3.org/2000/svg" xmlns:xlink="http://www.w3.org/1999/xlink" x="0px" y="0px"
	 viewBox="0 0 166.5 167.4" style="enable-background:new 0 0 166.5 167.4;" xml:space="preserve">
<style type="text/css">
	.st0{fill:#A01C33;}
	.st1{fill:#FFFFFF;}
	.st2{fill:#CD202B;}
	.st3{fill:#F4C3C3;}
	.st4{fill:#E06969;}
	.st5{fill:#BB5050;}
	.st6{fill:#D89E5E;}
	.st7{fill:#404040;}
</style>
<rect id="XMLID_12635_" x="16.5" y="0" class="st0" width="150" height="147.8"/>
<g id="XMLID_12632_">
	<polygon id="XMLID_12634_" class="st1" points="19.2,167.2 19.2,144.2 0,167.4 	"/>
	<rect id="XMLID_12633_" x="16.5" y="94.7" class="st1" width="150" height="72.7"/>
</g>
<g id="XMLID_12624_">
	<circle id="XMLID_12628_" class="st2" cx="34" cy="106.6" r="4"/>
	<path id="XMLID_12627_" class="st2" d="M30,106.6h8.1v10.1C38.1,116.7,30,111.8,30,106.6z"/>
	<circle id="XMLID_12626_" class="st2" cx="42.1" cy="106.5" r="4"/>
	<path id="XMLID_12625_" class="st2" d="M46.1,106.5h-8.1v10.1C38.1,116.5,46.1,111.6,46.1,106.5z"/>
</g>
<g id="XMLID_12615_">
	<circle id="XMLID_12622_" class="st3" cx="101.9" cy="50.8" r="19.5"/>
	<g id="XMLID_12619_">
		<path id="XMLID_12621_" class="st4" d="M58.1,33l25.4,27.7h18.3V21.4C101.9,21.4,78.3,19.5,58.1,33z"/>
		<path id="XMLID_12620_" class="st5" d="M144.9,33l-25.4,27.7h-18.3V21.4C101.1,21.4,124.7,19.5,144.9,33z"/>
	</g>
	<rect id="XMLID_12618_" x="40.2" y="36.8" class="st6" width="49.6" height="40.3"/>
	<g id="XMLID_12489_">
		<path id="XMLID_12630_" class="st1" d="M48.3,57.1l-1.5-4.9h0c0.1,1,0.1,1.7,0.1,2v2.9h-1.2v-6.3h1.8l1.5,4.8h0l1.6-4.8h1.8v6.3
			h-1.2v-3c0-0.1,0-0.3,0-0.5c0-0.2,0-0.7,0.1-1.5h0l-1.6,4.9H48.3z"/>
		<path id="XMLID_12636_" class="st1" d="M57.8,57.1l-0.5-1.5H55l-0.5,1.5h-1.4l2.2-6.3H57l2.2,6.3H57.8z M57,54.5
			c-0.4-1.4-0.7-2.1-0.7-2.3s-0.1-0.3-0.1-0.4c-0.1,0.4-0.4,1.3-0.8,2.7H57z"/>
		<path id="XMLID_12639_" class="st1" d="M65.2,53.9c0,1-0.3,1.8-0.9,2.4c-0.6,0.5-1.4,0.8-2.5,0.8H60v-6.3h2c1,0,1.8,0.3,2.4,0.8
			C64.9,52.2,65.2,52.9,65.2,53.9z M63.8,53.9c0-1.3-0.6-2-1.8-2h-0.7V56h0.6C63.2,56,63.8,55.3,63.8,53.9z"/>
		<path id="XMLID_12642_" class="st1" d="M70.1,57.1h-3.6v-6.3h3.6v1.1h-2.3v1.4h2.1v1.1h-2.1V56h2.3V57.1z"/>
		<path id="XMLID_12645_" class="st1" d="M48,67.6h-2.9v-0.8l0.8-0.4v-4.1l-0.8-0.4v-0.8H48v0.8l-0.8,0.4v4.1l0.8,0.4V67.6z"/>
		<path id="XMLID_12648_" class="st1" d="M54.6,67.6h-1.7l-2.7-4.7h0c0.1,0.8,0.1,1.4,0.1,1.8v3h-1.2v-6.3h1.7l2.7,4.7h0
			c0-0.8-0.1-1.4-0.1-1.7v-3h1.2V67.6z"/>
		<path id="XMLID_12650_" class="st1" d="M57.8,69.5c-0.3,0-0.6,0-0.8-0.1v-1.1c0.2,0.1,0.4,0.1,0.6,0.1c0.3,0,0.5-0.1,0.6-0.3
			c0.1-0.2,0.2-0.5,0.2-0.9v-5.9h1.3v5.9c0,0.7-0.2,1.3-0.5,1.7C59,69.3,58.5,69.5,57.8,69.5z"/>
		<path id="XMLID_12652_" class="st1" d="M65.2,67.6l-0.5-1.5h-2.3L62,67.6h-1.4l2.2-6.3h1.6l2.2,6.3H65.2z M64.5,65
			c-0.4-1.4-0.7-2.1-0.7-2.3s-0.1-0.3-0.1-0.4c-0.1,0.4-0.4,1.3-0.8,2.7H64.5z"/>
		<path id="XMLID_12655_" class="st1" d="M71.8,63.3c0,0.7-0.2,1.2-0.6,1.5c-0.4,0.4-1,0.5-1.8,0.5h-0.6v2.2h-1.3v-6.3h2
			c0.8,0,1.3,0.2,1.7,0.5C71.6,62.2,71.8,62.7,71.8,63.3z M68.8,64.3h0.4c0.4,0,0.7-0.1,0.9-0.2c0.2-0.2,0.3-0.4,0.3-0.7
			c0-0.3-0.1-0.5-0.3-0.7c-0.2-0.1-0.4-0.2-0.8-0.2h-0.6V64.3z"/>
		<path id="XMLID_12658_" class="st1" d="M76.6,67.6l-0.5-1.5h-2.3l-0.5,1.5H72l2.2-6.3h1.6l2.2,6.3H76.6z M75.8,65
			c-0.4-1.4-0.7-2.1-0.7-2.3c-0.1-0.2-0.1-0.3-0.1-0.4c-0.1,0.4-0.4,1.3-0.8,2.7H75.8z"/>
		<path id="XMLID_12661_" class="st1" d="M84.4,67.6h-1.7L80,62.9h0c0.1,0.8,0.1,1.4,0.1,1.8v3h-1.2v-6.3h1.7l2.7,4.7h0
			c0-0.8-0.1-1.4-0.1-1.7v-3h1.2V67.6z"/>
	</g>
</g>
<g id="XMLID_76_">
	<g id="XMLID_601_">
		<path id="XMLID_661_" class="st7" d="M62.8,107.8c0,1.1-0.3,1.9-1,2.5c-0.7,0.6-1.6,0.9-2.9,0.9H58v3.6h-2.1v-10h3.2
			c1.2,0,2.1,0.3,2.8,0.8C62.5,106,62.8,106.8,62.8,107.8z M58,109.4h0.7c0.7,0,1.1-0.1,1.5-0.4s0.5-0.6,0.5-1.1
			c0-0.5-0.1-0.9-0.4-1.1c-0.3-0.2-0.7-0.4-1.3-0.4h-1V109.4z"/>
		<path id="XMLID_659_" class="st7" d="M68.8,106.9c0.3,0,0.5,0,0.7,0.1l-0.2,2c-0.2,0-0.4-0.1-0.6-0.1c-0.7,0-1.2,0.2-1.6,0.5
			c-0.4,0.3-0.6,0.8-0.6,1.4v3.9h-2.1v-7.6h1.6l0.3,1.3h0.1c0.2-0.4,0.6-0.8,1-1S68.3,106.9,68.8,106.9z"/>
		<path id="XMLID_656_" class="st7" d="M77.7,110.9c0,1.2-0.3,2.2-1,2.9c-0.7,0.7-1.6,1.1-2.7,1.1c-0.7,0-1.4-0.2-1.9-0.5
			s-1-0.8-1.3-1.4s-0.5-1.3-0.5-2.1c0-1.2,0.3-2.2,1-2.9c0.7-0.7,1.6-1,2.7-1c0.7,0,1.4,0.2,1.9,0.5c0.6,0.3,1,0.8,1.3,1.4
			C77.5,109.4,77.7,110.1,77.7,110.9z M72.4,110.9c0,0.8,0.1,1.3,0.4,1.7c0.2,0.4,0.7,0.6,1.2,0.6c0.6,0,1-0.2,1.2-0.6
			c0.2-0.4,0.4-1,0.4-1.7c0-0.8-0.1-1.3-0.4-1.7c-0.2-0.4-0.6-0.6-1.2-0.6c-0.6,0-1,0.2-1.2,0.6S72.4,110.1,72.4,110.9z"/>
		<path id="XMLID_653_" class="st7" d="M81.8,114.8c-0.9,0-1.6-0.3-2.1-1s-0.8-1.7-0.8-2.9c0-1.3,0.3-2.2,0.8-2.9
			c0.5-0.7,1.2-1,2.2-1c1,0,1.7,0.4,2.2,1.1h0.1c-0.1-0.6-0.2-1.1-0.2-1.5v-2.4h2.1v10.6h-1.6l-0.4-1H84
			C83.5,114.5,82.8,114.8,81.8,114.8z M82.6,113.2c0.5,0,0.9-0.2,1.2-0.5c0.2-0.3,0.4-0.8,0.4-1.6v-0.2c0-0.8-0.1-1.4-0.4-1.8
			s-0.7-0.5-1.2-0.5c-0.5,0-0.8,0.2-1.1,0.6c-0.3,0.4-0.4,1-0.4,1.7s0.1,1.3,0.4,1.7S82.1,113.2,82.6,113.2z"/>
		<path id="XMLID_651_" class="st7" d="M93.7,114.7l-0.3-1h-0.1c-0.2,0.4-0.5,0.6-1,0.8s-0.9,0.3-1.4,0.3c-0.9,0-1.6-0.2-2-0.7
			s-0.7-1.2-0.7-2.1v-5h2.1v4.5c0,0.6,0.1,1,0.3,1.2s0.5,0.4,0.9,0.4c0.6,0,1-0.2,1.3-0.6s0.4-1,0.4-1.9v-3.6h2.1v7.6H93.7z"/>
		<path id="XMLID_649_" class="st7" d="M99.5,110.6l0.9-1.2l2.1-2.3h2.4l-3,3.3l3.2,4.3h-2.4l-2.2-3.1l-0.9,0.7v2.4h-2.1v-10.6h2.1
			v4.7L99.5,110.6L99.5,110.6z"/>
		<path id="XMLID_647_" class="st7" d="M110,114.7v-10h2.1v8.2h4.1v1.8H110z"/>
		<path id="XMLID_644_" class="st7" d="M124.6,110.9c0,1.2-0.3,2.2-1,2.9c-0.7,0.7-1.6,1.1-2.7,1.1c-0.7,0-1.4-0.2-1.9-0.5
			s-1-0.8-1.3-1.4s-0.5-1.3-0.5-2.1c0-1.2,0.3-2.2,1-2.9c0.7-0.7,1.6-1,2.7-1c0.7,0,1.4,0.2,1.9,0.5c0.6,0.3,1,0.8,1.3,1.4
			C124.5,109.4,124.6,110.1,124.6,110.9z M119.4,110.9c0,0.8,0.1,1.3,0.4,1.7c0.2,0.4,0.7,0.6,1.2,0.6c0.6,0,1-0.2,1.2-0.6
			c0.2-0.4,0.4-1,0.4-1.7c0-0.8-0.1-1.3-0.4-1.7c-0.2-0.4-0.6-0.6-1.2-0.6c-0.6,0-1,0.2-1.2,0.6S119.4,110.1,119.4,110.9z"/>
		<path id="XMLID_642_" class="st7" d="M128.4,110.6l0.9-1.2l2.1-2.3h2.4l-3,3.3l3.2,4.3h-2.4l-2.2-3.1l-0.9,0.7v2.4h-2.1v-10.6h2.1
			v4.7L128.4,110.6L128.4,110.6z"/>
		<path id="XMLID_639_" class="st7" d="M139.9,114.7l-0.4-1h-0.1c-0.4,0.4-0.7,0.7-1.1,0.9c-0.4,0.2-0.9,0.3-1.5,0.3
			c-0.7,0-1.3-0.2-1.7-0.6c-0.4-0.4-0.6-1-0.6-1.8c0-0.8,0.3-1.4,0.9-1.8s1.4-0.6,2.6-0.6l1.3,0v-0.3c0-0.8-0.4-1.2-1.2-1.2
			c-0.6,0-1.3,0.2-2.2,0.6l-0.7-1.4c0.9-0.5,1.9-0.7,2.9-0.7c1,0,1.8,0.2,2.4,0.7c0.5,0.4,0.8,1.1,0.8,2v5.1H139.9z M139.3,111.2
			l-0.8,0c-0.6,0-1.1,0.1-1.4,0.3c-0.3,0.2-0.4,0.5-0.4,0.9c0,0.6,0.3,0.9,1,0.9c0.5,0,0.9-0.1,1.2-0.4c0.3-0.3,0.4-0.6,0.4-1.1
			V111.2z"/>
		<path id="XMLID_637_" class="st7" d="M145.6,114.7h-2.1v-10.6h2.1V114.7z"/>
		<path id="XMLID_634_" class="st7" d="M62.3,131.5l-1.2-3.1h-4l-1.2,3.1h-1.3l3.9-10h1.1l3.9,10H62.3z M60.7,127.3l-1.1-3l-0.5-1.5
			c-0.1,0.5-0.3,1-0.4,1.5l-1.1,3H60.7z"/>
		<path id="XMLID_632_" class="st7" d="M66,127.6l0.4-0.5l0.5-0.6l2.4-2.5h1.4l-3,3.2l3.2,4.3h-1.5l-2.6-3.5l-0.9,0.7v2.8h-1.2
			v-10.6H66v5.6V127.6L66,127.6z"/>
		<path id="XMLID_630_" class="st7" d="M73.4,124v4.8c0,0.6,0.1,1.1,0.4,1.3c0.3,0.3,0.7,0.4,1.3,0.4c0.8,0,1.3-0.2,1.7-0.6
			c0.4-0.4,0.5-1.1,0.5-2.1V124h1.2v7.5h-1l-0.2-1h-0.1c-0.2,0.4-0.5,0.6-1,0.8c-0.4,0.2-0.9,0.3-1.4,0.3c-0.9,0-1.6-0.2-2-0.6
			c-0.5-0.4-0.7-1.1-0.7-2.1V124H73.4z"/>
		<path id="XMLID_628_" class="st7" d="M89,122.5c-1.1,0-1.9,0.4-2.5,1.1c-0.6,0.7-0.9,1.7-0.9,3c0,1.3,0.3,2.3,0.9,3s1.4,1,2.5,1
			c0.7,0,1.5-0.1,2.4-0.4v1.1c-0.4,0.2-0.8,0.3-1.2,0.3s-0.8,0.1-1.4,0.1c-1.5,0-2.6-0.4-3.4-1.3c-0.8-0.9-1.2-2.2-1.2-3.8
			c0-1,0.2-1.9,0.6-2.7c0.4-0.8,0.9-1.4,1.7-1.8c0.7-0.4,1.6-0.6,2.6-0.6c1.1,0,2,0.2,2.8,0.6l-0.5,1.1
			C90.5,122.7,89.7,122.5,89,122.5z"/>
		<path id="XMLID_625_" class="st7" d="M93.3,122c0-0.3,0.1-0.5,0.2-0.6c0.1-0.1,0.3-0.2,0.5-0.2c0.2,0,0.4,0.1,0.5,0.2
			s0.2,0.3,0.2,0.6c0,0.3-0.1,0.5-0.2,0.6c-0.1,0.1-0.3,0.2-0.5,0.2c-0.2,0-0.4-0.1-0.5-0.2C93.4,122.4,93.3,122.2,93.3,122z
			 M94.6,131.5h-1.2V124h1.2V131.5z"/>
		<path id="XMLID_623_" class="st7" d="M102.1,131.5v-4.8c0-0.6-0.1-1.1-0.4-1.4c-0.3-0.3-0.7-0.4-1.3-0.4c-0.8,0-1.3,0.2-1.7,0.6
			s-0.5,1.1-0.5,2.1v3.9H97V124h1l0.2,1h0.1c0.2-0.4,0.6-0.7,1-0.9s0.9-0.3,1.4-0.3c0.9,0,1.6,0.2,2.1,0.7c0.4,0.4,0.7,1.1,0.7,2.1
			v4.9H102.1z"/>
		<path id="XMLID_621_" class="st7" d="M108.2,130.6c0.2,0,0.3,0,0.6,0c0.2,0,0.4-0.1,0.5-0.1v0.9c-0.1,0.1-0.3,0.1-0.5,0.1
			s-0.5,0.1-0.7,0.1c-1.5,0-2.2-0.8-2.2-2.3V125h-1.1v-0.6l1.1-0.5l0.5-1.6h0.7v1.7h2.2v1H107v4.3c0,0.4,0.1,0.8,0.3,1
			C107.5,130.5,107.8,130.6,108.2,130.6z"/>
		<path id="XMLID_618_" class="st7" d="M115.3,131.5l-0.2-1.1H115c-0.4,0.5-0.7,0.8-1.1,1c-0.4,0.2-0.8,0.2-1.4,0.2
			c-0.7,0-1.3-0.2-1.7-0.6c-0.4-0.4-0.6-0.9-0.6-1.6c0-1.5,1.2-2.3,3.6-2.4l1.3,0v-0.4c0-0.6-0.1-1-0.4-1.3s-0.6-0.4-1.2-0.4
			c-0.4,0-0.8,0.1-1.1,0.2c-0.4,0.1-0.7,0.3-1,0.4l-0.4-0.9c0.4-0.2,0.8-0.4,1.2-0.5c0.4-0.1,0.9-0.2,1.3-0.2c0.9,0,1.6,0.2,2,0.6
			c0.4,0.4,0.7,1,0.7,1.9v5.1H115.3z M112.8,130.7c0.7,0,1.2-0.2,1.6-0.6c0.4-0.4,0.6-0.9,0.6-1.6v-0.7l-1.1,0
			c-0.9,0-1.5,0.2-1.9,0.4c-0.4,0.2-0.6,0.6-0.6,1.1c0,0.4,0.1,0.7,0.4,0.9C112,130.5,112.4,130.7,112.8,130.7z"/>
		<path id="XMLID_616_" class="st7" d="M54.6,151c-0.4,0-0.8-0.1-1-0.2v-1.1c0.3,0.1,0.7,0.1,1,0.1c0.5,0,0.8-0.1,1-0.4
			c0.2-0.3,0.3-0.7,0.3-1.2v-9.9h1.3v9.8c0,0.9-0.2,1.6-0.7,2.1C56.1,150.7,55.4,151,54.6,151z"/>
		<path id="XMLID_613_" class="st7" d="M62.8,148.4c-1.1,0-2-0.3-2.6-1c-0.6-0.7-1-1.6-1-2.8c0-1.2,0.3-2.2,0.9-2.9
			c0.6-0.7,1.4-1.1,2.4-1.1c0.9,0,1.7,0.3,2.3,0.9c0.6,0.6,0.8,1.4,0.8,2.5v0.7h-5.1c0,0.9,0.2,1.5,0.6,1.9s1,0.7,1.7,0.7
			c0.4,0,0.8,0,1.1-0.1c0.4-0.1,0.8-0.2,1.3-0.4v1.1c-0.4,0.2-0.8,0.3-1.2,0.4S63.3,148.4,62.8,148.4z M62.5,141.7
			c-0.6,0-1.1,0.2-1.4,0.6s-0.5,0.9-0.6,1.6h3.8c0-0.7-0.2-1.2-0.5-1.6S63.1,141.7,62.5,141.7z"/>
		<path id="XMLID_610_" class="st7" d="M71.1,148.4c-1,0-1.8-0.4-2.3-1.1h-0.1l0,0.3c0,0.4,0.1,0.7,0.1,1v3.1h-1.2v-10.9h1l0.2,1
			h0.1c0.3-0.4,0.6-0.7,1-0.9s0.8-0.3,1.3-0.3c1,0,1.7,0.3,2.3,1c0.5,0.7,0.8,1.6,0.8,2.9c0,1.2-0.3,2.2-0.8,2.9
			S72.1,148.4,71.1,148.4z M70.9,141.7c-0.7,0-1.3,0.2-1.6,0.6c-0.3,0.4-0.5,1.1-0.5,2v0.2c0,1,0.2,1.8,0.5,2.2
			c0.3,0.5,0.9,0.7,1.6,0.7c0.6,0,1.1-0.3,1.5-0.8c0.4-0.5,0.5-1.2,0.5-2.1c0-0.9-0.2-1.6-0.5-2.1C72,141.9,71.5,141.7,70.9,141.7z"
			/>
		<path id="XMLID_607_" class="st7" d="M80.8,148.3l-0.2-1.1h-0.1c-0.4,0.5-0.7,0.8-1.1,1c-0.4,0.2-0.8,0.3-1.4,0.3
			c-0.7,0-1.3-0.2-1.7-0.6s-0.6-0.9-0.6-1.6c0-1.5,1.2-2.3,3.6-2.4l1.3,0v-0.4c0-0.6-0.1-1-0.4-1.3c-0.2-0.3-0.6-0.4-1.2-0.4
			c-0.4,0-0.8,0.1-1.1,0.2c-0.4,0.1-0.7,0.3-1,0.4l-0.4-0.9c0.4-0.2,0.8-0.4,1.2-0.5s0.9-0.2,1.3-0.2c0.9,0,1.6,0.2,2,0.6
			s0.7,1,0.7,1.9v5.1H80.8z M78.3,147.5c0.7,0,1.2-0.2,1.6-0.6c0.4-0.4,0.6-0.9,0.6-1.6v-0.7l-1.1,0c-0.9,0-1.5,0.2-1.9,0.4
			c-0.4,0.2-0.6,0.6-0.6,1.1c0,0.4,0.1,0.7,0.4,0.9S77.8,147.5,78.3,147.5z"/>
		<path id="XMLID_605_" class="st7" d="M89.1,148.3v-4.8c0-0.6-0.1-1.1-0.4-1.4c-0.3-0.3-0.7-0.4-1.3-0.4c-0.8,0-1.3,0.2-1.7,0.6
			c-0.3,0.4-0.5,1.1-0.5,2.1v3.9H84v-7.5h1l0.2,1h0.1c0.2-0.4,0.6-0.7,1-0.9c0.4-0.2,0.9-0.3,1.4-0.3c0.9,0,1.6,0.2,2.1,0.7
			s0.7,1.1,0.7,2.1v4.9H89.1z"/>
		<path id="XMLID_602_" class="st7" d="M97.7,148.2l0-0.9h-0.1c-0.5,0.8-1.3,1.1-2.3,1.1c-1,0-1.7-0.3-2.3-1
			c-0.5-0.7-0.8-1.6-0.8-2.9c0-1.2,0.3-2.2,0.8-2.9c0.5-0.7,1.3-1,2.3-1c1,0,1.8,0.4,2.4,1.1h0.1l0.2-1h1v7.6c0,1.1-0.3,1.9-0.8,2.4
			c-0.5,0.5-1.4,0.8-2.5,0.8c-1.1,0-2-0.2-2.7-0.5v-1.1c0.7,0.4,1.7,0.6,2.8,0.6c0.6,0,1.1-0.2,1.5-0.6c0.4-0.4,0.6-0.9,0.6-1.6
			V148.2z M95.5,147.4c0.8,0,1.3-0.2,1.7-0.6c0.3-0.4,0.5-1.1,0.5-2v-0.3c0-1-0.2-1.7-0.5-2.2s-0.9-0.7-1.7-0.7
			c-0.6,0-1.1,0.2-1.5,0.7c-0.3,0.5-0.5,1.2-0.5,2.1c0,0.9,0.2,1.6,0.5,2.1S94.9,147.4,95.5,147.4z"/>
	</g>
</g>
</svg>
