<?xml version="1.0" encoding="utf-8"?>
<!-- Generator: Adobe Illustrator 19.0.0, SVG Export Plug-In . SVG Version: 6.00 Build 0)  -->
<svg version="1.1" id="Layer_1" xmlns="http://www.w3.org/2000/svg" xmlns:xlink="http://www.w3.org/1999/xlink" x="0px" y="0px"
	 viewBox="0 0 173.3 167" style="enable-background:new 0 0 173.3 167;" xml:space="preserve">
<style type="text/css">
	.st0{fill:#5B602A;}
	.st1{fill:#FFFFFF;}
	.st2{fill:#CD202B;}
	.st3{fill:none;stroke:#B78534;stroke-width:4;stroke-miterlimit:10;}
	.st4{fill:#EE2F52;}
	.st5{fill:#EC5624;}
	.st6{fill:#41BA89;}
	.st7{fill:#B78534;}
	.st8{fill:#E1A042;}
	.st9{fill:#404040;}
</style>
<rect id="XMLID_7078_" x="18.6" class="st0" width="154.7" height="167"/>
<rect id="XMLID_7085_" x="18.4" y="84.5" class="st1" width="154.9" height="82.5"/>
<g id="XMLID_5781_">
	<circle id="XMLID_5782_" class="st2" cx="27.5" cy="97.8" r="4"/>
	<path id="XMLID_5783_" class="st2" d="M23.4,97.8h8.1v10.1C31.5,107.9,23.4,103,23.4,97.8z"/>
	<circle id="XMLID_2499_" class="st2" cx="35.5" cy="97.7" r="4"/>
	<path id="XMLID_2498_" class="st2" d="M39.5,97.7h-8.1v10.1C31.5,107.7,39.5,102.8,39.5,97.7z"/>
</g>
<g id="XMLID_2474_">
	<path id="XMLID_2496_" class="st3" d="M118.9,61H74.4c-7.7,0-14-6.3-14-14V25.6c0-7.7,6.3-14,14-14h44.5c7.7,0,14,6.3,14,14V47
		C132.9,54.7,126.6,61,118.9,61z"/>
	<circle id="XMLID_5784_" class="st4" cx="82.8" cy="45.1" r="16.5"/>
	<circle id="XMLID_5785_" class="st5" cx="103.6" cy="37.3" r="10.4"/>
	<circle id="XMLID_5786_" class="st6" cx="119.5" cy="37.2" r="11.6"/>
	<path id="XMLID_2492_" class="st7" d="M120.9,75H72.6c-7.7,0-14-6.3-14-14V43.1c0-7.7,6.3-4.5,14-4.5h48.2c7.7,0,14-3,14,4.7V61
		C134.9,68.7,128.6,75,120.9,75z"/>
	<path id="XMLID_5787_" class="st8" d="M136.6,44.8H55.4c-2,0-3.6-1.6-3.6-3.6l0,0c0-2,1.6-3.6,3.6-3.6h81.2c2,0,3.6,1.6,3.6,3.6
		l0,0C140.2,43.2,138.6,44.8,136.6,44.8z"/>
</g>
<g id="XMLID_1_">
	<g id="XMLID_1253_">
		<path id="XMLID_1441_" class="st9" d="M51,103c0,0.9-0.3,1.6-1,2.1s-1.5,0.8-2.7,0.8c-1,0-2-0.2-2.8-0.6v-1.9
			c0.7,0.3,1.2,0.5,1.7,0.6c0.5,0.1,0.9,0.2,1.3,0.2c0.5,0,0.8-0.1,1.1-0.3c0.2-0.2,0.4-0.4,0.4-0.8c0-0.2-0.1-0.4-0.2-0.5
			c-0.1-0.1-0.3-0.3-0.5-0.4c-0.2-0.1-0.6-0.4-1.3-0.7c-0.6-0.3-1.1-0.6-1.4-0.8c-0.3-0.3-0.5-0.6-0.7-0.9c-0.2-0.3-0.3-0.7-0.3-1.2
			c0-0.9,0.3-1.6,0.9-2c0.6-0.5,1.4-0.7,2.4-0.7c0.5,0,1,0.1,1.5,0.2c0.5,0.1,0.9,0.3,1.5,0.5l-0.7,1.6c-0.5-0.2-1-0.4-1.3-0.5
			c-0.3-0.1-0.7-0.1-1-0.1c-0.4,0-0.7,0.1-0.9,0.3s-0.3,0.4-0.3,0.7c0,0.2,0,0.3,0.1,0.5c0.1,0.1,0.2,0.3,0.4,0.4
			c0.2,0.1,0.6,0.4,1.3,0.7c0.9,0.4,1.5,0.9,1.9,1.3C50.8,101.9,51,102.4,51,103z"/>
		<path id="XMLID_1438_" class="st9" d="M56,105.9c-1.2,0-2.2-0.3-2.8-1s-1-1.6-1-2.8c0-1.3,0.3-2.2,0.9-2.9c0.6-0.7,1.5-1,2.6-1
			c1.1,0,1.9,0.3,2.5,0.9c0.6,0.6,0.9,1.4,0.9,2.5v1h-4.8c0,0.6,0.2,1,0.5,1.4c0.3,0.3,0.8,0.5,1.4,0.5c0.5,0,0.9,0,1.3-0.1
			c0.4-0.1,0.8-0.2,1.3-0.5v1.6c-0.4,0.2-0.7,0.3-1.1,0.4C57.1,105.9,56.6,105.9,56,105.9z M55.7,99.6c-0.4,0-0.8,0.1-1,0.4
			s-0.4,0.7-0.4,1.2h2.9c0-0.5-0.1-0.9-0.4-1.2S56.1,99.6,55.7,99.6z"/>
		<path id="XMLID_1436_" class="st9" d="M62.7,101.7l0.9-1.1l2.1-2.3H68l-3,3.3l3.2,4.3h-2.4l-2.2-3l-0.9,0.7v2.3h-2V95.3h2v4.7
			L62.7,101.7L62.7,101.7z"/>
		<path id="XMLID_1433_" class="st9" d="M72.5,105.9c-1.2,0-2.2-0.3-2.8-1c-0.7-0.7-1-1.6-1-2.8c0-1.3,0.3-2.2,0.9-2.9s1.5-1,2.6-1
			c1.1,0,1.9,0.3,2.5,0.9c0.6,0.6,0.9,1.4,0.9,2.5v1h-4.8c0,0.6,0.2,1,0.5,1.4s0.8,0.5,1.4,0.5c0.5,0,0.9,0,1.3-0.1
			c0.4-0.1,0.8-0.2,1.3-0.5v1.6c-0.4,0.2-0.7,0.3-1.1,0.4C73.6,105.9,73.1,105.9,72.5,105.9z M72.2,99.6c-0.4,0-0.8,0.1-1,0.4
			c-0.2,0.3-0.4,0.7-0.4,1.2h2.9c0-0.5-0.1-0.9-0.4-1.2C73,99.7,72.7,99.6,72.2,99.6z"/>
		<path id="XMLID_1431_" class="st9" d="M81.4,98.1c0.3,0,0.5,0,0.7,0.1l-0.2,1.9c-0.2,0-0.4-0.1-0.6-0.1c-0.7,0-1.2,0.2-1.5,0.5
			c-0.4,0.3-0.5,0.8-0.5,1.4v3.8h-2v-7.5h1.6l0.3,1.3h0.1c0.2-0.4,0.5-0.8,0.9-1C80.5,98.2,81,98.1,81.4,98.1z"/>
		<path id="XMLID_1428_" class="st9" d="M88.1,105.8l-0.4-1h-0.1c-0.3,0.4-0.7,0.7-1.1,0.9s-0.8,0.3-1.4,0.3c-0.7,0-1.3-0.2-1.7-0.6
			c-0.4-0.4-0.6-1-0.6-1.8c0-0.8,0.3-1.4,0.8-1.8s1.4-0.6,2.5-0.6l1.3,0v-0.3c0-0.8-0.4-1.1-1.2-1.1c-0.6,0-1.3,0.2-2.1,0.5
			l-0.7-1.4c0.9-0.5,1.8-0.7,2.9-0.7c1,0,1.8,0.2,2.3,0.7s0.8,1.1,0.8,2v5H88.1z M87.5,102.3l-0.8,0c-0.6,0-1,0.1-1.3,0.3
			c-0.3,0.2-0.4,0.5-0.4,0.9c0,0.6,0.3,0.9,1,0.9c0.5,0,0.9-0.1,1.1-0.4c0.3-0.3,0.4-0.6,0.4-1.1V102.3z"/>
		<path id="XMLID_1426_" class="st9" d="M98.6,105.8h-2v-4.4c0-0.5-0.1-0.9-0.3-1.2c-0.2-0.3-0.5-0.4-0.9-0.4c-0.6,0-1,0.2-1.2,0.6
			c-0.3,0.4-0.4,1-0.4,1.9v3.5h-2v-7.5h1.6l0.3,1h0.1c0.2-0.4,0.5-0.6,0.9-0.8c0.4-0.2,0.9-0.3,1.4-0.3c0.9,0,1.5,0.2,2,0.7
			c0.5,0.5,0.7,1.2,0.7,2V105.8z"/>
		<path id="XMLID_1423_" class="st9" d="M100.1,109.1c-0.5,0-1-0.1-1.4-0.2v-1.6c0.3,0.1,0.6,0.1,1,0.1c0.3,0,0.6-0.1,0.8-0.3
			c0.2-0.2,0.2-0.5,0.2-0.9v-8h2v8.3c0,0.8-0.2,1.4-0.7,1.8C101.6,108.9,101,109.1,100.1,109.1z M100.6,96.3c0-0.7,0.4-1,1.1-1
			s1.1,0.3,1.1,1c0,0.3-0.1,0.6-0.3,0.7c-0.2,0.2-0.5,0.3-0.8,0.3C101,97.3,100.6,97,100.6,96.3z"/>
		<path id="XMLID_1420_" class="st9" d="M109.7,105.8l-0.4-1h-0.1c-0.3,0.4-0.7,0.7-1.1,0.9s-0.8,0.3-1.4,0.3
			c-0.7,0-1.3-0.2-1.7-0.6c-0.4-0.4-0.6-1-0.6-1.8c0-0.8,0.3-1.4,0.8-1.8s1.4-0.6,2.5-0.6l1.3,0v-0.3c0-0.8-0.4-1.1-1.2-1.1
			c-0.6,0-1.3,0.2-2.1,0.5l-0.7-1.4c0.9-0.5,1.8-0.7,2.9-0.7c1,0,1.8,0.2,2.3,0.7s0.8,1.1,0.8,2v5H109.7z M109.1,102.3l-0.8,0
			c-0.6,0-1,0.1-1.3,0.3c-0.3,0.2-0.4,0.5-0.4,0.9c0,0.6,0.3,0.9,1,0.9c0.5,0,0.9-0.1,1.1-0.4c0.3-0.3,0.4-0.6,0.4-1.1V102.3z"/>
		<path id="XMLID_1418_" class="st9" d="M120.2,105.8h-2v-4.4c0-0.5-0.1-0.9-0.3-1.2c-0.2-0.3-0.5-0.4-0.9-0.4c-0.6,0-1,0.2-1.2,0.6
			c-0.3,0.4-0.4,1-0.4,1.9v3.5h-2v-7.5h1.6l0.3,1h0.1c0.2-0.4,0.5-0.6,0.9-0.8c0.4-0.2,0.9-0.3,1.4-0.3c0.9,0,1.5,0.2,2,0.7
			c0.5,0.5,0.7,1.2,0.7,2V105.8z"/>
		<path id="XMLID_1415_" class="st9" d="M128.8,105.8c0,1.1-0.3,1.9-0.9,2.5c-0.6,0.6-1.6,0.8-2.8,0.8c-1.1,0-2-0.1-2.8-0.4V107
			c0.9,0.4,1.9,0.6,2.9,0.6c1.1,0,1.6-0.6,1.6-1.7v-0.1l0.1-0.9h-0.1c-0.5,0.7-1.2,1.1-2.1,1.1c-0.9,0-1.6-0.3-2.1-1
			s-0.7-1.6-0.7-2.8c0-1.2,0.3-2.2,0.8-2.9c0.5-0.7,1.2-1,2.1-1c0.9,0,1.6,0.4,2.2,1.1h0.1l0.2-1h1.7V105.8z M125.4,104.3
			c0.6,0,0.9-0.2,1.2-0.5c0.2-0.3,0.4-0.8,0.4-1.5V102c0-0.8-0.1-1.4-0.4-1.7s-0.6-0.5-1.2-0.5c-1,0-1.4,0.8-1.4,2.3
			c0,0.8,0.1,1.3,0.4,1.7C124.5,104.1,124.9,104.3,125.4,104.3z"/>
		<path id="XMLID_1411_" class="st9" d="M134.7,95.9h3.1c1.4,0,2.4,0.2,3,0.6c0.6,0.4,0.9,1,0.9,1.9c0,0.6-0.1,1.1-0.4,1.4
			c-0.3,0.4-0.6,0.6-1.1,0.7v0.1c0.6,0.1,1.1,0.4,1.3,0.8s0.4,0.9,0.4,1.5c0,0.9-0.3,1.6-1,2.1c-0.6,0.5-1.5,0.8-2.6,0.8h-3.7V95.9z
			 M136.8,99.8h1.2c0.6,0,1-0.1,1.2-0.3c0.3-0.2,0.4-0.5,0.4-0.9c0-0.4-0.1-0.6-0.4-0.8s-0.7-0.2-1.3-0.2h-1.1V99.8z M136.8,101.5
			v2.6h1.4c0.6,0,1-0.1,1.3-0.3c0.3-0.2,0.4-0.6,0.4-1c0-0.8-0.6-1.2-1.7-1.2H136.8z"/>
		<path id="XMLID_1409_" class="st9" d="M149.1,105.8l-0.3-1h-0.1c-0.2,0.3-0.5,0.6-0.9,0.8s-0.9,0.3-1.4,0.3c-0.9,0-1.5-0.2-2-0.7
			s-0.7-1.2-0.7-2v-4.9h2v4.4c0,0.5,0.1,0.9,0.3,1.2c0.2,0.3,0.5,0.4,0.9,0.4c0.6,0,1-0.2,1.2-0.6c0.3-0.4,0.4-1,0.4-1.9v-3.5h2v7.5
			H149.1z"/>
		<path id="XMLID_1406_" class="st9" d="M157.6,105.8l-0.4-1h-0.1c-0.3,0.4-0.7,0.7-1.1,0.9s-0.8,0.3-1.4,0.3
			c-0.7,0-1.3-0.2-1.7-0.6c-0.4-0.4-0.6-1-0.6-1.8c0-0.8,0.3-1.4,0.8-1.8s1.4-0.6,2.5-0.6l1.3,0v-0.3c0-0.8-0.4-1.1-1.2-1.1
			c-0.6,0-1.3,0.2-2.1,0.5l-0.7-1.4c0.9-0.5,1.8-0.7,2.9-0.7c1,0,1.8,0.2,2.3,0.7c0.5,0.4,0.8,1.1,0.8,2v5H157.6z M157,102.3l-0.8,0
			c-0.6,0-1,0.1-1.3,0.3c-0.3,0.2-0.4,0.5-0.4,0.9c0,0.6,0.3,0.9,1,0.9c0.5,0,0.9-0.1,1.1-0.4c0.3-0.3,0.4-0.6,0.4-1.1V102.3z"/>
		<path id="XMLID_1404_" class="st9" d="M168.1,105.8h-2v-4.4c0-1.1-0.4-1.6-1.2-1.6c-0.6,0-1,0.2-1.2,0.6c-0.3,0.4-0.4,1-0.4,1.9
			v3.5h-2V95.3h2v2.1c0,0.2,0,0.6,0,1.2l0,0.6h0.1c0.5-0.7,1.2-1.1,2.2-1.1c0.9,0,1.6,0.2,2,0.7c0.5,0.5,0.7,1.2,0.7,2V105.8z"/>
		<path id="XMLID_1401_" class="st9" d="M51.6,115.3c0,1-0.3,1.8-1,2.3c-0.7,0.5-1.7,0.8-2.9,0.8h-1.1v3.8h-1.2v-9.8h2.6
			C50.3,112.5,51.6,113.4,51.6,115.3z M46.5,117.4h1c1,0,1.7-0.2,2.1-0.5c0.4-0.3,0.7-0.8,0.7-1.5c0-0.6-0.2-1.1-0.6-1.4
			c-0.4-0.3-1-0.5-1.9-0.5h-1.3V117.4z"/>
		<path id="XMLID_1399_" class="st9" d="M56.9,114.8c0.3,0,0.6,0,0.9,0.1l-0.1,1.1c-0.3-0.1-0.5-0.1-0.8-0.1c-0.4,0-0.8,0.1-1.1,0.3
			s-0.6,0.5-0.8,0.9c-0.2,0.4-0.3,0.8-0.3,1.3v3.9h-1.2v-7.4h1l0.1,1.4h0.1c0.3-0.5,0.6-0.9,1-1.1C56,114.9,56.4,114.8,56.9,114.8z"
			/>
		<path id="XMLID_1396_" class="st9" d="M63.5,122.3l-0.2-1h-0.1c-0.4,0.5-0.7,0.8-1.1,0.9c-0.4,0.2-0.8,0.2-1.4,0.2
			c-0.7,0-1.3-0.2-1.7-0.6c-0.4-0.4-0.6-0.9-0.6-1.6c0-1.5,1.2-2.3,3.5-2.4l1.3,0v-0.4c0-0.6-0.1-1-0.4-1.2
			c-0.2-0.3-0.6-0.4-1.2-0.4c-0.4,0-0.8,0.1-1.1,0.2c-0.3,0.1-0.7,0.2-1,0.4l-0.4-0.9c0.4-0.2,0.8-0.4,1.2-0.5
			c0.4-0.1,0.9-0.2,1.3-0.2c0.9,0,1.6,0.2,2,0.6c0.4,0.4,0.7,1,0.7,1.9v5H63.5z M61,121.4c0.7,0,1.2-0.2,1.6-0.5s0.6-0.9,0.6-1.6
			v-0.7l-1.1,0c-0.8,0-1.5,0.2-1.9,0.4c-0.4,0.2-0.6,0.6-0.6,1.1c0,0.4,0.1,0.7,0.4,0.9C60.3,121.3,60.6,121.4,61,121.4z"/>
		<path id="XMLID_1394_" class="st9" d="M67.9,118.5l0.4-0.5l0.5-0.6l2.4-2.5h1.4l-3,3.2l3.2,4.2h-1.5l-2.6-3.4l-0.8,0.7v2.7h-1.2
			v-10.5h1.2v5.5V118.5L67.9,118.5z"/>
		<path id="XMLID_1392_" class="st9" d="M76.5,121.4c0.2,0,0.3,0,0.6,0c0.2,0,0.4-0.1,0.5-0.1v0.9c-0.1,0-0.3,0.1-0.5,0.1
			s-0.5,0.1-0.7,0.1c-1.4,0-2.2-0.8-2.2-2.3v-4.3h-1v-0.6l1.1-0.5l0.5-1.6h0.7v1.7h2.1v0.9h-2.1v4.3c0,0.4,0.1,0.8,0.3,1
			S76.1,121.4,76.5,121.4z"/>
		<path id="XMLID_1389_" class="st9" d="M78.9,112.9c0-0.3,0.1-0.5,0.2-0.6s0.3-0.2,0.5-0.2c0.2,0,0.4,0.1,0.5,0.2
			c0.1,0.1,0.2,0.3,0.2,0.6c0,0.3-0.1,0.5-0.2,0.6c-0.1,0.1-0.3,0.2-0.5,0.2c-0.2,0-0.4-0.1-0.5-0.2C79,113.4,78.9,113.2,78.9,112.9
			z M80.2,122.3H79v-7.4h1.2V122.3z"/>
		<path id="XMLID_1387_" class="st9" d="M87.4,120.2c0,0.7-0.3,1.2-0.8,1.6c-0.5,0.4-1.2,0.6-2.2,0.6c-1,0-1.7-0.2-2.3-0.5v-1.1
			c0.8,0.4,1.6,0.6,2.3,0.6c0.6,0,1.1-0.1,1.3-0.3s0.4-0.5,0.4-0.8c0-0.3-0.1-0.5-0.4-0.7s-0.7-0.4-1.4-0.7
			c-0.7-0.3-1.2-0.5-1.5-0.7c-0.3-0.2-0.5-0.4-0.6-0.6c-0.1-0.2-0.2-0.5-0.2-0.9c0-0.6,0.2-1.1,0.7-1.4s1.2-0.5,2-0.5
			c0.8,0,1.6,0.2,2.4,0.5l-0.4,1c-0.7-0.3-1.4-0.5-2-0.5c-0.5,0-0.9,0.1-1.1,0.2s-0.4,0.4-0.4,0.7c0,0.3,0.1,0.5,0.3,0.7
			c0.2,0.2,0.7,0.4,1.6,0.7c0.6,0.2,1.1,0.4,1.4,0.6c0.3,0.2,0.5,0.4,0.6,0.7C87.3,119.6,87.4,119.9,87.4,120.2z"/>
		<path id="XMLID_1384_" class="st9" d="M95.3,122.4c-1,0-1.7-0.3-2.2-1c-0.5-0.7-0.8-1.6-0.8-2.8c0-1.2,0.3-2.1,0.8-2.8
			c0.5-0.7,1.3-1,2.2-1c1,0,1.8,0.4,2.3,1.1h0.1c0-0.1,0-0.3-0.1-0.5s0-0.5,0-0.5v-2.9h1.2v10.5h-1l-0.2-1h-0.1
			C97.1,122,96.4,122.4,95.3,122.4z M95.5,121.4c0.7,0,1.3-0.2,1.6-0.6c0.3-0.4,0.5-1.1,0.5-2v-0.2c0-1-0.2-1.8-0.5-2.2
			c-0.3-0.4-0.9-0.7-1.6-0.7c-0.6,0-1.1,0.2-1.4,0.7c-0.3,0.5-0.5,1.2-0.5,2.1c0,0.9,0.2,1.6,0.5,2.1
			C94.4,121.2,94.9,121.4,95.5,121.4z"/>
		<path id="XMLID_1381_" class="st9" d="M105.8,122.3l-0.2-1h-0.1c-0.4,0.5-0.7,0.8-1.1,0.9c-0.4,0.2-0.8,0.2-1.4,0.2
			c-0.7,0-1.3-0.2-1.7-0.6s-0.6-0.9-0.6-1.6c0-1.5,1.2-2.3,3.5-2.4l1.3,0v-0.4c0-0.6-0.1-1-0.4-1.2c-0.2-0.3-0.6-0.4-1.2-0.4
			c-0.4,0-0.8,0.1-1.1,0.2c-0.3,0.1-0.7,0.2-1,0.4l-0.4-0.9c0.4-0.2,0.8-0.4,1.2-0.5s0.9-0.2,1.3-0.2c0.9,0,1.6,0.2,2,0.6
			c0.4,0.4,0.7,1,0.7,1.9v5H105.8z M103.3,121.4c0.7,0,1.2-0.2,1.6-0.5s0.6-0.9,0.6-1.6v-0.7l-1.1,0c-0.8,0-1.5,0.2-1.9,0.4
			c-0.4,0.2-0.6,0.6-0.6,1.1c0,0.4,0.1,0.7,0.4,0.9C102.5,121.3,102.8,121.4,103.3,121.4z"/>
		<path id="XMLID_1379_" class="st9" d="M113.9,122.3v-4.7c0-0.6-0.1-1-0.4-1.3s-0.7-0.4-1.3-0.4c-0.8,0-1.3,0.2-1.7,0.6
			c-0.3,0.4-0.5,1.1-0.5,2v3.8h-1.2v-7.4h1l0.2,1h0.1c0.2-0.4,0.5-0.6,1-0.8c0.4-0.2,0.9-0.3,1.4-0.3c0.9,0,1.6,0.2,2,0.7
			c0.4,0.4,0.7,1.1,0.7,2v4.8H113.9z"/>
		<path id="XMLID_1377_" class="st9" d="M122.1,114.9v4.8c0,0.6,0.1,1,0.4,1.3s0.7,0.4,1.2,0.4c0.8,0,1.3-0.2,1.7-0.6
			c0.3-0.4,0.5-1.1,0.5-2v-3.8h1.2v7.4h-1l-0.2-1h-0.1c-0.2,0.4-0.5,0.6-0.9,0.8c-0.4,0.2-0.9,0.3-1.4,0.3c-0.9,0-1.6-0.2-2-0.6
			s-0.7-1.1-0.7-2v-4.8H122.1z"/>
		<path id="XMLID_1375_" class="st9" d="M138.9,122.3v-4.8c0-1.2-0.5-1.7-1.5-1.7c-0.7,0-1.2,0.2-1.5,0.6c-0.3,0.4-0.5,1-0.5,1.8
			v4.1h-1.2v-4.8c0-0.6-0.1-1-0.4-1.3c-0.2-0.3-0.6-0.4-1.1-0.4c-0.7,0-1.2,0.2-1.5,0.6c-0.3,0.4-0.5,1.1-0.5,2v3.8h-1.2v-7.4h1
			l0.2,1h0.1c0.2-0.4,0.5-0.6,0.9-0.8c0.4-0.2,0.8-0.3,1.3-0.3c1.2,0,1.9,0.4,2.3,1.2h0.1c0.2-0.4,0.6-0.7,1-0.9
			c0.4-0.2,0.9-0.3,1.4-0.3c0.8,0,1.5,0.2,1.9,0.6c0.4,0.4,0.6,1.1,0.6,2.1v4.8H138.9z"/>
		<path id="XMLID_1373_" class="st9" d="M143.5,114.9v4.8c0,0.6,0.1,1,0.4,1.3s0.7,0.4,1.2,0.4c0.8,0,1.3-0.2,1.7-0.6
			c0.3-0.4,0.5-1.1,0.5-2v-3.8h1.2v7.4h-1l-0.2-1h-0.1c-0.2,0.4-0.5,0.6-0.9,0.8c-0.4,0.2-0.9,0.3-1.4,0.3c-0.9,0-1.6-0.2-2-0.6
			s-0.7-1.1-0.7-2v-4.8H143.5z"/>
		<path id="XMLID_1371_" class="st9" d="M160.3,122.3v-4.8c0-1.2-0.5-1.7-1.5-1.7c-0.7,0-1.2,0.2-1.5,0.6c-0.3,0.4-0.5,1-0.5,1.8
			v4.1h-1.2v-4.8c0-0.6-0.1-1-0.4-1.3c-0.2-0.3-0.6-0.4-1.1-0.4c-0.7,0-1.2,0.2-1.5,0.6c-0.3,0.4-0.5,1.1-0.5,2v3.8h-1.2v-7.4h1
			l0.2,1h0.1c0.2-0.4,0.5-0.6,0.9-0.8c0.4-0.2,0.8-0.3,1.3-0.3c1.2,0,1.9,0.4,2.3,1.2h0.1c0.2-0.4,0.6-0.7,1-0.9
			c0.4-0.2,0.9-0.3,1.4-0.3c0.8,0,1.5,0.2,1.9,0.6c0.4,0.4,0.6,1.1,0.6,2.1v4.8H160.3z"/>
		<path id="XMLID_1369_" class="st9" d="M46.2,131.4v4.8c0,0.6,0.1,1,0.4,1.3s0.7,0.4,1.2,0.4c0.8,0,1.3-0.2,1.7-0.6s0.5-1.1,0.5-2
			v-3.8h1.2v7.4h-1l-0.2-1H50c-0.2,0.4-0.5,0.6-0.9,0.8s-0.9,0.3-1.4,0.3c-0.9,0-1.6-0.2-2-0.6s-0.7-1.1-0.7-2v-4.8H46.2z"/>
		<path id="XMLID_1367_" class="st9" d="M58.6,138.8v-4.7c0-0.6-0.1-1-0.4-1.3c-0.3-0.3-0.7-0.4-1.3-0.4c-0.8,0-1.3,0.2-1.6,0.6
			c-0.3,0.4-0.5,1.1-0.5,2v3.8h-1.2v-7.4h1l0.2,1h0.1c0.2-0.4,0.5-0.6,1-0.8s0.9-0.3,1.4-0.3c0.9,0,1.6,0.2,2,0.7s0.7,1.1,0.7,2v4.8
			H58.6z"/>
		<path id="XMLID_1365_" class="st9" d="M64.6,137.9c0.2,0,0.3,0,0.6,0c0.2,0,0.4-0.1,0.5-0.1v0.9c-0.1,0-0.3,0.1-0.5,0.1
			c-0.2,0-0.5,0.1-0.7,0.1c-1.4,0-2.2-0.8-2.2-2.3v-4.3h-1v-0.6l1.1-0.5l0.5-1.6h0.7v1.7h2.1v0.9h-2.1v4.3c0,0.4,0.1,0.8,0.3,1
			C63.9,137.8,64.2,137.9,64.6,137.9z"/>
		<path id="XMLID_1363_" class="st9" d="M68.2,131.4v4.8c0,0.6,0.1,1,0.4,1.3s0.7,0.4,1.2,0.4c0.8,0,1.3-0.2,1.7-0.6s0.5-1.1,0.5-2
			v-3.8h1.2v7.4h-1l-0.2-1H72c-0.2,0.4-0.5,0.6-0.9,0.8s-0.9,0.3-1.4,0.3c-0.9,0-1.6-0.2-2-0.6s-0.7-1.1-0.7-2v-4.8H68.2z"/>
		<path id="XMLID_1361_" class="st9" d="M76.8,135l0.4-0.5l0.5-0.6l2.4-2.5h1.4l-3,3.2l3.2,4.2h-1.5l-2.6-3.4l-0.8,0.7v2.7h-1.2
			v-10.5h1.2v5.5V135L76.8,135z"/>
		<path id="XMLID_1290_" class="st9" d="M87.7,135l0.4-0.5l0.5-0.6l2.4-2.5h1.4l-3,3.2l3.2,4.2h-1.5l-2.6-3.4l-0.8,0.7v2.7h-1.2
			v-10.5h1.2v5.5V135L87.7,135z"/>
		<path id="XMLID_1287_" class="st9" d="M96.9,138.9c-1.1,0-2-0.3-2.6-1s-0.9-1.6-0.9-2.8c0-1.2,0.3-2.1,0.9-2.8
			c0.6-0.7,1.4-1.1,2.4-1.1c0.9,0,1.7,0.3,2.2,0.9c0.6,0.6,0.8,1.4,0.8,2.4v0.7h-5.1c0,0.8,0.2,1.5,0.6,1.9c0.4,0.4,1,0.7,1.7,0.7
			c0.4,0,0.8,0,1.1-0.1c0.4-0.1,0.8-0.2,1.2-0.4v1.1c-0.4,0.2-0.8,0.3-1.1,0.4C97.8,138.9,97.4,138.9,96.9,138.9z M96.6,132.3
			c-0.6,0-1,0.2-1.4,0.6c-0.3,0.4-0.5,0.9-0.6,1.6h3.8c0-0.7-0.2-1.2-0.5-1.6S97.1,132.3,96.6,132.3z"/>
		<path id="XMLID_1284_" class="st9" d="M105,131.3c1,0,1.7,0.3,2.3,1s0.8,1.6,0.8,2.8c0,1.2-0.3,2.2-0.8,2.8c-0.5,0.7-1.3,1-2.2,1
			c-0.5,0-0.9-0.1-1.3-0.3c-0.4-0.2-0.7-0.4-1-0.8h-0.1c-0.1,0.5-0.2,0.8-0.2,0.9h-0.9v-10.5h1.2v2.5c0,0.5,0,1-0.1,1.5h0.1
			C103.2,131.7,104,131.3,105,131.3z M104.8,132.3c-0.7,0-1.3,0.2-1.6,0.6c-0.3,0.4-0.5,1.1-0.5,2.1v0.1c0,1,0.2,1.7,0.5,2.2
			c0.3,0.4,0.9,0.6,1.6,0.6c0.7,0,1.2-0.2,1.5-0.7c0.3-0.5,0.5-1.2,0.5-2.1c0-0.9-0.2-1.6-0.5-2.1
			C106,132.5,105.5,132.3,104.8,132.3z"/>
		<path id="XMLID_1281_" class="st9" d="M114.5,138.8l-0.2-1h-0.1c-0.4,0.5-0.7,0.8-1.1,0.9c-0.4,0.2-0.8,0.2-1.4,0.2
			c-0.7,0-1.3-0.2-1.7-0.6s-0.6-0.9-0.6-1.6c0-1.5,1.2-2.3,3.5-2.4l1.3,0v-0.4c0-0.6-0.1-1-0.4-1.2c-0.2-0.3-0.6-0.4-1.2-0.4
			c-0.4,0-0.8,0.1-1.1,0.2c-0.3,0.1-0.7,0.2-1,0.4l-0.4-0.9c0.4-0.2,0.8-0.4,1.2-0.5c0.4-0.1,0.9-0.2,1.3-0.2c0.9,0,1.6,0.2,2,0.6
			s0.7,1,0.7,1.9v5H114.5z M112,138c0.7,0,1.2-0.2,1.6-0.5s0.6-0.9,0.6-1.6v-0.7l-1.1,0c-0.8,0-1.5,0.2-1.9,0.4
			c-0.4,0.2-0.6,0.6-0.6,1.1c0,0.4,0.1,0.7,0.4,0.9C111.3,137.9,111.6,138,112,138z"/>
		<path id="XMLID_1279_" class="st9" d="M122.7,138.8v-4.7c0-0.6-0.1-1-0.4-1.3c-0.3-0.3-0.7-0.4-1.3-0.4c-0.8,0-1.3,0.2-1.7,0.6
			c-0.3,0.4-0.5,1.1-0.5,2v3.8h-1.2v-7.4h1l0.2,1h0.1c0.2-0.4,0.5-0.6,1-0.8s0.9-0.3,1.4-0.3c0.9,0,1.6,0.2,2,0.7
			c0.4,0.4,0.7,1.1,0.7,2v4.8H122.7z"/>
		<path id="XMLID_1277_" class="st9" d="M125,131.4h1.3l1.6,4.2c0.3,0.9,0.5,1.6,0.6,2h0.1c0-0.2,0.1-0.5,0.3-0.9s0.3-0.8,0.4-1.1
			l1.5-4.2h1.3l-3.2,8.4c-0.3,0.8-0.7,1.4-1.1,1.8c-0.4,0.4-1,0.5-1.6,0.5c-0.3,0-0.7,0-1-0.1v-1c0.2,0.1,0.5,0.1,0.8,0.1
			c0.4,0,0.7-0.1,1-0.3s0.5-0.5,0.7-1l0.4-1L125,131.4z"/>
		<path id="XMLID_1274_" class="st9" d="M137.8,138.8l-0.2-1h-0.1c-0.4,0.5-0.7,0.8-1.1,0.9c-0.4,0.2-0.8,0.2-1.4,0.2
			c-0.7,0-1.3-0.2-1.7-0.6c-0.4-0.4-0.6-0.9-0.6-1.6c0-1.5,1.2-2.3,3.5-2.4l1.3,0v-0.4c0-0.6-0.1-1-0.4-1.2
			c-0.2-0.3-0.6-0.4-1.2-0.4c-0.4,0-0.8,0.1-1.1,0.2c-0.3,0.1-0.7,0.2-1,0.4l-0.4-0.9c0.4-0.2,0.8-0.4,1.2-0.5
			c0.4-0.1,0.9-0.2,1.3-0.2c0.9,0,1.6,0.2,2,0.6s0.7,1,0.7,1.9v5H137.8z M135.3,138c0.7,0,1.2-0.2,1.6-0.5s0.6-0.9,0.6-1.6v-0.7
			l-1.1,0c-0.8,0-1.5,0.2-1.9,0.4s-0.6,0.6-0.6,1.1c0,0.4,0.1,0.7,0.4,0.9C134.5,137.9,134.8,138,135.3,138z"/>
		<path id="XMLID_1272_" class="st9" d="M142.1,135l0.4-0.5l0.5-0.6l2.4-2.5h1.4l-3,3.2l3.2,4.2h-1.5l-2.6-3.4l-0.8,0.7v2.7h-1.2
			v-10.5h1.2v5.5V135L142.1,135z"/>
		<path id="XMLID_1269_" class="st9" d="M152.8,138.8l-0.2-1h-0.1c-0.4,0.5-0.7,0.8-1.1,0.9c-0.4,0.2-0.8,0.2-1.4,0.2
			c-0.7,0-1.3-0.2-1.7-0.6c-0.4-0.4-0.6-0.9-0.6-1.6c0-1.5,1.2-2.3,3.5-2.4l1.3,0v-0.4c0-0.6-0.1-1-0.4-1.2
			c-0.2-0.3-0.6-0.4-1.2-0.4c-0.4,0-0.8,0.1-1.1,0.2c-0.3,0.1-0.7,0.2-1,0.4l-0.4-0.9c0.4-0.2,0.8-0.4,1.2-0.5
			c0.4-0.1,0.9-0.2,1.3-0.2c0.9,0,1.6,0.2,2,0.6s0.7,1,0.7,1.9v5H152.8z M150.3,138c0.7,0,1.2-0.2,1.6-0.5s0.6-0.9,0.6-1.6v-0.7
			l-1.1,0c-0.8,0-1.5,0.2-1.9,0.4s-0.6,0.6-0.6,1.1c0,0.4,0.1,0.7,0.4,0.9C149.6,137.9,149.9,138,150.3,138z"/>
		<path id="XMLID_1267_" class="st9" d="M161,138.8v-4.7c0-0.6-0.1-1-0.4-1.3c-0.3-0.3-0.7-0.4-1.3-0.4c-0.8,0-1.3,0.2-1.6,0.6
			c-0.3,0.4-0.5,1.1-0.5,2v3.8H156v-7.4h1l0.2,1h0.1c0.2-0.4,0.5-0.6,1-0.8s0.9-0.3,1.4-0.3c0.9,0,1.6,0.2,2,0.7
			c0.4,0.4,0.7,1.1,0.7,2v4.8H161z"/>
		<path id="XMLID_1264_" class="st9" d="M51.5,151.6c0,1.2-0.3,2.1-0.9,2.8s-1.5,1-2.5,1c-0.7,0-1.3-0.2-1.8-0.5
			c-0.5-0.3-0.9-0.8-1.2-1.3c-0.3-0.6-0.4-1.3-0.4-2c0-1.2,0.3-2.1,0.9-2.8c0.6-0.7,1.4-1,2.5-1c1,0,1.9,0.3,2.5,1
			C51.2,149.5,51.5,150.4,51.5,151.6z M45.9,151.6c0,0.9,0.2,1.6,0.5,2.1s0.9,0.7,1.6,0.7c0.7,0,1.2-0.2,1.6-0.7s0.6-1.2,0.6-2.1
			c0-0.9-0.2-1.6-0.6-2.1s-0.9-0.7-1.6-0.7C46.6,148.8,45.9,149.7,45.9,151.6z"/>
		<path id="XMLID_1262_" class="st9" d="M56.9,147.8c0.3,0,0.6,0,0.9,0.1l-0.1,1.1c-0.3-0.1-0.5-0.1-0.8-0.1c-0.4,0-0.8,0.1-1.1,0.3
			s-0.6,0.5-0.8,0.9c-0.2,0.4-0.3,0.8-0.3,1.3v3.9h-1.2v-7.4h1l0.1,1.4h0.1c0.3-0.5,0.6-0.9,1-1.1S56.4,147.8,56.9,147.8z"/>
		<path id="XMLID_1259_" class="st9" d="M63.5,155.3l-0.2-1h-0.1c-0.4,0.5-0.7,0.8-1.1,0.9c-0.4,0.2-0.8,0.2-1.4,0.2
			c-0.7,0-1.3-0.2-1.7-0.6c-0.4-0.4-0.6-0.9-0.6-1.6c0-1.5,1.2-2.3,3.5-2.4l1.3,0v-0.4c0-0.6-0.1-1-0.4-1.2
			c-0.2-0.3-0.6-0.4-1.2-0.4c-0.4,0-0.8,0.1-1.1,0.2c-0.3,0.1-0.7,0.2-1,0.4l-0.4-0.9c0.4-0.2,0.8-0.4,1.2-0.5
			c0.4-0.1,0.9-0.2,1.3-0.2c0.9,0,1.6,0.2,2,0.6s0.7,1,0.7,1.9v5H63.5z M61,154.5c0.7,0,1.2-0.2,1.6-0.5s0.6-0.9,0.6-1.6v-0.7
			l-1.1,0c-0.8,0-1.5,0.2-1.9,0.4c-0.4,0.2-0.6,0.6-0.6,1.1c0,0.4,0.1,0.7,0.4,0.9C60.3,154.4,60.6,154.5,61,154.5z"/>
		<path id="XMLID_1257_" class="st9" d="M71.7,155.3v-4.7c0-0.6-0.1-1-0.4-1.3c-0.3-0.3-0.7-0.4-1.3-0.4c-0.8,0-1.3,0.2-1.6,0.6
			c-0.3,0.4-0.5,1.1-0.5,2v3.8h-1.2v-7.4h1l0.2,1h0.1c0.2-0.4,0.5-0.6,1-0.8c0.4-0.2,0.9-0.3,1.4-0.3c0.9,0,1.6,0.2,2,0.7
			c0.4,0.4,0.7,1.1,0.7,2v4.8H71.7z"/>
		<path id="XMLID_1254_" class="st9" d="M80.1,155.2l0-0.9h-0.1c-0.5,0.7-1.3,1.1-2.3,1.1c-1,0-1.7-0.3-2.2-1
			c-0.5-0.7-0.8-1.6-0.8-2.8c0-1.2,0.3-2.1,0.8-2.8s1.3-1,2.2-1c1,0,1.8,0.4,2.3,1.1h0.1l0.2-1h1v7.5c0,1.1-0.3,1.9-0.8,2.4
			c-0.5,0.5-1.4,0.8-2.5,0.8c-1.1,0-2-0.2-2.7-0.5V157c0.7,0.4,1.6,0.6,2.7,0.6c0.6,0,1.1-0.2,1.5-0.6s0.5-0.9,0.5-1.5V155.2z
			 M78,154.5c0.7,0,1.3-0.2,1.6-0.6c0.3-0.4,0.5-1,0.5-1.9v-0.3c0-1-0.2-1.7-0.5-2.2c-0.3-0.4-0.9-0.7-1.6-0.7
			c-0.6,0-1.1,0.2-1.4,0.7c-0.3,0.5-0.5,1.2-0.5,2.1c0,0.9,0.2,1.6,0.5,2.1C76.9,154.2,77.4,154.5,78,154.5z"/>
	</g>
</g>
<polygon id="XMLID_7079_" class="st1" points="20.2,167.2 20.2,148.1 1,167.3 "/>
</svg>
