<?xml version="1.0" encoding="utf-8"?>
<!-- Generator: Adobe Illustrator 19.0.0, SVG Export Plug-In . SVG Version: 6.00 Build 0)  -->
<svg version="1.1" id="Layer_1" xmlns="http://www.w3.org/2000/svg" xmlns:xlink="http://www.w3.org/1999/xlink" x="0px" y="0px"
	 viewBox="0 0 167 167.2" style="enable-background:new 0 0 167 167.2;" xml:space="preserve">
<style type="text/css">
	.st0{fill:#125B7C;}
	.st1{fill:#FFFFFF;}
	.st2{fill:#CD202B;}
	.st3{fill:#197696;}
	.st4{fill:#AA732A;}
	.st5{fill:#D1ECF3;}
	.st6{fill:#F3B23E;}
	.st7{fill:#D3D7D8;}
	.st8{fill:#404040;}
</style>
<rect id="XMLID_299_" x="0" y="0" class="st0" width="150" height="167"/>
<polygon id="XMLID_298_" class="st1" points="147.8,167.1 147.8,148 167,167.2 "/>
<rect id="XMLID_297_" x="0" y="88.8" class="st1" width="150" height="78.2"/>
<g id="XMLID_247_">
	<circle id="XMLID_251_" class="st2" cx="9.5" cy="101.1" r="4"/>
	<path id="XMLID_250_" class="st2" d="M5.4,101.1h8.1v10.1C13.5,111.2,5.4,106.3,5.4,101.1z"/>
	<circle id="XMLID_249_" class="st2" cx="17.5" cy="101" r="4"/>
	<path id="XMLID_248_" class="st2" d="M21.6,101h-8.1V111C13.5,111,21.6,106.1,21.6,101z"/>
</g>
<g id="XMLID_905_">
	<rect id="XMLID_246_" x="62" y="17.8" class="st3" width="39.2" height="56.8"/>
	<path id="XMLID_245_" class="st4" d="M94.5,77.3H58.9c-3.7,0-6.7-3-6.7-6.7l0,0c0-3.7,3-6.7,6.7-6.7h35.6c3.7,0,6.7,3,6.7,6.7l0,0
		C101.2,74.3,98.2,77.3,94.5,77.3z"/>
	<rect id="XMLID_244_" x="62" y="13" class="st5" width="39.2" height="56.8"/>
	<rect id="XMLID_243_" x="66.7" y="21.1" class="st6" width="31.3" height="9.8"/>
	<rect id="XMLID_242_" x="59.4" y="69.9" class="st1" width="38.7" height="4.7"/>
	<path id="XMLID_241_" class="st4" d="M62,13c0,0-9.7,0.9-9.7,11.4v45.6c0,2.7,3,4.3,5.3,2.8l4.4-3v-2.2V13z"/>
	<circle id="XMLID_240_" class="st1" cx="59.6" cy="71.3" r="3.3"/>
	<rect id="XMLID_212_" x="59.4" y="68" class="st7" width="38.7" height="2.4"/>
	<rect id="XMLID_209_" x="98.1" y="68" class="st0" width="8.6" height="6.6"/>
</g>
<g id="XMLID_252_">
	<g id="XMLID_1227_">
		<path id="XMLID_1329_" class="st8" d="M24.8,98.3h3.1c1.4,0,2.4,0.2,3.1,0.6s1,1,1,1.9c0,0.6-0.1,1.1-0.4,1.5s-0.7,0.6-1.1,0.7
			v0.1c0.6,0.1,1.1,0.4,1.4,0.8c0.3,0.4,0.4,0.9,0.4,1.5c0,0.9-0.3,1.6-1,2.1c-0.7,0.5-1.6,0.8-2.7,0.8h-3.7V98.3z M26.9,102.2h1.2
			c0.6,0,1-0.1,1.2-0.3s0.4-0.5,0.4-0.9c0-0.4-0.1-0.7-0.4-0.8c-0.3-0.2-0.7-0.3-1.3-0.3h-1.1V102.2z M26.9,103.9v2.6h1.4
			c0.6,0,1-0.1,1.3-0.3c0.3-0.2,0.4-0.6,0.4-1c0-0.8-0.6-1.2-1.8-1.2H26.9z"/>
		<path id="XMLID_1327_" class="st8" d="M39.5,108.3l-0.3-1h-0.1c-0.2,0.4-0.5,0.6-1,0.8c-0.4,0.2-0.9,0.3-1.4,0.3
			c-0.9,0-1.6-0.2-2-0.7c-0.5-0.5-0.7-1.2-0.7-2.1v-5h2.1v4.5c0,0.6,0.1,1,0.3,1.2c0.2,0.3,0.5,0.4,0.9,0.4c0.6,0,1-0.2,1.3-0.6
			s0.4-1,0.4-1.9v-3.6h2.1v7.6H39.5z"/>
		<path id="XMLID_1325_" class="st8" d="M45.3,104.1l0.9-1.2l2.1-2.3h2.4l-3,3.3l3.2,4.3h-2.4l-2.2-3.1l-0.9,0.7v2.4h-2.1V97.6h2.1
			v4.7L45.3,104.1L45.3,104.1z"/>
		<path id="XMLID_1323_" class="st8" d="M57.4,108.3l-0.3-1H57c-0.2,0.4-0.5,0.6-1,0.8c-0.4,0.2-0.9,0.3-1.4,0.3
			c-0.9,0-1.6-0.2-2-0.7c-0.5-0.5-0.7-1.2-0.7-2.1v-5H54v4.5c0,0.6,0.1,1,0.3,1.2c0.2,0.3,0.5,0.4,0.9,0.4c0.6,0,1-0.2,1.3-0.6
			s0.4-1,0.4-1.9v-3.6H59v7.6H57.4z"/>
		<path id="XMLID_1321_" class="st8" d="M30.6,122.4c0,0.9-0.3,1.6-0.9,2.1c-0.6,0.5-1.5,0.8-2.6,0.8c-1.2,0-2.1-0.2-2.7-0.5v-1.2
			c0.4,0.2,0.9,0.3,1.4,0.4c0.5,0.1,1,0.2,1.4,0.2c0.7,0,1.3-0.1,1.7-0.4c0.4-0.3,0.6-0.7,0.6-1.2c0-0.3-0.1-0.6-0.2-0.8
			c-0.1-0.2-0.4-0.4-0.7-0.6c-0.3-0.2-0.8-0.4-1.5-0.6c-0.9-0.3-1.6-0.7-2-1.2s-0.6-1-0.6-1.8c0-0.8,0.3-1.4,0.9-1.9
			c0.6-0.5,1.4-0.7,2.3-0.7c1,0,1.9,0.2,2.8,0.6l-0.4,1.1c-0.9-0.4-1.7-0.5-2.4-0.5c-0.6,0-1.1,0.1-1.4,0.4
			c-0.3,0.3-0.5,0.6-0.5,1.1c0,0.3,0.1,0.6,0.2,0.8c0.1,0.2,0.3,0.4,0.6,0.6s0.7,0.4,1.4,0.6c0.7,0.3,1.3,0.5,1.7,0.8
			c0.4,0.3,0.6,0.6,0.8,0.9C30.5,121.5,30.6,121.9,30.6,122.4z"/>
		<path id="XMLID_1318_" class="st8" d="M37.1,125.1l-0.2-1.1h-0.1c-0.4,0.5-0.7,0.8-1.1,1c-0.4,0.2-0.8,0.2-1.4,0.2
			c-0.7,0-1.3-0.2-1.7-0.6c-0.4-0.4-0.6-0.9-0.6-1.6c0-1.5,1.2-2.3,3.6-2.4l1.3,0v-0.4c0-0.6-0.1-1-0.4-1.3
			c-0.2-0.3-0.6-0.4-1.2-0.4c-0.4,0-0.8,0.1-1.1,0.2c-0.4,0.1-0.7,0.3-1,0.4l-0.4-0.9c0.4-0.2,0.8-0.4,1.2-0.5
			c0.4-0.1,0.9-0.2,1.3-0.2c0.9,0,1.6,0.2,2,0.6c0.4,0.4,0.7,1,0.7,1.9v5.1H37.1z M34.5,124.2c0.7,0,1.2-0.2,1.6-0.6
			c0.4-0.4,0.6-0.9,0.6-1.6v-0.7l-1.1,0c-0.9,0-1.5,0.2-1.9,0.4c-0.4,0.2-0.6,0.6-0.6,1.1c0,0.4,0.1,0.7,0.4,0.9
			C33.8,124.1,34.1,124.2,34.5,124.2z"/>
		<path id="XMLID_1316_" class="st8" d="M39.1,117.5h1.3l1.6,4.3c0.3,0.9,0.6,1.6,0.6,2h0.1c0-0.2,0.1-0.5,0.3-0.9
			c0.1-0.5,0.3-0.8,0.4-1.1l1.5-4.3h1.3l-3.2,8.5c-0.3,0.8-0.7,1.4-1.1,1.8c-0.4,0.4-1,0.5-1.6,0.5c-0.3,0-0.7,0-1-0.1v-1
			c0.2,0.1,0.5,0.1,0.8,0.1c0.4,0,0.7-0.1,1-0.3c0.3-0.2,0.5-0.6,0.7-1l0.4-1L39.1,117.5z"/>
		<path id="XMLID_1313_" class="st8" d="M52.1,125.1l-0.2-1.1h-0.1c-0.4,0.5-0.7,0.8-1.1,1c-0.4,0.2-0.8,0.2-1.4,0.2
			c-0.7,0-1.3-0.2-1.7-0.6c-0.4-0.4-0.6-0.9-0.6-1.6c0-1.5,1.2-2.3,3.6-2.4l1.3,0v-0.4c0-0.6-0.1-1-0.4-1.3
			c-0.2-0.3-0.6-0.4-1.2-0.4c-0.4,0-0.8,0.1-1.1,0.2c-0.4,0.1-0.7,0.3-1,0.4l-0.4-0.9c0.4-0.2,0.8-0.4,1.2-0.5
			c0.4-0.1,0.9-0.2,1.3-0.2c0.9,0,1.6,0.2,2,0.6c0.4,0.4,0.7,1,0.7,1.9v5.1H52.1z M49.5,124.2c0.7,0,1.2-0.2,1.6-0.6
			c0.4-0.4,0.6-0.9,0.6-1.6v-0.7l-1.1,0c-0.9,0-1.5,0.2-1.9,0.4c-0.4,0.2-0.6,0.6-0.6,1.1c0,0.4,0.1,0.7,0.4,0.9
			C48.8,124.1,49.1,124.2,49.5,124.2z"/>
		<path id="XMLID_1311_" class="st8" d="M68.5,125.1v-4.8c0-1.2-0.5-1.8-1.5-1.8c-0.7,0-1.2,0.2-1.5,0.6c-0.3,0.4-0.5,1-0.5,1.9v4.1
			h-1.2v-4.8c0-0.6-0.1-1-0.4-1.3c-0.2-0.3-0.6-0.4-1.2-0.4c-0.7,0-1.2,0.2-1.5,0.6s-0.5,1.1-0.5,2.1v3.9h-1.2v-7.5h1l0.2,1h0.1
			c0.2-0.4,0.5-0.6,0.9-0.9s0.8-0.3,1.3-0.3c1.2,0,1.9,0.4,2.3,1.3h0.1c0.2-0.4,0.6-0.7,1-0.9s0.9-0.3,1.4-0.3
			c0.8,0,1.5,0.2,1.9,0.7s0.6,1.1,0.6,2.1v4.9H68.5z"/>
		<path id="XMLID_1308_" class="st8" d="M75.2,125.2c-1.1,0-2-0.3-2.6-1c-0.6-0.7-1-1.6-1-2.8c0-1.2,0.3-2.2,0.9-2.9
			c0.6-0.7,1.4-1.1,2.4-1.1c0.9,0,1.7,0.3,2.3,0.9s0.8,1.4,0.8,2.5v0.7h-5.1c0,0.9,0.2,1.5,0.6,1.9c0.4,0.4,1,0.7,1.7,0.7
			c0.4,0,0.8,0,1.1-0.1c0.4-0.1,0.8-0.2,1.3-0.4v1.1c-0.4,0.2-0.8,0.3-1.2,0.4C76.1,125.2,75.7,125.2,75.2,125.2z M74.9,118.4
			c-0.6,0-1.1,0.2-1.4,0.6c-0.3,0.4-0.5,0.9-0.6,1.6h3.8c0-0.7-0.2-1.2-0.5-1.6C75.9,118.6,75.5,118.4,74.9,118.4z"/>
		<path id="XMLID_1306_" class="st8" d="M85,125.1v-4.8c0-0.6-0.1-1.1-0.4-1.4c-0.3-0.3-0.7-0.4-1.3-0.4c-0.8,0-1.3,0.2-1.7,0.6
			c-0.3,0.4-0.5,1.1-0.5,2.1v3.9h-1.2v-7.5h1l0.2,1h0.1c0.2-0.4,0.6-0.7,1-0.9c0.4-0.2,0.9-0.3,1.4-0.3c0.9,0,1.6,0.2,2.1,0.7
			c0.4,0.4,0.7,1.1,0.7,2.1v4.9H85z"/>
		<path id="XMLID_1303_" class="st8" d="M93.6,125l0-0.9h-0.1c-0.5,0.8-1.3,1.1-2.3,1.1c-1,0-1.7-0.3-2.3-1s-0.8-1.6-0.8-2.9
			c0-1.2,0.3-2.2,0.8-2.9s1.3-1,2.3-1c1,0,1.8,0.4,2.4,1.1h0.1l0.2-1h1v7.6c0,1.1-0.3,1.9-0.8,2.4c-0.5,0.5-1.4,0.8-2.5,0.8
			c-1.1,0-2-0.2-2.7-0.5v-1.1c0.7,0.4,1.7,0.6,2.8,0.6c0.6,0,1.1-0.2,1.5-0.6c0.4-0.4,0.6-0.9,0.6-1.6V125z M91.4,124.2
			c0.8,0,1.3-0.2,1.7-0.6c0.3-0.4,0.5-1.1,0.5-2v-0.3c0-1-0.2-1.7-0.5-2.2c-0.3-0.5-0.9-0.7-1.7-0.7c-0.6,0-1.1,0.3-1.5,0.7
			s-0.5,1.2-0.5,2.1c0,0.9,0.2,1.6,0.5,2.1C90.2,123.9,90.7,124.2,91.4,124.2z"/>
		<path id="XMLID_1300_" class="st8" d="M101.8,125.1l-0.2-1.1h-0.1c-0.4,0.5-0.7,0.8-1.1,1c-0.4,0.2-0.8,0.2-1.4,0.2
			c-0.7,0-1.3-0.2-1.7-0.6c-0.4-0.4-0.6-0.9-0.6-1.6c0-1.5,1.2-2.3,3.6-2.4l1.3,0v-0.4c0-0.6-0.1-1-0.4-1.3
			c-0.2-0.3-0.6-0.4-1.2-0.4c-0.4,0-0.8,0.1-1.1,0.2c-0.4,0.1-0.7,0.3-1,0.4l-0.4-0.9c0.4-0.2,0.8-0.4,1.2-0.5
			c0.4-0.1,0.9-0.2,1.3-0.2c0.9,0,1.6,0.2,2,0.6c0.4,0.4,0.7,1,0.7,1.9v5.1H101.8z M99.3,124.2c0.7,0,1.2-0.2,1.6-0.6
			c0.4-0.4,0.6-0.9,0.6-1.6v-0.7l-1.1,0c-0.9,0-1.5,0.2-1.9,0.4c-0.4,0.2-0.6,0.6-0.6,1.1c0,0.4,0.1,0.7,0.4,0.9
			C98.5,124.1,98.8,124.2,99.3,124.2z"/>
		<path id="XMLID_1297_" class="st8" d="M110,125l0-0.9H110c-0.5,0.8-1.3,1.1-2.3,1.1c-1,0-1.7-0.3-2.3-1s-0.8-1.6-0.8-2.9
			c0-1.2,0.3-2.2,0.8-2.9s1.3-1,2.3-1c1,0,1.8,0.4,2.4,1.1h0.1l0.2-1h1v7.6c0,1.1-0.3,1.9-0.8,2.4c-0.5,0.5-1.4,0.8-2.5,0.8
			c-1.1,0-2-0.2-2.7-0.5v-1.1c0.7,0.4,1.7,0.6,2.8,0.6c0.6,0,1.1-0.2,1.5-0.6c0.4-0.4,0.6-0.9,0.6-1.6V125z M107.9,124.2
			c0.8,0,1.3-0.2,1.7-0.6c0.3-0.4,0.5-1.1,0.5-2v-0.3c0-1-0.2-1.7-0.5-2.2c-0.3-0.5-0.9-0.7-1.7-0.7c-0.6,0-1.1,0.3-1.5,0.7
			s-0.5,1.2-0.5,2.1c0,0.9,0.2,1.6,0.5,2.1C106.7,123.9,107.2,124.2,107.9,124.2z"/>
		<path id="XMLID_1294_" class="st8" d="M118.6,125l0-0.9h-0.1c-0.5,0.8-1.3,1.1-2.3,1.1c-1,0-1.7-0.3-2.3-1s-0.8-1.6-0.8-2.9
			c0-1.2,0.3-2.2,0.8-2.9s1.3-1,2.3-1c1,0,1.8,0.4,2.4,1.1h0.1l0.2-1h1v7.6c0,1.1-0.3,1.9-0.8,2.4c-0.5,0.5-1.4,0.8-2.5,0.8
			c-1.1,0-2-0.2-2.7-0.5v-1.1c0.7,0.4,1.7,0.6,2.8,0.6c0.6,0,1.1-0.2,1.5-0.6c0.4-0.4,0.6-0.9,0.6-1.6V125z M116.5,124.2
			c0.8,0,1.3-0.2,1.7-0.6c0.3-0.4,0.5-1.1,0.5-2v-0.3c0-1-0.2-1.7-0.5-2.2c-0.3-0.5-0.9-0.7-1.7-0.7c-0.6,0-1.1,0.3-1.5,0.7
			s-0.5,1.2-0.5,2.1c0,0.9,0.2,1.6,0.5,2.1C115.3,123.9,115.8,124.2,116.5,124.2z"/>
		<path id="XMLID_1292_" class="st8" d="M123.4,117.5v4.8c0,0.6,0.1,1.1,0.4,1.4s0.7,0.4,1.3,0.4c0.8,0,1.3-0.2,1.7-0.6
			c0.4-0.4,0.5-1.1,0.5-2.1v-3.9h1.2v7.5h-1l-0.2-1h-0.1c-0.2,0.4-0.5,0.6-1,0.8c-0.4,0.2-0.9,0.3-1.4,0.3c-0.9,0-1.6-0.2-2-0.6
			c-0.5-0.4-0.7-1.1-0.7-2.1v-4.9H123.4z"/>
		<path id="XMLID_1290_" class="st8" d="M140.5,125.1v-4.8c0-1.2-0.5-1.8-1.5-1.8c-0.7,0-1.2,0.2-1.5,0.6c-0.3,0.4-0.5,1-0.5,1.9
			v4.1h-1.2v-4.8c0-0.6-0.1-1-0.4-1.3c-0.2-0.3-0.6-0.4-1.2-0.4c-0.7,0-1.2,0.2-1.5,0.6s-0.5,1.1-0.5,2.1v3.9h-1.2v-7.5h1l0.2,1h0.1
			c0.2-0.4,0.5-0.6,0.9-0.9s0.8-0.3,1.3-0.3c1.2,0,1.9,0.4,2.3,1.3h0.1c0.2-0.4,0.6-0.7,1-0.9s0.9-0.3,1.4-0.3
			c0.8,0,1.5,0.2,1.9,0.7s0.6,1.1,0.6,2.1v4.9H140.5z"/>
		<path id="XMLID_1287_" class="st8" d="M143.9,115.5c0-0.3,0.1-0.5,0.2-0.6s0.3-0.2,0.5-0.2c0.2,0,0.4,0.1,0.5,0.2s0.2,0.3,0.2,0.6
			c0,0.3-0.1,0.5-0.2,0.6c-0.1,0.1-0.3,0.2-0.5,0.2c-0.2,0-0.4-0.1-0.5-0.2C144,116,143.9,115.8,143.9,115.5z M145.2,125.1H144v-7.5
			h1.2V125.1z"/>
		<path id="XMLID_1284_" class="st8" d="M28.3,142c-1,0-1.8-0.4-2.3-1.1h-0.1l0,0.3c0,0.4,0.1,0.7,0.1,1v3.1h-1.2v-10.9h1l0.2,1H26
			c0.3-0.4,0.6-0.7,1-0.9c0.4-0.2,0.8-0.3,1.3-0.3c1,0,1.7,0.3,2.3,1s0.8,1.6,0.8,2.9c0,1.2-0.3,2.2-0.8,2.9
			C30,141.6,29.3,142,28.3,142z M28.1,135.2c-0.7,0-1.3,0.2-1.6,0.6c-0.3,0.4-0.5,1.1-0.5,2v0.2c0,1,0.2,1.8,0.5,2.2
			c0.3,0.5,0.9,0.7,1.6,0.7c0.6,0,1.1-0.3,1.5-0.8c0.4-0.5,0.5-1.2,0.5-2.1c0-0.9-0.2-1.6-0.5-2.1S28.7,135.2,28.1,135.2z"/>
		<path id="XMLID_1281_" class="st8" d="M36.6,142c-1.1,0-2-0.3-2.6-1c-0.6-0.7-1-1.6-1-2.8c0-1.2,0.3-2.2,0.9-2.9
			c0.6-0.7,1.4-1.1,2.4-1.1c0.9,0,1.7,0.3,2.3,0.9s0.8,1.4,0.8,2.5v0.7h-5.1c0,0.9,0.2,1.5,0.6,1.9c0.4,0.4,1,0.7,1.7,0.7
			c0.4,0,0.8,0,1.1-0.1c0.4-0.1,0.8-0.2,1.3-0.4v1.1c-0.4,0.2-0.8,0.3-1.2,0.4C37.5,142,37.1,142,36.6,142z M36.2,135.2
			c-0.6,0-1.1,0.2-1.4,0.6c-0.3,0.4-0.5,0.9-0.6,1.6h3.8c0-0.7-0.2-1.2-0.5-1.6C37.3,135.4,36.8,135.2,36.2,135.2z"/>
		<path id="XMLID_1279_" class="st8" d="M46.4,141.9v-4.8c0-0.6-0.1-1.1-0.4-1.4c-0.3-0.3-0.7-0.4-1.3-0.4c-0.8,0-1.3,0.2-1.7,0.6
			c-0.3,0.4-0.5,1.1-0.5,2.1v3.9h-1.2v-7.5h1l0.2,1h0.1c0.2-0.4,0.6-0.7,1-0.9c0.4-0.2,0.9-0.3,1.4-0.3c0.9,0,1.6,0.2,2.1,0.7
			c0.4,0.4,0.7,1.1,0.7,2.1v4.9H46.4z"/>
		<path id="XMLID_1276_" class="st8" d="M54.9,141.8l0-0.9h-0.1c-0.5,0.8-1.3,1.1-2.3,1.1c-1,0-1.7-0.3-2.3-1s-0.8-1.6-0.8-2.9
			c0-1.2,0.3-2.2,0.8-2.9s1.3-1,2.3-1c1,0,1.8,0.4,2.4,1.1H55l0.2-1h1v7.6c0,1.1-0.3,1.9-0.8,2.4c-0.5,0.5-1.4,0.8-2.5,0.8
			c-1.1,0-2-0.2-2.7-0.5v-1.1c0.7,0.4,1.7,0.6,2.8,0.6c0.6,0,1.1-0.2,1.5-0.6c0.4-0.4,0.6-0.9,0.6-1.6V141.8z M52.8,141
			c0.8,0,1.3-0.2,1.7-0.6c0.3-0.4,0.5-1.1,0.5-2v-0.3c0-1-0.2-1.7-0.5-2.2c-0.3-0.5-0.9-0.7-1.7-0.7c-0.6,0-1.1,0.2-1.5,0.7
			s-0.5,1.2-0.5,2.1c0,0.9,0.2,1.6,0.5,2.1C51.6,140.7,52.1,141,52.8,141z"/>
		<path id="XMLID_1273_" class="st8" d="M61.7,142c-1.1,0-2-0.3-2.6-1c-0.6-0.7-1-1.6-1-2.8c0-1.2,0.3-2.2,0.9-2.9
			c0.6-0.7,1.4-1.1,2.4-1.1c0.9,0,1.7,0.3,2.3,0.9s0.8,1.4,0.8,2.5v0.7h-5.1c0,0.9,0.2,1.5,0.6,1.9c0.4,0.4,1,0.7,1.7,0.7
			c0.4,0,0.8,0,1.1-0.1c0.4-0.1,0.8-0.2,1.3-0.4v1.1c-0.4,0.2-0.8,0.3-1.2,0.4C62.6,142,62.2,142,61.7,142z M61.4,135.2
			c-0.6,0-1.1,0.2-1.4,0.6c-0.3,0.4-0.5,0.9-0.6,1.6h3.8c0-0.7-0.2-1.2-0.5-1.6C62.4,135.4,62,135.2,61.4,135.2z"/>
		<path id="XMLID_1271_" class="st8" d="M68.9,141c0.2,0,0.3,0,0.6,0c0.2,0,0.4-0.1,0.5-0.1v0.9c-0.1,0-0.3,0.1-0.5,0.1
			S69,142,68.7,142c-1.5,0-2.2-0.8-2.2-2.3v-4.4h-1.1v-0.6l1.1-0.5l0.5-1.6h0.7v1.7h2.2v1h-2.2v4.3c0,0.4,0.1,0.8,0.3,1
			S68.6,141,68.9,141z"/>
		<path id="XMLID_1268_" class="st8" d="M76.1,141.9l-0.2-1.1h-0.1c-0.4,0.5-0.7,0.8-1.1,1c-0.4,0.2-0.8,0.3-1.4,0.3
			c-0.7,0-1.3-0.2-1.7-0.6c-0.4-0.4-0.6-0.9-0.6-1.6c0-1.5,1.2-2.3,3.6-2.4l1.3,0v-0.4c0-0.6-0.1-1-0.4-1.3
			c-0.2-0.3-0.6-0.4-1.2-0.4c-0.4,0-0.8,0.1-1.1,0.2c-0.4,0.1-0.7,0.3-1,0.4l-0.4-0.9c0.4-0.2,0.8-0.4,1.2-0.5
			c0.4-0.1,0.9-0.2,1.3-0.2c0.9,0,1.6,0.2,2,0.6c0.4,0.4,0.7,1,0.7,1.9v5.1H76.1z M73.6,141c0.7,0,1.2-0.2,1.6-0.6
			c0.4-0.4,0.6-0.9,0.6-1.6v-0.7l-1.1,0c-0.9,0-1.5,0.2-1.9,0.4c-0.4,0.2-0.6,0.6-0.6,1.1c0,0.4,0.1,0.7,0.4,0.9
			C72.8,140.9,73.1,141,73.6,141z"/>
		<path id="XMLID_1266_" class="st8" d="M84.4,141.9v-4.8c0-0.6-0.1-1.1-0.4-1.4c-0.3-0.3-0.7-0.4-1.3-0.4c-0.8,0-1.3,0.2-1.7,0.6
			s-0.5,1.1-0.5,2.1v3.9h-1.2v-10.6h1.2v3.1c0,0.4,0,0.8-0.1,1.1h0.1c0.2-0.4,0.5-0.6,1-0.9s0.9-0.3,1.4-0.3c0.9,0,1.6,0.2,2.1,0.7
			c0.5,0.4,0.7,1.1,0.7,2.1v4.9H84.4z"/>
		<path id="XMLID_1264_" class="st8" d="M89.1,134.3v4.8c0,0.6,0.1,1.1,0.4,1.3s0.7,0.4,1.3,0.4c0.8,0,1.3-0.2,1.7-0.6
			c0.4-0.4,0.5-1.1,0.5-2.1v-3.9h1.2v7.5h-1l-0.2-1H93c-0.2,0.4-0.5,0.6-1,0.8c-0.4,0.2-0.9,0.3-1.4,0.3c-0.9,0-1.6-0.2-2-0.6
			c-0.5-0.4-0.7-1.1-0.7-2.1v-4.9H89.1z"/>
		<path id="XMLID_1261_" class="st8" d="M101.3,141.9l-0.2-1.1H101c-0.4,0.5-0.7,0.8-1.1,1c-0.4,0.2-0.8,0.3-1.4,0.3
			c-0.7,0-1.3-0.2-1.7-0.6c-0.4-0.4-0.6-0.9-0.6-1.6c0-1.5,1.2-2.3,3.6-2.4l1.3,0v-0.4c0-0.6-0.1-1-0.4-1.3
			c-0.2-0.3-0.6-0.4-1.2-0.4c-0.4,0-0.8,0.1-1.1,0.2c-0.4,0.1-0.7,0.3-1,0.4l-0.4-0.9c0.4-0.2,0.8-0.4,1.2-0.5
			c0.4-0.1,0.9-0.2,1.3-0.2c0.9,0,1.6,0.2,2,0.6c0.4,0.4,0.7,1,0.7,1.9v5.1H101.3z M98.7,141c0.7,0,1.2-0.2,1.6-0.6
			c0.4-0.4,0.6-0.9,0.6-1.6v-0.7l-1.1,0c-0.9,0-1.5,0.2-1.9,0.4c-0.4,0.2-0.6,0.6-0.6,1.1c0,0.4,0.1,0.7,0.4,0.9
			C98,140.9,98.3,141,98.7,141z"/>
		<path id="XMLID_1259_" class="st8" d="M109.6,141.9v-4.8c0-0.6-0.1-1.1-0.4-1.4c-0.3-0.3-0.7-0.4-1.3-0.4c-0.8,0-1.3,0.2-1.7,0.6
			c-0.3,0.4-0.5,1.1-0.5,2.1v3.9h-1.2v-7.5h1l0.2,1h0.1c0.2-0.4,0.6-0.7,1-0.9c0.4-0.2,0.9-0.3,1.4-0.3c0.9,0,1.6,0.2,2.1,0.7
			c0.4,0.4,0.7,1.1,0.7,2.1v4.9H109.6z"/>
		<path id="XMLID_1256_" class="st8" d="M119.4,142c-1,0-1.7-0.3-2.3-1c-0.5-0.7-0.8-1.6-0.8-2.9c0-1.2,0.3-2.2,0.8-2.9
			c0.5-0.7,1.3-1,2.3-1c1,0,1.8,0.4,2.3,1.1h0.1c0-0.1,0-0.3-0.1-0.6c0-0.3,0-0.5,0-0.6v-3h1.2v10.6h-1l-0.2-1h-0.1
			C121.3,141.6,120.5,142,119.4,142z M119.6,141c0.7,0,1.3-0.2,1.6-0.6c0.3-0.4,0.5-1.1,0.5-2v-0.2c0-1-0.2-1.8-0.5-2.2
			s-0.9-0.7-1.6-0.7c-0.6,0-1.1,0.3-1.5,0.8c-0.3,0.5-0.5,1.2-0.5,2.2c0,0.9,0.2,1.6,0.5,2.1S119,141,119.6,141z"/>
		<path id="XMLID_1253_" class="st8" d="M130,141.9l-0.2-1.1h-0.1c-0.4,0.5-0.7,0.8-1.1,1c-0.4,0.2-0.8,0.3-1.4,0.3
			c-0.7,0-1.3-0.2-1.7-0.6c-0.4-0.4-0.6-0.9-0.6-1.6c0-1.5,1.2-2.3,3.6-2.4l1.3,0v-0.4c0-0.6-0.1-1-0.4-1.3
			c-0.2-0.3-0.6-0.4-1.2-0.4c-0.4,0-0.8,0.1-1.1,0.2c-0.4,0.1-0.7,0.3-1,0.4l-0.4-0.9c0.4-0.2,0.8-0.4,1.2-0.5
			c0.4-0.1,0.9-0.2,1.3-0.2c0.9,0,1.6,0.2,2,0.6c0.4,0.4,0.7,1,0.7,1.9v5.1H130z M127.5,141c0.7,0,1.2-0.2,1.6-0.6
			c0.4-0.4,0.6-0.9,0.6-1.6v-0.7l-1.1,0c-0.9,0-1.5,0.2-1.9,0.4c-0.4,0.2-0.6,0.6-0.6,1.1c0,0.4,0.1,0.7,0.4,0.9
			C126.7,140.9,127.1,141,127.5,141z"/>
		<path id="XMLID_1251_" class="st8" d="M138.4,141.9v-4.8c0-0.6-0.1-1.1-0.4-1.4c-0.3-0.3-0.7-0.4-1.3-0.4c-0.8,0-1.3,0.2-1.7,0.6
			c-0.3,0.4-0.5,1.1-0.5,2.1v3.9h-1.2v-7.5h1l0.2,1h0.1c0.2-0.4,0.6-0.7,1-0.9c0.4-0.2,0.9-0.3,1.4-0.3c0.9,0,1.6,0.2,2.1,0.7
			c0.4,0.4,0.7,1.1,0.7,2.1v4.9H138.4z"/>
		<path id="XMLID_1249_" class="st8" d="M29.6,156.6c0,0.7-0.3,1.2-0.8,1.6c-0.5,0.4-1.3,0.6-2.2,0.6c-1,0-1.8-0.2-2.4-0.5v-1.1
			c0.8,0.4,1.6,0.6,2.4,0.6c0.6,0,1.1-0.1,1.4-0.3c0.3-0.2,0.4-0.5,0.4-0.8c0-0.3-0.1-0.5-0.4-0.8s-0.8-0.4-1.4-0.7
			c-0.7-0.3-1.2-0.5-1.5-0.7c-0.3-0.2-0.5-0.4-0.6-0.7c-0.1-0.2-0.2-0.5-0.2-0.9c0-0.6,0.3-1.1,0.8-1.5c0.5-0.4,1.2-0.5,2.1-0.5
			c0.9,0,1.6,0.2,2.4,0.5l-0.4,1c-0.8-0.3-1.4-0.5-2.1-0.5c-0.5,0-0.9,0.1-1.2,0.2c-0.3,0.2-0.4,0.4-0.4,0.7c0,0.3,0.1,0.5,0.3,0.7
			c0.2,0.2,0.8,0.4,1.6,0.7c0.6,0.2,1.1,0.4,1.4,0.6c0.3,0.2,0.5,0.4,0.7,0.7C29.6,155.9,29.6,156.2,29.6,156.6z"/>
		<path id="XMLID_1246_" class="st8" d="M31.4,149.1c0-0.3,0.1-0.5,0.2-0.6s0.3-0.2,0.5-0.2c0.2,0,0.4,0.1,0.5,0.2s0.2,0.3,0.2,0.6
			c0,0.3-0.1,0.5-0.2,0.6c-0.1,0.1-0.3,0.2-0.5,0.2c-0.2,0-0.4-0.1-0.5-0.2C31.4,149.6,31.4,149.4,31.4,149.1z M32.7,158.7h-1.2
			v-7.5h1.2V158.7z"/>
		<path id="XMLID_1244_" class="st8" d="M38.5,152.1h-1.9v6.5h-1.2v-6.5h-1.3v-0.6l1.3-0.4v-0.4c0-0.9,0.2-1.6,0.6-2.1
			c0.4-0.5,1-0.7,1.8-0.7c0.5,0,1,0.1,1.5,0.3l-0.3,1c-0.4-0.1-0.8-0.2-1.1-0.2c-0.4,0-0.7,0.1-0.9,0.4c-0.2,0.3-0.3,0.7-0.3,1.3
			v0.5h1.9V152.1z"/>
		<path id="XMLID_1241_" class="st8" d="M44.5,158.7l-0.2-1.1h-0.1c-0.4,0.5-0.7,0.8-1.1,1c-0.4,0.2-0.8,0.3-1.4,0.3
			c-0.7,0-1.3-0.2-1.7-0.6c-0.4-0.4-0.6-0.9-0.6-1.6c0-1.5,1.2-2.3,3.6-2.4l1.3,0v-0.4c0-0.6-0.1-1-0.4-1.3
			c-0.2-0.3-0.6-0.4-1.2-0.4c-0.4,0-0.8,0.1-1.1,0.2c-0.4,0.1-0.7,0.3-1,0.4l-0.4-0.9c0.4-0.2,0.8-0.4,1.2-0.5
			c0.4-0.1,0.9-0.2,1.3-0.2c0.9,0,1.6,0.2,2,0.6c0.4,0.4,0.7,1,0.7,1.9v5.1H44.5z M42,157.8c0.7,0,1.2-0.2,1.6-0.6
			c0.4-0.4,0.6-0.9,0.6-1.6V155l-1.1,0c-0.9,0-1.5,0.2-1.9,0.4c-0.4,0.2-0.6,0.6-0.6,1.1c0,0.4,0.1,0.7,0.4,0.9
			C41.2,157.7,41.6,157.8,42,157.8z"/>
		<path id="XMLID_1239_" class="st8" d="M50.2,157.8c0.2,0,0.3,0,0.6,0c0.2,0,0.4-0.1,0.5-0.1v0.9c-0.1,0-0.3,0.1-0.5,0.1
			s-0.5,0.1-0.7,0.1c-1.5,0-2.2-0.8-2.2-2.3v-4.4h-1.1v-0.6l1.1-0.5l0.5-1.6h0.7v1.7h2.2v1h-2.2v4.3c0,0.4,0.1,0.8,0.3,1
			S49.9,157.8,50.2,157.8z"/>
		<path id="XMLID_1236_" class="st8" d="M61.1,158.7l-0.2-1.1h-0.1c-0.4,0.5-0.7,0.8-1.1,1c-0.4,0.2-0.8,0.3-1.4,0.3
			c-0.7,0-1.3-0.2-1.7-0.6c-0.4-0.4-0.6-0.9-0.6-1.6c0-1.5,1.2-2.3,3.6-2.4l1.3,0v-0.4c0-0.6-0.1-1-0.4-1.3
			c-0.2-0.3-0.6-0.4-1.2-0.4c-0.4,0-0.8,0.1-1.1,0.2c-0.4,0.1-0.7,0.3-1,0.4l-0.4-0.9c0.4-0.2,0.8-0.4,1.2-0.5
			c0.4-0.1,0.9-0.2,1.3-0.2c0.9,0,1.6,0.2,2,0.6c0.4,0.4,0.7,1,0.7,1.9v5.1H61.1z M58.5,157.8c0.7,0,1.2-0.2,1.6-0.6
			c0.4-0.4,0.6-0.9,0.6-1.6V155l-1.1,0c-0.9,0-1.5,0.2-1.9,0.4c-0.4,0.2-0.6,0.6-0.6,1.1c0,0.4,0.1,0.7,0.4,0.9
			C57.8,157.7,58.1,157.8,58.5,157.8z"/>
		<path id="XMLID_1234_" class="st8" d="M69.4,158.7v-4.8c0-0.6-0.1-1.1-0.4-1.4c-0.3-0.3-0.7-0.4-1.3-0.4c-0.8,0-1.3,0.2-1.7,0.6
			c-0.3,0.4-0.5,1.1-0.5,2.1v3.9h-1.2v-7.5h1l0.2,1h0.1c0.2-0.4,0.6-0.7,1-0.9c0.4-0.2,0.9-0.3,1.4-0.3c0.9,0,1.6,0.2,2.1,0.7
			c0.4,0.4,0.7,1.1,0.7,2.1v4.9H69.4z"/>
		<path id="XMLID_1231_" class="st8" d="M75.6,158.8c-1,0-1.7-0.3-2.3-1c-0.5-0.7-0.8-1.6-0.8-2.9c0-1.2,0.3-2.2,0.8-2.9
			c0.5-0.7,1.3-1,2.3-1c1,0,1.8,0.4,2.3,1.1H78c0-0.1,0-0.3-0.1-0.6c0-0.3,0-0.5,0-0.6v-3h1.2v10.6h-1l-0.2-1h-0.1
			C77.4,158.4,76.6,158.8,75.6,158.8z M75.8,157.8c0.7,0,1.3-0.2,1.6-0.6c0.3-0.4,0.5-1.1,0.5-2v-0.2c0-1-0.2-1.8-0.5-2.2
			s-0.9-0.7-1.6-0.7c-0.6,0-1.1,0.3-1.5,0.8c-0.3,0.5-0.5,1.2-0.5,2.2c0,0.9,0.2,1.6,0.5,2.1S75.1,157.8,75.8,157.8z"/>
		<path id="XMLID_1228_" class="st8" d="M86.2,158.7l-0.2-1.1h-0.1c-0.4,0.5-0.7,0.8-1.1,1c-0.4,0.2-0.8,0.3-1.4,0.3
			c-0.7,0-1.3-0.2-1.7-0.6c-0.4-0.4-0.6-0.9-0.6-1.6c0-1.5,1.2-2.3,3.6-2.4l1.3,0v-0.4c0-0.6-0.1-1-0.4-1.3
			c-0.2-0.3-0.6-0.4-1.2-0.4c-0.4,0-0.8,0.1-1.1,0.2c-0.4,0.1-0.7,0.3-1,0.4l-0.4-0.9c0.4-0.2,0.8-0.4,1.2-0.5
			c0.4-0.1,0.9-0.2,1.3-0.2c0.9,0,1.6,0.2,2,0.6c0.4,0.4,0.7,1,0.7,1.9v5.1H86.2z M83.6,157.8c0.7,0,1.2-0.2,1.6-0.6
			c0.4-0.4,0.6-0.9,0.6-1.6V155l-1.1,0c-0.9,0-1.5,0.2-1.9,0.4c-0.4,0.2-0.6,0.6-0.6,1.1c0,0.4,0.1,0.7,0.4,0.9
			C82.9,157.7,83.2,157.8,83.6,157.8z"/>
	</g>
</g>
</svg>
