<?xml version="1.0" encoding="utf-8"?>
<!-- Generator: Adobe Illustrator 19.0.0, SVG Export Plug-In . SVG Version: 6.00 Build 0)  -->
<svg version="1.1" id="Layer_1" xmlns="http://www.w3.org/2000/svg" xmlns:xlink="http://www.w3.org/1999/xlink" x="0px" y="0px"
	 viewBox="0 0 166.6 167.3" style="enable-background:new 0 0 166.6 167.3;" xml:space="preserve">
<style type="text/css">
	.st0{fill:#FFFFFF;}
	.st1{fill:#EF3852;}
	.st2{fill:#654119;}
	.st3{fill:#472E13;}
	.st4{fill:#5B602A;}
	.st5{fill:#BF2035;}
	.st6{fill:#A01C32;}
	.st7{fill:#E5E5E3;}
	.st8{fill:#C1C0B2;}
	.st9{fill:#CD202B;}
	.st10{fill:#404040;}
</style>
<polygon id="XMLID_1206_" class="st0" points="19.4,167.3 19.2,147.9 0,167.1 "/>
<rect id="XMLID_1187_" x="17.8" y="0" class="st1" width="148.8" height="167"/>
<rect id="XMLID_1188_" x="17.8" y="87.1" class="st0" width="148.8" height="80.1"/>
<g id="XMLID_1186_">
	<rect id="XMLID_1204_" x="67.2" y="11.6" class="st2" width="42" height="65.2"/>
	<rect id="XMLID_1203_" x="70.9" y="16.5" class="st3" width="7.3" height="11.7"/>
	<rect id="XMLID_1202_" x="83.4" y="16.4" class="st3" width="7.3" height="11.7"/>
	<rect id="XMLID_1201_" x="70.9" y="31.6" class="st3" width="7.3" height="11.7"/>
	<rect id="XMLID_1200_" x="83.4" y="31.5" class="st3" width="7.3" height="11.7"/>
	<rect id="XMLID_1199_" x="96" y="31.3" class="st3" width="7.3" height="11.7"/>
	<rect id="XMLID_1198_" x="70.9" y="46.7" class="st4" width="7.3" height="11.7"/>
	<rect id="XMLID_1197_" x="83.4" y="46.5" class="st4" width="7.3" height="11.7"/>
	<rect id="XMLID_1196_" x="96" y="46.4" class="st3" width="7.3" height="11.7"/>
	<polygon id="XMLID_3919_" class="st5" points="67.2,46.1 67.2,76.8 109.2,76.8 109.2,59.5 99.6,59.5 93.4,50.6 70.2,50.6 	"/>
	<rect id="XMLID_1195_" x="67.2" y="70.9" class="st6" width="42" height="5.9"/>
	<rect id="XMLID_1194_" x="107.2" y="24.9" class="st3" width="2" height="31.8"/>
	<rect id="XMLID_1193_" x="96" y="16.3" class="st3" width="7.3" height="11.7"/>
	<circle id="XMLID_3920_" class="st1" cx="97.6" cy="13.4" r="4.1"/>
	<circle id="XMLID_3921_" class="st1" cx="101.7" cy="17.5" r="4.1"/>
	<circle id="XMLID_3922_" class="st1" cx="107.2" cy="20.8" r="4.1"/>
	<polygon id="XMLID_3923_" class="st1" points="95,7.2 114.4,25.3 118.1,15.7 117.2,11.6 112.8,8.7 	"/>
	<polygon id="XMLID_3924_" class="st3" points="100.7,10.5 100.7,13.7 103.1,13.7 103.1,11.6 	"/>
	<polygon id="XMLID_3925_" class="st3" points="103.5,15 103.5,18.3 105.8,18.3 105.8,16.1 	"/>
	<polygon id="XMLID_3926_" class="st3" points="113.2,20.5 113.2,23.8 115.6,23.8 115.6,21.6 	"/>
	<polygon id="XMLID_1192_" class="st3" points="100,13.8 96.8,13.8 96.8,16.2 98.9,16.2 	"/>
	<polygon id="XMLID_3927_" class="st7" points="67.2,42.3 62.6,46.9 67.2,46.9 70.2,50.6 93.4,50.6 99.6,59.5 109.2,59.5 
		109.2,63.8 114.4,58.6 109,53.2 100.5,53.2 100.5,48.1 95,42.2 	"/>
	<rect id="XMLID_1191_" x="74.2" y="42.3" class="st8" width="3.9" height="8.3"/>
	<rect id="XMLID_1189_" x="80.2" y="42.3" class="st8" width="3.9" height="8.3"/>
</g>
<g id="XMLID_4128_">
	<circle id="XMLID_4129_" class="st9" cx="29.1" cy="97.9" r="4"/>
	<path id="XMLID_4130_" class="st9" d="M25,97.9h8.1V108C33.1,108,25,103.1,25,97.9z"/>
	<circle id="XMLID_1208_" class="st9" cx="37.1" cy="97.8" r="4"/>
	<path id="XMLID_1207_" class="st9" d="M41.1,97.8h-8.1v10.1C33.1,107.8,41.1,102.9,41.1,97.8z"/>
</g>
<g id="XMLID_1_">
	<g id="XMLID_1245_">
		<path id="XMLID_1361_" class="st10" d="M53.6,97c-0.8,0-1.4,0.3-1.9,0.9c-0.4,0.6-0.7,1.4-0.7,2.5c0,2.2,0.8,3.3,2.5,3.3
			c0.7,0,1.6-0.2,2.5-0.5v1.8c-0.8,0.3-1.7,0.5-2.7,0.5c-1.5,0-2.6-0.4-3.3-1.3c-0.8-0.9-1.2-2.1-1.2-3.8c0-1,0.2-1.9,0.6-2.7
			c0.4-0.8,0.9-1.4,1.6-1.8s1.5-0.6,2.5-0.6c1,0,1.9,0.2,2.9,0.7l-0.7,1.7c-0.4-0.2-0.8-0.3-1.1-0.5C54.3,97,53.9,97,53.6,97z"/>
		<path id="XMLID_1358_" class="st10" d="M65,101.5c0,1.2-0.3,2.2-1,2.9c-0.7,0.7-1.6,1.1-2.7,1.1c-0.7,0-1.4-0.2-1.9-0.5
			s-1-0.8-1.3-1.4s-0.5-1.3-0.5-2.1c0-1.2,0.3-2.2,1-2.9c0.7-0.7,1.6-1,2.7-1c0.7,0,1.4,0.2,1.9,0.5c0.6,0.3,1,0.8,1.3,1.4
			C64.9,100,65,100.7,65,101.5z M59.8,101.5c0,0.8,0.1,1.3,0.4,1.7c0.2,0.4,0.7,0.6,1.2,0.6c0.6,0,1-0.2,1.2-0.6
			c0.2-0.4,0.4-1,0.4-1.7c0-0.8-0.1-1.3-0.4-1.7c-0.2-0.4-0.6-0.6-1.2-0.6c-0.6,0-1,0.2-1.2,0.6S59.8,100.7,59.8,101.5z"/>
		<path id="XMLID_1356_" class="st10" d="M68.8,101.2l0.9-1.2l2.1-2.3h2.4l-3,3.3l3.2,4.3h-2.4l-2.2-3.1l-0.9,0.7v2.4h-2.1V94.7h2.1
			v4.7L68.8,101.2L68.8,101.2z"/>
		<path id="XMLID_1353_" class="st10" d="M78.8,105.5c-1.2,0-2.2-0.3-2.9-1c-0.7-0.7-1-1.6-1-2.9c0-1.3,0.3-2.3,1-3
			c0.6-0.7,1.5-1,2.7-1c1.1,0,1.9,0.3,2.5,0.9s0.9,1.5,0.9,2.5v1H77c0,0.6,0.2,1.1,0.5,1.4c0.3,0.3,0.8,0.5,1.4,0.5
			c0.5,0,0.9,0,1.3-0.1s0.8-0.2,1.3-0.5v1.6c-0.4,0.2-0.8,0.3-1.2,0.4C79.9,105.4,79.4,105.5,78.8,105.5z M78.5,99
			c-0.4,0-0.8,0.1-1,0.4c-0.3,0.3-0.4,0.7-0.4,1.2h2.9c0-0.5-0.1-0.9-0.4-1.2S78.9,99,78.5,99z"/>
		<path id="XMLID_1351_" class="st10" d="M85.7,105.3h-2.1V94.7h2.1V105.3z"/>
		<path id="XMLID_1348_" class="st10" d="M92.7,105.3l-0.4-1h-0.1c-0.4,0.4-0.7,0.7-1.1,0.9s-0.9,0.3-1.5,0.3
			c-0.7,0-1.3-0.2-1.7-0.6c-0.4-0.4-0.6-1-0.6-1.8c0-0.8,0.3-1.4,0.9-1.8c0.6-0.4,1.4-0.6,2.6-0.6l1.3,0v-0.3c0-0.8-0.4-1.2-1.2-1.2
			c-0.6,0-1.3,0.2-2.2,0.6l-0.7-1.4c0.9-0.5,1.9-0.7,2.9-0.7c1,0,1.8,0.2,2.4,0.7c0.5,0.4,0.8,1.1,0.8,2v5.1H92.7z M92.1,101.8
			l-0.8,0c-0.6,0-1.1,0.1-1.4,0.3c-0.3,0.2-0.4,0.5-0.4,0.9c0,0.6,0.3,0.9,1,0.9c0.5,0,0.9-0.1,1.2-0.4c0.3-0.3,0.4-0.6,0.4-1.1
			V101.8z"/>
		<path id="XMLID_1346_" class="st10" d="M99.5,103.8c0.4,0,0.8-0.1,1.3-0.2v1.6c-0.5,0.2-1.2,0.3-1.9,0.3c-0.8,0-1.4-0.2-1.8-0.6
			c-0.4-0.4-0.6-1.1-0.6-1.9v-3.7h-1v-0.9l1.1-0.7l0.6-1.6h1.3v1.6h2.1v1.6h-2.1v3.7c0,0.3,0.1,0.5,0.2,0.7
			C99,103.7,99.3,103.8,99.5,103.8z"/>
		<path id="XMLID_1344_" class="st10" d="M53.6,113c-1.1,0-1.9,0.4-2.5,1.1c-0.6,0.7-0.9,1.7-0.9,2.9c0,1.3,0.3,2.2,0.9,2.9
			s1.4,1,2.5,1c0.7,0,1.5-0.1,2.4-0.4v1.1c-0.4,0.2-0.8,0.3-1.2,0.3c-0.4,0.1-0.8,0.1-1.3,0.1c-1.4,0-2.6-0.4-3.3-1.3
			c-0.8-0.9-1.2-2.1-1.2-3.7c0-1,0.2-1.9,0.6-2.7s0.9-1.3,1.6-1.8s1.6-0.6,2.5-0.6c1,0,1.9,0.2,2.7,0.6l-0.5,1
			C55.1,113.2,54.3,113,53.6,113z"/>
		<path id="XMLID_1341_" class="st10" d="M57.8,112.5c0-0.3,0.1-0.5,0.2-0.6s0.3-0.2,0.5-0.2c0.2,0,0.4,0.1,0.5,0.2s0.2,0.3,0.2,0.6
			c0,0.3-0.1,0.5-0.2,0.6c-0.1,0.1-0.3,0.2-0.5,0.2c-0.2,0-0.4-0.1-0.5-0.2C57.9,112.9,57.8,112.7,57.8,112.5z M59.2,121.9h-1.2
			v-7.4h1.2V121.9z"/>
		<path id="XMLID_1339_" class="st10" d="M66.5,121.9v-4.7c0-0.6-0.1-1-0.4-1.3c-0.3-0.3-0.7-0.4-1.3-0.4c-0.8,0-1.3,0.2-1.6,0.6
			c-0.3,0.4-0.5,1.1-0.5,2v3.8h-1.2v-7.4h1l0.2,1h0.1c0.2-0.4,0.5-0.6,1-0.8c0.4-0.2,0.9-0.3,1.4-0.3c0.9,0,1.6,0.2,2,0.7
			c0.4,0.4,0.7,1.1,0.7,2v4.8H66.5z"/>
		<path id="XMLID_1337_" class="st10" d="M72.5,121c0.2,0,0.3,0,0.6,0c0.2,0,0.4-0.1,0.5-0.1v0.9c-0.1,0-0.3,0.1-0.5,0.1
			s-0.5,0.1-0.7,0.1c-1.4,0-2.2-0.8-2.2-2.3v-4.3h-1v-0.6l1.1-0.5l0.5-1.6h0.7v1.7h2.1v0.9h-2.1v4.3c0,0.4,0.1,0.8,0.3,1
			C71.8,120.9,72.1,121,72.5,121z"/>
		<path id="XMLID_1334_" class="st10" d="M79.5,121.9l-0.2-1h-0.1c-0.4,0.5-0.7,0.8-1.1,0.9c-0.4,0.2-0.8,0.2-1.4,0.2
			c-0.7,0-1.3-0.2-1.7-0.6c-0.4-0.4-0.6-0.9-0.6-1.6c0-1.5,1.2-2.3,3.5-2.4l1.3,0V117c0-0.6-0.1-1-0.4-1.2c-0.2-0.3-0.6-0.4-1.2-0.4
			c-0.4,0-0.8,0.1-1.1,0.2c-0.3,0.1-0.7,0.2-1,0.4l-0.4-0.9c0.4-0.2,0.8-0.4,1.2-0.5c0.4-0.1,0.9-0.2,1.3-0.2c0.9,0,1.6,0.2,2,0.6
			c0.4,0.4,0.7,1,0.7,1.9v5H79.5z M77,121c0.7,0,1.2-0.2,1.6-0.5c0.4-0.4,0.6-0.9,0.6-1.6v-0.7l-1.1,0c-0.8,0-1.5,0.2-1.9,0.4
			c-0.4,0.2-0.6,0.6-0.6,1.1c0,0.4,0.1,0.7,0.4,0.9S76.6,121,77,121z"/>
		<path id="XMLID_1332_" class="st10" d="M84.1,120.3l0.1,0.2c-0.2,1-0.6,2-1.2,3.2h-0.9c0.3-1.1,0.5-2.2,0.7-3.4H84.1z"/>
		<path id="XMLID_1329_" class="st10" d="M94.9,121.8l0-0.9h-0.1c-0.5,0.7-1.3,1.1-2.3,1.1c-1,0-1.7-0.3-2.2-1
			c-0.5-0.7-0.8-1.6-0.8-2.8c0-1.2,0.3-2.1,0.8-2.8s1.3-1,2.2-1c1,0,1.8,0.4,2.3,1.1H95l0.2-1h1v7.5c0,1.1-0.3,1.9-0.8,2.4
			c-0.5,0.5-1.4,0.8-2.5,0.8c-1.1,0-2-0.2-2.7-0.5v-1.1c0.7,0.4,1.6,0.6,2.7,0.6c0.6,0,1.1-0.2,1.5-0.6s0.5-0.9,0.5-1.5V121.8z
			 M92.8,121c0.7,0,1.3-0.2,1.6-0.6c0.3-0.4,0.5-1,0.5-1.9v-0.3c0-1-0.2-1.7-0.5-2.2c-0.3-0.4-0.9-0.7-1.6-0.7
			c-0.6,0-1.1,0.2-1.4,0.7c-0.3,0.5-0.5,1.2-0.5,2.1c0,0.9,0.2,1.6,0.5,2.1C91.6,120.8,92.1,121,92.8,121z"/>
		<path id="XMLID_1326_" class="st10" d="M103,121.9l-0.2-1h-0.1c-0.4,0.5-0.7,0.8-1.1,0.9c-0.4,0.2-0.8,0.2-1.4,0.2
			c-0.7,0-1.3-0.2-1.7-0.6c-0.4-0.4-0.6-0.9-0.6-1.6c0-1.5,1.2-2.3,3.5-2.4l1.3,0V117c0-0.6-0.1-1-0.4-1.2s-0.6-0.4-1.2-0.4
			c-0.4,0-0.8,0.1-1.1,0.2c-0.3,0.1-0.7,0.2-1,0.4l-0.4-0.9c0.4-0.2,0.8-0.4,1.2-0.5c0.4-0.1,0.9-0.2,1.3-0.2c0.9,0,1.6,0.2,2,0.6
			c0.4,0.4,0.7,1,0.7,1.9v5H103z M100.5,121c0.7,0,1.2-0.2,1.6-0.5s0.6-0.9,0.6-1.6v-0.7l-1.1,0c-0.8,0-1.5,0.2-1.9,0.4
			c-0.4,0.2-0.6,0.6-0.6,1.1c0,0.4,0.1,0.7,0.4,0.9C99.7,120.9,100.1,121,100.5,121z"/>
		<path id="XMLID_1323_" class="st10" d="M106,112.5c0-0.3,0.1-0.5,0.2-0.6s0.3-0.2,0.5-0.2c0.2,0,0.4,0.1,0.5,0.2
			c0.1,0.1,0.2,0.3,0.2,0.6c0,0.3-0.1,0.5-0.2,0.6c-0.1,0.1-0.3,0.2-0.5,0.2c-0.2,0-0.4-0.1-0.5-0.2
			C106.1,112.9,106,112.7,106,112.5z M107.4,121.9h-1.2v-7.4h1.2V121.9z"/>
		<path id="XMLID_1321_" class="st10" d="M113.1,114.3c0.3,0,0.6,0,0.9,0.1l-0.1,1.1c-0.3-0.1-0.5-0.1-0.8-0.1
			c-0.4,0-0.8,0.1-1.1,0.3s-0.6,0.5-0.8,0.9c-0.2,0.4-0.3,0.8-0.3,1.3v3.9h-1.2v-7.4h1l0.1,1.4h0.1c0.3-0.5,0.6-0.9,1-1.1
			C112.3,114.5,112.7,114.3,113.1,114.3z"/>
		<path id="XMLID_1318_" class="st10" d="M119.8,121.9l-0.2-1h-0.1c-0.4,0.5-0.7,0.8-1.1,0.9c-0.4,0.2-0.8,0.2-1.4,0.2
			c-0.7,0-1.3-0.2-1.7-0.6c-0.4-0.4-0.6-0.9-0.6-1.6c0-1.5,1.2-2.3,3.5-2.4l1.3,0V117c0-0.6-0.1-1-0.4-1.2c-0.2-0.3-0.6-0.4-1.2-0.4
			c-0.4,0-0.8,0.1-1.1,0.2c-0.3,0.1-0.7,0.2-1,0.4l-0.4-0.9c0.4-0.2,0.8-0.4,1.2-0.5c0.4-0.1,0.9-0.2,1.3-0.2c0.9,0,1.6,0.2,2,0.6
			c0.4,0.4,0.7,1,0.7,1.9v5H119.8z M117.3,121c0.7,0,1.2-0.2,1.6-0.5c0.4-0.4,0.6-0.9,0.6-1.6v-0.7l-1.1,0c-0.8,0-1.5,0.2-1.9,0.4
			c-0.4,0.2-0.6,0.6-0.6,1.1c0,0.4,0.1,0.7,0.4,0.9S116.9,121,117.3,121z"/>
		<path id="XMLID_1316_" class="st10" d="M128,121.9v-4.7c0-0.6-0.1-1-0.4-1.3c-0.3-0.3-0.7-0.4-1.3-0.4c-0.7,0-1.3,0.2-1.6,0.6
			s-0.5,1.1-0.5,2.1v3.8H123v-10.5h1.2v3.1c0,0.4,0,0.7-0.1,1h0.1c0.2-0.4,0.5-0.6,0.9-0.8c0.4-0.2,0.9-0.3,1.4-0.3
			c0.9,0,1.6,0.2,2,0.6c0.5,0.4,0.7,1.1,0.7,2.1v4.8H128z"/>
		<path id="XMLID_1314_" class="st10" d="M132.9,120.3l0.1,0.2c-0.2,1-0.6,2-1.2,3.2h-0.9c0.3-1.1,0.5-2.2,0.7-3.4H132.9z"/>
		<path id="XMLID_1311_" class="st10" d="M52.7,138.5c-1,0-1.8-0.4-2.3-1.1h-0.1l0,0.3c0,0.3,0.1,0.7,0.1,0.9v3h-1.2V131h1l0.2,1
			h0.1c0.3-0.4,0.6-0.7,1-0.9c0.4-0.2,0.8-0.3,1.3-0.3c1,0,1.7,0.3,2.2,1c0.5,0.7,0.8,1.6,0.8,2.8c0,1.2-0.3,2.1-0.8,2.8
			S53.7,138.5,52.7,138.5z M52.5,131.9c-0.7,0-1.3,0.2-1.6,0.6c-0.3,0.4-0.5,1.1-0.5,1.9v0.2c0,1,0.2,1.7,0.5,2.2
			c0.3,0.4,0.9,0.7,1.6,0.7c0.6,0,1.1-0.3,1.4-0.8s0.5-1.2,0.5-2.1c0-0.9-0.2-1.6-0.5-2.1C53.7,132.1,53.2,131.9,52.5,131.9z"/>
		<path id="XMLID_1308_" class="st10" d="M60.9,138.5c-1.1,0-2-0.3-2.6-1c-0.6-0.7-0.9-1.6-0.9-2.8c0-1.2,0.3-2.1,0.9-2.8
			c0.6-0.7,1.4-1.1,2.4-1.1c0.9,0,1.7,0.3,2.2,0.9c0.6,0.6,0.8,1.4,0.8,2.4v0.7h-5.1c0,0.8,0.2,1.5,0.6,1.9c0.4,0.4,1,0.7,1.7,0.7
			c0.4,0,0.8,0,1.1-0.1c0.4-0.1,0.8-0.2,1.2-0.4v1.1c-0.4,0.2-0.8,0.3-1.1,0.4C61.8,138.5,61.3,138.5,60.9,138.5z M60.6,131.8
			c-0.6,0-1,0.2-1.4,0.6s-0.5,0.9-0.6,1.6h3.8c0-0.7-0.2-1.2-0.5-1.6C61.6,132,61.1,131.8,60.6,131.8z"/>
		<path id="XMLID_1306_" class="st10" d="M68.9,130.9c0.3,0,0.6,0,0.9,0.1l-0.1,1.1c-0.3-0.1-0.5-0.1-0.8-0.1
			c-0.4,0-0.8,0.1-1.1,0.3c-0.3,0.2-0.6,0.5-0.8,0.9s-0.3,0.8-0.3,1.3v3.9h-1.2V131h1l0.1,1.4h0.1c0.3-0.5,0.6-0.9,1-1.1
			C68,131,68.5,130.9,68.9,130.9z"/>
		<path id="XMLID_1304_" class="st10" d="M76.2,138.4v-4.7c0-0.6-0.1-1-0.4-1.3c-0.3-0.3-0.7-0.4-1.3-0.4c-0.7,0-1.3,0.2-1.6,0.6
			c-0.3,0.4-0.5,1.1-0.5,2.1v3.8h-1.2v-10.5h1.2v3.1c0,0.4,0,0.7-0.1,1h0.1c0.2-0.4,0.5-0.6,0.9-0.8c0.4-0.2,0.9-0.3,1.4-0.3
			c0.9,0,1.6,0.2,2,0.6c0.5,0.4,0.7,1.1,0.7,2.1v4.8H76.2z"/>
		<path id="XMLID_1300_" class="st10" d="M84.2,138.4l-0.2-1h-0.1c-0.4,0.5-0.7,0.8-1.1,0.9c-0.4,0.2-0.8,0.2-1.4,0.2
			c-0.7,0-1.3-0.2-1.7-0.6s-0.6-0.9-0.6-1.6c0-1.5,1.2-2.3,3.5-2.4l1.3,0v-0.4c0-0.6-0.1-1-0.4-1.2c-0.2-0.3-0.6-0.4-1.2-0.4
			c-0.4,0-0.8,0.1-1.1,0.2c-0.3,0.1-0.7,0.2-1,0.4l-0.4-0.9c0.4-0.2,0.8-0.4,1.2-0.5c0.4-0.1,0.9-0.2,1.3-0.2c0.9,0,1.6,0.2,2,0.6
			c0.4,0.4,0.7,1,0.7,1.9v5H84.2z M81.7,137.5c0.7,0,1.2-0.2,1.6-0.5s0.6-0.9,0.6-1.6v-0.7l-1.1,0c-0.8,0-1.5,0.2-1.9,0.4
			c-0.4,0.2-0.6,0.6-0.6,1.1c0,0.4,0.1,0.7,0.4,0.9C81,137.4,81.3,137.5,81.7,137.5z"/>
		<path id="XMLID_1298_" class="st10" d="M89.9,137.5c0.2,0,0.3,0,0.6,0c0.2,0,0.4-0.1,0.5-0.1v0.9c-0.1,0-0.3,0.1-0.5,0.1
			c-0.2,0-0.5,0.1-0.7,0.1c-1.4,0-2.2-0.8-2.2-2.3v-4.3h-1v-0.6l1.1-0.5l0.5-1.6h0.7v1.7h2.1v0.9h-2.1v4.3c0,0.4,0.1,0.8,0.3,1
			S89.5,137.5,89.9,137.5z"/>
		<path id="XMLID_1295_" class="st10" d="M92.3,129c0-0.3,0.1-0.5,0.2-0.6s0.3-0.2,0.5-0.2c0.2,0,0.4,0.1,0.5,0.2s0.2,0.3,0.2,0.6
			c0,0.3-0.1,0.5-0.2,0.6c-0.1,0.1-0.3,0.2-0.5,0.2c-0.2,0-0.4-0.1-0.5-0.2C92.3,129.5,92.3,129.3,92.3,129z M93.6,138.4h-1.2V131
			h1.2V138.4z"/>
		<path id="XMLID_1292_" class="st10" d="M100.5,138.4l-0.2-1h-0.1c-0.4,0.5-0.7,0.8-1.1,0.9c-0.4,0.2-0.8,0.2-1.4,0.2
			c-0.7,0-1.3-0.2-1.7-0.6c-0.4-0.4-0.6-0.9-0.6-1.6c0-1.5,1.2-2.3,3.5-2.4l1.3,0v-0.4c0-0.6-0.1-1-0.4-1.2
			c-0.2-0.3-0.6-0.4-1.2-0.4c-0.4,0-0.8,0.1-1.1,0.2c-0.3,0.1-0.7,0.2-1,0.4l-0.4-0.9c0.4-0.2,0.8-0.4,1.2-0.5
			c0.4-0.1,0.9-0.2,1.3-0.2c0.9,0,1.6,0.2,2,0.6c0.4,0.4,0.7,1,0.7,1.9v5H100.5z M98,137.5c0.7,0,1.2-0.2,1.6-0.5
			c0.4-0.4,0.6-0.9,0.6-1.6v-0.7l-1.1,0c-0.8,0-1.5,0.2-1.9,0.4c-0.4,0.2-0.6,0.6-0.6,1.1c0,0.4,0.1,0.7,0.4,0.9
			C97.2,137.4,97.5,137.5,98,137.5z"/>
		<path id="XMLID_1290_" class="st10" d="M108.7,138.4v-4.7c0-0.6-0.1-1-0.4-1.3c-0.3-0.3-0.7-0.4-1.3-0.4c-0.8,0-1.3,0.2-1.6,0.6
			c-0.3,0.4-0.5,1.1-0.5,2v3.8h-1.2V131h1l0.2,1h0.1c0.2-0.4,0.5-0.6,1-0.8c0.4-0.2,0.9-0.3,1.4-0.3c0.9,0,1.6,0.2,2,0.7
			c0.4,0.4,0.7,1.1,0.7,2v4.8H108.7z"/>
		<path id="XMLID_1288_" class="st10" d="M113.5,136.8l0.1,0.2c-0.2,1-0.6,2-1.2,3.2h-0.9c0.3-1.1,0.5-2.2,0.7-3.4H113.5z"/>
		<path id="XMLID_1285_" class="st10" d="M122.9,138.5c-1,0-1.8-0.4-2.3-1.1h-0.1l0,0.3c0,0.3,0.1,0.7,0.1,0.9v3h-1.2V131h1l0.2,1
			h0.1c0.3-0.4,0.6-0.7,1-0.9c0.4-0.2,0.8-0.3,1.3-0.3c1,0,1.7,0.3,2.2,1c0.5,0.7,0.8,1.6,0.8,2.8c0,1.2-0.3,2.1-0.8,2.8
			S123.9,138.5,122.9,138.5z M122.7,131.9c-0.7,0-1.3,0.2-1.6,0.6s-0.5,1.1-0.5,1.9v0.2c0,1,0.2,1.7,0.5,2.2
			c0.3,0.4,0.9,0.7,1.6,0.7c0.6,0,1.1-0.3,1.4-0.8c0.3-0.5,0.5-1.2,0.5-2.1c0-0.9-0.2-1.6-0.5-2.1
			C123.8,132.1,123.3,131.9,122.7,131.9z"/>
		<path id="XMLID_1282_" class="st10" d="M131,138.5c-1.1,0-2-0.3-2.6-1c-0.6-0.7-0.9-1.6-0.9-2.8c0-1.2,0.3-2.1,0.9-2.8
			c0.6-0.7,1.4-1.1,2.4-1.1c0.9,0,1.7,0.3,2.2,0.9c0.6,0.6,0.8,1.4,0.8,2.4v0.7h-5.1c0,0.8,0.2,1.5,0.6,1.9s1,0.7,1.7,0.7
			c0.4,0,0.8,0,1.1-0.1c0.4-0.1,0.8-0.2,1.2-0.4v1.1c-0.4,0.2-0.8,0.3-1.1,0.4C131.9,138.5,131.5,138.5,131,138.5z M130.7,131.8
			c-0.6,0-1,0.2-1.4,0.6c-0.3,0.4-0.5,0.9-0.6,1.6h3.8c0-0.7-0.2-1.2-0.5-1.6C131.7,132,131.3,131.8,130.7,131.8z"/>
		<path id="XMLID_1280_" class="st10" d="M140.7,138.4v-4.7c0-0.6-0.1-1-0.4-1.3c-0.3-0.3-0.7-0.4-1.3-0.4c-0.8,0-1.3,0.2-1.6,0.6
			s-0.5,1.1-0.5,2v3.8h-1.2V131h1l0.2,1h0.1c0.2-0.4,0.5-0.6,1-0.8c0.4-0.2,0.9-0.3,1.4-0.3c0.9,0,1.6,0.2,2,0.7
			c0.4,0.4,0.7,1.1,0.7,2v4.8H140.7z"/>
		<path id="XMLID_1278_" class="st10" d="M145.3,131v4.8c0,0.6,0.1,1,0.4,1.3s0.7,0.4,1.2,0.4c0.8,0,1.3-0.2,1.7-0.6
			c0.3-0.4,0.5-1.1,0.5-2V131h1.2v7.4h-1l-0.2-1h-0.1c-0.2,0.4-0.5,0.6-0.9,0.8s-0.9,0.3-1.4,0.3c-0.9,0-1.6-0.2-2-0.6
			s-0.7-1.1-0.7-2V131H145.3z"/>
		<path id="XMLID_1276_" class="st10" d="M157.7,138.4v-4.7c0-0.6-0.1-1-0.4-1.3c-0.3-0.3-0.7-0.4-1.3-0.4c-0.7,0-1.3,0.2-1.6,0.6
			c-0.3,0.4-0.5,1.1-0.5,2.1v3.8h-1.2v-10.5h1.2v3.1c0,0.4,0,0.7-0.1,1h0.1c0.2-0.4,0.5-0.6,0.9-0.8c0.4-0.2,0.9-0.3,1.4-0.3
			c0.9,0,1.6,0.2,2,0.6c0.5,0.4,0.7,1.1,0.7,2.1v4.8H157.7z"/>
		<path id="XMLID_1274_" class="st10" d="M50.4,151.1l0.4-0.5l0.5-0.6l2.4-2.5h1.4l-3,3.2l3.2,4.2h-1.5l-2.6-3.4l-0.8,0.7v2.7h-1.2
			v-10.5h1.2v5.5V151.1L50.4,151.1z"/>
		<path id="XMLID_1271_" class="st10" d="M59.6,155c-1.1,0-2-0.3-2.6-1s-0.9-1.6-0.9-2.8c0-1.2,0.3-2.1,0.9-2.8s1.4-1.1,2.4-1.1
			c0.9,0,1.7,0.3,2.2,0.9c0.6,0.6,0.8,1.4,0.8,2.4v0.7h-5.1c0,0.8,0.2,1.5,0.6,1.9c0.4,0.4,1,0.7,1.7,0.7c0.4,0,0.8,0,1.1-0.1
			s0.8-0.2,1.2-0.4v1.1c-0.4,0.2-0.8,0.3-1.1,0.4C60.5,155,60.1,155,59.6,155z M59.3,148.4c-0.6,0-1,0.2-1.4,0.6
			c-0.3,0.4-0.5,0.9-0.6,1.6h3.8c0-0.7-0.2-1.2-0.5-1.6S59.9,148.4,59.3,148.4z"/>
		<path id="XMLID_1268_" class="st10" d="M67.7,147.4c1,0,1.7,0.3,2.3,1c0.5,0.7,0.8,1.6,0.8,2.8c0,1.2-0.3,2.2-0.8,2.8
			s-1.3,1-2.2,1c-0.5,0-0.9-0.1-1.3-0.3c-0.4-0.2-0.7-0.4-1-0.8h-0.1c-0.1,0.5-0.2,0.8-0.2,0.9h-0.9v-10.5h1.2v2.5
			c0,0.5,0,1-0.1,1.5h0.1C65.9,147.8,66.7,147.4,67.7,147.4z M67.5,148.4c-0.7,0-1.3,0.2-1.6,0.6c-0.3,0.4-0.5,1.1-0.5,2.1v0.1
			c0,1,0.2,1.7,0.5,2.2c0.3,0.4,0.9,0.6,1.6,0.6c0.7,0,1.2-0.2,1.5-0.7c0.3-0.5,0.5-1.2,0.5-2.1c0-0.9-0.2-1.6-0.5-2.1
			S68.2,148.4,67.5,148.4z"/>
		<path id="XMLID_1265_" class="st10" d="M77.3,154.9l-0.2-1H77c-0.4,0.5-0.7,0.8-1.1,0.9c-0.4,0.2-0.8,0.2-1.4,0.2
			c-0.7,0-1.3-0.2-1.7-0.6c-0.4-0.4-0.6-0.9-0.6-1.6c0-1.5,1.2-2.3,3.5-2.4l1.3,0V150c0-0.6-0.1-1-0.4-1.2c-0.2-0.3-0.6-0.4-1.2-0.4
			c-0.4,0-0.8,0.1-1.1,0.2c-0.3,0.1-0.7,0.2-1,0.4L73,148c0.4-0.2,0.8-0.4,1.2-0.5c0.4-0.1,0.9-0.2,1.3-0.2c0.9,0,1.6,0.2,2,0.6
			c0.4,0.4,0.7,1,0.7,1.9v5H77.3z M74.8,154c0.7,0,1.2-0.2,1.6-0.5c0.4-0.4,0.6-0.9,0.6-1.6v-0.7l-1.1,0c-0.8,0-1.5,0.2-1.9,0.4
			c-0.4,0.2-0.6,0.6-0.6,1.1c0,0.4,0.1,0.7,0.4,0.9C74,153.9,74.3,154,74.8,154z"/>
		<path id="XMLID_1263_" class="st10" d="M85.4,154.9v-4.7c0-0.6-0.1-1-0.4-1.3c-0.3-0.3-0.7-0.4-1.3-0.4c-0.7,0-1.3,0.2-1.6,0.6
			c-0.3,0.4-0.5,1.1-0.5,2.1v3.8h-1.2v-10.5h1.2v3.1c0,0.4,0,0.7-0.1,1h0.1c0.2-0.4,0.5-0.6,0.9-0.8c0.4-0.2,0.9-0.3,1.4-0.3
			c0.9,0,1.6,0.2,2,0.6c0.5,0.4,0.7,1.1,0.7,2.1v4.8H85.4z"/>
		<path id="XMLID_1260_" class="st10" d="M93.5,154.9l-0.2-1h-0.1c-0.4,0.5-0.7,0.8-1.1,0.9c-0.4,0.2-0.8,0.2-1.4,0.2
			c-0.7,0-1.3-0.2-1.7-0.6c-0.4-0.4-0.6-0.9-0.6-1.6c0-1.5,1.2-2.3,3.5-2.4l1.3,0V150c0-0.6-0.1-1-0.4-1.2c-0.2-0.3-0.6-0.4-1.2-0.4
			c-0.4,0-0.8,0.1-1.1,0.2c-0.3,0.1-0.7,0.2-1,0.4l-0.4-0.9c0.4-0.2,0.8-0.4,1.2-0.5c0.4-0.1,0.9-0.2,1.3-0.2c0.9,0,1.6,0.2,2,0.6
			c0.4,0.4,0.7,1,0.7,1.9v5H93.5z M91,154c0.7,0,1.2-0.2,1.6-0.5s0.6-0.9,0.6-1.6v-0.7l-1.1,0c-0.8,0-1.5,0.2-1.9,0.4
			s-0.6,0.6-0.6,1.1c0,0.4,0.1,0.7,0.4,0.9C90.2,153.9,90.6,154,91,154z"/>
		<path id="XMLID_1257_" class="st10" d="M101.6,154.8l0-0.9h-0.1c-0.5,0.7-1.3,1.1-2.3,1.1c-1,0-1.7-0.3-2.2-1
			c-0.5-0.7-0.8-1.6-0.8-2.8c0-1.2,0.3-2.1,0.8-2.8c0.5-0.7,1.3-1,2.2-1c1,0,1.8,0.4,2.3,1.1h0.1l0.2-1h1v7.5c0,1.1-0.3,1.9-0.8,2.4
			s-1.4,0.8-2.5,0.8c-1.1,0-2-0.2-2.7-0.5v-1.1c0.7,0.4,1.6,0.6,2.7,0.6c0.6,0,1.1-0.2,1.5-0.6c0.4-0.4,0.5-0.9,0.5-1.5V154.8z
			 M99.5,154c0.7,0,1.3-0.2,1.6-0.6c0.3-0.4,0.5-1,0.5-1.9v-0.3c0-1-0.2-1.7-0.5-2.2c-0.3-0.4-0.9-0.7-1.6-0.7
			c-0.6,0-1.1,0.2-1.4,0.7c-0.3,0.5-0.5,1.2-0.5,2.1c0,0.9,0.2,1.6,0.5,2.1C98.3,153.8,98.8,154,99.5,154z"/>
		<path id="XMLID_1254_" class="st10" d="M105,145.5c0-0.3,0.1-0.5,0.2-0.6s0.3-0.2,0.5-0.2c0.2,0,0.4,0.1,0.5,0.2s0.2,0.3,0.2,0.6
			c0,0.3-0.1,0.5-0.2,0.6c-0.1,0.1-0.3,0.2-0.5,0.2c-0.2,0-0.4-0.1-0.5-0.2C105.1,146,105,145.8,105,145.5z M106.3,154.9h-1.2v-7.4
			h1.2V154.9z"/>
		<path id="XMLID_1251_" class="st10" d="M113.2,154.9l-0.2-1h-0.1c-0.4,0.5-0.7,0.8-1.1,0.9c-0.4,0.2-0.8,0.2-1.4,0.2
			c-0.7,0-1.3-0.2-1.7-0.6c-0.4-0.4-0.6-0.9-0.6-1.6c0-1.5,1.2-2.3,3.5-2.4l1.3,0V150c0-0.6-0.1-1-0.4-1.2c-0.2-0.3-0.6-0.4-1.2-0.4
			c-0.4,0-0.8,0.1-1.1,0.2c-0.3,0.1-0.7,0.2-1,0.4l-0.4-0.9c0.4-0.2,0.8-0.4,1.2-0.5c0.4-0.1,0.9-0.2,1.3-0.2c0.9,0,1.6,0.2,2,0.6
			c0.4,0.4,0.7,1,0.7,1.9v5H113.2z M110.7,154c0.7,0,1.2-0.2,1.6-0.5s0.6-0.9,0.6-1.6v-0.7l-1.1,0c-0.8,0-1.5,0.2-1.9,0.4
			s-0.6,0.6-0.6,1.1c0,0.4,0.1,0.7,0.4,0.9C110,153.9,110.3,154,110.7,154z"/>
		<path id="XMLID_1248_" class="st10" d="M120.9,154.9l-0.2-1h-0.1c-0.4,0.5-0.7,0.8-1.1,0.9c-0.4,0.2-0.8,0.2-1.4,0.2
			c-0.7,0-1.3-0.2-1.7-0.6c-0.4-0.4-0.6-0.9-0.6-1.6c0-1.5,1.2-2.3,3.5-2.4l1.3,0V150c0-0.6-0.1-1-0.4-1.2c-0.2-0.3-0.6-0.4-1.2-0.4
			c-0.4,0-0.8,0.1-1.1,0.2c-0.3,0.1-0.7,0.2-1,0.4l-0.4-0.9c0.4-0.2,0.8-0.4,1.2-0.5c0.4-0.1,0.9-0.2,1.3-0.2c0.9,0,1.6,0.2,2,0.6
			c0.4,0.4,0.7,1,0.7,1.9v5H120.9z M118.4,154c0.7,0,1.2-0.2,1.6-0.5c0.4-0.4,0.6-0.9,0.6-1.6v-0.7l-1.1,0c-0.8,0-1.5,0.2-1.9,0.4
			c-0.4,0.2-0.6,0.6-0.6,1.1c0,0.4,0.1,0.7,0.4,0.9C117.7,153.9,118,154,118.4,154z"/>
		<path id="XMLID_1246_" class="st10" d="M129.1,154.9v-4.7c0-0.6-0.1-1-0.4-1.3c-0.3-0.3-0.7-0.4-1.3-0.4c-0.8,0-1.3,0.2-1.6,0.6
			c-0.3,0.4-0.5,1.1-0.5,2v3.8h-1.2v-7.4h1l0.2,1h0.1c0.2-0.4,0.5-0.6,1-0.8c0.4-0.2,0.9-0.3,1.4-0.3c0.9,0,1.6,0.2,2,0.7
			c0.4,0.4,0.7,1.1,0.7,2v4.8H129.1z"/>
	</g>
</g>
</svg>
