<?xml version="1.0" encoding="utf-8"?>
<!-- Generator: Adobe Illustrator 19.0.0, SVG Export Plug-In . SVG Version: 6.00 Build 0)  -->
<svg version="1.1" id="Layer_1" xmlns="http://www.w3.org/2000/svg" xmlns:xlink="http://www.w3.org/1999/xlink" x="0px" y="0px"
	 viewBox="0 0 168 167.3" style="enable-background:new 0 0 168 167.3;" xml:space="preserve">
<style type="text/css">
	.st0{fill:#FFFFFF;}
	.st1{fill:#088F5F;}
	.st2{fill:#CD202B;}
	.st3{fill:#15B27E;}
	.st4{fill:none;stroke:#FBFBFB;stroke-width:4;stroke-miterlimit:10;}
	.st5{fill:#FBFBFB;}
	.st6{fill:#404040;}
</style>
<polygon id="XMLID_818_" class="st0" points="148.8,167.2 148.8,148.1 168,167.3 "/>
<rect id="XMLID_819_" x="0" y="0" class="st1" width="150.8" height="167"/>
<rect id="XMLID_820_" x="0" y="106" class="st0" width="150.8" height="61.3"/>
<g id="XMLID_1240_">
	<circle id="XMLID_1241_" class="st2" cx="10.5" cy="117.5" r="4"/>
	<path id="XMLID_1273_" class="st2" d="M6.4,117.5h8.1v10.1C14.5,127.6,6.4,122.7,6.4,117.5z"/>
	<circle id="XMLID_1274_" class="st2" cx="18.5" cy="117.4" r="4"/>
	<path id="XMLID_1275_" class="st2" d="M22.6,117.4h-8.1v10.1C14.5,127.4,22.6,122.5,22.6,117.4z"/>
</g>
<circle id="XMLID_1281_" class="st3" cx="76.2" cy="54.6" r="40.6"/>
<g id="XMLID_1282_">
	<path id="XMLID_245_" class="st4" d="M86.5,25.8C98.2,29.9,106.5,41,106.5,54c0,16.6-13.5,30-30.2,30C59.6,84,46,70.5,46,54
		c0-13.6,9.2-25.2,21.8-28.8"/>
	<circle id="XMLID_43_" class="st5" cx="69.6" cy="26.1" r="5.7"/>
	<circle id="XMLID_40_" class="st5" cx="84.9" cy="26.1" r="5.7"/>
</g>
<g id="XMLID_96_">
	<path id="XMLID_97_" class="st6" d="M31.9,118h4v5.2c-0.6,0.2-1.2,0.4-1.8,0.4c-0.6,0.1-1.1,0.1-1.7,0.1c-1.5,0-2.7-0.4-3.5-1.3
		c-0.8-0.9-1.2-2.2-1.2-3.8c0-1.6,0.5-2.9,1.4-3.8s2.2-1.4,3.8-1.4c1,0,2,0.2,3,0.6l-0.7,1.7c-0.7-0.4-1.5-0.5-2.3-0.5
		c-0.9,0-1.6,0.3-2.2,0.9c-0.6,0.6-0.8,1.4-0.8,2.5c0,1.1,0.2,1.9,0.7,2.5c0.4,0.6,1.1,0.9,1.9,0.9c0.4,0,0.9,0,1.3-0.1v-2.1h-1.9
		V118z"/>
	<path id="XMLID_99_" class="st6" d="M41.6,123.7c-1.2,0-2.2-0.3-2.9-1c-0.7-0.7-1-1.6-1-2.9c0-1.3,0.3-2.3,1-3c0.6-0.7,1.5-1,2.7-1
		c1.1,0,1.9,0.3,2.5,0.9s0.9,1.5,0.9,2.5v1h-4.9c0,0.6,0.2,1.1,0.5,1.4c0.3,0.3,0.8,0.5,1.4,0.5c0.5,0,0.9,0,1.3-0.1
		s0.8-0.2,1.3-0.5v1.6c-0.4,0.2-0.8,0.3-1.2,0.4C42.7,123.7,42.2,123.7,41.6,123.7z M41.3,117.3c-0.4,0-0.8,0.1-1,0.4
		c-0.3,0.3-0.4,0.7-0.4,1.2h2.9c0-0.5-0.1-0.9-0.4-1.2S41.7,117.3,41.3,117.3z"/>
	<path id="XMLID_102_" class="st6" d="M48.5,123.6h-2.1V113h2.1V123.6z"/>
	<path id="XMLID_104_" class="st6" d="M55.5,123.6l-0.4-1H55c-0.4,0.4-0.7,0.7-1.1,0.9s-0.9,0.3-1.5,0.3c-0.7,0-1.3-0.2-1.7-0.6
		c-0.4-0.4-0.6-1-0.6-1.8c0-0.8,0.3-1.4,0.9-1.8c0.6-0.4,1.4-0.6,2.6-0.6l1.3,0v-0.3c0-0.8-0.4-1.2-1.2-1.2c-0.6,0-1.3,0.2-2.2,0.6
		l-0.7-1.4c0.9-0.5,1.9-0.7,2.9-0.7c1,0,1.8,0.2,2.4,0.7c0.5,0.4,0.8,1.1,0.8,2v5.1H55.5z M54.9,120.1l-0.8,0
		c-0.6,0-1.1,0.1-1.4,0.3c-0.3,0.2-0.4,0.5-0.4,0.9c0,0.6,0.3,0.9,1,0.9c0.5,0,0.9-0.1,1.2-0.4c0.3-0.3,0.4-0.6,0.4-1.1V120.1z"/>
	<path id="XMLID_107_" class="st6" d="M66.2,123.6h-2.1v-4.5c0-0.6-0.1-1-0.3-1.2c-0.2-0.3-0.5-0.4-0.9-0.4c-0.6,0-1,0.2-1.3,0.6
		s-0.4,1-0.4,1.9v3.6h-2.1V116h1.6l0.3,1h0.1c0.2-0.4,0.6-0.6,1-0.8c0.4-0.2,0.9-0.3,1.4-0.3c0.9,0,1.6,0.2,2,0.7
		c0.5,0.5,0.7,1.2,0.7,2.1V123.6z"/>
	<path id="XMLID_109_" class="st6" d="M75,123.6c0,1.1-0.3,1.9-1,2.5s-1.6,0.9-2.9,0.9c-1.1,0-2.1-0.2-2.9-0.5v-1.7
		c0.9,0.4,1.9,0.6,3,0.6c1.1,0,1.6-0.6,1.6-1.7v-0.2l0.1-0.9h-0.1c-0.5,0.8-1.2,1.1-2.2,1.1c-0.9,0-1.6-0.4-2.1-1.1
		c-0.5-0.7-0.8-1.7-0.8-2.9c0-1.3,0.3-2.2,0.8-2.9c0.5-0.7,1.2-1,2.2-1c0.9,0,1.7,0.4,2.2,1.1h0.1l0.2-1H75V123.6z M71.5,122.1
		c0.6,0,1-0.2,1.2-0.5c0.2-0.3,0.4-0.8,0.4-1.6v-0.3c0-0.8-0.1-1.4-0.4-1.8c-0.3-0.4-0.7-0.5-1.2-0.5c-1,0-1.5,0.8-1.5,2.3
		c0,0.8,0.1,1.3,0.4,1.7C70.6,121.9,71,122.1,71.5,122.1z"/>
	<path id="XMLID_112_" class="st6" d="M35.5,140.4h-1.5l-3.5-4.8l-1,0.9v3.9h-1.3v-10h1.3v4.9l0.9-1l3.6-4h1.5l-4,4.4L35.5,140.4z"
		/>
	<path id="XMLID_114_" class="st6" d="M39.9,140.5c-1.1,0-2-0.3-2.6-1c-0.6-0.7-1-1.6-1-2.8c0-1.2,0.3-2.2,0.9-2.9
		c0.6-0.7,1.4-1.1,2.4-1.1c0.9,0,1.7,0.3,2.3,0.9s0.8,1.4,0.8,2.5v0.7h-5.1c0,0.9,0.2,1.5,0.6,1.9c0.4,0.4,1,0.7,1.7,0.7
		c0.4,0,0.8,0,1.1-0.1c0.4-0.1,0.8-0.2,1.3-0.4v1.1c-0.4,0.2-0.8,0.3-1.2,0.4C40.9,140.5,40.4,140.5,39.9,140.5z M39.6,133.8
		c-0.6,0-1.1,0.2-1.4,0.6c-0.3,0.4-0.5,0.9-0.6,1.6h3.8c0-0.7-0.2-1.2-0.5-1.6C40.6,133.9,40.2,133.8,39.6,133.8z"/>
	<path id="XMLID_117_" class="st6" d="M54.2,140.4v-4.8c0-1.2-0.5-1.8-1.5-1.8c-0.7,0-1.2,0.2-1.5,0.6c-0.3,0.4-0.5,1-0.5,1.9v4.1
		h-1.2v-4.8c0-0.6-0.1-1-0.4-1.3c-0.2-0.3-0.6-0.4-1.2-0.4c-0.7,0-1.2,0.2-1.5,0.6s-0.5,1.1-0.5,2.1v3.9h-1.2v-7.5h1l0.2,1h0.1
		c0.2-0.4,0.5-0.6,0.9-0.9s0.8-0.3,1.3-0.3c1.2,0,1.9,0.4,2.3,1.3h0.1c0.2-0.4,0.6-0.7,1-0.9s0.9-0.3,1.4-0.3c0.8,0,1.5,0.2,1.9,0.7
		s0.6,1.1,0.6,2.1v4.9H54.2z"/>
	<path id="XMLID_119_" class="st6" d="M62.4,140.4l-0.2-1.1h-0.1c-0.4,0.5-0.7,0.8-1.1,1c-0.4,0.2-0.8,0.3-1.4,0.3
		c-0.7,0-1.3-0.2-1.7-0.6c-0.4-0.4-0.6-0.9-0.6-1.6c0-1.5,1.2-2.3,3.6-2.4l1.3,0v-0.4c0-0.6-0.1-1-0.4-1.3c-0.2-0.3-0.6-0.4-1.2-0.4
		c-0.4,0-0.8,0.1-1.1,0.2c-0.4,0.1-0.7,0.3-1,0.4l-0.4-0.9c0.4-0.2,0.8-0.4,1.2-0.5c0.4-0.1,0.9-0.2,1.3-0.2c0.9,0,1.6,0.2,2,0.6
		c0.4,0.4,0.7,1,0.7,1.9v5.1H62.4z M59.8,139.5c0.7,0,1.2-0.2,1.6-0.6c0.4-0.4,0.6-0.9,0.6-1.6v-0.7l-1.1,0c-0.9,0-1.5,0.2-1.9,0.4
		c-0.4,0.2-0.6,0.6-0.6,1.1c0,0.4,0.1,0.7,0.4,0.9C59.1,139.4,59.4,139.5,59.8,139.5z"/>
	<path id="XMLID_122_" class="st6" d="M66.8,136.5l0.4-0.5l0.5-0.6l2.4-2.5h1.4l-3,3.2l3.2,4.3h-1.5l-2.6-3.5l-0.9,0.7v2.8h-1.2
		v-10.6h1.2v5.6V136.5L66.8,136.5z"/>
	<path id="XMLID_124_" class="st6" d="M82.6,140.4v-4.8c0-1.2-0.5-1.8-1.5-1.8c-0.7,0-1.2,0.2-1.5,0.6c-0.3,0.4-0.5,1-0.5,1.9v4.1
		h-1.2v-4.8c0-0.6-0.1-1-0.4-1.3c-0.2-0.3-0.6-0.4-1.2-0.4c-0.7,0-1.2,0.2-1.5,0.6s-0.5,1.1-0.5,2.1v3.9h-1.2v-7.5h1l0.2,1h0.1
		c0.2-0.4,0.5-0.6,0.9-0.9s0.8-0.3,1.3-0.3c1.2,0,1.9,0.4,2.3,1.3h0.1c0.2-0.4,0.6-0.7,1-0.9s0.9-0.3,1.4-0.3c0.8,0,1.5,0.2,1.9,0.7
		s0.6,1.1,0.6,2.1v4.9H82.6z"/>
	<path id="XMLID_126_" class="st6" d="M87.3,132.9v4.8c0,0.6,0.1,1.1,0.4,1.3s0.7,0.4,1.3,0.4c0.8,0,1.3-0.2,1.7-0.6
		c0.4-0.4,0.5-1.1,0.5-2.1v-3.9h1.2v7.5h-1l-0.2-1h-0.1c-0.2,0.4-0.5,0.6-1,0.8c-0.4,0.2-0.9,0.3-1.4,0.3c-0.9,0-1.6-0.2-2-0.6
		c-0.5-0.4-0.7-1.1-0.7-2.1v-4.9H87.3z"/>
	<path id="XMLID_128_" class="st6" d="M98.3,132.8c0.3,0,0.6,0,0.9,0.1L99,134c-0.3-0.1-0.5-0.1-0.8-0.1c-0.4,0-0.8,0.1-1.1,0.3
		s-0.6,0.5-0.8,0.9c-0.2,0.4-0.3,0.8-0.3,1.3v4h-1.2v-7.5h1l0.1,1.4H96c0.3-0.5,0.6-0.9,1-1.1C97.4,132.9,97.8,132.8,98.3,132.8z"/>
	<path id="XMLID_130_" class="st6" d="M105.1,140.4l-0.2-1.1h-0.1c-0.4,0.5-0.7,0.8-1.1,1c-0.4,0.2-0.8,0.3-1.4,0.3
		c-0.7,0-1.3-0.2-1.7-0.6c-0.4-0.4-0.6-0.9-0.6-1.6c0-1.5,1.2-2.3,3.6-2.4l1.3,0v-0.4c0-0.6-0.1-1-0.4-1.3c-0.2-0.3-0.6-0.4-1.2-0.4
		c-0.4,0-0.8,0.1-1.1,0.2c-0.4,0.1-0.7,0.3-1,0.4l-0.4-0.9c0.4-0.2,0.8-0.4,1.2-0.5c0.4-0.1,0.9-0.2,1.3-0.2c0.9,0,1.6,0.2,2,0.6
		c0.4,0.4,0.7,1,0.7,1.9v5.1H105.1z M102.5,139.5c0.7,0,1.2-0.2,1.6-0.6c0.4-0.4,0.6-0.9,0.6-1.6v-0.7l-1.1,0
		c-0.9,0-1.5,0.2-1.9,0.4c-0.4,0.2-0.6,0.6-0.6,1.1c0,0.4,0.1,0.7,0.4,0.9C101.8,139.4,102.1,139.5,102.5,139.5z"/>
	<path id="XMLID_133_" class="st6" d="M113.4,140.4v-4.8c0-0.6-0.1-1.1-0.4-1.4c-0.3-0.3-0.7-0.4-1.3-0.4c-0.8,0-1.3,0.2-1.7,0.6
		c-0.3,0.4-0.5,1.1-0.5,2.1v3.9h-1.2v-7.5h1l0.2,1h0.1c0.2-0.4,0.6-0.7,1-0.9c0.4-0.2,0.9-0.3,1.4-0.3c0.9,0,1.6,0.2,2.1,0.7
		c0.4,0.4,0.7,1.1,0.7,2.1v4.9H113.4z"/>
	<path id="XMLID_135_" class="st6" d="M123.3,140.5c-1,0-1.7-0.3-2.3-1c-0.5-0.7-0.8-1.6-0.8-2.9c0-1.2,0.3-2.2,0.8-2.9
		c0.5-0.7,1.3-1,2.3-1c1,0,1.8,0.4,2.3,1.1h0.1c0-0.1,0-0.3-0.1-0.6c0-0.3,0-0.5,0-0.6v-3h1.2v10.6h-1l-0.2-1h-0.1
		C125.1,140.2,124.3,140.5,123.3,140.5z M123.4,139.5c0.7,0,1.3-0.2,1.6-0.6c0.3-0.4,0.5-1.1,0.5-2v-0.2c0-1-0.2-1.8-0.5-2.2
		s-0.9-0.7-1.6-0.7c-0.6,0-1.1,0.3-1.5,0.8c-0.3,0.5-0.5,1.2-0.5,2.2c0,0.9,0.2,1.6,0.5,2.1S122.8,139.5,123.4,139.5z"/>
	<path id="XMLID_138_" class="st6" d="M133.8,140.4l-0.2-1.1h-0.1c-0.4,0.5-0.7,0.8-1.1,1c-0.4,0.2-0.8,0.3-1.4,0.3
		c-0.7,0-1.3-0.2-1.7-0.6c-0.4-0.4-0.6-0.9-0.6-1.6c0-1.5,1.2-2.3,3.6-2.4l1.3,0v-0.4c0-0.6-0.1-1-0.4-1.3c-0.2-0.3-0.6-0.4-1.2-0.4
		c-0.4,0-0.8,0.1-1.1,0.2c-0.4,0.1-0.7,0.3-1,0.4l-0.4-0.9c0.4-0.2,0.8-0.4,1.2-0.5c0.4-0.1,0.9-0.2,1.3-0.2c0.9,0,1.6,0.2,2,0.6
		c0.4,0.4,0.7,1,0.7,1.9v5.1H133.8z M131.3,139.5c0.7,0,1.2-0.2,1.6-0.6c0.4-0.4,0.6-0.9,0.6-1.6v-0.7l-1.1,0
		c-0.9,0-1.5,0.2-1.9,0.4c-0.4,0.2-0.6,0.6-0.6,1.1c0,0.4,0.1,0.7,0.4,0.9C130.5,139.4,130.9,139.5,131.3,139.5z"/>
	<path id="XMLID_141_" class="st6" d="M142.2,140.4v-4.8c0-0.6-0.1-1.1-0.4-1.4c-0.3-0.3-0.7-0.4-1.3-0.4c-0.8,0-1.3,0.2-1.7,0.6
		c-0.3,0.4-0.5,1.1-0.5,2.1v3.9h-1.2v-7.5h1l0.2,1h0.1c0.2-0.4,0.6-0.7,1-0.9c0.4-0.2,0.9-0.3,1.4-0.3c0.9,0,1.6,0.2,2.1,0.7
		c0.4,0.4,0.7,1.1,0.7,2.1v4.9H142.2z"/>
	<path id="XMLID_143_" class="st6" d="M35.5,157.2h-1.5l-3.5-4.8l-1,0.9v3.9h-1.3v-10h1.3v4.9l0.9-1l3.6-4h1.5l-4,4.4L35.5,157.2z"
		/>
	<path id="XMLID_145_" class="st6" d="M39.9,157.3c-1.1,0-2-0.3-2.6-1c-0.6-0.7-1-1.6-1-2.8c0-1.2,0.3-2.2,0.9-2.9
		c0.6-0.7,1.4-1.1,2.4-1.1c0.9,0,1.7,0.3,2.3,0.9s0.8,1.4,0.8,2.5v0.7h-5.1c0,0.9,0.2,1.5,0.6,1.9c0.4,0.4,1,0.7,1.7,0.7
		c0.4,0,0.8,0,1.1-0.1c0.4-0.1,0.8-0.2,1.3-0.4v1.1c-0.4,0.2-0.8,0.3-1.2,0.4C40.9,157.3,40.4,157.3,39.9,157.3z M39.6,150.6
		c-0.6,0-1.1,0.2-1.4,0.6c-0.3,0.4-0.5,0.9-0.6,1.6h3.8c0-0.7-0.2-1.2-0.5-1.6C40.6,150.7,40.2,150.6,39.6,150.6z"/>
	<path id="XMLID_148_" class="st6" d="M48.2,149.6c1,0,1.8,0.3,2.3,1c0.5,0.7,0.8,1.6,0.8,2.9c0,1.2-0.3,2.2-0.8,2.9s-1.3,1-2.3,1
		c-0.5,0-1-0.1-1.4-0.3c-0.4-0.2-0.7-0.5-1-0.8h-0.1c-0.1,0.5-0.2,0.9-0.3,1h-0.9v-10.6h1.2v2.6c0,0.5,0,1-0.1,1.5h0.1
		C46.4,149.9,47.1,149.6,48.2,149.6z M48,150.6c-0.8,0-1.3,0.2-1.6,0.6c-0.3,0.4-0.5,1.2-0.5,2.2v0.1c0,1,0.2,1.8,0.5,2.2
		c0.3,0.4,0.9,0.7,1.6,0.7c0.7,0,1.2-0.2,1.5-0.7c0.3-0.5,0.5-1.2,0.5-2.1c0-0.9-0.2-1.7-0.5-2.1C49.2,150.8,48.7,150.6,48,150.6z"
		/>
	<path id="XMLID_151_" class="st6" d="M56.4,157.3c-1.1,0-2-0.3-2.6-1c-0.6-0.7-1-1.6-1-2.8c0-1.2,0.3-2.2,0.9-2.9
		c0.6-0.7,1.4-1.1,2.4-1.1c0.9,0,1.7,0.3,2.3,0.9s0.8,1.4,0.8,2.5v0.7h-5.1c0,0.9,0.2,1.5,0.6,1.9c0.4,0.4,1,0.7,1.7,0.7
		c0.4,0,0.8,0,1.1-0.1c0.4-0.1,0.8-0.2,1.3-0.4v1.1c-0.4,0.2-0.8,0.3-1.2,0.4C57.4,157.3,56.9,157.3,56.4,157.3z M56.1,150.6
		c-0.6,0-1.1,0.2-1.4,0.6c-0.3,0.4-0.5,0.9-0.6,1.6h3.8c0-0.7-0.2-1.2-0.5-1.6C57.1,150.7,56.7,150.6,56.1,150.6z"/>
	<path id="XMLID_154_" class="st6" d="M64.6,149.6c0.3,0,0.6,0,0.9,0.1l-0.2,1.1c-0.3-0.1-0.5-0.1-0.8-0.1c-0.4,0-0.8,0.1-1.1,0.3
		s-0.6,0.5-0.8,0.9c-0.2,0.4-0.3,0.8-0.3,1.3v4h-1.2v-7.5h1l0.1,1.4h0.1c0.3-0.5,0.6-0.9,1-1.1C63.8,149.7,64.2,149.6,64.6,149.6z"
		/>
	<path id="XMLID_156_" class="st6" d="M68.1,149.7v4.8c0,0.6,0.1,1.1,0.4,1.4s0.7,0.4,1.3,0.4c0.8,0,1.3-0.2,1.7-0.6
		c0.4-0.4,0.5-1.1,0.5-2.1v-3.9h1.2v7.5h-1l-0.2-1h-0.1c-0.2,0.4-0.5,0.6-1,0.8c-0.4,0.2-0.9,0.3-1.4,0.3c-0.9,0-1.6-0.2-2-0.6
		c-0.5-0.4-0.7-1.1-0.7-2.1v-4.9H68.1z"/>
	<path id="XMLID_158_" class="st6" d="M80.7,157.2v-4.8c0-0.6-0.1-1.1-0.4-1.4c-0.3-0.3-0.7-0.4-1.3-0.4c-0.8,0-1.3,0.2-1.7,0.6
		c-0.3,0.4-0.5,1.1-0.5,2.1v3.9h-1.2v-7.5h1l0.2,1h0.1c0.2-0.4,0.6-0.7,1-0.9c0.4-0.2,0.9-0.3,1.4-0.3c0.9,0,1.6,0.2,2.1,0.7
		c0.4,0.4,0.7,1.1,0.7,2.1v4.9H80.7z"/>
	<path id="XMLID_160_" class="st6" d="M86.7,156.3c0.2,0,0.3,0,0.6,0c0.2,0,0.4-0.1,0.5-0.1v0.9c-0.1,0.1-0.3,0.1-0.5,0.1
		s-0.5,0.1-0.7,0.1c-1.5,0-2.2-0.8-2.2-2.3v-4.4h-1.1v-0.6l1.1-0.5l0.5-1.6h0.7v1.7h2.2v1h-2.2v4.3c0,0.4,0.1,0.8,0.3,1
		S86.4,156.3,86.7,156.3z"/>
	<path id="XMLID_175_" class="st6" d="M90.4,149.7v4.8c0,0.6,0.1,1.1,0.4,1.4s0.7,0.4,1.3,0.4c0.8,0,1.3-0.2,1.7-0.6
		c0.4-0.4,0.5-1.1,0.5-2.1v-3.9h1.2v7.5h-1l-0.2-1h-0.1c-0.2,0.4-0.5,0.6-1,0.8c-0.4,0.2-0.9,0.3-1.4,0.3c-0.9,0-1.6-0.2-2-0.6
		c-0.5-0.4-0.7-1.1-0.7-2.1v-4.9H90.4z"/>
	<path id="XMLID_177_" class="st6" d="M103.1,157.2v-4.8c0-0.6-0.1-1.1-0.4-1.4c-0.3-0.3-0.7-0.4-1.3-0.4c-0.8,0-1.3,0.2-1.7,0.6
		c-0.3,0.4-0.5,1.1-0.5,2.1v3.9h-1.2v-7.5h1l0.2,1h0.1c0.2-0.4,0.6-0.7,1-0.9c0.4-0.2,0.9-0.3,1.4-0.3c0.9,0,1.6,0.2,2.1,0.7
		c0.4,0.4,0.7,1.1,0.7,2.1v4.9H103.1z"/>
	<path id="XMLID_179_" class="st6" d="M111.6,157.1l0-0.9h-0.1c-0.5,0.8-1.3,1.1-2.3,1.1c-1,0-1.7-0.3-2.3-1s-0.8-1.6-0.8-2.9
		c0-1.2,0.3-2.2,0.8-2.9s1.3-1,2.3-1c1,0,1.8,0.4,2.4,1.1h0.1l0.2-1h1v7.6c0,1.1-0.3,1.9-0.8,2.4c-0.5,0.5-1.4,0.8-2.5,0.8
		c-1.1,0-2-0.2-2.7-0.5v-1.1c0.7,0.4,1.7,0.6,2.8,0.6c0.6,0,1.1-0.2,1.5-0.6c0.4-0.4,0.6-0.9,0.6-1.6V157.1z M109.4,156.3
		c0.8,0,1.3-0.2,1.7-0.6c0.3-0.4,0.5-1.1,0.5-2v-0.3c0-1-0.2-1.7-0.5-2.2c-0.3-0.5-0.9-0.7-1.7-0.7c-0.6,0-1.1,0.3-1.5,0.7
		s-0.5,1.2-0.5,2.1c0,0.9,0.2,1.6,0.5,2.1C108.3,156.1,108.8,156.3,109.4,156.3z"/>
	<path id="XMLID_193_" class="st6" d="M119.8,157.2l-0.2-1.1h-0.1c-0.4,0.5-0.7,0.8-1.1,1c-0.4,0.2-0.8,0.2-1.4,0.2
		c-0.7,0-1.3-0.2-1.7-0.6c-0.4-0.4-0.6-0.9-0.6-1.6c0-1.5,1.2-2.3,3.6-2.4l1.3,0v-0.4c0-0.6-0.1-1-0.4-1.3c-0.2-0.3-0.6-0.4-1.2-0.4
		c-0.4,0-0.8,0.1-1.1,0.2c-0.4,0.1-0.7,0.3-1,0.4l-0.4-0.9c0.4-0.2,0.8-0.4,1.2-0.5c0.4-0.1,0.9-0.2,1.3-0.2c0.9,0,1.6,0.2,2,0.6
		c0.4,0.4,0.7,1,0.7,1.9v5.1H119.8z M117.3,156.3c0.7,0,1.2-0.2,1.6-0.6c0.4-0.4,0.6-0.9,0.6-1.6v-0.7l-1.1,0
		c-0.9,0-1.5,0.2-1.9,0.4c-0.4,0.2-0.6,0.6-0.6,1.1c0,0.4,0.1,0.7,0.4,0.9C116.5,156.2,116.9,156.3,117.3,156.3z"/>
	<path id="XMLID_196_" class="st6" d="M128.2,157.2v-4.8c0-0.6-0.1-1.1-0.4-1.4c-0.3-0.3-0.7-0.4-1.3-0.4c-0.8,0-1.3,0.2-1.7,0.6
		c-0.3,0.4-0.5,1.1-0.5,2.1v3.9h-1.2v-7.5h1l0.2,1h0.1c0.2-0.4,0.6-0.7,1-0.9c0.4-0.2,0.9-0.3,1.4-0.3c0.9,0,1.6,0.2,2.1,0.7
		c0.4,0.4,0.7,1.1,0.7,2.1v4.9H128.2z"/>
</g>
</svg>
