<?xml version="1.0" encoding="utf-8"?>
<!-- Generator: Adobe Illustrator 19.0.0, SVG Export Plug-In . SVG Version: 6.00 Build 0)  -->
<svg version="1.1" id="Layer_1" xmlns="http://www.w3.org/2000/svg" xmlns:xlink="http://www.w3.org/1999/xlink" x="0px" y="0px"
	 viewBox="0 0 168.4 202.3" style="enable-background:new 0 0 168.4 202.3;" xml:space="preserve">
<style type="text/css">
	.st0{fill:#E5E5E3;}
	.st1{fill:#FFFFFF;}
	.st2{fill:#15B27E;}
	.st3{fill:#EE245D;}
	.st4{fill:#CD202B;}
	.st5{fill:#404040;}
</style>
<rect id="XMLID_1333_" y="0" class="st0" width="151.3" height="167"/>
<rect id="XMLID_1343_" y="58.9" class="st1" width="151.4" height="143.4"/>
<polygon id="XMLID_1342_" class="st1" points="149.2,202 149.2,182.9 168.4,202.1 "/>
<g id="XMLID_1334_">
	<g id="XMLID_3915_">
		<rect id="XMLID_1335_" x="33.8" y="21" class="st2" width="35.4" height="6.4"/>
		<rect id="XMLID_1336_" x="36.3" y="27.5" class="st2" width="30.5" height="24.6"/>
		<path id="XMLID_1337_" class="st2" d="M44.5,20L44.5,20c-1.7,0-3.1-1.4-3.1-3.1v-2.4c0-1.7,1.4-3.1,3.1-3.1l0,0
			c1.7,0,3.1,1.4,3.1,3.1v2.4C47.6,18.6,46.2,20,44.5,20z"/>
		<path id="XMLID_3916_" class="st2" d="M44.5,21c0,0-3.1-1-3.1-3.6h6.1c0,0-0.2,2.8,1.9,3.6H44.5z"/>
		<path id="XMLID_1338_" class="st2" d="M57.3,20.4L57.3,20.4c1.7,0,3.1-1.4,3.1-3.1v-2.4c0-1.7-1.4-3.1-3.1-3.1l0,0
			c-1.7,0-3.1,1.4-3.1,3.1v2.4C54.3,19,55.6,20.4,57.3,20.4z"/>
		<path id="XMLID_1339_" class="st2" d="M57.3,21c0,0,3.1-1,3.1-3.6h-6.1c0,0,0.2,2.8-1.9,3.6H57.3z"/>
		<rect id="XMLID_1340_" x="36.3" y="27.5" class="st2" width="29" height="2.2"/>
		<rect id="XMLID_1341_" x="48.6" y="21" class="st2" width="5.8" height="31.1"/>
	</g>
	<g id="XMLID_3917_">
		<rect id="XMLID_1344_" x="78.4" y="21" class="st3" width="35.4" height="6.4"/>
		<rect id="XMLID_1345_" x="80.8" y="27.5" class="st3" width="30.5" height="24.6"/>
		<path id="XMLID_1346_" class="st3" d="M89,20L89,20c-1.7,0-3.1-1.4-3.1-3.1v-2.4c0-1.7,1.4-3.1,3.1-3.1h0c1.7,0,3.1,1.4,3.1,3.1
			v2.4C92.1,18.6,90.7,20,89,20z"/>
		<path id="XMLID_3918_" class="st3" d="M89,21c0,0-3.1-1-3.1-3.6h6.1c0,0-0.2,2.8,1.9,3.6H89z"/>
		<path id="XMLID_1347_" class="st3" d="M101.9,20.4L101.9,20.4c1.7,0,3.1-1.4,3.1-3.1v-2.4c0-1.7-1.4-3.1-3.1-3.1l0,0
			c-1.7,0-3.1,1.4-3.1,3.1v2.4C98.8,19,100.2,20.4,101.9,20.4z"/>
		<path id="XMLID_1348_" class="st3" d="M101.9,21c0,0,3.1-1,3.1-3.6h-6.1c0,0,0.2,2.8-1.9,3.6H101.9z"/>
		<rect id="XMLID_1349_" x="80.8" y="27.5" class="st3" width="29" height="2.2"/>
		<rect id="XMLID_1350_" x="93.1" y="21" class="st3" width="5.8" height="31.1"/>
	</g>
</g>
<g id="XMLID_3946_">
	<circle id="XMLID_3947_" class="st4" cx="10.3" cy="71.3" r="4"/>
	<path id="XMLID_3948_" class="st4" d="M6.2,71.3h8.1v10.1C14.3,81.4,6.2,76.5,6.2,71.3z"/>
	<circle id="XMLID_1351_" class="st4" cx="18.3" cy="71.2" r="4"/>
	<path id="XMLID_1352_" class="st4" d="M22.4,71.2h-8.1v10.1C14.3,81.2,22.4,76.3,22.4,71.2z"/>
</g>
<g id="XMLID_120_">
	<path id="XMLID_161_" class="st5" d="M32.7,77.4l-2.4-7.8h-0.1c0.1,1.6,0.1,2.7,0.1,3.2v4.6h-1.9v-10h2.9l2.4,7.6h0l2.5-7.6h2.9v10
		h-2v-4.7c0-0.2,0-0.5,0-0.8c0-0.3,0-1.1,0.1-2.3h-0.1l-2.6,7.8H32.7z"/>
	<path id="XMLID_163_" class="st5" d="M44.9,77.5c-1.2,0-2.2-0.3-2.9-1c-0.7-0.7-1-1.6-1-2.9c0-1.3,0.3-2.3,1-3c0.6-0.7,1.5-1,2.7-1
		c1.1,0,1.9,0.3,2.5,0.9S48,72,48,73.1v1h-4.9c0,0.6,0.2,1.1,0.5,1.4c0.3,0.3,0.8,0.5,1.4,0.5c0.5,0,0.9,0,1.3-0.1s0.8-0.2,1.3-0.5
		V77c-0.4,0.2-0.8,0.3-1.2,0.4C46,77.5,45.5,77.5,44.9,77.5z M44.6,71.1c-0.4,0-0.8,0.1-1,0.4c-0.3,0.3-0.4,0.7-0.4,1.2h2.9
		c0-0.5-0.1-0.9-0.4-1.2S45.1,71.1,44.6,71.1z"/>
	<path id="XMLID_166_" class="st5" d="M56.6,77.4h-2.1v-4.5c0-0.6-0.1-1-0.3-1.2c-0.2-0.3-0.5-0.4-0.9-0.4c-0.5,0-0.9,0.2-1.2,0.6
		c-0.2,0.4-0.4,1-0.4,1.9v3.6h-2.1v-7.6h1.6l0.3,1h0.1c0.2-0.4,0.5-0.6,0.9-0.8c0.4-0.2,0.8-0.3,1.3-0.3c1.1,0,1.9,0.4,2.3,1.1h0.2
		c0.2-0.4,0.5-0.6,0.9-0.8c0.4-0.2,0.8-0.3,1.4-0.3c0.9,0,1.5,0.2,2,0.7s0.7,1.2,0.7,2.1v5h-2.1v-4.5c0-0.6-0.1-1-0.3-1.2
		c-0.2-0.3-0.5-0.4-0.9-0.4c-0.5,0-0.9,0.2-1.1,0.5c-0.3,0.4-0.4,0.9-0.4,1.7V77.4z"/>
	<path id="XMLID_168_" class="st5" d="M67.7,69.6c0.9,0,1.6,0.4,2.1,1.1c0.5,0.7,0.8,1.7,0.8,2.9c0,1.3-0.3,2.2-0.8,2.9
		c-0.5,0.7-1.2,1-2.1,1c-0.9,0-1.6-0.3-2.1-1h-0.1l-0.3,0.8h-1.6V66.7h2.1v2.5c0,0.3,0,0.8-0.1,1.5h0.1C66.1,70,66.8,69.6,67.7,69.6
		z M67.1,71.2c-0.5,0-0.9,0.2-1.1,0.5c-0.2,0.3-0.4,0.8-0.4,1.6v0.2c0,0.8,0.1,1.4,0.4,1.8s0.6,0.5,1.2,0.5c0.4,0,0.8-0.2,1-0.6
		c0.3-0.4,0.4-1,0.4-1.7s-0.1-1.3-0.4-1.7C67.9,71.4,67.5,71.2,67.1,71.2z"/>
	<path id="XMLID_171_" class="st5" d="M77.8,77.4l-0.3-1h-0.1c-0.2,0.4-0.5,0.6-1,0.8c-0.4,0.2-0.9,0.3-1.4,0.3
		c-0.9,0-1.6-0.2-2-0.7c-0.5-0.5-0.7-1.2-0.7-2.1v-5h2.1v4.5c0,0.6,0.1,1,0.3,1.2c0.2,0.3,0.5,0.4,0.9,0.4c0.6,0,1-0.2,1.3-0.6
		s0.4-1,0.4-1.9v-3.6h2.1v7.6H77.8z"/>
	<path id="XMLID_173_" class="st5" d="M88.6,77.4h-2.1v-4.5c0-0.6-0.1-1-0.3-1.2c-0.2-0.3-0.5-0.4-0.9-0.4c-0.6,0-1,0.2-1.3,0.6
		s-0.4,1-0.4,1.9v3.6h-2.1v-7.6h1.6l0.3,1h0.1c0.2-0.4,0.6-0.6,1-0.8c0.4-0.2,0.9-0.3,1.4-0.3c0.9,0,1.6,0.2,2,0.7
		c0.5,0.5,0.7,1.2,0.7,2.1V77.4z"/>
	<path id="XMLID_212_" class="st5" d="M97.4,77.4c0,1.1-0.3,1.9-1,2.5s-1.6,0.9-2.9,0.9c-1.1,0-2.1-0.2-2.9-0.5v-1.7
		c0.9,0.4,1.9,0.6,3,0.6c1.1,0,1.6-0.6,1.6-1.7v-0.2l0.1-0.9h-0.1c-0.5,0.8-1.2,1.1-2.2,1.1c-0.9,0-1.6-0.4-2.1-1.1
		c-0.5-0.7-0.8-1.7-0.8-2.9c0-1.3,0.3-2.2,0.8-2.9c0.5-0.7,1.2-1,2.2-1c0.9,0,1.7,0.4,2.2,1.1h0.1l0.2-1h1.8V77.4z M93.9,75.9
		c0.6,0,1-0.2,1.2-0.5c0.2-0.3,0.4-0.8,0.4-1.6v-0.3c0-0.8-0.1-1.4-0.4-1.8c-0.3-0.4-0.7-0.5-1.2-0.5c-1,0-1.5,0.8-1.5,2.3
		c0,0.8,0.1,1.3,0.4,1.7C93,75.7,93.4,75.9,93.9,75.9z"/>
	<path id="XMLID_242_" class="st5" d="M101.6,73.2l0.9-1.2l2.1-2.3h2.4l-3,3.3l3.2,4.3h-2.4l-2.2-3.1l-0.9,0.7v2.4h-2.1V66.7h2.1
		v4.7L101.6,73.2L101.6,73.2z"/>
	<path id="XMLID_244_" class="st5" d="M113.7,77.4l-0.3-1h-0.1c-0.2,0.4-0.5,0.6-1,0.8c-0.4,0.2-0.9,0.3-1.4,0.3
		c-0.9,0-1.6-0.2-2-0.7c-0.5-0.5-0.7-1.2-0.7-2.1v-5h2.1v4.5c0,0.6,0.1,1,0.3,1.2c0.2,0.3,0.5,0.4,0.9,0.4c0.6,0,1-0.2,1.3-0.6
		s0.4-1,0.4-1.9v-3.6h2.1v7.6H113.7z"/>
	<path id="XMLID_246_" class="st5" d="M122.8,75.1c0,0.8-0.3,1.4-0.8,1.8s-1.4,0.6-2.4,0.6c-0.6,0-1,0-1.4-0.1
		c-0.4-0.1-0.8-0.2-1.1-0.3v-1.7c0.4,0.2,0.8,0.3,1.3,0.5s0.9,0.2,1.3,0.2c0.8,0,1.1-0.2,1.1-0.7c0-0.2-0.1-0.3-0.2-0.4
		c-0.1-0.1-0.3-0.2-0.5-0.3s-0.6-0.3-1-0.5c-0.6-0.2-1-0.5-1.3-0.7c-0.3-0.2-0.5-0.5-0.6-0.7c-0.1-0.3-0.2-0.6-0.2-1
		c0-0.7,0.3-1.2,0.8-1.6c0.5-0.4,1.3-0.6,2.2-0.6c0.9,0,1.8,0.2,2.7,0.6l-0.6,1.5c-0.4-0.2-0.7-0.3-1.1-0.4c-0.3-0.1-0.7-0.2-1-0.2
		c-0.6,0-0.9,0.2-0.9,0.5c0,0.2,0.1,0.3,0.3,0.5s0.6,0.3,1.3,0.6c0.6,0.2,1,0.5,1.3,0.7c0.3,0.2,0.5,0.5,0.6,0.7
		C122.8,74.4,122.8,74.7,122.8,75.1z"/>
	<path id="XMLID_248_" class="st5" d="M35.3,94.2h-2.1v-4.5c0-1.1-0.4-1.7-1.2-1.7c-0.6,0-1,0.2-1.3,0.6s-0.4,1-0.4,1.9v3.6h-2.1
		V83.5h2.1v2.2c0,0.2,0,0.6,0,1.2l0,0.6h0.1c0.5-0.7,1.2-1.1,2.2-1.1c0.9,0,1.6,0.2,2,0.7c0.5,0.5,0.7,1.2,0.7,2.1V94.2z"/>
	<path id="XMLID_250_" class="st5" d="M42.3,94.2l-0.4-1h-0.1c-0.4,0.4-0.7,0.7-1.1,0.9s-0.9,0.3-1.5,0.3c-0.7,0-1.3-0.2-1.7-0.6
		c-0.4-0.4-0.6-1-0.6-1.8c0-0.8,0.3-1.4,0.9-1.8c0.6-0.4,1.4-0.6,2.6-0.6l1.3,0v-0.3c0-0.8-0.4-1.2-1.2-1.2c-0.6,0-1.3,0.2-2.2,0.6
		l-0.7-1.4c0.9-0.5,1.9-0.7,2.9-0.7c1,0,1.8,0.2,2.4,0.7c0.5,0.4,0.8,1.1,0.8,2v5.1H42.3z M41.7,90.6l-0.8,0c-0.6,0-1.1,0.1-1.4,0.3
		c-0.3,0.2-0.4,0.5-0.4,0.9c0,0.6,0.3,0.9,1,0.9c0.5,0,0.9-0.1,1.2-0.4c0.3-0.3,0.4-0.6,0.4-1.1V90.6z"/>
	<path id="XMLID_253_" class="st5" d="M48.3,94.3c-0.9,0-1.6-0.3-2.1-1s-0.8-1.7-0.8-2.9c0-1.3,0.3-2.2,0.8-2.9c0.5-0.7,1.2-1,2.2-1
		c1,0,1.7,0.4,2.2,1.1h0.1c-0.1-0.6-0.2-1.1-0.2-1.5v-2.4h2.1v10.6H51l-0.4-1h-0.1C50,93.9,49.3,94.3,48.3,94.3z M49.1,92.6
		c0.5,0,0.9-0.2,1.2-0.5c0.2-0.3,0.4-0.8,0.4-1.6v-0.2c0-0.8-0.1-1.4-0.4-1.8s-0.7-0.5-1.2-0.5c-0.5,0-0.8,0.2-1.1,0.6
		c-0.3,0.4-0.4,1-0.4,1.7s0.1,1.3,0.4,1.7S48.6,92.6,49.1,92.6z"/>
	<path id="XMLID_256_" class="st5" d="M54.7,84.5c0-0.7,0.4-1,1.1-1c0.8,0,1.1,0.3,1.1,1c0,0.3-0.1,0.6-0.3,0.8
		c-0.2,0.2-0.5,0.3-0.9,0.3C55.1,85.6,54.7,85.2,54.7,84.5z M56.9,94.2h-2.1v-7.6h2.1V94.2z"/>
	<path id="XMLID_259_" class="st5" d="M63.9,94.2l-0.4-1h-0.1c-0.4,0.4-0.7,0.7-1.1,0.9s-0.9,0.3-1.5,0.3c-0.7,0-1.3-0.2-1.7-0.6
		c-0.4-0.4-0.6-1-0.6-1.8c0-0.8,0.3-1.4,0.9-1.8c0.6-0.4,1.4-0.6,2.6-0.6l1.3,0v-0.3c0-0.8-0.4-1.2-1.2-1.2c-0.6,0-1.3,0.2-2.2,0.6
		l-0.7-1.4c0.9-0.5,1.9-0.7,2.9-0.7c1,0,1.8,0.2,2.4,0.7c0.5,0.4,0.8,1.1,0.8,2v5.1H63.9z M63.3,90.6l-0.8,0c-0.6,0-1.1,0.1-1.4,0.3
		c-0.3,0.2-0.4,0.5-0.4,0.9c0,0.6,0.3,0.9,1,0.9c0.5,0,0.9-0.1,1.2-0.4c0.3-0.3,0.4-0.6,0.4-1.1V90.6z"/>
	<path id="XMLID_262_" class="st5" d="M74.6,94.2h-2.1v-4.5c0-1.1-0.4-1.7-1.2-1.7c-0.6,0-1,0.2-1.3,0.6s-0.4,1-0.4,1.9v3.6h-2.1
		V83.5h2.1v2.2c0,0.2,0,0.6,0,1.2l0,0.6h0.1c0.5-0.7,1.2-1.1,2.2-1.1c0.9,0,1.6,0.2,2,0.7c0.5,0.5,0.7,1.2,0.7,2.1V94.2z"/>
	<path id="XMLID_265_" class="st5" d="M82.8,94.3c-0.9,0-1.6-0.3-2.1-1s-0.8-1.7-0.8-2.9c0-1.3,0.3-2.2,0.8-2.9c0.5-0.7,1.2-1,2.2-1
		c1,0,1.7,0.4,2.2,1.1h0.1c-0.1-0.6-0.2-1.1-0.2-1.5v-2.4H87v10.6h-1.6l-0.4-1h-0.1C84.5,93.9,83.7,94.3,82.8,94.3z M83.5,92.6
		c0.5,0,0.9-0.2,1.2-0.5c0.2-0.3,0.4-0.8,0.4-1.6v-0.2c0-0.8-0.1-1.4-0.4-1.8s-0.7-0.5-1.2-0.5c-0.5,0-0.8,0.2-1.1,0.6
		c-0.3,0.4-0.4,1-0.4,1.7s0.1,1.3,0.4,1.7S83,92.6,83.5,92.6z"/>
	<path id="XMLID_269_" class="st5" d="M92.7,94.3c-1.2,0-2.2-0.3-2.9-1c-0.7-0.7-1-1.6-1-2.9c0-1.3,0.3-2.3,1-3c0.6-0.7,1.5-1,2.7-1
		c1.1,0,1.9,0.3,2.5,0.9s0.9,1.5,0.9,2.5v1h-4.9c0,0.6,0.2,1.1,0.5,1.4c0.3,0.3,0.8,0.5,1.4,0.5c0.5,0,0.9,0,1.3-0.1
		s0.8-0.2,1.3-0.5v1.6c-0.4,0.2-0.8,0.3-1.2,0.4C93.8,94.3,93.3,94.3,92.7,94.3z M92.4,87.9c-0.4,0-0.8,0.1-1,0.4
		c-0.3,0.3-0.4,0.7-0.4,1.2h2.9c0-0.5-0.1-0.9-0.4-1.2S92.8,87.9,92.4,87.9z"/>
	<path id="XMLID_272_" class="st5" d="M104.5,94.2h-2.1v-4.5c0-0.6-0.1-1-0.3-1.2c-0.2-0.3-0.5-0.4-0.9-0.4c-0.6,0-1,0.2-1.3,0.6
		s-0.4,1-0.4,1.9v3.6h-2.1v-7.6h1.6l0.3,1h0.1c0.2-0.4,0.6-0.6,1-0.8c0.4-0.2,0.9-0.3,1.4-0.3c0.9,0,1.6,0.2,2,0.7
		c0.5,0.5,0.7,1.2,0.7,2.1V94.2z"/>
	<path id="XMLID_274_" class="st5" d="M113.4,94.2c0,1.1-0.3,1.9-1,2.5s-1.6,0.9-2.9,0.9c-1.1,0-2.1-0.2-2.9-0.5v-1.7
		c0.9,0.4,1.9,0.6,3,0.6c1.1,0,1.6-0.6,1.6-1.7v-0.2l0.1-0.9h-0.1c-0.5,0.8-1.2,1.1-2.2,1.1c-0.9,0-1.6-0.4-2.1-1.1
		c-0.5-0.7-0.8-1.7-0.8-2.9c0-1.3,0.3-2.2,0.8-2.9c0.5-0.7,1.2-1,2.2-1c0.9,0,1.7,0.4,2.2,1.1h0.1l0.2-1h1.8V94.2z M109.8,92.7
		c0.6,0,1-0.2,1.2-0.5c0.2-0.3,0.4-0.8,0.4-1.6v-0.3c0-0.8-0.1-1.4-0.4-1.8c-0.3-0.4-0.7-0.5-1.2-0.5c-1,0-1.5,0.8-1.5,2.3
		c0,0.8,0.1,1.3,0.4,1.7C109,92.5,109.3,92.7,109.8,92.7z"/>
	<path id="XMLID_277_" class="st5" d="M120.4,94.2l-0.4-1h-0.1c-0.4,0.4-0.7,0.7-1.1,0.9s-0.9,0.3-1.5,0.3c-0.7,0-1.3-0.2-1.7-0.6
		c-0.4-0.4-0.6-1-0.6-1.8c0-0.8,0.3-1.4,0.9-1.8c0.6-0.4,1.4-0.6,2.6-0.6l1.3,0v-0.3c0-0.8-0.4-1.2-1.2-1.2c-0.6,0-1.3,0.2-2.2,0.6
		l-0.7-1.4c0.9-0.5,1.9-0.7,2.9-0.7c1,0,1.8,0.2,2.4,0.7c0.5,0.4,0.8,1.1,0.8,2v5.1H120.4z M119.8,90.6l-0.8,0
		c-0.6,0-1.1,0.1-1.4,0.3c-0.3,0.2-0.4,0.5-0.4,0.9c0,0.6,0.3,0.9,1,0.9c0.5,0,0.9-0.1,1.2-0.4c0.3-0.3,0.4-0.6,0.4-1.1V90.6z"/>
	<path id="XMLID_280_" class="st5" d="M131.1,94.2H129v-4.5c0-0.6-0.1-1-0.3-1.2c-0.2-0.3-0.5-0.4-0.9-0.4c-0.6,0-1,0.2-1.3,0.6
		s-0.4,1-0.4,1.9v3.6H124v-7.6h1.6l0.3,1h0.1c0.2-0.4,0.6-0.6,1-0.8c0.4-0.2,0.9-0.3,1.4-0.3c0.9,0,1.6,0.2,2,0.7
		c0.5,0.5,0.7,1.2,0.7,2.1V94.2z"/>
	<path id="XMLID_282_" class="st5" d="M32.5,111.1c-0.9,0-1.6-0.3-2.1-1h-0.1c0.1,0.6,0.1,1,0.1,1.1v3.1h-2.1v-11H30l0.3,1h0.1
		c0.5-0.8,1.2-1.1,2.2-1.1c0.9,0,1.6,0.3,2.1,1c0.5,0.7,0.8,1.7,0.8,2.9c0,0.8-0.1,1.5-0.4,2.1s-0.6,1.1-1,1.4
		C33.6,110.9,33.1,111.1,32.5,111.1z M31.8,104.8c-0.5,0-0.9,0.2-1.1,0.5c-0.2,0.3-0.4,0.8-0.4,1.6v0.2c0,0.8,0.1,1.4,0.4,1.8
		s0.6,0.5,1.2,0.5c0.9,0,1.4-0.8,1.4-2.3c0-0.8-0.1-1.3-0.3-1.7S32.3,104.8,31.8,104.8z"/>
	<path id="XMLID_285_" class="st5" d="M40.6,111.1c-1.2,0-2.2-0.3-2.9-1c-0.7-0.7-1-1.6-1-2.9c0-1.3,0.3-2.3,1-3
		c0.6-0.7,1.5-1,2.7-1c1.1,0,1.9,0.3,2.5,0.9s0.9,1.5,0.9,2.5v1h-4.9c0,0.6,0.2,1.1,0.5,1.4c0.3,0.3,0.8,0.5,1.4,0.5
		c0.5,0,0.9,0,1.3-0.1s0.8-0.2,1.3-0.5v1.6c-0.4,0.2-0.8,0.3-1.2,0.4C41.7,111.1,41.2,111.1,40.6,111.1z M40.3,104.7
		c-0.4,0-0.8,0.1-1,0.4c-0.3,0.3-0.4,0.7-0.4,1.2h2.9c0-0.5-0.1-0.9-0.4-1.2S40.7,104.7,40.3,104.7z"/>
	<path id="XMLID_288_" class="st5" d="M52.2,111h-2.1v-4.5c0-0.6-0.1-1-0.3-1.2c-0.2-0.3-0.5-0.4-0.9-0.4c-0.5,0-0.9,0.2-1.2,0.6
		c-0.2,0.4-0.4,1-0.4,1.9v3.6h-2.1v-7.6H47l0.3,1h0.1c0.2-0.4,0.5-0.6,0.9-0.8c0.4-0.2,0.8-0.3,1.3-0.3c1.1,0,1.9,0.4,2.3,1.1h0.2
		c0.2-0.4,0.5-0.6,0.9-0.8c0.4-0.2,0.8-0.3,1.4-0.3c0.9,0,1.5,0.2,2,0.7S57,105,57,106v5h-2.1v-4.5c0-0.6-0.1-1-0.3-1.2
		c-0.2-0.3-0.5-0.4-0.9-0.4c-0.5,0-0.9,0.2-1.1,0.5c-0.3,0.4-0.4,0.9-0.4,1.7V111z"/>
	<path id="XMLID_290_" class="st5" d="M63.4,103.2c0.9,0,1.6,0.4,2.1,1.1c0.5,0.7,0.8,1.7,0.8,2.9c0,1.3-0.3,2.2-0.8,2.9
		c-0.5,0.7-1.2,1-2.1,1c-0.9,0-1.6-0.3-2.1-1h-0.1l-0.3,0.8h-1.6v-10.6h2.1v2.5c0,0.3,0,0.8-0.1,1.5h0.1
		C61.7,103.6,62.4,103.2,63.4,103.2z M62.7,104.8c-0.5,0-0.9,0.2-1.1,0.5c-0.2,0.3-0.4,0.8-0.4,1.6v0.2c0,0.8,0.1,1.4,0.4,1.8
		s0.6,0.5,1.2,0.5c0.4,0,0.8-0.2,1-0.6c0.3-0.4,0.4-1,0.4-1.7s-0.1-1.3-0.4-1.7C63.5,105,63.2,104.8,62.7,104.8z"/>
	<path id="XMLID_293_" class="st5" d="M73.4,111l-0.3-1H73c-0.2,0.4-0.5,0.6-1,0.8c-0.4,0.2-0.9,0.3-1.4,0.3c-0.9,0-1.6-0.2-2-0.7
		c-0.5-0.5-0.7-1.2-0.7-2.1v-5H70v4.5c0,0.6,0.1,1,0.3,1.2c0.2,0.3,0.5,0.4,0.9,0.4c0.6,0,1-0.2,1.3-0.6s0.4-1,0.4-1.9v-3.6H75v7.6
		H73.4z"/>
	<path id="XMLID_295_" class="st5" d="M84.3,111h-2.1v-4.5c0-0.6-0.1-1-0.3-1.2c-0.2-0.3-0.5-0.4-0.9-0.4c-0.6,0-1,0.2-1.3,0.6
		s-0.4,1-0.4,1.9v3.6h-2.1v-7.6h1.6l0.3,1h0.1c0.2-0.4,0.6-0.6,1-0.8c0.4-0.2,0.9-0.3,1.4-0.3c0.9,0,1.6,0.2,2,0.7
		c0.5,0.5,0.7,1.2,0.7,2.1V111z"/>
	<path id="XMLID_297_" class="st5" d="M93.1,111c0,1.1-0.3,1.9-1,2.5s-1.6,0.9-2.9,0.9c-1.1,0-2.1-0.2-2.9-0.5v-1.7
		c0.9,0.4,1.9,0.6,3,0.6c1.1,0,1.6-0.6,1.6-1.7v-0.2l0.1-0.9H91c-0.5,0.8-1.2,1.1-2.2,1.1c-0.9,0-1.6-0.4-2.1-1.1
		c-0.5-0.7-0.8-1.7-0.8-2.9c0-1.3,0.3-2.2,0.8-2.9c0.5-0.7,1.2-1,2.2-1c0.9,0,1.7,0.4,2.2,1.1h0.1l0.2-1h1.8V111z M89.6,109.5
		c0.6,0,1-0.2,1.2-0.5c0.2-0.3,0.4-0.8,0.4-1.6v-0.3c0-0.8-0.1-1.4-0.4-1.8c-0.3-0.4-0.7-0.5-1.2-0.5c-1,0-1.5,0.8-1.5,2.3
		c0,0.8,0.1,1.3,0.4,1.7C88.7,109.3,89.1,109.5,89.6,109.5z"/>
	<path id="XMLID_300_" class="st5" d="M97.3,106.8l0.9-1.2l2.1-2.3h2.4l-3,3.3l3.2,4.3h-2.4l-2.2-3.1l-0.9,0.7v2.4h-2.1v-10.6h2.1
		v4.7L97.3,106.8L97.3,106.8z"/>
	<path id="XMLID_302_" class="st5" d="M109.4,111l-0.3-1H109c-0.2,0.4-0.5,0.6-1,0.8c-0.4,0.2-0.9,0.3-1.4,0.3c-0.9,0-1.6-0.2-2-0.7
		c-0.5-0.5-0.7-1.2-0.7-2.1v-5h2.1v4.5c0,0.6,0.1,1,0.3,1.2c0.2,0.3,0.5,0.4,0.9,0.4c0.6,0,1-0.2,1.3-0.6s0.4-1,0.4-1.9v-3.6h2.1
		v7.6H109.4z"/>
	<path id="XMLID_304_" class="st5" d="M118.5,108.7c0,0.8-0.3,1.4-0.8,1.8s-1.4,0.6-2.4,0.6c-0.6,0-1,0-1.4-0.1
		c-0.4-0.1-0.8-0.2-1.1-0.3v-1.7c0.4,0.2,0.8,0.3,1.3,0.5s0.9,0.2,1.3,0.2c0.8,0,1.1-0.2,1.1-0.7c0-0.2-0.1-0.3-0.2-0.4
		c-0.1-0.1-0.3-0.2-0.5-0.3s-0.6-0.3-1-0.5c-0.6-0.2-1-0.5-1.3-0.7c-0.3-0.2-0.5-0.5-0.6-0.7c-0.1-0.3-0.2-0.6-0.2-1
		c0-0.7,0.3-1.2,0.8-1.6c0.5-0.4,1.3-0.6,2.2-0.6c0.9,0,1.8,0.2,2.7,0.6l-0.6,1.5c-0.4-0.2-0.7-0.3-1.1-0.4c-0.3-0.1-0.7-0.2-1-0.2
		c-0.6,0-0.9,0.2-0.9,0.5c0,0.2,0.1,0.3,0.3,0.5s0.6,0.3,1.3,0.6c0.6,0.2,1,0.5,1.3,0.7c0.3,0.2,0.5,0.5,0.6,0.7
		C118.4,108,118.5,108.3,118.5,108.7z"/>
	<path id="XMLID_306_" class="st5" d="M32.5,120c0.9,0,1.6,0.4,2.1,1.1c0.5,0.7,0.8,1.7,0.8,2.9c0,1.3-0.3,2.2-0.8,2.9
		c-0.5,0.7-1.2,1-2.1,1c-0.9,0-1.6-0.3-2.1-1h-0.1l-0.3,0.8h-1.6v-10.6h2.1v2.5c0,0.3,0,0.8-0.1,1.5h0.1
		C30.8,120.4,31.6,120,32.5,120z M31.8,121.6c-0.5,0-0.9,0.2-1.1,0.5c-0.2,0.3-0.4,0.8-0.4,1.6v0.2c0,0.8,0.1,1.4,0.4,1.8
		s0.6,0.5,1.2,0.5c0.4,0,0.8-0.2,1-0.6c0.3-0.4,0.4-1,0.4-1.7s-0.1-1.3-0.4-1.7C32.6,121.8,32.3,121.6,31.8,121.6z"/>
	<path id="XMLID_309_" class="st5" d="M40.6,127.9c-1.2,0-2.2-0.3-2.9-1c-0.7-0.7-1-1.6-1-2.9c0-1.3,0.3-2.3,1-3
		c0.6-0.7,1.5-1,2.7-1c1.1,0,1.9,0.3,2.5,0.9s0.9,1.5,0.9,2.5v1h-4.9c0,0.6,0.2,1.1,0.5,1.4c0.3,0.3,0.8,0.5,1.4,0.5
		c0.5,0,0.9,0,1.3-0.1s0.8-0.2,1.3-0.5v1.6c-0.4,0.2-0.8,0.3-1.2,0.4C41.7,127.9,41.2,127.9,40.6,127.9z M40.3,121.5
		c-0.4,0-0.8,0.1-1,0.4c-0.3,0.3-0.4,0.7-0.4,1.2h2.9c0-0.5-0.1-0.9-0.4-1.2S40.7,121.5,40.3,121.5z"/>
	<path id="XMLID_312_" class="st5" d="M49.7,120c0.3,0,0.5,0,0.7,0.1l-0.2,2c-0.2,0-0.4-0.1-0.6-0.1c-0.7,0-1.2,0.2-1.6,0.5
		s-0.6,0.8-0.6,1.4v3.9h-2.1v-7.6H47l0.3,1.3h0.1c0.2-0.4,0.6-0.8,1-1C48.8,120.1,49.2,120,49.7,120z"/>
	<path id="XMLID_314_" class="st5" d="M58,127.8l-0.6-2.7l-0.8-3.4h-0.1l-1.4,6H53l-2.2-7.6h2.1l0.9,3.4c0.1,0.4,0.2,1.2,0.4,2.5
		h0.1c0-0.3,0.1-0.9,0.2-1.6l0.1-0.6l0.9-3.7h2.3l0.9,3.7c0.1,0.3,0.1,0.6,0.2,1.1s0.1,0.9,0.1,1.1h0.1c0-0.4,0.1-0.9,0.2-1.4
		c0.1-0.5,0.2-0.9,0.2-1.1l0.9-3.4h2l-2.2,7.6H58z"/>
	<path id="XMLID_316_" class="st5" d="M68.6,127.8l-0.4-1h-0.1c-0.4,0.4-0.7,0.7-1.1,0.9s-0.9,0.3-1.5,0.3c-0.7,0-1.3-0.2-1.7-0.6
		c-0.4-0.4-0.6-1-0.6-1.8c0-0.8,0.3-1.4,0.9-1.8c0.6-0.4,1.4-0.6,2.6-0.6l1.3,0v-0.3c0-0.8-0.4-1.2-1.2-1.2c-0.6,0-1.3,0.2-2.2,0.6
		l-0.7-1.4c0.9-0.5,1.9-0.7,2.9-0.7c1,0,1.8,0.2,2.4,0.7c0.5,0.4,0.8,1.1,0.8,2v5.1H68.6z M68,124.2l-0.8,0c-0.6,0-1.1,0.1-1.4,0.3
		c-0.3,0.2-0.4,0.5-0.4,0.9c0,0.6,0.3,0.9,1,0.9c0.5,0,0.9-0.1,1.2-0.4c0.3-0.3,0.4-0.6,0.4-1.1V124.2z"/>
	<path id="XMLID_319_" class="st5" d="M76.5,120c0.3,0,0.5,0,0.7,0.1l-0.2,2c-0.2,0-0.4-0.1-0.6-0.1c-0.7,0-1.2,0.2-1.6,0.5
		s-0.6,0.8-0.6,1.4v3.9h-2.1v-7.6h1.6l0.3,1.3h0.1c0.2-0.4,0.6-0.8,1-1C75.5,120.1,76,120,76.5,120z"/>
	<path id="XMLID_321_" class="st5" d="M85.6,127.8h-2.1v-4.5c0-0.6-0.1-1-0.3-1.2c-0.2-0.3-0.5-0.4-0.9-0.4c-0.6,0-1,0.2-1.3,0.6
		s-0.4,1-0.4,1.9v3.6h-2.1v-7.6h1.6l0.3,1h0.1c0.2-0.4,0.6-0.6,1-0.8c0.4-0.2,0.9-0.3,1.4-0.3c0.9,0,1.6,0.2,2,0.7
		c0.5,0.5,0.7,1.2,0.7,2.1V127.8z"/>
	<path id="XMLID_323_" class="st5" d="M92.6,127.8l-0.4-1h-0.1c-0.4,0.4-0.7,0.7-1.1,0.9s-0.9,0.3-1.5,0.3c-0.7,0-1.3-0.2-1.7-0.6
		c-0.4-0.4-0.6-1-0.6-1.8c0-0.8,0.3-1.4,0.9-1.8c0.6-0.4,1.4-0.6,2.6-0.6l1.3,0v-0.3c0-0.8-0.4-1.2-1.2-1.2c-0.6,0-1.3,0.2-2.2,0.6
		l-0.7-1.4c0.9-0.5,1.9-0.7,2.9-0.7c1,0,1.8,0.2,2.4,0.7c0.5,0.4,0.8,1.1,0.8,2v5.1H92.6z M92,124.2l-0.8,0c-0.6,0-1.1,0.1-1.4,0.3
		c-0.3,0.2-0.4,0.5-0.4,0.9c0,0.6,0.3,0.9,1,0.9c0.5,0,0.9-0.1,1.2-0.4c0.3-0.3,0.4-0.6,0.4-1.1V124.2z"/>
	<path id="XMLID_326_" class="st5" d="M106.7,127.8h-2.1v-4.5c0-0.6-0.1-1-0.3-1.2c-0.2-0.3-0.5-0.4-0.9-0.4c-0.5,0-0.9,0.2-1.2,0.6
		c-0.2,0.4-0.4,1-0.4,1.9v3.6h-2.1v-7.6h1.6l0.3,1h0.1c0.2-0.4,0.5-0.6,0.9-0.8c0.4-0.2,0.8-0.3,1.3-0.3c1.1,0,1.9,0.4,2.3,1.1h0.2
		c0.2-0.4,0.5-0.6,0.9-0.8c0.4-0.2,0.8-0.3,1.4-0.3c0.9,0,1.5,0.2,2,0.7s0.7,1.2,0.7,2.1v5h-2.1v-4.5c0-0.6-0.1-1-0.3-1.2
		c-0.2-0.3-0.5-0.4-0.9-0.4c-0.5,0-0.9,0.2-1.1,0.5c-0.3,0.4-0.4,0.9-0.4,1.7V127.8z"/>
	<path id="XMLID_328_" class="st5" d="M117.1,127.9c-1.2,0-2.2-0.3-2.9-1c-0.7-0.7-1-1.6-1-2.9c0-1.3,0.3-2.3,1-3
		c0.6-0.7,1.5-1,2.7-1c1.1,0,1.9,0.3,2.5,0.9s0.9,1.5,0.9,2.5v1h-4.9c0,0.6,0.2,1.1,0.5,1.4c0.3,0.3,0.8,0.5,1.4,0.5
		c0.5,0,0.9,0,1.3-0.1s0.8-0.2,1.3-0.5v1.6c-0.4,0.2-0.8,0.3-1.2,0.4C118.2,127.9,117.6,127.9,117.1,127.9z M116.8,121.5
		c-0.4,0-0.8,0.1-1,0.4c-0.3,0.3-0.4,0.7-0.4,1.2h2.9c0-0.5-0.1-0.9-0.4-1.2S117.2,121.5,116.8,121.5z"/>
	<path id="XMLID_331_" class="st5" d="M126.1,120c0.3,0,0.5,0,0.7,0.1l-0.2,2c-0.2,0-0.4-0.1-0.6-0.1c-0.7,0-1.2,0.2-1.6,0.5
		s-0.6,0.8-0.6,1.4v3.9h-2.1v-7.6h1.6l0.3,1.3h0.1c0.2-0.4,0.6-0.8,1-1C125.2,120.1,125.7,120,126.1,120z"/>
	<path id="XMLID_333_" class="st5" d="M132.9,127.8l-0.4-1h-0.1c-0.4,0.4-0.7,0.7-1.1,0.9s-0.9,0.3-1.5,0.3c-0.7,0-1.3-0.2-1.7-0.6
		c-0.4-0.4-0.6-1-0.6-1.8c0-0.8,0.3-1.4,0.9-1.8c0.6-0.4,1.4-0.6,2.6-0.6l1.3,0v-0.3c0-0.8-0.4-1.2-1.2-1.2c-0.6,0-1.3,0.2-2.2,0.6
		l-0.7-1.4c0.9-0.5,1.9-0.7,2.9-0.7c1,0,1.8,0.2,2.4,0.7c0.5,0.4,0.8,1.1,0.8,2v5.1H132.9z M132.3,124.2l-0.8,0
		c-0.6,0-1.1,0.1-1.4,0.3c-0.3,0.2-0.4,0.5-0.4,0.9c0,0.6,0.3,0.9,1,0.9c0.5,0,0.9-0.1,1.2-0.4c0.3-0.3,0.4-0.6,0.4-1.1V124.2z"/>
	<path id="XMLID_336_" class="st5" d="M143.6,127.8h-2.1v-4.5c0-1.1-0.4-1.7-1.2-1.7c-0.6,0-1,0.2-1.3,0.6s-0.4,1-0.4,1.9v3.6h-2.1
		v-10.6h2.1v2.2c0,0.2,0,0.6,0,1.2l0,0.6h0.1c0.5-0.7,1.2-1.1,2.2-1.1c0.9,0,1.6,0.2,2,0.7c0.5,0.5,0.7,1.2,0.7,2.1V127.8z"/>
	<path id="XMLID_338_" class="st5" d="M30.7,144.7c-0.9,0-1.6-0.3-2.1-1s-0.8-1.7-0.8-2.9c0-1.3,0.3-2.2,0.8-2.9
		c0.5-0.7,1.2-1,2.2-1c1,0,1.7,0.4,2.2,1.1H33c-0.1-0.6-0.2-1.1-0.2-1.5v-2.4h2.1v10.6h-1.6l-0.4-1h-0.1
		C32.4,144.3,31.7,144.7,30.7,144.7z M31.4,143c0.5,0,0.9-0.2,1.2-0.5c0.2-0.3,0.4-0.8,0.4-1.6v-0.2c0-0.8-0.1-1.4-0.4-1.8
		s-0.7-0.5-1.2-0.5c-0.5,0-0.8,0.2-1.1,0.6c-0.3,0.4-0.4,1-0.4,1.7s0.1,1.3,0.4,1.7S30.9,143,31.4,143z"/>
	<path id="XMLID_341_" class="st5" d="M42,144.6l-0.4-1h-0.1c-0.4,0.4-0.7,0.7-1.1,0.9s-0.9,0.3-1.5,0.3c-0.7,0-1.3-0.2-1.7-0.6
		c-0.4-0.4-0.6-1-0.6-1.8c0-0.8,0.3-1.4,0.9-1.8c0.6-0.4,1.4-0.6,2.6-0.6l1.3,0v-0.3c0-0.8-0.4-1.2-1.2-1.2c-0.6,0-1.3,0.2-2.2,0.6
		l-0.7-1.4c0.9-0.5,1.9-0.7,2.9-0.7c1,0,1.8,0.2,2.4,0.7c0.5,0.4,0.8,1.1,0.8,2v5.1H42z M41.4,141l-0.8,0c-0.6,0-1.1,0.1-1.4,0.3
		c-0.3,0.2-0.4,0.5-0.4,0.9c0,0.6,0.3,0.9,1,0.9c0.5,0,0.9-0.1,1.2-0.4c0.3-0.3,0.4-0.6,0.4-1.1V141z"/>
	<path id="XMLID_344_" class="st5" d="M52.6,144.6h-2.1v-4.5c0-0.6-0.1-1-0.3-1.2c-0.2-0.3-0.5-0.4-0.9-0.4c-0.6,0-1,0.2-1.3,0.6
		s-0.4,1-0.4,1.9v3.6h-2.1v-7.6h1.6l0.3,1h0.1c0.2-0.4,0.6-0.6,1-0.8c0.4-0.2,0.9-0.3,1.4-0.3c0.9,0,1.6,0.2,2,0.7
		c0.5,0.5,0.7,1.2,0.7,2.1V144.6z"/>
	<path id="XMLID_346_" class="st5" d="M65.5,144.6h-2.1v-4.5c0-1.1-0.4-1.7-1.2-1.7c-0.6,0-1,0.2-1.3,0.6s-0.4,1-0.4,1.9v3.6h-2.1
		v-10.6h2.1v2.2c0,0.2,0,0.6,0,1.2l0,0.6h0.1c0.5-0.7,1.2-1.1,2.2-1.1c0.9,0,1.6,0.2,2,0.7c0.5,0.5,0.7,1.2,0.7,2.1V144.6z"/>
	<path id="XMLID_348_" class="st5" d="M67.5,134.9c0-0.7,0.4-1,1.1-1c0.8,0,1.1,0.3,1.1,1c0,0.3-0.1,0.6-0.3,0.8
		c-0.2,0.2-0.5,0.3-0.9,0.3C67.9,136,67.5,135.6,67.5,134.9z M69.7,144.6h-2.1v-7.6h2.1V144.6z"/>
	<path id="XMLID_351_" class="st5" d="M71.3,147.9c-0.5,0-1-0.1-1.4-0.2v-1.6c0.3,0.1,0.6,0.1,1,0.1c0.4,0,0.6-0.1,0.8-0.3
		c0.2-0.2,0.2-0.5,0.2-0.9v-8.2H74v8.5c0,0.8-0.2,1.4-0.7,1.9C72.8,147.7,72.1,147.9,71.3,147.9z M71.8,134.9c0-0.7,0.4-1,1.1-1
		c0.8,0,1.1,0.3,1.1,1c0,0.3-0.1,0.6-0.3,0.8c-0.2,0.2-0.5,0.3-0.9,0.3C72.2,136,71.8,135.6,71.8,134.9z"/>
	<path id="XMLID_354_" class="st5" d="M81,144.6l-0.4-1h-0.1c-0.4,0.4-0.7,0.7-1.1,0.9s-0.9,0.3-1.5,0.3c-0.7,0-1.3-0.2-1.7-0.6
		c-0.4-0.4-0.6-1-0.6-1.8c0-0.8,0.3-1.4,0.9-1.8c0.6-0.4,1.4-0.6,2.6-0.6l1.3,0v-0.3c0-0.8-0.4-1.2-1.2-1.2c-0.6,0-1.3,0.2-2.2,0.6
		l-0.7-1.4c0.9-0.5,1.9-0.7,2.9-0.7c1,0,1.8,0.2,2.4,0.7c0.5,0.4,0.8,1.1,0.8,2v5.1H81z M80.4,141l-0.8,0c-0.6,0-1.1,0.1-1.4,0.3
		c-0.3,0.2-0.4,0.5-0.4,0.9c0,0.6,0.3,0.9,1,0.9c0.5,0,0.9-0.1,1.2-0.4c0.3-0.3,0.4-0.6,0.4-1.1V141z"/>
	<path id="XMLID_357_" class="st5" d="M90,144.6l-0.3-1h-0.1c-0.2,0.4-0.5,0.6-1,0.8c-0.4,0.2-0.9,0.3-1.4,0.3c-0.9,0-1.6-0.2-2-0.7
		c-0.5-0.5-0.7-1.2-0.7-2.1v-5h2.1v4.5c0,0.6,0.1,1,0.3,1.2c0.2,0.3,0.5,0.4,0.9,0.4c0.6,0,1-0.2,1.3-0.6s0.4-1,0.4-1.9v-3.6h2.1
		v7.6H90z"/>
	<path id="XMLID_359_" class="st5" d="M32.9,161.4l-3.3-8.8h-0.1c0.1,0.7,0.1,1.6,0.1,2.7v6.1h-1.2v-10h1.9l3.1,8.2h0.1l3.1-8.2h1.8
		v10h-1.2v-6.1c0-0.7,0-1.6,0.1-2.6h-0.1l-3.3,8.8H32.9z"/>
	<path id="XMLID_361_" class="st5" d="M44.3,161.5c-1.1,0-2-0.3-2.6-1c-0.6-0.7-1-1.6-1-2.8c0-1.2,0.3-2.2,0.9-2.9
		c0.6-0.7,1.4-1.1,2.4-1.1c0.9,0,1.7,0.3,2.3,0.9s0.8,1.4,0.8,2.5v0.7h-5.1c0,0.9,0.2,1.5,0.6,1.9c0.4,0.4,1,0.7,1.7,0.7
		c0.4,0,0.8,0,1.1-0.1c0.4-0.1,0.8-0.2,1.3-0.4v1.1c-0.4,0.2-0.8,0.3-1.2,0.4C45.2,161.5,44.8,161.5,44.3,161.5z M43.9,154.7
		c-0.6,0-1.1,0.2-1.4,0.6c-0.3,0.4-0.5,0.9-0.6,1.6h3.8c0-0.7-0.2-1.2-0.5-1.6C45,154.9,44.5,154.7,43.9,154.7z"/>
	<path id="XMLID_377_" class="st5" d="M54.1,161.4v-4.8c0-0.6-0.1-1.1-0.4-1.4c-0.3-0.3-0.7-0.4-1.3-0.4c-0.8,0-1.3,0.2-1.7,0.6
		c-0.3,0.4-0.5,1.1-0.5,2.1v3.9H49v-7.5h1l0.2,1h0.1c0.2-0.4,0.6-0.7,1-0.9c0.4-0.2,0.9-0.3,1.4-0.3c0.9,0,1.6,0.2,2.1,0.7
		c0.4,0.4,0.7,1.1,0.7,2.1v4.9H54.1z"/>
	<path id="XMLID_379_" class="st5" d="M62.6,161.3l0-0.9h-0.1c-0.5,0.8-1.3,1.1-2.3,1.1c-1,0-1.7-0.3-2.3-1s-0.8-1.6-0.8-2.9
		c0-1.2,0.3-2.2,0.8-2.9s1.3-1,2.3-1c1,0,1.8,0.4,2.4,1.1h0.1l0.2-1h1v7.6c0,1.1-0.3,1.9-0.8,2.4c-0.5,0.5-1.4,0.8-2.5,0.8
		c-1.1,0-2-0.2-2.7-0.5v-1.1c0.7,0.4,1.7,0.6,2.8,0.6c0.6,0,1.1-0.2,1.5-0.6c0.4-0.4,0.6-0.9,0.6-1.6V161.3z M60.5,160.5
		c0.8,0,1.3-0.2,1.7-0.6c0.3-0.4,0.5-1.1,0.5-2v-0.3c0-1-0.2-1.7-0.5-2.2c-0.3-0.5-0.9-0.7-1.7-0.7c-0.6,0-1.1,0.2-1.5,0.7
		s-0.5,1.2-0.5,2.1c0,0.9,0.2,1.6,0.5,2.1C59.3,160.3,59.8,160.5,60.5,160.5z"/>
	<path id="XMLID_382_" class="st5" d="M71.3,161.4v-4.8c0-0.6-0.1-1.1-0.4-1.4c-0.3-0.3-0.7-0.4-1.3-0.4c-0.8,0-1.3,0.2-1.7,0.6
		s-0.5,1.1-0.5,2.1v3.9h-1.2v-10.6h1.2v3.1c0,0.4,0,0.8-0.1,1.1h0.1c0.2-0.4,0.5-0.6,1-0.9s0.9-0.3,1.4-0.3c0.9,0,1.6,0.2,2.1,0.7
		c0.5,0.4,0.7,1.1,0.7,2.1v4.9H71.3z"/>
	<path id="XMLID_384_" class="st5" d="M79.5,161.4l-0.2-1.1h-0.1c-0.4,0.5-0.7,0.8-1.1,1c-0.4,0.2-0.8,0.3-1.4,0.3
		c-0.7,0-1.3-0.2-1.7-0.6c-0.4-0.4-0.6-0.9-0.6-1.6c0-1.5,1.2-2.3,3.6-2.4l1.3,0v-0.4c0-0.6-0.1-1-0.4-1.3c-0.2-0.3-0.6-0.4-1.2-0.4
		c-0.4,0-0.8,0.1-1.1,0.2c-0.4,0.1-0.7,0.3-1,0.4l-0.4-0.9c0.4-0.2,0.8-0.4,1.2-0.5c0.4-0.1,0.9-0.2,1.3-0.2c0.9,0,1.6,0.2,2,0.6
		c0.4,0.4,0.7,1,0.7,1.9v5.1H79.5z M77,160.5c0.7,0,1.2-0.2,1.6-0.6c0.4-0.4,0.6-0.9,0.6-1.6v-0.7l-1.1,0c-0.9,0-1.5,0.2-1.9,0.4
		c-0.4,0.2-0.6,0.6-0.6,1.1c0,0.4,0.1,0.7,0.4,0.9C76.2,160.4,76.5,160.5,77,160.5z"/>
	<path id="XMLID_387_" class="st5" d="M86.2,153.7c0.3,0,0.6,0,0.9,0.1l-0.2,1.1c-0.3-0.1-0.5-0.1-0.8-0.1c-0.4,0-0.8,0.1-1.1,0.3
		s-0.6,0.5-0.8,0.9c-0.2,0.4-0.3,0.8-0.3,1.3v4h-1.2v-7.5h1l0.1,1.4h0.1c0.3-0.5,0.6-0.9,1-1.1C85.3,153.8,85.8,153.7,86.2,153.7z"
		/>
	<path id="XMLID_389_" class="st5" d="M93,161.4l-0.2-1.1h-0.1c-0.4,0.5-0.7,0.8-1.1,1c-0.4,0.2-0.8,0.3-1.4,0.3
		c-0.7,0-1.3-0.2-1.7-0.6c-0.4-0.4-0.6-0.9-0.6-1.6c0-1.5,1.2-2.3,3.6-2.4l1.3,0v-0.4c0-0.6-0.1-1-0.4-1.3c-0.2-0.3-0.6-0.4-1.2-0.4
		c-0.4,0-0.8,0.1-1.1,0.2c-0.4,0.1-0.7,0.3-1,0.4l-0.4-0.9c0.4-0.2,0.8-0.4,1.2-0.5c0.4-0.1,0.9-0.2,1.3-0.2c0.9,0,1.6,0.2,2,0.6
		c0.4,0.4,0.7,1,0.7,1.9v5.1H93z M90.5,160.5c0.7,0,1.2-0.2,1.6-0.6c0.4-0.4,0.6-0.9,0.6-1.6v-0.7l-1.1,0c-0.9,0-1.5,0.2-1.9,0.4
		c-0.4,0.2-0.6,0.6-0.6,1.1c0,0.4,0.1,0.7,0.4,0.9C89.7,160.4,90,160.5,90.5,160.5z"/>
	<path id="XMLID_392_" class="st5" d="M99.8,161.5c-1,0-1.8-0.4-2.3-1.1h-0.1l0,0.3c0,0.4,0.1,0.7,0.1,1v3.1h-1.2v-10.9h1l0.2,1h0.1
		c0.3-0.4,0.6-0.7,1-0.9c0.4-0.2,0.8-0.3,1.3-0.3c1,0,1.7,0.3,2.3,1s0.8,1.6,0.8,2.9c0,1.2-0.3,2.2-0.8,2.9
		C101.5,161.2,100.8,161.5,99.8,161.5z M99.6,154.8c-0.7,0-1.3,0.2-1.6,0.6c-0.3,0.4-0.5,1.1-0.5,2v0.2c0,1,0.2,1.8,0.5,2.2
		c0.3,0.5,0.9,0.7,1.6,0.7c0.6,0,1.1-0.3,1.5-0.8c0.4-0.5,0.5-1.2,0.5-2.1c0-0.9-0.2-1.6-0.5-2.1S100.2,154.8,99.6,154.8z"/>
	<path id="XMLID_395_" class="st5" d="M106.1,157.5l0.4-0.5l0.5-0.6l2.4-2.5h1.4l-3,3.2l3.2,4.3h-1.5l-2.6-3.5l-0.9,0.7v2.8h-1.2
		v-10.6h1.2v5.6V157.5L106.1,157.5z"/>
	<path id="XMLID_397_" class="st5" d="M117,161.4l-0.2-1.1h-0.1c-0.4,0.5-0.7,0.8-1.1,1c-0.4,0.2-0.8,0.3-1.4,0.3
		c-0.7,0-1.3-0.2-1.7-0.6c-0.4-0.4-0.6-0.9-0.6-1.6c0-1.5,1.2-2.3,3.6-2.4l1.3,0v-0.4c0-0.6-0.1-1-0.4-1.3c-0.2-0.3-0.6-0.4-1.2-0.4
		c-0.4,0-0.8,0.1-1.1,0.2c-0.4,0.1-0.7,0.3-1,0.4l-0.4-0.9c0.4-0.2,0.8-0.4,1.2-0.5c0.4-0.1,0.9-0.2,1.3-0.2c0.9,0,1.6,0.2,2,0.6
		c0.4,0.4,0.7,1,0.7,1.9v5.1H117z M114.4,160.5c0.7,0,1.2-0.2,1.6-0.6c0.4-0.4,0.6-0.9,0.6-1.6v-0.7l-1.1,0c-0.9,0-1.5,0.2-1.9,0.4
		c-0.4,0.2-0.6,0.6-0.6,1.1c0,0.4,0.1,0.7,0.4,0.9C113.7,160.4,114,160.5,114.4,160.5z"/>
	<path id="XMLID_400_" class="st5" d="M125.3,161.4v-4.8c0-0.6-0.1-1.1-0.4-1.4c-0.3-0.3-0.7-0.4-1.3-0.4c-0.8,0-1.3,0.2-1.7,0.6
		c-0.3,0.4-0.5,1.1-0.5,2.1v3.9h-1.2v-7.5h1l0.2,1h0.1c0.2-0.4,0.6-0.7,1-0.9c0.4-0.2,0.9-0.3,1.4-0.3c0.9,0,1.6,0.2,2.1,0.7
		c0.4,0.4,0.7,1.1,0.7,2.1v4.9H125.3z"/>
	<path id="XMLID_402_" class="st5" d="M29.6,174.3l0.4-0.5l0.5-0.6l2.4-2.5h1.4l-3,3.2l3.2,4.3H33l-2.6-3.5l-0.9,0.7v2.8h-1.2v-10.6
		h1.2v5.6V174.3L29.6,174.3z"/>
	<path id="XMLID_404_" class="st5" d="M38.9,178.3c-1.1,0-2-0.3-2.6-1c-0.6-0.7-1-1.6-1-2.8c0-1.2,0.3-2.2,0.9-2.9
		c0.6-0.7,1.4-1.1,2.4-1.1c0.9,0,1.7,0.3,2.3,0.9s0.8,1.4,0.8,2.5v0.7h-5.1c0,0.9,0.2,1.5,0.6,1.9c0.4,0.4,1,0.7,1.7,0.7
		c0.4,0,0.8,0,1.1-0.1c0.4-0.1,0.8-0.2,1.3-0.4v1.1c-0.4,0.2-0.8,0.3-1.2,0.4C39.8,178.3,39.4,178.3,38.9,178.3z M38.6,171.5
		c-0.6,0-1.1,0.2-1.4,0.6c-0.3,0.4-0.5,0.9-0.6,1.6h3.8c0-0.7-0.2-1.2-0.5-1.6C39.6,171.7,39.2,171.5,38.6,171.5z"/>
	<path id="XMLID_407_" class="st5" d="M47.2,170.5c1,0,1.8,0.3,2.3,1c0.5,0.7,0.8,1.6,0.8,2.9c0,1.2-0.3,2.2-0.8,2.9s-1.3,1-2.3,1
		c-0.5,0-1-0.1-1.4-0.3c-0.4-0.2-0.7-0.5-1-0.8h-0.1c-0.1,0.5-0.2,0.9-0.3,1h-0.9v-10.6h1.2v2.6c0,0.5,0,1-0.1,1.5h0.1
		C45.3,170.9,46.1,170.5,47.2,170.5z M46.9,171.6c-0.8,0-1.3,0.2-1.6,0.6c-0.3,0.4-0.5,1.2-0.5,2.2v0.1c0,1,0.2,1.8,0.5,2.2
		c0.3,0.4,0.9,0.7,1.6,0.7c0.7,0,1.2-0.2,1.5-0.7c0.3-0.5,0.5-1.2,0.5-2.1c0-0.9-0.2-1.7-0.5-2.1C48.1,171.8,47.6,171.6,46.9,171.6z
		"/>
	<path id="XMLID_410_" class="st5" d="M55.4,178.3c-1.1,0-2-0.3-2.6-1c-0.6-0.7-1-1.6-1-2.8c0-1.2,0.3-2.2,0.9-2.9
		c0.6-0.7,1.4-1.1,2.4-1.1c0.9,0,1.7,0.3,2.3,0.9s0.8,1.4,0.8,2.5v0.7h-5.1c0,0.9,0.2,1.5,0.6,1.9c0.4,0.4,1,0.7,1.7,0.7
		c0.4,0,0.8,0,1.1-0.1c0.4-0.1,0.8-0.2,1.3-0.4v1.1c-0.4,0.2-0.8,0.3-1.2,0.4C56.3,178.3,55.9,178.3,55.4,178.3z M55.1,171.5
		c-0.6,0-1.1,0.2-1.4,0.6c-0.3,0.4-0.5,0.9-0.6,1.6h3.8c0-0.7-0.2-1.2-0.5-1.6C56.1,171.7,55.7,171.5,55.1,171.5z"/>
	<path id="XMLID_413_" class="st5" d="M63.6,170.5c0.3,0,0.6,0,0.9,0.1l-0.2,1.1c-0.3-0.1-0.5-0.1-0.8-0.1c-0.4,0-0.8,0.1-1.1,0.3
		s-0.6,0.5-0.8,0.9c-0.2,0.4-0.3,0.8-0.3,1.3v4h-1.2v-7.5h1l0.1,1.4h0.1c0.3-0.5,0.6-0.9,1-1.1C62.7,170.6,63.1,170.5,63.6,170.5z"
		/>
	<path id="XMLID_415_" class="st5" d="M67.1,170.7v4.8c0,0.6,0.1,1.1,0.4,1.3s0.7,0.4,1.3,0.4c0.8,0,1.3-0.2,1.7-0.6
		c0.4-0.4,0.5-1.1,0.5-2.1v-3.9h1.2v7.5h-1l-0.2-1h-0.1c-0.2,0.4-0.5,0.6-1,0.8c-0.4,0.2-0.9,0.3-1.4,0.3c-0.9,0-1.6-0.2-2-0.6
		c-0.5-0.4-0.7-1.1-0.7-2.1v-4.9H67.1z"/>
	<path id="XMLID_417_" class="st5" d="M79.7,178.2v-4.8c0-0.6-0.1-1.1-0.4-1.4c-0.3-0.3-0.7-0.4-1.3-0.4c-0.8,0-1.3,0.2-1.7,0.6
		c-0.3,0.4-0.5,1.1-0.5,2.1v3.9h-1.2v-7.5h1l0.2,1h0.1c0.2-0.4,0.6-0.7,1-0.9c0.4-0.2,0.9-0.3,1.4-0.3c0.9,0,1.6,0.2,2.1,0.7
		c0.4,0.4,0.7,1.1,0.7,2.1v4.9H79.7z"/>
	<path id="XMLID_419_" class="st5" d="M85.7,177.3c0.2,0,0.3,0,0.6,0c0.2,0,0.4-0.1,0.5-0.1v0.9c-0.1,0-0.3,0.1-0.5,0.1
		s-0.5,0.1-0.7,0.1c-1.5,0-2.2-0.8-2.2-2.3v-4.4h-1.1V171l1.1-0.5l0.5-1.6h0.7v1.7h2.2v1h-2.2v4.3c0,0.4,0.1,0.8,0.3,1
		S85.3,177.3,85.7,177.3z"/>
	<path id="XMLID_421_" class="st5" d="M89.4,170.7v4.8c0,0.6,0.1,1.1,0.4,1.3s0.7,0.4,1.3,0.4c0.8,0,1.3-0.2,1.7-0.6
		c0.4-0.4,0.5-1.1,0.5-2.1v-3.9h1.2v7.5h-1l-0.2-1h-0.1c-0.2,0.4-0.5,0.6-1,0.8c-0.4,0.2-0.9,0.3-1.4,0.3c-0.9,0-1.6-0.2-2-0.6
		c-0.5-0.4-0.7-1.1-0.7-2.1v-4.9H89.4z"/>
	<path id="XMLID_423_" class="st5" d="M102,178.2v-4.8c0-0.6-0.1-1.1-0.4-1.4c-0.3-0.3-0.7-0.4-1.3-0.4c-0.8,0-1.3,0.2-1.7,0.6
		c-0.3,0.4-0.5,1.1-0.5,2.1v3.9h-1.2v-7.5h1l0.2,1h0.1c0.2-0.4,0.6-0.7,1-0.9c0.4-0.2,0.9-0.3,1.4-0.3c0.9,0,1.6,0.2,2.1,0.7
		c0.4,0.4,0.7,1.1,0.7,2.1v4.9H102z"/>
	<path id="XMLID_425_" class="st5" d="M110.6,178.1l0-0.9h-0.1c-0.5,0.8-1.3,1.1-2.3,1.1c-1,0-1.7-0.3-2.3-1s-0.8-1.6-0.8-2.9
		c0-1.2,0.3-2.2,0.8-2.9s1.3-1,2.3-1c1,0,1.8,0.4,2.4,1.1h0.1l0.2-1h1v7.6c0,1.1-0.3,1.9-0.8,2.4c-0.5,0.5-1.4,0.8-2.5,0.8
		c-1.1,0-2-0.2-2.7-0.5v-1.1c0.7,0.4,1.7,0.6,2.8,0.6c0.6,0,1.1-0.2,1.5-0.6c0.4-0.4,0.6-0.9,0.6-1.6V178.1z M108.4,177.3
		c0.8,0,1.3-0.2,1.7-0.6c0.3-0.4,0.5-1.1,0.5-2v-0.3c0-1-0.2-1.7-0.5-2.2c-0.3-0.5-0.9-0.7-1.7-0.7c-0.6,0-1.1,0.2-1.5,0.7
		s-0.5,1.2-0.5,2.1c0,0.9,0.2,1.6,0.5,2.1C107.3,177.1,107.8,177.3,108.4,177.3z"/>
	<path id="XMLID_428_" class="st5" d="M118.8,178.2l-0.2-1.1h-0.1c-0.4,0.5-0.7,0.8-1.1,1c-0.4,0.2-0.8,0.3-1.4,0.3
		c-0.7,0-1.3-0.2-1.7-0.6c-0.4-0.4-0.6-0.9-0.6-1.6c0-1.5,1.2-2.3,3.6-2.4l1.3,0v-0.4c0-0.6-0.1-1-0.4-1.3c-0.2-0.3-0.6-0.4-1.2-0.4
		c-0.4,0-0.8,0.1-1.1,0.2c-0.4,0.1-0.7,0.3-1,0.4l-0.4-0.9c0.4-0.2,0.8-0.4,1.2-0.5c0.4-0.1,0.9-0.2,1.3-0.2c0.9,0,1.6,0.2,2,0.6
		c0.4,0.4,0.7,1,0.7,1.9v5.1H118.8z M116.3,177.3c0.7,0,1.2-0.2,1.6-0.6c0.4-0.4,0.6-0.9,0.6-1.6v-0.7l-1.1,0
		c-0.9,0-1.5,0.2-1.9,0.4c-0.4,0.2-0.6,0.6-0.6,1.1c0,0.4,0.1,0.7,0.4,0.9C115.5,177.2,115.8,177.3,116.3,177.3z"/>
	<path id="XMLID_431_" class="st5" d="M127.1,178.2v-4.8c0-0.6-0.1-1.1-0.4-1.4c-0.3-0.3-0.7-0.4-1.3-0.4c-0.8,0-1.3,0.2-1.7,0.6
		c-0.3,0.4-0.5,1.1-0.5,2.1v3.9H122v-7.5h1l0.2,1h0.1c0.2-0.4,0.6-0.7,1-0.9c0.4-0.2,0.9-0.3,1.4-0.3c0.9,0,1.6,0.2,2.1,0.7
		c0.4,0.4,0.7,1.1,0.7,2.1v4.9H127.1z"/>
	<path id="XMLID_433_" class="st5" d="M31,195.1c-1,0-1.7-0.3-2.3-1c-0.5-0.7-0.8-1.6-0.8-2.9c0-1.2,0.3-2.2,0.8-2.9
		c0.5-0.7,1.3-1,2.3-1c1,0,1.8,0.4,2.3,1.1h0.1c0-0.1,0-0.3-0.1-0.5c0-0.3,0-0.5,0-0.6v-3h1.2V195h-1l-0.2-1h-0.1
		C32.8,194.7,32.1,195.1,31,195.1z M31.2,194.1c0.7,0,1.3-0.2,1.6-0.6c0.3-0.4,0.5-1.1,0.5-2v-0.2c0-1-0.2-1.8-0.5-2.2
		s-0.9-0.7-1.6-0.7c-0.6,0-1.1,0.3-1.5,0.8c-0.3,0.5-0.5,1.2-0.5,2.2c0,0.9,0.2,1.6,0.5,2.1S30.6,194.1,31.2,194.1z"/>
	<path id="XMLID_436_" class="st5" d="M41.6,195l-0.2-1.1h-0.1c-0.4,0.5-0.7,0.8-1.1,1c-0.4,0.2-0.8,0.2-1.4,0.2
		c-0.7,0-1.3-0.2-1.7-0.6c-0.4-0.4-0.6-0.9-0.6-1.6c0-1.5,1.2-2.3,3.6-2.4l1.3,0V190c0-0.6-0.1-1-0.4-1.3c-0.2-0.3-0.6-0.4-1.2-0.4
		c-0.4,0-0.8,0.1-1.1,0.2c-0.4,0.1-0.7,0.3-1,0.4l-0.4-0.9c0.4-0.2,0.8-0.4,1.2-0.5c0.4-0.1,0.9-0.2,1.3-0.2c0.9,0,1.6,0.2,2,0.6
		c0.4,0.4,0.7,1,0.7,1.9v5.1H41.6z M39.1,194.1c0.7,0,1.2-0.2,1.6-0.6c0.4-0.4,0.6-0.9,0.6-1.6v-0.7l-1.1,0c-0.9,0-1.5,0.2-1.9,0.4
		c-0.4,0.2-0.6,0.6-0.6,1.1c0,0.4,0.1,0.7,0.4,0.9C38.3,194,38.6,194.1,39.1,194.1z"/>
	<path id="XMLID_439_" class="st5" d="M49.9,195v-4.8c0-0.6-0.1-1.1-0.4-1.4c-0.3-0.3-0.7-0.4-1.3-0.4c-0.8,0-1.3,0.2-1.7,0.6
		c-0.3,0.4-0.5,1.1-0.5,2.1v3.9h-1.2v-7.5h1l0.2,1h0.1c0.2-0.4,0.6-0.7,1-0.9c0.4-0.2,0.9-0.3,1.4-0.3c0.9,0,1.6,0.2,2.1,0.7
		c0.4,0.4,0.7,1.1,0.7,2.1v4.9H49.9z"/>
	<path id="XMLID_441_" class="st5" d="M58.3,191.1l0.4-0.5l0.5-0.6l2.4-2.5h1.4l-3,3.2l3.2,4.3h-1.5l-2.6-3.5l-0.9,0.7v2.8h-1.2
		v-10.6h1.2v5.6V191.1L58.3,191.1z"/>
	<path id="XMLID_443_" class="st5" d="M67.7,195.1c-1.1,0-2-0.3-2.6-1c-0.6-0.7-1-1.6-1-2.8c0-1.2,0.3-2.2,0.9-2.9
		c0.6-0.7,1.4-1.1,2.4-1.1c0.9,0,1.7,0.3,2.3,0.9s0.8,1.4,0.8,2.5v0.7h-5.1c0,0.9,0.2,1.5,0.6,1.9c0.4,0.4,1,0.7,1.7,0.7
		c0.4,0,0.8,0,1.1-0.1c0.4-0.1,0.8-0.2,1.3-0.4v1.1c-0.4,0.2-0.8,0.3-1.2,0.4C68.6,195.1,68.2,195.1,67.7,195.1z M67.3,188.3
		c-0.6,0-1.1,0.2-1.4,0.6c-0.3,0.4-0.5,0.9-0.6,1.6h3.8c0-0.7-0.2-1.2-0.5-1.6C68.4,188.5,67.9,188.3,67.3,188.3z"/>
	<path id="XMLID_446_" class="st5" d="M77.2,192.9c0,0.7-0.3,1.2-0.8,1.6c-0.5,0.4-1.3,0.6-2.2,0.6c-1,0-1.8-0.2-2.4-0.5v-1.1
		c0.8,0.4,1.6,0.6,2.4,0.6c0.6,0,1.1-0.1,1.4-0.3c0.3-0.2,0.4-0.5,0.4-0.8c0-0.3-0.1-0.5-0.4-0.8s-0.8-0.4-1.4-0.7
		c-0.7-0.3-1.2-0.5-1.5-0.7c-0.3-0.2-0.5-0.4-0.6-0.7c-0.1-0.2-0.2-0.5-0.2-0.9c0-0.6,0.3-1.1,0.8-1.5c0.5-0.4,1.2-0.5,2.1-0.5
		c0.9,0,1.6,0.2,2.4,0.5l-0.4,1c-0.8-0.3-1.4-0.5-2.1-0.5c-0.5,0-0.9,0.1-1.2,0.2c-0.3,0.2-0.4,0.4-0.4,0.7c0,0.3,0.1,0.5,0.3,0.7
		c0.2,0.2,0.8,0.4,1.6,0.7c0.6,0.2,1.1,0.4,1.4,0.6c0.3,0.2,0.5,0.4,0.7,0.7C77.2,192.2,77.2,192.5,77.2,192.9z"/>
	<path id="XMLID_448_" class="st5" d="M82.3,195.1c-1.1,0-2-0.3-2.6-1c-0.6-0.7-1-1.6-1-2.8c0-1.2,0.3-2.2,0.9-2.9
		c0.6-0.7,1.4-1.1,2.4-1.1c0.9,0,1.7,0.3,2.3,0.9s0.8,1.4,0.8,2.5v0.7h-5.1c0,0.9,0.2,1.5,0.6,1.9c0.4,0.4,1,0.7,1.7,0.7
		c0.4,0,0.8,0,1.1-0.1c0.4-0.1,0.8-0.2,1.3-0.4v1.1c-0.4,0.2-0.8,0.3-1.2,0.4C83.2,195.1,82.8,195.1,82.3,195.1z M81.9,188.3
		c-0.6,0-1.1,0.2-1.4,0.6c-0.3,0.4-0.5,0.9-0.6,1.6h3.8c0-0.7-0.2-1.2-0.5-1.6C83,188.5,82.5,188.3,81.9,188.3z"/>
	<path id="XMLID_451_" class="st5" d="M86.1,198.3c-0.4,0-0.8-0.1-1.1-0.2v-1c0.3,0.1,0.6,0.1,0.9,0.1c0.4,0,0.6-0.1,0.8-0.3
		c0.2-0.2,0.2-0.5,0.2-0.9v-8.7h1.2v8.6c0,0.7-0.2,1.3-0.5,1.7C87.3,198.1,86.8,198.3,86.1,198.3z M86.9,185.4
		c0-0.3,0.1-0.5,0.2-0.6s0.3-0.2,0.5-0.2c0.2,0,0.4,0.1,0.5,0.2s0.2,0.3,0.2,0.6c0,0.3-0.1,0.5-0.2,0.6c-0.1,0.1-0.3,0.2-0.5,0.2
		c-0.2,0-0.4-0.1-0.5-0.2C86.9,185.9,86.9,185.7,86.9,185.4z"/>
	<path id="XMLID_454_" class="st5" d="M95.2,195l-0.2-1.1h-0.1c-0.4,0.5-0.7,0.8-1.1,1c-0.4,0.2-0.8,0.2-1.4,0.2
		c-0.7,0-1.3-0.2-1.7-0.6c-0.4-0.4-0.6-0.9-0.6-1.6c0-1.5,1.2-2.3,3.6-2.4l1.3,0V190c0-0.6-0.1-1-0.4-1.3c-0.2-0.3-0.6-0.4-1.2-0.4
		c-0.4,0-0.8,0.1-1.1,0.2c-0.4,0.1-0.7,0.3-1,0.4l-0.4-0.9c0.4-0.2,0.8-0.4,1.2-0.5c0.4-0.1,0.9-0.2,1.3-0.2c0.9,0,1.6,0.2,2,0.6
		c0.4,0.4,0.7,1,0.7,1.9v5.1H95.2z M92.7,194.1c0.7,0,1.2-0.2,1.6-0.6c0.4-0.4,0.6-0.9,0.6-1.6v-0.7l-1.1,0c-0.9,0-1.5,0.2-1.9,0.4
		c-0.4,0.2-0.6,0.6-0.6,1.1c0,0.4,0.1,0.7,0.4,0.9C91.9,194,92.2,194.1,92.7,194.1z"/>
	<path id="XMLID_457_" class="st5" d="M103.5,195v-4.8c0-0.6-0.1-1.1-0.4-1.4c-0.3-0.3-0.7-0.4-1.3-0.4c-0.8,0-1.3,0.2-1.7,0.6
		s-0.5,1.1-0.5,2.1v3.9h-1.2v-10.6h1.2v3.1c0,0.4,0,0.8-0.1,1.1h0.1c0.2-0.4,0.5-0.6,1-0.9s0.9-0.3,1.4-0.3c0.9,0,1.6,0.2,2.1,0.7
		c0.5,0.4,0.7,1.1,0.7,2.1v4.9H103.5z"/>
	<path id="XMLID_459_" class="st5" d="M109.6,194.1c0.2,0,0.3,0,0.6,0c0.2,0,0.4-0.1,0.5-0.1v0.9c-0.1,0.1-0.3,0.1-0.5,0.1
		s-0.5,0.1-0.7,0.1c-1.5,0-2.2-0.8-2.2-2.3v-4.4h-1.1v-0.6l1.1-0.5l0.5-1.6h0.7v1.7h2.2v1h-2.2v4.3c0,0.4,0.1,0.8,0.3,1
		S109.2,194.1,109.6,194.1z"/>
	<path id="XMLID_461_" class="st5" d="M115.3,195.1c-1.1,0-2-0.3-2.6-1c-0.6-0.7-1-1.6-1-2.8c0-1.2,0.3-2.2,0.9-2.9
		c0.6-0.7,1.4-1.1,2.4-1.1c0.9,0,1.7,0.3,2.3,0.9s0.8,1.4,0.8,2.5v0.7H113c0,0.9,0.2,1.5,0.6,1.9c0.4,0.4,1,0.7,1.7,0.7
		c0.4,0,0.8,0,1.1-0.1c0.4-0.1,0.8-0.2,1.3-0.4v1.1c-0.4,0.2-0.8,0.3-1.2,0.4C116.3,195.1,115.8,195.1,115.3,195.1z M115,188.3
		c-0.6,0-1.1,0.2-1.4,0.6c-0.3,0.4-0.5,0.9-0.6,1.6h3.8c0-0.7-0.2-1.2-0.5-1.6C116,188.5,115.6,188.3,115,188.3z"/>
	<path id="XMLID_464_" class="st5" d="M123.5,187.3c0.3,0,0.6,0,0.9,0.1l-0.2,1.1c-0.3-0.1-0.5-0.1-0.8-0.1c-0.4,0-0.8,0.1-1.1,0.3
		s-0.6,0.5-0.8,0.9c-0.2,0.4-0.3,0.8-0.3,1.3v4H120v-7.5h1l0.1,1.4h0.1c0.3-0.5,0.6-0.9,1-1.1C122.6,187.4,123.1,187.3,123.5,187.3z
		"/>
	<path id="XMLID_466_" class="st5" d="M130.3,195l-0.2-1.1H130c-0.4,0.5-0.7,0.8-1.1,1c-0.4,0.2-0.8,0.2-1.4,0.2
		c-0.7,0-1.3-0.2-1.7-0.6c-0.4-0.4-0.6-0.9-0.6-1.6c0-1.5,1.2-2.3,3.6-2.4l1.3,0V190c0-0.6-0.1-1-0.4-1.3c-0.2-0.3-0.6-0.4-1.2-0.4
		c-0.4,0-0.8,0.1-1.1,0.2c-0.4,0.1-0.7,0.3-1,0.4L126,188c0.4-0.2,0.8-0.4,1.2-0.5c0.4-0.1,0.9-0.2,1.3-0.2c0.9,0,1.6,0.2,2,0.6
		c0.4,0.4,0.7,1,0.7,1.9v5.1H130.3z M127.8,194.1c0.7,0,1.2-0.2,1.6-0.6c0.4-0.4,0.6-0.9,0.6-1.6v-0.7l-1.1,0
		c-0.9,0-1.5,0.2-1.9,0.4c-0.4,0.2-0.6,0.6-0.6,1.1c0,0.4,0.1,0.7,0.4,0.9C127,194,127.3,194.1,127.8,194.1z"/>
	<path id="XMLID_469_" class="st5" d="M138.2,195l-0.2-1.1h-0.1c-0.4,0.5-0.7,0.8-1.1,1c-0.4,0.2-0.8,0.2-1.4,0.2
		c-0.7,0-1.3-0.2-1.7-0.6c-0.4-0.4-0.6-0.9-0.6-1.6c0-1.5,1.2-2.3,3.6-2.4l1.3,0V190c0-0.6-0.1-1-0.4-1.3c-0.2-0.3-0.6-0.4-1.2-0.4
		c-0.4,0-0.8,0.1-1.1,0.2c-0.4,0.1-0.7,0.3-1,0.4l-0.4-0.9c0.4-0.2,0.8-0.4,1.2-0.5c0.4-0.1,0.9-0.2,1.3-0.2c0.9,0,1.6,0.2,2,0.6
		c0.4,0.4,0.7,1,0.7,1.9v5.1H138.2z M135.6,194.1c0.7,0,1.2-0.2,1.6-0.6c0.4-0.4,0.6-0.9,0.6-1.6v-0.7l-1.1,0
		c-0.9,0-1.5,0.2-1.9,0.4c-0.4,0.2-0.6,0.6-0.6,1.1c0,0.4,0.1,0.7,0.4,0.9C134.9,194,135.2,194.1,135.6,194.1z"/>
	<path id="XMLID_472_" class="st5" d="M146.5,195v-4.8c0-0.6-0.1-1.1-0.4-1.4c-0.3-0.3-0.7-0.4-1.3-0.4c-0.8,0-1.3,0.2-1.7,0.6
		c-0.3,0.4-0.5,1.1-0.5,2.1v3.9h-1.2v-7.5h1l0.2,1h0.1c0.2-0.4,0.6-0.7,1-0.9c0.4-0.2,0.9-0.3,1.4-0.3c0.9,0,1.6,0.2,2.1,0.7
		c0.4,0.4,0.7,1.1,0.7,2.1v4.9H146.5z"/>
</g>
</svg>
