<?xml version="1.0" encoding="utf-8"?>
<!-- Generator: Adobe Illustrator 19.0.0, SVG Export Plug-In . SVG Version: 6.00 Build 0)  -->
<svg version="1.1" id="Layer_1" xmlns="http://www.w3.org/2000/svg" xmlns:xlink="http://www.w3.org/1999/xlink" x="0px" y="0px"
	 viewBox="0 0 168.9 168" style="enable-background:new 0 0 168.9 168;" xml:space="preserve">
<style type="text/css">
	.st0{fill:#ED135E;}
	.st1{fill:#FFFFFF;}
	.st2{fill:#CD202B;}
	.st3{fill:#E1E1E1;}
	.st4{fill:#BBBBBB;}
	.st5{fill:#8C8C8C;}
	.st6{fill:#C1A52F;}
	.st7{fill:#FEDE40;}
	.st8{fill:#DFDFDF;}
	.st9{fill:#C8C8C8;}
	.st10{fill:none;stroke:#FFFFFF;stroke-width:0.5;stroke-miterlimit:10;}
	.st11{fill:#404040;}
</style>
<rect id="XMLID_4013_" x="0.2" y="0" class="st0" width="150.5" height="167"/>
<rect id="XMLID_4012_" y="86" class="st1" width="150.9" height="81.5"/>
<polygon id="XMLID_2494_" class="st1" points="149.7,166.8 149.7,147.8 168.9,167 "/>
<g id="XMLID_9177_">
	<circle id="XMLID_9178_" class="st2" cx="12.9" cy="96.7" r="4"/>
	<path id="XMLID_9179_" class="st2" d="M8.9,96.7H17v10.1C17,106.8,8.9,101.9,8.9,96.7z"/>
	<circle id="XMLID_2518_" class="st2" cx="21" cy="96.5" r="4"/>
	<path id="XMLID_2517_" class="st2" d="M25,96.5H17v10.1C17,106.6,25,101.7,25,96.5z"/>
</g>
<g id="XMLID_9316_">
	<polyline id="XMLID_2515_" class="st1" points="84.3,26.3 86.1,26.3 86.1,6.7 64.5,6.7 64.5,26.3 64.8,26.3 	"/>
	<rect id="XMLID_2514_" x="64.5" y="12.8" class="st3" width="21.6" height="5.3"/>
	<rect id="XMLID_2513_" x="84.3" y="6.7" class="st4" width="1.9" height="22.5"/>
	<rect id="XMLID_2512_" x="84.3" y="12.8" class="st5" width="1.9" height="5.3"/>
	
		<rect id="XMLID_2511_" x="91.9" y="47.8" transform="matrix(0.9191 0.394 -0.394 0.9191 27.452 -33.1596)" class="st6" width="5.1" height="4.9"/>
	
		<rect id="XMLID_2510_" x="90.3" y="47.1" transform="matrix(0.9191 0.3939 -0.3939 0.9191 27.0403 -32.5617)" class="st7" width="5.1" height="4.9"/>
	<polyline id="XMLID_9317_" class="st1" points="84.3,60.3 86.1,60.3 86.1,79.9 64.5,79.9 64.5,60.3 64.8,60.3 	"/>
	
		<rect id="XMLID_2508_" x="93.6" y="31.4" transform="matrix(-0.9191 0.394 -0.394 -0.9191 197.8537 27.0415)" class="st7" width="5.1" height="4.9"/>
	<line id="XMLID_9318_" class="st1" x1="65.3" y1="73.8" x2="85.4" y2="73.8"/>
	<line id="XMLID_9319_" class="st1" x1="65.3" y1="67.1" x2="85.4" y2="67.1"/>
	<rect id="XMLID_2505_" x="64.5" y="68.5" class="st3" width="21.6" height="5.3"/>
	<rect id="XMLID_2504_" x="84.3" y="57.4" class="st4" width="1.9" height="22.5"/>
	<rect id="XMLID_2503_" x="84.3" y="68.5" class="st5" width="1.9" height="5.3"/>
	<circle id="XMLID_9320_" class="st5" cx="74.5" cy="42.3" r="20.5"/>
	<circle id="XMLID_9321_" class="st8" cx="74.5" cy="42.3" r="15.2"/>
	<circle id="XMLID_9322_" class="st9" cx="74.4" cy="42.3" r="13.3"/>
	<polyline id="XMLID_9323_" class="st10" points="74.5,32.1 74.5,42.3 84,42.3 	"/>
	<circle id="XMLID_9324_" class="st10" cx="74.4" cy="42.4" r="3.4"/>
</g>
<g id="XMLID_14_">
	<path id="XMLID_15_" class="st11" d="M33.1,105c-0.5,0-0.9-0.1-1.3-0.2v-1.8c0.4,0.1,0.7,0.1,1,0.1c0.5,0,0.8-0.1,1-0.4
		s0.3-0.7,0.3-1.4v-9.4h2.1v9.4c0,1.2-0.3,2.1-0.8,2.7C34.9,104.7,34.1,105,33.1,105z"/>
	<path id="XMLID_17_" class="st11" d="M43.4,102l-0.4-1H43c-0.4,0.4-0.7,0.7-1.1,0.9c-0.4,0.2-0.9,0.3-1.5,0.3
		c-0.7,0-1.3-0.2-1.7-0.6c-0.4-0.4-0.6-1-0.6-1.8c0-0.8,0.3-1.4,0.9-1.8s1.4-0.6,2.6-0.6l1.3,0V97c0-0.8-0.4-1.2-1.2-1.2
		c-0.6,0-1.3,0.2-2.2,0.6l-0.7-1.4c0.9-0.5,1.9-0.7,2.9-0.7c1,0,1.8,0.2,2.4,0.7c0.5,0.4,0.8,1.1,0.8,2v5.1H43.4z M42.8,98.5l-0.8,0
		c-0.6,0-1.1,0.1-1.4,0.3c-0.3,0.2-0.4,0.5-0.4,0.9c0,0.6,0.3,0.9,1,0.9c0.5,0,0.9-0.1,1.2-0.4c0.3-0.3,0.4-0.6,0.4-1.1V98.5z"/>
	<path id="XMLID_20_" class="st11" d="M53.9,102h-2.1v-4.5c0-0.6-0.1-1-0.3-1.2s-0.5-0.4-0.9-0.4c-0.5,0-0.9,0.2-1.2,0.6
		c-0.2,0.4-0.4,1-0.4,1.9v3.6H47v-7.6h1.6l0.3,1H49c0.2-0.4,0.5-0.6,0.9-0.8s0.8-0.3,1.3-0.3c1.1,0,1.9,0.4,2.3,1.1h0.2
		c0.2-0.4,0.5-0.6,0.9-0.8c0.4-0.2,0.8-0.3,1.4-0.3c0.9,0,1.5,0.2,2,0.7s0.7,1.2,0.7,2.1v5h-2.1v-4.5c0-0.6-0.1-1-0.3-1.2
		s-0.5-0.4-0.9-0.4c-0.5,0-0.9,0.2-1.1,0.5c-0.3,0.4-0.4,0.9-0.4,1.7V102z"/>
	<path id="XMLID_22_" class="st11" d="M68.4,102h-2.1v-8.2h-2.7v-1.8h7.5v1.8h-2.7V102z"/>
	<path id="XMLID_24_" class="st11" d="M76.8,102l-0.4-1h-0.1c-0.4,0.4-0.7,0.7-1.1,0.9c-0.4,0.2-0.9,0.3-1.5,0.3
		c-0.7,0-1.3-0.2-1.7-0.6c-0.4-0.4-0.6-1-0.6-1.8c0-0.8,0.3-1.4,0.9-1.8s1.4-0.6,2.6-0.6l1.3,0V97c0-0.8-0.4-1.2-1.2-1.2
		c-0.6,0-1.3,0.2-2.2,0.6l-0.7-1.4c0.9-0.5,1.9-0.7,2.9-0.7c1,0,1.8,0.2,2.4,0.7c0.5,0.4,0.8,1.1,0.8,2v5.1H76.8z M76.2,98.5l-0.8,0
		c-0.6,0-1.1,0.1-1.4,0.3c-0.3,0.2-0.4,0.5-0.4,0.9c0,0.6,0.3,0.9,1,0.9c0.5,0,0.9-0.1,1.2-0.4c0.3-0.3,0.4-0.6,0.4-1.1V98.5z"/>
	<path id="XMLID_31_" class="st11" d="M87.5,102h-2.1v-4.5c0-0.6-0.1-1-0.3-1.2s-0.5-0.4-0.9-0.4c-0.6,0-1,0.2-1.3,0.6
		s-0.4,1-0.4,1.9v3.6h-2.1v-7.6H82l0.3,1h0.1c0.2-0.4,0.6-0.6,1-0.8c0.4-0.2,0.9-0.3,1.4-0.3c0.9,0,1.6,0.2,2,0.7s0.7,1.2,0.7,2.1
		V102z"/>
	<path id="XMLID_33_" class="st11" d="M96.3,102.1c0,1.1-0.3,1.9-1,2.5c-0.6,0.6-1.6,0.9-2.9,0.9c-1.1,0-2.1-0.2-2.9-0.5v-1.7
		c0.9,0.4,1.9,0.6,3,0.6c1.1,0,1.6-0.6,1.6-1.7V102l0.1-0.9h-0.1c-0.5,0.8-1.2,1.1-2.2,1.1c-0.9,0-1.6-0.4-2.1-1.1
		c-0.5-0.7-0.8-1.7-0.8-2.9c0-1.3,0.3-2.2,0.8-2.9c0.5-0.7,1.2-1,2.2-1c0.9,0,1.7,0.4,2.2,1.1h0.1l0.2-1h1.8V102.1z M92.8,100.6
		c0.6,0,1-0.2,1.2-0.5s0.4-0.8,0.4-1.6v-0.3c0-0.8-0.1-1.4-0.4-1.8S93.3,96,92.8,96c-1,0-1.5,0.8-1.5,2.3c0,0.8,0.1,1.3,0.4,1.7
		C91.9,100.4,92.3,100.6,92.8,100.6z"/>
	<path id="XMLID_36_" class="st11" d="M103.3,102l-0.4-1h-0.1c-0.4,0.4-0.7,0.7-1.1,0.9c-0.4,0.2-0.9,0.3-1.5,0.3
		c-0.7,0-1.3-0.2-1.7-0.6c-0.4-0.4-0.6-1-0.6-1.8c0-0.8,0.3-1.4,0.9-1.8s1.4-0.6,2.6-0.6l1.3,0V97c0-0.8-0.4-1.2-1.2-1.2
		c-0.6,0-1.3,0.2-2.2,0.6l-0.7-1.4c0.9-0.5,1.9-0.7,2.9-0.7c1,0,1.8,0.2,2.4,0.7c0.5,0.4,0.8,1.1,0.8,2v5.1H103.3z M102.7,98.5
		l-0.8,0c-0.6,0-1.1,0.1-1.4,0.3c-0.3,0.2-0.4,0.5-0.4,0.9c0,0.6,0.3,0.9,1,0.9c0.5,0,0.9-0.1,1.2-0.4c0.3-0.3,0.4-0.6,0.4-1.1V98.5
		z"/>
	<path id="XMLID_39_" class="st11" d="M114,102h-2.1v-4.5c0-0.6-0.1-1-0.3-1.2s-0.5-0.4-0.9-0.4c-0.6,0-1,0.2-1.3,0.6
		s-0.4,1-0.4,1.9v3.6H107v-7.6h1.6l0.3,1h0.1c0.2-0.4,0.6-0.6,1-0.8c0.4-0.2,0.9-0.3,1.4-0.3c0.9,0,1.6,0.2,2,0.7s0.7,1.2,0.7,2.1
		V102z"/>
	<path id="XMLID_41_" class="st11" d="M38.9,114.2c0,0.7-0.3,1.3-0.8,1.8s-1.3,0.6-2.3,0.6c-1,0-1.8-0.1-2.4-0.4v-1
		c0.4,0.2,0.8,0.3,1.2,0.4s0.8,0.1,1.2,0.1c0.6,0,1.1-0.1,1.4-0.4s0.5-0.6,0.5-1c0-0.3-0.1-0.5-0.2-0.7s-0.3-0.4-0.6-0.5
		s-0.7-0.3-1.3-0.5c-0.8-0.3-1.4-0.6-1.7-1s-0.5-0.9-0.5-1.5c0-0.7,0.3-1.2,0.8-1.6s1.2-0.6,2-0.6c0.9,0,1.6,0.2,2.4,0.5l-0.3,0.9
		c-0.7-0.3-1.4-0.5-2.1-0.5c-0.5,0-0.9,0.1-1.2,0.3s-0.4,0.5-0.4,0.9c0,0.3,0.1,0.5,0.2,0.7s0.3,0.4,0.5,0.5s0.6,0.3,1.2,0.5
		c0.6,0.2,1.1,0.5,1.4,0.7s0.5,0.5,0.7,0.8S38.9,113.8,38.9,114.2z"/>
	<path id="XMLID_43_" class="st11" d="M44.4,116.4l-0.2-0.9h0c-0.3,0.4-0.6,0.7-1,0.8s-0.7,0.2-1.2,0.2c-0.6,0-1.1-0.2-1.5-0.5
		s-0.5-0.8-0.5-1.4c0-1.3,1-2,3.1-2.1l1.1,0v-0.4c0-0.5-0.1-0.8-0.3-1.1s-0.5-0.3-1-0.3c-0.3,0-0.7,0.1-1,0.2s-0.6,0.2-0.9,0.3
		l-0.3-0.8c0.3-0.2,0.7-0.3,1.1-0.4s0.8-0.1,1.1-0.1c0.8,0,1.4,0.2,1.7,0.5s0.6,0.9,0.6,1.6v4.4H44.4z M42.3,115.7
		c0.6,0,1.1-0.2,1.4-0.5s0.5-0.8,0.5-1.4v-0.6l-0.9,0c-0.7,0-1.3,0.1-1.6,0.4s-0.5,0.5-0.5,1c0,0.3,0.1,0.6,0.3,0.8
		S41.9,115.7,42.3,115.7z"/>
	<path id="XMLID_51_" class="st11" d="M46.2,110h1.1l1.4,3.7c0.3,0.8,0.5,1.4,0.5,1.8h0c0-0.1,0.1-0.4,0.2-0.8s0.2-0.7,0.3-1
		l1.3-3.7h1.1l-2.8,7.3c-0.3,0.7-0.6,1.2-1,1.5s-0.8,0.5-1.4,0.5c-0.3,0-0.6,0-0.9-0.1v-0.8c0.2,0,0.4,0.1,0.7,0.1
		c0.3,0,0.6-0.1,0.9-0.3s0.4-0.5,0.6-0.9l0.3-0.9L46.2,110z"/>
	<path id="XMLID_53_" class="st11" d="M57.3,116.4l-0.2-0.9h0c-0.3,0.4-0.6,0.7-1,0.8s-0.7,0.2-1.2,0.2c-0.6,0-1.1-0.2-1.5-0.5
		s-0.5-0.8-0.5-1.4c0-1.3,1-2,3.1-2.1l1.1,0v-0.4c0-0.5-0.1-0.8-0.3-1.1s-0.5-0.3-1-0.3c-0.3,0-0.7,0.1-1,0.2s-0.6,0.2-0.9,0.3
		l-0.3-0.8c0.3-0.2,0.7-0.3,1.1-0.4s0.8-0.1,1.1-0.1c0.8,0,1.4,0.2,1.7,0.5s0.6,0.9,0.6,1.6v4.4H57.3z M55.1,115.7
		c0.6,0,1.1-0.2,1.4-0.5s0.5-0.8,0.5-1.4v-0.6l-0.9,0c-0.7,0-1.3,0.1-1.6,0.4s-0.5,0.5-0.5,1c0,0.3,0.1,0.6,0.3,0.8
		S54.7,115.7,55.1,115.7z"/>
	<path id="XMLID_56_" class="st11" d="M71.3,116.4v-4.1c0-1-0.4-1.5-1.3-1.5c-0.6,0-1,0.2-1.3,0.5s-0.4,0.9-0.4,1.6v3.6h-1v-4.1
		c0-0.5-0.1-0.9-0.3-1.1s-0.5-0.4-1-0.4c-0.6,0-1,0.2-1.3,0.5s-0.4,1-0.4,1.8v3.3h-1.1V110H64l0.2,0.9h0.1c0.2-0.3,0.4-0.6,0.8-0.7
		s0.7-0.3,1.1-0.3c1,0,1.7,0.4,2,1.1h0.1c0.2-0.3,0.5-0.6,0.8-0.8s0.8-0.3,1.2-0.3c0.7,0,1.3,0.2,1.6,0.6s0.5,1,0.5,1.8v4.2H71.3z"
		/>
	<path id="XMLID_58_" class="st11" d="M77.1,116.6c-1,0-1.7-0.3-2.3-0.9s-0.8-1.4-0.8-2.4c0-1,0.3-1.9,0.8-2.5s1.2-0.9,2.1-0.9
		c0.8,0,1.5,0.3,1.9,0.8s0.7,1.2,0.7,2.1v0.6h-4.4c0,0.7,0.2,1.3,0.6,1.7s0.8,0.6,1.5,0.6c0.3,0,0.7,0,1-0.1s0.7-0.2,1.1-0.4v0.9
		c-0.4,0.2-0.7,0.3-1,0.3S77.5,116.6,77.1,116.6z M76.8,110.8c-0.5,0-0.9,0.2-1.2,0.5s-0.5,0.8-0.5,1.4h3.3c0-0.6-0.1-1.1-0.4-1.4
		S77.3,110.8,76.8,110.8z"/>
	<path id="XMLID_96_" class="st11" d="M85.5,116.4v-4.1c0-0.5-0.1-0.9-0.3-1.2s-0.6-0.4-1.1-0.4c-0.7,0-1.1,0.2-1.4,0.5
		s-0.4,1-0.4,1.8v3.3h-1.1V110H82l0.2,0.9h0.1c0.2-0.3,0.5-0.6,0.8-0.7s0.8-0.3,1.2-0.3c0.8,0,1.4,0.2,1.8,0.6s0.6,1,0.6,1.8v4.2
		H85.5z"/>
	<path id="XMLID_98_" class="st11" d="M92.9,116.4l0-0.8h0c-0.4,0.6-1.1,1-2,1c-0.8,0-1.5-0.3-1.9-0.9s-0.7-1.4-0.7-2.5
		c0-1,0.2-1.9,0.7-2.4s1.1-0.9,1.9-0.9c0.9,0,1.5,0.3,2,1h0.1l0.1-0.9h0.8v6.5c0,0.9-0.2,1.6-0.7,2.1s-1.2,0.7-2.2,0.7
		c-0.9,0-1.7-0.1-2.3-0.4v-1c0.6,0.3,1.4,0.5,2.4,0.5c0.5,0,1-0.2,1.3-0.5s0.5-0.8,0.5-1.3V116.4z M91,115.7c0.6,0,1.1-0.2,1.4-0.5
		s0.4-0.9,0.4-1.7v-0.3c0-0.9-0.1-1.5-0.4-1.9s-0.8-0.6-1.4-0.6c-0.5,0-1,0.2-1.3,0.6s-0.4,1-0.4,1.8c0,0.8,0.1,1.4,0.4,1.8
		S90.4,115.7,91,115.7z"/>
	<path id="XMLID_101_" class="st11" d="M100.3,116.4v-4.1c0-0.5-0.1-0.9-0.3-1.2s-0.6-0.4-1.1-0.4c-0.7,0-1.1,0.2-1.4,0.5
		s-0.5,1-0.5,1.8v3.3h-1.1v-9.1H97v2.7c0,0.4,0,0.7-0.1,0.9H97c0.2-0.3,0.5-0.6,0.8-0.7s0.7-0.3,1.2-0.3c0.8,0,1.4,0.2,1.8,0.6
		s0.6,1,0.6,1.8v4.2H100.3z"/>
	<path id="XMLID_103_" class="st11" d="M107.3,116.4l-0.2-0.9h0c-0.3,0.4-0.6,0.7-1,0.8s-0.7,0.2-1.2,0.2c-0.6,0-1.1-0.2-1.5-0.5
		s-0.5-0.8-0.5-1.4c0-1.3,1-2,3.1-2.1l1.1,0v-0.4c0-0.5-0.1-0.8-0.3-1.1s-0.5-0.3-1-0.3c-0.3,0-0.7,0.1-1,0.2s-0.6,0.2-0.9,0.3
		l-0.3-0.8c0.3-0.2,0.7-0.3,1.1-0.4s0.8-0.1,1.1-0.1c0.8,0,1.4,0.2,1.7,0.5s0.6,0.9,0.6,1.6v4.4H107.3z M105.2,115.7
		c0.6,0,1.1-0.2,1.4-0.5s0.5-0.8,0.5-1.4v-0.6l-0.9,0c-0.7,0-1.3,0.1-1.6,0.4s-0.5,0.5-0.5,1c0,0.3,0.1,0.6,0.3,0.8
		S104.8,115.7,105.2,115.7z"/>
	<path id="XMLID_106_" class="st11" d="M113.1,109.9c0.3,0,0.5,0,0.8,0.1l-0.1,1c-0.2-0.1-0.5-0.1-0.7-0.1c-0.3,0-0.7,0.1-0.9,0.3
		s-0.5,0.4-0.7,0.8s-0.2,0.7-0.2,1.1v3.4h-1.1V110h0.9l0.1,1.2h0c0.2-0.4,0.5-0.7,0.9-1S112.7,109.9,113.1,109.9z"/>
	<path id="XMLID_108_" class="st11" d="M119.3,116.4l0-0.8h0c-0.4,0.6-1.1,1-2,1c-0.8,0-1.5-0.3-1.9-0.9s-0.7-1.4-0.7-2.5
		c0-1,0.2-1.9,0.7-2.4s1.1-0.9,1.9-0.9c0.9,0,1.5,0.3,2,1h0.1l0.1-0.9h0.8v6.5c0,0.9-0.2,1.6-0.7,2.1s-1.2,0.7-2.2,0.7
		c-0.9,0-1.7-0.1-2.3-0.4v-1c0.6,0.3,1.4,0.5,2.4,0.5c0.5,0,1-0.2,1.3-0.5s0.5-0.8,0.5-1.3V116.4z M117.4,115.7
		c0.6,0,1.1-0.2,1.4-0.5s0.4-0.9,0.4-1.7v-0.3c0-0.9-0.1-1.5-0.4-1.9s-0.8-0.6-1.4-0.6c-0.5,0-1,0.2-1.3,0.6s-0.4,1-0.4,1.8
		c0,0.8,0.1,1.4,0.4,1.8S116.9,115.7,117.4,115.7z"/>
	<path id="XMLID_111_" class="st11" d="M126.3,116.4l-0.2-0.9h0c-0.3,0.4-0.6,0.7-1,0.8s-0.7,0.2-1.2,0.2c-0.6,0-1.1-0.2-1.5-0.5
		s-0.5-0.8-0.5-1.4c0-1.3,1-2,3.1-2.1l1.1,0v-0.4c0-0.5-0.1-0.8-0.3-1.1s-0.5-0.3-1-0.3c-0.3,0-0.7,0.1-1,0.2s-0.6,0.2-0.9,0.3
		l-0.3-0.8c0.3-0.2,0.7-0.3,1.1-0.4s0.8-0.1,1.1-0.1c0.8,0,1.4,0.2,1.7,0.5s0.6,0.9,0.6,1.6v4.4H126.3z M124.2,115.7
		c0.6,0,1.1-0.2,1.4-0.5s0.5-0.8,0.5-1.4v-0.6l-0.9,0c-0.7,0-1.3,0.1-1.6,0.4s-0.5,0.5-0.5,1c0,0.3,0.1,0.6,0.3,0.8
		S123.8,115.7,124.2,115.7z"/>
	<path id="XMLID_114_" class="st11" d="M129,108.3c0-0.2,0.1-0.4,0.2-0.5s0.3-0.2,0.4-0.2c0.2,0,0.3,0.1,0.4,0.2s0.2,0.3,0.2,0.5
		c0,0.2-0.1,0.4-0.2,0.5s-0.3,0.2-0.4,0.2c-0.2,0-0.3-0.1-0.4-0.2S129,108.5,129,108.3z M130.2,116.4h-1.1V110h1.1V116.4z"/>
	<path id="XMLID_117_" class="st11" d="M38.1,129.1c0,0.6-0.2,1.1-0.7,1.4s-1.1,0.5-1.9,0.5c-0.8,0-1.5-0.1-2-0.4v-1
		c0.7,0.3,1.4,0.5,2,0.5c0.5,0,0.9-0.1,1.2-0.3s0.4-0.4,0.4-0.7c0-0.3-0.1-0.5-0.3-0.6s-0.6-0.4-1.2-0.6c-0.6-0.2-1-0.4-1.3-0.6
		s-0.4-0.4-0.5-0.6s-0.2-0.5-0.2-0.8c0-0.5,0.2-0.9,0.6-1.2s1-0.5,1.8-0.5c0.7,0,1.4,0.1,2.1,0.4l-0.4,0.8c-0.7-0.3-1.2-0.4-1.8-0.4
		c-0.4,0-0.8,0.1-1,0.2s-0.3,0.3-0.3,0.6c0,0.2,0.1,0.4,0.3,0.6s0.7,0.4,1.4,0.6c0.5,0.2,0.9,0.4,1.2,0.6s0.4,0.4,0.6,0.6
		S38.1,128.8,38.1,129.1z"/>
	<path id="XMLID_119_" class="st11" d="M42.4,131c-1,0-1.7-0.3-2.3-0.9s-0.8-1.4-0.8-2.4c0-1,0.3-1.9,0.8-2.5s1.2-0.9,2.1-0.9
		c0.8,0,1.5,0.3,1.9,0.8s0.7,1.2,0.7,2.1v0.6h-4.4c0,0.7,0.2,1.3,0.6,1.7s0.8,0.6,1.5,0.6c0.3,0,0.7,0,1-0.1s0.7-0.2,1.1-0.4v0.9
		c-0.4,0.2-0.7,0.3-1,0.3S42.8,131,42.4,131z M42.1,125.2c-0.5,0-0.9,0.2-1.2,0.5s-0.5,0.8-0.5,1.4h3.3c0-0.6-0.1-1.1-0.4-1.4
		S42.6,125.2,42.1,125.2z"/>
	<path id="XMLID_162_" class="st11" d="M50.7,130.8l0-0.8h0c-0.4,0.6-1.1,1-2,1c-0.8,0-1.5-0.3-1.9-0.9s-0.7-1.4-0.7-2.5
		c0-1,0.2-1.9,0.7-2.4s1.1-0.9,1.9-0.9c0.9,0,1.5,0.3,2,1h0.1l0.1-0.9h0.8v6.5c0,0.9-0.2,1.6-0.7,2.1s-1.2,0.7-2.2,0.7
		c-0.9,0-1.7-0.1-2.3-0.4v-1c0.6,0.3,1.4,0.5,2.4,0.5c0.5,0,1-0.2,1.3-0.5s0.5-0.8,0.5-1.3V130.8z M48.8,130.1
		c0.6,0,1.1-0.2,1.4-0.5s0.4-0.9,0.4-1.7v-0.3c0-0.9-0.1-1.5-0.4-1.9s-0.8-0.6-1.4-0.6c-0.5,0-1,0.2-1.3,0.6s-0.4,1-0.4,1.8
		c0,0.8,0.1,1.4,0.4,1.8S48.3,130.1,48.8,130.1z"/>
	<path id="XMLID_165_" class="st11" d="M57.7,130.8l-0.2-0.9h0c-0.3,0.4-0.6,0.7-1,0.8s-0.7,0.2-1.2,0.2c-0.6,0-1.1-0.2-1.5-0.5
		s-0.5-0.8-0.5-1.4c0-1.3,1-2,3.1-2.1l1.1,0v-0.4c0-0.5-0.1-0.8-0.3-1.1s-0.5-0.3-1-0.3c-0.3,0-0.7,0.1-1,0.2s-0.6,0.2-0.9,0.3
		l-0.3-0.8c0.3-0.2,0.7-0.3,1.1-0.4s0.8-0.1,1.1-0.1c0.8,0,1.4,0.2,1.7,0.5s0.6,0.9,0.6,1.6v4.4H57.7z M55.6,130.1
		c0.6,0,1.1-0.2,1.4-0.5s0.5-0.8,0.5-1.4v-0.6l-0.9,0c-0.7,0-1.3,0.1-1.6,0.4s-0.5,0.5-0.5,1c0,0.3,0.1,0.6,0.3,0.8
		S55.2,130.1,55.6,130.1z"/>
	<path id="XMLID_169_" class="st11" d="M61.6,130.8h-1.1v-9.1h1.1V130.8z"/>
	<path id="XMLID_171_" class="st11" d="M67.6,130.8l-0.2-0.9h0c-0.3,0.4-0.6,0.7-1,0.8s-0.7,0.2-1.2,0.2c-0.6,0-1.1-0.2-1.5-0.5
		c-0.4-0.3-0.5-0.8-0.5-1.4c0-1.3,1-2,3.1-2.1l1.1,0v-0.4c0-0.5-0.1-0.8-0.3-1.1s-0.5-0.3-1-0.3c-0.3,0-0.7,0.1-1,0.2
		s-0.6,0.2-0.9,0.3l-0.3-0.8c0.3-0.2,0.7-0.3,1.1-0.4s0.8-0.1,1.1-0.1c0.8,0,1.4,0.2,1.7,0.5s0.6,0.9,0.6,1.6v4.4H67.6z M65.4,130.1
		c0.6,0,1.1-0.2,1.4-0.5s0.5-0.8,0.5-1.4v-0.6l-0.9,0c-0.7,0-1.3,0.1-1.6,0.4s-0.5,0.5-0.5,1c0,0.3,0.1,0.6,0.3,0.8
		S65,130.1,65.4,130.1z"/>
	<path id="XMLID_209_" class="st11" d="M78.7,130.8l-1.1-3.6c-0.1-0.3-0.3-0.9-0.4-1.7h0c-0.2,0.8-0.3,1.3-0.4,1.7l-1.2,3.6h-1.2
		l-1.8-6.4h1.1c0.4,1.6,0.7,2.8,0.9,3.6s0.3,1.4,0.4,1.7h0l0.1-0.4c0.1-0.6,0.2-1,0.4-1.4l1.1-3.6h1.1l1.1,3.6
		c0,0.1,0.1,0.3,0.1,0.4s0.1,0.3,0.1,0.5s0.1,0.3,0.1,0.4s0.1,0.3,0.1,0.4h0.1c0-0.3,0.2-0.9,0.4-1.9l0.9-3.4h1.1l-1.8,6.4H78.7z"/>
	<path id="XMLID_224_" class="st11" d="M86.8,130.8l-0.2-0.9h0c-0.3,0.4-0.6,0.7-1,0.8s-0.7,0.2-1.2,0.2c-0.6,0-1.1-0.2-1.5-0.5
		s-0.5-0.8-0.5-1.4c0-1.3,1-2,3.1-2.1l1.1,0v-0.4c0-0.5-0.1-0.8-0.3-1.1s-0.5-0.3-1-0.3c-0.3,0-0.7,0.1-1,0.2s-0.6,0.2-0.9,0.3
		l-0.3-0.8c0.3-0.2,0.7-0.3,1.1-0.4s0.8-0.1,1.1-0.1c0.8,0,1.4,0.2,1.7,0.5s0.6,0.9,0.6,1.6v4.4H86.8z M84.7,130.1
		c0.6,0,1.1-0.2,1.4-0.5s0.5-0.8,0.5-1.4v-0.6l-0.9,0c-0.7,0-1.3,0.1-1.6,0.4s-0.5,0.5-0.5,1c0,0.3,0.1,0.6,0.3,0.8
		S84.3,130.1,84.7,130.1z"/>
	<path id="XMLID_227_" class="st11" d="M90.7,127.5l0.4-0.5l0.4-0.5l2.1-2.2h1.2l-2.6,2.7l2.8,3.7h-1.3l-2.2-3l-0.7,0.6v2.4h-1v-9.1
		h1v4.8V127.5L90.7,127.5z"/>
	<path id="XMLID_229_" class="st11" d="M98.2,130.1c0.1,0,0.3,0,0.5,0s0.3-0.1,0.4-0.1v0.8c-0.1,0-0.2,0.1-0.5,0.1S98.2,131,98,131
		c-1.3,0-1.9-0.7-1.9-2v-3.7h-0.9v-0.5l0.9-0.4l0.4-1.4h0.6v1.5H99v0.8h-1.9v3.7c0,0.4,0.1,0.7,0.3,0.9S97.9,130.1,98.2,130.1z"/>
	<path id="XMLID_240_" class="st11" d="M101.3,124.4v4.1c0,0.5,0.1,0.9,0.3,1.2s0.6,0.4,1.1,0.4c0.7,0,1.1-0.2,1.4-0.6
		s0.5-1,0.5-1.8v-3.4h1.1v6.4h-0.9l-0.2-0.8h-0.1c-0.2,0.3-0.5,0.5-0.8,0.7s-0.8,0.3-1.2,0.3c-0.8,0-1.4-0.2-1.7-0.6s-0.6-1-0.6-1.8
		v-4.2H101.3z"/>
	<path id="XMLID_242_" class="st11" d="M32.9,138.8H34l1.4,3.7c0.3,0.8,0.5,1.4,0.5,1.8h0c0-0.1,0.1-0.4,0.2-0.8s0.2-0.7,0.3-1
		l1.3-3.7H39l-2.8,7.3c-0.3,0.7-0.6,1.2-1,1.5s-0.8,0.5-1.4,0.5c-0.3,0-0.6,0-0.9-0.1v-0.8c0.2,0,0.4,0.1,0.7,0.1
		c0.3,0,0.6-0.1,0.9-0.3s0.4-0.5,0.6-0.9l0.3-0.9L32.9,138.8z"/>
	<path id="XMLID_244_" class="st11" d="M44,145.2l-0.2-0.9h0c-0.3,0.4-0.6,0.7-1,0.8s-0.7,0.2-1.2,0.2c-0.6,0-1.1-0.2-1.5-0.5
		s-0.5-0.8-0.5-1.4c0-1.3,1-2,3.1-2.1l1.1,0V141c0-0.5-0.1-0.8-0.3-1.1s-0.5-0.3-1-0.3c-0.3,0-0.7,0.1-1,0.2s-0.6,0.2-0.9,0.3
		l-0.3-0.8c0.3-0.2,0.7-0.3,1.1-0.4s0.8-0.1,1.1-0.1c0.8,0,1.4,0.2,1.7,0.5s0.6,0.9,0.6,1.6v4.4H44z M41.8,144.5
		c0.6,0,1.1-0.2,1.4-0.5s0.5-0.8,0.5-1.4v-0.6l-0.9,0c-0.7,0-1.3,0.1-1.6,0.4s-0.5,0.5-0.5,1c0,0.3,0.1,0.6,0.3,0.8
		S41.4,144.5,41.8,144.5z"/>
	<path id="XMLID_247_" class="st11" d="M51.1,145.2v-4.1c0-0.5-0.1-0.9-0.3-1.2s-0.6-0.4-1.1-0.4c-0.7,0-1.1,0.2-1.4,0.5
		s-0.4,1-0.4,1.8v3.3h-1.1v-6.4h0.8l0.2,0.9h0.1c0.2-0.3,0.5-0.6,0.8-0.7s0.8-0.3,1.2-0.3c0.8,0,1.4,0.2,1.8,0.6s0.6,1,0.6,1.8v4.2
		H51.1z"/>
	<path id="XMLID_249_" class="st11" d="M58.4,145.2l0-0.8h0c-0.4,0.6-1.1,1-2,1c-0.8,0-1.5-0.3-1.9-0.9s-0.7-1.4-0.7-2.5
		c0-1,0.2-1.9,0.7-2.4s1.1-0.9,1.9-0.9c0.9,0,1.5,0.3,2,1h0.1l0.1-0.9h0.8v6.5c0,0.9-0.2,1.6-0.7,2.1s-1.2,0.7-2.2,0.7
		c-0.9,0-1.7-0.1-2.3-0.4v-1c0.6,0.3,1.4,0.5,2.4,0.5c0.5,0,1-0.2,1.3-0.5s0.5-0.8,0.5-1.3V145.2z M56.6,144.5
		c0.6,0,1.1-0.2,1.4-0.5s0.4-0.9,0.4-1.7V142c0-0.9-0.1-1.5-0.4-1.9s-0.8-0.6-1.4-0.6c-0.5,0-1,0.2-1.3,0.6s-0.4,1-0.4,1.8
		c0,0.8,0.1,1.4,0.4,1.8S56,144.5,56.6,144.5z"/>
	<path id="XMLID_252_" class="st11" d="M68.8,143.5c0,0.6-0.2,1.1-0.7,1.4s-1.1,0.5-1.9,0.5c-0.8,0-1.5-0.1-2-0.4v-1
		c0.7,0.3,1.4,0.5,2,0.5c0.5,0,0.9-0.1,1.2-0.3s0.4-0.4,0.4-0.7c0-0.3-0.1-0.5-0.3-0.6s-0.6-0.4-1.2-0.6c-0.6-0.2-1-0.4-1.3-0.6
		s-0.4-0.4-0.5-0.6s-0.2-0.5-0.2-0.8c0-0.5,0.2-0.9,0.6-1.2s1-0.5,1.8-0.5c0.7,0,1.4,0.1,2.1,0.4l-0.4,0.8c-0.7-0.3-1.2-0.4-1.8-0.4
		c-0.4,0-0.8,0.1-1,0.2s-0.3,0.3-0.3,0.6c0,0.2,0.1,0.4,0.3,0.6s0.7,0.4,1.4,0.6c0.5,0.2,0.9,0.4,1.2,0.6s0.4,0.4,0.6,0.6
		S68.8,143.2,68.8,143.5z"/>
	<path id="XMLID_254_" class="st11" d="M71.4,138.8v4.1c0,0.5,0.1,0.9,0.3,1.2s0.6,0.4,1.1,0.4c0.7,0,1.1-0.2,1.4-0.6s0.5-1,0.5-1.8
		v-3.4h1.1v6.4h-0.9l-0.2-0.8h-0.1c-0.2,0.3-0.5,0.5-0.8,0.7s-0.8,0.3-1.2,0.3c-0.8,0-1.4-0.2-1.7-0.6s-0.6-1-0.6-1.8v-4.2H71.4z"/>
	<path id="XMLID_256_" class="st11" d="M80.1,145.4c-0.8,0-1.5-0.3-1.9-0.9s-0.7-1.4-0.7-2.5c0-1.1,0.2-1.9,0.7-2.5s1.1-0.9,2-0.9
		c0.9,0,1.5,0.3,2,0.9h0.1c0-0.1,0-0.2,0-0.5s0-0.4,0-0.5v-2.6h1.1v9.1h-0.8l-0.2-0.9h0C81.6,145,81,145.4,80.1,145.4z M80.3,144.5
		c0.6,0,1.1-0.2,1.4-0.5s0.4-0.9,0.4-1.7v-0.2c0-0.9-0.1-1.5-0.4-1.9s-0.8-0.6-1.4-0.6c-0.5,0-1,0.2-1.3,0.6s-0.4,1-0.4,1.8
		c0,0.8,0.1,1.4,0.4,1.8S79.7,144.5,80.3,144.5z"/>
	<path id="XMLID_259_" class="st11" d="M89.2,145.2l-0.2-0.9h0c-0.3,0.4-0.6,0.7-1,0.8s-0.7,0.2-1.2,0.2c-0.6,0-1.1-0.2-1.5-0.5
		s-0.5-0.8-0.5-1.4c0-1.3,1-2,3.1-2.1l1.1,0V141c0-0.5-0.1-0.8-0.3-1.1s-0.5-0.3-1-0.3c-0.3,0-0.7,0.1-1,0.2s-0.6,0.2-0.9,0.3
		l-0.3-0.8c0.3-0.2,0.7-0.3,1.1-0.4s0.8-0.1,1.1-0.1c0.8,0,1.4,0.2,1.7,0.5s0.6,0.9,0.6,1.6v4.4H89.2z M87,144.5
		c0.6,0,1.1-0.2,1.4-0.5s0.5-0.8,0.5-1.4v-0.6l-0.9,0c-0.7,0-1.3,0.1-1.6,0.4s-0.5,0.5-0.5,1c0,0.3,0.1,0.6,0.3,0.8
		S86.6,144.5,87,144.5z"/>
	<path id="XMLID_262_" class="st11" d="M96.3,145.2v-4.1c0-0.5-0.1-0.9-0.3-1.2s-0.6-0.4-1.1-0.4c-0.7,0-1.1,0.2-1.4,0.5
		s-0.5,1-0.5,1.8v3.3h-1.1v-9.1H93v2.7c0,0.4,0,0.7-0.1,0.9H93c0.2-0.3,0.5-0.6,0.8-0.7s0.7-0.3,1.2-0.3c0.8,0,1.4,0.2,1.8,0.6
		s0.6,1,0.6,1.8v4.2H96.3z"/>
	<path id="XMLID_265_" class="st11" d="M103.5,141.9l0.4-0.5l0.4-0.5l2.1-2.2h1.2l-2.6,2.7l2.8,3.7h-1.3l-2.2-3l-0.7,0.6v2.4h-1
		v-9.1h1v4.8V141.9L103.5,141.9z"/>
	<path id="XMLID_268_" class="st11" d="M108.8,137.1c0-0.2,0.1-0.4,0.2-0.5s0.3-0.2,0.4-0.2c0.2,0,0.3,0.1,0.4,0.2s0.2,0.3,0.2,0.5
		c0,0.2-0.1,0.4-0.2,0.5s-0.3,0.2-0.4,0.2c-0.2,0-0.3-0.1-0.4-0.2S108.8,137.3,108.8,137.1z M109.9,145.2h-1.1v-6.4h1.1V145.2z"/>
	<path id="XMLID_271_" class="st11" d="M114.1,144.5c0.1,0,0.3,0,0.5,0s0.3-0.1,0.4-0.1v0.8c-0.1,0-0.2,0.1-0.5,0.1
		s-0.4,0.1-0.6,0.1c-1.3,0-1.9-0.7-1.9-2v-3.7h-0.9v-0.5l0.9-0.4l0.4-1.4h0.6v1.5h1.9v0.8h-1.9v3.7c0,0.4,0.1,0.7,0.3,0.9
		S113.8,144.5,114.1,144.5z"/>
	<path id="XMLID_273_" class="st11" d="M120.3,145.2l-0.2-0.9h0c-0.3,0.4-0.6,0.7-1,0.8s-0.7,0.2-1.2,0.2c-0.6,0-1.1-0.2-1.5-0.5
		s-0.5-0.8-0.5-1.4c0-1.3,1-2,3.1-2.1l1.1,0V141c0-0.5-0.1-0.8-0.3-1.1s-0.5-0.3-1-0.3c-0.3,0-0.7,0.1-1,0.2s-0.6,0.2-0.9,0.3
		l-0.3-0.8c0.3-0.2,0.7-0.3,1.1-0.4s0.8-0.1,1.1-0.1c0.8,0,1.4,0.2,1.7,0.5s0.6,0.9,0.6,1.6v4.4H120.3z M118.1,144.5
		c0.6,0,1.1-0.2,1.4-0.5s0.5-0.8,0.5-1.4v-0.6l-0.9,0c-0.7,0-1.3,0.1-1.6,0.4s-0.5,0.5-0.5,1c0,0.3,0.1,0.6,0.3,0.8
		S117.7,144.5,118.1,144.5z"/>
	<path id="XMLID_276_" class="st11" d="M33.1,162.5c-0.4,0-0.7,0-0.9-0.1v-0.8c0.3,0.1,0.5,0.1,0.8,0.1c0.3,0,0.5-0.1,0.7-0.2
		s0.2-0.4,0.2-0.8v-7.4h1.1v7.4c0,0.6-0.2,1.1-0.5,1.4S33.7,162.5,33.1,162.5z M33.8,151.5c0-0.2,0.1-0.4,0.2-0.5s0.3-0.2,0.4-0.2
		c0.2,0,0.3,0.1,0.4,0.2s0.2,0.3,0.2,0.5c0,0.2-0.1,0.4-0.2,0.5s-0.3,0.2-0.4,0.2c-0.2,0-0.3-0.1-0.4-0.2S33.8,151.7,33.8,151.5z"/>
	<path id="XMLID_279_" class="st11" d="M40.9,159.6l-0.2-0.9h0c-0.3,0.4-0.6,0.7-1,0.8s-0.7,0.2-1.2,0.2c-0.6,0-1.1-0.2-1.5-0.5
		s-0.5-0.8-0.5-1.4c0-1.3,1-2,3.1-2.1l1.1,0v-0.4c0-0.5-0.1-0.8-0.3-1.1s-0.5-0.3-1-0.3c-0.3,0-0.7,0.1-1,0.2s-0.6,0.2-0.9,0.3
		l-0.3-0.8c0.3-0.2,0.7-0.3,1.1-0.4s0.8-0.1,1.1-0.1c0.8,0,1.4,0.2,1.7,0.5s0.6,0.9,0.6,1.6v4.4H40.9z M38.8,158.9
		c0.6,0,1.1-0.2,1.4-0.5s0.5-0.8,0.5-1.4v-0.6l-0.9,0c-0.7,0-1.3,0.1-1.6,0.4s-0.5,0.5-0.5,1c0,0.3,0.1,0.6,0.3,0.8
		S38.4,158.9,38.8,158.9z"/>
	<path id="XMLID_282_" class="st11" d="M44.7,159.6h-1.1v-9.1h1.1V159.6z"/>
	<path id="XMLID_284_" class="st11" d="M50.8,159.6l-0.2-0.9h0c-0.3,0.4-0.6,0.7-1,0.8s-0.7,0.2-1.2,0.2c-0.6,0-1.1-0.2-1.5-0.5
		s-0.5-0.8-0.5-1.4c0-1.3,1-2,3.1-2.1l1.1,0v-0.4c0-0.5-0.1-0.8-0.3-1.1s-0.5-0.3-1-0.3c-0.3,0-0.7,0.1-1,0.2s-0.6,0.2-0.9,0.3
		l-0.3-0.8c0.3-0.2,0.7-0.3,1.1-0.4s0.8-0.1,1.1-0.1c0.8,0,1.4,0.2,1.7,0.5s0.6,0.9,0.6,1.6v4.4H50.8z M48.6,158.9
		c0.6,0,1.1-0.2,1.4-0.5s0.5-0.8,0.5-1.4v-0.6l-0.9,0c-0.7,0-1.3,0.1-1.6,0.4s-0.5,0.5-0.5,1c0,0.3,0.1,0.6,0.3,0.8
		S48.2,158.9,48.6,158.9z"/>
	<path id="XMLID_287_" class="st11" d="M57.9,159.6v-4.1c0-0.5-0.1-0.9-0.3-1.2S57,154,56.5,154c-0.7,0-1.1,0.2-1.4,0.5
		s-0.4,1-0.4,1.8v3.3h-1.1v-6.4h0.8l0.2,0.9h0.1c0.2-0.3,0.5-0.6,0.8-0.7s0.8-0.3,1.2-0.3c0.8,0,1.4,0.2,1.8,0.6s0.6,1,0.6,1.8v4.2
		H57.9z"/>
	<path id="XMLID_289_" class="st11" d="M60.9,151.5c0-0.2,0.1-0.4,0.2-0.5s0.3-0.2,0.4-0.2c0.2,0,0.3,0.1,0.4,0.2s0.2,0.3,0.2,0.5
		c0,0.2-0.1,0.4-0.2,0.5s-0.3,0.2-0.4,0.2c-0.2,0-0.3-0.1-0.4-0.2S60.9,151.7,60.9,151.5z M62,159.6h-1.1v-6.4H62V159.6z"/>
</g>
</svg>
