<?xml version="1.0" encoding="utf-8"?>
<!-- Generator: Adobe Illustrator 19.0.0, SVG Export Plug-In . SVG Version: 6.00 Build 0)  -->
<svg version="1.1" id="Layer_1" xmlns="http://www.w3.org/2000/svg" xmlns:xlink="http://www.w3.org/1999/xlink" x="0px" y="0px"
	 viewBox="0 0 165.6 167.3" style="enable-background:new 0 0 165.6 167.3;" xml:space="preserve">
<style type="text/css">
	.st0{fill:#EAA43F;}
	.st1{fill:#FFFFFF;}
	.st2{fill:#12474D;}
	.st3{fill:#C9C9C5;}
	.st4{fill:#E5E5E3;}
	.st5{fill:#A01C33;}
	.st6{fill:#EADA72;}
	.st7{fill:#CD202B;}
	.st8{fill:#414141;}
	.st9{fill:#404040;}
</style>
<rect id="XMLID_1442_" x="16.8" y="0" class="st0" width="148.8" height="167"/>
<polygon id="XMLID_1441_" class="st1" points="19.6,167.3 19.2,148.1 0,167.3 "/>
<rect id="XMLID_1440_" x="16.8" y="83.2" class="st1" width="148.8" height="84.1"/>
<g id="XMLID_1167_">
	<circle id="XMLID_3910_" class="st2" cx="91.2" cy="41.3" r="33.1"/>
	<path id="XMLID_3911_" class="st3" d="M117.6,41.8c0,14.6-11.8,26.4-26.4,26.4c-12.2,0-22.5-8.3-25.5-19.5
		c-0.6-2.2-0.9-4.5-0.9-6.9c0-14.6,11.8-26.4,26.4-26.4c14.3,0,26,11.4,26.4,25.7C117.6,41.3,117.6,41.5,117.6,41.8z"/>
	<path id="XMLID_3912_" class="st4" d="M117.6,41.8c0,14.6-11.8,26.4-26.4,26.4c-12.2,0-22.5-8.3-25.5-19.5c0-0.2,0-0.5,0-0.7
		c0-14.6,11.8-26.4,26.4-26.4c12.2,0,22.4,8.3,25.5,19.5C117.6,41.3,117.6,41.5,117.6,41.8z"/>
	<polygon id="XMLID_3928_" class="st5" points="87.7,41.3 92.1,16.6 96.4,41.3 	"/>
	<polygon id="XMLID_1190_" class="st6" points="96.5,41.3 92.1,66.1 87.8,41.3 	"/>
	<circle id="XMLID_3929_" class="st5" cx="92" cy="41.6" r="2.3"/>
</g>
<g id="XMLID_3930_">
	<circle id="XMLID_3931_" class="st7" cx="28.6" cy="98.1" r="4"/>
	<path id="XMLID_3932_" class="st7" d="M24.5,98.1h8.1v10.1C32.6,108.1,24.5,103.2,24.5,98.1z"/>
	<circle id="XMLID_1185_" class="st7" cx="36.6" cy="97.9" r="4"/>
	<path id="XMLID_1184_" class="st7" d="M40.6,97.9h-8.1V108C32.6,108,40.6,103,40.6,97.9z"/>
</g>
<g id="XMLID_121_">
	<g id="XMLID_1177_">
		<path id="XMLID_1274_" class="st8" d="M54.7,104.8h-2.4l-2.6-4.2l-0.9,0.6v3.6h-2.1v-10h2.1v4.6l0.8-1.2l2.7-3.4h2.4l-3.5,4.4
			L54.7,104.8z"/>
		<path id="XMLID_1271_" class="st8" d="M62.8,100.9c0,1.2-0.3,2.2-1,2.9c-0.7,0.7-1.6,1.1-2.7,1.1c-0.7,0-1.4-0.2-1.9-0.5
			s-1-0.8-1.3-1.4s-0.5-1.3-0.5-2.1c0-1.2,0.3-2.2,1-2.9c0.7-0.7,1.6-1,2.7-1c0.7,0,1.4,0.2,1.9,0.5c0.6,0.3,1,0.8,1.3,1.4
			C62.6,99.4,62.8,100.1,62.8,100.9z M57.5,100.9c0,0.8,0.1,1.3,0.4,1.7c0.2,0.4,0.7,0.6,1.2,0.6c0.6,0,1-0.2,1.2-0.6
			c0.2-0.4,0.4-1,0.4-1.7c0-0.8-0.1-1.3-0.4-1.7c-0.2-0.4-0.6-0.6-1.2-0.6c-0.6,0-1,0.2-1.2,0.6S57.5,100.2,57.5,100.9z"/>
		<path id="XMLID_1269_" class="st8" d="M71.4,104.8h-2.1v-4.5c0-0.6-0.1-1-0.3-1.2c-0.2-0.3-0.5-0.4-0.9-0.4
			c-0.5,0-0.9,0.2-1.2,0.6c-0.2,0.4-0.4,1-0.4,1.9v3.6h-2.1v-7.6h1.6l0.3,1h0.1c0.2-0.4,0.5-0.6,0.9-0.8c0.4-0.2,0.8-0.3,1.3-0.3
			c1.1,0,1.9,0.4,2.3,1.1h0.2c0.2-0.4,0.5-0.6,0.9-0.8c0.4-0.2,0.8-0.3,1.4-0.3c0.9,0,1.5,0.2,2,0.7s0.7,1.2,0.7,2.1v5H74v-4.5
			c0-0.6-0.1-1-0.3-1.2c-0.2-0.3-0.5-0.4-0.9-0.4c-0.5,0-0.9,0.2-1.1,0.5c-0.3,0.4-0.4,0.9-0.4,1.7V104.8z"/>
		<path id="XMLID_1266_" class="st8" d="M82.5,104.9c-0.9,0-1.6-0.3-2.1-1h-0.1c0.1,0.6,0.1,1,0.1,1.1v3.1h-2.1v-11H80l0.3,1h0.1
			c0.5-0.8,1.2-1.1,2.2-1.1c0.9,0,1.6,0.3,2.1,1c0.5,0.7,0.8,1.7,0.8,2.9c0,0.8-0.1,1.5-0.4,2.1s-0.6,1.1-1,1.4
			C83.6,104.7,83.1,104.9,82.5,104.9z M81.8,98.6c-0.5,0-0.9,0.2-1.1,0.5c-0.2,0.3-0.4,0.8-0.4,1.6v0.2c0,0.8,0.1,1.4,0.4,1.8
			s0.6,0.5,1.2,0.5c0.9,0,1.4-0.8,1.4-2.3c0-0.8-0.1-1.3-0.3-1.7S82.3,98.6,81.8,98.6z"/>
		<path id="XMLID_1263_" class="st8" d="M92,104.8l-0.4-1h-0.1c-0.4,0.4-0.7,0.7-1.1,0.9s-0.9,0.3-1.5,0.3c-0.7,0-1.3-0.2-1.7-0.6
			c-0.4-0.4-0.6-1-0.6-1.8c0-0.8,0.3-1.4,0.9-1.8c0.6-0.4,1.4-0.6,2.6-0.6l1.3,0v-0.3c0-0.8-0.4-1.2-1.2-1.2c-0.6,0-1.3,0.2-2.2,0.6
			l-0.7-1.4c0.9-0.5,1.9-0.7,2.9-0.7c1,0,1.8,0.2,2.4,0.7c0.5,0.4,0.8,1.1,0.8,2v5.1H92z M91.4,101.2l-0.8,0c-0.6,0-1.1,0.1-1.4,0.3
			c-0.3,0.2-0.4,0.5-0.4,0.9c0,0.6,0.3,0.9,1,0.9c0.5,0,0.9-0.1,1.2-0.4c0.3-0.3,0.4-0.6,0.4-1.1V101.2z"/>
		<path id="XMLID_1261_" class="st8" d="M100.9,102.5c0,0.8-0.3,1.4-0.8,1.8s-1.4,0.6-2.4,0.6c-0.6,0-1,0-1.4-0.1
			c-0.4-0.1-0.8-0.2-1.1-0.3v-1.7c0.4,0.2,0.8,0.3,1.3,0.5s0.9,0.2,1.3,0.2c0.8,0,1.1-0.2,1.1-0.7c0-0.2-0.1-0.3-0.2-0.4
			c-0.1-0.1-0.3-0.2-0.5-0.3s-0.6-0.3-1-0.5c-0.6-0.2-1-0.5-1.3-0.7c-0.3-0.2-0.5-0.5-0.6-0.7c-0.1-0.3-0.2-0.6-0.2-1
			c0-0.7,0.3-1.2,0.8-1.6c0.5-0.4,1.3-0.6,2.2-0.6c0.9,0,1.8,0.2,2.7,0.6l-0.6,1.5c-0.4-0.2-0.7-0.3-1.1-0.4c-0.3-0.1-0.7-0.2-1-0.2
			c-0.6,0-0.9,0.2-0.9,0.5c0,0.2,0.1,0.3,0.3,0.5s0.6,0.3,1.3,0.6c0.6,0.2,1,0.5,1.3,0.7c0.3,0.2,0.5,0.5,0.6,0.7
			C100.8,101.8,100.9,102.1,100.9,102.5z"/>
		<path id="XMLID_1259_" class="st9" d="M54,121.3h-1.5l-3.5-4.7l-1,0.9v3.8h-1.2v-9.8H48v4.8l0.8-0.9l3.5-3.9h1.4l-3.9,4.3
			L54,121.3z"/>
		<path id="XMLID_1256_" class="st9" d="M59.7,121.3l-0.2-1h-0.1c-0.4,0.5-0.7,0.8-1.1,0.9c-0.4,0.2-0.8,0.2-1.4,0.2
			c-0.7,0-1.3-0.2-1.7-0.6c-0.4-0.4-0.6-0.9-0.6-1.6c0-1.5,1.2-2.3,3.5-2.4l1.3,0v-0.4c0-0.6-0.1-1-0.4-1.2
			c-0.2-0.3-0.6-0.4-1.2-0.4c-0.4,0-0.8,0.1-1.1,0.2c-0.3,0.1-0.7,0.2-1,0.4l-0.4-0.9c0.4-0.2,0.8-0.4,1.2-0.5
			c0.4-0.1,0.9-0.2,1.3-0.2c0.9,0,1.6,0.2,2,0.6c0.4,0.4,0.7,1,0.7,1.9v5H59.7z M57.2,120.4c0.7,0,1.2-0.2,1.6-0.5s0.6-0.9,0.6-1.6
			v-0.7l-1.1,0c-0.8,0-1.5,0.2-1.9,0.4c-0.4,0.2-0.6,0.6-0.6,1.1c0,0.4,0.1,0.7,0.4,0.9C56.5,120.3,56.8,120.4,57.2,120.4z"/>
		<path id="XMLID_1254_" class="st9" d="M72.3,121.3v-4.8c0-1.2-0.5-1.7-1.5-1.7c-0.7,0-1.2,0.2-1.5,0.6c-0.3,0.4-0.5,1-0.5,1.8v4.1
			h-1.2v-4.8c0-0.6-0.1-1-0.4-1.3c-0.2-0.3-0.6-0.4-1.1-0.4c-0.7,0-1.2,0.2-1.5,0.6c-0.3,0.4-0.5,1.1-0.5,2v3.8h-1.2v-7.4h1l0.2,1
			h0.1c0.2-0.4,0.5-0.6,0.9-0.8c0.4-0.2,0.8-0.3,1.3-0.3c1.2,0,1.9,0.4,2.3,1.2h0.1c0.2-0.4,0.6-0.7,1-0.9c0.4-0.2,0.9-0.3,1.4-0.3
			c0.8,0,1.5,0.2,1.9,0.6c0.4,0.4,0.6,1.1,0.6,2.1v4.8H72.3z"/>
		<path id="XMLID_1252_" class="st9" d="M76.9,113.9v4.8c0,0.6,0.1,1,0.4,1.3s0.7,0.4,1.2,0.4c0.8,0,1.3-0.2,1.7-0.6
			c0.3-0.4,0.5-1.1,0.5-2v-3.8h1.2v7.4h-1l-0.2-1h-0.1c-0.2,0.4-0.5,0.6-0.9,0.8c-0.4,0.2-0.9,0.3-1.4,0.3c-0.9,0-1.6-0.2-2-0.6
			s-0.7-1.1-0.7-2v-4.8H76.9z"/>
		<path id="XMLID_1249_" class="st9" d="M92.4,121.3l-0.2-1h-0.1c-0.4,0.5-0.7,0.8-1.1,0.9c-0.4,0.2-0.8,0.2-1.4,0.2
			c-0.7,0-1.3-0.2-1.7-0.6c-0.4-0.4-0.6-0.9-0.6-1.6c0-1.5,1.2-2.3,3.5-2.4l1.3,0v-0.4c0-0.6-0.1-1-0.4-1.2
			c-0.2-0.3-0.6-0.4-1.2-0.4c-0.4,0-0.8,0.1-1.1,0.2c-0.3,0.1-0.7,0.2-1,0.4l-0.4-0.9c0.4-0.2,0.8-0.4,1.2-0.5
			c0.4-0.1,0.9-0.2,1.3-0.2c0.9,0,1.6,0.2,2,0.6c0.4,0.4,0.7,1,0.7,1.9v5H92.4z M89.9,120.4c0.7,0,1.2-0.2,1.6-0.5
			c0.4-0.4,0.6-0.9,0.6-1.6v-0.7l-1.1,0c-0.8,0-1.5,0.2-1.9,0.4c-0.4,0.2-0.6,0.6-0.6,1.1c0,0.4,0.1,0.7,0.4,0.9
			S89.5,120.4,89.9,120.4z"/>
		<path id="XMLID_1247_" class="st9" d="M96.7,117.5l0.4-0.5l0.5-0.6l2.4-2.5h1.4l-3,3.2l3.2,4.2h-1.5l-2.6-3.4l-0.8,0.7v2.7h-1.2
			v-10.5h1.2v5.5V117.5L96.7,117.5z"/>
		<path id="XMLID_1244_" class="st9" d="M107.4,121.3l-0.2-1h-0.1c-0.4,0.5-0.7,0.8-1.1,0.9c-0.4,0.2-0.8,0.2-1.4,0.2
			c-0.7,0-1.3-0.2-1.7-0.6c-0.4-0.4-0.6-0.9-0.6-1.6c0-1.5,1.2-2.3,3.5-2.4l1.3,0v-0.4c0-0.6-0.1-1-0.4-1.2
			c-0.2-0.3-0.6-0.4-1.2-0.4c-0.4,0-0.8,0.1-1.1,0.2c-0.3,0.1-0.7,0.2-1,0.4l-0.4-0.9c0.4-0.2,0.8-0.4,1.2-0.5
			c0.4-0.1,0.9-0.2,1.3-0.2c0.9,0,1.6,0.2,2,0.6c0.4,0.4,0.7,1,0.7,1.9v5H107.4z M105,120.4c0.7,0,1.2-0.2,1.6-0.5
			c0.4-0.4,0.6-0.9,0.6-1.6v-0.7l-1.1,0c-0.8,0-1.5,0.2-1.9,0.4c-0.4,0.2-0.6,0.6-0.6,1.1c0,0.4,0.1,0.7,0.4,0.9
			S104.5,120.4,105,120.4z"/>
		<path id="XMLID_1242_" class="st9" d="M115.6,121.3v-4.7c0-0.6-0.1-1-0.4-1.3c-0.3-0.3-0.7-0.4-1.3-0.4c-0.8,0-1.3,0.2-1.6,0.6
			c-0.3,0.4-0.5,1.1-0.5,2v3.8h-1.2v-7.4h1l0.2,1h0.1c0.2-0.4,0.5-0.6,1-0.8s0.9-0.3,1.4-0.3c0.9,0,1.6,0.2,2,0.7
			c0.4,0.4,0.7,1.1,0.7,2v4.8H115.6z"/>
		<path id="XMLID_1240_" class="st9" d="M127.5,119.2c0,0.7-0.3,1.2-0.8,1.6s-1.2,0.6-2.2,0.6c-1,0-1.7-0.2-2.3-0.5v-1.1
			c0.8,0.4,1.6,0.6,2.3,0.6c0.6,0,1.1-0.1,1.3-0.3c0.3-0.2,0.4-0.5,0.4-0.8c0-0.3-0.1-0.5-0.4-0.7c-0.3-0.2-0.7-0.4-1.4-0.7
			c-0.7-0.3-1.2-0.5-1.5-0.7s-0.5-0.4-0.6-0.6c-0.1-0.2-0.2-0.5-0.2-0.9c0-0.6,0.2-1.1,0.7-1.4c0.5-0.3,1.2-0.5,2-0.5
			c0.8,0,1.6,0.2,2.4,0.5l-0.4,1c-0.7-0.3-1.4-0.5-2-0.5c-0.5,0-0.9,0.1-1.1,0.2s-0.4,0.4-0.4,0.7c0,0.3,0.1,0.5,0.3,0.7
			c0.2,0.2,0.7,0.4,1.6,0.7c0.6,0.2,1.1,0.4,1.4,0.6s0.5,0.4,0.6,0.7C127.4,118.6,127.5,118.9,127.5,119.2z"/>
		<path id="XMLID_1237_" class="st9" d="M132.4,121.4c-1.1,0-2-0.3-2.6-1c-0.6-0.7-0.9-1.6-0.9-2.8c0-1.2,0.3-2.1,0.9-2.8
			s1.4-1.1,2.4-1.1c0.9,0,1.7,0.3,2.2,0.9c0.6,0.6,0.8,1.4,0.8,2.4v0.7h-5.1c0,0.8,0.2,1.5,0.6,1.9s1,0.7,1.7,0.7
			c0.4,0,0.8,0,1.1-0.1c0.4-0.1,0.8-0.2,1.2-0.4v1.1c-0.4,0.2-0.8,0.3-1.1,0.4C133.3,121.4,132.9,121.4,132.4,121.4z M132.1,114.8
			c-0.6,0-1,0.2-1.4,0.6c-0.3,0.4-0.5,0.9-0.6,1.6h3.8c0-0.7-0.2-1.2-0.5-1.6C133.1,114.9,132.7,114.8,132.1,114.8z"/>
		<path id="XMLID_1235_" class="st9" d="M138.3,121.3h-1.2v-10.5h1.2V121.3z"/>
		<path id="XMLID_1232_" class="st9" d="M145.2,121.3l-0.2-1h-0.1c-0.4,0.5-0.7,0.8-1.1,0.9c-0.4,0.2-0.8,0.2-1.4,0.2
			c-0.7,0-1.3-0.2-1.7-0.6c-0.4-0.4-0.6-0.9-0.6-1.6c0-1.5,1.2-2.3,3.5-2.4l1.3,0v-0.4c0-0.6-0.1-1-0.4-1.2
			c-0.2-0.3-0.6-0.4-1.2-0.4c-0.4,0-0.8,0.1-1.1,0.2c-0.3,0.1-0.7,0.2-1,0.4l-0.4-0.9c0.4-0.2,0.8-0.4,1.2-0.5
			c0.4-0.1,0.9-0.2,1.3-0.2c0.9,0,1.6,0.2,2,0.6c0.4,0.4,0.7,1,0.7,1.9v5H145.2z M142.7,120.4c0.7,0,1.2-0.2,1.6-0.5
			c0.4-0.4,0.6-0.9,0.6-1.6v-0.7l-1.1,0c-0.8,0-1.5,0.2-1.9,0.4c-0.4,0.2-0.6,0.6-0.6,1.1c0,0.4,0.1,0.7,0.4,0.9
			S142.2,120.4,142.7,120.4z"/>
		<path id="XMLID_1230_" class="st9" d="M149.5,121.3h-1.2v-10.5h1.2V121.3z"/>
		<path id="XMLID_1228_" class="st9" d="M153,113.9v4.8c0,0.6,0.1,1,0.4,1.3s0.7,0.4,1.2,0.4c0.8,0,1.3-0.2,1.7-0.6
			c0.3-0.4,0.5-1.1,0.5-2v-3.8h1.2v7.4h-1l-0.2-1h-0.1c-0.2,0.4-0.5,0.6-0.9,0.8c-0.4,0.2-0.9,0.3-1.4,0.3c-0.9,0-1.6-0.2-2-0.6
			s-0.7-1.1-0.7-2v-4.8H153z"/>
		<path id="XMLID_1226_" class="st9" d="M56,137.8V133c0-1.2-0.5-1.7-1.5-1.7c-0.7,0-1.2,0.2-1.5,0.6c-0.3,0.4-0.5,1-0.5,1.8v4.1
			h-1.2V133c0-0.6-0.1-1-0.4-1.3s-0.6-0.4-1.1-0.4c-0.7,0-1.2,0.2-1.5,0.6c-0.3,0.4-0.5,1.1-0.5,2v3.8h-1.2v-7.4h1l0.2,1h0.1
			c0.2-0.4,0.5-0.6,0.9-0.8c0.4-0.2,0.8-0.3,1.3-0.3c1.2,0,1.9,0.4,2.3,1.2h0.1c0.2-0.4,0.6-0.7,1-0.9c0.4-0.2,0.9-0.3,1.4-0.3
			c0.8,0,1.5,0.2,1.9,0.6c0.4,0.4,0.6,1.1,0.6,2.1v4.8H56z"/>
		<path id="XMLID_1223_" class="st9" d="M62.6,137.9c-1.1,0-2-0.3-2.6-1c-0.6-0.7-0.9-1.6-0.9-2.8c0-1.2,0.3-2.1,0.9-2.8
			s1.4-1.1,2.4-1.1c0.9,0,1.7,0.3,2.2,0.9c0.6,0.6,0.8,1.4,0.8,2.4v0.7h-5.1c0,0.8,0.2,1.5,0.6,1.9s1,0.7,1.7,0.7
			c0.4,0,0.8,0,1.1-0.1c0.4-0.1,0.8-0.2,1.2-0.4v1.1c-0.4,0.2-0.8,0.3-1.1,0.4C63.5,137.9,63.1,137.9,62.6,137.9z M62.3,131.3
			c-0.6,0-1,0.2-1.4,0.6c-0.3,0.4-0.5,0.9-0.6,1.6h3.8c0-0.7-0.2-1.2-0.5-1.6C63.3,131.5,62.9,131.3,62.3,131.3z"/>
		<path id="XMLID_1221_" class="st9" d="M72.3,137.8v-4.7c0-0.6-0.1-1-0.4-1.3c-0.3-0.3-0.7-0.4-1.3-0.4c-0.8,0-1.3,0.2-1.6,0.6
			s-0.5,1.1-0.5,2v3.8h-1.2v-7.4h1l0.2,1h0.1c0.2-0.4,0.5-0.6,1-0.8c0.4-0.2,0.9-0.3,1.4-0.3c0.9,0,1.6,0.2,2,0.7
			c0.4,0.4,0.7,1.1,0.7,2v4.8H72.3z"/>
		<path id="XMLID_1218_" class="st9" d="M78.9,137.9c-1.1,0-2-0.3-2.6-1c-0.6-0.7-0.9-1.6-0.9-2.8c0-1.2,0.3-2.1,0.9-2.8
			s1.4-1.1,2.4-1.1c0.9,0,1.7,0.3,2.2,0.9c0.6,0.6,0.8,1.4,0.8,2.4v0.7h-5.1c0,0.8,0.2,1.5,0.6,1.9s1,0.7,1.7,0.7
			c0.4,0,0.8,0,1.1-0.1c0.4-0.1,0.8-0.2,1.2-0.4v1.1c-0.4,0.2-0.8,0.3-1.1,0.4C79.8,137.9,79.4,137.9,78.9,137.9z M78.6,131.3
			c-0.6,0-1,0.2-1.4,0.6c-0.3,0.4-0.5,0.9-0.6,1.6h3.8c0-0.7-0.2-1.2-0.5-1.6C79.6,131.5,79.2,131.3,78.6,131.3z"/>
		<path id="XMLID_1216_" class="st9" d="M92.9,137.8V133c0-1.2-0.5-1.7-1.5-1.7c-0.7,0-1.2,0.2-1.5,0.6s-0.5,1-0.5,1.8v4.1h-1.2V133
			c0-0.6-0.1-1-0.4-1.3s-0.6-0.4-1.1-0.4c-0.7,0-1.2,0.2-1.5,0.6c-0.3,0.4-0.5,1.1-0.5,2v3.8h-1.2v-7.4h1l0.2,1h0.1
			c0.2-0.4,0.5-0.6,0.9-0.8s0.8-0.3,1.3-0.3c1.2,0,1.9,0.4,2.3,1.2h0.1c0.2-0.4,0.6-0.7,1-0.9c0.4-0.2,0.9-0.3,1.4-0.3
			c0.8,0,1.5,0.2,1.9,0.6s0.6,1.1,0.6,2.1v4.8H92.9z"/>
		<path id="XMLID_1214_" class="st9" d="M97.5,130.4v4.8c0,0.6,0.1,1,0.4,1.3s0.7,0.4,1.2,0.4c0.8,0,1.3-0.2,1.7-0.6
			c0.3-0.4,0.5-1.1,0.5-2v-3.8h1.2v7.4h-1l-0.2-1h-0.1c-0.2,0.4-0.5,0.6-0.9,0.8s-0.9,0.3-1.4,0.3c-0.9,0-1.6-0.2-2-0.6
			s-0.7-1.1-0.7-2v-4.8H97.5z"/>
		<path id="XMLID_1212_" class="st9" d="M106.1,134l0.4-0.5l0.5-0.6l2.4-2.5h1.4l-3,3.2l3.2,4.2h-1.5l-2.6-3.4l-0.8,0.7v2.7h-1.2
			v-10.5h1.2v5.5V134L106.1,134z"/>
		<path id="XMLID_1209_" class="st9" d="M116.8,137.8l-0.2-1h-0.1c-0.4,0.5-0.7,0.8-1.1,0.9c-0.4,0.2-0.8,0.2-1.4,0.2
			c-0.7,0-1.3-0.2-1.7-0.6s-0.6-0.9-0.6-1.6c0-1.5,1.2-2.3,3.5-2.4l1.3,0v-0.4c0-0.6-0.1-1-0.4-1.2c-0.2-0.3-0.6-0.4-1.2-0.4
			c-0.4,0-0.8,0.1-1.1,0.2c-0.3,0.1-0.7,0.2-1,0.4l-0.4-0.9c0.4-0.2,0.8-0.4,1.2-0.5c0.4-0.1,0.9-0.2,1.3-0.2c0.9,0,1.6,0.2,2,0.6
			c0.4,0.4,0.7,1,0.7,1.9v5H116.8z M114.3,137c0.7,0,1.2-0.2,1.6-0.5s0.6-0.9,0.6-1.6v-0.7l-1.1,0c-0.8,0-1.5,0.2-1.9,0.4
			c-0.4,0.2-0.6,0.6-0.6,1.1c0,0.4,0.1,0.7,0.4,0.9C113.6,136.9,113.9,137,114.3,137z"/>
		<path id="XMLID_1207_" class="st9" d="M125,137.8v-4.7c0-0.6-0.1-1-0.4-1.3c-0.3-0.3-0.7-0.4-1.3-0.4c-0.8,0-1.3,0.2-1.7,0.6
			s-0.5,1.1-0.5,2v3.8H120v-7.4h1l0.2,1h0.1c0.2-0.4,0.5-0.6,1-0.8c0.4-0.2,0.9-0.3,1.4-0.3c0.9,0,1.6,0.2,2,0.7
			c0.4,0.4,0.7,1.1,0.7,2v4.8H125z"/>
		<path id="XMLID_1204_" class="st9" d="M45.8,157.6c-0.4,0-0.8-0.1-1.1-0.2v-1c0.3,0.1,0.6,0.1,0.9,0.1c0.3,0,0.6-0.1,0.8-0.3
			c0.2-0.2,0.2-0.5,0.2-0.9v-8.5h1.2v8.5c0,0.7-0.2,1.3-0.5,1.7S46.4,157.6,45.8,157.6z M46.5,144.9c0-0.3,0.1-0.5,0.2-0.6
			s0.3-0.2,0.5-0.2c0.2,0,0.4,0.1,0.5,0.2s0.2,0.3,0.2,0.6c0,0.3-0.1,0.5-0.2,0.6c-0.1,0.1-0.3,0.2-0.5,0.2c-0.2,0-0.4-0.1-0.5-0.2
			C46.6,145.4,46.5,145.2,46.5,144.9z"/>
		<path id="XMLID_1201_" class="st9" d="M54.7,154.3l-0.2-1h-0.1c-0.4,0.5-0.7,0.8-1.1,0.9c-0.4,0.2-0.8,0.2-1.4,0.2
			c-0.7,0-1.3-0.2-1.7-0.6c-0.4-0.4-0.6-0.9-0.6-1.6c0-1.5,1.2-2.3,3.5-2.4l1.3,0v-0.4c0-0.6-0.1-1-0.4-1.2
			c-0.2-0.3-0.6-0.4-1.2-0.4c-0.4,0-0.8,0.1-1.1,0.2c-0.3,0.1-0.7,0.2-1,0.4l-0.4-0.9c0.4-0.2,0.8-0.4,1.2-0.5
			c0.4-0.1,0.9-0.2,1.3-0.2c0.9,0,1.6,0.2,2,0.6c0.4,0.4,0.7,1,0.7,1.9v5H54.7z M52.2,153.5c0.7,0,1.2-0.2,1.6-0.5s0.6-0.9,0.6-1.6
			v-0.7l-1.1,0c-0.8,0-1.5,0.2-1.9,0.4s-0.6,0.6-0.6,1.1c0,0.4,0.1,0.7,0.4,0.9C51.5,153.4,51.8,153.5,52.2,153.5z"/>
		<path id="XMLID_1199_" class="st9" d="M59.1,154.3h-1.2v-10.5h1.2V154.3z"/>
		<path id="XMLID_1196_" class="st9" d="M66,154.3l-0.2-1h-0.1c-0.4,0.5-0.7,0.8-1.1,0.9c-0.4,0.2-0.8,0.2-1.4,0.2
			c-0.7,0-1.3-0.2-1.7-0.6c-0.4-0.4-0.6-0.9-0.6-1.6c0-1.5,1.2-2.3,3.5-2.4l1.3,0v-0.4c0-0.6-0.1-1-0.4-1.2
			c-0.2-0.3-0.6-0.4-1.2-0.4c-0.4,0-0.8,0.1-1.1,0.2c-0.3,0.1-0.7,0.2-1,0.4l-0.4-0.9c0.4-0.2,0.8-0.4,1.2-0.5
			c0.4-0.1,0.9-0.2,1.3-0.2c0.9,0,1.6,0.2,2,0.6c0.4,0.4,0.7,1,0.7,1.9v5H66z M63.5,153.5c0.7,0,1.2-0.2,1.6-0.5s0.6-0.9,0.6-1.6
			v-0.7l-1.1,0c-0.8,0-1.5,0.2-1.9,0.4s-0.6,0.6-0.6,1.1c0,0.4,0.1,0.7,0.4,0.9C62.7,153.4,63.1,153.5,63.5,153.5z"/>
		<path id="XMLID_1194_" class="st9" d="M74.2,154.3v-4.7c0-0.6-0.1-1-0.4-1.3c-0.3-0.3-0.7-0.4-1.3-0.4c-0.8,0-1.3,0.2-1.6,0.6
			c-0.3,0.4-0.5,1.1-0.5,2v3.8h-1.2v-7.4h1l0.2,1h0.1c0.2-0.4,0.5-0.6,1-0.8c0.4-0.2,0.9-0.3,1.4-0.3c0.9,0,1.6,0.2,2,0.7
			c0.4,0.4,0.7,1.1,0.7,2v4.8H74.2z"/>
		<path id="XMLID_1192_" class="st9" d="M86.3,154.3v-4.7c0-0.6-0.1-1-0.4-1.3c-0.3-0.3-0.7-0.4-1.3-0.4c-0.7,0-1.3,0.2-1.6,0.6
			c-0.3,0.4-0.5,1.1-0.5,2.1v3.8h-1.2v-10.5h1.2v3.1c0,0.4,0,0.7-0.1,1h0.1c0.2-0.4,0.5-0.6,0.9-0.8c0.4-0.2,0.9-0.3,1.4-0.3
			c0.9,0,1.6,0.2,2,0.6c0.5,0.4,0.7,1.1,0.7,2.1v4.8H86.3z"/>
		<path id="XMLID_1188_" class="st9" d="M89.7,144.9c0-0.3,0.1-0.5,0.2-0.6s0.3-0.2,0.5-0.2c0.2,0,0.4,0.1,0.5,0.2
			c0.1,0.1,0.2,0.3,0.2,0.6c0,0.3-0.1,0.5-0.2,0.6c-0.1,0.1-0.3,0.2-0.5,0.2c-0.2,0-0.4-0.1-0.5-0.2
			C89.7,145.4,89.7,145.2,89.7,144.9z M91,154.3h-1.2v-7.4H91V154.3z"/>
		<path id="XMLID_1183_" class="st9" d="M95.9,154.4c-1,0-1.7-0.3-2.2-1c-0.5-0.7-0.8-1.6-0.8-2.8c0-1.2,0.3-2.1,0.8-2.8
			c0.5-0.7,1.3-1,2.2-1c1,0,1.8,0.4,2.3,1.1h0.1c0-0.1,0-0.3-0.1-0.5c0-0.3,0-0.5,0-0.5v-2.9h1.2v10.5h-1l-0.2-1h-0.1
			C97.7,154.1,96.9,154.4,95.9,154.4z M96.1,153.4c0.7,0,1.3-0.2,1.6-0.6c0.3-0.4,0.5-1.1,0.5-2v-0.2c0-1-0.2-1.8-0.5-2.2
			c-0.3-0.4-0.9-0.7-1.6-0.7c-0.6,0-1.1,0.2-1.4,0.7c-0.3,0.5-0.5,1.2-0.5,2.1c0,0.9,0.2,1.6,0.5,2.1S95.5,153.4,96.1,153.4z"/>
		<path id="XMLID_1181_" class="st9" d="M102.9,146.9v4.8c0,0.6,0.1,1,0.4,1.3s0.7,0.4,1.2,0.4c0.8,0,1.3-0.2,1.7-0.6
			c0.3-0.4,0.5-1.1,0.5-2v-3.8h1.2v7.4h-1l-0.2-1h-0.1c-0.2,0.4-0.5,0.6-0.9,0.8s-0.9,0.3-1.4,0.3c-0.9,0-1.6-0.2-2-0.6
			s-0.7-1.1-0.7-2v-4.8H102.9z"/>
		<path id="XMLID_1178_" class="st9" d="M113.8,154.4c-1,0-1.8-0.4-2.3-1.1h-0.1l0,0.3c0,0.3,0.1,0.7,0.1,0.9v3h-1.2v-10.7h1l0.2,1
			h0.1c0.3-0.4,0.6-0.7,1-0.9c0.4-0.2,0.8-0.3,1.3-0.3c1,0,1.7,0.3,2.2,1c0.5,0.7,0.8,1.6,0.8,2.8c0,1.2-0.3,2.1-0.8,2.8
			S114.7,154.4,113.8,154.4z M113.6,147.8c-0.7,0-1.3,0.2-1.6,0.6c-0.3,0.4-0.5,1.1-0.5,1.9v0.2c0,1,0.2,1.7,0.5,2.2
			c0.3,0.4,0.9,0.7,1.6,0.7c0.6,0,1.1-0.3,1.4-0.8s0.5-1.2,0.5-2.1c0-0.9-0.2-1.6-0.5-2.1C114.7,148.1,114.2,147.8,113.6,147.8z"/>
	</g>
</g>
</svg>
