<?xml version="1.0" encoding="utf-8"?>
<!-- Generator: Adobe Illustrator 19.0.0, SVG Export Plug-In . SVG Version: 6.00 Build 0)  -->
<svg version="1.1" id="Layer_1" xmlns="http://www.w3.org/2000/svg" xmlns:xlink="http://www.w3.org/1999/xlink" x="0px" y="0px"
	 viewBox="0 0 164.5 180.5" style="enable-background:new 0 0 164.5 180.5;" xml:space="preserve">
<style type="text/css">
	.st0{fill:#15B27E;}
	.st1{fill:#FFFFFF;}
	.st2{fill:#88181A;}
	.st3{fill:#D14C27;}
	.st4{fill:#B53525;}
	.st5{fill:#BFB77B;}
	.st6{fill:#F9A721;}
	.st7{fill:#FFDE9C;}
	.st8{fill:#EE3048;}
	.st9{fill:#F9E558;}
	.st10{fill:#199247;}
	.st11{fill:#4AB85B;}
	.st12{fill:#A0944C;}
	.st13{fill:#CD202B;}
	.st14{fill:#404040;}
</style>
<rect id="XMLID_125_" y="0" class="st0" width="150" height="166.9"/>
<polygon id="XMLID_124_" class="st1" points="145.2,180.5 145.2,161.3 164.5,180.5 "/>
<g id="XMLID_120_">
	<rect id="XMLID_132_" y="95.7" class="st1" width="150" height="84.7"/>
	<rect id="XMLID_130_" y="95.7" class="st1" width="150" height="84.7"/>
</g>
<rect id="XMLID_118_" x="25.9" y="11.5" class="st2" width="95.3" height="59.9"/>
<rect id="XMLID_117_" x="25.9" y="30.5" class="st3" width="73.4" height="3"/>
<rect id="XMLID_116_" x="25.9" y="11.5" class="st3" width="3" height="59.9"/>
<rect id="XMLID_115_" x="49.3" y="11.5" class="st3" width="3" height="59.9"/>
<rect id="XMLID_114_" x="72.8" y="11.5" class="st3" width="3" height="59.9"/>
<rect id="XMLID_113_" x="96.2" y="11.5" class="st3" width="3" height="59.9"/>
<rect id="XMLID_112_" x="119.7" y="8.5" class="st3" width="3" height="63"/>
<rect id="XMLID_111_" x="25.9" y="49.4" class="st3" width="95.3" height="3"/>
<rect id="XMLID_110_" x="25.9" y="8.5" class="st3" width="95.6" height="3"/>
<rect id="XMLID_109_" x="25.9" y="69.5" class="st4" width="96.9" height="13.7"/>
<circle id="XMLID_108_" class="st5" cx="87.1" cy="41.5" r="6.7"/>
<path id="XMLID_107_" class="st5" d="M56.5,60.4c0-3.7,3-6.7,6.7-6.7c3.7,0,6.7,3,6.7,6.7"/>
<circle id="XMLID_106_" class="st5" cx="86.2" cy="21.3" r="6.7"/>
<circle id="XMLID_105_" class="st6" cx="62.6" cy="21.3" r="6.7"/>
<circle id="XMLID_104_" class="st6" cx="85.8" cy="60" r="6.7"/>
<circle id="XMLID_103_" class="st6" cx="109" cy="60" r="6.7"/>
<circle id="XMLID_102_" class="st6" cx="39.2" cy="60.4" r="6.7"/>
<circle id="XMLID_101_" class="st7" cx="39.2" cy="60.4" r="3.9"/>
<circle id="XMLID_100_" class="st8" cx="40.2" cy="21.3" r="6.7"/>
<circle id="XMLID_99_" class="st6" cx="40.2" cy="41.5" r="6.7"/>
<path id="XMLID_98_" class="st9" d="M116.4,25.4v7.4c0,4.1-3.3,7.4-7.4,7.4l0,0c-4.1,0-7.4-3.3-7.4-7.4v-7.4c0-4.1,3.3-7.4,7.4-7.4
	l0,0C113.1,18,116.4,21.4,116.4,25.4z"/>
<path id="XMLID_97_" class="st10" d="M96.5,16.7l-9.4,10.7C87.1,27.4,94.8,29.6,96.5,16.7z"/>
<path id="XMLID_96_" class="st11" d="M96.7,16.9l-9.4,10.7C87.3,27.6,85.3,18.8,96.7,16.9z"/>
<path id="XMLID_95_" class="st7" d="M66.4,46.7h-7.7c-1.6,0-2.8-1.3-2.8-2.8v-6.2c0-1.6,1.3-2.8,2.8-2.8h7.7c1.6,0,2.8,1.3,2.8,2.8
	v6.2C69.2,45.5,68,46.7,66.4,46.7z"/>
<rect id="XMLID_94_" x="26.5" y="68" class="st3" width="95.6" height="3"/>
<path id="XMLID_93_" class="st7" d="M67.9,62.8h-9.5c-1.1,0-1.9-0.9-1.9-1.9l0,0c0-1.1,0.9-1.9,1.9-1.9h9.5c1.1,0,1.9,0.9,1.9,1.9
	l0,0C69.8,61.9,68.9,62.8,67.9,62.8z"/>
<path id="XMLID_92_" class="st8" d="M67.6,61.7h-9c-0.3,0-0.6-0.3-0.6-0.6v-0.5c0-0.3,0.3-0.6,0.6-0.6h9c0.3,0,0.6,0.3,0.6,0.6v0.5
	C68.3,61.4,68,61.7,67.6,61.7z"/>
<path id="XMLID_91_" class="st12" d="M85.8,40.8L85.8,40.8c-0.7,0-1.3-0.6-1.3-1.3l0,0c0-0.7,0.6-1.3,1.3-1.3l0,0
	c0.7,0,1.3,0.6,1.3,1.3l0,0C87.1,40.2,86.5,40.8,85.8,40.8z"/>
<path id="XMLID_90_" class="st12" d="M88.2,43.5L88.2,43.5c-0.7,0-1.3-0.6-1.3-1.3l0,0c0-0.7,0.6-1.3,1.3-1.3l0,0
	c0.7,0,1.3,0.6,1.3,1.3l0,0C89.5,43,89,43.5,88.2,43.5z"/>
<path id="XMLID_89_" class="st12" d="M90.4,40.8L90.4,40.8c-0.7,0-1.3-0.6-1.3-1.3l0,0c0-0.7,0.6-1.3,1.3-1.3l0,0
	c0.7,0,1.3,0.6,1.3,1.3l0,0C91.7,40.2,91.1,40.8,90.4,40.8z"/>
<g id="XMLID_84_">
	<circle id="XMLID_88_" class="st13" cx="17.4" cy="107" r="4"/>
	<path id="XMLID_87_" class="st13" d="M13.4,107h8.1V117C21.4,117,13.4,112.1,13.4,107z"/>
	<circle id="XMLID_86_" class="st13" cx="25.5" cy="106.8" r="4"/>
	<path id="XMLID_85_" class="st13" d="M29.5,106.8h-8.1v10.1C21.4,116.9,29.5,112,29.5,106.8z"/>
</g>
<g id="XMLID_1_">
	<path id="XMLID_2_" class="st14" d="M44.7,112.9l-2.4-7.8h-0.1c0.1,1.6,0.1,2.7,0.1,3.2v4.6h-1.9v-10h2.9l2.4,7.6h0l2.5-7.6h2.9v10
		h-2v-4.7c0-0.2,0-0.5,0-0.8c0-0.3,0-1.1,0.1-2.3h-0.1l-2.6,7.8H44.7z"/>
	<path id="XMLID_4_" class="st14" d="M58.4,112.9l-0.4-1h-0.1c-0.4,0.4-0.7,0.7-1.1,0.9S56,113,55.4,113c-0.7,0-1.3-0.2-1.7-0.6
		c-0.4-0.4-0.6-1-0.6-1.8c0-0.8,0.3-1.4,0.9-1.8c0.6-0.4,1.4-0.6,2.6-0.6l1.3,0v-0.3c0-0.8-0.4-1.2-1.2-1.2c-0.6,0-1.3,0.2-2.2,0.6
		l-0.7-1.4c0.9-0.5,1.9-0.7,2.9-0.7c1,0,1.8,0.2,2.4,0.7c0.5,0.4,0.8,1.1,0.8,2v5.1H58.4z M57.8,109.3l-0.8,0
		c-0.6,0-1.1,0.1-1.4,0.3c-0.3,0.2-0.4,0.5-0.4,0.9c0,0.6,0.3,0.9,1,0.9c0.5,0,0.9-0.1,1.2-0.4c0.3-0.3,0.4-0.6,0.4-1.1V109.3z"/>
	<path id="XMLID_7_" class="st14" d="M64,108.7l0.9-1.2l2.1-2.3h2.4l-3,3.3l3.2,4.3h-2.4l-2.2-3.1l-0.9,0.7v2.4H62v-10.6h2.1v4.7
		L64,108.7L64,108.7z"/>
	<path id="XMLID_9_" class="st14" d="M75.5,112.9l-0.4-1h-0.1c-0.4,0.4-0.7,0.7-1.1,0.9s-0.9,0.3-1.5,0.3c-0.7,0-1.3-0.2-1.7-0.6
		c-0.4-0.4-0.6-1-0.6-1.8c0-0.8,0.3-1.4,0.9-1.8c0.6-0.4,1.4-0.6,2.6-0.6l1.3,0v-0.3c0-0.8-0.4-1.2-1.2-1.2c-0.6,0-1.3,0.2-2.2,0.6
		l-0.7-1.4c0.9-0.5,1.9-0.7,2.9-0.7c1,0,1.8,0.2,2.4,0.7c0.5,0.4,0.8,1.1,0.8,2v5.1H75.5z M74.9,109.3l-0.8,0
		c-0.6,0-1.1,0.1-1.4,0.3c-0.3,0.2-0.4,0.5-0.4,0.9c0,0.6,0.3,0.9,1,0.9c0.5,0,0.9-0.1,1.2-0.4c0.3-0.3,0.4-0.6,0.4-1.1V109.3z"/>
	<path id="XMLID_12_" class="st14" d="M86.2,112.9h-2.1v-4.5c0-0.6-0.1-1-0.3-1.2c-0.2-0.3-0.5-0.4-0.9-0.4c-0.6,0-1,0.2-1.3,0.6
		s-0.4,1-0.4,1.9v3.6h-2.1v-7.6h1.6l0.3,1h0.1c0.2-0.4,0.6-0.6,1-0.8c0.4-0.2,0.9-0.3,1.4-0.3c0.9,0,1.6,0.2,2,0.7
		c0.5,0.5,0.7,1.2,0.7,2.1V112.9z"/>
	<path id="XMLID_14_" class="st14" d="M93.2,112.9l-0.4-1h-0.1c-0.4,0.4-0.7,0.7-1.1,0.9s-0.9,0.3-1.5,0.3c-0.7,0-1.3-0.2-1.7-0.6
		c-0.4-0.4-0.6-1-0.6-1.8c0-0.8,0.3-1.4,0.9-1.8c0.6-0.4,1.4-0.6,2.6-0.6l1.3,0v-0.3c0-0.8-0.4-1.2-1.2-1.2c-0.6,0-1.3,0.2-2.2,0.6
		l-0.7-1.4c0.9-0.5,1.9-0.7,2.9-0.7c1,0,1.8,0.2,2.4,0.7c0.5,0.4,0.8,1.1,0.8,2v5.1H93.2z M92.6,109.3l-0.8,0
		c-0.6,0-1.1,0.1-1.4,0.3c-0.3,0.2-0.4,0.5-0.4,0.9c0,0.6,0.3,0.9,1,0.9c0.5,0,0.9-0.1,1.2-0.4c0.3-0.3,0.4-0.6,0.4-1.1V109.3z"/>
	<path id="XMLID_17_" class="st14" d="M103.8,112.9h-2.1v-4.5c0-0.6-0.1-1-0.3-1.2c-0.2-0.3-0.5-0.4-0.9-0.4c-0.6,0-1,0.2-1.3,0.6
		s-0.4,1-0.4,1.9v3.6h-2.1v-7.6h1.6l0.3,1h0.1c0.2-0.4,0.6-0.6,1-0.8c0.4-0.2,0.9-0.3,1.4-0.3c0.9,0,1.6,0.2,2,0.7
		c0.5,0.5,0.7,1.2,0.7,2.1V112.9z"/>
	<path id="XMLID_19_" class="st14" d="M45,127.7l-3.3-8.8h-0.1c0.1,0.7,0.1,1.6,0.1,2.7v6.1h-1.2v-10h1.9l3.1,8.2h0.1l3.1-8.2h1.8
		v10h-1.2v-6.1c0-0.7,0-1.6,0.1-2.6h-0.1l-3.3,8.8H45z"/>
	<path id="XMLID_21_" class="st14" d="M57.7,127.7l-0.2-1.1h-0.1c-0.4,0.5-0.7,0.8-1.1,1c-0.4,0.2-0.8,0.2-1.4,0.2
		c-0.7,0-1.3-0.2-1.7-0.6c-0.4-0.4-0.6-0.9-0.6-1.6c0-1.5,1.2-2.3,3.6-2.4l1.3,0v-0.4c0-0.6-0.1-1-0.4-1.3c-0.2-0.3-0.6-0.4-1.2-0.4
		c-0.4,0-0.8,0.1-1.1,0.2c-0.4,0.1-0.7,0.3-1,0.4l-0.4-0.9c0.4-0.2,0.8-0.4,1.2-0.5c0.4-0.1,0.9-0.2,1.3-0.2c0.9,0,1.6,0.2,2,0.6
		c0.4,0.4,0.7,1,0.7,1.9v5.1H57.7z M55.2,126.8c0.7,0,1.2-0.2,1.6-0.6c0.4-0.4,0.6-0.9,0.6-1.6V124l-1.1,0c-0.9,0-1.5,0.2-1.9,0.4
		c-0.4,0.2-0.6,0.6-0.6,1.1c0,0.4,0.1,0.7,0.4,0.9C54.4,126.7,54.8,126.8,55.2,126.8z"/>
	<path id="XMLID_24_" class="st14" d="M64.5,120c0.3,0,0.6,0,0.9,0.1l-0.2,1.1c-0.3-0.1-0.5-0.1-0.8-0.1c-0.4,0-0.8,0.1-1.1,0.3
		s-0.6,0.5-0.8,0.9c-0.2,0.4-0.3,0.8-0.3,1.3v4H61v-7.5h1l0.1,1.4h0.1c0.3-0.5,0.6-0.9,1-1.1C63.6,120.2,64,120,64.5,120z"/>
	<path id="XMLID_26_" class="st14" d="M66.7,118.1c0-0.3,0.1-0.5,0.2-0.6s0.3-0.2,0.5-0.2c0.2,0,0.4,0.1,0.5,0.2s0.2,0.3,0.2,0.6
		c0,0.3-0.1,0.5-0.2,0.6c-0.1,0.1-0.3,0.2-0.5,0.2c-0.2,0-0.4-0.1-0.5-0.2C66.7,118.6,66.7,118.4,66.7,118.1z M68,127.7h-1.2v-7.5
		H68V127.7z"/>
	<path id="XMLID_29_" class="st14" d="M78.9,125.6c0,0.7-0.3,1.2-0.8,1.6c-0.5,0.4-1.3,0.6-2.2,0.6c-1,0-1.8-0.2-2.4-0.5v-1.1
		c0.8,0.4,1.6,0.6,2.4,0.6c0.6,0,1.1-0.1,1.4-0.3c0.3-0.2,0.4-0.5,0.4-0.8c0-0.3-0.1-0.5-0.4-0.8s-0.8-0.4-1.4-0.7
		c-0.7-0.3-1.2-0.5-1.5-0.7c-0.3-0.2-0.5-0.4-0.6-0.7c-0.1-0.2-0.2-0.5-0.2-0.9c0-0.6,0.3-1.1,0.8-1.5c0.5-0.4,1.2-0.5,2.1-0.5
		c0.9,0,1.6,0.2,2.4,0.5l-0.4,1c-0.8-0.3-1.4-0.5-2.1-0.5c-0.5,0-0.9,0.1-1.2,0.2c-0.3,0.2-0.4,0.4-0.4,0.7c0,0.3,0.1,0.5,0.3,0.7
		c0.2,0.2,0.8,0.4,1.6,0.7c0.6,0.2,1.1,0.4,1.4,0.6c0.3,0.2,0.5,0.4,0.7,0.7C78.8,124.9,78.9,125.2,78.9,125.6z"/>
	<path id="XMLID_31_" class="st14" d="M85.3,127.7l-0.2-1.1H85c-0.4,0.5-0.7,0.8-1.1,1c-0.4,0.2-0.8,0.2-1.4,0.2
		c-0.7,0-1.3-0.2-1.7-0.6c-0.4-0.4-0.6-0.9-0.6-1.6c0-1.5,1.2-2.3,3.6-2.4l1.3,0v-0.4c0-0.6-0.1-1-0.4-1.3c-0.2-0.3-0.6-0.4-1.2-0.4
		c-0.4,0-0.8,0.1-1.1,0.2c-0.4,0.1-0.7,0.3-1,0.4l-0.4-0.9c0.4-0.2,0.8-0.4,1.2-0.5c0.4-0.1,0.9-0.2,1.3-0.2c0.9,0,1.6,0.2,2,0.6
		c0.4,0.4,0.7,1,0.7,1.9v5.1H85.3z M82.8,126.8c0.7,0,1.2-0.2,1.6-0.6c0.4-0.4,0.6-0.9,0.6-1.6V124l-1.1,0c-0.9,0-1.5,0.2-1.9,0.4
		c-0.4,0.2-0.6,0.6-0.6,1.1c0,0.4,0.1,0.7,0.4,0.9C82,126.7,82.4,126.8,82.8,126.8z"/>
	<path id="XMLID_34_" class="st14" d="M89.8,127.7h-1.2V117h1.2V127.7z"/>
	<path id="XMLID_36_" class="st14" d="M92.1,118.1c0-0.3,0.1-0.5,0.2-0.6s0.3-0.2,0.5-0.2c0.2,0,0.4,0.1,0.5,0.2s0.2,0.3,0.2,0.6
		c0,0.3-0.1,0.5-0.2,0.6c-0.1,0.1-0.3,0.2-0.5,0.2c-0.2,0-0.4-0.1-0.5-0.2C92.1,118.6,92.1,118.4,92.1,118.1z M93.4,127.7h-1.2v-7.5
		h1.2V127.7z"/>
	<path id="XMLID_39_" class="st14" d="M100.9,127.7v-4.8c0-0.6-0.1-1.1-0.4-1.4c-0.3-0.3-0.7-0.4-1.3-0.4c-0.8,0-1.3,0.2-1.7,0.6
		c-0.3,0.4-0.5,1.1-0.5,2.1v3.9h-1.2v-7.5h1l0.2,1H97c0.2-0.4,0.6-0.7,1-0.9c0.4-0.2,0.9-0.3,1.4-0.3c0.9,0,1.6,0.2,2.1,0.7
		c0.4,0.4,0.7,1.1,0.7,2.1v4.9H100.9z"/>
	<path id="XMLID_41_" class="st14" d="M109.4,127.6l0-0.9h-0.1c-0.5,0.8-1.3,1.1-2.3,1.1c-1,0-1.7-0.3-2.3-1s-0.8-1.6-0.8-2.9
		c0-1.2,0.3-2.2,0.8-2.9s1.3-1,2.3-1c1,0,1.8,0.4,2.4,1.1h0.1l0.2-1h1v7.6c0,1.1-0.3,1.9-0.8,2.4c-0.5,0.5-1.4,0.8-2.5,0.8
		c-1.1,0-2-0.2-2.7-0.5v-1.1c0.7,0.4,1.7,0.6,2.8,0.6c0.6,0,1.1-0.2,1.5-0.6c0.4-0.4,0.6-0.9,0.6-1.6V127.6z M107.3,126.8
		c0.8,0,1.3-0.2,1.7-0.6c0.3-0.4,0.5-1.1,0.5-2v-0.3c0-1-0.2-1.7-0.5-2.2c-0.3-0.5-0.9-0.7-1.7-0.7c-0.6,0-1.1,0.3-1.5,0.7
		s-0.5,1.2-0.5,2.1c0,0.9,0.2,1.6,0.5,2.1C106.1,126.6,106.6,126.8,107.3,126.8z"/>
	<path id="XMLID_44_" class="st14" d="M50,142.5v-4.8c0-1.2-0.5-1.8-1.5-1.8c-0.7,0-1.2,0.2-1.5,0.6c-0.3,0.4-0.5,1-0.5,1.9v4.1
		h-1.2v-4.8c0-0.6-0.1-1-0.4-1.3c-0.2-0.3-0.6-0.4-1.2-0.4c-0.7,0-1.2,0.2-1.5,0.6s-0.5,1.1-0.5,2.1v3.9h-1.2V135h1l0.2,1h0.1
		c0.2-0.4,0.5-0.6,0.9-0.9s0.8-0.3,1.3-0.3c1.2,0,1.9,0.4,2.3,1.3h0.1c0.2-0.4,0.6-0.7,1-0.9s0.9-0.3,1.4-0.3c0.8,0,1.5,0.2,1.9,0.7
		s0.6,1.1,0.6,2.1v4.9H50z"/>
	<path id="XMLID_46_" class="st14" d="M56.7,142.6c-1.1,0-2-0.3-2.6-1c-0.6-0.7-1-1.6-1-2.8c0-1.2,0.3-2.2,0.9-2.9
		c0.6-0.7,1.4-1.1,2.4-1.1c0.9,0,1.7,0.3,2.3,0.9s0.8,1.4,0.8,2.5v0.7h-5.1c0,0.9,0.2,1.5,0.6,1.9c0.4,0.4,1,0.7,1.7,0.7
		c0.4,0,0.8,0,1.1-0.1c0.4-0.1,0.8-0.2,1.3-0.4v1.1c-0.4,0.2-0.8,0.3-1.2,0.4C57.6,142.6,57.2,142.6,56.7,142.6z M56.4,135.8
		c-0.6,0-1.1,0.2-1.4,0.6c-0.3,0.4-0.5,0.9-0.6,1.6h3.8c0-0.7-0.2-1.2-0.5-1.6C57.4,136,57,135.8,56.4,135.8z"/>
	<path id="XMLID_49_" class="st14" d="M66.5,142.5v-4.8c0-0.6-0.1-1.1-0.4-1.4c-0.3-0.3-0.7-0.4-1.3-0.4c-0.8,0-1.3,0.2-1.7,0.6
		c-0.3,0.4-0.5,1.1-0.5,2.1v3.9h-1.2V135h1l0.2,1h0.1c0.2-0.4,0.6-0.7,1-0.9c0.4-0.2,0.9-0.3,1.4-0.3c0.9,0,1.6,0.2,2.1,0.7
		c0.4,0.4,0.7,1.1,0.7,2.1v4.9H66.5z"/>
	<path id="XMLID_51_" class="st14" d="M76.6,138.7c0,1.2-0.3,2.2-0.9,2.9c-0.6,0.7-1.5,1-2.6,1c-0.7,0-1.3-0.2-1.8-0.5
		c-0.5-0.3-0.9-0.8-1.2-1.4c-0.3-0.6-0.4-1.3-0.4-2.1c0-1.2,0.3-2.2,0.9-2.9c0.6-0.7,1.5-1,2.6-1c1.1,0,1.9,0.3,2.5,1
		C76.3,136.6,76.6,137.5,76.6,138.7z M70.9,138.7c0,0.9,0.2,1.7,0.6,2.1c0.4,0.5,0.9,0.7,1.6,0.7c0.7,0,1.3-0.2,1.6-0.7
		c0.4-0.5,0.6-1.2,0.6-2.1s-0.2-1.7-0.6-2.1c-0.4-0.5-0.9-0.7-1.7-0.7C71.6,135.9,70.9,136.8,70.9,138.7z"/>
	<path id="XMLID_54_" class="st14" d="M79.8,142.5h-1.2v-10.6h1.2V142.5z"/>
	<path id="XMLID_56_" class="st14" d="M88.7,138.7c0,1.2-0.3,2.2-0.9,2.9c-0.6,0.7-1.5,1-2.6,1c-0.7,0-1.3-0.2-1.8-0.5
		c-0.5-0.3-0.9-0.8-1.2-1.4c-0.3-0.6-0.4-1.3-0.4-2.1c0-1.2,0.3-2.2,0.9-2.9c0.6-0.7,1.5-1,2.6-1c1.1,0,1.9,0.3,2.5,1
		C88.3,136.6,88.7,137.5,88.7,138.7z M83,138.7c0,0.9,0.2,1.7,0.6,2.1c0.4,0.5,0.9,0.7,1.6,0.7c0.7,0,1.3-0.2,1.6-0.7
		c0.4-0.5,0.6-1.2,0.6-2.1s-0.2-1.7-0.6-2.1c-0.4-0.5-0.9-0.7-1.7-0.7C83.7,135.9,83,136.8,83,138.7z"/>
	<path id="XMLID_59_" class="st14" d="M95.7,142.5v-4.8c0-0.6-0.1-1.1-0.4-1.4c-0.3-0.3-0.7-0.4-1.3-0.4c-0.8,0-1.3,0.2-1.7,0.6
		c-0.3,0.4-0.5,1.1-0.5,2.1v3.9h-1.2V135h1l0.2,1h0.1c0.2-0.4,0.6-0.7,1-0.9c0.4-0.2,0.9-0.3,1.4-0.3c0.9,0,1.6,0.2,2.1,0.7
		c0.4,0.4,0.7,1.1,0.7,2.1v4.9H95.7z"/>
	<path id="XMLID_61_" class="st14" d="M104.3,142.4l0-0.9h-0.1c-0.5,0.8-1.3,1.1-2.3,1.1c-1,0-1.7-0.3-2.3-1s-0.8-1.6-0.8-2.9
		c0-1.2,0.3-2.2,0.8-2.9s1.3-1,2.3-1c1,0,1.8,0.4,2.4,1.1h0.1l0.2-1h1v7.6c0,1.1-0.3,1.9-0.8,2.4c-0.5,0.5-1.4,0.8-2.5,0.8
		c-1.1,0-2-0.2-2.7-0.5v-1.1c0.7,0.4,1.7,0.6,2.8,0.6c0.6,0,1.1-0.2,1.5-0.6c0.4-0.4,0.6-0.9,0.6-1.6V142.4z M102.1,141.6
		c0.8,0,1.3-0.2,1.7-0.6c0.3-0.4,0.5-1.1,0.5-2v-0.3c0-1-0.2-1.7-0.5-2.2c-0.3-0.5-0.9-0.7-1.7-0.7c-0.6,0-1.1,0.2-1.5,0.7
		s-0.5,1.2-0.5,2.1c0,0.9,0.2,1.6,0.5,2.1C100.9,141.4,101.4,141.6,102.1,141.6z"/>
	<path id="XMLID_64_" class="st14" d="M114.2,142.6c-1,0-1.7-0.3-2.3-1c-0.5-0.7-0.8-1.6-0.8-2.9c0-1.2,0.3-2.2,0.8-2.9
		c0.5-0.7,1.3-1,2.3-1c1,0,1.8,0.4,2.3,1.1h0.1c0-0.1,0-0.3-0.1-0.6c0-0.3,0-0.5,0-0.6v-3h1.2v10.6h-1l-0.2-1h-0.1
		C116,142.2,115.2,142.6,114.2,142.6z M114.4,141.6c0.7,0,1.3-0.2,1.6-0.6c0.3-0.4,0.5-1.1,0.5-2v-0.2c0-1-0.2-1.8-0.5-2.2
		s-0.9-0.7-1.6-0.7c-0.6,0-1.1,0.3-1.5,0.8c-0.3,0.5-0.5,1.2-0.5,2.2c0,0.9,0.2,1.6,0.5,2.1S113.7,141.6,114.4,141.6z"/>
	<path id="XMLID_67_" class="st14" d="M124.8,142.5l-0.2-1.1h-0.1c-0.4,0.5-0.7,0.8-1.1,1c-0.4,0.2-0.8,0.3-1.4,0.3
		c-0.7,0-1.3-0.2-1.7-0.6c-0.4-0.4-0.6-0.9-0.6-1.6c0-1.5,1.2-2.3,3.6-2.4l1.3,0v-0.4c0-0.6-0.1-1-0.4-1.3c-0.2-0.3-0.6-0.4-1.2-0.4
		c-0.4,0-0.8,0.1-1.1,0.2c-0.4,0.1-0.7,0.3-1,0.4l-0.4-0.9c0.4-0.2,0.8-0.4,1.2-0.5c0.4-0.1,0.9-0.2,1.3-0.2c0.9,0,1.6,0.2,2,0.6
		c0.4,0.4,0.7,1,0.7,1.9v5.1H124.8z M122.2,141.6c0.7,0,1.2-0.2,1.6-0.6c0.4-0.4,0.6-0.9,0.6-1.6v-0.7l-1.1,0
		c-0.9,0-1.5,0.2-1.9,0.4c-0.4,0.2-0.6,0.6-0.6,1.1c0,0.4,0.1,0.7,0.4,0.9C121.4,141.5,121.8,141.6,122.2,141.6z"/>
	<path id="XMLID_70_" class="st14" d="M133.1,142.5v-4.8c0-0.6-0.1-1.1-0.4-1.4c-0.3-0.3-0.7-0.4-1.3-0.4c-0.8,0-1.3,0.2-1.7,0.6
		c-0.3,0.4-0.5,1.1-0.5,2.1v3.9H128V135h1l0.2,1h0.1c0.2-0.4,0.6-0.7,1-0.9c0.4-0.2,0.9-0.3,1.4-0.3c0.9,0,1.6,0.2,2.1,0.7
		c0.4,0.4,0.7,1.1,0.7,2.1v4.9H133.1z"/>
	<path id="XMLID_72_" class="st14" d="M50,157.3v-4.8c0-1.2-0.5-1.8-1.5-1.8c-0.7,0-1.2,0.2-1.5,0.6c-0.3,0.4-0.5,1-0.5,1.9v4.1
		h-1.2v-4.8c0-0.6-0.1-1-0.4-1.3c-0.2-0.3-0.6-0.4-1.2-0.4c-0.7,0-1.2,0.2-1.5,0.6s-0.5,1.1-0.5,2.1v3.9h-1.2v-7.5h1l0.2,1h0.1
		c0.2-0.4,0.5-0.6,0.9-0.9s0.8-0.3,1.3-0.3c1.2,0,1.9,0.4,2.3,1.3h0.1c0.2-0.4,0.6-0.7,1-0.9s0.9-0.3,1.4-0.3c0.8,0,1.5,0.2,1.9,0.7
		s0.6,1.1,0.6,2.1v4.9H50z"/>
	<path id="XMLID_74_" class="st14" d="M56.7,157.4c-1.1,0-2-0.3-2.6-1c-0.6-0.7-1-1.6-1-2.8c0-1.2,0.3-2.2,0.9-2.9
		c0.6-0.7,1.4-1.1,2.4-1.1c0.9,0,1.7,0.3,2.3,0.9s0.8,1.4,0.8,2.5v0.7h-5.1c0,0.9,0.2,1.5,0.6,1.9c0.4,0.4,1,0.7,1.7,0.7
		c0.4,0,0.8,0,1.1-0.1c0.4-0.1,0.8-0.2,1.3-0.4v1.1c-0.4,0.2-0.8,0.3-1.2,0.4C57.6,157.4,57.2,157.4,56.7,157.4z M56.4,150.6
		c-0.6,0-1.1,0.2-1.4,0.6c-0.3,0.4-0.5,0.9-0.6,1.6h3.8c0-0.7-0.2-1.2-0.5-1.6C57.4,150.8,57,150.6,56.4,150.6z"/>
	<path id="XMLID_77_" class="st14" d="M66.5,157.3v-4.8c0-0.6-0.1-1.1-0.4-1.4c-0.3-0.3-0.7-0.4-1.3-0.4c-0.8,0-1.3,0.2-1.7,0.6
		c-0.3,0.4-0.5,1.1-0.5,2.1v3.9h-1.2v-7.5h1l0.2,1h0.1c0.2-0.4,0.6-0.7,1-0.9c0.4-0.2,0.9-0.3,1.4-0.3c0.9,0,1.6,0.2,2.1,0.7
		c0.4,0.4,0.7,1.1,0.7,2.1v4.9H66.5z"/>
	<path id="XMLID_79_" class="st14" d="M69.2,160.6c-0.4,0-0.8-0.1-1.1-0.2v-1c0.3,0.1,0.6,0.1,0.9,0.1c0.4,0,0.6-0.1,0.8-0.3
		c0.2-0.2,0.2-0.5,0.2-0.9v-8.7h1.2v8.6c0,0.7-0.2,1.3-0.5,1.7C70.4,160.4,69.9,160.6,69.2,160.6z M70,147.7c0-0.3,0.1-0.5,0.2-0.6
		s0.3-0.2,0.5-0.2c0.2,0,0.4,0.1,0.5,0.2s0.2,0.3,0.2,0.6c0,0.3-0.1,0.5-0.2,0.6c-0.1,0.1-0.3,0.2-0.5,0.2c-0.2,0-0.4-0.1-0.5-0.2
		C70,148.2,70,148,70,147.7z"/>
	<path id="XMLID_82_" class="st14" d="M78.3,157.3l-0.2-1.1H78c-0.4,0.5-0.7,0.8-1.1,1c-0.4,0.2-0.8,0.3-1.4,0.3
		c-0.7,0-1.3-0.2-1.7-0.6c-0.4-0.4-0.6-0.9-0.6-1.6c0-1.5,1.2-2.3,3.6-2.4l1.3,0v-0.4c0-0.6-0.1-1-0.4-1.3c-0.2-0.3-0.6-0.4-1.2-0.4
		c-0.4,0-0.8,0.1-1.1,0.2c-0.4,0.1-0.7,0.3-1,0.4l-0.4-0.9c0.4-0.2,0.8-0.4,1.2-0.5c0.4-0.1,0.9-0.2,1.3-0.2c0.9,0,1.6,0.2,2,0.6
		c0.4,0.4,0.7,1,0.7,1.9v5.1H78.3z M75.8,156.4c0.7,0,1.2-0.2,1.6-0.6c0.4-0.4,0.6-0.9,0.6-1.6v-0.7l-1.1,0c-0.9,0-1.5,0.2-1.9,0.4
		c-0.4,0.2-0.6,0.6-0.6,1.1c0,0.4,0.1,0.7,0.4,0.9C75,156.3,75.3,156.4,75.8,156.4z"/>
	<path id="XMLID_121_" class="st14" d="M86.5,157.2l0-0.9h-0.1c-0.5,0.8-1.3,1.1-2.3,1.1c-1,0-1.7-0.3-2.3-1s-0.8-1.6-0.8-2.9
		c0-1.2,0.3-2.2,0.8-2.9s1.3-1,2.3-1c1,0,1.8,0.4,2.4,1.1h0.1l0.2-1h1v7.6c0,1.1-0.3,1.9-0.8,2.4c-0.5,0.5-1.4,0.8-2.5,0.8
		c-1.1,0-2-0.2-2.7-0.5V159c0.7,0.4,1.7,0.6,2.8,0.6c0.6,0,1.1-0.2,1.5-0.6c0.4-0.4,0.6-0.9,0.6-1.6V157.2z M84.4,156.4
		c0.8,0,1.3-0.2,1.7-0.6c0.3-0.4,0.5-1.1,0.5-2v-0.3c0-1-0.2-1.7-0.5-2.2c-0.3-0.5-0.9-0.7-1.7-0.7c-0.6,0-1.1,0.2-1.5,0.7
		s-0.5,1.2-0.5,2.1c0,0.9,0.2,1.6,0.5,2.1C83.2,156.2,83.7,156.4,84.4,156.4z"/>
	<path id="XMLID_126_" class="st14" d="M94.8,157.3l-0.2-1.1h-0.1c-0.4,0.5-0.7,0.8-1.1,1c-0.4,0.2-0.8,0.3-1.4,0.3
		c-0.7,0-1.3-0.2-1.7-0.6c-0.4-0.4-0.6-0.9-0.6-1.6c0-1.5,1.2-2.3,3.6-2.4l1.3,0v-0.4c0-0.6-0.1-1-0.4-1.3c-0.2-0.3-0.6-0.4-1.2-0.4
		c-0.4,0-0.8,0.1-1.1,0.2c-0.4,0.1-0.7,0.3-1,0.4l-0.4-0.9c0.4-0.2,0.8-0.4,1.2-0.5c0.4-0.1,0.9-0.2,1.3-0.2c0.9,0,1.6,0.2,2,0.6
		c0.4,0.4,0.7,1,0.7,1.9v5.1H94.8z M92.2,156.4c0.7,0,1.2-0.2,1.6-0.6c0.4-0.4,0.6-0.9,0.6-1.6v-0.7l-1.1,0c-0.9,0-1.5,0.2-1.9,0.4
		c-0.4,0.2-0.6,0.6-0.6,1.1c0,0.4,0.1,0.7,0.4,0.9C91.5,156.3,91.8,156.4,92.2,156.4z"/>
	<path id="XMLID_131_" class="st14" d="M106.5,155.2c0,0.7-0.3,1.2-0.8,1.6c-0.5,0.4-1.3,0.6-2.2,0.6c-1,0-1.8-0.2-2.4-0.5v-1.1
		c0.8,0.4,1.6,0.6,2.4,0.6c0.6,0,1.1-0.1,1.4-0.3c0.3-0.2,0.4-0.5,0.4-0.8c0-0.3-0.1-0.5-0.4-0.8s-0.8-0.4-1.4-0.7
		c-0.7-0.3-1.2-0.5-1.5-0.7c-0.3-0.2-0.5-0.4-0.6-0.7c-0.1-0.2-0.2-0.5-0.2-0.9c0-0.6,0.3-1.1,0.8-1.5c0.5-0.4,1.2-0.5,2.1-0.5
		c0.9,0,1.6,0.2,2.4,0.5l-0.4,1c-0.8-0.3-1.4-0.5-2.1-0.5c-0.5,0-0.9,0.1-1.2,0.2c-0.3,0.2-0.4,0.4-0.4,0.7c0,0.3,0.1,0.5,0.3,0.7
		c0.2,0.2,0.8,0.4,1.6,0.7c0.6,0.2,1.1,0.4,1.4,0.6c0.3,0.2,0.5,0.4,0.7,0.7C106.4,154.5,106.5,154.8,106.5,155.2z"/>
	<path id="XMLID_134_" class="st14" d="M113,157.3l-0.2-1.1h-0.1c-0.4,0.5-0.7,0.8-1.1,1c-0.4,0.2-0.8,0.3-1.4,0.3
		c-0.7,0-1.3-0.2-1.7-0.6c-0.4-0.4-0.6-0.9-0.6-1.6c0-1.5,1.2-2.3,3.6-2.4l1.3,0v-0.4c0-0.6-0.1-1-0.4-1.3c-0.2-0.3-0.6-0.4-1.2-0.4
		c-0.4,0-0.8,0.1-1.1,0.2c-0.4,0.1-0.7,0.3-1,0.4l-0.4-0.9c0.4-0.2,0.8-0.4,1.2-0.5c0.4-0.1,0.9-0.2,1.3-0.2c0.9,0,1.6,0.2,2,0.6
		c0.4,0.4,0.7,1,0.7,1.9v5.1H113z M110.4,156.4c0.7,0,1.2-0.2,1.6-0.6c0.4-0.4,0.6-0.9,0.6-1.6v-0.7l-1.1,0c-0.9,0-1.5,0.2-1.9,0.4
		c-0.4,0.2-0.6,0.6-0.6,1.1c0,0.4,0.1,0.7,0.4,0.9C109.7,156.3,110,156.4,110.4,156.4z"/>
	<path id="XMLID_137_" class="st14" d="M118.7,156.4c0.2,0,0.3,0,0.6,0c0.2,0,0.4-0.1,0.5-0.1v0.9c-0.1,0-0.3,0.1-0.5,0.1
		s-0.5,0.1-0.7,0.1c-1.5,0-2.2-0.8-2.2-2.3v-4.4h-1.1v-0.6l1.1-0.5l0.5-1.6h0.7v1.7h2.2v1h-2.2v4.3c0,0.4,0.1,0.8,0.3,1
		S118.3,156.4,118.7,156.4z"/>
	<path id="XMLID_139_" class="st14" d="M122.4,149.8v4.8c0,0.6,0.1,1.1,0.4,1.3s0.7,0.4,1.3,0.4c0.8,0,1.3-0.2,1.7-0.6
		c0.4-0.4,0.5-1.1,0.5-2.1v-3.9h1.2v7.5h-1l-0.2-1h-0.1c-0.2,0.4-0.5,0.6-1,0.8c-0.4,0.2-0.9,0.3-1.4,0.3c-0.9,0-1.6-0.2-2-0.6
		c-0.5-0.4-0.7-1.1-0.7-2.1v-4.9H122.4z"/>
	<path id="XMLID_141_" class="st14" d="M45.3,170c0,0.7-0.3,1.2-0.8,1.6c-0.5,0.4-1.3,0.6-2.2,0.6c-1,0-1.8-0.2-2.4-0.5v-1.1
		c0.8,0.4,1.6,0.6,2.4,0.6c0.6,0,1.1-0.1,1.4-0.3c0.3-0.2,0.4-0.5,0.4-0.8c0-0.3-0.1-0.5-0.4-0.8s-0.8-0.4-1.4-0.7
		c-0.7-0.3-1.2-0.5-1.5-0.7c-0.3-0.2-0.5-0.4-0.6-0.7c-0.1-0.2-0.2-0.5-0.2-0.9c0-0.6,0.3-1.1,0.8-1.5c0.5-0.4,1.2-0.5,2.1-0.5
		c0.9,0,1.6,0.2,2.4,0.5l-0.4,1c-0.8-0.3-1.4-0.5-2.1-0.5c-0.5,0-0.9,0.1-1.2,0.2c-0.3,0.2-0.4,0.4-0.4,0.7c0,0.3,0.1,0.5,0.3,0.7
		c0.2,0.2,0.8,0.4,1.6,0.7c0.6,0.2,1.1,0.4,1.4,0.6c0.3,0.2,0.5,0.4,0.7,0.7C45.2,169.3,45.3,169.6,45.3,170z"/>
	<path id="XMLID_143_" class="st14" d="M51.8,172.1l-0.2-1.1h-0.1c-0.4,0.5-0.7,0.8-1.1,1c-0.4,0.2-0.8,0.2-1.4,0.2
		c-0.7,0-1.3-0.2-1.7-0.6c-0.4-0.4-0.6-0.9-0.6-1.6c0-1.5,1.2-2.3,3.6-2.4l1.3,0v-0.4c0-0.6-0.1-1-0.4-1.3c-0.2-0.3-0.6-0.4-1.2-0.4
		c-0.4,0-0.8,0.1-1.1,0.2c-0.4,0.1-0.7,0.3-1,0.4l-0.4-0.9c0.4-0.2,0.8-0.4,1.2-0.5c0.4-0.1,0.9-0.2,1.3-0.2c0.9,0,1.6,0.2,2,0.6
		c0.4,0.4,0.7,1,0.7,1.9v5.1H51.8z M49.2,171.2c0.7,0,1.2-0.2,1.6-0.6c0.4-0.4,0.6-0.9,0.6-1.6v-0.7l-1.1,0c-0.9,0-1.5,0.2-1.9,0.4
		c-0.4,0.2-0.6,0.6-0.6,1.1c0,0.4,0.1,0.7,0.4,0.9C48.4,171.1,48.8,171.2,49.2,171.2z"/>
	<path id="XMLID_146_" class="st14" d="M64.5,172.1v-4.8c0-1.2-0.5-1.8-1.5-1.8c-0.7,0-1.2,0.2-1.5,0.6c-0.3,0.4-0.5,1-0.5,1.9v4.1
		h-1.2v-4.8c0-0.6-0.1-1-0.4-1.3c-0.2-0.3-0.6-0.4-1.2-0.4c-0.7,0-1.2,0.2-1.5,0.6s-0.5,1.1-0.5,2.1v3.9H55v-7.5h1l0.2,1h0.1
		c0.2-0.4,0.5-0.6,0.9-0.9s0.8-0.3,1.3-0.3c1.2,0,1.9,0.4,2.3,1.3h0.1c0.2-0.4,0.6-0.7,1-0.9s0.9-0.3,1.4-0.3c0.8,0,1.5,0.2,1.9,0.7
		s0.6,1.1,0.6,2.1v4.9H64.5z"/>
	<path id="XMLID_148_" class="st14" d="M72.7,172.1l-0.2-1.1h-0.1c-0.4,0.5-0.7,0.8-1.1,1c-0.4,0.2-0.8,0.2-1.4,0.2
		c-0.7,0-1.3-0.2-1.7-0.6c-0.4-0.4-0.6-0.9-0.6-1.6c0-1.5,1.2-2.3,3.6-2.4l1.3,0v-0.4c0-0.6-0.1-1-0.4-1.3c-0.2-0.3-0.6-0.4-1.2-0.4
		c-0.4,0-0.8,0.1-1.1,0.2c-0.4,0.1-0.7,0.3-1,0.4l-0.4-0.9c0.4-0.2,0.8-0.4,1.2-0.5c0.4-0.1,0.9-0.2,1.3-0.2c0.9,0,1.6,0.2,2,0.6
		c0.4,0.4,0.7,1,0.7,1.9v5.1H72.7z M70.2,171.2c0.7,0,1.2-0.2,1.6-0.6c0.4-0.4,0.6-0.9,0.6-1.6v-0.7l-1.1,0c-0.9,0-1.5,0.2-1.9,0.4
		c-0.4,0.2-0.6,0.6-0.6,1.1c0,0.4,0.1,0.7,0.4,0.9C69.4,171.1,69.7,171.2,70.2,171.2z"/>
	<path id="XMLID_151_" class="st14" d="M80.8,172.1h-1.2v-10.6h1.2V172.1z"/>
	<path id="XMLID_153_" class="st14" d="M87.8,172.1l-0.2-1.1h-0.1c-0.4,0.5-0.7,0.8-1.1,1c-0.4,0.2-0.8,0.2-1.4,0.2
		c-0.7,0-1.3-0.2-1.7-0.6c-0.4-0.4-0.6-0.9-0.6-1.6c0-1.5,1.2-2.3,3.6-2.4l1.3,0v-0.4c0-0.6-0.1-1-0.4-1.3c-0.2-0.3-0.6-0.4-1.2-0.4
		c-0.4,0-0.8,0.1-1.1,0.2c-0.4,0.1-0.7,0.3-1,0.4l-0.4-0.9c0.4-0.2,0.8-0.4,1.2-0.5c0.4-0.1,0.9-0.2,1.3-0.2c0.9,0,1.6,0.2,2,0.6
		c0.4,0.4,0.7,1,0.7,1.9v5.1H87.8z M85.3,171.2c0.7,0,1.2-0.2,1.6-0.6c0.4-0.4,0.6-0.9,0.6-1.6v-0.7l-1.1,0c-0.9,0-1.5,0.2-1.9,0.4
		c-0.4,0.2-0.6,0.6-0.6,1.1c0,0.4,0.1,0.7,0.4,0.9C84.5,171.1,84.8,171.2,85.3,171.2z"/>
	<path id="XMLID_156_" class="st14" d="M90.9,162.5c0-0.3,0.1-0.5,0.2-0.6s0.3-0.2,0.5-0.2c0.2,0,0.4,0.1,0.5,0.2s0.2,0.3,0.2,0.6
		c0,0.3-0.1,0.5-0.2,0.6c-0.1,0.1-0.3,0.2-0.5,0.2c-0.2,0-0.4-0.1-0.5-0.2C91,163,90.9,162.8,90.9,162.5z M92.3,172.1H91v-7.5h1.2
		V172.1z"/>
	<path id="XMLID_159_" class="st14" d="M99.7,172.1v-4.8c0-0.6-0.1-1.1-0.4-1.4c-0.3-0.3-0.7-0.4-1.3-0.4c-0.8,0-1.3,0.2-1.7,0.6
		c-0.3,0.4-0.5,1.1-0.5,2.1v3.9h-1.2v-7.5h1l0.2,1h0.1c0.2-0.4,0.6-0.7,1-0.9c0.4-0.2,0.9-0.3,1.4-0.3c0.9,0,1.6,0.2,2.1,0.7
		c0.4,0.4,0.7,1.1,0.7,2.1v4.9H99.7z"/>
</g>
</svg>
