<?xml version="1.0" encoding="utf-8"?>
<!-- Generator: Adobe Illustrator 19.0.0, SVG Export Plug-In . SVG Version: 6.00 Build 0)  -->
<svg version="1.1" id="Layer_1" xmlns="http://www.w3.org/2000/svg" xmlns:xlink="http://www.w3.org/1999/xlink" x="0px" y="0px"
	 viewBox="-66 151 300 441" style="enable-background:new -66 151 300 441;" xml:space="preserve">
<style type="text/css">
	.st0{fill:#30B9C4;}
	.st1{fill:#0F5A7C;}
	.st2{fill:#338AA8;}
	.st3{fill:#D0DEE2;}
	.st4{fill:#0D3E4F;}
	.st5{opacity:0.39;fill:#0F5A7C;}
	.st6{fill:#FFB48F;}
	.st7{fill:#ED9D7A;}
	.st8{fill:#FFFFFF;stroke:#FF0013;stroke-width:2;stroke-miterlimit:10;}
	.st9{fill:#B93003;}
	.st10{fill:none;stroke:#000000;stroke-width:0.5;stroke-linecap:round;stroke-linejoin:round;stroke-miterlimit:10;}
	.st11{fill:#33CCCC;}
	.st12{fill:#999547;}
	.st13{fill:#D8D848;}
</style>
<rect id="XMLID_1329_" x="27.8" y="397.8" class="st0" width="111.9" height="12.8"/>
<polygon id="XMLID_1328_" class="st1" points="85.9,414.1 27.8,436 27.8,431.5 84.8,411 "/>
<rect id="XMLID_1327_" x="77.8" y="424.3" transform="matrix(-0.942 -0.3355 0.3355 -0.942 88.484 867.2283)" class="st1" width="82.6" height="3.3"/>
<rect id="XMLID_1326_" x="77.9" y="397.8" class="st1" width="9.8" height="17.2"/>
<rect id="XMLID_1325_" x="27.8" y="391.6" class="st1" width="111.9" height="6.2"/>
<rect id="XMLID_1324_" x="27.8" y="407.4" class="st2" width="111.9" height="8"/>
<rect id="XMLID_1323_" x="27.8" y="415" class="st1" width="111.9" height="4.5"/>
<rect id="XMLID_1322_" x="-24.3" y="218.4" class="st1" width="24.4" height="23.3"/>
<rect id="XMLID_1321_" x="-30.5" y="241.4" class="st1" width="36.9" height="25.9"/>
<rect id="XMLID_1320_" x="-37.6" y="267.3" class="st1" width="51.1" height="37.3"/>
<rect id="XMLID_1319_" x="-45.4" y="307.7" class="st1" width="66.6" height="48.1"/>
<rect id="XMLID_1318_" x="-51.9" y="355.7" class="st1" width="79.6" height="227.2"/>
<polyline id="XMLID_2320_" class="st1" points="-24.4,218.6 -12.2,205.8 0.3,218.3 -24.4,218.3 "/>
<polyline id="XMLID_2321_" class="st3" points="-11.9,199.9 -11.9,162.5 -14,199.9 -11.9,199.9 "/>
<polyline id="XMLID_2322_" class="st3" points="-11.9,199.9 -11.9,162.5 -9.9,199.9 -11.9,199.9 "/>
<rect id="XMLID_1314_" x="-51.9" y="575.4" class="st4" width="79.6" height="16.4"/>
<rect id="XMLID_1313_" x="-51.9" y="564.3" class="st4" width="79.6" height="6.1"/>
<rect id="XMLID_1311_" x="-51.9" y="552.3" class="st4" width="79.6" height="6.1"/>
<rect id="XMLID_1310_" x="-51.9" y="540.4" class="st4" width="79.6" height="6.1"/>
<rect id="XMLID_1309_" x="-51.9" y="528.4" class="st4" width="79.6" height="6.1"/>
<rect id="XMLID_1308_" x="-51.9" y="516.5" class="st4" width="79.6" height="6.1"/>
<rect id="XMLID_1307_" x="-51.9" y="504.6" class="st4" width="79.6" height="6.1"/>
<rect id="XMLID_1306_" x="-51.9" y="492.6" class="st4" width="79.6" height="6.1"/>
<rect id="XMLID_1305_" x="-51.9" y="480.7" class="st4" width="79.6" height="6.1"/>
<rect id="XMLID_1304_" x="-51.9" y="468.8" class="st4" width="79.6" height="6.1"/>
<rect id="XMLID_1303_" x="-51.9" y="456.8" class="st4" width="79.6" height="6.1"/>
<rect id="XMLID_1301_" x="-51.9" y="444.9" class="st4" width="79.6" height="6.1"/>
<rect id="XMLID_1300_" x="-51.9" y="432.9" class="st4" width="79.6" height="6.1"/>
<rect id="XMLID_1299_" x="-51.9" y="421" class="st4" width="79.6" height="6.1"/>
<rect id="XMLID_1298_" x="-51.9" y="409.1" class="st4" width="79.6" height="6.1"/>
<rect id="XMLID_1297_" x="-51.9" y="397.1" class="st4" width="79.6" height="6.1"/>
<rect id="XMLID_1296_" x="-51.9" y="385.2" class="st4" width="79.6" height="6.1"/>
<rect id="XMLID_1295_" x="-51.9" y="373.3" class="st4" width="79.6" height="6.1"/>
<rect id="XMLID_1294_" x="-51.9" y="361.3" class="st4" width="79.6" height="6.1"/>
<rect id="XMLID_1_" x="-51.9" y="350" class="st4" width="79.6" height="6.1"/>
<rect id="XMLID_1292_" x="-45.2" y="325.5" class="st4" width="66.4" height="6.1"/>
<rect id="XMLID_1291_" x="-45.2" y="313.6" class="st4" width="66.4" height="6.1"/>
<rect id="XMLID_1290_" x="-45.2" y="301.6" class="st4" width="66.4" height="6.1"/>
<rect id="XMLID_1289_" x="-37.6" y="289.7" class="st4" width="51.1" height="6.1"/>
<rect id="XMLID_1288_" x="-37.6" y="277.8" class="st4" width="51.1" height="6.1"/>
<rect id="XMLID_1287_" x="-37.6" y="267.5" class="st4" width="51.1" height="4.4"/>
<rect id="XMLID_1286_" x="-30.5" y="253.9" class="st4" width="36.9" height="6.1"/>
<rect id="XMLID_1284_" x="-24.2" y="230" class="st4" width="24.3" height="6.1"/>
<rect id="XMLID_1293_" x="-45.2" y="337.4" class="st4" width="66.4" height="6.1"/>
<rect id="XMLID_1283_" x="-24.2" y="218.1" class="st4" width="24.3" height="6.1"/>
<circle id="XMLID_2323_" class="st1" cx="-12.1" cy="203.2" r="3.6"/>
<g id="XMLID_2324_">
	<rect id="XMLID_1280_" x="167.3" y="218.6" class="st1" width="24.4" height="23.3"/>
	<rect id="XMLID_1279_" x="161.1" y="241.6" class="st1" width="36.9" height="24.4"/>
	<rect id="XMLID_1278_" x="153.9" y="267.6" class="st1" width="51.1" height="40.4"/>
	<rect id="XMLID_1277_" x="146.2" y="308" class="st1" width="66.6" height="48.1"/>
	<rect id="XMLID_1276_" x="139.7" y="353" class="st1" width="79.6" height="230.2"/>
	<polyline id="XMLID_2325_" class="st1" points="167.2,218.8 179.4,206 191.8,218.5 167.2,218.5 	"/>
	<polyline id="XMLID_2326_" class="st3" points="179.7,203.7 179.7,166.2 177.6,203.7 179.7,203.7 	"/>
	<polyline id="XMLID_2327_" class="st3" points="179.7,203.7 179.7,166.2 181.7,203.7 179.7,203.7 	"/>
	<rect id="XMLID_1272_" x="139.7" y="575.7" class="st4" width="79.6" height="16.4"/>
	<rect id="XMLID_1271_" x="139.7" y="564.5" class="st4" width="79.6" height="6.1"/>
	<rect id="XMLID_1270_" x="139.7" y="552.6" class="st4" width="79.6" height="6.1"/>
	<rect id="XMLID_1269_" x="139.7" y="540.6" class="st4" width="79.6" height="6.1"/>
	<rect id="XMLID_1268_" x="139.7" y="528.7" class="st4" width="79.6" height="6.1"/>
	<rect id="XMLID_1267_" x="139.7" y="516.7" class="st4" width="79.6" height="6.1"/>
	<rect id="XMLID_1266_" x="139.7" y="504.8" class="st4" width="79.6" height="6.1"/>
	<rect id="XMLID_1265_" x="139.7" y="492.9" class="st4" width="79.6" height="6.1"/>
	<rect id="XMLID_1264_" x="139.7" y="480.9" class="st4" width="79.6" height="6.1"/>
	<rect id="XMLID_1263_" x="139.7" y="469" class="st4" width="79.6" height="6.1"/>
	<rect id="XMLID_1262_" x="139.7" y="457.1" class="st4" width="79.6" height="6.1"/>
	<rect id="XMLID_1261_" x="139.7" y="445.1" class="st4" width="79.6" height="6.1"/>
	<rect id="XMLID_1260_" x="139.7" y="433.2" class="st4" width="79.6" height="6.1"/>
	<rect id="XMLID_1259_" x="139.7" y="421.2" class="st4" width="79.6" height="6.1"/>
	<rect id="XMLID_1258_" x="139.7" y="409.3" class="st4" width="79.6" height="6.1"/>
	<rect id="XMLID_1257_" x="139.7" y="397.4" class="st4" width="79.6" height="6.1"/>
	<rect id="XMLID_1256_" x="139.7" y="385.4" class="st4" width="79.6" height="6.1"/>
	<rect id="XMLID_1255_" x="139.7" y="373.5" class="st4" width="79.6" height="6.1"/>
	<rect id="XMLID_1254_" x="139.7" y="361.6" class="st4" width="79.6" height="6.1"/>
	<rect id="XMLID_1253_" x="139.7" y="349.6" class="st4" width="79.6" height="6.1"/>
	<rect id="XMLID_1252_" x="146.3" y="337.7" class="st4" width="66.4" height="6.1"/>
	<rect id="XMLID_1251_" x="146.3" y="325.7" class="st4" width="66.4" height="6.1"/>
	<rect id="XMLID_1250_" x="146.3" y="313.6" class="st4" width="66.4" height="6.1"/>
	<rect id="XMLID_1249_" x="146.3" y="301.9" class="st4" width="66.4" height="6.1"/>
	<rect id="XMLID_1248_" x="153.9" y="289.9" class="st4" width="51.1" height="6.1"/>
	<rect id="XMLID_1247_" x="153.9" y="278" class="st4" width="51.1" height="6.1"/>
	<rect id="XMLID_1246_" x="153.9" y="266.1" class="st4" width="51.1" height="6.1"/>
	<rect id="XMLID_1245_" x="161.1" y="254.1" class="st4" width="36.9" height="6.1"/>
	<rect id="XMLID_1244_" x="161.1" y="242.2" class="st4" width="36.9" height="6.1"/>
	<rect id="XMLID_1243_" x="167.4" y="230.2" class="st4" width="24.3" height="6.1"/>
	<rect id="XMLID_1242_" x="167.4" y="218.3" class="st4" width="24.3" height="6.1"/>
	<circle id="XMLID_2328_" class="st1" cx="179.7" cy="204.8" r="3.6"/>
</g>
<rect id="XMLID_1238_" x="139.7" y="349.6" class="st5" width="37.9" height="242.5"/>
<rect id="XMLID_2_" x="-51.9" y="349.6" class="st5" width="37.9" height="242.5"/>
<rect id="XMLID_1237_" x="153.9" y="266" class="st5" width="24.7" height="35.8"/>
<rect id="XMLID_1236_" x="146.3" y="301.7" class="st5" width="31.3" height="47.9"/>
<rect id="XMLID_1235_" x="161.1" y="241.6" class="st5" width="17.5" height="24.4"/>
<rect id="XMLID_1234_" x="-37.6" y="265.8" class="st5" width="24.7" height="35.8"/>
<rect id="XMLID_1233_" x="-45.3" y="301.5" class="st5" width="31.3" height="47.9"/>
<g id="XMLID_3933_">
	<g id="XMLID_3934_">
		<path id="XMLID_3935_" d="M58.7,463.8l0,1.1v43.6l49.1-0.7v-42.6v0.1l0.1-1.3c0-8.6-11-15.6-24.6-15.6S58.7,455.1,58.7,463.8"/>
		<path id="XMLID_1228_" class="st6" d="M105.9,487.9c0-2.5-2-4.5-4.5-4.5H101c-2.5,0-4.5,2-4.5,4.5v0.4c0,2.5,2,4.5,4.5,4.5h0.4
			c2.5,0,4.5-2,4.5-4.5V487.9z"/>
		<path id="XMLID_1227_" class="st6" d="M65.6,483.4h-0.4c-2.5,0-4.5,2-4.5,4.5v0.4c0,2.5,2,4.5,4.5,4.5h0.4"/>
		<polyline id="XMLID_3936_" class="st7" points="75.9,504.5 75.9,518.8 90.6,518.8 90.6,504.5 		"/>
		<path id="XMLID_3937_" class="st6" d="M100.9,479v13.8c-1.6,13-18.4,14.6-18.4,14.6s-9.1-0.6-14.3-6.9c0,0-3.5-3.2-3.2-10.6v-10.6
			h7.4v-12.6l6.1,12.3L100.9,479z"/>
		<path id="XMLID_1224_" d="M76.9,487.5c0,1-0.8,1.9-1.9,1.9h-0.2c-1,0-1.9-0.8-1.9-1.9v-2.2c0-1,0.8-1.9,1.9-1.9H75
			c1,0,1.9,0.8,1.9,1.9V487.5z"/>
		<path id="XMLID_1223_" d="M94.6,487.5c0,1-0.8,1.9-1.9,1.9h-0.2c-1,0-1.9-0.8-1.9-1.9v-2.2c0-1,0.8-1.9,1.9-1.9h0.2
			c1,0,1.9,0.8,1.9,1.9V487.5z"/>
		<path id="XMLID_3938_" class="st8" d="M91.6,515.7h-7.4H82h-7.2c-13.7,2.9-15.2,15-15.2,15H82h2.2h22.6
			C106.8,530.7,105.3,518.6,91.6,515.7z"/>
		<polygon id="XMLID_3939_" class="st9" points="84.1,485.1 82.1,491 86.2,491 		"/>
		<path id="XMLID_3940_" class="st10" d="M93.9,484.6c0,0,0.7,1.5,2.3,0"/>
		<path id="XMLID_3941_" class="st10" d="M71.5,484.6c0,0,0.7,1.5,2.3,0"/>
		<rect id="XMLID_1216_" x="55.3" y="530.6" class="st11" width="55.7" height="41.4"/>
	</g>
	<rect id="XMLID_1214_" x="55.3" y="553.1" class="st12" width="55.7" height="18.9"/>
	<path id="XMLID_3942_" class="st12" d="M65.4,553.1l7.6-30.9l18-9.4c0,0,15.9-0.8,20.1,17.7v22.6H65.4z"/>
	<path id="XMLID_3944_" class="st12" d="M75.9,512.9l8.2,10.6l-18.8,29.6H55.3v-22.6C55.3,530.6,57.3,512.9,75.9,512.9z"/>
	<path id="XMLID_3945_" class="st7" d="M90.8,512.9c0,4.1-3.3,7.4-7.4,7.4c-4.1,0-7.4-3.3-7.4-7.4"/>
	<rect id="XMLID_1210_" x="82.9" y="520.3" class="st13" width="1.7" height="16.5"/>
</g>
<rect id="XMLID_1285_" x="-30.5" y="241.9" class="st4" width="36.9" height="6.1"/>
<rect id="XMLID_1232_" x="-30.5" y="241.4" class="st5" width="17.5" height="24.4"/>
</svg>
