<?xml version="1.0" encoding="utf-8"?>
<!-- Generator: Adobe Illustrator 19.0.0, SVG Export Plug-In . SVG Version: 6.00 Build 0)  -->
<svg version="1.1" id="Layer_1" xmlns="http://www.w3.org/2000/svg" xmlns:xlink="http://www.w3.org/1999/xlink" x="0px" y="0px"
	 viewBox="0 0 167.1 181.4" style="enable-background:new 0 0 167.1 181.4;" xml:space="preserve">
<style type="text/css">
	.st0{fill:#E49B5A;}
	.st1{fill:#212956;}
	.st2{fill:#1E2251;}
	.st3{fill:#FFFEFE;}
	.st4{fill:#FFFFFF;}
	.st5{fill:#CD202B;}
	.st6{fill:#404040;}
</style>
<rect id="XMLID_12879_" x="17.1" y="0" class="st0" width="150" height="181.3"/>
<g id="XMLID_12845_">
	<path id="XMLID_12878_" class="st1" d="M119.1,74.2H65.3c-7.7,0-14-6.3-14-14V45.3c0-7.7,6.3-14,14-14h53.7c7.7,0,14,6.3,14,14
		v14.9C133.1,67.9,126.8,74.2,119.1,74.2z"/>
	<path id="XMLID_12877_" class="st2" d="M83.6,37.4L83.6,37.4c-3.2,1.6-7.1,0.3-8.7-2.9L69.2,23c-1.6-3.2-0.3-7.1,2.9-8.7l0,0
		c3.2-1.6,7.1-0.3,8.7,2.9l5.8,11.6C88.1,31.9,86.8,35.8,83.6,37.4z"/>
	<path id="XMLID_12876_" class="st2" d="M95.7,33.9L95.7,33.9c-2.5-2.5-2.6-6.6-0.1-9.1l9-9.2c2.5-2.5,6.6-2.6,9.1-0.1l0,0
		c2.5,2.5,2.6,6.6,0.1,9.1l-9,9.2C102.3,36.4,98.2,36.4,95.7,33.9z"/>
	<path id="XMLID_12875_" class="st1" d="M93.9,35.5h-4.8c-4.6,0-8.3-3.7-8.3-8.3l0,0c0-4.6,3.7-8.3,8.3-8.3h4.8
		c4.6,0,8.3,3.7,8.3,8.3l0,0C102.2,31.7,98.5,35.5,93.9,35.5z"/>
	<circle id="XMLID_12874_" class="st3" cx="94.2" cy="27.1" r="3.8"/>
	<circle id="XMLID_12873_" class="st3" cx="64.4" cy="38.8" r="3.1"/>
	<circle id="XMLID_12872_" class="st3" cx="64.4" cy="48.1" r="3.1"/>
	<circle id="XMLID_12871_" class="st3" cx="64.4" cy="57.4" r="3.1"/>
	<circle id="XMLID_12870_" class="st3" cx="64.4" cy="66.8" r="3.1"/>
	<circle id="XMLID_12869_" class="st3" cx="73.9" cy="38.8" r="3.1"/>
	<circle id="XMLID_12868_" class="st3" cx="73.9" cy="48.1" r="3.1"/>
	<circle id="XMLID_12867_" class="st3" cx="73.9" cy="57.4" r="3.1"/>
	<circle id="XMLID_12866_" class="st3" cx="73.9" cy="66.8" r="3.1"/>
	<circle id="XMLID_12865_" class="st3" cx="83.4" cy="38.8" r="3.1"/>
	<circle id="XMLID_12864_" class="st3" cx="83.4" cy="48.1" r="3.1"/>
	<circle id="XMLID_12863_" class="st3" cx="83.4" cy="57.4" r="3.1"/>
	<circle id="XMLID_12862_" class="st3" cx="83.4" cy="66.8" r="3.1"/>
	<circle id="XMLID_12861_" class="st3" cx="92.9" cy="38.8" r="3.1"/>
	<circle id="XMLID_12860_" class="st3" cx="92.9" cy="48.1" r="3.1"/>
	<circle id="XMLID_12859_" class="st3" cx="92.9" cy="57.4" r="3.1"/>
	<circle id="XMLID_12858_" class="st3" cx="92.9" cy="66.8" r="3.1"/>
	<circle id="XMLID_12857_" class="st3" cx="102.4" cy="38.8" r="3.1"/>
	<circle id="XMLID_12856_" class="st3" cx="102.4" cy="48.1" r="3.1"/>
	<circle id="XMLID_12855_" class="st3" cx="102.4" cy="57.4" r="3.1"/>
	<circle id="XMLID_12854_" class="st3" cx="102.4" cy="66.8" r="3.1"/>
	<circle id="XMLID_12853_" class="st3" cx="111.9" cy="38.8" r="3.1"/>
	<circle id="XMLID_12852_" class="st3" cx="111.9" cy="48.1" r="3.1"/>
	<circle id="XMLID_12851_" class="st3" cx="111.9" cy="57.4" r="3.1"/>
	<circle id="XMLID_12850_" class="st3" cx="111.9" cy="66.8" r="3.1"/>
	<circle id="XMLID_12849_" class="st3" cx="121.4" cy="38.8" r="3.1"/>
	<circle id="XMLID_12848_" class="st3" cx="121.4" cy="48.1" r="3.1"/>
	<circle id="XMLID_12847_" class="st3" cx="121.4" cy="57.4" r="3.1"/>
	<circle id="XMLID_12846_" class="st3" cx="121.4" cy="66.8" r="3.1"/>
</g>
<rect id="XMLID_12844_" x="17.1" y="94.5" class="st4" width="150" height="86.9"/>
<polygon id="XMLID_12843_" class="st4" points="19.2,181.3 19.2,159.7 0,181.4 "/>
<g id="XMLID_12772_">
	<circle id="XMLID_12838_" class="st5" cx="33.6" cy="102" r="4"/>
	<path id="XMLID_12837_" class="st5" d="M29.6,102h8.1v10.1C37.7,112.1,29.6,107.2,29.6,102z"/>
	<circle id="XMLID_12836_" class="st5" cx="41.7" cy="101.8" r="4"/>
	<path id="XMLID_12835_" class="st5" d="M45.7,101.8h-8.1v10.1C37.7,111.9,45.7,107,45.7,101.8z"/>
</g>
<g id="XMLID_29_">
	<g id="XMLID_1303_">
		<path id="XMLID_1452_" class="st6" d="M56.7,109.9l-2.4-7.7h-0.1c0.1,1.6,0.1,2.6,0.1,3.1v4.6h-1.9v-9.8h2.8l2.3,7.5h0l2.5-7.5
			h2.8v9.8h-1.9v-4.7c0-0.2,0-0.5,0-0.8s0-1,0.1-2.3h-0.1l-2.5,7.7H56.7z"/>
		<path id="XMLID_1449_" class="st6" d="M68.8,110c-1.2,0-2.2-0.3-2.8-1c-0.7-0.7-1-1.6-1-2.8c0-1.3,0.3-2.2,0.9-2.9
			c0.6-0.7,1.5-1,2.6-1c1.1,0,1.9,0.3,2.5,0.9c0.6,0.6,0.9,1.4,0.9,2.5v1H67c0,0.6,0.2,1,0.5,1.4c0.3,0.3,0.8,0.5,1.4,0.5
			c0.5,0,0.9,0,1.3-0.1c0.4-0.1,0.8-0.2,1.3-0.5v1.6c-0.4,0.2-0.7,0.3-1.1,0.4C69.9,110,69.4,110,68.8,110z M68.5,103.7
			c-0.4,0-0.8,0.1-1,0.4s-0.4,0.7-0.4,1.2h2.9c0-0.5-0.1-0.9-0.4-1.2S68.9,103.7,68.5,103.7z"/>
		<path id="XMLID_1447_" class="st6" d="M80.5,109.9h-2v-4.4c0-0.5-0.1-0.9-0.3-1.2c-0.2-0.3-0.5-0.4-0.9-0.4c-0.6,0-1,0.2-1.2,0.6
			c-0.3,0.4-0.4,1-0.4,1.9v3.5h-2v-7.5h1.6l0.3,1h0.1c0.2-0.4,0.5-0.6,0.9-0.8s0.9-0.3,1.4-0.3c0.9,0,1.5,0.2,2,0.7
			c0.5,0.5,0.7,1.2,0.7,2V109.9z"/>
		<path id="XMLID_1444_" class="st6" d="M89.1,109.9c0,1.1-0.3,1.9-0.9,2.5c-0.6,0.6-1.6,0.8-2.8,0.8c-1.1,0-2-0.1-2.8-0.4v-1.6
			c0.9,0.4,1.9,0.6,2.9,0.6c1.1,0,1.6-0.6,1.6-1.7v-0.1l0.1-0.9h-0.1c-0.5,0.7-1.2,1.1-2.1,1.1c-0.9,0-1.6-0.3-2.1-1
			s-0.7-1.6-0.7-2.8c0-1.2,0.3-2.2,0.8-2.9c0.5-0.7,1.2-1,2.1-1c0.9,0,1.6,0.4,2.2,1.1h0.1l0.2-1h1.7V109.9z M85.7,108.4
			c0.6,0,0.9-0.2,1.2-0.5c0.2-0.3,0.4-0.8,0.4-1.5v-0.2c0-0.8-0.1-1.4-0.4-1.7s-0.6-0.5-1.2-0.5c-1,0-1.4,0.8-1.4,2.3
			c0,0.8,0.1,1.3,0.4,1.7C84.8,108.3,85.2,108.4,85.7,108.4z"/>
		<path id="XMLID_1441_" class="st6" d="M97.8,109.9c0,1.1-0.3,1.9-0.9,2.5s-1.6,0.8-2.8,0.8c-1.1,0-2-0.1-2.8-0.4v-1.6
			c0.9,0.4,1.9,0.6,2.9,0.6c1.1,0,1.6-0.6,1.6-1.7v-0.1l0.1-0.9h-0.1c-0.5,0.7-1.2,1.1-2.1,1.1c-0.9,0-1.6-0.3-2.1-1
			s-0.7-1.6-0.7-2.8c0-1.2,0.3-2.2,0.8-2.9c0.5-0.7,1.2-1,2.1-1c0.9,0,1.6,0.4,2.2,1.1h0.1l0.2-1h1.7V109.9z M94.4,108.4
			c0.6,0,0.9-0.2,1.2-0.5c0.2-0.3,0.4-0.8,0.4-1.5v-0.2c0-0.8-0.1-1.4-0.4-1.7c-0.2-0.4-0.6-0.5-1.2-0.5c-1,0-1.4,0.8-1.4,2.3
			c0,0.8,0.1,1.3,0.4,1.7C93.5,108.3,93.9,108.4,94.4,108.4z"/>
		<path id="XMLID_1439_" class="st6" d="M105.3,109.9l-0.3-1h-0.1c-0.2,0.3-0.5,0.6-0.9,0.8s-0.9,0.3-1.4,0.3c-0.9,0-1.5-0.2-2-0.7
			s-0.7-1.2-0.7-2v-4.9h2v4.4c0,0.5,0.1,0.9,0.3,1.2c0.2,0.3,0.5,0.4,0.9,0.4c0.6,0,1-0.2,1.2-0.6c0.3-0.4,0.4-1,0.4-1.9v-3.5h2v7.5
			H105.3z"/>
		<path id="XMLID_1437_" class="st6" d="M116,109.9h-2v-4.4c0-0.5-0.1-0.9-0.3-1.2c-0.2-0.3-0.5-0.4-0.9-0.4c-0.6,0-1,0.2-1.2,0.6
			c-0.3,0.4-0.4,1-0.4,1.9v3.5h-2v-7.5h1.6l0.3,1h0.1c0.2-0.4,0.5-0.6,0.9-0.8c0.4-0.2,0.9-0.3,1.4-0.3c0.9,0,1.5,0.2,2,0.7
			s0.7,1.2,0.7,2V109.9z"/>
		<path id="XMLID_1434_" class="st6" d="M122.9,109.9l-0.4-1h-0.1c-0.3,0.4-0.7,0.7-1.1,0.9s-0.8,0.3-1.4,0.3
			c-0.7,0-1.3-0.2-1.7-0.6c-0.4-0.4-0.6-1-0.6-1.8c0-0.8,0.3-1.4,0.8-1.8c0.6-0.4,1.4-0.6,2.5-0.6l1.3,0v-0.3c0-0.8-0.4-1.1-1.2-1.1
			c-0.6,0-1.3,0.2-2.1,0.5l-0.7-1.4c0.9-0.5,1.8-0.7,2.9-0.7c1,0,1.8,0.2,2.3,0.7c0.5,0.4,0.8,1.1,0.8,2v5H122.9z M122.2,106.4
			l-0.8,0c-0.6,0-1,0.1-1.3,0.3c-0.3,0.2-0.4,0.5-0.4,0.9c0,0.6,0.3,0.9,1,0.9c0.5,0,0.9-0.1,1.1-0.4c0.3-0.3,0.4-0.6,0.4-1.1V106.4
			z"/>
		<path id="XMLID_1432_" class="st6" d="M128.4,105.8l0.9-1.1l2.1-2.3h2.3l-3,3.3l3.2,4.3h-2.4l-2.2-3l-0.9,0.7v2.3h-2V99.5h2v4.7
			L128.4,105.8L128.4,105.8z"/>
		<path id="XMLID_1429_" class="st6" d="M139.7,109.9l-0.4-1h-0.1c-0.3,0.4-0.7,0.7-1.1,0.9s-0.8,0.3-1.4,0.3
			c-0.7,0-1.3-0.2-1.7-0.6c-0.4-0.4-0.6-1-0.6-1.8c0-0.8,0.3-1.4,0.8-1.8c0.6-0.4,1.4-0.6,2.5-0.6l1.3,0v-0.3c0-0.8-0.4-1.1-1.2-1.1
			c-0.6,0-1.3,0.2-2.1,0.5l-0.7-1.4c0.9-0.5,1.8-0.7,2.9-0.7c1,0,1.8,0.2,2.3,0.7c0.5,0.4,0.8,1.1,0.8,2v5H139.7z M139.1,106.4
			l-0.8,0c-0.6,0-1,0.1-1.3,0.3c-0.3,0.2-0.4,0.5-0.4,0.9c0,0.6,0.3,0.9,1,0.9c0.5,0,0.9-0.1,1.1-0.4c0.3-0.3,0.4-0.6,0.4-1.1V106.4
			z"/>
		<path id="XMLID_1427_" class="st6" d="M150.2,109.9h-2v-4.4c0-0.5-0.1-0.9-0.3-1.2c-0.2-0.3-0.5-0.4-0.9-0.4c-0.6,0-1,0.2-1.2,0.6
			s-0.4,1-0.4,1.9v3.5h-2v-7.5h1.6l0.3,1h0.1c0.2-0.4,0.5-0.6,0.9-0.8c0.4-0.2,0.9-0.3,1.4-0.3c0.9,0,1.5,0.2,2,0.7
			c0.5,0.5,0.7,1.2,0.7,2V109.9z"/>
		<path id="XMLID_1425_" class="st6" d="M60.5,126.4h-2.4l-2.6-4.1l-0.9,0.6v3.5h-2.1v-9.8h2.1v4.5l0.8-1.2l2.7-3.3h2.3L57,121
			L60.5,126.4z"/>
		<path id="XMLID_1422_" class="st6" d="M66.3,126.4l-0.4-1h-0.1c-0.3,0.4-0.7,0.7-1.1,0.9s-0.8,0.3-1.4,0.3c-0.7,0-1.3-0.2-1.7-0.6
			c-0.4-0.4-0.6-1-0.6-1.8c0-0.8,0.3-1.4,0.8-1.8c0.6-0.4,1.4-0.6,2.5-0.6l1.3,0v-0.3c0-0.8-0.4-1.1-1.2-1.1c-0.6,0-1.3,0.2-2.1,0.5
			l-0.7-1.4c0.9-0.5,1.8-0.7,2.9-0.7c1,0,1.8,0.2,2.3,0.7s0.8,1.1,0.8,2v5H66.3z M65.7,122.9l-0.8,0c-0.6,0-1,0.1-1.3,0.3
			c-0.3,0.2-0.4,0.5-0.4,0.9c0,0.6,0.3,0.9,1,0.9c0.5,0,0.9-0.1,1.1-0.4c0.3-0.3,0.4-0.6,0.4-1.1V122.9z"/>
		<path id="XMLID_1419_" class="st6" d="M69.8,117c0-0.7,0.4-1,1.1-1c0.7,0,1.1,0.3,1.1,1c0,0.3-0.1,0.6-0.3,0.7
			c-0.2,0.2-0.5,0.3-0.8,0.3C70.2,118,69.8,117.6,69.8,117z M71.9,126.4h-2v-7.5h2V126.4z"/>
		<path id="XMLID_1417_" class="st6" d="M81,126.4h-2V122c0-0.5-0.1-0.9-0.3-1.2c-0.2-0.3-0.5-0.4-0.9-0.4c-0.6,0-1,0.2-1.2,0.6
			s-0.4,1-0.4,1.9v3.5h-2v-7.5h1.6l0.3,1H76c0.2-0.4,0.5-0.6,0.9-0.8c0.4-0.2,0.9-0.3,1.4-0.3c0.9,0,1.5,0.2,2,0.7
			c0.5,0.5,0.7,1.2,0.7,2V126.4z"/>
		<path id="XMLID_1415_" class="st6" d="M88.9,126.4h-2v-9.8h5.6v1.7h-3.6v2.5h3.3v1.7h-3.3V126.4z"/>
		<path id="XMLID_1413_" class="st6" d="M99.6,126.4l-0.3-1h-0.1c-0.2,0.3-0.5,0.6-0.9,0.8c-0.4,0.2-0.9,0.3-1.4,0.3
			c-0.9,0-1.5-0.2-2-0.7c-0.4-0.5-0.7-1.2-0.7-2v-4.9h2v4.4c0,0.5,0.1,0.9,0.3,1.2c0.2,0.3,0.5,0.4,0.9,0.4c0.6,0,1-0.2,1.2-0.6
			c0.3-0.4,0.4-1,0.4-1.9v-3.5h2v7.5H99.6z"/>
		<path id="XMLID_1411_" class="st6" d="M107.5,118.8c0.3,0,0.5,0,0.7,0.1l-0.2,1.9c-0.2,0-0.4-0.1-0.6-0.1c-0.7,0-1.2,0.2-1.5,0.5
			c-0.4,0.3-0.5,0.8-0.5,1.4v3.8h-2v-7.5h1.6l0.3,1.3h0.1c0.2-0.4,0.5-0.8,0.9-1S107,118.8,107.5,118.8z"/>
		<path id="XMLID_1408_" class="st6" d="M116.2,122.7c0,1.2-0.3,2.2-1,2.9c-0.6,0.7-1.5,1-2.7,1c-0.7,0-1.4-0.2-1.9-0.5
			c-0.6-0.3-1-0.8-1.3-1.4c-0.3-0.6-0.4-1.3-0.4-2.1c0-1.2,0.3-2.2,1-2.9c0.6-0.7,1.5-1,2.7-1c0.7,0,1.4,0.2,1.9,0.5
			c0.6,0.3,1,0.8,1.3,1.4S116.2,121.9,116.2,122.7z M111,122.7c0,0.7,0.1,1.3,0.4,1.7c0.2,0.4,0.6,0.6,1.2,0.6
			c0.5,0,0.9-0.2,1.2-0.6c0.2-0.4,0.4-0.9,0.4-1.7c0-0.7-0.1-1.3-0.4-1.7c-0.2-0.4-0.6-0.6-1.2-0.6c-0.5,0-0.9,0.2-1.2,0.6
			C111.2,121.4,111,121.9,111,122.7z"/>
		<path id="XMLID_1406_" class="st6" d="M123.2,124.2c0,0.8-0.3,1.4-0.8,1.8c-0.5,0.4-1.3,0.6-2.4,0.6c-0.5,0-1,0-1.4-0.1
			c-0.4-0.1-0.7-0.2-1.1-0.3v-1.7c0.4,0.2,0.8,0.3,1.3,0.5c0.5,0.1,0.9,0.2,1.3,0.2c0.7,0,1.1-0.2,1.1-0.6c0-0.2,0-0.3-0.1-0.4
			c-0.1-0.1-0.3-0.2-0.5-0.3c-0.2-0.1-0.6-0.3-1-0.4c-0.6-0.2-1-0.5-1.3-0.7c-0.3-0.2-0.5-0.4-0.6-0.7c-0.1-0.3-0.2-0.6-0.2-1
			c0-0.7,0.3-1.2,0.8-1.5s1.3-0.5,2.2-0.5c0.9,0,1.8,0.2,2.6,0.6l-0.6,1.5c-0.4-0.2-0.7-0.3-1.1-0.4c-0.3-0.1-0.7-0.2-1-0.2
			c-0.6,0-0.9,0.2-0.9,0.5c0,0.2,0.1,0.3,0.3,0.5c0.2,0.1,0.6,0.3,1.3,0.6c0.6,0.2,1,0.5,1.3,0.7s0.5,0.4,0.6,0.7
			C123.1,123.5,123.2,123.8,123.2,124.2z"/>
		<path id="XMLID_1404_" class="st6" d="M131.7,126.4h-2V122c0-1.1-0.4-1.6-1.2-1.6c-0.6,0-1,0.2-1.2,0.6c-0.3,0.4-0.4,1-0.4,1.9
			v3.5h-2V116h2v2.1c0,0.2,0,0.6,0,1.2l0,0.6h0.1c0.5-0.7,1.2-1.1,2.2-1.1c0.9,0,1.6,0.2,2,0.7s0.7,1.2,0.7,2V126.4z"/>
		<path id="XMLID_1401_" class="st6" d="M133.7,117c0-0.7,0.4-1,1.1-1s1.1,0.3,1.1,1c0,0.3-0.1,0.6-0.3,0.7
			c-0.2,0.2-0.5,0.3-0.8,0.3C134.1,118,133.7,117.6,133.7,117z M135.9,126.4h-2v-7.5h2V126.4z"/>
		<path id="XMLID_1399_" class="st6" d="M140,122.3l0.9-1.1l2.1-2.3h2.3l-3,3.3l3.2,4.3h-2.4l-2.2-3l-0.9,0.7v2.3h-2V116h2v4.7
			L140,122.3L140,122.3z"/>
		<path id="XMLID_1396_" class="st6" d="M146.5,117c0-0.7,0.4-1,1.1-1s1.1,0.3,1.1,1c0,0.3-0.1,0.6-0.3,0.7
			c-0.2,0.2-0.5,0.3-0.8,0.3C146.8,118,146.5,117.6,146.5,117z M148.6,126.4h-2v-7.5h2V126.4z"/>
		<path id="XMLID_1394_" class="st6" d="M57.7,140.7c0,0.8-0.3,1.4-0.8,1.8c-0.5,0.4-1.3,0.6-2.4,0.6c-0.5,0-1,0-1.4-0.1
			c-0.4-0.1-0.7-0.2-1.1-0.3V141c0.4,0.2,0.8,0.3,1.3,0.5c0.5,0.1,0.9,0.2,1.3,0.2c0.7,0,1.1-0.2,1.1-0.6c0-0.2,0-0.3-0.1-0.4
			s-0.3-0.2-0.5-0.3s-0.6-0.3-1-0.4c-0.6-0.2-1-0.5-1.3-0.7c-0.3-0.2-0.5-0.4-0.6-0.7c-0.1-0.3-0.2-0.6-0.2-1c0-0.7,0.3-1.2,0.8-1.5
			s1.3-0.5,2.2-0.5c0.9,0,1.8,0.2,2.6,0.6l-0.6,1.5c-0.4-0.2-0.7-0.3-1.1-0.4c-0.3-0.1-0.7-0.2-1-0.2c-0.6,0-0.9,0.2-0.9,0.5
			c0,0.2,0.1,0.3,0.3,0.5c0.2,0.1,0.6,0.3,1.3,0.6c0.6,0.2,1,0.5,1.3,0.7s0.5,0.4,0.6,0.7C57.6,140,57.7,140.3,57.7,140.7z"/>
		<path id="XMLID_1391_" class="st6" d="M62.7,143.1c-1.2,0-2.2-0.3-2.8-1c-0.7-0.7-1-1.6-1-2.8c0-1.3,0.3-2.2,0.9-2.9
			c0.6-0.7,1.5-1,2.6-1c1.1,0,1.9,0.3,2.5,0.9c0.6,0.6,0.9,1.4,0.9,2.5v1h-4.8c0,0.6,0.2,1,0.5,1.4c0.3,0.3,0.8,0.5,1.4,0.5
			c0.5,0,0.9,0,1.3-0.1c0.4-0.1,0.8-0.2,1.3-0.5v1.6c-0.4,0.2-0.7,0.3-1.1,0.4C63.7,143,63.2,143.1,62.7,143.1z M62.4,136.8
			c-0.4,0-0.8,0.1-1,0.4c-0.2,0.3-0.4,0.7-0.4,1.2h2.9c0-0.5-0.1-0.9-0.4-1.2C63.1,136.9,62.8,136.8,62.4,136.8z"/>
		<path id="XMLID_1388_" class="st6" d="M71.6,135.3c0.9,0,1.6,0.3,2.1,1c0.5,0.7,0.8,1.6,0.8,2.8c0,1.2-0.3,2.2-0.8,2.9
			c-0.5,0.7-1.2,1-2.1,1c-0.9,0-1.6-0.3-2.1-1h-0.1l-0.3,0.8h-1.6v-10.5h2v2.4c0,0.3,0,0.8-0.1,1.5h0.1
			C69.9,135.7,70.6,135.3,71.6,135.3z M70.9,136.9c-0.5,0-0.9,0.2-1.1,0.5s-0.4,0.8-0.4,1.5v0.2c0,0.8,0.1,1.4,0.4,1.7
			c0.2,0.3,0.6,0.5,1.1,0.5c0.4,0,0.8-0.2,1-0.6c0.2-0.4,0.4-1,0.4-1.7s-0.1-1.3-0.4-1.7C71.7,137.1,71.3,136.9,70.9,136.9z"/>
		<path id="XMLID_1385_" class="st6" d="M80.9,142.9l-0.4-1h-0.1c-0.3,0.4-0.7,0.7-1.1,0.9s-0.8,0.3-1.4,0.3c-0.7,0-1.3-0.2-1.7-0.6
			c-0.4-0.4-0.6-1-0.6-1.8c0-0.8,0.3-1.4,0.8-1.8c0.6-0.4,1.4-0.6,2.5-0.6l1.3,0v-0.3c0-0.8-0.4-1.1-1.2-1.1c-0.6,0-1.3,0.2-2.1,0.5
			l-0.7-1.4c0.9-0.5,1.8-0.7,2.9-0.7c1,0,1.8,0.2,2.3,0.7c0.5,0.4,0.8,1.1,0.8,2v5H80.9z M80.3,139.5l-0.8,0c-0.6,0-1,0.1-1.3,0.3
			s-0.4,0.5-0.4,0.9c0,0.6,0.3,0.9,1,0.9c0.5,0,0.9-0.1,1.1-0.4c0.3-0.3,0.4-0.6,0.4-1.1V139.5z"/>
		<path id="XMLID_1382_" class="st6" d="M91,143c0,1.1-0.3,1.9-0.9,2.5c-0.6,0.6-1.6,0.8-2.8,0.8c-1.1,0-2-0.1-2.8-0.4v-1.6
			c0.9,0.4,1.9,0.6,2.9,0.6c1.1,0,1.6-0.6,1.6-1.7v-0.1L89,142h-0.1c-0.5,0.7-1.2,1.1-2.1,1.1c-0.9,0-1.6-0.3-2.1-1
			s-0.7-1.6-0.7-2.8c0-1.2,0.3-2.2,0.8-2.9s1.2-1,2.1-1c0.9,0,1.6,0.4,2.2,1.1h0.1l0.2-1H91V143z M87.5,141.5c0.6,0,0.9-0.2,1.2-0.5
			s0.4-0.8,0.4-1.5v-0.2c0-0.8-0.1-1.4-0.4-1.7c-0.2-0.4-0.6-0.5-1.2-0.5c-1,0-1.4,0.8-1.4,2.3c0,0.8,0.1,1.3,0.4,1.7
			S87,141.5,87.5,141.5z"/>
		<path id="XMLID_1379_" class="st6" d="M97.9,142.9l-0.4-1h-0.1c-0.3,0.4-0.7,0.7-1.1,0.9s-0.8,0.3-1.4,0.3c-0.7,0-1.3-0.2-1.7-0.6
			c-0.4-0.4-0.6-1-0.6-1.8c0-0.8,0.3-1.4,0.8-1.8c0.6-0.4,1.4-0.6,2.5-0.6l1.3,0v-0.3c0-0.8-0.4-1.1-1.2-1.1c-0.6,0-1.3,0.2-2.1,0.5
			l-0.7-1.4c0.9-0.5,1.8-0.7,2.9-0.7c1,0,1.8,0.2,2.3,0.7c0.5,0.4,0.8,1.1,0.8,2v5H97.9z M97.3,139.5l-0.8,0c-0.6,0-1,0.1-1.3,0.3
			c-0.3,0.2-0.4,0.5-0.4,0.9c0,0.6,0.3,0.9,1,0.9c0.5,0,0.9-0.1,1.1-0.4c0.3-0.3,0.4-0.6,0.4-1.1V139.5z"/>
		<path id="XMLID_1376_" class="st6" d="M101.3,133.5c0-0.7,0.4-1,1.1-1c0.7,0,1.1,0.3,1.1,1c0,0.3-0.1,0.6-0.3,0.7
			c-0.2,0.2-0.5,0.3-0.8,0.3C101.7,134.5,101.3,134.2,101.3,133.5z M103.5,142.9h-2v-7.5h2V142.9z"/>
		<path id="XMLID_1374_" class="st6" d="M117.4,142.9h-2.1v-4.2h-3.9v4.2h-2.1v-9.8h2.1v3.9h3.9v-3.9h2.1V142.9z"/>
		<path id="XMLID_1371_" class="st6" d="M124.5,142.9l-0.4-1h-0.1c-0.3,0.4-0.7,0.7-1.1,0.9s-0.8,0.3-1.4,0.3
			c-0.7,0-1.3-0.2-1.7-0.6c-0.4-0.4-0.6-1-0.6-1.8c0-0.8,0.3-1.4,0.8-1.8c0.6-0.4,1.4-0.6,2.5-0.6l1.3,0v-0.3c0-0.8-0.4-1.1-1.2-1.1
			c-0.6,0-1.3,0.2-2.1,0.5l-0.7-1.4c0.9-0.5,1.8-0.7,2.9-0.7c1,0,1.8,0.2,2.3,0.7c0.5,0.4,0.8,1.1,0.8,2v5H124.5z M123.9,139.5
			l-0.8,0c-0.6,0-1,0.1-1.3,0.3c-0.3,0.2-0.4,0.5-0.4,0.9c0,0.6,0.3,0.9,1,0.9c0.5,0,0.9-0.1,1.1-0.4c0.3-0.3,0.4-0.6,0.4-1.1V139.5
			z"/>
		<path id="XMLID_1368_" class="st6" d="M130.4,143.1c-0.9,0-1.6-0.3-2.1-1c-0.5-0.7-0.8-1.6-0.8-2.8c0-1.2,0.3-2.2,0.8-2.9
			c0.5-0.7,1.2-1,2.1-1c0.9,0,1.7,0.4,2.2,1.1h0.1c-0.1-0.6-0.2-1.1-0.2-1.5v-2.4h2.1v10.5H133l-0.4-1h-0.1
			C132.1,142.7,131.4,143.1,130.4,143.1z M131.2,141.4c0.5,0,0.9-0.2,1.2-0.5s0.4-0.8,0.4-1.6v-0.2c0-0.8-0.1-1.4-0.4-1.7
			c-0.2-0.3-0.7-0.5-1.2-0.5c-0.5,0-0.8,0.2-1.1,0.6c-0.3,0.4-0.4,1-0.4,1.7s0.1,1.3,0.4,1.7C130.3,141.3,130.7,141.4,131.2,141.4z"
			/>
		<path id="XMLID_1365_" class="st6" d="M136.7,133.5c0-0.7,0.4-1,1.1-1s1.1,0.3,1.1,1c0,0.3-0.1,0.6-0.3,0.7
			c-0.2,0.2-0.5,0.3-0.8,0.3C137.1,134.5,136.7,134.2,136.7,133.5z M138.8,142.9h-2v-7.5h2V142.9z"/>
		<path id="XMLID_1362_" class="st6" d="M145.7,142.9l-0.4-1h-0.1c-0.3,0.4-0.7,0.7-1.1,0.9s-0.8,0.3-1.4,0.3
			c-0.7,0-1.3-0.2-1.7-0.6c-0.4-0.4-0.6-1-0.6-1.8c0-0.8,0.3-1.4,0.8-1.8c0.6-0.4,1.4-0.6,2.5-0.6l1.3,0v-0.3c0-0.8-0.4-1.1-1.2-1.1
			c-0.6,0-1.3,0.2-2.1,0.5l-0.7-1.4c0.9-0.5,1.8-0.7,2.9-0.7c1,0,1.8,0.2,2.3,0.7c0.5,0.4,0.8,1.1,0.8,2v5H145.7z M145.1,139.5
			l-0.8,0c-0.6,0-1,0.1-1.3,0.3c-0.3,0.2-0.4,0.5-0.4,0.9c0,0.6,0.3,0.9,1,0.9c0.5,0,0.9-0.1,1.1-0.4c0.3-0.3,0.4-0.6,0.4-1.1V139.5
			z"/>
		<path id="XMLID_1360_" class="st6" d="M156.2,142.9h-2v-4.4c0-1.1-0.4-1.6-1.2-1.6c-0.6,0-1,0.2-1.2,0.6s-0.4,1-0.4,1.9v3.5h-2
			v-10.5h2v2.1c0,0.2,0,0.6,0,1.2l0,0.6h0.1c0.5-0.7,1.2-1.1,2.2-1.1c0.9,0,1.6,0.2,2,0.7c0.5,0.5,0.7,1.2,0.7,2V142.9z"/>
		<path id="XMLID_1358_" class="st6" d="M55.8,159.5h-1.2v-8.7h-3.1v-1.1h7.4v1.1h-3.1V159.5z"/>
		<path id="XMLID_1356_" class="st6" d="M63.3,151.9c0.3,0,0.6,0,0.9,0.1l-0.1,1.1c-0.3-0.1-0.5-0.1-0.8-0.1c-0.4,0-0.8,0.1-1.1,0.3
			c-0.3,0.2-0.6,0.5-0.8,0.9s-0.3,0.8-0.3,1.3v3.9h-1.2v-7.4h1l0.1,1.4H61c0.3-0.5,0.6-0.9,1-1.1C62.4,152.1,62.8,151.9,63.3,151.9z
			"/>
		<path id="XMLID_1353_" class="st6" d="M69.9,159.5l-0.2-1h-0.1c-0.4,0.5-0.7,0.8-1.1,0.9c-0.4,0.2-0.8,0.2-1.4,0.2
			c-0.7,0-1.3-0.2-1.7-0.6c-0.4-0.4-0.6-0.9-0.6-1.6c0-1.5,1.2-2.3,3.5-2.4l1.3,0v-0.4c0-0.6-0.1-1-0.4-1.2
			c-0.2-0.3-0.6-0.4-1.2-0.4c-0.4,0-0.8,0.1-1.1,0.2c-0.3,0.1-0.7,0.2-1,0.4l-0.4-0.9c0.4-0.2,0.8-0.4,1.2-0.5
			c0.4-0.1,0.9-0.2,1.3-0.2c0.9,0,1.6,0.2,2,0.6c0.4,0.4,0.7,1,0.7,1.9v5H69.9z M67.4,158.6c0.7,0,1.2-0.2,1.6-0.5
			c0.4-0.4,0.6-0.9,0.6-1.6v-0.7l-1.1,0c-0.8,0-1.5,0.2-1.9,0.4c-0.4,0.2-0.6,0.6-0.6,1.1c0,0.4,0.1,0.7,0.4,0.9
			C66.7,158.5,67,158.6,67.4,158.6z"/>
		<path id="XMLID_1350_" class="st6" d="M75.7,159.6c-1,0-1.7-0.3-2.2-1c-0.5-0.7-0.8-1.6-0.8-2.8c0-1.2,0.3-2.1,0.8-2.8
			c0.5-0.7,1.3-1,2.2-1c1,0,1.8,0.4,2.3,1.1h0.1c0-0.1,0-0.3-0.1-0.5c0-0.3,0-0.5,0-0.5V149h1.2v10.5h-1l-0.2-1H78
			C77.5,159.2,76.7,159.6,75.7,159.6z M75.9,158.6c0.7,0,1.3-0.2,1.6-0.6c0.3-0.4,0.5-1.1,0.5-2v-0.2c0-1-0.2-1.8-0.5-2.2
			c-0.3-0.4-0.9-0.7-1.6-0.7c-0.6,0-1.1,0.2-1.4,0.7c-0.3,0.5-0.5,1.2-0.5,2.1c0,0.9,0.2,1.6,0.5,2.1
			C74.8,158.4,75.3,158.6,75.9,158.6z"/>
		<path id="XMLID_1347_" class="st6" d="M81.5,150.1c0-0.3,0.1-0.5,0.2-0.6s0.3-0.2,0.5-0.2c0.2,0,0.4,0.1,0.5,0.2
			c0.1,0.1,0.2,0.3,0.2,0.6c0,0.3-0.1,0.5-0.2,0.6c-0.1,0.1-0.3,0.2-0.5,0.2c-0.2,0-0.4-0.1-0.5-0.2
			C81.5,150.5,81.5,150.4,81.5,150.1z M82.8,159.5h-1.2v-7.4h1.2V159.5z"/>
		<path id="XMLID_1345_" class="st6" d="M89.9,157.4c0,0.7-0.3,1.2-0.8,1.6c-0.5,0.4-1.2,0.6-2.2,0.6c-1,0-1.7-0.2-2.3-0.5V158
			c0.8,0.4,1.6,0.6,2.3,0.6c0.6,0,1.1-0.1,1.3-0.3s0.4-0.5,0.4-0.8c0-0.3-0.1-0.5-0.4-0.7c-0.3-0.2-0.7-0.4-1.4-0.7
			c-0.7-0.3-1.2-0.5-1.5-0.7s-0.5-0.4-0.6-0.6s-0.2-0.5-0.2-0.9c0-0.6,0.2-1.1,0.7-1.4s1.2-0.5,2-0.5c0.8,0,1.6,0.2,2.4,0.5l-0.4,1
			c-0.7-0.3-1.4-0.5-2-0.5c-0.5,0-0.9,0.1-1.1,0.2s-0.4,0.4-0.4,0.7c0,0.3,0.1,0.5,0.3,0.7c0.2,0.2,0.7,0.4,1.6,0.7
			c0.6,0.2,1.1,0.4,1.4,0.6c0.3,0.2,0.5,0.4,0.6,0.7C89.9,156.8,89.9,157.1,89.9,157.4z"/>
		<path id="XMLID_1342_" class="st6" d="M91.6,150.1c0-0.3,0.1-0.5,0.2-0.6s0.3-0.2,0.5-0.2c0.2,0,0.4,0.1,0.5,0.2
			c0.1,0.1,0.2,0.3,0.2,0.6c0,0.3-0.1,0.5-0.2,0.6c-0.1,0.1-0.3,0.2-0.5,0.2c-0.2,0-0.4-0.1-0.5-0.2
			C91.7,150.5,91.6,150.4,91.6,150.1z M92.9,159.5h-1.2v-7.4h1.2V159.5z"/>
		<path id="XMLID_1339_" class="st6" d="M101.7,155.8c0,1.2-0.3,2.1-0.9,2.8s-1.5,1-2.5,1c-0.7,0-1.3-0.2-1.8-0.5
			c-0.5-0.3-0.9-0.8-1.2-1.3c-0.3-0.6-0.4-1.3-0.4-2c0-1.2,0.3-2.1,0.9-2.8c0.6-0.7,1.4-1,2.5-1c1,0,1.9,0.3,2.5,1
			C101.4,153.7,101.7,154.6,101.7,155.8z M96.1,155.8c0,0.9,0.2,1.6,0.5,2.1s0.9,0.7,1.6,0.7c0.7,0,1.2-0.2,1.6-0.7s0.6-1.2,0.6-2.1
			c0-0.9-0.2-1.6-0.6-2.1c-0.4-0.5-0.9-0.7-1.6-0.7C96.8,153,96.1,153.9,96.1,155.8z"/>
		<path id="XMLID_1337_" class="st6" d="M108.6,159.5v-4.7c0-0.6-0.1-1-0.4-1.3c-0.3-0.3-0.7-0.4-1.3-0.4c-0.8,0-1.3,0.2-1.6,0.6
			c-0.3,0.4-0.5,1.1-0.5,2v3.8h-1.2v-7.4h1l0.2,1h0.1c0.2-0.4,0.5-0.6,1-0.8c0.4-0.2,0.9-0.3,1.4-0.3c0.9,0,1.6,0.2,2,0.7
			c0.4,0.4,0.7,1.1,0.7,2v4.8H108.6z"/>
		<path id="XMLID_1334_" class="st6" d="M116.7,159.5l-0.2-1h-0.1c-0.4,0.5-0.7,0.8-1.1,0.9c-0.4,0.2-0.8,0.2-1.4,0.2
			c-0.7,0-1.3-0.2-1.7-0.6c-0.4-0.4-0.6-0.9-0.6-1.6c0-1.5,1.2-2.3,3.5-2.4l1.3,0v-0.4c0-0.6-0.1-1-0.4-1.2
			c-0.2-0.3-0.6-0.4-1.2-0.4c-0.4,0-0.8,0.1-1.1,0.2c-0.3,0.1-0.7,0.2-1,0.4l-0.4-0.9c0.4-0.2,0.8-0.4,1.2-0.5
			c0.4-0.1,0.9-0.2,1.3-0.2c0.9,0,1.6,0.2,2,0.6c0.4,0.4,0.7,1,0.7,1.9v5H116.7z M114.2,158.6c0.7,0,1.2-0.2,1.6-0.5
			s0.6-0.9,0.6-1.6v-0.7l-1.1,0c-0.8,0-1.5,0.2-1.9,0.4s-0.6,0.6-0.6,1.1c0,0.4,0.1,0.7,0.4,0.9
			C113.4,158.5,113.7,158.6,114.2,158.6z"/>
		<path id="XMLID_1332_" class="st6" d="M121,159.5h-1.2V149h1.2V159.5z"/>
		<path id="XMLID_1329_" class="st6" d="M129.6,159.6c-1,0-1.7-0.3-2.2-1c-0.5-0.7-0.8-1.6-0.8-2.8c0-1.2,0.3-2.1,0.8-2.8
			c0.5-0.7,1.3-1,2.2-1c1,0,1.8,0.4,2.3,1.1h0.1c0-0.1,0-0.3-0.1-0.5c0-0.3,0-0.5,0-0.5V149h1.2v10.5h-1l-0.2-1h-0.1
			C131.3,159.2,130.6,159.6,129.6,159.6z M129.7,158.6c0.7,0,1.3-0.2,1.6-0.6c0.3-0.4,0.5-1.1,0.5-2v-0.2c0-1-0.2-1.8-0.5-2.2
			c-0.3-0.4-0.9-0.7-1.6-0.7c-0.6,0-1.1,0.2-1.4,0.7c-0.3,0.5-0.5,1.2-0.5,2.1c0,0.9,0.2,1.6,0.5,2.1
			C128.6,158.4,129.1,158.6,129.7,158.6z"/>
		<path id="XMLID_1326_" class="st6" d="M140,159.5l-0.2-1h-0.1c-0.4,0.5-0.7,0.8-1.1,0.9c-0.4,0.2-0.8,0.2-1.4,0.2
			c-0.7,0-1.3-0.2-1.7-0.6c-0.4-0.4-0.6-0.9-0.6-1.6c0-1.5,1.2-2.3,3.5-2.4l1.3,0v-0.4c0-0.6-0.1-1-0.4-1.2
			c-0.2-0.3-0.6-0.4-1.2-0.4c-0.4,0-0.8,0.1-1.1,0.2c-0.3,0.1-0.7,0.2-1,0.4l-0.4-0.9c0.4-0.2,0.8-0.4,1.2-0.5
			c0.4-0.1,0.9-0.2,1.3-0.2c0.9,0,1.6,0.2,2,0.6c0.4,0.4,0.7,1,0.7,1.9v5H140z M137.5,158.6c0.7,0,1.2-0.2,1.6-0.5
			c0.4-0.4,0.6-0.9,0.6-1.6v-0.7l-1.1,0c-0.8,0-1.5,0.2-1.9,0.4c-0.4,0.2-0.6,0.6-0.6,1.1c0,0.4,0.1,0.7,0.4,0.9
			C136.7,158.5,137,158.6,137.5,158.6z"/>
		<path id="XMLID_1324_" class="st6" d="M148.2,159.5v-4.7c0-0.6-0.1-1-0.4-1.3c-0.3-0.3-0.7-0.4-1.3-0.4c-0.8,0-1.3,0.2-1.6,0.6
			c-0.3,0.4-0.5,1.1-0.5,2v3.8h-1.2v-7.4h1l0.2,1h0.1c0.2-0.4,0.5-0.6,1-0.8c0.4-0.2,0.9-0.3,1.4-0.3c0.9,0,1.6,0.2,2,0.7
			c0.4,0.4,0.7,1.1,0.7,2v4.8H148.2z"/>
		<path id="XMLID_1321_" class="st6" d="M56,168.5c1,0,1.7,0.3,2.3,1s0.8,1.6,0.8,2.8c0,1.2-0.3,2.2-0.8,2.8c-0.5,0.7-1.3,1-2.2,1
			c-0.5,0-0.9-0.1-1.3-0.3c-0.4-0.2-0.7-0.4-1-0.8h-0.1c-0.1,0.5-0.2,0.8-0.2,0.9h-0.9v-10.5h1.2v2.5c0,0.5,0,1-0.1,1.5h0.1
			C54.2,168.8,55,168.5,56,168.5z M55.8,169.5c-0.7,0-1.3,0.2-1.6,0.6c-0.3,0.4-0.5,1.1-0.5,2.1v0.1c0,1,0.2,1.7,0.5,2.2
			c0.3,0.4,0.9,0.6,1.6,0.6c0.7,0,1.2-0.2,1.5-0.7s0.5-1.2,0.5-2.1c0-0.9-0.2-1.6-0.5-2.1S56.5,169.5,55.8,169.5z"/>
		<path id="XMLID_1318_" class="st6" d="M64.1,176.1c-1.1,0-2-0.3-2.6-1c-0.6-0.7-0.9-1.6-0.9-2.8c0-1.2,0.3-2.1,0.9-2.8
			c0.6-0.7,1.4-1.1,2.4-1.1c0.9,0,1.7,0.3,2.2,0.9c0.6,0.6,0.8,1.4,0.8,2.4v0.7h-5.1c0,0.8,0.2,1.5,0.6,1.9c0.4,0.4,1,0.7,1.7,0.7
			c0.4,0,0.8,0,1.1-0.1c0.4-0.1,0.8-0.2,1.2-0.4v1.1c-0.4,0.2-0.8,0.3-1.1,0.4C65,176.1,64.6,176.1,64.1,176.1z M63.8,169.5
			c-0.6,0-1,0.2-1.4,0.6s-0.5,0.9-0.6,1.6h3.8c0-0.7-0.2-1.2-0.5-1.6C64.8,169.6,64.4,169.5,63.8,169.5z"/>
		<path id="XMLID_1316_" class="st6" d="M72.2,168.5c0.3,0,0.6,0,0.9,0.1l-0.1,1.1c-0.3-0.1-0.5-0.1-0.8-0.1c-0.4,0-0.8,0.1-1.1,0.3
			c-0.3,0.2-0.6,0.5-0.8,0.9s-0.3,0.8-0.3,1.3v3.9h-1.2v-7.4h1l0.1,1.4h0.1c0.3-0.5,0.6-0.9,1-1.1C71.3,168.6,71.7,168.5,72.2,168.5
			z"/>
		<path id="XMLID_1314_" class="st6" d="M83.8,176v-4.8c0-1.2-0.5-1.7-1.5-1.7c-0.7,0-1.2,0.2-1.5,0.6c-0.3,0.4-0.5,1-0.5,1.8v4.1
			h-1.2v-4.8c0-0.6-0.1-1-0.4-1.3c-0.2-0.3-0.6-0.4-1.1-0.4c-0.7,0-1.2,0.2-1.5,0.6c-0.3,0.4-0.5,1.1-0.5,2v3.8h-1.2v-7.4h1l0.2,1
			h0.1c0.2-0.4,0.5-0.6,0.9-0.8s0.8-0.3,1.3-0.3c1.2,0,1.9,0.4,2.3,1.2h0.1c0.2-0.4,0.6-0.7,1-0.9c0.4-0.2,0.9-0.3,1.4-0.3
			c0.8,0,1.5,0.2,1.9,0.6s0.6,1.1,0.6,2.1v4.8H83.8z"/>
		<path id="XMLID_1311_" class="st6" d="M91.9,176l-0.2-1h-0.1c-0.4,0.5-0.7,0.8-1.1,0.9c-0.4,0.2-0.8,0.2-1.4,0.2
			c-0.7,0-1.3-0.2-1.7-0.6c-0.4-0.4-0.6-0.9-0.6-1.6c0-1.5,1.2-2.3,3.5-2.4l1.3,0v-0.4c0-0.6-0.1-1-0.4-1.2
			c-0.2-0.3-0.6-0.4-1.2-0.4c-0.4,0-0.8,0.1-1.1,0.2c-0.3,0.1-0.7,0.2-1,0.4l-0.4-0.9c0.4-0.2,0.8-0.4,1.2-0.5
			c0.4-0.1,0.9-0.2,1.3-0.2c0.9,0,1.6,0.2,2,0.6c0.4,0.4,0.7,1,0.7,1.9v5H91.9z M89.4,175.1c0.7,0,1.2-0.2,1.6-0.5s0.6-0.9,0.6-1.6
			v-0.7l-1.1,0c-0.8,0-1.5,0.2-1.9,0.4s-0.6,0.6-0.6,1.1c0,0.4,0.1,0.7,0.4,0.9C88.6,175,88.9,175.1,89.4,175.1z"/>
		<path id="XMLID_1309_" class="st6" d="M96.2,172.2l0.4-0.5l0.5-0.6l2.4-2.5h1.4l-3,3.2l3.2,4.2h-1.5l-2.6-3.4l-0.8,0.7v2.7H95
			v-10.5h1.2v5.5V172.2L96.2,172.2z"/>
		<path id="XMLID_1307_" class="st6" d="M107.4,176v-4.7c0-0.6-0.1-1-0.4-1.3c-0.3-0.3-0.7-0.4-1.3-0.4c-0.8,0-1.3,0.2-1.7,0.6
			s-0.5,1.1-0.5,2v3.8h-1.2v-7.4h1l0.2,1h0.1c0.2-0.4,0.5-0.6,1-0.8c0.4-0.2,0.9-0.3,1.4-0.3c0.9,0,1.6,0.2,2,0.7
			c0.4,0.4,0.7,1.1,0.7,2v4.8H107.4z"/>
		<path id="XMLID_1304_" class="st6" d="M115.4,176l-0.2-1h-0.1c-0.4,0.5-0.7,0.8-1.1,0.9c-0.4,0.2-0.8,0.2-1.4,0.2
			c-0.7,0-1.3-0.2-1.7-0.6s-0.6-0.9-0.6-1.6c0-1.5,1.2-2.3,3.5-2.4l1.3,0v-0.4c0-0.6-0.1-1-0.4-1.2c-0.2-0.3-0.6-0.4-1.2-0.4
			c-0.4,0-0.8,0.1-1.1,0.2s-0.7,0.2-1,0.4l-0.4-0.9c0.4-0.2,0.8-0.4,1.2-0.5c0.4-0.1,0.9-0.2,1.3-0.2c0.9,0,1.6,0.2,2,0.6
			c0.4,0.4,0.7,1,0.7,1.9v5H115.4z M112.9,175.1c0.7,0,1.2-0.2,1.6-0.5c0.4-0.4,0.6-0.9,0.6-1.6v-0.7l-1.1,0c-0.8,0-1.5,0.2-1.9,0.4
			s-0.6,0.6-0.6,1.1c0,0.4,0.1,0.7,0.4,0.9C112.2,175,112.5,175.1,112.9,175.1z"/>
	</g>
</g>
</svg>
