<?xml version="1.0" encoding="utf-8"?>
<!-- Generator: Adobe Illustrator 19.0.0, SVG Export Plug-In . SVG Version: 6.00 Build 0)  -->
<svg version="1.1" id="Layer_1" xmlns="http://www.w3.org/2000/svg" xmlns:xlink="http://www.w3.org/1999/xlink" x="0px" y="0px"
	 viewBox="0 0 166 176.1" style="enable-background:new 0 0 166 176.1;" xml:space="preserve">
<style type="text/css">
	.st0{fill:#ADD6DD;}
	.st1{fill:#A0813C;}
	.st2{fill:#7D6537;}
	.st3{fill:#216676;}
	.st4{fill:#FFFFFF;}
	.st5{fill:#404040;}
	.st6{fill:#D3AC5B;}
	.st7{fill:#E5E5DF;}
	.st8{fill:#AAA99B;}
	.st9{fill:#9B9B92;}
	.st10{fill:#CD202B;}
	.st11{fill:#353635;}
</style>
<rect id="XMLID_2495_" x="16.8" y="0" class="st0" width="149.2" height="167"/>
<rect id="XMLID_2525_" x="16.8" y="68.4" class="st1" width="149" height="20.3"/>
<rect id="XMLID_2524_" x="16.8" y="39.7" class="st2" width="149" height="28.8"/>
<rect id="XMLID_2521_" x="16.8" y="28.8" class="st3" width="149" height="23.3"/>
<polygon id="XMLID_7202_" class="st4" points="19.2,175.9 19.2,156.9 0,176.1 "/>
<rect id="XMLID_7201_" x="16.8" y="79.2" class="st4" width="149.2" height="96.7"/>
<g id="XMLID_9307_">
	<circle id="XMLID_9308_" class="st5" cx="91.8" cy="36.1" r="9.1"/>
	<rect id="XMLID_2516_" x="82.6" y="36.2" class="st5" width="18.3" height="35"/>
	<rect id="XMLID_2507_" x="88.9" y="13.6" class="st5" width="5.8" height="35.9"/>
	<path id="XMLID_2506_" class="st5" d="M94.8,15.1h-6.1c-0.6,0-1-0.5-1-1v-0.2c0-0.6,0.5-1,1-1h6.1c0.6,0,1,0.5,1,1v0.2
		C95.9,14.7,95.4,15.1,94.8,15.1z"/>
	<path id="XMLID_2502_" class="st6" d="M93.2,12.9h-2.4c-1.2,0-2.2-1-2.2-2.2v-0.4c0-1.2,1-2.2,2.2-2.2h2.4c1.2,0,2.2,1,2.2,2.2v0.4
		C95.4,11.9,94.4,12.9,93.2,12.9z"/>
	<rect id="XMLID_2501_" x="85.4" y="37.8" class="st7" width="15.5" height="24.3"/>
	<rect id="XMLID_2500_" x="87.1" y="39.9" class="st8" width="12.3" height="19.2"/>
	<path id="XMLID_9309_" class="st5" d="M98.4,73.2H85.2c-1.4,0-2.6-1.2-2.6-2.6l0,0c0-1.4,1.2-2.6,2.6-2.6h13.2
		c1.4,0,2.6,1.2,2.6,2.6l0,0C100.9,72,99.8,73.2,98.4,73.2z"/>
	<rect id="XMLID_2497_" x="92" y="12.9" class="st9" width="2.7" height="15"/>
</g>
<g id="XMLID_9310_">
	<circle id="XMLID_9311_" class="st10" cx="24.2" cy="87.5" r="4"/>
	<path id="XMLID_9312_" class="st10" d="M20.2,87.5h8.1v10.1C28.3,97.6,20.2,92.7,20.2,87.5z"/>
	<circle id="XMLID_2528_" class="st10" cx="32.3" cy="87.3" r="4"/>
	<path id="XMLID_2527_" class="st10" d="M36.3,87.3h-8.1v10.1C28.3,97.4,36.3,92.5,36.3,87.3z"/>
</g>
<g id="XMLID_1_">
	<g id="XMLID_1807_">
		<path id="XMLID_1999_" class="st11" d="M44.3,95.2l-2.4-7.8h-0.1c0.1,1.6,0.1,2.7,0.1,3.2v4.6h-1.9v-10h2.9l2.4,7.6h0l2.5-7.6h2.9
			v10h-2v-4.7c0-0.2,0-0.5,0-0.8c0-0.3,0-1.1,0.1-2.3h-0.1l-2.6,7.8H44.3z"/>
		<path id="XMLID_1996_" class="st11" d="M53,85.6c0-0.7,0.4-1,1.1-1c0.8,0,1.1,0.3,1.1,1c0,0.3-0.1,0.6-0.3,0.8
			c-0.2,0.2-0.5,0.3-0.9,0.3C53.4,86.6,53,86.2,53,85.6z M55.2,95.2h-2.1v-7.6h2.1V95.2z"/>
		<path id="XMLID_1994_" class="st11" d="M64.4,95.2h-2.1v-4.5c0-0.6-0.1-1-0.3-1.2c-0.2-0.3-0.5-0.4-0.9-0.4c-0.6,0-1,0.2-1.3,0.6
			s-0.4,1-0.4,1.9v3.6h-2.1v-7.6H59l0.3,1h0.1c0.2-0.4,0.6-0.6,1-0.8c0.4-0.2,0.9-0.3,1.4-0.3c0.9,0,1.6,0.2,2,0.7
			c0.5,0.5,0.7,1.2,0.7,2.1V95.2z"/>
		<path id="XMLID_1992_" class="st11" d="M72,95.2l-0.3-1h-0.1c-0.2,0.4-0.5,0.6-1,0.8c-0.4,0.2-0.9,0.3-1.4,0.3
			c-0.9,0-1.6-0.2-2-0.7c-0.5-0.5-0.7-1.2-0.7-2.1v-5h2.1V92c0,0.6,0.1,1,0.3,1.2c0.2,0.3,0.5,0.4,0.9,0.4c0.6,0,1-0.2,1.3-0.6
			s0.4-1,0.4-1.9v-3.6h2.1v7.6H72z"/>
		<path id="XMLID_1990_" class="st11" d="M82.6,95.2h-2.1v-4.5c0-0.6-0.1-1-0.3-1.2c-0.2-0.3-0.5-0.4-0.9-0.4
			c-0.5,0-0.9,0.2-1.2,0.6c-0.2,0.4-0.4,1-0.4,1.9v3.6h-2.1v-7.6h1.6l0.3,1h0.1c0.2-0.4,0.5-0.6,0.9-0.8c0.4-0.2,0.8-0.3,1.3-0.3
			c1.1,0,1.9,0.4,2.3,1.1h0.2c0.2-0.4,0.5-0.6,0.9-0.8c0.4-0.2,0.8-0.3,1.4-0.3c0.9,0,1.5,0.2,2,0.7s0.7,1.2,0.7,2.1v5h-2.1v-4.5
			c0-0.6-0.1-1-0.3-1.2c-0.2-0.3-0.5-0.4-0.9-0.4c-0.5,0-0.9,0.2-1.1,0.5c-0.3,0.4-0.4,0.9-0.4,1.7V95.2z"/>
		<path id="XMLID_1987_" class="st11" d="M94.4,95.2l-0.4-1h-0.1c-0.4,0.4-0.7,0.7-1.1,0.9s-0.9,0.3-1.5,0.3c-0.7,0-1.3-0.2-1.7-0.6
			c-0.4-0.4-0.6-1-0.6-1.8c0-0.8,0.3-1.4,0.9-1.8c0.6-0.4,1.4-0.6,2.6-0.6l1.3,0v-0.3c0-0.8-0.4-1.2-1.2-1.2c-0.6,0-1.3,0.2-2.2,0.6
			l-0.7-1.4c0.9-0.5,1.9-0.7,2.9-0.7c1,0,1.8,0.2,2.4,0.7c0.5,0.4,0.8,1.1,0.8,2v5.1H94.4z M93.8,91.6l-0.8,0
			c-0.6,0-1.1,0.1-1.4,0.3c-0.3,0.2-0.4,0.5-0.4,0.9c0,0.6,0.3,0.9,1,0.9c0.5,0,0.9-0.1,1.2-0.4c0.3-0.3,0.4-0.6,0.4-1.1V91.6z"/>
		<path id="XMLID_1985_" class="st11" d="M105,95.2h-2.1v-4.5c0-0.6-0.1-1-0.3-1.2c-0.2-0.3-0.5-0.4-0.9-0.4c-0.6,0-1,0.2-1.3,0.6
			s-0.4,1-0.4,1.9v3.6H98v-7.6h1.6l0.3,1h0.1c0.2-0.4,0.6-0.6,1-0.8c0.4-0.2,0.9-0.3,1.4-0.3c0.9,0,1.6,0.2,2,0.7
			c0.5,0.5,0.7,1.2,0.7,2.1V95.2z"/>
		<path id="XMLID_1982_" class="st11" d="M117.1,95.2l-0.7-2.4h-3.6l-0.7,2.4h-2.3l3.5-10h2.6l3.5,10H117.1z M115.9,91
			c-0.7-2.2-1-3.4-1.1-3.7c-0.1-0.3-0.1-0.5-0.2-0.7c-0.2,0.6-0.6,2-1.3,4.3H115.9z"/>
		<path id="XMLID_1980_" class="st11" d="M127.5,95.2h-2.1v-4.5c0-0.6-0.1-1-0.3-1.2c-0.2-0.3-0.5-0.4-0.9-0.4c-0.6,0-1,0.2-1.3,0.6
			s-0.4,1-0.4,1.9v3.6h-2.1v-7.6h1.6l0.3,1h0.1c0.2-0.4,0.6-0.6,1-0.8c0.4-0.2,0.9-0.3,1.4-0.3c0.9,0,1.6,0.2,2,0.7
			c0.5,0.5,0.7,1.2,0.7,2.1V95.2z"/>
		<path id="XMLID_1977_" class="st11" d="M136.3,95.2c0,1.1-0.3,1.9-1,2.5s-1.6,0.9-2.9,0.9c-1.1,0-2.1-0.2-2.9-0.5v-1.7
			c0.9,0.4,1.9,0.6,3,0.6c1.1,0,1.6-0.6,1.6-1.7v-0.2l0.1-0.9h-0.1c-0.5,0.8-1.2,1.1-2.2,1.1c-0.9,0-1.6-0.4-2.1-1.1
			c-0.5-0.7-0.8-1.7-0.8-2.9c0-1.3,0.3-2.2,0.8-2.9c0.5-0.7,1.2-1,2.2-1c0.9,0,1.7,0.4,2.2,1.1h0.1l0.2-1h1.8V95.2z M132.8,93.7
			c0.6,0,1-0.2,1.2-0.5c0.2-0.3,0.4-0.8,0.4-1.6v-0.3c0-0.8-0.1-1.4-0.4-1.8c-0.3-0.4-0.7-0.5-1.2-0.5c-1,0-1.5,0.8-1.5,2.3
			c0,0.8,0.1,1.3,0.4,1.7C131.9,93.5,132.3,93.7,132.8,93.7z"/>
		<path id="XMLID_1974_" class="st11" d="M145.2,95.2c0,1.1-0.3,1.9-1,2.5s-1.6,0.9-2.9,0.9c-1.1,0-2.1-0.2-2.9-0.5v-1.7
			c0.9,0.4,1.9,0.6,3,0.6c1.1,0,1.6-0.6,1.6-1.7v-0.2l0.1-0.9h-0.1c-0.5,0.8-1.2,1.1-2.2,1.1c-0.9,0-1.6-0.4-2.1-1.1
			c-0.5-0.7-0.8-1.7-0.8-2.9c0-1.3,0.3-2.2,0.8-2.9c0.5-0.7,1.2-1,2.2-1c0.9,0,1.7,0.4,2.2,1.1h0.1l0.2-1h1.8V95.2z M141.7,93.7
			c0.6,0,1-0.2,1.2-0.5c0.2-0.3,0.4-0.8,0.4-1.6v-0.3c0-0.8-0.1-1.4-0.4-1.8c-0.3-0.4-0.7-0.5-1.2-0.5c-1,0-1.5,0.8-1.5,2.3
			c0,0.8,0.1,1.3,0.4,1.7C140.8,93.5,141.2,93.7,141.7,93.7z"/>
		<path id="XMLID_1972_" class="st11" d="M152.8,95.2l-0.3-1h-0.1c-0.2,0.4-0.5,0.6-1,0.8c-0.4,0.2-0.9,0.3-1.4,0.3
			c-0.9,0-1.6-0.2-2-0.7c-0.5-0.5-0.7-1.2-0.7-2.1v-5h2.1V92c0,0.6,0.1,1,0.3,1.2c0.2,0.3,0.5,0.4,0.9,0.4c0.6,0,1-0.2,1.3-0.6
			s0.4-1,0.4-1.9v-3.6h2.1v7.6H152.8z"/>
		<path id="XMLID_1970_" class="st11" d="M160.9,87.4c0.3,0,0.5,0,0.7,0.1l-0.2,2c-0.2,0-0.4-0.1-0.6-0.1c-0.7,0-1.2,0.2-1.6,0.5
			s-0.6,0.8-0.6,1.4v3.9h-2.1v-7.6h1.6l0.3,1.3h0.1c0.2-0.4,0.6-0.8,1-1C159.9,87.5,160.4,87.4,160.9,87.4z"/>
		<path id="XMLID_1968_" class="st5" d="M42.4,109.6h-3.1v-0.6l1-0.2v-6.9l-1-0.2V101h3.1v0.6l-1,0.2v6.9l1,0.2V109.6z"/>
		<path id="XMLID_1966_" class="st5" d="M48.3,109.6v-4.1c0-0.5-0.1-0.9-0.3-1.2s-0.6-0.4-1.1-0.4c-0.7,0-1.1,0.2-1.4,0.5
			s-0.4,1-0.4,1.8v3.3h-1.1v-6.4h0.8l0.2,0.9H45c0.2-0.3,0.5-0.6,0.8-0.7s0.8-0.3,1.2-0.3c0.8,0,1.4,0.2,1.8,0.6s0.6,1,0.6,1.8v4.2
			H48.3z"/>
		<path id="XMLID_1964_" class="st5" d="M53.5,108.8c0.1,0,0.3,0,0.5,0s0.3-0.1,0.4-0.1v0.8c-0.1,0-0.2,0.1-0.5,0.1
			s-0.4,0.1-0.6,0.1c-1.3,0-1.9-0.7-1.9-2V104h-0.9v-0.5l0.9-0.4l0.4-1.4h0.6v1.5h1.9v0.8h-1.9v3.7c0,0.4,0.1,0.7,0.3,0.9
			S53.1,108.8,53.5,108.8z"/>
		<path id="XMLID_1961_" class="st5" d="M55.6,101.4c0-0.2,0.1-0.4,0.2-0.5s0.3-0.2,0.4-0.2c0.2,0,0.3,0.1,0.4,0.2s0.2,0.3,0.2,0.5
			c0,0.2-0.1,0.4-0.2,0.5s-0.3,0.2-0.4,0.2c-0.2,0-0.3-0.1-0.4-0.2S55.6,101.6,55.6,101.4z M56.7,109.6h-1.1v-6.4h1.1V109.6z"/>
		<path id="XMLID_1959_" class="st5" d="M62.9,107.8c0,0.6-0.2,1.1-0.7,1.4s-1.1,0.5-1.9,0.5c-0.8,0-1.5-0.1-2-0.4v-1
			c0.7,0.3,1.4,0.5,2,0.5c0.5,0,0.9-0.1,1.2-0.3s0.4-0.4,0.4-0.7c0-0.3-0.1-0.5-0.3-0.6s-0.6-0.4-1.2-0.6c-0.6-0.2-1-0.4-1.3-0.6
			s-0.4-0.4-0.5-0.6s-0.2-0.5-0.2-0.8c0-0.5,0.2-0.9,0.6-1.2s1-0.5,1.8-0.5c0.7,0,1.4,0.1,2.1,0.4l-0.4,0.8
			c-0.7-0.3-1.2-0.4-1.8-0.4c-0.4,0-0.8,0.1-1,0.2s-0.3,0.3-0.3,0.6c0,0.2,0.1,0.4,0.3,0.6s0.7,0.4,1.4,0.6c0.5,0.2,0.9,0.4,1.2,0.6
			s0.4,0.4,0.6,0.6S62.9,107.5,62.9,107.8z"/>
		<path id="XMLID_1956_" class="st5" d="M68.4,109.6l-0.2-0.9h0c-0.3,0.4-0.6,0.7-1,0.8s-0.7,0.2-1.2,0.2c-0.6,0-1.1-0.2-1.5-0.5
			s-0.5-0.8-0.5-1.4c0-1.3,1-2,3.1-2.1l1.1,0v-0.4c0-0.5-0.1-0.8-0.3-1.1s-0.5-0.3-1-0.3c-0.3,0-0.7,0.1-1,0.2s-0.6,0.2-0.9,0.3
			l-0.3-0.8c0.3-0.2,0.7-0.3,1.1-0.4s0.8-0.1,1.1-0.1c0.8,0,1.4,0.2,1.7,0.5s0.6,0.9,0.6,1.6v4.4H68.4z M66.3,108.8
			c0.6,0,1.1-0.2,1.4-0.5s0.5-0.8,0.5-1.4v-0.6l-0.9,0c-0.7,0-1.3,0.1-1.6,0.4s-0.5,0.5-0.5,1c0,0.3,0.1,0.6,0.3,0.8
			S65.9,108.8,66.3,108.8z"/>
		<path id="XMLID_1954_" class="st5" d="M74.2,103c0.3,0,0.5,0,0.8,0.1l-0.1,1c-0.2-0.1-0.5-0.1-0.7-0.1c-0.3,0-0.7,0.1-0.9,0.3
			s-0.5,0.4-0.7,0.8s-0.2,0.7-0.2,1.1v3.4h-1.1v-6.4h0.9l0.1,1.2h0c0.2-0.4,0.5-0.7,0.9-1S73.8,103,74.2,103z"/>
		<path id="XMLID_1951_" class="st5" d="M76.1,101.4c0-0.2,0.1-0.4,0.2-0.5s0.3-0.2,0.4-0.2c0.2,0,0.3,0.1,0.4,0.2s0.2,0.3,0.2,0.5
			c0,0.2-0.1,0.4-0.2,0.5s-0.3,0.2-0.4,0.2c-0.2,0-0.3-0.1-0.4-0.2S76.1,101.6,76.1,101.4z M77.2,109.6h-1.1v-6.4h1.1V109.6z"/>
		<path id="XMLID_1948_" class="st5" d="M84.7,109.7c-0.8,0-1.5-0.3-1.9-0.9s-0.7-1.4-0.7-2.5c0-1.1,0.2-1.9,0.7-2.5s1.1-0.9,2-0.9
			c0.9,0,1.5,0.3,2,0.9h0.1c0-0.1,0-0.2,0-0.5s0-0.4,0-0.5v-2.6h1.1v9.1h-0.8l-0.2-0.9h0C86.2,109.4,85.5,109.7,84.7,109.7z
			 M84.8,108.8c0.6,0,1.1-0.2,1.4-0.5s0.4-0.9,0.4-1.7v-0.2c0-0.9-0.1-1.5-0.4-1.9s-0.8-0.6-1.4-0.6c-0.5,0-1,0.2-1.3,0.6
			s-0.4,1-0.4,1.8c0,0.8,0.1,1.4,0.4,1.8S84.3,108.8,84.8,108.8z"/>
		<path id="XMLID_1945_" class="st5" d="M93.7,109.6l-0.2-0.9h0c-0.3,0.4-0.6,0.7-1,0.8s-0.7,0.2-1.2,0.2c-0.6,0-1.1-0.2-1.5-0.5
			s-0.5-0.8-0.5-1.4c0-1.3,1-2,3.1-2.1l1.1,0v-0.4c0-0.5-0.1-0.8-0.3-1.1s-0.5-0.3-1-0.3c-0.3,0-0.7,0.1-1,0.2s-0.6,0.2-0.9,0.3
			l-0.3-0.8c0.3-0.2,0.7-0.3,1.1-0.4s0.8-0.1,1.1-0.1c0.8,0,1.4,0.2,1.7,0.5s0.6,0.9,0.6,1.6v4.4H93.7z M91.6,108.8
			c0.6,0,1.1-0.2,1.4-0.5s0.5-0.8,0.5-1.4v-0.6l-0.9,0c-0.7,0-1.3,0.1-1.6,0.4s-0.5,0.5-0.5,1c0,0.3,0.1,0.6,0.3,0.8
			S91.2,108.8,91.6,108.8z"/>
		<path id="XMLID_1943_" class="st5" d="M99.5,103c0.3,0,0.5,0,0.8,0.1l-0.1,1c-0.2-0.1-0.5-0.1-0.7-0.1c-0.3,0-0.7,0.1-0.9,0.3
			s-0.5,0.4-0.7,0.8s-0.2,0.7-0.2,1.1v3.4h-1.1v-6.4h0.9l0.1,1.2h0c0.2-0.4,0.5-0.7,0.9-1S99.1,103,99.5,103z"/>
		<path id="XMLID_1940_" class="st5" d="M101.4,101.4c0-0.2,0.1-0.4,0.2-0.5s0.3-0.2,0.4-0.2c0.2,0,0.3,0.1,0.4,0.2s0.2,0.3,0.2,0.5
			c0,0.2-0.1,0.4-0.2,0.5s-0.3,0.2-0.4,0.2c-0.2,0-0.3-0.1-0.4-0.2S101.4,101.6,101.4,101.4z M102.5,109.6h-1.1v-6.4h1.1V109.6z"/>
		<path id="XMLID_1938_" class="st5" d="M108.7,109.6h-1.1v-9.1h1.1V109.6z"/>
		<path id="XMLID_1935_" class="st5" d="M114.7,109.6l-0.2-0.9h0c-0.3,0.4-0.6,0.7-1,0.8s-0.7,0.2-1.2,0.2c-0.6,0-1.1-0.2-1.5-0.5
			s-0.5-0.8-0.5-1.4c0-1.3,1-2,3.1-2.1l1.1,0v-0.4c0-0.5-0.1-0.8-0.3-1.1s-0.5-0.3-1-0.3c-0.3,0-0.7,0.1-1,0.2s-0.6,0.2-0.9,0.3
			l-0.3-0.8c0.3-0.2,0.7-0.3,1.1-0.4s0.8-0.1,1.1-0.1c0.8,0,1.4,0.2,1.7,0.5s0.6,0.9,0.6,1.6v4.4H114.7z M112.6,108.8
			c0.6,0,1.1-0.2,1.4-0.5s0.5-0.8,0.5-1.4v-0.6l-0.9,0c-0.7,0-1.3,0.1-1.6,0.4s-0.5,0.5-0.5,1c0,0.3,0.1,0.6,0.3,0.8
			S112.2,108.8,112.6,108.8z"/>
		<path id="XMLID_1933_" class="st5" d="M121.9,109.6v-4.1c0-0.5-0.1-0.9-0.3-1.2s-0.6-0.4-1.1-0.4c-0.7,0-1.1,0.2-1.4,0.5
			s-0.4,1-0.4,1.8v3.3h-1.1v-6.4h0.8l0.2,0.9h0.1c0.2-0.3,0.5-0.6,0.8-0.7s0.8-0.3,1.2-0.3c0.8,0,1.4,0.2,1.8,0.6s0.6,1,0.6,1.8v4.2
			H121.9z"/>
		<path id="XMLID_1930_" class="st5" d="M129.2,109.5l0-0.8h0c-0.4,0.6-1.1,1-2,1c-0.8,0-1.5-0.3-1.9-0.9s-0.7-1.4-0.7-2.5
			c0-1,0.2-1.9,0.7-2.4s1.1-0.9,1.9-0.9c0.9,0,1.5,0.3,2,1h0.1l0.1-0.9h0.8v6.5c0,0.9-0.2,1.6-0.7,2.1s-1.2,0.7-2.2,0.7
			c-0.9,0-1.7-0.1-2.3-0.4v-1c0.6,0.3,1.4,0.5,2.4,0.5c0.5,0,1-0.2,1.3-0.5s0.5-0.8,0.5-1.3V109.5z M127.4,108.8
			c0.6,0,1.1-0.2,1.4-0.5s0.4-0.9,0.4-1.7v-0.3c0-0.9-0.1-1.5-0.4-1.9s-0.8-0.6-1.4-0.6c-0.5,0-1,0.2-1.3,0.6s-0.4,1-0.4,1.8
			c0,0.8,0.1,1.4,0.4,1.8S126.8,108.8,127.4,108.8z"/>
		<path id="XMLID_1927_" class="st5" d="M132.2,101.4c0-0.2,0.1-0.4,0.2-0.5s0.3-0.2,0.4-0.2c0.2,0,0.3,0.1,0.4,0.2s0.2,0.3,0.2,0.5
			c0,0.2-0.1,0.4-0.2,0.5s-0.3,0.2-0.4,0.2c-0.2,0-0.3-0.1-0.4-0.2S132.2,101.6,132.2,101.4z M133.3,109.6h-1.1v-6.4h1.1V109.6z"/>
		<path id="XMLID_1925_" class="st5" d="M137.5,108.8c0.1,0,0.3,0,0.5,0s0.3-0.1,0.4-0.1v0.8c-0.1,0-0.2,0.1-0.5,0.1
			s-0.4,0.1-0.6,0.1c-1.3,0-1.9-0.7-1.9-2V104h-0.9v-0.5l0.9-0.4l0.4-1.4h0.6v1.5h1.9v0.8h-1.9v3.7c0,0.4,0.1,0.7,0.3,0.9
			S137.2,108.8,137.5,108.8z"/>
		<path id="XMLID_1922_" class="st5" d="M42.1,124.1c-0.8,0-1.5-0.3-1.9-0.9s-0.7-1.4-0.7-2.5c0-1.1,0.2-1.9,0.7-2.5s1.1-0.9,2-0.9
			c0.9,0,1.5,0.3,2,0.9h0.1c0-0.1,0-0.2,0-0.5s0-0.4,0-0.5v-2.6h1.1v9.1h-0.8l-0.2-0.9h0C43.7,123.8,43,124.1,42.1,124.1z
			 M42.3,123.2c0.6,0,1.1-0.2,1.4-0.5s0.4-0.9,0.4-1.7v-0.2c0-0.9-0.1-1.5-0.4-1.9s-0.8-0.6-1.4-0.6c-0.5,0-1,0.2-1.3,0.6
			s-0.4,1-0.4,1.8c0,0.8,0.1,1.4,0.4,1.8S41.7,123.2,42.3,123.2z"/>
		<path id="XMLID_1919_" class="st5" d="M51.2,124l-0.2-0.9h0c-0.3,0.4-0.6,0.7-1,0.8s-0.7,0.2-1.2,0.2c-0.6,0-1.1-0.2-1.5-0.5
			s-0.5-0.8-0.5-1.4c0-1.3,1-2,3.1-2.1l1.1,0v-0.4c0-0.5-0.1-0.8-0.3-1.1s-0.5-0.3-1-0.3c-0.3,0-0.7,0.1-1,0.2s-0.6,0.2-0.9,0.3
			l-0.3-0.8c0.3-0.2,0.7-0.3,1.1-0.4s0.8-0.1,1.1-0.1c0.8,0,1.4,0.2,1.7,0.5s0.6,0.9,0.6,1.6v4.4H51.2z M49,123.2
			c0.6,0,1.1-0.2,1.4-0.5s0.5-0.8,0.5-1.4v-0.6l-0.9,0c-0.7,0-1.3,0.1-1.6,0.4s-0.5,0.5-0.5,1c0,0.3,0.1,0.6,0.3,0.8
			S48.6,123.2,49,123.2z"/>
		<path id="XMLID_1917_" class="st5" d="M58.3,124v-4.1c0-0.5-0.1-0.9-0.3-1.2s-0.6-0.4-1.1-0.4c-0.7,0-1.1,0.2-1.4,0.5
			s-0.4,1-0.4,1.8v3.3h-1.1v-6.4h0.8l0.2,0.9H55c0.2-0.3,0.5-0.6,0.8-0.7s0.8-0.3,1.2-0.3c0.8,0,1.4,0.2,1.8,0.6s0.6,1,0.6,1.8v4.2
			H58.3z"/>
		<path id="XMLID_1914_" class="st5" d="M67.5,117.4c0.8,0,1.5,0.3,2,0.9s0.7,1.4,0.7,2.4c0,1.1-0.2,1.9-0.7,2.5s-1.1,0.9-2,0.9
			c-0.4,0-0.8-0.1-1.2-0.2s-0.6-0.4-0.8-0.7h-0.1c-0.1,0.5-0.2,0.7-0.2,0.8h-0.8v-9.1h1.1v2.2c0,0.4,0,0.9-0.1,1.3h0.1
			C66,117.8,66.6,117.4,67.5,117.4z M67.3,118.3c-0.6,0-1.1,0.2-1.4,0.6s-0.4,1-0.4,1.9v0c0,0.9,0.1,1.5,0.4,1.9s0.8,0.6,1.4,0.6
			c0.6,0,1-0.2,1.3-0.6s0.4-1,0.4-1.8c0-0.8-0.1-1.4-0.4-1.8S67.9,118.3,67.3,118.3z"/>
		<path id="XMLID_1912_" class="st5" d="M72.8,117.5v4.1c0,0.5,0.1,0.9,0.3,1.2s0.6,0.4,1.1,0.4c0.7,0,1.1-0.2,1.4-0.6
			s0.5-1,0.5-1.8v-3.4h1.1v6.4h-0.9l-0.2-0.8h-0.1c-0.2,0.3-0.5,0.5-0.8,0.7s-0.8,0.3-1.2,0.3c-0.8,0-1.4-0.2-1.7-0.6
			s-0.6-1-0.6-1.8v-4.2H72.8z"/>
		<path id="XMLID_1910_" class="st5" d="M87.5,124v-4.1c0-1-0.4-1.5-1.3-1.5c-0.6,0-1,0.2-1.3,0.5s-0.4,0.9-0.4,1.6v3.6h-1v-4.1
			c0-0.5-0.1-0.9-0.3-1.1s-0.5-0.4-1-0.4c-0.6,0-1,0.2-1.3,0.5s-0.4,1-0.4,1.8v3.3h-1.1v-6.4h0.8l0.2,0.9h0.1
			c0.2-0.3,0.4-0.6,0.8-0.7s0.7-0.3,1.1-0.3c1,0,1.7,0.4,2,1.1h0.1c0.2-0.3,0.5-0.6,0.8-0.8s0.8-0.3,1.2-0.3c0.7,0,1.3,0.2,1.6,0.6
			s0.5,1,0.5,1.8v4.2H87.5z"/>
		<path id="XMLID_1907_" class="st5" d="M90.4,115.8c0-0.2,0.1-0.4,0.2-0.5s0.3-0.2,0.4-0.2c0.2,0,0.3,0.1,0.4,0.2s0.2,0.3,0.2,0.5
			c0,0.2-0.1,0.4-0.2,0.5s-0.3,0.2-0.4,0.2c-0.2,0-0.3-0.1-0.4-0.2S90.4,116,90.4,115.8z M91.5,124h-1.1v-6.4h1.1V124z"/>
		<path id="XMLID_1905_" class="st5" d="M94.8,122.6l0.1,0.1c-0.2,0.8-0.6,1.8-1,2.8h-0.8c0.3-1,0.5-2,0.6-2.9H94.8z"/>
		<path id="XMLID_1903_" class="st5" d="M98.9,117.5h1.1l1.4,3.7c0.3,0.8,0.5,1.4,0.5,1.8h0c0-0.1,0.1-0.4,0.2-0.8s0.2-0.7,0.3-1
			l1.3-3.7h1.1l-2.8,7.3c-0.3,0.7-0.6,1.2-1,1.5s-0.8,0.5-1.4,0.5c-0.3,0-0.6,0-0.9-0.1v-0.8c0.2,0,0.4,0.1,0.7,0.1
			c0.3,0,0.6-0.1,0.9-0.3s0.4-0.5,0.6-0.9l0.3-0.9L98.9,117.5z"/>
		<path id="XMLID_1900_" class="st5" d="M110,124l-0.2-0.9h0c-0.3,0.4-0.6,0.7-1,0.8s-0.7,0.2-1.2,0.2c-0.6,0-1.1-0.2-1.5-0.5
			s-0.5-0.8-0.5-1.4c0-1.3,1-2,3.1-2.1l1.1,0v-0.4c0-0.5-0.1-0.8-0.3-1.1s-0.5-0.3-1-0.3c-0.3,0-0.7,0.1-1,0.2s-0.6,0.2-0.9,0.3
			l-0.3-0.8c0.3-0.2,0.7-0.3,1.1-0.4s0.8-0.1,1.1-0.1c0.8,0,1.4,0.2,1.7,0.5s0.6,0.9,0.6,1.6v4.4H110z M107.8,123.2
			c0.6,0,1.1-0.2,1.4-0.5s0.5-0.8,0.5-1.4v-0.6l-0.9,0c-0.7,0-1.3,0.1-1.6,0.4s-0.5,0.5-0.5,1c0,0.3,0.1,0.6,0.3,0.8
			S107.5,123.2,107.8,123.2z"/>
		<path id="XMLID_1898_" class="st5" d="M117.2,124v-4.1c0-0.5-0.1-0.9-0.3-1.2s-0.6-0.4-1.1-0.4c-0.7,0-1.1,0.2-1.4,0.5
			s-0.4,1-0.4,1.8v3.3h-1.1v-6.4h0.8l0.2,0.9h0.1c0.2-0.3,0.5-0.6,0.8-0.7s0.8-0.3,1.2-0.3c0.8,0,1.4,0.2,1.8,0.6s0.6,1,0.6,1.8v4.2
			H117.2z"/>
		<path id="XMLID_1895_" class="st5" d="M124.5,123.9l0-0.8h0c-0.4,0.6-1.1,1-2,1c-0.8,0-1.5-0.3-1.9-0.9s-0.7-1.4-0.7-2.5
			c0-1,0.2-1.9,0.7-2.4s1.1-0.9,1.9-0.9c0.9,0,1.5,0.3,2,1h0.1l0.1-0.9h0.8v6.5c0,0.9-0.2,1.6-0.7,2.1s-1.2,0.7-2.2,0.7
			c-0.9,0-1.7-0.1-2.3-0.4v-1c0.6,0.3,1.4,0.5,2.4,0.5c0.5,0,1-0.2,1.3-0.5s0.5-0.8,0.5-1.3V123.9z M122.6,123.2
			c0.6,0,1.1-0.2,1.4-0.5s0.4-0.9,0.4-1.7v-0.3c0-0.9-0.1-1.5-0.4-1.9s-0.8-0.6-1.4-0.6c-0.5,0-1,0.2-1.3,0.6s-0.4,1-0.4,1.8
			c0,0.8,0.1,1.4,0.4,1.8S122.1,123.2,122.6,123.2z"/>
		<path id="XMLID_1892_" class="st5" d="M43.8,138.4l-0.2-0.9h0c-0.3,0.4-0.6,0.7-1,0.8s-0.7,0.2-1.2,0.2c-0.6,0-1.1-0.2-1.5-0.5
			s-0.5-0.8-0.5-1.4c0-1.3,1-2,3.1-2.1l1.1,0v-0.4c0-0.5-0.1-0.8-0.3-1.1s-0.5-0.3-1-0.3c-0.3,0-0.7,0.1-1,0.2s-0.6,0.2-0.9,0.3
			l-0.3-0.8c0.3-0.2,0.7-0.3,1.1-0.4s0.8-0.1,1.1-0.1c0.8,0,1.4,0.2,1.7,0.5s0.6,0.9,0.6,1.6v4.4H43.8z M41.6,137.6
			c0.6,0,1.1-0.2,1.4-0.5s0.5-0.8,0.5-1.4v-0.6l-0.9,0c-0.7,0-1.3,0.1-1.6,0.4s-0.5,0.5-0.5,1c0,0.3,0.1,0.6,0.3,0.8
			S41.2,137.6,41.6,137.6z"/>
		<path id="XMLID_1890_" class="st5" d="M47.6,135.1l0.4-0.5l0.4-0.5l2.1-2.2h1.2l-2.6,2.7l2.8,3.7h-1.3l-2.2-3l-0.7,0.6v2.4h-1
			v-9.1h1v4.8V135.1L47.6,135.1z"/>
		<path id="XMLID_1887_" class="st5" d="M56.9,138.4l-0.2-0.9h0c-0.3,0.4-0.6,0.7-1,0.8s-0.7,0.2-1.2,0.2c-0.6,0-1.1-0.2-1.5-0.5
			s-0.5-0.8-0.5-1.4c0-1.3,1-2,3.1-2.1l1.1,0v-0.4c0-0.5-0.1-0.8-0.3-1.1s-0.5-0.3-1-0.3c-0.3,0-0.7,0.1-1,0.2s-0.6,0.2-0.9,0.3
			l-0.3-0.8c0.3-0.2,0.7-0.3,1.1-0.4s0.8-0.1,1.1-0.1c0.8,0,1.4,0.2,1.7,0.5s0.6,0.9,0.6,1.6v4.4H56.9z M54.8,137.6
			c0.6,0,1.1-0.2,1.4-0.5s0.5-0.8,0.5-1.4v-0.6l-0.9,0c-0.7,0-1.3,0.1-1.6,0.4s-0.5,0.5-0.5,1c0,0.3,0.1,0.6,0.3,0.8
			S54.4,137.6,54.8,137.6z"/>
		<path id="XMLID_1885_" class="st5" d="M64.1,138.4v-4.1c0-0.5-0.1-0.9-0.3-1.2s-0.6-0.4-1.1-0.4c-0.7,0-1.1,0.2-1.4,0.5
			s-0.4,1-0.4,1.8v3.3h-1.1v-6.4h0.8l0.2,0.9h0.1c0.2-0.3,0.5-0.6,0.8-0.7s0.8-0.3,1.2-0.3c0.8,0,1.4,0.2,1.8,0.6s0.6,1,0.6,1.8v4.2
			H64.1z"/>
		<path id="XMLID_1883_" class="st5" d="M78.4,138.4v-4.1c0-1-0.4-1.5-1.3-1.5c-0.6,0-1,0.2-1.3,0.5s-0.4,0.9-0.4,1.6v3.6h-1v-4.1
			c0-0.5-0.1-0.9-0.3-1.1s-0.5-0.4-1-0.4c-0.6,0-1,0.2-1.3,0.5s-0.4,1-0.4,1.8v3.3h-1.1v-6.4h0.8l0.2,0.9h0.1
			c0.2-0.3,0.4-0.6,0.8-0.7s0.7-0.3,1.1-0.3c1,0,1.7,0.4,2,1.1h0.1c0.2-0.3,0.5-0.6,0.8-0.8s0.8-0.3,1.2-0.3c0.7,0,1.3,0.2,1.6,0.6
			s0.5,1,0.5,1.8v4.2H78.4z"/>
		<path id="XMLID_1880_" class="st5" d="M84.2,138.5c-1,0-1.7-0.3-2.3-0.9s-0.8-1.4-0.8-2.4c0-1,0.3-1.9,0.8-2.5s1.2-0.9,2.1-0.9
			c0.8,0,1.5,0.3,1.9,0.8s0.7,1.2,0.7,2.1v0.6h-4.4c0,0.7,0.2,1.3,0.6,1.7s0.8,0.6,1.5,0.6c0.3,0,0.7,0,1-0.1s0.7-0.2,1.1-0.4v0.9
			c-0.4,0.2-0.7,0.3-1,0.3S84.6,138.5,84.2,138.5z M83.9,132.7c-0.5,0-0.9,0.2-1.2,0.5s-0.5,0.8-0.5,1.4h3.3c0-0.6-0.1-1.1-0.4-1.4
			S84.4,132.7,83.9,132.7z"/>
		<path id="XMLID_1878_" class="st5" d="M96.4,138.4v-4.1c0-1-0.4-1.5-1.3-1.5c-0.6,0-1,0.2-1.3,0.5s-0.4,0.9-0.4,1.6v3.6h-1v-4.1
			c0-0.5-0.1-0.9-0.3-1.1s-0.5-0.4-1-0.4c-0.6,0-1,0.2-1.3,0.5s-0.4,1-0.4,1.8v3.3h-1.1v-6.4h0.8l0.2,0.9h0.1
			c0.2-0.3,0.4-0.6,0.8-0.7s0.7-0.3,1.1-0.3c1,0,1.7,0.4,2,1.1h0.1c0.2-0.3,0.5-0.6,0.8-0.8s0.8-0.3,1.2-0.3c0.7,0,1.3,0.2,1.6,0.6
			s0.5,1,0.5,1.8v4.2H96.4z"/>
		<path id="XMLID_1875_" class="st5" d="M102.5,131.8c0.8,0,1.5,0.3,2,0.9s0.7,1.4,0.7,2.4c0,1.1-0.2,1.9-0.7,2.5s-1.1,0.9-2,0.9
			c-0.4,0-0.8-0.1-1.2-0.2s-0.6-0.4-0.8-0.7h-0.1c-0.1,0.5-0.2,0.7-0.2,0.8h-0.8v-9.1h1.1v2.2c0,0.4,0,0.9-0.1,1.3h0.1
			C100.9,132.2,101.6,131.8,102.5,131.8z M102.3,132.7c-0.6,0-1.1,0.2-1.4,0.6s-0.4,1-0.4,1.9v0c0,0.9,0.1,1.5,0.4,1.9
			s0.8,0.6,1.4,0.6c0.6,0,1-0.2,1.3-0.6s0.4-1,0.4-1.8c0-0.8-0.1-1.4-0.4-1.8S102.9,132.7,102.3,132.7z"/>
		<path id="XMLID_1872_" class="st5" d="M110.8,138.4l-0.2-0.9h0c-0.3,0.4-0.6,0.7-1,0.8s-0.7,0.2-1.2,0.2c-0.6,0-1.1-0.2-1.5-0.5
			s-0.5-0.8-0.5-1.4c0-1.3,1-2,3.1-2.1l1.1,0v-0.4c0-0.5-0.1-0.8-0.3-1.1s-0.5-0.3-1-0.3c-0.3,0-0.7,0.1-1,0.2s-0.6,0.2-0.9,0.3
			l-0.3-0.8c0.3-0.2,0.7-0.3,1.1-0.4s0.8-0.1,1.1-0.1c0.8,0,1.4,0.2,1.7,0.5s0.6,0.9,0.6,1.6v4.4H110.8z M108.6,137.6
			c0.6,0,1.1-0.2,1.4-0.5s0.5-0.8,0.5-1.4v-0.6l-0.9,0c-0.7,0-1.3,0.1-1.6,0.4s-0.5,0.5-0.5,1c0,0.3,0.1,0.6,0.3,0.8
			S108.2,137.6,108.6,137.6z"/>
		<path id="XMLID_1870_" class="st5" d="M118.8,138.4l-1.1-3.6c-0.1-0.3-0.3-0.9-0.4-1.7h0c-0.2,0.8-0.3,1.3-0.4,1.7l-1.2,3.6h-1.2
			l-1.8-6.4h1.1c0.4,1.6,0.7,2.8,0.9,3.6s0.3,1.4,0.4,1.7h0l0.1-0.4c0.1-0.6,0.2-1,0.4-1.4l1.1-3.6h1.1l1.1,3.6
			c0,0.1,0.1,0.3,0.1,0.4s0.1,0.3,0.1,0.5s0.1,0.3,0.1,0.4s0.1,0.3,0.1,0.4h0.1c0-0.3,0.2-0.9,0.4-1.9l0.9-3.4h1.1l-1.8,6.4H118.8z"
			/>
		<path id="XMLID_1867_" class="st5" d="M127,138.4l-0.2-0.9h0c-0.3,0.4-0.6,0.7-1,0.8s-0.7,0.2-1.2,0.2c-0.6,0-1.1-0.2-1.5-0.5
			s-0.5-0.8-0.5-1.4c0-1.3,1-2,3.1-2.1l1.1,0v-0.4c0-0.5-0.1-0.8-0.3-1.1s-0.5-0.3-1-0.3c-0.3,0-0.7,0.1-1,0.2s-0.6,0.2-0.9,0.3
			l-0.3-0.8c0.3-0.2,0.7-0.3,1.1-0.4s0.8-0.1,1.1-0.1c0.8,0,1.4,0.2,1.7,0.5s0.6,0.9,0.6,1.6v4.4H127z M124.8,137.6
			c0.6,0,1.1-0.2,1.4-0.5s0.5-0.8,0.5-1.4v-0.6l-0.9,0c-0.7,0-1.3,0.1-1.6,0.4s-0.5,0.5-0.5,1c0,0.3,0.1,0.6,0.3,0.8
			S124.4,137.6,124.8,137.6z"/>
		<path id="XMLID_1865_" class="st5" d="M40.9,149.5l0.4-0.5l0.4-0.5l2.1-2.2h1.2l-2.6,2.7l2.8,3.7h-1.3l-2.2-3l-0.7,0.6v2.4h-1
			v-9.1h1v4.8V149.5L40.9,149.5z"/>
		<path id="XMLID_1862_" class="st5" d="M48.8,152.9c-1,0-1.7-0.3-2.3-0.9s-0.8-1.4-0.8-2.4c0-1,0.3-1.9,0.8-2.5s1.2-0.9,2.1-0.9
			c0.8,0,1.5,0.3,1.9,0.8s0.7,1.2,0.7,2.1v0.6h-4.4c0,0.7,0.2,1.3,0.6,1.7s0.8,0.6,1.5,0.6c0.3,0,0.7,0,1-0.1s0.7-0.2,1.1-0.4v0.9
			c-0.4,0.2-0.7,0.3-1,0.3S49.3,152.9,48.8,152.9z M48.6,147.1c-0.5,0-0.9,0.2-1.2,0.5s-0.5,0.8-0.5,1.4h3.3c0-0.6-0.1-1.1-0.4-1.4
			S49.1,147.1,48.6,147.1z"/>
		<path id="XMLID_1859_" class="st5" d="M55.9,146.2c0.8,0,1.5,0.3,2,0.9s0.7,1.4,0.7,2.4c0,1.1-0.2,1.9-0.7,2.5s-1.1,0.9-2,0.9
			c-0.4,0-0.8-0.1-1.2-0.2s-0.6-0.4-0.8-0.7h-0.1c-0.1,0.5-0.2,0.7-0.2,0.8h-0.8v-9.1h1.1v2.2c0,0.4,0,0.9-0.1,1.3h0.1
			C54.4,146.6,55,146.2,55.9,146.2z M55.8,147.1c-0.6,0-1.1,0.2-1.4,0.6s-0.4,1-0.4,1.9v0c0,0.9,0.1,1.5,0.4,1.9s0.8,0.6,1.4,0.6
			c0.6,0,1-0.2,1.3-0.6s0.4-1,0.4-1.8c0-0.8-0.1-1.4-0.4-1.8S56.3,147.1,55.8,147.1z"/>
		<path id="XMLID_1856_" class="st5" d="M63,152.9c-1,0-1.7-0.3-2.3-0.9s-0.8-1.4-0.8-2.4c0-1,0.3-1.9,0.8-2.5s1.2-0.9,2.1-0.9
			c0.8,0,1.5,0.3,1.9,0.8s0.7,1.2,0.7,2.1v0.6H61c0,0.7,0.2,1.3,0.6,1.7s0.8,0.6,1.5,0.6c0.3,0,0.7,0,1-0.1c0.3-0.1,0.7-0.2,1.1-0.4
			v0.9c-0.4,0.2-0.7,0.3-1,0.3C63.8,152.9,63.4,152.9,63,152.9z M62.7,147.1c-0.5,0-0.9,0.2-1.2,0.5s-0.5,0.8-0.5,1.4h3.3
			c0-0.6-0.1-1.1-0.4-1.4C63.6,147.2,63.2,147.1,62.7,147.1z"/>
		<path id="XMLID_1854_" class="st5" d="M70,146.2c0.3,0,0.5,0,0.8,0.1l-0.1,1c-0.2-0.1-0.5-0.1-0.7-0.1c-0.3,0-0.7,0.1-0.9,0.3
			s-0.5,0.4-0.7,0.8s-0.2,0.7-0.2,1.1v3.4H67v-6.4h0.9l0.1,1.2h0c0.2-0.4,0.5-0.7,0.9-1S69.6,146.2,70,146.2z"/>
		<path id="XMLID_1852_" class="st5" d="M73,146.3v4.1c0,0.5,0.1,0.9,0.3,1.2s0.6,0.4,1.1,0.4c0.7,0,1.1-0.2,1.4-0.6s0.5-1,0.5-1.8
			v-3.4h1.1v6.4h-0.9l-0.2-0.8h-0.1c-0.2,0.3-0.5,0.5-0.8,0.7s-0.8,0.3-1.2,0.3c-0.8,0-1.4-0.2-1.7-0.6s-0.6-1-0.6-1.8v-4.2H73z"/>
		<path id="XMLID_1850_" class="st5" d="M83.8,152.8v-4.1c0-0.5-0.1-0.9-0.3-1.2s-0.6-0.4-1.1-0.4c-0.7,0-1.1,0.2-1.4,0.5
			s-0.4,1-0.4,1.8v3.3h-1.1v-6.4h0.8l0.2,0.9h0.1c0.2-0.3,0.5-0.6,0.8-0.7s0.8-0.3,1.2-0.3c0.8,0,1.4,0.2,1.8,0.6s0.6,1,0.6,1.8v4.2
			H83.8z"/>
		<path id="XMLID_1848_" class="st5" d="M89,152c0.1,0,0.3,0,0.5,0s0.3-0.1,0.4-0.1v0.8c-0.1,0-0.2,0.1-0.5,0.1s-0.4,0.1-0.6,0.1
			c-1.3,0-1.9-0.7-1.9-2v-3.7H86v-0.5l0.9-0.4l0.4-1.4H88v1.5h1.9v0.8H88v3.7c0,0.4,0.1,0.7,0.3,0.9S88.7,152,89,152z"/>
		<path id="XMLID_1846_" class="st5" d="M92.2,146.3v4.1c0,0.5,0.1,0.9,0.3,1.2s0.6,0.4,1.1,0.4c0.7,0,1.1-0.2,1.4-0.6
			s0.5-1,0.5-1.8v-3.4h1.1v6.4h-0.9l-0.2-0.8h-0.1c-0.2,0.3-0.5,0.5-0.8,0.7s-0.8,0.3-1.2,0.3c-0.8,0-1.4-0.2-1.7-0.6
			s-0.6-1-0.6-1.8v-4.2H92.2z"/>
		<path id="XMLID_1844_" class="st5" d="M103,152.8v-4.1c0-0.5-0.1-0.9-0.3-1.2s-0.6-0.4-1.1-0.4c-0.7,0-1.1,0.2-1.4,0.5
			s-0.4,1-0.4,1.8v3.3h-1.1v-6.4h0.8l0.2,0.9h0.1c0.2-0.3,0.5-0.6,0.8-0.7s0.8-0.3,1.2-0.3c0.8,0,1.4,0.2,1.8,0.6s0.6,1,0.6,1.8v4.2
			H103z"/>
		<path id="XMLID_1841_" class="st5" d="M110.3,152.7l0-0.8h0c-0.4,0.6-1.1,1-2,1c-0.8,0-1.5-0.3-1.9-0.9s-0.7-1.4-0.7-2.5
			c0-1,0.2-1.9,0.7-2.4s1.1-0.9,1.9-0.9c0.9,0,1.5,0.3,2,1h0.1l0.1-0.9h0.8v6.5c0,0.9-0.2,1.6-0.7,2.1s-1.2,0.7-2.2,0.7
			c-0.9,0-1.7-0.1-2.3-0.4v-1c0.6,0.3,1.4,0.5,2.4,0.5c0.5,0,1-0.2,1.3-0.5s0.5-0.8,0.5-1.3V152.7z M108.4,152
			c0.6,0,1.1-0.2,1.4-0.5s0.4-0.9,0.4-1.7v-0.3c0-0.9-0.1-1.5-0.4-1.9s-0.8-0.6-1.4-0.6c-0.5,0-1,0.2-1.3,0.6s-0.4,1-0.4,1.8
			c0,0.8,0.1,1.4,0.4,1.8S107.9,152,108.4,152z"/>
		<path id="XMLID_1838_" class="st5" d="M117.3,152.8l-0.2-0.9h0c-0.3,0.4-0.6,0.7-1,0.8s-0.7,0.2-1.2,0.2c-0.6,0-1.1-0.2-1.5-0.5
			s-0.5-0.8-0.5-1.4c0-1.3,1-2,3.1-2.1l1.1,0v-0.4c0-0.5-0.1-0.8-0.3-1.1s-0.5-0.3-1-0.3c-0.3,0-0.7,0.1-1,0.2s-0.6,0.2-0.9,0.3
			l-0.3-0.8c0.3-0.2,0.7-0.3,1.1-0.4s0.8-0.1,1.1-0.1c0.8,0,1.4,0.2,1.7,0.5s0.6,0.9,0.6,1.6v4.4H117.3z M115.2,152
			c0.6,0,1.1-0.2,1.4-0.5s0.5-0.8,0.5-1.4v-0.6l-0.9,0c-0.7,0-1.3,0.1-1.6,0.4s-0.5,0.5-0.5,1c0,0.3,0.1,0.6,0.3,0.8
			S114.8,152,115.2,152z"/>
		<path id="XMLID_1836_" class="st5" d="M124.5,152.8v-4.1c0-0.5-0.1-0.9-0.3-1.2s-0.6-0.4-1.1-0.4c-0.7,0-1.1,0.2-1.4,0.5
			s-0.4,1-0.4,1.8v3.3h-1.1v-6.4h0.8l0.2,0.9h0.1c0.2-0.3,0.5-0.6,0.8-0.7s0.8-0.3,1.2-0.3c0.8,0,1.4,0.2,1.8,0.6s0.6,1,0.6,1.8v4.2
			H124.5z"/>
		<path id="XMLID_1834_" class="st5" d="M40.9,163.9l0.4-0.5l0.4-0.5l2.1-2.2h1.2l-2.6,2.7l2.8,3.7h-1.3l-2.2-3l-0.7,0.6v2.4h-1
			v-9.1h1v4.8V163.9L40.9,163.9z"/>
		<path id="XMLID_1831_" class="st5" d="M48.8,167.3c-1,0-1.7-0.3-2.3-0.9s-0.8-1.4-0.8-2.4c0-1,0.3-1.9,0.8-2.5s1.2-0.9,2.1-0.9
			c0.8,0,1.5,0.3,1.9,0.8s0.7,1.2,0.7,2.1v0.6h-4.4c0,0.7,0.2,1.3,0.6,1.7s0.8,0.6,1.5,0.6c0.3,0,0.7,0,1-0.1s0.7-0.2,1.1-0.4v0.9
			c-0.4,0.2-0.7,0.3-1,0.3S49.3,167.3,48.8,167.3z M48.6,161.5c-0.5,0-0.9,0.2-1.2,0.5s-0.5,0.8-0.5,1.4h3.3c0-0.6-0.1-1.1-0.4-1.4
			S49.1,161.5,48.6,161.5z"/>
		<path id="XMLID_1828_" class="st5" d="M55.9,167.3c-0.9,0-1.5-0.3-2-0.9h-0.1l0,0.2c0,0.3,0,0.6,0,0.8v2.6h-1.1v-9.3h0.9l0.1,0.9
			h0c0.3-0.4,0.5-0.6,0.9-0.8s0.7-0.2,1.1-0.2c0.8,0,1.5,0.3,1.9,0.9s0.7,1.4,0.7,2.5c0,1.1-0.2,1.9-0.7,2.5S56.8,167.3,55.9,167.3z
			 M55.8,161.5c-0.6,0-1.1,0.2-1.4,0.5s-0.4,0.9-0.4,1.7v0.2c0,0.9,0.1,1.5,0.4,1.9s0.8,0.6,1.4,0.6c0.5,0,1-0.2,1.3-0.7
			s0.5-1,0.5-1.8c0-0.8-0.2-1.4-0.5-1.8S56.3,161.5,55.8,161.5z"/>
		<path id="XMLID_1825_" class="st5" d="M64.2,167.2l-0.2-0.9h0c-0.3,0.4-0.6,0.7-1,0.8s-0.7,0.2-1.2,0.2c-0.6,0-1.1-0.2-1.5-0.5
			s-0.5-0.8-0.5-1.4c0-1.3,1-2,3.1-2.1l1.1,0v-0.4c0-0.5-0.1-0.8-0.3-1.1s-0.5-0.3-1-0.3c-0.3,0-0.7,0.1-1,0.2s-0.6,0.2-0.9,0.3
			l-0.3-0.8c0.3-0.2,0.7-0.3,1.1-0.4s0.8-0.1,1.1-0.1c0.8,0,1.4,0.2,1.7,0.5s0.6,0.9,0.6,1.6v4.4H64.2z M62.1,166.4
			c0.6,0,1.1-0.2,1.4-0.5s0.5-0.8,0.5-1.4V164l-0.9,0c-0.7,0-1.3,0.1-1.6,0.4s-0.5,0.5-0.5,1c0,0.3,0.1,0.6,0.3,0.8
			S61.7,166.4,62.1,166.4z"/>
		<path id="XMLID_1822_" class="st5" d="M69.3,167.3c-0.8,0-1.5-0.3-1.9-0.9s-0.7-1.4-0.7-2.5c0-1.1,0.2-1.9,0.7-2.5s1.1-0.9,2-0.9
			c0.9,0,1.5,0.3,2,0.9h0.1c0-0.1,0-0.2,0-0.5s0-0.4,0-0.5v-2.6h1.1v9.1h-0.8l-0.2-0.9h0C70.8,167,70.2,167.3,69.3,167.3z
			 M69.4,166.4c0.6,0,1.1-0.2,1.4-0.5s0.4-0.9,0.4-1.7V164c0-0.9-0.1-1.5-0.4-1.9s-0.8-0.6-1.4-0.6c-0.5,0-1,0.2-1.3,0.6
			s-0.4,1-0.4,1.8c0,0.8,0.1,1.4,0.4,1.8S68.9,166.4,69.4,166.4z"/>
		<path id="XMLID_1819_" class="st5" d="M78.4,167.2l-0.2-0.9h0c-0.3,0.4-0.6,0.7-1,0.8s-0.7,0.2-1.2,0.2c-0.6,0-1.1-0.2-1.5-0.5
			s-0.5-0.8-0.5-1.4c0-1.3,1-2,3.1-2.1l1.1,0v-0.4c0-0.5-0.1-0.8-0.3-1.1s-0.5-0.3-1-0.3c-0.3,0-0.7,0.1-1,0.2s-0.6,0.2-0.9,0.3
			l-0.3-0.8c0.3-0.2,0.7-0.3,1.1-0.4s0.8-0.1,1.1-0.1c0.8,0,1.4,0.2,1.7,0.5s0.6,0.9,0.6,1.6v4.4H78.4z M76.2,166.4
			c0.6,0,1.1-0.2,1.4-0.5s0.5-0.8,0.5-1.4V164l-0.9,0c-0.7,0-1.3,0.1-1.6,0.4s-0.5,0.5-0.5,1c0,0.3,0.1,0.6,0.3,0.8
			S75.8,166.4,76.2,166.4z"/>
		<path id="XMLID_1816_" class="st5" d="M88.2,167.2l-0.2-0.9h0c-0.3,0.4-0.6,0.7-1,0.8s-0.7,0.2-1.2,0.2c-0.6,0-1.1-0.2-1.5-0.5
			s-0.5-0.8-0.5-1.4c0-1.3,1-2,3.1-2.1l1.1,0v-0.4c0-0.5-0.1-0.8-0.3-1.1s-0.5-0.3-1-0.3c-0.3,0-0.7,0.1-1,0.2s-0.6,0.2-0.9,0.3
			l-0.3-0.8c0.3-0.2,0.7-0.3,1.1-0.4s0.8-0.1,1.1-0.1c0.8,0,1.4,0.2,1.7,0.5s0.6,0.9,0.6,1.6v4.4H88.2z M86,166.4
			c0.6,0,1.1-0.2,1.4-0.5s0.5-0.8,0.5-1.4V164l-0.9,0c-0.7,0-1.3,0.1-1.6,0.4s-0.5,0.5-0.5,1c0,0.3,0.1,0.6,0.3,0.8
			S85.7,166.4,86,166.4z"/>
		<path id="XMLID_1814_" class="st5" d="M95.3,167.2v-4.1c0-0.5-0.1-0.9-0.3-1.2s-0.6-0.4-1.1-0.4c-0.7,0-1.1,0.2-1.4,0.5
			s-0.4,1-0.4,1.8v3.3H91v-6.4h0.8l0.2,0.9H92c0.2-0.3,0.5-0.6,0.8-0.7s0.8-0.3,1.2-0.3c0.8,0,1.4,0.2,1.8,0.6s0.6,1,0.6,1.8v4.2
			H95.3z"/>
		<path id="XMLID_1811_" class="st5" d="M100.7,167.3c-0.8,0-1.5-0.3-1.9-0.9S98,165,98,164c0-1.1,0.2-1.9,0.7-2.5s1.1-0.9,2-0.9
			c0.9,0,1.5,0.3,2,0.9h0.1c0-0.1,0-0.2,0-0.5s0-0.4,0-0.5v-2.6h1.1v9.1h-0.8l-0.2-0.9h0C102.2,167,101.5,167.3,100.7,167.3z
			 M100.8,166.4c0.6,0,1.1-0.2,1.4-0.5s0.4-0.9,0.4-1.7V164c0-0.9-0.1-1.5-0.4-1.9s-0.8-0.6-1.4-0.6c-0.5,0-1,0.2-1.3,0.6
			s-0.4,1-0.4,1.8c0,0.8,0.1,1.4,0.4,1.8S100.3,166.4,100.8,166.4z"/>
		<path id="XMLID_1808_" class="st5" d="M109.7,167.2l-0.2-0.9h0c-0.3,0.4-0.6,0.7-1,0.8s-0.7,0.2-1.2,0.2c-0.6,0-1.1-0.2-1.5-0.5
			s-0.5-0.8-0.5-1.4c0-1.3,1-2,3.1-2.1l1.1,0v-0.4c0-0.5-0.1-0.8-0.3-1.1s-0.5-0.3-1-0.3c-0.3,0-0.7,0.1-1,0.2s-0.6,0.2-0.9,0.3
			l-0.3-0.8c0.3-0.2,0.7-0.3,1.1-0.4s0.8-0.1,1.1-0.1c0.8,0,1.4,0.2,1.7,0.5s0.6,0.9,0.6,1.6v4.4H109.7z M107.6,166.4
			c0.6,0,1.1-0.2,1.4-0.5s0.5-0.8,0.5-1.4V164l-0.9,0c-0.7,0-1.3,0.1-1.6,0.4s-0.5,0.5-0.5,1c0,0.3,0.1,0.6,0.3,0.8
			S107.2,166.4,107.6,166.4z"/>
	</g>
</g>
</svg>
