<?xml version="1.0" encoding="utf-8"?>
<!-- Generator: Adobe Illustrator 19.0.0, SVG Export Plug-In . SVG Version: 6.00 Build 0)  -->
<svg version="1.1" id="Layer_1" xmlns="http://www.w3.org/2000/svg" xmlns:xlink="http://www.w3.org/1999/xlink" x="0px" y="0px"
	 viewBox="0 0 165.3 167.3" style="enable-background:new 0 0 165.3 167.3;" xml:space="preserve">
<style type="text/css">
	.st0{fill:#A01D4F;}
	.st1{fill:#FFFFFF;}
	.st2{fill:#CD202B;}
	.st3{fill:#E4E4E4;}
	.st4{fill:none;stroke:#FFFFFF;stroke-width:0.5;stroke-miterlimit:10;}
	.st5{fill:#404040;}
</style>
<rect id="XMLID_4060_" x="16.7" y="0" class="st0" width="148.7" height="167"/>
<rect id="XMLID_4078_" x="16.7" y="106.5" class="st1" width="148.7" height="60.8"/>
<g id="XMLID_9313_">
	<circle id="XMLID_9314_" class="st2" cx="30.2" cy="119.2" r="4"/>
	<path id="XMLID_9315_" class="st2" d="M26.1,119.2h8.1v10.1C34.2,129.3,26.1,124.4,26.1,119.2z"/>
	<circle id="XMLID_2547_" class="st2" cx="38.2" cy="119" r="4"/>
	<path id="XMLID_2546_" class="st2" d="M42.2,119h-8.1v10.1C34.2,129.1,42.2,124.2,42.2,119z"/>
</g>
<g id="XMLID_9325_">
	<g id="XMLID_9326_">
		<path id="XMLID_2544_" class="st3" d="M72.8,22.1l-10.2,1.8c-2.2,0-4,1.5-4,3.3v64.1c0,1.8,1.8,3.3,4,3.3h33.1V16.5H78.2
			L72.8,22.1"/>
		<path id="XMLID_2543_" class="st3" d="M109.4,22.1l10.2,1.8c2.2,0,4,1.5,4,3.3v64.1c0,1.8-1.8,3.3-4,3.3H86.5V16.4h17.4
			L109.4,22.1"/>
		<line id="XMLID_2542_" class="st4" x1="91.1" y1="94.5" x2="91.1" y2="30.1"/>
		<polygon id="XMLID_2541_" class="st0" points="120.2,62.1 111.6,65 103.1,62.1 103.1,45.9 120.2,45.9 		"/>
		<line id="XMLID_2540_" class="st4" x1="78.6" y1="16.5" x2="103.1" y2="16.5"/>
		
			<rect id="XMLID_2539_" x="78.1" y="16.7" transform="matrix(0.7071 -0.7071 0.7071 0.7071 5.7218 65.5114)" class="st4" width="7.7" height="18.2"/>
		
			<rect id="XMLID_2538_" x="96" y="17.1" transform="matrix(-0.7071 -0.7071 0.7071 -0.7071 152.15 114.646)" class="st4" width="7.7" height="17.5"/>
		<circle id="XMLID_2537_" class="st0" cx="96.9" cy="42.5" r="1.3"/>
		<circle id="XMLID_2536_" class="st0" cx="96.9" cy="50.1" r="1.3"/>
		<circle id="XMLID_2535_" class="st0" cx="96.9" cy="57.6" r="1.3"/>
		<circle id="XMLID_2534_" class="st0" cx="96.9" cy="65.2" r="1.3"/>
		<circle id="XMLID_2533_" class="st0" cx="96.9" cy="72.8" r="1.3"/>
		<circle id="XMLID_2532_" class="st0" cx="96.9" cy="80.4" r="1.3"/>
		<circle id="XMLID_2531_" class="st0" cx="96.9" cy="88" r="1.3"/>
	</g>
</g>
<g id="XMLID_14_">
	<g id="XMLID_851_">
		<path id="XMLID_915_" class="st5" d="M55.3,120.2c0,1.1-0.3,1.9-1,2.4c-0.7,0.6-1.6,0.8-2.8,0.8h-0.9v3.5h-2.1v-9.8h3.1
			c1.2,0,2.1,0.3,2.7,0.8C55,118.4,55.3,119.2,55.3,120.2z M50.6,121.8h0.7c0.6,0,1.1-0.1,1.4-0.4c0.3-0.3,0.5-0.6,0.5-1.1
			c0-0.5-0.1-0.8-0.4-1.1c-0.3-0.2-0.7-0.3-1.3-0.3h-0.9V121.8z"/>
		<path id="XMLID_912_" class="st5" d="M61.8,127l-0.4-1h-0.1c-0.3,0.4-0.7,0.7-1.1,0.9s-0.8,0.3-1.4,0.3c-0.7,0-1.3-0.2-1.7-0.6
			s-0.6-1-0.6-1.8c0-0.8,0.3-1.4,0.8-1.8c0.6-0.4,1.4-0.6,2.5-0.6l1.3,0V122c0-0.8-0.4-1.1-1.2-1.1c-0.6,0-1.3,0.2-2.1,0.5l-0.7-1.4
			c0.9-0.5,1.8-0.7,2.9-0.7c1,0,1.8,0.2,2.3,0.7c0.5,0.4,0.8,1.1,0.8,2v5H61.8z M61.2,123.5l-0.8,0c-0.6,0-1,0.1-1.3,0.3
			s-0.4,0.5-0.4,0.9c0,0.6,0.3,0.9,1,0.9c0.5,0,0.9-0.1,1.1-0.4c0.3-0.3,0.4-0.6,0.4-1.1V123.5z"/>
		<path id="XMLID_910_" class="st5" d="M67.3,122.9l0.9-1.1l2.1-2.3h2.3l-3,3.3l3.2,4.3h-2.4l-2.2-3l-0.9,0.7v2.3h-2v-10.5h2v4.7
			L67.3,122.9L67.3,122.9z"/>
		<path id="XMLID_907_" class="st5" d="M78.6,127l-0.4-1h-0.1c-0.3,0.4-0.7,0.7-1.1,0.9s-0.8,0.3-1.4,0.3c-0.7,0-1.3-0.2-1.7-0.6
			s-0.6-1-0.6-1.8c0-0.8,0.3-1.4,0.8-1.8c0.6-0.4,1.4-0.6,2.5-0.6l1.3,0V122c0-0.8-0.4-1.1-1.2-1.1c-0.6,0-1.3,0.2-2.1,0.5l-0.7-1.4
			c0.9-0.5,1.8-0.7,2.9-0.7c1,0,1.8,0.2,2.3,0.7c0.5,0.4,0.8,1.1,0.8,2v5H78.6z M78,123.5l-0.8,0c-0.6,0-1,0.1-1.3,0.3
			s-0.4,0.5-0.4,0.9c0,0.6,0.3,0.9,1,0.9c0.5,0,0.9-0.1,1.1-0.4c0.3-0.3,0.4-0.6,0.4-1.1V123.5z"/>
		<path id="XMLID_904_" class="st5" d="M82.1,117.5c0-0.7,0.4-1,1.1-1c0.7,0,1.1,0.3,1.1,1c0,0.3-0.1,0.6-0.3,0.7
			c-0.2,0.2-0.5,0.3-0.8,0.3C82.5,118.5,82.1,118.2,82.1,117.5z M84.2,127h-2v-7.5h2V127z"/>
		<path id="XMLID_901_" class="st5" d="M91.1,127l-0.4-1h-0.1c-0.3,0.4-0.7,0.7-1.1,0.9s-0.8,0.3-1.4,0.3c-0.7,0-1.3-0.2-1.7-0.6
			s-0.6-1-0.6-1.8c0-0.8,0.3-1.4,0.8-1.8c0.6-0.4,1.4-0.6,2.5-0.6l1.3,0V122c0-0.8-0.4-1.1-1.2-1.1c-0.6,0-1.3,0.2-2.1,0.5l-0.7-1.4
			c0.9-0.5,1.8-0.7,2.9-0.7c1,0,1.8,0.2,2.3,0.7c0.5,0.4,0.8,1.1,0.8,2v5H91.1z M90.5,123.5l-0.8,0c-0.6,0-1,0.1-1.3,0.3
			s-0.4,0.5-0.4,0.9c0,0.6,0.3,0.9,1,0.9c0.5,0,0.9-0.1,1.1-0.4c0.3-0.3,0.4-0.6,0.4-1.1V123.5z"/>
		<path id="XMLID_899_" class="st5" d="M101.6,127h-2v-4.4c0-0.5-0.1-0.9-0.3-1.2c-0.2-0.3-0.5-0.4-0.9-0.4c-0.6,0-1,0.2-1.2,0.6
			s-0.4,1-0.4,1.9v3.5h-2v-7.5h1.6l0.3,1h0.1c0.2-0.4,0.5-0.6,0.9-0.8c0.4-0.2,0.9-0.3,1.4-0.3c0.9,0,1.5,0.2,2,0.7
			c0.5,0.5,0.7,1.2,0.7,2V127z"/>
		<path id="XMLID_897_" class="st5" d="M53.3,139.1c0,0.7-0.3,1.3-0.8,1.8s-1.3,0.6-2.3,0.6c-1,0-1.8-0.1-2.4-0.4v-1
			c0.4,0.2,0.8,0.3,1.2,0.4s0.8,0.1,1.2,0.1c0.6,0,1.1-0.1,1.4-0.4s0.5-0.6,0.5-1c0-0.3-0.1-0.5-0.2-0.7s-0.3-0.4-0.6-0.5
			s-0.7-0.3-1.3-0.5c-0.8-0.3-1.4-0.6-1.7-1s-0.5-0.9-0.5-1.5c0-0.7,0.3-1.2,0.8-1.6s1.2-0.6,2-0.6c0.9,0,1.6,0.2,2.4,0.5l-0.3,0.9
			c-0.7-0.3-1.4-0.5-2.1-0.5c-0.5,0-0.9,0.1-1.2,0.3s-0.4,0.5-0.4,0.9c0,0.3,0.1,0.5,0.2,0.7s0.3,0.4,0.5,0.5s0.6,0.3,1.2,0.5
			c0.6,0.2,1.1,0.5,1.4,0.7s0.5,0.5,0.7,0.8S53.3,138.7,53.3,139.1z"/>
		<path id="XMLID_894_" class="st5" d="M57.6,141.5c-1,0-1.7-0.3-2.3-0.9s-0.8-1.4-0.8-2.4c0-1,0.3-1.9,0.8-2.5s1.2-0.9,2.1-0.9
			c0.8,0,1.5,0.3,1.9,0.8s0.7,1.2,0.7,2.1v0.6h-4.4c0,0.7,0.2,1.3,0.6,1.7s0.8,0.6,1.5,0.6c0.3,0,0.7,0,1-0.1s0.7-0.2,1.1-0.4v0.9
			c-0.4,0.2-0.7,0.3-1,0.3S58.1,141.5,57.6,141.5z M57.4,135.7c-0.5,0-0.9,0.2-1.2,0.5s-0.5,0.8-0.5,1.4h3.3c0-0.6-0.1-1.1-0.4-1.4
			S57.9,135.7,57.4,135.7z"/>
		<path id="XMLID_892_" class="st5" d="M62.7,141.4h-1.1v-9.1h1.1V141.4z"/>
		<path id="XMLID_889_" class="st5" d="M68.7,141.4l-0.2-0.9h0c-0.3,0.4-0.6,0.7-1,0.8s-0.7,0.2-1.2,0.2c-0.6,0-1.1-0.2-1.5-0.5
			s-0.5-0.8-0.5-1.4c0-1.3,1-2,3.1-2.1l1.1,0v-0.4c0-0.5-0.1-0.8-0.3-1.1s-0.5-0.3-1-0.3c-0.3,0-0.7,0.1-1,0.2s-0.6,0.2-0.9,0.3
			l-0.3-0.8c0.3-0.2,0.7-0.3,1.1-0.4s0.8-0.1,1.1-0.1c0.8,0,1.4,0.2,1.7,0.5s0.6,0.9,0.6,1.6v4.4H68.7z M66.6,140.7
			c0.6,0,1.1-0.2,1.4-0.5s0.5-0.8,0.5-1.4v-0.6l-0.9,0c-0.7,0-1.3,0.1-1.6,0.4s-0.5,0.5-0.5,1c0,0.3,0.1,0.6,0.3,0.8
			S66.2,140.7,66.6,140.7z"/>
		<path id="XMLID_887_" class="st5" d="M72.6,141.4h-1.1v-9.1h1.1V141.4z"/>
		<path id="XMLID_885_" class="st5" d="M75.6,135v4.1c0,0.5,0.1,0.9,0.3,1.2s0.6,0.4,1.1,0.4c0.7,0,1.1-0.2,1.4-0.6s0.5-1,0.5-1.8
			V135H80v6.4h-0.9l-0.2-0.8h-0.1c-0.2,0.3-0.5,0.5-0.8,0.7s-0.8,0.3-1.2,0.3c-0.8,0-1.4-0.2-1.7-0.6s-0.6-1-0.6-1.8V135H75.6z"/>
		<path id="XMLID_882_" class="st5" d="M88.2,134.8c0.8,0,1.5,0.3,2,0.9s0.7,1.4,0.7,2.4c0,1.1-0.2,1.9-0.7,2.5s-1.1,0.9-2,0.9
			c-0.4,0-0.8-0.1-1.2-0.2s-0.6-0.4-0.8-0.7h-0.1c-0.1,0.5-0.2,0.7-0.2,0.8h-0.8v-9.1h1.1v2.2c0,0.4,0,0.9-0.1,1.3h0.1
			C86.6,135.2,87.3,134.8,88.2,134.8z M88,135.7c-0.6,0-1.1,0.2-1.4,0.6s-0.4,1-0.4,1.9v0c0,0.9,0.1,1.5,0.4,1.9s0.8,0.6,1.4,0.6
			c0.6,0,1-0.2,1.3-0.6s0.4-1,0.4-1.8c0-0.8-0.1-1.4-0.4-1.8S88.6,135.7,88,135.7z"/>
		<path id="XMLID_879_" class="st5" d="M95.2,141.5c-1,0-1.7-0.3-2.3-0.9s-0.8-1.4-0.8-2.4c0-1,0.3-1.9,0.8-2.5s1.2-0.9,2.1-0.9
			c0.8,0,1.5,0.3,1.9,0.8s0.7,1.2,0.7,2.1v0.6h-4.4c0,0.7,0.2,1.3,0.6,1.7s0.8,0.6,1.5,0.6c0.3,0,0.7,0,1-0.1s0.7-0.2,1.1-0.4v0.9
			c-0.4,0.2-0.7,0.3-1,0.3S95.7,141.5,95.2,141.5z M95,135.7c-0.5,0-0.9,0.2-1.2,0.5s-0.5,0.8-0.5,1.4h3.3c0-0.6-0.1-1.1-0.4-1.4
			S95.5,135.7,95,135.7z"/>
		<path id="XMLID_877_" class="st5" d="M102.3,134.8c0.3,0,0.5,0,0.8,0.1l-0.1,1c-0.2-0.1-0.5-0.1-0.7-0.1c-0.3,0-0.7,0.1-0.9,0.3
			s-0.5,0.4-0.7,0.8s-0.2,0.7-0.2,1.1v3.4h-1.1V135h0.9l0.1,1.2h0c0.2-0.4,0.5-0.7,0.9-1S101.9,134.8,102.3,134.8z"/>
		<path id="XMLID_874_" class="st5" d="M108.1,141.4l-0.2-0.9h0c-0.3,0.4-0.6,0.7-1,0.8s-0.7,0.2-1.2,0.2c-0.6,0-1.1-0.2-1.5-0.5
			s-0.5-0.8-0.5-1.4c0-1.3,1-2,3.1-2.1l1.1,0v-0.4c0-0.5-0.1-0.8-0.3-1.1s-0.5-0.3-1-0.3c-0.3,0-0.7,0.1-1,0.2s-0.6,0.2-0.9,0.3
			l-0.3-0.8c0.3-0.2,0.7-0.3,1.1-0.4s0.8-0.1,1.1-0.1c0.8,0,1.4,0.2,1.7,0.5s0.6,0.9,0.6,1.6v4.4H108.1z M105.9,140.7
			c0.6,0,1.1-0.2,1.4-0.5s0.5-0.8,0.5-1.4v-0.6l-0.9,0c-0.7,0-1.3,0.1-1.6,0.4s-0.5,0.5-0.5,1c0,0.3,0.1,0.6,0.3,0.8
			S105.5,140.7,105.9,140.7z"/>
		<path id="XMLID_871_" class="st5" d="M113.1,141.5c-0.8,0-1.5-0.3-1.9-0.9s-0.7-1.4-0.7-2.5c0-1.1,0.2-1.9,0.7-2.5s1.1-0.9,2-0.9
			c0.9,0,1.5,0.3,2,0.9h0.1c0-0.1,0-0.2,0-0.5s0-0.4,0-0.5v-2.6h1.1v9.1h-0.8l-0.2-0.9h0C114.7,141.2,114,141.5,113.1,141.5z
			 M113.3,140.6c0.6,0,1.1-0.2,1.4-0.5s0.4-0.9,0.4-1.7v-0.2c0-0.9-0.1-1.5-0.4-1.9s-0.8-0.6-1.4-0.6c-0.5,0-1,0.2-1.3,0.6
			s-0.4,1-0.4,1.8c0,0.8,0.1,1.4,0.4,1.8S112.7,140.6,113.3,140.6z"/>
		<path id="XMLID_868_" class="st5" d="M122.2,141.4l-0.2-0.9h0c-0.3,0.4-0.6,0.7-1,0.8s-0.7,0.2-1.2,0.2c-0.6,0-1.1-0.2-1.5-0.5
			s-0.5-0.8-0.5-1.4c0-1.3,1-2,3.1-2.1l1.1,0v-0.4c0-0.5-0.1-0.8-0.3-1.1s-0.5-0.3-1-0.3c-0.3,0-0.7,0.1-1,0.2s-0.6,0.2-0.9,0.3
			l-0.3-0.8c0.3-0.2,0.7-0.3,1.1-0.4s0.8-0.1,1.1-0.1c0.8,0,1.4,0.2,1.7,0.5s0.6,0.9,0.6,1.6v4.4H122.2z M120,140.7
			c0.6,0,1.1-0.2,1.4-0.5s0.5-0.8,0.5-1.4v-0.6l-0.9,0c-0.7,0-1.3,0.1-1.6,0.4s-0.5,0.5-0.5,1c0,0.3,0.1,0.6,0.3,0.8
			S119.7,140.7,120,140.7z"/>
		<path id="XMLID_865_" class="st5" d="M130.4,141.5c-0.8,0-1.5-0.3-1.9-0.9s-0.7-1.4-0.7-2.5c0-1.1,0.2-1.9,0.7-2.5s1.1-0.9,2-0.9
			c0.9,0,1.5,0.3,2,0.9h0.1c0-0.1,0-0.2,0-0.5s0-0.4,0-0.5v-2.6h1.1v9.1h-0.8l-0.2-0.9h0C131.9,141.2,131.2,141.5,130.4,141.5z
			 M130.5,140.6c0.6,0,1.1-0.2,1.4-0.5s0.4-0.9,0.4-1.7v-0.2c0-0.9-0.1-1.5-0.4-1.9s-0.8-0.6-1.4-0.6c-0.5,0-1,0.2-1.3,0.6
			s-0.4,1-0.4,1.8c0,0.8,0.1,1.4,0.4,1.8S130,140.6,130.5,140.6z"/>
		<path id="XMLID_862_" class="st5" d="M135.4,133.2c0-0.2,0.1-0.4,0.2-0.5s0.3-0.2,0.4-0.2c0.2,0,0.3,0.1,0.4,0.2s0.2,0.3,0.2,0.5
			c0,0.2-0.1,0.4-0.2,0.5s-0.3,0.2-0.4,0.2c-0.2,0-0.3-0.1-0.4-0.2S135.4,133.4,135.4,133.2z M136.5,141.4h-1.1V135h1.1V141.4z"/>
		<path id="XMLID_860_" class="st5" d="M142.7,139.6c0,0.6-0.2,1.1-0.7,1.4s-1.1,0.5-1.9,0.5c-0.8,0-1.5-0.1-2-0.4v-1
			c0.7,0.3,1.4,0.5,2,0.5c0.5,0,0.9-0.1,1.2-0.3s0.4-0.4,0.4-0.7c0-0.3-0.1-0.5-0.3-0.6s-0.6-0.4-1.2-0.6c-0.6-0.2-1-0.4-1.3-0.6
			s-0.4-0.4-0.5-0.6s-0.2-0.5-0.2-0.8c0-0.5,0.2-0.9,0.6-1.2s1-0.5,1.8-0.5c0.7,0,1.4,0.1,2.1,0.4l-0.4,0.8
			c-0.7-0.3-1.2-0.4-1.8-0.4c-0.4,0-0.8,0.1-1,0.2s-0.3,0.3-0.3,0.6c0,0.2,0.1,0.4,0.3,0.6s0.7,0.4,1.4,0.6c0.5,0.2,0.9,0.4,1.2,0.6
			s0.4,0.4,0.6,0.6S142.7,139.3,142.7,139.6z"/>
		<path id="XMLID_857_" class="st5" d="M144.2,133.2c0-0.2,0.1-0.4,0.2-0.5s0.3-0.2,0.4-0.2c0.2,0,0.3,0.1,0.4,0.2s0.2,0.3,0.2,0.5
			c0,0.2-0.1,0.4-0.2,0.5s-0.3,0.2-0.4,0.2c-0.2,0-0.3-0.1-0.4-0.2S144.2,133.4,144.2,133.2z M145.4,141.4h-1.1V135h1.1V141.4z"/>
		<path id="XMLID_855_" class="st5" d="M151.6,139.6c0,0.6-0.2,1.1-0.7,1.4s-1.1,0.5-1.9,0.5c-0.8,0-1.5-0.1-2-0.4v-1
			c0.7,0.3,1.4,0.5,2,0.5c0.5,0,0.9-0.1,1.2-0.3s0.4-0.4,0.4-0.7c0-0.3-0.1-0.5-0.3-0.6s-0.6-0.4-1.2-0.6c-0.6-0.2-1-0.4-1.3-0.6
			s-0.4-0.4-0.5-0.6s-0.2-0.5-0.2-0.8c0-0.5,0.2-0.9,0.6-1.2s1-0.5,1.8-0.5c0.7,0,1.4,0.1,2.1,0.4l-0.4,0.8
			c-0.7-0.3-1.2-0.4-1.8-0.4c-0.4,0-0.8,0.1-1,0.2s-0.3,0.3-0.3,0.6c0,0.2,0.1,0.4,0.3,0.6s0.7,0.4,1.4,0.6c0.5,0.2,0.9,0.4,1.2,0.6
			s0.4,0.4,0.6,0.6S151.6,139.3,151.6,139.6z"/>
		<path id="XMLID_852_" class="st5" d="M153.1,133.2c0-0.2,0.1-0.4,0.2-0.5s0.3-0.2,0.4-0.2c0.2,0,0.3,0.1,0.4,0.2s0.2,0.3,0.2,0.5
			c0,0.2-0.1,0.4-0.2,0.5s-0.3,0.2-0.4,0.2c-0.2,0-0.3-0.1-0.4-0.2S153.1,133.4,153.1,133.2z M154.2,141.4h-1.1V135h1.1V141.4z"/>
	</g>
</g>
<polygon id="XMLID_4061_" class="st1" points="19.2,167.3 19.2,147.5 0,167.3 "/>
</svg>
