<?xml version="1.0" encoding="utf-8"?>
<!-- Generator: Adobe Illustrator 19.0.0, SVG Export Plug-In . SVG Version: 6.00 Build 0)  -->
<svg version="1.1" id="Layer_1" xmlns="http://www.w3.org/2000/svg" xmlns:xlink="http://www.w3.org/1999/xlink" x="0px" y="0px"
	 viewBox="0 0 166 167" style="enable-background:new 0 0 166 167;" xml:space="preserve">
<style type="text/css">
	.st0{fill:#125B7C;}
	.st1{fill:#FFFFFF;}
	.st2{fill:#CD202B;}
	.st3{fill:#197696;}
	.st4{fill:#D14C27;}
	.st5{fill:#8F878B;}
	.st6{fill:#EF972A;}
	.st7{fill:#F7B85B;}
	.st8{fill:#E17D26;}
	.st9{fill:#F9F9FA;}
	.st10{fill:#B7B7B7;}
	.st11{fill:#404040;}
</style>
<rect id="XMLID_12761_" x="0" y="0" class="st0" width="150" height="159.7"/>
<polygon id="XMLID_12760_" class="st1" points="146.8,166.9 146.8,147.8 166,167 "/>
<rect id="XMLID_12759_" x="0" y="95.6" class="st1" width="150" height="71.3"/>
<g id="XMLID_12750_">
	<circle id="XMLID_12754_" class="st2" cx="15" cy="110.6" r="4"/>
	<path id="XMLID_12753_" class="st2" d="M10.9,110.6H19v10.1C19,120.6,10.9,115.7,10.9,110.6z"/>
	<circle id="XMLID_12752_" class="st2" cx="23" cy="110.4" r="4"/>
	<path id="XMLID_12751_" class="st2" d="M27,110.4H19v10.1C19,120.5,27,115.5,27,110.4z"/>
</g>
<g id="XMLID_12728_">
	<circle id="XMLID_12749_" class="st3" cx="79.6" cy="48.7" r="42.9"/>
	<g id="XMLID_12737_">
		<polygon id="XMLID_12748_" class="st4" points="70.9,29.9 64.3,23.2 72.3,12.9 81.4,12.9 81.4,33.7 		"/>
		<polygon id="XMLID_12747_" class="st4" points="86.4,29.9 93.1,23.2 85,12.9 76,12.9 76,33.7 		"/>
		<path id="XMLID_12746_" class="st5" d="M102,53.2c0,1-0.1,2-0.2,2.9c-1.4,12.1-11.7,21.4-24.2,21.4c-13.4,0-24.4-10.9-24.4-24.3
			c0-13.4,10.9-24.4,24.4-24.4c11.9,0,21.7,8.5,23.9,19.7c0.2,1,0.3,1.9,0.4,2.9v0C102,52.1,102,52.6,102,53.2z"/>
		<polygon id="XMLID_12745_" class="st6" points="64.3,23.2 93.1,23.2 85,12.9 72.3,12.9 		"/>
		<polygon id="XMLID_12744_" class="st7" points="72.3,12.9 78.7,23.2 85,12.9 		"/>
		<polygon id="XMLID_12743_" class="st8" points="72.3,12.9 67.7,23.2 78.7,23.2 		"/>
		<polygon id="XMLID_12742_" class="st8" points="85,12.9 89.7,23.2 78.7,23.2 		"/>
		<polygon id="XMLID_12741_" class="st9" points="101.6,48.6 94.3,48.6 94.3,51.5 102,51.5 		"/>
		<path id="XMLID_12740_" class="st9" d="M102,53.2c0,1-0.1,2-0.2,2.9h-7.5v-2.9H102z"/>
		<circle id="XMLID_12739_" class="st10" cx="77.7" cy="52.8" r="21.5"/>
		<circle id="XMLID_12738_" class="st3" cx="77.7" cy="52.8" r="17.3"/>
	</g>
	<g id="XMLID_12729_">
		<path id="XMLID_12736_" class="st7" d="M48.9,3.3c0,0-0.7,3.5-4.2,4c3.5,0.5,4.2,4,4.2,4s0.7-3.5,4.2-4
			C49.6,6.8,48.9,3.3,48.9,3.3"/>
		<path id="XMLID_12735_" class="st7" d="M59.1,22.8c0,0-0.7,3.5-4.2,4c3.5,0.5,4.2,4,4.2,4s0.7-3.5,4.2-4
			C59.8,26.3,59.1,22.8,59.1,22.8"/>
		<path id="XMLID_12732_" class="st7" d="M43.8,12.9c0,0-1.7,8.7-10.3,9.9c8.6,1.3,10.3,9.9,10.3,9.9s1.7-8.7,10.3-9.9
			C45.5,21.6,43.8,12.9,43.8,12.9 M43.8,15.5c0.3,0.7,0.7,1.5,1.2,2.3c1.5,2.3,3.5,4,5.9,5c-2.4,1-4.4,2.7-5.9,5
			c-0.5,0.8-0.9,1.6-1.2,2.3c-0.3-0.7-0.7-1.5-1.2-2.3c-1.5-2.3-3.5-4-5.9-5c2.4-1,4.4-2.7,5.9-5C43.1,17,43.5,16.2,43.8,15.5"/>
		<path id="XMLID_12731_" class="st7" d="M37.4,17.4c-0.4-0.8-1.1-1.9-2.4-2.5c1.3-0.6,2-1.7,2.4-2.5c0.4,0.8,1.1,1.9,2.4,2.5
			C38.5,15.5,37.8,16.6,37.4,17.4z"/>
		<circle id="XMLID_12730_" class="st7" cx="52.1" cy="33.1" r="2"/>
	</g>
</g>
<g id="XMLID_14_">
	<g id="XMLID_687_">
		<path id="XMLID_747_" class="st11" d="M50,111.7c0,1.1-0.3,1.9-1,2.5c-0.7,0.6-1.6,0.9-2.9,0.9h-0.9v3.6h-2.1v-10h3.2
			c1.2,0,2.1,0.3,2.8,0.8C49.7,109.9,50,110.7,50,111.7z M45.2,113.3h0.7c0.7,0,1.1-0.1,1.5-0.4c0.3-0.3,0.5-0.6,0.5-1.1
			c0-0.5-0.1-0.9-0.4-1.1c-0.3-0.2-0.7-0.4-1.3-0.4h-1V113.3z"/>
		<path id="XMLID_744_" class="st11" d="M55.2,118.7c-1.2,0-2.2-0.3-2.9-1c-0.7-0.7-1-1.6-1-2.9c0-1.3,0.3-2.3,1-3
			c0.6-0.7,1.5-1,2.7-1c1.1,0,1.9,0.3,2.5,0.9s0.9,1.5,0.9,2.5v1h-4.9c0,0.6,0.2,1.1,0.5,1.4c0.3,0.3,0.8,0.5,1.4,0.5
			c0.5,0,0.9,0,1.3-0.1s0.8-0.2,1.3-0.5v1.6c-0.4,0.2-0.8,0.3-1.2,0.4S55.8,118.7,55.2,118.7z M54.9,112.3c-0.4,0-0.8,0.1-1,0.4
			s-0.4,0.7-0.4,1.2h2.9c0-0.5-0.1-0.9-0.4-1.2S55.3,112.3,54.9,112.3z"/>
		<path id="XMLID_742_" class="st11" d="M64.3,110.8c0.3,0,0.5,0,0.7,0.1l-0.2,2c-0.2,0-0.4-0.1-0.6-0.1c-0.7,0-1.2,0.2-1.6,0.5
			c-0.4,0.3-0.6,0.8-0.6,1.4v3.9H60v-7.6h1.6l0.3,1.3H62c0.2-0.4,0.6-0.8,1-1C63.3,110.9,63.8,110.8,64.3,110.8z"/>
		<path id="XMLID_740_" class="st11" d="M73.4,118.6h-2.1v-4.5c0-1.1-0.4-1.7-1.2-1.7c-0.6,0-1,0.2-1.3,0.6s-0.4,1-0.4,1.9v3.6h-2.1
			V108h2.1v2.2c0,0.2,0,0.6,0,1.2l0,0.6h0.1c0.5-0.7,1.2-1.1,2.2-1.1c0.9,0,1.6,0.2,2,0.7c0.5,0.5,0.7,1.2,0.7,2.1V118.6z"/>
		<path id="XMLID_737_" class="st11" d="M75.5,109c0-0.7,0.4-1,1.1-1s1.1,0.3,1.1,1c0,0.3-0.1,0.6-0.3,0.8c-0.2,0.2-0.5,0.3-0.9,0.3
			C75.8,110,75.5,109.7,75.5,109z M77.6,118.6h-2.1v-7.6h2.1V118.6z"/>
		<path id="XMLID_734_" class="st11" d="M84.7,118.6l-0.4-1h-0.1c-0.4,0.4-0.7,0.7-1.1,0.9c-0.4,0.2-0.9,0.3-1.5,0.3
			c-0.7,0-1.3-0.2-1.7-0.6c-0.4-0.4-0.6-1-0.6-1.8c0-0.8,0.3-1.4,0.9-1.8c0.6-0.4,1.4-0.6,2.6-0.6l1.3,0v-0.3c0-0.8-0.4-1.2-1.2-1.2
			c-0.6,0-1.3,0.2-2.2,0.6l-0.7-1.4c0.9-0.5,1.9-0.7,2.9-0.7c1,0,1.8,0.2,2.4,0.7c0.5,0.4,0.8,1.1,0.8,2v5.1H84.7z M84.1,115l-0.8,0
			c-0.6,0-1.1,0.1-1.4,0.3c-0.3,0.2-0.4,0.5-0.4,0.9c0,0.6,0.3,0.9,1,0.9c0.5,0,0.9-0.1,1.2-0.4c0.3-0.3,0.4-0.6,0.4-1.1V115z"/>
		<path id="XMLID_732_" class="st11" d="M93.6,116.3c0,0.8-0.3,1.4-0.8,1.8c-0.5,0.4-1.4,0.6-2.4,0.6c-0.6,0-1,0-1.4-0.1
			s-0.8-0.2-1.1-0.3v-1.7c0.4,0.2,0.8,0.3,1.3,0.5s0.9,0.2,1.3,0.2c0.8,0,1.1-0.2,1.1-0.7c0-0.2-0.1-0.3-0.2-0.4s-0.3-0.2-0.5-0.3
			s-0.6-0.3-1-0.5c-0.6-0.2-1-0.5-1.3-0.7c-0.3-0.2-0.5-0.5-0.6-0.7c-0.1-0.3-0.2-0.6-0.2-1c0-0.7,0.3-1.2,0.8-1.6
			c0.5-0.4,1.3-0.6,2.2-0.6c0.9,0,1.8,0.2,2.7,0.6l-0.6,1.5c-0.4-0.2-0.7-0.3-1.1-0.4c-0.3-0.1-0.7-0.2-1-0.2
			c-0.6,0-0.9,0.2-0.9,0.5c0,0.2,0.1,0.3,0.3,0.5s0.6,0.3,1.3,0.6c0.6,0.2,1,0.5,1.3,0.7c0.3,0.2,0.5,0.5,0.6,0.7
			S93.6,115.9,93.6,116.3z"/>
		<path id="XMLID_729_" class="st11" d="M100.1,118.6l-0.4-1h-0.1c-0.4,0.4-0.7,0.7-1.1,0.9c-0.4,0.2-0.9,0.3-1.5,0.3
			c-0.7,0-1.3-0.2-1.7-0.6c-0.4-0.4-0.6-1-0.6-1.8c0-0.8,0.3-1.4,0.9-1.8c0.6-0.4,1.4-0.6,2.6-0.6l1.3,0v-0.3c0-0.8-0.4-1.2-1.2-1.2
			c-0.6,0-1.3,0.2-2.2,0.6l-0.7-1.4c0.9-0.5,1.9-0.7,2.9-0.7c1,0,1.8,0.2,2.4,0.7c0.5,0.4,0.8,1.1,0.8,2v5.1H100.1z M99.5,115
			l-0.8,0c-0.6,0-1.1,0.1-1.4,0.3c-0.3,0.2-0.4,0.5-0.4,0.9c0,0.6,0.3,0.9,1,0.9c0.5,0,0.9-0.1,1.2-0.4c0.3-0.3,0.4-0.6,0.4-1.1V115
			z"/>
		<path id="XMLID_727_" class="st11" d="M110.7,118.6h-2.1v-4.5c0-0.6-0.1-1-0.3-1.2c-0.2-0.3-0.5-0.4-0.9-0.4c-0.6,0-1,0.2-1.3,0.6
			s-0.4,1-0.4,1.9v3.6h-2.1v-7.6h1.6l0.3,1h0.1c0.2-0.4,0.6-0.6,1-0.8c0.4-0.2,0.9-0.3,1.4-0.3c0.9,0,1.6,0.2,2,0.7
			c0.5,0.5,0.7,1.2,0.7,2.1V118.6z"/>
		<path id="XMLID_725_" class="st11" d="M50.7,135.1h-1.2v-4.6h-5v4.6h-1.2v-9.8h1.2v4.2h5v-4.2h1.2V135.1z"/>
		<path id="XMLID_723_" class="st11" d="M54.3,127.7v4.8c0,0.6,0.1,1,0.4,1.3s0.7,0.4,1.2,0.4c0.8,0,1.3-0.2,1.7-0.6
			c0.3-0.4,0.5-1.1,0.5-2v-3.8h1.2v7.4h-1l-0.2-1h-0.1c-0.2,0.4-0.5,0.6-0.9,0.8c-0.4,0.2-0.9,0.3-1.4,0.3c-0.9,0-1.6-0.2-2-0.6
			s-0.7-1.1-0.7-2v-4.8H54.3z"/>
		<path id="XMLID_720_" class="st11" d="M65.2,127.6c1,0,1.7,0.3,2.3,1c0.5,0.7,0.8,1.6,0.8,2.8c0,1.2-0.3,2.2-0.8,2.8
			c-0.5,0.7-1.3,1-2.2,1c-0.5,0-0.9-0.1-1.3-0.3c-0.4-0.2-0.7-0.4-1-0.8h-0.1c-0.1,0.5-0.2,0.8-0.2,0.9h-0.9v-10.5h1.2v2.5
			c0,0.5,0,1-0.1,1.5h0.1C63.4,128,64.2,127.6,65.2,127.6z M65,128.6c-0.7,0-1.3,0.2-1.6,0.6c-0.3,0.4-0.5,1.1-0.5,2.1v0.1
			c0,1,0.2,1.7,0.5,2.2s0.9,0.6,1.6,0.6c0.7,0,1.2-0.2,1.5-0.7c0.3-0.5,0.5-1.2,0.5-2.1c0-0.9-0.2-1.6-0.5-2.1
			C66.2,128.8,65.7,128.6,65,128.6z"/>
		<path id="XMLID_718_" class="st11" d="M71.3,127.7v4.8c0,0.6,0.1,1,0.4,1.3s0.7,0.4,1.2,0.4c0.8,0,1.3-0.2,1.7-0.6
			c0.3-0.4,0.5-1.1,0.5-2v-3.8h1.2v7.4h-1l-0.2-1h-0.1c-0.2,0.4-0.5,0.6-0.9,0.8c-0.4,0.2-0.9,0.3-1.4,0.3c-0.9,0-1.6-0.2-2-0.6
			s-0.7-1.1-0.7-2v-4.8H71.3z"/>
		<path id="XMLID_716_" class="st11" d="M83.7,135.1v-4.7c0-0.6-0.1-1-0.4-1.3c-0.3-0.3-0.7-0.4-1.3-0.4c-0.8,0-1.3,0.2-1.6,0.6
			c-0.3,0.4-0.5,1.1-0.5,2v3.8h-1.2v-7.4h1l0.2,1h0.1c0.2-0.4,0.5-0.6,1-0.8c0.4-0.2,0.9-0.3,1.4-0.3c0.9,0,1.6,0.2,2,0.7
			c0.4,0.4,0.7,1.1,0.7,2v4.8H83.7z"/>
		<path id="XMLID_713_" class="st11" d="M92.1,135l0-0.9h-0.1c-0.5,0.7-1.3,1.1-2.3,1.1c-1,0-1.7-0.3-2.2-1
			c-0.5-0.7-0.8-1.6-0.8-2.8c0-1.2,0.3-2.1,0.8-2.8c0.5-0.7,1.3-1,2.2-1c1,0,1.8,0.4,2.3,1.1h0.1l0.2-1h1v7.5c0,1.1-0.3,1.9-0.8,2.4
			s-1.4,0.8-2.5,0.8c-1.1,0-2-0.2-2.7-0.5v-1.1c0.7,0.4,1.6,0.6,2.7,0.6c0.6,0,1.1-0.2,1.5-0.6c0.4-0.4,0.5-0.9,0.5-1.5V135z
			 M90,134.3c0.7,0,1.3-0.2,1.6-0.6c0.3-0.4,0.5-1,0.5-1.9v-0.3c0-1-0.2-1.7-0.5-2.2s-0.9-0.7-1.6-0.7c-0.6,0-1.1,0.2-1.4,0.7
			c-0.3,0.5-0.5,1.2-0.5,2.1c0,0.9,0.2,1.6,0.5,2.1C88.9,134,89.4,134.3,90,134.3z"/>
		<path id="XMLID_710_" class="st11" d="M100.2,135.1l-0.2-1h-0.1c-0.4,0.5-0.7,0.8-1.1,0.9c-0.4,0.2-0.8,0.2-1.4,0.2
			c-0.7,0-1.3-0.2-1.7-0.6c-0.4-0.4-0.6-0.9-0.6-1.6c0-1.5,1.2-2.3,3.5-2.4l1.3,0v-0.4c0-0.6-0.1-1-0.4-1.2
			c-0.2-0.3-0.6-0.4-1.2-0.4c-0.4,0-0.8,0.1-1.1,0.2c-0.3,0.1-0.7,0.2-1,0.4l-0.4-0.9c0.4-0.2,0.8-0.4,1.2-0.5
			c0.4-0.1,0.9-0.2,1.3-0.2c0.9,0,1.6,0.2,2,0.6c0.4,0.4,0.7,1,0.7,1.9v5H100.2z M97.7,134.3c0.7,0,1.2-0.2,1.6-0.5
			c0.4-0.4,0.6-0.9,0.6-1.6v-0.7l-1.1,0c-0.8,0-1.5,0.2-1.9,0.4c-0.4,0.2-0.6,0.6-0.6,1.1c0,0.4,0.1,0.7,0.4,0.9
			S97.3,134.3,97.7,134.3z"/>
		<path id="XMLID_708_" class="st11" d="M108.4,135.1v-4.7c0-0.6-0.1-1-0.4-1.3c-0.3-0.3-0.7-0.4-1.3-0.4c-0.8,0-1.3,0.2-1.6,0.6
			c-0.3,0.4-0.5,1.1-0.5,2v3.8h-1.2v-7.4h1l0.2,1h0.1c0.2-0.4,0.5-0.6,1-0.8c0.4-0.2,0.9-0.3,1.4-0.3c0.9,0,1.6,0.2,2,0.7
			c0.4,0.4,0.7,1.1,0.7,2v4.8H108.4z"/>
		<path id="XMLID_706_" class="st11" d="M41.8,144.2h1.3l1.6,4.2c0.3,0.9,0.5,1.6,0.6,2h0.1c0-0.2,0.1-0.5,0.3-0.9
			c0.1-0.5,0.3-0.8,0.4-1.1l1.5-4.2h1.3l-3.2,8.4c-0.3,0.8-0.7,1.4-1.1,1.8c-0.4,0.4-1,0.5-1.6,0.5c-0.3,0-0.7,0-1-0.1v-1
			c0.2,0.1,0.5,0.1,0.8,0.1c0.4,0,0.7-0.1,1-0.3c0.3-0.2,0.5-0.5,0.7-1l0.4-1L41.8,144.2z"/>
		<path id="XMLID_703_" class="st11" d="M54.6,151.6l-0.2-1h-0.1c-0.4,0.5-0.7,0.8-1.1,0.9c-0.4,0.2-0.8,0.2-1.4,0.2
			c-0.7,0-1.3-0.2-1.7-0.6s-0.6-0.9-0.6-1.6c0-1.5,1.2-2.3,3.5-2.4l1.3,0v-0.4c0-0.6-0.1-1-0.4-1.2c-0.2-0.3-0.6-0.4-1.2-0.4
			c-0.4,0-0.8,0.1-1.1,0.2c-0.3,0.1-0.7,0.2-1,0.4l-0.4-0.9c0.4-0.2,0.8-0.4,1.2-0.5c0.4-0.1,0.9-0.2,1.3-0.2c0.9,0,1.6,0.2,2,0.6
			c0.4,0.4,0.7,1,0.7,1.9v5H54.6z M52.1,150.8c0.7,0,1.2-0.2,1.6-0.5s0.6-0.9,0.6-1.6V148l-1.1,0c-0.8,0-1.5,0.2-1.9,0.4
			c-0.4,0.2-0.6,0.6-0.6,1.1c0,0.4,0.1,0.7,0.4,0.9C51.3,150.7,51.7,150.8,52.1,150.8z"/>
		<path id="XMLID_701_" class="st11" d="M62.8,151.6v-4.7c0-0.6-0.1-1-0.4-1.3c-0.3-0.3-0.7-0.4-1.3-0.4c-0.8,0-1.3,0.2-1.7,0.6
			s-0.5,1.1-0.5,2v3.8h-1.2v-7.4h1l0.2,1H59c0.2-0.4,0.5-0.6,1-0.8c0.4-0.2,0.9-0.3,1.4-0.3c0.9,0,1.6,0.2,2,0.7
			c0.4,0.4,0.7,1.1,0.7,2v4.8H62.8z"/>
		<path id="XMLID_698_" class="st11" d="M71.2,151.6l0-0.9h-0.1c-0.5,0.7-1.3,1.1-2.3,1.1c-1,0-1.7-0.3-2.2-1
			c-0.5-0.7-0.8-1.6-0.8-2.8c0-1.2,0.3-2.1,0.8-2.8c0.5-0.7,1.3-1,2.2-1c1,0,1.8,0.4,2.3,1.1h0.1l0.2-1h1v7.5c0,1.1-0.3,1.9-0.8,2.4
			s-1.4,0.8-2.5,0.8c-1.1,0-2-0.2-2.7-0.5v-1.1c0.7,0.4,1.6,0.6,2.7,0.6c0.6,0,1.1-0.2,1.5-0.6c0.4-0.4,0.5-0.9,0.5-1.5V151.6z
			 M69.1,150.8c0.7,0,1.3-0.2,1.6-0.6c0.3-0.4,0.5-1,0.5-1.9v-0.3c0-1-0.2-1.7-0.5-2.2c-0.3-0.4-0.9-0.7-1.6-0.7
			c-0.6,0-1.1,0.2-1.4,0.7c-0.3,0.5-0.5,1.2-0.5,2.1c0,0.9,0.2,1.6,0.5,2.1C67.9,150.5,68.4,150.8,69.1,150.8z"/>
		<path id="XMLID_695_" class="st11" d="M82.8,151.6l-0.2-1h-0.1c-0.4,0.5-0.7,0.8-1.1,0.9c-0.4,0.2-0.8,0.2-1.4,0.2
			c-0.7,0-1.3-0.2-1.7-0.6s-0.6-0.9-0.6-1.6c0-1.5,1.2-2.3,3.5-2.4l1.3,0v-0.4c0-0.6-0.1-1-0.4-1.2c-0.2-0.3-0.6-0.4-1.2-0.4
			c-0.4,0-0.8,0.1-1.1,0.2s-0.7,0.2-1,0.4l-0.4-0.9c0.4-0.2,0.8-0.4,1.2-0.5c0.4-0.1,0.9-0.2,1.3-0.2c0.9,0,1.6,0.2,2,0.6
			c0.4,0.4,0.7,1,0.7,1.9v5H82.8z M80.4,150.8c0.7,0,1.2-0.2,1.6-0.5c0.4-0.4,0.6-0.9,0.6-1.6V148l-1.1,0c-0.8,0-1.5,0.2-1.9,0.4
			s-0.6,0.6-0.6,1.1c0,0.4,0.1,0.7,0.4,0.9C79.6,150.7,79.9,150.8,80.4,150.8z"/>
		<path id="XMLID_693_" class="st11" d="M92,151.6l-1.3-4.2c-0.1-0.3-0.3-1-0.5-2h-0.1c-0.2,0.9-0.4,1.5-0.5,2l-1.3,4.1H87l-2-7.4
			h1.3c0.5,1.8,0.8,3.2,1.1,4.1s0.4,1.6,0.4,2h0.1l0.1-0.4c0.1-0.6,0.3-1.2,0.4-1.6l1.3-4.2h1.3l1.3,4.2c0,0.2,0.1,0.3,0.1,0.5
			c0.1,0.2,0.1,0.4,0.1,0.5c0,0.2,0.1,0.3,0.1,0.5c0,0.2,0.1,0.3,0.1,0.4h0.1c0-0.3,0.2-1.1,0.5-2.2l1-3.9h1.2l-2,7.4H92z"/>
		<path id="XMLID_690_" class="st11" d="M100,151.8c-1.1,0-2-0.3-2.6-1c-0.6-0.7-0.9-1.6-0.9-2.8c0-1.2,0.3-2.1,0.9-2.8
			c0.6-0.7,1.4-1.1,2.4-1.1c0.9,0,1.7,0.3,2.2,0.9c0.6,0.6,0.8,1.4,0.8,2.4v0.7h-5.1c0,0.8,0.2,1.5,0.6,1.9c0.4,0.4,1,0.7,1.7,0.7
			c0.4,0,0.8,0,1.1-0.1c0.4-0.1,0.8-0.2,1.2-0.4v1.1c-0.4,0.2-0.8,0.3-1.1,0.4C100.9,151.7,100.5,151.8,100,151.8z M99.7,145.1
			c-0.6,0-1,0.2-1.4,0.6s-0.5,0.9-0.6,1.6h3.8c0-0.7-0.2-1.2-0.5-1.6C100.7,145.3,100.2,145.1,99.7,145.1z"/>
		<path id="XMLID_688_" class="st11" d="M107.1,150.8c0.2,0,0.3,0,0.6,0c0.2,0,0.4-0.1,0.5-0.1v0.9c-0.1,0-0.3,0.1-0.5,0.1
			c-0.2,0-0.5,0.1-0.7,0.1c-1.4,0-2.2-0.8-2.2-2.3v-4.3h-1v-0.6l1.1-0.5l0.5-1.6h0.7v1.7h2.1v0.9h-2.1v4.3c0,0.4,0.1,0.8,0.3,1
			C106.4,150.7,106.7,150.8,107.1,150.8z"/>
	</g>
</g>
</svg>
