<?xml version="1.0" encoding="utf-8"?>
<!-- Generator: Adobe Illustrator 19.0.0, SVG Export Plug-In . SVG Version: 6.00 Build 0)  -->
<svg version="1.1" id="Layer_1" xmlns="http://www.w3.org/2000/svg" xmlns:xlink="http://www.w3.org/1999/xlink" x="0px" y="0px"
	 viewBox="0 0 169.2 167" style="enable-background:new 0 0 169.2 167;" xml:space="preserve">
<style type="text/css">
	.st0{fill:#125B7C;}
	.st1{fill:#FFFFFF;}
	.st2{fill:#CD202B;}
	.st3{fill:#F3B23E;}
	.st4{fill:#FFE6BE;}
	.st5{fill:#D29C49;}
	.st6{fill:none;stroke:#FFFFFF;stroke-miterlimit:10;}
	.st7{fill:#B72026;}
	.st8{fill:#E8636C;}
	.st9{fill:#404040;}
</style>
<rect id="XMLID_4052_" y="0" class="st0" width="151.2" height="167"/>
<polygon id="XMLID_4187_" class="st1" points="144.5,166.9 149.4,147 169.2,166.9 "/>
<rect id="XMLID_4050_" y="96.5" class="st1" width="151.2" height="70.4"/>
<g id="XMLID_5489_">
	<circle id="XMLID_5490_" class="st2" cx="9.5" cy="104.8" r="4"/>
	<path id="XMLID_5491_" class="st2" d="M5.4,104.8h8.1v10.1C13.5,114.9,5.4,110,5.4,104.8z"/>
	<circle id="XMLID_2487_" class="st2" cx="17.5" cy="104.7" r="4"/>
	<path id="XMLID_2486_" class="st2" d="M21.6,104.7h-8.1v10.1C13.5,114.7,21.6,109.8,21.6,104.7z"/>
</g>
<g id="XMLID_603_">
	<circle id="XMLID_5738_" class="st3" cx="52.5" cy="41.1" r="21.3"/>
	<path id="XMLID_5739_" class="st4" d="M39.1,41.1h31.7l-15-23.8C55.8,17.2,39.1,21.6,39.1,41.1z"/>
	<rect id="XMLID_2482_" x="39.1" y="41.1" class="st5" width="32" height="13.6"/>
	<circle id="XMLID_5740_" class="st2" cx="51.5" cy="30.2" r="3"/>
	<path id="XMLID_2480_" class="st6" d="M17.9,34.4c0,30.9,25,55.9,55.9,55.9c30.9,0,55.9-25,55.9-55.9"/>
	<rect id="XMLID_2479_" x="39.1" y="45.5" class="st4" width="31.7" height="5.4"/>
	<circle id="XMLID_2478_" class="st7" cx="100.3" cy="38.9" r="18.2"/>
	<circle id="XMLID_2477_" class="st8" cx="100.3" cy="38.9" r="11.4"/>
	<circle id="XMLID_2476_" class="st4" cx="100.3" cy="38.9" r="6.2"/>
	<path id="XMLID_2475_" class="st1" d="M99.3,39.9L99.3,39.9c-0.7-0.7-0.7-1.9,0-2.6l27.5-27.5c0.7-0.7,1.9-0.7,2.6,0l0,0
		c0.7,0.7,0.7,1.9,0,2.6l-27.5,27.5C101.2,40.7,100,40.7,99.3,39.9z"/>
</g>
<g id="XMLID_14_">
	<g id="XMLID_1137_">
		<path id="XMLID_1358_" class="st9" d="M32.7,105.6c0,1.1-0.3,1.9-1,2.5c-0.7,0.6-1.6,0.9-2.9,0.9h-0.9v3.6h-2.1v-10H29
			c1.2,0,2.1,0.3,2.8,0.8C32.4,103.7,32.7,104.5,32.7,105.6z M27.9,107.1h0.7c0.7,0,1.1-0.1,1.5-0.4c0.3-0.3,0.5-0.6,0.5-1.1
			c0-0.5-0.1-0.9-0.4-1.1c-0.3-0.2-0.7-0.4-1.3-0.4h-1V107.1z"/>
		<path id="XMLID_1355_" class="st9" d="M37.9,112.6c-1.2,0-2.2-0.3-2.9-1c-0.7-0.7-1-1.6-1-2.9c0-1.3,0.3-2.3,1-3
			c0.6-0.7,1.5-1,2.7-1c1.1,0,1.9,0.3,2.5,0.9s0.9,1.5,0.9,2.5v1h-4.9c0,0.6,0.2,1.1,0.5,1.4c0.3,0.3,0.8,0.5,1.4,0.5
			c0.5,0,0.9,0,1.3-0.1s0.8-0.2,1.3-0.5v1.6c-0.4,0.2-0.8,0.3-1.2,0.4C39,112.5,38.5,112.6,37.9,112.6z M37.6,106.1
			c-0.4,0-0.8,0.1-1,0.4c-0.3,0.3-0.4,0.7-0.4,1.2h2.9c0-0.5-0.1-0.9-0.4-1.2S38.1,106.1,37.6,106.1z"/>
		<path id="XMLID_1353_" class="st9" d="M47,104.7c0.3,0,0.5,0,0.7,0.1l-0.2,2c-0.2,0-0.4-0.1-0.6-0.1c-0.7,0-1.2,0.2-1.6,0.5
			s-0.6,0.8-0.6,1.4v3.9h-2.1v-7.6h1.6l0.3,1.3h0.1c0.2-0.4,0.6-0.8,1-1C46.1,104.8,46.5,104.7,47,104.7z"/>
		<path id="XMLID_1351_" class="st9" d="M55.9,112.4h-2.1V108c0-0.6-0.1-1-0.3-1.2c-0.2-0.3-0.5-0.4-0.9-0.4c-0.5,0-0.9,0.2-1.2,0.6
			c-0.2,0.4-0.4,1-0.4,1.9v3.6h-2.1v-7.6h1.6l0.3,1h0.1c0.2-0.4,0.5-0.6,0.9-0.8c0.4-0.2,0.8-0.3,1.3-0.3c1.1,0,1.9,0.4,2.3,1.1h0.2
			c0.2-0.4,0.5-0.6,0.9-0.8c0.4-0.2,0.8-0.3,1.4-0.3c0.9,0,1.5,0.2,2,0.7s0.7,1.2,0.7,2.1v5h-2.1V108c0-0.6-0.1-1-0.3-1.2
			c-0.2-0.3-0.5-0.4-0.9-0.4c-0.5,0-0.9,0.2-1.1,0.5c-0.3,0.4-0.4,0.9-0.4,1.7V112.4z"/>
		<path id="XMLID_1348_" class="st9" d="M66.3,112.6c-1.2,0-2.2-0.3-2.9-1c-0.7-0.7-1-1.6-1-2.9c0-1.3,0.3-2.3,1-3
			c0.6-0.7,1.5-1,2.7-1c1.1,0,1.9,0.3,2.5,0.9s0.9,1.5,0.9,2.5v1h-4.9c0,0.6,0.2,1.1,0.5,1.4c0.3,0.3,0.8,0.5,1.4,0.5
			c0.5,0,0.9,0,1.3-0.1s0.8-0.2,1.3-0.5v1.6c-0.4,0.2-0.8,0.3-1.2,0.4C67.4,112.5,66.9,112.6,66.3,112.6z M66,106.1
			c-0.4,0-0.8,0.1-1,0.4c-0.3,0.3-0.4,0.7-0.4,1.2h2.9c0-0.5-0.1-0.9-0.4-1.2S66.4,106.1,66,106.1z"/>
		<path id="XMLID_1346_" class="st9" d="M78.1,112.4h-2.1V108c0-0.6-0.1-1-0.3-1.2c-0.2-0.3-0.5-0.4-0.9-0.4c-0.6,0-1,0.2-1.3,0.6
			s-0.4,1-0.4,1.9v3.6h-2.1v-7.6h1.6l0.3,1h0.1c0.2-0.4,0.6-0.6,1-0.8c0.4-0.2,0.9-0.3,1.4-0.3c0.9,0,1.6,0.2,2,0.7
			c0.5,0.5,0.7,1.2,0.7,2.1V112.4z"/>
		<path id="XMLID_1343_" class="st9" d="M88.8,112.4l-0.4-1h-0.1c-0.4,0.4-0.7,0.7-1.1,0.9s-0.9,0.3-1.5,0.3c-0.7,0-1.3-0.2-1.7-0.6
			c-0.4-0.4-0.6-1-0.6-1.8c0-0.8,0.3-1.4,0.9-1.8c0.6-0.4,1.4-0.6,2.6-0.6l1.3,0v-0.3c0-0.8-0.4-1.2-1.2-1.2c-0.6,0-1.3,0.2-2.2,0.6
			l-0.7-1.4c0.9-0.5,1.9-0.7,2.9-0.7c1,0,1.8,0.2,2.4,0.7c0.5,0.4,0.8,1.1,0.8,2v5.1H88.8z M88.2,108.9l-0.8,0
			c-0.6,0-1.1,0.1-1.4,0.3c-0.3,0.2-0.4,0.5-0.4,0.9c0,0.6,0.3,0.9,1,0.9c0.5,0,0.9-0.1,1.2-0.4c0.3-0.3,0.4-0.6,0.4-1.1V108.9z"/>
		<path id="XMLID_1341_" class="st9" d="M95.6,110.9c0.4,0,0.8-0.1,1.3-0.2v1.6c-0.5,0.2-1.2,0.3-1.9,0.3c-0.8,0-1.4-0.2-1.8-0.6
			c-0.4-0.4-0.6-1.1-0.6-1.9v-3.7h-1v-0.9l1.1-0.7l0.6-1.6h1.3v1.6h2.1v1.6h-2.1v3.7c0,0.3,0.1,0.5,0.2,0.7
			C95.1,110.8,95.3,110.9,95.6,110.9z"/>
		<path id="XMLID_1338_" class="st9" d="M103.3,112.4l-0.4-1h-0.1c-0.4,0.4-0.7,0.7-1.1,0.9s-0.9,0.3-1.5,0.3
			c-0.7,0-1.3-0.2-1.7-0.6c-0.4-0.4-0.6-1-0.6-1.8c0-0.8,0.3-1.4,0.9-1.8c0.6-0.4,1.4-0.6,2.6-0.6l1.3,0v-0.3c0-0.8-0.4-1.2-1.2-1.2
			c-0.6,0-1.3,0.2-2.2,0.6l-0.7-1.4c0.9-0.5,1.9-0.7,2.9-0.7c1,0,1.8,0.2,2.4,0.7c0.5,0.4,0.8,1.1,0.8,2v5.1H103.3z M102.7,108.9
			l-0.8,0c-0.6,0-1.1,0.1-1.4,0.3c-0.3,0.2-0.4,0.5-0.4,0.9c0,0.6,0.3,0.9,1,0.9c0.5,0,0.9-0.1,1.2-0.4c0.3-0.3,0.4-0.6,0.4-1.1
			V108.9z"/>
		<path id="XMLID_1336_" class="st9" d="M112.3,112.4l-0.3-1h-0.1c-0.2,0.4-0.5,0.6-1,0.8c-0.4,0.2-0.9,0.3-1.4,0.3
			c-0.9,0-1.6-0.2-2-0.7c-0.5-0.5-0.7-1.2-0.7-2.1v-5h2.1v4.5c0,0.6,0.1,1,0.3,1.2c0.2,0.3,0.5,0.4,0.9,0.4c0.6,0,1-0.2,1.3-0.6
			s0.4-1,0.4-1.9v-3.6h2.1v7.6H112.3z"/>
		<path id="XMLID_1334_" class="st9" d="M128,112.4h-2.4l-2.6-4.2l-0.9,0.6v3.6h-2.1v-10h2.1v4.6l0.8-1.2l2.7-3.4h2.4l-3.5,4.4
			L128,112.4z"/>
		<path id="XMLID_1332_" class="st9" d="M134.5,112.4l-0.3-1h-0.1c-0.2,0.4-0.5,0.6-1,0.8c-0.4,0.2-0.9,0.3-1.4,0.3
			c-0.9,0-1.6-0.2-2-0.7c-0.5-0.5-0.7-1.2-0.7-2.1v-5h2.1v4.5c0,0.6,0.1,1,0.3,1.2c0.2,0.3,0.5,0.4,0.9,0.4c0.6,0,1-0.2,1.3-0.6
			s0.4-1,0.4-1.9v-3.6h2.1v7.6H134.5z"/>
		<path id="XMLID_1329_" class="st9" d="M141.7,112.6c-1.2,0-2.2-0.3-2.9-1c-0.7-0.7-1-1.6-1-2.9c0-1.3,0.3-2.3,1-3
			c0.6-0.7,1.5-1,2.7-1c1.1,0,1.9,0.3,2.5,0.9s0.9,1.5,0.9,2.5v1h-4.9c0,0.6,0.2,1.1,0.5,1.4c0.3,0.3,0.8,0.5,1.4,0.5
			c0.5,0,0.9,0,1.3-0.1s0.8-0.2,1.3-0.5v1.6c-0.4,0.2-0.8,0.3-1.2,0.4C142.8,112.5,142.3,112.6,141.7,112.6z M141.4,106.1
			c-0.4,0-0.8,0.1-1,0.4c-0.3,0.3-0.4,0.7-0.4,1.2h2.9c0-0.5-0.1-0.9-0.4-1.2S141.9,106.1,141.4,106.1z"/>
		<path id="XMLID_1327_" class="st9" d="M33.4,129h-1.2v-4.6h-5v4.6h-1.2v-9.8h1.2v4.2h5v-4.2h1.2V129z"/>
		<path id="XMLID_1324_" class="st9" d="M40.5,129l-0.2-1h-0.1c-0.4,0.5-0.7,0.8-1.1,0.9c-0.4,0.2-0.8,0.2-1.4,0.2
			c-0.7,0-1.3-0.2-1.7-0.6c-0.4-0.4-0.6-0.9-0.6-1.6c0-1.5,1.2-2.3,3.5-2.4l1.3,0v-0.4c0-0.6-0.1-1-0.4-1.2
			c-0.2-0.3-0.6-0.4-1.2-0.4c-0.4,0-0.8,0.1-1.1,0.2c-0.3,0.1-0.7,0.2-1,0.4l-0.4-0.9c0.4-0.2,0.8-0.4,1.2-0.5
			c0.4-0.1,0.9-0.2,1.3-0.2c0.9,0,1.6,0.2,2,0.6c0.4,0.4,0.7,1,0.7,1.9v5H40.5z M38,128.1c0.7,0,1.2-0.2,1.6-0.5
			c0.4-0.4,0.6-0.9,0.6-1.6v-0.7l-1.1,0c-0.8,0-1.5,0.2-1.9,0.4c-0.4,0.2-0.6,0.6-0.6,1.1c0,0.4,0.1,0.7,0.4,0.9
			C37.2,128,37.6,128.1,38,128.1z"/>
		<path id="XMLID_1322_" class="st9" d="M47.1,121.4c0.3,0,0.6,0,0.9,0.1l-0.1,1.1c-0.3-0.1-0.5-0.1-0.8-0.1c-0.4,0-0.8,0.1-1.1,0.3
			s-0.6,0.5-0.8,0.9c-0.2,0.4-0.3,0.8-0.3,1.3v3.9h-1.2v-7.4h1l0.1,1.4h0.1c0.3-0.5,0.6-0.9,1-1.1S46.6,121.4,47.1,121.4z"/>
		<path id="XMLID_1319_" class="st9" d="M53.8,129l-0.2-1h-0.1c-0.4,0.5-0.7,0.8-1.1,0.9c-0.4,0.2-0.8,0.2-1.4,0.2
			c-0.7,0-1.3-0.2-1.7-0.6c-0.4-0.4-0.6-0.9-0.6-1.6c0-1.5,1.2-2.3,3.5-2.4l1.3,0v-0.4c0-0.6-0.1-1-0.4-1.2
			c-0.2-0.3-0.6-0.4-1.2-0.4c-0.4,0-0.8,0.1-1.1,0.2c-0.3,0.1-0.7,0.2-1,0.4l-0.4-0.9c0.4-0.2,0.8-0.4,1.2-0.5
			c0.4-0.1,0.9-0.2,1.3-0.2c0.9,0,1.6,0.2,2,0.6c0.4,0.4,0.7,1,0.7,1.9v5H53.8z M51.3,128.1c0.7,0,1.2-0.2,1.6-0.5s0.6-0.9,0.6-1.6
			v-0.7l-1.1,0c-0.8,0-1.5,0.2-1.9,0.4c-0.4,0.2-0.6,0.6-0.6,1.1c0,0.4,0.1,0.7,0.4,0.9C50.5,128,50.8,128.1,51.3,128.1z"/>
		<path id="XMLID_1316_" class="st9" d="M60.4,129.1c-1,0-1.8-0.4-2.3-1.1h-0.1l0,0.3c0,0.3,0.1,0.7,0.1,0.9v3h-1.2v-10.7h1l0.2,1
			h0.1c0.3-0.4,0.6-0.7,1-0.9c0.4-0.2,0.8-0.3,1.3-0.3c1,0,1.7,0.3,2.2,1c0.5,0.7,0.8,1.6,0.8,2.8c0,1.2-0.3,2.1-0.8,2.8
			C62.1,128.7,61.4,129.1,60.4,129.1z M60.2,122.5c-0.7,0-1.3,0.2-1.6,0.6c-0.3,0.4-0.5,1.1-0.5,1.9v0.2c0,1,0.2,1.7,0.5,2.2
			c0.3,0.4,0.9,0.7,1.6,0.7c0.6,0,1.1-0.3,1.4-0.8s0.5-1.2,0.5-2.1c0-0.9-0.2-1.6-0.5-2.1S60.9,122.5,60.2,122.5z"/>
		<path id="XMLID_1313_" class="st9" d="M70,129l-0.2-1h-0.1c-0.4,0.5-0.7,0.8-1.1,0.9c-0.4,0.2-0.8,0.2-1.4,0.2
			c-0.7,0-1.3-0.2-1.7-0.6c-0.4-0.4-0.6-0.9-0.6-1.6c0-1.5,1.2-2.3,3.5-2.4l1.3,0v-0.4c0-0.6-0.1-1-0.4-1.2
			c-0.2-0.3-0.6-0.4-1.2-0.4c-0.4,0-0.8,0.1-1.1,0.2c-0.3,0.1-0.7,0.2-1,0.4l-0.4-0.9c0.4-0.2,0.8-0.4,1.2-0.5
			c0.4-0.1,0.9-0.2,1.3-0.2c0.9,0,1.6,0.2,2,0.6c0.4,0.4,0.7,1,0.7,1.9v5H70z M67.5,128.1c0.7,0,1.2-0.2,1.6-0.5
			c0.4-0.4,0.6-0.9,0.6-1.6v-0.7l-1.1,0c-0.8,0-1.5,0.2-1.9,0.4c-0.4,0.2-0.6,0.6-0.6,1.1c0,0.4,0.1,0.7,0.4,0.9
			C66.7,128,67,128.1,67.5,128.1z"/>
		<path id="XMLID_1311_" class="st9" d="M78.1,129v-4.7c0-0.6-0.1-1-0.4-1.3c-0.3-0.3-0.7-0.4-1.3-0.4c-0.8,0-1.3,0.2-1.6,0.6
			c-0.3,0.4-0.5,1.1-0.5,2v3.8h-1.2v-7.4h1l0.2,1h0.1c0.2-0.4,0.5-0.6,1-0.8s0.9-0.3,1.4-0.3c0.9,0,1.6,0.2,2,0.7
			c0.4,0.4,0.7,1.1,0.7,2v4.8H78.1z"/>
		<path id="XMLID_1309_" class="st9" d="M26.9,141.7l0.4-0.5l0.5-0.6l2.4-2.5h1.4l-3,3.2l3.2,4.2h-1.5l-2.6-3.4l-0.8,0.7v2.7h-1.2
			V135h1.2v5.5V141.7L26.9,141.7z"/>
		<path id="XMLID_1306_" class="st9" d="M36.1,145.6c-1.1,0-2-0.3-2.6-1s-0.9-1.6-0.9-2.8c0-1.2,0.3-2.1,0.9-2.8s1.4-1.1,2.4-1.1
			c0.9,0,1.7,0.3,2.2,0.9c0.6,0.6,0.8,1.4,0.8,2.4v0.7h-5.1c0,0.8,0.2,1.5,0.6,1.9c0.4,0.4,1,0.7,1.7,0.7c0.4,0,0.8,0,1.1-0.1
			s0.8-0.2,1.2-0.4v1.1c-0.4,0.2-0.8,0.3-1.1,0.4C37,145.6,36.6,145.6,36.1,145.6z M35.8,138.9c-0.6,0-1,0.2-1.4,0.6
			c-0.3,0.4-0.5,0.9-0.6,1.6h3.8c0-0.7-0.2-1.2-0.5-1.6S36.4,138.9,35.8,138.9z"/>
		<path id="XMLID_1303_" class="st9" d="M44.2,138c1,0,1.7,0.3,2.3,1c0.5,0.7,0.8,1.6,0.8,2.8c0,1.2-0.3,2.2-0.8,2.8s-1.3,1-2.2,1
			c-0.5,0-0.9-0.1-1.3-0.3c-0.4-0.2-0.7-0.4-1-0.8h-0.1c-0.1,0.5-0.2,0.8-0.2,0.9h-0.9V135h1.2v2.5c0,0.5,0,1-0.1,1.5h0.1
			C42.4,138.3,43.2,138,44.2,138z M44,139c-0.7,0-1.3,0.2-1.6,0.6c-0.3,0.4-0.5,1.1-0.5,2.1v0.1c0,1,0.2,1.7,0.5,2.2
			c0.3,0.4,0.9,0.6,1.6,0.6c0.7,0,1.2-0.2,1.5-0.7c0.3-0.5,0.5-1.2,0.5-2.1c0-0.9-0.2-1.6-0.5-2.1S44.7,139,44,139z"/>
		<path id="XMLID_1300_" class="st9" d="M52.3,145.6c-1.1,0-2-0.3-2.6-1c-0.6-0.7-0.9-1.6-0.9-2.8c0-1.2,0.3-2.1,0.9-2.8
			S51,138,52,138c0.9,0,1.7,0.3,2.2,0.9c0.6,0.6,0.8,1.4,0.8,2.4v0.7H50c0,0.8,0.2,1.5,0.6,1.9s1,0.7,1.7,0.7c0.4,0,0.8,0,1.1-0.1
			c0.4-0.1,0.8-0.2,1.2-0.4v1.1c-0.4,0.2-0.8,0.3-1.1,0.4C53.2,145.6,52.8,145.6,52.3,145.6z M52,138.9c-0.6,0-1,0.2-1.4,0.6
			c-0.3,0.4-0.5,0.9-0.6,1.6h3.8c0-0.7-0.2-1.2-0.5-1.6C53,139.1,52.6,138.9,52,138.9z"/>
		<path id="XMLID_1298_" class="st9" d="M60.4,138c0.3,0,0.6,0,0.9,0.1l-0.1,1.1c-0.3-0.1-0.5-0.1-0.8-0.1c-0.4,0-0.8,0.1-1.1,0.3
			c-0.3,0.2-0.6,0.5-0.8,0.9s-0.3,0.8-0.3,1.3v3.9h-1.2v-7.4h1l0.1,1.4h0.1c0.3-0.5,0.6-0.9,1-1.1C59.5,138.1,59.9,138,60.4,138z"/>
		<path id="XMLID_1296_" class="st9" d="M63.8,138.1v4.8c0,0.6,0.1,1,0.4,1.3c0.3,0.3,0.7,0.4,1.2,0.4c0.8,0,1.3-0.2,1.7-0.6
			c0.3-0.4,0.5-1.1,0.5-2v-3.8h1.2v7.4h-1l-0.2-1h-0.1c-0.2,0.4-0.5,0.6-0.9,0.8s-0.9,0.3-1.4,0.3c-0.9,0-1.6-0.2-2-0.6
			s-0.7-1.1-0.7-2v-4.8H63.8z"/>
		<path id="XMLID_1294_" class="st9" d="M76.2,145.5v-4.7c0-0.6-0.1-1-0.4-1.3c-0.3-0.3-0.7-0.4-1.3-0.4c-0.8,0-1.3,0.2-1.6,0.6
			c-0.3,0.4-0.5,1.1-0.5,2v3.8h-1.2v-7.4h1l0.2,1h0.1c0.2-0.4,0.5-0.6,1-0.8c0.4-0.2,0.9-0.3,1.4-0.3c0.9,0,1.6,0.2,2,0.7
			c0.4,0.4,0.7,1.1,0.7,2v4.8H76.2z"/>
		<path id="XMLID_1292_" class="st9" d="M82.1,144.6c0.2,0,0.3,0,0.6,0c0.2,0,0.4-0.1,0.5-0.1v0.9c-0.1,0-0.3,0.1-0.5,0.1
			c-0.2,0-0.5,0.1-0.7,0.1c-1.4,0-2.2-0.8-2.2-2.3V139h-1v-0.6l1.1-0.5l0.5-1.6H81v1.7h2.1v0.9H81v4.3c0,0.4,0.1,0.8,0.3,1
			C81.5,144.5,81.7,144.6,82.1,144.6z"/>
		<path id="XMLID_1175_" class="st9" d="M85.8,138.1v4.8c0,0.6,0.1,1,0.4,1.3s0.7,0.4,1.2,0.4c0.8,0,1.3-0.2,1.7-0.6
			c0.3-0.4,0.5-1.1,0.5-2v-3.8h1.2v7.4h-1l-0.2-1h-0.1c-0.2,0.4-0.5,0.6-0.9,0.8s-0.9,0.3-1.4,0.3c-0.9,0-1.6-0.2-2-0.6
			s-0.7-1.1-0.7-2v-4.8H85.8z"/>
		<path id="XMLID_1173_" class="st9" d="M98.1,145.5v-4.7c0-0.6-0.1-1-0.4-1.3c-0.3-0.3-0.7-0.4-1.3-0.4c-0.8,0-1.3,0.2-1.6,0.6
			s-0.5,1.1-0.5,2v3.8h-1.2v-7.4h1l0.2,1h0.1c0.2-0.4,0.5-0.6,1-0.8c0.4-0.2,0.9-0.3,1.4-0.3c0.9,0,1.6,0.2,2,0.7
			c0.4,0.4,0.7,1.1,0.7,2v4.8H98.1z"/>
		<path id="XMLID_1170_" class="st9" d="M106.6,145.4l0-0.9h-0.1c-0.5,0.7-1.3,1.1-2.3,1.1c-1,0-1.7-0.3-2.2-1
			c-0.5-0.7-0.8-1.6-0.8-2.8c0-1.2,0.3-2.1,0.8-2.8c0.5-0.7,1.3-1,2.2-1c1,0,1.8,0.4,2.3,1.1h0.1l0.2-1h1v7.5c0,1.1-0.3,1.9-0.8,2.4
			s-1.4,0.8-2.5,0.8c-1.1,0-2-0.2-2.7-0.5v-1.1c0.7,0.4,1.6,0.6,2.7,0.6c0.6,0,1.1-0.2,1.5-0.6c0.4-0.4,0.5-0.9,0.5-1.5V145.4z
			 M104.4,144.6c0.7,0,1.3-0.2,1.6-0.6c0.3-0.4,0.5-1,0.5-1.9v-0.3c0-1-0.2-1.7-0.5-2.2c-0.3-0.4-0.9-0.7-1.6-0.7
			c-0.6,0-1.1,0.2-1.4,0.7c-0.3,0.5-0.5,1.2-0.5,2.1c0,0.9,0.2,1.6,0.5,2.1C103.3,144.4,103.8,144.6,104.4,144.6z"/>
		<path id="XMLID_1167_" class="st9" d="M114.7,145.5l-0.2-1h-0.1c-0.4,0.5-0.7,0.8-1.1,0.9c-0.4,0.2-0.8,0.2-1.4,0.2
			c-0.7,0-1.3-0.2-1.7-0.6s-0.6-0.9-0.6-1.6c0-1.5,1.2-2.3,3.5-2.4l1.3,0v-0.4c0-0.6-0.1-1-0.4-1.2c-0.2-0.3-0.6-0.4-1.2-0.4
			c-0.4,0-0.8,0.1-1.1,0.2s-0.7,0.2-1,0.4l-0.4-0.9c0.4-0.2,0.8-0.4,1.2-0.5c0.4-0.1,0.9-0.2,1.3-0.2c0.9,0,1.6,0.2,2,0.6
			c0.4,0.4,0.7,1,0.7,1.9v5H114.7z M112.2,144.6c0.7,0,1.2-0.2,1.6-0.5c0.4-0.4,0.6-0.9,0.6-1.6v-0.7l-1.1,0c-0.8,0-1.5,0.2-1.9,0.4
			s-0.6,0.6-0.6,1.1c0,0.4,0.1,0.7,0.4,0.9C111.4,144.5,111.7,144.6,112.2,144.6z"/>
		<path id="XMLID_1165_" class="st9" d="M122.8,145.5v-4.7c0-0.6-0.1-1-0.4-1.3c-0.3-0.3-0.7-0.4-1.3-0.4c-0.8,0-1.3,0.2-1.6,0.6
			s-0.5,1.1-0.5,2v3.8h-1.2v-7.4h1l0.2,1h0.1c0.2-0.4,0.5-0.6,1-0.8c0.4-0.2,0.9-0.3,1.4-0.3c0.9,0,1.6,0.2,2,0.7
			c0.4,0.4,0.7,1.1,0.7,2v4.8H122.8z"/>
		<path id="XMLID_1162_" class="st9" d="M28.3,162.1c-1,0-1.7-0.3-2.2-1c-0.5-0.7-0.8-1.6-0.8-2.8c0-1.2,0.3-2.1,0.8-2.8
			c0.5-0.7,1.3-1,2.2-1c1,0,1.8,0.4,2.3,1.1h0.1c0-0.1,0-0.3-0.1-0.5c0-0.3,0-0.5,0-0.5v-2.9h1.2V162h-1l-0.2-1h-0.1
			C30.1,161.7,29.4,162.1,28.3,162.1z M28.5,161.1c0.7,0,1.3-0.2,1.6-0.6c0.3-0.4,0.5-1.1,0.5-2v-0.2c0-1-0.2-1.8-0.5-2.2
			c-0.3-0.4-0.9-0.7-1.6-0.7c-0.6,0-1.1,0.2-1.4,0.7c-0.3,0.5-0.5,1.2-0.5,2.1c0,0.9,0.2,1.6,0.5,2.1
			C27.4,160.9,27.9,161.1,28.5,161.1z"/>
		<path id="XMLID_1159_" class="st9" d="M38.8,162l-0.2-1h-0.1c-0.4,0.5-0.7,0.8-1.1,0.9c-0.4,0.2-0.8,0.2-1.4,0.2
			c-0.7,0-1.3-0.2-1.7-0.6s-0.6-0.9-0.6-1.6c0-1.5,1.2-2.3,3.5-2.4l1.3,0v-0.4c0-0.6-0.1-1-0.4-1.2c-0.2-0.3-0.6-0.4-1.2-0.4
			c-0.4,0-0.8,0.1-1.1,0.2c-0.3,0.1-0.7,0.2-1,0.4l-0.4-0.9c0.4-0.2,0.8-0.4,1.2-0.5c0.4-0.1,0.9-0.2,1.3-0.2c0.9,0,1.6,0.2,2,0.6
			c0.4,0.4,0.7,1,0.7,1.9v5H38.8z M36.3,161.1c0.7,0,1.2-0.2,1.6-0.5s0.6-0.9,0.6-1.6v-0.7l-1.1,0c-0.8,0-1.5,0.2-1.9,0.4
			c-0.4,0.2-0.6,0.6-0.6,1.1c0,0.4,0.1,0.7,0.4,0.9C35.5,161,35.8,161.1,36.3,161.1z"/>
		<path id="XMLID_1157_" class="st9" d="M46.9,162v-4.7c0-0.6-0.1-1-0.4-1.3c-0.3-0.3-0.7-0.4-1.3-0.4c-0.8,0-1.3,0.2-1.7,0.6
			s-0.5,1.1-0.5,2v3.8h-1.2v-7.4h1l0.2,1h0.1c0.2-0.4,0.5-0.6,1-0.8c0.4-0.2,0.9-0.3,1.4-0.3c0.9,0,1.6,0.2,2,0.7
			c0.4,0.4,0.7,1.1,0.7,2v4.8H46.9z"/>
		<path id="XMLID_1155_" class="st9" d="M58.8,159.9c0,0.7-0.3,1.2-0.8,1.6c-0.5,0.4-1.2,0.6-2.2,0.6c-1,0-1.7-0.2-2.3-0.5v-1.1
			c0.8,0.4,1.6,0.6,2.3,0.6c0.6,0,1.1-0.1,1.3-0.3c0.3-0.2,0.4-0.5,0.4-0.8c0-0.3-0.1-0.5-0.4-0.7c-0.3-0.2-0.7-0.4-1.4-0.7
			c-0.7-0.3-1.2-0.5-1.5-0.7s-0.5-0.4-0.6-0.6c-0.1-0.2-0.2-0.5-0.2-0.9c0-0.6,0.2-1.1,0.7-1.4c0.5-0.3,1.2-0.5,2-0.5
			c0.8,0,1.6,0.2,2.4,0.5l-0.4,1c-0.7-0.3-1.4-0.5-2-0.5c-0.5,0-0.9,0.1-1.1,0.2s-0.4,0.4-0.4,0.7c0,0.3,0.1,0.5,0.3,0.7
			s0.7,0.4,1.6,0.7c0.6,0.2,1.1,0.4,1.4,0.6c0.3,0.2,0.5,0.4,0.6,0.7C58.7,159.3,58.8,159.6,58.8,159.9z"/>
		<path id="XMLID_1153_" class="st9" d="M61.7,154.6v4.8c0,0.6,0.1,1,0.4,1.3s0.7,0.4,1.2,0.4c0.8,0,1.3-0.2,1.7-0.6
			c0.3-0.4,0.5-1.1,0.5-2v-3.8h1.2v7.4h-1l-0.2-1h-0.1c-0.2,0.4-0.5,0.6-0.9,0.8s-0.9,0.3-1.4,0.3c-0.9,0-1.6-0.2-2-0.6
			s-0.7-1.1-0.7-2v-4.8H61.7z"/>
		<path id="XMLID_1151_" class="st9" d="M70.3,158.2l0.4-0.5l0.5-0.6l2.4-2.5H75l-3,3.2l3.2,4.2h-1.5l-2.6-3.4l-0.8,0.7v2.7h-1.2
			v-10.5h1.2v5.5V158.2L70.3,158.2z"/>
		<path id="XMLID_1148_" class="st9" d="M81,162l-0.2-1h-0.1c-0.4,0.5-0.7,0.8-1.1,0.9c-0.4,0.2-0.8,0.2-1.4,0.2
			c-0.7,0-1.3-0.2-1.7-0.6s-0.6-0.9-0.6-1.6c0-1.5,1.2-2.3,3.5-2.4l1.3,0v-0.4c0-0.6-0.1-1-0.4-1.2c-0.2-0.3-0.6-0.4-1.2-0.4
			c-0.4,0-0.8,0.1-1.1,0.2c-0.3,0.1-0.7,0.2-1,0.4l-0.4-0.9c0.4-0.2,0.8-0.4,1.2-0.5c0.4-0.1,0.9-0.2,1.3-0.2c0.9,0,1.6,0.2,2,0.6
			c0.4,0.4,0.7,1,0.7,1.9v5H81z M78.5,161.1c0.7,0,1.2-0.2,1.6-0.5s0.6-0.9,0.6-1.6v-0.7l-1.1,0c-0.8,0-1.5,0.2-1.9,0.4
			c-0.4,0.2-0.6,0.6-0.6,1.1c0,0.4,0.1,0.7,0.4,0.9C77.8,161,78.1,161.1,78.5,161.1z"/>
		<path id="XMLID_1146_" class="st9" d="M87.1,162.1c-1.1,0-1.9-0.3-2.5-1c-0.6-0.7-0.9-1.6-0.9-2.8c0-1.2,0.3-2.2,0.9-2.9
			c0.6-0.7,1.5-1,2.6-1c0.4,0,0.7,0,1.1,0.1s0.6,0.2,0.9,0.3l-0.4,1c-0.6-0.2-1.2-0.3-1.6-0.3c-0.7,0-1.3,0.2-1.6,0.7
			c-0.4,0.5-0.5,1.2-0.5,2.1c0,0.9,0.2,1.6,0.5,2c0.4,0.5,0.9,0.7,1.6,0.7c0.6,0,1.3-0.1,1.9-0.4v1.1
			C88.5,162,87.9,162.1,87.1,162.1z"/>
		<path id="XMLID_1143_" class="st9" d="M90.7,152.6c0-0.3,0.1-0.5,0.2-0.6s0.3-0.2,0.5-0.2c0.2,0,0.4,0.1,0.5,0.2
			c0.1,0.1,0.2,0.3,0.2,0.6c0,0.3-0.1,0.5-0.2,0.6c-0.1,0.1-0.3,0.2-0.5,0.2c-0.2,0-0.4-0.1-0.5-0.2
			C90.8,153.1,90.7,152.9,90.7,152.6z M92,162h-1.2v-7.4H92V162z"/>
		<path id="XMLID_1141_" class="st9" d="M96.8,161.1c0.2,0,0.3,0,0.6,0s0.4-0.1,0.5-0.1v0.9c-0.1,0-0.3,0.1-0.5,0.1
			c-0.2,0-0.5,0.1-0.7,0.1c-1.4,0-2.2-0.8-2.2-2.3v-4.3h-1V155l1.1-0.5l0.5-1.6h0.7v1.7h2.1v0.9h-2.1v4.3c0,0.4,0.1,0.8,0.3,1
			S96.4,161.1,96.8,161.1z"/>
		<path id="XMLID_1138_" class="st9" d="M103.9,162l-0.2-1h-0.1c-0.4,0.5-0.7,0.8-1.1,0.9c-0.4,0.2-0.8,0.2-1.4,0.2
			c-0.7,0-1.3-0.2-1.7-0.6c-0.4-0.4-0.6-0.9-0.6-1.6c0-1.5,1.2-2.3,3.5-2.4l1.3,0v-0.4c0-0.6-0.1-1-0.4-1.2
			c-0.2-0.3-0.6-0.4-1.2-0.4c-0.4,0-0.8,0.1-1.1,0.2c-0.3,0.1-0.7,0.2-1,0.4l-0.4-0.9c0.4-0.2,0.8-0.4,1.2-0.5
			c0.4-0.1,0.9-0.2,1.3-0.2c0.9,0,1.6,0.2,2,0.6c0.4,0.4,0.7,1,0.7,1.9v5H103.9z M101.4,161.1c0.7,0,1.2-0.2,1.6-0.5
			s0.6-0.9,0.6-1.6v-0.7l-1.1,0c-0.8,0-1.5,0.2-1.9,0.4s-0.6,0.6-0.6,1.1c0,0.4,0.1,0.7,0.4,0.9C100.6,161,100.9,161.1,101.4,161.1z
			"/>
	</g>
</g>
</svg>
