<?xml version="1.0" encoding="utf-8"?>
<!-- Generator: Adobe Illustrator 19.0.0, SVG Export Plug-In . SVG Version: 6.00 Build 0)  -->
<svg version="1.1" id="Layer_1" xmlns="http://www.w3.org/2000/svg" xmlns:xlink="http://www.w3.org/1999/xlink" x="0px" y="0px"
	 viewBox="0 0 168.1 167.9" style="enable-background:new 0 0 168.1 167.9;" xml:space="preserve">
<style type="text/css">
	.st0{fill:#125B7C;}
	.st1{fill:#FFFFFF;}
	.st2{fill:#CD202B;}
	.st3{fill:#404040;}
</style>
<rect id="XMLID_5567_" x="0" y="0" class="st0" width="149.9" height="167"/>
<polygon id="XMLID_7693_" class="st1" points="148.8,167.7 148.8,148.7 168.1,167.9 "/>
<rect id="XMLID_4593_" x="0" y="107.1" class="st1" width="149.9" height="60.8"/>
<g id="XMLID_9180_">
	<circle id="XMLID_9181_" class="st2" cx="7.5" cy="118.7" r="4"/>
	<path id="XMLID_9182_" class="st2" d="M3.4,118.7h8.1v10.1C11.5,128.8,3.4,123.9,3.4,118.7z"/>
	<circle id="XMLID_2523_" class="st2" cx="15.5" cy="118.5" r="4"/>
	<path id="XMLID_2522_" class="st2" d="M19.6,118.5h-8.1v10.1C11.5,128.6,19.6,123.7,19.6,118.5z"/>
</g>
<g id="XMLID_9327_">
	<path id="XMLID_9328_" class="st1" d="M60.5,54.6c0,5.9-1.7,10.4-5,13.5s-8.2,4.7-14.5,4.7H30.9V37.1h11.2c5.8,0,10.4,1.5,13.6,4.6
		S60.5,49.1,60.5,54.6z M52.6,54.8c0-7.7-3.4-11.5-10.2-11.5h-4v23.2h3.2C49,66.6,52.6,62.7,52.6,54.8z"/>
	<path id="XMLID_9331_" class="st1" d="M81.2,72.8H65v-4.3l4.3-2V43.4l-4.3-2v-4.3h16.2v4.3l-4.3,2v23.1l4.3,2V72.8z"/>
	<path id="XMLID_9333_" class="st1" d="M98.4,51.8l7.4-14.7h8.2l-11.8,21.8v13.9h-7.5V59.2l-11.8-22H91L98.4,51.8z"/>
</g>
<g id="XMLID_12_">
	<g id="XMLID_976_">
		<path id="XMLID_1060_" class="st3" d="M30.9,125.6h-2.4l-2.6-4.2l-0.9,0.6v3.6h-2.1v-10h2.1v4.6l0.8-1.2l2.7-3.4h2.4l-3.5,4.4
			L30.9,125.6z"/>
		<path id="XMLID_1057_" class="st3" d="M35.4,125.7c-1.2,0-2.2-0.3-2.9-1c-0.7-0.7-1-1.6-1-2.9c0-1.3,0.3-2.3,1-3
			c0.6-0.7,1.5-1,2.7-1c1.1,0,1.9,0.3,2.5,0.9s0.9,1.5,0.9,2.5v1h-4.9c0,0.6,0.2,1.1,0.5,1.4c0.3,0.3,0.8,0.5,1.4,0.5
			c0.5,0,0.9,0,1.3-0.1s0.8-0.2,1.3-0.5v1.6c-0.4,0.2-0.8,0.3-1.2,0.4C36.5,125.7,36,125.7,35.4,125.7z M35.1,119.3
			c-0.4,0-0.8,0.1-1,0.4c-0.3,0.3-0.4,0.7-0.4,1.2h2.9c0-0.5-0.1-0.9-0.4-1.2S35.6,119.3,35.1,119.3z"/>
		<path id="XMLID_1055_" class="st3" d="M44.5,117.8c0.3,0,0.5,0,0.7,0.1l-0.2,2c-0.2,0-0.4-0.1-0.6-0.1c-0.7,0-1.2,0.2-1.6,0.5
			s-0.6,0.8-0.6,1.4v3.9h-2.1v-7.6h1.6l0.3,1.3h0.1c0.2-0.4,0.6-0.8,1-1C43.6,117.9,44,117.8,44.5,117.8z"/>
		<path id="XMLID_1052_" class="st3" d="M51.3,125.6l-0.4-1h-0.1c-0.4,0.4-0.7,0.7-1.1,0.9s-0.9,0.3-1.5,0.3c-0.7,0-1.3-0.2-1.7-0.6
			c-0.4-0.4-0.6-1-0.6-1.8c0-0.8,0.3-1.4,0.9-1.8c0.6-0.4,1.4-0.6,2.6-0.6l1.3,0v-0.3c0-0.8-0.4-1.2-1.2-1.2c-0.6,0-1.3,0.2-2.2,0.6
			l-0.7-1.4c0.9-0.5,1.9-0.7,2.9-0.7c1,0,1.8,0.2,2.4,0.7c0.5,0.4,0.8,1.1,0.8,2v5.1H51.3z M50.7,122l-0.8,0c-0.6,0-1.1,0.1-1.4,0.3
			c-0.3,0.2-0.4,0.5-0.4,0.9c0,0.6,0.3,0.9,1,0.9c0.5,0,0.9-0.1,1.2-0.4c0.3-0.3,0.4-0.6,0.4-1.1V122z"/>
		<path id="XMLID_1049_" class="st3" d="M54.3,128.9c-0.5,0-1-0.1-1.4-0.2v-1.6c0.3,0.1,0.6,0.1,1,0.1c0.4,0,0.6-0.1,0.8-0.3
			c0.2-0.2,0.2-0.5,0.2-0.9v-8.2H57v8.5c0,0.8-0.2,1.4-0.7,1.9C55.8,128.7,55.1,128.9,54.3,128.9z M54.8,116c0-0.7,0.4-1,1.1-1
			c0.8,0,1.1,0.3,1.1,1c0,0.3-0.1,0.6-0.3,0.8c-0.2,0.2-0.5,0.3-0.9,0.3C55.2,117,54.8,116.6,54.8,116z"/>
		<path id="XMLID_1046_" class="st3" d="M59.1,116c0-0.7,0.4-1,1.1-1c0.8,0,1.1,0.3,1.1,1c0,0.3-0.1,0.6-0.3,0.8
			c-0.2,0.2-0.5,0.3-0.9,0.3C59.5,117,59.1,116.6,59.1,116z M61.3,125.6h-2.1v-7.6h2.1V125.6z"/>
		<path id="XMLID_1044_" class="st3" d="M70.5,125.6h-2.1v-4.5c0-0.6-0.1-1-0.3-1.2c-0.2-0.3-0.5-0.4-0.9-0.4c-0.6,0-1,0.2-1.3,0.6
			s-0.4,1-0.4,1.9v3.6h-2.1v-7.6H65l0.3,1h0.1c0.2-0.4,0.6-0.6,1-0.8c0.4-0.2,0.9-0.3,1.4-0.3c0.9,0,1.6,0.2,2,0.7
			c0.5,0.5,0.7,1.2,0.7,2.1V125.6z"/>
		<path id="XMLID_1041_" class="st3" d="M77.5,125.6l-0.4-1H77c-0.4,0.4-0.7,0.7-1.1,0.9s-0.9,0.3-1.5,0.3c-0.7,0-1.3-0.2-1.7-0.6
			c-0.4-0.4-0.6-1-0.6-1.8c0-0.8,0.3-1.4,0.9-1.8c0.6-0.4,1.4-0.6,2.6-0.6l1.3,0v-0.3c0-0.8-0.4-1.2-1.2-1.2c-0.6,0-1.3,0.2-2.2,0.6
			l-0.7-1.4c0.9-0.5,1.9-0.7,2.9-0.7c1,0,1.8,0.2,2.4,0.7c0.5,0.4,0.8,1.1,0.8,2v5.1H77.5z M76.9,122l-0.8,0c-0.6,0-1.1,0.1-1.4,0.3
			c-0.3,0.2-0.4,0.5-0.4,0.9c0,0.6,0.3,0.9,1,0.9c0.5,0,0.9-0.1,1.2-0.4c0.3-0.3,0.4-0.6,0.4-1.1V122z"/>
		<path id="XMLID_1039_" class="st3" d="M88.2,125.6h-2.1v-4.5c0-0.6-0.1-1-0.3-1.2c-0.2-0.3-0.5-0.4-0.9-0.4c-0.6,0-1,0.2-1.3,0.6
			s-0.4,1-0.4,1.9v3.6h-2.1v-7.6h1.6l0.3,1h0.1c0.2-0.4,0.6-0.6,1-0.8c0.4-0.2,0.9-0.3,1.4-0.3c0.9,0,1.6,0.2,2,0.7
			c0.5,0.5,0.7,1.2,0.7,2.1V125.6z"/>
		<path id="XMLID_1037_" class="st3" d="M98,125.6h-2.1v-8.2h-2.7v-1.8h7.5v1.8H98V125.6z"/>
		<path id="XMLID_1034_" class="st3" d="M106.4,125.6l-0.4-1h-0.1c-0.4,0.4-0.7,0.7-1.1,0.9s-0.9,0.3-1.5,0.3
			c-0.7,0-1.3-0.2-1.7-0.6c-0.4-0.4-0.6-1-0.6-1.8c0-0.8,0.3-1.4,0.9-1.8c0.6-0.4,1.4-0.6,2.6-0.6l1.3,0v-0.3c0-0.8-0.4-1.2-1.2-1.2
			c-0.6,0-1.3,0.2-2.2,0.6l-0.7-1.4c0.9-0.5,1.9-0.7,2.9-0.7c1,0,1.8,0.2,2.4,0.7c0.5,0.4,0.8,1.1,0.8,2v5.1H106.4z M105.7,122
			l-0.8,0c-0.6,0-1.1,0.1-1.4,0.3c-0.3,0.2-0.4,0.5-0.4,0.9c0,0.6,0.3,0.9,1,0.9c0.5,0,0.9-0.1,1.2-0.4c0.3-0.3,0.4-0.6,0.4-1.1V122
			z"/>
		<path id="XMLID_1032_" class="st3" d="M117,125.6h-2.1v-4.5c0-0.6-0.1-1-0.3-1.2c-0.2-0.3-0.5-0.4-0.9-0.4c-0.6,0-1,0.2-1.3,0.6
			s-0.4,1-0.4,1.9v3.6H110v-7.6h1.6l0.3,1h0.1c0.2-0.4,0.6-0.6,1-0.8c0.4-0.2,0.9-0.3,1.4-0.3c0.9,0,1.6,0.2,2,0.7
			c0.5,0.5,0.7,1.2,0.7,2.1V125.6z"/>
		<path id="XMLID_1029_" class="st3" d="M125.8,125.6c0,1.1-0.3,1.9-1,2.5c-0.6,0.6-1.6,0.9-2.9,0.9c-1.1,0-2.1-0.2-2.9-0.5v-1.7
			c0.9,0.4,1.9,0.6,3,0.6c1.1,0,1.6-0.6,1.6-1.7v-0.2l0.1-0.9h-0.1c-0.5,0.8-1.2,1.1-2.2,1.1c-0.9,0-1.6-0.4-2.1-1.1
			c-0.5-0.7-0.8-1.7-0.8-2.9c0-1.3,0.3-2.2,0.8-2.9c0.5-0.7,1.2-1,2.2-1c0.9,0,1.7,0.4,2.2,1.1h0.1l0.2-1h1.8V125.6z M122.3,124.1
			c0.6,0,1-0.2,1.2-0.5c0.2-0.3,0.4-0.8,0.4-1.6v-0.3c0-0.8-0.1-1.4-0.4-1.8c-0.3-0.4-0.7-0.5-1.2-0.5c-1,0-1.5,0.8-1.5,2.3
			c0,0.8,0.1,1.3,0.4,1.7C121.4,123.9,121.8,124.1,122.3,124.1z"/>
		<path id="XMLID_1026_" class="st3" d="M132.9,125.6l-0.4-1h-0.1c-0.4,0.4-0.7,0.7-1.1,0.9s-0.9,0.3-1.5,0.3
			c-0.7,0-1.3-0.2-1.7-0.6c-0.4-0.4-0.6-1-0.6-1.8c0-0.8,0.3-1.4,0.9-1.8c0.6-0.4,1.4-0.6,2.6-0.6l1.3,0v-0.3c0-0.8-0.4-1.2-1.2-1.2
			c-0.6,0-1.3,0.2-2.2,0.6l-0.7-1.4c0.9-0.5,1.9-0.7,2.9-0.7c1,0,1.8,0.2,2.4,0.7c0.5,0.4,0.8,1.1,0.8,2v5.1H132.9z M132.3,122
			l-0.8,0c-0.6,0-1.1,0.1-1.4,0.3c-0.3,0.2-0.4,0.5-0.4,0.9c0,0.6,0.3,0.9,1,0.9c0.5,0,0.9-0.1,1.2-0.4c0.3-0.3,0.4-0.6,0.4-1.1V122
			z"/>
		<path id="XMLID_1024_" class="st3" d="M143.5,125.6h-2.1v-4.5c0-0.6-0.1-1-0.3-1.2c-0.2-0.3-0.5-0.4-0.9-0.4c-0.6,0-1,0.2-1.3,0.6
			s-0.4,1-0.4,1.9v3.6h-2.1v-7.6h1.6l0.3,1h0.1c0.2-0.4,0.6-0.6,1-0.8c0.4-0.2,0.9-0.3,1.4-0.3c0.9,0,1.6,0.2,2,0.7
			c0.5,0.5,0.7,1.2,0.7,2.1V125.6z"/>
		<path id="XMLID_1022_" class="st3" d="M27.6,137.7c0,0.7-0.3,1.3-0.8,1.8s-1.3,0.6-2.3,0.6c-1,0-1.8-0.1-2.4-0.4v-1
			c0.4,0.2,0.8,0.3,1.2,0.4s0.8,0.1,1.2,0.1c0.6,0,1.1-0.1,1.4-0.4s0.5-0.6,0.5-1c0-0.3-0.1-0.5-0.2-0.7s-0.3-0.4-0.6-0.5
			s-0.7-0.3-1.3-0.5c-0.8-0.3-1.4-0.6-1.7-1s-0.5-0.9-0.5-1.5c0-0.7,0.3-1.2,0.8-1.6s1.2-0.6,2-0.6c0.9,0,1.6,0.2,2.4,0.5l-0.3,0.9
			c-0.7-0.3-1.4-0.5-2.1-0.5c-0.5,0-0.9,0.1-1.2,0.3s-0.4,0.5-0.4,0.9c0,0.3,0.1,0.5,0.2,0.7s0.3,0.4,0.5,0.5s0.6,0.3,1.2,0.5
			c0.6,0.2,1.1,0.5,1.4,0.7s0.5,0.5,0.7,0.8S27.6,137.3,27.6,137.7z"/>
		<path id="XMLID_1019_" class="st3" d="M32.2,140.1c-0.9,0-1.5-0.3-2-0.9h-0.1l0,0.2c0,0.3,0,0.6,0,0.8v2.6h-1.1v-9.3H30l0.1,0.9h0
			c0.3-0.4,0.5-0.6,0.9-0.8s0.7-0.2,1.1-0.2c0.8,0,1.5,0.3,1.9,0.9s0.7,1.4,0.7,2.5c0,1.1-0.2,1.9-0.7,2.5S33.1,140.1,32.2,140.1z
			 M32,134.3c-0.6,0-1.1,0.2-1.4,0.5s-0.4,0.9-0.4,1.7v0.2c0,0.9,0.1,1.5,0.4,1.9s0.8,0.6,1.4,0.6c0.5,0,1-0.2,1.3-0.7
			s0.5-1,0.5-1.8c0-0.8-0.2-1.4-0.5-1.8S32.6,134.3,32,134.3z"/>
		<path id="XMLID_1016_" class="st3" d="M39.3,140.1c-1,0-1.7-0.3-2.3-0.9s-0.8-1.4-0.8-2.4c0-1,0.3-1.9,0.8-2.5s1.2-0.9,2.1-0.9
			c0.8,0,1.5,0.3,1.9,0.8s0.7,1.2,0.7,2.1v0.6h-4.4c0,0.7,0.2,1.3,0.6,1.7s0.8,0.6,1.5,0.6c0.3,0,0.7,0,1-0.1s0.7-0.2,1.1-0.4v0.9
			c-0.4,0.2-0.7,0.3-1,0.3S39.7,140.1,39.3,140.1z M39,134.3c-0.5,0-0.9,0.2-1.2,0.5s-0.5,0.8-0.5,1.4h3.3c0-0.6-0.1-1.1-0.4-1.4
			S39.5,134.3,39,134.3z"/>
		<path id="XMLID_1014_" class="st3" d="M45.9,140.1c-0.9,0-1.6-0.3-2.2-0.9s-0.8-1.4-0.8-2.4c0-1.1,0.3-1.9,0.8-2.5
			s1.3-0.9,2.2-0.9c0.3,0,0.6,0,0.9,0.1s0.6,0.1,0.8,0.2l-0.3,0.9c-0.5-0.2-1-0.3-1.4-0.3c-0.6,0-1.1,0.2-1.4,0.6s-0.5,1-0.5,1.8
			c0,0.8,0.2,1.4,0.5,1.8s0.8,0.6,1.4,0.6c0.6,0,1.1-0.1,1.7-0.4v0.9C47.1,140,46.6,140.1,45.9,140.1z"/>
		<path id="XMLID_1011_" class="st3" d="M49,131.8c0-0.2,0.1-0.4,0.2-0.5s0.3-0.2,0.4-0.2c0.2,0,0.3,0.1,0.4,0.2s0.2,0.3,0.2,0.5
			c0,0.2-0.1,0.4-0.2,0.5s-0.3,0.2-0.4,0.2c-0.2,0-0.3-0.1-0.4-0.2S49,132,49,131.8z M50.1,140h-1.1v-6.4h1.1V140z"/>
		<path id="XMLID_1008_" class="st3" d="M56.1,140l-0.2-0.9h0c-0.3,0.4-0.6,0.7-1,0.8s-0.7,0.2-1.2,0.2c-0.6,0-1.1-0.2-1.5-0.5
			s-0.5-0.8-0.5-1.4c0-1.3,1-2,3.1-2.1l1.1,0v-0.4c0-0.5-0.1-0.8-0.3-1.1s-0.5-0.3-1-0.3c-0.3,0-0.7,0.1-1,0.2s-0.6,0.2-0.9,0.3
			l-0.3-0.8c0.3-0.2,0.7-0.3,1.1-0.4s0.8-0.1,1.1-0.1c0.8,0,1.4,0.2,1.7,0.5s0.6,0.9,0.6,1.6v4.4H56.1z M54,139.2
			c0.6,0,1.1-0.2,1.4-0.5s0.5-0.8,0.5-1.4v-0.6l-0.9,0c-0.7,0-1.3,0.1-1.6,0.4s-0.5,0.5-0.5,1c0,0.3,0.1,0.6,0.3,0.8
			S53.6,139.2,54,139.2z"/>
		<path id="XMLID_1006_" class="st3" d="M60,140h-1.1v-9.1H60V140z"/>
		<path id="XMLID_1004_" class="st3" d="M63.2,138.6l0.1,0.1c-0.2,0.8-0.6,1.8-1,2.8h-0.8c0.3-1,0.5-2,0.6-2.9H63.2z"/>
		<path id="XMLID_1002_" class="st3" d="M72.5,138.2c0,0.6-0.2,1.1-0.7,1.4s-1.1,0.5-1.9,0.5c-0.8,0-1.5-0.1-2-0.4v-1
			c0.7,0.3,1.4,0.5,2,0.5c0.5,0,0.9-0.1,1.2-0.3s0.4-0.4,0.4-0.7c0-0.3-0.1-0.5-0.3-0.6s-0.6-0.4-1.2-0.6c-0.6-0.2-1-0.4-1.3-0.6
			s-0.4-0.4-0.5-0.6s-0.2-0.5-0.2-0.8c0-0.5,0.2-0.9,0.6-1.2s1-0.5,1.8-0.5c0.7,0,1.4,0.1,2.1,0.4l-0.4,0.8
			c-0.7-0.3-1.2-0.4-1.8-0.4c-0.4,0-0.8,0.1-1,0.2s-0.3,0.3-0.3,0.6c0,0.2,0.1,0.4,0.3,0.6s0.7,0.4,1.4,0.6c0.5,0.2,0.9,0.4,1.2,0.6
			s0.4,0.4,0.6,0.6S72.5,137.9,72.5,138.2z"/>
		<path id="XMLID_999_" class="st3" d="M78.1,140l-0.2-0.9h0c-0.3,0.4-0.6,0.7-1,0.8s-0.7,0.2-1.2,0.2c-0.6,0-1.1-0.2-1.5-0.5
			s-0.5-0.8-0.5-1.4c0-1.3,1-2,3.1-2.1l1.1,0v-0.4c0-0.5-0.1-0.8-0.3-1.1s-0.5-0.3-1-0.3c-0.3,0-0.7,0.1-1,0.2s-0.6,0.2-0.9,0.3
			l-0.3-0.8c0.3-0.2,0.7-0.3,1.1-0.4s0.8-0.1,1.1-0.1c0.8,0,1.4,0.2,1.7,0.5s0.6,0.9,0.6,1.6v4.4H78.1z M75.9,139.2
			c0.6,0,1.1-0.2,1.4-0.5s0.5-0.8,0.5-1.4v-0.6l-0.9,0c-0.7,0-1.3,0.1-1.6,0.4s-0.5,0.5-0.5,1c0,0.3,0.1,0.6,0.3,0.8
			S75.5,139.2,75.9,139.2z"/>
		<path id="XMLID_997_" class="st3" d="M83,139.2c0.1,0,0.3,0,0.5,0s0.3-0.1,0.4-0.1v0.8c-0.1,0-0.2,0.1-0.5,0.1s-0.4,0.1-0.6,0.1
			c-1.3,0-1.9-0.7-1.9-2v-3.7H80v-0.5l0.9-0.4l0.4-1.4H82v1.5h1.9v0.8H82v3.7c0,0.4,0.1,0.7,0.3,0.9S82.6,139.2,83,139.2z"/>
		<path id="XMLID_995_" class="st3" d="M86.1,133.5v4.1c0,0.5,0.1,0.9,0.3,1.2s0.6,0.4,1.1,0.4c0.7,0,1.1-0.2,1.4-0.6s0.5-1,0.5-1.8
			v-3.4h1.1v6.4h-0.9l-0.2-0.8h-0.1c-0.2,0.3-0.5,0.5-0.8,0.7s-0.8,0.3-1.2,0.3c-0.8,0-1.4-0.2-1.7-0.6s-0.6-1-0.6-1.8v-4.2H86.1z"
			/>
		<path id="XMLID_993_" class="st3" d="M92,137.2v-0.9h2.9v0.9H92z"/>
		<path id="XMLID_991_" class="st3" d="M100.6,138.2c0,0.6-0.2,1.1-0.7,1.4s-1.1,0.5-1.9,0.5c-0.8,0-1.5-0.1-2-0.4v-1
			c0.7,0.3,1.4,0.5,2,0.5c0.5,0,0.9-0.1,1.2-0.3s0.4-0.4,0.4-0.7c0-0.3-0.1-0.5-0.3-0.6s-0.6-0.4-1.2-0.6c-0.6-0.2-1-0.4-1.3-0.6
			s-0.4-0.4-0.5-0.6s-0.2-0.5-0.2-0.8c0-0.5,0.2-0.9,0.6-1.2s1-0.5,1.8-0.5c0.7,0,1.4,0.1,2.1,0.4l-0.4,0.8
			c-0.7-0.3-1.2-0.4-1.8-0.4c-0.4,0-0.8,0.1-1,0.2s-0.3,0.3-0.3,0.6c0,0.2,0.1,0.4,0.3,0.6s0.7,0.4,1.4,0.6c0.5,0.2,0.9,0.4,1.2,0.6
			s0.4,0.4,0.6,0.6S100.6,137.9,100.6,138.2z"/>
		<path id="XMLID_988_" class="st3" d="M106.1,140l-0.2-0.9h0c-0.3,0.4-0.6,0.7-1,0.8s-0.7,0.2-1.2,0.2c-0.6,0-1.1-0.2-1.5-0.5
			s-0.5-0.8-0.5-1.4c0-1.3,1-2,3.1-2.1l1.1,0v-0.4c0-0.5-0.1-0.8-0.3-1.1s-0.5-0.3-1-0.3c-0.3,0-0.7,0.1-1,0.2s-0.6,0.2-0.9,0.3
			l-0.3-0.8c0.3-0.2,0.7-0.3,1.1-0.4s0.8-0.1,1.1-0.1c0.8,0,1.4,0.2,1.7,0.5s0.6,0.9,0.6,1.6v4.4H106.1z M104,139.2
			c0.6,0,1.1-0.2,1.4-0.5s0.5-0.8,0.5-1.4v-0.6l-0.9,0c-0.7,0-1.3,0.1-1.6,0.4s-0.5,0.5-0.5,1c0,0.3,0.1,0.6,0.3,0.8
			S103.6,139.2,104,139.2z"/>
		<path id="XMLID_986_" class="st3" d="M111.1,139.2c0.1,0,0.3,0,0.5,0s0.3-0.1,0.4-0.1v0.8c-0.1,0-0.2,0.1-0.5,0.1
			s-0.4,0.1-0.6,0.1c-1.3,0-1.9-0.7-1.9-2v-3.7h-0.9v-0.5l0.9-0.4l0.4-1.4h0.6v1.5h1.9v0.8H110v3.7c0,0.4,0.1,0.7,0.3,0.9
			S110.7,139.2,111.1,139.2z"/>
		<path id="XMLID_984_" class="st3" d="M114.2,133.5v4.1c0,0.5,0.1,0.9,0.3,1.2s0.6,0.4,1.1,0.4c0.7,0,1.1-0.2,1.4-0.6
			s0.5-1,0.5-1.8v-3.4h1.1v6.4h-0.9l-0.2-0.8h-0.1c-0.2,0.3-0.5,0.5-0.8,0.7s-0.8,0.3-1.2,0.3c-0.8,0-1.4-0.2-1.7-0.6
			s-0.6-1-0.6-1.8v-4.2H114.2z"/>
		<path id="XMLID_982_" class="st3" d="M125,140v-4.1c0-0.5-0.1-0.9-0.3-1.2s-0.6-0.4-1.1-0.4c-0.7,0-1.1,0.2-1.4,0.5
			s-0.4,1-0.4,1.8v3.3h-1.1v-6.4h0.8l0.2,0.9h0.1c0.2-0.3,0.5-0.6,0.8-0.7s0.8-0.3,1.2-0.3c0.8,0,1.4,0.2,1.8,0.6s0.6,1,0.6,1.8v4.2
			H125z"/>
		<path id="XMLID_980_" class="st3" d="M127.1,133.5h1.1l1.4,3.7c0.3,0.8,0.5,1.4,0.5,1.8h0c0-0.1,0.1-0.4,0.2-0.8s0.2-0.7,0.3-1
			l1.3-3.7h1.1l-2.8,7.3c-0.3,0.7-0.6,1.2-1,1.5s-0.8,0.5-1.4,0.5c-0.3,0-0.6,0-0.9-0.1v-0.8c0.2,0,0.4,0.1,0.7,0.1
			c0.3,0,0.6-0.1,0.9-0.3s0.4-0.5,0.6-0.9l0.3-0.9L127.1,133.5z"/>
		<path id="XMLID_977_" class="st3" d="M138.2,140l-0.2-0.9h0c-0.3,0.4-0.6,0.7-1,0.8s-0.7,0.2-1.2,0.2c-0.6,0-1.1-0.2-1.5-0.5
			s-0.5-0.8-0.5-1.4c0-1.3,1-2,3.1-2.1l1.1,0v-0.4c0-0.5-0.1-0.8-0.3-1.1s-0.5-0.3-1-0.3c-0.3,0-0.7,0.1-1,0.2s-0.6,0.2-0.9,0.3
			l-0.3-0.8c0.3-0.2,0.7-0.3,1.1-0.4s0.8-0.1,1.1-0.1c0.8,0,1.4,0.2,1.7,0.5s0.6,0.9,0.6,1.6v4.4H138.2z M136,139.2
			c0.6,0,1.1-0.2,1.4-0.5s0.5-0.8,0.5-1.4v-0.6l-0.9,0c-0.7,0-1.3,0.1-1.6,0.4s-0.5,0.5-0.5,1c0,0.3,0.1,0.6,0.3,0.8
			S135.6,139.2,136,139.2z"/>
	</g>
</g>
</svg>
