<svg xmlns="http://www.w3.org/2000/svg" viewBox="0 0 379.56 299.59"><defs><style>.cls-1{isolation:isolate;}.cls-2{fill:#4aa074;}.cls-3{fill:#58be89;}.cls-4{fill:#676767;opacity:0.2;mix-blend-mode:multiply;}.cls-5{fill:#116e4c;}.cls-6{fill:#24805e;}.cls-11,.cls-13,.cls-6,.cls-7,.cls-8{fill-rule:evenodd;}.cls-15,.cls-7{fill:#1e694e;}.cls-8{fill:#fff;}.cls-13,.cls-9{fill:#30302f;}.cls-10{fill:#2ca378;stroke:#676767;stroke-linecap:round;stroke-linejoin:round;stroke-width:2px;}.cls-11{fill:#52917a;}.cls-12{fill:#4bbd93;}.cls-14{fill:#7ecaa7;}.cls-16{fill:#1c7e5c;}</style></defs><title>cart1</title><g class="cls-1"><g id="Layer_1" data-name="Layer 1"><polygon id="_Path_" data-name="&lt;Path&gt;" class="cls-2" points="322.73 57.42 322.73 174.7 305.32 199.29 305.32 66.46 305.45 57.42 310.05 66.46 314.09 57.42 318.68 66.46 322.73 57.42"/><polygon id="_Path_2" data-name="&lt;Path&gt;" class="cls-3" points="340.07 66.46 340.07 199.29 322.73 174.7 322.73 57.42 327.33 66.46 331.38 57.42 335.97 66.46 340.02 57.42 340.07 66.46"/><polygon id="_Path_3" data-name="&lt;Path&gt;" class="cls-3" points="340.07 199.29 305.32 199.29 322.73 174.7 340.07 199.29"/><polygon id="_Path_4" data-name="&lt;Path&gt;" class="cls-3" points="305.45 57.42 305.32 66.46 305.32 199.29 213.64 199.29 213.64 57.42 220.64 66.31 226.76 57.42 233.75 66.31 239.87 57.42 246.87 66.31 252.99 57.42 259.98 66.31 266.1 57.42 273.1 66.31 279.21 57.42 286.22 66.31 292.33 57.42 299.33 66.31 305.45 57.42"/><path id="_Compound_Path_" data-name="&lt;Compound Path&gt;" class="cls-4" d="M259.54,112.84A26.15,26.15,0,1,0,285.7,139,26.15,26.15,0,0,0,259.54,112.84Zm16.69,17.24-16.57,25-0.07.09a2.77,2.77,0,0,1-.55.64l-0.25.2a1.78,1.78,0,0,1-.41.25,2.64,2.64,0,0,1-.48.21,2.89,2.89,0,0,1-.39.1l-0.21,0-0.44,0a1.74,1.74,0,0,1-.36,0,1,1,0,0,1-.27,0,3.11,3.11,0,0,1-1.16-.48,4.06,4.06,0,0,1-.38-0.29,2.83,2.83,0,0,1-.25-0.26,2.21,2.21,0,0,1-.26-0.32L243,140.61a3.27,3.27,0,0,1,5.19-4l8.5,11.1,14.1-21.26A3.27,3.27,0,1,1,276.23,130.08Z"/><rect class="cls-5" x="102.92" y="29.89" width="121.89" height="88.82"/><path class="cls-6" d="M94.64,42.79h138c1.67,23.69,3.48,48.48,5.37,74.55q3,41.15,6.25,87H83q3.3-45.78,6.25-87.06,2.84-39.1,5.37-74.51h0Z"/><path class="cls-7" d="M94.64,42.79H232.91c-2.77-1.41-5.33-2.73-7.71-3.92l-6.12-3.13h0c0.4-.48.88-0.92,1.32-1.41s0.88-.92,1.32-1.37,1-1,1.5-1.54,1-1,1.5-1.54H102.92l1.41,1.54c0.48,0.53,1,1,1.45,1.54s0.92,0.92,1.37,1.37,0.88,0.92,1.32,1.41h0c-1.94,1-4,2-6.17,3.13-2.38,1.19-4.93,2.51-7.71,3.92h0Z"/><path class="cls-8" d="M134.1,53.18a3.39,3.39,0,1,1,0,6.78,3.39,3.39,0,0,1,0-6.78h0Zm59.1,0a3.39,3.39,0,1,1-3.39,3.39,3.39,3.39,0,0,1,3.39-3.39h0Z"/><path class="cls-9" d="M133,57.63a1.39,1.39,0,0,1,2.38-1.45,38.66,38.66,0,0,0,12.51,12.55,30.6,30.6,0,0,0,16.25,4.62,29.8,29.8,0,0,0,16-4.76A37.14,37.14,0,0,0,192,56.22a1.45,1.45,0,0,1,1.94-.44,1.36,1.36,0,0,1,.44,1.89,39.92,39.92,0,0,1-12.68,13.25,32.65,32.65,0,0,1-17.53,5.2,33.37,33.37,0,0,1-17.7-5A41.73,41.73,0,0,1,133,57.63h0Z"/><polygon class="cls-10" points="162.52 110.33 170 100.9 173.3 112.47 183.82 106.63 182.45 118.58 194.4 117.21 188.56 127.73 200.13 131.03 190.7 138.51 200.13 145.99 188.56 149.3 194.4 159.81 182.45 158.44 183.82 170.39 173.3 164.55 170 176.12 162.52 166.69 155.04 176.12 151.73 164.55 141.22 170.39 142.59 158.44 130.63 159.81 136.48 149.3 124.91 145.99 134.34 138.51 124.91 131.03 136.48 127.73 130.63 117.21 142.59 118.58 141.22 106.63 151.73 112.47 155.04 100.9 162.52 110.33"/><path class="cls-9" d="M147.29,133.16a6.44,6.44,0,1,1,6.44,6.31A6.35,6.35,0,0,1,147.29,133.16Zm9,0a2.56,2.56,0,1,0-2.56,2.69A2.57,2.57,0,0,0,156.29,133.16Zm10.62-6h4.39l-13.18,22.6h-4.39Zm-2,16.67a6.44,6.44,0,1,1,6.44,6.31A6.35,6.35,0,0,1,164.86,143.86Zm9,0a2.56,2.56,0,1,0-2.56,2.69A2.57,2.57,0,0,0,173.86,143.86Z"/><path class="cls-11" d="M171.71,118.79h70a9.78,9.78,0,0,1,9.75,9.75v6.62H162v-6.62a9.78,9.78,0,0,1,9.75-9.75h0Z"/><rect class="cls-12" x="161.85" y="135.16" width="89.64" height="70"/><path class="cls-8" d="M188.4,123.18a2.59,2.59,0,1,1-2.58,2.6,2.59,2.59,0,0,1,2.58-2.6h0Zm12.22,0a2.59,2.59,0,1,1-2.6,2.6,2.59,2.59,0,0,1,2.6-2.6h0Zm12.2,0a2.59,2.59,0,1,1-2.58,2.6,2.59,2.59,0,0,1,2.58-2.6h0Zm12.22,0a2.59,2.59,0,1,1-2.6,2.6,2.59,2.59,0,0,1,2.6-2.6h0Zm12.2,0a2.59,2.59,0,1,1-2.6,2.6,2.59,2.59,0,0,1,2.6-2.6h0Zm-61,0a2.59,2.59,0,1,1-2.6,2.6,2.61,2.61,0,0,1,2.6-2.6h0Z"/><path class="cls-13" d="M188.48,113.16h0a1.49,1.49,0,0,1,1.47,1.5v10a1.48,1.48,0,0,1-1.47,1.5h0a1.48,1.48,0,0,1-1.5-1.5v-10a1.5,1.5,0,0,1,1.5-1.5h0Zm12.17,0h0a1.49,1.49,0,0,1,1.47,1.5v10a1.48,1.48,0,0,1-1.47,1.5h0a1.48,1.48,0,0,1-1.5-1.5v-10a1.5,1.5,0,0,1,1.5-1.5h0Zm12.15,0h0a1.5,1.5,0,0,1,1.5,1.5v10a1.48,1.48,0,0,1-1.5,1.5h0a1.48,1.48,0,0,1-1.47-1.5v-10a1.49,1.49,0,0,1,1.47-1.5h0Zm12.17,0h0a1.5,1.5,0,0,1,1.5,1.5v10a1.48,1.48,0,0,1-1.5,1.5h0a1.48,1.48,0,0,1-1.47-1.5v-10a1.49,1.49,0,0,1,1.47-1.5h0Zm12.17,0h0a1.5,1.5,0,0,1,1.5,1.5v10a1.48,1.48,0,0,1-1.5,1.5h0a1.5,1.5,0,0,1-1.5-1.5v-10a1.52,1.52,0,0,1,1.5-1.5h0Zm-60.83,0h0a1.52,1.52,0,0,1,1.5,1.5v10a1.5,1.5,0,0,1-1.5,1.5h0a1.48,1.48,0,0,1-1.5-1.5v-10a1.5,1.5,0,0,1,1.5-1.5h0Z"/><path class="cls-14" d="M192.54,167.39a4.48,4.48,0,0,1-.71,2.49,4.74,4.74,0,0,1-2.09,1.73,7.83,7.83,0,0,1-3.27.63,7.36,7.36,0,0,1-3.73-.85,5,5,0,0,1-1.69-1.64,3.72,3.72,0,0,1-.65-2,1.35,1.35,0,0,1,1.39-1.36,1.17,1.17,0,0,1,.83.31,2.46,2.46,0,0,1,.58.93,6.16,6.16,0,0,0,.63,1.22,2.56,2.56,0,0,0,1,.81,3.51,3.51,0,0,0,1.62.32,3.65,3.65,0,0,0,2.24-.64,1.93,1.93,0,0,0,.86-1.6,1.69,1.69,0,0,0-.46-1.24,3,3,0,0,0-1.2-.73q-0.74-.25-2-0.53a14.34,14.34,0,0,1-2.76-.9,4.46,4.46,0,0,1-1.76-1.41,3.66,3.66,0,0,1-.65-2.22,3.81,3.81,0,0,1,.69-2.24,4.33,4.33,0,0,1,2-1.51,8.14,8.14,0,0,1,3.07-.53,7.57,7.57,0,0,1,2.43.35,5.15,5.15,0,0,1,1.71.93,3.85,3.85,0,0,1,1,1.21,2.81,2.81,0,0,1,.31,1.24,1.47,1.47,0,0,1-.39,1,1.25,1.25,0,0,1-1,.44,1.11,1.11,0,0,1-.81-0.27,3.5,3.5,0,0,1-.6-0.87,4,4,0,0,0-1-1.35,2.93,2.93,0,0,0-1.88-.48,3.26,3.26,0,0,0-1.94.53,1.53,1.53,0,0,0-.73,1.27,1.29,1.29,0,0,0,.25.79,2.13,2.13,0,0,0,.69.57,4.64,4.64,0,0,0,.89.38c0.3,0.09.79,0.22,1.48,0.4a22.54,22.54,0,0,1,2.34.67,7,7,0,0,1,1.78.88,3.67,3.67,0,0,1,1.15,1.32A4.23,4.23,0,0,1,192.54,167.39Z"/><path class="cls-14" d="M204.95,170.25l-0.73-1.92H198l-0.73,2a7,7,0,0,1-.73,1.55,1.16,1.16,0,0,1-1,.4,1.45,1.45,0,0,1-1-.43,1.31,1.31,0,0,1-.45-1,2.17,2.17,0,0,1,.1-0.65c0.07-.22.18-0.53,0.34-0.93l3.91-9.93,0.4-1a5.23,5.23,0,0,1,.5-1,2,2,0,0,1,.7-0.64,2.15,2.15,0,0,1,1.07-.24,2.18,2.18,0,0,1,1.08.24,2,2,0,0,1,.7.63,4.42,4.42,0,0,1,.45.83c0.12,0.29.28,0.69,0.46,1.18l4,9.87a5,5,0,0,1,.47,1.64,1.35,1.35,0,0,1-.44,1,1.45,1.45,0,0,1-1.07.44,1.41,1.41,0,0,1-.63-0.13,1.28,1.28,0,0,1-.44-0.36,3.24,3.24,0,0,1-.38-0.69ZM198.81,166h4.57l-2.3-6.31Z"/><path class="cls-14" d="M213.56,158.31v11.13h6.28a1.66,1.66,0,0,1,1.15.36,1.19,1.19,0,0,1,.4.92,1.16,1.16,0,0,1-.4.91,1.7,1.7,0,0,1-1.16.35h-7.48a2,2,0,0,1-1.45-.45,2,2,0,0,1-.44-1.45V158.31a2,2,0,0,1,.42-1.41,1.42,1.42,0,0,1,1.11-.47,1.48,1.48,0,0,1,1.13.46A2,2,0,0,1,213.56,158.31Z"/><path class="cls-14" d="M233.5,159.08h-7v3.76h6.42a1.52,1.52,0,0,1,1.06.32,1.08,1.08,0,0,1,.35.84,1.12,1.12,0,0,1-.35.85,1.49,1.49,0,0,1-1.06.33h-6.42v4.35h7.22a1.59,1.59,0,0,1,1.1.34,1.17,1.17,0,0,1,.37.9,1.14,1.14,0,0,1-.37.88,1.58,1.58,0,0,1-1.1.34h-8.41a1.62,1.62,0,0,1-1.9-1.9V158.59a2.6,2.6,0,0,1,.2-1.09,1.24,1.24,0,0,1,.62-0.61,2.6,2.6,0,0,1,1.08-.19h8.17a1.57,1.57,0,0,1,1.1.33,1.1,1.1,0,0,1,.36.86,1.12,1.12,0,0,1-.36.87A1.58,1.58,0,0,1,233.5,159.08Z"/><path class="cls-15" d="M57.78,198.85l250.05,62.33a7.29,7.29,0,0,1-1.77,14.37H57.78v-76.7Zm10.78,13.8v52.12H241.34a4.46,4.46,0,0,0,1.08-8.78Z"/><path class="cls-14" d="M19.36,31.73h14A20.45,20.45,0,0,1,53.74,52.17V268.88a9.44,9.44,0,1,0,18.87,0V232.21a21.07,21.07,0,0,1,21.07-21.07H318c36.09,0,40.13-29.69,61-83.81a19.68,19.68,0,0,0-16.54-23.88L72.61,64.17v-12a39.34,39.34,0,0,0-39.3-39.3h-14A9.44,9.44,0,1,0,19.36,31.73ZM93.52,200.35a20.91,20.91,0,0,1-20.91-20.91V99A20.92,20.92,0,0,1,96.33,78.26l264.74,35.88a8.89,8.89,0,0,1,7.48,10.8C347,180.8,344.5,200.35,318,200.35H93.52Z"/><circle class="cls-16" cx="307.96" cy="268.49" r="31.1"/><circle class="cls-16" cx="63.18" cy="268.49" r="31.1"/><circle class="cls-15" cx="307.96" cy="268.49" r="14.37"/><circle class="cls-15" cx="63.18" cy="268.49" r="14.37"/><circle class="cls-16" cx="19.36" cy="19.36" r="19.36"/></g></g></svg>