<svg id="Layer_1" data-name="Layer 1" xmlns="http://www.w3.org/2000/svg" viewBox="0 0 1302.4 575.03"><defs><style>.cls-1{fill:#19586b;}.cls-2{fill:none;}</style></defs><title>characters1</title><polygon class="cls-1" points="1106.8 517.9 1124.1 527 1132.5 527 1132.5 531.9 1130.5 533.9 1106.8 533.9 1098.1 525.9 1101.6 517.9 1106.8 517.9"/><path class="cls-1" d="M1056,296.5s-11.2,47.1-2.5,93.6c0,0-26.7,11-18.4,104.7,0,0,2.1,9.8-7,24.9l8.7,2.8,58.3-212.4Z"/><path class="cls-1" d="M1095,322.5l-2.5,204.4h21.1s-14-11.6-10.5-33.9,28.3-84.5,3.5-115.4l16.2-61.5Z"/><path class="cls-1" d="M1063.1,72.6c0.4,0.4,1.1,20-1.7,34.1,0,0-8.6,29.1,20.7,37.2l4-14.2,2.1-41.5L1087.5,71l-0.7-11.1-14.1-1.7-6.7,4Z"/><path class="cls-1" d="M1110.4,71.1c-0.4.5-1.1,21.8,1.7,37.2,0,0,8.6,31.7-20.7,40.5l-4-15.5-2.1-45.2,0.7-18.8,0.7-12.2,14.2-1.8,6.7,4.3Z"/><path class="cls-1" d="M1072.6,85.1s11.2,10.8,3.4,35.7h10.7V80.9Z"/><path class="cls-1" d="M1100.3,85.1s-11.2,10.8-3.4,35.7h-10.7V80.9Z"/><path class="cls-1" d="M1076.7,92.6s11.9,23-15.5,34l6.1,70.5h20.2V89Z"/><path class="cls-1" d="M1095.8,92.6s-11.9,23,15.5,34l-6.1,70.5H1085V89Z"/><path class="cls-1" d="M1064.9,68.1l2.6,13.7s4.6,17.6,20.8,20.2l2.1-63C1090.4,39.1,1059.3,34.9,1064.9,68.1Z"/><path class="cls-1" d="M1111.7,68.1l-2.6,13.7s-4.6,17.6-20.8,20.2l-2.1-63C1086.2,39.1,1117.2,34.9,1111.7,68.1Z"/><circle class="cls-1" cx="1078.8" cy="69.6" r="2.7"/><path class="cls-1" d="M1083.4,69.6a7.35,7.35,0,0,0-9.3,0s5.5-7.9,10.3,0"/><path class="cls-1" d="M1071.2,62.9l3.7-2,8.8,2,0.7,2.1-9.3-2.9S1073.9,61.7,1071.2,62.9Z"/><circle class="cls-1" cx="1098" cy="69.9" r="2.7"/><path class="cls-1" d="M1093.4,69.9a7.35,7.35,0,0,1,9.3,0s-5.5-7.9-10.3,0"/><path class="cls-1" d="M1105.5,63.1l-3.7-2-8.8,2-0.7,2.1,9.3-2.9A8.61,8.61,0,0,1,1105.5,63.1Z"/><path class="cls-1" d="M1066.5,70v7.4s-16.3-42.7,22.5-45l-0.7,13.9C1088.3,46.2,1061.9,34.2,1066.5,70Z"/><path class="cls-1" d="M1110,70v7.4s16.3-42.7-22.5-45l0.7,13.9C1088.2,46.2,1114.6,34.2,1110,70Z"/><path class="cls-1" d="M1088.2,46.2s-26.1-8.9-20.8,23.4c0,0,4,74.3,14.7,82,0,0-23-.2-21.8-44.7V52.5s1.6-20.1,28.6-20.1Z"/><path class="cls-1" d="M1090.6,45.4s16-4.9,17,11.7c0.7,12.6-3.4,56.1-3.4,56.1l8.1,3.6,0.9-53.1C1113.3,63.7,1116.8,33.8,1090.6,45.4Z"/><rect class="cls-1" x="1063.3" y="114.5" width="44.2" height="11.6"/><polygon class="cls-1" points="1063.3 126.1 1040 143.7 1057.7 265.3 1087.9 265.7 1088.1 120.6 1063.3 126.1"/><polygon class="cls-1" points="1112.5 125.7 1136.3 139.1 1120.3 261.2 1078.3 265 1087.8 120.3 1112.5 125.7"/><polygon class="cls-1" points="1051.1 270.6 1124.7 270.6 1169.9 358.3 1008.3 359.6 1051.1 270.6"/><rect class="cls-1" x="1086.4" y="65" width="3.4" height="13"/><path class="cls-1" d="M1079.2,67.5s-5.4,4.8-7.4,0c0,0,1.6,1.7,3.3.6,0,0-.6.5-1-1.3,0,0,2,1.6,2.6,1S1077.9,66.1,1079.2,67.5Z"/><path class="cls-1" d="M1098,67.8s5.4,4.8,7.4,0c0,0-1.6,1.7-3.3.6,0,0,.6.5,1-1.3,0,0-2,1.6-2.6,1S1099.3,66.4,1098,67.8Z"/><path class="cls-1" d="M1087.7,84.7h8.9s-1.3,4.9-8.5,4.7c-7.2.2-8.5-4.7-8.5-4.7h8.1Z"/><path class="cls-1" d="M1087.9,91.6h4.5s-0.7,2.5-4.3,2.4c-3.6.1-4.3-2.4-4.3-2.4h4.1Z"/><polygon class="cls-1" points="1108.3 124.2 1075.8 124.2 1108.3 118.4 1108.3 124.2"/><path class="cls-1" d="M1008.3,359.6s82.6,33.2,161.6-1.3l-55-33.1h-68.2Z"/><rect class="cls-1" x="1050.4" y="254.3" width="77.4" height="18.1"/><path class="cls-1" d="M1031.6,512.9s-14,21.5-8.8,39.2c0,0,17.7,10.8,17.7-6.4l1.8-43.9Z"/><rect class="cls-1" x="1077.54" y="106.32" width="3.3" height="3.3" transform="translate(239.74 794.73) rotate(-45)"/><rect class="cls-1" x="1082.24" y="106.32" width="3.3" height="3.3" transform="translate(241.12 798.05) rotate(-45)"/><rect class="cls-1" x="1086.94" y="106.32" width="3.3" height="3.3" transform="translate(242.5 801.37) rotate(-45)"/><rect class="cls-1" x="1091.64" y="106.32" width="3.3" height="3.3" transform="translate(243.87 804.7) rotate(-45)"/><path class="cls-1" d="M1121.6,255h-65a6.23,6.23,0,0,1-6.2-6.2h0a6.23,6.23,0,0,1,6.2-6.2h65a6.23,6.23,0,0,1,6.2,6.2h0A6.23,6.23,0,0,1,1121.6,255Z"/><path class="cls-1" d="M1022.7,534.9s-1.8,13.3,13.5,11.8c0,0,4.5-1.5,4.6-5.9,0,0,3.7,12.6-7.5,15.8S1016.8,547.1,1022.7,534.9Z"/><path class="cls-1" d="M1092.6,520.7V527s-0.5,6.3,4.5,7.9h37.3s5.9-7.1-1.8-10.5l-9.7,7C1122.8,531.4,1099.3,531.7,1092.6,520.7Z"/><path class="cls-1" d="M1104.3,113.2v10.7l9,2.2s2.6-15.4-1.9-18.2Z"/><path class="cls-1" d="M1078.3,84.7s4.2,0.1,6.1-2.5,5.7-.9,4.2,2.5h-10.3Z"/><path class="cls-1" d="M1098.3,84.7s-4.2.1-6.1-2.5-5.7-.9-4.2,2.5h10.3Z"/><rect class="cls-1" x="1050.4" y="259" width="77.4" height="8.2"/><path class="cls-1" d="M1089.1,273.1l-3.4,101s22.1-.7,26.4-1.2Z"/><polygon class="cls-1" points="1100.5 274.1 1128 370.8 1142.2 367.8 1100.5 274.1"/><path class="cls-1" d="M1078.8,273.1l-11.7,99.7s-13.9-1.8-15.1-2l1.1,0.2Z"/><polygon class="cls-1" points="1040 143.7 1032.9 220.1 1019.5 274.7 1037.2 274.7 1050.3 215 1040 143.7"/><polygon class="cls-1" points="1135.7 143.1 1142.8 219.4 1156.2 274.1 1138.5 274.1 1125.4 214.3 1135.7 143.1"/><path class="cls-1" d="M1142.3,274.1l6.8,12h28.6s-2.1-7.9-22.8-7.9v-4.4l-14.9.3"/><path class="cls-1" d="M1087.8,38.9s-20.8-3.8-23.6,13.2V132a31.56,31.56,0,0,1-3.8-19.3V52.5S1061,28.2,1087.8,38.9Z"/><path class="cls-1" d="M1086.9,38.9s20.8-3.8,23.6,13.2V132a31.56,31.56,0,0,0,3.8-19.3V52.5C1114.2,52.5,1113.7,28.2,1086.9,38.9Z"/><rect class="cls-1" x="1208.7" y="429.7" width="23.7" height="82.7"/><rect class="cls-1" x="1145.7" y="417.7" width="20" height="82.7"/><path class="cls-1" d="M1243,399.4l-9.4-129.8-45.8-22.3v23L1204.2,448c0,16.3,3.4,23.3,3.4,23.3v8.9h26.3V469.7a42.1,42.1,0,0,0,15.6-33.1Z"/><path class="cls-1" d="M1138.3,270.7c0,4.9-7.9,169.7-7.9,169.7s-5.8,19.2,10.7,26.2v10.5h26.3v-8.9s5.7-2.2,8.4-19.4l11.3-181.6v-23h-51Z"/><rect class="cls-1" x="1166" y="244.2" width="61.1" height="118"/><polygon class="cls-1" points="1187.2 244.2 1187.2 269.6 1196.6 269.6 1196.6 244.2 1187.2 244.2"/><polygon class="cls-1" points="1218.1 103.6 1251.4 122.9 1247.8 150.2 1228.4 145.3 1214.9 136.3 1213.7 110.8 1218.1 103.6"/><polygon class="cls-1" points="1164.4 55.1 1160.9 76.5 1161.8 81.7 1157.6 82.9 1153.9 89.5 1146.4 91.2 1152.3 116.7 1185.9 116.7 1185.6 77.9 1182.5 54.3 1178.5 38.9 1164.4 55.1"/><polygon class="cls-1" points="1211.3 45.8 1217.2 54.4 1215.8 74.7 1219.7 79.9 1227.7 88.7 1241.2 117 1226.7 116.7 1193 116.7 1193.4 77.9 1196.5 54.3 1197.8 44.1 1211.3 45.8"/><rect class="cls-1" x="1172.3" y="67.5" width="31.7" height="46.7"/><path class="cls-1" d="M1168.2,505.6c-0.1.6-1.2,34.6-1.2,34.6s0-6.2-1.5-.6-11.2,7.3-11.2,7.3l-20.4-13.5s11.2-7.9,10.5-26"/><path class="cls-1" d="M1158.3,553.6l9.8-13.8V507.6s0-8.4-6.5-6v33.1l-3.3,7.3v11.6Z"/><path class="cls-1" d="M1158,100.3l14.3,26.2V270.7h-34L1122.6,123s-3.7-13.9,5.4-13.9S1158,100.3,1158,100.3Z"/><polygon class="cls-1" points="1203.9 101.4 1203.9 132 1225.6 103.9 1203.9 101.4"/><path class="cls-1" d="M1168,506.1s1.4-5.7-3.8-5.7l-2.5,4-22.3,1.2"/><path class="cls-1" d="M1208,509.9s-5.6-7.5-8,0v42.4h81.6s20.8-3.1,20.8-14.5-16.7-14.6-27.4-8.9l-35.1-19S1236.8,495,1208,509.9Z"/><polygon class="cls-1" points="1200 545.9 1298.9 545.9 1302.4 541.5 1200 541.5 1200 545.9"/><path class="cls-1" d="M1219.4,541.5l-12.8-10.1s0.7-18,12.8-18,15.7,6,15.7,6l17.8-2.3L1242,510s-6.5-23.2-33.6-1.5L1200,510v31.6h19.4v-0.1Z"/><path class="cls-1" d="M1139.4,512.6h26.1v-9.7a4.69,4.69,0,0,0-4.7-4.7h-16.7a4.69,4.69,0,0,0-4.7,4.7v9.7h0Z"/><path class="cls-1" d="M1176.3,194s16.2-9.7,19.5-23.4"/><rect class="cls-1" x="1138.8" y="466.6" width="28.9" height="12"/><rect class="cls-1" x="1206.6" y="471.2" width="28" height="10.5"/><path class="cls-1" d="M1159.1,538.6c0,6.6-7.7,11.9-17.1,11.9s-17.1-5.3-17.1-11.9,7.7-11.9,17.1-11.9S1159.1,532.1,1159.1,538.6Z"/><rect class="cls-1" x="1144.9" y="501.2" width="13.7" height="2.6"/><rect class="cls-1" x="1144.9" y="506.1" width="13.7" height="2.6"/><rect class="cls-1" x="1136" y="509.5" width="25.9" height="6.3"/><rect class="cls-1" x="1159.1" y="509.5" width="2.8" height="6.3"/><path class="cls-1" d="M1192.5,34.1h-19.6s-2.4-11.3,18.2-21.1c0,0,17.9,8.6,15,21.1h-13.6Z"/><path class="cls-1" d="M1198.6,31.1l5.4,3V45.3l3.6,1.6V56l2-2,0.5-19s-0.3-3.3-4.9-5.8l-5.6-2.8Z"/><path class="cls-1" d="M1204.4,30.8a5.72,5.72,0,0,0,1.3-5.7,6.83,6.83,0,0,1,1.9,9Z"/><polygon class="cls-1" points="1206.7 33.6 1189.7 34 1172.8 33.6 1171.4 57.8 1173.2 79 1183.7 92 1188.7 92 1190.8 92 1195.8 92 1206.3 79 1208.1 57.8 1206.7 33.6"/><polygon class="cls-1" points="1176.8 34.1 1176.8 45.7 1172.8 47.2 1172.8 56.3 1171.4 57.8 1170 34.1 1174 27.9 1179.3 28.5 1176.8 34.1"/><polygon class="cls-1" points="1192.1 52.6 1194 54.6 1202.9 53.3 1205 54.6 1203.1 51.8 1192.9 51.8 1192.1 52.6"/><circle class="cls-1" cx="1198.4" cy="55.4" r="1.8"/><path class="cls-1" d="M1195.6,54.4l6.9,0.7a5.18,5.18,0,0,0-6.6-.5"/><polygon class="cls-1" points="1187.9 52.6 1185.9 54.7 1177.1 53.4 1174.9 54.7 1176.8 51.9 1187.1 51.9 1187.9 52.6"/><circle class="cls-1" cx="1181.5" cy="55.5" r="1.8"/><path class="cls-1" d="M1184.4,54.4l-6.9.7a5.18,5.18,0,0,1,6.6-.5"/><rect class="cls-1" x="1187.9" y="53.2" width="3.3" height="16.2"/><ellipse class="cls-1" cx="1171.6" cy="59.2" rx="5.9" ry="8.3"/><ellipse class="cls-1" cx="1207.8" cy="60.8" rx="5.9" ry="8.3"/><path class="cls-1" d="M1184.2,74.7a36,36,0,0,1,3.6-3.3l2.2,1.1v2.1h-5.8v0.1Z"/><path class="cls-1" d="M1195.3,74.7a36,36,0,0,0-3.6-3.3l-2.2,1.1v2.1h5.8v0.1Z"/><polygon class="cls-1" points="1123.5 131.1 1121.9 109.8 1151.3 99.2 1171.4 132.8 1159.8 156.1 1146.4 162.6 1123.5 131.1"/><polygon class="cls-1" points="1156.5 553.6 1122.3 553.3 1125 537.3 1156.5 537.3 1156.5 553.6"/><path class="cls-1" d="M1208.5,508.4l-8.4,9.3C1200,517.7,1196.7,501.3,1208.5,508.4Z"/><path class="cls-1" d="M1214.6,541.5l24.3-7.6,16.8,8.5v-4.2s4.3-4.6,8.9,0l29.8,5.6h-79.8v-2.3h0Z"/><path class="cls-1" d="M1252.8,514.5l-8.7,9.2a1.27,1.27,0,0,1-1.8,0h0a1.27,1.27,0,0,1,0-1.8l8.7-9.2a1.27,1.27,0,0,1,1.8,0h0A1.37,1.37,0,0,1,1252.8,514.5Z"/><path class="cls-1" d="M1257.7,516.6l-8.7,9.2a1.27,1.27,0,0,1-1.8,0h0a1.27,1.27,0,0,1,0-1.8l8.7-9.2a1.27,1.27,0,0,1,1.8,0h0A1.37,1.37,0,0,1,1257.7,516.6Z"/><path class="cls-1" d="M1262.6,518.6l-8.7,9.2a1.27,1.27,0,0,1-1.8,0h0a1.27,1.27,0,0,1,0-1.8l8.7-9.2a1.27,1.27,0,0,1,1.8,0h0A1.27,1.27,0,0,1,1262.6,518.6Z"/><path class="cls-1" d="M1267.5,520.7l-8.7,9.2a1.27,1.27,0,0,1-1.8,0h0a1.27,1.27,0,0,1,0-1.8l8.7-9.2a1.27,1.27,0,0,1,1.8,0h0A1.27,1.27,0,0,1,1267.5,520.7Z"/><path class="cls-1" d="M1272.4,522.8l-8.7,9.2a1.27,1.27,0,0,1-1.8,0h0a1.27,1.27,0,0,1,0-1.8l8.7-9.2a1.27,1.27,0,0,1,1.8,0h0A1.27,1.27,0,0,1,1272.4,522.8Z"/><path class="cls-1" d="M1155.8,521h-13.9a0.9,0.9,0,0,1-.9-0.9h0a0.9,0.9,0,0,1,.9-0.9h13.9a0.9,0.9,0,0,1,.9.9h0A0.9,0.9,0,0,1,1155.8,521Z"/><path class="cls-1" d="M1155.8,518.3h-13.9a0.9,0.9,0,0,1-.9-0.9h0a0.9,0.9,0,0,1,.9-0.9h13.9a0.9,0.9,0,0,1,.9.9h0A0.9,0.9,0,0,1,1155.8,518.3Z"/><path class="cls-1" d="M1154.2,523.6h-13.9a0.9,0.9,0,0,1-.9-0.9h0a0.9,0.9,0,0,1,.9-0.9h13.9a0.9,0.9,0,0,1,.9.9h0A0.9,0.9,0,0,1,1154.2,523.6Z"/><path class="cls-1" d="M1152.7,526.5h-13.9a0.9,0.9,0,0,1-.9-0.9h0a0.9,0.9,0,0,1,.9-0.9h13.9a0.9,0.9,0,0,1,.9.9h0A0.9,0.9,0,0,1,1152.7,526.5Z"/><path class="cls-1" d="M1164.4,506.1l3.8-2.2,0.2,35.9-11.9,13.8v-5l6.9-5.8,3.8-9.1-2.8-3.1s3.7-9.9,2.7-15-2-5.1-2-5.1Z"/><path class="cls-1" d="M1204.2,128V269.7h29.4L1251,128s-11.5-12.7-35.5-21.5Z"/><path class="cls-1" d="M1229,177.6l1.7-.1,16.6-1.4,13.9,18h-8.3l-6-6s-6.9,9.3-17.9-1.8"/><path class="cls-1" d="M1251.4,122.9l-8.9,68.1-88.9,7.6s28.5,27,88.9,27C1242.5,225.7,1289.9,174.2,1251.4,122.9Z"/><path class="cls-1" d="M1122,111.3l7.1,66.3h100v8.7s-64.2,36.5-107,28.9C1122,215.2,1081.7,176.7,1122,111.3Z"/><path class="cls-1" d="M1212.9,177.6l-8.1,8.7-9.4-1.6,6.4,6.4-5.4,10.6s-39.3,21.1-74.5,13.6c0,0-41.8-37.4,0-105.8l16,67.3Z"/><path class="cls-1" d="M1109.3,135.3s-20.1,47.2,14.3,81.5h13.3Z"/><polygon class="cls-1" points="1122 109.4 1151.3 99.2 1172.1 128 1172.1 163.7 1134.7 163.1 1122 109.4"/><polygon class="cls-1" points="1134.7 163.1 1172.3 163.1 1172.3 171 1136.9 171 1134.7 163.1"/><polygon class="cls-1" points="1204 129.9 1204.2 172.5 1245.1 172.5 1251.4 122.9 1224.5 107.3 1204 129.9"/><polygon class="cls-1" points="1245.1 172.5 1204.1 172.5 1204.1 163.7 1246.6 163.7 1245.1 172.5"/><path class="cls-1" d="M1172.3,109.1s14,13.9,32.4,0l-5.1-7.4h-20.5Z"/><path class="cls-1" d="M1131,548.8s-1,4.5-4.3,4.5H1151s-3.8-2.1-3.8-4.5H1131Z"/><polygon class="cls-1" points="1137.2 259 1172.3 259 1172.3 270.7 1138.3 270.7 1137.2 259"/><path class="cls-1" d="M1158.1,214.8l1.7,31.6,6.7,5h-6.1v7.7h11.8l-0.1-48.4C1172.2,210.6,1159.1,215.8,1158.1,214.8Z"/><rect class="cls-1" x="1166" y="121.3" width="6.3" height="149.1"/><polygon class="cls-1" points="1147.4 100 1172.1 133.4 1172.1 100 1147.4 100"/><path class="cls-1" d="M1147.4,100s3.8-12.9,24.9-12.9v16.5Z"/><path class="cls-1" d="M1204.1,88.6s15.1,0.6,23.4,13.2l-6.4,1.9,6.4,2-23.6,24.2Z"/><polygon class="cls-1" points="1147.4 100 1172.1 133.4 1171.6 150.2 1147.4 100"/><polygon class="cls-1" points="1204 129.9 1204.4 143.1 1227.6 105.6 1204 129.9"/><path class="cls-1" d="M1153.6,100.3s16.2,12.3,18.7,20.9l-0.1-27.8C1172.1,93.5,1160.2,89.5,1153.6,100.3Z"/><polygon class="cls-1" points="1127.8 112.8 1147.4 107 1151.1 111.3 1129.5 117 1127.8 112.8"/><polygon class="cls-1" points="1247.4 123.5 1229.1 114.4 1224.8 117.9 1245 127.4 1247.4 123.5"/><path class="cls-1" d="M1224.4,193.2l-9.6,17.5h-6.2l2.6,5.6-2.6,6.4s27.6,5,33.9,3.1c0,0,23.9-25.8,23.9-63.1l-21.2,9.9-2.6,18.5Z"/><path class="cls-1" d="M1146.3,177.3h-5.9s-8.3-4.8-7.8-10.9l8,7.3s-6.5-7-6.5-11.6l7.6,7.9s-5.3-7-3.1-13.2l6.4,13.3Z"/><path class="cls-1" d="M993.6,281.5l4.2-2.9,9.5-7.6,21.6,6.3v6.3s-13,6.8-21.6-6.3l-7.1,4.9C998.4,283.8,994.9,283.5,993.6,281.5Z"/><circle class="cls-1" cx="1226.2" cy="518.6" r="1.1"/><path class="cls-1" d="M1222.4,523.8v3.6l6.7,5.8,0.4,0.8,3.7-1.4a3.38,3.38,0,0,0-2.9.3l-6-6.3V523C1224.3,523.1,1222.7,521.5,1222.4,523.8Z"/><path class="cls-1" d="M1223,521l1.3,1.7s-0.4.8-1.7,0.2C1222.7,522.9,1221.5,522,1223,521Z"/><polygon class="cls-1" points="1223.8 523.2 1225.5 519 1226.2 519 1224.4 524.6 1223.8 523.2"/><polygon class="cls-1" points="1222.5 523.1 1219.7 526.7 1218.7 526.7 1219 527.3 1220.2 527.3 1223 524.6 1222.5 523.1"/><polygon class="cls-1" points="1222.6 526.5 1219.9 529.7 1215.7 531.2 1217.4 531.2 1220.9 530.6 1224 528.3 1222.6 526.5"/><path class="cls-1" d="M1235.2,294.3s6.2,79.1,17.6,90.5-12.3,45.9-25.8,40.1-12.5-41.3-12.5-41.3V343.8Z"/><path class="cls-1" d="M1137.8,285.7s-6.9,81.9-19.7,93.7,13.7,47.4,28.7,41.5,13.9-42.7,13.9-42.7V337Z"/><rect class="cls-1" x="1018.9" y="267.2" width="21.2" height="7.8"/><path class="cls-1" d="M1004.4,281.4l8.8-3.9,13.6,1.7s0.9,6.5-9.6,3.8l-4.2-2.4S1010.3,284.9,1004.4,281.4Z"/><rect class="cls-1" x="1018.9" y="267.2" width="2" height="7.6"/><rect class="cls-1" x="1023.3" y="267.2" width="2" height="7.6"/><rect class="cls-1" x="1027.7" y="267.2" width="2" height="7.6"/><rect class="cls-1" x="1032.2" y="267.2" width="2" height="7.6"/><rect class="cls-1" x="1036.6" y="266.9" width="2" height="7.6"/><rect class="cls-1" x="1064.2" y="114.6" width="2.6" height="9.6"/><rect class="cls-1" x="1069.3" y="114.6" width="2.6" height="9.6"/><rect class="cls-1" x="1074.3" y="114.6" width="2.6" height="9.6"/><rect class="cls-1" x="1079.4" y="114.6" width="2.6" height="9.6"/><rect class="cls-1" x="1089.5" y="114.6" width="2.6" height="9.6"/><rect class="cls-1" x="1094.5" y="114.6" width="2.6" height="9.6"/><rect class="cls-1" x="1099.6" y="114.6" width="2.6" height="9.6"/><path class="cls-1" d="M1043.3,165.2s5.1,20.5,29.3,18.1l-25.9,6.1Z"/><path class="cls-1" d="M1081.9,255s22.4-2.2,24.7-37.2c0,0,2.5,26.8-11.6,36.9Z"/><rect class="cls-1" x="384.5" y="253.9" width="17.5" height="8.5"/><ellipse class="cls-1" cx="306.4" cy="269.9" rx="52.2" ry="66.1"/><rect class="cls-1" x="254.4" y="252" width="2.5" height="69.4"/><rect class="cls-1" x="258.2" y="253.8" width="2.5" height="69.4"/><rect class="cls-1" x="262" y="255.6" width="2.5" height="69.4"/><rect class="cls-1" x="265.8" y="257.4" width="2.5" height="69.4"/><rect class="cls-1" x="269.6" y="259.1" width="2.5" height="69.4"/><rect class="cls-1" x="273.4" y="260.9" width="2.5" height="69.4"/><rect class="cls-1" x="277.2" y="262.7" width="2.5" height="69.4"/><rect class="cls-1" x="281" y="264.5" width="2.5" height="69.4"/><rect class="cls-1" x="284.8" y="266.3" width="2.5" height="69.4"/><rect class="cls-1" x="288.6" y="268.1" width="2.5" height="69.4"/><rect class="cls-1" x="292.3" y="269.9" width="2.5" height="69.4"/><rect class="cls-1" x="296.1" y="271.6" width="2.5" height="69.4"/><rect class="cls-1" x="299.9" y="273.4" width="2.5" height="69.4"/><rect class="cls-1" x="303.7" y="275.2" width="2.5" height="69.4"/><rect class="cls-1" x="307.5" y="277" width="2.5" height="69.4"/><rect class="cls-1" x="311.3" y="278.8" width="2.5" height="69.4"/><rect class="cls-1" x="315.1" y="280.6" width="2.5" height="69.4"/><path class="cls-1" d="M360.3,530.9a53.55,53.55,0,0,1-19.9-37.5c-2.1-24.8-12.6,25.5-12.6,25.5l13.1,10.7Z"/><path class="cls-1" d="M384.5,195.1l-8.1,1.4-0.7.1-6.8,1.3-9.5,1.8-6.9,1.3-0.7.1-6.6,1.2-1.2.2-2,.4-1.7.3-2.2.4-2.1.4-3.1.6-0.9.2-9.8,1.9-1.7.3-2.4.5h0l-0.4.1-4,.8-0.3.1-2.1.4h-0.2l-6.3,1.2-1.7.3-1.5.3-0.3.1-0.6.1-1.8.4h0l-0.6.1-0.2-2.7-0.2-4.1V204l-0.4-5.8-0.7-10.8-0.3-4.7-0.1-1.6-0.3-5.4v-1l-1.4-23.6-1.1-18.6-0.4-6.2-0.3-4.8L292,106.7h0l-0.1-1.4-0.1-1.8L290.1,75s5.5-48,42.6-56.1c0,0,25,4.8,33.8,23.7,0,0,7,10.1-5,53.7L405.2,191,393,193.3l-17-17.6,8.5,18.9"/><path class="cls-1" d="M376.4,196.5l-0.7.1-12.5-4.8-0.2-.1-5.2-2-0.7-.3-1.6-.6-1.5-.6-0.5-.2-1.5-.6-1.3-.5-4.9-10.6-2.7-5.9-0.1-.2-1.6-3.5-2.1-4.4-2.6-5.5-2.3-4.9-4.3-9.2-0.4-.9-1.4-3-0.1-.2-1.1-2.4h0l-4-8.6-8.8-18.9L310,99.4l-0.3-.5,2.6-6.6,5.4-13.9,0.1-.3,1.9-4.9,4.8-12.5,1-2.6,1.2-3.2,2.1-5.3,0.7-1.8a20.24,20.24,0,0,0,.4,2.6c0.2,1.2.4,2.4,0.6,3.5,0.4,1.8.8,3.6,1.2,5.3,0.1,0.5.3,1.1,0.4,1.6q0.6,2,1.2,3.6c0.1,0.2.1,0.4,0.2,0.6v0.2a0.2,0.2,0,0,0,.1.2c0.1,0.3.2,0.5,0.3,0.8,0.4,1,.8,2.1,1.2,3A62.68,62.68,0,0,0,341,79.9c0.6,0.8,1.1,1.6,1.7,2.3a10.59,10.59,0,0,0,1,1.2h0a41.21,41.21,0,0,0,2.8,3.1c0.7,0.7,1.4,1.4,2.1,2l0.2,0.2c6.8,6,12.6,7.6,12.6,7.6L405.1,191l-12.2,2.3-17-17.6,8.5,18.9"/><path class="cls-1" d="M317.2,103.2s22.2,20.9,24.9,51.7l1.8,17.5,23.2,23.5L383.2,213l-15.6-38.1-17-40.4a42.62,42.62,0,0,0-7.9-12.2l-23.4-25Z"/><rect class="cls-1" x="365" y="213" width="2.4" height="116.6"/><rect class="cls-1" x="361.4" y="216" width="2.4" height="116.6"/><rect class="cls-1" x="357.7" y="219" width="2.4" height="116.6"/><rect class="cls-1" x="354.1" y="222" width="2.4" height="116.6"/><rect class="cls-1" x="350.5" y="225" width="2.4" height="116.6"/><rect class="cls-1" x="346.9" y="228" width="2.4" height="116.6"/><rect class="cls-1" x="343.3" y="231" width="2.4" height="116.6"/><rect class="cls-1" x="339.6" y="234" width="2.4" height="116.6"/><rect class="cls-1" x="336" y="237" width="2.4" height="116.6"/><rect class="cls-1" x="332.4" y="240" width="2.4" height="116.6"/><rect class="cls-1" x="328.8" y="243" width="2.4" height="116.6"/><rect class="cls-1" x="325.2" y="246" width="2.4" height="116.6"/><rect class="cls-1" x="321.6" y="249" width="2.4" height="116.6"/><rect class="cls-1" x="317.9" y="252" width="2.4" height="116.6"/><rect class="cls-1" x="314.3" y="255" width="2.4" height="116.6"/><rect class="cls-1" x="310.7" y="258" width="2.4" height="116.6"/><rect class="cls-1" x="307.1" y="261" width="2.4" height="116.6"/><polygon class="cls-1" points="367.6 255.6 311.3 282.6 311.3 158 367.6 206.8 367.6 255.6"/><path class="cls-1" d="M312.1,137.9l101.5,107-5.6,6.5-95-86.3c-9.5-8.6-12.2-19.9-5.6-23.1Z"/><rect class="cls-1" x="344.86" y="190.28" width="15.6" height="1.5" transform="translate(-19.7 340.04) rotate(-50.25)"/><rect class="cls-1" x="346.66" y="192.89" width="15.6" height="0.7" transform="translate(-20.77 342.2) rotate(-50.25)"/><rect class="cls-1" x="343.3" y="189.04" width="15.6" height="1.5" transform="translate(-19.32 338.4) rotate(-50.25)"/><rect class="cls-1" x="313.4" y="174.8" width="30.6" height="64.4"/><path class="cls-1" d="M327.2,233.2s-51.9,26.4-24,121.8c0,0-39.4,35.1-23.2,125.4,0,0-2.2,24.5-14.3,28.3l15.5,9.4L338.8,366Z"/><polygon class="cls-1" points="305.4 88.3 319.9 97.1 334.9 128.8 332.3 229.3 283.2 229.3 289.2 109.4 305.4 88.3"/><line class="cls-2" x1="321.2" y1="536" x2="334.4" y2="518"/><polygon class="cls-1" points="319.9 97.1 300.2 101.9 311.3 60.9 335.1 60.9 319.9 97.1"/><path class="cls-1" d="M358.5,46.5L318.7,57.2c-1-2.5-2-5.8-4.9-5.8a6.74,6.74,0,0,0-6.8,6.8,6.86,6.86,0,0,0,6.3,6.8c1.1,8,5.1,20.8,18.7,27.8a12.11,12.11,0,0,0,12.2-.7C353.6,85.9,370.4,72.1,358.5,46.5Z"/><path class="cls-1" d="M318.5,55.9s28.8,14.5,46-15.7L334.8,23.9Z"/><line class="cls-2" x1="312.3" y1="55.6" x2="316.7" y2="58.8"/><line class="cls-2" x1="314.5" y1="57.2" x2="312.2" y2="60.3"/><path class="cls-1" d="M359.5,58.1S346.7,73,310.3,32"/><path class="cls-1" d="M307.4,82.6l3.9-1a14.49,14.49,0,0,0,.7-4.4l-4.6,5.4h0Z"/><path class="cls-1" d="M306.9,82.8l0.5-.1h0l4.6-5.4V77s-12.3,1.1-11.2,13.6l6.6-7.9Z"/><path class="cls-1" d="M307.4,82.6l-6.6,7.9v0.2s6.5-1.2,9.6-7l-4.9,1.2,4.9-1.2c0.3-.6.6-1.4,0.9-2.1Z"/><path class="cls-1" d="M298.8,102.7s0.5,12.5,13.2,11.9C312.1,114.6,310.7,103.3,298.8,102.7Z"/><line class="cls-2" x1="298.8" y1="102.7" x2="312.1" y2="114.6"/><line class="cls-2" x1="306.1" y1="105" x2="306.6" y2="109.6"/><line class="cls-2" x1="304.1" y1="104.5" x2="304.4" y2="108.1"/><path class="cls-1" d="M283.2,228l7.6,52.1,35.7,69.8,4.2,127.3h18.7V245.1a17,17,0,0,0-17-17H283.2V228Z"/><path class="cls-1" d="M305.7,123.5s27.5,25.8,29.2,4.7l6,8.3s11,5.8,5.2,18.1L344.4,248l-40-4.4Z"/><polygon class="cls-1" points="348.6 289.7 348.6 304.4 296.7 304.4 297.6 294.9 297.6 296.7 298.5 289.7 348.6 289.7"/><polygon class="cls-1" points="348.6 325.6 348.6 343.6 296.7 343.6 297.6 334.1 297.6 334.2 298.5 325.6 348.6 325.6"/><polygon class="cls-1" points="348.6 368.1 348.6 387.6 296.7 387.6 297.6 376.2 297.6 376.5 298.5 368.1 348.6 368.1"/><path class="cls-1" d="M366.7,527l-6.4,3.9-18.1-15.4L328.6,352.4,285.3,230.5s-41.5,39.2,15.9,120.4c0,0-23.9,40.9,20.7,121,0,0,6.3,28-3.5,46.1l-3.7,4.8c-1.4,2.6.5,6.7,3.4,6.8l40,6.6,10.6-1.7C372.1,533.2,366.7,527,366.7,527Z"/><polygon class="cls-1" points="305.7 123.5 291.9 121.5 307 181.7 344.6 181.5 340.3 162.7 321.9 158.3 305.7 123.5"/><path class="cls-1" d="M321.9,472H252.1l7.5-46.2,2.9-18,3.6-22.1,2.9-18,3.6-22.1,2.9-18,2.6-16s-1-1.8-2.4-5.1a109.33,109.33,0,0,1-5.8-18c-3.8-17.3-4.3-41.7,12.9-63.9l15.3,31.2a103.91,103.91,0,0,0-9.2,32.7,83.11,83.11,0,0,0-.1,18,63.56,63.56,0,0,0,5.8,21,61.82,61.82,0,0,0,12.7,18,0.38,0.38,0,0,0,.2.2s-5,7.4-7.9,21.9a101.49,101.49,0,0,0-1.9,18,137.37,137.37,0,0,0,1.5,22.1,153.22,153.22,0,0,0,3.8,18C306.7,439.6,312.7,455,321.9,472Z"/><path class="cls-1" d="M276.2,135.7c0.4-34.5,12.8-28.8,12.8-28.8l13.7-16.6,18,45.6-0.3,142.6-21.5.4V131.7Z"/><ellipse class="cls-1" cx="289.59" cy="196.19" rx="11.2" ry="11.4" transform="matrix(0.01, -1, 1, 0.01, 90.01, 483.46)"/><ellipse class="cls-1" cx="296.69" cy="186.99" rx="11.2" ry="11.4" transform="translate(106.22 481.46) rotate(-89.33)"/><rect class="cls-1" x="308.2" y="531.4" width="19.5" height="1.6"/><path class="cls-1" d="M307.2,344.5H272.6l2.9-18h19A67.41,67.41,0,0,0,307.2,344.5Z"/><path class="cls-1" d="M299.5,366.5a101.49,101.49,0,0,0-1.9,18H266.1l2.9-18h30.5Z"/><path class="cls-1" d="M288.8,305.4H275.7a109.33,109.33,0,0,1-5.8-18h18.9A90.15,90.15,0,0,0,288.8,305.4Z"/><circle class="cls-1" cx="340" cy="146.8" r="10.7"/><path class="cls-1" d="M295.7,95.6s19.6,40.5,34.7,41.7c0,0,5.8.7,5-6.3"/><polyline class="cls-1" points="329.3 114.6 328.2 123.5 298.8 92.8"/><polygon class="cls-1" points="322.8 259.8 325 249 322.8 249.5 320.6 260.4 322.8 259.8"/><rect class="cls-1" x="326.6" y="120.49" width="2.7" height="3.4" transform="translate(-19.37 79.17) rotate(-13.37)"/><ellipse class="cls-1" cx="329.32" cy="125.68" rx="2.6" ry="4" transform="translate(-22.65 106.61) rotate(-17.79)"/><circle class="cls-1" cx="311.1" cy="65.6" r="4.5"/><polygon class="cls-1" points="328 138.8 341.6 138.8 342.8 151.6 328 138.8"/><path class="cls-1" d="M341.3,147.8a5.35,5.35,0,0,1,1.3,3.3v10.4"/><path class="cls-1" d="M338.1,143.8a5.35,5.35,0,0,1,1.3,3.3v10.4"/><path class="cls-1" d="M335,139.8a5.35,5.35,0,0,1,1.3,3.3v10.4"/><polygon class="cls-1" points="266.1 470.8 277.8 414 277.8 470.8 266.1 470.8"/><path class="cls-1" d="M311.6,529.5s-4.1-10.3,8.4-16.2l15.3,17.5-8.5-1.4H311.6v0.1Z"/><rect class="cls-1" x="252.38" y="513" width="6.3" height="18.5" transform="translate(-321.03 597.22) rotate(-71.34)"/><polygon class="cls-1" points="265.3 522.2 291.5 537.9 304.8 542.4 305.5 540.3 292.6 536 265.8 520.7 265.3 522.2"/><polygon class="cls-1" points="265.7 520.9 291.9 536.6 305.2 541.1 305.9 539 293.1 534.7 266.2 519.4 265.7 520.9"/><rect class="cls-1" x="254.09" y="509.95" width="5" height="18.4" transform="translate(-319.36 579.4) rotate(-69.67)"/><line class="cls-2" x1="298.9" y1="370" x2="329.2" y2="362.5"/><line class="cls-2" x1="297.6" y1="374.4" x2="329.2" y2="366.3"/><polygon class="cls-1" points="350.6 259.9 367.6 250.5 367.4 258.2 350.6 267.9 350.6 259.9"/><polygon class="cls-1" points="350.7 261.9 367.8 252.5 367.6 260.2 350.7 269.9 350.7 261.9"/><polygon class="cls-1" points="350.7 263.7 367.8 254.3 367.6 262 350.7 271.7 350.7 263.7"/><rect class="cls-1" x="318" y="240.2" width="1.8" height="86.8"/><rect class="cls-1" x="315.3" y="240.2" width="1.8" height="86.8"/><rect class="cls-1" x="312.6" y="240.2" width="1.8" height="86.8"/><rect class="cls-1" x="309.9" y="240.2" width="1.8" height="86.8"/><rect class="cls-1" x="307.2" y="240.2" width="1.8" height="86.8"/><rect class="cls-1" x="304.6" y="240.2" width="1.8" height="86.8"/><rect class="cls-1" x="301.9" y="240.2" width="1.8" height="86.8"/><rect class="cls-1" x="299.2" y="240.2" width="1.8" height="86.8"/><polygon class="cls-1" points="300.7 193.7 300.6 235.9 277.3 205 275.5 128.8 300.7 193.7"/><path class="cls-1" d="M314.5,71.8s5.4,15,17.5,20.9a11.65,11.65,0,0,0,11.3-.5c6.4-4,16.7-12,17.3-22,0.9-14.5-19.1,10-19.1,10Z"/><path class="cls-1" d="M357.3,39.7s-4.4,17.1,8.4,24.5l2.5-10.3-4-8.9Z"/><path class="cls-1" d="M332.9,67.8a11.63,11.63,0,0,0,8.7,2.8s-1.3-5.9-6.5-4.2c0,0-1,.2-0.9-1.2a1.35,1.35,0,0,0,.1,1.4,1.53,1.53,0,0,1-.8-1.6,1.81,1.81,0,0,0,.1,1.9s-1.4-.3-1.4-1.4C332.1,65.6,331.7,67.6,332.9,67.8Z"/><path class="cls-1" d="M363.2,75a11.68,11.68,0,0,1-9.1-.5s3.3-5,7.6-1.6c0,0,.9.5,1.2-0.8a1.23,1.23,0,0,1-.6,1.3,1.49,1.49,0,0,0,1.3-1.2,2.14,2.14,0,0,1-.7,1.8,1.74,1.74,0,0,0,1.8-.8C364.7,73.1,364.3,75.1,363.2,75Z"/><polygon class="cls-1" points="347.7 73.7 346.2 79.3 349.8 80.5 347.7 73.7"/><path class="cls-1" d="M332.7,62s1.7-2.2,5.4-.6l5.1,2.1,0.3,1.8-6.2-2.7A3.5,3.5,0,0,0,332.7,62Z"/><path class="cls-1" d="M366.2,70.7s-0.6-2.7-4.6-2.9l-5.5-.3L355,69l6.7,0.2A3.61,3.61,0,0,1,366.2,70.7Z"/><polygon class="cls-1" points="347.3 71.7 346.2 79.3 348 80 349.2 74.2 347.3 71.7"/><path class="cls-1" d="M340.7,82.5a3.81,3.81,0,0,0,2.1-.3,3.71,3.71,0,0,1,1.4-.4,2.29,2.29,0,0,1,2.1,1.3,1.5,1.5,0,0,1,.8,1.6Z"/><path class="cls-1" d="M348.7,85.1A1.06,1.06,0,0,1,348,84a6.9,6.9,0,0,0-.3-0.8,1,1,0,0,0-1.5,0,1.13,1.13,0,0,0-1,.8Z"/><path class="cls-1" d="M340.9,82.6a3.82,3.82,0,0,1,.9,1.5,3.17,3.17,0,0,0,2.7,2.5c1.9,0.3,3.9-.8,4-1.5Z"/><path class="cls-1" d="M346.9,82.9s1.5,0,1.8,2.3l-3.2-1.1Z"/><path class="cls-1" d="M359,44.2s-7.2,26.4-33.3,20.5c0,0,21.2,3.1,28.2-18.2Z"/><path class="cls-1" d="M277.3,205s-24.9,27.3-22.2,52.3l46.1-24,1.2-59.5Z"/><path class="cls-1" d="M296.9,201c0-.9-17,8.6-19-5.9,0,0,3.5-4.6,7.8-5.8,0,0,2.4.2,2.3-5.8a8.07,8.07,0,0,1,6.2-8.1c3.7-.8,9.1-0.3,16.4,4.3l-5.9-40s-2.4-35.4-18.1-33.7c0,0-9.2,3.2-10.4,17.7a21.81,21.81,0,0,1-.9,5.1c-2.3,8.3-8.7,35.5-1.9,63.8C281.7,226.5,296.8,210,296.9,201Z"/><path class="cls-1" d="M334.9,270.4l-5.2,16.8-10.6,3,0.8-17.1-3.9-5.2c-4.5-13.4.2-18.7,0.2-18.7-17.3-24.4-22.7-60.5-26.2-72.1,3.8-3.1,6.4-3.7,20.6,2.4L327,244.4A38,38,0,0,1,334.9,270.4Z"/><polygon class="cls-1" points="300.7 209.5 317.1 204.3 325.1 231.9 313.8 239.4 300.7 209.5"/><polygon class="cls-1" points="302.4 208.8 317.1 204.3 325.5 232.5 315.8 238.4 302.4 208.8"/><path class="cls-1" d="M324.8,235.6L312,242.2a3.61,3.61,0,0,1-4.8-1.5h0a3.61,3.61,0,0,1,1.5-4.8l12.8-6.6a3.61,3.61,0,0,1,4.8,1.5h0A3.58,3.58,0,0,1,324.8,235.6Z"/><path class="cls-1" d="M322.8,229.5L308,237.1a1.82,1.82,0,0,1-2.5-.8v-0.1a1.82,1.82,0,0,1,.8-2.5l14.8-7.6a1.82,1.82,0,0,1,2.5.8V227A1.85,1.85,0,0,1,322.8,229.5Z"/><path class="cls-1" d="M329.7,250.2l18.4,9s-4.7,4.7-9.8.9c0,0-8.8,2.4-11.4-3.3S329.7,250.2,329.7,250.2Z"/><polygon class="cls-1" points="324.1 289.9 327.2 275.1 324.1 275.8 321.1 290.8 324.1 289.9"/><path class="cls-1" d="M323.8,278a2.48,2.48,0,0,0,3.4,0"/><path class="cls-1" d="M319.4,282.9a2.48,2.48,0,0,0,3.4,0"/><path class="cls-1" d="M330.7,274.8a2.48,2.48,0,0,0,3.4,0"/><path class="cls-1" d="M323.4,279.8a2.48,2.48,0,0,0,3.4,0"/><line class="cls-2" x1="325.4" y1="278.4" x2="325.2" y2="279.2"/><line class="cls-2" x1="326.1" y1="278.4" x2="325.9" y2="279.2"/><path class="cls-1" d="M329.4,282.3l-2.9-.5a0.76,0.76,0,0,1-.6-0.8l1.4-8.7a0.76,0.76,0,0,1,.8-0.6l2.9,0.5a0.76,0.76,0,0,1,.6.8l-1.4,8.7A0.76,0.76,0,0,1,329.4,282.3Z"/><rect class="cls-1" x="324.46" y="275.24" width="8.7" height="3.6" transform="translate(2.33 556.83) rotate(-80.71)"/><rect class="cls-1" x="324.76" y="275.67" width="8" height="2.7" transform="translate(2.25 556.69) rotate(-80.7)"/><polygon class="cls-1" points="328 272.9 329.4 274.4 328.4 281 326.8 280.7 328 272.9"/><polygon class="cls-1" points="325.4 283.6 328.3 283.3 327.8 285.8 324.8 286.4 325.4 283.6"/><line class="cls-2" x1="314.5" y1="250.9" x2="321.7" y2="246.4"/><line class="cls-2" x1="313.8" y1="248.4" x2="327.2" y2="241.3"/><line class="cls-2" x1="324.6" y1="246" x2="328.4" y2="243.8"/><circle class="cls-1" cx="320.9" cy="247.5" r="1.5"/><circle class="cls-1" cx="325.5" cy="244.9" r="1.5"/><polygon class="cls-1" points="312.2 244.2 324.9 237.3 325.6 240 313.6 246.4 312.2 244.2"/><polygon class="cls-1" points="331.7 251.2 335.2 260.6 338.4 260.1 336.7 253.6 331.7 251.2"/><ellipse class="cls-1" cx="313.16" cy="212.1" rx="2.7" ry="4.1" transform="matrix(0.97, -0.26, 0.26, 0.97, -44.02, 87.69)"/><ellipse class="cls-1" cx="316.69" cy="221.41" rx="2.7" ry="4.1" transform="matrix(0.97, -0.26, 0.26, 0.97, -46.29, 88.91)"/><path class="cls-1" d="M279.3,515l18.2,17.6s6.2,0.6,6.2,5.7l-9.9-3.3-21.3-12.2-8.7-15.2,4-5.6,15.9-10.3Z"/><path class="cls-1" d="M297.5,532.6a41.41,41.41,0,0,1-12.2-33.7l-6.7,10.7,1,7.9s1.5,7.1,1.5,6S297.5,532.6,297.5,532.6Z"/><path class="cls-1" d="M271.5,212.2L271,249l-8.6,4.4V226C262.5,226,267.8,215.9,271.5,212.2Z"/><polygon class="cls-1" points="362.7 210.3 362.7 253 359.1 255.6 359.2 207.4 362.7 210.3"/><path class="cls-1" d="M297,111.6s5.7,63,9.8,66.5l-8.4-3s-9.8-53.9-6.5-68.3C291.9,106.8,296.8,109,297,111.6Z"/><path class="cls-1" d="M339.6,483.9c-4.3-2.2-14.7-3-15.9-3.1h-0.1"/><path class="cls-1" d="M318.9,467.9s11-3.4,19.2-1.5"/><path class="cls-1" d="M313.2,457.1s13.7-4.2,24-2"/><path class="cls-1" d="M312.2,452.3s13.6-7.8,24.4-7.2"/><path class="cls-1" d="M335.5,435.3c-12.3-1.4-27.2,3.8-29.6,4.7a0.77,0.77,0,0,1-.3.1"/><path class="cls-1" d="M302.7,430c4.4-3,18.3-11.9,31.3-13.7"/><path class="cls-1" d="M330.9,380c-14.5,2.1-30,13.1-32.3,14.8a1.24,1.24,0,0,0-.3.2"/><path class="cls-1" d="M332.9,403c-12.5-2.4-27.6,1.6-32.5,3-1,.3-1.6.5-1.6,0.5"/><path class="cls-1" d="M324.4,490.2a31.12,31.12,0,0,1,11.6-.7,28.75,28.75,0,0,1,4,.9h0.1"/><path class="cls-1" d="M342.3,503.7l-1-.3c-3.3-.8-6.9.2-10.2,1.8a44.08,44.08,0,0,0-10,7.1l-1.1,1.1"/><path class="cls-1" d="M347.2,515.5a12.44,12.44,0,0,0-4.3.6c-4.2,1.3-8,4.4-10.4,6.6a35.6,35.6,0,0,0-2.7,2.8"/><path class="cls-1" d="M354.7,535s3.9-10.4,7.9-5.4"/><path class="cls-1" d="M347.6,534.6s6-16.8,9-7.2"/><path class="cls-1" d="M349.5,519.1a11.76,11.76,0,0,0-1.9,1c-2.7,2-5.4,6-7.3,9-0.7,1.1-1.2,2.1-1.6,2.7a7.91,7.91,0,0,0-.5,1h0"/><circle class="cls-1" cx="316.5" cy="37.8" r="2"/><circle class="cls-1" cx="320.7" cy="42.9" r="2"/><rect class="cls-1" x="308.5" y="532.6" width="18.5" height="6.3"/><polygon class="cls-1" points="326.9 532.6 356.8 539.1 370.8 539.1 370.8 536.9 357.3 536.9 326.9 531 326.9 532.6"/><polygon class="cls-1" points="326.9 531.3 356.8 537.7 370.8 537.7 370.8 535.5 357.3 535.5 326.9 529.6 326.9 531.3"/><polygon class="cls-1" points="338.1 171 338.1 224.8 344.6 224.8 338.1 171"/><polygon class="cls-1" points="332 171.2 332 225 338.5 225 332 171.2"/><path class="cls-1" d="M299.1,93.7s23.3,44.5,36.3,39a4.46,4.46,0,0,0,1.9-3.6"/><path class="cls-1" d="M262.8,505.2s13.2-4.4,16.4-31.8l9.4,9.1-2.5,17.1-9.6,15.2Z"/><path class="cls-1" d="M276.7,480.2s15-4.4,20.8-1.6"/><path class="cls-1" d="M275.4,487a34.29,34.29,0,0,1,11.9,2.3,19.76,19.76,0,0,1,3.8,2,0.1,0.1,0,0,1,.1.1"/><path class="cls-1" d="M288.3,503.5a10.9,10.9,0,0,0-1.1-.6c-3.4-1.8-7.6-1.8-11.6-1.1a48,48,0,0,0-12.7,4.4c-1,.5-1.5.8-1.5,0.8"/><path class="cls-1" d="M290.2,515.5a13.84,13.84,0,0,0-4.5-.5c-4.6.2-9.2,2.3-12.2,4-2.1,1.2-3.5,2.2-3.5,2.2"/><path class="cls-1" d="M292.6,537.1s6.6-9.5,9.4-3.4"/><path class="cls-1" d="M287.1,533.8s8.1-11.5,8.6-3.6"/><path class="cls-1" d="M291.6,519.6a6.46,6.46,0,0,0-1.9.4c-2.9,1.1-6.3,3.9-8.7,6a18.46,18.46,0,0,0-2,2l-0.7.7h0"/><rect class="cls-1" x="308.5" y="529.6" width="18.4" height="2"/><path class="cls-1" d="M251.9,514.5s-0.5-11.1,13.1-12.6l8.9,21.5-7.6-4Z"/><path class="cls-1" d="M300.7,90.7a15.36,15.36,0,0,0,9.1-6.1l-4.5,1.1Z"/><path class="cls-1" d="M488.2,323.4l17.4-15.9,0.5-17.4L489.9,287l-11.7,7.6,1.7,12.3,6.9-1.8,0.4-7.6,7.5,0.3,0.6,9.1-9.1,11.2C486.2,318.3,485.3,320.3,488.2,323.4Z"/><path class="cls-1" d="M422,485v17.5s-20.8,39.3-44,39.3c0,0-11.4,1.1-9-6.3,0,0-2.3-20.5,26.3-35.5V485H422Z"/><path class="cls-1" d="M422,479.1v17.5s-20.8,39.3-44,39.3c0,0-11.4,1.1-9-6.3,0,0-2.3-20.5,26.3-35.5v-15H422Z"/><path class="cls-1" d="M371.7,523.1c-1.1,3.7-.6,5.7.6,6.9a5.43,5.43,0,0,0,3.6,1.4c15.5,0.4,25.8-13,25.8-13l-1.1-5s-11.4-9.9-23.4-2.6C377.2,510.7,372.8,519.1,371.7,523.1Z"/><path class="cls-1" d="M368.9,534.9s24.4,12.7,52.9-39.9"/><rect class="cls-1" x="386.4" y="514.6" width="2.1" height="1.5"/><rect class="cls-1" x="382.5" y="514.2" width="10" height="0.8"/><polygon class="cls-1" points="388.6 517.8 390.4 522.1 383.7 522.1 386.1 517.8 388.6 517.8"/><path class="cls-1" d="M416.7,488l-21.3.5v5.6l-18.2,14.2c11.3-7.7,24.7,3.1,24.7,3.1Z"/><polygon class="cls-1" points="388.6 517.8 388.2 516.1 386.8 516.1 386.1 517.8 388.6 517.8"/><path class="cls-1" d="M395.7,494.2a53.51,53.51,0,0,0-18.5,14.2s12.1-7.9,18.5-5,2.6-2.1,2.6-2.1Z"/><polygon class="cls-1" points="387.3 517.8 387.3 522.1 385.6 522.1 387.3 517.8"/><rect class="cls-1" x="388.8" y="514" width="2.7" height="1.2"/><rect class="cls-1" x="383.1" y="513.8" width="2.7" height="1.2"/><path class="cls-1" d="M444.6,493.4v17.5s20.8,39.3,44,39.3c0,0,11.4,1.1,9-6.3,0,0,2.3-20.5-26.3-35.5v-15H444.6Z"/><path class="cls-1" d="M444.6,487.6v17.5s20.8,39.3,44,39.3c0,0,11.4,1.1,9-6.3,0,0,2.3-20.5-26.3-35.5v-15H444.6Z"/><path class="cls-1" d="M494.9,531.5c1.1,3.7.6,5.7-.6,6.9a5.43,5.43,0,0,1-3.6,1.4c-15.5.4-25.8-13-25.8-13l1.1-5s11.4-9.9,23.4-2.6C489.4,519.2,493.8,527.6,494.9,531.5Z"/><path class="cls-1" d="M497.7,543.4s-24.4,12.7-52.9-39.9"/><path class="cls-1" d="M429.2,246.7v26.4l13.5,202.1h-4.5l1,9.6c-5.4,2.8-4.2,11.3-4.2,11.3l40.1,0.9,4.1-250.2h-50v-0.1Z"/><path class="cls-1" d="M386.7,243.8l5.2,246.5,39,2.9s1.8-12.2-8.2-12.2l13-190.3,1.1-46.9H386.7Z"/><circle class="cls-1" cx="431.1" cy="10.7" r="10.7"/><circle class="cls-1" cx="449.8" cy="99.6" r="14.9"/><polygon class="cls-1" points="415.3 71.2 447.6 71.2 447.6 149.2 415.1 153.7 415.3 71.2"/><path class="cls-1" d="M366,118.2s-33,48.1-21.3,94.9l8.5,4.3,3.3,9.9,7.7,4.2,5.6,26.3,8.4-.2,19.2-1.9-19.5-42.5Z"/><path class="cls-1" d="M497.1,120.4l-26.4-12L453.6,94s2.6,21.6-21.8,23.5V246.7l65.1,0.3Z"/><path class="cls-1" d="M365.6,118.7l36.1-16.5,7.9-8.2s-1.1,21.6,23.3,23.6l-0.3,130.9L373,246.9Z"/><rect class="cls-1" x="374.3" y="235.8" width="113.2" height="13.2"/><polygon class="cls-1" points="413.9 33.6 413.9 90.4 398.4 100.6 404.3 40.2 413.9 33.6"/><path class="cls-1" d="M407.7,45.3s-5.8-5.4-6.9,1.3c0,0-.9,11.4,9.2,14.9Z"/><path class="cls-1" d="M453.6,44.1s5.8-5.4,6.9,1.3c0,0,.9,11.4-9.2,14.9Z"/><circle class="cls-1" cx="404.2" cy="101.3" r="10.9"/><rect class="cls-1" x="478.1" y="523" width="2.1" height="1.5"/><rect class="cls-1" x="474.1" y="522.7" width="10" height="0.8"/><polygon class="cls-1" points="478 526.3 476.1 530.6 482.8 530.6 480.5 526.3 478 526.3"/><path class="cls-1" d="M449.9,496.5l21.3,0.5v5.6l18.2,14.2c-11.3-7.7-24.7,3.1-24.7,3.1Z"/><polygon class="cls-1" points="478 526.3 478.4 524.5 479.8 524.5 480.5 526.3 478 526.3"/><polygon class="cls-1" points="368.9 179.2 377.7 162 408.4 181.2 374.3 235.8 368.9 179.2"/><polygon class="cls-1" points="404 181.8 403 183 382.7 170 383.7 168.9 404 181.8"/><polygon class="cls-1" points="493.8 176.3 483.2 159.5 452.5 178.7 489.4 232.1 493.8 176.3"/><polygon class="cls-1" points="459.3 179.3 460.3 180.5 480.6 167.6 479.6 166.4 459.3 179.3"/><rect class="cls-1" x="470.9" y="235.5" width="16.6" height="8.2"/><rect class="cls-1" x="374.3" y="235.8" width="16.6" height="8.2"/><path class="cls-1" d="M446.6,22.5c-6.7-4.2-14.4-3.2-16.3-2.9-1.9-.3-9.6-1.3-16.3,2.9A48.54,48.54,0,0,0,407.4,55s4.6,22.9,16.2,30.3h13.5C448.7,77.8,453.3,55,453.3,55A49.6,49.6,0,0,0,446.6,22.5Z"/><path class="cls-1" d="M405.3,43.5l9-9.5s-3.7-5.9,2.7-5.9,13.9,5.3,13.9,5.3v-15s-14.4-1.6-18.1,2.8C412.9,21.3,405.3,30.6,405.3,43.5Z"/><path class="cls-1" d="M456,43.5L447.9,34s3.3-5.9-2.4-5.9-12.6,5.3-12.6,5.3v-15s13-1.6,16.3,2.9A41.4,41.4,0,0,1,456,43.5Z"/><path class="cls-1" d="M409.6,94l6.3-6.3,17,29.7S409.6,118.9,409.6,94Z"/><path class="cls-1" d="M456.6,95.7l-9.3-5.3-14,27.1C433.3,117.6,456.6,120.7,456.6,95.7Z"/><rect class="cls-1" x="378.7" y="248.5" width="103.6" height="10.8"/><rect class="cls-1" x="420.2" y="15.3" width="23.5" height="2.2"/><path class="cls-1" d="M496.4,120.4l-10,165.7,17.3-1L521,176C521.1,175.9,518.6,127.7,496.4,120.4Z"/><rect class="cls-1" x="486.4" y="277.3" width="26" height="12.8"/><path class="cls-1" d="M415.9,45.1c0.1-.1,5.4-2.7,5.4-2.7l7.8,2.7s-1.2,2.2-2.6,2.2-5.9-2.8-5.9-2.8Z"/><path class="cls-1" d="M417.8,50.7s4.3-5.2,8.1.9Z"/><path class="cls-1" d="M418.8,51.9l4.6,0.6S421.2,55.2,418.8,51.9Z"/><polygon class="cls-1" points="433.8 64.4 430.1 64.4 430.9 45.1 432.9 45.1 433.8 64.4"/><ellipse class="cls-1" cx="432" cy="63.6" rx="2.9" ry="1.9"/><path class="cls-1" d="M429.4,70.9a1.75,1.75,0,0,0,2,2c1.1,0,2-.3,2-2h-4Z"/><polygon class="cls-1" points="425.8 72.6 429.8 70.8 432.9 72.6 425.8 72.6"/><polygon class="cls-1" points="430.2 72.6 434.2 70.8 437.3 72.6 430.2 72.6"/><polygon class="cls-1" points="448.2 33.6 448.2 90.4 464.4 100.6 456.5 43.5 448.2 33.6"/><path class="cls-1" d="M438.9,30.7s9.5-4.3,9.5,13.3l4-7.2a11.88,11.88,0,0,0-3.2-8.6c-3.7-3.7-3.7-2.9-3.7-2.9h-4.2Z"/><path class="cls-1" d="M438.1,30.1s9.6-3.6,7.7,21c0,0-.5,12.5,1.4,12.5"/><circle class="cls-1" cx="379.1" cy="239.2" r="2.4"/><circle class="cls-1" cx="482.3" cy="238.5" r="2.4"/><path class="cls-1" d="M470.9,502.6a53.51,53.51,0,0,1,18.5,14.2s-12.1-7.9-18.5-5-2.6-2.1-2.6-2.1Z"/><polygon class="cls-1" points="479.2 526.3 479.2 530.6 480.9 530.6 479.2 526.3"/><rect class="cls-1" x="475.1" y="522.4" width="2.7" height="1.2"/><rect class="cls-1" x="480.8" y="522.2" width="2.7" height="1.2"/><path class="cls-1" d="M387,259.3l0.9,42s19.7,1.6,18.3-42.1Z"/><path class="cls-1" d="M459.3,259.3s2.2,38.2,19.1,42l0.9-42h-20Z"/><rect class="cls-1" x="434" y="117.1" width="3.1" height="118.8"/><circle class="cls-1" cx="440.2" cy="52.3" r="1.5"/><path class="cls-1" d="M436.7,52c0-.5,1.6-2.1,1.6-2.1s5.6,0.2,7.5,2.1h-9.1Z"/><polygon class="cls-1" points="433.6 45.6 436.1 48 446.4 48 448.8 49.2 444.5 43.5 436.4 45.6 433.6 45.6"/><path class="cls-1" d="M50.5,236.7S12.9,348.4,46.4,382c0,0,4.4,91.1,50.3,143.6l14.6-4.4S96,508.5,96,493.4s1.5-57.1-23.3-94.5l2.5-83.3Z"/><path class="cls-1" d="M63.4,354.1s0.7,25.3,5.8,37.4c0,0-12.8,83.6-12.8,106.2l-7.8,27.7v29.2H68.9l0.3-24.8V505s23.3-43,23.3-87.5L106.4,341Z"/><path class="cls-1" d="M86.1,137.5L50.3,170.7,44.2,379.3l69.2,0.1h6.4L110.6,269l3.5-86.1c-5.8-5.8,4.2-37.3,4.2-37.3Z"/><path class="cls-1" d="M51.3,140.9s-15.1,2.2-22.8,4.5c0,0-11.9.8-11.1,25.4v45.9s-5.5,17.3-.9,42.6l6.1,38.8-1.9,19.8,7.5,11.7,8.8,6,1.7-4.4-7.9-7.9,1.7-13.8,2,13.1h3.8l1.7-19s-5.4-7.1-9.1-9.1S29.1,281,29.1,281l4.5-57.6,4.1-32.2,14.9-23.3Z"/><path class="cls-1" d="M34.4,187.9l-1.9-7s11.4-18.7,2.7-37.1L54.1,140l4,38L42.7,205Z"/><path class="cls-1" d="M112,146.1v91.4s3.5,62.3,20.7,79.6l6.5,6.9v12.2l-4.9,11,6.9-2.4,4.9-18.7-8.5-18.7s-1.2-62.5-10.6-77.2l2-55.2C129.1,174.9,134.4,149.7,112,146.1Z"/><path class="cls-1" d="M80.4,502.6s11,24.8,2.7,45.4l3.7,6.3,18.5-20.4,6-12.7L90.8,506.7Z"/><ellipse class="cls-1" cx="75.74" cy="558.28" rx="5.7" ry="6.1" transform="matrix(0.83, -0.56, 0.56, 0.83, -300.92, 139.3)"/><polygon class="cls-1" points="81.7 544.9 88.1 540.6 94.7 523.2 105.2 516 110.7 524 101.9 540 93.3 549 83.2 552 81.7 544.9"/><path class="cls-1" d="M73.7,563.7s4.9,3.7,20.9-8l-11.4-10a3.19,3.19,0,0,1-3.9-1.4l-8,9.8Z"/><path class="cls-1" d="M81.1,547l5.7-19-1.8-.8-5.7,17.1-3.1,6.4s-3.2.7-2,1.9C74.2,552.7,76.9,554.5,81.1,547Z"/><rect class="cls-1" x="69.69" y="531.71" width="27.9" height="4.3" transform="translate(-456.44 516.03) rotate(-79.2)"/><rect class="cls-1" x="78.15" y="534.82" width="10.2" height="5.1" transform="translate(-459.81 509.36) rotate(-78.24)"/><polygon class="cls-1" points="42.9 183.3 31.1 144.2 61.7 137.5 69.1 187.9 42.9 183.3"/><path class="cls-1" d="M73.8,141.4l0.6,237.9H34.9l-6.9.1V293.2l6.3-110.4c5.8-5.8,8.9-37.3,8.9-37.3Z"/><rect class="cls-1" x="61.7" y="66.2" width="24.4" height="83.3"/><path class="cls-1" d="M61.7,137.5s2.1,10.6,15.5,11.9c0,0-3.7,5.9-16.2,3.6C61,153,49.2,146.4,61.7,137.5Z"/><path class="cls-1" d="M86.1,137.5S84,148.1,70.6,149.4c0,0,3.7,5.9,16.2,3.6C86.7,153,98.6,146.4,86.1,137.5Z"/><path class="cls-1" d="M87.5,93.1s3-.7,3.5,3.7,3.4,3,4,3c0,0,2.2.5,0.4,3s1,2.9,1.9,2.7,0.7,1.8-.6,1.4c0,0,2.4,1.4,2.2-2.2a1.88,1.88,0,0,0-2.5-.6s-0.9-.4.3-1.6,2.2-4.2-3.5-4.2c0,0-1.1.3-1.1-1.5s1.2-5-3.4-5.3C88.6,91.6,86.9,91.5,87.5,93.1Z"/><path class="cls-1" d="M49.6,89.9s-3-.7-3.5,3.7-3.4,3-4,3c0,0-2.2.5-.4,3s-1,2.9-1.9,2.7-0.7,1.8.6,1.4c0,0-2.4,1.4-2.2-2.2a1.88,1.88,0,0,1,2.5-.6s0.9-.4-0.3-1.6-2.2-4.2,3.5-4.2c0,0,1.1.3,1.1-1.5s-1.2-5,3.4-5.3C48.5,88.4,50.3,88.2,49.6,89.9Z"/><path class="cls-1" d="M42,77.9s0.4,17.2,2.6,19.3c0,0-4.6,15,20.3,28.4,4.9,2.6,5.3,1.2,9.5-2.3,9.2-7.8,23.9-22.9,20.8-38.8L94.8,68.7,88.6,53.2l-9.5-5.8L61,49.2S40.8,64,42,77.9Z"/><path class="cls-1" d="M85.1,62.6s3.8,2.9,1.9,9.8c0,0,9.3,5.6,6.3,27.6,0,0,18.4-40.5-10.6-50.9C82.7,49.1,79.5,57,85.1,62.6Z"/><path class="cls-1" d="M59.2,74.4s-15.6-.7-15.6,20.7a55.93,55.93,0,0,1-2.7-8.8C38.1,73.6,37.2,50.9,64,43.5c0,0,11.2-2.4,17.6,4.4a16.19,16.19,0,0,1,3.8,8C85.5,55.9,89.9,76.4,59.2,74.4Z"/><path class="cls-1" d="M56.4,69.7S42.8,69.1,41,86.3c-2.8-12.7-3.7-35.4,23.1-42.8,0,0,11.2-2.4,17.6,4.4a15.91,15.91,0,0,1,.9,3.3S87,71.7,56.4,69.7Z"/><circle class="cls-1" cx="75" cy="90.7" r="2.8"/><path class="cls-1" d="M81.9,91.2s-7.2-6-11.4,1.5C70.4,92.7,72.9,82.2,81.9,91.2Z"/><circle class="cls-1" cx="53.7" cy="91.4" r="2.8"/><path class="cls-1" d="M48.3,91.9s7.2-6,11.4,1.5C59.8,93.4,57.3,82.9,48.3,91.9Z"/><path class="cls-1" d="M48.3,91.9s-3.5,1.2-3.5-2.7c0,0.3,1.6,1.8,4.4.8,0,0,4.4-3.7,8.2-.8L57,90.3C57,90.4,52.9,87.3,48.3,91.9Z"/><ellipse class="cls-1" cx="64.7" cy="117.2" rx="2.6" ry="0.6"/><path class="cls-1" d="M81.5,78.8s-6-6.7-12.7,1.7l3.4-.3C72.3,80.2,74.2,74.6,81.5,78.8Z"/><path class="cls-1" d="M57.5,108a4.6,4.6,0,0,0,2.8-1.2c1-1.1,3.7-2.2,4.5,1.2H57.5Z"/><path class="cls-1" d="M70.3,107.9a3.94,3.94,0,0,1-2.4-1.2c-1-1.1-3.7-2.2-4.5,1.2h6.9Z"/><ellipse class="cls-1" cx="63.4" cy="101.6" rx="5.3" ry="2.2"/><path class="cls-1" d="M64.7,108H76.2s-1.7,6.4-11,6.1c-9.3.3-11-6.1-11-6.1H64.7Z"/><path class="cls-1" d="M81.9,91.2s3.5,1.2,3.5-2.7c0,0.3-1.6,1.8-4.4.8,0,0-4.4-3.7-8.2-.8l0.4,1.1C73.2,89.7,77.3,86.6,81.9,91.2Z"/><path class="cls-1" d="M79.9,88.6a2,2,0,0,0,2.6-1.4s0.3,2.2-1.3,2.9Z"/><path class="cls-1" d="M54.6,80.2S61,89.4,61,96.1v5.2h2.5V80.2H54.6Z"/><path class="cls-1" d="M72.3,80.2s-6.1,9.2-6.1,15.9v5.2H63.7V80.2h8.6Z"/><path class="cls-1" d="M70.4,89.4s3.2-7.4,10.5-1.9"/><path class="cls-1" d="M59.3,90.2s-3.2-7.4-10.5-1.9"/><path class="cls-1" d="M54.6,80.2l1.3,2.1s-2.8-3.1-9.3-1.8C46.7,80.4,51.3,77.2,54.6,80.2Z"/><path class="cls-1" d="M48.8,90.8s-2.4.2-2.4-3c0,0,1.6,2.8,3.8,2.4Z"/><circle class="cls-1" cx="94.1" cy="86" r="5.9"/><path class="cls-1" d="M48.6,525.4S36.3,565.1,55.5,569c0,0,27.4,7.2,13.7-43.6l-0.3,29.2H48.6V525.4Z"/><rect class="cls-1" x="47.1" y="523.9" width="23.7" height="3"/><rect class="cls-1" x="57.4" y="523.9" width="3.1" height="30.7"/><rect class="cls-1" x="64" y="522.3" width="6.9" height="4.6"/><path class="cls-1" d="M110.3,516s9.2,1.1,9.4,11.7l-7.9,9.2-7.4,5-0.9,5.4a9.24,9.24,0,0,1-3.8,6.1l-9.6,6.5a20.47,20.47,0,0,1-5.8,2.7c-3.8,1.1-9.6,2.1-10.6-.9-1.3-4.1-1.3-4.1,7.9-13.1,0,0,9.1,5.5,16.3-19C98.1,529.5,104.9,516.9,110.3,516Z"/><rect class="cls-1" x="92.61" y="512.02" width="3.4" height="27.9" transform="translate(-440.02 520.27) rotate(-79.22)"/><path class="cls-1" d="M41.7,166.8V144.7S29.1,157.8,41.7,166.8Z"/><path class="cls-1" d="M41.7,166.8V144.7S54.4,157.8,41.7,166.8Z"/><path class="cls-1" d="M41.7,197.1V175S29.1,188.1,41.7,197.1Z"/><path class="cls-1" d="M41.7,197.1V175S54.4,188.1,41.7,197.1Z"/><path class="cls-1" d="M41.7,227.4V205.3S29.1,218.4,41.7,227.4Z"/><path class="cls-1" d="M41.7,227.4V205.3S54.4,218.4,41.7,227.4Z"/><path class="cls-1" d="M41.7,257.7V235.6S29.1,248.7,41.7,257.7Z"/><path class="cls-1" d="M41.7,257.7V235.6S54.4,248.7,41.7,257.7Z"/><path class="cls-1" d="M41.7,288V265.9C41.7,265.8,29.1,279,41.7,288Z"/><path class="cls-1" d="M41.7,288V265.9C41.7,265.8,54.4,279,41.7,288Z"/><path class="cls-1" d="M41.7,318.3V296.2C41.7,296.1,29.1,309.2,41.7,318.3Z"/><path class="cls-1" d="M41.7,318.3V296.2C41.7,296.1,54.4,309.2,41.7,318.3Z"/><path class="cls-1" d="M55.6,181.9V159.8S42.9,172.9,55.6,181.9Z"/><path class="cls-1" d="M55.6,181.9V159.8S68.2,172.9,55.6,181.9Z"/><path class="cls-1" d="M55.6,212.2V190.1S42.9,203.2,55.6,212.2Z"/><path class="cls-1" d="M55.6,212.2V190.1S68.2,203.2,55.6,212.2Z"/><path class="cls-1" d="M55.6,242.5V220.4S42.9,233.5,55.6,242.5Z"/><path class="cls-1" d="M55.6,242.5V220.4S68.2,233.5,55.6,242.5Z"/><path class="cls-1" d="M55.6,272.8V250.7S42.9,263.8,55.6,272.8Z"/><path class="cls-1" d="M55.6,272.8V250.7S68.2,263.8,55.6,272.8Z"/><path class="cls-1" d="M55.6,303.1V281S42.9,294.1,55.6,303.1Z"/><path class="cls-1" d="M55.6,303.1V281S68.2,294.1,55.6,303.1Z"/><path class="cls-1" d="M55.6,333.4V311.3S42.9,324.4,55.6,333.4Z"/><path class="cls-1" d="M55.6,333.4V311.3S68.2,324.4,55.6,333.4Z"/><path class="cls-1" d="M71.3,174.4V152.2S58.7,165.3,71.3,174.4Z"/><path class="cls-1" d="M71.3,174.4V152.2S84,165.3,71.3,174.4Z"/><path class="cls-1" d="M71.3,204.7V182.6C71.3,182.5,58.7,195.6,71.3,204.7Z"/><path class="cls-1" d="M71.3,204.7V182.6C71.3,182.5,84,195.6,71.3,204.7Z"/><path class="cls-1" d="M71.3,234.9V212.8S58.7,225.9,71.3,234.9Z"/><path class="cls-1" d="M71.3,234.9V212.8S84,225.9,71.3,234.9Z"/><path class="cls-1" d="M71.3,265.2V243.1S58.7,256.2,71.3,265.2Z"/><path class="cls-1" d="M71.3,265.2V243.1S84,256.2,71.3,265.2Z"/><path class="cls-1" d="M71.3,295.5V273.4S58.7,286.5,71.3,295.5Z"/><path class="cls-1" d="M71.3,295.5V273.4S84,286.5,71.3,295.5Z"/><path class="cls-1" d="M71.3,325.8V303.7S58.7,316.8,71.3,325.8Z"/><path class="cls-1" d="M71.3,325.8V303.7S84,316.8,71.3,325.8Z"/><path class="cls-1" d="M85.2,189.5V167.4S72.5,180.5,85.2,189.5Z"/><path class="cls-1" d="M85.2,189.5V167.4S97.8,180.5,85.2,189.5Z"/><path class="cls-1" d="M85.2,219.8V197.7S72.5,210.8,85.2,219.8Z"/><path class="cls-1" d="M85.2,219.8V197.7S97.8,210.8,85.2,219.8Z"/><path class="cls-1" d="M85.2,250.1V228S72.5,241.1,85.2,250.1Z"/><path class="cls-1" d="M85.2,250.1V228S97.8,241.1,85.2,250.1Z"/><path class="cls-1" d="M85.2,280.4V258.3S72.5,271.4,85.2,280.4Z"/><path class="cls-1" d="M85.2,280.4V258.3S97.8,271.4,85.2,280.4Z"/><path class="cls-1" d="M85.2,310.7V288.6S72.5,301.7,85.2,310.7Z"/><path class="cls-1" d="M85.2,310.7V288.6S97.8,301.7,85.2,310.7Z"/><path class="cls-1" d="M85.2,341V318.9S72.5,332,85.2,341Z"/><path class="cls-1" d="M85.2,341V318.9S97.8,332,85.2,341Z"/><path class="cls-1" d="M101,181.9V159.8S88.3,172.9,101,181.9Z"/><path class="cls-1" d="M101,181.9V159.8S113.6,172.9,101,181.9Z"/><path class="cls-1" d="M101,212.2V190.1S88.3,203.2,101,212.2Z"/><path class="cls-1" d="M101,212.2V190.1S113.6,203.2,101,212.2Z"/><path class="cls-1" d="M101,242.5V220.4S88.3,233.5,101,242.5Z"/><path class="cls-1" d="M101,242.5V220.4S113.6,233.5,101,242.5Z"/><path class="cls-1" d="M101,272.8V250.7S88.3,263.8,101,272.8Z"/><path class="cls-1" d="M101,272.8V250.7S113.6,263.8,101,272.8Z"/><path class="cls-1" d="M101,303.1V281S88.3,294.1,101,303.1Z"/><path class="cls-1" d="M101,303.1V281S113.6,294.1,101,303.1Z"/><path class="cls-1" d="M101,333.4V311.3S88.3,324.4,101,333.4Z"/><path class="cls-1" d="M101,333.4V311.3S113.6,324.4,101,333.4Z"/><path class="cls-1" d="M54.3,383.1H1.6A1.58,1.58,0,0,1,0,381.5V341.2a1.58,1.58,0,0,1,1.6-1.6H54.4a1.58,1.58,0,0,1,1.6,1.6v40.3A1.73,1.73,0,0,1,54.3,383.1Z"/><path class="cls-1" d="M8.4,339.6V325.7a3.54,3.54,0,0,1,3.5-3.5H44.1a3.54,3.54,0,0,1,3.5,3.5v13.9"/><rect class="cls-1" x="19.8" y="356.6" width="12.7" height="7.2"/><rect class="cls-1" x="161.4" y="110.9" width="36" height="36.8"/><rect class="cls-1" x="175.9" y="120.4" width="6.9" height="12.8"/><rect class="cls-1" x="161.4" y="68.1" width="36" height="42.6"/><path class="cls-1" d="M145.4,541.1l-14.5,10.6s-20.8,2.8-19.4,16.4c0,0,8.9,9.4,27.5.8s12.7-12.4,36.5-13.9V539.2C175.4,539.2,153.9,545.2,145.4,541.1Z"/><polygon class="cls-1" points="159.9 566.7 149.7 564.6 154.8 558.2 161.1 558.2 159.9 566.7"/><path class="cls-1" d="M176.2,554.2v9l-16.3,3.5v-6.3s-6.6,2.5-10.2,5.5a19.52,19.52,0,0,1-2.3,1.7c-5,3-21.8,11.8-37.4,4.1v-2.2a1.47,1.47,0,0,1,2.2-1.3c5.2,2.9,19.6,7.3,44.1-10.8Z"/><path class="cls-1" d="M161.1,560.9a56.88,56.88,0,0,0-10.1,4.7s-14.7,11.8-31.6,9v-1.4s12.1,1.3,16.4-1.2,13.9-7.5,13.9-7.5l5.7-2.5,5.7-3.1,1.9,1.9Z"/><path class="cls-1" d="M175.4,549.9c-12.4-1-22.5,9-22.5,9h0c-2.9,0-6.7.4-9.5,2.3,0,0-10.7,7.1-18.4,7.2a8,8,0,0,1-4-1.1c-2-1.2-3.8-3.8-2.2-5.4,0,0-4.8,4-6.6.5,0,0-1.7,1.5-1.4,6.5a1,1,0,0,0,.6.9c2.4,1.4,12.5,6.2,27.5-.9,7-3.3,11.1-5.6,13.5-7h0c3.6-2.2,3.6-2.7,4.5-2.7h-0.3c7.3-3.2,18.7-4.2,18.7-4.2v-5.1h0.1Z"/><path class="cls-1" d="M175.4,541.7s-11.4,7.9-24.6,4.4l-12.9,8.2,2.2,2.2-4.6,3.5-7.1-7.7,18.2-11.8a4,4,0,0,1,5.5,1.1l0.6,0.8s14,1.3,21.2-4.7a1,1,0,0,1,1.6.8v3.2h-0.1Z"/><rect class="cls-1" x="143.23" y="542.7" width="1.2" height="4.6" transform="translate(-296.71 193.37) rotate(-36.62)"/><rect class="cls-1" x="141.32" y="543.76" width="1.2" height="4.6" transform="translate(-297.71 192.44) rotate(-36.62)"/><rect class="cls-1" x="139.66" y="545.01" width="1.2" height="4.6" transform="translate(-298.66 191.54) rotate(-36.6)"/><circle class="cls-1" cx="113.1" cy="567.5" r="0.6"/><circle class="cls-1" cx="115.8" cy="566.2" r="0.6"/><circle class="cls-1" cx="115.8" cy="568.7" r="0.6"/><circle class="cls-1" cx="118.8" cy="569.9" r="0.6"/><circle class="cls-1" cx="122.1" cy="570.5" r="0.6"/><circle class="cls-1" cx="125.6" cy="570.5" r="0.6"/><circle class="cls-1" cx="129.5" cy="569.9" r="0.6"/><circle class="cls-1" cx="133.5" cy="568.7" r="0.6"/><circle class="cls-1" cx="137.6" cy="567.5" r="0.6"/><circle class="cls-1" cx="141.4" cy="565.1" r="0.6"/><path class="cls-1" d="M144.6,563.5a0.6,0.6,0,1,0,.6-0.6A0.65,0.65,0,0,0,144.6,563.5Z"/><circle class="cls-1" cx="149.3" cy="561.3" r="0.6"/><path class="cls-1" d="M217.4,540.8l14.5,10.6s20.8,2.8,19.4,16.4c0,0-8.9,9.4-27.5.8s-12.7-12.4-36.5-13.9V538.9C187.4,538.8,208.9,544.8,217.4,540.8Z"/><polygon class="cls-1" points="202.8 566.4 213 564.2 207.9 557.8 201.7 557.8 202.8 566.4"/><path class="cls-1" d="M186.6,553.9v9l16.3,3.5v-6.3s6.6,2.5,10.2,5.5a19.52,19.52,0,0,0,2.3,1.7c5,3,21.8,11.8,37.4,4.1v-2.2a1.47,1.47,0,0,0-2.2-1.3c-5.2,2.9-19.6,7.3-44.1-10.8Z"/><path class="cls-1" d="M201.7,560.6a56.88,56.88,0,0,1,10.1,4.7s14.7,11.8,31.6,9v-1.4s-12.1,1.3-16.4-1.2-13.9-7.5-13.9-7.5l-5.7-2.5-5.7-3.1-1.9,1.9Z"/><path class="cls-1" d="M187.4,549.6c12.4-1,22.5,9,22.5,9h0c2.9,0,6.7.4,9.5,2.3,0,0,10.7,7.1,18.4,7.2a8,8,0,0,0,4-1.1c2-1.2,3.8-3.8,2.2-5.4,0,0,4.8,4,6.6.5,0,0,1.7,1.5,1.4,6.5a1,1,0,0,1-.6.9c-2.4,1.4-12.5,6.2-27.5-.9a133.37,133.37,0,0,1-13.5-7.1h0c-3.6-2.2-3.6-2.7-4.5-2.7h0.3c-7.3-3.2-18.7-4.2-18.7-4.2v-5h-0.1Z"/><path class="cls-1" d="M187.4,541.3s11.4,7.9,24.6,4.4l12.9,8.2-2.2,2.2,4.6,3.5,7.1-7.7-18.2-11.8a4,4,0,0,0-5.5,1.1l-0.6.8s-14,1.3-21.2-4.7a1,1,0,0,0-1.6.8v3.2h0.1Z"/><rect class="cls-1" x="216.64" y="544.14" width="4.6" height="1.2" transform="translate(-348.87 395.52) rotate(-53.38)"/><rect class="cls-1" x="218.51" y="545.14" width="4.6" height="1.2" transform="translate(-348.92 397.42) rotate(-53.38)"/><rect class="cls-1" x="220.18" y="546.45" width="4.6" height="1.2" transform="translate(-349.3 399.29) rotate(-53.38)"/><circle class="cls-1" cx="249.7" cy="567.2" r="0.6"/><circle class="cls-1" cx="247" cy="565.8" r="0.6"/><circle class="cls-1" cx="247" cy="568.3" r="0.6"/><circle class="cls-1" cx="244" cy="569.5" r="0.6"/><circle class="cls-1" cx="240.7" cy="570.1" r="0.6"/><circle class="cls-1" cx="237.1" cy="570.1" r="0.6"/><circle class="cls-1" cx="233.3" cy="569.5" r="0.6"/><circle class="cls-1" cx="229.3" cy="568.3" r="0.6"/><circle class="cls-1" cx="225.2" cy="567.2" r="0.6"/><circle class="cls-1" cx="221.4" cy="564.8" r="0.6"/><circle class="cls-1" cx="217.6" cy="563.2" r="0.6"/><circle class="cls-1" cx="213.5" cy="561" r="0.6"/><polygon class="cls-1" points="174.9 542.5 139.7 542.5 124.9 269.6 174.9 269.6 174.9 542.5"/><polygon class="cls-1" points="182.8 544.9 218 544.9 232.8 271.9 182.8 271.9 182.8 544.9"/><rect class="cls-1" x="154.5" y="230.4" width="63.8" height="79.2"/><rect class="cls-1" x="127.4" y="264.4" width="105.4" height="9.2"/><polygon class="cls-1" points="161.4 187.5 161.4 309.2 110.2 309.2 110.2 122.8 149.3 97.3 161.4 110.2 161.4 187.5"/><path class="cls-1" d="M127.4,250H148v34.1s-12.6,12.7-25.3,0V250h4.7Z"/><circle class="cls-1" cx="154.5" cy="196" r="2.9"/><circle class="cls-1" cx="147.4" cy="154.3" r="2.9"/><circle class="cls-1" cx="153.3" cy="170.2" r="2.9"/><circle class="cls-1" cx="154.5" cy="213.2" r="2.9"/><circle class="cls-1" cx="154.5" cy="230.4" r="2.9"/><circle class="cls-1" cx="154.5" cy="247.7" r="2.9"/><circle class="cls-1" cx="154.5" cy="264.9" r="2.9"/><polygon class="cls-1" points="197.4 190.6 197.4 312.3 248.6 312.3 250.4 114.8 209.5 100.3 197.4 113.2 197.4 190.6"/><path class="cls-1" d="M231.4,250H210.8v34.1s12.7,12.7,25.3,0V250h-4.7Z"/><circle class="cls-1" cx="204.3" cy="199" r="2.9"/><circle class="cls-1" cx="204.3" cy="216.2" r="2.9"/><circle class="cls-1" cx="204.3" cy="233.5" r="2.9"/><circle class="cls-1" cx="204.3" cy="250.7" r="2.9"/><circle class="cls-1" cx="204.3" cy="267.9" r="2.9"/><rect class="cls-1" x="132.4" y="530.5" width="45.3" height="14.4"/><rect class="cls-1" x="182.8" y="530.5" width="45.3" height="14.4"/><polygon class="cls-1" points="161.6 96.3 179.2 110.8 166.7 120.2 159.5 107.3 161.6 96.3"/><polygon class="cls-1" points="197.1 96.3 179.4 110.8 193.1 120.2 199.2 107.3 197.1 96.3"/><polygon class="cls-1" points="172.1 116.8 175.9 122.8 182.8 122.8 187.1 116.1 179.4 110.7 172.1 116.8"/><rect class="cls-1" x="210.8" y="169.3" width="25.3" height="5"/><rect class="cls-1" x="210.8" y="174.3" width="25.3" height="25.3"/><rect class="cls-1" x="172.1" y="264.4" width="14.3" height="9.2"/><path class="cls-1" d="M161.4,85.9L139.7,99.6s-5.8,2.5,0,12.1a265.86,265.86,0,0,1,21.7,72V85.9Z"/><path class="cls-1" d="M197.4,88.9l21.7,13.7s5.8,2.5,0,12.1a265.86,265.86,0,0,0-21.7,72V88.9Z"/><path class="cls-1" d="M161.4,125s19.9,17.7,35.9,0V264.1H161.4V125h0Z"/><path class="cls-1" d="M161.3,133.1s19.9,15.6,35.9,0V255.6H161.3V133.1Z"/><line class="cls-2" x1="212.7" y1="250.7" x2="241.1" y2="284.3"/><line class="cls-2" x1="142.8" y1="314.4" x2="145.4" y2="373.1"/><path class="cls-1" d="M250.4,114.8l33.2,85s10.4,18.8-20.9,40.4l-25,24-16.2-19.1,27-25.8,1.3-45Z"/><rect class="cls-1" x="172.1" y="264.4" width="14.3" height="3.3"/><ellipse class="cls-1" cx="203.1" cy="57.3" rx="10.6" ry="12.4"/><path class="cls-1" d="M156.9,60.7s1.3,22.3,12.7,29.2l6.7,6.3h5.1V29.5L166.7,16.7l-6.8,6.1-4.4,13.8S154.6,55.3,156.9,60.7Z"/><path class="cls-1" d="M201.9,60.6s-1.3,22.3-12.7,29.2l-6.7,6.3h-5.1l-0.8-75.3,12.5,2.1,9.8-.1,4.4,13.8S204.2,55.2,201.9,60.6Z"/><path class="cls-1" d="M163.1,51.7s4.9-3.1,8.6-2l2.5,2H163.1Z"/><circle class="cls-1" cx="167.9" cy="51.8" r="1.9"/><circle class="cls-1" cx="188.5" cy="51.8" r="1.6"/><path class="cls-1" d="M183.7,51.7c0-.5,1.7-2.2,1.7-2.2s5.8,0.2,7.8,2.2h-9.5Z"/><path class="cls-1" d="M175.9,50.6l-1,12.8s-2.3,1-2.3,3.2l4.3,2.2h1.3V46.4H176Z"/><path class="cls-1" d="M180.5,50.6l1,12.8s2.3,1,2.3,3.2l-4.3,2.2h-1.3V46.4h2.2Z"/><path class="cls-1" d="M203.1,22.7s-7,8.7-37.9-.3c0,0-8.1,8.1-4,16.8l-7.5-1.8S140.5,5,169.2,4.3,203.1,22.7,203.1,22.7Z"/><path class="cls-1" d="M153,33.6s-1.7,17.1,3.9,27.5c0,0-.6-17.6,3.7-21.9l-5.2-7.6Z"/><path class="cls-1" d="M182.3,20.2l17.3,14.2v8.7l2.9,6.1-1,15.4s7.8-13.3,5.9-22.9c0,0,6.7-22-10.4-24Z"/><path class="cls-1" d="M175.3,24.9l5,0.7s2.8-3.7,6.9,4.3,11,8.2,14.6,1.1c0,0-7.6,6.8-10.1,0S188.1,14.3,175.3,24.9Z"/><path class="cls-1" d="M182.3,47.5c0.2,0.2,2.7,1.9,2.7,1.9s8.8-3.9,14.8.9c0,0-.9-8.5-12.8-4.2Z"/><path class="cls-1" d="M169.5,71.1h18.6l-2.5,3.4s-1.9,1.3-6.9,2.2a9.54,9.54,0,0,1-8.5-3.7Z"/><polygon class="cls-1" points="172.2 78.5 182.8 78.5 177.8 81.9 172.2 78.5"/><path class="cls-1" d="M173.7,46.4s-0.1.8-2.4,0.8-9.2-3.1-9.2-3.1-4.1-.1-5.4,5a5,5,0,0,1,5.8-1.5C166,48.9,173.3,49.1,173.7,46.4Z"/><polygon class="cls-1" points="223.4 247.3 215.8 254.4 232.8 274.5 236.6 262.7 223.4 247.3"/><path class="cls-1" d="M155.3,39.2s-5.2-9.2-7.6-25c0,0,17.7-21.2,47.7-2.2l-21.7,1-17.5,7.2Z"/><path class="cls-1" d="M148.7,34.6s-1.4-7,8.3-5.5c0,0,3.2.3,2.7-2.8s-0.5-10.9,8.9-8.7c0,0,5.9,1.2,6.5,7.3,0,0-8.8-7.3-9.4-.7s-2.8,11.3-10.3,8.6S148.7,34.6,148.7,34.6Z"/><path class="cls-1" d="M165.7,22.6l9.4,2.4s-5-8.8-8.8-5S165.7,22.6,165.7,22.6Z"/><polygon class="cls-1" points="861.9 115.8 826 115.8 826 99.4 865.1 101.9 861.9 115.8"/><polygon class="cls-1" points="862.4 94.7 822.3 94.7 821.7 47.6 862.4 66.1 862.4 94.7"/><polygon class="cls-1" points="833.4 79.7 833.4 116.1 860.8 117.1 860.8 69.2 833.4 79.7"/><path class="cls-1" d="M857.8,137.4c2.3,2.2,34.7,20.5,34.7,20.5L913,201.6l15.9,16.9-19.2,13.3-24.6-25.4-16.4-37.1Z"/><rect class="cls-1" x="830.66" y="487.46" width="44.5" height="22.7" transform="translate(77.2 1110.81) rotate(-68.59)"/><path class="cls-1" d="M890.2,268.5V235.9H807.3v34.7l-1.1.1,4.2,202.7h34l24.3,4.4,5.6,4.1,2.5-1.2,42-119.1ZM847.9,467.8L844.3,301V288.2h6.8l30.2,86.5Z"/><polygon class="cls-1" points="879.5 488.7 843.2 471.2 849.6 464.6 883.6 480 879.5 488.7"/><rect class="cls-1" x="862.9" y="253.5" width="4.7" height="10.7"/><rect class="cls-1" x="878.4" y="253.5" width="4.7" height="10.7"/><rect class="cls-1" x="835.7" y="253.5" width="4.7" height="10.7"/><path class="cls-1" d="M827.9,120s23.5,7.3,39.2-4,0,3.2,0,3.2l22.6,36.3v98.3s-61.1,8.4-82-.5Z"/><path class="cls-1" d="M827.9,126.5s23.5,6.7,39.2-3.7,0,2.9,0,2.9l22.6,33.6v91s-61.1,7.8-82-.4Z"/><rect class="cls-1" x="807.7" y="131" width="82" height="7.3"/><rect class="cls-1" x="807.7" y="148.2" width="82" height="4.9"/><rect class="cls-1" x="816.7" y="148.2" width="72.8" height="4.9"/><rect class="cls-1" x="828.9" y="148.2" width="62" height="4.9"/><rect class="cls-1" x="807.7" y="141.3" width="82" height="1.8"/><rect class="cls-1" x="846.7" y="148.2" width="45.5" height="4.9"/><rect class="cls-1" x="861.9" y="148.2" width="29.3" height="4.9"/><rect class="cls-1" x="808.6" y="156.8" width="82" height="7.3"/><rect class="cls-1" x="808.6" y="174" width="82" height="4.9"/><rect class="cls-1" x="817.6" y="174" width="72.8" height="4.9"/><rect class="cls-1" x="829.8" y="174" width="62" height="4.9"/><rect class="cls-1" x="808.6" y="167.1" width="82" height="1.8"/><rect class="cls-1" x="847.5" y="174" width="45.5" height="4.9"/><rect class="cls-1" x="862.7" y="174" width="29.3" height="4.9"/><rect class="cls-1" x="809.5" y="182.6" width="82" height="7.3"/><rect class="cls-1" x="809.5" y="199.8" width="82" height="4.9"/><rect class="cls-1" x="818.5" y="199.8" width="72.8" height="4.9"/><rect class="cls-1" x="830.7" y="199.8" width="62" height="4.9"/><rect class="cls-1" x="809.5" y="192.9" width="82" height="1.8"/><rect class="cls-1" x="848.3" y="199.8" width="45.5" height="4.9"/><rect class="cls-1" x="863.4" y="199.8" width="29.3" height="4.9"/><rect class="cls-1" x="810.3" y="208.4" width="82" height="7.3"/><rect class="cls-1" x="810.3" y="225.6" width="82" height="4.9"/><rect class="cls-1" x="819.4" y="225.6" width="72.8" height="4.9"/><rect class="cls-1" x="831.6" y="225.6" width="62" height="4.9"/><rect class="cls-1" x="810.3" y="218.7" width="82" height="1.8"/><rect class="cls-1" x="849.1" y="225.6" width="45.5" height="4.9"/><rect class="cls-1" x="864.1" y="225.6" width="29.3" height="4.9"/><rect class="cls-1" x="811.2" y="234.3" width="82" height="7.3"/><rect class="cls-1" x="811.2" y="251.4" width="82" height="4.9"/><rect class="cls-1" x="820.3" y="251.4" width="72.8" height="4.9"/><rect class="cls-1" x="832.5" y="251.4" width="62" height="4.9"/><rect class="cls-1" x="811.2" y="244.5" width="82" height="1.8"/><rect class="cls-1" x="849.9" y="251.4" width="45.5" height="4.9"/><rect class="cls-1" x="864.8" y="251.4" width="29.3" height="4.9"/><polygon class="cls-1" points="820.8 105 838.1 110.4 848.5 131 834.3 264.2 789.8 264.2 797.5 114.1 820.8 105"/><path class="cls-1" d="M785.5,125l-12.1,59.5a30.72,30.72,0,0,0-.2,10.9l17.5,109.5,23.4-8.5-15-101.9,13-59a7.82,7.82,0,0,0,.6-4.3c-0.7-5.3-3.5-17.5-15-17.3A12.85,12.85,0,0,0,785.5,125Z"/><polygon class="cls-1" points="812.2 148.1 812.2 169.9 823.7 177.3 836.2 168.9 836.2 147.7 812.2 148.1"/><path class="cls-1" d="M864.3,101.9s-0.3,9.5-2.3,13.9,5.6,137.8,5.6,137.8L897.5,284l-3-101.2-3.2-50.7Z"/><polygon class="cls-1" points="826 99.4 839.9 108.4 832.7 122.2 816.5 105.5 826 99.4"/><rect class="cls-1" x="811.9" y="317.2" width="13.7" height="13.3"/><rect class="cls-1" x="817.6" y="474" width="22.9" height="38.2"/><path class="cls-1" d="M858.3,467.8l36.1-95.5-32.8-83.7a7.24,7.24,0,0,0-6.7-4.6h-2.5"/><rect class="cls-1" x="808.6" y="464.6" width="41" height="12"/><rect class="cls-1" x="837" y="464.6" width="5.2" height="12"/><path class="cls-1" d="M818.7,373.9h24.4l-2.1,5.6,2.1,4.3H824.2l-5.6-4.9v-5h0.1Z"/><polygon class="cls-1" points="824.3 383.7 824.3 391.6 832.1 389.4 838 389.4 842.2 386.3 843.2 383.7 824.3 383.7"/><line class="cls-2" x1="835.7" y1="118.3" x2="844.2" y2="134.7"/><circle class="cls-1" cx="824.2" cy="155.6" r="2.4"/><polygon class="cls-1" points="867.9 148.1 867.9 169.9 879.4 177.3 891.8 168.9 891.8 147.7 867.9 148.1"/><circle class="cls-1" cx="879.8" cy="155.1" r="2.4"/><polygon class="cls-1" points="793.1 306.4 798.3 338.3 816.7 353.4 826.5 343.6 816.5 332 812.2 306.4 819.4 313.6 822.3 311 813.9 296.5 793.1 306.4"/><polygon class="cls-1" points="861.4 125.8 875.2 132.2 869.8 176.5 897.5 283.9 863.4 257.2 861.4 125.8"/><line class="cls-2" x1="843" y1="124.7" x2="825.5" y2="264.8"/><line class="cls-2" x1="823.8" y1="101.9" x2="834.3" y2="118.3"/><polygon class="cls-1" points="811.9 278.2 777.7 291.7 793.1 306.4 813.9 296.5 811.9 278.2"/><polygon class="cls-1" points="787 299.9 812.2 289.8 813.9 296.5 793.1 306.4 787 299.9"/><circle class="cls-1" cx="843.1" cy="160.2" r="2.3"/><circle class="cls-1" cx="840.8" cy="177.1" r="2.3"/><circle class="cls-1" cx="838.5" cy="193.9" r="2.3"/><circle class="cls-1" cx="836.3" cy="210.8" r="2.3"/><circle class="cls-1" cx="834" cy="227.6" r="2.3"/><circle class="cls-1" cx="831.7" cy="244.5" r="2.3"/><path class="cls-1" d="M884.2,161.2h-7A1.16,1.16,0,0,1,876,160V146.9a1.16,1.16,0,0,1,1.2-1.2h7a1.16,1.16,0,0,1,1.2,1.2V160A1.22,1.22,0,0,1,884.2,161.2Z"/><path class="cls-1" d="M884.2,180.4h-7a1.16,1.16,0,0,1-1.2-1.2V166.1a1.16,1.16,0,0,1,1.2-1.2h7a1.16,1.16,0,0,1,1.2,1.2v13.1A1.22,1.22,0,0,1,884.2,180.4Z"/><circle class="cls-1" cx="785.9" cy="293.6" r="2.7"/><line class="cls-2" x1="823.7" y1="177.8" x2="816.5" y2="255.9"/><polygon class="cls-1" points="887.4 535.6 834.7 535.6 834.7 530.9 885.3 530.9 887.4 530.9 887.4 535.6"/><path class="cls-1" d="M835.1,532.9v-15s0.3-6.7,7.1-2.4c0,0,13.1,8.4,18.2-6.4,0,0,1.7-7.5,6.3-.7a4.54,4.54,0,0,1,5.7.6l16.5,14.8a12.43,12.43,0,0,0-1.4,9.1H835.1Z"/><path class="cls-1" d="M835.5,517.1s21.7,16.3,31-7.8"/><line class="cls-2" x1="874.3" y1="510.6" x2="869.4" y2="515.9"/><line class="cls-2" x1="877" y1="512.7" x2="872.2" y2="517.9"/><line class="cls-2" x1="879.7" y1="514.7" x2="874.9" y2="519.9"/><line class="cls-2" x1="882.4" y1="516.8" x2="877.6" y2="522"/><line class="cls-2" x1="885.1" y1="518.8" x2="880.3" y2="524"/><circle class="cls-1" cx="858.1" cy="527.9" r="1.1"/><circle class="cls-1" cx="862.8" cy="527.9" r="1.1"/><path class="cls-1" d="M887.5,523s16.9-3.1,15,9.9H886.8C886.9,532.9,884.1,527.2,887.5,523Z"/><path class="cls-1" d="M900.5,535.6h-13v-4.7h15.2v2.5A2.36,2.36,0,0,1,900.5,535.6Z"/><circle class="cls-1" cx="859.6" cy="27.8" r="15.9"/><circle class="cls-1" cx="849.3" cy="27.9" r="15.9"/><ellipse class="cls-1" cx="863.47" cy="29.69" rx="23.2" ry="14.2" transform="translate(78.43 390.48) rotate(-26.65)"/><path class="cls-1" d="M842.3,41.3c-0.9-.5-22.4-9-15.8,15.8,0,0-2.2,15,5.6,26.6l3.1,6.5a14.63,14.63,0,0,0,7.1,1.7h0a13.39,13.39,0,0,0,7.1-1.7l8.4-10.8c5.3-11.7,3.5-25.5,3.5-25.5C867.8,29.1,843.3,40.8,842.3,41.3Z"/><path class="cls-1" d="M857.5,31.5s-1.9,15.6-19.8,18.1c0,0,9.9-3,9.9-12.2,0,0-5.7,13.1-19.2,13.1l-2.2.9-0.3,27.2,3.6,20.6s-7.2,2.3-13.9-8.1l2.7-11.8-4.2,8.3S806.3,79,816,71c0,0,3.4-6.9-3.4-9.6,0,0-12.4-9.9,8.3-26.5,24.4-19.5,40.8-8.3,40.8,4.4,0,0,10.4-8,12.1,8l-4.4,10.5s13.5,9.9,7.8,18.3c0,0-.4-6.1-6.1-8.4,0,0,9.5,10.7,1.9,18.3,0,0,1.4-3-1.7-6.1l-1.1,9.3s-10.1,5.6-11.2,14.4l2.5-40.3-4-17.1V31.5h0Z"/><path class="cls-1" d="M841.8,73.6h-2.4a2.22,2.22,0,0,1-2.2-2.2h0a2.22,2.22,0,0,1,2.2-2.2h2.4a2.22,2.22,0,0,1,2.2,2.2h0A2.22,2.22,0,0,1,841.8,73.6Z"/><circle class="cls-1" cx="862.6" cy="64.6" r="5.4"/><path class="cls-1" d="M864.1,36.4S857,1.7,814.3,28.7l11.5,0.4S805,28,797.6,46.3c0,0,3.6-4.6,17.2-6.6,0,0-13.7,4.9-13.7,16.7H849Z"/><path class="cls-1" d="M829,58.9c-0.4.2,1.9-2.6,1.9-2.6l7.6,1.9,0.7,1.9-3.5-.5C835.8,59.6,832.2,57.1,829,58.9Z"/><circle class="cls-1" cx="835.5" cy="63.5" r="2"/><path class="cls-1" d="M832.7,61.6c0.2-.8,1.4-1.2,2.8-0.9s2.4,1.2,2.2,2"/><path class="cls-1" d="M852.7,62.5c-0.2-1-1.7-1.5-3.4-1.1s-2.8,1.4-2.6,2.4"/><circle class="cls-1" cx="851.3" cy="63.8" r="2.3"/><polygon class="cls-1" points="835.5 77.3 836.9 77.9 842 76.9 840.5 75.6 837.5 77 835.5 77.3"/><polygon class="cls-1" points="847.1 75 846.1 76.1 841 77.1 841.9 75.3 845.1 75.5 847.1 75"/><polygon class="cls-1" points="843.2 57.2 845.4 59.4 854.7 59.4 856.9 60.5 853 55.4 845.7 57.3 843.2 57.2"/><rect class="cls-1" x="838.6" y="58.4" width="4" height="13"/><path class="cls-1" d="M829.7,515H807.6a1.9,1.9,0,0,1-1.9-1.9V500.2a1.9,1.9,0,0,1,1.9-1.9h22.1a1.9,1.9,0,0,1,1.9,1.9v12.9A1.84,1.84,0,0,1,829.7,515Z"/><polygon class="cls-1" points="813.5 549.4 813.7 557.5 840.3 523.9 840.4 515.3 813.5 549.4"/><rect class="cls-1" x="808.7" y="501.7" width="20.5" height="8.9"/><line class="cls-2" x1="840.6" y1="519.8" x2="813.7" y2="553.6"/><path class="cls-1" d="M805.8,511.4s-2.8,15.6-17,18.3l20.1,12.1,4.7,7.7,26.9-34.2v-3.9H805.8Z"/><circle class="cls-1" cx="827" cy="526.3" r="1.3"/><circle class="cls-1" cx="823.4" cy="530" r="1.3"/><line class="cls-2" x1="805.8" y1="534.1" x2="822.1" y2="513.1"/><circle class="cls-1" cx="819.9" cy="515.6" r="1.9"/><circle class="cls-1" cx="817.6" cy="519.8" r="1.9"/><circle class="cls-1" cx="813.9" cy="524.4" r="1.9"/><circle class="cls-1" cx="809.9" cy="529.3" r="1.9"/><path class="cls-1" d="M829.2,513.6s-1.6-12.7,11.3-14.1v13.8l-5.3,7.2Z"/><path class="cls-1" d="M771.4,548.3c0-10.5,9.5-19,21.2-19s21.2,8.5,21.2,19H771.4Z"/><path class="cls-1" d="M812,560.8H774.6a3.16,3.16,0,0,1-3.2-3.2v-9.3h42.5v10.6A1.84,1.84,0,0,1,812,560.8Z"/><polygon class="cls-1" points="836.1 116.6 848.5 131 839.9 108.4 836.1 116.6"/><polygon class="cls-1" points="804.3 169.9 812.2 264.7 809.2 264.7 798.9 194.6 804.3 169.9"/><polyline class="cls-1" points="853.1 114.1 862.6 127.7 866.3 116.6 853.6 113"/><polygon class="cls-1" points="865.1 101.9 869.8 107.6 865.5 117.1 853.1 114.1 853.1 114.1 865.1 101.9"/><circle class="cls-1" cx="987.7" cy="224.8" r="57.8"/><circle class="cls-1" cx="944.1" cy="305.9" r="69.8"/><path class="cls-1" d="M929.5,129.1a12,12,0,0,1-5.1,13.3c-7.7,5.4-29.4,12.8-14.2,49.4,0,0,6.9,18.3-10.5,26.1s-36.6,27.3-10.1,70c0,0,1.3,14.7-9.3,18.8l74.6,13L987.6,132Z"/><polygon class="cls-1" points="911.7 197.9 926.8 197.9 923.7 219.6 907.5 215.9 911.7 197.9"/><ellipse class="cls-1" cx="971" cy="67.1" rx="34.5" ry="38.5"/><path class="cls-1" d="M951.9,124s-49.3-.6-44.5-36.7,69.5-35.6,69.5-35.6Z"/><path class="cls-1" d="M976,122.4s47.4-.6,42.8-35.2S952.1,53,952.1,53Z"/><rect class="cls-1" x="983.2" y="167.7" width="9" height="14.1"/><rect class="cls-1" x="983.2" y="188" width="9" height="14.1"/><rect class="cls-1" x="983.2" y="208.3" width="9" height="14.1"/><rect class="cls-1" x="983.2" y="228.6" width="9" height="14.1"/><circle class="cls-1" cx="978.1" cy="130.6" r="28"/><polygon class="cls-1" points="924.3 141.1 949 128.1 972.2 128.1 1005.2 154 1000.7 243.2 932.4 243.6 924.3 141.1"/><path class="cls-1" d="M936.6,257.4s-31,27.4-43.3,118.8h124.6V257.5Z"/><path class="cls-1" d="M978.1,325.6l3.6,187.7h15.6s21.5-48.9,7.7-116.8l6.2-71H978.1v0.1Z"/><path class="cls-1" d="M961.5,325.6l-3.6,187.7H942.3s-21.5-48.9-7.7-116.8l-6.2-71h33.1v0.1Z"/><rect class="cls-1" x="921.9" y="272.4" width="44.3" height="56.5"/><circle class="cls-1" cx="1006.4" cy="158" r="20.3"/><line class="cls-2" x1="953.8" y1="242.2" x2="961" y2="220.6"/><polygon class="cls-1" points="902.5 389.3 894.7 389.3 889.2 394.7 890.1 400.1 896.4 401.8 907.4 405.2 902.5 389.3"/><polygon class="cls-1" points="896.4 401.8 907.4 405.2 899.3 416.3 897.5 412 894.4 416.2 893.4 407.4 896.4 401.8"/><rect class="cls-1" x="964.28" y="267.09" width="45.9" height="62" transform="translate(-3.77 12.79) rotate(-0.74)"/><path class="cls-1" d="M925,304.6l8-165.8s-23.6-7.7-20.4,19.3l1.6,58.2s-11.2,26.1,2.7,88.1Z"/><rect class="cls-1" x="967.7" y="264.7" width="13.3" height="88.6"/><rect class="cls-1" x="909.47" y="299.54" width="88.6" height="13.3" transform="translate(349.06 1104.79) rotate(-70.66)"/><rect class="cls-1" x="934.1" y="497.4" width="26.7" height="50.8"/><path class="cls-1" d="M938.7,145.6L928.9,213l2.6,21.2h39.1l-0.5-79.5s-24.3-2.3-22.9-24c0-.7-2.9,1.5-3.6,1.8l-6,2.6"/><polygon class="cls-1" points="1005.4 266.8 932.4 266.8 932.4 244.6 1000.3 245.6 1005.4 266.8"/><path class="cls-1" d="M974.8,244.3s12-29.5,8.7-50.8"/><path class="cls-1" d="M922.6,554.2a22.7,22.7,0,1,1,45.4,0H922.6Z"/><ellipse class="cls-1" cx="937.7" cy="525.4" rx="6.9" ry="6.3"/><ellipse class="cls-1" cx="953.1" cy="524.5" rx="6.9" ry="6.3"/><line class="cls-2" x1="990.5" y1="242.2" x2="997.6" y2="221.2"/><line class="cls-2" x1="960.3" y1="85.1" x2="933.8" y2="68"/><rect class="cls-1" x="937.98" y="242.05" width="16.6" height="46.8" transform="translate(440.51 1108.12) rotate(-74.7)"/><rect class="cls-1" x="967.88" y="257.19" width="46.8" height="16.4" transform="translate(-33.41 320.8) rotate(-18.08)"/><rect class="cls-1" x="957.7" y="264.1" width="26.6" height="16.5"/><rect class="cls-1" x="922.6" y="551.5" width="46.3" height="7.9"/><path class="cls-1" d="M915.2,297.9h13v27.7s-7.4,3.2-11.5-8.7S915.2,297.9,915.2,297.9Z"/><path class="cls-1" d="M978.8,490.5h29.3v33.9l16.4,9.7s17.9-9,24.4,10.4v11.2H981.5Z"/><rect class="cls-1" x="981.1" y="552.7" width="69.4" height="5.4"/><rect class="cls-1" x="995.7" y="500.4" width="12.2" height="4.2"/><rect class="cls-1" x="995.7" y="508.3" width="12.2" height="4.2"/><rect class="cls-1" x="996" y="516.6" width="12.2" height="4.2"/><rect class="cls-1" x="997.35" y="524.29" width="12.2" height="4.2" transform="translate(-119.98 378.41) rotate(-20.18)"/><rect class="cls-1" x="1001.85" y="530.59" width="12.2" height="4.2" transform="matrix(0.74, -0.67, 0.67, 0.74, -97.3, 812.23)"/><rect class="cls-1" x="1007.95" y="534.21" width="12.2" height="4.2" transform="translate(167.79 1310.76) rotate(-70.34)"/><rect class="cls-1" x="1016.19" y="536.24" width="12.2" height="4.2" transform="translate(389.78 1505.2) rotate(-84.58)"/><ellipse class="cls-1" cx="1017.9" cy="508.3" rx="6.2" ry="5.7"/><circle class="cls-1" cx="945.8" cy="84.8" r="5.9"/><path class="cls-1" d="M893.3,358.9s6,0,6-5.6"/><line class="cls-2" x1="895.3" y1="363.9" x2="903.6" y2="358.9"/><rect class="cls-1" x="910" y="288.1" width="15" height="7.7"/><circle class="cls-1" cx="922.9" cy="165.1" r="5.3"/><polygon class="cls-1" points="1010.1 293.4 1006.7 298.5 1001.1 296.7 1003.2 303.4 999.1 307.3 1004.3 309.6 1003.3 314 1010.4 310.3 1010.1 293.4"/><path class="cls-1" d="M1011.7,508.3s-1.5,13.1,8,17.1"/><path class="cls-1" d="M955.8,533.3l-13.9,20.9h11.8l9.9-14.5C963.6,539.6,957.4,531.7,955.8,533.3Z"/><path class="cls-1" d="M978.8,491.8s-6.4.1-6.4,8.6"/><path class="cls-1" d="M892.2,554.2h8.9a4.72,4.72,0,0,0,2.9-1"/><circle class="cls-1" cx="941.3" cy="97" r="10.8"/><path class="cls-1" d="M984,143.3s-19.7-10.8-12.4-36L948.3,81.9l-1.1,48.9v2.4Z"/><path class="cls-1" d="M990.5,144.3l15,36.4-5.4,66.6-31.1.1,1.2-92.8s14.5,0.2,6.7-20.5Z"/><path class="cls-1" d="M933.5,247.4C960.4,185.5,923.4,138,923.4,138l9.6-1c6.3,6.4,15.3,30.4,15.3,30.4l62.5-.4c9,18.8-1,29.4-1,29.4l-9.8,51H933.5Z"/><circle class="cls-1" cx="955.6" cy="179" r="8.8"/><circle class="cls-1" cx="951.1" cy="177.9" r="1.2"/><circle class="cls-1" cx="960.9" cy="177.5" r="1.2"/><path class="cls-1" d="M961.4,178.1a5.2,5.2,0,1,1-10.4.2"/><path class="cls-1" d="M985.8,140.8s11.6,24.9,12.3,29.6l12.3-2.8s-8.6-12.2-11.4-17.1Z"/><path class="cls-1" d="M948.6,169.3l-8.7,1.7a3.65,3.65,0,0,1-4.3-2.9v-0.2a3.65,3.65,0,0,1,2.9-4.3l8.7-1.7a3.65,3.65,0,0,1,4.3,2.9V165A3.75,3.75,0,0,1,948.6,169.3Z"/><path class="cls-1" d="M1010.9,166.9l-13.1-.3a5,5,0,0,1-4.9-5.2h0a5,5,0,0,1,5.2-4.9l13.1,0.3a5,5,0,0,1,4.9,5.2h0A5.1,5.1,0,0,1,1010.9,166.9Z"/><path class="cls-1" d="M943.2,61.8s1,42.5,27.5,50.2V53.1Z"/><path class="cls-1" d="M998.1,61.8s-1,42.5-27.5,50.2V53.1Z"/><path class="cls-1" d="M943.5,82.5s31.3,0.3,35.3-30.8c0,0,7.4,28.7,24.4,28.7l1.2-9.2-7.7-15.7-6.9-12.4-23.2-1.2-12.8,6.2L932.7,68.4Z"/><rect class="cls-1" x="928.2" y="121.7" width="19" height="9"/><path class="cls-1" d="M959.7,77s4.4-3.9,11.9,1.3v1.4S965.5,74.8,959.7,77Z"/><path class="cls-1" d="M961.7,81.2s4.6-4.3,8.8,2.5h-7.8Z"/><path class="cls-1" d="M963.6,83.6s-2.7,1.2-3.8-2.3c0,0,.9,1,1.6.8,0,0-.4,0-0.2-1.6a2.44,2.44,0,0,0,1.6.8C963.7,81.3,963.6,83.6,963.6,83.6Z"/><path class="cls-1" d="M994,77s-4.4-3.9-11.9,1.3v1.4S988.2,74.8,994,77Z"/><path class="cls-1" d="M991.4,81.3s-4.4-4.3-8.8,2.2h7.7Z"/><path class="cls-1" d="M989.5,83.5s2.7,1.2,3.8-2.2c0,0-.9,1-1.6.7,0,0,.4,0,0.2-1.5a2.44,2.44,0,0,1-1.6.8C989.5,81.3,989.5,83.5,989.5,83.5Z"/><path class="cls-1" d="M970.7,98.1h7.9s-0.5-3.4-3.9-1.8A6.15,6.15,0,0,1,970.7,98.1Z"/><path class="cls-1" d="M974.2,98.1h7.9s-0.5-3.4-3.9-1.8A6.15,6.15,0,0,1,974.2,98.1Z"/><path class="cls-1" d="M971.6,78.3s3-1.6,4.8,12.4h2.9s-0.5-7.6,2.8-12.4H971.6Z"/><path class="cls-1" d="M970.7,98.1s7.3,7.1,11.4,0H970.7Z"/><path class="cls-1" d="M559.1,137.1L560,364.8l74.8,1.1v-155L617,159.6c-3.1-9-13.9-16-27.7-18Z"/><rect class="cls-1" x="603" y="353.8" width="2.2" height="5"/><rect class="cls-1" x="616.6" y="237.5" width="14.9" height="33.7"/><polyline class="cls-1" points="627.8 236.7 623.6 245.6 627.8 253 623.6 263 627.8 272.3"/><polyline class="cls-1" points="625.1 236.7 620.9 245.6 625.1 253 620.9 263 625.1 272.3"/><polyline class="cls-1" points="623 236.5 618.7 245.4 623 252.9 618.7 262.9 623 272.1"/><polyline class="cls-1" points="620.9 236.3 616.6 245.3 620.9 252.7 616.6 262.7 620.9 271.9"/><polyline class="cls-1" points="630.5 236.5 626.2 245.4 630.5 252.9 626.2 262.9 630.5 272.1"/><rect class="cls-1" x="616.6" y="274.9" width="14.9" height="33.7"/><rect class="cls-1" x="606.8" y="343.2" width="13" height="9"/><polygon class="cls-1" points="506.7 365.4 588.2 365.4 586.7 182.5 547 165.2 506.7 191.6 506.7 365.4"/><rect class="cls-1" x="525.3" y="316.4" width="28.8" height="21.9"/><rect class="cls-1" x="532.1" y="320.5" width="18.2" height="13.8"/><circle class="cls-1" cx="573.8" cy="92.5" r="30.4"/><path class="cls-1" d="M572.8,158.8a36.05,36.05,0,1,1-36-36.1,35.22,35.22,0,0,1,6.6.6A36.16,36.16,0,0,1,572.8,158.8Z"/><circle class="cls-1" cx="585.3" cy="62.9" r="15.5"/><circle class="cls-1" cx="605.4" cy="107.8" r="17.2"/><circle class="cls-1" cx="627.4" cy="168.1" r="23.2"/><path class="cls-1" d="M546.7,106.2s10.7,16-3.3,22.3,14.7,15.9,14.7,15.9l11,5.7,25.6-31.5,0.6-17.1L584.2,90.4Z"/><circle class="cls-1" cx="626" cy="154.2" r="31.3"/><rect class="cls-1" x="509.8" y="352.6" width="12.6" height="10.1"/><polygon class="cls-1" points="544.5 202.7 509.1 225.7 509.1 202.7 544.5 202.7"/><polygon class="cls-1" points="531.5 206.3 514.2 217.6 514.2 206.3 531.5 206.3"/><circle class="cls-1" cx="723.9" cy="58.1" r="5.6"/><path class="cls-1" d="M723.3,47.3a15.81,15.81,0,0,1-.4,3.8h0a18.88,18.88,0,0,1-36.6,1.4h0a18.13,18.13,0,0,1-.7-5.2V46.2a18.53,18.53,0,0,1,7.6-14,18.81,18.81,0,0,1,29.9,12.7h0A17.9,17.9,0,0,1,723.3,47.3Z"/><path class="cls-1" d="M722,34.2C725.4,18.1,708.5,14,708.5,14c-35.6-9-35.6,36.6-35.6,36.6L691,61.1"/><path class="cls-1" d="M719.7,541.4c0,6.4,7.5,12,16.8,11.7,14.8-.4,17.5-9.7,16.3-15.6-1.3-6.3-7-7.7-16.3-7.7S719.7,534.9,719.7,541.4Z"/><polygon class="cls-1" points="656.2 234.9 652 385.3 675.5 510.3 705.3 511.5 698.8 372.1 709.8 237.2 656.2 234.9"/><path class="cls-1" d="M661.8,484h39.4v68.6H626.4s-4.2-29.5,25.7-22.9l16.6-8.6Z"/><polygon class="cls-1" points="701.5 236.7 712.6 380.5 719.5 487.5 745.5 488.2 752.3 372.1 759.2 237.2 701.5 236.7"/><rect class="cls-1" x="656.2" y="225.9" width="98.7" height="20.2"/><path class="cls-1" d="M640.5,110.1s15.7,16,15.7,33.4l0.2,82.5,98.7-.2-0.2-82.9s-1.6-28.2,9.3-33C764.2,109.9,708.6,70.9,640.5,110.1Z"/><path class="cls-1" d="M662.1,104.3c0-19,19-34.5,42.4-34.5s42.4,15.4,42.4,34.5"/><rect class="cls-1" x="652.9" y="254.1" width="98.7" height="7"/><rect class="cls-1" x="668" y="252" width="5.4" height="11.1"/><rect class="cls-1" x="696.7" y="252.1" width="5.4" height="11.1"/><rect class="cls-1" x="725.5" y="252.2" width="5.4" height="11.1"/><rect class="cls-1" x="754.2" y="252.3" width="5.4" height="11.1"/><polygon class="cls-1" points="755 194.2 755 147.2 656.2 147.2 656.2 170.4 656.2 200.2 656.2 221.7 755 194.2"/><rect class="cls-1" x="690.2" y="115" width="3.8" height="70.4"/><rect class="cls-1" x="710.3" y="115" width="3.8" height="70.4"/><path class="cls-1" d="M673.4,270.9s0,26.8-15.3,26.8"/><path class="cls-1" d="M764.2,109.9l29,68.4a17.9,17.9,0,0,1,0,14l-34.1,80.8-27-7.7,32.7-79.2-21.1-37.6S739.3,119.1,764.2,109.9Z"/><polygon class="cls-1" points="732.1 265.3 759.2 273.1 764.5 260.6 737.2 252.3 732.1 265.3"/><line class="cls-2" x1="729.4" y1="269.6" x2="751.6" y2="299"/><path class="cls-1" d="M720.3,511.3h27.5a0.79,0.79,0,0,0,.8-0.8v-24a0.79,0.79,0,0,0-.8-0.8H720.3a0.79,0.79,0,0,0-.8.8v24A0.86,0.86,0,0,0,720.3,511.3Z"/><path class="cls-1" d="M726.2,509.8h17a0.68,0.68,0,0,0,.7-0.7V484.8a0.68,0.68,0,0,0-.7-0.7h-17a0.68,0.68,0,0,0-.7.7v24.4A0.86,0.86,0,0,0,726.2,509.8Z"/><path class="cls-1" d="M719.5,510.2s-1.3-5.4,3.7-5.4l2.4,3.8,23.2,0.3,3.5,27.8s-1.9,15-19.6,12.3c0,0-7.9-2-10.6-6.9-2.3-4.2-1.4-11-1.4-11s2.7-3.3-.8-19.7a12.43,12.43,0,0,0-.4-1.6"/><rect class="cls-1" x="719.5" y="491" width="6.8" height="5.7"/><rect class="cls-1" x="719.5" y="498.8" width="6.8" height="5.7"/><rect class="cls-1" x="743.4" y="491.5" width="5.4" height="5.7"/><rect class="cls-1" x="743.4" y="499.3" width="5.4" height="5.7"/><path class="cls-1" d="M745.2,506.3H724.6a0.47,0.47,0,0,1-.5-0.5v-5.1a0.47,0.47,0,0,1,.5-0.5h20.6v6.1Z"/><path class="cls-1" d="M745.3,497.2H724.7a0.47,0.47,0,0,1-.5-0.5v-5a0.47,0.47,0,0,1,.5-0.5h20.6v6Z"/><rect class="cls-1" x="724.2" y="494.7" width="21.1" height="1.6"/><rect class="cls-1" x="724.2" y="504.2" width="21" height="1.4"/><polygon class="cls-1" points="691 70.4 691 102.7 720.2 103.5 720.2 61.1 691 70.4"/><path class="cls-1" d="M723.1,44.9a22.48,22.48,0,0,1-.5,2.2s0.2,1.5.3,4h0c0.2,5.1-.2,14.3-3.9,22.5l-8.7,11.2a10.65,10.65,0,0,1-1.9.9,17.31,17.31,0,0,1-5.5.9h0a14.37,14.37,0,0,1-7.4-1.7l-3.2-6.8c-6.3-9.4-6.4-20.8-6-25.5h0c0.1-1.4.2-2.2,0.2-2.2a40,40,0,0,1-.9-4.2,18.53,18.53,0,0,1,7.6-14,24.1,24.1,0,0,1,9.7,1.8,34.72,34.72,0,0,1,10.6-3.2,18.68,18.68,0,0,1,9.6,14.1h0Z"/><path class="cls-1" d="M702.4,67.5h-2.5a2.26,2.26,0,0,1-2.3-2.3h0a2.33,2.33,0,0,1,2.3-2.3h2.5a2.26,2.26,0,0,1,2.3,2.3h0A2.33,2.33,0,0,1,702.4,67.5Z"/><path class="cls-1" d="M689.1,52.2c-0.4.2,2-2.7,2-2.7l7.9,2,0.8,2-3.6-.5C696.1,52.9,692.4,50.3,689.1,52.2Z"/><circle class="cls-1" cx="695.8" cy="57" r="2.1"/><path class="cls-1" d="M692.9,55c0.2-.8,1.5-1.3,2.9-1s2.4,1.2,2.3,2.1"/><path class="cls-1" d="M713.7,55.9c-0.2-1-1.8-1.6-3.5-1.2s-2.9,1.5-2.7,2.5"/><circle class="cls-1" cx="712.2" cy="57.3" r="2.4"/><polygon class="cls-1" points="695.9 71.3 697.2 72 702.5 70.9 701 69.5 697.9 71 695.9 71.3"/><polygon class="cls-1" points="707.9 68.9 706.9 70.1 701.6 71.1 702.4 69.2 705.8 69.4 707.9 68.9"/><path class="cls-1" d="M698.9,72.9l7.6-1.5C706.5,71.5,703.5,76.8,698.9,72.9Z"/><polygon class="cls-1" points="703.8 50.5 706.1 52.7 715.8 52.8 718 53.9 714 48.5 706.4 50.5 703.8 50.5"/><rect class="cls-1" x="699.1" y="51.7" width="4.1" height="13.5"/><polygon class="cls-1" points="723.9 52.5 720.4 56.1 720.4 38.4 726.3 36.7 723.9 52.5"/><path class="cls-1" d="M720.4,38.4s-3.2-7.6-6.8-7.6c0,0,7.7-2.4,8.6,2.2,0,0,.2-2.2,4.1-2.2l-3.2,6.9Z"/><path class="cls-1" d="M668.3,107.5s36.1,31.6,67.7,0C736,107.5,706.8,124.9,668.3,107.5Z"/><path class="cls-1" d="M702.4,541.2s-1.5,5.3-9,5.7H626.3v4.7h76.2V541.2h-0.1Z"/><path class="cls-1" d="M679.4,485.1v9h26.5s2.9-8.1-3.5-9h-23Z"/><path class="cls-1" d="M679.4,492.7v9h26.5s2.9-8.1-3.5-9h-23Z"/><path class="cls-1" d="M679.4,500.2v9h26.5s2.9-8.1-3.5-9h-23Z"/><polygon class="cls-1" points="679.4 509.2 668.7 521.1 702.4 541.2 702.5 509.2 679.4 509.2"/><path class="cls-1" d="M652.1,528.5s8.1,9.6,8.1,18.4h30.3s11,0.5,12-5.7l-33.8-20.1Z"/><path class="cls-1" d="M671.4,518.4l-6-27.8s-1.7-6.3,3.4-6.3l6.9,0.1s3.4-.2,3.7,2.7v22.2l-8,9.1h0Z"/><path class="cls-1" d="M678.8,496.1H659.6v-4a1.11,1.11,0,0,1,1.1-1.1h18.1v5.1h0Z"/><path class="cls-1" d="M679.7,503.8H660.5v-4a1.11,1.11,0,0,1,1.1-1.1h18.1v5.1Z"/><rect class="cls-1" x="659.6" y="494.6" width="19.2" height="1.6"/><rect class="cls-1" x="660.5" y="503" width="19.2" height="1.6"/><rect class="cls-1" x="662.76" y="533.8" width="18" height="3.7" transform="translate(-187.18 515.22) rotate(-37.21)"/><path class="cls-1" d="M686.8,531.9s2.2-10.4,15.7-12.4v21.7Z"/><path class="cls-1" d="M612.3,103.3l1.9,1.3a1.29,1.29,0,0,0,1.8-.9,1.07,1.07,0,0,1-1.4.4s0.5,0.3.8-.7a3.09,3.09,0,0,1-2.3.4C612,103.3,612.3,103.3,612.3,103.3Z"/><polygon class="cls-1" points="710.3 84.7 720.4 75.1 722 63.3 712 68.2 710.3 84.7"/><path class="cls-1" d="M719.6,36.7s8-7.7,9.9,3.9l-5.6,13.6L720.4,56Z"/><path class="cls-1" d="M672.9,50.6s7.7-44.2,43.9-26.2l4.5-.6s-12.4-12.4-29.9-9.5C668.3,18.1,672.9,50.6,672.9,50.6Z"/><path class="cls-1" d="M681.3,36.4l1,7.4a2.36,2.36,0,0,0,2.3,2.1l7.3,0.4a5,5,0,0,0,5.2-4.7l0.3-5.9-14.8-.8A1.43,1.43,0,0,0,681.3,36.4Z"/><path class="cls-1" d="M683.4,36.5v5.6c0.1,0.9.8,2.3,1.7,2.3l6.2,0.3a3.59,3.59,0,0,0,3.8-3.4l0.2-4.3Z"/><path class="cls-1" d="M718.1,37l-1.9,7.7a3.69,3.69,0,0,1-3.8,2.8l-5.1-.3a6.16,6.16,0,0,1-5.8-6.5l0.2-4.6Z"/><path class="cls-1" d="M715.1,38.2l-1.3,5.2a2.48,2.48,0,0,1-2.6,1.9l-3.4-.2c-2.3-.1-4.2-1-4-3.3l0.3-4.2Z"/><polygon class="cls-1" points="702 39.4 696.3 39 697.4 35.8 703.8 36.2 702 39.4"/><polygon class="cls-1" points="718.1 37 723.9 53 723.1 56.7 716.9 42.1 718.1 37"/><polygon class="cls-1" points="682.4 44.2 686.2 54.6 686.5 50.3 685.6 46.1 682.4 44.2"/><path class="cls-1" d="M691,95.7s14.1,11,29.4.6l7.8,4.5v6.8l-5.1,5.1-8,2.3-15.4-.4L689,110.5l-6.6-2.9-1.8-4.6Z"/><polygon class="cls-1" points="719.5 487.5 714 476.8 734.1 473.9 734.6 483.2 724.3 481.2 719.5 487.5"/><path class="cls-1" d="M731.1,531.2c-7.2,1.1-10.1,8.7-11.1,12.5a23.25,23.25,0,0,1-.5-5.3l0.7-24.8,8.4-4.1a1.28,1.28,0,0,1,1.8,1.1Z"/><path class="cls-1" d="M742.6,511.1l1.3,19.3s6.5,2.4,8.8,7L749,511.1l-5.2-1.3A1.18,1.18,0,0,0,742.6,511.1Z"/><path class="cls-1" d="M744.3,512.9h-14a0.9,0.9,0,0,1-.9-0.9h0a0.9,0.9,0,0,1,.9-0.9h14a0.9,0.9,0,0,1,.9.9h0A0.9,0.9,0,0,1,744.3,512.9Z"/><path class="cls-1" d="M744.5,516.9h-14a0.9,0.9,0,0,1-.9-0.9h0a0.9,0.9,0,0,1,.9-0.9h14a0.9,0.9,0,0,1,.9.9h0A0.9,0.9,0,0,1,744.5,516.9Z"/><path class="cls-1" d="M744.7,520.9h-14a0.9,0.9,0,0,1-.9-0.9h0a0.9,0.9,0,0,1,.9-0.9h14a0.9,0.9,0,0,1,.9.9h0A0.9,0.9,0,0,1,744.7,520.9Z"/><path class="cls-1" d="M744.9,524.9h-14a0.9,0.9,0,0,1-.9-0.9h0a0.9,0.9,0,0,1,.9-0.9h14a0.9,0.9,0,0,1,.9.9h0A0.9,0.9,0,0,1,744.9,524.9Z"/><path class="cls-1" d="M745.1,528.9h-14a0.9,0.9,0,0,1-.9-0.9h0a0.9,0.9,0,0,1,.9-0.9h14a0.9,0.9,0,0,1,.9.9h0A1,1,0,0,1,745.1,528.9Z"/><path class="cls-1" d="M659.4,535.1l-6.7-8.5a1.47,1.47,0,0,1,.3-2.1h0a1.47,1.47,0,0,1,2.1.3l6.7,8.5a1.47,1.47,0,0,1-.3,2.1h0A1.66,1.66,0,0,1,659.4,535.1Z"/><path class="cls-1" d="M664.2,532.2l-6.7-8.5a1.47,1.47,0,0,1,.3-2.1h0a1.47,1.47,0,0,1,2.1.3l6.7,8.5a1.47,1.47,0,0,1-.3,2.1h0A1.68,1.68,0,0,1,664.2,532.2Z"/><path class="cls-1" d="M669.1,529.3l-6.7-8.5a1.47,1.47,0,0,1,.3-2.1h0a1.47,1.47,0,0,1,2.1.3l6.7,8.5a1.47,1.47,0,0,1-.3,2.1h0A1.46,1.46,0,0,1,669.1,529.3Z"/><path class="cls-1" d="M673.9,526.4l-6.7-8.5a1.47,1.47,0,0,1,.3-2.1h0a1.47,1.47,0,0,1,2.1.3l6.7,8.5a1.47,1.47,0,0,1-.3,2.1h0A1.47,1.47,0,0,1,673.9,526.4Z"/><path class="cls-1" d="M692.5,500.2H681.8a0.9,0.9,0,0,1-.9-0.9h0a0.9,0.9,0,0,1,.9-0.9h10.7a0.9,0.9,0,0,1,.9.9h0A0.89,0.89,0,0,1,692.5,500.2Z"/><path class="cls-1" d="M698.7,500.2h-3.2a0.9,0.9,0,0,1-.9-0.9h0a0.9,0.9,0,0,1,.9-0.9h3.2a0.9,0.9,0,0,1,.9.9h0A0.9,0.9,0,0,1,698.7,500.2Z"/><path class="cls-1" d="M692.1,492.4H681.4a0.9,0.9,0,0,1-.9-0.9h0a0.9,0.9,0,0,1,.9-0.9h10.7a0.9,0.9,0,0,1,.9.9h0A0.9,0.9,0,0,1,692.1,492.4Z"/><path class="cls-1" d="M698.4,492.4h-3.2a0.9,0.9,0,0,1-.9-0.9h0a0.9,0.9,0,0,1,.9-0.9h3.2a0.9,0.9,0,0,1,.9.9h0A1,1,0,0,1,698.4,492.4Z"/><path class="cls-1" d="M692.8,507.2H682.1a0.9,0.9,0,0,1-.9-0.9h0a0.9,0.9,0,0,1,.9-0.9h10.7a0.9,0.9,0,0,1,.9.9h0A0.9,0.9,0,0,1,692.8,507.2Z"/><path class="cls-1" d="M699.1,507.2h-3.2a0.9,0.9,0,0,1-.9-0.9h0a0.9,0.9,0,0,1,.9-0.9h3.2a0.9,0.9,0,0,1,.9.9h0A0.9,0.9,0,0,1,699.1,507.2Z"/><polygon class="cls-1" points="737.4 266.8 733.2 273.9 740.5 278.3 748.5 283 751.4 270.9 737.4 266.8"/><path class="cls-1" d="M640.5,110.1l-19.4,82.4-5.4,34.2L631,237.8l25.1-90.6C656.2,147.2,657.3,118.4,640.5,110.1Z"/><polygon class="cls-1" points="686.5 44.5 690 36.9 693.7 37.1 690.1 44.7 686.5 44.5"/><polygon class="cls-1" points="708.1 45 710.2 45.1 710.2 45.2 706.6 45 710.1 37.9 711.5 38 708.1 45"/><polygon class="cls-1" points="714 38.1 710.4 45.2 709 45.1 712.5 38.1 710.2 38 710.3 37.9 714 38.1"/><polygon class="cls-1" points="615.2 226 659.4 264.8 673.4 244.2 634.9 211.9 615.2 226"/><polygon class="cls-1" points="578.4 554.4 581 554.4 581.5 557 578.7 557 578.4 554.4"/><polyline class="cls-1" points="583.2 357.5 583.2 341.6 595.5 341.6 595.5 329.1 606.8 329.1 606.8 320.2"/><polyline class="cls-1" points="587.1 361.8 587.1 345.9 599.5 345.9 599.5 333.5 610.8 333.5 610.8 324.6"/><polyline class="cls-1" points="591 358.8 591 350.6 603.4 350.6 603.4 338.1 614.6 338.1 614.6 329.3"/><rect class="cls-1" x="509.9" y="250" width="30.8" height="24.7"/><rect class="cls-1" x="509.8" y="300.6" width="12.6" height="37.4"/><rect class="cls-1" x="525.4" y="340.6" width="12.6" height="10.1"/><rect class="cls-1" x="509.8" y="340.6" width="12.6" height="10.1"/><rect class="cls-1" x="512.7" y="343.1" width="6.5" height="5.2"/><rect class="cls-1" x="512.6" y="355.1" width="6.5" height="5.2"/><rect class="cls-1" x="511.69" y="302.17" width="8.9" height="8.9" transform="translate(-67.25 448.3) rotate(-44.36)"/><rect class="cls-1" x="527.23" y="304.04" width="8.9" height="8.9" transform="translate(-64.12 459.71) rotate(-44.36)"/><rect class="cls-1" x="539.55" y="304.11" width="8.9" height="8.9" transform="translate(-60.66 468.34) rotate(-44.36)"/><rect class="cls-1" x="511.65" y="314.85" width="8.9" height="8.9" transform="translate(-76.13 451.89) rotate(-44.36)"/><rect class="cls-1" x="511.37" y="327.47" width="8.9" height="8.9" transform="translate(-85.03 455.29) rotate(-44.36)"/><rect class="cls-1" x="510.1" y="277.2" width="30.8" height="10.6"/><rect class="cls-1" x="525.3" y="289.7" width="23.4" height="8.7"/><rect class="cls-1" x="525.3" y="299.7" width="23.4" height="1.3"/><polygon class="cls-1" points="540.1 250.1 524.9 262.5 509.7 250.1 540.1 250.1"/><polygon class="cls-1" points="509.7 274.7 524.9 262.3 540.1 274.7 509.7 274.7"/><polygon class="cls-1" points="532.7 251.8 524.5 258.6 516.3 251.8 532.7 251.8"/><polygon class="cls-1" points="516.7 273 524.9 266.2 533.1 273 516.7 273"/><polyline class="cls-1" points="511 249.5 511 233.6 523.4 233.6 523.4 221.2 534.7 221.2 534.7 212.3"/><polyline class="cls-1" points="515 249.5 515 238 527.4 238 527.4 225.6 538.6 225.6 538.6 216.7"/><polyline class="cls-1" points="518.9 249.5 518.9 242.7 531.3 242.7 531.3 230.2 542.5 230.2 542.5 221.4"/><line class="cls-2" x1="591.9" y1="150" x2="591.4" y2="169.5"/><path class="cls-1" d="M616.5,114.7s-2.1,16.7,10.9,16.7-10.3,26-10.3,26l-12.9-3.3L589.1,139l-3.8-16.3,0.4-27.5,4.9-3.2,17.9,7.8Z"/><path class="cls-1" d="M543,140.2s25.7,18,31.7-22.4l23.5,20.5s3.7,10.4,19.8,14.6a13.5,13.5,0,0,1,9.7,17.1l-8.2,26-57.7.3Z"/><circle class="cls-1" cx="592.1" cy="71.3" r="31"/><path class="cls-1" d="M569.7,556.5h21.7s-4.8-19.1-23.1-16.3L559.9,518a2.58,2.58,0,0,0-4.2-.9l-3.4,3.3h0l3.8,11.4h0l10.1,22.4A3.83,3.83,0,0,0,569.7,556.5Z"/><path class="cls-1" d="M565.7,504.5s-9.6-.2-5.7,13.4l9.9,27.1,12.4,0.4-10.7-35.5C571.5,510,569,504.8,565.7,504.5Z"/><path class="cls-1" d="M556.6,186.9s15.1,14.8,2.5,47.9h32.8V177.4Z"/><polyline class="cls-1" points="598.6 147.3 598.6 81.9 574.7 81.9 574.7 145.1"/><path class="cls-1" d="M616.3,86.2l-0.1-4.4a23.06,23.06,0,0,0-19.6-25.3,23.36,23.36,0,0,0-25.4,16,22.75,22.75,0,0,0-.9,8.9h0a6.6,6.6,0,0,0-.2.9,7.75,7.75,0,0,0-4.8-.4,7.3,7.3,0,0,0-5.5,5.7,7.54,7.54,0,0,0,7.3,9.1,7.17,7.17,0,0,0,2.9-.6c1.9,9.1,8.6,19.8,28.6,23.1a5.22,5.22,0,0,0,4.7-1.6c4.5-4.7,14.9-17.8,13-31.4"/><polygon class="cls-1" points="621.9 189.3 615.5 228.6 581.9 234.1 578.9 193.5 581.9 187.3 609.8 180.8 621.9 189.3"/><polygon class="cls-1" points="560.8 189.3 560.8 237.4 582.1 237.4 582.1 208.1 560.8 189.3"/><path class="cls-1" d="M614.7,226.7l24.6,119.1a20,20,0,0,1-.9,11.1L577.7,513.5h0l-19.2.9-0.4-22.6S575.5,389.1,611,346.3c0,0-66.2-72.8-40.7-119.6h44.4Z"/><polyline class="cls-1" points="600 79.1 600 95.4 593.5 95.4"/><path class="cls-1" d="M608.3,545.2s-2.4.8-7-1S589.8,534,589.8,534l-5.5-16.9-14.5-5.5-2.1,5.3a20.45,20.45,0,0,0-.9,8.5l4.5,12.2h6l4.4-.3,8,18.6h15.6c9.9,0,9,.8,14.4.1C619.6,555.8,621.3,544.1,608.3,545.2Z"/><path class="cls-1" d="M571.3,537.5s6.1,3.6,7.4,19.1h3s-3.7-15.7,0-19.1H571.3Z"/><path class="cls-1" d="M591.9,223.1l-48.5.2s-16.4,29.9-4.5,58.6l21.6,76.5s-23.8,70.7,10.6,153.5l12.7,0.4,8-150.2v-139h0.1Z"/><path class="cls-1" d="M552.3,520.3a70,70,0,0,1-7,28.7l1.7,1.9,10.3-16.4Z"/><polygon class="cls-1" points="546.1 547.3 548.2 549 547.1 551.3 544.6 549.5 546.1 547.3"/><path class="cls-1" d="M547.4,548.4l8-19.2-3.1-8.9s-1.1,16.7-6.2,27Z"/><path class="cls-1" d="M577.2,538.2l2.6,18.4h1.7s-3.2-14.6,0-19.1h-4.4v0.7h0.1Z"/><path class="cls-1" d="M584.6,78.9s3.9-3.4,10.5,1.1v1.2S589.7,76.9,584.6,78.9Z"/><path class="cls-1" d="M587.4,87.5s4-3.8,7.8,2.2l-7.4-1.4Z"/><path class="cls-1" d="M589.1,89.6s-2.4,1.1-3.4-2a1.9,1.9,0,0,0,1.5.7s-0.4,0-.2-1.4a2.1,2.1,0,0,0,1.4.7C589.1,87.6,589.1,89.6,589.1,89.6Z"/><path class="cls-1" d="M616.7,80.7s-3.9-3.4-10.5,1.1V83S611.6,78.7,616.7,80.7Z"/><path class="cls-1" d="M613.7,87.6s-3.9-3.8-7.7,1.9h6.8Z"/><path class="cls-1" d="M612,89.5s2.4,1,3.4-1.9c0,0-.8.9-1.4,0.7,0,0,.4,0,0.2-1.4a2.1,2.1,0,0,1-1.4.7C611.9,87.6,612,89.5,612,89.5Z"/><path class="cls-1" d="M595.3,102.4h7s-0.5-3-3.5-1.6A4.81,4.81,0,0,1,595.3,102.4Z"/><path class="cls-1" d="M598.4,102.4h7s-0.5-3-3.5-1.6A4.81,4.81,0,0,1,598.4,102.4Z"/><path class="cls-1" d="M596.1,84.9s2.7-1.4,4.2,11h2.6s-0.5-6.7,2.4-11h-9.2Z"/><circle class="cls-1" cx="590.5" cy="89.8" r="2.2"/><circle class="cls-1" cx="610.6" cy="89.5" r="2.2"/><path class="cls-1" d="M585.8,186s4.9-17.1-.6-27.1a30.45,30.45,0,0,1,9.8,22.2Z"/><path class="cls-1" d="M587.3,185.2s12.2-20.6,30.3-15.7c0,0,11.6,13,2,26.5l-6.1,7.8,2,24.9s-36.5,13.2-65.1-7.3l9.9-18.5-5.6-21.5-5.2-17.5s24.6-4.4,32.5,5.7S587.3,185.2,587.3,185.2Z"/><circle class="cls-1" cx="567" cy="103.2" r="8.2"/><path class="cls-1" d="M598.2,52s-39-15.1-35.9,32.5c0,0,13.5,8.1,21.2.3a11.74,11.74,0,0,0,3.3-8.7c-0.1-6.7,1.2-22.4,16-17.4A5.93,5.93,0,0,0,598.2,52Z"/><path class="cls-1" d="M594.7,58.1s20.2-1.6,21.7,30.3C616.5,88.4,625.7,50.2,594.7,58.1Z"/><path class="cls-1" d="M599.6,102.4s-3.4,1.5-5.7-2.6c0,0,2.7,3.2,5.3,1.4Z"/><path class="cls-1" d="M550.3,145.1l3.2,66.6s34.3-5.7,84.6-11.7l5.1,11.7-7.9,1.4L617.7,208s0.3,8.8-67.4,21.7c0,0-39.1-35.8-16.4-85.6C533.9,144.1,544.1,129.6,550.3,145.1Z"/><path class="cls-1" d="M566.9,137l-32.2-5.4a7,7,0,0,0-8.2,6.9l0.3,20.4-20.1,32.7S556.7,183,566.9,137Z"/><path class="cls-1" d="M570.6,511.9s15.9,33.7,37.6,35.2h0s-19-6-25.3-35.8Z"/><polygon class="cls-1" points="664.5 236.7 650.6 257.8 659.4 264.8 673.4 244.2 664.5 236.7"/><polygon class="cls-1" points="662 273.9 680.4 265.8 670.6 248.9 660.9 261.4 662 273.9"/><path class="cls-1" d="M616,202.8l21.1-7.9,16.8,15.2-4,1.6-7.8-5.6s-3.2,11-23.8,5.8h-12Z"/><polyline class="cls-1" points="541.2 340.6 545.5 345.7 541.2 350.8"/><polyline class="cls-1" points="544 340.6 548.3 345.7 544 350.8"/><polyline class="cls-1" points="546.9 340.6 551.2 345.7 546.9 350.8"/><polyline class="cls-1" points="549.7 340.6 554 345.7 549.7 350.8"/><circle class="cls-1" cx="529.2" cy="215.9" r="1.6"/><circle class="cls-1" cx="512.6" cy="197.3" r="1.6"/><circle class="cls-1" cx="516.7" cy="228.3" r="1.6"/><rect class="cls-1" x="594" y="353.8" width="2.2" height="5"/><rect class="cls-1" x="597" y="353.8" width="2.2" height="5"/><rect class="cls-1" x="600" y="353.8" width="2.2" height="5"/><rect class="cls-1" x="510" y="289.7" width="2.4" height="8.8"/><rect class="cls-1" x="513.3" y="289.7" width="2.4" height="8.8"/><rect class="cls-1" x="516.5" y="289.7" width="2.4" height="8.8"/><rect class="cls-1" x="519.8" y="289.7" width="2.4" height="8.8"/><polygon class="cls-1" points="534.3 156.6 533.7 135.4 563.3 139 534.3 156.6"/><polygon class="cls-1" points="537.7 151.2 537.4 138.7 554.8 140.8 537.7 151.2"/><path class="cls-1" d="M554.8,153s-9.1,23.6-40.8,32.9"/><path class="cls-1" d="M516.7,181.9s22.9-9,31.9-25"/><path class="cls-1" d="M520.5,175.8s16.2-7.2,20.5-14.3"/><polygon class="cls-1" points="523.9 171.3 529.2 162 536.8 162.8 523.9 171.3"/><polyline class="cls-1" points="526.1 355.8 529.4 352.6 532.3 355.8 535.6 352.6 538 355.8 541.1 352.7 543.6 355.8 546.1 352.6 548.6 355.8 551.2 352.6 554.1 355.8"/><polyline class="cls-1" points="526.1 359.5 529.4 356.3 532.3 359.5 535.6 356.3 538 359.5 541.1 356.4 543.6 359.5 546.1 356.3 548.6 359.5 551.2 356.3 554.1 359.5"/><polyline class="cls-1" points="526.1 363.2 529.4 360 532.3 363.2 535.6 360 538 363.2 541.1 360.1 543.6 363.2 546.1 360 548.6 363.2 551.2 360 554.1 363.2"/><polyline class="cls-1" points="516.7 193.3 520.2 197.3 516.7 201.4"/><polyline class="cls-1" points="519 193.3 522.5 197.3 519 201.4"/><polyline class="cls-1" points="521.3 193.3 524.8 197.3 521.3 201.4"/><polyline class="cls-1" points="523.6 193.3 527.1 197.3 523.6 201.4"/></svg>