<?xml version="1.0" encoding="utf-8"?>
<!-- Generator: Adobe Illustrator 19.0.0, SVG Export Plug-In . SVG Version: 6.00 Build 0)  -->
<svg version="1.1" id="Layer_1" xmlns="http://www.w3.org/2000/svg" xmlns:xlink="http://www.w3.org/1999/xlink" x="0px" y="0px"
	 viewBox="0 0 541.9 345.9" style="enable-background:new 0 0 541.9 345.9;" xml:space="preserve">
<style type="text/css">
	.st0{fill:#5B91B2;}
	.st1{opacity:0.26;fill:#F1F0F0;}
	.st2{fill:#4699BA;}
	.st3{fill:none;stroke:#46A0B9;stroke-width:5;stroke-miterlimit:10;}
	.st4{fill:#48839B;}
	.st5{fill:#6D9CB9;}
	.st6{fill:#6EB3D6;}
	.st7{fill:none;stroke:#F2673A;stroke-miterlimit:10;stroke-dasharray:3.132;}
	.st8{fill:#6F9AD1;}
	.st9{fill:#478395;}
	.st10{fill:#4795AD;}
</style>
<path id="XMLID_136_" class="st0" d="M450.3,123.9c0,0,1.6-19.6,24.1-31c22.6-11.4,51.4,5.4,55.1,27.7c3.6,22.3,9,31.3,6.6,36.7
	s-13.8,3-13.8,3l-1.2,15.6l-4.2,3l-1.2,6.6l-4.2,3l-2.4,3h-10.8l-27.4-0.6l-70.4,3L450.3,123.9z"/>
<ellipse id="XMLID_135_" class="st1" cx="508.7" cy="127.4" rx="5.1" ry="6.3"/>
<path id="XMLID_134_" class="st2" d="M416.6,119.7c0,0,1.6-20.6,25.4-32.6s54.1,5.7,57.9,29.1c3.8,23.4,9.5,32.9,7,38.6
	c-2.5,5.7-14.5,3.2-14.5,3.2l-1.3,16.4l-4.4,3.2l-1.3,7l-4.4,3.2l-2.5,3.2h-11.4l-25,3.2h-37.3L416.6,119.7z"/>
<ellipse id="XMLID_133_" class="st1" cx="478" cy="123.4" rx="5.4" ry="6.6"/>
<g id="XMLID_127_">
	<circle id="XMLID_132_" class="st3" cx="111.4" cy="151.2" r="106.2"/>
	<ellipse id="XMLID_131_" class="st3" cx="111.4" cy="151.2" rx="56.6" ry="106.2"/>
	<line id="XMLID_130_" class="st3" x1="111.4" y1="45" x2="111.4" y2="257.5"/>
	<line id="XMLID_129_" class="st3" x1="13.6" y1="107.2" x2="210.5" y2="107.2"/>
	<line id="XMLID_128_" class="st3" x1="13.6" y1="192.6" x2="210.5" y2="192.6"/>
</g>
<path id="XMLID_126_" class="st4" d="M371,113.9c0,0,1.8-22.7,28-36c26.2-13.3,59.8,6.3,63.9,32.1c4.2,25.9,10.5,36.3,7.7,42.6
	c-2.8,6.3-16.1,3.5-16.1,3.5l-1.4,18.2l-4.9,3.5l-1.4,7.7L442,189l-2.8,3.5h-12.6L399,210.6h-19.9L371,113.9z"/>
<ellipse id="XMLID_125_" class="st1" cx="437.6" cy="118.4" rx="5.9" ry="7.3"/>
<polygon id="XMLID_124_" class="st5" points="120.5,271.4 400.4,271.4 400.4,141.5 260.5,7.3 120.5,141.5 "/>
<g id="XMLID_122_">
	<path id="XMLID_123_" class="st6" d="M360.1,109.7L324.7,89c-9.2,10.8-23.9,15-37.3,11L185.8,273.7c10.1,9.7,13.6,24.6,8.7,37.9
		l35.4,20.7c9.6-11.3,25.4-15.4,39.4-10.3l101.2-172.9C359.1,139.4,355,123.7,360.1,109.7z"/>
</g>
<rect id="XMLID_121_" x="179.1" y="180.5" transform="matrix(0.505 -0.8631 0.8631 0.505 -44.5446 345.2073)" class="st7" width="199.2" height="61.8"/>
<g id="XMLID_105_">
	<path id="XMLID_119_" class="st8" d="M241.5,277.1c-6.8-4-8.1-11.6-4.8-17.3c3.4-5.9,8.8-6.8,12.7-5.6l-1.1,4.6
		c-2.3-0.7-5.5-0.3-7.7,3.3c-1.9,3.2-1.5,7.9,3.3,10.7c4.5,2.6,8.9,0.9,10.9-2.5c2.1-3.6,0.8-6.8-0.9-8.5l3.4-3.2
		c2.8,2.7,5,8.1,1.5,14.1C255.5,278.7,248.3,281.1,241.5,277.1z"/>
	<path id="XMLID_116_" class="st8" d="M250.1,237c3.4-5.8,10.6-8.5,17.5-4.5c6.8,4,8,11.6,4.7,17.4c-3.4,5.8-10.6,8.4-17.4,4.4
		C247.9,250.4,246.7,242.8,250.1,237z M268.2,247.7c1.9-3.3,1.6-8-3.2-10.8c-4.8-2.8-9-0.8-11,2.5c-1.9,3.3-1.6,8,3.2,10.8
		C262.1,252.9,266.3,250.9,268.2,247.7z"/>
	<path id="XMLID_114_" class="st8" d="M272.6,231l-13.7-8l2.4-4.1l13.4,7.9c2.8,1.6,5.2,0.9,6.6-1.5c1.5-2.5,0.9-4.9-1.9-6.5
		l-13.4-7.9l2.4-4.1l13.7,8c5.2,3.1,5.9,8.3,3.2,12.9C282.8,232.1,277.9,234.1,272.6,231z"/>
	<path id="XMLID_111_" class="st8" d="M286.9,205.6l8,4.7l-2.4,4.1L271.2,202l4.6-7.9c2.5-4.2,6.9-5.4,10.7-3.1
		c3.9,2.3,5,6.7,2.5,10.9L286.9,205.6z M285.2,200.2c1.2-2.1,0.7-4-1.1-5.1c-1.9-1.1-3.8-0.5-5,1.5l-1.9,3.3l6.1,3.6L285.2,200.2z"
		/>
	<path id="XMLID_108_" class="st8" d="M287,173.9c3.4-5.8,10.6-8.5,17.5-4.5c6.8,4,8,11.6,4.7,17.4c-3.4,5.8-10.6,8.4-17.4,4.4
		C284.9,187.3,283.6,179.7,287,173.9z M305.1,184.5c1.9-3.3,1.6-8-3.2-10.8c-4.8-2.8-9-0.8-11,2.5c-1.9,3.3-1.6,8,3.2,10.8
		C299,189.8,303.2,187.8,305.1,184.5z"/>
	<path id="XMLID_106_" class="st8" d="M325.3,158.3l-20.7,0.8l15.1,8.8l-2.4,4.1L296,159.6l3-5.2l19.2-0.6l-14.1-8.2l2.4-4.1
		l21.3,12.4L325.3,158.3z"/>
</g>
<g id="XMLID_103_">
	<path id="XMLID_104_" class="st6" d="M295.2,79.1L256.1,67c-6.5,12.6-19.9,20-33.9,19.1l-59.7,192.2c12,7.2,18.8,20.9,17.1,35
		l39.2,12.2c6.8-13.2,21.3-20.8,36-18.9l59.5-191.3C301,108.3,293.4,93.9,295.2,79.1z"/>
</g>
<rect id="XMLID_102_" x="139.3" y="165.7" transform="matrix(0.2968 -0.9549 0.9549 0.2968 -19.7995 366.4179)" class="st7" width="199.2" height="61.8"/>
<g id="XMLID_86_">
	<path id="XMLID_100_" class="st8" d="M217.6,269.1c-7.5-2.3-10.5-9.5-8.5-15.8c2-6.5,7-8.6,11.1-8.4l0,4.7c-2.4-0.1-5.5,0.9-6.8,5
		c-1.1,3.5,0.3,8,5.6,9.7c5,1.6,8.9-1.1,10-4.9c1.2-4-0.8-6.8-2.8-8.1l2.6-3.9c3.3,2,6.7,6.8,4.6,13.4
		C231.6,267.4,225.1,271.4,217.6,269.1z"/>
	<path id="XMLID_97_" class="st8" d="M216.9,228.1c2-6.4,8.4-10.7,16-8.3c7.6,2.3,10.5,9.5,8.5,15.9c-2,6.4-8.4,10.6-16,8.3
		C217.8,241.6,214.9,234.5,216.9,228.1z M237,234.3c1.1-3.6-0.2-8.1-5.5-9.8c-5.3-1.6-9,1.3-10.1,4.9c-1.1,3.6,0.2,8.1,5.5,9.8
		C232.2,240.9,235.8,238,237,234.3z"/>
	<path id="XMLID_95_" class="st8" d="M237.5,217.1l-15.2-4.7l1.4-4.6l14.9,4.6c3.1,1,5.2-0.3,6.1-3c0.9-2.8-0.2-5-3.3-5.9l-14.9-4.6
		l1.4-4.6l15.2,4.7c5.8,1.8,7.6,6.8,6,11.8C247.6,215.9,243.3,218.9,237.5,217.1z"/>
	<path id="XMLID_92_" class="st8" d="M245.6,189.2l8.9,2.8l-1.4,4.6l-23.5-7.3l2.7-8.8c1.4-4.6,5.5-6.8,9.7-5.5
		c4.3,1.3,6.4,5.4,4.9,10L245.6,189.2z M242.8,184.3c0.7-2.3-0.2-4.1-2.2-4.7c-2.1-0.6-3.8,0.3-4.5,2.6l-1.1,3.6l6.7,2.1
		L242.8,184.3z"/>
	<path id="XMLID_89_" class="st8" d="M238.6,158.3c2-6.4,8.4-10.7,16-8.3c7.6,2.3,10.5,9.5,8.5,15.9c-2,6.4-8.4,10.6-16,8.3
		C239.5,171.8,236.6,164.6,238.6,158.3z M258.7,164.5c1.1-3.6-0.2-8.1-5.5-9.8c-5.3-1.6-9,1.3-10.1,4.9c-1.1,3.6,0.2,8.1,5.5,9.8
		C253.9,171,257.5,168.1,258.7,164.5z"/>
	<path id="XMLID_87_" class="st8" d="M272.4,134.4l-20,5.5l16.7,5.2l-1.4,4.6l-23.5-7.3l1.8-5.7l18.6-4.9l-15.6-4.8l1.4-4.6
		l23.5,7.3L272.4,134.4z"/>
</g>
<path id="XMLID_85_" class="st9" d="M120.5,142.5v199.2h279.9V142.5L262,270c-0.9,0.8-2.2,0.8-3.1,0L120.5,142.5z"/>
<polygon id="XMLID_84_" class="st10" points="400.4,142.5 400.4,341.7 258.9,270 "/>
<polygon id="XMLID_83_" class="st10" points="120.5,142.5 120.5,341.7 258.9,270 "/>
</svg>
