<?xml version="1.0" encoding="utf-8"?>
<!-- Generator: Adobe Illustrator 19.0.0, SVG Export Plug-In . SVG Version: 6.00 Build 0)  -->
<svg version="1.1" id="Layer_1" xmlns="http://www.w3.org/2000/svg" xmlns:xlink="http://www.w3.org/1999/xlink" x="0px" y="0px"
	 viewBox="0 0 541.9 345.9" style="enable-background:new 0 0 541.9 345.9;" xml:space="preserve">
<style type="text/css">
	.st0{fill:#DFE4E5;}
	.st1{fill:#096B88;}
	.st2{fill:#ECAE20;}
	.st3{fill:#F1F0F0;}
	.st4{fill:none;stroke:#F26839;stroke-width:5;stroke-miterlimit:10;}
	.st5{fill:#EB4B4C;}
	.st6{fill:#F6B21A;}
	.st7{fill:none;stroke:#F2673A;stroke-miterlimit:10;stroke-dasharray:3.132;}
	.st8{font-family:'CircularStd-Bold';}
	.st9{font-size:34.7272px;}
	.st10{fill:#1B9DA6;}
	.st11{fill:#88CDC4;}
</style>
<g id="XMLID_28_">
	<path id="XMLID_30_" class="st0" d="M449.8,121.5c0,0,1.6-19.6,24.1-31s51.4,5.4,55.1,27.7c3.6,22.3,9,31.3,6.6,36.7
		c-2.4,5.4-13.8,3-13.8,3l-1.2,15.6l-4.2,3l-1.2,6.6l-4.2,3l-2.4,3h-10.8l-27.4-0.6l-70.4,3L449.8,121.5z"/>
	<ellipse id="XMLID_29_" class="st1" cx="508.3" cy="125" rx="5.1" ry="6.3"/>
</g>
<g id="XMLID_25_">
	<path id="XMLID_27_" class="st2" d="M416.1,117.3c0,0,1.6-20.6,25.4-32.6s54.1,5.7,57.9,29.1c3.8,23.4,9.5,32.9,7,38.6
		c-2.5,5.7-14.5,3.2-14.5,3.2l-1.3,16.4l-4.4,3.2l-1.3,7l-4.4,3.2l-2.5,3.2h-11.4l-25,3.2h-37.3L416.1,117.3z"/>
	<ellipse id="XMLID_26_" class="st3" cx="477.5" cy="121" rx="5.4" ry="6.6"/>
</g>
<g id="XMLID_19_">
	<circle id="XMLID_24_" class="st4" cx="111" cy="148.8" r="106.2"/>
	<ellipse id="XMLID_23_" class="st4" cx="111" cy="148.8" rx="56.6" ry="106.2"/>
	<line id="XMLID_22_" class="st4" x1="111" y1="42.6" x2="111" y2="255.1"/>
	<line id="XMLID_21_" class="st4" x1="13.1" y1="104.8" x2="210" y2="104.8"/>
	<line id="XMLID_20_" class="st4" x1="13.1" y1="190.2" x2="210" y2="190.2"/>
</g>
<g id="XMLID_16_">
	<path id="XMLID_18_" class="st5" d="M370.6,111.5c0,0,1.8-22.7,28-36c26.2-13.3,59.8,6.3,63.9,32.1c4.2,25.9,10.5,36.3,7.7,42.6
		s-16.1,3.5-16.1,3.5l-1.4,18.2l-4.9,3.5l-1.4,7.7l-4.9,3.5l-2.8,3.5h-12.6l-27.6,18.2h-19.9L370.6,111.5z"/>
	<ellipse id="XMLID_17_" class="st3" cx="437.2" cy="116" rx="5.9" ry="7.3"/>
</g>
<polygon id="XMLID_15_" class="st6" points="120.1,269 399.9,269 399.9,139.1 260,4.9 120.1,139.1 "/>
<g id="XMLID_10_">
	<g id="XMLID_13_">
		<path id="XMLID_14_" class="st3" d="M359.7,107.3l-35.4-20.7c-9.2,10.8-23.9,15-37.3,11L185.3,271.3c10.1,9.7,13.6,24.6,8.7,37.9
			l35.4,20.7c9.6-11.3,25.4-15.4,39.4-10.3L370,146.7C358.7,137,354.5,121.3,359.7,107.3z"/>
	</g>
	
		<rect id="XMLID_12_" x="178.6" y="178.1" transform="matrix(0.505 -0.8631 0.8631 0.505 -42.705 343.6253)" class="st7" width="199.2" height="61.8"/>
	<text id="XMLID_11_" transform="matrix(0.505 -0.8631 0.8631 0.505 250.9821 282.1192)" class="st1 st8 st9">COUPON</text>
</g>
<g id="XMLID_5_">
	<g id="XMLID_8_">
		<path id="XMLID_9_" class="st3" d="M294.8,76.7l-39.2-12.2c-6.5,12.6-19.9,20-33.9,19.1L162,275.9c12,7.2,18.8,20.9,17.1,35
			l39.2,12.2c6.8-13.2,21.3-20.8,36-18.9l59.5-191.3C300.5,105.9,292.9,91.5,294.8,76.7z"/>
	</g>
	
		<rect id="XMLID_7_" x="138.8" y="163.3" transform="matrix(0.2968 -0.9549 0.9549 0.2968 -17.8357 364.2951)" class="st7" width="199.2" height="61.8"/>
	<text id="XMLID_6_" transform="matrix(0.2968 -0.9549 0.9549 0.2968 228.4963 271.6425)" class="st1 st8 st9">COUPON</text>
</g>
<path id="XMLID_4_" class="st10" d="M120.1,140.1v199.2h279.9V140.1L261.6,267.6c-0.9,0.8-2.2,0.8-3.1,0L120.1,140.1z"/>
<polygon id="XMLID_3_" class="st11" points="399.9,140.1 399.9,339.3 258.4,267.6 "/>
<polygon id="XMLID_2_" class="st11" points="120.1,140.1 120.1,339.3 258.4,267.6 "/>
</svg>
