<svg id="Layer_1" data-name="Layer 1" xmlns="http://www.w3.org/2000/svg" viewBox="0 0 592.29 898.4"><defs><style>.cls-1,.cls-14,.cls-15{fill:#c95f30;}.cls-1,.cls-10,.cls-11,.cls-12,.cls-13,.cls-14,.cls-15,.cls-16,.cls-17,.cls-18,.cls-19,.cls-21,.cls-23,.cls-24,.cls-25,.cls-26,.cls-27,.cls-28{stroke:#000;}.cls-1,.cls-10,.cls-11,.cls-14,.cls-15,.cls-16,.cls-17,.cls-18,.cls-19,.cls-21,.cls-23,.cls-24,.cls-25{stroke-miterlimit:10;}.cls-1{stroke-width:6.29px;}.cls-2{fill:#e55353;}.cls-3{fill:#61f0ff;}.cls-3,.cls-5,.cls-6,.cls-7{stroke:#303030;}.cls-12,.cls-13,.cls-26,.cls-27,.cls-28,.cls-3,.cls-4,.cls-5,.cls-6,.cls-7,.cls-8{stroke-linecap:round;stroke-linejoin:round;}.cls-3,.cls-5,.cls-6,.cls-7,.cls-8{stroke-width:2.3px;}.cls-4{fill:#303030;stroke:#fff;stroke-width:2.33px;}.cls-5,.cls-9{fill:#fff;}.cls-6{fill:#cae8ea;}.cls-23,.cls-7,.cls-8{fill:none;}.cls-8{stroke:#5e5b5b;}.cls-10{fill:#d89461;}.cls-10,.cls-11,.cls-12,.cls-15,.cls-19,.cls-23,.cls-24,.cls-26{stroke-width:5.56px;}.cls-11,.cls-25{fill:#f9b57d;}.cls-12{fill:#ffcf33;}.cls-13{stroke-width:0.87px;}.cls-14,.cls-16,.cls-25{stroke-width:5.78px;}.cls-16,.cls-18{fill:#ff3d3d;}.cls-17{fill:#ac3d3d;}.cls-17,.cls-18,.cls-21{stroke-width:5px;}.cls-19{fill:#666;}.cls-20{fill:#f2673a;}.cls-21{fill:#b05859;}.cls-22{fill:#474747;}.cls-24{fill:#c15f30;}.cls-26,.cls-27{fill:#f63;}.cls-27{stroke-width:5.52px;}.cls-28{fill:#d8cc90;stroke-width:5.27px;}</style></defs><title>iphone7infographic2222</title><polygon class="cls-1" points="183.69 480.43 226.16 382.48 333.73 382.83 317.05 435.14 247.64 414.14 203.24 494.13 192.76 484.56 183.69 480.43"/><rect class="cls-2" x="393.11" y="55.84" width="183.61" height="333.66"/><rect class="cls-3" x="380.34" y="1.16" width="210.8" height="439.72" rx="28.99" ry="28.99"/><rect class="cls-4" x="384.96" y="1.16" width="201.56" height="439.72" rx="28.35" ry="28.35"/><circle class="cls-3" cx="485.19" cy="414.37" r="17.15"/><circle class="cls-5" cx="485.19" cy="414.37" r="13.75"/><rect class="cls-6" x="393.11" y="55.84" width="184.59" height="333.71"/><circle class="cls-7" cx="451.18" cy="29.93" r="3.74"/><circle class="cls-8" cx="451.18" cy="29.93" r="2.44"/><rect class="cls-3" x="466.08" y="27.27" width="38.14" height="3.68" rx="1.84" ry="1.84"/><path class="cls-9" d="M577.84,56.08S559.24,374.35,393.24,389.55V56.32Z"/><polygon class="cls-10" points="328.55 325.92 306.41 399.61 357.29 395.49 360.57 347.93 328.55 325.92"/><path class="cls-11" d="M387.66,311.44l12.39,33.22-9.63.78s1.85,20.39-6.25,34.95l-47.61-21.47L332.7,311.1,350,294l44.91-9.79S409.95,297,387.66,311.44Z"/><path class="cls-12" d="M348,312.24l-5.52,21.11-17.42,4.9,7.61-27.15L350,294l46.23-14.79s5.74,2.21,3.9,9.31l8.72-3.11s0.48,7.73-2.39,8.89l10.42-1.2s-6.1,16.49-29.18,18.35Z"/><circle cx="376.63" cy="338.65" r="4.54" transform="translate(-26.06 31.44) rotate(-4.62)"/><rect x="366.14" y="325.95" width="18.18" height="4.75" rx="2.38" ry="2.38" transform="translate(109.8 -93.74) rotate(16.65)"/><circle class="cls-11" cx="334.83" cy="337.47" r="9.78" transform="translate(-26.1 28.07) rotate(-4.62)"/><polygon id="_Path_" data-name="&lt;Path&gt;" class="cls-13" points="331.07 335.6 336.38 335.66 336.32 340.96 331.07 335.6"/><rect class="cls-11" x="183.53" y="464.29" width="43.53" height="36.35" rx="16.34" ry="16.34" transform="translate(329.25 -26.99) rotate(36.73)"/><path class="cls-14" d="M348.73,380.81s30.29,10,30.29,42.81S349.72,556,349.72,556l-129.83-4.37,56.77-132.14S297.1,366,348.73,380.81Z"/><path class="cls-15" d="M289.49,400.56c-10.73,28.67-23.82,82.67,6.42,127.26a36.34,36.34,0,0,0,31.8,16c36-1.67,102.07-22.57,148.29-90.74l-16.59-11.18L344.78,487.8l-1.88-88.19c-1-10.12-13.93-19.23-24.19-19.23h0A31.16,31.16,0,0,0,289.49,400.56Z"/><path class="cls-16" d="M234.45,569.54s27.6,86.27,92.76,90.61c0,0-36.87,32.77,25.63,196.9l27-.83-6.25-184.95-25-114.3Z"/><path class="cls-17" d="M321.33,734.09c-4.53-53,5.88-73.94,5.88-73.94-36.86-1.29-59.1-36.18-59.1-36.18l54.29-31.22,30.71,78.36L366.46,856l-10.06,1s-32.11-88-34-115.76Z"/><path class="cls-18" d="M348.14,556s-73.2,158.22-117.57,171.17c0,0-155.29-51.26-165.46-157.26h41.47L211.18,655s-3.89-78.52,23.27-102.79Z"/><rect class="cls-19" x="138.74" y="471.29" width="78.48" height="57.49" rx="18.93" ry="18.93" transform="translate(342.45 -4.61) rotate(37.64)"/><rect class="cls-20" x="154.08" y="481.46" width="54.53" height="28.34" rx="11.39" ry="11.39" transform="translate(340.46 -7.58) rotate(37.64)"/><path class="cls-21" d="M353.11,859.19L361,895.9h82.89S433,862.66,389.6,868.17c0,0-9.44-.17-9.73-9.05S353.11,859.19,353.11,859.19Z"/><path class="cls-21" d="M94.19,565.83L86.33,528.9H3.44s10.88,33.45,54.26,27.94c0,0,9.44.17,9.73,9.05S94.19,565.83,94.19,565.83Z"/><rect class="cls-19" x="50.3" y="483.89" width="178.29" height="127.49" transform="translate(363.5 28.84) rotate(37.64)"/><path class="cls-22" d="M33.67,542.82s42.16-23.56,84.63,23,126.89-13.63,126.89-13.63l-74.49,96.42Z"/><polyline class="cls-23" points="248.97 551.61 183.69 566.89 103.18 502.6 107.79 442.72"/><rect class="cls-11" x="175.68" y="472.84" width="27.83" height="10.5" rx="5.25" ry="5.25" transform="translate(-282.53 274.09) rotate(-45)"/><rect class="cls-11" x="183.4" y="479.04" width="27.83" height="10.5" rx="5.25" ry="5.25" transform="translate(-284.65 281.37) rotate(-45)"/><rect class="cls-11" x="191.13" y="485.24" width="27.83" height="10.5" rx="5.25" ry="5.25" transform="translate(-286.77 288.65) rotate(-45)"/><rect class="cls-11" x="198.85" y="491.44" width="27.83" height="10.5" rx="5.25" ry="5.25" transform="translate(-288.89 295.92) rotate(-45)"/><rect class="cls-11" x="463.7" y="431.21" width="27.83" height="10.5" rx="5.25" ry="5.25" transform="translate(-168.73 465.56) rotate(-45)"/><path class="cls-24" d="M306.41,382.91l5.36-14.8a6.09,6.09,0,0,1,7.41-3.78l39.47,11.32,1.91,11.78Z"/><path class="cls-25" d="M460.63,443l12.18-6.35h29.68a2.88,2.88,0,0,1,1.84,5.09c-3.9,3.18-10.78,6.57-22.17,6.07L476,453.41Z"/><rect class="cls-26" x="118.96" y="519.69" width="52.78" height="33.13" rx="6.7" ry="6.7" transform="translate(357.78 22.86) rotate(37.64)"/><rect class="cls-27" x="115.9" y="531.25" width="52.01" height="20" rx="5.7" ry="5.7" transform="translate(360.11 26.01) rotate(37.64)"/><path class="cls-28" d="M351.86,388.29l22,79.66,7-28.27s6.82-39.82-16.06-50.33Z"/><circle cx="371.22" cy="421.75" r="3.56" transform="translate(-56.01 56.85) rotate(-8.15)"/><circle cx="372.99" cy="431.79" r="3.56" transform="translate(-57.42 57.21) rotate(-8.15)"/></svg>